{
  "track_name": "06 - Prelude to Adventure",
  "duration_sec": 50.771,
  "sample_rate": 44100,
  "note_count": 327,
  "unique_pitches": 17,
  "pitch_range": 41,
  "avg_note_duration": 0.7719,
  "reconstruction_stats": {
    "notes_reconstructed": 327,
    "keyon_events": 327,
    "keyoff_events": 322,
    "orphan_keyons": 5,
    "unique_pitches": 17,
    "pitch_range": 41,
    "avg_duration_sec": 0.7719
  },
  "metadata": {
    "source": "Y\\Ys III - Wanderers From Ys (MD)\\06 - Prelude to Adventure.vgz"
  },
  "notes": [
    {
      "channel": 0,
      "note": 45,
      "start": 0.0376,
      "duration": 0.5833,
      "velocity": 94,
      "chip": "ym2612"
    },
    {
      "channel": 1,
      "note": 71,
      "start": 0.0417,
      "duration": 0.0541,
      "velocity": 99,
      "chip": "ym2612"
    },
    {
      "channel": 2,
      "note": 69,
      "start": 0.0459,
      "duration": 0.7093,
      "velocity": 115,
      "chip": "ym2612"
    },
    {
      "channel": 4,
      "note": 73,
      "start": 0.075,
      "duration": 0.7039,
      "velocity": 115,
      "chip": "ym2612"
    },
    {
      "channel": 3,
      "note": 76,
      "start": 0.094,
      "duration": 0.0377,
      "velocity": 99,
      "chip": "ym2612"
    },
    {
      "channel": 1,
      "note": 69,
      "start": 0.099,
      "duration": 0.038,
      "velocity": 99,
      "chip": "ym2612"
    },
    {
      "channel": 3,
      "note": 71,
      "start": 0.1347,
      "duration": 0.0423,
      "velocity": 99,
      "chip": "ym2612"
    },
    {
      "channel": 1,
      "note": 71,
      "start": 0.14,
      "duration": 0.0424,
      "velocity": 99,
      "chip": "ym2612"
    },
    {
      "channel": 3,
      "note": 69,
      "start": 0.1801,
      "duration": 0.039,
      "velocity": 99,
      "chip": "ym2612"
    },
    {
      "channel": 1,
      "note": 76,
      "start": 0.1854,
      "duration": 0.0814,
      "velocity": 99,
      "chip": "ym2612"
    },
    {
      "channel": 3,
      "note": 71,
      "start": 0.2233,
      "duration": 0.0807,
      "velocity": 99,
      "chip": "ym2612"
    },
    {
      "channel": 1,
      "note": 71,
      "start": 0.2697,
      "duration": 0.0882,
      "velocity": 99,
      "chip": "ym2612"
    },
    {
      "channel": 3,
      "note": 76,
      "start": 0.3068,
      "duration": 0.0903,
      "velocity": 99,
      "chip": "ym2612"
    },
    {
      "channel": 1,
      "note": 69,
      "start": 0.3614,
      "duration": 0.0408,
      "velocity": 99,
      "chip": "ym2612"
    },
    {
      "channel": 3,
      "note": 71,
      "start": 0.4002,
      "duration": 0.0401,
      "velocity": 99,
      "chip": "ym2612"
    },
    {
      "channel": 1,
      "note": 71,
      "start": 0.4054,
      "duration": 0.04,
      "velocity": 99,
      "chip": "ym2612"
    },
    {
      "channel": 3,
      "note": 69,
      "start": 0.4433,
      "duration": 0.0421,
      "velocity": 99,
      "chip": "ym2612"
    },
    {
      "channel": 1,
      "note": 69,
      "start": 0.4488,
      "duration": 0.0418,
      "velocity": 99,
      "chip": "ym2612"
    },
    {
      "channel": 3,
      "note": 71,
      "start": 0.4882,
      "duration": 0.0405,
      "velocity": 99,
      "chip": "ym2612"
    },
    {
      "channel": 1,
      "note": 71,
      "start": 0.4937,
      "duration": 0.0411,
      "velocity": 99,
      "chip": "ym2612"
    },
    {
      "channel": 3,
      "note": 69,
      "start": 0.5321,
      "duration": 0.0406,
      "velocity": 99,
      "chip": "ym2612"
    },
    {
      "channel": 1,
      "note": 76,
      "start": 0.5385,
      "duration": 0.0827,
      "velocity": 99,
      "chip": "ym2612"
    },
    {
      "channel": 3,
      "note": 71,
      "start": 0.5759,
      "duration": 0.084,
      "velocity": 99,
      "chip": "ym2612"
    },
    {
      "channel": 0,
      "note": 40,
      "start": 0.6249,
      "duration": 0.1298,
      "velocity": 94,
      "chip": "ym2612"
    },
    {
      "channel": 1,
      "note": 69,
      "start": 0.6254,
      "duration": 0.0843,
      "velocity": 99,
      "chip": "ym2612"
    },
    {
      "channel": 3,
      "note": 76,
      "start": 0.663,
      "duration": 0.0864,
      "velocity": 99,
      "chip": "ym2612"
    },
    {
      "channel": 1,
      "note": 64,
      "start": 0.7132,
      "duration": 0.0418,
      "velocity": 99,
      "chip": "ym2612"
    },
    {
      "channel": 3,
      "note": 69,
      "start": 0.7526,
      "duration": 0.0409,
      "velocity": 99,
      "chip": "ym2612"
    },
    {
      "channel": 0,
      "note": 45,
      "start": 0.758,
      "duration": 0.698,
      "velocity": 94,
      "chip": "ym2612"
    },
    {
      "channel": 1,
      "note": 71,
      "start": 0.7586,
      "duration": 0.0397,
      "velocity": 99,
      "chip": "ym2612"
    },
    {
      "channel": 2,
      "note": 69,
      "start": 0.7593,
      "duration": 0.6973,
      "velocity": 115,
      "chip": "ym2612"
    },
    {
      "channel": 4,
      "note": 69,
      "start": 0.7831,
      "duration": 0.6995,
      "velocity": 115,
      "chip": "ym2612"
    },
    {
      "channel": 3,
      "note": 64,
      "start": 0.7961,
      "duration": 0.0365,
      "velocity": 99,
      "chip": "ym2612"
    },
    {
      "channel": 1,
      "note": 69,
      "start": 0.8018,
      "duration": 0.0367,
      "velocity": 99,
      "chip": "ym2612"
    },
    {
      "channel": 3,
      "note": 71,
      "start": 0.8357,
      "duration": 0.0409,
      "velocity": 99,
      "chip": "ym2612"
    },
    {
      "channel": 1,
      "note": 71,
      "start": 0.8432,
      "duration": 0.0385,
      "velocity": 99,
      "chip": "ym2612"
    },
    {
      "channel": 3,
      "note": 69,
      "start": 0.8792,
      "duration": 0.0412,
      "velocity": 99,
      "chip": "ym2612"
    },
    {
      "channel": 1,
      "note": 76,
      "start": 0.8846,
      "duration": 0.0848,
      "velocity": 99,
      "chip": "ym2612"
    },
    {
      "channel": 3,
      "note": 71,
      "start": 0.9231,
      "duration": 0.0833,
      "velocity": 99,
      "chip": "ym2612"
    },
    {
      "channel": 1,
      "note": 71,
      "start": 0.9741,
      "duration": 0.083,
      "velocity": 99,
      "chip": "ym2612"
    },
    {
      "channel": 3,
      "note": 76,
      "start": 1.0093,
      "duration": 0.0881,
      "velocity": 99,
      "chip": "ym2612"
    },
    {
      "channel": 1,
      "note": 69,
      "start": 1.0606,
      "duration": 0.0428,
      "velocity": 99,
      "chip": "ym2612"
    },
    {
      "channel": 3,
      "note": 71,
      "start": 1.101,
      "duration": 0.0398,
      "velocity": 99,
      "chip": "ym2612"
    },
    {
      "channel": 1,
      "note": 71,
      "start": 1.1066,
      "duration": 0.0398,
      "velocity": 99,
      "chip": "ym2612"
    },
    {
      "channel": 3,
      "note": 69,
      "start": 1.1437,
      "duration": 0.042,
      "velocity": 99,
      "chip": "ym2612"
    },
    {
      "channel": 1,
      "note": 69,
      "start": 1.1507,
      "duration": 0.0401,
      "velocity": 99,
      "chip": "ym2612"
    },
    {
      "channel": 3,
      "note": 71,
      "start": 1.1888,
      "duration": 0.0416,
      "velocity": 99,
      "chip": "ym2612"
    },
    {
      "channel": 1,
      "note": 71,
      "start": 1.1947,
      "duration": 0.0411,
      "velocity": 99,
      "chip": "ym2612"
    },
    {
      "channel": 3,
      "note": 69,
      "start": 1.2334,
      "duration": 0.0389,
      "velocity": 99,
      "chip": "ym2612"
    },
    {
      "channel": 1,
      "note": 76,
      "start": 1.2387,
      "duration": 0.0801,
      "velocity": 99,
      "chip": "ym2612"
    },
    {
      "channel": 3,
      "note": 71,
      "start": 1.2765,
      "duration": 0.0823,
      "velocity": 99,
      "chip": "ym2612"
    },
    {
      "channel": 1,
      "note": 69,
      "start": 1.3236,
      "duration": 0.0882,
      "velocity": 99,
      "chip": "ym2612"
    },
    {
      "channel": 3,
      "note": 76,
      "start": 1.362,
      "duration": 0.0888,
      "velocity": 99,
      "chip": "ym2612"
    },
    {
      "channel": 1,
      "note": 64,
      "start": 1.4152,
      "duration": 0.0412,
      "velocity": 99,
      "chip": "ym2612"
    },
    {
      "channel": 3,
      "note": 69,
      "start": 1.4539,
      "duration": 0.0421,
      "velocity": 99,
      "chip": "ym2612"
    },
    {
      "channel": 0,
      "note": 50,
      "start": 1.4595,
      "duration": 0.5694,
      "velocity": 94,
      "chip": "ym2612"
    },
    {
      "channel": 1,
      "note": 76,
      "start": 1.4604,
      "duration": 0.0404,
      "velocity": 99,
      "chip": "ym2612"
    },
    {
      "channel": 2,
      "note": 74,
      "start": 1.4619,
      "duration": 0.7022,
      "velocity": 115,
      "chip": "ym2612"
    },
    {
      "channel": 4,
      "note": 69,
      "start": 1.4859,
      "duration": 0.7027,
      "velocity": 115,
      "chip": "ym2612"
    },
    {
      "channel": 3,
      "note": 64,
      "start": 1.4988,
      "duration": 0.0388,
      "velocity": 99,
      "chip": "ym2612"
    },
    {
      "channel": 1,
      "note": 74,
      "start": 1.5035,
      "duration": 0.0396,
      "velocity": 99,
      "chip": "ym2612"
    },
    {
      "channel": 3,
      "note": 76,
      "start": 1.5408,
      "duration": 0.0401,
      "velocity": 99,
      "chip": "ym2612"
    },
    {
      "channel": 1,
      "note": 76,
      "start": 1.5461,
      "duration": 0.0417,
      "velocity": 99,
      "chip": "ym2612"
    },
    {
      "channel": 3,
      "note": 74,
      "start": 1.585,
      "duration": 0.0394,
      "velocity": 99,
      "chip": "ym2612"
    },
    {
      "channel": 1,
      "note": 81,
      "start": 1.5909,
      "duration": 0.0831,
      "velocity": 99,
      "chip": "ym2612"
    },
    {
      "channel": 3,
      "note": 76,
      "start": 1.6275,
      "duration": 0.0866,
      "velocity": 99,
      "chip": "ym2612"
    },
    {
      "channel": 1,
      "note": 76,
      "start": 1.6784,
      "duration": 0.0856,
      "velocity": 99,
      "chip": "ym2612"
    },
    {
      "channel": 3,
      "note": 81,
      "start": 1.7173,
      "duration": 0.0874,
      "velocity": 99,
      "chip": "ym2612"
    },
    {
      "channel": 1,
      "note": 74,
      "start": 1.7679,
      "duration": 0.0428,
      "velocity": 99,
      "chip": "ym2612"
    },
    {
      "channel": 3,
      "note": 76,
      "start": 1.8083,
      "duration": 0.042,
      "velocity": 99,
      "chip": "ym2612"
    },
    {
      "channel": 1,
      "note": 76,
      "start": 1.8138,
      "duration": 0.0419,
      "velocity": 99,
      "chip": "ym2612"
    },
    {
      "channel": 3,
      "note": 74,
      "start": 1.8532,
      "duration": 0.0397,
      "velocity": 99,
      "chip": "ym2612"
    },
    {
      "channel": 1,
      "note": 74,
      "start": 1.8587,
      "duration": 0.0406,
      "velocity": 99,
      "chip": "ym2612"
    },
    {
      "channel": 3,
      "note": 76,
      "start": 1.8963,
      "duration": 0.041,
      "velocity": 99,
      "chip": "ym2612"
    },
    {
      "channel": 1,
      "note": 76,
      "start": 1.9039,
      "duration": 0.0385,
      "velocity": 99,
      "chip": "ym2612"
    },
    {
      "channel": 3,
      "note": 74,
      "start": 1.9404,
      "duration": 0.0407,
      "velocity": 99,
      "chip": "ym2612"
    },
    {
      "channel": 1,
      "note": 81,
      "start": 1.9453,
      "duration": 0.0839,
      "velocity": 99,
      "chip": "ym2612"
    },
    {
      "channel": 3,
      "note": 76,
      "start": 1.9838,
      "duration": 0.0822,
      "velocity": 99,
      "chip": "ym2612"
    },
    {
      "channel": 0,
      "note": 45,
      "start": 2.0325,
      "duration": 0.131,
      "velocity": 94,
      "chip": "ym2612"
    },
    {
      "channel": 1,
      "note": 76,
      "start": 2.033,
      "duration": 0.0846,
      "velocity": 99,
      "chip": "ym2612"
    },
    {
      "channel": 3,
      "note": 81,
      "start": 2.0692,
      "duration": 0.0892,
      "velocity": 99,
      "chip": "ym2612"
    },
    {
      "channel": 1,
      "note": 69,
      "start": 2.1215,
      "duration": 0.0423,
      "velocity": 99,
      "chip": "ym2612"
    },
    {
      "channel": 3,
      "note": 76,
      "start": 2.1618,
      "duration": 0.0397,
      "velocity": 99,
      "chip": "ym2612"
    },
    {
      "channel": 0,
      "note": 50,
      "start": 2.1673,
      "duration": 0.5643,
      "velocity": 94,
      "chip": "ym2612"
    },
    {
      "channel": 1,
      "note": 76,
      "start": 2.168,
      "duration": 0.0388,
      "velocity": 99,
      "chip": "ym2612"
    },
    {
      "channel": 2,
      "note": 74,
      "start": 2.1687,
      "duration": 0.6978,
      "velocity": 115,
      "chip": "ym2612"
    },
    {
      "channel": 4,
      "note": 74,
      "start": 2.1917,
      "duration": 0.7002,
      "velocity": 115,
      "chip": "ym2612"
    },
    {
      "channel": 3,
      "note": 69,
      "start": 2.2042,
      "duration": 0.0387,
      "velocity": 99,
      "chip": "ym2612"
    },
    {
      "channel": 1,
      "note": 74,
      "start": 2.212,
      "duration": 0.0359,
      "velocity": 99,
      "chip": "ym2612"
    },
    {
      "channel": 3,
      "note": 76,
      "start": 2.2456,
      "duration": 0.0411,
      "velocity": 99,
      "chip": "ym2612"
    },
    {
      "channel": 1,
      "note": 76,
      "start": 2.2509,
      "duration": 0.0409,
      "velocity": 99,
      "chip": "ym2612"
    },
    {
      "channel": 3,
      "note": 74,
      "start": 2.2898,
      "duration": 0.0406,
      "velocity": 99,
      "chip": "ym2612"
    },
    {
      "channel": 1,
      "note": 81,
      "start": 2.2943,
      "duration": 0.0815,
      "velocity": 99,
      "chip": "ym2612"
    },
    {
      "channel": 3,
      "note": 76,
      "start": 2.3335,
      "duration": 0.0812,
      "velocity": 99,
      "chip": "ym2612"
    },
    {
      "channel": 1,
      "note": 76,
      "start": 2.3789,
      "duration": 0.0885,
      "velocity": 99,
      "chip": "ym2612"
    },
    {
      "channel": 3,
      "note": 81,
      "start": 2.4179,
      "duration": 0.0886,
      "velocity": 99,
      "chip": "ym2612"
    },
    {
      "channel": 1,
      "note": 74,
      "start": 2.471,
      "duration": 0.0418,
      "velocity": 99,
      "chip": "ym2612"
    },
    {
      "channel": 3,
      "note": 76,
      "start": 2.51,
      "duration": 0.0403,
      "velocity": 99,
      "chip": "ym2612"
    },
    {
      "channel": 1,
      "note": 76,
      "start": 2.5165,
      "duration": 0.0393,
      "velocity": 99,
      "chip": "ym2612"
    },
    {
      "channel": 3,
      "note": 74,
      "start": 2.5534,
      "duration": 0.0427,
      "velocity": 99,
      "chip": "ym2612"
    },
    {
      "channel": 1,
      "note": 74,
      "start": 2.5595,
      "duration": 0.0416,
      "velocity": 99,
      "chip": "ym2612"
    },
    {
      "channel": 3,
      "note": 76,
      "start": 2.5987,
      "duration": 0.0411,
      "velocity": 99,
      "chip": "ym2612"
    },
    {
      "channel": 1,
      "note": 76,
      "start": 2.6044,
      "duration": 0.0417,
      "velocity": 99,
      "chip": "ym2612"
    },
    {
      "channel": 3,
      "note": 74,
      "start": 2.6436,
      "duration": 0.0391,
      "velocity": 99,
      "chip": "ym2612"
    },
    {
      "channel": 1,
      "note": 81,
      "start": 2.6487,
      "duration": 0.0832,
      "velocity": 99,
      "chip": "ym2612"
    },
    {
      "channel": 3,
      "note": 76,
      "start": 2.6857,
      "duration": 0.0846,
      "velocity": 99,
      "chip": "ym2612"
    },
    {
      "channel": 0,
      "note": 45,
      "start": 2.7357,
      "duration": 0.1302,
      "velocity": 94,
      "chip": "ym2612"
    },
    {
      "channel": 1,
      "note": 76,
      "start": 2.7362,
      "duration": 0.0835,
      "velocity": 99,
      "chip": "ym2612"
    },
    {
      "channel": 3,
      "note": 81,
      "start": 2.7731,
      "duration": 0.0873,
      "velocity": 99,
      "chip": "ym2612"
    },
    {
      "channel": 1,
      "note": 69,
      "start": 2.8239,
      "duration": 0.0423,
      "velocity": 99,
      "chip": "ym2612"
    },
    {
      "channel": 3,
      "note": 76,
      "start": 2.8639,
      "duration": 0.0419,
      "velocity": 99,
      "chip": "ym2612"
    },
    {
      "channel": 0,
      "note": 45,
      "start": 2.8692,
      "duration": 0.5641,
      "velocity": 94,
      "chip": "ym2612"
    },
    {
      "channel": 1,
      "note": 71,
      "start": 2.87,
      "duration": 0.0405,
      "velocity": 99,
      "chip": "ym2612"
    },
    {
      "channel": 2,
      "note": 69,
      "start": 2.8709,
      "duration": 0.7013,
      "velocity": 115,
      "chip": "ym2612"
    },
    {
      "channel": 4,
      "note": 74,
      "start": 2.8956,
      "duration": 0.7015,
      "velocity": 115,
      "chip": "ym2612"
    },
    {
      "channel": 3,
      "note": 69,
      "start": 2.9086,
      "duration": 0.0372,
      "velocity": 99,
      "chip": "ym2612"
    },
    {
      "channel": 1,
      "note": 69,
      "start": 2.913,
      "duration": 0.0393,
      "velocity": 99,
      "chip": "ym2612"
    },
    {
      "channel": 3,
      "note": 71,
      "start": 2.95,
      "duration": 0.0396,
      "velocity": 99,
      "chip": "ym2612"
    },
    {
      "channel": 1,
      "note": 71,
      "start": 2.9553,
      "duration": 0.0397,
      "velocity": 99,
      "chip": "ym2612"
    },
    {
      "channel": 3,
      "note": 69,
      "start": 2.9925,
      "duration": 0.0409,
      "velocity": 99,
      "chip": "ym2612"
    },
    {
      "channel": 1,
      "note": 76,
      "start": 2.9978,
      "duration": 0.0839,
      "velocity": 99,
      "chip": "ym2612"
    },
    {
      "channel": 3,
      "note": 71,
      "start": 3.0365,
      "duration": 0.0823,
      "velocity": 99,
      "chip": "ym2612"
    },
    {
      "channel": 1,
      "note": 71,
      "start": 3.0857,
      "duration": 0.0847,
      "velocity": 99,
      "chip": "ym2612"
    },
    {
      "channel": 3,
      "note": 76,
      "start": 3.122,
      "duration": 0.0888,
      "velocity": 99,
      "chip": "ym2612"
    },
    {
      "channel": 1,
      "note": 69,
      "start": 3.1743,
      "duration": 0.042,
      "velocity": 99,
      "chip": "ym2612"
    },
    {
      "channel": 3,
      "note": 71,
      "start": 3.2139,
      "duration": 0.0402,
      "velocity": 99,
      "chip": "ym2612"
    },
    {
      "channel": 1,
      "note": 71,
      "start": 3.2195,
      "duration": 0.0409,
      "velocity": 99,
      "chip": "ym2612"
    },
    {
      "channel": 3,
      "note": 69,
      "start": 3.2579,
      "duration": 0.0405,
      "velocity": 99,
      "chip": "ym2612"
    },
    {
      "channel": 1,
      "note": 69,
      "start": 3.265,
      "duration": 0.0384,
      "velocity": 99,
      "chip": "ym2612"
    },
    {
      "channel": 3,
      "note": 71,
      "start": 3.3015,
      "duration": 0.0417,
      "velocity": 99,
      "chip": "ym2612"
    },
    {
      "channel": 1,
      "note": 71,
      "start": 3.3074,
      "duration": 0.0412,
      "velocity": 99,
      "chip": "ym2612"
    },
    {
      "channel": 3,
      "note": 69,
      "start": 3.3462,
      "duration": 0.0406,
      "velocity": 99,
      "chip": "ym2612"
    },
    {
      "channel": 1,
      "note": 76,
      "start": 3.3516,
      "duration": 0.0821,
      "velocity": 99,
      "chip": "ym2612"
    },
    {
      "channel": 3,
      "note": 71,
      "start": 3.39,
      "duration": 0.0834,
      "velocity": 99,
      "chip": "ym2612"
    },
    {
      "channel": 0,
      "note": 40,
      "start": 3.4381,
      "duration": 0.1335,
      "velocity": 94,
      "chip": "ym2612"
    },
    {
      "channel": 1,
      "note": 69,
      "start": 3.4386,
      "duration": 0.0875,
      "velocity": 99,
      "chip": "ym2612"
    },
    {
      "channel": 3,
      "note": 76,
      "start": 3.4766,
      "duration": 0.0887,
      "velocity": 99,
      "chip": "ym2612"
    },
    {
      "channel": 1,
      "note": 64,
      "start": 3.53,
      "duration": 0.0419,
      "velocity": 99,
      "chip": "ym2612"
    },
    {
      "channel": 3,
      "note": 69,
      "start": 3.5692,
      "duration": 0.0412,
      "velocity": 99,
      "chip": "ym2612"
    },
    {
      "channel": 0,
      "note": 45,
      "start": 3.5759,
      "duration": 0.6977,
      "velocity": 94,
      "chip": "ym2612"
    },
    {
      "channel": 1,
      "note": 71,
      "start": 3.5766,
      "duration": 0.0389,
      "velocity": 99,
      "chip": "ym2612"
    },
    {
      "channel": 2,
      "note": 69,
      "start": 3.5773,
      "duration": 0.6969,
      "velocity": 115,
      "chip": "ym2612"
    },
    {
      "channel": 4,
      "note": 69,
      "start": 3.6002,
      "duration": 0.6982,
      "velocity": 115,
      "chip": "ym2612"
    },
    {
      "channel": 3,
      "note": 64,
      "start": 3.6134,
      "duration": 0.0391,
      "velocity": 99,
      "chip": "ym2612"
    },
    {
      "channel": 1,
      "note": 69,
      "start": 3.619,
      "duration": 0.0385,
      "velocity": 99,
      "chip": "ym2612"
    },
    {
      "channel": 3,
      "note": 71,
      "start": 3.6556,
      "duration": 0.0422,
      "velocity": 99,
      "chip": "ym2612"
    },
    {
      "channel": 1,
      "note": 71,
      "start": 3.6623,
      "duration": 0.0409,
      "velocity": 99,
      "chip": "ym2612"
    },
    {
      "channel": 3,
      "note": 69,
      "start": 3.7007,
      "duration": 0.0382,
      "velocity": 99,
      "chip": "ym2612"
    },
    {
      "channel": 1,
      "note": 76,
      "start": 3.7061,
      "duration": 0.0812,
      "velocity": 99,
      "chip": "ym2612"
    },
    {
      "channel": 3,
      "note": 71,
      "start": 3.7419,
      "duration": 0.084,
      "velocity": 99,
      "chip": "ym2612"
    },
    {
      "channel": 1,
      "note": 71,
      "start": 3.7916,
      "duration": 0.084,
      "velocity": 99,
      "chip": "ym2612"
    },
    {
      "channel": 3,
      "note": 76,
      "start": 3.8292,
      "duration": 0.0865,
      "velocity": 99,
      "chip": "ym2612"
    },
    {
      "channel": 1,
      "note": 69,
      "start": 3.8802,
      "duration": 0.0406,
      "velocity": 99,
      "chip": "ym2612"
    },
    {
      "channel": 3,
      "note": 71,
      "start": 3.9188,
      "duration": 0.0414,
      "velocity": 99,
      "chip": "ym2612"
    },
    {
      "channel": 1,
      "note": 71,
      "start": 3.9239,
      "duration": 0.0414,
      "velocity": 99,
      "chip": "ym2612"
    },
    {
      "channel": 3,
      "note": 69,
      "start": 3.9629,
      "duration": 0.041,
      "velocity": 99,
      "chip": "ym2612"
    },
    {
      "channel": 1,
      "note": 69,
      "start": 3.969,
      "duration": 0.0409,
      "velocity": 99,
      "chip": "ym2612"
    },
    {
      "channel": 3,
      "note": 71,
      "start": 4.0074,
      "duration": 0.0398,
      "velocity": 99,
      "chip": "ym2612"
    },
    {
      "channel": 1,
      "note": 71,
      "start": 4.0131,
      "duration": 0.0393,
      "velocity": 99,
      "chip": "ym2612"
    },
    {
      "channel": 3,
      "note": 69,
      "start": 4.0503,
      "duration": 0.0401,
      "velocity": 99,
      "chip": "ym2612"
    },
    {
      "channel": 1,
      "note": 76,
      "start": 4.0552,
      "duration": 0.0834,
      "velocity": 99,
      "chip": "ym2612"
    },
    {
      "channel": 3,
      "note": 71,
      "start": 4.0935,
      "duration": 0.0814,
      "velocity": 99,
      "chip": "ym2612"
    },
    {
      "channel": 1,
      "note": 69,
      "start": 4.1426,
      "duration": 0.084,
      "velocity": 99,
      "chip": "ym2612"
    },
    {
      "channel": 3,
      "note": 76,
      "start": 4.1781,
      "duration": 0.0899,
      "velocity": 99,
      "chip": "ym2612"
    },
    {
      "channel": 1,
      "note": 64,
      "start": 4.23,
      "duration": 0.044,
      "velocity": 99,
      "chip": "ym2612"
    },
    {
      "channel": 3,
      "note": 69,
      "start": 4.2716,
      "duration": 0.0396,
      "velocity": 99,
      "chip": "ym2612"
    },
    {
      "channel": 0,
      "note": 50,
      "start": 4.2774,
      "duration": 0.5635,
      "velocity": 94,
      "chip": "ym2612"
    },
    {
      "channel": 1,
      "note": 76,
      "start": 4.2783,
      "duration": 0.0398,
      "velocity": 99,
      "chip": "ym2612"
    },
    {
      "channel": 2,
      "note": 74,
      "start": 4.2791,
      "duration": 0.6964,
      "velocity": 115,
      "chip": "ym2612"
    },
    {
      "channel": 4,
      "note": 69,
      "start": 4.3015,
      "duration": 0.6989,
      "velocity": 115,
      "chip": "ym2612"
    },
    {
      "channel": 3,
      "note": 64,
      "start": 4.3156,
      "duration": 0.0369,
      "velocity": 99,
      "chip": "ym2612"
    },
    {
      "channel": 1,
      "note": 74,
      "start": 4.321,
      "duration": 0.0369,
      "velocity": 99,
      "chip": "ym2612"
    },
    {
      "channel": 3,
      "note": 76,
      "start": 4.3556,
      "duration": 0.0414,
      "velocity": 99,
      "chip": "ym2612"
    },
    {
      "channel": 1,
      "note": 76,
      "start": 4.3612,
      "duration": 0.0411,
      "velocity": 99,
      "chip": "ym2612"
    },
    {
      "channel": 3,
      "note": 74,
      "start": 4.4,
      "duration": 0.0418,
      "velocity": 99,
      "chip": "ym2612"
    },
    {
      "channel": 1,
      "note": 81,
      "start": 4.4052,
      "duration": 0.0833,
      "velocity": 99,
      "chip": "ym2612"
    },
    {
      "channel": 3,
      "note": 76,
      "start": 4.4449,
      "duration": 0.0812,
      "velocity": 99,
      "chip": "ym2612"
    },
    {
      "channel": 1,
      "note": 76,
      "start": 4.4917,
      "duration": 0.0868,
      "velocity": 99,
      "chip": "ym2612"
    },
    {
      "channel": 3,
      "note": 81,
      "start": 4.5289,
      "duration": 0.0885,
      "velocity": 99,
      "chip": "ym2612"
    },
    {
      "channel": 1,
      "note": 74,
      "start": 4.5821,
      "duration": 0.0427,
      "velocity": 99,
      "chip": "ym2612"
    },
    {
      "channel": 3,
      "note": 76,
      "start": 4.6217,
      "duration": 0.0398,
      "velocity": 99,
      "chip": "ym2612"
    },
    {
      "channel": 1,
      "note": 76,
      "start": 4.6279,
      "duration": 0.0387,
      "velocity": 99,
      "chip": "ym2612"
    },
    {
      "channel": 3,
      "note": 74,
      "start": 4.6646,
      "duration": 0.0416,
      "velocity": 99,
      "chip": "ym2612"
    },
    {
      "channel": 1,
      "note": 74,
      "start": 4.6704,
      "duration": 0.0412,
      "velocity": 99,
      "chip": "ym2612"
    },
    {
      "channel": 3,
      "note": 76,
      "start": 4.7092,
      "duration": 0.0424,
      "velocity": 99,
      "chip": "ym2612"
    },
    {
      "channel": 1,
      "note": 76,
      "start": 4.7156,
      "duration": 0.0415,
      "velocity": 99,
      "chip": "ym2612"
    },
    {
      "channel": 3,
      "note": 74,
      "start": 4.7547,
      "duration": 0.0386,
      "velocity": 99,
      "chip": "ym2612"
    },
    {
      "channel": 1,
      "note": 81,
      "start": 4.76,
      "duration": 0.0812,
      "velocity": 99,
      "chip": "ym2612"
    },
    {
      "channel": 3,
      "note": 76,
      "start": 4.7963,
      "duration": 0.0829,
      "velocity": 99,
      "chip": "ym2612"
    },
    {
      "channel": 0,
      "note": 45,
      "start": 4.8446,
      "duration": 0.1302,
      "velocity": 94,
      "chip": "ym2612"
    },
    {
      "channel": 1,
      "note": 76,
      "start": 4.8452,
      "duration": 0.0846,
      "velocity": 99,
      "chip": "ym2612"
    },
    {
      "channel": 3,
      "note": 81,
      "start": 4.8824,
      "duration": 0.0873,
      "velocity": 99,
      "chip": "ym2612"
    },
    {
      "channel": 1,
      "note": 69,
      "start": 4.9346,
      "duration": 0.0405,
      "velocity": 99,
      "chip": "ym2612"
    },
    {
      "channel": 3,
      "note": 76,
      "start": 4.9728,
      "duration": 0.0405,
      "velocity": 99,
      "chip": "ym2612"
    },
    {
      "channel": 0,
      "note": 50,
      "start": 4.9778,
      "duration": 0.5283,
      "velocity": 94,
      "chip": "ym2612"
    },
    {
      "channel": 1,
      "note": 76,
      "start": 4.9785,
      "duration": 0.0396,
      "velocity": 99,
      "chip": "ym2612"
    },
    {
      "channel": 2,
      "note": 74,
      "start": 4.9793,
      "duration": 0.7035,
      "velocity": 115,
      "chip": "ym2612"
    },
    {
      "channel": 4,
      "note": 74,
      "start": 5.0035,
      "duration": 0.7023,
      "velocity": 115,
      "chip": "ym2612"
    },
    {
      "channel": 3,
      "note": 69,
      "start": 5.0159,
      "duration": 0.0395,
      "velocity": 99,
      "chip": "ym2612"
    },
    {
      "channel": 1,
      "note": 74,
      "start": 5.0216,
      "duration": 0.0395,
      "velocity": 99,
      "chip": "ym2612"
    },
    {
      "channel": 3,
      "note": 76,
      "start": 5.0587,
      "duration": 0.0424,
      "velocity": 99,
      "chip": "ym2612"
    },
    {
      "channel": 1,
      "note": 76,
      "start": 5.0662,
      "duration": 0.04,
      "velocity": 99,
      "chip": "ym2612"
    },
    {
      "channel": 3,
      "note": 74,
      "start": 5.1038,
      "duration": 0.0411,
      "velocity": 99,
      "chip": "ym2612"
    },
    {
      "channel": 1,
      "note": 81,
      "start": 5.1091,
      "duration": 0.0849,
      "velocity": 99,
      "chip": "ym2612"
    },
    {
      "channel": 3,
      "note": 76,
      "start": 5.148,
      "duration": 0.0835,
      "velocity": 99,
      "chip": "ym2612"
    },
    {
      "channel": 1,
      "note": 76,
      "start": 5.1983,
      "duration": 0.0854,
      "velocity": 99,
      "chip": "ym2612"
    },
    {
      "channel": 3,
      "note": 81,
      "start": 5.2346,
      "duration": 0.0906,
      "velocity": 99,
      "chip": "ym2612"
    },
    {
      "channel": 1,
      "note": 74,
      "start": 5.2874,
      "duration": 0.0438,
      "velocity": 99,
      "chip": "ym2612"
    },
    {
      "channel": 3,
      "note": 76,
      "start": 5.3287,
      "duration": 0.0418,
      "velocity": 99,
      "chip": "ym2612"
    },
    {
      "channel": 1,
      "note": 76,
      "start": 5.3348,
      "duration": 0.0417,
      "velocity": 99,
      "chip": "ym2612"
    },
    {
      "channel": 3,
      "note": 74,
      "start": 5.374,
      "duration": 0.0391,
      "velocity": 99,
      "chip": "ym2612"
    },
    {
      "channel": 1,
      "note": 74,
      "start": 5.3792,
      "duration": 0.0394,
      "velocity": 99,
      "chip": "ym2612"
    },
    {
      "channel": 3,
      "note": 76,
      "start": 5.4162,
      "duration": 0.0417,
      "velocity": 99,
      "chip": "ym2612"
    },
    {
      "channel": 1,
      "note": 76,
      "start": 5.4224,
      "duration": 0.0405,
      "velocity": 99,
      "chip": "ym2612"
    },
    {
      "channel": 3,
      "note": 74,
      "start": 5.4606,
      "duration": 0.0408,
      "velocity": 99,
      "chip": "ym2612"
    },
    {
      "channel": 1,
      "note": 81,
      "start": 5.4659,
      "duration": 0.0805,
      "velocity": 99,
      "chip": "ym2612"
    },
    {
      "channel": 3,
      "note": 76,
      "start": 5.5045,
      "duration": 0.0801,
      "velocity": 99,
      "chip": "ym2612"
    },
    {
      "channel": 0,
      "note": 42,
      "start": 5.5095,
      "duration": 0.0367,
      "velocity": 94,
      "chip": "ym2612"
    },
    {
      "channel": 0,
      "note": 44,
      "start": 5.5497,
      "duration": 0.0401,
      "velocity": 94,
      "chip": "ym2612"
    },
    {
      "channel": 1,
      "note": 76,
      "start": 5.5502,
      "duration": 0.0849,
      "velocity": 99,
      "chip": "ym2612"
    },
    {
      "channel": 3,
      "note": 81,
      "start": 5.5878,
      "duration": 0.0877,
      "velocity": 99,
      "chip": "ym2612"
    },
    {
      "channel": 0,
      "note": 45,
      "start": 5.5929,
      "duration": 0.042,
      "velocity": 94,
      "chip": "ym2612"
    },
    {
      "channel": 0,
      "note": 50,
      "start": 5.6388,
      "duration": 0.0433,
      "velocity": 94,
      "chip": "ym2612"
    },
    {
      "channel": 1,
      "note": 69,
      "start": 5.6393,
      "duration": 0.0432,
      "velocity": 99,
      "chip": "ym2612"
    },
    {
      "channel": 3,
      "note": 76,
      "start": 5.6802,
      "duration": 0.0388,
      "velocity": 99,
      "chip": "ym2612"
    },
    {
      "channel": 0,
      "note": 47,
      "start": 5.6853,
      "duration": 0.288,
      "velocity": 94,
      "chip": "ym2612"
    },
    {
      "channel": 1,
      "note": 73,
      "start": 5.6859,
      "duration": 0.0382,
      "velocity": 99,
      "chip": "ym2612"
    },
    {
      "channel": 2,
      "note": 71,
      "start": 5.6868,
      "duration": 0.2871,
      "velocity": 115,
      "chip": "ym2612"
    },
    {
      "channel": 4,
      "note": 74,
      "start": 5.7091,
      "duration": 0.2922,
      "velocity": 115,
      "chip": "ym2612"
    },
    {
      "channel": 3,
      "note": 69,
      "start": 5.722,
      "duration": 0.0405,
      "velocity": 99,
      "chip": "ym2612"
    },
    {
      "channel": 1,
      "note": 71,
      "start": 5.7278,
      "duration": 0.0397,
      "velocity": 99,
      "chip": "ym2612"
    },
    {
      "channel": 3,
      "note": 73,
      "start": 5.7651,
      "duration": 0.0412,
      "velocity": 99,
      "chip": "ym2612"
    },
    {
      "channel": 1,
      "note": 73,
      "start": 5.7705,
      "duration": 0.0411,
      "velocity": 99,
      "chip": "ym2612"
    },
    {
      "channel": 3,
      "note": 71,
      "start": 5.8093,
      "duration": 0.0385,
      "velocity": 99,
      "chip": "ym2612"
    },
    {
      "channel": 1,
      "note": 78,
      "start": 5.8145,
      "duration": 0.0829,
      "velocity": 99,
      "chip": "ym2612"
    },
    {
      "channel": 3,
      "note": 73,
      "start": 5.8508,
      "duration": 0.0867,
      "velocity": 99,
      "chip": "ym2612"
    },
    {
      "channel": 1,
      "note": 73,
      "start": 5.9017,
      "duration": 0.0891,
      "velocity": 99,
      "chip": "ym2612"
    },
    {
      "channel": 3,
      "note": 78,
      "start": 5.9407,
      "duration": 0.0898,
      "velocity": 99,
      "chip": "ym2612"
    },
    {
      "channel": 0,
      "note": 49,
      "start": 5.976,
      "duration": 0.0594,
      "velocity": 94,
      "chip": "ym2612"
    },
    {
      "channel": 2,
      "note": 73,
      "start": 5.9768,
      "duration": 0.0593,
      "velocity": 115,
      "chip": "ym2612"
    },
    {
      "channel": 1,
      "note": 71,
      "start": 5.9949,
      "duration": 0.0409,
      "velocity": 99,
      "chip": "ym2612"
    },
    {
      "channel": 4,
      "note": 71,
      "start": 6.0044,
      "duration": 0.0571,
      "velocity": 115,
      "chip": "ym2612"
    },
    {
      "channel": 3,
      "note": 73,
      "start": 6.0338,
      "duration": 0.041,
      "velocity": 99,
      "chip": "ym2612"
    },
    {
      "channel": 0,
      "note": 50,
      "start": 6.0395,
      "duration": 0.1256,
      "velocity": 94,
      "chip": "ym2612"
    },
    {
      "channel": 1,
      "note": 76,
      "start": 6.04,
      "duration": 0.0399,
      "velocity": 99,
      "chip": "ym2612"
    },
    {
      "channel": 2,
      "note": 74,
      "start": 6.0405,
      "duration": 0.1684,
      "velocity": 115,
      "chip": "ym2612"
    },
    {
      "channel": 4,
      "note": 73,
      "start": 6.065,
      "duration": 0.1678,
      "velocity": 115,
      "chip": "ym2612"
    },
    {
      "channel": 3,
      "note": 71,
      "start": 6.0778,
      "duration": 0.0394,
      "velocity": 99,
      "chip": "ym2612"
    },
    {
      "channel": 1,
      "note": 74,
      "start": 6.0844,
      "duration": 0.0381,
      "velocity": 99,
      "chip": "ym2612"
    },
    {
      "channel": 3,
      "note": 76,
      "start": 6.1202,
      "duration": 0.0405,
      "velocity": 99,
      "chip": "ym2612"
    },
    {
      "channel": 1,
      "note": 76,
      "start": 6.1256,
      "duration": 0.0397,
      "velocity": 99,
      "chip": "ym2612"
    },
    {
      "channel": 3,
      "note": 74,
      "start": 6.1633,
      "duration": 0.0404,
      "velocity": 99,
      "chip": "ym2612"
    },
    {
      "channel": 0,
      "note": 45,
      "start": 6.168,
      "duration": 0.0202,
      "velocity": 94,
      "chip": "ym2612"
    },
    {
      "channel": 1,
      "note": 81,
      "start": 6.1685,
      "duration": 0.0402,
      "velocity": 99,
      "chip": "ym2612"
    },
    {
      "channel": 0,
      "note": 47,
      "start": 6.1921,
      "duration": 0.0163,
      "velocity": 94,
      "chip": "ym2612"
    },
    {
      "channel": 3,
      "note": 76,
      "start": 6.2064,
      "duration": 0.0405,
      "velocity": 99,
      "chip": "ym2612"
    },
    {
      "channel": 0,
      "note": 50,
      "start": 6.212,
      "duration": 0.0395,
      "velocity": 94,
      "chip": "ym2612"
    },
    {
      "channel": 1,
      "note": 77,
      "start": 6.2125,
      "duration": 0.0393,
      "velocity": 99,
      "chip": "ym2612"
    },
    {
      "channel": 2,
      "note": 74,
      "start": 6.2131,
      "duration": 0.1704,
      "velocity": 115,
      "chip": "ym2612"
    },
    {
      "channel": 4,
      "note": 74,
      "start": 6.2368,
      "duration": 0.17,
      "velocity": 115,
      "chip": "ym2612"
    },
    {
      "channel": 3,
      "note": 81,
      "start": 6.2495,
      "duration": 0.0377,
      "velocity": 99,
      "chip": "ym2612"
    },
    {
      "channel": 0,
      "note": 49,
      "start": 6.2551,
      "duration": 0.0379,
      "velocity": 94,
      "chip": "ym2612"
    },
    {
      "channel": 1,
      "note": 76,
      "start": 6.2556,
      "duration": 0.0377,
      "velocity": 99,
      "chip": "ym2612"
    },
    {
      "channel": 3,
      "note": 74,
      "start": 6.2906,
      "duration": 0.0418,
      "velocity": 99,
      "chip": "ym2612"
    },
    {
      "channel": 0,
      "note": 47,
      "start": 6.2972,
      "duration": 0.0399,
      "velocity": 94,
      "chip": "ym2612"
    },
    {
      "channel": 1,
      "note": 74,
      "start": 6.2977,
      "duration": 0.0397,
      "velocity": 99,
      "chip": "ym2612"
    },
    {
      "channel": 3,
      "note": 73,
      "start": 6.3354,
      "duration": 0.0422,
      "velocity": 99,
      "chip": "ym2612"
    },
    {
      "channel": 0,
      "note": 45,
      "start": 6.3408,
      "duration": 0.6092,
      "velocity": 94,
      "chip": "ym2612"
    },
    {
      "channel": 1,
      "note": 73,
      "start": 6.3413,
      "duration": 0.7411,
      "velocity": 99,
      "chip": "ym2612"
    },
    {
      "channel": 3,
      "note": 71,
      "start": 6.381,
      "duration": 0.7415,
      "velocity": 99,
      "chip": "ym2612"
    },
    {
      "channel": 2,
      "note": 69,
      "start": 6.3873,
      "duration": 0.6954,
      "velocity": 115,
      "chip": "ym2612"
    },
    {
      "channel": 4,
      "note": 74,
      "start": 6.4098,
      "duration": 0.6997,
      "velocity": 115,
      "chip": "ym2612"
    },
    {
      "channel": 0,
      "note": 52,
      "start": 6.9531,
      "duration": 0.129,
      "velocity": 94,
      "chip": "ym2612"
    },
    {
      "channel": 0,
      "note": 47,
      "start": 7.0862,
      "duration": 0.2909,
      "velocity": 94,
      "chip": "ym2612"
    },
    {
      "channel": 1,
      "note": 73,
      "start": 7.0867,
      "duration": 0.041,
      "velocity": 99,
      "chip": "ym2612"
    },
    {
      "channel": 2,
      "note": 71,
      "start": 7.0874,
      "duration": 0.2903,
      "velocity": 115,
      "chip": "ym2612"
    },
    {
      "channel": 4,
      "note": 69,
      "start": 7.1126,
      "duration": 0.2903,
      "velocity": 115,
      "chip": "ym2612"
    },
    {
      "channel": 3,
      "note": 69,
      "start": 7.1254,
      "duration": 0.0393,
      "velocity": 99,
      "chip": "ym2612"
    },
    {
      "channel": 1,
      "note": 71,
      "start": 7.1309,
      "duration": 0.0391,
      "velocity": 99,
      "chip": "ym2612"
    },
    {
      "channel": 3,
      "note": 73,
      "start": 7.1677,
      "duration": 0.0415,
      "velocity": 99,
      "chip": "ym2612"
    },
    {
      "channel": 1,
      "note": 73,
      "start": 7.1748,
      "duration": 0.0394,
      "velocity": 99,
      "chip": "ym2612"
    },
    {
      "channel": 3,
      "note": 71,
      "start": 7.2121,
      "duration": 0.0407,
      "velocity": 99,
      "chip": "ym2612"
    },
    {
      "channel": 1,
      "note": 78,
      "start": 7.2174,
      "duration": 0.0841,
      "velocity": 99,
      "chip": "ym2612"
    },
    {
      "channel": 3,
      "note": 73,
      "start": 7.256,
      "duration": 0.0833,
      "velocity": 99,
      "chip": "ym2612"
    },
    {
      "channel": 1,
      "note": 73,
      "start": 7.3058,
      "duration": 0.0877,
      "velocity": 99,
      "chip": "ym2612"
    },
    {
      "channel": 3,
      "note": 78,
      "start": 7.3435,
      "duration": 0.0896,
      "velocity": 99,
      "chip": "ym2612"
    },
    {
      "channel": 0,
      "note": 49,
      "start": 7.3802,
      "duration": 0.0579,
      "velocity": 94,
      "chip": "ym2612"
    },
    {
      "channel": 2,
      "note": 73,
      "start": 7.381,
      "duration": 0.0577,
      "velocity": 115,
      "chip": "ym2612"
    },
    {
      "channel": 1,
      "note": 71,
      "start": 7.3972,
      "duration": 0.0412,
      "velocity": 99,
      "chip": "ym2612"
    },
    {
      "channel": 4,
      "note": 71,
      "start": 7.406,
      "duration": 0.0556,
      "velocity": 115,
      "chip": "ym2612"
    },
    {
      "channel": 3,
      "note": 73,
      "start": 7.4361,
      "duration": 0.042,
      "velocity": 99,
      "chip": "ym2612"
    },
    {
      "channel": 0,
      "note": 50,
      "start": 7.4422,
      "duration": 0.1246,
      "velocity": 94,
      "chip": "ym2612"
    },
    {
      "channel": 1,
      "note": 76,
      "start": 7.4428,
      "duration": 0.0404,
      "velocity": 99,
      "chip": "ym2612"
    },
    {
      "channel": 2,
      "note": 74,
      "start": 7.4433,
      "duration": 0.1686,
      "velocity": 115,
      "chip": "ym2612"
    },
    {
      "channel": 4,
      "note": 73,
      "start": 7.4659,
      "duration": 0.1684,
      "velocity": 115,
      "chip": "ym2612"
    },
    {
      "channel": 3,
      "note": 71,
      "start": 7.481,
      "duration": 0.0368,
      "velocity": 99,
      "chip": "ym2612"
    },
    {
      "channel": 1,
      "note": 74,
      "start": 7.4866,
      "duration": 0.0367,
      "velocity": 99,
      "chip": "ym2612"
    },
    {
      "channel": 3,
      "note": 76,
      "start": 7.5208,
      "duration": 0.0408,
      "velocity": 99,
      "chip": "ym2612"
    },
    {
      "channel": 1,
      "note": 76,
      "start": 7.5274,
      "duration": 0.0398,
      "velocity": 99,
      "chip": "ym2612"
    },
    {
      "channel": 3,
      "note": 74,
      "start": 7.5647,
      "duration": 0.0415,
      "velocity": 99,
      "chip": "ym2612"
    },
    {
      "channel": 0,
      "note": 45,
      "start": 7.5699,
      "duration": 0.0189,
      "velocity": 94,
      "chip": "ym2612"
    },
    {
      "channel": 1,
      "note": 81,
      "start": 7.5704,
      "duration": 0.0412,
      "velocity": 99,
      "chip": "ym2612"
    },
    {
      "channel": 0,
      "note": 47,
      "start": 7.5937,
      "duration": 0.0177,
      "velocity": 94,
      "chip": "ym2612"
    },
    {
      "channel": 3,
      "note": 76,
      "start": 7.6093,
      "duration": 0.0378,
      "velocity": 99,
      "chip": "ym2612"
    },
    {
      "channel": 0,
      "note": 50,
      "start": 7.6146,
      "duration": 0.0378,
      "velocity": 94,
      "chip": "ym2612"
    },
    {
      "channel": 1,
      "note": 77,
      "start": 7.6151,
      "duration": 0.0375,
      "velocity": 99,
      "chip": "ym2612"
    },
    {
      "channel": 2,
      "note": 74,
      "start": 7.6156,
      "duration": 0.1688,
      "velocity": 115,
      "chip": "ym2612"
    },
    {
      "channel": 4,
      "note": 74,
      "start": 7.6373,
      "duration": 0.17,
      "velocity": 115,
      "chip": "ym2612"
    },
    {
      "channel": 3,
      "note": 81,
      "start": 7.65,
      "duration": 0.0369,
      "velocity": 99,
      "chip": "ym2612"
    },
    {
      "channel": 0,
      "note": 49,
      "start": 7.6562,
      "duration": 0.0354,
      "velocity": 94,
      "chip": "ym2612"
    },
    {
      "channel": 1,
      "note": 76,
      "start": 7.6568,
      "duration": 0.0351,
      "velocity": 99,
      "chip": "ym2612"
    },
    {
      "channel": 3,
      "note": 74,
      "start": 7.6895,
      "duration": 0.0421,
      "velocity": 99,
      "chip": "ym2612"
    },
    {
      "channel": 0,
      "note": 47,
      "start": 7.6943,
      "duration": 0.0428,
      "velocity": 94,
      "chip": "ym2612"
    },
    {
      "channel": 1,
      "note": 74,
      "start": 7.6949,
      "duration": 0.0425,
      "velocity": 99,
      "chip": "ym2612"
    },
    {
      "channel": 3,
      "note": 73,
      "start": 7.735,
      "duration": 0.0435,
      "velocity": 99,
      "chip": "ym2612"
    },
    {
      "channel": 0,
      "note": 45,
      "start": 7.7407,
      "duration": 0.6126,
      "velocity": 94,
      "chip": "ym2612"
    },
    {
      "channel": 1,
      "note": 73,
      "start": 7.7412,
      "duration": 0.7429,
      "velocity": 99,
      "chip": "ym2612"
    },
    {
      "channel": 3,
      "note": 71,
      "start": 7.7819,
      "duration": 0.7586,
      "velocity": 99,
      "chip": "ym2612"
    },
    {
      "channel": 2,
      "note": 69,
      "start": 7.7876,
      "duration": 0.6969,
      "velocity": 115,
      "chip": "ym2612"
    },
    {
      "channel": 4,
      "note": 74,
      "start": 7.8104,
      "duration": 0.7101,
      "velocity": 115,
      "chip": "ym2612"
    },
    {
      "channel": 0,
      "note": 52,
      "start": 8.356,
      "duration": 0.1278,
      "velocity": 94,
      "chip": "ym2612"
    },
    {
      "channel": 0,
      "note": 45,
      "start": 8.4913,
      "duration": 42.28,
      "velocity": 94,
      "chip": "ym2612"
    },
    {
      "channel": 1,
      "note": 71,
      "start": 8.4955,
      "duration": 0.0554,
      "velocity": 99,
      "chip": "ym2612"
    },
    {
      "channel": 2,
      "note": 69,
      "start": 8.5006,
      "duration": 42.2707,
      "velocity": 115,
      "chip": "ym2612"
    },
    {
      "channel": 4,
      "note": 69,
      "start": 8.5296,
      "duration": 42.2416,
      "velocity": 115,
      "chip": "ym2612"
    },
    {
      "channel": 3,
      "note": 69,
      "start": 8.5486,
      "duration": 42.2226,
      "velocity": 99,
      "chip": "ym2612"
    },
    {
      "channel": 1,
      "note": 69,
      "start": 8.5537,
      "duration": 42.2175,
      "velocity": 99,
      "chip": "ym2612"
    }
  ]
}