{
  "track_name": "06 - Stage 4- Mars",
  "duration_sec": 88.191,
  "sample_rate": 44100,
  "note_count": 845,
  "unique_pitches": 22,
  "pitch_range": 61,
  "avg_note_duration": 0.5407,
  "reconstruction_stats": {
    "notes_reconstructed": 845,
    "keyon_events": 845,
    "keyoff_events": 839,
    "orphan_keyons": 6,
    "unique_pitches": 22,
    "pitch_range": 61,
    "avg_duration_sec": 0.5407
  },
  "metadata": {
    "source": "S\\Skeleton Krew\\06 - Stage 4- Mars.vgz"
  },
  "notes": [
    {
      "channel": 0,
      "note": 20,
      "start": 0.0,
      "duration": 0.7944,
      "velocity": 108,
      "chip": "ym2612"
    },
    {
      "channel": 0,
      "note": 44,
      "start": 0.7945,
      "duration": 0.1968,
      "velocity": 108,
      "chip": "ym2612"
    },
    {
      "channel": 0,
      "note": 44,
      "start": 0.9914,
      "duration": 0.5971,
      "velocity": 108,
      "chip": "ym2612"
    },
    {
      "channel": 1,
      "note": 44,
      "start": 1.092,
      "duration": 0.1972,
      "velocity": 106,
      "chip": "ym2612"
    },
    {
      "channel": 1,
      "note": 44,
      "start": 1.2894,
      "duration": 2.9793,
      "velocity": 106,
      "chip": "ym2612"
    },
    {
      "channel": 0,
      "note": 20,
      "start": 1.5886,
      "duration": 1.588,
      "velocity": 108,
      "chip": "ym2612"
    },
    {
      "channel": 0,
      "note": 20,
      "start": 3.1768,
      "duration": 0.7953,
      "velocity": 108,
      "chip": "ym2612"
    },
    {
      "channel": 0,
      "note": 44,
      "start": 3.9722,
      "duration": 0.1972,
      "velocity": 108,
      "chip": "ym2612"
    },
    {
      "channel": 0,
      "note": 44,
      "start": 4.1695,
      "duration": 0.5971,
      "velocity": 108,
      "chip": "ym2612"
    },
    {
      "channel": 1,
      "note": 44,
      "start": 4.2688,
      "duration": 0.1985,
      "velocity": 106,
      "chip": "ym2612"
    },
    {
      "channel": 1,
      "note": 44,
      "start": 4.4674,
      "duration": 2.9794,
      "velocity": 106,
      "chip": "ym2612"
    },
    {
      "channel": 0,
      "note": 20,
      "start": 4.7667,
      "duration": 1.5876,
      "velocity": 108,
      "chip": "ym2612"
    },
    {
      "channel": 0,
      "note": 20,
      "start": 6.3544,
      "duration": 0.7957,
      "velocity": 108,
      "chip": "ym2612"
    },
    {
      "channel": 0,
      "note": 44,
      "start": 7.1502,
      "duration": 0.1972,
      "velocity": 108,
      "chip": "ym2612"
    },
    {
      "channel": 0,
      "note": 44,
      "start": 7.3476,
      "duration": 0.5971,
      "velocity": 108,
      "chip": "ym2612"
    },
    {
      "channel": 1,
      "note": 44,
      "start": 7.4469,
      "duration": 0.1985,
      "velocity": 106,
      "chip": "ym2612"
    },
    {
      "channel": 1,
      "note": 44,
      "start": 7.6456,
      "duration": 2.9793,
      "velocity": 106,
      "chip": "ym2612"
    },
    {
      "channel": 0,
      "note": 20,
      "start": 7.9448,
      "duration": 1.5876,
      "velocity": 108,
      "chip": "ym2612"
    },
    {
      "channel": 0,
      "note": 20,
      "start": 9.5326,
      "duration": 0.7957,
      "velocity": 108,
      "chip": "ym2612"
    },
    {
      "channel": 0,
      "note": 44,
      "start": 10.3284,
      "duration": 0.1972,
      "velocity": 108,
      "chip": "ym2612"
    },
    {
      "channel": 0,
      "note": 44,
      "start": 10.5261,
      "duration": 0.5967,
      "velocity": 108,
      "chip": "ym2612"
    },
    {
      "channel": 1,
      "note": 44,
      "start": 10.625,
      "duration": 0.1985,
      "velocity": 106,
      "chip": "ym2612"
    },
    {
      "channel": 4,
      "note": 44,
      "start": 10.726,
      "duration": 3.1763,
      "velocity": 127,
      "chip": "ym2612"
    },
    {
      "channel": 1,
      "note": 44,
      "start": 10.8236,
      "duration": 1.0955,
      "velocity": 105,
      "chip": "ym2612"
    },
    {
      "channel": 5,
      "note": 44,
      "start": 10.9242,
      "duration": 3.1766,
      "velocity": 127,
      "chip": "ym2612"
    },
    {
      "channel": 0,
      "note": 20,
      "start": 11.1229,
      "duration": 0.7945,
      "velocity": 105,
      "chip": "ym2612"
    },
    {
      "channel": 0,
      "note": 56,
      "start": 11.9175,
      "duration": 0.1971,
      "velocity": 105,
      "chip": "ym2612"
    },
    {
      "channel": 1,
      "note": 56,
      "start": 11.9192,
      "duration": 0.1959,
      "velocity": 105,
      "chip": "ym2612"
    },
    {
      "channel": 0,
      "note": 56,
      "start": 12.1148,
      "duration": 0.5969,
      "velocity": 108,
      "chip": "ym2612"
    },
    {
      "channel": 1,
      "note": 56,
      "start": 12.1152,
      "duration": 1.6891,
      "velocity": 106,
      "chip": "ym2612"
    },
    {
      "channel": 0,
      "note": 20,
      "start": 12.7119,
      "duration": 0.7944,
      "velocity": 108,
      "chip": "ym2612"
    },
    {
      "channel": 0,
      "note": 44,
      "start": 13.5064,
      "duration": 0.1972,
      "velocity": 108,
      "chip": "ym2612"
    },
    {
      "channel": 0,
      "note": 44,
      "start": 13.7037,
      "duration": 0.5971,
      "velocity": 108,
      "chip": "ym2612"
    },
    {
      "channel": 1,
      "note": 44,
      "start": 13.8044,
      "duration": 0.1972,
      "velocity": 106,
      "chip": "ym2612"
    },
    {
      "channel": 4,
      "note": 44,
      "start": 13.9024,
      "duration": 3.1779,
      "velocity": 127,
      "chip": "ym2612"
    },
    {
      "channel": 1,
      "note": 44,
      "start": 14.0017,
      "duration": 1.0954,
      "velocity": 105,
      "chip": "ym2612"
    },
    {
      "channel": 5,
      "note": 44,
      "start": 14.101,
      "duration": 3.178,
      "velocity": 127,
      "chip": "ym2612"
    },
    {
      "channel": 0,
      "note": 20,
      "start": 14.301,
      "duration": 0.7945,
      "velocity": 105,
      "chip": "ym2612"
    },
    {
      "channel": 0,
      "note": 56,
      "start": 15.0956,
      "duration": 0.1976,
      "velocity": 105,
      "chip": "ym2612"
    },
    {
      "channel": 1,
      "note": 56,
      "start": 15.0973,
      "duration": 0.1963,
      "velocity": 105,
      "chip": "ym2612"
    },
    {
      "channel": 0,
      "note": 56,
      "start": 15.2933,
      "duration": 0.5966,
      "velocity": 108,
      "chip": "ym2612"
    },
    {
      "channel": 1,
      "note": 56,
      "start": 15.2937,
      "duration": 1.6886,
      "velocity": 106,
      "chip": "ym2612"
    },
    {
      "channel": 0,
      "note": 20,
      "start": 15.89,
      "duration": 0.7943,
      "velocity": 108,
      "chip": "ym2612"
    },
    {
      "channel": 0,
      "note": 44,
      "start": 16.6845,
      "duration": 0.1972,
      "velocity": 108,
      "chip": "ym2612"
    },
    {
      "channel": 0,
      "note": 44,
      "start": 16.8819,
      "duration": 0.597,
      "velocity": 108,
      "chip": "ym2612"
    },
    {
      "channel": 1,
      "note": 44,
      "start": 16.9824,
      "duration": 0.1972,
      "velocity": 106,
      "chip": "ym2612"
    },
    {
      "channel": 4,
      "note": 44,
      "start": 17.0805,
      "duration": 3.1779,
      "velocity": 127,
      "chip": "ym2612"
    },
    {
      "channel": 1,
      "note": 44,
      "start": 17.1798,
      "duration": 1.0954,
      "velocity": 105,
      "chip": "ym2612"
    },
    {
      "channel": 5,
      "note": 44,
      "start": 17.2791,
      "duration": 3.1779,
      "velocity": 127,
      "chip": "ym2612"
    },
    {
      "channel": 0,
      "note": 20,
      "start": 17.479,
      "duration": 0.7945,
      "velocity": 105,
      "chip": "ym2612"
    },
    {
      "channel": 0,
      "note": 56,
      "start": 18.2736,
      "duration": 0.1972,
      "velocity": 105,
      "chip": "ym2612"
    },
    {
      "channel": 1,
      "note": 56,
      "start": 18.2753,
      "duration": 0.1959,
      "velocity": 105,
      "chip": "ym2612"
    },
    {
      "channel": 0,
      "note": 56,
      "start": 18.4709,
      "duration": 0.597,
      "velocity": 108,
      "chip": "ym2612"
    },
    {
      "channel": 1,
      "note": 56,
      "start": 18.4714,
      "duration": 1.6894,
      "velocity": 106,
      "chip": "ym2612"
    },
    {
      "channel": 0,
      "note": 20,
      "start": 19.0681,
      "duration": 0.7944,
      "velocity": 108,
      "chip": "ym2612"
    },
    {
      "channel": 0,
      "note": 44,
      "start": 19.8626,
      "duration": 0.1973,
      "velocity": 108,
      "chip": "ym2612"
    },
    {
      "channel": 0,
      "note": 44,
      "start": 20.06,
      "duration": 0.597,
      "velocity": 108,
      "chip": "ym2612"
    },
    {
      "channel": 1,
      "note": 44,
      "start": 20.1609,
      "duration": 0.1968,
      "velocity": 106,
      "chip": "ym2612"
    },
    {
      "channel": 4,
      "note": 44,
      "start": 20.2586,
      "duration": 3.1779,
      "velocity": 127,
      "chip": "ym2612"
    },
    {
      "channel": 1,
      "note": 44,
      "start": 20.3579,
      "duration": 1.0954,
      "velocity": 105,
      "chip": "ym2612"
    },
    {
      "channel": 5,
      "note": 44,
      "start": 20.4572,
      "duration": 3.178,
      "velocity": 127,
      "chip": "ym2612"
    },
    {
      "channel": 0,
      "note": 20,
      "start": 20.6571,
      "duration": 0.7945,
      "velocity": 105,
      "chip": "ym2612"
    },
    {
      "channel": 0,
      "note": 56,
      "start": 21.4517,
      "duration": 0.1972,
      "velocity": 105,
      "chip": "ym2612"
    },
    {
      "channel": 1,
      "note": 56,
      "start": 21.4534,
      "duration": 0.1959,
      "velocity": 105,
      "chip": "ym2612"
    },
    {
      "channel": 0,
      "note": 56,
      "start": 21.649,
      "duration": 0.5969,
      "velocity": 108,
      "chip": "ym2612"
    },
    {
      "channel": 1,
      "note": 56,
      "start": 21.6494,
      "duration": 1.689,
      "velocity": 106,
      "chip": "ym2612"
    },
    {
      "channel": 0,
      "note": 20,
      "start": 22.2461,
      "duration": 0.7944,
      "velocity": 108,
      "chip": "ym2612"
    },
    {
      "channel": 0,
      "note": 44,
      "start": 23.0407,
      "duration": 0.1972,
      "velocity": 108,
      "chip": "ym2612"
    },
    {
      "channel": 0,
      "note": 44,
      "start": 23.238,
      "duration": 0.5971,
      "velocity": 108,
      "chip": "ym2612"
    },
    {
      "channel": 1,
      "note": 44,
      "start": 23.3386,
      "duration": 0.1972,
      "velocity": 106,
      "chip": "ym2612"
    },
    {
      "channel": 4,
      "note": 44,
      "start": 23.4366,
      "duration": 3.1783,
      "velocity": 127,
      "chip": "ym2612"
    },
    {
      "channel": 1,
      "note": 44,
      "start": 23.5359,
      "duration": 1.0954,
      "velocity": 105,
      "chip": "ym2612"
    },
    {
      "channel": 5,
      "note": 44,
      "start": 23.6353,
      "duration": 3.1782,
      "velocity": 127,
      "chip": "ym2612"
    },
    {
      "channel": 0,
      "note": 20,
      "start": 23.8352,
      "duration": 0.7945,
      "velocity": 105,
      "chip": "ym2612"
    },
    {
      "channel": 0,
      "note": 56,
      "start": 24.6298,
      "duration": 0.1972,
      "velocity": 105,
      "chip": "ym2612"
    },
    {
      "channel": 1,
      "note": 56,
      "start": 24.6315,
      "duration": 0.1959,
      "velocity": 105,
      "chip": "ym2612"
    },
    {
      "channel": 2,
      "note": 75,
      "start": 24.6332,
      "duration": 0.1946,
      "velocity": 91,
      "chip": "ym2612"
    },
    {
      "channel": 3,
      "note": 56,
      "start": 24.729,
      "duration": 0.1976,
      "velocity": 88,
      "chip": "ym2612"
    },
    {
      "channel": 0,
      "note": 56,
      "start": 24.8271,
      "duration": 0.597,
      "velocity": 108,
      "chip": "ym2612"
    },
    {
      "channel": 1,
      "note": 56,
      "start": 24.8276,
      "duration": 1.689,
      "velocity": 106,
      "chip": "ym2612"
    },
    {
      "channel": 2,
      "note": 76,
      "start": 24.8279,
      "duration": 0.1976,
      "velocity": 91,
      "chip": "ym2612"
    },
    {
      "channel": 3,
      "note": 75,
      "start": 24.9267,
      "duration": 0.1982,
      "velocity": 88,
      "chip": "ym2612"
    },
    {
      "channel": 2,
      "note": 68,
      "start": 25.0261,
      "duration": 0.1981,
      "velocity": 91,
      "chip": "ym2612"
    },
    {
      "channel": 3,
      "note": 76,
      "start": 25.125,
      "duration": 0.1985,
      "velocity": 88,
      "chip": "ym2612"
    },
    {
      "channel": 2,
      "note": 78,
      "start": 25.2243,
      "duration": 0.2001,
      "velocity": 91,
      "chip": "ym2612"
    },
    {
      "channel": 3,
      "note": 68,
      "start": 25.3236,
      "duration": 0.1985,
      "velocity": 88,
      "chip": "ym2612"
    },
    {
      "channel": 0,
      "note": 20,
      "start": 25.4242,
      "duration": 0.7944,
      "velocity": 108,
      "chip": "ym2612"
    },
    {
      "channel": 2,
      "note": 73,
      "start": 25.4246,
      "duration": 0.1969,
      "velocity": 91,
      "chip": "ym2612"
    },
    {
      "channel": 3,
      "note": 78,
      "start": 25.5223,
      "duration": 0.1985,
      "velocity": 88,
      "chip": "ym2612"
    },
    {
      "channel": 2,
      "note": 75,
      "start": 25.6216,
      "duration": 0.1985,
      "velocity": 91,
      "chip": "ym2612"
    },
    {
      "channel": 3,
      "note": 73,
      "start": 25.7209,
      "duration": 0.1985,
      "velocity": 88,
      "chip": "ym2612"
    },
    {
      "channel": 2,
      "note": 68,
      "start": 25.8202,
      "duration": 0.1985,
      "velocity": 91,
      "chip": "ym2612"
    },
    {
      "channel": 3,
      "note": 75,
      "start": 25.9195,
      "duration": 0.1985,
      "velocity": 88,
      "chip": "ym2612"
    },
    {
      "channel": 2,
      "note": 56,
      "start": 26.0188,
      "duration": 0.2001,
      "velocity": 91,
      "chip": "ym2612"
    },
    {
      "channel": 3,
      "note": 68,
      "start": 26.1181,
      "duration": 0.1985,
      "velocity": 88,
      "chip": "ym2612"
    },
    {
      "channel": 0,
      "note": 44,
      "start": 26.2188,
      "duration": 0.1972,
      "velocity": 108,
      "chip": "ym2612"
    },
    {
      "channel": 2,
      "note": 75,
      "start": 26.2191,
      "duration": 0.1972,
      "velocity": 91,
      "chip": "ym2612"
    },
    {
      "channel": 3,
      "note": 56,
      "start": 26.3167,
      "duration": 0.2002,
      "velocity": 88,
      "chip": "ym2612"
    },
    {
      "channel": 0,
      "note": 44,
      "start": 26.4161,
      "duration": 0.5971,
      "velocity": 108,
      "chip": "ym2612"
    },
    {
      "channel": 2,
      "note": 76,
      "start": 26.4164,
      "duration": 0.1981,
      "velocity": 91,
      "chip": "ym2612"
    },
    {
      "channel": 1,
      "note": 44,
      "start": 26.5167,
      "duration": 0.1972,
      "velocity": 106,
      "chip": "ym2612"
    },
    {
      "channel": 3,
      "note": 75,
      "start": 26.5171,
      "duration": 0.1972,
      "velocity": 88,
      "chip": "ym2612"
    },
    {
      "channel": 2,
      "note": 68,
      "start": 26.6147,
      "duration": 0.1985,
      "velocity": 91,
      "chip": "ym2612"
    },
    {
      "channel": 4,
      "note": 44,
      "start": 26.6151,
      "duration": 3.1783,
      "velocity": 127,
      "chip": "ym2612"
    },
    {
      "channel": 1,
      "note": 44,
      "start": 26.714,
      "duration": 1.0959,
      "velocity": 105,
      "chip": "ym2612"
    },
    {
      "channel": 3,
      "note": 76,
      "start": 26.7144,
      "duration": 0.1982,
      "velocity": 88,
      "chip": "ym2612"
    },
    {
      "channel": 2,
      "note": 78,
      "start": 26.8134,
      "duration": 0.2001,
      "velocity": 91,
      "chip": "ym2612"
    },
    {
      "channel": 5,
      "note": 44,
      "start": 26.8137,
      "duration": 3.1779,
      "velocity": 127,
      "chip": "ym2612"
    },
    {
      "channel": 3,
      "note": 68,
      "start": 26.9127,
      "duration": 0.1985,
      "velocity": 88,
      "chip": "ym2612"
    },
    {
      "channel": 0,
      "note": 20,
      "start": 27.0133,
      "duration": 0.7945,
      "velocity": 105,
      "chip": "ym2612"
    },
    {
      "channel": 2,
      "note": 73,
      "start": 27.0136,
      "duration": 0.1969,
      "velocity": 91,
      "chip": "ym2612"
    },
    {
      "channel": 3,
      "note": 78,
      "start": 27.1112,
      "duration": 0.1987,
      "velocity": 88,
      "chip": "ym2612"
    },
    {
      "channel": 2,
      "note": 75,
      "start": 27.2106,
      "duration": 0.1989,
      "velocity": 91,
      "chip": "ym2612"
    },
    {
      "channel": 3,
      "note": 73,
      "start": 27.31,
      "duration": 0.1983,
      "velocity": 88,
      "chip": "ym2612"
    },
    {
      "channel": 2,
      "note": 68,
      "start": 27.4097,
      "duration": 0.1981,
      "velocity": 91,
      "chip": "ym2612"
    },
    {
      "channel": 3,
      "note": 75,
      "start": 27.5085,
      "duration": 0.1985,
      "velocity": 88,
      "chip": "ym2612"
    },
    {
      "channel": 2,
      "note": 56,
      "start": 27.6079,
      "duration": 0.2024,
      "velocity": 91,
      "chip": "ym2612"
    },
    {
      "channel": 3,
      "note": 68,
      "start": 27.7072,
      "duration": 0.1985,
      "velocity": 88,
      "chip": "ym2612"
    },
    {
      "channel": 0,
      "note": 56,
      "start": 27.8079,
      "duration": 0.1972,
      "velocity": 105,
      "chip": "ym2612"
    },
    {
      "channel": 1,
      "note": 56,
      "start": 27.81,
      "duration": 0.1955,
      "velocity": 105,
      "chip": "ym2612"
    },
    {
      "channel": 2,
      "note": 75,
      "start": 27.8104,
      "duration": 0.1954,
      "velocity": 91,
      "chip": "ym2612"
    },
    {
      "channel": 3,
      "note": 56,
      "start": 27.9059,
      "duration": 0.1985,
      "velocity": 88,
      "chip": "ym2612"
    },
    {
      "channel": 0,
      "note": 56,
      "start": 28.0052,
      "duration": 0.5969,
      "velocity": 108,
      "chip": "ym2612"
    },
    {
      "channel": 1,
      "note": 56,
      "start": 28.0056,
      "duration": 1.689,
      "velocity": 106,
      "chip": "ym2612"
    },
    {
      "channel": 2,
      "note": 76,
      "start": 28.0059,
      "duration": 0.1977,
      "velocity": 91,
      "chip": "ym2612"
    },
    {
      "channel": 3,
      "note": 75,
      "start": 28.1044,
      "duration": 0.1985,
      "velocity": 88,
      "chip": "ym2612"
    },
    {
      "channel": 2,
      "note": 68,
      "start": 28.2037,
      "duration": 0.1985,
      "velocity": 91,
      "chip": "ym2612"
    },
    {
      "channel": 3,
      "note": 76,
      "start": 28.3031,
      "duration": 0.1985,
      "velocity": 88,
      "chip": "ym2612"
    },
    {
      "channel": 2,
      "note": 78,
      "start": 28.4024,
      "duration": 0.2001,
      "velocity": 91,
      "chip": "ym2612"
    },
    {
      "channel": 3,
      "note": 68,
      "start": 28.5017,
      "duration": 0.1985,
      "velocity": 88,
      "chip": "ym2612"
    },
    {
      "channel": 0,
      "note": 20,
      "start": 28.6023,
      "duration": 0.7944,
      "velocity": 108,
      "chip": "ym2612"
    },
    {
      "channel": 2,
      "note": 73,
      "start": 28.6027,
      "duration": 0.1968,
      "velocity": 91,
      "chip": "ym2612"
    },
    {
      "channel": 3,
      "note": 78,
      "start": 28.7003,
      "duration": 0.1985,
      "velocity": 88,
      "chip": "ym2612"
    },
    {
      "channel": 2,
      "note": 75,
      "start": 28.7996,
      "duration": 0.1985,
      "velocity": 91,
      "chip": "ym2612"
    },
    {
      "channel": 3,
      "note": 73,
      "start": 28.899,
      "duration": 0.1985,
      "velocity": 88,
      "chip": "ym2612"
    },
    {
      "channel": 2,
      "note": 68,
      "start": 28.9983,
      "duration": 0.1985,
      "velocity": 91,
      "chip": "ym2612"
    },
    {
      "channel": 3,
      "note": 75,
      "start": 29.0976,
      "duration": 0.1985,
      "velocity": 88,
      "chip": "ym2612"
    },
    {
      "channel": 2,
      "note": 56,
      "start": 29.1969,
      "duration": 0.2002,
      "velocity": 91,
      "chip": "ym2612"
    },
    {
      "channel": 3,
      "note": 68,
      "start": 29.2962,
      "duration": 0.1985,
      "velocity": 88,
      "chip": "ym2612"
    },
    {
      "channel": 0,
      "note": 44,
      "start": 29.3968,
      "duration": 0.1972,
      "velocity": 108,
      "chip": "ym2612"
    },
    {
      "channel": 2,
      "note": 75,
      "start": 29.3972,
      "duration": 0.1971,
      "velocity": 91,
      "chip": "ym2612"
    },
    {
      "channel": 3,
      "note": 56,
      "start": 29.4949,
      "duration": 0.2001,
      "velocity": 88,
      "chip": "ym2612"
    },
    {
      "channel": 0,
      "note": 44,
      "start": 29.5941,
      "duration": 0.5971,
      "velocity": 108,
      "chip": "ym2612"
    },
    {
      "channel": 2,
      "note": 76,
      "start": 29.5945,
      "duration": 0.1986,
      "velocity": 91,
      "chip": "ym2612"
    },
    {
      "channel": 1,
      "note": 44,
      "start": 29.6948,
      "duration": 0.1972,
      "velocity": 106,
      "chip": "ym2612"
    },
    {
      "channel": 3,
      "note": 75,
      "start": 29.6951,
      "duration": 0.1976,
      "velocity": 88,
      "chip": "ym2612"
    },
    {
      "channel": 2,
      "note": 68,
      "start": 29.7932,
      "duration": 0.1981,
      "velocity": 91,
      "chip": "ym2612"
    },
    {
      "channel": 4,
      "note": 44,
      "start": 29.7935,
      "duration": 3.1776,
      "velocity": 127,
      "chip": "ym2612"
    },
    {
      "channel": 1,
      "note": 44,
      "start": 29.8921,
      "duration": 1.0954,
      "velocity": 105,
      "chip": "ym2612"
    },
    {
      "channel": 3,
      "note": 76,
      "start": 29.8929,
      "duration": 0.1977,
      "velocity": 88,
      "chip": "ym2612"
    },
    {
      "channel": 2,
      "note": 78,
      "start": 29.9914,
      "duration": 0.2001,
      "velocity": 91,
      "chip": "ym2612"
    },
    {
      "channel": 5,
      "note": 44,
      "start": 29.9917,
      "duration": 3.178,
      "velocity": 127,
      "chip": "ym2612"
    },
    {
      "channel": 3,
      "note": 68,
      "start": 30.0907,
      "duration": 0.1985,
      "velocity": 88,
      "chip": "ym2612"
    },
    {
      "channel": 0,
      "note": 20,
      "start": 30.1913,
      "duration": 0.7945,
      "velocity": 105,
      "chip": "ym2612"
    },
    {
      "channel": 2,
      "note": 73,
      "start": 30.1917,
      "duration": 0.1969,
      "velocity": 91,
      "chip": "ym2612"
    },
    {
      "channel": 3,
      "note": 78,
      "start": 30.2894,
      "duration": 0.1985,
      "velocity": 88,
      "chip": "ym2612"
    },
    {
      "channel": 2,
      "note": 75,
      "start": 30.3887,
      "duration": 0.1985,
      "velocity": 91,
      "chip": "ym2612"
    },
    {
      "channel": 3,
      "note": 73,
      "start": 30.488,
      "duration": 0.1985,
      "velocity": 88,
      "chip": "ym2612"
    },
    {
      "channel": 2,
      "note": 68,
      "start": 30.5873,
      "duration": 0.1985,
      "velocity": 91,
      "chip": "ym2612"
    },
    {
      "channel": 3,
      "note": 75,
      "start": 30.6866,
      "duration": 0.1985,
      "velocity": 88,
      "chip": "ym2612"
    },
    {
      "channel": 2,
      "note": 56,
      "start": 30.7859,
      "duration": 0.2019,
      "velocity": 91,
      "chip": "ym2612"
    },
    {
      "channel": 3,
      "note": 68,
      "start": 30.8852,
      "duration": 0.1985,
      "velocity": 88,
      "chip": "ym2612"
    },
    {
      "channel": 0,
      "note": 56,
      "start": 30.9859,
      "duration": 0.1972,
      "velocity": 105,
      "chip": "ym2612"
    },
    {
      "channel": 1,
      "note": 56,
      "start": 30.9877,
      "duration": 0.1959,
      "velocity": 105,
      "chip": "ym2612"
    },
    {
      "channel": 2,
      "note": 75,
      "start": 30.988,
      "duration": 0.1959,
      "velocity": 91,
      "chip": "ym2612"
    },
    {
      "channel": 3,
      "note": 56,
      "start": 31.0839,
      "duration": 0.1985,
      "velocity": 88,
      "chip": "ym2612"
    },
    {
      "channel": 0,
      "note": 56,
      "start": 31.1833,
      "duration": 0.597,
      "velocity": 108,
      "chip": "ym2612"
    },
    {
      "channel": 1,
      "note": 56,
      "start": 31.1837,
      "duration": 1.689,
      "velocity": 106,
      "chip": "ym2612"
    },
    {
      "channel": 2,
      "note": 76,
      "start": 31.184,
      "duration": 0.1976,
      "velocity": 91,
      "chip": "ym2612"
    },
    {
      "channel": 3,
      "note": 75,
      "start": 31.2825,
      "duration": 0.1985,
      "velocity": 88,
      "chip": "ym2612"
    },
    {
      "channel": 2,
      "note": 68,
      "start": 31.3818,
      "duration": 0.1985,
      "velocity": 91,
      "chip": "ym2612"
    },
    {
      "channel": 3,
      "note": 76,
      "start": 31.4812,
      "duration": 0.1985,
      "velocity": 88,
      "chip": "ym2612"
    },
    {
      "channel": 2,
      "note": 78,
      "start": 31.5805,
      "duration": 0.2001,
      "velocity": 91,
      "chip": "ym2612"
    },
    {
      "channel": 3,
      "note": 68,
      "start": 31.6798,
      "duration": 0.1985,
      "velocity": 88,
      "chip": "ym2612"
    },
    {
      "channel": 0,
      "note": 20,
      "start": 31.7804,
      "duration": 0.7944,
      "velocity": 108,
      "chip": "ym2612"
    },
    {
      "channel": 2,
      "note": 73,
      "start": 31.7807,
      "duration": 0.1969,
      "velocity": 91,
      "chip": "ym2612"
    },
    {
      "channel": 3,
      "note": 78,
      "start": 31.8784,
      "duration": 0.1985,
      "velocity": 88,
      "chip": "ym2612"
    },
    {
      "channel": 2,
      "note": 75,
      "start": 31.9777,
      "duration": 0.1989,
      "velocity": 91,
      "chip": "ym2612"
    },
    {
      "channel": 3,
      "note": 73,
      "start": 32.077,
      "duration": 0.1985,
      "velocity": 88,
      "chip": "ym2612"
    },
    {
      "channel": 2,
      "note": 68,
      "start": 32.1767,
      "duration": 0.1982,
      "velocity": 91,
      "chip": "ym2612"
    },
    {
      "channel": 3,
      "note": 75,
      "start": 32.2761,
      "duration": 0.1981,
      "velocity": 88,
      "chip": "ym2612"
    },
    {
      "channel": 2,
      "note": 56,
      "start": 32.375,
      "duration": 0.2001,
      "velocity": 91,
      "chip": "ym2612"
    },
    {
      "channel": 3,
      "note": 68,
      "start": 32.4743,
      "duration": 0.1985,
      "velocity": 88,
      "chip": "ym2612"
    },
    {
      "channel": 0,
      "note": 44,
      "start": 32.5749,
      "duration": 0.1971,
      "velocity": 108,
      "chip": "ym2612"
    },
    {
      "channel": 2,
      "note": 75,
      "start": 32.5753,
      "duration": 0.1972,
      "velocity": 91,
      "chip": "ym2612"
    },
    {
      "channel": 3,
      "note": 56,
      "start": 32.6729,
      "duration": 0.2002,
      "velocity": 88,
      "chip": "ym2612"
    },
    {
      "channel": 0,
      "note": 44,
      "start": 32.7723,
      "duration": 0.5971,
      "velocity": 108,
      "chip": "ym2612"
    },
    {
      "channel": 2,
      "note": 76,
      "start": 32.7726,
      "duration": 0.1981,
      "velocity": 91,
      "chip": "ym2612"
    },
    {
      "channel": 1,
      "note": 44,
      "start": 32.8728,
      "duration": 0.1972,
      "velocity": 106,
      "chip": "ym2612"
    },
    {
      "channel": 3,
      "note": 75,
      "start": 32.8732,
      "duration": 0.1972,
      "velocity": 88,
      "chip": "ym2612"
    },
    {
      "channel": 2,
      "note": 68,
      "start": 32.9709,
      "duration": 0.1985,
      "velocity": 91,
      "chip": "ym2612"
    },
    {
      "channel": 4,
      "note": 44,
      "start": 32.9712,
      "duration": 3.178,
      "velocity": 127,
      "chip": "ym2612"
    },
    {
      "channel": 1,
      "note": 44,
      "start": 33.0702,
      "duration": 1.0955,
      "velocity": 105,
      "chip": "ym2612"
    },
    {
      "channel": 3,
      "note": 76,
      "start": 33.0705,
      "duration": 0.1982,
      "velocity": 88,
      "chip": "ym2612"
    },
    {
      "channel": 2,
      "note": 78,
      "start": 33.1695,
      "duration": 0.2001,
      "velocity": 91,
      "chip": "ym2612"
    },
    {
      "channel": 5,
      "note": 44,
      "start": 33.1698,
      "duration": 3.1779,
      "velocity": 127,
      "chip": "ym2612"
    },
    {
      "channel": 3,
      "note": 68,
      "start": 33.2688,
      "duration": 0.1985,
      "velocity": 88,
      "chip": "ym2612"
    },
    {
      "channel": 0,
      "note": 20,
      "start": 33.3695,
      "duration": 0.7945,
      "velocity": 105,
      "chip": "ym2612"
    },
    {
      "channel": 2,
      "note": 73,
      "start": 33.3698,
      "duration": 0.1968,
      "velocity": 91,
      "chip": "ym2612"
    },
    {
      "channel": 3,
      "note": 78,
      "start": 33.4674,
      "duration": 0.1985,
      "velocity": 88,
      "chip": "ym2612"
    },
    {
      "channel": 2,
      "note": 75,
      "start": 33.5667,
      "duration": 0.1985,
      "velocity": 91,
      "chip": "ym2612"
    },
    {
      "channel": 3,
      "note": 73,
      "start": 33.6661,
      "duration": 0.1985,
      "velocity": 88,
      "chip": "ym2612"
    },
    {
      "channel": 2,
      "note": 68,
      "start": 33.7654,
      "duration": 0.1985,
      "velocity": 91,
      "chip": "ym2612"
    },
    {
      "channel": 3,
      "note": 75,
      "start": 33.8647,
      "duration": 0.1985,
      "velocity": 88,
      "chip": "ym2612"
    },
    {
      "channel": 2,
      "note": 56,
      "start": 33.964,
      "duration": 0.202,
      "velocity": 91,
      "chip": "ym2612"
    },
    {
      "channel": 3,
      "note": 68,
      "start": 34.0634,
      "duration": 0.1985,
      "velocity": 88,
      "chip": "ym2612"
    },
    {
      "channel": 0,
      "note": 56,
      "start": 34.1641,
      "duration": 0.1971,
      "velocity": 105,
      "chip": "ym2612"
    },
    {
      "channel": 1,
      "note": 56,
      "start": 34.1658,
      "duration": 0.1959,
      "velocity": 105,
      "chip": "ym2612"
    },
    {
      "channel": 2,
      "note": 75,
      "start": 34.1661,
      "duration": 0.1959,
      "velocity": 91,
      "chip": "ym2612"
    },
    {
      "channel": 3,
      "note": 56,
      "start": 34.262,
      "duration": 0.1985,
      "velocity": 88,
      "chip": "ym2612"
    },
    {
      "channel": 0,
      "note": 56,
      "start": 34.3614,
      "duration": 0.5969,
      "velocity": 108,
      "chip": "ym2612"
    },
    {
      "channel": 1,
      "note": 56,
      "start": 34.3618,
      "duration": 1.689,
      "velocity": 106,
      "chip": "ym2612"
    },
    {
      "channel": 2,
      "note": 76,
      "start": 34.3621,
      "duration": 0.1978,
      "velocity": 91,
      "chip": "ym2612"
    },
    {
      "channel": 3,
      "note": 75,
      "start": 34.4606,
      "duration": 0.1989,
      "velocity": 88,
      "chip": "ym2612"
    },
    {
      "channel": 2,
      "note": 68,
      "start": 34.56,
      "duration": 0.1983,
      "velocity": 91,
      "chip": "ym2612"
    },
    {
      "channel": 3,
      "note": 76,
      "start": 34.6597,
      "duration": 0.198,
      "velocity": 88,
      "chip": "ym2612"
    },
    {
      "channel": 2,
      "note": 78,
      "start": 34.7585,
      "duration": 0.2001,
      "velocity": 91,
      "chip": "ym2612"
    },
    {
      "channel": 3,
      "note": 68,
      "start": 34.8579,
      "duration": 0.1985,
      "velocity": 88,
      "chip": "ym2612"
    },
    {
      "channel": 0,
      "note": 20,
      "start": 34.9585,
      "duration": 0.7944,
      "velocity": 108,
      "chip": "ym2612"
    },
    {
      "channel": 2,
      "note": 73,
      "start": 34.9588,
      "duration": 0.1969,
      "velocity": 91,
      "chip": "ym2612"
    },
    {
      "channel": 3,
      "note": 78,
      "start": 35.0565,
      "duration": 0.1985,
      "velocity": 88,
      "chip": "ym2612"
    },
    {
      "channel": 2,
      "note": 75,
      "start": 35.1558,
      "duration": 0.1985,
      "velocity": 91,
      "chip": "ym2612"
    },
    {
      "channel": 3,
      "note": 73,
      "start": 35.2551,
      "duration": 0.1985,
      "velocity": 88,
      "chip": "ym2612"
    },
    {
      "channel": 2,
      "note": 68,
      "start": 35.3544,
      "duration": 0.1985,
      "velocity": 91,
      "chip": "ym2612"
    },
    {
      "channel": 3,
      "note": 75,
      "start": 35.4537,
      "duration": 0.1985,
      "velocity": 88,
      "chip": "ym2612"
    },
    {
      "channel": 2,
      "note": 56,
      "start": 35.5531,
      "duration": 0.2001,
      "velocity": 91,
      "chip": "ym2612"
    },
    {
      "channel": 3,
      "note": 68,
      "start": 35.6524,
      "duration": 0.1985,
      "velocity": 88,
      "chip": "ym2612"
    },
    {
      "channel": 0,
      "note": 44,
      "start": 35.753,
      "duration": 0.1972,
      "velocity": 108,
      "chip": "ym2612"
    },
    {
      "channel": 2,
      "note": 75,
      "start": 35.7533,
      "duration": 0.1972,
      "velocity": 91,
      "chip": "ym2612"
    },
    {
      "channel": 3,
      "note": 56,
      "start": 35.851,
      "duration": 0.2001,
      "velocity": 88,
      "chip": "ym2612"
    },
    {
      "channel": 0,
      "note": 44,
      "start": 35.9503,
      "duration": 0.5971,
      "velocity": 108,
      "chip": "ym2612"
    },
    {
      "channel": 2,
      "note": 76,
      "start": 35.9506,
      "duration": 0.1982,
      "velocity": 91,
      "chip": "ym2612"
    },
    {
      "channel": 1,
      "note": 44,
      "start": 36.051,
      "duration": 0.1972,
      "velocity": 106,
      "chip": "ym2612"
    },
    {
      "channel": 3,
      "note": 75,
      "start": 36.0513,
      "duration": 0.1972,
      "velocity": 88,
      "chip": "ym2612"
    },
    {
      "channel": 2,
      "note": 68,
      "start": 36.149,
      "duration": 0.1985,
      "velocity": 91,
      "chip": "ym2612"
    },
    {
      "channel": 4,
      "note": 44,
      "start": 36.1493,
      "duration": 1.1968,
      "velocity": 105,
      "chip": "ym2612"
    },
    {
      "channel": 1,
      "note": 44,
      "start": 36.2483,
      "duration": 1.0957,
      "velocity": 88,
      "chip": "ym2612"
    },
    {
      "channel": 3,
      "note": 76,
      "start": 36.2486,
      "duration": 0.1982,
      "velocity": 88,
      "chip": "ym2612"
    },
    {
      "channel": 2,
      "note": 78,
      "start": 36.3476,
      "duration": 0.2001,
      "velocity": 91,
      "chip": "ym2612"
    },
    {
      "channel": 5,
      "note": 44,
      "start": 36.3479,
      "duration": 3.1787,
      "velocity": 127,
      "chip": "ym2612"
    },
    {
      "channel": 3,
      "note": 68,
      "start": 36.4469,
      "duration": 0.1985,
      "velocity": 88,
      "chip": "ym2612"
    },
    {
      "channel": 0,
      "note": 20,
      "start": 36.5475,
      "duration": 0.7944,
      "velocity": 105,
      "chip": "ym2612"
    },
    {
      "channel": 2,
      "note": 73,
      "start": 36.5478,
      "duration": 0.1969,
      "velocity": 91,
      "chip": "ym2612"
    },
    {
      "channel": 3,
      "note": 78,
      "start": 36.6456,
      "duration": 0.1985,
      "velocity": 88,
      "chip": "ym2612"
    },
    {
      "channel": 2,
      "note": 75,
      "start": 36.7449,
      "duration": 0.1985,
      "velocity": 91,
      "chip": "ym2612"
    },
    {
      "channel": 3,
      "note": 73,
      "start": 36.8441,
      "duration": 0.1989,
      "velocity": 88,
      "chip": "ym2612"
    },
    {
      "channel": 2,
      "note": 68,
      "start": 36.9434,
      "duration": 0.1985,
      "velocity": 91,
      "chip": "ym2612"
    },
    {
      "channel": 3,
      "note": 75,
      "start": 37.0432,
      "duration": 0.1981,
      "velocity": 88,
      "chip": "ym2612"
    },
    {
      "channel": 2,
      "note": 56,
      "start": 37.1421,
      "duration": 0.2022,
      "velocity": 91,
      "chip": "ym2612"
    },
    {
      "channel": 3,
      "note": 68,
      "start": 37.2414,
      "duration": 0.1985,
      "velocity": 88,
      "chip": "ym2612"
    },
    {
      "channel": 0,
      "note": 47,
      "start": 37.3421,
      "duration": 0.1972,
      "velocity": 105,
      "chip": "ym2612"
    },
    {
      "channel": 1,
      "note": 47,
      "start": 37.3441,
      "duration": 3.1776,
      "velocity": 88,
      "chip": "ym2612"
    },
    {
      "channel": 2,
      "note": 78,
      "start": 37.3445,
      "duration": 0.1952,
      "velocity": 91,
      "chip": "ym2612"
    },
    {
      "channel": 4,
      "note": 47,
      "start": 37.3462,
      "duration": 0.1939,
      "velocity": 105,
      "chip": "ym2612"
    },
    {
      "channel": 3,
      "note": 59,
      "start": 37.4401,
      "duration": 0.1985,
      "velocity": 88,
      "chip": "ym2612"
    },
    {
      "channel": 0,
      "note": 47,
      "start": 37.5394,
      "duration": 0.6963,
      "velocity": 97,
      "chip": "ym2612"
    },
    {
      "channel": 2,
      "note": 79,
      "start": 37.5398,
      "duration": 0.1981,
      "velocity": 91,
      "chip": "ym2612"
    },
    {
      "channel": 4,
      "note": 47,
      "start": 37.5402,
      "duration": 1.7887,
      "velocity": 127,
      "chip": "ym2612"
    },
    {
      "channel": 3,
      "note": 78,
      "start": 37.6387,
      "duration": 0.1985,
      "velocity": 88,
      "chip": "ym2612"
    },
    {
      "channel": 2,
      "note": 71,
      "start": 37.738,
      "duration": 0.1985,
      "velocity": 91,
      "chip": "ym2612"
    },
    {
      "channel": 3,
      "note": 79,
      "start": 37.8373,
      "duration": 0.1985,
      "velocity": 88,
      "chip": "ym2612"
    },
    {
      "channel": 2,
      "note": 81,
      "start": 37.9366,
      "duration": 0.1985,
      "velocity": 91,
      "chip": "ym2612"
    },
    {
      "channel": 3,
      "note": 71,
      "start": 38.0359,
      "duration": 0.2001,
      "velocity": 88,
      "chip": "ym2612"
    },
    {
      "channel": 2,
      "note": 76,
      "start": 38.1352,
      "duration": 0.1985,
      "velocity": 91,
      "chip": "ym2612"
    },
    {
      "channel": 0,
      "note": 63,
      "start": 38.2359,
      "duration": 0.2965,
      "velocity": 97,
      "chip": "ym2612"
    },
    {
      "channel": 3,
      "note": 81,
      "start": 38.2362,
      "duration": 0.1969,
      "velocity": 88,
      "chip": "ym2612"
    },
    {
      "channel": 2,
      "note": 78,
      "start": 38.3339,
      "duration": 0.1988,
      "velocity": 91,
      "chip": "ym2612"
    },
    {
      "channel": 3,
      "note": 76,
      "start": 38.4332,
      "duration": 0.1988,
      "velocity": 88,
      "chip": "ym2612"
    },
    {
      "channel": 0,
      "note": 63,
      "start": 38.5325,
      "duration": 0.0496,
      "velocity": 97,
      "chip": "ym2612"
    },
    {
      "channel": 2,
      "note": 71,
      "start": 38.5328,
      "duration": 0.1985,
      "velocity": 91,
      "chip": "ym2612"
    },
    {
      "channel": 0,
      "note": 63,
      "start": 38.5822,
      "duration": 0.0495,
      "velocity": 97,
      "chip": "ym2612"
    },
    {
      "channel": 0,
      "note": 63,
      "start": 38.6318,
      "duration": 0.0495,
      "velocity": 97,
      "chip": "ym2612"
    },
    {
      "channel": 3,
      "note": 78,
      "start": 38.6321,
      "duration": 0.1985,
      "velocity": 88,
      "chip": "ym2612"
    },
    {
      "channel": 0,
      "note": 63,
      "start": 38.6815,
      "duration": 0.0495,
      "velocity": 97,
      "chip": "ym2612"
    },
    {
      "channel": 0,
      "note": 63,
      "start": 38.7311,
      "duration": 0.0495,
      "velocity": 97,
      "chip": "ym2612"
    },
    {
      "channel": 2,
      "note": 59,
      "start": 38.7315,
      "duration": 0.1985,
      "velocity": 91,
      "chip": "ym2612"
    },
    {
      "channel": 0,
      "note": 63,
      "start": 38.7808,
      "duration": 0.0495,
      "velocity": 97,
      "chip": "ym2612"
    },
    {
      "channel": 0,
      "note": 63,
      "start": 38.8305,
      "duration": 0.0495,
      "velocity": 97,
      "chip": "ym2612"
    },
    {
      "channel": 3,
      "note": 71,
      "start": 38.8308,
      "duration": 0.1985,
      "velocity": 88,
      "chip": "ym2612"
    },
    {
      "channel": 0,
      "note": 63,
      "start": 38.8801,
      "duration": 0.0495,
      "velocity": 97,
      "chip": "ym2612"
    },
    {
      "channel": 0,
      "note": 63,
      "start": 38.9298,
      "duration": 0.0495,
      "velocity": 97,
      "chip": "ym2612"
    },
    {
      "channel": 2,
      "note": 78,
      "start": 38.9301,
      "duration": 0.1985,
      "velocity": 91,
      "chip": "ym2612"
    },
    {
      "channel": 0,
      "note": 63,
      "start": 38.9795,
      "duration": 0.0495,
      "velocity": 97,
      "chip": "ym2612"
    },
    {
      "channel": 0,
      "note": 63,
      "start": 39.0291,
      "duration": 0.0495,
      "velocity": 97,
      "chip": "ym2612"
    },
    {
      "channel": 3,
      "note": 59,
      "start": 39.0294,
      "duration": 0.1985,
      "velocity": 88,
      "chip": "ym2612"
    },
    {
      "channel": 0,
      "note": 63,
      "start": 39.0788,
      "duration": 0.0495,
      "velocity": 97,
      "chip": "ym2612"
    },
    {
      "channel": 0,
      "note": 63,
      "start": 39.1284,
      "duration": 0.0495,
      "velocity": 97,
      "chip": "ym2612"
    },
    {
      "channel": 2,
      "note": 79,
      "start": 39.1288,
      "duration": 0.1985,
      "velocity": 91,
      "chip": "ym2612"
    },
    {
      "channel": 0,
      "note": 63,
      "start": 39.178,
      "duration": 0.0495,
      "velocity": 97,
      "chip": "ym2612"
    },
    {
      "channel": 0,
      "note": 63,
      "start": 39.2277,
      "duration": 0.0495,
      "velocity": 97,
      "chip": "ym2612"
    },
    {
      "channel": 3,
      "note": 78,
      "start": 39.228,
      "duration": 0.1989,
      "velocity": 88,
      "chip": "ym2612"
    },
    {
      "channel": 0,
      "note": 63,
      "start": 39.2773,
      "duration": 0.0496,
      "velocity": 97,
      "chip": "ym2612"
    },
    {
      "channel": 0,
      "note": 63,
      "start": 39.327,
      "duration": 0.0496,
      "velocity": 97,
      "chip": "ym2612"
    },
    {
      "channel": 2,
      "note": 71,
      "start": 39.3273,
      "duration": 0.1989,
      "velocity": 91,
      "chip": "ym2612"
    },
    {
      "channel": 4,
      "note": 44,
      "start": 39.329,
      "duration": 1.1947,
      "velocity": 105,
      "chip": "ym2612"
    },
    {
      "channel": 0,
      "note": 63,
      "start": 39.3767,
      "duration": 0.0499,
      "velocity": 97,
      "chip": "ym2612"
    },
    {
      "channel": 0,
      "note": 63,
      "start": 39.4267,
      "duration": 0.0496,
      "velocity": 97,
      "chip": "ym2612"
    },
    {
      "channel": 3,
      "note": 79,
      "start": 39.4271,
      "duration": 0.1981,
      "velocity": 88,
      "chip": "ym2612"
    },
    {
      "channel": 0,
      "note": 63,
      "start": 39.4764,
      "duration": 0.0491,
      "velocity": 97,
      "chip": "ym2612"
    },
    {
      "channel": 0,
      "note": 63,
      "start": 39.5261,
      "duration": 0.0491,
      "velocity": 97,
      "chip": "ym2612"
    },
    {
      "channel": 2,
      "note": 81,
      "start": 39.5264,
      "duration": 0.1978,
      "velocity": 91,
      "chip": "ym2612"
    },
    {
      "channel": 5,
      "note": 44,
      "start": 39.5267,
      "duration": 3.1776,
      "velocity": 127,
      "chip": "ym2612"
    },
    {
      "channel": 0,
      "note": 63,
      "start": 39.5753,
      "duration": 0.0495,
      "velocity": 97,
      "chip": "ym2612"
    },
    {
      "channel": 0,
      "note": 63,
      "start": 39.625,
      "duration": 0.0495,
      "velocity": 97,
      "chip": "ym2612"
    },
    {
      "channel": 3,
      "note": 71,
      "start": 39.6253,
      "duration": 0.1982,
      "velocity": 88,
      "chip": "ym2612"
    },
    {
      "channel": 0,
      "note": 63,
      "start": 39.6746,
      "duration": 0.8454,
      "velocity": 105,
      "chip": "ym2612"
    },
    {
      "channel": 2,
      "note": 76,
      "start": 39.7243,
      "duration": 0.1985,
      "velocity": 91,
      "chip": "ym2612"
    },
    {
      "channel": 3,
      "note": 81,
      "start": 39.8236,
      "duration": 0.1985,
      "velocity": 88,
      "chip": "ym2612"
    },
    {
      "channel": 2,
      "note": 78,
      "start": 39.9229,
      "duration": 0.1985,
      "velocity": 91,
      "chip": "ym2612"
    },
    {
      "channel": 3,
      "note": 76,
      "start": 40.0223,
      "duration": 0.1985,
      "velocity": 88,
      "chip": "ym2612"
    },
    {
      "channel": 2,
      "note": 71,
      "start": 40.1216,
      "duration": 0.1985,
      "velocity": 91,
      "chip": "ym2612"
    },
    {
      "channel": 3,
      "note": 78,
      "start": 40.2209,
      "duration": 0.1985,
      "velocity": 88,
      "chip": "ym2612"
    },
    {
      "channel": 2,
      "note": 59,
      "start": 40.3202,
      "duration": 0.2019,
      "velocity": 91,
      "chip": "ym2612"
    },
    {
      "channel": 3,
      "note": 71,
      "start": 40.4195,
      "duration": 0.1985,
      "velocity": 88,
      "chip": "ym2612"
    },
    {
      "channel": 0,
      "note": 47,
      "start": 40.5202,
      "duration": 0.1972,
      "velocity": 105,
      "chip": "ym2612"
    },
    {
      "channel": 1,
      "note": 47,
      "start": 40.5218,
      "duration": 2.3821,
      "velocity": 108,
      "chip": "ym2612"
    },
    {
      "channel": 2,
      "note": 78,
      "start": 40.5221,
      "duration": 0.1956,
      "velocity": 91,
      "chip": "ym2612"
    },
    {
      "channel": 4,
      "note": 47,
      "start": 40.5239,
      "duration": 0.1943,
      "velocity": 105,
      "chip": "ym2612"
    },
    {
      "channel": 3,
      "note": 59,
      "start": 40.6181,
      "duration": 0.1985,
      "velocity": 88,
      "chip": "ym2612"
    },
    {
      "channel": 0,
      "note": 47,
      "start": 40.7176,
      "duration": 0.597,
      "velocity": 108,
      "chip": "ym2612"
    },
    {
      "channel": 2,
      "note": 79,
      "start": 40.7179,
      "duration": 0.198,
      "velocity": 91,
      "chip": "ym2612"
    },
    {
      "channel": 4,
      "note": 47,
      "start": 40.7183,
      "duration": 1.7887,
      "velocity": 127,
      "chip": "ym2612"
    },
    {
      "channel": 3,
      "note": 78,
      "start": 40.8167,
      "duration": 0.1985,
      "velocity": 88,
      "chip": "ym2612"
    },
    {
      "channel": 2,
      "note": 71,
      "start": 40.9161,
      "duration": 0.1985,
      "velocity": 91,
      "chip": "ym2612"
    },
    {
      "channel": 3,
      "note": 79,
      "start": 41.0154,
      "duration": 0.1985,
      "velocity": 88,
      "chip": "ym2612"
    },
    {
      "channel": 2,
      "note": 81,
      "start": 41.1147,
      "duration": 0.2001,
      "velocity": 91,
      "chip": "ym2612"
    },
    {
      "channel": 3,
      "note": 71,
      "start": 41.214,
      "duration": 0.1985,
      "velocity": 88,
      "chip": "ym2612"
    },
    {
      "channel": 0,
      "note": 20,
      "start": 41.3146,
      "duration": 0.6955,
      "velocity": 97,
      "chip": "ym2612"
    },
    {
      "channel": 2,
      "note": 76,
      "start": 41.3149,
      "duration": 0.1969,
      "velocity": 91,
      "chip": "ym2612"
    },
    {
      "channel": 3,
      "note": 81,
      "start": 41.4127,
      "duration": 0.1985,
      "velocity": 88,
      "chip": "ym2612"
    },
    {
      "channel": 2,
      "note": 78,
      "start": 41.512,
      "duration": 0.1985,
      "velocity": 91,
      "chip": "ym2612"
    },
    {
      "channel": 3,
      "note": 76,
      "start": 41.6112,
      "duration": 0.1987,
      "velocity": 88,
      "chip": "ym2612"
    },
    {
      "channel": 2,
      "note": 71,
      "start": 41.7106,
      "duration": 0.1989,
      "velocity": 91,
      "chip": "ym2612"
    },
    {
      "channel": 3,
      "note": 78,
      "start": 41.81,
      "duration": 0.2004,
      "velocity": 88,
      "chip": "ym2612"
    },
    {
      "channel": 2,
      "note": 59,
      "start": 41.9096,
      "duration": 0.1985,
      "velocity": 91,
      "chip": "ym2612"
    },
    {
      "channel": 0,
      "note": 49,
      "start": 42.0102,
      "duration": 0.0478,
      "velocity": 97,
      "chip": "ym2612"
    },
    {
      "channel": 3,
      "note": 71,
      "start": 42.0106,
      "duration": 0.1968,
      "velocity": 88,
      "chip": "ym2612"
    },
    {
      "channel": 0,
      "note": 56,
      "start": 42.0582,
      "duration": 0.0495,
      "velocity": 97,
      "chip": "ym2612"
    },
    {
      "channel": 0,
      "note": 55,
      "start": 42.1078,
      "duration": 0.0495,
      "velocity": 97,
      "chip": "ym2612"
    },
    {
      "channel": 2,
      "note": 78,
      "start": 42.1082,
      "duration": 0.1985,
      "velocity": 91,
      "chip": "ym2612"
    },
    {
      "channel": 0,
      "note": 53,
      "start": 42.1575,
      "duration": 0.0495,
      "velocity": 97,
      "chip": "ym2612"
    },
    {
      "channel": 0,
      "note": 48,
      "start": 42.2072,
      "duration": 0.0495,
      "velocity": 97,
      "chip": "ym2612"
    },
    {
      "channel": 3,
      "note": 59,
      "start": 42.2075,
      "duration": 0.1985,
      "velocity": 88,
      "chip": "ym2612"
    },
    {
      "channel": 0,
      "note": 54,
      "start": 42.2568,
      "duration": 0.0495,
      "velocity": 97,
      "chip": "ym2612"
    },
    {
      "channel": 0,
      "note": 51,
      "start": 42.3065,
      "duration": 0.0495,
      "velocity": 97,
      "chip": "ym2612"
    },
    {
      "channel": 2,
      "note": 79,
      "start": 42.3068,
      "duration": 0.1985,
      "velocity": 91,
      "chip": "ym2612"
    },
    {
      "channel": 0,
      "note": 49,
      "start": 42.3562,
      "duration": 0.0495,
      "velocity": 97,
      "chip": "ym2612"
    },
    {
      "channel": 0,
      "note": 54,
      "start": 42.4058,
      "duration": 0.0496,
      "velocity": 97,
      "chip": "ym2612"
    },
    {
      "channel": 3,
      "note": 78,
      "start": 42.4061,
      "duration": 0.1985,
      "velocity": 88,
      "chip": "ym2612"
    },
    {
      "channel": 0,
      "note": 52,
      "start": 42.4555,
      "duration": 0.0495,
      "velocity": 97,
      "chip": "ym2612"
    },
    {
      "channel": 0,
      "note": 51,
      "start": 42.5051,
      "duration": 0.0496,
      "velocity": 97,
      "chip": "ym2612"
    },
    {
      "channel": 2,
      "note": 71,
      "start": 42.5054,
      "duration": 0.1985,
      "velocity": 91,
      "chip": "ym2612"
    },
    {
      "channel": 4,
      "note": 44,
      "start": 42.5071,
      "duration": 1.1948,
      "velocity": 105,
      "chip": "ym2612"
    },
    {
      "channel": 0,
      "note": 46,
      "start": 42.5548,
      "duration": 0.0495,
      "velocity": 97,
      "chip": "ym2612"
    },
    {
      "channel": 0,
      "note": 44,
      "start": 42.6044,
      "duration": 0.0495,
      "velocity": 97,
      "chip": "ym2612"
    },
    {
      "channel": 3,
      "note": 79,
      "start": 42.6048,
      "duration": 0.1985,
      "velocity": 88,
      "chip": "ym2612"
    },
    {
      "channel": 0,
      "note": 56,
      "start": 42.6541,
      "duration": 0.0496,
      "velocity": 97,
      "chip": "ym2612"
    },
    {
      "channel": 0,
      "note": 55,
      "start": 42.7037,
      "duration": 0.0495,
      "velocity": 97,
      "chip": "ym2612"
    },
    {
      "channel": 2,
      "note": 81,
      "start": 42.7041,
      "duration": 0.2001,
      "velocity": 91,
      "chip": "ym2612"
    },
    {
      "channel": 5,
      "note": 44,
      "start": 42.7044,
      "duration": 3.178,
      "velocity": 127,
      "chip": "ym2612"
    },
    {
      "channel": 0,
      "note": 48,
      "start": 42.7534,
      "duration": 0.0495,
      "velocity": 97,
      "chip": "ym2612"
    },
    {
      "channel": 0,
      "note": 46,
      "start": 42.8031,
      "duration": 0.0495,
      "velocity": 97,
      "chip": "ym2612"
    },
    {
      "channel": 3,
      "note": 71,
      "start": 42.8034,
      "duration": 0.1985,
      "velocity": 88,
      "chip": "ym2612"
    },
    {
      "channel": 0,
      "note": 53,
      "start": 42.8527,
      "duration": 0.0495,
      "velocity": 97,
      "chip": "ym2612"
    },
    {
      "channel": 0,
      "note": 49,
      "start": 42.9024,
      "duration": 0.0495,
      "velocity": 97,
      "chip": "ym2612"
    },
    {
      "channel": 1,
      "note": 20,
      "start": 42.904,
      "duration": 0.7958,
      "velocity": 88,
      "chip": "ym2612"
    },
    {
      "channel": 2,
      "note": 76,
      "start": 42.9043,
      "duration": 0.1966,
      "velocity": 91,
      "chip": "ym2612"
    },
    {
      "channel": 0,
      "note": 54,
      "start": 42.952,
      "duration": 0.0495,
      "velocity": 97,
      "chip": "ym2612"
    },
    {
      "channel": 0,
      "note": 52,
      "start": 43.0017,
      "duration": 0.0495,
      "velocity": 97,
      "chip": "ym2612"
    },
    {
      "channel": 3,
      "note": 81,
      "start": 43.002,
      "duration": 0.1981,
      "velocity": 88,
      "chip": "ym2612"
    },
    {
      "channel": 0,
      "note": 51,
      "start": 43.0513,
      "duration": 0.6468,
      "velocity": 105,
      "chip": "ym2612"
    },
    {
      "channel": 2,
      "note": 78,
      "start": 43.101,
      "duration": 0.1985,
      "velocity": 91,
      "chip": "ym2612"
    },
    {
      "channel": 3,
      "note": 76,
      "start": 43.2003,
      "duration": 0.1985,
      "velocity": 88,
      "chip": "ym2612"
    },
    {
      "channel": 2,
      "note": 71,
      "start": 43.2996,
      "duration": 0.1985,
      "velocity": 91,
      "chip": "ym2612"
    },
    {
      "channel": 3,
      "note": 78,
      "start": 43.3989,
      "duration": 0.1985,
      "velocity": 88,
      "chip": "ym2612"
    },
    {
      "channel": 2,
      "note": 59,
      "start": 43.4983,
      "duration": 0.2019,
      "velocity": 91,
      "chip": "ym2612"
    },
    {
      "channel": 3,
      "note": 71,
      "start": 43.5976,
      "duration": 0.1985,
      "velocity": 88,
      "chip": "ym2612"
    },
    {
      "channel": 0,
      "note": 47,
      "start": 43.6983,
      "duration": 0.1972,
      "velocity": 105,
      "chip": "ym2612"
    },
    {
      "channel": 1,
      "note": 47,
      "start": 43.6999,
      "duration": 3.1783,
      "velocity": 88,
      "chip": "ym2612"
    },
    {
      "channel": 2,
      "note": 78,
      "start": 43.7002,
      "duration": 0.1956,
      "velocity": 91,
      "chip": "ym2612"
    },
    {
      "channel": 4,
      "note": 47,
      "start": 43.702,
      "duration": 0.1942,
      "velocity": 105,
      "chip": "ym2612"
    },
    {
      "channel": 3,
      "note": 59,
      "start": 43.7962,
      "duration": 0.1985,
      "velocity": 88,
      "chip": "ym2612"
    },
    {
      "channel": 0,
      "note": 47,
      "start": 43.8956,
      "duration": 0.6963,
      "velocity": 97,
      "chip": "ym2612"
    },
    {
      "channel": 2,
      "note": 79,
      "start": 43.8959,
      "duration": 0.1981,
      "velocity": 91,
      "chip": "ym2612"
    },
    {
      "channel": 4,
      "note": 47,
      "start": 43.8963,
      "duration": 1.7887,
      "velocity": 127,
      "chip": "ym2612"
    },
    {
      "channel": 3,
      "note": 78,
      "start": 43.9949,
      "duration": 0.1985,
      "velocity": 88,
      "chip": "ym2612"
    },
    {
      "channel": 2,
      "note": 71,
      "start": 44.0941,
      "duration": 0.1989,
      "velocity": 91,
      "chip": "ym2612"
    },
    {
      "channel": 3,
      "note": 79,
      "start": 44.1934,
      "duration": 0.1985,
      "velocity": 88,
      "chip": "ym2612"
    },
    {
      "channel": 2,
      "note": 81,
      "start": 44.2932,
      "duration": 0.1981,
      "velocity": 91,
      "chip": "ym2612"
    },
    {
      "channel": 3,
      "note": 71,
      "start": 44.3921,
      "duration": 0.2001,
      "velocity": 88,
      "chip": "ym2612"
    },
    {
      "channel": 2,
      "note": 76,
      "start": 44.4914,
      "duration": 0.1985,
      "velocity": 91,
      "chip": "ym2612"
    },
    {
      "channel": 0,
      "note": 63,
      "start": 44.592,
      "duration": 0.2965,
      "velocity": 97,
      "chip": "ym2612"
    },
    {
      "channel": 3,
      "note": 81,
      "start": 44.5927,
      "duration": 0.1965,
      "velocity": 88,
      "chip": "ym2612"
    },
    {
      "channel": 2,
      "note": 78,
      "start": 44.6901,
      "duration": 0.1988,
      "velocity": 91,
      "chip": "ym2612"
    },
    {
      "channel": 3,
      "note": 76,
      "start": 44.7894,
      "duration": 0.1988,
      "velocity": 88,
      "chip": "ym2612"
    },
    {
      "channel": 0,
      "note": 63,
      "start": 44.8887,
      "duration": 0.0495,
      "velocity": 97,
      "chip": "ym2612"
    },
    {
      "channel": 2,
      "note": 71,
      "start": 44.889,
      "duration": 0.1985,
      "velocity": 91,
      "chip": "ym2612"
    },
    {
      "channel": 0,
      "note": 63,
      "start": 44.9384,
      "duration": 0.0495,
      "velocity": 97,
      "chip": "ym2612"
    },
    {
      "channel": 0,
      "note": 63,
      "start": 44.988,
      "duration": 0.0495,
      "velocity": 97,
      "chip": "ym2612"
    },
    {
      "channel": 3,
      "note": 78,
      "start": 44.9883,
      "duration": 0.1985,
      "velocity": 88,
      "chip": "ym2612"
    },
    {
      "channel": 0,
      "note": 63,
      "start": 45.0377,
      "duration": 0.0495,
      "velocity": 97,
      "chip": "ym2612"
    },
    {
      "channel": 0,
      "note": 63,
      "start": 45.0873,
      "duration": 0.0495,
      "velocity": 97,
      "chip": "ym2612"
    },
    {
      "channel": 2,
      "note": 59,
      "start": 45.0876,
      "duration": 0.1985,
      "velocity": 91,
      "chip": "ym2612"
    },
    {
      "channel": 0,
      "note": 63,
      "start": 45.137,
      "duration": 0.0495,
      "velocity": 97,
      "chip": "ym2612"
    },
    {
      "channel": 0,
      "note": 63,
      "start": 45.1866,
      "duration": 0.0495,
      "velocity": 97,
      "chip": "ym2612"
    },
    {
      "channel": 3,
      "note": 71,
      "start": 45.187,
      "duration": 0.1985,
      "velocity": 88,
      "chip": "ym2612"
    },
    {
      "channel": 0,
      "note": 63,
      "start": 45.2363,
      "duration": 0.0495,
      "velocity": 97,
      "chip": "ym2612"
    },
    {
      "channel": 0,
      "note": 63,
      "start": 45.2859,
      "duration": 0.0495,
      "velocity": 97,
      "chip": "ym2612"
    },
    {
      "channel": 2,
      "note": 78,
      "start": 45.2863,
      "duration": 0.1985,
      "velocity": 91,
      "chip": "ym2612"
    },
    {
      "channel": 0,
      "note": 63,
      "start": 45.3356,
      "duration": 0.0495,
      "velocity": 97,
      "chip": "ym2612"
    },
    {
      "channel": 0,
      "note": 63,
      "start": 45.3852,
      "duration": 0.0495,
      "velocity": 97,
      "chip": "ym2612"
    },
    {
      "channel": 3,
      "note": 59,
      "start": 45.3856,
      "duration": 0.1985,
      "velocity": 88,
      "chip": "ym2612"
    },
    {
      "channel": 0,
      "note": 63,
      "start": 45.4349,
      "duration": 0.0495,
      "velocity": 97,
      "chip": "ym2612"
    },
    {
      "channel": 0,
      "note": 63,
      "start": 45.4845,
      "duration": 0.0496,
      "velocity": 97,
      "chip": "ym2612"
    },
    {
      "channel": 2,
      "note": 79,
      "start": 45.4849,
      "duration": 0.1985,
      "velocity": 91,
      "chip": "ym2612"
    },
    {
      "channel": 0,
      "note": 63,
      "start": 45.5342,
      "duration": 0.0495,
      "velocity": 97,
      "chip": "ym2612"
    },
    {
      "channel": 0,
      "note": 63,
      "start": 45.5839,
      "duration": 0.0495,
      "velocity": 97,
      "chip": "ym2612"
    },
    {
      "channel": 3,
      "note": 78,
      "start": 45.5842,
      "duration": 0.1985,
      "velocity": 88,
      "chip": "ym2612"
    },
    {
      "channel": 0,
      "note": 63,
      "start": 45.6335,
      "duration": 0.0496,
      "velocity": 97,
      "chip": "ym2612"
    },
    {
      "channel": 0,
      "note": 63,
      "start": 45.6832,
      "duration": 0.0495,
      "velocity": 97,
      "chip": "ym2612"
    },
    {
      "channel": 2,
      "note": 71,
      "start": 45.6835,
      "duration": 0.1985,
      "velocity": 91,
      "chip": "ym2612"
    },
    {
      "channel": 4,
      "note": 44,
      "start": 45.6851,
      "duration": 1.1952,
      "velocity": 105,
      "chip": "ym2612"
    },
    {
      "channel": 0,
      "note": 63,
      "start": 45.7328,
      "duration": 0.0495,
      "velocity": 97,
      "chip": "ym2612"
    },
    {
      "channel": 0,
      "note": 63,
      "start": 45.7825,
      "duration": 0.0495,
      "velocity": 97,
      "chip": "ym2612"
    },
    {
      "channel": 3,
      "note": 79,
      "start": 45.7828,
      "duration": 0.1985,
      "velocity": 88,
      "chip": "ym2612"
    },
    {
      "channel": 0,
      "note": 63,
      "start": 45.8322,
      "duration": 0.0495,
      "velocity": 97,
      "chip": "ym2612"
    },
    {
      "channel": 0,
      "note": 63,
      "start": 45.8818,
      "duration": 0.0495,
      "velocity": 97,
      "chip": "ym2612"
    },
    {
      "channel": 2,
      "note": 81,
      "start": 45.8821,
      "duration": 0.1982,
      "velocity": 91,
      "chip": "ym2612"
    },
    {
      "channel": 5,
      "note": 44,
      "start": 45.8825,
      "duration": 3.1781,
      "velocity": 127,
      "chip": "ym2612"
    },
    {
      "channel": 0,
      "note": 63,
      "start": 45.9315,
      "duration": 0.0495,
      "velocity": 97,
      "chip": "ym2612"
    },
    {
      "channel": 0,
      "note": 63,
      "start": 45.9812,
      "duration": 0.0495,
      "velocity": 97,
      "chip": "ym2612"
    },
    {
      "channel": 3,
      "note": 71,
      "start": 45.9815,
      "duration": 0.1981,
      "velocity": 88,
      "chip": "ym2612"
    },
    {
      "channel": 0,
      "note": 63,
      "start": 46.0308,
      "duration": 0.8459,
      "velocity": 105,
      "chip": "ym2612"
    },
    {
      "channel": 2,
      "note": 76,
      "start": 46.0805,
      "duration": 0.1985,
      "velocity": 91,
      "chip": "ym2612"
    },
    {
      "channel": 3,
      "note": 81,
      "start": 46.1798,
      "duration": 0.1985,
      "velocity": 88,
      "chip": "ym2612"
    },
    {
      "channel": 2,
      "note": 78,
      "start": 46.2791,
      "duration": 0.1985,
      "velocity": 91,
      "chip": "ym2612"
    },
    {
      "channel": 3,
      "note": 76,
      "start": 46.3784,
      "duration": 0.1985,
      "velocity": 88,
      "chip": "ym2612"
    },
    {
      "channel": 2,
      "note": 71,
      "start": 46.4777,
      "duration": 0.1989,
      "velocity": 91,
      "chip": "ym2612"
    },
    {
      "channel": 3,
      "note": 78,
      "start": 46.577,
      "duration": 0.1985,
      "velocity": 88,
      "chip": "ym2612"
    },
    {
      "channel": 2,
      "note": 59,
      "start": 46.6767,
      "duration": 0.2019,
      "velocity": 91,
      "chip": "ym2612"
    },
    {
      "channel": 3,
      "note": 71,
      "start": 46.7761,
      "duration": 0.1981,
      "velocity": 88,
      "chip": "ym2612"
    },
    {
      "channel": 0,
      "note": 47,
      "start": 46.8768,
      "duration": 0.1968,
      "velocity": 105,
      "chip": "ym2612"
    },
    {
      "channel": 1,
      "note": 47,
      "start": 46.8784,
      "duration": 2.3821,
      "velocity": 108,
      "chip": "ym2612"
    },
    {
      "channel": 2,
      "note": 78,
      "start": 46.8788,
      "duration": 0.1951,
      "velocity": 91,
      "chip": "ym2612"
    },
    {
      "channel": 4,
      "note": 47,
      "start": 46.8805,
      "duration": 0.1938,
      "velocity": 105,
      "chip": "ym2612"
    },
    {
      "channel": 3,
      "note": 59,
      "start": 46.9743,
      "duration": 0.1985,
      "velocity": 88,
      "chip": "ym2612"
    },
    {
      "channel": 0,
      "note": 47,
      "start": 47.0737,
      "duration": 0.597,
      "velocity": 108,
      "chip": "ym2612"
    },
    {
      "channel": 2,
      "note": 79,
      "start": 47.074,
      "duration": 0.1981,
      "velocity": 91,
      "chip": "ym2612"
    },
    {
      "channel": 4,
      "note": 47,
      "start": 47.0744,
      "duration": 1.7887,
      "velocity": 127,
      "chip": "ym2612"
    },
    {
      "channel": 3,
      "note": 78,
      "start": 47.1729,
      "duration": 0.1985,
      "velocity": 88,
      "chip": "ym2612"
    },
    {
      "channel": 2,
      "note": 71,
      "start": 47.2723,
      "duration": 0.1985,
      "velocity": 91,
      "chip": "ym2612"
    },
    {
      "channel": 3,
      "note": 79,
      "start": 47.3716,
      "duration": 0.1985,
      "velocity": 88,
      "chip": "ym2612"
    },
    {
      "channel": 2,
      "note": 81,
      "start": 47.4709,
      "duration": 0.2001,
      "velocity": 91,
      "chip": "ym2612"
    },
    {
      "channel": 3,
      "note": 71,
      "start": 47.5702,
      "duration": 0.1985,
      "velocity": 88,
      "chip": "ym2612"
    },
    {
      "channel": 0,
      "note": 20,
      "start": 47.6708,
      "duration": 0.6951,
      "velocity": 97,
      "chip": "ym2612"
    },
    {
      "channel": 2,
      "note": 76,
      "start": 47.6711,
      "duration": 0.1969,
      "velocity": 91,
      "chip": "ym2612"
    },
    {
      "channel": 3,
      "note": 81,
      "start": 47.7688,
      "duration": 0.1985,
      "velocity": 88,
      "chip": "ym2612"
    },
    {
      "channel": 2,
      "note": 78,
      "start": 47.8681,
      "duration": 0.1985,
      "velocity": 91,
      "chip": "ym2612"
    },
    {
      "channel": 3,
      "note": 76,
      "start": 47.9674,
      "duration": 0.1985,
      "velocity": 88,
      "chip": "ym2612"
    },
    {
      "channel": 2,
      "note": 71,
      "start": 48.0667,
      "duration": 0.1985,
      "velocity": 91,
      "chip": "ym2612"
    },
    {
      "channel": 3,
      "note": 78,
      "start": 48.1661,
      "duration": 0.2001,
      "velocity": 88,
      "chip": "ym2612"
    },
    {
      "channel": 2,
      "note": 59,
      "start": 48.2654,
      "duration": 0.1988,
      "velocity": 91,
      "chip": "ym2612"
    },
    {
      "channel": 0,
      "note": 49,
      "start": 48.366,
      "duration": 0.0482,
      "velocity": 97,
      "chip": "ym2612"
    },
    {
      "channel": 3,
      "note": 71,
      "start": 48.3663,
      "duration": 0.1972,
      "velocity": 88,
      "chip": "ym2612"
    },
    {
      "channel": 0,
      "note": 56,
      "start": 48.4144,
      "duration": 0.0495,
      "velocity": 97,
      "chip": "ym2612"
    },
    {
      "channel": 0,
      "note": 55,
      "start": 48.464,
      "duration": 0.0495,
      "velocity": 97,
      "chip": "ym2612"
    },
    {
      "channel": 2,
      "note": 78,
      "start": 48.4643,
      "duration": 0.1985,
      "velocity": 91,
      "chip": "ym2612"
    },
    {
      "channel": 0,
      "note": 53,
      "start": 48.5137,
      "duration": 0.0495,
      "velocity": 97,
      "chip": "ym2612"
    },
    {
      "channel": 0,
      "note": 48,
      "start": 48.5634,
      "duration": 0.0495,
      "velocity": 97,
      "chip": "ym2612"
    },
    {
      "channel": 3,
      "note": 59,
      "start": 48.5637,
      "duration": 0.1985,
      "velocity": 88,
      "chip": "ym2612"
    },
    {
      "channel": 0,
      "note": 54,
      "start": 48.613,
      "duration": 0.0496,
      "velocity": 97,
      "chip": "ym2612"
    },
    {
      "channel": 0,
      "note": 51,
      "start": 48.6627,
      "duration": 0.0495,
      "velocity": 97,
      "chip": "ym2612"
    },
    {
      "channel": 2,
      "note": 79,
      "start": 48.663,
      "duration": 0.1985,
      "velocity": 91,
      "chip": "ym2612"
    },
    {
      "channel": 0,
      "note": 49,
      "start": 48.7123,
      "duration": 0.0496,
      "velocity": 97,
      "chip": "ym2612"
    },
    {
      "channel": 0,
      "note": 54,
      "start": 48.762,
      "duration": 0.0495,
      "velocity": 97,
      "chip": "ym2612"
    },
    {
      "channel": 3,
      "note": 78,
      "start": 48.7623,
      "duration": 0.1985,
      "velocity": 88,
      "chip": "ym2612"
    },
    {
      "channel": 0,
      "note": 52,
      "start": 48.8116,
      "duration": 0.0495,
      "velocity": 97,
      "chip": "ym2612"
    },
    {
      "channel": 0,
      "note": 51,
      "start": 48.8612,
      "duration": 0.0496,
      "velocity": 97,
      "chip": "ym2612"
    },
    {
      "channel": 2,
      "note": 71,
      "start": 48.8616,
      "duration": 0.1987,
      "velocity": 91,
      "chip": "ym2612"
    },
    {
      "channel": 4,
      "note": 44,
      "start": 48.8632,
      "duration": 3.1763,
      "velocity": 127,
      "chip": "ym2612"
    },
    {
      "channel": 0,
      "note": 46,
      "start": 48.9109,
      "duration": 0.0495,
      "velocity": 97,
      "chip": "ym2612"
    },
    {
      "channel": 0,
      "note": 44,
      "start": 48.9606,
      "duration": 0.0495,
      "velocity": 97,
      "chip": "ym2612"
    },
    {
      "channel": 3,
      "note": 79,
      "start": 48.9609,
      "duration": 0.1989,
      "velocity": 88,
      "chip": "ym2612"
    },
    {
      "channel": 0,
      "note": 56,
      "start": 49.0102,
      "duration": 0.0497,
      "velocity": 97,
      "chip": "ym2612"
    },
    {
      "channel": 0,
      "note": 55,
      "start": 49.06,
      "duration": 0.0498,
      "velocity": 97,
      "chip": "ym2612"
    },
    {
      "channel": 2,
      "note": 81,
      "start": 49.0604,
      "duration": 0.2003,
      "velocity": 91,
      "chip": "ym2612"
    },
    {
      "channel": 5,
      "note": 44,
      "start": 49.0607,
      "duration": 3.1774,
      "velocity": 127,
      "chip": "ym2612"
    },
    {
      "channel": 0,
      "note": 48,
      "start": 49.11,
      "duration": 0.0495,
      "velocity": 97,
      "chip": "ym2612"
    },
    {
      "channel": 0,
      "note": 46,
      "start": 49.1596,
      "duration": 0.0491,
      "velocity": 97,
      "chip": "ym2612"
    },
    {
      "channel": 3,
      "note": 71,
      "start": 49.16,
      "duration": 0.1981,
      "velocity": 88,
      "chip": "ym2612"
    },
    {
      "channel": 0,
      "note": 53,
      "start": 49.2088,
      "duration": 0.0495,
      "velocity": 97,
      "chip": "ym2612"
    },
    {
      "channel": 0,
      "note": 49,
      "start": 49.2585,
      "duration": 0.0495,
      "velocity": 97,
      "chip": "ym2612"
    },
    {
      "channel": 1,
      "note": 20,
      "start": 49.2606,
      "duration": 0.7955,
      "velocity": 105,
      "chip": "ym2612"
    },
    {
      "channel": 2,
      "note": 76,
      "start": 49.2609,
      "duration": 0.1962,
      "velocity": 91,
      "chip": "ym2612"
    },
    {
      "channel": 0,
      "note": 54,
      "start": 49.3082,
      "duration": 0.0495,
      "velocity": 97,
      "chip": "ym2612"
    },
    {
      "channel": 0,
      "note": 52,
      "start": 49.3578,
      "duration": 0.0495,
      "velocity": 97,
      "chip": "ym2612"
    },
    {
      "channel": 3,
      "note": 81,
      "start": 49.3582,
      "duration": 0.1981,
      "velocity": 88,
      "chip": "ym2612"
    },
    {
      "channel": 0,
      "note": 51,
      "start": 49.4075,
      "duration": 0.6468,
      "velocity": 105,
      "chip": "ym2612"
    },
    {
      "channel": 2,
      "note": 78,
      "start": 49.4572,
      "duration": 0.1985,
      "velocity": 91,
      "chip": "ym2612"
    },
    {
      "channel": 3,
      "note": 76,
      "start": 49.5565,
      "duration": 0.1985,
      "velocity": 88,
      "chip": "ym2612"
    },
    {
      "channel": 2,
      "note": 71,
      "start": 49.6558,
      "duration": 0.1985,
      "velocity": 91,
      "chip": "ym2612"
    },
    {
      "channel": 3,
      "note": 78,
      "start": 49.7551,
      "duration": 0.1985,
      "velocity": 88,
      "chip": "ym2612"
    },
    {
      "channel": 2,
      "note": 59,
      "start": 49.8544,
      "duration": 0.2019,
      "velocity": 91,
      "chip": "ym2612"
    },
    {
      "channel": 3,
      "note": 71,
      "start": 49.9537,
      "duration": 0.1985,
      "velocity": 88,
      "chip": "ym2612"
    },
    {
      "channel": 0,
      "note": 56,
      "start": 50.0544,
      "duration": 0.1972,
      "velocity": 105,
      "chip": "ym2612"
    },
    {
      "channel": 1,
      "note": 56,
      "start": 50.0562,
      "duration": 0.1959,
      "velocity": 105,
      "chip": "ym2612"
    },
    {
      "channel": 2,
      "note": 75,
      "start": 50.0565,
      "duration": 0.1959,
      "velocity": 91,
      "chip": "ym2612"
    },
    {
      "channel": 3,
      "note": 56,
      "start": 50.1524,
      "duration": 0.1985,
      "velocity": 88,
      "chip": "ym2612"
    },
    {
      "channel": 0,
      "note": 56,
      "start": 50.2518,
      "duration": 0.597,
      "velocity": 108,
      "chip": "ym2612"
    },
    {
      "channel": 1,
      "note": 56,
      "start": 50.2522,
      "duration": 1.6891,
      "velocity": 106,
      "chip": "ym2612"
    },
    {
      "channel": 2,
      "note": 76,
      "start": 50.2525,
      "duration": 0.1977,
      "velocity": 91,
      "chip": "ym2612"
    },
    {
      "channel": 3,
      "note": 75,
      "start": 50.351,
      "duration": 0.1985,
      "velocity": 88,
      "chip": "ym2612"
    },
    {
      "channel": 2,
      "note": 68,
      "start": 50.4503,
      "duration": 0.1985,
      "velocity": 91,
      "chip": "ym2612"
    },
    {
      "channel": 3,
      "note": 76,
      "start": 50.5496,
      "duration": 0.1985,
      "velocity": 88,
      "chip": "ym2612"
    },
    {
      "channel": 2,
      "note": 78,
      "start": 50.6489,
      "duration": 0.2002,
      "velocity": 91,
      "chip": "ym2612"
    },
    {
      "channel": 3,
      "note": 68,
      "start": 50.7483,
      "duration": 0.1985,
      "velocity": 88,
      "chip": "ym2612"
    },
    {
      "channel": 0,
      "note": 20,
      "start": 50.8488,
      "duration": 0.7949,
      "velocity": 108,
      "chip": "ym2612"
    },
    {
      "channel": 2,
      "note": 73,
      "start": 50.8492,
      "duration": 0.1968,
      "velocity": 91,
      "chip": "ym2612"
    },
    {
      "channel": 3,
      "note": 78,
      "start": 50.9469,
      "duration": 0.1985,
      "velocity": 88,
      "chip": "ym2612"
    },
    {
      "channel": 2,
      "note": 75,
      "start": 51.0462,
      "duration": 0.1985,
      "velocity": 91,
      "chip": "ym2612"
    },
    {
      "channel": 3,
      "note": 73,
      "start": 51.1455,
      "duration": 0.1985,
      "velocity": 88,
      "chip": "ym2612"
    },
    {
      "channel": 2,
      "note": 68,
      "start": 51.2449,
      "duration": 0.1985,
      "velocity": 91,
      "chip": "ym2612"
    },
    {
      "channel": 3,
      "note": 75,
      "start": 51.3441,
      "duration": 0.1989,
      "velocity": 88,
      "chip": "ym2612"
    },
    {
      "channel": 2,
      "note": 56,
      "start": 51.4434,
      "duration": 0.2006,
      "velocity": 91,
      "chip": "ym2612"
    },
    {
      "channel": 3,
      "note": 68,
      "start": 51.5432,
      "duration": 0.1981,
      "velocity": 88,
      "chip": "ym2612"
    },
    {
      "channel": 0,
      "note": 44,
      "start": 51.6438,
      "duration": 0.1968,
      "velocity": 108,
      "chip": "ym2612"
    },
    {
      "channel": 2,
      "note": 75,
      "start": 51.6441,
      "duration": 0.1968,
      "velocity": 91,
      "chip": "ym2612"
    },
    {
      "channel": 3,
      "note": 56,
      "start": 51.7414,
      "duration": 0.2001,
      "velocity": 88,
      "chip": "ym2612"
    },
    {
      "channel": 0,
      "note": 44,
      "start": 51.8407,
      "duration": 0.5971,
      "velocity": 108,
      "chip": "ym2612"
    },
    {
      "channel": 2,
      "note": 76,
      "start": 51.841,
      "duration": 0.1982,
      "velocity": 91,
      "chip": "ym2612"
    },
    {
      "channel": 1,
      "note": 44,
      "start": 51.9413,
      "duration": 0.1972,
      "velocity": 106,
      "chip": "ym2612"
    },
    {
      "channel": 3,
      "note": 75,
      "start": 51.9417,
      "duration": 0.1972,
      "velocity": 88,
      "chip": "ym2612"
    },
    {
      "channel": 2,
      "note": 68,
      "start": 52.0394,
      "duration": 0.1985,
      "velocity": 91,
      "chip": "ym2612"
    },
    {
      "channel": 4,
      "note": 44,
      "start": 52.0397,
      "duration": 3.1779,
      "velocity": 127,
      "chip": "ym2612"
    },
    {
      "channel": 1,
      "note": 44,
      "start": 52.1387,
      "duration": 1.0954,
      "velocity": 105,
      "chip": "ym2612"
    },
    {
      "channel": 3,
      "note": 76,
      "start": 52.139,
      "duration": 0.1981,
      "velocity": 88,
      "chip": "ym2612"
    },
    {
      "channel": 2,
      "note": 78,
      "start": 52.238,
      "duration": 0.2001,
      "velocity": 91,
      "chip": "ym2612"
    },
    {
      "channel": 5,
      "note": 44,
      "start": 52.2383,
      "duration": 3.178,
      "velocity": 127,
      "chip": "ym2612"
    },
    {
      "channel": 3,
      "note": 68,
      "start": 52.3373,
      "duration": 0.1985,
      "velocity": 88,
      "chip": "ym2612"
    },
    {
      "channel": 0,
      "note": 20,
      "start": 52.4379,
      "duration": 0.7945,
      "velocity": 105,
      "chip": "ym2612"
    },
    {
      "channel": 2,
      "note": 73,
      "start": 52.4382,
      "duration": 0.1969,
      "velocity": 91,
      "chip": "ym2612"
    },
    {
      "channel": 3,
      "note": 78,
      "start": 52.5359,
      "duration": 0.1985,
      "velocity": 88,
      "chip": "ym2612"
    },
    {
      "channel": 2,
      "note": 75,
      "start": 52.6352,
      "duration": 0.1985,
      "velocity": 91,
      "chip": "ym2612"
    },
    {
      "channel": 3,
      "note": 73,
      "start": 52.7345,
      "duration": 0.1985,
      "velocity": 88,
      "chip": "ym2612"
    },
    {
      "channel": 2,
      "note": 68,
      "start": 52.8338,
      "duration": 0.1985,
      "velocity": 91,
      "chip": "ym2612"
    },
    {
      "channel": 3,
      "note": 75,
      "start": 52.9332,
      "duration": 0.1985,
      "velocity": 88,
      "chip": "ym2612"
    },
    {
      "channel": 2,
      "note": 56,
      "start": 53.0325,
      "duration": 0.2019,
      "velocity": 91,
      "chip": "ym2612"
    },
    {
      "channel": 3,
      "note": 68,
      "start": 53.1318,
      "duration": 0.1985,
      "velocity": 88,
      "chip": "ym2612"
    },
    {
      "channel": 0,
      "note": 56,
      "start": 53.2325,
      "duration": 0.1972,
      "velocity": 105,
      "chip": "ym2612"
    },
    {
      "channel": 1,
      "note": 56,
      "start": 53.2342,
      "duration": 0.1959,
      "velocity": 105,
      "chip": "ym2612"
    },
    {
      "channel": 2,
      "note": 75,
      "start": 53.2346,
      "duration": 0.1959,
      "velocity": 91,
      "chip": "ym2612"
    },
    {
      "channel": 3,
      "note": 56,
      "start": 53.3305,
      "duration": 0.1985,
      "velocity": 88,
      "chip": "ym2612"
    },
    {
      "channel": 0,
      "note": 56,
      "start": 53.4298,
      "duration": 0.5974,
      "velocity": 108,
      "chip": "ym2612"
    },
    {
      "channel": 1,
      "note": 56,
      "start": 53.4303,
      "duration": 1.689,
      "velocity": 106,
      "chip": "ym2612"
    },
    {
      "channel": 2,
      "note": 76,
      "start": 53.4306,
      "duration": 0.1977,
      "velocity": 91,
      "chip": "ym2612"
    },
    {
      "channel": 3,
      "note": 75,
      "start": 53.5291,
      "duration": 0.1985,
      "velocity": 88,
      "chip": "ym2612"
    },
    {
      "channel": 2,
      "note": 68,
      "start": 53.6284,
      "duration": 0.1985,
      "velocity": 91,
      "chip": "ym2612"
    },
    {
      "channel": 3,
      "note": 76,
      "start": 53.7277,
      "duration": 0.1989,
      "velocity": 88,
      "chip": "ym2612"
    },
    {
      "channel": 2,
      "note": 78,
      "start": 53.827,
      "duration": 0.2005,
      "velocity": 91,
      "chip": "ym2612"
    },
    {
      "channel": 3,
      "note": 68,
      "start": 53.9267,
      "duration": 0.1981,
      "velocity": 88,
      "chip": "ym2612"
    },
    {
      "channel": 0,
      "note": 20,
      "start": 54.0273,
      "duration": 0.794,
      "velocity": 108,
      "chip": "ym2612"
    },
    {
      "channel": 2,
      "note": 73,
      "start": 54.0277,
      "duration": 0.1965,
      "velocity": 91,
      "chip": "ym2612"
    },
    {
      "channel": 3,
      "note": 78,
      "start": 54.1249,
      "duration": 0.1985,
      "velocity": 88,
      "chip": "ym2612"
    },
    {
      "channel": 2,
      "note": 75,
      "start": 54.2243,
      "duration": 0.1985,
      "velocity": 91,
      "chip": "ym2612"
    },
    {
      "channel": 3,
      "note": 73,
      "start": 54.3236,
      "duration": 0.1985,
      "velocity": 88,
      "chip": "ym2612"
    },
    {
      "channel": 2,
      "note": 68,
      "start": 54.4229,
      "duration": 0.1985,
      "velocity": 91,
      "chip": "ym2612"
    },
    {
      "channel": 3,
      "note": 75,
      "start": 54.5222,
      "duration": 0.1985,
      "velocity": 88,
      "chip": "ym2612"
    },
    {
      "channel": 2,
      "note": 56,
      "start": 54.6216,
      "duration": 0.2001,
      "velocity": 91,
      "chip": "ym2612"
    },
    {
      "channel": 3,
      "note": 68,
      "start": 54.7209,
      "duration": 0.1985,
      "velocity": 88,
      "chip": "ym2612"
    },
    {
      "channel": 0,
      "note": 44,
      "start": 54.8215,
      "duration": 0.1971,
      "velocity": 108,
      "chip": "ym2612"
    },
    {
      "channel": 2,
      "note": 75,
      "start": 54.8218,
      "duration": 0.1972,
      "velocity": 91,
      "chip": "ym2612"
    },
    {
      "channel": 3,
      "note": 56,
      "start": 54.9195,
      "duration": 0.2002,
      "velocity": 88,
      "chip": "ym2612"
    },
    {
      "channel": 0,
      "note": 44,
      "start": 55.0188,
      "duration": 0.5971,
      "velocity": 108,
      "chip": "ym2612"
    },
    {
      "channel": 2,
      "note": 76,
      "start": 55.0191,
      "duration": 0.1982,
      "velocity": 91,
      "chip": "ym2612"
    },
    {
      "channel": 1,
      "note": 44,
      "start": 55.1194,
      "duration": 0.1972,
      "velocity": 106,
      "chip": "ym2612"
    },
    {
      "channel": 3,
      "note": 75,
      "start": 55.1198,
      "duration": 0.1972,
      "velocity": 88,
      "chip": "ym2612"
    },
    {
      "channel": 2,
      "note": 68,
      "start": 55.2174,
      "duration": 0.1985,
      "velocity": 91,
      "chip": "ym2612"
    },
    {
      "channel": 4,
      "note": 44,
      "start": 55.2178,
      "duration": 3.178,
      "velocity": 127,
      "chip": "ym2612"
    },
    {
      "channel": 1,
      "note": 44,
      "start": 55.3167,
      "duration": 1.0959,
      "velocity": 105,
      "chip": "ym2612"
    },
    {
      "channel": 3,
      "note": 76,
      "start": 55.3171,
      "duration": 0.1981,
      "velocity": 88,
      "chip": "ym2612"
    },
    {
      "channel": 2,
      "note": 78,
      "start": 55.4161,
      "duration": 0.2001,
      "velocity": 91,
      "chip": "ym2612"
    },
    {
      "channel": 5,
      "note": 44,
      "start": 55.4164,
      "duration": 3.1779,
      "velocity": 127,
      "chip": "ym2612"
    },
    {
      "channel": 3,
      "note": 68,
      "start": 55.5154,
      "duration": 0.1985,
      "velocity": 88,
      "chip": "ym2612"
    },
    {
      "channel": 0,
      "note": 20,
      "start": 55.616,
      "duration": 0.7949,
      "velocity": 105,
      "chip": "ym2612"
    },
    {
      "channel": 2,
      "note": 73,
      "start": 55.6163,
      "duration": 0.1968,
      "velocity": 91,
      "chip": "ym2612"
    },
    {
      "channel": 3,
      "note": 78,
      "start": 55.714,
      "duration": 0.1985,
      "velocity": 88,
      "chip": "ym2612"
    },
    {
      "channel": 2,
      "note": 75,
      "start": 55.8133,
      "duration": 0.1985,
      "velocity": 91,
      "chip": "ym2612"
    },
    {
      "channel": 3,
      "note": 73,
      "start": 55.9127,
      "duration": 0.1985,
      "velocity": 88,
      "chip": "ym2612"
    },
    {
      "channel": 2,
      "note": 68,
      "start": 56.012,
      "duration": 0.1985,
      "velocity": 91,
      "chip": "ym2612"
    },
    {
      "channel": 3,
      "note": 75,
      "start": 56.1112,
      "duration": 0.1987,
      "velocity": 88,
      "chip": "ym2612"
    },
    {
      "channel": 2,
      "note": 56,
      "start": 56.2106,
      "duration": 0.2023,
      "velocity": 91,
      "chip": "ym2612"
    },
    {
      "channel": 3,
      "note": 68,
      "start": 56.31,
      "duration": 0.1983,
      "velocity": 88,
      "chip": "ym2612"
    },
    {
      "channel": 0,
      "note": 56,
      "start": 56.411,
      "duration": 0.1968,
      "velocity": 105,
      "chip": "ym2612"
    },
    {
      "channel": 1,
      "note": 56,
      "start": 56.4127,
      "duration": 0.1955,
      "velocity": 105,
      "chip": "ym2612"
    },
    {
      "channel": 2,
      "note": 75,
      "start": 56.413,
      "duration": 0.1955,
      "velocity": 91,
      "chip": "ym2612"
    },
    {
      "channel": 3,
      "note": 56,
      "start": 56.5085,
      "duration": 0.1985,
      "velocity": 88,
      "chip": "ym2612"
    },
    {
      "channel": 0,
      "note": 56,
      "start": 56.608,
      "duration": 0.5969,
      "velocity": 108,
      "chip": "ym2612"
    },
    {
      "channel": 1,
      "note": 56,
      "start": 56.6083,
      "duration": 1.6891,
      "velocity": 106,
      "chip": "ym2612"
    },
    {
      "channel": 2,
      "note": 76,
      "start": 56.6086,
      "duration": 0.1977,
      "velocity": 91,
      "chip": "ym2612"
    },
    {
      "channel": 3,
      "note": 75,
      "start": 56.7071,
      "duration": 0.1985,
      "velocity": 88,
      "chip": "ym2612"
    },
    {
      "channel": 2,
      "note": 68,
      "start": 56.8065,
      "duration": 0.1985,
      "velocity": 91,
      "chip": "ym2612"
    },
    {
      "channel": 3,
      "note": 76,
      "start": 56.9058,
      "duration": 0.1985,
      "velocity": 88,
      "chip": "ym2612"
    },
    {
      "channel": 2,
      "note": 78,
      "start": 57.0051,
      "duration": 0.2001,
      "velocity": 91,
      "chip": "ym2612"
    },
    {
      "channel": 3,
      "note": 68,
      "start": 57.1044,
      "duration": 0.1985,
      "velocity": 88,
      "chip": "ym2612"
    },
    {
      "channel": 0,
      "note": 20,
      "start": 57.205,
      "duration": 0.7944,
      "velocity": 108,
      "chip": "ym2612"
    },
    {
      "channel": 2,
      "note": 73,
      "start": 57.2054,
      "duration": 0.1969,
      "velocity": 91,
      "chip": "ym2612"
    },
    {
      "channel": 3,
      "note": 78,
      "start": 57.3031,
      "duration": 0.1985,
      "velocity": 88,
      "chip": "ym2612"
    },
    {
      "channel": 2,
      "note": 75,
      "start": 57.4024,
      "duration": 0.1985,
      "velocity": 91,
      "chip": "ym2612"
    },
    {
      "channel": 3,
      "note": 73,
      "start": 57.5017,
      "duration": 0.1985,
      "velocity": 88,
      "chip": "ym2612"
    },
    {
      "channel": 2,
      "note": 68,
      "start": 57.601,
      "duration": 0.1985,
      "velocity": 91,
      "chip": "ym2612"
    },
    {
      "channel": 3,
      "note": 75,
      "start": 57.7003,
      "duration": 0.1985,
      "velocity": 88,
      "chip": "ym2612"
    },
    {
      "channel": 2,
      "note": 56,
      "start": 57.7996,
      "duration": 0.2001,
      "velocity": 91,
      "chip": "ym2612"
    },
    {
      "channel": 3,
      "note": 68,
      "start": 57.8989,
      "duration": 0.1985,
      "velocity": 88,
      "chip": "ym2612"
    },
    {
      "channel": 0,
      "note": 44,
      "start": 57.9995,
      "duration": 0.1972,
      "velocity": 108,
      "chip": "ym2612"
    },
    {
      "channel": 2,
      "note": 75,
      "start": 57.9999,
      "duration": 0.1972,
      "velocity": 91,
      "chip": "ym2612"
    },
    {
      "channel": 3,
      "note": 56,
      "start": 58.0976,
      "duration": 0.2001,
      "velocity": 88,
      "chip": "ym2612"
    },
    {
      "channel": 0,
      "note": 44,
      "start": 58.1969,
      "duration": 0.5975,
      "velocity": 108,
      "chip": "ym2612"
    },
    {
      "channel": 2,
      "note": 76,
      "start": 58.1972,
      "duration": 0.1981,
      "velocity": 91,
      "chip": "ym2612"
    },
    {
      "channel": 1,
      "note": 44,
      "start": 58.2975,
      "duration": 0.1972,
      "velocity": 106,
      "chip": "ym2612"
    },
    {
      "channel": 3,
      "note": 75,
      "start": 58.2978,
      "duration": 0.1972,
      "velocity": 88,
      "chip": "ym2612"
    },
    {
      "channel": 2,
      "note": 68,
      "start": 58.3956,
      "duration": 0.1985,
      "velocity": 91,
      "chip": "ym2612"
    },
    {
      "channel": 4,
      "note": 44,
      "start": 58.3959,
      "duration": 3.1779,
      "velocity": 127,
      "chip": "ym2612"
    },
    {
      "channel": 1,
      "note": 44,
      "start": 58.4949,
      "duration": 1.0954,
      "velocity": 105,
      "chip": "ym2612"
    },
    {
      "channel": 3,
      "note": 76,
      "start": 58.4952,
      "duration": 0.1981,
      "velocity": 88,
      "chip": "ym2612"
    },
    {
      "channel": 2,
      "note": 78,
      "start": 58.5941,
      "duration": 0.2006,
      "velocity": 91,
      "chip": "ym2612"
    },
    {
      "channel": 5,
      "note": 44,
      "start": 58.5945,
      "duration": 3.178,
      "velocity": 127,
      "chip": "ym2612"
    },
    {
      "channel": 3,
      "note": 68,
      "start": 58.6934,
      "duration": 0.1985,
      "velocity": 88,
      "chip": "ym2612"
    },
    {
      "channel": 0,
      "note": 20,
      "start": 58.7945,
      "duration": 0.7941,
      "velocity": 105,
      "chip": "ym2612"
    },
    {
      "channel": 2,
      "note": 73,
      "start": 58.7949,
      "duration": 0.1964,
      "velocity": 91,
      "chip": "ym2612"
    },
    {
      "channel": 3,
      "note": 78,
      "start": 58.8921,
      "duration": 0.1985,
      "velocity": 88,
      "chip": "ym2612"
    },
    {
      "channel": 2,
      "note": 75,
      "start": 58.9914,
      "duration": 0.1985,
      "velocity": 91,
      "chip": "ym2612"
    },
    {
      "channel": 3,
      "note": 73,
      "start": 59.0907,
      "duration": 0.1985,
      "velocity": 88,
      "chip": "ym2612"
    },
    {
      "channel": 2,
      "note": 68,
      "start": 59.19,
      "duration": 0.1985,
      "velocity": 91,
      "chip": "ym2612"
    },
    {
      "channel": 3,
      "note": 75,
      "start": 59.2894,
      "duration": 0.1985,
      "velocity": 88,
      "chip": "ym2612"
    },
    {
      "channel": 2,
      "note": 56,
      "start": 59.3887,
      "duration": 0.2019,
      "velocity": 91,
      "chip": "ym2612"
    },
    {
      "channel": 3,
      "note": 68,
      "start": 59.488,
      "duration": 0.1985,
      "velocity": 88,
      "chip": "ym2612"
    },
    {
      "channel": 0,
      "note": 56,
      "start": 59.5887,
      "duration": 0.1972,
      "velocity": 105,
      "chip": "ym2612"
    },
    {
      "channel": 1,
      "note": 56,
      "start": 59.5904,
      "duration": 0.1959,
      "velocity": 105,
      "chip": "ym2612"
    },
    {
      "channel": 2,
      "note": 75,
      "start": 59.5907,
      "duration": 0.1959,
      "velocity": 91,
      "chip": "ym2612"
    },
    {
      "channel": 3,
      "note": 56,
      "start": 59.6866,
      "duration": 0.1985,
      "velocity": 88,
      "chip": "ym2612"
    },
    {
      "channel": 0,
      "note": 56,
      "start": 59.786,
      "duration": 0.597,
      "velocity": 108,
      "chip": "ym2612"
    },
    {
      "channel": 1,
      "note": 56,
      "start": 59.7864,
      "duration": 1.689,
      "velocity": 106,
      "chip": "ym2612"
    },
    {
      "channel": 2,
      "note": 76,
      "start": 59.7868,
      "duration": 0.1977,
      "velocity": 91,
      "chip": "ym2612"
    },
    {
      "channel": 3,
      "note": 75,
      "start": 59.8852,
      "duration": 0.1985,
      "velocity": 88,
      "chip": "ym2612"
    },
    {
      "channel": 2,
      "note": 68,
      "start": 59.9845,
      "duration": 0.1985,
      "velocity": 91,
      "chip": "ym2612"
    },
    {
      "channel": 3,
      "note": 76,
      "start": 60.0839,
      "duration": 0.1985,
      "velocity": 88,
      "chip": "ym2612"
    },
    {
      "channel": 2,
      "note": 78,
      "start": 60.1832,
      "duration": 0.2001,
      "velocity": 91,
      "chip": "ym2612"
    },
    {
      "channel": 3,
      "note": 68,
      "start": 60.2825,
      "duration": 0.1985,
      "velocity": 88,
      "chip": "ym2612"
    },
    {
      "channel": 0,
      "note": 20,
      "start": 60.3832,
      "duration": 0.7948,
      "velocity": 108,
      "chip": "ym2612"
    },
    {
      "channel": 2,
      "note": 73,
      "start": 60.3835,
      "duration": 0.1968,
      "velocity": 91,
      "chip": "ym2612"
    },
    {
      "channel": 3,
      "note": 78,
      "start": 60.4811,
      "duration": 0.1985,
      "velocity": 88,
      "chip": "ym2612"
    },
    {
      "channel": 2,
      "note": 75,
      "start": 60.5805,
      "duration": 0.1985,
      "velocity": 91,
      "chip": "ym2612"
    },
    {
      "channel": 3,
      "note": 73,
      "start": 60.6798,
      "duration": 0.1985,
      "velocity": 88,
      "chip": "ym2612"
    },
    {
      "channel": 2,
      "note": 68,
      "start": 60.7791,
      "duration": 0.1985,
      "velocity": 91,
      "chip": "ym2612"
    },
    {
      "channel": 3,
      "note": 75,
      "start": 60.8784,
      "duration": 0.1985,
      "velocity": 88,
      "chip": "ym2612"
    },
    {
      "channel": 2,
      "note": 56,
      "start": 60.9777,
      "duration": 0.2005,
      "velocity": 91,
      "chip": "ym2612"
    },
    {
      "channel": 3,
      "note": 68,
      "start": 61.077,
      "duration": 0.1985,
      "velocity": 88,
      "chip": "ym2612"
    },
    {
      "channel": 0,
      "note": 44,
      "start": 61.178,
      "duration": 0.1968,
      "velocity": 108,
      "chip": "ym2612"
    },
    {
      "channel": 2,
      "note": 75,
      "start": 61.1784,
      "duration": 0.1968,
      "velocity": 91,
      "chip": "ym2612"
    },
    {
      "channel": 3,
      "note": 56,
      "start": 61.2761,
      "duration": 0.2001,
      "velocity": 88,
      "chip": "ym2612"
    },
    {
      "channel": 0,
      "note": 44,
      "start": 61.3749,
      "duration": 0.5971,
      "velocity": 108,
      "chip": "ym2612"
    },
    {
      "channel": 2,
      "note": 76,
      "start": 61.3753,
      "duration": 0.1982,
      "velocity": 91,
      "chip": "ym2612"
    },
    {
      "channel": 1,
      "note": 44,
      "start": 61.4756,
      "duration": 0.1972,
      "velocity": 106,
      "chip": "ym2612"
    },
    {
      "channel": 3,
      "note": 75,
      "start": 61.4763,
      "duration": 0.1968,
      "velocity": 88,
      "chip": "ym2612"
    },
    {
      "channel": 2,
      "note": 68,
      "start": 61.5736,
      "duration": 0.1985,
      "velocity": 91,
      "chip": "ym2612"
    },
    {
      "channel": 4,
      "note": 44,
      "start": 61.5739,
      "duration": 12.7122,
      "velocity": 127,
      "chip": "ym2612"
    },
    {
      "channel": 1,
      "note": 44,
      "start": 61.6729,
      "duration": 1.0954,
      "velocity": 113,
      "chip": "ym2612"
    },
    {
      "channel": 3,
      "note": 76,
      "start": 61.6732,
      "duration": 0.1982,
      "velocity": 88,
      "chip": "ym2612"
    },
    {
      "channel": 2,
      "note": 78,
      "start": 61.7722,
      "duration": 0.2002,
      "velocity": 91,
      "chip": "ym2612"
    },
    {
      "channel": 5,
      "note": 44,
      "start": 61.7726,
      "duration": 12.7122,
      "velocity": 127,
      "chip": "ym2612"
    },
    {
      "channel": 3,
      "note": 68,
      "start": 61.8716,
      "duration": 0.1985,
      "velocity": 88,
      "chip": "ym2612"
    },
    {
      "channel": 0,
      "note": 20,
      "start": 61.9721,
      "duration": 0.7945,
      "velocity": 113,
      "chip": "ym2612"
    },
    {
      "channel": 2,
      "note": 73,
      "start": 61.9725,
      "duration": 0.1968,
      "velocity": 91,
      "chip": "ym2612"
    },
    {
      "channel": 3,
      "note": 78,
      "start": 62.0702,
      "duration": 0.1985,
      "velocity": 88,
      "chip": "ym2612"
    },
    {
      "channel": 2,
      "note": 75,
      "start": 62.1695,
      "duration": 0.1985,
      "velocity": 91,
      "chip": "ym2612"
    },
    {
      "channel": 3,
      "note": 73,
      "start": 62.2688,
      "duration": 0.1985,
      "velocity": 88,
      "chip": "ym2612"
    },
    {
      "channel": 2,
      "note": 68,
      "start": 62.3681,
      "duration": 0.1985,
      "velocity": 91,
      "chip": "ym2612"
    },
    {
      "channel": 3,
      "note": 75,
      "start": 62.4674,
      "duration": 0.1985,
      "velocity": 88,
      "chip": "ym2612"
    },
    {
      "channel": 2,
      "note": 56,
      "start": 62.5667,
      "duration": 0.202,
      "velocity": 91,
      "chip": "ym2612"
    },
    {
      "channel": 3,
      "note": 68,
      "start": 62.666,
      "duration": 0.1985,
      "velocity": 88,
      "chip": "ym2612"
    },
    {
      "channel": 0,
      "note": 44,
      "start": 62.7667,
      "duration": 3.1767,
      "velocity": 113,
      "chip": "ym2612"
    },
    {
      "channel": 1,
      "note": 44,
      "start": 62.7684,
      "duration": 3.1754,
      "velocity": 113,
      "chip": "ym2612"
    },
    {
      "channel": 2,
      "note": 75,
      "start": 62.7688,
      "duration": 0.1951,
      "velocity": 91,
      "chip": "ym2612"
    },
    {
      "channel": 3,
      "note": 56,
      "start": 62.8647,
      "duration": 0.1985,
      "velocity": 88,
      "chip": "ym2612"
    },
    {
      "channel": 2,
      "note": 76,
      "start": 62.964,
      "duration": 0.1985,
      "velocity": 91,
      "chip": "ym2612"
    },
    {
      "channel": 3,
      "note": 75,
      "start": 63.0633,
      "duration": 0.1985,
      "velocity": 88,
      "chip": "ym2612"
    },
    {
      "channel": 2,
      "note": 68,
      "start": 63.1627,
      "duration": 0.1985,
      "velocity": 91,
      "chip": "ym2612"
    },
    {
      "channel": 3,
      "note": 76,
      "start": 63.262,
      "duration": 0.1985,
      "velocity": 88,
      "chip": "ym2612"
    },
    {
      "channel": 2,
      "note": 78,
      "start": 63.3612,
      "duration": 0.1987,
      "velocity": 91,
      "chip": "ym2612"
    },
    {
      "channel": 3,
      "note": 68,
      "start": 63.4606,
      "duration": 0.1989,
      "velocity": 88,
      "chip": "ym2612"
    },
    {
      "channel": 2,
      "note": 73,
      "start": 63.56,
      "duration": 0.1983,
      "velocity": 91,
      "chip": "ym2612"
    },
    {
      "channel": 3,
      "note": 78,
      "start": 63.6596,
      "duration": 0.1981,
      "velocity": 88,
      "chip": "ym2612"
    },
    {
      "channel": 2,
      "note": 75,
      "start": 63.7585,
      "duration": 0.1985,
      "velocity": 91,
      "chip": "ym2612"
    },
    {
      "channel": 3,
      "note": 73,
      "start": 63.8578,
      "duration": 0.1985,
      "velocity": 88,
      "chip": "ym2612"
    },
    {
      "channel": 2,
      "note": 68,
      "start": 63.9572,
      "duration": 0.1985,
      "velocity": 91,
      "chip": "ym2612"
    },
    {
      "channel": 3,
      "note": 75,
      "start": 64.0565,
      "duration": 0.1985,
      "velocity": 88,
      "chip": "ym2612"
    },
    {
      "channel": 2,
      "note": 56,
      "start": 64.1558,
      "duration": 0.1985,
      "velocity": 91,
      "chip": "ym2612"
    },
    {
      "channel": 3,
      "note": 68,
      "start": 64.2551,
      "duration": 0.1985,
      "velocity": 88,
      "chip": "ym2612"
    },
    {
      "channel": 2,
      "note": 75,
      "start": 64.3544,
      "duration": 0.1985,
      "velocity": 91,
      "chip": "ym2612"
    },
    {
      "channel": 3,
      "note": 56,
      "start": 64.4537,
      "duration": 0.1985,
      "velocity": 88,
      "chip": "ym2612"
    },
    {
      "channel": 2,
      "note": 76,
      "start": 64.5531,
      "duration": 0.1985,
      "velocity": 91,
      "chip": "ym2612"
    },
    {
      "channel": 3,
      "note": 75,
      "start": 64.6524,
      "duration": 0.1985,
      "velocity": 88,
      "chip": "ym2612"
    },
    {
      "channel": 2,
      "note": 68,
      "start": 64.7517,
      "duration": 0.1985,
      "velocity": 91,
      "chip": "ym2612"
    },
    {
      "channel": 3,
      "note": 76,
      "start": 64.851,
      "duration": 0.1985,
      "velocity": 88,
      "chip": "ym2612"
    },
    {
      "channel": 2,
      "note": 78,
      "start": 64.9503,
      "duration": 0.1985,
      "velocity": 91,
      "chip": "ym2612"
    },
    {
      "channel": 3,
      "note": 68,
      "start": 65.0496,
      "duration": 0.1985,
      "velocity": 88,
      "chip": "ym2612"
    },
    {
      "channel": 2,
      "note": 73,
      "start": 65.1489,
      "duration": 0.1985,
      "velocity": 91,
      "chip": "ym2612"
    },
    {
      "channel": 3,
      "note": 78,
      "start": 65.2482,
      "duration": 0.1985,
      "velocity": 88,
      "chip": "ym2612"
    },
    {
      "channel": 2,
      "note": 75,
      "start": 65.3476,
      "duration": 0.1985,
      "velocity": 91,
      "chip": "ym2612"
    },
    {
      "channel": 3,
      "note": 73,
      "start": 65.4469,
      "duration": 0.1985,
      "velocity": 88,
      "chip": "ym2612"
    },
    {
      "channel": 2,
      "note": 68,
      "start": 65.5462,
      "duration": 0.1985,
      "velocity": 91,
      "chip": "ym2612"
    },
    {
      "channel": 3,
      "note": 75,
      "start": 65.6456,
      "duration": 0.1985,
      "velocity": 88,
      "chip": "ym2612"
    },
    {
      "channel": 2,
      "note": 56,
      "start": 65.7449,
      "duration": 0.1994,
      "velocity": 91,
      "chip": "ym2612"
    },
    {
      "channel": 3,
      "note": 68,
      "start": 65.8441,
      "duration": 0.1989,
      "velocity": 88,
      "chip": "ym2612"
    },
    {
      "channel": 0,
      "note": 44,
      "start": 65.9436,
      "duration": 3.1779,
      "velocity": 113,
      "chip": "ym2612"
    },
    {
      "channel": 1,
      "note": 44,
      "start": 65.9439,
      "duration": 3.178,
      "velocity": 113,
      "chip": "ym2612"
    },
    {
      "channel": 2,
      "note": 75,
      "start": 65.9443,
      "duration": 0.1976,
      "velocity": 91,
      "chip": "ym2612"
    },
    {
      "channel": 3,
      "note": 56,
      "start": 66.0432,
      "duration": 0.1981,
      "velocity": 88,
      "chip": "ym2612"
    },
    {
      "channel": 2,
      "note": 76,
      "start": 66.1421,
      "duration": 0.1985,
      "velocity": 91,
      "chip": "ym2612"
    },
    {
      "channel": 3,
      "note": 75,
      "start": 66.2414,
      "duration": 0.1985,
      "velocity": 88,
      "chip": "ym2612"
    },
    {
      "channel": 2,
      "note": 68,
      "start": 66.3407,
      "duration": 0.1985,
      "velocity": 91,
      "chip": "ym2612"
    },
    {
      "channel": 3,
      "note": 76,
      "start": 66.44,
      "duration": 0.1985,
      "velocity": 88,
      "chip": "ym2612"
    },
    {
      "channel": 2,
      "note": 78,
      "start": 66.5393,
      "duration": 0.1985,
      "velocity": 91,
      "chip": "ym2612"
    },
    {
      "channel": 3,
      "note": 68,
      "start": 66.6387,
      "duration": 0.1985,
      "velocity": 88,
      "chip": "ym2612"
    },
    {
      "channel": 2,
      "note": 73,
      "start": 66.738,
      "duration": 0.1985,
      "velocity": 91,
      "chip": "ym2612"
    },
    {
      "channel": 3,
      "note": 78,
      "start": 66.8373,
      "duration": 0.1985,
      "velocity": 88,
      "chip": "ym2612"
    },
    {
      "channel": 2,
      "note": 75,
      "start": 66.9366,
      "duration": 0.1985,
      "velocity": 91,
      "chip": "ym2612"
    },
    {
      "channel": 3,
      "note": 73,
      "start": 67.0359,
      "duration": 0.1985,
      "velocity": 88,
      "chip": "ym2612"
    },
    {
      "channel": 2,
      "note": 68,
      "start": 67.1352,
      "duration": 0.1985,
      "velocity": 91,
      "chip": "ym2612"
    },
    {
      "channel": 3,
      "note": 75,
      "start": 67.2345,
      "duration": 0.1985,
      "velocity": 88,
      "chip": "ym2612"
    },
    {
      "channel": 2,
      "note": 56,
      "start": 67.3338,
      "duration": 0.1985,
      "velocity": 91,
      "chip": "ym2612"
    },
    {
      "channel": 3,
      "note": 68,
      "start": 67.4332,
      "duration": 0.1985,
      "velocity": 88,
      "chip": "ym2612"
    },
    {
      "channel": 2,
      "note": 75,
      "start": 67.5325,
      "duration": 0.1985,
      "velocity": 91,
      "chip": "ym2612"
    },
    {
      "channel": 3,
      "note": 56,
      "start": 67.6318,
      "duration": 0.1985,
      "velocity": 88,
      "chip": "ym2612"
    },
    {
      "channel": 2,
      "note": 76,
      "start": 67.7311,
      "duration": 0.1985,
      "velocity": 91,
      "chip": "ym2612"
    },
    {
      "channel": 3,
      "note": 75,
      "start": 67.8305,
      "duration": 0.1985,
      "velocity": 88,
      "chip": "ym2612"
    },
    {
      "channel": 2,
      "note": 68,
      "start": 67.9298,
      "duration": 0.1985,
      "velocity": 91,
      "chip": "ym2612"
    },
    {
      "channel": 3,
      "note": 76,
      "start": 68.0291,
      "duration": 0.1985,
      "velocity": 88,
      "chip": "ym2612"
    },
    {
      "channel": 2,
      "note": 78,
      "start": 68.1284,
      "duration": 0.1985,
      "velocity": 91,
      "chip": "ym2612"
    },
    {
      "channel": 3,
      "note": 68,
      "start": 68.2277,
      "duration": 0.1989,
      "velocity": 88,
      "chip": "ym2612"
    },
    {
      "channel": 2,
      "note": 73,
      "start": 68.327,
      "duration": 0.1985,
      "velocity": 91,
      "chip": "ym2612"
    },
    {
      "channel": 3,
      "note": 78,
      "start": 68.4267,
      "duration": 0.1981,
      "velocity": 88,
      "chip": "ym2612"
    },
    {
      "channel": 2,
      "note": 75,
      "start": 68.5261,
      "duration": 0.198,
      "velocity": 91,
      "chip": "ym2612"
    },
    {
      "channel": 3,
      "note": 73,
      "start": 68.6249,
      "duration": 0.1985,
      "velocity": 88,
      "chip": "ym2612"
    },
    {
      "channel": 2,
      "note": 68,
      "start": 68.7243,
      "duration": 0.1985,
      "velocity": 91,
      "chip": "ym2612"
    },
    {
      "channel": 3,
      "note": 75,
      "start": 68.8236,
      "duration": 0.1985,
      "velocity": 88,
      "chip": "ym2612"
    },
    {
      "channel": 2,
      "note": 56,
      "start": 68.9229,
      "duration": 0.1994,
      "velocity": 91,
      "chip": "ym2612"
    },
    {
      "channel": 3,
      "note": 68,
      "start": 69.0222,
      "duration": 0.1985,
      "velocity": 88,
      "chip": "ym2612"
    },
    {
      "channel": 0,
      "note": 44,
      "start": 69.1216,
      "duration": 3.1779,
      "velocity": 113,
      "chip": "ym2612"
    },
    {
      "channel": 1,
      "note": 44,
      "start": 69.1221,
      "duration": 3.1779,
      "velocity": 113,
      "chip": "ym2612"
    },
    {
      "channel": 2,
      "note": 75,
      "start": 69.1224,
      "duration": 0.1977,
      "velocity": 91,
      "chip": "ym2612"
    },
    {
      "channel": 3,
      "note": 56,
      "start": 69.2209,
      "duration": 0.1985,
      "velocity": 88,
      "chip": "ym2612"
    },
    {
      "channel": 2,
      "note": 76,
      "start": 69.3202,
      "duration": 0.1985,
      "velocity": 91,
      "chip": "ym2612"
    },
    {
      "channel": 3,
      "note": 75,
      "start": 69.4195,
      "duration": 0.1985,
      "velocity": 88,
      "chip": "ym2612"
    },
    {
      "channel": 2,
      "note": 68,
      "start": 69.5188,
      "duration": 0.1985,
      "velocity": 91,
      "chip": "ym2612"
    },
    {
      "channel": 3,
      "note": 76,
      "start": 69.6181,
      "duration": 0.1985,
      "velocity": 88,
      "chip": "ym2612"
    },
    {
      "channel": 2,
      "note": 78,
      "start": 69.7174,
      "duration": 0.1985,
      "velocity": 91,
      "chip": "ym2612"
    },
    {
      "channel": 3,
      "note": 68,
      "start": 69.8167,
      "duration": 0.1985,
      "velocity": 88,
      "chip": "ym2612"
    },
    {
      "channel": 2,
      "note": 73,
      "start": 69.9161,
      "duration": 0.1985,
      "velocity": 91,
      "chip": "ym2612"
    },
    {
      "channel": 3,
      "note": 78,
      "start": 70.0154,
      "duration": 0.1985,
      "velocity": 88,
      "chip": "ym2612"
    },
    {
      "channel": 2,
      "note": 75,
      "start": 70.1147,
      "duration": 0.1985,
      "velocity": 91,
      "chip": "ym2612"
    },
    {
      "channel": 3,
      "note": 73,
      "start": 70.214,
      "duration": 0.1985,
      "velocity": 88,
      "chip": "ym2612"
    },
    {
      "channel": 2,
      "note": 68,
      "start": 70.3133,
      "duration": 0.1985,
      "velocity": 91,
      "chip": "ym2612"
    },
    {
      "channel": 3,
      "note": 75,
      "start": 70.4127,
      "duration": 0.1985,
      "velocity": 88,
      "chip": "ym2612"
    },
    {
      "channel": 2,
      "note": 56,
      "start": 70.512,
      "duration": 0.1985,
      "velocity": 91,
      "chip": "ym2612"
    },
    {
      "channel": 3,
      "note": 68,
      "start": 70.6112,
      "duration": 0.1987,
      "velocity": 88,
      "chip": "ym2612"
    },
    {
      "channel": 2,
      "note": 75,
      "start": 70.7106,
      "duration": 0.1989,
      "velocity": 91,
      "chip": "ym2612"
    },
    {
      "channel": 3,
      "note": 56,
      "start": 70.81,
      "duration": 0.1983,
      "velocity": 88,
      "chip": "ym2612"
    },
    {
      "channel": 2,
      "note": 76,
      "start": 70.9096,
      "duration": 0.1981,
      "velocity": 91,
      "chip": "ym2612"
    },
    {
      "channel": 3,
      "note": 75,
      "start": 71.0085,
      "duration": 0.1985,
      "velocity": 88,
      "chip": "ym2612"
    },
    {
      "channel": 2,
      "note": 68,
      "start": 71.1078,
      "duration": 0.1985,
      "velocity": 91,
      "chip": "ym2612"
    },
    {
      "channel": 3,
      "note": 76,
      "start": 71.2072,
      "duration": 0.1985,
      "velocity": 88,
      "chip": "ym2612"
    },
    {
      "channel": 2,
      "note": 78,
      "start": 71.3065,
      "duration": 0.1985,
      "velocity": 91,
      "chip": "ym2612"
    },
    {
      "channel": 3,
      "note": 68,
      "start": 71.4058,
      "duration": 0.1985,
      "velocity": 88,
      "chip": "ym2612"
    },
    {
      "channel": 2,
      "note": 73,
      "start": 71.5051,
      "duration": 0.1985,
      "velocity": 91,
      "chip": "ym2612"
    },
    {
      "channel": 3,
      "note": 78,
      "start": 71.6044,
      "duration": 0.1985,
      "velocity": 88,
      "chip": "ym2612"
    },
    {
      "channel": 2,
      "note": 75,
      "start": 71.7037,
      "duration": 0.1985,
      "velocity": 91,
      "chip": "ym2612"
    },
    {
      "channel": 3,
      "note": 73,
      "start": 71.8031,
      "duration": 0.1985,
      "velocity": 88,
      "chip": "ym2612"
    },
    {
      "channel": 2,
      "note": 68,
      "start": 71.9024,
      "duration": 0.1985,
      "velocity": 91,
      "chip": "ym2612"
    },
    {
      "channel": 3,
      "note": 75,
      "start": 72.0017,
      "duration": 0.1985,
      "velocity": 88,
      "chip": "ym2612"
    },
    {
      "channel": 2,
      "note": 56,
      "start": 72.101,
      "duration": 0.1993,
      "velocity": 91,
      "chip": "ym2612"
    },
    {
      "channel": 3,
      "note": 68,
      "start": 72.2003,
      "duration": 0.1985,
      "velocity": 88,
      "chip": "ym2612"
    },
    {
      "channel": 0,
      "note": 44,
      "start": 72.2998,
      "duration": 15.8915,
      "velocity": 105,
      "chip": "ym2612"
    },
    {
      "channel": 1,
      "note": 44,
      "start": 72.3001,
      "duration": 15.8913,
      "velocity": 113,
      "chip": "ym2612"
    },
    {
      "channel": 2,
      "note": 75,
      "start": 72.3005,
      "duration": 0.1976,
      "velocity": 91,
      "chip": "ym2612"
    },
    {
      "channel": 3,
      "note": 56,
      "start": 72.399,
      "duration": 0.1984,
      "velocity": 88,
      "chip": "ym2612"
    },
    {
      "channel": 2,
      "note": 76,
      "start": 72.4983,
      "duration": 0.1985,
      "velocity": 91,
      "chip": "ym2612"
    },
    {
      "channel": 3,
      "note": 75,
      "start": 72.5976,
      "duration": 0.1985,
      "velocity": 88,
      "chip": "ym2612"
    },
    {
      "channel": 2,
      "note": 68,
      "start": 72.6969,
      "duration": 0.1985,
      "velocity": 91,
      "chip": "ym2612"
    },
    {
      "channel": 3,
      "note": 76,
      "start": 72.7962,
      "duration": 0.1985,
      "velocity": 88,
      "chip": "ym2612"
    },
    {
      "channel": 2,
      "note": 78,
      "start": 72.8955,
      "duration": 0.1985,
      "velocity": 91,
      "chip": "ym2612"
    },
    {
      "channel": 3,
      "note": 68,
      "start": 72.9949,
      "duration": 0.1985,
      "velocity": 88,
      "chip": "ym2612"
    },
    {
      "channel": 2,
      "note": 73,
      "start": 73.0941,
      "duration": 0.1989,
      "velocity": 91,
      "chip": "ym2612"
    },
    {
      "channel": 3,
      "note": 78,
      "start": 73.1934,
      "duration": 0.1985,
      "velocity": 88,
      "chip": "ym2612"
    },
    {
      "channel": 2,
      "note": 75,
      "start": 73.2932,
      "duration": 0.1981,
      "velocity": 91,
      "chip": "ym2612"
    },
    {
      "channel": 3,
      "note": 73,
      "start": 73.3921,
      "duration": 0.1985,
      "velocity": 88,
      "chip": "ym2612"
    },
    {
      "channel": 2,
      "note": 68,
      "start": 73.4914,
      "duration": 0.1985,
      "velocity": 91,
      "chip": "ym2612"
    },
    {
      "channel": 3,
      "note": 75,
      "start": 73.5907,
      "duration": 0.1985,
      "velocity": 88,
      "chip": "ym2612"
    },
    {
      "channel": 2,
      "note": 56,
      "start": 73.69,
      "duration": 0.1985,
      "velocity": 91,
      "chip": "ym2612"
    },
    {
      "channel": 3,
      "note": 68,
      "start": 73.7894,
      "duration": 0.1985,
      "velocity": 88,
      "chip": "ym2612"
    },
    {
      "channel": 2,
      "note": 75,
      "start": 73.8887,
      "duration": 0.1985,
      "velocity": 91,
      "chip": "ym2612"
    },
    {
      "channel": 3,
      "note": 56,
      "start": 73.988,
      "duration": 0.1985,
      "velocity": 88,
      "chip": "ym2612"
    },
    {
      "channel": 2,
      "note": 76,
      "start": 74.0873,
      "duration": 0.1985,
      "velocity": 91,
      "chip": "ym2612"
    },
    {
      "channel": 3,
      "note": 75,
      "start": 74.1866,
      "duration": 0.1985,
      "velocity": 88,
      "chip": "ym2612"
    },
    {
      "channel": 2,
      "note": 68,
      "start": 74.2859,
      "duration": 0.1985,
      "velocity": 91,
      "chip": "ym2612"
    },
    {
      "channel": 4,
      "note": 44,
      "start": 74.2863,
      "duration": 12.7118,
      "velocity": 127,
      "chip": "ym2612"
    },
    {
      "channel": 3,
      "note": 76,
      "start": 74.3852,
      "duration": 0.1985,
      "velocity": 88,
      "chip": "ym2612"
    },
    {
      "channel": 2,
      "note": 78,
      "start": 74.4845,
      "duration": 0.1985,
      "velocity": 91,
      "chip": "ym2612"
    },
    {
      "channel": 5,
      "note": 44,
      "start": 74.4849,
      "duration": 12.7119,
      "velocity": 127,
      "chip": "ym2612"
    },
    {
      "channel": 3,
      "note": 68,
      "start": 74.5838,
      "duration": 0.1985,
      "velocity": 88,
      "chip": "ym2612"
    },
    {
      "channel": 2,
      "note": 73,
      "start": 74.6832,
      "duration": 0.1985,
      "velocity": 91,
      "chip": "ym2612"
    },
    {
      "channel": 3,
      "note": 78,
      "start": 74.7825,
      "duration": 0.1985,
      "velocity": 88,
      "chip": "ym2612"
    },
    {
      "channel": 2,
      "note": 75,
      "start": 74.8818,
      "duration": 0.1985,
      "velocity": 91,
      "chip": "ym2612"
    },
    {
      "channel": 3,
      "note": 73,
      "start": 74.9811,
      "duration": 0.1985,
      "velocity": 88,
      "chip": "ym2612"
    },
    {
      "channel": 2,
      "note": 68,
      "start": 75.0804,
      "duration": 0.1985,
      "velocity": 91,
      "chip": "ym2612"
    },
    {
      "channel": 3,
      "note": 75,
      "start": 75.1798,
      "duration": 0.1985,
      "velocity": 88,
      "chip": "ym2612"
    },
    {
      "channel": 2,
      "note": 56,
      "start": 75.2791,
      "duration": 0.9943,
      "velocity": 108,
      "chip": "ym2612"
    },
    {
      "channel": 3,
      "note": 68,
      "start": 75.3784,
      "duration": 1.9875,
      "velocity": 106,
      "chip": "ym2612"
    },
    {
      "channel": 2,
      "note": 20,
      "start": 76.2735,
      "duration": 0.7943,
      "velocity": 108,
      "chip": "ym2612"
    },
    {
      "channel": 2,
      "note": 44,
      "start": 77.068,
      "duration": 0.1972,
      "velocity": 108,
      "chip": "ym2612"
    },
    {
      "channel": 2,
      "note": 44,
      "start": 77.2654,
      "duration": 0.597,
      "velocity": 108,
      "chip": "ym2612"
    },
    {
      "channel": 3,
      "note": 44,
      "start": 77.366,
      "duration": 0.1972,
      "velocity": 106,
      "chip": "ym2612"
    },
    {
      "channel": 3,
      "note": 44,
      "start": 77.5633,
      "duration": 2.9798,
      "velocity": 106,
      "chip": "ym2612"
    },
    {
      "channel": 2,
      "note": 20,
      "start": 77.8625,
      "duration": 1.5876,
      "velocity": 108,
      "chip": "ym2612"
    },
    {
      "channel": 2,
      "note": 20,
      "start": 79.4503,
      "duration": 0.7957,
      "velocity": 108,
      "chip": "ym2612"
    },
    {
      "channel": 2,
      "note": 44,
      "start": 80.2461,
      "duration": 0.1972,
      "velocity": 108,
      "chip": "ym2612"
    },
    {
      "channel": 2,
      "note": 44,
      "start": 80.4434,
      "duration": 0.5971,
      "velocity": 108,
      "chip": "ym2612"
    },
    {
      "channel": 3,
      "note": 44,
      "start": 80.5432,
      "duration": 0.1981,
      "velocity": 106,
      "chip": "ym2612"
    },
    {
      "channel": 3,
      "note": 44,
      "start": 80.7414,
      "duration": 2.9793,
      "velocity": 106,
      "chip": "ym2612"
    },
    {
      "channel": 2,
      "note": 20,
      "start": 81.0407,
      "duration": 1.5876,
      "velocity": 108,
      "chip": "ym2612"
    },
    {
      "channel": 2,
      "note": 20,
      "start": 82.6284,
      "duration": 0.7957,
      "velocity": 108,
      "chip": "ym2612"
    },
    {
      "channel": 2,
      "note": 44,
      "start": 83.4242,
      "duration": 0.1972,
      "velocity": 108,
      "chip": "ym2612"
    },
    {
      "channel": 2,
      "note": 44,
      "start": 83.6216,
      "duration": 0.597,
      "velocity": 108,
      "chip": "ym2612"
    },
    {
      "channel": 3,
      "note": 44,
      "start": 83.7209,
      "duration": 0.1985,
      "velocity": 106,
      "chip": "ym2612"
    },
    {
      "channel": 3,
      "note": 44,
      "start": 83.9195,
      "duration": 2.9793,
      "velocity": 106,
      "chip": "ym2612"
    },
    {
      "channel": 2,
      "note": 20,
      "start": 84.2187,
      "duration": 1.5876,
      "velocity": 108,
      "chip": "ym2612"
    },
    {
      "channel": 2,
      "note": 20,
      "start": 85.8065,
      "duration": 0.7957,
      "velocity": 108,
      "chip": "ym2612"
    },
    {
      "channel": 2,
      "note": 44,
      "start": 86.6023,
      "duration": 0.1972,
      "velocity": 108,
      "chip": "ym2612"
    },
    {
      "channel": 2,
      "note": 44,
      "start": 86.7996,
      "duration": 0.5971,
      "velocity": 108,
      "chip": "ym2612"
    },
    {
      "channel": 3,
      "note": 44,
      "start": 86.8989,
      "duration": 0.1985,
      "velocity": 106,
      "chip": "ym2612"
    },
    {
      "channel": 4,
      "note": 44,
      "start": 86.9983,
      "duration": 1.1932,
      "velocity": 127,
      "chip": "ym2612"
    },
    {
      "channel": 3,
      "note": 44,
      "start": 87.0976,
      "duration": 1.0939,
      "velocity": 106,
      "chip": "ym2612"
    },
    {
      "channel": 5,
      "note": 44,
      "start": 87.1969,
      "duration": 0.9946,
      "velocity": 127,
      "chip": "ym2612"
    },
    {
      "channel": 2,
      "note": 20,
      "start": 87.3968,
      "duration": 0.7946,
      "velocity": 108,
      "chip": "ym2612"
    },
    {
      "channel": 0,
      "note": 56,
      "start": 88.1914,
      "duration": 0.0001,
      "velocity": 105,
      "chip": "ym2612"
    }
  ]
}