{
  "track_name": "06 - Fantasy Area",
  "duration_sec": 61.246,
  "sample_rate": 44100,
  "note_count": 973,
  "unique_pitches": 38,
  "pitch_range": 70,
  "avg_note_duration": 0.0898,
  "reconstruction_stats": {
    "notes_reconstructed": 973,
    "keyon_events": 973,
    "keyoff_events": 973,
    "orphan_keyons": 0,
    "unique_pitches": 38,
    "pitch_range": 70,
    "avg_duration_sec": 0.0898
  },
  "metadata": {
    "source": "K\\Kid Chameleon\\06 - Fantasy Area.vgz"
  },
  "notes": [
    {
      "channel": 0,
      "note": 45,
      "start": 0.0,
      "duration": 0.0198,
      "velocity": 116,
      "chip": "ym2612"
    },
    {
      "channel": 1,
      "note": 57,
      "start": 0.0049,
      "duration": 0.1296,
      "velocity": 105,
      "chip": "ym2612"
    },
    {
      "channel": 2,
      "note": 90,
      "start": 0.2215,
      "duration": 0.0635,
      "velocity": 87,
      "chip": "ym2612"
    },
    {
      "channel": 3,
      "note": 73,
      "start": 0.4557,
      "duration": 0.0456,
      "velocity": 127,
      "chip": "ym2612"
    },
    {
      "channel": 1,
      "note": 57,
      "start": 0.4584,
      "duration": 0.2595,
      "velocity": 105,
      "chip": "ym2612"
    },
    {
      "channel": 2,
      "note": 90,
      "start": 0.4622,
      "duration": 0.0728,
      "velocity": 87,
      "chip": "ym2612"
    },
    {
      "channel": 0,
      "note": 45,
      "start": 0.822,
      "duration": 0.0127,
      "velocity": 116,
      "chip": "ym2612"
    },
    {
      "channel": 1,
      "note": 59,
      "start": 0.8242,
      "duration": 0.077,
      "velocity": 105,
      "chip": "ym2612"
    },
    {
      "channel": 2,
      "note": 90,
      "start": 0.8268,
      "duration": 0.0084,
      "velocity": 87,
      "chip": "ym2612"
    },
    {
      "channel": 0,
      "note": 45,
      "start": 1.0555,
      "duration": 0.0291,
      "velocity": 116,
      "chip": "ym2612"
    },
    {
      "channel": 2,
      "note": 90,
      "start": 1.0579,
      "duration": 0.0271,
      "velocity": 87,
      "chip": "ym2612"
    },
    {
      "channel": 0,
      "note": 45,
      "start": 1.1888,
      "duration": 0.0125,
      "velocity": 116,
      "chip": "ym2612"
    },
    {
      "channel": 2,
      "note": 90,
      "start": 1.1913,
      "duration": 0.0105,
      "velocity": 87,
      "chip": "ym2612"
    },
    {
      "channel": 3,
      "note": 76,
      "start": 1.4215,
      "duration": 0.0632,
      "velocity": 127,
      "chip": "ym2612"
    },
    {
      "channel": 1,
      "note": 59,
      "start": 1.4242,
      "duration": 0.2771,
      "velocity": 105,
      "chip": "ym2612"
    },
    {
      "channel": 1,
      "note": 55,
      "start": 1.772,
      "duration": 0.0793,
      "velocity": 105,
      "chip": "ym2612"
    },
    {
      "channel": 0,
      "note": 45,
      "start": 1.9051,
      "duration": 0.0128,
      "velocity": 116,
      "chip": "ym2612"
    },
    {
      "channel": 2,
      "note": 90,
      "start": 2.1383,
      "duration": 0.0134,
      "velocity": 87,
      "chip": "ym2612"
    },
    {
      "channel": 3,
      "note": 76,
      "start": 2.372,
      "duration": 0.046,
      "velocity": 127,
      "chip": "ym2612"
    },
    {
      "channel": 2,
      "note": 90,
      "start": 2.3749,
      "duration": 0.0267,
      "velocity": 87,
      "chip": "ym2612"
    },
    {
      "channel": 0,
      "note": 45,
      "start": 2.7395,
      "duration": 0.0118,
      "velocity": 116,
      "chip": "ym2612"
    },
    {
      "channel": 1,
      "note": 50,
      "start": 2.7416,
      "duration": 0.0763,
      "velocity": 105,
      "chip": "ym2612"
    },
    {
      "channel": 2,
      "note": 90,
      "start": 2.744,
      "duration": 0.0078,
      "velocity": 87,
      "chip": "ym2612"
    },
    {
      "channel": 1,
      "note": 55,
      "start": 2.8594,
      "duration": 0.0311,
      "velocity": 105,
      "chip": "ym2612"
    },
    {
      "channel": 0,
      "note": 45,
      "start": 2.908,
      "duration": 0.0056,
      "velocity": 116,
      "chip": "ym2612"
    },
    {
      "channel": 1,
      "note": 50,
      "start": 2.9097,
      "duration": 0.0328,
      "velocity": 105,
      "chip": "ym2612"
    },
    {
      "channel": 2,
      "note": 90,
      "start": 2.9117,
      "duration": 0.0022,
      "velocity": 87,
      "chip": "ym2612"
    },
    {
      "channel": 0,
      "note": 45,
      "start": 2.9628,
      "duration": 0.0288,
      "velocity": 116,
      "chip": "ym2612"
    },
    {
      "channel": 1,
      "note": 55,
      "start": 2.965,
      "duration": 0.1266,
      "velocity": 105,
      "chip": "ym2612"
    },
    {
      "channel": 2,
      "note": 90,
      "start": 2.968,
      "duration": 0.0242,
      "velocity": 87,
      "chip": "ym2612"
    },
    {
      "channel": 3,
      "note": 76,
      "start": 3.2124,
      "duration": 0.0126,
      "velocity": 127,
      "chip": "ym2612"
    },
    {
      "channel": 1,
      "note": 55,
      "start": 3.3298,
      "duration": 0.1785,
      "velocity": 105,
      "chip": "ym2612"
    },
    {
      "channel": 2,
      "note": 90,
      "start": 3.4466,
      "duration": 0.0118,
      "velocity": 87,
      "chip": "ym2612"
    },
    {
      "channel": 3,
      "note": 76,
      "start": 3.5623,
      "duration": 0.0127,
      "velocity": 127,
      "chip": "ym2612"
    },
    {
      "channel": 0,
      "note": 45,
      "start": 3.6796,
      "duration": 0.0287,
      "velocity": 116,
      "chip": "ym2612"
    },
    {
      "channel": 1,
      "note": 57,
      "start": 3.6818,
      "duration": 0.0765,
      "velocity": 105,
      "chip": "ym2612"
    },
    {
      "channel": 4,
      "note": 45,
      "start": 3.6845,
      "duration": 0.0742,
      "velocity": 92,
      "chip": "ym2612"
    },
    {
      "channel": 2,
      "note": 90,
      "start": 3.9298,
      "duration": 0.0122,
      "velocity": 87,
      "chip": "ym2612"
    },
    {
      "channel": 3,
      "note": 76,
      "start": 4.1626,
      "duration": 0.0624,
      "velocity": 127,
      "chip": "ym2612"
    },
    {
      "channel": 1,
      "note": 57,
      "start": 4.1651,
      "duration": 0.2431,
      "velocity": 105,
      "chip": "ym2612"
    },
    {
      "channel": 4,
      "note": 45,
      "start": 4.1676,
      "duration": 0.241,
      "velocity": 92,
      "chip": "ym2612"
    },
    {
      "channel": 2,
      "note": 90,
      "start": 4.1698,
      "duration": 0.0056,
      "velocity": 87,
      "chip": "ym2612"
    },
    {
      "channel": 0,
      "note": 45,
      "start": 4.5295,
      "duration": 0.0121,
      "velocity": 116,
      "chip": "ym2612"
    },
    {
      "channel": 1,
      "note": 59,
      "start": 4.5317,
      "duration": 0.0599,
      "velocity": 105,
      "chip": "ym2612"
    },
    {
      "channel": 4,
      "note": 47,
      "start": 4.5342,
      "duration": 0.0576,
      "velocity": 92,
      "chip": "ym2612"
    },
    {
      "channel": 2,
      "note": 90,
      "start": 4.5363,
      "duration": 0.0058,
      "velocity": 87,
      "chip": "ym2612"
    },
    {
      "channel": 0,
      "note": 45,
      "start": 4.6965,
      "duration": 0.005,
      "velocity": 116,
      "chip": "ym2612"
    },
    {
      "channel": 2,
      "note": 90,
      "start": 4.6987,
      "duration": 0.003,
      "velocity": 87,
      "chip": "ym2612"
    },
    {
      "channel": 0,
      "note": 45,
      "start": 4.7532,
      "duration": 0.0117,
      "velocity": 116,
      "chip": "ym2612"
    },
    {
      "channel": 2,
      "note": 90,
      "start": 4.7557,
      "duration": 0.0097,
      "velocity": 87,
      "chip": "ym2612"
    },
    {
      "channel": 3,
      "note": 76,
      "start": 5.0024,
      "duration": 0.0292,
      "velocity": 127,
      "chip": "ym2612"
    },
    {
      "channel": 1,
      "note": 59,
      "start": 5.005,
      "duration": 0.2599,
      "velocity": 105,
      "chip": "ym2612"
    },
    {
      "channel": 4,
      "note": 47,
      "start": 5.0075,
      "duration": 0.2576,
      "velocity": 92,
      "chip": "ym2612"
    },
    {
      "channel": 2,
      "note": 90,
      "start": 5.2363,
      "duration": 0.0124,
      "velocity": 87,
      "chip": "ym2612"
    },
    {
      "channel": 1,
      "note": 55,
      "start": 5.3527,
      "duration": 0.0789,
      "velocity": 105,
      "chip": "ym2612"
    },
    {
      "channel": 4,
      "note": 43,
      "start": 5.3552,
      "duration": 0.0765,
      "velocity": 92,
      "chip": "ym2612"
    },
    {
      "channel": 0,
      "note": 45,
      "start": 5.469,
      "duration": 0.0292,
      "velocity": 116,
      "chip": "ym2612"
    },
    {
      "channel": 2,
      "note": 90,
      "start": 5.7198,
      "duration": 0.0122,
      "velocity": 87,
      "chip": "ym2612"
    },
    {
      "channel": 3,
      "note": 76,
      "start": 5.9525,
      "duration": 0.0124,
      "velocity": 127,
      "chip": "ym2612"
    },
    {
      "channel": 2,
      "note": 90,
      "start": 5.9554,
      "duration": 0.01,
      "velocity": 87,
      "chip": "ym2612"
    },
    {
      "channel": 0,
      "note": 45,
      "start": 6.1865,
      "duration": 0.0284,
      "velocity": 116,
      "chip": "ym2612"
    },
    {
      "channel": 0,
      "note": 45,
      "start": 6.3194,
      "duration": 0.0121,
      "velocity": 116,
      "chip": "ym2612"
    },
    {
      "channel": 1,
      "note": 50,
      "start": 6.3216,
      "duration": 0.0932,
      "velocity": 105,
      "chip": "ym2612"
    },
    {
      "channel": 4,
      "note": 38,
      "start": 6.3242,
      "duration": 0.0911,
      "velocity": 92,
      "chip": "ym2612"
    },
    {
      "channel": 2,
      "note": 90,
      "start": 6.3263,
      "duration": 0.0058,
      "velocity": 87,
      "chip": "ym2612"
    },
    {
      "channel": 1,
      "note": 55,
      "start": 6.4389,
      "duration": 0.0389,
      "velocity": 105,
      "chip": "ym2612"
    },
    {
      "channel": 4,
      "note": 43,
      "start": 6.4408,
      "duration": 0.0375,
      "velocity": 92,
      "chip": "ym2612"
    },
    {
      "channel": 0,
      "note": 45,
      "start": 6.4881,
      "duration": 0.0081,
      "velocity": 116,
      "chip": "ym2612"
    },
    {
      "channel": 1,
      "note": 50,
      "start": 6.4899,
      "duration": 0.04,
      "velocity": 105,
      "chip": "ym2612"
    },
    {
      "channel": 4,
      "note": 38,
      "start": 6.4917,
      "duration": 0.0383,
      "velocity": 92,
      "chip": "ym2612"
    },
    {
      "channel": 2,
      "note": 90,
      "start": 6.4954,
      "duration": 0.001,
      "velocity": 87,
      "chip": "ym2612"
    },
    {
      "channel": 0,
      "note": 45,
      "start": 6.5414,
      "duration": 0.0122,
      "velocity": 116,
      "chip": "ym2612"
    },
    {
      "channel": 1,
      "note": 55,
      "start": 6.5434,
      "duration": 0.0936,
      "velocity": 105,
      "chip": "ym2612"
    },
    {
      "channel": 4,
      "note": 43,
      "start": 6.5456,
      "duration": 0.0918,
      "velocity": 92,
      "chip": "ym2612"
    },
    {
      "channel": 2,
      "note": 90,
      "start": 6.5477,
      "duration": 0.0064,
      "velocity": 87,
      "chip": "ym2612"
    },
    {
      "channel": 1,
      "note": 57,
      "start": 6.6578,
      "duration": 0.0958,
      "velocity": 105,
      "chip": "ym2612"
    },
    {
      "channel": 4,
      "note": 45,
      "start": 6.6601,
      "duration": 0.0938,
      "velocity": 92,
      "chip": "ym2612"
    },
    {
      "channel": 1,
      "note": 59,
      "start": 6.7778,
      "duration": 0.0406,
      "velocity": 105,
      "chip": "ym2612"
    },
    {
      "channel": 4,
      "note": 47,
      "start": 6.7802,
      "duration": 0.0383,
      "velocity": 92,
      "chip": "ym2612"
    },
    {
      "channel": 3,
      "note": 76,
      "start": 6.8341,
      "duration": 0.0085,
      "velocity": 127,
      "chip": "ym2612"
    },
    {
      "channel": 1,
      "note": 62,
      "start": 6.8386,
      "duration": 0.0368,
      "velocity": 105,
      "chip": "ym2612"
    },
    {
      "channel": 4,
      "note": 50,
      "start": 6.8415,
      "duration": 0.0343,
      "velocity": 92,
      "chip": "ym2612"
    },
    {
      "channel": 1,
      "note": 67,
      "start": 6.8892,
      "duration": 0.038,
      "velocity": 105,
      "chip": "ym2612"
    },
    {
      "channel": 4,
      "note": 55,
      "start": 6.892,
      "duration": 0.0355,
      "velocity": 92,
      "chip": "ym2612"
    },
    {
      "channel": 2,
      "note": 90,
      "start": 6.894,
      "duration": 0.0022,
      "velocity": 87,
      "chip": "ym2612"
    },
    {
      "channel": 3,
      "note": 76,
      "start": 6.9379,
      "duration": 0.0037,
      "velocity": 127,
      "chip": "ym2612"
    },
    {
      "channel": 0,
      "note": 45,
      "start": 6.9877,
      "duration": 0.0136,
      "velocity": 116,
      "chip": "ym2612"
    },
    {
      "channel": 1,
      "note": 57,
      "start": 6.9895,
      "duration": 0.071,
      "velocity": 105,
      "chip": "ym2612"
    },
    {
      "channel": 2,
      "note": 81,
      "start": 6.9915,
      "duration": 0.0695,
      "velocity": 76,
      "chip": "ym2612"
    },
    {
      "channel": 4,
      "note": 85,
      "start": 6.9973,
      "duration": 0.0466,
      "velocity": 76,
      "chip": "ym2612"
    },
    {
      "channel": 3,
      "note": 45,
      "start": 6.9997,
      "duration": 0.0611,
      "velocity": 92,
      "chip": "ym2612"
    },
    {
      "channel": 2,
      "note": 90,
      "start": 7.2321,
      "duration": 0.0122,
      "velocity": 87,
      "chip": "ym2612"
    },
    {
      "channel": 0,
      "note": 45,
      "start": 7.348,
      "duration": 0.0125,
      "velocity": 116,
      "chip": "ym2612"
    },
    {
      "channel": 5,
      "note": 76,
      "start": 7.4648,
      "duration": 0.0125,
      "velocity": 127,
      "chip": "ym2612"
    },
    {
      "channel": 1,
      "note": 57,
      "start": 7.4678,
      "duration": 0.0926,
      "velocity": 105,
      "chip": "ym2612"
    },
    {
      "channel": 4,
      "note": 81,
      "start": 7.4703,
      "duration": 0.2406,
      "velocity": 76,
      "chip": "ym2612"
    },
    {
      "channel": 3,
      "note": 85,
      "start": 7.4725,
      "duration": 0.238,
      "velocity": 76,
      "chip": "ym2612"
    },
    {
      "channel": 2,
      "note": 45,
      "start": 7.475,
      "duration": 0.2691,
      "velocity": 92,
      "chip": "ym2612"
    },
    {
      "channel": 0,
      "note": 45,
      "start": 7.815,
      "duration": 0.0289,
      "velocity": 116,
      "chip": "ym2612"
    },
    {
      "channel": 1,
      "note": 59,
      "start": 7.8172,
      "duration": 0.0766,
      "velocity": 105,
      "chip": "ym2612"
    },
    {
      "channel": 3,
      "note": 83,
      "start": 7.8195,
      "duration": 0.0744,
      "velocity": 76,
      "chip": "ym2612"
    },
    {
      "channel": 4,
      "note": 86,
      "start": 7.8216,
      "duration": 0.0727,
      "velocity": 76,
      "chip": "ym2612"
    },
    {
      "channel": 2,
      "note": 47,
      "start": 7.8241,
      "duration": 0.0703,
      "velocity": 92,
      "chip": "ym2612"
    },
    {
      "channel": 0,
      "note": 45,
      "start": 8.0002,
      "duration": 0.0054,
      "velocity": 116,
      "chip": "ym2612"
    },
    {
      "channel": 2,
      "note": 90,
      "start": 8.0036,
      "duration": 0.0022,
      "velocity": 87,
      "chip": "ym2612"
    },
    {
      "channel": 0,
      "note": 45,
      "start": 8.0555,
      "duration": 0.0122,
      "velocity": 116,
      "chip": "ym2612"
    },
    {
      "channel": 2,
      "note": 90,
      "start": 8.058,
      "duration": 0.0101,
      "velocity": 87,
      "chip": "ym2612"
    },
    {
      "channel": 1,
      "note": 76,
      "start": 8.2887,
      "duration": 0.0457,
      "velocity": 127,
      "chip": "ym2612"
    },
    {
      "channel": 3,
      "note": 59,
      "start": 8.2915,
      "duration": 0.2931,
      "velocity": 105,
      "chip": "ym2612"
    },
    {
      "channel": 4,
      "note": 83,
      "start": 8.2939,
      "duration": 0.1739,
      "velocity": 76,
      "chip": "ym2612"
    },
    {
      "channel": 5,
      "note": 86,
      "start": 8.2962,
      "duration": 0.172,
      "velocity": 76,
      "chip": "ym2612"
    },
    {
      "channel": 0,
      "note": 47,
      "start": 8.2986,
      "duration": 0.2857,
      "velocity": 92,
      "chip": "ym2612"
    },
    {
      "channel": 2,
      "note": 45,
      "start": 8.6555,
      "duration": 0.0126,
      "velocity": 116,
      "chip": "ym2612"
    },
    {
      "channel": 3,
      "note": 55,
      "start": 8.6578,
      "duration": 0.0769,
      "velocity": 105,
      "chip": "ym2612"
    },
    {
      "channel": 4,
      "note": 79,
      "start": 8.6607,
      "duration": 0.0741,
      "velocity": 76,
      "chip": "ym2612"
    },
    {
      "channel": 5,
      "note": 83,
      "start": 8.663,
      "duration": 0.0719,
      "velocity": 76,
      "chip": "ym2612"
    },
    {
      "channel": 0,
      "note": 43,
      "start": 8.6653,
      "duration": 0.0691,
      "velocity": 92,
      "chip": "ym2612"
    },
    {
      "channel": 2,
      "note": 45,
      "start": 8.7723,
      "duration": 0.0124,
      "velocity": 116,
      "chip": "ym2612"
    },
    {
      "channel": 2,
      "note": 90,
      "start": 9.0059,
      "duration": 0.0289,
      "velocity": 87,
      "chip": "ym2612"
    },
    {
      "channel": 1,
      "note": 45,
      "start": 9.1388,
      "duration": 0.0122,
      "velocity": 116,
      "chip": "ym2612"
    },
    {
      "channel": 0,
      "note": 76,
      "start": 9.2553,
      "duration": 0.0623,
      "velocity": 127,
      "chip": "ym2612"
    },
    {
      "channel": 2,
      "note": 90,
      "start": 9.2581,
      "duration": 0.0098,
      "velocity": 87,
      "chip": "ym2612"
    },
    {
      "channel": 3,
      "note": 50,
      "start": 9.6059,
      "duration": 0.0951,
      "velocity": 105,
      "chip": "ym2612"
    },
    {
      "channel": 4,
      "note": 38,
      "start": 9.6085,
      "duration": 0.0927,
      "velocity": 92,
      "chip": "ym2612"
    },
    {
      "channel": 2,
      "note": 90,
      "start": 9.6106,
      "duration": 0.0076,
      "velocity": 87,
      "chip": "ym2612"
    },
    {
      "channel": 1,
      "note": 45,
      "start": 9.7251,
      "duration": 0.012,
      "velocity": 116,
      "chip": "ym2612"
    },
    {
      "channel": 3,
      "note": 55,
      "start": 9.727,
      "duration": 0.0524,
      "velocity": 105,
      "chip": "ym2612"
    },
    {
      "channel": 4,
      "note": 43,
      "start": 9.7293,
      "duration": 0.0503,
      "velocity": 92,
      "chip": "ym2612"
    },
    {
      "channel": 2,
      "note": 90,
      "start": 9.7825,
      "duration": 0.0047,
      "velocity": 87,
      "chip": "ym2612"
    },
    {
      "channel": 1,
      "note": 45,
      "start": 9.8463,
      "duration": 0.0117,
      "velocity": 116,
      "chip": "ym2612"
    },
    {
      "channel": 2,
      "note": 90,
      "start": 9.8488,
      "duration": 0.0097,
      "velocity": 87,
      "chip": "ym2612"
    },
    {
      "channel": 1,
      "note": 45,
      "start": 9.9627,
      "duration": 0.012,
      "velocity": 116,
      "chip": "ym2612"
    },
    {
      "channel": 3,
      "note": 50,
      "start": 9.965,
      "duration": 0.0597,
      "velocity": 105,
      "chip": "ym2612"
    },
    {
      "channel": 4,
      "note": 38,
      "start": 9.9675,
      "duration": 0.0575,
      "velocity": 92,
      "chip": "ym2612"
    },
    {
      "channel": 0,
      "note": 76,
      "start": 10.0787,
      "duration": 0.0126,
      "velocity": 127,
      "chip": "ym2612"
    },
    {
      "channel": 3,
      "note": 55,
      "start": 10.0811,
      "duration": 0.0936,
      "velocity": 105,
      "chip": "ym2612"
    },
    {
      "channel": 4,
      "note": 43,
      "start": 10.0835,
      "duration": 0.0915,
      "velocity": 92,
      "chip": "ym2612"
    },
    {
      "channel": 3,
      "note": 57,
      "start": 10.1956,
      "duration": 0.079,
      "velocity": 105,
      "chip": "ym2612"
    },
    {
      "channel": 4,
      "note": 45,
      "start": 10.198,
      "duration": 0.077,
      "velocity": 92,
      "chip": "ym2612"
    },
    {
      "channel": 3,
      "note": 59,
      "start": 10.3129,
      "duration": 0.0951,
      "velocity": 105,
      "chip": "ym2612"
    },
    {
      "channel": 4,
      "note": 47,
      "start": 10.3159,
      "duration": 0.0924,
      "velocity": 92,
      "chip": "ym2612"
    },
    {
      "channel": 2,
      "note": 90,
      "start": 10.3179,
      "duration": 0.0238,
      "velocity": 87,
      "chip": "ym2612"
    },
    {
      "channel": 1,
      "note": 45,
      "start": 10.5625,
      "duration": 0.0121,
      "velocity": 116,
      "chip": "ym2612"
    },
    {
      "channel": 3,
      "note": 57,
      "start": 10.5647,
      "duration": 0.0933,
      "velocity": 105,
      "chip": "ym2612"
    },
    {
      "channel": 5,
      "note": 85,
      "start": 10.5672,
      "duration": 0.0412,
      "velocity": 76,
      "chip": "ym2612"
    },
    {
      "channel": 0,
      "note": 81,
      "start": 10.5696,
      "duration": 0.0717,
      "velocity": 76,
      "chip": "ym2612"
    },
    {
      "channel": 4,
      "note": 45,
      "start": 10.5717,
      "duration": 0.0866,
      "velocity": 92,
      "chip": "ym2612"
    },
    {
      "channel": 2,
      "note": 90,
      "start": 10.7961,
      "duration": 0.0122,
      "velocity": 87,
      "chip": "ym2612"
    },
    {
      "channel": 1,
      "note": 45,
      "start": 10.9121,
      "duration": 0.0292,
      "velocity": 116,
      "chip": "ym2612"
    },
    {
      "channel": 5,
      "note": 76,
      "start": 11.0455,
      "duration": 0.0461,
      "velocity": 127,
      "chip": "ym2612"
    },
    {
      "channel": 3,
      "note": 57,
      "start": 11.0483,
      "duration": 0.2763,
      "velocity": 105,
      "chip": "ym2612"
    },
    {
      "channel": 0,
      "note": 88,
      "start": 11.0505,
      "duration": 0.2407,
      "velocity": 76,
      "chip": "ym2612"
    },
    {
      "channel": 4,
      "note": 81,
      "start": 11.0528,
      "duration": 0.2389,
      "velocity": 76,
      "chip": "ym2612"
    },
    {
      "channel": 2,
      "note": 45,
      "start": 11.0553,
      "duration": 0.2698,
      "velocity": 92,
      "chip": "ym2612"
    },
    {
      "channel": 1,
      "note": 45,
      "start": 11.3958,
      "duration": 0.0122,
      "velocity": 116,
      "chip": "ym2612"
    },
    {
      "channel": 3,
      "note": 59,
      "start": 11.3986,
      "duration": 0.0595,
      "velocity": 105,
      "chip": "ym2612"
    },
    {
      "channel": 0,
      "note": 90,
      "start": 11.4009,
      "duration": 0.057,
      "velocity": 76,
      "chip": "ym2612"
    },
    {
      "channel": 4,
      "note": 83,
      "start": 11.4029,
      "duration": 0.0555,
      "velocity": 76,
      "chip": "ym2612"
    },
    {
      "channel": 2,
      "note": 47,
      "start": 11.4054,
      "duration": 0.0532,
      "velocity": 92,
      "chip": "ym2612"
    },
    {
      "channel": 1,
      "note": 45,
      "start": 11.564,
      "duration": 0.0127,
      "velocity": 116,
      "chip": "ym2612"
    },
    {
      "channel": 2,
      "note": 90,
      "start": 11.5662,
      "duration": 0.011,
      "velocity": 87,
      "chip": "ym2612"
    },
    {
      "channel": 1,
      "note": 45,
      "start": 11.6378,
      "duration": 0.0121,
      "velocity": 116,
      "chip": "ym2612"
    },
    {
      "channel": 2,
      "note": 90,
      "start": 11.6403,
      "duration": 0.01,
      "velocity": 87,
      "chip": "ym2612"
    },
    {
      "channel": 0,
      "note": 76,
      "start": 11.8707,
      "duration": 0.0791,
      "velocity": 127,
      "chip": "ym2612"
    },
    {
      "channel": 3,
      "note": 59,
      "start": 11.8735,
      "duration": 0.2765,
      "velocity": 105,
      "chip": "ym2612"
    },
    {
      "channel": 4,
      "note": 90,
      "start": 11.876,
      "duration": 0.2241,
      "velocity": 76,
      "chip": "ym2612"
    },
    {
      "channel": 5,
      "note": 86,
      "start": 11.8783,
      "duration": 0.2721,
      "velocity": 76,
      "chip": "ym2612"
    },
    {
      "channel": 1,
      "note": 47,
      "start": 11.8808,
      "duration": 0.2691,
      "velocity": 92,
      "chip": "ym2612"
    },
    {
      "channel": 2,
      "note": 90,
      "start": 12.105,
      "duration": 0.0286,
      "velocity": 87,
      "chip": "ym2612"
    },
    {
      "channel": 0,
      "note": 45,
      "start": 12.221,
      "duration": 0.0289,
      "velocity": 116,
      "chip": "ym2612"
    },
    {
      "channel": 3,
      "note": 55,
      "start": 12.2233,
      "duration": 0.0936,
      "velocity": 105,
      "chip": "ym2612"
    },
    {
      "channel": 4,
      "note": 91,
      "start": 12.2258,
      "duration": 0.0742,
      "velocity": 76,
      "chip": "ym2612"
    },
    {
      "channel": 5,
      "note": 83,
      "start": 12.2277,
      "duration": 0.0726,
      "velocity": 76,
      "chip": "ym2612"
    },
    {
      "channel": 2,
      "note": 74,
      "start": 12.2306,
      "duration": 0.0699,
      "velocity": 76,
      "chip": "ym2612"
    },
    {
      "channel": 1,
      "note": 43,
      "start": 12.2329,
      "duration": 0.0837,
      "velocity": 92,
      "chip": "ym2612"
    },
    {
      "channel": 0,
      "note": 45,
      "start": 12.3543,
      "duration": 0.0122,
      "velocity": 116,
      "chip": "ym2612"
    },
    {
      "channel": 2,
      "note": 90,
      "start": 12.5881,
      "duration": 0.0122,
      "velocity": 87,
      "chip": "ym2612"
    },
    {
      "channel": 0,
      "note": 45,
      "start": 12.7041,
      "duration": 0.0125,
      "velocity": 116,
      "chip": "ym2612"
    },
    {
      "channel": 4,
      "note": 76,
      "start": 12.8211,
      "duration": 0.0289,
      "velocity": 127,
      "chip": "ym2612"
    },
    {
      "channel": 2,
      "note": 90,
      "start": 12.8239,
      "duration": 0.0265,
      "velocity": 87,
      "chip": "ym2612"
    },
    {
      "channel": 0,
      "note": 45,
      "start": 13.1877,
      "duration": 0.0122,
      "velocity": 116,
      "chip": "ym2612"
    },
    {
      "channel": 2,
      "note": 90,
      "start": 13.1901,
      "duration": 0.0102,
      "velocity": 87,
      "chip": "ym2612"
    },
    {
      "channel": 0,
      "note": 45,
      "start": 13.3551,
      "duration": 0.0082,
      "velocity": 116,
      "chip": "ym2612"
    },
    {
      "channel": 3,
      "note": 50,
      "start": 13.357,
      "duration": 0.0397,
      "velocity": 105,
      "chip": "ym2612"
    },
    {
      "channel": 1,
      "note": 38,
      "start": 13.3599,
      "duration": 0.0368,
      "velocity": 92,
      "chip": "ym2612"
    },
    {
      "channel": 2,
      "note": 90,
      "start": 13.3625,
      "duration": 0.001,
      "velocity": 87,
      "chip": "ym2612"
    },
    {
      "channel": 0,
      "note": 45,
      "start": 13.4092,
      "duration": 0.0288,
      "velocity": 116,
      "chip": "ym2612"
    },
    {
      "channel": 3,
      "note": 55,
      "start": 13.4112,
      "duration": 0.0939,
      "velocity": 105,
      "chip": "ym2612"
    },
    {
      "channel": 1,
      "note": 43,
      "start": 13.4134,
      "duration": 0.0914,
      "velocity": 92,
      "chip": "ym2612"
    },
    {
      "channel": 2,
      "note": 90,
      "start": 13.4155,
      "duration": 0.023,
      "velocity": 87,
      "chip": "ym2612"
    },
    {
      "channel": 3,
      "note": 57,
      "start": 13.5423,
      "duration": 0.0959,
      "velocity": 105,
      "chip": "ym2612"
    },
    {
      "channel": 1,
      "note": 45,
      "start": 13.5445,
      "duration": 0.0936,
      "velocity": 92,
      "chip": "ym2612"
    },
    {
      "channel": 3,
      "note": 59,
      "start": 13.6628,
      "duration": 0.04,
      "velocity": 105,
      "chip": "ym2612"
    },
    {
      "channel": 1,
      "note": 47,
      "start": 13.6646,
      "duration": 0.0376,
      "velocity": 92,
      "chip": "ym2612"
    },
    {
      "channel": 4,
      "note": 76,
      "start": 13.7126,
      "duration": 0.013,
      "velocity": 127,
      "chip": "ym2612"
    },
    {
      "channel": 3,
      "note": 62,
      "start": 13.7183,
      "duration": 0.0071,
      "velocity": 105,
      "chip": "ym2612"
    },
    {
      "channel": 1,
      "note": 50,
      "start": 13.7204,
      "duration": 0.0048,
      "velocity": 92,
      "chip": "ym2612"
    },
    {
      "channel": 3,
      "note": 67,
      "start": 13.7675,
      "duration": 0.0173,
      "velocity": 105,
      "chip": "ym2612"
    },
    {
      "channel": 1,
      "note": 55,
      "start": 13.7694,
      "duration": 0.0152,
      "velocity": 92,
      "chip": "ym2612"
    },
    {
      "channel": 2,
      "note": 90,
      "start": 13.7717,
      "duration": 0.0011,
      "velocity": 87,
      "chip": "ym2612"
    },
    {
      "channel": 4,
      "note": 76,
      "start": 13.8176,
      "duration": 0.0258,
      "velocity": 127,
      "chip": "ym2612"
    },
    {
      "channel": 0,
      "note": 47,
      "start": 13.948,
      "duration": 0.0618,
      "velocity": 116,
      "chip": "ym2612"
    },
    {
      "channel": 3,
      "note": 59,
      "start": 13.9503,
      "duration": 0.1429,
      "velocity": 105,
      "chip": "ym2612"
    },
    {
      "channel": 2,
      "note": 47,
      "start": 13.9531,
      "duration": 3.7238,
      "velocity": 90,
      "chip": "ym2612"
    },
    {
      "channel": 0,
      "note": 47,
      "start": 14.2977,
      "duration": 0.0288,
      "velocity": 116,
      "chip": "ym2612"
    },
    {
      "channel": 3,
      "note": 47,
      "start": 14.2999,
      "duration": 0.0934,
      "velocity": 105,
      "chip": "ym2612"
    },
    {
      "channel": 1,
      "note": 47,
      "start": 14.3022,
      "duration": 0.1578,
      "velocity": 88,
      "chip": "ym2612"
    },
    {
      "channel": 0,
      "note": 47,
      "start": 14.4143,
      "duration": 0.0955,
      "velocity": 116,
      "chip": "ym2612"
    },
    {
      "channel": 0,
      "note": 47,
      "start": 14.6647,
      "duration": 0.0951,
      "velocity": 116,
      "chip": "ym2612"
    },
    {
      "channel": 3,
      "note": 47,
      "start": 14.6669,
      "duration": 0.0934,
      "velocity": 105,
      "chip": "ym2612"
    },
    {
      "channel": 1,
      "note": 47,
      "start": 14.6698,
      "duration": 0.0901,
      "velocity": 88,
      "chip": "ym2612"
    },
    {
      "channel": 0,
      "note": 47,
      "start": 15.131,
      "duration": 0.0455,
      "velocity": 116,
      "chip": "ym2612"
    },
    {
      "channel": 3,
      "note": 47,
      "start": 15.1333,
      "duration": 0.0766,
      "velocity": 105,
      "chip": "ym2612"
    },
    {
      "channel": 1,
      "note": 47,
      "start": 15.1357,
      "duration": 0.0741,
      "velocity": 88,
      "chip": "ym2612"
    },
    {
      "channel": 3,
      "note": 64,
      "start": 15.3812,
      "duration": 0.1121,
      "velocity": 105,
      "chip": "ym2612"
    },
    {
      "channel": 3,
      "note": 66,
      "start": 15.6144,
      "duration": 0.0788,
      "velocity": 105,
      "chip": "ym2612"
    },
    {
      "channel": 0,
      "note": 47,
      "start": 15.848,
      "duration": 0.0784,
      "velocity": 116,
      "chip": "ym2612"
    },
    {
      "channel": 3,
      "note": 59,
      "start": 15.8508,
      "duration": 0.1257,
      "velocity": 105,
      "chip": "ym2612"
    },
    {
      "channel": 0,
      "note": 47,
      "start": 16.2144,
      "duration": 0.0121,
      "velocity": 116,
      "chip": "ym2612"
    },
    {
      "channel": 3,
      "note": 47,
      "start": 16.2166,
      "duration": 0.0934,
      "velocity": 105,
      "chip": "ym2612"
    },
    {
      "channel": 1,
      "note": 47,
      "start": 16.219,
      "duration": 0.0908,
      "velocity": 88,
      "chip": "ym2612"
    },
    {
      "channel": 0,
      "note": 47,
      "start": 16.331,
      "duration": 0.0789,
      "velocity": 116,
      "chip": "ym2612"
    },
    {
      "channel": 0,
      "note": 47,
      "start": 16.5644,
      "duration": 0.0954,
      "velocity": 116,
      "chip": "ym2612"
    },
    {
      "channel": 3,
      "note": 47,
      "start": 16.5665,
      "duration": 0.127,
      "velocity": 105,
      "chip": "ym2612"
    },
    {
      "channel": 1,
      "note": 47,
      "start": 16.5688,
      "duration": 0.1244,
      "velocity": 88,
      "chip": "ym2612"
    },
    {
      "channel": 3,
      "note": 47,
      "start": 16.9314,
      "duration": 0.0786,
      "velocity": 105,
      "chip": "ym2612"
    },
    {
      "channel": 1,
      "note": 47,
      "start": 16.9338,
      "duration": 0.076,
      "velocity": 88,
      "chip": "ym2612"
    },
    {
      "channel": 0,
      "note": 47,
      "start": 17.0477,
      "duration": 0.0621,
      "velocity": 116,
      "chip": "ym2612"
    },
    {
      "channel": 3,
      "note": 47,
      "start": 17.1647,
      "duration": 0.0622,
      "velocity": 105,
      "chip": "ym2612"
    },
    {
      "channel": 1,
      "note": 47,
      "start": 17.1673,
      "duration": 0.0593,
      "velocity": 88,
      "chip": "ym2612"
    },
    {
      "channel": 3,
      "note": 64,
      "start": 17.2812,
      "duration": 0.1286,
      "velocity": 105,
      "chip": "ym2612"
    },
    {
      "channel": 3,
      "note": 66,
      "start": 17.5311,
      "duration": 0.0954,
      "velocity": 105,
      "chip": "ym2612"
    },
    {
      "channel": 0,
      "note": 47,
      "start": 17.7645,
      "duration": 0.0954,
      "velocity": 116,
      "chip": "ym2612"
    },
    {
      "channel": 3,
      "note": 59,
      "start": 17.7668,
      "duration": 0.1097,
      "velocity": 105,
      "chip": "ym2612"
    },
    {
      "channel": 2,
      "note": 35,
      "start": 17.7693,
      "duration": 1.9076,
      "velocity": 90,
      "chip": "ym2612"
    },
    {
      "channel": 0,
      "note": 47,
      "start": 18.131,
      "duration": 0.0288,
      "velocity": 116,
      "chip": "ym2612"
    },
    {
      "channel": 3,
      "note": 47,
      "start": 18.1332,
      "duration": 0.1268,
      "velocity": 105,
      "chip": "ym2612"
    },
    {
      "channel": 0,
      "note": 47,
      "start": 18.2479,
      "duration": 0.0953,
      "velocity": 116,
      "chip": "ym2612"
    },
    {
      "channel": 0,
      "note": 47,
      "start": 18.4811,
      "duration": 0.0954,
      "velocity": 116,
      "chip": "ym2612"
    },
    {
      "channel": 3,
      "note": 47,
      "start": 18.4833,
      "duration": 0.1599,
      "velocity": 105,
      "chip": "ym2612"
    },
    {
      "channel": 3,
      "note": 47,
      "start": 18.8481,
      "duration": 0.0785,
      "velocity": 105,
      "chip": "ym2612"
    },
    {
      "channel": 0,
      "note": 47,
      "start": 18.9649,
      "duration": 0.0283,
      "velocity": 116,
      "chip": "ym2612"
    },
    {
      "channel": 3,
      "note": 47,
      "start": 19.0814,
      "duration": 0.0619,
      "velocity": 105,
      "chip": "ym2612"
    },
    {
      "channel": 0,
      "note": 47,
      "start": 19.1975,
      "duration": 0.0957,
      "velocity": 116,
      "chip": "ym2612"
    },
    {
      "channel": 3,
      "note": 64,
      "start": 19.2003,
      "duration": 0.1596,
      "velocity": 105,
      "chip": "ym2612"
    },
    {
      "channel": 3,
      "note": 66,
      "start": 19.4478,
      "duration": 0.1288,
      "velocity": 105,
      "chip": "ym2612"
    },
    {
      "channel": 0,
      "note": 47,
      "start": 19.6813,
      "duration": 0.0952,
      "velocity": 116,
      "chip": "ym2612"
    },
    {
      "channel": 3,
      "note": 55,
      "start": 19.6834,
      "duration": 0.0765,
      "velocity": 105,
      "chip": "ym2612"
    },
    {
      "channel": 4,
      "note": 98,
      "start": 19.6871,
      "duration": 0.1062,
      "velocity": 83,
      "chip": "ym2612"
    },
    {
      "channel": 4,
      "note": 95,
      "start": 19.7982,
      "duration": 0.095,
      "velocity": 83,
      "chip": "ym2612"
    },
    {
      "channel": 3,
      "note": 55,
      "start": 19.9146,
      "duration": 0.1457,
      "velocity": 105,
      "chip": "ym2612"
    },
    {
      "channel": 4,
      "note": 91,
      "start": 19.9167,
      "duration": 0.0933,
      "velocity": 83,
      "chip": "ym2612"
    },
    {
      "channel": 1,
      "note": 43,
      "start": 19.919,
      "duration": 0.141,
      "velocity": 88,
      "chip": "ym2612"
    },
    {
      "channel": 2,
      "note": 90,
      "start": 19.9221,
      "duration": 0.0215,
      "velocity": 87,
      "chip": "ym2612"
    },
    {
      "channel": 0,
      "note": 47,
      "start": 20.0477,
      "duration": 0.0288,
      "velocity": 116,
      "chip": "ym2612"
    },
    {
      "channel": 4,
      "note": 86,
      "start": 20.0499,
      "duration": 0.0934,
      "velocity": 83,
      "chip": "ym2612"
    },
    {
      "channel": 0,
      "note": 47,
      "start": 20.1645,
      "duration": 0.0953,
      "velocity": 116,
      "chip": "ym2612"
    },
    {
      "channel": 3,
      "note": 67,
      "start": 20.1666,
      "duration": 0.21,
      "velocity": 105,
      "chip": "ym2612"
    },
    {
      "channel": 4,
      "note": 83,
      "start": 20.1688,
      "duration": 0.0915,
      "velocity": 83,
      "chip": "ym2612"
    },
    {
      "channel": 2,
      "note": 90,
      "start": 20.171,
      "duration": 0.006,
      "velocity": 87,
      "chip": "ym2612"
    },
    {
      "channel": 4,
      "note": 79,
      "start": 20.2812,
      "duration": 0.0957,
      "velocity": 83,
      "chip": "ym2612"
    },
    {
      "channel": 0,
      "note": 47,
      "start": 20.3976,
      "duration": 0.0955,
      "velocity": 116,
      "chip": "ym2612"
    },
    {
      "channel": 3,
      "note": 55,
      "start": 20.3998,
      "duration": 0.1604,
      "velocity": 105,
      "chip": "ym2612"
    },
    {
      "channel": 4,
      "note": 100,
      "start": 20.402,
      "duration": 0.0916,
      "velocity": 83,
      "chip": "ym2612"
    },
    {
      "channel": 1,
      "note": 43,
      "start": 20.4042,
      "duration": 0.1557,
      "velocity": 88,
      "chip": "ym2612"
    },
    {
      "channel": 4,
      "note": 97,
      "start": 20.5151,
      "duration": 0.0949,
      "velocity": 83,
      "chip": "ym2612"
    },
    {
      "channel": 3,
      "note": 57,
      "start": 20.631,
      "duration": 0.0956,
      "velocity": 105,
      "chip": "ym2612"
    },
    {
      "channel": 4,
      "note": 93,
      "start": 20.6332,
      "duration": 0.0938,
      "velocity": 83,
      "chip": "ym2612"
    },
    {
      "channel": 1,
      "note": 45,
      "start": 20.6353,
      "duration": 0.0912,
      "velocity": 88,
      "chip": "ym2612"
    },
    {
      "channel": 2,
      "note": 90,
      "start": 20.6374,
      "duration": 0.0229,
      "velocity": 87,
      "chip": "ym2612"
    },
    {
      "channel": 4,
      "note": 88,
      "start": 20.7645,
      "duration": 0.0957,
      "velocity": 83,
      "chip": "ym2612"
    },
    {
      "channel": 0,
      "note": 47,
      "start": 20.881,
      "duration": 0.0288,
      "velocity": 116,
      "chip": "ym2612"
    },
    {
      "channel": 3,
      "note": 57,
      "start": 20.8831,
      "duration": 0.1938,
      "velocity": 105,
      "chip": "ym2612"
    },
    {
      "channel": 4,
      "note": 85,
      "start": 20.8853,
      "duration": 0.0914,
      "velocity": 83,
      "chip": "ym2612"
    },
    {
      "channel": 1,
      "note": 45,
      "start": 20.8874,
      "duration": 0.1892,
      "velocity": 88,
      "chip": "ym2612"
    },
    {
      "channel": 2,
      "note": 90,
      "start": 20.8901,
      "duration": 0.0059,
      "velocity": 87,
      "chip": "ym2612"
    },
    {
      "channel": 4,
      "note": 81,
      "start": 20.9978,
      "duration": 0.0955,
      "velocity": 83,
      "chip": "ym2612"
    },
    {
      "channel": 2,
      "note": 90,
      "start": 21.0,
      "duration": 0.0102,
      "velocity": 87,
      "chip": "ym2612"
    },
    {
      "channel": 0,
      "note": 47,
      "start": 21.1145,
      "duration": 0.0953,
      "velocity": 116,
      "chip": "ym2612"
    },
    {
      "channel": 3,
      "note": 52,
      "start": 21.1167,
      "duration": 0.16,
      "velocity": 105,
      "chip": "ym2612"
    },
    {
      "channel": 4,
      "note": 76,
      "start": 21.1188,
      "duration": 0.0914,
      "velocity": 83,
      "chip": "ym2612"
    },
    {
      "channel": 1,
      "note": 40,
      "start": 21.1209,
      "duration": 0.2057,
      "velocity": 88,
      "chip": "ym2612"
    },
    {
      "channel": 4,
      "note": 73,
      "start": 21.2313,
      "duration": 0.0957,
      "velocity": 83,
      "chip": "ym2612"
    },
    {
      "channel": 2,
      "note": 90,
      "start": 21.2335,
      "duration": 0.0268,
      "velocity": 87,
      "chip": "ym2612"
    },
    {
      "channel": 3,
      "note": 57,
      "start": 21.3642,
      "duration": 0.1457,
      "velocity": 105,
      "chip": "ym2612"
    },
    {
      "channel": 4,
      "note": 69,
      "start": 21.3664,
      "duration": 0.0936,
      "velocity": 83,
      "chip": "ym2612"
    },
    {
      "channel": 1,
      "note": 45,
      "start": 21.3687,
      "duration": 0.1578,
      "velocity": 88,
      "chip": "ym2612"
    },
    {
      "channel": 2,
      "note": 90,
      "start": 21.3708,
      "duration": 0.0062,
      "velocity": 87,
      "chip": "ym2612"
    },
    {
      "channel": 4,
      "note": 64,
      "start": 21.4812,
      "duration": 0.0955,
      "velocity": 83,
      "chip": "ym2612"
    },
    {
      "channel": 0,
      "note": 47,
      "start": 21.5978,
      "duration": 0.0787,
      "velocity": 116,
      "chip": "ym2612"
    },
    {
      "channel": 3,
      "note": 59,
      "start": 21.6,
      "duration": 0.1432,
      "velocity": 105,
      "chip": "ym2612"
    },
    {
      "channel": 5,
      "note": 35,
      "start": 21.6024,
      "duration": 3.7746,
      "velocity": 90,
      "chip": "ym2612"
    },
    {
      "channel": 4,
      "note": 61,
      "start": 21.6049,
      "duration": 0.0383,
      "velocity": 83,
      "chip": "ym2612"
    },
    {
      "channel": 2,
      "note": 90,
      "start": 21.8314,
      "duration": 0.0122,
      "velocity": 87,
      "chip": "ym2612"
    },
    {
      "channel": 0,
      "note": 47,
      "start": 21.9478,
      "duration": 0.0288,
      "velocity": 116,
      "chip": "ym2612"
    },
    {
      "channel": 3,
      "note": 47,
      "start": 21.9497,
      "duration": 0.1606,
      "velocity": 105,
      "chip": "ym2612"
    },
    {
      "channel": 1,
      "note": 47,
      "start": 21.9527,
      "duration": 0.1573,
      "velocity": 88,
      "chip": "ym2612"
    },
    {
      "channel": 0,
      "note": 47,
      "start": 22.0811,
      "duration": 0.0954,
      "velocity": 116,
      "chip": "ym2612"
    },
    {
      "channel": 2,
      "note": 90,
      "start": 22.0836,
      "duration": 0.01,
      "velocity": 87,
      "chip": "ym2612"
    },
    {
      "channel": 3,
      "note": 47,
      "start": 22.3146,
      "duration": 0.0957,
      "velocity": 105,
      "chip": "ym2612"
    },
    {
      "channel": 1,
      "note": 47,
      "start": 22.317,
      "duration": 0.0929,
      "velocity": 88,
      "chip": "ym2612"
    },
    {
      "channel": 2,
      "note": 90,
      "start": 22.4315,
      "duration": 0.0121,
      "velocity": 87,
      "chip": "ym2612"
    },
    {
      "channel": 2,
      "note": 90,
      "start": 22.6649,
      "duration": 0.0288,
      "velocity": 87,
      "chip": "ym2612"
    },
    {
      "channel": 0,
      "note": 47,
      "start": 22.7976,
      "duration": 0.0289,
      "velocity": 116,
      "chip": "ym2612"
    },
    {
      "channel": 3,
      "note": 47,
      "start": 22.7999,
      "duration": 0.0604,
      "velocity": 105,
      "chip": "ym2612"
    },
    {
      "channel": 1,
      "note": 47,
      "start": 22.8023,
      "duration": 0.0576,
      "velocity": 88,
      "chip": "ym2612"
    },
    {
      "channel": 2,
      "note": 90,
      "start": 22.8044,
      "duration": 0.006,
      "velocity": 87,
      "chip": "ym2612"
    },
    {
      "channel": 3,
      "note": 64,
      "start": 23.031,
      "duration": 0.1789,
      "velocity": 105,
      "chip": "ym2612"
    },
    {
      "channel": 3,
      "note": 66,
      "start": 23.2642,
      "duration": 0.0791,
      "velocity": 105,
      "chip": "ym2612"
    },
    {
      "channel": 2,
      "note": 90,
      "start": 23.2665,
      "duration": 0.0272,
      "velocity": 87,
      "chip": "ym2612"
    },
    {
      "channel": 0,
      "note": 47,
      "start": 23.5152,
      "duration": 0.078,
      "velocity": 116,
      "chip": "ym2612"
    },
    {
      "channel": 3,
      "note": 59,
      "start": 23.5179,
      "duration": 0.1086,
      "velocity": 105,
      "chip": "ym2612"
    },
    {
      "channel": 2,
      "note": 90,
      "start": 23.7487,
      "duration": 0.0116,
      "velocity": 87,
      "chip": "ym2612"
    },
    {
      "channel": 0,
      "note": 47,
      "start": 23.8643,
      "duration": 0.0455,
      "velocity": 116,
      "chip": "ym2612"
    },
    {
      "channel": 3,
      "note": 47,
      "start": 23.8665,
      "duration": 0.0938,
      "velocity": 105,
      "chip": "ym2612"
    },
    {
      "channel": 1,
      "note": 47,
      "start": 23.8689,
      "duration": 0.091,
      "velocity": 88,
      "chip": "ym2612"
    },
    {
      "channel": 0,
      "note": 47,
      "start": 23.981,
      "duration": 0.0955,
      "velocity": 116,
      "chip": "ym2612"
    },
    {
      "channel": 2,
      "note": 90,
      "start": 23.984,
      "duration": 0.0263,
      "velocity": 87,
      "chip": "ym2612"
    },
    {
      "channel": 0,
      "note": 47,
      "start": 24.2308,
      "duration": 0.0957,
      "velocity": 116,
      "chip": "ym2612"
    },
    {
      "channel": 3,
      "note": 47,
      "start": 24.233,
      "duration": 0.1104,
      "velocity": 105,
      "chip": "ym2612"
    },
    {
      "channel": 1,
      "note": 47,
      "start": 24.2353,
      "duration": 0.1079,
      "velocity": 88,
      "chip": "ym2612"
    },
    {
      "channel": 2,
      "note": 90,
      "start": 24.3484,
      "duration": 0.0119,
      "velocity": 87,
      "chip": "ym2612"
    },
    {
      "channel": 3,
      "note": 47,
      "start": 24.5814,
      "duration": 0.0788,
      "velocity": 105,
      "chip": "ym2612"
    },
    {
      "channel": 1,
      "note": 47,
      "start": 24.5838,
      "duration": 0.0761,
      "velocity": 88,
      "chip": "ym2612"
    },
    {
      "channel": 2,
      "note": 90,
      "start": 24.5859,
      "duration": 0.0244,
      "velocity": 87,
      "chip": "ym2612"
    },
    {
      "channel": 2,
      "note": 90,
      "start": 24.6985,
      "duration": 0.0285,
      "velocity": 87,
      "chip": "ym2612"
    },
    {
      "channel": 3,
      "note": 47,
      "start": 24.8314,
      "duration": 0.0453,
      "velocity": 105,
      "chip": "ym2612"
    },
    {
      "channel": 1,
      "note": 47,
      "start": 24.8338,
      "duration": 0.0427,
      "velocity": 88,
      "chip": "ym2612"
    },
    {
      "channel": 3,
      "note": 64,
      "start": 24.948,
      "duration": 0.1453,
      "velocity": 105,
      "chip": "ym2612"
    },
    {
      "channel": 3,
      "note": 66,
      "start": 25.181,
      "duration": 0.0955,
      "velocity": 105,
      "chip": "ym2612"
    },
    {
      "channel": 2,
      "note": 90,
      "start": 25.1832,
      "duration": 0.0104,
      "velocity": 87,
      "chip": "ym2612"
    },
    {
      "channel": 0,
      "note": 47,
      "start": 25.431,
      "duration": 0.0955,
      "velocity": 116,
      "chip": "ym2612"
    },
    {
      "channel": 3,
      "note": 59,
      "start": 25.4333,
      "duration": 0.1098,
      "velocity": 105,
      "chip": "ym2612"
    },
    {
      "channel": 5,
      "note": 47,
      "start": 25.4361,
      "duration": 1.774,
      "velocity": 90,
      "chip": "ym2612"
    },
    {
      "channel": 2,
      "note": 90,
      "start": 25.6647,
      "duration": 0.0122,
      "velocity": 87,
      "chip": "ym2612"
    },
    {
      "channel": 0,
      "note": 47,
      "start": 25.781,
      "duration": 0.0288,
      "velocity": 116,
      "chip": "ym2612"
    },
    {
      "channel": 3,
      "note": 47,
      "start": 25.7832,
      "duration": 0.1271,
      "velocity": 105,
      "chip": "ym2612"
    },
    {
      "channel": 1,
      "note": 47,
      "start": 25.7856,
      "duration": 0.1244,
      "velocity": 88,
      "chip": "ym2612"
    },
    {
      "channel": 0,
      "note": 47,
      "start": 25.8978,
      "duration": 0.0954,
      "velocity": 116,
      "chip": "ym2612"
    },
    {
      "channel": 2,
      "note": 90,
      "start": 25.9002,
      "duration": 0.0102,
      "velocity": 87,
      "chip": "ym2612"
    },
    {
      "channel": 0,
      "note": 47,
      "start": 26.1476,
      "duration": 0.0956,
      "velocity": 116,
      "chip": "ym2612"
    },
    {
      "channel": 3,
      "note": 47,
      "start": 26.1497,
      "duration": 0.1436,
      "velocity": 105,
      "chip": "ym2612"
    },
    {
      "channel": 1,
      "note": 47,
      "start": 26.152,
      "duration": 0.1412,
      "velocity": 88,
      "chip": "ym2612"
    },
    {
      "channel": 2,
      "note": 90,
      "start": 26.2647,
      "duration": 0.0122,
      "velocity": 87,
      "chip": "ym2612"
    },
    {
      "channel": 3,
      "note": 47,
      "start": 26.4979,
      "duration": 0.0788,
      "velocity": 105,
      "chip": "ym2612"
    },
    {
      "channel": 1,
      "note": 47,
      "start": 26.5004,
      "duration": 0.0761,
      "velocity": 88,
      "chip": "ym2612"
    },
    {
      "channel": 2,
      "note": 90,
      "start": 26.5025,
      "duration": 0.0078,
      "velocity": 87,
      "chip": "ym2612"
    },
    {
      "channel": 0,
      "note": 47,
      "start": 26.6144,
      "duration": 0.0621,
      "velocity": 116,
      "chip": "ym2612"
    },
    {
      "channel": 2,
      "note": 90,
      "start": 26.617,
      "duration": 0.0432,
      "velocity": 87,
      "chip": "ym2612"
    },
    {
      "channel": 3,
      "note": 47,
      "start": 26.7479,
      "duration": 0.0457,
      "velocity": 105,
      "chip": "ym2612"
    },
    {
      "channel": 1,
      "note": 47,
      "start": 26.7504,
      "duration": 0.0429,
      "velocity": 88,
      "chip": "ym2612"
    },
    {
      "channel": 3,
      "note": 64,
      "start": 26.8651,
      "duration": 0.1449,
      "velocity": 105,
      "chip": "ym2612"
    },
    {
      "channel": 3,
      "note": 66,
      "start": 27.0978,
      "duration": 0.1288,
      "velocity": 105,
      "chip": "ym2612"
    },
    {
      "channel": 2,
      "note": 90,
      "start": 27.1001,
      "duration": 0.0101,
      "velocity": 87,
      "chip": "ym2612"
    },
    {
      "channel": 0,
      "note": 47,
      "start": 27.3327,
      "duration": 0.0938,
      "velocity": 116,
      "chip": "ym2612"
    },
    {
      "channel": 3,
      "note": 55,
      "start": 27.3349,
      "duration": 0.075,
      "velocity": 105,
      "chip": "ym2612"
    },
    {
      "channel": 5,
      "note": 43,
      "start": 27.3373,
      "duration": 0.973,
      "velocity": 90,
      "chip": "ym2612"
    },
    {
      "channel": 3,
      "note": 55,
      "start": 27.5811,
      "duration": 0.1289,
      "velocity": 105,
      "chip": "ym2612"
    },
    {
      "channel": 4,
      "note": 67,
      "start": 27.5835,
      "duration": 0.1434,
      "velocity": 83,
      "chip": "ym2612"
    },
    {
      "channel": 1,
      "note": 43,
      "start": 27.5863,
      "duration": 0.1235,
      "velocity": 88,
      "chip": "ym2612"
    },
    {
      "channel": 2,
      "note": 90,
      "start": 27.5884,
      "duration": 0.0052,
      "velocity": 87,
      "chip": "ym2612"
    },
    {
      "channel": 0,
      "note": 47,
      "start": 27.6977,
      "duration": 0.0288,
      "velocity": 116,
      "chip": "ym2612"
    },
    {
      "channel": 2,
      "note": 71,
      "start": 27.7007,
      "duration": 0.1094,
      "velocity": 83,
      "chip": "ym2612"
    },
    {
      "channel": 0,
      "note": 47,
      "start": 27.8149,
      "duration": 0.095,
      "velocity": 116,
      "chip": "ym2612"
    },
    {
      "channel": 3,
      "note": 67,
      "start": 27.8169,
      "duration": 0.1264,
      "velocity": 105,
      "chip": "ym2612"
    },
    {
      "channel": 4,
      "note": 74,
      "start": 27.819,
      "duration": 0.1077,
      "velocity": 83,
      "chip": "ym2612"
    },
    {
      "channel": 2,
      "note": 90,
      "start": 27.8211,
      "duration": 0.0059,
      "velocity": 87,
      "chip": "ym2612"
    },
    {
      "channel": 4,
      "note": 79,
      "start": 27.9314,
      "duration": 0.0952,
      "velocity": 83,
      "chip": "ym2612"
    },
    {
      "channel": 0,
      "note": 47,
      "start": 28.0476,
      "duration": 0.0956,
      "velocity": 116,
      "chip": "ym2612"
    },
    {
      "channel": 3,
      "note": 55,
      "start": 28.0497,
      "duration": 0.1602,
      "velocity": 105,
      "chip": "ym2612"
    },
    {
      "channel": 4,
      "note": 83,
      "start": 28.0518,
      "duration": 0.0918,
      "velocity": 83,
      "chip": "ym2612"
    },
    {
      "channel": 1,
      "note": 43,
      "start": 28.0541,
      "duration": 0.1557,
      "velocity": 88,
      "chip": "ym2612"
    },
    {
      "channel": 2,
      "note": 90,
      "start": 28.0562,
      "duration": 0.0208,
      "velocity": 87,
      "chip": "ym2612"
    },
    {
      "channel": 4,
      "note": 86,
      "start": 28.1813,
      "duration": 0.0954,
      "velocity": 83,
      "chip": "ym2612"
    },
    {
      "channel": 2,
      "note": 90,
      "start": 28.1835,
      "duration": 0.0101,
      "velocity": 87,
      "chip": "ym2612"
    },
    {
      "channel": 3,
      "note": 57,
      "start": 28.2987,
      "duration": 0.1949,
      "velocity": 105,
      "chip": "ym2612"
    },
    {
      "channel": 0,
      "note": 45,
      "start": 28.3027,
      "duration": 0.1072,
      "velocity": 81,
      "chip": "ym2612"
    },
    {
      "channel": 4,
      "note": 91,
      "start": 28.3049,
      "duration": 0.072,
      "velocity": 83,
      "chip": "ym2612"
    },
    {
      "channel": 1,
      "note": 57,
      "start": 28.3072,
      "duration": 0.2361,
      "velocity": 88,
      "chip": "ym2612"
    },
    {
      "channel": 4,
      "note": 69,
      "start": 28.4155,
      "duration": 0.1614,
      "velocity": 83,
      "chip": "ym2612"
    },
    {
      "channel": 2,
      "note": 90,
      "start": 28.4177,
      "duration": 0.0094,
      "velocity": 87,
      "chip": "ym2612"
    },
    {
      "channel": 5,
      "note": 73,
      "start": 28.5314,
      "duration": 0.1123,
      "velocity": 83,
      "chip": "ym2612"
    },
    {
      "channel": 2,
      "note": 90,
      "start": 28.5336,
      "duration": 0.0101,
      "velocity": 87,
      "chip": "ym2612"
    },
    {
      "channel": 0,
      "note": 45,
      "start": 28.648,
      "duration": 0.162,
      "velocity": 116,
      "chip": "ym2612"
    },
    {
      "channel": 4,
      "note": 76,
      "start": 28.6504,
      "duration": 0.16,
      "velocity": 83,
      "chip": "ym2612"
    },
    {
      "channel": 3,
      "note": 52,
      "start": 28.7822,
      "duration": 0.1779,
      "velocity": 105,
      "chip": "ym2612"
    },
    {
      "channel": 1,
      "note": 52,
      "start": 28.7843,
      "duration": 0.1089,
      "velocity": 81,
      "chip": "ym2612"
    },
    {
      "channel": 5,
      "note": 80,
      "start": 28.7866,
      "duration": 0.1071,
      "velocity": 83,
      "chip": "ym2612"
    },
    {
      "channel": 2,
      "note": 52,
      "start": 28.7889,
      "duration": 0.2214,
      "velocity": 88,
      "chip": "ym2612"
    },
    {
      "channel": 4,
      "note": 76,
      "start": 28.8989,
      "duration": 0.0945,
      "velocity": 83,
      "chip": "ym2612"
    },
    {
      "channel": 0,
      "note": 45,
      "start": 28.9977,
      "duration": 0.1621,
      "velocity": 116,
      "chip": "ym2612"
    },
    {
      "channel": 4,
      "note": 64,
      "start": 29.0147,
      "duration": 0.1122,
      "velocity": 83,
      "chip": "ym2612"
    },
    {
      "channel": 2,
      "note": 90,
      "start": 29.0168,
      "duration": 0.0102,
      "velocity": 87,
      "chip": "ym2612"
    },
    {
      "channel": 0,
      "note": 45,
      "start": 29.2559,
      "duration": 0.0169,
      "velocity": 116,
      "chip": "ym2612"
    },
    {
      "channel": 3,
      "note": 57,
      "start": 29.2597,
      "duration": 0.1502,
      "velocity": 105,
      "chip": "ym2612"
    },
    {
      "channel": 1,
      "note": 105,
      "start": 29.2763,
      "duration": 0.0335,
      "velocity": 79,
      "chip": "ym2612"
    },
    {
      "channel": 1,
      "note": 105,
      "start": 29.4973,
      "duration": 0.0292,
      "velocity": 79,
      "chip": "ym2612"
    },
    {
      "channel": 2,
      "note": 90,
      "start": 29.5,
      "duration": 0.0433,
      "velocity": 87,
      "chip": "ym2612"
    },
    {
      "channel": 5,
      "note": 73,
      "start": 29.7313,
      "duration": 0.029,
      "velocity": 127,
      "chip": "ym2612"
    },
    {
      "channel": 1,
      "note": 102,
      "start": 29.7333,
      "duration": 0.0265,
      "velocity": 79,
      "chip": "ym2612"
    },
    {
      "channel": 3,
      "note": 57,
      "start": 29.7357,
      "duration": 0.2575,
      "velocity": 105,
      "chip": "ym2612"
    },
    {
      "channel": 2,
      "note": 90,
      "start": 29.7395,
      "duration": 0.0707,
      "velocity": 87,
      "chip": "ym2612"
    },
    {
      "channel": 1,
      "note": 102,
      "start": 29.964,
      "duration": 0.0459,
      "velocity": 79,
      "chip": "ym2612"
    },
    {
      "channel": 1,
      "note": 105,
      "start": 30.0807,
      "duration": 0.0459,
      "velocity": 79,
      "chip": "ym2612"
    },
    {
      "channel": 0,
      "note": 45,
      "start": 30.0827,
      "duration": 0.0272,
      "velocity": 116,
      "chip": "ym2612"
    },
    {
      "channel": 3,
      "note": 59,
      "start": 30.085,
      "duration": 0.0749,
      "velocity": 105,
      "chip": "ym2612"
    },
    {
      "channel": 2,
      "note": 90,
      "start": 30.0875,
      "duration": 0.0228,
      "velocity": 87,
      "chip": "ym2612"
    },
    {
      "channel": 1,
      "note": 105,
      "start": 30.3307,
      "duration": 0.0293,
      "velocity": 79,
      "chip": "ym2612"
    },
    {
      "channel": 0,
      "note": 45,
      "start": 30.3327,
      "duration": 0.0105,
      "velocity": 116,
      "chip": "ym2612"
    },
    {
      "channel": 2,
      "note": 90,
      "start": 30.3352,
      "duration": 0.0085,
      "velocity": 87,
      "chip": "ym2612"
    },
    {
      "channel": 1,
      "note": 102,
      "start": 30.4473,
      "duration": 0.0292,
      "velocity": 79,
      "chip": "ym2612"
    },
    {
      "channel": 0,
      "note": 45,
      "start": 30.4493,
      "duration": 0.0105,
      "velocity": 116,
      "chip": "ym2612"
    },
    {
      "channel": 2,
      "note": 90,
      "start": 30.4518,
      "duration": 0.0085,
      "velocity": 87,
      "chip": "ym2612"
    },
    {
      "channel": 5,
      "note": 76,
      "start": 30.6807,
      "duration": 0.0627,
      "velocity": 127,
      "chip": "ym2612"
    },
    {
      "channel": 1,
      "note": 98,
      "start": 30.6827,
      "duration": 0.0439,
      "velocity": 79,
      "chip": "ym2612"
    },
    {
      "channel": 3,
      "note": 59,
      "start": 30.6851,
      "duration": 0.2751,
      "velocity": 105,
      "chip": "ym2612"
    },
    {
      "channel": 1,
      "note": 95,
      "start": 30.9305,
      "duration": 0.0294,
      "velocity": 79,
      "chip": "ym2612"
    },
    {
      "channel": 3,
      "note": 55,
      "start": 31.0478,
      "duration": 0.0789,
      "velocity": 105,
      "chip": "ym2612"
    },
    {
      "channel": 1,
      "note": 105,
      "start": 31.1639,
      "duration": 0.0293,
      "velocity": 79,
      "chip": "ym2612"
    },
    {
      "channel": 0,
      "note": 45,
      "start": 31.1659,
      "duration": 0.0106,
      "velocity": 116,
      "chip": "ym2612"
    },
    {
      "channel": 1,
      "note": 105,
      "start": 31.3972,
      "duration": 0.0461,
      "velocity": 79,
      "chip": "ym2612"
    },
    {
      "channel": 2,
      "note": 90,
      "start": 31.3998,
      "duration": 0.0271,
      "velocity": 87,
      "chip": "ym2612"
    },
    {
      "channel": 5,
      "note": 76,
      "start": 31.6473,
      "duration": 0.0296,
      "velocity": 127,
      "chip": "ym2612"
    },
    {
      "channel": 1,
      "note": 102,
      "start": 31.6493,
      "duration": 0.0272,
      "velocity": 79,
      "chip": "ym2612"
    },
    {
      "channel": 2,
      "note": 90,
      "start": 31.652,
      "duration": 0.0084,
      "velocity": 87,
      "chip": "ym2612"
    },
    {
      "channel": 1,
      "note": 102,
      "start": 31.8807,
      "duration": 0.0459,
      "velocity": 79,
      "chip": "ym2612"
    },
    {
      "channel": 1,
      "note": 105,
      "start": 31.9973,
      "duration": 0.0459,
      "velocity": 79,
      "chip": "ym2612"
    },
    {
      "channel": 0,
      "note": 45,
      "start": 31.9993,
      "duration": 0.0272,
      "velocity": 116,
      "chip": "ym2612"
    },
    {
      "channel": 3,
      "note": 50,
      "start": 32.0015,
      "duration": 0.0751,
      "velocity": 105,
      "chip": "ym2612"
    },
    {
      "channel": 2,
      "note": 90,
      "start": 32.0039,
      "duration": 0.0231,
      "velocity": 87,
      "chip": "ym2612"
    },
    {
      "channel": 3,
      "note": 55,
      "start": 32.1345,
      "duration": 0.0261,
      "velocity": 105,
      "chip": "ym2612"
    },
    {
      "channel": 1,
      "note": 105,
      "start": 32.1834,
      "duration": 0.014,
      "velocity": 79,
      "chip": "ym2612"
    },
    {
      "channel": 0,
      "note": 45,
      "start": 32.1852,
      "duration": 0.007,
      "velocity": 116,
      "chip": "ym2612"
    },
    {
      "channel": 3,
      "note": 50,
      "start": 32.1868,
      "duration": 0.0254,
      "velocity": 105,
      "chip": "ym2612"
    },
    {
      "channel": 2,
      "note": 90,
      "start": 32.1914,
      "duration": 0.0011,
      "velocity": 87,
      "chip": "ym2612"
    },
    {
      "channel": 1,
      "note": 102,
      "start": 32.2379,
      "duration": 0.0292,
      "velocity": 79,
      "chip": "ym2612"
    },
    {
      "channel": 0,
      "note": 45,
      "start": 32.2399,
      "duration": 0.0106,
      "velocity": 116,
      "chip": "ym2612"
    },
    {
      "channel": 3,
      "note": 55,
      "start": 32.2422,
      "duration": 0.1083,
      "velocity": 105,
      "chip": "ym2612"
    },
    {
      "channel": 2,
      "note": 90,
      "start": 32.2446,
      "duration": 0.0064,
      "velocity": 87,
      "chip": "ym2612"
    },
    {
      "channel": 4,
      "note": 76,
      "start": 32.4714,
      "duration": 0.0125,
      "velocity": 127,
      "chip": "ym2612"
    },
    {
      "channel": 1,
      "note": 98,
      "start": 32.474,
      "duration": 0.0432,
      "velocity": 79,
      "chip": "ym2612"
    },
    {
      "channel": 3,
      "note": 55,
      "start": 32.5882,
      "duration": 0.179,
      "velocity": 105,
      "chip": "ym2612"
    },
    {
      "channel": 1,
      "note": 95,
      "start": 32.7214,
      "duration": 0.029,
      "velocity": 79,
      "chip": "ym2612"
    },
    {
      "channel": 2,
      "note": 90,
      "start": 32.7239,
      "duration": 0.0103,
      "velocity": 87,
      "chip": "ym2612"
    },
    {
      "channel": 4,
      "note": 76,
      "start": 32.8378,
      "duration": 0.0127,
      "velocity": 127,
      "chip": "ym2612"
    },
    {
      "channel": 5,
      "note": 105,
      "start": 32.9546,
      "duration": 0.0293,
      "velocity": 79,
      "chip": "ym2612"
    },
    {
      "channel": 0,
      "note": 45,
      "start": 32.957,
      "duration": 0.0101,
      "velocity": 116,
      "chip": "ym2612"
    },
    {
      "channel": 3,
      "note": 57,
      "start": 32.9593,
      "duration": 0.0745,
      "velocity": 105,
      "chip": "ym2612"
    },
    {
      "channel": 2,
      "note": 45,
      "start": 32.962,
      "duration": 0.0722,
      "velocity": 92,
      "chip": "ym2612"
    },
    {
      "channel": 5,
      "note": 105,
      "start": 33.1876,
      "duration": 0.0463,
      "velocity": 79,
      "chip": "ym2612"
    },
    {
      "channel": 2,
      "note": 90,
      "start": 33.1906,
      "duration": 0.0102,
      "velocity": 87,
      "chip": "ym2612"
    },
    {
      "channel": 5,
      "note": 102,
      "start": 33.4377,
      "duration": 0.0298,
      "velocity": 79,
      "chip": "ym2612"
    },
    {
      "channel": 4,
      "note": 76,
      "start": 33.4401,
      "duration": 0.0441,
      "velocity": 127,
      "chip": "ym2612"
    },
    {
      "channel": 3,
      "note": 57,
      "start": 33.4431,
      "duration": 0.2244,
      "velocity": 105,
      "chip": "ym2612"
    },
    {
      "channel": 1,
      "note": 45,
      "start": 33.4458,
      "duration": 0.2214,
      "velocity": 92,
      "chip": "ym2612"
    },
    {
      "channel": 2,
      "note": 90,
      "start": 33.4484,
      "duration": 0.0025,
      "velocity": 87,
      "chip": "ym2612"
    },
    {
      "channel": 5,
      "note": 102,
      "start": 33.6713,
      "duration": 0.0293,
      "velocity": 79,
      "chip": "ym2612"
    },
    {
      "channel": 5,
      "note": 105,
      "start": 33.7878,
      "duration": 0.0464,
      "velocity": 79,
      "chip": "ym2612"
    },
    {
      "channel": 0,
      "note": 45,
      "start": 33.7901,
      "duration": 0.0103,
      "velocity": 116,
      "chip": "ym2612"
    },
    {
      "channel": 3,
      "note": 59,
      "start": 33.7924,
      "duration": 0.0751,
      "velocity": 105,
      "chip": "ym2612"
    },
    {
      "channel": 1,
      "note": 47,
      "start": 33.7948,
      "duration": 0.0723,
      "velocity": 92,
      "chip": "ym2612"
    },
    {
      "channel": 2,
      "note": 90,
      "start": 33.7969,
      "duration": 0.004,
      "velocity": 87,
      "chip": "ym2612"
    },
    {
      "channel": 4,
      "note": 105,
      "start": 33.9636,
      "duration": 0.0146,
      "velocity": 79,
      "chip": "ym2612"
    },
    {
      "channel": 0,
      "note": 45,
      "start": 33.9666,
      "duration": 0.0032,
      "velocity": 116,
      "chip": "ym2612"
    },
    {
      "channel": 2,
      "note": 90,
      "start": 33.9686,
      "duration": 0.0015,
      "velocity": 87,
      "chip": "ym2612"
    },
    {
      "channel": 4,
      "note": 102,
      "start": 34.0287,
      "duration": 0.0295,
      "velocity": 79,
      "chip": "ym2612"
    },
    {
      "channel": 0,
      "note": 45,
      "start": 34.031,
      "duration": 0.0104,
      "velocity": 116,
      "chip": "ym2612"
    },
    {
      "channel": 2,
      "note": 90,
      "start": 34.0335,
      "duration": 0.0084,
      "velocity": 87,
      "chip": "ym2612"
    },
    {
      "channel": 4,
      "note": 98,
      "start": 34.2619,
      "duration": 0.03,
      "velocity": 79,
      "chip": "ym2612"
    },
    {
      "channel": 1,
      "note": 76,
      "start": 34.2642,
      "duration": 0.0272,
      "velocity": 127,
      "chip": "ym2612"
    },
    {
      "channel": 3,
      "note": 59,
      "start": 34.2668,
      "duration": 0.2746,
      "velocity": 105,
      "chip": "ym2612"
    },
    {
      "channel": 5,
      "note": 47,
      "start": 34.2695,
      "duration": 0.2724,
      "velocity": 92,
      "chip": "ym2612"
    },
    {
      "channel": 4,
      "note": 95,
      "start": 34.4952,
      "duration": 0.0466,
      "velocity": 79,
      "chip": "ym2612"
    },
    {
      "channel": 2,
      "note": 90,
      "start": 34.4979,
      "duration": 0.0272,
      "velocity": 87,
      "chip": "ym2612"
    },
    {
      "channel": 3,
      "note": 55,
      "start": 34.6293,
      "duration": 0.0621,
      "velocity": 105,
      "chip": "ym2612"
    },
    {
      "channel": 5,
      "note": 43,
      "start": 34.6319,
      "duration": 0.0599,
      "velocity": 92,
      "chip": "ym2612"
    },
    {
      "channel": 4,
      "note": 105,
      "start": 34.7451,
      "duration": 0.0297,
      "velocity": 79,
      "chip": "ym2612"
    },
    {
      "channel": 0,
      "note": 45,
      "start": 34.7474,
      "duration": 0.0107,
      "velocity": 116,
      "chip": "ym2612"
    },
    {
      "channel": 4,
      "note": 105,
      "start": 34.9785,
      "duration": 0.0463,
      "velocity": 79,
      "chip": "ym2612"
    },
    {
      "channel": 2,
      "note": 90,
      "start": 34.9814,
      "duration": 0.0102,
      "velocity": 87,
      "chip": "ym2612"
    },
    {
      "channel": 4,
      "note": 102,
      "start": 35.2119,
      "duration": 0.0463,
      "velocity": 79,
      "chip": "ym2612"
    },
    {
      "channel": 1,
      "note": 76,
      "start": 35.2141,
      "duration": 0.0273,
      "velocity": 127,
      "chip": "ym2612"
    },
    {
      "channel": 2,
      "note": 90,
      "start": 35.2169,
      "duration": 0.025,
      "velocity": 87,
      "chip": "ym2612"
    },
    {
      "channel": 4,
      "note": 102,
      "start": 35.4621,
      "duration": 0.0295,
      "velocity": 79,
      "chip": "ym2612"
    },
    {
      "channel": 0,
      "note": 45,
      "start": 35.4644,
      "duration": 0.0104,
      "velocity": 116,
      "chip": "ym2612"
    },
    {
      "channel": 4,
      "note": 105,
      "start": 35.5787,
      "duration": 0.0295,
      "velocity": 79,
      "chip": "ym2612"
    },
    {
      "channel": 0,
      "note": 45,
      "start": 35.5815,
      "duration": 0.0098,
      "velocity": 116,
      "chip": "ym2612"
    },
    {
      "channel": 3,
      "note": 50,
      "start": 35.5838,
      "duration": 0.091,
      "velocity": 105,
      "chip": "ym2612"
    },
    {
      "channel": 5,
      "note": 38,
      "start": 35.5864,
      "duration": 0.0888,
      "velocity": 92,
      "chip": "ym2612"
    },
    {
      "channel": 2,
      "note": 90,
      "start": 35.5885,
      "duration": 0.0034,
      "velocity": 87,
      "chip": "ym2612"
    },
    {
      "channel": 3,
      "note": 55,
      "start": 35.6987,
      "duration": 0.04,
      "velocity": 105,
      "chip": "ym2612"
    },
    {
      "channel": 1,
      "note": 43,
      "start": 35.7007,
      "duration": 0.0377,
      "velocity": 92,
      "chip": "ym2612"
    },
    {
      "channel": 4,
      "note": 105,
      "start": 35.7476,
      "duration": 0.0209,
      "velocity": 79,
      "chip": "ym2612"
    },
    {
      "channel": 0,
      "note": 45,
      "start": 35.7495,
      "duration": 0.0115,
      "velocity": 116,
      "chip": "ym2612"
    },
    {
      "channel": 3,
      "note": 50,
      "start": 35.7512,
      "duration": 0.0383,
      "velocity": 105,
      "chip": "ym2612"
    },
    {
      "channel": 1,
      "note": 38,
      "start": 35.7549,
      "duration": 0.034,
      "velocity": 92,
      "chip": "ym2612"
    },
    {
      "channel": 2,
      "note": 90,
      "start": 35.7568,
      "duration": 0.0046,
      "velocity": 87,
      "chip": "ym2612"
    },
    {
      "channel": 4,
      "note": 102,
      "start": 35.8172,
      "duration": 0.029,
      "velocity": 79,
      "chip": "ym2612"
    },
    {
      "channel": 0,
      "note": 45,
      "start": 35.8196,
      "duration": 0.0098,
      "velocity": 116,
      "chip": "ym2612"
    },
    {
      "channel": 3,
      "note": 55,
      "start": 35.8215,
      "duration": 0.0917,
      "velocity": 105,
      "chip": "ym2612"
    },
    {
      "channel": 1,
      "note": 43,
      "start": 35.8237,
      "duration": 0.0891,
      "velocity": 92,
      "chip": "ym2612"
    },
    {
      "channel": 2,
      "note": 90,
      "start": 35.8258,
      "duration": 0.0042,
      "velocity": 87,
      "chip": "ym2612"
    },
    {
      "channel": 3,
      "note": 57,
      "start": 35.9337,
      "duration": 0.0961,
      "velocity": 105,
      "chip": "ym2612"
    },
    {
      "channel": 1,
      "note": 45,
      "start": 35.9359,
      "duration": 0.0936,
      "velocity": 92,
      "chip": "ym2612"
    },
    {
      "channel": 4,
      "note": 98,
      "start": 36.0499,
      "duration": 0.0171,
      "velocity": 79,
      "chip": "ym2612"
    },
    {
      "channel": 3,
      "note": 59,
      "start": 36.0556,
      "duration": 0.0384,
      "velocity": 105,
      "chip": "ym2612"
    },
    {
      "channel": 1,
      "note": 47,
      "start": 36.0574,
      "duration": 0.0365,
      "velocity": 92,
      "chip": "ym2612"
    },
    {
      "channel": 0,
      "note": 76,
      "start": 36.1051,
      "duration": 0.0087,
      "velocity": 127,
      "chip": "ym2612"
    },
    {
      "channel": 3,
      "note": 62,
      "start": 36.1108,
      "duration": 0.0364,
      "velocity": 105,
      "chip": "ym2612"
    },
    {
      "channel": 1,
      "note": 50,
      "start": 36.1128,
      "duration": 0.0344,
      "velocity": 92,
      "chip": "ym2612"
    },
    {
      "channel": 4,
      "note": 100,
      "start": 36.1558,
      "duration": 0.0214,
      "velocity": 79,
      "chip": "ym2612"
    },
    {
      "channel": 3,
      "note": 67,
      "start": 36.161,
      "duration": 0.0369,
      "velocity": 105,
      "chip": "ym2612"
    },
    {
      "channel": 1,
      "note": 55,
      "start": 36.1638,
      "duration": 0.0339,
      "velocity": 92,
      "chip": "ym2612"
    },
    {
      "channel": 2,
      "note": 90,
      "start": 36.1655,
      "duration": 0.002,
      "velocity": 87,
      "chip": "ym2612"
    },
    {
      "channel": 0,
      "note": 76,
      "start": 36.2074,
      "duration": 0.0122,
      "velocity": 127,
      "chip": "ym2612"
    },
    {
      "channel": 4,
      "note": 105,
      "start": 36.2682,
      "duration": 0.0297,
      "velocity": 79,
      "chip": "ym2612"
    },
    {
      "channel": 2,
      "note": 45,
      "start": 36.2709,
      "duration": 0.0102,
      "velocity": 116,
      "chip": "ym2612"
    },
    {
      "channel": 3,
      "note": 57,
      "start": 36.2731,
      "duration": 0.0583,
      "velocity": 105,
      "chip": "ym2612"
    },
    {
      "channel": 1,
      "note": 81,
      "start": 36.2757,
      "duration": 0.0554,
      "velocity": 76,
      "chip": "ym2612"
    },
    {
      "channel": 0,
      "note": 85,
      "start": 36.278,
      "duration": 0.0363,
      "velocity": 76,
      "chip": "ym2612"
    },
    {
      "channel": 5,
      "note": 45,
      "start": 36.2805,
      "duration": 0.0511,
      "velocity": 92,
      "chip": "ym2612"
    },
    {
      "channel": 2,
      "note": 90,
      "start": 36.2841,
      "duration": 0.0013,
      "velocity": 87,
      "chip": "ym2612"
    },
    {
      "channel": 4,
      "note": 105,
      "start": 36.5016,
      "duration": 0.0298,
      "velocity": 79,
      "chip": "ym2612"
    },
    {
      "channel": 2,
      "note": 90,
      "start": 36.5044,
      "duration": 0.0104,
      "velocity": 87,
      "chip": "ym2612"
    },
    {
      "channel": 0,
      "note": 45,
      "start": 36.6188,
      "duration": 0.0122,
      "velocity": 116,
      "chip": "ym2612"
    },
    {
      "channel": 4,
      "note": 102,
      "start": 36.7349,
      "duration": 0.0463,
      "velocity": 79,
      "chip": "ym2612"
    },
    {
      "channel": 1,
      "note": 76,
      "start": 36.7376,
      "duration": 0.0268,
      "velocity": 127,
      "chip": "ym2612"
    },
    {
      "channel": 3,
      "note": 57,
      "start": 36.7402,
      "duration": 0.0909,
      "velocity": 105,
      "chip": "ym2612"
    },
    {
      "channel": 5,
      "note": 81,
      "start": 36.7428,
      "duration": 0.255,
      "velocity": 76,
      "chip": "ym2612"
    },
    {
      "channel": 2,
      "note": 85,
      "start": 36.745,
      "duration": 0.2531,
      "velocity": 76,
      "chip": "ym2612"
    },
    {
      "channel": 0,
      "note": 45,
      "start": 36.7475,
      "duration": 0.2668,
      "velocity": 92,
      "chip": "ym2612"
    },
    {
      "channel": 4,
      "note": 102,
      "start": 36.985,
      "duration": 0.0297,
      "velocity": 79,
      "chip": "ym2612"
    },
    {
      "channel": 4,
      "note": 105,
      "start": 37.1017,
      "duration": 0.0295,
      "velocity": 79,
      "chip": "ym2612"
    },
    {
      "channel": 1,
      "note": 45,
      "start": 37.1043,
      "duration": 0.0119,
      "velocity": 116,
      "chip": "ym2612"
    },
    {
      "channel": 3,
      "note": 59,
      "start": 37.1066,
      "duration": 0.0749,
      "velocity": 105,
      "chip": "ym2612"
    },
    {
      "channel": 5,
      "note": 83,
      "start": 37.1091,
      "duration": 0.0725,
      "velocity": 76,
      "chip": "ym2612"
    },
    {
      "channel": 2,
      "note": 86,
      "start": 37.1112,
      "duration": 0.0706,
      "velocity": 76,
      "chip": "ym2612"
    },
    {
      "channel": 0,
      "note": 47,
      "start": 37.1135,
      "duration": 0.0676,
      "velocity": 92,
      "chip": "ym2612"
    },
    {
      "channel": 4,
      "note": 105,
      "start": 37.2686,
      "duration": 0.021,
      "velocity": 79,
      "chip": "ym2612"
    },
    {
      "channel": 1,
      "note": 45,
      "start": 37.2707,
      "duration": 0.0044,
      "velocity": 116,
      "chip": "ym2612"
    },
    {
      "channel": 2,
      "note": 90,
      "start": 37.2735,
      "duration": 0.0019,
      "velocity": 87,
      "chip": "ym2612"
    },
    {
      "channel": 4,
      "note": 102,
      "start": 37.3241,
      "duration": 0.0462,
      "velocity": 79,
      "chip": "ym2612"
    },
    {
      "channel": 1,
      "note": 45,
      "start": 37.3265,
      "duration": 0.027,
      "velocity": 116,
      "chip": "ym2612"
    },
    {
      "channel": 2,
      "note": 90,
      "start": 37.329,
      "duration": 0.025,
      "velocity": 87,
      "chip": "ym2612"
    },
    {
      "channel": 4,
      "note": 98,
      "start": 37.5739,
      "duration": 0.03,
      "velocity": 79,
      "chip": "ym2612"
    },
    {
      "channel": 0,
      "note": 76,
      "start": 37.5762,
      "duration": 0.0272,
      "velocity": 127,
      "chip": "ym2612"
    },
    {
      "channel": 3,
      "note": 59,
      "start": 37.5793,
      "duration": 0.2908,
      "velocity": 105,
      "chip": "ym2612"
    },
    {
      "channel": 5,
      "note": 83,
      "start": 37.5819,
      "duration": 0.1721,
      "velocity": 76,
      "chip": "ym2612"
    },
    {
      "channel": 1,
      "note": 86,
      "start": 37.5841,
      "duration": 0.1695,
      "velocity": 76,
      "chip": "ym2612"
    },
    {
      "channel": 2,
      "note": 47,
      "start": 37.5866,
      "duration": 0.284,
      "velocity": 92,
      "chip": "ym2612"
    },
    {
      "channel": 4,
      "note": 95,
      "start": 37.8073,
      "duration": 0.0296,
      "velocity": 79,
      "chip": "ym2612"
    },
    {
      "channel": 0,
      "note": 45,
      "start": 37.9246,
      "duration": 0.0122,
      "velocity": 116,
      "chip": "ym2612"
    },
    {
      "channel": 3,
      "note": 55,
      "start": 37.9269,
      "duration": 0.0767,
      "velocity": 105,
      "chip": "ym2612"
    },
    {
      "channel": 1,
      "note": 79,
      "start": 37.9297,
      "duration": 0.0737,
      "velocity": 76,
      "chip": "ym2612"
    },
    {
      "channel": 5,
      "note": 83,
      "start": 37.932,
      "duration": 0.072,
      "velocity": 76,
      "chip": "ym2612"
    },
    {
      "channel": 2,
      "note": 43,
      "start": 37.9344,
      "duration": 0.0696,
      "velocity": 92,
      "chip": "ym2612"
    },
    {
      "channel": 4,
      "note": 105,
      "start": 38.0406,
      "duration": 0.0463,
      "velocity": 79,
      "chip": "ym2612"
    },
    {
      "channel": 0,
      "note": 45,
      "start": 38.0429,
      "duration": 0.0272,
      "velocity": 116,
      "chip": "ym2612"
    },
    {
      "channel": 4,
      "note": 105,
      "start": 38.2907,
      "duration": 0.0296,
      "velocity": 79,
      "chip": "ym2612"
    },
    {
      "channel": 2,
      "note": 90,
      "start": 38.294,
      "duration": 0.0099,
      "velocity": 87,
      "chip": "ym2612"
    },
    {
      "channel": 0,
      "note": 45,
      "start": 38.4077,
      "duration": 0.0125,
      "velocity": 116,
      "chip": "ym2612"
    },
    {
      "channel": 4,
      "note": 102,
      "start": 38.524,
      "duration": 0.0463,
      "velocity": 79,
      "chip": "ym2612"
    },
    {
      "channel": 1,
      "note": 76,
      "start": 38.5263,
      "duration": 0.0772,
      "velocity": 127,
      "chip": "ym2612"
    },
    {
      "channel": 2,
      "note": 90,
      "start": 38.5291,
      "duration": 0.0081,
      "velocity": 87,
      "chip": "ym2612"
    },
    {
      "channel": 4,
      "note": 102,
      "start": 38.7741,
      "duration": 0.0295,
      "velocity": 79,
      "chip": "ym2612"
    },
    {
      "channel": 4,
      "note": 105,
      "start": 38.8907,
      "duration": 0.0295,
      "velocity": 79,
      "chip": "ym2612"
    },
    {
      "channel": 3,
      "note": 50,
      "start": 38.8934,
      "duration": 0.0935,
      "velocity": 105,
      "chip": "ym2612"
    },
    {
      "channel": 5,
      "note": 38,
      "start": 38.8961,
      "duration": 0.0912,
      "velocity": 92,
      "chip": "ym2612"
    },
    {
      "channel": 2,
      "note": 90,
      "start": 38.8982,
      "duration": 0.0057,
      "velocity": 87,
      "chip": "ym2612"
    },
    {
      "channel": 0,
      "note": 45,
      "start": 39.0105,
      "duration": 0.0055,
      "velocity": 116,
      "chip": "ym2612"
    },
    {
      "channel": 3,
      "note": 55,
      "start": 39.0124,
      "duration": 0.0464,
      "velocity": 105,
      "chip": "ym2612"
    },
    {
      "channel": 1,
      "note": 43,
      "start": 39.0146,
      "duration": 0.0441,
      "velocity": 92,
      "chip": "ym2612"
    },
    {
      "channel": 4,
      "note": 105,
      "start": 39.0608,
      "duration": 0.0122,
      "velocity": 79,
      "chip": "ym2612"
    },
    {
      "channel": 2,
      "note": 90,
      "start": 39.0632,
      "duration": 0.0028,
      "velocity": 87,
      "chip": "ym2612"
    },
    {
      "channel": 4,
      "note": 102,
      "start": 39.1138,
      "duration": 0.0464,
      "velocity": 79,
      "chip": "ym2612"
    },
    {
      "channel": 0,
      "note": 45,
      "start": 39.1161,
      "duration": 0.0105,
      "velocity": 116,
      "chip": "ym2612"
    },
    {
      "channel": 2,
      "note": 90,
      "start": 39.1186,
      "duration": 0.0085,
      "velocity": 87,
      "chip": "ym2612"
    },
    {
      "channel": 0,
      "note": 45,
      "start": 39.2306,
      "duration": 0.0293,
      "velocity": 116,
      "chip": "ym2612"
    },
    {
      "channel": 3,
      "note": 50,
      "start": 39.2329,
      "duration": 0.0606,
      "velocity": 105,
      "chip": "ym2612"
    },
    {
      "channel": 1,
      "note": 38,
      "start": 39.2353,
      "duration": 0.0579,
      "velocity": 92,
      "chip": "ym2612"
    },
    {
      "channel": 4,
      "note": 98,
      "start": 39.3637,
      "duration": 0.0296,
      "velocity": 79,
      "chip": "ym2612"
    },
    {
      "channel": 5,
      "note": 76,
      "start": 39.366,
      "duration": 0.0109,
      "velocity": 127,
      "chip": "ym2612"
    },
    {
      "channel": 3,
      "note": 55,
      "start": 39.3684,
      "duration": 0.0916,
      "velocity": 105,
      "chip": "ym2612"
    },
    {
      "channel": 1,
      "note": 43,
      "start": 39.3707,
      "duration": 0.0891,
      "velocity": 92,
      "chip": "ym2612"
    },
    {
      "channel": 3,
      "note": 57,
      "start": 39.4809,
      "duration": 0.0793,
      "velocity": 105,
      "chip": "ym2612"
    },
    {
      "channel": 1,
      "note": 45,
      "start": 39.4832,
      "duration": 0.0767,
      "velocity": 92,
      "chip": "ym2612"
    },
    {
      "channel": 4,
      "note": 95,
      "start": 39.5973,
      "duration": 0.0293,
      "velocity": 79,
      "chip": "ym2612"
    },
    {
      "channel": 3,
      "note": 59,
      "start": 39.6,
      "duration": 0.0933,
      "velocity": 105,
      "chip": "ym2612"
    },
    {
      "channel": 1,
      "note": 47,
      "start": 39.6029,
      "duration": 0.0902,
      "velocity": 92,
      "chip": "ym2612"
    },
    {
      "channel": 2,
      "note": 90,
      "start": 39.6049,
      "duration": 0.0054,
      "velocity": 87,
      "chip": "ym2612"
    },
    {
      "channel": 0,
      "note": 105,
      "start": 39.8309,
      "duration": 0.0456,
      "velocity": 79,
      "chip": "ym2612"
    },
    {
      "channel": 5,
      "note": 45,
      "start": 39.8332,
      "duration": 0.0116,
      "velocity": 116,
      "chip": "ym2612"
    },
    {
      "channel": 3,
      "note": 57,
      "start": 39.8353,
      "duration": 0.0914,
      "velocity": 105,
      "chip": "ym2612"
    },
    {
      "channel": 2,
      "note": 85,
      "start": 39.838,
      "duration": 0.0555,
      "velocity": 76,
      "chip": "ym2612"
    },
    {
      "channel": 4,
      "note": 81,
      "start": 39.8404,
      "duration": 0.0698,
      "velocity": 76,
      "chip": "ym2612"
    },
    {
      "channel": 1,
      "note": 45,
      "start": 39.8425,
      "duration": 0.084,
      "velocity": 92,
      "chip": "ym2612"
    },
    {
      "channel": 0,
      "note": 105,
      "start": 40.0804,
      "duration": 0.0295,
      "velocity": 79,
      "chip": "ym2612"
    },
    {
      "channel": 2,
      "note": 90,
      "start": 40.083,
      "duration": 0.0106,
      "velocity": 87,
      "chip": "ym2612"
    },
    {
      "channel": 5,
      "note": 45,
      "start": 40.1976,
      "duration": 0.0124,
      "velocity": 116,
      "chip": "ym2612"
    },
    {
      "channel": 4,
      "note": 76,
      "start": 40.314,
      "duration": 0.0627,
      "velocity": 127,
      "chip": "ym2612"
    },
    {
      "channel": 0,
      "note": 102,
      "start": 40.316,
      "duration": 0.0272,
      "velocity": 79,
      "chip": "ym2612"
    },
    {
      "channel": 3,
      "note": 57,
      "start": 40.3184,
      "duration": 0.2915,
      "velocity": 105,
      "chip": "ym2612"
    },
    {
      "channel": 1,
      "note": 88,
      "start": 40.321,
      "duration": 0.2556,
      "velocity": 76,
      "chip": "ym2612"
    },
    {
      "channel": 2,
      "note": 81,
      "start": 40.3232,
      "duration": 0.2538,
      "velocity": 76,
      "chip": "ym2612"
    },
    {
      "channel": 5,
      "note": 45,
      "start": 40.3257,
      "duration": 0.2846,
      "velocity": 92,
      "chip": "ym2612"
    },
    {
      "channel": 0,
      "note": 102,
      "start": 40.5474,
      "duration": 0.0457,
      "velocity": 79,
      "chip": "ym2612"
    },
    {
      "channel": 0,
      "note": 105,
      "start": 40.6806,
      "duration": 0.0293,
      "velocity": 79,
      "chip": "ym2612"
    },
    {
      "channel": 4,
      "note": 45,
      "start": 40.6834,
      "duration": 0.0127,
      "velocity": 116,
      "chip": "ym2612"
    },
    {
      "channel": 3,
      "note": 59,
      "start": 40.6857,
      "duration": 0.041,
      "velocity": 105,
      "chip": "ym2612"
    },
    {
      "channel": 1,
      "note": 90,
      "start": 40.6881,
      "duration": 0.0384,
      "velocity": 76,
      "chip": "ym2612"
    },
    {
      "channel": 2,
      "note": 83,
      "start": 40.6903,
      "duration": 0.0368,
      "velocity": 76,
      "chip": "ym2612"
    },
    {
      "channel": 5,
      "note": 47,
      "start": 40.6927,
      "duration": 0.0344,
      "velocity": 92,
      "chip": "ym2612"
    },
    {
      "channel": 0,
      "note": 105,
      "start": 40.8486,
      "duration": 0.0136,
      "velocity": 79,
      "chip": "ym2612"
    },
    {
      "channel": 4,
      "note": 45,
      "start": 40.8505,
      "duration": 0.0047,
      "velocity": 116,
      "chip": "ym2612"
    },
    {
      "channel": 2,
      "note": 90,
      "start": 40.8535,
      "duration": 0.002,
      "velocity": 87,
      "chip": "ym2612"
    },
    {
      "channel": 0,
      "note": 102,
      "start": 40.9036,
      "duration": 0.0293,
      "velocity": 79,
      "chip": "ym2612"
    },
    {
      "channel": 4,
      "note": 45,
      "start": 40.9057,
      "duration": 0.0108,
      "velocity": 116,
      "chip": "ym2612"
    },
    {
      "channel": 2,
      "note": 90,
      "start": 40.9083,
      "duration": 0.0085,
      "velocity": 87,
      "chip": "ym2612"
    },
    {
      "channel": 1,
      "note": 76,
      "start": 41.137,
      "duration": 0.0792,
      "velocity": 127,
      "chip": "ym2612"
    },
    {
      "channel": 0,
      "note": 98,
      "start": 41.139,
      "duration": 0.0438,
      "velocity": 79,
      "chip": "ym2612"
    },
    {
      "channel": 3,
      "note": 59,
      "start": 41.1413,
      "duration": 0.2752,
      "velocity": 105,
      "chip": "ym2612"
    },
    {
      "channel": 5,
      "note": 90,
      "start": 41.1439,
      "duration": 0.2394,
      "velocity": 76,
      "chip": "ym2612"
    },
    {
      "channel": 4,
      "note": 86,
      "start": 41.1462,
      "duration": 0.2704,
      "velocity": 76,
      "chip": "ym2612"
    },
    {
      "channel": 2,
      "note": 47,
      "start": 41.1487,
      "duration": 0.268,
      "velocity": 92,
      "chip": "ym2612"
    },
    {
      "channel": 0,
      "note": 100,
      "start": 41.3872,
      "duration": 0.0289,
      "velocity": 79,
      "chip": "ym2612"
    },
    {
      "channel": 1,
      "note": 45,
      "start": 41.5039,
      "duration": 0.0154,
      "velocity": 116,
      "chip": "ym2612"
    },
    {
      "channel": 3,
      "note": 55,
      "start": 41.5067,
      "duration": 0.0928,
      "velocity": 105,
      "chip": "ym2612"
    },
    {
      "channel": 4,
      "note": 91,
      "start": 41.5092,
      "duration": 0.0741,
      "velocity": 76,
      "chip": "ym2612"
    },
    {
      "channel": 5,
      "note": 83,
      "start": 41.5111,
      "duration": 0.0722,
      "velocity": 76,
      "chip": "ym2612"
    },
    {
      "channel": 0,
      "note": 74,
      "start": 41.514,
      "duration": 0.0688,
      "velocity": 76,
      "chip": "ym2612"
    },
    {
      "channel": 2,
      "note": 43,
      "start": 41.5167,
      "duration": 0.0833,
      "velocity": 92,
      "chip": "ym2612"
    },
    {
      "channel": 1,
      "note": 105,
      "start": 41.6207,
      "duration": 0.0455,
      "velocity": 79,
      "chip": "ym2612"
    },
    {
      "channel": 0,
      "note": 45,
      "start": 41.6233,
      "duration": 0.0095,
      "velocity": 116,
      "chip": "ym2612"
    },
    {
      "channel": 1,
      "note": 105,
      "start": 41.8532,
      "duration": 0.0463,
      "velocity": 79,
      "chip": "ym2612"
    },
    {
      "channel": 2,
      "note": 90,
      "start": 41.856,
      "duration": 0.0272,
      "velocity": 87,
      "chip": "ym2612"
    },
    {
      "channel": 0,
      "note": 45,
      "start": 41.987,
      "duration": 0.0125,
      "velocity": 116,
      "chip": "ym2612"
    },
    {
      "channel": 1,
      "note": 102,
      "start": 42.1032,
      "duration": 0.0296,
      "velocity": 79,
      "chip": "ym2612"
    },
    {
      "channel": 4,
      "note": 76,
      "start": 42.1056,
      "duration": 0.0106,
      "velocity": 127,
      "chip": "ym2612"
    },
    {
      "channel": 2,
      "note": 90,
      "start": 42.1085,
      "duration": 0.0081,
      "velocity": 87,
      "chip": "ym2612"
    },
    {
      "channel": 1,
      "note": 102,
      "start": 42.3367,
      "duration": 0.0461,
      "velocity": 79,
      "chip": "ym2612"
    },
    {
      "channel": 1,
      "note": 105,
      "start": 42.4534,
      "duration": 0.0461,
      "velocity": 79,
      "chip": "ym2612"
    },
    {
      "channel": 0,
      "note": 45,
      "start": 42.4556,
      "duration": 0.0272,
      "velocity": 116,
      "chip": "ym2612"
    },
    {
      "channel": 2,
      "note": 90,
      "start": 42.4582,
      "duration": 0.0251,
      "velocity": 87,
      "chip": "ym2612"
    },
    {
      "channel": 1,
      "note": 105,
      "start": 42.6377,
      "duration": 0.0154,
      "velocity": 79,
      "chip": "ym2612"
    },
    {
      "channel": 0,
      "note": 45,
      "start": 42.6397,
      "duration": 0.0092,
      "velocity": 116,
      "chip": "ym2612"
    },
    {
      "channel": 3,
      "note": 50,
      "start": 42.6416,
      "duration": 0.0404,
      "velocity": 105,
      "chip": "ym2612"
    },
    {
      "channel": 4,
      "note": 38,
      "start": 42.646,
      "duration": 0.0365,
      "velocity": 92,
      "chip": "ym2612"
    },
    {
      "channel": 2,
      "note": 90,
      "start": 42.6479,
      "duration": 0.0012,
      "velocity": 87,
      "chip": "ym2612"
    },
    {
      "channel": 1,
      "note": 102,
      "start": 42.6941,
      "duration": 0.0295,
      "velocity": 79,
      "chip": "ym2612"
    },
    {
      "channel": 0,
      "note": 45,
      "start": 42.6965,
      "duration": 0.0105,
      "velocity": 116,
      "chip": "ym2612"
    },
    {
      "channel": 3,
      "note": 55,
      "start": 42.6985,
      "duration": 0.0919,
      "velocity": 105,
      "chip": "ym2612"
    },
    {
      "channel": 4,
      "note": 43,
      "start": 42.7007,
      "duration": 0.0901,
      "velocity": 92,
      "chip": "ym2612"
    },
    {
      "channel": 2,
      "note": 90,
      "start": 42.7028,
      "duration": 0.0048,
      "velocity": 87,
      "chip": "ym2612"
    },
    {
      "channel": 3,
      "note": 57,
      "start": 42.8112,
      "duration": 0.0958,
      "velocity": 105,
      "chip": "ym2612"
    },
    {
      "channel": 4,
      "note": 45,
      "start": 42.8135,
      "duration": 0.0939,
      "velocity": 92,
      "chip": "ym2612"
    },
    {
      "channel": 1,
      "note": 98,
      "start": 42.9273,
      "duration": 0.0236,
      "velocity": 79,
      "chip": "ym2612"
    },
    {
      "channel": 3,
      "note": 59,
      "start": 42.9334,
      "duration": 0.0391,
      "velocity": 105,
      "chip": "ym2612"
    },
    {
      "channel": 4,
      "note": 47,
      "start": 42.9353,
      "duration": 0.0377,
      "velocity": 92,
      "chip": "ym2612"
    },
    {
      "channel": 0,
      "note": 76,
      "start": 42.9841,
      "duration": 0.0201,
      "velocity": 127,
      "chip": "ym2612"
    },
    {
      "channel": 3,
      "note": 62,
      "start": 42.9904,
      "duration": 0.014,
      "velocity": 105,
      "chip": "ym2612"
    },
    {
      "channel": 4,
      "note": 50,
      "start": 42.9924,
      "duration": 0.0122,
      "velocity": 92,
      "chip": "ym2612"
    },
    {
      "channel": 1,
      "note": 95,
      "start": 43.0425,
      "duration": 0.0151,
      "velocity": 79,
      "chip": "ym2612"
    },
    {
      "channel": 3,
      "note": 67,
      "start": 43.0496,
      "duration": 0.0081,
      "velocity": 105,
      "chip": "ym2612"
    },
    {
      "channel": 4,
      "note": 55,
      "start": 43.0515,
      "duration": 0.0063,
      "velocity": 92,
      "chip": "ym2612"
    },
    {
      "channel": 2,
      "note": 90,
      "start": 43.0532,
      "duration": 0.001,
      "velocity": 87,
      "chip": "ym2612"
    },
    {
      "channel": 0,
      "note": 76,
      "start": 43.0947,
      "duration": 0.0077,
      "velocity": 127,
      "chip": "ym2612"
    },
    {
      "channel": 1,
      "note": 47,
      "start": 43.2064,
      "duration": 0.0127,
      "velocity": 79,
      "chip": "ym2612"
    },
    {
      "channel": 2,
      "note": 47,
      "start": 43.2093,
      "duration": 0.077,
      "velocity": 116,
      "chip": "ym2612"
    },
    {
      "channel": 3,
      "note": 59,
      "start": 43.2115,
      "duration": 0.1576,
      "velocity": 105,
      "chip": "ym2612"
    },
    {
      "channel": 4,
      "note": 47,
      "start": 43.2143,
      "duration": 3.7385,
      "velocity": 90,
      "chip": "ym2612"
    },
    {
      "channel": 1,
      "note": 47,
      "start": 43.3229,
      "duration": 0.0128,
      "velocity": 79,
      "chip": "ym2612"
    },
    {
      "channel": 1,
      "note": 59,
      "start": 43.4395,
      "duration": 0.0296,
      "velocity": 79,
      "chip": "ym2612"
    },
    {
      "channel": 2,
      "note": 90,
      "start": 43.4429,
      "duration": 0.0267,
      "velocity": 87,
      "chip": "ym2612"
    },
    {
      "channel": 1,
      "note": 47,
      "start": 43.5729,
      "duration": 0.0129,
      "velocity": 79,
      "chip": "ym2612"
    },
    {
      "channel": 5,
      "note": 47,
      "start": 43.5756,
      "duration": 0.0272,
      "velocity": 116,
      "chip": "ym2612"
    },
    {
      "channel": 3,
      "note": 47,
      "start": 43.5778,
      "duration": 0.0747,
      "velocity": 105,
      "chip": "ym2612"
    },
    {
      "channel": 0,
      "note": 47,
      "start": 43.5803,
      "duration": 0.1389,
      "velocity": 88,
      "chip": "ym2612"
    },
    {
      "channel": 1,
      "note": 47,
      "start": 43.6895,
      "duration": 0.013,
      "velocity": 79,
      "chip": "ym2612"
    },
    {
      "channel": 5,
      "note": 47,
      "start": 43.6922,
      "duration": 0.0939,
      "velocity": 116,
      "chip": "ym2612"
    },
    {
      "channel": 2,
      "note": 90,
      "start": 43.6947,
      "duration": 0.0083,
      "velocity": 87,
      "chip": "ym2612"
    },
    {
      "channel": 1,
      "note": 57,
      "start": 43.8062,
      "duration": 0.013,
      "velocity": 79,
      "chip": "ym2612"
    },
    {
      "channel": 1,
      "note": 52,
      "start": 43.9228,
      "duration": 0.013,
      "velocity": 79,
      "chip": "ym2612"
    },
    {
      "channel": 5,
      "note": 47,
      "start": 43.9253,
      "duration": 0.0944,
      "velocity": 116,
      "chip": "ym2612"
    },
    {
      "channel": 3,
      "note": 47,
      "start": 43.9275,
      "duration": 0.092,
      "velocity": 105,
      "chip": "ym2612"
    },
    {
      "channel": 0,
      "note": 47,
      "start": 43.9298,
      "duration": 0.0893,
      "velocity": 88,
      "chip": "ym2612"
    },
    {
      "channel": 1,
      "note": 50,
      "start": 44.0396,
      "duration": 0.0462,
      "velocity": 79,
      "chip": "ym2612"
    },
    {
      "channel": 2,
      "note": 90,
      "start": 44.0424,
      "duration": 0.0104,
      "velocity": 87,
      "chip": "ym2612"
    },
    {
      "channel": 1,
      "note": 54,
      "start": 44.1564,
      "duration": 0.0295,
      "velocity": 79,
      "chip": "ym2612"
    },
    {
      "channel": 1,
      "note": 47,
      "start": 44.2896,
      "duration": 0.0295,
      "velocity": 79,
      "chip": "ym2612"
    },
    {
      "channel": 2,
      "note": 90,
      "start": 44.2926,
      "duration": 0.0103,
      "velocity": 87,
      "chip": "ym2612"
    },
    {
      "channel": 1,
      "note": 47,
      "start": 44.4062,
      "duration": 0.0296,
      "velocity": 79,
      "chip": "ym2612"
    },
    {
      "channel": 5,
      "note": 47,
      "start": 44.4089,
      "duration": 0.0273,
      "velocity": 116,
      "chip": "ym2612"
    },
    {
      "channel": 3,
      "note": 47,
      "start": 44.4112,
      "duration": 0.0747,
      "velocity": 105,
      "chip": "ym2612"
    },
    {
      "channel": 0,
      "note": 47,
      "start": 44.414,
      "duration": 0.0717,
      "velocity": 88,
      "chip": "ym2612"
    },
    {
      "channel": 2,
      "note": 90,
      "start": 44.4162,
      "duration": 0.0034,
      "velocity": 87,
      "chip": "ym2612"
    },
    {
      "channel": 1,
      "note": 52,
      "start": 44.523,
      "duration": 0.0129,
      "velocity": 79,
      "chip": "ym2612"
    },
    {
      "channel": 1,
      "note": 50,
      "start": 44.64,
      "duration": 0.0124,
      "velocity": 79,
      "chip": "ym2612"
    },
    {
      "channel": 3,
      "note": 64,
      "start": 44.6425,
      "duration": 0.1099,
      "velocity": 105,
      "chip": "ym2612"
    },
    {
      "channel": 1,
      "note": 47,
      "start": 44.7563,
      "duration": 0.0461,
      "velocity": 79,
      "chip": "ym2612"
    },
    {
      "channel": 1,
      "note": 50,
      "start": 44.8729,
      "duration": 0.0463,
      "velocity": 79,
      "chip": "ym2612"
    },
    {
      "channel": 3,
      "note": 66,
      "start": 44.8754,
      "duration": 0.0771,
      "velocity": 105,
      "chip": "ym2612"
    },
    {
      "channel": 1,
      "note": 52,
      "start": 45.0065,
      "duration": 0.0293,
      "velocity": 79,
      "chip": "ym2612"
    },
    {
      "channel": 2,
      "note": 47,
      "start": 45.1237,
      "duration": 0.0126,
      "velocity": 79,
      "chip": "ym2612"
    },
    {
      "channel": 5,
      "note": 47,
      "start": 45.1266,
      "duration": 0.0763,
      "velocity": 116,
      "chip": "ym2612"
    },
    {
      "channel": 3,
      "note": 59,
      "start": 45.1289,
      "duration": 0.1069,
      "velocity": 105,
      "chip": "ym2612"
    },
    {
      "channel": 2,
      "note": 47,
      "start": 45.24,
      "duration": 0.0126,
      "velocity": 79,
      "chip": "ym2612"
    },
    {
      "channel": 2,
      "note": 59,
      "start": 45.3567,
      "duration": 0.0129,
      "velocity": 79,
      "chip": "ym2612"
    },
    {
      "channel": 2,
      "note": 47,
      "start": 45.4734,
      "duration": 0.0297,
      "velocity": 79,
      "chip": "ym2612"
    },
    {
      "channel": 5,
      "note": 47,
      "start": 45.4758,
      "duration": 0.0271,
      "velocity": 116,
      "chip": "ym2612"
    },
    {
      "channel": 3,
      "note": 47,
      "start": 45.4779,
      "duration": 0.0915,
      "velocity": 105,
      "chip": "ym2612"
    },
    {
      "channel": 0,
      "note": 47,
      "start": 45.4803,
      "duration": 0.0888,
      "velocity": 88,
      "chip": "ym2612"
    },
    {
      "channel": 2,
      "note": 47,
      "start": 45.6067,
      "duration": 0.0129,
      "velocity": 79,
      "chip": "ym2612"
    },
    {
      "channel": 5,
      "note": 47,
      "start": 45.6091,
      "duration": 0.0601,
      "velocity": 116,
      "chip": "ym2612"
    },
    {
      "channel": 2,
      "note": 57,
      "start": 45.7234,
      "duration": 0.0129,
      "velocity": 79,
      "chip": "ym2612"
    },
    {
      "channel": 2,
      "note": 52,
      "start": 45.8401,
      "duration": 0.0129,
      "velocity": 79,
      "chip": "ym2612"
    },
    {
      "channel": 5,
      "note": 47,
      "start": 45.8424,
      "duration": 0.0937,
      "velocity": 116,
      "chip": "ym2612"
    },
    {
      "channel": 3,
      "note": 47,
      "start": 45.8451,
      "duration": 0.1078,
      "velocity": 105,
      "chip": "ym2612"
    },
    {
      "channel": 0,
      "note": 47,
      "start": 45.8473,
      "duration": 0.1051,
      "velocity": 88,
      "chip": "ym2612"
    },
    {
      "channel": 2,
      "note": 50,
      "start": 45.9571,
      "duration": 0.0289,
      "velocity": 79,
      "chip": "ym2612"
    },
    {
      "channel": 2,
      "note": 54,
      "start": 46.0739,
      "duration": 0.012,
      "velocity": 79,
      "chip": "ym2612"
    },
    {
      "channel": 2,
      "note": 47,
      "start": 46.1902,
      "duration": 0.0461,
      "velocity": 79,
      "chip": "ym2612"
    },
    {
      "channel": 3,
      "note": 47,
      "start": 46.1926,
      "duration": 0.0769,
      "velocity": 105,
      "chip": "ym2612"
    },
    {
      "channel": 0,
      "note": 47,
      "start": 46.1949,
      "duration": 0.0742,
      "velocity": 88,
      "chip": "ym2612"
    },
    {
      "channel": 2,
      "note": 47,
      "start": 46.3233,
      "duration": 0.0295,
      "velocity": 79,
      "chip": "ym2612"
    },
    {
      "channel": 5,
      "note": 47,
      "start": 46.3257,
      "duration": 0.0436,
      "velocity": 116,
      "chip": "ym2612"
    },
    {
      "channel": 2,
      "note": 52,
      "start": 46.4402,
      "duration": 0.0127,
      "velocity": 79,
      "chip": "ym2612"
    },
    {
      "channel": 3,
      "note": 47,
      "start": 46.4425,
      "duration": 0.0434,
      "velocity": 105,
      "chip": "ym2612"
    },
    {
      "channel": 0,
      "note": 47,
      "start": 46.4451,
      "duration": 0.0407,
      "velocity": 88,
      "chip": "ym2612"
    },
    {
      "channel": 2,
      "note": 50,
      "start": 46.5568,
      "duration": 0.0129,
      "velocity": 79,
      "chip": "ym2612"
    },
    {
      "channel": 3,
      "note": 64,
      "start": 46.5592,
      "duration": 0.11,
      "velocity": 105,
      "chip": "ym2612"
    },
    {
      "channel": 2,
      "note": 47,
      "start": 46.6736,
      "duration": 0.0457,
      "velocity": 79,
      "chip": "ym2612"
    },
    {
      "channel": 2,
      "note": 50,
      "start": 46.7901,
      "duration": 0.0461,
      "velocity": 79,
      "chip": "ym2612"
    },
    {
      "channel": 3,
      "note": 66,
      "start": 46.7923,
      "duration": 0.0934,
      "velocity": 105,
      "chip": "ym2612"
    },
    {
      "channel": 2,
      "note": 52,
      "start": 46.907,
      "duration": 0.046,
      "velocity": 79,
      "chip": "ym2612"
    },
    {
      "channel": 1,
      "note": 47,
      "start": 47.0396,
      "duration": 0.0295,
      "velocity": 79,
      "chip": "ym2612"
    },
    {
      "channel": 5,
      "note": 47,
      "start": 47.0424,
      "duration": 0.0938,
      "velocity": 116,
      "chip": "ym2612"
    },
    {
      "channel": 3,
      "note": 59,
      "start": 47.0447,
      "duration": 0.1079,
      "velocity": 105,
      "chip": "ym2612"
    },
    {
      "channel": 4,
      "note": 35,
      "start": 47.047,
      "duration": 1.8889,
      "velocity": 90,
      "chip": "ym2612"
    },
    {
      "channel": 1,
      "note": 47,
      "start": 47.1563,
      "duration": 0.0295,
      "velocity": 79,
      "chip": "ym2612"
    },
    {
      "channel": 1,
      "note": 59,
      "start": 47.273,
      "duration": 0.0129,
      "velocity": 79,
      "chip": "ym2612"
    },
    {
      "channel": 2,
      "note": 90,
      "start": 47.2759,
      "duration": 0.0104,
      "velocity": 87,
      "chip": "ym2612"
    },
    {
      "channel": 1,
      "note": 47,
      "start": 47.3896,
      "duration": 0.0128,
      "velocity": 79,
      "chip": "ym2612"
    },
    {
      "channel": 5,
      "note": 47,
      "start": 47.3922,
      "duration": 0.044,
      "velocity": 116,
      "chip": "ym2612"
    },
    {
      "channel": 3,
      "note": 47,
      "start": 47.3944,
      "duration": 0.1415,
      "velocity": 105,
      "chip": "ym2612"
    },
    {
      "channel": 1,
      "note": 47,
      "start": 47.5063,
      "duration": 0.0462,
      "velocity": 79,
      "chip": "ym2612"
    },
    {
      "channel": 5,
      "note": 47,
      "start": 47.5089,
      "duration": 0.0939,
      "velocity": 116,
      "chip": "ym2612"
    },
    {
      "channel": 2,
      "note": 90,
      "start": 47.5115,
      "duration": 0.0248,
      "velocity": 87,
      "chip": "ym2612"
    },
    {
      "channel": 1,
      "note": 57,
      "start": 47.6397,
      "duration": 0.0128,
      "velocity": 79,
      "chip": "ym2612"
    },
    {
      "channel": 1,
      "note": 52,
      "start": 47.7563,
      "duration": 0.0295,
      "velocity": 79,
      "chip": "ym2612"
    },
    {
      "channel": 5,
      "note": 47,
      "start": 47.7588,
      "duration": 0.0938,
      "velocity": 116,
      "chip": "ym2612"
    },
    {
      "channel": 3,
      "note": 47,
      "start": 47.761,
      "duration": 0.1416,
      "velocity": 105,
      "chip": "ym2612"
    },
    {
      "channel": 1,
      "note": 54,
      "start": 47.8729,
      "duration": 0.0296,
      "velocity": 79,
      "chip": "ym2612"
    },
    {
      "channel": 2,
      "note": 90,
      "start": 47.8757,
      "duration": 0.0105,
      "velocity": 87,
      "chip": "ym2612"
    },
    {
      "channel": 1,
      "note": 50,
      "start": 47.9896,
      "duration": 0.0129,
      "velocity": 79,
      "chip": "ym2612"
    },
    {
      "channel": 1,
      "note": 47,
      "start": 48.1063,
      "duration": 0.0462,
      "velocity": 79,
      "chip": "ym2612"
    },
    {
      "channel": 3,
      "note": 47,
      "start": 48.1089,
      "duration": 0.0768,
      "velocity": 105,
      "chip": "ym2612"
    },
    {
      "channel": 2,
      "note": 90,
      "start": 48.1113,
      "duration": 0.0082,
      "velocity": 87,
      "chip": "ym2612"
    },
    {
      "channel": 1,
      "note": 47,
      "start": 48.2229,
      "duration": 0.0462,
      "velocity": 79,
      "chip": "ym2612"
    },
    {
      "channel": 5,
      "note": 47,
      "start": 48.2255,
      "duration": 0.044,
      "velocity": 116,
      "chip": "ym2612"
    },
    {
      "channel": 2,
      "note": 90,
      "start": 48.228,
      "duration": 0.0249,
      "velocity": 87,
      "chip": "ym2612"
    },
    {
      "channel": 1,
      "note": 50,
      "start": 48.3563,
      "duration": 0.0295,
      "velocity": 79,
      "chip": "ym2612"
    },
    {
      "channel": 3,
      "note": 47,
      "start": 48.3589,
      "duration": 0.0436,
      "velocity": 105,
      "chip": "ym2612"
    },
    {
      "channel": 5,
      "note": 47,
      "start": 48.4737,
      "duration": 0.0956,
      "velocity": 116,
      "chip": "ym2612"
    },
    {
      "channel": 3,
      "note": 64,
      "start": 48.476,
      "duration": 0.1433,
      "velocity": 105,
      "chip": "ym2612"
    },
    {
      "channel": 1,
      "note": 50,
      "start": 48.5896,
      "duration": 0.0295,
      "velocity": 79,
      "chip": "ym2612"
    },
    {
      "channel": 1,
      "note": 52,
      "start": 48.7062,
      "duration": 0.0462,
      "velocity": 79,
      "chip": "ym2612"
    },
    {
      "channel": 3,
      "note": 66,
      "start": 48.7087,
      "duration": 0.144,
      "velocity": 105,
      "chip": "ym2612"
    },
    {
      "channel": 2,
      "note": 90,
      "start": 48.711,
      "duration": 0.0086,
      "velocity": 87,
      "chip": "ym2612"
    },
    {
      "channel": 1,
      "note": 54,
      "start": 48.8236,
      "duration": 0.0456,
      "velocity": 79,
      "chip": "ym2612"
    },
    {
      "channel": 0,
      "note": 50,
      "start": 48.9404,
      "duration": 0.0287,
      "velocity": 79,
      "chip": "ym2612"
    },
    {
      "channel": 5,
      "note": 47,
      "start": 48.9432,
      "duration": 0.0928,
      "velocity": 116,
      "chip": "ym2612"
    },
    {
      "channel": 3,
      "note": 55,
      "start": 48.9453,
      "duration": 0.0739,
      "velocity": 105,
      "chip": "ym2612"
    },
    {
      "channel": 2,
      "note": 98,
      "start": 48.9491,
      "duration": 0.1205,
      "velocity": 83,
      "chip": "ym2612"
    },
    {
      "channel": 0,
      "note": 50,
      "start": 49.0734,
      "duration": 0.0291,
      "velocity": 79,
      "chip": "ym2612"
    },
    {
      "channel": 2,
      "note": 95,
      "start": 49.076,
      "duration": 0.0935,
      "velocity": 83,
      "chip": "ym2612"
    },
    {
      "channel": 0,
      "note": 62,
      "start": 49.1899,
      "duration": 0.0125,
      "velocity": 79,
      "chip": "ym2612"
    },
    {
      "channel": 3,
      "note": 55,
      "start": 49.1926,
      "duration": 0.1269,
      "velocity": 105,
      "chip": "ym2612"
    },
    {
      "channel": 2,
      "note": 91,
      "start": 49.1949,
      "duration": 0.0914,
      "velocity": 83,
      "chip": "ym2612"
    },
    {
      "channel": 1,
      "note": 43,
      "start": 49.1973,
      "duration": 0.1219,
      "velocity": 88,
      "chip": "ym2612"
    },
    {
      "channel": 0,
      "note": 50,
      "start": 49.3064,
      "duration": 0.0127,
      "velocity": 79,
      "chip": "ym2612"
    },
    {
      "channel": 5,
      "note": 47,
      "start": 49.3088,
      "duration": 0.0272,
      "velocity": 116,
      "chip": "ym2612"
    },
    {
      "channel": 2,
      "note": 86,
      "start": 49.3112,
      "duration": 0.0917,
      "velocity": 83,
      "chip": "ym2612"
    },
    {
      "channel": 0,
      "note": 50,
      "start": 49.4232,
      "duration": 0.0459,
      "velocity": 79,
      "chip": "ym2612"
    },
    {
      "channel": 5,
      "note": 47,
      "start": 49.4256,
      "duration": 0.0937,
      "velocity": 116,
      "chip": "ym2612"
    },
    {
      "channel": 3,
      "note": 67,
      "start": 49.4278,
      "duration": 0.2081,
      "velocity": 105,
      "chip": "ym2612"
    },
    {
      "channel": 2,
      "note": 83,
      "start": 49.43,
      "duration": 0.0896,
      "velocity": 83,
      "chip": "ym2612"
    },
    {
      "channel": 0,
      "note": 59,
      "start": 49.5397,
      "duration": 0.0461,
      "velocity": 79,
      "chip": "ym2612"
    },
    {
      "channel": 2,
      "note": 79,
      "start": 49.5422,
      "duration": 0.0941,
      "velocity": 83,
      "chip": "ym2612"
    },
    {
      "channel": 0,
      "note": 50,
      "start": 49.6732,
      "duration": 0.0125,
      "velocity": 79,
      "chip": "ym2612"
    },
    {
      "channel": 5,
      "note": 47,
      "start": 49.6755,
      "duration": 0.0941,
      "velocity": 116,
      "chip": "ym2612"
    },
    {
      "channel": 3,
      "note": 55,
      "start": 49.6776,
      "duration": 0.1419,
      "velocity": 105,
      "chip": "ym2612"
    },
    {
      "channel": 2,
      "note": 100,
      "start": 49.6799,
      "duration": 0.0898,
      "velocity": 83,
      "chip": "ym2612"
    },
    {
      "channel": 1,
      "note": 43,
      "start": 49.6821,
      "duration": 0.1371,
      "velocity": 88,
      "chip": "ym2612"
    },
    {
      "channel": 0,
      "note": 50,
      "start": 49.7899,
      "duration": 0.0292,
      "velocity": 79,
      "chip": "ym2612"
    },
    {
      "channel": 2,
      "note": 97,
      "start": 49.7923,
      "duration": 0.0939,
      "velocity": 83,
      "chip": "ym2612"
    },
    {
      "channel": 0,
      "note": 57,
      "start": 49.9064,
      "duration": 0.0293,
      "velocity": 79,
      "chip": "ym2612"
    },
    {
      "channel": 3,
      "note": 57,
      "start": 49.9086,
      "duration": 0.094,
      "velocity": 105,
      "chip": "ym2612"
    },
    {
      "channel": 2,
      "note": 93,
      "start": 49.9109,
      "duration": 0.0921,
      "velocity": 83,
      "chip": "ym2612"
    },
    {
      "channel": 1,
      "note": 45,
      "start": 49.913,
      "duration": 0.0894,
      "velocity": 88,
      "chip": "ym2612"
    },
    {
      "channel": 0,
      "note": 50,
      "start": 50.0231,
      "duration": 0.0293,
      "velocity": 79,
      "chip": "ym2612"
    },
    {
      "channel": 2,
      "note": 88,
      "start": 50.0256,
      "duration": 0.0939,
      "velocity": 83,
      "chip": "ym2612"
    },
    {
      "channel": 0,
      "note": 50,
      "start": 50.1397,
      "duration": 0.0461,
      "velocity": 79,
      "chip": "ym2612"
    },
    {
      "channel": 5,
      "note": 47,
      "start": 50.1421,
      "duration": 0.0441,
      "velocity": 116,
      "chip": "ym2612"
    },
    {
      "channel": 3,
      "note": 57,
      "start": 50.1443,
      "duration": 0.1919,
      "velocity": 105,
      "chip": "ym2612"
    },
    {
      "channel": 2,
      "note": 85,
      "start": 50.1466,
      "duration": 0.0896,
      "velocity": 83,
      "chip": "ym2612"
    },
    {
      "channel": 1,
      "note": 45,
      "start": 50.1487,
      "duration": 0.1871,
      "velocity": 88,
      "chip": "ym2612"
    },
    {
      "channel": 0,
      "note": 54,
      "start": 50.2564,
      "duration": 0.046,
      "velocity": 79,
      "chip": "ym2612"
    },
    {
      "channel": 2,
      "note": 81,
      "start": 50.2589,
      "duration": 0.0939,
      "velocity": 83,
      "chip": "ym2612"
    },
    {
      "channel": 0,
      "note": 50,
      "start": 50.3903,
      "duration": 0.012,
      "velocity": 79,
      "chip": "ym2612"
    },
    {
      "channel": 5,
      "note": 47,
      "start": 50.3928,
      "duration": 0.0934,
      "velocity": 116,
      "chip": "ym2612"
    },
    {
      "channel": 3,
      "note": 52,
      "start": 50.3949,
      "duration": 0.1412,
      "velocity": 105,
      "chip": "ym2612"
    },
    {
      "channel": 2,
      "note": 76,
      "start": 50.3972,
      "duration": 0.0891,
      "velocity": 83,
      "chip": "ym2612"
    },
    {
      "channel": 1,
      "note": 40,
      "start": 50.3993,
      "duration": 0.2031,
      "velocity": 88,
      "chip": "ym2612"
    },
    {
      "channel": 0,
      "note": 50,
      "start": 50.5066,
      "duration": 0.0292,
      "velocity": 79,
      "chip": "ym2612"
    },
    {
      "channel": 2,
      "note": 73,
      "start": 50.509,
      "duration": 0.0938,
      "velocity": 83,
      "chip": "ym2612"
    },
    {
      "channel": 0,
      "note": 52,
      "start": 50.623,
      "duration": 0.0295,
      "velocity": 79,
      "chip": "ym2612"
    },
    {
      "channel": 3,
      "note": 57,
      "start": 50.6251,
      "duration": 0.1611,
      "velocity": 105,
      "chip": "ym2612"
    },
    {
      "channel": 2,
      "note": 69,
      "start": 50.6274,
      "duration": 0.0921,
      "velocity": 83,
      "chip": "ym2612"
    },
    {
      "channel": 1,
      "note": 45,
      "start": 50.6296,
      "duration": 0.1729,
      "velocity": 88,
      "chip": "ym2612"
    },
    {
      "channel": 0,
      "note": 50,
      "start": 50.7397,
      "duration": 0.0461,
      "velocity": 79,
      "chip": "ym2612"
    },
    {
      "channel": 2,
      "note": 64,
      "start": 50.7422,
      "duration": 0.0939,
      "velocity": 83,
      "chip": "ym2612"
    },
    {
      "channel": 0,
      "note": 47,
      "start": 50.8565,
      "duration": 0.0293,
      "velocity": 79,
      "chip": "ym2612"
    },
    {
      "channel": 5,
      "note": 47,
      "start": 50.8589,
      "duration": 0.0773,
      "velocity": 116,
      "chip": "ym2612"
    },
    {
      "channel": 3,
      "note": 59,
      "start": 50.8611,
      "duration": 0.1581,
      "velocity": 105,
      "chip": "ym2612"
    },
    {
      "channel": 4,
      "note": 35,
      "start": 50.8634,
      "duration": 3.7892,
      "velocity": 90,
      "chip": "ym2612"
    },
    {
      "channel": 2,
      "note": 61,
      "start": 50.8661,
      "duration": 0.0534,
      "velocity": 83,
      "chip": "ym2612"
    },
    {
      "channel": 0,
      "note": 47,
      "start": 50.9898,
      "duration": 0.0127,
      "velocity": 79,
      "chip": "ym2612"
    },
    {
      "channel": 0,
      "note": 59,
      "start": 51.1064,
      "duration": 0.0127,
      "velocity": 79,
      "chip": "ym2612"
    },
    {
      "channel": 2,
      "note": 90,
      "start": 51.109,
      "duration": 0.0106,
      "velocity": 87,
      "chip": "ym2612"
    },
    {
      "channel": 0,
      "note": 47,
      "start": 51.223,
      "duration": 0.0127,
      "velocity": 79,
      "chip": "ym2612"
    },
    {
      "channel": 5,
      "note": 47,
      "start": 51.2254,
      "duration": 0.0109,
      "velocity": 116,
      "chip": "ym2612"
    },
    {
      "channel": 3,
      "note": 47,
      "start": 51.2274,
      "duration": 0.1419,
      "velocity": 105,
      "chip": "ym2612"
    },
    {
      "channel": 1,
      "note": 47,
      "start": 51.2304,
      "duration": 0.1387,
      "velocity": 88,
      "chip": "ym2612"
    },
    {
      "channel": 0,
      "note": 47,
      "start": 51.3398,
      "duration": 0.0127,
      "velocity": 79,
      "chip": "ym2612"
    },
    {
      "channel": 5,
      "note": 47,
      "start": 51.3421,
      "duration": 0.094,
      "velocity": 116,
      "chip": "ym2612"
    },
    {
      "channel": 2,
      "note": 90,
      "start": 51.3446,
      "duration": 0.0084,
      "velocity": 87,
      "chip": "ym2612"
    },
    {
      "channel": 0,
      "note": 57,
      "start": 51.4564,
      "duration": 0.0127,
      "velocity": 79,
      "chip": "ym2612"
    },
    {
      "channel": 0,
      "note": 52,
      "start": 51.573,
      "duration": 0.0294,
      "velocity": 79,
      "chip": "ym2612"
    },
    {
      "channel": 3,
      "note": 47,
      "start": 51.5755,
      "duration": 0.0938,
      "velocity": 105,
      "chip": "ym2612"
    },
    {
      "channel": 1,
      "note": 47,
      "start": 51.5779,
      "duration": 0.0912,
      "velocity": 88,
      "chip": "ym2612"
    },
    {
      "channel": 0,
      "note": 50,
      "start": 51.7066,
      "duration": 0.0292,
      "velocity": 79,
      "chip": "ym2612"
    },
    {
      "channel": 2,
      "note": 90,
      "start": 51.7091,
      "duration": 0.0104,
      "velocity": 87,
      "chip": "ym2612"
    },
    {
      "channel": 0,
      "note": 54,
      "start": 51.8232,
      "duration": 0.0125,
      "velocity": 79,
      "chip": "ym2612"
    },
    {
      "channel": 0,
      "note": 47,
      "start": 51.9398,
      "duration": 0.0293,
      "velocity": 79,
      "chip": "ym2612"
    },
    {
      "channel": 2,
      "note": 90,
      "start": 51.9424,
      "duration": 0.0105,
      "velocity": 87,
      "chip": "ym2612"
    },
    {
      "channel": 0,
      "note": 47,
      "start": 52.0564,
      "duration": 0.0461,
      "velocity": 79,
      "chip": "ym2612"
    },
    {
      "channel": 5,
      "note": 47,
      "start": 52.0587,
      "duration": 0.0444,
      "velocity": 116,
      "chip": "ym2612"
    },
    {
      "channel": 3,
      "note": 47,
      "start": 52.061,
      "duration": 0.075,
      "velocity": 105,
      "chip": "ym2612"
    },
    {
      "channel": 1,
      "note": 47,
      "start": 52.0634,
      "duration": 0.0724,
      "velocity": 88,
      "chip": "ym2612"
    },
    {
      "channel": 2,
      "note": 90,
      "start": 52.0655,
      "duration": 0.0041,
      "velocity": 87,
      "chip": "ym2612"
    },
    {
      "channel": 0,
      "note": 52,
      "start": 52.1734,
      "duration": 0.0124,
      "velocity": 79,
      "chip": "ym2612"
    },
    {
      "channel": 3,
      "note": 64,
      "start": 52.2902,
      "duration": 0.1789,
      "velocity": 105,
      "chip": "ym2612"
    },
    {
      "channel": 0,
      "note": 47,
      "start": 52.4232,
      "duration": 0.0292,
      "velocity": 79,
      "chip": "ym2612"
    },
    {
      "channel": 3,
      "note": 66,
      "start": 52.5402,
      "duration": 0.0789,
      "velocity": 105,
      "chip": "ym2612"
    },
    {
      "channel": 2,
      "note": 90,
      "start": 52.5424,
      "duration": 0.0104,
      "velocity": 87,
      "chip": "ym2612"
    },
    {
      "channel": 0,
      "note": 52,
      "start": 52.6568,
      "duration": 0.0291,
      "velocity": 79,
      "chip": "ym2612"
    },
    {
      "channel": 5,
      "note": 47,
      "start": 52.7734,
      "duration": 0.0129,
      "velocity": 79,
      "chip": "ym2612"
    },
    {
      "channel": 1,
      "note": 47,
      "start": 52.7761,
      "duration": 0.0763,
      "velocity": 116,
      "chip": "ym2612"
    },
    {
      "channel": 3,
      "note": 59,
      "start": 52.7784,
      "duration": 0.1074,
      "velocity": 105,
      "chip": "ym2612"
    },
    {
      "channel": 5,
      "note": 47,
      "start": 52.8897,
      "duration": 0.0296,
      "velocity": 79,
      "chip": "ym2612"
    },
    {
      "channel": 5,
      "note": 59,
      "start": 53.023,
      "duration": 0.0132,
      "velocity": 79,
      "chip": "ym2612"
    },
    {
      "channel": 2,
      "note": 90,
      "start": 53.0264,
      "duration": 0.0099,
      "velocity": 87,
      "chip": "ym2612"
    },
    {
      "channel": 5,
      "note": 47,
      "start": 53.1396,
      "duration": 0.0132,
      "velocity": 79,
      "chip": "ym2612"
    },
    {
      "channel": 1,
      "note": 47,
      "start": 53.1426,
      "duration": 0.0265,
      "velocity": 116,
      "chip": "ym2612"
    },
    {
      "channel": 3,
      "note": 47,
      "start": 53.1448,
      "duration": 0.0912,
      "velocity": 105,
      "chip": "ym2612"
    },
    {
      "channel": 0,
      "note": 47,
      "start": 53.1475,
      "duration": 0.0883,
      "velocity": 88,
      "chip": "ym2612"
    },
    {
      "channel": 5,
      "note": 47,
      "start": 53.2563,
      "duration": 0.0132,
      "velocity": 79,
      "chip": "ym2612"
    },
    {
      "channel": 1,
      "note": 47,
      "start": 53.2589,
      "duration": 0.0936,
      "velocity": 116,
      "chip": "ym2612"
    },
    {
      "channel": 2,
      "note": 90,
      "start": 53.2613,
      "duration": 0.0083,
      "velocity": 87,
      "chip": "ym2612"
    },
    {
      "channel": 5,
      "note": 57,
      "start": 53.373,
      "duration": 0.0129,
      "velocity": 79,
      "chip": "ym2612"
    },
    {
      "channel": 5,
      "note": 52,
      "start": 53.4896,
      "duration": 0.0132,
      "velocity": 79,
      "chip": "ym2612"
    },
    {
      "channel": 1,
      "note": 47,
      "start": 53.492,
      "duration": 0.0938,
      "velocity": 116,
      "chip": "ym2612"
    },
    {
      "channel": 3,
      "note": 47,
      "start": 53.4947,
      "duration": 0.1081,
      "velocity": 105,
      "chip": "ym2612"
    },
    {
      "channel": 0,
      "note": 47,
      "start": 53.4969,
      "duration": 0.1055,
      "velocity": 88,
      "chip": "ym2612"
    },
    {
      "channel": 5,
      "note": 50,
      "start": 53.6066,
      "duration": 0.0462,
      "velocity": 79,
      "chip": "ym2612"
    },
    {
      "channel": 2,
      "note": 90,
      "start": 53.6096,
      "duration": 0.0266,
      "velocity": 87,
      "chip": "ym2612"
    },
    {
      "channel": 5,
      "note": 54,
      "start": 53.7398,
      "duration": 0.013,
      "velocity": 79,
      "chip": "ym2612"
    },
    {
      "channel": 5,
      "note": 47,
      "start": 53.8565,
      "duration": 0.0295,
      "velocity": 79,
      "chip": "ym2612"
    },
    {
      "channel": 3,
      "note": 47,
      "start": 53.8593,
      "duration": 0.0767,
      "velocity": 105,
      "chip": "ym2612"
    },
    {
      "channel": 0,
      "note": 47,
      "start": 53.8616,
      "duration": 0.0742,
      "velocity": 88,
      "chip": "ym2612"
    },
    {
      "channel": 2,
      "note": 90,
      "start": 53.8637,
      "duration": 0.0059,
      "velocity": 87,
      "chip": "ym2612"
    },
    {
      "channel": 5,
      "note": 47,
      "start": 53.973,
      "duration": 0.0298,
      "velocity": 79,
      "chip": "ym2612"
    },
    {
      "channel": 2,
      "note": 90,
      "start": 53.9769,
      "duration": 0.0093,
      "velocity": 87,
      "chip": "ym2612"
    },
    {
      "channel": 5,
      "note": 52,
      "start": 54.0898,
      "duration": 0.013,
      "velocity": 79,
      "chip": "ym2612"
    },
    {
      "channel": 3,
      "note": 47,
      "start": 54.0926,
      "duration": 0.0602,
      "velocity": 105,
      "chip": "ym2612"
    },
    {
      "channel": 0,
      "note": 47,
      "start": 54.0949,
      "duration": 0.0575,
      "velocity": 88,
      "chip": "ym2612"
    },
    {
      "channel": 5,
      "note": 50,
      "start": 54.2063,
      "duration": 0.0299,
      "velocity": 79,
      "chip": "ym2612"
    },
    {
      "channel": 3,
      "note": 64,
      "start": 54.209,
      "duration": 0.1602,
      "velocity": 105,
      "chip": "ym2612"
    },
    {
      "channel": 5,
      "note": 47,
      "start": 54.3233,
      "duration": 0.0463,
      "velocity": 79,
      "chip": "ym2612"
    },
    {
      "channel": 3,
      "note": 66,
      "start": 54.4569,
      "duration": 0.0955,
      "velocity": 105,
      "chip": "ym2612"
    },
    {
      "channel": 2,
      "note": 90,
      "start": 54.4591,
      "duration": 0.0104,
      "velocity": 87,
      "chip": "ym2612"
    },
    {
      "channel": 5,
      "note": 52,
      "start": 54.5732,
      "duration": 0.0294,
      "velocity": 79,
      "chip": "ym2612"
    },
    {
      "channel": 1,
      "note": 47,
      "start": 54.6902,
      "duration": 0.029,
      "velocity": 79,
      "chip": "ym2612"
    },
    {
      "channel": 0,
      "note": 47,
      "start": 54.6925,
      "duration": 0.0932,
      "velocity": 116,
      "chip": "ym2612"
    },
    {
      "channel": 3,
      "note": 59,
      "start": 54.6947,
      "duration": 0.1077,
      "velocity": 105,
      "chip": "ym2612"
    },
    {
      "channel": 4,
      "note": 47,
      "start": 54.6973,
      "duration": 1.7885,
      "velocity": 90,
      "chip": "ym2612"
    },
    {
      "channel": 1,
      "note": 47,
      "start": 54.8064,
      "duration": 0.0461,
      "velocity": 79,
      "chip": "ym2612"
    },
    {
      "channel": 1,
      "note": 59,
      "start": 54.9236,
      "duration": 0.0455,
      "velocity": 79,
      "chip": "ym2612"
    },
    {
      "channel": 2,
      "note": 90,
      "start": 54.9262,
      "duration": 0.0266,
      "velocity": 87,
      "chip": "ym2612"
    },
    {
      "channel": 1,
      "note": 47,
      "start": 55.0564,
      "duration": 0.0295,
      "velocity": 79,
      "chip": "ym2612"
    },
    {
      "channel": 0,
      "note": 47,
      "start": 55.0587,
      "duration": 0.0271,
      "velocity": 116,
      "chip": "ym2612"
    },
    {
      "channel": 3,
      "note": 47,
      "start": 55.0608,
      "duration": 0.1254,
      "velocity": 105,
      "chip": "ym2612"
    },
    {
      "channel": 5,
      "note": 47,
      "start": 55.0634,
      "duration": 0.1229,
      "velocity": 88,
      "chip": "ym2612"
    },
    {
      "channel": 1,
      "note": 47,
      "start": 55.1732,
      "duration": 0.0293,
      "velocity": 79,
      "chip": "ym2612"
    },
    {
      "channel": 0,
      "note": 47,
      "start": 55.1753,
      "duration": 0.0938,
      "velocity": 116,
      "chip": "ym2612"
    },
    {
      "channel": 2,
      "note": 90,
      "start": 55.1779,
      "duration": 0.0085,
      "velocity": 87,
      "chip": "ym2612"
    },
    {
      "channel": 1,
      "note": 57,
      "start": 55.2898,
      "duration": 0.0293,
      "velocity": 79,
      "chip": "ym2612"
    },
    {
      "channel": 1,
      "note": 47,
      "start": 55.4064,
      "duration": 0.0294,
      "velocity": 79,
      "chip": "ym2612"
    },
    {
      "channel": 0,
      "note": 47,
      "start": 55.4085,
      "duration": 0.094,
      "velocity": 116,
      "chip": "ym2612"
    },
    {
      "channel": 3,
      "note": 47,
      "start": 55.4106,
      "duration": 0.1589,
      "velocity": 105,
      "chip": "ym2612"
    },
    {
      "channel": 5,
      "note": 47,
      "start": 55.4131,
      "duration": 0.1566,
      "velocity": 88,
      "chip": "ym2612"
    },
    {
      "channel": 1,
      "note": 47,
      "start": 55.5231,
      "duration": 0.0461,
      "velocity": 79,
      "chip": "ym2612"
    },
    {
      "channel": 2,
      "note": 90,
      "start": 55.5257,
      "duration": 0.0105,
      "velocity": 87,
      "chip": "ym2612"
    },
    {
      "channel": 1,
      "note": 54,
      "start": 55.6397,
      "duration": 0.0461,
      "velocity": 79,
      "chip": "ym2612"
    },
    {
      "channel": 1,
      "note": 47,
      "start": 55.7732,
      "duration": 0.0293,
      "velocity": 79,
      "chip": "ym2612"
    },
    {
      "channel": 3,
      "note": 47,
      "start": 55.7756,
      "duration": 0.0602,
      "velocity": 105,
      "chip": "ym2612"
    },
    {
      "channel": 5,
      "note": 47,
      "start": 55.7781,
      "duration": 0.0581,
      "velocity": 88,
      "chip": "ym2612"
    },
    {
      "channel": 2,
      "note": 90,
      "start": 55.7802,
      "duration": 0.006,
      "velocity": 87,
      "chip": "ym2612"
    },
    {
      "channel": 1,
      "note": 47,
      "start": 55.8898,
      "duration": 0.0294,
      "velocity": 79,
      "chip": "ym2612"
    },
    {
      "channel": 0,
      "note": 47,
      "start": 55.892,
      "duration": 0.0438,
      "velocity": 116,
      "chip": "ym2612"
    },
    {
      "channel": 2,
      "note": 90,
      "start": 55.8946,
      "duration": 0.025,
      "velocity": 87,
      "chip": "ym2612"
    },
    {
      "channel": 1,
      "note": 52,
      "start": 56.0064,
      "duration": 0.0293,
      "velocity": 79,
      "chip": "ym2612"
    },
    {
      "channel": 3,
      "note": 47,
      "start": 56.0089,
      "duration": 0.0604,
      "velocity": 105,
      "chip": "ym2612"
    },
    {
      "channel": 5,
      "note": 47,
      "start": 56.0114,
      "duration": 0.0582,
      "velocity": 88,
      "chip": "ym2612"
    },
    {
      "channel": 1,
      "note": 47,
      "start": 56.1232,
      "duration": 0.046,
      "velocity": 79,
      "chip": "ym2612"
    },
    {
      "channel": 3,
      "note": 64,
      "start": 56.1255,
      "duration": 0.1606,
      "velocity": 105,
      "chip": "ym2612"
    },
    {
      "channel": 1,
      "note": 47,
      "start": 56.2398,
      "duration": 0.0461,
      "velocity": 79,
      "chip": "ym2612"
    },
    {
      "channel": 1,
      "note": 50,
      "start": 56.3731,
      "duration": 0.0293,
      "velocity": 79,
      "chip": "ym2612"
    },
    {
      "channel": 3,
      "note": 66,
      "start": 56.3753,
      "duration": 0.1272,
      "velocity": 105,
      "chip": "ym2612"
    },
    {
      "channel": 2,
      "note": 90,
      "start": 56.3778,
      "duration": 0.0085,
      "velocity": 87,
      "chip": "ym2612"
    },
    {
      "channel": 1,
      "note": 47,
      "start": 56.4902,
      "duration": 0.029,
      "velocity": 79,
      "chip": "ym2612"
    },
    {
      "channel": 0,
      "note": 50,
      "start": 56.6066,
      "duration": 0.0291,
      "velocity": 79,
      "chip": "ym2612"
    },
    {
      "channel": 5,
      "note": 47,
      "start": 56.6105,
      "duration": 0.0924,
      "velocity": 116,
      "chip": "ym2612"
    },
    {
      "channel": 3,
      "note": 55,
      "start": 56.6126,
      "duration": 0.0732,
      "velocity": 105,
      "chip": "ym2612"
    },
    {
      "channel": 4,
      "note": 43,
      "start": 56.615,
      "duration": 0.9546,
      "velocity": 90,
      "chip": "ym2612"
    },
    {
      "channel": 0,
      "note": 50,
      "start": 56.7229,
      "duration": 0.0296,
      "velocity": 79,
      "chip": "ym2612"
    },
    {
      "channel": 0,
      "note": 62,
      "start": 56.8395,
      "duration": 0.0463,
      "velocity": 79,
      "chip": "ym2612"
    },
    {
      "channel": 3,
      "note": 55,
      "start": 56.8424,
      "duration": 0.1437,
      "velocity": 105,
      "chip": "ym2612"
    },
    {
      "channel": 2,
      "note": 67,
      "start": 56.8451,
      "duration": 0.1578,
      "velocity": 83,
      "chip": "ym2612"
    },
    {
      "channel": 1,
      "note": 43,
      "start": 56.8475,
      "duration": 0.1383,
      "velocity": 88,
      "chip": "ym2612"
    },
    {
      "channel": 0,
      "note": 50,
      "start": 56.9562,
      "duration": 0.0462,
      "velocity": 79,
      "chip": "ym2612"
    },
    {
      "channel": 5,
      "note": 47,
      "start": 56.9588,
      "duration": 0.0011,
      "velocity": 116,
      "chip": "ym2612"
    },
    {
      "channel": 5,
      "note": 71,
      "start": 56.9613,
      "duration": 0.1246,
      "velocity": 83,
      "chip": "ym2612"
    },
    {
      "channel": 0,
      "note": 50,
      "start": 57.0895,
      "duration": 0.0296,
      "velocity": 79,
      "chip": "ym2612"
    },
    {
      "channel": 1,
      "note": 47,
      "start": 57.0923,
      "duration": 0.0936,
      "velocity": 116,
      "chip": "ym2612"
    },
    {
      "channel": 3,
      "note": 67,
      "start": 57.0942,
      "duration": 0.1251,
      "velocity": 105,
      "chip": "ym2612"
    },
    {
      "channel": 5,
      "note": 74,
      "start": 57.0969,
      "duration": 0.106,
      "velocity": 83,
      "chip": "ym2612"
    },
    {
      "channel": 2,
      "note": 90,
      "start": 57.0989,
      "duration": 0.0039,
      "velocity": 87,
      "chip": "ym2612"
    },
    {
      "channel": 0,
      "note": 59,
      "start": 57.2068,
      "duration": 0.029,
      "velocity": 79,
      "chip": "ym2612"
    },
    {
      "channel": 5,
      "note": 79,
      "start": 57.2096,
      "duration": 0.093,
      "velocity": 83,
      "chip": "ym2612"
    },
    {
      "channel": 0,
      "note": 50,
      "start": 57.3227,
      "duration": 0.0298,
      "velocity": 79,
      "chip": "ym2612"
    },
    {
      "channel": 1,
      "note": 47,
      "start": 57.3251,
      "duration": 0.0939,
      "velocity": 116,
      "chip": "ym2612"
    },
    {
      "channel": 3,
      "note": 55,
      "start": 57.3272,
      "duration": 0.1421,
      "velocity": 105,
      "chip": "ym2612"
    },
    {
      "channel": 5,
      "note": 83,
      "start": 57.3294,
      "duration": 0.0901,
      "velocity": 83,
      "chip": "ym2612"
    },
    {
      "channel": 2,
      "note": 43,
      "start": 57.3324,
      "duration": 0.1373,
      "velocity": 88,
      "chip": "ym2612"
    },
    {
      "channel": 0,
      "note": 50,
      "start": 57.4396,
      "duration": 0.0295,
      "velocity": 79,
      "chip": "ym2612"
    },
    {
      "channel": 5,
      "note": 86,
      "start": 57.4423,
      "duration": 0.0937,
      "velocity": 83,
      "chip": "ym2612"
    },
    {
      "channel": 3,
      "note": 57,
      "start": 57.5579,
      "duration": 0.1947,
      "velocity": 105,
      "chip": "ym2612"
    },
    {
      "channel": 1,
      "note": 45,
      "start": 57.562,
      "duration": 0.1072,
      "velocity": 81,
      "chip": "ym2612"
    },
    {
      "channel": 5,
      "note": 91,
      "start": 57.5642,
      "duration": 0.0721,
      "velocity": 83,
      "chip": "ym2612"
    },
    {
      "channel": 2,
      "note": 57,
      "start": 57.5667,
      "duration": 0.2529,
      "velocity": 88,
      "chip": "ym2612"
    },
    {
      "channel": 5,
      "note": 69,
      "start": 57.6748,
      "duration": 0.1614,
      "velocity": 83,
      "chip": "ym2612"
    },
    {
      "channel": 0,
      "note": 73,
      "start": 57.8073,
      "duration": 0.1119,
      "velocity": 83,
      "chip": "ym2612"
    },
    {
      "channel": 4,
      "note": 45,
      "start": 57.9244,
      "duration": 0.1452,
      "velocity": 116,
      "chip": "ym2612"
    },
    {
      "channel": 0,
      "note": 76,
      "start": 57.9266,
      "duration": 0.1426,
      "velocity": 83,
      "chip": "ym2612"
    },
    {
      "channel": 3,
      "note": 52,
      "start": 58.0409,
      "duration": 0.195,
      "velocity": 105,
      "chip": "ym2612"
    },
    {
      "channel": 1,
      "note": 52,
      "start": 58.0429,
      "duration": 0.1096,
      "velocity": 81,
      "chip": "ym2612"
    },
    {
      "channel": 5,
      "note": 80,
      "start": 58.0451,
      "duration": 0.1078,
      "velocity": 83,
      "chip": "ym2612"
    },
    {
      "channel": 2,
      "note": 52,
      "start": 58.0474,
      "duration": 0.2222,
      "velocity": 88,
      "chip": "ym2612"
    },
    {
      "channel": 0,
      "note": 76,
      "start": 58.1585,
      "duration": 0.0939,
      "velocity": 83,
      "chip": "ym2612"
    },
    {
      "channel": 4,
      "note": 45,
      "start": 58.2571,
      "duration": 0.1788,
      "velocity": 116,
      "chip": "ym2612"
    },
    {
      "channel": 0,
      "note": 64,
      "start": 58.2739,
      "duration": 0.1286,
      "velocity": 83,
      "chip": "ym2612"
    },
    {
      "channel": 2,
      "note": 90,
      "start": 58.276,
      "duration": 0.027,
      "velocity": 87,
      "chip": "ym2612"
    }
  ]
}