{
  "track_name": "06 - Boss Defeated",
  "duration_sec": 23.632,
  "sample_rate": 44100,
  "note_count": 336,
  "unique_pitches": 37,
  "pitch_range": 57,
  "avg_note_duration": 0.3611,
  "reconstruction_stats": {
    "notes_reconstructed": 336,
    "keyon_events": 336,
    "keyoff_events": 330,
    "orphan_keyons": 6,
    "unique_pitches": 37,
    "pitch_range": 57,
    "avg_duration_sec": 0.3611
  },
  "metadata": {
    "source": "W\\World of Illusion\\06 - Boss Defeated.vgz"
  },
  "notes": [
    {
      "channel": 0,
      "note": 50,
      "start": 1.0202,
      "duration": 0.1651,
      "velocity": 96,
      "chip": "ym2612"
    },
    {
      "channel": 1,
      "note": 50,
      "start": 1.0236,
      "duration": 0.162,
      "velocity": 96,
      "chip": "ym2612"
    },
    {
      "channel": 2,
      "note": 64,
      "start": 1.0271,
      "duration": 0.1088,
      "velocity": 104,
      "chip": "ym2612"
    },
    {
      "channel": 0,
      "note": 47,
      "start": 1.336,
      "duration": 0.1497,
      "velocity": 96,
      "chip": "ym2612"
    },
    {
      "channel": 1,
      "note": 47,
      "start": 1.3366,
      "duration": 0.1493,
      "velocity": 96,
      "chip": "ym2612"
    },
    {
      "channel": 2,
      "note": 86,
      "start": 1.3373,
      "duration": 0.0988,
      "velocity": 104,
      "chip": "ym2612"
    },
    {
      "channel": 3,
      "note": 81,
      "start": 1.3381,
      "duration": 0.0984,
      "velocity": 104,
      "chip": "ym2612"
    },
    {
      "channel": 4,
      "note": 78,
      "start": 1.3388,
      "duration": 0.098,
      "velocity": 104,
      "chip": "ym2612"
    },
    {
      "channel": 5,
      "note": 74,
      "start": 1.3395,
      "duration": 0.0976,
      "velocity": 104,
      "chip": "ym2612"
    },
    {
      "channel": 2,
      "note": 86,
      "start": 1.4868,
      "duration": 0.0991,
      "velocity": 104,
      "chip": "ym2612"
    },
    {
      "channel": 3,
      "note": 81,
      "start": 1.4875,
      "duration": 0.0987,
      "velocity": 104,
      "chip": "ym2612"
    },
    {
      "channel": 4,
      "note": 78,
      "start": 1.4882,
      "duration": 0.0983,
      "velocity": 104,
      "chip": "ym2612"
    },
    {
      "channel": 5,
      "note": 74,
      "start": 1.4889,
      "duration": 0.0979,
      "velocity": 104,
      "chip": "ym2612"
    },
    {
      "channel": 0,
      "note": 49,
      "start": 1.6364,
      "duration": 0.1497,
      "velocity": 96,
      "chip": "ym2612"
    },
    {
      "channel": 1,
      "note": 49,
      "start": 1.637,
      "duration": 0.1493,
      "velocity": 96,
      "chip": "ym2612"
    },
    {
      "channel": 2,
      "note": 85,
      "start": 1.6377,
      "duration": 0.0988,
      "velocity": 104,
      "chip": "ym2612"
    },
    {
      "channel": 3,
      "note": 81,
      "start": 1.6385,
      "duration": 0.0984,
      "velocity": 104,
      "chip": "ym2612"
    },
    {
      "channel": 4,
      "note": 78,
      "start": 1.6391,
      "duration": 0.098,
      "velocity": 104,
      "chip": "ym2612"
    },
    {
      "channel": 5,
      "note": 73,
      "start": 1.6398,
      "duration": 0.0976,
      "velocity": 104,
      "chip": "ym2612"
    },
    {
      "channel": 0,
      "note": 50,
      "start": 1.9368,
      "duration": 0.1497,
      "velocity": 96,
      "chip": "ym2612"
    },
    {
      "channel": 1,
      "note": 50,
      "start": 1.9374,
      "duration": 0.1493,
      "velocity": 96,
      "chip": "ym2612"
    },
    {
      "channel": 2,
      "note": 86,
      "start": 1.9381,
      "duration": 0.0988,
      "velocity": 104,
      "chip": "ym2612"
    },
    {
      "channel": 3,
      "note": 81,
      "start": 1.9388,
      "duration": 0.0984,
      "velocity": 104,
      "chip": "ym2612"
    },
    {
      "channel": 4,
      "note": 78,
      "start": 1.9395,
      "duration": 0.098,
      "velocity": 104,
      "chip": "ym2612"
    },
    {
      "channel": 5,
      "note": 71,
      "start": 1.9402,
      "duration": 0.0976,
      "velocity": 104,
      "chip": "ym2612"
    },
    {
      "channel": 0,
      "note": 52,
      "start": 2.2371,
      "duration": 0.2999,
      "velocity": 96,
      "chip": "ym2612"
    },
    {
      "channel": 1,
      "note": 52,
      "start": 2.2378,
      "duration": 0.2995,
      "velocity": 96,
      "chip": "ym2612"
    },
    {
      "channel": 2,
      "note": 88,
      "start": 2.2385,
      "duration": 0.4488,
      "velocity": 104,
      "chip": "ym2612"
    },
    {
      "channel": 3,
      "note": 86,
      "start": 2.2392,
      "duration": 0.4484,
      "velocity": 104,
      "chip": "ym2612"
    },
    {
      "channel": 4,
      "note": 80,
      "start": 2.2399,
      "duration": 0.448,
      "velocity": 104,
      "chip": "ym2612"
    },
    {
      "channel": 5,
      "note": 76,
      "start": 2.2406,
      "duration": 0.4476,
      "velocity": 104,
      "chip": "ym2612"
    },
    {
      "channel": 0,
      "note": 40,
      "start": 2.8379,
      "duration": 0.2999,
      "velocity": 96,
      "chip": "ym2612"
    },
    {
      "channel": 1,
      "note": 40,
      "start": 2.8386,
      "duration": 0.2995,
      "velocity": 96,
      "chip": "ym2612"
    },
    {
      "channel": 2,
      "note": 92,
      "start": 2.8393,
      "duration": 0.4488,
      "velocity": 104,
      "chip": "ym2612"
    },
    {
      "channel": 3,
      "note": 86,
      "start": 2.84,
      "duration": 0.4484,
      "velocity": 104,
      "chip": "ym2612"
    },
    {
      "channel": 4,
      "note": 74,
      "start": 2.8407,
      "duration": 0.448,
      "velocity": 104,
      "chip": "ym2612"
    },
    {
      "channel": 5,
      "note": 64,
      "start": 2.8414,
      "duration": 0.4476,
      "velocity": 104,
      "chip": "ym2612"
    },
    {
      "channel": 0,
      "note": 45,
      "start": 3.4393,
      "duration": 2.4214,
      "velocity": 89,
      "chip": "ym2612"
    },
    {
      "channel": 1,
      "note": 85,
      "start": 3.4429,
      "duration": 0.2959,
      "velocity": 89,
      "chip": "ym2612"
    },
    {
      "channel": 2,
      "note": 93,
      "start": 3.4436,
      "duration": 2.4191,
      "velocity": 104,
      "chip": "ym2612"
    },
    {
      "channel": 3,
      "note": 85,
      "start": 3.4443,
      "duration": 2.4219,
      "velocity": 55,
      "chip": "ym2612"
    },
    {
      "channel": 4,
      "note": 73,
      "start": 3.445,
      "duration": 2.4215,
      "velocity": 104,
      "chip": "ym2612"
    },
    {
      "channel": 5,
      "note": 85,
      "start": 3.6763,
      "duration": 0.2974,
      "velocity": 89,
      "chip": "ym2612"
    },
    {
      "channel": 1,
      "note": 81,
      "start": 3.7394,
      "duration": 0.2998,
      "velocity": 89,
      "chip": "ym2612"
    },
    {
      "channel": 5,
      "note": 81,
      "start": 3.9742,
      "duration": 0.2998,
      "velocity": 89,
      "chip": "ym2612"
    },
    {
      "channel": 1,
      "note": 83,
      "start": 4.0398,
      "duration": 0.2998,
      "velocity": 89,
      "chip": "ym2612"
    },
    {
      "channel": 5,
      "note": 83,
      "start": 4.2746,
      "duration": 0.2998,
      "velocity": 89,
      "chip": "ym2612"
    },
    {
      "channel": 1,
      "note": 76,
      "start": 4.3402,
      "duration": 0.3,
      "velocity": 89,
      "chip": "ym2612"
    },
    {
      "channel": 5,
      "note": 76,
      "start": 4.575,
      "duration": 0.2998,
      "velocity": 89,
      "chip": "ym2612"
    },
    {
      "channel": 1,
      "note": 81,
      "start": 4.6408,
      "duration": 0.2996,
      "velocity": 89,
      "chip": "ym2612"
    },
    {
      "channel": 5,
      "note": 81,
      "start": 4.8754,
      "duration": 0.2998,
      "velocity": 89,
      "chip": "ym2612"
    },
    {
      "channel": 1,
      "note": 85,
      "start": 4.941,
      "duration": 0.2998,
      "velocity": 89,
      "chip": "ym2612"
    },
    {
      "channel": 5,
      "note": 85,
      "start": 5.1758,
      "duration": 0.2998,
      "velocity": 89,
      "chip": "ym2612"
    },
    {
      "channel": 1,
      "note": 83,
      "start": 5.2413,
      "duration": 0.3165,
      "velocity": 89,
      "chip": "ym2612"
    },
    {
      "channel": 5,
      "note": 83,
      "start": 5.4762,
      "duration": 0.2998,
      "velocity": 89,
      "chip": "ym2612"
    },
    {
      "channel": 1,
      "note": 76,
      "start": 5.5584,
      "duration": 0.3031,
      "velocity": 89,
      "chip": "ym2612"
    },
    {
      "channel": 5,
      "note": 76,
      "start": 5.7766,
      "duration": 0.301,
      "velocity": 89,
      "chip": "ym2612"
    },
    {
      "channel": 0,
      "note": 93,
      "start": 5.8613,
      "duration": 0.0638,
      "velocity": 89,
      "chip": "ym2612"
    },
    {
      "channel": 1,
      "note": 81,
      "start": 5.8621,
      "duration": 2.4057,
      "velocity": 82,
      "chip": "ym2612"
    },
    {
      "channel": 0,
      "note": 97,
      "start": 5.9256,
      "duration": 0.0829,
      "velocity": 89,
      "chip": "ym2612"
    },
    {
      "channel": 2,
      "note": 81,
      "start": 5.9289,
      "duration": 0.081,
      "velocity": 82,
      "chip": "ym2612"
    },
    {
      "channel": 0,
      "note": 95,
      "start": 6.0091,
      "duration": 0.0662,
      "velocity": 89,
      "chip": "ym2612"
    },
    {
      "channel": 2,
      "note": 85,
      "start": 6.0105,
      "duration": 0.0662,
      "velocity": 82,
      "chip": "ym2612"
    },
    {
      "channel": 0,
      "note": 88,
      "start": 6.0758,
      "duration": 0.0854,
      "velocity": 89,
      "chip": "ym2612"
    },
    {
      "channel": 2,
      "note": 83,
      "start": 6.0772,
      "duration": 0.0854,
      "velocity": 82,
      "chip": "ym2612"
    },
    {
      "channel": 5,
      "note": 81,
      "start": 6.0781,
      "duration": 2.1957,
      "velocity": 76,
      "chip": "ym2612"
    },
    {
      "channel": 0,
      "note": 93,
      "start": 6.1617,
      "duration": 0.0637,
      "velocity": 89,
      "chip": "ym2612"
    },
    {
      "channel": 2,
      "note": 76,
      "start": 6.1631,
      "duration": 0.0662,
      "velocity": 82,
      "chip": "ym2612"
    },
    {
      "channel": 0,
      "note": 97,
      "start": 6.226,
      "duration": 0.0829,
      "velocity": 89,
      "chip": "ym2612"
    },
    {
      "channel": 2,
      "note": 81,
      "start": 6.2299,
      "duration": 0.0804,
      "velocity": 82,
      "chip": "ym2612"
    },
    {
      "channel": 0,
      "note": 95,
      "start": 6.3095,
      "duration": 0.0662,
      "velocity": 89,
      "chip": "ym2612"
    },
    {
      "channel": 2,
      "note": 85,
      "start": 6.3108,
      "duration": 0.0662,
      "velocity": 82,
      "chip": "ym2612"
    },
    {
      "channel": 0,
      "note": 88,
      "start": 6.3762,
      "duration": 0.0854,
      "velocity": 89,
      "chip": "ym2612"
    },
    {
      "channel": 2,
      "note": 83,
      "start": 6.3776,
      "duration": 0.0854,
      "velocity": 82,
      "chip": "ym2612"
    },
    {
      "channel": 0,
      "note": 93,
      "start": 6.4621,
      "duration": 0.0637,
      "velocity": 89,
      "chip": "ym2612"
    },
    {
      "channel": 2,
      "note": 76,
      "start": 6.4635,
      "duration": 0.0662,
      "velocity": 82,
      "chip": "ym2612"
    },
    {
      "channel": 0,
      "note": 97,
      "start": 6.5264,
      "duration": 0.0829,
      "velocity": 89,
      "chip": "ym2612"
    },
    {
      "channel": 2,
      "note": 81,
      "start": 6.5302,
      "duration": 0.0804,
      "velocity": 82,
      "chip": "ym2612"
    },
    {
      "channel": 0,
      "note": 95,
      "start": 6.6099,
      "duration": 0.0662,
      "velocity": 89,
      "chip": "ym2612"
    },
    {
      "channel": 2,
      "note": 85,
      "start": 6.6112,
      "duration": 0.0662,
      "velocity": 82,
      "chip": "ym2612"
    },
    {
      "channel": 0,
      "note": 88,
      "start": 6.6766,
      "duration": 0.0854,
      "velocity": 89,
      "chip": "ym2612"
    },
    {
      "channel": 2,
      "note": 83,
      "start": 6.678,
      "duration": 0.0854,
      "velocity": 82,
      "chip": "ym2612"
    },
    {
      "channel": 0,
      "note": 93,
      "start": 6.7625,
      "duration": 0.0637,
      "velocity": 89,
      "chip": "ym2612"
    },
    {
      "channel": 2,
      "note": 76,
      "start": 6.7639,
      "duration": 0.0662,
      "velocity": 82,
      "chip": "ym2612"
    },
    {
      "channel": 0,
      "note": 97,
      "start": 6.8268,
      "duration": 0.0829,
      "velocity": 89,
      "chip": "ym2612"
    },
    {
      "channel": 2,
      "note": 81,
      "start": 6.8306,
      "duration": 0.0804,
      "velocity": 82,
      "chip": "ym2612"
    },
    {
      "channel": 0,
      "note": 95,
      "start": 6.9102,
      "duration": 0.0662,
      "velocity": 89,
      "chip": "ym2612"
    },
    {
      "channel": 2,
      "note": 85,
      "start": 6.9116,
      "duration": 0.0662,
      "velocity": 82,
      "chip": "ym2612"
    },
    {
      "channel": 0,
      "note": 88,
      "start": 6.977,
      "duration": 0.0854,
      "velocity": 89,
      "chip": "ym2612"
    },
    {
      "channel": 2,
      "note": 83,
      "start": 6.9783,
      "duration": 0.0856,
      "velocity": 82,
      "chip": "ym2612"
    },
    {
      "channel": 0,
      "note": 93,
      "start": 7.0629,
      "duration": 0.0637,
      "velocity": 89,
      "chip": "ym2612"
    },
    {
      "channel": 2,
      "note": 76,
      "start": 7.0645,
      "duration": 0.066,
      "velocity": 82,
      "chip": "ym2612"
    },
    {
      "channel": 0,
      "note": 97,
      "start": 7.1272,
      "duration": 0.0829,
      "velocity": 89,
      "chip": "ym2612"
    },
    {
      "channel": 2,
      "note": 81,
      "start": 7.131,
      "duration": 0.0804,
      "velocity": 82,
      "chip": "ym2612"
    },
    {
      "channel": 0,
      "note": 95,
      "start": 7.2106,
      "duration": 0.0662,
      "velocity": 89,
      "chip": "ym2612"
    },
    {
      "channel": 2,
      "note": 85,
      "start": 7.212,
      "duration": 0.0662,
      "velocity": 82,
      "chip": "ym2612"
    },
    {
      "channel": 0,
      "note": 88,
      "start": 7.2774,
      "duration": 0.0853,
      "velocity": 89,
      "chip": "ym2612"
    },
    {
      "channel": 2,
      "note": 83,
      "start": 7.2788,
      "duration": 0.0854,
      "velocity": 82,
      "chip": "ym2612"
    },
    {
      "channel": 0,
      "note": 93,
      "start": 7.3633,
      "duration": 0.0804,
      "velocity": 89,
      "chip": "ym2612"
    },
    {
      "channel": 2,
      "note": 76,
      "start": 7.3646,
      "duration": 0.0829,
      "velocity": 82,
      "chip": "ym2612"
    },
    {
      "channel": 0,
      "note": 97,
      "start": 7.4443,
      "duration": 0.0662,
      "velocity": 89,
      "chip": "ym2612"
    },
    {
      "channel": 2,
      "note": 81,
      "start": 7.4481,
      "duration": 0.0637,
      "velocity": 82,
      "chip": "ym2612"
    },
    {
      "channel": 0,
      "note": 95,
      "start": 7.511,
      "duration": 0.0829,
      "velocity": 89,
      "chip": "ym2612"
    },
    {
      "channel": 2,
      "note": 85,
      "start": 7.5124,
      "duration": 0.0829,
      "velocity": 82,
      "chip": "ym2612"
    },
    {
      "channel": 0,
      "note": 88,
      "start": 7.5944,
      "duration": 0.0687,
      "velocity": 89,
      "chip": "ym2612"
    },
    {
      "channel": 2,
      "note": 83,
      "start": 7.5958,
      "duration": 0.0687,
      "velocity": 82,
      "chip": "ym2612"
    },
    {
      "channel": 0,
      "note": 93,
      "start": 7.6637,
      "duration": 0.0804,
      "velocity": 89,
      "chip": "ym2612"
    },
    {
      "channel": 2,
      "note": 76,
      "start": 7.665,
      "duration": 0.0829,
      "velocity": 82,
      "chip": "ym2612"
    },
    {
      "channel": 0,
      "note": 97,
      "start": 7.7446,
      "duration": 0.0662,
      "velocity": 89,
      "chip": "ym2612"
    },
    {
      "channel": 2,
      "note": 81,
      "start": 7.7485,
      "duration": 0.0637,
      "velocity": 82,
      "chip": "ym2612"
    },
    {
      "channel": 0,
      "note": 95,
      "start": 7.8114,
      "duration": 0.0829,
      "velocity": 89,
      "chip": "ym2612"
    },
    {
      "channel": 2,
      "note": 85,
      "start": 7.8128,
      "duration": 0.0829,
      "velocity": 82,
      "chip": "ym2612"
    },
    {
      "channel": 0,
      "note": 88,
      "start": 7.8948,
      "duration": 0.0687,
      "velocity": 89,
      "chip": "ym2612"
    },
    {
      "channel": 2,
      "note": 83,
      "start": 7.8962,
      "duration": 0.0687,
      "velocity": 82,
      "chip": "ym2612"
    },
    {
      "channel": 0,
      "note": 93,
      "start": 7.9641,
      "duration": 0.0804,
      "velocity": 89,
      "chip": "ym2612"
    },
    {
      "channel": 2,
      "note": 76,
      "start": 7.9654,
      "duration": 0.0829,
      "velocity": 82,
      "chip": "ym2612"
    },
    {
      "channel": 3,
      "note": 88,
      "start": 7.9662,
      "duration": 0.1471,
      "velocity": 55,
      "chip": "ym2612"
    },
    {
      "channel": 0,
      "note": 97,
      "start": 8.045,
      "duration": 0.0662,
      "velocity": 89,
      "chip": "ym2612"
    },
    {
      "channel": 2,
      "note": 81,
      "start": 8.0489,
      "duration": 0.0637,
      "velocity": 82,
      "chip": "ym2612"
    },
    {
      "channel": 0,
      "note": 95,
      "start": 8.1118,
      "duration": 0.0829,
      "velocity": 89,
      "chip": "ym2612"
    },
    {
      "channel": 2,
      "note": 85,
      "start": 8.1132,
      "duration": 0.0829,
      "velocity": 82,
      "chip": "ym2612"
    },
    {
      "channel": 3,
      "note": 86,
      "start": 8.1139,
      "duration": 0.1558,
      "velocity": 55,
      "chip": "ym2612"
    },
    {
      "channel": 0,
      "note": 88,
      "start": 8.1952,
      "duration": 0.0691,
      "velocity": 76,
      "chip": "ym2612"
    },
    {
      "channel": 2,
      "note": 83,
      "start": 8.1966,
      "duration": 0.0723,
      "velocity": 82,
      "chip": "ym2612"
    },
    {
      "channel": 0,
      "note": 57,
      "start": 8.2649,
      "duration": 0.2966,
      "velocity": 76,
      "chip": "ym2612"
    },
    {
      "channel": 1,
      "note": 85,
      "start": 8.2684,
      "duration": 0.2937,
      "velocity": 82,
      "chip": "ym2612"
    },
    {
      "channel": 2,
      "note": 76,
      "start": 8.2695,
      "duration": 0.0792,
      "velocity": 93,
      "chip": "ym2612"
    },
    {
      "channel": 3,
      "note": 85,
      "start": 8.2703,
      "duration": 0.2929,
      "velocity": 55,
      "chip": "ym2612"
    },
    {
      "channel": 2,
      "note": 69,
      "start": 8.3493,
      "duration": 1.1974,
      "velocity": 93,
      "chip": "ym2612"
    },
    {
      "channel": 4,
      "note": 85,
      "start": 8.4018,
      "duration": 0.2944,
      "velocity": 82,
      "chip": "ym2612"
    },
    {
      "channel": 5,
      "note": 57,
      "start": 8.4027,
      "duration": 0.2941,
      "velocity": 76,
      "chip": "ym2612"
    },
    {
      "channel": 0,
      "note": 64,
      "start": 8.562,
      "duration": 0.6002,
      "velocity": 76,
      "chip": "ym2612"
    },
    {
      "channel": 1,
      "note": 86,
      "start": 8.5627,
      "duration": 0.2994,
      "velocity": 82,
      "chip": "ym2612"
    },
    {
      "channel": 3,
      "note": 88,
      "start": 8.5638,
      "duration": 0.2994,
      "velocity": 55,
      "chip": "ym2612"
    },
    {
      "channel": 4,
      "note": 86,
      "start": 8.6967,
      "duration": 0.2999,
      "velocity": 82,
      "chip": "ym2612"
    },
    {
      "channel": 5,
      "note": 64,
      "start": 8.6975,
      "duration": 0.6003,
      "velocity": 76,
      "chip": "ym2612"
    },
    {
      "channel": 1,
      "note": 88,
      "start": 8.8627,
      "duration": 0.3,
      "velocity": 82,
      "chip": "ym2612"
    },
    {
      "channel": 3,
      "note": 93,
      "start": 8.8639,
      "duration": 0.3001,
      "velocity": 55,
      "chip": "ym2612"
    },
    {
      "channel": 4,
      "note": 88,
      "start": 8.9972,
      "duration": 0.2999,
      "velocity": 82,
      "chip": "ym2612"
    },
    {
      "channel": 0,
      "note": 64,
      "start": 9.1626,
      "duration": 0.3,
      "velocity": 76,
      "chip": "ym2612"
    },
    {
      "channel": 1,
      "note": 85,
      "start": 9.1634,
      "duration": 0.2999,
      "velocity": 82,
      "chip": "ym2612"
    },
    {
      "channel": 3,
      "note": 92,
      "start": 9.1646,
      "duration": 0.2999,
      "velocity": 55,
      "chip": "ym2612"
    },
    {
      "channel": 4,
      "note": 85,
      "start": 9.2976,
      "duration": 0.2997,
      "velocity": 82,
      "chip": "ym2612"
    },
    {
      "channel": 5,
      "note": 64,
      "start": 9.2982,
      "duration": 0.2998,
      "velocity": 76,
      "chip": "ym2612"
    },
    {
      "channel": 0,
      "note": 62,
      "start": 9.4631,
      "duration": 0.3165,
      "velocity": 76,
      "chip": "ym2612"
    },
    {
      "channel": 1,
      "note": 93,
      "start": 9.4639,
      "duration": 0.6164,
      "velocity": 82,
      "chip": "ym2612"
    },
    {
      "channel": 3,
      "note": 93,
      "start": 9.4651,
      "duration": 1.2176,
      "velocity": 55,
      "chip": "ym2612"
    },
    {
      "channel": 2,
      "note": 74,
      "start": 9.5473,
      "duration": 1.2009,
      "velocity": 93,
      "chip": "ym2612"
    },
    {
      "channel": 4,
      "note": 93,
      "start": 9.5979,
      "duration": 0.6004,
      "velocity": 82,
      "chip": "ym2612"
    },
    {
      "channel": 5,
      "note": 62,
      "start": 9.5987,
      "duration": 0.2996,
      "velocity": 76,
      "chip": "ym2612"
    },
    {
      "channel": 0,
      "note": 69,
      "start": 9.7802,
      "duration": 0.6002,
      "velocity": 76,
      "chip": "ym2612"
    },
    {
      "channel": 5,
      "note": 69,
      "start": 9.8989,
      "duration": 0.6002,
      "velocity": 76,
      "chip": "ym2612"
    },
    {
      "channel": 1,
      "note": 90,
      "start": 10.081,
      "duration": 0.5501,
      "velocity": 82,
      "chip": "ym2612"
    },
    {
      "channel": 4,
      "note": 90,
      "start": 10.1989,
      "duration": 0.5501,
      "velocity": 82,
      "chip": "ym2612"
    },
    {
      "channel": 0,
      "note": 69,
      "start": 10.3808,
      "duration": 0.3,
      "velocity": 76,
      "chip": "ym2612"
    },
    {
      "channel": 5,
      "note": 69,
      "start": 10.4996,
      "duration": 0.2998,
      "velocity": 76,
      "chip": "ym2612"
    },
    {
      "channel": 0,
      "note": 64,
      "start": 10.6814,
      "duration": 0.6002,
      "velocity": 76,
      "chip": "ym2612"
    },
    {
      "channel": 1,
      "note": 88,
      "start": 10.6822,
      "duration": 0.4495,
      "velocity": 82,
      "chip": "ym2612"
    },
    {
      "channel": 2,
      "note": 73,
      "start": 10.7488,
      "duration": 0.6001,
      "velocity": 93,
      "chip": "ym2612"
    },
    {
      "channel": 4,
      "note": 88,
      "start": 10.7992,
      "duration": 0.4504,
      "velocity": 82,
      "chip": "ym2612"
    },
    {
      "channel": 5,
      "note": 64,
      "start": 10.8,
      "duration": 0.6004,
      "velocity": 76,
      "chip": "ym2612"
    },
    {
      "channel": 3,
      "note": 88,
      "start": 10.9829,
      "duration": 0.3005,
      "velocity": 55,
      "chip": "ym2612"
    },
    {
      "channel": 1,
      "note": 90,
      "start": 11.1323,
      "duration": 0.1499,
      "velocity": 82,
      "chip": "ym2612"
    },
    {
      "channel": 4,
      "note": 90,
      "start": 11.2501,
      "duration": 0.1495,
      "velocity": 82,
      "chip": "ym2612"
    },
    {
      "channel": 0,
      "note": 52,
      "start": 11.2821,
      "duration": 0.6002,
      "velocity": 76,
      "chip": "ym2612"
    },
    {
      "channel": 1,
      "note": 88,
      "start": 11.2829,
      "duration": 0.2994,
      "velocity": 82,
      "chip": "ym2612"
    },
    {
      "channel": 3,
      "note": 93,
      "start": 11.284,
      "duration": 0.2993,
      "velocity": 55,
      "chip": "ym2612"
    },
    {
      "channel": 2,
      "note": 71,
      "start": 11.3496,
      "duration": 0.6168,
      "velocity": 93,
      "chip": "ym2612"
    },
    {
      "channel": 4,
      "note": 88,
      "start": 11.4002,
      "duration": 0.3165,
      "velocity": 82,
      "chip": "ym2612"
    },
    {
      "channel": 5,
      "note": 52,
      "start": 11.401,
      "duration": 0.6168,
      "velocity": 76,
      "chip": "ym2612"
    },
    {
      "channel": 1,
      "note": 86,
      "start": 11.5829,
      "duration": 0.3002,
      "velocity": 82,
      "chip": "ym2612"
    },
    {
      "channel": 3,
      "note": 92,
      "start": 11.584,
      "duration": 0.3002,
      "velocity": 55,
      "chip": "ym2612"
    },
    {
      "channel": 4,
      "note": 86,
      "start": 11.7173,
      "duration": 0.2998,
      "velocity": 82,
      "chip": "ym2612"
    },
    {
      "channel": 0,
      "note": 57,
      "start": 11.8829,
      "duration": 1.1509,
      "velocity": 76,
      "chip": "ym2612"
    },
    {
      "channel": 1,
      "note": 85,
      "start": 11.8837,
      "duration": 0.5998,
      "velocity": 82,
      "chip": "ym2612"
    },
    {
      "channel": 3,
      "note": 93,
      "start": 11.8848,
      "duration": 0.299,
      "velocity": 55,
      "chip": "ym2612"
    },
    {
      "channel": 2,
      "note": 69,
      "start": 11.9671,
      "duration": 1.1508,
      "velocity": 93,
      "chip": "ym2612"
    },
    {
      "channel": 4,
      "note": 85,
      "start": 12.0177,
      "duration": 0.6003,
      "velocity": 82,
      "chip": "ym2612"
    },
    {
      "channel": 5,
      "note": 57,
      "start": 12.0184,
      "duration": 1.1509,
      "velocity": 76,
      "chip": "ym2612"
    },
    {
      "channel": 3,
      "note": 88,
      "start": 12.1844,
      "duration": 0.3001,
      "velocity": 55,
      "chip": "ym2612"
    },
    {
      "channel": 1,
      "note": 81,
      "start": 12.4841,
      "duration": 0.5501,
      "velocity": 82,
      "chip": "ym2612"
    },
    {
      "channel": 3,
      "note": 85,
      "start": 12.4852,
      "duration": 0.2995,
      "velocity": 55,
      "chip": "ym2612"
    },
    {
      "channel": 4,
      "note": 81,
      "start": 12.6185,
      "duration": 0.5505,
      "velocity": 82,
      "chip": "ym2612"
    },
    {
      "channel": 3,
      "note": 81,
      "start": 12.7853,
      "duration": 0.3005,
      "velocity": 55,
      "chip": "ym2612"
    },
    {
      "channel": 0,
      "note": 51,
      "start": 13.0844,
      "duration": 0.2999,
      "velocity": 76,
      "chip": "ym2612"
    },
    {
      "channel": 1,
      "note": 78,
      "start": 13.0852,
      "duration": 0.2998,
      "velocity": 82,
      "chip": "ym2612"
    },
    {
      "channel": 3,
      "note": 83,
      "start": 13.0864,
      "duration": 0.2996,
      "velocity": 55,
      "chip": "ym2612"
    },
    {
      "channel": 2,
      "note": 66,
      "start": 13.1686,
      "duration": 0.6002,
      "velocity": 93,
      "chip": "ym2612"
    },
    {
      "channel": 4,
      "note": 78,
      "start": 13.2192,
      "duration": 0.2998,
      "velocity": 82,
      "chip": "ym2612"
    },
    {
      "channel": 5,
      "note": 51,
      "start": 13.22,
      "duration": 0.2998,
      "velocity": 76,
      "chip": "ym2612"
    },
    {
      "channel": 0,
      "note": 59,
      "start": 13.3849,
      "duration": 0.6169,
      "velocity": 76,
      "chip": "ym2612"
    },
    {
      "channel": 1,
      "note": 80,
      "start": 13.3856,
      "duration": 0.2994,
      "velocity": 82,
      "chip": "ym2612"
    },
    {
      "channel": 3,
      "note": 87,
      "start": 13.3867,
      "duration": 0.2994,
      "velocity": 55,
      "chip": "ym2612"
    },
    {
      "channel": 4,
      "note": 80,
      "start": 13.5196,
      "duration": 0.2998,
      "velocity": 82,
      "chip": "ym2612"
    },
    {
      "channel": 5,
      "note": 59,
      "start": 13.5204,
      "duration": 0.6001,
      "velocity": 76,
      "chip": "ym2612"
    },
    {
      "channel": 1,
      "note": 81,
      "start": 13.6856,
      "duration": 0.3167,
      "velocity": 82,
      "chip": "ym2612"
    },
    {
      "channel": 3,
      "note": 90,
      "start": 13.6867,
      "duration": 0.3167,
      "velocity": 55,
      "chip": "ym2612"
    },
    {
      "channel": 2,
      "note": 63,
      "start": 13.7694,
      "duration": 0.9007,
      "velocity": 93,
      "chip": "ym2612"
    },
    {
      "channel": 4,
      "note": 81,
      "start": 13.82,
      "duration": 0.2998,
      "velocity": 82,
      "chip": "ym2612"
    },
    {
      "channel": 0,
      "note": 59,
      "start": 14.0022,
      "duration": 0.3,
      "velocity": 76,
      "chip": "ym2612"
    },
    {
      "channel": 1,
      "note": 78,
      "start": 14.0029,
      "duration": 0.2999,
      "velocity": 82,
      "chip": "ym2612"
    },
    {
      "channel": 3,
      "note": 89,
      "start": 14.004,
      "duration": 0.2999,
      "velocity": 55,
      "chip": "ym2612"
    },
    {
      "channel": 4,
      "note": 78,
      "start": 14.1204,
      "duration": 0.2999,
      "velocity": 82,
      "chip": "ym2612"
    },
    {
      "channel": 5,
      "note": 59,
      "start": 14.121,
      "duration": 0.3,
      "velocity": 76,
      "chip": "ym2612"
    },
    {
      "channel": 0,
      "note": 47,
      "start": 14.3027,
      "duration": 0.2998,
      "velocity": 76,
      "chip": "ym2612"
    },
    {
      "channel": 1,
      "note": 83,
      "start": 14.3035,
      "duration": 0.5998,
      "velocity": 82,
      "chip": "ym2612"
    },
    {
      "channel": 3,
      "note": 90,
      "start": 14.3046,
      "duration": 0.2995,
      "velocity": 55,
      "chip": "ym2612"
    },
    {
      "channel": 4,
      "note": 83,
      "start": 14.4209,
      "duration": 0.6001,
      "velocity": 82,
      "chip": "ym2612"
    },
    {
      "channel": 5,
      "note": 47,
      "start": 14.4216,
      "duration": 0.2994,
      "velocity": 76,
      "chip": "ym2612"
    },
    {
      "channel": 0,
      "note": 59,
      "start": 14.6031,
      "duration": 0.6002,
      "velocity": 76,
      "chip": "ym2612"
    },
    {
      "channel": 3,
      "note": 87,
      "start": 14.6047,
      "duration": 0.2996,
      "velocity": 55,
      "chip": "ym2612"
    },
    {
      "channel": 2,
      "note": 64,
      "start": 14.6706,
      "duration": 0.2997,
      "velocity": 93,
      "chip": "ym2612"
    },
    {
      "channel": 5,
      "note": 59,
      "start": 14.7216,
      "duration": 0.6001,
      "velocity": 76,
      "chip": "ym2612"
    },
    {
      "channel": 1,
      "note": 81,
      "start": 14.9039,
      "duration": 0.5501,
      "velocity": 82,
      "chip": "ym2612"
    },
    {
      "channel": 3,
      "note": 83,
      "start": 14.9049,
      "duration": 0.2996,
      "velocity": 55,
      "chip": "ym2612"
    },
    {
      "channel": 2,
      "note": 66,
      "start": 14.9709,
      "duration": 0.2999,
      "velocity": 93,
      "chip": "ym2612"
    },
    {
      "channel": 4,
      "note": 81,
      "start": 15.0215,
      "duration": 0.5506,
      "velocity": 82,
      "chip": "ym2612"
    },
    {
      "channel": 0,
      "note": 59,
      "start": 15.2037,
      "duration": 0.3,
      "velocity": 76,
      "chip": "ym2612"
    },
    {
      "channel": 3,
      "note": 93,
      "start": 15.2052,
      "duration": 0.3002,
      "velocity": 55,
      "chip": "ym2612"
    },
    {
      "channel": 2,
      "note": 69,
      "start": 15.2714,
      "duration": 0.2997,
      "velocity": 93,
      "chip": "ym2612"
    },
    {
      "channel": 5,
      "note": 59,
      "start": 15.3222,
      "duration": 0.3002,
      "velocity": 76,
      "chip": "ym2612"
    },
    {
      "channel": 0,
      "note": 52,
      "start": 15.5042,
      "duration": 0.6002,
      "velocity": 76,
      "chip": "ym2612"
    },
    {
      "channel": 1,
      "note": 80,
      "start": 15.505,
      "duration": 0.2994,
      "velocity": 82,
      "chip": "ym2612"
    },
    {
      "channel": 3,
      "note": 92,
      "start": 15.5061,
      "duration": 0.1487,
      "velocity": 55,
      "chip": "ym2612"
    },
    {
      "channel": 2,
      "note": 64,
      "start": 15.5717,
      "duration": 0.2998,
      "velocity": 93,
      "chip": "ym2612"
    },
    {
      "channel": 4,
      "note": 80,
      "start": 15.6223,
      "duration": 0.2998,
      "velocity": 82,
      "chip": "ym2612"
    },
    {
      "channel": 5,
      "note": 52,
      "start": 15.6231,
      "duration": 0.6168,
      "velocity": 76,
      "chip": "ym2612"
    },
    {
      "channel": 3,
      "note": 93,
      "start": 15.6554,
      "duration": 0.15,
      "velocity": 55,
      "chip": "ym2612"
    },
    {
      "channel": 1,
      "note": 79,
      "start": 15.805,
      "duration": 0.1496,
      "velocity": 82,
      "chip": "ym2612"
    },
    {
      "channel": 3,
      "note": 92,
      "start": 15.8061,
      "duration": 0.1495,
      "velocity": 55,
      "chip": "ym2612"
    },
    {
      "channel": 2,
      "note": 63,
      "start": 15.8721,
      "duration": 0.1663,
      "velocity": 93,
      "chip": "ym2612"
    },
    {
      "channel": 4,
      "note": 79,
      "start": 15.9227,
      "duration": 0.1661,
      "velocity": 82,
      "chip": "ym2612"
    },
    {
      "channel": 1,
      "note": 80,
      "start": 15.9552,
      "duration": 0.15,
      "velocity": 82,
      "chip": "ym2612"
    },
    {
      "channel": 2,
      "note": 64,
      "start": 16.0389,
      "duration": 0.1496,
      "velocity": 93,
      "chip": "ym2612"
    },
    {
      "channel": 4,
      "note": 80,
      "start": 16.0893,
      "duration": 0.1499,
      "velocity": 82,
      "chip": "ym2612"
    },
    {
      "channel": 0,
      "note": 54,
      "start": 16.105,
      "duration": 0.6003,
      "velocity": 76,
      "chip": "ym2612"
    },
    {
      "channel": 1,
      "note": 81,
      "start": 16.1058,
      "duration": 0.2994,
      "velocity": 82,
      "chip": "ym2612"
    },
    {
      "channel": 3,
      "note": 90,
      "start": 16.1069,
      "duration": 0.1487,
      "velocity": 55,
      "chip": "ym2612"
    },
    {
      "channel": 2,
      "note": 66,
      "start": 16.1891,
      "duration": 0.2998,
      "velocity": 93,
      "chip": "ym2612"
    },
    {
      "channel": 4,
      "note": 81,
      "start": 16.2398,
      "duration": 0.2998,
      "velocity": 82,
      "chip": "ym2612"
    },
    {
      "channel": 5,
      "note": 54,
      "start": 16.2405,
      "duration": 0.6002,
      "velocity": 76,
      "chip": "ym2612"
    },
    {
      "channel": 3,
      "note": 92,
      "start": 16.2562,
      "duration": 0.15,
      "velocity": 55,
      "chip": "ym2612"
    },
    {
      "channel": 1,
      "note": 80,
      "start": 16.4058,
      "duration": 0.1496,
      "velocity": 82,
      "chip": "ym2612"
    },
    {
      "channel": 3,
      "note": 90,
      "start": 16.4069,
      "duration": 0.1496,
      "velocity": 55,
      "chip": "ym2612"
    },
    {
      "channel": 2,
      "note": 65,
      "start": 16.4895,
      "duration": 0.1496,
      "velocity": 93,
      "chip": "ym2612"
    },
    {
      "channel": 4,
      "note": 80,
      "start": 16.5402,
      "duration": 0.1494,
      "velocity": 82,
      "chip": "ym2612"
    },
    {
      "channel": 1,
      "note": 81,
      "start": 16.556,
      "duration": 0.1499,
      "velocity": 82,
      "chip": "ym2612"
    },
    {
      "channel": 2,
      "note": 66,
      "start": 16.6397,
      "duration": 0.1496,
      "velocity": 93,
      "chip": "ym2612"
    },
    {
      "channel": 4,
      "note": 81,
      "start": 16.6901,
      "duration": 0.1499,
      "velocity": 82,
      "chip": "ym2612"
    },
    {
      "channel": 0,
      "note": 56,
      "start": 16.7058,
      "duration": 1.151,
      "velocity": 76,
      "chip": "ym2612"
    },
    {
      "channel": 1,
      "note": 83,
      "start": 16.7066,
      "duration": 0.5998,
      "velocity": 82,
      "chip": "ym2612"
    },
    {
      "channel": 3,
      "note": 88,
      "start": 16.7076,
      "duration": 0.1487,
      "velocity": 55,
      "chip": "ym2612"
    },
    {
      "channel": 2,
      "note": 68,
      "start": 16.7899,
      "duration": 1.1509,
      "velocity": 93,
      "chip": "ym2612"
    },
    {
      "channel": 4,
      "note": 83,
      "start": 16.8405,
      "duration": 0.6003,
      "velocity": 82,
      "chip": "ym2612"
    },
    {
      "channel": 5,
      "note": 56,
      "start": 16.8413,
      "duration": 1.151,
      "velocity": 76,
      "chip": "ym2612"
    },
    {
      "channel": 3,
      "note": 90,
      "start": 16.857,
      "duration": 0.1497,
      "velocity": 55,
      "chip": "ym2612"
    },
    {
      "channel": 3,
      "note": 88,
      "start": 17.0073,
      "duration": 0.1495,
      "velocity": 55,
      "chip": "ym2612"
    },
    {
      "channel": 1,
      "note": 76,
      "start": 17.3069,
      "duration": 0.5501,
      "velocity": 82,
      "chip": "ym2612"
    },
    {
      "channel": 3,
      "note": 86,
      "start": 17.308,
      "duration": 0.1492,
      "velocity": 55,
      "chip": "ym2612"
    },
    {
      "channel": 4,
      "note": 76,
      "start": 17.4414,
      "duration": 0.5506,
      "velocity": 82,
      "chip": "ym2612"
    },
    {
      "channel": 3,
      "note": 88,
      "start": 17.4579,
      "duration": 0.1497,
      "velocity": 55,
      "chip": "ym2612"
    },
    {
      "channel": 3,
      "note": 86,
      "start": 17.6082,
      "duration": 0.1495,
      "velocity": 55,
      "chip": "ym2612"
    },
    {
      "channel": 0,
      "note": 57,
      "start": 17.9074,
      "duration": 0.3165,
      "velocity": 76,
      "chip": "ym2612"
    },
    {
      "channel": 1,
      "note": 85,
      "start": 17.9104,
      "duration": 0.3141,
      "velocity": 82,
      "chip": "ym2612"
    },
    {
      "channel": 3,
      "note": 85,
      "start": 17.9117,
      "duration": 0.314,
      "velocity": 55,
      "chip": "ym2612"
    },
    {
      "channel": 2,
      "note": 69,
      "start": 17.9915,
      "duration": 1.2008,
      "velocity": 93,
      "chip": "ym2612"
    },
    {
      "channel": 4,
      "note": 85,
      "start": 18.0444,
      "duration": 0.2975,
      "velocity": 82,
      "chip": "ym2612"
    },
    {
      "channel": 5,
      "note": 57,
      "start": 18.0453,
      "duration": 0.2973,
      "velocity": 76,
      "chip": "ym2612"
    },
    {
      "channel": 0,
      "note": 64,
      "start": 18.2244,
      "duration": 0.6002,
      "velocity": 76,
      "chip": "ym2612"
    },
    {
      "channel": 1,
      "note": 86,
      "start": 18.2252,
      "duration": 0.2994,
      "velocity": 82,
      "chip": "ym2612"
    },
    {
      "channel": 3,
      "note": 88,
      "start": 18.2263,
      "duration": 0.2994,
      "velocity": 55,
      "chip": "ym2612"
    },
    {
      "channel": 4,
      "note": 86,
      "start": 18.3425,
      "duration": 0.2999,
      "velocity": 82,
      "chip": "ym2612"
    },
    {
      "channel": 5,
      "note": 64,
      "start": 18.3432,
      "duration": 0.6003,
      "velocity": 76,
      "chip": "ym2612"
    },
    {
      "channel": 1,
      "note": 88,
      "start": 18.5252,
      "duration": 0.3,
      "velocity": 82,
      "chip": "ym2612"
    },
    {
      "channel": 3,
      "note": 93,
      "start": 18.5263,
      "duration": 0.3001,
      "velocity": 55,
      "chip": "ym2612"
    },
    {
      "channel": 4,
      "note": 88,
      "start": 18.6429,
      "duration": 0.2999,
      "velocity": 82,
      "chip": "ym2612"
    },
    {
      "channel": 0,
      "note": 64,
      "start": 18.825,
      "duration": 0.3,
      "velocity": 76,
      "chip": "ym2612"
    },
    {
      "channel": 1,
      "note": 85,
      "start": 18.8258,
      "duration": 0.2999,
      "velocity": 82,
      "chip": "ym2612"
    },
    {
      "channel": 3,
      "note": 92,
      "start": 18.827,
      "duration": 0.2999,
      "velocity": 55,
      "chip": "ym2612"
    },
    {
      "channel": 4,
      "note": 85,
      "start": 18.9434,
      "duration": 0.2997,
      "velocity": 82,
      "chip": "ym2612"
    },
    {
      "channel": 5,
      "note": 64,
      "start": 18.944,
      "duration": 0.2998,
      "velocity": 76,
      "chip": "ym2612"
    },
    {
      "channel": 0,
      "note": 62,
      "start": 19.1256,
      "duration": 0.2998,
      "velocity": 76,
      "chip": "ym2612"
    },
    {
      "channel": 1,
      "note": 93,
      "start": 19.1263,
      "duration": 0.5998,
      "velocity": 82,
      "chip": "ym2612"
    },
    {
      "channel": 3,
      "note": 93,
      "start": 19.1276,
      "duration": 1.2009,
      "velocity": 55,
      "chip": "ym2612"
    },
    {
      "channel": 2,
      "note": 74,
      "start": 19.193,
      "duration": 1.2176,
      "velocity": 93,
      "chip": "ym2612"
    },
    {
      "channel": 4,
      "note": 93,
      "start": 19.2437,
      "duration": 0.6004,
      "velocity": 82,
      "chip": "ym2612"
    },
    {
      "channel": 5,
      "note": 62,
      "start": 19.2444,
      "duration": 0.2995,
      "velocity": 76,
      "chip": "ym2612"
    },
    {
      "channel": 0,
      "note": 69,
      "start": 19.426,
      "duration": 0.6002,
      "velocity": 76,
      "chip": "ym2612"
    },
    {
      "channel": 5,
      "note": 69,
      "start": 19.5446,
      "duration": 0.6002,
      "velocity": 76,
      "chip": "ym2612"
    },
    {
      "channel": 1,
      "note": 90,
      "start": 19.7267,
      "duration": 0.5501,
      "velocity": 82,
      "chip": "ym2612"
    },
    {
      "channel": 4,
      "note": 90,
      "start": 19.8446,
      "duration": 0.5668,
      "velocity": 82,
      "chip": "ym2612"
    },
    {
      "channel": 0,
      "note": 69,
      "start": 20.0266,
      "duration": 0.3,
      "velocity": 76,
      "chip": "ym2612"
    },
    {
      "channel": 5,
      "note": 69,
      "start": 20.1453,
      "duration": 0.3164,
      "velocity": 76,
      "chip": "ym2612"
    },
    {
      "channel": 0,
      "note": 64,
      "start": 20.3271,
      "duration": 0.6002,
      "velocity": 76,
      "chip": "ym2612"
    },
    {
      "channel": 1,
      "note": 88,
      "start": 20.3279,
      "duration": 0.4495,
      "velocity": 82,
      "chip": "ym2612"
    },
    {
      "channel": 2,
      "note": 73,
      "start": 20.4112,
      "duration": 0.6002,
      "velocity": 93,
      "chip": "ym2612"
    },
    {
      "channel": 4,
      "note": 88,
      "start": 20.4616,
      "duration": 0.4504,
      "velocity": 82,
      "chip": "ym2612"
    },
    {
      "channel": 5,
      "note": 64,
      "start": 20.4624,
      "duration": 0.6004,
      "velocity": 76,
      "chip": "ym2612"
    },
    {
      "channel": 3,
      "note": 88,
      "start": 20.6286,
      "duration": 0.3005,
      "velocity": 55,
      "chip": "ym2612"
    },
    {
      "channel": 1,
      "note": 90,
      "start": 20.7781,
      "duration": 0.1499,
      "velocity": 82,
      "chip": "ym2612"
    },
    {
      "channel": 4,
      "note": 90,
      "start": 20.9126,
      "duration": 0.1495,
      "velocity": 82,
      "chip": "ym2612"
    },
    {
      "channel": 0,
      "note": 52,
      "start": 20.9279,
      "duration": 0.6002,
      "velocity": 76,
      "chip": "ym2612"
    },
    {
      "channel": 1,
      "note": 88,
      "start": 20.9287,
      "duration": 0.2994,
      "velocity": 82,
      "chip": "ym2612"
    },
    {
      "channel": 3,
      "note": 93,
      "start": 20.9298,
      "duration": 0.2994,
      "velocity": 55,
      "chip": "ym2612"
    },
    {
      "channel": 2,
      "note": 71,
      "start": 21.012,
      "duration": 0.6002,
      "velocity": 93,
      "chip": "ym2612"
    },
    {
      "channel": 4,
      "note": 88,
      "start": 21.0627,
      "duration": 0.2998,
      "velocity": 82,
      "chip": "ym2612"
    },
    {
      "channel": 5,
      "note": 52,
      "start": 21.0634,
      "duration": 0.6002,
      "velocity": 76,
      "chip": "ym2612"
    },
    {
      "channel": 1,
      "note": 86,
      "start": 21.2287,
      "duration": 0.3002,
      "velocity": 82,
      "chip": "ym2612"
    },
    {
      "channel": 3,
      "note": 92,
      "start": 21.2298,
      "duration": 0.3002,
      "velocity": 55,
      "chip": "ym2612"
    },
    {
      "channel": 4,
      "note": 86,
      "start": 21.363,
      "duration": 0.2998,
      "velocity": 82,
      "chip": "ym2612"
    },
    {
      "channel": 0,
      "note": 57,
      "start": 21.5287,
      "duration": 1.1676,
      "velocity": 76,
      "chip": "ym2612"
    },
    {
      "channel": 1,
      "note": 85,
      "start": 21.5295,
      "duration": 0.5998,
      "velocity": 82,
      "chip": "ym2612"
    },
    {
      "channel": 3,
      "note": 93,
      "start": 21.5305,
      "duration": 0.299,
      "velocity": 55,
      "chip": "ym2612"
    },
    {
      "channel": 2,
      "note": 69,
      "start": 21.6128,
      "duration": 1.1508,
      "velocity": 93,
      "chip": "ym2612"
    },
    {
      "channel": 4,
      "note": 85,
      "start": 21.6634,
      "duration": 0.6003,
      "velocity": 82,
      "chip": "ym2612"
    },
    {
      "channel": 5,
      "note": 57,
      "start": 21.6642,
      "duration": 1.1509,
      "velocity": 76,
      "chip": "ym2612"
    },
    {
      "channel": 3,
      "note": 88,
      "start": 21.8302,
      "duration": 0.3001,
      "velocity": 55,
      "chip": "ym2612"
    },
    {
      "channel": 1,
      "note": 81,
      "start": 22.1298,
      "duration": 0.5668,
      "velocity": 82,
      "chip": "ym2612"
    },
    {
      "channel": 3,
      "note": 85,
      "start": 22.1309,
      "duration": 0.3161,
      "velocity": 55,
      "chip": "ym2612"
    },
    {
      "channel": 4,
      "note": 81,
      "start": 22.2643,
      "duration": 0.5505,
      "velocity": 82,
      "chip": "ym2612"
    },
    {
      "channel": 3,
      "note": 81,
      "start": 22.4477,
      "duration": 0.3005,
      "velocity": 55,
      "chip": "ym2612"
    },
    {
      "channel": 0,
      "note": 51,
      "start": 22.7469,
      "duration": 0.2999,
      "velocity": 76,
      "chip": "ym2612"
    },
    {
      "channel": 1,
      "note": 78,
      "start": 22.7477,
      "duration": 0.2998,
      "velocity": 82,
      "chip": "ym2612"
    },
    {
      "channel": 3,
      "note": 83,
      "start": 22.7488,
      "duration": 0.2997,
      "velocity": 55,
      "chip": "ym2612"
    },
    {
      "channel": 2,
      "note": 66,
      "start": 22.8143,
      "duration": 0.6002,
      "velocity": 93,
      "chip": "ym2612"
    },
    {
      "channel": 4,
      "note": 78,
      "start": 22.865,
      "duration": 0.2998,
      "velocity": 82,
      "chip": "ym2612"
    },
    {
      "channel": 5,
      "note": 51,
      "start": 22.8657,
      "duration": 0.2998,
      "velocity": 76,
      "chip": "ym2612"
    },
    {
      "channel": 0,
      "note": 59,
      "start": 23.0473,
      "duration": 0.5852,
      "velocity": 76,
      "chip": "ym2612"
    },
    {
      "channel": 1,
      "note": 80,
      "start": 23.048,
      "duration": 0.2994,
      "velocity": 82,
      "chip": "ym2612"
    },
    {
      "channel": 3,
      "note": 87,
      "start": 23.0491,
      "duration": 0.2994,
      "velocity": 55,
      "chip": "ym2612"
    },
    {
      "channel": 4,
      "note": 80,
      "start": 23.1653,
      "duration": 0.2998,
      "velocity": 82,
      "chip": "ym2612"
    },
    {
      "channel": 5,
      "note": 59,
      "start": 23.1661,
      "duration": 0.4664,
      "velocity": 76,
      "chip": "ym2612"
    },
    {
      "channel": 1,
      "note": 81,
      "start": 23.3481,
      "duration": 0.2844,
      "velocity": 82,
      "chip": "ym2612"
    },
    {
      "channel": 3,
      "note": 90,
      "start": 23.3492,
      "duration": 0.2833,
      "velocity": 55,
      "chip": "ym2612"
    },
    {
      "channel": 2,
      "note": 63,
      "start": 23.4151,
      "duration": 0.2174,
      "velocity": 93,
      "chip": "ym2612"
    },
    {
      "channel": 4,
      "note": 81,
      "start": 23.4657,
      "duration": 0.1667,
      "velocity": 82,
      "chip": "ym2612"
    }
  ]
}