{
  "track_name": "06 - Village A",
  "duration_sec": 43.892,
  "sample_rate": 44100,
  "note_count": 645,
  "unique_pitches": 26,
  "pitch_range": 45,
  "avg_note_duration": 0.1937,
  "reconstruction_stats": {
    "notes_reconstructed": 645,
    "keyon_events": 645,
    "keyoff_events": 642,
    "orphan_keyons": 3,
    "unique_pitches": 26,
    "pitch_range": 45,
    "avg_duration_sec": 0.1937
  },
  "metadata": {
    "source": "S\\Sword of Vermilion\\06 - Village A.vgz"
  },
  "notes": [
    {
      "channel": 1,
      "note": 85,
      "start": 0.0075,
      "duration": 0.0373,
      "velocity": 103,
      "chip": "ym2612"
    },
    {
      "channel": 2,
      "note": 64,
      "start": 0.0091,
      "duration": 0.0357,
      "velocity": 100,
      "chip": "ym2612"
    },
    {
      "channel": 3,
      "note": 68,
      "start": 0.0108,
      "duration": 0.0343,
      "velocity": 100,
      "chip": "ym2612"
    },
    {
      "channel": 1,
      "note": 85,
      "start": 0.1093,
      "duration": 0.133,
      "velocity": 103,
      "chip": "ym2612"
    },
    {
      "channel": 2,
      "note": 64,
      "start": 0.1096,
      "duration": 0.0644,
      "velocity": 100,
      "chip": "ym2612"
    },
    {
      "channel": 3,
      "note": 68,
      "start": 0.1099,
      "duration": 0.0644,
      "velocity": 100,
      "chip": "ym2612"
    },
    {
      "channel": 4,
      "note": 85,
      "start": 0.1115,
      "duration": 0.0629,
      "velocity": 103,
      "chip": "ym2612"
    },
    {
      "channel": 0,
      "note": 61,
      "start": 0.2387,
      "duration": 0.0034,
      "velocity": 103,
      "chip": "ym2612"
    },
    {
      "channel": 2,
      "note": 49,
      "start": 0.2392,
      "duration": 0.0706,
      "velocity": 100,
      "chip": "ym2612"
    },
    {
      "channel": 4,
      "note": 85,
      "start": 0.2396,
      "duration": 0.1351,
      "velocity": 103,
      "chip": "ym2612"
    },
    {
      "channel": 0,
      "note": 61,
      "start": 0.3093,
      "duration": 0.1649,
      "velocity": 103,
      "chip": "ym2612"
    },
    {
      "channel": 1,
      "note": 92,
      "start": 0.3096,
      "duration": 0.0646,
      "velocity": 103,
      "chip": "ym2612"
    },
    {
      "channel": 2,
      "note": 64,
      "start": 0.3099,
      "duration": 0.0644,
      "velocity": 100,
      "chip": "ym2612"
    },
    {
      "channel": 3,
      "note": 68,
      "start": 0.3102,
      "duration": 0.0643,
      "velocity": 100,
      "chip": "ym2612"
    },
    {
      "channel": 1,
      "note": 90,
      "start": 0.4745,
      "duration": 0.0026,
      "velocity": 103,
      "chip": "ym2612"
    },
    {
      "channel": 2,
      "note": 64,
      "start": 0.4749,
      "duration": 0.0029,
      "velocity": 100,
      "chip": "ym2612"
    },
    {
      "channel": 3,
      "note": 68,
      "start": 0.4751,
      "duration": 0.0028,
      "velocity": 100,
      "chip": "ym2612"
    },
    {
      "channel": 4,
      "note": 92,
      "start": 0.4754,
      "duration": 0.0018,
      "velocity": 103,
      "chip": "ym2612"
    },
    {
      "channel": 0,
      "note": 49,
      "start": 0.4775,
      "duration": 0.0664,
      "velocity": 103,
      "chip": "ym2612"
    },
    {
      "channel": 1,
      "note": 88,
      "start": 0.4777,
      "duration": 0.002,
      "velocity": 103,
      "chip": "ym2612"
    },
    {
      "channel": 4,
      "note": 90,
      "start": 0.4782,
      "duration": 0.0016,
      "velocity": 103,
      "chip": "ym2612"
    },
    {
      "channel": 0,
      "note": 56,
      "start": 0.5441,
      "duration": 0.1008,
      "velocity": 103,
      "chip": "ym2612"
    },
    {
      "channel": 1,
      "note": 87,
      "start": 0.5444,
      "duration": 0.0036,
      "velocity": 103,
      "chip": "ym2612"
    },
    {
      "channel": 2,
      "note": 49,
      "start": 0.5448,
      "duration": 0.1008,
      "velocity": 100,
      "chip": "ym2612"
    },
    {
      "channel": 4,
      "note": 88,
      "start": 0.5451,
      "duration": 0.0032,
      "velocity": 103,
      "chip": "ym2612"
    },
    {
      "channel": 0,
      "note": 61,
      "start": 0.6451,
      "duration": 0.0539,
      "velocity": 103,
      "chip": "ym2612"
    },
    {
      "channel": 1,
      "note": 88,
      "start": 0.6454,
      "duration": 0.0031,
      "velocity": 103,
      "chip": "ym2612"
    },
    {
      "channel": 2,
      "note": 64,
      "start": 0.6457,
      "duration": 0.0031,
      "velocity": 100,
      "chip": "ym2612"
    },
    {
      "channel": 3,
      "note": 68,
      "start": 0.646,
      "duration": 0.0029,
      "velocity": 100,
      "chip": "ym2612"
    },
    {
      "channel": 4,
      "note": 87,
      "start": 0.6463,
      "duration": 0.0027,
      "velocity": 103,
      "chip": "ym2612"
    },
    {
      "channel": 1,
      "note": 90,
      "start": 0.6487,
      "duration": 0.0504,
      "velocity": 103,
      "chip": "ym2612"
    },
    {
      "channel": 1,
      "note": 88,
      "start": 0.6993,
      "duration": 0.0646,
      "velocity": 103,
      "chip": "ym2612"
    },
    {
      "channel": 2,
      "note": 63,
      "start": 0.6997,
      "duration": 0.0644,
      "velocity": 100,
      "chip": "ym2612"
    },
    {
      "channel": 3,
      "note": 66,
      "start": 0.6999,
      "duration": 0.0644,
      "velocity": 100,
      "chip": "ym2612"
    },
    {
      "channel": 4,
      "note": 88,
      "start": 0.7002,
      "duration": 0.0642,
      "velocity": 103,
      "chip": "ym2612"
    },
    {
      "channel": 4,
      "note": 90,
      "start": 0.7647,
      "duration": 0.0648,
      "velocity": 103,
      "chip": "ym2612"
    },
    {
      "channel": 1,
      "note": 87,
      "start": 0.8287,
      "duration": 0.0646,
      "velocity": 103,
      "chip": "ym2612"
    },
    {
      "channel": 2,
      "note": 63,
      "start": 0.829,
      "duration": 0.0644,
      "velocity": 100,
      "chip": "ym2612"
    },
    {
      "channel": 3,
      "note": 66,
      "start": 0.8293,
      "duration": 0.0644,
      "velocity": 100,
      "chip": "ym2612"
    },
    {
      "channel": 4,
      "note": 88,
      "start": 0.8296,
      "duration": 0.0642,
      "velocity": 103,
      "chip": "ym2612"
    },
    {
      "channel": 0,
      "note": 59,
      "start": 0.9578,
      "duration": 0.0044,
      "velocity": 103,
      "chip": "ym2612"
    },
    {
      "channel": 1,
      "note": 83,
      "start": 0.9581,
      "duration": 0.3302,
      "velocity": 103,
      "chip": "ym2612"
    },
    {
      "channel": 2,
      "note": 47,
      "start": 0.9585,
      "duration": 0.0039,
      "velocity": 100,
      "chip": "ym2612"
    },
    {
      "channel": 4,
      "note": 87,
      "start": 0.9588,
      "duration": 0.0037,
      "velocity": 103,
      "chip": "ym2612"
    },
    {
      "channel": 0,
      "note": 59,
      "start": 1.0124,
      "duration": 0.0649,
      "velocity": 103,
      "chip": "ym2612"
    },
    {
      "channel": 2,
      "note": 63,
      "start": 1.0129,
      "duration": 0.0648,
      "velocity": 100,
      "chip": "ym2612"
    },
    {
      "channel": 3,
      "note": 66,
      "start": 1.0132,
      "duration": 0.0646,
      "velocity": 100,
      "chip": "ym2612"
    },
    {
      "channel": 4,
      "note": 83,
      "start": 1.0135,
      "duration": 0.2787,
      "velocity": 103,
      "chip": "ym2612"
    },
    {
      "channel": 2,
      "note": 63,
      "start": 1.1944,
      "duration": 0.0048,
      "velocity": 100,
      "chip": "ym2612"
    },
    {
      "channel": 3,
      "note": 66,
      "start": 1.1947,
      "duration": 0.0046,
      "velocity": 100,
      "chip": "ym2612"
    },
    {
      "channel": 0,
      "note": 47,
      "start": 1.1989,
      "duration": 0.0047,
      "velocity": 103,
      "chip": "ym2612"
    },
    {
      "channel": 0,
      "note": 56,
      "start": 1.2037,
      "duration": 0.0843,
      "velocity": 103,
      "chip": "ym2612"
    },
    {
      "channel": 2,
      "note": 47,
      "start": 1.2042,
      "duration": 0.0031,
      "velocity": 100,
      "chip": "ym2612"
    },
    {
      "channel": 0,
      "note": 59,
      "start": 1.2882,
      "duration": 0.003,
      "velocity": 103,
      "chip": "ym2612"
    },
    {
      "channel": 2,
      "note": 66,
      "start": 1.2918,
      "duration": 0.0638,
      "velocity": 100,
      "chip": "ym2612"
    },
    {
      "channel": 3,
      "note": 63,
      "start": 1.2921,
      "duration": 0.0637,
      "velocity": 100,
      "chip": "ym2612"
    },
    {
      "channel": 1,
      "note": 83,
      "start": 1.4202,
      "duration": 0.1839,
      "velocity": 103,
      "chip": "ym2612"
    },
    {
      "channel": 2,
      "note": 66,
      "start": 1.4205,
      "duration": 0.0642,
      "velocity": 100,
      "chip": "ym2612"
    },
    {
      "channel": 3,
      "note": 63,
      "start": 1.4207,
      "duration": 0.0641,
      "velocity": 100,
      "chip": "ym2612"
    },
    {
      "channel": 0,
      "note": 59,
      "start": 1.5326,
      "duration": 0.0037,
      "velocity": 103,
      "chip": "ym2612"
    },
    {
      "channel": 2,
      "note": 47,
      "start": 1.5331,
      "duration": 0.0036,
      "velocity": 100,
      "chip": "ym2612"
    },
    {
      "channel": 4,
      "note": 83,
      "start": 1.5334,
      "duration": 0.253,
      "velocity": 103,
      "chip": "ym2612"
    },
    {
      "channel": 0,
      "note": 59,
      "start": 1.6039,
      "duration": 0.1813,
      "velocity": 103,
      "chip": "ym2612"
    },
    {
      "channel": 1,
      "note": 90,
      "start": 1.6043,
      "duration": 0.0644,
      "velocity": 103,
      "chip": "ym2612"
    },
    {
      "channel": 2,
      "note": 63,
      "start": 1.6046,
      "duration": 0.0642,
      "velocity": 100,
      "chip": "ym2612"
    },
    {
      "channel": 3,
      "note": 66,
      "start": 1.6049,
      "duration": 0.0641,
      "velocity": 100,
      "chip": "ym2612"
    },
    {
      "channel": 0,
      "note": 47,
      "start": 1.7855,
      "duration": 0.0031,
      "velocity": 103,
      "chip": "ym2612"
    },
    {
      "channel": 1,
      "note": 88,
      "start": 1.7858,
      "duration": 0.0025,
      "velocity": 103,
      "chip": "ym2612"
    },
    {
      "channel": 2,
      "note": 66,
      "start": 1.7861,
      "duration": 0.0029,
      "velocity": 100,
      "chip": "ym2612"
    },
    {
      "channel": 3,
      "note": 63,
      "start": 1.7864,
      "duration": 0.002,
      "velocity": 100,
      "chip": "ym2612"
    },
    {
      "channel": 4,
      "note": 90,
      "start": 1.7867,
      "duration": 0.0017,
      "velocity": 103,
      "chip": "ym2612"
    },
    {
      "channel": 0,
      "note": 54,
      "start": 1.7887,
      "duration": 0.0491,
      "velocity": 103,
      "chip": "ym2612"
    },
    {
      "channel": 1,
      "note": 87,
      "start": 1.7889,
      "duration": 0.0015,
      "velocity": 103,
      "chip": "ym2612"
    },
    {
      "channel": 4,
      "note": 88,
      "start": 1.7893,
      "duration": 0.0011,
      "velocity": 103,
      "chip": "ym2612"
    },
    {
      "channel": 0,
      "note": 56,
      "start": 1.838,
      "duration": 0.1014,
      "velocity": 103,
      "chip": "ym2612"
    },
    {
      "channel": 1,
      "note": 88,
      "start": 1.8383,
      "duration": 0.0044,
      "velocity": 103,
      "chip": "ym2612"
    },
    {
      "channel": 2,
      "note": 68,
      "start": 1.8386,
      "duration": 0.0042,
      "velocity": 100,
      "chip": "ym2612"
    },
    {
      "channel": 3,
      "note": 63,
      "start": 1.8389,
      "duration": 0.004,
      "velocity": 100,
      "chip": "ym2612"
    },
    {
      "channel": 4,
      "note": 87,
      "start": 1.8392,
      "duration": 0.0038,
      "velocity": 103,
      "chip": "ym2612"
    },
    {
      "channel": 0,
      "note": 59,
      "start": 1.9395,
      "duration": 0.0699,
      "velocity": 103,
      "chip": "ym2612"
    },
    {
      "channel": 1,
      "note": 90,
      "start": 1.9398,
      "duration": 0.0034,
      "velocity": 103,
      "chip": "ym2612"
    },
    {
      "channel": 2,
      "note": 63,
      "start": 1.9402,
      "duration": 0.0032,
      "velocity": 100,
      "chip": "ym2612"
    },
    {
      "channel": 3,
      "note": 69,
      "start": 1.9404,
      "duration": 0.0029,
      "velocity": 100,
      "chip": "ym2612"
    },
    {
      "channel": 4,
      "note": 88,
      "start": 1.9407,
      "duration": 0.0028,
      "velocity": 103,
      "chip": "ym2612"
    },
    {
      "channel": 1,
      "note": 88,
      "start": 2.0098,
      "duration": 0.0644,
      "velocity": 103,
      "chip": "ym2612"
    },
    {
      "channel": 2,
      "note": 68,
      "start": 2.0101,
      "duration": 0.0642,
      "velocity": 100,
      "chip": "ym2612"
    },
    {
      "channel": 3,
      "note": 64,
      "start": 2.0104,
      "duration": 0.0642,
      "velocity": 100,
      "chip": "ym2612"
    },
    {
      "channel": 4,
      "note": 90,
      "start": 2.0107,
      "duration": 0.064,
      "velocity": 103,
      "chip": "ym2612"
    },
    {
      "channel": 1,
      "note": 87,
      "start": 2.1221,
      "duration": 0.0644,
      "velocity": 103,
      "chip": "ym2612"
    },
    {
      "channel": 2,
      "note": 68,
      "start": 2.1224,
      "duration": 0.0642,
      "velocity": 100,
      "chip": "ym2612"
    },
    {
      "channel": 3,
      "note": 64,
      "start": 2.1227,
      "duration": 0.0642,
      "velocity": 100,
      "chip": "ym2612"
    },
    {
      "channel": 4,
      "note": 88,
      "start": 2.123,
      "duration": 0.0641,
      "velocity": 103,
      "chip": "ym2612"
    },
    {
      "channel": 0,
      "note": 61,
      "start": 2.251,
      "duration": 0.0046,
      "velocity": 103,
      "chip": "ym2612"
    },
    {
      "channel": 1,
      "note": 85,
      "start": 2.2514,
      "duration": 0.0043,
      "velocity": 103,
      "chip": "ym2612"
    },
    {
      "channel": 2,
      "note": 49,
      "start": 2.2517,
      "duration": 0.0041,
      "velocity": 100,
      "chip": "ym2612"
    },
    {
      "channel": 4,
      "note": 87,
      "start": 2.252,
      "duration": 0.0039,
      "velocity": 103,
      "chip": "ym2612"
    },
    {
      "channel": 0,
      "note": 49,
      "start": 2.3222,
      "duration": 0.0647,
      "velocity": 103,
      "chip": "ym2612"
    },
    {
      "channel": 1,
      "note": 88,
      "start": 2.3225,
      "duration": 0.0647,
      "velocity": 103,
      "chip": "ym2612"
    },
    {
      "channel": 2,
      "note": 68,
      "start": 2.3229,
      "duration": 0.0646,
      "velocity": 100,
      "chip": "ym2612"
    },
    {
      "channel": 3,
      "note": 64,
      "start": 2.3231,
      "duration": 0.0645,
      "velocity": 100,
      "chip": "ym2612"
    },
    {
      "channel": 4,
      "note": 85,
      "start": 2.3234,
      "duration": 0.0643,
      "velocity": 103,
      "chip": "ym2612"
    },
    {
      "channel": 0,
      "note": 51,
      "start": 2.3871,
      "duration": 0.1165,
      "velocity": 103,
      "chip": "ym2612"
    },
    {
      "channel": 0,
      "note": 54,
      "start": 2.5038,
      "duration": 0.0026,
      "velocity": 103,
      "chip": "ym2612"
    },
    {
      "channel": 1,
      "note": 85,
      "start": 2.5041,
      "duration": 0.1093,
      "velocity": 103,
      "chip": "ym2612"
    },
    {
      "channel": 2,
      "note": 68,
      "start": 2.5044,
      "duration": 0.0024,
      "velocity": 100,
      "chip": "ym2612"
    },
    {
      "channel": 3,
      "note": 64,
      "start": 2.5047,
      "duration": 0.0022,
      "velocity": 100,
      "chip": "ym2612"
    },
    {
      "channel": 4,
      "note": 88,
      "start": 2.505,
      "duration": 0.0019,
      "velocity": 103,
      "chip": "ym2612"
    },
    {
      "channel": 0,
      "note": 56,
      "start": 2.5066,
      "duration": 0.0012,
      "velocity": 103,
      "chip": "ym2612"
    },
    {
      "channel": 0,
      "note": 59,
      "start": 2.508,
      "duration": 0.002,
      "velocity": 103,
      "chip": "ym2612"
    },
    {
      "channel": 4,
      "note": 85,
      "start": 2.5084,
      "duration": 0.1086,
      "velocity": 103,
      "chip": "ym2612"
    },
    {
      "channel": 0,
      "note": 61,
      "start": 2.5102,
      "duration": 0.0022,
      "velocity": 103,
      "chip": "ym2612"
    },
    {
      "channel": 0,
      "note": 63,
      "start": 2.5125,
      "duration": 0.0036,
      "velocity": 103,
      "chip": "ym2612"
    },
    {
      "channel": 2,
      "note": 49,
      "start": 2.5128,
      "duration": 0.1007,
      "velocity": 100,
      "chip": "ym2612"
    },
    {
      "channel": 0,
      "note": 64,
      "start": 2.5162,
      "duration": 0.0969,
      "velocity": 103,
      "chip": "ym2612"
    },
    {
      "channel": 0,
      "note": 63,
      "start": 2.6133,
      "duration": 0.0018,
      "velocity": 103,
      "chip": "ym2612"
    },
    {
      "channel": 0,
      "note": 61,
      "start": 2.6153,
      "duration": 0.0009,
      "velocity": 103,
      "chip": "ym2612"
    },
    {
      "channel": 1,
      "note": 85,
      "start": 2.6166,
      "duration": 0.0634,
      "velocity": 103,
      "chip": "ym2612"
    },
    {
      "channel": 2,
      "note": 64,
      "start": 2.6168,
      "duration": 0.0633,
      "velocity": 100,
      "chip": "ym2612"
    },
    {
      "channel": 3,
      "note": 68,
      "start": 2.6169,
      "duration": 0.0633,
      "velocity": 100,
      "chip": "ym2612"
    },
    {
      "channel": 1,
      "note": 85,
      "start": 2.7444,
      "duration": 0.2004,
      "velocity": 103,
      "chip": "ym2612"
    },
    {
      "channel": 2,
      "note": 64,
      "start": 2.7448,
      "duration": 0.0645,
      "velocity": 100,
      "chip": "ym2612"
    },
    {
      "channel": 3,
      "note": 68,
      "start": 2.745,
      "duration": 0.0645,
      "velocity": 100,
      "chip": "ym2612"
    },
    {
      "channel": 4,
      "note": 85,
      "start": 2.7453,
      "duration": 0.0643,
      "velocity": 103,
      "chip": "ym2612"
    },
    {
      "channel": 0,
      "note": 61,
      "start": 2.8738,
      "duration": 0.0034,
      "velocity": 103,
      "chip": "ym2612"
    },
    {
      "channel": 2,
      "note": 49,
      "start": 2.8743,
      "duration": 0.0709,
      "velocity": 100,
      "chip": "ym2612"
    },
    {
      "channel": 4,
      "note": 85,
      "start": 2.8746,
      "duration": 0.2359,
      "velocity": 103,
      "chip": "ym2612"
    },
    {
      "channel": 0,
      "note": 61,
      "start": 2.9447,
      "duration": 0.1648,
      "velocity": 103,
      "chip": "ym2612"
    },
    {
      "channel": 1,
      "note": 92,
      "start": 2.945,
      "duration": 0.0479,
      "velocity": 103,
      "chip": "ym2612"
    },
    {
      "channel": 2,
      "note": 64,
      "start": 2.9453,
      "duration": 0.0477,
      "velocity": 100,
      "chip": "ym2612"
    },
    {
      "channel": 3,
      "note": 68,
      "start": 2.9456,
      "duration": 0.0476,
      "velocity": 100,
      "chip": "ym2612"
    },
    {
      "channel": 1,
      "note": 90,
      "start": 3.1099,
      "duration": 0.003,
      "velocity": 103,
      "chip": "ym2612"
    },
    {
      "channel": 2,
      "note": 64,
      "start": 3.1102,
      "duration": 0.0033,
      "velocity": 100,
      "chip": "ym2612"
    },
    {
      "channel": 3,
      "note": 68,
      "start": 3.1104,
      "duration": 0.0032,
      "velocity": 100,
      "chip": "ym2612"
    },
    {
      "channel": 4,
      "note": 92,
      "start": 3.1107,
      "duration": 0.0022,
      "velocity": 103,
      "chip": "ym2612"
    },
    {
      "channel": 0,
      "note": 49,
      "start": 3.1132,
      "duration": 0.0666,
      "velocity": 103,
      "chip": "ym2612"
    },
    {
      "channel": 1,
      "note": 88,
      "start": 3.1134,
      "duration": 0.0022,
      "velocity": 103,
      "chip": "ym2612"
    },
    {
      "channel": 4,
      "note": 90,
      "start": 3.1139,
      "duration": 0.0018,
      "velocity": 103,
      "chip": "ym2612"
    },
    {
      "channel": 0,
      "note": 56,
      "start": 3.18,
      "duration": 0.0845,
      "velocity": 103,
      "chip": "ym2612"
    },
    {
      "channel": 1,
      "note": 87,
      "start": 3.1803,
      "duration": 0.0845,
      "velocity": 103,
      "chip": "ym2612"
    },
    {
      "channel": 2,
      "note": 49,
      "start": 3.1806,
      "duration": 0.0845,
      "velocity": 100,
      "chip": "ym2612"
    },
    {
      "channel": 4,
      "note": 88,
      "start": 3.1809,
      "duration": 0.0034,
      "velocity": 103,
      "chip": "ym2612"
    },
    {
      "channel": 0,
      "note": 61,
      "start": 3.2646,
      "duration": 0.1351,
      "velocity": 103,
      "chip": "ym2612"
    },
    {
      "channel": 1,
      "note": 88,
      "start": 3.2649,
      "duration": 0.0032,
      "velocity": 103,
      "chip": "ym2612"
    },
    {
      "channel": 2,
      "note": 64,
      "start": 3.2653,
      "duration": 0.0032,
      "velocity": 100,
      "chip": "ym2612"
    },
    {
      "channel": 3,
      "note": 68,
      "start": 3.2656,
      "duration": 0.003,
      "velocity": 100,
      "chip": "ym2612"
    },
    {
      "channel": 4,
      "note": 87,
      "start": 3.2659,
      "duration": 0.07,
      "velocity": 103,
      "chip": "ym2612"
    },
    {
      "channel": 1,
      "note": 90,
      "start": 3.2684,
      "duration": 0.0666,
      "velocity": 103,
      "chip": "ym2612"
    },
    {
      "channel": 1,
      "note": 88,
      "start": 3.3352,
      "duration": 0.0647,
      "velocity": 103,
      "chip": "ym2612"
    },
    {
      "channel": 2,
      "note": 63,
      "start": 3.3355,
      "duration": 0.0646,
      "velocity": 100,
      "chip": "ym2612"
    },
    {
      "channel": 3,
      "note": 66,
      "start": 3.3358,
      "duration": 0.0645,
      "velocity": 100,
      "chip": "ym2612"
    },
    {
      "channel": 4,
      "note": 88,
      "start": 3.3361,
      "duration": 0.0644,
      "velocity": 103,
      "chip": "ym2612"
    },
    {
      "channel": 4,
      "note": 90,
      "start": 3.4006,
      "duration": 0.0647,
      "velocity": 103,
      "chip": "ym2612"
    },
    {
      "channel": 1,
      "note": 87,
      "start": 3.4646,
      "duration": 0.0645,
      "velocity": 103,
      "chip": "ym2612"
    },
    {
      "channel": 2,
      "note": 63,
      "start": 3.4649,
      "duration": 0.0643,
      "velocity": 100,
      "chip": "ym2612"
    },
    {
      "channel": 3,
      "note": 66,
      "start": 3.4652,
      "duration": 0.0642,
      "velocity": 100,
      "chip": "ym2612"
    },
    {
      "channel": 4,
      "note": 88,
      "start": 3.4655,
      "duration": 0.0641,
      "velocity": 103,
      "chip": "ym2612"
    },
    {
      "channel": 0,
      "note": 59,
      "start": 3.5935,
      "duration": 0.0036,
      "velocity": 103,
      "chip": "ym2612"
    },
    {
      "channel": 1,
      "note": 83,
      "start": 3.5939,
      "duration": 0.3485,
      "velocity": 103,
      "chip": "ym2612"
    },
    {
      "channel": 2,
      "note": 47,
      "start": 3.5942,
      "duration": 0.0033,
      "velocity": 100,
      "chip": "ym2612"
    },
    {
      "channel": 4,
      "note": 87,
      "start": 3.5945,
      "duration": 0.0031,
      "velocity": 103,
      "chip": "ym2612"
    },
    {
      "channel": 0,
      "note": 59,
      "start": 3.648,
      "duration": 0.1862,
      "velocity": 103,
      "chip": "ym2612"
    },
    {
      "channel": 2,
      "note": 63,
      "start": 3.6485,
      "duration": 0.0645,
      "velocity": 100,
      "chip": "ym2612"
    },
    {
      "channel": 3,
      "note": 66,
      "start": 3.6488,
      "duration": 0.0644,
      "velocity": 100,
      "chip": "ym2612"
    },
    {
      "channel": 4,
      "note": 83,
      "start": 3.6491,
      "duration": 0.2988,
      "velocity": 103,
      "chip": "ym2612"
    },
    {
      "channel": 2,
      "note": 63,
      "start": 3.8299,
      "duration": 0.0047,
      "velocity": 100,
      "chip": "ym2612"
    },
    {
      "channel": 3,
      "note": 66,
      "start": 3.8302,
      "duration": 0.0046,
      "velocity": 100,
      "chip": "ym2612"
    },
    {
      "channel": 0,
      "note": 47,
      "start": 3.8344,
      "duration": 0.0045,
      "velocity": 103,
      "chip": "ym2612"
    },
    {
      "channel": 0,
      "note": 54,
      "start": 3.8391,
      "duration": 0.1029,
      "velocity": 103,
      "chip": "ym2612"
    },
    {
      "channel": 2,
      "note": 47,
      "start": 3.8396,
      "duration": 0.0053,
      "velocity": 100,
      "chip": "ym2612"
    },
    {
      "channel": 0,
      "note": 56,
      "start": 3.9422,
      "duration": 0.0018,
      "velocity": 103,
      "chip": "ym2612"
    },
    {
      "channel": 1,
      "note": 90,
      "start": 3.9471,
      "duration": 0.177,
      "velocity": 103,
      "chip": "ym2612"
    },
    {
      "channel": 2,
      "note": 66,
      "start": 3.9474,
      "duration": 0.064,
      "velocity": 100,
      "chip": "ym2612"
    },
    {
      "channel": 3,
      "note": 63,
      "start": 3.9478,
      "duration": 0.0639,
      "velocity": 100,
      "chip": "ym2612"
    },
    {
      "channel": 2,
      "note": 66,
      "start": 4.0762,
      "duration": 0.0481,
      "velocity": 100,
      "chip": "ym2612"
    },
    {
      "channel": 3,
      "note": 63,
      "start": 4.0766,
      "duration": 0.0479,
      "velocity": 100,
      "chip": "ym2612"
    },
    {
      "channel": 4,
      "note": 90,
      "start": 4.0769,
      "duration": 0.116,
      "velocity": 103,
      "chip": "ym2612"
    },
    {
      "channel": 0,
      "note": 59,
      "start": 4.1888,
      "duration": 0.0036,
      "velocity": 103,
      "chip": "ym2612"
    },
    {
      "channel": 1,
      "note": 88,
      "start": 4.1892,
      "duration": 0.1354,
      "velocity": 103,
      "chip": "ym2612"
    },
    {
      "channel": 2,
      "note": 47,
      "start": 4.1895,
      "duration": 0.0033,
      "velocity": 100,
      "chip": "ym2612"
    },
    {
      "channel": 0,
      "note": 59,
      "start": 4.2596,
      "duration": 0.1851,
      "velocity": 103,
      "chip": "ym2612"
    },
    {
      "channel": 2,
      "note": 63,
      "start": 4.2601,
      "duration": 0.0646,
      "velocity": 100,
      "chip": "ym2612"
    },
    {
      "channel": 3,
      "note": 66,
      "start": 4.2604,
      "duration": 0.0644,
      "velocity": 100,
      "chip": "ym2612"
    },
    {
      "channel": 4,
      "note": 88,
      "start": 4.2607,
      "duration": 0.1834,
      "velocity": 103,
      "chip": "ym2612"
    },
    {
      "channel": 1,
      "note": 87,
      "start": 4.4414,
      "duration": 0.0057,
      "velocity": 103,
      "chip": "ym2612"
    },
    {
      "channel": 2,
      "note": 66,
      "start": 4.4417,
      "duration": 0.0035,
      "velocity": 100,
      "chip": "ym2612"
    },
    {
      "channel": 3,
      "note": 63,
      "start": 4.4419,
      "duration": 0.002,
      "velocity": 100,
      "chip": "ym2612"
    },
    {
      "channel": 0,
      "note": 47,
      "start": 4.445,
      "duration": 0.0501,
      "velocity": 103,
      "chip": "ym2612"
    },
    {
      "channel": 4,
      "note": 87,
      "start": 4.4455,
      "duration": 0.0539,
      "velocity": 103,
      "chip": "ym2612"
    },
    {
      "channel": 0,
      "note": 56,
      "start": 4.4952,
      "duration": 0.1006,
      "velocity": 103,
      "chip": "ym2612"
    },
    {
      "channel": 1,
      "note": 88,
      "start": 4.4956,
      "duration": 0.0034,
      "velocity": 103,
      "chip": "ym2612"
    },
    {
      "channel": 2,
      "note": 68,
      "start": 4.4959,
      "duration": 0.0032,
      "velocity": 100,
      "chip": "ym2612"
    },
    {
      "channel": 3,
      "note": 63,
      "start": 4.4961,
      "duration": 0.0031,
      "velocity": 100,
      "chip": "ym2612"
    },
    {
      "channel": 0,
      "note": 59,
      "start": 4.596,
      "duration": 0.07,
      "velocity": 103,
      "chip": "ym2612"
    },
    {
      "channel": 1,
      "note": 90,
      "start": 4.5963,
      "duration": 0.0034,
      "velocity": 103,
      "chip": "ym2612"
    },
    {
      "channel": 2,
      "note": 63,
      "start": 4.5967,
      "duration": 0.0032,
      "velocity": 100,
      "chip": "ym2612"
    },
    {
      "channel": 3,
      "note": 69,
      "start": 4.5969,
      "duration": 0.003,
      "velocity": 100,
      "chip": "ym2612"
    },
    {
      "channel": 4,
      "note": 88,
      "start": 4.5973,
      "duration": 0.0029,
      "velocity": 103,
      "chip": "ym2612"
    },
    {
      "channel": 1,
      "note": 88,
      "start": 4.6664,
      "duration": 0.0478,
      "velocity": 103,
      "chip": "ym2612"
    },
    {
      "channel": 2,
      "note": 68,
      "start": 4.6667,
      "duration": 0.0476,
      "velocity": 100,
      "chip": "ym2612"
    },
    {
      "channel": 3,
      "note": 64,
      "start": 4.6669,
      "duration": 0.0476,
      "velocity": 100,
      "chip": "ym2612"
    },
    {
      "channel": 4,
      "note": 90,
      "start": 4.6673,
      "duration": 0.0474,
      "velocity": 103,
      "chip": "ym2612"
    },
    {
      "channel": 0,
      "note": 59,
      "start": 4.7787,
      "duration": 0.129,
      "velocity": 103,
      "chip": "ym2612"
    },
    {
      "channel": 1,
      "note": 87,
      "start": 4.779,
      "duration": 0.0644,
      "velocity": 103,
      "chip": "ym2612"
    },
    {
      "channel": 2,
      "note": 68,
      "start": 4.7793,
      "duration": 0.0642,
      "velocity": 100,
      "chip": "ym2612"
    },
    {
      "channel": 3,
      "note": 64,
      "start": 4.7796,
      "duration": 0.0641,
      "velocity": 100,
      "chip": "ym2612"
    },
    {
      "channel": 4,
      "note": 88,
      "start": 4.7799,
      "duration": 0.064,
      "velocity": 103,
      "chip": "ym2612"
    },
    {
      "channel": 0,
      "note": 61,
      "start": 4.9078,
      "duration": 0.0709,
      "velocity": 103,
      "chip": "ym2612"
    },
    {
      "channel": 1,
      "note": 85,
      "start": 4.9081,
      "duration": 0.0042,
      "velocity": 103,
      "chip": "ym2612"
    },
    {
      "channel": 2,
      "note": 49,
      "start": 4.9085,
      "duration": 0.0041,
      "velocity": 100,
      "chip": "ym2612"
    },
    {
      "channel": 4,
      "note": 87,
      "start": 4.9088,
      "duration": 0.0038,
      "velocity": 103,
      "chip": "ym2612"
    },
    {
      "channel": 0,
      "note": 64,
      "start": 4.9789,
      "duration": 0.1647,
      "velocity": 103,
      "chip": "ym2612"
    },
    {
      "channel": 1,
      "note": 88,
      "start": 4.9792,
      "duration": 0.0645,
      "velocity": 103,
      "chip": "ym2612"
    },
    {
      "channel": 2,
      "note": 68,
      "start": 4.9795,
      "duration": 0.0643,
      "velocity": 100,
      "chip": "ym2612"
    },
    {
      "channel": 3,
      "note": 64,
      "start": 4.9798,
      "duration": 0.0642,
      "velocity": 100,
      "chip": "ym2612"
    },
    {
      "channel": 4,
      "note": 85,
      "start": 4.9801,
      "duration": 0.064,
      "velocity": 103,
      "chip": "ym2612"
    },
    {
      "channel": 0,
      "note": 61,
      "start": 5.1438,
      "duration": 0.0038,
      "velocity": 103,
      "chip": "ym2612"
    },
    {
      "channel": 1,
      "note": 85,
      "start": 5.1441,
      "duration": 0.0083,
      "velocity": 103,
      "chip": "ym2612"
    },
    {
      "channel": 2,
      "note": 68,
      "start": 5.1444,
      "duration": 0.0023,
      "velocity": 100,
      "chip": "ym2612"
    },
    {
      "channel": 3,
      "note": 64,
      "start": 5.1447,
      "duration": 0.0021,
      "velocity": 100,
      "chip": "ym2612"
    },
    {
      "channel": 4,
      "note": 88,
      "start": 5.145,
      "duration": 0.0019,
      "velocity": 103,
      "chip": "ym2612"
    },
    {
      "channel": 4,
      "note": 85,
      "start": 5.148,
      "duration": 0.1047,
      "velocity": 103,
      "chip": "ym2612"
    },
    {
      "channel": 0,
      "note": 49,
      "start": 5.1523,
      "duration": 0.0999,
      "velocity": 103,
      "chip": "ym2612"
    },
    {
      "channel": 2,
      "note": 49,
      "start": 5.1527,
      "duration": 0.0997,
      "velocity": 100,
      "chip": "ym2612"
    },
    {
      "channel": 1,
      "note": 85,
      "start": 5.2535,
      "duration": 0.064,
      "velocity": 103,
      "chip": "ym2612"
    },
    {
      "channel": 2,
      "note": 64,
      "start": 5.2538,
      "duration": 0.0638,
      "velocity": 100,
      "chip": "ym2612"
    },
    {
      "channel": 3,
      "note": 68,
      "start": 5.2542,
      "duration": 0.0636,
      "velocity": 100,
      "chip": "ym2612"
    },
    {
      "channel": 1,
      "note": 85,
      "start": 5.382,
      "duration": 0.1332,
      "velocity": 103,
      "chip": "ym2612"
    },
    {
      "channel": 2,
      "note": 64,
      "start": 5.3823,
      "duration": 0.0644,
      "velocity": 100,
      "chip": "ym2612"
    },
    {
      "channel": 3,
      "note": 68,
      "start": 5.3826,
      "duration": 0.0644,
      "velocity": 100,
      "chip": "ym2612"
    },
    {
      "channel": 4,
      "note": 85,
      "start": 5.383,
      "duration": 0.0641,
      "velocity": 103,
      "chip": "ym2612"
    },
    {
      "channel": 0,
      "note": 61,
      "start": 5.5113,
      "duration": 0.0037,
      "velocity": 103,
      "chip": "ym2612"
    },
    {
      "channel": 2,
      "note": 49,
      "start": 5.5118,
      "duration": 0.0541,
      "velocity": 100,
      "chip": "ym2612"
    },
    {
      "channel": 4,
      "note": 85,
      "start": 5.5122,
      "duration": 0.1185,
      "velocity": 103,
      "chip": "ym2612"
    },
    {
      "channel": 0,
      "note": 61,
      "start": 5.5654,
      "duration": 0.1814,
      "velocity": 103,
      "chip": "ym2612"
    },
    {
      "channel": 1,
      "note": 92,
      "start": 5.5658,
      "duration": 0.0644,
      "velocity": 103,
      "chip": "ym2612"
    },
    {
      "channel": 2,
      "note": 64,
      "start": 5.5661,
      "duration": 0.0642,
      "velocity": 100,
      "chip": "ym2612"
    },
    {
      "channel": 3,
      "note": 68,
      "start": 5.5663,
      "duration": 0.0642,
      "velocity": 100,
      "chip": "ym2612"
    },
    {
      "channel": 1,
      "note": 90,
      "start": 5.7472,
      "duration": 0.0027,
      "velocity": 103,
      "chip": "ym2612"
    },
    {
      "channel": 2,
      "note": 64,
      "start": 5.7475,
      "duration": 0.0031,
      "velocity": 100,
      "chip": "ym2612"
    },
    {
      "channel": 3,
      "note": 68,
      "start": 5.7478,
      "duration": 0.0029,
      "velocity": 100,
      "chip": "ym2612"
    },
    {
      "channel": 4,
      "note": 92,
      "start": 5.7481,
      "duration": 0.002,
      "velocity": 103,
      "chip": "ym2612"
    },
    {
      "channel": 0,
      "note": 49,
      "start": 5.7503,
      "duration": 0.0666,
      "velocity": 103,
      "chip": "ym2612"
    },
    {
      "channel": 1,
      "note": 88,
      "start": 5.7505,
      "duration": 0.0021,
      "velocity": 103,
      "chip": "ym2612"
    },
    {
      "channel": 4,
      "note": 90,
      "start": 5.751,
      "duration": 0.0017,
      "velocity": 103,
      "chip": "ym2612"
    },
    {
      "channel": 0,
      "note": 56,
      "start": 5.8171,
      "duration": 0.0844,
      "velocity": 103,
      "chip": "ym2612"
    },
    {
      "channel": 1,
      "note": 87,
      "start": 5.8174,
      "duration": 0.0036,
      "velocity": 103,
      "chip": "ym2612"
    },
    {
      "channel": 2,
      "note": 49,
      "start": 5.8177,
      "duration": 0.0844,
      "velocity": 100,
      "chip": "ym2612"
    },
    {
      "channel": 4,
      "note": 88,
      "start": 5.818,
      "duration": 0.0032,
      "velocity": 103,
      "chip": "ym2612"
    },
    {
      "channel": 0,
      "note": 61,
      "start": 5.9017,
      "duration": 0.0703,
      "velocity": 103,
      "chip": "ym2612"
    },
    {
      "channel": 1,
      "note": 88,
      "start": 5.902,
      "duration": 0.0033,
      "velocity": 103,
      "chip": "ym2612"
    },
    {
      "channel": 2,
      "note": 64,
      "start": 5.9023,
      "duration": 0.0033,
      "velocity": 100,
      "chip": "ym2612"
    },
    {
      "channel": 3,
      "note": 68,
      "start": 5.9026,
      "duration": 0.0032,
      "velocity": 100,
      "chip": "ym2612"
    },
    {
      "channel": 4,
      "note": 87,
      "start": 5.9029,
      "duration": 0.0029,
      "velocity": 103,
      "chip": "ym2612"
    },
    {
      "channel": 1,
      "note": 90,
      "start": 5.9056,
      "duration": 0.0666,
      "velocity": 103,
      "chip": "ym2612"
    },
    {
      "channel": 1,
      "note": 88,
      "start": 5.9723,
      "duration": 0.0644,
      "velocity": 103,
      "chip": "ym2612"
    },
    {
      "channel": 2,
      "note": 63,
      "start": 5.9727,
      "duration": 0.0642,
      "velocity": 100,
      "chip": "ym2612"
    },
    {
      "channel": 3,
      "note": 66,
      "start": 5.9729,
      "duration": 0.0642,
      "velocity": 100,
      "chip": "ym2612"
    },
    {
      "channel": 4,
      "note": 88,
      "start": 5.9732,
      "duration": 0.064,
      "velocity": 103,
      "chip": "ym2612"
    },
    {
      "channel": 4,
      "note": 90,
      "start": 6.0375,
      "duration": 0.0648,
      "velocity": 103,
      "chip": "ym2612"
    },
    {
      "channel": 1,
      "note": 87,
      "start": 6.1015,
      "duration": 0.0645,
      "velocity": 103,
      "chip": "ym2612"
    },
    {
      "channel": 2,
      "note": 63,
      "start": 6.1018,
      "duration": 0.0643,
      "velocity": 100,
      "chip": "ym2612"
    },
    {
      "channel": 3,
      "note": 66,
      "start": 6.1021,
      "duration": 0.0642,
      "velocity": 100,
      "chip": "ym2612"
    },
    {
      "channel": 4,
      "note": 88,
      "start": 6.1024,
      "duration": 0.0641,
      "velocity": 103,
      "chip": "ym2612"
    },
    {
      "channel": 0,
      "note": 59,
      "start": 6.2138,
      "duration": 0.0043,
      "velocity": 103,
      "chip": "ym2612"
    },
    {
      "channel": 1,
      "note": 83,
      "start": 6.2141,
      "duration": 0.3634,
      "velocity": 103,
      "chip": "ym2612"
    },
    {
      "channel": 2,
      "note": 47,
      "start": 6.2144,
      "duration": 0.0039,
      "velocity": 100,
      "chip": "ym2612"
    },
    {
      "channel": 4,
      "note": 87,
      "start": 6.2148,
      "duration": 0.0037,
      "velocity": 103,
      "chip": "ym2612"
    },
    {
      "channel": 0,
      "note": 59,
      "start": 6.2851,
      "duration": 0.0648,
      "velocity": 103,
      "chip": "ym2612"
    },
    {
      "channel": 2,
      "note": 63,
      "start": 6.2855,
      "duration": 0.0646,
      "velocity": 100,
      "chip": "ym2612"
    },
    {
      "channel": 3,
      "note": 66,
      "start": 6.2858,
      "duration": 0.0645,
      "velocity": 100,
      "chip": "ym2612"
    },
    {
      "channel": 4,
      "note": 83,
      "start": 6.2861,
      "duration": 0.2968,
      "velocity": 103,
      "chip": "ym2612"
    },
    {
      "channel": 2,
      "note": 63,
      "start": 6.4669,
      "duration": 0.0045,
      "velocity": 100,
      "chip": "ym2612"
    },
    {
      "channel": 3,
      "note": 66,
      "start": 6.4672,
      "duration": 0.0043,
      "velocity": 100,
      "chip": "ym2612"
    },
    {
      "channel": 0,
      "note": 47,
      "start": 6.4712,
      "duration": 0.0047,
      "velocity": 103,
      "chip": "ym2612"
    },
    {
      "channel": 0,
      "note": 56,
      "start": 6.4761,
      "duration": 0.1011,
      "velocity": 103,
      "chip": "ym2612"
    },
    {
      "channel": 2,
      "note": 47,
      "start": 6.4765,
      "duration": 0.0038,
      "velocity": 100,
      "chip": "ym2612"
    },
    {
      "channel": 0,
      "note": 59,
      "start": 6.5773,
      "duration": 0.0046,
      "velocity": 103,
      "chip": "ym2612"
    },
    {
      "channel": 2,
      "note": 66,
      "start": 6.5825,
      "duration": 0.0639,
      "velocity": 100,
      "chip": "ym2612"
    },
    {
      "channel": 3,
      "note": 63,
      "start": 6.5828,
      "duration": 0.0637,
      "velocity": 100,
      "chip": "ym2612"
    },
    {
      "channel": 1,
      "note": 83,
      "start": 6.6943,
      "duration": 0.2008,
      "velocity": 103,
      "chip": "ym2612"
    },
    {
      "channel": 2,
      "note": 66,
      "start": 6.6946,
      "duration": 0.0643,
      "velocity": 100,
      "chip": "ym2612"
    },
    {
      "channel": 3,
      "note": 63,
      "start": 6.6949,
      "duration": 0.0643,
      "velocity": 100,
      "chip": "ym2612"
    },
    {
      "channel": 0,
      "note": 59,
      "start": 6.8236,
      "duration": 0.0038,
      "velocity": 103,
      "chip": "ym2612"
    },
    {
      "channel": 2,
      "note": 47,
      "start": 6.824,
      "duration": 0.0036,
      "velocity": 100,
      "chip": "ym2612"
    },
    {
      "channel": 4,
      "note": 83,
      "start": 6.8244,
      "duration": 0.2532,
      "velocity": 103,
      "chip": "ym2612"
    },
    {
      "channel": 0,
      "note": 59,
      "start": 6.895,
      "duration": 0.1815,
      "velocity": 103,
      "chip": "ym2612"
    },
    {
      "channel": 1,
      "note": 90,
      "start": 6.8953,
      "duration": 0.0646,
      "velocity": 103,
      "chip": "ym2612"
    },
    {
      "channel": 2,
      "note": 63,
      "start": 6.8956,
      "duration": 0.0644,
      "velocity": 100,
      "chip": "ym2612"
    },
    {
      "channel": 3,
      "note": 66,
      "start": 6.8959,
      "duration": 0.0643,
      "velocity": 100,
      "chip": "ym2612"
    },
    {
      "channel": 0,
      "note": 47,
      "start": 7.0766,
      "duration": 0.0028,
      "velocity": 103,
      "chip": "ym2612"
    },
    {
      "channel": 1,
      "note": 88,
      "start": 7.077,
      "duration": 0.0022,
      "velocity": 103,
      "chip": "ym2612"
    },
    {
      "channel": 2,
      "note": 66,
      "start": 7.0773,
      "duration": 0.0027,
      "velocity": 100,
      "chip": "ym2612"
    },
    {
      "channel": 3,
      "note": 63,
      "start": 7.0776,
      "duration": 0.0017,
      "velocity": 100,
      "chip": "ym2612"
    },
    {
      "channel": 4,
      "note": 90,
      "start": 7.0779,
      "duration": 0.0015,
      "velocity": 103,
      "chip": "ym2612"
    },
    {
      "channel": 0,
      "note": 54,
      "start": 7.0797,
      "duration": 0.0493,
      "velocity": 103,
      "chip": "ym2612"
    },
    {
      "channel": 1,
      "note": 87,
      "start": 7.0798,
      "duration": 0.0017,
      "velocity": 103,
      "chip": "ym2612"
    },
    {
      "channel": 4,
      "note": 88,
      "start": 7.0802,
      "duration": 0.0013,
      "velocity": 103,
      "chip": "ym2612"
    },
    {
      "channel": 0,
      "note": 56,
      "start": 7.1291,
      "duration": 0.1011,
      "velocity": 103,
      "chip": "ym2612"
    },
    {
      "channel": 1,
      "note": 88,
      "start": 7.1294,
      "duration": 0.0042,
      "velocity": 103,
      "chip": "ym2612"
    },
    {
      "channel": 2,
      "note": 68,
      "start": 7.1298,
      "duration": 0.004,
      "velocity": 100,
      "chip": "ym2612"
    },
    {
      "channel": 3,
      "note": 63,
      "start": 7.13,
      "duration": 0.0039,
      "velocity": 100,
      "chip": "ym2612"
    },
    {
      "channel": 4,
      "note": 87,
      "start": 7.1303,
      "duration": 0.0036,
      "velocity": 103,
      "chip": "ym2612"
    },
    {
      "channel": 0,
      "note": 59,
      "start": 7.2304,
      "duration": 0.0534,
      "velocity": 103,
      "chip": "ym2612"
    },
    {
      "channel": 1,
      "note": 90,
      "start": 7.2307,
      "duration": 0.0035,
      "velocity": 103,
      "chip": "ym2612"
    },
    {
      "channel": 2,
      "note": 63,
      "start": 7.231,
      "duration": 0.0034,
      "velocity": 100,
      "chip": "ym2612"
    },
    {
      "channel": 3,
      "note": 69,
      "start": 7.2313,
      "duration": 0.0031,
      "velocity": 100,
      "chip": "ym2612"
    },
    {
      "channel": 4,
      "note": 88,
      "start": 7.2316,
      "duration": 0.003,
      "velocity": 103,
      "chip": "ym2612"
    },
    {
      "channel": 1,
      "note": 88,
      "start": 7.2842,
      "duration": 0.0644,
      "velocity": 103,
      "chip": "ym2612"
    },
    {
      "channel": 2,
      "note": 68,
      "start": 7.2845,
      "duration": 0.0642,
      "velocity": 100,
      "chip": "ym2612"
    },
    {
      "channel": 3,
      "note": 64,
      "start": 7.2848,
      "duration": 0.0642,
      "velocity": 100,
      "chip": "ym2612"
    },
    {
      "channel": 4,
      "note": 90,
      "start": 7.2851,
      "duration": 0.064,
      "velocity": 103,
      "chip": "ym2612"
    },
    {
      "channel": 1,
      "note": 87,
      "start": 7.4132,
      "duration": 0.0646,
      "velocity": 103,
      "chip": "ym2612"
    },
    {
      "channel": 2,
      "note": 68,
      "start": 7.4135,
      "duration": 0.0644,
      "velocity": 100,
      "chip": "ym2612"
    },
    {
      "channel": 3,
      "note": 64,
      "start": 7.4137,
      "duration": 0.0644,
      "velocity": 100,
      "chip": "ym2612"
    },
    {
      "channel": 4,
      "note": 88,
      "start": 7.4141,
      "duration": 0.0642,
      "velocity": 103,
      "chip": "ym2612"
    },
    {
      "channel": 0,
      "note": 61,
      "start": 7.5423,
      "duration": 0.0042,
      "velocity": 103,
      "chip": "ym2612"
    },
    {
      "channel": 1,
      "note": 85,
      "start": 7.5426,
      "duration": 0.0039,
      "velocity": 103,
      "chip": "ym2612"
    },
    {
      "channel": 2,
      "note": 49,
      "start": 7.5429,
      "duration": 0.0037,
      "velocity": 100,
      "chip": "ym2612"
    },
    {
      "channel": 4,
      "note": 87,
      "start": 7.5432,
      "duration": 0.0035,
      "velocity": 103,
      "chip": "ym2612"
    },
    {
      "channel": 0,
      "note": 49,
      "start": 7.613,
      "duration": 0.0481,
      "velocity": 103,
      "chip": "ym2612"
    },
    {
      "channel": 1,
      "note": 88,
      "start": 7.6133,
      "duration": 0.0481,
      "velocity": 103,
      "chip": "ym2612"
    },
    {
      "channel": 2,
      "note": 68,
      "start": 7.6137,
      "duration": 0.0479,
      "velocity": 100,
      "chip": "ym2612"
    },
    {
      "channel": 3,
      "note": 64,
      "start": 7.6139,
      "duration": 0.0478,
      "velocity": 100,
      "chip": "ym2612"
    },
    {
      "channel": 4,
      "note": 85,
      "start": 7.6142,
      "duration": 0.0476,
      "velocity": 103,
      "chip": "ym2612"
    },
    {
      "channel": 0,
      "note": 51,
      "start": 7.6613,
      "duration": 0.1165,
      "velocity": 103,
      "chip": "ym2612"
    },
    {
      "channel": 0,
      "note": 54,
      "start": 7.778,
      "duration": 0.0028,
      "velocity": 103,
      "chip": "ym2612"
    },
    {
      "channel": 1,
      "note": 85,
      "start": 7.7783,
      "duration": 0.0936,
      "velocity": 103,
      "chip": "ym2612"
    },
    {
      "channel": 2,
      "note": 68,
      "start": 7.7786,
      "duration": 0.0026,
      "velocity": 100,
      "chip": "ym2612"
    },
    {
      "channel": 3,
      "note": 64,
      "start": 7.7789,
      "duration": 0.0025,
      "velocity": 100,
      "chip": "ym2612"
    },
    {
      "channel": 4,
      "note": 88,
      "start": 7.7792,
      "duration": 0.0022,
      "velocity": 103,
      "chip": "ym2612"
    },
    {
      "channel": 0,
      "note": 56,
      "start": 7.781,
      "duration": 0.0012,
      "velocity": 103,
      "chip": "ym2612"
    },
    {
      "channel": 0,
      "note": 59,
      "start": 7.7823,
      "duration": 0.0024,
      "velocity": 103,
      "chip": "ym2612"
    },
    {
      "channel": 4,
      "note": 85,
      "start": 7.7828,
      "duration": 0.0934,
      "velocity": 103,
      "chip": "ym2612"
    },
    {
      "channel": 0,
      "note": 61,
      "start": 7.7849,
      "duration": 0.0021,
      "velocity": 103,
      "chip": "ym2612"
    },
    {
      "channel": 0,
      "note": 63,
      "start": 7.7872,
      "duration": 0.0036,
      "velocity": 103,
      "chip": "ym2612"
    },
    {
      "channel": 2,
      "note": 49,
      "start": 7.7876,
      "duration": 0.0844,
      "velocity": 100,
      "chip": "ym2612"
    },
    {
      "channel": 0,
      "note": 64,
      "start": 7.7909,
      "duration": 0.0806,
      "velocity": 103,
      "chip": "ym2612"
    },
    {
      "channel": 0,
      "note": 63,
      "start": 7.8717,
      "duration": 0.0019,
      "velocity": 103,
      "chip": "ym2612"
    },
    {
      "channel": 0,
      "note": 61,
      "start": 7.8738,
      "duration": 0.001,
      "velocity": 103,
      "chip": "ym2612"
    },
    {
      "channel": 1,
      "note": 85,
      "start": 7.8752,
      "duration": 0.0643,
      "velocity": 103,
      "chip": "ym2612"
    },
    {
      "channel": 2,
      "note": 64,
      "start": 7.8756,
      "duration": 0.064,
      "velocity": 100,
      "chip": "ym2612"
    },
    {
      "channel": 3,
      "note": 68,
      "start": 7.8761,
      "duration": 0.0638,
      "velocity": 100,
      "chip": "ym2612"
    },
    {
      "channel": 1,
      "note": 85,
      "start": 8.004,
      "duration": 0.1841,
      "velocity": 103,
      "chip": "ym2612"
    },
    {
      "channel": 2,
      "note": 64,
      "start": 8.0044,
      "duration": 0.0645,
      "velocity": 100,
      "chip": "ym2612"
    },
    {
      "channel": 3,
      "note": 68,
      "start": 8.0046,
      "duration": 0.0645,
      "velocity": 100,
      "chip": "ym2612"
    },
    {
      "channel": 4,
      "note": 85,
      "start": 8.0049,
      "duration": 0.0643,
      "velocity": 103,
      "chip": "ym2612"
    },
    {
      "channel": 0,
      "note": 61,
      "start": 8.1335,
      "duration": 0.0032,
      "velocity": 103,
      "chip": "ym2612"
    },
    {
      "channel": 2,
      "note": 49,
      "start": 8.1339,
      "duration": 0.0545,
      "velocity": 100,
      "chip": "ym2612"
    },
    {
      "channel": 4,
      "note": 85,
      "start": 8.1343,
      "duration": 0.2365,
      "velocity": 103,
      "chip": "ym2612"
    },
    {
      "channel": 0,
      "note": 61,
      "start": 8.188,
      "duration": 0.1817,
      "velocity": 103,
      "chip": "ym2612"
    },
    {
      "channel": 1,
      "note": 92,
      "start": 8.1883,
      "duration": 0.0648,
      "velocity": 103,
      "chip": "ym2612"
    },
    {
      "channel": 2,
      "note": 64,
      "start": 8.1887,
      "duration": 0.0646,
      "velocity": 100,
      "chip": "ym2612"
    },
    {
      "channel": 3,
      "note": 68,
      "start": 8.189,
      "duration": 0.0645,
      "velocity": 100,
      "chip": "ym2612"
    },
    {
      "channel": 1,
      "note": 90,
      "start": 8.3701,
      "duration": 0.0029,
      "velocity": 103,
      "chip": "ym2612"
    },
    {
      "channel": 2,
      "note": 64,
      "start": 8.3704,
      "duration": 0.0032,
      "velocity": 100,
      "chip": "ym2612"
    },
    {
      "channel": 3,
      "note": 68,
      "start": 8.3707,
      "duration": 0.003,
      "velocity": 100,
      "chip": "ym2612"
    },
    {
      "channel": 4,
      "note": 92,
      "start": 8.371,
      "duration": 0.0021,
      "velocity": 103,
      "chip": "ym2612"
    },
    {
      "channel": 0,
      "note": 49,
      "start": 8.3734,
      "duration": 0.0499,
      "velocity": 103,
      "chip": "ym2612"
    },
    {
      "channel": 1,
      "note": 88,
      "start": 8.3735,
      "duration": 0.0022,
      "velocity": 103,
      "chip": "ym2612"
    },
    {
      "channel": 4,
      "note": 90,
      "start": 8.374,
      "duration": 0.0018,
      "velocity": 103,
      "chip": "ym2612"
    },
    {
      "channel": 0,
      "note": 56,
      "start": 8.4235,
      "duration": 0.1011,
      "velocity": 103,
      "chip": "ym2612"
    },
    {
      "channel": 1,
      "note": 87,
      "start": 8.4238,
      "duration": 0.1011,
      "velocity": 103,
      "chip": "ym2612"
    },
    {
      "channel": 2,
      "note": 49,
      "start": 8.4241,
      "duration": 0.1011,
      "velocity": 100,
      "chip": "ym2612"
    },
    {
      "channel": 4,
      "note": 88,
      "start": 8.4244,
      "duration": 0.0034,
      "velocity": 103,
      "chip": "ym2612"
    },
    {
      "channel": 0,
      "note": 61,
      "start": 8.5247,
      "duration": 0.1349,
      "velocity": 103,
      "chip": "ym2612"
    },
    {
      "channel": 1,
      "note": 88,
      "start": 8.5251,
      "duration": 0.0031,
      "velocity": 103,
      "chip": "ym2612"
    },
    {
      "channel": 2,
      "note": 64,
      "start": 8.5254,
      "duration": 0.0031,
      "velocity": 100,
      "chip": "ym2612"
    },
    {
      "channel": 3,
      "note": 68,
      "start": 8.5257,
      "duration": 0.0029,
      "velocity": 100,
      "chip": "ym2612"
    },
    {
      "channel": 4,
      "note": 87,
      "start": 8.526,
      "duration": 0.0698,
      "velocity": 103,
      "chip": "ym2612"
    },
    {
      "channel": 1,
      "note": 90,
      "start": 8.5284,
      "duration": 0.0666,
      "velocity": 103,
      "chip": "ym2612"
    },
    {
      "channel": 1,
      "note": 88,
      "start": 8.5951,
      "duration": 0.0647,
      "velocity": 103,
      "chip": "ym2612"
    },
    {
      "channel": 2,
      "note": 63,
      "start": 8.5955,
      "duration": 0.0646,
      "velocity": 100,
      "chip": "ym2612"
    },
    {
      "channel": 3,
      "note": 66,
      "start": 8.5957,
      "duration": 0.0644,
      "velocity": 100,
      "chip": "ym2612"
    },
    {
      "channel": 4,
      "note": 88,
      "start": 8.596,
      "duration": 0.0643,
      "velocity": 103,
      "chip": "ym2612"
    },
    {
      "channel": 4,
      "note": 90,
      "start": 8.6605,
      "duration": 0.0646,
      "velocity": 103,
      "chip": "ym2612"
    },
    {
      "channel": 1,
      "note": 87,
      "start": 8.7245,
      "duration": 0.0479,
      "velocity": 103,
      "chip": "ym2612"
    },
    {
      "channel": 2,
      "note": 63,
      "start": 8.7248,
      "duration": 0.0477,
      "velocity": 100,
      "chip": "ym2612"
    },
    {
      "channel": 3,
      "note": 66,
      "start": 8.725,
      "duration": 0.0477,
      "velocity": 100,
      "chip": "ym2612"
    },
    {
      "channel": 4,
      "note": 88,
      "start": 8.7254,
      "duration": 0.0476,
      "velocity": 103,
      "chip": "ym2612"
    },
    {
      "channel": 0,
      "note": 59,
      "start": 8.8369,
      "duration": 0.0043,
      "velocity": 103,
      "chip": "ym2612"
    },
    {
      "channel": 1,
      "note": 83,
      "start": 8.8372,
      "duration": 0.3624,
      "velocity": 103,
      "chip": "ym2612"
    },
    {
      "channel": 2,
      "note": 47,
      "start": 8.8375,
      "duration": 0.0038,
      "velocity": 100,
      "chip": "ym2612"
    },
    {
      "channel": 4,
      "note": 87,
      "start": 8.8378,
      "duration": 0.0036,
      "velocity": 103,
      "chip": "ym2612"
    },
    {
      "channel": 0,
      "note": 59,
      "start": 8.9081,
      "duration": 0.1856,
      "velocity": 103,
      "chip": "ym2612"
    },
    {
      "channel": 2,
      "note": 63,
      "start": 8.9085,
      "duration": 0.0645,
      "velocity": 100,
      "chip": "ym2612"
    },
    {
      "channel": 3,
      "note": 66,
      "start": 8.9088,
      "duration": 0.0644,
      "velocity": 100,
      "chip": "ym2612"
    },
    {
      "channel": 4,
      "note": 83,
      "start": 8.9092,
      "duration": 0.2946,
      "velocity": 103,
      "chip": "ym2612"
    },
    {
      "channel": 2,
      "note": 63,
      "start": 9.0899,
      "duration": 0.0041,
      "velocity": 100,
      "chip": "ym2612"
    },
    {
      "channel": 3,
      "note": 66,
      "start": 9.0902,
      "duration": 0.004,
      "velocity": 100,
      "chip": "ym2612"
    },
    {
      "channel": 0,
      "note": 47,
      "start": 9.0939,
      "duration": 0.0043,
      "velocity": 103,
      "chip": "ym2612"
    },
    {
      "channel": 0,
      "note": 54,
      "start": 9.0983,
      "duration": 0.1009,
      "velocity": 103,
      "chip": "ym2612"
    },
    {
      "channel": 2,
      "note": 47,
      "start": 9.0988,
      "duration": 0.0036,
      "velocity": 100,
      "chip": "ym2612"
    },
    {
      "channel": 0,
      "note": 56,
      "start": 9.1994,
      "duration": 0.0019,
      "velocity": 103,
      "chip": "ym2612"
    },
    {
      "channel": 1,
      "note": 90,
      "start": 9.2031,
      "duration": 0.177,
      "velocity": 103,
      "chip": "ym2612"
    },
    {
      "channel": 2,
      "note": 66,
      "start": 9.2034,
      "duration": 0.0473,
      "velocity": 100,
      "chip": "ym2612"
    },
    {
      "channel": 3,
      "note": 63,
      "start": 9.2038,
      "duration": 0.0472,
      "velocity": 100,
      "chip": "ym2612"
    },
    {
      "channel": 2,
      "note": 66,
      "start": 9.3155,
      "duration": 0.0648,
      "velocity": 100,
      "chip": "ym2612"
    },
    {
      "channel": 3,
      "note": 63,
      "start": 9.3159,
      "duration": 0.0646,
      "velocity": 100,
      "chip": "ym2612"
    },
    {
      "channel": 4,
      "note": 90,
      "start": 9.3162,
      "duration": 0.1327,
      "velocity": 103,
      "chip": "ym2612"
    },
    {
      "channel": 0,
      "note": 59,
      "start": 9.4449,
      "duration": 0.0036,
      "velocity": 103,
      "chip": "ym2612"
    },
    {
      "channel": 1,
      "note": 88,
      "start": 9.4452,
      "duration": 0.1352,
      "velocity": 103,
      "chip": "ym2612"
    },
    {
      "channel": 2,
      "note": 47,
      "start": 9.4455,
      "duration": 0.0033,
      "velocity": 100,
      "chip": "ym2612"
    },
    {
      "channel": 0,
      "note": 59,
      "start": 9.5156,
      "duration": 0.1684,
      "velocity": 103,
      "chip": "ym2612"
    },
    {
      "channel": 2,
      "note": 63,
      "start": 9.516,
      "duration": 0.0645,
      "velocity": 100,
      "chip": "ym2612"
    },
    {
      "channel": 3,
      "note": 66,
      "start": 9.5163,
      "duration": 0.0644,
      "velocity": 100,
      "chip": "ym2612"
    },
    {
      "channel": 4,
      "note": 88,
      "start": 9.5166,
      "duration": 0.1666,
      "velocity": 103,
      "chip": "ym2612"
    },
    {
      "channel": 1,
      "note": 87,
      "start": 9.6805,
      "duration": 0.0059,
      "velocity": 103,
      "chip": "ym2612"
    },
    {
      "channel": 2,
      "note": 66,
      "start": 9.6809,
      "duration": 0.0035,
      "velocity": 100,
      "chip": "ym2612"
    },
    {
      "channel": 3,
      "note": 63,
      "start": 9.6811,
      "duration": 0.002,
      "velocity": 100,
      "chip": "ym2612"
    },
    {
      "channel": 0,
      "note": 47,
      "start": 9.6841,
      "duration": 0.0667,
      "velocity": 103,
      "chip": "ym2612"
    },
    {
      "channel": 4,
      "note": 87,
      "start": 9.6847,
      "duration": 0.0704,
      "velocity": 103,
      "chip": "ym2612"
    },
    {
      "channel": 0,
      "note": 56,
      "start": 9.751,
      "duration": 0.1006,
      "velocity": 103,
      "chip": "ym2612"
    },
    {
      "channel": 1,
      "note": 88,
      "start": 9.7513,
      "duration": 0.0034,
      "velocity": 103,
      "chip": "ym2612"
    },
    {
      "channel": 2,
      "note": 68,
      "start": 9.7517,
      "duration": 0.0032,
      "velocity": 100,
      "chip": "ym2612"
    },
    {
      "channel": 3,
      "note": 63,
      "start": 9.7519,
      "duration": 0.0031,
      "velocity": 100,
      "chip": "ym2612"
    },
    {
      "channel": 0,
      "note": 59,
      "start": 9.8518,
      "duration": 0.0529,
      "velocity": 103,
      "chip": "ym2612"
    },
    {
      "channel": 1,
      "note": 90,
      "start": 9.8521,
      "duration": 0.0029,
      "velocity": 103,
      "chip": "ym2612"
    },
    {
      "channel": 2,
      "note": 63,
      "start": 9.8524,
      "duration": 0.0027,
      "velocity": 100,
      "chip": "ym2612"
    },
    {
      "channel": 3,
      "note": 69,
      "start": 9.8527,
      "duration": 0.0025,
      "velocity": 100,
      "chip": "ym2612"
    },
    {
      "channel": 4,
      "note": 88,
      "start": 9.853,
      "duration": 0.0024,
      "velocity": 103,
      "chip": "ym2612"
    },
    {
      "channel": 1,
      "note": 88,
      "start": 9.9051,
      "duration": 0.0646,
      "velocity": 103,
      "chip": "ym2612"
    },
    {
      "channel": 2,
      "note": 68,
      "start": 9.9054,
      "duration": 0.0644,
      "velocity": 100,
      "chip": "ym2612"
    },
    {
      "channel": 3,
      "note": 64,
      "start": 9.9056,
      "duration": 0.0644,
      "velocity": 100,
      "chip": "ym2612"
    },
    {
      "channel": 4,
      "note": 90,
      "start": 9.906,
      "duration": 0.0642,
      "velocity": 103,
      "chip": "ym2612"
    },
    {
      "channel": 0,
      "note": 59,
      "start": 10.0342,
      "duration": 0.1292,
      "velocity": 103,
      "chip": "ym2612"
    },
    {
      "channel": 1,
      "note": 87,
      "start": 10.0345,
      "duration": 0.0645,
      "velocity": 103,
      "chip": "ym2612"
    },
    {
      "channel": 2,
      "note": 68,
      "start": 10.0348,
      "duration": 0.0643,
      "velocity": 100,
      "chip": "ym2612"
    },
    {
      "channel": 3,
      "note": 64,
      "start": 10.0351,
      "duration": 0.0643,
      "velocity": 100,
      "chip": "ym2612"
    },
    {
      "channel": 4,
      "note": 88,
      "start": 10.0354,
      "duration": 0.0641,
      "velocity": 103,
      "chip": "ym2612"
    },
    {
      "channel": 0,
      "note": 61,
      "start": 10.1635,
      "duration": 0.0039,
      "velocity": 103,
      "chip": "ym2612"
    },
    {
      "channel": 1,
      "note": 85,
      "start": 10.1638,
      "duration": 0.0031,
      "velocity": 103,
      "chip": "ym2612"
    },
    {
      "channel": 2,
      "note": 49,
      "start": 10.1641,
      "duration": 0.0029,
      "velocity": 100,
      "chip": "ym2612"
    },
    {
      "channel": 4,
      "note": 87,
      "start": 10.1645,
      "duration": 0.0027,
      "velocity": 103,
      "chip": "ym2612"
    },
    {
      "channel": 0,
      "note": 64,
      "start": 10.1676,
      "duration": 0.0043,
      "velocity": 103,
      "chip": "ym2612"
    },
    {
      "channel": 1,
      "note": 88,
      "start": 10.168,
      "duration": 0.0033,
      "velocity": 103,
      "chip": "ym2612"
    },
    {
      "channel": 2,
      "note": 68,
      "start": 10.1682,
      "duration": 0.0032,
      "velocity": 100,
      "chip": "ym2612"
    },
    {
      "channel": 3,
      "note": 64,
      "start": 10.1684,
      "duration": 0.0031,
      "velocity": 100,
      "chip": "ym2612"
    },
    {
      "channel": 4,
      "note": 85,
      "start": 10.1686,
      "duration": 0.0029,
      "velocity": 103,
      "chip": "ym2612"
    },
    {
      "channel": 0,
      "note": 61,
      "start": 10.1721,
      "duration": 0.0673,
      "velocity": 103,
      "chip": "ym2612"
    },
    {
      "channel": 1,
      "note": 85,
      "start": 10.1723,
      "duration": 0.1375,
      "velocity": 103,
      "chip": "ym2612"
    },
    {
      "channel": 2,
      "note": 68,
      "start": 10.1726,
      "duration": 0.0028,
      "velocity": 100,
      "chip": "ym2612"
    },
    {
      "channel": 3,
      "note": 64,
      "start": 10.1729,
      "duration": 0.0027,
      "velocity": 100,
      "chip": "ym2612"
    },
    {
      "channel": 4,
      "note": 88,
      "start": 10.1732,
      "duration": 0.0024,
      "velocity": 103,
      "chip": "ym2612"
    },
    {
      "channel": 4,
      "note": 85,
      "start": 10.24,
      "duration": 0.1554,
      "velocity": 103,
      "chip": "ym2612"
    },
    {
      "channel": 0,
      "note": 49,
      "start": 10.3097,
      "duration": 0.0853,
      "velocity": 103,
      "chip": "ym2612"
    },
    {
      "channel": 2,
      "note": 49,
      "start": 10.3102,
      "duration": 0.085,
      "velocity": 100,
      "chip": "ym2612"
    },
    {
      "channel": 0,
      "note": 54,
      "start": 10.6286,
      "duration": 0.0798,
      "velocity": 103,
      "chip": "ym2612"
    },
    {
      "channel": 1,
      "note": 73,
      "start": 10.6301,
      "duration": 0.2648,
      "velocity": 103,
      "chip": "ym2612"
    },
    {
      "channel": 2,
      "note": 54,
      "start": 10.632,
      "duration": 0.0743,
      "velocity": 103,
      "chip": "ym2612"
    },
    {
      "channel": 4,
      "note": 69,
      "start": 10.6353,
      "duration": 0.2581,
      "velocity": 103,
      "chip": "ym2612"
    },
    {
      "channel": 2,
      "note": 66,
      "start": 10.7089,
      "duration": 0.0644,
      "velocity": 103,
      "chip": "ym2612"
    },
    {
      "channel": 3,
      "note": 73,
      "start": 10.7091,
      "duration": 0.0644,
      "velocity": 103,
      "chip": "ym2612"
    },
    {
      "channel": 0,
      "note": 61,
      "start": 10.89,
      "duration": 0.0031,
      "velocity": 103,
      "chip": "ym2612"
    },
    {
      "channel": 2,
      "note": 66,
      "start": 10.8905,
      "duration": 0.0028,
      "velocity": 103,
      "chip": "ym2612"
    },
    {
      "channel": 3,
      "note": 73,
      "start": 10.8908,
      "duration": 0.0025,
      "velocity": 103,
      "chip": "ym2612"
    },
    {
      "channel": 0,
      "note": 61,
      "start": 10.8948,
      "duration": 0.1873,
      "velocity": 103,
      "chip": "ym2612"
    },
    {
      "channel": 1,
      "note": 71,
      "start": 10.8951,
      "duration": 0.1162,
      "velocity": 103,
      "chip": "ym2612"
    },
    {
      "channel": 2,
      "note": 49,
      "start": 10.8954,
      "duration": 0.116,
      "velocity": 103,
      "chip": "ym2612"
    },
    {
      "channel": 4,
      "note": 68,
      "start": 10.8958,
      "duration": 0.1159,
      "velocity": 103,
      "chip": "ym2612"
    },
    {
      "channel": 1,
      "note": 69,
      "start": 11.0759,
      "duration": 0.0065,
      "velocity": 103,
      "chip": "ym2612"
    },
    {
      "channel": 2,
      "note": 66,
      "start": 11.0762,
      "duration": 0.0025,
      "velocity": 103,
      "chip": "ym2612"
    },
    {
      "channel": 3,
      "note": 73,
      "start": 11.0765,
      "duration": 0.0024,
      "velocity": 103,
      "chip": "ym2612"
    },
    {
      "channel": 4,
      "note": 66,
      "start": 11.0768,
      "duration": 0.0093,
      "velocity": 103,
      "chip": "ym2612"
    },
    {
      "channel": 0,
      "note": 54,
      "start": 11.0823,
      "duration": 0.0037,
      "velocity": 103,
      "chip": "ym2612"
    },
    {
      "channel": 2,
      "note": 66,
      "start": 11.0826,
      "duration": 0.1009,
      "velocity": 103,
      "chip": "ym2612"
    },
    {
      "channel": 3,
      "note": 73,
      "start": 11.0828,
      "duration": 0.1011,
      "velocity": 103,
      "chip": "ym2612"
    },
    {
      "channel": 0,
      "note": 52,
      "start": 11.1831,
      "duration": 0.0578,
      "velocity": 103,
      "chip": "ym2612"
    },
    {
      "channel": 1,
      "note": 71,
      "start": 11.1834,
      "duration": 0.0559,
      "velocity": 103,
      "chip": "ym2612"
    },
    {
      "channel": 2,
      "note": 52,
      "start": 11.1837,
      "duration": 0.0557,
      "velocity": 103,
      "chip": "ym2612"
    },
    {
      "channel": 4,
      "note": 68,
      "start": 11.1842,
      "duration": 0.0554,
      "velocity": 103,
      "chip": "ym2612"
    },
    {
      "channel": 1,
      "note": 69,
      "start": 11.2411,
      "duration": 0.1848,
      "velocity": 103,
      "chip": "ym2612"
    },
    {
      "channel": 2,
      "note": 64,
      "start": 11.2415,
      "duration": 0.1814,
      "velocity": 103,
      "chip": "ym2612"
    },
    {
      "channel": 3,
      "note": 71,
      "start": 11.2417,
      "duration": 0.1815,
      "velocity": 103,
      "chip": "ym2612"
    },
    {
      "channel": 4,
      "note": 66,
      "start": 11.2421,
      "duration": 0.1839,
      "velocity": 103,
      "chip": "ym2612"
    },
    {
      "channel": 0,
      "note": 59,
      "start": 11.4227,
      "duration": 0.0032,
      "velocity": 103,
      "chip": "ym2612"
    },
    {
      "channel": 2,
      "note": 64,
      "start": 11.4231,
      "duration": 0.004,
      "velocity": 103,
      "chip": "ym2612"
    },
    {
      "channel": 3,
      "note": 71,
      "start": 11.4234,
      "duration": 0.004,
      "velocity": 103,
      "chip": "ym2612"
    },
    {
      "channel": 0,
      "note": 59,
      "start": 11.4267,
      "duration": 0.1956,
      "velocity": 103,
      "chip": "ym2612"
    },
    {
      "channel": 1,
      "note": 68,
      "start": 11.427,
      "duration": 0.1953,
      "velocity": 103,
      "chip": "ym2612"
    },
    {
      "channel": 2,
      "note": 47,
      "start": 11.4273,
      "duration": 0.0698,
      "velocity": 103,
      "chip": "ym2612"
    },
    {
      "channel": 4,
      "note": 64,
      "start": 11.4278,
      "duration": 0.1929,
      "velocity": 103,
      "chip": "ym2612"
    },
    {
      "channel": 2,
      "note": 64,
      "start": 11.614,
      "duration": 0.0062,
      "velocity": 103,
      "chip": "ym2612"
    },
    {
      "channel": 3,
      "note": 71,
      "start": 11.6143,
      "duration": 0.0061,
      "velocity": 103,
      "chip": "ym2612"
    },
    {
      "channel": 2,
      "note": 64,
      "start": 11.6204,
      "duration": 0.0031,
      "velocity": 103,
      "chip": "ym2612"
    },
    {
      "channel": 3,
      "note": 71,
      "start": 11.6206,
      "duration": 0.0032,
      "velocity": 103,
      "chip": "ym2612"
    },
    {
      "channel": 0,
      "note": 51,
      "start": 11.623,
      "duration": 0.0761,
      "velocity": 103,
      "chip": "ym2612"
    },
    {
      "channel": 1,
      "note": 66,
      "start": 11.6233,
      "duration": 0.3307,
      "velocity": 103,
      "chip": "ym2612"
    },
    {
      "channel": 2,
      "note": 51,
      "start": 11.6237,
      "duration": 0.0725,
      "velocity": 103,
      "chip": "ym2612"
    },
    {
      "channel": 4,
      "note": 63,
      "start": 11.6242,
      "duration": 0.3303,
      "velocity": 103,
      "chip": "ym2612"
    },
    {
      "channel": 2,
      "note": 66,
      "start": 11.6995,
      "duration": 0.1816,
      "velocity": 103,
      "chip": "ym2612"
    },
    {
      "channel": 3,
      "note": 71,
      "start": 11.6999,
      "duration": 0.1816,
      "velocity": 103,
      "chip": "ym2612"
    },
    {
      "channel": 0,
      "note": 59,
      "start": 11.8809,
      "duration": 0.003,
      "velocity": 103,
      "chip": "ym2612"
    },
    {
      "channel": 2,
      "note": 66,
      "start": 11.8813,
      "duration": 0.0051,
      "velocity": 103,
      "chip": "ym2612"
    },
    {
      "channel": 3,
      "note": 71,
      "start": 11.8816,
      "duration": 0.0051,
      "velocity": 103,
      "chip": "ym2612"
    },
    {
      "channel": 0,
      "note": 59,
      "start": 11.8862,
      "duration": 0.2006,
      "velocity": 103,
      "chip": "ym2612"
    },
    {
      "channel": 2,
      "note": 47,
      "start": 11.8866,
      "duration": 0.1327,
      "velocity": 103,
      "chip": "ym2612"
    },
    {
      "channel": 1,
      "note": 68,
      "start": 11.9543,
      "duration": 0.1297,
      "velocity": 103,
      "chip": "ym2612"
    },
    {
      "channel": 4,
      "note": 64,
      "start": 11.9546,
      "duration": 0.0649,
      "velocity": 103,
      "chip": "ym2612"
    },
    {
      "channel": 1,
      "note": 69,
      "start": 12.0841,
      "duration": 0.0042,
      "velocity": 103,
      "chip": "ym2612"
    },
    {
      "channel": 2,
      "note": 66,
      "start": 12.0844,
      "duration": 0.0041,
      "velocity": 103,
      "chip": "ym2612"
    },
    {
      "channel": 3,
      "note": 71,
      "start": 12.0847,
      "duration": 0.0041,
      "velocity": 103,
      "chip": "ym2612"
    },
    {
      "channel": 4,
      "note": 66,
      "start": 12.085,
      "duration": 0.0021,
      "velocity": 103,
      "chip": "ym2612"
    },
    {
      "channel": 0,
      "note": 51,
      "start": 12.0883,
      "duration": 0.0029,
      "velocity": 103,
      "chip": "ym2612"
    },
    {
      "channel": 1,
      "note": 68,
      "start": 12.0884,
      "duration": 0.0997,
      "velocity": 103,
      "chip": "ym2612"
    },
    {
      "channel": 2,
      "note": 66,
      "start": 12.0886,
      "duration": 0.0998,
      "velocity": 103,
      "chip": "ym2612"
    },
    {
      "channel": 3,
      "note": 71,
      "start": 12.0889,
      "duration": 0.0997,
      "velocity": 103,
      "chip": "ym2612"
    },
    {
      "channel": 4,
      "note": 64,
      "start": 12.0892,
      "duration": 0.0997,
      "velocity": 103,
      "chip": "ym2612"
    },
    {
      "channel": 0,
      "note": 49,
      "start": 12.188,
      "duration": 0.1238,
      "velocity": 103,
      "chip": "ym2612"
    },
    {
      "channel": 1,
      "note": 66,
      "start": 12.1883,
      "duration": 0.0694,
      "velocity": 103,
      "chip": "ym2612"
    },
    {
      "channel": 2,
      "note": 49,
      "start": 12.1886,
      "duration": 0.0725,
      "velocity": 103,
      "chip": "ym2612"
    },
    {
      "channel": 4,
      "note": 63,
      "start": 12.189,
      "duration": 0.069,
      "velocity": 103,
      "chip": "ym2612"
    },
    {
      "channel": 1,
      "note": 68,
      "start": 12.2579,
      "duration": 0.0029,
      "velocity": 103,
      "chip": "ym2612"
    },
    {
      "channel": 4,
      "note": 64,
      "start": 12.2583,
      "duration": 0.0029,
      "velocity": 103,
      "chip": "ym2612"
    },
    {
      "channel": 1,
      "note": 66,
      "start": 12.261,
      "duration": 0.0027,
      "velocity": 103,
      "chip": "ym2612"
    },
    {
      "channel": 4,
      "note": 63,
      "start": 12.2615,
      "duration": 0.003,
      "velocity": 103,
      "chip": "ym2612"
    },
    {
      "channel": 1,
      "note": 64,
      "start": 12.2639,
      "duration": 0.1649,
      "velocity": 103,
      "chip": "ym2612"
    },
    {
      "channel": 2,
      "note": 61,
      "start": 12.2641,
      "duration": 0.0479,
      "velocity": 103,
      "chip": "ym2612"
    },
    {
      "channel": 3,
      "note": 68,
      "start": 12.2644,
      "duration": 0.0478,
      "velocity": 103,
      "chip": "ym2612"
    },
    {
      "channel": 4,
      "note": 61,
      "start": 12.2647,
      "duration": 0.1649,
      "velocity": 103,
      "chip": "ym2612"
    },
    {
      "channel": 0,
      "note": 53,
      "start": 12.4286,
      "duration": 0.0029,
      "velocity": 103,
      "chip": "ym2612"
    },
    {
      "channel": 1,
      "note": 63,
      "start": 12.4289,
      "duration": 0.0047,
      "velocity": 103,
      "chip": "ym2612"
    },
    {
      "channel": 2,
      "note": 61,
      "start": 12.4292,
      "duration": 0.0047,
      "velocity": 103,
      "chip": "ym2612"
    },
    {
      "channel": 3,
      "note": 68,
      "start": 12.4295,
      "duration": 0.0046,
      "velocity": 103,
      "chip": "ym2612"
    },
    {
      "channel": 4,
      "note": 59,
      "start": 12.4298,
      "duration": 0.0044,
      "velocity": 103,
      "chip": "ym2612"
    },
    {
      "channel": 0,
      "note": 47,
      "start": 12.4335,
      "duration": 0.0072,
      "velocity": 103,
      "chip": "ym2612"
    },
    {
      "channel": 1,
      "note": 64,
      "start": 12.4338,
      "duration": 0.0072,
      "velocity": 103,
      "chip": "ym2612"
    },
    {
      "channel": 2,
      "note": 47,
      "start": 12.4341,
      "duration": 0.0037,
      "velocity": 103,
      "chip": "ym2612"
    },
    {
      "channel": 4,
      "note": 61,
      "start": 12.4345,
      "duration": 0.0068,
      "velocity": 103,
      "chip": "ym2612"
    },
    {
      "channel": 0,
      "note": 49,
      "start": 12.4409,
      "duration": 0.1645,
      "velocity": 103,
      "chip": "ym2612"
    },
    {
      "channel": 1,
      "note": 66,
      "start": 12.4411,
      "duration": 0.1646,
      "velocity": 103,
      "chip": "ym2612"
    },
    {
      "channel": 2,
      "note": 49,
      "start": 12.4413,
      "duration": 0.1647,
      "velocity": 103,
      "chip": "ym2612"
    },
    {
      "channel": 4,
      "note": 63,
      "start": 12.4416,
      "duration": 0.0641,
      "velocity": 103,
      "chip": "ym2612"
    },
    {
      "channel": 0,
      "note": 53,
      "start": 12.6056,
      "duration": 0.0058,
      "velocity": 103,
      "chip": "ym2612"
    },
    {
      "channel": 1,
      "note": 68,
      "start": 12.6059,
      "duration": 0.0057,
      "velocity": 103,
      "chip": "ym2612"
    },
    {
      "channel": 2,
      "note": 53,
      "start": 12.6062,
      "duration": 0.0056,
      "velocity": 103,
      "chip": "ym2612"
    },
    {
      "channel": 4,
      "note": 64,
      "start": 12.6065,
      "duration": 0.002,
      "velocity": 103,
      "chip": "ym2612"
    },
    {
      "channel": 0,
      "note": 56,
      "start": 12.6115,
      "duration": 0.0053,
      "velocity": 103,
      "chip": "ym2612"
    },
    {
      "channel": 1,
      "note": 69,
      "start": 12.6117,
      "duration": 0.0054,
      "velocity": 103,
      "chip": "ym2612"
    },
    {
      "channel": 2,
      "note": 56,
      "start": 12.612,
      "duration": 0.0054,
      "velocity": 103,
      "chip": "ym2612"
    },
    {
      "channel": 4,
      "note": 66,
      "start": 12.6124,
      "duration": 0.002,
      "velocity": 103,
      "chip": "ym2612"
    },
    {
      "channel": 0,
      "note": 54,
      "start": 12.6171,
      "duration": 0.1398,
      "velocity": 103,
      "chip": "ym2612"
    },
    {
      "channel": 1,
      "note": 73,
      "start": 12.6173,
      "duration": 0.2615,
      "velocity": 103,
      "chip": "ym2612"
    },
    {
      "channel": 2,
      "note": 54,
      "start": 12.6176,
      "duration": 0.0745,
      "velocity": 103,
      "chip": "ym2612"
    },
    {
      "channel": 4,
      "note": 69,
      "start": 12.6182,
      "duration": 0.2592,
      "velocity": 103,
      "chip": "ym2612"
    },
    {
      "channel": 2,
      "note": 66,
      "start": 12.6923,
      "duration": 0.0649,
      "velocity": 103,
      "chip": "ym2612"
    },
    {
      "channel": 3,
      "note": 73,
      "start": 12.6926,
      "duration": 0.0647,
      "velocity": 103,
      "chip": "ym2612"
    },
    {
      "channel": 0,
      "note": 61,
      "start": 12.8737,
      "duration": 0.0032,
      "velocity": 103,
      "chip": "ym2612"
    },
    {
      "channel": 2,
      "note": 66,
      "start": 12.8742,
      "duration": 0.0031,
      "velocity": 103,
      "chip": "ym2612"
    },
    {
      "channel": 3,
      "note": 73,
      "start": 12.8744,
      "duration": 0.0029,
      "velocity": 103,
      "chip": "ym2612"
    },
    {
      "channel": 0,
      "note": 61,
      "start": 12.8787,
      "duration": 0.1844,
      "velocity": 103,
      "chip": "ym2612"
    },
    {
      "channel": 1,
      "note": 71,
      "start": 12.8789,
      "duration": 0.1811,
      "velocity": 103,
      "chip": "ym2612"
    },
    {
      "channel": 2,
      "note": 49,
      "start": 12.8793,
      "duration": 0.1162,
      "velocity": 103,
      "chip": "ym2612"
    },
    {
      "channel": 4,
      "note": 68,
      "start": 12.8796,
      "duration": 0.1161,
      "velocity": 103,
      "chip": "ym2612"
    },
    {
      "channel": 1,
      "note": 69,
      "start": 13.0602,
      "duration": 0.1093,
      "velocity": 103,
      "chip": "ym2612"
    },
    {
      "channel": 2,
      "note": 66,
      "start": 13.0606,
      "duration": 0.0028,
      "velocity": 103,
      "chip": "ym2612"
    },
    {
      "channel": 3,
      "note": 73,
      "start": 13.0608,
      "duration": 0.0026,
      "velocity": 103,
      "chip": "ym2612"
    },
    {
      "channel": 4,
      "note": 66,
      "start": 13.0611,
      "duration": 0.0115,
      "velocity": 103,
      "chip": "ym2612"
    },
    {
      "channel": 0,
      "note": 54,
      "start": 13.067,
      "duration": 0.0052,
      "velocity": 103,
      "chip": "ym2612"
    },
    {
      "channel": 2,
      "note": 66,
      "start": 13.0674,
      "duration": 0.1025,
      "velocity": 103,
      "chip": "ym2612"
    },
    {
      "channel": 3,
      "note": 73,
      "start": 13.0676,
      "duration": 0.1026,
      "velocity": 103,
      "chip": "ym2612"
    },
    {
      "channel": 0,
      "note": 52,
      "start": 13.1694,
      "duration": 0.074,
      "velocity": 103,
      "chip": "ym2612"
    },
    {
      "channel": 1,
      "note": 71,
      "start": 13.1697,
      "duration": 0.0719,
      "velocity": 103,
      "chip": "ym2612"
    },
    {
      "channel": 2,
      "note": 52,
      "start": 13.17,
      "duration": 0.0717,
      "velocity": 103,
      "chip": "ym2612"
    },
    {
      "channel": 4,
      "note": 68,
      "start": 13.1706,
      "duration": 0.0714,
      "velocity": 103,
      "chip": "ym2612"
    },
    {
      "channel": 1,
      "note": 69,
      "start": 13.2437,
      "duration": 0.1845,
      "velocity": 103,
      "chip": "ym2612"
    },
    {
      "channel": 2,
      "note": 64,
      "start": 13.2439,
      "duration": 0.0644,
      "velocity": 103,
      "chip": "ym2612"
    },
    {
      "channel": 3,
      "note": 71,
      "start": 13.2442,
      "duration": 0.0643,
      "velocity": 103,
      "chip": "ym2612"
    },
    {
      "channel": 4,
      "note": 66,
      "start": 13.2446,
      "duration": 0.1837,
      "velocity": 103,
      "chip": "ym2612"
    },
    {
      "channel": 0,
      "note": 59,
      "start": 13.425,
      "duration": 0.0031,
      "velocity": 103,
      "chip": "ym2612"
    },
    {
      "channel": 2,
      "note": 64,
      "start": 13.4254,
      "duration": 0.0037,
      "velocity": 103,
      "chip": "ym2612"
    },
    {
      "channel": 3,
      "note": 71,
      "start": 13.4258,
      "duration": 0.0037,
      "velocity": 103,
      "chip": "ym2612"
    },
    {
      "channel": 0,
      "note": 59,
      "start": 13.4289,
      "duration": 0.1871,
      "velocity": 103,
      "chip": "ym2612"
    },
    {
      "channel": 1,
      "note": 68,
      "start": 13.429,
      "duration": 0.1956,
      "velocity": 103,
      "chip": "ym2612"
    },
    {
      "channel": 2,
      "note": 47,
      "start": 13.4294,
      "duration": 0.0701,
      "velocity": 103,
      "chip": "ym2612"
    },
    {
      "channel": 4,
      "note": 64,
      "start": 13.4299,
      "duration": 0.1935,
      "velocity": 103,
      "chip": "ym2612"
    },
    {
      "channel": 0,
      "note": 52,
      "start": 13.6161,
      "duration": 0.0084,
      "velocity": 103,
      "chip": "ym2612"
    },
    {
      "channel": 2,
      "note": 64,
      "start": 13.6166,
      "duration": 0.0027,
      "velocity": 103,
      "chip": "ym2612"
    },
    {
      "channel": 3,
      "note": 71,
      "start": 13.6169,
      "duration": 0.0024,
      "velocity": 103,
      "chip": "ym2612"
    },
    {
      "channel": 2,
      "note": 64,
      "start": 13.6231,
      "duration": 0.0025,
      "velocity": 103,
      "chip": "ym2612"
    },
    {
      "channel": 3,
      "note": 71,
      "start": 13.6234,
      "duration": 0.0026,
      "velocity": 103,
      "chip": "ym2612"
    },
    {
      "channel": 0,
      "note": 51,
      "start": 13.6252,
      "duration": 0.3138,
      "velocity": 103,
      "chip": "ym2612"
    },
    {
      "channel": 1,
      "note": 66,
      "start": 13.6255,
      "duration": 0.0693,
      "velocity": 103,
      "chip": "ym2612"
    },
    {
      "channel": 2,
      "note": 51,
      "start": 13.6258,
      "duration": 0.0721,
      "velocity": 103,
      "chip": "ym2612"
    },
    {
      "channel": 4,
      "note": 63,
      "start": 13.6264,
      "duration": 0.0688,
      "velocity": 103,
      "chip": "ym2612"
    },
    {
      "channel": 1,
      "note": 68,
      "start": 13.695,
      "duration": 0.0058,
      "velocity": 103,
      "chip": "ym2612"
    },
    {
      "channel": 4,
      "note": 64,
      "start": 13.6954,
      "duration": 0.0062,
      "velocity": 103,
      "chip": "ym2612"
    },
    {
      "channel": 1,
      "note": 69,
      "start": 13.701,
      "duration": 0.1648,
      "velocity": 103,
      "chip": "ym2612"
    },
    {
      "channel": 2,
      "note": 63,
      "start": 13.7013,
      "duration": 0.0646,
      "velocity": 103,
      "chip": "ym2612"
    },
    {
      "channel": 3,
      "note": 68,
      "start": 13.7016,
      "duration": 0.0645,
      "velocity": 103,
      "chip": "ym2612"
    },
    {
      "channel": 4,
      "note": 66,
      "start": 13.7019,
      "duration": 0.1647,
      "velocity": 103,
      "chip": "ym2612"
    },
    {
      "channel": 1,
      "note": 68,
      "start": 13.8659,
      "duration": 0.0053,
      "velocity": 103,
      "chip": "ym2612"
    },
    {
      "channel": 2,
      "note": 63,
      "start": 13.8662,
      "duration": 0.0078,
      "velocity": 103,
      "chip": "ym2612"
    },
    {
      "channel": 3,
      "note": 68,
      "start": 13.8665,
      "duration": 0.0078,
      "velocity": 103,
      "chip": "ym2612"
    },
    {
      "channel": 4,
      "note": 64,
      "start": 13.8668,
      "duration": 0.0046,
      "velocity": 103,
      "chip": "ym2612"
    },
    {
      "channel": 1,
      "note": 69,
      "start": 13.8713,
      "duration": 0.0678,
      "velocity": 103,
      "chip": "ym2612"
    },
    {
      "channel": 4,
      "note": 66,
      "start": 13.8716,
      "duration": 0.0682,
      "velocity": 103,
      "chip": "ym2612"
    },
    {
      "channel": 1,
      "note": 68,
      "start": 13.9394,
      "duration": 0.1298,
      "velocity": 103,
      "chip": "ym2612"
    },
    {
      "channel": 2,
      "note": 48,
      "start": 13.9397,
      "duration": 0.1333,
      "velocity": 103,
      "chip": "ym2612"
    },
    {
      "channel": 4,
      "note": 64,
      "start": 13.94,
      "duration": 0.1298,
      "velocity": 103,
      "chip": "ym2612"
    },
    {
      "channel": 0,
      "note": 56,
      "start": 14.069,
      "duration": 0.0099,
      "velocity": 103,
      "chip": "ym2612"
    },
    {
      "channel": 1,
      "note": 69,
      "start": 14.0693,
      "duration": 0.0061,
      "velocity": 103,
      "chip": "ym2612"
    },
    {
      "channel": 3,
      "note": 51,
      "start": 14.0696,
      "duration": 0.0095,
      "velocity": 103,
      "chip": "ym2612"
    },
    {
      "channel": 4,
      "note": 66,
      "start": 14.07,
      "duration": 0.006,
      "velocity": 103,
      "chip": "ym2612"
    },
    {
      "channel": 1,
      "note": 71,
      "start": 14.0755,
      "duration": 0.0063,
      "velocity": 103,
      "chip": "ym2612"
    },
    {
      "channel": 2,
      "note": 56,
      "start": 14.0758,
      "duration": 0.01,
      "velocity": 103,
      "chip": "ym2612"
    },
    {
      "channel": 4,
      "note": 68,
      "start": 14.0762,
      "duration": 0.0062,
      "velocity": 103,
      "chip": "ym2612"
    },
    {
      "channel": 0,
      "note": 60,
      "start": 14.0818,
      "duration": 0.0157,
      "velocity": 103,
      "chip": "ym2612"
    },
    {
      "channel": 1,
      "note": 72,
      "start": 14.082,
      "duration": 0.0081,
      "velocity": 103,
      "chip": "ym2612"
    },
    {
      "channel": 4,
      "note": 69,
      "start": 14.0825,
      "duration": 0.0081,
      "velocity": 103,
      "chip": "ym2612"
    },
    {
      "channel": 1,
      "note": 71,
      "start": 14.0903,
      "duration": 0.0043,
      "velocity": 103,
      "chip": "ym2612"
    },
    {
      "channel": 2,
      "note": 68,
      "start": 14.0905,
      "duration": 0.0072,
      "velocity": 103,
      "chip": "ym2612"
    },
    {
      "channel": 4,
      "note": 68,
      "start": 14.0908,
      "duration": 0.0044,
      "velocity": 103,
      "chip": "ym2612"
    },
    {
      "channel": 1,
      "note": 69,
      "start": 14.0948,
      "duration": 0.0068,
      "velocity": 103,
      "chip": "ym2612"
    },
    {
      "channel": 3,
      "note": 72,
      "start": 14.095,
      "duration": 0.0071,
      "velocity": 103,
      "chip": "ym2612"
    },
    {
      "channel": 4,
      "note": 66,
      "start": 14.0954,
      "duration": 0.0071,
      "velocity": 103,
      "chip": "ym2612"
    },
    {
      "channel": 0,
      "note": 63,
      "start": 14.1015,
      "duration": 0.0034,
      "velocity": 103,
      "chip": "ym2612"
    },
    {
      "channel": 1,
      "note": 71,
      "start": 14.1018,
      "duration": 0.0073,
      "velocity": 103,
      "chip": "ym2612"
    },
    {
      "channel": 2,
      "note": 68,
      "start": 14.1021,
      "duration": 0.003,
      "velocity": 103,
      "chip": "ym2612"
    },
    {
      "channel": 3,
      "note": 75,
      "start": 14.1024,
      "duration": 0.0029,
      "velocity": 103,
      "chip": "ym2612"
    },
    {
      "channel": 4,
      "note": 68,
      "start": 14.1028,
      "duration": 0.0072,
      "velocity": 103,
      "chip": "ym2612"
    },
    {
      "channel": 0,
      "note": 63,
      "start": 14.109,
      "duration": 0.0066,
      "velocity": 103,
      "chip": "ym2612"
    },
    {
      "channel": 1,
      "note": 69,
      "start": 14.1093,
      "duration": 0.0066,
      "velocity": 103,
      "chip": "ym2612"
    },
    {
      "channel": 2,
      "note": 68,
      "start": 14.1096,
      "duration": 0.0027,
      "velocity": 103,
      "chip": "ym2612"
    },
    {
      "channel": 3,
      "note": 75,
      "start": 14.1098,
      "duration": 0.0025,
      "velocity": 103,
      "chip": "ym2612"
    },
    {
      "channel": 4,
      "note": 66,
      "start": 14.1102,
      "duration": 0.0064,
      "velocity": 103,
      "chip": "ym2612"
    },
    {
      "channel": 0,
      "note": 60,
      "start": 14.1158,
      "duration": 0.0051,
      "velocity": 103,
      "chip": "ym2612"
    },
    {
      "channel": 1,
      "note": 68,
      "start": 14.1161,
      "duration": 0.0024,
      "velocity": 103,
      "chip": "ym2612"
    },
    {
      "channel": 2,
      "note": 68,
      "start": 14.1162,
      "duration": 0.0026,
      "velocity": 103,
      "chip": "ym2612"
    },
    {
      "channel": 3,
      "note": 72,
      "start": 14.1165,
      "duration": 0.0024,
      "velocity": 103,
      "chip": "ym2612"
    },
    {
      "channel": 4,
      "note": 64,
      "start": 14.1167,
      "duration": 0.0022,
      "velocity": 103,
      "chip": "ym2612"
    },
    {
      "channel": 1,
      "note": 66,
      "start": 14.1187,
      "duration": 0.0024,
      "velocity": 103,
      "chip": "ym2612"
    },
    {
      "channel": 4,
      "note": 63,
      "start": 14.1192,
      "duration": 0.0027,
      "velocity": 103,
      "chip": "ym2612"
    },
    {
      "channel": 0,
      "note": 60,
      "start": 14.1211,
      "duration": 0.0062,
      "velocity": 103,
      "chip": "ym2612"
    },
    {
      "channel": 1,
      "note": 68,
      "start": 14.1213,
      "duration": 0.0063,
      "velocity": 103,
      "chip": "ym2612"
    },
    {
      "channel": 2,
      "note": 68,
      "start": 14.1215,
      "duration": 0.0024,
      "velocity": 103,
      "chip": "ym2612"
    },
    {
      "channel": 3,
      "note": 72,
      "start": 14.1218,
      "duration": 0.0022,
      "velocity": 103,
      "chip": "ym2612"
    },
    {
      "channel": 4,
      "note": 64,
      "start": 14.122,
      "duration": 0.0062,
      "velocity": 103,
      "chip": "ym2612"
    },
    {
      "channel": 0,
      "note": 56,
      "start": 14.1275,
      "duration": 0.0035,
      "velocity": 103,
      "chip": "ym2612"
    },
    {
      "channel": 1,
      "note": 66,
      "start": 14.1277,
      "duration": 0.0022,
      "velocity": 103,
      "chip": "ym2612"
    },
    {
      "channel": 2,
      "note": 66,
      "start": 14.1279,
      "duration": 0.0021,
      "velocity": 103,
      "chip": "ym2612"
    },
    {
      "channel": 3,
      "note": 72,
      "start": 14.1282,
      "duration": 0.0019,
      "velocity": 103,
      "chip": "ym2612"
    },
    {
      "channel": 4,
      "note": 63,
      "start": 14.1284,
      "duration": 0.0078,
      "velocity": 103,
      "chip": "ym2612"
    },
    {
      "channel": 1,
      "note": 85,
      "start": 14.1327,
      "duration": 29.7591,
      "velocity": 103,
      "chip": "ym2612"
    },
    {
      "channel": 2,
      "note": 64,
      "start": 14.1345,
      "duration": 29.7574,
      "velocity": 100,
      "chip": "ym2612"
    },
    {
      "channel": 3,
      "note": 68,
      "start": 14.1361,
      "duration": 29.7557,
      "velocity": 100,
      "chip": "ym2612"
    }
  ]
}