{
  "track_name": "06 - Souvenir of Sanctuary",
  "duration_sec": 253.056,
  "sample_rate": 44100,
  "note_count": 4713,
  "unique_pitches": 45,
  "pitch_range": 61,
  "avg_note_duration": 0.1185,
  "reconstruction_stats": {
    "notes_reconstructed": 4713,
    "keyon_events": 4713,
    "keyoff_events": 4711,
    "orphan_keyons": 2,
    "unique_pitches": 45,
    "pitch_range": 61,
    "avg_duration_sec": 0.1185
  },
  "metadata": {
    "source": "P\\Psy-O-Blade\\06 - Souvenir of Sanctuary.vgz"
  },
  "notes": [
    {
      "channel": 0,
      "note": 68,
      "start": 0.0068,
      "duration": 0.213,
      "velocity": 97,
      "chip": "ym2612"
    },
    {
      "channel": 1,
      "note": 65,
      "start": 0.0071,
      "duration": 0.0102,
      "velocity": 88,
      "chip": "ym2612"
    },
    {
      "channel": 2,
      "note": 77,
      "start": 0.0088,
      "duration": 0.0091,
      "velocity": 82,
      "chip": "ym2612"
    },
    {
      "channel": 3,
      "note": 68,
      "start": 0.0109,
      "duration": 0.2102,
      "velocity": 97,
      "chip": "ym2612"
    },
    {
      "channel": 4,
      "note": 77,
      "start": 0.0153,
      "duration": 0.1021,
      "velocity": 82,
      "chip": "ym2612"
    },
    {
      "channel": 1,
      "note": 65,
      "start": 0.0177,
      "duration": 0.1996,
      "velocity": 88,
      "chip": "ym2612"
    },
    {
      "channel": 2,
      "note": 80,
      "start": 0.0183,
      "duration": 0.1995,
      "velocity": 82,
      "chip": "ym2612"
    },
    {
      "channel": 4,
      "note": 80,
      "start": 0.1178,
      "duration": 0.1013,
      "velocity": 82,
      "chip": "ym2612"
    },
    {
      "channel": 1,
      "note": 65,
      "start": 0.2177,
      "duration": 0.0025,
      "velocity": 88,
      "chip": "ym2612"
    },
    {
      "channel": 2,
      "note": 84,
      "start": 0.2182,
      "duration": 0.0024,
      "velocity": 82,
      "chip": "ym2612"
    },
    {
      "channel": 4,
      "note": 84,
      "start": 0.2193,
      "duration": 0.0025,
      "velocity": 82,
      "chip": "ym2612"
    },
    {
      "channel": 0,
      "note": 67,
      "start": 0.2201,
      "duration": 0.0112,
      "velocity": 97,
      "chip": "ym2612"
    },
    {
      "channel": 1,
      "note": 77,
      "start": 0.2205,
      "duration": 0.0021,
      "velocity": 88,
      "chip": "ym2612"
    },
    {
      "channel": 2,
      "note": 80,
      "start": 0.2209,
      "duration": 0.0019,
      "velocity": 82,
      "chip": "ym2612"
    },
    {
      "channel": 3,
      "note": 67,
      "start": 0.2213,
      "duration": 0.0115,
      "velocity": 97,
      "chip": "ym2612"
    },
    {
      "channel": 4,
      "note": 80,
      "start": 0.222,
      "duration": 0.005,
      "velocity": 82,
      "chip": "ym2612"
    },
    {
      "channel": 1,
      "note": 65,
      "start": 0.2228,
      "duration": 0.0051,
      "velocity": 88,
      "chip": "ym2612"
    },
    {
      "channel": 2,
      "note": 89,
      "start": 0.2231,
      "duration": 0.0053,
      "velocity": 82,
      "chip": "ym2612"
    },
    {
      "channel": 4,
      "note": 89,
      "start": 0.2273,
      "duration": 0.0019,
      "velocity": 82,
      "chip": "ym2612"
    },
    {
      "channel": 1,
      "note": 77,
      "start": 0.2283,
      "duration": 0.0036,
      "velocity": 88,
      "chip": "ym2612"
    },
    {
      "channel": 2,
      "note": 84,
      "start": 0.2287,
      "duration": 0.0036,
      "velocity": 82,
      "chip": "ym2612"
    },
    {
      "channel": 4,
      "note": 84,
      "start": 0.2294,
      "duration": 0.0049,
      "velocity": 82,
      "chip": "ym2612"
    },
    {
      "channel": 0,
      "note": 63,
      "start": 0.2317,
      "duration": 0.0054,
      "velocity": 97,
      "chip": "ym2612"
    },
    {
      "channel": 1,
      "note": 63,
      "start": 0.2323,
      "duration": 0.0028,
      "velocity": 88,
      "chip": "ym2612"
    },
    {
      "channel": 2,
      "note": 89,
      "start": 0.2327,
      "duration": 0.0027,
      "velocity": 82,
      "chip": "ym2612"
    },
    {
      "channel": 3,
      "note": 63,
      "start": 0.2332,
      "duration": 0.0049,
      "velocity": 97,
      "chip": "ym2612"
    },
    {
      "channel": 4,
      "note": 89,
      "start": 0.2346,
      "duration": 0.0016,
      "velocity": 82,
      "chip": "ym2612"
    },
    {
      "channel": 1,
      "note": 75,
      "start": 0.2354,
      "duration": 0.0021,
      "velocity": 88,
      "chip": "ym2612"
    },
    {
      "channel": 2,
      "note": 84,
      "start": 0.2356,
      "duration": 0.0022,
      "velocity": 82,
      "chip": "ym2612"
    },
    {
      "channel": 4,
      "note": 84,
      "start": 0.2365,
      "duration": 0.0058,
      "velocity": 82,
      "chip": "ym2612"
    },
    {
      "channel": 0,
      "note": 65,
      "start": 0.2374,
      "duration": 0.2088,
      "velocity": 97,
      "chip": "ym2612"
    },
    {
      "channel": 1,
      "note": 61,
      "start": 0.2377,
      "duration": 0.0058,
      "velocity": 88,
      "chip": "ym2612"
    },
    {
      "channel": 2,
      "note": 73,
      "start": 0.238,
      "duration": 0.0059,
      "velocity": 82,
      "chip": "ym2612"
    },
    {
      "channel": 3,
      "note": 65,
      "start": 0.2385,
      "duration": 0.2088,
      "velocity": 97,
      "chip": "ym2612"
    },
    {
      "channel": 4,
      "note": 73,
      "start": 0.2425,
      "duration": 0.101,
      "velocity": 82,
      "chip": "ym2612"
    },
    {
      "channel": 1,
      "note": 61,
      "start": 0.2439,
      "duration": 0.1996,
      "velocity": 88,
      "chip": "ym2612"
    },
    {
      "channel": 2,
      "note": 77,
      "start": 0.2444,
      "duration": 0.1995,
      "velocity": 82,
      "chip": "ym2612"
    },
    {
      "channel": 4,
      "note": 77,
      "start": 0.3439,
      "duration": 0.1014,
      "velocity": 82,
      "chip": "ym2612"
    },
    {
      "channel": 1,
      "note": 61,
      "start": 0.4438,
      "duration": 0.0027,
      "velocity": 88,
      "chip": "ym2612"
    },
    {
      "channel": 2,
      "note": 80,
      "start": 0.4443,
      "duration": 0.0026,
      "velocity": 82,
      "chip": "ym2612"
    },
    {
      "channel": 4,
      "note": 80,
      "start": 0.4456,
      "duration": 0.0024,
      "velocity": 82,
      "chip": "ym2612"
    },
    {
      "channel": 0,
      "note": 61,
      "start": 0.4464,
      "duration": 0.0143,
      "velocity": 97,
      "chip": "ym2612"
    },
    {
      "channel": 1,
      "note": 73,
      "start": 0.4468,
      "duration": 0.0021,
      "velocity": 88,
      "chip": "ym2612"
    },
    {
      "channel": 2,
      "note": 77,
      "start": 0.4472,
      "duration": 0.0022,
      "velocity": 82,
      "chip": "ym2612"
    },
    {
      "channel": 3,
      "note": 61,
      "start": 0.4476,
      "duration": 0.0141,
      "velocity": 97,
      "chip": "ym2612"
    },
    {
      "channel": 4,
      "note": 77,
      "start": 0.4484,
      "duration": 0.0052,
      "velocity": 82,
      "chip": "ym2612"
    },
    {
      "channel": 1,
      "note": 61,
      "start": 0.4493,
      "duration": 0.0051,
      "velocity": 88,
      "chip": "ym2612"
    },
    {
      "channel": 2,
      "note": 84,
      "start": 0.4497,
      "duration": 0.005,
      "velocity": 82,
      "chip": "ym2612"
    },
    {
      "channel": 4,
      "note": 84,
      "start": 0.4538,
      "duration": 0.0016,
      "velocity": 82,
      "chip": "ym2612"
    },
    {
      "channel": 1,
      "note": 73,
      "start": 0.4546,
      "duration": 0.0033,
      "velocity": 88,
      "chip": "ym2612"
    },
    {
      "channel": 2,
      "note": 80,
      "start": 0.4549,
      "duration": 0.0036,
      "velocity": 82,
      "chip": "ym2612"
    },
    {
      "channel": 4,
      "note": 80,
      "start": 0.4558,
      "duration": 0.0042,
      "velocity": 82,
      "chip": "ym2612"
    },
    {
      "channel": 1,
      "note": 59,
      "start": 0.4583,
      "duration": 0.0025,
      "velocity": 88,
      "chip": "ym2612"
    },
    {
      "channel": 2,
      "note": 82,
      "start": 0.4589,
      "duration": 0.0023,
      "velocity": 82,
      "chip": "ym2612"
    },
    {
      "channel": 4,
      "note": 82,
      "start": 0.4602,
      "duration": 0.0023,
      "velocity": 82,
      "chip": "ym2612"
    },
    {
      "channel": 1,
      "note": 71,
      "start": 0.4611,
      "duration": 0.0026,
      "velocity": 88,
      "chip": "ym2612"
    },
    {
      "channel": 2,
      "note": 80,
      "start": 0.4615,
      "duration": 0.0026,
      "velocity": 82,
      "chip": "ym2612"
    },
    {
      "channel": 4,
      "note": 80,
      "start": 0.4628,
      "duration": 0.0022,
      "velocity": 82,
      "chip": "ym2612"
    },
    {
      "channel": 0,
      "note": 72,
      "start": 0.4636,
      "duration": 0.205,
      "velocity": 97,
      "chip": "ym2612"
    },
    {
      "channel": 1,
      "note": 60,
      "start": 0.464,
      "duration": 0.0021,
      "velocity": 88,
      "chip": "ym2612"
    },
    {
      "channel": 2,
      "note": 72,
      "start": 0.4643,
      "duration": 0.0022,
      "velocity": 82,
      "chip": "ym2612"
    },
    {
      "channel": 3,
      "note": 72,
      "start": 0.4646,
      "duration": 0.205,
      "velocity": 97,
      "chip": "ym2612"
    },
    {
      "channel": 4,
      "note": 72,
      "start": 0.4654,
      "duration": 0.1007,
      "velocity": 82,
      "chip": "ym2612"
    },
    {
      "channel": 1,
      "note": 60,
      "start": 0.4665,
      "duration": 0.1996,
      "velocity": 88,
      "chip": "ym2612"
    },
    {
      "channel": 2,
      "note": 75,
      "start": 0.4669,
      "duration": 0.1996,
      "velocity": 82,
      "chip": "ym2612"
    },
    {
      "channel": 4,
      "note": 75,
      "start": 0.5665,
      "duration": 0.1013,
      "velocity": 82,
      "chip": "ym2612"
    },
    {
      "channel": 1,
      "note": 60,
      "start": 0.6664,
      "duration": 0.0025,
      "velocity": 88,
      "chip": "ym2612"
    },
    {
      "channel": 2,
      "note": 79,
      "start": 0.6669,
      "duration": 0.0022,
      "velocity": 82,
      "chip": "ym2612"
    },
    {
      "channel": 4,
      "note": 79,
      "start": 0.6681,
      "duration": 0.0022,
      "velocity": 82,
      "chip": "ym2612"
    },
    {
      "channel": 0,
      "note": 70,
      "start": 0.6689,
      "duration": 0.0105,
      "velocity": 97,
      "chip": "ym2612"
    },
    {
      "channel": 1,
      "note": 60,
      "start": 0.669,
      "duration": 0.002,
      "velocity": 88,
      "chip": "ym2612"
    },
    {
      "channel": 2,
      "note": 75,
      "start": 0.6695,
      "duration": 0.0017,
      "velocity": 82,
      "chip": "ym2612"
    },
    {
      "channel": 3,
      "note": 70,
      "start": 0.6699,
      "duration": 0.0111,
      "velocity": 97,
      "chip": "ym2612"
    },
    {
      "channel": 4,
      "note": 75,
      "start": 0.6704,
      "duration": 0.0048,
      "velocity": 82,
      "chip": "ym2612"
    },
    {
      "channel": 1,
      "note": 60,
      "start": 0.671,
      "duration": 0.0051,
      "velocity": 88,
      "chip": "ym2612"
    },
    {
      "channel": 2,
      "note": 84,
      "start": 0.6714,
      "duration": 0.005,
      "velocity": 82,
      "chip": "ym2612"
    },
    {
      "channel": 4,
      "note": 84,
      "start": 0.6756,
      "duration": 0.0015,
      "velocity": 82,
      "chip": "ym2612"
    },
    {
      "channel": 1,
      "note": 60,
      "start": 0.6763,
      "duration": 0.0036,
      "velocity": 88,
      "chip": "ym2612"
    },
    {
      "channel": 2,
      "note": 79,
      "start": 0.6767,
      "duration": 0.0037,
      "velocity": 82,
      "chip": "ym2612"
    },
    {
      "channel": 4,
      "note": 79,
      "start": 0.6774,
      "duration": 0.005,
      "velocity": 82,
      "chip": "ym2612"
    },
    {
      "channel": 0,
      "note": 67,
      "start": 0.6798,
      "duration": 0.0052,
      "velocity": 97,
      "chip": "ym2612"
    },
    {
      "channel": 1,
      "note": 61,
      "start": 0.6803,
      "duration": 0.0028,
      "velocity": 88,
      "chip": "ym2612"
    },
    {
      "channel": 2,
      "note": 82,
      "start": 0.6808,
      "duration": 0.0027,
      "velocity": 82,
      "chip": "ym2612"
    },
    {
      "channel": 3,
      "note": 67,
      "start": 0.6814,
      "duration": 0.0047,
      "velocity": 97,
      "chip": "ym2612"
    },
    {
      "channel": 4,
      "note": 82,
      "start": 0.6826,
      "duration": 0.0017,
      "velocity": 82,
      "chip": "ym2612"
    },
    {
      "channel": 1,
      "note": 63,
      "start": 0.6834,
      "duration": 0.002,
      "velocity": 88,
      "chip": "ym2612"
    },
    {
      "channel": 2,
      "note": 79,
      "start": 0.6837,
      "duration": 0.002,
      "velocity": 82,
      "chip": "ym2612"
    },
    {
      "channel": 4,
      "note": 79,
      "start": 0.6845,
      "duration": 0.0057,
      "velocity": 82,
      "chip": "ym2612"
    },
    {
      "channel": 0,
      "note": 68,
      "start": 0.6853,
      "duration": 0.2086,
      "velocity": 97,
      "chip": "ym2612"
    },
    {
      "channel": 1,
      "note": 61,
      "start": 0.6857,
      "duration": 0.0055,
      "velocity": 88,
      "chip": "ym2612"
    },
    {
      "channel": 2,
      "note": 73,
      "start": 0.686,
      "duration": 0.0057,
      "velocity": 82,
      "chip": "ym2612"
    },
    {
      "channel": 3,
      "note": 68,
      "start": 0.6863,
      "duration": 0.2086,
      "velocity": 97,
      "chip": "ym2612"
    },
    {
      "channel": 4,
      "note": 73,
      "start": 0.6905,
      "duration": 0.1007,
      "velocity": 82,
      "chip": "ym2612"
    },
    {
      "channel": 1,
      "note": 61,
      "start": 0.6916,
      "duration": 0.1996,
      "velocity": 88,
      "chip": "ym2612"
    },
    {
      "channel": 2,
      "note": 77,
      "start": 0.6921,
      "duration": 0.1995,
      "velocity": 82,
      "chip": "ym2612"
    },
    {
      "channel": 4,
      "note": 77,
      "start": 0.7916,
      "duration": 0.1014,
      "velocity": 82,
      "chip": "ym2612"
    },
    {
      "channel": 1,
      "note": 61,
      "start": 0.8915,
      "duration": 0.0027,
      "velocity": 88,
      "chip": "ym2612"
    },
    {
      "channel": 2,
      "note": 80,
      "start": 0.892,
      "duration": 0.0026,
      "velocity": 82,
      "chip": "ym2612"
    },
    {
      "channel": 4,
      "note": 80,
      "start": 0.8934,
      "duration": 0.0024,
      "velocity": 82,
      "chip": "ym2612"
    },
    {
      "channel": 0,
      "note": 70,
      "start": 0.8941,
      "duration": 0.0142,
      "velocity": 97,
      "chip": "ym2612"
    },
    {
      "channel": 1,
      "note": 73,
      "start": 0.8945,
      "duration": 0.0021,
      "velocity": 88,
      "chip": "ym2612"
    },
    {
      "channel": 2,
      "note": 77,
      "start": 0.8949,
      "duration": 0.0022,
      "velocity": 82,
      "chip": "ym2612"
    },
    {
      "channel": 3,
      "note": 70,
      "start": 0.8953,
      "duration": 0.014,
      "velocity": 97,
      "chip": "ym2612"
    },
    {
      "channel": 4,
      "note": 77,
      "start": 0.8961,
      "duration": 0.0052,
      "velocity": 82,
      "chip": "ym2612"
    },
    {
      "channel": 1,
      "note": 61,
      "start": 0.897,
      "duration": 0.0051,
      "velocity": 88,
      "chip": "ym2612"
    },
    {
      "channel": 2,
      "note": 84,
      "start": 0.8974,
      "duration": 0.005,
      "velocity": 82,
      "chip": "ym2612"
    },
    {
      "channel": 4,
      "note": 84,
      "start": 0.9015,
      "duration": 0.0017,
      "velocity": 82,
      "chip": "ym2612"
    },
    {
      "channel": 1,
      "note": 73,
      "start": 0.9024,
      "duration": 0.0032,
      "velocity": 88,
      "chip": "ym2612"
    },
    {
      "channel": 2,
      "note": 80,
      "start": 0.9026,
      "duration": 0.0035,
      "velocity": 82,
      "chip": "ym2612"
    },
    {
      "channel": 4,
      "note": 80,
      "start": 0.9035,
      "duration": 0.0041,
      "velocity": 82,
      "chip": "ym2612"
    },
    {
      "channel": 1,
      "note": 60,
      "start": 0.906,
      "duration": 0.0025,
      "velocity": 88,
      "chip": "ym2612"
    },
    {
      "channel": 2,
      "note": 85,
      "start": 0.9065,
      "duration": 0.0023,
      "velocity": 82,
      "chip": "ym2612"
    },
    {
      "channel": 4,
      "note": 85,
      "start": 0.9079,
      "duration": 0.0023,
      "velocity": 82,
      "chip": "ym2612"
    },
    {
      "channel": 1,
      "note": 72,
      "start": 0.9087,
      "duration": 0.0026,
      "velocity": 88,
      "chip": "ym2612"
    },
    {
      "channel": 2,
      "note": 80,
      "start": 0.9091,
      "duration": 0.0026,
      "velocity": 82,
      "chip": "ym2612"
    },
    {
      "channel": 4,
      "note": 80,
      "start": 0.9105,
      "duration": 0.0023,
      "velocity": 82,
      "chip": "ym2612"
    },
    {
      "channel": 0,
      "note": 65,
      "start": 0.9112,
      "duration": 0.2052,
      "velocity": 97,
      "chip": "ym2612"
    },
    {
      "channel": 1,
      "note": 58,
      "start": 0.9116,
      "duration": 0.0023,
      "velocity": 88,
      "chip": "ym2612"
    },
    {
      "channel": 2,
      "note": 74,
      "start": 0.9119,
      "duration": 0.0024,
      "velocity": 82,
      "chip": "ym2612"
    },
    {
      "channel": 3,
      "note": 65,
      "start": 0.9123,
      "duration": 0.2054,
      "velocity": 97,
      "chip": "ym2612"
    },
    {
      "channel": 4,
      "note": 74,
      "start": 0.9131,
      "duration": 0.1008,
      "velocity": 82,
      "chip": "ym2612"
    },
    {
      "channel": 1,
      "note": 58,
      "start": 0.9142,
      "duration": 0.1996,
      "velocity": 88,
      "chip": "ym2612"
    },
    {
      "channel": 2,
      "note": 77,
      "start": 0.9147,
      "duration": 0.1996,
      "velocity": 82,
      "chip": "ym2612"
    },
    {
      "channel": 4,
      "note": 77,
      "start": 1.0143,
      "duration": 0.1014,
      "velocity": 82,
      "chip": "ym2612"
    },
    {
      "channel": 1,
      "note": 58,
      "start": 1.1142,
      "duration": 0.0028,
      "velocity": 88,
      "chip": "ym2612"
    },
    {
      "channel": 2,
      "note": 82,
      "start": 1.1147,
      "duration": 0.0026,
      "velocity": 82,
      "chip": "ym2612"
    },
    {
      "channel": 4,
      "note": 82,
      "start": 1.116,
      "duration": 0.0024,
      "velocity": 82,
      "chip": "ym2612"
    },
    {
      "channel": 0,
      "note": 62,
      "start": 1.1168,
      "duration": 0.0113,
      "velocity": 97,
      "chip": "ym2612"
    },
    {
      "channel": 1,
      "note": 70,
      "start": 1.1172,
      "duration": 0.0021,
      "velocity": 88,
      "chip": "ym2612"
    },
    {
      "channel": 2,
      "note": 77,
      "start": 1.1176,
      "duration": 0.0022,
      "velocity": 82,
      "chip": "ym2612"
    },
    {
      "channel": 3,
      "note": 62,
      "start": 1.1179,
      "duration": 0.0118,
      "velocity": 97,
      "chip": "ym2612"
    },
    {
      "channel": 4,
      "note": 77,
      "start": 1.1188,
      "duration": 0.005,
      "velocity": 82,
      "chip": "ym2612"
    },
    {
      "channel": 1,
      "note": 58,
      "start": 1.1196,
      "duration": 0.005,
      "velocity": 88,
      "chip": "ym2612"
    },
    {
      "channel": 2,
      "note": 86,
      "start": 1.12,
      "duration": 0.0049,
      "velocity": 82,
      "chip": "ym2612"
    },
    {
      "channel": 4,
      "note": 86,
      "start": 1.124,
      "duration": 0.0016,
      "velocity": 82,
      "chip": "ym2612"
    },
    {
      "channel": 1,
      "note": 70,
      "start": 1.1249,
      "duration": 0.0037,
      "velocity": 88,
      "chip": "ym2612"
    },
    {
      "channel": 2,
      "note": 82,
      "start": 1.1251,
      "duration": 0.004,
      "velocity": 82,
      "chip": "ym2612"
    },
    {
      "channel": 4,
      "note": 82,
      "start": 1.126,
      "duration": 0.005,
      "velocity": 82,
      "chip": "ym2612"
    },
    {
      "channel": 0,
      "note": 70,
      "start": 1.1285,
      "duration": 0.0051,
      "velocity": 97,
      "chip": "ym2612"
    },
    {
      "channel": 1,
      "note": 60,
      "start": 1.1291,
      "duration": 0.0027,
      "velocity": 88,
      "chip": "ym2612"
    },
    {
      "channel": 2,
      "note": 77,
      "start": 1.1296,
      "duration": 0.0026,
      "velocity": 82,
      "chip": "ym2612"
    },
    {
      "channel": 3,
      "note": 70,
      "start": 1.1301,
      "duration": 0.0046,
      "velocity": 97,
      "chip": "ym2612"
    },
    {
      "channel": 4,
      "note": 77,
      "start": 1.1312,
      "duration": 0.0017,
      "velocity": 82,
      "chip": "ym2612"
    },
    {
      "channel": 1,
      "note": 72,
      "start": 1.1321,
      "duration": 0.0019,
      "velocity": 88,
      "chip": "ym2612"
    },
    {
      "channel": 2,
      "note": 70,
      "start": 1.1324,
      "duration": 0.0019,
      "velocity": 82,
      "chip": "ym2612"
    },
    {
      "channel": 4,
      "note": 70,
      "start": 1.1331,
      "duration": 0.0058,
      "velocity": 82,
      "chip": "ym2612"
    },
    {
      "channel": 0,
      "note": 68,
      "start": 1.1339,
      "duration": 0.2057,
      "velocity": 97,
      "chip": "ym2612"
    },
    {
      "channel": 1,
      "note": 61,
      "start": 1.1342,
      "duration": 0.0054,
      "velocity": 88,
      "chip": "ym2612"
    },
    {
      "channel": 2,
      "note": 73,
      "start": 1.1346,
      "duration": 0.0056,
      "velocity": 82,
      "chip": "ym2612"
    },
    {
      "channel": 3,
      "note": 72,
      "start": 1.135,
      "duration": 0.2062,
      "velocity": 97,
      "chip": "ym2612"
    },
    {
      "channel": 4,
      "note": 73,
      "start": 1.139,
      "duration": 0.1007,
      "velocity": 82,
      "chip": "ym2612"
    },
    {
      "channel": 1,
      "note": 61,
      "start": 1.14,
      "duration": 0.2,
      "velocity": 88,
      "chip": "ym2612"
    },
    {
      "channel": 2,
      "note": 77,
      "start": 1.1405,
      "duration": 0.2001,
      "velocity": 82,
      "chip": "ym2612"
    },
    {
      "channel": 4,
      "note": 77,
      "start": 1.2401,
      "duration": 0.1024,
      "velocity": 82,
      "chip": "ym2612"
    },
    {
      "channel": 0,
      "note": 67,
      "start": 1.34,
      "duration": 0.005,
      "velocity": 97,
      "chip": "ym2612"
    },
    {
      "channel": 1,
      "note": 73,
      "start": 1.3405,
      "duration": 0.0027,
      "velocity": 88,
      "chip": "ym2612"
    },
    {
      "channel": 2,
      "note": 80,
      "start": 1.341,
      "duration": 0.0026,
      "velocity": 82,
      "chip": "ym2612"
    },
    {
      "channel": 3,
      "note": 70,
      "start": 1.3415,
      "duration": 0.0046,
      "velocity": 97,
      "chip": "ym2612"
    },
    {
      "channel": 4,
      "note": 80,
      "start": 1.3427,
      "duration": 0.0017,
      "velocity": 82,
      "chip": "ym2612"
    },
    {
      "channel": 1,
      "note": 61,
      "start": 1.3436,
      "duration": 0.0019,
      "velocity": 88,
      "chip": "ym2612"
    },
    {
      "channel": 2,
      "note": 85,
      "start": 1.3439,
      "duration": 0.002,
      "velocity": 82,
      "chip": "ym2612"
    },
    {
      "channel": 4,
      "note": 85,
      "start": 1.3445,
      "duration": 0.0055,
      "velocity": 82,
      "chip": "ym2612"
    },
    {
      "channel": 0,
      "note": 63,
      "start": 1.3454,
      "duration": 0.0089,
      "velocity": 97,
      "chip": "ym2612"
    },
    {
      "channel": 1,
      "note": 63,
      "start": 1.3458,
      "duration": 0.0051,
      "velocity": 88,
      "chip": "ym2612"
    },
    {
      "channel": 2,
      "note": 75,
      "start": 1.3461,
      "duration": 0.0053,
      "velocity": 82,
      "chip": "ym2612"
    },
    {
      "channel": 3,
      "note": 67,
      "start": 1.3464,
      "duration": 0.0095,
      "velocity": 97,
      "chip": "ym2612"
    },
    {
      "channel": 4,
      "note": 75,
      "start": 1.3504,
      "duration": 0.0018,
      "velocity": 82,
      "chip": "ym2612"
    },
    {
      "channel": 1,
      "note": 75,
      "start": 1.3512,
      "duration": 0.0035,
      "velocity": 88,
      "chip": "ym2612"
    },
    {
      "channel": 2,
      "note": 79,
      "start": 1.3517,
      "duration": 0.0036,
      "velocity": 82,
      "chip": "ym2612"
    },
    {
      "channel": 4,
      "note": 79,
      "start": 1.3524,
      "duration": 0.0049,
      "velocity": 82,
      "chip": "ym2612"
    },
    {
      "channel": 0,
      "note": 60,
      "start": 1.3547,
      "duration": 0.0082,
      "velocity": 97,
      "chip": "ym2612"
    },
    {
      "channel": 1,
      "note": 63,
      "start": 1.3553,
      "duration": 0.0047,
      "velocity": 88,
      "chip": "ym2612"
    },
    {
      "channel": 2,
      "note": 82,
      "start": 1.3558,
      "duration": 0.0046,
      "velocity": 82,
      "chip": "ym2612"
    },
    {
      "channel": 3,
      "note": 63,
      "start": 1.3563,
      "duration": 0.0075,
      "velocity": 97,
      "chip": "ym2612"
    },
    {
      "channel": 4,
      "note": 82,
      "start": 1.3575,
      "duration": 0.0044,
      "velocity": 82,
      "chip": "ym2612"
    },
    {
      "channel": 1,
      "note": 75,
      "start": 1.3604,
      "duration": 0.0027,
      "velocity": 88,
      "chip": "ym2612"
    },
    {
      "channel": 2,
      "note": 87,
      "start": 1.3608,
      "duration": 0.0026,
      "velocity": 82,
      "chip": "ym2612"
    },
    {
      "channel": 4,
      "note": 87,
      "start": 1.3623,
      "duration": 0.0023,
      "velocity": 82,
      "chip": "ym2612"
    },
    {
      "channel": 0,
      "note": 65,
      "start": 1.3631,
      "duration": 0.2205,
      "velocity": 97,
      "chip": "ym2612"
    },
    {
      "channel": 1,
      "note": 65,
      "start": 1.3634,
      "duration": 0.0019,
      "velocity": 88,
      "chip": "ym2612"
    },
    {
      "channel": 2,
      "note": 72,
      "start": 1.3638,
      "duration": 0.002,
      "velocity": 82,
      "chip": "ym2612"
    },
    {
      "channel": 3,
      "note": 68,
      "start": 1.3641,
      "duration": 0.2202,
      "velocity": 97,
      "chip": "ym2612"
    },
    {
      "channel": 4,
      "note": 72,
      "start": 1.3648,
      "duration": 0.1006,
      "velocity": 82,
      "chip": "ym2612"
    },
    {
      "channel": 1,
      "note": 65,
      "start": 1.3657,
      "duration": 0.1996,
      "velocity": 88,
      "chip": "ym2612"
    },
    {
      "channel": 2,
      "note": 77,
      "start": 1.3662,
      "duration": 0.1995,
      "velocity": 82,
      "chip": "ym2612"
    },
    {
      "channel": 4,
      "note": 77,
      "start": 1.4657,
      "duration": 0.1013,
      "velocity": 82,
      "chip": "ym2612"
    },
    {
      "channel": 1,
      "note": 65,
      "start": 1.5656,
      "duration": 0.0023,
      "velocity": 88,
      "chip": "ym2612"
    },
    {
      "channel": 2,
      "note": 80,
      "start": 1.5661,
      "duration": 0.0022,
      "velocity": 82,
      "chip": "ym2612"
    },
    {
      "channel": 4,
      "note": 80,
      "start": 1.5674,
      "duration": 0.0018,
      "velocity": 82,
      "chip": "ym2612"
    },
    {
      "channel": 1,
      "note": 77,
      "start": 1.5683,
      "duration": 0.0019,
      "velocity": 88,
      "chip": "ym2612"
    },
    {
      "channel": 2,
      "note": 84,
      "start": 1.5687,
      "duration": 0.0019,
      "velocity": 82,
      "chip": "ym2612"
    },
    {
      "channel": 4,
      "note": 84,
      "start": 1.5696,
      "duration": 0.0051,
      "velocity": 82,
      "chip": "ym2612"
    },
    {
      "channel": 1,
      "note": 75,
      "start": 1.5705,
      "duration": 0.0049,
      "velocity": 88,
      "chip": "ym2612"
    },
    {
      "channel": 2,
      "note": 80,
      "start": 1.5708,
      "duration": 0.0049,
      "velocity": 82,
      "chip": "ym2612"
    },
    {
      "channel": 4,
      "note": 80,
      "start": 1.5748,
      "duration": 0.0017,
      "velocity": 82,
      "chip": "ym2612"
    },
    {
      "channel": 1,
      "note": 72,
      "start": 1.5756,
      "duration": 0.0034,
      "velocity": 88,
      "chip": "ym2612"
    },
    {
      "channel": 2,
      "note": 84,
      "start": 1.576,
      "duration": 0.0035,
      "velocity": 82,
      "chip": "ym2612"
    },
    {
      "channel": 4,
      "note": 84,
      "start": 1.5769,
      "duration": 0.004,
      "velocity": 82,
      "chip": "ym2612"
    },
    {
      "channel": 1,
      "note": 68,
      "start": 1.5794,
      "duration": 0.0022,
      "velocity": 88,
      "chip": "ym2612"
    },
    {
      "channel": 2,
      "note": 89,
      "start": 1.5799,
      "duration": 0.002,
      "velocity": 82,
      "chip": "ym2612"
    },
    {
      "channel": 4,
      "note": 89,
      "start": 1.5811,
      "duration": 0.0017,
      "velocity": 82,
      "chip": "ym2612"
    },
    {
      "channel": 1,
      "note": 67,
      "start": 1.5819,
      "duration": 0.0017,
      "velocity": 88,
      "chip": "ym2612"
    },
    {
      "channel": 2,
      "note": 92,
      "start": 1.5823,
      "duration": 0.0017,
      "velocity": 82,
      "chip": "ym2612"
    },
    {
      "channel": 4,
      "note": 92,
      "start": 1.583,
      "duration": 0.0017,
      "velocity": 82,
      "chip": "ym2612"
    },
    {
      "channel": 1,
      "note": 65,
      "start": 1.5839,
      "duration": 0.0018,
      "velocity": 88,
      "chip": "ym2612"
    },
    {
      "channel": 2,
      "note": 89,
      "start": 1.5842,
      "duration": 0.0019,
      "velocity": 82,
      "chip": "ym2612"
    },
    {
      "channel": 4,
      "note": 89,
      "start": 1.585,
      "duration": 0.1009,
      "velocity": 82,
      "chip": "ym2612"
    },
    {
      "channel": 1,
      "note": 65,
      "start": 1.586,
      "duration": 0.1996,
      "velocity": 88,
      "chip": "ym2612"
    },
    {
      "channel": 2,
      "note": 84,
      "start": 1.5865,
      "duration": 0.1996,
      "velocity": 82,
      "chip": "ym2612"
    },
    {
      "channel": 4,
      "note": 84,
      "start": 1.6862,
      "duration": 0.1013,
      "velocity": 82,
      "chip": "ym2612"
    },
    {
      "channel": 1,
      "note": 65,
      "start": 1.786,
      "duration": 0.0023,
      "velocity": 88,
      "chip": "ym2612"
    },
    {
      "channel": 2,
      "note": 80,
      "start": 1.7865,
      "duration": 0.0022,
      "velocity": 82,
      "chip": "ym2612"
    },
    {
      "channel": 4,
      "note": 80,
      "start": 1.7878,
      "duration": 0.0017,
      "velocity": 82,
      "chip": "ym2612"
    },
    {
      "channel": 1,
      "note": 77,
      "start": 1.7885,
      "duration": 0.0017,
      "velocity": 88,
      "chip": "ym2612"
    },
    {
      "channel": 2,
      "note": 77,
      "start": 1.7889,
      "duration": 0.0017,
      "velocity": 82,
      "chip": "ym2612"
    },
    {
      "channel": 4,
      "note": 77,
      "start": 1.7897,
      "duration": 0.0016,
      "velocity": 82,
      "chip": "ym2612"
    },
    {
      "channel": 1,
      "note": 63,
      "start": 1.7905,
      "duration": 0.0027,
      "velocity": 88,
      "chip": "ym2612"
    },
    {
      "channel": 2,
      "note": 84,
      "start": 1.7909,
      "duration": 0.0028,
      "velocity": 82,
      "chip": "ym2612"
    },
    {
      "channel": 4,
      "note": 84,
      "start": 1.7915,
      "duration": 0.0037,
      "velocity": 82,
      "chip": "ym2612"
    },
    {
      "channel": 1,
      "note": 75,
      "start": 1.7935,
      "duration": 0.0047,
      "velocity": 88,
      "chip": "ym2612"
    },
    {
      "channel": 2,
      "note": 80,
      "start": 1.794,
      "duration": 0.0048,
      "velocity": 82,
      "chip": "ym2612"
    },
    {
      "channel": 4,
      "note": 80,
      "start": 1.7955,
      "duration": 0.0048,
      "velocity": 82,
      "chip": "ym2612"
    },
    {
      "channel": 1,
      "note": 64,
      "start": 1.7986,
      "duration": 0.0046,
      "velocity": 88,
      "chip": "ym2612"
    },
    {
      "channel": 2,
      "note": 77,
      "start": 1.7992,
      "duration": 0.0046,
      "velocity": 82,
      "chip": "ym2612"
    },
    {
      "channel": 4,
      "note": 77,
      "start": 1.8006,
      "duration": 0.0047,
      "velocity": 82,
      "chip": "ym2612"
    },
    {
      "channel": 1,
      "note": 76,
      "start": 1.8037,
      "duration": 0.0031,
      "velocity": 88,
      "chip": "ym2612"
    },
    {
      "channel": 2,
      "note": 72,
      "start": 1.8042,
      "duration": 0.0029,
      "velocity": 82,
      "chip": "ym2612"
    },
    {
      "channel": 4,
      "note": 72,
      "start": 1.8056,
      "duration": 0.0044,
      "velocity": 82,
      "chip": "ym2612"
    },
    {
      "channel": 0,
      "note": 68,
      "start": 1.8066,
      "duration": 0.2101,
      "velocity": 97,
      "chip": "ym2612"
    },
    {
      "channel": 1,
      "note": 65,
      "start": 1.8071,
      "duration": 0.0089,
      "velocity": 88,
      "chip": "ym2612"
    },
    {
      "channel": 2,
      "note": 77,
      "start": 1.8097,
      "duration": 0.2182,
      "velocity": 94,
      "chip": "ym2612"
    },
    {
      "channel": 3,
      "note": 68,
      "start": 1.81,
      "duration": 0.2074,
      "velocity": 97,
      "chip": "ym2612"
    },
    {
      "channel": 4,
      "note": 77,
      "start": 1.812,
      "duration": 0.2166,
      "velocity": 94,
      "chip": "ym2612"
    },
    {
      "channel": 1,
      "note": 65,
      "start": 1.8161,
      "duration": 0.1989,
      "velocity": 88,
      "chip": "ym2612"
    },
    {
      "channel": 1,
      "note": 65,
      "start": 2.0153,
      "duration": 0.0017,
      "velocity": 88,
      "chip": "ym2612"
    },
    {
      "channel": 0,
      "note": 67,
      "start": 2.017,
      "duration": 0.0061,
      "velocity": 97,
      "chip": "ym2612"
    },
    {
      "channel": 1,
      "note": 77,
      "start": 2.0173,
      "duration": 0.0013,
      "velocity": 88,
      "chip": "ym2612"
    },
    {
      "channel": 3,
      "note": 67,
      "start": 2.0176,
      "duration": 0.0065,
      "velocity": 97,
      "chip": "ym2612"
    },
    {
      "channel": 1,
      "note": 65,
      "start": 2.0189,
      "duration": 0.0009,
      "velocity": 88,
      "chip": "ym2612"
    },
    {
      "channel": 1,
      "note": 77,
      "start": 2.02,
      "duration": 0.0035,
      "velocity": 88,
      "chip": "ym2612"
    },
    {
      "channel": 0,
      "note": 63,
      "start": 2.0234,
      "duration": 0.0037,
      "velocity": 97,
      "chip": "ym2612"
    },
    {
      "channel": 1,
      "note": 63,
      "start": 2.024,
      "duration": 0.002,
      "velocity": 88,
      "chip": "ym2612"
    },
    {
      "channel": 3,
      "note": 63,
      "start": 2.0245,
      "duration": 0.0037,
      "velocity": 97,
      "chip": "ym2612"
    },
    {
      "channel": 1,
      "note": 75,
      "start": 2.0263,
      "duration": 0.0012,
      "velocity": 88,
      "chip": "ym2612"
    },
    {
      "channel": 0,
      "note": 65,
      "start": 2.0274,
      "duration": 0.2042,
      "velocity": 97,
      "chip": "ym2612"
    },
    {
      "channel": 1,
      "note": 61,
      "start": 2.0278,
      "duration": 0.0021,
      "velocity": 88,
      "chip": "ym2612"
    },
    {
      "channel": 2,
      "note": 73,
      "start": 2.0281,
      "duration": 0.2146,
      "velocity": 94,
      "chip": "ym2612"
    },
    {
      "channel": 3,
      "note": 65,
      "start": 2.0286,
      "duration": 0.2037,
      "velocity": 97,
      "chip": "ym2612"
    },
    {
      "channel": 4,
      "note": 73,
      "start": 2.0289,
      "duration": 0.2146,
      "velocity": 94,
      "chip": "ym2612"
    },
    {
      "channel": 1,
      "note": 61,
      "start": 2.0303,
      "duration": 0.1996,
      "velocity": 88,
      "chip": "ym2612"
    },
    {
      "channel": 1,
      "note": 61,
      "start": 2.2302,
      "duration": 0.0017,
      "velocity": 88,
      "chip": "ym2612"
    },
    {
      "channel": 0,
      "note": 61,
      "start": 2.2318,
      "duration": 0.0081,
      "velocity": 97,
      "chip": "ym2612"
    },
    {
      "channel": 1,
      "note": 73,
      "start": 2.2322,
      "duration": 0.0012,
      "velocity": 88,
      "chip": "ym2612"
    },
    {
      "channel": 3,
      "note": 61,
      "start": 2.2325,
      "duration": 0.008,
      "velocity": 97,
      "chip": "ym2612"
    },
    {
      "channel": 1,
      "note": 61,
      "start": 2.2337,
      "duration": 0.001,
      "velocity": 88,
      "chip": "ym2612"
    },
    {
      "channel": 1,
      "note": 73,
      "start": 2.2351,
      "duration": 0.0029,
      "velocity": 88,
      "chip": "ym2612"
    },
    {
      "channel": 1,
      "note": 59,
      "start": 2.2383,
      "duration": 0.0017,
      "velocity": 88,
      "chip": "ym2612"
    },
    {
      "channel": 1,
      "note": 71,
      "start": 2.2404,
      "duration": 0.0018,
      "velocity": 88,
      "chip": "ym2612"
    },
    {
      "channel": 0,
      "note": 72,
      "start": 2.2421,
      "duration": 0.2041,
      "velocity": 97,
      "chip": "ym2612"
    },
    {
      "channel": 1,
      "note": 60,
      "start": 2.2425,
      "duration": 0.0022,
      "velocity": 88,
      "chip": "ym2612"
    },
    {
      "channel": 2,
      "note": 72,
      "start": 2.243,
      "duration": 0.2108,
      "velocity": 94,
      "chip": "ym2612"
    },
    {
      "channel": 3,
      "note": 72,
      "start": 2.2434,
      "duration": 0.2034,
      "velocity": 97,
      "chip": "ym2612"
    },
    {
      "channel": 4,
      "note": 72,
      "start": 2.2438,
      "duration": 0.211,
      "velocity": 94,
      "chip": "ym2612"
    },
    {
      "channel": 1,
      "note": 60,
      "start": 2.2448,
      "duration": 0.1996,
      "velocity": 88,
      "chip": "ym2612"
    },
    {
      "channel": 1,
      "note": 60,
      "start": 2.4448,
      "duration": 0.0017,
      "velocity": 88,
      "chip": "ym2612"
    },
    {
      "channel": 0,
      "note": 70,
      "start": 2.4465,
      "duration": 0.0038,
      "velocity": 97,
      "chip": "ym2612"
    },
    {
      "channel": 1,
      "note": 60,
      "start": 2.4466,
      "duration": 0.0015,
      "velocity": 88,
      "chip": "ym2612"
    },
    {
      "channel": 3,
      "note": 70,
      "start": 2.4471,
      "duration": 0.0038,
      "velocity": 97,
      "chip": "ym2612"
    },
    {
      "channel": 1,
      "note": 60,
      "start": 2.4483,
      "duration": 0.001,
      "velocity": 88,
      "chip": "ym2612"
    },
    {
      "channel": 1,
      "note": 60,
      "start": 2.4493,
      "duration": 0.0012,
      "velocity": 88,
      "chip": "ym2612"
    },
    {
      "channel": 0,
      "note": 67,
      "start": 2.4505,
      "duration": 0.0027,
      "velocity": 97,
      "chip": "ym2612"
    },
    {
      "channel": 1,
      "note": 61,
      "start": 2.4509,
      "duration": 0.0012,
      "velocity": 88,
      "chip": "ym2612"
    },
    {
      "channel": 3,
      "note": 67,
      "start": 2.4512,
      "duration": 0.0032,
      "velocity": 97,
      "chip": "ym2612"
    },
    {
      "channel": 1,
      "note": 63,
      "start": 2.4523,
      "duration": 0.0012,
      "velocity": 88,
      "chip": "ym2612"
    },
    {
      "channel": 0,
      "note": 68,
      "start": 2.4534,
      "duration": 0.2041,
      "velocity": 97,
      "chip": "ym2612"
    },
    {
      "channel": 1,
      "note": 61,
      "start": 2.4537,
      "duration": 0.0023,
      "velocity": 88,
      "chip": "ym2612"
    },
    {
      "channel": 2,
      "note": 73,
      "start": 2.4542,
      "duration": 0.2142,
      "velocity": 94,
      "chip": "ym2612"
    },
    {
      "channel": 3,
      "note": 68,
      "start": 2.4547,
      "duration": 0.2035,
      "velocity": 97,
      "chip": "ym2612"
    },
    {
      "channel": 4,
      "note": 73,
      "start": 2.4551,
      "duration": 0.214,
      "velocity": 94,
      "chip": "ym2612"
    },
    {
      "channel": 1,
      "note": 61,
      "start": 2.4562,
      "duration": 0.1996,
      "velocity": 88,
      "chip": "ym2612"
    },
    {
      "channel": 1,
      "note": 61,
      "start": 2.6561,
      "duration": 0.0017,
      "velocity": 88,
      "chip": "ym2612"
    },
    {
      "channel": 0,
      "note": 70,
      "start": 2.6577,
      "duration": 0.0079,
      "velocity": 97,
      "chip": "ym2612"
    },
    {
      "channel": 1,
      "note": 73,
      "start": 2.6581,
      "duration": 0.0013,
      "velocity": 88,
      "chip": "ym2612"
    },
    {
      "channel": 3,
      "note": 70,
      "start": 2.6584,
      "duration": 0.0078,
      "velocity": 97,
      "chip": "ym2612"
    },
    {
      "channel": 1,
      "note": 61,
      "start": 2.6597,
      "duration": 0.001,
      "velocity": 88,
      "chip": "ym2612"
    },
    {
      "channel": 1,
      "note": 73,
      "start": 2.6609,
      "duration": 0.0029,
      "velocity": 88,
      "chip": "ym2612"
    },
    {
      "channel": 1,
      "note": 60,
      "start": 2.6642,
      "duration": 0.0015,
      "velocity": 88,
      "chip": "ym2612"
    },
    {
      "channel": 1,
      "note": 72,
      "start": 2.666,
      "duration": 0.002,
      "velocity": 88,
      "chip": "ym2612"
    },
    {
      "channel": 0,
      "note": 65,
      "start": 2.6678,
      "duration": 0.2038,
      "velocity": 97,
      "chip": "ym2612"
    },
    {
      "channel": 1,
      "note": 58,
      "start": 2.6683,
      "duration": 0.0019,
      "velocity": 88,
      "chip": "ym2612"
    },
    {
      "channel": 2,
      "note": 70,
      "start": 2.6687,
      "duration": 0.215,
      "velocity": 94,
      "chip": "ym2612"
    },
    {
      "channel": 3,
      "note": 65,
      "start": 2.669,
      "duration": 0.2035,
      "velocity": 97,
      "chip": "ym2612"
    },
    {
      "channel": 4,
      "note": 70,
      "start": 2.6693,
      "duration": 0.2155,
      "velocity": 94,
      "chip": "ym2612"
    },
    {
      "channel": 1,
      "note": 58,
      "start": 2.6703,
      "duration": 0.1996,
      "velocity": 88,
      "chip": "ym2612"
    },
    {
      "channel": 1,
      "note": 58,
      "start": 2.8702,
      "duration": 0.0019,
      "velocity": 88,
      "chip": "ym2612"
    },
    {
      "channel": 0,
      "note": 62,
      "start": 2.872,
      "duration": 0.0079,
      "velocity": 97,
      "chip": "ym2612"
    },
    {
      "channel": 1,
      "note": 70,
      "start": 2.8724,
      "duration": 0.0015,
      "velocity": 88,
      "chip": "ym2612"
    },
    {
      "channel": 3,
      "note": 62,
      "start": 2.8729,
      "duration": 0.0079,
      "velocity": 97,
      "chip": "ym2612"
    },
    {
      "channel": 1,
      "note": 58,
      "start": 2.8742,
      "duration": 0.0044,
      "velocity": 88,
      "chip": "ym2612"
    },
    {
      "channel": 1,
      "note": 70,
      "start": 2.8789,
      "duration": 0.0014,
      "velocity": 88,
      "chip": "ym2612"
    },
    {
      "channel": 0,
      "note": 70,
      "start": 2.8802,
      "duration": 0.0028,
      "velocity": 97,
      "chip": "ym2612"
    },
    {
      "channel": 1,
      "note": 60,
      "start": 2.8807,
      "duration": 0.0011,
      "velocity": 88,
      "chip": "ym2612"
    },
    {
      "channel": 3,
      "note": 70,
      "start": 2.881,
      "duration": 0.0032,
      "velocity": 97,
      "chip": "ym2612"
    },
    {
      "channel": 1,
      "note": 72,
      "start": 2.8821,
      "duration": 0.0014,
      "velocity": 88,
      "chip": "ym2612"
    },
    {
      "channel": 0,
      "note": 68,
      "start": 2.8833,
      "duration": 0.2023,
      "velocity": 97,
      "chip": "ym2612"
    },
    {
      "channel": 1,
      "note": 61,
      "start": 2.8836,
      "duration": 0.0023,
      "velocity": 88,
      "chip": "ym2612"
    },
    {
      "channel": 2,
      "note": 73,
      "start": 2.884,
      "duration": 0.2062,
      "velocity": 94,
      "chip": "ym2612"
    },
    {
      "channel": 3,
      "note": 72,
      "start": 2.8846,
      "duration": 0.2021,
      "velocity": 97,
      "chip": "ym2612"
    },
    {
      "channel": 4,
      "note": 73,
      "start": 2.885,
      "duration": 0.2063,
      "velocity": 94,
      "chip": "ym2612"
    },
    {
      "channel": 1,
      "note": 61,
      "start": 2.8861,
      "duration": 0.2,
      "velocity": 88,
      "chip": "ym2612"
    },
    {
      "channel": 0,
      "note": 67,
      "start": 3.0861,
      "duration": 0.0035,
      "velocity": 97,
      "chip": "ym2612"
    },
    {
      "channel": 1,
      "note": 73,
      "start": 3.0866,
      "duration": 0.0018,
      "velocity": 88,
      "chip": "ym2612"
    },
    {
      "channel": 3,
      "note": 70,
      "start": 3.0871,
      "duration": 0.0037,
      "velocity": 97,
      "chip": "ym2612"
    },
    {
      "channel": 1,
      "note": 61,
      "start": 3.0887,
      "duration": 0.0012,
      "velocity": 88,
      "chip": "ym2612"
    },
    {
      "channel": 0,
      "note": 63,
      "start": 3.0898,
      "duration": 0.0058,
      "velocity": 97,
      "chip": "ym2612"
    },
    {
      "channel": 1,
      "note": 63,
      "start": 3.0901,
      "duration": 0.0023,
      "velocity": 88,
      "chip": "ym2612"
    },
    {
      "channel": 2,
      "note": 75,
      "start": 3.0906,
      "duration": 0.0129,
      "velocity": 94,
      "chip": "ym2612"
    },
    {
      "channel": 3,
      "note": 67,
      "start": 3.0912,
      "duration": 0.0054,
      "velocity": 97,
      "chip": "ym2612"
    },
    {
      "channel": 4,
      "note": 75,
      "start": 3.0915,
      "duration": 0.0128,
      "velocity": 94,
      "chip": "ym2612"
    },
    {
      "channel": 1,
      "note": 75,
      "start": 3.0928,
      "duration": 0.0033,
      "velocity": 88,
      "chip": "ym2612"
    },
    {
      "channel": 0,
      "note": 60,
      "start": 3.096,
      "duration": 0.0069,
      "velocity": 97,
      "chip": "ym2612"
    },
    {
      "channel": 1,
      "note": 63,
      "start": 3.0965,
      "duration": 0.0045,
      "velocity": 88,
      "chip": "ym2612"
    },
    {
      "channel": 3,
      "note": 63,
      "start": 3.0971,
      "duration": 0.0068,
      "velocity": 97,
      "chip": "ym2612"
    },
    {
      "channel": 1,
      "note": 75,
      "start": 3.1014,
      "duration": 0.0017,
      "velocity": 88,
      "chip": "ym2612"
    },
    {
      "channel": 0,
      "note": 65,
      "start": 3.103,
      "duration": 0.2076,
      "velocity": 97,
      "chip": "ym2612"
    },
    {
      "channel": 1,
      "note": 65,
      "start": 3.1035,
      "duration": 0.0021,
      "velocity": 88,
      "chip": "ym2612"
    },
    {
      "channel": 2,
      "note": 77,
      "start": 3.1038,
      "duration": 0.211,
      "velocity": 94,
      "chip": "ym2612"
    },
    {
      "channel": 3,
      "note": 69,
      "start": 3.1042,
      "duration": 0.2073,
      "velocity": 97,
      "chip": "ym2612"
    },
    {
      "channel": 4,
      "note": 81,
      "start": 3.1046,
      "duration": 0.2109,
      "velocity": 94,
      "chip": "ym2612"
    },
    {
      "channel": 1,
      "note": 65,
      "start": 3.1056,
      "duration": 0.1995,
      "velocity": 88,
      "chip": "ym2612"
    },
    {
      "channel": 1,
      "note": 65,
      "start": 3.3054,
      "duration": 0.0014,
      "velocity": 88,
      "chip": "ym2612"
    },
    {
      "channel": 1,
      "note": 77,
      "start": 3.3071,
      "duration": 0.001,
      "velocity": 88,
      "chip": "ym2612"
    },
    {
      "channel": 1,
      "note": 75,
      "start": 3.3084,
      "duration": 0.0009,
      "velocity": 88,
      "chip": "ym2612"
    },
    {
      "channel": 1,
      "note": 72,
      "start": 3.3096,
      "duration": 0.0014,
      "velocity": 88,
      "chip": "ym2612"
    },
    {
      "channel": 0,
      "note": 72,
      "start": 3.311,
      "duration": 0.003,
      "velocity": 97,
      "chip": "ym2612"
    },
    {
      "channel": 1,
      "note": 68,
      "start": 3.3114,
      "duration": 0.0013,
      "velocity": 88,
      "chip": "ym2612"
    },
    {
      "channel": 3,
      "note": 65,
      "start": 3.3118,
      "duration": 0.0032,
      "velocity": 97,
      "chip": "ym2612"
    },
    {
      "channel": 1,
      "note": 67,
      "start": 3.313,
      "duration": 0.0013,
      "velocity": 88,
      "chip": "ym2612"
    },
    {
      "channel": 0,
      "note": 70,
      "start": 3.3143,
      "duration": 0.0064,
      "velocity": 97,
      "chip": "ym2612"
    },
    {
      "channel": 1,
      "note": 65,
      "start": 3.3147,
      "duration": 0.0027,
      "velocity": 88,
      "chip": "ym2612"
    },
    {
      "channel": 2,
      "note": 77,
      "start": 3.3149,
      "duration": 0.0014,
      "velocity": 94,
      "chip": "ym2612"
    },
    {
      "channel": 3,
      "note": 60,
      "start": 3.3154,
      "duration": 0.006,
      "velocity": 97,
      "chip": "ym2612"
    },
    {
      "channel": 4,
      "note": 77,
      "start": 3.3158,
      "duration": 0.0008,
      "velocity": 94,
      "chip": "ym2612"
    },
    {
      "channel": 2,
      "note": 79,
      "start": 3.3166,
      "duration": 0.0009,
      "velocity": 94,
      "chip": "ym2612"
    },
    {
      "channel": 4,
      "note": 79,
      "start": 3.3168,
      "duration": 0.0012,
      "velocity": 94,
      "chip": "ym2612"
    },
    {
      "channel": 1,
      "note": 65,
      "start": 3.3174,
      "duration": 0.0037,
      "velocity": 88,
      "chip": "ym2612"
    },
    {
      "channel": 2,
      "note": 81,
      "start": 3.318,
      "duration": 0.0016,
      "velocity": 94,
      "chip": "ym2612"
    },
    {
      "channel": 4,
      "note": 81,
      "start": 3.3185,
      "duration": 0.0013,
      "velocity": 94,
      "chip": "ym2612"
    },
    {
      "channel": 2,
      "note": 82,
      "start": 3.3197,
      "duration": 0.0015,
      "velocity": 94,
      "chip": "ym2612"
    },
    {
      "channel": 4,
      "note": 82,
      "start": 3.3201,
      "duration": 0.0018,
      "velocity": 94,
      "chip": "ym2612"
    },
    {
      "channel": 0,
      "note": 69,
      "start": 3.321,
      "duration": 0.0124,
      "velocity": 97,
      "chip": "ym2612"
    },
    {
      "channel": 1,
      "note": 65,
      "start": 3.3211,
      "duration": 0.0066,
      "velocity": 88,
      "chip": "ym2612"
    },
    {
      "channel": 2,
      "note": 79,
      "start": 3.3214,
      "duration": 0.0043,
      "velocity": 94,
      "chip": "ym2612"
    },
    {
      "channel": 3,
      "note": 65,
      "start": 3.3218,
      "duration": 0.0129,
      "velocity": 97,
      "chip": "ym2612"
    },
    {
      "channel": 4,
      "note": 79,
      "start": 3.3223,
      "duration": 0.0039,
      "velocity": 94,
      "chip": "ym2612"
    },
    {
      "channel": 2,
      "note": 81,
      "start": 3.3261,
      "duration": 0.0019,
      "velocity": 94,
      "chip": "ym2612"
    },
    {
      "channel": 4,
      "note": 81,
      "start": 3.3267,
      "duration": 0.0017,
      "velocity": 94,
      "chip": "ym2612"
    },
    {
      "channel": 1,
      "note": 77,
      "start": 3.328,
      "duration": 0.0057,
      "velocity": 88,
      "chip": "ym2612"
    },
    {
      "channel": 2,
      "note": 82,
      "start": 3.3283,
      "duration": 0.001,
      "velocity": 94,
      "chip": "ym2612"
    },
    {
      "channel": 4,
      "note": 82,
      "start": 3.3287,
      "duration": 0.0008,
      "velocity": 94,
      "chip": "ym2612"
    },
    {
      "channel": 2,
      "note": 84,
      "start": 3.3295,
      "duration": 0.0047,
      "velocity": 94,
      "chip": "ym2612"
    },
    {
      "channel": 4,
      "note": 84,
      "start": 3.3299,
      "duration": 0.0052,
      "velocity": 94,
      "chip": "ym2612"
    },
    {
      "channel": 0,
      "note": 65,
      "start": 3.3337,
      "duration": 0.009,
      "velocity": 97,
      "chip": "ym2612"
    },
    {
      "channel": 1,
      "note": 65,
      "start": 3.334,
      "duration": 0.0065,
      "velocity": 88,
      "chip": "ym2612"
    },
    {
      "channel": 2,
      "note": 81,
      "start": 3.3345,
      "duration": 0.0041,
      "velocity": 94,
      "chip": "ym2612"
    },
    {
      "channel": 3,
      "note": 69,
      "start": 3.3349,
      "duration": 0.0088,
      "velocity": 97,
      "chip": "ym2612"
    },
    {
      "channel": 4,
      "note": 81,
      "start": 3.3354,
      "duration": 0.0037,
      "velocity": 94,
      "chip": "ym2612"
    },
    {
      "channel": 2,
      "note": 82,
      "start": 3.339,
      "duration": 0.0018,
      "velocity": 94,
      "chip": "ym2612"
    },
    {
      "channel": 4,
      "note": 82,
      "start": 3.3395,
      "duration": 0.0017,
      "velocity": 94,
      "chip": "ym2612"
    },
    {
      "channel": 1,
      "note": 77,
      "start": 3.3408,
      "duration": 0.0022,
      "velocity": 88,
      "chip": "ym2612"
    },
    {
      "channel": 2,
      "note": 84,
      "start": 3.3411,
      "duration": 0.0008,
      "velocity": 94,
      "chip": "ym2612"
    },
    {
      "channel": 4,
      "note": 84,
      "start": 3.3415,
      "duration": 0.0005,
      "velocity": 94,
      "chip": "ym2612"
    },
    {
      "channel": 2,
      "note": 86,
      "start": 3.342,
      "duration": 0.0014,
      "velocity": 94,
      "chip": "ym2612"
    },
    {
      "channel": 4,
      "note": 86,
      "start": 3.3423,
      "duration": 0.0017,
      "velocity": 94,
      "chip": "ym2612"
    },
    {
      "channel": 0,
      "note": 60,
      "start": 3.3429,
      "duration": 0.0051,
      "velocity": 97,
      "chip": "ym2612"
    },
    {
      "channel": 1,
      "note": 63,
      "start": 3.3432,
      "duration": 0.0022,
      "velocity": 88,
      "chip": "ym2612"
    },
    {
      "channel": 2,
      "note": 82,
      "start": 3.3436,
      "duration": 0.0009,
      "velocity": 94,
      "chip": "ym2612"
    },
    {
      "channel": 3,
      "note": 72,
      "start": 3.3439,
      "duration": 0.0052,
      "velocity": 97,
      "chip": "ym2612"
    },
    {
      "channel": 4,
      "note": 82,
      "start": 3.3442,
      "duration": 0.0006,
      "velocity": 94,
      "chip": "ym2612"
    },
    {
      "channel": 2,
      "note": 84,
      "start": 3.3447,
      "duration": 0.001,
      "velocity": 94,
      "chip": "ym2612"
    },
    {
      "channel": 4,
      "note": 84,
      "start": 3.3451,
      "duration": 0.0009,
      "velocity": 94,
      "chip": "ym2612"
    },
    {
      "channel": 1,
      "note": 75,
      "start": 3.3457,
      "duration": 0.0028,
      "velocity": 88,
      "chip": "ym2612"
    },
    {
      "channel": 2,
      "note": 86,
      "start": 3.3459,
      "duration": 0.001,
      "velocity": 94,
      "chip": "ym2612"
    },
    {
      "channel": 4,
      "note": 86,
      "start": 3.3462,
      "duration": 0.0009,
      "velocity": 94,
      "chip": "ym2612"
    },
    {
      "channel": 2,
      "note": 88,
      "start": 3.3471,
      "duration": 0.0017,
      "velocity": 94,
      "chip": "ym2612"
    },
    {
      "channel": 4,
      "note": 88,
      "start": 3.3474,
      "duration": 0.002,
      "velocity": 94,
      "chip": "ym2612"
    },
    {
      "channel": 0,
      "note": 65,
      "start": 3.3484,
      "duration": 0.0055,
      "velocity": 97,
      "chip": "ym2612"
    },
    {
      "channel": 1,
      "note": 61,
      "start": 3.3487,
      "duration": 0.0056,
      "velocity": 88,
      "chip": "ym2612"
    },
    {
      "channel": 2,
      "note": 89,
      "start": 3.3491,
      "duration": 0.4248,
      "velocity": 94,
      "chip": "ym2612"
    },
    {
      "channel": 3,
      "note": 72,
      "start": 3.3493,
      "duration": 0.0051,
      "velocity": 97,
      "chip": "ym2612"
    },
    {
      "channel": 4,
      "note": 89,
      "start": 3.3497,
      "duration": 0.4244,
      "velocity": 94,
      "chip": "ym2612"
    },
    {
      "channel": 0,
      "note": 61,
      "start": 3.3542,
      "duration": 0.1992,
      "velocity": 97,
      "chip": "ym2612"
    },
    {
      "channel": 1,
      "note": 61,
      "start": 3.3544,
      "duration": 0.1995,
      "velocity": 88,
      "chip": "ym2612"
    },
    {
      "channel": 3,
      "note": 72,
      "start": 3.3549,
      "duration": 0.1995,
      "velocity": 97,
      "chip": "ym2612"
    },
    {
      "channel": 0,
      "note": 63,
      "start": 3.5539,
      "duration": 0.0023,
      "velocity": 97,
      "chip": "ym2612"
    },
    {
      "channel": 1,
      "note": 61,
      "start": 3.5543,
      "duration": 0.0022,
      "velocity": 88,
      "chip": "ym2612"
    },
    {
      "channel": 3,
      "note": 72,
      "start": 3.5548,
      "duration": 0.002,
      "velocity": 97,
      "chip": "ym2612"
    },
    {
      "channel": 0,
      "note": 65,
      "start": 3.5564,
      "duration": 0.0014,
      "velocity": 97,
      "chip": "ym2612"
    },
    {
      "channel": 1,
      "note": 73,
      "start": 3.5568,
      "duration": 0.0011,
      "velocity": 88,
      "chip": "ym2612"
    },
    {
      "channel": 3,
      "note": 72,
      "start": 3.5569,
      "duration": 0.0014,
      "velocity": 97,
      "chip": "ym2612"
    },
    {
      "channel": 1,
      "note": 61,
      "start": 3.5581,
      "duration": 0.0043,
      "velocity": 88,
      "chip": "ym2612"
    },
    {
      "channel": 0,
      "note": 68,
      "start": 3.5623,
      "duration": 0.0025,
      "velocity": 97,
      "chip": "ym2612"
    },
    {
      "channel": 1,
      "note": 73,
      "start": 3.5627,
      "duration": 0.0023,
      "velocity": 88,
      "chip": "ym2612"
    },
    {
      "channel": 3,
      "note": 72,
      "start": 3.5628,
      "duration": 0.0028,
      "velocity": 97,
      "chip": "ym2612"
    },
    {
      "channel": 1,
      "note": 61,
      "start": 3.5654,
      "duration": 0.0017,
      "velocity": 88,
      "chip": "ym2612"
    },
    {
      "channel": 0,
      "note": 67,
      "start": 3.5671,
      "duration": 0.2197,
      "velocity": 97,
      "chip": "ym2612"
    },
    {
      "channel": 1,
      "note": 73,
      "start": 3.5674,
      "duration": 0.0013,
      "velocity": 88,
      "chip": "ym2612"
    },
    {
      "channel": 3,
      "note": 70,
      "start": 3.5677,
      "duration": 0.2202,
      "velocity": 97,
      "chip": "ym2612"
    },
    {
      "channel": 1,
      "note": 61,
      "start": 3.569,
      "duration": 0.0014,
      "velocity": 88,
      "chip": "ym2612"
    },
    {
      "channel": 1,
      "note": 61,
      "start": 3.5708,
      "duration": 0.1996,
      "velocity": 88,
      "chip": "ym2612"
    },
    {
      "channel": 1,
      "note": 61,
      "start": 3.7708,
      "duration": 0.0014,
      "velocity": 88,
      "chip": "ym2612"
    },
    {
      "channel": 1,
      "note": 73,
      "start": 3.7725,
      "duration": 0.0009,
      "velocity": 88,
      "chip": "ym2612"
    },
    {
      "channel": 1,
      "note": 61,
      "start": 3.7738,
      "duration": 0.0024,
      "velocity": 88,
      "chip": "ym2612"
    },
    {
      "channel": 2,
      "note": 89,
      "start": 3.774,
      "duration": 0.0008,
      "velocity": 94,
      "chip": "ym2612"
    },
    {
      "channel": 4,
      "note": 89,
      "start": 3.7743,
      "duration": 0.001,
      "velocity": 94,
      "chip": "ym2612"
    },
    {
      "channel": 2,
      "note": 87,
      "start": 3.7751,
      "duration": 0.0015,
      "velocity": 94,
      "chip": "ym2612"
    },
    {
      "channel": 4,
      "note": 87,
      "start": 3.7756,
      "duration": 0.0013,
      "velocity": 94,
      "chip": "ym2612"
    },
    {
      "channel": 1,
      "note": 73,
      "start": 3.7766,
      "duration": 0.0038,
      "velocity": 88,
      "chip": "ym2612"
    },
    {
      "channel": 2,
      "note": 85,
      "start": 3.7768,
      "duration": 0.0011,
      "velocity": 94,
      "chip": "ym2612"
    },
    {
      "channel": 4,
      "note": 85,
      "start": 3.7773,
      "duration": 0.0011,
      "velocity": 94,
      "chip": "ym2612"
    },
    {
      "channel": 2,
      "note": 84,
      "start": 3.7782,
      "duration": 0.0026,
      "velocity": 94,
      "chip": "ym2612"
    },
    {
      "channel": 4,
      "note": 84,
      "start": 3.7787,
      "duration": 0.0027,
      "velocity": 94,
      "chip": "ym2612"
    },
    {
      "channel": 1,
      "note": 59,
      "start": 3.7808,
      "duration": 0.0033,
      "velocity": 88,
      "chip": "ym2612"
    },
    {
      "channel": 2,
      "note": 87,
      "start": 3.7812,
      "duration": 0.0015,
      "velocity": 94,
      "chip": "ym2612"
    },
    {
      "channel": 4,
      "note": 87,
      "start": 3.7817,
      "duration": 0.0015,
      "velocity": 94,
      "chip": "ym2612"
    },
    {
      "channel": 2,
      "note": 85,
      "start": 3.783,
      "duration": 0.0014,
      "velocity": 94,
      "chip": "ym2612"
    },
    {
      "channel": 4,
      "note": 85,
      "start": 3.7835,
      "duration": 0.0012,
      "velocity": 94,
      "chip": "ym2612"
    },
    {
      "channel": 1,
      "note": 71,
      "start": 3.7844,
      "duration": 0.0028,
      "velocity": 88,
      "chip": "ym2612"
    },
    {
      "channel": 2,
      "note": 84,
      "start": 3.7846,
      "duration": 0.0011,
      "velocity": 94,
      "chip": "ym2612"
    },
    {
      "channel": 4,
      "note": 84,
      "start": 3.7851,
      "duration": 0.0009,
      "velocity": 94,
      "chip": "ym2612"
    },
    {
      "channel": 2,
      "note": 82,
      "start": 3.7859,
      "duration": 0.0017,
      "velocity": 94,
      "chip": "ym2612"
    },
    {
      "channel": 4,
      "note": 82,
      "start": 3.7863,
      "duration": 0.0021,
      "velocity": 94,
      "chip": "ym2612"
    },
    {
      "channel": 0,
      "note": 63,
      "start": 3.7871,
      "duration": 0.0025,
      "velocity": 97,
      "chip": "ym2612"
    },
    {
      "channel": 1,
      "note": 60,
      "start": 3.7874,
      "duration": 0.0025,
      "velocity": 88,
      "chip": "ym2612"
    },
    {
      "channel": 2,
      "note": 84,
      "start": 3.7878,
      "duration": 0.2063,
      "velocity": 94,
      "chip": "ym2612"
    },
    {
      "channel": 3,
      "note": 72,
      "start": 3.7882,
      "duration": 0.0023,
      "velocity": 97,
      "chip": "ym2612"
    },
    {
      "channel": 4,
      "note": 84,
      "start": 3.7885,
      "duration": 0.2061,
      "velocity": 94,
      "chip": "ym2612"
    },
    {
      "channel": 0,
      "note": 60,
      "start": 3.7899,
      "duration": 0.1996,
      "velocity": 97,
      "chip": "ym2612"
    },
    {
      "channel": 1,
      "note": 60,
      "start": 3.7903,
      "duration": 0.1996,
      "velocity": 88,
      "chip": "ym2612"
    },
    {
      "channel": 3,
      "note": 70,
      "start": 3.7909,
      "duration": 0.1996,
      "velocity": 97,
      "chip": "ym2612"
    },
    {
      "channel": 0,
      "note": 61,
      "start": 3.9899,
      "duration": 0.0022,
      "velocity": 97,
      "chip": "ym2612"
    },
    {
      "channel": 1,
      "note": 60,
      "start": 3.9903,
      "duration": 0.0021,
      "velocity": 88,
      "chip": "ym2612"
    },
    {
      "channel": 3,
      "note": 68,
      "start": 3.9909,
      "duration": 0.0019,
      "velocity": 97,
      "chip": "ym2612"
    },
    {
      "channel": 0,
      "note": 70,
      "start": 3.9924,
      "duration": 0.007,
      "velocity": 97,
      "chip": "ym2612"
    },
    {
      "channel": 1,
      "note": 60,
      "start": 3.9926,
      "duration": 0.0014,
      "velocity": 88,
      "chip": "ym2612"
    },
    {
      "channel": 3,
      "note": 67,
      "start": 3.9931,
      "duration": 0.0069,
      "velocity": 97,
      "chip": "ym2612"
    },
    {
      "channel": 1,
      "note": 60,
      "start": 3.9941,
      "duration": 0.0058,
      "velocity": 88,
      "chip": "ym2612"
    },
    {
      "channel": 2,
      "note": 82,
      "start": 3.9945,
      "duration": 0.0127,
      "velocity": 94,
      "chip": "ym2612"
    },
    {
      "channel": 4,
      "note": 82,
      "start": 3.995,
      "duration": 0.0132,
      "velocity": 94,
      "chip": "ym2612"
    },
    {
      "channel": 0,
      "note": 68,
      "start": 3.9997,
      "duration": 0.0046,
      "velocity": 97,
      "chip": "ym2612"
    },
    {
      "channel": 1,
      "note": 60,
      "start": 3.9999,
      "duration": 0.0025,
      "velocity": 88,
      "chip": "ym2612"
    },
    {
      "channel": 3,
      "note": 63,
      "start": 4.0003,
      "duration": 0.0049,
      "velocity": 97,
      "chip": "ym2612"
    },
    {
      "channel": 1,
      "note": 61,
      "start": 4.0028,
      "duration": 0.0019,
      "velocity": 88,
      "chip": "ym2612"
    },
    {
      "channel": 0,
      "note": 67,
      "start": 4.0046,
      "duration": 0.0016,
      "velocity": 97,
      "chip": "ym2612"
    },
    {
      "channel": 1,
      "note": 63,
      "start": 4.0051,
      "duration": 0.0015,
      "velocity": 88,
      "chip": "ym2612"
    },
    {
      "channel": 3,
      "note": 60,
      "start": 4.0054,
      "duration": 0.0022,
      "velocity": 97,
      "chip": "ym2612"
    },
    {
      "channel": 0,
      "note": 68,
      "start": 4.0065,
      "duration": 0.2128,
      "velocity": 97,
      "chip": "ym2612"
    },
    {
      "channel": 1,
      "note": 65,
      "start": 4.0071,
      "duration": 0.0025,
      "velocity": 88,
      "chip": "ym2612"
    },
    {
      "channel": 2,
      "note": 80,
      "start": 4.0076,
      "duration": 0.2075,
      "velocity": 94,
      "chip": "ym2612"
    },
    {
      "channel": 3,
      "note": 65,
      "start": 4.0081,
      "duration": 0.2128,
      "velocity": 97,
      "chip": "ym2612"
    },
    {
      "channel": 4,
      "note": 80,
      "start": 4.0086,
      "duration": 0.2068,
      "velocity": 94,
      "chip": "ym2612"
    },
    {
      "channel": 1,
      "note": 65,
      "start": 4.0097,
      "duration": 0.1996,
      "velocity": 88,
      "chip": "ym2612"
    },
    {
      "channel": 1,
      "note": 67,
      "start": 4.2096,
      "duration": 0.0014,
      "velocity": 88,
      "chip": "ym2612"
    },
    {
      "channel": 1,
      "note": 67,
      "start": 4.2112,
      "duration": 0.001,
      "velocity": 88,
      "chip": "ym2612"
    },
    {
      "channel": 1,
      "note": 68,
      "start": 4.2126,
      "duration": 0.0009,
      "velocity": 88,
      "chip": "ym2612"
    },
    {
      "channel": 1,
      "note": 68,
      "start": 4.2137,
      "duration": 0.001,
      "velocity": 88,
      "chip": "ym2612"
    },
    {
      "channel": 1,
      "note": 70,
      "start": 4.2149,
      "duration": 0.002,
      "velocity": 88,
      "chip": "ym2612"
    },
    {
      "channel": 2,
      "note": 79,
      "start": 4.2153,
      "duration": 0.0051,
      "velocity": 94,
      "chip": "ym2612"
    },
    {
      "channel": 4,
      "note": 79,
      "start": 4.2158,
      "duration": 0.0056,
      "velocity": 94,
      "chip": "ym2612"
    },
    {
      "channel": 1,
      "note": 72,
      "start": 4.2172,
      "duration": 0.0026,
      "velocity": 88,
      "chip": "ym2612"
    },
    {
      "channel": 0,
      "note": 62,
      "start": 4.2196,
      "duration": 0.2083,
      "velocity": 97,
      "chip": "ym2612"
    },
    {
      "channel": 1,
      "note": 58,
      "start": 4.2203,
      "duration": 0.0063,
      "velocity": 88,
      "chip": "ym2612"
    },
    {
      "channel": 2,
      "note": 77,
      "start": 4.2208,
      "duration": 0.2182,
      "velocity": 94,
      "chip": "ym2612"
    },
    {
      "channel": 3,
      "note": 65,
      "start": 4.2213,
      "duration": 0.2073,
      "velocity": 97,
      "chip": "ym2612"
    },
    {
      "channel": 4,
      "note": 77,
      "start": 4.2218,
      "duration": 0.2181,
      "velocity": 94,
      "chip": "ym2612"
    },
    {
      "channel": 1,
      "note": 58,
      "start": 4.2267,
      "duration": 0.1996,
      "velocity": 88,
      "chip": "ym2612"
    },
    {
      "channel": 1,
      "note": 58,
      "start": 4.4266,
      "duration": 0.0017,
      "velocity": 88,
      "chip": "ym2612"
    },
    {
      "channel": 0,
      "note": 63,
      "start": 4.4282,
      "duration": 0.0061,
      "velocity": 97,
      "chip": "ym2612"
    },
    {
      "channel": 1,
      "note": 70,
      "start": 4.4286,
      "duration": 0.0012,
      "velocity": 88,
      "chip": "ym2612"
    },
    {
      "channel": 3,
      "note": 68,
      "start": 4.4289,
      "duration": 0.0065,
      "velocity": 97,
      "chip": "ym2612"
    },
    {
      "channel": 1,
      "note": 58,
      "start": 4.4301,
      "duration": 0.0009,
      "velocity": 88,
      "chip": "ym2612"
    },
    {
      "channel": 1,
      "note": 70,
      "start": 4.4313,
      "duration": 0.0035,
      "velocity": 88,
      "chip": "ym2612"
    },
    {
      "channel": 0,
      "note": 65,
      "start": 4.4347,
      "duration": 0.0037,
      "velocity": 97,
      "chip": "ym2612"
    },
    {
      "channel": 1,
      "note": 60,
      "start": 4.4352,
      "duration": 0.002,
      "velocity": 88,
      "chip": "ym2612"
    },
    {
      "channel": 3,
      "note": 70,
      "start": 4.4357,
      "duration": 0.0037,
      "velocity": 97,
      "chip": "ym2612"
    },
    {
      "channel": 1,
      "note": 72,
      "start": 4.4375,
      "duration": 0.0012,
      "velocity": 88,
      "chip": "ym2612"
    },
    {
      "channel": 0,
      "note": 70,
      "start": 4.4385,
      "duration": 0.2041,
      "velocity": 97,
      "chip": "ym2612"
    },
    {
      "channel": 1,
      "note": 61,
      "start": 4.4388,
      "duration": 0.0023,
      "velocity": 88,
      "chip": "ym2612"
    },
    {
      "channel": 2,
      "note": 80,
      "start": 4.4394,
      "duration": 0.2134,
      "velocity": 94,
      "chip": "ym2612"
    },
    {
      "channel": 3,
      "note": 65,
      "start": 4.4398,
      "duration": 0.2036,
      "velocity": 97,
      "chip": "ym2612"
    },
    {
      "channel": 4,
      "note": 80,
      "start": 4.4402,
      "duration": 0.2137,
      "velocity": 94,
      "chip": "ym2612"
    },
    {
      "channel": 1,
      "note": 61,
      "start": 4.4414,
      "duration": 0.1996,
      "velocity": 88,
      "chip": "ym2612"
    },
    {
      "channel": 1,
      "note": 61,
      "start": 4.6413,
      "duration": 0.0017,
      "velocity": 88,
      "chip": "ym2612"
    },
    {
      "channel": 0,
      "note": 68,
      "start": 4.643,
      "duration": 0.004,
      "velocity": 97,
      "chip": "ym2612"
    },
    {
      "channel": 1,
      "note": 73,
      "start": 4.6433,
      "duration": 0.0012,
      "velocity": 88,
      "chip": "ym2612"
    },
    {
      "channel": 3,
      "note": 64,
      "start": 4.6436,
      "duration": 0.0042,
      "velocity": 97,
      "chip": "ym2612"
    },
    {
      "channel": 1,
      "note": 61,
      "start": 4.6449,
      "duration": 0.001,
      "velocity": 88,
      "chip": "ym2612"
    },
    {
      "channel": 1,
      "note": 73,
      "start": 4.6462,
      "duration": 0.0012,
      "velocity": 88,
      "chip": "ym2612"
    },
    {
      "channel": 0,
      "note": 64,
      "start": 4.6473,
      "duration": 0.0044,
      "velocity": 97,
      "chip": "ym2612"
    },
    {
      "channel": 1,
      "note": 62,
      "start": 4.6476,
      "duration": 0.0017,
      "velocity": 88,
      "chip": "ym2612"
    },
    {
      "channel": 3,
      "note": 68,
      "start": 4.6481,
      "duration": 0.0052,
      "velocity": 97,
      "chip": "ym2612"
    },
    {
      "channel": 1,
      "note": 74,
      "start": 4.6496,
      "duration": 0.0027,
      "velocity": 88,
      "chip": "ym2612"
    },
    {
      "channel": 0,
      "note": 63,
      "start": 4.6521,
      "duration": 0.2173,
      "velocity": 97,
      "chip": "ym2612"
    },
    {
      "channel": 1,
      "note": 63,
      "start": 4.6527,
      "duration": 0.0063,
      "velocity": 88,
      "chip": "ym2612"
    },
    {
      "channel": 2,
      "note": 82,
      "start": 4.6532,
      "duration": 0.2172,
      "velocity": 94,
      "chip": "ym2612"
    },
    {
      "channel": 3,
      "note": 70,
      "start": 4.6537,
      "duration": 0.2171,
      "velocity": 97,
      "chip": "ym2612"
    },
    {
      "channel": 4,
      "note": 82,
      "start": 4.6543,
      "duration": 0.2171,
      "velocity": 94,
      "chip": "ym2612"
    },
    {
      "channel": 1,
      "note": 63,
      "start": 4.6591,
      "duration": 0.1996,
      "velocity": 88,
      "chip": "ym2612"
    },
    {
      "channel": 1,
      "note": 63,
      "start": 4.859,
      "duration": 0.0014,
      "velocity": 88,
      "chip": "ym2612"
    },
    {
      "channel": 1,
      "note": 75,
      "start": 4.8608,
      "duration": 0.001,
      "velocity": 88,
      "chip": "ym2612"
    },
    {
      "channel": 1,
      "note": 63,
      "start": 4.8622,
      "duration": 0.0009,
      "velocity": 88,
      "chip": "ym2612"
    },
    {
      "channel": 1,
      "note": 75,
      "start": 4.8633,
      "duration": 0.0031,
      "velocity": 88,
      "chip": "ym2612"
    },
    {
      "channel": 1,
      "note": 61,
      "start": 4.8668,
      "duration": 0.0015,
      "velocity": 88,
      "chip": "ym2612"
    },
    {
      "channel": 1,
      "note": 73,
      "start": 4.8685,
      "duration": 0.0014,
      "velocity": 88,
      "chip": "ym2612"
    },
    {
      "channel": 0,
      "note": 68,
      "start": 4.8698,
      "duration": 0.0036,
      "velocity": 97,
      "chip": "ym2612"
    },
    {
      "channel": 1,
      "note": 72,
      "start": 4.8702,
      "duration": 0.0034,
      "velocity": 88,
      "chip": "ym2612"
    },
    {
      "channel": 2,
      "note": 80,
      "start": 4.8707,
      "duration": 0.0072,
      "velocity": 94,
      "chip": "ym2612"
    },
    {
      "channel": 3,
      "note": 72,
      "start": 4.8713,
      "duration": 0.0027,
      "velocity": 97,
      "chip": "ym2612"
    },
    {
      "channel": 4,
      "note": 77,
      "start": 4.8719,
      "duration": 0.0068,
      "velocity": 94,
      "chip": "ym2612"
    },
    {
      "channel": 0,
      "note": 67,
      "start": 4.8737,
      "duration": 0.0017,
      "velocity": 97,
      "chip": "ym2612"
    },
    {
      "channel": 1,
      "note": 70,
      "start": 4.8739,
      "duration": 0.0018,
      "velocity": 88,
      "chip": "ym2612"
    },
    {
      "channel": 3,
      "note": 70,
      "start": 4.8744,
      "duration": 0.0016,
      "velocity": 97,
      "chip": "ym2612"
    },
    {
      "channel": 0,
      "note": 65,
      "start": 4.8756,
      "duration": 0.0016,
      "velocity": 97,
      "chip": "ym2612"
    },
    {
      "channel": 1,
      "note": 68,
      "start": 4.8759,
      "duration": 0.0017,
      "velocity": 88,
      "chip": "ym2612"
    },
    {
      "channel": 3,
      "note": 68,
      "start": 4.8763,
      "duration": 0.002,
      "velocity": 97,
      "chip": "ym2612"
    },
    {
      "channel": 0,
      "note": 70,
      "start": 4.8774,
      "duration": 0.0024,
      "velocity": 97,
      "chip": "ym2612"
    },
    {
      "channel": 1,
      "note": 70,
      "start": 4.8778,
      "duration": 0.0024,
      "velocity": 88,
      "chip": "ym2612"
    },
    {
      "channel": 2,
      "note": 82,
      "start": 4.8781,
      "duration": 0.0077,
      "velocity": 94,
      "chip": "ym2612"
    },
    {
      "channel": 3,
      "note": 70,
      "start": 4.8786,
      "duration": 0.002,
      "velocity": 97,
      "chip": "ym2612"
    },
    {
      "channel": 4,
      "note": 75,
      "start": 4.8789,
      "duration": 0.0079,
      "velocity": 94,
      "chip": "ym2612"
    },
    {
      "channel": 0,
      "note": 68,
      "start": 4.8802,
      "duration": 0.0017,
      "velocity": 97,
      "chip": "ym2612"
    },
    {
      "channel": 1,
      "note": 68,
      "start": 4.8804,
      "duration": 0.0017,
      "velocity": 88,
      "chip": "ym2612"
    },
    {
      "channel": 3,
      "note": 68,
      "start": 4.8809,
      "duration": 0.0016,
      "velocity": 97,
      "chip": "ym2612"
    },
    {
      "channel": 0,
      "note": 67,
      "start": 4.882,
      "duration": 0.0027,
      "velocity": 97,
      "chip": "ym2612"
    },
    {
      "channel": 1,
      "note": 67,
      "start": 4.8824,
      "duration": 0.0029,
      "velocity": 88,
      "chip": "ym2612"
    },
    {
      "channel": 3,
      "note": 67,
      "start": 4.8827,
      "duration": 0.0037,
      "velocity": 97,
      "chip": "ym2612"
    },
    {
      "channel": 0,
      "note": 73,
      "start": 4.8852,
      "duration": 0.0073,
      "velocity": 97,
      "chip": "ym2612"
    },
    {
      "channel": 1,
      "note": 68,
      "start": 4.8857,
      "duration": 0.0073,
      "velocity": 88,
      "chip": "ym2612"
    },
    {
      "channel": 2,
      "note": 84,
      "start": 4.8862,
      "duration": 0.0138,
      "velocity": 94,
      "chip": "ym2612"
    },
    {
      "channel": 3,
      "note": 68,
      "start": 4.8868,
      "duration": 0.0068,
      "velocity": 97,
      "chip": "ym2612"
    },
    {
      "channel": 4,
      "note": 72,
      "start": 4.8873,
      "duration": 0.0155,
      "velocity": 94,
      "chip": "ym2612"
    },
    {
      "channel": 0,
      "note": 72,
      "start": 4.893,
      "duration": 0.0061,
      "velocity": 97,
      "chip": "ym2612"
    },
    {
      "channel": 1,
      "note": 67,
      "start": 4.8935,
      "duration": 0.0061,
      "velocity": 88,
      "chip": "ym2612"
    },
    {
      "channel": 3,
      "note": 67,
      "start": 4.894,
      "duration": 0.0082,
      "velocity": 97,
      "chip": "ym2612"
    },
    {
      "channel": 0,
      "note": 68,
      "start": 4.8996,
      "duration": 0.2098,
      "velocity": 97,
      "chip": "ym2612"
    },
    {
      "channel": 1,
      "note": 65,
      "start": 4.8999,
      "duration": 0.007,
      "velocity": 88,
      "chip": "ym2612"
    },
    {
      "channel": 2,
      "note": 77,
      "start": 4.9022,
      "duration": 0.0052,
      "velocity": 82,
      "chip": "ym2612"
    },
    {
      "channel": 3,
      "note": 68,
      "start": 4.9027,
      "duration": 0.2079,
      "velocity": 97,
      "chip": "ym2612"
    },
    {
      "channel": 4,
      "note": 77,
      "start": 4.9051,
      "duration": 0.1018,
      "velocity": 82,
      "chip": "ym2612"
    },
    {
      "channel": 1,
      "note": 65,
      "start": 4.9073,
      "duration": 0.1996,
      "velocity": 88,
      "chip": "ym2612"
    },
    {
      "channel": 2,
      "note": 80,
      "start": 4.9079,
      "duration": 0.1995,
      "velocity": 82,
      "chip": "ym2612"
    },
    {
      "channel": 4,
      "note": 80,
      "start": 5.0074,
      "duration": 0.1013,
      "velocity": 82,
      "chip": "ym2612"
    },
    {
      "channel": 1,
      "note": 65,
      "start": 5.1072,
      "duration": 0.0025,
      "velocity": 88,
      "chip": "ym2612"
    },
    {
      "channel": 2,
      "note": 84,
      "start": 5.1077,
      "duration": 0.0024,
      "velocity": 82,
      "chip": "ym2612"
    },
    {
      "channel": 4,
      "note": 84,
      "start": 5.1089,
      "duration": 0.0024,
      "velocity": 82,
      "chip": "ym2612"
    },
    {
      "channel": 0,
      "note": 67,
      "start": 5.1097,
      "duration": 0.0112,
      "velocity": 97,
      "chip": "ym2612"
    },
    {
      "channel": 1,
      "note": 77,
      "start": 5.11,
      "duration": 0.002,
      "velocity": 88,
      "chip": "ym2612"
    },
    {
      "channel": 2,
      "note": 80,
      "start": 5.1105,
      "duration": 0.0019,
      "velocity": 82,
      "chip": "ym2612"
    },
    {
      "channel": 3,
      "note": 67,
      "start": 5.1108,
      "duration": 0.0115,
      "velocity": 97,
      "chip": "ym2612"
    },
    {
      "channel": 4,
      "note": 80,
      "start": 5.1115,
      "duration": 0.005,
      "velocity": 82,
      "chip": "ym2612"
    },
    {
      "channel": 1,
      "note": 65,
      "start": 5.1124,
      "duration": 0.0051,
      "velocity": 88,
      "chip": "ym2612"
    },
    {
      "channel": 2,
      "note": 89,
      "start": 5.1126,
      "duration": 0.0053,
      "velocity": 82,
      "chip": "ym2612"
    },
    {
      "channel": 4,
      "note": 89,
      "start": 5.1169,
      "duration": 0.0019,
      "velocity": 82,
      "chip": "ym2612"
    },
    {
      "channel": 1,
      "note": 77,
      "start": 5.1178,
      "duration": 0.0036,
      "velocity": 88,
      "chip": "ym2612"
    },
    {
      "channel": 2,
      "note": 84,
      "start": 5.1183,
      "duration": 0.0036,
      "velocity": 82,
      "chip": "ym2612"
    },
    {
      "channel": 4,
      "note": 84,
      "start": 5.1189,
      "duration": 0.0049,
      "velocity": 82,
      "chip": "ym2612"
    },
    {
      "channel": 0,
      "note": 63,
      "start": 5.1212,
      "duration": 0.0054,
      "velocity": 97,
      "chip": "ym2612"
    },
    {
      "channel": 1,
      "note": 63,
      "start": 5.1218,
      "duration": 0.0028,
      "velocity": 88,
      "chip": "ym2612"
    },
    {
      "channel": 2,
      "note": 89,
      "start": 5.1223,
      "duration": 0.0027,
      "velocity": 82,
      "chip": "ym2612"
    },
    {
      "channel": 3,
      "note": 63,
      "start": 5.1228,
      "duration": 0.0049,
      "velocity": 97,
      "chip": "ym2612"
    },
    {
      "channel": 4,
      "note": 89,
      "start": 5.1241,
      "duration": 0.0016,
      "velocity": 82,
      "chip": "ym2612"
    },
    {
      "channel": 1,
      "note": 75,
      "start": 5.1249,
      "duration": 0.0021,
      "velocity": 88,
      "chip": "ym2612"
    },
    {
      "channel": 2,
      "note": 84,
      "start": 5.1252,
      "duration": 0.0022,
      "velocity": 82,
      "chip": "ym2612"
    },
    {
      "channel": 4,
      "note": 84,
      "start": 5.1261,
      "duration": 0.0058,
      "velocity": 82,
      "chip": "ym2612"
    },
    {
      "channel": 0,
      "note": 65,
      "start": 5.1269,
      "duration": 0.2088,
      "velocity": 97,
      "chip": "ym2612"
    },
    {
      "channel": 1,
      "note": 61,
      "start": 5.1273,
      "duration": 0.0058,
      "velocity": 88,
      "chip": "ym2612"
    },
    {
      "channel": 2,
      "note": 73,
      "start": 5.1276,
      "duration": 0.0059,
      "velocity": 82,
      "chip": "ym2612"
    },
    {
      "channel": 3,
      "note": 65,
      "start": 5.128,
      "duration": 0.2088,
      "velocity": 97,
      "chip": "ym2612"
    },
    {
      "channel": 4,
      "note": 73,
      "start": 5.132,
      "duration": 0.101,
      "velocity": 82,
      "chip": "ym2612"
    },
    {
      "channel": 1,
      "note": 61,
      "start": 5.1334,
      "duration": 0.1996,
      "velocity": 88,
      "chip": "ym2612"
    },
    {
      "channel": 2,
      "note": 77,
      "start": 5.1339,
      "duration": 0.1995,
      "velocity": 82,
      "chip": "ym2612"
    },
    {
      "channel": 4,
      "note": 77,
      "start": 5.2334,
      "duration": 0.1014,
      "velocity": 82,
      "chip": "ym2612"
    },
    {
      "channel": 1,
      "note": 61,
      "start": 5.3333,
      "duration": 0.0027,
      "velocity": 88,
      "chip": "ym2612"
    },
    {
      "channel": 2,
      "note": 80,
      "start": 5.3338,
      "duration": 0.0026,
      "velocity": 82,
      "chip": "ym2612"
    },
    {
      "channel": 4,
      "note": 80,
      "start": 5.3352,
      "duration": 0.0024,
      "velocity": 82,
      "chip": "ym2612"
    },
    {
      "channel": 0,
      "note": 61,
      "start": 5.3359,
      "duration": 0.0142,
      "velocity": 97,
      "chip": "ym2612"
    },
    {
      "channel": 1,
      "note": 73,
      "start": 5.3363,
      "duration": 0.0021,
      "velocity": 88,
      "chip": "ym2612"
    },
    {
      "channel": 2,
      "note": 77,
      "start": 5.3367,
      "duration": 0.0022,
      "velocity": 82,
      "chip": "ym2612"
    },
    {
      "channel": 3,
      "note": 61,
      "start": 5.3371,
      "duration": 0.014,
      "velocity": 97,
      "chip": "ym2612"
    },
    {
      "channel": 4,
      "note": 77,
      "start": 5.3379,
      "duration": 0.0052,
      "velocity": 82,
      "chip": "ym2612"
    },
    {
      "channel": 1,
      "note": 61,
      "start": 5.3388,
      "duration": 0.0051,
      "velocity": 88,
      "chip": "ym2612"
    },
    {
      "channel": 2,
      "note": 84,
      "start": 5.3392,
      "duration": 0.005,
      "velocity": 82,
      "chip": "ym2612"
    },
    {
      "channel": 4,
      "note": 84,
      "start": 5.3433,
      "duration": 0.0017,
      "velocity": 82,
      "chip": "ym2612"
    },
    {
      "channel": 1,
      "note": 73,
      "start": 5.3442,
      "duration": 0.0032,
      "velocity": 88,
      "chip": "ym2612"
    },
    {
      "channel": 2,
      "note": 80,
      "start": 5.3444,
      "duration": 0.0035,
      "velocity": 82,
      "chip": "ym2612"
    },
    {
      "channel": 4,
      "note": 80,
      "start": 5.3453,
      "duration": 0.0041,
      "velocity": 82,
      "chip": "ym2612"
    },
    {
      "channel": 1,
      "note": 59,
      "start": 5.3478,
      "duration": 0.0024,
      "velocity": 88,
      "chip": "ym2612"
    },
    {
      "channel": 2,
      "note": 82,
      "start": 5.3483,
      "duration": 0.0023,
      "velocity": 82,
      "chip": "ym2612"
    },
    {
      "channel": 4,
      "note": 82,
      "start": 5.3496,
      "duration": 0.0025,
      "velocity": 82,
      "chip": "ym2612"
    },
    {
      "channel": 1,
      "note": 71,
      "start": 5.3505,
      "duration": 0.0026,
      "velocity": 88,
      "chip": "ym2612"
    },
    {
      "channel": 2,
      "note": 80,
      "start": 5.351,
      "duration": 0.0026,
      "velocity": 82,
      "chip": "ym2612"
    },
    {
      "channel": 4,
      "note": 80,
      "start": 5.3523,
      "duration": 0.0022,
      "velocity": 82,
      "chip": "ym2612"
    },
    {
      "channel": 0,
      "note": 72,
      "start": 5.3531,
      "duration": 0.205,
      "velocity": 97,
      "chip": "ym2612"
    },
    {
      "channel": 1,
      "note": 60,
      "start": 5.3535,
      "duration": 0.0021,
      "velocity": 88,
      "chip": "ym2612"
    },
    {
      "channel": 2,
      "note": 72,
      "start": 5.3538,
      "duration": 0.0022,
      "velocity": 82,
      "chip": "ym2612"
    },
    {
      "channel": 3,
      "note": 72,
      "start": 5.3541,
      "duration": 0.205,
      "velocity": 97,
      "chip": "ym2612"
    },
    {
      "channel": 4,
      "note": 72,
      "start": 5.3549,
      "duration": 0.1007,
      "velocity": 82,
      "chip": "ym2612"
    },
    {
      "channel": 1,
      "note": 60,
      "start": 5.356,
      "duration": 0.1996,
      "velocity": 88,
      "chip": "ym2612"
    },
    {
      "channel": 2,
      "note": 75,
      "start": 5.3564,
      "duration": 0.1996,
      "velocity": 82,
      "chip": "ym2612"
    },
    {
      "channel": 4,
      "note": 75,
      "start": 5.456,
      "duration": 0.1013,
      "velocity": 82,
      "chip": "ym2612"
    },
    {
      "channel": 1,
      "note": 60,
      "start": 5.5559,
      "duration": 0.0025,
      "velocity": 88,
      "chip": "ym2612"
    },
    {
      "channel": 2,
      "note": 79,
      "start": 5.5564,
      "duration": 0.0022,
      "velocity": 82,
      "chip": "ym2612"
    },
    {
      "channel": 4,
      "note": 79,
      "start": 5.5576,
      "duration": 0.0022,
      "velocity": 82,
      "chip": "ym2612"
    },
    {
      "channel": 0,
      "note": 70,
      "start": 5.5584,
      "duration": 0.0105,
      "velocity": 97,
      "chip": "ym2612"
    },
    {
      "channel": 1,
      "note": 60,
      "start": 5.5585,
      "duration": 0.002,
      "velocity": 88,
      "chip": "ym2612"
    },
    {
      "channel": 2,
      "note": 75,
      "start": 5.559,
      "duration": 0.0017,
      "velocity": 82,
      "chip": "ym2612"
    },
    {
      "channel": 3,
      "note": 70,
      "start": 5.5594,
      "duration": 0.0111,
      "velocity": 97,
      "chip": "ym2612"
    },
    {
      "channel": 4,
      "note": 75,
      "start": 5.5599,
      "duration": 0.0048,
      "velocity": 82,
      "chip": "ym2612"
    },
    {
      "channel": 1,
      "note": 60,
      "start": 5.5605,
      "duration": 0.0051,
      "velocity": 88,
      "chip": "ym2612"
    },
    {
      "channel": 2,
      "note": 84,
      "start": 5.5609,
      "duration": 0.005,
      "velocity": 82,
      "chip": "ym2612"
    },
    {
      "channel": 4,
      "note": 84,
      "start": 5.5651,
      "duration": 0.0015,
      "velocity": 82,
      "chip": "ym2612"
    },
    {
      "channel": 1,
      "note": 60,
      "start": 5.5658,
      "duration": 0.0036,
      "velocity": 88,
      "chip": "ym2612"
    },
    {
      "channel": 2,
      "note": 79,
      "start": 5.5662,
      "duration": 0.0037,
      "velocity": 82,
      "chip": "ym2612"
    },
    {
      "channel": 4,
      "note": 79,
      "start": 5.5669,
      "duration": 0.005,
      "velocity": 82,
      "chip": "ym2612"
    },
    {
      "channel": 0,
      "note": 67,
      "start": 5.5693,
      "duration": 0.0052,
      "velocity": 97,
      "chip": "ym2612"
    },
    {
      "channel": 1,
      "note": 61,
      "start": 5.5698,
      "duration": 0.0028,
      "velocity": 88,
      "chip": "ym2612"
    },
    {
      "channel": 2,
      "note": 82,
      "start": 5.5703,
      "duration": 0.0027,
      "velocity": 82,
      "chip": "ym2612"
    },
    {
      "channel": 3,
      "note": 67,
      "start": 5.5709,
      "duration": 0.0047,
      "velocity": 97,
      "chip": "ym2612"
    },
    {
      "channel": 4,
      "note": 82,
      "start": 5.5721,
      "duration": 0.0017,
      "velocity": 82,
      "chip": "ym2612"
    },
    {
      "channel": 1,
      "note": 63,
      "start": 5.5729,
      "duration": 0.002,
      "velocity": 88,
      "chip": "ym2612"
    },
    {
      "channel": 2,
      "note": 79,
      "start": 5.5732,
      "duration": 0.002,
      "velocity": 82,
      "chip": "ym2612"
    },
    {
      "channel": 4,
      "note": 79,
      "start": 5.574,
      "duration": 0.0057,
      "velocity": 82,
      "chip": "ym2612"
    },
    {
      "channel": 0,
      "note": 68,
      "start": 5.5748,
      "duration": 0.2086,
      "velocity": 97,
      "chip": "ym2612"
    },
    {
      "channel": 1,
      "note": 61,
      "start": 5.5752,
      "duration": 0.0055,
      "velocity": 88,
      "chip": "ym2612"
    },
    {
      "channel": 2,
      "note": 73,
      "start": 5.5755,
      "duration": 0.0057,
      "velocity": 82,
      "chip": "ym2612"
    },
    {
      "channel": 3,
      "note": 68,
      "start": 5.5759,
      "duration": 0.2086,
      "velocity": 97,
      "chip": "ym2612"
    },
    {
      "channel": 4,
      "note": 73,
      "start": 5.58,
      "duration": 0.1007,
      "velocity": 82,
      "chip": "ym2612"
    },
    {
      "channel": 1,
      "note": 61,
      "start": 5.5811,
      "duration": 0.1996,
      "velocity": 88,
      "chip": "ym2612"
    },
    {
      "channel": 2,
      "note": 77,
      "start": 5.5816,
      "duration": 0.1995,
      "velocity": 82,
      "chip": "ym2612"
    },
    {
      "channel": 4,
      "note": 77,
      "start": 5.6811,
      "duration": 0.1014,
      "velocity": 82,
      "chip": "ym2612"
    },
    {
      "channel": 1,
      "note": 61,
      "start": 5.781,
      "duration": 0.0027,
      "velocity": 88,
      "chip": "ym2612"
    },
    {
      "channel": 2,
      "note": 80,
      "start": 5.7815,
      "duration": 0.0026,
      "velocity": 82,
      "chip": "ym2612"
    },
    {
      "channel": 4,
      "note": 80,
      "start": 5.7829,
      "duration": 0.0024,
      "velocity": 82,
      "chip": "ym2612"
    },
    {
      "channel": 0,
      "note": 70,
      "start": 5.7836,
      "duration": 0.0142,
      "velocity": 97,
      "chip": "ym2612"
    },
    {
      "channel": 1,
      "note": 73,
      "start": 5.784,
      "duration": 0.0021,
      "velocity": 88,
      "chip": "ym2612"
    },
    {
      "channel": 2,
      "note": 77,
      "start": 5.7844,
      "duration": 0.0022,
      "velocity": 82,
      "chip": "ym2612"
    },
    {
      "channel": 3,
      "note": 70,
      "start": 5.7848,
      "duration": 0.014,
      "velocity": 97,
      "chip": "ym2612"
    },
    {
      "channel": 4,
      "note": 77,
      "start": 5.7856,
      "duration": 0.0052,
      "velocity": 82,
      "chip": "ym2612"
    },
    {
      "channel": 1,
      "note": 61,
      "start": 5.7865,
      "duration": 0.0051,
      "velocity": 88,
      "chip": "ym2612"
    },
    {
      "channel": 2,
      "note": 84,
      "start": 5.7869,
      "duration": 0.005,
      "velocity": 82,
      "chip": "ym2612"
    },
    {
      "channel": 4,
      "note": 84,
      "start": 5.791,
      "duration": 0.0017,
      "velocity": 82,
      "chip": "ym2612"
    },
    {
      "channel": 1,
      "note": 73,
      "start": 5.7919,
      "duration": 0.0032,
      "velocity": 88,
      "chip": "ym2612"
    },
    {
      "channel": 2,
      "note": 80,
      "start": 5.7921,
      "duration": 0.0035,
      "velocity": 82,
      "chip": "ym2612"
    },
    {
      "channel": 4,
      "note": 80,
      "start": 5.793,
      "duration": 0.0041,
      "velocity": 82,
      "chip": "ym2612"
    },
    {
      "channel": 1,
      "note": 60,
      "start": 5.7955,
      "duration": 0.0025,
      "velocity": 88,
      "chip": "ym2612"
    },
    {
      "channel": 2,
      "note": 85,
      "start": 5.796,
      "duration": 0.0023,
      "velocity": 82,
      "chip": "ym2612"
    },
    {
      "channel": 4,
      "note": 85,
      "start": 5.7974,
      "duration": 0.0023,
      "velocity": 82,
      "chip": "ym2612"
    },
    {
      "channel": 1,
      "note": 72,
      "start": 5.7982,
      "duration": 0.0026,
      "velocity": 88,
      "chip": "ym2612"
    },
    {
      "channel": 2,
      "note": 80,
      "start": 5.7986,
      "duration": 0.0026,
      "velocity": 82,
      "chip": "ym2612"
    },
    {
      "channel": 4,
      "note": 80,
      "start": 5.8,
      "duration": 0.0023,
      "velocity": 82,
      "chip": "ym2612"
    },
    {
      "channel": 0,
      "note": 65,
      "start": 5.8007,
      "duration": 0.2053,
      "velocity": 97,
      "chip": "ym2612"
    },
    {
      "channel": 1,
      "note": 58,
      "start": 5.8011,
      "duration": 0.0023,
      "velocity": 88,
      "chip": "ym2612"
    },
    {
      "channel": 2,
      "note": 74,
      "start": 5.8014,
      "duration": 0.0024,
      "velocity": 82,
      "chip": "ym2612"
    },
    {
      "channel": 3,
      "note": 65,
      "start": 5.8018,
      "duration": 0.2053,
      "velocity": 97,
      "chip": "ym2612"
    },
    {
      "channel": 4,
      "note": 74,
      "start": 5.8026,
      "duration": 0.1008,
      "velocity": 82,
      "chip": "ym2612"
    },
    {
      "channel": 1,
      "note": 58,
      "start": 5.8037,
      "duration": 0.1996,
      "velocity": 88,
      "chip": "ym2612"
    },
    {
      "channel": 2,
      "note": 77,
      "start": 5.8042,
      "duration": 0.1996,
      "velocity": 82,
      "chip": "ym2612"
    },
    {
      "channel": 4,
      "note": 77,
      "start": 5.9038,
      "duration": 0.1014,
      "velocity": 82,
      "chip": "ym2612"
    },
    {
      "channel": 1,
      "note": 58,
      "start": 6.0037,
      "duration": 0.0027,
      "velocity": 88,
      "chip": "ym2612"
    },
    {
      "channel": 2,
      "note": 82,
      "start": 6.0042,
      "duration": 0.0025,
      "velocity": 82,
      "chip": "ym2612"
    },
    {
      "channel": 4,
      "note": 82,
      "start": 6.0055,
      "duration": 0.0022,
      "velocity": 82,
      "chip": "ym2612"
    },
    {
      "channel": 0,
      "note": 62,
      "start": 6.0063,
      "duration": 0.0109,
      "velocity": 97,
      "chip": "ym2612"
    },
    {
      "channel": 1,
      "note": 70,
      "start": 6.0066,
      "duration": 0.0019,
      "velocity": 88,
      "chip": "ym2612"
    },
    {
      "channel": 2,
      "note": 77,
      "start": 6.007,
      "duration": 0.0019,
      "velocity": 82,
      "chip": "ym2612"
    },
    {
      "channel": 3,
      "note": 62,
      "start": 6.0074,
      "duration": 0.0115,
      "velocity": 97,
      "chip": "ym2612"
    },
    {
      "channel": 4,
      "note": 77,
      "start": 6.008,
      "duration": 0.0049,
      "velocity": 82,
      "chip": "ym2612"
    },
    {
      "channel": 1,
      "note": 58,
      "start": 6.0089,
      "duration": 0.005,
      "velocity": 88,
      "chip": "ym2612"
    },
    {
      "channel": 2,
      "note": 86,
      "start": 6.0093,
      "duration": 0.005,
      "velocity": 82,
      "chip": "ym2612"
    },
    {
      "channel": 4,
      "note": 86,
      "start": 6.0133,
      "duration": 0.0018,
      "velocity": 82,
      "chip": "ym2612"
    },
    {
      "channel": 1,
      "note": 70,
      "start": 6.0141,
      "duration": 0.0036,
      "velocity": 88,
      "chip": "ym2612"
    },
    {
      "channel": 2,
      "note": 82,
      "start": 6.0146,
      "duration": 0.0037,
      "velocity": 82,
      "chip": "ym2612"
    },
    {
      "channel": 4,
      "note": 82,
      "start": 6.0153,
      "duration": 0.005,
      "velocity": 82,
      "chip": "ym2612"
    },
    {
      "channel": 0,
      "note": 70,
      "start": 6.0177,
      "duration": 0.0057,
      "velocity": 97,
      "chip": "ym2612"
    },
    {
      "channel": 1,
      "note": 60,
      "start": 6.0182,
      "duration": 0.003,
      "velocity": 88,
      "chip": "ym2612"
    },
    {
      "channel": 2,
      "note": 77,
      "start": 6.0187,
      "duration": 0.0029,
      "velocity": 82,
      "chip": "ym2612"
    },
    {
      "channel": 3,
      "note": 70,
      "start": 6.0193,
      "duration": 0.005,
      "velocity": 97,
      "chip": "ym2612"
    },
    {
      "channel": 4,
      "note": 77,
      "start": 6.0207,
      "duration": 0.0019,
      "velocity": 82,
      "chip": "ym2612"
    },
    {
      "channel": 1,
      "note": 72,
      "start": 6.0215,
      "duration": 0.0022,
      "velocity": 88,
      "chip": "ym2612"
    },
    {
      "channel": 2,
      "note": 70,
      "start": 6.022,
      "duration": 0.0021,
      "velocity": 82,
      "chip": "ym2612"
    },
    {
      "channel": 4,
      "note": 70,
      "start": 6.0229,
      "duration": 0.0055,
      "velocity": 82,
      "chip": "ym2612"
    },
    {
      "channel": 0,
      "note": 68,
      "start": 6.0236,
      "duration": 0.206,
      "velocity": 97,
      "chip": "ym2612"
    },
    {
      "channel": 1,
      "note": 61,
      "start": 6.024,
      "duration": 0.0057,
      "velocity": 88,
      "chip": "ym2612"
    },
    {
      "channel": 2,
      "note": 73,
      "start": 6.0242,
      "duration": 0.0059,
      "velocity": 82,
      "chip": "ym2612"
    },
    {
      "channel": 3,
      "note": 72,
      "start": 6.0246,
      "duration": 0.2066,
      "velocity": 97,
      "chip": "ym2612"
    },
    {
      "channel": 4,
      "note": 73,
      "start": 6.0286,
      "duration": 0.101,
      "velocity": 82,
      "chip": "ym2612"
    },
    {
      "channel": 1,
      "note": 61,
      "start": 6.03,
      "duration": 0.2,
      "velocity": 88,
      "chip": "ym2612"
    },
    {
      "channel": 2,
      "note": 77,
      "start": 6.0305,
      "duration": 0.2001,
      "velocity": 82,
      "chip": "ym2612"
    },
    {
      "channel": 4,
      "note": 77,
      "start": 6.1301,
      "duration": 0.1024,
      "velocity": 82,
      "chip": "ym2612"
    },
    {
      "channel": 0,
      "note": 67,
      "start": 6.23,
      "duration": 0.005,
      "velocity": 97,
      "chip": "ym2612"
    },
    {
      "channel": 1,
      "note": 73,
      "start": 6.2305,
      "duration": 0.0027,
      "velocity": 88,
      "chip": "ym2612"
    },
    {
      "channel": 2,
      "note": 80,
      "start": 6.231,
      "duration": 0.0025,
      "velocity": 82,
      "chip": "ym2612"
    },
    {
      "channel": 3,
      "note": 70,
      "start": 6.2315,
      "duration": 0.0046,
      "velocity": 97,
      "chip": "ym2612"
    },
    {
      "channel": 4,
      "note": 80,
      "start": 6.2326,
      "duration": 0.0017,
      "velocity": 82,
      "chip": "ym2612"
    },
    {
      "channel": 1,
      "note": 61,
      "start": 6.2335,
      "duration": 0.0019,
      "velocity": 88,
      "chip": "ym2612"
    },
    {
      "channel": 2,
      "note": 85,
      "start": 6.2338,
      "duration": 0.0019,
      "velocity": 82,
      "chip": "ym2612"
    },
    {
      "channel": 4,
      "note": 85,
      "start": 6.2345,
      "duration": 0.0055,
      "velocity": 82,
      "chip": "ym2612"
    },
    {
      "channel": 0,
      "note": 63,
      "start": 6.2353,
      "duration": 0.0092,
      "velocity": 97,
      "chip": "ym2612"
    },
    {
      "channel": 1,
      "note": 63,
      "start": 6.2356,
      "duration": 0.0052,
      "velocity": 88,
      "chip": "ym2612"
    },
    {
      "channel": 2,
      "note": 75,
      "start": 6.236,
      "duration": 0.0051,
      "velocity": 82,
      "chip": "ym2612"
    },
    {
      "channel": 3,
      "note": 67,
      "start": 6.2363,
      "duration": 0.0097,
      "velocity": 97,
      "chip": "ym2612"
    },
    {
      "channel": 4,
      "note": 75,
      "start": 6.2402,
      "duration": 0.0017,
      "velocity": 82,
      "chip": "ym2612"
    },
    {
      "channel": 1,
      "note": 75,
      "start": 6.2411,
      "duration": 0.0038,
      "velocity": 88,
      "chip": "ym2612"
    },
    {
      "channel": 2,
      "note": 79,
      "start": 6.2414,
      "duration": 0.0041,
      "velocity": 82,
      "chip": "ym2612"
    },
    {
      "channel": 4,
      "note": 79,
      "start": 6.2423,
      "duration": 0.005,
      "velocity": 82,
      "chip": "ym2612"
    },
    {
      "channel": 0,
      "note": 60,
      "start": 6.2448,
      "duration": 0.0079,
      "velocity": 97,
      "chip": "ym2612"
    },
    {
      "channel": 1,
      "note": 63,
      "start": 6.2454,
      "duration": 0.0048,
      "velocity": 88,
      "chip": "ym2612"
    },
    {
      "channel": 2,
      "note": 82,
      "start": 6.2459,
      "duration": 0.0049,
      "velocity": 82,
      "chip": "ym2612"
    },
    {
      "channel": 3,
      "note": 63,
      "start": 6.2463,
      "duration": 0.0076,
      "velocity": 97,
      "chip": "ym2612"
    },
    {
      "channel": 4,
      "note": 82,
      "start": 6.2476,
      "duration": 0.0044,
      "velocity": 82,
      "chip": "ym2612"
    },
    {
      "channel": 1,
      "note": 75,
      "start": 6.2506,
      "duration": 0.0026,
      "velocity": 88,
      "chip": "ym2612"
    },
    {
      "channel": 2,
      "note": 87,
      "start": 6.2511,
      "duration": 0.0024,
      "velocity": 82,
      "chip": "ym2612"
    },
    {
      "channel": 4,
      "note": 87,
      "start": 6.2522,
      "duration": 0.0025,
      "velocity": 82,
      "chip": "ym2612"
    },
    {
      "channel": 0,
      "note": 65,
      "start": 6.253,
      "duration": 0.2208,
      "velocity": 97,
      "chip": "ym2612"
    },
    {
      "channel": 1,
      "note": 65,
      "start": 6.2534,
      "duration": 0.0021,
      "velocity": 88,
      "chip": "ym2612"
    },
    {
      "channel": 2,
      "note": 72,
      "start": 6.2538,
      "duration": 0.0022,
      "velocity": 82,
      "chip": "ym2612"
    },
    {
      "channel": 3,
      "note": 68,
      "start": 6.2542,
      "duration": 0.2204,
      "velocity": 97,
      "chip": "ym2612"
    },
    {
      "channel": 4,
      "note": 72,
      "start": 6.255,
      "duration": 0.1006,
      "velocity": 82,
      "chip": "ym2612"
    },
    {
      "channel": 1,
      "note": 65,
      "start": 6.2559,
      "duration": 0.1996,
      "velocity": 88,
      "chip": "ym2612"
    },
    {
      "channel": 2,
      "note": 77,
      "start": 6.2564,
      "duration": 0.1995,
      "velocity": 82,
      "chip": "ym2612"
    },
    {
      "channel": 4,
      "note": 77,
      "start": 6.3559,
      "duration": 0.1014,
      "velocity": 82,
      "chip": "ym2612"
    },
    {
      "channel": 1,
      "note": 65,
      "start": 6.4558,
      "duration": 0.0024,
      "velocity": 88,
      "chip": "ym2612"
    },
    {
      "channel": 2,
      "note": 80,
      "start": 6.4563,
      "duration": 0.0023,
      "velocity": 82,
      "chip": "ym2612"
    },
    {
      "channel": 4,
      "note": 80,
      "start": 6.4577,
      "duration": 0.0019,
      "velocity": 82,
      "chip": "ym2612"
    },
    {
      "channel": 1,
      "note": 77,
      "start": 6.4585,
      "duration": 0.0019,
      "velocity": 88,
      "chip": "ym2612"
    },
    {
      "channel": 2,
      "note": 84,
      "start": 6.459,
      "duration": 0.0019,
      "velocity": 82,
      "chip": "ym2612"
    },
    {
      "channel": 4,
      "note": 84,
      "start": 6.4599,
      "duration": 0.0051,
      "velocity": 82,
      "chip": "ym2612"
    },
    {
      "channel": 1,
      "note": 75,
      "start": 6.4607,
      "duration": 0.0049,
      "velocity": 88,
      "chip": "ym2612"
    },
    {
      "channel": 2,
      "note": 80,
      "start": 6.461,
      "duration": 0.0049,
      "velocity": 82,
      "chip": "ym2612"
    },
    {
      "channel": 4,
      "note": 80,
      "start": 6.4651,
      "duration": 0.0017,
      "velocity": 82,
      "chip": "ym2612"
    },
    {
      "channel": 1,
      "note": 72,
      "start": 6.4659,
      "duration": 0.0034,
      "velocity": 88,
      "chip": "ym2612"
    },
    {
      "channel": 2,
      "note": 84,
      "start": 6.4663,
      "duration": 0.0035,
      "velocity": 82,
      "chip": "ym2612"
    },
    {
      "channel": 4,
      "note": 84,
      "start": 6.4672,
      "duration": 0.004,
      "velocity": 82,
      "chip": "ym2612"
    },
    {
      "channel": 1,
      "note": 68,
      "start": 6.4697,
      "duration": 0.0022,
      "velocity": 88,
      "chip": "ym2612"
    },
    {
      "channel": 2,
      "note": 89,
      "start": 6.4702,
      "duration": 0.002,
      "velocity": 82,
      "chip": "ym2612"
    },
    {
      "channel": 4,
      "note": 89,
      "start": 6.4713,
      "duration": 0.0017,
      "velocity": 82,
      "chip": "ym2612"
    },
    {
      "channel": 1,
      "note": 67,
      "start": 6.4722,
      "duration": 0.0017,
      "velocity": 88,
      "chip": "ym2612"
    },
    {
      "channel": 2,
      "note": 92,
      "start": 6.4726,
      "duration": 0.0017,
      "velocity": 82,
      "chip": "ym2612"
    },
    {
      "channel": 4,
      "note": 92,
      "start": 6.4733,
      "duration": 0.0018,
      "velocity": 82,
      "chip": "ym2612"
    },
    {
      "channel": 1,
      "note": 65,
      "start": 6.4741,
      "duration": 0.0018,
      "velocity": 88,
      "chip": "ym2612"
    },
    {
      "channel": 2,
      "note": 89,
      "start": 6.4745,
      "duration": 0.0019,
      "velocity": 82,
      "chip": "ym2612"
    },
    {
      "channel": 4,
      "note": 89,
      "start": 6.4753,
      "duration": 0.1009,
      "velocity": 82,
      "chip": "ym2612"
    },
    {
      "channel": 1,
      "note": 65,
      "start": 6.4763,
      "duration": 0.1996,
      "velocity": 88,
      "chip": "ym2612"
    },
    {
      "channel": 2,
      "note": 84,
      "start": 6.4768,
      "duration": 0.1996,
      "velocity": 82,
      "chip": "ym2612"
    },
    {
      "channel": 4,
      "note": 84,
      "start": 6.5765,
      "duration": 0.1013,
      "velocity": 82,
      "chip": "ym2612"
    },
    {
      "channel": 1,
      "note": 65,
      "start": 6.6763,
      "duration": 0.0023,
      "velocity": 88,
      "chip": "ym2612"
    },
    {
      "channel": 2,
      "note": 80,
      "start": 6.6768,
      "duration": 0.0022,
      "velocity": 82,
      "chip": "ym2612"
    },
    {
      "channel": 4,
      "note": 80,
      "start": 6.6781,
      "duration": 0.0017,
      "velocity": 82,
      "chip": "ym2612"
    },
    {
      "channel": 1,
      "note": 77,
      "start": 6.6788,
      "duration": 0.0017,
      "velocity": 88,
      "chip": "ym2612"
    },
    {
      "channel": 2,
      "note": 77,
      "start": 6.6792,
      "duration": 0.0017,
      "velocity": 82,
      "chip": "ym2612"
    },
    {
      "channel": 4,
      "note": 77,
      "start": 6.68,
      "duration": 0.0016,
      "velocity": 82,
      "chip": "ym2612"
    },
    {
      "channel": 1,
      "note": 63,
      "start": 6.6807,
      "duration": 0.0027,
      "velocity": 88,
      "chip": "ym2612"
    },
    {
      "channel": 2,
      "note": 84,
      "start": 6.6812,
      "duration": 0.0028,
      "velocity": 82,
      "chip": "ym2612"
    },
    {
      "channel": 4,
      "note": 84,
      "start": 6.6818,
      "duration": 0.0037,
      "velocity": 82,
      "chip": "ym2612"
    },
    {
      "channel": 1,
      "note": 75,
      "start": 6.6838,
      "duration": 0.0047,
      "velocity": 88,
      "chip": "ym2612"
    },
    {
      "channel": 2,
      "note": 80,
      "start": 6.6843,
      "duration": 0.0048,
      "velocity": 82,
      "chip": "ym2612"
    },
    {
      "channel": 4,
      "note": 80,
      "start": 6.6858,
      "duration": 0.0048,
      "velocity": 82,
      "chip": "ym2612"
    },
    {
      "channel": 1,
      "note": 64,
      "start": 6.6889,
      "duration": 0.0046,
      "velocity": 88,
      "chip": "ym2612"
    },
    {
      "channel": 2,
      "note": 77,
      "start": 6.6895,
      "duration": 0.0046,
      "velocity": 82,
      "chip": "ym2612"
    },
    {
      "channel": 4,
      "note": 77,
      "start": 6.6909,
      "duration": 0.0047,
      "velocity": 82,
      "chip": "ym2612"
    },
    {
      "channel": 1,
      "note": 76,
      "start": 6.694,
      "duration": 0.0044,
      "velocity": 88,
      "chip": "ym2612"
    },
    {
      "channel": 2,
      "note": 72,
      "start": 6.6945,
      "duration": 0.0042,
      "velocity": 82,
      "chip": "ym2612"
    },
    {
      "channel": 4,
      "note": 72,
      "start": 6.6959,
      "duration": 0.0049,
      "velocity": 82,
      "chip": "ym2612"
    },
    {
      "channel": 0,
      "note": 92,
      "start": 6.6983,
      "duration": 0.0059,
      "velocity": 127,
      "chip": "ym2612"
    },
    {
      "channel": 1,
      "note": 53,
      "start": 6.6987,
      "duration": 0.0064,
      "velocity": 88,
      "chip": "ym2612"
    },
    {
      "channel": 3,
      "note": 53,
      "start": 6.7007,
      "duration": 0.0048,
      "velocity": 97,
      "chip": "ym2612"
    },
    {
      "channel": 0,
      "note": 92,
      "start": 6.7044,
      "duration": 0.0004,
      "velocity": 127,
      "chip": "ym2612"
    },
    {
      "channel": 0,
      "note": 92,
      "start": 6.7051,
      "duration": 0.0483,
      "velocity": 127,
      "chip": "ym2612"
    },
    {
      "channel": 1,
      "note": 53,
      "start": 6.7053,
      "duration": 0.1041,
      "velocity": 88,
      "chip": "ym2612"
    },
    {
      "channel": 3,
      "note": 53,
      "start": 6.7055,
      "duration": 0.1044,
      "velocity": 97,
      "chip": "ym2612"
    },
    {
      "channel": 0,
      "note": 92,
      "start": 6.8038,
      "duration": 0.0039,
      "velocity": 127,
      "chip": "ym2612"
    },
    {
      "channel": 0,
      "note": 111,
      "start": 6.8093,
      "duration": 0.0033,
      "velocity": 127,
      "chip": "ym2612"
    },
    {
      "channel": 1,
      "note": 53,
      "start": 6.8097,
      "duration": 0.0016,
      "velocity": 88,
      "chip": "ym2612"
    },
    {
      "channel": 3,
      "note": 53,
      "start": 6.8103,
      "duration": 0.0015,
      "velocity": 97,
      "chip": "ym2612"
    },
    {
      "channel": 1,
      "note": 60,
      "start": 6.8117,
      "duration": 0.0022,
      "velocity": 88,
      "chip": "ym2612"
    },
    {
      "channel": 3,
      "note": 60,
      "start": 6.8121,
      "duration": 0.002,
      "velocity": 97,
      "chip": "ym2612"
    },
    {
      "channel": 0,
      "note": 92,
      "start": 6.8137,
      "duration": 0.0008,
      "velocity": 127,
      "chip": "ym2612"
    },
    {
      "channel": 1,
      "note": 56,
      "start": 6.814,
      "duration": 0.001,
      "velocity": 88,
      "chip": "ym2612"
    },
    {
      "channel": 3,
      "note": 56,
      "start": 6.8143,
      "duration": 0.0011,
      "velocity": 97,
      "chip": "ym2612"
    },
    {
      "channel": 0,
      "note": 92,
      "start": 6.8149,
      "duration": 0.001,
      "velocity": 127,
      "chip": "ym2612"
    },
    {
      "channel": 1,
      "note": 65,
      "start": 6.8153,
      "duration": 0.0012,
      "velocity": 88,
      "chip": "ym2612"
    },
    {
      "channel": 3,
      "note": 65,
      "start": 6.8156,
      "duration": 0.0011,
      "velocity": 97,
      "chip": "ym2612"
    },
    {
      "channel": 0,
      "note": 92,
      "start": 6.8164,
      "duration": 0.0007,
      "velocity": 127,
      "chip": "ym2612"
    },
    {
      "channel": 0,
      "note": 92,
      "start": 6.8174,
      "duration": 0.0005,
      "velocity": 127,
      "chip": "ym2612"
    },
    {
      "channel": 1,
      "note": 65,
      "start": 6.8175,
      "duration": 0.0007,
      "velocity": 88,
      "chip": "ym2612"
    },
    {
      "channel": 3,
      "note": 65,
      "start": 6.8176,
      "duration": 0.0009,
      "velocity": 97,
      "chip": "ym2612"
    },
    {
      "channel": 0,
      "note": 92,
      "start": 6.8181,
      "duration": 0.0486,
      "velocity": 127,
      "chip": "ym2612"
    },
    {
      "channel": 1,
      "note": 60,
      "start": 6.8185,
      "duration": 0.0987,
      "velocity": 88,
      "chip": "ym2612"
    },
    {
      "channel": 3,
      "note": 60,
      "start": 6.8189,
      "duration": 0.0988,
      "velocity": 97,
      "chip": "ym2612"
    },
    {
      "channel": 0,
      "note": 92,
      "start": 6.917,
      "duration": 0.0049,
      "velocity": 127,
      "chip": "ym2612"
    },
    {
      "channel": 1,
      "note": 53,
      "start": 6.9175,
      "duration": 0.0058,
      "velocity": 88,
      "chip": "ym2612"
    },
    {
      "channel": 3,
      "note": 53,
      "start": 6.9182,
      "duration": 0.0056,
      "velocity": 97,
      "chip": "ym2612"
    },
    {
      "channel": 0,
      "note": 111,
      "start": 6.9233,
      "duration": 0.0024,
      "velocity": 127,
      "chip": "ym2612"
    },
    {
      "channel": 1,
      "note": 56,
      "start": 6.9237,
      "duration": 0.0032,
      "velocity": 88,
      "chip": "ym2612"
    },
    {
      "channel": 3,
      "note": 56,
      "start": 6.9242,
      "duration": 0.0031,
      "velocity": 97,
      "chip": "ym2612"
    },
    {
      "channel": 0,
      "note": 92,
      "start": 6.9268,
      "duration": 0.001,
      "velocity": 127,
      "chip": "ym2612"
    },
    {
      "channel": 1,
      "note": 58,
      "start": 6.9271,
      "duration": 0.0017,
      "velocity": 88,
      "chip": "ym2612"
    },
    {
      "channel": 3,
      "note": 58,
      "start": 6.9276,
      "duration": 0.0018,
      "velocity": 97,
      "chip": "ym2612"
    },
    {
      "channel": 0,
      "note": 92,
      "start": 6.928,
      "duration": 0.0002,
      "velocity": 127,
      "chip": "ym2612"
    },
    {
      "channel": 0,
      "note": 92,
      "start": 6.9288,
      "duration": 0.0012,
      "velocity": 127,
      "chip": "ym2612"
    },
    {
      "channel": 1,
      "note": 53,
      "start": 6.9292,
      "duration": 0.0018,
      "velocity": 88,
      "chip": "ym2612"
    },
    {
      "channel": 3,
      "note": 53,
      "start": 6.9297,
      "duration": 0.0015,
      "velocity": 97,
      "chip": "ym2612"
    },
    {
      "channel": 0,
      "note": 92,
      "start": 6.9302,
      "duration": 0.0004,
      "velocity": 127,
      "chip": "ym2612"
    },
    {
      "channel": 0,
      "note": 92,
      "start": 6.9309,
      "duration": 0.0482,
      "velocity": 127,
      "chip": "ym2612"
    },
    {
      "channel": 1,
      "note": 53,
      "start": 6.9311,
      "duration": 0.0985,
      "velocity": 88,
      "chip": "ym2612"
    },
    {
      "channel": 3,
      "note": 53,
      "start": 6.9312,
      "duration": 0.0989,
      "velocity": 97,
      "chip": "ym2612"
    },
    {
      "channel": 0,
      "note": 92,
      "start": 7.0294,
      "duration": 0.002,
      "velocity": 127,
      "chip": "ym2612"
    },
    {
      "channel": 1,
      "note": 65,
      "start": 7.0299,
      "duration": 0.0029,
      "velocity": 88,
      "chip": "ym2612"
    },
    {
      "channel": 3,
      "note": 65,
      "start": 7.0306,
      "duration": 0.0026,
      "velocity": 97,
      "chip": "ym2612"
    },
    {
      "channel": 0,
      "note": 111,
      "start": 7.0327,
      "duration": 0.0033,
      "velocity": 127,
      "chip": "ym2612"
    },
    {
      "channel": 1,
      "note": 53,
      "start": 7.0331,
      "duration": 0.0017,
      "velocity": 88,
      "chip": "ym2612"
    },
    {
      "channel": 3,
      "note": 53,
      "start": 7.0336,
      "duration": 0.0016,
      "velocity": 97,
      "chip": "ym2612"
    },
    {
      "channel": 1,
      "note": 56,
      "start": 7.0351,
      "duration": 0.0022,
      "velocity": 88,
      "chip": "ym2612"
    },
    {
      "channel": 3,
      "note": 56,
      "start": 7.0355,
      "duration": 0.002,
      "velocity": 97,
      "chip": "ym2612"
    },
    {
      "channel": 0,
      "note": 92,
      "start": 7.0372,
      "duration": 0.0008,
      "velocity": 127,
      "chip": "ym2612"
    },
    {
      "channel": 1,
      "note": 60,
      "start": 7.0374,
      "duration": 0.001,
      "velocity": 88,
      "chip": "ym2612"
    },
    {
      "channel": 3,
      "note": 60,
      "start": 7.0377,
      "duration": 0.0011,
      "velocity": 97,
      "chip": "ym2612"
    },
    {
      "channel": 0,
      "note": 92,
      "start": 7.0383,
      "duration": 0.001,
      "velocity": 127,
      "chip": "ym2612"
    },
    {
      "channel": 1,
      "note": 65,
      "start": 7.0387,
      "duration": 0.0012,
      "velocity": 88,
      "chip": "ym2612"
    },
    {
      "channel": 3,
      "note": 65,
      "start": 7.0391,
      "duration": 0.001,
      "velocity": 97,
      "chip": "ym2612"
    },
    {
      "channel": 0,
      "note": 92,
      "start": 7.0399,
      "duration": 0.0041,
      "velocity": 127,
      "chip": "ym2612"
    },
    {
      "channel": 0,
      "note": 92,
      "start": 7.0442,
      "duration": 0.0005,
      "velocity": 127,
      "chip": "ym2612"
    },
    {
      "channel": 1,
      "note": 65,
      "start": 7.0444,
      "duration": 0.0007,
      "velocity": 88,
      "chip": "ym2612"
    },
    {
      "channel": 3,
      "note": 65,
      "start": 7.0444,
      "duration": 0.0009,
      "velocity": 97,
      "chip": "ym2612"
    },
    {
      "channel": 0,
      "note": 92,
      "start": 7.0449,
      "duration": 0.0486,
      "velocity": 127,
      "chip": "ym2612"
    },
    {
      "channel": 1,
      "note": 60,
      "start": 7.0453,
      "duration": 0.0987,
      "velocity": 88,
      "chip": "ym2612"
    },
    {
      "channel": 3,
      "note": 60,
      "start": 7.0457,
      "duration": 0.0988,
      "velocity": 97,
      "chip": "ym2612"
    },
    {
      "channel": 0,
      "note": 92,
      "start": 7.1439,
      "duration": 0.0049,
      "velocity": 127,
      "chip": "ym2612"
    },
    {
      "channel": 1,
      "note": 53,
      "start": 7.1444,
      "duration": 0.0058,
      "velocity": 88,
      "chip": "ym2612"
    },
    {
      "channel": 3,
      "note": 53,
      "start": 7.145,
      "duration": 0.0057,
      "velocity": 97,
      "chip": "ym2612"
    },
    {
      "channel": 0,
      "note": 111,
      "start": 7.1501,
      "duration": 0.0041,
      "velocity": 127,
      "chip": "ym2612"
    },
    {
      "channel": 1,
      "note": 51,
      "start": 7.1505,
      "duration": 0.0049,
      "velocity": 88,
      "chip": "ym2612"
    },
    {
      "channel": 3,
      "note": 51,
      "start": 7.1511,
      "duration": 0.0048,
      "velocity": 97,
      "chip": "ym2612"
    },
    {
      "channel": 0,
      "note": 92,
      "start": 7.1554,
      "duration": 0.0014,
      "velocity": 127,
      "chip": "ym2612"
    },
    {
      "channel": 1,
      "note": 52,
      "start": 7.1558,
      "duration": 0.0039,
      "velocity": 88,
      "chip": "ym2612"
    },
    {
      "channel": 3,
      "note": 52,
      "start": 7.1562,
      "duration": 0.004,
      "velocity": 97,
      "chip": "ym2612"
    },
    {
      "channel": 0,
      "note": 92,
      "start": 7.1581,
      "duration": 0.0011,
      "velocity": 127,
      "chip": "ym2612"
    },
    {
      "channel": 0,
      "note": 92,
      "start": 7.1596,
      "duration": 0.0044,
      "velocity": 127,
      "chip": "ym2612"
    },
    {
      "channel": 1,
      "note": 53,
      "start": 7.16,
      "duration": 0.0049,
      "velocity": 88,
      "chip": "ym2612"
    },
    {
      "channel": 3,
      "note": 53,
      "start": 7.1605,
      "duration": 0.0046,
      "velocity": 97,
      "chip": "ym2612"
    },
    {
      "channel": 0,
      "note": 92,
      "start": 7.1642,
      "duration": 0.0003,
      "velocity": 127,
      "chip": "ym2612"
    },
    {
      "channel": 0,
      "note": 92,
      "start": 7.1648,
      "duration": 0.0485,
      "velocity": 127,
      "chip": "ym2612"
    },
    {
      "channel": 1,
      "note": 65,
      "start": 7.1651,
      "duration": 0.0986,
      "velocity": 88,
      "chip": "ym2612"
    },
    {
      "channel": 3,
      "note": 65,
      "start": 7.1654,
      "duration": 0.0989,
      "velocity": 97,
      "chip": "ym2612"
    },
    {
      "channel": 0,
      "note": 92,
      "start": 7.2636,
      "duration": 0.002,
      "velocity": 127,
      "chip": "ym2612"
    },
    {
      "channel": 1,
      "note": 53,
      "start": 7.2641,
      "duration": 0.0029,
      "velocity": 88,
      "chip": "ym2612"
    },
    {
      "channel": 3,
      "note": 53,
      "start": 7.2647,
      "duration": 0.0026,
      "velocity": 97,
      "chip": "ym2612"
    },
    {
      "channel": 0,
      "note": 111,
      "start": 7.2669,
      "duration": 0.003,
      "velocity": 127,
      "chip": "ym2612"
    },
    {
      "channel": 1,
      "note": 53,
      "start": 7.2671,
      "duration": 0.0016,
      "velocity": 88,
      "chip": "ym2612"
    },
    {
      "channel": 3,
      "note": 53,
      "start": 7.2677,
      "duration": 0.0014,
      "velocity": 97,
      "chip": "ym2612"
    },
    {
      "channel": 1,
      "note": 60,
      "start": 7.269,
      "duration": 0.0024,
      "velocity": 88,
      "chip": "ym2612"
    },
    {
      "channel": 3,
      "note": 60,
      "start": 7.2694,
      "duration": 0.0026,
      "velocity": 97,
      "chip": "ym2612"
    },
    {
      "channel": 0,
      "note": 92,
      "start": 7.2713,
      "duration": 0.0013,
      "velocity": 127,
      "chip": "ym2612"
    },
    {
      "channel": 1,
      "note": 56,
      "start": 7.2718,
      "duration": 0.0011,
      "velocity": 88,
      "chip": "ym2612"
    },
    {
      "channel": 3,
      "note": 56,
      "start": 7.2722,
      "duration": 0.001,
      "velocity": 97,
      "chip": "ym2612"
    },
    {
      "channel": 0,
      "note": 92,
      "start": 7.2728,
      "duration": 0.0009,
      "velocity": 127,
      "chip": "ym2612"
    },
    {
      "channel": 1,
      "note": 65,
      "start": 7.2731,
      "duration": 0.0012,
      "velocity": 88,
      "chip": "ym2612"
    },
    {
      "channel": 3,
      "note": 65,
      "start": 7.2735,
      "duration": 0.001,
      "velocity": 97,
      "chip": "ym2612"
    },
    {
      "channel": 0,
      "note": 92,
      "start": 7.2743,
      "duration": 0.0005,
      "velocity": 127,
      "chip": "ym2612"
    },
    {
      "channel": 0,
      "note": 92,
      "start": 7.2751,
      "duration": 0.0006,
      "velocity": 127,
      "chip": "ym2612"
    },
    {
      "channel": 1,
      "note": 65,
      "start": 7.2752,
      "duration": 0.0008,
      "velocity": 88,
      "chip": "ym2612"
    },
    {
      "channel": 3,
      "note": 65,
      "start": 7.2753,
      "duration": 0.0011,
      "velocity": 97,
      "chip": "ym2612"
    },
    {
      "channel": 0,
      "note": 92,
      "start": 7.2759,
      "duration": 0.0486,
      "velocity": 127,
      "chip": "ym2612"
    },
    {
      "channel": 1,
      "note": 60,
      "start": 7.2763,
      "duration": 0.0986,
      "velocity": 88,
      "chip": "ym2612"
    },
    {
      "channel": 3,
      "note": 60,
      "start": 7.2768,
      "duration": 0.0988,
      "velocity": 97,
      "chip": "ym2612"
    },
    {
      "channel": 0,
      "note": 92,
      "start": 7.3749,
      "duration": 0.0049,
      "velocity": 127,
      "chip": "ym2612"
    },
    {
      "channel": 1,
      "note": 53,
      "start": 7.3754,
      "duration": 0.0057,
      "velocity": 88,
      "chip": "ym2612"
    },
    {
      "channel": 3,
      "note": 53,
      "start": 7.376,
      "duration": 0.0055,
      "velocity": 97,
      "chip": "ym2612"
    },
    {
      "channel": 0,
      "note": 111,
      "start": 7.381,
      "duration": 0.0033,
      "velocity": 127,
      "chip": "ym2612"
    },
    {
      "channel": 1,
      "note": 56,
      "start": 7.3814,
      "duration": 0.0017,
      "velocity": 88,
      "chip": "ym2612"
    },
    {
      "channel": 3,
      "note": 56,
      "start": 7.3819,
      "duration": 0.0016,
      "velocity": 97,
      "chip": "ym2612"
    },
    {
      "channel": 1,
      "note": 68,
      "start": 7.3834,
      "duration": 0.0028,
      "velocity": 88,
      "chip": "ym2612"
    },
    {
      "channel": 3,
      "note": 68,
      "start": 7.3838,
      "duration": 0.003,
      "velocity": 97,
      "chip": "ym2612"
    },
    {
      "channel": 0,
      "note": 92,
      "start": 7.3861,
      "duration": 0.0022,
      "velocity": 127,
      "chip": "ym2612"
    },
    {
      "channel": 1,
      "note": 58,
      "start": 7.3866,
      "duration": 0.0029,
      "velocity": 88,
      "chip": "ym2612"
    },
    {
      "channel": 3,
      "note": 58,
      "start": 7.3873,
      "duration": 0.0029,
      "velocity": 97,
      "chip": "ym2612"
    },
    {
      "channel": 0,
      "note": 92,
      "start": 7.3894,
      "duration": 0.0021,
      "velocity": 127,
      "chip": "ym2612"
    },
    {
      "channel": 1,
      "note": 70,
      "start": 7.3899,
      "duration": 0.0034,
      "velocity": 88,
      "chip": "ym2612"
    },
    {
      "channel": 3,
      "note": 70,
      "start": 7.3905,
      "duration": 0.0036,
      "velocity": 97,
      "chip": "ym2612"
    },
    {
      "channel": 0,
      "note": 92,
      "start": 7.3932,
      "duration": 0.0026,
      "velocity": 127,
      "chip": "ym2612"
    },
    {
      "channel": 1,
      "note": 53,
      "start": 7.3938,
      "duration": 0.0037,
      "velocity": 88,
      "chip": "ym2612"
    },
    {
      "channel": 3,
      "note": 53,
      "start": 7.3946,
      "duration": 0.003,
      "velocity": 97,
      "chip": "ym2612"
    },
    {
      "channel": 0,
      "note": 92,
      "start": 7.3961,
      "duration": 0.0011,
      "velocity": 127,
      "chip": "ym2612"
    },
    {
      "channel": 0,
      "note": 92,
      "start": 7.3974,
      "duration": 0.0005,
      "velocity": 127,
      "chip": "ym2612"
    },
    {
      "channel": 1,
      "note": 53,
      "start": 7.3976,
      "duration": 0.0025,
      "velocity": 88,
      "chip": "ym2612"
    },
    {
      "channel": 3,
      "note": 53,
      "start": 7.3977,
      "duration": 0.0031,
      "velocity": 97,
      "chip": "ym2612"
    },
    {
      "channel": 0,
      "note": 92,
      "start": 7.4,
      "duration": 0.0019,
      "velocity": 127,
      "chip": "ym2612"
    },
    {
      "channel": 1,
      "note": 65,
      "start": 7.4006,
      "duration": 0.0028,
      "velocity": 88,
      "chip": "ym2612"
    },
    {
      "channel": 3,
      "note": 65,
      "start": 7.4012,
      "duration": 0.0025,
      "velocity": 97,
      "chip": "ym2612"
    },
    {
      "channel": 0,
      "note": 111,
      "start": 7.4032,
      "duration": 0.0041,
      "velocity": 127,
      "chip": "ym2612"
    },
    {
      "channel": 1,
      "note": 53,
      "start": 7.4036,
      "duration": 0.0017,
      "velocity": 88,
      "chip": "ym2612"
    },
    {
      "channel": 3,
      "note": 53,
      "start": 7.4041,
      "duration": 0.0018,
      "velocity": 97,
      "chip": "ym2612"
    },
    {
      "channel": 1,
      "note": 56,
      "start": 7.4057,
      "duration": 0.0031,
      "velocity": 88,
      "chip": "ym2612"
    },
    {
      "channel": 3,
      "note": 56,
      "start": 7.4063,
      "duration": 0.003,
      "velocity": 97,
      "chip": "ym2612"
    },
    {
      "channel": 0,
      "note": 92,
      "start": 7.4087,
      "duration": 0.0013,
      "velocity": 127,
      "chip": "ym2612"
    },
    {
      "channel": 1,
      "note": 60,
      "start": 7.4092,
      "duration": 0.0012,
      "velocity": 88,
      "chip": "ym2612"
    },
    {
      "channel": 3,
      "note": 60,
      "start": 7.4096,
      "duration": 0.0012,
      "velocity": 97,
      "chip": "ym2612"
    },
    {
      "channel": 0,
      "note": 92,
      "start": 7.4103,
      "duration": 0.001,
      "velocity": 127,
      "chip": "ym2612"
    },
    {
      "channel": 1,
      "note": 65,
      "start": 7.4107,
      "duration": 0.0011,
      "velocity": 88,
      "chip": "ym2612"
    },
    {
      "channel": 3,
      "note": 65,
      "start": 7.411,
      "duration": 0.0012,
      "velocity": 97,
      "chip": "ym2612"
    },
    {
      "channel": 0,
      "note": 92,
      "start": 7.4117,
      "duration": 0.0017,
      "velocity": 127,
      "chip": "ym2612"
    },
    {
      "channel": 1,
      "note": 51,
      "start": 7.4121,
      "duration": 0.0039,
      "velocity": 88,
      "chip": "ym2612"
    },
    {
      "channel": 3,
      "note": 51,
      "start": 7.4126,
      "duration": 0.0038,
      "velocity": 97,
      "chip": "ym2612"
    },
    {
      "channel": 0,
      "note": 92,
      "start": 7.4138,
      "duration": 0.0018,
      "velocity": 127,
      "chip": "ym2612"
    },
    {
      "channel": 0,
      "note": 92,
      "start": 7.4159,
      "duration": 0.0012,
      "velocity": 127,
      "chip": "ym2612"
    },
    {
      "channel": 1,
      "note": 63,
      "start": 7.4163,
      "duration": 0.0051,
      "velocity": 88,
      "chip": "ym2612"
    },
    {
      "channel": 3,
      "note": 63,
      "start": 7.4168,
      "duration": 0.0051,
      "velocity": 97,
      "chip": "ym2612"
    },
    {
      "channel": 0,
      "note": 92,
      "start": 7.418,
      "duration": 0.0003,
      "velocity": 127,
      "chip": "ym2612"
    },
    {
      "channel": 0,
      "note": 111,
      "start": 7.4212,
      "duration": 0.0041,
      "velocity": 127,
      "chip": "ym2612"
    },
    {
      "channel": 1,
      "note": 52,
      "start": 7.4218,
      "duration": 0.0049,
      "velocity": 88,
      "chip": "ym2612"
    },
    {
      "channel": 3,
      "note": 52,
      "start": 7.4224,
      "duration": 0.0045,
      "velocity": 97,
      "chip": "ym2612"
    },
    {
      "channel": 0,
      "note": 92,
      "start": 7.4265,
      "duration": 0.001,
      "velocity": 127,
      "chip": "ym2612"
    },
    {
      "channel": 1,
      "note": 64,
      "start": 7.4269,
      "duration": 0.0026,
      "velocity": 88,
      "chip": "ym2612"
    },
    {
      "channel": 3,
      "note": 64,
      "start": 7.4273,
      "duration": 0.0026,
      "velocity": 97,
      "chip": "ym2612"
    },
    {
      "channel": 0,
      "note": 92,
      "start": 7.4283,
      "duration": 0.0004,
      "velocity": 127,
      "chip": "ym2612"
    },
    {
      "channel": 0,
      "note": 92,
      "start": 7.4293,
      "duration": 0.0012,
      "velocity": 127,
      "chip": "ym2612"
    },
    {
      "channel": 1,
      "note": 53,
      "start": 7.4298,
      "duration": 0.0017,
      "velocity": 88,
      "chip": "ym2612"
    },
    {
      "channel": 3,
      "note": 53,
      "start": 7.4301,
      "duration": 0.0015,
      "velocity": 97,
      "chip": "ym2612"
    },
    {
      "channel": 0,
      "note": 92,
      "start": 7.4308,
      "duration": 0.0003,
      "velocity": 127,
      "chip": "ym2612"
    },
    {
      "channel": 0,
      "note": 92,
      "start": 7.4315,
      "duration": 0.0482,
      "velocity": 127,
      "chip": "ym2612"
    },
    {
      "channel": 1,
      "note": 53,
      "start": 7.4316,
      "duration": 0.0985,
      "velocity": 88,
      "chip": "ym2612"
    },
    {
      "channel": 3,
      "note": 53,
      "start": 7.4319,
      "duration": 0.0988,
      "velocity": 97,
      "chip": "ym2612"
    },
    {
      "channel": 0,
      "note": 92,
      "start": 7.53,
      "duration": 0.002,
      "velocity": 127,
      "chip": "ym2612"
    },
    {
      "channel": 1,
      "note": 65,
      "start": 7.5305,
      "duration": 0.0029,
      "velocity": 88,
      "chip": "ym2612"
    },
    {
      "channel": 3,
      "note": 65,
      "start": 7.5311,
      "duration": 0.0026,
      "velocity": 97,
      "chip": "ym2612"
    },
    {
      "channel": 0,
      "note": 111,
      "start": 7.5333,
      "duration": 0.0033,
      "velocity": 127,
      "chip": "ym2612"
    },
    {
      "channel": 1,
      "note": 53,
      "start": 7.5337,
      "duration": 0.0017,
      "velocity": 88,
      "chip": "ym2612"
    },
    {
      "channel": 3,
      "note": 53,
      "start": 7.5342,
      "duration": 0.0016,
      "velocity": 97,
      "chip": "ym2612"
    },
    {
      "channel": 1,
      "note": 60,
      "start": 7.5356,
      "duration": 0.0022,
      "velocity": 88,
      "chip": "ym2612"
    },
    {
      "channel": 3,
      "note": 60,
      "start": 7.5361,
      "duration": 0.002,
      "velocity": 97,
      "chip": "ym2612"
    },
    {
      "channel": 0,
      "note": 92,
      "start": 7.5377,
      "duration": 0.0008,
      "velocity": 127,
      "chip": "ym2612"
    },
    {
      "channel": 1,
      "note": 56,
      "start": 7.538,
      "duration": 0.001,
      "velocity": 88,
      "chip": "ym2612"
    },
    {
      "channel": 3,
      "note": 56,
      "start": 7.5383,
      "duration": 0.0011,
      "velocity": 97,
      "chip": "ym2612"
    },
    {
      "channel": 0,
      "note": 92,
      "start": 7.5389,
      "duration": 0.001,
      "velocity": 127,
      "chip": "ym2612"
    },
    {
      "channel": 1,
      "note": 65,
      "start": 7.5393,
      "duration": 0.0013,
      "velocity": 88,
      "chip": "ym2612"
    },
    {
      "channel": 3,
      "note": 65,
      "start": 7.5396,
      "duration": 0.0012,
      "velocity": 97,
      "chip": "ym2612"
    },
    {
      "channel": 0,
      "note": 92,
      "start": 7.5405,
      "duration": 0.0011,
      "velocity": 127,
      "chip": "ym2612"
    },
    {
      "channel": 1,
      "note": 56,
      "start": 7.5408,
      "duration": 0.0016,
      "velocity": 88,
      "chip": "ym2612"
    },
    {
      "channel": 3,
      "note": 56,
      "start": 7.5412,
      "duration": 0.0015,
      "velocity": 97,
      "chip": "ym2612"
    },
    {
      "channel": 0,
      "note": 92,
      "start": 7.5418,
      "duration": 0.0003,
      "velocity": 127,
      "chip": "ym2612"
    },
    {
      "channel": 0,
      "note": 92,
      "start": 7.5424,
      "duration": 0.0482,
      "velocity": 127,
      "chip": "ym2612"
    },
    {
      "channel": 1,
      "note": 56,
      "start": 7.5426,
      "duration": 0.0985,
      "velocity": 88,
      "chip": "ym2612"
    },
    {
      "channel": 3,
      "note": 56,
      "start": 7.5428,
      "duration": 0.0989,
      "velocity": 97,
      "chip": "ym2612"
    },
    {
      "channel": 0,
      "note": 92,
      "start": 7.641,
      "duration": 0.0018,
      "velocity": 127,
      "chip": "ym2612"
    },
    {
      "channel": 1,
      "note": 56,
      "start": 7.6414,
      "duration": 0.0028,
      "velocity": 88,
      "chip": "ym2612"
    },
    {
      "channel": 3,
      "note": 56,
      "start": 7.642,
      "duration": 0.0028,
      "velocity": 97,
      "chip": "ym2612"
    },
    {
      "channel": 0,
      "note": 111,
      "start": 7.6441,
      "duration": 0.0025,
      "velocity": 127,
      "chip": "ym2612"
    },
    {
      "channel": 1,
      "note": 58,
      "start": 7.6445,
      "duration": 0.0035,
      "velocity": 88,
      "chip": "ym2612"
    },
    {
      "channel": 3,
      "note": 58,
      "start": 7.6451,
      "duration": 0.0033,
      "velocity": 97,
      "chip": "ym2612"
    },
    {
      "channel": 0,
      "note": 92,
      "start": 7.6479,
      "duration": 0.0009,
      "velocity": 127,
      "chip": "ym2612"
    },
    {
      "channel": 1,
      "note": 58,
      "start": 7.6482,
      "duration": 0.001,
      "velocity": 88,
      "chip": "ym2612"
    },
    {
      "channel": 3,
      "note": 58,
      "start": 7.6485,
      "duration": 0.001,
      "velocity": 97,
      "chip": "ym2612"
    },
    {
      "channel": 0,
      "note": 92,
      "start": 7.6492,
      "duration": 0.0006,
      "velocity": 127,
      "chip": "ym2612"
    },
    {
      "channel": 1,
      "note": 58,
      "start": 7.6494,
      "duration": 0.0013,
      "velocity": 88,
      "chip": "ym2612"
    },
    {
      "channel": 3,
      "note": 58,
      "start": 7.6496,
      "duration": 0.0015,
      "velocity": 97,
      "chip": "ym2612"
    },
    {
      "channel": 0,
      "note": 92,
      "start": 7.6506,
      "duration": 0.001,
      "velocity": 127,
      "chip": "ym2612"
    },
    {
      "channel": 1,
      "note": 53,
      "start": 7.651,
      "duration": 0.0016,
      "velocity": 88,
      "chip": "ym2612"
    },
    {
      "channel": 3,
      "note": 53,
      "start": 7.6514,
      "duration": 0.0014,
      "velocity": 97,
      "chip": "ym2612"
    },
    {
      "channel": 0,
      "note": 92,
      "start": 7.6519,
      "duration": 0.0003,
      "velocity": 127,
      "chip": "ym2612"
    },
    {
      "channel": 0,
      "note": 92,
      "start": 7.6525,
      "duration": 0.0482,
      "velocity": 127,
      "chip": "ym2612"
    },
    {
      "channel": 1,
      "note": 53,
      "start": 7.6527,
      "duration": 0.0985,
      "velocity": 88,
      "chip": "ym2612"
    },
    {
      "channel": 3,
      "note": 53,
      "start": 7.6529,
      "duration": 0.0988,
      "velocity": 97,
      "chip": "ym2612"
    },
    {
      "channel": 0,
      "note": 92,
      "start": 7.7511,
      "duration": 0.002,
      "velocity": 127,
      "chip": "ym2612"
    },
    {
      "channel": 1,
      "note": 65,
      "start": 7.7516,
      "duration": 0.0027,
      "velocity": 88,
      "chip": "ym2612"
    },
    {
      "channel": 3,
      "note": 65,
      "start": 7.7522,
      "duration": 0.0025,
      "velocity": 97,
      "chip": "ym2612"
    },
    {
      "channel": 0,
      "note": 111,
      "start": 7.7542,
      "duration": 0.0031,
      "velocity": 127,
      "chip": "ym2612"
    },
    {
      "channel": 1,
      "note": 53,
      "start": 7.7546,
      "duration": 0.0016,
      "velocity": 88,
      "chip": "ym2612"
    },
    {
      "channel": 3,
      "note": 53,
      "start": 7.7551,
      "duration": 0.0015,
      "velocity": 97,
      "chip": "ym2612"
    },
    {
      "channel": 1,
      "note": 56,
      "start": 7.7565,
      "duration": 0.0024,
      "velocity": 88,
      "chip": "ym2612"
    },
    {
      "channel": 3,
      "note": 56,
      "start": 7.7568,
      "duration": 0.0026,
      "velocity": 97,
      "chip": "ym2612"
    },
    {
      "channel": 0,
      "note": 92,
      "start": 7.7587,
      "duration": 0.0013,
      "velocity": 127,
      "chip": "ym2612"
    },
    {
      "channel": 1,
      "note": 60,
      "start": 7.7592,
      "duration": 0.0011,
      "velocity": 88,
      "chip": "ym2612"
    },
    {
      "channel": 3,
      "note": 60,
      "start": 7.7596,
      "duration": 0.001,
      "velocity": 97,
      "chip": "ym2612"
    },
    {
      "channel": 0,
      "note": 92,
      "start": 7.7603,
      "duration": 0.0009,
      "velocity": 127,
      "chip": "ym2612"
    },
    {
      "channel": 1,
      "note": 65,
      "start": 7.7605,
      "duration": 0.0012,
      "velocity": 88,
      "chip": "ym2612"
    },
    {
      "channel": 3,
      "note": 65,
      "start": 7.7609,
      "duration": 0.001,
      "velocity": 97,
      "chip": "ym2612"
    },
    {
      "channel": 0,
      "note": 92,
      "start": 7.7617,
      "duration": 0.0041,
      "velocity": 127,
      "chip": "ym2612"
    },
    {
      "channel": 0,
      "note": 92,
      "start": 7.7661,
      "duration": 0.001,
      "velocity": 127,
      "chip": "ym2612"
    },
    {
      "channel": 1,
      "note": 63,
      "start": 7.7664,
      "duration": 0.001,
      "velocity": 88,
      "chip": "ym2612"
    },
    {
      "channel": 3,
      "note": 63,
      "start": 7.7666,
      "duration": 0.0011,
      "velocity": 97,
      "chip": "ym2612"
    },
    {
      "channel": 0,
      "note": 92,
      "start": 7.7673,
      "duration": 0.0486,
      "velocity": 127,
      "chip": "ym2612"
    },
    {
      "channel": 1,
      "note": 65,
      "start": 7.7677,
      "duration": 0.0986,
      "velocity": 88,
      "chip": "ym2612"
    },
    {
      "channel": 3,
      "note": 65,
      "start": 7.7681,
      "duration": 0.0988,
      "velocity": 97,
      "chip": "ym2612"
    },
    {
      "channel": 0,
      "note": 92,
      "start": 7.8663,
      "duration": 0.0048,
      "velocity": 127,
      "chip": "ym2612"
    },
    {
      "channel": 1,
      "note": 63,
      "start": 7.8667,
      "duration": 0.0059,
      "velocity": 88,
      "chip": "ym2612"
    },
    {
      "channel": 3,
      "note": 63,
      "start": 7.8673,
      "duration": 0.0056,
      "velocity": 97,
      "chip": "ym2612"
    },
    {
      "channel": 0,
      "note": 111,
      "start": 7.8724,
      "duration": 0.0048,
      "velocity": 127,
      "chip": "ym2612"
    },
    {
      "channel": 1,
      "note": 62,
      "start": 7.8727,
      "duration": 0.0024,
      "velocity": 88,
      "chip": "ym2612"
    },
    {
      "channel": 3,
      "note": 62,
      "start": 7.8732,
      "duration": 0.0027,
      "velocity": 97,
      "chip": "ym2612"
    },
    {
      "channel": 1,
      "note": 63,
      "start": 7.8756,
      "duration": 0.0038,
      "velocity": 88,
      "chip": "ym2612"
    },
    {
      "channel": 3,
      "note": 63,
      "start": 7.8762,
      "duration": 0.0038,
      "velocity": 97,
      "chip": "ym2612"
    },
    {
      "channel": 0,
      "note": 92,
      "start": 7.8792,
      "duration": 0.002,
      "velocity": 127,
      "chip": "ym2612"
    },
    {
      "channel": 1,
      "note": 58,
      "start": 7.8797,
      "duration": 0.003,
      "velocity": 88,
      "chip": "ym2612"
    },
    {
      "channel": 3,
      "note": 58,
      "start": 7.8803,
      "duration": 0.003,
      "velocity": 97,
      "chip": "ym2612"
    },
    {
      "channel": 0,
      "note": 92,
      "start": 7.8826,
      "duration": 0.002,
      "velocity": 127,
      "chip": "ym2612"
    },
    {
      "channel": 1,
      "note": 60,
      "start": 7.8831,
      "duration": 0.0023,
      "velocity": 88,
      "chip": "ym2612"
    },
    {
      "channel": 3,
      "note": 60,
      "start": 7.8837,
      "duration": 0.0021,
      "velocity": 97,
      "chip": "ym2612"
    },
    {
      "channel": 0,
      "note": 92,
      "start": 7.8852,
      "duration": 0.0011,
      "velocity": 127,
      "chip": "ym2612"
    },
    {
      "channel": 1,
      "note": 65,
      "start": 7.8857,
      "duration": 0.001,
      "velocity": 88,
      "chip": "ym2612"
    },
    {
      "channel": 3,
      "note": 65,
      "start": 7.886,
      "duration": 0.0011,
      "velocity": 97,
      "chip": "ym2612"
    },
    {
      "channel": 0,
      "note": 92,
      "start": 7.8866,
      "duration": 0.0012,
      "velocity": 127,
      "chip": "ym2612"
    },
    {
      "channel": 1,
      "note": 53,
      "start": 7.8869,
      "duration": 0.1002,
      "velocity": 88,
      "chip": "ym2612"
    },
    {
      "channel": 3,
      "note": 53,
      "start": 7.8875,
      "duration": 0.1002,
      "velocity": 97,
      "chip": "ym2612"
    },
    {
      "channel": 0,
      "note": 92,
      "start": 7.8879,
      "duration": 0.0487,
      "velocity": 127,
      "chip": "ym2612"
    },
    {
      "channel": 0,
      "note": 92,
      "start": 7.987,
      "duration": 0.002,
      "velocity": 127,
      "chip": "ym2612"
    },
    {
      "channel": 1,
      "note": 65,
      "start": 7.9875,
      "duration": 0.0029,
      "velocity": 88,
      "chip": "ym2612"
    },
    {
      "channel": 3,
      "note": 65,
      "start": 7.9882,
      "duration": 0.0027,
      "velocity": 97,
      "chip": "ym2612"
    },
    {
      "channel": 0,
      "note": 111,
      "start": 7.9903,
      "duration": 0.0032,
      "velocity": 127,
      "chip": "ym2612"
    },
    {
      "channel": 1,
      "note": 53,
      "start": 7.9907,
      "duration": 0.0017,
      "velocity": 88,
      "chip": "ym2612"
    },
    {
      "channel": 3,
      "note": 53,
      "start": 7.9913,
      "duration": 0.0014,
      "velocity": 97,
      "chip": "ym2612"
    },
    {
      "channel": 1,
      "note": 60,
      "start": 7.9926,
      "duration": 0.0021,
      "velocity": 88,
      "chip": "ym2612"
    },
    {
      "channel": 3,
      "note": 60,
      "start": 7.9931,
      "duration": 0.0019,
      "velocity": 97,
      "chip": "ym2612"
    },
    {
      "channel": 0,
      "note": 92,
      "start": 7.9946,
      "duration": 0.0008,
      "velocity": 127,
      "chip": "ym2612"
    },
    {
      "channel": 1,
      "note": 56,
      "start": 7.9949,
      "duration": 0.001,
      "velocity": 88,
      "chip": "ym2612"
    },
    {
      "channel": 3,
      "note": 56,
      "start": 7.9952,
      "duration": 0.0011,
      "velocity": 97,
      "chip": "ym2612"
    },
    {
      "channel": 0,
      "note": 92,
      "start": 7.9958,
      "duration": 0.001,
      "velocity": 127,
      "chip": "ym2612"
    },
    {
      "channel": 1,
      "note": 65,
      "start": 7.9962,
      "duration": 0.0012,
      "velocity": 88,
      "chip": "ym2612"
    },
    {
      "channel": 3,
      "note": 65,
      "start": 7.9966,
      "duration": 0.001,
      "velocity": 97,
      "chip": "ym2612"
    },
    {
      "channel": 0,
      "note": 92,
      "start": 7.9973,
      "duration": 0.0005,
      "velocity": 127,
      "chip": "ym2612"
    },
    {
      "channel": 0,
      "note": 92,
      "start": 7.9981,
      "duration": 0.0005,
      "velocity": 127,
      "chip": "ym2612"
    },
    {
      "channel": 1,
      "note": 65,
      "start": 7.9983,
      "duration": 0.0007,
      "velocity": 88,
      "chip": "ym2612"
    },
    {
      "channel": 3,
      "note": 65,
      "start": 7.9984,
      "duration": 0.0009,
      "velocity": 97,
      "chip": "ym2612"
    },
    {
      "channel": 0,
      "note": 92,
      "start": 7.9988,
      "duration": 0.0486,
      "velocity": 127,
      "chip": "ym2612"
    },
    {
      "channel": 1,
      "note": 60,
      "start": 7.9992,
      "duration": 0.0987,
      "velocity": 88,
      "chip": "ym2612"
    },
    {
      "channel": 3,
      "note": 60,
      "start": 7.9996,
      "duration": 0.0988,
      "velocity": 97,
      "chip": "ym2612"
    },
    {
      "channel": 0,
      "note": 92,
      "start": 8.0978,
      "duration": 0.0049,
      "velocity": 127,
      "chip": "ym2612"
    },
    {
      "channel": 1,
      "note": 53,
      "start": 8.0983,
      "duration": 0.0058,
      "velocity": 88,
      "chip": "ym2612"
    },
    {
      "channel": 3,
      "note": 53,
      "start": 8.0989,
      "duration": 0.0056,
      "velocity": 97,
      "chip": "ym2612"
    },
    {
      "channel": 0,
      "note": 111,
      "start": 8.104,
      "duration": 0.0024,
      "velocity": 127,
      "chip": "ym2612"
    },
    {
      "channel": 1,
      "note": 56,
      "start": 8.1044,
      "duration": 0.0041,
      "velocity": 88,
      "chip": "ym2612"
    },
    {
      "channel": 3,
      "note": 56,
      "start": 8.105,
      "duration": 0.0041,
      "velocity": 97,
      "chip": "ym2612"
    },
    {
      "channel": 0,
      "note": 92,
      "start": 8.1083,
      "duration": 0.002,
      "velocity": 127,
      "chip": "ym2612"
    },
    {
      "channel": 1,
      "note": 58,
      "start": 8.1089,
      "duration": 0.0067,
      "velocity": 88,
      "chip": "ym2612"
    },
    {
      "channel": 3,
      "note": 58,
      "start": 8.1095,
      "duration": 0.0064,
      "velocity": 97,
      "chip": "ym2612"
    },
    {
      "channel": 0,
      "note": 92,
      "start": 8.1117,
      "duration": 0.0011,
      "velocity": 127,
      "chip": "ym2612"
    },
    {
      "channel": 0,
      "note": 92,
      "start": 8.1155,
      "duration": 0.0015,
      "velocity": 127,
      "chip": "ym2612"
    },
    {
      "channel": 0,
      "note": 92,
      "start": 8.1187,
      "duration": 0.002,
      "velocity": 127,
      "chip": "ym2612"
    },
    {
      "channel": 1,
      "note": 65,
      "start": 8.1192,
      "duration": 0.0019,
      "velocity": 88,
      "chip": "ym2612"
    },
    {
      "channel": 3,
      "note": 65,
      "start": 8.1198,
      "duration": 0.0017,
      "velocity": 97,
      "chip": "ym2612"
    },
    {
      "channel": 0,
      "note": 92,
      "start": 8.121,
      "duration": 0.001,
      "velocity": 127,
      "chip": "ym2612"
    },
    {
      "channel": 1,
      "note": 63,
      "start": 8.1214,
      "duration": 0.001,
      "velocity": 88,
      "chip": "ym2612"
    },
    {
      "channel": 3,
      "note": 63,
      "start": 8.1218,
      "duration": 0.0011,
      "velocity": 97,
      "chip": "ym2612"
    },
    {
      "channel": 0,
      "note": 92,
      "start": 8.1223,
      "duration": 0.001,
      "velocity": 127,
      "chip": "ym2612"
    },
    {
      "channel": 1,
      "note": 60,
      "start": 8.1227,
      "duration": 0.0019,
      "velocity": 88,
      "chip": "ym2612"
    },
    {
      "channel": 3,
      "note": 60,
      "start": 8.1231,
      "duration": 0.0021,
      "velocity": 97,
      "chip": "ym2612"
    },
    {
      "channel": 0,
      "note": 111,
      "start": 8.1246,
      "duration": 0.0045,
      "velocity": 127,
      "chip": "ym2612"
    },
    {
      "channel": 1,
      "note": 63,
      "start": 8.125,
      "duration": 0.002,
      "velocity": 88,
      "chip": "ym2612"
    },
    {
      "channel": 3,
      "note": 63,
      "start": 8.1255,
      "duration": 0.0022,
      "velocity": 97,
      "chip": "ym2612"
    },
    {
      "channel": 1,
      "note": 60,
      "start": 8.1274,
      "duration": 0.0029,
      "velocity": 88,
      "chip": "ym2612"
    },
    {
      "channel": 3,
      "note": 60,
      "start": 8.1279,
      "duration": 0.0027,
      "velocity": 97,
      "chip": "ym2612"
    },
    {
      "channel": 0,
      "note": 92,
      "start": 8.1302,
      "duration": 0.0009,
      "velocity": 127,
      "chip": "ym2612"
    },
    {
      "channel": 1,
      "note": 56,
      "start": 8.1305,
      "duration": 0.001,
      "velocity": 88,
      "chip": "ym2612"
    },
    {
      "channel": 3,
      "note": 56,
      "start": 8.1309,
      "duration": 0.0008,
      "velocity": 97,
      "chip": "ym2612"
    },
    {
      "channel": 0,
      "note": 92,
      "start": 8.1314,
      "duration": 0.0009,
      "velocity": 127,
      "chip": "ym2612"
    },
    {
      "channel": 1,
      "note": 53,
      "start": 8.1317,
      "duration": 0.0012,
      "velocity": 88,
      "chip": "ym2612"
    },
    {
      "channel": 3,
      "note": 53,
      "start": 8.132,
      "duration": 0.0013,
      "velocity": 97,
      "chip": "ym2612"
    },
    {
      "channel": 0,
      "note": 92,
      "start": 8.1329,
      "duration": 0.0017,
      "velocity": 127,
      "chip": "ym2612"
    },
    {
      "channel": 1,
      "note": 56,
      "start": 8.1333,
      "duration": 0.0017,
      "velocity": 88,
      "chip": "ym2612"
    },
    {
      "channel": 3,
      "note": 56,
      "start": 8.1337,
      "duration": 0.0016,
      "velocity": 97,
      "chip": "ym2612"
    },
    {
      "channel": 0,
      "note": 92,
      "start": 8.1349,
      "duration": 0.0023,
      "velocity": 127,
      "chip": "ym2612"
    },
    {
      "channel": 1,
      "note": 58,
      "start": 8.1352,
      "duration": 0.0024,
      "velocity": 88,
      "chip": "ym2612"
    },
    {
      "channel": 3,
      "note": 58,
      "start": 8.1356,
      "duration": 0.0025,
      "velocity": 97,
      "chip": "ym2612"
    },
    {
      "channel": 0,
      "note": 92,
      "start": 8.1375,
      "duration": 0.001,
      "velocity": 127,
      "chip": "ym2612"
    },
    {
      "channel": 1,
      "note": 59,
      "start": 8.1379,
      "duration": 0.002,
      "velocity": 88,
      "chip": "ym2612"
    },
    {
      "channel": 3,
      "note": 59,
      "start": 8.1383,
      "duration": 0.0022,
      "velocity": 97,
      "chip": "ym2612"
    },
    {
      "channel": 0,
      "note": 92,
      "start": 8.1398,
      "duration": 0.0013,
      "velocity": 127,
      "chip": "ym2612"
    },
    {
      "channel": 1,
      "note": 56,
      "start": 8.1402,
      "duration": 0.0037,
      "velocity": 88,
      "chip": "ym2612"
    },
    {
      "channel": 3,
      "note": 56,
      "start": 8.1407,
      "duration": 0.0037,
      "velocity": 97,
      "chip": "ym2612"
    },
    {
      "channel": 0,
      "note": 111,
      "start": 8.1438,
      "duration": 0.0044,
      "velocity": 127,
      "chip": "ym2612"
    },
    {
      "channel": 1,
      "note": 59,
      "start": 8.1442,
      "duration": 0.0012,
      "velocity": 88,
      "chip": "ym2612"
    },
    {
      "channel": 3,
      "note": 59,
      "start": 8.1448,
      "duration": 0.001,
      "velocity": 97,
      "chip": "ym2612"
    },
    {
      "channel": 1,
      "note": 60,
      "start": 8.1457,
      "duration": 0.0039,
      "velocity": 88,
      "chip": "ym2612"
    },
    {
      "channel": 3,
      "note": 60,
      "start": 8.1459,
      "duration": 0.0039,
      "velocity": 97,
      "chip": "ym2612"
    },
    {
      "channel": 0,
      "note": 92,
      "start": 8.1494,
      "duration": 0.001,
      "velocity": 127,
      "chip": "ym2612"
    },
    {
      "channel": 1,
      "note": 51,
      "start": 8.1498,
      "duration": 0.0015,
      "velocity": 88,
      "chip": "ym2612"
    },
    {
      "channel": 3,
      "note": 51,
      "start": 8.1502,
      "duration": 0.0017,
      "velocity": 97,
      "chip": "ym2612"
    },
    {
      "channel": 0,
      "note": 92,
      "start": 8.1512,
      "duration": 0.0012,
      "velocity": 127,
      "chip": "ym2612"
    },
    {
      "channel": 1,
      "note": 52,
      "start": 8.1516,
      "duration": 0.0015,
      "velocity": 88,
      "chip": "ym2612"
    },
    {
      "channel": 3,
      "note": 52,
      "start": 8.1521,
      "duration": 0.0033,
      "velocity": 97,
      "chip": "ym2612"
    },
    {
      "channel": 0,
      "note": 92,
      "start": 8.153,
      "duration": 0.0032,
      "velocity": 127,
      "chip": "ym2612"
    },
    {
      "channel": 1,
      "note": 53,
      "start": 8.1535,
      "duration": 0.0039,
      "velocity": 88,
      "chip": "ym2612"
    },
    {
      "channel": 2,
      "note": 74,
      "start": 8.1553,
      "duration": 0.4452,
      "velocity": 102,
      "chip": "ym2612"
    },
    {
      "channel": 3,
      "note": 53,
      "start": 8.156,
      "duration": 0.0015,
      "velocity": 97,
      "chip": "ym2612"
    },
    {
      "channel": 0,
      "note": 92,
      "start": 8.1566,
      "duration": 0.0003,
      "velocity": 127,
      "chip": "ym2612"
    },
    {
      "channel": 0,
      "note": 92,
      "start": 8.1572,
      "duration": 0.0482,
      "velocity": 127,
      "chip": "ym2612"
    },
    {
      "channel": 1,
      "note": 53,
      "start": 8.1574,
      "duration": 0.101,
      "velocity": 88,
      "chip": "ym2612"
    },
    {
      "channel": 3,
      "note": 53,
      "start": 8.1575,
      "duration": 0.1014,
      "velocity": 97,
      "chip": "ym2612"
    },
    {
      "channel": 0,
      "note": 92,
      "start": 8.2558,
      "duration": 0.0009,
      "velocity": 127,
      "chip": "ym2612"
    },
    {
      "channel": 0,
      "note": 111,
      "start": 8.2582,
      "duration": 0.0033,
      "velocity": 127,
      "chip": "ym2612"
    },
    {
      "channel": 1,
      "note": 53,
      "start": 8.2588,
      "duration": 0.0017,
      "velocity": 88,
      "chip": "ym2612"
    },
    {
      "channel": 3,
      "note": 53,
      "start": 8.2593,
      "duration": 0.0015,
      "velocity": 97,
      "chip": "ym2612"
    },
    {
      "channel": 1,
      "note": 60,
      "start": 8.2607,
      "duration": 0.0021,
      "velocity": 88,
      "chip": "ym2612"
    },
    {
      "channel": 3,
      "note": 60,
      "start": 8.2611,
      "duration": 0.002,
      "velocity": 97,
      "chip": "ym2612"
    },
    {
      "channel": 0,
      "note": 92,
      "start": 8.2627,
      "duration": 0.001,
      "velocity": 127,
      "chip": "ym2612"
    },
    {
      "channel": 1,
      "note": 56,
      "start": 8.2629,
      "duration": 0.0012,
      "velocity": 88,
      "chip": "ym2612"
    },
    {
      "channel": 3,
      "note": 56,
      "start": 8.2633,
      "duration": 0.0012,
      "velocity": 97,
      "chip": "ym2612"
    },
    {
      "channel": 0,
      "note": 92,
      "start": 8.264,
      "duration": 0.0008,
      "velocity": 127,
      "chip": "ym2612"
    },
    {
      "channel": 1,
      "note": 65,
      "start": 8.2644,
      "duration": 0.0013,
      "velocity": 88,
      "chip": "ym2612"
    },
    {
      "channel": 3,
      "note": 65,
      "start": 8.2646,
      "duration": 0.0012,
      "velocity": 97,
      "chip": "ym2612"
    },
    {
      "channel": 0,
      "note": 92,
      "start": 8.2656,
      "duration": 0.0006,
      "velocity": 127,
      "chip": "ym2612"
    },
    {
      "channel": 0,
      "note": 92,
      "start": 8.2665,
      "duration": 0.0005,
      "velocity": 127,
      "chip": "ym2612"
    },
    {
      "channel": 1,
      "note": 65,
      "start": 8.2666,
      "duration": 0.0008,
      "velocity": 88,
      "chip": "ym2612"
    },
    {
      "channel": 3,
      "note": 65,
      "start": 8.2668,
      "duration": 0.0012,
      "velocity": 97,
      "chip": "ym2612"
    },
    {
      "channel": 0,
      "note": 92,
      "start": 8.2674,
      "duration": 0.0492,
      "velocity": 127,
      "chip": "ym2612"
    },
    {
      "channel": 1,
      "note": 60,
      "start": 8.2678,
      "duration": 0.0992,
      "velocity": 88,
      "chip": "ym2612"
    },
    {
      "channel": 3,
      "note": 60,
      "start": 8.2682,
      "duration": 0.0993,
      "velocity": 97,
      "chip": "ym2612"
    },
    {
      "channel": 0,
      "note": 92,
      "start": 8.3669,
      "duration": 0.0048,
      "velocity": 127,
      "chip": "ym2612"
    },
    {
      "channel": 1,
      "note": 53,
      "start": 8.3674,
      "duration": 0.0059,
      "velocity": 88,
      "chip": "ym2612"
    },
    {
      "channel": 3,
      "note": 53,
      "start": 8.368,
      "duration": 0.0058,
      "velocity": 97,
      "chip": "ym2612"
    },
    {
      "channel": 0,
      "note": 111,
      "start": 8.3732,
      "duration": 0.0024,
      "velocity": 127,
      "chip": "ym2612"
    },
    {
      "channel": 1,
      "note": 56,
      "start": 8.3736,
      "duration": 0.0032,
      "velocity": 88,
      "chip": "ym2612"
    },
    {
      "channel": 3,
      "note": 56,
      "start": 8.3742,
      "duration": 0.0029,
      "velocity": 97,
      "chip": "ym2612"
    },
    {
      "channel": 0,
      "note": 92,
      "start": 8.3767,
      "duration": 0.001,
      "velocity": 127,
      "chip": "ym2612"
    },
    {
      "channel": 1,
      "note": 58,
      "start": 8.377,
      "duration": 0.0019,
      "velocity": 88,
      "chip": "ym2612"
    },
    {
      "channel": 3,
      "note": 58,
      "start": 8.3774,
      "duration": 0.0019,
      "velocity": 97,
      "chip": "ym2612"
    },
    {
      "channel": 0,
      "note": 92,
      "start": 8.378,
      "duration": 0.0002,
      "velocity": 127,
      "chip": "ym2612"
    },
    {
      "channel": 0,
      "note": 92,
      "start": 8.3788,
      "duration": 0.0011,
      "velocity": 127,
      "chip": "ym2612"
    },
    {
      "channel": 1,
      "note": 53,
      "start": 8.3791,
      "duration": 0.0017,
      "velocity": 88,
      "chip": "ym2612"
    },
    {
      "channel": 3,
      "note": 53,
      "start": 8.3796,
      "duration": 0.0015,
      "velocity": 97,
      "chip": "ym2612"
    },
    {
      "channel": 0,
      "note": 92,
      "start": 8.3802,
      "duration": 0.0003,
      "velocity": 127,
      "chip": "ym2612"
    },
    {
      "channel": 0,
      "note": 92,
      "start": 8.3808,
      "duration": 0.0484,
      "velocity": 127,
      "chip": "ym2612"
    },
    {
      "channel": 1,
      "note": 53,
      "start": 8.381,
      "duration": 0.0987,
      "velocity": 88,
      "chip": "ym2612"
    },
    {
      "channel": 3,
      "note": 53,
      "start": 8.3812,
      "duration": 0.099,
      "velocity": 97,
      "chip": "ym2612"
    },
    {
      "channel": 0,
      "note": 92,
      "start": 8.4796,
      "duration": 0.0018,
      "velocity": 127,
      "chip": "ym2612"
    },
    {
      "channel": 1,
      "note": 65,
      "start": 8.4801,
      "duration": 0.003,
      "velocity": 88,
      "chip": "ym2612"
    },
    {
      "channel": 3,
      "note": 65,
      "start": 8.4806,
      "duration": 0.003,
      "velocity": 97,
      "chip": "ym2612"
    },
    {
      "channel": 0,
      "note": 111,
      "start": 8.483,
      "duration": 0.0031,
      "velocity": 127,
      "chip": "ym2612"
    },
    {
      "channel": 1,
      "note": 53,
      "start": 8.4834,
      "duration": 0.0016,
      "velocity": 88,
      "chip": "ym2612"
    },
    {
      "channel": 3,
      "note": 53,
      "start": 8.484,
      "duration": 0.0013,
      "velocity": 97,
      "chip": "ym2612"
    },
    {
      "channel": 1,
      "note": 56,
      "start": 8.4852,
      "duration": 0.0022,
      "velocity": 88,
      "chip": "ym2612"
    },
    {
      "channel": 3,
      "note": 56,
      "start": 8.4856,
      "duration": 0.0023,
      "velocity": 97,
      "chip": "ym2612"
    },
    {
      "channel": 0,
      "note": 92,
      "start": 8.4873,
      "duration": 0.0013,
      "velocity": 127,
      "chip": "ym2612"
    },
    {
      "channel": 1,
      "note": 60,
      "start": 8.4878,
      "duration": 0.0012,
      "velocity": 88,
      "chip": "ym2612"
    },
    {
      "channel": 3,
      "note": 60,
      "start": 8.4883,
      "duration": 0.001,
      "velocity": 97,
      "chip": "ym2612"
    },
    {
      "channel": 0,
      "note": 92,
      "start": 8.4889,
      "duration": 0.0009,
      "velocity": 127,
      "chip": "ym2612"
    },
    {
      "channel": 1,
      "note": 65,
      "start": 8.4891,
      "duration": 0.0015,
      "velocity": 88,
      "chip": "ym2612"
    },
    {
      "channel": 3,
      "note": 65,
      "start": 8.4895,
      "duration": 0.0012,
      "velocity": 97,
      "chip": "ym2612"
    },
    {
      "channel": 0,
      "note": 92,
      "start": 8.4905,
      "duration": 0.0004,
      "velocity": 127,
      "chip": "ym2612"
    },
    {
      "channel": 0,
      "note": 92,
      "start": 8.4912,
      "duration": 0.0007,
      "velocity": 127,
      "chip": "ym2612"
    },
    {
      "channel": 1,
      "note": 65,
      "start": 8.4914,
      "duration": 0.001,
      "velocity": 88,
      "chip": "ym2612"
    },
    {
      "channel": 3,
      "note": 65,
      "start": 8.4915,
      "duration": 0.0011,
      "velocity": 97,
      "chip": "ym2612"
    },
    {
      "channel": 0,
      "note": 92,
      "start": 8.4922,
      "duration": 0.0486,
      "velocity": 127,
      "chip": "ym2612"
    },
    {
      "channel": 1,
      "note": 60,
      "start": 8.4925,
      "duration": 0.0988,
      "velocity": 88,
      "chip": "ym2612"
    },
    {
      "channel": 3,
      "note": 60,
      "start": 8.4929,
      "duration": 0.0989,
      "velocity": 97,
      "chip": "ym2612"
    },
    {
      "channel": 0,
      "note": 92,
      "start": 8.5912,
      "duration": 0.0018,
      "velocity": 127,
      "chip": "ym2612"
    },
    {
      "channel": 1,
      "note": 53,
      "start": 8.5917,
      "duration": 0.003,
      "velocity": 88,
      "chip": "ym2612"
    },
    {
      "channel": 3,
      "note": 53,
      "start": 8.5923,
      "duration": 0.0034,
      "velocity": 97,
      "chip": "ym2612"
    },
    {
      "channel": 0,
      "note": 111,
      "start": 8.5946,
      "duration": 0.0039,
      "velocity": 127,
      "chip": "ym2612"
    },
    {
      "channel": 1,
      "note": 51,
      "start": 8.5951,
      "duration": 0.0049,
      "velocity": 88,
      "chip": "ym2612"
    },
    {
      "channel": 3,
      "note": 51,
      "start": 8.5961,
      "duration": 0.0048,
      "velocity": 97,
      "chip": "ym2612"
    },
    {
      "channel": 0,
      "note": 92,
      "start": 8.5999,
      "duration": 0.0022,
      "velocity": 127,
      "chip": "ym2612"
    },
    {
      "channel": 1,
      "note": 52,
      "start": 8.6004,
      "duration": 0.0049,
      "velocity": 88,
      "chip": "ym2612"
    },
    {
      "channel": 2,
      "note": 72,
      "start": 8.6008,
      "duration": 0.0025,
      "velocity": 102,
      "chip": "ym2612"
    },
    {
      "channel": 3,
      "note": 52,
      "start": 8.6012,
      "duration": 0.0049,
      "velocity": 97,
      "chip": "ym2612"
    },
    {
      "channel": 0,
      "note": 92,
      "start": 8.6032,
      "duration": 0.0014,
      "velocity": 127,
      "chip": "ym2612"
    },
    {
      "channel": 2,
      "note": 70,
      "start": 8.6037,
      "duration": 0.002,
      "velocity": 102,
      "chip": "ym2612"
    },
    {
      "channel": 0,
      "note": 92,
      "start": 8.6052,
      "duration": 0.005,
      "velocity": 127,
      "chip": "ym2612"
    },
    {
      "channel": 1,
      "note": 53,
      "start": 8.6056,
      "duration": 0.0054,
      "velocity": 88,
      "chip": "ym2612"
    },
    {
      "channel": 2,
      "note": 72,
      "start": 8.606,
      "duration": 0.0054,
      "velocity": 102,
      "chip": "ym2612"
    },
    {
      "channel": 3,
      "note": 53,
      "start": 8.6063,
      "duration": 0.0054,
      "velocity": 97,
      "chip": "ym2612"
    },
    {
      "channel": 0,
      "note": 92,
      "start": 8.6104,
      "duration": 0.0003,
      "velocity": 127,
      "chip": "ym2612"
    },
    {
      "channel": 0,
      "note": 92,
      "start": 8.611,
      "duration": 0.0484,
      "velocity": 127,
      "chip": "ym2612"
    },
    {
      "channel": 1,
      "note": 65,
      "start": 8.6113,
      "duration": 0.0986,
      "velocity": 88,
      "chip": "ym2612"
    },
    {
      "channel": 2,
      "note": 70,
      "start": 8.6116,
      "duration": 0.0988,
      "velocity": 102,
      "chip": "ym2612"
    },
    {
      "channel": 3,
      "note": 65,
      "start": 8.6119,
      "duration": 0.0989,
      "velocity": 97,
      "chip": "ym2612"
    },
    {
      "channel": 0,
      "note": 92,
      "start": 8.7098,
      "duration": 0.0022,
      "velocity": 127,
      "chip": "ym2612"
    },
    {
      "channel": 1,
      "note": 53,
      "start": 8.7103,
      "duration": 0.0034,
      "velocity": 88,
      "chip": "ym2612"
    },
    {
      "channel": 2,
      "note": 68,
      "start": 8.7107,
      "duration": 0.0032,
      "velocity": 102,
      "chip": "ym2612"
    },
    {
      "channel": 3,
      "note": 53,
      "start": 8.7112,
      "duration": 0.0031,
      "velocity": 97,
      "chip": "ym2612"
    },
    {
      "channel": 0,
      "note": 111,
      "start": 8.7136,
      "duration": 0.0032,
      "velocity": 127,
      "chip": "ym2612"
    },
    {
      "channel": 1,
      "note": 53,
      "start": 8.7138,
      "duration": 0.0019,
      "velocity": 88,
      "chip": "ym2612"
    },
    {
      "channel": 2,
      "note": 70,
      "start": 8.7142,
      "duration": 0.0044,
      "velocity": 102,
      "chip": "ym2612"
    },
    {
      "channel": 3,
      "note": 53,
      "start": 8.7147,
      "duration": 0.0013,
      "velocity": 97,
      "chip": "ym2612"
    },
    {
      "channel": 1,
      "note": 60,
      "start": 8.7159,
      "duration": 0.0022,
      "velocity": 88,
      "chip": "ym2612"
    },
    {
      "channel": 3,
      "note": 60,
      "start": 8.7163,
      "duration": 0.0026,
      "velocity": 97,
      "chip": "ym2612"
    },
    {
      "channel": 0,
      "note": 92,
      "start": 8.718,
      "duration": 0.0015,
      "velocity": 127,
      "chip": "ym2612"
    },
    {
      "channel": 1,
      "note": 56,
      "start": 8.7185,
      "duration": 0.0014,
      "velocity": 88,
      "chip": "ym2612"
    },
    {
      "channel": 2,
      "note": 68,
      "start": 8.7189,
      "duration": 0.0015,
      "velocity": 102,
      "chip": "ym2612"
    },
    {
      "channel": 3,
      "note": 56,
      "start": 8.7192,
      "duration": 0.0016,
      "velocity": 97,
      "chip": "ym2612"
    },
    {
      "channel": 0,
      "note": 92,
      "start": 8.7198,
      "duration": 0.0014,
      "velocity": 127,
      "chip": "ym2612"
    },
    {
      "channel": 1,
      "note": 65,
      "start": 8.7203,
      "duration": 0.0018,
      "velocity": 88,
      "chip": "ym2612"
    },
    {
      "channel": 2,
      "note": 67,
      "start": 8.7207,
      "duration": 0.0015,
      "velocity": 102,
      "chip": "ym2612"
    },
    {
      "channel": 3,
      "note": 65,
      "start": 8.721,
      "duration": 0.0016,
      "velocity": 97,
      "chip": "ym2612"
    },
    {
      "channel": 0,
      "note": 92,
      "start": 8.722,
      "duration": 0.0008,
      "velocity": 127,
      "chip": "ym2612"
    },
    {
      "channel": 2,
      "note": 68,
      "start": 8.7225,
      "duration": 0.0017,
      "velocity": 102,
      "chip": "ym2612"
    },
    {
      "channel": 0,
      "note": 92,
      "start": 8.7232,
      "duration": 0.0005,
      "velocity": 127,
      "chip": "ym2612"
    },
    {
      "channel": 1,
      "note": 65,
      "start": 8.7233,
      "duration": 0.0006,
      "velocity": 88,
      "chip": "ym2612"
    },
    {
      "channel": 3,
      "note": 65,
      "start": 8.7234,
      "duration": 0.0012,
      "velocity": 97,
      "chip": "ym2612"
    },
    {
      "channel": 0,
      "note": 92,
      "start": 8.7238,
      "duration": 0.0484,
      "velocity": 127,
      "chip": "ym2612"
    },
    {
      "channel": 1,
      "note": 60,
      "start": 8.7241,
      "duration": 0.0986,
      "velocity": 88,
      "chip": "ym2612"
    },
    {
      "channel": 2,
      "note": 67,
      "start": 8.7246,
      "duration": 0.0987,
      "velocity": 102,
      "chip": "ym2612"
    },
    {
      "channel": 3,
      "note": 60,
      "start": 8.7249,
      "duration": 0.0989,
      "velocity": 97,
      "chip": "ym2612"
    },
    {
      "channel": 0,
      "note": 92,
      "start": 8.8227,
      "duration": 0.0052,
      "velocity": 127,
      "chip": "ym2612"
    },
    {
      "channel": 1,
      "note": 53,
      "start": 8.8232,
      "duration": 0.0063,
      "velocity": 88,
      "chip": "ym2612"
    },
    {
      "channel": 2,
      "note": 65,
      "start": 8.8236,
      "duration": 0.0062,
      "velocity": 102,
      "chip": "ym2612"
    },
    {
      "channel": 3,
      "note": 53,
      "start": 8.8241,
      "duration": 0.0061,
      "velocity": 97,
      "chip": "ym2612"
    },
    {
      "channel": 0,
      "note": 111,
      "start": 8.8294,
      "duration": 0.0035,
      "velocity": 127,
      "chip": "ym2612"
    },
    {
      "channel": 1,
      "note": 56,
      "start": 8.8298,
      "duration": 0.0021,
      "velocity": 88,
      "chip": "ym2612"
    },
    {
      "channel": 2,
      "note": 67,
      "start": 8.8301,
      "duration": 0.005,
      "velocity": 102,
      "chip": "ym2612"
    },
    {
      "channel": 3,
      "note": 56,
      "start": 8.8307,
      "duration": 0.0015,
      "velocity": 97,
      "chip": "ym2612"
    },
    {
      "channel": 1,
      "note": 68,
      "start": 8.8321,
      "duration": 0.0025,
      "velocity": 88,
      "chip": "ym2612"
    },
    {
      "channel": 3,
      "note": 68,
      "start": 8.8325,
      "duration": 0.0031,
      "velocity": 97,
      "chip": "ym2612"
    },
    {
      "channel": 0,
      "note": 92,
      "start": 8.8344,
      "duration": 0.0025,
      "velocity": 127,
      "chip": "ym2612"
    },
    {
      "channel": 1,
      "note": 58,
      "start": 8.835,
      "duration": 0.0029,
      "velocity": 88,
      "chip": "ym2612"
    },
    {
      "channel": 2,
      "note": 65,
      "start": 8.8355,
      "duration": 0.0029,
      "velocity": 102,
      "chip": "ym2612"
    },
    {
      "channel": 3,
      "note": 58,
      "start": 8.836,
      "duration": 0.0029,
      "velocity": 97,
      "chip": "ym2612"
    },
    {
      "channel": 0,
      "note": 92,
      "start": 8.8378,
      "duration": 0.0025,
      "velocity": 127,
      "chip": "ym2612"
    },
    {
      "channel": 1,
      "note": 70,
      "start": 8.8383,
      "duration": 0.0034,
      "velocity": 88,
      "chip": "ym2612"
    },
    {
      "channel": 2,
      "note": 67,
      "start": 8.8388,
      "duration": 0.0036,
      "velocity": 102,
      "chip": "ym2612"
    },
    {
      "channel": 3,
      "note": 70,
      "start": 8.8393,
      "duration": 0.0035,
      "velocity": 97,
      "chip": "ym2612"
    },
    {
      "channel": 0,
      "note": 92,
      "start": 8.8416,
      "duration": 0.0027,
      "velocity": 127,
      "chip": "ym2612"
    },
    {
      "channel": 1,
      "note": 53,
      "start": 8.8422,
      "duration": 0.0037,
      "velocity": 88,
      "chip": "ym2612"
    },
    {
      "channel": 2,
      "note": 65,
      "start": 8.8427,
      "duration": 0.0336,
      "velocity": 102,
      "chip": "ym2612"
    },
    {
      "channel": 3,
      "note": 53,
      "start": 8.8433,
      "duration": 0.0028,
      "velocity": 97,
      "chip": "ym2612"
    },
    {
      "channel": 0,
      "note": 92,
      "start": 8.8447,
      "duration": 0.0009,
      "velocity": 127,
      "chip": "ym2612"
    },
    {
      "channel": 0,
      "note": 92,
      "start": 8.8459,
      "duration": 0.0007,
      "velocity": 127,
      "chip": "ym2612"
    },
    {
      "channel": 1,
      "note": 53,
      "start": 8.846,
      "duration": 0.0027,
      "velocity": 88,
      "chip": "ym2612"
    },
    {
      "channel": 3,
      "note": 53,
      "start": 8.8463,
      "duration": 0.0031,
      "velocity": 97,
      "chip": "ym2612"
    },
    {
      "channel": 0,
      "note": 92,
      "start": 8.8487,
      "duration": 0.0017,
      "velocity": 127,
      "chip": "ym2612"
    },
    {
      "channel": 1,
      "note": 65,
      "start": 8.8492,
      "duration": 0.0027,
      "velocity": 88,
      "chip": "ym2612"
    },
    {
      "channel": 3,
      "note": 65,
      "start": 8.8497,
      "duration": 0.0025,
      "velocity": 97,
      "chip": "ym2612"
    },
    {
      "channel": 0,
      "note": 111,
      "start": 8.8518,
      "duration": 0.0043,
      "velocity": 127,
      "chip": "ym2612"
    },
    {
      "channel": 1,
      "note": 53,
      "start": 8.8522,
      "duration": 0.002,
      "velocity": 88,
      "chip": "ym2612"
    },
    {
      "channel": 3,
      "note": 53,
      "start": 8.8525,
      "duration": 0.0022,
      "velocity": 97,
      "chip": "ym2612"
    },
    {
      "channel": 1,
      "note": 56,
      "start": 8.8546,
      "duration": 0.0028,
      "velocity": 88,
      "chip": "ym2612"
    },
    {
      "channel": 3,
      "note": 56,
      "start": 8.8551,
      "duration": 0.0026,
      "velocity": 97,
      "chip": "ym2612"
    },
    {
      "channel": 0,
      "note": 92,
      "start": 8.8573,
      "duration": 0.0011,
      "velocity": 127,
      "chip": "ym2612"
    },
    {
      "channel": 1,
      "note": 60,
      "start": 8.8576,
      "duration": 0.0012,
      "velocity": 88,
      "chip": "ym2612"
    },
    {
      "channel": 3,
      "note": 60,
      "start": 8.858,
      "duration": 0.0012,
      "velocity": 97,
      "chip": "ym2612"
    },
    {
      "channel": 0,
      "note": 92,
      "start": 8.8586,
      "duration": 0.001,
      "velocity": 127,
      "chip": "ym2612"
    },
    {
      "channel": 1,
      "note": 65,
      "start": 8.859,
      "duration": 0.0012,
      "velocity": 88,
      "chip": "ym2612"
    },
    {
      "channel": 3,
      "note": 65,
      "start": 8.8595,
      "duration": 0.0012,
      "velocity": 97,
      "chip": "ym2612"
    },
    {
      "channel": 0,
      "note": 92,
      "start": 8.8602,
      "duration": 0.0019,
      "velocity": 127,
      "chip": "ym2612"
    },
    {
      "channel": 1,
      "note": 51,
      "start": 8.8606,
      "duration": 0.0041,
      "velocity": 88,
      "chip": "ym2612"
    },
    {
      "channel": 3,
      "note": 51,
      "start": 8.8611,
      "duration": 0.004,
      "velocity": 97,
      "chip": "ym2612"
    },
    {
      "channel": 0,
      "note": 92,
      "start": 8.8624,
      "duration": 0.002,
      "velocity": 127,
      "chip": "ym2612"
    },
    {
      "channel": 0,
      "note": 92,
      "start": 8.8646,
      "duration": 0.001,
      "velocity": 127,
      "chip": "ym2612"
    },
    {
      "channel": 1,
      "note": 63,
      "start": 8.8649,
      "duration": 0.004,
      "velocity": 88,
      "chip": "ym2612"
    },
    {
      "channel": 3,
      "note": 63,
      "start": 8.8653,
      "duration": 0.004,
      "velocity": 97,
      "chip": "ym2612"
    },
    {
      "channel": 0,
      "note": 92,
      "start": 8.8671,
      "duration": 0.0003,
      "velocity": 127,
      "chip": "ym2612"
    },
    {
      "channel": 0,
      "note": 111,
      "start": 8.8688,
      "duration": 0.0034,
      "velocity": 127,
      "chip": "ym2612"
    },
    {
      "channel": 1,
      "note": 52,
      "start": 8.8692,
      "duration": 0.0043,
      "velocity": 88,
      "chip": "ym2612"
    },
    {
      "channel": 3,
      "note": 52,
      "start": 8.8695,
      "duration": 0.0044,
      "velocity": 97,
      "chip": "ym2612"
    },
    {
      "channel": 0,
      "note": 92,
      "start": 8.8734,
      "duration": 0.0011,
      "velocity": 127,
      "chip": "ym2612"
    },
    {
      "channel": 1,
      "note": 64,
      "start": 8.8739,
      "duration": 0.0021,
      "velocity": 88,
      "chip": "ym2612"
    },
    {
      "channel": 3,
      "note": 64,
      "start": 8.8742,
      "duration": 0.0028,
      "velocity": 97,
      "chip": "ym2612"
    },
    {
      "channel": 0,
      "note": 92,
      "start": 8.8749,
      "duration": 0.0002,
      "velocity": 127,
      "chip": "ym2612"
    },
    {
      "channel": 0,
      "note": 92,
      "start": 8.8758,
      "duration": 0.0038,
      "velocity": 127,
      "chip": "ym2612"
    },
    {
      "channel": 1,
      "note": 53,
      "start": 8.8763,
      "duration": 0.0044,
      "velocity": 88,
      "chip": "ym2612"
    },
    {
      "channel": 2,
      "note": 74,
      "start": 8.8769,
      "duration": 0.4482,
      "velocity": 102,
      "chip": "ym2612"
    },
    {
      "channel": 3,
      "note": 53,
      "start": 8.8773,
      "duration": 0.0037,
      "velocity": 97,
      "chip": "ym2612"
    },
    {
      "channel": 4,
      "note": 77,
      "start": 8.8792,
      "duration": 0.4466,
      "velocity": 102,
      "chip": "ym2612"
    },
    {
      "channel": 0,
      "note": 92,
      "start": 8.8799,
      "duration": 0.0003,
      "velocity": 127,
      "chip": "ym2612"
    },
    {
      "channel": 0,
      "note": 92,
      "start": 8.8806,
      "duration": 0.0484,
      "velocity": 127,
      "chip": "ym2612"
    },
    {
      "channel": 1,
      "note": 53,
      "start": 8.8809,
      "duration": 0.0986,
      "velocity": 88,
      "chip": "ym2612"
    },
    {
      "channel": 3,
      "note": 53,
      "start": 8.881,
      "duration": 0.099,
      "velocity": 97,
      "chip": "ym2612"
    },
    {
      "channel": 0,
      "note": 92,
      "start": 8.9794,
      "duration": 0.0017,
      "velocity": 127,
      "chip": "ym2612"
    },
    {
      "channel": 1,
      "note": 65,
      "start": 8.9799,
      "duration": 0.0028,
      "velocity": 88,
      "chip": "ym2612"
    },
    {
      "channel": 3,
      "note": 65,
      "start": 8.9804,
      "duration": 0.0028,
      "velocity": 97,
      "chip": "ym2612"
    },
    {
      "channel": 0,
      "note": 111,
      "start": 8.9825,
      "duration": 0.0033,
      "velocity": 127,
      "chip": "ym2612"
    },
    {
      "channel": 1,
      "note": 53,
      "start": 8.983,
      "duration": 0.0017,
      "velocity": 88,
      "chip": "ym2612"
    },
    {
      "channel": 3,
      "note": 53,
      "start": 8.9836,
      "duration": 0.0015,
      "velocity": 97,
      "chip": "ym2612"
    },
    {
      "channel": 1,
      "note": 60,
      "start": 8.985,
      "duration": 0.0021,
      "velocity": 88,
      "chip": "ym2612"
    },
    {
      "channel": 3,
      "note": 60,
      "start": 8.9854,
      "duration": 0.0023,
      "velocity": 97,
      "chip": "ym2612"
    },
    {
      "channel": 0,
      "note": 92,
      "start": 8.987,
      "duration": 0.0011,
      "velocity": 127,
      "chip": "ym2612"
    },
    {
      "channel": 1,
      "note": 56,
      "start": 8.9875,
      "duration": 0.0009,
      "velocity": 88,
      "chip": "ym2612"
    },
    {
      "channel": 3,
      "note": 56,
      "start": 8.9878,
      "duration": 0.0009,
      "velocity": 97,
      "chip": "ym2612"
    },
    {
      "channel": 0,
      "note": 92,
      "start": 8.9883,
      "duration": 0.0012,
      "velocity": 127,
      "chip": "ym2612"
    },
    {
      "channel": 1,
      "note": 65,
      "start": 8.9886,
      "duration": 0.0018,
      "velocity": 88,
      "chip": "ym2612"
    },
    {
      "channel": 3,
      "note": 65,
      "start": 8.9892,
      "duration": 0.0018,
      "velocity": 97,
      "chip": "ym2612"
    },
    {
      "channel": 0,
      "note": 92,
      "start": 8.9903,
      "duration": 0.0011,
      "velocity": 127,
      "chip": "ym2612"
    },
    {
      "channel": 1,
      "note": 56,
      "start": 8.9908,
      "duration": 0.0015,
      "velocity": 88,
      "chip": "ym2612"
    },
    {
      "channel": 3,
      "note": 56,
      "start": 8.9912,
      "duration": 0.0012,
      "velocity": 97,
      "chip": "ym2612"
    },
    {
      "channel": 0,
      "note": 92,
      "start": 8.9916,
      "duration": 0.0004,
      "velocity": 127,
      "chip": "ym2612"
    },
    {
      "channel": 0,
      "note": 92,
      "start": 8.9922,
      "duration": 0.0485,
      "velocity": 127,
      "chip": "ym2612"
    },
    {
      "channel": 1,
      "note": 56,
      "start": 8.9923,
      "duration": 0.0988,
      "velocity": 88,
      "chip": "ym2612"
    },
    {
      "channel": 3,
      "note": 56,
      "start": 8.9924,
      "duration": 0.0992,
      "velocity": 97,
      "chip": "ym2612"
    },
    {
      "channel": 0,
      "note": 92,
      "start": 9.0911,
      "duration": 0.0046,
      "velocity": 127,
      "chip": "ym2612"
    },
    {
      "channel": 1,
      "note": 56,
      "start": 9.0915,
      "duration": 0.0056,
      "velocity": 88,
      "chip": "ym2612"
    },
    {
      "channel": 3,
      "note": 56,
      "start": 9.092,
      "duration": 0.0056,
      "velocity": 97,
      "chip": "ym2612"
    },
    {
      "channel": 0,
      "note": 111,
      "start": 9.097,
      "duration": 0.0023,
      "velocity": 127,
      "chip": "ym2612"
    },
    {
      "channel": 1,
      "note": 58,
      "start": 9.0975,
      "duration": 0.0031,
      "velocity": 88,
      "chip": "ym2612"
    },
    {
      "channel": 3,
      "note": 58,
      "start": 9.098,
      "duration": 0.0028,
      "velocity": 97,
      "chip": "ym2612"
    },
    {
      "channel": 0,
      "note": 92,
      "start": 9.1005,
      "duration": 0.0008,
      "velocity": 127,
      "chip": "ym2612"
    },
    {
      "channel": 1,
      "note": 58,
      "start": 9.1006,
      "duration": 0.001,
      "velocity": 88,
      "chip": "ym2612"
    },
    {
      "channel": 3,
      "note": 58,
      "start": 9.1009,
      "duration": 0.0008,
      "velocity": 97,
      "chip": "ym2612"
    },
    {
      "channel": 0,
      "note": 92,
      "start": 9.1015,
      "duration": 0.0006,
      "velocity": 127,
      "chip": "ym2612"
    },
    {
      "channel": 1,
      "note": 58,
      "start": 9.1016,
      "duration": 0.0012,
      "velocity": 88,
      "chip": "ym2612"
    },
    {
      "channel": 3,
      "note": 58,
      "start": 9.1018,
      "duration": 0.0014,
      "velocity": 97,
      "chip": "ym2612"
    },
    {
      "channel": 0,
      "note": 92,
      "start": 9.1028,
      "duration": 0.0009,
      "velocity": 127,
      "chip": "ym2612"
    },
    {
      "channel": 1,
      "note": 53,
      "start": 9.1031,
      "duration": 0.0014,
      "velocity": 88,
      "chip": "ym2612"
    },
    {
      "channel": 3,
      "note": 53,
      "start": 9.1034,
      "duration": 0.0012,
      "velocity": 97,
      "chip": "ym2612"
    },
    {
      "channel": 0,
      "note": 92,
      "start": 9.1039,
      "duration": 0.0004,
      "velocity": 127,
      "chip": "ym2612"
    },
    {
      "channel": 0,
      "note": 92,
      "start": 9.1044,
      "duration": 0.0482,
      "velocity": 127,
      "chip": "ym2612"
    },
    {
      "channel": 1,
      "note": 53,
      "start": 9.1046,
      "duration": 0.0985,
      "velocity": 88,
      "chip": "ym2612"
    },
    {
      "channel": 3,
      "note": 53,
      "start": 9.1047,
      "duration": 0.0989,
      "velocity": 97,
      "chip": "ym2612"
    },
    {
      "channel": 0,
      "note": 92,
      "start": 9.203,
      "duration": 0.0018,
      "velocity": 127,
      "chip": "ym2612"
    },
    {
      "channel": 1,
      "note": 65,
      "start": 9.2035,
      "duration": 0.0027,
      "velocity": 88,
      "chip": "ym2612"
    },
    {
      "channel": 3,
      "note": 65,
      "start": 9.204,
      "duration": 0.0027,
      "velocity": 97,
      "chip": "ym2612"
    },
    {
      "channel": 0,
      "note": 111,
      "start": 9.2061,
      "duration": 0.0031,
      "velocity": 127,
      "chip": "ym2612"
    },
    {
      "channel": 1,
      "note": 53,
      "start": 9.2066,
      "duration": 0.0016,
      "velocity": 88,
      "chip": "ym2612"
    },
    {
      "channel": 3,
      "note": 53,
      "start": 9.2072,
      "duration": 0.0013,
      "velocity": 97,
      "chip": "ym2612"
    },
    {
      "channel": 1,
      "note": 56,
      "start": 9.2085,
      "duration": 0.0021,
      "velocity": 88,
      "chip": "ym2612"
    },
    {
      "channel": 3,
      "note": 56,
      "start": 9.2088,
      "duration": 0.0023,
      "velocity": 97,
      "chip": "ym2612"
    },
    {
      "channel": 0,
      "note": 92,
      "start": 9.2105,
      "duration": 0.0011,
      "velocity": 127,
      "chip": "ym2612"
    },
    {
      "channel": 1,
      "note": 60,
      "start": 9.2109,
      "duration": 0.0012,
      "velocity": 88,
      "chip": "ym2612"
    },
    {
      "channel": 3,
      "note": 60,
      "start": 9.2114,
      "duration": 0.0013,
      "velocity": 97,
      "chip": "ym2612"
    },
    {
      "channel": 0,
      "note": 92,
      "start": 9.212,
      "duration": 0.0013,
      "velocity": 127,
      "chip": "ym2612"
    },
    {
      "channel": 1,
      "note": 65,
      "start": 9.2124,
      "duration": 0.0015,
      "velocity": 88,
      "chip": "ym2612"
    },
    {
      "channel": 3,
      "note": 65,
      "start": 9.213,
      "duration": 0.001,
      "velocity": 97,
      "chip": "ym2612"
    },
    {
      "channel": 0,
      "note": 92,
      "start": 9.2138,
      "duration": 0.0004,
      "velocity": 127,
      "chip": "ym2612"
    },
    {
      "channel": 0,
      "note": 92,
      "start": 9.2145,
      "duration": 0.0009,
      "velocity": 127,
      "chip": "ym2612"
    },
    {
      "channel": 1,
      "note": 63,
      "start": 9.2149,
      "duration": 0.0009,
      "velocity": 88,
      "chip": "ym2612"
    },
    {
      "channel": 3,
      "note": 63,
      "start": 9.215,
      "duration": 0.0013,
      "velocity": 97,
      "chip": "ym2612"
    },
    {
      "channel": 0,
      "note": 92,
      "start": 9.2157,
      "duration": 0.049,
      "velocity": 127,
      "chip": "ym2612"
    },
    {
      "channel": 1,
      "note": 65,
      "start": 9.2161,
      "duration": 0.099,
      "velocity": 88,
      "chip": "ym2612"
    },
    {
      "channel": 3,
      "note": 65,
      "start": 9.2167,
      "duration": 0.099,
      "velocity": 97,
      "chip": "ym2612"
    },
    {
      "channel": 0,
      "note": 92,
      "start": 9.3151,
      "duration": 0.0016,
      "velocity": 127,
      "chip": "ym2612"
    },
    {
      "channel": 1,
      "note": 63,
      "start": 9.3155,
      "duration": 0.0028,
      "velocity": 88,
      "chip": "ym2612"
    },
    {
      "channel": 3,
      "note": 63,
      "start": 9.3161,
      "duration": 0.0032,
      "velocity": 97,
      "chip": "ym2612"
    },
    {
      "channel": 0,
      "note": 111,
      "start": 9.3183,
      "duration": 0.005,
      "velocity": 127,
      "chip": "ym2612"
    },
    {
      "channel": 1,
      "note": 62,
      "start": 9.3187,
      "duration": 0.0027,
      "velocity": 88,
      "chip": "ym2612"
    },
    {
      "channel": 3,
      "note": 62,
      "start": 9.3196,
      "duration": 0.0024,
      "velocity": 97,
      "chip": "ym2612"
    },
    {
      "channel": 1,
      "note": 63,
      "start": 9.3219,
      "duration": 0.0028,
      "velocity": 88,
      "chip": "ym2612"
    },
    {
      "channel": 3,
      "note": 63,
      "start": 9.3223,
      "duration": 0.0033,
      "velocity": 97,
      "chip": "ym2612"
    },
    {
      "channel": 0,
      "note": 92,
      "start": 9.3246,
      "duration": 0.0024,
      "velocity": 127,
      "chip": "ym2612"
    },
    {
      "channel": 1,
      "note": 58,
      "start": 9.325,
      "duration": 0.0027,
      "velocity": 88,
      "chip": "ym2612"
    },
    {
      "channel": 2,
      "note": 72,
      "start": 9.3255,
      "duration": 0.0027,
      "velocity": 102,
      "chip": "ym2612"
    },
    {
      "channel": 3,
      "note": 58,
      "start": 9.3258,
      "duration": 0.0029,
      "velocity": 97,
      "chip": "ym2612"
    },
    {
      "channel": 4,
      "note": 75,
      "start": 9.3262,
      "duration": 0.003,
      "velocity": 102,
      "chip": "ym2612"
    },
    {
      "channel": 0,
      "note": 92,
      "start": 9.3276,
      "duration": 0.0029,
      "velocity": 127,
      "chip": "ym2612"
    },
    {
      "channel": 1,
      "note": 60,
      "start": 9.3281,
      "duration": 0.003,
      "velocity": 88,
      "chip": "ym2612"
    },
    {
      "channel": 2,
      "note": 70,
      "start": 9.3286,
      "duration": 0.0029,
      "velocity": 102,
      "chip": "ym2612"
    },
    {
      "channel": 3,
      "note": 60,
      "start": 9.3291,
      "duration": 0.0027,
      "velocity": 97,
      "chip": "ym2612"
    },
    {
      "channel": 4,
      "note": 74,
      "start": 9.3296,
      "duration": 0.0027,
      "velocity": 102,
      "chip": "ym2612"
    },
    {
      "channel": 0,
      "note": 92,
      "start": 9.331,
      "duration": 0.0017,
      "velocity": 127,
      "chip": "ym2612"
    },
    {
      "channel": 1,
      "note": 65,
      "start": 9.3314,
      "duration": 0.0017,
      "velocity": 88,
      "chip": "ym2612"
    },
    {
      "channel": 2,
      "note": 72,
      "start": 9.3317,
      "duration": 0.0028,
      "velocity": 102,
      "chip": "ym2612"
    },
    {
      "channel": 3,
      "note": 65,
      "start": 9.3322,
      "duration": 0.0015,
      "velocity": 97,
      "chip": "ym2612"
    },
    {
      "channel": 4,
      "note": 75,
      "start": 9.3326,
      "duration": 0.0025,
      "velocity": 102,
      "chip": "ym2612"
    },
    {
      "channel": 0,
      "note": 92,
      "start": 9.3331,
      "duration": 0.0011,
      "velocity": 127,
      "chip": "ym2612"
    },
    {
      "channel": 1,
      "note": 53,
      "start": 9.3335,
      "duration": 0.1003,
      "velocity": 88,
      "chip": "ym2612"
    },
    {
      "channel": 3,
      "note": 53,
      "start": 9.3339,
      "duration": 0.1009,
      "velocity": 97,
      "chip": "ym2612"
    },
    {
      "channel": 0,
      "note": 92,
      "start": 9.3344,
      "duration": 0.049,
      "velocity": 127,
      "chip": "ym2612"
    },
    {
      "channel": 2,
      "note": 70,
      "start": 9.3349,
      "duration": 0.0994,
      "velocity": 102,
      "chip": "ym2612"
    },
    {
      "channel": 4,
      "note": 74,
      "start": 9.3355,
      "duration": 0.0999,
      "velocity": 102,
      "chip": "ym2612"
    },
    {
      "channel": 0,
      "note": 92,
      "start": 9.4337,
      "duration": 0.0027,
      "velocity": 127,
      "chip": "ym2612"
    },
    {
      "channel": 1,
      "note": 65,
      "start": 9.4342,
      "duration": 0.0034,
      "velocity": 88,
      "chip": "ym2612"
    },
    {
      "channel": 2,
      "note": 68,
      "start": 9.4347,
      "duration": 0.0034,
      "velocity": 102,
      "chip": "ym2612"
    },
    {
      "channel": 3,
      "note": 65,
      "start": 9.4352,
      "duration": 0.0034,
      "velocity": 97,
      "chip": "ym2612"
    },
    {
      "channel": 4,
      "note": 72,
      "start": 9.4357,
      "duration": 0.0033,
      "velocity": 102,
      "chip": "ym2612"
    },
    {
      "channel": 0,
      "note": 111,
      "start": 9.4376,
      "duration": 0.0038,
      "velocity": 127,
      "chip": "ym2612"
    },
    {
      "channel": 1,
      "note": 53,
      "start": 9.438,
      "duration": 0.0024,
      "velocity": 88,
      "chip": "ym2612"
    },
    {
      "channel": 2,
      "note": 70,
      "start": 9.4384,
      "duration": 0.0049,
      "velocity": 102,
      "chip": "ym2612"
    },
    {
      "channel": 3,
      "note": 53,
      "start": 9.4388,
      "duration": 0.0019,
      "velocity": 97,
      "chip": "ym2612"
    },
    {
      "channel": 4,
      "note": 74,
      "start": 9.4394,
      "duration": 0.0047,
      "velocity": 102,
      "chip": "ym2612"
    },
    {
      "channel": 1,
      "note": 60,
      "start": 9.4407,
      "duration": 0.0021,
      "velocity": 88,
      "chip": "ym2612"
    },
    {
      "channel": 3,
      "note": 60,
      "start": 9.441,
      "duration": 0.0027,
      "velocity": 97,
      "chip": "ym2612"
    },
    {
      "channel": 0,
      "note": 92,
      "start": 9.4428,
      "duration": 0.0018,
      "velocity": 127,
      "chip": "ym2612"
    },
    {
      "channel": 1,
      "note": 56,
      "start": 9.4432,
      "duration": 0.0018,
      "velocity": 88,
      "chip": "ym2612"
    },
    {
      "channel": 2,
      "note": 68,
      "start": 9.4436,
      "duration": 0.0019,
      "velocity": 102,
      "chip": "ym2612"
    },
    {
      "channel": 3,
      "note": 56,
      "start": 9.444,
      "duration": 0.0019,
      "velocity": 97,
      "chip": "ym2612"
    },
    {
      "channel": 4,
      "note": 72,
      "start": 9.4443,
      "duration": 0.002,
      "velocity": 102,
      "chip": "ym2612"
    },
    {
      "channel": 0,
      "note": 92,
      "start": 9.4449,
      "duration": 0.0019,
      "velocity": 127,
      "chip": "ym2612"
    },
    {
      "channel": 1,
      "note": 65,
      "start": 9.4454,
      "duration": 0.002,
      "velocity": 88,
      "chip": "ym2612"
    },
    {
      "channel": 2,
      "note": 67,
      "start": 9.4457,
      "duration": 0.0017,
      "velocity": 102,
      "chip": "ym2612"
    },
    {
      "channel": 3,
      "note": 65,
      "start": 9.4462,
      "duration": 0.0017,
      "velocity": 97,
      "chip": "ym2612"
    },
    {
      "channel": 4,
      "note": 70,
      "start": 9.4465,
      "duration": 0.0015,
      "velocity": 102,
      "chip": "ym2612"
    },
    {
      "channel": 0,
      "note": 92,
      "start": 9.4473,
      "duration": 0.0014,
      "velocity": 127,
      "chip": "ym2612"
    },
    {
      "channel": 2,
      "note": 68,
      "start": 9.4478,
      "duration": 0.0026,
      "velocity": 102,
      "chip": "ym2612"
    },
    {
      "channel": 4,
      "note": 72,
      "start": 9.4483,
      "duration": 0.0028,
      "velocity": 102,
      "chip": "ym2612"
    },
    {
      "channel": 0,
      "note": 92,
      "start": 9.4489,
      "duration": 0.0005,
      "velocity": 127,
      "chip": "ym2612"
    },
    {
      "channel": 1,
      "note": 65,
      "start": 9.4491,
      "duration": 0.0008,
      "velocity": 88,
      "chip": "ym2612"
    },
    {
      "channel": 3,
      "note": 65,
      "start": 9.4491,
      "duration": 0.0016,
      "velocity": 97,
      "chip": "ym2612"
    },
    {
      "channel": 0,
      "note": 92,
      "start": 9.4498,
      "duration": 0.0489,
      "velocity": 127,
      "chip": "ym2612"
    },
    {
      "channel": 1,
      "note": 60,
      "start": 9.4502,
      "duration": 0.0989,
      "velocity": 88,
      "chip": "ym2612"
    },
    {
      "channel": 2,
      "note": 67,
      "start": 9.4506,
      "duration": 0.0991,
      "velocity": 102,
      "chip": "ym2612"
    },
    {
      "channel": 3,
      "note": 60,
      "start": 9.4511,
      "duration": 0.0991,
      "velocity": 97,
      "chip": "ym2612"
    },
    {
      "channel": 4,
      "note": 70,
      "start": 9.4514,
      "duration": 0.0993,
      "velocity": 102,
      "chip": "ym2612"
    },
    {
      "channel": 0,
      "note": 92,
      "start": 9.5491,
      "duration": 0.0056,
      "velocity": 127,
      "chip": "ym2612"
    },
    {
      "channel": 1,
      "note": 53,
      "start": 9.5496,
      "duration": 0.0065,
      "velocity": 88,
      "chip": "ym2612"
    },
    {
      "channel": 2,
      "note": 65,
      "start": 9.55,
      "duration": 0.0065,
      "velocity": 102,
      "chip": "ym2612"
    },
    {
      "channel": 3,
      "note": 53,
      "start": 9.5505,
      "duration": 0.0065,
      "velocity": 97,
      "chip": "ym2612"
    },
    {
      "channel": 4,
      "note": 68,
      "start": 9.551,
      "duration": 0.0064,
      "velocity": 102,
      "chip": "ym2612"
    },
    {
      "channel": 0,
      "note": 111,
      "start": 9.556,
      "duration": 0.0032,
      "velocity": 127,
      "chip": "ym2612"
    },
    {
      "channel": 1,
      "note": 56,
      "start": 9.5564,
      "duration": 0.0045,
      "velocity": 88,
      "chip": "ym2612"
    },
    {
      "channel": 2,
      "note": 67,
      "start": 9.5569,
      "duration": 0.0046,
      "velocity": 102,
      "chip": "ym2612"
    },
    {
      "channel": 3,
      "note": 56,
      "start": 9.5573,
      "duration": 0.0046,
      "velocity": 97,
      "chip": "ym2612"
    },
    {
      "channel": 4,
      "note": 70,
      "start": 9.5578,
      "duration": 0.0046,
      "velocity": 102,
      "chip": "ym2612"
    },
    {
      "channel": 0,
      "note": 92,
      "start": 9.5608,
      "duration": 0.0027,
      "velocity": 127,
      "chip": "ym2612"
    },
    {
      "channel": 1,
      "note": 58,
      "start": 9.5613,
      "duration": 0.007,
      "velocity": 88,
      "chip": "ym2612"
    },
    {
      "channel": 2,
      "note": 65,
      "start": 9.5618,
      "duration": 0.0026,
      "velocity": 102,
      "chip": "ym2612"
    },
    {
      "channel": 3,
      "note": 58,
      "start": 9.5623,
      "duration": 0.0066,
      "velocity": 97,
      "chip": "ym2612"
    },
    {
      "channel": 4,
      "note": 68,
      "start": 9.5628,
      "duration": 0.0021,
      "velocity": 102,
      "chip": "ym2612"
    },
    {
      "channel": 0,
      "note": 92,
      "start": 9.5642,
      "duration": 0.0019,
      "velocity": 127,
      "chip": "ym2612"
    },
    {
      "channel": 2,
      "note": 67,
      "start": 9.5647,
      "duration": 0.0037,
      "velocity": 102,
      "chip": "ym2612"
    },
    {
      "channel": 4,
      "note": 70,
      "start": 9.5653,
      "duration": 0.0038,
      "velocity": 102,
      "chip": "ym2612"
    },
    {
      "channel": 0,
      "note": 92,
      "start": 9.5682,
      "duration": 0.0022,
      "velocity": 127,
      "chip": "ym2612"
    },
    {
      "channel": 2,
      "note": 65,
      "start": 9.5688,
      "duration": 0.0405,
      "velocity": 102,
      "chip": "ym2612"
    },
    {
      "channel": 4,
      "note": 68,
      "start": 9.5695,
      "duration": 0.0407,
      "velocity": 102,
      "chip": "ym2612"
    },
    {
      "channel": 0,
      "note": 92,
      "start": 9.5715,
      "duration": 0.0017,
      "velocity": 127,
      "chip": "ym2612"
    },
    {
      "channel": 1,
      "note": 65,
      "start": 9.572,
      "duration": 0.0016,
      "velocity": 88,
      "chip": "ym2612"
    },
    {
      "channel": 3,
      "note": 65,
      "start": 9.5725,
      "duration": 0.0014,
      "velocity": 97,
      "chip": "ym2612"
    },
    {
      "channel": 0,
      "note": 92,
      "start": 9.5735,
      "duration": 0.0009,
      "velocity": 127,
      "chip": "ym2612"
    },
    {
      "channel": 1,
      "note": 63,
      "start": 9.5739,
      "duration": 0.0028,
      "velocity": 88,
      "chip": "ym2612"
    },
    {
      "channel": 3,
      "note": 63,
      "start": 9.5741,
      "duration": 0.0031,
      "velocity": 97,
      "chip": "ym2612"
    },
    {
      "channel": 0,
      "note": 92,
      "start": 9.5766,
      "duration": 0.0017,
      "velocity": 127,
      "chip": "ym2612"
    },
    {
      "channel": 1,
      "note": 60,
      "start": 9.5771,
      "duration": 0.0025,
      "velocity": 88,
      "chip": "ym2612"
    },
    {
      "channel": 3,
      "note": 60,
      "start": 9.5776,
      "duration": 0.0024,
      "velocity": 97,
      "chip": "ym2612"
    },
    {
      "channel": 0,
      "note": 111,
      "start": 9.5795,
      "duration": 0.0048,
      "velocity": 127,
      "chip": "ym2612"
    },
    {
      "channel": 1,
      "note": 63,
      "start": 9.5799,
      "duration": 0.0026,
      "velocity": 88,
      "chip": "ym2612"
    },
    {
      "channel": 3,
      "note": 63,
      "start": 9.5803,
      "duration": 0.0027,
      "velocity": 97,
      "chip": "ym2612"
    },
    {
      "channel": 1,
      "note": 60,
      "start": 9.5829,
      "duration": 0.0028,
      "velocity": 88,
      "chip": "ym2612"
    },
    {
      "channel": 3,
      "note": 60,
      "start": 9.5833,
      "duration": 0.0028,
      "velocity": 97,
      "chip": "ym2612"
    },
    {
      "channel": 0,
      "note": 92,
      "start": 9.5856,
      "duration": 0.0012,
      "velocity": 127,
      "chip": "ym2612"
    },
    {
      "channel": 1,
      "note": 56,
      "start": 9.586,
      "duration": 0.0012,
      "velocity": 88,
      "chip": "ym2612"
    },
    {
      "channel": 3,
      "note": 56,
      "start": 9.5865,
      "duration": 0.0013,
      "velocity": 97,
      "chip": "ym2612"
    },
    {
      "channel": 0,
      "note": 92,
      "start": 9.5871,
      "duration": 0.0016,
      "velocity": 127,
      "chip": "ym2612"
    },
    {
      "channel": 1,
      "note": 53,
      "start": 9.5876,
      "duration": 0.0017,
      "velocity": 88,
      "chip": "ym2612"
    },
    {
      "channel": 3,
      "note": 53,
      "start": 9.5882,
      "duration": 0.0015,
      "velocity": 97,
      "chip": "ym2612"
    },
    {
      "channel": 0,
      "note": 92,
      "start": 9.5893,
      "duration": 0.0015,
      "velocity": 127,
      "chip": "ym2612"
    },
    {
      "channel": 1,
      "note": 56,
      "start": 9.5896,
      "duration": 0.0014,
      "velocity": 88,
      "chip": "ym2612"
    },
    {
      "channel": 3,
      "note": 56,
      "start": 9.5899,
      "duration": 0.0014,
      "velocity": 97,
      "chip": "ym2612"
    },
    {
      "channel": 0,
      "note": 92,
      "start": 9.5909,
      "duration": 0.0026,
      "velocity": 127,
      "chip": "ym2612"
    },
    {
      "channel": 1,
      "note": 58,
      "start": 9.5913,
      "duration": 0.0026,
      "velocity": 88,
      "chip": "ym2612"
    },
    {
      "channel": 3,
      "note": 58,
      "start": 9.5915,
      "duration": 0.0029,
      "velocity": 97,
      "chip": "ym2612"
    },
    {
      "channel": 0,
      "note": 92,
      "start": 9.5938,
      "duration": 0.0011,
      "velocity": 127,
      "chip": "ym2612"
    },
    {
      "channel": 1,
      "note": 59,
      "start": 9.5943,
      "duration": 0.0025,
      "velocity": 88,
      "chip": "ym2612"
    },
    {
      "channel": 3,
      "note": 59,
      "start": 9.5947,
      "duration": 0.0027,
      "velocity": 97,
      "chip": "ym2612"
    },
    {
      "channel": 0,
      "note": 92,
      "start": 9.5967,
      "duration": 0.0011,
      "velocity": 127,
      "chip": "ym2612"
    },
    {
      "channel": 1,
      "note": 56,
      "start": 9.5971,
      "duration": 0.0021,
      "velocity": 88,
      "chip": "ym2612"
    },
    {
      "channel": 3,
      "note": 56,
      "start": 9.5976,
      "duration": 0.0021,
      "velocity": 97,
      "chip": "ym2612"
    },
    {
      "channel": 0,
      "note": 111,
      "start": 9.5992,
      "duration": 0.0043,
      "velocity": 127,
      "chip": "ym2612"
    },
    {
      "channel": 1,
      "note": 59,
      "start": 9.5995,
      "duration": 0.0008,
      "velocity": 88,
      "chip": "ym2612"
    },
    {
      "channel": 3,
      "note": 59,
      "start": 9.6,
      "duration": 0.0007,
      "velocity": 97,
      "chip": "ym2612"
    },
    {
      "channel": 1,
      "note": 60,
      "start": 9.6005,
      "duration": 0.0041,
      "velocity": 88,
      "chip": "ym2612"
    },
    {
      "channel": 3,
      "note": 60,
      "start": 9.6008,
      "duration": 0.0042,
      "velocity": 97,
      "chip": "ym2612"
    },
    {
      "channel": 0,
      "note": 92,
      "start": 9.6045,
      "duration": 0.0011,
      "velocity": 127,
      "chip": "ym2612"
    },
    {
      "channel": 1,
      "note": 51,
      "start": 9.605,
      "duration": 0.0023,
      "velocity": 88,
      "chip": "ym2612"
    },
    {
      "channel": 3,
      "note": 51,
      "start": 9.6054,
      "duration": 0.0022,
      "velocity": 97,
      "chip": "ym2612"
    },
    {
      "channel": 0,
      "note": 92,
      "start": 9.6072,
      "duration": 0.0011,
      "velocity": 127,
      "chip": "ym2612"
    },
    {
      "channel": 1,
      "note": 52,
      "start": 9.6075,
      "duration": 0.0015,
      "velocity": 88,
      "chip": "ym2612"
    },
    {
      "channel": 3,
      "note": 52,
      "start": 9.608,
      "duration": 0.0015,
      "velocity": 97,
      "chip": "ym2612"
    },
    {
      "channel": 0,
      "note": 92,
      "start": 9.609,
      "duration": 0.005,
      "velocity": 127,
      "chip": "ym2612"
    },
    {
      "channel": 1,
      "note": 53,
      "start": 9.6093,
      "duration": 0.0058,
      "velocity": 88,
      "chip": "ym2612"
    },
    {
      "channel": 3,
      "note": 53,
      "start": 9.6101,
      "duration": 0.0055,
      "velocity": 97,
      "chip": "ym2612"
    },
    {
      "channel": 0,
      "note": 92,
      "start": 9.6143,
      "duration": 0.0003,
      "velocity": 127,
      "chip": "ym2612"
    },
    {
      "channel": 0,
      "note": 92,
      "start": 9.615,
      "duration": 0.0487,
      "velocity": 127,
      "chip": "ym2612"
    },
    {
      "channel": 1,
      "note": 53,
      "start": 9.6152,
      "duration": 0.1049,
      "velocity": 88,
      "chip": "ym2612"
    },
    {
      "channel": 2,
      "note": 72,
      "start": 9.6155,
      "duration": 0.0987,
      "velocity": 102,
      "chip": "ym2612"
    },
    {
      "channel": 3,
      "note": 53,
      "start": 9.6157,
      "duration": 0.1054,
      "velocity": 97,
      "chip": "ym2612"
    },
    {
      "channel": 4,
      "note": 72,
      "start": 9.6161,
      "duration": 0.0987,
      "velocity": 102,
      "chip": "ym2612"
    },
    {
      "channel": 0,
      "note": 92,
      "start": 9.7141,
      "duration": 0.0046,
      "velocity": 127,
      "chip": "ym2612"
    },
    {
      "channel": 2,
      "note": 75,
      "start": 9.7146,
      "duration": 0.006,
      "velocity": 102,
      "chip": "ym2612"
    },
    {
      "channel": 4,
      "note": 75,
      "start": 9.715,
      "duration": 0.0065,
      "velocity": 102,
      "chip": "ym2612"
    },
    {
      "channel": 0,
      "note": 111,
      "start": 9.72,
      "duration": 0.0039,
      "velocity": 127,
      "chip": "ym2612"
    },
    {
      "channel": 1,
      "note": 53,
      "start": 9.7205,
      "duration": 0.0024,
      "velocity": 88,
      "chip": "ym2612"
    },
    {
      "channel": 2,
      "note": 77,
      "start": 9.721,
      "duration": 0.0048,
      "velocity": 102,
      "chip": "ym2612"
    },
    {
      "channel": 3,
      "note": 53,
      "start": 9.7214,
      "duration": 0.0018,
      "velocity": 97,
      "chip": "ym2612"
    },
    {
      "channel": 4,
      "note": 77,
      "start": 9.7219,
      "duration": 0.0046,
      "velocity": 102,
      "chip": "ym2612"
    },
    {
      "channel": 1,
      "note": 60,
      "start": 9.7232,
      "duration": 0.0021,
      "velocity": 88,
      "chip": "ym2612"
    },
    {
      "channel": 3,
      "note": 60,
      "start": 9.7234,
      "duration": 0.0027,
      "velocity": 97,
      "chip": "ym2612"
    },
    {
      "channel": 0,
      "note": 92,
      "start": 9.7252,
      "duration": 0.0018,
      "velocity": 127,
      "chip": "ym2612"
    },
    {
      "channel": 1,
      "note": 56,
      "start": 9.7256,
      "duration": 0.0018,
      "velocity": 88,
      "chip": "ym2612"
    },
    {
      "channel": 2,
      "note": 75,
      "start": 9.7261,
      "duration": 0.0019,
      "velocity": 102,
      "chip": "ym2612"
    },
    {
      "channel": 3,
      "note": 56,
      "start": 9.7264,
      "duration": 0.0019,
      "velocity": 97,
      "chip": "ym2612"
    },
    {
      "channel": 4,
      "note": 75,
      "start": 9.7267,
      "duration": 0.002,
      "velocity": 102,
      "chip": "ym2612"
    },
    {
      "channel": 0,
      "note": 92,
      "start": 9.7273,
      "duration": 0.0021,
      "velocity": 127,
      "chip": "ym2612"
    },
    {
      "channel": 1,
      "note": 65,
      "start": 9.7278,
      "duration": 0.0022,
      "velocity": 88,
      "chip": "ym2612"
    },
    {
      "channel": 2,
      "note": 77,
      "start": 9.7283,
      "duration": 0.0019,
      "velocity": 102,
      "chip": "ym2612"
    },
    {
      "channel": 3,
      "note": 65,
      "start": 9.7285,
      "duration": 0.0018,
      "velocity": 97,
      "chip": "ym2612"
    },
    {
      "channel": 4,
      "note": 77,
      "start": 9.729,
      "duration": 0.0014,
      "velocity": 102,
      "chip": "ym2612"
    },
    {
      "channel": 0,
      "note": 92,
      "start": 9.73,
      "duration": 0.0008,
      "velocity": 127,
      "chip": "ym2612"
    },
    {
      "channel": 0,
      "note": 92,
      "start": 9.731,
      "duration": 0.0008,
      "velocity": 127,
      "chip": "ym2612"
    },
    {
      "channel": 1,
      "note": 65,
      "start": 9.7312,
      "duration": 0.0009,
      "velocity": 88,
      "chip": "ym2612"
    },
    {
      "channel": 2,
      "note": 77,
      "start": 9.7313,
      "duration": 0.0013,
      "velocity": 102,
      "chip": "ym2612"
    },
    {
      "channel": 3,
      "note": 65,
      "start": 9.7314,
      "duration": 0.0015,
      "velocity": 97,
      "chip": "ym2612"
    },
    {
      "channel": 4,
      "note": 77,
      "start": 9.7316,
      "duration": 0.0017,
      "velocity": 102,
      "chip": "ym2612"
    },
    {
      "channel": 0,
      "note": 92,
      "start": 9.732,
      "duration": 0.0493,
      "velocity": 127,
      "chip": "ym2612"
    },
    {
      "channel": 1,
      "note": 60,
      "start": 9.7324,
      "duration": 0.0994,
      "velocity": 88,
      "chip": "ym2612"
    },
    {
      "channel": 2,
      "note": 75,
      "start": 9.7327,
      "duration": 0.0997,
      "velocity": 102,
      "chip": "ym2612"
    },
    {
      "channel": 3,
      "note": 60,
      "start": 9.7332,
      "duration": 0.0997,
      "velocity": 97,
      "chip": "ym2612"
    },
    {
      "channel": 4,
      "note": 75,
      "start": 9.7337,
      "duration": 0.0997,
      "velocity": 102,
      "chip": "ym2612"
    },
    {
      "channel": 0,
      "note": 92,
      "start": 9.8318,
      "duration": 0.0056,
      "velocity": 127,
      "chip": "ym2612"
    },
    {
      "channel": 1,
      "note": 53,
      "start": 9.8323,
      "duration": 0.0065,
      "velocity": 88,
      "chip": "ym2612"
    },
    {
      "channel": 2,
      "note": 77,
      "start": 9.8327,
      "duration": 0.0065,
      "velocity": 102,
      "chip": "ym2612"
    },
    {
      "channel": 3,
      "note": 53,
      "start": 9.8332,
      "duration": 0.0063,
      "velocity": 97,
      "chip": "ym2612"
    },
    {
      "channel": 4,
      "note": 77,
      "start": 9.8337,
      "duration": 0.0062,
      "velocity": 102,
      "chip": "ym2612"
    },
    {
      "channel": 0,
      "note": 111,
      "start": 9.8387,
      "duration": 0.0066,
      "velocity": 127,
      "chip": "ym2612"
    },
    {
      "channel": 1,
      "note": 56,
      "start": 9.8391,
      "duration": 0.0075,
      "velocity": 88,
      "chip": "ym2612"
    },
    {
      "channel": 2,
      "note": 77,
      "start": 9.8394,
      "duration": 0.0074,
      "velocity": 102,
      "chip": "ym2612"
    },
    {
      "channel": 3,
      "note": 56,
      "start": 9.8398,
      "duration": 0.0074,
      "velocity": 97,
      "chip": "ym2612"
    },
    {
      "channel": 4,
      "note": 77,
      "start": 9.8403,
      "duration": 0.0073,
      "velocity": 102,
      "chip": "ym2612"
    },
    {
      "channel": 0,
      "note": 92,
      "start": 9.8464,
      "duration": 0.0018,
      "velocity": 127,
      "chip": "ym2612"
    },
    {
      "channel": 1,
      "note": 58,
      "start": 9.8467,
      "duration": 0.0032,
      "velocity": 88,
      "chip": "ym2612"
    },
    {
      "channel": 2,
      "note": 79,
      "start": 9.8472,
      "duration": 0.0015,
      "velocity": 102,
      "chip": "ym2612"
    },
    {
      "channel": 3,
      "note": 58,
      "start": 9.8476,
      "duration": 0.0028,
      "velocity": 97,
      "chip": "ym2612"
    },
    {
      "channel": 4,
      "note": 79,
      "start": 9.8479,
      "duration": 0.0009,
      "velocity": 102,
      "chip": "ym2612"
    },
    {
      "channel": 0,
      "note": 92,
      "start": 9.8485,
      "duration": 0.0005,
      "velocity": 127,
      "chip": "ym2612"
    },
    {
      "channel": 0,
      "note": 92,
      "start": 9.8498,
      "duration": 0.0011,
      "velocity": 127,
      "chip": "ym2612"
    },
    {
      "channel": 1,
      "note": 53,
      "start": 9.8503,
      "duration": 0.0024,
      "velocity": 88,
      "chip": "ym2612"
    },
    {
      "channel": 3,
      "note": 53,
      "start": 9.8506,
      "duration": 0.0027,
      "velocity": 97,
      "chip": "ym2612"
    },
    {
      "channel": 0,
      "note": 92,
      "start": 9.8512,
      "duration": 0.001,
      "velocity": 127,
      "chip": "ym2612"
    },
    {
      "channel": 2,
      "note": 84,
      "start": 9.8516,
      "duration": 0.0013,
      "velocity": 102,
      "chip": "ym2612"
    },
    {
      "channel": 4,
      "note": 84,
      "start": 9.852,
      "duration": 0.0015,
      "velocity": 102,
      "chip": "ym2612"
    },
    {
      "channel": 0,
      "note": 92,
      "start": 9.8526,
      "duration": 0.0483,
      "velocity": 127,
      "chip": "ym2612"
    },
    {
      "channel": 1,
      "note": 53,
      "start": 9.8528,
      "duration": 0.0986,
      "velocity": 88,
      "chip": "ym2612"
    },
    {
      "channel": 2,
      "note": 82,
      "start": 9.8532,
      "duration": 0.0988,
      "velocity": 102,
      "chip": "ym2612"
    },
    {
      "channel": 3,
      "note": 53,
      "start": 9.8534,
      "duration": 0.099,
      "velocity": 97,
      "chip": "ym2612"
    },
    {
      "channel": 4,
      "note": 82,
      "start": 9.8537,
      "duration": 0.0992,
      "velocity": 102,
      "chip": "ym2612"
    },
    {
      "channel": 0,
      "note": 92,
      "start": 9.9513,
      "duration": 0.0027,
      "velocity": 127,
      "chip": "ym2612"
    },
    {
      "channel": 1,
      "note": 65,
      "start": 9.9518,
      "duration": 0.0036,
      "velocity": 88,
      "chip": "ym2612"
    },
    {
      "channel": 2,
      "note": 80,
      "start": 9.9522,
      "duration": 0.0035,
      "velocity": 102,
      "chip": "ym2612"
    },
    {
      "channel": 3,
      "note": 65,
      "start": 9.9527,
      "duration": 0.0032,
      "velocity": 97,
      "chip": "ym2612"
    },
    {
      "channel": 4,
      "note": 80,
      "start": 9.9533,
      "duration": 0.003,
      "velocity": 102,
      "chip": "ym2612"
    },
    {
      "channel": 0,
      "note": 111,
      "start": 9.9553,
      "duration": 0.0038,
      "velocity": 127,
      "chip": "ym2612"
    },
    {
      "channel": 1,
      "note": 53,
      "start": 9.9556,
      "duration": 0.0018,
      "velocity": 88,
      "chip": "ym2612"
    },
    {
      "channel": 3,
      "note": 53,
      "start": 9.9562,
      "duration": 0.0018,
      "velocity": 97,
      "chip": "ym2612"
    },
    {
      "channel": 1,
      "note": 56,
      "start": 9.9577,
      "duration": 0.0027,
      "velocity": 88,
      "chip": "ym2612"
    },
    {
      "channel": 2,
      "note": 82,
      "start": 9.9578,
      "duration": 0.0031,
      "velocity": 102,
      "chip": "ym2612"
    },
    {
      "channel": 3,
      "note": 56,
      "start": 9.9583,
      "duration": 0.003,
      "velocity": 97,
      "chip": "ym2612"
    },
    {
      "channel": 4,
      "note": 82,
      "start": 9.9586,
      "duration": 0.003,
      "velocity": 102,
      "chip": "ym2612"
    },
    {
      "channel": 0,
      "note": 92,
      "start": 9.9603,
      "duration": 0.0019,
      "velocity": 127,
      "chip": "ym2612"
    },
    {
      "channel": 1,
      "note": 60,
      "start": 9.9608,
      "duration": 0.0018,
      "velocity": 88,
      "chip": "ym2612"
    },
    {
      "channel": 2,
      "note": 80,
      "start": 9.9612,
      "duration": 0.0019,
      "velocity": 102,
      "chip": "ym2612"
    },
    {
      "channel": 3,
      "note": 60,
      "start": 9.9615,
      "duration": 0.002,
      "velocity": 97,
      "chip": "ym2612"
    },
    {
      "channel": 4,
      "note": 80,
      "start": 9.9619,
      "duration": 0.0019,
      "velocity": 102,
      "chip": "ym2612"
    },
    {
      "channel": 0,
      "note": 92,
      "start": 9.9625,
      "duration": 0.0017,
      "velocity": 127,
      "chip": "ym2612"
    },
    {
      "channel": 1,
      "note": 65,
      "start": 9.963,
      "duration": 0.0021,
      "velocity": 88,
      "chip": "ym2612"
    },
    {
      "channel": 2,
      "note": 79,
      "start": 9.9634,
      "duration": 0.0017,
      "velocity": 102,
      "chip": "ym2612"
    },
    {
      "channel": 3,
      "note": 65,
      "start": 9.9637,
      "duration": 0.0015,
      "velocity": 97,
      "chip": "ym2612"
    },
    {
      "channel": 4,
      "note": 79,
      "start": 9.9641,
      "duration": 0.0012,
      "velocity": 102,
      "chip": "ym2612"
    },
    {
      "channel": 0,
      "note": 92,
      "start": 9.9649,
      "duration": 0.0006,
      "velocity": 127,
      "chip": "ym2612"
    },
    {
      "channel": 0,
      "note": 92,
      "start": 9.9658,
      "duration": 0.001,
      "velocity": 127,
      "chip": "ym2612"
    },
    {
      "channel": 1,
      "note": 65,
      "start": 9.966,
      "duration": 0.0012,
      "velocity": 88,
      "chip": "ym2612"
    },
    {
      "channel": 2,
      "note": 80,
      "start": 9.9663,
      "duration": 0.0012,
      "velocity": 102,
      "chip": "ym2612"
    },
    {
      "channel": 3,
      "note": 65,
      "start": 9.9663,
      "duration": 0.0015,
      "velocity": 97,
      "chip": "ym2612"
    },
    {
      "channel": 4,
      "note": 80,
      "start": 9.9665,
      "duration": 0.0017,
      "velocity": 102,
      "chip": "ym2612"
    },
    {
      "channel": 0,
      "note": 92,
      "start": 9.967,
      "duration": 0.0484,
      "velocity": 127,
      "chip": "ym2612"
    },
    {
      "channel": 1,
      "note": 60,
      "start": 9.9674,
      "duration": 0.0985,
      "velocity": 88,
      "chip": "ym2612"
    },
    {
      "channel": 2,
      "note": 79,
      "start": 9.9678,
      "duration": 0.0987,
      "velocity": 102,
      "chip": "ym2612"
    },
    {
      "channel": 3,
      "note": 60,
      "start": 9.9681,
      "duration": 0.0988,
      "velocity": 97,
      "chip": "ym2612"
    },
    {
      "channel": 4,
      "note": 79,
      "start": 9.9685,
      "duration": 0.0989,
      "velocity": 102,
      "chip": "ym2612"
    },
    {
      "channel": 0,
      "note": 92,
      "start": 10.0658,
      "duration": 0.0027,
      "velocity": 127,
      "chip": "ym2612"
    },
    {
      "channel": 1,
      "note": 53,
      "start": 10.0663,
      "duration": 0.0036,
      "velocity": 88,
      "chip": "ym2612"
    },
    {
      "channel": 2,
      "note": 77,
      "start": 10.0668,
      "duration": 0.0036,
      "velocity": 102,
      "chip": "ym2612"
    },
    {
      "channel": 3,
      "note": 53,
      "start": 10.0673,
      "duration": 0.0032,
      "velocity": 97,
      "chip": "ym2612"
    },
    {
      "channel": 4,
      "note": 77,
      "start": 10.0678,
      "duration": 0.0029,
      "velocity": 102,
      "chip": "ym2612"
    },
    {
      "channel": 0,
      "note": 111,
      "start": 10.0698,
      "duration": 0.0045,
      "velocity": 127,
      "chip": "ym2612"
    },
    {
      "channel": 1,
      "note": 51,
      "start": 10.0703,
      "duration": 0.0055,
      "velocity": 88,
      "chip": "ym2612"
    },
    {
      "channel": 3,
      "note": 51,
      "start": 10.0707,
      "duration": 0.0058,
      "velocity": 97,
      "chip": "ym2612"
    },
    {
      "channel": 2,
      "note": 79,
      "start": 10.0729,
      "duration": 0.0033,
      "velocity": 102,
      "chip": "ym2612"
    },
    {
      "channel": 4,
      "note": 79,
      "start": 10.0734,
      "duration": 0.0035,
      "velocity": 102,
      "chip": "ym2612"
    },
    {
      "channel": 0,
      "note": 92,
      "start": 10.0757,
      "duration": 0.0019,
      "velocity": 127,
      "chip": "ym2612"
    },
    {
      "channel": 1,
      "note": 52,
      "start": 10.0761,
      "duration": 0.0048,
      "velocity": 88,
      "chip": "ym2612"
    },
    {
      "channel": 2,
      "note": 77,
      "start": 10.0763,
      "duration": 0.0021,
      "velocity": 102,
      "chip": "ym2612"
    },
    {
      "channel": 3,
      "note": 52,
      "start": 10.0768,
      "duration": 0.0047,
      "velocity": 97,
      "chip": "ym2612"
    },
    {
      "channel": 4,
      "note": 77,
      "start": 10.0771,
      "duration": 0.002,
      "velocity": 102,
      "chip": "ym2612"
    },
    {
      "channel": 0,
      "note": 92,
      "start": 10.0784,
      "duration": 0.0018,
      "velocity": 127,
      "chip": "ym2612"
    },
    {
      "channel": 2,
      "note": 76,
      "start": 10.0789,
      "duration": 0.0026,
      "velocity": 102,
      "chip": "ym2612"
    },
    {
      "channel": 4,
      "note": 76,
      "start": 10.0794,
      "duration": 0.0025,
      "velocity": 102,
      "chip": "ym2612"
    },
    {
      "channel": 0,
      "note": 92,
      "start": 10.0809,
      "duration": 0.0043,
      "velocity": 127,
      "chip": "ym2612"
    },
    {
      "channel": 1,
      "note": 53,
      "start": 10.0813,
      "duration": 0.0048,
      "velocity": 88,
      "chip": "ym2612"
    },
    {
      "channel": 3,
      "note": 53,
      "start": 10.0818,
      "duration": 0.0048,
      "velocity": 97,
      "chip": "ym2612"
    },
    {
      "channel": 0,
      "note": 92,
      "start": 10.0854,
      "duration": 0.0003,
      "velocity": 127,
      "chip": "ym2612"
    },
    {
      "channel": 0,
      "note": 92,
      "start": 10.086,
      "duration": 0.0483,
      "velocity": 127,
      "chip": "ym2612"
    },
    {
      "channel": 1,
      "note": 65,
      "start": 10.0863,
      "duration": 0.0984,
      "velocity": 88,
      "chip": "ym2612"
    },
    {
      "channel": 2,
      "note": 72,
      "start": 10.0866,
      "duration": 0.0987,
      "velocity": 102,
      "chip": "ym2612"
    },
    {
      "channel": 3,
      "note": 65,
      "start": 10.0869,
      "duration": 0.0988,
      "velocity": 97,
      "chip": "ym2612"
    },
    {
      "channel": 4,
      "note": 65,
      "start": 10.0872,
      "duration": 0.099,
      "velocity": 102,
      "chip": "ym2612"
    },
    {
      "channel": 0,
      "note": 92,
      "start": 10.1846,
      "duration": 0.0027,
      "velocity": 127,
      "chip": "ym2612"
    },
    {
      "channel": 1,
      "note": 53,
      "start": 10.1851,
      "duration": 0.0036,
      "velocity": 88,
      "chip": "ym2612"
    },
    {
      "channel": 2,
      "note": 75,
      "start": 10.1856,
      "duration": 0.0034,
      "velocity": 102,
      "chip": "ym2612"
    },
    {
      "channel": 3,
      "note": 53,
      "start": 10.1861,
      "duration": 0.0034,
      "velocity": 97,
      "chip": "ym2612"
    },
    {
      "channel": 4,
      "note": 68,
      "start": 10.1866,
      "duration": 0.003,
      "velocity": 102,
      "chip": "ym2612"
    },
    {
      "channel": 0,
      "note": 111,
      "start": 10.1887,
      "duration": 0.0037,
      "velocity": 127,
      "chip": "ym2612"
    },
    {
      "channel": 1,
      "note": 53,
      "start": 10.1889,
      "duration": 0.0023,
      "velocity": 88,
      "chip": "ym2612"
    },
    {
      "channel": 2,
      "note": 77,
      "start": 10.1893,
      "duration": 0.0045,
      "velocity": 102,
      "chip": "ym2612"
    },
    {
      "channel": 3,
      "note": 53,
      "start": 10.1895,
      "duration": 0.002,
      "velocity": 97,
      "chip": "ym2612"
    },
    {
      "channel": 4,
      "note": 70,
      "start": 10.19,
      "duration": 0.0046,
      "velocity": 102,
      "chip": "ym2612"
    },
    {
      "channel": 1,
      "note": 60,
      "start": 10.1915,
      "duration": 0.0021,
      "velocity": 88,
      "chip": "ym2612"
    },
    {
      "channel": 3,
      "note": 60,
      "start": 10.1918,
      "duration": 0.0024,
      "velocity": 97,
      "chip": "ym2612"
    },
    {
      "channel": 0,
      "note": 92,
      "start": 10.1934,
      "duration": 0.0019,
      "velocity": 127,
      "chip": "ym2612"
    },
    {
      "channel": 1,
      "note": 56,
      "start": 10.1937,
      "duration": 0.002,
      "velocity": 88,
      "chip": "ym2612"
    },
    {
      "channel": 2,
      "note": 75,
      "start": 10.1942,
      "duration": 0.0021,
      "velocity": 102,
      "chip": "ym2612"
    },
    {
      "channel": 3,
      "note": 56,
      "start": 10.1946,
      "duration": 0.002,
      "velocity": 97,
      "chip": "ym2612"
    },
    {
      "channel": 4,
      "note": 68,
      "start": 10.1949,
      "duration": 0.002,
      "velocity": 102,
      "chip": "ym2612"
    },
    {
      "channel": 0,
      "note": 92,
      "start": 10.1956,
      "duration": 0.0021,
      "velocity": 127,
      "chip": "ym2612"
    },
    {
      "channel": 1,
      "note": 65,
      "start": 10.1961,
      "duration": 0.0022,
      "velocity": 88,
      "chip": "ym2612"
    },
    {
      "channel": 2,
      "note": 77,
      "start": 10.1966,
      "duration": 0.0019,
      "velocity": 102,
      "chip": "ym2612"
    },
    {
      "channel": 3,
      "note": 65,
      "start": 10.1968,
      "duration": 0.0017,
      "velocity": 97,
      "chip": "ym2612"
    },
    {
      "channel": 4,
      "note": 70,
      "start": 10.1973,
      "duration": 0.0014,
      "velocity": 102,
      "chip": "ym2612"
    },
    {
      "channel": 0,
      "note": 92,
      "start": 10.1983,
      "duration": 0.0007,
      "velocity": 127,
      "chip": "ym2612"
    },
    {
      "channel": 0,
      "note": 92,
      "start": 10.1993,
      "duration": 0.0008,
      "velocity": 127,
      "chip": "ym2612"
    },
    {
      "channel": 1,
      "note": 65,
      "start": 10.1994,
      "duration": 0.0009,
      "velocity": 88,
      "chip": "ym2612"
    },
    {
      "channel": 2,
      "note": 77,
      "start": 10.1995,
      "duration": 0.0013,
      "velocity": 102,
      "chip": "ym2612"
    },
    {
      "channel": 3,
      "note": 65,
      "start": 10.1996,
      "duration": 0.0015,
      "velocity": 97,
      "chip": "ym2612"
    },
    {
      "channel": 4,
      "note": 70,
      "start": 10.1998,
      "duration": 0.0017,
      "velocity": 102,
      "chip": "ym2612"
    },
    {
      "channel": 0,
      "note": 92,
      "start": 10.2003,
      "duration": 0.0493,
      "velocity": 127,
      "chip": "ym2612"
    },
    {
      "channel": 1,
      "note": 60,
      "start": 10.2006,
      "duration": 0.0994,
      "velocity": 88,
      "chip": "ym2612"
    },
    {
      "channel": 2,
      "note": 75,
      "start": 10.201,
      "duration": 0.0997,
      "velocity": 102,
      "chip": "ym2612"
    },
    {
      "channel": 3,
      "note": 60,
      "start": 10.2014,
      "duration": 0.0997,
      "velocity": 97,
      "chip": "ym2612"
    },
    {
      "channel": 4,
      "note": 68,
      "start": 10.2019,
      "duration": 0.0997,
      "velocity": 102,
      "chip": "ym2612"
    },
    {
      "channel": 0,
      "note": 92,
      "start": 10.3,
      "duration": 0.0056,
      "velocity": 127,
      "chip": "ym2612"
    },
    {
      "channel": 1,
      "note": 53,
      "start": 10.3005,
      "duration": 0.0065,
      "velocity": 88,
      "chip": "ym2612"
    },
    {
      "channel": 2,
      "note": 77,
      "start": 10.301,
      "duration": 0.0065,
      "velocity": 102,
      "chip": "ym2612"
    },
    {
      "channel": 3,
      "note": 53,
      "start": 10.3015,
      "duration": 0.0063,
      "velocity": 97,
      "chip": "ym2612"
    },
    {
      "channel": 4,
      "note": 70,
      "start": 10.302,
      "duration": 0.0063,
      "velocity": 102,
      "chip": "ym2612"
    },
    {
      "channel": 0,
      "note": 111,
      "start": 10.3069,
      "duration": 0.0038,
      "velocity": 127,
      "chip": "ym2612"
    },
    {
      "channel": 1,
      "note": 56,
      "start": 10.3073,
      "duration": 0.0024,
      "velocity": 88,
      "chip": "ym2612"
    },
    {
      "channel": 2,
      "note": 80,
      "start": 10.3077,
      "duration": 0.0051,
      "velocity": 102,
      "chip": "ym2612"
    },
    {
      "channel": 3,
      "note": 56,
      "start": 10.3082,
      "duration": 0.0019,
      "velocity": 97,
      "chip": "ym2612"
    },
    {
      "channel": 4,
      "note": 73,
      "start": 10.3087,
      "duration": 0.0052,
      "velocity": 102,
      "chip": "ym2612"
    },
    {
      "channel": 1,
      "note": 68,
      "start": 10.31,
      "duration": 0.0023,
      "velocity": 88,
      "chip": "ym2612"
    },
    {
      "channel": 3,
      "note": 68,
      "start": 10.3103,
      "duration": 0.0032,
      "velocity": 97,
      "chip": "ym2612"
    },
    {
      "channel": 0,
      "note": 92,
      "start": 10.3122,
      "duration": 0.0029,
      "velocity": 127,
      "chip": "ym2612"
    },
    {
      "channel": 1,
      "note": 58,
      "start": 10.3128,
      "duration": 0.0028,
      "velocity": 88,
      "chip": "ym2612"
    },
    {
      "channel": 2,
      "note": 82,
      "start": 10.3133,
      "duration": 0.0029,
      "velocity": 102,
      "chip": "ym2612"
    },
    {
      "channel": 3,
      "note": 58,
      "start": 10.3138,
      "duration": 0.0025,
      "velocity": 97,
      "chip": "ym2612"
    },
    {
      "channel": 4,
      "note": 75,
      "start": 10.3144,
      "duration": 0.0026,
      "velocity": 102,
      "chip": "ym2612"
    },
    {
      "channel": 0,
      "note": 92,
      "start": 10.3155,
      "duration": 0.0021,
      "velocity": 127,
      "chip": "ym2612"
    },
    {
      "channel": 1,
      "note": 70,
      "start": 10.316,
      "duration": 0.0034,
      "velocity": 88,
      "chip": "ym2612"
    },
    {
      "channel": 3,
      "note": 70,
      "start": 10.3167,
      "duration": 0.0035,
      "velocity": 97,
      "chip": "ym2612"
    },
    {
      "channel": 0,
      "note": 92,
      "start": 10.3193,
      "duration": 0.0023,
      "velocity": 127,
      "chip": "ym2612"
    },
    {
      "channel": 1,
      "note": 53,
      "start": 10.32,
      "duration": 0.0045,
      "velocity": 88,
      "chip": "ym2612"
    },
    {
      "channel": 3,
      "note": 53,
      "start": 10.3207,
      "duration": 0.0044,
      "velocity": 97,
      "chip": "ym2612"
    },
    {
      "channel": 0,
      "note": 92,
      "start": 10.3222,
      "duration": 0.0018,
      "velocity": 127,
      "chip": "ym2612"
    },
    {
      "channel": 2,
      "note": 89,
      "start": 10.3227,
      "duration": 0.0021,
      "velocity": 102,
      "chip": "ym2612"
    },
    {
      "channel": 4,
      "note": 84,
      "start": 10.3233,
      "duration": 0.0021,
      "velocity": 102,
      "chip": "ym2612"
    },
    {
      "channel": 0,
      "note": 92,
      "start": 10.3243,
      "duration": 0.0017,
      "velocity": 127,
      "chip": "ym2612"
    },
    {
      "channel": 1,
      "note": 53,
      "start": 10.3246,
      "duration": 0.0018,
      "velocity": 88,
      "chip": "ym2612"
    },
    {
      "channel": 2,
      "note": 87,
      "start": 10.3251,
      "duration": 0.0017,
      "velocity": 102,
      "chip": "ym2612"
    },
    {
      "channel": 3,
      "note": 53,
      "start": 10.3252,
      "duration": 0.0017,
      "velocity": 97,
      "chip": "ym2612"
    },
    {
      "channel": 4,
      "note": 82,
      "start": 10.3257,
      "duration": 0.0017,
      "velocity": 102,
      "chip": "ym2612"
    },
    {
      "channel": 0,
      "note": 92,
      "start": 10.3263,
      "duration": 0.0018,
      "velocity": 127,
      "chip": "ym2612"
    },
    {
      "channel": 1,
      "note": 65,
      "start": 10.3266,
      "duration": 0.0028,
      "velocity": 88,
      "chip": "ym2612"
    },
    {
      "channel": 2,
      "note": 89,
      "start": 10.3269,
      "duration": 0.0029,
      "velocity": 102,
      "chip": "ym2612"
    },
    {
      "channel": 3,
      "note": 65,
      "start": 10.3273,
      "duration": 0.003,
      "velocity": 97,
      "chip": "ym2612"
    },
    {
      "channel": 4,
      "note": 84,
      "start": 10.3277,
      "duration": 0.0029,
      "velocity": 102,
      "chip": "ym2612"
    },
    {
      "channel": 0,
      "note": 111,
      "start": 10.3294,
      "duration": 0.0057,
      "velocity": 127,
      "chip": "ym2612"
    },
    {
      "channel": 1,
      "note": 53,
      "start": 10.3298,
      "duration": 0.0023,
      "velocity": 88,
      "chip": "ym2612"
    },
    {
      "channel": 2,
      "note": 87,
      "start": 10.3301,
      "duration": 0.0025,
      "velocity": 102,
      "chip": "ym2612"
    },
    {
      "channel": 3,
      "note": 53,
      "start": 10.3305,
      "duration": 0.0027,
      "velocity": 97,
      "chip": "ym2612"
    },
    {
      "channel": 4,
      "note": 82,
      "start": 10.331,
      "duration": 0.0027,
      "velocity": 102,
      "chip": "ym2612"
    },
    {
      "channel": 1,
      "note": 56,
      "start": 10.3325,
      "duration": 0.0038,
      "velocity": 88,
      "chip": "ym2612"
    },
    {
      "channel": 2,
      "note": 86,
      "start": 10.3331,
      "duration": 0.0035,
      "velocity": 102,
      "chip": "ym2612"
    },
    {
      "channel": 3,
      "note": 56,
      "start": 10.3336,
      "duration": 0.0034,
      "velocity": 97,
      "chip": "ym2612"
    },
    {
      "channel": 4,
      "note": 81,
      "start": 10.3341,
      "duration": 0.0033,
      "velocity": 102,
      "chip": "ym2612"
    },
    {
      "channel": 0,
      "note": 92,
      "start": 10.3362,
      "duration": 0.0018,
      "velocity": 127,
      "chip": "ym2612"
    },
    {
      "channel": 1,
      "note": 60,
      "start": 10.3364,
      "duration": 0.002,
      "velocity": 88,
      "chip": "ym2612"
    },
    {
      "channel": 2,
      "note": 87,
      "start": 10.3369,
      "duration": 0.002,
      "velocity": 102,
      "chip": "ym2612"
    },
    {
      "channel": 3,
      "note": 60,
      "start": 10.3373,
      "duration": 0.0018,
      "velocity": 97,
      "chip": "ym2612"
    },
    {
      "channel": 4,
      "note": 82,
      "start": 10.3376,
      "duration": 0.0019,
      "velocity": 102,
      "chip": "ym2612"
    },
    {
      "channel": 0,
      "note": 92,
      "start": 10.3383,
      "duration": 0.0017,
      "velocity": 127,
      "chip": "ym2612"
    },
    {
      "channel": 1,
      "note": 65,
      "start": 10.3388,
      "duration": 0.0021,
      "velocity": 88,
      "chip": "ym2612"
    },
    {
      "channel": 2,
      "note": 86,
      "start": 10.339,
      "duration": 0.0022,
      "velocity": 102,
      "chip": "ym2612"
    },
    {
      "channel": 3,
      "note": 65,
      "start": 10.3394,
      "duration": 0.0023,
      "velocity": 97,
      "chip": "ym2612"
    },
    {
      "channel": 4,
      "note": 81,
      "start": 10.3398,
      "duration": 0.0023,
      "velocity": 102,
      "chip": "ym2612"
    },
    {
      "channel": 0,
      "note": 92,
      "start": 10.3408,
      "duration": 0.0026,
      "velocity": 127,
      "chip": "ym2612"
    },
    {
      "channel": 1,
      "note": 51,
      "start": 10.3411,
      "duration": 0.0047,
      "velocity": 88,
      "chip": "ym2612"
    },
    {
      "channel": 2,
      "note": 84,
      "start": 10.3417,
      "duration": 0.0021,
      "velocity": 102,
      "chip": "ym2612"
    },
    {
      "channel": 3,
      "note": 51,
      "start": 10.342,
      "duration": 0.0047,
      "velocity": 97,
      "chip": "ym2612"
    },
    {
      "channel": 4,
      "note": 79,
      "start": 10.3426,
      "duration": 0.0017,
      "velocity": 102,
      "chip": "ym2612"
    },
    {
      "channel": 0,
      "note": 92,
      "start": 10.3437,
      "duration": 0.0017,
      "velocity": 127,
      "chip": "ym2612"
    },
    {
      "channel": 2,
      "note": 86,
      "start": 10.3441,
      "duration": 0.0021,
      "velocity": 102,
      "chip": "ym2612"
    },
    {
      "channel": 4,
      "note": 81,
      "start": 10.3446,
      "duration": 0.0025,
      "velocity": 102,
      "chip": "ym2612"
    },
    {
      "channel": 0,
      "note": 92,
      "start": 10.3457,
      "duration": 0.0021,
      "velocity": 127,
      "chip": "ym2612"
    },
    {
      "channel": 1,
      "note": 63,
      "start": 10.3461,
      "duration": 0.0053,
      "velocity": 88,
      "chip": "ym2612"
    },
    {
      "channel": 2,
      "note": 84,
      "start": 10.3466,
      "duration": 0.0027,
      "velocity": 102,
      "chip": "ym2612"
    },
    {
      "channel": 3,
      "note": 63,
      "start": 10.347,
      "duration": 0.0052,
      "velocity": 97,
      "chip": "ym2612"
    },
    {
      "channel": 4,
      "note": 79,
      "start": 10.3474,
      "duration": 0.0022,
      "velocity": 102,
      "chip": "ym2612"
    },
    {
      "channel": 0,
      "note": 92,
      "start": 10.3492,
      "duration": 0.0009,
      "velocity": 127,
      "chip": "ym2612"
    },
    {
      "channel": 2,
      "note": 82,
      "start": 10.3495,
      "duration": 0.0022,
      "velocity": 102,
      "chip": "ym2612"
    },
    {
      "channel": 4,
      "note": 77,
      "start": 10.3498,
      "duration": 0.0028,
      "velocity": 102,
      "chip": "ym2612"
    },
    {
      "channel": 0,
      "note": 111,
      "start": 10.3513,
      "duration": 0.0039,
      "velocity": 127,
      "chip": "ym2612"
    },
    {
      "channel": 1,
      "note": 52,
      "start": 10.3517,
      "duration": 0.0049,
      "velocity": 88,
      "chip": "ym2612"
    },
    {
      "channel": 2,
      "note": 84,
      "start": 10.3521,
      "duration": 0.0015,
      "velocity": 102,
      "chip": "ym2612"
    },
    {
      "channel": 3,
      "note": 52,
      "start": 10.3525,
      "duration": 0.0046,
      "velocity": 97,
      "chip": "ym2612"
    },
    {
      "channel": 4,
      "note": 79,
      "start": 10.3529,
      "duration": 0.0009,
      "velocity": 102,
      "chip": "ym2612"
    },
    {
      "channel": 2,
      "note": 82,
      "start": 10.3538,
      "duration": 0.003,
      "velocity": 102,
      "chip": "ym2612"
    },
    {
      "channel": 4,
      "note": 77,
      "start": 10.3541,
      "duration": 0.0032,
      "velocity": 102,
      "chip": "ym2612"
    },
    {
      "channel": 0,
      "note": 92,
      "start": 10.3565,
      "duration": 0.0014,
      "velocity": 127,
      "chip": "ym2612"
    },
    {
      "channel": 1,
      "note": 64,
      "start": 10.3567,
      "duration": 0.0041,
      "velocity": 88,
      "chip": "ym2612"
    },
    {
      "channel": 2,
      "note": 81,
      "start": 10.357,
      "duration": 0.0021,
      "velocity": 102,
      "chip": "ym2612"
    },
    {
      "channel": 3,
      "note": 64,
      "start": 10.3572,
      "duration": 0.004,
      "velocity": 97,
      "chip": "ym2612"
    },
    {
      "channel": 4,
      "note": 75,
      "start": 10.3576,
      "duration": 0.0018,
      "velocity": 102,
      "chip": "ym2612"
    },
    {
      "channel": 0,
      "note": 92,
      "start": 10.359,
      "duration": 0.0009,
      "velocity": 127,
      "chip": "ym2612"
    },
    {
      "channel": 2,
      "note": 82,
      "start": 10.3594,
      "duration": 0.0018,
      "velocity": 102,
      "chip": "ym2612"
    },
    {
      "channel": 4,
      "note": 77,
      "start": 10.3596,
      "duration": 0.0021,
      "velocity": 102,
      "chip": "ym2612"
    },
    {
      "channel": 0,
      "note": 92,
      "start": 10.3606,
      "duration": 0.0017,
      "velocity": 127,
      "chip": "ym2612"
    },
    {
      "channel": 1,
      "note": 53,
      "start": 10.3611,
      "duration": 0.0023,
      "velocity": 88,
      "chip": "ym2612"
    },
    {
      "channel": 3,
      "note": 53,
      "start": 10.3616,
      "duration": 0.0021,
      "velocity": 97,
      "chip": "ym2612"
    },
    {
      "channel": 4,
      "note": 84,
      "start": 10.362,
      "duration": 0.2271,
      "velocity": 102,
      "chip": "ym2612"
    },
    {
      "channel": 0,
      "note": 92,
      "start": 10.3627,
      "duration": 0.0003,
      "velocity": 127,
      "chip": "ym2612"
    },
    {
      "channel": 0,
      "note": 92,
      "start": 10.3633,
      "duration": 0.0482,
      "velocity": 127,
      "chip": "ym2612"
    },
    {
      "channel": 1,
      "note": 53,
      "start": 10.3635,
      "duration": 0.0985,
      "velocity": 88,
      "chip": "ym2612"
    },
    {
      "channel": 3,
      "note": 53,
      "start": 10.3637,
      "duration": 0.099,
      "velocity": 97,
      "chip": "ym2612"
    },
    {
      "channel": 0,
      "note": 92,
      "start": 10.462,
      "duration": 0.0018,
      "velocity": 127,
      "chip": "ym2612"
    },
    {
      "channel": 1,
      "note": 65,
      "start": 10.4624,
      "duration": 0.0029,
      "velocity": 88,
      "chip": "ym2612"
    },
    {
      "channel": 3,
      "note": 65,
      "start": 10.4631,
      "duration": 0.0029,
      "velocity": 97,
      "chip": "ym2612"
    },
    {
      "channel": 0,
      "note": 111,
      "start": 10.4653,
      "duration": 0.003,
      "velocity": 127,
      "chip": "ym2612"
    },
    {
      "channel": 1,
      "note": 53,
      "start": 10.4657,
      "duration": 0.0016,
      "velocity": 88,
      "chip": "ym2612"
    },
    {
      "channel": 3,
      "note": 53,
      "start": 10.4663,
      "duration": 0.0013,
      "velocity": 97,
      "chip": "ym2612"
    },
    {
      "channel": 1,
      "note": 60,
      "start": 10.4675,
      "duration": 0.002,
      "velocity": 88,
      "chip": "ym2612"
    },
    {
      "channel": 3,
      "note": 60,
      "start": 10.4678,
      "duration": 0.0024,
      "velocity": 97,
      "chip": "ym2612"
    },
    {
      "channel": 0,
      "note": 92,
      "start": 10.4695,
      "duration": 0.0013,
      "velocity": 127,
      "chip": "ym2612"
    },
    {
      "channel": 1,
      "note": 56,
      "start": 10.4698,
      "duration": 0.0014,
      "velocity": 88,
      "chip": "ym2612"
    },
    {
      "channel": 2,
      "note": 72,
      "start": 10.4701,
      "duration": 0.0016,
      "velocity": 102,
      "chip": "ym2612"
    },
    {
      "channel": 3,
      "note": 56,
      "start": 10.4705,
      "duration": 0.0016,
      "velocity": 97,
      "chip": "ym2612"
    },
    {
      "channel": 0,
      "note": 92,
      "start": 10.4711,
      "duration": 0.0015,
      "velocity": 127,
      "chip": "ym2612"
    },
    {
      "channel": 1,
      "note": 65,
      "start": 10.4716,
      "duration": 0.0021,
      "velocity": 88,
      "chip": "ym2612"
    },
    {
      "channel": 2,
      "note": 75,
      "start": 10.472,
      "duration": 0.0022,
      "velocity": 102,
      "chip": "ym2612"
    },
    {
      "channel": 3,
      "note": 65,
      "start": 10.4723,
      "duration": 0.0022,
      "velocity": 97,
      "chip": "ym2612"
    },
    {
      "channel": 0,
      "note": 92,
      "start": 10.4736,
      "duration": 0.0016,
      "velocity": 127,
      "chip": "ym2612"
    },
    {
      "channel": 1,
      "note": 56,
      "start": 10.4741,
      "duration": 0.002,
      "velocity": 88,
      "chip": "ym2612"
    },
    {
      "channel": 2,
      "note": 77,
      "start": 10.4744,
      "duration": 0.0018,
      "velocity": 102,
      "chip": "ym2612"
    },
    {
      "channel": 3,
      "note": 56,
      "start": 10.4749,
      "duration": 0.0017,
      "velocity": 97,
      "chip": "ym2612"
    },
    {
      "channel": 0,
      "note": 92,
      "start": 10.4754,
      "duration": 0.0003,
      "velocity": 127,
      "chip": "ym2612"
    },
    {
      "channel": 0,
      "note": 92,
      "start": 10.476,
      "duration": 0.0488,
      "velocity": 127,
      "chip": "ym2612"
    },
    {
      "channel": 1,
      "note": 56,
      "start": 10.4761,
      "duration": 0.099,
      "velocity": 88,
      "chip": "ym2612"
    },
    {
      "channel": 2,
      "note": 75,
      "start": 10.4764,
      "duration": 0.0993,
      "velocity": 102,
      "chip": "ym2612"
    },
    {
      "channel": 3,
      "note": 56,
      "start": 10.4767,
      "duration": 0.0994,
      "velocity": 97,
      "chip": "ym2612"
    },
    {
      "channel": 0,
      "note": 92,
      "start": 10.5751,
      "duration": 0.0051,
      "velocity": 127,
      "chip": "ym2612"
    },
    {
      "channel": 1,
      "note": 56,
      "start": 10.5756,
      "duration": 0.006,
      "velocity": 88,
      "chip": "ym2612"
    },
    {
      "channel": 2,
      "note": 77,
      "start": 10.576,
      "duration": 0.006,
      "velocity": 102,
      "chip": "ym2612"
    },
    {
      "channel": 3,
      "note": 56,
      "start": 10.5765,
      "duration": 0.006,
      "velocity": 97,
      "chip": "ym2612"
    },
    {
      "channel": 0,
      "note": 111,
      "start": 10.5815,
      "duration": 0.0027,
      "velocity": 127,
      "chip": "ym2612"
    },
    {
      "channel": 1,
      "note": 58,
      "start": 10.5819,
      "duration": 0.0037,
      "velocity": 88,
      "chip": "ym2612"
    },
    {
      "channel": 2,
      "note": 77,
      "start": 10.5824,
      "duration": 0.0035,
      "velocity": 102,
      "chip": "ym2612"
    },
    {
      "channel": 3,
      "note": 58,
      "start": 10.5829,
      "duration": 0.003,
      "velocity": 97,
      "chip": "ym2612"
    },
    {
      "channel": 0,
      "note": 92,
      "start": 10.5854,
      "duration": 0.0007,
      "velocity": 127,
      "chip": "ym2612"
    },
    {
      "channel": 1,
      "note": 58,
      "start": 10.5857,
      "duration": 0.0008,
      "velocity": 88,
      "chip": "ym2612"
    },
    {
      "channel": 3,
      "note": 58,
      "start": 10.5859,
      "duration": 0.001,
      "velocity": 97,
      "chip": "ym2612"
    },
    {
      "channel": 0,
      "note": 92,
      "start": 10.5864,
      "duration": 0.0009,
      "velocity": 127,
      "chip": "ym2612"
    },
    {
      "channel": 1,
      "note": 58,
      "start": 10.5867,
      "duration": 0.0015,
      "velocity": 88,
      "chip": "ym2612"
    },
    {
      "channel": 3,
      "note": 58,
      "start": 10.587,
      "duration": 0.0017,
      "velocity": 97,
      "chip": "ym2612"
    },
    {
      "channel": 0,
      "note": 92,
      "start": 10.5881,
      "duration": 0.0015,
      "velocity": 127,
      "chip": "ym2612"
    },
    {
      "channel": 1,
      "note": 53,
      "start": 10.5885,
      "duration": 0.0021,
      "velocity": 88,
      "chip": "ym2612"
    },
    {
      "channel": 3,
      "note": 53,
      "start": 10.589,
      "duration": 0.0018,
      "velocity": 97,
      "chip": "ym2612"
    },
    {
      "channel": 4,
      "note": 82,
      "start": 10.5893,
      "duration": 0.2339,
      "velocity": 102,
      "chip": "ym2612"
    },
    {
      "channel": 0,
      "note": 92,
      "start": 10.5899,
      "duration": 0.0003,
      "velocity": 127,
      "chip": "ym2612"
    },
    {
      "channel": 0,
      "note": 92,
      "start": 10.5905,
      "duration": 0.0482,
      "velocity": 127,
      "chip": "ym2612"
    },
    {
      "channel": 1,
      "note": 53,
      "start": 10.5907,
      "duration": 0.0985,
      "velocity": 88,
      "chip": "ym2612"
    },
    {
      "channel": 3,
      "note": 53,
      "start": 10.5909,
      "duration": 0.099,
      "velocity": 97,
      "chip": "ym2612"
    },
    {
      "channel": 0,
      "note": 92,
      "start": 10.6891,
      "duration": 0.0018,
      "velocity": 127,
      "chip": "ym2612"
    },
    {
      "channel": 1,
      "note": 65,
      "start": 10.6896,
      "duration": 0.0029,
      "velocity": 88,
      "chip": "ym2612"
    },
    {
      "channel": 3,
      "note": 65,
      "start": 10.6903,
      "duration": 0.0029,
      "velocity": 97,
      "chip": "ym2612"
    },
    {
      "channel": 0,
      "note": 111,
      "start": 10.6925,
      "duration": 0.003,
      "velocity": 127,
      "chip": "ym2612"
    },
    {
      "channel": 1,
      "note": 53,
      "start": 10.6929,
      "duration": 0.0017,
      "velocity": 88,
      "chip": "ym2612"
    },
    {
      "channel": 3,
      "note": 53,
      "start": 10.6935,
      "duration": 0.0013,
      "velocity": 97,
      "chip": "ym2612"
    },
    {
      "channel": 1,
      "note": 56,
      "start": 10.6947,
      "duration": 0.002,
      "velocity": 88,
      "chip": "ym2612"
    },
    {
      "channel": 3,
      "note": 56,
      "start": 10.695,
      "duration": 0.0024,
      "velocity": 97,
      "chip": "ym2612"
    },
    {
      "channel": 0,
      "note": 92,
      "start": 10.6967,
      "duration": 0.0013,
      "velocity": 127,
      "chip": "ym2612"
    },
    {
      "channel": 1,
      "note": 60,
      "start": 10.697,
      "duration": 0.0014,
      "velocity": 88,
      "chip": "ym2612"
    },
    {
      "channel": 2,
      "note": 72,
      "start": 10.6973,
      "duration": 0.0016,
      "velocity": 102,
      "chip": "ym2612"
    },
    {
      "channel": 3,
      "note": 60,
      "start": 10.6977,
      "duration": 0.0015,
      "velocity": 97,
      "chip": "ym2612"
    },
    {
      "channel": 0,
      "note": 92,
      "start": 10.6983,
      "duration": 0.0015,
      "velocity": 127,
      "chip": "ym2612"
    },
    {
      "channel": 1,
      "note": 65,
      "start": 10.6988,
      "duration": 0.0021,
      "velocity": 88,
      "chip": "ym2612"
    },
    {
      "channel": 2,
      "note": 75,
      "start": 10.6992,
      "duration": 0.0017,
      "velocity": 102,
      "chip": "ym2612"
    },
    {
      "channel": 3,
      "note": 65,
      "start": 10.6995,
      "duration": 0.0018,
      "velocity": 97,
      "chip": "ym2612"
    },
    {
      "channel": 0,
      "note": 92,
      "start": 10.7007,
      "duration": 0.0008,
      "velocity": 127,
      "chip": "ym2612"
    },
    {
      "channel": 2,
      "note": 79,
      "start": 10.7012,
      "duration": 0.0024,
      "velocity": 102,
      "chip": "ym2612"
    },
    {
      "channel": 0,
      "note": 92,
      "start": 10.7018,
      "duration": 0.0008,
      "velocity": 127,
      "chip": "ym2612"
    },
    {
      "channel": 1,
      "note": 63,
      "start": 10.7022,
      "duration": 0.0009,
      "velocity": 88,
      "chip": "ym2612"
    },
    {
      "channel": 3,
      "note": 63,
      "start": 10.7024,
      "duration": 0.0016,
      "velocity": 97,
      "chip": "ym2612"
    },
    {
      "channel": 0,
      "note": 92,
      "start": 10.703,
      "duration": 0.0492,
      "velocity": 127,
      "chip": "ym2612"
    },
    {
      "channel": 1,
      "note": 65,
      "start": 10.7035,
      "duration": 0.0992,
      "velocity": 88,
      "chip": "ym2612"
    },
    {
      "channel": 2,
      "note": 77,
      "start": 10.7039,
      "duration": 0.0992,
      "velocity": 102,
      "chip": "ym2612"
    },
    {
      "channel": 3,
      "note": 65,
      "start": 10.7042,
      "duration": 0.0994,
      "velocity": 97,
      "chip": "ym2612"
    },
    {
      "channel": 0,
      "note": 92,
      "start": 10.8026,
      "duration": 0.0051,
      "velocity": 127,
      "chip": "ym2612"
    },
    {
      "channel": 1,
      "note": 63,
      "start": 10.803,
      "duration": 0.006,
      "velocity": 88,
      "chip": "ym2612"
    },
    {
      "channel": 2,
      "note": 79,
      "start": 10.8034,
      "duration": 0.006,
      "velocity": 102,
      "chip": "ym2612"
    },
    {
      "channel": 3,
      "note": 63,
      "start": 10.8039,
      "duration": 0.006,
      "velocity": 97,
      "chip": "ym2612"
    },
    {
      "channel": 0,
      "note": 111,
      "start": 10.809,
      "duration": 0.0051,
      "velocity": 127,
      "chip": "ym2612"
    },
    {
      "channel": 1,
      "note": 62,
      "start": 10.8093,
      "duration": 0.0028,
      "velocity": 88,
      "chip": "ym2612"
    },
    {
      "channel": 2,
      "note": 79,
      "start": 10.8098,
      "duration": 0.0072,
      "velocity": 102,
      "chip": "ym2612"
    },
    {
      "channel": 3,
      "note": 62,
      "start": 10.8102,
      "duration": 0.0024,
      "velocity": 97,
      "chip": "ym2612"
    },
    {
      "channel": 1,
      "note": 63,
      "start": 10.8125,
      "duration": 0.004,
      "velocity": 88,
      "chip": "ym2612"
    },
    {
      "channel": 3,
      "note": 63,
      "start": 10.813,
      "duration": 0.0042,
      "velocity": 97,
      "chip": "ym2612"
    },
    {
      "channel": 0,
      "note": 92,
      "start": 10.8164,
      "duration": 0.0018,
      "velocity": 127,
      "chip": "ym2612"
    },
    {
      "channel": 1,
      "note": 58,
      "start": 10.8169,
      "duration": 0.0031,
      "velocity": 88,
      "chip": "ym2612"
    },
    {
      "channel": 3,
      "note": 58,
      "start": 10.8175,
      "duration": 0.003,
      "velocity": 97,
      "chip": "ym2612"
    },
    {
      "channel": 0,
      "note": 92,
      "start": 10.8199,
      "duration": 0.0018,
      "velocity": 127,
      "chip": "ym2612"
    },
    {
      "channel": 1,
      "note": 60,
      "start": 10.8203,
      "duration": 0.0023,
      "velocity": 88,
      "chip": "ym2612"
    },
    {
      "channel": 3,
      "note": 60,
      "start": 10.8209,
      "duration": 0.0021,
      "velocity": 97,
      "chip": "ym2612"
    },
    {
      "channel": 0,
      "note": 92,
      "start": 10.8225,
      "duration": 0.0045,
      "velocity": 127,
      "chip": "ym2612"
    },
    {
      "channel": 1,
      "note": 65,
      "start": 10.8229,
      "duration": 0.0045,
      "velocity": 88,
      "chip": "ym2612"
    },
    {
      "channel": 3,
      "note": 65,
      "start": 10.8232,
      "duration": 0.0046,
      "velocity": 97,
      "chip": "ym2612"
    },
    {
      "channel": 4,
      "note": 80,
      "start": 10.8237,
      "duration": 0.2345,
      "velocity": 102,
      "chip": "ym2612"
    },
    {
      "channel": 0,
      "note": 92,
      "start": 10.8273,
      "duration": 0.001,
      "velocity": 127,
      "chip": "ym2612"
    },
    {
      "channel": 1,
      "note": 53,
      "start": 10.8277,
      "duration": 0.1003,
      "velocity": 88,
      "chip": "ym2612"
    },
    {
      "channel": 3,
      "note": 53,
      "start": 10.828,
      "duration": 0.1005,
      "velocity": 97,
      "chip": "ym2612"
    },
    {
      "channel": 0,
      "note": 92,
      "start": 10.8287,
      "duration": 0.0488,
      "velocity": 127,
      "chip": "ym2612"
    },
    {
      "channel": 0,
      "note": 92,
      "start": 10.9279,
      "duration": 0.0018,
      "velocity": 127,
      "chip": "ym2612"
    },
    {
      "channel": 1,
      "note": 65,
      "start": 10.9284,
      "duration": 0.0029,
      "velocity": 88,
      "chip": "ym2612"
    },
    {
      "channel": 3,
      "note": 65,
      "start": 10.929,
      "duration": 0.0029,
      "velocity": 97,
      "chip": "ym2612"
    },
    {
      "channel": 0,
      "note": 111,
      "start": 10.9313,
      "duration": 0.003,
      "velocity": 127,
      "chip": "ym2612"
    },
    {
      "channel": 1,
      "note": 53,
      "start": 10.9316,
      "duration": 0.0016,
      "velocity": 88,
      "chip": "ym2612"
    },
    {
      "channel": 3,
      "note": 53,
      "start": 10.9323,
      "duration": 0.0013,
      "velocity": 97,
      "chip": "ym2612"
    },
    {
      "channel": 1,
      "note": 60,
      "start": 10.9335,
      "duration": 0.002,
      "velocity": 88,
      "chip": "ym2612"
    },
    {
      "channel": 3,
      "note": 60,
      "start": 10.9338,
      "duration": 0.0024,
      "velocity": 97,
      "chip": "ym2612"
    },
    {
      "channel": 0,
      "note": 92,
      "start": 10.9354,
      "duration": 0.0013,
      "velocity": 127,
      "chip": "ym2612"
    },
    {
      "channel": 1,
      "note": 56,
      "start": 10.9357,
      "duration": 0.0014,
      "velocity": 88,
      "chip": "ym2612"
    },
    {
      "channel": 2,
      "note": 72,
      "start": 10.936,
      "duration": 0.0016,
      "velocity": 102,
      "chip": "ym2612"
    },
    {
      "channel": 3,
      "note": 56,
      "start": 10.9365,
      "duration": 0.0016,
      "velocity": 97,
      "chip": "ym2612"
    },
    {
      "channel": 0,
      "note": 92,
      "start": 10.9371,
      "duration": 0.0015,
      "velocity": 127,
      "chip": "ym2612"
    },
    {
      "channel": 1,
      "note": 65,
      "start": 10.9375,
      "duration": 0.0021,
      "velocity": 88,
      "chip": "ym2612"
    },
    {
      "channel": 2,
      "note": 75,
      "start": 10.938,
      "duration": 0.0019,
      "velocity": 102,
      "chip": "ym2612"
    },
    {
      "channel": 3,
      "note": 65,
      "start": 10.9383,
      "duration": 0.002,
      "velocity": 97,
      "chip": "ym2612"
    },
    {
      "channel": 0,
      "note": 92,
      "start": 10.9395,
      "duration": 0.0011,
      "velocity": 127,
      "chip": "ym2612"
    },
    {
      "channel": 2,
      "note": 80,
      "start": 10.9401,
      "duration": 0.0022,
      "velocity": 102,
      "chip": "ym2612"
    },
    {
      "channel": 0,
      "note": 92,
      "start": 10.9409,
      "duration": 0.0005,
      "velocity": 127,
      "chip": "ym2612"
    },
    {
      "channel": 1,
      "note": 65,
      "start": 10.941,
      "duration": 0.0008,
      "velocity": 88,
      "chip": "ym2612"
    },
    {
      "channel": 3,
      "note": 65,
      "start": 10.9411,
      "duration": 0.0015,
      "velocity": 97,
      "chip": "ym2612"
    },
    {
      "channel": 0,
      "note": 92,
      "start": 10.9417,
      "duration": 0.0492,
      "velocity": 127,
      "chip": "ym2612"
    },
    {
      "channel": 1,
      "note": 60,
      "start": 10.9421,
      "duration": 0.0992,
      "velocity": 88,
      "chip": "ym2612"
    },
    {
      "channel": 2,
      "note": 79,
      "start": 10.9425,
      "duration": 0.0994,
      "velocity": 102,
      "chip": "ym2612"
    },
    {
      "channel": 3,
      "note": 60,
      "start": 10.9429,
      "duration": 0.0995,
      "velocity": 97,
      "chip": "ym2612"
    },
    {
      "channel": 0,
      "note": 92,
      "start": 11.0413,
      "duration": 0.0052,
      "velocity": 127,
      "chip": "ym2612"
    },
    {
      "channel": 1,
      "note": 53,
      "start": 11.0418,
      "duration": 0.0061,
      "velocity": 88,
      "chip": "ym2612"
    },
    {
      "channel": 2,
      "note": 80,
      "start": 11.0423,
      "duration": 0.006,
      "velocity": 102,
      "chip": "ym2612"
    },
    {
      "channel": 3,
      "note": 53,
      "start": 11.0428,
      "duration": 0.0059,
      "velocity": 97,
      "chip": "ym2612"
    },
    {
      "channel": 0,
      "note": 111,
      "start": 11.0479,
      "duration": 0.0026,
      "velocity": 127,
      "chip": "ym2612"
    },
    {
      "channel": 1,
      "note": 56,
      "start": 11.0483,
      "duration": 0.0044,
      "velocity": 88,
      "chip": "ym2612"
    },
    {
      "channel": 2,
      "note": 80,
      "start": 11.0485,
      "duration": 0.0046,
      "velocity": 102,
      "chip": "ym2612"
    },
    {
      "channel": 3,
      "note": 56,
      "start": 11.049,
      "duration": 0.0042,
      "velocity": 97,
      "chip": "ym2612"
    },
    {
      "channel": 0,
      "note": 92,
      "start": 11.0525,
      "duration": 0.0018,
      "velocity": 127,
      "chip": "ym2612"
    },
    {
      "channel": 1,
      "note": 58,
      "start": 11.0529,
      "duration": 0.0047,
      "velocity": 88,
      "chip": "ym2612"
    },
    {
      "channel": 3,
      "note": 58,
      "start": 11.0536,
      "duration": 0.0044,
      "velocity": 97,
      "chip": "ym2612"
    },
    {
      "channel": 0,
      "note": 92,
      "start": 11.0559,
      "duration": 0.0009,
      "velocity": 127,
      "chip": "ym2612"
    },
    {
      "channel": 0,
      "note": 92,
      "start": 11.0576,
      "duration": 0.0018,
      "velocity": 127,
      "chip": "ym2612"
    },
    {
      "channel": 2,
      "note": 77,
      "start": 11.0579,
      "duration": 0.0027,
      "velocity": 102,
      "chip": "ym2612"
    },
    {
      "channel": 4,
      "note": 79,
      "start": 11.0584,
      "duration": 0.0432,
      "velocity": 102,
      "chip": "ym2612"
    },
    {
      "channel": 0,
      "note": 92,
      "start": 11.0599,
      "duration": 0.0023,
      "velocity": 127,
      "chip": "ym2612"
    },
    {
      "channel": 1,
      "note": 65,
      "start": 11.0604,
      "duration": 0.0021,
      "velocity": 88,
      "chip": "ym2612"
    },
    {
      "channel": 2,
      "note": 84,
      "start": 11.061,
      "duration": 0.0019,
      "velocity": 102,
      "chip": "ym2612"
    },
    {
      "channel": 3,
      "note": 65,
      "start": 11.0615,
      "duration": 0.0017,
      "velocity": 97,
      "chip": "ym2612"
    },
    {
      "channel": 0,
      "note": 92,
      "start": 11.0624,
      "duration": 0.0015,
      "velocity": 127,
      "chip": "ym2612"
    },
    {
      "channel": 1,
      "note": 63,
      "start": 11.0628,
      "duration": 0.0029,
      "velocity": 88,
      "chip": "ym2612"
    },
    {
      "channel": 2,
      "note": 83,
      "start": 11.0631,
      "duration": 0.0031,
      "velocity": 102,
      "chip": "ym2612"
    },
    {
      "channel": 3,
      "note": 63,
      "start": 11.0636,
      "duration": 0.0031,
      "velocity": 97,
      "chip": "ym2612"
    },
    {
      "channel": 0,
      "note": 92,
      "start": 11.0656,
      "duration": 0.0018,
      "velocity": 127,
      "chip": "ym2612"
    },
    {
      "channel": 1,
      "note": 60,
      "start": 11.0661,
      "duration": 0.0029,
      "velocity": 88,
      "chip": "ym2612"
    },
    {
      "channel": 2,
      "note": 82,
      "start": 11.0665,
      "duration": 0.0029,
      "velocity": 102,
      "chip": "ym2612"
    },
    {
      "channel": 3,
      "note": 60,
      "start": 11.067,
      "duration": 0.0027,
      "velocity": 97,
      "chip": "ym2612"
    },
    {
      "channel": 0,
      "note": 111,
      "start": 11.0689,
      "duration": 0.0054,
      "velocity": 127,
      "chip": "ym2612"
    },
    {
      "channel": 1,
      "note": 63,
      "start": 11.0692,
      "duration": 0.0026,
      "velocity": 88,
      "chip": "ym2612"
    },
    {
      "channel": 2,
      "note": 80,
      "start": 11.0696,
      "duration": 0.0027,
      "velocity": 102,
      "chip": "ym2612"
    },
    {
      "channel": 3,
      "note": 63,
      "start": 11.0699,
      "duration": 0.0029,
      "velocity": 97,
      "chip": "ym2612"
    },
    {
      "channel": 1,
      "note": 60,
      "start": 11.0722,
      "duration": 0.0033,
      "velocity": 88,
      "chip": "ym2612"
    },
    {
      "channel": 2,
      "note": 79,
      "start": 11.0727,
      "duration": 0.003,
      "velocity": 102,
      "chip": "ym2612"
    },
    {
      "channel": 3,
      "note": 60,
      "start": 11.0732,
      "duration": 0.003,
      "velocity": 97,
      "chip": "ym2612"
    },
    {
      "channel": 0,
      "note": 92,
      "start": 11.0754,
      "duration": 0.0014,
      "velocity": 127,
      "chip": "ym2612"
    },
    {
      "channel": 1,
      "note": 56,
      "start": 11.0756,
      "duration": 0.0015,
      "velocity": 88,
      "chip": "ym2612"
    },
    {
      "channel": 2,
      "note": 78,
      "start": 11.0761,
      "duration": 0.0015,
      "velocity": 102,
      "chip": "ym2612"
    },
    {
      "channel": 3,
      "note": 56,
      "start": 11.0765,
      "duration": 0.0016,
      "velocity": 97,
      "chip": "ym2612"
    },
    {
      "channel": 0,
      "note": 92,
      "start": 11.0771,
      "duration": 0.0016,
      "velocity": 127,
      "chip": "ym2612"
    },
    {
      "channel": 1,
      "note": 53,
      "start": 11.0775,
      "duration": 0.002,
      "velocity": 88,
      "chip": "ym2612"
    },
    {
      "channel": 2,
      "note": 77,
      "start": 11.078,
      "duration": 0.0018,
      "velocity": 102,
      "chip": "ym2612"
    },
    {
      "channel": 3,
      "note": 53,
      "start": 11.0783,
      "duration": 0.002,
      "velocity": 97,
      "chip": "ym2612"
    },
    {
      "channel": 0,
      "note": 92,
      "start": 11.0794,
      "duration": 0.0022,
      "velocity": 127,
      "chip": "ym2612"
    },
    {
      "channel": 1,
      "note": 56,
      "start": 11.0797,
      "duration": 0.0021,
      "velocity": 88,
      "chip": "ym2612"
    },
    {
      "channel": 2,
      "note": 75,
      "start": 11.0802,
      "duration": 0.002,
      "velocity": 102,
      "chip": "ym2612"
    },
    {
      "channel": 3,
      "note": 56,
      "start": 11.0808,
      "duration": 0.0017,
      "velocity": 97,
      "chip": "ym2612"
    },
    {
      "channel": 0,
      "note": 92,
      "start": 11.0817,
      "duration": 0.0023,
      "velocity": 127,
      "chip": "ym2612"
    },
    {
      "channel": 1,
      "note": 58,
      "start": 11.0821,
      "duration": 0.0023,
      "velocity": 88,
      "chip": "ym2612"
    },
    {
      "channel": 2,
      "note": 74,
      "start": 11.0824,
      "duration": 0.0025,
      "velocity": 102,
      "chip": "ym2612"
    },
    {
      "channel": 3,
      "note": 58,
      "start": 11.0829,
      "duration": 0.0024,
      "velocity": 97,
      "chip": "ym2612"
    },
    {
      "channel": 0,
      "note": 92,
      "start": 11.0844,
      "duration": 0.0015,
      "velocity": 127,
      "chip": "ym2612"
    },
    {
      "channel": 1,
      "note": 59,
      "start": 11.0848,
      "duration": 0.0029,
      "velocity": 88,
      "chip": "ym2612"
    },
    {
      "channel": 2,
      "note": 73,
      "start": 11.0852,
      "duration": 0.0029,
      "velocity": 102,
      "chip": "ym2612"
    },
    {
      "channel": 3,
      "note": 59,
      "start": 11.0855,
      "duration": 0.0028,
      "velocity": 97,
      "chip": "ym2612"
    },
    {
      "channel": 0,
      "note": 92,
      "start": 11.0876,
      "duration": 0.0015,
      "velocity": 127,
      "chip": "ym2612"
    },
    {
      "channel": 1,
      "note": 56,
      "start": 11.088,
      "duration": 0.0024,
      "velocity": 88,
      "chip": "ym2612"
    },
    {
      "channel": 2,
      "note": 72,
      "start": 11.0883,
      "duration": 0.0026,
      "velocity": 102,
      "chip": "ym2612"
    },
    {
      "channel": 3,
      "note": 56,
      "start": 11.0887,
      "duration": 0.0025,
      "velocity": 97,
      "chip": "ym2612"
    },
    {
      "channel": 0,
      "note": 111,
      "start": 11.0903,
      "duration": 0.0047,
      "velocity": 127,
      "chip": "ym2612"
    },
    {
      "channel": 1,
      "note": 59,
      "start": 11.0907,
      "duration": 0.0016,
      "velocity": 88,
      "chip": "ym2612"
    },
    {
      "channel": 2,
      "note": 70,
      "start": 11.0912,
      "duration": 0.0015,
      "velocity": 102,
      "chip": "ym2612"
    },
    {
      "channel": 3,
      "note": 59,
      "start": 11.0916,
      "duration": 0.0015,
      "velocity": 97,
      "chip": "ym2612"
    },
    {
      "channel": 1,
      "note": 60,
      "start": 11.0925,
      "duration": 0.0039,
      "velocity": 88,
      "chip": "ym2612"
    },
    {
      "channel": 2,
      "note": 67,
      "start": 11.0929,
      "duration": 0.0038,
      "velocity": 102,
      "chip": "ym2612"
    },
    {
      "channel": 3,
      "note": 60,
      "start": 11.0932,
      "duration": 0.0039,
      "velocity": 97,
      "chip": "ym2612"
    },
    {
      "channel": 0,
      "note": 92,
      "start": 11.0963,
      "duration": 0.001,
      "velocity": 127,
      "chip": "ym2612"
    },
    {
      "channel": 1,
      "note": 51,
      "start": 11.0967,
      "duration": 0.0017,
      "velocity": 88,
      "chip": "ym2612"
    },
    {
      "channel": 2,
      "note": 68,
      "start": 11.097,
      "duration": 0.0017,
      "velocity": 102,
      "chip": "ym2612"
    },
    {
      "channel": 3,
      "note": 51,
      "start": 11.0973,
      "duration": 0.0018,
      "velocity": 97,
      "chip": "ym2612"
    },
    {
      "channel": 0,
      "note": 92,
      "start": 11.0983,
      "duration": 0.0013,
      "velocity": 127,
      "chip": "ym2612"
    },
    {
      "channel": 1,
      "note": 52,
      "start": 11.0986,
      "duration": 0.0018,
      "velocity": 88,
      "chip": "ym2612"
    },
    {
      "channel": 2,
      "note": 70,
      "start": 11.099,
      "duration": 0.0018,
      "velocity": 102,
      "chip": "ym2612"
    },
    {
      "channel": 3,
      "note": 52,
      "start": 11.0994,
      "duration": 0.0018,
      "velocity": 97,
      "chip": "ym2612"
    },
    {
      "channel": 0,
      "note": 92,
      "start": 11.1002,
      "duration": 0.0022,
      "velocity": 127,
      "chip": "ym2612"
    },
    {
      "channel": 1,
      "note": 53,
      "start": 11.1007,
      "duration": 0.0032,
      "velocity": 88,
      "chip": "ym2612"
    },
    {
      "channel": 2,
      "note": 72,
      "start": 11.1011,
      "duration": 0.0017,
      "velocity": 102,
      "chip": "ym2612"
    },
    {
      "channel": 3,
      "note": 53,
      "start": 11.1016,
      "duration": 0.0029,
      "velocity": 97,
      "chip": "ym2612"
    },
    {
      "channel": 4,
      "note": 63,
      "start": 11.1019,
      "duration": 0.0011,
      "velocity": 102,
      "chip": "ym2612"
    },
    {
      "channel": 0,
      "note": 92,
      "start": 11.1026,
      "duration": 0.0009,
      "velocity": 127,
      "chip": "ym2612"
    },
    {
      "channel": 2,
      "note": 75,
      "start": 11.1029,
      "duration": 0.0012,
      "velocity": 102,
      "chip": "ym2612"
    },
    {
      "channel": 4,
      "note": 64,
      "start": 11.1032,
      "duration": 0.0015,
      "velocity": 102,
      "chip": "ym2612"
    },
    {
      "channel": 0,
      "note": 92,
      "start": 11.1038,
      "duration": 0.0483,
      "velocity": 127,
      "chip": "ym2612"
    },
    {
      "channel": 1,
      "note": 53,
      "start": 11.1041,
      "duration": 0.1044,
      "velocity": 88,
      "chip": "ym2612"
    },
    {
      "channel": 2,
      "note": 77,
      "start": 11.1044,
      "duration": 0.0982,
      "velocity": 102,
      "chip": "ym2612"
    },
    {
      "channel": 3,
      "note": 53,
      "start": 11.1046,
      "duration": 0.1049,
      "velocity": 97,
      "chip": "ym2612"
    },
    {
      "channel": 4,
      "note": 65,
      "start": 11.105,
      "duration": 0.0981,
      "velocity": 102,
      "chip": "ym2612"
    },
    {
      "channel": 0,
      "note": 92,
      "start": 11.2024,
      "duration": 0.0046,
      "velocity": 127,
      "chip": "ym2612"
    },
    {
      "channel": 2,
      "note": 72,
      "start": 11.2029,
      "duration": 0.006,
      "velocity": 102,
      "chip": "ym2612"
    },
    {
      "channel": 4,
      "note": 63,
      "start": 11.2034,
      "duration": 0.0065,
      "velocity": 102,
      "chip": "ym2612"
    },
    {
      "channel": 0,
      "note": 111,
      "start": 11.2084,
      "duration": 0.0048,
      "velocity": 127,
      "chip": "ym2612"
    },
    {
      "channel": 1,
      "note": 53,
      "start": 11.2088,
      "duration": 0.0024,
      "velocity": 88,
      "chip": "ym2612"
    },
    {
      "channel": 2,
      "note": 75,
      "start": 11.2093,
      "duration": 0.0022,
      "velocity": 102,
      "chip": "ym2612"
    },
    {
      "channel": 3,
      "note": 53,
      "start": 11.2098,
      "duration": 0.0022,
      "velocity": 97,
      "chip": "ym2612"
    },
    {
      "channel": 4,
      "note": 64,
      "start": 11.2103,
      "duration": 0.002,
      "velocity": 102,
      "chip": "ym2612"
    },
    {
      "channel": 1,
      "note": 60,
      "start": 11.2115,
      "duration": 0.003,
      "velocity": 88,
      "chip": "ym2612"
    },
    {
      "channel": 2,
      "note": 77,
      "start": 11.2118,
      "duration": 0.0032,
      "velocity": 102,
      "chip": "ym2612"
    },
    {
      "channel": 3,
      "note": 60,
      "start": 11.2122,
      "duration": 0.0032,
      "velocity": 97,
      "chip": "ym2612"
    },
    {
      "channel": 4,
      "note": 65,
      "start": 11.2127,
      "duration": 0.003,
      "velocity": 102,
      "chip": "ym2612"
    },
    {
      "channel": 0,
      "note": 92,
      "start": 11.2145,
      "duration": 0.0019,
      "velocity": 127,
      "chip": "ym2612"
    },
    {
      "channel": 1,
      "note": 56,
      "start": 11.2149,
      "duration": 0.0018,
      "velocity": 88,
      "chip": "ym2612"
    },
    {
      "channel": 2,
      "note": 72,
      "start": 11.2153,
      "duration": 0.0019,
      "velocity": 102,
      "chip": "ym2612"
    },
    {
      "channel": 3,
      "note": 56,
      "start": 11.2156,
      "duration": 0.0018,
      "velocity": 97,
      "chip": "ym2612"
    },
    {
      "channel": 4,
      "note": 63,
      "start": 11.216,
      "duration": 0.0019,
      "velocity": 102,
      "chip": "ym2612"
    },
    {
      "channel": 0,
      "note": 92,
      "start": 11.2167,
      "duration": 0.0017,
      "velocity": 127,
      "chip": "ym2612"
    },
    {
      "channel": 1,
      "note": 65,
      "start": 11.2171,
      "duration": 0.0021,
      "velocity": 88,
      "chip": "ym2612"
    },
    {
      "channel": 2,
      "note": 75,
      "start": 11.2174,
      "duration": 0.002,
      "velocity": 102,
      "chip": "ym2612"
    },
    {
      "channel": 3,
      "note": 65,
      "start": 11.2178,
      "duration": 0.002,
      "velocity": 97,
      "chip": "ym2612"
    },
    {
      "channel": 4,
      "note": 64,
      "start": 11.2182,
      "duration": 0.0017,
      "velocity": 102,
      "chip": "ym2612"
    },
    {
      "channel": 0,
      "note": 92,
      "start": 11.2191,
      "duration": 0.0014,
      "velocity": 127,
      "chip": "ym2612"
    },
    {
      "channel": 2,
      "note": 77,
      "start": 11.2197,
      "duration": 0.0013,
      "velocity": 102,
      "chip": "ym2612"
    },
    {
      "channel": 4,
      "note": 65,
      "start": 11.2202,
      "duration": 0.0015,
      "velocity": 102,
      "chip": "ym2612"
    },
    {
      "channel": 0,
      "note": 92,
      "start": 11.2208,
      "duration": 0.0015,
      "velocity": 127,
      "chip": "ym2612"
    },
    {
      "channel": 1,
      "note": 65,
      "start": 11.2209,
      "duration": 0.0017,
      "velocity": 88,
      "chip": "ym2612"
    },
    {
      "channel": 2,
      "note": 72,
      "start": 11.2214,
      "duration": 0.0015,
      "velocity": 102,
      "chip": "ym2612"
    },
    {
      "channel": 3,
      "note": 65,
      "start": 11.2216,
      "duration": 0.0017,
      "velocity": 97,
      "chip": "ym2612"
    },
    {
      "channel": 4,
      "note": 63,
      "start": 11.222,
      "duration": 0.0017,
      "velocity": 102,
      "chip": "ym2612"
    },
    {
      "channel": 0,
      "note": 92,
      "start": 11.2224,
      "duration": 0.0484,
      "velocity": 127,
      "chip": "ym2612"
    },
    {
      "channel": 1,
      "note": 60,
      "start": 11.2228,
      "duration": 0.0985,
      "velocity": 88,
      "chip": "ym2612"
    },
    {
      "channel": 2,
      "note": 75,
      "start": 11.2231,
      "duration": 0.0988,
      "velocity": 102,
      "chip": "ym2612"
    },
    {
      "channel": 3,
      "note": 60,
      "start": 11.2236,
      "duration": 0.0987,
      "velocity": 97,
      "chip": "ym2612"
    },
    {
      "channel": 4,
      "note": 64,
      "start": 11.224,
      "duration": 0.0988,
      "velocity": 102,
      "chip": "ym2612"
    },
    {
      "channel": 0,
      "note": 92,
      "start": 11.3212,
      "duration": 0.0056,
      "velocity": 127,
      "chip": "ym2612"
    },
    {
      "channel": 1,
      "note": 53,
      "start": 11.3217,
      "duration": 0.0065,
      "velocity": 88,
      "chip": "ym2612"
    },
    {
      "channel": 2,
      "note": 77,
      "start": 11.3222,
      "duration": 0.0065,
      "velocity": 102,
      "chip": "ym2612"
    },
    {
      "channel": 3,
      "note": 53,
      "start": 11.3227,
      "duration": 0.0065,
      "velocity": 97,
      "chip": "ym2612"
    },
    {
      "channel": 4,
      "note": 65,
      "start": 11.3232,
      "duration": 0.0064,
      "velocity": 102,
      "chip": "ym2612"
    },
    {
      "channel": 0,
      "note": 111,
      "start": 11.3282,
      "duration": 0.0039,
      "velocity": 127,
      "chip": "ym2612"
    },
    {
      "channel": 1,
      "note": 56,
      "start": 11.3285,
      "duration": 0.0049,
      "velocity": 88,
      "chip": "ym2612"
    },
    {
      "channel": 2,
      "note": 72,
      "start": 11.329,
      "duration": 0.0019,
      "velocity": 102,
      "chip": "ym2612"
    },
    {
      "channel": 3,
      "note": 56,
      "start": 11.3295,
      "duration": 0.0046,
      "velocity": 97,
      "chip": "ym2612"
    },
    {
      "channel": 4,
      "note": 63,
      "start": 11.3299,
      "duration": 0.0013,
      "velocity": 102,
      "chip": "ym2612"
    },
    {
      "channel": 2,
      "note": 75,
      "start": 11.3311,
      "duration": 0.0027,
      "velocity": 102,
      "chip": "ym2612"
    },
    {
      "channel": 4,
      "note": 64,
      "start": 11.3315,
      "duration": 0.003,
      "velocity": 102,
      "chip": "ym2612"
    },
    {
      "channel": 0,
      "note": 92,
      "start": 11.3333,
      "duration": 0.0018,
      "velocity": 127,
      "chip": "ym2612"
    },
    {
      "channel": 1,
      "note": 58,
      "start": 11.3337,
      "duration": 0.0034,
      "velocity": 88,
      "chip": "ym2612"
    },
    {
      "channel": 2,
      "note": 77,
      "start": 11.334,
      "duration": 0.0014,
      "velocity": 102,
      "chip": "ym2612"
    },
    {
      "channel": 3,
      "note": 58,
      "start": 11.3344,
      "duration": 0.003,
      "velocity": 97,
      "chip": "ym2612"
    },
    {
      "channel": 4,
      "note": 65,
      "start": 11.3348,
      "duration": 0.0011,
      "velocity": 102,
      "chip": "ym2612"
    },
    {
      "channel": 0,
      "note": 92,
      "start": 11.3354,
      "duration": 0.001,
      "velocity": 127,
      "chip": "ym2612"
    },
    {
      "channel": 2,
      "note": 72,
      "start": 11.3358,
      "duration": 0.0026,
      "velocity": 102,
      "chip": "ym2612"
    },
    {
      "channel": 4,
      "note": 65,
      "start": 11.3361,
      "duration": 0.0028,
      "velocity": 102,
      "chip": "ym2612"
    },
    {
      "channel": 0,
      "note": 92,
      "start": 11.3371,
      "duration": 0.0009,
      "velocity": 127,
      "chip": "ym2612"
    },
    {
      "channel": 1,
      "note": 53,
      "start": 11.3373,
      "duration": 0.0027,
      "velocity": 88,
      "chip": "ym2612"
    },
    {
      "channel": 3,
      "note": 53,
      "start": 11.3377,
      "duration": 0.0029,
      "velocity": 97,
      "chip": "ym2612"
    },
    {
      "channel": 0,
      "note": 92,
      "start": 11.3383,
      "duration": 0.0013,
      "velocity": 127,
      "chip": "ym2612"
    },
    {
      "channel": 2,
      "note": 75,
      "start": 11.3387,
      "duration": 0.0016,
      "velocity": 102,
      "chip": "ym2612"
    },
    {
      "channel": 4,
      "note": 66,
      "start": 11.3392,
      "duration": 0.0016,
      "velocity": 102,
      "chip": "ym2612"
    },
    {
      "channel": 0,
      "note": 92,
      "start": 11.3399,
      "duration": 0.0488,
      "velocity": 127,
      "chip": "ym2612"
    },
    {
      "channel": 1,
      "note": 53,
      "start": 11.3402,
      "duration": 0.099,
      "velocity": 88,
      "chip": "ym2612"
    },
    {
      "channel": 2,
      "note": 79,
      "start": 11.3404,
      "duration": 0.0993,
      "velocity": 102,
      "chip": "ym2612"
    },
    {
      "channel": 3,
      "note": 53,
      "start": 11.3407,
      "duration": 0.0995,
      "velocity": 97,
      "chip": "ym2612"
    },
    {
      "channel": 4,
      "note": 67,
      "start": 11.341,
      "duration": 0.0997,
      "velocity": 102,
      "chip": "ym2612"
    },
    {
      "channel": 0,
      "note": 92,
      "start": 11.4391,
      "duration": 0.0056,
      "velocity": 127,
      "chip": "ym2612"
    },
    {
      "channel": 1,
      "note": 65,
      "start": 11.4396,
      "duration": 0.0064,
      "velocity": 88,
      "chip": "ym2612"
    },
    {
      "channel": 2,
      "note": 72,
      "start": 11.4401,
      "duration": 0.0064,
      "velocity": 102,
      "chip": "ym2612"
    },
    {
      "channel": 3,
      "note": 65,
      "start": 11.4406,
      "duration": 0.0063,
      "velocity": 97,
      "chip": "ym2612"
    },
    {
      "channel": 4,
      "note": 65,
      "start": 11.4411,
      "duration": 0.0062,
      "velocity": 102,
      "chip": "ym2612"
    },
    {
      "channel": 0,
      "note": 111,
      "start": 11.446,
      "duration": 0.0046,
      "velocity": 127,
      "chip": "ym2612"
    },
    {
      "channel": 1,
      "note": 53,
      "start": 11.4463,
      "duration": 0.0023,
      "velocity": 88,
      "chip": "ym2612"
    },
    {
      "channel": 2,
      "note": 75,
      "start": 11.4468,
      "duration": 0.0023,
      "velocity": 102,
      "chip": "ym2612"
    },
    {
      "channel": 3,
      "note": 53,
      "start": 11.4472,
      "duration": 0.0024,
      "velocity": 97,
      "chip": "ym2612"
    },
    {
      "channel": 4,
      "note": 66,
      "start": 11.4476,
      "duration": 0.0022,
      "velocity": 102,
      "chip": "ym2612"
    },
    {
      "channel": 1,
      "note": 56,
      "start": 11.4489,
      "duration": 0.0029,
      "velocity": 88,
      "chip": "ym2612"
    },
    {
      "channel": 2,
      "note": 79,
      "start": 11.4495,
      "duration": 0.0028,
      "velocity": 102,
      "chip": "ym2612"
    },
    {
      "channel": 3,
      "note": 56,
      "start": 11.4498,
      "duration": 0.0027,
      "velocity": 97,
      "chip": "ym2612"
    },
    {
      "channel": 4,
      "note": 67,
      "start": 11.4501,
      "duration": 0.0029,
      "velocity": 102,
      "chip": "ym2612"
    },
    {
      "channel": 0,
      "note": 92,
      "start": 11.4517,
      "duration": 0.0018,
      "velocity": 127,
      "chip": "ym2612"
    },
    {
      "channel": 1,
      "note": 60,
      "start": 11.4522,
      "duration": 0.0018,
      "velocity": 88,
      "chip": "ym2612"
    },
    {
      "channel": 2,
      "note": 72,
      "start": 11.4524,
      "duration": 0.002,
      "velocity": 102,
      "chip": "ym2612"
    },
    {
      "channel": 3,
      "note": 60,
      "start": 11.4529,
      "duration": 0.002,
      "velocity": 97,
      "chip": "ym2612"
    },
    {
      "channel": 4,
      "note": 65,
      "start": 11.4533,
      "duration": 0.0019,
      "velocity": 102,
      "chip": "ym2612"
    },
    {
      "channel": 0,
      "note": 92,
      "start": 11.4539,
      "duration": 0.0021,
      "velocity": 127,
      "chip": "ym2612"
    },
    {
      "channel": 1,
      "note": 65,
      "start": 11.4543,
      "duration": 0.0022,
      "velocity": 88,
      "chip": "ym2612"
    },
    {
      "channel": 2,
      "note": 75,
      "start": 11.4548,
      "duration": 0.0019,
      "velocity": 102,
      "chip": "ym2612"
    },
    {
      "channel": 3,
      "note": 65,
      "start": 11.4551,
      "duration": 0.0019,
      "velocity": 97,
      "chip": "ym2612"
    },
    {
      "channel": 4,
      "note": 66,
      "start": 11.4555,
      "duration": 0.0016,
      "velocity": 102,
      "chip": "ym2612"
    },
    {
      "channel": 0,
      "note": 92,
      "start": 11.4565,
      "duration": 0.0014,
      "velocity": 127,
      "chip": "ym2612"
    },
    {
      "channel": 2,
      "note": 79,
      "start": 11.4569,
      "duration": 0.0015,
      "velocity": 102,
      "chip": "ym2612"
    },
    {
      "channel": 4,
      "note": 67,
      "start": 11.4575,
      "duration": 0.0015,
      "velocity": 102,
      "chip": "ym2612"
    },
    {
      "channel": 0,
      "note": 92,
      "start": 11.4582,
      "duration": 0.0015,
      "velocity": 127,
      "chip": "ym2612"
    },
    {
      "channel": 1,
      "note": 65,
      "start": 11.4583,
      "duration": 0.0016,
      "velocity": 88,
      "chip": "ym2612"
    },
    {
      "channel": 2,
      "note": 72,
      "start": 11.4588,
      "duration": 0.0015,
      "velocity": 102,
      "chip": "ym2612"
    },
    {
      "channel": 3,
      "note": 65,
      "start": 11.459,
      "duration": 0.0016,
      "velocity": 97,
      "chip": "ym2612"
    },
    {
      "channel": 4,
      "note": 65,
      "start": 11.4593,
      "duration": 0.0017,
      "velocity": 102,
      "chip": "ym2612"
    },
    {
      "channel": 0,
      "note": 92,
      "start": 11.4598,
      "duration": 0.0488,
      "velocity": 127,
      "chip": "ym2612"
    },
    {
      "channel": 1,
      "note": 60,
      "start": 11.4602,
      "duration": 0.0989,
      "velocity": 88,
      "chip": "ym2612"
    },
    {
      "channel": 2,
      "note": 75,
      "start": 11.4605,
      "duration": 0.0991,
      "velocity": 102,
      "chip": "ym2612"
    },
    {
      "channel": 3,
      "note": 60,
      "start": 11.4609,
      "duration": 0.0992,
      "velocity": 97,
      "chip": "ym2612"
    },
    {
      "channel": 4,
      "note": 66,
      "start": 11.4614,
      "duration": 0.0992,
      "velocity": 102,
      "chip": "ym2612"
    },
    {
      "channel": 0,
      "note": 92,
      "start": 11.559,
      "duration": 0.0027,
      "velocity": 127,
      "chip": "ym2612"
    },
    {
      "channel": 1,
      "note": 53,
      "start": 11.5595,
      "duration": 0.0036,
      "velocity": 88,
      "chip": "ym2612"
    },
    {
      "channel": 2,
      "note": 79,
      "start": 11.56,
      "duration": 0.0035,
      "velocity": 102,
      "chip": "ym2612"
    },
    {
      "channel": 3,
      "note": 53,
      "start": 11.5605,
      "duration": 0.0033,
      "velocity": 97,
      "chip": "ym2612"
    },
    {
      "channel": 4,
      "note": 67,
      "start": 11.561,
      "duration": 0.0032,
      "velocity": 102,
      "chip": "ym2612"
    },
    {
      "channel": 0,
      "note": 111,
      "start": 11.563,
      "duration": 0.0046,
      "velocity": 127,
      "chip": "ym2612"
    },
    {
      "channel": 1,
      "note": 51,
      "start": 11.5634,
      "duration": 0.0054,
      "velocity": 88,
      "chip": "ym2612"
    },
    {
      "channel": 2,
      "note": 72,
      "start": 11.5637,
      "duration": 0.0021,
      "velocity": 102,
      "chip": "ym2612"
    },
    {
      "channel": 3,
      "note": 51,
      "start": 11.5641,
      "duration": 0.0055,
      "velocity": 97,
      "chip": "ym2612"
    },
    {
      "channel": 4,
      "note": 65,
      "start": 11.5646,
      "duration": 0.0017,
      "velocity": 102,
      "chip": "ym2612"
    },
    {
      "channel": 2,
      "note": 75,
      "start": 11.5661,
      "duration": 0.0031,
      "velocity": 102,
      "chip": "ym2612"
    },
    {
      "channel": 4,
      "note": 66,
      "start": 11.5666,
      "duration": 0.0034,
      "velocity": 102,
      "chip": "ym2612"
    },
    {
      "channel": 0,
      "note": 92,
      "start": 11.5687,
      "duration": 0.0021,
      "velocity": 127,
      "chip": "ym2612"
    },
    {
      "channel": 1,
      "note": 52,
      "start": 11.5692,
      "duration": 0.0047,
      "velocity": 88,
      "chip": "ym2612"
    },
    {
      "channel": 2,
      "note": 79,
      "start": 11.5695,
      "duration": 0.0022,
      "velocity": 102,
      "chip": "ym2612"
    },
    {
      "channel": 3,
      "note": 52,
      "start": 11.5699,
      "duration": 0.0044,
      "velocity": 97,
      "chip": "ym2612"
    },
    {
      "channel": 4,
      "note": 67,
      "start": 11.5702,
      "duration": 0.002,
      "velocity": 102,
      "chip": "ym2612"
    },
    {
      "channel": 0,
      "note": 92,
      "start": 11.5716,
      "duration": 0.0017,
      "velocity": 127,
      "chip": "ym2612"
    },
    {
      "channel": 2,
      "note": 72,
      "start": 11.5721,
      "duration": 0.0033,
      "velocity": 102,
      "chip": "ym2612"
    },
    {
      "channel": 4,
      "note": 65,
      "start": 11.5726,
      "duration": 0.0033,
      "velocity": 102,
      "chip": "ym2612"
    },
    {
      "channel": 0,
      "note": 92,
      "start": 11.5738,
      "duration": 0.0012,
      "velocity": 127,
      "chip": "ym2612"
    },
    {
      "channel": 1,
      "note": 53,
      "start": 11.5741,
      "duration": 0.0028,
      "velocity": 88,
      "chip": "ym2612"
    },
    {
      "channel": 3,
      "note": 53,
      "start": 11.5746,
      "duration": 0.003,
      "velocity": 97,
      "chip": "ym2612"
    },
    {
      "channel": 0,
      "note": 92,
      "start": 11.5752,
      "duration": 0.0014,
      "velocity": 127,
      "chip": "ym2612"
    },
    {
      "channel": 2,
      "note": 75,
      "start": 11.5757,
      "duration": 0.0016,
      "velocity": 102,
      "chip": "ym2612"
    },
    {
      "channel": 4,
      "note": 67,
      "start": 11.5762,
      "duration": 0.0018,
      "velocity": 102,
      "chip": "ym2612"
    },
    {
      "channel": 0,
      "note": 92,
      "start": 11.5769,
      "duration": 0.0488,
      "velocity": 127,
      "chip": "ym2612"
    },
    {
      "channel": 1,
      "note": 65,
      "start": 11.5772,
      "duration": 0.099,
      "velocity": 88,
      "chip": "ym2612"
    },
    {
      "channel": 2,
      "note": 80,
      "start": 11.5776,
      "duration": 0.0992,
      "velocity": 102,
      "chip": "ym2612"
    },
    {
      "channel": 3,
      "note": 65,
      "start": 11.5779,
      "duration": 0.0993,
      "velocity": 97,
      "chip": "ym2612"
    },
    {
      "channel": 4,
      "note": 68,
      "start": 11.5783,
      "duration": 0.0994,
      "velocity": 102,
      "chip": "ym2612"
    },
    {
      "channel": 0,
      "note": 92,
      "start": 11.6761,
      "duration": 0.0056,
      "velocity": 127,
      "chip": "ym2612"
    },
    {
      "channel": 1,
      "note": 53,
      "start": 11.6766,
      "duration": 0.0066,
      "velocity": 88,
      "chip": "ym2612"
    },
    {
      "channel": 2,
      "note": 72,
      "start": 11.6771,
      "duration": 0.0064,
      "velocity": 102,
      "chip": "ym2612"
    },
    {
      "channel": 3,
      "note": 53,
      "start": 11.6776,
      "duration": 0.0062,
      "velocity": 97,
      "chip": "ym2612"
    },
    {
      "channel": 4,
      "note": 65,
      "start": 11.6781,
      "duration": 0.006,
      "velocity": 102,
      "chip": "ym2612"
    },
    {
      "channel": 0,
      "note": 111,
      "start": 11.6832,
      "duration": 0.0042,
      "velocity": 127,
      "chip": "ym2612"
    },
    {
      "channel": 1,
      "note": 53,
      "start": 11.6834,
      "duration": 0.0021,
      "velocity": 88,
      "chip": "ym2612"
    },
    {
      "channel": 2,
      "note": 75,
      "start": 11.6837,
      "duration": 0.0022,
      "velocity": 102,
      "chip": "ym2612"
    },
    {
      "channel": 3,
      "note": 53,
      "start": 11.6839,
      "duration": 0.0024,
      "velocity": 97,
      "chip": "ym2612"
    },
    {
      "channel": 4,
      "note": 67,
      "start": 11.6844,
      "duration": 0.0022,
      "velocity": 102,
      "chip": "ym2612"
    },
    {
      "channel": 1,
      "note": 60,
      "start": 11.6858,
      "duration": 0.0029,
      "velocity": 88,
      "chip": "ym2612"
    },
    {
      "channel": 2,
      "note": 80,
      "start": 11.6862,
      "duration": 0.003,
      "velocity": 102,
      "chip": "ym2612"
    },
    {
      "channel": 3,
      "note": 60,
      "start": 11.6866,
      "duration": 0.0029,
      "velocity": 97,
      "chip": "ym2612"
    },
    {
      "channel": 4,
      "note": 68,
      "start": 11.6869,
      "duration": 0.0029,
      "velocity": 102,
      "chip": "ym2612"
    },
    {
      "channel": 0,
      "note": 92,
      "start": 11.6886,
      "duration": 0.0018,
      "velocity": 127,
      "chip": "ym2612"
    },
    {
      "channel": 1,
      "note": 56,
      "start": 11.689,
      "duration": 0.0018,
      "velocity": 88,
      "chip": "ym2612"
    },
    {
      "channel": 2,
      "note": 72,
      "start": 11.6894,
      "duration": 0.0018,
      "velocity": 102,
      "chip": "ym2612"
    },
    {
      "channel": 3,
      "note": 56,
      "start": 11.6898,
      "duration": 0.0017,
      "velocity": 97,
      "chip": "ym2612"
    },
    {
      "channel": 4,
      "note": 65,
      "start": 11.6902,
      "duration": 0.0017,
      "velocity": 102,
      "chip": "ym2612"
    },
    {
      "channel": 0,
      "note": 92,
      "start": 11.6907,
      "duration": 0.0018,
      "velocity": 127,
      "chip": "ym2612"
    },
    {
      "channel": 1,
      "note": 65,
      "start": 11.6911,
      "duration": 0.0022,
      "velocity": 88,
      "chip": "ym2612"
    },
    {
      "channel": 2,
      "note": 75,
      "start": 11.6914,
      "duration": 0.002,
      "velocity": 102,
      "chip": "ym2612"
    },
    {
      "channel": 3,
      "note": 65,
      "start": 11.6918,
      "duration": 0.002,
      "velocity": 97,
      "chip": "ym2612"
    },
    {
      "channel": 4,
      "note": 67,
      "start": 11.6922,
      "duration": 0.0018,
      "velocity": 102,
      "chip": "ym2612"
    },
    {
      "channel": 0,
      "note": 92,
      "start": 11.6932,
      "duration": 0.0014,
      "velocity": 127,
      "chip": "ym2612"
    },
    {
      "channel": 2,
      "note": 80,
      "start": 11.6938,
      "duration": 0.0013,
      "velocity": 102,
      "chip": "ym2612"
    },
    {
      "channel": 4,
      "note": 68,
      "start": 11.6943,
      "duration": 0.0012,
      "velocity": 102,
      "chip": "ym2612"
    },
    {
      "channel": 0,
      "note": 92,
      "start": 11.6949,
      "duration": 0.0013,
      "velocity": 127,
      "chip": "ym2612"
    },
    {
      "channel": 1,
      "note": 65,
      "start": 11.695,
      "duration": 0.0014,
      "velocity": 88,
      "chip": "ym2612"
    },
    {
      "channel": 2,
      "note": 72,
      "start": 11.6954,
      "duration": 0.0014,
      "velocity": 102,
      "chip": "ym2612"
    },
    {
      "channel": 3,
      "note": 65,
      "start": 11.6954,
      "duration": 0.0017,
      "velocity": 97,
      "chip": "ym2612"
    },
    {
      "channel": 4,
      "note": 65,
      "start": 11.6958,
      "duration": 0.0018,
      "velocity": 102,
      "chip": "ym2612"
    },
    {
      "channel": 0,
      "note": 92,
      "start": 11.6963,
      "duration": 0.0484,
      "velocity": 127,
      "chip": "ym2612"
    },
    {
      "channel": 1,
      "note": 60,
      "start": 11.6967,
      "duration": 0.0985,
      "velocity": 88,
      "chip": "ym2612"
    },
    {
      "channel": 2,
      "note": 75,
      "start": 11.697,
      "duration": 0.0988,
      "velocity": 102,
      "chip": "ym2612"
    },
    {
      "channel": 3,
      "note": 60,
      "start": 11.6975,
      "duration": 0.0988,
      "velocity": 97,
      "chip": "ym2612"
    },
    {
      "channel": 4,
      "note": 67,
      "start": 11.6979,
      "duration": 0.0989,
      "velocity": 102,
      "chip": "ym2612"
    },
    {
      "channel": 0,
      "note": 92,
      "start": 11.7951,
      "duration": 0.0028,
      "velocity": 127,
      "chip": "ym2612"
    },
    {
      "channel": 1,
      "note": 53,
      "start": 11.7956,
      "duration": 0.0037,
      "velocity": 88,
      "chip": "ym2612"
    },
    {
      "channel": 2,
      "note": 80,
      "start": 11.7962,
      "duration": 0.0036,
      "velocity": 102,
      "chip": "ym2612"
    },
    {
      "channel": 3,
      "note": 53,
      "start": 11.7967,
      "duration": 0.0034,
      "velocity": 97,
      "chip": "ym2612"
    },
    {
      "channel": 4,
      "note": 68,
      "start": 11.7972,
      "duration": 0.0034,
      "velocity": 102,
      "chip": "ym2612"
    },
    {
      "channel": 0,
      "note": 111,
      "start": 11.7993,
      "duration": 0.0047,
      "velocity": 127,
      "chip": "ym2612"
    },
    {
      "channel": 1,
      "note": 56,
      "start": 11.7996,
      "duration": 0.0024,
      "velocity": 88,
      "chip": "ym2612"
    },
    {
      "channel": 2,
      "note": 72,
      "start": 11.8,
      "duration": 0.0023,
      "velocity": 102,
      "chip": "ym2612"
    },
    {
      "channel": 3,
      "note": 56,
      "start": 11.8004,
      "duration": 0.0023,
      "velocity": 97,
      "chip": "ym2612"
    },
    {
      "channel": 4,
      "note": 65,
      "start": 11.801,
      "duration": 0.0021,
      "velocity": 102,
      "chip": "ym2612"
    },
    {
      "channel": 1,
      "note": 68,
      "start": 11.8023,
      "duration": 0.003,
      "velocity": 88,
      "chip": "ym2612"
    },
    {
      "channel": 2,
      "note": 75,
      "start": 11.8026,
      "duration": 0.0033,
      "velocity": 102,
      "chip": "ym2612"
    },
    {
      "channel": 3,
      "note": 68,
      "start": 11.803,
      "duration": 0.0035,
      "velocity": 97,
      "chip": "ym2612"
    },
    {
      "channel": 4,
      "note": 67,
      "start": 11.8034,
      "duration": 0.0035,
      "velocity": 102,
      "chip": "ym2612"
    },
    {
      "channel": 0,
      "note": 92,
      "start": 11.8053,
      "duration": 0.0029,
      "velocity": 127,
      "chip": "ym2612"
    },
    {
      "channel": 1,
      "note": 58,
      "start": 11.8058,
      "duration": 0.003,
      "velocity": 88,
      "chip": "ym2612"
    },
    {
      "channel": 2,
      "note": 80,
      "start": 11.8063,
      "duration": 0.0029,
      "velocity": 102,
      "chip": "ym2612"
    },
    {
      "channel": 3,
      "note": 58,
      "start": 11.8069,
      "duration": 0.0029,
      "velocity": 97,
      "chip": "ym2612"
    },
    {
      "channel": 4,
      "note": 68,
      "start": 11.8074,
      "duration": 0.0029,
      "velocity": 102,
      "chip": "ym2612"
    },
    {
      "channel": 0,
      "note": 92,
      "start": 11.8087,
      "duration": 0.0029,
      "velocity": 127,
      "chip": "ym2612"
    },
    {
      "channel": 1,
      "note": 70,
      "start": 11.8092,
      "duration": 0.0035,
      "velocity": 88,
      "chip": "ym2612"
    },
    {
      "channel": 2,
      "note": 72,
      "start": 11.8097,
      "duration": 0.0065,
      "velocity": 102,
      "chip": "ym2612"
    },
    {
      "channel": 3,
      "note": 70,
      "start": 11.8103,
      "duration": 0.003,
      "velocity": 97,
      "chip": "ym2612"
    },
    {
      "channel": 4,
      "note": 65,
      "start": 11.8108,
      "duration": 0.0059,
      "velocity": 102,
      "chip": "ym2612"
    },
    {
      "channel": 0,
      "note": 92,
      "start": 11.8126,
      "duration": 0.0021,
      "velocity": 127,
      "chip": "ym2612"
    },
    {
      "channel": 1,
      "note": 53,
      "start": 11.8132,
      "duration": 0.0051,
      "velocity": 88,
      "chip": "ym2612"
    },
    {
      "channel": 3,
      "note": 53,
      "start": 11.8138,
      "duration": 0.005,
      "velocity": 97,
      "chip": "ym2612"
    },
    {
      "channel": 0,
      "note": 92,
      "start": 11.8161,
      "duration": 0.0018,
      "velocity": 127,
      "chip": "ym2612"
    },
    {
      "channel": 2,
      "note": 75,
      "start": 11.8166,
      "duration": 0.002,
      "velocity": 102,
      "chip": "ym2612"
    },
    {
      "channel": 4,
      "note": 66,
      "start": 11.8171,
      "duration": 0.002,
      "velocity": 102,
      "chip": "ym2612"
    },
    {
      "channel": 0,
      "note": 92,
      "start": 11.8182,
      "duration": 0.0014,
      "velocity": 127,
      "chip": "ym2612"
    },
    {
      "channel": 1,
      "note": 53,
      "start": 11.8185,
      "duration": 0.0027,
      "velocity": 88,
      "chip": "ym2612"
    },
    {
      "channel": 2,
      "note": 79,
      "start": 11.8188,
      "duration": 0.0029,
      "velocity": 102,
      "chip": "ym2612"
    },
    {
      "channel": 3,
      "note": 53,
      "start": 11.819,
      "duration": 0.0032,
      "velocity": 97,
      "chip": "ym2612"
    },
    {
      "channel": 4,
      "note": 67,
      "start": 11.8194,
      "duration": 0.0034,
      "velocity": 102,
      "chip": "ym2612"
    },
    {
      "channel": 0,
      "note": 92,
      "start": 11.821,
      "duration": 0.0027,
      "velocity": 127,
      "chip": "ym2612"
    },
    {
      "channel": 1,
      "note": 65,
      "start": 11.8215,
      "duration": 0.0036,
      "velocity": 88,
      "chip": "ym2612"
    },
    {
      "channel": 2,
      "note": 72,
      "start": 11.8221,
      "duration": 0.0034,
      "velocity": 102,
      "chip": "ym2612"
    },
    {
      "channel": 3,
      "note": 65,
      "start": 11.8226,
      "duration": 0.0033,
      "velocity": 97,
      "chip": "ym2612"
    },
    {
      "channel": 4,
      "note": 65,
      "start": 11.8231,
      "duration": 0.0032,
      "velocity": 102,
      "chip": "ym2612"
    },
    {
      "channel": 0,
      "note": 111,
      "start": 11.825,
      "duration": 0.0051,
      "velocity": 127,
      "chip": "ym2612"
    },
    {
      "channel": 1,
      "note": 53,
      "start": 11.8254,
      "duration": 0.0018,
      "velocity": 88,
      "chip": "ym2612"
    },
    {
      "channel": 2,
      "note": 75,
      "start": 11.8258,
      "duration": 0.0019,
      "velocity": 102,
      "chip": "ym2612"
    },
    {
      "channel": 3,
      "note": 53,
      "start": 11.8262,
      "duration": 0.0021,
      "velocity": 97,
      "chip": "ym2612"
    },
    {
      "channel": 4,
      "note": 66,
      "start": 11.8265,
      "duration": 0.0023,
      "velocity": 102,
      "chip": "ym2612"
    },
    {
      "channel": 1,
      "note": 56,
      "start": 11.8276,
      "duration": 0.0038,
      "velocity": 88,
      "chip": "ym2612"
    },
    {
      "channel": 2,
      "note": 79,
      "start": 11.8282,
      "duration": 0.0035,
      "velocity": 102,
      "chip": "ym2612"
    },
    {
      "channel": 3,
      "note": 56,
      "start": 11.8287,
      "duration": 0.0034,
      "velocity": 97,
      "chip": "ym2612"
    },
    {
      "channel": 4,
      "note": 67,
      "start": 11.8292,
      "duration": 0.0033,
      "velocity": 102,
      "chip": "ym2612"
    },
    {
      "channel": 0,
      "note": 92,
      "start": 11.8313,
      "duration": 0.0018,
      "velocity": 127,
      "chip": "ym2612"
    },
    {
      "channel": 1,
      "note": 60,
      "start": 11.8315,
      "duration": 0.002,
      "velocity": 88,
      "chip": "ym2612"
    },
    {
      "channel": 2,
      "note": 72,
      "start": 11.832,
      "duration": 0.002,
      "velocity": 102,
      "chip": "ym2612"
    },
    {
      "channel": 3,
      "note": 60,
      "start": 11.8324,
      "duration": 0.0018,
      "velocity": 97,
      "chip": "ym2612"
    },
    {
      "channel": 4,
      "note": 65,
      "start": 11.8327,
      "duration": 0.0019,
      "velocity": 102,
      "chip": "ym2612"
    },
    {
      "channel": 0,
      "note": 92,
      "start": 11.8334,
      "duration": 0.0017,
      "velocity": 127,
      "chip": "ym2612"
    },
    {
      "channel": 1,
      "note": 65,
      "start": 11.8339,
      "duration": 0.0021,
      "velocity": 88,
      "chip": "ym2612"
    },
    {
      "channel": 2,
      "note": 75,
      "start": 11.8341,
      "duration": 0.0022,
      "velocity": 102,
      "chip": "ym2612"
    },
    {
      "channel": 3,
      "note": 65,
      "start": 11.8345,
      "duration": 0.0023,
      "velocity": 97,
      "chip": "ym2612"
    },
    {
      "channel": 4,
      "note": 66,
      "start": 11.8349,
      "duration": 0.0023,
      "velocity": 102,
      "chip": "ym2612"
    },
    {
      "channel": 0,
      "note": 92,
      "start": 11.8359,
      "duration": 0.0026,
      "velocity": 127,
      "chip": "ym2612"
    },
    {
      "channel": 1,
      "note": 51,
      "start": 11.8362,
      "duration": 0.0045,
      "velocity": 88,
      "chip": "ym2612"
    },
    {
      "channel": 2,
      "note": 79,
      "start": 11.8368,
      "duration": 0.0021,
      "velocity": 102,
      "chip": "ym2612"
    },
    {
      "channel": 3,
      "note": 51,
      "start": 11.8371,
      "duration": 0.0044,
      "velocity": 97,
      "chip": "ym2612"
    },
    {
      "channel": 4,
      "note": 67,
      "start": 11.8377,
      "duration": 0.0015,
      "velocity": 102,
      "chip": "ym2612"
    },
    {
      "channel": 0,
      "note": 92,
      "start": 11.8388,
      "duration": 0.0015,
      "velocity": 127,
      "chip": "ym2612"
    },
    {
      "channel": 2,
      "note": 72,
      "start": 11.8392,
      "duration": 0.0019,
      "velocity": 102,
      "chip": "ym2612"
    },
    {
      "channel": 4,
      "note": 65,
      "start": 11.8394,
      "duration": 0.0025,
      "velocity": 102,
      "chip": "ym2612"
    },
    {
      "channel": 0,
      "note": 92,
      "start": 11.8406,
      "duration": 0.0017,
      "velocity": 127,
      "chip": "ym2612"
    },
    {
      "channel": 1,
      "note": 63,
      "start": 11.841,
      "duration": 0.0054,
      "velocity": 88,
      "chip": "ym2612"
    },
    {
      "channel": 2,
      "note": 75,
      "start": 11.8414,
      "duration": 0.0025,
      "velocity": 102,
      "chip": "ym2612"
    },
    {
      "channel": 3,
      "note": 63,
      "start": 11.8418,
      "duration": 0.0055,
      "velocity": 97,
      "chip": "ym2612"
    },
    {
      "channel": 4,
      "note": 66,
      "start": 11.8421,
      "duration": 0.0022,
      "velocity": 102,
      "chip": "ym2612"
    },
    {
      "channel": 0,
      "note": 92,
      "start": 11.8439,
      "duration": 0.0011,
      "velocity": 127,
      "chip": "ym2612"
    },
    {
      "channel": 2,
      "note": 79,
      "start": 11.8441,
      "duration": 0.0026,
      "velocity": 102,
      "chip": "ym2612"
    },
    {
      "channel": 4,
      "note": 67,
      "start": 11.8446,
      "duration": 0.0031,
      "velocity": 102,
      "chip": "ym2612"
    },
    {
      "channel": 0,
      "note": 111,
      "start": 11.8463,
      "duration": 0.004,
      "velocity": 127,
      "chip": "ym2612"
    },
    {
      "channel": 1,
      "note": 52,
      "start": 11.8467,
      "duration": 0.005,
      "velocity": 88,
      "chip": "ym2612"
    },
    {
      "channel": 2,
      "note": 72,
      "start": 11.8472,
      "duration": 0.0015,
      "velocity": 102,
      "chip": "ym2612"
    },
    {
      "channel": 3,
      "note": 52,
      "start": 11.8476,
      "duration": 0.0047,
      "velocity": 97,
      "chip": "ym2612"
    },
    {
      "channel": 4,
      "note": 65,
      "start": 11.848,
      "duration": 0.0009,
      "velocity": 102,
      "chip": "ym2612"
    },
    {
      "channel": 2,
      "note": 75,
      "start": 11.8488,
      "duration": 0.0032,
      "velocity": 102,
      "chip": "ym2612"
    },
    {
      "channel": 4,
      "note": 66,
      "start": 11.8492,
      "duration": 0.0034,
      "velocity": 102,
      "chip": "ym2612"
    },
    {
      "channel": 0,
      "note": 92,
      "start": 11.8516,
      "duration": 0.0015,
      "velocity": 127,
      "chip": "ym2612"
    },
    {
      "channel": 1,
      "note": 64,
      "start": 11.8519,
      "duration": 0.004,
      "velocity": 88,
      "chip": "ym2612"
    },
    {
      "channel": 2,
      "note": 79,
      "start": 11.8522,
      "duration": 0.0018,
      "velocity": 102,
      "chip": "ym2612"
    },
    {
      "channel": 3,
      "note": 64,
      "start": 11.8525,
      "duration": 0.0041,
      "velocity": 97,
      "chip": "ym2612"
    },
    {
      "channel": 4,
      "note": 67,
      "start": 11.8528,
      "duration": 0.0017,
      "velocity": 102,
      "chip": "ym2612"
    },
    {
      "channel": 0,
      "note": 92,
      "start": 11.8539,
      "duration": 0.0013,
      "velocity": 127,
      "chip": "ym2612"
    },
    {
      "channel": 2,
      "note": 72,
      "start": 11.8544,
      "duration": 0.0019,
      "velocity": 102,
      "chip": "ym2612"
    },
    {
      "channel": 4,
      "note": 65,
      "start": 11.8549,
      "duration": 0.0022,
      "velocity": 102,
      "chip": "ym2612"
    },
    {
      "channel": 0,
      "note": 92,
      "start": 11.8559,
      "duration": 0.0018,
      "velocity": 127,
      "chip": "ym2612"
    },
    {
      "channel": 1,
      "note": 53,
      "start": 11.8561,
      "duration": 0.0032,
      "velocity": 88,
      "chip": "ym2612"
    },
    {
      "channel": 2,
      "note": 60,
      "start": 11.8565,
      "duration": 0.0016,
      "velocity": 102,
      "chip": "ym2612"
    },
    {
      "channel": 3,
      "note": 53,
      "start": 11.8569,
      "duration": 0.0028,
      "velocity": 97,
      "chip": "ym2612"
    },
    {
      "channel": 4,
      "note": 60,
      "start": 11.8573,
      "duration": 0.0012,
      "velocity": 102,
      "chip": "ym2612"
    },
    {
      "channel": 0,
      "note": 92,
      "start": 11.858,
      "duration": 0.0011,
      "velocity": 127,
      "chip": "ym2612"
    },
    {
      "channel": 2,
      "note": 77,
      "start": 11.8583,
      "duration": 0.0011,
      "velocity": 102,
      "chip": "ym2612"
    },
    {
      "channel": 4,
      "note": 60,
      "start": 11.8587,
      "duration": 0.0013,
      "velocity": 102,
      "chip": "ym2612"
    },
    {
      "channel": 0,
      "note": 92,
      "start": 11.8592,
      "duration": 0.048,
      "velocity": 127,
      "chip": "ym2612"
    },
    {
      "channel": 1,
      "note": 53,
      "start": 11.8594,
      "duration": 0.0983,
      "velocity": 88,
      "chip": "ym2612"
    },
    {
      "channel": 2,
      "note": 60,
      "start": 11.8598,
      "duration": 0.0985,
      "velocity": 102,
      "chip": "ym2612"
    },
    {
      "channel": 3,
      "note": 53,
      "start": 11.8599,
      "duration": 0.0988,
      "velocity": 97,
      "chip": "ym2612"
    },
    {
      "channel": 4,
      "note": 72,
      "start": 11.8603,
      "duration": 0.099,
      "velocity": 102,
      "chip": "ym2612"
    },
    {
      "channel": 0,
      "note": 92,
      "start": 11.9576,
      "duration": 0.0028,
      "velocity": 127,
      "chip": "ym2612"
    },
    {
      "channel": 1,
      "note": 65,
      "start": 11.9581,
      "duration": 0.0036,
      "velocity": 88,
      "chip": "ym2612"
    },
    {
      "channel": 2,
      "note": 75,
      "start": 11.9586,
      "duration": 0.0034,
      "velocity": 102,
      "chip": "ym2612"
    },
    {
      "channel": 3,
      "note": 65,
      "start": 11.9591,
      "duration": 0.0034,
      "velocity": 97,
      "chip": "ym2612"
    },
    {
      "channel": 4,
      "note": 60,
      "start": 11.9596,
      "duration": 0.0033,
      "velocity": 102,
      "chip": "ym2612"
    },
    {
      "channel": 0,
      "note": 111,
      "start": 11.9616,
      "duration": 0.0047,
      "velocity": 127,
      "chip": "ym2612"
    },
    {
      "channel": 1,
      "note": 53,
      "start": 11.962,
      "duration": 0.0023,
      "velocity": 88,
      "chip": "ym2612"
    },
    {
      "channel": 2,
      "note": 60,
      "start": 11.9624,
      "duration": 0.0024,
      "velocity": 102,
      "chip": "ym2612"
    },
    {
      "channel": 3,
      "note": 53,
      "start": 11.9628,
      "duration": 0.0022,
      "velocity": 97,
      "chip": "ym2612"
    },
    {
      "channel": 4,
      "note": 60,
      "start": 11.9634,
      "duration": 0.0022,
      "velocity": 102,
      "chip": "ym2612"
    },
    {
      "channel": 1,
      "note": 60,
      "start": 11.9646,
      "duration": 0.0031,
      "velocity": 88,
      "chip": "ym2612"
    },
    {
      "channel": 2,
      "note": 74,
      "start": 11.965,
      "duration": 0.0031,
      "velocity": 102,
      "chip": "ym2612"
    },
    {
      "channel": 3,
      "note": 60,
      "start": 11.9654,
      "duration": 0.0031,
      "velocity": 97,
      "chip": "ym2612"
    },
    {
      "channel": 4,
      "note": 72,
      "start": 11.9658,
      "duration": 0.0032,
      "velocity": 102,
      "chip": "ym2612"
    },
    {
      "channel": 0,
      "note": 92,
      "start": 11.9676,
      "duration": 0.002,
      "velocity": 127,
      "chip": "ym2612"
    },
    {
      "channel": 1,
      "note": 56,
      "start": 11.968,
      "duration": 0.002,
      "velocity": 88,
      "chip": "ym2612"
    },
    {
      "channel": 2,
      "note": 60,
      "start": 11.9684,
      "duration": 0.0021,
      "velocity": 102,
      "chip": "ym2612"
    },
    {
      "channel": 3,
      "note": 56,
      "start": 11.9689,
      "duration": 0.002,
      "velocity": 97,
      "chip": "ym2612"
    },
    {
      "channel": 4,
      "note": 60,
      "start": 11.9693,
      "duration": 0.0019,
      "velocity": 102,
      "chip": "ym2612"
    },
    {
      "channel": 0,
      "note": 92,
      "start": 11.9699,
      "duration": 0.0016,
      "velocity": 127,
      "chip": "ym2612"
    },
    {
      "channel": 1,
      "note": 65,
      "start": 11.9704,
      "duration": 0.002,
      "velocity": 88,
      "chip": "ym2612"
    },
    {
      "channel": 2,
      "note": 75,
      "start": 11.9708,
      "duration": 0.002,
      "velocity": 102,
      "chip": "ym2612"
    },
    {
      "channel": 3,
      "note": 65,
      "start": 11.9711,
      "duration": 0.0022,
      "velocity": 97,
      "chip": "ym2612"
    },
    {
      "channel": 4,
      "note": 60,
      "start": 11.9713,
      "duration": 0.0023,
      "velocity": 102,
      "chip": "ym2612"
    },
    {
      "channel": 0,
      "note": 92,
      "start": 11.9723,
      "duration": 0.0019,
      "velocity": 127,
      "chip": "ym2612"
    },
    {
      "channel": 1,
      "note": 56,
      "start": 11.9727,
      "duration": 0.0032,
      "velocity": 88,
      "chip": "ym2612"
    },
    {
      "channel": 2,
      "note": 60,
      "start": 11.9731,
      "duration": 0.0015,
      "velocity": 102,
      "chip": "ym2612"
    },
    {
      "channel": 3,
      "note": 56,
      "start": 11.9736,
      "duration": 0.003,
      "velocity": 97,
      "chip": "ym2612"
    },
    {
      "channel": 4,
      "note": 72,
      "start": 11.974,
      "duration": 0.001,
      "velocity": 102,
      "chip": "ym2612"
    },
    {
      "channel": 0,
      "note": 92,
      "start": 11.9745,
      "duration": 0.001,
      "velocity": 127,
      "chip": "ym2612"
    },
    {
      "channel": 2,
      "note": 77,
      "start": 11.9749,
      "duration": 0.0013,
      "velocity": 102,
      "chip": "ym2612"
    },
    {
      "channel": 4,
      "note": 60,
      "start": 11.9752,
      "duration": 0.0015,
      "velocity": 102,
      "chip": "ym2612"
    },
    {
      "channel": 0,
      "note": 92,
      "start": 11.9758,
      "duration": 0.048,
      "velocity": 127,
      "chip": "ym2612"
    },
    {
      "channel": 1,
      "note": 56,
      "start": 11.9761,
      "duration": 0.0982,
      "velocity": 88,
      "chip": "ym2612"
    },
    {
      "channel": 2,
      "note": 60,
      "start": 11.9765,
      "duration": 0.0983,
      "velocity": 102,
      "chip": "ym2612"
    },
    {
      "channel": 3,
      "note": 56,
      "start": 11.9767,
      "duration": 0.0986,
      "velocity": 97,
      "chip": "ym2612"
    },
    {
      "channel": 4,
      "note": 60,
      "start": 11.9768,
      "duration": 0.0989,
      "velocity": 102,
      "chip": "ym2612"
    },
    {
      "channel": 0,
      "note": 92,
      "start": 12.0742,
      "duration": 0.0027,
      "velocity": 127,
      "chip": "ym2612"
    },
    {
      "channel": 1,
      "note": 56,
      "start": 12.0746,
      "duration": 0.0036,
      "velocity": 88,
      "chip": "ym2612"
    },
    {
      "channel": 2,
      "note": 79,
      "start": 12.0751,
      "duration": 0.0035,
      "velocity": 102,
      "chip": "ym2612"
    },
    {
      "channel": 3,
      "note": 56,
      "start": 12.0756,
      "duration": 0.0034,
      "velocity": 97,
      "chip": "ym2612"
    },
    {
      "channel": 4,
      "note": 72,
      "start": 12.0762,
      "duration": 0.0034,
      "velocity": 102,
      "chip": "ym2612"
    },
    {
      "channel": 0,
      "note": 111,
      "start": 12.0782,
      "duration": 0.0038,
      "velocity": 127,
      "chip": "ym2612"
    },
    {
      "channel": 1,
      "note": 58,
      "start": 12.0786,
      "duration": 0.0048,
      "velocity": 88,
      "chip": "ym2612"
    },
    {
      "channel": 2,
      "note": 60,
      "start": 12.0789,
      "duration": 0.0021,
      "velocity": 102,
      "chip": "ym2612"
    },
    {
      "channel": 3,
      "note": 58,
      "start": 12.0794,
      "duration": 0.0046,
      "velocity": 97,
      "chip": "ym2612"
    },
    {
      "channel": 4,
      "note": 60,
      "start": 12.08,
      "duration": 0.0015,
      "velocity": 102,
      "chip": "ym2612"
    },
    {
      "channel": 2,
      "note": 80,
      "start": 12.0813,
      "duration": 0.0024,
      "velocity": 102,
      "chip": "ym2612"
    },
    {
      "channel": 4,
      "note": 60,
      "start": 12.0815,
      "duration": 0.0029,
      "velocity": 102,
      "chip": "ym2612"
    },
    {
      "channel": 0,
      "note": 92,
      "start": 12.0833,
      "duration": 0.0016,
      "velocity": 127,
      "chip": "ym2612"
    },
    {
      "channel": 1,
      "note": 58,
      "start": 12.0835,
      "duration": 0.0018,
      "velocity": 88,
      "chip": "ym2612"
    },
    {
      "channel": 2,
      "note": 60,
      "start": 12.0839,
      "duration": 0.0017,
      "velocity": 102,
      "chip": "ym2612"
    },
    {
      "channel": 3,
      "note": 58,
      "start": 12.0842,
      "duration": 0.0018,
      "velocity": 97,
      "chip": "ym2612"
    },
    {
      "channel": 4,
      "note": 72,
      "start": 12.0846,
      "duration": 0.0016,
      "velocity": 102,
      "chip": "ym2612"
    },
    {
      "channel": 0,
      "note": 92,
      "start": 12.0853,
      "duration": 0.0015,
      "velocity": 127,
      "chip": "ym2612"
    },
    {
      "channel": 1,
      "note": 58,
      "start": 12.0856,
      "duration": 0.0019,
      "velocity": 88,
      "chip": "ym2612"
    },
    {
      "channel": 2,
      "note": 79,
      "start": 12.086,
      "duration": 0.0018,
      "velocity": 102,
      "chip": "ym2612"
    },
    {
      "channel": 3,
      "note": 58,
      "start": 12.0861,
      "duration": 0.002,
      "velocity": 97,
      "chip": "ym2612"
    },
    {
      "channel": 4,
      "note": 60,
      "start": 12.0865,
      "duration": 0.0021,
      "velocity": 102,
      "chip": "ym2612"
    },
    {
      "channel": 0,
      "note": 92,
      "start": 12.0874,
      "duration": 0.0014,
      "velocity": 127,
      "chip": "ym2612"
    },
    {
      "channel": 1,
      "note": 53,
      "start": 12.0877,
      "duration": 0.0028,
      "velocity": 88,
      "chip": "ym2612"
    },
    {
      "channel": 2,
      "note": 60,
      "start": 12.088,
      "duration": 0.0013,
      "velocity": 102,
      "chip": "ym2612"
    },
    {
      "channel": 3,
      "note": 53,
      "start": 12.0885,
      "duration": 0.0025,
      "velocity": 97,
      "chip": "ym2612"
    },
    {
      "channel": 4,
      "note": 60,
      "start": 12.0886,
      "duration": 0.0011,
      "velocity": 102,
      "chip": "ym2612"
    },
    {
      "channel": 0,
      "note": 92,
      "start": 12.0892,
      "duration": 0.0011,
      "velocity": 127,
      "chip": "ym2612"
    },
    {
      "channel": 2,
      "note": 82,
      "start": 12.0895,
      "duration": 0.0011,
      "velocity": 102,
      "chip": "ym2612"
    },
    {
      "channel": 4,
      "note": 60,
      "start": 12.0899,
      "duration": 0.0013,
      "velocity": 102,
      "chip": "ym2612"
    },
    {
      "channel": 0,
      "note": 92,
      "start": 12.0904,
      "duration": 0.048,
      "velocity": 127,
      "chip": "ym2612"
    },
    {
      "channel": 1,
      "note": 53,
      "start": 12.0906,
      "duration": 0.0983,
      "velocity": 88,
      "chip": "ym2612"
    },
    {
      "channel": 2,
      "note": 60,
      "start": 12.091,
      "duration": 0.0985,
      "velocity": 102,
      "chip": "ym2612"
    },
    {
      "channel": 3,
      "note": 53,
      "start": 12.0911,
      "duration": 0.0988,
      "velocity": 97,
      "chip": "ym2612"
    },
    {
      "channel": 4,
      "note": 72,
      "start": 12.0915,
      "duration": 0.099,
      "velocity": 102,
      "chip": "ym2612"
    },
    {
      "channel": 0,
      "note": 92,
      "start": 12.1888,
      "duration": 0.0028,
      "velocity": 127,
      "chip": "ym2612"
    },
    {
      "channel": 1,
      "note": 65,
      "start": 12.1893,
      "duration": 0.0036,
      "velocity": 88,
      "chip": "ym2612"
    },
    {
      "channel": 2,
      "note": 80,
      "start": 12.1898,
      "duration": 0.0034,
      "velocity": 102,
      "chip": "ym2612"
    },
    {
      "channel": 3,
      "note": 65,
      "start": 12.1903,
      "duration": 0.0034,
      "velocity": 97,
      "chip": "ym2612"
    },
    {
      "channel": 4,
      "note": 60,
      "start": 12.1908,
      "duration": 0.0033,
      "velocity": 102,
      "chip": "ym2612"
    },
    {
      "channel": 0,
      "note": 111,
      "start": 12.1928,
      "duration": 0.0047,
      "velocity": 127,
      "chip": "ym2612"
    },
    {
      "channel": 1,
      "note": 53,
      "start": 12.1932,
      "duration": 0.0023,
      "velocity": 88,
      "chip": "ym2612"
    },
    {
      "channel": 2,
      "note": 60,
      "start": 12.1936,
      "duration": 0.0024,
      "velocity": 102,
      "chip": "ym2612"
    },
    {
      "channel": 3,
      "note": 53,
      "start": 12.194,
      "duration": 0.0022,
      "velocity": 97,
      "chip": "ym2612"
    },
    {
      "channel": 4,
      "note": 60,
      "start": 12.1946,
      "duration": 0.0022,
      "velocity": 102,
      "chip": "ym2612"
    },
    {
      "channel": 1,
      "note": 56,
      "start": 12.1958,
      "duration": 0.0031,
      "velocity": 88,
      "chip": "ym2612"
    },
    {
      "channel": 2,
      "note": 82,
      "start": 12.1962,
      "duration": 0.0031,
      "velocity": 102,
      "chip": "ym2612"
    },
    {
      "channel": 3,
      "note": 56,
      "start": 12.1966,
      "duration": 0.0031,
      "velocity": 97,
      "chip": "ym2612"
    },
    {
      "channel": 4,
      "note": 72,
      "start": 12.197,
      "duration": 0.0032,
      "velocity": 102,
      "chip": "ym2612"
    },
    {
      "channel": 0,
      "note": 92,
      "start": 12.1988,
      "duration": 0.002,
      "velocity": 127,
      "chip": "ym2612"
    },
    {
      "channel": 1,
      "note": 60,
      "start": 12.1992,
      "duration": 0.002,
      "velocity": 88,
      "chip": "ym2612"
    },
    {
      "channel": 2,
      "note": 60,
      "start": 12.1996,
      "duration": 0.0021,
      "velocity": 102,
      "chip": "ym2612"
    },
    {
      "channel": 3,
      "note": 60,
      "start": 12.2001,
      "duration": 0.002,
      "velocity": 97,
      "chip": "ym2612"
    },
    {
      "channel": 4,
      "note": 60,
      "start": 12.2005,
      "duration": 0.0019,
      "velocity": 102,
      "chip": "ym2612"
    },
    {
      "channel": 0,
      "note": 92,
      "start": 12.2011,
      "duration": 0.0016,
      "velocity": 127,
      "chip": "ym2612"
    },
    {
      "channel": 1,
      "note": 65,
      "start": 12.2016,
      "duration": 0.002,
      "velocity": 88,
      "chip": "ym2612"
    },
    {
      "channel": 2,
      "note": 84,
      "start": 12.202,
      "duration": 0.0017,
      "velocity": 102,
      "chip": "ym2612"
    },
    {
      "channel": 3,
      "note": 65,
      "start": 12.2023,
      "duration": 0.0019,
      "velocity": 97,
      "chip": "ym2612"
    },
    {
      "channel": 4,
      "note": 60,
      "start": 12.2025,
      "duration": 0.0018,
      "velocity": 102,
      "chip": "ym2612"
    },
    {
      "channel": 0,
      "note": 92,
      "start": 12.2035,
      "duration": 0.0015,
      "velocity": 127,
      "chip": "ym2612"
    },
    {
      "channel": 2,
      "note": 60,
      "start": 12.204,
      "duration": 0.0017,
      "velocity": 102,
      "chip": "ym2612"
    },
    {
      "channel": 4,
      "note": 72,
      "start": 12.2046,
      "duration": 0.0016,
      "velocity": 102,
      "chip": "ym2612"
    },
    {
      "channel": 0,
      "note": 92,
      "start": 12.2053,
      "duration": 0.0017,
      "velocity": 127,
      "chip": "ym2612"
    },
    {
      "channel": 1,
      "note": 63,
      "start": 12.2056,
      "duration": 0.0015,
      "velocity": 88,
      "chip": "ym2612"
    },
    {
      "channel": 2,
      "note": 82,
      "start": 12.206,
      "duration": 0.0016,
      "velocity": 102,
      "chip": "ym2612"
    },
    {
      "channel": 3,
      "note": 63,
      "start": 12.2062,
      "duration": 0.0017,
      "velocity": 97,
      "chip": "ym2612"
    },
    {
      "channel": 4,
      "note": 60,
      "start": 12.2066,
      "duration": 0.0017,
      "velocity": 102,
      "chip": "ym2612"
    },
    {
      "channel": 0,
      "note": 92,
      "start": 12.2071,
      "duration": 0.0483,
      "velocity": 127,
      "chip": "ym2612"
    },
    {
      "channel": 1,
      "note": 65,
      "start": 12.2075,
      "duration": 0.0984,
      "velocity": 88,
      "chip": "ym2612"
    },
    {
      "channel": 2,
      "note": 60,
      "start": 12.2078,
      "duration": 0.0985,
      "velocity": 102,
      "chip": "ym2612"
    },
    {
      "channel": 3,
      "note": 65,
      "start": 12.2082,
      "duration": 0.0987,
      "velocity": 97,
      "chip": "ym2612"
    },
    {
      "channel": 4,
      "note": 60,
      "start": 12.2083,
      "duration": 0.099,
      "velocity": 102,
      "chip": "ym2612"
    },
    {
      "channel": 0,
      "note": 92,
      "start": 12.3058,
      "duration": 0.0027,
      "velocity": 127,
      "chip": "ym2612"
    },
    {
      "channel": 1,
      "note": 63,
      "start": 12.3062,
      "duration": 0.0036,
      "velocity": 88,
      "chip": "ym2612"
    },
    {
      "channel": 2,
      "note": 80,
      "start": 12.3068,
      "duration": 0.0035,
      "velocity": 102,
      "chip": "ym2612"
    },
    {
      "channel": 3,
      "note": 63,
      "start": 12.3073,
      "duration": 0.0033,
      "velocity": 97,
      "chip": "ym2612"
    },
    {
      "channel": 4,
      "note": 72,
      "start": 12.3078,
      "duration": 0.0032,
      "velocity": 102,
      "chip": "ym2612"
    },
    {
      "channel": 0,
      "note": 111,
      "start": 12.3098,
      "duration": 0.0057,
      "velocity": 127,
      "chip": "ym2612"
    },
    {
      "channel": 1,
      "note": 62,
      "start": 12.3102,
      "duration": 0.0023,
      "velocity": 88,
      "chip": "ym2612"
    },
    {
      "channel": 2,
      "note": 60,
      "start": 12.3105,
      "duration": 0.0024,
      "velocity": 102,
      "chip": "ym2612"
    },
    {
      "channel": 3,
      "note": 62,
      "start": 12.3109,
      "duration": 0.0026,
      "velocity": 97,
      "chip": "ym2612"
    },
    {
      "channel": 4,
      "note": 60,
      "start": 12.3115,
      "duration": 0.0025,
      "velocity": 102,
      "chip": "ym2612"
    },
    {
      "channel": 1,
      "note": 63,
      "start": 12.3129,
      "duration": 0.0042,
      "velocity": 88,
      "chip": "ym2612"
    },
    {
      "channel": 2,
      "note": 79,
      "start": 12.3134,
      "duration": 0.0042,
      "velocity": 102,
      "chip": "ym2612"
    },
    {
      "channel": 3,
      "note": 63,
      "start": 12.3139,
      "duration": 0.0042,
      "velocity": 97,
      "chip": "ym2612"
    },
    {
      "channel": 4,
      "note": 60,
      "start": 12.3144,
      "duration": 0.0042,
      "velocity": 102,
      "chip": "ym2612"
    },
    {
      "channel": 0,
      "note": 92,
      "start": 12.317,
      "duration": 0.0029,
      "velocity": 127,
      "chip": "ym2612"
    },
    {
      "channel": 1,
      "note": 58,
      "start": 12.3174,
      "duration": 0.003,
      "velocity": 88,
      "chip": "ym2612"
    },
    {
      "channel": 2,
      "note": 60,
      "start": 12.318,
      "duration": 0.0029,
      "velocity": 102,
      "chip": "ym2612"
    },
    {
      "channel": 3,
      "note": 58,
      "start": 12.3185,
      "duration": 0.0029,
      "velocity": 97,
      "chip": "ym2612"
    },
    {
      "channel": 4,
      "note": 72,
      "start": 12.3191,
      "duration": 0.0029,
      "velocity": 102,
      "chip": "ym2612"
    },
    {
      "channel": 0,
      "note": 92,
      "start": 12.3203,
      "duration": 0.0028,
      "velocity": 127,
      "chip": "ym2612"
    },
    {
      "channel": 1,
      "note": 60,
      "start": 12.3208,
      "duration": 0.0029,
      "velocity": 88,
      "chip": "ym2612"
    },
    {
      "channel": 2,
      "note": 77,
      "start": 12.3214,
      "duration": 0.0027,
      "velocity": 102,
      "chip": "ym2612"
    },
    {
      "channel": 3,
      "note": 60,
      "start": 12.3219,
      "duration": 0.0026,
      "velocity": 97,
      "chip": "ym2612"
    },
    {
      "channel": 4,
      "note": 60,
      "start": 12.3224,
      "duration": 0.0024,
      "velocity": 102,
      "chip": "ym2612"
    },
    {
      "channel": 0,
      "note": 92,
      "start": 12.3236,
      "duration": 0.0017,
      "velocity": 127,
      "chip": "ym2612"
    },
    {
      "channel": 1,
      "note": 65,
      "start": 12.3239,
      "duration": 0.0017,
      "velocity": 88,
      "chip": "ym2612"
    },
    {
      "channel": 2,
      "note": 63,
      "start": 12.3243,
      "duration": 0.0017,
      "velocity": 102,
      "chip": "ym2612"
    },
    {
      "channel": 3,
      "note": 65,
      "start": 12.3247,
      "duration": 0.0017,
      "velocity": 97,
      "chip": "ym2612"
    },
    {
      "channel": 4,
      "note": 63,
      "start": 12.325,
      "duration": 0.0017,
      "velocity": 102,
      "chip": "ym2612"
    },
    {
      "channel": 0,
      "note": 92,
      "start": 12.3256,
      "duration": 0.0015,
      "velocity": 127,
      "chip": "ym2612"
    },
    {
      "channel": 1,
      "note": 53,
      "start": 12.3259,
      "duration": 0.1005,
      "velocity": 88,
      "chip": "ym2612"
    },
    {
      "channel": 2,
      "note": 75,
      "start": 12.3262,
      "duration": 0.0011,
      "velocity": 102,
      "chip": "ym2612"
    },
    {
      "channel": 3,
      "note": 53,
      "start": 12.3266,
      "duration": 0.1008,
      "velocity": 97,
      "chip": "ym2612"
    },
    {
      "channel": 4,
      "note": 63,
      "start": 12.3268,
      "duration": 0.0009,
      "velocity": 102,
      "chip": "ym2612"
    },
    {
      "channel": 0,
      "note": 92,
      "start": 12.3272,
      "duration": 0.0487,
      "velocity": 127,
      "chip": "ym2612"
    },
    {
      "channel": 2,
      "note": 63,
      "start": 12.3276,
      "duration": 0.0994,
      "velocity": 102,
      "chip": "ym2612"
    },
    {
      "channel": 4,
      "note": 75,
      "start": 12.328,
      "duration": 0.1,
      "velocity": 102,
      "chip": "ym2612"
    },
    {
      "channel": 0,
      "note": 92,
      "start": 12.4263,
      "duration": 0.0027,
      "velocity": 127,
      "chip": "ym2612"
    },
    {
      "channel": 1,
      "note": 65,
      "start": 12.4268,
      "duration": 0.0037,
      "velocity": 88,
      "chip": "ym2612"
    },
    {
      "channel": 2,
      "note": 74,
      "start": 12.4273,
      "duration": 0.0036,
      "velocity": 102,
      "chip": "ym2612"
    },
    {
      "channel": 3,
      "note": 65,
      "start": 12.4278,
      "duration": 0.0035,
      "velocity": 97,
      "chip": "ym2612"
    },
    {
      "channel": 4,
      "note": 63,
      "start": 12.4283,
      "duration": 0.0035,
      "velocity": 102,
      "chip": "ym2612"
    },
    {
      "channel": 0,
      "note": 111,
      "start": 12.4304,
      "duration": 0.0047,
      "velocity": 127,
      "chip": "ym2612"
    },
    {
      "channel": 1,
      "note": 53,
      "start": 12.4307,
      "duration": 0.0024,
      "velocity": 88,
      "chip": "ym2612"
    },
    {
      "channel": 2,
      "note": 63,
      "start": 12.4312,
      "duration": 0.0024,
      "velocity": 102,
      "chip": "ym2612"
    },
    {
      "channel": 3,
      "note": 53,
      "start": 12.4317,
      "duration": 0.0022,
      "velocity": 97,
      "chip": "ym2612"
    },
    {
      "channel": 4,
      "note": 63,
      "start": 12.4322,
      "duration": 0.0022,
      "velocity": 102,
      "chip": "ym2612"
    },
    {
      "channel": 1,
      "note": 60,
      "start": 12.4334,
      "duration": 0.0031,
      "velocity": 88,
      "chip": "ym2612"
    },
    {
      "channel": 2,
      "note": 72,
      "start": 12.4338,
      "duration": 0.0031,
      "velocity": 102,
      "chip": "ym2612"
    },
    {
      "channel": 3,
      "note": 60,
      "start": 12.4342,
      "duration": 0.0031,
      "velocity": 97,
      "chip": "ym2612"
    },
    {
      "channel": 4,
      "note": 75,
      "start": 12.4346,
      "duration": 0.0032,
      "velocity": 102,
      "chip": "ym2612"
    },
    {
      "channel": 0,
      "note": 92,
      "start": 12.4364,
      "duration": 0.002,
      "velocity": 127,
      "chip": "ym2612"
    },
    {
      "channel": 1,
      "note": 56,
      "start": 12.4368,
      "duration": 0.002,
      "velocity": 88,
      "chip": "ym2612"
    },
    {
      "channel": 2,
      "note": 63,
      "start": 12.4372,
      "duration": 0.0021,
      "velocity": 102,
      "chip": "ym2612"
    },
    {
      "channel": 3,
      "note": 56,
      "start": 12.4377,
      "duration": 0.002,
      "velocity": 97,
      "chip": "ym2612"
    },
    {
      "channel": 4,
      "note": 63,
      "start": 12.4381,
      "duration": 0.0019,
      "velocity": 102,
      "chip": "ym2612"
    },
    {
      "channel": 0,
      "note": 92,
      "start": 12.4388,
      "duration": 0.0016,
      "velocity": 127,
      "chip": "ym2612"
    },
    {
      "channel": 1,
      "note": 65,
      "start": 12.4392,
      "duration": 0.002,
      "velocity": 88,
      "chip": "ym2612"
    },
    {
      "channel": 2,
      "note": 70,
      "start": 12.4396,
      "duration": 0.0017,
      "velocity": 102,
      "chip": "ym2612"
    },
    {
      "channel": 3,
      "note": 65,
      "start": 12.4399,
      "duration": 0.0019,
      "velocity": 97,
      "chip": "ym2612"
    },
    {
      "channel": 4,
      "note": 63,
      "start": 12.4401,
      "duration": 0.0018,
      "velocity": 102,
      "chip": "ym2612"
    },
    {
      "channel": 0,
      "note": 92,
      "start": 12.4411,
      "duration": 0.0015,
      "velocity": 127,
      "chip": "ym2612"
    },
    {
      "channel": 2,
      "note": 63,
      "start": 12.4416,
      "duration": 0.0015,
      "velocity": 102,
      "chip": "ym2612"
    },
    {
      "channel": 4,
      "note": 75,
      "start": 12.4423,
      "duration": 0.0012,
      "velocity": 102,
      "chip": "ym2612"
    },
    {
      "channel": 0,
      "note": 92,
      "start": 12.4429,
      "duration": 0.0013,
      "velocity": 127,
      "chip": "ym2612"
    },
    {
      "channel": 1,
      "note": 65,
      "start": 12.443,
      "duration": 0.0013,
      "velocity": 88,
      "chip": "ym2612"
    },
    {
      "channel": 2,
      "note": 72,
      "start": 12.4434,
      "duration": 0.0014,
      "velocity": 102,
      "chip": "ym2612"
    },
    {
      "channel": 3,
      "note": 65,
      "start": 12.4434,
      "duration": 0.0017,
      "velocity": 97,
      "chip": "ym2612"
    },
    {
      "channel": 4,
      "note": 63,
      "start": 12.4438,
      "duration": 0.0017,
      "velocity": 102,
      "chip": "ym2612"
    },
    {
      "channel": 0,
      "note": 92,
      "start": 12.4443,
      "duration": 0.0483,
      "velocity": 127,
      "chip": "ym2612"
    },
    {
      "channel": 1,
      "note": 60,
      "start": 12.4447,
      "duration": 0.0984,
      "velocity": 88,
      "chip": "ym2612"
    },
    {
      "channel": 2,
      "note": 63,
      "start": 12.4451,
      "duration": 0.0986,
      "velocity": 102,
      "chip": "ym2612"
    },
    {
      "channel": 3,
      "note": 60,
      "start": 12.4454,
      "duration": 0.0988,
      "velocity": 97,
      "chip": "ym2612"
    },
    {
      "channel": 4,
      "note": 63,
      "start": 12.4456,
      "duration": 0.0991,
      "velocity": 102,
      "chip": "ym2612"
    },
    {
      "channel": 0,
      "note": 92,
      "start": 12.543,
      "duration": 0.0028,
      "velocity": 127,
      "chip": "ym2612"
    },
    {
      "channel": 1,
      "note": 53,
      "start": 12.5435,
      "duration": 0.0037,
      "velocity": 88,
      "chip": "ym2612"
    },
    {
      "channel": 2,
      "note": 74,
      "start": 12.5441,
      "duration": 0.0036,
      "velocity": 102,
      "chip": "ym2612"
    },
    {
      "channel": 3,
      "note": 53,
      "start": 12.5446,
      "duration": 0.0035,
      "velocity": 97,
      "chip": "ym2612"
    },
    {
      "channel": 4,
      "note": 75,
      "start": 12.5451,
      "duration": 0.0036,
      "velocity": 102,
      "chip": "ym2612"
    },
    {
      "channel": 0,
      "note": 111,
      "start": 12.5471,
      "duration": 0.004,
      "velocity": 127,
      "chip": "ym2612"
    },
    {
      "channel": 1,
      "note": 56,
      "start": 12.5475,
      "duration": 0.0051,
      "velocity": 88,
      "chip": "ym2612"
    },
    {
      "channel": 2,
      "note": 63,
      "start": 12.548,
      "duration": 0.0021,
      "velocity": 102,
      "chip": "ym2612"
    },
    {
      "channel": 3,
      "note": 56,
      "start": 12.5485,
      "duration": 0.0052,
      "velocity": 97,
      "chip": "ym2612"
    },
    {
      "channel": 4,
      "note": 63,
      "start": 12.549,
      "duration": 0.0014,
      "velocity": 102,
      "chip": "ym2612"
    },
    {
      "channel": 2,
      "note": 75,
      "start": 12.5503,
      "duration": 0.0028,
      "velocity": 102,
      "chip": "ym2612"
    },
    {
      "channel": 4,
      "note": 63,
      "start": 12.5506,
      "duration": 0.0035,
      "velocity": 102,
      "chip": "ym2612"
    },
    {
      "channel": 0,
      "note": 92,
      "start": 12.5525,
      "duration": 0.0028,
      "velocity": 127,
      "chip": "ym2612"
    },
    {
      "channel": 1,
      "note": 58,
      "start": 12.553,
      "duration": 0.0069,
      "velocity": 88,
      "chip": "ym2612"
    },
    {
      "channel": 2,
      "note": 63,
      "start": 12.5535,
      "duration": 0.0026,
      "velocity": 102,
      "chip": "ym2612"
    },
    {
      "channel": 3,
      "note": 58,
      "start": 12.554,
      "duration": 0.0066,
      "velocity": 97,
      "chip": "ym2612"
    },
    {
      "channel": 4,
      "note": 75,
      "start": 12.5546,
      "duration": 0.0021,
      "velocity": 102,
      "chip": "ym2612"
    },
    {
      "channel": 0,
      "note": 92,
      "start": 12.5559,
      "duration": 0.0019,
      "velocity": 127,
      "chip": "ym2612"
    },
    {
      "channel": 2,
      "note": 76,
      "start": 12.5565,
      "duration": 0.0037,
      "velocity": 102,
      "chip": "ym2612"
    },
    {
      "channel": 4,
      "note": 63,
      "start": 12.5571,
      "duration": 0.0038,
      "velocity": 102,
      "chip": "ym2612"
    },
    {
      "channel": 0,
      "note": 92,
      "start": 12.5598,
      "duration": 0.0022,
      "velocity": 127,
      "chip": "ym2612"
    },
    {
      "channel": 2,
      "note": 65,
      "start": 12.5605,
      "duration": 0.003,
      "velocity": 102,
      "chip": "ym2612"
    },
    {
      "channel": 4,
      "note": 65,
      "start": 12.5612,
      "duration": 0.0033,
      "velocity": 102,
      "chip": "ym2612"
    },
    {
      "channel": 0,
      "note": 92,
      "start": 12.5629,
      "duration": 0.0029,
      "velocity": 127,
      "chip": "ym2612"
    },
    {
      "channel": 1,
      "note": 65,
      "start": 12.5634,
      "duration": 0.0026,
      "velocity": 88,
      "chip": "ym2612"
    },
    {
      "channel": 2,
      "note": 77,
      "start": 12.564,
      "duration": 0.0024,
      "velocity": 102,
      "chip": "ym2612"
    },
    {
      "channel": 3,
      "note": 65,
      "start": 12.5645,
      "duration": 0.0022,
      "velocity": 97,
      "chip": "ym2612"
    },
    {
      "channel": 4,
      "note": 65,
      "start": 12.565,
      "duration": 0.0021,
      "velocity": 102,
      "chip": "ym2612"
    },
    {
      "channel": 0,
      "note": 92,
      "start": 12.5659,
      "duration": 0.0017,
      "velocity": 127,
      "chip": "ym2612"
    },
    {
      "channel": 1,
      "note": 63,
      "start": 12.5663,
      "duration": 0.0017,
      "velocity": 88,
      "chip": "ym2612"
    },
    {
      "channel": 2,
      "note": 65,
      "start": 12.5667,
      "duration": 0.0019,
      "velocity": 102,
      "chip": "ym2612"
    },
    {
      "channel": 3,
      "note": 63,
      "start": 12.567,
      "duration": 0.0019,
      "velocity": 97,
      "chip": "ym2612"
    },
    {
      "channel": 4,
      "note": 77,
      "start": 12.5674,
      "duration": 0.0018,
      "velocity": 102,
      "chip": "ym2612"
    },
    {
      "channel": 0,
      "note": 92,
      "start": 12.568,
      "duration": 0.0052,
      "velocity": 127,
      "chip": "ym2612"
    },
    {
      "channel": 1,
      "note": 60,
      "start": 12.5684,
      "duration": 0.0063,
      "velocity": 88,
      "chip": "ym2612"
    },
    {
      "channel": 2,
      "note": 79,
      "start": 12.5688,
      "duration": 0.0063,
      "velocity": 102,
      "chip": "ym2612"
    },
    {
      "channel": 3,
      "note": 60,
      "start": 12.5692,
      "duration": 0.0064,
      "velocity": 97,
      "chip": "ym2612"
    },
    {
      "channel": 4,
      "note": 65,
      "start": 12.5695,
      "duration": 0.0065,
      "velocity": 102,
      "chip": "ym2612"
    },
    {
      "channel": 0,
      "note": 111,
      "start": 12.5747,
      "duration": 0.0056,
      "velocity": 127,
      "chip": "ym2612"
    },
    {
      "channel": 1,
      "note": 63,
      "start": 12.5751,
      "duration": 0.0022,
      "velocity": 88,
      "chip": "ym2612"
    },
    {
      "channel": 2,
      "note": 65,
      "start": 12.5754,
      "duration": 0.0024,
      "velocity": 102,
      "chip": "ym2612"
    },
    {
      "channel": 3,
      "note": 63,
      "start": 12.5759,
      "duration": 0.0025,
      "velocity": 97,
      "chip": "ym2612"
    },
    {
      "channel": 4,
      "note": 65,
      "start": 12.5762,
      "duration": 0.0026,
      "velocity": 102,
      "chip": "ym2612"
    },
    {
      "channel": 1,
      "note": 60,
      "start": 12.5777,
      "duration": 0.0038,
      "velocity": 88,
      "chip": "ym2612"
    },
    {
      "channel": 2,
      "note": 80,
      "start": 12.5783,
      "duration": 0.0035,
      "velocity": 102,
      "chip": "ym2612"
    },
    {
      "channel": 3,
      "note": 60,
      "start": 12.5788,
      "duration": 0.0034,
      "velocity": 97,
      "chip": "ym2612"
    },
    {
      "channel": 4,
      "note": 77,
      "start": 12.5793,
      "duration": 0.0034,
      "velocity": 102,
      "chip": "ym2612"
    },
    {
      "channel": 0,
      "note": 92,
      "start": 12.5814,
      "duration": 0.0019,
      "velocity": 127,
      "chip": "ym2612"
    },
    {
      "channel": 1,
      "note": 56,
      "start": 12.5816,
      "duration": 0.002,
      "velocity": 88,
      "chip": "ym2612"
    },
    {
      "channel": 2,
      "note": 65,
      "start": 12.582,
      "duration": 0.0021,
      "velocity": 102,
      "chip": "ym2612"
    },
    {
      "channel": 3,
      "note": 56,
      "start": 12.5825,
      "duration": 0.0019,
      "velocity": 97,
      "chip": "ym2612"
    },
    {
      "channel": 4,
      "note": 65,
      "start": 12.5829,
      "duration": 0.0019,
      "velocity": 102,
      "chip": "ym2612"
    },
    {
      "channel": 0,
      "note": 92,
      "start": 12.5836,
      "duration": 0.0018,
      "velocity": 127,
      "chip": "ym2612"
    },
    {
      "channel": 1,
      "note": 53,
      "start": 12.5839,
      "duration": 0.002,
      "velocity": 88,
      "chip": "ym2612"
    },
    {
      "channel": 2,
      "note": 82,
      "start": 12.5844,
      "duration": 0.002,
      "velocity": 102,
      "chip": "ym2612"
    },
    {
      "channel": 3,
      "note": 53,
      "start": 12.5848,
      "duration": 0.002,
      "velocity": 97,
      "chip": "ym2612"
    },
    {
      "channel": 4,
      "note": 65,
      "start": 12.585,
      "duration": 0.0021,
      "velocity": 102,
      "chip": "ym2612"
    },
    {
      "channel": 0,
      "note": 92,
      "start": 12.5859,
      "duration": 0.0024,
      "velocity": 127,
      "chip": "ym2612"
    },
    {
      "channel": 1,
      "note": 56,
      "start": 12.5862,
      "duration": 0.0024,
      "velocity": 88,
      "chip": "ym2612"
    },
    {
      "channel": 2,
      "note": 67,
      "start": 12.5866,
      "duration": 0.0023,
      "velocity": 102,
      "chip": "ym2612"
    },
    {
      "channel": 3,
      "note": 56,
      "start": 12.587,
      "duration": 0.0023,
      "velocity": 97,
      "chip": "ym2612"
    },
    {
      "channel": 4,
      "note": 79,
      "start": 12.5875,
      "duration": 0.0021,
      "velocity": 102,
      "chip": "ym2612"
    },
    {
      "channel": 0,
      "note": 92,
      "start": 12.5885,
      "duration": 0.0018,
      "velocity": 127,
      "chip": "ym2612"
    },
    {
      "channel": 1,
      "note": 58,
      "start": 12.5889,
      "duration": 0.0018,
      "velocity": 88,
      "chip": "ym2612"
    },
    {
      "channel": 2,
      "note": 79,
      "start": 12.5893,
      "duration": 0.0017,
      "velocity": 102,
      "chip": "ym2612"
    },
    {
      "channel": 3,
      "note": 58,
      "start": 12.5896,
      "duration": 0.0018,
      "velocity": 97,
      "chip": "ym2612"
    },
    {
      "channel": 4,
      "note": 67,
      "start": 12.59,
      "duration": 0.0018,
      "velocity": 102,
      "chip": "ym2612"
    },
    {
      "channel": 0,
      "note": 92,
      "start": 12.5906,
      "duration": 0.0016,
      "velocity": 127,
      "chip": "ym2612"
    },
    {
      "channel": 1,
      "note": 59,
      "start": 12.5909,
      "duration": 0.003,
      "velocity": 88,
      "chip": "ym2612"
    },
    {
      "channel": 2,
      "note": 67,
      "start": 12.5913,
      "duration": 0.003,
      "velocity": 102,
      "chip": "ym2612"
    },
    {
      "channel": 3,
      "note": 59,
      "start": 12.5917,
      "duration": 0.003,
      "velocity": 97,
      "chip": "ym2612"
    },
    {
      "channel": 4,
      "note": 67,
      "start": 12.5919,
      "duration": 0.0031,
      "velocity": 102,
      "chip": "ym2612"
    },
    {
      "channel": 0,
      "note": 92,
      "start": 12.5938,
      "duration": 0.0017,
      "velocity": 127,
      "chip": "ym2612"
    },
    {
      "channel": 1,
      "note": 56,
      "start": 12.5942,
      "duration": 0.0029,
      "velocity": 88,
      "chip": "ym2612"
    },
    {
      "channel": 2,
      "note": 80,
      "start": 12.5946,
      "duration": 0.0028,
      "velocity": 102,
      "chip": "ym2612"
    },
    {
      "channel": 3,
      "note": 56,
      "start": 12.5949,
      "duration": 0.003,
      "velocity": 97,
      "chip": "ym2612"
    },
    {
      "channel": 4,
      "note": 79,
      "start": 12.5953,
      "duration": 0.0031,
      "velocity": 102,
      "chip": "ym2612"
    },
    {
      "channel": 0,
      "note": 111,
      "start": 12.597,
      "duration": 0.004,
      "velocity": 127,
      "chip": "ym2612"
    },
    {
      "channel": 1,
      "note": 59,
      "start": 12.5974,
      "duration": 0.0019,
      "velocity": 88,
      "chip": "ym2612"
    },
    {
      "channel": 2,
      "note": 67,
      "start": 12.5978,
      "duration": 0.0019,
      "velocity": 102,
      "chip": "ym2612"
    },
    {
      "channel": 3,
      "note": 59,
      "start": 12.5982,
      "duration": 0.0016,
      "velocity": 97,
      "chip": "ym2612"
    },
    {
      "channel": 4,
      "note": 67,
      "start": 12.5988,
      "duration": 0.0012,
      "velocity": 102,
      "chip": "ym2612"
    },
    {
      "channel": 1,
      "note": 60,
      "start": 12.5996,
      "duration": 0.003,
      "velocity": 88,
      "chip": "ym2612"
    },
    {
      "channel": 2,
      "note": 82,
      "start": 12.5998,
      "duration": 0.0029,
      "velocity": 102,
      "chip": "ym2612"
    },
    {
      "channel": 3,
      "note": 60,
      "start": 12.6,
      "duration": 0.0032,
      "velocity": 97,
      "chip": "ym2612"
    },
    {
      "channel": 4,
      "note": 67,
      "start": 12.6001,
      "duration": 0.0036,
      "velocity": 102,
      "chip": "ym2612"
    },
    {
      "channel": 0,
      "note": 92,
      "start": 12.6025,
      "duration": 0.0017,
      "velocity": 127,
      "chip": "ym2612"
    },
    {
      "channel": 1,
      "note": 51,
      "start": 12.6027,
      "duration": 0.0024,
      "velocity": 88,
      "chip": "ym2612"
    },
    {
      "channel": 2,
      "note": 67,
      "start": 12.603,
      "duration": 0.0023,
      "velocity": 102,
      "chip": "ym2612"
    },
    {
      "channel": 3,
      "note": 51,
      "start": 12.6035,
      "duration": 0.0022,
      "velocity": 97,
      "chip": "ym2612"
    },
    {
      "channel": 4,
      "note": 79,
      "start": 12.6041,
      "duration": 0.0021,
      "velocity": 102,
      "chip": "ym2612"
    },
    {
      "channel": 0,
      "note": 92,
      "start": 12.6051,
      "duration": 0.0017,
      "velocity": 127,
      "chip": "ym2612"
    },
    {
      "channel": 1,
      "note": 52,
      "start": 12.6053,
      "duration": 0.0022,
      "velocity": 88,
      "chip": "ym2612"
    },
    {
      "channel": 2,
      "note": 84,
      "start": 12.6056,
      "duration": 0.0023,
      "velocity": 102,
      "chip": "ym2612"
    },
    {
      "channel": 3,
      "note": 52,
      "start": 12.606,
      "duration": 0.002,
      "velocity": 97,
      "chip": "ym2612"
    },
    {
      "channel": 4,
      "note": 67,
      "start": 12.6064,
      "duration": 0.0024,
      "velocity": 102,
      "chip": "ym2612"
    },
    {
      "channel": 0,
      "note": 92,
      "start": 12.6074,
      "duration": 0.0047,
      "velocity": 127,
      "chip": "ym2612"
    },
    {
      "channel": 1,
      "note": 53,
      "start": 12.6078,
      "duration": 0.0053,
      "velocity": 88,
      "chip": "ym2612"
    },
    {
      "channel": 3,
      "note": 53,
      "start": 12.6088,
      "duration": 0.0047,
      "velocity": 97,
      "chip": "ym2612"
    },
    {
      "channel": 0,
      "note": 92,
      "start": 12.6124,
      "duration": 0.0004,
      "velocity": 127,
      "chip": "ym2612"
    },
    {
      "channel": 0,
      "note": 92,
      "start": 12.613,
      "duration": 0.0483,
      "velocity": 127,
      "chip": "ym2612"
    },
    {
      "channel": 1,
      "note": 53,
      "start": 12.6132,
      "duration": 0.1041,
      "velocity": 88,
      "chip": "ym2612"
    },
    {
      "channel": 3,
      "note": 53,
      "start": 12.6135,
      "duration": 0.1044,
      "velocity": 97,
      "chip": "ym2612"
    },
    {
      "channel": 0,
      "note": 92,
      "start": 12.7118,
      "duration": 0.0039,
      "velocity": 127,
      "chip": "ym2612"
    },
    {
      "channel": 0,
      "note": 111,
      "start": 12.7172,
      "duration": 0.0033,
      "velocity": 127,
      "chip": "ym2612"
    },
    {
      "channel": 1,
      "note": 53,
      "start": 12.7177,
      "duration": 0.0016,
      "velocity": 88,
      "chip": "ym2612"
    },
    {
      "channel": 3,
      "note": 53,
      "start": 12.7183,
      "duration": 0.0015,
      "velocity": 97,
      "chip": "ym2612"
    },
    {
      "channel": 1,
      "note": 60,
      "start": 12.7196,
      "duration": 0.0022,
      "velocity": 88,
      "chip": "ym2612"
    },
    {
      "channel": 3,
      "note": 60,
      "start": 12.72,
      "duration": 0.002,
      "velocity": 97,
      "chip": "ym2612"
    },
    {
      "channel": 0,
      "note": 92,
      "start": 12.7217,
      "duration": 0.0008,
      "velocity": 127,
      "chip": "ym2612"
    },
    {
      "channel": 1,
      "note": 56,
      "start": 12.722,
      "duration": 0.001,
      "velocity": 88,
      "chip": "ym2612"
    },
    {
      "channel": 3,
      "note": 56,
      "start": 12.7223,
      "duration": 0.0011,
      "velocity": 97,
      "chip": "ym2612"
    },
    {
      "channel": 0,
      "note": 92,
      "start": 12.7229,
      "duration": 0.001,
      "velocity": 127,
      "chip": "ym2612"
    },
    {
      "channel": 1,
      "note": 65,
      "start": 12.7232,
      "duration": 0.0012,
      "velocity": 88,
      "chip": "ym2612"
    },
    {
      "channel": 3,
      "note": 65,
      "start": 12.7236,
      "duration": 0.0011,
      "velocity": 97,
      "chip": "ym2612"
    },
    {
      "channel": 0,
      "note": 92,
      "start": 12.7244,
      "duration": 0.0007,
      "velocity": 127,
      "chip": "ym2612"
    },
    {
      "channel": 0,
      "note": 92,
      "start": 12.7254,
      "duration": 0.0005,
      "velocity": 127,
      "chip": "ym2612"
    },
    {
      "channel": 1,
      "note": 65,
      "start": 12.7255,
      "duration": 0.0007,
      "velocity": 88,
      "chip": "ym2612"
    },
    {
      "channel": 3,
      "note": 65,
      "start": 12.7256,
      "duration": 0.0009,
      "velocity": 97,
      "chip": "ym2612"
    },
    {
      "channel": 0,
      "note": 92,
      "start": 12.7261,
      "duration": 0.0486,
      "velocity": 127,
      "chip": "ym2612"
    },
    {
      "channel": 1,
      "note": 60,
      "start": 12.7264,
      "duration": 0.0987,
      "velocity": 88,
      "chip": "ym2612"
    },
    {
      "channel": 3,
      "note": 60,
      "start": 12.7269,
      "duration": 0.0988,
      "velocity": 97,
      "chip": "ym2612"
    },
    {
      "channel": 0,
      "note": 92,
      "start": 12.825,
      "duration": 0.0049,
      "velocity": 127,
      "chip": "ym2612"
    },
    {
      "channel": 1,
      "note": 53,
      "start": 12.8255,
      "duration": 0.0058,
      "velocity": 88,
      "chip": "ym2612"
    },
    {
      "channel": 3,
      "note": 53,
      "start": 12.8261,
      "duration": 0.0056,
      "velocity": 97,
      "chip": "ym2612"
    },
    {
      "channel": 0,
      "note": 111,
      "start": 12.8313,
      "duration": 0.0024,
      "velocity": 127,
      "chip": "ym2612"
    },
    {
      "channel": 1,
      "note": 56,
      "start": 12.8316,
      "duration": 0.0032,
      "velocity": 88,
      "chip": "ym2612"
    },
    {
      "channel": 3,
      "note": 56,
      "start": 12.8322,
      "duration": 0.0031,
      "velocity": 97,
      "chip": "ym2612"
    },
    {
      "channel": 0,
      "note": 92,
      "start": 12.8348,
      "duration": 0.001,
      "velocity": 127,
      "chip": "ym2612"
    },
    {
      "channel": 1,
      "note": 58,
      "start": 12.8351,
      "duration": 0.0017,
      "velocity": 88,
      "chip": "ym2612"
    },
    {
      "channel": 3,
      "note": 58,
      "start": 12.8355,
      "duration": 0.0018,
      "velocity": 97,
      "chip": "ym2612"
    },
    {
      "channel": 0,
      "note": 92,
      "start": 12.836,
      "duration": 0.0002,
      "velocity": 127,
      "chip": "ym2612"
    },
    {
      "channel": 0,
      "note": 92,
      "start": 12.8368,
      "duration": 0.0012,
      "velocity": 127,
      "chip": "ym2612"
    },
    {
      "channel": 1,
      "note": 53,
      "start": 12.8371,
      "duration": 0.0018,
      "velocity": 88,
      "chip": "ym2612"
    },
    {
      "channel": 3,
      "note": 53,
      "start": 12.8377,
      "duration": 0.0015,
      "velocity": 97,
      "chip": "ym2612"
    },
    {
      "channel": 0,
      "note": 92,
      "start": 12.8382,
      "duration": 0.0004,
      "velocity": 127,
      "chip": "ym2612"
    },
    {
      "channel": 0,
      "note": 92,
      "start": 12.8388,
      "duration": 0.0482,
      "velocity": 127,
      "chip": "ym2612"
    },
    {
      "channel": 1,
      "note": 53,
      "start": 12.839,
      "duration": 0.0985,
      "velocity": 88,
      "chip": "ym2612"
    },
    {
      "channel": 3,
      "note": 53,
      "start": 12.8392,
      "duration": 0.0989,
      "velocity": 97,
      "chip": "ym2612"
    },
    {
      "channel": 0,
      "note": 92,
      "start": 12.9374,
      "duration": 0.002,
      "velocity": 127,
      "chip": "ym2612"
    },
    {
      "channel": 1,
      "note": 65,
      "start": 12.9379,
      "duration": 0.0029,
      "velocity": 88,
      "chip": "ym2612"
    },
    {
      "channel": 3,
      "note": 65,
      "start": 12.9385,
      "duration": 0.0026,
      "velocity": 97,
      "chip": "ym2612"
    },
    {
      "channel": 0,
      "note": 111,
      "start": 12.9407,
      "duration": 0.0033,
      "velocity": 127,
      "chip": "ym2612"
    },
    {
      "channel": 1,
      "note": 53,
      "start": 12.9411,
      "duration": 0.0017,
      "velocity": 88,
      "chip": "ym2612"
    },
    {
      "channel": 3,
      "note": 53,
      "start": 12.9416,
      "duration": 0.0016,
      "velocity": 97,
      "chip": "ym2612"
    },
    {
      "channel": 1,
      "note": 56,
      "start": 12.9431,
      "duration": 0.0022,
      "velocity": 88,
      "chip": "ym2612"
    },
    {
      "channel": 3,
      "note": 56,
      "start": 12.9435,
      "duration": 0.002,
      "velocity": 97,
      "chip": "ym2612"
    },
    {
      "channel": 0,
      "note": 92,
      "start": 12.9451,
      "duration": 0.0008,
      "velocity": 127,
      "chip": "ym2612"
    },
    {
      "channel": 1,
      "note": 60,
      "start": 12.9454,
      "duration": 0.001,
      "velocity": 88,
      "chip": "ym2612"
    },
    {
      "channel": 3,
      "note": 60,
      "start": 12.9457,
      "duration": 0.0011,
      "velocity": 97,
      "chip": "ym2612"
    },
    {
      "channel": 0,
      "note": 92,
      "start": 12.9463,
      "duration": 0.001,
      "velocity": 127,
      "chip": "ym2612"
    },
    {
      "channel": 1,
      "note": 65,
      "start": 12.9467,
      "duration": 0.0012,
      "velocity": 88,
      "chip": "ym2612"
    },
    {
      "channel": 3,
      "note": 65,
      "start": 12.9471,
      "duration": 0.001,
      "velocity": 97,
      "chip": "ym2612"
    },
    {
      "channel": 0,
      "note": 92,
      "start": 12.9478,
      "duration": 0.0041,
      "velocity": 127,
      "chip": "ym2612"
    },
    {
      "channel": 0,
      "note": 92,
      "start": 12.9522,
      "duration": 0.0005,
      "velocity": 127,
      "chip": "ym2612"
    },
    {
      "channel": 1,
      "note": 65,
      "start": 12.9523,
      "duration": 0.0007,
      "velocity": 88,
      "chip": "ym2612"
    },
    {
      "channel": 3,
      "note": 65,
      "start": 12.9524,
      "duration": 0.0006,
      "velocity": 97,
      "chip": "ym2612"
    },
    {
      "channel": 0,
      "note": 92,
      "start": 12.9529,
      "duration": 0.0487,
      "velocity": 127,
      "chip": "ym2612"
    },
    {
      "channel": 0,
      "note": 92,
      "start": 13.0519,
      "duration": 0.0018,
      "velocity": 127,
      "chip": "ym2612"
    },
    {
      "channel": 1,
      "note": 65,
      "start": 13.0524,
      "duration": 0.0027,
      "velocity": 88,
      "chip": "ym2612"
    },
    {
      "channel": 3,
      "note": 65,
      "start": 13.0529,
      "duration": 0.0023,
      "velocity": 97,
      "chip": "ym2612"
    },
    {
      "channel": 0,
      "note": 111,
      "start": 13.055,
      "duration": 0.0046,
      "velocity": 127,
      "chip": "ym2612"
    },
    {
      "channel": 1,
      "note": 65,
      "start": 13.058,
      "duration": 0.0038,
      "velocity": 88,
      "chip": "ym2612"
    },
    {
      "channel": 3,
      "note": 65,
      "start": 13.0586,
      "duration": 0.0035,
      "velocity": 97,
      "chip": "ym2612"
    },
    {
      "channel": 0,
      "note": 92,
      "start": 13.0616,
      "duration": 0.0014,
      "velocity": 127,
      "chip": "ym2612"
    },
    {
      "channel": 0,
      "note": 92,
      "start": 13.0649,
      "duration": 0.0019,
      "velocity": 127,
      "chip": "ym2612"
    },
    {
      "channel": 1,
      "note": 60,
      "start": 13.0653,
      "duration": 0.0023,
      "velocity": 88,
      "chip": "ym2612"
    },
    {
      "channel": 3,
      "note": 60,
      "start": 13.0659,
      "duration": 0.0021,
      "velocity": 97,
      "chip": "ym2612"
    },
    {
      "channel": 0,
      "note": 92,
      "start": 13.0675,
      "duration": 0.001,
      "velocity": 127,
      "chip": "ym2612"
    },
    {
      "channel": 1,
      "note": 53,
      "start": 13.068,
      "duration": 0.0016,
      "velocity": 88,
      "chip": "ym2612"
    },
    {
      "channel": 3,
      "note": 53,
      "start": 13.0683,
      "duration": 0.0017,
      "velocity": 97,
      "chip": "ym2612"
    },
    {
      "channel": 0,
      "note": 92,
      "start": 13.0689,
      "duration": 0.0003,
      "velocity": 127,
      "chip": "ym2612"
    },
    {
      "channel": 0,
      "note": 92,
      "start": 13.0695,
      "duration": 0.0485,
      "velocity": 127,
      "chip": "ym2612"
    },
    {
      "channel": 1,
      "note": 65,
      "start": 13.0698,
      "duration": 0.0986,
      "velocity": 88,
      "chip": "ym2612"
    },
    {
      "channel": 3,
      "note": 65,
      "start": 13.0703,
      "duration": 0.0988,
      "velocity": 97,
      "chip": "ym2612"
    },
    {
      "channel": 0,
      "note": 92,
      "start": 13.1684,
      "duration": 0.002,
      "velocity": 127,
      "chip": "ym2612"
    },
    {
      "channel": 1,
      "note": 53,
      "start": 13.1689,
      "duration": 0.0029,
      "velocity": 88,
      "chip": "ym2612"
    },
    {
      "channel": 3,
      "note": 53,
      "start": 13.1695,
      "duration": 0.0026,
      "velocity": 97,
      "chip": "ym2612"
    },
    {
      "channel": 0,
      "note": 111,
      "start": 13.1717,
      "duration": 0.003,
      "velocity": 127,
      "chip": "ym2612"
    },
    {
      "channel": 1,
      "note": 53,
      "start": 13.1719,
      "duration": 0.0016,
      "velocity": 88,
      "chip": "ym2612"
    },
    {
      "channel": 3,
      "note": 53,
      "start": 13.1725,
      "duration": 0.0014,
      "velocity": 97,
      "chip": "ym2612"
    },
    {
      "channel": 1,
      "note": 60,
      "start": 13.1738,
      "duration": 0.0024,
      "velocity": 88,
      "chip": "ym2612"
    },
    {
      "channel": 3,
      "note": 60,
      "start": 13.1741,
      "duration": 0.0026,
      "velocity": 97,
      "chip": "ym2612"
    },
    {
      "channel": 0,
      "note": 92,
      "start": 13.176,
      "duration": 0.0013,
      "velocity": 127,
      "chip": "ym2612"
    },
    {
      "channel": 1,
      "note": 56,
      "start": 13.1765,
      "duration": 0.0011,
      "velocity": 88,
      "chip": "ym2612"
    },
    {
      "channel": 3,
      "note": 56,
      "start": 13.177,
      "duration": 0.001,
      "velocity": 97,
      "chip": "ym2612"
    },
    {
      "channel": 0,
      "note": 92,
      "start": 13.1776,
      "duration": 0.0009,
      "velocity": 127,
      "chip": "ym2612"
    },
    {
      "channel": 1,
      "note": 65,
      "start": 13.1779,
      "duration": 0.0012,
      "velocity": 88,
      "chip": "ym2612"
    },
    {
      "channel": 3,
      "note": 65,
      "start": 13.1783,
      "duration": 0.001,
      "velocity": 97,
      "chip": "ym2612"
    },
    {
      "channel": 0,
      "note": 92,
      "start": 13.179,
      "duration": 0.0005,
      "velocity": 127,
      "chip": "ym2612"
    },
    {
      "channel": 0,
      "note": 92,
      "start": 13.1798,
      "duration": 0.0006,
      "velocity": 127,
      "chip": "ym2612"
    },
    {
      "channel": 1,
      "note": 65,
      "start": 13.18,
      "duration": 0.0008,
      "velocity": 88,
      "chip": "ym2612"
    },
    {
      "channel": 3,
      "note": 65,
      "start": 13.18,
      "duration": 0.0011,
      "velocity": 97,
      "chip": "ym2612"
    },
    {
      "channel": 0,
      "note": 92,
      "start": 13.1807,
      "duration": 0.0486,
      "velocity": 127,
      "chip": "ym2612"
    },
    {
      "channel": 1,
      "note": 60,
      "start": 13.1811,
      "duration": 0.0986,
      "velocity": 88,
      "chip": "ym2612"
    },
    {
      "channel": 3,
      "note": 60,
      "start": 13.1815,
      "duration": 0.0988,
      "velocity": 97,
      "chip": "ym2612"
    },
    {
      "channel": 0,
      "note": 92,
      "start": 13.2797,
      "duration": 0.0049,
      "velocity": 127,
      "chip": "ym2612"
    },
    {
      "channel": 1,
      "note": 53,
      "start": 13.2802,
      "duration": 0.0057,
      "velocity": 88,
      "chip": "ym2612"
    },
    {
      "channel": 3,
      "note": 53,
      "start": 13.2808,
      "duration": 0.0055,
      "velocity": 97,
      "chip": "ym2612"
    },
    {
      "channel": 0,
      "note": 111,
      "start": 13.2858,
      "duration": 0.0033,
      "velocity": 127,
      "chip": "ym2612"
    },
    {
      "channel": 1,
      "note": 56,
      "start": 13.2862,
      "duration": 0.0017,
      "velocity": 88,
      "chip": "ym2612"
    },
    {
      "channel": 3,
      "note": 56,
      "start": 13.2867,
      "duration": 0.0016,
      "velocity": 97,
      "chip": "ym2612"
    },
    {
      "channel": 1,
      "note": 68,
      "start": 13.2882,
      "duration": 0.0028,
      "velocity": 88,
      "chip": "ym2612"
    },
    {
      "channel": 3,
      "note": 68,
      "start": 13.2886,
      "duration": 0.003,
      "velocity": 97,
      "chip": "ym2612"
    },
    {
      "channel": 0,
      "note": 92,
      "start": 13.2908,
      "duration": 0.0022,
      "velocity": 127,
      "chip": "ym2612"
    },
    {
      "channel": 1,
      "note": 58,
      "start": 13.2913,
      "duration": 0.0029,
      "velocity": 88,
      "chip": "ym2612"
    },
    {
      "channel": 3,
      "note": 58,
      "start": 13.292,
      "duration": 0.0029,
      "velocity": 97,
      "chip": "ym2612"
    },
    {
      "channel": 0,
      "note": 92,
      "start": 13.2941,
      "duration": 0.0021,
      "velocity": 127,
      "chip": "ym2612"
    },
    {
      "channel": 1,
      "note": 70,
      "start": 13.2946,
      "duration": 0.0034,
      "velocity": 88,
      "chip": "ym2612"
    },
    {
      "channel": 3,
      "note": 70,
      "start": 13.2953,
      "duration": 0.0035,
      "velocity": 97,
      "chip": "ym2612"
    },
    {
      "channel": 0,
      "note": 92,
      "start": 13.298,
      "duration": 0.0023,
      "velocity": 127,
      "chip": "ym2612"
    },
    {
      "channel": 1,
      "note": 53,
      "start": 13.2985,
      "duration": 0.0037,
      "velocity": 88,
      "chip": "ym2612"
    },
    {
      "channel": 3,
      "note": 53,
      "start": 13.2993,
      "duration": 0.0031,
      "velocity": 97,
      "chip": "ym2612"
    },
    {
      "channel": 0,
      "note": 92,
      "start": 13.3008,
      "duration": 0.0011,
      "velocity": 127,
      "chip": "ym2612"
    },
    {
      "channel": 0,
      "note": 92,
      "start": 13.3022,
      "duration": 0.0008,
      "velocity": 127,
      "chip": "ym2612"
    },
    {
      "channel": 1,
      "note": 53,
      "start": 13.3023,
      "duration": 0.001,
      "velocity": 88,
      "chip": "ym2612"
    },
    {
      "channel": 3,
      "note": 53,
      "start": 13.3026,
      "duration": 0.001,
      "velocity": 97,
      "chip": "ym2612"
    },
    {
      "channel": 0,
      "note": 92,
      "start": 13.3032,
      "duration": 0.0006,
      "velocity": 127,
      "chip": "ym2612"
    },
    {
      "channel": 1,
      "note": 53,
      "start": 13.3034,
      "duration": 0.0017,
      "velocity": 88,
      "chip": "ym2612"
    },
    {
      "channel": 3,
      "note": 53,
      "start": 13.3036,
      "duration": 0.0021,
      "velocity": 97,
      "chip": "ym2612"
    },
    {
      "channel": 0,
      "note": 111,
      "start": 13.3051,
      "duration": 0.0039,
      "velocity": 127,
      "chip": "ym2612"
    },
    {
      "channel": 1,
      "note": 55,
      "start": 13.3055,
      "duration": 0.0049,
      "velocity": 88,
      "chip": "ym2612"
    },
    {
      "channel": 3,
      "note": 55,
      "start": 13.3061,
      "duration": 0.0047,
      "velocity": 97,
      "chip": "ym2612"
    },
    {
      "channel": 0,
      "note": 92,
      "start": 13.3104,
      "duration": 0.0043,
      "velocity": 127,
      "chip": "ym2612"
    },
    {
      "channel": 1,
      "note": 55,
      "start": 13.3106,
      "duration": 0.0044,
      "velocity": 88,
      "chip": "ym2612"
    },
    {
      "channel": 3,
      "note": 55,
      "start": 13.311,
      "duration": 0.0043,
      "velocity": 97,
      "chip": "ym2612"
    },
    {
      "channel": 0,
      "note": 92,
      "start": 13.315,
      "duration": 0.0006,
      "velocity": 127,
      "chip": "ym2612"
    },
    {
      "channel": 1,
      "note": 55,
      "start": 13.3151,
      "duration": 0.0009,
      "velocity": 88,
      "chip": "ym2612"
    },
    {
      "channel": 3,
      "note": 55,
      "start": 13.3153,
      "duration": 0.0012,
      "velocity": 97,
      "chip": "ym2612"
    },
    {
      "channel": 0,
      "note": 92,
      "start": 13.316,
      "duration": 0.0017,
      "velocity": 127,
      "chip": "ym2612"
    },
    {
      "channel": 1,
      "note": 56,
      "start": 13.3164,
      "duration": 0.0039,
      "velocity": 88,
      "chip": "ym2612"
    },
    {
      "channel": 3,
      "note": 56,
      "start": 13.3168,
      "duration": 0.0036,
      "velocity": 97,
      "chip": "ym2612"
    },
    {
      "channel": 0,
      "note": 92,
      "start": 13.3181,
      "duration": 0.0018,
      "velocity": 127,
      "chip": "ym2612"
    },
    {
      "channel": 0,
      "note": 92,
      "start": 13.3202,
      "duration": 0.0005,
      "velocity": 127,
      "chip": "ym2612"
    },
    {
      "channel": 1,
      "note": 56,
      "start": 13.3204,
      "duration": 0.0015,
      "velocity": 88,
      "chip": "ym2612"
    },
    {
      "channel": 3,
      "note": 56,
      "start": 13.3205,
      "duration": 0.0015,
      "velocity": 97,
      "chip": "ym2612"
    },
    {
      "channel": 0,
      "note": 92,
      "start": 13.3217,
      "duration": 0.0006,
      "velocity": 127,
      "chip": "ym2612"
    },
    {
      "channel": 1,
      "note": 56,
      "start": 13.3219,
      "duration": 0.0032,
      "velocity": 88,
      "chip": "ym2612"
    },
    {
      "channel": 3,
      "note": 56,
      "start": 13.3221,
      "duration": 0.0037,
      "velocity": 97,
      "chip": "ym2612"
    },
    {
      "channel": 0,
      "note": 111,
      "start": 13.325,
      "duration": 0.0041,
      "velocity": 127,
      "chip": "ym2612"
    },
    {
      "channel": 1,
      "note": 58,
      "start": 13.3255,
      "duration": 0.005,
      "velocity": 88,
      "chip": "ym2612"
    },
    {
      "channel": 3,
      "note": 58,
      "start": 13.3261,
      "duration": 0.0045,
      "velocity": 97,
      "chip": "ym2612"
    },
    {
      "channel": 0,
      "note": 92,
      "start": 13.3304,
      "duration": 0.0005,
      "velocity": 127,
      "chip": "ym2612"
    },
    {
      "channel": 1,
      "note": 58,
      "start": 13.3306,
      "duration": 0.0011,
      "velocity": 88,
      "chip": "ym2612"
    },
    {
      "channel": 3,
      "note": 58,
      "start": 13.3307,
      "duration": 0.0011,
      "velocity": 97,
      "chip": "ym2612"
    },
    {
      "channel": 0,
      "note": 92,
      "start": 13.3316,
      "duration": 0.0008,
      "velocity": 127,
      "chip": "ym2612"
    },
    {
      "channel": 1,
      "note": 58,
      "start": 13.3317,
      "duration": 0.0015,
      "velocity": 88,
      "chip": "ym2612"
    },
    {
      "channel": 3,
      "note": 58,
      "start": 13.332,
      "duration": 0.0017,
      "velocity": 97,
      "chip": "ym2612"
    },
    {
      "channel": 0,
      "note": 92,
      "start": 13.3331,
      "duration": 0.0014,
      "velocity": 127,
      "chip": "ym2612"
    },
    {
      "channel": 1,
      "note": 53,
      "start": 13.3337,
      "duration": 0.0017,
      "velocity": 88,
      "chip": "ym2612"
    },
    {
      "channel": 3,
      "note": 53,
      "start": 13.3341,
      "duration": 0.0014,
      "velocity": 97,
      "chip": "ym2612"
    },
    {
      "channel": 0,
      "note": 92,
      "start": 13.3347,
      "duration": 0.0004,
      "velocity": 127,
      "chip": "ym2612"
    },
    {
      "channel": 0,
      "note": 92,
      "start": 13.3353,
      "duration": 0.0482,
      "velocity": 127,
      "chip": "ym2612"
    },
    {
      "channel": 1,
      "note": 53,
      "start": 13.3354,
      "duration": 0.0985,
      "velocity": 88,
      "chip": "ym2612"
    },
    {
      "channel": 3,
      "note": 53,
      "start": 13.3357,
      "duration": 0.0988,
      "velocity": 97,
      "chip": "ym2612"
    },
    {
      "channel": 0,
      "note": 92,
      "start": 13.4338,
      "duration": 0.002,
      "velocity": 127,
      "chip": "ym2612"
    },
    {
      "channel": 1,
      "note": 65,
      "start": 13.4343,
      "duration": 0.0029,
      "velocity": 88,
      "chip": "ym2612"
    },
    {
      "channel": 3,
      "note": 65,
      "start": 13.4349,
      "duration": 0.0026,
      "velocity": 97,
      "chip": "ym2612"
    },
    {
      "channel": 0,
      "note": 111,
      "start": 13.4371,
      "duration": 0.0033,
      "velocity": 127,
      "chip": "ym2612"
    },
    {
      "channel": 1,
      "note": 53,
      "start": 13.4375,
      "duration": 0.0017,
      "velocity": 88,
      "chip": "ym2612"
    },
    {
      "channel": 3,
      "note": 53,
      "start": 13.438,
      "duration": 0.0016,
      "velocity": 97,
      "chip": "ym2612"
    },
    {
      "channel": 1,
      "note": 60,
      "start": 13.4395,
      "duration": 0.0022,
      "velocity": 88,
      "chip": "ym2612"
    },
    {
      "channel": 3,
      "note": 60,
      "start": 13.4399,
      "duration": 0.002,
      "velocity": 97,
      "chip": "ym2612"
    },
    {
      "channel": 0,
      "note": 92,
      "start": 13.4415,
      "duration": 0.0008,
      "velocity": 127,
      "chip": "ym2612"
    },
    {
      "channel": 1,
      "note": 56,
      "start": 13.4418,
      "duration": 0.001,
      "velocity": 88,
      "chip": "ym2612"
    },
    {
      "channel": 3,
      "note": 56,
      "start": 13.4421,
      "duration": 0.0011,
      "velocity": 97,
      "chip": "ym2612"
    },
    {
      "channel": 0,
      "note": 92,
      "start": 13.4427,
      "duration": 0.001,
      "velocity": 127,
      "chip": "ym2612"
    },
    {
      "channel": 1,
      "note": 65,
      "start": 13.4431,
      "duration": 0.0012,
      "velocity": 88,
      "chip": "ym2612"
    },
    {
      "channel": 3,
      "note": 65,
      "start": 13.4434,
      "duration": 0.0014,
      "velocity": 97,
      "chip": "ym2612"
    },
    {
      "channel": 0,
      "note": 92,
      "start": 13.4442,
      "duration": 0.0012,
      "velocity": 127,
      "chip": "ym2612"
    },
    {
      "channel": 1,
      "note": 56,
      "start": 13.4446,
      "duration": 0.0018,
      "velocity": 88,
      "chip": "ym2612"
    },
    {
      "channel": 3,
      "note": 56,
      "start": 13.4452,
      "duration": 0.0015,
      "velocity": 97,
      "chip": "ym2612"
    },
    {
      "channel": 0,
      "note": 92,
      "start": 13.4457,
      "duration": 0.0004,
      "velocity": 127,
      "chip": "ym2612"
    },
    {
      "channel": 0,
      "note": 92,
      "start": 13.4463,
      "duration": 0.0482,
      "velocity": 127,
      "chip": "ym2612"
    },
    {
      "channel": 1,
      "note": 56,
      "start": 13.4466,
      "duration": 0.0985,
      "velocity": 88,
      "chip": "ym2612"
    },
    {
      "channel": 3,
      "note": 56,
      "start": 13.4467,
      "duration": 0.0989,
      "velocity": 97,
      "chip": "ym2612"
    },
    {
      "channel": 0,
      "note": 92,
      "start": 13.5449,
      "duration": 0.0018,
      "velocity": 127,
      "chip": "ym2612"
    },
    {
      "channel": 1,
      "note": 56,
      "start": 13.5454,
      "duration": 0.0028,
      "velocity": 88,
      "chip": "ym2612"
    },
    {
      "channel": 3,
      "note": 56,
      "start": 13.5459,
      "duration": 0.0028,
      "velocity": 97,
      "chip": "ym2612"
    },
    {
      "channel": 0,
      "note": 111,
      "start": 13.548,
      "duration": 0.0025,
      "velocity": 127,
      "chip": "ym2612"
    },
    {
      "channel": 1,
      "note": 58,
      "start": 13.5485,
      "duration": 0.0035,
      "velocity": 88,
      "chip": "ym2612"
    },
    {
      "channel": 3,
      "note": 58,
      "start": 13.5491,
      "duration": 0.0033,
      "velocity": 97,
      "chip": "ym2612"
    },
    {
      "channel": 0,
      "note": 92,
      "start": 13.5519,
      "duration": 0.0009,
      "velocity": 127,
      "chip": "ym2612"
    },
    {
      "channel": 1,
      "note": 58,
      "start": 13.5522,
      "duration": 0.001,
      "velocity": 88,
      "chip": "ym2612"
    },
    {
      "channel": 3,
      "note": 58,
      "start": 13.5525,
      "duration": 0.001,
      "velocity": 97,
      "chip": "ym2612"
    },
    {
      "channel": 0,
      "note": 92,
      "start": 13.5532,
      "duration": 0.0006,
      "velocity": 127,
      "chip": "ym2612"
    },
    {
      "channel": 1,
      "note": 58,
      "start": 13.5533,
      "duration": 0.0013,
      "velocity": 88,
      "chip": "ym2612"
    },
    {
      "channel": 3,
      "note": 58,
      "start": 13.5535,
      "duration": 0.0015,
      "velocity": 97,
      "chip": "ym2612"
    },
    {
      "channel": 0,
      "note": 92,
      "start": 13.5545,
      "duration": 0.001,
      "velocity": 127,
      "chip": "ym2612"
    },
    {
      "channel": 1,
      "note": 53,
      "start": 13.555,
      "duration": 0.0016,
      "velocity": 88,
      "chip": "ym2612"
    },
    {
      "channel": 3,
      "note": 53,
      "start": 13.5553,
      "duration": 0.0014,
      "velocity": 97,
      "chip": "ym2612"
    },
    {
      "channel": 0,
      "note": 92,
      "start": 13.5559,
      "duration": 0.0003,
      "velocity": 127,
      "chip": "ym2612"
    },
    {
      "channel": 0,
      "note": 92,
      "start": 13.5565,
      "duration": 0.0482,
      "velocity": 127,
      "chip": "ym2612"
    },
    {
      "channel": 1,
      "note": 53,
      "start": 13.5566,
      "duration": 0.0985,
      "velocity": 88,
      "chip": "ym2612"
    },
    {
      "channel": 3,
      "note": 53,
      "start": 13.5569,
      "duration": 0.0988,
      "velocity": 97,
      "chip": "ym2612"
    },
    {
      "channel": 0,
      "note": 92,
      "start": 13.655,
      "duration": 0.002,
      "velocity": 127,
      "chip": "ym2612"
    },
    {
      "channel": 1,
      "note": 65,
      "start": 13.6555,
      "duration": 0.0027,
      "velocity": 88,
      "chip": "ym2612"
    },
    {
      "channel": 3,
      "note": 65,
      "start": 13.6562,
      "duration": 0.0025,
      "velocity": 97,
      "chip": "ym2612"
    },
    {
      "channel": 0,
      "note": 111,
      "start": 13.6582,
      "duration": 0.0031,
      "velocity": 127,
      "chip": "ym2612"
    },
    {
      "channel": 1,
      "note": 53,
      "start": 13.6586,
      "duration": 0.0016,
      "velocity": 88,
      "chip": "ym2612"
    },
    {
      "channel": 3,
      "note": 53,
      "start": 13.6591,
      "duration": 0.0015,
      "velocity": 97,
      "chip": "ym2612"
    },
    {
      "channel": 1,
      "note": 56,
      "start": 13.6604,
      "duration": 0.0024,
      "velocity": 88,
      "chip": "ym2612"
    },
    {
      "channel": 3,
      "note": 56,
      "start": 13.6608,
      "duration": 0.0026,
      "velocity": 97,
      "chip": "ym2612"
    },
    {
      "channel": 0,
      "note": 92,
      "start": 13.6627,
      "duration": 0.0013,
      "velocity": 127,
      "chip": "ym2612"
    },
    {
      "channel": 1,
      "note": 60,
      "start": 13.6632,
      "duration": 0.0011,
      "velocity": 88,
      "chip": "ym2612"
    },
    {
      "channel": 3,
      "note": 60,
      "start": 13.6636,
      "duration": 0.001,
      "velocity": 97,
      "chip": "ym2612"
    },
    {
      "channel": 0,
      "note": 92,
      "start": 13.6642,
      "duration": 0.0009,
      "velocity": 127,
      "chip": "ym2612"
    },
    {
      "channel": 1,
      "note": 65,
      "start": 13.6645,
      "duration": 0.0012,
      "velocity": 88,
      "chip": "ym2612"
    },
    {
      "channel": 3,
      "note": 65,
      "start": 13.6649,
      "duration": 0.001,
      "velocity": 97,
      "chip": "ym2612"
    },
    {
      "channel": 0,
      "note": 92,
      "start": 13.6657,
      "duration": 0.0041,
      "velocity": 127,
      "chip": "ym2612"
    },
    {
      "channel": 0,
      "note": 92,
      "start": 13.67,
      "duration": 0.0006,
      "velocity": 127,
      "chip": "ym2612"
    },
    {
      "channel": 1,
      "note": 65,
      "start": 13.6702,
      "duration": 0.0008,
      "velocity": 88,
      "chip": "ym2612"
    },
    {
      "channel": 3,
      "note": 65,
      "start": 13.6702,
      "duration": 0.0008,
      "velocity": 97,
      "chip": "ym2612"
    },
    {
      "channel": 0,
      "note": 92,
      "start": 13.6709,
      "duration": 0.0487,
      "velocity": 127,
      "chip": "ym2612"
    },
    {
      "channel": 0,
      "note": 92,
      "start": 13.77,
      "duration": 0.0018,
      "velocity": 127,
      "chip": "ym2612"
    },
    {
      "channel": 1,
      "note": 65,
      "start": 13.7704,
      "duration": 0.0028,
      "velocity": 88,
      "chip": "ym2612"
    },
    {
      "channel": 3,
      "note": 65,
      "start": 13.771,
      "duration": 0.0023,
      "velocity": 97,
      "chip": "ym2612"
    },
    {
      "channel": 0,
      "note": 111,
      "start": 13.7731,
      "duration": 0.0046,
      "velocity": 127,
      "chip": "ym2612"
    },
    {
      "channel": 1,
      "note": 65,
      "start": 13.776,
      "duration": 0.0037,
      "velocity": 88,
      "chip": "ym2612"
    },
    {
      "channel": 3,
      "note": 65,
      "start": 13.7767,
      "duration": 0.0033,
      "velocity": 97,
      "chip": "ym2612"
    },
    {
      "channel": 0,
      "note": 92,
      "start": 13.7795,
      "duration": 0.0013,
      "velocity": 127,
      "chip": "ym2612"
    },
    {
      "channel": 0,
      "note": 92,
      "start": 13.7828,
      "duration": 0.002,
      "velocity": 127,
      "chip": "ym2612"
    },
    {
      "channel": 1,
      "note": 60,
      "start": 13.7832,
      "duration": 0.0024,
      "velocity": 88,
      "chip": "ym2612"
    },
    {
      "channel": 3,
      "note": 60,
      "start": 13.7839,
      "duration": 0.0023,
      "velocity": 97,
      "chip": "ym2612"
    },
    {
      "channel": 0,
      "note": 92,
      "start": 13.7856,
      "duration": 0.0012,
      "velocity": 127,
      "chip": "ym2612"
    },
    {
      "channel": 1,
      "note": 65,
      "start": 13.786,
      "duration": 0.0011,
      "velocity": 88,
      "chip": "ym2612"
    },
    {
      "channel": 3,
      "note": 65,
      "start": 13.7865,
      "duration": 0.001,
      "velocity": 97,
      "chip": "ym2612"
    },
    {
      "channel": 0,
      "note": 92,
      "start": 13.787,
      "duration": 0.0011,
      "velocity": 127,
      "chip": "ym2612"
    },
    {
      "channel": 1,
      "note": 53,
      "start": 13.7873,
      "duration": 0.1002,
      "velocity": 88,
      "chip": "ym2612"
    },
    {
      "channel": 3,
      "note": 53,
      "start": 13.7878,
      "duration": 0.1003,
      "velocity": 97,
      "chip": "ym2612"
    },
    {
      "channel": 0,
      "note": 92,
      "start": 13.7883,
      "duration": 0.0487,
      "velocity": 127,
      "chip": "ym2612"
    },
    {
      "channel": 0,
      "note": 92,
      "start": 13.8874,
      "duration": 0.002,
      "velocity": 127,
      "chip": "ym2612"
    },
    {
      "channel": 1,
      "note": 65,
      "start": 13.8879,
      "duration": 0.0029,
      "velocity": 88,
      "chip": "ym2612"
    },
    {
      "channel": 3,
      "note": 65,
      "start": 13.8885,
      "duration": 0.0027,
      "velocity": 97,
      "chip": "ym2612"
    },
    {
      "channel": 0,
      "note": 111,
      "start": 13.8907,
      "duration": 0.0032,
      "velocity": 127,
      "chip": "ym2612"
    },
    {
      "channel": 1,
      "note": 53,
      "start": 13.891,
      "duration": 0.0017,
      "velocity": 88,
      "chip": "ym2612"
    },
    {
      "channel": 3,
      "note": 53,
      "start": 13.8917,
      "duration": 0.0014,
      "velocity": 97,
      "chip": "ym2612"
    },
    {
      "channel": 1,
      "note": 60,
      "start": 13.8929,
      "duration": 0.0021,
      "velocity": 88,
      "chip": "ym2612"
    },
    {
      "channel": 3,
      "note": 60,
      "start": 13.8934,
      "duration": 0.0019,
      "velocity": 97,
      "chip": "ym2612"
    },
    {
      "channel": 0,
      "note": 92,
      "start": 13.895,
      "duration": 0.0008,
      "velocity": 127,
      "chip": "ym2612"
    },
    {
      "channel": 1,
      "note": 56,
      "start": 13.8952,
      "duration": 0.001,
      "velocity": 88,
      "chip": "ym2612"
    },
    {
      "channel": 3,
      "note": 56,
      "start": 13.8956,
      "duration": 0.0011,
      "velocity": 97,
      "chip": "ym2612"
    },
    {
      "channel": 0,
      "note": 92,
      "start": 13.8961,
      "duration": 0.001,
      "velocity": 127,
      "chip": "ym2612"
    },
    {
      "channel": 1,
      "note": 65,
      "start": 13.8965,
      "duration": 0.0012,
      "velocity": 88,
      "chip": "ym2612"
    },
    {
      "channel": 3,
      "note": 65,
      "start": 13.8969,
      "duration": 0.001,
      "velocity": 97,
      "chip": "ym2612"
    },
    {
      "channel": 0,
      "note": 92,
      "start": 13.8977,
      "duration": 0.0005,
      "velocity": 127,
      "chip": "ym2612"
    },
    {
      "channel": 0,
      "note": 92,
      "start": 13.8985,
      "duration": 0.0005,
      "velocity": 127,
      "chip": "ym2612"
    },
    {
      "channel": 1,
      "note": 65,
      "start": 13.8986,
      "duration": 0.0007,
      "velocity": 88,
      "chip": "ym2612"
    },
    {
      "channel": 3,
      "note": 65,
      "start": 13.8987,
      "duration": 0.0009,
      "velocity": 97,
      "chip": "ym2612"
    },
    {
      "channel": 0,
      "note": 92,
      "start": 13.8992,
      "duration": 0.0486,
      "velocity": 127,
      "chip": "ym2612"
    },
    {
      "channel": 1,
      "note": 60,
      "start": 13.8996,
      "duration": 0.0987,
      "velocity": 88,
      "chip": "ym2612"
    },
    {
      "channel": 3,
      "note": 60,
      "start": 13.9,
      "duration": 0.0988,
      "velocity": 97,
      "chip": "ym2612"
    },
    {
      "channel": 0,
      "note": 92,
      "start": 13.9981,
      "duration": 0.0049,
      "velocity": 127,
      "chip": "ym2612"
    },
    {
      "channel": 1,
      "note": 53,
      "start": 13.9986,
      "duration": 0.0058,
      "velocity": 88,
      "chip": "ym2612"
    },
    {
      "channel": 3,
      "note": 53,
      "start": 13.9993,
      "duration": 0.0056,
      "velocity": 97,
      "chip": "ym2612"
    },
    {
      "channel": 0,
      "note": 111,
      "start": 14.0044,
      "duration": 0.0024,
      "velocity": 127,
      "chip": "ym2612"
    },
    {
      "channel": 1,
      "note": 56,
      "start": 14.0048,
      "duration": 0.0041,
      "velocity": 88,
      "chip": "ym2612"
    },
    {
      "channel": 3,
      "note": 56,
      "start": 14.0053,
      "duration": 0.0041,
      "velocity": 97,
      "chip": "ym2612"
    },
    {
      "channel": 0,
      "note": 92,
      "start": 14.0087,
      "duration": 0.002,
      "velocity": 127,
      "chip": "ym2612"
    },
    {
      "channel": 1,
      "note": 58,
      "start": 14.0092,
      "duration": 0.0067,
      "velocity": 88,
      "chip": "ym2612"
    },
    {
      "channel": 3,
      "note": 58,
      "start": 14.0099,
      "duration": 0.0064,
      "velocity": 97,
      "chip": "ym2612"
    },
    {
      "channel": 0,
      "note": 92,
      "start": 14.012,
      "duration": 0.0011,
      "velocity": 127,
      "chip": "ym2612"
    },
    {
      "channel": 0,
      "note": 92,
      "start": 14.0159,
      "duration": 0.0015,
      "velocity": 127,
      "chip": "ym2612"
    },
    {
      "channel": 0,
      "note": 92,
      "start": 14.0191,
      "duration": 0.002,
      "velocity": 127,
      "chip": "ym2612"
    },
    {
      "channel": 1,
      "note": 65,
      "start": 14.0196,
      "duration": 0.0019,
      "velocity": 88,
      "chip": "ym2612"
    },
    {
      "channel": 3,
      "note": 65,
      "start": 14.0202,
      "duration": 0.0017,
      "velocity": 97,
      "chip": "ym2612"
    },
    {
      "channel": 0,
      "note": 92,
      "start": 14.0214,
      "duration": 0.001,
      "velocity": 127,
      "chip": "ym2612"
    },
    {
      "channel": 1,
      "note": 63,
      "start": 14.0218,
      "duration": 0.001,
      "velocity": 88,
      "chip": "ym2612"
    },
    {
      "channel": 3,
      "note": 63,
      "start": 14.0222,
      "duration": 0.0011,
      "velocity": 97,
      "chip": "ym2612"
    },
    {
      "channel": 0,
      "note": 92,
      "start": 14.0227,
      "duration": 0.001,
      "velocity": 127,
      "chip": "ym2612"
    },
    {
      "channel": 1,
      "note": 60,
      "start": 14.0231,
      "duration": 0.0019,
      "velocity": 88,
      "chip": "ym2612"
    },
    {
      "channel": 3,
      "note": 60,
      "start": 14.0235,
      "duration": 0.0021,
      "velocity": 97,
      "chip": "ym2612"
    },
    {
      "channel": 0,
      "note": 111,
      "start": 14.0249,
      "duration": 0.0045,
      "velocity": 127,
      "chip": "ym2612"
    },
    {
      "channel": 1,
      "note": 63,
      "start": 14.0254,
      "duration": 0.002,
      "velocity": 88,
      "chip": "ym2612"
    },
    {
      "channel": 3,
      "note": 63,
      "start": 14.0258,
      "duration": 0.0022,
      "velocity": 97,
      "chip": "ym2612"
    },
    {
      "channel": 1,
      "note": 60,
      "start": 14.0277,
      "duration": 0.0029,
      "velocity": 88,
      "chip": "ym2612"
    },
    {
      "channel": 3,
      "note": 60,
      "start": 14.0283,
      "duration": 0.0027,
      "velocity": 97,
      "chip": "ym2612"
    },
    {
      "channel": 0,
      "note": 92,
      "start": 14.0306,
      "duration": 0.0009,
      "velocity": 127,
      "chip": "ym2612"
    },
    {
      "channel": 1,
      "note": 56,
      "start": 14.0309,
      "duration": 0.001,
      "velocity": 88,
      "chip": "ym2612"
    },
    {
      "channel": 3,
      "note": 56,
      "start": 14.0313,
      "duration": 0.0008,
      "velocity": 97,
      "chip": "ym2612"
    },
    {
      "channel": 0,
      "note": 92,
      "start": 14.0318,
      "duration": 0.0009,
      "velocity": 127,
      "chip": "ym2612"
    },
    {
      "channel": 1,
      "note": 53,
      "start": 14.0321,
      "duration": 0.0012,
      "velocity": 88,
      "chip": "ym2612"
    },
    {
      "channel": 3,
      "note": 53,
      "start": 14.0324,
      "duration": 0.0013,
      "velocity": 97,
      "chip": "ym2612"
    },
    {
      "channel": 0,
      "note": 92,
      "start": 14.0332,
      "duration": 0.0017,
      "velocity": 127,
      "chip": "ym2612"
    },
    {
      "channel": 1,
      "note": 56,
      "start": 14.0336,
      "duration": 0.0017,
      "velocity": 88,
      "chip": "ym2612"
    },
    {
      "channel": 3,
      "note": 56,
      "start": 14.0341,
      "duration": 0.0016,
      "velocity": 97,
      "chip": "ym2612"
    },
    {
      "channel": 0,
      "note": 92,
      "start": 14.0353,
      "duration": 0.0023,
      "velocity": 127,
      "chip": "ym2612"
    },
    {
      "channel": 1,
      "note": 58,
      "start": 14.0355,
      "duration": 0.0024,
      "velocity": 88,
      "chip": "ym2612"
    },
    {
      "channel": 3,
      "note": 58,
      "start": 14.0359,
      "duration": 0.0025,
      "velocity": 97,
      "chip": "ym2612"
    },
    {
      "channel": 0,
      "note": 92,
      "start": 14.0379,
      "duration": 0.001,
      "velocity": 127,
      "chip": "ym2612"
    },
    {
      "channel": 1,
      "note": 59,
      "start": 14.0383,
      "duration": 0.002,
      "velocity": 88,
      "chip": "ym2612"
    },
    {
      "channel": 3,
      "note": 59,
      "start": 14.0387,
      "duration": 0.0022,
      "velocity": 97,
      "chip": "ym2612"
    },
    {
      "channel": 0,
      "note": 92,
      "start": 14.0402,
      "duration": 0.0013,
      "velocity": 127,
      "chip": "ym2612"
    },
    {
      "channel": 1,
      "note": 56,
      "start": 14.0406,
      "duration": 0.0037,
      "velocity": 88,
      "chip": "ym2612"
    },
    {
      "channel": 3,
      "note": 56,
      "start": 14.0411,
      "duration": 0.0037,
      "velocity": 97,
      "chip": "ym2612"
    },
    {
      "channel": 0,
      "note": 111,
      "start": 14.0441,
      "duration": 0.0044,
      "velocity": 127,
      "chip": "ym2612"
    },
    {
      "channel": 1,
      "note": 59,
      "start": 14.0446,
      "duration": 0.0012,
      "velocity": 88,
      "chip": "ym2612"
    },
    {
      "channel": 3,
      "note": 59,
      "start": 14.0451,
      "duration": 0.001,
      "velocity": 97,
      "chip": "ym2612"
    },
    {
      "channel": 1,
      "note": 60,
      "start": 14.046,
      "duration": 0.0039,
      "velocity": 88,
      "chip": "ym2612"
    },
    {
      "channel": 3,
      "note": 60,
      "start": 14.0463,
      "duration": 0.0039,
      "velocity": 97,
      "chip": "ym2612"
    },
    {
      "channel": 0,
      "note": 92,
      "start": 14.0498,
      "duration": 0.001,
      "velocity": 127,
      "chip": "ym2612"
    },
    {
      "channel": 1,
      "note": 51,
      "start": 14.0501,
      "duration": 0.0015,
      "velocity": 88,
      "chip": "ym2612"
    },
    {
      "channel": 3,
      "note": 51,
      "start": 14.0505,
      "duration": 0.0017,
      "velocity": 97,
      "chip": "ym2612"
    },
    {
      "channel": 0,
      "note": 92,
      "start": 14.0515,
      "duration": 0.0012,
      "velocity": 127,
      "chip": "ym2612"
    },
    {
      "channel": 1,
      "note": 52,
      "start": 14.052,
      "duration": 0.0017,
      "velocity": 88,
      "chip": "ym2612"
    },
    {
      "channel": 3,
      "note": 52,
      "start": 14.0525,
      "duration": 0.0018,
      "velocity": 97,
      "chip": "ym2612"
    },
    {
      "channel": 0,
      "note": 92,
      "start": 14.0536,
      "duration": 0.0014,
      "velocity": 127,
      "chip": "ym2612"
    },
    {
      "channel": 1,
      "note": 53,
      "start": 14.0541,
      "duration": 0.0019,
      "velocity": 88,
      "chip": "ym2612"
    },
    {
      "channel": 3,
      "note": 53,
      "start": 14.0546,
      "duration": 0.0015,
      "velocity": 97,
      "chip": "ym2612"
    },
    {
      "channel": 0,
      "note": 92,
      "start": 14.0553,
      "duration": 0.0004,
      "velocity": 127,
      "chip": "ym2612"
    },
    {
      "channel": 0,
      "note": 92,
      "start": 14.0559,
      "duration": 0.0303,
      "velocity": 127,
      "chip": "ym2612"
    },
    {
      "channel": 0,
      "note": 92,
      "start": 14.1366,
      "duration": 0.004,
      "velocity": 127,
      "chip": "ym2612"
    },
    {
      "channel": 0,
      "note": 111,
      "start": 14.142,
      "duration": 0.0015,
      "velocity": 127,
      "chip": "ym2612"
    },
    {
      "channel": 0,
      "note": 92,
      "start": 14.1448,
      "duration": 0.0003,
      "velocity": 127,
      "chip": "ym2612"
    },
    {
      "channel": 0,
      "note": 92,
      "start": 14.1454,
      "duration": 0.0004,
      "velocity": 127,
      "chip": "ym2612"
    },
    {
      "channel": 0,
      "note": 92,
      "start": 14.1464,
      "duration": 0.001,
      "velocity": 127,
      "chip": "ym2612"
    },
    {
      "channel": 0,
      "note": 92,
      "start": 14.1477,
      "duration": 0.0037,
      "velocity": 127,
      "chip": "ym2612"
    },
    {
      "channel": 0,
      "note": 92,
      "start": 14.1517,
      "duration": 0.031,
      "velocity": 127,
      "chip": "ym2612"
    },
    {
      "channel": 0,
      "note": 92,
      "start": 14.2332,
      "duration": 0.004,
      "velocity": 127,
      "chip": "ym2612"
    },
    {
      "channel": 0,
      "note": 111,
      "start": 14.2385,
      "duration": 0.0014,
      "velocity": 127,
      "chip": "ym2612"
    },
    {
      "channel": 0,
      "note": 92,
      "start": 14.241,
      "duration": 0.0003,
      "velocity": 127,
      "chip": "ym2612"
    },
    {
      "channel": 0,
      "note": 92,
      "start": 14.2414,
      "duration": 0.0008,
      "velocity": 127,
      "chip": "ym2612"
    },
    {
      "channel": 0,
      "note": 92,
      "start": 14.243,
      "duration": 0.0005,
      "velocity": 127,
      "chip": "ym2612"
    },
    {
      "channel": 0,
      "note": 111,
      "start": 14.2451,
      "duration": 0.0015,
      "velocity": 127,
      "chip": "ym2612"
    },
    {
      "channel": 0,
      "note": 111,
      "start": 14.247,
      "duration": 0.0041,
      "velocity": 127,
      "chip": "ym2612"
    },
    {
      "channel": 0,
      "note": 111,
      "start": 14.2516,
      "duration": 0.0041,
      "velocity": 127,
      "chip": "ym2612"
    },
    {
      "channel": 0,
      "note": 111,
      "start": 14.2561,
      "duration": 0.0046,
      "velocity": 127,
      "chip": "ym2612"
    },
    {
      "channel": 1,
      "note": 51,
      "start": 14.2578,
      "duration": 0.0046,
      "velocity": 88,
      "chip": "ym2612"
    },
    {
      "channel": 3,
      "note": 51,
      "start": 14.258,
      "duration": 0.0047,
      "velocity": 97,
      "chip": "ym2612"
    },
    {
      "channel": 0,
      "note": 111,
      "start": 14.2611,
      "duration": 0.005,
      "velocity": 127,
      "chip": "ym2612"
    },
    {
      "channel": 1,
      "note": 63,
      "start": 14.2627,
      "duration": 0.0051,
      "velocity": 88,
      "chip": "ym2612"
    },
    {
      "channel": 3,
      "note": 63,
      "start": 14.263,
      "duration": 0.0052,
      "velocity": 97,
      "chip": "ym2612"
    },
    {
      "channel": 0,
      "note": 111,
      "start": 14.2665,
      "duration": 0.0051,
      "velocity": 127,
      "chip": "ym2612"
    },
    {
      "channel": 1,
      "note": 52,
      "start": 14.2681,
      "duration": 0.0051,
      "velocity": 88,
      "chip": "ym2612"
    },
    {
      "channel": 3,
      "note": 52,
      "start": 14.2685,
      "duration": 0.005,
      "velocity": 97,
      "chip": "ym2612"
    },
    {
      "channel": 0,
      "note": 111,
      "start": 14.272,
      "duration": 0.0023,
      "velocity": 127,
      "chip": "ym2612"
    },
    {
      "channel": 1,
      "note": 64,
      "start": 14.2735,
      "duration": 0.0037,
      "velocity": 88,
      "chip": "ym2612"
    },
    {
      "channel": 3,
      "note": 64,
      "start": 14.2738,
      "duration": 0.0038,
      "velocity": 97,
      "chip": "ym2612"
    },
    {
      "channel": 0,
      "note": 92,
      "start": 14.2757,
      "duration": 0.0011,
      "velocity": 127,
      "chip": "ym2612"
    },
    {
      "channel": 0,
      "note": 92,
      "start": 14.2772,
      "duration": 0.0009,
      "velocity": 127,
      "chip": "ym2612"
    },
    {
      "channel": 1,
      "note": 53,
      "start": 14.2776,
      "duration": 0.0016,
      "velocity": 88,
      "chip": "ym2612"
    },
    {
      "channel": 3,
      "note": 53,
      "start": 14.2778,
      "duration": 0.0014,
      "velocity": 97,
      "chip": "ym2612"
    },
    {
      "channel": 0,
      "note": 92,
      "start": 14.2784,
      "duration": 0.0003,
      "velocity": 127,
      "chip": "ym2612"
    },
    {
      "channel": 0,
      "note": 92,
      "start": 14.279,
      "duration": 0.0308,
      "velocity": 127,
      "chip": "ym2612"
    },
    {
      "channel": 0,
      "note": 92,
      "start": 14.3602,
      "duration": 0.004,
      "velocity": 127,
      "chip": "ym2612"
    },
    {
      "channel": 0,
      "note": 111,
      "start": 14.3655,
      "duration": 0.0018,
      "velocity": 127,
      "chip": "ym2612"
    },
    {
      "channel": 0,
      "note": 92,
      "start": 14.3686,
      "duration": 0.0003,
      "velocity": 127,
      "chip": "ym2612"
    },
    {
      "channel": 0,
      "note": 92,
      "start": 14.3692,
      "duration": 0.0003,
      "velocity": 127,
      "chip": "ym2612"
    },
    {
      "channel": 0,
      "note": 92,
      "start": 14.37,
      "duration": 0.001,
      "velocity": 127,
      "chip": "ym2612"
    },
    {
      "channel": 0,
      "note": 92,
      "start": 14.3731,
      "duration": 0.0013,
      "velocity": 127,
      "chip": "ym2612"
    },
    {
      "channel": 0,
      "note": 92,
      "start": 14.3746,
      "duration": 0.0013,
      "velocity": 127,
      "chip": "ym2612"
    },
    {
      "channel": 0,
      "note": 92,
      "start": 14.3762,
      "duration": 0.0011,
      "velocity": 127,
      "chip": "ym2612"
    },
    {
      "channel": 0,
      "note": 111,
      "start": 14.3787,
      "duration": 0.0014,
      "velocity": 127,
      "chip": "ym2612"
    },
    {
      "channel": 0,
      "note": 92,
      "start": 14.3814,
      "duration": 0.0012,
      "velocity": 127,
      "chip": "ym2612"
    },
    {
      "channel": 0,
      "note": 92,
      "start": 14.3827,
      "duration": 0.0006,
      "velocity": 127,
      "chip": "ym2612"
    },
    {
      "channel": 0,
      "note": 92,
      "start": 14.385,
      "duration": 0.0013,
      "velocity": 127,
      "chip": "ym2612"
    },
    {
      "channel": 0,
      "note": 92,
      "start": 14.388,
      "duration": 0.0013,
      "velocity": 127,
      "chip": "ym2612"
    },
    {
      "channel": 0,
      "note": 92,
      "start": 14.3896,
      "duration": 0.0003,
      "velocity": 127,
      "chip": "ym2612"
    },
    {
      "channel": 0,
      "note": 92,
      "start": 14.3902,
      "duration": 0.0033,
      "velocity": 127,
      "chip": "ym2612"
    },
    {
      "channel": 0,
      "note": 111,
      "start": 14.395,
      "duration": 0.0041,
      "velocity": 127,
      "chip": "ym2612"
    },
    {
      "channel": 0,
      "note": 92,
      "start": 14.4003,
      "duration": 0.0002,
      "velocity": 127,
      "chip": "ym2612"
    },
    {
      "channel": 0,
      "note": 92,
      "start": 14.4008,
      "duration": 0.0038,
      "velocity": 127,
      "chip": "ym2612"
    },
    {
      "channel": 0,
      "note": 92,
      "start": 14.4054,
      "duration": 0.0022,
      "velocity": 127,
      "chip": "ym2612"
    },
    {
      "channel": 1,
      "note": 56,
      "start": 14.4059,
      "duration": 0.004,
      "velocity": 88,
      "chip": "ym2612"
    },
    {
      "channel": 3,
      "note": 56,
      "start": 14.4066,
      "duration": 0.0037,
      "velocity": 97,
      "chip": "ym2612"
    },
    {
      "channel": 0,
      "note": 92,
      "start": 14.4078,
      "duration": 0.0018,
      "velocity": 127,
      "chip": "ym2612"
    },
    {
      "channel": 0,
      "note": 92,
      "start": 14.4098,
      "duration": 0.0011,
      "velocity": 127,
      "chip": "ym2612"
    },
    {
      "channel": 1,
      "note": 68,
      "start": 14.4102,
      "duration": 0.004,
      "velocity": 88,
      "chip": "ym2612"
    },
    {
      "channel": 3,
      "note": 68,
      "start": 14.4107,
      "duration": 0.004,
      "velocity": 97,
      "chip": "ym2612"
    },
    {
      "channel": 0,
      "note": 92,
      "start": 14.4121,
      "duration": 0.0003,
      "velocity": 127,
      "chip": "ym2612"
    },
    {
      "channel": 0,
      "note": 111,
      "start": 14.4141,
      "duration": 0.0034,
      "velocity": 127,
      "chip": "ym2612"
    },
    {
      "channel": 1,
      "note": 58,
      "start": 14.4145,
      "duration": 0.0042,
      "velocity": 88,
      "chip": "ym2612"
    },
    {
      "channel": 3,
      "note": 58,
      "start": 14.4149,
      "duration": 0.0041,
      "velocity": 97,
      "chip": "ym2612"
    },
    {
      "channel": 0,
      "note": 92,
      "start": 14.4186,
      "duration": 0.001,
      "velocity": 127,
      "chip": "ym2612"
    },
    {
      "channel": 1,
      "note": 70,
      "start": 14.419,
      "duration": 0.0025,
      "velocity": 88,
      "chip": "ym2612"
    },
    {
      "channel": 3,
      "note": 70,
      "start": 14.4194,
      "duration": 0.0029,
      "velocity": 97,
      "chip": "ym2612"
    },
    {
      "channel": 0,
      "note": 92,
      "start": 14.4204,
      "duration": 0.0004,
      "velocity": 127,
      "chip": "ym2612"
    },
    {
      "channel": 0,
      "note": 92,
      "start": 14.4214,
      "duration": 0.0024,
      "velocity": 127,
      "chip": "ym2612"
    },
    {
      "channel": 1,
      "note": 53,
      "start": 14.422,
      "duration": 0.0027,
      "velocity": 88,
      "chip": "ym2612"
    },
    {
      "channel": 3,
      "note": 53,
      "start": 14.4228,
      "duration": 0.0019,
      "velocity": 97,
      "chip": "ym2612"
    },
    {
      "channel": 0,
      "note": 92,
      "start": 14.424,
      "duration": 0.0002,
      "velocity": 127,
      "chip": "ym2612"
    },
    {
      "channel": 0,
      "note": 92,
      "start": 14.4246,
      "duration": 0.0005,
      "velocity": 127,
      "chip": "ym2612"
    },
    {
      "channel": 0,
      "note": 92,
      "start": 14.4275,
      "duration": 0.0011,
      "velocity": 127,
      "chip": "ym2612"
    },
    {
      "channel": 0,
      "note": 111,
      "start": 14.4301,
      "duration": 0.001,
      "velocity": 127,
      "chip": "ym2612"
    },
    {
      "channel": 0,
      "note": 92,
      "start": 14.4323,
      "duration": 0.0001,
      "velocity": 127,
      "chip": "ym2612"
    },
    {
      "channel": 0,
      "note": 92,
      "start": 14.4328,
      "duration": 0.0003,
      "velocity": 127,
      "chip": "ym2612"
    },
    {
      "channel": 0,
      "note": 92,
      "start": 14.4337,
      "duration": 0.0012,
      "velocity": 127,
      "chip": "ym2612"
    },
    {
      "channel": 0,
      "note": 92,
      "start": 14.4352,
      "duration": 0.0004,
      "velocity": 127,
      "chip": "ym2612"
    },
    {
      "channel": 0,
      "note": 92,
      "start": 14.4358,
      "duration": 0.0004,
      "velocity": 127,
      "chip": "ym2612"
    },
    {
      "channel": 0,
      "note": 92,
      "start": 14.4365,
      "duration": 0.0003,
      "velocity": 127,
      "chip": "ym2612"
    },
    {
      "channel": 0,
      "note": 111,
      "start": 14.4383,
      "duration": 0.0019,
      "velocity": 127,
      "chip": "ym2612"
    },
    {
      "channel": 0,
      "note": 92,
      "start": 14.4428,
      "duration": 0.0011,
      "velocity": 127,
      "chip": "ym2612"
    },
    {
      "channel": 0,
      "note": 92,
      "start": 14.4459,
      "duration": 0.0013,
      "velocity": 127,
      "chip": "ym2612"
    },
    {
      "channel": 0,
      "note": 92,
      "start": 14.4479,
      "duration": 0.0002,
      "velocity": 127,
      "chip": "ym2612"
    },
    {
      "channel": 0,
      "note": 92,
      "start": 14.4485,
      "duration": 0.0036,
      "velocity": 127,
      "chip": "ym2612"
    },
    {
      "channel": 0,
      "note": 92,
      "start": 14.4524,
      "duration": 0.0002,
      "velocity": 127,
      "chip": "ym2612"
    },
    {
      "channel": 0,
      "note": 92,
      "start": 14.4549,
      "duration": 0.0013,
      "velocity": 127,
      "chip": "ym2612"
    },
    {
      "channel": 0,
      "note": 111,
      "start": 14.4577,
      "duration": 0.004,
      "velocity": 127,
      "chip": "ym2612"
    },
    {
      "channel": 0,
      "note": 92,
      "start": 14.4631,
      "duration": 0.0013,
      "velocity": 127,
      "chip": "ym2612"
    },
    {
      "channel": 0,
      "note": 92,
      "start": 14.4648,
      "duration": 0.0002,
      "velocity": 127,
      "chip": "ym2612"
    },
    {
      "channel": 0,
      "note": 92,
      "start": 14.4657,
      "duration": 0.0009,
      "velocity": 127,
      "chip": "ym2612"
    },
    {
      "channel": 1,
      "note": 51,
      "start": 14.4661,
      "duration": 0.0016,
      "velocity": 88,
      "chip": "ym2612"
    },
    {
      "channel": 3,
      "note": 51,
      "start": 14.4664,
      "duration": 0.0017,
      "velocity": 97,
      "chip": "ym2612"
    },
    {
      "channel": 0,
      "note": 92,
      "start": 14.4669,
      "duration": 0.0004,
      "velocity": 127,
      "chip": "ym2612"
    },
    {
      "channel": 0,
      "note": 92,
      "start": 14.4676,
      "duration": 0.0011,
      "velocity": 127,
      "chip": "ym2612"
    },
    {
      "channel": 1,
      "note": 63,
      "start": 14.4679,
      "duration": 0.0029,
      "velocity": 88,
      "chip": "ym2612"
    },
    {
      "channel": 3,
      "note": 63,
      "start": 14.4684,
      "duration": 0.003,
      "velocity": 97,
      "chip": "ym2612"
    },
    {
      "channel": 0,
      "note": 92,
      "start": 14.4689,
      "duration": 0.0002,
      "velocity": 127,
      "chip": "ym2612"
    },
    {
      "channel": 0,
      "note": 111,
      "start": 14.4707,
      "duration": 0.0027,
      "velocity": 127,
      "chip": "ym2612"
    },
    {
      "channel": 1,
      "note": 52,
      "start": 14.4712,
      "duration": 0.0043,
      "velocity": 88,
      "chip": "ym2612"
    },
    {
      "channel": 3,
      "note": 52,
      "start": 14.4719,
      "duration": 0.0042,
      "velocity": 97,
      "chip": "ym2612"
    },
    {
      "channel": 0,
      "note": 92,
      "start": 14.4754,
      "duration": 0.0022,
      "velocity": 127,
      "chip": "ym2612"
    },
    {
      "channel": 1,
      "note": 64,
      "start": 14.4759,
      "duration": 0.0045,
      "velocity": 88,
      "chip": "ym2612"
    },
    {
      "channel": 3,
      "note": 64,
      "start": 14.4766,
      "duration": 0.0041,
      "velocity": 97,
      "chip": "ym2612"
    },
    {
      "channel": 0,
      "note": 92,
      "start": 14.4787,
      "duration": 0.0011,
      "velocity": 127,
      "chip": "ym2612"
    },
    {
      "channel": 0,
      "note": 92,
      "start": 14.4803,
      "duration": 0.0009,
      "velocity": 127,
      "chip": "ym2612"
    },
    {
      "channel": 1,
      "note": 53,
      "start": 14.4806,
      "duration": 0.0016,
      "velocity": 88,
      "chip": "ym2612"
    },
    {
      "channel": 3,
      "note": 53,
      "start": 14.481,
      "duration": 0.0013,
      "velocity": 97,
      "chip": "ym2612"
    },
    {
      "channel": 0,
      "note": 92,
      "start": 14.4815,
      "duration": 0.0003,
      "velocity": 127,
      "chip": "ym2612"
    },
    {
      "channel": 0,
      "note": 92,
      "start": 14.482,
      "duration": 0.0006,
      "velocity": 127,
      "chip": "ym2612"
    },
    {
      "channel": 0,
      "note": 92,
      "start": 14.4851,
      "duration": 0.0013,
      "velocity": 127,
      "chip": "ym2612"
    },
    {
      "channel": 0,
      "note": 111,
      "start": 14.4878,
      "duration": 0.004,
      "velocity": 127,
      "chip": "ym2612"
    },
    {
      "channel": 0,
      "note": 92,
      "start": 14.4933,
      "duration": 0.0012,
      "velocity": 127,
      "chip": "ym2612"
    },
    {
      "channel": 0,
      "note": 92,
      "start": 14.4948,
      "duration": 0.0002,
      "velocity": 127,
      "chip": "ym2612"
    },
    {
      "channel": 0,
      "note": 92,
      "start": 14.4956,
      "duration": 0.0009,
      "velocity": 127,
      "chip": "ym2612"
    },
    {
      "channel": 0,
      "note": 92,
      "start": 14.4966,
      "duration": 0.0006,
      "velocity": 127,
      "chip": "ym2612"
    },
    {
      "channel": 0,
      "note": 92,
      "start": 14.4995,
      "duration": 0.0012,
      "velocity": 127,
      "chip": "ym2612"
    },
    {
      "channel": 0,
      "note": 92,
      "start": 14.501,
      "duration": 0.0005,
      "velocity": 127,
      "chip": "ym2612"
    },
    {
      "channel": 0,
      "note": 111,
      "start": 14.5029,
      "duration": 0.0016,
      "velocity": 127,
      "chip": "ym2612"
    },
    {
      "channel": 0,
      "note": 92,
      "start": 14.5064,
      "duration": 0.001,
      "velocity": 127,
      "chip": "ym2612"
    },
    {
      "channel": 0,
      "note": 92,
      "start": 14.5075,
      "duration": 0.0007,
      "velocity": 127,
      "chip": "ym2612"
    },
    {
      "channel": 0,
      "note": 111,
      "start": 14.5095,
      "duration": 0.0005,
      "velocity": 127,
      "chip": "ym2612"
    },
    {
      "channel": 0,
      "note": 92,
      "start": 14.5113,
      "duration": 0.0004,
      "velocity": 127,
      "chip": "ym2612"
    },
    {
      "channel": 0,
      "note": 92,
      "start": 14.514,
      "duration": 0.0014,
      "velocity": 127,
      "chip": "ym2612"
    },
    {
      "channel": 0,
      "note": 111,
      "start": 14.5175,
      "duration": 0.0017,
      "velocity": 127,
      "chip": "ym2612"
    },
    {
      "channel": 0,
      "note": 92,
      "start": 14.5204,
      "duration": 0.0003,
      "velocity": 127,
      "chip": "ym2612"
    },
    {
      "channel": 0,
      "note": 92,
      "start": 14.5229,
      "duration": 0.0009,
      "velocity": 127,
      "chip": "ym2612"
    },
    {
      "channel": 0,
      "note": 111,
      "start": 14.5252,
      "duration": 0.001,
      "velocity": 127,
      "chip": "ym2612"
    },
    {
      "channel": 1,
      "note": 56,
      "start": 14.5253,
      "duration": 0.0021,
      "velocity": 88,
      "chip": "ym2612"
    },
    {
      "channel": 3,
      "note": 56,
      "start": 14.5256,
      "duration": 0.0022,
      "velocity": 97,
      "chip": "ym2612"
    },
    {
      "channel": 0,
      "note": 92,
      "start": 14.5271,
      "duration": 0.0003,
      "velocity": 127,
      "chip": "ym2612"
    },
    {
      "channel": 1,
      "note": 68,
      "start": 14.5277,
      "duration": 0.0061,
      "velocity": 88,
      "chip": "ym2612"
    },
    {
      "channel": 3,
      "note": 68,
      "start": 14.5281,
      "duration": 0.0062,
      "velocity": 97,
      "chip": "ym2612"
    },
    {
      "channel": 0,
      "note": 92,
      "start": 14.5301,
      "duration": 0.001,
      "velocity": 127,
      "chip": "ym2612"
    },
    {
      "channel": 0,
      "note": 111,
      "start": 14.5337,
      "duration": 0.0014,
      "velocity": 127,
      "chip": "ym2612"
    },
    {
      "channel": 1,
      "note": 58,
      "start": 14.5342,
      "duration": 0.005,
      "velocity": 88,
      "chip": "ym2612"
    },
    {
      "channel": 3,
      "note": 58,
      "start": 14.5347,
      "duration": 0.0048,
      "velocity": 97,
      "chip": "ym2612"
    },
    {
      "channel": 0,
      "note": 92,
      "start": 14.5378,
      "duration": 0.0012,
      "velocity": 127,
      "chip": "ym2612"
    },
    {
      "channel": 1,
      "note": 70,
      "start": 14.5394,
      "duration": 0.0017,
      "velocity": 88,
      "chip": "ym2612"
    },
    {
      "channel": 3,
      "note": 70,
      "start": 14.5398,
      "duration": 0.0018,
      "velocity": 97,
      "chip": "ym2612"
    },
    {
      "channel": 0,
      "note": 92,
      "start": 14.5403,
      "duration": 0.0003,
      "velocity": 127,
      "chip": "ym2612"
    },
    {
      "channel": 1,
      "note": 53,
      "start": 14.5415,
      "duration": 0.0023,
      "velocity": 88,
      "chip": "ym2612"
    },
    {
      "channel": 3,
      "note": 53,
      "start": 14.5418,
      "duration": 0.0023,
      "velocity": 97,
      "chip": "ym2612"
    },
    {
      "channel": 1,
      "note": 65,
      "start": 14.5441,
      "duration": 0.0022,
      "velocity": 88,
      "chip": "ym2612"
    },
    {
      "channel": 3,
      "note": 65,
      "start": 14.5444,
      "duration": 0.0023,
      "velocity": 97,
      "chip": "ym2612"
    },
    {
      "channel": 1,
      "note": 50,
      "start": 14.5465,
      "duration": 0.0035,
      "velocity": 88,
      "chip": "ym2612"
    },
    {
      "channel": 3,
      "note": 50,
      "start": 14.5469,
      "duration": 0.0035,
      "velocity": 97,
      "chip": "ym2612"
    },
    {
      "channel": 1,
      "note": 62,
      "start": 14.5503,
      "duration": 0.0021,
      "velocity": 88,
      "chip": "ym2612"
    },
    {
      "channel": 3,
      "note": 62,
      "start": 14.5507,
      "duration": 0.0021,
      "velocity": 97,
      "chip": "ym2612"
    },
    {
      "channel": 1,
      "note": 51,
      "start": 14.5526,
      "duration": 0.0021,
      "velocity": 88,
      "chip": "ym2612"
    },
    {
      "channel": 3,
      "note": 51,
      "start": 14.5531,
      "duration": 0.002,
      "velocity": 97,
      "chip": "ym2612"
    },
    {
      "channel": 1,
      "note": 63,
      "start": 14.5549,
      "duration": 0.0036,
      "velocity": 88,
      "chip": "ym2612"
    },
    {
      "channel": 3,
      "note": 63,
      "start": 14.5555,
      "duration": 0.0034,
      "velocity": 97,
      "chip": "ym2612"
    },
    {
      "channel": 1,
      "note": 52,
      "start": 14.5588,
      "duration": 0.0012,
      "velocity": 88,
      "chip": "ym2612"
    },
    {
      "channel": 3,
      "note": 52,
      "start": 14.5592,
      "duration": 0.0013,
      "velocity": 97,
      "chip": "ym2612"
    },
    {
      "channel": 1,
      "note": 64,
      "start": 14.5603,
      "duration": 0.0021,
      "velocity": 88,
      "chip": "ym2612"
    },
    {
      "channel": 3,
      "note": 64,
      "start": 14.5608,
      "duration": 0.0019,
      "velocity": 97,
      "chip": "ym2612"
    },
    {
      "channel": 1,
      "note": 53,
      "start": 14.5626,
      "duration": 0.0012,
      "velocity": 88,
      "chip": "ym2612"
    },
    {
      "channel": 3,
      "note": 53,
      "start": 14.5631,
      "duration": 0.0012,
      "velocity": 97,
      "chip": "ym2612"
    },
    {
      "channel": 1,
      "note": 65,
      "start": 14.5641,
      "duration": 0.0021,
      "velocity": 88,
      "chip": "ym2612"
    },
    {
      "channel": 3,
      "note": 65,
      "start": 14.5646,
      "duration": 0.002,
      "velocity": 97,
      "chip": "ym2612"
    },
    {
      "channel": 1,
      "note": 50,
      "start": 14.5664,
      "duration": 0.0036,
      "velocity": 88,
      "chip": "ym2612"
    },
    {
      "channel": 3,
      "note": 50,
      "start": 14.5669,
      "duration": 0.0034,
      "velocity": 97,
      "chip": "ym2612"
    },
    {
      "channel": 1,
      "note": 62,
      "start": 14.5702,
      "duration": 0.0021,
      "velocity": 88,
      "chip": "ym2612"
    },
    {
      "channel": 3,
      "note": 62,
      "start": 14.5706,
      "duration": 0.002,
      "velocity": 97,
      "chip": "ym2612"
    },
    {
      "channel": 1,
      "note": 51,
      "start": 14.5724,
      "duration": 0.0024,
      "velocity": 88,
      "chip": "ym2612"
    },
    {
      "channel": 3,
      "note": 51,
      "start": 14.5729,
      "duration": 0.0024,
      "velocity": 97,
      "chip": "ym2612"
    },
    {
      "channel": 1,
      "note": 63,
      "start": 14.575,
      "duration": 0.0024,
      "velocity": 88,
      "chip": "ym2612"
    },
    {
      "channel": 3,
      "note": 63,
      "start": 14.5756,
      "duration": 0.0024,
      "velocity": 97,
      "chip": "ym2612"
    },
    {
      "channel": 1,
      "note": 63,
      "start": 14.5778,
      "duration": 0.0016,
      "velocity": 88,
      "chip": "ym2612"
    },
    {
      "channel": 3,
      "note": 63,
      "start": 14.5784,
      "duration": 0.0015,
      "velocity": 97,
      "chip": "ym2612"
    },
    {
      "channel": 1,
      "note": 52,
      "start": 14.5797,
      "duration": 0.0054,
      "velocity": 88,
      "chip": "ym2612"
    },
    {
      "channel": 3,
      "note": 52,
      "start": 14.5802,
      "duration": 0.0055,
      "velocity": 97,
      "chip": "ym2612"
    },
    {
      "channel": 1,
      "note": 64,
      "start": 14.5854,
      "duration": 0.0027,
      "velocity": 88,
      "chip": "ym2612"
    },
    {
      "channel": 3,
      "note": 64,
      "start": 14.5861,
      "duration": 0.0021,
      "velocity": 97,
      "chip": "ym2612"
    },
    {
      "channel": 1,
      "note": 64,
      "start": 14.5882,
      "duration": 0.0021,
      "velocity": 88,
      "chip": "ym2612"
    },
    {
      "channel": 3,
      "note": 64,
      "start": 14.5884,
      "duration": 0.0026,
      "velocity": 97,
      "chip": "ym2612"
    },
    {
      "channel": 1,
      "note": 53,
      "start": 14.5907,
      "duration": 0.0032,
      "velocity": 88,
      "chip": "ym2612"
    },
    {
      "channel": 3,
      "note": 53,
      "start": 14.5915,
      "duration": 0.0029,
      "velocity": 97,
      "chip": "ym2612"
    },
    {
      "channel": 1,
      "note": 65,
      "start": 14.5941,
      "duration": 0.0026,
      "velocity": 88,
      "chip": "ym2612"
    },
    {
      "channel": 3,
      "note": 65,
      "start": 14.5947,
      "duration": 0.0025,
      "velocity": 97,
      "chip": "ym2612"
    },
    {
      "channel": 1,
      "note": 50,
      "start": 14.5969,
      "duration": 0.0036,
      "velocity": 88,
      "chip": "ym2612"
    },
    {
      "channel": 3,
      "note": 50,
      "start": 14.5975,
      "duration": 0.0034,
      "velocity": 97,
      "chip": "ym2612"
    },
    {
      "channel": 1,
      "note": 62,
      "start": 14.6007,
      "duration": 0.0021,
      "velocity": 88,
      "chip": "ym2612"
    },
    {
      "channel": 3,
      "note": 62,
      "start": 14.6012,
      "duration": 0.0021,
      "velocity": 97,
      "chip": "ym2612"
    },
    {
      "channel": 1,
      "note": 51,
      "start": 14.603,
      "duration": 0.0021,
      "velocity": 88,
      "chip": "ym2612"
    },
    {
      "channel": 3,
      "note": 51,
      "start": 14.6036,
      "duration": 0.002,
      "velocity": 97,
      "chip": "ym2612"
    },
    {
      "channel": 1,
      "note": 63,
      "start": 14.6054,
      "duration": 0.0036,
      "velocity": 88,
      "chip": "ym2612"
    },
    {
      "channel": 3,
      "note": 63,
      "start": 14.6059,
      "duration": 0.0034,
      "velocity": 97,
      "chip": "ym2612"
    },
    {
      "channel": 1,
      "note": 52,
      "start": 14.6093,
      "duration": 0.0012,
      "velocity": 88,
      "chip": "ym2612"
    },
    {
      "channel": 3,
      "note": 52,
      "start": 14.6097,
      "duration": 0.0013,
      "velocity": 97,
      "chip": "ym2612"
    },
    {
      "channel": 1,
      "note": 64,
      "start": 14.6107,
      "duration": 0.0021,
      "velocity": 88,
      "chip": "ym2612"
    },
    {
      "channel": 3,
      "note": 64,
      "start": 14.6112,
      "duration": 0.002,
      "velocity": 97,
      "chip": "ym2612"
    },
    {
      "channel": 1,
      "note": 70,
      "start": 14.6132,
      "duration": 0.0008,
      "velocity": 88,
      "chip": "ym2612"
    },
    {
      "channel": 3,
      "note": 70,
      "start": 14.6136,
      "duration": 0.0008,
      "velocity": 97,
      "chip": "ym2612"
    },
    {
      "channel": 1,
      "note": 72,
      "start": 14.6143,
      "duration": 0.0024,
      "velocity": 88,
      "chip": "ym2612"
    },
    {
      "channel": 3,
      "note": 72,
      "start": 14.6146,
      "duration": 0.0027,
      "velocity": 97,
      "chip": "ym2612"
    },
    {
      "channel": 1,
      "note": 70,
      "start": 14.6171,
      "duration": 0.0017,
      "velocity": 88,
      "chip": "ym2612"
    },
    {
      "channel": 3,
      "note": 70,
      "start": 14.6177,
      "duration": 0.0015,
      "velocity": 97,
      "chip": "ym2612"
    },
    {
      "channel": 1,
      "note": 60,
      "start": 14.619,
      "duration": 0.0017,
      "velocity": 88,
      "chip": "ym2612"
    },
    {
      "channel": 3,
      "note": 60,
      "start": 14.6194,
      "duration": 0.0016,
      "velocity": 97,
      "chip": "ym2612"
    },
    {
      "channel": 1,
      "note": 58,
      "start": 14.621,
      "duration": 0.0025,
      "velocity": 88,
      "chip": "ym2612"
    },
    {
      "channel": 3,
      "note": 58,
      "start": 14.6213,
      "duration": 0.0027,
      "velocity": 97,
      "chip": "ym2612"
    },
    {
      "channel": 1,
      "note": 60,
      "start": 14.6238,
      "duration": 0.0018,
      "velocity": 88,
      "chip": "ym2612"
    },
    {
      "channel": 3,
      "note": 60,
      "start": 14.6244,
      "duration": 0.0016,
      "velocity": 97,
      "chip": "ym2612"
    },
    {
      "channel": 1,
      "note": 62,
      "start": 14.6259,
      "duration": 0.0017,
      "velocity": 88,
      "chip": "ym2612"
    },
    {
      "channel": 3,
      "note": 62,
      "start": 14.6262,
      "duration": 0.0018,
      "velocity": 97,
      "chip": "ym2612"
    },
    {
      "channel": 1,
      "note": 63,
      "start": 14.6279,
      "duration": 0.006,
      "velocity": 88,
      "chip": "ym2612"
    },
    {
      "channel": 3,
      "note": 63,
      "start": 14.6282,
      "duration": 0.0063,
      "velocity": 97,
      "chip": "ym2612"
    },
    {
      "channel": 1,
      "note": 65,
      "start": 14.6343,
      "duration": 0.0017,
      "velocity": 88,
      "chip": "ym2612"
    },
    {
      "channel": 3,
      "note": 65,
      "start": 14.6349,
      "duration": 0.0014,
      "velocity": 97,
      "chip": "ym2612"
    },
    {
      "channel": 1,
      "note": 67,
      "start": 14.6363,
      "duration": 0.0018,
      "velocity": 88,
      "chip": "ym2612"
    },
    {
      "channel": 3,
      "note": 67,
      "start": 14.6367,
      "duration": 0.0017,
      "velocity": 97,
      "chip": "ym2612"
    },
    {
      "channel": 1,
      "note": 65,
      "start": 14.6384,
      "duration": 0.0025,
      "velocity": 88,
      "chip": "ym2612"
    },
    {
      "channel": 3,
      "note": 65,
      "start": 14.6388,
      "duration": 0.0027,
      "velocity": 97,
      "chip": "ym2612"
    },
    {
      "channel": 1,
      "note": 56,
      "start": 14.6412,
      "duration": 0.0017,
      "velocity": 88,
      "chip": "ym2612"
    },
    {
      "channel": 3,
      "note": 56,
      "start": 14.6419,
      "duration": 0.0014,
      "velocity": 97,
      "chip": "ym2612"
    },
    {
      "channel": 1,
      "note": 58,
      "start": 14.6432,
      "duration": 0.0054,
      "velocity": 88,
      "chip": "ym2612"
    },
    {
      "channel": 3,
      "note": 58,
      "start": 14.6436,
      "duration": 0.0057,
      "velocity": 97,
      "chip": "ym2612"
    },
    {
      "channel": 1,
      "note": 56,
      "start": 14.649,
      "duration": 0.0017,
      "velocity": 88,
      "chip": "ym2612"
    },
    {
      "channel": 3,
      "note": 56,
      "start": 14.6497,
      "duration": 0.0014,
      "velocity": 97,
      "chip": "ym2612"
    },
    {
      "channel": 1,
      "note": 58,
      "start": 14.651,
      "duration": 0.0009,
      "velocity": 88,
      "chip": "ym2612"
    },
    {
      "channel": 3,
      "note": 58,
      "start": 14.6514,
      "duration": 0.0008,
      "velocity": 97,
      "chip": "ym2612"
    },
    {
      "channel": 1,
      "note": 60,
      "start": 14.6522,
      "duration": 0.0018,
      "velocity": 88,
      "chip": "ym2612"
    },
    {
      "channel": 3,
      "note": 60,
      "start": 14.6525,
      "duration": 0.0018,
      "velocity": 97,
      "chip": "ym2612"
    },
    {
      "channel": 1,
      "note": 53,
      "start": 14.6543,
      "duration": 0.003,
      "velocity": 88,
      "chip": "ym2612"
    },
    {
      "channel": 3,
      "note": 53,
      "start": 14.6549,
      "duration": 0.0029,
      "velocity": 97,
      "chip": "ym2612"
    },
    {
      "channel": 1,
      "note": 65,
      "start": 14.6575,
      "duration": 0.0026,
      "velocity": 88,
      "chip": "ym2612"
    },
    {
      "channel": 3,
      "note": 65,
      "start": 14.658,
      "duration": 0.0025,
      "velocity": 97,
      "chip": "ym2612"
    },
    {
      "channel": 1,
      "note": 50,
      "start": 14.6603,
      "duration": 0.0036,
      "velocity": 88,
      "chip": "ym2612"
    },
    {
      "channel": 3,
      "note": 50,
      "start": 14.6609,
      "duration": 0.0034,
      "velocity": 97,
      "chip": "ym2612"
    },
    {
      "channel": 1,
      "note": 62,
      "start": 14.6641,
      "duration": 0.0021,
      "velocity": 88,
      "chip": "ym2612"
    },
    {
      "channel": 3,
      "note": 62,
      "start": 14.6645,
      "duration": 0.0021,
      "velocity": 97,
      "chip": "ym2612"
    },
    {
      "channel": 1,
      "note": 51,
      "start": 14.6664,
      "duration": 0.0021,
      "velocity": 88,
      "chip": "ym2612"
    },
    {
      "channel": 3,
      "note": 51,
      "start": 14.6669,
      "duration": 0.002,
      "velocity": 97,
      "chip": "ym2612"
    },
    {
      "channel": 1,
      "note": 63,
      "start": 14.6688,
      "duration": 0.0037,
      "velocity": 88,
      "chip": "ym2612"
    },
    {
      "channel": 3,
      "note": 63,
      "start": 14.6693,
      "duration": 0.0035,
      "velocity": 97,
      "chip": "ym2612"
    },
    {
      "channel": 1,
      "note": 52,
      "start": 14.6728,
      "duration": 0.0012,
      "velocity": 88,
      "chip": "ym2612"
    },
    {
      "channel": 3,
      "note": 52,
      "start": 14.6731,
      "duration": 0.0013,
      "velocity": 97,
      "chip": "ym2612"
    },
    {
      "channel": 1,
      "note": 64,
      "start": 14.6742,
      "duration": 0.0021,
      "velocity": 88,
      "chip": "ym2612"
    },
    {
      "channel": 3,
      "note": 64,
      "start": 14.6747,
      "duration": 0.002,
      "velocity": 97,
      "chip": "ym2612"
    },
    {
      "channel": 1,
      "note": 65,
      "start": 14.6766,
      "duration": 0.0011,
      "velocity": 88,
      "chip": "ym2612"
    },
    {
      "channel": 3,
      "note": 65,
      "start": 14.6771,
      "duration": 0.0012,
      "velocity": 97,
      "chip": "ym2612"
    },
    {
      "channel": 1,
      "note": 63,
      "start": 14.6781,
      "duration": 0.0041,
      "velocity": 88,
      "chip": "ym2612"
    },
    {
      "channel": 3,
      "note": 63,
      "start": 14.6785,
      "duration": 0.004,
      "velocity": 97,
      "chip": "ym2612"
    },
    {
      "channel": 1,
      "note": 65,
      "start": 14.6825,
      "duration": 0.002,
      "velocity": 88,
      "chip": "ym2612"
    },
    {
      "channel": 3,
      "note": 65,
      "start": 14.6829,
      "duration": 0.0019,
      "velocity": 97,
      "chip": "ym2612"
    },
    {
      "channel": 1,
      "note": 63,
      "start": 14.6847,
      "duration": 0.0034,
      "velocity": 88,
      "chip": "ym2612"
    },
    {
      "channel": 3,
      "note": 63,
      "start": 14.6851,
      "duration": 0.0033,
      "velocity": 97,
      "chip": "ym2612"
    },
    {
      "channel": 1,
      "note": 65,
      "start": 14.6883,
      "duration": 0.001,
      "velocity": 88,
      "chip": "ym2612"
    },
    {
      "channel": 3,
      "note": 65,
      "start": 14.6888,
      "duration": 0.0012,
      "velocity": 97,
      "chip": "ym2612"
    },
    {
      "channel": 1,
      "note": 60,
      "start": 14.6898,
      "duration": 0.0013,
      "velocity": 88,
      "chip": "ym2612"
    },
    {
      "channel": 3,
      "note": 60,
      "start": 14.6904,
      "duration": 0.0011,
      "velocity": 97,
      "chip": "ym2612"
    },
    {
      "channel": 1,
      "note": 58,
      "start": 14.6913,
      "duration": 0.001,
      "velocity": 88,
      "chip": "ym2612"
    },
    {
      "channel": 3,
      "note": 58,
      "start": 14.6917,
      "duration": 0.001,
      "velocity": 97,
      "chip": "ym2612"
    },
    {
      "channel": 1,
      "note": 59,
      "start": 14.6926,
      "duration": 0.0048,
      "velocity": 88,
      "chip": "ym2612"
    },
    {
      "channel": 3,
      "note": 59,
      "start": 14.6929,
      "duration": 0.0048,
      "velocity": 97,
      "chip": "ym2612"
    },
    {
      "channel": 1,
      "note": 56,
      "start": 14.6976,
      "duration": 0.0041,
      "velocity": 88,
      "chip": "ym2612"
    },
    {
      "channel": 3,
      "note": 56,
      "start": 14.6981,
      "duration": 0.004,
      "velocity": 97,
      "chip": "ym2612"
    },
    {
      "channel": 1,
      "note": 58,
      "start": 14.702,
      "duration": 0.0034,
      "velocity": 88,
      "chip": "ym2612"
    },
    {
      "channel": 3,
      "note": 58,
      "start": 14.7025,
      "duration": 0.0034,
      "velocity": 97,
      "chip": "ym2612"
    },
    {
      "channel": 1,
      "note": 55,
      "start": 14.7057,
      "duration": 0.0011,
      "velocity": 88,
      "chip": "ym2612"
    },
    {
      "channel": 3,
      "note": 55,
      "start": 14.7061,
      "duration": 0.0012,
      "velocity": 97,
      "chip": "ym2612"
    },
    {
      "channel": 1,
      "note": 54,
      "start": 14.7071,
      "duration": 0.0022,
      "velocity": 88,
      "chip": "ym2612"
    },
    {
      "channel": 3,
      "note": 54,
      "start": 14.7074,
      "duration": 0.0026,
      "velocity": 97,
      "chip": "ym2612"
    },
    {
      "channel": 1,
      "note": 53,
      "start": 14.7097,
      "duration": 0.0031,
      "velocity": 88,
      "chip": "ym2612"
    },
    {
      "channel": 3,
      "note": 53,
      "start": 14.7104,
      "duration": 0.0028,
      "velocity": 97,
      "chip": "ym2612"
    },
    {
      "channel": 1,
      "note": 65,
      "start": 14.713,
      "duration": 0.0027,
      "velocity": 88,
      "chip": "ym2612"
    },
    {
      "channel": 3,
      "note": 65,
      "start": 14.7135,
      "duration": 0.0026,
      "velocity": 97,
      "chip": "ym2612"
    },
    {
      "channel": 1,
      "note": 55,
      "start": 14.716,
      "duration": 0.0036,
      "velocity": 88,
      "chip": "ym2612"
    },
    {
      "channel": 3,
      "note": 55,
      "start": 14.7165,
      "duration": 0.0034,
      "velocity": 97,
      "chip": "ym2612"
    },
    {
      "channel": 1,
      "note": 67,
      "start": 14.7198,
      "duration": 0.0021,
      "velocity": 88,
      "chip": "ym2612"
    },
    {
      "channel": 3,
      "note": 67,
      "start": 14.7202,
      "duration": 0.002,
      "velocity": 97,
      "chip": "ym2612"
    },
    {
      "channel": 1,
      "note": 56,
      "start": 14.7221,
      "duration": 0.0022,
      "velocity": 88,
      "chip": "ym2612"
    },
    {
      "channel": 3,
      "note": 56,
      "start": 14.7225,
      "duration": 0.0022,
      "velocity": 97,
      "chip": "ym2612"
    },
    {
      "channel": 1,
      "note": 68,
      "start": 14.7245,
      "duration": 0.0036,
      "velocity": 88,
      "chip": "ym2612"
    },
    {
      "channel": 3,
      "note": 68,
      "start": 14.725,
      "duration": 0.0034,
      "velocity": 97,
      "chip": "ym2612"
    },
    {
      "channel": 1,
      "note": 57,
      "start": 14.7284,
      "duration": 0.0012,
      "velocity": 88,
      "chip": "ym2612"
    },
    {
      "channel": 3,
      "note": 58,
      "start": 14.7288,
      "duration": 0.0013,
      "velocity": 97,
      "chip": "ym2612"
    },
    {
      "channel": 1,
      "note": 69,
      "start": 14.7298,
      "duration": 0.0021,
      "velocity": 88,
      "chip": "ym2612"
    },
    {
      "channel": 3,
      "note": 70,
      "start": 14.7304,
      "duration": 0.002,
      "velocity": 97,
      "chip": "ym2612"
    },
    {
      "channel": 1,
      "note": 60,
      "start": 14.7322,
      "duration": 0.0035,
      "velocity": 88,
      "chip": "ym2612"
    },
    {
      "channel": 3,
      "note": 60,
      "start": 14.7328,
      "duration": 0.0033,
      "velocity": 97,
      "chip": "ym2612"
    },
    {
      "channel": 1,
      "note": 72,
      "start": 14.736,
      "duration": 0.002,
      "velocity": 88,
      "chip": "ym2612"
    },
    {
      "channel": 3,
      "note": 72,
      "start": 14.7364,
      "duration": 0.0021,
      "velocity": 97,
      "chip": "ym2612"
    },
    {
      "channel": 1,
      "note": 59,
      "start": 14.7382,
      "duration": 0.0043,
      "velocity": 88,
      "chip": "ym2612"
    },
    {
      "channel": 3,
      "note": 59,
      "start": 14.7389,
      "duration": 0.004,
      "velocity": 97,
      "chip": "ym2612"
    },
    {
      "channel": 1,
      "note": 71,
      "start": 14.7427,
      "duration": 0.0036,
      "velocity": 88,
      "chip": "ym2612"
    },
    {
      "channel": 3,
      "note": 71,
      "start": 14.7433,
      "duration": 0.0034,
      "velocity": 97,
      "chip": "ym2612"
    },
    {
      "channel": 1,
      "note": 58,
      "start": 14.7467,
      "duration": 0.0041,
      "velocity": 88,
      "chip": "ym2612"
    },
    {
      "channel": 3,
      "note": 58,
      "start": 14.747,
      "duration": 0.0042,
      "velocity": 97,
      "chip": "ym2612"
    },
    {
      "channel": 1,
      "note": 70,
      "start": 14.7511,
      "duration": 0.0034,
      "velocity": 88,
      "chip": "ym2612"
    },
    {
      "channel": 3,
      "note": 70,
      "start": 14.7516,
      "duration": 0.0031,
      "velocity": 97,
      "chip": "ym2612"
    },
    {
      "channel": 1,
      "note": 56,
      "start": 14.7547,
      "duration": 0.004,
      "velocity": 88,
      "chip": "ym2612"
    },
    {
      "channel": 3,
      "note": 56,
      "start": 14.755,
      "duration": 0.0041,
      "velocity": 97,
      "chip": "ym2612"
    },
    {
      "channel": 1,
      "note": 68,
      "start": 14.7589,
      "duration": 0.0015,
      "velocity": 88,
      "chip": "ym2612"
    },
    {
      "channel": 3,
      "note": 68,
      "start": 14.7596,
      "duration": 0.0011,
      "velocity": 97,
      "chip": "ym2612"
    },
    {
      "channel": 1,
      "note": 55,
      "start": 14.7606,
      "duration": 0.0024,
      "velocity": 88,
      "chip": "ym2612"
    },
    {
      "channel": 3,
      "note": 55,
      "start": 14.761,
      "duration": 0.0027,
      "velocity": 97,
      "chip": "ym2612"
    },
    {
      "channel": 1,
      "note": 67,
      "start": 14.7634,
      "duration": 0.0017,
      "velocity": 88,
      "chip": "ym2612"
    },
    {
      "channel": 3,
      "note": 67,
      "start": 14.7641,
      "duration": 0.0015,
      "velocity": 97,
      "chip": "ym2612"
    },
    {
      "channel": 1,
      "note": 54,
      "start": 14.7654,
      "duration": 0.0014,
      "velocity": 88,
      "chip": "ym2612"
    },
    {
      "channel": 3,
      "note": 54,
      "start": 14.7658,
      "duration": 0.003,
      "velocity": 97,
      "chip": "ym2612"
    },
    {
      "channel": 0,
      "note": 92,
      "start": 14.7667,
      "duration": 0.0074,
      "velocity": 127,
      "chip": "ym2612"
    },
    {
      "channel": 1,
      "note": 65,
      "start": 14.767,
      "duration": 0.0076,
      "velocity": 88,
      "chip": "ym2612"
    },
    {
      "channel": 2,
      "note": 76,
      "start": 14.7687,
      "duration": 0.0062,
      "velocity": 82,
      "chip": "ym2612"
    },
    {
      "channel": 3,
      "note": 65,
      "start": 14.769,
      "duration": 0.0064,
      "velocity": 97,
      "chip": "ym2612"
    },
    {
      "channel": 4,
      "note": 76,
      "start": 14.7708,
      "duration": 0.005,
      "velocity": 82,
      "chip": "ym2612"
    },
    {
      "channel": 0,
      "note": 92,
      "start": 14.7744,
      "duration": 0.0019,
      "velocity": 127,
      "chip": "ym2612"
    },
    {
      "channel": 1,
      "note": 53,
      "start": 14.7748,
      "duration": 0.1006,
      "velocity": 88,
      "chip": "ym2612"
    },
    {
      "channel": 2,
      "note": 77,
      "start": 14.7753,
      "duration": 0.0012,
      "velocity": 82,
      "chip": "ym2612"
    },
    {
      "channel": 3,
      "note": 53,
      "start": 14.7757,
      "duration": 0.1007,
      "velocity": 97,
      "chip": "ym2612"
    },
    {
      "channel": 4,
      "note": 77,
      "start": 14.776,
      "duration": 0.0007,
      "velocity": 82,
      "chip": "ym2612"
    },
    {
      "channel": 0,
      "note": 92,
      "start": 14.7765,
      "duration": 0.0485,
      "velocity": 127,
      "chip": "ym2612"
    },
    {
      "channel": 2,
      "note": 77,
      "start": 14.7766,
      "duration": 0.0993,
      "velocity": 82,
      "chip": "ym2612"
    },
    {
      "channel": 4,
      "note": 77,
      "start": 14.7768,
      "duration": 0.1,
      "velocity": 82,
      "chip": "ym2612"
    },
    {
      "channel": 0,
      "note": 92,
      "start": 14.8754,
      "duration": 0.0025,
      "velocity": 127,
      "chip": "ym2612"
    },
    {
      "channel": 1,
      "note": 53,
      "start": 14.8758,
      "duration": 0.0037,
      "velocity": 88,
      "chip": "ym2612"
    },
    {
      "channel": 2,
      "note": 77,
      "start": 14.8763,
      "duration": 0.0036,
      "velocity": 82,
      "chip": "ym2612"
    },
    {
      "channel": 3,
      "note": 53,
      "start": 14.8768,
      "duration": 0.0033,
      "velocity": 97,
      "chip": "ym2612"
    },
    {
      "channel": 4,
      "note": 77,
      "start": 14.8772,
      "duration": 0.0033,
      "velocity": 82,
      "chip": "ym2612"
    },
    {
      "channel": 0,
      "note": 111,
      "start": 14.8794,
      "duration": 0.0036,
      "velocity": 127,
      "chip": "ym2612"
    },
    {
      "channel": 1,
      "note": 56,
      "start": 14.8798,
      "duration": 0.0021,
      "velocity": 88,
      "chip": "ym2612"
    },
    {
      "channel": 2,
      "note": 77,
      "start": 14.88,
      "duration": 0.0021,
      "velocity": 82,
      "chip": "ym2612"
    },
    {
      "channel": 3,
      "note": 56,
      "start": 14.8804,
      "duration": 0.002,
      "velocity": 97,
      "chip": "ym2612"
    },
    {
      "channel": 4,
      "note": 77,
      "start": 14.8809,
      "duration": 0.0015,
      "velocity": 82,
      "chip": "ym2612"
    },
    {
      "channel": 2,
      "note": 77,
      "start": 14.8822,
      "duration": 0.0023,
      "velocity": 82,
      "chip": "ym2612"
    },
    {
      "channel": 4,
      "note": 77,
      "start": 14.8825,
      "duration": 0.0025,
      "velocity": 82,
      "chip": "ym2612"
    },
    {
      "channel": 0,
      "note": 92,
      "start": 14.8842,
      "duration": 0.0013,
      "velocity": 127,
      "chip": "ym2612"
    },
    {
      "channel": 1,
      "note": 58,
      "start": 14.8844,
      "duration": 0.0015,
      "velocity": 88,
      "chip": "ym2612"
    },
    {
      "channel": 2,
      "note": 77,
      "start": 14.8847,
      "duration": 0.0014,
      "velocity": 82,
      "chip": "ym2612"
    },
    {
      "channel": 3,
      "note": 58,
      "start": 14.8849,
      "duration": 0.0014,
      "velocity": 97,
      "chip": "ym2612"
    },
    {
      "channel": 4,
      "note": 77,
      "start": 14.8851,
      "duration": 0.0013,
      "velocity": 82,
      "chip": "ym2612"
    },
    {
      "channel": 0,
      "note": 92,
      "start": 14.8858,
      "duration": 0.0009,
      "velocity": 127,
      "chip": "ym2612"
    },
    {
      "channel": 2,
      "note": 77,
      "start": 14.8862,
      "duration": 0.0013,
      "velocity": 82,
      "chip": "ym2612"
    },
    {
      "channel": 4,
      "note": 77,
      "start": 14.8865,
      "duration": 0.0014,
      "velocity": 82,
      "chip": "ym2612"
    },
    {
      "channel": 0,
      "note": 92,
      "start": 14.8874,
      "duration": 0.001,
      "velocity": 127,
      "chip": "ym2612"
    },
    {
      "channel": 2,
      "note": 77,
      "start": 14.8877,
      "duration": 0.0014,
      "velocity": 82,
      "chip": "ym2612"
    },
    {
      "channel": 4,
      "note": 77,
      "start": 14.8881,
      "duration": 0.0015,
      "velocity": 82,
      "chip": "ym2612"
    },
    {
      "channel": 0,
      "note": 92,
      "start": 14.8888,
      "duration": 0.0011,
      "velocity": 127,
      "chip": "ym2612"
    },
    {
      "channel": 1,
      "note": 60,
      "start": 14.889,
      "duration": 0.0999,
      "velocity": 88,
      "chip": "ym2612"
    },
    {
      "channel": 2,
      "note": 77,
      "start": 14.8892,
      "duration": 0.0011,
      "velocity": 82,
      "chip": "ym2612"
    },
    {
      "channel": 3,
      "note": 60,
      "start": 14.8895,
      "duration": 0.1004,
      "velocity": 97,
      "chip": "ym2612"
    },
    {
      "channel": 4,
      "note": 77,
      "start": 14.8897,
      "duration": 0.0007,
      "velocity": 82,
      "chip": "ym2612"
    },
    {
      "channel": 0,
      "note": 92,
      "start": 14.8902,
      "duration": 0.0483,
      "velocity": 127,
      "chip": "ym2612"
    },
    {
      "channel": 2,
      "note": 77,
      "start": 14.8904,
      "duration": 0.099,
      "velocity": 82,
      "chip": "ym2612"
    },
    {
      "channel": 4,
      "note": 77,
      "start": 14.8905,
      "duration": 0.0998,
      "velocity": 82,
      "chip": "ym2612"
    },
    {
      "channel": 0,
      "note": 92,
      "start": 14.9889,
      "duration": 0.0025,
      "velocity": 127,
      "chip": "ym2612"
    },
    {
      "channel": 1,
      "note": 60,
      "start": 14.9893,
      "duration": 0.0037,
      "velocity": 88,
      "chip": "ym2612"
    },
    {
      "channel": 2,
      "note": 77,
      "start": 14.9898,
      "duration": 0.0035,
      "velocity": 82,
      "chip": "ym2612"
    },
    {
      "channel": 3,
      "note": 60,
      "start": 14.9902,
      "duration": 0.0033,
      "velocity": 97,
      "chip": "ym2612"
    },
    {
      "channel": 4,
      "note": 77,
      "start": 14.9907,
      "duration": 0.0033,
      "velocity": 82,
      "chip": "ym2612"
    },
    {
      "channel": 0,
      "note": 111,
      "start": 14.9929,
      "duration": 0.004,
      "velocity": 127,
      "chip": "ym2612"
    },
    {
      "channel": 1,
      "note": 63,
      "start": 14.9932,
      "duration": 0.0021,
      "velocity": 88,
      "chip": "ym2612"
    },
    {
      "channel": 2,
      "note": 77,
      "start": 14.9934,
      "duration": 0.0023,
      "velocity": 82,
      "chip": "ym2612"
    },
    {
      "channel": 3,
      "note": 63,
      "start": 14.9939,
      "duration": 0.0021,
      "velocity": 97,
      "chip": "ym2612"
    },
    {
      "channel": 4,
      "note": 77,
      "start": 14.9944,
      "duration": 0.002,
      "velocity": 82,
      "chip": "ym2612"
    },
    {
      "channel": 1,
      "note": 60,
      "start": 14.9957,
      "duration": 0.0027,
      "velocity": 88,
      "chip": "ym2612"
    },
    {
      "channel": 2,
      "note": 77,
      "start": 14.9959,
      "duration": 0.0029,
      "velocity": 82,
      "chip": "ym2612"
    },
    {
      "channel": 3,
      "note": 60,
      "start": 14.9963,
      "duration": 0.0029,
      "velocity": 97,
      "chip": "ym2612"
    },
    {
      "channel": 4,
      "note": 77,
      "start": 14.9964,
      "duration": 0.0031,
      "velocity": 82,
      "chip": "ym2612"
    },
    {
      "channel": 0,
      "note": 92,
      "start": 14.9983,
      "duration": 0.0018,
      "velocity": 127,
      "chip": "ym2612"
    },
    {
      "channel": 1,
      "note": 63,
      "start": 14.9986,
      "duration": 0.0018,
      "velocity": 88,
      "chip": "ym2612"
    },
    {
      "channel": 2,
      "note": 75,
      "start": 14.9991,
      "duration": 0.0018,
      "velocity": 82,
      "chip": "ym2612"
    },
    {
      "channel": 3,
      "note": 63,
      "start": 14.9995,
      "duration": 0.0017,
      "velocity": 97,
      "chip": "ym2612"
    },
    {
      "channel": 4,
      "note": 75,
      "start": 14.9998,
      "duration": 0.0019,
      "velocity": 82,
      "chip": "ym2612"
    },
    {
      "channel": 0,
      "note": 92,
      "start": 15.0004,
      "duration": 0.0017,
      "velocity": 127,
      "chip": "ym2612"
    },
    {
      "channel": 1,
      "note": 64,
      "start": 15.0008,
      "duration": 0.0021,
      "velocity": 88,
      "chip": "ym2612"
    },
    {
      "channel": 2,
      "note": 72,
      "start": 15.0011,
      "duration": 0.0022,
      "velocity": 82,
      "chip": "ym2612"
    },
    {
      "channel": 3,
      "note": 64,
      "start": 15.0015,
      "duration": 0.0022,
      "velocity": 97,
      "chip": "ym2612"
    },
    {
      "channel": 4,
      "note": 72,
      "start": 15.0018,
      "duration": 0.0022,
      "velocity": 82,
      "chip": "ym2612"
    },
    {
      "channel": 0,
      "note": 92,
      "start": 15.0028,
      "duration": 0.0017,
      "velocity": 127,
      "chip": "ym2612"
    },
    {
      "channel": 1,
      "note": 53,
      "start": 15.0032,
      "duration": 0.0017,
      "velocity": 88,
      "chip": "ym2612"
    },
    {
      "channel": 2,
      "note": 75,
      "start": 15.0035,
      "duration": 0.0018,
      "velocity": 82,
      "chip": "ym2612"
    },
    {
      "channel": 3,
      "note": 53,
      "start": 15.0039,
      "duration": 0.0018,
      "velocity": 97,
      "chip": "ym2612"
    },
    {
      "channel": 4,
      "note": 75,
      "start": 15.0042,
      "duration": 0.002,
      "velocity": 82,
      "chip": "ym2612"
    },
    {
      "channel": 0,
      "note": 92,
      "start": 15.0048,
      "duration": 0.002,
      "velocity": 127,
      "chip": "ym2612"
    },
    {
      "channel": 1,
      "note": 65,
      "start": 15.0052,
      "duration": 0.0018,
      "velocity": 88,
      "chip": "ym2612"
    },
    {
      "channel": 2,
      "note": 72,
      "start": 15.0057,
      "duration": 0.0014,
      "velocity": 82,
      "chip": "ym2612"
    },
    {
      "channel": 3,
      "note": 65,
      "start": 15.006,
      "duration": 0.0014,
      "velocity": 97,
      "chip": "ym2612"
    },
    {
      "channel": 4,
      "note": 72,
      "start": 15.0064,
      "duration": 0.0013,
      "velocity": 82,
      "chip": "ym2612"
    },
    {
      "channel": 0,
      "note": 92,
      "start": 15.0069,
      "duration": 0.048,
      "velocity": 127,
      "chip": "ym2612"
    },
    {
      "channel": 1,
      "note": 65,
      "start": 15.0071,
      "duration": 0.0983,
      "velocity": 88,
      "chip": "ym2612"
    },
    {
      "channel": 2,
      "note": 71,
      "start": 15.0073,
      "duration": 0.0986,
      "velocity": 82,
      "chip": "ym2612"
    },
    {
      "channel": 3,
      "note": 65,
      "start": 15.0076,
      "duration": 0.0987,
      "velocity": 97,
      "chip": "ym2612"
    },
    {
      "channel": 4,
      "note": 71,
      "start": 15.008,
      "duration": 0.0988,
      "velocity": 82,
      "chip": "ym2612"
    },
    {
      "channel": 0,
      "note": 92,
      "start": 15.1053,
      "duration": 0.0027,
      "velocity": 127,
      "chip": "ym2612"
    },
    {
      "channel": 1,
      "note": 55,
      "start": 15.1058,
      "duration": 0.0036,
      "velocity": 88,
      "chip": "ym2612"
    },
    {
      "channel": 2,
      "note": 70,
      "start": 15.1062,
      "duration": 0.0035,
      "velocity": 82,
      "chip": "ym2612"
    },
    {
      "channel": 3,
      "note": 55,
      "start": 15.1067,
      "duration": 0.0034,
      "velocity": 97,
      "chip": "ym2612"
    },
    {
      "channel": 4,
      "note": 70,
      "start": 15.1073,
      "duration": 0.0034,
      "velocity": 82,
      "chip": "ym2612"
    },
    {
      "channel": 0,
      "note": 111,
      "start": 15.1093,
      "duration": 0.0043,
      "velocity": 127,
      "chip": "ym2612"
    },
    {
      "channel": 1,
      "note": 67,
      "start": 15.1096,
      "duration": 0.0024,
      "velocity": 88,
      "chip": "ym2612"
    },
    {
      "channel": 2,
      "note": 72,
      "start": 15.11,
      "duration": 0.0021,
      "velocity": 82,
      "chip": "ym2612"
    },
    {
      "channel": 3,
      "note": 67,
      "start": 15.1105,
      "duration": 0.0021,
      "velocity": 97,
      "chip": "ym2612"
    },
    {
      "channel": 4,
      "note": 72,
      "start": 15.1109,
      "duration": 0.0018,
      "velocity": 82,
      "chip": "ym2612"
    },
    {
      "channel": 1,
      "note": 67,
      "start": 15.1121,
      "duration": 0.0029,
      "velocity": 88,
      "chip": "ym2612"
    },
    {
      "channel": 2,
      "note": 70,
      "start": 15.1125,
      "duration": 0.0029,
      "velocity": 82,
      "chip": "ym2612"
    },
    {
      "channel": 3,
      "note": 67,
      "start": 15.1127,
      "duration": 0.0031,
      "velocity": 97,
      "chip": "ym2612"
    },
    {
      "channel": 4,
      "note": 70,
      "start": 15.113,
      "duration": 0.0033,
      "velocity": 82,
      "chip": "ym2612"
    },
    {
      "channel": 0,
      "note": 92,
      "start": 15.1149,
      "duration": 0.002,
      "velocity": 127,
      "chip": "ym2612"
    },
    {
      "channel": 1,
      "note": 56,
      "start": 15.1152,
      "duration": 0.002,
      "velocity": 88,
      "chip": "ym2612"
    },
    {
      "channel": 2,
      "note": 67,
      "start": 15.1156,
      "duration": 0.0021,
      "velocity": 82,
      "chip": "ym2612"
    },
    {
      "channel": 3,
      "note": 56,
      "start": 15.1161,
      "duration": 0.002,
      "velocity": 97,
      "chip": "ym2612"
    },
    {
      "channel": 4,
      "note": 67,
      "start": 15.1166,
      "duration": 0.002,
      "velocity": 82,
      "chip": "ym2612"
    },
    {
      "channel": 0,
      "note": 92,
      "start": 15.1172,
      "duration": 0.0019,
      "velocity": 127,
      "chip": "ym2612"
    },
    {
      "channel": 1,
      "note": 68,
      "start": 15.1176,
      "duration": 0.0022,
      "velocity": 88,
      "chip": "ym2612"
    },
    {
      "channel": 2,
      "note": 63,
      "start": 15.1181,
      "duration": 0.0018,
      "velocity": 82,
      "chip": "ym2612"
    },
    {
      "channel": 3,
      "note": 68,
      "start": 15.1184,
      "duration": 0.0018,
      "velocity": 97,
      "chip": "ym2612"
    },
    {
      "channel": 4,
      "note": 63,
      "start": 15.1188,
      "duration": 0.0017,
      "velocity": 82,
      "chip": "ym2612"
    },
    {
      "channel": 0,
      "note": 92,
      "start": 15.1197,
      "duration": 0.0013,
      "velocity": 127,
      "chip": "ym2612"
    },
    {
      "channel": 1,
      "note": 68,
      "start": 15.1198,
      "duration": 0.0015,
      "velocity": 88,
      "chip": "ym2612"
    },
    {
      "channel": 2,
      "note": 68,
      "start": 15.1202,
      "duration": 0.0015,
      "velocity": 82,
      "chip": "ym2612"
    },
    {
      "channel": 3,
      "note": 68,
      "start": 15.1204,
      "duration": 0.0015,
      "velocity": 97,
      "chip": "ym2612"
    },
    {
      "channel": 4,
      "note": 68,
      "start": 15.1207,
      "duration": 0.0015,
      "velocity": 82,
      "chip": "ym2612"
    },
    {
      "channel": 0,
      "note": 92,
      "start": 15.1212,
      "duration": 0.0017,
      "velocity": 127,
      "chip": "ym2612"
    },
    {
      "channel": 1,
      "note": 55,
      "start": 15.1215,
      "duration": 0.0018,
      "velocity": 88,
      "chip": "ym2612"
    },
    {
      "channel": 2,
      "note": 70,
      "start": 15.1218,
      "duration": 0.0019,
      "velocity": 82,
      "chip": "ym2612"
    },
    {
      "channel": 3,
      "note": 55,
      "start": 15.1221,
      "duration": 0.0017,
      "velocity": 97,
      "chip": "ym2612"
    },
    {
      "channel": 4,
      "note": 70,
      "start": 15.1226,
      "duration": 0.0016,
      "velocity": 82,
      "chip": "ym2612"
    },
    {
      "channel": 0,
      "note": 92,
      "start": 15.1232,
      "duration": 0.0484,
      "velocity": 127,
      "chip": "ym2612"
    },
    {
      "channel": 1,
      "note": 67,
      "start": 15.1236,
      "duration": 0.0985,
      "velocity": 88,
      "chip": "ym2612"
    },
    {
      "channel": 2,
      "note": 71,
      "start": 15.1238,
      "duration": 0.0988,
      "velocity": 82,
      "chip": "ym2612"
    },
    {
      "channel": 3,
      "note": 67,
      "start": 15.1241,
      "duration": 0.0989,
      "velocity": 97,
      "chip": "ym2612"
    },
    {
      "channel": 4,
      "note": 71,
      "start": 15.1245,
      "duration": 0.0989,
      "velocity": 82,
      "chip": "ym2612"
    },
    {
      "channel": 0,
      "note": 92,
      "start": 15.222,
      "duration": 0.0025,
      "velocity": 127,
      "chip": "ym2612"
    },
    {
      "channel": 1,
      "note": 67,
      "start": 15.2224,
      "duration": 0.0036,
      "velocity": 88,
      "chip": "ym2612"
    },
    {
      "channel": 2,
      "note": 68,
      "start": 15.2229,
      "duration": 0.0036,
      "velocity": 82,
      "chip": "ym2612"
    },
    {
      "channel": 3,
      "note": 67,
      "start": 15.2234,
      "duration": 0.0036,
      "velocity": 97,
      "chip": "ym2612"
    },
    {
      "channel": 4,
      "note": 68,
      "start": 15.2238,
      "duration": 0.0036,
      "velocity": 82,
      "chip": "ym2612"
    },
    {
      "channel": 0,
      "note": 111,
      "start": 15.2259,
      "duration": 0.0061,
      "velocity": 127,
      "chip": "ym2612"
    },
    {
      "channel": 1,
      "note": 53,
      "start": 15.2263,
      "duration": 0.0025,
      "velocity": 88,
      "chip": "ym2612"
    },
    {
      "channel": 2,
      "note": 70,
      "start": 15.2268,
      "duration": 0.0026,
      "velocity": 82,
      "chip": "ym2612"
    },
    {
      "channel": 3,
      "note": 53,
      "start": 15.2274,
      "duration": 0.0026,
      "velocity": 97,
      "chip": "ym2612"
    },
    {
      "channel": 4,
      "note": 70,
      "start": 15.2279,
      "duration": 0.0026,
      "velocity": 82,
      "chip": "ym2612"
    },
    {
      "channel": 1,
      "note": 65,
      "start": 15.2293,
      "duration": 0.0042,
      "velocity": 88,
      "chip": "ym2612"
    },
    {
      "channel": 2,
      "note": 67,
      "start": 15.2298,
      "duration": 0.0041,
      "velocity": 82,
      "chip": "ym2612"
    },
    {
      "channel": 3,
      "note": 65,
      "start": 15.2304,
      "duration": 0.0041,
      "velocity": 97,
      "chip": "ym2612"
    },
    {
      "channel": 4,
      "note": 67,
      "start": 15.231,
      "duration": 0.004,
      "velocity": 82,
      "chip": "ym2612"
    },
    {
      "channel": 0,
      "note": 92,
      "start": 15.2333,
      "duration": 0.0028,
      "velocity": 127,
      "chip": "ym2612"
    },
    {
      "channel": 1,
      "note": 52,
      "start": 15.2339,
      "duration": 0.0029,
      "velocity": 88,
      "chip": "ym2612"
    },
    {
      "channel": 2,
      "note": 63,
      "start": 15.2344,
      "duration": 0.003,
      "velocity": 82,
      "chip": "ym2612"
    },
    {
      "channel": 3,
      "note": 52,
      "start": 15.2349,
      "duration": 0.003,
      "velocity": 97,
      "chip": "ym2612"
    },
    {
      "channel": 4,
      "note": 63,
      "start": 15.2354,
      "duration": 0.0031,
      "velocity": 82,
      "chip": "ym2612"
    },
    {
      "channel": 0,
      "note": 92,
      "start": 15.2367,
      "duration": 0.0029,
      "velocity": 127,
      "chip": "ym2612"
    },
    {
      "channel": 1,
      "note": 64,
      "start": 15.2372,
      "duration": 0.0029,
      "velocity": 88,
      "chip": "ym2612"
    },
    {
      "channel": 2,
      "note": 65,
      "start": 15.2378,
      "duration": 0.0028,
      "velocity": 82,
      "chip": "ym2612"
    },
    {
      "channel": 3,
      "note": 64,
      "start": 15.2383,
      "duration": 0.0024,
      "velocity": 97,
      "chip": "ym2612"
    },
    {
      "channel": 4,
      "note": 65,
      "start": 15.2388,
      "duration": 0.0022,
      "velocity": 82,
      "chip": "ym2612"
    },
    {
      "channel": 0,
      "note": 92,
      "start": 15.2401,
      "duration": 0.0013,
      "velocity": 127,
      "chip": "ym2612"
    },
    {
      "channel": 1,
      "note": 65,
      "start": 15.2405,
      "duration": 0.0012,
      "velocity": 88,
      "chip": "ym2612"
    },
    {
      "channel": 3,
      "note": 65,
      "start": 15.2409,
      "duration": 0.0013,
      "velocity": 97,
      "chip": "ym2612"
    },
    {
      "channel": 0,
      "note": 92,
      "start": 15.2416,
      "duration": 0.0014,
      "velocity": 127,
      "chip": "ym2612"
    },
    {
      "channel": 1,
      "note": 53,
      "start": 15.242,
      "duration": 0.1007,
      "velocity": 88,
      "chip": "ym2612"
    },
    {
      "channel": 2,
      "note": 77,
      "start": 15.2422,
      "duration": 0.1011,
      "velocity": 82,
      "chip": "ym2612"
    },
    {
      "channel": 3,
      "note": 53,
      "start": 15.2425,
      "duration": 0.1012,
      "velocity": 97,
      "chip": "ym2612"
    },
    {
      "channel": 4,
      "note": 77,
      "start": 15.2427,
      "duration": 0.1015,
      "velocity": 82,
      "chip": "ym2612"
    },
    {
      "channel": 0,
      "note": 92,
      "start": 15.2434,
      "duration": 0.0489,
      "velocity": 127,
      "chip": "ym2612"
    },
    {
      "channel": 0,
      "note": 92,
      "start": 15.3427,
      "duration": 0.0025,
      "velocity": 127,
      "chip": "ym2612"
    },
    {
      "channel": 1,
      "note": 53,
      "start": 15.3431,
      "duration": 0.0037,
      "velocity": 88,
      "chip": "ym2612"
    },
    {
      "channel": 2,
      "note": 72,
      "start": 15.3436,
      "duration": 0.0036,
      "velocity": 82,
      "chip": "ym2612"
    },
    {
      "channel": 3,
      "note": 53,
      "start": 15.3441,
      "duration": 0.0035,
      "velocity": 97,
      "chip": "ym2612"
    },
    {
      "channel": 4,
      "note": 72,
      "start": 15.3445,
      "duration": 0.0036,
      "velocity": 82,
      "chip": "ym2612"
    },
    {
      "channel": 0,
      "note": 111,
      "start": 15.3467,
      "duration": 0.0032,
      "velocity": 127,
      "chip": "ym2612"
    },
    {
      "channel": 1,
      "note": 56,
      "start": 15.3471,
      "duration": 0.0023,
      "velocity": 88,
      "chip": "ym2612"
    },
    {
      "channel": 2,
      "note": 79,
      "start": 15.3474,
      "duration": 0.004,
      "velocity": 82,
      "chip": "ym2612"
    },
    {
      "channel": 3,
      "note": 56,
      "start": 15.348,
      "duration": 0.0015,
      "velocity": 97,
      "chip": "ym2612"
    },
    {
      "channel": 4,
      "note": 79,
      "start": 15.3485,
      "duration": 0.0037,
      "velocity": 82,
      "chip": "ym2612"
    },
    {
      "channel": 0,
      "note": 92,
      "start": 15.3511,
      "duration": 0.0017,
      "velocity": 127,
      "chip": "ym2612"
    },
    {
      "channel": 1,
      "note": 58,
      "start": 15.3513,
      "duration": 0.0019,
      "velocity": 88,
      "chip": "ym2612"
    },
    {
      "channel": 2,
      "note": 72,
      "start": 15.3518,
      "duration": 0.0016,
      "velocity": 82,
      "chip": "ym2612"
    },
    {
      "channel": 3,
      "note": 58,
      "start": 15.3521,
      "duration": 0.0018,
      "velocity": 97,
      "chip": "ym2612"
    },
    {
      "channel": 4,
      "note": 72,
      "start": 15.3525,
      "duration": 0.0015,
      "velocity": 82,
      "chip": "ym2612"
    },
    {
      "channel": 0,
      "note": 92,
      "start": 15.3532,
      "duration": 0.0015,
      "velocity": 127,
      "chip": "ym2612"
    },
    {
      "channel": 2,
      "note": 80,
      "start": 15.3537,
      "duration": 0.0055,
      "velocity": 82,
      "chip": "ym2612"
    },
    {
      "channel": 4,
      "note": 80,
      "start": 15.3543,
      "duration": 0.0056,
      "velocity": 82,
      "chip": "ym2612"
    },
    {
      "channel": 0,
      "note": 92,
      "start": 15.3553,
      "duration": 0.0033,
      "velocity": 127,
      "chip": "ym2612"
    },
    {
      "channel": 0,
      "note": 92,
      "start": 15.3588,
      "duration": 0.0017,
      "velocity": 127,
      "chip": "ym2612"
    },
    {
      "channel": 1,
      "note": 63,
      "start": 15.3591,
      "duration": 0.0017,
      "velocity": 88,
      "chip": "ym2612"
    },
    {
      "channel": 2,
      "note": 72,
      "start": 15.3595,
      "duration": 0.0014,
      "velocity": 82,
      "chip": "ym2612"
    },
    {
      "channel": 3,
      "note": 63,
      "start": 15.3598,
      "duration": 0.0015,
      "velocity": 97,
      "chip": "ym2612"
    },
    {
      "channel": 4,
      "note": 72,
      "start": 15.3602,
      "duration": 0.0012,
      "velocity": 82,
      "chip": "ym2612"
    },
    {
      "channel": 0,
      "note": 92,
      "start": 15.3607,
      "duration": 0.0485,
      "velocity": 127,
      "chip": "ym2612"
    },
    {
      "channel": 2,
      "note": 81,
      "start": 15.3612,
      "duration": 0.099,
      "velocity": 82,
      "chip": "ym2612"
    },
    {
      "channel": 4,
      "note": 81,
      "start": 15.3616,
      "duration": 0.0995,
      "velocity": 82,
      "chip": "ym2612"
    },
    {
      "channel": 0,
      "note": 92,
      "start": 15.4596,
      "duration": 0.0027,
      "velocity": 127,
      "chip": "ym2612"
    },
    {
      "channel": 1,
      "note": 63,
      "start": 15.46,
      "duration": 0.0037,
      "velocity": 88,
      "chip": "ym2612"
    },
    {
      "channel": 2,
      "note": 72,
      "start": 15.4605,
      "duration": 0.0033,
      "velocity": 82,
      "chip": "ym2612"
    },
    {
      "channel": 3,
      "note": 63,
      "start": 15.461,
      "duration": 0.0032,
      "velocity": 97,
      "chip": "ym2612"
    },
    {
      "channel": 4,
      "note": 72,
      "start": 15.4616,
      "duration": 0.0028,
      "velocity": 82,
      "chip": "ym2612"
    },
    {
      "channel": 0,
      "note": 111,
      "start": 15.4636,
      "duration": 0.0033,
      "velocity": 127,
      "chip": "ym2612"
    },
    {
      "channel": 2,
      "note": 83,
      "start": 15.4641,
      "duration": 0.0017,
      "velocity": 82,
      "chip": "ym2612"
    },
    {
      "channel": 4,
      "note": 83,
      "start": 15.4648,
      "duration": 0.0013,
      "velocity": 82,
      "chip": "ym2612"
    },
    {
      "channel": 1,
      "note": 63,
      "start": 15.4657,
      "duration": 0.003,
      "velocity": 88,
      "chip": "ym2612"
    },
    {
      "channel": 2,
      "note": 84,
      "start": 15.4659,
      "duration": 0.0033,
      "velocity": 82,
      "chip": "ym2612"
    },
    {
      "channel": 3,
      "note": 63,
      "start": 15.466,
      "duration": 0.0037,
      "velocity": 97,
      "chip": "ym2612"
    },
    {
      "channel": 4,
      "note": 84,
      "start": 15.4664,
      "duration": 0.0038,
      "velocity": 82,
      "chip": "ym2612"
    },
    {
      "channel": 0,
      "note": 92,
      "start": 15.4686,
      "duration": 0.0028,
      "velocity": 127,
      "chip": "ym2612"
    },
    {
      "channel": 1,
      "note": 60,
      "start": 15.4691,
      "duration": 0.003,
      "velocity": 88,
      "chip": "ym2612"
    },
    {
      "channel": 2,
      "note": 84,
      "start": 15.4696,
      "duration": 0.003,
      "velocity": 82,
      "chip": "ym2612"
    },
    {
      "channel": 3,
      "note": 60,
      "start": 15.4701,
      "duration": 0.003,
      "velocity": 97,
      "chip": "ym2612"
    },
    {
      "channel": 4,
      "note": 84,
      "start": 15.4706,
      "duration": 0.003,
      "velocity": 82,
      "chip": "ym2612"
    },
    {
      "channel": 0,
      "note": 92,
      "start": 15.472,
      "duration": 0.0029,
      "velocity": 127,
      "chip": "ym2612"
    },
    {
      "channel": 1,
      "note": 60,
      "start": 15.4725,
      "duration": 0.0033,
      "velocity": 88,
      "chip": "ym2612"
    },
    {
      "channel": 2,
      "note": 84,
      "start": 15.473,
      "duration": 0.0031,
      "velocity": 82,
      "chip": "ym2612"
    },
    {
      "channel": 3,
      "note": 60,
      "start": 15.4735,
      "duration": 0.0031,
      "velocity": 97,
      "chip": "ym2612"
    },
    {
      "channel": 4,
      "note": 84,
      "start": 15.474,
      "duration": 0.0029,
      "velocity": 82,
      "chip": "ym2612"
    },
    {
      "channel": 0,
      "note": 92,
      "start": 15.4757,
      "duration": 0.0024,
      "velocity": 127,
      "chip": "ym2612"
    },
    {
      "channel": 2,
      "note": 83,
      "start": 15.4765,
      "duration": 0.0029,
      "velocity": 82,
      "chip": "ym2612"
    },
    {
      "channel": 4,
      "note": 83,
      "start": 15.4773,
      "duration": 0.0031,
      "velocity": 82,
      "chip": "ym2612"
    },
    {
      "channel": 0,
      "note": 92,
      "start": 15.4787,
      "duration": 0.0027,
      "velocity": 127,
      "chip": "ym2612"
    },
    {
      "channel": 1,
      "note": 65,
      "start": 15.4792,
      "duration": 0.0026,
      "velocity": 88,
      "chip": "ym2612"
    },
    {
      "channel": 2,
      "note": 84,
      "start": 15.4797,
      "duration": 0.0024,
      "velocity": 82,
      "chip": "ym2612"
    },
    {
      "channel": 3,
      "note": 65,
      "start": 15.4802,
      "duration": 0.0022,
      "velocity": 97,
      "chip": "ym2612"
    },
    {
      "channel": 4,
      "note": 84,
      "start": 15.4807,
      "duration": 0.002,
      "velocity": 82,
      "chip": "ym2612"
    },
    {
      "channel": 0,
      "note": 92,
      "start": 15.4817,
      "duration": 0.0014,
      "velocity": 127,
      "chip": "ym2612"
    },
    {
      "channel": 1,
      "note": 63,
      "start": 15.482,
      "duration": 0.0015,
      "velocity": 88,
      "chip": "ym2612"
    },
    {
      "channel": 2,
      "note": 84,
      "start": 15.4823,
      "duration": 0.0017,
      "velocity": 82,
      "chip": "ym2612"
    },
    {
      "channel": 3,
      "note": 63,
      "start": 15.4827,
      "duration": 0.0015,
      "velocity": 97,
      "chip": "ym2612"
    },
    {
      "channel": 4,
      "note": 84,
      "start": 15.4828,
      "duration": 0.0018,
      "velocity": 82,
      "chip": "ym2612"
    },
    {
      "channel": 0,
      "note": 92,
      "start": 15.4834,
      "duration": 0.0048,
      "velocity": 127,
      "chip": "ym2612"
    },
    {
      "channel": 1,
      "note": 60,
      "start": 15.4838,
      "duration": 0.0058,
      "velocity": 88,
      "chip": "ym2612"
    },
    {
      "channel": 2,
      "note": 84,
      "start": 15.484,
      "duration": 0.006,
      "velocity": 82,
      "chip": "ym2612"
    },
    {
      "channel": 3,
      "note": 60,
      "start": 15.4844,
      "duration": 0.0061,
      "velocity": 97,
      "chip": "ym2612"
    },
    {
      "channel": 4,
      "note": 84,
      "start": 15.4846,
      "duration": 0.0062,
      "velocity": 82,
      "chip": "ym2612"
    },
    {
      "channel": 0,
      "note": 111,
      "start": 15.4896,
      "duration": 0.0058,
      "velocity": 127,
      "chip": "ym2612"
    },
    {
      "channel": 1,
      "note": 63,
      "start": 15.4899,
      "duration": 0.0026,
      "velocity": 88,
      "chip": "ym2612"
    },
    {
      "channel": 2,
      "note": 83,
      "start": 15.4904,
      "duration": 0.0027,
      "velocity": 82,
      "chip": "ym2612"
    },
    {
      "channel": 3,
      "note": 63,
      "start": 15.4907,
      "duration": 0.0029,
      "velocity": 97,
      "chip": "ym2612"
    },
    {
      "channel": 4,
      "note": 83,
      "start": 15.4912,
      "duration": 0.0029,
      "velocity": 82,
      "chip": "ym2612"
    },
    {
      "channel": 1,
      "note": 60,
      "start": 15.4929,
      "duration": 0.0038,
      "velocity": 88,
      "chip": "ym2612"
    },
    {
      "channel": 2,
      "note": 84,
      "start": 15.4934,
      "duration": 0.0038,
      "velocity": 82,
      "chip": "ym2612"
    },
    {
      "channel": 3,
      "note": 60,
      "start": 15.4939,
      "duration": 0.0034,
      "velocity": 97,
      "chip": "ym2612"
    },
    {
      "channel": 4,
      "note": 84,
      "start": 15.4944,
      "duration": 0.0032,
      "velocity": 82,
      "chip": "ym2612"
    },
    {
      "channel": 0,
      "note": 92,
      "start": 15.4966,
      "duration": 0.0015,
      "velocity": 127,
      "chip": "ym2612"
    },
    {
      "channel": 1,
      "note": 58,
      "start": 15.4971,
      "duration": 0.0014,
      "velocity": 88,
      "chip": "ym2612"
    },
    {
      "channel": 2,
      "note": 84,
      "start": 15.4972,
      "duration": 0.0015,
      "velocity": 82,
      "chip": "ym2612"
    },
    {
      "channel": 3,
      "note": 58,
      "start": 15.4976,
      "duration": 0.0014,
      "velocity": 97,
      "chip": "ym2612"
    },
    {
      "channel": 4,
      "note": 84,
      "start": 15.4978,
      "duration": 0.0015,
      "velocity": 82,
      "chip": "ym2612"
    },
    {
      "channel": 0,
      "note": 92,
      "start": 15.4983,
      "duration": 0.0015,
      "velocity": 127,
      "chip": "ym2612"
    },
    {
      "channel": 1,
      "note": 55,
      "start": 15.4987,
      "duration": 0.002,
      "velocity": 88,
      "chip": "ym2612"
    },
    {
      "channel": 2,
      "note": 84,
      "start": 15.4988,
      "duration": 0.0023,
      "velocity": 82,
      "chip": "ym2612"
    },
    {
      "channel": 3,
      "note": 55,
      "start": 15.4992,
      "duration": 0.0024,
      "velocity": 97,
      "chip": "ym2612"
    },
    {
      "channel": 4,
      "note": 84,
      "start": 15.4995,
      "duration": 0.0025,
      "velocity": 82,
      "chip": "ym2612"
    },
    {
      "channel": 0,
      "note": 92,
      "start": 15.5006,
      "duration": 0.0026,
      "velocity": 127,
      "chip": "ym2612"
    },
    {
      "channel": 1,
      "note": 58,
      "start": 15.501,
      "duration": 0.0025,
      "velocity": 88,
      "chip": "ym2612"
    },
    {
      "channel": 2,
      "note": 83,
      "start": 15.5015,
      "duration": 0.0025,
      "velocity": 82,
      "chip": "ym2612"
    },
    {
      "channel": 3,
      "note": 58,
      "start": 15.5019,
      "duration": 0.0026,
      "velocity": 97,
      "chip": "ym2612"
    },
    {
      "channel": 4,
      "note": 83,
      "start": 15.5024,
      "duration": 0.0024,
      "velocity": 82,
      "chip": "ym2612"
    },
    {
      "channel": 0,
      "note": 92,
      "start": 15.5035,
      "duration": 0.0021,
      "velocity": 127,
      "chip": "ym2612"
    },
    {
      "channel": 1,
      "note": 55,
      "start": 15.5039,
      "duration": 0.0021,
      "velocity": 88,
      "chip": "ym2612"
    },
    {
      "channel": 2,
      "note": 84,
      "start": 15.5044,
      "duration": 0.0021,
      "velocity": 82,
      "chip": "ym2612"
    },
    {
      "channel": 3,
      "note": 55,
      "start": 15.5047,
      "duration": 0.0019,
      "velocity": 97,
      "chip": "ym2612"
    },
    {
      "channel": 4,
      "note": 84,
      "start": 15.5051,
      "duration": 0.0019,
      "velocity": 82,
      "chip": "ym2612"
    },
    {
      "channel": 0,
      "note": 92,
      "start": 15.5059,
      "duration": 0.0013,
      "velocity": 127,
      "chip": "ym2612"
    },
    {
      "channel": 1,
      "note": 53,
      "start": 15.5063,
      "duration": 0.0027,
      "velocity": 88,
      "chip": "ym2612"
    },
    {
      "channel": 2,
      "note": 84,
      "start": 15.5065,
      "duration": 0.003,
      "velocity": 82,
      "chip": "ym2612"
    },
    {
      "channel": 3,
      "note": 53,
      "start": 15.5069,
      "duration": 0.0029,
      "velocity": 97,
      "chip": "ym2612"
    },
    {
      "channel": 4,
      "note": 84,
      "start": 15.507,
      "duration": 0.0031,
      "velocity": 82,
      "chip": "ym2612"
    },
    {
      "channel": 0,
      "note": 92,
      "start": 15.509,
      "duration": 0.0016,
      "velocity": 127,
      "chip": "ym2612"
    },
    {
      "channel": 1,
      "note": 51,
      "start": 15.5094,
      "duration": 0.0026,
      "velocity": 88,
      "chip": "ym2612"
    },
    {
      "channel": 2,
      "note": 84,
      "start": 15.5097,
      "duration": 0.0027,
      "velocity": 82,
      "chip": "ym2612"
    },
    {
      "channel": 3,
      "note": 51,
      "start": 15.5101,
      "duration": 0.0024,
      "velocity": 97,
      "chip": "ym2612"
    },
    {
      "channel": 4,
      "note": 84,
      "start": 15.5102,
      "duration": 0.0027,
      "velocity": 82,
      "chip": "ym2612"
    },
    {
      "channel": 0,
      "note": 111,
      "start": 15.5119,
      "duration": 0.0037,
      "velocity": 127,
      "chip": "ym2612"
    },
    {
      "channel": 1,
      "note": 53,
      "start": 15.5123,
      "duration": 0.0013,
      "velocity": 88,
      "chip": "ym2612"
    },
    {
      "channel": 2,
      "note": 84,
      "start": 15.5124,
      "duration": 0.0016,
      "velocity": 82,
      "chip": "ym2612"
    },
    {
      "channel": 3,
      "note": 53,
      "start": 15.5129,
      "duration": 0.0014,
      "velocity": 97,
      "chip": "ym2612"
    },
    {
      "channel": 4,
      "note": 84,
      "start": 15.513,
      "duration": 0.0015,
      "velocity": 82,
      "chip": "ym2612"
    },
    {
      "channel": 1,
      "note": 55,
      "start": 15.5139,
      "duration": 0.0031,
      "velocity": 88,
      "chip": "ym2612"
    },
    {
      "channel": 2,
      "note": 82,
      "start": 15.5142,
      "duration": 0.0031,
      "velocity": 82,
      "chip": "ym2612"
    },
    {
      "channel": 3,
      "note": 55,
      "start": 15.5145,
      "duration": 0.0032,
      "velocity": 97,
      "chip": "ym2612"
    },
    {
      "channel": 4,
      "note": 82,
      "start": 15.5146,
      "duration": 0.0034,
      "velocity": 82,
      "chip": "ym2612"
    },
    {
      "channel": 0,
      "note": 92,
      "start": 15.5169,
      "duration": 0.0017,
      "velocity": 127,
      "chip": "ym2612"
    },
    {
      "channel": 1,
      "note": 51,
      "start": 15.5172,
      "duration": 0.0042,
      "velocity": 88,
      "chip": "ym2612"
    },
    {
      "channel": 2,
      "note": 79,
      "start": 15.5176,
      "duration": 0.0022,
      "velocity": 82,
      "chip": "ym2612"
    },
    {
      "channel": 3,
      "note": 51,
      "start": 15.518,
      "duration": 0.0042,
      "velocity": 97,
      "chip": "ym2612"
    },
    {
      "channel": 4,
      "note": 79,
      "start": 15.5183,
      "duration": 0.0018,
      "velocity": 82,
      "chip": "ym2612"
    },
    {
      "channel": 0,
      "note": 92,
      "start": 15.5197,
      "duration": 0.0009,
      "velocity": 127,
      "chip": "ym2612"
    },
    {
      "channel": 2,
      "note": 75,
      "start": 15.52,
      "duration": 0.0018,
      "velocity": 82,
      "chip": "ym2612"
    },
    {
      "channel": 4,
      "note": 75,
      "start": 15.5203,
      "duration": 0.0023,
      "velocity": 82,
      "chip": "ym2612"
    },
    {
      "channel": 0,
      "note": 92,
      "start": 15.5213,
      "duration": 0.002,
      "velocity": 127,
      "chip": "ym2612"
    },
    {
      "channel": 1,
      "note": 65,
      "start": 15.5218,
      "duration": 0.0017,
      "velocity": 88,
      "chip": "ym2612"
    },
    {
      "channel": 2,
      "note": 77,
      "start": 15.5221,
      "duration": 0.0027,
      "velocity": 82,
      "chip": "ym2612"
    },
    {
      "channel": 3,
      "note": 65,
      "start": 15.5225,
      "duration": 0.0014,
      "velocity": 97,
      "chip": "ym2612"
    },
    {
      "channel": 4,
      "note": 77,
      "start": 15.5229,
      "duration": 0.0024,
      "velocity": 82,
      "chip": "ym2612"
    },
    {
      "channel": 0,
      "note": 92,
      "start": 15.5234,
      "duration": 0.001,
      "velocity": 127,
      "chip": "ym2612"
    },
    {
      "channel": 1,
      "note": 53,
      "start": 15.5238,
      "duration": 0.1004,
      "velocity": 88,
      "chip": "ym2612"
    },
    {
      "channel": 3,
      "note": 53,
      "start": 15.5241,
      "duration": 0.1006,
      "velocity": 97,
      "chip": "ym2612"
    },
    {
      "channel": 0,
      "note": 92,
      "start": 15.5247,
      "duration": 0.049,
      "velocity": 127,
      "chip": "ym2612"
    },
    {
      "channel": 2,
      "note": 79,
      "start": 15.5251,
      "duration": 0.1028,
      "velocity": 82,
      "chip": "ym2612"
    },
    {
      "channel": 4,
      "note": 79,
      "start": 15.5257,
      "duration": 0.1034,
      "velocity": 82,
      "chip": "ym2612"
    },
    {
      "channel": 0,
      "note": 92,
      "start": 15.6241,
      "duration": 0.0016,
      "velocity": 127,
      "chip": "ym2612"
    },
    {
      "channel": 1,
      "note": 53,
      "start": 15.6246,
      "duration": 0.0028,
      "velocity": 88,
      "chip": "ym2612"
    },
    {
      "channel": 3,
      "note": 53,
      "start": 15.6251,
      "duration": 0.0034,
      "velocity": 97,
      "chip": "ym2612"
    },
    {
      "channel": 0,
      "note": 111,
      "start": 15.6273,
      "duration": 0.0037,
      "velocity": 127,
      "chip": "ym2612"
    },
    {
      "channel": 1,
      "note": 56,
      "start": 15.6279,
      "duration": 0.0027,
      "velocity": 88,
      "chip": "ym2612"
    },
    {
      "channel": 2,
      "note": 80,
      "start": 15.6285,
      "duration": 0.0044,
      "velocity": 82,
      "chip": "ym2612"
    },
    {
      "channel": 3,
      "note": 56,
      "start": 15.629,
      "duration": 0.0016,
      "velocity": 97,
      "chip": "ym2612"
    },
    {
      "channel": 4,
      "note": 80,
      "start": 15.6295,
      "duration": 0.004,
      "velocity": 82,
      "chip": "ym2612"
    },
    {
      "channel": 0,
      "note": 92,
      "start": 15.6324,
      "duration": 0.0017,
      "velocity": 127,
      "chip": "ym2612"
    },
    {
      "channel": 1,
      "note": 58,
      "start": 15.6327,
      "duration": 0.0018,
      "velocity": 88,
      "chip": "ym2612"
    },
    {
      "channel": 2,
      "note": 79,
      "start": 15.6331,
      "duration": 0.0016,
      "velocity": 82,
      "chip": "ym2612"
    },
    {
      "channel": 3,
      "note": 58,
      "start": 15.6334,
      "duration": 0.0017,
      "velocity": 97,
      "chip": "ym2612"
    },
    {
      "channel": 4,
      "note": 79,
      "start": 15.6339,
      "duration": 0.0014,
      "velocity": 82,
      "chip": "ym2612"
    },
    {
      "channel": 0,
      "note": 92,
      "start": 15.6344,
      "duration": 0.0012,
      "velocity": 127,
      "chip": "ym2612"
    },
    {
      "channel": 2,
      "note": 77,
      "start": 15.6351,
      "duration": 0.0015,
      "velocity": 82,
      "chip": "ym2612"
    },
    {
      "channel": 4,
      "note": 77,
      "start": 15.6354,
      "duration": 0.0012,
      "velocity": 82,
      "chip": "ym2612"
    },
    {
      "channel": 0,
      "note": 92,
      "start": 15.6364,
      "duration": 0.0039,
      "velocity": 127,
      "chip": "ym2612"
    },
    {
      "channel": 0,
      "note": 92,
      "start": 15.6406,
      "duration": 0.0014,
      "velocity": 127,
      "chip": "ym2612"
    },
    {
      "channel": 1,
      "note": 60,
      "start": 15.641,
      "duration": 0.1007,
      "velocity": 88,
      "chip": "ym2612"
    },
    {
      "channel": 3,
      "note": 60,
      "start": 15.6413,
      "duration": 0.1009,
      "velocity": 97,
      "chip": "ym2612"
    },
    {
      "channel": 2,
      "note": 84,
      "start": 15.6416,
      "duration": 0.0664,
      "velocity": 82,
      "chip": "ym2612"
    },
    {
      "channel": 4,
      "note": 79,
      "start": 15.6418,
      "duration": 0.0667,
      "velocity": 82,
      "chip": "ym2612"
    },
    {
      "channel": 0,
      "note": 92,
      "start": 15.6423,
      "duration": 0.0489,
      "velocity": 127,
      "chip": "ym2612"
    },
    {
      "channel": 2,
      "note": 84,
      "start": 15.7084,
      "duration": 0.0368,
      "velocity": 82,
      "chip": "ym2612"
    },
    {
      "channel": 4,
      "note": 79,
      "start": 15.7089,
      "duration": 0.0373,
      "velocity": 82,
      "chip": "ym2612"
    },
    {
      "channel": 0,
      "note": 92,
      "start": 15.7416,
      "duration": 0.0017,
      "velocity": 127,
      "chip": "ym2612"
    },
    {
      "channel": 1,
      "note": 60,
      "start": 15.742,
      "duration": 0.0026,
      "velocity": 88,
      "chip": "ym2612"
    },
    {
      "channel": 3,
      "note": 60,
      "start": 15.7425,
      "duration": 0.0031,
      "velocity": 97,
      "chip": "ym2612"
    },
    {
      "channel": 0,
      "note": 111,
      "start": 15.7446,
      "duration": 0.0051,
      "velocity": 127,
      "chip": "ym2612"
    },
    {
      "channel": 1,
      "note": 63,
      "start": 15.745,
      "duration": 0.0026,
      "velocity": 88,
      "chip": "ym2612"
    },
    {
      "channel": 2,
      "note": 84,
      "start": 15.7455,
      "duration": 0.003,
      "velocity": 82,
      "chip": "ym2612"
    },
    {
      "channel": 3,
      "note": 63,
      "start": 15.7461,
      "duration": 0.0021,
      "velocity": 97,
      "chip": "ym2612"
    },
    {
      "channel": 4,
      "note": 79,
      "start": 15.7466,
      "duration": 0.0025,
      "velocity": 82,
      "chip": "ym2612"
    },
    {
      "channel": 1,
      "note": 60,
      "start": 15.748,
      "duration": 0.003,
      "velocity": 88,
      "chip": "ym2612"
    },
    {
      "channel": 3,
      "note": 60,
      "start": 15.7484,
      "duration": 0.0029,
      "velocity": 97,
      "chip": "ym2612"
    },
    {
      "channel": 2,
      "note": 82,
      "start": 15.749,
      "duration": 0.0032,
      "velocity": 82,
      "chip": "ym2612"
    },
    {
      "channel": 4,
      "note": 77,
      "start": 15.7493,
      "duration": 0.0031,
      "velocity": 82,
      "chip": "ym2612"
    },
    {
      "channel": 0,
      "note": 92,
      "start": 15.751,
      "duration": 0.001,
      "velocity": 127,
      "chip": "ym2612"
    },
    {
      "channel": 1,
      "note": 63,
      "start": 15.7512,
      "duration": 0.0016,
      "velocity": 88,
      "chip": "ym2612"
    },
    {
      "channel": 3,
      "note": 63,
      "start": 15.7516,
      "duration": 0.0016,
      "velocity": 97,
      "chip": "ym2612"
    },
    {
      "channel": 2,
      "note": 82,
      "start": 15.7523,
      "duration": 0.0014,
      "velocity": 82,
      "chip": "ym2612"
    },
    {
      "channel": 4,
      "note": 77,
      "start": 15.7525,
      "duration": 0.0015,
      "velocity": 82,
      "chip": "ym2612"
    },
    {
      "channel": 0,
      "note": 92,
      "start": 15.7527,
      "duration": 0.0017,
      "velocity": 127,
      "chip": "ym2612"
    },
    {
      "channel": 1,
      "note": 64,
      "start": 15.753,
      "duration": 0.0023,
      "velocity": 88,
      "chip": "ym2612"
    },
    {
      "channel": 3,
      "note": 64,
      "start": 15.7534,
      "duration": 0.0024,
      "velocity": 97,
      "chip": "ym2612"
    },
    {
      "channel": 2,
      "note": 77,
      "start": 15.7539,
      "duration": 0.0047,
      "velocity": 82,
      "chip": "ym2612"
    },
    {
      "channel": 4,
      "note": 77,
      "start": 15.7542,
      "duration": 0.0049,
      "velocity": 82,
      "chip": "ym2612"
    },
    {
      "channel": 0,
      "note": 92,
      "start": 15.7553,
      "duration": 0.0012,
      "velocity": 127,
      "chip": "ym2612"
    },
    {
      "channel": 1,
      "note": 53,
      "start": 15.7557,
      "duration": 0.0012,
      "velocity": 88,
      "chip": "ym2612"
    },
    {
      "channel": 3,
      "note": 53,
      "start": 15.7561,
      "duration": 0.0012,
      "velocity": 97,
      "chip": "ym2612"
    },
    {
      "channel": 0,
      "note": 92,
      "start": 15.7568,
      "duration": 0.0011,
      "velocity": 127,
      "chip": "ym2612"
    },
    {
      "channel": 1,
      "note": 65,
      "start": 15.7572,
      "duration": 0.0011,
      "velocity": 88,
      "chip": "ym2612"
    },
    {
      "channel": 3,
      "note": 65,
      "start": 15.7576,
      "duration": 0.0013,
      "velocity": 97,
      "chip": "ym2612"
    },
    {
      "channel": 0,
      "note": 92,
      "start": 15.7582,
      "duration": 0.0482,
      "velocity": 127,
      "chip": "ym2612"
    },
    {
      "channel": 1,
      "note": 65,
      "start": 15.7585,
      "duration": 0.0984,
      "velocity": 88,
      "chip": "ym2612"
    },
    {
      "channel": 2,
      "note": 79,
      "start": 15.7588,
      "duration": 0.1018,
      "velocity": 82,
      "chip": "ym2612"
    },
    {
      "channel": 3,
      "note": 65,
      "start": 15.759,
      "duration": 0.0985,
      "velocity": 97,
      "chip": "ym2612"
    },
    {
      "channel": 4,
      "note": 79,
      "start": 15.7595,
      "duration": 0.1022,
      "velocity": 82,
      "chip": "ym2612"
    },
    {
      "channel": 0,
      "note": 92,
      "start": 15.8568,
      "duration": 0.0018,
      "velocity": 127,
      "chip": "ym2612"
    },
    {
      "channel": 1,
      "note": 55,
      "start": 15.8573,
      "duration": 0.0027,
      "velocity": 88,
      "chip": "ym2612"
    },
    {
      "channel": 3,
      "note": 55,
      "start": 15.8579,
      "duration": 0.0033,
      "velocity": 97,
      "chip": "ym2612"
    },
    {
      "channel": 0,
      "note": 111,
      "start": 15.86,
      "duration": 0.0039,
      "velocity": 127,
      "chip": "ym2612"
    },
    {
      "channel": 1,
      "note": 67,
      "start": 15.8605,
      "duration": 0.0026,
      "velocity": 88,
      "chip": "ym2612"
    },
    {
      "channel": 2,
      "note": 84,
      "start": 15.861,
      "duration": 0.0047,
      "velocity": 82,
      "chip": "ym2612"
    },
    {
      "channel": 3,
      "note": 67,
      "start": 15.8615,
      "duration": 0.0017,
      "velocity": 97,
      "chip": "ym2612"
    },
    {
      "channel": 4,
      "note": 84,
      "start": 15.8621,
      "duration": 0.0044,
      "velocity": 82,
      "chip": "ym2612"
    },
    {
      "channel": 1,
      "note": 67,
      "start": 15.8631,
      "duration": 0.0022,
      "velocity": 88,
      "chip": "ym2612"
    },
    {
      "channel": 3,
      "note": 67,
      "start": 15.8633,
      "duration": 0.0029,
      "velocity": 97,
      "chip": "ym2612"
    },
    {
      "channel": 0,
      "note": 92,
      "start": 15.8652,
      "duration": 0.0018,
      "velocity": 127,
      "chip": "ym2612"
    },
    {
      "channel": 1,
      "note": 56,
      "start": 15.8656,
      "duration": 0.0018,
      "velocity": 88,
      "chip": "ym2612"
    },
    {
      "channel": 2,
      "note": 82,
      "start": 15.866,
      "duration": 0.0018,
      "velocity": 82,
      "chip": "ym2612"
    },
    {
      "channel": 3,
      "note": 56,
      "start": 15.8664,
      "duration": 0.0018,
      "velocity": 97,
      "chip": "ym2612"
    },
    {
      "channel": 4,
      "note": 82,
      "start": 15.8667,
      "duration": 0.0019,
      "velocity": 82,
      "chip": "ym2612"
    },
    {
      "channel": 0,
      "note": 92,
      "start": 15.8673,
      "duration": 0.0019,
      "velocity": 127,
      "chip": "ym2612"
    },
    {
      "channel": 1,
      "note": 68,
      "start": 15.8677,
      "duration": 0.0021,
      "velocity": 88,
      "chip": "ym2612"
    },
    {
      "channel": 2,
      "note": 77,
      "start": 15.8681,
      "duration": 0.0018,
      "velocity": 82,
      "chip": "ym2612"
    },
    {
      "channel": 3,
      "note": 68,
      "start": 15.8685,
      "duration": 0.0015,
      "velocity": 97,
      "chip": "ym2612"
    },
    {
      "channel": 4,
      "note": 77,
      "start": 15.8689,
      "duration": 0.0017,
      "velocity": 82,
      "chip": "ym2612"
    },
    {
      "channel": 0,
      "note": 92,
      "start": 15.8697,
      "duration": 0.0011,
      "velocity": 127,
      "chip": "ym2612"
    },
    {
      "channel": 1,
      "note": 68,
      "start": 15.8699,
      "duration": 0.0013,
      "velocity": 88,
      "chip": "ym2612"
    },
    {
      "channel": 3,
      "note": 68,
      "start": 15.8705,
      "duration": 0.0011,
      "velocity": 97,
      "chip": "ym2612"
    },
    {
      "channel": 0,
      "note": 92,
      "start": 15.8711,
      "duration": 0.0016,
      "velocity": 127,
      "chip": "ym2612"
    },
    {
      "channel": 1,
      "note": 55,
      "start": 15.8715,
      "duration": 0.0016,
      "velocity": 88,
      "chip": "ym2612"
    },
    {
      "channel": 3,
      "note": 55,
      "start": 15.8718,
      "duration": 0.0017,
      "velocity": 97,
      "chip": "ym2612"
    },
    {
      "channel": 2,
      "note": 87,
      "start": 15.8723,
      "duration": 0.0659,
      "velocity": 82,
      "chip": "ym2612"
    },
    {
      "channel": 4,
      "note": 82,
      "start": 15.8727,
      "duration": 0.0661,
      "velocity": 82,
      "chip": "ym2612"
    },
    {
      "channel": 0,
      "note": 92,
      "start": 15.8729,
      "duration": 0.0485,
      "velocity": 127,
      "chip": "ym2612"
    },
    {
      "channel": 1,
      "note": 67,
      "start": 15.8733,
      "duration": 0.0987,
      "velocity": 88,
      "chip": "ym2612"
    },
    {
      "channel": 3,
      "note": 67,
      "start": 15.8738,
      "duration": 0.0987,
      "velocity": 97,
      "chip": "ym2612"
    },
    {
      "channel": 2,
      "note": 87,
      "start": 15.9387,
      "duration": 0.0368,
      "velocity": 82,
      "chip": "ym2612"
    },
    {
      "channel": 4,
      "note": 82,
      "start": 15.9392,
      "duration": 0.0373,
      "velocity": 82,
      "chip": "ym2612"
    },
    {
      "channel": 0,
      "note": 92,
      "start": 15.9719,
      "duration": 0.0017,
      "velocity": 127,
      "chip": "ym2612"
    },
    {
      "channel": 1,
      "note": 67,
      "start": 15.9723,
      "duration": 0.0026,
      "velocity": 88,
      "chip": "ym2612"
    },
    {
      "channel": 3,
      "note": 67,
      "start": 15.9728,
      "duration": 0.0031,
      "velocity": 97,
      "chip": "ym2612"
    },
    {
      "channel": 0,
      "note": 111,
      "start": 15.9749,
      "duration": 0.006,
      "velocity": 127,
      "chip": "ym2612"
    },
    {
      "channel": 1,
      "note": 53,
      "start": 15.9754,
      "duration": 0.0026,
      "velocity": 88,
      "chip": "ym2612"
    },
    {
      "channel": 2,
      "note": 87,
      "start": 15.9758,
      "duration": 0.0026,
      "velocity": 82,
      "chip": "ym2612"
    },
    {
      "channel": 3,
      "note": 53,
      "start": 15.9764,
      "duration": 0.0026,
      "velocity": 97,
      "chip": "ym2612"
    },
    {
      "channel": 4,
      "note": 82,
      "start": 15.9769,
      "duration": 0.0026,
      "velocity": 82,
      "chip": "ym2612"
    },
    {
      "channel": 1,
      "note": 65,
      "start": 15.9784,
      "duration": 0.0042,
      "velocity": 88,
      "chip": "ym2612"
    },
    {
      "channel": 2,
      "note": 86,
      "start": 15.9789,
      "duration": 0.0041,
      "velocity": 82,
      "chip": "ym2612"
    },
    {
      "channel": 3,
      "note": 65,
      "start": 15.9794,
      "duration": 0.0041,
      "velocity": 97,
      "chip": "ym2612"
    },
    {
      "channel": 4,
      "note": 81,
      "start": 15.9799,
      "duration": 0.0042,
      "velocity": 82,
      "chip": "ym2612"
    },
    {
      "channel": 0,
      "note": 92,
      "start": 15.9824,
      "duration": 0.003,
      "velocity": 127,
      "chip": "ym2612"
    },
    {
      "channel": 1,
      "note": 52,
      "start": 15.9829,
      "duration": 0.0028,
      "velocity": 88,
      "chip": "ym2612"
    },
    {
      "channel": 2,
      "note": 86,
      "start": 15.9835,
      "duration": 0.0027,
      "velocity": 82,
      "chip": "ym2612"
    },
    {
      "channel": 3,
      "note": 52,
      "start": 15.984,
      "duration": 0.0028,
      "velocity": 97,
      "chip": "ym2612"
    },
    {
      "channel": 4,
      "note": 81,
      "start": 15.9845,
      "duration": 0.0028,
      "velocity": 82,
      "chip": "ym2612"
    },
    {
      "channel": 0,
      "note": 92,
      "start": 15.9856,
      "duration": 0.0029,
      "velocity": 127,
      "chip": "ym2612"
    },
    {
      "channel": 1,
      "note": 64,
      "start": 15.9861,
      "duration": 0.0032,
      "velocity": 88,
      "chip": "ym2612"
    },
    {
      "channel": 2,
      "note": 77,
      "start": 15.9866,
      "duration": 0.0053,
      "velocity": 82,
      "chip": "ym2612"
    },
    {
      "channel": 3,
      "note": 64,
      "start": 15.9872,
      "duration": 0.0025,
      "velocity": 97,
      "chip": "ym2612"
    },
    {
      "channel": 4,
      "note": 77,
      "start": 15.9877,
      "duration": 0.0046,
      "velocity": 82,
      "chip": "ym2612"
    },
    {
      "channel": 0,
      "note": 92,
      "start": 15.9892,
      "duration": 0.0011,
      "velocity": 127,
      "chip": "ym2612"
    },
    {
      "channel": 1,
      "note": 65,
      "start": 15.9895,
      "duration": 0.0011,
      "velocity": 88,
      "chip": "ym2612"
    },
    {
      "channel": 3,
      "note": 65,
      "start": 15.99,
      "duration": 0.0009,
      "velocity": 97,
      "chip": "ym2612"
    },
    {
      "channel": 0,
      "note": 92,
      "start": 15.9905,
      "duration": 0.001,
      "velocity": 127,
      "chip": "ym2612"
    },
    {
      "channel": 1,
      "note": 53,
      "start": 15.9908,
      "duration": 0.1004,
      "velocity": 88,
      "chip": "ym2612"
    },
    {
      "channel": 3,
      "note": 53,
      "start": 15.9911,
      "duration": 0.1006,
      "velocity": 97,
      "chip": "ym2612"
    },
    {
      "channel": 0,
      "note": 92,
      "start": 15.9918,
      "duration": 0.049,
      "velocity": 127,
      "chip": "ym2612"
    },
    {
      "channel": 2,
      "note": 79,
      "start": 15.9922,
      "duration": 0.1028,
      "velocity": 82,
      "chip": "ym2612"
    },
    {
      "channel": 4,
      "note": 79,
      "start": 15.9927,
      "duration": 0.1034,
      "velocity": 82,
      "chip": "ym2612"
    },
    {
      "channel": 0,
      "note": 92,
      "start": 16.0912,
      "duration": 0.0016,
      "velocity": 127,
      "chip": "ym2612"
    },
    {
      "channel": 1,
      "note": 53,
      "start": 16.0916,
      "duration": 0.0028,
      "velocity": 88,
      "chip": "ym2612"
    },
    {
      "channel": 3,
      "note": 53,
      "start": 16.0921,
      "duration": 0.0034,
      "velocity": 97,
      "chip": "ym2612"
    },
    {
      "channel": 0,
      "note": 111,
      "start": 16.0944,
      "duration": 0.0037,
      "velocity": 127,
      "chip": "ym2612"
    },
    {
      "channel": 1,
      "note": 56,
      "start": 16.0949,
      "duration": 0.0027,
      "velocity": 88,
      "chip": "ym2612"
    },
    {
      "channel": 2,
      "note": 80,
      "start": 16.0955,
      "duration": 0.0044,
      "velocity": 82,
      "chip": "ym2612"
    },
    {
      "channel": 3,
      "note": 56,
      "start": 16.096,
      "duration": 0.0016,
      "velocity": 97,
      "chip": "ym2612"
    },
    {
      "channel": 4,
      "note": 80,
      "start": 16.0966,
      "duration": 0.004,
      "velocity": 82,
      "chip": "ym2612"
    },
    {
      "channel": 0,
      "note": 92,
      "start": 16.0994,
      "duration": 0.0017,
      "velocity": 127,
      "chip": "ym2612"
    },
    {
      "channel": 1,
      "note": 58,
      "start": 16.0998,
      "duration": 0.0018,
      "velocity": 88,
      "chip": "ym2612"
    },
    {
      "channel": 2,
      "note": 79,
      "start": 16.1001,
      "duration": 0.0016,
      "velocity": 82,
      "chip": "ym2612"
    },
    {
      "channel": 3,
      "note": 58,
      "start": 16.1005,
      "duration": 0.0017,
      "velocity": 97,
      "chip": "ym2612"
    },
    {
      "channel": 4,
      "note": 79,
      "start": 16.1009,
      "duration": 0.0014,
      "velocity": 82,
      "chip": "ym2612"
    },
    {
      "channel": 0,
      "note": 92,
      "start": 16.1015,
      "duration": 0.0012,
      "velocity": 127,
      "chip": "ym2612"
    },
    {
      "channel": 2,
      "note": 77,
      "start": 16.1021,
      "duration": 0.0015,
      "velocity": 82,
      "chip": "ym2612"
    },
    {
      "channel": 4,
      "note": 77,
      "start": 16.1025,
      "duration": 0.0012,
      "velocity": 82,
      "chip": "ym2612"
    },
    {
      "channel": 0,
      "note": 92,
      "start": 16.1034,
      "duration": 0.0039,
      "velocity": 127,
      "chip": "ym2612"
    },
    {
      "channel": 0,
      "note": 92,
      "start": 16.1077,
      "duration": 0.0014,
      "velocity": 127,
      "chip": "ym2612"
    },
    {
      "channel": 1,
      "note": 63,
      "start": 16.108,
      "duration": 0.0015,
      "velocity": 88,
      "chip": "ym2612"
    },
    {
      "channel": 3,
      "note": 63,
      "start": 16.1084,
      "duration": 0.0012,
      "velocity": 97,
      "chip": "ym2612"
    },
    {
      "channel": 2,
      "note": 89,
      "start": 16.1087,
      "duration": 0.0663,
      "velocity": 82,
      "chip": "ym2612"
    },
    {
      "channel": 4,
      "note": 84,
      "start": 16.109,
      "duration": 0.0665,
      "velocity": 82,
      "chip": "ym2612"
    },
    {
      "channel": 0,
      "note": 92,
      "start": 16.1094,
      "duration": 0.0486,
      "velocity": 127,
      "chip": "ym2612"
    },
    {
      "channel": 2,
      "note": 89,
      "start": 16.1753,
      "duration": 0.0366,
      "velocity": 82,
      "chip": "ym2612"
    },
    {
      "channel": 4,
      "note": 84,
      "start": 16.1759,
      "duration": 0.0367,
      "velocity": 82,
      "chip": "ym2612"
    },
    {
      "channel": 0,
      "note": 92,
      "start": 16.2084,
      "duration": 0.0016,
      "velocity": 127,
      "chip": "ym2612"
    },
    {
      "channel": 1,
      "note": 63,
      "start": 16.2089,
      "duration": 0.0029,
      "velocity": 88,
      "chip": "ym2612"
    },
    {
      "channel": 3,
      "note": 63,
      "start": 16.2094,
      "duration": 0.003,
      "velocity": 97,
      "chip": "ym2612"
    },
    {
      "channel": 0,
      "note": 111,
      "start": 16.2116,
      "duration": 0.0038,
      "velocity": 127,
      "chip": "ym2612"
    },
    {
      "channel": 2,
      "note": 89,
      "start": 16.2123,
      "duration": 0.002,
      "velocity": 82,
      "chip": "ym2612"
    },
    {
      "channel": 4,
      "note": 84,
      "start": 16.2129,
      "duration": 0.0017,
      "velocity": 82,
      "chip": "ym2612"
    },
    {
      "channel": 1,
      "note": 63,
      "start": 16.2139,
      "duration": 0.0031,
      "velocity": 88,
      "chip": "ym2612"
    },
    {
      "channel": 3,
      "note": 63,
      "start": 16.214,
      "duration": 0.0036,
      "velocity": 97,
      "chip": "ym2612"
    },
    {
      "channel": 2,
      "note": 87,
      "start": 16.2146,
      "duration": 0.0043,
      "velocity": 82,
      "chip": "ym2612"
    },
    {
      "channel": 4,
      "note": 82,
      "start": 16.215,
      "duration": 0.0043,
      "velocity": 82,
      "chip": "ym2612"
    },
    {
      "channel": 0,
      "note": 92,
      "start": 16.217,
      "duration": 0.0016,
      "velocity": 127,
      "chip": "ym2612"
    },
    {
      "channel": 1,
      "note": 60,
      "start": 16.2174,
      "duration": 0.0039,
      "velocity": 88,
      "chip": "ym2612"
    },
    {
      "channel": 3,
      "note": 60,
      "start": 16.2179,
      "duration": 0.0039,
      "velocity": 97,
      "chip": "ym2612"
    },
    {
      "channel": 2,
      "note": 77,
      "start": 16.2192,
      "duration": 0.0073,
      "velocity": 82,
      "chip": "ym2612"
    },
    {
      "channel": 4,
      "note": 77,
      "start": 16.2195,
      "duration": 0.0072,
      "velocity": 82,
      "chip": "ym2612"
    },
    {
      "channel": 0,
      "note": 92,
      "start": 16.2212,
      "duration": 0.0018,
      "velocity": 127,
      "chip": "ym2612"
    },
    {
      "channel": 1,
      "note": 60,
      "start": 16.2217,
      "duration": 0.0032,
      "velocity": 88,
      "chip": "ym2612"
    },
    {
      "channel": 3,
      "note": 60,
      "start": 16.2222,
      "duration": 0.0031,
      "velocity": 97,
      "chip": "ym2612"
    },
    {
      "channel": 0,
      "note": 92,
      "start": 16.2247,
      "duration": 0.0257,
      "velocity": 127,
      "chip": "ym2612"
    },
    {
      "channel": 1,
      "note": 61,
      "start": 16.2252,
      "duration": 0.0092,
      "velocity": 88,
      "chip": "ym2612"
    },
    {
      "channel": 3,
      "note": 61,
      "start": 16.2256,
      "duration": 0.0094,
      "velocity": 97,
      "chip": "ym2612"
    },
    {
      "channel": 2,
      "note": 79,
      "start": 16.2266,
      "duration": 0.0009,
      "velocity": 82,
      "chip": "ym2612"
    },
    {
      "channel": 4,
      "note": 79,
      "start": 16.227,
      "duration": 0.0009,
      "velocity": 82,
      "chip": "ym2612"
    },
    {
      "channel": 2,
      "note": 80,
      "start": 16.2278,
      "duration": 0.0038,
      "velocity": 82,
      "chip": "ym2612"
    },
    {
      "channel": 4,
      "note": 80,
      "start": 16.2282,
      "duration": 0.0037,
      "velocity": 82,
      "chip": "ym2612"
    },
    {
      "channel": 2,
      "note": 82,
      "start": 16.2318,
      "duration": 0.0009,
      "velocity": 82,
      "chip": "ym2612"
    },
    {
      "channel": 4,
      "note": 82,
      "start": 16.2322,
      "duration": 0.0006,
      "velocity": 82,
      "chip": "ym2612"
    },
    {
      "channel": 2,
      "note": 84,
      "start": 16.2335,
      "duration": 0.0012,
      "velocity": 82,
      "chip": "ym2612"
    },
    {
      "channel": 4,
      "note": 84,
      "start": 16.2339,
      "duration": 0.0015,
      "velocity": 82,
      "chip": "ym2612"
    },
    {
      "channel": 1,
      "note": 63,
      "start": 16.2346,
      "duration": 0.0082,
      "velocity": 88,
      "chip": "ym2612"
    },
    {
      "channel": 2,
      "note": 84,
      "start": 16.2349,
      "duration": 0.0011,
      "velocity": 82,
      "chip": "ym2612"
    },
    {
      "channel": 3,
      "note": 63,
      "start": 16.2353,
      "duration": 0.0082,
      "velocity": 97,
      "chip": "ym2612"
    },
    {
      "channel": 4,
      "note": 84,
      "start": 16.2355,
      "duration": 0.001,
      "velocity": 82,
      "chip": "ym2612"
    },
    {
      "channel": 2,
      "note": 83,
      "start": 16.2363,
      "duration": 0.0011,
      "velocity": 82,
      "chip": "ym2612"
    },
    {
      "channel": 4,
      "note": 83,
      "start": 16.2368,
      "duration": 0.0007,
      "velocity": 82,
      "chip": "ym2612"
    },
    {
      "channel": 2,
      "note": 82,
      "start": 16.238,
      "duration": 0.0009,
      "velocity": 82,
      "chip": "ym2612"
    },
    {
      "channel": 4,
      "note": 82,
      "start": 16.2383,
      "duration": 0.0009,
      "velocity": 82,
      "chip": "ym2612"
    },
    {
      "channel": 2,
      "note": 82,
      "start": 16.239,
      "duration": 0.0009,
      "velocity": 82,
      "chip": "ym2612"
    },
    {
      "channel": 4,
      "note": 82,
      "start": 16.2393,
      "duration": 0.001,
      "velocity": 82,
      "chip": "ym2612"
    },
    {
      "channel": 2,
      "note": 81,
      "start": 16.2402,
      "duration": 0.0031,
      "velocity": 82,
      "chip": "ym2612"
    },
    {
      "channel": 4,
      "note": 81,
      "start": 16.2407,
      "duration": 0.0033,
      "velocity": 82,
      "chip": "ym2612"
    },
    {
      "channel": 1,
      "note": 64,
      "start": 16.2432,
      "duration": 0.0091,
      "velocity": 88,
      "chip": "ym2612"
    },
    {
      "channel": 3,
      "note": 64,
      "start": 16.2438,
      "duration": 0.0094,
      "velocity": 97,
      "chip": "ym2612"
    },
    {
      "channel": 2,
      "note": 79,
      "start": 16.2451,
      "duration": 0.0016,
      "velocity": 82,
      "chip": "ym2612"
    },
    {
      "channel": 4,
      "note": 79,
      "start": 16.2458,
      "duration": 0.0014,
      "velocity": 82,
      "chip": "ym2612"
    },
    {
      "channel": 2,
      "note": 79,
      "start": 16.2471,
      "duration": 0.0016,
      "velocity": 82,
      "chip": "ym2612"
    },
    {
      "channel": 4,
      "note": 79,
      "start": 16.2476,
      "duration": 0.0016,
      "velocity": 82,
      "chip": "ym2612"
    },
    {
      "channel": 2,
      "note": 78,
      "start": 16.249,
      "duration": 0.0036,
      "velocity": 82,
      "chip": "ym2612"
    },
    {
      "channel": 4,
      "note": 78,
      "start": 16.2495,
      "duration": 0.0057,
      "velocity": 82,
      "chip": "ym2612"
    },
    {
      "channel": 0,
      "note": 68,
      "start": 16.2523,
      "duration": 0.1099,
      "velocity": 97,
      "chip": "ym2612"
    },
    {
      "channel": 1,
      "note": 65,
      "start": 16.2525,
      "duration": 0.0071,
      "velocity": 88,
      "chip": "ym2612"
    },
    {
      "channel": 2,
      "note": 77,
      "start": 16.2532,
      "duration": 0.0067,
      "velocity": 82,
      "chip": "ym2612"
    },
    {
      "channel": 3,
      "note": 68,
      "start": 16.2551,
      "duration": 0.108,
      "velocity": 97,
      "chip": "ym2612"
    },
    {
      "channel": 4,
      "note": 77,
      "start": 16.2592,
      "duration": 0.0994,
      "velocity": 82,
      "chip": "ym2612"
    },
    {
      "channel": 1,
      "note": 65,
      "start": 16.2598,
      "duration": 0.1002,
      "velocity": 88,
      "chip": "ym2612"
    },
    {
      "channel": 2,
      "note": 80,
      "start": 16.2602,
      "duration": 0.0999,
      "velocity": 82,
      "chip": "ym2612"
    },
    {
      "channel": 4,
      "note": 80,
      "start": 16.359,
      "duration": 0.0021,
      "velocity": 82,
      "chip": "ym2612"
    },
    {
      "channel": 1,
      "note": 65,
      "start": 16.36,
      "duration": 0.0025,
      "velocity": 88,
      "chip": "ym2612"
    },
    {
      "channel": 2,
      "note": 84,
      "start": 16.3604,
      "duration": 0.0024,
      "velocity": 82,
      "chip": "ym2612"
    },
    {
      "channel": 4,
      "note": 84,
      "start": 16.3616,
      "duration": 0.0023,
      "velocity": 82,
      "chip": "ym2612"
    },
    {
      "channel": 0,
      "note": 67,
      "start": 16.3624,
      "duration": 0.1079,
      "velocity": 97,
      "chip": "ym2612"
    },
    {
      "channel": 1,
      "note": 77,
      "start": 16.3627,
      "duration": 0.002,
      "velocity": 88,
      "chip": "ym2612"
    },
    {
      "channel": 2,
      "note": 80,
      "start": 16.363,
      "duration": 0.0023,
      "velocity": 82,
      "chip": "ym2612"
    },
    {
      "channel": 3,
      "note": 67,
      "start": 16.3633,
      "duration": 0.1082,
      "velocity": 97,
      "chip": "ym2612"
    },
    {
      "channel": 4,
      "note": 80,
      "start": 16.3642,
      "duration": 0.0051,
      "velocity": 82,
      "chip": "ym2612"
    },
    {
      "channel": 1,
      "note": 65,
      "start": 16.3651,
      "duration": 0.0049,
      "velocity": 88,
      "chip": "ym2612"
    },
    {
      "channel": 2,
      "note": 89,
      "start": 16.3656,
      "duration": 0.0047,
      "velocity": 82,
      "chip": "ym2612"
    },
    {
      "channel": 4,
      "note": 89,
      "start": 16.3695,
      "duration": 0.0996,
      "velocity": 82,
      "chip": "ym2612"
    },
    {
      "channel": 1,
      "note": 77,
      "start": 16.3704,
      "duration": 0.1003,
      "velocity": 88,
      "chip": "ym2612"
    },
    {
      "channel": 2,
      "note": 84,
      "start": 16.3706,
      "duration": 0.1004,
      "velocity": 82,
      "chip": "ym2612"
    },
    {
      "channel": 4,
      "note": 84,
      "start": 16.4695,
      "duration": 0.0034,
      "velocity": 82,
      "chip": "ym2612"
    },
    {
      "channel": 0,
      "note": 63,
      "start": 16.4706,
      "duration": 0.0052,
      "velocity": 97,
      "chip": "ym2612"
    },
    {
      "channel": 1,
      "note": 63,
      "start": 16.471,
      "duration": 0.0028,
      "velocity": 88,
      "chip": "ym2612"
    },
    {
      "channel": 2,
      "note": 89,
      "start": 16.4714,
      "duration": 0.0027,
      "velocity": 82,
      "chip": "ym2612"
    },
    {
      "channel": 3,
      "note": 63,
      "start": 16.4719,
      "duration": 0.0051,
      "velocity": 97,
      "chip": "ym2612"
    },
    {
      "channel": 4,
      "note": 89,
      "start": 16.4732,
      "duration": 0.0017,
      "velocity": 82,
      "chip": "ym2612"
    },
    {
      "channel": 1,
      "note": 75,
      "start": 16.4741,
      "duration": 0.0021,
      "velocity": 88,
      "chip": "ym2612"
    },
    {
      "channel": 2,
      "note": 84,
      "start": 16.4744,
      "duration": 0.0022,
      "velocity": 82,
      "chip": "ym2612"
    },
    {
      "channel": 4,
      "note": 84,
      "start": 16.4752,
      "duration": 0.0025,
      "velocity": 82,
      "chip": "ym2612"
    },
    {
      "channel": 0,
      "note": 65,
      "start": 16.4761,
      "duration": 0.1051,
      "velocity": 97,
      "chip": "ym2612"
    },
    {
      "channel": 1,
      "note": 61,
      "start": 16.4764,
      "duration": 0.0022,
      "velocity": 88,
      "chip": "ym2612"
    },
    {
      "channel": 2,
      "note": 73,
      "start": 16.4768,
      "duration": 0.002,
      "velocity": 82,
      "chip": "ym2612"
    },
    {
      "channel": 3,
      "note": 65,
      "start": 16.4772,
      "duration": 0.1051,
      "velocity": 97,
      "chip": "ym2612"
    },
    {
      "channel": 4,
      "note": 73,
      "start": 16.478,
      "duration": 0.0996,
      "velocity": 82,
      "chip": "ym2612"
    },
    {
      "channel": 1,
      "note": 61,
      "start": 16.4787,
      "duration": 0.1001,
      "velocity": 88,
      "chip": "ym2612"
    },
    {
      "channel": 2,
      "note": 77,
      "start": 16.479,
      "duration": 0.1,
      "velocity": 82,
      "chip": "ym2612"
    },
    {
      "channel": 4,
      "note": 77,
      "start": 16.578,
      "duration": 0.0024,
      "velocity": 82,
      "chip": "ym2612"
    },
    {
      "channel": 1,
      "note": 61,
      "start": 16.579,
      "duration": 0.0026,
      "velocity": 88,
      "chip": "ym2612"
    },
    {
      "channel": 2,
      "note": 80,
      "start": 16.5794,
      "duration": 0.0025,
      "velocity": 82,
      "chip": "ym2612"
    },
    {
      "channel": 4,
      "note": 80,
      "start": 16.5807,
      "duration": 0.0026,
      "velocity": 82,
      "chip": "ym2612"
    },
    {
      "channel": 0,
      "note": 61,
      "start": 16.5815,
      "duration": 0.1103,
      "velocity": 97,
      "chip": "ym2612"
    },
    {
      "channel": 1,
      "note": 73,
      "start": 16.5818,
      "duration": 0.0024,
      "velocity": 88,
      "chip": "ym2612"
    },
    {
      "channel": 2,
      "note": 77,
      "start": 16.5822,
      "duration": 0.0024,
      "velocity": 82,
      "chip": "ym2612"
    },
    {
      "channel": 3,
      "note": 61,
      "start": 16.5827,
      "duration": 0.11,
      "velocity": 97,
      "chip": "ym2612"
    },
    {
      "channel": 4,
      "note": 77,
      "start": 16.5837,
      "duration": 0.0047,
      "velocity": 82,
      "chip": "ym2612"
    },
    {
      "channel": 1,
      "note": 61,
      "start": 16.5845,
      "duration": 0.0046,
      "velocity": 88,
      "chip": "ym2612"
    },
    {
      "channel": 2,
      "note": 84,
      "start": 16.5849,
      "duration": 0.0045,
      "velocity": 82,
      "chip": "ym2612"
    },
    {
      "channel": 4,
      "note": 84,
      "start": 16.5885,
      "duration": 0.0996,
      "velocity": 82,
      "chip": "ym2612"
    },
    {
      "channel": 1,
      "note": 73,
      "start": 16.5894,
      "duration": 0.1,
      "velocity": 88,
      "chip": "ym2612"
    },
    {
      "channel": 2,
      "note": 80,
      "start": 16.5897,
      "duration": 0.1002,
      "velocity": 82,
      "chip": "ym2612"
    },
    {
      "channel": 4,
      "note": 80,
      "start": 16.6885,
      "duration": 0.0026,
      "velocity": 82,
      "chip": "ym2612"
    },
    {
      "channel": 1,
      "note": 59,
      "start": 16.6897,
      "duration": 0.0022,
      "velocity": 88,
      "chip": "ym2612"
    },
    {
      "channel": 2,
      "note": 82,
      "start": 16.6902,
      "duration": 0.0021,
      "velocity": 82,
      "chip": "ym2612"
    },
    {
      "channel": 4,
      "note": 82,
      "start": 16.6912,
      "duration": 0.0024,
      "velocity": 82,
      "chip": "ym2612"
    },
    {
      "channel": 1,
      "note": 71,
      "start": 16.6922,
      "duration": 0.0026,
      "velocity": 88,
      "chip": "ym2612"
    },
    {
      "channel": 2,
      "note": 80,
      "start": 16.6926,
      "duration": 0.0026,
      "velocity": 82,
      "chip": "ym2612"
    },
    {
      "channel": 4,
      "note": 80,
      "start": 16.6939,
      "duration": 0.0022,
      "velocity": 82,
      "chip": "ym2612"
    },
    {
      "channel": 0,
      "note": 72,
      "start": 16.6946,
      "duration": 0.1044,
      "velocity": 97,
      "chip": "ym2612"
    },
    {
      "channel": 1,
      "note": 60,
      "start": 16.6951,
      "duration": 0.0019,
      "velocity": 88,
      "chip": "ym2612"
    },
    {
      "channel": 2,
      "note": 72,
      "start": 16.6954,
      "duration": 0.0017,
      "velocity": 82,
      "chip": "ym2612"
    },
    {
      "channel": 3,
      "note": 72,
      "start": 16.6957,
      "duration": 0.1044,
      "velocity": 97,
      "chip": "ym2612"
    },
    {
      "channel": 4,
      "note": 72,
      "start": 16.6964,
      "duration": 0.0994,
      "velocity": 82,
      "chip": "ym2612"
    },
    {
      "channel": 1,
      "note": 60,
      "start": 16.6971,
      "duration": 0.1,
      "velocity": 88,
      "chip": "ym2612"
    },
    {
      "channel": 2,
      "note": 75,
      "start": 16.6973,
      "duration": 0.1001,
      "velocity": 82,
      "chip": "ym2612"
    },
    {
      "channel": 4,
      "note": 75,
      "start": 16.7962,
      "duration": 0.0021,
      "velocity": 82,
      "chip": "ym2612"
    },
    {
      "channel": 1,
      "note": 60,
      "start": 16.7973,
      "duration": 0.0021,
      "velocity": 88,
      "chip": "ym2612"
    },
    {
      "channel": 2,
      "note": 79,
      "start": 16.7976,
      "duration": 0.002,
      "velocity": 82,
      "chip": "ym2612"
    },
    {
      "channel": 4,
      "note": 79,
      "start": 16.7985,
      "duration": 0.0023,
      "velocity": 82,
      "chip": "ym2612"
    },
    {
      "channel": 0,
      "note": 70,
      "start": 16.7993,
      "duration": 0.1074,
      "velocity": 97,
      "chip": "ym2612"
    },
    {
      "channel": 1,
      "note": 60,
      "start": 16.7995,
      "duration": 0.002,
      "velocity": 88,
      "chip": "ym2612"
    },
    {
      "channel": 2,
      "note": 75,
      "start": 16.7999,
      "duration": 0.0018,
      "velocity": 82,
      "chip": "ym2612"
    },
    {
      "channel": 3,
      "note": 70,
      "start": 16.8003,
      "duration": 0.1076,
      "velocity": 97,
      "chip": "ym2612"
    },
    {
      "channel": 4,
      "note": 75,
      "start": 16.801,
      "duration": 0.0046,
      "velocity": 82,
      "chip": "ym2612"
    },
    {
      "channel": 1,
      "note": 60,
      "start": 16.8016,
      "duration": 0.0049,
      "velocity": 88,
      "chip": "ym2612"
    },
    {
      "channel": 2,
      "note": 84,
      "start": 16.8019,
      "duration": 0.0048,
      "velocity": 82,
      "chip": "ym2612"
    },
    {
      "channel": 4,
      "note": 84,
      "start": 16.8059,
      "duration": 0.0995,
      "velocity": 82,
      "chip": "ym2612"
    },
    {
      "channel": 1,
      "note": 60,
      "start": 16.8066,
      "duration": 0.1004,
      "velocity": 88,
      "chip": "ym2612"
    },
    {
      "channel": 2,
      "note": 79,
      "start": 16.807,
      "duration": 0.1004,
      "velocity": 82,
      "chip": "ym2612"
    },
    {
      "channel": 4,
      "note": 79,
      "start": 16.9059,
      "duration": 0.0034,
      "velocity": 82,
      "chip": "ym2612"
    },
    {
      "channel": 0,
      "note": 67,
      "start": 16.9069,
      "duration": 0.0051,
      "velocity": 97,
      "chip": "ym2612"
    },
    {
      "channel": 1,
      "note": 61,
      "start": 16.9074,
      "duration": 0.0027,
      "velocity": 88,
      "chip": "ym2612"
    },
    {
      "channel": 2,
      "note": 82,
      "start": 16.9077,
      "duration": 0.0027,
      "velocity": 82,
      "chip": "ym2612"
    },
    {
      "channel": 3,
      "note": 67,
      "start": 16.9083,
      "duration": 0.0048,
      "velocity": 97,
      "chip": "ym2612"
    },
    {
      "channel": 4,
      "note": 82,
      "start": 16.9095,
      "duration": 0.0017,
      "velocity": 82,
      "chip": "ym2612"
    },
    {
      "channel": 1,
      "note": 63,
      "start": 16.9104,
      "duration": 0.002,
      "velocity": 88,
      "chip": "ym2612"
    },
    {
      "channel": 2,
      "note": 79,
      "start": 16.9107,
      "duration": 0.002,
      "velocity": 82,
      "chip": "ym2612"
    },
    {
      "channel": 4,
      "note": 79,
      "start": 16.9114,
      "duration": 0.0024,
      "velocity": 82,
      "chip": "ym2612"
    },
    {
      "channel": 0,
      "note": 68,
      "start": 16.9123,
      "duration": 0.1047,
      "velocity": 97,
      "chip": "ym2612"
    },
    {
      "channel": 1,
      "note": 61,
      "start": 16.9127,
      "duration": 0.0019,
      "velocity": 88,
      "chip": "ym2612"
    },
    {
      "channel": 2,
      "note": 73,
      "start": 16.913,
      "duration": 0.0019,
      "velocity": 82,
      "chip": "ym2612"
    },
    {
      "channel": 3,
      "note": 68,
      "start": 16.9134,
      "duration": 0.1048,
      "velocity": 97,
      "chip": "ym2612"
    },
    {
      "channel": 4,
      "note": 73,
      "start": 16.9141,
      "duration": 0.0994,
      "velocity": 82,
      "chip": "ym2612"
    },
    {
      "channel": 1,
      "note": 61,
      "start": 16.9148,
      "duration": 0.1,
      "velocity": 88,
      "chip": "ym2612"
    },
    {
      "channel": 2,
      "note": 77,
      "start": 16.9151,
      "duration": 0.1,
      "velocity": 82,
      "chip": "ym2612"
    },
    {
      "channel": 4,
      "note": 77,
      "start": 17.0139,
      "duration": 0.0023,
      "velocity": 82,
      "chip": "ym2612"
    },
    {
      "channel": 1,
      "note": 61,
      "start": 17.015,
      "duration": 0.0025,
      "velocity": 88,
      "chip": "ym2612"
    },
    {
      "channel": 2,
      "note": 80,
      "start": 17.0154,
      "duration": 0.0024,
      "velocity": 82,
      "chip": "ym2612"
    },
    {
      "channel": 4,
      "note": 80,
      "start": 17.0165,
      "duration": 0.0024,
      "velocity": 82,
      "chip": "ym2612"
    },
    {
      "channel": 0,
      "note": 70,
      "start": 17.0173,
      "duration": 0.1106,
      "velocity": 97,
      "chip": "ym2612"
    },
    {
      "channel": 1,
      "note": 73,
      "start": 17.0176,
      "duration": 0.002,
      "velocity": 88,
      "chip": "ym2612"
    },
    {
      "channel": 2,
      "note": 77,
      "start": 17.018,
      "duration": 0.002,
      "velocity": 82,
      "chip": "ym2612"
    },
    {
      "channel": 3,
      "note": 70,
      "start": 17.0184,
      "duration": 0.1102,
      "velocity": 97,
      "chip": "ym2612"
    },
    {
      "channel": 4,
      "note": 77,
      "start": 17.0191,
      "duration": 0.0047,
      "velocity": 82,
      "chip": "ym2612"
    },
    {
      "channel": 1,
      "note": 61,
      "start": 17.0199,
      "duration": 0.0047,
      "velocity": 88,
      "chip": "ym2612"
    },
    {
      "channel": 2,
      "note": 84,
      "start": 17.0203,
      "duration": 0.0048,
      "velocity": 82,
      "chip": "ym2612"
    },
    {
      "channel": 4,
      "note": 84,
      "start": 17.0241,
      "duration": 0.0998,
      "velocity": 82,
      "chip": "ym2612"
    },
    {
      "channel": 1,
      "note": 73,
      "start": 17.0249,
      "duration": 0.1002,
      "velocity": 88,
      "chip": "ym2612"
    },
    {
      "channel": 2,
      "note": 80,
      "start": 17.0255,
      "duration": 0.1001,
      "velocity": 82,
      "chip": "ym2612"
    },
    {
      "channel": 4,
      "note": 80,
      "start": 17.1242,
      "duration": 0.0027,
      "velocity": 82,
      "chip": "ym2612"
    },
    {
      "channel": 1,
      "note": 60,
      "start": 17.1254,
      "duration": 0.0026,
      "velocity": 88,
      "chip": "ym2612"
    },
    {
      "channel": 2,
      "note": 85,
      "start": 17.126,
      "duration": 0.0023,
      "velocity": 82,
      "chip": "ym2612"
    },
    {
      "channel": 4,
      "note": 85,
      "start": 17.1273,
      "duration": 0.0023,
      "velocity": 82,
      "chip": "ym2612"
    },
    {
      "channel": 1,
      "note": 72,
      "start": 17.1282,
      "duration": 0.0023,
      "velocity": 88,
      "chip": "ym2612"
    },
    {
      "channel": 2,
      "note": 80,
      "start": 17.1286,
      "duration": 0.0024,
      "velocity": 82,
      "chip": "ym2612"
    },
    {
      "channel": 4,
      "note": 80,
      "start": 17.1299,
      "duration": 0.002,
      "velocity": 82,
      "chip": "ym2612"
    },
    {
      "channel": 0,
      "note": 65,
      "start": 17.1304,
      "duration": 0.1049,
      "velocity": 97,
      "chip": "ym2612"
    },
    {
      "channel": 1,
      "note": 58,
      "start": 17.1309,
      "duration": 0.0018,
      "velocity": 88,
      "chip": "ym2612"
    },
    {
      "channel": 2,
      "note": 74,
      "start": 17.1312,
      "duration": 0.0017,
      "velocity": 82,
      "chip": "ym2612"
    },
    {
      "channel": 3,
      "note": 65,
      "start": 17.1314,
      "duration": 0.1049,
      "velocity": 97,
      "chip": "ym2612"
    },
    {
      "channel": 4,
      "note": 74,
      "start": 17.1322,
      "duration": 0.0995,
      "velocity": 82,
      "chip": "ym2612"
    },
    {
      "channel": 1,
      "note": 58,
      "start": 17.1328,
      "duration": 0.1001,
      "velocity": 88,
      "chip": "ym2612"
    },
    {
      "channel": 2,
      "note": 77,
      "start": 17.1332,
      "duration": 0.1,
      "velocity": 82,
      "chip": "ym2612"
    },
    {
      "channel": 4,
      "note": 77,
      "start": 17.2321,
      "duration": 0.0024,
      "velocity": 82,
      "chip": "ym2612"
    },
    {
      "channel": 1,
      "note": 58,
      "start": 17.2331,
      "duration": 0.0026,
      "velocity": 88,
      "chip": "ym2612"
    },
    {
      "channel": 2,
      "note": 82,
      "start": 17.2334,
      "duration": 0.0026,
      "velocity": 82,
      "chip": "ym2612"
    },
    {
      "channel": 4,
      "note": 82,
      "start": 17.2348,
      "duration": 0.0023,
      "velocity": 82,
      "chip": "ym2612"
    },
    {
      "channel": 0,
      "note": 62,
      "start": 17.2356,
      "duration": 0.1075,
      "velocity": 97,
      "chip": "ym2612"
    },
    {
      "channel": 1,
      "note": 70,
      "start": 17.2359,
      "duration": 0.002,
      "velocity": 88,
      "chip": "ym2612"
    },
    {
      "channel": 2,
      "note": 77,
      "start": 17.2363,
      "duration": 0.0021,
      "velocity": 82,
      "chip": "ym2612"
    },
    {
      "channel": 3,
      "note": 62,
      "start": 17.2367,
      "duration": 0.1075,
      "velocity": 97,
      "chip": "ym2612"
    },
    {
      "channel": 4,
      "note": 77,
      "start": 17.2374,
      "duration": 0.0046,
      "velocity": 82,
      "chip": "ym2612"
    },
    {
      "channel": 1,
      "note": 58,
      "start": 17.2382,
      "duration": 0.0046,
      "velocity": 88,
      "chip": "ym2612"
    },
    {
      "channel": 2,
      "note": 86,
      "start": 17.2387,
      "duration": 0.0045,
      "velocity": 82,
      "chip": "ym2612"
    },
    {
      "channel": 4,
      "note": 86,
      "start": 17.2423,
      "duration": 0.0996,
      "velocity": 82,
      "chip": "ym2612"
    },
    {
      "channel": 1,
      "note": 70,
      "start": 17.2431,
      "duration": 0.1003,
      "velocity": 88,
      "chip": "ym2612"
    },
    {
      "channel": 2,
      "note": 82,
      "start": 17.2434,
      "duration": 0.1004,
      "velocity": 82,
      "chip": "ym2612"
    },
    {
      "channel": 4,
      "note": 82,
      "start": 17.3423,
      "duration": 0.0032,
      "velocity": 82,
      "chip": "ym2612"
    },
    {
      "channel": 0,
      "note": 70,
      "start": 17.3433,
      "duration": 0.0048,
      "velocity": 97,
      "chip": "ym2612"
    },
    {
      "channel": 1,
      "note": 60,
      "start": 17.3437,
      "duration": 0.0026,
      "velocity": 88,
      "chip": "ym2612"
    },
    {
      "channel": 2,
      "note": 77,
      "start": 17.344,
      "duration": 0.0026,
      "velocity": 82,
      "chip": "ym2612"
    },
    {
      "channel": 3,
      "note": 70,
      "start": 17.3446,
      "duration": 0.0047,
      "velocity": 97,
      "chip": "ym2612"
    },
    {
      "channel": 4,
      "note": 77,
      "start": 17.3457,
      "duration": 0.0017,
      "velocity": 82,
      "chip": "ym2612"
    },
    {
      "channel": 1,
      "note": 72,
      "start": 17.3466,
      "duration": 0.0018,
      "velocity": 88,
      "chip": "ym2612"
    },
    {
      "channel": 2,
      "note": 70,
      "start": 17.3469,
      "duration": 0.0019,
      "velocity": 82,
      "chip": "ym2612"
    },
    {
      "channel": 4,
      "note": 70,
      "start": 17.3476,
      "duration": 0.0024,
      "velocity": 82,
      "chip": "ym2612"
    },
    {
      "channel": 0,
      "note": 68,
      "start": 17.3484,
      "duration": 0.1026,
      "velocity": 97,
      "chip": "ym2612"
    },
    {
      "channel": 1,
      "note": 61,
      "start": 17.3487,
      "duration": 0.0022,
      "velocity": 88,
      "chip": "ym2612"
    },
    {
      "channel": 2,
      "note": 73,
      "start": 17.3491,
      "duration": 0.0021,
      "velocity": 82,
      "chip": "ym2612"
    },
    {
      "channel": 3,
      "note": 72,
      "start": 17.3495,
      "duration": 0.1025,
      "velocity": 97,
      "chip": "ym2612"
    },
    {
      "channel": 4,
      "note": 73,
      "start": 17.3504,
      "duration": 0.0994,
      "velocity": 82,
      "chip": "ym2612"
    },
    {
      "channel": 1,
      "note": 61,
      "start": 17.3511,
      "duration": 0.1003,
      "velocity": 88,
      "chip": "ym2612"
    },
    {
      "channel": 2,
      "note": 77,
      "start": 17.3513,
      "duration": 0.1004,
      "velocity": 82,
      "chip": "ym2612"
    },
    {
      "channel": 4,
      "note": 77,
      "start": 17.4502,
      "duration": 0.0033,
      "velocity": 82,
      "chip": "ym2612"
    },
    {
      "channel": 0,
      "note": 67,
      "start": 17.4512,
      "duration": 0.0054,
      "velocity": 97,
      "chip": "ym2612"
    },
    {
      "channel": 1,
      "note": 73,
      "start": 17.4516,
      "duration": 0.0027,
      "velocity": 88,
      "chip": "ym2612"
    },
    {
      "channel": 2,
      "note": 80,
      "start": 17.4519,
      "duration": 0.0029,
      "velocity": 82,
      "chip": "ym2612"
    },
    {
      "channel": 3,
      "note": 70,
      "start": 17.4524,
      "duration": 0.0054,
      "velocity": 97,
      "chip": "ym2612"
    },
    {
      "channel": 4,
      "note": 80,
      "start": 17.4538,
      "duration": 0.002,
      "velocity": 82,
      "chip": "ym2612"
    },
    {
      "channel": 1,
      "note": 61,
      "start": 17.4546,
      "duration": 0.0024,
      "velocity": 88,
      "chip": "ym2612"
    },
    {
      "channel": 2,
      "note": 85,
      "start": 17.4552,
      "duration": 0.0022,
      "velocity": 82,
      "chip": "ym2612"
    },
    {
      "channel": 4,
      "note": 85,
      "start": 17.4561,
      "duration": 0.0054,
      "velocity": 82,
      "chip": "ym2612"
    },
    {
      "channel": 0,
      "note": 63,
      "start": 17.457,
      "duration": 0.1059,
      "velocity": 97,
      "chip": "ym2612"
    },
    {
      "channel": 1,
      "note": 63,
      "start": 17.4573,
      "duration": 0.0051,
      "velocity": 88,
      "chip": "ym2612"
    },
    {
      "channel": 2,
      "note": 75,
      "start": 17.4577,
      "duration": 0.0052,
      "velocity": 82,
      "chip": "ym2612"
    },
    {
      "channel": 3,
      "note": 67,
      "start": 17.4581,
      "duration": 0.106,
      "velocity": 97,
      "chip": "ym2612"
    },
    {
      "channel": 4,
      "note": 75,
      "start": 17.4619,
      "duration": 0.0998,
      "velocity": 82,
      "chip": "ym2612"
    },
    {
      "channel": 1,
      "note": 75,
      "start": 17.4627,
      "duration": 0.1005,
      "velocity": 88,
      "chip": "ym2612"
    },
    {
      "channel": 2,
      "note": 79,
      "start": 17.4632,
      "duration": 0.1003,
      "velocity": 82,
      "chip": "ym2612"
    },
    {
      "channel": 4,
      "note": 79,
      "start": 17.562,
      "duration": 0.0035,
      "velocity": 82,
      "chip": "ym2612"
    },
    {
      "channel": 0,
      "note": 60,
      "start": 17.5632,
      "duration": 0.0076,
      "velocity": 97,
      "chip": "ym2612"
    },
    {
      "channel": 1,
      "note": 63,
      "start": 17.5635,
      "duration": 0.0047,
      "velocity": 88,
      "chip": "ym2612"
    },
    {
      "channel": 2,
      "note": 82,
      "start": 17.5639,
      "duration": 0.0049,
      "velocity": 82,
      "chip": "ym2612"
    },
    {
      "channel": 3,
      "note": 63,
      "start": 17.5644,
      "duration": 0.0075,
      "velocity": 97,
      "chip": "ym2612"
    },
    {
      "channel": 4,
      "note": 82,
      "start": 17.5658,
      "duration": 0.0043,
      "velocity": 82,
      "chip": "ym2612"
    },
    {
      "channel": 1,
      "note": 75,
      "start": 17.5686,
      "duration": 0.0026,
      "velocity": 88,
      "chip": "ym2612"
    },
    {
      "channel": 2,
      "note": 87,
      "start": 17.5692,
      "duration": 0.0024,
      "velocity": 82,
      "chip": "ym2612"
    },
    {
      "channel": 4,
      "note": 87,
      "start": 17.5703,
      "duration": 0.0024,
      "velocity": 82,
      "chip": "ym2612"
    },
    {
      "channel": 0,
      "note": 65,
      "start": 17.5711,
      "duration": 0.2166,
      "velocity": 97,
      "chip": "ym2612"
    },
    {
      "channel": 1,
      "note": 65,
      "start": 17.5715,
      "duration": 0.002,
      "velocity": 88,
      "chip": "ym2612"
    },
    {
      "channel": 2,
      "note": 72,
      "start": 17.5718,
      "duration": 0.002,
      "velocity": 82,
      "chip": "ym2612"
    },
    {
      "channel": 3,
      "note": 68,
      "start": 17.5722,
      "duration": 0.2162,
      "velocity": 97,
      "chip": "ym2612"
    },
    {
      "channel": 4,
      "note": 72,
      "start": 17.573,
      "duration": 0.0995,
      "velocity": 82,
      "chip": "ym2612"
    },
    {
      "channel": 1,
      "note": 65,
      "start": 17.5737,
      "duration": 0.1001,
      "velocity": 88,
      "chip": "ym2612"
    },
    {
      "channel": 2,
      "note": 77,
      "start": 17.574,
      "duration": 0.1,
      "velocity": 82,
      "chip": "ym2612"
    },
    {
      "channel": 4,
      "note": 77,
      "start": 17.6729,
      "duration": 0.0024,
      "velocity": 82,
      "chip": "ym2612"
    },
    {
      "channel": 1,
      "note": 65,
      "start": 17.6739,
      "duration": 0.0022,
      "velocity": 88,
      "chip": "ym2612"
    },
    {
      "channel": 2,
      "note": 80,
      "start": 17.6743,
      "duration": 0.0023,
      "velocity": 82,
      "chip": "ym2612"
    },
    {
      "channel": 4,
      "note": 80,
      "start": 17.6757,
      "duration": 0.002,
      "velocity": 82,
      "chip": "ym2612"
    },
    {
      "channel": 1,
      "note": 77,
      "start": 17.6765,
      "duration": 0.0021,
      "velocity": 88,
      "chip": "ym2612"
    },
    {
      "channel": 2,
      "note": 84,
      "start": 17.6771,
      "duration": 0.002,
      "velocity": 82,
      "chip": "ym2612"
    },
    {
      "channel": 4,
      "note": 84,
      "start": 17.678,
      "duration": 0.0046,
      "velocity": 82,
      "chip": "ym2612"
    },
    {
      "channel": 1,
      "note": 75,
      "start": 17.679,
      "duration": 0.0043,
      "velocity": 88,
      "chip": "ym2612"
    },
    {
      "channel": 2,
      "note": 80,
      "start": 17.6792,
      "duration": 0.0044,
      "velocity": 82,
      "chip": "ym2612"
    },
    {
      "channel": 4,
      "note": 80,
      "start": 17.6828,
      "duration": 0.0997,
      "velocity": 82,
      "chip": "ym2612"
    },
    {
      "channel": 1,
      "note": 72,
      "start": 17.6835,
      "duration": 0.1002,
      "velocity": 88,
      "chip": "ym2612"
    },
    {
      "channel": 2,
      "note": 84,
      "start": 17.6839,
      "duration": 0.1002,
      "velocity": 82,
      "chip": "ym2612"
    },
    {
      "channel": 4,
      "note": 84,
      "start": 17.7828,
      "duration": 0.0022,
      "velocity": 82,
      "chip": "ym2612"
    },
    {
      "channel": 1,
      "note": 68,
      "start": 17.7841,
      "duration": 0.0016,
      "velocity": 88,
      "chip": "ym2612"
    },
    {
      "channel": 2,
      "note": 89,
      "start": 17.7843,
      "duration": 0.0017,
      "velocity": 82,
      "chip": "ym2612"
    },
    {
      "channel": 4,
      "note": 89,
      "start": 17.7852,
      "duration": 0.0016,
      "velocity": 82,
      "chip": "ym2612"
    },
    {
      "channel": 1,
      "note": 67,
      "start": 17.786,
      "duration": 0.0017,
      "velocity": 88,
      "chip": "ym2612"
    },
    {
      "channel": 2,
      "note": 92,
      "start": 17.7863,
      "duration": 0.0017,
      "velocity": 82,
      "chip": "ym2612"
    },
    {
      "channel": 4,
      "note": 92,
      "start": 17.7871,
      "duration": 0.0017,
      "velocity": 82,
      "chip": "ym2612"
    },
    {
      "channel": 1,
      "note": 65,
      "start": 17.788,
      "duration": 0.0016,
      "velocity": 88,
      "chip": "ym2612"
    },
    {
      "channel": 2,
      "note": 89,
      "start": 17.7883,
      "duration": 0.0013,
      "velocity": 82,
      "chip": "ym2612"
    },
    {
      "channel": 4,
      "note": 89,
      "start": 17.7891,
      "duration": 0.0995,
      "velocity": 82,
      "chip": "ym2612"
    },
    {
      "channel": 1,
      "note": 65,
      "start": 17.7896,
      "duration": 0.1025,
      "velocity": 88,
      "chip": "ym2612"
    },
    {
      "channel": 2,
      "note": 84,
      "start": 17.79,
      "duration": 0.1027,
      "velocity": 82,
      "chip": "ym2612"
    },
    {
      "channel": 4,
      "note": 84,
      "start": 17.8889,
      "duration": 0.0052,
      "velocity": 82,
      "chip": "ym2612"
    },
    {
      "channel": 1,
      "note": 65,
      "start": 17.8925,
      "duration": 0.0023,
      "velocity": 88,
      "chip": "ym2612"
    },
    {
      "channel": 2,
      "note": 80,
      "start": 17.8931,
      "duration": 0.0021,
      "velocity": 82,
      "chip": "ym2612"
    },
    {
      "channel": 4,
      "note": 80,
      "start": 17.8944,
      "duration": 0.0015,
      "velocity": 82,
      "chip": "ym2612"
    },
    {
      "channel": 1,
      "note": 77,
      "start": 17.895,
      "duration": 0.0017,
      "velocity": 88,
      "chip": "ym2612"
    },
    {
      "channel": 2,
      "note": 77,
      "start": 17.8954,
      "duration": 0.0016,
      "velocity": 82,
      "chip": "ym2612"
    },
    {
      "channel": 4,
      "note": 77,
      "start": 17.8962,
      "duration": 0.0016,
      "velocity": 82,
      "chip": "ym2612"
    },
    {
      "channel": 1,
      "note": 63,
      "start": 17.8969,
      "duration": 0.004,
      "velocity": 88,
      "chip": "ym2612"
    },
    {
      "channel": 2,
      "note": 84,
      "start": 17.8973,
      "duration": 0.0041,
      "velocity": 82,
      "chip": "ym2612"
    },
    {
      "channel": 4,
      "note": 84,
      "start": 17.8981,
      "duration": 0.0047,
      "velocity": 82,
      "chip": "ym2612"
    },
    {
      "channel": 1,
      "note": 75,
      "start": 17.9013,
      "duration": 0.0044,
      "velocity": 88,
      "chip": "ym2612"
    },
    {
      "channel": 2,
      "note": 80,
      "start": 17.9018,
      "duration": 0.0045,
      "velocity": 82,
      "chip": "ym2612"
    },
    {
      "channel": 4,
      "note": 80,
      "start": 17.9031,
      "duration": 0.0047,
      "velocity": 82,
      "chip": "ym2612"
    },
    {
      "channel": 1,
      "note": 64,
      "start": 17.9062,
      "duration": 0.008,
      "velocity": 88,
      "chip": "ym2612"
    },
    {
      "channel": 2,
      "note": 77,
      "start": 17.9067,
      "duration": 0.008,
      "velocity": 82,
      "chip": "ym2612"
    },
    {
      "channel": 4,
      "note": 77,
      "start": 17.908,
      "duration": 0.0082,
      "velocity": 82,
      "chip": "ym2612"
    },
    {
      "channel": 1,
      "note": 76,
      "start": 17.9146,
      "duration": 0.0065,
      "velocity": 88,
      "chip": "ym2612"
    },
    {
      "channel": 2,
      "note": 72,
      "start": 17.9152,
      "duration": 0.0064,
      "velocity": 82,
      "chip": "ym2612"
    },
    {
      "channel": 4,
      "note": 72,
      "start": 17.9166,
      "duration": 0.0078,
      "velocity": 82,
      "chip": "ym2612"
    },
    {
      "channel": 0,
      "note": 68,
      "start": 17.921,
      "duration": 0.1138,
      "velocity": 97,
      "chip": "ym2612"
    },
    {
      "channel": 1,
      "note": 65,
      "start": 17.9215,
      "duration": 0.0089,
      "velocity": 88,
      "chip": "ym2612"
    },
    {
      "channel": 2,
      "note": 77,
      "start": 17.924,
      "duration": 0.2249,
      "velocity": 94,
      "chip": "ym2612"
    },
    {
      "channel": 3,
      "note": 68,
      "start": 17.9244,
      "duration": 0.1111,
      "velocity": 97,
      "chip": "ym2612"
    },
    {
      "channel": 4,
      "note": 77,
      "start": 17.9264,
      "duration": 0.2232,
      "velocity": 94,
      "chip": "ym2612"
    },
    {
      "channel": 1,
      "note": 65,
      "start": 17.9305,
      "duration": 0.1028,
      "velocity": 88,
      "chip": "ym2612"
    },
    {
      "channel": 1,
      "note": 65,
      "start": 18.0334,
      "duration": 0.0018,
      "velocity": 88,
      "chip": "ym2612"
    },
    {
      "channel": 0,
      "note": 67,
      "start": 18.0351,
      "duration": 0.1065,
      "velocity": 97,
      "chip": "ym2612"
    },
    {
      "channel": 1,
      "note": 77,
      "start": 18.0354,
      "duration": 0.0013,
      "velocity": 88,
      "chip": "ym2612"
    },
    {
      "channel": 3,
      "note": 67,
      "start": 18.0358,
      "duration": 0.1066,
      "velocity": 97,
      "chip": "ym2612"
    },
    {
      "channel": 1,
      "note": 65,
      "start": 18.037,
      "duration": 0.0045,
      "velocity": 88,
      "chip": "ym2612"
    },
    {
      "channel": 1,
      "note": 77,
      "start": 18.0418,
      "duration": 0.1001,
      "velocity": 88,
      "chip": "ym2612"
    },
    {
      "channel": 0,
      "note": 63,
      "start": 18.1419,
      "duration": 0.0064,
      "velocity": 97,
      "chip": "ym2612"
    },
    {
      "channel": 1,
      "note": 63,
      "start": 18.1422,
      "duration": 0.0049,
      "velocity": 88,
      "chip": "ym2612"
    },
    {
      "channel": 3,
      "note": 63,
      "start": 18.1427,
      "duration": 0.0066,
      "velocity": 97,
      "chip": "ym2612"
    },
    {
      "channel": 1,
      "note": 75,
      "start": 18.1474,
      "duration": 0.0012,
      "velocity": 88,
      "chip": "ym2612"
    },
    {
      "channel": 0,
      "note": 65,
      "start": 18.1485,
      "duration": 0.1038,
      "velocity": 97,
      "chip": "ym2612"
    },
    {
      "channel": 1,
      "note": 61,
      "start": 18.1489,
      "duration": 0.002,
      "velocity": 88,
      "chip": "ym2612"
    },
    {
      "channel": 2,
      "note": 73,
      "start": 18.1492,
      "duration": 0.2142,
      "velocity": 94,
      "chip": "ym2612"
    },
    {
      "channel": 3,
      "note": 65,
      "start": 18.1496,
      "duration": 0.1036,
      "velocity": 97,
      "chip": "ym2612"
    },
    {
      "channel": 4,
      "note": 73,
      "start": 18.1499,
      "duration": 0.2144,
      "velocity": 94,
      "chip": "ym2612"
    },
    {
      "channel": 1,
      "note": 61,
      "start": 18.151,
      "duration": 0.0998,
      "velocity": 88,
      "chip": "ym2612"
    },
    {
      "channel": 1,
      "note": 61,
      "start": 18.251,
      "duration": 0.0018,
      "velocity": 88,
      "chip": "ym2612"
    },
    {
      "channel": 0,
      "note": 61,
      "start": 18.2527,
      "duration": 0.108,
      "velocity": 97,
      "chip": "ym2612"
    },
    {
      "channel": 1,
      "note": 73,
      "start": 18.253,
      "duration": 0.0013,
      "velocity": 88,
      "chip": "ym2612"
    },
    {
      "channel": 3,
      "note": 61,
      "start": 18.2534,
      "duration": 0.1077,
      "velocity": 97,
      "chip": "ym2612"
    },
    {
      "channel": 1,
      "note": 61,
      "start": 18.2546,
      "duration": 0.0043,
      "velocity": 88,
      "chip": "ym2612"
    },
    {
      "channel": 1,
      "note": 73,
      "start": 18.2593,
      "duration": 0.0998,
      "velocity": 88,
      "chip": "ym2612"
    },
    {
      "channel": 1,
      "note": 59,
      "start": 18.3594,
      "duration": 0.0013,
      "velocity": 88,
      "chip": "ym2612"
    },
    {
      "channel": 1,
      "note": 71,
      "start": 18.361,
      "duration": 0.002,
      "velocity": 88,
      "chip": "ym2612"
    },
    {
      "channel": 0,
      "note": 72,
      "start": 18.3628,
      "duration": 0.1039,
      "velocity": 97,
      "chip": "ym2612"
    },
    {
      "channel": 1,
      "note": 60,
      "start": 18.3632,
      "duration": 0.002,
      "velocity": 88,
      "chip": "ym2612"
    },
    {
      "channel": 2,
      "note": 72,
      "start": 18.3637,
      "duration": 0.2166,
      "velocity": 94,
      "chip": "ym2612"
    },
    {
      "channel": 3,
      "note": 72,
      "start": 18.3641,
      "duration": 0.1032,
      "velocity": 97,
      "chip": "ym2612"
    },
    {
      "channel": 4,
      "note": 72,
      "start": 18.3645,
      "duration": 0.2166,
      "velocity": 94,
      "chip": "ym2612"
    },
    {
      "channel": 1,
      "note": 60,
      "start": 18.3654,
      "duration": 0.0998,
      "velocity": 88,
      "chip": "ym2612"
    },
    {
      "channel": 1,
      "note": 60,
      "start": 18.4654,
      "duration": 0.0017,
      "velocity": 88,
      "chip": "ym2612"
    },
    {
      "channel": 0,
      "note": 70,
      "start": 18.467,
      "duration": 0.1058,
      "velocity": 97,
      "chip": "ym2612"
    },
    {
      "channel": 1,
      "note": 60,
      "start": 18.4672,
      "duration": 0.0014,
      "velocity": 88,
      "chip": "ym2612"
    },
    {
      "channel": 3,
      "note": 70,
      "start": 18.4676,
      "duration": 0.106,
      "velocity": 97,
      "chip": "ym2612"
    },
    {
      "channel": 1,
      "note": 60,
      "start": 18.4686,
      "duration": 0.0043,
      "velocity": 88,
      "chip": "ym2612"
    },
    {
      "channel": 1,
      "note": 60,
      "start": 18.4731,
      "duration": 0.1001,
      "velocity": 88,
      "chip": "ym2612"
    },
    {
      "channel": 0,
      "note": 67,
      "start": 18.5731,
      "duration": 0.0066,
      "velocity": 97,
      "chip": "ym2612"
    },
    {
      "channel": 1,
      "note": 61,
      "start": 18.5735,
      "duration": 0.0049,
      "velocity": 88,
      "chip": "ym2612"
    },
    {
      "channel": 3,
      "note": 67,
      "start": 18.574,
      "duration": 0.0068,
      "velocity": 97,
      "chip": "ym2612"
    },
    {
      "channel": 1,
      "note": 63,
      "start": 18.5788,
      "duration": 0.0013,
      "velocity": 88,
      "chip": "ym2612"
    },
    {
      "channel": 0,
      "note": 68,
      "start": 18.5799,
      "duration": 0.1039,
      "velocity": 97,
      "chip": "ym2612"
    },
    {
      "channel": 1,
      "note": 61,
      "start": 18.5802,
      "duration": 0.0021,
      "velocity": 88,
      "chip": "ym2612"
    },
    {
      "channel": 2,
      "note": 73,
      "start": 18.5806,
      "duration": 0.2142,
      "velocity": 94,
      "chip": "ym2612"
    },
    {
      "channel": 3,
      "note": 68,
      "start": 18.581,
      "duration": 0.1036,
      "velocity": 97,
      "chip": "ym2612"
    },
    {
      "channel": 4,
      "note": 73,
      "start": 18.5814,
      "duration": 0.214,
      "velocity": 94,
      "chip": "ym2612"
    },
    {
      "channel": 1,
      "note": 61,
      "start": 18.5825,
      "duration": 0.0998,
      "velocity": 88,
      "chip": "ym2612"
    },
    {
      "channel": 1,
      "note": 61,
      "start": 18.6825,
      "duration": 0.0018,
      "velocity": 88,
      "chip": "ym2612"
    },
    {
      "channel": 0,
      "note": 70,
      "start": 18.6841,
      "duration": 0.108,
      "velocity": 97,
      "chip": "ym2612"
    },
    {
      "channel": 1,
      "note": 73,
      "start": 18.6845,
      "duration": 0.0013,
      "velocity": 88,
      "chip": "ym2612"
    },
    {
      "channel": 3,
      "note": 70,
      "start": 18.6849,
      "duration": 0.1079,
      "velocity": 97,
      "chip": "ym2612"
    },
    {
      "channel": 1,
      "note": 61,
      "start": 18.6861,
      "duration": 0.0043,
      "velocity": 88,
      "chip": "ym2612"
    },
    {
      "channel": 1,
      "note": 73,
      "start": 18.6907,
      "duration": 0.0998,
      "velocity": 88,
      "chip": "ym2612"
    },
    {
      "channel": 1,
      "note": 60,
      "start": 18.7908,
      "duration": 0.0015,
      "velocity": 88,
      "chip": "ym2612"
    },
    {
      "channel": 1,
      "note": 72,
      "start": 18.7926,
      "duration": 0.0018,
      "velocity": 88,
      "chip": "ym2612"
    },
    {
      "channel": 0,
      "note": 65,
      "start": 18.7943,
      "duration": 0.1039,
      "velocity": 97,
      "chip": "ym2612"
    },
    {
      "channel": 1,
      "note": 58,
      "start": 18.7948,
      "duration": 0.002,
      "velocity": 88,
      "chip": "ym2612"
    },
    {
      "channel": 2,
      "note": 70,
      "start": 18.795,
      "duration": 0.2146,
      "velocity": 94,
      "chip": "ym2612"
    },
    {
      "channel": 3,
      "note": 65,
      "start": 18.7953,
      "duration": 0.1036,
      "velocity": 97,
      "chip": "ym2612"
    },
    {
      "channel": 4,
      "note": 70,
      "start": 18.7957,
      "duration": 0.2145,
      "velocity": 94,
      "chip": "ym2612"
    },
    {
      "channel": 1,
      "note": 58,
      "start": 18.7968,
      "duration": 0.0998,
      "velocity": 88,
      "chip": "ym2612"
    },
    {
      "channel": 1,
      "note": 58,
      "start": 18.8968,
      "duration": 0.0018,
      "velocity": 88,
      "chip": "ym2612"
    },
    {
      "channel": 0,
      "note": 62,
      "start": 18.8985,
      "duration": 0.1064,
      "velocity": 97,
      "chip": "ym2612"
    },
    {
      "channel": 1,
      "note": 70,
      "start": 18.8988,
      "duration": 0.0013,
      "velocity": 88,
      "chip": "ym2612"
    },
    {
      "channel": 3,
      "note": 62,
      "start": 18.8993,
      "duration": 0.1065,
      "velocity": 97,
      "chip": "ym2612"
    },
    {
      "channel": 1,
      "note": 58,
      "start": 18.9005,
      "duration": 0.0044,
      "velocity": 88,
      "chip": "ym2612"
    },
    {
      "channel": 1,
      "note": 70,
      "start": 18.9051,
      "duration": 0.1002,
      "velocity": 88,
      "chip": "ym2612"
    },
    {
      "channel": 0,
      "note": 70,
      "start": 19.0052,
      "duration": 0.0037,
      "velocity": 97,
      "chip": "ym2612"
    },
    {
      "channel": 1,
      "note": 60,
      "start": 19.0057,
      "duration": 0.002,
      "velocity": 88,
      "chip": "ym2612"
    },
    {
      "channel": 3,
      "note": 70,
      "start": 19.0063,
      "duration": 0.0036,
      "velocity": 97,
      "chip": "ym2612"
    },
    {
      "channel": 1,
      "note": 72,
      "start": 19.008,
      "duration": 0.0012,
      "velocity": 88,
      "chip": "ym2612"
    },
    {
      "channel": 0,
      "note": 68,
      "start": 19.0092,
      "duration": 0.1021,
      "velocity": 97,
      "chip": "ym2612"
    },
    {
      "channel": 1,
      "note": 61,
      "start": 19.0095,
      "duration": 0.0019,
      "velocity": 88,
      "chip": "ym2612"
    },
    {
      "channel": 2,
      "note": 73,
      "start": 19.0098,
      "duration": 0.1059,
      "velocity": 94,
      "chip": "ym2612"
    },
    {
      "channel": 3,
      "note": 72,
      "start": 19.0102,
      "duration": 0.1019,
      "velocity": 97,
      "chip": "ym2612"
    },
    {
      "channel": 4,
      "note": 73,
      "start": 19.0104,
      "duration": 0.1063,
      "velocity": 94,
      "chip": "ym2612"
    },
    {
      "channel": 1,
      "note": 61,
      "start": 19.0115,
      "duration": 0.1001,
      "velocity": 88,
      "chip": "ym2612"
    },
    {
      "channel": 0,
      "note": 67,
      "start": 19.1115,
      "duration": 0.0035,
      "velocity": 97,
      "chip": "ym2612"
    },
    {
      "channel": 1,
      "note": 73,
      "start": 19.1119,
      "duration": 0.002,
      "velocity": 88,
      "chip": "ym2612"
    },
    {
      "channel": 3,
      "note": 70,
      "start": 19.1124,
      "duration": 0.0038,
      "velocity": 97,
      "chip": "ym2612"
    },
    {
      "channel": 1,
      "note": 61,
      "start": 19.1142,
      "duration": 0.0011,
      "velocity": 88,
      "chip": "ym2612"
    },
    {
      "channel": 0,
      "note": 63,
      "start": 19.1152,
      "duration": 0.1027,
      "velocity": 97,
      "chip": "ym2612"
    },
    {
      "channel": 1,
      "note": 63,
      "start": 19.1156,
      "duration": 0.0023,
      "velocity": 88,
      "chip": "ym2612"
    },
    {
      "channel": 2,
      "note": 75,
      "start": 19.1161,
      "duration": 0.1094,
      "velocity": 94,
      "chip": "ym2612"
    },
    {
      "channel": 3,
      "note": 67,
      "start": 19.1166,
      "duration": 0.1021,
      "velocity": 97,
      "chip": "ym2612"
    },
    {
      "channel": 4,
      "note": 75,
      "start": 19.117,
      "duration": 0.1093,
      "velocity": 94,
      "chip": "ym2612"
    },
    {
      "channel": 1,
      "note": 75,
      "start": 19.1182,
      "duration": 0.1001,
      "velocity": 88,
      "chip": "ym2612"
    },
    {
      "channel": 0,
      "note": 60,
      "start": 19.2182,
      "duration": 0.0066,
      "velocity": 97,
      "chip": "ym2612"
    },
    {
      "channel": 1,
      "note": 63,
      "start": 19.2186,
      "duration": 0.0044,
      "velocity": 88,
      "chip": "ym2612"
    },
    {
      "channel": 3,
      "note": 63,
      "start": 19.2191,
      "duration": 0.0068,
      "velocity": 97,
      "chip": "ym2612"
    },
    {
      "channel": 1,
      "note": 75,
      "start": 19.2234,
      "duration": 0.0017,
      "velocity": 88,
      "chip": "ym2612"
    },
    {
      "channel": 0,
      "note": 65,
      "start": 19.225,
      "duration": 0.21,
      "velocity": 97,
      "chip": "ym2612"
    },
    {
      "channel": 1,
      "note": 65,
      "start": 19.2255,
      "duration": 0.0021,
      "velocity": 88,
      "chip": "ym2612"
    },
    {
      "channel": 2,
      "note": 77,
      "start": 19.2258,
      "duration": 0.2139,
      "velocity": 94,
      "chip": "ym2612"
    },
    {
      "channel": 3,
      "note": 69,
      "start": 19.2262,
      "duration": 0.2097,
      "velocity": 97,
      "chip": "ym2612"
    },
    {
      "channel": 4,
      "note": 81,
      "start": 19.2266,
      "duration": 0.2136,
      "velocity": 94,
      "chip": "ym2612"
    },
    {
      "channel": 1,
      "note": 65,
      "start": 19.2276,
      "duration": 0.1033,
      "velocity": 88,
      "chip": "ym2612"
    },
    {
      "channel": 1,
      "note": 65,
      "start": 19.3311,
      "duration": 0.0014,
      "velocity": 88,
      "chip": "ym2612"
    },
    {
      "channel": 1,
      "note": 77,
      "start": 19.3328,
      "duration": 0.0008,
      "velocity": 88,
      "chip": "ym2612"
    },
    {
      "channel": 1,
      "note": 75,
      "start": 19.334,
      "duration": 0.001,
      "velocity": 88,
      "chip": "ym2612"
    },
    {
      "channel": 1,
      "note": 72,
      "start": 19.3352,
      "duration": 0.1002,
      "velocity": 88,
      "chip": "ym2612"
    },
    {
      "channel": 0,
      "note": 72,
      "start": 19.4352,
      "duration": 0.0037,
      "velocity": 97,
      "chip": "ym2612"
    },
    {
      "channel": 1,
      "note": 68,
      "start": 19.4358,
      "duration": 0.002,
      "velocity": 88,
      "chip": "ym2612"
    },
    {
      "channel": 3,
      "note": 65,
      "start": 19.4363,
      "duration": 0.0034,
      "velocity": 97,
      "chip": "ym2612"
    },
    {
      "channel": 1,
      "note": 67,
      "start": 19.4381,
      "duration": 0.0012,
      "velocity": 88,
      "chip": "ym2612"
    },
    {
      "channel": 0,
      "note": 70,
      "start": 19.4392,
      "duration": 0.0063,
      "velocity": 97,
      "chip": "ym2612"
    },
    {
      "channel": 1,
      "note": 65,
      "start": 19.4395,
      "duration": 0.0027,
      "velocity": 88,
      "chip": "ym2612"
    },
    {
      "channel": 2,
      "note": 77,
      "start": 19.4397,
      "duration": 0.0012,
      "velocity": 94,
      "chip": "ym2612"
    },
    {
      "channel": 3,
      "note": 60,
      "start": 19.44,
      "duration": 0.0064,
      "velocity": 97,
      "chip": "ym2612"
    },
    {
      "channel": 4,
      "note": 77,
      "start": 19.4404,
      "duration": 0.001,
      "velocity": 94,
      "chip": "ym2612"
    },
    {
      "channel": 2,
      "note": 79,
      "start": 19.4412,
      "duration": 0.0012,
      "velocity": 94,
      "chip": "ym2612"
    },
    {
      "channel": 4,
      "note": 79,
      "start": 19.4417,
      "duration": 0.0012,
      "velocity": 94,
      "chip": "ym2612"
    },
    {
      "channel": 1,
      "note": 65,
      "start": 19.4423,
      "duration": 0.0035,
      "velocity": 88,
      "chip": "ym2612"
    },
    {
      "channel": 2,
      "note": 81,
      "start": 19.4428,
      "duration": 0.0016,
      "velocity": 94,
      "chip": "ym2612"
    },
    {
      "channel": 4,
      "note": 81,
      "start": 19.4433,
      "duration": 0.0013,
      "velocity": 94,
      "chip": "ym2612"
    },
    {
      "channel": 2,
      "note": 82,
      "start": 19.4446,
      "duration": 0.0015,
      "velocity": 94,
      "chip": "ym2612"
    },
    {
      "channel": 4,
      "note": 82,
      "start": 19.445,
      "duration": 0.0019,
      "velocity": 94,
      "chip": "ym2612"
    },
    {
      "channel": 0,
      "note": 69,
      "start": 19.4458,
      "duration": 0.0127,
      "velocity": 97,
      "chip": "ym2612"
    },
    {
      "channel": 1,
      "note": 65,
      "start": 19.4459,
      "duration": 0.0067,
      "velocity": 88,
      "chip": "ym2612"
    },
    {
      "channel": 2,
      "note": 79,
      "start": 19.4463,
      "duration": 0.0043,
      "velocity": 94,
      "chip": "ym2612"
    },
    {
      "channel": 3,
      "note": 65,
      "start": 19.4467,
      "duration": 0.0129,
      "velocity": 97,
      "chip": "ym2612"
    },
    {
      "channel": 4,
      "note": 79,
      "start": 19.4473,
      "duration": 0.004,
      "velocity": 94,
      "chip": "ym2612"
    },
    {
      "channel": 2,
      "note": 81,
      "start": 19.4511,
      "duration": 0.0019,
      "velocity": 94,
      "chip": "ym2612"
    },
    {
      "channel": 4,
      "note": 81,
      "start": 19.4517,
      "duration": 0.0016,
      "velocity": 94,
      "chip": "ym2612"
    },
    {
      "channel": 1,
      "note": 77,
      "start": 19.4529,
      "duration": 0.0059,
      "velocity": 88,
      "chip": "ym2612"
    },
    {
      "channel": 2,
      "note": 82,
      "start": 19.4532,
      "duration": 0.001,
      "velocity": 94,
      "chip": "ym2612"
    },
    {
      "channel": 4,
      "note": 82,
      "start": 19.4537,
      "duration": 0.0009,
      "velocity": 94,
      "chip": "ym2612"
    },
    {
      "channel": 2,
      "note": 84,
      "start": 19.4545,
      "duration": 0.0047,
      "velocity": 94,
      "chip": "ym2612"
    },
    {
      "channel": 4,
      "note": 84,
      "start": 19.4547,
      "duration": 0.0053,
      "velocity": 94,
      "chip": "ym2612"
    },
    {
      "channel": 0,
      "note": 65,
      "start": 19.4588,
      "duration": 0.0087,
      "velocity": 97,
      "chip": "ym2612"
    },
    {
      "channel": 1,
      "note": 65,
      "start": 19.4591,
      "duration": 0.0063,
      "velocity": 88,
      "chip": "ym2612"
    },
    {
      "channel": 2,
      "note": 81,
      "start": 19.4595,
      "duration": 0.0041,
      "velocity": 94,
      "chip": "ym2612"
    },
    {
      "channel": 3,
      "note": 69,
      "start": 19.4599,
      "duration": 0.0086,
      "velocity": 97,
      "chip": "ym2612"
    },
    {
      "channel": 4,
      "note": 81,
      "start": 19.4604,
      "duration": 0.0037,
      "velocity": 94,
      "chip": "ym2612"
    },
    {
      "channel": 2,
      "note": 82,
      "start": 19.464,
      "duration": 0.0018,
      "velocity": 94,
      "chip": "ym2612"
    },
    {
      "channel": 4,
      "note": 82,
      "start": 19.4645,
      "duration": 0.0016,
      "velocity": 94,
      "chip": "ym2612"
    },
    {
      "channel": 1,
      "note": 77,
      "start": 19.4657,
      "duration": 0.0021,
      "velocity": 88,
      "chip": "ym2612"
    },
    {
      "channel": 2,
      "note": 84,
      "start": 19.466,
      "duration": 0.0008,
      "velocity": 94,
      "chip": "ym2612"
    },
    {
      "channel": 4,
      "note": 84,
      "start": 19.4664,
      "duration": 0.0005,
      "velocity": 94,
      "chip": "ym2612"
    },
    {
      "channel": 2,
      "note": 86,
      "start": 19.4669,
      "duration": 0.0012,
      "velocity": 94,
      "chip": "ym2612"
    },
    {
      "channel": 4,
      "note": 86,
      "start": 19.4672,
      "duration": 0.0016,
      "velocity": 94,
      "chip": "ym2612"
    },
    {
      "channel": 0,
      "note": 60,
      "start": 19.4677,
      "duration": 0.0051,
      "velocity": 97,
      "chip": "ym2612"
    },
    {
      "channel": 1,
      "note": 63,
      "start": 19.468,
      "duration": 0.0022,
      "velocity": 88,
      "chip": "ym2612"
    },
    {
      "channel": 2,
      "note": 82,
      "start": 19.4684,
      "duration": 0.0009,
      "velocity": 94,
      "chip": "ym2612"
    },
    {
      "channel": 3,
      "note": 72,
      "start": 19.4687,
      "duration": 0.0052,
      "velocity": 97,
      "chip": "ym2612"
    },
    {
      "channel": 4,
      "note": 82,
      "start": 19.469,
      "duration": 0.0006,
      "velocity": 94,
      "chip": "ym2612"
    },
    {
      "channel": 2,
      "note": 84,
      "start": 19.4695,
      "duration": 0.001,
      "velocity": 94,
      "chip": "ym2612"
    },
    {
      "channel": 4,
      "note": 84,
      "start": 19.4699,
      "duration": 0.0009,
      "velocity": 94,
      "chip": "ym2612"
    },
    {
      "channel": 1,
      "note": 75,
      "start": 19.4705,
      "duration": 0.0028,
      "velocity": 88,
      "chip": "ym2612"
    },
    {
      "channel": 2,
      "note": 86,
      "start": 19.4707,
      "duration": 0.001,
      "velocity": 94,
      "chip": "ym2612"
    },
    {
      "channel": 4,
      "note": 86,
      "start": 19.471,
      "duration": 0.0009,
      "velocity": 94,
      "chip": "ym2612"
    },
    {
      "channel": 2,
      "note": 88,
      "start": 19.4718,
      "duration": 0.0017,
      "velocity": 94,
      "chip": "ym2612"
    },
    {
      "channel": 4,
      "note": 88,
      "start": 19.4722,
      "duration": 0.002,
      "velocity": 94,
      "chip": "ym2612"
    },
    {
      "channel": 0,
      "note": 65,
      "start": 19.4732,
      "duration": 0.0055,
      "velocity": 97,
      "chip": "ym2612"
    },
    {
      "channel": 1,
      "note": 61,
      "start": 19.4735,
      "duration": 0.0056,
      "velocity": 88,
      "chip": "ym2612"
    },
    {
      "channel": 2,
      "note": 89,
      "start": 19.4739,
      "duration": 0.3221,
      "velocity": 94,
      "chip": "ym2612"
    },
    {
      "channel": 3,
      "note": 72,
      "start": 19.4741,
      "duration": 0.0052,
      "velocity": 97,
      "chip": "ym2612"
    },
    {
      "channel": 4,
      "note": 89,
      "start": 19.4745,
      "duration": 0.3218,
      "velocity": 94,
      "chip": "ym2612"
    },
    {
      "channel": 0,
      "note": 61,
      "start": 19.479,
      "duration": 0.0995,
      "velocity": 97,
      "chip": "ym2612"
    },
    {
      "channel": 1,
      "note": 61,
      "start": 19.4792,
      "duration": 0.0996,
      "velocity": 88,
      "chip": "ym2612"
    },
    {
      "channel": 3,
      "note": 72,
      "start": 19.4795,
      "duration": 0.0997,
      "velocity": 97,
      "chip": "ym2612"
    },
    {
      "channel": 0,
      "note": 63,
      "start": 19.5788,
      "duration": 0.0022,
      "velocity": 97,
      "chip": "ym2612"
    },
    {
      "channel": 1,
      "note": 61,
      "start": 19.579,
      "duration": 0.0023,
      "velocity": 88,
      "chip": "ym2612"
    },
    {
      "channel": 3,
      "note": 72,
      "start": 19.5795,
      "duration": 0.0022,
      "velocity": 97,
      "chip": "ym2612"
    },
    {
      "channel": 0,
      "note": 65,
      "start": 19.5812,
      "duration": 0.0016,
      "velocity": 97,
      "chip": "ym2612"
    },
    {
      "channel": 1,
      "note": 73,
      "start": 19.5816,
      "duration": 0.0014,
      "velocity": 88,
      "chip": "ym2612"
    },
    {
      "channel": 3,
      "note": 72,
      "start": 19.5819,
      "duration": 0.0015,
      "velocity": 97,
      "chip": "ym2612"
    },
    {
      "channel": 1,
      "note": 61,
      "start": 19.5832,
      "duration": 0.0013,
      "velocity": 88,
      "chip": "ym2612"
    },
    {
      "channel": 0,
      "note": 68,
      "start": 19.5844,
      "duration": 0.0994,
      "velocity": 97,
      "chip": "ym2612"
    },
    {
      "channel": 1,
      "note": 73,
      "start": 19.5848,
      "duration": 0.099,
      "velocity": 88,
      "chip": "ym2612"
    },
    {
      "channel": 3,
      "note": 72,
      "start": 19.5849,
      "duration": 0.0993,
      "velocity": 97,
      "chip": "ym2612"
    },
    {
      "channel": 1,
      "note": 61,
      "start": 19.6841,
      "duration": 0.0055,
      "velocity": 88,
      "chip": "ym2612"
    },
    {
      "channel": 0,
      "note": 67,
      "start": 19.6895,
      "duration": 0.2165,
      "velocity": 97,
      "chip": "ym2612"
    },
    {
      "channel": 1,
      "note": 73,
      "start": 19.6898,
      "duration": 0.0012,
      "velocity": 88,
      "chip": "ym2612"
    },
    {
      "channel": 3,
      "note": 70,
      "start": 19.6901,
      "duration": 0.2171,
      "velocity": 97,
      "chip": "ym2612"
    },
    {
      "channel": 1,
      "note": 61,
      "start": 19.6913,
      "duration": 0.0014,
      "velocity": 88,
      "chip": "ym2612"
    },
    {
      "channel": 1,
      "note": 61,
      "start": 19.693,
      "duration": 0.0998,
      "velocity": 88,
      "chip": "ym2612"
    },
    {
      "channel": 1,
      "note": 61,
      "start": 19.793,
      "duration": 0.0014,
      "velocity": 88,
      "chip": "ym2612"
    },
    {
      "channel": 1,
      "note": 73,
      "start": 19.7946,
      "duration": 0.0008,
      "velocity": 88,
      "chip": "ym2612"
    },
    {
      "channel": 1,
      "note": 61,
      "start": 19.7959,
      "duration": 0.0021,
      "velocity": 88,
      "chip": "ym2612"
    },
    {
      "channel": 2,
      "note": 89,
      "start": 19.7962,
      "duration": 0.0007,
      "velocity": 94,
      "chip": "ym2612"
    },
    {
      "channel": 4,
      "note": 89,
      "start": 19.7963,
      "duration": 0.0008,
      "velocity": 94,
      "chip": "ym2612"
    },
    {
      "channel": 2,
      "note": 87,
      "start": 19.7971,
      "duration": 0.0013,
      "velocity": 94,
      "chip": "ym2612"
    },
    {
      "channel": 4,
      "note": 87,
      "start": 19.7975,
      "duration": 0.0012,
      "velocity": 94,
      "chip": "ym2612"
    },
    {
      "channel": 1,
      "note": 73,
      "start": 19.7983,
      "duration": 0.1005,
      "velocity": 88,
      "chip": "ym2612"
    },
    {
      "channel": 2,
      "note": 85,
      "start": 19.7986,
      "duration": 0.0985,
      "velocity": 94,
      "chip": "ym2612"
    },
    {
      "channel": 4,
      "note": 85,
      "start": 19.799,
      "duration": 0.0986,
      "velocity": 94,
      "chip": "ym2612"
    },
    {
      "channel": 2,
      "note": 84,
      "start": 19.8975,
      "duration": 0.0018,
      "velocity": 94,
      "chip": "ym2612"
    },
    {
      "channel": 4,
      "note": 84,
      "start": 19.898,
      "duration": 0.0018,
      "velocity": 94,
      "chip": "ym2612"
    },
    {
      "channel": 1,
      "note": 59,
      "start": 19.8991,
      "duration": 0.0032,
      "velocity": 88,
      "chip": "ym2612"
    },
    {
      "channel": 2,
      "note": 87,
      "start": 19.8997,
      "duration": 0.0013,
      "velocity": 94,
      "chip": "ym2612"
    },
    {
      "channel": 4,
      "note": 87,
      "start": 19.9002,
      "duration": 0.0012,
      "velocity": 94,
      "chip": "ym2612"
    },
    {
      "channel": 2,
      "note": 85,
      "start": 19.9013,
      "duration": 0.0014,
      "velocity": 94,
      "chip": "ym2612"
    },
    {
      "channel": 4,
      "note": 85,
      "start": 19.9018,
      "duration": 0.0012,
      "velocity": 94,
      "chip": "ym2612"
    },
    {
      "channel": 1,
      "note": 71,
      "start": 19.9027,
      "duration": 0.0037,
      "velocity": 88,
      "chip": "ym2612"
    },
    {
      "channel": 2,
      "note": 84,
      "start": 19.9029,
      "duration": 0.0011,
      "velocity": 94,
      "chip": "ym2612"
    },
    {
      "channel": 4,
      "note": 84,
      "start": 19.9034,
      "duration": 0.0009,
      "velocity": 94,
      "chip": "ym2612"
    },
    {
      "channel": 2,
      "note": 82,
      "start": 19.9042,
      "duration": 0.0025,
      "velocity": 94,
      "chip": "ym2612"
    },
    {
      "channel": 4,
      "note": 82,
      "start": 19.9046,
      "duration": 0.0029,
      "velocity": 94,
      "chip": "ym2612"
    },
    {
      "channel": 0,
      "note": 63,
      "start": 19.9063,
      "duration": 0.0026,
      "velocity": 97,
      "chip": "ym2612"
    },
    {
      "channel": 1,
      "note": 60,
      "start": 19.9066,
      "duration": 0.0027,
      "velocity": 88,
      "chip": "ym2612"
    },
    {
      "channel": 2,
      "note": 84,
      "start": 19.9071,
      "duration": 0.106,
      "velocity": 94,
      "chip": "ym2612"
    },
    {
      "channel": 3,
      "note": 72,
      "start": 19.9074,
      "duration": 0.0021,
      "velocity": 97,
      "chip": "ym2612"
    },
    {
      "channel": 4,
      "note": 84,
      "start": 19.9078,
      "duration": 0.1058,
      "velocity": 94,
      "chip": "ym2612"
    },
    {
      "channel": 0,
      "note": 60,
      "start": 19.9092,
      "duration": 0.0994,
      "velocity": 97,
      "chip": "ym2612"
    },
    {
      "channel": 1,
      "note": 60,
      "start": 19.9094,
      "duration": 0.0996,
      "velocity": 88,
      "chip": "ym2612"
    },
    {
      "channel": 3,
      "note": 70,
      "start": 19.9098,
      "duration": 0.0995,
      "velocity": 97,
      "chip": "ym2612"
    },
    {
      "channel": 0,
      "note": 61,
      "start": 20.0089,
      "duration": 0.0021,
      "velocity": 97,
      "chip": "ym2612"
    },
    {
      "channel": 1,
      "note": 60,
      "start": 20.0091,
      "duration": 0.0022,
      "velocity": 88,
      "chip": "ym2612"
    },
    {
      "channel": 3,
      "note": 68,
      "start": 20.0097,
      "duration": 0.002,
      "velocity": 97,
      "chip": "ym2612"
    },
    {
      "channel": 0,
      "note": 70,
      "start": 20.0112,
      "duration": 0.0071,
      "velocity": 97,
      "chip": "ym2612"
    },
    {
      "channel": 1,
      "note": 60,
      "start": 20.0115,
      "duration": 0.0014,
      "velocity": 88,
      "chip": "ym2612"
    },
    {
      "channel": 3,
      "note": 67,
      "start": 20.0119,
      "duration": 0.0069,
      "velocity": 97,
      "chip": "ym2612"
    },
    {
      "channel": 1,
      "note": 60,
      "start": 20.0129,
      "duration": 0.0058,
      "velocity": 88,
      "chip": "ym2612"
    },
    {
      "channel": 2,
      "note": 82,
      "start": 20.0134,
      "duration": 0.1088,
      "velocity": 94,
      "chip": "ym2612"
    },
    {
      "channel": 4,
      "note": 82,
      "start": 20.0139,
      "duration": 0.109,
      "velocity": 94,
      "chip": "ym2612"
    },
    {
      "channel": 0,
      "note": 68,
      "start": 20.0186,
      "duration": 0.1011,
      "velocity": 97,
      "chip": "ym2612"
    },
    {
      "channel": 1,
      "note": 60,
      "start": 20.0188,
      "duration": 0.0993,
      "velocity": 88,
      "chip": "ym2612"
    },
    {
      "channel": 3,
      "note": 63,
      "start": 20.0192,
      "duration": 0.1013,
      "velocity": 97,
      "chip": "ym2612"
    },
    {
      "channel": 1,
      "note": 61,
      "start": 20.1184,
      "duration": 0.0017,
      "velocity": 88,
      "chip": "ym2612"
    },
    {
      "channel": 0,
      "note": 67,
      "start": 20.12,
      "duration": 0.0015,
      "velocity": 97,
      "chip": "ym2612"
    },
    {
      "channel": 1,
      "note": 63,
      "start": 20.1204,
      "duration": 0.0014,
      "velocity": 88,
      "chip": "ym2612"
    },
    {
      "channel": 3,
      "note": 60,
      "start": 20.1206,
      "duration": 0.0018,
      "velocity": 97,
      "chip": "ym2612"
    },
    {
      "channel": 0,
      "note": 68,
      "start": 20.1217,
      "duration": 0.2112,
      "velocity": 97,
      "chip": "ym2612"
    },
    {
      "channel": 1,
      "note": 65,
      "start": 20.1222,
      "duration": 0.0018,
      "velocity": 88,
      "chip": "ym2612"
    },
    {
      "channel": 2,
      "note": 80,
      "start": 20.1224,
      "duration": 0.2059,
      "velocity": 94,
      "chip": "ym2612"
    },
    {
      "channel": 3,
      "note": 65,
      "start": 20.1228,
      "duration": 0.2117,
      "velocity": 97,
      "chip": "ym2612"
    },
    {
      "channel": 4,
      "note": 80,
      "start": 20.1231,
      "duration": 0.2056,
      "velocity": 94,
      "chip": "ym2612"
    },
    {
      "channel": 1,
      "note": 65,
      "start": 20.124,
      "duration": 0.0998,
      "velocity": 88,
      "chip": "ym2612"
    },
    {
      "channel": 1,
      "note": 67,
      "start": 20.2242,
      "duration": 0.0014,
      "velocity": 88,
      "chip": "ym2612"
    },
    {
      "channel": 1,
      "note": 67,
      "start": 20.2257,
      "duration": 0.0009,
      "velocity": 88,
      "chip": "ym2612"
    },
    {
      "channel": 1,
      "note": 68,
      "start": 20.2268,
      "duration": 0.001,
      "velocity": 88,
      "chip": "ym2612"
    },
    {
      "channel": 1,
      "note": 68,
      "start": 20.2279,
      "duration": 0.0998,
      "velocity": 88,
      "chip": "ym2612"
    },
    {
      "channel": 1,
      "note": 70,
      "start": 20.3281,
      "duration": 0.0025,
      "velocity": 88,
      "chip": "ym2612"
    },
    {
      "channel": 2,
      "note": 79,
      "start": 20.3285,
      "duration": 0.0055,
      "velocity": 94,
      "chip": "ym2612"
    },
    {
      "channel": 4,
      "note": 79,
      "start": 20.3291,
      "duration": 0.006,
      "velocity": 94,
      "chip": "ym2612"
    },
    {
      "channel": 1,
      "note": 72,
      "start": 20.3308,
      "duration": 0.0026,
      "velocity": 88,
      "chip": "ym2612"
    },
    {
      "channel": 0,
      "note": 62,
      "start": 20.3333,
      "duration": 0.1084,
      "velocity": 97,
      "chip": "ym2612"
    },
    {
      "channel": 1,
      "note": 58,
      "start": 20.3339,
      "duration": 0.0063,
      "velocity": 88,
      "chip": "ym2612"
    },
    {
      "channel": 2,
      "note": 77,
      "start": 20.3344,
      "duration": 0.2213,
      "velocity": 94,
      "chip": "ym2612"
    },
    {
      "channel": 3,
      "note": 65,
      "start": 20.335,
      "duration": 0.1074,
      "velocity": 97,
      "chip": "ym2612"
    },
    {
      "channel": 4,
      "note": 77,
      "start": 20.3355,
      "duration": 0.221,
      "velocity": 94,
      "chip": "ym2612"
    },
    {
      "channel": 1,
      "note": 58,
      "start": 20.3404,
      "duration": 0.0998,
      "velocity": 88,
      "chip": "ym2612"
    },
    {
      "channel": 1,
      "note": 58,
      "start": 20.4403,
      "duration": 0.0018,
      "velocity": 88,
      "chip": "ym2612"
    },
    {
      "channel": 0,
      "note": 63,
      "start": 20.442,
      "duration": 0.1063,
      "velocity": 97,
      "chip": "ym2612"
    },
    {
      "channel": 1,
      "note": 70,
      "start": 20.4423,
      "duration": 0.0013,
      "velocity": 88,
      "chip": "ym2612"
    },
    {
      "channel": 3,
      "note": 68,
      "start": 20.4426,
      "duration": 0.1066,
      "velocity": 97,
      "chip": "ym2612"
    },
    {
      "channel": 1,
      "note": 58,
      "start": 20.4439,
      "duration": 0.0044,
      "velocity": 88,
      "chip": "ym2612"
    },
    {
      "channel": 1,
      "note": 70,
      "start": 20.4486,
      "duration": 0.1001,
      "velocity": 88,
      "chip": "ym2612"
    },
    {
      "channel": 0,
      "note": 65,
      "start": 20.5486,
      "duration": 0.0065,
      "velocity": 97,
      "chip": "ym2612"
    },
    {
      "channel": 1,
      "note": 60,
      "start": 20.549,
      "duration": 0.0049,
      "velocity": 88,
      "chip": "ym2612"
    },
    {
      "channel": 3,
      "note": 70,
      "start": 20.5496,
      "duration": 0.0065,
      "velocity": 97,
      "chip": "ym2612"
    },
    {
      "channel": 1,
      "note": 72,
      "start": 20.5542,
      "duration": 0.0012,
      "velocity": 88,
      "chip": "ym2612"
    },
    {
      "channel": 0,
      "note": 70,
      "start": 20.5553,
      "duration": 0.1037,
      "velocity": 97,
      "chip": "ym2612"
    },
    {
      "channel": 1,
      "note": 61,
      "start": 20.5556,
      "duration": 0.002,
      "velocity": 88,
      "chip": "ym2612"
    },
    {
      "channel": 2,
      "note": 80,
      "start": 20.556,
      "duration": 0.2158,
      "velocity": 94,
      "chip": "ym2612"
    },
    {
      "channel": 3,
      "note": 65,
      "start": 20.5563,
      "duration": 0.1033,
      "velocity": 97,
      "chip": "ym2612"
    },
    {
      "channel": 4,
      "note": 80,
      "start": 20.5567,
      "duration": 0.2162,
      "velocity": 94,
      "chip": "ym2612"
    },
    {
      "channel": 1,
      "note": 61,
      "start": 20.5576,
      "duration": 0.0998,
      "velocity": 88,
      "chip": "ym2612"
    },
    {
      "channel": 1,
      "note": 61,
      "start": 20.6576,
      "duration": 0.0018,
      "velocity": 88,
      "chip": "ym2612"
    },
    {
      "channel": 0,
      "note": 68,
      "start": 20.6593,
      "duration": 0.1062,
      "velocity": 97,
      "chip": "ym2612"
    },
    {
      "channel": 1,
      "note": 73,
      "start": 20.6596,
      "duration": 0.0013,
      "velocity": 88,
      "chip": "ym2612"
    },
    {
      "channel": 3,
      "note": 64,
      "start": 20.66,
      "duration": 0.1063,
      "velocity": 97,
      "chip": "ym2612"
    },
    {
      "channel": 1,
      "note": 61,
      "start": 20.6612,
      "duration": 0.0042,
      "velocity": 88,
      "chip": "ym2612"
    },
    {
      "channel": 1,
      "note": 73,
      "start": 20.6658,
      "duration": 0.1001,
      "velocity": 88,
      "chip": "ym2612"
    },
    {
      "channel": 0,
      "note": 64,
      "start": 20.7657,
      "duration": 0.0049,
      "velocity": 97,
      "chip": "ym2612"
    },
    {
      "channel": 1,
      "note": 62,
      "start": 20.7661,
      "duration": 0.0021,
      "velocity": 88,
      "chip": "ym2612"
    },
    {
      "channel": 3,
      "note": 68,
      "start": 20.7667,
      "duration": 0.0056,
      "velocity": 97,
      "chip": "ym2612"
    },
    {
      "channel": 1,
      "note": 74,
      "start": 20.7686,
      "duration": 0.0027,
      "velocity": 88,
      "chip": "ym2612"
    },
    {
      "channel": 0,
      "note": 63,
      "start": 20.7711,
      "duration": 0.2135,
      "velocity": 97,
      "chip": "ym2612"
    },
    {
      "channel": 1,
      "note": 63,
      "start": 20.7717,
      "duration": 0.0063,
      "velocity": 88,
      "chip": "ym2612"
    },
    {
      "channel": 2,
      "note": 82,
      "start": 20.7722,
      "duration": 0.2132,
      "velocity": 94,
      "chip": "ym2612"
    },
    {
      "channel": 3,
      "note": 70,
      "start": 20.7727,
      "duration": 0.2131,
      "velocity": 97,
      "chip": "ym2612"
    },
    {
      "channel": 4,
      "note": 82,
      "start": 20.7732,
      "duration": 0.2132,
      "velocity": 94,
      "chip": "ym2612"
    },
    {
      "channel": 1,
      "note": 63,
      "start": 20.778,
      "duration": 0.0998,
      "velocity": 88,
      "chip": "ym2612"
    },
    {
      "channel": 1,
      "note": 63,
      "start": 20.878,
      "duration": 0.0014,
      "velocity": 88,
      "chip": "ym2612"
    },
    {
      "channel": 1,
      "note": 75,
      "start": 20.8797,
      "duration": 0.0008,
      "velocity": 88,
      "chip": "ym2612"
    },
    {
      "channel": 1,
      "note": 63,
      "start": 20.8809,
      "duration": 0.0009,
      "velocity": 88,
      "chip": "ym2612"
    },
    {
      "channel": 1,
      "note": 75,
      "start": 20.8821,
      "duration": 0.0998,
      "velocity": 88,
      "chip": "ym2612"
    },
    {
      "channel": 1,
      "note": 61,
      "start": 20.9822,
      "duration": 0.0013,
      "velocity": 88,
      "chip": "ym2612"
    },
    {
      "channel": 1,
      "note": 73,
      "start": 20.9838,
      "duration": 0.0012,
      "velocity": 88,
      "chip": "ym2612"
    },
    {
      "channel": 0,
      "note": 68,
      "start": 20.9849,
      "duration": 0.0036,
      "velocity": 97,
      "chip": "ym2612"
    },
    {
      "channel": 1,
      "note": 72,
      "start": 20.9853,
      "duration": 0.0036,
      "velocity": 88,
      "chip": "ym2612"
    },
    {
      "channel": 2,
      "note": 80,
      "start": 20.9857,
      "duration": 0.0088,
      "velocity": 94,
      "chip": "ym2612"
    },
    {
      "channel": 3,
      "note": 72,
      "start": 20.9863,
      "duration": 0.0029,
      "velocity": 97,
      "chip": "ym2612"
    },
    {
      "channel": 4,
      "note": 77,
      "start": 20.9869,
      "duration": 0.0087,
      "velocity": 94,
      "chip": "ym2612"
    },
    {
      "channel": 0,
      "note": 67,
      "start": 20.9887,
      "duration": 0.0015,
      "velocity": 97,
      "chip": "ym2612"
    },
    {
      "channel": 1,
      "note": 70,
      "start": 20.9891,
      "duration": 0.0016,
      "velocity": 88,
      "chip": "ym2612"
    },
    {
      "channel": 3,
      "note": 70,
      "start": 20.9894,
      "duration": 0.0017,
      "velocity": 97,
      "chip": "ym2612"
    },
    {
      "channel": 0,
      "note": 65,
      "start": 20.9906,
      "duration": 0.003,
      "velocity": 97,
      "chip": "ym2612"
    },
    {
      "channel": 1,
      "note": 68,
      "start": 20.991,
      "duration": 0.0031,
      "velocity": 88,
      "chip": "ym2612"
    },
    {
      "channel": 3,
      "note": 68,
      "start": 20.9913,
      "duration": 0.0037,
      "velocity": 97,
      "chip": "ym2612"
    },
    {
      "channel": 0,
      "note": 70,
      "start": 20.9939,
      "duration": 0.0032,
      "velocity": 97,
      "chip": "ym2612"
    },
    {
      "channel": 1,
      "note": 70,
      "start": 20.9944,
      "duration": 0.0032,
      "velocity": 88,
      "chip": "ym2612"
    },
    {
      "channel": 2,
      "note": 82,
      "start": 20.9949,
      "duration": 0.0083,
      "velocity": 94,
      "chip": "ym2612"
    },
    {
      "channel": 3,
      "note": 70,
      "start": 20.9954,
      "duration": 0.0025,
      "velocity": 97,
      "chip": "ym2612"
    },
    {
      "channel": 4,
      "note": 75,
      "start": 20.9959,
      "duration": 0.0085,
      "velocity": 94,
      "chip": "ym2612"
    },
    {
      "channel": 0,
      "note": 68,
      "start": 20.9976,
      "duration": 0.0016,
      "velocity": 97,
      "chip": "ym2612"
    },
    {
      "channel": 1,
      "note": 68,
      "start": 20.9978,
      "duration": 0.0017,
      "velocity": 88,
      "chip": "ym2612"
    },
    {
      "channel": 3,
      "note": 68,
      "start": 20.9982,
      "duration": 0.0017,
      "velocity": 97,
      "chip": "ym2612"
    },
    {
      "channel": 0,
      "note": 67,
      "start": 20.9995,
      "duration": 0.0028,
      "velocity": 97,
      "chip": "ym2612"
    },
    {
      "channel": 1,
      "note": 67,
      "start": 20.9998,
      "duration": 0.0029,
      "velocity": 88,
      "chip": "ym2612"
    },
    {
      "channel": 3,
      "note": 67,
      "start": 21.0002,
      "duration": 0.0036,
      "velocity": 97,
      "chip": "ym2612"
    },
    {
      "channel": 0,
      "note": 73,
      "start": 21.0026,
      "duration": 0.0074,
      "velocity": 97,
      "chip": "ym2612"
    },
    {
      "channel": 1,
      "note": 68,
      "start": 21.0032,
      "duration": 0.0073,
      "velocity": 88,
      "chip": "ym2612"
    },
    {
      "channel": 2,
      "note": 84,
      "start": 21.0037,
      "duration": 0.0138,
      "velocity": 94,
      "chip": "ym2612"
    },
    {
      "channel": 3,
      "note": 68,
      "start": 21.0042,
      "duration": 0.0068,
      "velocity": 97,
      "chip": "ym2612"
    },
    {
      "channel": 4,
      "note": 72,
      "start": 21.0047,
      "duration": 0.0155,
      "velocity": 94,
      "chip": "ym2612"
    },
    {
      "channel": 0,
      "note": 72,
      "start": 21.0104,
      "duration": 0.0061,
      "velocity": 97,
      "chip": "ym2612"
    },
    {
      "channel": 1,
      "note": 67,
      "start": 21.0109,
      "duration": 0.0061,
      "velocity": 88,
      "chip": "ym2612"
    },
    {
      "channel": 3,
      "note": 67,
      "start": 21.0115,
      "duration": 0.0082,
      "velocity": 97,
      "chip": "ym2612"
    },
    {
      "channel": 0,
      "note": 69,
      "start": 21.017,
      "duration": 0.1116,
      "velocity": 97,
      "chip": "ym2612"
    },
    {
      "channel": 1,
      "note": 66,
      "start": 21.0174,
      "duration": 0.0059,
      "velocity": 88,
      "chip": "ym2612"
    },
    {
      "channel": 2,
      "note": 78,
      "start": 21.0196,
      "duration": 0.0039,
      "velocity": 82,
      "chip": "ym2612"
    },
    {
      "channel": 3,
      "note": 69,
      "start": 21.0201,
      "duration": 0.1096,
      "velocity": 97,
      "chip": "ym2612"
    },
    {
      "channel": 4,
      "note": 66,
      "start": 21.0224,
      "duration": 0.2199,
      "velocity": 77,
      "chip": "ym2612"
    },
    {
      "channel": 1,
      "note": 66,
      "start": 21.0234,
      "duration": 0.1032,
      "velocity": 88,
      "chip": "ym2612"
    },
    {
      "channel": 2,
      "note": 81,
      "start": 21.0237,
      "duration": 0.1031,
      "velocity": 82,
      "chip": "ym2612"
    },
    {
      "channel": 1,
      "note": 66,
      "start": 21.1268,
      "duration": 0.0021,
      "velocity": 88,
      "chip": "ym2612"
    },
    {
      "channel": 2,
      "note": 85,
      "start": 21.1271,
      "duration": 0.0022,
      "velocity": 82,
      "chip": "ym2612"
    },
    {
      "channel": 0,
      "note": 68,
      "start": 21.1289,
      "duration": 0.1073,
      "velocity": 97,
      "chip": "ym2612"
    },
    {
      "channel": 1,
      "note": 78,
      "start": 21.1292,
      "duration": 0.0019,
      "velocity": 88,
      "chip": "ym2612"
    },
    {
      "channel": 2,
      "note": 81,
      "start": 21.1296,
      "duration": 0.002,
      "velocity": 82,
      "chip": "ym2612"
    },
    {
      "channel": 3,
      "note": 68,
      "start": 21.1301,
      "duration": 0.1073,
      "velocity": 97,
      "chip": "ym2612"
    },
    {
      "channel": 1,
      "note": 66,
      "start": 21.1314,
      "duration": 0.0048,
      "velocity": 88,
      "chip": "ym2612"
    },
    {
      "channel": 2,
      "note": 90,
      "start": 21.132,
      "duration": 0.0047,
      "velocity": 82,
      "chip": "ym2612"
    },
    {
      "channel": 1,
      "note": 78,
      "start": 21.1365,
      "duration": 0.1001,
      "velocity": 88,
      "chip": "ym2612"
    },
    {
      "channel": 2,
      "note": 85,
      "start": 21.137,
      "duration": 0.0999,
      "velocity": 82,
      "chip": "ym2612"
    },
    {
      "channel": 0,
      "note": 64,
      "start": 21.2364,
      "duration": 0.0043,
      "velocity": 97,
      "chip": "ym2612"
    },
    {
      "channel": 1,
      "note": 64,
      "start": 21.2368,
      "duration": 0.0025,
      "velocity": 88,
      "chip": "ym2612"
    },
    {
      "channel": 2,
      "note": 90,
      "start": 21.2372,
      "duration": 0.0024,
      "velocity": 82,
      "chip": "ym2612"
    },
    {
      "channel": 3,
      "note": 64,
      "start": 21.2378,
      "duration": 0.0041,
      "velocity": 97,
      "chip": "ym2612"
    },
    {
      "channel": 1,
      "note": 76,
      "start": 21.2396,
      "duration": 0.0016,
      "velocity": 88,
      "chip": "ym2612"
    },
    {
      "channel": 2,
      "note": 85,
      "start": 21.2398,
      "duration": 0.0016,
      "velocity": 82,
      "chip": "ym2612"
    },
    {
      "channel": 0,
      "note": 66,
      "start": 21.2411,
      "duration": 0.1045,
      "velocity": 97,
      "chip": "ym2612"
    },
    {
      "channel": 1,
      "note": 62,
      "start": 21.2413,
      "duration": 0.0022,
      "velocity": 88,
      "chip": "ym2612"
    },
    {
      "channel": 2,
      "note": 74,
      "start": 21.2417,
      "duration": 0.0023,
      "velocity": 82,
      "chip": "ym2612"
    },
    {
      "channel": 3,
      "note": 66,
      "start": 21.2422,
      "duration": 0.1045,
      "velocity": 97,
      "chip": "ym2612"
    },
    {
      "channel": 4,
      "note": 62,
      "start": 21.2426,
      "duration": 0.2159,
      "velocity": 77,
      "chip": "ym2612"
    },
    {
      "channel": 1,
      "note": 62,
      "start": 21.244,
      "duration": 0.0997,
      "velocity": 88,
      "chip": "ym2612"
    },
    {
      "channel": 2,
      "note": 78,
      "start": 21.2443,
      "duration": 0.0996,
      "velocity": 82,
      "chip": "ym2612"
    },
    {
      "channel": 1,
      "note": 62,
      "start": 21.3438,
      "duration": 0.0021,
      "velocity": 88,
      "chip": "ym2612"
    },
    {
      "channel": 2,
      "note": 81,
      "start": 21.3441,
      "duration": 0.0021,
      "velocity": 82,
      "chip": "ym2612"
    },
    {
      "channel": 0,
      "note": 62,
      "start": 21.3459,
      "duration": 0.1092,
      "velocity": 97,
      "chip": "ym2612"
    },
    {
      "channel": 1,
      "note": 74,
      "start": 21.3462,
      "duration": 0.0016,
      "velocity": 88,
      "chip": "ym2612"
    },
    {
      "channel": 2,
      "note": 78,
      "start": 21.3466,
      "duration": 0.0015,
      "velocity": 82,
      "chip": "ym2612"
    },
    {
      "channel": 3,
      "note": 62,
      "start": 21.3469,
      "duration": 0.109,
      "velocity": 97,
      "chip": "ym2612"
    },
    {
      "channel": 1,
      "note": 62,
      "start": 21.3481,
      "duration": 0.0047,
      "velocity": 88,
      "chip": "ym2612"
    },
    {
      "channel": 2,
      "note": 85,
      "start": 21.3485,
      "duration": 0.0046,
      "velocity": 82,
      "chip": "ym2612"
    },
    {
      "channel": 1,
      "note": 74,
      "start": 21.3531,
      "duration": 0.0996,
      "velocity": 88,
      "chip": "ym2612"
    },
    {
      "channel": 2,
      "note": 81,
      "start": 21.3534,
      "duration": 0.0998,
      "velocity": 82,
      "chip": "ym2612"
    },
    {
      "channel": 1,
      "note": 60,
      "start": 21.453,
      "duration": 0.002,
      "velocity": 88,
      "chip": "ym2612"
    },
    {
      "channel": 2,
      "note": 83,
      "start": 21.4535,
      "duration": 0.0019,
      "velocity": 82,
      "chip": "ym2612"
    },
    {
      "channel": 1,
      "note": 72,
      "start": 21.4553,
      "duration": 0.0022,
      "velocity": 88,
      "chip": "ym2612"
    },
    {
      "channel": 2,
      "note": 81,
      "start": 21.4557,
      "duration": 0.0022,
      "velocity": 82,
      "chip": "ym2612"
    },
    {
      "channel": 0,
      "note": 73,
      "start": 21.4575,
      "duration": 0.104,
      "velocity": 97,
      "chip": "ym2612"
    },
    {
      "channel": 1,
      "note": 61,
      "start": 21.4579,
      "duration": 0.0018,
      "velocity": 88,
      "chip": "ym2612"
    },
    {
      "channel": 2,
      "note": 73,
      "start": 21.4582,
      "duration": 0.0016,
      "velocity": 82,
      "chip": "ym2612"
    },
    {
      "channel": 3,
      "note": 73,
      "start": 21.4585,
      "duration": 0.1039,
      "velocity": 97,
      "chip": "ym2612"
    },
    {
      "channel": 4,
      "note": 61,
      "start": 21.4587,
      "duration": 0.2155,
      "velocity": 77,
      "chip": "ym2612"
    },
    {
      "channel": 1,
      "note": 61,
      "start": 21.4598,
      "duration": 0.0997,
      "velocity": 88,
      "chip": "ym2612"
    },
    {
      "channel": 2,
      "note": 76,
      "start": 21.4602,
      "duration": 0.0996,
      "velocity": 82,
      "chip": "ym2612"
    },
    {
      "channel": 1,
      "note": 61,
      "start": 21.5596,
      "duration": 0.0021,
      "velocity": 88,
      "chip": "ym2612"
    },
    {
      "channel": 2,
      "note": 80,
      "start": 21.56,
      "duration": 0.002,
      "velocity": 82,
      "chip": "ym2612"
    },
    {
      "channel": 0,
      "note": 71,
      "start": 21.5617,
      "duration": 0.1065,
      "velocity": 97,
      "chip": "ym2612"
    },
    {
      "channel": 1,
      "note": 61,
      "start": 21.5619,
      "duration": 0.0018,
      "velocity": 88,
      "chip": "ym2612"
    },
    {
      "channel": 2,
      "note": 76,
      "start": 21.5623,
      "duration": 0.0016,
      "velocity": 82,
      "chip": "ym2612"
    },
    {
      "channel": 3,
      "note": 71,
      "start": 21.5628,
      "duration": 0.1067,
      "velocity": 97,
      "chip": "ym2612"
    },
    {
      "channel": 1,
      "note": 61,
      "start": 21.5638,
      "duration": 0.0046,
      "velocity": 88,
      "chip": "ym2612"
    },
    {
      "channel": 2,
      "note": 85,
      "start": 21.5641,
      "duration": 0.0044,
      "velocity": 82,
      "chip": "ym2612"
    },
    {
      "channel": 1,
      "note": 61,
      "start": 21.5685,
      "duration": 0.1,
      "velocity": 88,
      "chip": "ym2612"
    },
    {
      "channel": 2,
      "note": 80,
      "start": 21.5689,
      "duration": 0.1001,
      "velocity": 82,
      "chip": "ym2612"
    },
    {
      "channel": 0,
      "note": 68,
      "start": 21.6685,
      "duration": 0.0044,
      "velocity": 97,
      "chip": "ym2612"
    },
    {
      "channel": 1,
      "note": 62,
      "start": 21.6689,
      "duration": 0.0024,
      "velocity": 88,
      "chip": "ym2612"
    },
    {
      "channel": 2,
      "note": 83,
      "start": 21.6694,
      "duration": 0.0024,
      "velocity": 82,
      "chip": "ym2612"
    },
    {
      "channel": 3,
      "note": 68,
      "start": 21.6699,
      "duration": 0.004,
      "velocity": 97,
      "chip": "ym2612"
    },
    {
      "channel": 1,
      "note": 64,
      "start": 21.6717,
      "duration": 0.0014,
      "velocity": 88,
      "chip": "ym2612"
    },
    {
      "channel": 2,
      "note": 80,
      "start": 21.672,
      "duration": 0.0016,
      "velocity": 82,
      "chip": "ym2612"
    },
    {
      "channel": 0,
      "note": 69,
      "start": 21.6731,
      "duration": 0.1041,
      "velocity": 97,
      "chip": "ym2612"
    },
    {
      "channel": 1,
      "note": 62,
      "start": 21.6735,
      "duration": 0.002,
      "velocity": 88,
      "chip": "ym2612"
    },
    {
      "channel": 2,
      "note": 74,
      "start": 21.6738,
      "duration": 0.0019,
      "velocity": 82,
      "chip": "ym2612"
    },
    {
      "channel": 3,
      "note": 69,
      "start": 21.6742,
      "duration": 0.104,
      "velocity": 97,
      "chip": "ym2612"
    },
    {
      "channel": 4,
      "note": 62,
      "start": 21.6745,
      "duration": 0.2156,
      "velocity": 77,
      "chip": "ym2612"
    },
    {
      "channel": 1,
      "note": 62,
      "start": 21.6756,
      "duration": 0.0995,
      "velocity": 88,
      "chip": "ym2612"
    },
    {
      "channel": 2,
      "note": 78,
      "start": 21.6759,
      "duration": 0.0995,
      "velocity": 82,
      "chip": "ym2612"
    },
    {
      "channel": 1,
      "note": 62,
      "start": 21.7753,
      "duration": 0.0024,
      "velocity": 88,
      "chip": "ym2612"
    },
    {
      "channel": 2,
      "note": 81,
      "start": 21.7757,
      "duration": 0.0023,
      "velocity": 82,
      "chip": "ym2612"
    },
    {
      "channel": 0,
      "note": 71,
      "start": 21.7776,
      "duration": 0.1091,
      "velocity": 97,
      "chip": "ym2612"
    },
    {
      "channel": 1,
      "note": 74,
      "start": 21.7779,
      "duration": 0.0015,
      "velocity": 88,
      "chip": "ym2612"
    },
    {
      "channel": 2,
      "note": 78,
      "start": 21.7782,
      "duration": 0.0016,
      "velocity": 82,
      "chip": "ym2612"
    },
    {
      "channel": 3,
      "note": 71,
      "start": 21.7784,
      "duration": 0.1092,
      "velocity": 97,
      "chip": "ym2612"
    },
    {
      "channel": 1,
      "note": 62,
      "start": 21.7797,
      "duration": 0.0046,
      "velocity": 88,
      "chip": "ym2612"
    },
    {
      "channel": 2,
      "note": 86,
      "start": 21.7801,
      "duration": 0.0046,
      "velocity": 82,
      "chip": "ym2612"
    },
    {
      "channel": 1,
      "note": 74,
      "start": 21.7846,
      "duration": 0.0997,
      "velocity": 88,
      "chip": "ym2612"
    },
    {
      "channel": 2,
      "note": 81,
      "start": 21.7851,
      "duration": 0.0996,
      "velocity": 82,
      "chip": "ym2612"
    },
    {
      "channel": 1,
      "note": 61,
      "start": 21.8846,
      "duration": 0.0022,
      "velocity": 88,
      "chip": "ym2612"
    },
    {
      "channel": 2,
      "note": 86,
      "start": 21.8851,
      "duration": 0.0021,
      "velocity": 82,
      "chip": "ym2612"
    },
    {
      "channel": 1,
      "note": 73,
      "start": 21.8871,
      "duration": 0.0021,
      "velocity": 88,
      "chip": "ym2612"
    },
    {
      "channel": 2,
      "note": 81,
      "start": 21.8875,
      "duration": 0.0021,
      "velocity": 82,
      "chip": "ym2612"
    },
    {
      "channel": 0,
      "note": 66,
      "start": 21.889,
      "duration": 0.1042,
      "velocity": 97,
      "chip": "ym2612"
    },
    {
      "channel": 1,
      "note": 59,
      "start": 21.8895,
      "duration": 0.0019,
      "velocity": 88,
      "chip": "ym2612"
    },
    {
      "channel": 2,
      "note": 75,
      "start": 21.8899,
      "duration": 0.0016,
      "velocity": 82,
      "chip": "ym2612"
    },
    {
      "channel": 3,
      "note": 66,
      "start": 21.8901,
      "duration": 0.1041,
      "velocity": 97,
      "chip": "ym2612"
    },
    {
      "channel": 4,
      "note": 59,
      "start": 21.8904,
      "duration": 0.2166,
      "velocity": 77,
      "chip": "ym2612"
    },
    {
      "channel": 1,
      "note": 59,
      "start": 21.8914,
      "duration": 0.0997,
      "velocity": 88,
      "chip": "ym2612"
    },
    {
      "channel": 2,
      "note": 78,
      "start": 21.8918,
      "duration": 0.0996,
      "velocity": 82,
      "chip": "ym2612"
    },
    {
      "channel": 1,
      "note": 59,
      "start": 21.9913,
      "duration": 0.0022,
      "velocity": 88,
      "chip": "ym2612"
    },
    {
      "channel": 2,
      "note": 83,
      "start": 21.9917,
      "duration": 0.0022,
      "velocity": 82,
      "chip": "ym2612"
    },
    {
      "channel": 0,
      "note": 63,
      "start": 21.9934,
      "duration": 0.1069,
      "velocity": 97,
      "chip": "ym2612"
    },
    {
      "channel": 1,
      "note": 71,
      "start": 21.9939,
      "duration": 0.0017,
      "velocity": 88,
      "chip": "ym2612"
    },
    {
      "channel": 2,
      "note": 78,
      "start": 21.9941,
      "duration": 0.0018,
      "velocity": 82,
      "chip": "ym2612"
    },
    {
      "channel": 3,
      "note": 63,
      "start": 21.9945,
      "duration": 0.1072,
      "velocity": 97,
      "chip": "ym2612"
    },
    {
      "channel": 1,
      "note": 59,
      "start": 21.9959,
      "duration": 0.0045,
      "velocity": 88,
      "chip": "ym2612"
    },
    {
      "channel": 2,
      "note": 87,
      "start": 21.9963,
      "duration": 0.0045,
      "velocity": 82,
      "chip": "ym2612"
    },
    {
      "channel": 1,
      "note": 71,
      "start": 22.0007,
      "duration": 0.1,
      "velocity": 88,
      "chip": "ym2612"
    },
    {
      "channel": 2,
      "note": 83,
      "start": 22.001,
      "duration": 0.1002,
      "velocity": 82,
      "chip": "ym2612"
    },
    {
      "channel": 0,
      "note": 71,
      "start": 22.1005,
      "duration": 0.005,
      "velocity": 97,
      "chip": "ym2612"
    },
    {
      "channel": 1,
      "note": 61,
      "start": 22.1011,
      "duration": 0.0026,
      "velocity": 88,
      "chip": "ym2612"
    },
    {
      "channel": 2,
      "note": 78,
      "start": 22.1016,
      "duration": 0.0026,
      "velocity": 82,
      "chip": "ym2612"
    },
    {
      "channel": 3,
      "note": 71,
      "start": 22.1022,
      "duration": 0.0044,
      "velocity": 97,
      "chip": "ym2612"
    },
    {
      "channel": 1,
      "note": 73,
      "start": 22.1041,
      "duration": 0.0018,
      "velocity": 88,
      "chip": "ym2612"
    },
    {
      "channel": 2,
      "note": 71,
      "start": 22.1046,
      "duration": 0.0017,
      "velocity": 82,
      "chip": "ym2612"
    },
    {
      "channel": 0,
      "note": 69,
      "start": 22.1059,
      "duration": 0.1023,
      "velocity": 97,
      "chip": "ym2612"
    },
    {
      "channel": 1,
      "note": 62,
      "start": 22.1062,
      "duration": 0.002,
      "velocity": 88,
      "chip": "ym2612"
    },
    {
      "channel": 2,
      "note": 74,
      "start": 22.1065,
      "duration": 0.0021,
      "velocity": 82,
      "chip": "ym2612"
    },
    {
      "channel": 3,
      "note": 73,
      "start": 22.1069,
      "duration": 0.1026,
      "velocity": 97,
      "chip": "ym2612"
    },
    {
      "channel": 4,
      "note": 62,
      "start": 22.1072,
      "duration": 0.1071,
      "velocity": 77,
      "chip": "ym2612"
    },
    {
      "channel": 1,
      "note": 62,
      "start": 22.1085,
      "duration": 0.0999,
      "velocity": 88,
      "chip": "ym2612"
    },
    {
      "channel": 2,
      "note": 78,
      "start": 22.1089,
      "duration": 0.1,
      "velocity": 82,
      "chip": "ym2612"
    },
    {
      "channel": 0,
      "note": 68,
      "start": 22.2085,
      "duration": 0.0044,
      "velocity": 97,
      "chip": "ym2612"
    },
    {
      "channel": 1,
      "note": 74,
      "start": 22.2088,
      "duration": 0.0026,
      "velocity": 88,
      "chip": "ym2612"
    },
    {
      "channel": 2,
      "note": 81,
      "start": 22.2094,
      "duration": 0.0023,
      "velocity": 82,
      "chip": "ym2612"
    },
    {
      "channel": 3,
      "note": 71,
      "start": 22.2099,
      "duration": 0.004,
      "velocity": 97,
      "chip": "ym2612"
    },
    {
      "channel": 1,
      "note": 62,
      "start": 22.2117,
      "duration": 0.0015,
      "velocity": 88,
      "chip": "ym2612"
    },
    {
      "channel": 2,
      "note": 86,
      "start": 22.212,
      "duration": 0.0016,
      "velocity": 82,
      "chip": "ym2612"
    },
    {
      "channel": 0,
      "note": 64,
      "start": 22.2131,
      "duration": 0.1058,
      "velocity": 97,
      "chip": "ym2612"
    },
    {
      "channel": 1,
      "note": 64,
      "start": 22.2135,
      "duration": 0.0055,
      "velocity": 88,
      "chip": "ym2612"
    },
    {
      "channel": 2,
      "note": 76,
      "start": 22.2138,
      "duration": 0.0056,
      "velocity": 82,
      "chip": "ym2612"
    },
    {
      "channel": 3,
      "note": 68,
      "start": 22.2141,
      "duration": 0.106,
      "velocity": 97,
      "chip": "ym2612"
    },
    {
      "channel": 4,
      "note": 64,
      "start": 22.2146,
      "duration": 0.1134,
      "velocity": 77,
      "chip": "ym2612"
    },
    {
      "channel": 1,
      "note": 76,
      "start": 22.2193,
      "duration": 0.0999,
      "velocity": 88,
      "chip": "ym2612"
    },
    {
      "channel": 2,
      "note": 80,
      "start": 22.2197,
      "duration": 0.1,
      "velocity": 82,
      "chip": "ym2612"
    },
    {
      "channel": 0,
      "note": 61,
      "start": 22.3192,
      "duration": 0.0072,
      "velocity": 97,
      "chip": "ym2612"
    },
    {
      "channel": 1,
      "note": 64,
      "start": 22.3195,
      "duration": 0.0045,
      "velocity": 88,
      "chip": "ym2612"
    },
    {
      "channel": 2,
      "note": 83,
      "start": 22.32,
      "duration": 0.0045,
      "velocity": 82,
      "chip": "ym2612"
    },
    {
      "channel": 3,
      "note": 64,
      "start": 22.3206,
      "duration": 0.007,
      "velocity": 97,
      "chip": "ym2612"
    },
    {
      "channel": 1,
      "note": 76,
      "start": 22.3245,
      "duration": 0.0024,
      "velocity": 88,
      "chip": "ym2612"
    },
    {
      "channel": 2,
      "note": 88,
      "start": 22.3249,
      "duration": 0.0023,
      "velocity": 82,
      "chip": "ym2612"
    },
    {
      "channel": 0,
      "note": 66,
      "start": 22.3268,
      "duration": 0.2106,
      "velocity": 97,
      "chip": "ym2612"
    },
    {
      "channel": 1,
      "note": 66,
      "start": 22.3272,
      "duration": 0.002,
      "velocity": 88,
      "chip": "ym2612"
    },
    {
      "channel": 2,
      "note": 73,
      "start": 22.3275,
      "duration": 0.0019,
      "velocity": 82,
      "chip": "ym2612"
    },
    {
      "channel": 3,
      "note": 70,
      "start": 22.3278,
      "duration": 0.2109,
      "velocity": 97,
      "chip": "ym2612"
    },
    {
      "channel": 4,
      "note": 70,
      "start": 22.3283,
      "duration": 0.2156,
      "velocity": 77,
      "chip": "ym2612"
    },
    {
      "channel": 1,
      "note": 66,
      "start": 22.3293,
      "duration": 0.0996,
      "velocity": 88,
      "chip": "ym2612"
    },
    {
      "channel": 2,
      "note": 78,
      "start": 22.3295,
      "duration": 0.0995,
      "velocity": 82,
      "chip": "ym2612"
    },
    {
      "channel": 1,
      "note": 66,
      "start": 22.429,
      "duration": 0.002,
      "velocity": 88,
      "chip": "ym2612"
    },
    {
      "channel": 2,
      "note": 82,
      "start": 22.4294,
      "duration": 0.0019,
      "velocity": 82,
      "chip": "ym2612"
    },
    {
      "channel": 1,
      "note": 78,
      "start": 22.4313,
      "duration": 0.0012,
      "velocity": 88,
      "chip": "ym2612"
    },
    {
      "channel": 2,
      "note": 85,
      "start": 22.4315,
      "duration": 0.0013,
      "velocity": 82,
      "chip": "ym2612"
    },
    {
      "channel": 1,
      "note": 76,
      "start": 22.4327,
      "duration": 0.0048,
      "velocity": 88,
      "chip": "ym2612"
    },
    {
      "channel": 2,
      "note": 82,
      "start": 22.4331,
      "duration": 0.0047,
      "velocity": 82,
      "chip": "ym2612"
    },
    {
      "channel": 1,
      "note": 73,
      "start": 22.4377,
      "duration": 0.1,
      "velocity": 88,
      "chip": "ym2612"
    },
    {
      "channel": 2,
      "note": 85,
      "start": 22.4381,
      "duration": 0.1,
      "velocity": 82,
      "chip": "ym2612"
    },
    {
      "channel": 0,
      "note": 73,
      "start": 22.5377,
      "duration": 0.0047,
      "velocity": 97,
      "chip": "ym2612"
    },
    {
      "channel": 1,
      "note": 69,
      "start": 22.5381,
      "duration": 0.0026,
      "velocity": 88,
      "chip": "ym2612"
    },
    {
      "channel": 2,
      "note": 90,
      "start": 22.5386,
      "duration": 0.0025,
      "velocity": 82,
      "chip": "ym2612"
    },
    {
      "channel": 3,
      "note": 66,
      "start": 22.5392,
      "duration": 0.0043,
      "velocity": 97,
      "chip": "ym2612"
    },
    {
      "channel": 1,
      "note": 68,
      "start": 22.541,
      "duration": 0.0017,
      "velocity": 88,
      "chip": "ym2612"
    },
    {
      "channel": 2,
      "note": 94,
      "start": 22.5414,
      "duration": 0.0017,
      "velocity": 82,
      "chip": "ym2612"
    },
    {
      "channel": 0,
      "note": 71,
      "start": 22.5427,
      "duration": 0.0064,
      "velocity": 97,
      "chip": "ym2612"
    },
    {
      "channel": 1,
      "note": 66,
      "start": 22.543,
      "duration": 0.0029,
      "velocity": 88,
      "chip": "ym2612"
    },
    {
      "channel": 2,
      "note": 90,
      "start": 22.5434,
      "duration": 0.0012,
      "velocity": 82,
      "chip": "ym2612"
    },
    {
      "channel": 3,
      "note": 61,
      "start": 22.5438,
      "duration": 0.0063,
      "velocity": 97,
      "chip": "ym2612"
    },
    {
      "channel": 4,
      "note": 66,
      "start": 22.5441,
      "duration": 0.001,
      "velocity": 77,
      "chip": "ym2612"
    },
    {
      "channel": 2,
      "note": 89,
      "start": 22.545,
      "duration": 0.0011,
      "velocity": 82,
      "chip": "ym2612"
    },
    {
      "channel": 4,
      "note": 68,
      "start": 22.5454,
      "duration": 0.0012,
      "velocity": 77,
      "chip": "ym2612"
    },
    {
      "channel": 1,
      "note": 66,
      "start": 22.546,
      "duration": 0.0034,
      "velocity": 88,
      "chip": "ym2612"
    },
    {
      "channel": 2,
      "note": 87,
      "start": 22.5465,
      "duration": 0.0015,
      "velocity": 82,
      "chip": "ym2612"
    },
    {
      "channel": 4,
      "note": 70,
      "start": 22.5471,
      "duration": 0.0012,
      "velocity": 77,
      "chip": "ym2612"
    },
    {
      "channel": 2,
      "note": 85,
      "start": 22.5482,
      "duration": 0.0015,
      "velocity": 82,
      "chip": "ym2612"
    },
    {
      "channel": 4,
      "note": 71,
      "start": 22.5485,
      "duration": 0.0019,
      "velocity": 77,
      "chip": "ym2612"
    },
    {
      "channel": 0,
      "note": 70,
      "start": 22.5494,
      "duration": 0.0128,
      "velocity": 97,
      "chip": "ym2612"
    },
    {
      "channel": 1,
      "note": 66,
      "start": 22.5495,
      "duration": 0.0066,
      "velocity": 88,
      "chip": "ym2612"
    },
    {
      "channel": 2,
      "note": 89,
      "start": 22.5499,
      "duration": 0.0044,
      "velocity": 82,
      "chip": "ym2612"
    },
    {
      "channel": 3,
      "note": 66,
      "start": 22.5503,
      "duration": 0.013,
      "velocity": 97,
      "chip": "ym2612"
    },
    {
      "channel": 4,
      "note": 68,
      "start": 22.5509,
      "duration": 0.0039,
      "velocity": 77,
      "chip": "ym2612"
    },
    {
      "channel": 2,
      "note": 87,
      "start": 22.5547,
      "duration": 0.0018,
      "velocity": 82,
      "chip": "ym2612"
    },
    {
      "channel": 4,
      "note": 70,
      "start": 22.5552,
      "duration": 0.0017,
      "velocity": 77,
      "chip": "ym2612"
    },
    {
      "channel": 1,
      "note": 78,
      "start": 22.5565,
      "duration": 0.0061,
      "velocity": 88,
      "chip": "ym2612"
    },
    {
      "channel": 2,
      "note": 85,
      "start": 22.5568,
      "duration": 0.0011,
      "velocity": 82,
      "chip": "ym2612"
    },
    {
      "channel": 4,
      "note": 71,
      "start": 22.5572,
      "duration": 0.0008,
      "velocity": 77,
      "chip": "ym2612"
    },
    {
      "channel": 2,
      "note": 83,
      "start": 22.558,
      "duration": 0.005,
      "velocity": 82,
      "chip": "ym2612"
    },
    {
      "channel": 4,
      "note": 73,
      "start": 22.5584,
      "duration": 0.0054,
      "velocity": 77,
      "chip": "ym2612"
    },
    {
      "channel": 0,
      "note": 66,
      "start": 22.5625,
      "duration": 0.0088,
      "velocity": 97,
      "chip": "ym2612"
    },
    {
      "channel": 1,
      "note": 66,
      "start": 22.5629,
      "duration": 0.0063,
      "velocity": 88,
      "chip": "ym2612"
    },
    {
      "channel": 2,
      "note": 87,
      "start": 22.5632,
      "duration": 0.0041,
      "velocity": 82,
      "chip": "ym2612"
    },
    {
      "channel": 3,
      "note": 70,
      "start": 22.5637,
      "duration": 0.0086,
      "velocity": 97,
      "chip": "ym2612"
    },
    {
      "channel": 4,
      "note": 70,
      "start": 22.5642,
      "duration": 0.0036,
      "velocity": 77,
      "chip": "ym2612"
    },
    {
      "channel": 2,
      "note": 85,
      "start": 22.5678,
      "duration": 0.0018,
      "velocity": 82,
      "chip": "ym2612"
    },
    {
      "channel": 4,
      "note": 71,
      "start": 22.5683,
      "duration": 0.0016,
      "velocity": 77,
      "chip": "ym2612"
    },
    {
      "channel": 1,
      "note": 78,
      "start": 22.5695,
      "duration": 0.0021,
      "velocity": 88,
      "chip": "ym2612"
    },
    {
      "channel": 2,
      "note": 83,
      "start": 22.5698,
      "duration": 0.0008,
      "velocity": 82,
      "chip": "ym2612"
    },
    {
      "channel": 4,
      "note": 73,
      "start": 22.5702,
      "duration": 0.0005,
      "velocity": 77,
      "chip": "ym2612"
    },
    {
      "channel": 2,
      "note": 82,
      "start": 22.5707,
      "duration": 0.0013,
      "velocity": 82,
      "chip": "ym2612"
    },
    {
      "channel": 4,
      "note": 75,
      "start": 22.571,
      "duration": 0.0016,
      "velocity": 77,
      "chip": "ym2612"
    },
    {
      "channel": 0,
      "note": 61,
      "start": 22.5715,
      "duration": 0.0051,
      "velocity": 97,
      "chip": "ym2612"
    },
    {
      "channel": 1,
      "note": 64,
      "start": 22.5719,
      "duration": 0.0022,
      "velocity": 88,
      "chip": "ym2612"
    },
    {
      "channel": 2,
      "note": 85,
      "start": 22.5722,
      "duration": 0.0009,
      "velocity": 82,
      "chip": "ym2612"
    },
    {
      "channel": 3,
      "note": 73,
      "start": 22.5726,
      "duration": 0.0053,
      "velocity": 97,
      "chip": "ym2612"
    },
    {
      "channel": 4,
      "note": 71,
      "start": 22.5728,
      "duration": 0.0006,
      "velocity": 77,
      "chip": "ym2612"
    },
    {
      "channel": 2,
      "note": 83,
      "start": 22.5733,
      "duration": 0.001,
      "velocity": 82,
      "chip": "ym2612"
    },
    {
      "channel": 4,
      "note": 73,
      "start": 22.5737,
      "duration": 0.0009,
      "velocity": 77,
      "chip": "ym2612"
    },
    {
      "channel": 1,
      "note": 76,
      "start": 22.5743,
      "duration": 0.0028,
      "velocity": 88,
      "chip": "ym2612"
    },
    {
      "channel": 2,
      "note": 82,
      "start": 22.5746,
      "duration": 0.001,
      "velocity": 82,
      "chip": "ym2612"
    },
    {
      "channel": 4,
      "note": 75,
      "start": 22.5748,
      "duration": 0.0009,
      "velocity": 77,
      "chip": "ym2612"
    },
    {
      "channel": 2,
      "note": 80,
      "start": 22.5757,
      "duration": 0.0019,
      "velocity": 82,
      "chip": "ym2612"
    },
    {
      "channel": 4,
      "note": 77,
      "start": 22.5761,
      "duration": 0.0021,
      "velocity": 77,
      "chip": "ym2612"
    },
    {
      "channel": 0,
      "note": 66,
      "start": 22.577,
      "duration": 0.0055,
      "velocity": 97,
      "chip": "ym2612"
    },
    {
      "channel": 1,
      "note": 62,
      "start": 22.5774,
      "duration": 0.0054,
      "velocity": 88,
      "chip": "ym2612"
    },
    {
      "channel": 2,
      "note": 74,
      "start": 22.5778,
      "duration": 0.0053,
      "velocity": 82,
      "chip": "ym2612"
    },
    {
      "channel": 3,
      "note": 73,
      "start": 22.578,
      "duration": 0.0056,
      "velocity": 97,
      "chip": "ym2612"
    },
    {
      "channel": 4,
      "note": 78,
      "start": 22.5784,
      "duration": 0.3232,
      "velocity": 77,
      "chip": "ym2612"
    },
    {
      "channel": 0,
      "note": 62,
      "start": 22.5828,
      "duration": 0.0992,
      "velocity": 97,
      "chip": "ym2612"
    },
    {
      "channel": 1,
      "note": 62,
      "start": 22.583,
      "duration": 0.0994,
      "velocity": 88,
      "chip": "ym2612"
    },
    {
      "channel": 2,
      "note": 78,
      "start": 22.5835,
      "duration": 0.0992,
      "velocity": 82,
      "chip": "ym2612"
    },
    {
      "channel": 3,
      "note": 73,
      "start": 22.5837,
      "duration": 0.0996,
      "velocity": 97,
      "chip": "ym2612"
    },
    {
      "channel": 0,
      "note": 64,
      "start": 22.6823,
      "duration": 0.0027,
      "velocity": 97,
      "chip": "ym2612"
    },
    {
      "channel": 1,
      "note": 62,
      "start": 22.6825,
      "duration": 0.0029,
      "velocity": 88,
      "chip": "ym2612"
    },
    {
      "channel": 2,
      "note": 81,
      "start": 22.6831,
      "duration": 0.0027,
      "velocity": 82,
      "chip": "ym2612"
    },
    {
      "channel": 3,
      "note": 73,
      "start": 22.6836,
      "duration": 0.0025,
      "velocity": 97,
      "chip": "ym2612"
    },
    {
      "channel": 0,
      "note": 66,
      "start": 22.6853,
      "duration": 0.0018,
      "velocity": 97,
      "chip": "ym2612"
    },
    {
      "channel": 1,
      "note": 74,
      "start": 22.6857,
      "duration": 0.0016,
      "velocity": 88,
      "chip": "ym2612"
    },
    {
      "channel": 2,
      "note": 78,
      "start": 22.6861,
      "duration": 0.0016,
      "velocity": 82,
      "chip": "ym2612"
    },
    {
      "channel": 3,
      "note": 73,
      "start": 22.6862,
      "duration": 0.0019,
      "velocity": 97,
      "chip": "ym2612"
    },
    {
      "channel": 1,
      "note": 62,
      "start": 22.6875,
      "duration": 0.0017,
      "velocity": 88,
      "chip": "ym2612"
    },
    {
      "channel": 2,
      "note": 85,
      "start": 22.6879,
      "duration": 0.0017,
      "velocity": 82,
      "chip": "ym2612"
    },
    {
      "channel": 0,
      "note": 69,
      "start": 22.6892,
      "duration": 0.0991,
      "velocity": 97,
      "chip": "ym2612"
    },
    {
      "channel": 1,
      "note": 74,
      "start": 22.6896,
      "duration": 0.0987,
      "velocity": 88,
      "chip": "ym2612"
    },
    {
      "channel": 2,
      "note": 78,
      "start": 22.69,
      "duration": 0.0987,
      "velocity": 82,
      "chip": "ym2612"
    },
    {
      "channel": 3,
      "note": 73,
      "start": 22.69,
      "duration": 0.0991,
      "velocity": 97,
      "chip": "ym2612"
    },
    {
      "channel": 1,
      "note": 62,
      "start": 22.7885,
      "duration": 0.0051,
      "velocity": 88,
      "chip": "ym2612"
    },
    {
      "channel": 2,
      "note": 81,
      "start": 22.7891,
      "duration": 0.005,
      "velocity": 82,
      "chip": "ym2612"
    },
    {
      "channel": 0,
      "note": 68,
      "start": 22.7936,
      "duration": 0.2166,
      "velocity": 97,
      "chip": "ym2612"
    },
    {
      "channel": 1,
      "note": 74,
      "start": 22.7939,
      "duration": 0.0016,
      "velocity": 88,
      "chip": "ym2612"
    },
    {
      "channel": 2,
      "note": 78,
      "start": 22.7944,
      "duration": 0.0016,
      "velocity": 82,
      "chip": "ym2612"
    },
    {
      "channel": 3,
      "note": 71,
      "start": 22.7947,
      "duration": 0.2167,
      "velocity": 97,
      "chip": "ym2612"
    },
    {
      "channel": 1,
      "note": 62,
      "start": 22.7959,
      "duration": 0.0013,
      "velocity": 88,
      "chip": "ym2612"
    },
    {
      "channel": 2,
      "note": 74,
      "start": 22.7963,
      "duration": 0.0011,
      "velocity": 82,
      "chip": "ym2612"
    },
    {
      "channel": 1,
      "note": 62,
      "start": 22.7973,
      "duration": 0.0997,
      "velocity": 88,
      "chip": "ym2612"
    },
    {
      "channel": 2,
      "note": 78,
      "start": 22.7978,
      "duration": 0.0996,
      "velocity": 82,
      "chip": "ym2612"
    },
    {
      "channel": 1,
      "note": 62,
      "start": 22.8972,
      "duration": 0.0019,
      "velocity": 88,
      "chip": "ym2612"
    },
    {
      "channel": 2,
      "note": 81,
      "start": 22.8976,
      "duration": 0.002,
      "velocity": 82,
      "chip": "ym2612"
    },
    {
      "channel": 1,
      "note": 74,
      "start": 22.8995,
      "duration": 0.0014,
      "velocity": 88,
      "chip": "ym2612"
    },
    {
      "channel": 2,
      "note": 78,
      "start": 22.8999,
      "duration": 0.0013,
      "velocity": 82,
      "chip": "ym2612"
    },
    {
      "channel": 1,
      "note": 62,
      "start": 22.9012,
      "duration": 0.0019,
      "velocity": 88,
      "chip": "ym2612"
    },
    {
      "channel": 2,
      "note": 83,
      "start": 22.9015,
      "duration": 0.0018,
      "velocity": 82,
      "chip": "ym2612"
    },
    {
      "channel": 4,
      "note": 78,
      "start": 22.9019,
      "duration": 0.0004,
      "velocity": 77,
      "chip": "ym2612"
    },
    {
      "channel": 4,
      "note": 76,
      "start": 22.9025,
      "duration": 0.0013,
      "velocity": 77,
      "chip": "ym2612"
    },
    {
      "channel": 1,
      "note": 74,
      "start": 22.9033,
      "duration": 0.0999,
      "velocity": 88,
      "chip": "ym2612"
    },
    {
      "channel": 2,
      "note": 78,
      "start": 22.9037,
      "duration": 0.0999,
      "velocity": 82,
      "chip": "ym2612"
    },
    {
      "channel": 4,
      "note": 74,
      "start": 22.904,
      "duration": 0.0979,
      "velocity": 77,
      "chip": "ym2612"
    },
    {
      "channel": 4,
      "note": 73,
      "start": 23.0023,
      "duration": 0.0018,
      "velocity": 77,
      "chip": "ym2612"
    },
    {
      "channel": 1,
      "note": 60,
      "start": 23.0035,
      "duration": 0.0028,
      "velocity": 88,
      "chip": "ym2612"
    },
    {
      "channel": 2,
      "note": 81,
      "start": 23.0039,
      "duration": 0.0028,
      "velocity": 82,
      "chip": "ym2612"
    },
    {
      "channel": 4,
      "note": 76,
      "start": 23.0044,
      "duration": 0.001,
      "velocity": 77,
      "chip": "ym2612"
    },
    {
      "channel": 4,
      "note": 74,
      "start": 23.0057,
      "duration": 0.0014,
      "velocity": 77,
      "chip": "ym2612"
    },
    {
      "channel": 1,
      "note": 72,
      "start": 23.0066,
      "duration": 0.0039,
      "velocity": 88,
      "chip": "ym2612"
    },
    {
      "channel": 2,
      "note": 78,
      "start": 23.0071,
      "duration": 0.0039,
      "velocity": 82,
      "chip": "ym2612"
    },
    {
      "channel": 4,
      "note": 73,
      "start": 23.0075,
      "duration": 0.0009,
      "velocity": 77,
      "chip": "ym2612"
    },
    {
      "channel": 4,
      "note": 71,
      "start": 23.0087,
      "duration": 0.0029,
      "velocity": 77,
      "chip": "ym2612"
    },
    {
      "channel": 0,
      "note": 64,
      "start": 23.0104,
      "duration": 0.0026,
      "velocity": 97,
      "chip": "ym2612"
    },
    {
      "channel": 1,
      "note": 61,
      "start": 23.0108,
      "duration": 0.0024,
      "velocity": 88,
      "chip": "ym2612"
    },
    {
      "channel": 2,
      "note": 73,
      "start": 23.0112,
      "duration": 0.0023,
      "velocity": 82,
      "chip": "ym2612"
    },
    {
      "channel": 3,
      "note": 73,
      "start": 23.0116,
      "duration": 0.0025,
      "velocity": 97,
      "chip": "ym2612"
    },
    {
      "channel": 4,
      "note": 73,
      "start": 23.0119,
      "duration": 0.1067,
      "velocity": 77,
      "chip": "ym2612"
    },
    {
      "channel": 0,
      "note": 61,
      "start": 23.0132,
      "duration": 0.0995,
      "velocity": 97,
      "chip": "ym2612"
    },
    {
      "channel": 1,
      "note": 61,
      "start": 23.0134,
      "duration": 0.0996,
      "velocity": 88,
      "chip": "ym2612"
    },
    {
      "channel": 2,
      "note": 76,
      "start": 23.0139,
      "duration": 0.0994,
      "velocity": 82,
      "chip": "ym2612"
    },
    {
      "channel": 3,
      "note": 71,
      "start": 23.0144,
      "duration": 0.0996,
      "velocity": 97,
      "chip": "ym2612"
    },
    {
      "channel": 0,
      "note": 62,
      "start": 23.113,
      "duration": 0.0027,
      "velocity": 97,
      "chip": "ym2612"
    },
    {
      "channel": 1,
      "note": 61,
      "start": 23.1132,
      "duration": 0.0028,
      "velocity": 88,
      "chip": "ym2612"
    },
    {
      "channel": 2,
      "note": 80,
      "start": 23.1138,
      "duration": 0.0026,
      "velocity": 82,
      "chip": "ym2612"
    },
    {
      "channel": 3,
      "note": 69,
      "start": 23.1143,
      "duration": 0.0024,
      "velocity": 97,
      "chip": "ym2612"
    },
    {
      "channel": 0,
      "note": 71,
      "start": 23.116,
      "duration": 0.0036,
      "velocity": 97,
      "chip": "ym2612"
    },
    {
      "channel": 1,
      "note": 61,
      "start": 23.1162,
      "duration": 0.0017,
      "velocity": 88,
      "chip": "ym2612"
    },
    {
      "channel": 2,
      "note": 76,
      "start": 23.1166,
      "duration": 0.0016,
      "velocity": 82,
      "chip": "ym2612"
    },
    {
      "channel": 3,
      "note": 68,
      "start": 23.117,
      "duration": 0.0035,
      "velocity": 97,
      "chip": "ym2612"
    },
    {
      "channel": 1,
      "note": 61,
      "start": 23.1181,
      "duration": 0.002,
      "velocity": 88,
      "chip": "ym2612"
    },
    {
      "channel": 2,
      "note": 83,
      "start": 23.1185,
      "duration": 0.0017,
      "velocity": 82,
      "chip": "ym2612"
    },
    {
      "channel": 4,
      "note": 71,
      "start": 23.1188,
      "duration": 0.1098,
      "velocity": 77,
      "chip": "ym2612"
    },
    {
      "channel": 0,
      "note": 69,
      "start": 23.1199,
      "duration": 0.1049,
      "velocity": 97,
      "chip": "ym2612"
    },
    {
      "channel": 1,
      "note": 61,
      "start": 23.1201,
      "duration": 0.0991,
      "velocity": 88,
      "chip": "ym2612"
    },
    {
      "channel": 2,
      "note": 76,
      "start": 23.1205,
      "duration": 0.0992,
      "velocity": 82,
      "chip": "ym2612"
    },
    {
      "channel": 3,
      "note": 64,
      "start": 23.1208,
      "duration": 0.1051,
      "velocity": 97,
      "chip": "ym2612"
    },
    {
      "channel": 1,
      "note": 62,
      "start": 23.2195,
      "duration": 0.0056,
      "velocity": 88,
      "chip": "ym2612"
    },
    {
      "channel": 2,
      "note": 80,
      "start": 23.2199,
      "duration": 0.0057,
      "velocity": 82,
      "chip": "ym2612"
    },
    {
      "channel": 0,
      "note": 68,
      "start": 23.2252,
      "duration": 0.0021,
      "velocity": 97,
      "chip": "ym2612"
    },
    {
      "channel": 1,
      "note": 64,
      "start": 23.2254,
      "duration": 0.0021,
      "velocity": 88,
      "chip": "ym2612"
    },
    {
      "channel": 2,
      "note": 76,
      "start": 23.2259,
      "duration": 0.0021,
      "velocity": 82,
      "chip": "ym2612"
    },
    {
      "channel": 3,
      "note": 61,
      "start": 23.2263,
      "duration": 0.0019,
      "velocity": 97,
      "chip": "ym2612"
    },
    {
      "channel": 0,
      "note": 69,
      "start": 23.2275,
      "duration": 0.2149,
      "velocity": 97,
      "chip": "ym2612"
    },
    {
      "channel": 1,
      "note": 66,
      "start": 23.2279,
      "duration": 0.0018,
      "velocity": 88,
      "chip": "ym2612"
    },
    {
      "channel": 2,
      "note": 73,
      "start": 23.2282,
      "duration": 0.0016,
      "velocity": 82,
      "chip": "ym2612"
    },
    {
      "channel": 3,
      "note": 66,
      "start": 23.2285,
      "duration": 0.2149,
      "velocity": 97,
      "chip": "ym2612"
    },
    {
      "channel": 4,
      "note": 69,
      "start": 23.2288,
      "duration": 0.2099,
      "velocity": 77,
      "chip": "ym2612"
    },
    {
      "channel": 1,
      "note": 66,
      "start": 23.2297,
      "duration": 0.0997,
      "velocity": 88,
      "chip": "ym2612"
    },
    {
      "channel": 2,
      "note": 78,
      "start": 23.2301,
      "duration": 0.0998,
      "velocity": 82,
      "chip": "ym2612"
    },
    {
      "channel": 1,
      "note": 68,
      "start": 23.3297,
      "duration": 0.0021,
      "velocity": 88,
      "chip": "ym2612"
    },
    {
      "channel": 2,
      "note": 81,
      "start": 23.3303,
      "duration": 0.0017,
      "velocity": 82,
      "chip": "ym2612"
    },
    {
      "channel": 1,
      "note": 68,
      "start": 23.332,
      "duration": 0.0011,
      "velocity": 88,
      "chip": "ym2612"
    },
    {
      "channel": 2,
      "note": 85,
      "start": 23.3322,
      "duration": 0.0012,
      "velocity": 82,
      "chip": "ym2612"
    },
    {
      "channel": 1,
      "note": 69,
      "start": 23.3333,
      "duration": 0.0047,
      "velocity": 88,
      "chip": "ym2612"
    },
    {
      "channel": 2,
      "note": 90,
      "start": 23.3337,
      "duration": 0.0045,
      "velocity": 82,
      "chip": "ym2612"
    },
    {
      "channel": 1,
      "note": 69,
      "start": 23.3381,
      "duration": 0.0997,
      "velocity": 88,
      "chip": "ym2612"
    },
    {
      "channel": 2,
      "note": 85,
      "start": 23.3385,
      "duration": 0.0997,
      "velocity": 82,
      "chip": "ym2612"
    },
    {
      "channel": 1,
      "note": 71,
      "start": 23.4382,
      "duration": 0.0022,
      "velocity": 88,
      "chip": "ym2612"
    },
    {
      "channel": 2,
      "note": 81,
      "start": 23.4385,
      "duration": 0.0023,
      "velocity": 82,
      "chip": "ym2612"
    },
    {
      "channel": 4,
      "note": 68,
      "start": 23.439,
      "duration": 0.0046,
      "velocity": 77,
      "chip": "ym2612"
    },
    {
      "channel": 1,
      "note": 73,
      "start": 23.4408,
      "duration": 0.002,
      "velocity": 88,
      "chip": "ym2612"
    },
    {
      "channel": 2,
      "note": 78,
      "start": 23.4412,
      "duration": 0.002,
      "velocity": 82,
      "chip": "ym2612"
    },
    {
      "channel": 0,
      "note": 63,
      "start": 23.4427,
      "duration": 0.1041,
      "velocity": 97,
      "chip": "ym2612"
    },
    {
      "channel": 1,
      "note": 59,
      "start": 23.443,
      "duration": 0.0019,
      "velocity": 88,
      "chip": "ym2612"
    },
    {
      "channel": 2,
      "note": 75,
      "start": 23.4434,
      "duration": 0.0017,
      "velocity": 82,
      "chip": "ym2612"
    },
    {
      "channel": 3,
      "note": 66,
      "start": 23.4435,
      "duration": 0.1043,
      "velocity": 97,
      "chip": "ym2612"
    },
    {
      "channel": 4,
      "note": 66,
      "start": 23.4439,
      "duration": 0.216,
      "velocity": 77,
      "chip": "ym2612"
    },
    {
      "channel": 1,
      "note": 59,
      "start": 23.445,
      "duration": 0.0997,
      "velocity": 88,
      "chip": "ym2612"
    },
    {
      "channel": 2,
      "note": 78,
      "start": 23.4454,
      "duration": 0.0996,
      "velocity": 82,
      "chip": "ym2612"
    },
    {
      "channel": 1,
      "note": 59,
      "start": 23.5449,
      "duration": 0.0022,
      "velocity": 88,
      "chip": "ym2612"
    },
    {
      "channel": 2,
      "note": 83,
      "start": 23.5453,
      "duration": 0.0022,
      "velocity": 82,
      "chip": "ym2612"
    },
    {
      "channel": 0,
      "note": 64,
      "start": 23.5471,
      "duration": 0.1068,
      "velocity": 97,
      "chip": "ym2612"
    },
    {
      "channel": 1,
      "note": 71,
      "start": 23.5475,
      "duration": 0.0016,
      "velocity": 88,
      "chip": "ym2612"
    },
    {
      "channel": 2,
      "note": 78,
      "start": 23.5477,
      "duration": 0.0017,
      "velocity": 82,
      "chip": "ym2612"
    },
    {
      "channel": 3,
      "note": 69,
      "start": 23.5481,
      "duration": 0.1071,
      "velocity": 97,
      "chip": "ym2612"
    },
    {
      "channel": 1,
      "note": 59,
      "start": 23.5494,
      "duration": 0.0045,
      "velocity": 88,
      "chip": "ym2612"
    },
    {
      "channel": 2,
      "note": 87,
      "start": 23.5498,
      "duration": 0.0045,
      "velocity": 82,
      "chip": "ym2612"
    },
    {
      "channel": 1,
      "note": 71,
      "start": 23.5542,
      "duration": 0.1,
      "velocity": 88,
      "chip": "ym2612"
    },
    {
      "channel": 2,
      "note": 78,
      "start": 23.5546,
      "duration": 0.1,
      "velocity": 82,
      "chip": "ym2612"
    },
    {
      "channel": 0,
      "note": 66,
      "start": 23.6541,
      "duration": 0.0045,
      "velocity": 97,
      "chip": "ym2612"
    },
    {
      "channel": 1,
      "note": 61,
      "start": 23.6545,
      "duration": 0.0025,
      "velocity": 88,
      "chip": "ym2612"
    },
    {
      "channel": 2,
      "note": 83,
      "start": 23.6551,
      "duration": 0.0024,
      "velocity": 82,
      "chip": "ym2612"
    },
    {
      "channel": 3,
      "note": 71,
      "start": 23.6555,
      "duration": 0.004,
      "velocity": 97,
      "chip": "ym2612"
    },
    {
      "channel": 1,
      "note": 73,
      "start": 23.6573,
      "duration": 0.0016,
      "velocity": 88,
      "chip": "ym2612"
    },
    {
      "channel": 2,
      "note": 78,
      "start": 23.6577,
      "duration": 0.0015,
      "velocity": 82,
      "chip": "ym2612"
    },
    {
      "channel": 0,
      "note": 71,
      "start": 23.6588,
      "duration": 0.1041,
      "velocity": 97,
      "chip": "ym2612"
    },
    {
      "channel": 1,
      "note": 62,
      "start": 23.6592,
      "duration": 0.002,
      "velocity": 88,
      "chip": "ym2612"
    },
    {
      "channel": 2,
      "note": 74,
      "start": 23.6595,
      "duration": 0.0019,
      "velocity": 82,
      "chip": "ym2612"
    },
    {
      "channel": 3,
      "note": 66,
      "start": 23.6599,
      "duration": 0.1041,
      "velocity": 97,
      "chip": "ym2612"
    },
    {
      "channel": 4,
      "note": 69,
      "start": 23.6603,
      "duration": 0.216,
      "velocity": 77,
      "chip": "ym2612"
    },
    {
      "channel": 1,
      "note": 62,
      "start": 23.6613,
      "duration": 0.0995,
      "velocity": 88,
      "chip": "ym2612"
    },
    {
      "channel": 2,
      "note": 78,
      "start": 23.6615,
      "duration": 0.0995,
      "velocity": 82,
      "chip": "ym2612"
    },
    {
      "channel": 1,
      "note": 62,
      "start": 23.761,
      "duration": 0.0022,
      "velocity": 88,
      "chip": "ym2612"
    },
    {
      "channel": 2,
      "note": 81,
      "start": 23.7614,
      "duration": 0.0022,
      "velocity": 82,
      "chip": "ym2612"
    },
    {
      "channel": 0,
      "note": 69,
      "start": 23.7632,
      "duration": 0.1068,
      "velocity": 97,
      "chip": "ym2612"
    },
    {
      "channel": 1,
      "note": 74,
      "start": 23.7635,
      "duration": 0.0017,
      "velocity": 88,
      "chip": "ym2612"
    },
    {
      "channel": 2,
      "note": 78,
      "start": 23.7639,
      "duration": 0.0016,
      "velocity": 82,
      "chip": "ym2612"
    },
    {
      "channel": 3,
      "note": 65,
      "start": 23.7643,
      "duration": 0.1069,
      "velocity": 97,
      "chip": "ym2612"
    },
    {
      "channel": 1,
      "note": 62,
      "start": 23.7655,
      "duration": 0.0045,
      "velocity": 88,
      "chip": "ym2612"
    },
    {
      "channel": 2,
      "note": 86,
      "start": 23.7659,
      "duration": 0.0045,
      "velocity": 82,
      "chip": "ym2612"
    },
    {
      "channel": 1,
      "note": 74,
      "start": 23.7703,
      "duration": 0.1,
      "velocity": 88,
      "chip": "ym2612"
    },
    {
      "channel": 2,
      "note": 78,
      "start": 23.7707,
      "duration": 0.1,
      "velocity": 82,
      "chip": "ym2612"
    },
    {
      "channel": 0,
      "note": 65,
      "start": 23.8702,
      "duration": 0.0046,
      "velocity": 97,
      "chip": "ym2612"
    },
    {
      "channel": 1,
      "note": 63,
      "start": 23.8705,
      "duration": 0.0026,
      "velocity": 88,
      "chip": "ym2612"
    },
    {
      "channel": 2,
      "note": 81,
      "start": 23.8711,
      "duration": 0.0024,
      "velocity": 82,
      "chip": "ym2612"
    },
    {
      "channel": 3,
      "note": 69,
      "start": 23.8717,
      "duration": 0.0042,
      "velocity": 97,
      "chip": "ym2612"
    },
    {
      "channel": 1,
      "note": 75,
      "start": 23.8734,
      "duration": 0.0018,
      "velocity": 88,
      "chip": "ym2612"
    },
    {
      "channel": 2,
      "note": 78,
      "start": 23.8738,
      "duration": 0.0017,
      "velocity": 82,
      "chip": "ym2612"
    },
    {
      "channel": 0,
      "note": 64,
      "start": 23.8751,
      "duration": 0.2183,
      "velocity": 97,
      "chip": "ym2612"
    },
    {
      "channel": 1,
      "note": 64,
      "start": 23.8755,
      "duration": 0.002,
      "velocity": 88,
      "chip": "ym2612"
    },
    {
      "channel": 2,
      "note": 76,
      "start": 23.8758,
      "duration": 0.0017,
      "velocity": 82,
      "chip": "ym2612"
    },
    {
      "channel": 3,
      "note": 71,
      "start": 23.8762,
      "duration": 0.2184,
      "velocity": 97,
      "chip": "ym2612"
    },
    {
      "channel": 4,
      "note": 71,
      "start": 23.8765,
      "duration": 0.2187,
      "velocity": 77,
      "chip": "ym2612"
    },
    {
      "channel": 1,
      "note": 64,
      "start": 23.8775,
      "duration": 0.0996,
      "velocity": 88,
      "chip": "ym2612"
    },
    {
      "channel": 2,
      "note": 80,
      "start": 23.8778,
      "duration": 0.0995,
      "velocity": 82,
      "chip": "ym2612"
    },
    {
      "channel": 1,
      "note": 64,
      "start": 23.9773,
      "duration": 0.0018,
      "velocity": 88,
      "chip": "ym2612"
    },
    {
      "channel": 2,
      "note": 83,
      "start": 23.9776,
      "duration": 0.0019,
      "velocity": 82,
      "chip": "ym2612"
    },
    {
      "channel": 1,
      "note": 76,
      "start": 23.9794,
      "duration": 0.0015,
      "velocity": 88,
      "chip": "ym2612"
    },
    {
      "channel": 2,
      "note": 80,
      "start": 23.9799,
      "duration": 0.0013,
      "velocity": 82,
      "chip": "ym2612"
    },
    {
      "channel": 1,
      "note": 64,
      "start": 23.9812,
      "duration": 0.0048,
      "velocity": 88,
      "chip": "ym2612"
    },
    {
      "channel": 2,
      "note": 88,
      "start": 23.9815,
      "duration": 0.0049,
      "velocity": 82,
      "chip": "ym2612"
    },
    {
      "channel": 1,
      "note": 76,
      "start": 23.9863,
      "duration": 0.0995,
      "velocity": 88,
      "chip": "ym2612"
    },
    {
      "channel": 2,
      "note": 80,
      "start": 23.9866,
      "duration": 0.0997,
      "velocity": 82,
      "chip": "ym2612"
    },
    {
      "channel": 1,
      "note": 62,
      "start": 24.0862,
      "duration": 0.0055,
      "velocity": 88,
      "chip": "ym2612"
    },
    {
      "channel": 2,
      "note": 83,
      "start": 24.0867,
      "duration": 0.0053,
      "velocity": 82,
      "chip": "ym2612"
    },
    {
      "channel": 1,
      "note": 74,
      "start": 24.0919,
      "duration": 0.0019,
      "velocity": 88,
      "chip": "ym2612"
    },
    {
      "channel": 2,
      "note": 80,
      "start": 24.0924,
      "duration": 0.0017,
      "velocity": 82,
      "chip": "ym2612"
    },
    {
      "channel": 0,
      "note": 69,
      "start": 24.0937,
      "duration": 0.0035,
      "velocity": 97,
      "chip": "ym2612"
    },
    {
      "channel": 1,
      "note": 73,
      "start": 24.0941,
      "duration": 0.0034,
      "velocity": 88,
      "chip": "ym2612"
    },
    {
      "channel": 2,
      "note": 81,
      "start": 24.0945,
      "duration": 0.0033,
      "velocity": 82,
      "chip": "ym2612"
    },
    {
      "channel": 3,
      "note": 73,
      "start": 24.0951,
      "duration": 0.0032,
      "velocity": 97,
      "chip": "ym2612"
    },
    {
      "channel": 4,
      "note": 66,
      "start": 24.0956,
      "duration": 0.009,
      "velocity": 77,
      "chip": "ym2612"
    },
    {
      "channel": 0,
      "note": 68,
      "start": 24.0974,
      "duration": 0.0021,
      "velocity": 97,
      "chip": "ym2612"
    },
    {
      "channel": 1,
      "note": 71,
      "start": 24.0977,
      "duration": 0.0022,
      "velocity": 88,
      "chip": "ym2612"
    },
    {
      "channel": 2,
      "note": 80,
      "start": 24.0982,
      "duration": 0.0022,
      "velocity": 82,
      "chip": "ym2612"
    },
    {
      "channel": 3,
      "note": 71,
      "start": 24.0986,
      "duration": 0.0021,
      "velocity": 97,
      "chip": "ym2612"
    },
    {
      "channel": 0,
      "note": 66,
      "start": 24.0998,
      "duration": 0.0028,
      "velocity": 97,
      "chip": "ym2612"
    },
    {
      "channel": 1,
      "note": 69,
      "start": 24.1002,
      "duration": 0.0029,
      "velocity": 88,
      "chip": "ym2612"
    },
    {
      "channel": 2,
      "note": 78,
      "start": 24.1006,
      "duration": 0.003,
      "velocity": 82,
      "chip": "ym2612"
    },
    {
      "channel": 3,
      "note": 69,
      "start": 24.1011,
      "duration": 0.0031,
      "velocity": 97,
      "chip": "ym2612"
    },
    {
      "channel": 0,
      "note": 71,
      "start": 24.103,
      "duration": 0.0034,
      "velocity": 97,
      "chip": "ym2612"
    },
    {
      "channel": 1,
      "note": 71,
      "start": 24.1035,
      "duration": 0.0032,
      "velocity": 88,
      "chip": "ym2612"
    },
    {
      "channel": 2,
      "note": 83,
      "start": 24.104,
      "duration": 0.0032,
      "velocity": 82,
      "chip": "ym2612"
    },
    {
      "channel": 3,
      "note": 71,
      "start": 24.1045,
      "duration": 0.0031,
      "velocity": 97,
      "chip": "ym2612"
    },
    {
      "channel": 4,
      "note": 64,
      "start": 24.105,
      "duration": 0.009,
      "velocity": 77,
      "chip": "ym2612"
    },
    {
      "channel": 0,
      "note": 69,
      "start": 24.1067,
      "duration": 0.0022,
      "velocity": 97,
      "chip": "ym2612"
    },
    {
      "channel": 1,
      "note": 69,
      "start": 24.107,
      "duration": 0.0023,
      "velocity": 88,
      "chip": "ym2612"
    },
    {
      "channel": 2,
      "note": 81,
      "start": 24.1076,
      "duration": 0.0021,
      "velocity": 82,
      "chip": "ym2612"
    },
    {
      "channel": 3,
      "note": 69,
      "start": 24.108,
      "duration": 0.0021,
      "velocity": 97,
      "chip": "ym2612"
    },
    {
      "channel": 0,
      "note": 68,
      "start": 24.1092,
      "duration": 0.0028,
      "velocity": 97,
      "chip": "ym2612"
    },
    {
      "channel": 1,
      "note": 68,
      "start": 24.1095,
      "duration": 0.003,
      "velocity": 88,
      "chip": "ym2612"
    },
    {
      "channel": 2,
      "note": 80,
      "start": 24.11,
      "duration": 0.0031,
      "velocity": 82,
      "chip": "ym2612"
    },
    {
      "channel": 3,
      "note": 68,
      "start": 24.1103,
      "duration": 0.0032,
      "velocity": 97,
      "chip": "ym2612"
    },
    {
      "channel": 0,
      "note": 74,
      "start": 24.1124,
      "duration": 0.0073,
      "velocity": 97,
      "chip": "ym2612"
    },
    {
      "channel": 1,
      "note": 69,
      "start": 24.1129,
      "duration": 0.0073,
      "velocity": 88,
      "chip": "ym2612"
    },
    {
      "channel": 2,
      "note": 86,
      "start": 24.1134,
      "duration": 0.0073,
      "velocity": 82,
      "chip": "ym2612"
    },
    {
      "channel": 3,
      "note": 69,
      "start": 24.1139,
      "duration": 0.0073,
      "velocity": 97,
      "chip": "ym2612"
    },
    {
      "channel": 4,
      "note": 61,
      "start": 24.1144,
      "duration": 0.0144,
      "velocity": 77,
      "chip": "ym2612"
    },
    {
      "channel": 0,
      "note": 73,
      "start": 24.1202,
      "duration": 0.0062,
      "velocity": 97,
      "chip": "ym2612"
    },
    {
      "channel": 1,
      "note": 68,
      "start": 24.1206,
      "duration": 0.0064,
      "velocity": 88,
      "chip": "ym2612"
    },
    {
      "channel": 2,
      "note": 85,
      "start": 24.1211,
      "duration": 0.0064,
      "velocity": 82,
      "chip": "ym2612"
    },
    {
      "channel": 3,
      "note": 68,
      "start": 24.1216,
      "duration": 0.0065,
      "velocity": 97,
      "chip": "ym2612"
    },
    {
      "channel": 0,
      "note": 69,
      "start": 24.1269,
      "duration": 0.1053,
      "velocity": 97,
      "chip": "ym2612"
    },
    {
      "channel": 1,
      "note": 66,
      "start": 24.1274,
      "duration": 0.0029,
      "velocity": 88,
      "chip": "ym2612"
    },
    {
      "channel": 2,
      "note": 78,
      "start": 24.128,
      "duration": 0.0025,
      "velocity": 82,
      "chip": "ym2612"
    },
    {
      "channel": 3,
      "note": 69,
      "start": 24.1287,
      "duration": 0.1046,
      "velocity": 97,
      "chip": "ym2612"
    },
    {
      "channel": 4,
      "note": 66,
      "start": 24.1295,
      "duration": 0.2163,
      "velocity": 77,
      "chip": "ym2612"
    },
    {
      "channel": 1,
      "note": 66,
      "start": 24.1305,
      "duration": 0.0997,
      "velocity": 88,
      "chip": "ym2612"
    },
    {
      "channel": 2,
      "note": 81,
      "start": 24.1309,
      "duration": 0.0995,
      "velocity": 82,
      "chip": "ym2612"
    },
    {
      "channel": 1,
      "note": 66,
      "start": 24.2303,
      "duration": 0.0021,
      "velocity": 88,
      "chip": "ym2612"
    },
    {
      "channel": 2,
      "note": 85,
      "start": 24.2307,
      "duration": 0.0022,
      "velocity": 82,
      "chip": "ym2612"
    },
    {
      "channel": 0,
      "note": 68,
      "start": 24.2324,
      "duration": 0.1073,
      "velocity": 97,
      "chip": "ym2612"
    },
    {
      "channel": 1,
      "note": 78,
      "start": 24.2328,
      "duration": 0.0019,
      "velocity": 88,
      "chip": "ym2612"
    },
    {
      "channel": 2,
      "note": 81,
      "start": 24.2331,
      "duration": 0.002,
      "velocity": 82,
      "chip": "ym2612"
    },
    {
      "channel": 3,
      "note": 68,
      "start": 24.2336,
      "duration": 0.1073,
      "velocity": 97,
      "chip": "ym2612"
    },
    {
      "channel": 1,
      "note": 66,
      "start": 24.2349,
      "duration": 0.0048,
      "velocity": 88,
      "chip": "ym2612"
    },
    {
      "channel": 2,
      "note": 90,
      "start": 24.2355,
      "duration": 0.0047,
      "velocity": 82,
      "chip": "ym2612"
    },
    {
      "channel": 1,
      "note": 78,
      "start": 24.24,
      "duration": 0.1001,
      "velocity": 88,
      "chip": "ym2612"
    },
    {
      "channel": 2,
      "note": 85,
      "start": 24.2405,
      "duration": 0.0999,
      "velocity": 82,
      "chip": "ym2612"
    },
    {
      "channel": 0,
      "note": 64,
      "start": 24.34,
      "duration": 0.0043,
      "velocity": 97,
      "chip": "ym2612"
    },
    {
      "channel": 1,
      "note": 64,
      "start": 24.3403,
      "duration": 0.0025,
      "velocity": 88,
      "chip": "ym2612"
    },
    {
      "channel": 2,
      "note": 90,
      "start": 24.3408,
      "duration": 0.0024,
      "velocity": 82,
      "chip": "ym2612"
    },
    {
      "channel": 3,
      "note": 64,
      "start": 24.3413,
      "duration": 0.0041,
      "velocity": 97,
      "chip": "ym2612"
    },
    {
      "channel": 1,
      "note": 76,
      "start": 24.3431,
      "duration": 0.0016,
      "velocity": 88,
      "chip": "ym2612"
    },
    {
      "channel": 2,
      "note": 85,
      "start": 24.3434,
      "duration": 0.0016,
      "velocity": 82,
      "chip": "ym2612"
    },
    {
      "channel": 0,
      "note": 66,
      "start": 24.3446,
      "duration": 0.1045,
      "velocity": 97,
      "chip": "ym2612"
    },
    {
      "channel": 1,
      "note": 62,
      "start": 24.3449,
      "duration": 0.0022,
      "velocity": 88,
      "chip": "ym2612"
    },
    {
      "channel": 2,
      "note": 74,
      "start": 24.3453,
      "duration": 0.0023,
      "velocity": 82,
      "chip": "ym2612"
    },
    {
      "channel": 3,
      "note": 66,
      "start": 24.3457,
      "duration": 0.1045,
      "velocity": 97,
      "chip": "ym2612"
    },
    {
      "channel": 4,
      "note": 62,
      "start": 24.3461,
      "duration": 0.2159,
      "velocity": 77,
      "chip": "ym2612"
    },
    {
      "channel": 1,
      "note": 62,
      "start": 24.3475,
      "duration": 0.0997,
      "velocity": 88,
      "chip": "ym2612"
    },
    {
      "channel": 2,
      "note": 78,
      "start": 24.3478,
      "duration": 0.0996,
      "velocity": 82,
      "chip": "ym2612"
    },
    {
      "channel": 1,
      "note": 62,
      "start": 24.4473,
      "duration": 0.0021,
      "velocity": 88,
      "chip": "ym2612"
    },
    {
      "channel": 2,
      "note": 81,
      "start": 24.4477,
      "duration": 0.0021,
      "velocity": 82,
      "chip": "ym2612"
    },
    {
      "channel": 0,
      "note": 62,
      "start": 24.4494,
      "duration": 0.1092,
      "velocity": 97,
      "chip": "ym2612"
    },
    {
      "channel": 1,
      "note": 74,
      "start": 24.4498,
      "duration": 0.0016,
      "velocity": 88,
      "chip": "ym2612"
    },
    {
      "channel": 2,
      "note": 78,
      "start": 24.4501,
      "duration": 0.0015,
      "velocity": 82,
      "chip": "ym2612"
    },
    {
      "channel": 3,
      "note": 62,
      "start": 24.4504,
      "duration": 0.109,
      "velocity": 97,
      "chip": "ym2612"
    },
    {
      "channel": 1,
      "note": 62,
      "start": 24.4516,
      "duration": 0.0047,
      "velocity": 88,
      "chip": "ym2612"
    },
    {
      "channel": 2,
      "note": 85,
      "start": 24.452,
      "duration": 0.0046,
      "velocity": 82,
      "chip": "ym2612"
    },
    {
      "channel": 1,
      "note": 74,
      "start": 24.4566,
      "duration": 0.0996,
      "velocity": 88,
      "chip": "ym2612"
    },
    {
      "channel": 2,
      "note": 81,
      "start": 24.4569,
      "duration": 0.0998,
      "velocity": 82,
      "chip": "ym2612"
    },
    {
      "channel": 1,
      "note": 60,
      "start": 24.5566,
      "duration": 0.002,
      "velocity": 88,
      "chip": "ym2612"
    },
    {
      "channel": 2,
      "note": 83,
      "start": 24.5571,
      "duration": 0.0019,
      "velocity": 82,
      "chip": "ym2612"
    },
    {
      "channel": 1,
      "note": 72,
      "start": 24.5589,
      "duration": 0.0022,
      "velocity": 88,
      "chip": "ym2612"
    },
    {
      "channel": 2,
      "note": 81,
      "start": 24.5593,
      "duration": 0.0022,
      "velocity": 82,
      "chip": "ym2612"
    },
    {
      "channel": 0,
      "note": 73,
      "start": 24.561,
      "duration": 0.1039,
      "velocity": 97,
      "chip": "ym2612"
    },
    {
      "channel": 1,
      "note": 61,
      "start": 24.5614,
      "duration": 0.0018,
      "velocity": 88,
      "chip": "ym2612"
    },
    {
      "channel": 2,
      "note": 73,
      "start": 24.5618,
      "duration": 0.0016,
      "velocity": 82,
      "chip": "ym2612"
    },
    {
      "channel": 3,
      "note": 73,
      "start": 24.562,
      "duration": 0.1038,
      "velocity": 97,
      "chip": "ym2612"
    },
    {
      "channel": 4,
      "note": 61,
      "start": 24.5623,
      "duration": 0.2155,
      "velocity": 77,
      "chip": "ym2612"
    },
    {
      "channel": 1,
      "note": 61,
      "start": 24.5633,
      "duration": 0.0997,
      "velocity": 88,
      "chip": "ym2612"
    },
    {
      "channel": 2,
      "note": 76,
      "start": 24.5637,
      "duration": 0.0994,
      "velocity": 82,
      "chip": "ym2612"
    },
    {
      "channel": 1,
      "note": 61,
      "start": 24.663,
      "duration": 0.0023,
      "velocity": 88,
      "chip": "ym2612"
    },
    {
      "channel": 2,
      "note": 80,
      "start": 24.6635,
      "duration": 0.002,
      "velocity": 82,
      "chip": "ym2612"
    },
    {
      "channel": 0,
      "note": 71,
      "start": 24.6652,
      "duration": 0.1065,
      "velocity": 97,
      "chip": "ym2612"
    },
    {
      "channel": 1,
      "note": 61,
      "start": 24.6654,
      "duration": 0.0018,
      "velocity": 88,
      "chip": "ym2612"
    },
    {
      "channel": 2,
      "note": 76,
      "start": 24.6657,
      "duration": 0.0017,
      "velocity": 82,
      "chip": "ym2612"
    },
    {
      "channel": 3,
      "note": 71,
      "start": 24.6662,
      "duration": 0.1068,
      "velocity": 97,
      "chip": "ym2612"
    },
    {
      "channel": 1,
      "note": 61,
      "start": 24.6673,
      "duration": 0.0047,
      "velocity": 88,
      "chip": "ym2612"
    },
    {
      "channel": 2,
      "note": 85,
      "start": 24.6677,
      "duration": 0.0046,
      "velocity": 82,
      "chip": "ym2612"
    },
    {
      "channel": 1,
      "note": 61,
      "start": 24.6722,
      "duration": 0.0998,
      "velocity": 88,
      "chip": "ym2612"
    },
    {
      "channel": 2,
      "note": 80,
      "start": 24.6725,
      "duration": 0.1,
      "velocity": 82,
      "chip": "ym2612"
    },
    {
      "channel": 0,
      "note": 68,
      "start": 24.772,
      "duration": 0.0044,
      "velocity": 97,
      "chip": "ym2612"
    },
    {
      "channel": 1,
      "note": 62,
      "start": 24.7724,
      "duration": 0.0025,
      "velocity": 88,
      "chip": "ym2612"
    },
    {
      "channel": 2,
      "note": 83,
      "start": 24.7729,
      "duration": 0.0024,
      "velocity": 82,
      "chip": "ym2612"
    },
    {
      "channel": 3,
      "note": 68,
      "start": 24.7734,
      "duration": 0.0041,
      "velocity": 97,
      "chip": "ym2612"
    },
    {
      "channel": 1,
      "note": 64,
      "start": 24.7752,
      "duration": 0.0015,
      "velocity": 88,
      "chip": "ym2612"
    },
    {
      "channel": 2,
      "note": 80,
      "start": 24.7755,
      "duration": 0.0016,
      "velocity": 82,
      "chip": "ym2612"
    },
    {
      "channel": 0,
      "note": 69,
      "start": 24.7767,
      "duration": 0.1041,
      "velocity": 97,
      "chip": "ym2612"
    },
    {
      "channel": 1,
      "note": 62,
      "start": 24.777,
      "duration": 0.002,
      "velocity": 88,
      "chip": "ym2612"
    },
    {
      "channel": 2,
      "note": 74,
      "start": 24.7773,
      "duration": 0.0019,
      "velocity": 82,
      "chip": "ym2612"
    },
    {
      "channel": 3,
      "note": 69,
      "start": 24.7777,
      "duration": 0.104,
      "velocity": 97,
      "chip": "ym2612"
    },
    {
      "channel": 4,
      "note": 62,
      "start": 24.7781,
      "duration": 0.2155,
      "velocity": 77,
      "chip": "ym2612"
    },
    {
      "channel": 1,
      "note": 62,
      "start": 24.7791,
      "duration": 0.0996,
      "velocity": 88,
      "chip": "ym2612"
    },
    {
      "channel": 2,
      "note": 78,
      "start": 24.7794,
      "duration": 0.0995,
      "velocity": 82,
      "chip": "ym2612"
    },
    {
      "channel": 1,
      "note": 62,
      "start": 24.8788,
      "duration": 0.0024,
      "velocity": 88,
      "chip": "ym2612"
    },
    {
      "channel": 2,
      "note": 81,
      "start": 24.8792,
      "duration": 0.0023,
      "velocity": 82,
      "chip": "ym2612"
    },
    {
      "channel": 0,
      "note": 71,
      "start": 24.8811,
      "duration": 0.1089,
      "velocity": 97,
      "chip": "ym2612"
    },
    {
      "channel": 1,
      "note": 74,
      "start": 24.8814,
      "duration": 0.0015,
      "velocity": 88,
      "chip": "ym2612"
    },
    {
      "channel": 2,
      "note": 78,
      "start": 24.8817,
      "duration": 0.0016,
      "velocity": 82,
      "chip": "ym2612"
    },
    {
      "channel": 3,
      "note": 71,
      "start": 24.882,
      "duration": 0.1089,
      "velocity": 97,
      "chip": "ym2612"
    },
    {
      "channel": 1,
      "note": 62,
      "start": 24.8832,
      "duration": 0.0045,
      "velocity": 88,
      "chip": "ym2612"
    },
    {
      "channel": 2,
      "note": 86,
      "start": 24.8836,
      "duration": 0.0045,
      "velocity": 82,
      "chip": "ym2612"
    },
    {
      "channel": 1,
      "note": 74,
      "start": 24.888,
      "duration": 0.0998,
      "velocity": 88,
      "chip": "ym2612"
    },
    {
      "channel": 2,
      "note": 81,
      "start": 24.8885,
      "duration": 0.0997,
      "velocity": 82,
      "chip": "ym2612"
    },
    {
      "channel": 1,
      "note": 61,
      "start": 24.988,
      "duration": 0.002,
      "velocity": 88,
      "chip": "ym2612"
    },
    {
      "channel": 2,
      "note": 86,
      "start": 24.9885,
      "duration": 0.0019,
      "velocity": 82,
      "chip": "ym2612"
    },
    {
      "channel": 1,
      "note": 73,
      "start": 24.9903,
      "duration": 0.0022,
      "velocity": 88,
      "chip": "ym2612"
    },
    {
      "channel": 2,
      "note": 81,
      "start": 24.9907,
      "duration": 0.0022,
      "velocity": 82,
      "chip": "ym2612"
    },
    {
      "channel": 0,
      "note": 66,
      "start": 24.9924,
      "duration": 0.1042,
      "velocity": 97,
      "chip": "ym2612"
    },
    {
      "channel": 1,
      "note": 59,
      "start": 24.9928,
      "duration": 0.002,
      "velocity": 88,
      "chip": "ym2612"
    },
    {
      "channel": 2,
      "note": 75,
      "start": 24.9932,
      "duration": 0.0018,
      "velocity": 82,
      "chip": "ym2612"
    },
    {
      "channel": 3,
      "note": 66,
      "start": 24.9935,
      "duration": 0.1041,
      "velocity": 97,
      "chip": "ym2612"
    },
    {
      "channel": 4,
      "note": 59,
      "start": 24.9939,
      "duration": 0.2165,
      "velocity": 77,
      "chip": "ym2612"
    },
    {
      "channel": 1,
      "note": 59,
      "start": 24.9949,
      "duration": 0.0997,
      "velocity": 88,
      "chip": "ym2612"
    },
    {
      "channel": 2,
      "note": 78,
      "start": 24.9953,
      "duration": 0.0996,
      "velocity": 82,
      "chip": "ym2612"
    },
    {
      "channel": 1,
      "note": 59,
      "start": 25.0947,
      "duration": 0.0022,
      "velocity": 88,
      "chip": "ym2612"
    },
    {
      "channel": 2,
      "note": 83,
      "start": 25.0951,
      "duration": 0.0022,
      "velocity": 82,
      "chip": "ym2612"
    },
    {
      "channel": 0,
      "note": 63,
      "start": 25.0969,
      "duration": 0.1069,
      "velocity": 97,
      "chip": "ym2612"
    },
    {
      "channel": 1,
      "note": 71,
      "start": 25.0973,
      "duration": 0.0017,
      "velocity": 88,
      "chip": "ym2612"
    },
    {
      "channel": 2,
      "note": 78,
      "start": 25.0976,
      "duration": 0.0018,
      "velocity": 82,
      "chip": "ym2612"
    },
    {
      "channel": 3,
      "note": 63,
      "start": 25.098,
      "duration": 0.1072,
      "velocity": 97,
      "chip": "ym2612"
    },
    {
      "channel": 1,
      "note": 59,
      "start": 25.0993,
      "duration": 0.0045,
      "velocity": 88,
      "chip": "ym2612"
    },
    {
      "channel": 2,
      "note": 87,
      "start": 25.0997,
      "duration": 0.0045,
      "velocity": 82,
      "chip": "ym2612"
    },
    {
      "channel": 1,
      "note": 71,
      "start": 25.1041,
      "duration": 0.1,
      "velocity": 88,
      "chip": "ym2612"
    },
    {
      "channel": 2,
      "note": 83,
      "start": 25.1044,
      "duration": 0.1002,
      "velocity": 82,
      "chip": "ym2612"
    },
    {
      "channel": 0,
      "note": 71,
      "start": 25.204,
      "duration": 0.0049,
      "velocity": 97,
      "chip": "ym2612"
    },
    {
      "channel": 1,
      "note": 61,
      "start": 25.2046,
      "duration": 0.0026,
      "velocity": 88,
      "chip": "ym2612"
    },
    {
      "channel": 2,
      "note": 78,
      "start": 25.2051,
      "duration": 0.0025,
      "velocity": 82,
      "chip": "ym2612"
    },
    {
      "channel": 3,
      "note": 71,
      "start": 25.2056,
      "duration": 0.0044,
      "velocity": 97,
      "chip": "ym2612"
    },
    {
      "channel": 1,
      "note": 73,
      "start": 25.2074,
      "duration": 0.0018,
      "velocity": 88,
      "chip": "ym2612"
    },
    {
      "channel": 2,
      "note": 71,
      "start": 25.2079,
      "duration": 0.0016,
      "velocity": 82,
      "chip": "ym2612"
    },
    {
      "channel": 0,
      "note": 69,
      "start": 25.2091,
      "duration": 0.1024,
      "velocity": 97,
      "chip": "ym2612"
    },
    {
      "channel": 1,
      "note": 62,
      "start": 25.2094,
      "duration": 0.002,
      "velocity": 88,
      "chip": "ym2612"
    },
    {
      "channel": 2,
      "note": 74,
      "start": 25.2098,
      "duration": 0.002,
      "velocity": 82,
      "chip": "ym2612"
    },
    {
      "channel": 3,
      "note": 73,
      "start": 25.2102,
      "duration": 0.1026,
      "velocity": 97,
      "chip": "ym2612"
    },
    {
      "channel": 4,
      "note": 62,
      "start": 25.2105,
      "duration": 0.1071,
      "velocity": 77,
      "chip": "ym2612"
    },
    {
      "channel": 1,
      "note": 62,
      "start": 25.2118,
      "duration": 0.1,
      "velocity": 88,
      "chip": "ym2612"
    },
    {
      "channel": 2,
      "note": 78,
      "start": 25.2121,
      "duration": 0.1001,
      "velocity": 82,
      "chip": "ym2612"
    },
    {
      "channel": 0,
      "note": 68,
      "start": 25.3118,
      "duration": 0.0044,
      "velocity": 97,
      "chip": "ym2612"
    },
    {
      "channel": 1,
      "note": 74,
      "start": 25.3121,
      "duration": 0.0026,
      "velocity": 88,
      "chip": "ym2612"
    },
    {
      "channel": 2,
      "note": 81,
      "start": 25.3127,
      "duration": 0.0023,
      "velocity": 82,
      "chip": "ym2612"
    },
    {
      "channel": 3,
      "note": 71,
      "start": 25.3132,
      "duration": 0.004,
      "velocity": 97,
      "chip": "ym2612"
    },
    {
      "channel": 1,
      "note": 62,
      "start": 25.315,
      "duration": 0.0015,
      "velocity": 88,
      "chip": "ym2612"
    },
    {
      "channel": 2,
      "note": 86,
      "start": 25.3153,
      "duration": 0.0016,
      "velocity": 82,
      "chip": "ym2612"
    },
    {
      "channel": 0,
      "note": 64,
      "start": 25.3164,
      "duration": 0.1058,
      "velocity": 97,
      "chip": "ym2612"
    },
    {
      "channel": 1,
      "note": 64,
      "start": 25.3168,
      "duration": 0.0055,
      "velocity": 88,
      "chip": "ym2612"
    },
    {
      "channel": 2,
      "note": 76,
      "start": 25.3172,
      "duration": 0.0056,
      "velocity": 82,
      "chip": "ym2612"
    },
    {
      "channel": 3,
      "note": 68,
      "start": 25.3175,
      "duration": 0.106,
      "velocity": 97,
      "chip": "ym2612"
    },
    {
      "channel": 4,
      "note": 64,
      "start": 25.3179,
      "duration": 0.1134,
      "velocity": 77,
      "chip": "ym2612"
    },
    {
      "channel": 1,
      "note": 76,
      "start": 25.3226,
      "duration": 0.0999,
      "velocity": 88,
      "chip": "ym2612"
    },
    {
      "channel": 2,
      "note": 80,
      "start": 25.3231,
      "duration": 0.1,
      "velocity": 82,
      "chip": "ym2612"
    },
    {
      "channel": 0,
      "note": 61,
      "start": 25.4225,
      "duration": 0.0072,
      "velocity": 97,
      "chip": "ym2612"
    },
    {
      "channel": 1,
      "note": 64,
      "start": 25.4229,
      "duration": 0.0045,
      "velocity": 88,
      "chip": "ym2612"
    },
    {
      "channel": 2,
      "note": 83,
      "start": 25.4234,
      "duration": 0.0045,
      "velocity": 82,
      "chip": "ym2612"
    },
    {
      "channel": 3,
      "note": 64,
      "start": 25.424,
      "duration": 0.007,
      "velocity": 97,
      "chip": "ym2612"
    },
    {
      "channel": 1,
      "note": 76,
      "start": 25.4278,
      "duration": 0.0024,
      "velocity": 88,
      "chip": "ym2612"
    },
    {
      "channel": 2,
      "note": 88,
      "start": 25.4283,
      "duration": 0.0023,
      "velocity": 82,
      "chip": "ym2612"
    },
    {
      "channel": 0,
      "note": 66,
      "start": 25.4302,
      "duration": 0.2178,
      "velocity": 97,
      "chip": "ym2612"
    },
    {
      "channel": 1,
      "note": 66,
      "start": 25.4305,
      "duration": 0.002,
      "velocity": 88,
      "chip": "ym2612"
    },
    {
      "channel": 2,
      "note": 73,
      "start": 25.4309,
      "duration": 0.0019,
      "velocity": 82,
      "chip": "ym2612"
    },
    {
      "channel": 3,
      "note": 69,
      "start": 25.4312,
      "duration": 0.2175,
      "velocity": 97,
      "chip": "ym2612"
    },
    {
      "channel": 4,
      "note": 66,
      "start": 25.4317,
      "duration": 0.2172,
      "velocity": 77,
      "chip": "ym2612"
    },
    {
      "channel": 1,
      "note": 66,
      "start": 25.4326,
      "duration": 0.0996,
      "velocity": 88,
      "chip": "ym2612"
    },
    {
      "channel": 2,
      "note": 78,
      "start": 25.4329,
      "duration": 0.0995,
      "velocity": 82,
      "chip": "ym2612"
    },
    {
      "channel": 1,
      "note": 66,
      "start": 25.5323,
      "duration": 0.002,
      "velocity": 88,
      "chip": "ym2612"
    },
    {
      "channel": 2,
      "note": 81,
      "start": 25.5327,
      "duration": 0.0019,
      "velocity": 82,
      "chip": "ym2612"
    },
    {
      "channel": 1,
      "note": 78,
      "start": 25.5346,
      "duration": 0.0012,
      "velocity": 88,
      "chip": "ym2612"
    },
    {
      "channel": 2,
      "note": 85,
      "start": 25.5349,
      "duration": 0.0013,
      "velocity": 82,
      "chip": "ym2612"
    },
    {
      "channel": 1,
      "note": 76,
      "start": 25.5361,
      "duration": 0.0048,
      "velocity": 88,
      "chip": "ym2612"
    },
    {
      "channel": 2,
      "note": 81,
      "start": 25.5365,
      "duration": 0.0047,
      "velocity": 82,
      "chip": "ym2612"
    },
    {
      "channel": 1,
      "note": 73,
      "start": 25.5411,
      "duration": 0.0997,
      "velocity": 88,
      "chip": "ym2612"
    },
    {
      "channel": 2,
      "note": 85,
      "start": 25.5415,
      "duration": 0.0998,
      "velocity": 82,
      "chip": "ym2612"
    },
    {
      "channel": 1,
      "note": 69,
      "start": 25.6412,
      "duration": 0.0053,
      "velocity": 88,
      "chip": "ym2612"
    },
    {
      "channel": 2,
      "note": 90,
      "start": 25.6415,
      "duration": 0.0052,
      "velocity": 82,
      "chip": "ym2612"
    },
    {
      "channel": 1,
      "note": 68,
      "start": 25.6467,
      "duration": 0.0015,
      "velocity": 88,
      "chip": "ym2612"
    },
    {
      "channel": 2,
      "note": 93,
      "start": 25.6471,
      "duration": 0.0015,
      "velocity": 82,
      "chip": "ym2612"
    },
    {
      "channel": 0,
      "note": 81,
      "start": 28.7366,
      "duration": 0.8976,
      "velocity": 82,
      "chip": "ym2612"
    },
    {
      "channel": 3,
      "note": 81,
      "start": 28.7394,
      "duration": 0.8955,
      "velocity": 82,
      "chip": "ym2612"
    },
    {
      "channel": 0,
      "note": 80,
      "start": 29.6346,
      "duration": 0.8996,
      "velocity": 82,
      "chip": "ym2612"
    },
    {
      "channel": 3,
      "note": 80,
      "start": 29.6353,
      "duration": 0.8997,
      "velocity": 82,
      "chip": "ym2612"
    },
    {
      "channel": 0,
      "note": 76,
      "start": 30.5347,
      "duration": 0.5995,
      "velocity": 82,
      "chip": "ym2612"
    },
    {
      "channel": 3,
      "note": 76,
      "start": 30.5354,
      "duration": 0.5995,
      "velocity": 82,
      "chip": "ym2612"
    },
    {
      "channel": 0,
      "note": 78,
      "start": 31.1346,
      "duration": 0.8996,
      "velocity": 82,
      "chip": "ym2612"
    },
    {
      "channel": 3,
      "note": 78,
      "start": 31.1354,
      "duration": 0.8996,
      "velocity": 82,
      "chip": "ym2612"
    },
    {
      "channel": 0,
      "note": 74,
      "start": 32.0346,
      "duration": 1.1996,
      "velocity": 82,
      "chip": "ym2612"
    },
    {
      "channel": 3,
      "note": 74,
      "start": 32.0353,
      "duration": 1.1994,
      "velocity": 82,
      "chip": "ym2612"
    },
    {
      "channel": 0,
      "note": 85,
      "start": 33.5347,
      "duration": 0.8995,
      "velocity": 82,
      "chip": "ym2612"
    },
    {
      "channel": 3,
      "note": 85,
      "start": 33.5354,
      "duration": 0.8995,
      "velocity": 82,
      "chip": "ym2612"
    },
    {
      "channel": 0,
      "note": 83,
      "start": 34.4346,
      "duration": 0.8996,
      "velocity": 82,
      "chip": "ym2612"
    },
    {
      "channel": 3,
      "note": 83,
      "start": 34.4353,
      "duration": 0.8997,
      "velocity": 82,
      "chip": "ym2612"
    },
    {
      "channel": 0,
      "note": 80,
      "start": 35.3346,
      "duration": 0.5996,
      "velocity": 82,
      "chip": "ym2612"
    },
    {
      "channel": 3,
      "note": 80,
      "start": 35.3353,
      "duration": 0.5996,
      "velocity": 82,
      "chip": "ym2612"
    },
    {
      "channel": 0,
      "note": 81,
      "start": 35.9346,
      "duration": 0.8996,
      "velocity": 82,
      "chip": "ym2612"
    },
    {
      "channel": 3,
      "note": 81,
      "start": 35.9354,
      "duration": 0.8996,
      "velocity": 82,
      "chip": "ym2612"
    },
    {
      "channel": 0,
      "note": 83,
      "start": 36.8346,
      "duration": 1.1996,
      "velocity": 82,
      "chip": "ym2612"
    },
    {
      "channel": 3,
      "note": 83,
      "start": 36.8353,
      "duration": 1.1994,
      "velocity": 82,
      "chip": "ym2612"
    },
    {
      "channel": 0,
      "note": 78,
      "start": 38.3347,
      "duration": 0.8995,
      "velocity": 82,
      "chip": "ym2612"
    },
    {
      "channel": 3,
      "note": 78,
      "start": 38.3354,
      "duration": 0.8995,
      "velocity": 82,
      "chip": "ym2612"
    },
    {
      "channel": 0,
      "note": 75,
      "start": 39.2346,
      "duration": 0.8996,
      "velocity": 82,
      "chip": "ym2612"
    },
    {
      "channel": 3,
      "note": 75,
      "start": 39.2353,
      "duration": 0.8997,
      "velocity": 82,
      "chip": "ym2612"
    },
    {
      "channel": 0,
      "note": 83,
      "start": 40.1347,
      "duration": 0.5995,
      "velocity": 82,
      "chip": "ym2612"
    },
    {
      "channel": 3,
      "note": 83,
      "start": 40.1354,
      "duration": 0.5996,
      "velocity": 82,
      "chip": "ym2612"
    },
    {
      "channel": 0,
      "note": 81,
      "start": 40.7346,
      "duration": 0.8996,
      "velocity": 82,
      "chip": "ym2612"
    },
    {
      "channel": 3,
      "note": 85,
      "start": 40.7354,
      "duration": 0.8995,
      "velocity": 82,
      "chip": "ym2612"
    },
    {
      "channel": 0,
      "note": 80,
      "start": 41.6346,
      "duration": 0.8996,
      "velocity": 82,
      "chip": "ym2612"
    },
    {
      "channel": 3,
      "note": 83,
      "start": 41.6353,
      "duration": 0.8997,
      "velocity": 82,
      "chip": "ym2612"
    },
    {
      "channel": 0,
      "note": 76,
      "start": 42.5347,
      "duration": 0.8995,
      "velocity": 82,
      "chip": "ym2612"
    },
    {
      "channel": 3,
      "note": 80,
      "start": 42.5354,
      "duration": 0.8996,
      "velocity": 82,
      "chip": "ym2612"
    },
    {
      "channel": 0,
      "note": 73,
      "start": 43.4346,
      "duration": 0.8996,
      "velocity": 82,
      "chip": "ym2612"
    },
    {
      "channel": 3,
      "note": 76,
      "start": 43.4354,
      "duration": 0.8996,
      "velocity": 82,
      "chip": "ym2612"
    },
    {
      "channel": 0,
      "note": 78,
      "start": 44.3346,
      "duration": 208.7219,
      "velocity": 82,
      "chip": "ym2612"
    },
    {
      "channel": 3,
      "note": 82,
      "start": 44.3354,
      "duration": 208.7211,
      "velocity": 82,
      "chip": "ym2612"
    }
  ]
}