{
  "track_name": "06 - Theme of Kage",
  "duration_sec": 92.606,
  "sample_rate": 44100,
  "note_count": 212,
  "unique_pitches": 14,
  "pitch_range": 38,
  "avg_note_duration": 2.2071,
  "reconstruction_stats": {
    "notes_reconstructed": 212,
    "keyon_events": 212,
    "keyoff_events": 207,
    "orphan_keyons": 5,
    "unique_pitches": 14,
    "pitch_range": 38,
    "avg_duration_sec": 2.2071
  },
  "metadata": {
    "source": "V\\Virtua Fighter\\06 - Theme of Kage.vgz"
  },
  "notes": [
    {
      "channel": 0,
      "note": 49,
      "start": 0.0023,
      "duration": 0.2474,
      "velocity": 112,
      "chip": "ym2612"
    },
    {
      "channel": 2,
      "note": 66,
      "start": 0.009,
      "duration": 8.2303,
      "velocity": 123,
      "chip": "ym2612"
    },
    {
      "channel": 4,
      "note": 85,
      "start": 0.0144,
      "duration": 0.0736,
      "velocity": 112,
      "chip": "ym2612"
    },
    {
      "channel": 5,
      "note": 85,
      "start": 0.0173,
      "duration": 0.071,
      "velocity": 112,
      "chip": "ym2612"
    },
    {
      "channel": 4,
      "note": 83,
      "start": 0.1263,
      "duration": 0.1282,
      "velocity": 112,
      "chip": "ym2612"
    },
    {
      "channel": 5,
      "note": 83,
      "start": 0.127,
      "duration": 0.128,
      "velocity": 112,
      "chip": "ym2612"
    },
    {
      "channel": 4,
      "note": 81,
      "start": 0.2548,
      "duration": 0.1624,
      "velocity": 112,
      "chip": "ym2612"
    },
    {
      "channel": 5,
      "note": 81,
      "start": 0.2554,
      "duration": 0.1623,
      "velocity": 112,
      "chip": "ym2612"
    },
    {
      "channel": 4,
      "note": 80,
      "start": 0.4175,
      "duration": 0.1262,
      "velocity": 112,
      "chip": "ym2612"
    },
    {
      "channel": 5,
      "note": 80,
      "start": 0.4182,
      "duration": 0.1262,
      "velocity": 112,
      "chip": "ym2612"
    },
    {
      "channel": 0,
      "note": 49,
      "start": 0.5414,
      "duration": 0.2908,
      "velocity": 112,
      "chip": "ym2612"
    },
    {
      "channel": 1,
      "note": 85,
      "start": 0.5419,
      "duration": 0.0826,
      "velocity": 112,
      "chip": "ym2612"
    },
    {
      "channel": 3,
      "note": 66,
      "start": 0.5433,
      "duration": 8.2375,
      "velocity": 123,
      "chip": "ym2612"
    },
    {
      "channel": 4,
      "note": 78,
      "start": 0.5442,
      "duration": 0.1232,
      "velocity": 112,
      "chip": "ym2612"
    },
    {
      "channel": 5,
      "note": 78,
      "start": 0.5448,
      "duration": 0.1232,
      "velocity": 112,
      "chip": "ym2612"
    },
    {
      "channel": 1,
      "note": 83,
      "start": 0.6665,
      "duration": 0.1661,
      "velocity": 112,
      "chip": "ym2612"
    },
    {
      "channel": 4,
      "note": 76,
      "start": 0.6678,
      "duration": 0.1662,
      "velocity": 112,
      "chip": "ym2612"
    },
    {
      "channel": 5,
      "note": 76,
      "start": 0.6683,
      "duration": 0.1662,
      "velocity": 112,
      "chip": "ym2612"
    },
    {
      "channel": 1,
      "note": 81,
      "start": 0.8329,
      "duration": 0.1244,
      "velocity": 112,
      "chip": "ym2612"
    },
    {
      "channel": 4,
      "note": 78,
      "start": 0.8344,
      "duration": 0.1242,
      "velocity": 112,
      "chip": "ym2612"
    },
    {
      "channel": 5,
      "note": 78,
      "start": 0.8349,
      "duration": 0.1242,
      "velocity": 112,
      "chip": "ym2612"
    },
    {
      "channel": 1,
      "note": 80,
      "start": 0.9577,
      "duration": 0.1244,
      "velocity": 112,
      "chip": "ym2612"
    },
    {
      "channel": 4,
      "note": 73,
      "start": 0.959,
      "duration": 0.1246,
      "velocity": 112,
      "chip": "ym2612"
    },
    {
      "channel": 5,
      "note": 73,
      "start": 0.9595,
      "duration": 0.125,
      "velocity": 112,
      "chip": "ym2612"
    },
    {
      "channel": 1,
      "note": 78,
      "start": 1.0825,
      "duration": 0.166,
      "velocity": 112,
      "chip": "ym2612"
    },
    {
      "channel": 4,
      "note": 85,
      "start": 1.0841,
      "duration": 0.1657,
      "velocity": 112,
      "chip": "ym2612"
    },
    {
      "channel": 5,
      "note": 85,
      "start": 1.0848,
      "duration": 0.1655,
      "velocity": 112,
      "chip": "ym2612"
    },
    {
      "channel": 1,
      "note": 76,
      "start": 1.2489,
      "duration": 0.1248,
      "velocity": 112,
      "chip": "ym2612"
    },
    {
      "channel": 4,
      "note": 83,
      "start": 1.2502,
      "duration": 0.1247,
      "velocity": 112,
      "chip": "ym2612"
    },
    {
      "channel": 5,
      "note": 83,
      "start": 1.2507,
      "duration": 0.1248,
      "velocity": 112,
      "chip": "ym2612"
    },
    {
      "channel": 0,
      "note": 49,
      "start": 1.3735,
      "duration": 0.291,
      "velocity": 112,
      "chip": "ym2612"
    },
    {
      "channel": 1,
      "note": 78,
      "start": 1.374,
      "duration": 0.1244,
      "velocity": 112,
      "chip": "ym2612"
    },
    {
      "channel": 4,
      "note": 81,
      "start": 1.3753,
      "duration": 0.1244,
      "velocity": 112,
      "chip": "ym2612"
    },
    {
      "channel": 5,
      "note": 81,
      "start": 1.3758,
      "duration": 0.1245,
      "velocity": 112,
      "chip": "ym2612"
    },
    {
      "channel": 1,
      "note": 73,
      "start": 1.4988,
      "duration": 0.1661,
      "velocity": 112,
      "chip": "ym2612"
    },
    {
      "channel": 4,
      "note": 80,
      "start": 1.5001,
      "duration": 0.166,
      "velocity": 112,
      "chip": "ym2612"
    },
    {
      "channel": 5,
      "note": 80,
      "start": 1.5006,
      "duration": 0.1661,
      "velocity": 112,
      "chip": "ym2612"
    },
    {
      "channel": 1,
      "note": 85,
      "start": 1.6651,
      "duration": 0.1243,
      "velocity": 112,
      "chip": "ym2612"
    },
    {
      "channel": 4,
      "note": 78,
      "start": 1.6665,
      "duration": 0.1242,
      "velocity": 112,
      "chip": "ym2612"
    },
    {
      "channel": 5,
      "note": 78,
      "start": 1.667,
      "duration": 0.1243,
      "velocity": 112,
      "chip": "ym2612"
    },
    {
      "channel": 1,
      "note": 83,
      "start": 1.7898,
      "duration": 0.1248,
      "velocity": 112,
      "chip": "ym2612"
    },
    {
      "channel": 4,
      "note": 76,
      "start": 1.7911,
      "duration": 0.1248,
      "velocity": 112,
      "chip": "ym2612"
    },
    {
      "channel": 5,
      "note": 76,
      "start": 1.7916,
      "duration": 0.1248,
      "velocity": 112,
      "chip": "ym2612"
    },
    {
      "channel": 0,
      "note": 49,
      "start": 1.9144,
      "duration": 0.291,
      "velocity": 112,
      "chip": "ym2612"
    },
    {
      "channel": 1,
      "note": 81,
      "start": 1.915,
      "duration": 0.1659,
      "velocity": 112,
      "chip": "ym2612"
    },
    {
      "channel": 4,
      "note": 78,
      "start": 1.9162,
      "duration": 0.1661,
      "velocity": 112,
      "chip": "ym2612"
    },
    {
      "channel": 5,
      "note": 78,
      "start": 1.9168,
      "duration": 0.1659,
      "velocity": 112,
      "chip": "ym2612"
    },
    {
      "channel": 1,
      "note": 80,
      "start": 2.0812,
      "duration": 0.1246,
      "velocity": 112,
      "chip": "ym2612"
    },
    {
      "channel": 4,
      "note": 73,
      "start": 2.0826,
      "duration": 0.1246,
      "velocity": 112,
      "chip": "ym2612"
    },
    {
      "channel": 5,
      "note": 73,
      "start": 2.0832,
      "duration": 0.1249,
      "velocity": 112,
      "chip": "ym2612"
    },
    {
      "channel": 0,
      "note": 52,
      "start": 2.2057,
      "duration": 0.5405,
      "velocity": 112,
      "chip": "ym2612"
    },
    {
      "channel": 1,
      "note": 78,
      "start": 2.2062,
      "duration": 0.1244,
      "velocity": 112,
      "chip": "ym2612"
    },
    {
      "channel": 4,
      "note": 85,
      "start": 2.2076,
      "duration": 0.1242,
      "velocity": 112,
      "chip": "ym2612"
    },
    {
      "channel": 5,
      "note": 85,
      "start": 2.2085,
      "duration": 0.1239,
      "velocity": 112,
      "chip": "ym2612"
    },
    {
      "channel": 1,
      "note": 76,
      "start": 2.3309,
      "duration": 0.1661,
      "velocity": 112,
      "chip": "ym2612"
    },
    {
      "channel": 4,
      "note": 83,
      "start": 2.3322,
      "duration": 0.166,
      "velocity": 112,
      "chip": "ym2612"
    },
    {
      "channel": 5,
      "note": 83,
      "start": 2.3327,
      "duration": 0.1661,
      "velocity": 112,
      "chip": "ym2612"
    },
    {
      "channel": 1,
      "note": 78,
      "start": 2.4973,
      "duration": 0.1245,
      "velocity": 112,
      "chip": "ym2612"
    },
    {
      "channel": 4,
      "note": 81,
      "start": 2.4986,
      "duration": 0.1246,
      "velocity": 112,
      "chip": "ym2612"
    },
    {
      "channel": 5,
      "note": 81,
      "start": 2.4992,
      "duration": 0.1245,
      "velocity": 112,
      "chip": "ym2612"
    },
    {
      "channel": 1,
      "note": 73,
      "start": 2.6221,
      "duration": 0.1248,
      "velocity": 112,
      "chip": "ym2612"
    },
    {
      "channel": 4,
      "note": 80,
      "start": 2.6234,
      "duration": 0.1246,
      "velocity": 112,
      "chip": "ym2612"
    },
    {
      "channel": 5,
      "note": 80,
      "start": 2.6241,
      "duration": 0.1246,
      "velocity": 112,
      "chip": "ym2612"
    },
    {
      "channel": 0,
      "note": 54,
      "start": 2.7466,
      "duration": 0.5822,
      "velocity": 112,
      "chip": "ym2612"
    },
    {
      "channel": 1,
      "note": 85,
      "start": 2.7471,
      "duration": 0.1659,
      "velocity": 112,
      "chip": "ym2612"
    },
    {
      "channel": 4,
      "note": 78,
      "start": 2.7485,
      "duration": 0.1659,
      "velocity": 112,
      "chip": "ym2612"
    },
    {
      "channel": 5,
      "note": 78,
      "start": 2.749,
      "duration": 0.1659,
      "velocity": 112,
      "chip": "ym2612"
    },
    {
      "channel": 1,
      "note": 83,
      "start": 2.9134,
      "duration": 0.1244,
      "velocity": 112,
      "chip": "ym2612"
    },
    {
      "channel": 4,
      "note": 76,
      "start": 2.9146,
      "duration": 0.1246,
      "velocity": 112,
      "chip": "ym2612"
    },
    {
      "channel": 5,
      "note": 76,
      "start": 2.9153,
      "duration": 0.1244,
      "velocity": 112,
      "chip": "ym2612"
    },
    {
      "channel": 1,
      "note": 81,
      "start": 3.0383,
      "duration": 0.1244,
      "velocity": 112,
      "chip": "ym2612"
    },
    {
      "channel": 4,
      "note": 78,
      "start": 3.0395,
      "duration": 0.1246,
      "velocity": 112,
      "chip": "ym2612"
    },
    {
      "channel": 5,
      "note": 78,
      "start": 3.0401,
      "duration": 0.1244,
      "velocity": 112,
      "chip": "ym2612"
    },
    {
      "channel": 1,
      "note": 80,
      "start": 3.1631,
      "duration": 0.1661,
      "velocity": 112,
      "chip": "ym2612"
    },
    {
      "channel": 4,
      "note": 73,
      "start": 3.1645,
      "duration": 0.1662,
      "velocity": 112,
      "chip": "ym2612"
    },
    {
      "channel": 5,
      "note": 73,
      "start": 3.1649,
      "duration": 0.1666,
      "velocity": 112,
      "chip": "ym2612"
    },
    {
      "channel": 0,
      "note": 47,
      "start": 3.3291,
      "duration": 0.5406,
      "velocity": 112,
      "chip": "ym2612"
    },
    {
      "channel": 1,
      "note": 78,
      "start": 3.3297,
      "duration": 0.1242,
      "velocity": 112,
      "chip": "ym2612"
    },
    {
      "channel": 4,
      "note": 85,
      "start": 3.3311,
      "duration": 0.1242,
      "velocity": 112,
      "chip": "ym2612"
    },
    {
      "channel": 5,
      "note": 85,
      "start": 3.3318,
      "duration": 0.1239,
      "velocity": 112,
      "chip": "ym2612"
    },
    {
      "channel": 1,
      "note": 76,
      "start": 3.4543,
      "duration": 0.1244,
      "velocity": 112,
      "chip": "ym2612"
    },
    {
      "channel": 4,
      "note": 83,
      "start": 3.4557,
      "duration": 0.1244,
      "velocity": 112,
      "chip": "ym2612"
    },
    {
      "channel": 5,
      "note": 83,
      "start": 3.4561,
      "duration": 0.1244,
      "velocity": 112,
      "chip": "ym2612"
    },
    {
      "channel": 1,
      "note": 78,
      "start": 3.5792,
      "duration": 0.1661,
      "velocity": 112,
      "chip": "ym2612"
    },
    {
      "channel": 4,
      "note": 81,
      "start": 3.5805,
      "duration": 0.1661,
      "velocity": 112,
      "chip": "ym2612"
    },
    {
      "channel": 5,
      "note": 81,
      "start": 3.581,
      "duration": 0.1662,
      "velocity": 112,
      "chip": "ym2612"
    },
    {
      "channel": 1,
      "note": 73,
      "start": 3.7456,
      "duration": 0.1248,
      "velocity": 112,
      "chip": "ym2612"
    },
    {
      "channel": 4,
      "note": 80,
      "start": 3.7469,
      "duration": 0.1246,
      "velocity": 112,
      "chip": "ym2612"
    },
    {
      "channel": 5,
      "note": 80,
      "start": 3.7476,
      "duration": 0.1246,
      "velocity": 112,
      "chip": "ym2612"
    },
    {
      "channel": 0,
      "note": 49,
      "start": 3.8701,
      "duration": 0.5406,
      "velocity": 112,
      "chip": "ym2612"
    },
    {
      "channel": 1,
      "note": 85,
      "start": 3.8706,
      "duration": 0.1243,
      "velocity": 112,
      "chip": "ym2612"
    },
    {
      "channel": 4,
      "note": 78,
      "start": 3.872,
      "duration": 0.1242,
      "velocity": 112,
      "chip": "ym2612"
    },
    {
      "channel": 5,
      "note": 78,
      "start": 3.8724,
      "duration": 0.1243,
      "velocity": 112,
      "chip": "ym2612"
    },
    {
      "channel": 1,
      "note": 83,
      "start": 3.9952,
      "duration": 0.1661,
      "velocity": 112,
      "chip": "ym2612"
    },
    {
      "channel": 4,
      "note": 76,
      "start": 3.9966,
      "duration": 0.1661,
      "velocity": 112,
      "chip": "ym2612"
    },
    {
      "channel": 5,
      "note": 76,
      "start": 3.997,
      "duration": 0.1661,
      "velocity": 112,
      "chip": "ym2612"
    },
    {
      "channel": 1,
      "note": 81,
      "start": 4.1616,
      "duration": 0.1246,
      "velocity": 112,
      "chip": "ym2612"
    },
    {
      "channel": 4,
      "note": 78,
      "start": 4.1629,
      "duration": 0.1246,
      "velocity": 112,
      "chip": "ym2612"
    },
    {
      "channel": 5,
      "note": 78,
      "start": 4.1636,
      "duration": 0.1244,
      "velocity": 112,
      "chip": "ym2612"
    },
    {
      "channel": 1,
      "note": 80,
      "start": 4.2866,
      "duration": 0.1246,
      "velocity": 112,
      "chip": "ym2612"
    },
    {
      "channel": 4,
      "note": 73,
      "start": 4.2878,
      "duration": 0.125,
      "velocity": 112,
      "chip": "ym2612"
    },
    {
      "channel": 5,
      "note": 73,
      "start": 4.2884,
      "duration": 0.1253,
      "velocity": 112,
      "chip": "ym2612"
    },
    {
      "channel": 0,
      "note": 49,
      "start": 4.411,
      "duration": 0.2908,
      "velocity": 112,
      "chip": "ym2612"
    },
    {
      "channel": 1,
      "note": 78,
      "start": 4.4117,
      "duration": 0.1657,
      "velocity": 112,
      "chip": "ym2612"
    },
    {
      "channel": 4,
      "note": 85,
      "start": 4.4131,
      "duration": 0.1656,
      "velocity": 112,
      "chip": "ym2612"
    },
    {
      "channel": 5,
      "note": 85,
      "start": 4.414,
      "duration": 0.1652,
      "velocity": 112,
      "chip": "ym2612"
    },
    {
      "channel": 1,
      "note": 76,
      "start": 4.5778,
      "duration": 0.1244,
      "velocity": 112,
      "chip": "ym2612"
    },
    {
      "channel": 4,
      "note": 83,
      "start": 4.579,
      "duration": 0.1245,
      "velocity": 112,
      "chip": "ym2612"
    },
    {
      "channel": 5,
      "note": 83,
      "start": 4.5796,
      "duration": 0.1244,
      "velocity": 112,
      "chip": "ym2612"
    },
    {
      "channel": 1,
      "note": 78,
      "start": 4.7026,
      "duration": 0.1242,
      "velocity": 112,
      "chip": "ym2612"
    },
    {
      "channel": 4,
      "note": 81,
      "start": 4.7038,
      "duration": 0.1244,
      "velocity": 112,
      "chip": "ym2612"
    },
    {
      "channel": 5,
      "note": 81,
      "start": 4.7044,
      "duration": 0.1244,
      "velocity": 112,
      "chip": "ym2612"
    },
    {
      "channel": 1,
      "note": 73,
      "start": 4.8273,
      "duration": 0.1664,
      "velocity": 112,
      "chip": "ym2612"
    },
    {
      "channel": 4,
      "note": 80,
      "start": 4.8286,
      "duration": 0.1664,
      "velocity": 112,
      "chip": "ym2612"
    },
    {
      "channel": 5,
      "note": 80,
      "start": 4.8293,
      "duration": 0.1662,
      "velocity": 112,
      "chip": "ym2612"
    },
    {
      "channel": 0,
      "note": 49,
      "start": 4.9934,
      "duration": 0.2494,
      "velocity": 112,
      "chip": "ym2612"
    },
    {
      "channel": 1,
      "note": 85,
      "start": 4.9941,
      "duration": 0.1242,
      "velocity": 112,
      "chip": "ym2612"
    },
    {
      "channel": 4,
      "note": 78,
      "start": 4.9954,
      "duration": 0.1242,
      "velocity": 112,
      "chip": "ym2612"
    },
    {
      "channel": 5,
      "note": 78,
      "start": 4.9959,
      "duration": 0.1242,
      "velocity": 112,
      "chip": "ym2612"
    },
    {
      "channel": 1,
      "note": 83,
      "start": 5.1187,
      "duration": 0.1244,
      "velocity": 112,
      "chip": "ym2612"
    },
    {
      "channel": 4,
      "note": 76,
      "start": 5.12,
      "duration": 0.1244,
      "velocity": 112,
      "chip": "ym2612"
    },
    {
      "channel": 5,
      "note": 76,
      "start": 5.1205,
      "duration": 0.1244,
      "velocity": 112,
      "chip": "ym2612"
    },
    {
      "channel": 1,
      "note": 81,
      "start": 5.2435,
      "duration": 0.166,
      "velocity": 112,
      "chip": "ym2612"
    },
    {
      "channel": 4,
      "note": 78,
      "start": 5.2447,
      "duration": 0.1661,
      "velocity": 112,
      "chip": "ym2612"
    },
    {
      "channel": 5,
      "note": 78,
      "start": 5.2453,
      "duration": 0.166,
      "velocity": 112,
      "chip": "ym2612"
    },
    {
      "channel": 1,
      "note": 80,
      "start": 5.4099,
      "duration": 0.1244,
      "velocity": 112,
      "chip": "ym2612"
    },
    {
      "channel": 4,
      "note": 73,
      "start": 5.4111,
      "duration": 0.1246,
      "velocity": 112,
      "chip": "ym2612"
    },
    {
      "channel": 5,
      "note": 73,
      "start": 5.4117,
      "duration": 0.1248,
      "velocity": 112,
      "chip": "ym2612"
    },
    {
      "channel": 1,
      "note": 78,
      "start": 5.5345,
      "duration": 0.1245,
      "velocity": 112,
      "chip": "ym2612"
    },
    {
      "channel": 4,
      "note": 85,
      "start": 5.5361,
      "duration": 0.1242,
      "velocity": 112,
      "chip": "ym2612"
    },
    {
      "channel": 5,
      "note": 85,
      "start": 5.5368,
      "duration": 0.1241,
      "velocity": 112,
      "chip": "ym2612"
    },
    {
      "channel": 1,
      "note": 76,
      "start": 5.6594,
      "duration": 0.1665,
      "velocity": 112,
      "chip": "ym2612"
    },
    {
      "channel": 4,
      "note": 83,
      "start": 5.6607,
      "duration": 0.1664,
      "velocity": 112,
      "chip": "ym2612"
    },
    {
      "channel": 5,
      "note": 83,
      "start": 5.6613,
      "duration": 0.1664,
      "velocity": 112,
      "chip": "ym2612"
    },
    {
      "channel": 0,
      "note": 49,
      "start": 5.8257,
      "duration": 0.2493,
      "velocity": 112,
      "chip": "ym2612"
    },
    {
      "channel": 1,
      "note": 78,
      "start": 5.8261,
      "duration": 0.1244,
      "velocity": 112,
      "chip": "ym2612"
    },
    {
      "channel": 4,
      "note": 81,
      "start": 5.8275,
      "duration": 0.1244,
      "velocity": 112,
      "chip": "ym2612"
    },
    {
      "channel": 5,
      "note": 81,
      "start": 5.828,
      "duration": 0.1244,
      "velocity": 112,
      "chip": "ym2612"
    },
    {
      "channel": 1,
      "note": 73,
      "start": 5.9508,
      "duration": 0.1246,
      "velocity": 112,
      "chip": "ym2612"
    },
    {
      "channel": 4,
      "note": 80,
      "start": 5.9522,
      "duration": 0.1245,
      "velocity": 112,
      "chip": "ym2612"
    },
    {
      "channel": 5,
      "note": 80,
      "start": 5.9528,
      "duration": 0.1244,
      "velocity": 112,
      "chip": "ym2612"
    },
    {
      "channel": 1,
      "note": 85,
      "start": 6.0758,
      "duration": 0.1658,
      "velocity": 112,
      "chip": "ym2612"
    },
    {
      "channel": 4,
      "note": 78,
      "start": 6.077,
      "duration": 0.1659,
      "velocity": 112,
      "chip": "ym2612"
    },
    {
      "channel": 5,
      "note": 78,
      "start": 6.0776,
      "duration": 0.1658,
      "velocity": 112,
      "chip": "ym2612"
    },
    {
      "channel": 1,
      "note": 83,
      "start": 6.242,
      "duration": 0.1248,
      "velocity": 112,
      "chip": "ym2612"
    },
    {
      "channel": 4,
      "note": 76,
      "start": 6.2433,
      "duration": 0.1247,
      "velocity": 112,
      "chip": "ym2612"
    },
    {
      "channel": 5,
      "note": 76,
      "start": 6.2438,
      "duration": 0.1248,
      "velocity": 112,
      "chip": "ym2612"
    },
    {
      "channel": 0,
      "note": 49,
      "start": 6.3666,
      "duration": 0.291,
      "velocity": 112,
      "chip": "ym2612"
    },
    {
      "channel": 1,
      "note": 81,
      "start": 6.3671,
      "duration": 0.1244,
      "velocity": 112,
      "chip": "ym2612"
    },
    {
      "channel": 4,
      "note": 78,
      "start": 6.3684,
      "duration": 0.1244,
      "velocity": 112,
      "chip": "ym2612"
    },
    {
      "channel": 5,
      "note": 78,
      "start": 6.3689,
      "duration": 0.1244,
      "velocity": 112,
      "chip": "ym2612"
    },
    {
      "channel": 1,
      "note": 80,
      "start": 6.4918,
      "duration": 0.1661,
      "velocity": 112,
      "chip": "ym2612"
    },
    {
      "channel": 4,
      "note": 73,
      "start": 6.4932,
      "duration": 0.1662,
      "velocity": 112,
      "chip": "ym2612"
    },
    {
      "channel": 5,
      "note": 73,
      "start": 6.4937,
      "duration": 0.1666,
      "velocity": 112,
      "chip": "ym2612"
    },
    {
      "channel": 0,
      "note": 52,
      "start": 6.6578,
      "duration": 0.5406,
      "velocity": 112,
      "chip": "ym2612"
    },
    {
      "channel": 1,
      "note": 78,
      "start": 6.6584,
      "duration": 0.1242,
      "velocity": 112,
      "chip": "ym2612"
    },
    {
      "channel": 4,
      "note": 85,
      "start": 6.6598,
      "duration": 0.1242,
      "velocity": 112,
      "chip": "ym2612"
    },
    {
      "channel": 5,
      "note": 85,
      "start": 6.6605,
      "duration": 0.1239,
      "velocity": 112,
      "chip": "ym2612"
    },
    {
      "channel": 1,
      "note": 76,
      "start": 6.783,
      "duration": 0.1244,
      "velocity": 112,
      "chip": "ym2612"
    },
    {
      "channel": 4,
      "note": 83,
      "start": 6.7844,
      "duration": 0.1244,
      "velocity": 112,
      "chip": "ym2612"
    },
    {
      "channel": 5,
      "note": 83,
      "start": 6.7849,
      "duration": 0.1244,
      "velocity": 112,
      "chip": "ym2612"
    },
    {
      "channel": 1,
      "note": 78,
      "start": 6.9079,
      "duration": 0.1661,
      "velocity": 112,
      "chip": "ym2612"
    },
    {
      "channel": 4,
      "note": 81,
      "start": 6.9092,
      "duration": 0.1661,
      "velocity": 112,
      "chip": "ym2612"
    },
    {
      "channel": 5,
      "note": 81,
      "start": 6.9097,
      "duration": 0.1662,
      "velocity": 112,
      "chip": "ym2612"
    },
    {
      "channel": 1,
      "note": 73,
      "start": 7.0743,
      "duration": 0.1248,
      "velocity": 112,
      "chip": "ym2612"
    },
    {
      "channel": 4,
      "note": 80,
      "start": 7.0756,
      "duration": 0.1246,
      "velocity": 112,
      "chip": "ym2612"
    },
    {
      "channel": 5,
      "note": 80,
      "start": 7.0763,
      "duration": 0.1246,
      "velocity": 112,
      "chip": "ym2612"
    },
    {
      "channel": 0,
      "note": 54,
      "start": 7.1988,
      "duration": 0.5405,
      "velocity": 112,
      "chip": "ym2612"
    },
    {
      "channel": 1,
      "note": 85,
      "start": 7.1993,
      "duration": 0.1243,
      "velocity": 112,
      "chip": "ym2612"
    },
    {
      "channel": 4,
      "note": 78,
      "start": 7.2006,
      "duration": 0.1242,
      "velocity": 112,
      "chip": "ym2612"
    },
    {
      "channel": 5,
      "note": 78,
      "start": 7.2011,
      "duration": 0.1243,
      "velocity": 112,
      "chip": "ym2612"
    },
    {
      "channel": 1,
      "note": 83,
      "start": 7.3239,
      "duration": 0.1661,
      "velocity": 112,
      "chip": "ym2612"
    },
    {
      "channel": 4,
      "note": 76,
      "start": 7.3253,
      "duration": 0.1661,
      "velocity": 112,
      "chip": "ym2612"
    },
    {
      "channel": 5,
      "note": 76,
      "start": 7.3257,
      "duration": 0.1661,
      "velocity": 112,
      "chip": "ym2612"
    },
    {
      "channel": 1,
      "note": 81,
      "start": 7.4903,
      "duration": 0.1246,
      "velocity": 112,
      "chip": "ym2612"
    },
    {
      "channel": 4,
      "note": 78,
      "start": 7.4917,
      "duration": 0.1246,
      "velocity": 112,
      "chip": "ym2612"
    },
    {
      "channel": 5,
      "note": 78,
      "start": 7.4923,
      "duration": 0.1244,
      "velocity": 112,
      "chip": "ym2612"
    },
    {
      "channel": 1,
      "note": 80,
      "start": 7.6153,
      "duration": 0.1244,
      "velocity": 112,
      "chip": "ym2612"
    },
    {
      "channel": 4,
      "note": 73,
      "start": 7.6165,
      "duration": 0.1248,
      "velocity": 112,
      "chip": "ym2612"
    },
    {
      "channel": 5,
      "note": 73,
      "start": 7.6171,
      "duration": 0.1249,
      "velocity": 112,
      "chip": "ym2612"
    },
    {
      "channel": 0,
      "note": 47,
      "start": 7.7397,
      "duration": 0.5822,
      "velocity": 112,
      "chip": "ym2612"
    },
    {
      "channel": 1,
      "note": 78,
      "start": 7.7402,
      "duration": 0.1659,
      "velocity": 112,
      "chip": "ym2612"
    },
    {
      "channel": 4,
      "note": 85,
      "start": 7.7415,
      "duration": 0.1659,
      "velocity": 112,
      "chip": "ym2612"
    },
    {
      "channel": 5,
      "note": 85,
      "start": 7.7424,
      "duration": 0.1655,
      "velocity": 112,
      "chip": "ym2612"
    },
    {
      "channel": 1,
      "note": 76,
      "start": 7.9065,
      "duration": 0.1244,
      "velocity": 112,
      "chip": "ym2612"
    },
    {
      "channel": 4,
      "note": 83,
      "start": 7.9077,
      "duration": 0.1245,
      "velocity": 112,
      "chip": "ym2612"
    },
    {
      "channel": 5,
      "note": 83,
      "start": 7.9083,
      "duration": 0.1244,
      "velocity": 112,
      "chip": "ym2612"
    },
    {
      "channel": 1,
      "note": 78,
      "start": 8.0313,
      "duration": 0.166,
      "velocity": 112,
      "chip": "ym2612"
    },
    {
      "channel": 4,
      "note": 81,
      "start": 8.0325,
      "duration": 0.1661,
      "velocity": 112,
      "chip": "ym2612"
    },
    {
      "channel": 5,
      "note": 81,
      "start": 8.0332,
      "duration": 0.1662,
      "velocity": 112,
      "chip": "ym2612"
    },
    {
      "channel": 1,
      "note": 73,
      "start": 8.1977,
      "duration": 0.1246,
      "velocity": 112,
      "chip": "ym2612"
    },
    {
      "channel": 4,
      "note": 80,
      "start": 8.1991,
      "duration": 0.1244,
      "velocity": 112,
      "chip": "ym2612"
    },
    {
      "channel": 5,
      "note": 80,
      "start": 8.1997,
      "duration": 0.1244,
      "velocity": 112,
      "chip": "ym2612"
    },
    {
      "channel": 0,
      "note": 49,
      "start": 8.3221,
      "duration": 0.5408,
      "velocity": 112,
      "chip": "ym2612"
    },
    {
      "channel": 1,
      "note": 85,
      "start": 8.3228,
      "duration": 0.1242,
      "velocity": 112,
      "chip": "ym2612"
    },
    {
      "channel": 4,
      "note": 78,
      "start": 8.3239,
      "duration": 0.1242,
      "velocity": 112,
      "chip": "ym2612"
    },
    {
      "channel": 5,
      "note": 78,
      "start": 8.3244,
      "duration": 0.1243,
      "velocity": 112,
      "chip": "ym2612"
    },
    {
      "channel": 1,
      "note": 83,
      "start": 8.4474,
      "duration": 0.1661,
      "velocity": 112,
      "chip": "ym2612"
    },
    {
      "channel": 4,
      "note": 76,
      "start": 8.4485,
      "duration": 0.1662,
      "velocity": 112,
      "chip": "ym2612"
    },
    {
      "channel": 5,
      "note": 76,
      "start": 8.449,
      "duration": 0.1663,
      "velocity": 112,
      "chip": "ym2612"
    },
    {
      "channel": 2,
      "note": 69,
      "start": 8.4894,
      "duration": 0.2077,
      "velocity": 123,
      "chip": "ym2612"
    },
    {
      "channel": 1,
      "note": 81,
      "start": 8.6138,
      "duration": 0.1246,
      "velocity": 112,
      "chip": "ym2612"
    },
    {
      "channel": 4,
      "note": 78,
      "start": 8.6151,
      "duration": 0.1244,
      "velocity": 112,
      "chip": "ym2612"
    },
    {
      "channel": 5,
      "note": 78,
      "start": 8.6156,
      "duration": 0.1244,
      "velocity": 112,
      "chip": "ym2612"
    },
    {
      "channel": 1,
      "note": 80,
      "start": 8.7386,
      "duration": 0.1248,
      "velocity": 112,
      "chip": "ym2612"
    },
    {
      "channel": 4,
      "note": 73,
      "start": 8.7398,
      "duration": 0.1251,
      "velocity": 112,
      "chip": "ym2612"
    },
    {
      "channel": 5,
      "note": 73,
      "start": 8.7404,
      "duration": 0.1255,
      "velocity": 112,
      "chip": "ym2612"
    },
    {
      "channel": 2,
      "note": 71,
      "start": 8.7806,
      "duration": 83.8254,
      "velocity": 123,
      "chip": "ym2612"
    },
    {
      "channel": 0,
      "note": 49,
      "start": 8.8632,
      "duration": 83.7427,
      "velocity": 112,
      "chip": "ym2612"
    },
    {
      "channel": 1,
      "note": 78,
      "start": 8.8639,
      "duration": 83.7421,
      "velocity": 112,
      "chip": "ym2612"
    },
    {
      "channel": 4,
      "note": 85,
      "start": 8.8653,
      "duration": 83.7407,
      "velocity": 112,
      "chip": "ym2612"
    },
    {
      "channel": 5,
      "note": 85,
      "start": 8.8662,
      "duration": 83.7398,
      "velocity": 112,
      "chip": "ym2612"
    }
  ]
}