{
  "track_name": "06 - Abduction",
  "duration_sec": 86.678,
  "sample_rate": 44100,
  "note_count": 1389,
  "unique_pitches": 39,
  "pitch_range": 63,
  "avg_note_duration": 0.3436,
  "reconstruction_stats": {
    "notes_reconstructed": 1389,
    "keyon_events": 1389,
    "keyoff_events": 1384,
    "orphan_keyons": 5,
    "unique_pitches": 39,
    "pitch_range": 63,
    "avg_duration_sec": 0.3436
  },
  "metadata": {
    "source": "P\\Phantasy Star III\\06 - Abduction.vgz"
  },
  "notes": [
    {
      "channel": 0,
      "note": 78,
      "start": 0.0,
      "duration": 0.188,
      "velocity": 109,
      "chip": "ym2612"
    },
    {
      "channel": 1,
      "note": 42,
      "start": 0.0036,
      "duration": 3.0428,
      "velocity": 115,
      "chip": "ym2612"
    },
    {
      "channel": 3,
      "note": 78,
      "start": 0.0069,
      "duration": 0.1821,
      "velocity": 109,
      "chip": "ym2612"
    },
    {
      "channel": 4,
      "note": 90,
      "start": 0.0103,
      "duration": 0.1795,
      "velocity": 82,
      "chip": "ym2612"
    },
    {
      "channel": 5,
      "note": 42,
      "start": 0.0137,
      "duration": 3.0353,
      "velocity": 95,
      "chip": "ym2612"
    },
    {
      "channel": 0,
      "note": 66,
      "start": 0.1885,
      "duration": 0.1899,
      "velocity": 109,
      "chip": "ym2612"
    },
    {
      "channel": 3,
      "note": 66,
      "start": 0.1896,
      "duration": 0.1899,
      "velocity": 109,
      "chip": "ym2612"
    },
    {
      "channel": 4,
      "note": 78,
      "start": 0.1903,
      "duration": 0.19,
      "velocity": 82,
      "chip": "ym2612"
    },
    {
      "channel": 0,
      "note": 76,
      "start": 0.379,
      "duration": 0.19,
      "velocity": 109,
      "chip": "ym2612"
    },
    {
      "channel": 3,
      "note": 76,
      "start": 0.3801,
      "duration": 0.1899,
      "velocity": 109,
      "chip": "ym2612"
    },
    {
      "channel": 4,
      "note": 88,
      "start": 0.3808,
      "duration": 0.1899,
      "velocity": 82,
      "chip": "ym2612"
    },
    {
      "channel": 0,
      "note": 66,
      "start": 0.5695,
      "duration": 0.19,
      "velocity": 109,
      "chip": "ym2612"
    },
    {
      "channel": 3,
      "note": 66,
      "start": 0.5706,
      "duration": 0.1899,
      "velocity": 109,
      "chip": "ym2612"
    },
    {
      "channel": 4,
      "note": 78,
      "start": 0.5713,
      "duration": 0.19,
      "velocity": 82,
      "chip": "ym2612"
    },
    {
      "channel": 0,
      "note": 74,
      "start": 0.76,
      "duration": 0.1899,
      "velocity": 109,
      "chip": "ym2612"
    },
    {
      "channel": 3,
      "note": 74,
      "start": 0.7611,
      "duration": 0.1898,
      "velocity": 109,
      "chip": "ym2612"
    },
    {
      "channel": 4,
      "note": 86,
      "start": 0.7619,
      "duration": 0.1898,
      "velocity": 82,
      "chip": "ym2612"
    },
    {
      "channel": 0,
      "note": 66,
      "start": 0.9505,
      "duration": 0.19,
      "velocity": 109,
      "chip": "ym2612"
    },
    {
      "channel": 3,
      "note": 66,
      "start": 0.9516,
      "duration": 0.19,
      "velocity": 109,
      "chip": "ym2612"
    },
    {
      "channel": 4,
      "note": 78,
      "start": 0.9523,
      "duration": 0.1899,
      "velocity": 82,
      "chip": "ym2612"
    },
    {
      "channel": 0,
      "note": 73,
      "start": 1.141,
      "duration": 0.19,
      "velocity": 109,
      "chip": "ym2612"
    },
    {
      "channel": 3,
      "note": 73,
      "start": 1.1421,
      "duration": 0.19,
      "velocity": 109,
      "chip": "ym2612"
    },
    {
      "channel": 4,
      "note": 85,
      "start": 1.1429,
      "duration": 0.19,
      "velocity": 82,
      "chip": "ym2612"
    },
    {
      "channel": 0,
      "note": 66,
      "start": 1.3316,
      "duration": 0.1898,
      "velocity": 109,
      "chip": "ym2612"
    },
    {
      "channel": 3,
      "note": 66,
      "start": 1.3327,
      "duration": 0.1898,
      "velocity": 109,
      "chip": "ym2612"
    },
    {
      "channel": 4,
      "note": 78,
      "start": 1.3334,
      "duration": 0.1898,
      "velocity": 82,
      "chip": "ym2612"
    },
    {
      "channel": 0,
      "note": 71,
      "start": 1.522,
      "duration": 0.19,
      "velocity": 109,
      "chip": "ym2612"
    },
    {
      "channel": 3,
      "note": 71,
      "start": 1.5231,
      "duration": 0.19,
      "velocity": 109,
      "chip": "ym2612"
    },
    {
      "channel": 4,
      "note": 83,
      "start": 1.5239,
      "duration": 0.1899,
      "velocity": 82,
      "chip": "ym2612"
    },
    {
      "channel": 0,
      "note": 66,
      "start": 1.7126,
      "duration": 0.19,
      "velocity": 109,
      "chip": "ym2612"
    },
    {
      "channel": 3,
      "note": 66,
      "start": 1.7137,
      "duration": 0.19,
      "velocity": 109,
      "chip": "ym2612"
    },
    {
      "channel": 4,
      "note": 78,
      "start": 1.7144,
      "duration": 0.1899,
      "velocity": 82,
      "chip": "ym2612"
    },
    {
      "channel": 0,
      "note": 69,
      "start": 1.9031,
      "duration": 0.1899,
      "velocity": 109,
      "chip": "ym2612"
    },
    {
      "channel": 3,
      "note": 69,
      "start": 1.9042,
      "duration": 0.1899,
      "velocity": 109,
      "chip": "ym2612"
    },
    {
      "channel": 4,
      "note": 81,
      "start": 1.905,
      "duration": 0.1899,
      "velocity": 82,
      "chip": "ym2612"
    },
    {
      "channel": 0,
      "note": 66,
      "start": 2.0936,
      "duration": 0.1898,
      "velocity": 109,
      "chip": "ym2612"
    },
    {
      "channel": 3,
      "note": 66,
      "start": 2.0947,
      "duration": 0.1898,
      "velocity": 109,
      "chip": "ym2612"
    },
    {
      "channel": 4,
      "note": 78,
      "start": 2.0954,
      "duration": 0.1898,
      "velocity": 82,
      "chip": "ym2612"
    },
    {
      "channel": 0,
      "note": 71,
      "start": 2.284,
      "duration": 0.1899,
      "velocity": 109,
      "chip": "ym2612"
    },
    {
      "channel": 3,
      "note": 71,
      "start": 2.2851,
      "duration": 0.1899,
      "velocity": 109,
      "chip": "ym2612"
    },
    {
      "channel": 4,
      "note": 83,
      "start": 2.2859,
      "duration": 0.1899,
      "velocity": 82,
      "chip": "ym2612"
    },
    {
      "channel": 0,
      "note": 66,
      "start": 2.4746,
      "duration": 0.19,
      "velocity": 109,
      "chip": "ym2612"
    },
    {
      "channel": 3,
      "note": 66,
      "start": 2.4756,
      "duration": 0.19,
      "velocity": 109,
      "chip": "ym2612"
    },
    {
      "channel": 4,
      "note": 78,
      "start": 2.4763,
      "duration": 0.1901,
      "velocity": 82,
      "chip": "ym2612"
    },
    {
      "channel": 0,
      "note": 73,
      "start": 2.6651,
      "duration": 0.1898,
      "velocity": 109,
      "chip": "ym2612"
    },
    {
      "channel": 3,
      "note": 73,
      "start": 2.6662,
      "duration": 0.1898,
      "velocity": 109,
      "chip": "ym2612"
    },
    {
      "channel": 4,
      "note": 85,
      "start": 2.667,
      "duration": 0.1898,
      "velocity": 82,
      "chip": "ym2612"
    },
    {
      "channel": 0,
      "note": 66,
      "start": 2.8555,
      "duration": 0.1902,
      "velocity": 109,
      "chip": "ym2612"
    },
    {
      "channel": 3,
      "note": 66,
      "start": 2.8566,
      "duration": 0.1907,
      "velocity": 109,
      "chip": "ym2612"
    },
    {
      "channel": 4,
      "note": 78,
      "start": 2.8573,
      "duration": 0.1909,
      "velocity": 82,
      "chip": "ym2612"
    },
    {
      "channel": 0,
      "note": 78,
      "start": 3.0463,
      "duration": 0.1896,
      "velocity": 109,
      "chip": "ym2612"
    },
    {
      "channel": 1,
      "note": 40,
      "start": 3.047,
      "duration": 3.0475,
      "velocity": 115,
      "chip": "ym2612"
    },
    {
      "channel": 3,
      "note": 78,
      "start": 3.048,
      "duration": 0.189,
      "velocity": 109,
      "chip": "ym2612"
    },
    {
      "channel": 4,
      "note": 90,
      "start": 3.0488,
      "duration": 0.189,
      "velocity": 82,
      "chip": "ym2612"
    },
    {
      "channel": 5,
      "note": 40,
      "start": 3.0495,
      "duration": 3.0474,
      "velocity": 95,
      "chip": "ym2612"
    },
    {
      "channel": 0,
      "note": 66,
      "start": 3.2365,
      "duration": 0.1901,
      "velocity": 109,
      "chip": "ym2612"
    },
    {
      "channel": 3,
      "note": 66,
      "start": 3.2376,
      "duration": 0.1901,
      "velocity": 109,
      "chip": "ym2612"
    },
    {
      "channel": 4,
      "note": 78,
      "start": 3.2383,
      "duration": 0.19,
      "velocity": 82,
      "chip": "ym2612"
    },
    {
      "channel": 0,
      "note": 76,
      "start": 3.4272,
      "duration": 0.1899,
      "velocity": 109,
      "chip": "ym2612"
    },
    {
      "channel": 3,
      "note": 76,
      "start": 3.4282,
      "duration": 0.1899,
      "velocity": 109,
      "chip": "ym2612"
    },
    {
      "channel": 4,
      "note": 88,
      "start": 3.429,
      "duration": 0.1899,
      "velocity": 82,
      "chip": "ym2612"
    },
    {
      "channel": 0,
      "note": 66,
      "start": 3.6176,
      "duration": 0.1899,
      "velocity": 109,
      "chip": "ym2612"
    },
    {
      "channel": 3,
      "note": 66,
      "start": 3.6187,
      "duration": 0.1899,
      "velocity": 109,
      "chip": "ym2612"
    },
    {
      "channel": 4,
      "note": 78,
      "start": 3.6195,
      "duration": 0.1898,
      "velocity": 82,
      "chip": "ym2612"
    },
    {
      "channel": 0,
      "note": 74,
      "start": 3.8081,
      "duration": 0.19,
      "velocity": 109,
      "chip": "ym2612"
    },
    {
      "channel": 3,
      "note": 74,
      "start": 3.8092,
      "duration": 0.1899,
      "velocity": 109,
      "chip": "ym2612"
    },
    {
      "channel": 4,
      "note": 86,
      "start": 3.8099,
      "duration": 0.19,
      "velocity": 82,
      "chip": "ym2612"
    },
    {
      "channel": 0,
      "note": 66,
      "start": 3.9987,
      "duration": 0.1899,
      "velocity": 109,
      "chip": "ym2612"
    },
    {
      "channel": 3,
      "note": 66,
      "start": 3.9997,
      "duration": 0.1899,
      "velocity": 109,
      "chip": "ym2612"
    },
    {
      "channel": 4,
      "note": 78,
      "start": 4.0004,
      "duration": 0.1899,
      "velocity": 82,
      "chip": "ym2612"
    },
    {
      "channel": 0,
      "note": 73,
      "start": 4.1891,
      "duration": 0.1899,
      "velocity": 109,
      "chip": "ym2612"
    },
    {
      "channel": 3,
      "note": 73,
      "start": 4.1902,
      "duration": 0.1899,
      "velocity": 109,
      "chip": "ym2612"
    },
    {
      "channel": 4,
      "note": 85,
      "start": 4.191,
      "duration": 0.1898,
      "velocity": 82,
      "chip": "ym2612"
    },
    {
      "channel": 0,
      "note": 66,
      "start": 4.3796,
      "duration": 0.19,
      "velocity": 109,
      "chip": "ym2612"
    },
    {
      "channel": 3,
      "note": 66,
      "start": 4.3807,
      "duration": 0.19,
      "velocity": 109,
      "chip": "ym2612"
    },
    {
      "channel": 4,
      "note": 78,
      "start": 4.3815,
      "duration": 0.1898,
      "velocity": 82,
      "chip": "ym2612"
    },
    {
      "channel": 0,
      "note": 71,
      "start": 4.5701,
      "duration": 0.19,
      "velocity": 109,
      "chip": "ym2612"
    },
    {
      "channel": 3,
      "note": 71,
      "start": 4.5712,
      "duration": 0.19,
      "velocity": 109,
      "chip": "ym2612"
    },
    {
      "channel": 4,
      "note": 83,
      "start": 4.572,
      "duration": 0.1899,
      "velocity": 82,
      "chip": "ym2612"
    },
    {
      "channel": 0,
      "note": 66,
      "start": 4.7607,
      "duration": 0.1899,
      "velocity": 109,
      "chip": "ym2612"
    },
    {
      "channel": 3,
      "note": 66,
      "start": 4.7618,
      "duration": 0.1899,
      "velocity": 109,
      "chip": "ym2612"
    },
    {
      "channel": 4,
      "note": 78,
      "start": 4.7625,
      "duration": 0.1899,
      "velocity": 82,
      "chip": "ym2612"
    },
    {
      "channel": 0,
      "note": 69,
      "start": 4.9512,
      "duration": 0.1898,
      "velocity": 109,
      "chip": "ym2612"
    },
    {
      "channel": 3,
      "note": 69,
      "start": 4.9523,
      "duration": 0.1898,
      "velocity": 109,
      "chip": "ym2612"
    },
    {
      "channel": 4,
      "note": 81,
      "start": 4.953,
      "duration": 0.1898,
      "velocity": 82,
      "chip": "ym2612"
    },
    {
      "channel": 0,
      "note": 66,
      "start": 5.1416,
      "duration": 0.19,
      "velocity": 109,
      "chip": "ym2612"
    },
    {
      "channel": 3,
      "note": 66,
      "start": 5.1427,
      "duration": 0.19,
      "velocity": 109,
      "chip": "ym2612"
    },
    {
      "channel": 4,
      "note": 78,
      "start": 5.1434,
      "duration": 0.1901,
      "velocity": 82,
      "chip": "ym2612"
    },
    {
      "channel": 0,
      "note": 71,
      "start": 5.3322,
      "duration": 0.1898,
      "velocity": 109,
      "chip": "ym2612"
    },
    {
      "channel": 3,
      "note": 71,
      "start": 5.3333,
      "duration": 0.1898,
      "velocity": 109,
      "chip": "ym2612"
    },
    {
      "channel": 4,
      "note": 83,
      "start": 5.334,
      "duration": 0.1898,
      "velocity": 82,
      "chip": "ym2612"
    },
    {
      "channel": 0,
      "note": 66,
      "start": 5.5226,
      "duration": 0.19,
      "velocity": 109,
      "chip": "ym2612"
    },
    {
      "channel": 3,
      "note": 66,
      "start": 5.5237,
      "duration": 0.19,
      "velocity": 109,
      "chip": "ym2612"
    },
    {
      "channel": 4,
      "note": 78,
      "start": 5.5244,
      "duration": 0.19,
      "velocity": 82,
      "chip": "ym2612"
    },
    {
      "channel": 0,
      "note": 73,
      "start": 5.7132,
      "duration": 0.19,
      "velocity": 109,
      "chip": "ym2612"
    },
    {
      "channel": 3,
      "note": 73,
      "start": 5.7142,
      "duration": 0.1899,
      "velocity": 109,
      "chip": "ym2612"
    },
    {
      "channel": 4,
      "note": 85,
      "start": 5.7151,
      "duration": 0.1898,
      "velocity": 82,
      "chip": "ym2612"
    },
    {
      "channel": 0,
      "note": 66,
      "start": 5.9037,
      "duration": 0.1901,
      "velocity": 109,
      "chip": "ym2612"
    },
    {
      "channel": 3,
      "note": 66,
      "start": 5.9048,
      "duration": 0.1905,
      "velocity": 109,
      "chip": "ym2612"
    },
    {
      "channel": 4,
      "note": 78,
      "start": 5.9055,
      "duration": 0.1907,
      "velocity": 82,
      "chip": "ym2612"
    },
    {
      "channel": 0,
      "note": 78,
      "start": 6.0943,
      "duration": 0.1898,
      "velocity": 109,
      "chip": "ym2612"
    },
    {
      "channel": 1,
      "note": 39,
      "start": 6.0951,
      "duration": 3.0476,
      "velocity": 115,
      "chip": "ym2612"
    },
    {
      "channel": 3,
      "note": 78,
      "start": 6.0959,
      "duration": 0.1892,
      "velocity": 109,
      "chip": "ym2612"
    },
    {
      "channel": 4,
      "note": 90,
      "start": 6.0968,
      "duration": 0.1891,
      "velocity": 82,
      "chip": "ym2612"
    },
    {
      "channel": 5,
      "note": 39,
      "start": 6.0975,
      "duration": 3.0476,
      "velocity": 95,
      "chip": "ym2612"
    },
    {
      "channel": 0,
      "note": 66,
      "start": 6.2847,
      "duration": 0.1899,
      "velocity": 109,
      "chip": "ym2612"
    },
    {
      "channel": 3,
      "note": 66,
      "start": 6.2857,
      "duration": 0.1899,
      "velocity": 109,
      "chip": "ym2612"
    },
    {
      "channel": 4,
      "note": 78,
      "start": 6.2864,
      "duration": 0.1899,
      "velocity": 82,
      "chip": "ym2612"
    },
    {
      "channel": 0,
      "note": 76,
      "start": 6.4751,
      "duration": 0.1903,
      "velocity": 109,
      "chip": "ym2612"
    },
    {
      "channel": 3,
      "note": 76,
      "start": 6.4762,
      "duration": 0.1903,
      "velocity": 109,
      "chip": "ym2612"
    },
    {
      "channel": 4,
      "note": 88,
      "start": 6.477,
      "duration": 0.1902,
      "velocity": 82,
      "chip": "ym2612"
    },
    {
      "channel": 0,
      "note": 66,
      "start": 6.666,
      "duration": 0.1896,
      "velocity": 109,
      "chip": "ym2612"
    },
    {
      "channel": 3,
      "note": 66,
      "start": 6.6671,
      "duration": 0.1896,
      "velocity": 109,
      "chip": "ym2612"
    },
    {
      "channel": 4,
      "note": 78,
      "start": 6.6678,
      "duration": 0.1896,
      "velocity": 82,
      "chip": "ym2612"
    },
    {
      "channel": 0,
      "note": 74,
      "start": 6.8562,
      "duration": 0.1899,
      "velocity": 109,
      "chip": "ym2612"
    },
    {
      "channel": 3,
      "note": 74,
      "start": 6.8572,
      "duration": 0.1899,
      "velocity": 109,
      "chip": "ym2612"
    },
    {
      "channel": 4,
      "note": 86,
      "start": 6.858,
      "duration": 0.1899,
      "velocity": 82,
      "chip": "ym2612"
    },
    {
      "channel": 0,
      "note": 66,
      "start": 7.0466,
      "duration": 0.19,
      "velocity": 109,
      "chip": "ym2612"
    },
    {
      "channel": 3,
      "note": 66,
      "start": 7.0477,
      "duration": 0.19,
      "velocity": 109,
      "chip": "ym2612"
    },
    {
      "channel": 4,
      "note": 78,
      "start": 7.0485,
      "duration": 0.1899,
      "velocity": 82,
      "chip": "ym2612"
    },
    {
      "channel": 0,
      "note": 73,
      "start": 7.2372,
      "duration": 0.19,
      "velocity": 109,
      "chip": "ym2612"
    },
    {
      "channel": 3,
      "note": 73,
      "start": 7.2383,
      "duration": 0.1899,
      "velocity": 109,
      "chip": "ym2612"
    },
    {
      "channel": 4,
      "note": 85,
      "start": 7.239,
      "duration": 0.1899,
      "velocity": 82,
      "chip": "ym2612"
    },
    {
      "channel": 0,
      "note": 66,
      "start": 7.4277,
      "duration": 0.19,
      "velocity": 109,
      "chip": "ym2612"
    },
    {
      "channel": 3,
      "note": 66,
      "start": 7.4288,
      "duration": 0.1899,
      "velocity": 109,
      "chip": "ym2612"
    },
    {
      "channel": 4,
      "note": 78,
      "start": 7.4295,
      "duration": 0.19,
      "velocity": 82,
      "chip": "ym2612"
    },
    {
      "channel": 0,
      "note": 71,
      "start": 7.6183,
      "duration": 0.1899,
      "velocity": 109,
      "chip": "ym2612"
    },
    {
      "channel": 3,
      "note": 71,
      "start": 7.6193,
      "duration": 0.1898,
      "velocity": 109,
      "chip": "ym2612"
    },
    {
      "channel": 4,
      "note": 83,
      "start": 7.6201,
      "duration": 0.1898,
      "velocity": 82,
      "chip": "ym2612"
    },
    {
      "channel": 0,
      "note": 66,
      "start": 7.8087,
      "duration": 0.1899,
      "velocity": 109,
      "chip": "ym2612"
    },
    {
      "channel": 3,
      "note": 66,
      "start": 7.8098,
      "duration": 0.1899,
      "velocity": 109,
      "chip": "ym2612"
    },
    {
      "channel": 4,
      "note": 78,
      "start": 7.8105,
      "duration": 0.1899,
      "velocity": 82,
      "chip": "ym2612"
    },
    {
      "channel": 0,
      "note": 69,
      "start": 7.9992,
      "duration": 0.19,
      "velocity": 109,
      "chip": "ym2612"
    },
    {
      "channel": 3,
      "note": 69,
      "start": 8.0002,
      "duration": 0.1899,
      "velocity": 109,
      "chip": "ym2612"
    },
    {
      "channel": 4,
      "note": 81,
      "start": 8.001,
      "duration": 0.1899,
      "velocity": 82,
      "chip": "ym2612"
    },
    {
      "channel": 0,
      "note": 66,
      "start": 8.1897,
      "duration": 0.1899,
      "velocity": 109,
      "chip": "ym2612"
    },
    {
      "channel": 3,
      "note": 66,
      "start": 8.1908,
      "duration": 0.1899,
      "velocity": 109,
      "chip": "ym2612"
    },
    {
      "channel": 4,
      "note": 78,
      "start": 8.1915,
      "duration": 0.19,
      "velocity": 82,
      "chip": "ym2612"
    },
    {
      "channel": 0,
      "note": 71,
      "start": 8.3801,
      "duration": 0.19,
      "velocity": 109,
      "chip": "ym2612"
    },
    {
      "channel": 3,
      "note": 71,
      "start": 8.3813,
      "duration": 0.1898,
      "velocity": 109,
      "chip": "ym2612"
    },
    {
      "channel": 4,
      "note": 83,
      "start": 8.3821,
      "duration": 0.1898,
      "velocity": 82,
      "chip": "ym2612"
    },
    {
      "channel": 0,
      "note": 66,
      "start": 8.5707,
      "duration": 0.19,
      "velocity": 109,
      "chip": "ym2612"
    },
    {
      "channel": 3,
      "note": 66,
      "start": 8.5717,
      "duration": 0.19,
      "velocity": 109,
      "chip": "ym2612"
    },
    {
      "channel": 4,
      "note": 78,
      "start": 8.5724,
      "duration": 0.19,
      "velocity": 82,
      "chip": "ym2612"
    },
    {
      "channel": 0,
      "note": 73,
      "start": 8.7612,
      "duration": 0.19,
      "velocity": 109,
      "chip": "ym2612"
    },
    {
      "channel": 3,
      "note": 73,
      "start": 8.7623,
      "duration": 0.19,
      "velocity": 109,
      "chip": "ym2612"
    },
    {
      "channel": 4,
      "note": 85,
      "start": 8.763,
      "duration": 0.19,
      "velocity": 82,
      "chip": "ym2612"
    },
    {
      "channel": 0,
      "note": 66,
      "start": 8.9518,
      "duration": 0.1901,
      "velocity": 109,
      "chip": "ym2612"
    },
    {
      "channel": 3,
      "note": 66,
      "start": 8.9529,
      "duration": 0.1906,
      "velocity": 109,
      "chip": "ym2612"
    },
    {
      "channel": 4,
      "note": 78,
      "start": 8.9536,
      "duration": 0.1908,
      "velocity": 82,
      "chip": "ym2612"
    },
    {
      "channel": 0,
      "note": 78,
      "start": 9.1425,
      "duration": 0.1896,
      "velocity": 109,
      "chip": "ym2612"
    },
    {
      "channel": 1,
      "note": 38,
      "start": 9.1432,
      "duration": 1.5231,
      "velocity": 115,
      "chip": "ym2612"
    },
    {
      "channel": 3,
      "note": 78,
      "start": 9.1441,
      "duration": 0.1891,
      "velocity": 109,
      "chip": "ym2612"
    },
    {
      "channel": 4,
      "note": 90,
      "start": 9.145,
      "duration": 0.189,
      "velocity": 82,
      "chip": "ym2612"
    },
    {
      "channel": 5,
      "note": 38,
      "start": 9.1457,
      "duration": 1.5229,
      "velocity": 95,
      "chip": "ym2612"
    },
    {
      "channel": 0,
      "note": 66,
      "start": 9.3327,
      "duration": 0.1899,
      "velocity": 109,
      "chip": "ym2612"
    },
    {
      "channel": 3,
      "note": 66,
      "start": 9.3338,
      "duration": 0.1899,
      "velocity": 109,
      "chip": "ym2612"
    },
    {
      "channel": 4,
      "note": 78,
      "start": 9.3345,
      "duration": 0.1899,
      "velocity": 82,
      "chip": "ym2612"
    },
    {
      "channel": 0,
      "note": 76,
      "start": 9.5232,
      "duration": 0.1899,
      "velocity": 109,
      "chip": "ym2612"
    },
    {
      "channel": 3,
      "note": 76,
      "start": 9.5243,
      "duration": 0.1899,
      "velocity": 109,
      "chip": "ym2612"
    },
    {
      "channel": 4,
      "note": 88,
      "start": 9.5251,
      "duration": 0.19,
      "velocity": 82,
      "chip": "ym2612"
    },
    {
      "channel": 0,
      "note": 66,
      "start": 9.7137,
      "duration": 0.19,
      "velocity": 109,
      "chip": "ym2612"
    },
    {
      "channel": 3,
      "note": 66,
      "start": 9.7148,
      "duration": 0.19,
      "velocity": 109,
      "chip": "ym2612"
    },
    {
      "channel": 4,
      "note": 78,
      "start": 9.7156,
      "duration": 0.1899,
      "velocity": 82,
      "chip": "ym2612"
    },
    {
      "channel": 0,
      "note": 74,
      "start": 9.9043,
      "duration": 0.1899,
      "velocity": 109,
      "chip": "ym2612"
    },
    {
      "channel": 3,
      "note": 74,
      "start": 9.9053,
      "duration": 0.1899,
      "velocity": 109,
      "chip": "ym2612"
    },
    {
      "channel": 4,
      "note": 86,
      "start": 9.9061,
      "duration": 0.1899,
      "velocity": 82,
      "chip": "ym2612"
    },
    {
      "channel": 0,
      "note": 66,
      "start": 10.0947,
      "duration": 0.19,
      "velocity": 109,
      "chip": "ym2612"
    },
    {
      "channel": 3,
      "note": 66,
      "start": 10.0958,
      "duration": 0.1899,
      "velocity": 109,
      "chip": "ym2612"
    },
    {
      "channel": 4,
      "note": 78,
      "start": 10.0966,
      "duration": 0.1899,
      "velocity": 82,
      "chip": "ym2612"
    },
    {
      "channel": 0,
      "note": 73,
      "start": 10.2852,
      "duration": 0.19,
      "velocity": 109,
      "chip": "ym2612"
    },
    {
      "channel": 3,
      "note": 73,
      "start": 10.2863,
      "duration": 0.1899,
      "velocity": 109,
      "chip": "ym2612"
    },
    {
      "channel": 4,
      "note": 85,
      "start": 10.2871,
      "duration": 0.1899,
      "velocity": 82,
      "chip": "ym2612"
    },
    {
      "channel": 0,
      "note": 66,
      "start": 10.4758,
      "duration": 0.1898,
      "velocity": 109,
      "chip": "ym2612"
    },
    {
      "channel": 3,
      "note": 66,
      "start": 10.4768,
      "duration": 0.1902,
      "velocity": 109,
      "chip": "ym2612"
    },
    {
      "channel": 4,
      "note": 78,
      "start": 10.4775,
      "duration": 0.1903,
      "velocity": 82,
      "chip": "ym2612"
    },
    {
      "channel": 0,
      "note": 71,
      "start": 10.6662,
      "duration": 0.19,
      "velocity": 109,
      "chip": "ym2612"
    },
    {
      "channel": 1,
      "note": 40,
      "start": 10.6669,
      "duration": 0.3805,
      "velocity": 115,
      "chip": "ym2612"
    },
    {
      "channel": 3,
      "note": 71,
      "start": 10.6677,
      "duration": 0.1895,
      "velocity": 109,
      "chip": "ym2612"
    },
    {
      "channel": 4,
      "note": 83,
      "start": 10.6684,
      "duration": 0.1895,
      "velocity": 82,
      "chip": "ym2612"
    },
    {
      "channel": 5,
      "note": 40,
      "start": 10.6691,
      "duration": 0.3804,
      "velocity": 95,
      "chip": "ym2612"
    },
    {
      "channel": 0,
      "note": 66,
      "start": 10.8567,
      "duration": 0.1899,
      "velocity": 109,
      "chip": "ym2612"
    },
    {
      "channel": 3,
      "note": 66,
      "start": 10.8578,
      "duration": 0.1902,
      "velocity": 109,
      "chip": "ym2612"
    },
    {
      "channel": 4,
      "note": 78,
      "start": 10.8585,
      "duration": 0.1902,
      "velocity": 82,
      "chip": "ym2612"
    },
    {
      "channel": 0,
      "note": 69,
      "start": 11.0473,
      "duration": 0.19,
      "velocity": 109,
      "chip": "ym2612"
    },
    {
      "channel": 1,
      "note": 40,
      "start": 11.0479,
      "duration": 0.3805,
      "velocity": 115,
      "chip": "ym2612"
    },
    {
      "channel": 3,
      "note": 69,
      "start": 11.0487,
      "duration": 0.1896,
      "velocity": 109,
      "chip": "ym2612"
    },
    {
      "channel": 4,
      "note": 81,
      "start": 11.0494,
      "duration": 0.1896,
      "velocity": 82,
      "chip": "ym2612"
    },
    {
      "channel": 5,
      "note": 40,
      "start": 11.05,
      "duration": 0.3805,
      "velocity": 95,
      "chip": "ym2612"
    },
    {
      "channel": 0,
      "note": 66,
      "start": 11.2378,
      "duration": 0.1898,
      "velocity": 109,
      "chip": "ym2612"
    },
    {
      "channel": 3,
      "note": 66,
      "start": 11.2389,
      "duration": 0.1901,
      "velocity": 109,
      "chip": "ym2612"
    },
    {
      "channel": 4,
      "note": 78,
      "start": 11.2396,
      "duration": 0.1901,
      "velocity": 82,
      "chip": "ym2612"
    },
    {
      "channel": 0,
      "note": 71,
      "start": 11.4282,
      "duration": 0.19,
      "velocity": 109,
      "chip": "ym2612"
    },
    {
      "channel": 1,
      "note": 40,
      "start": 11.4288,
      "duration": 0.3807,
      "velocity": 115,
      "chip": "ym2612"
    },
    {
      "channel": 3,
      "note": 71,
      "start": 11.4296,
      "duration": 0.1897,
      "velocity": 109,
      "chip": "ym2612"
    },
    {
      "channel": 4,
      "note": 83,
      "start": 11.4303,
      "duration": 0.1897,
      "velocity": 82,
      "chip": "ym2612"
    },
    {
      "channel": 5,
      "note": 40,
      "start": 11.4309,
      "duration": 0.3807,
      "velocity": 95,
      "chip": "ym2612"
    },
    {
      "channel": 0,
      "note": 66,
      "start": 11.6188,
      "duration": 0.19,
      "velocity": 109,
      "chip": "ym2612"
    },
    {
      "channel": 3,
      "note": 66,
      "start": 11.6199,
      "duration": 0.1902,
      "velocity": 109,
      "chip": "ym2612"
    },
    {
      "channel": 4,
      "note": 78,
      "start": 11.6206,
      "duration": 0.1902,
      "velocity": 82,
      "chip": "ym2612"
    },
    {
      "channel": 0,
      "note": 73,
      "start": 11.8093,
      "duration": 0.1899,
      "velocity": 109,
      "chip": "ym2612"
    },
    {
      "channel": 1,
      "note": 40,
      "start": 11.8099,
      "duration": 0.3888,
      "velocity": 109,
      "chip": "ym2612"
    },
    {
      "channel": 3,
      "note": 73,
      "start": 11.8107,
      "duration": 0.1896,
      "velocity": 109,
      "chip": "ym2612"
    },
    {
      "channel": 4,
      "note": 85,
      "start": 11.8115,
      "duration": 0.1896,
      "velocity": 82,
      "chip": "ym2612"
    },
    {
      "channel": 5,
      "note": 40,
      "start": 11.812,
      "duration": 0.3946,
      "velocity": 95,
      "chip": "ym2612"
    },
    {
      "channel": 0,
      "note": 66,
      "start": 11.9998,
      "duration": 0.1953,
      "velocity": 104,
      "chip": "ym2612"
    },
    {
      "channel": 3,
      "note": 66,
      "start": 12.0009,
      "duration": 0.2013,
      "velocity": 107,
      "chip": "ym2612"
    },
    {
      "channel": 4,
      "note": 78,
      "start": 12.0017,
      "duration": 0.2041,
      "velocity": 112,
      "chip": "ym2612"
    },
    {
      "channel": 0,
      "note": 57,
      "start": 12.1957,
      "duration": 0.3779,
      "velocity": 104,
      "chip": "ym2612"
    },
    {
      "channel": 1,
      "note": 42,
      "start": 12.1993,
      "duration": 0.3749,
      "velocity": 109,
      "chip": "ym2612"
    },
    {
      "channel": 3,
      "note": 54,
      "start": 12.2028,
      "duration": 0.3722,
      "velocity": 107,
      "chip": "ym2612"
    },
    {
      "channel": 4,
      "note": 57,
      "start": 12.2063,
      "duration": 0.3694,
      "velocity": 112,
      "chip": "ym2612"
    },
    {
      "channel": 5,
      "note": 42,
      "start": 12.2072,
      "duration": 0.3693,
      "velocity": 95,
      "chip": "ym2612"
    },
    {
      "channel": 2,
      "note": 30,
      "start": 12.208,
      "duration": 0.2375,
      "velocity": 119,
      "chip": "ym2612"
    },
    {
      "channel": 0,
      "note": 69,
      "start": 12.5741,
      "duration": 0.7614,
      "velocity": 104,
      "chip": "ym2612"
    },
    {
      "channel": 1,
      "note": 42,
      "start": 12.5748,
      "duration": 0.38,
      "velocity": 109,
      "chip": "ym2612"
    },
    {
      "channel": 3,
      "note": 66,
      "start": 12.5756,
      "duration": 0.7614,
      "velocity": 107,
      "chip": "ym2612"
    },
    {
      "channel": 4,
      "note": 69,
      "start": 12.5763,
      "duration": 0.7614,
      "velocity": 112,
      "chip": "ym2612"
    },
    {
      "channel": 5,
      "note": 42,
      "start": 12.5771,
      "duration": 0.3792,
      "velocity": 95,
      "chip": "ym2612"
    },
    {
      "channel": 2,
      "note": 30,
      "start": 12.5779,
      "duration": 0.2486,
      "velocity": 119,
      "chip": "ym2612"
    },
    {
      "channel": 1,
      "note": 42,
      "start": 12.9554,
      "duration": 0.3809,
      "velocity": 109,
      "chip": "ym2612"
    },
    {
      "channel": 5,
      "note": 42,
      "start": 12.9569,
      "duration": 0.3816,
      "velocity": 95,
      "chip": "ym2612"
    },
    {
      "channel": 2,
      "note": 30,
      "start": 12.9577,
      "duration": 0.2499,
      "velocity": 119,
      "chip": "ym2612"
    },
    {
      "channel": 0,
      "note": 68,
      "start": 13.3361,
      "duration": 0.1872,
      "velocity": 104,
      "chip": "ym2612"
    },
    {
      "channel": 1,
      "note": 42,
      "start": 13.3368,
      "duration": 0.3807,
      "velocity": 109,
      "chip": "ym2612"
    },
    {
      "channel": 3,
      "note": 65,
      "start": 13.3375,
      "duration": 0.1868,
      "velocity": 107,
      "chip": "ym2612"
    },
    {
      "channel": 4,
      "note": 68,
      "start": 13.3383,
      "duration": 0.1867,
      "velocity": 112,
      "chip": "ym2612"
    },
    {
      "channel": 5,
      "note": 42,
      "start": 13.339,
      "duration": 0.3808,
      "velocity": 95,
      "chip": "ym2612"
    },
    {
      "channel": 2,
      "note": 30,
      "start": 13.3399,
      "duration": 0.2487,
      "velocity": 119,
      "chip": "ym2612"
    },
    {
      "channel": 0,
      "note": 69,
      "start": 13.5238,
      "duration": 0.1929,
      "velocity": 104,
      "chip": "ym2612"
    },
    {
      "channel": 3,
      "note": 66,
      "start": 13.5249,
      "duration": 0.1934,
      "velocity": 107,
      "chip": "ym2612"
    },
    {
      "channel": 4,
      "note": 69,
      "start": 13.5256,
      "duration": 0.1934,
      "velocity": 112,
      "chip": "ym2612"
    },
    {
      "channel": 0,
      "note": 71,
      "start": 13.7173,
      "duration": 0.7613,
      "velocity": 104,
      "chip": "ym2612"
    },
    {
      "channel": 1,
      "note": 42,
      "start": 13.7181,
      "duration": 0.3799,
      "velocity": 109,
      "chip": "ym2612"
    },
    {
      "channel": 3,
      "note": 68,
      "start": 13.7188,
      "duration": 0.7613,
      "velocity": 107,
      "chip": "ym2612"
    },
    {
      "channel": 4,
      "note": 71,
      "start": 13.7196,
      "duration": 0.7612,
      "velocity": 112,
      "chip": "ym2612"
    },
    {
      "channel": 5,
      "note": 42,
      "start": 13.7204,
      "duration": 0.379,
      "velocity": 95,
      "chip": "ym2612"
    },
    {
      "channel": 2,
      "note": 30,
      "start": 13.7212,
      "duration": 0.2483,
      "velocity": 119,
      "chip": "ym2612"
    },
    {
      "channel": 1,
      "note": 42,
      "start": 14.0986,
      "duration": 0.3808,
      "velocity": 109,
      "chip": "ym2612"
    },
    {
      "channel": 5,
      "note": 42,
      "start": 14.1,
      "duration": 0.3817,
      "velocity": 95,
      "chip": "ym2612"
    },
    {
      "channel": 2,
      "note": 30,
      "start": 14.1008,
      "duration": 0.2498,
      "velocity": 119,
      "chip": "ym2612"
    },
    {
      "channel": 0,
      "note": 69,
      "start": 14.4793,
      "duration": 0.3803,
      "velocity": 104,
      "chip": "ym2612"
    },
    {
      "channel": 1,
      "note": 42,
      "start": 14.48,
      "duration": 0.3803,
      "velocity": 109,
      "chip": "ym2612"
    },
    {
      "channel": 3,
      "note": 66,
      "start": 14.4807,
      "duration": 0.3803,
      "velocity": 107,
      "chip": "ym2612"
    },
    {
      "channel": 4,
      "note": 69,
      "start": 14.4815,
      "duration": 0.3802,
      "velocity": 112,
      "chip": "ym2612"
    },
    {
      "channel": 5,
      "note": 42,
      "start": 14.4822,
      "duration": 0.3803,
      "velocity": 95,
      "chip": "ym2612"
    },
    {
      "channel": 2,
      "note": 30,
      "start": 14.4831,
      "duration": 0.2485,
      "velocity": 119,
      "chip": "ym2612"
    },
    {
      "channel": 0,
      "note": 68,
      "start": 14.8602,
      "duration": 0.3804,
      "velocity": 104,
      "chip": "ym2612"
    },
    {
      "channel": 1,
      "note": 42,
      "start": 14.8609,
      "duration": 0.3805,
      "velocity": 109,
      "chip": "ym2612"
    },
    {
      "channel": 3,
      "note": 65,
      "start": 14.8616,
      "duration": 0.3805,
      "velocity": 107,
      "chip": "ym2612"
    },
    {
      "channel": 4,
      "note": 68,
      "start": 14.8623,
      "duration": 0.3805,
      "velocity": 112,
      "chip": "ym2612"
    },
    {
      "channel": 5,
      "note": 42,
      "start": 14.8631,
      "duration": 0.3806,
      "velocity": 95,
      "chip": "ym2612"
    },
    {
      "channel": 2,
      "note": 30,
      "start": 14.8639,
      "duration": 0.2486,
      "velocity": 119,
      "chip": "ym2612"
    },
    {
      "channel": 0,
      "note": 66,
      "start": 15.2412,
      "duration": 1.1426,
      "velocity": 104,
      "chip": "ym2612"
    },
    {
      "channel": 1,
      "note": 42,
      "start": 15.242,
      "duration": 0.38,
      "velocity": 109,
      "chip": "ym2612"
    },
    {
      "channel": 3,
      "note": 63,
      "start": 15.2427,
      "duration": 1.1424,
      "velocity": 107,
      "chip": "ym2612"
    },
    {
      "channel": 4,
      "note": 66,
      "start": 15.2435,
      "duration": 1.1424,
      "velocity": 112,
      "chip": "ym2612"
    },
    {
      "channel": 5,
      "note": 42,
      "start": 15.2443,
      "duration": 0.3791,
      "velocity": 95,
      "chip": "ym2612"
    },
    {
      "channel": 2,
      "note": 30,
      "start": 15.2451,
      "duration": 0.2484,
      "velocity": 119,
      "chip": "ym2612"
    },
    {
      "channel": 1,
      "note": 42,
      "start": 15.6225,
      "duration": 0.3805,
      "velocity": 109,
      "chip": "ym2612"
    },
    {
      "channel": 5,
      "note": 42,
      "start": 15.624,
      "duration": 0.3805,
      "velocity": 95,
      "chip": "ym2612"
    },
    {
      "channel": 2,
      "note": 30,
      "start": 15.6248,
      "duration": 0.2498,
      "velocity": 119,
      "chip": "ym2612"
    },
    {
      "channel": 1,
      "note": 42,
      "start": 16.0036,
      "duration": 0.3809,
      "velocity": 109,
      "chip": "ym2612"
    },
    {
      "channel": 5,
      "note": 42,
      "start": 16.005,
      "duration": 0.3817,
      "velocity": 95,
      "chip": "ym2612"
    },
    {
      "channel": 2,
      "note": 30,
      "start": 16.0059,
      "duration": 0.2498,
      "velocity": 119,
      "chip": "ym2612"
    },
    {
      "channel": 0,
      "note": 64,
      "start": 16.3843,
      "duration": 0.187,
      "velocity": 104,
      "chip": "ym2612"
    },
    {
      "channel": 1,
      "note": 42,
      "start": 16.385,
      "duration": 0.3807,
      "velocity": 109,
      "chip": "ym2612"
    },
    {
      "channel": 3,
      "note": 61,
      "start": 16.3857,
      "duration": 0.1866,
      "velocity": 107,
      "chip": "ym2612"
    },
    {
      "channel": 4,
      "note": 64,
      "start": 16.3865,
      "duration": 0.1866,
      "velocity": 112,
      "chip": "ym2612"
    },
    {
      "channel": 5,
      "note": 42,
      "start": 16.3873,
      "duration": 0.3807,
      "velocity": 95,
      "chip": "ym2612"
    },
    {
      "channel": 2,
      "note": 30,
      "start": 16.3881,
      "duration": 0.2485,
      "velocity": 119,
      "chip": "ym2612"
    },
    {
      "channel": 0,
      "note": 66,
      "start": 16.5719,
      "duration": 0.1929,
      "velocity": 104,
      "chip": "ym2612"
    },
    {
      "channel": 3,
      "note": 62,
      "start": 16.5729,
      "duration": 0.1934,
      "velocity": 107,
      "chip": "ym2612"
    },
    {
      "channel": 4,
      "note": 66,
      "start": 16.5737,
      "duration": 0.1935,
      "velocity": 112,
      "chip": "ym2612"
    },
    {
      "channel": 0,
      "note": 61,
      "start": 16.7654,
      "duration": 0.7611,
      "velocity": 104,
      "chip": "ym2612"
    },
    {
      "channel": 1,
      "note": 42,
      "start": 16.7663,
      "duration": 0.3796,
      "velocity": 109,
      "chip": "ym2612"
    },
    {
      "channel": 3,
      "note": 57,
      "start": 16.767,
      "duration": 0.7611,
      "velocity": 107,
      "chip": "ym2612"
    },
    {
      "channel": 4,
      "note": 61,
      "start": 16.7677,
      "duration": 0.7611,
      "velocity": 112,
      "chip": "ym2612"
    },
    {
      "channel": 5,
      "note": 42,
      "start": 16.7686,
      "duration": 0.3788,
      "velocity": 95,
      "chip": "ym2612"
    },
    {
      "channel": 2,
      "note": 30,
      "start": 16.7694,
      "duration": 0.2482,
      "velocity": 119,
      "chip": "ym2612"
    },
    {
      "channel": 1,
      "note": 42,
      "start": 17.1465,
      "duration": 0.3809,
      "velocity": 109,
      "chip": "ym2612"
    },
    {
      "channel": 5,
      "note": 42,
      "start": 17.148,
      "duration": 0.3815,
      "velocity": 95,
      "chip": "ym2612"
    },
    {
      "channel": 2,
      "note": 30,
      "start": 17.1488,
      "duration": 0.2498,
      "velocity": 119,
      "chip": "ym2612"
    },
    {
      "channel": 0,
      "note": 59,
      "start": 17.5272,
      "duration": 0.3805,
      "velocity": 104,
      "chip": "ym2612"
    },
    {
      "channel": 1,
      "note": 42,
      "start": 17.5279,
      "duration": 0.3805,
      "velocity": 109,
      "chip": "ym2612"
    },
    {
      "channel": 3,
      "note": 56,
      "start": 17.5286,
      "duration": 0.3805,
      "velocity": 107,
      "chip": "ym2612"
    },
    {
      "channel": 4,
      "note": 59,
      "start": 17.5294,
      "duration": 0.3805,
      "velocity": 112,
      "chip": "ym2612"
    },
    {
      "channel": 5,
      "note": 42,
      "start": 17.5301,
      "duration": 0.3805,
      "velocity": 95,
      "chip": "ym2612"
    },
    {
      "channel": 2,
      "note": 30,
      "start": 17.531,
      "duration": 0.2487,
      "velocity": 119,
      "chip": "ym2612"
    },
    {
      "channel": 0,
      "note": 57,
      "start": 17.9083,
      "duration": 0.3804,
      "velocity": 104,
      "chip": "ym2612"
    },
    {
      "channel": 1,
      "note": 42,
      "start": 17.909,
      "duration": 0.3805,
      "velocity": 109,
      "chip": "ym2612"
    },
    {
      "channel": 3,
      "note": 54,
      "start": 17.9097,
      "duration": 0.3804,
      "velocity": 107,
      "chip": "ym2612"
    },
    {
      "channel": 4,
      "note": 57,
      "start": 17.9104,
      "duration": 0.3805,
      "velocity": 112,
      "chip": "ym2612"
    },
    {
      "channel": 5,
      "note": 42,
      "start": 17.9112,
      "duration": 0.3805,
      "velocity": 95,
      "chip": "ym2612"
    },
    {
      "channel": 2,
      "note": 30,
      "start": 17.912,
      "duration": 0.2486,
      "velocity": 119,
      "chip": "ym2612"
    },
    {
      "channel": 0,
      "note": 56,
      "start": 18.2892,
      "duration": 1.1426,
      "velocity": 104,
      "chip": "ym2612"
    },
    {
      "channel": 1,
      "note": 42,
      "start": 18.29,
      "duration": 0.38,
      "velocity": 109,
      "chip": "ym2612"
    },
    {
      "channel": 3,
      "note": 53,
      "start": 18.2907,
      "duration": 1.1423,
      "velocity": 107,
      "chip": "ym2612"
    },
    {
      "channel": 4,
      "note": 56,
      "start": 18.2915,
      "duration": 1.1422,
      "velocity": 112,
      "chip": "ym2612"
    },
    {
      "channel": 5,
      "note": 42,
      "start": 18.2923,
      "duration": 0.3792,
      "velocity": 95,
      "chip": "ym2612"
    },
    {
      "channel": 2,
      "note": 30,
      "start": 18.2931,
      "duration": 0.2485,
      "velocity": 119,
      "chip": "ym2612"
    },
    {
      "channel": 1,
      "note": 42,
      "start": 18.6706,
      "duration": 0.3805,
      "velocity": 109,
      "chip": "ym2612"
    },
    {
      "channel": 5,
      "note": 42,
      "start": 18.6721,
      "duration": 0.3804,
      "velocity": 95,
      "chip": "ym2612"
    },
    {
      "channel": 2,
      "note": 30,
      "start": 18.6729,
      "duration": 0.2498,
      "velocity": 119,
      "chip": "ym2612"
    },
    {
      "channel": 1,
      "note": 42,
      "start": 19.0517,
      "duration": 0.3807,
      "velocity": 109,
      "chip": "ym2612"
    },
    {
      "channel": 5,
      "note": 42,
      "start": 19.053,
      "duration": 0.3812,
      "velocity": 95,
      "chip": "ym2612"
    },
    {
      "channel": 2,
      "note": 30,
      "start": 19.0539,
      "duration": 0.2498,
      "velocity": 119,
      "chip": "ym2612"
    },
    {
      "channel": 0,
      "note": 56,
      "start": 19.4322,
      "duration": 0.1872,
      "velocity": 104,
      "chip": "ym2612"
    },
    {
      "channel": 1,
      "note": 42,
      "start": 19.4329,
      "duration": 0.3806,
      "velocity": 109,
      "chip": "ym2612"
    },
    {
      "channel": 3,
      "note": 53,
      "start": 19.4334,
      "duration": 0.187,
      "velocity": 107,
      "chip": "ym2612"
    },
    {
      "channel": 4,
      "note": 56,
      "start": 19.4341,
      "duration": 0.1872,
      "velocity": 112,
      "chip": "ym2612"
    },
    {
      "channel": 5,
      "note": 42,
      "start": 19.4348,
      "duration": 0.381,
      "velocity": 95,
      "chip": "ym2612"
    },
    {
      "channel": 2,
      "note": 30,
      "start": 19.4356,
      "duration": 0.249,
      "velocity": 119,
      "chip": "ym2612"
    },
    {
      "channel": 0,
      "note": 57,
      "start": 19.62,
      "duration": 0.1927,
      "velocity": 104,
      "chip": "ym2612"
    },
    {
      "channel": 3,
      "note": 54,
      "start": 19.621,
      "duration": 0.1931,
      "velocity": 107,
      "chip": "ym2612"
    },
    {
      "channel": 4,
      "note": 57,
      "start": 19.6218,
      "duration": 0.1932,
      "velocity": 112,
      "chip": "ym2612"
    },
    {
      "channel": 0,
      "note": 54,
      "start": 19.8132,
      "duration": 1.1425,
      "velocity": 104,
      "chip": "ym2612"
    },
    {
      "channel": 1,
      "note": 42,
      "start": 19.8141,
      "duration": 0.38,
      "velocity": 109,
      "chip": "ym2612"
    },
    {
      "channel": 3,
      "note": 49,
      "start": 19.8149,
      "duration": 1.1423,
      "velocity": 107,
      "chip": "ym2612"
    },
    {
      "channel": 4,
      "note": 54,
      "start": 19.8156,
      "duration": 1.1422,
      "velocity": 112,
      "chip": "ym2612"
    },
    {
      "channel": 5,
      "note": 42,
      "start": 19.8164,
      "duration": 0.3791,
      "velocity": 95,
      "chip": "ym2612"
    },
    {
      "channel": 2,
      "note": 30,
      "start": 19.8172,
      "duration": 0.2485,
      "velocity": 119,
      "chip": "ym2612"
    },
    {
      "channel": 1,
      "note": 42,
      "start": 20.1946,
      "duration": 0.3804,
      "velocity": 109,
      "chip": "ym2612"
    },
    {
      "channel": 5,
      "note": 42,
      "start": 20.1961,
      "duration": 0.3804,
      "velocity": 95,
      "chip": "ym2612"
    },
    {
      "channel": 2,
      "note": 30,
      "start": 20.1969,
      "duration": 0.2499,
      "velocity": 119,
      "chip": "ym2612"
    },
    {
      "channel": 1,
      "note": 42,
      "start": 20.5756,
      "duration": 0.3809,
      "velocity": 109,
      "chip": "ym2612"
    },
    {
      "channel": 5,
      "note": 42,
      "start": 20.577,
      "duration": 0.3815,
      "velocity": 95,
      "chip": "ym2612"
    },
    {
      "channel": 2,
      "note": 30,
      "start": 20.5778,
      "duration": 0.2498,
      "velocity": 119,
      "chip": "ym2612"
    },
    {
      "channel": 0,
      "note": 53,
      "start": 20.9563,
      "duration": 0.3805,
      "velocity": 104,
      "chip": "ym2612"
    },
    {
      "channel": 1,
      "note": 42,
      "start": 20.957,
      "duration": 0.3806,
      "velocity": 109,
      "chip": "ym2612"
    },
    {
      "channel": 3,
      "note": 49,
      "start": 20.9576,
      "duration": 0.3808,
      "velocity": 107,
      "chip": "ym2612"
    },
    {
      "channel": 4,
      "note": 53,
      "start": 20.9583,
      "duration": 0.3809,
      "velocity": 112,
      "chip": "ym2612"
    },
    {
      "channel": 5,
      "note": 42,
      "start": 20.9591,
      "duration": 0.381,
      "velocity": 95,
      "chip": "ym2612"
    },
    {
      "channel": 2,
      "note": 30,
      "start": 20.9599,
      "duration": 0.2487,
      "velocity": 119,
      "chip": "ym2612"
    },
    {
      "channel": 0,
      "note": 54,
      "start": 21.3374,
      "duration": 1.1423,
      "velocity": 104,
      "chip": "ym2612"
    },
    {
      "channel": 1,
      "note": 42,
      "start": 21.3382,
      "duration": 0.38,
      "velocity": 109,
      "chip": "ym2612"
    },
    {
      "channel": 3,
      "note": 49,
      "start": 21.339,
      "duration": 1.1417,
      "velocity": 107,
      "chip": "ym2612"
    },
    {
      "channel": 4,
      "note": 54,
      "start": 21.3399,
      "duration": 1.1412,
      "velocity": 112,
      "chip": "ym2612"
    },
    {
      "channel": 5,
      "note": 42,
      "start": 21.3407,
      "duration": 0.379,
      "velocity": 95,
      "chip": "ym2612"
    },
    {
      "channel": 2,
      "note": 30,
      "start": 21.3415,
      "duration": 0.2481,
      "velocity": 119,
      "chip": "ym2612"
    },
    {
      "channel": 1,
      "note": 42,
      "start": 21.7188,
      "duration": 0.3804,
      "velocity": 109,
      "chip": "ym2612"
    },
    {
      "channel": 5,
      "note": 42,
      "start": 21.7202,
      "duration": 0.3803,
      "velocity": 95,
      "chip": "ym2612"
    },
    {
      "channel": 2,
      "note": 30,
      "start": 21.721,
      "duration": 0.2497,
      "velocity": 119,
      "chip": "ym2612"
    },
    {
      "channel": 1,
      "note": 42,
      "start": 22.0997,
      "duration": 0.3803,
      "velocity": 109,
      "chip": "ym2612"
    },
    {
      "channel": 5,
      "note": 42,
      "start": 22.1011,
      "duration": 0.3803,
      "velocity": 95,
      "chip": "ym2612"
    },
    {
      "channel": 2,
      "note": 30,
      "start": 22.102,
      "duration": 0.2498,
      "velocity": 119,
      "chip": "ym2612"
    },
    {
      "channel": 1,
      "note": 42,
      "start": 22.4806,
      "duration": 0.3809,
      "velocity": 109,
      "chip": "ym2612"
    },
    {
      "channel": 5,
      "note": 42,
      "start": 22.4821,
      "duration": 0.3814,
      "velocity": 95,
      "chip": "ym2612"
    },
    {
      "channel": 2,
      "note": 30,
      "start": 22.4829,
      "duration": 0.2499,
      "velocity": 119,
      "chip": "ym2612"
    },
    {
      "channel": 0,
      "note": 49,
      "start": 22.668,
      "duration": 0.1927,
      "velocity": 104,
      "chip": "ym2612"
    },
    {
      "channel": 3,
      "note": 44,
      "start": 22.6691,
      "duration": 0.193,
      "velocity": 107,
      "chip": "ym2612"
    },
    {
      "channel": 4,
      "note": 49,
      "start": 22.6698,
      "duration": 0.1929,
      "velocity": 112,
      "chip": "ym2612"
    },
    {
      "channel": 0,
      "note": 49,
      "start": 22.8612,
      "duration": 1.5237,
      "velocity": 104,
      "chip": "ym2612"
    },
    {
      "channel": 1,
      "note": 42,
      "start": 22.862,
      "duration": 0.3801,
      "velocity": 109,
      "chip": "ym2612"
    },
    {
      "channel": 3,
      "note": 44,
      "start": 22.8626,
      "duration": 1.5241,
      "velocity": 107,
      "chip": "ym2612"
    },
    {
      "channel": 4,
      "note": 49,
      "start": 22.8632,
      "duration": 1.5242,
      "velocity": 112,
      "chip": "ym2612"
    },
    {
      "channel": 5,
      "note": 42,
      "start": 22.8641,
      "duration": 0.3795,
      "velocity": 95,
      "chip": "ym2612"
    },
    {
      "channel": 2,
      "note": 30,
      "start": 22.8649,
      "duration": 0.2488,
      "velocity": 119,
      "chip": "ym2612"
    },
    {
      "channel": 1,
      "note": 42,
      "start": 23.2427,
      "duration": 0.3804,
      "velocity": 109,
      "chip": "ym2612"
    },
    {
      "channel": 5,
      "note": 42,
      "start": 23.2441,
      "duration": 0.3804,
      "velocity": 95,
      "chip": "ym2612"
    },
    {
      "channel": 2,
      "note": 30,
      "start": 23.245,
      "duration": 0.2499,
      "velocity": 119,
      "chip": "ym2612"
    },
    {
      "channel": 1,
      "note": 42,
      "start": 23.6237,
      "duration": 0.3804,
      "velocity": 109,
      "chip": "ym2612"
    },
    {
      "channel": 5,
      "note": 42,
      "start": 23.6251,
      "duration": 0.3804,
      "velocity": 95,
      "chip": "ym2612"
    },
    {
      "channel": 2,
      "note": 30,
      "start": 23.6259,
      "duration": 0.2499,
      "velocity": 119,
      "chip": "ym2612"
    },
    {
      "channel": 1,
      "note": 42,
      "start": 24.0046,
      "duration": 0.3812,
      "velocity": 109,
      "chip": "ym2612"
    },
    {
      "channel": 5,
      "note": 42,
      "start": 24.0061,
      "duration": 0.3822,
      "velocity": 95,
      "chip": "ym2612"
    },
    {
      "channel": 2,
      "note": 30,
      "start": 24.0069,
      "duration": 0.2498,
      "velocity": 119,
      "chip": "ym2612"
    },
    {
      "channel": 0,
      "note": 57,
      "start": 24.3856,
      "duration": 0.3803,
      "velocity": 104,
      "chip": "ym2612"
    },
    {
      "channel": 1,
      "note": 42,
      "start": 24.3864,
      "duration": 0.3802,
      "velocity": 109,
      "chip": "ym2612"
    },
    {
      "channel": 3,
      "note": 54,
      "start": 24.3872,
      "duration": 0.3801,
      "velocity": 107,
      "chip": "ym2612"
    },
    {
      "channel": 4,
      "note": 57,
      "start": 24.388,
      "duration": 0.38,
      "velocity": 112,
      "chip": "ym2612"
    },
    {
      "channel": 5,
      "note": 42,
      "start": 24.3889,
      "duration": 0.38,
      "velocity": 95,
      "chip": "ym2612"
    },
    {
      "channel": 2,
      "note": 30,
      "start": 24.3897,
      "duration": 0.2482,
      "velocity": 119,
      "chip": "ym2612"
    },
    {
      "channel": 0,
      "note": 69,
      "start": 24.7665,
      "duration": 0.7614,
      "velocity": 104,
      "chip": "ym2612"
    },
    {
      "channel": 1,
      "note": 42,
      "start": 24.7672,
      "duration": 0.3799,
      "velocity": 109,
      "chip": "ym2612"
    },
    {
      "channel": 3,
      "note": 66,
      "start": 24.7679,
      "duration": 0.7614,
      "velocity": 107,
      "chip": "ym2612"
    },
    {
      "channel": 4,
      "note": 69,
      "start": 24.7687,
      "duration": 0.7614,
      "velocity": 112,
      "chip": "ym2612"
    },
    {
      "channel": 5,
      "note": 42,
      "start": 24.7694,
      "duration": 0.3792,
      "velocity": 95,
      "chip": "ym2612"
    },
    {
      "channel": 2,
      "note": 30,
      "start": 24.7702,
      "duration": 0.2486,
      "velocity": 119,
      "chip": "ym2612"
    },
    {
      "channel": 1,
      "note": 42,
      "start": 25.1476,
      "duration": 0.3809,
      "velocity": 109,
      "chip": "ym2612"
    },
    {
      "channel": 5,
      "note": 42,
      "start": 25.1492,
      "duration": 0.3816,
      "velocity": 95,
      "chip": "ym2612"
    },
    {
      "channel": 2,
      "note": 30,
      "start": 25.15,
      "duration": 0.2498,
      "velocity": 119,
      "chip": "ym2612"
    },
    {
      "channel": 0,
      "note": 68,
      "start": 25.5284,
      "duration": 0.1871,
      "velocity": 104,
      "chip": "ym2612"
    },
    {
      "channel": 1,
      "note": 42,
      "start": 25.5291,
      "duration": 0.3805,
      "velocity": 109,
      "chip": "ym2612"
    },
    {
      "channel": 3,
      "note": 65,
      "start": 25.5299,
      "duration": 0.1868,
      "velocity": 107,
      "chip": "ym2612"
    },
    {
      "channel": 4,
      "note": 68,
      "start": 25.5307,
      "duration": 0.1867,
      "velocity": 112,
      "chip": "ym2612"
    },
    {
      "channel": 5,
      "note": 42,
      "start": 25.5314,
      "duration": 0.3805,
      "velocity": 95,
      "chip": "ym2612"
    },
    {
      "channel": 2,
      "note": 30,
      "start": 25.5322,
      "duration": 0.2485,
      "velocity": 119,
      "chip": "ym2612"
    },
    {
      "channel": 0,
      "note": 69,
      "start": 25.7161,
      "duration": 0.1926,
      "velocity": 104,
      "chip": "ym2612"
    },
    {
      "channel": 3,
      "note": 66,
      "start": 25.7172,
      "duration": 0.1931,
      "velocity": 107,
      "chip": "ym2612"
    },
    {
      "channel": 4,
      "note": 69,
      "start": 25.718,
      "duration": 0.1931,
      "velocity": 112,
      "chip": "ym2612"
    },
    {
      "channel": 0,
      "note": 71,
      "start": 25.9094,
      "duration": 0.7614,
      "velocity": 104,
      "chip": "ym2612"
    },
    {
      "channel": 1,
      "note": 42,
      "start": 25.9102,
      "duration": 0.38,
      "velocity": 109,
      "chip": "ym2612"
    },
    {
      "channel": 3,
      "note": 68,
      "start": 25.9109,
      "duration": 0.7613,
      "velocity": 107,
      "chip": "ym2612"
    },
    {
      "channel": 4,
      "note": 71,
      "start": 25.9117,
      "duration": 0.7613,
      "velocity": 112,
      "chip": "ym2612"
    },
    {
      "channel": 5,
      "note": 42,
      "start": 25.9125,
      "duration": 0.3791,
      "velocity": 95,
      "chip": "ym2612"
    },
    {
      "channel": 2,
      "note": 30,
      "start": 25.9134,
      "duration": 0.2485,
      "velocity": 119,
      "chip": "ym2612"
    },
    {
      "channel": 1,
      "note": 42,
      "start": 26.2908,
      "duration": 0.3808,
      "velocity": 109,
      "chip": "ym2612"
    },
    {
      "channel": 5,
      "note": 42,
      "start": 26.2922,
      "duration": 0.3816,
      "velocity": 95,
      "chip": "ym2612"
    },
    {
      "channel": 2,
      "note": 30,
      "start": 26.2931,
      "duration": 0.2498,
      "velocity": 119,
      "chip": "ym2612"
    },
    {
      "channel": 0,
      "note": 69,
      "start": 26.6714,
      "duration": 0.3805,
      "velocity": 104,
      "chip": "ym2612"
    },
    {
      "channel": 1,
      "note": 42,
      "start": 26.6721,
      "duration": 0.3805,
      "velocity": 109,
      "chip": "ym2612"
    },
    {
      "channel": 3,
      "note": 66,
      "start": 26.6729,
      "duration": 0.3805,
      "velocity": 107,
      "chip": "ym2612"
    },
    {
      "channel": 4,
      "note": 69,
      "start": 26.6737,
      "duration": 0.3804,
      "velocity": 112,
      "chip": "ym2612"
    },
    {
      "channel": 5,
      "note": 42,
      "start": 26.6744,
      "duration": 0.3805,
      "velocity": 95,
      "chip": "ym2612"
    },
    {
      "channel": 2,
      "note": 30,
      "start": 26.6752,
      "duration": 0.2487,
      "velocity": 119,
      "chip": "ym2612"
    },
    {
      "channel": 0,
      "note": 68,
      "start": 27.0525,
      "duration": 0.3804,
      "velocity": 104,
      "chip": "ym2612"
    },
    {
      "channel": 1,
      "note": 42,
      "start": 27.0532,
      "duration": 0.3805,
      "velocity": 109,
      "chip": "ym2612"
    },
    {
      "channel": 3,
      "note": 65,
      "start": 27.0539,
      "duration": 0.3805,
      "velocity": 107,
      "chip": "ym2612"
    },
    {
      "channel": 4,
      "note": 68,
      "start": 27.0546,
      "duration": 0.3805,
      "velocity": 112,
      "chip": "ym2612"
    },
    {
      "channel": 5,
      "note": 42,
      "start": 27.0554,
      "duration": 0.3806,
      "velocity": 95,
      "chip": "ym2612"
    },
    {
      "channel": 2,
      "note": 30,
      "start": 27.0562,
      "duration": 0.2486,
      "velocity": 119,
      "chip": "ym2612"
    },
    {
      "channel": 0,
      "note": 66,
      "start": 27.4334,
      "duration": 1.1424,
      "velocity": 104,
      "chip": "ym2612"
    },
    {
      "channel": 1,
      "note": 42,
      "start": 27.4343,
      "duration": 0.38,
      "velocity": 109,
      "chip": "ym2612"
    },
    {
      "channel": 3,
      "note": 63,
      "start": 27.435,
      "duration": 1.1423,
      "velocity": 107,
      "chip": "ym2612"
    },
    {
      "channel": 4,
      "note": 66,
      "start": 27.4358,
      "duration": 1.1423,
      "velocity": 112,
      "chip": "ym2612"
    },
    {
      "channel": 5,
      "note": 42,
      "start": 27.4366,
      "duration": 0.3791,
      "velocity": 95,
      "chip": "ym2612"
    },
    {
      "channel": 2,
      "note": 30,
      "start": 27.4375,
      "duration": 0.2484,
      "velocity": 119,
      "chip": "ym2612"
    },
    {
      "channel": 1,
      "note": 42,
      "start": 27.8149,
      "duration": 0.3803,
      "velocity": 109,
      "chip": "ym2612"
    },
    {
      "channel": 5,
      "note": 42,
      "start": 27.8163,
      "duration": 0.3803,
      "velocity": 95,
      "chip": "ym2612"
    },
    {
      "channel": 2,
      "note": 30,
      "start": 27.8171,
      "duration": 0.2498,
      "velocity": 119,
      "chip": "ym2612"
    },
    {
      "channel": 1,
      "note": 42,
      "start": 28.1957,
      "duration": 0.3809,
      "velocity": 109,
      "chip": "ym2612"
    },
    {
      "channel": 5,
      "note": 42,
      "start": 28.1972,
      "duration": 0.3817,
      "velocity": 95,
      "chip": "ym2612"
    },
    {
      "channel": 2,
      "note": 30,
      "start": 28.1981,
      "duration": 0.2499,
      "velocity": 119,
      "chip": "ym2612"
    },
    {
      "channel": 0,
      "note": 64,
      "start": 28.5765,
      "duration": 0.1871,
      "velocity": 104,
      "chip": "ym2612"
    },
    {
      "channel": 1,
      "note": 42,
      "start": 28.5772,
      "duration": 0.3805,
      "velocity": 109,
      "chip": "ym2612"
    },
    {
      "channel": 3,
      "note": 61,
      "start": 28.5779,
      "duration": 0.1868,
      "velocity": 107,
      "chip": "ym2612"
    },
    {
      "channel": 4,
      "note": 64,
      "start": 28.5787,
      "duration": 0.1868,
      "velocity": 112,
      "chip": "ym2612"
    },
    {
      "channel": 5,
      "note": 42,
      "start": 28.5795,
      "duration": 0.3805,
      "velocity": 95,
      "chip": "ym2612"
    },
    {
      "channel": 2,
      "note": 30,
      "start": 28.5803,
      "duration": 0.2485,
      "velocity": 119,
      "chip": "ym2612"
    },
    {
      "channel": 0,
      "note": 66,
      "start": 28.7642,
      "duration": 0.1927,
      "velocity": 104,
      "chip": "ym2612"
    },
    {
      "channel": 3,
      "note": 62,
      "start": 28.7653,
      "duration": 0.1931,
      "velocity": 107,
      "chip": "ym2612"
    },
    {
      "channel": 4,
      "note": 66,
      "start": 28.7661,
      "duration": 0.1931,
      "velocity": 112,
      "chip": "ym2612"
    },
    {
      "channel": 0,
      "note": 61,
      "start": 28.9574,
      "duration": 0.7615,
      "velocity": 104,
      "chip": "ym2612"
    },
    {
      "channel": 1,
      "note": 42,
      "start": 28.9583,
      "duration": 0.38,
      "velocity": 109,
      "chip": "ym2612"
    },
    {
      "channel": 3,
      "note": 57,
      "start": 28.959,
      "duration": 0.7613,
      "velocity": 107,
      "chip": "ym2612"
    },
    {
      "channel": 4,
      "note": 61,
      "start": 28.9597,
      "duration": 0.7614,
      "velocity": 112,
      "chip": "ym2612"
    },
    {
      "channel": 5,
      "note": 42,
      "start": 28.9605,
      "duration": 0.3791,
      "velocity": 95,
      "chip": "ym2612"
    },
    {
      "channel": 2,
      "note": 30,
      "start": 28.9614,
      "duration": 0.2485,
      "velocity": 119,
      "chip": "ym2612"
    },
    {
      "channel": 1,
      "note": 42,
      "start": 29.3388,
      "duration": 0.3809,
      "velocity": 109,
      "chip": "ym2612"
    },
    {
      "channel": 5,
      "note": 42,
      "start": 29.3402,
      "duration": 0.3816,
      "velocity": 95,
      "chip": "ym2612"
    },
    {
      "channel": 2,
      "note": 30,
      "start": 29.3411,
      "duration": 0.2498,
      "velocity": 119,
      "chip": "ym2612"
    },
    {
      "channel": 0,
      "note": 59,
      "start": 29.7195,
      "duration": 0.3805,
      "velocity": 104,
      "chip": "ym2612"
    },
    {
      "channel": 1,
      "note": 42,
      "start": 29.7202,
      "duration": 0.3805,
      "velocity": 109,
      "chip": "ym2612"
    },
    {
      "channel": 3,
      "note": 56,
      "start": 29.7209,
      "duration": 0.3805,
      "velocity": 107,
      "chip": "ym2612"
    },
    {
      "channel": 4,
      "note": 59,
      "start": 29.7217,
      "duration": 0.3804,
      "velocity": 112,
      "chip": "ym2612"
    },
    {
      "channel": 5,
      "note": 42,
      "start": 29.7224,
      "duration": 0.3804,
      "velocity": 95,
      "chip": "ym2612"
    },
    {
      "channel": 2,
      "note": 30,
      "start": 29.7233,
      "duration": 0.2486,
      "velocity": 119,
      "chip": "ym2612"
    },
    {
      "channel": 0,
      "note": 57,
      "start": 30.1005,
      "duration": 0.3803,
      "velocity": 104,
      "chip": "ym2612"
    },
    {
      "channel": 1,
      "note": 42,
      "start": 30.1013,
      "duration": 0.3805,
      "velocity": 109,
      "chip": "ym2612"
    },
    {
      "channel": 3,
      "note": 54,
      "start": 30.102,
      "duration": 0.3805,
      "velocity": 107,
      "chip": "ym2612"
    },
    {
      "channel": 4,
      "note": 57,
      "start": 30.1027,
      "duration": 0.3805,
      "velocity": 112,
      "chip": "ym2612"
    },
    {
      "channel": 5,
      "note": 42,
      "start": 30.1034,
      "duration": 0.3806,
      "velocity": 95,
      "chip": "ym2612"
    },
    {
      "channel": 2,
      "note": 30,
      "start": 30.1043,
      "duration": 0.2487,
      "velocity": 119,
      "chip": "ym2612"
    },
    {
      "channel": 0,
      "note": 56,
      "start": 30.4815,
      "duration": 1.1424,
      "velocity": 104,
      "chip": "ym2612"
    },
    {
      "channel": 1,
      "note": 42,
      "start": 30.4823,
      "duration": 0.3799,
      "velocity": 109,
      "chip": "ym2612"
    },
    {
      "channel": 3,
      "note": 53,
      "start": 30.4831,
      "duration": 1.1421,
      "velocity": 107,
      "chip": "ym2612"
    },
    {
      "channel": 4,
      "note": 56,
      "start": 30.4838,
      "duration": 1.1421,
      "velocity": 112,
      "chip": "ym2612"
    },
    {
      "channel": 5,
      "note": 42,
      "start": 30.4846,
      "duration": 0.3791,
      "velocity": 95,
      "chip": "ym2612"
    },
    {
      "channel": 2,
      "note": 30,
      "start": 30.4854,
      "duration": 0.2485,
      "velocity": 119,
      "chip": "ym2612"
    },
    {
      "channel": 1,
      "note": 42,
      "start": 30.8628,
      "duration": 0.3805,
      "velocity": 109,
      "chip": "ym2612"
    },
    {
      "channel": 5,
      "note": 42,
      "start": 30.8642,
      "duration": 0.3805,
      "velocity": 95,
      "chip": "ym2612"
    },
    {
      "channel": 2,
      "note": 30,
      "start": 30.8651,
      "duration": 0.2499,
      "velocity": 119,
      "chip": "ym2612"
    },
    {
      "channel": 1,
      "note": 42,
      "start": 31.2438,
      "duration": 0.3807,
      "velocity": 109,
      "chip": "ym2612"
    },
    {
      "channel": 5,
      "note": 42,
      "start": 31.2453,
      "duration": 0.3811,
      "velocity": 95,
      "chip": "ym2612"
    },
    {
      "channel": 2,
      "note": 30,
      "start": 31.2461,
      "duration": 0.2499,
      "velocity": 119,
      "chip": "ym2612"
    },
    {
      "channel": 0,
      "note": 56,
      "start": 31.6244,
      "duration": 0.1873,
      "velocity": 104,
      "chip": "ym2612"
    },
    {
      "channel": 1,
      "note": 42,
      "start": 31.6251,
      "duration": 0.3807,
      "velocity": 109,
      "chip": "ym2612"
    },
    {
      "channel": 3,
      "note": 53,
      "start": 31.6256,
      "duration": 0.1871,
      "velocity": 107,
      "chip": "ym2612"
    },
    {
      "channel": 4,
      "note": 56,
      "start": 31.6263,
      "duration": 0.1872,
      "velocity": 112,
      "chip": "ym2612"
    },
    {
      "channel": 5,
      "note": 42,
      "start": 31.627,
      "duration": 0.3811,
      "velocity": 95,
      "chip": "ym2612"
    },
    {
      "channel": 2,
      "note": 30,
      "start": 31.6278,
      "duration": 0.2492,
      "velocity": 119,
      "chip": "ym2612"
    },
    {
      "channel": 0,
      "note": 57,
      "start": 31.8122,
      "duration": 0.1928,
      "velocity": 104,
      "chip": "ym2612"
    },
    {
      "channel": 3,
      "note": 54,
      "start": 31.8133,
      "duration": 0.1932,
      "velocity": 107,
      "chip": "ym2612"
    },
    {
      "channel": 4,
      "note": 57,
      "start": 31.8141,
      "duration": 0.1932,
      "velocity": 112,
      "chip": "ym2612"
    },
    {
      "channel": 0,
      "note": 54,
      "start": 32.0055,
      "duration": 1.1425,
      "velocity": 104,
      "chip": "ym2612"
    },
    {
      "channel": 1,
      "note": 42,
      "start": 32.0063,
      "duration": 0.3799,
      "velocity": 109,
      "chip": "ym2612"
    },
    {
      "channel": 3,
      "note": 49,
      "start": 32.0071,
      "duration": 1.1424,
      "velocity": 107,
      "chip": "ym2612"
    },
    {
      "channel": 4,
      "note": 54,
      "start": 32.0078,
      "duration": 1.1422,
      "velocity": 112,
      "chip": "ym2612"
    },
    {
      "channel": 5,
      "note": 42,
      "start": 32.0086,
      "duration": 0.3791,
      "velocity": 95,
      "chip": "ym2612"
    },
    {
      "channel": 2,
      "note": 30,
      "start": 32.0095,
      "duration": 0.2485,
      "velocity": 119,
      "chip": "ym2612"
    },
    {
      "channel": 1,
      "note": 42,
      "start": 32.3868,
      "duration": 0.3806,
      "velocity": 109,
      "chip": "ym2612"
    },
    {
      "channel": 5,
      "note": 42,
      "start": 32.3883,
      "duration": 0.3805,
      "velocity": 95,
      "chip": "ym2612"
    },
    {
      "channel": 2,
      "note": 30,
      "start": 32.3891,
      "duration": 0.2499,
      "velocity": 119,
      "chip": "ym2612"
    },
    {
      "channel": 1,
      "note": 42,
      "start": 32.768,
      "duration": 0.3807,
      "velocity": 109,
      "chip": "ym2612"
    },
    {
      "channel": 5,
      "note": 42,
      "start": 32.7694,
      "duration": 0.3814,
      "velocity": 95,
      "chip": "ym2612"
    },
    {
      "channel": 2,
      "note": 30,
      "start": 32.7702,
      "duration": 0.2497,
      "velocity": 119,
      "chip": "ym2612"
    },
    {
      "channel": 0,
      "note": 53,
      "start": 33.1486,
      "duration": 0.3805,
      "velocity": 104,
      "chip": "ym2612"
    },
    {
      "channel": 1,
      "note": 42,
      "start": 33.1493,
      "duration": 0.3805,
      "velocity": 109,
      "chip": "ym2612"
    },
    {
      "channel": 3,
      "note": 49,
      "start": 33.1499,
      "duration": 0.3807,
      "velocity": 107,
      "chip": "ym2612"
    },
    {
      "channel": 4,
      "note": 53,
      "start": 33.1506,
      "duration": 0.3809,
      "velocity": 112,
      "chip": "ym2612"
    },
    {
      "channel": 5,
      "note": 42,
      "start": 33.1514,
      "duration": 0.381,
      "velocity": 95,
      "chip": "ym2612"
    },
    {
      "channel": 2,
      "note": 30,
      "start": 33.1522,
      "duration": 0.2487,
      "velocity": 119,
      "chip": "ym2612"
    },
    {
      "channel": 0,
      "note": 54,
      "start": 33.5296,
      "duration": 3.0505,
      "velocity": 109,
      "chip": "ym2612"
    },
    {
      "channel": 1,
      "note": 42,
      "start": 33.5305,
      "duration": 0.3798,
      "velocity": 109,
      "chip": "ym2612"
    },
    {
      "channel": 3,
      "note": 49,
      "start": 33.5314,
      "duration": 3.0537,
      "velocity": 109,
      "chip": "ym2612"
    },
    {
      "channel": 4,
      "note": 54,
      "start": 33.5322,
      "duration": 3.0568,
      "velocity": 109,
      "chip": "ym2612"
    },
    {
      "channel": 5,
      "note": 42,
      "start": 33.533,
      "duration": 0.3788,
      "velocity": 95,
      "chip": "ym2612"
    },
    {
      "channel": 2,
      "note": 30,
      "start": 33.5338,
      "duration": 0.2483,
      "velocity": 119,
      "chip": "ym2612"
    },
    {
      "channel": 1,
      "note": 42,
      "start": 33.9109,
      "duration": 0.3805,
      "velocity": 109,
      "chip": "ym2612"
    },
    {
      "channel": 5,
      "note": 42,
      "start": 33.9123,
      "duration": 0.3805,
      "velocity": 95,
      "chip": "ym2612"
    },
    {
      "channel": 2,
      "note": 30,
      "start": 33.9132,
      "duration": 0.2498,
      "velocity": 119,
      "chip": "ym2612"
    },
    {
      "channel": 1,
      "note": 42,
      "start": 34.2919,
      "duration": 0.3805,
      "velocity": 109,
      "chip": "ym2612"
    },
    {
      "channel": 5,
      "note": 42,
      "start": 34.2934,
      "duration": 0.3805,
      "velocity": 95,
      "chip": "ym2612"
    },
    {
      "channel": 2,
      "note": 30,
      "start": 34.2942,
      "duration": 0.2498,
      "velocity": 119,
      "chip": "ym2612"
    },
    {
      "channel": 1,
      "note": 42,
      "start": 34.6729,
      "duration": 0.3805,
      "velocity": 109,
      "chip": "ym2612"
    },
    {
      "channel": 5,
      "note": 42,
      "start": 34.6744,
      "duration": 0.3805,
      "velocity": 95,
      "chip": "ym2612"
    },
    {
      "channel": 2,
      "note": 30,
      "start": 34.6752,
      "duration": 0.2498,
      "velocity": 119,
      "chip": "ym2612"
    },
    {
      "channel": 1,
      "note": 42,
      "start": 35.054,
      "duration": 0.3804,
      "velocity": 109,
      "chip": "ym2612"
    },
    {
      "channel": 5,
      "note": 42,
      "start": 35.0555,
      "duration": 0.3803,
      "velocity": 95,
      "chip": "ym2612"
    },
    {
      "channel": 2,
      "note": 30,
      "start": 35.0563,
      "duration": 0.2497,
      "velocity": 119,
      "chip": "ym2612"
    },
    {
      "channel": 1,
      "note": 42,
      "start": 35.435,
      "duration": 0.3805,
      "velocity": 109,
      "chip": "ym2612"
    },
    {
      "channel": 5,
      "note": 42,
      "start": 35.4364,
      "duration": 0.3805,
      "velocity": 95,
      "chip": "ym2612"
    },
    {
      "channel": 2,
      "note": 30,
      "start": 35.4372,
      "duration": 0.2499,
      "velocity": 119,
      "chip": "ym2612"
    },
    {
      "channel": 1,
      "note": 40,
      "start": 35.8161,
      "duration": 0.3804,
      "velocity": 109,
      "chip": "ym2612"
    },
    {
      "channel": 5,
      "note": 40,
      "start": 35.8175,
      "duration": 0.3804,
      "velocity": 95,
      "chip": "ym2612"
    },
    {
      "channel": 2,
      "note": 30,
      "start": 35.8183,
      "duration": 0.2498,
      "velocity": 119,
      "chip": "ym2612"
    },
    {
      "channel": 1,
      "note": 40,
      "start": 36.197,
      "duration": 0.3844,
      "velocity": 109,
      "chip": "ym2612"
    },
    {
      "channel": 5,
      "note": 40,
      "start": 36.1985,
      "duration": 0.3917,
      "velocity": 95,
      "chip": "ym2612"
    },
    {
      "channel": 2,
      "note": 30,
      "start": 36.1994,
      "duration": 0.2497,
      "velocity": 119,
      "chip": "ym2612"
    },
    {
      "channel": 0,
      "note": 78,
      "start": 36.5807,
      "duration": 0.1841,
      "velocity": 109,
      "chip": "ym2612"
    },
    {
      "channel": 1,
      "note": 38,
      "start": 36.5819,
      "duration": 1.139,
      "velocity": 109,
      "chip": "ym2612"
    },
    {
      "channel": 3,
      "note": 74,
      "start": 36.5857,
      "duration": 0.1802,
      "velocity": 109,
      "chip": "ym2612"
    },
    {
      "channel": 4,
      "note": 78,
      "start": 36.5896,
      "duration": 0.177,
      "velocity": 109,
      "chip": "ym2612"
    },
    {
      "channel": 5,
      "note": 38,
      "start": 36.5908,
      "duration": 1.1321,
      "velocity": 95,
      "chip": "ym2612"
    },
    {
      "channel": 2,
      "note": 30,
      "start": 36.5916,
      "duration": 0.2385,
      "velocity": 119,
      "chip": "ym2612"
    },
    {
      "channel": 0,
      "note": 78,
      "start": 36.7654,
      "duration": 0.1929,
      "velocity": 109,
      "chip": "ym2612"
    },
    {
      "channel": 3,
      "note": 74,
      "start": 36.7665,
      "duration": 0.193,
      "velocity": 109,
      "chip": "ym2612"
    },
    {
      "channel": 4,
      "note": 78,
      "start": 36.7672,
      "duration": 0.1931,
      "velocity": 109,
      "chip": "ym2612"
    },
    {
      "channel": 0,
      "note": 78,
      "start": 36.959,
      "duration": 0.1868,
      "velocity": 109,
      "chip": "ym2612"
    },
    {
      "channel": 3,
      "note": 74,
      "start": 36.96,
      "duration": 0.1868,
      "velocity": 109,
      "chip": "ym2612"
    },
    {
      "channel": 4,
      "note": 78,
      "start": 36.9609,
      "duration": 0.1867,
      "velocity": 109,
      "chip": "ym2612"
    },
    {
      "channel": 2,
      "note": 30,
      "start": 36.9621,
      "duration": 0.2489,
      "velocity": 119,
      "chip": "ym2612"
    },
    {
      "channel": 0,
      "note": 78,
      "start": 37.1463,
      "duration": 0.1928,
      "velocity": 109,
      "chip": "ym2612"
    },
    {
      "channel": 3,
      "note": 74,
      "start": 37.1474,
      "duration": 0.1929,
      "velocity": 109,
      "chip": "ym2612"
    },
    {
      "channel": 4,
      "note": 78,
      "start": 37.1482,
      "duration": 0.1929,
      "velocity": 109,
      "chip": "ym2612"
    },
    {
      "channel": 0,
      "note": 78,
      "start": 37.3398,
      "duration": 0.187,
      "velocity": 109,
      "chip": "ym2612"
    },
    {
      "channel": 3,
      "note": 74,
      "start": 37.341,
      "duration": 0.1869,
      "velocity": 109,
      "chip": "ym2612"
    },
    {
      "channel": 4,
      "note": 78,
      "start": 37.3418,
      "duration": 0.1868,
      "velocity": 109,
      "chip": "ym2612"
    },
    {
      "channel": 2,
      "note": 30,
      "start": 37.343,
      "duration": 0.249,
      "velocity": 119,
      "chip": "ym2612"
    },
    {
      "channel": 0,
      "note": 78,
      "start": 37.5273,
      "duration": 0.1929,
      "velocity": 109,
      "chip": "ym2612"
    },
    {
      "channel": 3,
      "note": 74,
      "start": 37.5284,
      "duration": 0.1929,
      "velocity": 109,
      "chip": "ym2612"
    },
    {
      "channel": 4,
      "note": 78,
      "start": 37.5292,
      "duration": 0.1929,
      "velocity": 109,
      "chip": "ym2612"
    },
    {
      "channel": 0,
      "note": 78,
      "start": 37.7208,
      "duration": 0.187,
      "velocity": 109,
      "chip": "ym2612"
    },
    {
      "channel": 3,
      "note": 74,
      "start": 37.7219,
      "duration": 0.1873,
      "velocity": 109,
      "chip": "ym2612"
    },
    {
      "channel": 4,
      "note": 78,
      "start": 37.7227,
      "duration": 0.1873,
      "velocity": 109,
      "chip": "ym2612"
    },
    {
      "channel": 2,
      "note": 30,
      "start": 37.7239,
      "duration": 0.2492,
      "velocity": 119,
      "chip": "ym2612"
    },
    {
      "channel": 0,
      "note": 78,
      "start": 37.9084,
      "duration": 0.1929,
      "velocity": 109,
      "chip": "ym2612"
    },
    {
      "channel": 1,
      "note": 33,
      "start": 37.9091,
      "duration": 0.1929,
      "velocity": 109,
      "chip": "ym2612"
    },
    {
      "channel": 3,
      "note": 74,
      "start": 37.9099,
      "duration": 0.1929,
      "velocity": 109,
      "chip": "ym2612"
    },
    {
      "channel": 4,
      "note": 78,
      "start": 37.9106,
      "duration": 0.1931,
      "velocity": 109,
      "chip": "ym2612"
    },
    {
      "channel": 5,
      "note": 33,
      "start": 37.9113,
      "duration": 0.1931,
      "velocity": 95,
      "chip": "ym2612"
    },
    {
      "channel": 0,
      "note": 78,
      "start": 38.1018,
      "duration": 0.1869,
      "velocity": 109,
      "chip": "ym2612"
    },
    {
      "channel": 1,
      "note": 38,
      "start": 38.1026,
      "duration": 0.3805,
      "velocity": 109,
      "chip": "ym2612"
    },
    {
      "channel": 3,
      "note": 74,
      "start": 38.1034,
      "duration": 0.1864,
      "velocity": 109,
      "chip": "ym2612"
    },
    {
      "channel": 4,
      "note": 78,
      "start": 38.1043,
      "duration": 0.1863,
      "velocity": 109,
      "chip": "ym2612"
    },
    {
      "channel": 5,
      "note": 38,
      "start": 38.105,
      "duration": 0.3802,
      "velocity": 95,
      "chip": "ym2612"
    },
    {
      "channel": 2,
      "note": 30,
      "start": 38.1059,
      "duration": 0.2482,
      "velocity": 119,
      "chip": "ym2612"
    },
    {
      "channel": 0,
      "note": 78,
      "start": 38.2893,
      "duration": 0.193,
      "velocity": 109,
      "chip": "ym2612"
    },
    {
      "channel": 3,
      "note": 74,
      "start": 38.2904,
      "duration": 0.1933,
      "velocity": 109,
      "chip": "ym2612"
    },
    {
      "channel": 4,
      "note": 78,
      "start": 38.2912,
      "duration": 0.1933,
      "velocity": 109,
      "chip": "ym2612"
    },
    {
      "channel": 0,
      "note": 78,
      "start": 38.4829,
      "duration": 0.1869,
      "velocity": 109,
      "chip": "ym2612"
    },
    {
      "channel": 1,
      "note": 38,
      "start": 38.4835,
      "duration": 0.7615,
      "velocity": 109,
      "chip": "ym2612"
    },
    {
      "channel": 3,
      "note": 74,
      "start": 38.4843,
      "duration": 0.1866,
      "velocity": 109,
      "chip": "ym2612"
    },
    {
      "channel": 4,
      "note": 78,
      "start": 38.4851,
      "duration": 0.1866,
      "velocity": 109,
      "chip": "ym2612"
    },
    {
      "channel": 5,
      "note": 38,
      "start": 38.4857,
      "duration": 0.7617,
      "velocity": 95,
      "chip": "ym2612"
    },
    {
      "channel": 2,
      "note": 30,
      "start": 38.4865,
      "duration": 0.2486,
      "velocity": 119,
      "chip": "ym2612"
    },
    {
      "channel": 0,
      "note": 78,
      "start": 38.6704,
      "duration": 0.1928,
      "velocity": 109,
      "chip": "ym2612"
    },
    {
      "channel": 3,
      "note": 74,
      "start": 38.6715,
      "duration": 0.1929,
      "velocity": 109,
      "chip": "ym2612"
    },
    {
      "channel": 4,
      "note": 78,
      "start": 38.6723,
      "duration": 0.1931,
      "velocity": 109,
      "chip": "ym2612"
    },
    {
      "channel": 0,
      "note": 78,
      "start": 38.8638,
      "duration": 0.187,
      "velocity": 109,
      "chip": "ym2612"
    },
    {
      "channel": 3,
      "note": 74,
      "start": 38.8651,
      "duration": 0.1868,
      "velocity": 109,
      "chip": "ym2612"
    },
    {
      "channel": 4,
      "note": 78,
      "start": 38.8659,
      "duration": 0.1868,
      "velocity": 109,
      "chip": "ym2612"
    },
    {
      "channel": 2,
      "note": 30,
      "start": 38.8671,
      "duration": 0.249,
      "velocity": 119,
      "chip": "ym2612"
    },
    {
      "channel": 0,
      "note": 78,
      "start": 39.0514,
      "duration": 0.1929,
      "velocity": 109,
      "chip": "ym2612"
    },
    {
      "channel": 3,
      "note": 74,
      "start": 39.0525,
      "duration": 0.1933,
      "velocity": 109,
      "chip": "ym2612"
    },
    {
      "channel": 4,
      "note": 78,
      "start": 39.0532,
      "duration": 0.1933,
      "velocity": 109,
      "chip": "ym2612"
    },
    {
      "channel": 0,
      "note": 78,
      "start": 39.2448,
      "duration": 0.187,
      "velocity": 109,
      "chip": "ym2612"
    },
    {
      "channel": 1,
      "note": 37,
      "start": 39.2456,
      "duration": 0.3804,
      "velocity": 109,
      "chip": "ym2612"
    },
    {
      "channel": 3,
      "note": 74,
      "start": 39.2463,
      "duration": 0.1866,
      "velocity": 109,
      "chip": "ym2612"
    },
    {
      "channel": 4,
      "note": 78,
      "start": 39.2472,
      "duration": 0.1865,
      "velocity": 109,
      "chip": "ym2612"
    },
    {
      "channel": 5,
      "note": 37,
      "start": 39.248,
      "duration": 0.3805,
      "velocity": 95,
      "chip": "ym2612"
    },
    {
      "channel": 2,
      "note": 30,
      "start": 39.2488,
      "duration": 0.2483,
      "velocity": 119,
      "chip": "ym2612"
    },
    {
      "channel": 0,
      "note": 78,
      "start": 39.4324,
      "duration": 0.1928,
      "velocity": 109,
      "chip": "ym2612"
    },
    {
      "channel": 3,
      "note": 74,
      "start": 39.4335,
      "duration": 0.1933,
      "velocity": 109,
      "chip": "ym2612"
    },
    {
      "channel": 4,
      "note": 78,
      "start": 39.4343,
      "duration": 0.1934,
      "velocity": 109,
      "chip": "ym2612"
    },
    {
      "channel": 0,
      "note": 78,
      "start": 39.6258,
      "duration": 0.187,
      "velocity": 109,
      "chip": "ym2612"
    },
    {
      "channel": 1,
      "note": 35,
      "start": 39.6266,
      "duration": 1.1424,
      "velocity": 109,
      "chip": "ym2612"
    },
    {
      "channel": 3,
      "note": 74,
      "start": 39.6274,
      "duration": 0.1865,
      "velocity": 109,
      "chip": "ym2612"
    },
    {
      "channel": 4,
      "note": 78,
      "start": 39.6283,
      "duration": 0.1864,
      "velocity": 109,
      "chip": "ym2612"
    },
    {
      "channel": 5,
      "note": 35,
      "start": 39.629,
      "duration": 1.142,
      "velocity": 95,
      "chip": "ym2612"
    },
    {
      "channel": 2,
      "note": 30,
      "start": 39.6298,
      "duration": 0.2483,
      "velocity": 119,
      "chip": "ym2612"
    },
    {
      "channel": 0,
      "note": 78,
      "start": 39.8134,
      "duration": 0.1929,
      "velocity": 109,
      "chip": "ym2612"
    },
    {
      "channel": 3,
      "note": 74,
      "start": 39.8146,
      "duration": 0.1928,
      "velocity": 109,
      "chip": "ym2612"
    },
    {
      "channel": 4,
      "note": 78,
      "start": 39.8153,
      "duration": 0.1929,
      "velocity": 109,
      "chip": "ym2612"
    },
    {
      "channel": 0,
      "note": 78,
      "start": 40.0069,
      "duration": 0.1869,
      "velocity": 109,
      "chip": "ym2612"
    },
    {
      "channel": 3,
      "note": 74,
      "start": 40.0079,
      "duration": 0.187,
      "velocity": 109,
      "chip": "ym2612"
    },
    {
      "channel": 4,
      "note": 78,
      "start": 40.0088,
      "duration": 0.1868,
      "velocity": 109,
      "chip": "ym2612"
    },
    {
      "channel": 2,
      "note": 30,
      "start": 40.01,
      "duration": 0.2492,
      "velocity": 119,
      "chip": "ym2612"
    },
    {
      "channel": 0,
      "note": 78,
      "start": 40.1944,
      "duration": 0.1928,
      "velocity": 109,
      "chip": "ym2612"
    },
    {
      "channel": 3,
      "note": 74,
      "start": 40.1955,
      "duration": 0.1929,
      "velocity": 109,
      "chip": "ym2612"
    },
    {
      "channel": 4,
      "note": 78,
      "start": 40.1962,
      "duration": 0.193,
      "velocity": 109,
      "chip": "ym2612"
    },
    {
      "channel": 0,
      "note": 78,
      "start": 40.3878,
      "duration": 0.187,
      "velocity": 109,
      "chip": "ym2612"
    },
    {
      "channel": 3,
      "note": 74,
      "start": 40.389,
      "duration": 0.1869,
      "velocity": 109,
      "chip": "ym2612"
    },
    {
      "channel": 4,
      "note": 78,
      "start": 40.3898,
      "duration": 0.1868,
      "velocity": 109,
      "chip": "ym2612"
    },
    {
      "channel": 2,
      "note": 30,
      "start": 40.391,
      "duration": 0.2491,
      "velocity": 119,
      "chip": "ym2612"
    },
    {
      "channel": 0,
      "note": 78,
      "start": 40.5754,
      "duration": 0.1929,
      "velocity": 109,
      "chip": "ym2612"
    },
    {
      "channel": 3,
      "note": 74,
      "start": 40.5765,
      "duration": 0.1929,
      "velocity": 109,
      "chip": "ym2612"
    },
    {
      "channel": 4,
      "note": 78,
      "start": 40.5772,
      "duration": 0.193,
      "velocity": 109,
      "chip": "ym2612"
    },
    {
      "channel": 0,
      "note": 78,
      "start": 40.7689,
      "duration": 0.1869,
      "velocity": 109,
      "chip": "ym2612"
    },
    {
      "channel": 3,
      "note": 74,
      "start": 40.77,
      "duration": 0.1873,
      "velocity": 109,
      "chip": "ym2612"
    },
    {
      "channel": 4,
      "note": 78,
      "start": 40.7708,
      "duration": 0.1872,
      "velocity": 109,
      "chip": "ym2612"
    },
    {
      "channel": 2,
      "note": 30,
      "start": 40.772,
      "duration": 0.2492,
      "velocity": 119,
      "chip": "ym2612"
    },
    {
      "channel": 0,
      "note": 78,
      "start": 40.9564,
      "duration": 0.1929,
      "velocity": 109,
      "chip": "ym2612"
    },
    {
      "channel": 1,
      "note": 30,
      "start": 40.9571,
      "duration": 0.1929,
      "velocity": 109,
      "chip": "ym2612"
    },
    {
      "channel": 3,
      "note": 74,
      "start": 40.9579,
      "duration": 0.193,
      "velocity": 109,
      "chip": "ym2612"
    },
    {
      "channel": 4,
      "note": 78,
      "start": 40.9586,
      "duration": 0.1931,
      "velocity": 109,
      "chip": "ym2612"
    },
    {
      "channel": 5,
      "note": 30,
      "start": 40.9593,
      "duration": 0.1931,
      "velocity": 95,
      "chip": "ym2612"
    },
    {
      "channel": 0,
      "note": 78,
      "start": 41.1499,
      "duration": 0.187,
      "velocity": 109,
      "chip": "ym2612"
    },
    {
      "channel": 1,
      "note": 35,
      "start": 41.1506,
      "duration": 0.3804,
      "velocity": 109,
      "chip": "ym2612"
    },
    {
      "channel": 3,
      "note": 74,
      "start": 41.1515,
      "duration": 0.1864,
      "velocity": 109,
      "chip": "ym2612"
    },
    {
      "channel": 4,
      "note": 78,
      "start": 41.1523,
      "duration": 0.1864,
      "velocity": 109,
      "chip": "ym2612"
    },
    {
      "channel": 5,
      "note": 35,
      "start": 41.153,
      "duration": 0.3802,
      "velocity": 95,
      "chip": "ym2612"
    },
    {
      "channel": 2,
      "note": 30,
      "start": 41.1539,
      "duration": 0.2483,
      "velocity": 119,
      "chip": "ym2612"
    },
    {
      "channel": 0,
      "note": 78,
      "start": 41.3375,
      "duration": 0.1928,
      "velocity": 109,
      "chip": "ym2612"
    },
    {
      "channel": 3,
      "note": 74,
      "start": 41.3385,
      "duration": 0.1931,
      "velocity": 109,
      "chip": "ym2612"
    },
    {
      "channel": 4,
      "note": 78,
      "start": 41.3393,
      "duration": 0.1932,
      "velocity": 109,
      "chip": "ym2612"
    },
    {
      "channel": 0,
      "note": 78,
      "start": 41.5309,
      "duration": 0.187,
      "velocity": 109,
      "chip": "ym2612"
    },
    {
      "channel": 1,
      "note": 35,
      "start": 41.5315,
      "duration": 0.7615,
      "velocity": 109,
      "chip": "ym2612"
    },
    {
      "channel": 3,
      "note": 74,
      "start": 41.5323,
      "duration": 0.1866,
      "velocity": 109,
      "chip": "ym2612"
    },
    {
      "channel": 4,
      "note": 78,
      "start": 41.5331,
      "duration": 0.1866,
      "velocity": 109,
      "chip": "ym2612"
    },
    {
      "channel": 5,
      "note": 35,
      "start": 41.5337,
      "duration": 0.7616,
      "velocity": 95,
      "chip": "ym2612"
    },
    {
      "channel": 2,
      "note": 30,
      "start": 41.5345,
      "duration": 0.2487,
      "velocity": 119,
      "chip": "ym2612"
    },
    {
      "channel": 0,
      "note": 78,
      "start": 41.7184,
      "duration": 0.1928,
      "velocity": 109,
      "chip": "ym2612"
    },
    {
      "channel": 3,
      "note": 74,
      "start": 41.7195,
      "duration": 0.1929,
      "velocity": 109,
      "chip": "ym2612"
    },
    {
      "channel": 4,
      "note": 78,
      "start": 41.7203,
      "duration": 0.193,
      "velocity": 109,
      "chip": "ym2612"
    },
    {
      "channel": 0,
      "note": 78,
      "start": 41.9118,
      "duration": 0.1871,
      "velocity": 109,
      "chip": "ym2612"
    },
    {
      "channel": 3,
      "note": 74,
      "start": 41.913,
      "duration": 0.187,
      "velocity": 109,
      "chip": "ym2612"
    },
    {
      "channel": 4,
      "note": 78,
      "start": 41.9139,
      "duration": 0.1869,
      "velocity": 109,
      "chip": "ym2612"
    },
    {
      "channel": 2,
      "note": 30,
      "start": 41.9151,
      "duration": 0.249,
      "velocity": 119,
      "chip": "ym2612"
    },
    {
      "channel": 0,
      "note": 78,
      "start": 42.0995,
      "duration": 0.1927,
      "velocity": 109,
      "chip": "ym2612"
    },
    {
      "channel": 3,
      "note": 74,
      "start": 42.1006,
      "duration": 0.1931,
      "velocity": 109,
      "chip": "ym2612"
    },
    {
      "channel": 4,
      "note": 78,
      "start": 42.1013,
      "duration": 0.1932,
      "velocity": 109,
      "chip": "ym2612"
    },
    {
      "channel": 0,
      "note": 78,
      "start": 42.2929,
      "duration": 0.187,
      "velocity": 109,
      "chip": "ym2612"
    },
    {
      "channel": 1,
      "note": 33,
      "start": 42.2936,
      "duration": 0.3805,
      "velocity": 109,
      "chip": "ym2612"
    },
    {
      "channel": 3,
      "note": 74,
      "start": 42.2943,
      "duration": 0.1866,
      "velocity": 109,
      "chip": "ym2612"
    },
    {
      "channel": 4,
      "note": 78,
      "start": 42.2951,
      "duration": 0.1866,
      "velocity": 109,
      "chip": "ym2612"
    },
    {
      "channel": 5,
      "note": 33,
      "start": 42.2959,
      "duration": 0.3805,
      "velocity": 95,
      "chip": "ym2612"
    },
    {
      "channel": 2,
      "note": 30,
      "start": 42.2968,
      "duration": 0.2484,
      "velocity": 119,
      "chip": "ym2612"
    },
    {
      "channel": 0,
      "note": 78,
      "start": 42.4805,
      "duration": 0.1929,
      "velocity": 109,
      "chip": "ym2612"
    },
    {
      "channel": 3,
      "note": 74,
      "start": 42.4816,
      "duration": 0.1933,
      "velocity": 109,
      "chip": "ym2612"
    },
    {
      "channel": 4,
      "note": 78,
      "start": 42.4824,
      "duration": 0.1933,
      "velocity": 109,
      "chip": "ym2612"
    },
    {
      "channel": 0,
      "note": 80,
      "start": 42.6739,
      "duration": 0.1871,
      "velocity": 109,
      "chip": "ym2612"
    },
    {
      "channel": 1,
      "note": 32,
      "start": 42.6746,
      "duration": 1.1426,
      "velocity": 109,
      "chip": "ym2612"
    },
    {
      "channel": 3,
      "note": 75,
      "start": 42.6755,
      "duration": 0.1867,
      "velocity": 109,
      "chip": "ym2612"
    },
    {
      "channel": 4,
      "note": 80,
      "start": 42.6763,
      "duration": 0.1867,
      "velocity": 109,
      "chip": "ym2612"
    },
    {
      "channel": 5,
      "note": 32,
      "start": 42.677,
      "duration": 1.1422,
      "velocity": 95,
      "chip": "ym2612"
    },
    {
      "channel": 2,
      "note": 30,
      "start": 42.6778,
      "duration": 0.2483,
      "velocity": 119,
      "chip": "ym2612"
    },
    {
      "channel": 0,
      "note": 80,
      "start": 42.8616,
      "duration": 0.1926,
      "velocity": 109,
      "chip": "ym2612"
    },
    {
      "channel": 3,
      "note": 75,
      "start": 42.8628,
      "duration": 0.1926,
      "velocity": 109,
      "chip": "ym2612"
    },
    {
      "channel": 4,
      "note": 80,
      "start": 42.8637,
      "duration": 0.1926,
      "velocity": 109,
      "chip": "ym2612"
    },
    {
      "channel": 0,
      "note": 80,
      "start": 43.0549,
      "duration": 0.187,
      "velocity": 109,
      "chip": "ym2612"
    },
    {
      "channel": 3,
      "note": 75,
      "start": 43.056,
      "duration": 0.1871,
      "velocity": 109,
      "chip": "ym2612"
    },
    {
      "channel": 4,
      "note": 80,
      "start": 43.0569,
      "duration": 0.1871,
      "velocity": 109,
      "chip": "ym2612"
    },
    {
      "channel": 2,
      "note": 30,
      "start": 43.0581,
      "duration": 0.2492,
      "velocity": 119,
      "chip": "ym2612"
    },
    {
      "channel": 0,
      "note": 80,
      "start": 43.2425,
      "duration": 0.1928,
      "velocity": 109,
      "chip": "ym2612"
    },
    {
      "channel": 3,
      "note": 75,
      "start": 43.2438,
      "duration": 0.1927,
      "velocity": 109,
      "chip": "ym2612"
    },
    {
      "channel": 4,
      "note": 80,
      "start": 43.2446,
      "duration": 0.1927,
      "velocity": 109,
      "chip": "ym2612"
    },
    {
      "channel": 0,
      "note": 80,
      "start": 43.4359,
      "duration": 0.1871,
      "velocity": 109,
      "chip": "ym2612"
    },
    {
      "channel": 3,
      "note": 75,
      "start": 43.4371,
      "duration": 0.187,
      "velocity": 109,
      "chip": "ym2612"
    },
    {
      "channel": 4,
      "note": 80,
      "start": 43.4379,
      "duration": 0.1871,
      "velocity": 109,
      "chip": "ym2612"
    },
    {
      "channel": 2,
      "note": 30,
      "start": 43.4391,
      "duration": 0.2492,
      "velocity": 119,
      "chip": "ym2612"
    },
    {
      "channel": 0,
      "note": 80,
      "start": 43.6235,
      "duration": 0.1929,
      "velocity": 109,
      "chip": "ym2612"
    },
    {
      "channel": 3,
      "note": 75,
      "start": 43.6247,
      "duration": 0.1929,
      "velocity": 109,
      "chip": "ym2612"
    },
    {
      "channel": 4,
      "note": 80,
      "start": 43.6256,
      "duration": 0.1929,
      "velocity": 109,
      "chip": "ym2612"
    },
    {
      "channel": 0,
      "note": 80,
      "start": 43.8171,
      "duration": 0.187,
      "velocity": 109,
      "chip": "ym2612"
    },
    {
      "channel": 3,
      "note": 75,
      "start": 43.8182,
      "duration": 0.1874,
      "velocity": 109,
      "chip": "ym2612"
    },
    {
      "channel": 4,
      "note": 80,
      "start": 43.8191,
      "duration": 0.1874,
      "velocity": 109,
      "chip": "ym2612"
    },
    {
      "channel": 2,
      "note": 30,
      "start": 43.8202,
      "duration": 0.2489,
      "velocity": 119,
      "chip": "ym2612"
    },
    {
      "channel": 0,
      "note": 80,
      "start": 44.0046,
      "duration": 0.1928,
      "velocity": 109,
      "chip": "ym2612"
    },
    {
      "channel": 1,
      "note": 27,
      "start": 44.0054,
      "duration": 0.1928,
      "velocity": 109,
      "chip": "ym2612"
    },
    {
      "channel": 3,
      "note": 75,
      "start": 44.0062,
      "duration": 0.1927,
      "velocity": 109,
      "chip": "ym2612"
    },
    {
      "channel": 4,
      "note": 80,
      "start": 44.0071,
      "duration": 0.1928,
      "velocity": 109,
      "chip": "ym2612"
    },
    {
      "channel": 5,
      "note": 27,
      "start": 44.0078,
      "duration": 0.1928,
      "velocity": 95,
      "chip": "ym2612"
    },
    {
      "channel": 0,
      "note": 80,
      "start": 44.198,
      "duration": 0.187,
      "velocity": 109,
      "chip": "ym2612"
    },
    {
      "channel": 1,
      "note": 32,
      "start": 44.1988,
      "duration": 0.3804,
      "velocity": 109,
      "chip": "ym2612"
    },
    {
      "channel": 3,
      "note": 75,
      "start": 44.1996,
      "duration": 0.1865,
      "velocity": 109,
      "chip": "ym2612"
    },
    {
      "channel": 4,
      "note": 80,
      "start": 44.2004,
      "duration": 0.1866,
      "velocity": 109,
      "chip": "ym2612"
    },
    {
      "channel": 5,
      "note": 32,
      "start": 44.2012,
      "duration": 0.3803,
      "velocity": 95,
      "chip": "ym2612"
    },
    {
      "channel": 2,
      "note": 30,
      "start": 44.202,
      "duration": 0.2482,
      "velocity": 119,
      "chip": "ym2612"
    },
    {
      "channel": 0,
      "note": 80,
      "start": 44.3856,
      "duration": 0.1928,
      "velocity": 109,
      "chip": "ym2612"
    },
    {
      "channel": 3,
      "note": 75,
      "start": 44.3868,
      "duration": 0.193,
      "velocity": 109,
      "chip": "ym2612"
    },
    {
      "channel": 4,
      "note": 80,
      "start": 44.3876,
      "duration": 0.1931,
      "velocity": 109,
      "chip": "ym2612"
    },
    {
      "channel": 0,
      "note": 80,
      "start": 44.5789,
      "duration": 0.187,
      "velocity": 109,
      "chip": "ym2612"
    },
    {
      "channel": 1,
      "note": 32,
      "start": 44.5796,
      "duration": 0.7615,
      "velocity": 109,
      "chip": "ym2612"
    },
    {
      "channel": 3,
      "note": 75,
      "start": 44.5804,
      "duration": 0.1868,
      "velocity": 109,
      "chip": "ym2612"
    },
    {
      "channel": 4,
      "note": 80,
      "start": 44.5813,
      "duration": 0.1868,
      "velocity": 109,
      "chip": "ym2612"
    },
    {
      "channel": 5,
      "note": 32,
      "start": 44.5819,
      "duration": 0.7615,
      "velocity": 95,
      "chip": "ym2612"
    },
    {
      "channel": 2,
      "note": 30,
      "start": 44.5827,
      "duration": 0.2485,
      "velocity": 119,
      "chip": "ym2612"
    },
    {
      "channel": 0,
      "note": 80,
      "start": 44.7666,
      "duration": 0.1928,
      "velocity": 109,
      "chip": "ym2612"
    },
    {
      "channel": 3,
      "note": 75,
      "start": 44.7678,
      "duration": 0.1927,
      "velocity": 109,
      "chip": "ym2612"
    },
    {
      "channel": 4,
      "note": 80,
      "start": 44.7686,
      "duration": 0.1928,
      "velocity": 109,
      "chip": "ym2612"
    },
    {
      "channel": 0,
      "note": 80,
      "start": 44.96,
      "duration": 0.1871,
      "velocity": 109,
      "chip": "ym2612"
    },
    {
      "channel": 3,
      "note": 75,
      "start": 44.9612,
      "duration": 0.1872,
      "velocity": 109,
      "chip": "ym2612"
    },
    {
      "channel": 4,
      "note": 80,
      "start": 44.962,
      "duration": 0.1871,
      "velocity": 109,
      "chip": "ym2612"
    },
    {
      "channel": 2,
      "note": 30,
      "start": 44.9632,
      "duration": 0.249,
      "velocity": 119,
      "chip": "ym2612"
    },
    {
      "channel": 0,
      "note": 80,
      "start": 45.1477,
      "duration": 0.1926,
      "velocity": 109,
      "chip": "ym2612"
    },
    {
      "channel": 3,
      "note": 75,
      "start": 45.1489,
      "duration": 0.1928,
      "velocity": 109,
      "chip": "ym2612"
    },
    {
      "channel": 4,
      "note": 80,
      "start": 45.1498,
      "duration": 0.1928,
      "velocity": 109,
      "chip": "ym2612"
    },
    {
      "channel": 0,
      "note": 80,
      "start": 45.3409,
      "duration": 0.1871,
      "velocity": 109,
      "chip": "ym2612"
    },
    {
      "channel": 1,
      "note": 32,
      "start": 45.3415,
      "duration": 0.3807,
      "velocity": 109,
      "chip": "ym2612"
    },
    {
      "channel": 3,
      "note": 75,
      "start": 45.3424,
      "duration": 0.1869,
      "velocity": 109,
      "chip": "ym2612"
    },
    {
      "channel": 4,
      "note": 80,
      "start": 45.3432,
      "duration": 0.1869,
      "velocity": 109,
      "chip": "ym2612"
    },
    {
      "channel": 5,
      "note": 32,
      "start": 45.3438,
      "duration": 0.381,
      "velocity": 95,
      "chip": "ym2612"
    },
    {
      "channel": 2,
      "note": 30,
      "start": 45.3446,
      "duration": 0.2485,
      "velocity": 119,
      "chip": "ym2612"
    },
    {
      "channel": 0,
      "note": 80,
      "start": 45.5287,
      "duration": 0.1927,
      "velocity": 109,
      "chip": "ym2612"
    },
    {
      "channel": 3,
      "note": 75,
      "start": 45.5298,
      "duration": 0.1932,
      "velocity": 109,
      "chip": "ym2612"
    },
    {
      "channel": 4,
      "note": 80,
      "start": 45.5307,
      "duration": 0.1932,
      "velocity": 109,
      "chip": "ym2612"
    },
    {
      "channel": 0,
      "note": 81,
      "start": 45.722,
      "duration": 0.187,
      "velocity": 109,
      "chip": "ym2612"
    },
    {
      "channel": 1,
      "note": 45,
      "start": 45.7228,
      "duration": 1.1424,
      "velocity": 109,
      "chip": "ym2612"
    },
    {
      "channel": 3,
      "note": 76,
      "start": 45.7237,
      "duration": 0.1866,
      "velocity": 109,
      "chip": "ym2612"
    },
    {
      "channel": 4,
      "note": 81,
      "start": 45.7246,
      "duration": 0.1865,
      "velocity": 109,
      "chip": "ym2612"
    },
    {
      "channel": 5,
      "note": 45,
      "start": 45.7254,
      "duration": 1.1419,
      "velocity": 95,
      "chip": "ym2612"
    },
    {
      "channel": 2,
      "note": 30,
      "start": 45.7263,
      "duration": 0.248,
      "velocity": 119,
      "chip": "ym2612"
    },
    {
      "channel": 0,
      "note": 81,
      "start": 45.9096,
      "duration": 0.1928,
      "velocity": 109,
      "chip": "ym2612"
    },
    {
      "channel": 3,
      "note": 76,
      "start": 45.9108,
      "duration": 0.1928,
      "velocity": 109,
      "chip": "ym2612"
    },
    {
      "channel": 4,
      "note": 81,
      "start": 45.9117,
      "duration": 0.1927,
      "velocity": 109,
      "chip": "ym2612"
    },
    {
      "channel": 0,
      "note": 81,
      "start": 46.103,
      "duration": 0.187,
      "velocity": 109,
      "chip": "ym2612"
    },
    {
      "channel": 3,
      "note": 76,
      "start": 46.1042,
      "duration": 0.187,
      "velocity": 109,
      "chip": "ym2612"
    },
    {
      "channel": 4,
      "note": 81,
      "start": 46.1051,
      "duration": 0.187,
      "velocity": 109,
      "chip": "ym2612"
    },
    {
      "channel": 2,
      "note": 30,
      "start": 46.1062,
      "duration": 0.249,
      "velocity": 119,
      "chip": "ym2612"
    },
    {
      "channel": 0,
      "note": 81,
      "start": 46.2906,
      "duration": 0.1928,
      "velocity": 109,
      "chip": "ym2612"
    },
    {
      "channel": 3,
      "note": 76,
      "start": 46.2918,
      "duration": 0.1928,
      "velocity": 109,
      "chip": "ym2612"
    },
    {
      "channel": 4,
      "note": 81,
      "start": 46.2927,
      "duration": 0.1927,
      "velocity": 109,
      "chip": "ym2612"
    },
    {
      "channel": 0,
      "note": 81,
      "start": 46.484,
      "duration": 0.187,
      "velocity": 109,
      "chip": "ym2612"
    },
    {
      "channel": 3,
      "note": 76,
      "start": 46.4852,
      "duration": 0.1871,
      "velocity": 109,
      "chip": "ym2612"
    },
    {
      "channel": 4,
      "note": 81,
      "start": 46.4861,
      "duration": 0.187,
      "velocity": 109,
      "chip": "ym2612"
    },
    {
      "channel": 2,
      "note": 30,
      "start": 46.4872,
      "duration": 0.249,
      "velocity": 119,
      "chip": "ym2612"
    },
    {
      "channel": 0,
      "note": 81,
      "start": 46.6716,
      "duration": 0.1928,
      "velocity": 109,
      "chip": "ym2612"
    },
    {
      "channel": 3,
      "note": 76,
      "start": 46.6728,
      "duration": 0.1928,
      "velocity": 109,
      "chip": "ym2612"
    },
    {
      "channel": 4,
      "note": 81,
      "start": 46.6737,
      "duration": 0.1928,
      "velocity": 109,
      "chip": "ym2612"
    },
    {
      "channel": 0,
      "note": 81,
      "start": 46.8651,
      "duration": 0.1871,
      "velocity": 109,
      "chip": "ym2612"
    },
    {
      "channel": 3,
      "note": 76,
      "start": 46.8663,
      "duration": 0.1875,
      "velocity": 109,
      "chip": "ym2612"
    },
    {
      "channel": 4,
      "note": 81,
      "start": 46.8671,
      "duration": 0.1875,
      "velocity": 109,
      "chip": "ym2612"
    },
    {
      "channel": 2,
      "note": 30,
      "start": 46.8683,
      "duration": 0.249,
      "velocity": 119,
      "chip": "ym2612"
    },
    {
      "channel": 0,
      "note": 81,
      "start": 47.0528,
      "duration": 0.1926,
      "velocity": 109,
      "chip": "ym2612"
    },
    {
      "channel": 1,
      "note": 40,
      "start": 47.0535,
      "duration": 0.1927,
      "velocity": 109,
      "chip": "ym2612"
    },
    {
      "channel": 3,
      "note": 76,
      "start": 47.0544,
      "duration": 0.1926,
      "velocity": 109,
      "chip": "ym2612"
    },
    {
      "channel": 4,
      "note": 81,
      "start": 47.0552,
      "duration": 0.1927,
      "velocity": 109,
      "chip": "ym2612"
    },
    {
      "channel": 5,
      "note": 40,
      "start": 47.056,
      "duration": 0.1928,
      "velocity": 95,
      "chip": "ym2612"
    },
    {
      "channel": 0,
      "note": 81,
      "start": 47.2461,
      "duration": 0.187,
      "velocity": 109,
      "chip": "ym2612"
    },
    {
      "channel": 1,
      "note": 45,
      "start": 47.2468,
      "duration": 0.3803,
      "velocity": 109,
      "chip": "ym2612"
    },
    {
      "channel": 3,
      "note": 76,
      "start": 47.2476,
      "duration": 0.1866,
      "velocity": 109,
      "chip": "ym2612"
    },
    {
      "channel": 4,
      "note": 81,
      "start": 47.2485,
      "duration": 0.1866,
      "velocity": 109,
      "chip": "ym2612"
    },
    {
      "channel": 5,
      "note": 45,
      "start": 47.2493,
      "duration": 0.3801,
      "velocity": 95,
      "chip": "ym2612"
    },
    {
      "channel": 2,
      "note": 30,
      "start": 47.2501,
      "duration": 0.2482,
      "velocity": 119,
      "chip": "ym2612"
    },
    {
      "channel": 0,
      "note": 81,
      "start": 47.4337,
      "duration": 0.1927,
      "velocity": 109,
      "chip": "ym2612"
    },
    {
      "channel": 3,
      "note": 76,
      "start": 47.4349,
      "duration": 0.1929,
      "velocity": 109,
      "chip": "ym2612"
    },
    {
      "channel": 4,
      "note": 81,
      "start": 47.4357,
      "duration": 0.1929,
      "velocity": 109,
      "chip": "ym2612"
    },
    {
      "channel": 0,
      "note": 81,
      "start": 47.627,
      "duration": 0.1871,
      "velocity": 109,
      "chip": "ym2612"
    },
    {
      "channel": 1,
      "note": 45,
      "start": 47.6275,
      "duration": 0.7617,
      "velocity": 109,
      "chip": "ym2612"
    },
    {
      "channel": 3,
      "note": 76,
      "start": 47.6284,
      "duration": 0.187,
      "velocity": 109,
      "chip": "ym2612"
    },
    {
      "channel": 4,
      "note": 81,
      "start": 47.6293,
      "duration": 0.187,
      "velocity": 109,
      "chip": "ym2612"
    },
    {
      "channel": 5,
      "note": 45,
      "start": 47.6298,
      "duration": 0.7618,
      "velocity": 95,
      "chip": "ym2612"
    },
    {
      "channel": 2,
      "note": 30,
      "start": 47.6307,
      "duration": 0.2486,
      "velocity": 119,
      "chip": "ym2612"
    },
    {
      "channel": 0,
      "note": 81,
      "start": 47.8148,
      "duration": 0.1926,
      "velocity": 109,
      "chip": "ym2612"
    },
    {
      "channel": 3,
      "note": 76,
      "start": 47.816,
      "duration": 0.1926,
      "velocity": 109,
      "chip": "ym2612"
    },
    {
      "channel": 4,
      "note": 81,
      "start": 47.8168,
      "duration": 0.1926,
      "velocity": 109,
      "chip": "ym2612"
    },
    {
      "channel": 0,
      "note": 81,
      "start": 48.0079,
      "duration": 0.1872,
      "velocity": 109,
      "chip": "ym2612"
    },
    {
      "channel": 3,
      "note": 76,
      "start": 48.0092,
      "duration": 0.1871,
      "velocity": 109,
      "chip": "ym2612"
    },
    {
      "channel": 4,
      "note": 81,
      "start": 48.01,
      "duration": 0.1871,
      "velocity": 109,
      "chip": "ym2612"
    },
    {
      "channel": 2,
      "note": 30,
      "start": 48.0112,
      "duration": 0.2491,
      "velocity": 119,
      "chip": "ym2612"
    },
    {
      "channel": 0,
      "note": 81,
      "start": 48.1957,
      "duration": 0.1927,
      "velocity": 109,
      "chip": "ym2612"
    },
    {
      "channel": 3,
      "note": 76,
      "start": 48.1969,
      "duration": 0.1931,
      "velocity": 109,
      "chip": "ym2612"
    },
    {
      "channel": 4,
      "note": 81,
      "start": 48.1978,
      "duration": 0.1931,
      "velocity": 109,
      "chip": "ym2612"
    },
    {
      "channel": 0,
      "note": 81,
      "start": 48.389,
      "duration": 0.187,
      "velocity": 109,
      "chip": "ym2612"
    },
    {
      "channel": 1,
      "note": 44,
      "start": 48.3898,
      "duration": 0.3806,
      "velocity": 109,
      "chip": "ym2612"
    },
    {
      "channel": 3,
      "note": 76,
      "start": 48.3906,
      "duration": 0.1866,
      "velocity": 109,
      "chip": "ym2612"
    },
    {
      "channel": 4,
      "note": 81,
      "start": 48.3915,
      "duration": 0.1866,
      "velocity": 109,
      "chip": "ym2612"
    },
    {
      "channel": 5,
      "note": 44,
      "start": 48.3922,
      "duration": 0.3808,
      "velocity": 95,
      "chip": "ym2612"
    },
    {
      "channel": 2,
      "note": 30,
      "start": 48.3931,
      "duration": 0.2482,
      "velocity": 119,
      "chip": "ym2612"
    },
    {
      "channel": 0,
      "note": 81,
      "start": 48.5766,
      "duration": 0.1929,
      "velocity": 109,
      "chip": "ym2612"
    },
    {
      "channel": 3,
      "note": 76,
      "start": 48.5778,
      "duration": 0.1933,
      "velocity": 109,
      "chip": "ym2612"
    },
    {
      "channel": 4,
      "note": 81,
      "start": 48.5787,
      "duration": 0.1934,
      "velocity": 109,
      "chip": "ym2612"
    },
    {
      "channel": 0,
      "note": 78,
      "start": 48.7702,
      "duration": 0.1869,
      "velocity": 109,
      "chip": "ym2612"
    },
    {
      "channel": 1,
      "note": 38,
      "start": 48.771,
      "duration": 1.1422,
      "velocity": 109,
      "chip": "ym2612"
    },
    {
      "channel": 3,
      "note": 73,
      "start": 48.7718,
      "duration": 0.1864,
      "velocity": 109,
      "chip": "ym2612"
    },
    {
      "channel": 4,
      "note": 78,
      "start": 48.7728,
      "duration": 0.1863,
      "velocity": 109,
      "chip": "ym2612"
    },
    {
      "channel": 5,
      "note": 38,
      "start": 48.7736,
      "duration": 1.1417,
      "velocity": 95,
      "chip": "ym2612"
    },
    {
      "channel": 2,
      "note": 30,
      "start": 48.7744,
      "duration": 0.2478,
      "velocity": 119,
      "chip": "ym2612"
    },
    {
      "channel": 0,
      "note": 78,
      "start": 48.9576,
      "duration": 0.1929,
      "velocity": 109,
      "chip": "ym2612"
    },
    {
      "channel": 3,
      "note": 73,
      "start": 48.9588,
      "duration": 0.1928,
      "velocity": 109,
      "chip": "ym2612"
    },
    {
      "channel": 4,
      "note": 78,
      "start": 48.9596,
      "duration": 0.1929,
      "velocity": 109,
      "chip": "ym2612"
    },
    {
      "channel": 0,
      "note": 78,
      "start": 49.1511,
      "duration": 0.187,
      "velocity": 109,
      "chip": "ym2612"
    },
    {
      "channel": 3,
      "note": 73,
      "start": 49.1523,
      "duration": 0.187,
      "velocity": 109,
      "chip": "ym2612"
    },
    {
      "channel": 4,
      "note": 78,
      "start": 49.1531,
      "duration": 0.1869,
      "velocity": 109,
      "chip": "ym2612"
    },
    {
      "channel": 2,
      "note": 30,
      "start": 49.1543,
      "duration": 0.249,
      "velocity": 119,
      "chip": "ym2612"
    },
    {
      "channel": 0,
      "note": 78,
      "start": 49.3387,
      "duration": 0.1928,
      "velocity": 109,
      "chip": "ym2612"
    },
    {
      "channel": 3,
      "note": 73,
      "start": 49.3399,
      "duration": 0.1928,
      "velocity": 109,
      "chip": "ym2612"
    },
    {
      "channel": 4,
      "note": 78,
      "start": 49.3406,
      "duration": 0.1929,
      "velocity": 109,
      "chip": "ym2612"
    },
    {
      "channel": 0,
      "note": 78,
      "start": 49.5321,
      "duration": 0.187,
      "velocity": 109,
      "chip": "ym2612"
    },
    {
      "channel": 3,
      "note": 73,
      "start": 49.5333,
      "duration": 0.187,
      "velocity": 109,
      "chip": "ym2612"
    },
    {
      "channel": 4,
      "note": 78,
      "start": 49.5341,
      "duration": 0.1869,
      "velocity": 109,
      "chip": "ym2612"
    },
    {
      "channel": 2,
      "note": 30,
      "start": 49.5353,
      "duration": 0.249,
      "velocity": 119,
      "chip": "ym2612"
    },
    {
      "channel": 0,
      "note": 78,
      "start": 49.7197,
      "duration": 0.1928,
      "velocity": 109,
      "chip": "ym2612"
    },
    {
      "channel": 3,
      "note": 73,
      "start": 49.7209,
      "duration": 0.1927,
      "velocity": 109,
      "chip": "ym2612"
    },
    {
      "channel": 4,
      "note": 78,
      "start": 49.7216,
      "duration": 0.1929,
      "velocity": 109,
      "chip": "ym2612"
    },
    {
      "channel": 0,
      "note": 78,
      "start": 49.913,
      "duration": 0.187,
      "velocity": 109,
      "chip": "ym2612"
    },
    {
      "channel": 3,
      "note": 73,
      "start": 49.9142,
      "duration": 0.1873,
      "velocity": 109,
      "chip": "ym2612"
    },
    {
      "channel": 4,
      "note": 78,
      "start": 49.9151,
      "duration": 0.1872,
      "velocity": 109,
      "chip": "ym2612"
    },
    {
      "channel": 2,
      "note": 30,
      "start": 49.9163,
      "duration": 0.2492,
      "velocity": 119,
      "chip": "ym2612"
    },
    {
      "channel": 0,
      "note": 78,
      "start": 50.1006,
      "duration": 0.1929,
      "velocity": 109,
      "chip": "ym2612"
    },
    {
      "channel": 1,
      "note": 33,
      "start": 50.1013,
      "duration": 0.1929,
      "velocity": 109,
      "chip": "ym2612"
    },
    {
      "channel": 3,
      "note": 73,
      "start": 50.1022,
      "duration": 0.1929,
      "velocity": 109,
      "chip": "ym2612"
    },
    {
      "channel": 4,
      "note": 78,
      "start": 50.1029,
      "duration": 0.193,
      "velocity": 109,
      "chip": "ym2612"
    },
    {
      "channel": 5,
      "note": 33,
      "start": 50.1037,
      "duration": 0.193,
      "velocity": 95,
      "chip": "ym2612"
    },
    {
      "channel": 0,
      "note": 78,
      "start": 50.2941,
      "duration": 0.1868,
      "velocity": 109,
      "chip": "ym2612"
    },
    {
      "channel": 1,
      "note": 38,
      "start": 50.2948,
      "duration": 0.3804,
      "velocity": 109,
      "chip": "ym2612"
    },
    {
      "channel": 3,
      "note": 73,
      "start": 50.2957,
      "duration": 0.1866,
      "velocity": 109,
      "chip": "ym2612"
    },
    {
      "channel": 4,
      "note": 78,
      "start": 50.2966,
      "duration": 0.1865,
      "velocity": 109,
      "chip": "ym2612"
    },
    {
      "channel": 5,
      "note": 38,
      "start": 50.2973,
      "duration": 0.3803,
      "velocity": 95,
      "chip": "ym2612"
    },
    {
      "channel": 2,
      "note": 30,
      "start": 50.2981,
      "duration": 0.2483,
      "velocity": 119,
      "chip": "ym2612"
    },
    {
      "channel": 0,
      "note": 78,
      "start": 50.4817,
      "duration": 0.1928,
      "velocity": 109,
      "chip": "ym2612"
    },
    {
      "channel": 3,
      "note": 73,
      "start": 50.4828,
      "duration": 0.1931,
      "velocity": 109,
      "chip": "ym2612"
    },
    {
      "channel": 4,
      "note": 78,
      "start": 50.4836,
      "duration": 0.1932,
      "velocity": 109,
      "chip": "ym2612"
    },
    {
      "channel": 0,
      "note": 78,
      "start": 50.6751,
      "duration": 0.187,
      "velocity": 109,
      "chip": "ym2612"
    },
    {
      "channel": 1,
      "note": 38,
      "start": 50.6757,
      "duration": 0.7615,
      "velocity": 109,
      "chip": "ym2612"
    },
    {
      "channel": 3,
      "note": 73,
      "start": 50.6765,
      "duration": 0.1867,
      "velocity": 109,
      "chip": "ym2612"
    },
    {
      "channel": 4,
      "note": 78,
      "start": 50.6774,
      "duration": 0.1866,
      "velocity": 109,
      "chip": "ym2612"
    },
    {
      "channel": 5,
      "note": 38,
      "start": 50.678,
      "duration": 0.7616,
      "velocity": 95,
      "chip": "ym2612"
    },
    {
      "channel": 2,
      "note": 30,
      "start": 50.6788,
      "duration": 0.2485,
      "velocity": 119,
      "chip": "ym2612"
    },
    {
      "channel": 0,
      "note": 78,
      "start": 50.8627,
      "duration": 0.1929,
      "velocity": 109,
      "chip": "ym2612"
    },
    {
      "channel": 3,
      "note": 73,
      "start": 50.8639,
      "duration": 0.1929,
      "velocity": 109,
      "chip": "ym2612"
    },
    {
      "channel": 4,
      "note": 78,
      "start": 50.8646,
      "duration": 0.1929,
      "velocity": 109,
      "chip": "ym2612"
    },
    {
      "channel": 0,
      "note": 78,
      "start": 51.0562,
      "duration": 0.187,
      "velocity": 109,
      "chip": "ym2612"
    },
    {
      "channel": 3,
      "note": 73,
      "start": 51.0573,
      "duration": 0.187,
      "velocity": 109,
      "chip": "ym2612"
    },
    {
      "channel": 4,
      "note": 78,
      "start": 51.0582,
      "duration": 0.1868,
      "velocity": 109,
      "chip": "ym2612"
    },
    {
      "channel": 2,
      "note": 30,
      "start": 51.0593,
      "duration": 0.249,
      "velocity": 119,
      "chip": "ym2612"
    },
    {
      "channel": 0,
      "note": 78,
      "start": 51.2437,
      "duration": 0.1927,
      "velocity": 109,
      "chip": "ym2612"
    },
    {
      "channel": 3,
      "note": 73,
      "start": 51.2449,
      "duration": 0.1931,
      "velocity": 109,
      "chip": "ym2612"
    },
    {
      "channel": 4,
      "note": 78,
      "start": 51.2456,
      "duration": 0.1933,
      "velocity": 109,
      "chip": "ym2612"
    },
    {
      "channel": 0,
      "note": 78,
      "start": 51.437,
      "duration": 0.1871,
      "velocity": 109,
      "chip": "ym2612"
    },
    {
      "channel": 1,
      "note": 37,
      "start": 51.4378,
      "duration": 0.3805,
      "velocity": 109,
      "chip": "ym2612"
    },
    {
      "channel": 3,
      "note": 73,
      "start": 51.4386,
      "duration": 0.1867,
      "velocity": 109,
      "chip": "ym2612"
    },
    {
      "channel": 4,
      "note": 78,
      "start": 51.4395,
      "duration": 0.1866,
      "velocity": 109,
      "chip": "ym2612"
    },
    {
      "channel": 5,
      "note": 37,
      "start": 51.4402,
      "duration": 0.3805,
      "velocity": 95,
      "chip": "ym2612"
    },
    {
      "channel": 2,
      "note": 30,
      "start": 51.441,
      "duration": 0.2483,
      "velocity": 119,
      "chip": "ym2612"
    },
    {
      "channel": 0,
      "note": 78,
      "start": 51.6247,
      "duration": 0.1929,
      "velocity": 109,
      "chip": "ym2612"
    },
    {
      "channel": 3,
      "note": 73,
      "start": 51.6259,
      "duration": 0.1933,
      "velocity": 109,
      "chip": "ym2612"
    },
    {
      "channel": 4,
      "note": 78,
      "start": 51.6266,
      "duration": 0.1933,
      "velocity": 109,
      "chip": "ym2612"
    },
    {
      "channel": 0,
      "note": 78,
      "start": 51.8182,
      "duration": 0.1869,
      "velocity": 109,
      "chip": "ym2612"
    },
    {
      "channel": 1,
      "note": 35,
      "start": 51.8189,
      "duration": 1.1424,
      "velocity": 109,
      "chip": "ym2612"
    },
    {
      "channel": 3,
      "note": 74,
      "start": 51.8197,
      "duration": 0.1866,
      "velocity": 109,
      "chip": "ym2612"
    },
    {
      "channel": 4,
      "note": 78,
      "start": 51.8206,
      "duration": 0.1864,
      "velocity": 109,
      "chip": "ym2612"
    },
    {
      "channel": 5,
      "note": 35,
      "start": 51.8213,
      "duration": 1.1421,
      "velocity": 95,
      "chip": "ym2612"
    },
    {
      "channel": 2,
      "note": 30,
      "start": 51.8221,
      "duration": 0.2483,
      "velocity": 119,
      "chip": "ym2612"
    },
    {
      "channel": 0,
      "note": 78,
      "start": 52.0056,
      "duration": 0.1929,
      "velocity": 109,
      "chip": "ym2612"
    },
    {
      "channel": 3,
      "note": 74,
      "start": 52.0069,
      "duration": 0.1929,
      "velocity": 109,
      "chip": "ym2612"
    },
    {
      "channel": 4,
      "note": 78,
      "start": 52.0076,
      "duration": 0.1931,
      "velocity": 109,
      "chip": "ym2612"
    },
    {
      "channel": 0,
      "note": 78,
      "start": 52.1992,
      "duration": 0.1869,
      "velocity": 109,
      "chip": "ym2612"
    },
    {
      "channel": 3,
      "note": 74,
      "start": 52.2004,
      "duration": 0.1869,
      "velocity": 109,
      "chip": "ym2612"
    },
    {
      "channel": 4,
      "note": 78,
      "start": 52.2013,
      "duration": 0.1868,
      "velocity": 109,
      "chip": "ym2612"
    },
    {
      "channel": 2,
      "note": 30,
      "start": 52.2025,
      "duration": 0.2489,
      "velocity": 119,
      "chip": "ym2612"
    },
    {
      "channel": 0,
      "note": 78,
      "start": 52.3868,
      "duration": 0.1928,
      "velocity": 109,
      "chip": "ym2612"
    },
    {
      "channel": 3,
      "note": 74,
      "start": 52.3879,
      "duration": 0.1928,
      "velocity": 109,
      "chip": "ym2612"
    },
    {
      "channel": 4,
      "note": 78,
      "start": 52.3887,
      "duration": 0.193,
      "velocity": 109,
      "chip": "ym2612"
    },
    {
      "channel": 0,
      "note": 78,
      "start": 52.5801,
      "duration": 0.187,
      "velocity": 109,
      "chip": "ym2612"
    },
    {
      "channel": 3,
      "note": 74,
      "start": 52.5814,
      "duration": 0.1869,
      "velocity": 109,
      "chip": "ym2612"
    },
    {
      "channel": 4,
      "note": 78,
      "start": 52.5822,
      "duration": 0.1868,
      "velocity": 109,
      "chip": "ym2612"
    },
    {
      "channel": 2,
      "note": 30,
      "start": 52.5834,
      "duration": 0.249,
      "velocity": 119,
      "chip": "ym2612"
    },
    {
      "channel": 0,
      "note": 78,
      "start": 52.7677,
      "duration": 0.1929,
      "velocity": 109,
      "chip": "ym2612"
    },
    {
      "channel": 3,
      "note": 74,
      "start": 52.7689,
      "duration": 0.1929,
      "velocity": 109,
      "chip": "ym2612"
    },
    {
      "channel": 4,
      "note": 78,
      "start": 52.7697,
      "duration": 0.1929,
      "velocity": 109,
      "chip": "ym2612"
    },
    {
      "channel": 0,
      "note": 78,
      "start": 52.9612,
      "duration": 0.187,
      "velocity": 109,
      "chip": "ym2612"
    },
    {
      "channel": 3,
      "note": 74,
      "start": 52.9623,
      "duration": 0.1873,
      "velocity": 109,
      "chip": "ym2612"
    },
    {
      "channel": 4,
      "note": 78,
      "start": 52.9632,
      "duration": 0.1872,
      "velocity": 109,
      "chip": "ym2612"
    },
    {
      "channel": 2,
      "note": 30,
      "start": 52.9644,
      "duration": 0.2491,
      "velocity": 119,
      "chip": "ym2612"
    },
    {
      "channel": 0,
      "note": 78,
      "start": 53.1487,
      "duration": 0.1929,
      "velocity": 109,
      "chip": "ym2612"
    },
    {
      "channel": 1,
      "note": 30,
      "start": 53.1495,
      "duration": 0.1928,
      "velocity": 109,
      "chip": "ym2612"
    },
    {
      "channel": 3,
      "note": 74,
      "start": 53.1503,
      "duration": 0.1928,
      "velocity": 109,
      "chip": "ym2612"
    },
    {
      "channel": 4,
      "note": 78,
      "start": 53.1511,
      "duration": 0.1929,
      "velocity": 109,
      "chip": "ym2612"
    },
    {
      "channel": 5,
      "note": 30,
      "start": 53.1518,
      "duration": 0.193,
      "velocity": 95,
      "chip": "ym2612"
    },
    {
      "channel": 0,
      "note": 78,
      "start": 53.3422,
      "duration": 0.187,
      "velocity": 109,
      "chip": "ym2612"
    },
    {
      "channel": 1,
      "note": 35,
      "start": 53.3429,
      "duration": 0.3804,
      "velocity": 109,
      "chip": "ym2612"
    },
    {
      "channel": 3,
      "note": 74,
      "start": 53.3438,
      "duration": 0.1866,
      "velocity": 109,
      "chip": "ym2612"
    },
    {
      "channel": 4,
      "note": 78,
      "start": 53.3446,
      "duration": 0.1865,
      "velocity": 109,
      "chip": "ym2612"
    },
    {
      "channel": 5,
      "note": 35,
      "start": 53.3454,
      "duration": 0.3803,
      "velocity": 95,
      "chip": "ym2612"
    },
    {
      "channel": 2,
      "note": 30,
      "start": 53.3462,
      "duration": 0.2482,
      "velocity": 119,
      "chip": "ym2612"
    },
    {
      "channel": 0,
      "note": 78,
      "start": 53.5298,
      "duration": 0.1928,
      "velocity": 109,
      "chip": "ym2612"
    },
    {
      "channel": 3,
      "note": 74,
      "start": 53.531,
      "duration": 0.193,
      "velocity": 109,
      "chip": "ym2612"
    },
    {
      "channel": 4,
      "note": 78,
      "start": 53.5318,
      "duration": 0.1931,
      "velocity": 109,
      "chip": "ym2612"
    },
    {
      "channel": 0,
      "note": 78,
      "start": 53.7232,
      "duration": 0.187,
      "velocity": 109,
      "chip": "ym2612"
    },
    {
      "channel": 1,
      "note": 35,
      "start": 53.7238,
      "duration": 0.7616,
      "velocity": 109,
      "chip": "ym2612"
    },
    {
      "channel": 3,
      "note": 74,
      "start": 53.7246,
      "duration": 0.1867,
      "velocity": 109,
      "chip": "ym2612"
    },
    {
      "channel": 4,
      "note": 78,
      "start": 53.7254,
      "duration": 0.1866,
      "velocity": 109,
      "chip": "ym2612"
    },
    {
      "channel": 5,
      "note": 35,
      "start": 53.7261,
      "duration": 0.7617,
      "velocity": 95,
      "chip": "ym2612"
    },
    {
      "channel": 2,
      "note": 30,
      "start": 53.7269,
      "duration": 0.2485,
      "velocity": 119,
      "chip": "ym2612"
    },
    {
      "channel": 0,
      "note": 78,
      "start": 53.9107,
      "duration": 0.1929,
      "velocity": 109,
      "chip": "ym2612"
    },
    {
      "channel": 3,
      "note": 74,
      "start": 53.9119,
      "duration": 0.1928,
      "velocity": 109,
      "chip": "ym2612"
    },
    {
      "channel": 4,
      "note": 78,
      "start": 53.9127,
      "duration": 0.1929,
      "velocity": 109,
      "chip": "ym2612"
    },
    {
      "channel": 0,
      "note": 78,
      "start": 54.1041,
      "duration": 0.187,
      "velocity": 109,
      "chip": "ym2612"
    },
    {
      "channel": 3,
      "note": 74,
      "start": 54.1053,
      "duration": 0.187,
      "velocity": 109,
      "chip": "ym2612"
    },
    {
      "channel": 4,
      "note": 78,
      "start": 54.1062,
      "duration": 0.1869,
      "velocity": 109,
      "chip": "ym2612"
    },
    {
      "channel": 2,
      "note": 30,
      "start": 54.1074,
      "duration": 0.249,
      "velocity": 119,
      "chip": "ym2612"
    },
    {
      "channel": 0,
      "note": 78,
      "start": 54.2917,
      "duration": 0.1929,
      "velocity": 109,
      "chip": "ym2612"
    },
    {
      "channel": 3,
      "note": 74,
      "start": 54.2929,
      "duration": 0.1933,
      "velocity": 109,
      "chip": "ym2612"
    },
    {
      "channel": 4,
      "note": 78,
      "start": 54.2936,
      "duration": 0.1934,
      "velocity": 109,
      "chip": "ym2612"
    },
    {
      "channel": 0,
      "note": 78,
      "start": 54.4852,
      "duration": 0.1869,
      "velocity": 109,
      "chip": "ym2612"
    },
    {
      "channel": 1,
      "note": 33,
      "start": 54.4859,
      "duration": 0.3804,
      "velocity": 109,
      "chip": "ym2612"
    },
    {
      "channel": 3,
      "note": 74,
      "start": 54.4868,
      "duration": 0.1866,
      "velocity": 109,
      "chip": "ym2612"
    },
    {
      "channel": 4,
      "note": 78,
      "start": 54.4876,
      "duration": 0.1865,
      "velocity": 109,
      "chip": "ym2612"
    },
    {
      "channel": 5,
      "note": 33,
      "start": 54.4883,
      "duration": 0.3804,
      "velocity": 95,
      "chip": "ym2612"
    },
    {
      "channel": 2,
      "note": 30,
      "start": 54.4892,
      "duration": 0.2483,
      "velocity": 119,
      "chip": "ym2612"
    },
    {
      "channel": 0,
      "note": 78,
      "start": 54.6728,
      "duration": 0.1928,
      "velocity": 109,
      "chip": "ym2612"
    },
    {
      "channel": 3,
      "note": 74,
      "start": 54.674,
      "duration": 0.1932,
      "velocity": 109,
      "chip": "ym2612"
    },
    {
      "channel": 4,
      "note": 78,
      "start": 54.6747,
      "duration": 0.1933,
      "velocity": 109,
      "chip": "ym2612"
    },
    {
      "channel": 0,
      "note": 80,
      "start": 54.8662,
      "duration": 0.187,
      "velocity": 109,
      "chip": "ym2612"
    },
    {
      "channel": 1,
      "note": 32,
      "start": 54.8669,
      "duration": 1.1424,
      "velocity": 109,
      "chip": "ym2612"
    },
    {
      "channel": 3,
      "note": 75,
      "start": 54.8677,
      "duration": 0.1867,
      "velocity": 109,
      "chip": "ym2612"
    },
    {
      "channel": 4,
      "note": 80,
      "start": 54.8686,
      "duration": 0.1868,
      "velocity": 109,
      "chip": "ym2612"
    },
    {
      "channel": 5,
      "note": 32,
      "start": 54.8693,
      "duration": 1.142,
      "velocity": 95,
      "chip": "ym2612"
    },
    {
      "channel": 2,
      "note": 30,
      "start": 54.8702,
      "duration": 0.2483,
      "velocity": 119,
      "chip": "ym2612"
    },
    {
      "channel": 0,
      "note": 80,
      "start": 55.0539,
      "duration": 0.1927,
      "velocity": 109,
      "chip": "ym2612"
    },
    {
      "channel": 3,
      "note": 75,
      "start": 55.0551,
      "duration": 0.1927,
      "velocity": 109,
      "chip": "ym2612"
    },
    {
      "channel": 4,
      "note": 80,
      "start": 55.0559,
      "duration": 0.1928,
      "velocity": 109,
      "chip": "ym2612"
    },
    {
      "channel": 0,
      "note": 80,
      "start": 55.2472,
      "duration": 0.1871,
      "velocity": 109,
      "chip": "ym2612"
    },
    {
      "channel": 3,
      "note": 75,
      "start": 55.2485,
      "duration": 0.187,
      "velocity": 109,
      "chip": "ym2612"
    },
    {
      "channel": 4,
      "note": 80,
      "start": 55.2493,
      "duration": 0.187,
      "velocity": 109,
      "chip": "ym2612"
    },
    {
      "channel": 2,
      "note": 30,
      "start": 55.2505,
      "duration": 0.249,
      "velocity": 119,
      "chip": "ym2612"
    },
    {
      "channel": 0,
      "note": 80,
      "start": 55.4349,
      "duration": 0.1927,
      "velocity": 109,
      "chip": "ym2612"
    },
    {
      "channel": 3,
      "note": 75,
      "start": 55.4361,
      "duration": 0.1926,
      "velocity": 109,
      "chip": "ym2612"
    },
    {
      "channel": 4,
      "note": 80,
      "start": 55.4369,
      "duration": 0.1927,
      "velocity": 109,
      "chip": "ym2612"
    },
    {
      "channel": 0,
      "note": 80,
      "start": 55.6281,
      "duration": 0.1871,
      "velocity": 109,
      "chip": "ym2612"
    },
    {
      "channel": 3,
      "note": 75,
      "start": 55.6293,
      "duration": 0.1871,
      "velocity": 109,
      "chip": "ym2612"
    },
    {
      "channel": 4,
      "note": 80,
      "start": 55.6301,
      "duration": 0.1872,
      "velocity": 109,
      "chip": "ym2612"
    },
    {
      "channel": 2,
      "note": 30,
      "start": 55.6314,
      "duration": 0.249,
      "velocity": 119,
      "chip": "ym2612"
    },
    {
      "channel": 0,
      "note": 80,
      "start": 55.8159,
      "duration": 0.1927,
      "velocity": 109,
      "chip": "ym2612"
    },
    {
      "channel": 3,
      "note": 75,
      "start": 55.8171,
      "duration": 0.1926,
      "velocity": 109,
      "chip": "ym2612"
    },
    {
      "channel": 4,
      "note": 80,
      "start": 55.8179,
      "duration": 0.1926,
      "velocity": 109,
      "chip": "ym2612"
    },
    {
      "channel": 0,
      "note": 80,
      "start": 56.0092,
      "duration": 0.1871,
      "velocity": 109,
      "chip": "ym2612"
    },
    {
      "channel": 3,
      "note": 75,
      "start": 56.0104,
      "duration": 0.1874,
      "velocity": 109,
      "chip": "ym2612"
    },
    {
      "channel": 4,
      "note": 80,
      "start": 56.0112,
      "duration": 0.1876,
      "velocity": 109,
      "chip": "ym2612"
    },
    {
      "channel": 2,
      "note": 30,
      "start": 56.0123,
      "duration": 0.2491,
      "velocity": 119,
      "chip": "ym2612"
    },
    {
      "channel": 0,
      "note": 80,
      "start": 56.1968,
      "duration": 0.1928,
      "velocity": 109,
      "chip": "ym2612"
    },
    {
      "channel": 1,
      "note": 27,
      "start": 56.1976,
      "duration": 0.1928,
      "velocity": 109,
      "chip": "ym2612"
    },
    {
      "channel": 3,
      "note": 75,
      "start": 56.1985,
      "duration": 0.1927,
      "velocity": 109,
      "chip": "ym2612"
    },
    {
      "channel": 4,
      "note": 80,
      "start": 56.1993,
      "duration": 0.1927,
      "velocity": 109,
      "chip": "ym2612"
    },
    {
      "channel": 5,
      "note": 27,
      "start": 56.2,
      "duration": 0.1928,
      "velocity": 95,
      "chip": "ym2612"
    },
    {
      "channel": 0,
      "note": 80,
      "start": 56.3902,
      "duration": 0.1871,
      "velocity": 109,
      "chip": "ym2612"
    },
    {
      "channel": 1,
      "note": 32,
      "start": 56.391,
      "duration": 0.3805,
      "velocity": 109,
      "chip": "ym2612"
    },
    {
      "channel": 3,
      "note": 75,
      "start": 56.3918,
      "duration": 0.1868,
      "velocity": 109,
      "chip": "ym2612"
    },
    {
      "channel": 4,
      "note": 80,
      "start": 56.3926,
      "duration": 0.1868,
      "velocity": 109,
      "chip": "ym2612"
    },
    {
      "channel": 5,
      "note": 32,
      "start": 56.3934,
      "duration": 0.3803,
      "velocity": 95,
      "chip": "ym2612"
    },
    {
      "channel": 2,
      "note": 30,
      "start": 56.3942,
      "duration": 0.2483,
      "velocity": 119,
      "chip": "ym2612"
    },
    {
      "channel": 0,
      "note": 80,
      "start": 56.5779,
      "duration": 0.1927,
      "velocity": 109,
      "chip": "ym2612"
    },
    {
      "channel": 3,
      "note": 75,
      "start": 56.5791,
      "duration": 0.1929,
      "velocity": 109,
      "chip": "ym2612"
    },
    {
      "channel": 4,
      "note": 80,
      "start": 56.58,
      "duration": 0.1929,
      "velocity": 109,
      "chip": "ym2612"
    },
    {
      "channel": 0,
      "note": 80,
      "start": 56.7712,
      "duration": 0.187,
      "velocity": 109,
      "chip": "ym2612"
    },
    {
      "channel": 1,
      "note": 32,
      "start": 56.7719,
      "duration": 0.7616,
      "velocity": 109,
      "chip": "ym2612"
    },
    {
      "channel": 3,
      "note": 75,
      "start": 56.7727,
      "duration": 0.1868,
      "velocity": 109,
      "chip": "ym2612"
    },
    {
      "channel": 4,
      "note": 80,
      "start": 56.7735,
      "duration": 0.1868,
      "velocity": 109,
      "chip": "ym2612"
    },
    {
      "channel": 5,
      "note": 32,
      "start": 56.7742,
      "duration": 0.7616,
      "velocity": 95,
      "chip": "ym2612"
    },
    {
      "channel": 2,
      "note": 30,
      "start": 56.775,
      "duration": 0.2485,
      "velocity": 119,
      "chip": "ym2612"
    },
    {
      "channel": 0,
      "note": 80,
      "start": 56.9588,
      "duration": 0.1929,
      "velocity": 109,
      "chip": "ym2612"
    },
    {
      "channel": 3,
      "note": 75,
      "start": 56.96,
      "duration": 0.1929,
      "velocity": 109,
      "chip": "ym2612"
    },
    {
      "channel": 4,
      "note": 80,
      "start": 56.9609,
      "duration": 0.1929,
      "velocity": 109,
      "chip": "ym2612"
    },
    {
      "channel": 0,
      "note": 80,
      "start": 57.1524,
      "duration": 0.1869,
      "velocity": 109,
      "chip": "ym2612"
    },
    {
      "channel": 3,
      "note": 75,
      "start": 57.1536,
      "duration": 0.1869,
      "velocity": 109,
      "chip": "ym2612"
    },
    {
      "channel": 4,
      "note": 80,
      "start": 57.1544,
      "duration": 0.1869,
      "velocity": 109,
      "chip": "ym2612"
    },
    {
      "channel": 2,
      "note": 30,
      "start": 57.1556,
      "duration": 0.2489,
      "velocity": 119,
      "chip": "ym2612"
    },
    {
      "channel": 0,
      "note": 80,
      "start": 57.3399,
      "duration": 0.1928,
      "velocity": 109,
      "chip": "ym2612"
    },
    {
      "channel": 3,
      "note": 75,
      "start": 57.3411,
      "duration": 0.1931,
      "velocity": 109,
      "chip": "ym2612"
    },
    {
      "channel": 4,
      "note": 80,
      "start": 57.3419,
      "duration": 0.1931,
      "velocity": 109,
      "chip": "ym2612"
    },
    {
      "channel": 0,
      "note": 80,
      "start": 57.5333,
      "duration": 0.187,
      "velocity": 109,
      "chip": "ym2612"
    },
    {
      "channel": 1,
      "note": 32,
      "start": 57.5339,
      "duration": 0.3808,
      "velocity": 109,
      "chip": "ym2612"
    },
    {
      "channel": 3,
      "note": 75,
      "start": 57.5347,
      "duration": 0.1868,
      "velocity": 109,
      "chip": "ym2612"
    },
    {
      "channel": 4,
      "note": 80,
      "start": 57.5356,
      "duration": 0.1867,
      "velocity": 109,
      "chip": "ym2612"
    },
    {
      "channel": 5,
      "note": 32,
      "start": 57.5362,
      "duration": 0.3811,
      "velocity": 95,
      "chip": "ym2612"
    },
    {
      "channel": 2,
      "note": 30,
      "start": 57.537,
      "duration": 0.2485,
      "velocity": 119,
      "chip": "ym2612"
    },
    {
      "channel": 0,
      "note": 80,
      "start": 57.7209,
      "duration": 0.1928,
      "velocity": 109,
      "chip": "ym2612"
    },
    {
      "channel": 3,
      "note": 75,
      "start": 57.7221,
      "duration": 0.1934,
      "velocity": 109,
      "chip": "ym2612"
    },
    {
      "channel": 4,
      "note": 80,
      "start": 57.7229,
      "duration": 0.1934,
      "velocity": 109,
      "chip": "ym2612"
    },
    {
      "channel": 0,
      "note": 85,
      "start": 57.9144,
      "duration": 0.187,
      "velocity": 109,
      "chip": "ym2612"
    },
    {
      "channel": 1,
      "note": 37,
      "start": 57.9153,
      "duration": 1.5232,
      "velocity": 109,
      "chip": "ym2612"
    },
    {
      "channel": 3,
      "note": 80,
      "start": 57.9161,
      "duration": 0.1864,
      "velocity": 109,
      "chip": "ym2612"
    },
    {
      "channel": 4,
      "note": 85,
      "start": 57.9171,
      "duration": 0.1863,
      "velocity": 109,
      "chip": "ym2612"
    },
    {
      "channel": 5,
      "note": 37,
      "start": 57.9179,
      "duration": 1.5229,
      "velocity": 95,
      "chip": "ym2612"
    },
    {
      "channel": 2,
      "note": 30,
      "start": 57.9187,
      "duration": 0.2479,
      "velocity": 119,
      "chip": "ym2612"
    },
    {
      "channel": 0,
      "note": 85,
      "start": 58.1019,
      "duration": 0.1927,
      "velocity": 109,
      "chip": "ym2612"
    },
    {
      "channel": 3,
      "note": 80,
      "start": 58.1031,
      "duration": 0.1927,
      "velocity": 109,
      "chip": "ym2612"
    },
    {
      "channel": 4,
      "note": 85,
      "start": 58.1039,
      "duration": 0.1927,
      "velocity": 109,
      "chip": "ym2612"
    },
    {
      "channel": 0,
      "note": 85,
      "start": 58.2951,
      "duration": 0.1872,
      "velocity": 109,
      "chip": "ym2612"
    },
    {
      "channel": 3,
      "note": 80,
      "start": 58.2964,
      "duration": 0.1871,
      "velocity": 109,
      "chip": "ym2612"
    },
    {
      "channel": 4,
      "note": 85,
      "start": 58.2973,
      "duration": 0.1871,
      "velocity": 109,
      "chip": "ym2612"
    },
    {
      "channel": 2,
      "note": 30,
      "start": 58.2985,
      "duration": 0.249,
      "velocity": 119,
      "chip": "ym2612"
    },
    {
      "channel": 0,
      "note": 85,
      "start": 58.4829,
      "duration": 0.1927,
      "velocity": 109,
      "chip": "ym2612"
    },
    {
      "channel": 3,
      "note": 80,
      "start": 58.4841,
      "duration": 0.1927,
      "velocity": 109,
      "chip": "ym2612"
    },
    {
      "channel": 4,
      "note": 85,
      "start": 58.485,
      "duration": 0.1927,
      "velocity": 109,
      "chip": "ym2612"
    },
    {
      "channel": 0,
      "note": 85,
      "start": 58.6763,
      "duration": 0.1871,
      "velocity": 109,
      "chip": "ym2612"
    },
    {
      "channel": 3,
      "note": 80,
      "start": 58.6775,
      "duration": 0.1871,
      "velocity": 109,
      "chip": "ym2612"
    },
    {
      "channel": 4,
      "note": 85,
      "start": 58.6784,
      "duration": 0.1871,
      "velocity": 109,
      "chip": "ym2612"
    },
    {
      "channel": 2,
      "note": 30,
      "start": 58.6795,
      "duration": 0.249,
      "velocity": 119,
      "chip": "ym2612"
    },
    {
      "channel": 0,
      "note": 85,
      "start": 58.864,
      "duration": 0.1927,
      "velocity": 109,
      "chip": "ym2612"
    },
    {
      "channel": 3,
      "note": 80,
      "start": 58.8653,
      "duration": 0.1926,
      "velocity": 109,
      "chip": "ym2612"
    },
    {
      "channel": 4,
      "note": 85,
      "start": 58.8661,
      "duration": 0.1926,
      "velocity": 109,
      "chip": "ym2612"
    },
    {
      "channel": 0,
      "note": 85,
      "start": 59.0572,
      "duration": 0.1871,
      "velocity": 109,
      "chip": "ym2612"
    },
    {
      "channel": 3,
      "note": 80,
      "start": 59.0585,
      "duration": 0.1871,
      "velocity": 109,
      "chip": "ym2612"
    },
    {
      "channel": 4,
      "note": 85,
      "start": 59.0593,
      "duration": 0.1871,
      "velocity": 109,
      "chip": "ym2612"
    },
    {
      "channel": 2,
      "note": 30,
      "start": 59.0605,
      "duration": 0.249,
      "velocity": 119,
      "chip": "ym2612"
    },
    {
      "channel": 0,
      "note": 85,
      "start": 59.245,
      "duration": 0.1927,
      "velocity": 109,
      "chip": "ym2612"
    },
    {
      "channel": 3,
      "note": 80,
      "start": 59.2462,
      "duration": 0.1929,
      "velocity": 109,
      "chip": "ym2612"
    },
    {
      "channel": 4,
      "note": 85,
      "start": 59.247,
      "duration": 0.193,
      "velocity": 109,
      "chip": "ym2612"
    },
    {
      "channel": 0,
      "note": 85,
      "start": 59.4383,
      "duration": 0.187,
      "velocity": 109,
      "chip": "ym2612"
    },
    {
      "channel": 1,
      "note": 37,
      "start": 59.4389,
      "duration": 0.3805,
      "velocity": 109,
      "chip": "ym2612"
    },
    {
      "channel": 3,
      "note": 80,
      "start": 59.4398,
      "duration": 0.1868,
      "velocity": 109,
      "chip": "ym2612"
    },
    {
      "channel": 4,
      "note": 85,
      "start": 59.4406,
      "duration": 0.1868,
      "velocity": 109,
      "chip": "ym2612"
    },
    {
      "channel": 5,
      "note": 37,
      "start": 59.4412,
      "duration": 0.3805,
      "velocity": 95,
      "chip": "ym2612"
    },
    {
      "channel": 2,
      "note": 30,
      "start": 59.442,
      "duration": 0.2485,
      "velocity": 119,
      "chip": "ym2612"
    },
    {
      "channel": 0,
      "note": 85,
      "start": 59.6259,
      "duration": 0.1927,
      "velocity": 109,
      "chip": "ym2612"
    },
    {
      "channel": 3,
      "note": 80,
      "start": 59.6271,
      "duration": 0.193,
      "velocity": 109,
      "chip": "ym2612"
    },
    {
      "channel": 4,
      "note": 85,
      "start": 59.628,
      "duration": 0.1929,
      "velocity": 109,
      "chip": "ym2612"
    },
    {
      "channel": 0,
      "note": 85,
      "start": 59.8193,
      "duration": 0.1871,
      "velocity": 109,
      "chip": "ym2612"
    },
    {
      "channel": 1,
      "note": 37,
      "start": 59.8198,
      "duration": 0.3807,
      "velocity": 109,
      "chip": "ym2612"
    },
    {
      "channel": 3,
      "note": 80,
      "start": 59.8207,
      "duration": 0.1869,
      "velocity": 109,
      "chip": "ym2612"
    },
    {
      "channel": 4,
      "note": 85,
      "start": 59.8216,
      "duration": 0.1868,
      "velocity": 109,
      "chip": "ym2612"
    },
    {
      "channel": 5,
      "note": 37,
      "start": 59.8221,
      "duration": 0.3807,
      "velocity": 95,
      "chip": "ym2612"
    },
    {
      "channel": 2,
      "note": 30,
      "start": 59.8229,
      "duration": 0.2486,
      "velocity": 119,
      "chip": "ym2612"
    },
    {
      "channel": 0,
      "note": 85,
      "start": 60.0069,
      "duration": 0.1928,
      "velocity": 109,
      "chip": "ym2612"
    },
    {
      "channel": 3,
      "note": 80,
      "start": 60.0081,
      "duration": 0.1931,
      "velocity": 109,
      "chip": "ym2612"
    },
    {
      "channel": 4,
      "note": 85,
      "start": 60.009,
      "duration": 0.193,
      "velocity": 109,
      "chip": "ym2612"
    },
    {
      "channel": 0,
      "note": 85,
      "start": 60.2004,
      "duration": 0.187,
      "velocity": 109,
      "chip": "ym2612"
    },
    {
      "channel": 1,
      "note": 37,
      "start": 60.201,
      "duration": 0.381,
      "velocity": 109,
      "chip": "ym2612"
    },
    {
      "channel": 3,
      "note": 80,
      "start": 60.2018,
      "duration": 0.1868,
      "velocity": 109,
      "chip": "ym2612"
    },
    {
      "channel": 4,
      "note": 85,
      "start": 60.2027,
      "duration": 0.1868,
      "velocity": 109,
      "chip": "ym2612"
    },
    {
      "channel": 5,
      "note": 37,
      "start": 60.2032,
      "duration": 0.381,
      "velocity": 95,
      "chip": "ym2612"
    },
    {
      "channel": 2,
      "note": 30,
      "start": 60.2041,
      "duration": 0.2486,
      "velocity": 119,
      "chip": "ym2612"
    },
    {
      "channel": 0,
      "note": 85,
      "start": 60.388,
      "duration": 0.1931,
      "velocity": 109,
      "chip": "ym2612"
    },
    {
      "channel": 3,
      "note": 80,
      "start": 60.3893,
      "duration": 0.1933,
      "velocity": 109,
      "chip": "ym2612"
    },
    {
      "channel": 4,
      "note": 85,
      "start": 60.3901,
      "duration": 0.1934,
      "velocity": 109,
      "chip": "ym2612"
    },
    {
      "channel": 0,
      "note": 85,
      "start": 60.5817,
      "duration": 0.1866,
      "velocity": 109,
      "chip": "ym2612"
    },
    {
      "channel": 1,
      "note": 37,
      "start": 60.5824,
      "duration": 0.3837,
      "velocity": 109,
      "chip": "ym2612"
    },
    {
      "channel": 3,
      "note": 80,
      "start": 60.5832,
      "duration": 0.1864,
      "velocity": 109,
      "chip": "ym2612"
    },
    {
      "channel": 4,
      "note": 85,
      "start": 60.584,
      "duration": 0.1864,
      "velocity": 109,
      "chip": "ym2612"
    },
    {
      "channel": 5,
      "note": 37,
      "start": 60.5847,
      "duration": 0.3905,
      "velocity": 95,
      "chip": "ym2612"
    },
    {
      "channel": 2,
      "note": 30,
      "start": 60.5855,
      "duration": 0.2481,
      "velocity": 119,
      "chip": "ym2612"
    },
    {
      "channel": 0,
      "note": 85,
      "start": 60.769,
      "duration": 0.1958,
      "velocity": 104,
      "chip": "ym2612"
    },
    {
      "channel": 3,
      "note": 80,
      "start": 60.7702,
      "duration": 0.1998,
      "velocity": 107,
      "chip": "ym2612"
    },
    {
      "channel": 4,
      "note": 85,
      "start": 60.771,
      "duration": 0.2029,
      "velocity": 107,
      "chip": "ym2612"
    },
    {
      "channel": 0,
      "note": 57,
      "start": 60.9654,
      "duration": 0.3773,
      "velocity": 104,
      "chip": "ym2612"
    },
    {
      "channel": 1,
      "note": 42,
      "start": 60.9666,
      "duration": 0.3768,
      "velocity": 109,
      "chip": "ym2612"
    },
    {
      "channel": 3,
      "note": 54,
      "start": 60.9705,
      "duration": 0.3736,
      "velocity": 107,
      "chip": "ym2612"
    },
    {
      "channel": 4,
      "note": 57,
      "start": 60.9746,
      "duration": 0.3703,
      "velocity": 107,
      "chip": "ym2612"
    },
    {
      "channel": 5,
      "note": 42,
      "start": 60.9758,
      "duration": 0.3699,
      "velocity": 95,
      "chip": "ym2612"
    },
    {
      "channel": 2,
      "note": 30,
      "start": 60.9766,
      "duration": 0.238,
      "velocity": 119,
      "chip": "ym2612"
    },
    {
      "channel": 0,
      "note": 69,
      "start": 61.3432,
      "duration": 0.7614,
      "velocity": 104,
      "chip": "ym2612"
    },
    {
      "channel": 1,
      "note": 42,
      "start": 61.3439,
      "duration": 0.38,
      "velocity": 109,
      "chip": "ym2612"
    },
    {
      "channel": 3,
      "note": 66,
      "start": 61.3447,
      "duration": 0.7614,
      "velocity": 107,
      "chip": "ym2612"
    },
    {
      "channel": 4,
      "note": 69,
      "start": 61.3455,
      "duration": 0.7614,
      "velocity": 107,
      "chip": "ym2612"
    },
    {
      "channel": 5,
      "note": 42,
      "start": 61.3462,
      "duration": 0.3792,
      "velocity": 95,
      "chip": "ym2612"
    },
    {
      "channel": 2,
      "note": 30,
      "start": 61.3471,
      "duration": 0.2486,
      "velocity": 119,
      "chip": "ym2612"
    },
    {
      "channel": 1,
      "note": 42,
      "start": 61.7246,
      "duration": 0.3808,
      "velocity": 109,
      "chip": "ym2612"
    },
    {
      "channel": 5,
      "note": 42,
      "start": 61.726,
      "duration": 0.3816,
      "velocity": 95,
      "chip": "ym2612"
    },
    {
      "channel": 2,
      "note": 30,
      "start": 61.7268,
      "duration": 0.2498,
      "velocity": 119,
      "chip": "ym2612"
    },
    {
      "channel": 0,
      "note": 68,
      "start": 62.1052,
      "duration": 0.1871,
      "velocity": 104,
      "chip": "ym2612"
    },
    {
      "channel": 1,
      "note": 42,
      "start": 62.106,
      "duration": 0.3805,
      "velocity": 109,
      "chip": "ym2612"
    },
    {
      "channel": 3,
      "note": 65,
      "start": 62.1067,
      "duration": 0.1868,
      "velocity": 107,
      "chip": "ym2612"
    },
    {
      "channel": 4,
      "note": 68,
      "start": 62.1074,
      "duration": 0.1867,
      "velocity": 107,
      "chip": "ym2612"
    },
    {
      "channel": 5,
      "note": 42,
      "start": 62.1082,
      "duration": 0.3806,
      "velocity": 95,
      "chip": "ym2612"
    },
    {
      "channel": 2,
      "note": 30,
      "start": 62.109,
      "duration": 0.2485,
      "velocity": 119,
      "chip": "ym2612"
    },
    {
      "channel": 0,
      "note": 69,
      "start": 62.2929,
      "duration": 0.1927,
      "velocity": 104,
      "chip": "ym2612"
    },
    {
      "channel": 3,
      "note": 66,
      "start": 62.294,
      "duration": 0.1932,
      "velocity": 107,
      "chip": "ym2612"
    },
    {
      "channel": 4,
      "note": 69,
      "start": 62.2948,
      "duration": 0.1932,
      "velocity": 107,
      "chip": "ym2612"
    },
    {
      "channel": 0,
      "note": 71,
      "start": 62.4863,
      "duration": 0.7614,
      "velocity": 104,
      "chip": "ym2612"
    },
    {
      "channel": 1,
      "note": 42,
      "start": 62.4871,
      "duration": 0.38,
      "velocity": 109,
      "chip": "ym2612"
    },
    {
      "channel": 3,
      "note": 68,
      "start": 62.4878,
      "duration": 0.7614,
      "velocity": 107,
      "chip": "ym2612"
    },
    {
      "channel": 4,
      "note": 71,
      "start": 62.4885,
      "duration": 0.7614,
      "velocity": 107,
      "chip": "ym2612"
    },
    {
      "channel": 5,
      "note": 42,
      "start": 62.4894,
      "duration": 0.3791,
      "velocity": 95,
      "chip": "ym2612"
    },
    {
      "channel": 2,
      "note": 30,
      "start": 62.4902,
      "duration": 0.2484,
      "velocity": 119,
      "chip": "ym2612"
    },
    {
      "channel": 1,
      "note": 42,
      "start": 62.8676,
      "duration": 0.3808,
      "velocity": 109,
      "chip": "ym2612"
    },
    {
      "channel": 5,
      "note": 42,
      "start": 62.869,
      "duration": 0.3817,
      "velocity": 95,
      "chip": "ym2612"
    },
    {
      "channel": 2,
      "note": 30,
      "start": 62.8698,
      "duration": 0.2499,
      "velocity": 119,
      "chip": "ym2612"
    },
    {
      "channel": 0,
      "note": 69,
      "start": 63.2483,
      "duration": 0.3803,
      "velocity": 104,
      "chip": "ym2612"
    },
    {
      "channel": 1,
      "note": 42,
      "start": 63.249,
      "duration": 0.3803,
      "velocity": 109,
      "chip": "ym2612"
    },
    {
      "channel": 3,
      "note": 66,
      "start": 63.2498,
      "duration": 0.3803,
      "velocity": 107,
      "chip": "ym2612"
    },
    {
      "channel": 4,
      "note": 69,
      "start": 63.2506,
      "duration": 0.3802,
      "velocity": 107,
      "chip": "ym2612"
    },
    {
      "channel": 5,
      "note": 42,
      "start": 63.2513,
      "duration": 0.3803,
      "velocity": 95,
      "chip": "ym2612"
    },
    {
      "channel": 2,
      "note": 30,
      "start": 63.2521,
      "duration": 0.2485,
      "velocity": 119,
      "chip": "ym2612"
    },
    {
      "channel": 0,
      "note": 68,
      "start": 63.6292,
      "duration": 0.3805,
      "velocity": 104,
      "chip": "ym2612"
    },
    {
      "channel": 1,
      "note": 42,
      "start": 63.6299,
      "duration": 0.3806,
      "velocity": 109,
      "chip": "ym2612"
    },
    {
      "channel": 3,
      "note": 65,
      "start": 63.6307,
      "duration": 0.3805,
      "velocity": 107,
      "chip": "ym2612"
    },
    {
      "channel": 4,
      "note": 68,
      "start": 63.6314,
      "duration": 0.3805,
      "velocity": 107,
      "chip": "ym2612"
    },
    {
      "channel": 5,
      "note": 42,
      "start": 63.6322,
      "duration": 0.3806,
      "velocity": 95,
      "chip": "ym2612"
    },
    {
      "channel": 2,
      "note": 30,
      "start": 63.633,
      "duration": 0.2488,
      "velocity": 119,
      "chip": "ym2612"
    },
    {
      "channel": 0,
      "note": 66,
      "start": 64.0102,
      "duration": 1.1425,
      "velocity": 104,
      "chip": "ym2612"
    },
    {
      "channel": 1,
      "note": 42,
      "start": 64.0111,
      "duration": 0.3799,
      "velocity": 109,
      "chip": "ym2612"
    },
    {
      "channel": 3,
      "note": 63,
      "start": 64.0118,
      "duration": 1.1424,
      "velocity": 107,
      "chip": "ym2612"
    },
    {
      "channel": 4,
      "note": 66,
      "start": 64.0126,
      "duration": 1.1424,
      "velocity": 107,
      "chip": "ym2612"
    },
    {
      "channel": 5,
      "note": 42,
      "start": 64.0134,
      "duration": 0.379,
      "velocity": 95,
      "chip": "ym2612"
    },
    {
      "channel": 2,
      "note": 30,
      "start": 64.0142,
      "duration": 0.2484,
      "velocity": 119,
      "chip": "ym2612"
    },
    {
      "channel": 1,
      "note": 42,
      "start": 64.3915,
      "duration": 0.3805,
      "velocity": 109,
      "chip": "ym2612"
    },
    {
      "channel": 5,
      "note": 42,
      "start": 64.393,
      "duration": 0.3805,
      "velocity": 95,
      "chip": "ym2612"
    },
    {
      "channel": 2,
      "note": 30,
      "start": 64.3938,
      "duration": 0.2499,
      "velocity": 119,
      "chip": "ym2612"
    },
    {
      "channel": 1,
      "note": 42,
      "start": 64.7726,
      "duration": 0.3808,
      "velocity": 109,
      "chip": "ym2612"
    },
    {
      "channel": 5,
      "note": 42,
      "start": 64.774,
      "duration": 0.3816,
      "velocity": 95,
      "chip": "ym2612"
    },
    {
      "channel": 2,
      "note": 30,
      "start": 64.7749,
      "duration": 0.2498,
      "velocity": 119,
      "chip": "ym2612"
    },
    {
      "channel": 0,
      "note": 64,
      "start": 65.1533,
      "duration": 0.187,
      "velocity": 104,
      "chip": "ym2612"
    },
    {
      "channel": 1,
      "note": 42,
      "start": 65.154,
      "duration": 0.3806,
      "velocity": 109,
      "chip": "ym2612"
    },
    {
      "channel": 3,
      "note": 61,
      "start": 65.1548,
      "duration": 0.1866,
      "velocity": 107,
      "chip": "ym2612"
    },
    {
      "channel": 4,
      "note": 64,
      "start": 65.1555,
      "duration": 0.1866,
      "velocity": 107,
      "chip": "ym2612"
    },
    {
      "channel": 5,
      "note": 42,
      "start": 65.1562,
      "duration": 0.3807,
      "velocity": 95,
      "chip": "ym2612"
    },
    {
      "channel": 2,
      "note": 30,
      "start": 65.1571,
      "duration": 0.2486,
      "velocity": 119,
      "chip": "ym2612"
    },
    {
      "channel": 0,
      "note": 66,
      "start": 65.3409,
      "duration": 0.1929,
      "velocity": 104,
      "chip": "ym2612"
    },
    {
      "channel": 3,
      "note": 62,
      "start": 65.342,
      "duration": 0.1934,
      "velocity": 107,
      "chip": "ym2612"
    },
    {
      "channel": 4,
      "note": 66,
      "start": 65.3427,
      "duration": 0.1934,
      "velocity": 107,
      "chip": "ym2612"
    },
    {
      "channel": 0,
      "note": 61,
      "start": 65.5344,
      "duration": 0.7613,
      "velocity": 104,
      "chip": "ym2612"
    },
    {
      "channel": 1,
      "note": 42,
      "start": 65.5352,
      "duration": 0.3799,
      "velocity": 109,
      "chip": "ym2612"
    },
    {
      "channel": 3,
      "note": 57,
      "start": 65.5359,
      "duration": 0.7612,
      "velocity": 107,
      "chip": "ym2612"
    },
    {
      "channel": 4,
      "note": 61,
      "start": 65.5367,
      "duration": 0.7613,
      "velocity": 107,
      "chip": "ym2612"
    },
    {
      "channel": 5,
      "note": 42,
      "start": 65.5375,
      "duration": 0.379,
      "velocity": 95,
      "chip": "ym2612"
    },
    {
      "channel": 2,
      "note": 30,
      "start": 65.5383,
      "duration": 0.2483,
      "velocity": 119,
      "chip": "ym2612"
    },
    {
      "channel": 1,
      "note": 42,
      "start": 65.9157,
      "duration": 0.3808,
      "velocity": 109,
      "chip": "ym2612"
    },
    {
      "channel": 5,
      "note": 42,
      "start": 65.9171,
      "duration": 0.3816,
      "velocity": 95,
      "chip": "ym2612"
    },
    {
      "channel": 2,
      "note": 30,
      "start": 65.9179,
      "duration": 0.2498,
      "velocity": 119,
      "chip": "ym2612"
    },
    {
      "channel": 0,
      "note": 59,
      "start": 66.2963,
      "duration": 0.3805,
      "velocity": 104,
      "chip": "ym2612"
    },
    {
      "channel": 1,
      "note": 42,
      "start": 66.2971,
      "duration": 0.3804,
      "velocity": 109,
      "chip": "ym2612"
    },
    {
      "channel": 3,
      "note": 56,
      "start": 66.2978,
      "duration": 0.3805,
      "velocity": 107,
      "chip": "ym2612"
    },
    {
      "channel": 4,
      "note": 59,
      "start": 66.2986,
      "duration": 0.3803,
      "velocity": 107,
      "chip": "ym2612"
    },
    {
      "channel": 5,
      "note": 42,
      "start": 66.2993,
      "duration": 0.3804,
      "velocity": 95,
      "chip": "ym2612"
    },
    {
      "channel": 2,
      "note": 30,
      "start": 66.3001,
      "duration": 0.2487,
      "velocity": 119,
      "chip": "ym2612"
    },
    {
      "channel": 0,
      "note": 57,
      "start": 66.6773,
      "duration": 0.3804,
      "velocity": 104,
      "chip": "ym2612"
    },
    {
      "channel": 1,
      "note": 42,
      "start": 66.678,
      "duration": 0.3805,
      "velocity": 109,
      "chip": "ym2612"
    },
    {
      "channel": 3,
      "note": 54,
      "start": 66.6788,
      "duration": 0.3805,
      "velocity": 107,
      "chip": "ym2612"
    },
    {
      "channel": 4,
      "note": 57,
      "start": 66.6795,
      "duration": 0.3805,
      "velocity": 107,
      "chip": "ym2612"
    },
    {
      "channel": 5,
      "note": 42,
      "start": 66.6803,
      "duration": 0.3806,
      "velocity": 95,
      "chip": "ym2612"
    },
    {
      "channel": 2,
      "note": 30,
      "start": 66.6811,
      "duration": 0.2486,
      "velocity": 119,
      "chip": "ym2612"
    },
    {
      "channel": 0,
      "note": 56,
      "start": 67.0583,
      "duration": 1.1424,
      "velocity": 104,
      "chip": "ym2612"
    },
    {
      "channel": 1,
      "note": 42,
      "start": 67.0592,
      "duration": 0.38,
      "velocity": 109,
      "chip": "ym2612"
    },
    {
      "channel": 3,
      "note": 53,
      "start": 67.0599,
      "duration": 1.1422,
      "velocity": 107,
      "chip": "ym2612"
    },
    {
      "channel": 4,
      "note": 56,
      "start": 67.0606,
      "duration": 1.1421,
      "velocity": 107,
      "chip": "ym2612"
    },
    {
      "channel": 5,
      "note": 42,
      "start": 67.0615,
      "duration": 0.3791,
      "velocity": 95,
      "chip": "ym2612"
    },
    {
      "channel": 2,
      "note": 30,
      "start": 67.0623,
      "duration": 0.2485,
      "velocity": 119,
      "chip": "ym2612"
    },
    {
      "channel": 1,
      "note": 42,
      "start": 67.4397,
      "duration": 0.3804,
      "velocity": 109,
      "chip": "ym2612"
    },
    {
      "channel": 5,
      "note": 42,
      "start": 67.4412,
      "duration": 0.3804,
      "velocity": 95,
      "chip": "ym2612"
    },
    {
      "channel": 2,
      "note": 30,
      "start": 67.442,
      "duration": 0.2498,
      "velocity": 119,
      "chip": "ym2612"
    },
    {
      "channel": 1,
      "note": 42,
      "start": 67.8207,
      "duration": 0.3807,
      "velocity": 109,
      "chip": "ym2612"
    },
    {
      "channel": 5,
      "note": 42,
      "start": 67.8221,
      "duration": 0.3811,
      "velocity": 95,
      "chip": "ym2612"
    },
    {
      "channel": 2,
      "note": 30,
      "start": 67.8229,
      "duration": 0.2498,
      "velocity": 119,
      "chip": "ym2612"
    },
    {
      "channel": 0,
      "note": 56,
      "start": 68.2012,
      "duration": 0.1873,
      "velocity": 104,
      "chip": "ym2612"
    },
    {
      "channel": 1,
      "note": 42,
      "start": 68.2019,
      "duration": 0.3807,
      "velocity": 109,
      "chip": "ym2612"
    },
    {
      "channel": 3,
      "note": 53,
      "start": 68.2025,
      "duration": 0.187,
      "velocity": 107,
      "chip": "ym2612"
    },
    {
      "channel": 4,
      "note": 56,
      "start": 68.2031,
      "duration": 0.1872,
      "velocity": 107,
      "chip": "ym2612"
    },
    {
      "channel": 5,
      "note": 42,
      "start": 68.2038,
      "duration": 0.3811,
      "velocity": 95,
      "chip": "ym2612"
    },
    {
      "channel": 2,
      "note": 30,
      "start": 68.2046,
      "duration": 0.2492,
      "velocity": 119,
      "chip": "ym2612"
    },
    {
      "channel": 0,
      "note": 57,
      "start": 68.389,
      "duration": 0.1927,
      "velocity": 104,
      "chip": "ym2612"
    },
    {
      "channel": 3,
      "note": 54,
      "start": 68.3901,
      "duration": 0.1932,
      "velocity": 107,
      "chip": "ym2612"
    },
    {
      "channel": 4,
      "note": 57,
      "start": 68.3909,
      "duration": 0.1932,
      "velocity": 107,
      "chip": "ym2612"
    },
    {
      "channel": 0,
      "note": 54,
      "start": 68.5824,
      "duration": 1.1424,
      "velocity": 104,
      "chip": "ym2612"
    },
    {
      "channel": 1,
      "note": 42,
      "start": 68.5832,
      "duration": 0.3799,
      "velocity": 109,
      "chip": "ym2612"
    },
    {
      "channel": 3,
      "note": 49,
      "start": 68.5839,
      "duration": 1.1424,
      "velocity": 107,
      "chip": "ym2612"
    },
    {
      "channel": 4,
      "note": 54,
      "start": 68.5847,
      "duration": 1.1422,
      "velocity": 107,
      "chip": "ym2612"
    },
    {
      "channel": 5,
      "note": 42,
      "start": 68.5855,
      "duration": 0.3791,
      "velocity": 95,
      "chip": "ym2612"
    },
    {
      "channel": 2,
      "note": 30,
      "start": 68.5863,
      "duration": 0.2485,
      "velocity": 119,
      "chip": "ym2612"
    },
    {
      "channel": 1,
      "note": 42,
      "start": 68.9637,
      "duration": 0.3804,
      "velocity": 109,
      "chip": "ym2612"
    },
    {
      "channel": 5,
      "note": 42,
      "start": 68.9652,
      "duration": 0.3803,
      "velocity": 95,
      "chip": "ym2612"
    },
    {
      "channel": 2,
      "note": 30,
      "start": 68.966,
      "duration": 0.2499,
      "velocity": 119,
      "chip": "ym2612"
    },
    {
      "channel": 1,
      "note": 42,
      "start": 69.3446,
      "duration": 0.3809,
      "velocity": 109,
      "chip": "ym2612"
    },
    {
      "channel": 5,
      "note": 42,
      "start": 69.3461,
      "duration": 0.3815,
      "velocity": 95,
      "chip": "ym2612"
    },
    {
      "channel": 2,
      "note": 30,
      "start": 69.3469,
      "duration": 0.2499,
      "velocity": 119,
      "chip": "ym2612"
    },
    {
      "channel": 0,
      "note": 53,
      "start": 69.7254,
      "duration": 0.3805,
      "velocity": 104,
      "chip": "ym2612"
    },
    {
      "channel": 1,
      "note": 42,
      "start": 69.7261,
      "duration": 0.3806,
      "velocity": 109,
      "chip": "ym2612"
    },
    {
      "channel": 3,
      "note": 49,
      "start": 69.7267,
      "duration": 0.3808,
      "velocity": 107,
      "chip": "ym2612"
    },
    {
      "channel": 4,
      "note": 53,
      "start": 69.7274,
      "duration": 0.3809,
      "velocity": 107,
      "chip": "ym2612"
    },
    {
      "channel": 5,
      "note": 42,
      "start": 69.7282,
      "duration": 0.381,
      "velocity": 95,
      "chip": "ym2612"
    },
    {
      "channel": 2,
      "note": 30,
      "start": 69.729,
      "duration": 0.2487,
      "velocity": 119,
      "chip": "ym2612"
    },
    {
      "channel": 0,
      "note": 54,
      "start": 70.1065,
      "duration": 1.1424,
      "velocity": 104,
      "chip": "ym2612"
    },
    {
      "channel": 1,
      "note": 42,
      "start": 70.1073,
      "duration": 0.3798,
      "velocity": 109,
      "chip": "ym2612"
    },
    {
      "channel": 3,
      "note": 49,
      "start": 70.1081,
      "duration": 1.1419,
      "velocity": 107,
      "chip": "ym2612"
    },
    {
      "channel": 4,
      "note": 54,
      "start": 70.109,
      "duration": 1.1414,
      "velocity": 107,
      "chip": "ym2612"
    },
    {
      "channel": 5,
      "note": 42,
      "start": 70.1098,
      "duration": 0.3788,
      "velocity": 95,
      "chip": "ym2612"
    },
    {
      "channel": 2,
      "note": 30,
      "start": 70.1106,
      "duration": 0.2482,
      "velocity": 119,
      "chip": "ym2612"
    },
    {
      "channel": 1,
      "note": 42,
      "start": 70.4877,
      "duration": 0.3805,
      "velocity": 109,
      "chip": "ym2612"
    },
    {
      "channel": 5,
      "note": 42,
      "start": 70.4892,
      "duration": 0.3805,
      "velocity": 95,
      "chip": "ym2612"
    },
    {
      "channel": 2,
      "note": 30,
      "start": 70.49,
      "duration": 0.2498,
      "velocity": 119,
      "chip": "ym2612"
    },
    {
      "channel": 1,
      "note": 42,
      "start": 70.8688,
      "duration": 0.3805,
      "velocity": 109,
      "chip": "ym2612"
    },
    {
      "channel": 5,
      "note": 42,
      "start": 70.8702,
      "duration": 0.3804,
      "velocity": 95,
      "chip": "ym2612"
    },
    {
      "channel": 2,
      "note": 30,
      "start": 70.871,
      "duration": 0.2498,
      "velocity": 119,
      "chip": "ym2612"
    },
    {
      "channel": 1,
      "note": 42,
      "start": 71.2498,
      "duration": 0.3807,
      "velocity": 109,
      "chip": "ym2612"
    },
    {
      "channel": 5,
      "note": 42,
      "start": 71.2512,
      "duration": 0.3814,
      "velocity": 95,
      "chip": "ym2612"
    },
    {
      "channel": 2,
      "note": 30,
      "start": 71.252,
      "duration": 0.2498,
      "velocity": 119,
      "chip": "ym2612"
    },
    {
      "channel": 0,
      "note": 49,
      "start": 71.4371,
      "duration": 0.1927,
      "velocity": 104,
      "chip": "ym2612"
    },
    {
      "channel": 3,
      "note": 44,
      "start": 71.4382,
      "duration": 0.1931,
      "velocity": 107,
      "chip": "ym2612"
    },
    {
      "channel": 4,
      "note": 49,
      "start": 71.4389,
      "duration": 0.193,
      "velocity": 107,
      "chip": "ym2612"
    },
    {
      "channel": 0,
      "note": 49,
      "start": 71.6303,
      "duration": 1.5237,
      "velocity": 104,
      "chip": "ym2612"
    },
    {
      "channel": 1,
      "note": 42,
      "start": 71.6311,
      "duration": 0.3801,
      "velocity": 109,
      "chip": "ym2612"
    },
    {
      "channel": 3,
      "note": 44,
      "start": 71.6317,
      "duration": 1.5239,
      "velocity": 107,
      "chip": "ym2612"
    },
    {
      "channel": 4,
      "note": 49,
      "start": 71.6323,
      "duration": 1.5242,
      "velocity": 107,
      "chip": "ym2612"
    },
    {
      "channel": 5,
      "note": 42,
      "start": 71.6331,
      "duration": 0.3795,
      "velocity": 95,
      "chip": "ym2612"
    },
    {
      "channel": 2,
      "note": 30,
      "start": 71.634,
      "duration": 0.2489,
      "velocity": 119,
      "chip": "ym2612"
    },
    {
      "channel": 1,
      "note": 42,
      "start": 72.0118,
      "duration": 0.3804,
      "velocity": 109,
      "chip": "ym2612"
    },
    {
      "channel": 5,
      "note": 42,
      "start": 72.0132,
      "duration": 0.3803,
      "velocity": 95,
      "chip": "ym2612"
    },
    {
      "channel": 2,
      "note": 30,
      "start": 72.0141,
      "duration": 0.2497,
      "velocity": 119,
      "chip": "ym2612"
    },
    {
      "channel": 1,
      "note": 42,
      "start": 72.3927,
      "duration": 0.3805,
      "velocity": 109,
      "chip": "ym2612"
    },
    {
      "channel": 5,
      "note": 42,
      "start": 72.3941,
      "duration": 0.3805,
      "velocity": 95,
      "chip": "ym2612"
    },
    {
      "channel": 2,
      "note": 30,
      "start": 72.395,
      "duration": 0.2499,
      "velocity": 119,
      "chip": "ym2612"
    },
    {
      "channel": 1,
      "note": 42,
      "start": 72.7738,
      "duration": 0.381,
      "velocity": 109,
      "chip": "ym2612"
    },
    {
      "channel": 5,
      "note": 42,
      "start": 72.7752,
      "duration": 0.3821,
      "velocity": 95,
      "chip": "ym2612"
    },
    {
      "channel": 2,
      "note": 30,
      "start": 72.776,
      "duration": 0.2498,
      "velocity": 119,
      "chip": "ym2612"
    },
    {
      "channel": 0,
      "note": 57,
      "start": 73.1546,
      "duration": 0.3803,
      "velocity": 104,
      "chip": "ym2612"
    },
    {
      "channel": 1,
      "note": 42,
      "start": 73.1554,
      "duration": 0.3803,
      "velocity": 109,
      "chip": "ym2612"
    },
    {
      "channel": 3,
      "note": 54,
      "start": 73.1562,
      "duration": 0.3801,
      "velocity": 107,
      "chip": "ym2612"
    },
    {
      "channel": 4,
      "note": 57,
      "start": 73.1571,
      "duration": 0.3801,
      "velocity": 107,
      "chip": "ym2612"
    },
    {
      "channel": 5,
      "note": 42,
      "start": 73.1579,
      "duration": 0.38,
      "velocity": 95,
      "chip": "ym2612"
    },
    {
      "channel": 2,
      "note": 30,
      "start": 73.1587,
      "duration": 0.2482,
      "velocity": 119,
      "chip": "ym2612"
    },
    {
      "channel": 0,
      "note": 69,
      "start": 73.5356,
      "duration": 0.7613,
      "velocity": 104,
      "chip": "ym2612"
    },
    {
      "channel": 1,
      "note": 42,
      "start": 73.5363,
      "duration": 0.3801,
      "velocity": 109,
      "chip": "ym2612"
    },
    {
      "channel": 3,
      "note": 66,
      "start": 73.537,
      "duration": 0.7614,
      "velocity": 107,
      "chip": "ym2612"
    },
    {
      "channel": 4,
      "note": 69,
      "start": 73.5378,
      "duration": 0.7614,
      "velocity": 107,
      "chip": "ym2612"
    },
    {
      "channel": 5,
      "note": 42,
      "start": 73.5385,
      "duration": 0.3793,
      "velocity": 95,
      "chip": "ym2612"
    },
    {
      "channel": 2,
      "note": 30,
      "start": 73.5393,
      "duration": 0.2486,
      "velocity": 119,
      "chip": "ym2612"
    },
    {
      "channel": 1,
      "note": 42,
      "start": 73.9169,
      "duration": 0.3807,
      "velocity": 109,
      "chip": "ym2612"
    },
    {
      "channel": 5,
      "note": 42,
      "start": 73.9183,
      "duration": 0.3816,
      "velocity": 95,
      "chip": "ym2612"
    },
    {
      "channel": 2,
      "note": 30,
      "start": 73.9191,
      "duration": 0.2498,
      "velocity": 119,
      "chip": "ym2612"
    },
    {
      "channel": 0,
      "note": 68,
      "start": 74.2974,
      "duration": 0.1871,
      "velocity": 104,
      "chip": "ym2612"
    },
    {
      "channel": 1,
      "note": 42,
      "start": 74.2983,
      "duration": 0.3805,
      "velocity": 109,
      "chip": "ym2612"
    },
    {
      "channel": 3,
      "note": 65,
      "start": 74.299,
      "duration": 0.1866,
      "velocity": 107,
      "chip": "ym2612"
    },
    {
      "channel": 4,
      "note": 68,
      "start": 74.2997,
      "duration": 0.1866,
      "velocity": 107,
      "chip": "ym2612"
    },
    {
      "channel": 5,
      "note": 42,
      "start": 74.3005,
      "duration": 0.3805,
      "velocity": 95,
      "chip": "ym2612"
    },
    {
      "channel": 2,
      "note": 30,
      "start": 74.3013,
      "duration": 0.2487,
      "velocity": 119,
      "chip": "ym2612"
    },
    {
      "channel": 0,
      "note": 69,
      "start": 74.4851,
      "duration": 0.1928,
      "velocity": 104,
      "chip": "ym2612"
    },
    {
      "channel": 3,
      "note": 66,
      "start": 74.4862,
      "duration": 0.1933,
      "velocity": 107,
      "chip": "ym2612"
    },
    {
      "channel": 4,
      "note": 69,
      "start": 74.487,
      "duration": 0.1932,
      "velocity": 107,
      "chip": "ym2612"
    },
    {
      "channel": 0,
      "note": 71,
      "start": 74.6785,
      "duration": 0.7614,
      "velocity": 104,
      "chip": "ym2612"
    },
    {
      "channel": 1,
      "note": 42,
      "start": 74.6793,
      "duration": 0.38,
      "velocity": 109,
      "chip": "ym2612"
    },
    {
      "channel": 3,
      "note": 68,
      "start": 74.6801,
      "duration": 0.7612,
      "velocity": 107,
      "chip": "ym2612"
    },
    {
      "channel": 4,
      "note": 71,
      "start": 74.6808,
      "duration": 0.7613,
      "velocity": 107,
      "chip": "ym2612"
    },
    {
      "channel": 5,
      "note": 42,
      "start": 74.6817,
      "duration": 0.379,
      "velocity": 95,
      "chip": "ym2612"
    },
    {
      "channel": 2,
      "note": 30,
      "start": 74.6826,
      "duration": 0.2483,
      "velocity": 119,
      "chip": "ym2612"
    },
    {
      "channel": 1,
      "note": 42,
      "start": 75.0599,
      "duration": 0.3808,
      "velocity": 109,
      "chip": "ym2612"
    },
    {
      "channel": 5,
      "note": 42,
      "start": 75.0613,
      "duration": 0.3815,
      "velocity": 95,
      "chip": "ym2612"
    },
    {
      "channel": 2,
      "note": 30,
      "start": 75.0622,
      "duration": 0.2497,
      "velocity": 119,
      "chip": "ym2612"
    },
    {
      "channel": 0,
      "note": 69,
      "start": 75.4405,
      "duration": 0.3805,
      "velocity": 104,
      "chip": "ym2612"
    },
    {
      "channel": 1,
      "note": 42,
      "start": 75.4412,
      "duration": 0.3805,
      "velocity": 109,
      "chip": "ym2612"
    },
    {
      "channel": 3,
      "note": 66,
      "start": 75.442,
      "duration": 0.3805,
      "velocity": 107,
      "chip": "ym2612"
    },
    {
      "channel": 4,
      "note": 69,
      "start": 75.4427,
      "duration": 0.3804,
      "velocity": 107,
      "chip": "ym2612"
    },
    {
      "channel": 5,
      "note": 42,
      "start": 75.4434,
      "duration": 0.3805,
      "velocity": 95,
      "chip": "ym2612"
    },
    {
      "channel": 2,
      "note": 30,
      "start": 75.4443,
      "duration": 0.2487,
      "velocity": 119,
      "chip": "ym2612"
    },
    {
      "channel": 0,
      "note": 68,
      "start": 75.8216,
      "duration": 0.3804,
      "velocity": 104,
      "chip": "ym2612"
    },
    {
      "channel": 1,
      "note": 42,
      "start": 75.8223,
      "duration": 0.3805,
      "velocity": 109,
      "chip": "ym2612"
    },
    {
      "channel": 3,
      "note": 65,
      "start": 75.823,
      "duration": 0.3805,
      "velocity": 107,
      "chip": "ym2612"
    },
    {
      "channel": 4,
      "note": 68,
      "start": 75.8237,
      "duration": 0.3805,
      "velocity": 107,
      "chip": "ym2612"
    },
    {
      "channel": 5,
      "note": 42,
      "start": 75.8245,
      "duration": 0.3806,
      "velocity": 95,
      "chip": "ym2612"
    },
    {
      "channel": 2,
      "note": 30,
      "start": 75.8253,
      "duration": 0.2486,
      "velocity": 119,
      "chip": "ym2612"
    },
    {
      "channel": 0,
      "note": 66,
      "start": 76.2025,
      "duration": 1.1426,
      "velocity": 104,
      "chip": "ym2612"
    },
    {
      "channel": 1,
      "note": 42,
      "start": 76.2034,
      "duration": 0.38,
      "velocity": 109,
      "chip": "ym2612"
    },
    {
      "channel": 3,
      "note": 63,
      "start": 76.2041,
      "duration": 1.1424,
      "velocity": 107,
      "chip": "ym2612"
    },
    {
      "channel": 4,
      "note": 66,
      "start": 76.2049,
      "duration": 1.1424,
      "velocity": 107,
      "chip": "ym2612"
    },
    {
      "channel": 5,
      "note": 42,
      "start": 76.2057,
      "duration": 0.379,
      "velocity": 95,
      "chip": "ym2612"
    },
    {
      "channel": 2,
      "note": 30,
      "start": 76.2066,
      "duration": 0.2483,
      "velocity": 119,
      "chip": "ym2612"
    },
    {
      "channel": 1,
      "note": 42,
      "start": 76.5839,
      "duration": 0.3804,
      "velocity": 109,
      "chip": "ym2612"
    },
    {
      "channel": 5,
      "note": 42,
      "start": 76.5853,
      "duration": 0.3805,
      "velocity": 95,
      "chip": "ym2612"
    },
    {
      "channel": 2,
      "note": 30,
      "start": 76.5861,
      "duration": 0.2499,
      "velocity": 119,
      "chip": "ym2612"
    },
    {
      "channel": 1,
      "note": 42,
      "start": 76.9649,
      "duration": 0.3809,
      "velocity": 109,
      "chip": "ym2612"
    },
    {
      "channel": 5,
      "note": 42,
      "start": 76.9663,
      "duration": 0.3818,
      "velocity": 95,
      "chip": "ym2612"
    },
    {
      "channel": 2,
      "note": 30,
      "start": 76.9672,
      "duration": 0.2498,
      "velocity": 119,
      "chip": "ym2612"
    },
    {
      "channel": 0,
      "note": 64,
      "start": 77.3457,
      "duration": 0.1869,
      "velocity": 104,
      "chip": "ym2612"
    },
    {
      "channel": 1,
      "note": 42,
      "start": 77.3464,
      "duration": 0.3804,
      "velocity": 109,
      "chip": "ym2612"
    },
    {
      "channel": 3,
      "note": 61,
      "start": 77.3472,
      "duration": 0.1865,
      "velocity": 107,
      "chip": "ym2612"
    },
    {
      "channel": 4,
      "note": 64,
      "start": 77.348,
      "duration": 0.1865,
      "velocity": 107,
      "chip": "ym2612"
    },
    {
      "channel": 5,
      "note": 42,
      "start": 77.3487,
      "duration": 0.3804,
      "velocity": 95,
      "chip": "ym2612"
    },
    {
      "channel": 2,
      "note": 30,
      "start": 77.3495,
      "duration": 0.2485,
      "velocity": 119,
      "chip": "ym2612"
    },
    {
      "channel": 0,
      "note": 66,
      "start": 77.5332,
      "duration": 0.1928,
      "velocity": 104,
      "chip": "ym2612"
    },
    {
      "channel": 3,
      "note": 62,
      "start": 77.5343,
      "duration": 0.1932,
      "velocity": 107,
      "chip": "ym2612"
    },
    {
      "channel": 4,
      "note": 66,
      "start": 77.535,
      "duration": 0.1933,
      "velocity": 107,
      "chip": "ym2612"
    },
    {
      "channel": 0,
      "note": 61,
      "start": 77.7266,
      "duration": 0.7615,
      "velocity": 104,
      "chip": "ym2612"
    },
    {
      "channel": 1,
      "note": 42,
      "start": 77.7274,
      "duration": 0.3799,
      "velocity": 109,
      "chip": "ym2612"
    },
    {
      "channel": 3,
      "note": 57,
      "start": 77.7282,
      "duration": 0.7613,
      "velocity": 107,
      "chip": "ym2612"
    },
    {
      "channel": 4,
      "note": 61,
      "start": 77.7289,
      "duration": 0.7614,
      "velocity": 107,
      "chip": "ym2612"
    },
    {
      "channel": 5,
      "note": 42,
      "start": 77.7297,
      "duration": 0.3791,
      "velocity": 95,
      "chip": "ym2612"
    },
    {
      "channel": 2,
      "note": 30,
      "start": 77.7305,
      "duration": 0.2484,
      "velocity": 119,
      "chip": "ym2612"
    },
    {
      "channel": 1,
      "note": 42,
      "start": 78.1079,
      "duration": 0.3809,
      "velocity": 109,
      "chip": "ym2612"
    },
    {
      "channel": 5,
      "note": 42,
      "start": 78.1093,
      "duration": 0.3816,
      "velocity": 95,
      "chip": "ym2612"
    },
    {
      "channel": 2,
      "note": 30,
      "start": 78.1102,
      "duration": 0.2498,
      "velocity": 119,
      "chip": "ym2612"
    },
    {
      "channel": 0,
      "note": 59,
      "start": 78.4886,
      "duration": 0.3803,
      "velocity": 104,
      "chip": "ym2612"
    },
    {
      "channel": 1,
      "note": 42,
      "start": 78.4894,
      "duration": 0.3803,
      "velocity": 109,
      "chip": "ym2612"
    },
    {
      "channel": 3,
      "note": 56,
      "start": 78.4901,
      "duration": 0.3803,
      "velocity": 107,
      "chip": "ym2612"
    },
    {
      "channel": 4,
      "note": 59,
      "start": 78.4908,
      "duration": 0.3803,
      "velocity": 107,
      "chip": "ym2612"
    },
    {
      "channel": 5,
      "note": 42,
      "start": 78.4915,
      "duration": 0.3803,
      "velocity": 95,
      "chip": "ym2612"
    },
    {
      "channel": 2,
      "note": 30,
      "start": 78.4924,
      "duration": 0.2487,
      "velocity": 119,
      "chip": "ym2612"
    },
    {
      "channel": 0,
      "note": 57,
      "start": 78.8695,
      "duration": 0.3805,
      "velocity": 104,
      "chip": "ym2612"
    },
    {
      "channel": 1,
      "note": 42,
      "start": 78.8702,
      "duration": 0.3807,
      "velocity": 109,
      "chip": "ym2612"
    },
    {
      "channel": 3,
      "note": 54,
      "start": 78.871,
      "duration": 0.3806,
      "velocity": 107,
      "chip": "ym2612"
    },
    {
      "channel": 4,
      "note": 57,
      "start": 78.8717,
      "duration": 0.3807,
      "velocity": 107,
      "chip": "ym2612"
    },
    {
      "channel": 5,
      "note": 42,
      "start": 78.8724,
      "duration": 0.3807,
      "velocity": 95,
      "chip": "ym2612"
    },
    {
      "channel": 2,
      "note": 30,
      "start": 78.8733,
      "duration": 0.2487,
      "velocity": 119,
      "chip": "ym2612"
    },
    {
      "channel": 0,
      "note": 56,
      "start": 79.2506,
      "duration": 1.1424,
      "velocity": 104,
      "chip": "ym2612"
    },
    {
      "channel": 1,
      "note": 42,
      "start": 79.2515,
      "duration": 0.3799,
      "velocity": 109,
      "chip": "ym2612"
    },
    {
      "channel": 3,
      "note": 53,
      "start": 79.2522,
      "duration": 1.1421,
      "velocity": 107,
      "chip": "ym2612"
    },
    {
      "channel": 4,
      "note": 56,
      "start": 79.2529,
      "duration": 1.142,
      "velocity": 107,
      "chip": "ym2612"
    },
    {
      "channel": 5,
      "note": 42,
      "start": 79.2537,
      "duration": 0.3791,
      "velocity": 95,
      "chip": "ym2612"
    },
    {
      "channel": 2,
      "note": 30,
      "start": 79.2546,
      "duration": 0.2484,
      "velocity": 119,
      "chip": "ym2612"
    },
    {
      "channel": 1,
      "note": 42,
      "start": 79.6319,
      "duration": 0.3805,
      "velocity": 109,
      "chip": "ym2612"
    },
    {
      "channel": 5,
      "note": 42,
      "start": 79.6334,
      "duration": 0.3805,
      "velocity": 95,
      "chip": "ym2612"
    },
    {
      "channel": 2,
      "note": 30,
      "start": 79.6342,
      "duration": 0.2498,
      "velocity": 119,
      "chip": "ym2612"
    },
    {
      "channel": 1,
      "note": 42,
      "start": 80.013,
      "duration": 0.3807,
      "velocity": 109,
      "chip": "ym2612"
    },
    {
      "channel": 5,
      "note": 42,
      "start": 80.0144,
      "duration": 0.3811,
      "velocity": 95,
      "chip": "ym2612"
    },
    {
      "channel": 2,
      "note": 30,
      "start": 80.0153,
      "duration": 0.2497,
      "velocity": 119,
      "chip": "ym2612"
    },
    {
      "channel": 0,
      "note": 56,
      "start": 80.3935,
      "duration": 0.1873,
      "velocity": 104,
      "chip": "ym2612"
    },
    {
      "channel": 1,
      "note": 42,
      "start": 80.3942,
      "duration": 0.381,
      "velocity": 109,
      "chip": "ym2612"
    },
    {
      "channel": 3,
      "note": 53,
      "start": 80.3948,
      "duration": 0.1871,
      "velocity": 107,
      "chip": "ym2612"
    },
    {
      "channel": 4,
      "note": 56,
      "start": 80.3954,
      "duration": 0.1872,
      "velocity": 107,
      "chip": "ym2612"
    },
    {
      "channel": 5,
      "note": 42,
      "start": 80.3961,
      "duration": 0.3814,
      "velocity": 95,
      "chip": "ym2612"
    },
    {
      "channel": 2,
      "note": 30,
      "start": 80.3969,
      "duration": 0.249,
      "velocity": 119,
      "chip": "ym2612"
    },
    {
      "channel": 0,
      "note": 57,
      "start": 80.5814,
      "duration": 0.193,
      "velocity": 104,
      "chip": "ym2612"
    },
    {
      "channel": 3,
      "note": 54,
      "start": 80.5825,
      "duration": 0.1934,
      "velocity": 107,
      "chip": "ym2612"
    },
    {
      "channel": 4,
      "note": 57,
      "start": 80.5833,
      "duration": 0.1934,
      "velocity": 107,
      "chip": "ym2612"
    },
    {
      "channel": 0,
      "note": 54,
      "start": 80.775,
      "duration": 1.1421,
      "velocity": 104,
      "chip": "ym2612"
    },
    {
      "channel": 1,
      "note": 42,
      "start": 80.7758,
      "duration": 0.3796,
      "velocity": 109,
      "chip": "ym2612"
    },
    {
      "channel": 3,
      "note": 49,
      "start": 80.7766,
      "duration": 1.142,
      "velocity": 107,
      "chip": "ym2612"
    },
    {
      "channel": 4,
      "note": 54,
      "start": 80.7773,
      "duration": 1.1419,
      "velocity": 107,
      "chip": "ym2612"
    },
    {
      "channel": 5,
      "note": 42,
      "start": 80.7781,
      "duration": 0.3788,
      "velocity": 95,
      "chip": "ym2612"
    },
    {
      "channel": 2,
      "note": 30,
      "start": 80.7789,
      "duration": 0.2481,
      "velocity": 119,
      "chip": "ym2612"
    },
    {
      "channel": 1,
      "note": 42,
      "start": 81.156,
      "duration": 0.3804,
      "velocity": 109,
      "chip": "ym2612"
    },
    {
      "channel": 5,
      "note": 42,
      "start": 81.1574,
      "duration": 0.3804,
      "velocity": 95,
      "chip": "ym2612"
    },
    {
      "channel": 2,
      "note": 30,
      "start": 81.1583,
      "duration": 0.2498,
      "velocity": 119,
      "chip": "ym2612"
    },
    {
      "channel": 1,
      "note": 42,
      "start": 81.537,
      "duration": 0.3809,
      "velocity": 109,
      "chip": "ym2612"
    },
    {
      "channel": 5,
      "note": 42,
      "start": 81.5384,
      "duration": 0.3815,
      "velocity": 95,
      "chip": "ym2612"
    },
    {
      "channel": 2,
      "note": 30,
      "start": 81.5393,
      "duration": 0.2498,
      "velocity": 119,
      "chip": "ym2612"
    },
    {
      "channel": 0,
      "note": 53,
      "start": 81.9177,
      "duration": 0.3805,
      "velocity": 104,
      "chip": "ym2612"
    },
    {
      "channel": 1,
      "note": 42,
      "start": 81.9184,
      "duration": 0.3805,
      "velocity": 109,
      "chip": "ym2612"
    },
    {
      "channel": 3,
      "note": 49,
      "start": 81.919,
      "duration": 0.3808,
      "velocity": 107,
      "chip": "ym2612"
    },
    {
      "channel": 4,
      "note": 53,
      "start": 81.9197,
      "duration": 0.3809,
      "velocity": 107,
      "chip": "ym2612"
    },
    {
      "channel": 5,
      "note": 42,
      "start": 81.9205,
      "duration": 0.381,
      "velocity": 95,
      "chip": "ym2612"
    },
    {
      "channel": 2,
      "note": 30,
      "start": 81.9213,
      "duration": 0.2487,
      "velocity": 119,
      "chip": "ym2612"
    },
    {
      "channel": 0,
      "note": 54,
      "start": 82.2988,
      "duration": 3.0505,
      "velocity": 109,
      "chip": "ym2612"
    },
    {
      "channel": 1,
      "note": 42,
      "start": 82.2996,
      "duration": 0.3798,
      "velocity": 109,
      "chip": "ym2612"
    },
    {
      "channel": 3,
      "note": 49,
      "start": 82.3004,
      "duration": 3.0538,
      "velocity": 109,
      "chip": "ym2612"
    },
    {
      "channel": 4,
      "note": 54,
      "start": 82.3013,
      "duration": 3.0567,
      "velocity": 109,
      "chip": "ym2612"
    },
    {
      "channel": 5,
      "note": 42,
      "start": 82.3021,
      "duration": 0.3788,
      "velocity": 95,
      "chip": "ym2612"
    },
    {
      "channel": 2,
      "note": 30,
      "start": 82.3029,
      "duration": 0.2481,
      "velocity": 119,
      "chip": "ym2612"
    },
    {
      "channel": 1,
      "note": 42,
      "start": 82.68,
      "duration": 0.3804,
      "velocity": 109,
      "chip": "ym2612"
    },
    {
      "channel": 5,
      "note": 42,
      "start": 82.6815,
      "duration": 0.3803,
      "velocity": 95,
      "chip": "ym2612"
    },
    {
      "channel": 2,
      "note": 30,
      "start": 82.6824,
      "duration": 0.2497,
      "velocity": 119,
      "chip": "ym2612"
    },
    {
      "channel": 1,
      "note": 42,
      "start": 83.061,
      "duration": 0.3804,
      "velocity": 109,
      "chip": "ym2612"
    },
    {
      "channel": 5,
      "note": 42,
      "start": 83.0625,
      "duration": 0.3804,
      "velocity": 95,
      "chip": "ym2612"
    },
    {
      "channel": 2,
      "note": 30,
      "start": 83.0633,
      "duration": 0.2498,
      "velocity": 119,
      "chip": "ym2612"
    },
    {
      "channel": 1,
      "note": 42,
      "start": 83.442,
      "duration": 0.3805,
      "velocity": 109,
      "chip": "ym2612"
    },
    {
      "channel": 5,
      "note": 42,
      "start": 83.4434,
      "duration": 0.3805,
      "velocity": 95,
      "chip": "ym2612"
    },
    {
      "channel": 2,
      "note": 30,
      "start": 83.4443,
      "duration": 0.2499,
      "velocity": 119,
      "chip": "ym2612"
    },
    {
      "channel": 1,
      "note": 42,
      "start": 83.8231,
      "duration": 0.3803,
      "velocity": 109,
      "chip": "ym2612"
    },
    {
      "channel": 5,
      "note": 42,
      "start": 83.8246,
      "duration": 0.3803,
      "velocity": 95,
      "chip": "ym2612"
    },
    {
      "channel": 2,
      "note": 30,
      "start": 83.8254,
      "duration": 0.2499,
      "velocity": 119,
      "chip": "ym2612"
    },
    {
      "channel": 1,
      "note": 42,
      "start": 84.204,
      "duration": 0.3806,
      "velocity": 109,
      "chip": "ym2612"
    },
    {
      "channel": 5,
      "note": 42,
      "start": 84.2055,
      "duration": 0.3805,
      "velocity": 95,
      "chip": "ym2612"
    },
    {
      "channel": 2,
      "note": 30,
      "start": 84.2063,
      "duration": 0.2498,
      "velocity": 119,
      "chip": "ym2612"
    },
    {
      "channel": 1,
      "note": 40,
      "start": 84.5852,
      "duration": 0.3804,
      "velocity": 109,
      "chip": "ym2612"
    },
    {
      "channel": 5,
      "note": 40,
      "start": 84.5866,
      "duration": 0.3805,
      "velocity": 95,
      "chip": "ym2612"
    },
    {
      "channel": 2,
      "note": 30,
      "start": 84.5874,
      "duration": 0.2497,
      "velocity": 119,
      "chip": "ym2612"
    },
    {
      "channel": 1,
      "note": 40,
      "start": 84.9661,
      "duration": 0.3843,
      "velocity": 109,
      "chip": "ym2612"
    },
    {
      "channel": 5,
      "note": 40,
      "start": 84.9676,
      "duration": 0.3917,
      "velocity": 95,
      "chip": "ym2612"
    },
    {
      "channel": 2,
      "note": 30,
      "start": 84.9684,
      "duration": 0.2497,
      "velocity": 119,
      "chip": "ym2612"
    },
    {
      "channel": 0,
      "note": 78,
      "start": 85.3498,
      "duration": 0.184,
      "velocity": 109,
      "chip": "ym2612"
    },
    {
      "channel": 1,
      "note": 38,
      "start": 85.351,
      "duration": 1.139,
      "velocity": 109,
      "chip": "ym2612"
    },
    {
      "channel": 3,
      "note": 74,
      "start": 85.3548,
      "duration": 0.1802,
      "velocity": 109,
      "chip": "ym2612"
    },
    {
      "channel": 4,
      "note": 78,
      "start": 85.3586,
      "duration": 0.177,
      "velocity": 109,
      "chip": "ym2612"
    },
    {
      "channel": 5,
      "note": 38,
      "start": 85.3599,
      "duration": 1.132,
      "velocity": 95,
      "chip": "ym2612"
    },
    {
      "channel": 2,
      "note": 30,
      "start": 85.3607,
      "duration": 0.2385,
      "velocity": 119,
      "chip": "ym2612"
    },
    {
      "channel": 0,
      "note": 78,
      "start": 85.5344,
      "duration": 0.1929,
      "velocity": 109,
      "chip": "ym2612"
    },
    {
      "channel": 3,
      "note": 74,
      "start": 85.5355,
      "duration": 0.1929,
      "velocity": 109,
      "chip": "ym2612"
    },
    {
      "channel": 4,
      "note": 78,
      "start": 85.5363,
      "duration": 0.193,
      "velocity": 109,
      "chip": "ym2612"
    },
    {
      "channel": 0,
      "note": 78,
      "start": 85.7279,
      "duration": 0.187,
      "velocity": 109,
      "chip": "ym2612"
    },
    {
      "channel": 3,
      "note": 74,
      "start": 85.729,
      "duration": 0.187,
      "velocity": 109,
      "chip": "ym2612"
    },
    {
      "channel": 4,
      "note": 78,
      "start": 85.7298,
      "duration": 0.1869,
      "velocity": 109,
      "chip": "ym2612"
    },
    {
      "channel": 2,
      "note": 30,
      "start": 85.731,
      "duration": 0.2492,
      "velocity": 119,
      "chip": "ym2612"
    },
    {
      "channel": 0,
      "note": 78,
      "start": 85.9155,
      "duration": 0.1928,
      "velocity": 109,
      "chip": "ym2612"
    },
    {
      "channel": 3,
      "note": 74,
      "start": 85.9166,
      "duration": 0.1929,
      "velocity": 109,
      "chip": "ym2612"
    },
    {
      "channel": 4,
      "note": 78,
      "start": 85.9174,
      "duration": 0.193,
      "velocity": 109,
      "chip": "ym2612"
    },
    {
      "channel": 0,
      "note": 78,
      "start": 86.1089,
      "duration": 0.187,
      "velocity": 109,
      "chip": "ym2612"
    },
    {
      "channel": 3,
      "note": 74,
      "start": 86.1101,
      "duration": 0.1869,
      "velocity": 109,
      "chip": "ym2612"
    },
    {
      "channel": 4,
      "note": 78,
      "start": 86.1109,
      "duration": 0.1868,
      "velocity": 109,
      "chip": "ym2612"
    },
    {
      "channel": 2,
      "note": 30,
      "start": 86.1122,
      "duration": 0.249,
      "velocity": 119,
      "chip": "ym2612"
    },
    {
      "channel": 0,
      "note": 78,
      "start": 86.2965,
      "duration": 0.1928,
      "velocity": 109,
      "chip": "ym2612"
    },
    {
      "channel": 3,
      "note": 74,
      "start": 86.2976,
      "duration": 0.1927,
      "velocity": 109,
      "chip": "ym2612"
    },
    {
      "channel": 4,
      "note": 78,
      "start": 86.2984,
      "duration": 0.1927,
      "velocity": 109,
      "chip": "ym2612"
    },
    {
      "channel": 0,
      "note": 78,
      "start": 86.4899,
      "duration": 0.187,
      "velocity": 109,
      "chip": "ym2612"
    },
    {
      "channel": 3,
      "note": 74,
      "start": 86.4909,
      "duration": 0.1873,
      "velocity": 109,
      "chip": "ym2612"
    },
    {
      "channel": 4,
      "note": 78,
      "start": 86.4918,
      "duration": 0.1864,
      "velocity": 109,
      "chip": "ym2612"
    },
    {
      "channel": 2,
      "note": 30,
      "start": 86.4929,
      "duration": 0.1853,
      "velocity": 119,
      "chip": "ym2612"
    },
    {
      "channel": 0,
      "note": 78,
      "start": 86.6774,
      "duration": 0.0008,
      "velocity": 109,
      "chip": "ym2612"
    },
    {
      "channel": 1,
      "note": 33,
      "start": 86.6781,
      "duration": 0.0001,
      "velocity": 109,
      "chip": "ym2612"
    }
  ]
}