{
  "track_name": "06 - Funky Alien",
  "duration_sec": 61.792,
  "sample_rate": 44100,
  "note_count": 1099,
  "unique_pitches": 55,
  "pitch_range": 60,
  "avg_note_duration": 0.1095,
  "reconstruction_stats": {
    "notes_reconstructed": 1099,
    "keyon_events": 1099,
    "keyoff_events": 1098,
    "orphan_keyons": 1,
    "unique_pitches": 55,
    "pitch_range": 60,
    "avg_duration_sec": 0.1095
  },
  "metadata": {
    "source": "T\\ToeJam & Earl in Panic on Funkotron\\06 - Funky Alien.vgz"
  },
  "notes": [
    {
      "channel": 0,
      "note": 64,
      "start": 0.0,
      "duration": 0.0,
      "velocity": 125,
      "chip": "ym2612"
    },
    {
      "channel": 0,
      "note": 66,
      "start": 0.0,
      "duration": 0.0,
      "velocity": 125,
      "chip": "ym2612"
    },
    {
      "channel": 0,
      "note": 64,
      "start": 0.0,
      "duration": 0.0,
      "velocity": 125,
      "chip": "ym2612"
    },
    {
      "channel": 0,
      "note": 66,
      "start": 0.0,
      "duration": 0.0,
      "velocity": 125,
      "chip": "ym2612"
    },
    {
      "channel": 0,
      "note": 58,
      "start": 0.0,
      "duration": 0.0,
      "velocity": 1,
      "chip": "ym2612"
    },
    {
      "channel": 0,
      "note": 45,
      "start": 0.0,
      "duration": 0.0386,
      "velocity": 122,
      "chip": "ym2612"
    },
    {
      "channel": 1,
      "note": 52,
      "start": 0.0,
      "duration": 0.0,
      "velocity": 88,
      "chip": "ym2612"
    },
    {
      "channel": 1,
      "note": 54,
      "start": 0.0,
      "duration": 0.0,
      "velocity": 88,
      "chip": "ym2612"
    },
    {
      "channel": 2,
      "note": 45,
      "start": 0.0,
      "duration": 0.0,
      "velocity": 122,
      "chip": "ym2612"
    },
    {
      "channel": 3,
      "note": 61,
      "start": 0.0,
      "duration": 0.0,
      "velocity": 125,
      "chip": "ym2612"
    },
    {
      "channel": 3,
      "note": 61,
      "start": 0.0,
      "duration": 0.0,
      "velocity": 125,
      "chip": "ym2612"
    },
    {
      "channel": 4,
      "note": 52,
      "start": 0.0,
      "duration": 0.0,
      "velocity": 111,
      "chip": "ym2612"
    },
    {
      "channel": 4,
      "note": 54,
      "start": 0.0,
      "duration": 0.0,
      "velocity": 111,
      "chip": "ym2612"
    },
    {
      "channel": 5,
      "note": 61,
      "start": 0.0,
      "duration": 0.0,
      "velocity": 125,
      "chip": "ym2612"
    },
    {
      "channel": 4,
      "note": 49,
      "start": 0.018,
      "duration": 0.0209,
      "velocity": 83,
      "chip": "ym2612"
    },
    {
      "channel": 1,
      "note": 49,
      "start": 0.0234,
      "duration": 0.0153,
      "velocity": 92,
      "chip": "ym2612"
    },
    {
      "channel": 4,
      "note": 61,
      "start": 0.0757,
      "duration": 0.0463,
      "velocity": 83,
      "chip": "ym2612"
    },
    {
      "channel": 4,
      "note": 49,
      "start": 0.1757,
      "duration": 0.0298,
      "velocity": 83,
      "chip": "ym2612"
    },
    {
      "channel": 1,
      "note": 49,
      "start": 0.1783,
      "duration": 0.027,
      "velocity": 92,
      "chip": "ym2612"
    },
    {
      "channel": 0,
      "note": 45,
      "start": 0.2584,
      "duration": 0.0469,
      "velocity": 122,
      "chip": "ym2612"
    },
    {
      "channel": 4,
      "note": 37,
      "start": 0.2622,
      "duration": 0.0099,
      "velocity": 83,
      "chip": "ym2612"
    },
    {
      "channel": 1,
      "note": 37,
      "start": 0.265,
      "duration": 0.0903,
      "velocity": 92,
      "chip": "ym2612"
    },
    {
      "channel": 3,
      "note": 49,
      "start": 0.5256,
      "duration": 0.2797,
      "velocity": 125,
      "chip": "ym2612"
    },
    {
      "channel": 1,
      "note": 37,
      "start": 0.5294,
      "duration": 0.1259,
      "velocity": 92,
      "chip": "ym2612"
    },
    {
      "channel": 4,
      "note": 64,
      "start": 0.8094,
      "duration": 0.0627,
      "velocity": 83,
      "chip": "ym2612"
    },
    {
      "channel": 5,
      "note": 49,
      "start": 0.9759,
      "duration": 0.5296,
      "velocity": 118,
      "chip": "ym2612"
    },
    {
      "channel": 0,
      "note": 45,
      "start": 1.075,
      "duration": 0.0469,
      "velocity": 122,
      "chip": "ym2612"
    },
    {
      "channel": 0,
      "note": 45,
      "start": 1.5084,
      "duration": 0.0302,
      "velocity": 122,
      "chip": "ym2612"
    },
    {
      "channel": 3,
      "note": 49,
      "start": 1.6086,
      "duration": 0.2802,
      "velocity": 125,
      "chip": "ym2612"
    },
    {
      "channel": 4,
      "note": 64,
      "start": 1.613,
      "duration": 0.4426,
      "velocity": 83,
      "chip": "ym2612"
    },
    {
      "channel": 2,
      "note": 59,
      "start": 1.6157,
      "duration": 0.44,
      "velocity": 83,
      "chip": "ym2612"
    },
    {
      "channel": 0,
      "note": 45,
      "start": 1.7752,
      "duration": 0.0468,
      "velocity": 122,
      "chip": "ym2612"
    },
    {
      "channel": 1,
      "note": 47,
      "start": 2.0427,
      "duration": 0.1294,
      "velocity": 92,
      "chip": "ym2612"
    },
    {
      "channel": 0,
      "note": 45,
      "start": 2.1586,
      "duration": 0.0468,
      "velocity": 122,
      "chip": "ym2612"
    },
    {
      "channel": 4,
      "note": 48,
      "start": 2.1621,
      "duration": 0.0435,
      "velocity": 83,
      "chip": "ym2612"
    },
    {
      "channel": 5,
      "note": 49,
      "start": 2.1651,
      "duration": 0.0072,
      "velocity": 92,
      "chip": "ym2612"
    },
    {
      "channel": 4,
      "note": 61,
      "start": 2.2427,
      "duration": 0.046,
      "velocity": 83,
      "chip": "ym2612"
    },
    {
      "channel": 0,
      "note": 45,
      "start": 2.3422,
      "duration": 0.0298,
      "velocity": 122,
      "chip": "ym2612"
    },
    {
      "channel": 4,
      "note": 49,
      "start": 2.3452,
      "duration": 0.0271,
      "velocity": 83,
      "chip": "ym2612"
    },
    {
      "channel": 1,
      "note": 49,
      "start": 2.348,
      "duration": 0.024,
      "velocity": 92,
      "chip": "ym2612"
    },
    {
      "channel": 0,
      "note": 45,
      "start": 2.425,
      "duration": 0.047,
      "velocity": 122,
      "chip": "ym2612"
    },
    {
      "channel": 4,
      "note": 37,
      "start": 2.4285,
      "duration": 0.0104,
      "velocity": 83,
      "chip": "ym2612"
    },
    {
      "channel": 1,
      "note": 37,
      "start": 2.4312,
      "duration": 0.0908,
      "velocity": 92,
      "chip": "ym2612"
    },
    {
      "channel": 3,
      "note": 49,
      "start": 2.6919,
      "duration": 0.2801,
      "velocity": 125,
      "chip": "ym2612"
    },
    {
      "channel": 1,
      "note": 37,
      "start": 2.6954,
      "duration": 0.1433,
      "velocity": 92,
      "chip": "ym2612"
    },
    {
      "channel": 4,
      "note": 64,
      "start": 2.976,
      "duration": 0.0295,
      "velocity": 83,
      "chip": "ym2612"
    },
    {
      "channel": 1,
      "note": 52,
      "start": 2.9787,
      "duration": 0.0599,
      "velocity": 92,
      "chip": "ym2612"
    },
    {
      "channel": 1,
      "note": 54,
      "start": 3.1261,
      "duration": 0.0459,
      "velocity": 92,
      "chip": "ym2612"
    },
    {
      "channel": 0,
      "note": 45,
      "start": 3.2417,
      "duration": 0.047,
      "velocity": 122,
      "chip": "ym2612"
    },
    {
      "channel": 1,
      "note": 56,
      "start": 3.3926,
      "duration": 0.0459,
      "velocity": 92,
      "chip": "ym2612"
    },
    {
      "channel": 4,
      "note": 71,
      "start": 3.5092,
      "duration": 0.0462,
      "velocity": 83,
      "chip": "ym2612"
    },
    {
      "channel": 1,
      "note": 59,
      "start": 3.512,
      "duration": 0.06,
      "velocity": 92,
      "chip": "ym2612"
    },
    {
      "channel": 4,
      "note": 68,
      "start": 3.609,
      "duration": 0.0297,
      "velocity": 83,
      "chip": "ym2612"
    },
    {
      "channel": 1,
      "note": 56,
      "start": 3.6115,
      "duration": 0.0605,
      "velocity": 92,
      "chip": "ym2612"
    },
    {
      "channel": 0,
      "note": 45,
      "start": 3.6751,
      "duration": 0.0302,
      "velocity": 122,
      "chip": "ym2612"
    },
    {
      "channel": 4,
      "note": 64,
      "start": 3.6924,
      "duration": 0.0464,
      "velocity": 83,
      "chip": "ym2612"
    },
    {
      "channel": 1,
      "note": 52,
      "start": 3.6948,
      "duration": 0.0604,
      "velocity": 92,
      "chip": "ym2612"
    },
    {
      "channel": 3,
      "note": 49,
      "start": 3.7753,
      "duration": 0.2802,
      "velocity": 125,
      "chip": "ym2612"
    },
    {
      "channel": 4,
      "note": 59,
      "start": 3.7802,
      "duration": 0.5254,
      "velocity": 83,
      "chip": "ym2612"
    },
    {
      "channel": 1,
      "note": 47,
      "start": 3.7847,
      "duration": 0.2707,
      "velocity": 92,
      "chip": "ym2612"
    },
    {
      "channel": 0,
      "note": 45,
      "start": 3.942,
      "duration": 0.0468,
      "velocity": 122,
      "chip": "ym2612"
    },
    {
      "channel": 0,
      "note": 45,
      "start": 4.3253,
      "duration": 0.0468,
      "velocity": 122,
      "chip": "ym2612"
    },
    {
      "channel": 4,
      "note": 48,
      "start": 4.3288,
      "duration": 0.0436,
      "velocity": 83,
      "chip": "ym2612"
    },
    {
      "channel": 1,
      "note": 47,
      "start": 4.3317,
      "duration": 0.0072,
      "velocity": 92,
      "chip": "ym2612"
    },
    {
      "channel": 4,
      "note": 61,
      "start": 4.4092,
      "duration": 0.0462,
      "velocity": 83,
      "chip": "ym2612"
    },
    {
      "channel": 4,
      "note": 49,
      "start": 4.5091,
      "duration": 0.0297,
      "velocity": 83,
      "chip": "ym2612"
    },
    {
      "channel": 1,
      "note": 49,
      "start": 4.5119,
      "duration": 0.0268,
      "velocity": 92,
      "chip": "ym2612"
    },
    {
      "channel": 0,
      "note": 45,
      "start": 4.5917,
      "duration": 0.0468,
      "velocity": 122,
      "chip": "ym2612"
    },
    {
      "channel": 4,
      "note": 37,
      "start": 4.5952,
      "duration": 0.0269,
      "velocity": 83,
      "chip": "ym2612"
    },
    {
      "channel": 1,
      "note": 37,
      "start": 4.5979,
      "duration": 0.0908,
      "velocity": 92,
      "chip": "ym2612"
    },
    {
      "channel": 3,
      "note": 49,
      "start": 4.8586,
      "duration": 0.2801,
      "velocity": 125,
      "chip": "ym2612"
    },
    {
      "channel": 1,
      "note": 37,
      "start": 4.8624,
      "duration": 0.143,
      "velocity": 92,
      "chip": "ym2612"
    },
    {
      "channel": 4,
      "note": 64,
      "start": 5.1428,
      "duration": 0.0625,
      "velocity": 83,
      "chip": "ym2612"
    },
    {
      "channel": 2,
      "note": 49,
      "start": 5.3258,
      "duration": 0.513,
      "velocity": 118,
      "chip": "ym2612"
    },
    {
      "channel": 0,
      "note": 45,
      "start": 5.4083,
      "duration": 0.047,
      "velocity": 122,
      "chip": "ym2612"
    },
    {
      "channel": 0,
      "note": 45,
      "start": 5.8422,
      "duration": 0.0297,
      "velocity": 122,
      "chip": "ym2612"
    },
    {
      "channel": 3,
      "note": 49,
      "start": 5.942,
      "duration": 0.2802,
      "velocity": 125,
      "chip": "ym2612"
    },
    {
      "channel": 4,
      "note": 64,
      "start": 5.9467,
      "duration": 0.4588,
      "velocity": 83,
      "chip": "ym2612"
    },
    {
      "channel": 5,
      "note": 59,
      "start": 5.9494,
      "duration": 0.4562,
      "velocity": 83,
      "chip": "ym2612"
    },
    {
      "channel": 0,
      "note": 45,
      "start": 6.1085,
      "duration": 0.0468,
      "velocity": 122,
      "chip": "ym2612"
    },
    {
      "channel": 1,
      "note": 47,
      "start": 6.376,
      "duration": 0.1295,
      "velocity": 92,
      "chip": "ym2612"
    },
    {
      "channel": 0,
      "note": 45,
      "start": 6.4918,
      "duration": 0.0469,
      "velocity": 122,
      "chip": "ym2612"
    },
    {
      "channel": 4,
      "note": 47,
      "start": 6.4952,
      "duration": 0.0437,
      "velocity": 83,
      "chip": "ym2612"
    },
    {
      "channel": 2,
      "note": 49,
      "start": 6.4983,
      "duration": 0.0074,
      "velocity": 92,
      "chip": "ym2612"
    },
    {
      "channel": 4,
      "note": 61,
      "start": 6.5758,
      "duration": 0.0463,
      "velocity": 83,
      "chip": "ym2612"
    },
    {
      "channel": 0,
      "note": 45,
      "start": 6.675,
      "duration": 0.0302,
      "velocity": 122,
      "chip": "ym2612"
    },
    {
      "channel": 4,
      "note": 49,
      "start": 6.6781,
      "duration": 0.0274,
      "velocity": 83,
      "chip": "ym2612"
    },
    {
      "channel": 1,
      "note": 49,
      "start": 6.6809,
      "duration": 0.0245,
      "velocity": 92,
      "chip": "ym2612"
    },
    {
      "channel": 0,
      "note": 45,
      "start": 6.7583,
      "duration": 0.047,
      "velocity": 122,
      "chip": "ym2612"
    },
    {
      "channel": 4,
      "note": 37,
      "start": 6.7618,
      "duration": 0.0269,
      "velocity": 83,
      "chip": "ym2612"
    },
    {
      "channel": 1,
      "note": 37,
      "start": 6.7645,
      "duration": 0.0908,
      "velocity": 92,
      "chip": "ym2612"
    },
    {
      "channel": 3,
      "note": 49,
      "start": 7.0253,
      "duration": 0.2801,
      "velocity": 125,
      "chip": "ym2612"
    },
    {
      "channel": 1,
      "note": 37,
      "start": 7.0283,
      "duration": 0.1437,
      "velocity": 92,
      "chip": "ym2612"
    },
    {
      "channel": 4,
      "note": 64,
      "start": 7.3093,
      "duration": 0.0294,
      "velocity": 83,
      "chip": "ym2612"
    },
    {
      "channel": 1,
      "note": 52,
      "start": 7.3124,
      "duration": 0.0595,
      "velocity": 92,
      "chip": "ym2612"
    },
    {
      "channel": 1,
      "note": 54,
      "start": 7.4594,
      "duration": 0.0459,
      "velocity": 92,
      "chip": "ym2612"
    },
    {
      "channel": 0,
      "note": 45,
      "start": 7.5751,
      "duration": 0.0468,
      "velocity": 122,
      "chip": "ym2612"
    },
    {
      "channel": 1,
      "note": 56,
      "start": 7.7259,
      "duration": 0.0461,
      "velocity": 92,
      "chip": "ym2612"
    },
    {
      "channel": 4,
      "note": 71,
      "start": 7.8425,
      "duration": 0.0462,
      "velocity": 83,
      "chip": "ym2612"
    },
    {
      "channel": 1,
      "note": 59,
      "start": 7.8452,
      "duration": 0.0601,
      "velocity": 92,
      "chip": "ym2612"
    },
    {
      "channel": 4,
      "note": 68,
      "start": 7.9424,
      "duration": 0.0296,
      "velocity": 83,
      "chip": "ym2612"
    },
    {
      "channel": 1,
      "note": 56,
      "start": 7.9449,
      "duration": 0.0604,
      "velocity": 92,
      "chip": "ym2612"
    },
    {
      "channel": 0,
      "note": 45,
      "start": 8.0084,
      "duration": 0.0302,
      "velocity": 122,
      "chip": "ym2612"
    },
    {
      "channel": 4,
      "note": 64,
      "start": 8.026,
      "duration": 0.046,
      "velocity": 83,
      "chip": "ym2612"
    },
    {
      "channel": 1,
      "note": 52,
      "start": 8.0285,
      "duration": 0.0602,
      "velocity": 92,
      "chip": "ym2612"
    },
    {
      "channel": 3,
      "note": 49,
      "start": 8.1093,
      "duration": 0.2797,
      "velocity": 125,
      "chip": "ym2612"
    },
    {
      "channel": 4,
      "note": 59,
      "start": 8.1136,
      "duration": 0.4088,
      "velocity": 83,
      "chip": "ym2612"
    },
    {
      "channel": 5,
      "note": 73,
      "start": 8.1164,
      "duration": 0.0393,
      "velocity": 83,
      "chip": "ym2612"
    },
    {
      "channel": 1,
      "note": 47,
      "start": 8.1209,
      "duration": 0.2679,
      "velocity": 92,
      "chip": "ym2612"
    },
    {
      "channel": 2,
      "note": 49,
      "start": 8.2096,
      "duration": 0.0629,
      "velocity": 125,
      "chip": "ym2612"
    },
    {
      "channel": 5,
      "note": 70,
      "start": 8.2124,
      "duration": 0.0432,
      "velocity": 83,
      "chip": "ym2612"
    },
    {
      "channel": 0,
      "note": 45,
      "start": 8.2755,
      "duration": 0.0467,
      "velocity": 122,
      "chip": "ym2612"
    },
    {
      "channel": 2,
      "note": 49,
      "start": 8.2924,
      "duration": 0.0633,
      "velocity": 125,
      "chip": "ym2612"
    },
    {
      "channel": 5,
      "note": 66,
      "start": 8.2954,
      "duration": 0.0438,
      "velocity": 83,
      "chip": "ym2612"
    },
    {
      "channel": 2,
      "note": 49,
      "start": 8.3927,
      "duration": 0.0631,
      "velocity": 125,
      "chip": "ym2612"
    },
    {
      "channel": 5,
      "note": 74,
      "start": 8.3956,
      "duration": 0.0268,
      "velocity": 83,
      "chip": "ym2612"
    },
    {
      "channel": 2,
      "note": 49,
      "start": 8.4759,
      "duration": 0.0631,
      "velocity": 125,
      "chip": "ym2612"
    },
    {
      "channel": 5,
      "note": 71,
      "start": 8.4788,
      "duration": 0.0437,
      "velocity": 83,
      "chip": "ym2612"
    },
    {
      "channel": 2,
      "note": 49,
      "start": 8.5759,
      "duration": 0.0632,
      "velocity": 125,
      "chip": "ym2612"
    },
    {
      "channel": 4,
      "note": 67,
      "start": 8.5787,
      "duration": 0.0269,
      "velocity": 83,
      "chip": "ym2612"
    },
    {
      "channel": 0,
      "note": 49,
      "start": 8.6691,
      "duration": 0.1195,
      "velocity": 111,
      "chip": "ym2612"
    },
    {
      "channel": 1,
      "note": 45,
      "start": 8.6751,
      "duration": 0.0361,
      "velocity": 122,
      "chip": "ym2612"
    },
    {
      "channel": 3,
      "note": 47,
      "start": 8.6912,
      "duration": 0.0808,
      "velocity": 125,
      "chip": "ym2612"
    },
    {
      "channel": 3,
      "note": 59,
      "start": 8.8259,
      "duration": 0.0794,
      "velocity": 125,
      "chip": "ym2612"
    },
    {
      "channel": 1,
      "note": 45,
      "start": 8.9421,
      "duration": 0.03,
      "velocity": 122,
      "chip": "ym2612"
    },
    {
      "channel": 3,
      "note": 47,
      "start": 8.9452,
      "duration": 0.0768,
      "velocity": 125,
      "chip": "ym2612"
    },
    {
      "channel": 4,
      "note": 61,
      "start": 8.9485,
      "duration": 0.0069,
      "velocity": 83,
      "chip": "ym2612"
    },
    {
      "channel": 5,
      "note": 61,
      "start": 8.9519,
      "duration": 0.0037,
      "velocity": 92,
      "chip": "ym2612"
    },
    {
      "channel": 2,
      "note": 49,
      "start": 9.2091,
      "duration": 0.2799,
      "velocity": 125,
      "chip": "ym2612"
    },
    {
      "channel": 3,
      "note": 47,
      "start": 9.212,
      "duration": 0.1101,
      "velocity": 125,
      "chip": "ym2612"
    },
    {
      "channel": 4,
      "note": 59,
      "start": 9.3094,
      "duration": 0.0627,
      "velocity": 83,
      "chip": "ym2612"
    },
    {
      "channel": 5,
      "note": 59,
      "start": 9.3124,
      "duration": 0.0599,
      "velocity": 92,
      "chip": "ym2612"
    },
    {
      "channel": 4,
      "note": 56,
      "start": 9.3925,
      "duration": 0.0962,
      "velocity": 83,
      "chip": "ym2612"
    },
    {
      "channel": 5,
      "note": 56,
      "start": 9.3952,
      "duration": 0.0937,
      "velocity": 92,
      "chip": "ym2612"
    },
    {
      "channel": 3,
      "note": 59,
      "start": 9.4928,
      "duration": 0.0792,
      "velocity": 125,
      "chip": "ym2612"
    },
    {
      "channel": 4,
      "note": 54,
      "start": 9.4959,
      "duration": 0.0594,
      "velocity": 83,
      "chip": "ym2612"
    },
    {
      "channel": 5,
      "note": 54,
      "start": 9.4989,
      "duration": 0.0567,
      "velocity": 92,
      "chip": "ym2612"
    },
    {
      "channel": 3,
      "note": 49,
      "start": 9.6424,
      "duration": 0.113,
      "velocity": 125,
      "chip": "ym2612"
    },
    {
      "channel": 0,
      "note": 44,
      "start": 9.6759,
      "duration": 0.0795,
      "velocity": 118,
      "chip": "ym2612"
    },
    {
      "channel": 1,
      "note": 52,
      "start": 9.759,
      "duration": 0.0463,
      "velocity": 111,
      "chip": "ym2612"
    },
    {
      "channel": 2,
      "note": 45,
      "start": 9.7619,
      "duration": 0.0438,
      "velocity": 122,
      "chip": "ym2612"
    },
    {
      "channel": 3,
      "note": 61,
      "start": 9.7655,
      "duration": 0.0399,
      "velocity": 125,
      "chip": "ym2612"
    },
    {
      "channel": 5,
      "note": 39,
      "start": 9.7685,
      "duration": 0.0371,
      "velocity": 92,
      "chip": "ym2612"
    },
    {
      "channel": 1,
      "note": 52,
      "start": 10.0417,
      "duration": 0.0636,
      "velocity": 111,
      "chip": "ym2612"
    },
    {
      "channel": 3,
      "note": 61,
      "start": 10.0449,
      "duration": 0.0605,
      "velocity": 125,
      "chip": "ym2612"
    },
    {
      "channel": 5,
      "note": 39,
      "start": 10.0479,
      "duration": 0.0577,
      "velocity": 92,
      "chip": "ym2612"
    },
    {
      "channel": 2,
      "note": 45,
      "start": 10.2087,
      "duration": 0.0301,
      "velocity": 122,
      "chip": "ym2612"
    },
    {
      "channel": 1,
      "note": 52,
      "start": 10.3252,
      "duration": 0.1301,
      "velocity": 111,
      "chip": "ym2612"
    },
    {
      "channel": 4,
      "note": 49,
      "start": 10.3283,
      "duration": 0.2604,
      "velocity": 125,
      "chip": "ym2612"
    },
    {
      "channel": 3,
      "note": 61,
      "start": 10.331,
      "duration": 0.0578,
      "velocity": 125,
      "chip": "ym2612"
    },
    {
      "channel": 5,
      "note": 39,
      "start": 10.3345,
      "duration": 0.1211,
      "velocity": 92,
      "chip": "ym2612"
    },
    {
      "channel": 1,
      "note": 54,
      "start": 10.4751,
      "duration": 0.3301,
      "velocity": 111,
      "chip": "ym2612"
    },
    {
      "channel": 2,
      "note": 45,
      "start": 10.478,
      "duration": 0.0442,
      "velocity": 122,
      "chip": "ym2612"
    },
    {
      "channel": 5,
      "note": 41,
      "start": 10.4816,
      "duration": 0.3239,
      "velocity": 92,
      "chip": "ym2612"
    },
    {
      "channel": 3,
      "note": 49,
      "start": 10.5926,
      "duration": 0.1128,
      "velocity": 125,
      "chip": "ym2612"
    },
    {
      "channel": 0,
      "note": 49,
      "start": 10.7598,
      "duration": 0.0622,
      "velocity": 125,
      "chip": "ym2612"
    },
    {
      "channel": 3,
      "note": 61,
      "start": 10.7627,
      "duration": 0.076,
      "velocity": 125,
      "chip": "ym2612"
    },
    {
      "channel": 1,
      "note": 49,
      "start": 10.8751,
      "duration": 0.1802,
      "velocity": 111,
      "chip": "ym2612"
    },
    {
      "channel": 2,
      "note": 45,
      "start": 10.878,
      "duration": 0.0441,
      "velocity": 122,
      "chip": "ym2612"
    },
    {
      "channel": 3,
      "note": 47,
      "start": 10.8811,
      "duration": 0.0743,
      "velocity": 125,
      "chip": "ym2612"
    },
    {
      "channel": 5,
      "note": 49,
      "start": 10.8843,
      "duration": 0.1713,
      "velocity": 92,
      "chip": "ym2612"
    },
    {
      "channel": 3,
      "note": 59,
      "start": 11.0259,
      "duration": 0.0795,
      "velocity": 125,
      "chip": "ym2612"
    },
    {
      "channel": 2,
      "note": 45,
      "start": 11.0589,
      "duration": 0.0468,
      "velocity": 122,
      "chip": "ym2612"
    },
    {
      "channel": 2,
      "note": 45,
      "start": 11.142,
      "duration": 0.0468,
      "velocity": 122,
      "chip": "ym2612"
    },
    {
      "channel": 3,
      "note": 47,
      "start": 11.1456,
      "duration": 0.0931,
      "velocity": 125,
      "chip": "ym2612"
    },
    {
      "channel": 4,
      "note": 61,
      "start": 11.1488,
      "duration": 0.0233,
      "velocity": 83,
      "chip": "ym2612"
    },
    {
      "channel": 5,
      "note": 61,
      "start": 11.1517,
      "duration": 0.0205,
      "velocity": 92,
      "chip": "ym2612"
    },
    {
      "channel": 0,
      "note": 49,
      "start": 11.4258,
      "duration": 0.2795,
      "velocity": 125,
      "chip": "ym2612"
    },
    {
      "channel": 3,
      "note": 47,
      "start": 11.4286,
      "duration": 0.11,
      "velocity": 125,
      "chip": "ym2612"
    },
    {
      "channel": 4,
      "note": 59,
      "start": 11.5263,
      "duration": 0.0291,
      "velocity": 83,
      "chip": "ym2612"
    },
    {
      "channel": 5,
      "note": 59,
      "start": 11.5292,
      "duration": 0.0263,
      "velocity": 92,
      "chip": "ym2612"
    },
    {
      "channel": 4,
      "note": 56,
      "start": 11.609,
      "duration": 0.0964,
      "velocity": 83,
      "chip": "ym2612"
    },
    {
      "channel": 5,
      "note": 56,
      "start": 11.6119,
      "duration": 0.0938,
      "velocity": 92,
      "chip": "ym2612"
    },
    {
      "channel": 3,
      "note": 59,
      "start": 11.7093,
      "duration": 0.0794,
      "velocity": 125,
      "chip": "ym2612"
    },
    {
      "channel": 4,
      "note": 54,
      "start": 11.7123,
      "duration": 0.0598,
      "velocity": 83,
      "chip": "ym2612"
    },
    {
      "channel": 5,
      "note": 54,
      "start": 11.7156,
      "duration": 0.0566,
      "velocity": 92,
      "chip": "ym2612"
    },
    {
      "channel": 1,
      "note": 44,
      "start": 11.8926,
      "duration": 0.3794,
      "velocity": 118,
      "chip": "ym2612"
    },
    {
      "channel": 2,
      "note": 56,
      "start": 11.9758,
      "duration": 0.1463,
      "velocity": 111,
      "chip": "ym2612"
    },
    {
      "channel": 0,
      "note": 45,
      "start": 11.9786,
      "duration": 0.0433,
      "velocity": 122,
      "chip": "ym2612"
    },
    {
      "channel": 3,
      "note": 49,
      "start": 11.9818,
      "duration": 0.1069,
      "velocity": 125,
      "chip": "ym2612"
    },
    {
      "channel": 4,
      "note": 56,
      "start": 11.9852,
      "duration": 0.0536,
      "velocity": 83,
      "chip": "ym2612"
    },
    {
      "channel": 2,
      "note": 54,
      "start": 12.1421,
      "duration": 0.0802,
      "velocity": 111,
      "chip": "ym2612"
    },
    {
      "channel": 4,
      "note": 54,
      "start": 12.1456,
      "duration": 0.0097,
      "velocity": 83,
      "chip": "ym2612"
    },
    {
      "channel": 2,
      "note": 59,
      "start": 12.2587,
      "duration": 0.1134,
      "velocity": 111,
      "chip": "ym2612"
    },
    {
      "channel": 3,
      "note": 61,
      "start": 12.2622,
      "duration": 0.0766,
      "velocity": 125,
      "chip": "ym2612"
    },
    {
      "channel": 4,
      "note": 59,
      "start": 12.2655,
      "duration": 0.0566,
      "velocity": 83,
      "chip": "ym2612"
    },
    {
      "channel": 2,
      "note": 54,
      "start": 12.4254,
      "duration": 0.1302,
      "velocity": 111,
      "chip": "ym2612"
    },
    {
      "channel": 0,
      "note": 45,
      "start": 12.4283,
      "duration": 0.027,
      "velocity": 122,
      "chip": "ym2612"
    },
    {
      "channel": 3,
      "note": 49,
      "start": 12.4316,
      "duration": 0.0904,
      "velocity": 125,
      "chip": "ym2612"
    },
    {
      "channel": 4,
      "note": 54,
      "start": 12.4346,
      "duration": 0.1207,
      "velocity": 83,
      "chip": "ym2612"
    },
    {
      "channel": 5,
      "note": 49,
      "start": 12.5255,
      "duration": 0.28,
      "velocity": 125,
      "chip": "ym2612"
    },
    {
      "channel": 2,
      "note": 55,
      "start": 12.6921,
      "duration": 0.0636,
      "velocity": 111,
      "chip": "ym2612"
    },
    {
      "channel": 0,
      "note": 45,
      "start": 12.6946,
      "duration": 0.044,
      "velocity": 122,
      "chip": "ym2612"
    },
    {
      "channel": 3,
      "note": 49,
      "start": 12.6977,
      "duration": 0.1076,
      "velocity": 125,
      "chip": "ym2612"
    },
    {
      "channel": 4,
      "note": 55,
      "start": 12.7007,
      "duration": 0.0214,
      "velocity": 83,
      "chip": "ym2612"
    },
    {
      "channel": 2,
      "note": 56,
      "start": 12.8093,
      "duration": 0.1796,
      "velocity": 111,
      "chip": "ym2612"
    },
    {
      "channel": 3,
      "note": 61,
      "start": 12.8131,
      "duration": 0.0922,
      "velocity": 125,
      "chip": "ym2612"
    },
    {
      "channel": 4,
      "note": 56,
      "start": 12.8161,
      "duration": 0.1726,
      "velocity": 83,
      "chip": "ym2612"
    },
    {
      "channel": 2,
      "note": 49,
      "start": 13.0921,
      "duration": 0.1801,
      "velocity": 111,
      "chip": "ym2612"
    },
    {
      "channel": 0,
      "note": 45,
      "start": 13.0947,
      "duration": 0.0273,
      "velocity": 122,
      "chip": "ym2612"
    },
    {
      "channel": 3,
      "note": 47,
      "start": 13.0979,
      "duration": 0.1074,
      "velocity": 125,
      "chip": "ym2612"
    },
    {
      "channel": 1,
      "note": 49,
      "start": 13.1017,
      "duration": 0.1703,
      "velocity": 92,
      "chip": "ym2612"
    },
    {
      "channel": 3,
      "note": 59,
      "start": 13.2424,
      "duration": 0.0629,
      "velocity": 125,
      "chip": "ym2612"
    },
    {
      "channel": 0,
      "note": 45,
      "start": 13.3583,
      "duration": 0.047,
      "velocity": 122,
      "chip": "ym2612"
    },
    {
      "channel": 3,
      "note": 47,
      "start": 13.3615,
      "duration": 0.0938,
      "velocity": 125,
      "chip": "ym2612"
    },
    {
      "channel": 4,
      "note": 73,
      "start": 13.3649,
      "duration": 0.0407,
      "velocity": 83,
      "chip": "ym2612"
    },
    {
      "channel": 1,
      "note": 61,
      "start": 13.3676,
      "duration": 0.021,
      "velocity": 92,
      "chip": "ym2612"
    },
    {
      "channel": 5,
      "note": 49,
      "start": 13.6421,
      "duration": 0.2634,
      "velocity": 125,
      "chip": "ym2612"
    },
    {
      "channel": 3,
      "note": 47,
      "start": 13.645,
      "duration": 0.1104,
      "velocity": 125,
      "chip": "ym2612"
    },
    {
      "channel": 4,
      "note": 73,
      "start": 13.7259,
      "duration": 0.0464,
      "velocity": 83,
      "chip": "ym2612"
    },
    {
      "channel": 1,
      "note": 59,
      "start": 13.7286,
      "duration": 0.0434,
      "velocity": 92,
      "chip": "ym2612"
    },
    {
      "channel": 4,
      "note": 68,
      "start": 13.8256,
      "duration": 0.0464,
      "velocity": 83,
      "chip": "ym2612"
    },
    {
      "channel": 1,
      "note": 56,
      "start": 13.8283,
      "duration": 0.0604,
      "velocity": 92,
      "chip": "ym2612"
    },
    {
      "channel": 2,
      "note": 49,
      "start": 13.9093,
      "duration": 0.0797,
      "velocity": 125,
      "chip": "ym2612"
    },
    {
      "channel": 3,
      "note": 59,
      "start": 13.9125,
      "duration": 0.0928,
      "velocity": 125,
      "chip": "ym2612"
    },
    {
      "channel": 4,
      "note": 66,
      "start": 13.9155,
      "duration": 0.09,
      "velocity": 83,
      "chip": "ym2612"
    },
    {
      "channel": 1,
      "note": 54,
      "start": 13.9181,
      "duration": 0.0705,
      "velocity": 92,
      "chip": "ym2612"
    },
    {
      "channel": 3,
      "note": 47,
      "start": 14.0758,
      "duration": 0.0629,
      "velocity": 125,
      "chip": "ym2612"
    },
    {
      "channel": 0,
      "note": 44,
      "start": 14.1089,
      "duration": 0.0797,
      "velocity": 118,
      "chip": "ym2612"
    },
    {
      "channel": 5,
      "note": 45,
      "start": 14.192,
      "duration": 0.0468,
      "velocity": 122,
      "chip": "ym2612"
    },
    {
      "channel": 3,
      "note": 49,
      "start": 14.1953,
      "duration": 0.11,
      "velocity": 125,
      "chip": "ym2612"
    },
    {
      "channel": 4,
      "note": 47,
      "start": 14.1983,
      "duration": 0.1071,
      "velocity": 83,
      "chip": "ym2612"
    },
    {
      "channel": 1,
      "note": 47,
      "start": 14.2014,
      "duration": 0.1539,
      "velocity": 92,
      "chip": "ym2612"
    },
    {
      "channel": 3,
      "note": 61,
      "start": 14.3593,
      "duration": 0.0462,
      "velocity": 125,
      "chip": "ym2612"
    },
    {
      "channel": 4,
      "note": 46,
      "start": 14.3622,
      "duration": 0.0599,
      "velocity": 83,
      "chip": "ym2612"
    },
    {
      "channel": 1,
      "note": 46,
      "start": 14.365,
      "duration": 0.0569,
      "velocity": 92,
      "chip": "ym2612"
    },
    {
      "channel": 2,
      "note": 49,
      "start": 14.4758,
      "duration": 0.0631,
      "velocity": 125,
      "chip": "ym2612"
    },
    {
      "channel": 3,
      "note": 49,
      "start": 14.4787,
      "duration": 0.11,
      "velocity": 125,
      "chip": "ym2612"
    },
    {
      "channel": 4,
      "note": 47,
      "start": 14.4817,
      "duration": 0.1072,
      "velocity": 83,
      "chip": "ym2612"
    },
    {
      "channel": 1,
      "note": 47,
      "start": 14.4844,
      "duration": 0.1041,
      "velocity": 92,
      "chip": "ym2612"
    },
    {
      "channel": 5,
      "note": 45,
      "start": 14.6253,
      "duration": 0.0468,
      "velocity": 122,
      "chip": "ym2612"
    },
    {
      "channel": 3,
      "note": 61,
      "start": 14.6285,
      "duration": 0.0769,
      "velocity": 125,
      "chip": "ym2612"
    },
    {
      "channel": 4,
      "note": 46,
      "start": 14.6318,
      "duration": 0.1071,
      "velocity": 83,
      "chip": "ym2612"
    },
    {
      "channel": 1,
      "note": 46,
      "start": 14.6344,
      "duration": 0.1043,
      "velocity": 92,
      "chip": "ym2612"
    },
    {
      "channel": 0,
      "note": 51,
      "start": 14.7423,
      "duration": 0.1464,
      "velocity": 111,
      "chip": "ym2612"
    },
    {
      "channel": 2,
      "note": 49,
      "start": 14.7454,
      "duration": 0.2768,
      "velocity": 125,
      "chip": "ym2612"
    },
    {
      "channel": 1,
      "note": 51,
      "start": 14.7486,
      "duration": 0.1402,
      "velocity": 92,
      "chip": "ym2612"
    },
    {
      "channel": 0,
      "note": 50,
      "start": 14.9085,
      "duration": 0.3135,
      "velocity": 111,
      "chip": "ym2612"
    },
    {
      "channel": 5,
      "note": 45,
      "start": 14.9113,
      "duration": 0.0441,
      "velocity": 122,
      "chip": "ym2612"
    },
    {
      "channel": 3,
      "note": 49,
      "start": 14.9146,
      "duration": 0.0574,
      "velocity": 125,
      "chip": "ym2612"
    },
    {
      "channel": 4,
      "note": 50,
      "start": 14.9181,
      "duration": 0.104,
      "velocity": 125,
      "chip": "ym2612"
    },
    {
      "channel": 1,
      "note": 50,
      "start": 14.9212,
      "duration": 0.3009,
      "velocity": 92,
      "chip": "ym2612"
    },
    {
      "channel": 0,
      "note": 49,
      "start": 15.2919,
      "duration": 0.1968,
      "velocity": 111,
      "chip": "ym2612"
    },
    {
      "channel": 5,
      "note": 45,
      "start": 15.2947,
      "duration": 0.0441,
      "velocity": 122,
      "chip": "ym2612"
    },
    {
      "channel": 4,
      "note": 47,
      "start": 15.2978,
      "duration": 0.1075,
      "velocity": 125,
      "chip": "ym2612"
    },
    {
      "channel": 1,
      "note": 49,
      "start": 15.3012,
      "duration": 0.2207,
      "velocity": 92,
      "chip": "ym2612"
    },
    {
      "channel": 4,
      "note": 59,
      "start": 15.4592,
      "duration": 0.063,
      "velocity": 125,
      "chip": "ym2612"
    },
    {
      "channel": 5,
      "note": 45,
      "start": 15.4924,
      "duration": 0.0299,
      "velocity": 122,
      "chip": "ym2612"
    },
    {
      "channel": 5,
      "note": 45,
      "start": 15.5752,
      "duration": 0.047,
      "velocity": 122,
      "chip": "ym2612"
    },
    {
      "channel": 4,
      "note": 47,
      "start": 15.5785,
      "duration": 0.0936,
      "velocity": 125,
      "chip": "ym2612"
    },
    {
      "channel": 3,
      "note": 76,
      "start": 15.5816,
      "duration": 0.0404,
      "velocity": 83,
      "chip": "ym2612"
    },
    {
      "channel": 1,
      "note": 61,
      "start": 15.5843,
      "duration": 0.0044,
      "velocity": 92,
      "chip": "ym2612"
    },
    {
      "channel": 2,
      "note": 49,
      "start": 15.8588,
      "duration": 0.2634,
      "velocity": 125,
      "chip": "ym2612"
    },
    {
      "channel": 4,
      "note": 47,
      "start": 15.8617,
      "duration": 0.1104,
      "velocity": 125,
      "chip": "ym2612"
    },
    {
      "channel": 3,
      "note": 76,
      "start": 15.8647,
      "duration": 0.0074,
      "velocity": 83,
      "chip": "ym2612"
    },
    {
      "channel": 1,
      "note": 61,
      "start": 15.8674,
      "duration": 0.0545,
      "velocity": 92,
      "chip": "ym2612"
    },
    {
      "channel": 3,
      "note": 75,
      "start": 15.9422,
      "duration": 0.0298,
      "velocity": 83,
      "chip": "ym2612"
    },
    {
      "channel": 1,
      "note": 59,
      "start": 15.9449,
      "duration": 0.0438,
      "velocity": 92,
      "chip": "ym2612"
    },
    {
      "channel": 3,
      "note": 71,
      "start": 16.0422,
      "duration": 0.0132,
      "velocity": 83,
      "chip": "ym2612"
    },
    {
      "channel": 1,
      "note": 56,
      "start": 16.0449,
      "duration": 0.077,
      "velocity": 92,
      "chip": "ym2612"
    },
    {
      "channel": 4,
      "note": 49,
      "start": 16.1257,
      "duration": 0.113,
      "velocity": 125,
      "chip": "ym2612"
    },
    {
      "channel": 3,
      "note": 70,
      "start": 16.1286,
      "duration": 0.0934,
      "velocity": 83,
      "chip": "ym2612"
    },
    {
      "channel": 1,
      "note": 54,
      "start": 16.1314,
      "duration": 0.0573,
      "velocity": 92,
      "chip": "ym2612"
    },
    {
      "channel": 0,
      "note": 44,
      "start": 16.3089,
      "duration": 0.413,
      "velocity": 118,
      "chip": "ym2612"
    },
    {
      "channel": 5,
      "note": 45,
      "start": 16.4085,
      "duration": 0.0469,
      "velocity": 122,
      "chip": "ym2612"
    },
    {
      "channel": 4,
      "note": 51,
      "start": 16.4117,
      "duration": 0.1104,
      "velocity": 125,
      "chip": "ym2612"
    },
    {
      "channel": 3,
      "note": 58,
      "start": 16.4145,
      "duration": 0.1577,
      "velocity": 83,
      "chip": "ym2612"
    },
    {
      "channel": 1,
      "note": 46,
      "start": 16.4174,
      "duration": 0.1546,
      "velocity": 92,
      "chip": "ym2612"
    },
    {
      "channel": 4,
      "note": 63,
      "start": 16.5764,
      "duration": 0.0624,
      "velocity": 125,
      "chip": "ym2612"
    },
    {
      "channel": 4,
      "note": 52,
      "start": 16.6926,
      "duration": 0.0962,
      "velocity": 125,
      "chip": "ym2612"
    },
    {
      "channel": 3,
      "note": 54,
      "start": 16.6959,
      "duration": 0.1261,
      "velocity": 83,
      "chip": "ym2612"
    },
    {
      "channel": 1,
      "note": 42,
      "start": 16.6985,
      "duration": 0.1402,
      "velocity": 92,
      "chip": "ym2612"
    },
    {
      "channel": 5,
      "note": 45,
      "start": 16.842,
      "duration": 0.0468,
      "velocity": 122,
      "chip": "ym2612"
    },
    {
      "channel": 3,
      "note": 58,
      "start": 16.8452,
      "duration": 0.1436,
      "velocity": 83,
      "chip": "ym2612"
    },
    {
      "channel": 1,
      "note": 58,
      "start": 16.848,
      "duration": 0.1407,
      "velocity": 92,
      "chip": "ym2612"
    },
    {
      "channel": 2,
      "note": 49,
      "start": 16.9587,
      "duration": 0.2802,
      "velocity": 125,
      "chip": "ym2612"
    },
    {
      "channel": 4,
      "note": 54,
      "start": 16.9615,
      "duration": 0.1105,
      "velocity": 125,
      "chip": "ym2612"
    },
    {
      "channel": 5,
      "note": 45,
      "start": 17.1252,
      "duration": 0.0469,
      "velocity": 122,
      "chip": "ym2612"
    },
    {
      "channel": 0,
      "note": 49,
      "start": 17.1284,
      "duration": 0.1268,
      "velocity": 125,
      "chip": "ym2612"
    },
    {
      "channel": 3,
      "note": 47,
      "start": 17.1315,
      "duration": 0.074,
      "velocity": 83,
      "chip": "ym2612"
    },
    {
      "channel": 1,
      "note": 47,
      "start": 17.1342,
      "duration": 0.0712,
      "velocity": 92,
      "chip": "ym2612"
    },
    {
      "channel": 4,
      "note": 56,
      "start": 17.2426,
      "duration": 0.0628,
      "velocity": 125,
      "chip": "ym2612"
    },
    {
      "channel": 3,
      "note": 59,
      "start": 17.2456,
      "duration": 0.1431,
      "velocity": 83,
      "chip": "ym2612"
    },
    {
      "channel": 1,
      "note": 59,
      "start": 17.2484,
      "duration": 0.1403,
      "velocity": 92,
      "chip": "ym2612"
    },
    {
      "channel": 5,
      "note": 46,
      "start": 17.5091,
      "duration": 0.1464,
      "velocity": 111,
      "chip": "ym2612"
    },
    {
      "channel": 2,
      "note": 45,
      "start": 17.512,
      "duration": 0.0435,
      "velocity": 122,
      "chip": "ym2612"
    },
    {
      "channel": 4,
      "note": 47,
      "start": 17.516,
      "duration": 0.106,
      "velocity": 125,
      "chip": "ym2612"
    },
    {
      "channel": 4,
      "note": 59,
      "start": 17.6762,
      "duration": 0.0459,
      "velocity": 125,
      "chip": "ym2612"
    },
    {
      "channel": 2,
      "note": 45,
      "start": 17.7919,
      "duration": 0.047,
      "velocity": 122,
      "chip": "ym2612"
    },
    {
      "channel": 4,
      "note": 47,
      "start": 17.7952,
      "duration": 0.1102,
      "velocity": 125,
      "chip": "ym2612"
    },
    {
      "channel": 0,
      "note": 78,
      "start": 17.7986,
      "duration": 0.0567,
      "velocity": 85,
      "chip": "ym2612"
    },
    {
      "channel": 1,
      "note": 82,
      "start": 17.8014,
      "duration": 0.054,
      "velocity": 85,
      "chip": "ym2612"
    },
    {
      "channel": 5,
      "note": 47,
      "start": 17.9587,
      "duration": 0.1134,
      "velocity": 111,
      "chip": "ym2612"
    },
    {
      "channel": 3,
      "note": 49,
      "start": 18.0755,
      "duration": 0.2631,
      "velocity": 125,
      "chip": "ym2612"
    },
    {
      "channel": 4,
      "note": 47,
      "start": 18.0783,
      "duration": 0.0938,
      "velocity": 125,
      "chip": "ym2612"
    },
    {
      "channel": 0,
      "note": 78,
      "start": 18.0811,
      "duration": 0.0742,
      "velocity": 85,
      "chip": "ym2612"
    },
    {
      "channel": 1,
      "note": 82,
      "start": 18.0835,
      "duration": 0.0718,
      "velocity": 85,
      "chip": "ym2612"
    },
    {
      "channel": 5,
      "note": 49,
      "start": 18.3421,
      "duration": 0.1301,
      "velocity": 111,
      "chip": "ym2612"
    },
    {
      "channel": 4,
      "note": 59,
      "start": 18.3455,
      "duration": 0.0933,
      "velocity": 125,
      "chip": "ym2612"
    },
    {
      "channel": 4,
      "note": 49,
      "start": 18.5091,
      "duration": 0.113,
      "velocity": 125,
      "chip": "ym2612"
    },
    {
      "channel": 2,
      "note": 49,
      "start": 18.5255,
      "duration": 0.0968,
      "velocity": 118,
      "chip": "ym2612"
    },
    {
      "channel": 0,
      "note": 45,
      "start": 18.6255,
      "duration": 0.0465,
      "velocity": 122,
      "chip": "ym2612"
    },
    {
      "channel": 1,
      "note": 78,
      "start": 18.6286,
      "duration": 0.0767,
      "velocity": 85,
      "chip": "ym2612"
    },
    {
      "channel": 3,
      "note": 82,
      "start": 18.6314,
      "duration": 0.074,
      "velocity": 85,
      "chip": "ym2612"
    },
    {
      "channel": 4,
      "note": 61,
      "start": 18.7757,
      "duration": 0.0464,
      "velocity": 125,
      "chip": "ym2612"
    },
    {
      "channel": 2,
      "note": 81,
      "start": 18.8928,
      "duration": 0.2795,
      "velocity": 104,
      "chip": "ym2612"
    },
    {
      "channel": 0,
      "note": 45,
      "start": 19.0587,
      "duration": 0.0465,
      "velocity": 122,
      "chip": "ym2612"
    },
    {
      "channel": 4,
      "note": 51,
      "start": 19.0623,
      "duration": 0.0432,
      "velocity": 125,
      "chip": "ym2612"
    },
    {
      "channel": 1,
      "note": 78,
      "start": 19.0651,
      "duration": 0.0569,
      "velocity": 85,
      "chip": "ym2612"
    },
    {
      "channel": 3,
      "note": 82,
      "start": 19.068,
      "duration": 0.0541,
      "velocity": 85,
      "chip": "ym2612"
    },
    {
      "channel": 5,
      "note": 49,
      "start": 19.1756,
      "duration": 0.2798,
      "velocity": 125,
      "chip": "ym2612"
    },
    {
      "channel": 4,
      "note": 52,
      "start": 19.1786,
      "duration": 0.0935,
      "velocity": 125,
      "chip": "ym2612"
    },
    {
      "channel": 0,
      "note": 45,
      "start": 19.3417,
      "duration": 0.0302,
      "velocity": 122,
      "chip": "ym2612"
    },
    {
      "channel": 1,
      "note": 49,
      "start": 19.345,
      "duration": 0.127,
      "velocity": 125,
      "chip": "ym2612"
    },
    {
      "channel": 4,
      "note": 64,
      "start": 19.348,
      "duration": 0.0574,
      "velocity": 125,
      "chip": "ym2612"
    },
    {
      "channel": 3,
      "note": 78,
      "start": 19.3507,
      "duration": 0.0546,
      "velocity": 85,
      "chip": "ym2612"
    },
    {
      "channel": 2,
      "note": 82,
      "start": 19.3534,
      "duration": 0.0522,
      "velocity": 85,
      "chip": "ym2612"
    },
    {
      "channel": 4,
      "note": 54,
      "start": 19.459,
      "duration": 0.063,
      "velocity": 125,
      "chip": "ym2612"
    },
    {
      "channel": 3,
      "note": 76,
      "start": 19.462,
      "duration": 0.1268,
      "velocity": 85,
      "chip": "ym2612"
    },
    {
      "channel": 2,
      "note": 80,
      "start": 19.4647,
      "duration": 0.1243,
      "velocity": 85,
      "chip": "ym2612"
    },
    {
      "channel": 4,
      "note": 66,
      "start": 19.6093,
      "duration": 0.0962,
      "velocity": 125,
      "chip": "ym2612"
    },
    {
      "channel": 0,
      "note": 47,
      "start": 19.7255,
      "duration": 0.1132,
      "velocity": 111,
      "chip": "ym2612"
    },
    {
      "channel": 5,
      "note": 45,
      "start": 19.7284,
      "duration": 0.0437,
      "velocity": 122,
      "chip": "ym2612"
    },
    {
      "channel": 4,
      "note": 47,
      "start": 19.7316,
      "duration": 0.1072,
      "velocity": 125,
      "chip": "ym2612"
    },
    {
      "channel": 4,
      "note": 59,
      "start": 19.8929,
      "duration": 0.0458,
      "velocity": 125,
      "chip": "ym2612"
    },
    {
      "channel": 5,
      "note": 45,
      "start": 19.9086,
      "duration": 0.0469,
      "velocity": 122,
      "chip": "ym2612"
    },
    {
      "channel": 5,
      "note": 45,
      "start": 20.0085,
      "duration": 0.0469,
      "velocity": 122,
      "chip": "ym2612"
    },
    {
      "channel": 4,
      "note": 47,
      "start": 20.0119,
      "duration": 0.1102,
      "velocity": 125,
      "chip": "ym2612"
    },
    {
      "channel": 3,
      "note": 78,
      "start": 20.0148,
      "duration": 0.0572,
      "velocity": 85,
      "chip": "ym2612"
    },
    {
      "channel": 2,
      "note": 82,
      "start": 20.0181,
      "duration": 0.0376,
      "velocity": 85,
      "chip": "ym2612"
    },
    {
      "channel": 0,
      "note": 54,
      "start": 20.1584,
      "duration": 0.0968,
      "velocity": 111,
      "chip": "ym2612"
    },
    {
      "channel": 1,
      "note": 49,
      "start": 20.2754,
      "duration": 0.2799,
      "velocity": 125,
      "chip": "ym2612"
    },
    {
      "channel": 4,
      "note": 47,
      "start": 20.2781,
      "duration": 0.1107,
      "velocity": 125,
      "chip": "ym2612"
    },
    {
      "channel": 3,
      "note": 78,
      "start": 20.2811,
      "duration": 0.1076,
      "velocity": 85,
      "chip": "ym2612"
    },
    {
      "channel": 2,
      "note": 82,
      "start": 20.2838,
      "duration": 0.1052,
      "velocity": 85,
      "chip": "ym2612"
    },
    {
      "channel": 0,
      "note": 49,
      "start": 20.5585,
      "duration": 0.1634,
      "velocity": 111,
      "chip": "ym2612"
    },
    {
      "channel": 4,
      "note": 59,
      "start": 20.562,
      "duration": 0.0935,
      "velocity": 125,
      "chip": "ym2612"
    },
    {
      "channel": 4,
      "note": 49,
      "start": 20.7259,
      "duration": 0.1128,
      "velocity": 125,
      "chip": "ym2612"
    },
    {
      "channel": 5,
      "note": 44,
      "start": 20.7421,
      "duration": 0.18,
      "velocity": 118,
      "chip": "ym2612"
    },
    {
      "channel": 3,
      "note": 45,
      "start": 20.8421,
      "duration": 0.0298,
      "velocity": 122,
      "chip": "ym2612"
    },
    {
      "channel": 2,
      "note": 82,
      "start": 20.8454,
      "duration": 0.1102,
      "velocity": 85,
      "chip": "ym2612"
    },
    {
      "channel": 1,
      "note": 78,
      "start": 20.8482,
      "duration": 0.1072,
      "velocity": 85,
      "chip": "ym2612"
    },
    {
      "channel": 0,
      "note": 49,
      "start": 20.9926,
      "duration": 0.0627,
      "velocity": 125,
      "chip": "ym2612"
    },
    {
      "channel": 4,
      "note": 61,
      "start": 20.9954,
      "duration": 0.0433,
      "velocity": 125,
      "chip": "ym2612"
    },
    {
      "channel": 2,
      "note": 81,
      "start": 21.109,
      "duration": 0.2465,
      "velocity": 104,
      "chip": "ym2612"
    },
    {
      "channel": 3,
      "note": 45,
      "start": 21.2751,
      "duration": 0.047,
      "velocity": 122,
      "chip": "ym2612"
    },
    {
      "channel": 4,
      "note": 51,
      "start": 21.2782,
      "duration": 0.044,
      "velocity": 125,
      "chip": "ym2612"
    },
    {
      "channel": 1,
      "note": 78,
      "start": 21.2809,
      "duration": 0.1077,
      "velocity": 85,
      "chip": "ym2612"
    },
    {
      "channel": 5,
      "note": 82,
      "start": 21.2838,
      "duration": 0.055,
      "velocity": 85,
      "chip": "ym2612"
    },
    {
      "channel": 0,
      "note": 49,
      "start": 21.3922,
      "duration": 0.263,
      "velocity": 125,
      "chip": "ym2612"
    },
    {
      "channel": 4,
      "note": 52,
      "start": 21.3956,
      "duration": 0.0765,
      "velocity": 125,
      "chip": "ym2612"
    },
    {
      "channel": 3,
      "note": 45,
      "start": 21.5584,
      "duration": 0.0302,
      "velocity": 122,
      "chip": "ym2612"
    },
    {
      "channel": 5,
      "note": 49,
      "start": 21.5622,
      "duration": 0.0602,
      "velocity": 125,
      "chip": "ym2612"
    },
    {
      "channel": 4,
      "note": 64,
      "start": 21.5651,
      "duration": 0.0571,
      "velocity": 125,
      "chip": "ym2612"
    },
    {
      "channel": 1,
      "note": 78,
      "start": 21.5681,
      "duration": 0.0539,
      "velocity": 85,
      "chip": "ym2612"
    },
    {
      "channel": 2,
      "note": 82,
      "start": 21.571,
      "duration": 0.0515,
      "velocity": 85,
      "chip": "ym2612"
    },
    {
      "channel": 4,
      "note": 54,
      "start": 21.659,
      "duration": 0.0796,
      "velocity": 125,
      "chip": "ym2612"
    },
    {
      "channel": 1,
      "note": 80,
      "start": 21.6619,
      "duration": 0.1101,
      "velocity": 85,
      "chip": "ym2612"
    },
    {
      "channel": 2,
      "note": 83,
      "start": 21.6648,
      "duration": 0.0907,
      "velocity": 85,
      "chip": "ym2612"
    },
    {
      "channel": 4,
      "note": 66,
      "start": 21.8259,
      "duration": 0.0962,
      "velocity": 125,
      "chip": "ym2612"
    },
    {
      "channel": 3,
      "note": 47,
      "start": 21.9423,
      "duration": 0.163,
      "velocity": 111,
      "chip": "ym2612"
    },
    {
      "channel": 5,
      "note": 45,
      "start": 21.9456,
      "duration": 0.0432,
      "velocity": 122,
      "chip": "ym2612"
    },
    {
      "channel": 4,
      "note": 47,
      "start": 21.9489,
      "duration": 0.1066,
      "velocity": 125,
      "chip": "ym2612"
    },
    {
      "channel": 4,
      "note": 59,
      "start": 22.1097,
      "duration": 0.029,
      "velocity": 125,
      "chip": "ym2612"
    },
    {
      "channel": 5,
      "note": 45,
      "start": 22.2253,
      "duration": 0.0302,
      "velocity": 122,
      "chip": "ym2612"
    },
    {
      "channel": 4,
      "note": 47,
      "start": 22.2286,
      "duration": 0.1101,
      "velocity": 125,
      "chip": "ym2612"
    },
    {
      "channel": 1,
      "note": 78,
      "start": 22.2314,
      "duration": 0.0573,
      "velocity": 85,
      "chip": "ym2612"
    },
    {
      "channel": 2,
      "note": 82,
      "start": 22.2342,
      "duration": 0.0548,
      "velocity": 85,
      "chip": "ym2612"
    },
    {
      "channel": 3,
      "note": 48,
      "start": 22.3752,
      "duration": 0.1135,
      "velocity": 111,
      "chip": "ym2612"
    },
    {
      "channel": 0,
      "note": 49,
      "start": 22.4919,
      "duration": 0.28,
      "velocity": 125,
      "chip": "ym2612"
    },
    {
      "channel": 4,
      "note": 47,
      "start": 22.4947,
      "duration": 0.1107,
      "velocity": 125,
      "chip": "ym2612"
    },
    {
      "channel": 1,
      "note": 78,
      "start": 22.4979,
      "duration": 0.0907,
      "velocity": 85,
      "chip": "ym2612"
    },
    {
      "channel": 2,
      "note": 82,
      "start": 22.5007,
      "duration": 0.0882,
      "velocity": 85,
      "chip": "ym2612"
    },
    {
      "channel": 3,
      "note": 49,
      "start": 22.7754,
      "duration": 0.08,
      "velocity": 111,
      "chip": "ym2612"
    },
    {
      "channel": 4,
      "note": 59,
      "start": 22.7788,
      "duration": 0.0766,
      "velocity": 125,
      "chip": "ym2612"
    },
    {
      "channel": 4,
      "note": 49,
      "start": 22.9425,
      "duration": 0.0962,
      "velocity": 125,
      "chip": "ym2612"
    },
    {
      "channel": 5,
      "note": 49,
      "start": 22.9589,
      "duration": 0.08,
      "velocity": 118,
      "chip": "ym2612"
    },
    {
      "channel": 1,
      "note": 45,
      "start": 23.0422,
      "duration": 0.0464,
      "velocity": 122,
      "chip": "ym2612"
    },
    {
      "channel": 2,
      "note": 78,
      "start": 23.0457,
      "duration": 0.1098,
      "velocity": 85,
      "chip": "ym2612"
    },
    {
      "channel": 0,
      "note": 82,
      "start": 23.0486,
      "duration": 0.09,
      "velocity": 85,
      "chip": "ym2612"
    },
    {
      "channel": 4,
      "note": 61,
      "start": 23.209,
      "duration": 0.0463,
      "velocity": 125,
      "chip": "ym2612"
    },
    {
      "channel": 2,
      "note": 81,
      "start": 23.3259,
      "duration": 0.2796,
      "velocity": 104,
      "chip": "ym2612"
    },
    {
      "channel": 1,
      "note": 45,
      "start": 23.4918,
      "duration": 0.0469,
      "velocity": 122,
      "chip": "ym2612"
    },
    {
      "channel": 4,
      "note": 51,
      "start": 23.4949,
      "duration": 0.044,
      "velocity": 125,
      "chip": "ym2612"
    },
    {
      "channel": 0,
      "note": 82,
      "start": 23.4975,
      "duration": 0.0744,
      "velocity": 85,
      "chip": "ym2612"
    },
    {
      "channel": 3,
      "note": 78,
      "start": 23.5003,
      "duration": 0.0717,
      "velocity": 85,
      "chip": "ym2612"
    },
    {
      "channel": 5,
      "note": 61,
      "start": 23.6089,
      "duration": 0.0632,
      "velocity": 111,
      "chip": "ym2612"
    },
    {
      "channel": 1,
      "note": 49,
      "start": 23.6119,
      "duration": 0.2601,
      "velocity": 125,
      "chip": "ym2612"
    },
    {
      "channel": 4,
      "note": 52,
      "start": 23.6154,
      "duration": 0.0734,
      "velocity": 125,
      "chip": "ym2612"
    },
    {
      "channel": 5,
      "note": 59,
      "start": 23.6918,
      "duration": 0.0636,
      "velocity": 111,
      "chip": "ym2612"
    },
    {
      "channel": 0,
      "note": 45,
      "start": 23.7587,
      "duration": 0.0466,
      "velocity": 122,
      "chip": "ym2612"
    },
    {
      "channel": 4,
      "note": 64,
      "start": 23.762,
      "duration": 0.0601,
      "velocity": 125,
      "chip": "ym2612"
    },
    {
      "channel": 3,
      "note": 78,
      "start": 23.7648,
      "duration": 0.0571,
      "velocity": 85,
      "chip": "ym2612"
    },
    {
      "channel": 2,
      "note": 82,
      "start": 23.7681,
      "duration": 0.0874,
      "velocity": 85,
      "chip": "ym2612"
    },
    {
      "channel": 5,
      "note": 54,
      "start": 23.7917,
      "duration": 0.0637,
      "velocity": 111,
      "chip": "ym2612"
    },
    {
      "channel": 5,
      "note": 52,
      "start": 23.8755,
      "duration": 0.1133,
      "velocity": 111,
      "chip": "ym2612"
    },
    {
      "channel": 4,
      "note": 54,
      "start": 23.8788,
      "duration": 0.06,
      "velocity": 125,
      "chip": "ym2612"
    },
    {
      "channel": 3,
      "note": 76,
      "start": 23.8816,
      "duration": 0.1405,
      "velocity": 85,
      "chip": "ym2612"
    },
    {
      "channel": 2,
      "note": 80,
      "start": 23.8846,
      "duration": 0.1044,
      "velocity": 85,
      "chip": "ym2612"
    },
    {
      "channel": 5,
      "note": 49,
      "start": 24.0424,
      "duration": 0.0798,
      "velocity": 111,
      "chip": "ym2612"
    },
    {
      "channel": 4,
      "note": 66,
      "start": 24.0458,
      "duration": 0.0763,
      "velocity": 125,
      "chip": "ym2612"
    },
    {
      "channel": 5,
      "note": 47,
      "start": 24.1587,
      "duration": 0.1302,
      "velocity": 111,
      "chip": "ym2612"
    },
    {
      "channel": 0,
      "note": 45,
      "start": 24.1612,
      "duration": 0.0441,
      "velocity": 122,
      "chip": "ym2612"
    },
    {
      "channel": 4,
      "note": 47,
      "start": 24.1645,
      "duration": 0.1076,
      "velocity": 125,
      "chip": "ym2612"
    },
    {
      "channel": 4,
      "note": 59,
      "start": 24.3258,
      "duration": 0.0296,
      "velocity": 125,
      "chip": "ym2612"
    },
    {
      "channel": 0,
      "note": 45,
      "start": 24.3416,
      "duration": 0.047,
      "velocity": 122,
      "chip": "ym2612"
    },
    {
      "channel": 0,
      "note": 45,
      "start": 24.425,
      "duration": 0.0469,
      "velocity": 122,
      "chip": "ym2612"
    },
    {
      "channel": 4,
      "note": 47,
      "start": 24.4287,
      "duration": 0.11,
      "velocity": 125,
      "chip": "ym2612"
    },
    {
      "channel": 3,
      "note": 78,
      "start": 24.4316,
      "duration": 0.0738,
      "velocity": 85,
      "chip": "ym2612"
    },
    {
      "channel": 2,
      "note": 82,
      "start": 24.4344,
      "duration": 0.0712,
      "velocity": 85,
      "chip": "ym2612"
    },
    {
      "channel": 5,
      "note": 48,
      "start": 24.5921,
      "duration": 0.0967,
      "velocity": 111,
      "chip": "ym2612"
    },
    {
      "channel": 1,
      "note": 49,
      "start": 24.7087,
      "duration": 0.28,
      "velocity": 125,
      "chip": "ym2612"
    },
    {
      "channel": 4,
      "note": 47,
      "start": 24.7115,
      "duration": 0.1106,
      "velocity": 125,
      "chip": "ym2612"
    },
    {
      "channel": 3,
      "note": 78,
      "start": 24.7147,
      "duration": 0.0906,
      "velocity": 85,
      "chip": "ym2612"
    },
    {
      "channel": 2,
      "note": 82,
      "start": 24.7176,
      "duration": 0.0879,
      "velocity": 85,
      "chip": "ym2612"
    },
    {
      "channel": 5,
      "note": 49,
      "start": 24.9921,
      "duration": 0.13,
      "velocity": 111,
      "chip": "ym2612"
    },
    {
      "channel": 4,
      "note": 59,
      "start": 24.9956,
      "duration": 0.0765,
      "velocity": 125,
      "chip": "ym2612"
    },
    {
      "channel": 4,
      "note": 49,
      "start": 25.1424,
      "duration": 0.1129,
      "velocity": 125,
      "chip": "ym2612"
    },
    {
      "channel": 0,
      "note": 40,
      "start": 25.1755,
      "duration": 0.1132,
      "velocity": 118,
      "chip": "ym2612"
    },
    {
      "channel": 5,
      "note": 61,
      "start": 25.2587,
      "duration": 0.1635,
      "velocity": 111,
      "chip": "ym2612"
    },
    {
      "channel": 3,
      "note": 45,
      "start": 25.262,
      "duration": 0.0434,
      "velocity": 122,
      "chip": "ym2612"
    },
    {
      "channel": 2,
      "note": 73,
      "start": 25.2655,
      "duration": 0.0566,
      "velocity": 83,
      "chip": "ym2612"
    },
    {
      "channel": 1,
      "note": 61,
      "start": 25.2694,
      "duration": 0.1526,
      "velocity": 105,
      "chip": "ym2612"
    },
    {
      "channel": 5,
      "note": 54,
      "start": 25.4259,
      "duration": 0.3629,
      "velocity": 111,
      "chip": "ym2612"
    },
    {
      "channel": 2,
      "note": 54,
      "start": 25.43,
      "duration": 0.2423,
      "velocity": 83,
      "chip": "ym2612"
    },
    {
      "channel": 1,
      "note": 54,
      "start": 25.4332,
      "duration": 0.3389,
      "velocity": 105,
      "chip": "ym2612"
    },
    {
      "channel": 3,
      "note": 49,
      "start": 25.5417,
      "duration": 0.0469,
      "velocity": 122,
      "chip": "ym2612"
    },
    {
      "channel": 3,
      "note": 49,
      "start": 25.625,
      "duration": 0.0471,
      "velocity": 122,
      "chip": "ym2612"
    },
    {
      "channel": 3,
      "note": 49,
      "start": 25.7251,
      "duration": 0.0471,
      "velocity": 122,
      "chip": "ym2612"
    },
    {
      "channel": 5,
      "note": 59,
      "start": 25.8253,
      "duration": 0.1302,
      "velocity": 111,
      "chip": "ym2612"
    },
    {
      "channel": 2,
      "note": 71,
      "start": 25.829,
      "duration": 0.0599,
      "velocity": 83,
      "chip": "ym2612"
    },
    {
      "channel": 1,
      "note": 59,
      "start": 25.8322,
      "duration": 0.0898,
      "velocity": 105,
      "chip": "ym2612"
    },
    {
      "channel": 5,
      "note": 52,
      "start": 25.9754,
      "duration": 0.3468,
      "velocity": 111,
      "chip": "ym2612"
    },
    {
      "channel": 3,
      "note": 45,
      "start": 25.9781,
      "duration": 0.0439,
      "velocity": 122,
      "chip": "ym2612"
    },
    {
      "channel": 2,
      "note": 52,
      "start": 25.9818,
      "duration": 0.2737,
      "velocity": 83,
      "chip": "ym2612"
    },
    {
      "channel": 1,
      "note": 40,
      "start": 25.985,
      "duration": 0.3369,
      "velocity": 105,
      "chip": "ym2612"
    },
    {
      "channel": 4,
      "note": 49,
      "start": 26.0935,
      "duration": 0.0451,
      "velocity": 125,
      "chip": "ym2612"
    },
    {
      "channel": 4,
      "note": 49,
      "start": 26.1928,
      "duration": 0.0293,
      "velocity": 125,
      "chip": "ym2612"
    },
    {
      "channel": 4,
      "note": 49,
      "start": 26.2764,
      "duration": 0.0457,
      "velocity": 125,
      "chip": "ym2612"
    },
    {
      "channel": 5,
      "note": 49,
      "start": 26.3753,
      "duration": 0.1302,
      "velocity": 111,
      "chip": "ym2612"
    },
    {
      "channel": 3,
      "note": 45,
      "start": 26.378,
      "duration": 0.0273,
      "velocity": 122,
      "chip": "ym2612"
    },
    {
      "channel": 0,
      "note": 47,
      "start": 26.3824,
      "duration": 0.1062,
      "velocity": 125,
      "chip": "ym2612"
    },
    {
      "channel": 0,
      "note": 59,
      "start": 26.5256,
      "duration": 0.0963,
      "velocity": 125,
      "chip": "ym2612"
    },
    {
      "channel": 3,
      "note": 45,
      "start": 26.6417,
      "duration": 0.047,
      "velocity": 122,
      "chip": "ym2612"
    },
    {
      "channel": 0,
      "note": 47,
      "start": 26.6451,
      "duration": 0.0934,
      "velocity": 125,
      "chip": "ym2612"
    },
    {
      "channel": 2,
      "note": 61,
      "start": 26.6484,
      "duration": 0.0239,
      "velocity": 92,
      "chip": "ym2612"
    },
    {
      "channel": 1,
      "note": 64,
      "start": 26.6517,
      "duration": 0.1703,
      "velocity": 107,
      "chip": "ym2612"
    },
    {
      "channel": 4,
      "note": 49,
      "start": 26.9256,
      "duration": 0.2799,
      "velocity": 125,
      "chip": "ym2612"
    },
    {
      "channel": 0,
      "note": 47,
      "start": 26.9283,
      "duration": 0.1103,
      "velocity": 125,
      "chip": "ym2612"
    },
    {
      "channel": 1,
      "note": 65,
      "start": 26.9316,
      "duration": 0.1238,
      "velocity": 107,
      "chip": "ym2612"
    },
    {
      "channel": 2,
      "note": 59,
      "start": 27.0096,
      "duration": 0.0792,
      "velocity": 92,
      "chip": "ym2612"
    },
    {
      "channel": 2,
      "note": 56,
      "start": 27.1094,
      "duration": 0.0962,
      "velocity": 92,
      "chip": "ym2612"
    },
    {
      "channel": 0,
      "note": 59,
      "start": 27.2093,
      "duration": 0.0793,
      "velocity": 125,
      "chip": "ym2612"
    },
    {
      "channel": 2,
      "note": 54,
      "start": 27.2129,
      "duration": 0.0592,
      "velocity": 92,
      "chip": "ym2612"
    },
    {
      "channel": 1,
      "note": 76,
      "start": 27.216,
      "duration": 0.0893,
      "velocity": 107,
      "chip": "ym2612"
    },
    {
      "channel": 5,
      "note": 71,
      "start": 27.2192,
      "duration": 0.0697,
      "velocity": 107,
      "chip": "ym2612"
    },
    {
      "channel": 0,
      "note": 49,
      "start": 27.359,
      "duration": 0.1129,
      "velocity": 125,
      "chip": "ym2612"
    },
    {
      "channel": 3,
      "note": 44,
      "start": 27.3921,
      "duration": 0.08,
      "velocity": 118,
      "chip": "ym2612"
    },
    {
      "channel": 4,
      "note": 52,
      "start": 27.4756,
      "duration": 0.0466,
      "velocity": 111,
      "chip": "ym2612"
    },
    {
      "channel": 2,
      "note": 45,
      "start": 27.4785,
      "duration": 0.0439,
      "velocity": 122,
      "chip": "ym2612"
    },
    {
      "channel": 0,
      "note": 61,
      "start": 27.4816,
      "duration": 0.0403,
      "velocity": 125,
      "chip": "ym2612"
    },
    {
      "channel": 5,
      "note": 40,
      "start": 27.4847,
      "duration": 0.0376,
      "velocity": 92,
      "chip": "ym2612"
    },
    {
      "channel": 1,
      "note": 73,
      "start": 27.4879,
      "duration": 0.1508,
      "velocity": 107,
      "chip": "ym2612"
    },
    {
      "channel": 3,
      "note": 68,
      "start": 27.4911,
      "duration": 0.1142,
      "velocity": 107,
      "chip": "ym2612"
    },
    {
      "channel": 4,
      "note": 52,
      "start": 27.7584,
      "duration": 0.0637,
      "velocity": 111,
      "chip": "ym2612"
    },
    {
      "channel": 0,
      "note": 61,
      "start": 27.7615,
      "duration": 0.0604,
      "velocity": 125,
      "chip": "ym2612"
    },
    {
      "channel": 5,
      "note": 40,
      "start": 27.7645,
      "duration": 0.0578,
      "velocity": 92,
      "chip": "ym2612"
    },
    {
      "channel": 1,
      "note": 58,
      "start": 27.768,
      "duration": 0.0707,
      "velocity": 107,
      "chip": "ym2612"
    },
    {
      "channel": 2,
      "note": 45,
      "start": 27.9087,
      "duration": 0.0468,
      "velocity": 122,
      "chip": "ym2612"
    },
    {
      "channel": 1,
      "note": 71,
      "start": 27.9125,
      "duration": 0.1094,
      "velocity": 107,
      "chip": "ym2612"
    },
    {
      "channel": 3,
      "note": 66,
      "start": 27.9156,
      "duration": 0.1397,
      "velocity": 107,
      "chip": "ym2612"
    },
    {
      "channel": 4,
      "note": 52,
      "start": 28.0257,
      "duration": 0.1464,
      "velocity": 111,
      "chip": "ym2612"
    },
    {
      "channel": 0,
      "note": 49,
      "start": 28.0286,
      "duration": 0.2766,
      "velocity": 125,
      "chip": "ym2612"
    },
    {
      "channel": 5,
      "note": 61,
      "start": 28.0315,
      "duration": 0.0573,
      "velocity": 125,
      "chip": "ym2612"
    },
    {
      "channel": 2,
      "note": 40,
      "start": 28.0348,
      "duration": 0.1375,
      "velocity": 92,
      "chip": "ym2612"
    },
    {
      "channel": 4,
      "note": 54,
      "start": 28.192,
      "duration": 0.3134,
      "velocity": 111,
      "chip": "ym2612"
    },
    {
      "channel": 1,
      "note": 45,
      "start": 28.1952,
      "duration": 0.0434,
      "velocity": 122,
      "chip": "ym2612"
    },
    {
      "channel": 2,
      "note": 42,
      "start": 28.1989,
      "duration": 0.3067,
      "velocity": 92,
      "chip": "ym2612"
    },
    {
      "channel": 3,
      "note": 57,
      "start": 28.2021,
      "duration": 0.0032,
      "velocity": 107,
      "chip": "ym2612"
    },
    {
      "channel": 5,
      "note": 49,
      "start": 28.3097,
      "duration": 0.1124,
      "velocity": 125,
      "chip": "ym2612"
    },
    {
      "channel": 3,
      "note": 64,
      "start": 28.3132,
      "duration": 0.1754,
      "velocity": 107,
      "chip": "ym2612"
    },
    {
      "channel": 1,
      "note": 49,
      "start": 28.4759,
      "duration": 0.0628,
      "velocity": 125,
      "chip": "ym2612"
    },
    {
      "channel": 5,
      "note": 61,
      "start": 28.479,
      "duration": 0.0767,
      "velocity": 125,
      "chip": "ym2612"
    },
    {
      "channel": 0,
      "note": 65,
      "start": 28.4829,
      "duration": 0.0724,
      "velocity": 107,
      "chip": "ym2612"
    },
    {
      "channel": 4,
      "note": 49,
      "start": 28.5919,
      "duration": 0.1801,
      "velocity": 111,
      "chip": "ym2612"
    },
    {
      "channel": 3,
      "note": 45,
      "start": 28.5949,
      "duration": 0.0271,
      "velocity": 122,
      "chip": "ym2612"
    },
    {
      "channel": 5,
      "note": 47,
      "start": 28.598,
      "duration": 0.0741,
      "velocity": 125,
      "chip": "ym2612"
    },
    {
      "channel": 2,
      "note": 49,
      "start": 28.6012,
      "duration": 0.171,
      "velocity": 92,
      "chip": "ym2612"
    },
    {
      "channel": 5,
      "note": 59,
      "start": 28.7426,
      "duration": 0.063,
      "velocity": 125,
      "chip": "ym2612"
    },
    {
      "channel": 3,
      "note": 45,
      "start": 28.7753,
      "duration": 0.0302,
      "velocity": 122,
      "chip": "ym2612"
    },
    {
      "channel": 3,
      "note": 45,
      "start": 28.8585,
      "duration": 0.0469,
      "velocity": 122,
      "chip": "ym2612"
    },
    {
      "channel": 5,
      "note": 47,
      "start": 28.8618,
      "duration": 0.0936,
      "velocity": 125,
      "chip": "ym2612"
    },
    {
      "channel": 2,
      "note": 61,
      "start": 28.8654,
      "duration": 0.0235,
      "velocity": 92,
      "chip": "ym2612"
    },
    {
      "channel": 0,
      "note": 71,
      "start": 28.8685,
      "duration": 0.0536,
      "velocity": 107,
      "chip": "ym2612"
    },
    {
      "channel": 1,
      "note": 76,
      "start": 28.8716,
      "duration": 0.0506,
      "velocity": 107,
      "chip": "ym2612"
    },
    {
      "channel": 4,
      "note": 49,
      "start": 29.142,
      "duration": 0.2634,
      "velocity": 125,
      "chip": "ym2612"
    },
    {
      "channel": 5,
      "note": 47,
      "start": 29.145,
      "duration": 0.1104,
      "velocity": 125,
      "chip": "ym2612"
    },
    {
      "channel": 0,
      "note": 68,
      "start": 29.1484,
      "duration": 0.1235,
      "velocity": 107,
      "chip": "ym2612"
    },
    {
      "channel": 1,
      "note": 73,
      "start": 29.1514,
      "duration": 0.054,
      "velocity": 107,
      "chip": "ym2612"
    },
    {
      "channel": 2,
      "note": 59,
      "start": 29.2263,
      "duration": 0.0459,
      "velocity": 92,
      "chip": "ym2612"
    },
    {
      "channel": 2,
      "note": 56,
      "start": 29.3262,
      "duration": 0.0794,
      "velocity": 92,
      "chip": "ym2612"
    },
    {
      "channel": 5,
      "note": 59,
      "start": 29.4096,
      "duration": 0.0959,
      "velocity": 125,
      "chip": "ym2612"
    },
    {
      "channel": 2,
      "note": 54,
      "start": 29.4128,
      "duration": 0.076,
      "velocity": 92,
      "chip": "ym2612"
    },
    {
      "channel": 0,
      "note": 52,
      "start": 29.4157,
      "duration": 0.1562,
      "velocity": 107,
      "chip": "ym2612"
    },
    {
      "channel": 3,
      "note": 44,
      "start": 29.5926,
      "duration": 0.3961,
      "velocity": 118,
      "chip": "ym2612"
    },
    {
      "channel": 1,
      "note": 56,
      "start": 29.6921,
      "duration": 0.1298,
      "velocity": 111,
      "chip": "ym2612"
    },
    {
      "channel": 4,
      "note": 45,
      "start": 29.695,
      "duration": 0.0438,
      "velocity": 122,
      "chip": "ym2612"
    },
    {
      "channel": 5,
      "note": 49,
      "start": 29.6982,
      "duration": 0.1074,
      "velocity": 125,
      "chip": "ym2612"
    },
    {
      "channel": 0,
      "note": 71,
      "start": 29.7017,
      "duration": 0.1536,
      "velocity": 107,
      "chip": "ym2612"
    },
    {
      "channel": 2,
      "note": 66,
      "start": 29.7049,
      "duration": 0.1507,
      "velocity": 107,
      "chip": "ym2612"
    },
    {
      "channel": 1,
      "note": 54,
      "start": 29.8587,
      "duration": 0.0798,
      "velocity": 111,
      "chip": "ym2612"
    },
    {
      "channel": 1,
      "note": 59,
      "start": 29.9756,
      "duration": 0.1131,
      "velocity": 111,
      "chip": "ym2612"
    },
    {
      "channel": 5,
      "note": 61,
      "start": 29.9791,
      "duration": 0.0763,
      "velocity": 125,
      "chip": "ym2612"
    },
    {
      "channel": 0,
      "note": 53,
      "start": 29.9824,
      "duration": 0.0229,
      "velocity": 107,
      "chip": "ym2612"
    },
    {
      "channel": 1,
      "note": 54,
      "start": 30.1251,
      "duration": 0.1137,
      "velocity": 111,
      "chip": "ym2612"
    },
    {
      "channel": 4,
      "note": 45,
      "start": 30.1278,
      "duration": 0.0444,
      "velocity": 122,
      "chip": "ym2612"
    },
    {
      "channel": 5,
      "note": 49,
      "start": 30.1311,
      "duration": 0.1079,
      "velocity": 125,
      "chip": "ym2612"
    },
    {
      "channel": 0,
      "note": 68,
      "start": 30.1356,
      "duration": 0.1531,
      "velocity": 107,
      "chip": "ym2612"
    },
    {
      "channel": 2,
      "note": 64,
      "start": 30.139,
      "duration": 0.1666,
      "velocity": 107,
      "chip": "ym2612"
    },
    {
      "channel": 3,
      "note": 49,
      "start": 30.2424,
      "duration": 0.2797,
      "velocity": 125,
      "chip": "ym2612"
    },
    {
      "channel": 1,
      "note": 55,
      "start": 30.4086,
      "duration": 0.0636,
      "velocity": 111,
      "chip": "ym2612"
    },
    {
      "channel": 4,
      "note": 45,
      "start": 30.4113,
      "duration": 0.0442,
      "velocity": 122,
      "chip": "ym2612"
    },
    {
      "channel": 5,
      "note": 49,
      "start": 30.4145,
      "duration": 0.1078,
      "velocity": 125,
      "chip": "ym2612"
    },
    {
      "channel": 0,
      "note": 57,
      "start": 30.4183,
      "duration": 0.0704,
      "velocity": 107,
      "chip": "ym2612"
    },
    {
      "channel": 1,
      "note": 56,
      "start": 30.5254,
      "duration": 0.18,
      "velocity": 111,
      "chip": "ym2612"
    },
    {
      "channel": 5,
      "note": 61,
      "start": 30.5289,
      "duration": 0.0767,
      "velocity": 125,
      "chip": "ym2612"
    },
    {
      "channel": 0,
      "note": 65,
      "start": 30.5323,
      "duration": 0.2396,
      "velocity": 107,
      "chip": "ym2612"
    },
    {
      "channel": 2,
      "note": 60,
      "start": 30.5357,
      "duration": 0.1865,
      "velocity": 107,
      "chip": "ym2612"
    },
    {
      "channel": 1,
      "note": 49,
      "start": 30.7919,
      "duration": 0.1801,
      "velocity": 111,
      "chip": "ym2612"
    },
    {
      "channel": 4,
      "note": 45,
      "start": 30.7946,
      "duration": 0.0441,
      "velocity": 122,
      "chip": "ym2612"
    },
    {
      "channel": 5,
      "note": 47,
      "start": 30.7984,
      "duration": 0.1071,
      "velocity": 125,
      "chip": "ym2612"
    },
    {
      "channel": 3,
      "note": 49,
      "start": 30.8016,
      "duration": 0.2204,
      "velocity": 92,
      "chip": "ym2612"
    },
    {
      "channel": 5,
      "note": 59,
      "start": 30.9592,
      "duration": 0.063,
      "velocity": 125,
      "chip": "ym2612"
    },
    {
      "channel": 4,
      "note": 45,
      "start": 31.0755,
      "duration": 0.0466,
      "velocity": 122,
      "chip": "ym2612"
    },
    {
      "channel": 5,
      "note": 47,
      "start": 31.0788,
      "duration": 0.0933,
      "velocity": 125,
      "chip": "ym2612"
    },
    {
      "channel": 3,
      "note": 61,
      "start": 31.0818,
      "duration": 0.0077,
      "velocity": 92,
      "chip": "ym2612"
    },
    {
      "channel": 0,
      "note": 76,
      "start": 31.0848,
      "duration": 0.1205,
      "velocity": 107,
      "chip": "ym2612"
    },
    {
      "channel": 2,
      "note": 67,
      "start": 31.0881,
      "duration": 0.1008,
      "velocity": 107,
      "chip": "ym2612"
    },
    {
      "channel": 1,
      "note": 49,
      "start": 31.3587,
      "duration": 0.2633,
      "velocity": 125,
      "chip": "ym2612"
    },
    {
      "channel": 5,
      "note": 47,
      "start": 31.3617,
      "duration": 0.1106,
      "velocity": 125,
      "chip": "ym2612"
    },
    {
      "channel": 3,
      "note": 61,
      "start": 31.3651,
      "duration": 0.0569,
      "velocity": 92,
      "chip": "ym2612"
    },
    {
      "channel": 0,
      "note": 53,
      "start": 31.3764,
      "duration": 0.0622,
      "velocity": 107,
      "chip": "ym2612"
    },
    {
      "channel": 3,
      "note": 59,
      "start": 31.4427,
      "duration": 0.0459,
      "velocity": 92,
      "chip": "ym2612"
    },
    {
      "channel": 3,
      "note": 56,
      "start": 31.5425,
      "duration": 0.0796,
      "velocity": 92,
      "chip": "ym2612"
    },
    {
      "channel": 0,
      "note": 64,
      "start": 31.5456,
      "duration": 0.1098,
      "velocity": 107,
      "chip": "ym2612"
    },
    {
      "channel": 2,
      "note": 70,
      "start": 31.5488,
      "duration": 0.0736,
      "velocity": 107,
      "chip": "ym2612"
    },
    {
      "channel": 4,
      "note": 49,
      "start": 31.626,
      "duration": 0.0629,
      "velocity": 125,
      "chip": "ym2612"
    },
    {
      "channel": 5,
      "note": 59,
      "start": 31.629,
      "duration": 0.0931,
      "velocity": 125,
      "chip": "ym2612"
    },
    {
      "channel": 3,
      "note": 54,
      "start": 31.6321,
      "duration": 0.0566,
      "velocity": 92,
      "chip": "ym2612"
    },
    {
      "channel": 5,
      "note": 47,
      "start": 31.7925,
      "duration": 0.0629,
      "velocity": 125,
      "chip": "ym2612"
    },
    {
      "channel": 1,
      "note": 44,
      "start": 31.8088,
      "duration": 0.0966,
      "velocity": 118,
      "chip": "ym2612"
    },
    {
      "channel": 2,
      "note": 45,
      "start": 31.9089,
      "duration": 0.0466,
      "velocity": 122,
      "chip": "ym2612"
    },
    {
      "channel": 5,
      "note": 49,
      "start": 31.9125,
      "duration": 0.1096,
      "velocity": 125,
      "chip": "ym2612"
    },
    {
      "channel": 3,
      "note": 46,
      "start": 31.9155,
      "duration": 0.1566,
      "velocity": 92,
      "chip": "ym2612"
    },
    {
      "channel": 0,
      "note": 66,
      "start": 31.9262,
      "duration": 0.0957,
      "velocity": 107,
      "chip": "ym2612"
    },
    {
      "channel": 4,
      "note": 71,
      "start": 31.9294,
      "duration": 0.1094,
      "velocity": 107,
      "chip": "ym2612"
    },
    {
      "channel": 5,
      "note": 61,
      "start": 32.076,
      "duration": 0.0295,
      "velocity": 125,
      "chip": "ym2612"
    },
    {
      "channel": 1,
      "note": 49,
      "start": 32.1759,
      "duration": 0.0795,
      "velocity": 125,
      "chip": "ym2612"
    },
    {
      "channel": 5,
      "note": 49,
      "start": 32.1788,
      "duration": 0.1099,
      "velocity": 125,
      "chip": "ym2612"
    },
    {
      "channel": 3,
      "note": 42,
      "start": 32.1818,
      "duration": 0.157,
      "velocity": 92,
      "chip": "ym2612"
    },
    {
      "channel": 0,
      "note": 71,
      "start": 32.1848,
      "duration": 0.1371,
      "velocity": 107,
      "chip": "ym2612"
    },
    {
      "channel": 4,
      "note": 67,
      "start": 32.1877,
      "duration": 0.1344,
      "velocity": 107,
      "chip": "ym2612"
    },
    {
      "channel": 2,
      "note": 45,
      "start": 32.3421,
      "duration": 0.0468,
      "velocity": 122,
      "chip": "ym2612"
    },
    {
      "channel": 5,
      "note": 61,
      "start": 32.3455,
      "duration": 0.06,
      "velocity": 125,
      "chip": "ym2612"
    },
    {
      "channel": 3,
      "note": 58,
      "start": 32.3485,
      "duration": 0.1235,
      "velocity": 92,
      "chip": "ym2612"
    },
    {
      "channel": 1,
      "note": 49,
      "start": 32.4587,
      "duration": 0.28,
      "velocity": 125,
      "chip": "ym2612"
    },
    {
      "channel": 0,
      "note": 71,
      "start": 32.4769,
      "duration": 0.1784,
      "velocity": 107,
      "chip": "ym2612"
    },
    {
      "channel": 4,
      "note": 68,
      "start": 32.4799,
      "duration": 0.1602,
      "velocity": 107,
      "chip": "ym2612"
    },
    {
      "channel": 2,
      "note": 45,
      "start": 32.6253,
      "duration": 0.0302,
      "velocity": 122,
      "chip": "ym2612"
    },
    {
      "channel": 5,
      "note": 49,
      "start": 32.6287,
      "duration": 0.0047,
      "velocity": 125,
      "chip": "ym2612"
    },
    {
      "channel": 3,
      "note": 50,
      "start": 32.6318,
      "duration": 0.0047,
      "velocity": 125,
      "chip": "ym2612"
    },
    {
      "channel": 5,
      "note": 47,
      "start": 32.6353,
      "duration": 0.0701,
      "velocity": 92,
      "chip": "ym2612"
    },
    {
      "channel": 3,
      "note": 61,
      "start": 32.6388,
      "duration": 0.1001,
      "velocity": 107,
      "chip": "ym2612"
    },
    {
      "channel": 4,
      "note": 73,
      "start": 32.6447,
      "duration": 0.1273,
      "velocity": 107,
      "chip": "ym2612"
    },
    {
      "channel": 5,
      "note": 59,
      "start": 32.7431,
      "duration": 0.1457,
      "velocity": 92,
      "chip": "ym2612"
    },
    {
      "channel": 0,
      "note": 52,
      "start": 32.7461,
      "duration": 0.2092,
      "velocity": 107,
      "chip": "ym2612"
    },
    {
      "channel": 2,
      "note": 49,
      "start": 33.0088,
      "duration": 0.1801,
      "velocity": 111,
      "chip": "ym2612"
    },
    {
      "channel": 1,
      "note": 45,
      "start": 33.0117,
      "duration": 0.0437,
      "velocity": 122,
      "chip": "ym2612"
    },
    {
      "channel": 3,
      "note": 47,
      "start": 33.015,
      "duration": 0.107,
      "velocity": 125,
      "chip": "ym2612"
    },
    {
      "channel": 5,
      "note": 49,
      "start": 33.018,
      "duration": 0.1708,
      "velocity": 92,
      "chip": "ym2612"
    },
    {
      "channel": 3,
      "note": 59,
      "start": 33.1762,
      "duration": 0.0626,
      "velocity": 125,
      "chip": "ym2612"
    },
    {
      "channel": 0,
      "note": 49,
      "start": 33.1798,
      "duration": 0.1289,
      "velocity": 107,
      "chip": "ym2612"
    },
    {
      "channel": 1,
      "note": 45,
      "start": 33.1919,
      "duration": 0.0468,
      "velocity": 122,
      "chip": "ym2612"
    },
    {
      "channel": 1,
      "note": 45,
      "start": 33.2917,
      "duration": 0.0469,
      "velocity": 122,
      "chip": "ym2612"
    },
    {
      "channel": 3,
      "note": 47,
      "start": 33.295,
      "duration": 0.0103,
      "velocity": 125,
      "chip": "ym2612"
    },
    {
      "channel": 5,
      "note": 61,
      "start": 33.2981,
      "duration": 0.0109,
      "velocity": 92,
      "chip": "ym2612"
    },
    {
      "channel": 4,
      "note": 76,
      "start": 33.3013,
      "duration": 0.2374,
      "velocity": 107,
      "chip": "ym2612"
    },
    {
      "channel": 2,
      "note": 79,
      "start": 33.3042,
      "duration": 0.2347,
      "velocity": 107,
      "chip": "ym2612"
    },
    {
      "channel": 3,
      "note": 71,
      "start": 33.3075,
      "duration": 0.1144,
      "velocity": 107,
      "chip": "ym2612"
    },
    {
      "channel": 0,
      "note": 49,
      "start": 33.5588,
      "duration": 0.2798,
      "velocity": 125,
      "chip": "ym2612"
    },
    {
      "channel": 5,
      "note": 47,
      "start": 33.5619,
      "duration": 0.1103,
      "velocity": 125,
      "chip": "ym2612"
    },
    {
      "channel": 3,
      "note": 53,
      "start": 33.5655,
      "duration": 0.0399,
      "velocity": 107,
      "chip": "ym2612"
    },
    {
      "channel": 1,
      "note": 59,
      "start": 33.6596,
      "duration": 0.0457,
      "velocity": 92,
      "chip": "ym2612"
    },
    {
      "channel": 3,
      "note": 73,
      "start": 33.7265,
      "duration": 0.0622,
      "velocity": 107,
      "chip": "ym2612"
    },
    {
      "channel": 4,
      "note": 68,
      "start": 33.7295,
      "duration": 0.1092,
      "velocity": 107,
      "chip": "ym2612"
    },
    {
      "channel": 1,
      "note": 56,
      "start": 33.7591,
      "duration": 0.0628,
      "velocity": 92,
      "chip": "ym2612"
    },
    {
      "channel": 5,
      "note": 49,
      "start": 33.8424,
      "duration": 0.113,
      "velocity": 125,
      "chip": "ym2612"
    },
    {
      "channel": 1,
      "note": 54,
      "start": 33.8456,
      "duration": 0.0597,
      "velocity": 92,
      "chip": "ym2612"
    },
    {
      "channel": 3,
      "note": 71,
      "start": 33.8488,
      "duration": 0.0567,
      "velocity": 107,
      "chip": "ym2612"
    },
    {
      "channel": 4,
      "note": 53,
      "start": 33.8517,
      "duration": 0.0539,
      "velocity": 107,
      "chip": "ym2612"
    },
    {
      "channel": 3,
      "note": 52,
      "start": 34.0102,
      "duration": 0.0119,
      "velocity": 107,
      "chip": "ym2612"
    },
    {
      "channel": 2,
      "note": 44,
      "start": 34.0256,
      "duration": 0.4134,
      "velocity": 118,
      "chip": "ym2612"
    },
    {
      "channel": 0,
      "note": 45,
      "start": 34.1253,
      "duration": 0.0299,
      "velocity": 122,
      "chip": "ym2612"
    },
    {
      "channel": 5,
      "note": 51,
      "start": 34.1286,
      "duration": 0.1103,
      "velocity": 125,
      "chip": "ym2612"
    },
    {
      "channel": 1,
      "note": 47,
      "start": 34.1315,
      "duration": 0.1405,
      "velocity": 92,
      "chip": "ym2612"
    },
    {
      "channel": 3,
      "note": 66,
      "start": 34.1347,
      "duration": 0.104,
      "velocity": 107,
      "chip": "ym2612"
    },
    {
      "channel": 4,
      "note": 71,
      "start": 34.1378,
      "duration": 0.0676,
      "velocity": 107,
      "chip": "ym2612"
    },
    {
      "channel": 5,
      "note": 63,
      "start": 34.276,
      "duration": 0.0795,
      "velocity": 125,
      "chip": "ym2612"
    },
    {
      "channel": 1,
      "note": 46,
      "start": 34.279,
      "duration": 0.0763,
      "velocity": 92,
      "chip": "ym2612"
    },
    {
      "channel": 5,
      "note": 52,
      "start": 34.3929,
      "duration": 0.1126,
      "velocity": 125,
      "chip": "ym2612"
    },
    {
      "channel": 1,
      "note": 47,
      "start": 34.3959,
      "duration": 0.1094,
      "velocity": 92,
      "chip": "ym2612"
    },
    {
      "channel": 3,
      "note": 71,
      "start": 34.3991,
      "duration": 0.2229,
      "velocity": 107,
      "chip": "ym2612"
    },
    {
      "channel": 4,
      "note": 67,
      "start": 34.4022,
      "duration": 0.0366,
      "velocity": 107,
      "chip": "ym2612"
    },
    {
      "channel": 4,
      "note": 66,
      "start": 34.4931,
      "duration": 0.1291,
      "velocity": 107,
      "chip": "ym2612"
    },
    {
      "channel": 0,
      "note": 45,
      "start": 34.5587,
      "duration": 0.0467,
      "velocity": 122,
      "chip": "ym2612"
    },
    {
      "channel": 1,
      "note": 46,
      "start": 34.5619,
      "duration": 0.1101,
      "velocity": 92,
      "chip": "ym2612"
    },
    {
      "channel": 2,
      "note": 64,
      "start": 34.5769,
      "duration": 0.0954,
      "velocity": 107,
      "chip": "ym2612"
    },
    {
      "channel": 5,
      "note": 51,
      "start": 34.676,
      "duration": 0.1296,
      "velocity": 111,
      "chip": "ym2612"
    },
    {
      "channel": 0,
      "note": 49,
      "start": 34.6792,
      "duration": 0.2594,
      "velocity": 125,
      "chip": "ym2612"
    },
    {
      "channel": 1,
      "note": 51,
      "start": 34.6823,
      "duration": 0.123,
      "velocity": 92,
      "chip": "ym2612"
    },
    {
      "channel": 3,
      "note": 61,
      "start": 34.6854,
      "duration": 0.12,
      "velocity": 107,
      "chip": "ym2612"
    },
    {
      "channel": 5,
      "note": 50,
      "start": 34.842,
      "duration": 0.3136,
      "velocity": 111,
      "chip": "ym2612"
    },
    {
      "channel": 4,
      "note": 45,
      "start": 34.8449,
      "duration": 0.0271,
      "velocity": 122,
      "chip": "ym2612"
    },
    {
      "channel": 2,
      "note": 49,
      "start": 34.8481,
      "duration": 0.1242,
      "velocity": 125,
      "chip": "ym2612"
    },
    {
      "channel": 1,
      "note": 50,
      "start": 34.8517,
      "duration": 0.3036,
      "velocity": 92,
      "chip": "ym2612"
    },
    {
      "channel": 3,
      "note": 59,
      "start": 34.855,
      "duration": 0.0838,
      "velocity": 107,
      "chip": "ym2612"
    },
    {
      "channel": 4,
      "note": 56,
      "start": 34.9428,
      "duration": 0.0793,
      "velocity": 125,
      "chip": "ym2612"
    },
    {
      "channel": 3,
      "note": 55,
      "start": 34.9463,
      "duration": 0.2258,
      "velocity": 107,
      "chip": "ym2612"
    },
    {
      "channel": 5,
      "note": 46,
      "start": 35.2253,
      "duration": 0.1301,
      "velocity": 111,
      "chip": "ym2612"
    },
    {
      "channel": 0,
      "note": 45,
      "start": 35.2282,
      "duration": 0.0438,
      "velocity": 122,
      "chip": "ym2612"
    },
    {
      "channel": 4,
      "note": 47,
      "start": 35.2329,
      "duration": 0.1058,
      "velocity": 125,
      "chip": "ym2612"
    },
    {
      "channel": 4,
      "note": 59,
      "start": 35.3926,
      "duration": 0.0462,
      "velocity": 125,
      "chip": "ym2612"
    },
    {
      "channel": 0,
      "note": 45,
      "start": 35.5083,
      "duration": 0.0302,
      "velocity": 122,
      "chip": "ym2612"
    },
    {
      "channel": 4,
      "note": 47,
      "start": 35.5117,
      "duration": 0.1104,
      "velocity": 125,
      "chip": "ym2612"
    },
    {
      "channel": 2,
      "note": 90,
      "start": 35.5148,
      "duration": 0.0576,
      "velocity": 87,
      "chip": "ym2612"
    },
    {
      "channel": 1,
      "note": 94,
      "start": 35.5175,
      "duration": 0.0545,
      "velocity": 87,
      "chip": "ym2612"
    },
    {
      "channel": 5,
      "note": 47,
      "start": 35.6587,
      "duration": 0.1134,
      "velocity": 111,
      "chip": "ym2612"
    },
    {
      "channel": 3,
      "note": 49,
      "start": 35.7756,
      "duration": 0.2798,
      "velocity": 125,
      "chip": "ym2612"
    },
    {
      "channel": 4,
      "note": 47,
      "start": 35.7784,
      "duration": 0.1104,
      "velocity": 125,
      "chip": "ym2612"
    },
    {
      "channel": 1,
      "note": 90,
      "start": 35.7812,
      "duration": 0.0908,
      "velocity": 87,
      "chip": "ym2612"
    },
    {
      "channel": 2,
      "note": 94,
      "start": 35.7844,
      "duration": 0.0878,
      "velocity": 87,
      "chip": "ym2612"
    },
    {
      "channel": 5,
      "note": 49,
      "start": 36.0588,
      "duration": 0.13,
      "velocity": 111,
      "chip": "ym2612"
    },
    {
      "channel": 4,
      "note": 59,
      "start": 36.0625,
      "duration": 0.0762,
      "velocity": 125,
      "chip": "ym2612"
    },
    {
      "channel": 4,
      "note": 49,
      "start": 36.2258,
      "duration": 0.1131,
      "velocity": 125,
      "chip": "ym2612"
    },
    {
      "channel": 0,
      "note": 49,
      "start": 36.2421,
      "duration": 0.0966,
      "velocity": 118,
      "chip": "ym2612"
    },
    {
      "channel": 1,
      "note": 45,
      "start": 36.3422,
      "duration": 0.0297,
      "velocity": 122,
      "chip": "ym2612"
    },
    {
      "channel": 2,
      "note": 90,
      "start": 36.3456,
      "duration": 0.0767,
      "velocity": 87,
      "chip": "ym2612"
    },
    {
      "channel": 3,
      "note": 94,
      "start": 36.3484,
      "duration": 0.0736,
      "velocity": 87,
      "chip": "ym2612"
    },
    {
      "channel": 4,
      "note": 61,
      "start": 36.4924,
      "duration": 0.0464,
      "velocity": 125,
      "chip": "ym2612"
    },
    {
      "channel": 2,
      "note": 81,
      "start": 36.611,
      "duration": 0.2778,
      "velocity": 104,
      "chip": "ym2612"
    },
    {
      "channel": 1,
      "note": 45,
      "start": 36.775,
      "duration": 0.0469,
      "velocity": 122,
      "chip": "ym2612"
    },
    {
      "channel": 4,
      "note": 51,
      "start": 36.7782,
      "duration": 0.0439,
      "velocity": 125,
      "chip": "ym2612"
    },
    {
      "channel": 3,
      "note": 90,
      "start": 36.7811,
      "duration": 0.0577,
      "velocity": 87,
      "chip": "ym2612"
    },
    {
      "channel": 5,
      "note": 94,
      "start": 36.7838,
      "duration": 0.0552,
      "velocity": 87,
      "chip": "ym2612"
    },
    {
      "channel": 0,
      "note": 49,
      "start": 36.8921,
      "duration": 0.2632,
      "velocity": 125,
      "chip": "ym2612"
    },
    {
      "channel": 4,
      "note": 52,
      "start": 36.8952,
      "duration": 0.0771,
      "velocity": 125,
      "chip": "ym2612"
    },
    {
      "channel": 1,
      "note": 97,
      "start": 36.9003,
      "duration": 0.3717,
      "velocity": 103,
      "chip": "ym2612"
    },
    {
      "channel": 3,
      "note": 95,
      "start": 36.9035,
      "duration": 0.3687,
      "velocity": 103,
      "chip": "ym2612"
    },
    {
      "channel": 5,
      "note": 45,
      "start": 37.0421,
      "duration": 0.0468,
      "velocity": 122,
      "chip": "ym2612"
    },
    {
      "channel": 2,
      "note": 49,
      "start": 37.0459,
      "duration": 0.0038,
      "velocity": 125,
      "chip": "ym2612"
    },
    {
      "channel": 4,
      "note": 64,
      "start": 37.0488,
      "duration": 0.0037,
      "velocity": 125,
      "chip": "ym2612"
    },
    {
      "channel": 2,
      "note": 90,
      "start": 37.0517,
      "duration": 0.0707,
      "velocity": 87,
      "chip": "ym2612"
    },
    {
      "channel": 4,
      "note": 94,
      "start": 37.0546,
      "duration": 0.0677,
      "velocity": 87,
      "chip": "ym2612"
    },
    {
      "channel": 5,
      "note": 54,
      "start": 37.1593,
      "duration": 0.063,
      "velocity": 125,
      "chip": "ym2612"
    },
    {
      "channel": 4,
      "note": 88,
      "start": 37.1626,
      "duration": 0.1429,
      "velocity": 87,
      "chip": "ym2612"
    },
    {
      "channel": 2,
      "note": 92,
      "start": 37.1654,
      "duration": 0.1403,
      "velocity": 87,
      "chip": "ym2612"
    },
    {
      "channel": 5,
      "note": 66,
      "start": 37.3264,
      "duration": 0.0959,
      "velocity": 125,
      "chip": "ym2612"
    },
    {
      "channel": 0,
      "note": 47,
      "start": 37.4426,
      "duration": 0.1127,
      "velocity": 111,
      "chip": "ym2612"
    },
    {
      "channel": 1,
      "note": 45,
      "start": 37.4454,
      "duration": 0.0433,
      "velocity": 122,
      "chip": "ym2612"
    },
    {
      "channel": 5,
      "note": 47,
      "start": 37.4488,
      "duration": 0.1068,
      "velocity": 125,
      "chip": "ym2612"
    },
    {
      "channel": 5,
      "note": 59,
      "start": 37.6093,
      "duration": 0.0295,
      "velocity": 125,
      "chip": "ym2612"
    },
    {
      "channel": 1,
      "note": 45,
      "start": 37.6255,
      "duration": 0.0465,
      "velocity": 122,
      "chip": "ym2612"
    },
    {
      "channel": 1,
      "note": 45,
      "start": 37.7251,
      "duration": 0.0302,
      "velocity": 122,
      "chip": "ym2612"
    },
    {
      "channel": 5,
      "note": 47,
      "start": 37.7285,
      "duration": 0.0936,
      "velocity": 125,
      "chip": "ym2612"
    },
    {
      "channel": 4,
      "note": 90,
      "start": 37.7315,
      "duration": 0.0573,
      "velocity": 87,
      "chip": "ym2612"
    },
    {
      "channel": 2,
      "note": 94,
      "start": 37.7344,
      "duration": 0.0212,
      "velocity": 87,
      "chip": "ym2612"
    },
    {
      "channel": 0,
      "note": 54,
      "start": 37.8751,
      "duration": 0.0968,
      "velocity": 111,
      "chip": "ym2612"
    },
    {
      "channel": 3,
      "note": 49,
      "start": 37.9921,
      "duration": 0.2799,
      "velocity": 125,
      "chip": "ym2612"
    },
    {
      "channel": 5,
      "note": 47,
      "start": 37.9949,
      "duration": 0.1105,
      "velocity": 125,
      "chip": "ym2612"
    },
    {
      "channel": 4,
      "note": 94,
      "start": 37.9978,
      "duration": 0.0908,
      "velocity": 87,
      "chip": "ym2612"
    },
    {
      "channel": 2,
      "note": 90,
      "start": 38.0008,
      "duration": 0.0548,
      "velocity": 87,
      "chip": "ym2612"
    },
    {
      "channel": 0,
      "note": 49,
      "start": 38.2751,
      "duration": 0.1468,
      "velocity": 111,
      "chip": "ym2612"
    },
    {
      "channel": 5,
      "note": 59,
      "start": 38.2786,
      "duration": 0.0768,
      "velocity": 125,
      "chip": "ym2612"
    },
    {
      "channel": 5,
      "note": 49,
      "start": 38.4263,
      "duration": 0.1125,
      "velocity": 125,
      "chip": "ym2612"
    },
    {
      "channel": 1,
      "note": 44,
      "start": 38.4589,
      "duration": 0.1797,
      "velocity": 118,
      "chip": "ym2612"
    },
    {
      "channel": 2,
      "note": 45,
      "start": 38.5421,
      "duration": 0.0468,
      "velocity": 122,
      "chip": "ym2612"
    },
    {
      "channel": 4,
      "note": 90,
      "start": 38.5457,
      "duration": 0.0765,
      "velocity": 87,
      "chip": "ym2612"
    },
    {
      "channel": 3,
      "note": 94,
      "start": 38.5485,
      "duration": 0.0735,
      "velocity": 87,
      "chip": "ym2612"
    },
    {
      "channel": 0,
      "note": 49,
      "start": 38.7093,
      "duration": 0.0627,
      "velocity": 125,
      "chip": "ym2612"
    },
    {
      "channel": 5,
      "note": 61,
      "start": 38.7122,
      "duration": 0.0433,
      "velocity": 125,
      "chip": "ym2612"
    },
    {
      "channel": 2,
      "note": 81,
      "start": 38.8257,
      "duration": 0.2464,
      "velocity": 104,
      "chip": "ym2612"
    },
    {
      "channel": 3,
      "note": 45,
      "start": 38.9921,
      "duration": 0.0299,
      "velocity": 122,
      "chip": "ym2612"
    },
    {
      "channel": 5,
      "note": 51,
      "start": 38.9952,
      "duration": 0.0269,
      "velocity": 125,
      "chip": "ym2612"
    },
    {
      "channel": 4,
      "note": 90,
      "start": 38.9982,
      "duration": 0.1073,
      "velocity": 87,
      "chip": "ym2612"
    },
    {
      "channel": 1,
      "note": 94,
      "start": 39.0011,
      "duration": 0.0542,
      "velocity": 87,
      "chip": "ym2612"
    },
    {
      "channel": 0,
      "note": 49,
      "start": 39.1089,
      "duration": 0.2632,
      "velocity": 125,
      "chip": "ym2612"
    },
    {
      "channel": 5,
      "note": 52,
      "start": 39.112,
      "duration": 0.077,
      "velocity": 125,
      "chip": "ym2612"
    },
    {
      "channel": 3,
      "note": 95,
      "start": 39.1172,
      "duration": 0.355,
      "velocity": 103,
      "chip": "ym2612"
    },
    {
      "channel": 1,
      "note": 90,
      "start": 39.1206,
      "duration": 0.3183,
      "velocity": 103,
      "chip": "ym2612"
    },
    {
      "channel": 2,
      "note": 45,
      "start": 39.2589,
      "duration": 0.0468,
      "velocity": 122,
      "chip": "ym2612"
    },
    {
      "channel": 4,
      "note": 49,
      "start": 39.2622,
      "duration": 0.0039,
      "velocity": 125,
      "chip": "ym2612"
    },
    {
      "channel": 5,
      "note": 64,
      "start": 39.2651,
      "duration": 0.0037,
      "velocity": 125,
      "chip": "ym2612"
    },
    {
      "channel": 4,
      "note": 90,
      "start": 39.268,
      "duration": 0.0543,
      "velocity": 87,
      "chip": "ym2612"
    },
    {
      "channel": 5,
      "note": 94,
      "start": 39.2708,
      "duration": 0.0516,
      "velocity": 87,
      "chip": "ym2612"
    },
    {
      "channel": 2,
      "note": 54,
      "start": 39.3761,
      "duration": 0.063,
      "velocity": 125,
      "chip": "ym2612"
    },
    {
      "channel": 4,
      "note": 92,
      "start": 39.379,
      "duration": 0.1098,
      "velocity": 87,
      "chip": "ym2612"
    },
    {
      "channel": 5,
      "note": 95,
      "start": 39.3823,
      "duration": 0.0901,
      "velocity": 87,
      "chip": "ym2612"
    },
    {
      "channel": 2,
      "note": 66,
      "start": 39.5432,
      "duration": 0.0791,
      "velocity": 125,
      "chip": "ym2612"
    },
    {
      "channel": 0,
      "note": 47,
      "start": 39.6589,
      "duration": 0.1464,
      "velocity": 111,
      "chip": "ym2612"
    },
    {
      "channel": 1,
      "note": 45,
      "start": 39.6617,
      "duration": 0.0437,
      "velocity": 122,
      "chip": "ym2612"
    },
    {
      "channel": 2,
      "note": 47,
      "start": 39.6651,
      "duration": 0.1071,
      "velocity": 125,
      "chip": "ym2612"
    },
    {
      "channel": 2,
      "note": 59,
      "start": 39.8094,
      "duration": 0.046,
      "velocity": 125,
      "chip": "ym2612"
    },
    {
      "channel": 1,
      "note": 45,
      "start": 39.925,
      "duration": 0.0469,
      "velocity": 122,
      "chip": "ym2612"
    },
    {
      "channel": 2,
      "note": 47,
      "start": 39.9285,
      "duration": 0.1104,
      "velocity": 125,
      "chip": "ym2612"
    },
    {
      "channel": 4,
      "note": 90,
      "start": 39.9315,
      "duration": 0.074,
      "velocity": 87,
      "chip": "ym2612"
    },
    {
      "channel": 5,
      "note": 94,
      "start": 39.9341,
      "duration": 0.0715,
      "velocity": 87,
      "chip": "ym2612"
    },
    {
      "channel": 0,
      "note": 48,
      "start": 40.0918,
      "duration": 0.1135,
      "velocity": 111,
      "chip": "ym2612"
    },
    {
      "channel": 3,
      "note": 49,
      "start": 40.2089,
      "duration": 0.2799,
      "velocity": 125,
      "chip": "ym2612"
    },
    {
      "channel": 2,
      "note": 47,
      "start": 40.2118,
      "duration": 0.1103,
      "velocity": 125,
      "chip": "ym2612"
    },
    {
      "channel": 4,
      "note": 90,
      "start": 40.2147,
      "duration": 0.0907,
      "velocity": 87,
      "chip": "ym2612"
    },
    {
      "channel": 5,
      "note": 94,
      "start": 40.2174,
      "duration": 0.0882,
      "velocity": 87,
      "chip": "ym2612"
    },
    {
      "channel": 0,
      "note": 49,
      "start": 40.4919,
      "duration": 0.08,
      "velocity": 111,
      "chip": "ym2612"
    },
    {
      "channel": 2,
      "note": 59,
      "start": 40.4955,
      "duration": 0.0768,
      "velocity": 125,
      "chip": "ym2612"
    },
    {
      "channel": 2,
      "note": 49,
      "start": 40.643,
      "duration": 0.1125,
      "velocity": 125,
      "chip": "ym2612"
    },
    {
      "channel": 1,
      "note": 49,
      "start": 40.6755,
      "duration": 0.0798,
      "velocity": 118,
      "chip": "ym2612"
    },
    {
      "channel": 4,
      "note": 45,
      "start": 40.7588,
      "duration": 0.0466,
      "velocity": 122,
      "chip": "ym2612"
    },
    {
      "channel": 5,
      "note": 90,
      "start": 40.7622,
      "duration": 0.1099,
      "velocity": 87,
      "chip": "ym2612"
    },
    {
      "channel": 3,
      "note": 94,
      "start": 40.7655,
      "duration": 0.0898,
      "velocity": 87,
      "chip": "ym2612"
    },
    {
      "channel": 2,
      "note": 61,
      "start": 40.9258,
      "duration": 0.0465,
      "velocity": 125,
      "chip": "ym2612"
    },
    {
      "channel": 2,
      "note": 81,
      "start": 41.043,
      "duration": 0.2624,
      "velocity": 104,
      "chip": "ym2612"
    },
    {
      "channel": 4,
      "note": 45,
      "start": 41.1921,
      "duration": 0.0468,
      "velocity": 122,
      "chip": "ym2612"
    },
    {
      "channel": 0,
      "note": 51,
      "start": 41.1954,
      "duration": 0.0432,
      "velocity": 125,
      "chip": "ym2612"
    },
    {
      "channel": 3,
      "note": 90,
      "start": 41.1982,
      "duration": 0.0905,
      "velocity": 87,
      "chip": "ym2612"
    },
    {
      "channel": 5,
      "note": 94,
      "start": 41.201,
      "duration": 0.0711,
      "velocity": 87,
      "chip": "ym2612"
    },
    {
      "channel": 1,
      "note": 59,
      "start": 41.3092,
      "duration": 0.0795,
      "velocity": 111,
      "chip": "ym2612"
    },
    {
      "channel": 0,
      "note": 49,
      "start": 41.3121,
      "duration": 0.2766,
      "velocity": 125,
      "chip": "ym2612"
    },
    {
      "channel": 4,
      "note": 52,
      "start": 41.3154,
      "duration": 0.0902,
      "velocity": 125,
      "chip": "ym2612"
    },
    {
      "channel": 5,
      "note": 97,
      "start": 41.3202,
      "duration": 0.3854,
      "velocity": 103,
      "chip": "ym2612"
    },
    {
      "channel": 3,
      "note": 92,
      "start": 41.3236,
      "duration": 0.3986,
      "velocity": 103,
      "chip": "ym2612"
    },
    {
      "channel": 1,
      "note": 56,
      "start": 41.4084,
      "duration": 0.0637,
      "velocity": 111,
      "chip": "ym2612"
    },
    {
      "channel": 2,
      "note": 45,
      "start": 41.4756,
      "duration": 0.0143,
      "velocity": 122,
      "chip": "ym2612"
    },
    {
      "channel": 4,
      "note": 64,
      "start": 41.4789,
      "duration": 0.0038,
      "velocity": 125,
      "chip": "ym2612"
    },
    {
      "channel": 1,
      "note": 90,
      "start": 41.4818,
      "duration": 0.0571,
      "velocity": 87,
      "chip": "ym2612"
    },
    {
      "channel": 4,
      "note": 94,
      "start": 41.4847,
      "duration": 0.0875,
      "velocity": 87,
      "chip": "ym2612"
    },
    {
      "channel": 2,
      "note": 54,
      "start": 41.4919,
      "duration": 0.0805,
      "velocity": 111,
      "chip": "ym2612"
    },
    {
      "channel": 2,
      "note": 52,
      "start": 41.5923,
      "duration": 0.1134,
      "velocity": 111,
      "chip": "ym2612"
    },
    {
      "channel": 1,
      "note": 54,
      "start": 41.5957,
      "duration": 0.0598,
      "velocity": 125,
      "chip": "ym2612"
    },
    {
      "channel": 4,
      "note": 88,
      "start": 41.5986,
      "duration": 0.1237,
      "velocity": 87,
      "chip": "ym2612"
    },
    {
      "channel": 0,
      "note": 92,
      "start": 41.6019,
      "duration": 0.1034,
      "velocity": 87,
      "chip": "ym2612"
    },
    {
      "channel": 2,
      "note": 49,
      "start": 41.7589,
      "duration": 0.0801,
      "velocity": 111,
      "chip": "ym2612"
    },
    {
      "channel": 1,
      "note": 66,
      "start": 41.7625,
      "duration": 0.0761,
      "velocity": 125,
      "chip": "ym2612"
    },
    {
      "channel": 2,
      "note": 47,
      "start": 41.8756,
      "duration": 0.1299,
      "velocity": 111,
      "chip": "ym2612"
    },
    {
      "channel": 0,
      "note": 45,
      "start": 41.8785,
      "duration": 0.027,
      "velocity": 122,
      "chip": "ym2612"
    },
    {
      "channel": 1,
      "note": 47,
      "start": 41.8816,
      "duration": 0.107,
      "velocity": 125,
      "chip": "ym2612"
    },
    {
      "channel": 1,
      "note": 59,
      "start": 42.0257,
      "duration": 0.0463,
      "velocity": 125,
      "chip": "ym2612"
    },
    {
      "channel": 0,
      "note": 45,
      "start": 42.0583,
      "duration": 0.0303,
      "velocity": 122,
      "chip": "ym2612"
    },
    {
      "channel": 0,
      "note": 45,
      "start": 42.1416,
      "duration": 0.047,
      "velocity": 122,
      "chip": "ym2612"
    },
    {
      "channel": 1,
      "note": 47,
      "start": 42.1448,
      "duration": 0.1105,
      "velocity": 125,
      "chip": "ym2612"
    },
    {
      "channel": 4,
      "note": 90,
      "start": 42.1477,
      "duration": 0.0576,
      "velocity": 87,
      "chip": "ym2612"
    },
    {
      "channel": 5,
      "note": 94,
      "start": 42.1505,
      "duration": 0.055,
      "velocity": 87,
      "chip": "ym2612"
    },
    {
      "channel": 2,
      "note": 48,
      "start": 42.3092,
      "duration": 0.0797,
      "velocity": 111,
      "chip": "ym2612"
    },
    {
      "channel": 3,
      "note": 49,
      "start": 42.4255,
      "duration": 0.2632,
      "velocity": 125,
      "chip": "ym2612"
    },
    {
      "channel": 1,
      "note": 47,
      "start": 42.4282,
      "duration": 0.1104,
      "velocity": 125,
      "chip": "ym2612"
    },
    {
      "channel": 4,
      "note": 90,
      "start": 42.4311,
      "duration": 0.0742,
      "velocity": 87,
      "chip": "ym2612"
    },
    {
      "channel": 5,
      "note": 94,
      "start": 42.4339,
      "duration": 0.0716,
      "velocity": 87,
      "chip": "ym2612"
    },
    {
      "channel": 2,
      "note": 49,
      "start": 42.6922,
      "duration": 0.1466,
      "velocity": 111,
      "chip": "ym2612"
    },
    {
      "channel": 1,
      "note": 59,
      "start": 42.6956,
      "duration": 0.0931,
      "velocity": 125,
      "chip": "ym2612"
    },
    {
      "channel": 1,
      "note": 49,
      "start": 42.8594,
      "duration": 0.1126,
      "velocity": 125,
      "chip": "ym2612"
    },
    {
      "channel": 0,
      "note": 40,
      "start": 42.8921,
      "duration": 0.0965,
      "velocity": 118,
      "chip": "ym2612"
    },
    {
      "channel": 2,
      "note": 49,
      "start": 42.9755,
      "duration": 0.1634,
      "velocity": 111,
      "chip": "ym2612"
    },
    {
      "channel": 4,
      "note": 45,
      "start": 42.9784,
      "duration": 0.0436,
      "velocity": 122,
      "chip": "ym2612"
    },
    {
      "channel": 2,
      "note": 47,
      "start": 43.1423,
      "duration": 0.0799,
      "velocity": 111,
      "chip": "ym2612"
    },
    {
      "channel": 1,
      "note": 61,
      "start": 43.1454,
      "duration": 0.0265,
      "velocity": 125,
      "chip": "ym2612"
    },
    {
      "channel": 2,
      "note": 49,
      "start": 43.2586,
      "duration": 0.0802,
      "velocity": 111,
      "chip": "ym2612"
    },
    {
      "channel": 3,
      "note": 49,
      "start": 43.2617,
      "duration": 0.1103,
      "velocity": 125,
      "chip": "ym2612"
    },
    {
      "channel": 2,
      "note": 47,
      "start": 43.4087,
      "duration": 0.0969,
      "velocity": 111,
      "chip": "ym2612"
    },
    {
      "channel": 4,
      "note": 45,
      "start": 43.4114,
      "duration": 0.0441,
      "velocity": 122,
      "chip": "ym2612"
    },
    {
      "channel": 1,
      "note": 51,
      "start": 43.4145,
      "duration": 0.0408,
      "velocity": 125,
      "chip": "ym2612"
    },
    {
      "channel": 2,
      "note": 51,
      "start": 43.5259,
      "duration": 0.1463,
      "velocity": 111,
      "chip": "ym2612"
    },
    {
      "channel": 3,
      "note": 49,
      "start": 43.529,
      "duration": 0.1598,
      "velocity": 125,
      "chip": "ym2612"
    },
    {
      "channel": 1,
      "note": 51,
      "start": 43.532,
      "duration": 0.0901,
      "velocity": 125,
      "chip": "ym2612"
    },
    {
      "channel": 2,
      "note": 50,
      "start": 43.6922,
      "duration": 0.23,
      "velocity": 111,
      "chip": "ym2612"
    },
    {
      "channel": 4,
      "note": 45,
      "start": 43.695,
      "duration": 0.0438,
      "velocity": 122,
      "chip": "ym2612"
    },
    {
      "channel": 3,
      "note": 49,
      "start": 43.6984,
      "duration": 0.1069,
      "velocity": 125,
      "chip": "ym2612"
    },
    {
      "channel": 1,
      "note": 50,
      "start": 43.7014,
      "duration": 0.054,
      "velocity": 125,
      "chip": "ym2612"
    },
    {
      "channel": 3,
      "note": 49,
      "start": 43.9928,
      "duration": 0.0458,
      "velocity": 125,
      "chip": "ym2612"
    },
    {
      "channel": 4,
      "note": 45,
      "start": 44.0755,
      "duration": 0.0465,
      "velocity": 122,
      "chip": "ym2612"
    },
    {
      "channel": 1,
      "note": 44,
      "start": 44.0787,
      "duration": 0.11,
      "velocity": 125,
      "chip": "ym2612"
    },
    {
      "channel": 5,
      "note": 82,
      "start": 44.084,
      "duration": 0.4382,
      "velocity": 117,
      "chip": "ym2612"
    },
    {
      "channel": 0,
      "note": 86,
      "start": 44.0868,
      "duration": 0.4352,
      "velocity": 117,
      "chip": "ym2612"
    },
    {
      "channel": 1,
      "note": 56,
      "start": 44.2427,
      "duration": 0.096,
      "velocity": 125,
      "chip": "ym2612"
    },
    {
      "channel": 2,
      "note": 46,
      "start": 44.3588,
      "duration": 0.1134,
      "velocity": 111,
      "chip": "ym2612"
    },
    {
      "channel": 4,
      "note": 45,
      "start": 44.3615,
      "duration": 0.0439,
      "velocity": 122,
      "chip": "ym2612"
    },
    {
      "channel": 1,
      "note": 44,
      "start": 44.3646,
      "duration": 0.0908,
      "velocity": 125,
      "chip": "ym2612"
    },
    {
      "channel": 2,
      "note": 46,
      "start": 44.6421,
      "duration": 0.1469,
      "velocity": 111,
      "chip": "ym2612"
    },
    {
      "channel": 3,
      "note": 49,
      "start": 44.6452,
      "duration": 0.2601,
      "velocity": 125,
      "chip": "ym2612"
    },
    {
      "channel": 1,
      "note": 44,
      "start": 44.648,
      "duration": 0.1073,
      "velocity": 125,
      "chip": "ym2612"
    },
    {
      "channel": 0,
      "note": 84,
      "start": 44.6515,
      "duration": 0.1371,
      "velocity": 117,
      "chip": "ym2612"
    },
    {
      "channel": 5,
      "note": 80,
      "start": 44.6543,
      "duration": 0.1347,
      "velocity": 117,
      "chip": "ym2612"
    },
    {
      "channel": 1,
      "note": 56,
      "start": 44.9092,
      "duration": 0.0962,
      "velocity": 125,
      "chip": "ym2612"
    },
    {
      "channel": 0,
      "note": 82,
      "start": 44.9124,
      "duration": 0.0929,
      "velocity": 117,
      "chip": "ym2612"
    },
    {
      "channel": 5,
      "note": 77,
      "start": 44.9151,
      "duration": 0.0906,
      "velocity": 117,
      "chip": "ym2612"
    },
    {
      "channel": 1,
      "note": 46,
      "start": 45.0758,
      "duration": 0.1129,
      "velocity": 125,
      "chip": "ym2612"
    },
    {
      "channel": 4,
      "note": 49,
      "start": 45.0929,
      "duration": 0.5291,
      "velocity": 118,
      "chip": "ym2612"
    },
    {
      "channel": 2,
      "note": 46,
      "start": 45.1922,
      "duration": 0.1132,
      "velocity": 111,
      "chip": "ym2612"
    },
    {
      "channel": 3,
      "note": 45,
      "start": 45.1952,
      "duration": 0.0436,
      "velocity": 122,
      "chip": "ym2612"
    },
    {
      "channel": 1,
      "note": 58,
      "start": 45.1984,
      "duration": 0.0403,
      "velocity": 125,
      "chip": "ym2612"
    },
    {
      "channel": 0,
      "note": 75,
      "start": 45.2015,
      "duration": 0.2204,
      "velocity": 117,
      "chip": "ym2612"
    },
    {
      "channel": 5,
      "note": 80,
      "start": 45.2045,
      "duration": 0.2844,
      "velocity": 117,
      "chip": "ym2612"
    },
    {
      "channel": 1,
      "note": 58,
      "start": 45.4589,
      "duration": 0.0798,
      "velocity": 125,
      "chip": "ym2612"
    },
    {
      "channel": 2,
      "note": 46,
      "start": 45.6255,
      "duration": 0.0633,
      "velocity": 111,
      "chip": "ym2612"
    },
    {
      "channel": 3,
      "note": 45,
      "start": 45.6282,
      "duration": 0.0438,
      "velocity": 122,
      "chip": "ym2612"
    },
    {
      "channel": 0,
      "note": 73,
      "start": 45.6318,
      "duration": 0.1735,
      "velocity": 117,
      "chip": "ym2612"
    },
    {
      "channel": 5,
      "note": 77,
      "start": 45.6347,
      "duration": 0.1207,
      "velocity": 117,
      "chip": "ym2612"
    },
    {
      "channel": 1,
      "note": 49,
      "start": 45.742,
      "duration": 0.2801,
      "velocity": 125,
      "chip": "ym2612"
    },
    {
      "channel": 4,
      "note": 58,
      "start": 45.7452,
      "duration": 0.0602,
      "velocity": 125,
      "chip": "ym2612"
    },
    {
      "channel": 2,
      "note": 46,
      "start": 45.909,
      "duration": 0.0632,
      "velocity": 111,
      "chip": "ym2612"
    },
    {
      "channel": 3,
      "note": 45,
      "start": 45.9117,
      "duration": 0.0437,
      "velocity": 122,
      "chip": "ym2612"
    },
    {
      "channel": 0,
      "note": 75,
      "start": 45.9156,
      "duration": 0.1064,
      "velocity": 117,
      "chip": "ym2612"
    },
    {
      "channel": 5,
      "note": 70,
      "start": 45.9183,
      "duration": 0.104,
      "velocity": 117,
      "chip": "ym2612"
    },
    {
      "channel": 2,
      "note": 56,
      "start": 46.0258,
      "duration": 0.1798,
      "velocity": 111,
      "chip": "ym2612"
    },
    {
      "channel": 4,
      "note": 46,
      "start": 46.0292,
      "duration": 0.1095,
      "velocity": 125,
      "chip": "ym2612"
    },
    {
      "channel": 0,
      "note": 68,
      "start": 46.0323,
      "duration": 0.4229,
      "velocity": 117,
      "chip": "ym2612"
    },
    {
      "channel": 5,
      "note": 73,
      "start": 46.0351,
      "duration": 0.4205,
      "velocity": 117,
      "chip": "ym2612"
    },
    {
      "channel": 4,
      "note": 58,
      "start": 46.1759,
      "duration": 0.0961,
      "velocity": 125,
      "chip": "ym2612"
    },
    {
      "channel": 3,
      "note": 45,
      "start": 46.2917,
      "duration": 0.047,
      "velocity": 122,
      "chip": "ym2612"
    },
    {
      "channel": 4,
      "note": 44,
      "start": 46.2949,
      "duration": 0.0938,
      "velocity": 125,
      "chip": "ym2612"
    },
    {
      "channel": 4,
      "note": 56,
      "start": 46.4594,
      "duration": 0.0629,
      "velocity": 125,
      "chip": "ym2612"
    },
    {
      "channel": 3,
      "note": 45,
      "start": 46.4751,
      "duration": 0.0469,
      "velocity": 122,
      "chip": "ym2612"
    },
    {
      "channel": 2,
      "note": 58,
      "start": 46.5753,
      "duration": 0.1803,
      "velocity": 111,
      "chip": "ym2612"
    },
    {
      "channel": 3,
      "note": 45,
      "start": 46.578,
      "duration": 0.044,
      "velocity": 122,
      "chip": "ym2612"
    },
    {
      "channel": 4,
      "note": 44,
      "start": 46.5813,
      "duration": 0.0741,
      "velocity": 125,
      "chip": "ym2612"
    },
    {
      "channel": 2,
      "note": 46,
      "start": 46.8587,
      "duration": 0.1802,
      "velocity": 111,
      "chip": "ym2612"
    },
    {
      "channel": 1,
      "note": 49,
      "start": 46.8614,
      "duration": 0.2606,
      "velocity": 125,
      "chip": "ym2612"
    },
    {
      "channel": 4,
      "note": 44,
      "start": 46.8646,
      "duration": 0.0907,
      "velocity": 125,
      "chip": "ym2612"
    },
    {
      "channel": 4,
      "note": 56,
      "start": 47.1258,
      "duration": 0.0962,
      "velocity": 125,
      "chip": "ym2612"
    },
    {
      "channel": 2,
      "note": 46,
      "start": 47.4088,
      "duration": 0.0634,
      "velocity": 111,
      "chip": "ym2612"
    },
    {
      "channel": 3,
      "note": 45,
      "start": 47.4119,
      "duration": 0.0268,
      "velocity": 122,
      "chip": "ym2612"
    },
    {
      "channel": 4,
      "note": 46,
      "start": 47.415,
      "duration": 0.1071,
      "velocity": 125,
      "chip": "ym2612"
    },
    {
      "channel": 4,
      "note": 58,
      "start": 47.6759,
      "duration": 0.0962,
      "velocity": 125,
      "chip": "ym2612"
    },
    {
      "channel": 2,
      "note": 46,
      "start": 47.8421,
      "duration": 0.1633,
      "velocity": 111,
      "chip": "ym2612"
    },
    {
      "channel": 3,
      "note": 45,
      "start": 47.8449,
      "duration": 0.0439,
      "velocity": 122,
      "chip": "ym2612"
    },
    {
      "channel": 4,
      "note": 46,
      "start": 47.8481,
      "duration": 0.1072,
      "velocity": 125,
      "chip": "ym2612"
    },
    {
      "channel": 1,
      "note": 49,
      "start": 47.9585,
      "duration": 0.2801,
      "velocity": 125,
      "chip": "ym2612"
    },
    {
      "channel": 2,
      "note": 46,
      "start": 48.1259,
      "duration": 0.063,
      "velocity": 111,
      "chip": "ym2612"
    },
    {
      "channel": 3,
      "note": 45,
      "start": 48.1285,
      "duration": 0.0269,
      "velocity": 122,
      "chip": "ym2612"
    },
    {
      "channel": 4,
      "note": 46,
      "start": 48.1316,
      "duration": 0.1072,
      "velocity": 125,
      "chip": "ym2612"
    },
    {
      "channel": 2,
      "note": 49,
      "start": 48.2423,
      "duration": 0.1798,
      "velocity": 111,
      "chip": "ym2612"
    },
    {
      "channel": 4,
      "note": 58,
      "start": 48.2457,
      "duration": 0.0764,
      "velocity": 125,
      "chip": "ym2612"
    },
    {
      "channel": 2,
      "note": 44,
      "start": 48.5087,
      "duration": 0.1802,
      "velocity": 111,
      "chip": "ym2612"
    },
    {
      "channel": 3,
      "note": 45,
      "start": 48.5113,
      "duration": 0.044,
      "velocity": 122,
      "chip": "ym2612"
    },
    {
      "channel": 4,
      "note": 51,
      "start": 48.515,
      "duration": 0.1071,
      "velocity": 125,
      "chip": "ym2612"
    },
    {
      "channel": 0,
      "note": 78,
      "start": 48.5199,
      "duration": 0.1188,
      "velocity": 87,
      "chip": "ym2612"
    },
    {
      "channel": 5,
      "note": 84,
      "start": 48.5227,
      "duration": 0.1162,
      "velocity": 87,
      "chip": "ym2612"
    },
    {
      "channel": 4,
      "note": 63,
      "start": 48.676,
      "duration": 0.0629,
      "velocity": 125,
      "chip": "ym2612"
    },
    {
      "channel": 0,
      "note": 78,
      "start": 48.6787,
      "duration": 0.0599,
      "velocity": 87,
      "chip": "ym2612"
    },
    {
      "channel": 5,
      "note": 84,
      "start": 48.6815,
      "duration": 0.074,
      "velocity": 87,
      "chip": "ym2612"
    },
    {
      "channel": 3,
      "note": 45,
      "start": 48.7917,
      "duration": 0.047,
      "velocity": 122,
      "chip": "ym2612"
    },
    {
      "channel": 4,
      "note": 51,
      "start": 48.7951,
      "duration": 0.077,
      "velocity": 125,
      "chip": "ym2612"
    },
    {
      "channel": 0,
      "note": 77,
      "start": 48.7982,
      "duration": 0.1071,
      "velocity": 87,
      "chip": "ym2612"
    },
    {
      "channel": 5,
      "note": 83,
      "start": 48.801,
      "duration": 0.0712,
      "velocity": 87,
      "chip": "ym2612"
    },
    {
      "channel": 0,
      "note": 78,
      "start": 48.9424,
      "duration": 0.0795,
      "velocity": 87,
      "chip": "ym2612"
    },
    {
      "channel": 5,
      "note": 84,
      "start": 48.9451,
      "duration": 0.077,
      "velocity": 87,
      "chip": "ym2612"
    },
    {
      "channel": 2,
      "note": 44,
      "start": 49.0585,
      "duration": 0.1804,
      "velocity": 111,
      "chip": "ym2612"
    },
    {
      "channel": 1,
      "note": 49,
      "start": 49.0617,
      "duration": 0.277,
      "velocity": 125,
      "chip": "ym2612"
    },
    {
      "channel": 4,
      "note": 51,
      "start": 49.0646,
      "duration": 0.1074,
      "velocity": 125,
      "chip": "ym2612"
    },
    {
      "channel": 0,
      "note": 84,
      "start": 49.2257,
      "duration": 0.1296,
      "velocity": 87,
      "chip": "ym2612"
    },
    {
      "channel": 5,
      "note": 78,
      "start": 49.2285,
      "duration": 0.1104,
      "velocity": 87,
      "chip": "ym2612"
    },
    {
      "channel": 2,
      "note": 51,
      "start": 49.3423,
      "duration": 0.0465,
      "velocity": 111,
      "chip": "ym2612"
    },
    {
      "channel": 4,
      "note": 63,
      "start": 49.3457,
      "duration": 0.0764,
      "velocity": 125,
      "chip": "ym2612"
    },
    {
      "channel": 2,
      "note": 51,
      "start": 49.5087,
      "duration": 0.0637,
      "velocity": 111,
      "chip": "ym2612"
    },
    {
      "channel": 4,
      "note": 51,
      "start": 49.5125,
      "duration": 0.0596,
      "velocity": 125,
      "chip": "ym2612"
    },
    {
      "channel": 0,
      "note": 79,
      "start": 49.5157,
      "duration": 0.0563,
      "velocity": 87,
      "chip": "ym2612"
    },
    {
      "channel": 5,
      "note": 85,
      "start": 49.5183,
      "duration": 0.054,
      "velocity": 87,
      "chip": "ym2612"
    },
    {
      "channel": 3,
      "note": 49,
      "start": 49.5254,
      "duration": 0.53,
      "velocity": 118,
      "chip": "ym2612"
    },
    {
      "channel": 1,
      "note": 45,
      "start": 49.6253,
      "duration": 0.03,
      "velocity": 122,
      "chip": "ym2612"
    },
    {
      "channel": 4,
      "note": 51,
      "start": 49.6286,
      "duration": 0.0934,
      "velocity": 125,
      "chip": "ym2612"
    },
    {
      "channel": 2,
      "note": 51,
      "start": 49.7751,
      "duration": 0.0638,
      "velocity": 111,
      "chip": "ym2612"
    },
    {
      "channel": 4,
      "note": 63,
      "start": 49.7785,
      "duration": 0.0436,
      "velocity": 125,
      "chip": "ym2612"
    },
    {
      "channel": 4,
      "note": 51,
      "start": 49.8925,
      "duration": 0.1129,
      "velocity": 125,
      "chip": "ym2612"
    },
    {
      "channel": 2,
      "note": 51,
      "start": 50.0593,
      "duration": 0.013,
      "velocity": 111,
      "chip": "ym2612"
    },
    {
      "channel": 1,
      "note": 45,
      "start": 50.0619,
      "duration": 0.0434,
      "velocity": 122,
      "chip": "ym2612"
    },
    {
      "channel": 4,
      "note": 63,
      "start": 50.0651,
      "duration": 0.0569,
      "velocity": 125,
      "chip": "ym2612"
    },
    {
      "channel": 2,
      "note": 49,
      "start": 50.1754,
      "duration": 0.0634,
      "velocity": 111,
      "chip": "ym2612"
    },
    {
      "channel": 0,
      "note": 49,
      "start": 50.1784,
      "duration": 0.2602,
      "velocity": 125,
      "chip": "ym2612"
    },
    {
      "channel": 1,
      "note": 45,
      "start": 50.3249,
      "duration": 0.047,
      "velocity": 122,
      "chip": "ym2612"
    },
    {
      "channel": 4,
      "note": 52,
      "start": 50.3283,
      "duration": 0.1106,
      "velocity": 125,
      "chip": "ym2612"
    },
    {
      "channel": 2,
      "note": 51,
      "start": 50.4423,
      "duration": 0.0965,
      "velocity": 111,
      "chip": "ym2612"
    },
    {
      "channel": 5,
      "note": 91,
      "start": 50.4459,
      "duration": 0.1429,
      "velocity": 87,
      "chip": "ym2612"
    },
    {
      "channel": 3,
      "note": 85,
      "start": 50.4486,
      "duration": 0.14,
      "velocity": 87,
      "chip": "ym2612"
    },
    {
      "channel": 2,
      "note": 49,
      "start": 50.6088,
      "duration": 0.2301,
      "velocity": 111,
      "chip": "ym2612"
    },
    {
      "channel": 3,
      "note": 90,
      "start": 50.6122,
      "duration": 0.0931,
      "velocity": 87,
      "chip": "ym2612"
    },
    {
      "channel": 5,
      "note": 84,
      "start": 50.6149,
      "duration": 0.0907,
      "velocity": 87,
      "chip": "ym2612"
    },
    {
      "channel": 1,
      "note": 45,
      "start": 50.7254,
      "duration": 0.0466,
      "velocity": 122,
      "chip": "ym2612"
    },
    {
      "channel": 4,
      "note": 49,
      "start": 50.7289,
      "duration": 0.1098,
      "velocity": 125,
      "chip": "ym2612"
    },
    {
      "channel": 3,
      "note": 83,
      "start": 50.7321,
      "duration": 0.1566,
      "velocity": 87,
      "chip": "ym2612"
    },
    {
      "channel": 5,
      "note": 89,
      "start": 50.7348,
      "duration": 0.1541,
      "velocity": 87,
      "chip": "ym2612"
    },
    {
      "channel": 4,
      "note": 56,
      "start": 50.8928,
      "duration": 0.0627,
      "velocity": 125,
      "chip": "ym2612"
    },
    {
      "channel": 1,
      "note": 45,
      "start": 50.9083,
      "duration": 0.047,
      "velocity": 122,
      "chip": "ym2612"
    },
    {
      "channel": 1,
      "note": 45,
      "start": 51.0083,
      "duration": 0.0303,
      "velocity": 122,
      "chip": "ym2612"
    },
    {
      "channel": 4,
      "note": 49,
      "start": 51.0116,
      "duration": 0.0772,
      "velocity": 125,
      "chip": "ym2612"
    },
    {
      "channel": 3,
      "note": 65,
      "start": 51.1597,
      "duration": 0.2124,
      "velocity": 87,
      "chip": "ym2612"
    },
    {
      "channel": 5,
      "note": 71,
      "start": 51.1623,
      "duration": 0.21,
      "velocity": 87,
      "chip": "ym2612"
    },
    {
      "channel": 0,
      "note": 49,
      "start": 51.2751,
      "duration": 0.2803,
      "velocity": 125,
      "chip": "ym2612"
    },
    {
      "channel": 4,
      "note": 49,
      "start": 51.2779,
      "duration": 0.111,
      "velocity": 125,
      "chip": "ym2612"
    },
    {
      "channel": 4,
      "note": 46,
      "start": 51.559,
      "duration": 0.113,
      "velocity": 125,
      "chip": "ym2612"
    },
    {
      "channel": 1,
      "note": 45,
      "start": 51.825,
      "duration": 0.047,
      "velocity": 122,
      "chip": "ym2612"
    },
    {
      "channel": 4,
      "note": 48,
      "start": 51.8282,
      "duration": 0.1106,
      "velocity": 125,
      "chip": "ym2612"
    },
    {
      "channel": 3,
      "note": 77,
      "start": 51.8325,
      "duration": 0.2562,
      "velocity": 83,
      "chip": "ym2612"
    },
    {
      "channel": 2,
      "note": 53,
      "start": 51.8587,
      "duration": 0.2468,
      "velocity": 111,
      "chip": "ym2612"
    },
    {
      "channel": 4,
      "note": 60,
      "start": 51.9926,
      "duration": 0.0628,
      "velocity": 125,
      "chip": "ym2612"
    },
    {
      "channel": 4,
      "note": 49,
      "start": 52.1097,
      "duration": 0.1124,
      "velocity": 125,
      "chip": "ym2612"
    },
    {
      "channel": 3,
      "note": 78,
      "start": 52.1124,
      "duration": 0.2763,
      "velocity": 83,
      "chip": "ym2612"
    },
    {
      "channel": 2,
      "note": 54,
      "start": 52.1259,
      "duration": 0.2796,
      "velocity": 111,
      "chip": "ym2612"
    },
    {
      "channel": 1,
      "note": 45,
      "start": 52.2751,
      "duration": 0.0303,
      "velocity": 122,
      "chip": "ym2612"
    },
    {
      "channel": 0,
      "note": 49,
      "start": 52.3919,
      "duration": 0.2634,
      "velocity": 125,
      "chip": "ym2612"
    },
    {
      "channel": 4,
      "note": 51,
      "start": 52.3946,
      "duration": 0.1108,
      "velocity": 125,
      "chip": "ym2612"
    },
    {
      "channel": 3,
      "note": 79,
      "start": 52.3976,
      "duration": 0.1746,
      "velocity": 83,
      "chip": "ym2612"
    },
    {
      "channel": 2,
      "note": 55,
      "start": 52.4255,
      "duration": 0.2634,
      "velocity": 111,
      "chip": "ym2612"
    },
    {
      "channel": 5,
      "note": 49,
      "start": 52.4759,
      "duration": 0.0629,
      "velocity": 125,
      "chip": "ym2612"
    },
    {
      "channel": 1,
      "note": 45,
      "start": 52.5418,
      "duration": 0.0468,
      "velocity": 122,
      "chip": "ym2612"
    },
    {
      "channel": 5,
      "note": 49,
      "start": 52.5757,
      "duration": 0.0631,
      "velocity": 125,
      "chip": "ym2612"
    },
    {
      "channel": 5,
      "note": 49,
      "start": 52.659,
      "duration": 0.0632,
      "velocity": 125,
      "chip": "ym2612"
    },
    {
      "channel": 4,
      "note": 53,
      "start": 52.6618,
      "duration": 0.0602,
      "velocity": 125,
      "chip": "ym2612"
    },
    {
      "channel": 5,
      "note": 49,
      "start": 52.7589,
      "duration": 0.0632,
      "velocity": 125,
      "chip": "ym2612"
    },
    {
      "channel": 5,
      "note": 49,
      "start": 52.8425,
      "duration": 0.0629,
      "velocity": 125,
      "chip": "ym2612"
    },
    {
      "channel": 1,
      "note": 45,
      "start": 52.9417,
      "duration": 0.0469,
      "velocity": 122,
      "chip": "ym2612"
    },
    {
      "channel": 4,
      "note": 44,
      "start": 52.9451,
      "duration": 0.1103,
      "velocity": 125,
      "chip": "ym2612"
    },
    {
      "channel": 3,
      "note": 85,
      "start": 52.9491,
      "duration": 0.373,
      "velocity": 117,
      "chip": "ym2612"
    },
    {
      "channel": 0,
      "note": 92,
      "start": 52.9523,
      "duration": 0.3696,
      "velocity": 117,
      "chip": "ym2612"
    },
    {
      "channel": 4,
      "note": 56,
      "start": 53.1091,
      "duration": 0.0796,
      "velocity": 125,
      "chip": "ym2612"
    },
    {
      "channel": 2,
      "note": 46,
      "start": 53.2087,
      "duration": 0.1136,
      "velocity": 111,
      "chip": "ym2612"
    },
    {
      "channel": 1,
      "note": 45,
      "start": 53.2113,
      "duration": 0.044,
      "velocity": 122,
      "chip": "ym2612"
    },
    {
      "channel": 4,
      "note": 44,
      "start": 53.2145,
      "duration": 0.0909,
      "velocity": 125,
      "chip": "ym2612"
    },
    {
      "channel": 2,
      "note": 46,
      "start": 53.4922,
      "duration": 0.1635,
      "velocity": 111,
      "chip": "ym2612"
    },
    {
      "channel": 5,
      "note": 49,
      "start": 53.4951,
      "duration": 0.277,
      "velocity": 125,
      "chip": "ym2612"
    },
    {
      "channel": 4,
      "note": 44,
      "start": 53.498,
      "duration": 0.1073,
      "velocity": 125,
      "chip": "ym2612"
    },
    {
      "channel": 0,
      "note": 84,
      "start": 53.5013,
      "duration": 0.154,
      "velocity": 117,
      "chip": "ym2612"
    },
    {
      "channel": 3,
      "note": 89,
      "start": 53.504,
      "duration": 0.1515,
      "velocity": 117,
      "chip": "ym2612"
    },
    {
      "channel": 4,
      "note": 56,
      "start": 53.7763,
      "duration": 0.0793,
      "velocity": 125,
      "chip": "ym2612"
    },
    {
      "channel": 0,
      "note": 82,
      "start": 53.7795,
      "duration": 0.0758,
      "velocity": 117,
      "chip": "ym2612"
    },
    {
      "channel": 3,
      "note": 85,
      "start": 53.7826,
      "duration": 0.0729,
      "velocity": 117,
      "chip": "ym2612"
    },
    {
      "channel": 4,
      "note": 46,
      "start": 53.9258,
      "duration": 0.113,
      "velocity": 125,
      "chip": "ym2612"
    },
    {
      "channel": 1,
      "note": 44,
      "start": 53.9592,
      "duration": 0.0795,
      "velocity": 118,
      "chip": "ym2612"
    },
    {
      "channel": 2,
      "note": 46,
      "start": 54.0423,
      "duration": 0.1132,
      "velocity": 111,
      "chip": "ym2612"
    },
    {
      "channel": 5,
      "note": 45,
      "start": 54.0456,
      "duration": 0.0433,
      "velocity": 122,
      "chip": "ym2612"
    },
    {
      "channel": 4,
      "note": 58,
      "start": 54.0489,
      "duration": 0.0398,
      "velocity": 125,
      "chip": "ym2612"
    },
    {
      "channel": 0,
      "note": 80,
      "start": 54.0521,
      "duration": 0.2865,
      "velocity": 117,
      "chip": "ym2612"
    },
    {
      "channel": 3,
      "note": 84,
      "start": 54.0548,
      "duration": 0.284,
      "velocity": 117,
      "chip": "ym2612"
    },
    {
      "channel": 4,
      "note": 58,
      "start": 54.3256,
      "duration": 0.0631,
      "velocity": 125,
      "chip": "ym2612"
    },
    {
      "channel": 2,
      "note": 46,
      "start": 54.4925,
      "duration": 0.0631,
      "velocity": 111,
      "chip": "ym2612"
    },
    {
      "channel": 5,
      "note": 45,
      "start": 54.4953,
      "duration": 0.0268,
      "velocity": 122,
      "chip": "ym2612"
    },
    {
      "channel": 0,
      "note": 77,
      "start": 54.4989,
      "duration": 0.0897,
      "velocity": 117,
      "chip": "ym2612"
    },
    {
      "channel": 3,
      "note": 82,
      "start": 54.5016,
      "duration": 0.0872,
      "velocity": 117,
      "chip": "ym2612"
    },
    {
      "channel": 1,
      "note": 49,
      "start": 54.5922,
      "duration": 0.2798,
      "velocity": 125,
      "chip": "ym2612"
    },
    {
      "channel": 4,
      "note": 58,
      "start": 54.5951,
      "duration": 0.077,
      "velocity": 125,
      "chip": "ym2612"
    },
    {
      "channel": 2,
      "note": 46,
      "start": 54.7586,
      "duration": 0.0636,
      "velocity": 111,
      "chip": "ym2612"
    },
    {
      "channel": 5,
      "note": 45,
      "start": 54.7614,
      "duration": 0.044,
      "velocity": 122,
      "chip": "ym2612"
    },
    {
      "channel": 0,
      "note": 75,
      "start": 54.7648,
      "duration": 0.1071,
      "velocity": 117,
      "chip": "ym2612"
    },
    {
      "channel": 3,
      "note": 79,
      "start": 54.7675,
      "duration": 0.1046,
      "velocity": 117,
      "chip": "ym2612"
    },
    {
      "channel": 4,
      "note": 73,
      "start": 54.8598,
      "duration": 0.7123,
      "velocity": 117,
      "chip": "ym2612"
    },
    {
      "channel": 2,
      "note": 56,
      "start": 54.8757,
      "duration": 0.1798,
      "velocity": 111,
      "chip": "ym2612"
    },
    {
      "channel": 5,
      "note": 46,
      "start": 54.8792,
      "duration": 0.1096,
      "velocity": 125,
      "chip": "ym2612"
    },
    {
      "channel": 0,
      "note": 80,
      "start": 54.8828,
      "duration": 0.6558,
      "velocity": 117,
      "chip": "ym2612"
    },
    {
      "channel": 1,
      "note": 49,
      "start": 55.043,
      "duration": 0.0624,
      "velocity": 125,
      "chip": "ym2612"
    },
    {
      "channel": 5,
      "note": 58,
      "start": 55.0464,
      "duration": 0.0757,
      "velocity": 125,
      "chip": "ym2612"
    },
    {
      "channel": 3,
      "note": 45,
      "start": 55.1587,
      "duration": 0.0301,
      "velocity": 122,
      "chip": "ym2612"
    },
    {
      "channel": 5,
      "note": 44,
      "start": 55.1619,
      "duration": 0.077,
      "velocity": 125,
      "chip": "ym2612"
    },
    {
      "channel": 5,
      "note": 56,
      "start": 55.3093,
      "duration": 0.0796,
      "velocity": 125,
      "chip": "ym2612"
    },
    {
      "channel": 3,
      "note": 45,
      "start": 55.3417,
      "duration": 0.0469,
      "velocity": 122,
      "chip": "ym2612"
    },
    {
      "channel": 2,
      "note": 58,
      "start": 55.4253,
      "duration": 0.1802,
      "velocity": 111,
      "chip": "ym2612"
    },
    {
      "channel": 3,
      "note": 45,
      "start": 55.428,
      "duration": 0.044,
      "velocity": 122,
      "chip": "ym2612"
    },
    {
      "channel": 5,
      "note": 44,
      "start": 55.4313,
      "duration": 0.0909,
      "velocity": 125,
      "chip": "ym2612"
    },
    {
      "channel": 2,
      "note": 46,
      "start": 55.7086,
      "duration": 0.1802,
      "velocity": 111,
      "chip": "ym2612"
    },
    {
      "channel": 1,
      "note": 49,
      "start": 55.7115,
      "duration": 0.2605,
      "velocity": 125,
      "chip": "ym2612"
    },
    {
      "channel": 5,
      "note": 44,
      "start": 55.7145,
      "duration": 0.1076,
      "velocity": 125,
      "chip": "ym2612"
    },
    {
      "channel": 5,
      "note": 56,
      "start": 55.9759,
      "duration": 0.0963,
      "velocity": 125,
      "chip": "ym2612"
    },
    {
      "channel": 3,
      "note": 44,
      "start": 56.1755,
      "duration": 0.3799,
      "velocity": 118,
      "chip": "ym2612"
    },
    {
      "channel": 2,
      "note": 46,
      "start": 56.2587,
      "duration": 0.0635,
      "velocity": 111,
      "chip": "ym2612"
    },
    {
      "channel": 0,
      "note": 45,
      "start": 56.2616,
      "duration": 0.0437,
      "velocity": 122,
      "chip": "ym2612"
    },
    {
      "channel": 5,
      "note": 46,
      "start": 56.2648,
      "duration": 0.1074,
      "velocity": 125,
      "chip": "ym2612"
    },
    {
      "channel": 5,
      "note": 58,
      "start": 56.543,
      "duration": 0.0791,
      "velocity": 125,
      "chip": "ym2612"
    },
    {
      "channel": 2,
      "note": 46,
      "start": 56.6921,
      "duration": 0.1635,
      "velocity": 111,
      "chip": "ym2612"
    },
    {
      "channel": 0,
      "note": 45,
      "start": 56.6946,
      "duration": 0.044,
      "velocity": 122,
      "chip": "ym2612"
    },
    {
      "channel": 5,
      "note": 46,
      "start": 56.698,
      "duration": 0.1075,
      "velocity": 125,
      "chip": "ym2612"
    },
    {
      "channel": 1,
      "note": 49,
      "start": 56.8086,
      "duration": 0.28,
      "velocity": 125,
      "chip": "ym2612"
    },
    {
      "channel": 2,
      "note": 46,
      "start": 56.9759,
      "duration": 0.063,
      "velocity": 111,
      "chip": "ym2612"
    },
    {
      "channel": 0,
      "note": 45,
      "start": 56.9788,
      "duration": 0.0431,
      "velocity": 122,
      "chip": "ym2612"
    },
    {
      "channel": 5,
      "note": 46,
      "start": 56.982,
      "duration": 0.1069,
      "velocity": 125,
      "chip": "ym2612"
    },
    {
      "channel": 2,
      "note": 49,
      "start": 57.0922,
      "duration": 0.1799,
      "velocity": 111,
      "chip": "ym2612"
    },
    {
      "channel": 5,
      "note": 58,
      "start": 57.0958,
      "duration": 0.0764,
      "velocity": 125,
      "chip": "ym2612"
    },
    {
      "channel": 4,
      "note": 79,
      "start": 57.2598,
      "duration": 0.0623,
      "velocity": 87,
      "chip": "ym2612"
    },
    {
      "channel": 3,
      "note": 83,
      "start": 57.2635,
      "duration": 0.0585,
      "velocity": 117,
      "chip": "ym2612"
    },
    {
      "channel": 2,
      "note": 44,
      "start": 57.3753,
      "duration": 0.1802,
      "velocity": 111,
      "chip": "ym2612"
    },
    {
      "channel": 0,
      "note": 45,
      "start": 57.3779,
      "duration": 0.0274,
      "velocity": 122,
      "chip": "ym2612"
    },
    {
      "channel": 5,
      "note": 51,
      "start": 57.3812,
      "duration": 0.0909,
      "velocity": 125,
      "chip": "ym2612"
    },
    {
      "channel": 4,
      "note": 80,
      "start": 57.3841,
      "duration": 0.1215,
      "velocity": 87,
      "chip": "ym2612"
    },
    {
      "channel": 3,
      "note": 84,
      "start": 57.3873,
      "duration": 0.1181,
      "velocity": 117,
      "chip": "ym2612"
    },
    {
      "channel": 5,
      "note": 63,
      "start": 57.5263,
      "duration": 0.0625,
      "velocity": 125,
      "chip": "ym2612"
    },
    {
      "channel": 4,
      "note": 87,
      "start": 57.5292,
      "duration": 0.1097,
      "velocity": 87,
      "chip": "ym2612"
    },
    {
      "channel": 3,
      "note": 92,
      "start": 57.5324,
      "duration": 0.1063,
      "velocity": 117,
      "chip": "ym2612"
    },
    {
      "channel": 0,
      "note": 45,
      "start": 57.6419,
      "duration": 0.0468,
      "velocity": 122,
      "chip": "ym2612"
    },
    {
      "channel": 5,
      "note": 51,
      "start": 57.6452,
      "duration": 0.0937,
      "velocity": 125,
      "chip": "ym2612"
    },
    {
      "channel": 4,
      "note": 78,
      "start": 57.6481,
      "duration": 0.124,
      "velocity": 87,
      "chip": "ym2612"
    },
    {
      "channel": 3,
      "note": 81,
      "start": 57.6514,
      "duration": 0.1207,
      "velocity": 117,
      "chip": "ym2612"
    },
    {
      "channel": 4,
      "note": 79,
      "start": 57.8093,
      "duration": 0.1129,
      "velocity": 87,
      "chip": "ym2612"
    },
    {
      "channel": 3,
      "note": 82,
      "start": 57.8124,
      "duration": 0.1096,
      "velocity": 117,
      "chip": "ym2612"
    },
    {
      "channel": 2,
      "note": 44,
      "start": 57.9255,
      "duration": 0.18,
      "velocity": 111,
      "chip": "ym2612"
    },
    {
      "channel": 1,
      "note": 49,
      "start": 57.9282,
      "duration": 0.2604,
      "velocity": 125,
      "chip": "ym2612"
    },
    {
      "channel": 5,
      "note": 51,
      "start": 57.9311,
      "duration": 0.1076,
      "velocity": 125,
      "chip": "ym2612"
    },
    {
      "channel": 4,
      "note": 87,
      "start": 57.9341,
      "duration": 0.1214,
      "velocity": 87,
      "chip": "ym2612"
    },
    {
      "channel": 3,
      "note": 90,
      "start": 57.9376,
      "duration": 0.1177,
      "velocity": 117,
      "chip": "ym2612"
    },
    {
      "channel": 4,
      "note": 74,
      "start": 58.0762,
      "duration": 0.1127,
      "velocity": 87,
      "chip": "ym2612"
    },
    {
      "channel": 3,
      "note": 78,
      "start": 58.0794,
      "duration": 0.1093,
      "velocity": 117,
      "chip": "ym2612"
    },
    {
      "channel": 2,
      "note": 51,
      "start": 58.1924,
      "duration": 0.0465,
      "velocity": 111,
      "chip": "ym2612"
    },
    {
      "channel": 0,
      "note": 49,
      "start": 58.1957,
      "duration": 0.0597,
      "velocity": 125,
      "chip": "ym2612"
    },
    {
      "channel": 5,
      "note": 63,
      "start": 58.1987,
      "duration": 0.0901,
      "velocity": 125,
      "chip": "ym2612"
    },
    {
      "channel": 4,
      "note": 75,
      "start": 58.2016,
      "duration": 0.1372,
      "velocity": 87,
      "chip": "ym2612"
    },
    {
      "channel": 3,
      "note": 80,
      "start": 58.2049,
      "duration": 0.1338,
      "velocity": 117,
      "chip": "ym2612"
    },
    {
      "channel": 2,
      "note": 51,
      "start": 58.3587,
      "duration": 0.0635,
      "velocity": 111,
      "chip": "ym2612"
    },
    {
      "channel": 5,
      "note": 51,
      "start": 58.3622,
      "duration": 0.0599,
      "velocity": 125,
      "chip": "ym2612"
    },
    {
      "channel": 4,
      "note": 84,
      "start": 58.3651,
      "duration": 0.1071,
      "velocity": 87,
      "chip": "ym2612"
    },
    {
      "channel": 3,
      "note": 89,
      "start": 58.3683,
      "duration": 0.1037,
      "velocity": 117,
      "chip": "ym2612"
    },
    {
      "channel": 1,
      "note": 44,
      "start": 58.3758,
      "duration": 0.0961,
      "velocity": 118,
      "chip": "ym2612"
    },
    {
      "channel": 0,
      "note": 45,
      "start": 58.4755,
      "duration": 0.0464,
      "velocity": 122,
      "chip": "ym2612"
    },
    {
      "channel": 5,
      "note": 51,
      "start": 58.4788,
      "duration": 0.11,
      "velocity": 125,
      "chip": "ym2612"
    },
    {
      "channel": 4,
      "note": 73,
      "start": 58.4818,
      "duration": 0.1237,
      "velocity": 87,
      "chip": "ym2612"
    },
    {
      "channel": 3,
      "note": 78,
      "start": 58.4849,
      "duration": 0.1204,
      "velocity": 117,
      "chip": "ym2612"
    },
    {
      "channel": 2,
      "note": 51,
      "start": 58.6422,
      "duration": 0.0633,
      "velocity": 111,
      "chip": "ym2612"
    },
    {
      "channel": 5,
      "note": 63,
      "start": 58.646,
      "duration": 0.0261,
      "velocity": 125,
      "chip": "ym2612"
    },
    {
      "channel": 4,
      "note": 75,
      "start": 58.6489,
      "duration": 0.1066,
      "velocity": 87,
      "chip": "ym2612"
    },
    {
      "channel": 3,
      "note": 79,
      "start": 58.6525,
      "duration": 0.1029,
      "velocity": 117,
      "chip": "ym2612"
    },
    {
      "channel": 1,
      "note": 49,
      "start": 58.7593,
      "duration": 0.0627,
      "velocity": 125,
      "chip": "ym2612"
    },
    {
      "channel": 5,
      "note": 51,
      "start": 58.7623,
      "duration": 0.0932,
      "velocity": 125,
      "chip": "ym2612"
    },
    {
      "channel": 4,
      "note": 82,
      "start": 58.7655,
      "duration": 0.14,
      "velocity": 87,
      "chip": "ym2612"
    },
    {
      "channel": 3,
      "note": 87,
      "start": 58.7688,
      "duration": 0.1366,
      "velocity": 117,
      "chip": "ym2612"
    },
    {
      "channel": 2,
      "note": 51,
      "start": 58.909,
      "duration": 0.0299,
      "velocity": 111,
      "chip": "ym2612"
    },
    {
      "channel": 0,
      "note": 45,
      "start": 58.9115,
      "duration": 0.0438,
      "velocity": 122,
      "chip": "ym2612"
    },
    {
      "channel": 5,
      "note": 63,
      "start": 58.9149,
      "duration": 0.0573,
      "velocity": 125,
      "chip": "ym2612"
    },
    {
      "channel": 4,
      "note": 79,
      "start": 58.9178,
      "duration": 0.1043,
      "velocity": 87,
      "chip": "ym2612"
    },
    {
      "channel": 3,
      "note": 85,
      "start": 58.921,
      "duration": 0.101,
      "velocity": 117,
      "chip": "ym2612"
    },
    {
      "channel": 2,
      "note": 49,
      "start": 59.0256,
      "duration": 0.0633,
      "velocity": 111,
      "chip": "ym2612"
    },
    {
      "channel": 1,
      "note": 49,
      "start": 59.0287,
      "duration": 0.2766,
      "velocity": 125,
      "chip": "ym2612"
    },
    {
      "channel": 4,
      "note": 73,
      "start": 59.0318,
      "duration": 0.1237,
      "velocity": 87,
      "chip": "ym2612"
    },
    {
      "channel": 3,
      "note": 77,
      "start": 59.035,
      "duration": 0.1203,
      "velocity": 117,
      "chip": "ym2612"
    },
    {
      "channel": 0,
      "note": 45,
      "start": 59.1917,
      "duration": 0.047,
      "velocity": 122,
      "chip": "ym2612"
    },
    {
      "channel": 5,
      "note": 49,
      "start": 59.1951,
      "duration": 0.0605,
      "velocity": 125,
      "chip": "ym2612"
    },
    {
      "channel": 2,
      "note": 52,
      "start": 59.1983,
      "duration": 0.1074,
      "velocity": 125,
      "chip": "ym2612"
    },
    {
      "channel": 4,
      "note": 80,
      "start": 59.2012,
      "duration": 0.1044,
      "velocity": 87,
      "chip": "ym2612"
    },
    {
      "channel": 3,
      "note": 84,
      "start": 59.2044,
      "duration": 0.1011,
      "velocity": 117,
      "chip": "ym2612"
    },
    {
      "channel": 0,
      "note": 51,
      "start": 59.3091,
      "duration": 0.0795,
      "velocity": 111,
      "chip": "ym2612"
    },
    {
      "channel": 4,
      "note": 71,
      "start": 59.3125,
      "duration": 0.1263,
      "velocity": 87,
      "chip": "ym2612"
    },
    {
      "channel": 3,
      "note": 74,
      "start": 59.3157,
      "duration": 0.1229,
      "velocity": 117,
      "chip": "ym2612"
    },
    {
      "channel": 0,
      "note": 49,
      "start": 59.4583,
      "duration": 0.097,
      "velocity": 111,
      "chip": "ym2612"
    },
    {
      "channel": 4,
      "note": 72,
      "start": 59.4622,
      "duration": 0.1099,
      "velocity": 87,
      "chip": "ym2612"
    },
    {
      "channel": 3,
      "note": 75,
      "start": 59.4658,
      "duration": 0.1062,
      "velocity": 117,
      "chip": "ym2612"
    },
    {
      "channel": 0,
      "note": 61,
      "start": 59.5753,
      "duration": 0.1632,
      "velocity": 111,
      "chip": "ym2612"
    },
    {
      "channel": 5,
      "note": 45,
      "start": 59.5782,
      "duration": 0.0439,
      "velocity": 122,
      "chip": "ym2612"
    },
    {
      "channel": 1,
      "note": 73,
      "start": 59.5824,
      "duration": 0.1062,
      "velocity": 83,
      "chip": "ym2612"
    },
    {
      "channel": 3,
      "note": 61,
      "start": 59.5874,
      "duration": 0.1513,
      "velocity": 117,
      "chip": "ym2612"
    },
    {
      "channel": 0,
      "note": 54,
      "start": 59.7423,
      "duration": 0.3463,
      "velocity": 111,
      "chip": "ym2612"
    },
    {
      "channel": 1,
      "note": 54,
      "start": 59.7458,
      "duration": 0.2429,
      "velocity": 83,
      "chip": "ym2612"
    },
    {
      "channel": 3,
      "note": 54,
      "start": 59.7488,
      "duration": 0.34,
      "velocity": 117,
      "chip": "ym2612"
    },
    {
      "channel": 5,
      "note": 49,
      "start": 59.8584,
      "duration": 0.0471,
      "velocity": 122,
      "chip": "ym2612"
    },
    {
      "channel": 2,
      "note": 49,
      "start": 59.862,
      "duration": 0.127,
      "velocity": 125,
      "chip": "ym2612"
    },
    {
      "channel": 2,
      "note": 49,
      "start": 59.9927,
      "duration": 0.0964,
      "velocity": 125,
      "chip": "ym2612"
    },
    {
      "channel": 0,
      "note": 56,
      "start": 60.1418,
      "duration": 0.0801,
      "velocity": 111,
      "chip": "ym2612"
    },
    {
      "channel": 5,
      "note": 45,
      "start": 60.1445,
      "duration": 0.0277,
      "velocity": 122,
      "chip": "ym2612"
    },
    {
      "channel": 4,
      "note": 46,
      "start": 60.1481,
      "duration": 0.724,
      "velocity": 118,
      "chip": "ym2612"
    },
    {
      "channel": 1,
      "note": 68,
      "start": 60.1517,
      "duration": 0.087,
      "velocity": 83,
      "chip": "ym2612"
    },
    {
      "channel": 3,
      "note": 56,
      "start": 60.1548,
      "duration": 0.0673,
      "velocity": 117,
      "chip": "ym2612"
    },
    {
      "channel": 0,
      "note": 49,
      "start": 60.2919,
      "duration": 0.2968,
      "velocity": 111,
      "chip": "ym2612"
    },
    {
      "channel": 1,
      "note": 49,
      "start": 60.2953,
      "duration": 0.2934,
      "velocity": 83,
      "chip": "ym2612"
    },
    {
      "channel": 3,
      "note": 49,
      "start": 60.2984,
      "duration": 0.2905,
      "velocity": 117,
      "chip": "ym2612"
    },
    {
      "channel": 5,
      "note": 49,
      "start": 60.4089,
      "duration": 0.0465,
      "velocity": 122,
      "chip": "ym2612"
    },
    {
      "channel": 5,
      "note": 49,
      "start": 60.5083,
      "duration": 0.0304,
      "velocity": 122,
      "chip": "ym2612"
    },
    {
      "channel": 5,
      "note": 49,
      "start": 60.592,
      "duration": 0.0468,
      "velocity": 122,
      "chip": "ym2612"
    },
    {
      "channel": 0,
      "note": 54,
      "start": 60.6919,
      "duration": 0.08,
      "velocity": 111,
      "chip": "ym2612"
    },
    {
      "channel": 5,
      "note": 45,
      "start": 60.6947,
      "duration": 0.0441,
      "velocity": 122,
      "chip": "ym2612"
    },
    {
      "channel": 1,
      "note": 66,
      "start": 60.698,
      "duration": 0.1073,
      "velocity": 83,
      "chip": "ym2612"
    },
    {
      "channel": 3,
      "note": 54,
      "start": 60.7014,
      "duration": 0.0707,
      "velocity": 117,
      "chip": "ym2612"
    },
    {
      "channel": 0,
      "note": 47,
      "start": 60.8419,
      "duration": 0.3467,
      "velocity": 111,
      "chip": "ym2612"
    },
    {
      "channel": 1,
      "note": 47,
      "start": 60.8453,
      "duration": 0.26,
      "velocity": 83,
      "chip": "ym2612"
    },
    {
      "channel": 3,
      "note": 47,
      "start": 60.8484,
      "duration": 0.3404,
      "velocity": 117,
      "chip": "ym2612"
    },
    {
      "channel": 5,
      "note": 49,
      "start": 60.9585,
      "duration": 0.0469,
      "velocity": 122,
      "chip": "ym2612"
    },
    {
      "channel": 2,
      "note": 49,
      "start": 60.9617,
      "duration": 0.1438,
      "velocity": 125,
      "chip": "ym2612"
    },
    {
      "channel": 2,
      "note": 49,
      "start": 61.1093,
      "duration": 0.0798,
      "velocity": 125,
      "chip": "ym2612"
    },
    {
      "channel": 5,
      "note": 49,
      "start": 61.1419,
      "duration": 0.0471,
      "velocity": 122,
      "chip": "ym2612"
    },
    {
      "channel": 0,
      "note": 46,
      "start": 61.2422,
      "duration": 0.1131,
      "velocity": 111,
      "chip": "ym2612"
    },
    {
      "channel": 1,
      "note": 58,
      "start": 61.2457,
      "duration": 0.0596,
      "velocity": 83,
      "chip": "ym2612"
    },
    {
      "channel": 3,
      "note": 46,
      "start": 61.2488,
      "duration": 0.1067,
      "velocity": 117,
      "chip": "ym2612"
    },
    {
      "channel": 0,
      "note": 40,
      "start": 61.4087,
      "duration": 0.33,
      "velocity": 111,
      "chip": "ym2612"
    },
    {
      "channel": 5,
      "note": 45,
      "start": 61.4115,
      "duration": 0.0273,
      "velocity": 122,
      "chip": "ym2612"
    },
    {
      "channel": 1,
      "note": 52,
      "start": 61.4148,
      "duration": 0.2572,
      "velocity": 83,
      "chip": "ym2612"
    },
    {
      "channel": 3,
      "note": 40,
      "start": 61.418,
      "duration": 0.3208,
      "velocity": 117,
      "chip": "ym2612"
    },
    {
      "channel": 2,
      "note": 49,
      "start": 61.5269,
      "duration": 0.0287,
      "velocity": 125,
      "chip": "ym2612"
    },
    {
      "channel": 2,
      "note": 49,
      "start": 61.6096,
      "duration": 0.0459,
      "velocity": 125,
      "chip": "ym2612"
    },
    {
      "channel": 2,
      "note": 49,
      "start": 61.7095,
      "duration": 0.0296,
      "velocity": 125,
      "chip": "ym2612"
    },
    {
      "channel": 5,
      "note": 45,
      "start": 61.7919,
      "duration": 0.0,
      "velocity": 122,
      "chip": "ym2612"
    }
  ]
}