{
  "track_name": "06 - Tropic Gym",
  "duration_sec": 59.381,
  "sample_rate": 44100,
  "note_count": 1274,
  "unique_pitches": 30,
  "pitch_range": 41,
  "avg_note_duration": 0.1828,
  "reconstruction_stats": {
    "notes_reconstructed": 1274,
    "keyon_events": 1274,
    "keyoff_events": 1271,
    "orphan_keyons": 3,
    "unique_pitches": 30,
    "pitch_range": 41,
    "avg_duration_sec": 0.1828
  },
  "metadata": {
    "source": "I\\Insector X\\06 - Tropic Gym.vgm"
  },
  "notes": [
    {
      "channel": 0,
      "note": 59,
      "start": 0.0,
      "duration": 0.214,
      "velocity": 100,
      "chip": "ym2612"
    },
    {
      "channel": 2,
      "note": 59,
      "start": 0.0021,
      "duration": 0.212,
      "velocity": 85,
      "chip": "ym2612"
    },
    {
      "channel": 4,
      "note": 59,
      "start": 0.0046,
      "duration": 0.2097,
      "velocity": 102,
      "chip": "ym2612"
    },
    {
      "channel": 0,
      "note": 76,
      "start": 0.2333,
      "duration": 0.0963,
      "velocity": 100,
      "chip": "ym2612"
    },
    {
      "channel": 1,
      "note": 71,
      "start": 0.2338,
      "duration": 0.0959,
      "velocity": 100,
      "chip": "ym2612"
    },
    {
      "channel": 2,
      "note": 54,
      "start": 0.2339,
      "duration": 0.0959,
      "velocity": 85,
      "chip": "ym2612"
    },
    {
      "channel": 4,
      "note": 59,
      "start": 0.2343,
      "duration": 0.0956,
      "velocity": 102,
      "chip": "ym2612"
    },
    {
      "channel": 0,
      "note": 76,
      "start": 0.3488,
      "duration": 0.0962,
      "velocity": 100,
      "chip": "ym2612"
    },
    {
      "channel": 1,
      "note": 71,
      "start": 0.349,
      "duration": 0.0963,
      "velocity": 100,
      "chip": "ym2612"
    },
    {
      "channel": 2,
      "note": 54,
      "start": 0.3492,
      "duration": 0.0962,
      "velocity": 85,
      "chip": "ym2612"
    },
    {
      "channel": 4,
      "note": 59,
      "start": 0.3495,
      "duration": 0.096,
      "velocity": 102,
      "chip": "ym2612"
    },
    {
      "channel": 0,
      "note": 76,
      "start": 0.4644,
      "duration": 0.2121,
      "velocity": 100,
      "chip": "ym2612"
    },
    {
      "channel": 1,
      "note": 71,
      "start": 0.4646,
      "duration": 0.2121,
      "velocity": 100,
      "chip": "ym2612"
    },
    {
      "channel": 2,
      "note": 57,
      "start": 0.4648,
      "duration": 0.212,
      "velocity": 85,
      "chip": "ym2612"
    },
    {
      "channel": 0,
      "note": 74,
      "start": 0.6956,
      "duration": 0.2118,
      "velocity": 100,
      "chip": "ym2612"
    },
    {
      "channel": 1,
      "note": 69,
      "start": 0.6959,
      "duration": 0.2116,
      "velocity": 100,
      "chip": "ym2612"
    },
    {
      "channel": 2,
      "note": 54,
      "start": 0.696,
      "duration": 0.2116,
      "velocity": 85,
      "chip": "ym2612"
    },
    {
      "channel": 4,
      "note": 59,
      "start": 0.6965,
      "duration": 0.0954,
      "velocity": 102,
      "chip": "ym2612"
    },
    {
      "channel": 4,
      "note": 59,
      "start": 0.8114,
      "duration": 0.0964,
      "velocity": 102,
      "chip": "ym2612"
    },
    {
      "channel": 0,
      "note": 59,
      "start": 0.9268,
      "duration": 0.2118,
      "velocity": 100,
      "chip": "ym2612"
    },
    {
      "channel": 4,
      "note": 59,
      "start": 1.0424,
      "duration": 0.0963,
      "velocity": 102,
      "chip": "ym2612"
    },
    {
      "channel": 0,
      "note": 78,
      "start": 1.1579,
      "duration": 0.0962,
      "velocity": 100,
      "chip": "ym2612"
    },
    {
      "channel": 1,
      "note": 73,
      "start": 1.158,
      "duration": 0.0961,
      "velocity": 100,
      "chip": "ym2612"
    },
    {
      "channel": 2,
      "note": 59,
      "start": 1.1583,
      "duration": 0.2115,
      "velocity": 85,
      "chip": "ym2612"
    },
    {
      "channel": 4,
      "note": 59,
      "start": 1.1587,
      "duration": 0.0957,
      "velocity": 102,
      "chip": "ym2612"
    },
    {
      "channel": 0,
      "note": 59,
      "start": 1.2734,
      "duration": 0.0962,
      "velocity": 100,
      "chip": "ym2612"
    },
    {
      "channel": 4,
      "note": 59,
      "start": 1.2738,
      "duration": 0.0961,
      "velocity": 102,
      "chip": "ym2612"
    },
    {
      "channel": 0,
      "note": 59,
      "start": 1.3889,
      "duration": 0.2118,
      "velocity": 100,
      "chip": "ym2612"
    },
    {
      "channel": 2,
      "note": 52,
      "start": 1.3892,
      "duration": 0.0961,
      "velocity": 85,
      "chip": "ym2612"
    },
    {
      "channel": 2,
      "note": 54,
      "start": 1.5046,
      "duration": 0.0963,
      "velocity": 85,
      "chip": "ym2612"
    },
    {
      "channel": 4,
      "note": 59,
      "start": 1.5049,
      "duration": 0.0962,
      "velocity": 102,
      "chip": "ym2612"
    },
    {
      "channel": 0,
      "note": 74,
      "start": 1.6201,
      "duration": 0.2118,
      "velocity": 100,
      "chip": "ym2612"
    },
    {
      "channel": 1,
      "note": 69,
      "start": 1.6203,
      "duration": 0.2117,
      "velocity": 100,
      "chip": "ym2612"
    },
    {
      "channel": 4,
      "note": 59,
      "start": 1.6205,
      "duration": 0.0959,
      "velocity": 102,
      "chip": "ym2612"
    },
    {
      "channel": 2,
      "note": 57,
      "start": 1.7357,
      "duration": 0.0964,
      "velocity": 85,
      "chip": "ym2612"
    },
    {
      "channel": 4,
      "note": 59,
      "start": 1.7359,
      "duration": 0.0964,
      "velocity": 102,
      "chip": "ym2612"
    },
    {
      "channel": 0,
      "note": 78,
      "start": 1.8512,
      "duration": 0.2118,
      "velocity": 100,
      "chip": "ym2612"
    },
    {
      "channel": 1,
      "note": 73,
      "start": 1.8515,
      "duration": 0.2117,
      "velocity": 100,
      "chip": "ym2612"
    },
    {
      "channel": 4,
      "note": 59,
      "start": 1.8517,
      "duration": 0.2118,
      "velocity": 102,
      "chip": "ym2612"
    },
    {
      "channel": 2,
      "note": 52,
      "start": 1.9669,
      "duration": 0.0964,
      "velocity": 85,
      "chip": "ym2612"
    },
    {
      "channel": 2,
      "note": 54,
      "start": 2.0824,
      "duration": 0.0962,
      "velocity": 85,
      "chip": "ym2612"
    },
    {
      "channel": 4,
      "note": 59,
      "start": 2.0828,
      "duration": 0.096,
      "velocity": 102,
      "chip": "ym2612"
    },
    {
      "channel": 0,
      "note": 83,
      "start": 2.1979,
      "duration": 0.0963,
      "velocity": 100,
      "chip": "ym2612"
    },
    {
      "channel": 1,
      "note": 78,
      "start": 2.1982,
      "duration": 0.0961,
      "velocity": 100,
      "chip": "ym2612"
    },
    {
      "channel": 4,
      "note": 59,
      "start": 2.1986,
      "duration": 0.0959,
      "velocity": 102,
      "chip": "ym2612"
    },
    {
      "channel": 0,
      "note": 81,
      "start": 2.3135,
      "duration": 0.2118,
      "velocity": 100,
      "chip": "ym2612"
    },
    {
      "channel": 1,
      "note": 76,
      "start": 2.3137,
      "duration": 0.2117,
      "velocity": 100,
      "chip": "ym2612"
    },
    {
      "channel": 2,
      "note": 57,
      "start": 2.314,
      "duration": 0.0959,
      "velocity": 85,
      "chip": "ym2612"
    },
    {
      "channel": 2,
      "note": 54,
      "start": 2.4291,
      "duration": 0.0964,
      "velocity": 85,
      "chip": "ym2612"
    },
    {
      "channel": 0,
      "note": 79,
      "start": 2.5446,
      "duration": 0.0963,
      "velocity": 100,
      "chip": "ym2612"
    },
    {
      "channel": 1,
      "note": 74,
      "start": 2.5449,
      "duration": 0.0961,
      "velocity": 100,
      "chip": "ym2612"
    },
    {
      "channel": 4,
      "note": 59,
      "start": 2.5453,
      "duration": 0.0959,
      "velocity": 102,
      "chip": "ym2612"
    },
    {
      "channel": 0,
      "note": 74,
      "start": 2.6602,
      "duration": 0.0962,
      "velocity": 100,
      "chip": "ym2612"
    },
    {
      "channel": 2,
      "note": 50,
      "start": 2.6605,
      "duration": 0.0961,
      "velocity": 85,
      "chip": "ym2612"
    },
    {
      "channel": 4,
      "note": 59,
      "start": 2.6609,
      "duration": 0.0959,
      "velocity": 102,
      "chip": "ym2612"
    },
    {
      "channel": 2,
      "note": 50,
      "start": 2.7758,
      "duration": 0.0963,
      "velocity": 85,
      "chip": "ym2612"
    },
    {
      "channel": 0,
      "note": 78,
      "start": 2.8914,
      "duration": 0.0962,
      "velocity": 100,
      "chip": "ym2612"
    },
    {
      "channel": 1,
      "note": 73,
      "start": 2.8916,
      "duration": 0.0961,
      "velocity": 100,
      "chip": "ym2612"
    },
    {
      "channel": 2,
      "note": 52,
      "start": 2.8918,
      "duration": 0.0961,
      "velocity": 85,
      "chip": "ym2612"
    },
    {
      "channel": 4,
      "note": 59,
      "start": 2.892,
      "duration": 0.096,
      "velocity": 102,
      "chip": "ym2612"
    },
    {
      "channel": 4,
      "note": 59,
      "start": 3.0072,
      "duration": 0.0961,
      "velocity": 102,
      "chip": "ym2612"
    },
    {
      "channel": 0,
      "note": 78,
      "start": 3.1225,
      "duration": 0.0962,
      "velocity": 100,
      "chip": "ym2612"
    },
    {
      "channel": 1,
      "note": 73,
      "start": 3.1227,
      "duration": 0.0962,
      "velocity": 100,
      "chip": "ym2612"
    },
    {
      "channel": 2,
      "note": 52,
      "start": 3.1229,
      "duration": 0.0961,
      "velocity": 85,
      "chip": "ym2612"
    },
    {
      "channel": 4,
      "note": 59,
      "start": 3.1233,
      "duration": 0.0958,
      "velocity": 102,
      "chip": "ym2612"
    },
    {
      "channel": 0,
      "note": 76,
      "start": 3.2381,
      "duration": 0.2118,
      "velocity": 100,
      "chip": "ym2612"
    },
    {
      "channel": 1,
      "note": 71,
      "start": 3.2383,
      "duration": 0.2117,
      "velocity": 100,
      "chip": "ym2612"
    },
    {
      "channel": 4,
      "note": 59,
      "start": 3.3537,
      "duration": 0.0964,
      "velocity": 102,
      "chip": "ym2612"
    },
    {
      "channel": 0,
      "note": 74,
      "start": 3.4692,
      "duration": 0.2118,
      "velocity": 100,
      "chip": "ym2612"
    },
    {
      "channel": 1,
      "note": 69,
      "start": 3.4694,
      "duration": 0.2117,
      "velocity": 100,
      "chip": "ym2612"
    },
    {
      "channel": 4,
      "note": 59,
      "start": 3.4696,
      "duration": 0.0959,
      "velocity": 102,
      "chip": "ym2612"
    },
    {
      "channel": 4,
      "note": 59,
      "start": 3.5848,
      "duration": 0.0965,
      "velocity": 102,
      "chip": "ym2612"
    },
    {
      "channel": 0,
      "note": 59,
      "start": 3.7004,
      "duration": 0.2117,
      "velocity": 100,
      "chip": "ym2612"
    },
    {
      "channel": 2,
      "note": 59,
      "start": 3.7005,
      "duration": 0.2117,
      "velocity": 85,
      "chip": "ym2612"
    },
    {
      "channel": 4,
      "note": 59,
      "start": 3.7007,
      "duration": 0.2116,
      "velocity": 102,
      "chip": "ym2612"
    },
    {
      "channel": 0,
      "note": 76,
      "start": 3.9315,
      "duration": 0.0962,
      "velocity": 100,
      "chip": "ym2612"
    },
    {
      "channel": 1,
      "note": 71,
      "start": 3.9317,
      "duration": 0.0961,
      "velocity": 100,
      "chip": "ym2612"
    },
    {
      "channel": 2,
      "note": 54,
      "start": 3.9319,
      "duration": 0.096,
      "velocity": 85,
      "chip": "ym2612"
    },
    {
      "channel": 4,
      "note": 59,
      "start": 3.9323,
      "duration": 0.0958,
      "velocity": 102,
      "chip": "ym2612"
    },
    {
      "channel": 0,
      "note": 76,
      "start": 4.047,
      "duration": 0.0963,
      "velocity": 100,
      "chip": "ym2612"
    },
    {
      "channel": 1,
      "note": 71,
      "start": 4.0471,
      "duration": 0.0962,
      "velocity": 100,
      "chip": "ym2612"
    },
    {
      "channel": 2,
      "note": 54,
      "start": 4.0472,
      "duration": 0.0963,
      "velocity": 85,
      "chip": "ym2612"
    },
    {
      "channel": 4,
      "note": 59,
      "start": 4.0476,
      "duration": 0.0961,
      "velocity": 102,
      "chip": "ym2612"
    },
    {
      "channel": 0,
      "note": 76,
      "start": 4.1625,
      "duration": 0.2118,
      "velocity": 100,
      "chip": "ym2612"
    },
    {
      "channel": 1,
      "note": 71,
      "start": 4.1627,
      "duration": 0.2118,
      "velocity": 100,
      "chip": "ym2612"
    },
    {
      "channel": 2,
      "note": 57,
      "start": 4.1629,
      "duration": 0.2118,
      "velocity": 85,
      "chip": "ym2612"
    },
    {
      "channel": 0,
      "note": 74,
      "start": 4.3937,
      "duration": 0.2118,
      "velocity": 100,
      "chip": "ym2612"
    },
    {
      "channel": 1,
      "note": 69,
      "start": 4.3939,
      "duration": 0.2117,
      "velocity": 100,
      "chip": "ym2612"
    },
    {
      "channel": 2,
      "note": 54,
      "start": 4.3941,
      "duration": 0.2116,
      "velocity": 85,
      "chip": "ym2612"
    },
    {
      "channel": 4,
      "note": 59,
      "start": 4.3946,
      "duration": 0.0954,
      "velocity": 102,
      "chip": "ym2612"
    },
    {
      "channel": 4,
      "note": 59,
      "start": 4.5099,
      "duration": 0.0961,
      "velocity": 102,
      "chip": "ym2612"
    },
    {
      "channel": 0,
      "note": 59,
      "start": 4.6249,
      "duration": 0.2118,
      "velocity": 100,
      "chip": "ym2612"
    },
    {
      "channel": 4,
      "note": 59,
      "start": 4.7405,
      "duration": 0.0963,
      "velocity": 102,
      "chip": "ym2612"
    },
    {
      "channel": 0,
      "note": 78,
      "start": 4.856,
      "duration": 0.0962,
      "velocity": 100,
      "chip": "ym2612"
    },
    {
      "channel": 1,
      "note": 73,
      "start": 4.8562,
      "duration": 0.0961,
      "velocity": 100,
      "chip": "ym2612"
    },
    {
      "channel": 2,
      "note": 59,
      "start": 4.8564,
      "duration": 0.2115,
      "velocity": 85,
      "chip": "ym2612"
    },
    {
      "channel": 4,
      "note": 59,
      "start": 4.8568,
      "duration": 0.0957,
      "velocity": 102,
      "chip": "ym2612"
    },
    {
      "channel": 0,
      "note": 59,
      "start": 4.9715,
      "duration": 0.0963,
      "velocity": 100,
      "chip": "ym2612"
    },
    {
      "channel": 4,
      "note": 59,
      "start": 4.972,
      "duration": 0.0961,
      "velocity": 102,
      "chip": "ym2612"
    },
    {
      "channel": 0,
      "note": 59,
      "start": 5.0871,
      "duration": 0.2118,
      "velocity": 100,
      "chip": "ym2612"
    },
    {
      "channel": 2,
      "note": 52,
      "start": 5.0873,
      "duration": 0.0961,
      "velocity": 85,
      "chip": "ym2612"
    },
    {
      "channel": 2,
      "note": 54,
      "start": 5.2027,
      "duration": 0.0963,
      "velocity": 85,
      "chip": "ym2612"
    },
    {
      "channel": 4,
      "note": 59,
      "start": 5.203,
      "duration": 0.0962,
      "velocity": 102,
      "chip": "ym2612"
    },
    {
      "channel": 0,
      "note": 74,
      "start": 5.3183,
      "duration": 0.2117,
      "velocity": 100,
      "chip": "ym2612"
    },
    {
      "channel": 1,
      "note": 69,
      "start": 5.3185,
      "duration": 0.2117,
      "velocity": 100,
      "chip": "ym2612"
    },
    {
      "channel": 4,
      "note": 59,
      "start": 5.3187,
      "duration": 0.0959,
      "velocity": 102,
      "chip": "ym2612"
    },
    {
      "channel": 2,
      "note": 57,
      "start": 5.4339,
      "duration": 0.0964,
      "velocity": 85,
      "chip": "ym2612"
    },
    {
      "channel": 4,
      "note": 59,
      "start": 5.4341,
      "duration": 0.0964,
      "velocity": 102,
      "chip": "ym2612"
    },
    {
      "channel": 0,
      "note": 78,
      "start": 5.5494,
      "duration": 0.2118,
      "velocity": 100,
      "chip": "ym2612"
    },
    {
      "channel": 1,
      "note": 73,
      "start": 5.5496,
      "duration": 0.2117,
      "velocity": 100,
      "chip": "ym2612"
    },
    {
      "channel": 4,
      "note": 59,
      "start": 5.5498,
      "duration": 0.2118,
      "velocity": 102,
      "chip": "ym2612"
    },
    {
      "channel": 2,
      "note": 52,
      "start": 5.665,
      "duration": 0.0964,
      "velocity": 85,
      "chip": "ym2612"
    },
    {
      "channel": 2,
      "note": 54,
      "start": 5.7806,
      "duration": 0.0962,
      "velocity": 85,
      "chip": "ym2612"
    },
    {
      "channel": 4,
      "note": 59,
      "start": 5.781,
      "duration": 0.096,
      "velocity": 102,
      "chip": "ym2612"
    },
    {
      "channel": 0,
      "note": 81,
      "start": 5.8961,
      "duration": 0.0962,
      "velocity": 100,
      "chip": "ym2612"
    },
    {
      "channel": 1,
      "note": 76,
      "start": 5.8963,
      "duration": 0.0961,
      "velocity": 100,
      "chip": "ym2612"
    },
    {
      "channel": 4,
      "note": 59,
      "start": 5.8967,
      "duration": 0.0959,
      "velocity": 102,
      "chip": "ym2612"
    },
    {
      "channel": 0,
      "note": 79,
      "start": 6.0117,
      "duration": 0.2118,
      "velocity": 100,
      "chip": "ym2612"
    },
    {
      "channel": 1,
      "note": 74,
      "start": 6.0119,
      "duration": 0.2117,
      "velocity": 100,
      "chip": "ym2612"
    },
    {
      "channel": 2,
      "note": 57,
      "start": 6.0121,
      "duration": 0.2117,
      "velocity": 85,
      "chip": "ym2612"
    },
    {
      "channel": 0,
      "note": 78,
      "start": 6.2432,
      "duration": 0.0958,
      "velocity": 100,
      "chip": "ym2612"
    },
    {
      "channel": 1,
      "note": 73,
      "start": 6.2434,
      "duration": 0.0958,
      "velocity": 100,
      "chip": "ym2612"
    },
    {
      "channel": 2,
      "note": 54,
      "start": 6.2436,
      "duration": 0.2111,
      "velocity": 85,
      "chip": "ym2612"
    },
    {
      "channel": 4,
      "note": 59,
      "start": 6.2441,
      "duration": 0.0952,
      "velocity": 102,
      "chip": "ym2612"
    },
    {
      "channel": 0,
      "note": 71,
      "start": 6.3584,
      "duration": 0.0962,
      "velocity": 100,
      "chip": "ym2612"
    },
    {
      "channel": 4,
      "note": 59,
      "start": 6.3588,
      "duration": 0.0961,
      "velocity": 102,
      "chip": "ym2612"
    },
    {
      "channel": 0,
      "note": 66,
      "start": 6.5895,
      "duration": 0.0962,
      "velocity": 100,
      "chip": "ym2612"
    },
    {
      "channel": 2,
      "note": 54,
      "start": 6.5897,
      "duration": 0.0961,
      "velocity": 85,
      "chip": "ym2612"
    },
    {
      "channel": 4,
      "note": 59,
      "start": 6.59,
      "duration": 0.096,
      "velocity": 102,
      "chip": "ym2612"
    },
    {
      "channel": 0,
      "note": 74,
      "start": 6.7051,
      "duration": 0.0962,
      "velocity": 100,
      "chip": "ym2612"
    },
    {
      "channel": 1,
      "note": 69,
      "start": 6.7053,
      "duration": 0.0961,
      "velocity": 100,
      "chip": "ym2612"
    },
    {
      "channel": 2,
      "note": 57,
      "start": 6.7055,
      "duration": 0.0961,
      "velocity": 85,
      "chip": "ym2612"
    },
    {
      "channel": 4,
      "note": 59,
      "start": 6.7059,
      "duration": 0.0958,
      "velocity": 102,
      "chip": "ym2612"
    },
    {
      "channel": 0,
      "note": 66,
      "start": 6.8207,
      "duration": 0.0962,
      "velocity": 100,
      "chip": "ym2612"
    },
    {
      "channel": 2,
      "note": 54,
      "start": 6.8208,
      "duration": 0.0961,
      "velocity": 85,
      "chip": "ym2612"
    },
    {
      "channel": 4,
      "note": 59,
      "start": 6.8212,
      "duration": 0.0959,
      "velocity": 102,
      "chip": "ym2612"
    },
    {
      "channel": 0,
      "note": 75,
      "start": 6.9362,
      "duration": 0.0963,
      "velocity": 100,
      "chip": "ym2612"
    },
    {
      "channel": 1,
      "note": 70,
      "start": 6.9364,
      "duration": 0.0961,
      "velocity": 100,
      "chip": "ym2612"
    },
    {
      "channel": 2,
      "note": 58,
      "start": 6.9366,
      "duration": 0.0961,
      "velocity": 85,
      "chip": "ym2612"
    },
    {
      "channel": 0,
      "note": 66,
      "start": 7.0518,
      "duration": 0.0962,
      "velocity": 100,
      "chip": "ym2612"
    },
    {
      "channel": 2,
      "note": 54,
      "start": 7.052,
      "duration": 0.0961,
      "velocity": 85,
      "chip": "ym2612"
    },
    {
      "channel": 4,
      "note": 59,
      "start": 7.0522,
      "duration": 0.0961,
      "velocity": 102,
      "chip": "ym2612"
    },
    {
      "channel": 0,
      "note": 77,
      "start": 7.1673,
      "duration": 0.0962,
      "velocity": 100,
      "chip": "ym2612"
    },
    {
      "channel": 1,
      "note": 71,
      "start": 7.1675,
      "duration": 0.0961,
      "velocity": 100,
      "chip": "ym2612"
    },
    {
      "channel": 2,
      "note": 59,
      "start": 7.1677,
      "duration": 0.0961,
      "velocity": 85,
      "chip": "ym2612"
    },
    {
      "channel": 4,
      "note": 59,
      "start": 7.1679,
      "duration": 0.0961,
      "velocity": 102,
      "chip": "ym2612"
    },
    {
      "channel": 0,
      "note": 66,
      "start": 7.2829,
      "duration": 0.0963,
      "velocity": 100,
      "chip": "ym2612"
    },
    {
      "channel": 2,
      "note": 54,
      "start": 7.2831,
      "duration": 0.0961,
      "velocity": 85,
      "chip": "ym2612"
    },
    {
      "channel": 4,
      "note": 59,
      "start": 7.2833,
      "duration": 0.0961,
      "velocity": 102,
      "chip": "ym2612"
    },
    {
      "channel": 0,
      "note": 59,
      "start": 7.3985,
      "duration": 0.2118,
      "velocity": 100,
      "chip": "ym2612"
    },
    {
      "channel": 1,
      "note": 71,
      "start": 7.3986,
      "duration": 0.0961,
      "velocity": 100,
      "chip": "ym2612"
    },
    {
      "channel": 2,
      "note": 59,
      "start": 7.3989,
      "duration": 0.2116,
      "velocity": 85,
      "chip": "ym2612"
    },
    {
      "channel": 3,
      "note": 76,
      "start": 7.3993,
      "duration": 0.3272,
      "velocity": 106,
      "chip": "ym2612"
    },
    {
      "channel": 4,
      "note": 59,
      "start": 7.3994,
      "duration": 0.2112,
      "velocity": 102,
      "chip": "ym2612"
    },
    {
      "channel": 1,
      "note": 71,
      "start": 7.514,
      "duration": 0.0964,
      "velocity": 100,
      "chip": "ym2612"
    },
    {
      "channel": 0,
      "note": 76,
      "start": 7.6296,
      "duration": 0.0962,
      "velocity": 100,
      "chip": "ym2612"
    },
    {
      "channel": 1,
      "note": 71,
      "start": 7.6298,
      "duration": 0.2118,
      "velocity": 100,
      "chip": "ym2612"
    },
    {
      "channel": 2,
      "note": 54,
      "start": 7.6299,
      "duration": 0.096,
      "velocity": 85,
      "chip": "ym2612"
    },
    {
      "channel": 4,
      "note": 59,
      "start": 7.6303,
      "duration": 0.0963,
      "velocity": 102,
      "chip": "ym2612"
    },
    {
      "channel": 0,
      "note": 76,
      "start": 7.7451,
      "duration": 0.0963,
      "velocity": 100,
      "chip": "ym2612"
    },
    {
      "channel": 2,
      "note": 54,
      "start": 7.7453,
      "duration": 0.0964,
      "velocity": 85,
      "chip": "ym2612"
    },
    {
      "channel": 3,
      "note": 83,
      "start": 7.7455,
      "duration": 3.1009,
      "velocity": 106,
      "chip": "ym2612"
    },
    {
      "channel": 4,
      "note": 59,
      "start": 7.7459,
      "duration": 0.0959,
      "velocity": 102,
      "chip": "ym2612"
    },
    {
      "channel": 5,
      "note": 78,
      "start": 7.7462,
      "duration": 1.4824,
      "velocity": 106,
      "chip": "ym2612"
    },
    {
      "channel": 0,
      "note": 76,
      "start": 7.8607,
      "duration": 0.2118,
      "velocity": 100,
      "chip": "ym2612"
    },
    {
      "channel": 1,
      "note": 69,
      "start": 7.8609,
      "duration": 0.2118,
      "velocity": 100,
      "chip": "ym2612"
    },
    {
      "channel": 2,
      "note": 57,
      "start": 7.8611,
      "duration": 0.2116,
      "velocity": 85,
      "chip": "ym2612"
    },
    {
      "channel": 0,
      "note": 74,
      "start": 8.0918,
      "duration": 0.2118,
      "velocity": 100,
      "chip": "ym2612"
    },
    {
      "channel": 2,
      "note": 54,
      "start": 8.0921,
      "duration": 0.2117,
      "velocity": 85,
      "chip": "ym2612"
    },
    {
      "channel": 4,
      "note": 59,
      "start": 8.0925,
      "duration": 0.0956,
      "velocity": 102,
      "chip": "ym2612"
    },
    {
      "channel": 4,
      "note": 59,
      "start": 8.2077,
      "duration": 0.0962,
      "velocity": 102,
      "chip": "ym2612"
    },
    {
      "channel": 0,
      "note": 59,
      "start": 8.323,
      "duration": 0.2118,
      "velocity": 100,
      "chip": "ym2612"
    },
    {
      "channel": 1,
      "note": 73,
      "start": 8.3232,
      "duration": 0.096,
      "velocity": 100,
      "chip": "ym2612"
    },
    {
      "channel": 4,
      "note": 59,
      "start": 8.4387,
      "duration": 0.0963,
      "velocity": 102,
      "chip": "ym2612"
    },
    {
      "channel": 0,
      "note": 78,
      "start": 8.5541,
      "duration": 0.0962,
      "velocity": 100,
      "chip": "ym2612"
    },
    {
      "channel": 2,
      "note": 59,
      "start": 8.5544,
      "duration": 0.2117,
      "velocity": 85,
      "chip": "ym2612"
    },
    {
      "channel": 4,
      "note": 59,
      "start": 8.5548,
      "duration": 0.0958,
      "velocity": 102,
      "chip": "ym2612"
    },
    {
      "channel": 0,
      "note": 59,
      "start": 8.6697,
      "duration": 0.0962,
      "velocity": 100,
      "chip": "ym2612"
    },
    {
      "channel": 4,
      "note": 59,
      "start": 8.6701,
      "duration": 0.0961,
      "velocity": 102,
      "chip": "ym2612"
    },
    {
      "channel": 0,
      "note": 59,
      "start": 8.7852,
      "duration": 0.2118,
      "velocity": 100,
      "chip": "ym2612"
    },
    {
      "channel": 1,
      "note": 69,
      "start": 8.7854,
      "duration": 0.2118,
      "velocity": 100,
      "chip": "ym2612"
    },
    {
      "channel": 2,
      "note": 52,
      "start": 8.7856,
      "duration": 0.0959,
      "velocity": 85,
      "chip": "ym2612"
    },
    {
      "channel": 2,
      "note": 54,
      "start": 8.9009,
      "duration": 0.0964,
      "velocity": 85,
      "chip": "ym2612"
    },
    {
      "channel": 4,
      "note": 59,
      "start": 8.9011,
      "duration": 0.0963,
      "velocity": 102,
      "chip": "ym2612"
    },
    {
      "channel": 0,
      "note": 74,
      "start": 9.0164,
      "duration": 0.2118,
      "velocity": 100,
      "chip": "ym2612"
    },
    {
      "channel": 4,
      "note": 59,
      "start": 9.0166,
      "duration": 0.0961,
      "velocity": 102,
      "chip": "ym2612"
    },
    {
      "channel": 2,
      "note": 57,
      "start": 9.132,
      "duration": 0.0963,
      "velocity": 85,
      "chip": "ym2612"
    },
    {
      "channel": 4,
      "note": 59,
      "start": 9.1322,
      "duration": 0.0963,
      "velocity": 102,
      "chip": "ym2612"
    },
    {
      "channel": 0,
      "note": 78,
      "start": 9.2476,
      "duration": 0.2117,
      "velocity": 100,
      "chip": "ym2612"
    },
    {
      "channel": 1,
      "note": 73,
      "start": 9.2478,
      "duration": 0.212,
      "velocity": 100,
      "chip": "ym2612"
    },
    {
      "channel": 4,
      "note": 59,
      "start": 9.2479,
      "duration": 0.2122,
      "velocity": 102,
      "chip": "ym2612"
    },
    {
      "channel": 5,
      "note": 74,
      "start": 9.2481,
      "duration": 0.4039,
      "velocity": 106,
      "chip": "ym2612"
    },
    {
      "channel": 2,
      "note": 52,
      "start": 9.3632,
      "duration": 0.0968,
      "velocity": 85,
      "chip": "ym2612"
    },
    {
      "channel": 2,
      "note": 54,
      "start": 9.4787,
      "duration": 0.0962,
      "velocity": 85,
      "chip": "ym2612"
    },
    {
      "channel": 4,
      "note": 59,
      "start": 9.4791,
      "duration": 0.0959,
      "velocity": 102,
      "chip": "ym2612"
    },
    {
      "channel": 0,
      "note": 83,
      "start": 9.5943,
      "duration": 0.0962,
      "velocity": 100,
      "chip": "ym2612"
    },
    {
      "channel": 1,
      "note": 78,
      "start": 9.5944,
      "duration": 0.0961,
      "velocity": 100,
      "chip": "ym2612"
    },
    {
      "channel": 4,
      "note": 59,
      "start": 9.5948,
      "duration": 0.0959,
      "velocity": 102,
      "chip": "ym2612"
    },
    {
      "channel": 0,
      "note": 81,
      "start": 9.71,
      "duration": 0.2116,
      "velocity": 100,
      "chip": "ym2612"
    },
    {
      "channel": 1,
      "note": 76,
      "start": 9.7102,
      "duration": 0.2115,
      "velocity": 100,
      "chip": "ym2612"
    },
    {
      "channel": 2,
      "note": 57,
      "start": 9.7103,
      "duration": 0.0957,
      "velocity": 85,
      "chip": "ym2612"
    },
    {
      "channel": 5,
      "note": 76,
      "start": 9.7106,
      "duration": 1.2707,
      "velocity": 106,
      "chip": "ym2612"
    },
    {
      "channel": 2,
      "note": 54,
      "start": 9.8254,
      "duration": 0.0964,
      "velocity": 85,
      "chip": "ym2612"
    },
    {
      "channel": 0,
      "note": 79,
      "start": 9.941,
      "duration": 0.0962,
      "velocity": 100,
      "chip": "ym2612"
    },
    {
      "channel": 1,
      "note": 74,
      "start": 9.9411,
      "duration": 0.0961,
      "velocity": 100,
      "chip": "ym2612"
    },
    {
      "channel": 4,
      "note": 59,
      "start": 9.9417,
      "duration": 0.0958,
      "velocity": 102,
      "chip": "ym2612"
    },
    {
      "channel": 0,
      "note": 74,
      "start": 10.0565,
      "duration": 0.0963,
      "velocity": 100,
      "chip": "ym2612"
    },
    {
      "channel": 2,
      "note": 50,
      "start": 10.0567,
      "duration": 0.0961,
      "velocity": 85,
      "chip": "ym2612"
    },
    {
      "channel": 4,
      "note": 59,
      "start": 10.0571,
      "duration": 0.0959,
      "velocity": 102,
      "chip": "ym2612"
    },
    {
      "channel": 2,
      "note": 50,
      "start": 10.1721,
      "duration": 0.0962,
      "velocity": 85,
      "chip": "ym2612"
    },
    {
      "channel": 0,
      "note": 78,
      "start": 10.2876,
      "duration": 0.0962,
      "velocity": 100,
      "chip": "ym2612"
    },
    {
      "channel": 1,
      "note": 73,
      "start": 10.2878,
      "duration": 0.0961,
      "velocity": 100,
      "chip": "ym2612"
    },
    {
      "channel": 2,
      "note": 52,
      "start": 10.288,
      "duration": 0.0961,
      "velocity": 85,
      "chip": "ym2612"
    },
    {
      "channel": 4,
      "note": 59,
      "start": 10.2883,
      "duration": 0.096,
      "velocity": 102,
      "chip": "ym2612"
    },
    {
      "channel": 4,
      "note": 59,
      "start": 10.4034,
      "duration": 0.0961,
      "velocity": 102,
      "chip": "ym2612"
    },
    {
      "channel": 0,
      "note": 78,
      "start": 10.5188,
      "duration": 0.0962,
      "velocity": 100,
      "chip": "ym2612"
    },
    {
      "channel": 1,
      "note": 73,
      "start": 10.519,
      "duration": 0.0961,
      "velocity": 100,
      "chip": "ym2612"
    },
    {
      "channel": 2,
      "note": 52,
      "start": 10.5192,
      "duration": 0.0961,
      "velocity": 85,
      "chip": "ym2612"
    },
    {
      "channel": 4,
      "note": 59,
      "start": 10.5196,
      "duration": 0.0958,
      "velocity": 102,
      "chip": "ym2612"
    },
    {
      "channel": 0,
      "note": 76,
      "start": 10.6343,
      "duration": 0.2118,
      "velocity": 100,
      "chip": "ym2612"
    },
    {
      "channel": 1,
      "note": 71,
      "start": 10.6345,
      "duration": 0.2117,
      "velocity": 100,
      "chip": "ym2612"
    },
    {
      "channel": 4,
      "note": 59,
      "start": 10.75,
      "duration": 0.0966,
      "velocity": 102,
      "chip": "ym2612"
    },
    {
      "channel": 0,
      "note": 74,
      "start": 10.8654,
      "duration": 0.2118,
      "velocity": 100,
      "chip": "ym2612"
    },
    {
      "channel": 1,
      "note": 69,
      "start": 10.8657,
      "duration": 0.2116,
      "velocity": 100,
      "chip": "ym2612"
    },
    {
      "channel": 3,
      "note": 85,
      "start": 10.8659,
      "duration": 0.0958,
      "velocity": 106,
      "chip": "ym2612"
    },
    {
      "channel": 4,
      "note": 59,
      "start": 10.8661,
      "duration": 0.0958,
      "velocity": 102,
      "chip": "ym2612"
    },
    {
      "channel": 3,
      "note": 86,
      "start": 10.9811,
      "duration": 0.0964,
      "velocity": 106,
      "chip": "ym2612"
    },
    {
      "channel": 4,
      "note": 59,
      "start": 10.9813,
      "duration": 0.0964,
      "velocity": 102,
      "chip": "ym2612"
    },
    {
      "channel": 0,
      "note": 59,
      "start": 11.0966,
      "duration": 0.2118,
      "velocity": 100,
      "chip": "ym2612"
    },
    {
      "channel": 2,
      "note": 59,
      "start": 11.0968,
      "duration": 0.2117,
      "velocity": 85,
      "chip": "ym2612"
    },
    {
      "channel": 3,
      "note": 88,
      "start": 11.0971,
      "duration": 1.2129,
      "velocity": 106,
      "chip": "ym2612"
    },
    {
      "channel": 4,
      "note": 59,
      "start": 11.0972,
      "duration": 0.2115,
      "velocity": 102,
      "chip": "ym2612"
    },
    {
      "channel": 5,
      "note": 81,
      "start": 11.0974,
      "duration": 1.6176,
      "velocity": 106,
      "chip": "ym2612"
    },
    {
      "channel": 0,
      "note": 76,
      "start": 11.3277,
      "duration": 0.0962,
      "velocity": 100,
      "chip": "ym2612"
    },
    {
      "channel": 1,
      "note": 71,
      "start": 11.328,
      "duration": 0.0961,
      "velocity": 100,
      "chip": "ym2612"
    },
    {
      "channel": 2,
      "note": 54,
      "start": 11.3282,
      "duration": 0.0961,
      "velocity": 85,
      "chip": "ym2612"
    },
    {
      "channel": 4,
      "note": 59,
      "start": 11.3285,
      "duration": 0.0958,
      "velocity": 102,
      "chip": "ym2612"
    },
    {
      "channel": 0,
      "note": 76,
      "start": 11.4432,
      "duration": 0.0962,
      "velocity": 100,
      "chip": "ym2612"
    },
    {
      "channel": 1,
      "note": 71,
      "start": 11.4434,
      "duration": 0.0963,
      "velocity": 100,
      "chip": "ym2612"
    },
    {
      "channel": 2,
      "note": 54,
      "start": 11.4436,
      "duration": 0.0962,
      "velocity": 85,
      "chip": "ym2612"
    },
    {
      "channel": 4,
      "note": 59,
      "start": 11.4439,
      "duration": 0.0961,
      "velocity": 102,
      "chip": "ym2612"
    },
    {
      "channel": 0,
      "note": 76,
      "start": 11.5588,
      "duration": 0.2118,
      "velocity": 100,
      "chip": "ym2612"
    },
    {
      "channel": 1,
      "note": 71,
      "start": 11.559,
      "duration": 0.2118,
      "velocity": 100,
      "chip": "ym2612"
    },
    {
      "channel": 2,
      "note": 57,
      "start": 11.5591,
      "duration": 0.2118,
      "velocity": 85,
      "chip": "ym2612"
    },
    {
      "channel": 0,
      "note": 74,
      "start": 11.79,
      "duration": 0.2118,
      "velocity": 100,
      "chip": "ym2612"
    },
    {
      "channel": 1,
      "note": 69,
      "start": 11.7902,
      "duration": 0.2117,
      "velocity": 100,
      "chip": "ym2612"
    },
    {
      "channel": 2,
      "note": 54,
      "start": 11.7904,
      "duration": 0.2116,
      "velocity": 85,
      "chip": "ym2612"
    },
    {
      "channel": 4,
      "note": 59,
      "start": 11.7909,
      "duration": 0.0954,
      "velocity": 102,
      "chip": "ym2612"
    },
    {
      "channel": 4,
      "note": 59,
      "start": 11.9058,
      "duration": 0.0964,
      "velocity": 102,
      "chip": "ym2612"
    },
    {
      "channel": 0,
      "note": 59,
      "start": 12.0211,
      "duration": 0.2118,
      "velocity": 100,
      "chip": "ym2612"
    },
    {
      "channel": 4,
      "note": 59,
      "start": 12.1368,
      "duration": 0.0963,
      "velocity": 102,
      "chip": "ym2612"
    },
    {
      "channel": 0,
      "note": 78,
      "start": 12.2523,
      "duration": 0.0962,
      "velocity": 100,
      "chip": "ym2612"
    },
    {
      "channel": 1,
      "note": 73,
      "start": 12.2525,
      "duration": 0.0961,
      "velocity": 100,
      "chip": "ym2612"
    },
    {
      "channel": 2,
      "note": 59,
      "start": 12.2527,
      "duration": 0.2115,
      "velocity": 85,
      "chip": "ym2612"
    },
    {
      "channel": 4,
      "note": 59,
      "start": 12.2531,
      "duration": 0.0957,
      "velocity": 102,
      "chip": "ym2612"
    },
    {
      "channel": 0,
      "note": 59,
      "start": 12.3678,
      "duration": 0.0962,
      "velocity": 100,
      "chip": "ym2612"
    },
    {
      "channel": 4,
      "note": 59,
      "start": 12.3682,
      "duration": 0.0961,
      "velocity": 102,
      "chip": "ym2612"
    },
    {
      "channel": 0,
      "note": 59,
      "start": 12.4833,
      "duration": 0.2118,
      "velocity": 100,
      "chip": "ym2612"
    },
    {
      "channel": 2,
      "note": 52,
      "start": 12.4836,
      "duration": 0.0961,
      "velocity": 85,
      "chip": "ym2612"
    },
    {
      "channel": 3,
      "note": 86,
      "start": 12.4838,
      "duration": 0.4041,
      "velocity": 106,
      "chip": "ym2612"
    },
    {
      "channel": 2,
      "note": 54,
      "start": 12.599,
      "duration": 0.0963,
      "velocity": 85,
      "chip": "ym2612"
    },
    {
      "channel": 4,
      "note": 59,
      "start": 12.5992,
      "duration": 0.0963,
      "velocity": 102,
      "chip": "ym2612"
    },
    {
      "channel": 0,
      "note": 74,
      "start": 12.7146,
      "duration": 0.212,
      "velocity": 100,
      "chip": "ym2612"
    },
    {
      "channel": 1,
      "note": 69,
      "start": 12.7147,
      "duration": 0.2119,
      "velocity": 100,
      "chip": "ym2612"
    },
    {
      "channel": 4,
      "note": 59,
      "start": 12.7149,
      "duration": 0.0959,
      "velocity": 102,
      "chip": "ym2612"
    },
    {
      "channel": 2,
      "note": 57,
      "start": 12.8301,
      "duration": 0.0966,
      "velocity": 85,
      "chip": "ym2612"
    },
    {
      "channel": 4,
      "note": 59,
      "start": 12.8303,
      "duration": 0.0966,
      "velocity": 102,
      "chip": "ym2612"
    },
    {
      "channel": 0,
      "note": 78,
      "start": 12.9456,
      "duration": 0.2118,
      "velocity": 100,
      "chip": "ym2612"
    },
    {
      "channel": 1,
      "note": 73,
      "start": 12.9459,
      "duration": 0.2117,
      "velocity": 100,
      "chip": "ym2612"
    },
    {
      "channel": 3,
      "note": 85,
      "start": 12.9461,
      "duration": 0.8087,
      "velocity": 106,
      "chip": "ym2612"
    },
    {
      "channel": 4,
      "note": 59,
      "start": 12.9463,
      "duration": 0.2116,
      "velocity": 102,
      "chip": "ym2612"
    },
    {
      "channel": 5,
      "note": 78,
      "start": 12.9465,
      "duration": 2.0606,
      "velocity": 106,
      "chip": "ym2612"
    },
    {
      "channel": 2,
      "note": 52,
      "start": 13.0613,
      "duration": 0.0964,
      "velocity": 85,
      "chip": "ym2612"
    },
    {
      "channel": 2,
      "note": 54,
      "start": 13.1768,
      "duration": 0.0962,
      "velocity": 85,
      "chip": "ym2612"
    },
    {
      "channel": 4,
      "note": 59,
      "start": 13.1772,
      "duration": 0.096,
      "velocity": 102,
      "chip": "ym2612"
    },
    {
      "channel": 0,
      "note": 81,
      "start": 13.2923,
      "duration": 0.0962,
      "velocity": 100,
      "chip": "ym2612"
    },
    {
      "channel": 1,
      "note": 76,
      "start": 13.2925,
      "duration": 0.0962,
      "velocity": 100,
      "chip": "ym2612"
    },
    {
      "channel": 4,
      "note": 59,
      "start": 13.2934,
      "duration": 0.0955,
      "velocity": 102,
      "chip": "ym2612"
    },
    {
      "channel": 0,
      "note": 79,
      "start": 13.4079,
      "duration": 0.2118,
      "velocity": 100,
      "chip": "ym2612"
    },
    {
      "channel": 1,
      "note": 74,
      "start": 13.4081,
      "duration": 0.2117,
      "velocity": 100,
      "chip": "ym2612"
    },
    {
      "channel": 2,
      "note": 57,
      "start": 13.4084,
      "duration": 0.2116,
      "velocity": 85,
      "chip": "ym2612"
    },
    {
      "channel": 0,
      "note": 78,
      "start": 13.639,
      "duration": 0.0962,
      "velocity": 100,
      "chip": "ym2612"
    },
    {
      "channel": 1,
      "note": 73,
      "start": 13.6393,
      "duration": 0.0961,
      "velocity": 100,
      "chip": "ym2612"
    },
    {
      "channel": 2,
      "note": 54,
      "start": 13.6395,
      "duration": 0.2115,
      "velocity": 85,
      "chip": "ym2612"
    },
    {
      "channel": 4,
      "note": 59,
      "start": 13.6399,
      "duration": 0.0957,
      "velocity": 102,
      "chip": "ym2612"
    },
    {
      "channel": 0,
      "note": 71,
      "start": 13.7546,
      "duration": 0.0962,
      "velocity": 100,
      "chip": "ym2612"
    },
    {
      "channel": 4,
      "note": 59,
      "start": 13.7552,
      "duration": 0.0959,
      "velocity": 102,
      "chip": "ym2612"
    },
    {
      "channel": 3,
      "note": 83,
      "start": 13.8703,
      "duration": 0.8092,
      "velocity": 106,
      "chip": "ym2612"
    },
    {
      "channel": 0,
      "note": 66,
      "start": 13.9857,
      "duration": 0.0962,
      "velocity": 100,
      "chip": "ym2612"
    },
    {
      "channel": 2,
      "note": 54,
      "start": 13.986,
      "duration": 0.0961,
      "velocity": 85,
      "chip": "ym2612"
    },
    {
      "channel": 4,
      "note": 59,
      "start": 13.9862,
      "duration": 0.0961,
      "velocity": 102,
      "chip": "ym2612"
    },
    {
      "channel": 0,
      "note": 74,
      "start": 14.1013,
      "duration": 0.0962,
      "velocity": 100,
      "chip": "ym2612"
    },
    {
      "channel": 1,
      "note": 69,
      "start": 14.1015,
      "duration": 0.0962,
      "velocity": 100,
      "chip": "ym2612"
    },
    {
      "channel": 2,
      "note": 57,
      "start": 14.1018,
      "duration": 0.0961,
      "velocity": 85,
      "chip": "ym2612"
    },
    {
      "channel": 4,
      "note": 59,
      "start": 14.1021,
      "duration": 0.0958,
      "velocity": 102,
      "chip": "ym2612"
    },
    {
      "channel": 0,
      "note": 66,
      "start": 14.2169,
      "duration": 0.0962,
      "velocity": 100,
      "chip": "ym2612"
    },
    {
      "channel": 2,
      "note": 54,
      "start": 14.2172,
      "duration": 0.0961,
      "velocity": 85,
      "chip": "ym2612"
    },
    {
      "channel": 4,
      "note": 59,
      "start": 14.2175,
      "duration": 0.0959,
      "velocity": 102,
      "chip": "ym2612"
    },
    {
      "channel": 0,
      "note": 75,
      "start": 14.3325,
      "duration": 0.0962,
      "velocity": 100,
      "chip": "ym2612"
    },
    {
      "channel": 1,
      "note": 70,
      "start": 14.3327,
      "duration": 0.0961,
      "velocity": 100,
      "chip": "ym2612"
    },
    {
      "channel": 2,
      "note": 58,
      "start": 14.3329,
      "duration": 0.0961,
      "velocity": 85,
      "chip": "ym2612"
    },
    {
      "channel": 0,
      "note": 66,
      "start": 14.448,
      "duration": 0.0962,
      "velocity": 100,
      "chip": "ym2612"
    },
    {
      "channel": 2,
      "note": 54,
      "start": 14.4483,
      "duration": 0.0961,
      "velocity": 85,
      "chip": "ym2612"
    },
    {
      "channel": 4,
      "note": 59,
      "start": 14.4485,
      "duration": 0.096,
      "velocity": 102,
      "chip": "ym2612"
    },
    {
      "channel": 0,
      "note": 77,
      "start": 14.5636,
      "duration": 0.0963,
      "velocity": 100,
      "chip": "ym2612"
    },
    {
      "channel": 1,
      "note": 71,
      "start": 14.5638,
      "duration": 0.0962,
      "velocity": 100,
      "chip": "ym2612"
    },
    {
      "channel": 2,
      "note": 59,
      "start": 14.564,
      "duration": 0.0961,
      "velocity": 85,
      "chip": "ym2612"
    },
    {
      "channel": 4,
      "note": 59,
      "start": 14.5642,
      "duration": 0.0961,
      "velocity": 102,
      "chip": "ym2612"
    },
    {
      "channel": 0,
      "note": 66,
      "start": 14.6792,
      "duration": 0.0962,
      "velocity": 100,
      "chip": "ym2612"
    },
    {
      "channel": 2,
      "note": 54,
      "start": 14.6794,
      "duration": 0.0961,
      "velocity": 85,
      "chip": "ym2612"
    },
    {
      "channel": 4,
      "note": 59,
      "start": 14.6797,
      "duration": 0.096,
      "velocity": 102,
      "chip": "ym2612"
    },
    {
      "channel": 0,
      "note": 59,
      "start": 14.7947,
      "duration": 0.2118,
      "velocity": 100,
      "chip": "ym2612"
    },
    {
      "channel": 1,
      "note": 71,
      "start": 14.7949,
      "duration": 0.096,
      "velocity": 100,
      "chip": "ym2612"
    },
    {
      "channel": 2,
      "note": 59,
      "start": 14.7951,
      "duration": 0.2116,
      "velocity": 85,
      "chip": "ym2612"
    },
    {
      "channel": 3,
      "note": 81,
      "start": 14.7954,
      "duration": 1.5401,
      "velocity": 106,
      "chip": "ym2612"
    },
    {
      "channel": 4,
      "note": 59,
      "start": 14.7955,
      "duration": 0.2114,
      "velocity": 102,
      "chip": "ym2612"
    },
    {
      "channel": 1,
      "note": 71,
      "start": 14.9102,
      "duration": 0.0964,
      "velocity": 100,
      "chip": "ym2612"
    },
    {
      "channel": 0,
      "note": 76,
      "start": 15.0259,
      "duration": 0.0962,
      "velocity": 100,
      "chip": "ym2612"
    },
    {
      "channel": 1,
      "note": 71,
      "start": 15.0264,
      "duration": 0.2114,
      "velocity": 100,
      "chip": "ym2612"
    },
    {
      "channel": 2,
      "note": 54,
      "start": 15.0266,
      "duration": 0.0956,
      "velocity": 85,
      "chip": "ym2612"
    },
    {
      "channel": 4,
      "note": 59,
      "start": 15.027,
      "duration": 0.0954,
      "velocity": 102,
      "chip": "ym2612"
    },
    {
      "channel": 5,
      "note": 78,
      "start": 15.0271,
      "duration": 0.0954,
      "velocity": 106,
      "chip": "ym2612"
    },
    {
      "channel": 0,
      "note": 76,
      "start": 15.1414,
      "duration": 0.0963,
      "velocity": 100,
      "chip": "ym2612"
    },
    {
      "channel": 2,
      "note": 54,
      "start": 15.1415,
      "duration": 0.0964,
      "velocity": 85,
      "chip": "ym2612"
    },
    {
      "channel": 4,
      "note": 59,
      "start": 15.1419,
      "duration": 0.0961,
      "velocity": 102,
      "chip": "ym2612"
    },
    {
      "channel": 5,
      "note": 76,
      "start": 15.1422,
      "duration": 0.3074,
      "velocity": 106,
      "chip": "ym2612"
    },
    {
      "channel": 0,
      "note": 76,
      "start": 15.2569,
      "duration": 0.2118,
      "velocity": 100,
      "chip": "ym2612"
    },
    {
      "channel": 1,
      "note": 69,
      "start": 15.2571,
      "duration": 0.2118,
      "velocity": 100,
      "chip": "ym2612"
    },
    {
      "channel": 2,
      "note": 57,
      "start": 15.2574,
      "duration": 0.2116,
      "velocity": 85,
      "chip": "ym2612"
    },
    {
      "channel": 0,
      "note": 74,
      "start": 15.4881,
      "duration": 0.2118,
      "velocity": 100,
      "chip": "ym2612"
    },
    {
      "channel": 2,
      "note": 54,
      "start": 15.4883,
      "duration": 0.2117,
      "velocity": 85,
      "chip": "ym2612"
    },
    {
      "channel": 4,
      "note": 59,
      "start": 15.4888,
      "duration": 0.0956,
      "velocity": 102,
      "chip": "ym2612"
    },
    {
      "channel": 5,
      "note": 74,
      "start": 15.489,
      "duration": 0.2113,
      "velocity": 106,
      "chip": "ym2612"
    },
    {
      "channel": 4,
      "note": 59,
      "start": 15.6039,
      "duration": 0.0963,
      "velocity": 102,
      "chip": "ym2612"
    },
    {
      "channel": 0,
      "note": 59,
      "start": 15.7193,
      "duration": 0.2118,
      "velocity": 100,
      "chip": "ym2612"
    },
    {
      "channel": 1,
      "note": 73,
      "start": 15.7195,
      "duration": 0.0961,
      "velocity": 100,
      "chip": "ym2612"
    },
    {
      "channel": 5,
      "note": 71,
      "start": 15.7198,
      "duration": 0.0959,
      "velocity": 106,
      "chip": "ym2612"
    },
    {
      "channel": 4,
      "note": 59,
      "start": 15.8349,
      "duration": 0.0963,
      "velocity": 102,
      "chip": "ym2612"
    },
    {
      "channel": 5,
      "note": 73,
      "start": 15.8351,
      "duration": 0.0962,
      "velocity": 106,
      "chip": "ym2612"
    },
    {
      "channel": 0,
      "note": 78,
      "start": 15.9504,
      "duration": 0.0962,
      "velocity": 100,
      "chip": "ym2612"
    },
    {
      "channel": 2,
      "note": 59,
      "start": 15.9506,
      "duration": 0.2117,
      "velocity": 85,
      "chip": "ym2612"
    },
    {
      "channel": 4,
      "note": 59,
      "start": 15.951,
      "duration": 0.0958,
      "velocity": 102,
      "chip": "ym2612"
    },
    {
      "channel": 5,
      "note": 74,
      "start": 15.9512,
      "duration": 1.5024,
      "velocity": 106,
      "chip": "ym2612"
    },
    {
      "channel": 0,
      "note": 59,
      "start": 16.0659,
      "duration": 0.0962,
      "velocity": 100,
      "chip": "ym2612"
    },
    {
      "channel": 4,
      "note": 59,
      "start": 16.0664,
      "duration": 0.0961,
      "velocity": 102,
      "chip": "ym2612"
    },
    {
      "channel": 0,
      "note": 59,
      "start": 16.1815,
      "duration": 0.2118,
      "velocity": 100,
      "chip": "ym2612"
    },
    {
      "channel": 1,
      "note": 69,
      "start": 16.1817,
      "duration": 0.2118,
      "velocity": 100,
      "chip": "ym2612"
    },
    {
      "channel": 2,
      "note": 52,
      "start": 16.1819,
      "duration": 0.0959,
      "velocity": 85,
      "chip": "ym2612"
    },
    {
      "channel": 2,
      "note": 54,
      "start": 16.2971,
      "duration": 0.0964,
      "velocity": 85,
      "chip": "ym2612"
    },
    {
      "channel": 4,
      "note": 59,
      "start": 16.2974,
      "duration": 0.0964,
      "velocity": 102,
      "chip": "ym2612"
    },
    {
      "channel": 0,
      "note": 74,
      "start": 16.4126,
      "duration": 0.2118,
      "velocity": 100,
      "chip": "ym2612"
    },
    {
      "channel": 3,
      "note": 81,
      "start": 16.4128,
      "duration": 0.0961,
      "velocity": 106,
      "chip": "ym2612"
    },
    {
      "channel": 4,
      "note": 59,
      "start": 16.413,
      "duration": 0.0961,
      "velocity": 102,
      "chip": "ym2612"
    },
    {
      "channel": 2,
      "note": 57,
      "start": 16.5283,
      "duration": 0.0963,
      "velocity": 85,
      "chip": "ym2612"
    },
    {
      "channel": 3,
      "note": 82,
      "start": 16.5285,
      "duration": 0.0962,
      "velocity": 106,
      "chip": "ym2612"
    },
    {
      "channel": 4,
      "note": 59,
      "start": 16.5287,
      "duration": 0.0962,
      "velocity": 102,
      "chip": "ym2612"
    },
    {
      "channel": 0,
      "note": 78,
      "start": 16.6438,
      "duration": 0.2118,
      "velocity": 100,
      "chip": "ym2612"
    },
    {
      "channel": 1,
      "note": 73,
      "start": 16.644,
      "duration": 0.2117,
      "velocity": 100,
      "chip": "ym2612"
    },
    {
      "channel": 3,
      "note": 83,
      "start": 16.6443,
      "duration": 0.8088,
      "velocity": 106,
      "chip": "ym2612"
    },
    {
      "channel": 4,
      "note": 59,
      "start": 16.6444,
      "duration": 0.2116,
      "velocity": 102,
      "chip": "ym2612"
    },
    {
      "channel": 2,
      "note": 52,
      "start": 16.7598,
      "duration": 0.0961,
      "velocity": 85,
      "chip": "ym2612"
    },
    {
      "channel": 2,
      "note": 54,
      "start": 16.875,
      "duration": 0.0962,
      "velocity": 85,
      "chip": "ym2612"
    },
    {
      "channel": 4,
      "note": 59,
      "start": 16.8754,
      "duration": 0.0959,
      "velocity": 102,
      "chip": "ym2612"
    },
    {
      "channel": 0,
      "note": 83,
      "start": 16.9905,
      "duration": 0.0962,
      "velocity": 100,
      "chip": "ym2612"
    },
    {
      "channel": 1,
      "note": 78,
      "start": 16.9907,
      "duration": 0.0961,
      "velocity": 100,
      "chip": "ym2612"
    },
    {
      "channel": 4,
      "note": 59,
      "start": 16.9911,
      "duration": 0.0959,
      "velocity": 102,
      "chip": "ym2612"
    },
    {
      "channel": 0,
      "note": 81,
      "start": 17.1061,
      "duration": 0.2117,
      "velocity": 100,
      "chip": "ym2612"
    },
    {
      "channel": 1,
      "note": 76,
      "start": 17.1063,
      "duration": 0.2117,
      "velocity": 100,
      "chip": "ym2612"
    },
    {
      "channel": 2,
      "note": 57,
      "start": 17.1065,
      "duration": 0.0958,
      "velocity": 85,
      "chip": "ym2612"
    },
    {
      "channel": 2,
      "note": 54,
      "start": 17.2217,
      "duration": 0.0964,
      "velocity": 85,
      "chip": "ym2612"
    },
    {
      "channel": 0,
      "note": 79,
      "start": 17.3372,
      "duration": 0.0962,
      "velocity": 100,
      "chip": "ym2612"
    },
    {
      "channel": 1,
      "note": 74,
      "start": 17.3374,
      "duration": 0.0961,
      "velocity": 100,
      "chip": "ym2612"
    },
    {
      "channel": 4,
      "note": 59,
      "start": 17.3379,
      "duration": 0.0958,
      "velocity": 102,
      "chip": "ym2612"
    },
    {
      "channel": 0,
      "note": 74,
      "start": 17.4528,
      "duration": 0.0962,
      "velocity": 100,
      "chip": "ym2612"
    },
    {
      "channel": 2,
      "note": 50,
      "start": 17.453,
      "duration": 0.0961,
      "velocity": 85,
      "chip": "ym2612"
    },
    {
      "channel": 4,
      "note": 59,
      "start": 17.4535,
      "duration": 0.0958,
      "velocity": 102,
      "chip": "ym2612"
    },
    {
      "channel": 2,
      "note": 50,
      "start": 17.5683,
      "duration": 0.0963,
      "velocity": 85,
      "chip": "ym2612"
    },
    {
      "channel": 3,
      "note": 83,
      "start": 17.5684,
      "duration": 0.6162,
      "velocity": 106,
      "chip": "ym2612"
    },
    {
      "channel": 5,
      "note": 76,
      "start": 17.5687,
      "duration": 0.8089,
      "velocity": 106,
      "chip": "ym2612"
    },
    {
      "channel": 0,
      "note": 78,
      "start": 17.6839,
      "duration": 0.0962,
      "velocity": 100,
      "chip": "ym2612"
    },
    {
      "channel": 1,
      "note": 73,
      "start": 17.6841,
      "duration": 0.0961,
      "velocity": 100,
      "chip": "ym2612"
    },
    {
      "channel": 2,
      "note": 52,
      "start": 17.6843,
      "duration": 0.0961,
      "velocity": 85,
      "chip": "ym2612"
    },
    {
      "channel": 4,
      "note": 59,
      "start": 17.6845,
      "duration": 0.096,
      "velocity": 102,
      "chip": "ym2612"
    },
    {
      "channel": 4,
      "note": 59,
      "start": 17.7997,
      "duration": 0.0961,
      "velocity": 102,
      "chip": "ym2612"
    },
    {
      "channel": 0,
      "note": 78,
      "start": 17.915,
      "duration": 0.0963,
      "velocity": 100,
      "chip": "ym2612"
    },
    {
      "channel": 1,
      "note": 73,
      "start": 17.9152,
      "duration": 0.0961,
      "velocity": 100,
      "chip": "ym2612"
    },
    {
      "channel": 2,
      "note": 52,
      "start": 17.9154,
      "duration": 0.0961,
      "velocity": 85,
      "chip": "ym2612"
    },
    {
      "channel": 4,
      "note": 59,
      "start": 17.9158,
      "duration": 0.0958,
      "velocity": 102,
      "chip": "ym2612"
    },
    {
      "channel": 0,
      "note": 76,
      "start": 18.0306,
      "duration": 0.2118,
      "velocity": 100,
      "chip": "ym2612"
    },
    {
      "channel": 1,
      "note": 71,
      "start": 18.0308,
      "duration": 0.2117,
      "velocity": 100,
      "chip": "ym2612"
    },
    {
      "channel": 4,
      "note": 59,
      "start": 18.1462,
      "duration": 0.0968,
      "velocity": 102,
      "chip": "ym2612"
    },
    {
      "channel": 0,
      "note": 74,
      "start": 18.2617,
      "duration": 0.2117,
      "velocity": 100,
      "chip": "ym2612"
    },
    {
      "channel": 1,
      "note": 69,
      "start": 18.262,
      "duration": 0.2117,
      "velocity": 100,
      "chip": "ym2612"
    },
    {
      "channel": 3,
      "note": 86,
      "start": 18.2622,
      "duration": 0.0958,
      "velocity": 106,
      "chip": "ym2612"
    },
    {
      "channel": 4,
      "note": 59,
      "start": 18.2623,
      "duration": 0.0958,
      "velocity": 102,
      "chip": "ym2612"
    },
    {
      "channel": 3,
      "note": 85,
      "start": 18.3773,
      "duration": 0.0964,
      "velocity": 106,
      "chip": "ym2612"
    },
    {
      "channel": 4,
      "note": 59,
      "start": 18.3775,
      "duration": 0.0964,
      "velocity": 102,
      "chip": "ym2612"
    },
    {
      "channel": 0,
      "note": 59,
      "start": 18.4932,
      "duration": 0.2114,
      "velocity": 100,
      "chip": "ym2612"
    },
    {
      "channel": 2,
      "note": 59,
      "start": 18.4935,
      "duration": 0.2113,
      "velocity": 85,
      "chip": "ym2612"
    },
    {
      "channel": 3,
      "note": 86,
      "start": 18.4937,
      "duration": 0.0954,
      "velocity": 106,
      "chip": "ym2612"
    },
    {
      "channel": 4,
      "note": 59,
      "start": 18.4938,
      "duration": 0.2111,
      "velocity": 102,
      "chip": "ym2612"
    },
    {
      "channel": 5,
      "note": 78,
      "start": 18.4941,
      "duration": 3.4667,
      "velocity": 106,
      "chip": "ym2612"
    },
    {
      "channel": 3,
      "note": 88,
      "start": 18.6085,
      "duration": 0.674,
      "velocity": 106,
      "chip": "ym2612"
    },
    {
      "channel": 0,
      "note": 76,
      "start": 18.724,
      "duration": 0.0962,
      "velocity": 100,
      "chip": "ym2612"
    },
    {
      "channel": 1,
      "note": 71,
      "start": 18.7242,
      "duration": 0.0961,
      "velocity": 100,
      "chip": "ym2612"
    },
    {
      "channel": 2,
      "note": 54,
      "start": 18.7244,
      "duration": 0.0961,
      "velocity": 85,
      "chip": "ym2612"
    },
    {
      "channel": 4,
      "note": 59,
      "start": 18.7248,
      "duration": 0.0958,
      "velocity": 102,
      "chip": "ym2612"
    },
    {
      "channel": 0,
      "note": 76,
      "start": 18.8395,
      "duration": 0.0963,
      "velocity": 100,
      "chip": "ym2612"
    },
    {
      "channel": 1,
      "note": 71,
      "start": 18.8396,
      "duration": 0.0962,
      "velocity": 100,
      "chip": "ym2612"
    },
    {
      "channel": 2,
      "note": 54,
      "start": 18.8398,
      "duration": 0.0963,
      "velocity": 85,
      "chip": "ym2612"
    },
    {
      "channel": 4,
      "note": 59,
      "start": 18.8402,
      "duration": 0.096,
      "velocity": 102,
      "chip": "ym2612"
    },
    {
      "channel": 0,
      "note": 76,
      "start": 18.9551,
      "duration": 0.2118,
      "velocity": 100,
      "chip": "ym2612"
    },
    {
      "channel": 1,
      "note": 71,
      "start": 18.9552,
      "duration": 0.2118,
      "velocity": 100,
      "chip": "ym2612"
    },
    {
      "channel": 2,
      "note": 57,
      "start": 18.9554,
      "duration": 0.2118,
      "velocity": 85,
      "chip": "ym2612"
    },
    {
      "channel": 0,
      "note": 74,
      "start": 19.1862,
      "duration": 0.2118,
      "velocity": 100,
      "chip": "ym2612"
    },
    {
      "channel": 1,
      "note": 69,
      "start": 19.1865,
      "duration": 0.2117,
      "velocity": 100,
      "chip": "ym2612"
    },
    {
      "channel": 2,
      "note": 54,
      "start": 19.1867,
      "duration": 0.2116,
      "velocity": 85,
      "chip": "ym2612"
    },
    {
      "channel": 4,
      "note": 59,
      "start": 19.1871,
      "duration": 0.0956,
      "velocity": 102,
      "chip": "ym2612"
    },
    {
      "channel": 3,
      "note": 81,
      "start": 19.3019,
      "duration": 0.8859,
      "velocity": 106,
      "chip": "ym2612"
    },
    {
      "channel": 4,
      "note": 59,
      "start": 19.3023,
      "duration": 0.0962,
      "velocity": 102,
      "chip": "ym2612"
    },
    {
      "channel": 0,
      "note": 59,
      "start": 19.4174,
      "duration": 0.2118,
      "velocity": 100,
      "chip": "ym2612"
    },
    {
      "channel": 4,
      "note": 59,
      "start": 19.5331,
      "duration": 0.0963,
      "velocity": 102,
      "chip": "ym2612"
    },
    {
      "channel": 0,
      "note": 78,
      "start": 19.6485,
      "duration": 0.0962,
      "velocity": 100,
      "chip": "ym2612"
    },
    {
      "channel": 1,
      "note": 73,
      "start": 19.6487,
      "duration": 0.0961,
      "velocity": 100,
      "chip": "ym2612"
    },
    {
      "channel": 2,
      "note": 59,
      "start": 19.649,
      "duration": 0.2115,
      "velocity": 85,
      "chip": "ym2612"
    },
    {
      "channel": 4,
      "note": 59,
      "start": 19.6493,
      "duration": 0.0957,
      "velocity": 102,
      "chip": "ym2612"
    },
    {
      "channel": 0,
      "note": 59,
      "start": 19.7641,
      "duration": 0.0962,
      "velocity": 100,
      "chip": "ym2612"
    },
    {
      "channel": 4,
      "note": 59,
      "start": 19.7645,
      "duration": 0.0961,
      "velocity": 102,
      "chip": "ym2612"
    },
    {
      "channel": 0,
      "note": 59,
      "start": 19.8796,
      "duration": 0.2118,
      "velocity": 100,
      "chip": "ym2612"
    },
    {
      "channel": 2,
      "note": 52,
      "start": 19.8798,
      "duration": 0.0961,
      "velocity": 85,
      "chip": "ym2612"
    },
    {
      "channel": 2,
      "note": 54,
      "start": 19.9953,
      "duration": 0.0963,
      "velocity": 85,
      "chip": "ym2612"
    },
    {
      "channel": 4,
      "note": 59,
      "start": 19.9955,
      "duration": 0.0962,
      "velocity": 102,
      "chip": "ym2612"
    },
    {
      "channel": 0,
      "note": 74,
      "start": 20.1108,
      "duration": 0.2118,
      "velocity": 100,
      "chip": "ym2612"
    },
    {
      "channel": 1,
      "note": 69,
      "start": 20.111,
      "duration": 0.2117,
      "velocity": 100,
      "chip": "ym2612"
    },
    {
      "channel": 4,
      "note": 59,
      "start": 20.1112,
      "duration": 0.0959,
      "velocity": 102,
      "chip": "ym2612"
    },
    {
      "channel": 2,
      "note": 57,
      "start": 20.2266,
      "duration": 0.0962,
      "velocity": 85,
      "chip": "ym2612"
    },
    {
      "channel": 3,
      "note": 83,
      "start": 20.2269,
      "duration": 1.7336,
      "velocity": 106,
      "chip": "ym2612"
    },
    {
      "channel": 4,
      "note": 59,
      "start": 20.227,
      "duration": 0.096,
      "velocity": 102,
      "chip": "ym2612"
    },
    {
      "channel": 0,
      "note": 78,
      "start": 20.3419,
      "duration": 0.2118,
      "velocity": 100,
      "chip": "ym2612"
    },
    {
      "channel": 1,
      "note": 73,
      "start": 20.3422,
      "duration": 0.2116,
      "velocity": 100,
      "chip": "ym2612"
    },
    {
      "channel": 4,
      "note": 59,
      "start": 20.3423,
      "duration": 0.2118,
      "velocity": 102,
      "chip": "ym2612"
    },
    {
      "channel": 2,
      "note": 52,
      "start": 20.4576,
      "duration": 0.0964,
      "velocity": 85,
      "chip": "ym2612"
    },
    {
      "channel": 2,
      "note": 54,
      "start": 20.5731,
      "duration": 0.0963,
      "velocity": 85,
      "chip": "ym2612"
    },
    {
      "channel": 4,
      "note": 59,
      "start": 20.5734,
      "duration": 0.096,
      "velocity": 102,
      "chip": "ym2612"
    },
    {
      "channel": 0,
      "note": 81,
      "start": 20.6886,
      "duration": 0.0962,
      "velocity": 100,
      "chip": "ym2612"
    },
    {
      "channel": 1,
      "note": 76,
      "start": 20.6888,
      "duration": 0.0961,
      "velocity": 100,
      "chip": "ym2612"
    },
    {
      "channel": 4,
      "note": 59,
      "start": 20.6892,
      "duration": 0.0959,
      "velocity": 102,
      "chip": "ym2612"
    },
    {
      "channel": 0,
      "note": 79,
      "start": 20.8042,
      "duration": 0.2118,
      "velocity": 100,
      "chip": "ym2612"
    },
    {
      "channel": 1,
      "note": 74,
      "start": 20.8044,
      "duration": 0.2117,
      "velocity": 100,
      "chip": "ym2612"
    },
    {
      "channel": 2,
      "note": 57,
      "start": 20.8046,
      "duration": 0.2116,
      "velocity": 85,
      "chip": "ym2612"
    },
    {
      "channel": 0,
      "note": 78,
      "start": 21.0353,
      "duration": 0.0963,
      "velocity": 100,
      "chip": "ym2612"
    },
    {
      "channel": 1,
      "note": 73,
      "start": 21.0355,
      "duration": 0.0961,
      "velocity": 100,
      "chip": "ym2612"
    },
    {
      "channel": 2,
      "note": 54,
      "start": 21.0357,
      "duration": 0.2115,
      "velocity": 85,
      "chip": "ym2612"
    },
    {
      "channel": 4,
      "note": 59,
      "start": 21.0362,
      "duration": 0.0957,
      "velocity": 102,
      "chip": "ym2612"
    },
    {
      "channel": 0,
      "note": 71,
      "start": 21.1509,
      "duration": 0.0962,
      "velocity": 100,
      "chip": "ym2612"
    },
    {
      "channel": 4,
      "note": 59,
      "start": 21.1513,
      "duration": 0.0961,
      "velocity": 102,
      "chip": "ym2612"
    },
    {
      "channel": 0,
      "note": 66,
      "start": 21.382,
      "duration": 0.0962,
      "velocity": 100,
      "chip": "ym2612"
    },
    {
      "channel": 2,
      "note": 54,
      "start": 21.3822,
      "duration": 0.0961,
      "velocity": 85,
      "chip": "ym2612"
    },
    {
      "channel": 4,
      "note": 59,
      "start": 21.3825,
      "duration": 0.0961,
      "velocity": 102,
      "chip": "ym2612"
    },
    {
      "channel": 0,
      "note": 74,
      "start": 21.4976,
      "duration": 0.0962,
      "velocity": 100,
      "chip": "ym2612"
    },
    {
      "channel": 1,
      "note": 69,
      "start": 21.4978,
      "duration": 0.0961,
      "velocity": 100,
      "chip": "ym2612"
    },
    {
      "channel": 2,
      "note": 57,
      "start": 21.498,
      "duration": 0.0961,
      "velocity": 85,
      "chip": "ym2612"
    },
    {
      "channel": 4,
      "note": 59,
      "start": 21.4984,
      "duration": 0.0958,
      "velocity": 102,
      "chip": "ym2612"
    },
    {
      "channel": 0,
      "note": 66,
      "start": 21.6132,
      "duration": 0.0966,
      "velocity": 100,
      "chip": "ym2612"
    },
    {
      "channel": 2,
      "note": 54,
      "start": 21.6134,
      "duration": 0.0965,
      "velocity": 85,
      "chip": "ym2612"
    },
    {
      "channel": 4,
      "note": 59,
      "start": 21.6138,
      "duration": 0.0962,
      "velocity": 102,
      "chip": "ym2612"
    },
    {
      "channel": 0,
      "note": 75,
      "start": 21.7287,
      "duration": 0.0962,
      "velocity": 100,
      "chip": "ym2612"
    },
    {
      "channel": 1,
      "note": 70,
      "start": 21.7289,
      "duration": 0.0961,
      "velocity": 100,
      "chip": "ym2612"
    },
    {
      "channel": 2,
      "note": 58,
      "start": 21.7291,
      "duration": 0.0961,
      "velocity": 85,
      "chip": "ym2612"
    },
    {
      "channel": 0,
      "note": 66,
      "start": 21.8443,
      "duration": 0.0962,
      "velocity": 100,
      "chip": "ym2612"
    },
    {
      "channel": 2,
      "note": 54,
      "start": 21.8445,
      "duration": 0.0961,
      "velocity": 85,
      "chip": "ym2612"
    },
    {
      "channel": 4,
      "note": 59,
      "start": 21.8448,
      "duration": 0.0961,
      "velocity": 102,
      "chip": "ym2612"
    },
    {
      "channel": 0,
      "note": 77,
      "start": 21.96,
      "duration": 0.0961,
      "velocity": 100,
      "chip": "ym2612"
    },
    {
      "channel": 1,
      "note": 71,
      "start": 21.9602,
      "duration": 0.0961,
      "velocity": 100,
      "chip": "ym2612"
    },
    {
      "channel": 2,
      "note": 59,
      "start": 21.9603,
      "duration": 0.096,
      "velocity": 85,
      "chip": "ym2612"
    },
    {
      "channel": 4,
      "note": 59,
      "start": 21.9607,
      "duration": 0.0958,
      "velocity": 102,
      "chip": "ym2612"
    },
    {
      "channel": 0,
      "note": 66,
      "start": 22.0754,
      "duration": 0.0962,
      "velocity": 100,
      "chip": "ym2612"
    },
    {
      "channel": 2,
      "note": 54,
      "start": 22.0757,
      "duration": 0.0961,
      "velocity": 85,
      "chip": "ym2612"
    },
    {
      "channel": 4,
      "note": 59,
      "start": 22.0758,
      "duration": 0.0961,
      "velocity": 102,
      "chip": "ym2612"
    },
    {
      "channel": 0,
      "note": 59,
      "start": 22.191,
      "duration": 0.2118,
      "velocity": 100,
      "chip": "ym2612"
    },
    {
      "channel": 1,
      "note": 71,
      "start": 22.1912,
      "duration": 0.096,
      "velocity": 100,
      "chip": "ym2612"
    },
    {
      "channel": 2,
      "note": 59,
      "start": 22.1914,
      "duration": 0.2117,
      "velocity": 85,
      "chip": "ym2612"
    },
    {
      "channel": 4,
      "note": 59,
      "start": 22.1916,
      "duration": 0.2116,
      "velocity": 102,
      "chip": "ym2612"
    },
    {
      "channel": 1,
      "note": 71,
      "start": 22.3065,
      "duration": 0.0964,
      "velocity": 100,
      "chip": "ym2612"
    },
    {
      "channel": 0,
      "note": 76,
      "start": 22.4221,
      "duration": 0.0962,
      "velocity": 100,
      "chip": "ym2612"
    },
    {
      "channel": 1,
      "note": 71,
      "start": 22.4222,
      "duration": 0.2118,
      "velocity": 100,
      "chip": "ym2612"
    },
    {
      "channel": 2,
      "note": 54,
      "start": 22.4225,
      "duration": 0.096,
      "velocity": 85,
      "chip": "ym2612"
    },
    {
      "channel": 4,
      "note": 59,
      "start": 22.4229,
      "duration": 0.0957,
      "velocity": 102,
      "chip": "ym2612"
    },
    {
      "channel": 0,
      "note": 76,
      "start": 22.5376,
      "duration": 0.0962,
      "velocity": 100,
      "chip": "ym2612"
    },
    {
      "channel": 2,
      "note": 54,
      "start": 22.5378,
      "duration": 0.0964,
      "velocity": 85,
      "chip": "ym2612"
    },
    {
      "channel": 4,
      "note": 59,
      "start": 22.5381,
      "duration": 0.0962,
      "velocity": 102,
      "chip": "ym2612"
    },
    {
      "channel": 0,
      "note": 76,
      "start": 22.6532,
      "duration": 0.2118,
      "velocity": 100,
      "chip": "ym2612"
    },
    {
      "channel": 1,
      "note": 69,
      "start": 22.6534,
      "duration": 0.2118,
      "velocity": 100,
      "chip": "ym2612"
    },
    {
      "channel": 2,
      "note": 57,
      "start": 22.6536,
      "duration": 0.2117,
      "velocity": 85,
      "chip": "ym2612"
    },
    {
      "channel": 3,
      "note": 59,
      "start": 22.6539,
      "duration": 0.0957,
      "velocity": 106,
      "chip": "ym2612"
    },
    {
      "channel": 5,
      "note": 71,
      "start": 22.6541,
      "duration": 0.0956,
      "velocity": 106,
      "chip": "ym2612"
    },
    {
      "channel": 3,
      "note": 61,
      "start": 22.7689,
      "duration": 0.0966,
      "velocity": 106,
      "chip": "ym2612"
    },
    {
      "channel": 5,
      "note": 73,
      "start": 22.7691,
      "duration": 0.0964,
      "velocity": 106,
      "chip": "ym2612"
    },
    {
      "channel": 0,
      "note": 74,
      "start": 22.8844,
      "duration": 0.2118,
      "velocity": 100,
      "chip": "ym2612"
    },
    {
      "channel": 2,
      "note": 54,
      "start": 22.8846,
      "duration": 0.2117,
      "velocity": 85,
      "chip": "ym2612"
    },
    {
      "channel": 3,
      "note": 57,
      "start": 22.8848,
      "duration": 0.2116,
      "velocity": 106,
      "chip": "ym2612"
    },
    {
      "channel": 4,
      "note": 59,
      "start": 22.8853,
      "duration": 0.0954,
      "velocity": 102,
      "chip": "ym2612"
    },
    {
      "channel": 5,
      "note": 69,
      "start": 22.8855,
      "duration": 0.2113,
      "velocity": 106,
      "chip": "ym2612"
    },
    {
      "channel": 4,
      "note": 59,
      "start": 23.0002,
      "duration": 0.0964,
      "velocity": 102,
      "chip": "ym2612"
    },
    {
      "channel": 0,
      "note": 59,
      "start": 23.1155,
      "duration": 0.2118,
      "velocity": 100,
      "chip": "ym2612"
    },
    {
      "channel": 1,
      "note": 73,
      "start": 23.1158,
      "duration": 0.096,
      "velocity": 100,
      "chip": "ym2612"
    },
    {
      "channel": 4,
      "note": 59,
      "start": 23.2312,
      "duration": 0.0963,
      "velocity": 102,
      "chip": "ym2612"
    },
    {
      "channel": 0,
      "note": 78,
      "start": 23.3467,
      "duration": 0.0965,
      "velocity": 100,
      "chip": "ym2612"
    },
    {
      "channel": 2,
      "note": 59,
      "start": 23.3469,
      "duration": 0.2117,
      "velocity": 85,
      "chip": "ym2612"
    },
    {
      "channel": 4,
      "note": 59,
      "start": 23.3472,
      "duration": 0.0961,
      "velocity": 102,
      "chip": "ym2612"
    },
    {
      "channel": 0,
      "note": 59,
      "start": 23.4622,
      "duration": 0.0962,
      "velocity": 100,
      "chip": "ym2612"
    },
    {
      "channel": 4,
      "note": 59,
      "start": 23.4626,
      "duration": 0.0961,
      "velocity": 102,
      "chip": "ym2612"
    },
    {
      "channel": 0,
      "note": 59,
      "start": 23.5777,
      "duration": 0.2118,
      "velocity": 100,
      "chip": "ym2612"
    },
    {
      "channel": 1,
      "note": 69,
      "start": 23.5779,
      "duration": 0.2118,
      "velocity": 100,
      "chip": "ym2612"
    },
    {
      "channel": 2,
      "note": 52,
      "start": 23.5782,
      "duration": 0.0959,
      "velocity": 85,
      "chip": "ym2612"
    },
    {
      "channel": 2,
      "note": 54,
      "start": 23.6934,
      "duration": 0.0964,
      "velocity": 85,
      "chip": "ym2612"
    },
    {
      "channel": 4,
      "note": 59,
      "start": 23.6936,
      "duration": 0.0964,
      "velocity": 102,
      "chip": "ym2612"
    },
    {
      "channel": 0,
      "note": 74,
      "start": 23.8089,
      "duration": 0.2118,
      "velocity": 100,
      "chip": "ym2612"
    },
    {
      "channel": 4,
      "note": 59,
      "start": 23.8091,
      "duration": 0.0961,
      "velocity": 102,
      "chip": "ym2612"
    },
    {
      "channel": 2,
      "note": 57,
      "start": 23.9245,
      "duration": 0.0963,
      "velocity": 85,
      "chip": "ym2612"
    },
    {
      "channel": 4,
      "note": 59,
      "start": 23.9247,
      "duration": 0.0963,
      "velocity": 102,
      "chip": "ym2612"
    },
    {
      "channel": 0,
      "note": 78,
      "start": 24.04,
      "duration": 0.2118,
      "velocity": 100,
      "chip": "ym2612"
    },
    {
      "channel": 1,
      "note": 73,
      "start": 24.0402,
      "duration": 0.2117,
      "velocity": 100,
      "chip": "ym2612"
    },
    {
      "channel": 4,
      "note": 59,
      "start": 24.0404,
      "duration": 0.2118,
      "velocity": 102,
      "chip": "ym2612"
    },
    {
      "channel": 2,
      "note": 52,
      "start": 24.1556,
      "duration": 0.0964,
      "velocity": 85,
      "chip": "ym2612"
    },
    {
      "channel": 2,
      "note": 54,
      "start": 24.2712,
      "duration": 0.0962,
      "velocity": 85,
      "chip": "ym2612"
    },
    {
      "channel": 4,
      "note": 59,
      "start": 24.2716,
      "duration": 0.096,
      "velocity": 102,
      "chip": "ym2612"
    },
    {
      "channel": 0,
      "note": 83,
      "start": 24.3868,
      "duration": 0.0962,
      "velocity": 100,
      "chip": "ym2612"
    },
    {
      "channel": 1,
      "note": 78,
      "start": 24.3869,
      "duration": 0.0961,
      "velocity": 100,
      "chip": "ym2612"
    },
    {
      "channel": 4,
      "note": 59,
      "start": 24.3874,
      "duration": 0.0959,
      "velocity": 102,
      "chip": "ym2612"
    },
    {
      "channel": 0,
      "note": 81,
      "start": 24.5023,
      "duration": 0.2118,
      "velocity": 100,
      "chip": "ym2612"
    },
    {
      "channel": 1,
      "note": 76,
      "start": 24.5025,
      "duration": 0.2117,
      "velocity": 100,
      "chip": "ym2612"
    },
    {
      "channel": 2,
      "note": 57,
      "start": 24.5027,
      "duration": 0.0959,
      "velocity": 85,
      "chip": "ym2612"
    },
    {
      "channel": 2,
      "note": 54,
      "start": 24.6179,
      "duration": 0.0964,
      "velocity": 85,
      "chip": "ym2612"
    },
    {
      "channel": 0,
      "note": 79,
      "start": 24.7334,
      "duration": 0.0962,
      "velocity": 100,
      "chip": "ym2612"
    },
    {
      "channel": 1,
      "note": 74,
      "start": 24.7336,
      "duration": 0.0962,
      "velocity": 100,
      "chip": "ym2612"
    },
    {
      "channel": 4,
      "note": 59,
      "start": 24.7341,
      "duration": 0.0958,
      "velocity": 102,
      "chip": "ym2612"
    },
    {
      "channel": 0,
      "note": 74,
      "start": 24.849,
      "duration": 0.0962,
      "velocity": 100,
      "chip": "ym2612"
    },
    {
      "channel": 2,
      "note": 50,
      "start": 24.8492,
      "duration": 0.0962,
      "velocity": 85,
      "chip": "ym2612"
    },
    {
      "channel": 4,
      "note": 59,
      "start": 24.8496,
      "duration": 0.0959,
      "velocity": 102,
      "chip": "ym2612"
    },
    {
      "channel": 2,
      "note": 50,
      "start": 24.9646,
      "duration": 0.0962,
      "velocity": 85,
      "chip": "ym2612"
    },
    {
      "channel": 0,
      "note": 78,
      "start": 25.0801,
      "duration": 0.0964,
      "velocity": 100,
      "chip": "ym2612"
    },
    {
      "channel": 1,
      "note": 73,
      "start": 25.0804,
      "duration": 0.0963,
      "velocity": 100,
      "chip": "ym2612"
    },
    {
      "channel": 2,
      "note": 52,
      "start": 25.0806,
      "duration": 0.0962,
      "velocity": 85,
      "chip": "ym2612"
    },
    {
      "channel": 4,
      "note": 59,
      "start": 25.0808,
      "duration": 0.0961,
      "velocity": 102,
      "chip": "ym2612"
    },
    {
      "channel": 4,
      "note": 59,
      "start": 25.196,
      "duration": 0.096,
      "velocity": 102,
      "chip": "ym2612"
    },
    {
      "channel": 0,
      "note": 78,
      "start": 25.3113,
      "duration": 0.0962,
      "velocity": 100,
      "chip": "ym2612"
    },
    {
      "channel": 1,
      "note": 73,
      "start": 25.3115,
      "duration": 0.0961,
      "velocity": 100,
      "chip": "ym2612"
    },
    {
      "channel": 2,
      "note": 52,
      "start": 25.3117,
      "duration": 0.0961,
      "velocity": 85,
      "chip": "ym2612"
    },
    {
      "channel": 4,
      "note": 59,
      "start": 25.3121,
      "duration": 0.0959,
      "velocity": 102,
      "chip": "ym2612"
    },
    {
      "channel": 0,
      "note": 76,
      "start": 25.4268,
      "duration": 0.2118,
      "velocity": 100,
      "chip": "ym2612"
    },
    {
      "channel": 1,
      "note": 71,
      "start": 25.4271,
      "duration": 0.2117,
      "velocity": 100,
      "chip": "ym2612"
    },
    {
      "channel": 4,
      "note": 59,
      "start": 25.5425,
      "duration": 0.0964,
      "velocity": 102,
      "chip": "ym2612"
    },
    {
      "channel": 0,
      "note": 74,
      "start": 25.658,
      "duration": 0.2118,
      "velocity": 100,
      "chip": "ym2612"
    },
    {
      "channel": 1,
      "note": 69,
      "start": 25.6582,
      "duration": 0.2117,
      "velocity": 100,
      "chip": "ym2612"
    },
    {
      "channel": 4,
      "note": 59,
      "start": 25.6584,
      "duration": 0.0959,
      "velocity": 102,
      "chip": "ym2612"
    },
    {
      "channel": 4,
      "note": 59,
      "start": 25.7736,
      "duration": 0.0965,
      "velocity": 102,
      "chip": "ym2612"
    },
    {
      "channel": 0,
      "note": 59,
      "start": 25.8891,
      "duration": 0.2118,
      "velocity": 100,
      "chip": "ym2612"
    },
    {
      "channel": 2,
      "note": 59,
      "start": 25.8894,
      "duration": 0.2117,
      "velocity": 85,
      "chip": "ym2612"
    },
    {
      "channel": 4,
      "note": 59,
      "start": 25.8895,
      "duration": 0.2116,
      "velocity": 102,
      "chip": "ym2612"
    },
    {
      "channel": 0,
      "note": 76,
      "start": 26.1203,
      "duration": 0.0962,
      "velocity": 100,
      "chip": "ym2612"
    },
    {
      "channel": 1,
      "note": 71,
      "start": 26.1205,
      "duration": 0.0961,
      "velocity": 100,
      "chip": "ym2612"
    },
    {
      "channel": 2,
      "note": 54,
      "start": 26.1207,
      "duration": 0.0961,
      "velocity": 85,
      "chip": "ym2612"
    },
    {
      "channel": 4,
      "note": 59,
      "start": 26.121,
      "duration": 0.0959,
      "velocity": 102,
      "chip": "ym2612"
    },
    {
      "channel": 0,
      "note": 76,
      "start": 26.2357,
      "duration": 0.0963,
      "velocity": 100,
      "chip": "ym2612"
    },
    {
      "channel": 1,
      "note": 71,
      "start": 26.2359,
      "duration": 0.0963,
      "velocity": 100,
      "chip": "ym2612"
    },
    {
      "channel": 2,
      "note": 54,
      "start": 26.2361,
      "duration": 0.0962,
      "velocity": 85,
      "chip": "ym2612"
    },
    {
      "channel": 4,
      "note": 59,
      "start": 26.2364,
      "duration": 0.096,
      "velocity": 102,
      "chip": "ym2612"
    },
    {
      "channel": 0,
      "note": 76,
      "start": 26.3513,
      "duration": 0.2118,
      "velocity": 100,
      "chip": "ym2612"
    },
    {
      "channel": 1,
      "note": 71,
      "start": 26.3515,
      "duration": 0.2118,
      "velocity": 100,
      "chip": "ym2612"
    },
    {
      "channel": 2,
      "note": 57,
      "start": 26.3517,
      "duration": 0.2117,
      "velocity": 85,
      "chip": "ym2612"
    },
    {
      "channel": 3,
      "note": 59,
      "start": 26.3519,
      "duration": 0.0957,
      "velocity": 106,
      "chip": "ym2612"
    },
    {
      "channel": 5,
      "note": 71,
      "start": 26.3521,
      "duration": 0.0957,
      "velocity": 106,
      "chip": "ym2612"
    },
    {
      "channel": 3,
      "note": 61,
      "start": 26.467,
      "duration": 0.0965,
      "velocity": 106,
      "chip": "ym2612"
    },
    {
      "channel": 5,
      "note": 73,
      "start": 26.4673,
      "duration": 0.0964,
      "velocity": 106,
      "chip": "ym2612"
    },
    {
      "channel": 0,
      "note": 74,
      "start": 26.5825,
      "duration": 0.2118,
      "velocity": 100,
      "chip": "ym2612"
    },
    {
      "channel": 1,
      "note": 69,
      "start": 26.5827,
      "duration": 0.2116,
      "velocity": 100,
      "chip": "ym2612"
    },
    {
      "channel": 2,
      "note": 54,
      "start": 26.5829,
      "duration": 0.2117,
      "velocity": 85,
      "chip": "ym2612"
    },
    {
      "channel": 3,
      "note": 57,
      "start": 26.5832,
      "duration": 0.2115,
      "velocity": 106,
      "chip": "ym2612"
    },
    {
      "channel": 4,
      "note": 59,
      "start": 26.5836,
      "duration": 0.0952,
      "velocity": 102,
      "chip": "ym2612"
    },
    {
      "channel": 5,
      "note": 69,
      "start": 26.5838,
      "duration": 0.2111,
      "velocity": 106,
      "chip": "ym2612"
    },
    {
      "channel": 4,
      "note": 59,
      "start": 26.6983,
      "duration": 0.0965,
      "velocity": 102,
      "chip": "ym2612"
    },
    {
      "channel": 0,
      "note": 59,
      "start": 26.8137,
      "duration": 0.2118,
      "velocity": 100,
      "chip": "ym2612"
    },
    {
      "channel": 4,
      "note": 59,
      "start": 26.9293,
      "duration": 0.0963,
      "velocity": 102,
      "chip": "ym2612"
    },
    {
      "channel": 0,
      "note": 78,
      "start": 27.0448,
      "duration": 0.0962,
      "velocity": 100,
      "chip": "ym2612"
    },
    {
      "channel": 1,
      "note": 73,
      "start": 27.045,
      "duration": 0.0961,
      "velocity": 100,
      "chip": "ym2612"
    },
    {
      "channel": 2,
      "note": 59,
      "start": 27.0452,
      "duration": 0.2115,
      "velocity": 85,
      "chip": "ym2612"
    },
    {
      "channel": 3,
      "note": 62,
      "start": 27.0454,
      "duration": 2.3113,
      "velocity": 106,
      "chip": "ym2612"
    },
    {
      "channel": 4,
      "note": 59,
      "start": 27.0458,
      "duration": 0.0955,
      "velocity": 102,
      "chip": "ym2612"
    },
    {
      "channel": 5,
      "note": 71,
      "start": 27.046,
      "duration": 2.3109,
      "velocity": 106,
      "chip": "ym2612"
    },
    {
      "channel": 0,
      "note": 59,
      "start": 27.1603,
      "duration": 0.0962,
      "velocity": 100,
      "chip": "ym2612"
    },
    {
      "channel": 4,
      "note": 59,
      "start": 27.1608,
      "duration": 0.0961,
      "velocity": 102,
      "chip": "ym2612"
    },
    {
      "channel": 0,
      "note": 59,
      "start": 27.2759,
      "duration": 0.2118,
      "velocity": 100,
      "chip": "ym2612"
    },
    {
      "channel": 2,
      "note": 52,
      "start": 27.2764,
      "duration": 0.0957,
      "velocity": 85,
      "chip": "ym2612"
    },
    {
      "channel": 2,
      "note": 54,
      "start": 27.3915,
      "duration": 0.0963,
      "velocity": 85,
      "chip": "ym2612"
    },
    {
      "channel": 4,
      "note": 59,
      "start": 27.3918,
      "duration": 0.0963,
      "velocity": 102,
      "chip": "ym2612"
    },
    {
      "channel": 0,
      "note": 74,
      "start": 27.5071,
      "duration": 0.2117,
      "velocity": 100,
      "chip": "ym2612"
    },
    {
      "channel": 1,
      "note": 69,
      "start": 27.5072,
      "duration": 0.2117,
      "velocity": 100,
      "chip": "ym2612"
    },
    {
      "channel": 4,
      "note": 59,
      "start": 27.5074,
      "duration": 0.0959,
      "velocity": 102,
      "chip": "ym2612"
    },
    {
      "channel": 2,
      "note": 57,
      "start": 27.6226,
      "duration": 0.0964,
      "velocity": 85,
      "chip": "ym2612"
    },
    {
      "channel": 4,
      "note": 59,
      "start": 27.6228,
      "duration": 0.0964,
      "velocity": 102,
      "chip": "ym2612"
    },
    {
      "channel": 0,
      "note": 78,
      "start": 27.7381,
      "duration": 0.2118,
      "velocity": 100,
      "chip": "ym2612"
    },
    {
      "channel": 1,
      "note": 73,
      "start": 27.7384,
      "duration": 0.2117,
      "velocity": 100,
      "chip": "ym2612"
    },
    {
      "channel": 4,
      "note": 59,
      "start": 27.7386,
      "duration": 0.2118,
      "velocity": 102,
      "chip": "ym2612"
    },
    {
      "channel": 2,
      "note": 52,
      "start": 27.8538,
      "duration": 0.0964,
      "velocity": 85,
      "chip": "ym2612"
    },
    {
      "channel": 2,
      "note": 54,
      "start": 27.9694,
      "duration": 0.0962,
      "velocity": 85,
      "chip": "ym2612"
    },
    {
      "channel": 4,
      "note": 59,
      "start": 27.9698,
      "duration": 0.0959,
      "velocity": 102,
      "chip": "ym2612"
    },
    {
      "channel": 0,
      "note": 81,
      "start": 28.0849,
      "duration": 0.0962,
      "velocity": 100,
      "chip": "ym2612"
    },
    {
      "channel": 1,
      "note": 76,
      "start": 28.0851,
      "duration": 0.0961,
      "velocity": 100,
      "chip": "ym2612"
    },
    {
      "channel": 4,
      "note": 59,
      "start": 28.0855,
      "duration": 0.0959,
      "velocity": 102,
      "chip": "ym2612"
    },
    {
      "channel": 0,
      "note": 79,
      "start": 28.2004,
      "duration": 0.2118,
      "velocity": 100,
      "chip": "ym2612"
    },
    {
      "channel": 1,
      "note": 74,
      "start": 28.2007,
      "duration": 0.2116,
      "velocity": 100,
      "chip": "ym2612"
    },
    {
      "channel": 2,
      "note": 57,
      "start": 28.2009,
      "duration": 0.2117,
      "velocity": 85,
      "chip": "ym2612"
    },
    {
      "channel": 0,
      "note": 78,
      "start": 28.4316,
      "duration": 0.0962,
      "velocity": 100,
      "chip": "ym2612"
    },
    {
      "channel": 1,
      "note": 73,
      "start": 28.4318,
      "duration": 0.0961,
      "velocity": 100,
      "chip": "ym2612"
    },
    {
      "channel": 2,
      "note": 54,
      "start": 28.432,
      "duration": 0.2115,
      "velocity": 85,
      "chip": "ym2612"
    },
    {
      "channel": 4,
      "note": 59,
      "start": 28.4325,
      "duration": 0.0956,
      "velocity": 102,
      "chip": "ym2612"
    },
    {
      "channel": 0,
      "note": 71,
      "start": 28.5471,
      "duration": 0.0962,
      "velocity": 100,
      "chip": "ym2612"
    },
    {
      "channel": 4,
      "note": 59,
      "start": 28.5476,
      "duration": 0.0961,
      "velocity": 102,
      "chip": "ym2612"
    },
    {
      "channel": 0,
      "note": 66,
      "start": 28.7783,
      "duration": 0.0962,
      "velocity": 100,
      "chip": "ym2612"
    },
    {
      "channel": 2,
      "note": 54,
      "start": 28.7785,
      "duration": 0.0961,
      "velocity": 85,
      "chip": "ym2612"
    },
    {
      "channel": 4,
      "note": 59,
      "start": 28.7787,
      "duration": 0.0961,
      "velocity": 102,
      "chip": "ym2612"
    },
    {
      "channel": 0,
      "note": 74,
      "start": 28.8939,
      "duration": 0.0962,
      "velocity": 100,
      "chip": "ym2612"
    },
    {
      "channel": 1,
      "note": 69,
      "start": 28.8941,
      "duration": 0.0961,
      "velocity": 100,
      "chip": "ym2612"
    },
    {
      "channel": 2,
      "note": 57,
      "start": 28.8943,
      "duration": 0.0961,
      "velocity": 85,
      "chip": "ym2612"
    },
    {
      "channel": 4,
      "note": 59,
      "start": 28.8946,
      "duration": 0.0959,
      "velocity": 102,
      "chip": "ym2612"
    },
    {
      "channel": 0,
      "note": 66,
      "start": 29.0098,
      "duration": 0.0958,
      "velocity": 100,
      "chip": "ym2612"
    },
    {
      "channel": 2,
      "note": 54,
      "start": 29.01,
      "duration": 0.0957,
      "velocity": 85,
      "chip": "ym2612"
    },
    {
      "channel": 4,
      "note": 59,
      "start": 29.0104,
      "duration": 0.0955,
      "velocity": 102,
      "chip": "ym2612"
    },
    {
      "channel": 0,
      "note": 75,
      "start": 29.125,
      "duration": 0.0962,
      "velocity": 100,
      "chip": "ym2612"
    },
    {
      "channel": 1,
      "note": 70,
      "start": 29.1252,
      "duration": 0.0961,
      "velocity": 100,
      "chip": "ym2612"
    },
    {
      "channel": 2,
      "note": 58,
      "start": 29.1254,
      "duration": 0.0961,
      "velocity": 85,
      "chip": "ym2612"
    },
    {
      "channel": 0,
      "note": 66,
      "start": 29.2406,
      "duration": 0.0962,
      "velocity": 100,
      "chip": "ym2612"
    },
    {
      "channel": 2,
      "note": 54,
      "start": 29.2407,
      "duration": 0.0961,
      "velocity": 85,
      "chip": "ym2612"
    },
    {
      "channel": 4,
      "note": 59,
      "start": 29.241,
      "duration": 0.0961,
      "velocity": 102,
      "chip": "ym2612"
    },
    {
      "channel": 0,
      "note": 77,
      "start": 29.3561,
      "duration": 0.0963,
      "velocity": 100,
      "chip": "ym2612"
    },
    {
      "channel": 1,
      "note": 71,
      "start": 29.3563,
      "duration": 0.0961,
      "velocity": 100,
      "chip": "ym2612"
    },
    {
      "channel": 2,
      "note": 59,
      "start": 29.3565,
      "duration": 0.0961,
      "velocity": 85,
      "chip": "ym2612"
    },
    {
      "channel": 4,
      "note": 59,
      "start": 29.3568,
      "duration": 0.0959,
      "velocity": 102,
      "chip": "ym2612"
    },
    {
      "channel": 0,
      "note": 66,
      "start": 29.4717,
      "duration": 0.0962,
      "velocity": 100,
      "chip": "ym2612"
    },
    {
      "channel": 2,
      "note": 54,
      "start": 29.4719,
      "duration": 0.0961,
      "velocity": 85,
      "chip": "ym2612"
    },
    {
      "channel": 4,
      "note": 59,
      "start": 29.4721,
      "duration": 0.0961,
      "velocity": 102,
      "chip": "ym2612"
    },
    {
      "channel": 0,
      "note": 59,
      "start": 29.5873,
      "duration": 0.2118,
      "velocity": 100,
      "chip": "ym2612"
    },
    {
      "channel": 1,
      "note": 71,
      "start": 29.5874,
      "duration": 0.096,
      "velocity": 100,
      "chip": "ym2612"
    },
    {
      "channel": 2,
      "note": 59,
      "start": 29.5876,
      "duration": 0.2116,
      "velocity": 85,
      "chip": "ym2612"
    },
    {
      "channel": 3,
      "note": 76,
      "start": 29.5879,
      "duration": 0.327,
      "velocity": 106,
      "chip": "ym2612"
    },
    {
      "channel": 4,
      "note": 59,
      "start": 29.588,
      "duration": 0.2115,
      "velocity": 102,
      "chip": "ym2612"
    },
    {
      "channel": 1,
      "note": 71,
      "start": 29.7028,
      "duration": 0.0964,
      "velocity": 100,
      "chip": "ym2612"
    },
    {
      "channel": 0,
      "note": 76,
      "start": 29.8184,
      "duration": 0.0962,
      "velocity": 100,
      "chip": "ym2612"
    },
    {
      "channel": 1,
      "note": 71,
      "start": 29.8185,
      "duration": 0.2117,
      "velocity": 100,
      "chip": "ym2612"
    },
    {
      "channel": 2,
      "note": 54,
      "start": 29.8188,
      "duration": 0.096,
      "velocity": 85,
      "chip": "ym2612"
    },
    {
      "channel": 4,
      "note": 59,
      "start": 29.8191,
      "duration": 0.0959,
      "velocity": 102,
      "chip": "ym2612"
    },
    {
      "channel": 0,
      "note": 76,
      "start": 29.9339,
      "duration": 0.0963,
      "velocity": 100,
      "chip": "ym2612"
    },
    {
      "channel": 2,
      "note": 54,
      "start": 29.9341,
      "duration": 0.0963,
      "velocity": 85,
      "chip": "ym2612"
    },
    {
      "channel": 3,
      "note": 83,
      "start": 29.9343,
      "duration": 3.1009,
      "velocity": 106,
      "chip": "ym2612"
    },
    {
      "channel": 4,
      "note": 59,
      "start": 29.9346,
      "duration": 0.0959,
      "velocity": 102,
      "chip": "ym2612"
    },
    {
      "channel": 5,
      "note": 78,
      "start": 29.9348,
      "duration": 1.4826,
      "velocity": 106,
      "chip": "ym2612"
    },
    {
      "channel": 0,
      "note": 76,
      "start": 30.0495,
      "duration": 0.2118,
      "velocity": 100,
      "chip": "ym2612"
    },
    {
      "channel": 1,
      "note": 69,
      "start": 30.0497,
      "duration": 0.2118,
      "velocity": 100,
      "chip": "ym2612"
    },
    {
      "channel": 2,
      "note": 57,
      "start": 30.0499,
      "duration": 0.2117,
      "velocity": 85,
      "chip": "ym2612"
    },
    {
      "channel": 0,
      "note": 74,
      "start": 30.2806,
      "duration": 0.2118,
      "velocity": 100,
      "chip": "ym2612"
    },
    {
      "channel": 2,
      "note": 54,
      "start": 30.2809,
      "duration": 0.2116,
      "velocity": 85,
      "chip": "ym2612"
    },
    {
      "channel": 4,
      "note": 59,
      "start": 30.2813,
      "duration": 0.0956,
      "velocity": 102,
      "chip": "ym2612"
    },
    {
      "channel": 4,
      "note": 59,
      "start": 30.3964,
      "duration": 0.0967,
      "velocity": 102,
      "chip": "ym2612"
    },
    {
      "channel": 0,
      "note": 59,
      "start": 30.5117,
      "duration": 0.2118,
      "velocity": 100,
      "chip": "ym2612"
    },
    {
      "channel": 1,
      "note": 73,
      "start": 30.512,
      "duration": 0.096,
      "velocity": 100,
      "chip": "ym2612"
    },
    {
      "channel": 4,
      "note": 59,
      "start": 30.6275,
      "duration": 0.0963,
      "velocity": 102,
      "chip": "ym2612"
    },
    {
      "channel": 0,
      "note": 78,
      "start": 30.7432,
      "duration": 0.0959,
      "velocity": 100,
      "chip": "ym2612"
    },
    {
      "channel": 2,
      "note": 59,
      "start": 30.7435,
      "duration": 0.2113,
      "velocity": 85,
      "chip": "ym2612"
    },
    {
      "channel": 4,
      "note": 59,
      "start": 30.7439,
      "duration": 0.0954,
      "velocity": 102,
      "chip": "ym2612"
    },
    {
      "channel": 0,
      "note": 59,
      "start": 30.8585,
      "duration": 0.0962,
      "velocity": 100,
      "chip": "ym2612"
    },
    {
      "channel": 4,
      "note": 59,
      "start": 30.8589,
      "duration": 0.0961,
      "velocity": 102,
      "chip": "ym2612"
    },
    {
      "channel": 0,
      "note": 59,
      "start": 30.974,
      "duration": 0.2118,
      "velocity": 100,
      "chip": "ym2612"
    },
    {
      "channel": 1,
      "note": 69,
      "start": 30.9742,
      "duration": 0.2117,
      "velocity": 100,
      "chip": "ym2612"
    },
    {
      "channel": 2,
      "note": 52,
      "start": 30.9744,
      "duration": 0.0959,
      "velocity": 85,
      "chip": "ym2612"
    },
    {
      "channel": 2,
      "note": 54,
      "start": 31.0897,
      "duration": 0.0964,
      "velocity": 85,
      "chip": "ym2612"
    },
    {
      "channel": 4,
      "note": 59,
      "start": 31.0899,
      "duration": 0.0964,
      "velocity": 102,
      "chip": "ym2612"
    },
    {
      "channel": 0,
      "note": 74,
      "start": 31.2052,
      "duration": 0.2118,
      "velocity": 100,
      "chip": "ym2612"
    },
    {
      "channel": 4,
      "note": 59,
      "start": 31.2054,
      "duration": 0.0961,
      "velocity": 102,
      "chip": "ym2612"
    },
    {
      "channel": 2,
      "note": 57,
      "start": 31.3208,
      "duration": 0.0963,
      "velocity": 85,
      "chip": "ym2612"
    },
    {
      "channel": 4,
      "note": 59,
      "start": 31.321,
      "duration": 0.0963,
      "velocity": 102,
      "chip": "ym2612"
    },
    {
      "channel": 0,
      "note": 78,
      "start": 31.4363,
      "duration": 0.2118,
      "velocity": 100,
      "chip": "ym2612"
    },
    {
      "channel": 1,
      "note": 73,
      "start": 31.4365,
      "duration": 0.2117,
      "velocity": 100,
      "chip": "ym2612"
    },
    {
      "channel": 4,
      "note": 59,
      "start": 31.4367,
      "duration": 0.2118,
      "velocity": 102,
      "chip": "ym2612"
    },
    {
      "channel": 5,
      "note": 74,
      "start": 31.4369,
      "duration": 0.4039,
      "velocity": 106,
      "chip": "ym2612"
    },
    {
      "channel": 2,
      "note": 52,
      "start": 31.552,
      "duration": 0.0964,
      "velocity": 85,
      "chip": "ym2612"
    },
    {
      "channel": 2,
      "note": 54,
      "start": 31.6675,
      "duration": 0.0962,
      "velocity": 85,
      "chip": "ym2612"
    },
    {
      "channel": 4,
      "note": 59,
      "start": 31.6678,
      "duration": 0.096,
      "velocity": 102,
      "chip": "ym2612"
    },
    {
      "channel": 0,
      "note": 83,
      "start": 31.783,
      "duration": 0.0962,
      "velocity": 100,
      "chip": "ym2612"
    },
    {
      "channel": 1,
      "note": 78,
      "start": 31.7832,
      "duration": 0.0961,
      "velocity": 100,
      "chip": "ym2612"
    },
    {
      "channel": 4,
      "note": 59,
      "start": 31.7836,
      "duration": 0.0959,
      "velocity": 102,
      "chip": "ym2612"
    },
    {
      "channel": 0,
      "note": 81,
      "start": 31.8986,
      "duration": 0.2118,
      "velocity": 100,
      "chip": "ym2612"
    },
    {
      "channel": 1,
      "note": 76,
      "start": 31.8988,
      "duration": 0.2117,
      "velocity": 100,
      "chip": "ym2612"
    },
    {
      "channel": 2,
      "note": 57,
      "start": 31.899,
      "duration": 0.0958,
      "velocity": 85,
      "chip": "ym2612"
    },
    {
      "channel": 5,
      "note": 76,
      "start": 31.8993,
      "duration": 1.2709,
      "velocity": 106,
      "chip": "ym2612"
    },
    {
      "channel": 2,
      "note": 54,
      "start": 32.0142,
      "duration": 0.0964,
      "velocity": 85,
      "chip": "ym2612"
    },
    {
      "channel": 0,
      "note": 79,
      "start": 32.1297,
      "duration": 0.0963,
      "velocity": 100,
      "chip": "ym2612"
    },
    {
      "channel": 1,
      "note": 74,
      "start": 32.1299,
      "duration": 0.0965,
      "velocity": 100,
      "chip": "ym2612"
    },
    {
      "channel": 4,
      "note": 59,
      "start": 32.1304,
      "duration": 0.0962,
      "velocity": 102,
      "chip": "ym2612"
    },
    {
      "channel": 0,
      "note": 74,
      "start": 32.2453,
      "duration": 0.0962,
      "velocity": 100,
      "chip": "ym2612"
    },
    {
      "channel": 2,
      "note": 50,
      "start": 32.2455,
      "duration": 0.0961,
      "velocity": 85,
      "chip": "ym2612"
    },
    {
      "channel": 4,
      "note": 59,
      "start": 32.2459,
      "duration": 0.0959,
      "velocity": 102,
      "chip": "ym2612"
    },
    {
      "channel": 2,
      "note": 50,
      "start": 32.3608,
      "duration": 0.0963,
      "velocity": 85,
      "chip": "ym2612"
    },
    {
      "channel": 0,
      "note": 78,
      "start": 32.4766,
      "duration": 0.0961,
      "velocity": 100,
      "chip": "ym2612"
    },
    {
      "channel": 1,
      "note": 73,
      "start": 32.4768,
      "duration": 0.0959,
      "velocity": 100,
      "chip": "ym2612"
    },
    {
      "channel": 2,
      "note": 52,
      "start": 32.477,
      "duration": 0.0959,
      "velocity": 85,
      "chip": "ym2612"
    },
    {
      "channel": 4,
      "note": 59,
      "start": 32.4773,
      "duration": 0.0958,
      "velocity": 102,
      "chip": "ym2612"
    },
    {
      "channel": 4,
      "note": 59,
      "start": 32.5922,
      "duration": 0.0961,
      "velocity": 102,
      "chip": "ym2612"
    },
    {
      "channel": 0,
      "note": 78,
      "start": 32.7076,
      "duration": 0.0962,
      "velocity": 100,
      "chip": "ym2612"
    },
    {
      "channel": 1,
      "note": 73,
      "start": 32.7077,
      "duration": 0.0961,
      "velocity": 100,
      "chip": "ym2612"
    },
    {
      "channel": 2,
      "note": 52,
      "start": 32.7079,
      "duration": 0.0961,
      "velocity": 85,
      "chip": "ym2612"
    },
    {
      "channel": 4,
      "note": 59,
      "start": 32.7083,
      "duration": 0.0959,
      "velocity": 102,
      "chip": "ym2612"
    },
    {
      "channel": 0,
      "note": 76,
      "start": 32.8231,
      "duration": 0.2117,
      "velocity": 100,
      "chip": "ym2612"
    },
    {
      "channel": 1,
      "note": 71,
      "start": 32.8233,
      "duration": 0.2117,
      "velocity": 100,
      "chip": "ym2612"
    },
    {
      "channel": 4,
      "note": 59,
      "start": 32.9388,
      "duration": 0.0965,
      "velocity": 102,
      "chip": "ym2612"
    },
    {
      "channel": 0,
      "note": 74,
      "start": 33.0542,
      "duration": 0.2118,
      "velocity": 100,
      "chip": "ym2612"
    },
    {
      "channel": 1,
      "note": 69,
      "start": 33.0544,
      "duration": 0.2117,
      "velocity": 100,
      "chip": "ym2612"
    },
    {
      "channel": 3,
      "note": 85,
      "start": 33.0547,
      "duration": 0.0958,
      "velocity": 106,
      "chip": "ym2612"
    },
    {
      "channel": 4,
      "note": 59,
      "start": 33.0549,
      "duration": 0.0957,
      "velocity": 102,
      "chip": "ym2612"
    },
    {
      "channel": 3,
      "note": 86,
      "start": 33.1699,
      "duration": 0.0964,
      "velocity": 106,
      "chip": "ym2612"
    },
    {
      "channel": 4,
      "note": 59,
      "start": 33.17,
      "duration": 0.0964,
      "velocity": 102,
      "chip": "ym2612"
    },
    {
      "channel": 0,
      "note": 59,
      "start": 33.2854,
      "duration": 0.2118,
      "velocity": 100,
      "chip": "ym2612"
    },
    {
      "channel": 2,
      "note": 59,
      "start": 33.2856,
      "duration": 0.2117,
      "velocity": 85,
      "chip": "ym2612"
    },
    {
      "channel": 3,
      "note": 88,
      "start": 33.2858,
      "duration": 1.213,
      "velocity": 106,
      "chip": "ym2612"
    },
    {
      "channel": 4,
      "note": 59,
      "start": 33.286,
      "duration": 0.2115,
      "velocity": 102,
      "chip": "ym2612"
    },
    {
      "channel": 5,
      "note": 81,
      "start": 33.2862,
      "duration": 1.6176,
      "velocity": 106,
      "chip": "ym2612"
    },
    {
      "channel": 0,
      "note": 76,
      "start": 33.5165,
      "duration": 0.0962,
      "velocity": 100,
      "chip": "ym2612"
    },
    {
      "channel": 1,
      "note": 71,
      "start": 33.5167,
      "duration": 0.0961,
      "velocity": 100,
      "chip": "ym2612"
    },
    {
      "channel": 2,
      "note": 54,
      "start": 33.517,
      "duration": 0.096,
      "velocity": 85,
      "chip": "ym2612"
    },
    {
      "channel": 4,
      "note": 59,
      "start": 33.5173,
      "duration": 0.0958,
      "velocity": 102,
      "chip": "ym2612"
    },
    {
      "channel": 0,
      "note": 76,
      "start": 33.632,
      "duration": 0.0963,
      "velocity": 100,
      "chip": "ym2612"
    },
    {
      "channel": 1,
      "note": 71,
      "start": 33.6322,
      "duration": 0.0962,
      "velocity": 100,
      "chip": "ym2612"
    },
    {
      "channel": 2,
      "note": 54,
      "start": 33.6323,
      "duration": 0.0963,
      "velocity": 85,
      "chip": "ym2612"
    },
    {
      "channel": 4,
      "note": 59,
      "start": 33.6327,
      "duration": 0.0961,
      "velocity": 102,
      "chip": "ym2612"
    },
    {
      "channel": 0,
      "note": 76,
      "start": 33.7476,
      "duration": 0.2122,
      "velocity": 100,
      "chip": "ym2612"
    },
    {
      "channel": 1,
      "note": 71,
      "start": 33.7477,
      "duration": 0.2122,
      "velocity": 100,
      "chip": "ym2612"
    },
    {
      "channel": 2,
      "note": 57,
      "start": 33.7479,
      "duration": 0.2121,
      "velocity": 85,
      "chip": "ym2612"
    },
    {
      "channel": 0,
      "note": 74,
      "start": 33.9788,
      "duration": 0.2118,
      "velocity": 100,
      "chip": "ym2612"
    },
    {
      "channel": 1,
      "note": 69,
      "start": 33.979,
      "duration": 0.2117,
      "velocity": 100,
      "chip": "ym2612"
    },
    {
      "channel": 2,
      "note": 54,
      "start": 33.9792,
      "duration": 0.2116,
      "velocity": 85,
      "chip": "ym2612"
    },
    {
      "channel": 4,
      "note": 59,
      "start": 33.9797,
      "duration": 0.0954,
      "velocity": 102,
      "chip": "ym2612"
    },
    {
      "channel": 4,
      "note": 59,
      "start": 34.0946,
      "duration": 0.0964,
      "velocity": 102,
      "chip": "ym2612"
    },
    {
      "channel": 0,
      "note": 59,
      "start": 34.21,
      "duration": 0.2117,
      "velocity": 100,
      "chip": "ym2612"
    },
    {
      "channel": 4,
      "note": 59,
      "start": 34.3256,
      "duration": 0.0963,
      "velocity": 102,
      "chip": "ym2612"
    },
    {
      "channel": 0,
      "note": 78,
      "start": 34.441,
      "duration": 0.0962,
      "velocity": 100,
      "chip": "ym2612"
    },
    {
      "channel": 1,
      "note": 73,
      "start": 34.4413,
      "duration": 0.0961,
      "velocity": 100,
      "chip": "ym2612"
    },
    {
      "channel": 2,
      "note": 59,
      "start": 34.4415,
      "duration": 0.2115,
      "velocity": 85,
      "chip": "ym2612"
    },
    {
      "channel": 4,
      "note": 59,
      "start": 34.4418,
      "duration": 0.0957,
      "velocity": 102,
      "chip": "ym2612"
    },
    {
      "channel": 0,
      "note": 59,
      "start": 34.5566,
      "duration": 0.0962,
      "velocity": 100,
      "chip": "ym2612"
    },
    {
      "channel": 4,
      "note": 59,
      "start": 34.5571,
      "duration": 0.0961,
      "velocity": 102,
      "chip": "ym2612"
    },
    {
      "channel": 0,
      "note": 59,
      "start": 34.6721,
      "duration": 0.2118,
      "velocity": 100,
      "chip": "ym2612"
    },
    {
      "channel": 2,
      "note": 52,
      "start": 34.6724,
      "duration": 0.0961,
      "velocity": 85,
      "chip": "ym2612"
    },
    {
      "channel": 3,
      "note": 86,
      "start": 34.6726,
      "duration": 0.4041,
      "velocity": 106,
      "chip": "ym2612"
    },
    {
      "channel": 2,
      "note": 54,
      "start": 34.7878,
      "duration": 0.0963,
      "velocity": 85,
      "chip": "ym2612"
    },
    {
      "channel": 4,
      "note": 59,
      "start": 34.788,
      "duration": 0.0962,
      "velocity": 102,
      "chip": "ym2612"
    },
    {
      "channel": 0,
      "note": 74,
      "start": 34.9033,
      "duration": 0.2118,
      "velocity": 100,
      "chip": "ym2612"
    },
    {
      "channel": 1,
      "note": 69,
      "start": 34.9035,
      "duration": 0.2117,
      "velocity": 100,
      "chip": "ym2612"
    },
    {
      "channel": 4,
      "note": 59,
      "start": 34.9037,
      "duration": 0.0959,
      "velocity": 102,
      "chip": "ym2612"
    },
    {
      "channel": 2,
      "note": 57,
      "start": 35.0189,
      "duration": 0.0964,
      "velocity": 85,
      "chip": "ym2612"
    },
    {
      "channel": 4,
      "note": 59,
      "start": 35.0191,
      "duration": 0.0964,
      "velocity": 102,
      "chip": "ym2612"
    },
    {
      "channel": 0,
      "note": 78,
      "start": 35.1345,
      "duration": 0.2118,
      "velocity": 100,
      "chip": "ym2612"
    },
    {
      "channel": 1,
      "note": 73,
      "start": 35.1346,
      "duration": 0.2117,
      "velocity": 100,
      "chip": "ym2612"
    },
    {
      "channel": 3,
      "note": 85,
      "start": 35.1349,
      "duration": 0.8087,
      "velocity": 106,
      "chip": "ym2612"
    },
    {
      "channel": 4,
      "note": 59,
      "start": 35.135,
      "duration": 0.2116,
      "velocity": 102,
      "chip": "ym2612"
    },
    {
      "channel": 5,
      "note": 78,
      "start": 35.1353,
      "duration": 2.0606,
      "velocity": 106,
      "chip": "ym2612"
    },
    {
      "channel": 2,
      "note": 52,
      "start": 35.25,
      "duration": 0.0964,
      "velocity": 85,
      "chip": "ym2612"
    },
    {
      "channel": 2,
      "note": 54,
      "start": 35.3656,
      "duration": 0.0962,
      "velocity": 85,
      "chip": "ym2612"
    },
    {
      "channel": 4,
      "note": 59,
      "start": 35.366,
      "duration": 0.096,
      "velocity": 102,
      "chip": "ym2612"
    },
    {
      "channel": 0,
      "note": 81,
      "start": 35.4812,
      "duration": 0.0962,
      "velocity": 100,
      "chip": "ym2612"
    },
    {
      "channel": 1,
      "note": 76,
      "start": 35.4813,
      "duration": 0.0961,
      "velocity": 100,
      "chip": "ym2612"
    },
    {
      "channel": 4,
      "note": 59,
      "start": 35.4818,
      "duration": 0.0959,
      "velocity": 102,
      "chip": "ym2612"
    },
    {
      "channel": 0,
      "note": 79,
      "start": 35.5967,
      "duration": 0.2118,
      "velocity": 100,
      "chip": "ym2612"
    },
    {
      "channel": 1,
      "note": 74,
      "start": 35.5969,
      "duration": 0.2117,
      "velocity": 100,
      "chip": "ym2612"
    },
    {
      "channel": 2,
      "note": 57,
      "start": 35.5971,
      "duration": 0.2116,
      "velocity": 85,
      "chip": "ym2612"
    },
    {
      "channel": 0,
      "note": 78,
      "start": 35.8278,
      "duration": 0.0962,
      "velocity": 100,
      "chip": "ym2612"
    },
    {
      "channel": 1,
      "note": 73,
      "start": 35.828,
      "duration": 0.0961,
      "velocity": 100,
      "chip": "ym2612"
    },
    {
      "channel": 2,
      "note": 54,
      "start": 35.8283,
      "duration": 0.2115,
      "velocity": 85,
      "chip": "ym2612"
    },
    {
      "channel": 4,
      "note": 59,
      "start": 35.8287,
      "duration": 0.0956,
      "velocity": 102,
      "chip": "ym2612"
    },
    {
      "channel": 0,
      "note": 71,
      "start": 35.9434,
      "duration": 0.0962,
      "velocity": 100,
      "chip": "ym2612"
    },
    {
      "channel": 4,
      "note": 59,
      "start": 35.9439,
      "duration": 0.096,
      "velocity": 102,
      "chip": "ym2612"
    },
    {
      "channel": 3,
      "note": 83,
      "start": 36.059,
      "duration": 0.8093,
      "velocity": 106,
      "chip": "ym2612"
    },
    {
      "channel": 0,
      "note": 66,
      "start": 36.1745,
      "duration": 0.0962,
      "velocity": 100,
      "chip": "ym2612"
    },
    {
      "channel": 2,
      "note": 54,
      "start": 36.1748,
      "duration": 0.0961,
      "velocity": 85,
      "chip": "ym2612"
    },
    {
      "channel": 4,
      "note": 59,
      "start": 36.175,
      "duration": 0.096,
      "velocity": 102,
      "chip": "ym2612"
    },
    {
      "channel": 0,
      "note": 74,
      "start": 36.2901,
      "duration": 0.0962,
      "velocity": 100,
      "chip": "ym2612"
    },
    {
      "channel": 1,
      "note": 69,
      "start": 36.2903,
      "duration": 0.0961,
      "velocity": 100,
      "chip": "ym2612"
    },
    {
      "channel": 2,
      "note": 57,
      "start": 36.2905,
      "duration": 0.0961,
      "velocity": 85,
      "chip": "ym2612"
    },
    {
      "channel": 4,
      "note": 59,
      "start": 36.2909,
      "duration": 0.0959,
      "velocity": 102,
      "chip": "ym2612"
    },
    {
      "channel": 0,
      "note": 66,
      "start": 36.4056,
      "duration": 0.0962,
      "velocity": 100,
      "chip": "ym2612"
    },
    {
      "channel": 2,
      "note": 54,
      "start": 36.4059,
      "duration": 0.0961,
      "velocity": 85,
      "chip": "ym2612"
    },
    {
      "channel": 4,
      "note": 59,
      "start": 36.4063,
      "duration": 0.0959,
      "velocity": 102,
      "chip": "ym2612"
    },
    {
      "channel": 0,
      "note": 75,
      "start": 36.5212,
      "duration": 0.0962,
      "velocity": 100,
      "chip": "ym2612"
    },
    {
      "channel": 1,
      "note": 70,
      "start": 36.5214,
      "duration": 0.0962,
      "velocity": 100,
      "chip": "ym2612"
    },
    {
      "channel": 2,
      "note": 58,
      "start": 36.5217,
      "duration": 0.0961,
      "velocity": 85,
      "chip": "ym2612"
    },
    {
      "channel": 0,
      "note": 66,
      "start": 36.6368,
      "duration": 0.0962,
      "velocity": 100,
      "chip": "ym2612"
    },
    {
      "channel": 2,
      "note": 54,
      "start": 36.6371,
      "duration": 0.0961,
      "velocity": 85,
      "chip": "ym2612"
    },
    {
      "channel": 4,
      "note": 59,
      "start": 36.6373,
      "duration": 0.0961,
      "velocity": 102,
      "chip": "ym2612"
    },
    {
      "channel": 0,
      "note": 77,
      "start": 36.7524,
      "duration": 0.0962,
      "velocity": 100,
      "chip": "ym2612"
    },
    {
      "channel": 1,
      "note": 71,
      "start": 36.7526,
      "duration": 0.0961,
      "velocity": 100,
      "chip": "ym2612"
    },
    {
      "channel": 2,
      "note": 59,
      "start": 36.7528,
      "duration": 0.0961,
      "velocity": 85,
      "chip": "ym2612"
    },
    {
      "channel": 4,
      "note": 59,
      "start": 36.753,
      "duration": 0.0961,
      "velocity": 102,
      "chip": "ym2612"
    },
    {
      "channel": 0,
      "note": 66,
      "start": 36.8679,
      "duration": 0.0962,
      "velocity": 100,
      "chip": "ym2612"
    },
    {
      "channel": 2,
      "note": 54,
      "start": 36.8682,
      "duration": 0.0961,
      "velocity": 85,
      "chip": "ym2612"
    },
    {
      "channel": 4,
      "note": 59,
      "start": 36.8685,
      "duration": 0.0959,
      "velocity": 102,
      "chip": "ym2612"
    },
    {
      "channel": 0,
      "note": 59,
      "start": 36.9835,
      "duration": 0.2118,
      "velocity": 100,
      "chip": "ym2612"
    },
    {
      "channel": 1,
      "note": 71,
      "start": 36.9837,
      "duration": 0.0961,
      "velocity": 100,
      "chip": "ym2612"
    },
    {
      "channel": 2,
      "note": 59,
      "start": 36.9839,
      "duration": 0.2116,
      "velocity": 85,
      "chip": "ym2612"
    },
    {
      "channel": 3,
      "note": 81,
      "start": 36.9841,
      "duration": 1.5402,
      "velocity": 106,
      "chip": "ym2612"
    },
    {
      "channel": 4,
      "note": 59,
      "start": 36.9843,
      "duration": 0.2115,
      "velocity": 102,
      "chip": "ym2612"
    },
    {
      "channel": 1,
      "note": 71,
      "start": 37.099,
      "duration": 0.0964,
      "velocity": 100,
      "chip": "ym2612"
    },
    {
      "channel": 0,
      "note": 76,
      "start": 37.2146,
      "duration": 0.0963,
      "velocity": 100,
      "chip": "ym2612"
    },
    {
      "channel": 1,
      "note": 71,
      "start": 37.2148,
      "duration": 0.2118,
      "velocity": 100,
      "chip": "ym2612"
    },
    {
      "channel": 2,
      "note": 54,
      "start": 37.215,
      "duration": 0.096,
      "velocity": 85,
      "chip": "ym2612"
    },
    {
      "channel": 4,
      "note": 59,
      "start": 37.2154,
      "duration": 0.0958,
      "velocity": 102,
      "chip": "ym2612"
    },
    {
      "channel": 5,
      "note": 78,
      "start": 37.2156,
      "duration": 0.0957,
      "velocity": 106,
      "chip": "ym2612"
    },
    {
      "channel": 0,
      "note": 76,
      "start": 37.3301,
      "duration": 0.0964,
      "velocity": 100,
      "chip": "ym2612"
    },
    {
      "channel": 2,
      "note": 54,
      "start": 37.3303,
      "duration": 0.0964,
      "velocity": 85,
      "chip": "ym2612"
    },
    {
      "channel": 4,
      "note": 59,
      "start": 37.3307,
      "duration": 0.0963,
      "velocity": 102,
      "chip": "ym2612"
    },
    {
      "channel": 5,
      "note": 76,
      "start": 37.3309,
      "duration": 0.3075,
      "velocity": 106,
      "chip": "ym2612"
    },
    {
      "channel": 0,
      "note": 76,
      "start": 37.4457,
      "duration": 0.2118,
      "velocity": 100,
      "chip": "ym2612"
    },
    {
      "channel": 1,
      "note": 69,
      "start": 37.4459,
      "duration": 0.2118,
      "velocity": 100,
      "chip": "ym2612"
    },
    {
      "channel": 2,
      "note": 57,
      "start": 37.4461,
      "duration": 0.2117,
      "velocity": 85,
      "chip": "ym2612"
    },
    {
      "channel": 0,
      "note": 74,
      "start": 37.6769,
      "duration": 0.2118,
      "velocity": 100,
      "chip": "ym2612"
    },
    {
      "channel": 2,
      "note": 54,
      "start": 37.6771,
      "duration": 0.2117,
      "velocity": 85,
      "chip": "ym2612"
    },
    {
      "channel": 4,
      "note": 59,
      "start": 37.6776,
      "duration": 0.0956,
      "velocity": 102,
      "chip": "ym2612"
    },
    {
      "channel": 5,
      "note": 74,
      "start": 37.6778,
      "duration": 0.2112,
      "velocity": 106,
      "chip": "ym2612"
    },
    {
      "channel": 4,
      "note": 59,
      "start": 37.793,
      "duration": 0.0959,
      "velocity": 102,
      "chip": "ym2612"
    },
    {
      "channel": 0,
      "note": 59,
      "start": 37.908,
      "duration": 0.2118,
      "velocity": 100,
      "chip": "ym2612"
    },
    {
      "channel": 1,
      "note": 73,
      "start": 37.9083,
      "duration": 0.096,
      "velocity": 100,
      "chip": "ym2612"
    },
    {
      "channel": 5,
      "note": 71,
      "start": 37.9086,
      "duration": 0.0959,
      "velocity": 106,
      "chip": "ym2612"
    },
    {
      "channel": 4,
      "note": 59,
      "start": 38.0237,
      "duration": 0.0963,
      "velocity": 102,
      "chip": "ym2612"
    },
    {
      "channel": 5,
      "note": 73,
      "start": 38.0239,
      "duration": 0.0962,
      "velocity": 106,
      "chip": "ym2612"
    },
    {
      "channel": 0,
      "note": 78,
      "start": 38.1392,
      "duration": 0.0962,
      "velocity": 100,
      "chip": "ym2612"
    },
    {
      "channel": 2,
      "note": 59,
      "start": 38.1394,
      "duration": 0.2117,
      "velocity": 85,
      "chip": "ym2612"
    },
    {
      "channel": 4,
      "note": 59,
      "start": 38.1398,
      "duration": 0.0957,
      "velocity": 102,
      "chip": "ym2612"
    },
    {
      "channel": 5,
      "note": 74,
      "start": 38.14,
      "duration": 1.5023,
      "velocity": 106,
      "chip": "ym2612"
    },
    {
      "channel": 0,
      "note": 59,
      "start": 38.2548,
      "duration": 0.0962,
      "velocity": 100,
      "chip": "ym2612"
    },
    {
      "channel": 4,
      "note": 59,
      "start": 38.2551,
      "duration": 0.0961,
      "velocity": 102,
      "chip": "ym2612"
    },
    {
      "channel": 0,
      "note": 59,
      "start": 38.3702,
      "duration": 0.2118,
      "velocity": 100,
      "chip": "ym2612"
    },
    {
      "channel": 1,
      "note": 69,
      "start": 38.3705,
      "duration": 0.2118,
      "velocity": 100,
      "chip": "ym2612"
    },
    {
      "channel": 2,
      "note": 52,
      "start": 38.3707,
      "duration": 0.0959,
      "velocity": 85,
      "chip": "ym2612"
    },
    {
      "channel": 2,
      "note": 54,
      "start": 38.4859,
      "duration": 0.0964,
      "velocity": 85,
      "chip": "ym2612"
    },
    {
      "channel": 4,
      "note": 59,
      "start": 38.4862,
      "duration": 0.0963,
      "velocity": 102,
      "chip": "ym2612"
    },
    {
      "channel": 0,
      "note": 74,
      "start": 38.6015,
      "duration": 0.2118,
      "velocity": 100,
      "chip": "ym2612"
    },
    {
      "channel": 3,
      "note": 81,
      "start": 38.6016,
      "duration": 0.0961,
      "velocity": 106,
      "chip": "ym2612"
    },
    {
      "channel": 4,
      "note": 59,
      "start": 38.6018,
      "duration": 0.0961,
      "velocity": 102,
      "chip": "ym2612"
    },
    {
      "channel": 2,
      "note": 57,
      "start": 38.717,
      "duration": 0.0963,
      "velocity": 85,
      "chip": "ym2612"
    },
    {
      "channel": 3,
      "note": 82,
      "start": 38.7173,
      "duration": 0.0963,
      "velocity": 106,
      "chip": "ym2612"
    },
    {
      "channel": 4,
      "note": 59,
      "start": 38.7174,
      "duration": 0.0962,
      "velocity": 102,
      "chip": "ym2612"
    },
    {
      "channel": 0,
      "note": 78,
      "start": 38.8325,
      "duration": 0.2118,
      "velocity": 100,
      "chip": "ym2612"
    },
    {
      "channel": 1,
      "note": 73,
      "start": 38.8328,
      "duration": 0.2116,
      "velocity": 100,
      "chip": "ym2612"
    },
    {
      "channel": 3,
      "note": 83,
      "start": 38.833,
      "duration": 0.8089,
      "velocity": 106,
      "chip": "ym2612"
    },
    {
      "channel": 4,
      "note": 59,
      "start": 38.8332,
      "duration": 0.2116,
      "velocity": 102,
      "chip": "ym2612"
    },
    {
      "channel": 2,
      "note": 52,
      "start": 38.9482,
      "duration": 0.0964,
      "velocity": 85,
      "chip": "ym2612"
    },
    {
      "channel": 2,
      "note": 54,
      "start": 39.0637,
      "duration": 0.0963,
      "velocity": 85,
      "chip": "ym2612"
    },
    {
      "channel": 4,
      "note": 59,
      "start": 39.0641,
      "duration": 0.096,
      "velocity": 102,
      "chip": "ym2612"
    },
    {
      "channel": 0,
      "note": 83,
      "start": 39.1793,
      "duration": 0.0962,
      "velocity": 100,
      "chip": "ym2612"
    },
    {
      "channel": 1,
      "note": 78,
      "start": 39.1795,
      "duration": 0.0961,
      "velocity": 100,
      "chip": "ym2612"
    },
    {
      "channel": 4,
      "note": 59,
      "start": 39.1799,
      "duration": 0.0959,
      "velocity": 102,
      "chip": "ym2612"
    },
    {
      "channel": 0,
      "note": 81,
      "start": 39.2948,
      "duration": 0.2118,
      "velocity": 100,
      "chip": "ym2612"
    },
    {
      "channel": 1,
      "note": 76,
      "start": 39.295,
      "duration": 0.2117,
      "velocity": 100,
      "chip": "ym2612"
    },
    {
      "channel": 2,
      "note": 57,
      "start": 39.2953,
      "duration": 0.0958,
      "velocity": 85,
      "chip": "ym2612"
    },
    {
      "channel": 2,
      "note": 54,
      "start": 39.4104,
      "duration": 0.0964,
      "velocity": 85,
      "chip": "ym2612"
    },
    {
      "channel": 0,
      "note": 79,
      "start": 39.526,
      "duration": 0.0962,
      "velocity": 100,
      "chip": "ym2612"
    },
    {
      "channel": 1,
      "note": 74,
      "start": 39.5266,
      "duration": 0.0957,
      "velocity": 100,
      "chip": "ym2612"
    },
    {
      "channel": 4,
      "note": 59,
      "start": 39.527,
      "duration": 0.0955,
      "velocity": 102,
      "chip": "ym2612"
    },
    {
      "channel": 0,
      "note": 74,
      "start": 39.6415,
      "duration": 0.0962,
      "velocity": 100,
      "chip": "ym2612"
    },
    {
      "channel": 2,
      "note": 50,
      "start": 39.6418,
      "duration": 0.0961,
      "velocity": 85,
      "chip": "ym2612"
    },
    {
      "channel": 4,
      "note": 59,
      "start": 39.6423,
      "duration": 0.0957,
      "velocity": 102,
      "chip": "ym2612"
    },
    {
      "channel": 2,
      "note": 50,
      "start": 39.7571,
      "duration": 0.0963,
      "velocity": 85,
      "chip": "ym2612"
    },
    {
      "channel": 3,
      "note": 83,
      "start": 39.7572,
      "duration": 0.6161,
      "velocity": 106,
      "chip": "ym2612"
    },
    {
      "channel": 5,
      "note": 76,
      "start": 39.7575,
      "duration": 0.8089,
      "velocity": 106,
      "chip": "ym2612"
    },
    {
      "channel": 0,
      "note": 78,
      "start": 39.8727,
      "duration": 0.0962,
      "velocity": 100,
      "chip": "ym2612"
    },
    {
      "channel": 1,
      "note": 73,
      "start": 39.8729,
      "duration": 0.0961,
      "velocity": 100,
      "chip": "ym2612"
    },
    {
      "channel": 2,
      "note": 52,
      "start": 39.8731,
      "duration": 0.0961,
      "velocity": 85,
      "chip": "ym2612"
    },
    {
      "channel": 4,
      "note": 59,
      "start": 39.8733,
      "duration": 0.096,
      "velocity": 102,
      "chip": "ym2612"
    },
    {
      "channel": 4,
      "note": 59,
      "start": 39.9885,
      "duration": 0.0961,
      "velocity": 102,
      "chip": "ym2612"
    },
    {
      "channel": 0,
      "note": 78,
      "start": 40.1038,
      "duration": 0.0962,
      "velocity": 100,
      "chip": "ym2612"
    },
    {
      "channel": 1,
      "note": 73,
      "start": 40.104,
      "duration": 0.0961,
      "velocity": 100,
      "chip": "ym2612"
    },
    {
      "channel": 2,
      "note": 52,
      "start": 40.1042,
      "duration": 0.0961,
      "velocity": 85,
      "chip": "ym2612"
    },
    {
      "channel": 4,
      "note": 59,
      "start": 40.1046,
      "duration": 0.0958,
      "velocity": 102,
      "chip": "ym2612"
    },
    {
      "channel": 0,
      "note": 76,
      "start": 40.2194,
      "duration": 0.2118,
      "velocity": 100,
      "chip": "ym2612"
    },
    {
      "channel": 1,
      "note": 71,
      "start": 40.2196,
      "duration": 0.2117,
      "velocity": 100,
      "chip": "ym2612"
    },
    {
      "channel": 4,
      "note": 59,
      "start": 40.335,
      "duration": 0.0964,
      "velocity": 102,
      "chip": "ym2612"
    },
    {
      "channel": 0,
      "note": 74,
      "start": 40.4505,
      "duration": 0.2118,
      "velocity": 100,
      "chip": "ym2612"
    },
    {
      "channel": 1,
      "note": 69,
      "start": 40.4507,
      "duration": 0.2117,
      "velocity": 100,
      "chip": "ym2612"
    },
    {
      "channel": 3,
      "note": 86,
      "start": 40.4509,
      "duration": 0.0958,
      "velocity": 106,
      "chip": "ym2612"
    },
    {
      "channel": 4,
      "note": 59,
      "start": 40.4511,
      "duration": 0.0958,
      "velocity": 102,
      "chip": "ym2612"
    },
    {
      "channel": 3,
      "note": 85,
      "start": 40.5661,
      "duration": 0.0964,
      "velocity": 106,
      "chip": "ym2612"
    },
    {
      "channel": 4,
      "note": 59,
      "start": 40.5663,
      "duration": 0.0964,
      "velocity": 102,
      "chip": "ym2612"
    },
    {
      "channel": 0,
      "note": 59,
      "start": 40.6817,
      "duration": 0.2118,
      "velocity": 100,
      "chip": "ym2612"
    },
    {
      "channel": 2,
      "note": 59,
      "start": 40.6819,
      "duration": 0.2117,
      "velocity": 85,
      "chip": "ym2612"
    },
    {
      "channel": 3,
      "note": 86,
      "start": 40.6821,
      "duration": 0.0958,
      "velocity": 106,
      "chip": "ym2612"
    },
    {
      "channel": 4,
      "note": 59,
      "start": 40.6822,
      "duration": 0.2115,
      "velocity": 102,
      "chip": "ym2612"
    },
    {
      "channel": 5,
      "note": 78,
      "start": 40.6825,
      "duration": 3.467,
      "velocity": 106,
      "chip": "ym2612"
    },
    {
      "channel": 3,
      "note": 88,
      "start": 40.7972,
      "duration": 0.6741,
      "velocity": 106,
      "chip": "ym2612"
    },
    {
      "channel": 0,
      "note": 76,
      "start": 40.9128,
      "duration": 0.0962,
      "velocity": 100,
      "chip": "ym2612"
    },
    {
      "channel": 1,
      "note": 71,
      "start": 40.9129,
      "duration": 0.0961,
      "velocity": 100,
      "chip": "ym2612"
    },
    {
      "channel": 2,
      "note": 54,
      "start": 40.9132,
      "duration": 0.0961,
      "velocity": 85,
      "chip": "ym2612"
    },
    {
      "channel": 4,
      "note": 59,
      "start": 40.9136,
      "duration": 0.0962,
      "velocity": 102,
      "chip": "ym2612"
    },
    {
      "channel": 0,
      "note": 76,
      "start": 41.0283,
      "duration": 0.0963,
      "velocity": 100,
      "chip": "ym2612"
    },
    {
      "channel": 1,
      "note": 71,
      "start": 41.0284,
      "duration": 0.0963,
      "velocity": 100,
      "chip": "ym2612"
    },
    {
      "channel": 2,
      "note": 54,
      "start": 41.0285,
      "duration": 0.0962,
      "velocity": 85,
      "chip": "ym2612"
    },
    {
      "channel": 4,
      "note": 59,
      "start": 41.0289,
      "duration": 0.0961,
      "velocity": 102,
      "chip": "ym2612"
    },
    {
      "channel": 0,
      "note": 76,
      "start": 41.1438,
      "duration": 0.2118,
      "velocity": 100,
      "chip": "ym2612"
    },
    {
      "channel": 1,
      "note": 71,
      "start": 41.144,
      "duration": 0.2118,
      "velocity": 100,
      "chip": "ym2612"
    },
    {
      "channel": 2,
      "note": 57,
      "start": 41.1442,
      "duration": 0.2118,
      "velocity": 85,
      "chip": "ym2612"
    },
    {
      "channel": 0,
      "note": 74,
      "start": 41.375,
      "duration": 0.2118,
      "velocity": 100,
      "chip": "ym2612"
    },
    {
      "channel": 1,
      "note": 69,
      "start": 41.3752,
      "duration": 0.2117,
      "velocity": 100,
      "chip": "ym2612"
    },
    {
      "channel": 2,
      "note": 54,
      "start": 41.3754,
      "duration": 0.2117,
      "velocity": 85,
      "chip": "ym2612"
    },
    {
      "channel": 4,
      "note": 59,
      "start": 41.3759,
      "duration": 0.0955,
      "velocity": 102,
      "chip": "ym2612"
    },
    {
      "channel": 3,
      "note": 81,
      "start": 41.4907,
      "duration": 0.8859,
      "velocity": 106,
      "chip": "ym2612"
    },
    {
      "channel": 4,
      "note": 59,
      "start": 41.491,
      "duration": 0.0962,
      "velocity": 102,
      "chip": "ym2612"
    },
    {
      "channel": 0,
      "note": 59,
      "start": 41.6061,
      "duration": 0.2118,
      "velocity": 100,
      "chip": "ym2612"
    },
    {
      "channel": 4,
      "note": 59,
      "start": 41.7218,
      "duration": 0.0963,
      "velocity": 102,
      "chip": "ym2612"
    },
    {
      "channel": 0,
      "note": 78,
      "start": 41.8373,
      "duration": 0.0962,
      "velocity": 100,
      "chip": "ym2612"
    },
    {
      "channel": 1,
      "note": 73,
      "start": 41.8375,
      "duration": 0.0961,
      "velocity": 100,
      "chip": "ym2612"
    },
    {
      "channel": 2,
      "note": 59,
      "start": 41.8377,
      "duration": 0.2115,
      "velocity": 85,
      "chip": "ym2612"
    },
    {
      "channel": 4,
      "note": 59,
      "start": 41.8381,
      "duration": 0.0957,
      "velocity": 102,
      "chip": "ym2612"
    },
    {
      "channel": 0,
      "note": 59,
      "start": 41.9528,
      "duration": 0.0963,
      "velocity": 100,
      "chip": "ym2612"
    },
    {
      "channel": 4,
      "note": 59,
      "start": 41.9533,
      "duration": 0.0961,
      "velocity": 102,
      "chip": "ym2612"
    },
    {
      "channel": 0,
      "note": 59,
      "start": 42.0684,
      "duration": 0.2118,
      "velocity": 100,
      "chip": "ym2612"
    },
    {
      "channel": 2,
      "note": 52,
      "start": 42.0686,
      "duration": 0.0961,
      "velocity": 85,
      "chip": "ym2612"
    },
    {
      "channel": 2,
      "note": 54,
      "start": 42.1841,
      "duration": 0.0963,
      "velocity": 85,
      "chip": "ym2612"
    },
    {
      "channel": 4,
      "note": 59,
      "start": 42.1843,
      "duration": 0.0963,
      "velocity": 102,
      "chip": "ym2612"
    },
    {
      "channel": 0,
      "note": 74,
      "start": 42.2996,
      "duration": 0.2117,
      "velocity": 100,
      "chip": "ym2612"
    },
    {
      "channel": 1,
      "note": 69,
      "start": 42.2998,
      "duration": 0.2117,
      "velocity": 100,
      "chip": "ym2612"
    },
    {
      "channel": 4,
      "note": 59,
      "start": 42.3,
      "duration": 0.0959,
      "velocity": 102,
      "chip": "ym2612"
    },
    {
      "channel": 2,
      "note": 57,
      "start": 42.4152,
      "duration": 0.0964,
      "velocity": 85,
      "chip": "ym2612"
    },
    {
      "channel": 3,
      "note": 83,
      "start": 42.4154,
      "duration": 1.7338,
      "velocity": 106,
      "chip": "ym2612"
    },
    {
      "channel": 4,
      "note": 59,
      "start": 42.4156,
      "duration": 0.0962,
      "velocity": 102,
      "chip": "ym2612"
    },
    {
      "channel": 0,
      "note": 78,
      "start": 42.5307,
      "duration": 0.2118,
      "velocity": 100,
      "chip": "ym2612"
    },
    {
      "channel": 1,
      "note": 73,
      "start": 42.5309,
      "duration": 0.2117,
      "velocity": 100,
      "chip": "ym2612"
    },
    {
      "channel": 4,
      "note": 59,
      "start": 42.5311,
      "duration": 0.2122,
      "velocity": 102,
      "chip": "ym2612"
    },
    {
      "channel": 2,
      "note": 52,
      "start": 42.6463,
      "duration": 0.0968,
      "velocity": 85,
      "chip": "ym2612"
    },
    {
      "channel": 2,
      "note": 54,
      "start": 42.7619,
      "duration": 0.0962,
      "velocity": 85,
      "chip": "ym2612"
    },
    {
      "channel": 4,
      "note": 59,
      "start": 42.7623,
      "duration": 0.096,
      "velocity": 102,
      "chip": "ym2612"
    },
    {
      "channel": 0,
      "note": 81,
      "start": 42.8774,
      "duration": 0.0962,
      "velocity": 100,
      "chip": "ym2612"
    },
    {
      "channel": 1,
      "note": 76,
      "start": 42.8776,
      "duration": 0.0961,
      "velocity": 100,
      "chip": "ym2612"
    },
    {
      "channel": 4,
      "note": 59,
      "start": 42.878,
      "duration": 0.0959,
      "velocity": 102,
      "chip": "ym2612"
    },
    {
      "channel": 0,
      "note": 79,
      "start": 42.9933,
      "duration": 0.2115,
      "velocity": 100,
      "chip": "ym2612"
    },
    {
      "channel": 1,
      "note": 74,
      "start": 42.9935,
      "duration": 0.2114,
      "velocity": 100,
      "chip": "ym2612"
    },
    {
      "channel": 2,
      "note": 57,
      "start": 42.9937,
      "duration": 0.2113,
      "velocity": 85,
      "chip": "ym2612"
    },
    {
      "channel": 0,
      "note": 78,
      "start": 43.2241,
      "duration": 0.0962,
      "velocity": 100,
      "chip": "ym2612"
    },
    {
      "channel": 1,
      "note": 73,
      "start": 43.2243,
      "duration": 0.0962,
      "velocity": 100,
      "chip": "ym2612"
    },
    {
      "channel": 2,
      "note": 54,
      "start": 43.2245,
      "duration": 0.2115,
      "velocity": 85,
      "chip": "ym2612"
    },
    {
      "channel": 4,
      "note": 59,
      "start": 43.225,
      "duration": 0.0956,
      "velocity": 102,
      "chip": "ym2612"
    },
    {
      "channel": 0,
      "note": 71,
      "start": 43.3397,
      "duration": 0.0962,
      "velocity": 100,
      "chip": "ym2612"
    },
    {
      "channel": 4,
      "note": 59,
      "start": 43.34,
      "duration": 0.0961,
      "velocity": 102,
      "chip": "ym2612"
    },
    {
      "channel": 0,
      "note": 66,
      "start": 43.5708,
      "duration": 0.0962,
      "velocity": 100,
      "chip": "ym2612"
    },
    {
      "channel": 2,
      "note": 54,
      "start": 43.571,
      "duration": 0.0961,
      "velocity": 85,
      "chip": "ym2612"
    },
    {
      "channel": 4,
      "note": 59,
      "start": 43.5713,
      "duration": 0.096,
      "velocity": 102,
      "chip": "ym2612"
    },
    {
      "channel": 0,
      "note": 74,
      "start": 43.6864,
      "duration": 0.0962,
      "velocity": 100,
      "chip": "ym2612"
    },
    {
      "channel": 1,
      "note": 69,
      "start": 43.6866,
      "duration": 0.0961,
      "velocity": 100,
      "chip": "ym2612"
    },
    {
      "channel": 2,
      "note": 57,
      "start": 43.6868,
      "duration": 0.096,
      "velocity": 85,
      "chip": "ym2612"
    },
    {
      "channel": 4,
      "note": 59,
      "start": 43.6872,
      "duration": 0.0958,
      "velocity": 102,
      "chip": "ym2612"
    },
    {
      "channel": 0,
      "note": 66,
      "start": 43.802,
      "duration": 0.0962,
      "velocity": 100,
      "chip": "ym2612"
    },
    {
      "channel": 2,
      "note": 54,
      "start": 43.8021,
      "duration": 0.0961,
      "velocity": 85,
      "chip": "ym2612"
    },
    {
      "channel": 4,
      "note": 59,
      "start": 43.8025,
      "duration": 0.0959,
      "velocity": 102,
      "chip": "ym2612"
    },
    {
      "channel": 0,
      "note": 75,
      "start": 43.9175,
      "duration": 0.0962,
      "velocity": 100,
      "chip": "ym2612"
    },
    {
      "channel": 1,
      "note": 70,
      "start": 43.9177,
      "duration": 0.0961,
      "velocity": 100,
      "chip": "ym2612"
    },
    {
      "channel": 2,
      "note": 58,
      "start": 43.9179,
      "duration": 0.0961,
      "velocity": 85,
      "chip": "ym2612"
    },
    {
      "channel": 0,
      "note": 66,
      "start": 44.0331,
      "duration": 0.0962,
      "velocity": 100,
      "chip": "ym2612"
    },
    {
      "channel": 2,
      "note": 54,
      "start": 44.0333,
      "duration": 0.0961,
      "velocity": 85,
      "chip": "ym2612"
    },
    {
      "channel": 4,
      "note": 59,
      "start": 44.0336,
      "duration": 0.096,
      "velocity": 102,
      "chip": "ym2612"
    },
    {
      "channel": 0,
      "note": 77,
      "start": 44.1486,
      "duration": 0.0962,
      "velocity": 100,
      "chip": "ym2612"
    },
    {
      "channel": 1,
      "note": 71,
      "start": 44.1488,
      "duration": 0.0961,
      "velocity": 100,
      "chip": "ym2612"
    },
    {
      "channel": 2,
      "note": 59,
      "start": 44.1491,
      "duration": 0.096,
      "velocity": 85,
      "chip": "ym2612"
    },
    {
      "channel": 4,
      "note": 59,
      "start": 44.1493,
      "duration": 0.0959,
      "velocity": 102,
      "chip": "ym2612"
    },
    {
      "channel": 0,
      "note": 66,
      "start": 44.2642,
      "duration": 0.0962,
      "velocity": 100,
      "chip": "ym2612"
    },
    {
      "channel": 2,
      "note": 54,
      "start": 44.2644,
      "duration": 0.0961,
      "velocity": 85,
      "chip": "ym2612"
    },
    {
      "channel": 4,
      "note": 59,
      "start": 44.2646,
      "duration": 0.0961,
      "velocity": 102,
      "chip": "ym2612"
    },
    {
      "channel": 0,
      "note": 79,
      "start": 44.3799,
      "duration": 0.2116,
      "velocity": 100,
      "chip": "ym2612"
    },
    {
      "channel": 1,
      "note": 74,
      "start": 44.3802,
      "duration": 0.2114,
      "velocity": 100,
      "chip": "ym2612"
    },
    {
      "channel": 2,
      "note": 55,
      "start": 44.3805,
      "duration": 0.2113,
      "velocity": 85,
      "chip": "ym2612"
    },
    {
      "channel": 4,
      "note": 59,
      "start": 44.3806,
      "duration": 0.2113,
      "velocity": 102,
      "chip": "ym2612"
    },
    {
      "channel": 0,
      "note": 79,
      "start": 44.6109,
      "duration": 0.2118,
      "velocity": 100,
      "chip": "ym2612"
    },
    {
      "channel": 1,
      "note": 74,
      "start": 44.611,
      "duration": 0.2118,
      "velocity": 100,
      "chip": "ym2612"
    },
    {
      "channel": 2,
      "note": 55,
      "start": 44.6111,
      "duration": 0.2118,
      "velocity": 85,
      "chip": "ym2612"
    },
    {
      "channel": 4,
      "note": 59,
      "start": 44.6115,
      "duration": 0.0957,
      "velocity": 102,
      "chip": "ym2612"
    },
    {
      "channel": 4,
      "note": 59,
      "start": 44.7268,
      "duration": 0.0962,
      "velocity": 102,
      "chip": "ym2612"
    },
    {
      "channel": 3,
      "note": 79,
      "start": 44.8421,
      "duration": 0.0962,
      "velocity": 106,
      "chip": "ym2612"
    },
    {
      "channel": 5,
      "note": 74,
      "start": 44.8423,
      "duration": 0.0961,
      "velocity": 106,
      "chip": "ym2612"
    },
    {
      "channel": 3,
      "note": 78,
      "start": 44.9577,
      "duration": 0.0962,
      "velocity": 106,
      "chip": "ym2612"
    },
    {
      "channel": 5,
      "note": 73,
      "start": 44.9579,
      "duration": 0.0961,
      "velocity": 106,
      "chip": "ym2612"
    },
    {
      "channel": 0,
      "note": 79,
      "start": 45.0733,
      "duration": 0.0961,
      "velocity": 100,
      "chip": "ym2612"
    },
    {
      "channel": 1,
      "note": 74,
      "start": 45.0737,
      "duration": 0.0959,
      "velocity": 100,
      "chip": "ym2612"
    },
    {
      "channel": 3,
      "note": 76,
      "start": 45.0739,
      "duration": 0.0957,
      "velocity": 106,
      "chip": "ym2612"
    },
    {
      "channel": 4,
      "note": 59,
      "start": 45.0744,
      "duration": 0.0954,
      "velocity": 102,
      "chip": "ym2612"
    },
    {
      "channel": 5,
      "note": 71,
      "start": 45.0745,
      "duration": 0.0954,
      "velocity": 106,
      "chip": "ym2612"
    },
    {
      "channel": 0,
      "note": 79,
      "start": 45.1887,
      "duration": 0.0962,
      "velocity": 100,
      "chip": "ym2612"
    },
    {
      "channel": 1,
      "note": 74,
      "start": 45.1888,
      "duration": 0.0963,
      "velocity": 100,
      "chip": "ym2612"
    },
    {
      "channel": 3,
      "note": 79,
      "start": 45.189,
      "duration": 0.5197,
      "velocity": 106,
      "chip": "ym2612"
    },
    {
      "channel": 4,
      "note": 59,
      "start": 45.1894,
      "duration": 0.0958,
      "velocity": 102,
      "chip": "ym2612"
    },
    {
      "channel": 5,
      "note": 74,
      "start": 45.1896,
      "duration": 0.0957,
      "velocity": 106,
      "chip": "ym2612"
    },
    {
      "channel": 5,
      "note": 74,
      "start": 45.3044,
      "duration": 0.4045,
      "velocity": 106,
      "chip": "ym2612"
    },
    {
      "channel": 4,
      "note": 59,
      "start": 45.42,
      "duration": 0.0962,
      "velocity": 102,
      "chip": "ym2612"
    },
    {
      "channel": 4,
      "note": 59,
      "start": 45.5357,
      "duration": 0.0961,
      "velocity": 102,
      "chip": "ym2612"
    },
    {
      "channel": 4,
      "note": 59,
      "start": 45.6512,
      "duration": 0.0961,
      "velocity": 102,
      "chip": "ym2612"
    },
    {
      "channel": 0,
      "note": 81,
      "start": 45.7666,
      "duration": 0.4043,
      "velocity": 100,
      "chip": "ym2612"
    },
    {
      "channel": 1,
      "note": 76,
      "start": 45.7668,
      "duration": 0.4043,
      "velocity": 100,
      "chip": "ym2612"
    },
    {
      "channel": 2,
      "note": 57,
      "start": 45.767,
      "duration": 0.4043,
      "velocity": 85,
      "chip": "ym2612"
    },
    {
      "channel": 3,
      "note": 81,
      "start": 45.7672,
      "duration": 0.4041,
      "velocity": 106,
      "chip": "ym2612"
    },
    {
      "channel": 5,
      "note": 76,
      "start": 45.7675,
      "duration": 0.404,
      "velocity": 106,
      "chip": "ym2612"
    },
    {
      "channel": 4,
      "note": 59,
      "start": 45.8822,
      "duration": 0.0962,
      "velocity": 102,
      "chip": "ym2612"
    },
    {
      "channel": 4,
      "note": 59,
      "start": 45.9977,
      "duration": 0.0963,
      "velocity": 102,
      "chip": "ym2612"
    },
    {
      "channel": 4,
      "note": 59,
      "start": 46.1133,
      "duration": 0.0966,
      "velocity": 102,
      "chip": "ym2612"
    },
    {
      "channel": 0,
      "note": 78,
      "start": 46.229,
      "duration": 0.2116,
      "velocity": 100,
      "chip": "ym2612"
    },
    {
      "channel": 1,
      "note": 73,
      "start": 46.2293,
      "duration": 0.2115,
      "velocity": 100,
      "chip": "ym2612"
    },
    {
      "channel": 2,
      "note": 54,
      "start": 46.2296,
      "duration": 0.2113,
      "velocity": 85,
      "chip": "ym2612"
    },
    {
      "channel": 3,
      "note": 78,
      "start": 46.2298,
      "duration": 0.0954,
      "velocity": 106,
      "chip": "ym2612"
    },
    {
      "channel": 4,
      "note": 59,
      "start": 46.2299,
      "duration": 0.2112,
      "velocity": 102,
      "chip": "ym2612"
    },
    {
      "channel": 5,
      "note": 74,
      "start": 46.2301,
      "duration": 0.615,
      "velocity": 106,
      "chip": "ym2612"
    },
    {
      "channel": 3,
      "note": 79,
      "start": 46.3444,
      "duration": 0.0966,
      "velocity": 106,
      "chip": "ym2612"
    },
    {
      "channel": 0,
      "note": 78,
      "start": 46.4599,
      "duration": 0.2118,
      "velocity": 100,
      "chip": "ym2612"
    },
    {
      "channel": 1,
      "note": 73,
      "start": 46.46,
      "duration": 0.2118,
      "velocity": 100,
      "chip": "ym2612"
    },
    {
      "channel": 2,
      "note": 54,
      "start": 46.4602,
      "duration": 0.2118,
      "velocity": 85,
      "chip": "ym2612"
    },
    {
      "channel": 3,
      "note": 78,
      "start": 46.4604,
      "duration": 0.404,
      "velocity": 106,
      "chip": "ym2612"
    },
    {
      "channel": 4,
      "note": 59,
      "start": 46.4608,
      "duration": 0.0954,
      "velocity": 102,
      "chip": "ym2612"
    },
    {
      "channel": 4,
      "note": 59,
      "start": 46.5757,
      "duration": 0.0964,
      "velocity": 102,
      "chip": "ym2612"
    },
    {
      "channel": 0,
      "note": 78,
      "start": 46.9224,
      "duration": 0.0961,
      "velocity": 100,
      "chip": "ym2612"
    },
    {
      "channel": 1,
      "note": 73,
      "start": 46.9227,
      "duration": 0.0958,
      "velocity": 100,
      "chip": "ym2612"
    },
    {
      "channel": 3,
      "note": 73,
      "start": 46.9229,
      "duration": 0.0958,
      "velocity": 106,
      "chip": "ym2612"
    },
    {
      "channel": 4,
      "note": 59,
      "start": 46.9234,
      "duration": 0.0955,
      "velocity": 102,
      "chip": "ym2612"
    },
    {
      "channel": 5,
      "note": 70,
      "start": 46.9236,
      "duration": 0.0954,
      "velocity": 106,
      "chip": "ym2612"
    },
    {
      "channel": 0,
      "note": 78,
      "start": 47.0377,
      "duration": 0.0963,
      "velocity": 100,
      "chip": "ym2612"
    },
    {
      "channel": 1,
      "note": 73,
      "start": 47.0379,
      "duration": 0.0963,
      "velocity": 100,
      "chip": "ym2612"
    },
    {
      "channel": 3,
      "note": 73,
      "start": 47.038,
      "duration": 0.5198,
      "velocity": 106,
      "chip": "ym2612"
    },
    {
      "channel": 4,
      "note": 59,
      "start": 47.0384,
      "duration": 0.0959,
      "velocity": 102,
      "chip": "ym2612"
    },
    {
      "channel": 5,
      "note": 70,
      "start": 47.0385,
      "duration": 0.5194,
      "velocity": 106,
      "chip": "ym2612"
    },
    {
      "channel": 4,
      "note": 59,
      "start": 47.269,
      "duration": 0.0962,
      "velocity": 102,
      "chip": "ym2612"
    },
    {
      "channel": 4,
      "note": 59,
      "start": 47.3847,
      "duration": 0.0961,
      "velocity": 102,
      "chip": "ym2612"
    },
    {
      "channel": 4,
      "note": 59,
      "start": 47.5003,
      "duration": 0.0961,
      "velocity": 102,
      "chip": "ym2612"
    },
    {
      "channel": 0,
      "note": 74,
      "start": 47.6156,
      "duration": 0.0962,
      "velocity": 100,
      "chip": "ym2612"
    },
    {
      "channel": 1,
      "note": 69,
      "start": 47.6158,
      "duration": 0.0961,
      "velocity": 100,
      "chip": "ym2612"
    },
    {
      "channel": 2,
      "note": 50,
      "start": 47.6161,
      "duration": 0.0961,
      "velocity": 85,
      "chip": "ym2612"
    },
    {
      "channel": 0,
      "note": 78,
      "start": 47.7312,
      "duration": 0.3081,
      "velocity": 100,
      "chip": "ym2612"
    },
    {
      "channel": 1,
      "note": 73,
      "start": 47.7314,
      "duration": 0.308,
      "velocity": 100,
      "chip": "ym2612"
    },
    {
      "channel": 2,
      "note": 54,
      "start": 47.7316,
      "duration": 0.0959,
      "velocity": 85,
      "chip": "ym2612"
    },
    {
      "channel": 4,
      "note": 59,
      "start": 47.7319,
      "duration": 0.0957,
      "velocity": 102,
      "chip": "ym2612"
    },
    {
      "channel": 4,
      "note": 59,
      "start": 47.8468,
      "duration": 0.0964,
      "velocity": 102,
      "chip": "ym2612"
    },
    {
      "channel": 4,
      "note": 59,
      "start": 47.9623,
      "duration": 0.0963,
      "velocity": 102,
      "chip": "ym2612"
    },
    {
      "channel": 0,
      "note": 74,
      "start": 48.078,
      "duration": 0.2117,
      "velocity": 100,
      "chip": "ym2612"
    },
    {
      "channel": 1,
      "note": 69,
      "start": 48.0784,
      "duration": 0.2114,
      "velocity": 100,
      "chip": "ym2612"
    },
    {
      "channel": 2,
      "note": 52,
      "start": 48.0786,
      "duration": 0.2113,
      "velocity": 85,
      "chip": "ym2612"
    },
    {
      "channel": 4,
      "note": 59,
      "start": 48.0788,
      "duration": 0.2113,
      "velocity": 102,
      "chip": "ym2612"
    },
    {
      "channel": 0,
      "note": 76,
      "start": 48.309,
      "duration": 0.2118,
      "velocity": 100,
      "chip": "ym2612"
    },
    {
      "channel": 1,
      "note": 71,
      "start": 48.3093,
      "duration": 0.2116,
      "velocity": 100,
      "chip": "ym2612"
    },
    {
      "channel": 2,
      "note": 52,
      "start": 48.3098,
      "duration": 0.2113,
      "velocity": 85,
      "chip": "ym2612"
    },
    {
      "channel": 4,
      "note": 59,
      "start": 48.3102,
      "duration": 0.0952,
      "velocity": 102,
      "chip": "ym2612"
    },
    {
      "channel": 4,
      "note": 59,
      "start": 48.4248,
      "duration": 0.0964,
      "velocity": 102,
      "chip": "ym2612"
    },
    {
      "channel": 2,
      "note": 52,
      "start": 48.5401,
      "duration": 0.2118,
      "velocity": 85,
      "chip": "ym2612"
    },
    {
      "channel": 3,
      "note": 78,
      "start": 48.5404,
      "duration": 0.0961,
      "velocity": 106,
      "chip": "ym2612"
    },
    {
      "channel": 5,
      "note": 74,
      "start": 48.5406,
      "duration": 0.096,
      "velocity": 106,
      "chip": "ym2612"
    },
    {
      "channel": 3,
      "note": 79,
      "start": 48.6558,
      "duration": 0.0963,
      "velocity": 106,
      "chip": "ym2612"
    },
    {
      "channel": 5,
      "note": 76,
      "start": 48.656,
      "duration": 0.0962,
      "velocity": 106,
      "chip": "ym2612"
    },
    {
      "channel": 0,
      "note": 76,
      "start": 48.7714,
      "duration": 0.0961,
      "velocity": 100,
      "chip": "ym2612"
    },
    {
      "channel": 1,
      "note": 71,
      "start": 48.7718,
      "duration": 0.0958,
      "velocity": 100,
      "chip": "ym2612"
    },
    {
      "channel": 2,
      "note": 52,
      "start": 48.7719,
      "duration": 0.2114,
      "velocity": 85,
      "chip": "ym2612"
    },
    {
      "channel": 3,
      "note": 81,
      "start": 48.7722,
      "duration": 0.0956,
      "velocity": 106,
      "chip": "ym2612"
    },
    {
      "channel": 4,
      "note": 59,
      "start": 48.7726,
      "duration": 0.0954,
      "velocity": 102,
      "chip": "ym2612"
    },
    {
      "channel": 5,
      "note": 78,
      "start": 48.7728,
      "duration": 0.0952,
      "velocity": 106,
      "chip": "ym2612"
    },
    {
      "channel": 0,
      "note": 76,
      "start": 48.8868,
      "duration": 0.0963,
      "velocity": 100,
      "chip": "ym2612"
    },
    {
      "channel": 1,
      "note": 71,
      "start": 48.8869,
      "duration": 0.0963,
      "velocity": 100,
      "chip": "ym2612"
    },
    {
      "channel": 3,
      "note": 83,
      "start": 48.8872,
      "duration": 0.2115,
      "velocity": 106,
      "chip": "ym2612"
    },
    {
      "channel": 4,
      "note": 59,
      "start": 48.8875,
      "duration": 0.096,
      "velocity": 102,
      "chip": "ym2612"
    },
    {
      "channel": 5,
      "note": 79,
      "start": 48.8878,
      "duration": 0.2111,
      "velocity": 106,
      "chip": "ym2612"
    },
    {
      "channel": 3,
      "note": 85,
      "start": 49.118,
      "duration": 0.0962,
      "velocity": 106,
      "chip": "ym2612"
    },
    {
      "channel": 4,
      "note": 59,
      "start": 49.1183,
      "duration": 0.0961,
      "velocity": 102,
      "chip": "ym2612"
    },
    {
      "channel": 5,
      "note": 81,
      "start": 49.1185,
      "duration": 0.0961,
      "velocity": 106,
      "chip": "ym2612"
    },
    {
      "channel": 3,
      "note": 86,
      "start": 49.2336,
      "duration": 0.4044,
      "velocity": 106,
      "chip": "ym2612"
    },
    {
      "channel": 4,
      "note": 59,
      "start": 49.234,
      "duration": 0.0958,
      "velocity": 102,
      "chip": "ym2612"
    },
    {
      "channel": 5,
      "note": 83,
      "start": 49.2342,
      "duration": 0.4039,
      "velocity": 106,
      "chip": "ym2612"
    },
    {
      "channel": 4,
      "note": 59,
      "start": 49.3493,
      "duration": 0.0961,
      "velocity": 102,
      "chip": "ym2612"
    },
    {
      "channel": 0,
      "note": 76,
      "start": 49.4647,
      "duration": 0.4044,
      "velocity": 100,
      "chip": "ym2612"
    },
    {
      "channel": 1,
      "note": 71,
      "start": 49.4649,
      "duration": 0.4043,
      "velocity": 100,
      "chip": "ym2612"
    },
    {
      "channel": 4,
      "note": 59,
      "start": 49.5803,
      "duration": 0.0963,
      "velocity": 102,
      "chip": "ym2612"
    },
    {
      "channel": 3,
      "note": 85,
      "start": 49.6959,
      "duration": 0.0962,
      "velocity": 106,
      "chip": "ym2612"
    },
    {
      "channel": 4,
      "note": 59,
      "start": 49.696,
      "duration": 0.0962,
      "velocity": 102,
      "chip": "ym2612"
    },
    {
      "channel": 5,
      "note": 81,
      "start": 49.6963,
      "duration": 0.0961,
      "velocity": 106,
      "chip": "ym2612"
    },
    {
      "channel": 3,
      "note": 81,
      "start": 49.8115,
      "duration": 0.0962,
      "velocity": 106,
      "chip": "ym2612"
    },
    {
      "channel": 4,
      "note": 59,
      "start": 49.8116,
      "duration": 0.0962,
      "velocity": 102,
      "chip": "ym2612"
    },
    {
      "channel": 5,
      "note": 76,
      "start": 49.8118,
      "duration": 0.0961,
      "velocity": 106,
      "chip": "ym2612"
    },
    {
      "channel": 0,
      "note": 78,
      "start": 49.9271,
      "duration": 0.2117,
      "velocity": 100,
      "chip": "ym2612"
    },
    {
      "channel": 1,
      "note": 73,
      "start": 49.9275,
      "duration": 0.2114,
      "velocity": 100,
      "chip": "ym2612"
    },
    {
      "channel": 2,
      "note": 54,
      "start": 49.9276,
      "duration": 0.2113,
      "velocity": 85,
      "chip": "ym2612"
    },
    {
      "channel": 3,
      "note": 83,
      "start": 49.9279,
      "duration": 0.6153,
      "velocity": 106,
      "chip": "ym2612"
    },
    {
      "channel": 4,
      "note": 59,
      "start": 49.928,
      "duration": 0.2111,
      "velocity": 102,
      "chip": "ym2612"
    },
    {
      "channel": 5,
      "note": 78,
      "start": 49.9283,
      "duration": 0.6151,
      "velocity": 106,
      "chip": "ym2612"
    },
    {
      "channel": 0,
      "note": 78,
      "start": 50.158,
      "duration": 0.2118,
      "velocity": 100,
      "chip": "ym2612"
    },
    {
      "channel": 1,
      "note": 73,
      "start": 50.1582,
      "duration": 0.2118,
      "velocity": 100,
      "chip": "ym2612"
    },
    {
      "channel": 2,
      "note": 54,
      "start": 50.1583,
      "duration": 0.2118,
      "velocity": 85,
      "chip": "ym2612"
    },
    {
      "channel": 4,
      "note": 59,
      "start": 50.1587,
      "duration": 0.0957,
      "velocity": 102,
      "chip": "ym2612"
    },
    {
      "channel": 4,
      "note": 59,
      "start": 50.2739,
      "duration": 0.0964,
      "velocity": 102,
      "chip": "ym2612"
    },
    {
      "channel": 3,
      "note": 83,
      "start": 50.6203,
      "duration": 0.077,
      "velocity": 106,
      "chip": "ym2612"
    },
    {
      "channel": 4,
      "note": 59,
      "start": 50.6208,
      "duration": 0.0959,
      "velocity": 102,
      "chip": "ym2612"
    },
    {
      "channel": 5,
      "note": 78,
      "start": 50.6209,
      "duration": 0.2118,
      "velocity": 106,
      "chip": "ym2612"
    },
    {
      "channel": 3,
      "note": 85,
      "start": 50.6975,
      "duration": 0.0769,
      "velocity": 106,
      "chip": "ym2612"
    },
    {
      "channel": 0,
      "note": 78,
      "start": 50.7361,
      "duration": 0.0961,
      "velocity": 100,
      "chip": "ym2612"
    },
    {
      "channel": 1,
      "note": 66,
      "start": 50.7364,
      "duration": 0.0959,
      "velocity": 100,
      "chip": "ym2612"
    },
    {
      "channel": 2,
      "note": 54,
      "start": 50.7366,
      "duration": 0.0958,
      "velocity": 85,
      "chip": "ym2612"
    },
    {
      "channel": 4,
      "note": 59,
      "start": 50.737,
      "duration": 0.0955,
      "velocity": 102,
      "chip": "ym2612"
    },
    {
      "channel": 3,
      "note": 83,
      "start": 50.7745,
      "duration": 0.0773,
      "velocity": 106,
      "chip": "ym2612"
    },
    {
      "channel": 0,
      "note": 78,
      "start": 50.8515,
      "duration": 0.0962,
      "velocity": 100,
      "chip": "ym2612"
    },
    {
      "channel": 1,
      "note": 66,
      "start": 50.8516,
      "duration": 0.0963,
      "velocity": 100,
      "chip": "ym2612"
    },
    {
      "channel": 2,
      "note": 54,
      "start": 50.8517,
      "duration": 0.0962,
      "velocity": 85,
      "chip": "ym2612"
    },
    {
      "channel": 3,
      "note": 82,
      "start": 50.852,
      "duration": 0.809,
      "velocity": 106,
      "chip": "ym2612"
    },
    {
      "channel": 5,
      "note": 78,
      "start": 50.8521,
      "duration": 0.8092,
      "velocity": 106,
      "chip": "ym2612"
    },
    {
      "channel": 0,
      "note": 78,
      "start": 50.967,
      "duration": 0.0962,
      "velocity": 100,
      "chip": "ym2612"
    },
    {
      "channel": 1,
      "note": 66,
      "start": 50.9672,
      "duration": 0.0962,
      "velocity": 100,
      "chip": "ym2612"
    },
    {
      "channel": 2,
      "note": 54,
      "start": 50.9673,
      "duration": 0.0963,
      "velocity": 85,
      "chip": "ym2612"
    },
    {
      "channel": 4,
      "note": 59,
      "start": 50.9675,
      "duration": 0.0962,
      "velocity": 102,
      "chip": "ym2612"
    },
    {
      "channel": 0,
      "note": 83,
      "start": 51.0826,
      "duration": 0.0962,
      "velocity": 100,
      "chip": "ym2612"
    },
    {
      "channel": 1,
      "note": 71,
      "start": 51.0828,
      "duration": 0.0962,
      "velocity": 100,
      "chip": "ym2612"
    },
    {
      "channel": 2,
      "note": 59,
      "start": 51.0831,
      "duration": 0.0961,
      "velocity": 85,
      "chip": "ym2612"
    },
    {
      "channel": 4,
      "note": 59,
      "start": 51.0834,
      "duration": 0.0958,
      "velocity": 102,
      "chip": "ym2612"
    },
    {
      "channel": 0,
      "note": 83,
      "start": 51.1981,
      "duration": 0.0962,
      "velocity": 100,
      "chip": "ym2612"
    },
    {
      "channel": 1,
      "note": 71,
      "start": 51.1983,
      "duration": 0.0963,
      "velocity": 100,
      "chip": "ym2612"
    },
    {
      "channel": 2,
      "note": 59,
      "start": 51.1985,
      "duration": 0.0962,
      "velocity": 85,
      "chip": "ym2612"
    },
    {
      "channel": 4,
      "note": 59,
      "start": 51.1988,
      "duration": 0.0961,
      "velocity": 102,
      "chip": "ym2612"
    },
    {
      "channel": 0,
      "note": 82,
      "start": 51.3138,
      "duration": 0.0962,
      "velocity": 100,
      "chip": "ym2612"
    },
    {
      "channel": 1,
      "note": 70,
      "start": 51.314,
      "duration": 0.0961,
      "velocity": 100,
      "chip": "ym2612"
    },
    {
      "channel": 2,
      "note": 58,
      "start": 51.3142,
      "duration": 0.0961,
      "velocity": 85,
      "chip": "ym2612"
    },
    {
      "channel": 0,
      "note": 82,
      "start": 51.4293,
      "duration": 0.0963,
      "velocity": 100,
      "chip": "ym2612"
    },
    {
      "channel": 1,
      "note": 70,
      "start": 51.4294,
      "duration": 0.0962,
      "velocity": 100,
      "chip": "ym2612"
    },
    {
      "channel": 2,
      "note": 58,
      "start": 51.4296,
      "duration": 0.0962,
      "velocity": 85,
      "chip": "ym2612"
    },
    {
      "channel": 4,
      "note": 59,
      "start": 51.4298,
      "duration": 0.0961,
      "velocity": 102,
      "chip": "ym2612"
    },
    {
      "channel": 4,
      "note": 59,
      "start": 51.5449,
      "duration": 0.0963,
      "velocity": 102,
      "chip": "ym2612"
    },
    {
      "channel": 0,
      "note": 78,
      "start": 51.6605,
      "duration": 0.0962,
      "velocity": 100,
      "chip": "ym2612"
    },
    {
      "channel": 1,
      "note": 66,
      "start": 51.6607,
      "duration": 0.0961,
      "velocity": 100,
      "chip": "ym2612"
    },
    {
      "channel": 2,
      "note": 54,
      "start": 51.6609,
      "duration": 0.0961,
      "velocity": 85,
      "chip": "ym2612"
    },
    {
      "channel": 4,
      "note": 59,
      "start": 51.6612,
      "duration": 0.0959,
      "velocity": 102,
      "chip": "ym2612"
    },
    {
      "channel": 0,
      "note": 79,
      "start": 51.7765,
      "duration": 0.2112,
      "velocity": 100,
      "chip": "ym2612"
    },
    {
      "channel": 1,
      "note": 74,
      "start": 51.7769,
      "duration": 0.2111,
      "velocity": 100,
      "chip": "ym2612"
    },
    {
      "channel": 2,
      "note": 55,
      "start": 51.7771,
      "duration": 0.211,
      "velocity": 85,
      "chip": "ym2612"
    },
    {
      "channel": 4,
      "note": 59,
      "start": 51.7773,
      "duration": 0.2109,
      "velocity": 102,
      "chip": "ym2612"
    },
    {
      "channel": 0,
      "note": 79,
      "start": 52.0071,
      "duration": 0.2118,
      "velocity": 100,
      "chip": "ym2612"
    },
    {
      "channel": 1,
      "note": 74,
      "start": 52.0072,
      "duration": 0.2118,
      "velocity": 100,
      "chip": "ym2612"
    },
    {
      "channel": 2,
      "note": 55,
      "start": 52.0074,
      "duration": 0.2118,
      "velocity": 85,
      "chip": "ym2612"
    },
    {
      "channel": 4,
      "note": 59,
      "start": 52.0077,
      "duration": 0.0957,
      "velocity": 102,
      "chip": "ym2612"
    },
    {
      "channel": 4,
      "note": 59,
      "start": 52.1229,
      "duration": 0.0964,
      "velocity": 102,
      "chip": "ym2612"
    },
    {
      "channel": 3,
      "note": 90,
      "start": 52.2383,
      "duration": 0.4048,
      "velocity": 106,
      "chip": "ym2612"
    },
    {
      "channel": 5,
      "note": 86,
      "start": 52.2386,
      "duration": 0.4046,
      "velocity": 106,
      "chip": "ym2612"
    },
    {
      "channel": 0,
      "note": 79,
      "start": 52.4696,
      "duration": 0.0961,
      "velocity": 100,
      "chip": "ym2612"
    },
    {
      "channel": 1,
      "note": 74,
      "start": 52.4699,
      "duration": 0.0959,
      "velocity": 100,
      "chip": "ym2612"
    },
    {
      "channel": 4,
      "note": 59,
      "start": 52.4704,
      "duration": 0.0955,
      "velocity": 102,
      "chip": "ym2612"
    },
    {
      "channel": 0,
      "note": 79,
      "start": 52.5849,
      "duration": 0.0963,
      "velocity": 100,
      "chip": "ym2612"
    },
    {
      "channel": 1,
      "note": 74,
      "start": 52.5851,
      "duration": 0.0962,
      "velocity": 100,
      "chip": "ym2612"
    },
    {
      "channel": 4,
      "note": 59,
      "start": 52.5855,
      "duration": 0.096,
      "velocity": 102,
      "chip": "ym2612"
    },
    {
      "channel": 3,
      "note": 88,
      "start": 52.7006,
      "duration": 0.2118,
      "velocity": 106,
      "chip": "ym2612"
    },
    {
      "channel": 5,
      "note": 85,
      "start": 52.7009,
      "duration": 0.2118,
      "velocity": 106,
      "chip": "ym2612"
    },
    {
      "channel": 4,
      "note": 59,
      "start": 52.8162,
      "duration": 0.0963,
      "velocity": 102,
      "chip": "ym2612"
    },
    {
      "channel": 3,
      "note": 86,
      "start": 52.9318,
      "duration": 0.0962,
      "velocity": 106,
      "chip": "ym2612"
    },
    {
      "channel": 4,
      "note": 59,
      "start": 52.9321,
      "duration": 0.096,
      "velocity": 102,
      "chip": "ym2612"
    },
    {
      "channel": 5,
      "note": 83,
      "start": 52.9324,
      "duration": 0.0959,
      "velocity": 106,
      "chip": "ym2612"
    },
    {
      "channel": 3,
      "note": 86,
      "start": 53.0472,
      "duration": 0.5204,
      "velocity": 106,
      "chip": "ym2612"
    },
    {
      "channel": 4,
      "note": 59,
      "start": 53.0476,
      "duration": 0.0959,
      "velocity": 102,
      "chip": "ym2612"
    },
    {
      "channel": 5,
      "note": 83,
      "start": 53.0478,
      "duration": 0.52,
      "velocity": 106,
      "chip": "ym2612"
    },
    {
      "channel": 0,
      "note": 81,
      "start": 53.1628,
      "duration": 0.4044,
      "velocity": 100,
      "chip": "ym2612"
    },
    {
      "channel": 1,
      "note": 76,
      "start": 53.163,
      "duration": 0.4043,
      "velocity": 100,
      "chip": "ym2612"
    },
    {
      "channel": 2,
      "note": 57,
      "start": 53.1633,
      "duration": 0.4042,
      "velocity": 85,
      "chip": "ym2612"
    },
    {
      "channel": 4,
      "note": 59,
      "start": 53.2785,
      "duration": 0.0962,
      "velocity": 102,
      "chip": "ym2612"
    },
    {
      "channel": 4,
      "note": 59,
      "start": 53.394,
      "duration": 0.0963,
      "velocity": 102,
      "chip": "ym2612"
    },
    {
      "channel": 4,
      "note": 59,
      "start": 53.5099,
      "duration": 0.0959,
      "velocity": 102,
      "chip": "ym2612"
    },
    {
      "channel": 0,
      "note": 78,
      "start": 53.6252,
      "duration": 0.2116,
      "velocity": 100,
      "chip": "ym2612"
    },
    {
      "channel": 1,
      "note": 73,
      "start": 53.6256,
      "duration": 0.2114,
      "velocity": 100,
      "chip": "ym2612"
    },
    {
      "channel": 2,
      "note": 54,
      "start": 53.6258,
      "duration": 0.2113,
      "velocity": 85,
      "chip": "ym2612"
    },
    {
      "channel": 3,
      "note": 90,
      "start": 53.6264,
      "duration": 0.4031,
      "velocity": 106,
      "chip": "ym2612"
    },
    {
      "channel": 4,
      "note": 59,
      "start": 53.6266,
      "duration": 0.2107,
      "velocity": 102,
      "chip": "ym2612"
    },
    {
      "channel": 5,
      "note": 85,
      "start": 53.6268,
      "duration": 0.4029,
      "velocity": 106,
      "chip": "ym2612"
    },
    {
      "channel": 0,
      "note": 78,
      "start": 53.8561,
      "duration": 0.2118,
      "velocity": 100,
      "chip": "ym2612"
    },
    {
      "channel": 1,
      "note": 73,
      "start": 53.8563,
      "duration": 0.2118,
      "velocity": 100,
      "chip": "ym2612"
    },
    {
      "channel": 2,
      "note": 54,
      "start": 53.8565,
      "duration": 0.2118,
      "velocity": 85,
      "chip": "ym2612"
    },
    {
      "channel": 4,
      "note": 59,
      "start": 53.8568,
      "duration": 0.0957,
      "velocity": 102,
      "chip": "ym2612"
    },
    {
      "channel": 4,
      "note": 59,
      "start": 53.972,
      "duration": 0.0964,
      "velocity": 102,
      "chip": "ym2612"
    },
    {
      "channel": 3,
      "note": 88,
      "start": 54.0874,
      "duration": 0.2117,
      "velocity": 106,
      "chip": "ym2612"
    },
    {
      "channel": 5,
      "note": 83,
      "start": 54.0876,
      "duration": 0.2117,
      "velocity": 106,
      "chip": "ym2612"
    },
    {
      "channel": 0,
      "note": 78,
      "start": 54.3186,
      "duration": 0.0961,
      "velocity": 100,
      "chip": "ym2612"
    },
    {
      "channel": 1,
      "note": 73,
      "start": 54.319,
      "duration": 0.0958,
      "velocity": 100,
      "chip": "ym2612"
    },
    {
      "channel": 3,
      "note": 86,
      "start": 54.3193,
      "duration": 0.0957,
      "velocity": 106,
      "chip": "ym2612"
    },
    {
      "channel": 4,
      "note": 59,
      "start": 54.3196,
      "duration": 0.0955,
      "velocity": 102,
      "chip": "ym2612"
    },
    {
      "channel": 5,
      "note": 83,
      "start": 54.3198,
      "duration": 0.0954,
      "velocity": 106,
      "chip": "ym2612"
    },
    {
      "channel": 0,
      "note": 78,
      "start": 54.434,
      "duration": 0.0962,
      "velocity": 100,
      "chip": "ym2612"
    },
    {
      "channel": 1,
      "note": 73,
      "start": 54.4341,
      "duration": 0.0962,
      "velocity": 100,
      "chip": "ym2612"
    },
    {
      "channel": 3,
      "note": 85,
      "start": 54.4344,
      "duration": 0.5197,
      "velocity": 106,
      "chip": "ym2612"
    },
    {
      "channel": 4,
      "note": 59,
      "start": 54.4347,
      "duration": 0.0959,
      "velocity": 102,
      "chip": "ym2612"
    },
    {
      "channel": 5,
      "note": 82,
      "start": 54.435,
      "duration": 0.5193,
      "velocity": 106,
      "chip": "ym2612"
    },
    {
      "channel": 4,
      "note": 59,
      "start": 54.6652,
      "duration": 0.0963,
      "velocity": 102,
      "chip": "ym2612"
    },
    {
      "channel": 4,
      "note": 59,
      "start": 54.781,
      "duration": 0.0961,
      "velocity": 102,
      "chip": "ym2612"
    },
    {
      "channel": 4,
      "note": 59,
      "start": 54.8966,
      "duration": 0.0961,
      "velocity": 102,
      "chip": "ym2612"
    },
    {
      "channel": 0,
      "note": 74,
      "start": 55.0119,
      "duration": 0.0962,
      "velocity": 100,
      "chip": "ym2612"
    },
    {
      "channel": 1,
      "note": 69,
      "start": 55.0121,
      "duration": 0.0962,
      "velocity": 100,
      "chip": "ym2612"
    },
    {
      "channel": 2,
      "note": 50,
      "start": 55.0123,
      "duration": 0.0961,
      "velocity": 85,
      "chip": "ym2612"
    },
    {
      "channel": 0,
      "note": 78,
      "start": 55.1275,
      "duration": 0.3081,
      "velocity": 100,
      "chip": "ym2612"
    },
    {
      "channel": 1,
      "note": 73,
      "start": 55.1276,
      "duration": 0.308,
      "velocity": 100,
      "chip": "ym2612"
    },
    {
      "channel": 2,
      "note": 54,
      "start": 55.1279,
      "duration": 0.0958,
      "velocity": 85,
      "chip": "ym2612"
    },
    {
      "channel": 4,
      "note": 59,
      "start": 55.1281,
      "duration": 0.0957,
      "velocity": 102,
      "chip": "ym2612"
    },
    {
      "channel": 4,
      "note": 59,
      "start": 55.2433,
      "duration": 0.096,
      "velocity": 102,
      "chip": "ym2612"
    },
    {
      "channel": 4,
      "note": 59,
      "start": 55.3586,
      "duration": 0.0962,
      "velocity": 102,
      "chip": "ym2612"
    },
    {
      "channel": 0,
      "note": 74,
      "start": 55.4743,
      "duration": 0.2116,
      "velocity": 100,
      "chip": "ym2612"
    },
    {
      "channel": 1,
      "note": 69,
      "start": 55.4747,
      "duration": 0.2114,
      "velocity": 100,
      "chip": "ym2612"
    },
    {
      "channel": 2,
      "note": 52,
      "start": 55.4749,
      "duration": 0.2113,
      "velocity": 85,
      "chip": "ym2612"
    },
    {
      "channel": 4,
      "note": 59,
      "start": 55.475,
      "duration": 0.2113,
      "velocity": 102,
      "chip": "ym2612"
    },
    {
      "channel": 0,
      "note": 76,
      "start": 55.7053,
      "duration": 0.2118,
      "velocity": 100,
      "chip": "ym2612"
    },
    {
      "channel": 1,
      "note": 71,
      "start": 55.7055,
      "duration": 0.2117,
      "velocity": 100,
      "chip": "ym2612"
    },
    {
      "channel": 2,
      "note": 52,
      "start": 55.7056,
      "duration": 0.2117,
      "velocity": 85,
      "chip": "ym2612"
    },
    {
      "channel": 4,
      "note": 59,
      "start": 55.706,
      "duration": 0.0955,
      "velocity": 102,
      "chip": "ym2612"
    },
    {
      "channel": 4,
      "note": 59,
      "start": 55.8211,
      "duration": 0.0964,
      "velocity": 102,
      "chip": "ym2612"
    },
    {
      "channel": 3,
      "note": 91,
      "start": 55.9365,
      "duration": 0.4044,
      "velocity": 106,
      "chip": "ym2612"
    },
    {
      "channel": 5,
      "note": 86,
      "start": 55.9368,
      "duration": 0.4043,
      "velocity": 106,
      "chip": "ym2612"
    },
    {
      "channel": 0,
      "note": 76,
      "start": 56.1677,
      "duration": 0.096,
      "velocity": 100,
      "chip": "ym2612"
    },
    {
      "channel": 1,
      "note": 71,
      "start": 56.168,
      "duration": 0.0959,
      "velocity": 100,
      "chip": "ym2612"
    },
    {
      "channel": 4,
      "note": 59,
      "start": 56.1685,
      "duration": 0.0956,
      "velocity": 102,
      "chip": "ym2612"
    },
    {
      "channel": 0,
      "note": 76,
      "start": 56.2831,
      "duration": 0.0962,
      "velocity": 100,
      "chip": "ym2612"
    },
    {
      "channel": 1,
      "note": 71,
      "start": 56.2832,
      "duration": 0.0962,
      "velocity": 100,
      "chip": "ym2612"
    },
    {
      "channel": 4,
      "note": 59,
      "start": 56.2836,
      "duration": 0.096,
      "velocity": 102,
      "chip": "ym2612"
    },
    {
      "channel": 3,
      "note": 90,
      "start": 56.3988,
      "duration": 0.4043,
      "velocity": 106,
      "chip": "ym2612"
    },
    {
      "channel": 5,
      "note": 86,
      "start": 56.399,
      "duration": 0.4043,
      "velocity": 106,
      "chip": "ym2612"
    },
    {
      "channel": 4,
      "note": 59,
      "start": 56.5144,
      "duration": 0.0962,
      "velocity": 102,
      "chip": "ym2612"
    },
    {
      "channel": 2,
      "note": 52,
      "start": 56.6299,
      "duration": 0.2118,
      "velocity": 85,
      "chip": "ym2612"
    },
    {
      "channel": 4,
      "note": 59,
      "start": 56.6302,
      "duration": 0.0963,
      "velocity": 102,
      "chip": "ym2612"
    },
    {
      "channel": 4,
      "note": 59,
      "start": 56.7456,
      "duration": 0.0962,
      "velocity": 102,
      "chip": "ym2612"
    },
    {
      "channel": 0,
      "note": 76,
      "start": 56.8609,
      "duration": 0.0962,
      "velocity": 100,
      "chip": "ym2612"
    },
    {
      "channel": 1,
      "note": 71,
      "start": 56.8612,
      "duration": 0.0961,
      "velocity": 100,
      "chip": "ym2612"
    },
    {
      "channel": 2,
      "note": 50,
      "start": 56.8614,
      "duration": 0.0961,
      "velocity": 85,
      "chip": "ym2612"
    },
    {
      "channel": 3,
      "note": 88,
      "start": 56.8616,
      "duration": 0.4038,
      "velocity": 106,
      "chip": "ym2612"
    },
    {
      "channel": 5,
      "note": 81,
      "start": 56.8618,
      "duration": 0.4037,
      "velocity": 106,
      "chip": "ym2612"
    },
    {
      "channel": 0,
      "note": 76,
      "start": 56.9766,
      "duration": 0.0961,
      "velocity": 100,
      "chip": "ym2612"
    },
    {
      "channel": 1,
      "note": 71,
      "start": 56.9767,
      "duration": 0.0962,
      "velocity": 100,
      "chip": "ym2612"
    },
    {
      "channel": 2,
      "note": 51,
      "start": 56.9769,
      "duration": 0.0961,
      "velocity": 85,
      "chip": "ym2612"
    },
    {
      "channel": 4,
      "note": 59,
      "start": 56.9771,
      "duration": 0.096,
      "velocity": 102,
      "chip": "ym2612"
    },
    {
      "channel": 2,
      "note": 52,
      "start": 57.0922,
      "duration": 0.0962,
      "velocity": 85,
      "chip": "ym2612"
    },
    {
      "channel": 4,
      "note": 59,
      "start": 57.0923,
      "duration": 0.0962,
      "velocity": 102,
      "chip": "ym2612"
    },
    {
      "channel": 0,
      "note": 76,
      "start": 57.2077,
      "duration": 0.0962,
      "velocity": 100,
      "chip": "ym2612"
    },
    {
      "channel": 1,
      "note": 71,
      "start": 57.2079,
      "duration": 0.0961,
      "velocity": 100,
      "chip": "ym2612"
    },
    {
      "channel": 2,
      "note": 54,
      "start": 57.208,
      "duration": 0.0961,
      "velocity": 85,
      "chip": "ym2612"
    },
    {
      "channel": 4,
      "note": 59,
      "start": 57.2083,
      "duration": 0.0961,
      "velocity": 102,
      "chip": "ym2612"
    },
    {
      "channel": 1,
      "note": 71,
      "start": 57.3232,
      "duration": 0.2118,
      "velocity": 100,
      "chip": "ym2612"
    },
    {
      "channel": 2,
      "note": 56,
      "start": 57.3234,
      "duration": 0.6161,
      "velocity": 85,
      "chip": "ym2612"
    },
    {
      "channel": 3,
      "note": 90,
      "start": 57.3236,
      "duration": 0.616,
      "velocity": 106,
      "chip": "ym2612"
    },
    {
      "channel": 4,
      "note": 59,
      "start": 57.3238,
      "duration": 0.2114,
      "velocity": 102,
      "chip": "ym2612"
    },
    {
      "channel": 5,
      "note": 86,
      "start": 57.324,
      "duration": 0.6158,
      "velocity": 106,
      "chip": "ym2612"
    },
    {
      "channel": 0,
      "note": 74,
      "start": 57.5544,
      "duration": 0.2118,
      "velocity": 100,
      "chip": "ym2612"
    },
    {
      "channel": 1,
      "note": 71,
      "start": 57.5545,
      "duration": 0.2118,
      "velocity": 100,
      "chip": "ym2612"
    },
    {
      "channel": 4,
      "note": 59,
      "start": 57.5549,
      "duration": 0.0957,
      "velocity": 102,
      "chip": "ym2612"
    },
    {
      "channel": 4,
      "note": 59,
      "start": 57.6701,
      "duration": 0.0963,
      "velocity": 102,
      "chip": "ym2612"
    },
    {
      "channel": 0,
      "note": 74,
      "start": 57.7854,
      "duration": 0.2118,
      "velocity": 100,
      "chip": "ym2612"
    },
    {
      "channel": 1,
      "note": 73,
      "start": 57.7858,
      "duration": 0.2116,
      "velocity": 100,
      "chip": "ym2612"
    },
    {
      "channel": 0,
      "note": 76,
      "start": 58.0168,
      "duration": 0.2116,
      "velocity": 100,
      "chip": "ym2612"
    },
    {
      "channel": 1,
      "note": 73,
      "start": 58.0169,
      "duration": 0.2117,
      "velocity": 100,
      "chip": "ym2612"
    },
    {
      "channel": 2,
      "note": 57,
      "start": 58.0171,
      "duration": 0.4039,
      "velocity": 85,
      "chip": "ym2612"
    },
    {
      "channel": 3,
      "note": 88,
      "start": 58.0173,
      "duration": 1.0393,
      "velocity": 106,
      "chip": "ym2612"
    },
    {
      "channel": 4,
      "note": 59,
      "start": 58.0178,
      "duration": 0.0951,
      "velocity": 102,
      "chip": "ym2612"
    },
    {
      "channel": 5,
      "note": 85,
      "start": 58.018,
      "duration": 1.039,
      "velocity": 106,
      "chip": "ym2612"
    },
    {
      "channel": 4,
      "note": 59,
      "start": 58.1324,
      "duration": 0.0962,
      "velocity": 102,
      "chip": "ym2612"
    },
    {
      "channel": 0,
      "note": 76,
      "start": 58.2477,
      "duration": 0.2122,
      "velocity": 100,
      "chip": "ym2612"
    },
    {
      "channel": 1,
      "note": 73,
      "start": 58.2478,
      "duration": 0.2122,
      "velocity": 100,
      "chip": "ym2612"
    },
    {
      "channel": 4,
      "note": 59,
      "start": 58.3634,
      "duration": 0.0968,
      "velocity": 102,
      "chip": "ym2612"
    },
    {
      "channel": 0,
      "note": 76,
      "start": 58.4788,
      "duration": 0.2118,
      "velocity": 100,
      "chip": "ym2612"
    },
    {
      "channel": 1,
      "note": 73,
      "start": 58.479,
      "duration": 0.2118,
      "velocity": 100,
      "chip": "ym2612"
    },
    {
      "channel": 2,
      "note": 57,
      "start": 58.4791,
      "duration": 0.2118,
      "velocity": 85,
      "chip": "ym2612"
    },
    {
      "channel": 4,
      "note": 59,
      "start": 58.4795,
      "duration": 0.0957,
      "velocity": 102,
      "chip": "ym2612"
    },
    {
      "channel": 4,
      "note": 59,
      "start": 58.5947,
      "duration": 0.0964,
      "velocity": 102,
      "chip": "ym2612"
    },
    {
      "channel": 0,
      "note": 76,
      "start": 58.71,
      "duration": 0.2118,
      "velocity": 100,
      "chip": "ym2612"
    },
    {
      "channel": 1,
      "note": 73,
      "start": 58.7101,
      "duration": 0.2118,
      "velocity": 100,
      "chip": "ym2612"
    },
    {
      "channel": 2,
      "note": 57,
      "start": 58.7102,
      "duration": 0.2118,
      "velocity": 85,
      "chip": "ym2612"
    },
    {
      "channel": 4,
      "note": 59,
      "start": 58.8257,
      "duration": 0.0966,
      "velocity": 102,
      "chip": "ym2612"
    },
    {
      "channel": 0,
      "note": 76,
      "start": 58.9411,
      "duration": 0.2118,
      "velocity": 100,
      "chip": "ym2612"
    },
    {
      "channel": 2,
      "note": 57,
      "start": 58.9413,
      "duration": 0.2118,
      "velocity": 85,
      "chip": "ym2612"
    },
    {
      "channel": 4,
      "note": 59,
      "start": 58.9415,
      "duration": 0.096,
      "velocity": 102,
      "chip": "ym2612"
    },
    {
      "channel": 4,
      "note": 59,
      "start": 59.0568,
      "duration": 0.0964,
      "velocity": 102,
      "chip": "ym2612"
    },
    {
      "channel": 0,
      "note": 59,
      "start": 59.1724,
      "duration": 0.2083,
      "velocity": 100,
      "chip": "ym2612"
    },
    {
      "channel": 2,
      "note": 59,
      "start": 59.1727,
      "duration": 0.208,
      "velocity": 85,
      "chip": "ym2612"
    },
    {
      "channel": 4,
      "note": 59,
      "start": 59.1728,
      "duration": 0.2079,
      "velocity": 102,
      "chip": "ym2612"
    }
  ]
}