{
  "track_name": "06 - Prehistoric Stage Theme 3",
  "duration_sec": 95.198,
  "sample_rate": 44100,
  "note_count": 700,
  "unique_pitches": 27,
  "pitch_range": 65,
  "avg_note_duration": 0.6827,
  "reconstruction_stats": {
    "notes_reconstructed": 700,
    "keyon_events": 700,
    "keyoff_events": 695,
    "orphan_keyons": 5,
    "unique_pitches": 27,
    "pitch_range": 65,
    "avg_duration_sec": 0.6827
  },
  "metadata": {
    "source": "T\\The Second Samurai\\06 - Prehistoric Stage Theme 3.vgz"
  },
  "notes": [
    {
      "channel": 3,
      "note": 20,
      "start": 0.0,
      "duration": 1.9311,
      "velocity": 127,
      "chip": "ym2612"
    },
    {
      "channel": 5,
      "note": 31,
      "start": 0.444,
      "duration": 0.9251,
      "velocity": 112,
      "chip": "ym2612"
    },
    {
      "channel": 5,
      "note": 31,
      "start": 1.3694,
      "duration": 0.2797,
      "velocity": 112,
      "chip": "ym2612"
    },
    {
      "channel": 5,
      "note": 21,
      "start": 1.6493,
      "duration": 0.7236,
      "velocity": 112,
      "chip": "ym2612"
    },
    {
      "channel": 2,
      "note": 31,
      "start": 1.7907,
      "duration": 0.1399,
      "velocity": 117,
      "chip": "ym2612"
    },
    {
      "channel": 2,
      "note": 21,
      "start": 1.9307,
      "duration": 3.7204,
      "velocity": 1,
      "chip": "ym2612"
    },
    {
      "channel": 3,
      "note": 20,
      "start": 1.9313,
      "duration": 1.928,
      "velocity": 127,
      "chip": "ym2612"
    },
    {
      "channel": 5,
      "note": 31,
      "start": 2.3731,
      "duration": 0.9263,
      "velocity": 112,
      "chip": "ym2612"
    },
    {
      "channel": 5,
      "note": 31,
      "start": 3.2996,
      "duration": 0.2798,
      "velocity": 112,
      "chip": "ym2612"
    },
    {
      "channel": 5,
      "note": 21,
      "start": 3.5795,
      "duration": 0.7235,
      "velocity": 112,
      "chip": "ym2612"
    },
    {
      "channel": 3,
      "note": 20,
      "start": 3.8595,
      "duration": 1.9322,
      "velocity": 127,
      "chip": "ym2612"
    },
    {
      "channel": 5,
      "note": 31,
      "start": 4.3032,
      "duration": 0.9265,
      "velocity": 112,
      "chip": "ym2612"
    },
    {
      "channel": 5,
      "note": 31,
      "start": 5.2299,
      "duration": 0.2798,
      "velocity": 112,
      "chip": "ym2612"
    },
    {
      "channel": 5,
      "note": 21,
      "start": 5.5098,
      "duration": 0.7409,
      "velocity": 112,
      "chip": "ym2612"
    },
    {
      "channel": 2,
      "note": 31,
      "start": 5.6512,
      "duration": 0.1399,
      "velocity": 117,
      "chip": "ym2612"
    },
    {
      "channel": 2,
      "note": 20,
      "start": 5.7913,
      "duration": 3.7415,
      "velocity": 1,
      "chip": "ym2612"
    },
    {
      "channel": 3,
      "note": 20,
      "start": 5.7919,
      "duration": 1.9455,
      "velocity": 127,
      "chip": "ym2612"
    },
    {
      "channel": 5,
      "note": 31,
      "start": 6.251,
      "duration": 0.9263,
      "velocity": 112,
      "chip": "ym2612"
    },
    {
      "channel": 5,
      "note": 31,
      "start": 7.1775,
      "duration": 0.2798,
      "velocity": 112,
      "chip": "ym2612"
    },
    {
      "channel": 5,
      "note": 21,
      "start": 7.4574,
      "duration": 0.7246,
      "velocity": 112,
      "chip": "ym2612"
    },
    {
      "channel": 3,
      "note": 20,
      "start": 7.7376,
      "duration": 1.9358,
      "velocity": 127,
      "chip": "ym2612"
    },
    {
      "channel": 5,
      "note": 31,
      "start": 8.1822,
      "duration": 0.9292,
      "velocity": 112,
      "chip": "ym2612"
    },
    {
      "channel": 5,
      "note": 31,
      "start": 9.1116,
      "duration": 0.2797,
      "velocity": 112,
      "chip": "ym2612"
    },
    {
      "channel": 5,
      "note": 21,
      "start": 9.3915,
      "duration": 0.7236,
      "velocity": 112,
      "chip": "ym2612"
    },
    {
      "channel": 2,
      "note": 31,
      "start": 9.5329,
      "duration": 0.1399,
      "velocity": 117,
      "chip": "ym2612"
    },
    {
      "channel": 2,
      "note": 21,
      "start": 9.673,
      "duration": 3.7276,
      "velocity": 1,
      "chip": "ym2612"
    },
    {
      "channel": 3,
      "note": 20,
      "start": 9.6735,
      "duration": 1.9288,
      "velocity": 127,
      "chip": "ym2612"
    },
    {
      "channel": 5,
      "note": 31,
      "start": 10.1153,
      "duration": 0.9272,
      "velocity": 112,
      "chip": "ym2612"
    },
    {
      "channel": 5,
      "note": 31,
      "start": 11.0426,
      "duration": 0.2798,
      "velocity": 112,
      "chip": "ym2612"
    },
    {
      "channel": 5,
      "note": 21,
      "start": 11.3226,
      "duration": 0.7231,
      "velocity": 112,
      "chip": "ym2612"
    },
    {
      "channel": 3,
      "note": 20,
      "start": 11.6025,
      "duration": 1.9386,
      "velocity": 127,
      "chip": "ym2612"
    },
    {
      "channel": 5,
      "note": 31,
      "start": 12.0459,
      "duration": 0.9333,
      "velocity": 112,
      "chip": "ym2612"
    },
    {
      "channel": 5,
      "note": 31,
      "start": 12.9794,
      "duration": 0.2798,
      "velocity": 112,
      "chip": "ym2612"
    },
    {
      "channel": 5,
      "note": 21,
      "start": 13.2593,
      "duration": 0.7412,
      "velocity": 112,
      "chip": "ym2612"
    },
    {
      "channel": 2,
      "note": 31,
      "start": 13.4007,
      "duration": 0.1399,
      "velocity": 117,
      "chip": "ym2612"
    },
    {
      "channel": 2,
      "note": 20,
      "start": 13.5407,
      "duration": 3.7409,
      "velocity": 1,
      "chip": "ym2612"
    },
    {
      "channel": 3,
      "note": 20,
      "start": 13.5413,
      "duration": 1.9488,
      "velocity": 127,
      "chip": "ym2612"
    },
    {
      "channel": 5,
      "note": 31,
      "start": 14.0007,
      "duration": 0.9272,
      "velocity": 112,
      "chip": "ym2612"
    },
    {
      "channel": 5,
      "note": 31,
      "start": 14.928,
      "duration": 0.2798,
      "velocity": 112,
      "chip": "ym2612"
    },
    {
      "channel": 5,
      "note": 21,
      "start": 15.208,
      "duration": 0.7263,
      "velocity": 112,
      "chip": "ym2612"
    },
    {
      "channel": 0,
      "note": 48,
      "start": 15.4895,
      "duration": 0.2194,
      "velocity": 117,
      "chip": "ym2612"
    },
    {
      "channel": 3,
      "note": 20,
      "start": 15.4902,
      "duration": 1.933,
      "velocity": 127,
      "chip": "ym2612"
    },
    {
      "channel": 0,
      "note": 48,
      "start": 15.709,
      "duration": 0.2223,
      "velocity": 117,
      "chip": "ym2612"
    },
    {
      "channel": 0,
      "note": 58,
      "start": 15.9316,
      "duration": 0.1398,
      "velocity": 117,
      "chip": "ym2612"
    },
    {
      "channel": 1,
      "note": 84,
      "start": 15.9337,
      "duration": 1.4869,
      "velocity": 96,
      "chip": "ym2612"
    },
    {
      "channel": 5,
      "note": 31,
      "start": 15.9345,
      "duration": 0.9258,
      "velocity": 112,
      "chip": "ym2612"
    },
    {
      "channel": 0,
      "note": 60,
      "start": 16.0715,
      "duration": 0.1037,
      "velocity": 117,
      "chip": "ym2612"
    },
    {
      "channel": 0,
      "note": 48,
      "start": 16.1753,
      "duration": 0.2397,
      "velocity": 117,
      "chip": "ym2612"
    },
    {
      "channel": 0,
      "note": 51,
      "start": 16.4151,
      "duration": 0.2218,
      "velocity": 117,
      "chip": "ym2612"
    },
    {
      "channel": 0,
      "note": 51,
      "start": 16.6372,
      "duration": 0.5027,
      "velocity": 117,
      "chip": "ym2612"
    },
    {
      "channel": 5,
      "note": 31,
      "start": 16.8605,
      "duration": 0.2802,
      "velocity": 112,
      "chip": "ym2612"
    },
    {
      "channel": 0,
      "note": 53,
      "start": 17.1401,
      "duration": 0.2799,
      "velocity": 117,
      "chip": "ym2612"
    },
    {
      "channel": 5,
      "note": 21,
      "start": 17.1409,
      "duration": 0.7239,
      "velocity": 112,
      "chip": "ym2612"
    },
    {
      "channel": 2,
      "note": 31,
      "start": 17.2818,
      "duration": 0.1409,
      "velocity": 117,
      "chip": "ym2612"
    },
    {
      "channel": 0,
      "note": 48,
      "start": 17.4202,
      "duration": 0.2205,
      "velocity": 117,
      "chip": "ym2612"
    },
    {
      "channel": 1,
      "note": 82,
      "start": 17.4207,
      "duration": 0.1053,
      "velocity": 96,
      "chip": "ym2612"
    },
    {
      "channel": 2,
      "note": 21,
      "start": 17.4229,
      "duration": 3.7261,
      "velocity": 1,
      "chip": "ym2612"
    },
    {
      "channel": 3,
      "note": 20,
      "start": 17.4234,
      "duration": 1.9314,
      "velocity": 127,
      "chip": "ym2612"
    },
    {
      "channel": 1,
      "note": 84,
      "start": 17.5262,
      "duration": 0.1149,
      "velocity": 96,
      "chip": "ym2612"
    },
    {
      "channel": 0,
      "note": 48,
      "start": 17.6407,
      "duration": 0.2232,
      "velocity": 117,
      "chip": "ym2612"
    },
    {
      "channel": 1,
      "note": 79,
      "start": 17.6413,
      "duration": 2.6419,
      "velocity": 96,
      "chip": "ym2612"
    },
    {
      "channel": 0,
      "note": 58,
      "start": 17.8641,
      "duration": 0.1398,
      "velocity": 117,
      "chip": "ym2612"
    },
    {
      "channel": 5,
      "note": 31,
      "start": 17.8649,
      "duration": 0.93,
      "velocity": 112,
      "chip": "ym2612"
    },
    {
      "channel": 0,
      "note": 60,
      "start": 18.0041,
      "duration": 0.105,
      "velocity": 117,
      "chip": "ym2612"
    },
    {
      "channel": 0,
      "note": 48,
      "start": 18.1093,
      "duration": 0.2398,
      "velocity": 117,
      "chip": "ym2612"
    },
    {
      "channel": 0,
      "note": 51,
      "start": 18.3493,
      "duration": 0.2216,
      "velocity": 117,
      "chip": "ym2612"
    },
    {
      "channel": 0,
      "note": 51,
      "start": 18.5711,
      "duration": 0.223,
      "velocity": 117,
      "chip": "ym2612"
    },
    {
      "channel": 0,
      "note": 53,
      "start": 18.7943,
      "duration": 0.2798,
      "velocity": 117,
      "chip": "ym2612"
    },
    {
      "channel": 5,
      "note": 31,
      "start": 18.7951,
      "duration": 0.2798,
      "velocity": 112,
      "chip": "ym2612"
    },
    {
      "channel": 0,
      "note": 53,
      "start": 19.0743,
      "duration": 0.2799,
      "velocity": 117,
      "chip": "ym2612"
    },
    {
      "channel": 5,
      "note": 21,
      "start": 19.0751,
      "duration": 0.7243,
      "velocity": 112,
      "chip": "ym2612"
    },
    {
      "channel": 0,
      "note": 48,
      "start": 19.3543,
      "duration": 0.2216,
      "velocity": 117,
      "chip": "ym2612"
    },
    {
      "channel": 3,
      "note": 20,
      "start": 19.355,
      "duration": 1.935,
      "velocity": 127,
      "chip": "ym2612"
    },
    {
      "channel": 0,
      "note": 48,
      "start": 19.5761,
      "duration": 0.2225,
      "velocity": 117,
      "chip": "ym2612"
    },
    {
      "channel": 0,
      "note": 58,
      "start": 19.7988,
      "duration": 0.1398,
      "velocity": 117,
      "chip": "ym2612"
    },
    {
      "channel": 5,
      "note": 31,
      "start": 19.7996,
      "duration": 0.928,
      "velocity": 112,
      "chip": "ym2612"
    },
    {
      "channel": 0,
      "note": 60,
      "start": 19.9387,
      "duration": 0.1039,
      "velocity": 117,
      "chip": "ym2612"
    },
    {
      "channel": 0,
      "note": 48,
      "start": 20.0427,
      "duration": 0.2399,
      "velocity": 117,
      "chip": "ym2612"
    },
    {
      "channel": 0,
      "note": 51,
      "start": 20.2829,
      "duration": 0.221,
      "velocity": 117,
      "chip": "ym2612"
    },
    {
      "channel": 1,
      "note": 77,
      "start": 20.2834,
      "duration": 0.1049,
      "velocity": 96,
      "chip": "ym2612"
    },
    {
      "channel": 1,
      "note": 79,
      "start": 20.3884,
      "duration": 0.116,
      "velocity": 96,
      "chip": "ym2612"
    },
    {
      "channel": 0,
      "note": 51,
      "start": 20.504,
      "duration": 0.5032,
      "velocity": 117,
      "chip": "ym2612"
    },
    {
      "channel": 1,
      "note": 72,
      "start": 20.5046,
      "duration": 3.1806,
      "velocity": 96,
      "chip": "ym2612"
    },
    {
      "channel": 5,
      "note": 31,
      "start": 20.7277,
      "duration": 0.2804,
      "velocity": 112,
      "chip": "ym2612"
    },
    {
      "channel": 0,
      "note": 53,
      "start": 21.0074,
      "duration": 0.2799,
      "velocity": 117,
      "chip": "ym2612"
    },
    {
      "channel": 5,
      "note": 21,
      "start": 21.0082,
      "duration": 0.7433,
      "velocity": 112,
      "chip": "ym2612"
    },
    {
      "channel": 2,
      "note": 31,
      "start": 21.1492,
      "duration": 0.1404,
      "velocity": 117,
      "chip": "ym2612"
    },
    {
      "channel": 0,
      "note": 48,
      "start": 21.2875,
      "duration": 0.2402,
      "velocity": 117,
      "chip": "ym2612"
    },
    {
      "channel": 2,
      "note": 20,
      "start": 21.2897,
      "duration": 3.7453,
      "velocity": 1,
      "chip": "ym2612"
    },
    {
      "channel": 3,
      "note": 20,
      "start": 21.2902,
      "duration": 1.9505,
      "velocity": 127,
      "chip": "ym2612"
    },
    {
      "channel": 0,
      "note": 48,
      "start": 21.5279,
      "duration": 0.2228,
      "velocity": 117,
      "chip": "ym2612"
    },
    {
      "channel": 0,
      "note": 58,
      "start": 21.7509,
      "duration": 0.1398,
      "velocity": 117,
      "chip": "ym2612"
    },
    {
      "channel": 5,
      "note": 31,
      "start": 21.7517,
      "duration": 0.9288,
      "velocity": 112,
      "chip": "ym2612"
    },
    {
      "channel": 0,
      "note": 60,
      "start": 21.8908,
      "duration": 0.1039,
      "velocity": 117,
      "chip": "ym2612"
    },
    {
      "channel": 0,
      "note": 48,
      "start": 21.9949,
      "duration": 0.2399,
      "velocity": 117,
      "chip": "ym2612"
    },
    {
      "channel": 0,
      "note": 51,
      "start": 22.235,
      "duration": 0.2218,
      "velocity": 117,
      "chip": "ym2612"
    },
    {
      "channel": 0,
      "note": 51,
      "start": 22.457,
      "duration": 0.2228,
      "velocity": 117,
      "chip": "ym2612"
    },
    {
      "channel": 0,
      "note": 53,
      "start": 22.6799,
      "duration": 0.2798,
      "velocity": 117,
      "chip": "ym2612"
    },
    {
      "channel": 5,
      "note": 31,
      "start": 22.6807,
      "duration": 0.2798,
      "velocity": 112,
      "chip": "ym2612"
    },
    {
      "channel": 0,
      "note": 53,
      "start": 22.9599,
      "duration": 0.28,
      "velocity": 117,
      "chip": "ym2612"
    },
    {
      "channel": 5,
      "note": 21,
      "start": 22.9606,
      "duration": 0.7254,
      "velocity": 112,
      "chip": "ym2612"
    },
    {
      "channel": 0,
      "note": 48,
      "start": 23.2401,
      "duration": 0.2216,
      "velocity": 117,
      "chip": "ym2612"
    },
    {
      "channel": 3,
      "note": 20,
      "start": 23.2408,
      "duration": 1.9357,
      "velocity": 127,
      "chip": "ym2612"
    },
    {
      "channel": 0,
      "note": 48,
      "start": 23.462,
      "duration": 0.2226,
      "velocity": 117,
      "chip": "ym2612"
    },
    {
      "channel": 0,
      "note": 58,
      "start": 23.6847,
      "duration": 0.1398,
      "velocity": 117,
      "chip": "ym2612"
    },
    {
      "channel": 1,
      "note": 84,
      "start": 23.6854,
      "duration": 1.4885,
      "velocity": 96,
      "chip": "ym2612"
    },
    {
      "channel": 5,
      "note": 31,
      "start": 23.6861,
      "duration": 0.9275,
      "velocity": 112,
      "chip": "ym2612"
    },
    {
      "channel": 0,
      "note": 60,
      "start": 23.8247,
      "duration": 0.1045,
      "velocity": 117,
      "chip": "ym2612"
    },
    {
      "channel": 0,
      "note": 48,
      "start": 23.9294,
      "duration": 0.2397,
      "velocity": 117,
      "chip": "ym2612"
    },
    {
      "channel": 0,
      "note": 51,
      "start": 24.1692,
      "duration": 0.2216,
      "velocity": 117,
      "chip": "ym2612"
    },
    {
      "channel": 0,
      "note": 51,
      "start": 24.391,
      "duration": 0.5022,
      "velocity": 117,
      "chip": "ym2612"
    },
    {
      "channel": 5,
      "note": 31,
      "start": 24.6137,
      "duration": 0.2803,
      "velocity": 112,
      "chip": "ym2612"
    },
    {
      "channel": 0,
      "note": 53,
      "start": 24.8934,
      "duration": 0.2799,
      "velocity": 117,
      "chip": "ym2612"
    },
    {
      "channel": 5,
      "note": 21,
      "start": 24.8942,
      "duration": 0.722,
      "velocity": 112,
      "chip": "ym2612"
    },
    {
      "channel": 2,
      "note": 31,
      "start": 25.0351,
      "duration": 0.1409,
      "velocity": 117,
      "chip": "ym2612"
    },
    {
      "channel": 0,
      "note": 48,
      "start": 25.1735,
      "duration": 0.2206,
      "velocity": 117,
      "chip": "ym2612"
    },
    {
      "channel": 1,
      "note": 82,
      "start": 25.1741,
      "duration": 0.105,
      "velocity": 96,
      "chip": "ym2612"
    },
    {
      "channel": 2,
      "note": 21,
      "start": 25.1762,
      "duration": 3.7229,
      "velocity": 1,
      "chip": "ym2612"
    },
    {
      "channel": 3,
      "note": 20,
      "start": 25.1767,
      "duration": 1.9277,
      "velocity": 127,
      "chip": "ym2612"
    },
    {
      "channel": 1,
      "note": 84,
      "start": 25.2792,
      "duration": 0.1154,
      "velocity": 96,
      "chip": "ym2612"
    },
    {
      "channel": 0,
      "note": 48,
      "start": 25.3942,
      "duration": 0.2212,
      "velocity": 117,
      "chip": "ym2612"
    },
    {
      "channel": 1,
      "note": 79,
      "start": 25.3947,
      "duration": 2.6384,
      "velocity": 96,
      "chip": "ym2612"
    },
    {
      "channel": 0,
      "note": 58,
      "start": 25.6156,
      "duration": 0.1398,
      "velocity": 117,
      "chip": "ym2612"
    },
    {
      "channel": 5,
      "note": 31,
      "start": 25.6164,
      "duration": 0.9282,
      "velocity": 112,
      "chip": "ym2612"
    },
    {
      "channel": 0,
      "note": 60,
      "start": 25.7555,
      "duration": 0.1049,
      "velocity": 117,
      "chip": "ym2612"
    },
    {
      "channel": 0,
      "note": 48,
      "start": 25.8606,
      "duration": 0.2393,
      "velocity": 117,
      "chip": "ym2612"
    },
    {
      "channel": 0,
      "note": 51,
      "start": 26.1,
      "duration": 0.2213,
      "velocity": 117,
      "chip": "ym2612"
    },
    {
      "channel": 0,
      "note": 51,
      "start": 26.3215,
      "duration": 0.2222,
      "velocity": 117,
      "chip": "ym2612"
    },
    {
      "channel": 0,
      "note": 53,
      "start": 26.5439,
      "duration": 0.2798,
      "velocity": 117,
      "chip": "ym2612"
    },
    {
      "channel": 5,
      "note": 31,
      "start": 26.5448,
      "duration": 0.2798,
      "velocity": 112,
      "chip": "ym2612"
    },
    {
      "channel": 0,
      "note": 53,
      "start": 26.8239,
      "duration": 0.2799,
      "velocity": 117,
      "chip": "ym2612"
    },
    {
      "channel": 5,
      "note": 21,
      "start": 26.8247,
      "duration": 0.7242,
      "velocity": 112,
      "chip": "ym2612"
    },
    {
      "channel": 0,
      "note": 48,
      "start": 27.1039,
      "duration": 0.2212,
      "velocity": 117,
      "chip": "ym2612"
    },
    {
      "channel": 3,
      "note": 20,
      "start": 27.1046,
      "duration": 1.9355,
      "velocity": 127,
      "chip": "ym2612"
    },
    {
      "channel": 0,
      "note": 48,
      "start": 27.3254,
      "duration": 0.2228,
      "velocity": 117,
      "chip": "ym2612"
    },
    {
      "channel": 0,
      "note": 58,
      "start": 27.5483,
      "duration": 0.1398,
      "velocity": 117,
      "chip": "ym2612"
    },
    {
      "channel": 5,
      "note": 31,
      "start": 27.5491,
      "duration": 0.9286,
      "velocity": 112,
      "chip": "ym2612"
    },
    {
      "channel": 0,
      "note": 60,
      "start": 27.6883,
      "duration": 0.1042,
      "velocity": 117,
      "chip": "ym2612"
    },
    {
      "channel": 0,
      "note": 48,
      "start": 27.7926,
      "duration": 0.24,
      "velocity": 117,
      "chip": "ym2612"
    },
    {
      "channel": 0,
      "note": 51,
      "start": 28.0327,
      "duration": 0.2215,
      "velocity": 117,
      "chip": "ym2612"
    },
    {
      "channel": 1,
      "note": 77,
      "start": 28.0333,
      "duration": 0.1051,
      "velocity": 96,
      "chip": "ym2612"
    },
    {
      "channel": 1,
      "note": 79,
      "start": 28.1386,
      "duration": 0.1161,
      "velocity": 96,
      "chip": "ym2612"
    },
    {
      "channel": 0,
      "note": 51,
      "start": 28.2544,
      "duration": 0.5029,
      "velocity": 117,
      "chip": "ym2612"
    },
    {
      "channel": 1,
      "note": 72,
      "start": 28.2549,
      "duration": 2.8424,
      "velocity": 112,
      "chip": "ym2612"
    },
    {
      "channel": 5,
      "note": 31,
      "start": 28.4779,
      "duration": 0.2803,
      "velocity": 112,
      "chip": "ym2612"
    },
    {
      "channel": 0,
      "note": 53,
      "start": 28.7575,
      "duration": 0.2799,
      "velocity": 117,
      "chip": "ym2612"
    },
    {
      "channel": 5,
      "note": 21,
      "start": 28.7583,
      "duration": 0.7432,
      "velocity": 112,
      "chip": "ym2612"
    },
    {
      "channel": 2,
      "note": 31,
      "start": 28.8993,
      "duration": 0.1403,
      "velocity": 117,
      "chip": "ym2612"
    },
    {
      "channel": 0,
      "note": 48,
      "start": 29.0376,
      "duration": 0.2399,
      "velocity": 117,
      "chip": "ym2612"
    },
    {
      "channel": 2,
      "note": 20,
      "start": 29.0398,
      "duration": 3.744,
      "velocity": 1,
      "chip": "ym2612"
    },
    {
      "channel": 3,
      "note": 20,
      "start": 29.0403,
      "duration": 1.9504,
      "velocity": 127,
      "chip": "ym2612"
    },
    {
      "channel": 0,
      "note": 48,
      "start": 29.2777,
      "duration": 0.223,
      "velocity": 117,
      "chip": "ym2612"
    },
    {
      "channel": 0,
      "note": 58,
      "start": 29.5009,
      "duration": 0.1398,
      "velocity": 117,
      "chip": "ym2612"
    },
    {
      "channel": 5,
      "note": 31,
      "start": 29.5017,
      "duration": 0.9289,
      "velocity": 112,
      "chip": "ym2612"
    },
    {
      "channel": 0,
      "note": 60,
      "start": 29.6408,
      "duration": 0.1042,
      "velocity": 117,
      "chip": "ym2612"
    },
    {
      "channel": 0,
      "note": 48,
      "start": 29.7451,
      "duration": 0.2399,
      "velocity": 117,
      "chip": "ym2612"
    },
    {
      "channel": 0,
      "note": 51,
      "start": 29.9852,
      "duration": 0.2217,
      "velocity": 117,
      "chip": "ym2612"
    },
    {
      "channel": 0,
      "note": 51,
      "start": 30.2072,
      "duration": 0.2226,
      "velocity": 117,
      "chip": "ym2612"
    },
    {
      "channel": 0,
      "note": 53,
      "start": 30.43,
      "duration": 0.2798,
      "velocity": 117,
      "chip": "ym2612"
    },
    {
      "channel": 5,
      "note": 31,
      "start": 30.4308,
      "duration": 0.2798,
      "velocity": 112,
      "chip": "ym2612"
    },
    {
      "channel": 0,
      "note": 53,
      "start": 30.71,
      "duration": 0.28,
      "velocity": 117,
      "chip": "ym2612"
    },
    {
      "channel": 5,
      "note": 21,
      "start": 30.7107,
      "duration": 0.7243,
      "velocity": 112,
      "chip": "ym2612"
    },
    {
      "channel": 0,
      "note": 48,
      "start": 30.9901,
      "duration": 0.2216,
      "velocity": 117,
      "chip": "ym2612"
    },
    {
      "channel": 3,
      "note": 20,
      "start": 30.9909,
      "duration": 1.9334,
      "velocity": 127,
      "chip": "ym2612"
    },
    {
      "channel": 1,
      "note": 24,
      "start": 31.0976,
      "duration": 0.3366,
      "velocity": 112,
      "chip": "ym2612"
    },
    {
      "channel": 0,
      "note": 48,
      "start": 31.2119,
      "duration": 0.2217,
      "velocity": 117,
      "chip": "ym2612"
    },
    {
      "channel": 0,
      "note": 58,
      "start": 31.4338,
      "duration": 0.1398,
      "velocity": 117,
      "chip": "ym2612"
    },
    {
      "channel": 1,
      "note": 24,
      "start": 31.4344,
      "duration": 0.2451,
      "velocity": 112,
      "chip": "ym2612"
    },
    {
      "channel": 5,
      "note": 31,
      "start": 31.4352,
      "duration": 0.9272,
      "velocity": 112,
      "chip": "ym2612"
    },
    {
      "channel": 0,
      "note": 60,
      "start": 31.5738,
      "duration": 0.1051,
      "velocity": 117,
      "chip": "ym2612"
    },
    {
      "channel": 0,
      "note": 48,
      "start": 31.6791,
      "duration": 0.2392,
      "velocity": 117,
      "chip": "ym2612"
    },
    {
      "channel": 1,
      "note": 24,
      "start": 31.6796,
      "duration": 0.3439,
      "velocity": 112,
      "chip": "ym2612"
    },
    {
      "channel": 0,
      "note": 51,
      "start": 31.9184,
      "duration": 0.2211,
      "velocity": 117,
      "chip": "ym2612"
    },
    {
      "channel": 1,
      "note": 24,
      "start": 32.0236,
      "duration": 0.3381,
      "velocity": 112,
      "chip": "ym2612"
    },
    {
      "channel": 0,
      "note": 51,
      "start": 32.1397,
      "duration": 0.5019,
      "velocity": 117,
      "chip": "ym2612"
    },
    {
      "channel": 1,
      "note": 24,
      "start": 32.3618,
      "duration": 0.1398,
      "velocity": 112,
      "chip": "ym2612"
    },
    {
      "channel": 5,
      "note": 31,
      "start": 32.3626,
      "duration": 0.2802,
      "velocity": 112,
      "chip": "ym2612"
    },
    {
      "channel": 1,
      "note": 24,
      "start": 32.5018,
      "duration": 0.1403,
      "velocity": 112,
      "chip": "ym2612"
    },
    {
      "channel": 0,
      "note": 53,
      "start": 32.6417,
      "duration": 0.2799,
      "velocity": 117,
      "chip": "ym2612"
    },
    {
      "channel": 1,
      "note": 22,
      "start": 32.6423,
      "duration": 0.1394,
      "velocity": 112,
      "chip": "ym2612"
    },
    {
      "channel": 5,
      "note": 21,
      "start": 32.6431,
      "duration": 0.7226,
      "velocity": 112,
      "chip": "ym2612"
    },
    {
      "channel": 1,
      "note": 31,
      "start": 32.7818,
      "duration": 0.246,
      "velocity": 112,
      "chip": "ym2612"
    },
    {
      "channel": 2,
      "note": 31,
      "start": 32.7839,
      "duration": 0.1399,
      "velocity": 117,
      "chip": "ym2612"
    },
    {
      "channel": 0,
      "note": 48,
      "start": 32.9218,
      "duration": 0.221,
      "velocity": 117,
      "chip": "ym2612"
    },
    {
      "channel": 2,
      "note": 21,
      "start": 32.9239,
      "duration": 3.7281,
      "velocity": 1,
      "chip": "ym2612"
    },
    {
      "channel": 3,
      "note": 20,
      "start": 32.9245,
      "duration": 1.9305,
      "velocity": 127,
      "chip": "ym2612"
    },
    {
      "channel": 1,
      "note": 24,
      "start": 33.028,
      "duration": 0.3369,
      "velocity": 112,
      "chip": "ym2612"
    },
    {
      "channel": 0,
      "note": 48,
      "start": 33.1429,
      "duration": 0.2215,
      "velocity": 117,
      "chip": "ym2612"
    },
    {
      "channel": 0,
      "note": 58,
      "start": 33.3645,
      "duration": 0.1398,
      "velocity": 117,
      "chip": "ym2612"
    },
    {
      "channel": 1,
      "note": 24,
      "start": 33.3651,
      "duration": 0.2458,
      "velocity": 112,
      "chip": "ym2612"
    },
    {
      "channel": 5,
      "note": 31,
      "start": 33.3659,
      "duration": 0.9298,
      "velocity": 112,
      "chip": "ym2612"
    },
    {
      "channel": 0,
      "note": 60,
      "start": 33.5045,
      "duration": 0.1059,
      "velocity": 117,
      "chip": "ym2612"
    },
    {
      "channel": 0,
      "note": 48,
      "start": 33.6105,
      "duration": 0.2397,
      "velocity": 117,
      "chip": "ym2612"
    },
    {
      "channel": 1,
      "note": 24,
      "start": 33.6111,
      "duration": 0.3447,
      "velocity": 112,
      "chip": "ym2612"
    },
    {
      "channel": 0,
      "note": 51,
      "start": 33.8505,
      "duration": 0.2217,
      "velocity": 117,
      "chip": "ym2612"
    },
    {
      "channel": 1,
      "note": 24,
      "start": 33.956,
      "duration": 0.3389,
      "velocity": 112,
      "chip": "ym2612"
    },
    {
      "channel": 0,
      "note": 51,
      "start": 34.0723,
      "duration": 0.2221,
      "velocity": 117,
      "chip": "ym2612"
    },
    {
      "channel": 0,
      "note": 53,
      "start": 34.2945,
      "duration": 0.2798,
      "velocity": 117,
      "chip": "ym2612"
    },
    {
      "channel": 1,
      "note": 24,
      "start": 34.2951,
      "duration": 0.1392,
      "velocity": 112,
      "chip": "ym2612"
    },
    {
      "channel": 5,
      "note": 31,
      "start": 34.2958,
      "duration": 0.2798,
      "velocity": 112,
      "chip": "ym2612"
    },
    {
      "channel": 1,
      "note": 24,
      "start": 34.4345,
      "duration": 0.1403,
      "velocity": 112,
      "chip": "ym2612"
    },
    {
      "channel": 0,
      "note": 53,
      "start": 34.5745,
      "duration": 0.2799,
      "velocity": 117,
      "chip": "ym2612"
    },
    {
      "channel": 1,
      "note": 22,
      "start": 34.5751,
      "duration": 0.1394,
      "velocity": 112,
      "chip": "ym2612"
    },
    {
      "channel": 5,
      "note": 21,
      "start": 34.5758,
      "duration": 0.7264,
      "velocity": 112,
      "chip": "ym2612"
    },
    {
      "channel": 1,
      "note": 31,
      "start": 34.7145,
      "duration": 0.2461,
      "velocity": 112,
      "chip": "ym2612"
    },
    {
      "channel": 0,
      "note": 48,
      "start": 34.8545,
      "duration": 0.2224,
      "velocity": 117,
      "chip": "ym2612"
    },
    {
      "channel": 3,
      "note": 20,
      "start": 34.8552,
      "duration": 1.9374,
      "velocity": 127,
      "chip": "ym2612"
    },
    {
      "channel": 1,
      "note": 24,
      "start": 34.9608,
      "duration": 0.3406,
      "velocity": 112,
      "chip": "ym2612"
    },
    {
      "channel": 0,
      "note": 48,
      "start": 35.0771,
      "duration": 0.2238,
      "velocity": 117,
      "chip": "ym2612"
    },
    {
      "channel": 0,
      "note": 58,
      "start": 35.301,
      "duration": 0.1398,
      "velocity": 117,
      "chip": "ym2612"
    },
    {
      "channel": 1,
      "note": 24,
      "start": 35.3016,
      "duration": 0.245,
      "velocity": 112,
      "chip": "ym2612"
    },
    {
      "channel": 5,
      "note": 31,
      "start": 35.3023,
      "duration": 0.9283,
      "velocity": 112,
      "chip": "ym2612"
    },
    {
      "channel": 0,
      "note": 60,
      "start": 35.441,
      "duration": 0.1051,
      "velocity": 117,
      "chip": "ym2612"
    },
    {
      "channel": 0,
      "note": 48,
      "start": 35.5463,
      "duration": 0.2396,
      "velocity": 117,
      "chip": "ym2612"
    },
    {
      "channel": 1,
      "note": 24,
      "start": 35.5468,
      "duration": 0.3451,
      "velocity": 112,
      "chip": "ym2612"
    },
    {
      "channel": 0,
      "note": 51,
      "start": 35.786,
      "duration": 0.2219,
      "velocity": 117,
      "chip": "ym2612"
    },
    {
      "channel": 1,
      "note": 24,
      "start": 35.892,
      "duration": 0.3379,
      "velocity": 112,
      "chip": "ym2612"
    },
    {
      "channel": 0,
      "note": 51,
      "start": 36.0081,
      "duration": 0.5017,
      "velocity": 117,
      "chip": "ym2612"
    },
    {
      "channel": 1,
      "note": 24,
      "start": 36.2301,
      "duration": 0.1398,
      "velocity": 112,
      "chip": "ym2612"
    },
    {
      "channel": 5,
      "note": 31,
      "start": 36.2308,
      "duration": 0.2803,
      "velocity": 112,
      "chip": "ym2612"
    },
    {
      "channel": 1,
      "note": 24,
      "start": 36.37,
      "duration": 0.1403,
      "velocity": 112,
      "chip": "ym2612"
    },
    {
      "channel": 0,
      "note": 53,
      "start": 36.51,
      "duration": 0.2799,
      "velocity": 117,
      "chip": "ym2612"
    },
    {
      "channel": 1,
      "note": 22,
      "start": 36.5105,
      "duration": 0.1394,
      "velocity": 112,
      "chip": "ym2612"
    },
    {
      "channel": 5,
      "note": 21,
      "start": 36.5113,
      "duration": 0.7434,
      "velocity": 112,
      "chip": "ym2612"
    },
    {
      "channel": 1,
      "note": 31,
      "start": 36.6501,
      "duration": 0.2468,
      "velocity": 112,
      "chip": "ym2612"
    },
    {
      "channel": 2,
      "note": 31,
      "start": 36.6522,
      "duration": 0.1399,
      "velocity": 117,
      "chip": "ym2612"
    },
    {
      "channel": 0,
      "note": 48,
      "start": 36.79,
      "duration": 0.241,
      "velocity": 117,
      "chip": "ym2612"
    },
    {
      "channel": 2,
      "note": 20,
      "start": 36.7922,
      "duration": 3.7435,
      "velocity": 1,
      "chip": "ym2612"
    },
    {
      "channel": 3,
      "note": 20,
      "start": 36.7928,
      "duration": 1.949,
      "velocity": 127,
      "chip": "ym2612"
    },
    {
      "channel": 1,
      "note": 24,
      "start": 36.897,
      "duration": 0.3571,
      "velocity": 112,
      "chip": "ym2612"
    },
    {
      "channel": 0,
      "note": 48,
      "start": 37.0312,
      "duration": 0.2223,
      "velocity": 117,
      "chip": "ym2612"
    },
    {
      "channel": 0,
      "note": 58,
      "start": 37.2537,
      "duration": 0.1398,
      "velocity": 117,
      "chip": "ym2612"
    },
    {
      "channel": 1,
      "note": 24,
      "start": 37.2542,
      "duration": 0.244,
      "velocity": 112,
      "chip": "ym2612"
    },
    {
      "channel": 5,
      "note": 31,
      "start": 37.255,
      "duration": 0.9272,
      "velocity": 112,
      "chip": "ym2612"
    },
    {
      "channel": 0,
      "note": 60,
      "start": 37.3936,
      "duration": 0.1041,
      "velocity": 117,
      "chip": "ym2612"
    },
    {
      "channel": 0,
      "note": 48,
      "start": 37.4978,
      "duration": 0.2398,
      "velocity": 117,
      "chip": "ym2612"
    },
    {
      "channel": 1,
      "note": 24,
      "start": 37.4983,
      "duration": 0.345,
      "velocity": 112,
      "chip": "ym2612"
    },
    {
      "channel": 0,
      "note": 51,
      "start": 37.7377,
      "duration": 0.2215,
      "velocity": 117,
      "chip": "ym2612"
    },
    {
      "channel": 1,
      "note": 24,
      "start": 37.8435,
      "duration": 0.3379,
      "velocity": 112,
      "chip": "ym2612"
    },
    {
      "channel": 0,
      "note": 51,
      "start": 37.9594,
      "duration": 0.2215,
      "velocity": 117,
      "chip": "ym2612"
    },
    {
      "channel": 0,
      "note": 53,
      "start": 38.181,
      "duration": 0.2799,
      "velocity": 117,
      "chip": "ym2612"
    },
    {
      "channel": 1,
      "note": 24,
      "start": 38.1816,
      "duration": 0.1394,
      "velocity": 112,
      "chip": "ym2612"
    },
    {
      "channel": 5,
      "note": 31,
      "start": 38.1823,
      "duration": 0.2798,
      "velocity": 112,
      "chip": "ym2612"
    },
    {
      "channel": 1,
      "note": 24,
      "start": 38.321,
      "duration": 0.1403,
      "velocity": 112,
      "chip": "ym2612"
    },
    {
      "channel": 0,
      "note": 53,
      "start": 38.461,
      "duration": 0.28,
      "velocity": 117,
      "chip": "ym2612"
    },
    {
      "channel": 1,
      "note": 22,
      "start": 38.4616,
      "duration": 0.1394,
      "velocity": 112,
      "chip": "ym2612"
    },
    {
      "channel": 5,
      "note": 21,
      "start": 38.4623,
      "duration": 0.7254,
      "velocity": 112,
      "chip": "ym2612"
    },
    {
      "channel": 1,
      "note": 31,
      "start": 38.6011,
      "duration": 0.2462,
      "velocity": 112,
      "chip": "ym2612"
    },
    {
      "channel": 0,
      "note": 48,
      "start": 38.7412,
      "duration": 0.2222,
      "velocity": 117,
      "chip": "ym2612"
    },
    {
      "channel": 3,
      "note": 20,
      "start": 38.742,
      "duration": 1.9344,
      "velocity": 127,
      "chip": "ym2612"
    },
    {
      "channel": 1,
      "note": 24,
      "start": 38.8474,
      "duration": 0.3395,
      "velocity": 112,
      "chip": "ym2612"
    },
    {
      "channel": 0,
      "note": 48,
      "start": 38.9635,
      "duration": 0.2228,
      "velocity": 117,
      "chip": "ym2612"
    },
    {
      "channel": 0,
      "note": 58,
      "start": 39.1865,
      "duration": 0.1398,
      "velocity": 117,
      "chip": "ym2612"
    },
    {
      "channel": 1,
      "note": 24,
      "start": 39.1871,
      "duration": 0.2442,
      "velocity": 112,
      "chip": "ym2612"
    },
    {
      "channel": 5,
      "note": 31,
      "start": 39.1879,
      "duration": 0.9265,
      "velocity": 112,
      "chip": "ym2612"
    },
    {
      "channel": 0,
      "note": 60,
      "start": 39.3265,
      "duration": 0.1043,
      "velocity": 117,
      "chip": "ym2612"
    },
    {
      "channel": 0,
      "note": 48,
      "start": 39.4309,
      "duration": 0.2398,
      "velocity": 117,
      "chip": "ym2612"
    },
    {
      "channel": 1,
      "note": 24,
      "start": 39.4315,
      "duration": 0.3445,
      "velocity": 112,
      "chip": "ym2612"
    },
    {
      "channel": 0,
      "note": 51,
      "start": 39.6709,
      "duration": 0.2208,
      "velocity": 117,
      "chip": "ym2612"
    },
    {
      "channel": 1,
      "note": 24,
      "start": 39.7761,
      "duration": 0.3375,
      "velocity": 112,
      "chip": "ym2612"
    },
    {
      "channel": 0,
      "note": 51,
      "start": 39.8919,
      "duration": 0.5017,
      "velocity": 117,
      "chip": "ym2612"
    },
    {
      "channel": 1,
      "note": 24,
      "start": 40.1138,
      "duration": 0.1398,
      "velocity": 112,
      "chip": "ym2612"
    },
    {
      "channel": 5,
      "note": 31,
      "start": 40.1146,
      "duration": 0.2802,
      "velocity": 112,
      "chip": "ym2612"
    },
    {
      "channel": 1,
      "note": 24,
      "start": 40.2537,
      "duration": 0.1403,
      "velocity": 112,
      "chip": "ym2612"
    },
    {
      "channel": 0,
      "note": 53,
      "start": 40.3937,
      "duration": 0.2799,
      "velocity": 117,
      "chip": "ym2612"
    },
    {
      "channel": 1,
      "note": 22,
      "start": 40.3943,
      "duration": 0.1394,
      "velocity": 112,
      "chip": "ym2612"
    },
    {
      "channel": 5,
      "note": 21,
      "start": 40.395,
      "duration": 0.723,
      "velocity": 112,
      "chip": "ym2612"
    },
    {
      "channel": 1,
      "note": 31,
      "start": 40.5338,
      "duration": 0.246,
      "velocity": 112,
      "chip": "ym2612"
    },
    {
      "channel": 2,
      "note": 31,
      "start": 40.5359,
      "duration": 0.1399,
      "velocity": 117,
      "chip": "ym2612"
    },
    {
      "channel": 0,
      "note": 48,
      "start": 40.6737,
      "duration": 0.221,
      "velocity": 117,
      "chip": "ym2612"
    },
    {
      "channel": 2,
      "note": 21,
      "start": 40.6759,
      "duration": 3.7255,
      "velocity": 1,
      "chip": "ym2612"
    },
    {
      "channel": 3,
      "note": 20,
      "start": 40.6765,
      "duration": 1.931,
      "velocity": 127,
      "chip": "ym2612"
    },
    {
      "channel": 1,
      "note": 24,
      "start": 40.78,
      "duration": 0.3373,
      "velocity": 112,
      "chip": "ym2612"
    },
    {
      "channel": 0,
      "note": 48,
      "start": 40.8949,
      "duration": 0.2218,
      "velocity": 117,
      "chip": "ym2612"
    },
    {
      "channel": 0,
      "note": 58,
      "start": 41.1169,
      "duration": 0.1398,
      "velocity": 117,
      "chip": "ym2612"
    },
    {
      "channel": 1,
      "note": 24,
      "start": 41.1174,
      "duration": 0.2451,
      "velocity": 112,
      "chip": "ym2612"
    },
    {
      "channel": 5,
      "note": 31,
      "start": 41.1182,
      "duration": 0.9298,
      "velocity": 112,
      "chip": "ym2612"
    },
    {
      "channel": 0,
      "note": 60,
      "start": 41.2568,
      "duration": 0.1052,
      "velocity": 117,
      "chip": "ym2612"
    },
    {
      "channel": 0,
      "note": 48,
      "start": 41.3622,
      "duration": 0.2396,
      "velocity": 117,
      "chip": "ym2612"
    },
    {
      "channel": 1,
      "note": 24,
      "start": 41.3627,
      "duration": 0.3446,
      "velocity": 112,
      "chip": "ym2612"
    },
    {
      "channel": 0,
      "note": 51,
      "start": 41.602,
      "duration": 0.2217,
      "velocity": 117,
      "chip": "ym2612"
    },
    {
      "channel": 1,
      "note": 24,
      "start": 41.7075,
      "duration": 0.3398,
      "velocity": 112,
      "chip": "ym2612"
    },
    {
      "channel": 0,
      "note": 51,
      "start": 41.8238,
      "duration": 0.223,
      "velocity": 117,
      "chip": "ym2612"
    },
    {
      "channel": 0,
      "note": 53,
      "start": 42.0469,
      "duration": 0.2799,
      "velocity": 117,
      "chip": "ym2612"
    },
    {
      "channel": 1,
      "note": 24,
      "start": 42.0475,
      "duration": 0.1394,
      "velocity": 112,
      "chip": "ym2612"
    },
    {
      "channel": 5,
      "note": 31,
      "start": 42.0483,
      "duration": 0.2798,
      "velocity": 112,
      "chip": "ym2612"
    },
    {
      "channel": 1,
      "note": 24,
      "start": 42.187,
      "duration": 0.1403,
      "velocity": 112,
      "chip": "ym2612"
    },
    {
      "channel": 0,
      "note": 53,
      "start": 42.3269,
      "duration": 0.2799,
      "velocity": 117,
      "chip": "ym2612"
    },
    {
      "channel": 1,
      "note": 22,
      "start": 42.3275,
      "duration": 0.1394,
      "velocity": 112,
      "chip": "ym2612"
    },
    {
      "channel": 5,
      "note": 21,
      "start": 42.3283,
      "duration": 0.7245,
      "velocity": 112,
      "chip": "ym2612"
    },
    {
      "channel": 1,
      "note": 31,
      "start": 42.467,
      "duration": 0.246,
      "velocity": 112,
      "chip": "ym2612"
    },
    {
      "channel": 0,
      "note": 48,
      "start": 42.607,
      "duration": 0.2222,
      "velocity": 117,
      "chip": "ym2612"
    },
    {
      "channel": 3,
      "note": 20,
      "start": 42.6076,
      "duration": 1.9344,
      "velocity": 127,
      "chip": "ym2612"
    },
    {
      "channel": 1,
      "note": 24,
      "start": 42.7132,
      "duration": 0.3388,
      "velocity": 112,
      "chip": "ym2612"
    },
    {
      "channel": 0,
      "note": 48,
      "start": 42.8293,
      "duration": 0.2221,
      "velocity": 117,
      "chip": "ym2612"
    },
    {
      "channel": 0,
      "note": 58,
      "start": 43.0516,
      "duration": 0.1398,
      "velocity": 117,
      "chip": "ym2612"
    },
    {
      "channel": 1,
      "note": 24,
      "start": 43.0522,
      "duration": 0.2451,
      "velocity": 112,
      "chip": "ym2612"
    },
    {
      "channel": 5,
      "note": 31,
      "start": 43.0529,
      "duration": 0.9272,
      "velocity": 112,
      "chip": "ym2612"
    },
    {
      "channel": 0,
      "note": 60,
      "start": 43.1915,
      "duration": 0.1051,
      "velocity": 117,
      "chip": "ym2612"
    },
    {
      "channel": 0,
      "note": 48,
      "start": 43.2968,
      "duration": 0.2392,
      "velocity": 117,
      "chip": "ym2612"
    },
    {
      "channel": 1,
      "note": 24,
      "start": 43.2973,
      "duration": 0.3439,
      "velocity": 112,
      "chip": "ym2612"
    },
    {
      "channel": 0,
      "note": 51,
      "start": 43.5361,
      "duration": 0.2211,
      "velocity": 117,
      "chip": "ym2612"
    },
    {
      "channel": 1,
      "note": 24,
      "start": 43.6413,
      "duration": 0.3381,
      "velocity": 112,
      "chip": "ym2612"
    },
    {
      "channel": 0,
      "note": 51,
      "start": 43.7574,
      "duration": 0.5019,
      "velocity": 117,
      "chip": "ym2612"
    },
    {
      "channel": 1,
      "note": 24,
      "start": 43.9795,
      "duration": 0.1398,
      "velocity": 112,
      "chip": "ym2612"
    },
    {
      "channel": 5,
      "note": 31,
      "start": 43.9803,
      "duration": 0.2803,
      "velocity": 112,
      "chip": "ym2612"
    },
    {
      "channel": 1,
      "note": 24,
      "start": 44.1195,
      "duration": 0.1403,
      "velocity": 112,
      "chip": "ym2612"
    },
    {
      "channel": 0,
      "note": 53,
      "start": 44.2594,
      "duration": 0.2799,
      "velocity": 117,
      "chip": "ym2612"
    },
    {
      "channel": 1,
      "note": 22,
      "start": 44.26,
      "duration": 0.1394,
      "velocity": 112,
      "chip": "ym2612"
    },
    {
      "channel": 5,
      "note": 21,
      "start": 44.2607,
      "duration": 0.7433,
      "velocity": 112,
      "chip": "ym2612"
    },
    {
      "channel": 1,
      "note": 31,
      "start": 44.3995,
      "duration": 0.2468,
      "velocity": 112,
      "chip": "ym2612"
    },
    {
      "channel": 2,
      "note": 31,
      "start": 44.4016,
      "duration": 0.1399,
      "velocity": 117,
      "chip": "ym2612"
    },
    {
      "channel": 0,
      "note": 48,
      "start": 44.5395,
      "duration": 0.241,
      "velocity": 117,
      "chip": "ym2612"
    },
    {
      "channel": 2,
      "note": 20,
      "start": 44.5416,
      "duration": 3.8869,
      "velocity": 102,
      "chip": "ym2612"
    },
    {
      "channel": 3,
      "note": 20,
      "start": 44.5422,
      "duration": 1.9533,
      "velocity": 127,
      "chip": "ym2612"
    },
    {
      "channel": 1,
      "note": 24,
      "start": 44.6464,
      "duration": 0.3569,
      "velocity": 112,
      "chip": "ym2612"
    },
    {
      "channel": 0,
      "note": 48,
      "start": 44.7806,
      "duration": 0.2222,
      "velocity": 117,
      "chip": "ym2612"
    },
    {
      "channel": 0,
      "note": 58,
      "start": 45.0029,
      "duration": 0.1398,
      "velocity": 117,
      "chip": "ym2612"
    },
    {
      "channel": 1,
      "note": 24,
      "start": 45.0035,
      "duration": 0.2458,
      "velocity": 112,
      "chip": "ym2612"
    },
    {
      "channel": 5,
      "note": 31,
      "start": 45.0043,
      "duration": 0.9296,
      "velocity": 112,
      "chip": "ym2612"
    },
    {
      "channel": 0,
      "note": 60,
      "start": 45.1429,
      "duration": 0.1059,
      "velocity": 117,
      "chip": "ym2612"
    },
    {
      "channel": 0,
      "note": 48,
      "start": 45.2489,
      "duration": 0.2398,
      "velocity": 117,
      "chip": "ym2612"
    },
    {
      "channel": 1,
      "note": 24,
      "start": 45.2495,
      "duration": 0.3451,
      "velocity": 112,
      "chip": "ym2612"
    },
    {
      "channel": 0,
      "note": 51,
      "start": 45.4889,
      "duration": 0.2216,
      "velocity": 117,
      "chip": "ym2612"
    },
    {
      "channel": 1,
      "note": 24,
      "start": 45.5947,
      "duration": 0.3384,
      "velocity": 112,
      "chip": "ym2612"
    },
    {
      "channel": 0,
      "note": 51,
      "start": 45.7107,
      "duration": 0.2218,
      "velocity": 117,
      "chip": "ym2612"
    },
    {
      "channel": 0,
      "note": 53,
      "start": 45.9327,
      "duration": 0.2799,
      "velocity": 117,
      "chip": "ym2612"
    },
    {
      "channel": 1,
      "note": 24,
      "start": 45.9333,
      "duration": 0.1393,
      "velocity": 112,
      "chip": "ym2612"
    },
    {
      "channel": 5,
      "note": 31,
      "start": 45.934,
      "duration": 0.2798,
      "velocity": 112,
      "chip": "ym2612"
    },
    {
      "channel": 1,
      "note": 24,
      "start": 46.0727,
      "duration": 0.1403,
      "velocity": 112,
      "chip": "ym2612"
    },
    {
      "channel": 0,
      "note": 53,
      "start": 46.2127,
      "duration": 0.28,
      "velocity": 117,
      "chip": "ym2612"
    },
    {
      "channel": 1,
      "note": 22,
      "start": 46.2133,
      "duration": 0.1394,
      "velocity": 112,
      "chip": "ym2612"
    },
    {
      "channel": 5,
      "note": 21,
      "start": 46.214,
      "duration": 0.7249,
      "velocity": 112,
      "chip": "ym2612"
    },
    {
      "channel": 1,
      "note": 31,
      "start": 46.3528,
      "duration": 0.142,
      "velocity": 102,
      "chip": "ym2612"
    },
    {
      "channel": 0,
      "note": 51,
      "start": 46.4929,
      "duration": 0.2212,
      "velocity": 117,
      "chip": "ym2612"
    },
    {
      "channel": 1,
      "note": 81,
      "start": 46.495,
      "duration": 2.8595,
      "velocity": 102,
      "chip": "ym2612"
    },
    {
      "channel": 3,
      "note": 20,
      "start": 46.4957,
      "duration": 1.9334,
      "velocity": 127,
      "chip": "ym2612"
    },
    {
      "channel": 4,
      "note": 24,
      "start": 46.601,
      "duration": 0.3374,
      "velocity": 112,
      "chip": "ym2612"
    },
    {
      "channel": 0,
      "note": 51,
      "start": 46.7142,
      "duration": 0.2233,
      "velocity": 117,
      "chip": "ym2612"
    },
    {
      "channel": 0,
      "note": 61,
      "start": 46.9377,
      "duration": 0.1398,
      "velocity": 117,
      "chip": "ym2612"
    },
    {
      "channel": 4,
      "note": 24,
      "start": 46.9385,
      "duration": 0.2442,
      "velocity": 112,
      "chip": "ym2612"
    },
    {
      "channel": 5,
      "note": 31,
      "start": 46.9391,
      "duration": 0.928,
      "velocity": 112,
      "chip": "ym2612"
    },
    {
      "channel": 0,
      "note": 63,
      "start": 47.0777,
      "duration": 0.1043,
      "velocity": 117,
      "chip": "ym2612"
    },
    {
      "channel": 0,
      "note": 51,
      "start": 47.1822,
      "duration": 0.24,
      "velocity": 117,
      "chip": "ym2612"
    },
    {
      "channel": 4,
      "note": 24,
      "start": 47.1829,
      "duration": 0.3455,
      "velocity": 112,
      "chip": "ym2612"
    },
    {
      "channel": 0,
      "note": 54,
      "start": 47.4224,
      "duration": 0.222,
      "velocity": 117,
      "chip": "ym2612"
    },
    {
      "channel": 4,
      "note": 24,
      "start": 47.5286,
      "duration": 0.3379,
      "velocity": 112,
      "chip": "ym2612"
    },
    {
      "channel": 0,
      "note": 54,
      "start": 47.6446,
      "duration": 0.5017,
      "velocity": 117,
      "chip": "ym2612"
    },
    {
      "channel": 4,
      "note": 24,
      "start": 47.8667,
      "duration": 0.1398,
      "velocity": 112,
      "chip": "ym2612"
    },
    {
      "channel": 5,
      "note": 31,
      "start": 47.8673,
      "duration": 0.2802,
      "velocity": 112,
      "chip": "ym2612"
    },
    {
      "channel": 4,
      "note": 24,
      "start": 48.0067,
      "duration": 0.1403,
      "velocity": 112,
      "chip": "ym2612"
    },
    {
      "channel": 0,
      "note": 56,
      "start": 48.1465,
      "duration": 0.2799,
      "velocity": 117,
      "chip": "ym2612"
    },
    {
      "channel": 4,
      "note": 22,
      "start": 48.1472,
      "duration": 0.1393,
      "velocity": 112,
      "chip": "ym2612"
    },
    {
      "channel": 5,
      "note": 21,
      "start": 48.1478,
      "duration": 0.723,
      "velocity": 112,
      "chip": "ym2612"
    },
    {
      "channel": 4,
      "note": 31,
      "start": 48.2867,
      "duration": 0.2461,
      "velocity": 112,
      "chip": "ym2612"
    },
    {
      "channel": 0,
      "note": 51,
      "start": 48.4265,
      "duration": 0.2213,
      "velocity": 117,
      "chip": "ym2612"
    },
    {
      "channel": 2,
      "note": 80,
      "start": 48.4288,
      "duration": 1.3711,
      "velocity": 102,
      "chip": "ym2612"
    },
    {
      "channel": 3,
      "note": 20,
      "start": 48.4293,
      "duration": 1.9307,
      "velocity": 127,
      "chip": "ym2612"
    },
    {
      "channel": 4,
      "note": 24,
      "start": 48.533,
      "duration": 0.3373,
      "velocity": 112,
      "chip": "ym2612"
    },
    {
      "channel": 0,
      "note": 51,
      "start": 48.6479,
      "duration": 0.2216,
      "velocity": 117,
      "chip": "ym2612"
    },
    {
      "channel": 0,
      "note": 61,
      "start": 48.8697,
      "duration": 0.1398,
      "velocity": 117,
      "chip": "ym2612"
    },
    {
      "channel": 4,
      "note": 24,
      "start": 48.8704,
      "duration": 0.2442,
      "velocity": 112,
      "chip": "ym2612"
    },
    {
      "channel": 5,
      "note": 31,
      "start": 48.871,
      "duration": 0.9301,
      "velocity": 112,
      "chip": "ym2612"
    },
    {
      "channel": 0,
      "note": 63,
      "start": 49.0096,
      "duration": 0.1043,
      "velocity": 117,
      "chip": "ym2612"
    },
    {
      "channel": 0,
      "note": 51,
      "start": 49.1141,
      "duration": 0.2398,
      "velocity": 117,
      "chip": "ym2612"
    },
    {
      "channel": 4,
      "note": 24,
      "start": 49.1148,
      "duration": 0.3446,
      "velocity": 112,
      "chip": "ym2612"
    },
    {
      "channel": 0,
      "note": 54,
      "start": 49.3541,
      "duration": 0.2212,
      "velocity": 117,
      "chip": "ym2612"
    },
    {
      "channel": 1,
      "note": 75,
      "start": 49.3546,
      "duration": 4.8932,
      "velocity": 102,
      "chip": "ym2612"
    },
    {
      "channel": 4,
      "note": 24,
      "start": 49.4596,
      "duration": 0.3409,
      "velocity": 112,
      "chip": "ym2612"
    },
    {
      "channel": 0,
      "note": 54,
      "start": 49.5754,
      "duration": 0.2239,
      "velocity": 117,
      "chip": "ym2612"
    },
    {
      "channel": 0,
      "note": 56,
      "start": 49.7994,
      "duration": 0.2798,
      "velocity": 117,
      "chip": "ym2612"
    },
    {
      "channel": 2,
      "note": 78,
      "start": 49.8001,
      "duration": 6.3817,
      "velocity": 102,
      "chip": "ym2612"
    },
    {
      "channel": 4,
      "note": 24,
      "start": 49.8007,
      "duration": 0.1388,
      "velocity": 112,
      "chip": "ym2612"
    },
    {
      "channel": 5,
      "note": 31,
      "start": 49.8012,
      "duration": 0.2793,
      "velocity": 112,
      "chip": "ym2612"
    },
    {
      "channel": 4,
      "note": 24,
      "start": 49.9397,
      "duration": 0.1402,
      "velocity": 112,
      "chip": "ym2612"
    },
    {
      "channel": 0,
      "note": 56,
      "start": 50.0794,
      "duration": 0.2799,
      "velocity": 117,
      "chip": "ym2612"
    },
    {
      "channel": 4,
      "note": 22,
      "start": 50.0801,
      "duration": 0.1393,
      "velocity": 112,
      "chip": "ym2612"
    },
    {
      "channel": 5,
      "note": 21,
      "start": 50.0807,
      "duration": 0.7244,
      "velocity": 112,
      "chip": "ym2612"
    },
    {
      "channel": 4,
      "note": 31,
      "start": 50.2196,
      "duration": 0.246,
      "velocity": 112,
      "chip": "ym2612"
    },
    {
      "channel": 0,
      "note": 51,
      "start": 50.3594,
      "duration": 0.2222,
      "velocity": 117,
      "chip": "ym2612"
    },
    {
      "channel": 3,
      "note": 20,
      "start": 50.3601,
      "duration": 1.9344,
      "velocity": 127,
      "chip": "ym2612"
    },
    {
      "channel": 4,
      "note": 24,
      "start": 50.4658,
      "duration": 0.3388,
      "velocity": 112,
      "chip": "ym2612"
    },
    {
      "channel": 0,
      "note": 51,
      "start": 50.5818,
      "duration": 0.2221,
      "velocity": 117,
      "chip": "ym2612"
    },
    {
      "channel": 0,
      "note": 61,
      "start": 50.804,
      "duration": 0.1398,
      "velocity": 117,
      "chip": "ym2612"
    },
    {
      "channel": 4,
      "note": 24,
      "start": 50.8048,
      "duration": 0.2451,
      "velocity": 112,
      "chip": "ym2612"
    },
    {
      "channel": 5,
      "note": 31,
      "start": 50.8054,
      "duration": 0.9293,
      "velocity": 112,
      "chip": "ym2612"
    },
    {
      "channel": 0,
      "note": 63,
      "start": 50.944,
      "duration": 0.1051,
      "velocity": 117,
      "chip": "ym2612"
    },
    {
      "channel": 0,
      "note": 51,
      "start": 51.0493,
      "duration": 0.2401,
      "velocity": 117,
      "chip": "ym2612"
    },
    {
      "channel": 4,
      "note": 24,
      "start": 51.05,
      "duration": 0.3456,
      "velocity": 112,
      "chip": "ym2612"
    },
    {
      "channel": 0,
      "note": 54,
      "start": 51.2896,
      "duration": 0.2219,
      "velocity": 117,
      "chip": "ym2612"
    },
    {
      "channel": 4,
      "note": 24,
      "start": 51.3958,
      "duration": 0.3383,
      "velocity": 112,
      "chip": "ym2612"
    },
    {
      "channel": 0,
      "note": 54,
      "start": 51.5116,
      "duration": 0.5022,
      "velocity": 117,
      "chip": "ym2612"
    },
    {
      "channel": 4,
      "note": 24,
      "start": 51.7342,
      "duration": 0.1398,
      "velocity": 112,
      "chip": "ym2612"
    },
    {
      "channel": 5,
      "note": 31,
      "start": 51.7348,
      "duration": 0.2803,
      "velocity": 112,
      "chip": "ym2612"
    },
    {
      "channel": 4,
      "note": 24,
      "start": 51.8742,
      "duration": 0.1403,
      "velocity": 112,
      "chip": "ym2612"
    },
    {
      "channel": 0,
      "note": 56,
      "start": 52.0139,
      "duration": 0.2799,
      "velocity": 117,
      "chip": "ym2612"
    },
    {
      "channel": 4,
      "note": 22,
      "start": 52.0147,
      "duration": 0.1393,
      "velocity": 112,
      "chip": "ym2612"
    },
    {
      "channel": 5,
      "note": 21,
      "start": 52.0153,
      "duration": 0.7435,
      "velocity": 112,
      "chip": "ym2612"
    },
    {
      "channel": 4,
      "note": 31,
      "start": 52.1542,
      "duration": 0.2449,
      "velocity": 112,
      "chip": "ym2612"
    },
    {
      "channel": 0,
      "note": 51,
      "start": 52.294,
      "duration": 0.2397,
      "velocity": 117,
      "chip": "ym2612"
    },
    {
      "channel": 3,
      "note": 20,
      "start": 52.2946,
      "duration": 1.9538,
      "velocity": 127,
      "chip": "ym2612"
    },
    {
      "channel": 4,
      "note": 24,
      "start": 52.3993,
      "duration": 0.3589,
      "velocity": 112,
      "chip": "ym2612"
    },
    {
      "channel": 0,
      "note": 51,
      "start": 52.5339,
      "duration": 0.2236,
      "velocity": 117,
      "chip": "ym2612"
    },
    {
      "channel": 0,
      "note": 61,
      "start": 52.7576,
      "duration": 0.1398,
      "velocity": 117,
      "chip": "ym2612"
    },
    {
      "channel": 4,
      "note": 24,
      "start": 52.7584,
      "duration": 0.2442,
      "velocity": 112,
      "chip": "ym2612"
    },
    {
      "channel": 5,
      "note": 31,
      "start": 52.759,
      "duration": 0.9294,
      "velocity": 112,
      "chip": "ym2612"
    },
    {
      "channel": 0,
      "note": 63,
      "start": 52.8976,
      "duration": 0.1043,
      "velocity": 117,
      "chip": "ym2612"
    },
    {
      "channel": 0,
      "note": 51,
      "start": 53.002,
      "duration": 0.2398,
      "velocity": 117,
      "chip": "ym2612"
    },
    {
      "channel": 4,
      "note": 24,
      "start": 53.0027,
      "duration": 0.3451,
      "velocity": 112,
      "chip": "ym2612"
    },
    {
      "channel": 0,
      "note": 54,
      "start": 53.242,
      "duration": 0.2215,
      "velocity": 117,
      "chip": "ym2612"
    },
    {
      "channel": 4,
      "note": 24,
      "start": 53.348,
      "duration": 0.3398,
      "velocity": 112,
      "chip": "ym2612"
    },
    {
      "channel": 0,
      "note": 54,
      "start": 53.4636,
      "duration": 0.2234,
      "velocity": 117,
      "chip": "ym2612"
    },
    {
      "channel": 0,
      "note": 56,
      "start": 53.6872,
      "duration": 0.2798,
      "velocity": 117,
      "chip": "ym2612"
    },
    {
      "channel": 4,
      "note": 24,
      "start": 53.688,
      "duration": 0.1392,
      "velocity": 112,
      "chip": "ym2612"
    },
    {
      "channel": 5,
      "note": 31,
      "start": 53.6886,
      "duration": 0.2797,
      "velocity": 112,
      "chip": "ym2612"
    },
    {
      "channel": 4,
      "note": 24,
      "start": 53.8274,
      "duration": 0.1403,
      "velocity": 112,
      "chip": "ym2612"
    },
    {
      "channel": 0,
      "note": 56,
      "start": 53.9672,
      "duration": 0.28,
      "velocity": 117,
      "chip": "ym2612"
    },
    {
      "channel": 4,
      "note": 22,
      "start": 53.9679,
      "duration": 0.1394,
      "velocity": 112,
      "chip": "ym2612"
    },
    {
      "channel": 5,
      "note": 21,
      "start": 53.9685,
      "duration": 0.7237,
      "velocity": 112,
      "chip": "ym2612"
    },
    {
      "channel": 4,
      "note": 31,
      "start": 54.1075,
      "duration": 0.246,
      "velocity": 112,
      "chip": "ym2612"
    },
    {
      "channel": 0,
      "note": 51,
      "start": 54.2473,
      "duration": 0.2215,
      "velocity": 117,
      "chip": "ym2612"
    },
    {
      "channel": 1,
      "note": 81,
      "start": 54.2479,
      "duration": 2.8633,
      "velocity": 102,
      "chip": "ym2612"
    },
    {
      "channel": 3,
      "note": 20,
      "start": 54.2486,
      "duration": 1.9337,
      "velocity": 127,
      "chip": "ym2612"
    },
    {
      "channel": 4,
      "note": 24,
      "start": 54.3537,
      "duration": 0.3378,
      "velocity": 112,
      "chip": "ym2612"
    },
    {
      "channel": 0,
      "note": 51,
      "start": 54.4691,
      "duration": 0.2217,
      "velocity": 117,
      "chip": "ym2612"
    },
    {
      "channel": 0,
      "note": 61,
      "start": 54.691,
      "duration": 0.1398,
      "velocity": 117,
      "chip": "ym2612"
    },
    {
      "channel": 4,
      "note": 24,
      "start": 54.6917,
      "duration": 0.2453,
      "velocity": 112,
      "chip": "ym2612"
    },
    {
      "channel": 5,
      "note": 31,
      "start": 54.6924,
      "duration": 0.9295,
      "velocity": 112,
      "chip": "ym2612"
    },
    {
      "channel": 0,
      "note": 63,
      "start": 54.8309,
      "duration": 0.1054,
      "velocity": 117,
      "chip": "ym2612"
    },
    {
      "channel": 0,
      "note": 51,
      "start": 54.9364,
      "duration": 0.2402,
      "velocity": 117,
      "chip": "ym2612"
    },
    {
      "channel": 4,
      "note": 24,
      "start": 54.9372,
      "duration": 0.3456,
      "velocity": 112,
      "chip": "ym2612"
    },
    {
      "channel": 0,
      "note": 54,
      "start": 55.1768,
      "duration": 0.2219,
      "velocity": 117,
      "chip": "ym2612"
    },
    {
      "channel": 4,
      "note": 24,
      "start": 55.283,
      "duration": 0.3383,
      "velocity": 112,
      "chip": "ym2612"
    },
    {
      "channel": 0,
      "note": 54,
      "start": 55.3988,
      "duration": 0.5022,
      "velocity": 117,
      "chip": "ym2612"
    },
    {
      "channel": 4,
      "note": 24,
      "start": 55.6214,
      "duration": 0.1398,
      "velocity": 112,
      "chip": "ym2612"
    },
    {
      "channel": 5,
      "note": 31,
      "start": 55.6221,
      "duration": 0.2802,
      "velocity": 112,
      "chip": "ym2612"
    },
    {
      "channel": 4,
      "note": 24,
      "start": 55.7614,
      "duration": 0.1403,
      "velocity": 112,
      "chip": "ym2612"
    },
    {
      "channel": 0,
      "note": 56,
      "start": 55.9012,
      "duration": 0.2799,
      "velocity": 117,
      "chip": "ym2612"
    },
    {
      "channel": 4,
      "note": 22,
      "start": 55.9019,
      "duration": 0.1393,
      "velocity": 112,
      "chip": "ym2612"
    },
    {
      "channel": 5,
      "note": 21,
      "start": 55.9025,
      "duration": 0.7248,
      "velocity": 112,
      "chip": "ym2612"
    },
    {
      "channel": 4,
      "note": 31,
      "start": 56.0414,
      "duration": 0.246,
      "velocity": 112,
      "chip": "ym2612"
    },
    {
      "channel": 0,
      "note": 51,
      "start": 56.1812,
      "duration": 0.2216,
      "velocity": 117,
      "chip": "ym2612"
    },
    {
      "channel": 2,
      "note": 80,
      "start": 56.1819,
      "duration": 1.373,
      "velocity": 102,
      "chip": "ym2612"
    },
    {
      "channel": 3,
      "note": 20,
      "start": 56.1825,
      "duration": 1.9325,
      "velocity": 127,
      "chip": "ym2612"
    },
    {
      "channel": 4,
      "note": 24,
      "start": 56.2876,
      "duration": 0.3391,
      "velocity": 112,
      "chip": "ym2612"
    },
    {
      "channel": 0,
      "note": 51,
      "start": 56.4029,
      "duration": 0.2231,
      "velocity": 117,
      "chip": "ym2612"
    },
    {
      "channel": 0,
      "note": 61,
      "start": 56.6261,
      "duration": 0.1398,
      "velocity": 117,
      "chip": "ym2612"
    },
    {
      "channel": 4,
      "note": 24,
      "start": 56.6269,
      "duration": 0.2442,
      "velocity": 112,
      "chip": "ym2612"
    },
    {
      "channel": 5,
      "note": 31,
      "start": 56.6275,
      "duration": 0.9287,
      "velocity": 112,
      "chip": "ym2612"
    },
    {
      "channel": 0,
      "note": 63,
      "start": 56.7661,
      "duration": 0.1043,
      "velocity": 117,
      "chip": "ym2612"
    },
    {
      "channel": 0,
      "note": 51,
      "start": 56.8706,
      "duration": 0.24,
      "velocity": 117,
      "chip": "ym2612"
    },
    {
      "channel": 4,
      "note": 24,
      "start": 56.8713,
      "duration": 0.3454,
      "velocity": 112,
      "chip": "ym2612"
    },
    {
      "channel": 0,
      "note": 54,
      "start": 57.1108,
      "duration": 0.2213,
      "velocity": 117,
      "chip": "ym2612"
    },
    {
      "channel": 1,
      "note": 75,
      "start": 57.1113,
      "duration": 4.8899,
      "velocity": 102,
      "chip": "ym2612"
    },
    {
      "channel": 4,
      "note": 24,
      "start": 57.2169,
      "duration": 0.3387,
      "velocity": 112,
      "chip": "ym2612"
    },
    {
      "channel": 0,
      "note": 54,
      "start": 57.3323,
      "duration": 0.2221,
      "velocity": 117,
      "chip": "ym2612"
    },
    {
      "channel": 0,
      "note": 56,
      "start": 57.5545,
      "duration": 0.2798,
      "velocity": 117,
      "chip": "ym2612"
    },
    {
      "channel": 2,
      "note": 85,
      "start": 57.5552,
      "duration": 6.3821,
      "velocity": 102,
      "chip": "ym2612"
    },
    {
      "channel": 4,
      "note": 24,
      "start": 57.5558,
      "duration": 0.1388,
      "velocity": 112,
      "chip": "ym2612"
    },
    {
      "channel": 5,
      "note": 31,
      "start": 57.5564,
      "duration": 0.2792,
      "velocity": 112,
      "chip": "ym2612"
    },
    {
      "channel": 4,
      "note": 24,
      "start": 57.6948,
      "duration": 0.1402,
      "velocity": 112,
      "chip": "ym2612"
    },
    {
      "channel": 0,
      "note": 56,
      "start": 57.8345,
      "duration": 0.2799,
      "velocity": 117,
      "chip": "ym2612"
    },
    {
      "channel": 4,
      "note": 22,
      "start": 57.8352,
      "duration": 0.1393,
      "velocity": 112,
      "chip": "ym2612"
    },
    {
      "channel": 5,
      "note": 21,
      "start": 57.8358,
      "duration": 0.7251,
      "velocity": 112,
      "chip": "ym2612"
    },
    {
      "channel": 4,
      "note": 31,
      "start": 57.9747,
      "duration": 0.246,
      "velocity": 112,
      "chip": "ym2612"
    },
    {
      "channel": 0,
      "note": 51,
      "start": 58.1145,
      "duration": 0.2222,
      "velocity": 117,
      "chip": "ym2612"
    },
    {
      "channel": 3,
      "note": 20,
      "start": 58.1152,
      "duration": 1.935,
      "velocity": 127,
      "chip": "ym2612"
    },
    {
      "channel": 4,
      "note": 24,
      "start": 58.221,
      "duration": 0.3394,
      "velocity": 112,
      "chip": "ym2612"
    },
    {
      "channel": 0,
      "note": 51,
      "start": 58.3368,
      "duration": 0.2228,
      "velocity": 117,
      "chip": "ym2612"
    },
    {
      "channel": 0,
      "note": 61,
      "start": 58.5598,
      "duration": 0.1398,
      "velocity": 117,
      "chip": "ym2612"
    },
    {
      "channel": 4,
      "note": 24,
      "start": 58.5606,
      "duration": 0.2435,
      "velocity": 112,
      "chip": "ym2612"
    },
    {
      "channel": 5,
      "note": 31,
      "start": 58.5612,
      "duration": 0.9292,
      "velocity": 112,
      "chip": "ym2612"
    },
    {
      "channel": 0,
      "note": 63,
      "start": 58.6998,
      "duration": 0.1036,
      "velocity": 117,
      "chip": "ym2612"
    },
    {
      "channel": 0,
      "note": 51,
      "start": 58.8035,
      "duration": 0.24,
      "velocity": 117,
      "chip": "ym2612"
    },
    {
      "channel": 4,
      "note": 24,
      "start": 58.8042,
      "duration": 0.3454,
      "velocity": 112,
      "chip": "ym2612"
    },
    {
      "channel": 0,
      "note": 54,
      "start": 59.0438,
      "duration": 0.2221,
      "velocity": 117,
      "chip": "ym2612"
    },
    {
      "channel": 4,
      "note": 24,
      "start": 59.1498,
      "duration": 0.3399,
      "velocity": 112,
      "chip": "ym2612"
    },
    {
      "channel": 0,
      "note": 54,
      "start": 59.266,
      "duration": 0.5034,
      "velocity": 117,
      "chip": "ym2612"
    },
    {
      "channel": 4,
      "note": 24,
      "start": 59.4899,
      "duration": 0.1398,
      "velocity": 112,
      "chip": "ym2612"
    },
    {
      "channel": 5,
      "note": 31,
      "start": 59.4905,
      "duration": 0.2803,
      "velocity": 112,
      "chip": "ym2612"
    },
    {
      "channel": 4,
      "note": 24,
      "start": 59.6299,
      "duration": 0.1403,
      "velocity": 112,
      "chip": "ym2612"
    },
    {
      "channel": 0,
      "note": 56,
      "start": 59.7696,
      "duration": 0.2799,
      "velocity": 117,
      "chip": "ym2612"
    },
    {
      "channel": 4,
      "note": 22,
      "start": 59.7704,
      "duration": 0.1393,
      "velocity": 112,
      "chip": "ym2612"
    },
    {
      "channel": 5,
      "note": 21,
      "start": 59.771,
      "duration": 0.7429,
      "velocity": 112,
      "chip": "ym2612"
    },
    {
      "channel": 4,
      "note": 31,
      "start": 59.9099,
      "duration": 0.2453,
      "velocity": 112,
      "chip": "ym2612"
    },
    {
      "channel": 0,
      "note": 51,
      "start": 60.0497,
      "duration": 0.2404,
      "velocity": 117,
      "chip": "ym2612"
    },
    {
      "channel": 3,
      "note": 20,
      "start": 60.0503,
      "duration": 1.9515,
      "velocity": 127,
      "chip": "ym2612"
    },
    {
      "channel": 4,
      "note": 24,
      "start": 60.1554,
      "duration": 0.3578,
      "velocity": 112,
      "chip": "ym2612"
    },
    {
      "channel": 0,
      "note": 51,
      "start": 60.2902,
      "duration": 0.2223,
      "velocity": 117,
      "chip": "ym2612"
    },
    {
      "channel": 0,
      "note": 61,
      "start": 60.5127,
      "duration": 0.1398,
      "velocity": 117,
      "chip": "ym2612"
    },
    {
      "channel": 4,
      "note": 24,
      "start": 60.5134,
      "duration": 0.244,
      "velocity": 112,
      "chip": "ym2612"
    },
    {
      "channel": 5,
      "note": 31,
      "start": 60.514,
      "duration": 0.9277,
      "velocity": 112,
      "chip": "ym2612"
    },
    {
      "channel": 0,
      "note": 63,
      "start": 60.6526,
      "duration": 0.1041,
      "velocity": 117,
      "chip": "ym2612"
    },
    {
      "channel": 0,
      "note": 51,
      "start": 60.7568,
      "duration": 0.2395,
      "velocity": 117,
      "chip": "ym2612"
    },
    {
      "channel": 4,
      "note": 24,
      "start": 60.7576,
      "duration": 0.3447,
      "velocity": 112,
      "chip": "ym2612"
    },
    {
      "channel": 0,
      "note": 54,
      "start": 60.9965,
      "duration": 0.2219,
      "velocity": 117,
      "chip": "ym2612"
    },
    {
      "channel": 4,
      "note": 24,
      "start": 61.1025,
      "duration": 0.3387,
      "velocity": 112,
      "chip": "ym2612"
    },
    {
      "channel": 0,
      "note": 54,
      "start": 61.2185,
      "duration": 0.2219,
      "velocity": 117,
      "chip": "ym2612"
    },
    {
      "channel": 0,
      "note": 56,
      "start": 61.4406,
      "duration": 0.2799,
      "velocity": 117,
      "chip": "ym2612"
    },
    {
      "channel": 4,
      "note": 24,
      "start": 61.4413,
      "duration": 0.1393,
      "velocity": 112,
      "chip": "ym2612"
    },
    {
      "channel": 5,
      "note": 31,
      "start": 61.4419,
      "duration": 0.2798,
      "velocity": 112,
      "chip": "ym2612"
    },
    {
      "channel": 4,
      "note": 24,
      "start": 61.5808,
      "duration": 0.1403,
      "velocity": 112,
      "chip": "ym2612"
    },
    {
      "channel": 0,
      "note": 56,
      "start": 61.7206,
      "duration": 0.28,
      "velocity": 117,
      "chip": "ym2612"
    },
    {
      "channel": 4,
      "note": 22,
      "start": 61.7213,
      "duration": 0.1394,
      "velocity": 112,
      "chip": "ym2612"
    },
    {
      "channel": 5,
      "note": 21,
      "start": 61.7219,
      "duration": 0.7262,
      "velocity": 112,
      "chip": "ym2612"
    },
    {
      "channel": 4,
      "note": 31,
      "start": 61.8609,
      "duration": 0.2461,
      "velocity": 112,
      "chip": "ym2612"
    },
    {
      "channel": 0,
      "note": 51,
      "start": 62.0008,
      "duration": 0.2221,
      "velocity": 117,
      "chip": "ym2612"
    },
    {
      "channel": 1,
      "note": 81,
      "start": 62.0014,
      "duration": 2.8656,
      "velocity": 102,
      "chip": "ym2612"
    },
    {
      "channel": 3,
      "note": 20,
      "start": 62.002,
      "duration": 1.9358,
      "velocity": 127,
      "chip": "ym2612"
    },
    {
      "channel": 4,
      "note": 24,
      "start": 62.1072,
      "duration": 0.3403,
      "velocity": 112,
      "chip": "ym2612"
    },
    {
      "channel": 0,
      "note": 51,
      "start": 62.223,
      "duration": 0.2238,
      "velocity": 117,
      "chip": "ym2612"
    },
    {
      "channel": 0,
      "note": 61,
      "start": 62.4469,
      "duration": 0.1398,
      "velocity": 117,
      "chip": "ym2612"
    },
    {
      "channel": 4,
      "note": 24,
      "start": 62.4477,
      "duration": 0.2434,
      "velocity": 112,
      "chip": "ym2612"
    },
    {
      "channel": 5,
      "note": 31,
      "start": 62.4483,
      "duration": 0.9291,
      "velocity": 112,
      "chip": "ym2612"
    },
    {
      "channel": 0,
      "note": 63,
      "start": 62.5869,
      "duration": 0.1036,
      "velocity": 117,
      "chip": "ym2612"
    },
    {
      "channel": 0,
      "note": 51,
      "start": 62.6906,
      "duration": 0.24,
      "velocity": 117,
      "chip": "ym2612"
    },
    {
      "channel": 4,
      "note": 24,
      "start": 62.6913,
      "duration": 0.3454,
      "velocity": 112,
      "chip": "ym2612"
    },
    {
      "channel": 0,
      "note": 54,
      "start": 62.9309,
      "duration": 0.2221,
      "velocity": 117,
      "chip": "ym2612"
    },
    {
      "channel": 4,
      "note": 24,
      "start": 63.0369,
      "duration": 0.3399,
      "velocity": 112,
      "chip": "ym2612"
    },
    {
      "channel": 0,
      "note": 54,
      "start": 63.1531,
      "duration": 0.5035,
      "velocity": 117,
      "chip": "ym2612"
    },
    {
      "channel": 4,
      "note": 24,
      "start": 63.377,
      "duration": 0.1398,
      "velocity": 112,
      "chip": "ym2612"
    },
    {
      "channel": 5,
      "note": 31,
      "start": 63.3776,
      "duration": 0.2802,
      "velocity": 112,
      "chip": "ym2612"
    },
    {
      "channel": 4,
      "note": 24,
      "start": 63.517,
      "duration": 0.1403,
      "velocity": 112,
      "chip": "ym2612"
    },
    {
      "channel": 0,
      "note": 56,
      "start": 63.6567,
      "duration": 0.2799,
      "velocity": 117,
      "chip": "ym2612"
    },
    {
      "channel": 4,
      "note": 22,
      "start": 63.6575,
      "duration": 0.1393,
      "velocity": 112,
      "chip": "ym2612"
    },
    {
      "channel": 5,
      "note": 21,
      "start": 63.6581,
      "duration": 0.724,
      "velocity": 112,
      "chip": "ym2612"
    },
    {
      "channel": 4,
      "note": 31,
      "start": 63.797,
      "duration": 0.246,
      "velocity": 112,
      "chip": "ym2612"
    },
    {
      "channel": 0,
      "note": 51,
      "start": 63.9368,
      "duration": 0.2218,
      "velocity": 117,
      "chip": "ym2612"
    },
    {
      "channel": 2,
      "note": 80,
      "start": 63.9375,
      "duration": 1.3756,
      "velocity": 102,
      "chip": "ym2612"
    },
    {
      "channel": 3,
      "note": 20,
      "start": 63.9381,
      "duration": 1.9351,
      "velocity": 127,
      "chip": "ym2612"
    },
    {
      "channel": 4,
      "note": 24,
      "start": 64.0432,
      "duration": 0.3383,
      "velocity": 112,
      "chip": "ym2612"
    },
    {
      "channel": 0,
      "note": 51,
      "start": 64.1587,
      "duration": 0.2221,
      "velocity": 117,
      "chip": "ym2612"
    },
    {
      "channel": 0,
      "note": 61,
      "start": 64.3809,
      "duration": 0.1398,
      "velocity": 117,
      "chip": "ym2612"
    },
    {
      "channel": 4,
      "note": 24,
      "start": 64.3817,
      "duration": 0.2451,
      "velocity": 112,
      "chip": "ym2612"
    },
    {
      "channel": 5,
      "note": 31,
      "start": 64.3823,
      "duration": 0.9321,
      "velocity": 112,
      "chip": "ym2612"
    },
    {
      "channel": 0,
      "note": 63,
      "start": 64.5209,
      "duration": 0.1051,
      "velocity": 117,
      "chip": "ym2612"
    },
    {
      "channel": 0,
      "note": 51,
      "start": 64.6262,
      "duration": 0.2402,
      "velocity": 117,
      "chip": "ym2612"
    },
    {
      "channel": 4,
      "note": 24,
      "start": 64.6269,
      "duration": 0.346,
      "velocity": 112,
      "chip": "ym2612"
    },
    {
      "channel": 0,
      "note": 54,
      "start": 64.8666,
      "duration": 0.2222,
      "velocity": 117,
      "chip": "ym2612"
    },
    {
      "channel": 1,
      "note": 75,
      "start": 64.8672,
      "duration": 4.8938,
      "velocity": 102,
      "chip": "ym2612"
    },
    {
      "channel": 4,
      "note": 24,
      "start": 64.9731,
      "duration": 0.3407,
      "velocity": 112,
      "chip": "ym2612"
    },
    {
      "channel": 0,
      "note": 54,
      "start": 65.089,
      "duration": 0.2235,
      "velocity": 117,
      "chip": "ym2612"
    },
    {
      "channel": 0,
      "note": 56,
      "start": 65.3127,
      "duration": 0.2798,
      "velocity": 117,
      "chip": "ym2612"
    },
    {
      "channel": 2,
      "note": 78,
      "start": 65.3133,
      "duration": 6.3802,
      "velocity": 102,
      "chip": "ym2612"
    },
    {
      "channel": 4,
      "note": 24,
      "start": 65.3139,
      "duration": 0.1388,
      "velocity": 112,
      "chip": "ym2612"
    },
    {
      "channel": 5,
      "note": 31,
      "start": 65.3145,
      "duration": 0.2793,
      "velocity": 112,
      "chip": "ym2612"
    },
    {
      "channel": 4,
      "note": 24,
      "start": 65.4529,
      "duration": 0.1402,
      "velocity": 112,
      "chip": "ym2612"
    },
    {
      "channel": 0,
      "note": 56,
      "start": 65.5926,
      "duration": 0.2799,
      "velocity": 117,
      "chip": "ym2612"
    },
    {
      "channel": 4,
      "note": 22,
      "start": 65.5934,
      "duration": 0.1393,
      "velocity": 112,
      "chip": "ym2612"
    },
    {
      "channel": 5,
      "note": 21,
      "start": 65.594,
      "duration": 0.7263,
      "velocity": 112,
      "chip": "ym2612"
    },
    {
      "channel": 4,
      "note": 31,
      "start": 65.7329,
      "duration": 0.2461,
      "velocity": 112,
      "chip": "ym2612"
    },
    {
      "channel": 0,
      "note": 51,
      "start": 65.8727,
      "duration": 0.2224,
      "velocity": 117,
      "chip": "ym2612"
    },
    {
      "channel": 3,
      "note": 20,
      "start": 65.8733,
      "duration": 1.9359,
      "velocity": 127,
      "chip": "ym2612"
    },
    {
      "channel": 4,
      "note": 24,
      "start": 65.9792,
      "duration": 0.3406,
      "velocity": 112,
      "chip": "ym2612"
    },
    {
      "channel": 0,
      "note": 51,
      "start": 66.0952,
      "duration": 0.2238,
      "velocity": 117,
      "chip": "ym2612"
    },
    {
      "channel": 0,
      "note": 61,
      "start": 66.3192,
      "duration": 0.1398,
      "velocity": 117,
      "chip": "ym2612"
    },
    {
      "channel": 4,
      "note": 24,
      "start": 66.3199,
      "duration": 0.2451,
      "velocity": 112,
      "chip": "ym2612"
    },
    {
      "channel": 5,
      "note": 31,
      "start": 66.3205,
      "duration": 0.9288,
      "velocity": 112,
      "chip": "ym2612"
    },
    {
      "channel": 0,
      "note": 63,
      "start": 66.4591,
      "duration": 0.1051,
      "velocity": 117,
      "chip": "ym2612"
    },
    {
      "channel": 0,
      "note": 51,
      "start": 66.5644,
      "duration": 0.24,
      "velocity": 117,
      "chip": "ym2612"
    },
    {
      "channel": 4,
      "note": 24,
      "start": 66.5651,
      "duration": 0.3453,
      "velocity": 112,
      "chip": "ym2612"
    },
    {
      "channel": 0,
      "note": 54,
      "start": 66.8046,
      "duration": 0.2216,
      "velocity": 117,
      "chip": "ym2612"
    },
    {
      "channel": 4,
      "note": 24,
      "start": 66.9106,
      "duration": 0.3381,
      "velocity": 112,
      "chip": "ym2612"
    },
    {
      "channel": 0,
      "note": 54,
      "start": 67.0264,
      "duration": 0.5021,
      "velocity": 117,
      "chip": "ym2612"
    },
    {
      "channel": 4,
      "note": 24,
      "start": 67.2489,
      "duration": 0.1398,
      "velocity": 112,
      "chip": "ym2612"
    },
    {
      "channel": 5,
      "note": 31,
      "start": 67.2495,
      "duration": 0.2803,
      "velocity": 112,
      "chip": "ym2612"
    },
    {
      "channel": 4,
      "note": 24,
      "start": 67.3889,
      "duration": 0.1403,
      "velocity": 112,
      "chip": "ym2612"
    },
    {
      "channel": 0,
      "note": 56,
      "start": 67.5286,
      "duration": 0.2799,
      "velocity": 117,
      "chip": "ym2612"
    },
    {
      "channel": 4,
      "note": 22,
      "start": 67.5294,
      "duration": 0.1393,
      "velocity": 112,
      "chip": "ym2612"
    },
    {
      "channel": 5,
      "note": 21,
      "start": 67.53,
      "duration": 0.742,
      "velocity": 112,
      "chip": "ym2612"
    },
    {
      "channel": 4,
      "note": 31,
      "start": 67.6689,
      "duration": 0.2449,
      "velocity": 112,
      "chip": "ym2612"
    },
    {
      "channel": 0,
      "note": 51,
      "start": 67.8087,
      "duration": 0.2399,
      "velocity": 117,
      "chip": "ym2612"
    },
    {
      "channel": 3,
      "note": 20,
      "start": 67.8093,
      "duration": 1.9523,
      "velocity": 127,
      "chip": "ym2612"
    },
    {
      "channel": 4,
      "note": 24,
      "start": 67.914,
      "duration": 0.3574,
      "velocity": 112,
      "chip": "ym2612"
    },
    {
      "channel": 0,
      "note": 51,
      "start": 68.0487,
      "duration": 0.222,
      "velocity": 117,
      "chip": "ym2612"
    },
    {
      "channel": 0,
      "note": 61,
      "start": 68.2708,
      "duration": 0.1398,
      "velocity": 117,
      "chip": "ym2612"
    },
    {
      "channel": 4,
      "note": 24,
      "start": 68.2715,
      "duration": 0.2442,
      "velocity": 112,
      "chip": "ym2612"
    },
    {
      "channel": 5,
      "note": 31,
      "start": 68.2721,
      "duration": 0.9293,
      "velocity": 112,
      "chip": "ym2612"
    },
    {
      "channel": 0,
      "note": 63,
      "start": 68.4107,
      "duration": 0.1043,
      "velocity": 117,
      "chip": "ym2612"
    },
    {
      "channel": 0,
      "note": 51,
      "start": 68.5152,
      "duration": 0.2398,
      "velocity": 117,
      "chip": "ym2612"
    },
    {
      "channel": 4,
      "note": 24,
      "start": 68.5159,
      "duration": 0.3449,
      "velocity": 112,
      "chip": "ym2612"
    },
    {
      "channel": 0,
      "note": 54,
      "start": 68.7552,
      "duration": 0.2214,
      "velocity": 117,
      "chip": "ym2612"
    },
    {
      "channel": 4,
      "note": 24,
      "start": 68.8609,
      "duration": 0.34,
      "velocity": 112,
      "chip": "ym2612"
    },
    {
      "channel": 0,
      "note": 54,
      "start": 68.9767,
      "duration": 0.2235,
      "velocity": 117,
      "chip": "ym2612"
    },
    {
      "channel": 0,
      "note": 56,
      "start": 69.2003,
      "duration": 0.2798,
      "velocity": 117,
      "chip": "ym2612"
    },
    {
      "channel": 4,
      "note": 24,
      "start": 69.2011,
      "duration": 0.1393,
      "velocity": 112,
      "chip": "ym2612"
    },
    {
      "channel": 5,
      "note": 31,
      "start": 69.2017,
      "duration": 0.2798,
      "velocity": 112,
      "chip": "ym2612"
    },
    {
      "channel": 4,
      "note": 24,
      "start": 69.3406,
      "duration": 0.1403,
      "velocity": 112,
      "chip": "ym2612"
    },
    {
      "channel": 0,
      "note": 56,
      "start": 69.4803,
      "duration": 0.28,
      "velocity": 117,
      "chip": "ym2612"
    },
    {
      "channel": 4,
      "note": 22,
      "start": 69.4811,
      "duration": 0.1394,
      "velocity": 112,
      "chip": "ym2612"
    },
    {
      "channel": 5,
      "note": 21,
      "start": 69.4817,
      "duration": 0.7232,
      "velocity": 112,
      "chip": "ym2612"
    },
    {
      "channel": 4,
      "note": 31,
      "start": 69.6207,
      "duration": 0.246,
      "velocity": 112,
      "chip": "ym2612"
    },
    {
      "channel": 0,
      "note": 51,
      "start": 69.7605,
      "duration": 0.2214,
      "velocity": 117,
      "chip": "ym2612"
    },
    {
      "channel": 1,
      "note": 81,
      "start": 69.7611,
      "duration": 2.8611,
      "velocity": 102,
      "chip": "ym2612"
    },
    {
      "channel": 3,
      "note": 20,
      "start": 69.7618,
      "duration": 1.9324,
      "velocity": 127,
      "chip": "ym2612"
    },
    {
      "channel": 4,
      "note": 24,
      "start": 69.8668,
      "duration": 0.3374,
      "velocity": 112,
      "chip": "ym2612"
    },
    {
      "channel": 0,
      "note": 51,
      "start": 69.9821,
      "duration": 0.2214,
      "velocity": 117,
      "chip": "ym2612"
    },
    {
      "channel": 0,
      "note": 61,
      "start": 70.2037,
      "duration": 0.1398,
      "velocity": 117,
      "chip": "ym2612"
    },
    {
      "channel": 4,
      "note": 24,
      "start": 70.2044,
      "duration": 0.2447,
      "velocity": 112,
      "chip": "ym2612"
    },
    {
      "channel": 5,
      "note": 31,
      "start": 70.2051,
      "duration": 0.9287,
      "velocity": 112,
      "chip": "ym2612"
    },
    {
      "channel": 0,
      "note": 63,
      "start": 70.3436,
      "duration": 0.1048,
      "velocity": 117,
      "chip": "ym2612"
    },
    {
      "channel": 0,
      "note": 51,
      "start": 70.4486,
      "duration": 0.2402,
      "velocity": 117,
      "chip": "ym2612"
    },
    {
      "channel": 4,
      "note": 24,
      "start": 70.4493,
      "duration": 0.3455,
      "velocity": 112,
      "chip": "ym2612"
    },
    {
      "channel": 0,
      "note": 54,
      "start": 70.689,
      "duration": 0.2216,
      "velocity": 117,
      "chip": "ym2612"
    },
    {
      "channel": 4,
      "note": 24,
      "start": 70.7949,
      "duration": 0.3381,
      "velocity": 112,
      "chip": "ym2612"
    },
    {
      "channel": 0,
      "note": 54,
      "start": 70.9107,
      "duration": 0.5021,
      "velocity": 117,
      "chip": "ym2612"
    },
    {
      "channel": 4,
      "note": 24,
      "start": 71.1333,
      "duration": 0.1398,
      "velocity": 112,
      "chip": "ym2612"
    },
    {
      "channel": 5,
      "note": 31,
      "start": 71.1339,
      "duration": 0.2802,
      "velocity": 112,
      "chip": "ym2612"
    },
    {
      "channel": 4,
      "note": 24,
      "start": 71.2733,
      "duration": 0.1403,
      "velocity": 112,
      "chip": "ym2612"
    },
    {
      "channel": 0,
      "note": 56,
      "start": 71.413,
      "duration": 0.2799,
      "velocity": 117,
      "chip": "ym2612"
    },
    {
      "channel": 4,
      "note": 22,
      "start": 71.4138,
      "duration": 0.1393,
      "velocity": 112,
      "chip": "ym2612"
    },
    {
      "channel": 5,
      "note": 21,
      "start": 71.4144,
      "duration": 0.7246,
      "velocity": 112,
      "chip": "ym2612"
    },
    {
      "channel": 4,
      "note": 31,
      "start": 71.5533,
      "duration": 0.246,
      "velocity": 112,
      "chip": "ym2612"
    },
    {
      "channel": 0,
      "note": 51,
      "start": 71.6931,
      "duration": 0.2216,
      "velocity": 117,
      "chip": "ym2612"
    },
    {
      "channel": 2,
      "note": 80,
      "start": 71.6938,
      "duration": 1.3727,
      "velocity": 102,
      "chip": "ym2612"
    },
    {
      "channel": 3,
      "note": 20,
      "start": 71.6944,
      "duration": 1.9327,
      "velocity": 127,
      "chip": "ym2612"
    },
    {
      "channel": 4,
      "note": 24,
      "start": 71.7995,
      "duration": 0.3389,
      "velocity": 112,
      "chip": "ym2612"
    },
    {
      "channel": 0,
      "note": 51,
      "start": 71.9148,
      "duration": 0.2229,
      "velocity": 117,
      "chip": "ym2612"
    },
    {
      "channel": 0,
      "note": 61,
      "start": 72.1378,
      "duration": 0.1398,
      "velocity": 117,
      "chip": "ym2612"
    },
    {
      "channel": 4,
      "note": 24,
      "start": 72.1385,
      "duration": 0.2435,
      "velocity": 112,
      "chip": "ym2612"
    },
    {
      "channel": 5,
      "note": 31,
      "start": 72.1391,
      "duration": 0.9286,
      "velocity": 112,
      "chip": "ym2612"
    },
    {
      "channel": 0,
      "note": 63,
      "start": 72.2777,
      "duration": 0.1036,
      "velocity": 117,
      "chip": "ym2612"
    },
    {
      "channel": 0,
      "note": 51,
      "start": 72.3815,
      "duration": 0.2401,
      "velocity": 117,
      "chip": "ym2612"
    },
    {
      "channel": 4,
      "note": 24,
      "start": 72.3822,
      "duration": 0.3458,
      "velocity": 112,
      "chip": "ym2612"
    },
    {
      "channel": 0,
      "note": 54,
      "start": 72.6218,
      "duration": 0.2223,
      "velocity": 117,
      "chip": "ym2612"
    },
    {
      "channel": 1,
      "note": 75,
      "start": 72.6223,
      "duration": 9.2002,
      "velocity": 96,
      "chip": "ym2612"
    },
    {
      "channel": 4,
      "note": 24,
      "start": 72.7281,
      "duration": 0.339,
      "velocity": 112,
      "chip": "ym2612"
    },
    {
      "channel": 0,
      "note": 54,
      "start": 72.8442,
      "duration": 0.2217,
      "velocity": 117,
      "chip": "ym2612"
    },
    {
      "channel": 0,
      "note": 56,
      "start": 73.066,
      "duration": 0.2798,
      "velocity": 117,
      "chip": "ym2612"
    },
    {
      "channel": 2,
      "note": 70,
      "start": 73.0667,
      "duration": 0.5598,
      "velocity": 102,
      "chip": "ym2612"
    },
    {
      "channel": 4,
      "note": 24,
      "start": 73.0673,
      "duration": 0.1388,
      "velocity": 112,
      "chip": "ym2612"
    },
    {
      "channel": 5,
      "note": 31,
      "start": 73.0679,
      "duration": 0.2792,
      "velocity": 112,
      "chip": "ym2612"
    },
    {
      "channel": 4,
      "note": 24,
      "start": 73.2063,
      "duration": 0.1402,
      "velocity": 112,
      "chip": "ym2612"
    },
    {
      "channel": 0,
      "note": 56,
      "start": 73.346,
      "duration": 0.2799,
      "velocity": 117,
      "chip": "ym2612"
    },
    {
      "channel": 4,
      "note": 22,
      "start": 73.3467,
      "duration": 0.1393,
      "velocity": 112,
      "chip": "ym2612"
    },
    {
      "channel": 5,
      "note": 21,
      "start": 73.3473,
      "duration": 0.7248,
      "velocity": 112,
      "chip": "ym2612"
    },
    {
      "channel": 4,
      "note": 31,
      "start": 73.4862,
      "duration": 0.2454,
      "velocity": 112,
      "chip": "ym2612"
    },
    {
      "channel": 0,
      "note": 51,
      "start": 73.626,
      "duration": 0.2213,
      "velocity": 117,
      "chip": "ym2612"
    },
    {
      "channel": 2,
      "note": 69,
      "start": 73.6267,
      "duration": 5.6768,
      "velocity": 1,
      "chip": "ym2612"
    },
    {
      "channel": 3,
      "note": 20,
      "start": 73.6273,
      "duration": 1.933,
      "velocity": 127,
      "chip": "ym2612"
    },
    {
      "channel": 4,
      "note": 24,
      "start": 73.7318,
      "duration": 0.3398,
      "velocity": 112,
      "chip": "ym2612"
    },
    {
      "channel": 0,
      "note": 51,
      "start": 73.8475,
      "duration": 0.2233,
      "velocity": 117,
      "chip": "ym2612"
    },
    {
      "channel": 0,
      "note": 61,
      "start": 74.071,
      "duration": 0.1398,
      "velocity": 117,
      "chip": "ym2612"
    },
    {
      "channel": 4,
      "note": 24,
      "start": 74.0717,
      "duration": 0.2442,
      "velocity": 112,
      "chip": "ym2612"
    },
    {
      "channel": 5,
      "note": 31,
      "start": 74.0723,
      "duration": 0.928,
      "velocity": 112,
      "chip": "ym2612"
    },
    {
      "channel": 0,
      "note": 63,
      "start": 74.2109,
      "duration": 0.1043,
      "velocity": 117,
      "chip": "ym2612"
    },
    {
      "channel": 0,
      "note": 51,
      "start": 74.3154,
      "duration": 0.24,
      "velocity": 117,
      "chip": "ym2612"
    },
    {
      "channel": 4,
      "note": 24,
      "start": 74.3161,
      "duration": 0.3455,
      "velocity": 112,
      "chip": "ym2612"
    },
    {
      "channel": 0,
      "note": 54,
      "start": 74.5556,
      "duration": 0.222,
      "velocity": 117,
      "chip": "ym2612"
    },
    {
      "channel": 4,
      "note": 24,
      "start": 74.6618,
      "duration": 0.3379,
      "velocity": 112,
      "chip": "ym2612"
    },
    {
      "channel": 0,
      "note": 54,
      "start": 74.7779,
      "duration": 0.5017,
      "velocity": 117,
      "chip": "ym2612"
    },
    {
      "channel": 4,
      "note": 24,
      "start": 75.0,
      "duration": 0.1398,
      "velocity": 112,
      "chip": "ym2612"
    },
    {
      "channel": 5,
      "note": 31,
      "start": 75.0005,
      "duration": 0.2803,
      "velocity": 112,
      "chip": "ym2612"
    },
    {
      "channel": 4,
      "note": 24,
      "start": 75.1399,
      "duration": 0.1403,
      "velocity": 112,
      "chip": "ym2612"
    },
    {
      "channel": 0,
      "note": 56,
      "start": 75.2797,
      "duration": 0.2799,
      "velocity": 117,
      "chip": "ym2612"
    },
    {
      "channel": 4,
      "note": 22,
      "start": 75.2804,
      "duration": 0.1393,
      "velocity": 112,
      "chip": "ym2612"
    },
    {
      "channel": 5,
      "note": 21,
      "start": 75.281,
      "duration": 0.7424,
      "velocity": 112,
      "chip": "ym2612"
    },
    {
      "channel": 4,
      "note": 31,
      "start": 75.4199,
      "duration": 0.2451,
      "velocity": 112,
      "chip": "ym2612"
    },
    {
      "channel": 0,
      "note": 51,
      "start": 75.5597,
      "duration": 0.2401,
      "velocity": 117,
      "chip": "ym2612"
    },
    {
      "channel": 3,
      "note": 20,
      "start": 75.5604,
      "duration": 1.9519,
      "velocity": 127,
      "chip": "ym2612"
    },
    {
      "channel": 4,
      "note": 24,
      "start": 75.6652,
      "duration": 0.3577,
      "velocity": 112,
      "chip": "ym2612"
    },
    {
      "channel": 0,
      "note": 51,
      "start": 75.7999,
      "duration": 0.2222,
      "velocity": 117,
      "chip": "ym2612"
    },
    {
      "channel": 0,
      "note": 61,
      "start": 76.0223,
      "duration": 0.1398,
      "velocity": 117,
      "chip": "ym2612"
    },
    {
      "channel": 4,
      "note": 24,
      "start": 76.023,
      "duration": 0.2451,
      "velocity": 112,
      "chip": "ym2612"
    },
    {
      "channel": 5,
      "note": 31,
      "start": 76.0236,
      "duration": 0.929,
      "velocity": 112,
      "chip": "ym2612"
    },
    {
      "channel": 0,
      "note": 63,
      "start": 76.1622,
      "duration": 0.1051,
      "velocity": 117,
      "chip": "ym2612"
    },
    {
      "channel": 0,
      "note": 51,
      "start": 76.2676,
      "duration": 0.24,
      "velocity": 117,
      "chip": "ym2612"
    },
    {
      "channel": 4,
      "note": 24,
      "start": 76.2683,
      "duration": 0.3453,
      "velocity": 112,
      "chip": "ym2612"
    },
    {
      "channel": 0,
      "note": 54,
      "start": 76.5077,
      "duration": 0.2216,
      "velocity": 117,
      "chip": "ym2612"
    },
    {
      "channel": 4,
      "note": 24,
      "start": 76.6137,
      "duration": 0.3383,
      "velocity": 112,
      "chip": "ym2612"
    },
    {
      "channel": 0,
      "note": 54,
      "start": 76.7295,
      "duration": 0.2218,
      "velocity": 117,
      "chip": "ym2612"
    },
    {
      "channel": 0,
      "note": 56,
      "start": 76.9515,
      "duration": 0.2799,
      "velocity": 117,
      "chip": "ym2612"
    },
    {
      "channel": 4,
      "note": 24,
      "start": 76.9522,
      "duration": 0.1393,
      "velocity": 112,
      "chip": "ym2612"
    },
    {
      "channel": 5,
      "note": 31,
      "start": 76.9528,
      "duration": 0.2798,
      "velocity": 112,
      "chip": "ym2612"
    },
    {
      "channel": 4,
      "note": 24,
      "start": 77.0917,
      "duration": 0.1403,
      "velocity": 112,
      "chip": "ym2612"
    },
    {
      "channel": 0,
      "note": 56,
      "start": 77.2315,
      "duration": 0.28,
      "velocity": 117,
      "chip": "ym2612"
    },
    {
      "channel": 4,
      "note": 22,
      "start": 77.2322,
      "duration": 0.1394,
      "velocity": 112,
      "chip": "ym2612"
    },
    {
      "channel": 5,
      "note": 21,
      "start": 77.2328,
      "duration": 0.7225,
      "velocity": 112,
      "chip": "ym2612"
    },
    {
      "channel": 4,
      "note": 31,
      "start": 77.3718,
      "duration": 17.8262,
      "velocity": 112,
      "chip": "ym2612"
    },
    {
      "channel": 0,
      "note": 51,
      "start": 77.5117,
      "duration": 2.0378,
      "velocity": 1,
      "chip": "ym2612"
    },
    {
      "channel": 3,
      "note": 20,
      "start": 77.5125,
      "duration": 1.9316,
      "velocity": 127,
      "chip": "ym2612"
    },
    {
      "channel": 5,
      "note": 31,
      "start": 77.9555,
      "duration": 0.9266,
      "velocity": 112,
      "chip": "ym2612"
    },
    {
      "channel": 5,
      "note": 31,
      "start": 78.8824,
      "duration": 0.2797,
      "velocity": 112,
      "chip": "ym2612"
    },
    {
      "channel": 5,
      "note": 21,
      "start": 79.1622,
      "duration": 0.7243,
      "velocity": 112,
      "chip": "ym2612"
    },
    {
      "channel": 2,
      "note": 31,
      "start": 79.3036,
      "duration": 0.1399,
      "velocity": 117,
      "chip": "ym2612"
    },
    {
      "channel": 2,
      "note": 21,
      "start": 79.4437,
      "duration": 15.7543,
      "velocity": 117,
      "chip": "ym2612"
    },
    {
      "channel": 3,
      "note": 20,
      "start": 79.4443,
      "duration": 1.9341,
      "velocity": 127,
      "chip": "ym2612"
    },
    {
      "channel": 0,
      "note": 43,
      "start": 79.5497,
      "duration": 0.1154,
      "velocity": 117,
      "chip": "ym2612"
    },
    {
      "channel": 0,
      "note": 48,
      "start": 79.6652,
      "duration": 1.7123,
      "velocity": 117,
      "chip": "ym2612"
    },
    {
      "channel": 5,
      "note": 31,
      "start": 79.8867,
      "duration": 0.9294,
      "velocity": 112,
      "chip": "ym2612"
    },
    {
      "channel": 5,
      "note": 31,
      "start": 80.8163,
      "duration": 0.2798,
      "velocity": 112,
      "chip": "ym2612"
    },
    {
      "channel": 5,
      "note": 21,
      "start": 81.0962,
      "duration": 0.7271,
      "velocity": 112,
      "chip": "ym2612"
    },
    {
      "channel": 0,
      "note": 48,
      "start": 81.3778,
      "duration": 0.2196,
      "velocity": 117,
      "chip": "ym2612"
    },
    {
      "channel": 3,
      "note": 20,
      "start": 81.3785,
      "duration": 13.8195,
      "velocity": 127,
      "chip": "ym2612"
    },
    {
      "channel": 0,
      "note": 48,
      "start": 81.5975,
      "duration": 0.2229,
      "velocity": 117,
      "chip": "ym2612"
    },
    {
      "channel": 0,
      "note": 58,
      "start": 81.8206,
      "duration": 0.1398,
      "velocity": 117,
      "chip": "ym2612"
    },
    {
      "channel": 1,
      "note": 84,
      "start": 81.8227,
      "duration": 13.3753,
      "velocity": 96,
      "chip": "ym2612"
    },
    {
      "channel": 5,
      "note": 31,
      "start": 81.8235,
      "duration": 13.3744,
      "velocity": 112,
      "chip": "ym2612"
    },
    {
      "channel": 0,
      "note": 60,
      "start": 81.9605,
      "duration": 0.1059,
      "velocity": 117,
      "chip": "ym2612"
    },
    {
      "channel": 0,
      "note": 48,
      "start": 82.0665,
      "duration": 0.2397,
      "velocity": 117,
      "chip": "ym2612"
    }
  ]
}