{
  "track_name": "06 - Breve of PuyoPuyo",
  "duration_sec": 48.488,
  "sample_rate": 44100,
  "note_count": 1172,
  "unique_pitches": 26,
  "pitch_range": 44,
  "avg_note_duration": 0.2329,
  "reconstruction_stats": {
    "notes_reconstructed": 1172,
    "keyon_events": 1172,
    "keyoff_events": 1167,
    "orphan_keyons": 5,
    "unique_pitches": 26,
    "pitch_range": 44,
    "avg_duration_sec": 0.2329
  },
  "metadata": {
    "source": "P\\Puyo Puyo\\06 - Breve of PuyoPuyo.vgz"
  },
  "notes": [
    {
      "channel": 3,
      "note": 69,
      "start": 0.022,
      "duration": 2.3993,
      "velocity": 107,
      "chip": "ym2612"
    },
    {
      "channel": 2,
      "note": 47,
      "start": 0.0227,
      "duration": 0.1493,
      "velocity": 127,
      "chip": "ym2612"
    },
    {
      "channel": 1,
      "note": 57,
      "start": 0.0234,
      "duration": 0.2985,
      "velocity": 104,
      "chip": "ym2612"
    },
    {
      "channel": 0,
      "note": 69,
      "start": 0.0242,
      "duration": 0.1483,
      "velocity": 107,
      "chip": "ym2612"
    },
    {
      "channel": 5,
      "note": 69,
      "start": 0.0716,
      "duration": 2.3996,
      "velocity": 107,
      "chip": "ym2612"
    },
    {
      "channel": 2,
      "note": 68,
      "start": 0.172,
      "duration": 0.1496,
      "velocity": 127,
      "chip": "ym2612"
    },
    {
      "channel": 0,
      "note": 72,
      "start": 0.1725,
      "duration": 0.1503,
      "velocity": 107,
      "chip": "ym2612"
    },
    {
      "channel": 2,
      "note": 68,
      "start": 0.3216,
      "duration": 0.15,
      "velocity": 127,
      "chip": "ym2612"
    },
    {
      "channel": 1,
      "note": 57,
      "start": 0.3218,
      "duration": 0.15,
      "velocity": 104,
      "chip": "ym2612"
    },
    {
      "channel": 4,
      "note": 69,
      "start": 0.3225,
      "duration": 0.1496,
      "velocity": 107,
      "chip": "ym2612"
    },
    {
      "channel": 0,
      "note": 76,
      "start": 0.3228,
      "duration": 0.1496,
      "velocity": 107,
      "chip": "ym2612"
    },
    {
      "channel": 2,
      "note": 68,
      "start": 0.4716,
      "duration": 0.1504,
      "velocity": 125,
      "chip": "ym2612"
    },
    {
      "channel": 1,
      "note": 57,
      "start": 0.4718,
      "duration": 0.1509,
      "velocity": 104,
      "chip": "ym2612"
    },
    {
      "channel": 4,
      "note": 72,
      "start": 0.4721,
      "duration": 0.1503,
      "velocity": 107,
      "chip": "ym2612"
    },
    {
      "channel": 0,
      "note": 74,
      "start": 0.4724,
      "duration": 0.1503,
      "velocity": 107,
      "chip": "ym2612"
    },
    {
      "channel": 2,
      "note": 57,
      "start": 0.622,
      "duration": 0.3,
      "velocity": 122,
      "chip": "ym2612"
    },
    {
      "channel": 4,
      "note": 76,
      "start": 0.6224,
      "duration": 0.1496,
      "velocity": 107,
      "chip": "ym2612"
    },
    {
      "channel": 1,
      "note": 57,
      "start": 0.7717,
      "duration": 0.1505,
      "velocity": 104,
      "chip": "ym2612"
    },
    {
      "channel": 4,
      "note": 74,
      "start": 0.772,
      "duration": 0.1507,
      "velocity": 107,
      "chip": "ym2612"
    },
    {
      "channel": 0,
      "note": 76,
      "start": 0.7723,
      "duration": 0.3,
      "velocity": 107,
      "chip": "ym2612"
    },
    {
      "channel": 2,
      "note": 47,
      "start": 0.922,
      "duration": 0.1496,
      "velocity": 122,
      "chip": "ym2612"
    },
    {
      "channel": 1,
      "note": 57,
      "start": 0.9222,
      "duration": 0.3,
      "velocity": 104,
      "chip": "ym2612"
    },
    {
      "channel": 2,
      "note": 47,
      "start": 1.0716,
      "duration": 0.1504,
      "velocity": 127,
      "chip": "ym2612"
    },
    {
      "channel": 4,
      "note": 76,
      "start": 1.072,
      "duration": 0.3,
      "velocity": 107,
      "chip": "ym2612"
    },
    {
      "channel": 0,
      "note": 72,
      "start": 1.0723,
      "duration": 0.3,
      "velocity": 107,
      "chip": "ym2612"
    },
    {
      "channel": 2,
      "note": 68,
      "start": 1.222,
      "duration": 0.1496,
      "velocity": 127,
      "chip": "ym2612"
    },
    {
      "channel": 1,
      "note": 57,
      "start": 1.2222,
      "duration": 0.2996,
      "velocity": 104,
      "chip": "ym2612"
    },
    {
      "channel": 2,
      "note": 68,
      "start": 1.3716,
      "duration": 0.15,
      "velocity": 127,
      "chip": "ym2612"
    },
    {
      "channel": 4,
      "note": 72,
      "start": 1.372,
      "duration": 0.3001,
      "velocity": 107,
      "chip": "ym2612"
    },
    {
      "channel": 0,
      "note": 74,
      "start": 1.3723,
      "duration": 0.3001,
      "velocity": 107,
      "chip": "ym2612"
    },
    {
      "channel": 2,
      "note": 68,
      "start": 1.5216,
      "duration": 0.15,
      "velocity": 127,
      "chip": "ym2612"
    },
    {
      "channel": 1,
      "note": 57,
      "start": 1.5218,
      "duration": 0.15,
      "velocity": 104,
      "chip": "ym2612"
    },
    {
      "channel": 2,
      "note": 68,
      "start": 1.6716,
      "duration": 0.1504,
      "velocity": 125,
      "chip": "ym2612"
    },
    {
      "channel": 1,
      "note": 57,
      "start": 1.6718,
      "duration": 0.1509,
      "velocity": 104,
      "chip": "ym2612"
    },
    {
      "channel": 4,
      "note": 74,
      "start": 1.6721,
      "duration": 0.2999,
      "velocity": 107,
      "chip": "ym2612"
    },
    {
      "channel": 0,
      "note": 71,
      "start": 1.6724,
      "duration": 0.1502,
      "velocity": 107,
      "chip": "ym2612"
    },
    {
      "channel": 2,
      "note": 57,
      "start": 1.822,
      "duration": 0.3,
      "velocity": 122,
      "chip": "ym2612"
    },
    {
      "channel": 0,
      "note": 72,
      "start": 1.8226,
      "duration": 0.3002,
      "velocity": 107,
      "chip": "ym2612"
    },
    {
      "channel": 1,
      "note": 57,
      "start": 1.9717,
      "duration": 0.1505,
      "velocity": 104,
      "chip": "ym2612"
    },
    {
      "channel": 4,
      "note": 71,
      "start": 1.972,
      "duration": 0.1505,
      "velocity": 107,
      "chip": "ym2612"
    },
    {
      "channel": 2,
      "note": 47,
      "start": 2.122,
      "duration": 0.1496,
      "velocity": 122,
      "chip": "ym2612"
    },
    {
      "channel": 1,
      "note": 57,
      "start": 2.1222,
      "duration": 0.2997,
      "velocity": 104,
      "chip": "ym2612"
    },
    {
      "channel": 4,
      "note": 72,
      "start": 2.1225,
      "duration": 0.2997,
      "velocity": 107,
      "chip": "ym2612"
    },
    {
      "channel": 0,
      "note": 69,
      "start": 2.1228,
      "duration": 0.2997,
      "velocity": 107,
      "chip": "ym2612"
    },
    {
      "channel": 2,
      "note": 47,
      "start": 2.2716,
      "duration": 0.1501,
      "velocity": 122,
      "chip": "ym2612"
    },
    {
      "channel": 3,
      "note": 71,
      "start": 2.4214,
      "duration": 2.4166,
      "velocity": 107,
      "chip": "ym2612"
    },
    {
      "channel": 2,
      "note": 47,
      "start": 2.4217,
      "duration": 0.1503,
      "velocity": 127,
      "chip": "ym2612"
    },
    {
      "channel": 1,
      "note": 55,
      "start": 2.422,
      "duration": 0.2999,
      "velocity": 104,
      "chip": "ym2612"
    },
    {
      "channel": 4,
      "note": 69,
      "start": 2.4222,
      "duration": 0.2999,
      "velocity": 107,
      "chip": "ym2612"
    },
    {
      "channel": 0,
      "note": 69,
      "start": 2.4225,
      "duration": 0.1501,
      "velocity": 107,
      "chip": "ym2612"
    },
    {
      "channel": 5,
      "note": 71,
      "start": 2.4712,
      "duration": 2.4167,
      "velocity": 107,
      "chip": "ym2612"
    },
    {
      "channel": 2,
      "note": 68,
      "start": 2.572,
      "duration": 0.1496,
      "velocity": 127,
      "chip": "ym2612"
    },
    {
      "channel": 0,
      "note": 72,
      "start": 2.5726,
      "duration": 0.1498,
      "velocity": 107,
      "chip": "ym2612"
    },
    {
      "channel": 2,
      "note": 68,
      "start": 2.7216,
      "duration": 0.15,
      "velocity": 127,
      "chip": "ym2612"
    },
    {
      "channel": 1,
      "note": 55,
      "start": 2.7218,
      "duration": 0.15,
      "velocity": 104,
      "chip": "ym2612"
    },
    {
      "channel": 4,
      "note": 69,
      "start": 2.7222,
      "duration": 0.15,
      "velocity": 107,
      "chip": "ym2612"
    },
    {
      "channel": 0,
      "note": 76,
      "start": 2.7224,
      "duration": 0.15,
      "velocity": 107,
      "chip": "ym2612"
    },
    {
      "channel": 2,
      "note": 68,
      "start": 2.8716,
      "duration": 0.1504,
      "velocity": 125,
      "chip": "ym2612"
    },
    {
      "channel": 1,
      "note": 55,
      "start": 2.8718,
      "duration": 0.1509,
      "velocity": 104,
      "chip": "ym2612"
    },
    {
      "channel": 4,
      "note": 72,
      "start": 2.8721,
      "duration": 0.1503,
      "velocity": 107,
      "chip": "ym2612"
    },
    {
      "channel": 0,
      "note": 74,
      "start": 2.8724,
      "duration": 0.1503,
      "velocity": 107,
      "chip": "ym2612"
    },
    {
      "channel": 2,
      "note": 57,
      "start": 3.022,
      "duration": 0.3,
      "velocity": 122,
      "chip": "ym2612"
    },
    {
      "channel": 4,
      "note": 76,
      "start": 3.0224,
      "duration": 0.1496,
      "velocity": 107,
      "chip": "ym2612"
    },
    {
      "channel": 1,
      "note": 55,
      "start": 3.1717,
      "duration": 0.1505,
      "velocity": 104,
      "chip": "ym2612"
    },
    {
      "channel": 4,
      "note": 74,
      "start": 3.172,
      "duration": 0.1507,
      "velocity": 107,
      "chip": "ym2612"
    },
    {
      "channel": 0,
      "note": 76,
      "start": 3.1723,
      "duration": 0.3,
      "velocity": 107,
      "chip": "ym2612"
    },
    {
      "channel": 2,
      "note": 47,
      "start": 3.322,
      "duration": 0.1496,
      "velocity": 122,
      "chip": "ym2612"
    },
    {
      "channel": 1,
      "note": 55,
      "start": 3.3222,
      "duration": 0.3,
      "velocity": 104,
      "chip": "ym2612"
    },
    {
      "channel": 2,
      "note": 47,
      "start": 3.4716,
      "duration": 0.1504,
      "velocity": 127,
      "chip": "ym2612"
    },
    {
      "channel": 4,
      "note": 76,
      "start": 3.472,
      "duration": 0.3,
      "velocity": 107,
      "chip": "ym2612"
    },
    {
      "channel": 0,
      "note": 72,
      "start": 3.4723,
      "duration": 0.3,
      "velocity": 107,
      "chip": "ym2612"
    },
    {
      "channel": 2,
      "note": 68,
      "start": 3.622,
      "duration": 0.1496,
      "velocity": 127,
      "chip": "ym2612"
    },
    {
      "channel": 1,
      "note": 55,
      "start": 3.6222,
      "duration": 0.2996,
      "velocity": 104,
      "chip": "ym2612"
    },
    {
      "channel": 2,
      "note": 68,
      "start": 3.7716,
      "duration": 0.15,
      "velocity": 127,
      "chip": "ym2612"
    },
    {
      "channel": 4,
      "note": 72,
      "start": 3.772,
      "duration": 0.3001,
      "velocity": 107,
      "chip": "ym2612"
    },
    {
      "channel": 0,
      "note": 74,
      "start": 3.7723,
      "duration": 0.3001,
      "velocity": 107,
      "chip": "ym2612"
    },
    {
      "channel": 2,
      "note": 68,
      "start": 3.9216,
      "duration": 0.15,
      "velocity": 127,
      "chip": "ym2612"
    },
    {
      "channel": 1,
      "note": 55,
      "start": 3.9218,
      "duration": 0.15,
      "velocity": 104,
      "chip": "ym2612"
    },
    {
      "channel": 2,
      "note": 68,
      "start": 4.0716,
      "duration": 0.1504,
      "velocity": 125,
      "chip": "ym2612"
    },
    {
      "channel": 1,
      "note": 55,
      "start": 4.0718,
      "duration": 0.1509,
      "velocity": 104,
      "chip": "ym2612"
    },
    {
      "channel": 4,
      "note": 74,
      "start": 4.0721,
      "duration": 0.3166,
      "velocity": 107,
      "chip": "ym2612"
    },
    {
      "channel": 0,
      "note": 71,
      "start": 4.0724,
      "duration": 0.1502,
      "velocity": 107,
      "chip": "ym2612"
    },
    {
      "channel": 2,
      "note": 57,
      "start": 4.222,
      "duration": 0.3166,
      "velocity": 122,
      "chip": "ym2612"
    },
    {
      "channel": 0,
      "note": 72,
      "start": 4.2226,
      "duration": 0.3169,
      "velocity": 107,
      "chip": "ym2612"
    },
    {
      "channel": 1,
      "note": 55,
      "start": 4.3884,
      "duration": 0.1505,
      "velocity": 104,
      "chip": "ym2612"
    },
    {
      "channel": 4,
      "note": 71,
      "start": 4.3887,
      "duration": 0.1505,
      "velocity": 107,
      "chip": "ym2612"
    },
    {
      "channel": 2,
      "note": 47,
      "start": 4.5386,
      "duration": 0.1496,
      "velocity": 122,
      "chip": "ym2612"
    },
    {
      "channel": 1,
      "note": 55,
      "start": 4.5389,
      "duration": 0.2997,
      "velocity": 104,
      "chip": "ym2612"
    },
    {
      "channel": 4,
      "note": 72,
      "start": 4.5392,
      "duration": 0.2997,
      "velocity": 107,
      "chip": "ym2612"
    },
    {
      "channel": 0,
      "note": 69,
      "start": 4.5395,
      "duration": 0.2997,
      "velocity": 107,
      "chip": "ym2612"
    },
    {
      "channel": 2,
      "note": 47,
      "start": 4.6882,
      "duration": 0.1501,
      "velocity": 122,
      "chip": "ym2612"
    },
    {
      "channel": 3,
      "note": 72,
      "start": 4.838,
      "duration": 2.4,
      "velocity": 107,
      "chip": "ym2612"
    },
    {
      "channel": 2,
      "note": 47,
      "start": 4.8383,
      "duration": 0.1503,
      "velocity": 127,
      "chip": "ym2612"
    },
    {
      "channel": 1,
      "note": 53,
      "start": 4.8386,
      "duration": 0.2999,
      "velocity": 104,
      "chip": "ym2612"
    },
    {
      "channel": 4,
      "note": 69,
      "start": 4.8389,
      "duration": 0.2999,
      "velocity": 107,
      "chip": "ym2612"
    },
    {
      "channel": 0,
      "note": 69,
      "start": 4.8392,
      "duration": 0.1501,
      "velocity": 107,
      "chip": "ym2612"
    },
    {
      "channel": 5,
      "note": 72,
      "start": 4.8878,
      "duration": 2.4,
      "velocity": 107,
      "chip": "ym2612"
    },
    {
      "channel": 2,
      "note": 68,
      "start": 4.9886,
      "duration": 0.1496,
      "velocity": 127,
      "chip": "ym2612"
    },
    {
      "channel": 0,
      "note": 72,
      "start": 4.9893,
      "duration": 0.1498,
      "velocity": 107,
      "chip": "ym2612"
    },
    {
      "channel": 2,
      "note": 68,
      "start": 5.1382,
      "duration": 0.15,
      "velocity": 127,
      "chip": "ym2612"
    },
    {
      "channel": 1,
      "note": 53,
      "start": 5.1385,
      "duration": 0.15,
      "velocity": 104,
      "chip": "ym2612"
    },
    {
      "channel": 4,
      "note": 69,
      "start": 5.1388,
      "duration": 0.15,
      "velocity": 107,
      "chip": "ym2612"
    },
    {
      "channel": 0,
      "note": 76,
      "start": 5.1391,
      "duration": 0.15,
      "velocity": 107,
      "chip": "ym2612"
    },
    {
      "channel": 2,
      "note": 68,
      "start": 5.2882,
      "duration": 0.1504,
      "velocity": 125,
      "chip": "ym2612"
    },
    {
      "channel": 1,
      "note": 53,
      "start": 5.2885,
      "duration": 0.1509,
      "velocity": 104,
      "chip": "ym2612"
    },
    {
      "channel": 4,
      "note": 72,
      "start": 5.2888,
      "duration": 0.1503,
      "velocity": 107,
      "chip": "ym2612"
    },
    {
      "channel": 0,
      "note": 74,
      "start": 5.2891,
      "duration": 0.1503,
      "velocity": 107,
      "chip": "ym2612"
    },
    {
      "channel": 2,
      "note": 57,
      "start": 5.4387,
      "duration": 0.3,
      "velocity": 122,
      "chip": "ym2612"
    },
    {
      "channel": 4,
      "note": 76,
      "start": 5.4391,
      "duration": 0.1496,
      "velocity": 107,
      "chip": "ym2612"
    },
    {
      "channel": 1,
      "note": 53,
      "start": 5.5884,
      "duration": 0.1505,
      "velocity": 104,
      "chip": "ym2612"
    },
    {
      "channel": 4,
      "note": 74,
      "start": 5.5887,
      "duration": 0.1507,
      "velocity": 107,
      "chip": "ym2612"
    },
    {
      "channel": 0,
      "note": 76,
      "start": 5.589,
      "duration": 0.3,
      "velocity": 107,
      "chip": "ym2612"
    },
    {
      "channel": 2,
      "note": 47,
      "start": 5.7386,
      "duration": 0.1496,
      "velocity": 122,
      "chip": "ym2612"
    },
    {
      "channel": 1,
      "note": 53,
      "start": 5.7389,
      "duration": 0.3,
      "velocity": 104,
      "chip": "ym2612"
    },
    {
      "channel": 2,
      "note": 47,
      "start": 5.8882,
      "duration": 0.1504,
      "velocity": 127,
      "chip": "ym2612"
    },
    {
      "channel": 4,
      "note": 76,
      "start": 5.8887,
      "duration": 0.3,
      "velocity": 107,
      "chip": "ym2612"
    },
    {
      "channel": 0,
      "note": 72,
      "start": 5.889,
      "duration": 0.3,
      "velocity": 107,
      "chip": "ym2612"
    },
    {
      "channel": 2,
      "note": 68,
      "start": 6.0386,
      "duration": 0.1496,
      "velocity": 127,
      "chip": "ym2612"
    },
    {
      "channel": 1,
      "note": 53,
      "start": 6.0389,
      "duration": 0.2996,
      "velocity": 104,
      "chip": "ym2612"
    },
    {
      "channel": 2,
      "note": 68,
      "start": 6.1882,
      "duration": 0.15,
      "velocity": 127,
      "chip": "ym2612"
    },
    {
      "channel": 4,
      "note": 72,
      "start": 6.1887,
      "duration": 0.3001,
      "velocity": 107,
      "chip": "ym2612"
    },
    {
      "channel": 0,
      "note": 74,
      "start": 6.189,
      "duration": 0.3001,
      "velocity": 107,
      "chip": "ym2612"
    },
    {
      "channel": 2,
      "note": 68,
      "start": 6.3382,
      "duration": 0.15,
      "velocity": 127,
      "chip": "ym2612"
    },
    {
      "channel": 1,
      "note": 53,
      "start": 6.3385,
      "duration": 0.15,
      "velocity": 104,
      "chip": "ym2612"
    },
    {
      "channel": 2,
      "note": 68,
      "start": 6.4882,
      "duration": 0.1504,
      "velocity": 125,
      "chip": "ym2612"
    },
    {
      "channel": 1,
      "note": 53,
      "start": 6.4885,
      "duration": 0.1509,
      "velocity": 104,
      "chip": "ym2612"
    },
    {
      "channel": 4,
      "note": 74,
      "start": 6.4888,
      "duration": 0.2999,
      "velocity": 107,
      "chip": "ym2612"
    },
    {
      "channel": 0,
      "note": 71,
      "start": 6.4891,
      "duration": 0.1502,
      "velocity": 107,
      "chip": "ym2612"
    },
    {
      "channel": 2,
      "note": 57,
      "start": 6.6387,
      "duration": 0.3,
      "velocity": 122,
      "chip": "ym2612"
    },
    {
      "channel": 0,
      "note": 72,
      "start": 6.6393,
      "duration": 0.3002,
      "velocity": 107,
      "chip": "ym2612"
    },
    {
      "channel": 1,
      "note": 53,
      "start": 6.7884,
      "duration": 0.1505,
      "velocity": 104,
      "chip": "ym2612"
    },
    {
      "channel": 4,
      "note": 71,
      "start": 6.7887,
      "duration": 0.1505,
      "velocity": 107,
      "chip": "ym2612"
    },
    {
      "channel": 2,
      "note": 47,
      "start": 6.9386,
      "duration": 0.1496,
      "velocity": 122,
      "chip": "ym2612"
    },
    {
      "channel": 1,
      "note": 53,
      "start": 6.9389,
      "duration": 0.2997,
      "velocity": 104,
      "chip": "ym2612"
    },
    {
      "channel": 4,
      "note": 72,
      "start": 6.9392,
      "duration": 0.2997,
      "velocity": 107,
      "chip": "ym2612"
    },
    {
      "channel": 0,
      "note": 69,
      "start": 6.9395,
      "duration": 0.2997,
      "velocity": 107,
      "chip": "ym2612"
    },
    {
      "channel": 2,
      "note": 47,
      "start": 7.0882,
      "duration": 0.1501,
      "velocity": 122,
      "chip": "ym2612"
    },
    {
      "channel": 3,
      "note": 74,
      "start": 7.238,
      "duration": 1.2,
      "velocity": 107,
      "chip": "ym2612"
    },
    {
      "channel": 2,
      "note": 47,
      "start": 7.2383,
      "duration": 0.1503,
      "velocity": 127,
      "chip": "ym2612"
    },
    {
      "channel": 1,
      "note": 52,
      "start": 7.2386,
      "duration": 0.2999,
      "velocity": 104,
      "chip": "ym2612"
    },
    {
      "channel": 4,
      "note": 69,
      "start": 7.2389,
      "duration": 0.2999,
      "velocity": 107,
      "chip": "ym2612"
    },
    {
      "channel": 0,
      "note": 69,
      "start": 7.2392,
      "duration": 0.1501,
      "velocity": 107,
      "chip": "ym2612"
    },
    {
      "channel": 5,
      "note": 74,
      "start": 7.2878,
      "duration": 1.2,
      "velocity": 107,
      "chip": "ym2612"
    },
    {
      "channel": 2,
      "note": 68,
      "start": 7.3886,
      "duration": 0.1496,
      "velocity": 127,
      "chip": "ym2612"
    },
    {
      "channel": 0,
      "note": 72,
      "start": 7.3893,
      "duration": 0.1498,
      "velocity": 107,
      "chip": "ym2612"
    },
    {
      "channel": 2,
      "note": 68,
      "start": 7.5382,
      "duration": 0.15,
      "velocity": 127,
      "chip": "ym2612"
    },
    {
      "channel": 1,
      "note": 52,
      "start": 7.5385,
      "duration": 0.15,
      "velocity": 104,
      "chip": "ym2612"
    },
    {
      "channel": 4,
      "note": 69,
      "start": 7.5388,
      "duration": 0.15,
      "velocity": 107,
      "chip": "ym2612"
    },
    {
      "channel": 0,
      "note": 76,
      "start": 7.5391,
      "duration": 0.15,
      "velocity": 107,
      "chip": "ym2612"
    },
    {
      "channel": 2,
      "note": 68,
      "start": 7.6882,
      "duration": 0.1504,
      "velocity": 125,
      "chip": "ym2612"
    },
    {
      "channel": 1,
      "note": 52,
      "start": 7.6885,
      "duration": 0.1509,
      "velocity": 104,
      "chip": "ym2612"
    },
    {
      "channel": 4,
      "note": 72,
      "start": 7.6888,
      "duration": 0.1503,
      "velocity": 107,
      "chip": "ym2612"
    },
    {
      "channel": 0,
      "note": 74,
      "start": 7.6891,
      "duration": 0.1503,
      "velocity": 107,
      "chip": "ym2612"
    },
    {
      "channel": 2,
      "note": 57,
      "start": 7.8387,
      "duration": 0.3,
      "velocity": 122,
      "chip": "ym2612"
    },
    {
      "channel": 4,
      "note": 76,
      "start": 7.8391,
      "duration": 0.1496,
      "velocity": 107,
      "chip": "ym2612"
    },
    {
      "channel": 1,
      "note": 52,
      "start": 7.9884,
      "duration": 0.1505,
      "velocity": 104,
      "chip": "ym2612"
    },
    {
      "channel": 4,
      "note": 74,
      "start": 7.9887,
      "duration": 0.1507,
      "velocity": 107,
      "chip": "ym2612"
    },
    {
      "channel": 0,
      "note": 76,
      "start": 7.989,
      "duration": 0.3,
      "velocity": 107,
      "chip": "ym2612"
    },
    {
      "channel": 2,
      "note": 47,
      "start": 8.1386,
      "duration": 0.1496,
      "velocity": 122,
      "chip": "ym2612"
    },
    {
      "channel": 1,
      "note": 52,
      "start": 8.1389,
      "duration": 0.3001,
      "velocity": 104,
      "chip": "ym2612"
    },
    {
      "channel": 2,
      "note": 47,
      "start": 8.2882,
      "duration": 0.1505,
      "velocity": 127,
      "chip": "ym2612"
    },
    {
      "channel": 4,
      "note": 76,
      "start": 8.2887,
      "duration": 0.3166,
      "velocity": 107,
      "chip": "ym2612"
    },
    {
      "channel": 0,
      "note": 72,
      "start": 8.289,
      "duration": 0.1505,
      "velocity": 107,
      "chip": "ym2612"
    },
    {
      "channel": 3,
      "note": 76,
      "start": 8.438,
      "duration": 1.2171,
      "velocity": 51,
      "chip": "ym2612"
    },
    {
      "channel": 2,
      "note": 68,
      "start": 8.4387,
      "duration": 0.1662,
      "velocity": 127,
      "chip": "ym2612"
    },
    {
      "channel": 1,
      "note": 52,
      "start": 8.439,
      "duration": 0.3162,
      "velocity": 104,
      "chip": "ym2612"
    },
    {
      "channel": 0,
      "note": 72,
      "start": 8.4395,
      "duration": 0.6165,
      "velocity": 107,
      "chip": "ym2612"
    },
    {
      "channel": 5,
      "note": 76,
      "start": 8.4878,
      "duration": 1.2171,
      "velocity": 51,
      "chip": "ym2612"
    },
    {
      "channel": 2,
      "note": 68,
      "start": 8.6049,
      "duration": 0.15,
      "velocity": 127,
      "chip": "ym2612"
    },
    {
      "channel": 4,
      "note": 72,
      "start": 8.6054,
      "duration": 0.1501,
      "velocity": 107,
      "chip": "ym2612"
    },
    {
      "channel": 2,
      "note": 68,
      "start": 8.7549,
      "duration": 0.15,
      "velocity": 127,
      "chip": "ym2612"
    },
    {
      "channel": 1,
      "note": 52,
      "start": 8.7552,
      "duration": 0.15,
      "velocity": 104,
      "chip": "ym2612"
    },
    {
      "channel": 4,
      "note": 72,
      "start": 8.7554,
      "duration": 0.6004,
      "velocity": 107,
      "chip": "ym2612"
    },
    {
      "channel": 2,
      "note": 68,
      "start": 8.9049,
      "duration": 0.1504,
      "velocity": 125,
      "chip": "ym2612"
    },
    {
      "channel": 1,
      "note": 52,
      "start": 8.9052,
      "duration": 0.1509,
      "velocity": 104,
      "chip": "ym2612"
    },
    {
      "channel": 2,
      "note": 57,
      "start": 9.0554,
      "duration": 0.3,
      "velocity": 122,
      "chip": "ym2612"
    },
    {
      "channel": 0,
      "note": 71,
      "start": 9.0559,
      "duration": 0.6007,
      "velocity": 94,
      "chip": "ym2612"
    },
    {
      "channel": 1,
      "note": 52,
      "start": 9.2051,
      "duration": 0.1505,
      "velocity": 104,
      "chip": "ym2612"
    },
    {
      "channel": 2,
      "note": 47,
      "start": 9.3553,
      "duration": 0.1496,
      "velocity": 122,
      "chip": "ym2612"
    },
    {
      "channel": 1,
      "note": 52,
      "start": 9.3556,
      "duration": 0.3001,
      "velocity": 104,
      "chip": "ym2612"
    },
    {
      "channel": 4,
      "note": 71,
      "start": 9.3559,
      "duration": 0.6001,
      "velocity": 94,
      "chip": "ym2612"
    },
    {
      "channel": 2,
      "note": 47,
      "start": 9.5049,
      "duration": 0.1505,
      "velocity": 122,
      "chip": "ym2612"
    },
    {
      "channel": 3,
      "note": 69,
      "start": 9.6551,
      "duration": 0.2996,
      "velocity": 51,
      "chip": "ym2612"
    },
    {
      "channel": 2,
      "note": 47,
      "start": 9.6554,
      "duration": 0.1498,
      "velocity": 127,
      "chip": "ym2612"
    },
    {
      "channel": 1,
      "note": 57,
      "start": 9.6557,
      "duration": 0.2995,
      "velocity": 104,
      "chip": "ym2612"
    },
    {
      "channel": 0,
      "note": 81,
      "start": 9.6566,
      "duration": 0.1493,
      "velocity": 94,
      "chip": "ym2612"
    },
    {
      "channel": 5,
      "note": 69,
      "start": 9.7049,
      "duration": 0.2996,
      "velocity": 51,
      "chip": "ym2612"
    },
    {
      "channel": 2,
      "note": 68,
      "start": 9.8053,
      "duration": 0.1497,
      "velocity": 127,
      "chip": "ym2612"
    },
    {
      "channel": 3,
      "note": 69,
      "start": 9.9547,
      "duration": 0.15,
      "velocity": 51,
      "chip": "ym2612"
    },
    {
      "channel": 2,
      "note": 68,
      "start": 9.955,
      "duration": 0.15,
      "velocity": 127,
      "chip": "ym2612"
    },
    {
      "channel": 1,
      "note": 57,
      "start": 9.9552,
      "duration": 0.15,
      "velocity": 104,
      "chip": "ym2612"
    },
    {
      "channel": 4,
      "note": 81,
      "start": 9.9559,
      "duration": 0.1499,
      "velocity": 94,
      "chip": "ym2612"
    },
    {
      "channel": 0,
      "note": 79,
      "start": 9.9562,
      "duration": 0.1494,
      "velocity": 94,
      "chip": "ym2612"
    },
    {
      "channel": 5,
      "note": 69,
      "start": 10.0045,
      "duration": 0.15,
      "velocity": 51,
      "chip": "ym2612"
    },
    {
      "channel": 3,
      "note": 72,
      "start": 10.1046,
      "duration": 0.15,
      "velocity": 51,
      "chip": "ym2612"
    },
    {
      "channel": 2,
      "note": 68,
      "start": 10.1049,
      "duration": 0.1505,
      "velocity": 125,
      "chip": "ym2612"
    },
    {
      "channel": 1,
      "note": 57,
      "start": 10.1052,
      "duration": 0.1509,
      "velocity": 104,
      "chip": "ym2612"
    },
    {
      "channel": 0,
      "note": 81,
      "start": 10.1057,
      "duration": 0.1505,
      "velocity": 94,
      "chip": "ym2612"
    },
    {
      "channel": 5,
      "note": 72,
      "start": 10.1545,
      "duration": 0.15,
      "velocity": 51,
      "chip": "ym2612"
    },
    {
      "channel": 3,
      "note": 76,
      "start": 10.2547,
      "duration": 0.1511,
      "velocity": 51,
      "chip": "ym2612"
    },
    {
      "channel": 2,
      "note": 57,
      "start": 10.2554,
      "duration": 0.2998,
      "velocity": 122,
      "chip": "ym2612"
    },
    {
      "channel": 4,
      "note": 79,
      "start": 10.2558,
      "duration": 0.1495,
      "velocity": 94,
      "chip": "ym2612"
    },
    {
      "channel": 5,
      "note": 76,
      "start": 10.3045,
      "duration": 0.1509,
      "velocity": 51,
      "chip": "ym2612"
    },
    {
      "channel": 1,
      "note": 57,
      "start": 10.405,
      "duration": 0.1505,
      "velocity": 104,
      "chip": "ym2612"
    },
    {
      "channel": 4,
      "note": 81,
      "start": 10.4053,
      "duration": 0.1508,
      "velocity": 94,
      "chip": "ym2612"
    },
    {
      "channel": 0,
      "note": 79,
      "start": 10.4056,
      "duration": 0.1504,
      "velocity": 94,
      "chip": "ym2612"
    },
    {
      "channel": 3,
      "note": 72,
      "start": 10.5546,
      "duration": 0.3001,
      "velocity": 51,
      "chip": "ym2612"
    },
    {
      "channel": 2,
      "note": 47,
      "start": 10.5553,
      "duration": 0.1496,
      "velocity": 122,
      "chip": "ym2612"
    },
    {
      "channel": 1,
      "note": 57,
      "start": 10.5555,
      "duration": 0.3001,
      "velocity": 104,
      "chip": "ym2612"
    },
    {
      "channel": 0,
      "note": 81,
      "start": 10.556,
      "duration": 0.1497,
      "velocity": 94,
      "chip": "ym2612"
    },
    {
      "channel": 5,
      "note": 72,
      "start": 10.6045,
      "duration": 0.3,
      "velocity": 51,
      "chip": "ym2612"
    },
    {
      "channel": 2,
      "note": 47,
      "start": 10.7049,
      "duration": 0.1505,
      "velocity": 127,
      "chip": "ym2612"
    },
    {
      "channel": 4,
      "note": 79,
      "start": 10.7054,
      "duration": 0.1505,
      "velocity": 94,
      "chip": "ym2612"
    },
    {
      "channel": 3,
      "note": 76,
      "start": 10.8546,
      "duration": 0.3,
      "velocity": 51,
      "chip": "ym2612"
    },
    {
      "channel": 2,
      "note": 68,
      "start": 10.8554,
      "duration": 0.1495,
      "velocity": 127,
      "chip": "ym2612"
    },
    {
      "channel": 1,
      "note": 57,
      "start": 10.8556,
      "duration": 0.2996,
      "velocity": 104,
      "chip": "ym2612"
    },
    {
      "channel": 4,
      "note": 81,
      "start": 10.8559,
      "duration": 0.1498,
      "velocity": 94,
      "chip": "ym2612"
    },
    {
      "channel": 0,
      "note": 79,
      "start": 10.8562,
      "duration": 0.1493,
      "velocity": 94,
      "chip": "ym2612"
    },
    {
      "channel": 5,
      "note": 76,
      "start": 10.9045,
      "duration": 0.3,
      "velocity": 51,
      "chip": "ym2612"
    },
    {
      "channel": 2,
      "note": 68,
      "start": 11.0049,
      "duration": 0.1501,
      "velocity": 127,
      "chip": "ym2612"
    },
    {
      "channel": 0,
      "note": 81,
      "start": 11.0055,
      "duration": 0.1503,
      "velocity": 94,
      "chip": "ym2612"
    },
    {
      "channel": 3,
      "note": 72,
      "start": 11.1547,
      "duration": 0.3,
      "velocity": 51,
      "chip": "ym2612"
    },
    {
      "channel": 2,
      "note": 68,
      "start": 11.155,
      "duration": 0.1499,
      "velocity": 127,
      "chip": "ym2612"
    },
    {
      "channel": 1,
      "note": 57,
      "start": 11.1552,
      "duration": 0.1499,
      "velocity": 104,
      "chip": "ym2612"
    },
    {
      "channel": 4,
      "note": 79,
      "start": 11.1555,
      "duration": 0.1499,
      "velocity": 94,
      "chip": "ym2612"
    },
    {
      "channel": 5,
      "note": 72,
      "start": 11.2045,
      "duration": 0.3,
      "velocity": 51,
      "chip": "ym2612"
    },
    {
      "channel": 2,
      "note": 68,
      "start": 11.3049,
      "duration": 0.1505,
      "velocity": 125,
      "chip": "ym2612"
    },
    {
      "channel": 1,
      "note": 57,
      "start": 11.3051,
      "duration": 0.151,
      "velocity": 104,
      "chip": "ym2612"
    },
    {
      "channel": 4,
      "note": 81,
      "start": 11.3054,
      "duration": 0.1508,
      "velocity": 94,
      "chip": "ym2612"
    },
    {
      "channel": 0,
      "note": 79,
      "start": 11.3057,
      "duration": 0.1502,
      "velocity": 94,
      "chip": "ym2612"
    },
    {
      "channel": 3,
      "note": 69,
      "start": 11.4547,
      "duration": 0.3,
      "velocity": 51,
      "chip": "ym2612"
    },
    {
      "channel": 2,
      "note": 57,
      "start": 11.4554,
      "duration": 0.3,
      "velocity": 122,
      "chip": "ym2612"
    },
    {
      "channel": 0,
      "note": 81,
      "start": 11.456,
      "duration": 0.3002,
      "velocity": 94,
      "chip": "ym2612"
    },
    {
      "channel": 5,
      "note": 69,
      "start": 11.5045,
      "duration": 0.3,
      "velocity": 51,
      "chip": "ym2612"
    },
    {
      "channel": 1,
      "note": 57,
      "start": 11.6051,
      "duration": 0.1506,
      "velocity": 104,
      "chip": "ym2612"
    },
    {
      "channel": 4,
      "note": 79,
      "start": 11.6054,
      "duration": 0.1506,
      "velocity": 94,
      "chip": "ym2612"
    },
    {
      "channel": 3,
      "note": 64,
      "start": 11.7547,
      "duration": 0.3,
      "velocity": 51,
      "chip": "ym2612"
    },
    {
      "channel": 2,
      "note": 47,
      "start": 11.7554,
      "duration": 0.1495,
      "velocity": 122,
      "chip": "ym2612"
    },
    {
      "channel": 1,
      "note": 57,
      "start": 11.7556,
      "duration": 0.2996,
      "velocity": 104,
      "chip": "ym2612"
    },
    {
      "channel": 4,
      "note": 81,
      "start": 11.7559,
      "duration": 0.2996,
      "velocity": 94,
      "chip": "ym2612"
    },
    {
      "channel": 0,
      "note": 79,
      "start": 11.7562,
      "duration": 0.2996,
      "velocity": 94,
      "chip": "ym2612"
    },
    {
      "channel": 5,
      "note": 64,
      "start": 11.8045,
      "duration": 0.3,
      "velocity": 51,
      "chip": "ym2612"
    },
    {
      "channel": 2,
      "note": 47,
      "start": 11.9049,
      "duration": 0.1501,
      "velocity": 122,
      "chip": "ym2612"
    },
    {
      "channel": 3,
      "note": 67,
      "start": 12.0546,
      "duration": 0.3,
      "velocity": 51,
      "chip": "ym2612"
    },
    {
      "channel": 2,
      "note": 47,
      "start": 12.055,
      "duration": 0.1503,
      "velocity": 127,
      "chip": "ym2612"
    },
    {
      "channel": 1,
      "note": 55,
      "start": 12.0553,
      "duration": 0.3,
      "velocity": 104,
      "chip": "ym2612"
    },
    {
      "channel": 4,
      "note": 79,
      "start": 12.0556,
      "duration": 0.3,
      "velocity": 94,
      "chip": "ym2612"
    },
    {
      "channel": 0,
      "note": 79,
      "start": 12.0558,
      "duration": 0.1501,
      "velocity": 94,
      "chip": "ym2612"
    },
    {
      "channel": 5,
      "note": 67,
      "start": 12.1045,
      "duration": 0.3,
      "velocity": 51,
      "chip": "ym2612"
    },
    {
      "channel": 2,
      "note": 68,
      "start": 12.2053,
      "duration": 0.1497,
      "velocity": 127,
      "chip": "ym2612"
    },
    {
      "channel": 0,
      "note": 81,
      "start": 12.2059,
      "duration": 0.1499,
      "velocity": 94,
      "chip": "ym2612"
    },
    {
      "channel": 3,
      "note": 67,
      "start": 12.3547,
      "duration": 0.15,
      "velocity": 51,
      "chip": "ym2612"
    },
    {
      "channel": 2,
      "note": 68,
      "start": 12.355,
      "duration": 0.15,
      "velocity": 127,
      "chip": "ym2612"
    },
    {
      "channel": 1,
      "note": 55,
      "start": 12.3552,
      "duration": 0.15,
      "velocity": 104,
      "chip": "ym2612"
    },
    {
      "channel": 4,
      "note": 79,
      "start": 12.3555,
      "duration": 0.15,
      "velocity": 94,
      "chip": "ym2612"
    },
    {
      "channel": 0,
      "note": 83,
      "start": 12.3558,
      "duration": 0.15,
      "velocity": 94,
      "chip": "ym2612"
    },
    {
      "channel": 5,
      "note": 67,
      "start": 12.4045,
      "duration": 0.15,
      "velocity": 51,
      "chip": "ym2612"
    },
    {
      "channel": 3,
      "note": 71,
      "start": 12.5046,
      "duration": 0.15,
      "velocity": 51,
      "chip": "ym2612"
    },
    {
      "channel": 2,
      "note": 68,
      "start": 12.5049,
      "duration": 0.1505,
      "velocity": 125,
      "chip": "ym2612"
    },
    {
      "channel": 1,
      "note": 55,
      "start": 12.5052,
      "duration": 0.151,
      "velocity": 104,
      "chip": "ym2612"
    },
    {
      "channel": 4,
      "note": 81,
      "start": 12.5055,
      "duration": 0.1503,
      "velocity": 94,
      "chip": "ym2612"
    },
    {
      "channel": 0,
      "note": 84,
      "start": 12.5058,
      "duration": 0.1503,
      "velocity": 94,
      "chip": "ym2612"
    },
    {
      "channel": 5,
      "note": 71,
      "start": 12.5545,
      "duration": 0.15,
      "velocity": 51,
      "chip": "ym2612"
    },
    {
      "channel": 3,
      "note": 74,
      "start": 12.6547,
      "duration": 0.1678,
      "velocity": 51,
      "chip": "ym2612"
    },
    {
      "channel": 2,
      "note": 57,
      "start": 12.6554,
      "duration": 0.3165,
      "velocity": 122,
      "chip": "ym2612"
    },
    {
      "channel": 4,
      "note": 83,
      "start": 12.6558,
      "duration": 0.1661,
      "velocity": 94,
      "chip": "ym2612"
    },
    {
      "channel": 0,
      "note": 81,
      "start": 12.6561,
      "duration": 0.1661,
      "velocity": 94,
      "chip": "ym2612"
    },
    {
      "channel": 5,
      "note": 74,
      "start": 12.7045,
      "duration": 0.1676,
      "velocity": 51,
      "chip": "ym2612"
    },
    {
      "channel": 1,
      "note": 55,
      "start": 12.8217,
      "duration": 0.1505,
      "velocity": 104,
      "chip": "ym2612"
    },
    {
      "channel": 4,
      "note": 84,
      "start": 12.822,
      "duration": 0.1505,
      "velocity": 94,
      "chip": "ym2612"
    },
    {
      "channel": 0,
      "note": 83,
      "start": 12.8222,
      "duration": 0.1505,
      "velocity": 94,
      "chip": "ym2612"
    },
    {
      "channel": 3,
      "note": 71,
      "start": 12.9712,
      "duration": 0.3001,
      "velocity": 51,
      "chip": "ym2612"
    },
    {
      "channel": 2,
      "note": 47,
      "start": 12.9719,
      "duration": 0.1496,
      "velocity": 122,
      "chip": "ym2612"
    },
    {
      "channel": 1,
      "note": 55,
      "start": 12.9722,
      "duration": 0.3001,
      "velocity": 104,
      "chip": "ym2612"
    },
    {
      "channel": 4,
      "note": 81,
      "start": 12.9725,
      "duration": 0.1495,
      "velocity": 94,
      "chip": "ym2612"
    },
    {
      "channel": 0,
      "note": 84,
      "start": 12.9728,
      "duration": 0.1495,
      "velocity": 94,
      "chip": "ym2612"
    },
    {
      "channel": 5,
      "note": 71,
      "start": 13.0212,
      "duration": 0.3,
      "velocity": 51,
      "chip": "ym2612"
    },
    {
      "channel": 2,
      "note": 47,
      "start": 13.1215,
      "duration": 0.1505,
      "velocity": 127,
      "chip": "ym2612"
    },
    {
      "channel": 4,
      "note": 83,
      "start": 13.122,
      "duration": 0.1505,
      "velocity": 94,
      "chip": "ym2612"
    },
    {
      "channel": 0,
      "note": 91,
      "start": 13.1223,
      "duration": 0.1506,
      "velocity": 94,
      "chip": "ym2612"
    },
    {
      "channel": 3,
      "note": 74,
      "start": 13.2713,
      "duration": 0.3,
      "velocity": 51,
      "chip": "ym2612"
    },
    {
      "channel": 2,
      "note": 68,
      "start": 13.272,
      "duration": 0.1495,
      "velocity": 127,
      "chip": "ym2612"
    },
    {
      "channel": 1,
      "note": 55,
      "start": 13.2723,
      "duration": 0.2996,
      "velocity": 104,
      "chip": "ym2612"
    },
    {
      "channel": 4,
      "note": 84,
      "start": 13.2726,
      "duration": 0.1494,
      "velocity": 94,
      "chip": "ym2612"
    },
    {
      "channel": 5,
      "note": 74,
      "start": 13.3212,
      "duration": 0.3,
      "velocity": 51,
      "chip": "ym2612"
    },
    {
      "channel": 2,
      "note": 68,
      "start": 13.4215,
      "duration": 0.1501,
      "velocity": 127,
      "chip": "ym2612"
    },
    {
      "channel": 4,
      "note": 91,
      "start": 13.422,
      "duration": 0.1504,
      "velocity": 94,
      "chip": "ym2612"
    },
    {
      "channel": 0,
      "note": 89,
      "start": 13.4223,
      "duration": 0.3001,
      "velocity": 94,
      "chip": "ym2612"
    },
    {
      "channel": 3,
      "note": 71,
      "start": 13.5713,
      "duration": 0.3,
      "velocity": 51,
      "chip": "ym2612"
    },
    {
      "channel": 2,
      "note": 68,
      "start": 13.5716,
      "duration": 0.1499,
      "velocity": 127,
      "chip": "ym2612"
    },
    {
      "channel": 1,
      "note": 55,
      "start": 13.5719,
      "duration": 0.1499,
      "velocity": 104,
      "chip": "ym2612"
    },
    {
      "channel": 5,
      "note": 71,
      "start": 13.6212,
      "duration": 0.3,
      "velocity": 51,
      "chip": "ym2612"
    },
    {
      "channel": 2,
      "note": 68,
      "start": 13.7215,
      "duration": 0.1505,
      "velocity": 125,
      "chip": "ym2612"
    },
    {
      "channel": 1,
      "note": 55,
      "start": 13.7218,
      "duration": 0.151,
      "velocity": 104,
      "chip": "ym2612"
    },
    {
      "channel": 4,
      "note": 89,
      "start": 13.7221,
      "duration": 0.2999,
      "velocity": 94,
      "chip": "ym2612"
    },
    {
      "channel": 0,
      "note": 88,
      "start": 13.7224,
      "duration": 0.1503,
      "velocity": 94,
      "chip": "ym2612"
    },
    {
      "channel": 3,
      "note": 67,
      "start": 13.8713,
      "duration": 0.3,
      "velocity": 51,
      "chip": "ym2612"
    },
    {
      "channel": 2,
      "note": 57,
      "start": 13.8721,
      "duration": 0.3,
      "velocity": 122,
      "chip": "ym2612"
    },
    {
      "channel": 0,
      "note": 86,
      "start": 13.8727,
      "duration": 0.1496,
      "velocity": 94,
      "chip": "ym2612"
    },
    {
      "channel": 5,
      "note": 67,
      "start": 13.9212,
      "duration": 0.3,
      "velocity": 51,
      "chip": "ym2612"
    },
    {
      "channel": 1,
      "note": 55,
      "start": 14.0217,
      "duration": 0.1506,
      "velocity": 104,
      "chip": "ym2612"
    },
    {
      "channel": 4,
      "note": 88,
      "start": 14.022,
      "duration": 0.1506,
      "velocity": 94,
      "chip": "ym2612"
    },
    {
      "channel": 0,
      "note": 84,
      "start": 14.0223,
      "duration": 0.1506,
      "velocity": 94,
      "chip": "ym2612"
    },
    {
      "channel": 3,
      "note": 62,
      "start": 14.1713,
      "duration": 0.3,
      "velocity": 51,
      "chip": "ym2612"
    },
    {
      "channel": 2,
      "note": 47,
      "start": 14.172,
      "duration": 0.1495,
      "velocity": 122,
      "chip": "ym2612"
    },
    {
      "channel": 1,
      "note": 55,
      "start": 14.1723,
      "duration": 0.2996,
      "velocity": 104,
      "chip": "ym2612"
    },
    {
      "channel": 4,
      "note": 86,
      "start": 14.1726,
      "duration": 0.1494,
      "velocity": 94,
      "chip": "ym2612"
    },
    {
      "channel": 0,
      "note": 83,
      "start": 14.1729,
      "duration": 0.2996,
      "velocity": 94,
      "chip": "ym2612"
    },
    {
      "channel": 5,
      "note": 62,
      "start": 14.2212,
      "duration": 0.3,
      "velocity": 51,
      "chip": "ym2612"
    },
    {
      "channel": 2,
      "note": 47,
      "start": 14.3215,
      "duration": 0.1501,
      "velocity": 122,
      "chip": "ym2612"
    },
    {
      "channel": 4,
      "note": 84,
      "start": 14.322,
      "duration": 0.1502,
      "velocity": 94,
      "chip": "ym2612"
    },
    {
      "channel": 3,
      "note": 65,
      "start": 14.4713,
      "duration": 0.3,
      "velocity": 51,
      "chip": "ym2612"
    },
    {
      "channel": 2,
      "note": 47,
      "start": 14.4717,
      "duration": 0.1503,
      "velocity": 127,
      "chip": "ym2612"
    },
    {
      "channel": 1,
      "note": 53,
      "start": 14.4719,
      "duration": 0.3,
      "velocity": 104,
      "chip": "ym2612"
    },
    {
      "channel": 4,
      "note": 83,
      "start": 14.4722,
      "duration": 0.3,
      "velocity": 94,
      "chip": "ym2612"
    },
    {
      "channel": 0,
      "note": 84,
      "start": 14.4725,
      "duration": 0.1501,
      "velocity": 94,
      "chip": "ym2612"
    },
    {
      "channel": 5,
      "note": 65,
      "start": 14.5212,
      "duration": 0.3,
      "velocity": 51,
      "chip": "ym2612"
    },
    {
      "channel": 2,
      "note": 68,
      "start": 14.6219,
      "duration": 0.1497,
      "velocity": 127,
      "chip": "ym2612"
    },
    {
      "channel": 3,
      "note": 65,
      "start": 14.7713,
      "duration": 0.15,
      "velocity": 51,
      "chip": "ym2612"
    },
    {
      "channel": 2,
      "note": 68,
      "start": 14.7716,
      "duration": 0.15,
      "velocity": 127,
      "chip": "ym2612"
    },
    {
      "channel": 1,
      "note": 53,
      "start": 14.7719,
      "duration": 0.15,
      "velocity": 104,
      "chip": "ym2612"
    },
    {
      "channel": 4,
      "note": 84,
      "start": 14.7722,
      "duration": 0.1503,
      "velocity": 94,
      "chip": "ym2612"
    },
    {
      "channel": 0,
      "note": 83,
      "start": 14.7725,
      "duration": 0.1498,
      "velocity": 94,
      "chip": "ym2612"
    },
    {
      "channel": 5,
      "note": 65,
      "start": 14.8212,
      "duration": 0.15,
      "velocity": 51,
      "chip": "ym2612"
    },
    {
      "channel": 3,
      "note": 69,
      "start": 14.9213,
      "duration": 0.15,
      "velocity": 51,
      "chip": "ym2612"
    },
    {
      "channel": 2,
      "note": 68,
      "start": 14.9216,
      "duration": 0.1504,
      "velocity": 125,
      "chip": "ym2612"
    },
    {
      "channel": 1,
      "note": 53,
      "start": 14.9219,
      "duration": 0.1509,
      "velocity": 104,
      "chip": "ym2612"
    },
    {
      "channel": 0,
      "note": 81,
      "start": 14.9223,
      "duration": 0.1505,
      "velocity": 94,
      "chip": "ym2612"
    },
    {
      "channel": 5,
      "note": 69,
      "start": 14.9712,
      "duration": 0.15,
      "velocity": 51,
      "chip": "ym2612"
    },
    {
      "channel": 3,
      "note": 72,
      "start": 15.0713,
      "duration": 0.1511,
      "velocity": 51,
      "chip": "ym2612"
    },
    {
      "channel": 2,
      "note": 57,
      "start": 15.0721,
      "duration": 0.2998,
      "velocity": 122,
      "chip": "ym2612"
    },
    {
      "channel": 4,
      "note": 83,
      "start": 15.0725,
      "duration": 0.1495,
      "velocity": 94,
      "chip": "ym2612"
    },
    {
      "channel": 5,
      "note": 72,
      "start": 15.1212,
      "duration": 0.1509,
      "velocity": 51,
      "chip": "ym2612"
    },
    {
      "channel": 1,
      "note": 53,
      "start": 15.2217,
      "duration": 0.1505,
      "velocity": 104,
      "chip": "ym2612"
    },
    {
      "channel": 4,
      "note": 81,
      "start": 15.222,
      "duration": 0.1507,
      "velocity": 94,
      "chip": "ym2612"
    },
    {
      "channel": 0,
      "note": 84,
      "start": 15.2222,
      "duration": 0.3,
      "velocity": 94,
      "chip": "ym2612"
    },
    {
      "channel": 3,
      "note": 69,
      "start": 15.3712,
      "duration": 0.3001,
      "velocity": 51,
      "chip": "ym2612"
    },
    {
      "channel": 2,
      "note": 47,
      "start": 15.3719,
      "duration": 0.1496,
      "velocity": 122,
      "chip": "ym2612"
    },
    {
      "channel": 1,
      "note": 53,
      "start": 15.3722,
      "duration": 0.3001,
      "velocity": 104,
      "chip": "ym2612"
    },
    {
      "channel": 5,
      "note": 69,
      "start": 15.4212,
      "duration": 0.3,
      "velocity": 51,
      "chip": "ym2612"
    },
    {
      "channel": 2,
      "note": 47,
      "start": 15.5215,
      "duration": 0.1505,
      "velocity": 127,
      "chip": "ym2612"
    },
    {
      "channel": 4,
      "note": 84,
      "start": 15.522,
      "duration": 0.3,
      "velocity": 94,
      "chip": "ym2612"
    },
    {
      "channel": 0,
      "note": 83,
      "start": 15.5223,
      "duration": 0.1505,
      "velocity": 94,
      "chip": "ym2612"
    },
    {
      "channel": 3,
      "note": 72,
      "start": 15.6713,
      "duration": 0.3,
      "velocity": 51,
      "chip": "ym2612"
    },
    {
      "channel": 2,
      "note": 68,
      "start": 15.672,
      "duration": 0.1495,
      "velocity": 127,
      "chip": "ym2612"
    },
    {
      "channel": 1,
      "note": 53,
      "start": 15.6723,
      "duration": 0.2996,
      "velocity": 104,
      "chip": "ym2612"
    },
    {
      "channel": 0,
      "note": 81,
      "start": 15.6728,
      "duration": 0.1495,
      "velocity": 94,
      "chip": "ym2612"
    },
    {
      "channel": 5,
      "note": 72,
      "start": 15.7212,
      "duration": 0.3,
      "velocity": 51,
      "chip": "ym2612"
    },
    {
      "channel": 2,
      "note": 68,
      "start": 15.8215,
      "duration": 0.1501,
      "velocity": 127,
      "chip": "ym2612"
    },
    {
      "channel": 4,
      "note": 83,
      "start": 15.822,
      "duration": 0.1502,
      "velocity": 94,
      "chip": "ym2612"
    },
    {
      "channel": 3,
      "note": 69,
      "start": 15.9713,
      "duration": 0.3,
      "velocity": 51,
      "chip": "ym2612"
    },
    {
      "channel": 2,
      "note": 68,
      "start": 15.9716,
      "duration": 0.1499,
      "velocity": 127,
      "chip": "ym2612"
    },
    {
      "channel": 1,
      "note": 53,
      "start": 15.9719,
      "duration": 0.1499,
      "velocity": 104,
      "chip": "ym2612"
    },
    {
      "channel": 4,
      "note": 81,
      "start": 15.9722,
      "duration": 0.1502,
      "velocity": 94,
      "chip": "ym2612"
    },
    {
      "channel": 0,
      "note": 84,
      "start": 15.9725,
      "duration": 0.1498,
      "velocity": 94,
      "chip": "ym2612"
    },
    {
      "channel": 5,
      "note": 69,
      "start": 16.0212,
      "duration": 0.3,
      "velocity": 51,
      "chip": "ym2612"
    },
    {
      "channel": 2,
      "note": 68,
      "start": 16.1215,
      "duration": 0.1505,
      "velocity": 125,
      "chip": "ym2612"
    },
    {
      "channel": 1,
      "note": 53,
      "start": 16.1218,
      "duration": 0.1511,
      "velocity": 104,
      "chip": "ym2612"
    },
    {
      "channel": 0,
      "note": 83,
      "start": 16.1222,
      "duration": 0.1505,
      "velocity": 94,
      "chip": "ym2612"
    },
    {
      "channel": 3,
      "note": 65,
      "start": 16.2713,
      "duration": 0.3,
      "velocity": 51,
      "chip": "ym2612"
    },
    {
      "channel": 2,
      "note": 57,
      "start": 16.2721,
      "duration": 0.3,
      "velocity": 122,
      "chip": "ym2612"
    },
    {
      "channel": 4,
      "note": 84,
      "start": 16.2725,
      "duration": 0.1495,
      "velocity": 94,
      "chip": "ym2612"
    },
    {
      "channel": 0,
      "note": 81,
      "start": 16.2728,
      "duration": 0.5996,
      "velocity": 94,
      "chip": "ym2612"
    },
    {
      "channel": 5,
      "note": 65,
      "start": 16.3212,
      "duration": 0.3,
      "velocity": 51,
      "chip": "ym2612"
    },
    {
      "channel": 1,
      "note": 53,
      "start": 16.4217,
      "duration": 0.1506,
      "velocity": 104,
      "chip": "ym2612"
    },
    {
      "channel": 4,
      "note": 83,
      "start": 16.422,
      "duration": 0.1506,
      "velocity": 94,
      "chip": "ym2612"
    },
    {
      "channel": 3,
      "note": 60,
      "start": 16.5713,
      "duration": 0.3,
      "velocity": 51,
      "chip": "ym2612"
    },
    {
      "channel": 2,
      "note": 47,
      "start": 16.572,
      "duration": 0.1495,
      "velocity": 122,
      "chip": "ym2612"
    },
    {
      "channel": 1,
      "note": 53,
      "start": 16.5723,
      "duration": 0.2996,
      "velocity": 104,
      "chip": "ym2612"
    },
    {
      "channel": 4,
      "note": 81,
      "start": 16.5726,
      "duration": 0.6162,
      "velocity": 94,
      "chip": "ym2612"
    },
    {
      "channel": 5,
      "note": 60,
      "start": 16.6212,
      "duration": 0.3,
      "velocity": 51,
      "chip": "ym2612"
    },
    {
      "channel": 2,
      "note": 47,
      "start": 16.7215,
      "duration": 0.1501,
      "velocity": 122,
      "chip": "ym2612"
    },
    {
      "channel": 3,
      "note": 64,
      "start": 16.8713,
      "duration": 0.3166,
      "velocity": 51,
      "chip": "ym2612"
    },
    {
      "channel": 2,
      "note": 47,
      "start": 16.8717,
      "duration": 0.1503,
      "velocity": 127,
      "chip": "ym2612"
    },
    {
      "channel": 1,
      "note": 52,
      "start": 16.8719,
      "duration": 0.3166,
      "velocity": 104,
      "chip": "ym2612"
    },
    {
      "channel": 0,
      "note": 83,
      "start": 16.8724,
      "duration": 1.2171,
      "velocity": 94,
      "chip": "ym2612"
    },
    {
      "channel": 5,
      "note": 64,
      "start": 16.9212,
      "duration": 0.3167,
      "velocity": 51,
      "chip": "ym2612"
    },
    {
      "channel": 2,
      "note": 68,
      "start": 17.0219,
      "duration": 0.1663,
      "velocity": 127,
      "chip": "ym2612"
    },
    {
      "channel": 3,
      "note": 64,
      "start": 17.188,
      "duration": 0.15,
      "velocity": 51,
      "chip": "ym2612"
    },
    {
      "channel": 2,
      "note": 68,
      "start": 17.1883,
      "duration": 0.15,
      "velocity": 127,
      "chip": "ym2612"
    },
    {
      "channel": 1,
      "note": 52,
      "start": 17.1886,
      "duration": 0.15,
      "velocity": 104,
      "chip": "ym2612"
    },
    {
      "channel": 4,
      "note": 83,
      "start": 17.1888,
      "duration": 1.2,
      "velocity": 94,
      "chip": "ym2612"
    },
    {
      "channel": 5,
      "note": 64,
      "start": 17.2378,
      "duration": 0.15,
      "velocity": 51,
      "chip": "ym2612"
    },
    {
      "channel": 3,
      "note": 68,
      "start": 17.338,
      "duration": 0.15,
      "velocity": 51,
      "chip": "ym2612"
    },
    {
      "channel": 2,
      "note": 68,
      "start": 17.3383,
      "duration": 0.1504,
      "velocity": 125,
      "chip": "ym2612"
    },
    {
      "channel": 1,
      "note": 52,
      "start": 17.3386,
      "duration": 0.1509,
      "velocity": 104,
      "chip": "ym2612"
    },
    {
      "channel": 5,
      "note": 68,
      "start": 17.3878,
      "duration": 0.15,
      "velocity": 51,
      "chip": "ym2612"
    },
    {
      "channel": 3,
      "note": 71,
      "start": 17.488,
      "duration": 0.1509,
      "velocity": 51,
      "chip": "ym2612"
    },
    {
      "channel": 2,
      "note": 57,
      "start": 17.4888,
      "duration": 0.2998,
      "velocity": 122,
      "chip": "ym2612"
    },
    {
      "channel": 5,
      "note": 71,
      "start": 17.5378,
      "duration": 0.1509,
      "velocity": 51,
      "chip": "ym2612"
    },
    {
      "channel": 1,
      "note": 52,
      "start": 17.6383,
      "duration": 0.1505,
      "velocity": 104,
      "chip": "ym2612"
    },
    {
      "channel": 3,
      "note": 68,
      "start": 17.7879,
      "duration": 0.3001,
      "velocity": 51,
      "chip": "ym2612"
    },
    {
      "channel": 2,
      "note": 47,
      "start": 17.7886,
      "duration": 0.1496,
      "velocity": 122,
      "chip": "ym2612"
    },
    {
      "channel": 1,
      "note": 52,
      "start": 17.7889,
      "duration": 0.3001,
      "velocity": 104,
      "chip": "ym2612"
    },
    {
      "channel": 5,
      "note": 68,
      "start": 17.8378,
      "duration": 0.3,
      "velocity": 51,
      "chip": "ym2612"
    },
    {
      "channel": 2,
      "note": 47,
      "start": 17.9382,
      "duration": 0.1505,
      "velocity": 127,
      "chip": "ym2612"
    },
    {
      "channel": 3,
      "note": 71,
      "start": 18.088,
      "duration": 0.3,
      "velocity": 51,
      "chip": "ym2612"
    },
    {
      "channel": 2,
      "note": 68,
      "start": 18.0887,
      "duration": 0.1495,
      "velocity": 127,
      "chip": "ym2612"
    },
    {
      "channel": 1,
      "note": 52,
      "start": 18.089,
      "duration": 0.2996,
      "velocity": 104,
      "chip": "ym2612"
    },
    {
      "channel": 0,
      "note": 84,
      "start": 18.0895,
      "duration": 0.5999,
      "velocity": 94,
      "chip": "ym2612"
    },
    {
      "channel": 5,
      "note": 71,
      "start": 18.1378,
      "duration": 0.3,
      "velocity": 51,
      "chip": "ym2612"
    },
    {
      "channel": 2,
      "note": 68,
      "start": 18.2382,
      "duration": 0.1501,
      "velocity": 127,
      "chip": "ym2612"
    },
    {
      "channel": 3,
      "note": 68,
      "start": 18.388,
      "duration": 0.3,
      "velocity": 51,
      "chip": "ym2612"
    },
    {
      "channel": 2,
      "note": 68,
      "start": 18.3883,
      "duration": 0.1499,
      "velocity": 127,
      "chip": "ym2612"
    },
    {
      "channel": 1,
      "note": 52,
      "start": 18.3886,
      "duration": 0.1499,
      "velocity": 104,
      "chip": "ym2612"
    },
    {
      "channel": 4,
      "note": 84,
      "start": 18.3888,
      "duration": 0.6004,
      "velocity": 94,
      "chip": "ym2612"
    },
    {
      "channel": 5,
      "note": 68,
      "start": 18.4378,
      "duration": 0.3,
      "velocity": 51,
      "chip": "ym2612"
    },
    {
      "channel": 2,
      "note": 68,
      "start": 18.5382,
      "duration": 0.1505,
      "velocity": 125,
      "chip": "ym2612"
    },
    {
      "channel": 1,
      "note": 52,
      "start": 18.5385,
      "duration": 0.151,
      "velocity": 104,
      "chip": "ym2612"
    },
    {
      "channel": 3,
      "note": 64,
      "start": 18.688,
      "duration": 0.3,
      "velocity": 51,
      "chip": "ym2612"
    },
    {
      "channel": 2,
      "note": 57,
      "start": 18.6888,
      "duration": 0.3,
      "velocity": 122,
      "chip": "ym2612"
    },
    {
      "channel": 0,
      "note": 83,
      "start": 18.6893,
      "duration": 0.8997,
      "velocity": 94,
      "chip": "ym2612"
    },
    {
      "channel": 5,
      "note": 64,
      "start": 18.7378,
      "duration": 0.3,
      "velocity": 51,
      "chip": "ym2612"
    },
    {
      "channel": 1,
      "note": 52,
      "start": 18.8384,
      "duration": 0.1506,
      "velocity": 104,
      "chip": "ym2612"
    },
    {
      "channel": 3,
      "note": 59,
      "start": 18.988,
      "duration": 0.3,
      "velocity": 51,
      "chip": "ym2612"
    },
    {
      "channel": 2,
      "note": 47,
      "start": 18.9887,
      "duration": 0.1495,
      "velocity": 122,
      "chip": "ym2612"
    },
    {
      "channel": 1,
      "note": 52,
      "start": 18.989,
      "duration": 0.2997,
      "velocity": 104,
      "chip": "ym2612"
    },
    {
      "channel": 4,
      "note": 83,
      "start": 18.9893,
      "duration": 0.8999,
      "velocity": 94,
      "chip": "ym2612"
    },
    {
      "channel": 5,
      "note": 59,
      "start": 19.0378,
      "duration": 0.3,
      "velocity": 51,
      "chip": "ym2612"
    },
    {
      "channel": 2,
      "note": 47,
      "start": 19.1382,
      "duration": 0.1501,
      "velocity": 122,
      "chip": "ym2612"
    },
    {
      "channel": 3,
      "note": 69,
      "start": 19.288,
      "duration": 0.3,
      "velocity": 51,
      "chip": "ym2612"
    },
    {
      "channel": 2,
      "note": 47,
      "start": 19.2883,
      "duration": 0.1502,
      "velocity": 127,
      "chip": "ym2612"
    },
    {
      "channel": 1,
      "note": 57,
      "start": 19.2886,
      "duration": 0.2999,
      "velocity": 104,
      "chip": "ym2612"
    },
    {
      "channel": 5,
      "note": 69,
      "start": 19.3378,
      "duration": 0.3,
      "velocity": 51,
      "chip": "ym2612"
    },
    {
      "channel": 2,
      "note": 68,
      "start": 19.4386,
      "duration": 0.1497,
      "velocity": 127,
      "chip": "ym2612"
    },
    {
      "channel": 3,
      "note": 69,
      "start": 19.588,
      "duration": 0.15,
      "velocity": 51,
      "chip": "ym2612"
    },
    {
      "channel": 2,
      "note": 68,
      "start": 19.5883,
      "duration": 0.15,
      "velocity": 127,
      "chip": "ym2612"
    },
    {
      "channel": 1,
      "note": 57,
      "start": 19.5886,
      "duration": 0.15,
      "velocity": 104,
      "chip": "ym2612"
    },
    {
      "channel": 0,
      "note": 84,
      "start": 19.5891,
      "duration": 0.15,
      "velocity": 94,
      "chip": "ym2612"
    },
    {
      "channel": 5,
      "note": 69,
      "start": 19.6378,
      "duration": 0.15,
      "velocity": 51,
      "chip": "ym2612"
    },
    {
      "channel": 3,
      "note": 72,
      "start": 19.738,
      "duration": 0.15,
      "velocity": 51,
      "chip": "ym2612"
    },
    {
      "channel": 2,
      "note": 68,
      "start": 19.7383,
      "duration": 0.1504,
      "velocity": 125,
      "chip": "ym2612"
    },
    {
      "channel": 1,
      "note": 57,
      "start": 19.7386,
      "duration": 0.151,
      "velocity": 104,
      "chip": "ym2612"
    },
    {
      "channel": 0,
      "note": 83,
      "start": 19.739,
      "duration": 0.1504,
      "velocity": 94,
      "chip": "ym2612"
    },
    {
      "channel": 5,
      "note": 72,
      "start": 19.7878,
      "duration": 0.15,
      "velocity": 51,
      "chip": "ym2612"
    },
    {
      "channel": 3,
      "note": 76,
      "start": 19.888,
      "duration": 0.1511,
      "velocity": 51,
      "chip": "ym2612"
    },
    {
      "channel": 2,
      "note": 57,
      "start": 19.8888,
      "duration": 0.2998,
      "velocity": 122,
      "chip": "ym2612"
    },
    {
      "channel": 4,
      "note": 84,
      "start": 19.8892,
      "duration": 0.1495,
      "velocity": 94,
      "chip": "ym2612"
    },
    {
      "channel": 0,
      "note": 81,
      "start": 19.8894,
      "duration": 0.1495,
      "velocity": 94,
      "chip": "ym2612"
    },
    {
      "channel": 5,
      "note": 76,
      "start": 19.9378,
      "duration": 0.1509,
      "velocity": 51,
      "chip": "ym2612"
    },
    {
      "channel": 1,
      "note": 57,
      "start": 20.0383,
      "duration": 0.1505,
      "velocity": 104,
      "chip": "ym2612"
    },
    {
      "channel": 4,
      "note": 83,
      "start": 20.0386,
      "duration": 0.1505,
      "velocity": 94,
      "chip": "ym2612"
    },
    {
      "channel": 0,
      "note": 79,
      "start": 20.0389,
      "duration": 0.1505,
      "velocity": 94,
      "chip": "ym2612"
    },
    {
      "channel": 3,
      "note": 72,
      "start": 20.1879,
      "duration": 0.3001,
      "velocity": 51,
      "chip": "ym2612"
    },
    {
      "channel": 2,
      "note": 47,
      "start": 20.1886,
      "duration": 0.1496,
      "velocity": 122,
      "chip": "ym2612"
    },
    {
      "channel": 1,
      "note": 57,
      "start": 20.1889,
      "duration": 0.3001,
      "velocity": 104,
      "chip": "ym2612"
    },
    {
      "channel": 4,
      "note": 81,
      "start": 20.1891,
      "duration": 0.1495,
      "velocity": 94,
      "chip": "ym2612"
    },
    {
      "channel": 0,
      "note": 81,
      "start": 20.1894,
      "duration": 0.1495,
      "velocity": 94,
      "chip": "ym2612"
    },
    {
      "channel": 5,
      "note": 72,
      "start": 20.2378,
      "duration": 0.3,
      "velocity": 51,
      "chip": "ym2612"
    },
    {
      "channel": 2,
      "note": 47,
      "start": 20.3382,
      "duration": 0.1505,
      "velocity": 127,
      "chip": "ym2612"
    },
    {
      "channel": 4,
      "note": 79,
      "start": 20.3387,
      "duration": 0.1505,
      "velocity": 94,
      "chip": "ym2612"
    },
    {
      "channel": 0,
      "note": 83,
      "start": 20.339,
      "duration": 0.1506,
      "velocity": 94,
      "chip": "ym2612"
    },
    {
      "channel": 3,
      "note": 76,
      "start": 20.488,
      "duration": 0.3,
      "velocity": 51,
      "chip": "ym2612"
    },
    {
      "channel": 2,
      "note": 68,
      "start": 20.4887,
      "duration": 0.1495,
      "velocity": 127,
      "chip": "ym2612"
    },
    {
      "channel": 1,
      "note": 57,
      "start": 20.489,
      "duration": 0.2996,
      "velocity": 104,
      "chip": "ym2612"
    },
    {
      "channel": 4,
      "note": 81,
      "start": 20.4892,
      "duration": 0.1494,
      "velocity": 94,
      "chip": "ym2612"
    },
    {
      "channel": 0,
      "note": 84,
      "start": 20.4895,
      "duration": 0.1494,
      "velocity": 94,
      "chip": "ym2612"
    },
    {
      "channel": 5,
      "note": 76,
      "start": 20.5378,
      "duration": 0.3,
      "velocity": 51,
      "chip": "ym2612"
    },
    {
      "channel": 2,
      "note": 68,
      "start": 20.6382,
      "duration": 0.1501,
      "velocity": 127,
      "chip": "ym2612"
    },
    {
      "channel": 4,
      "note": 83,
      "start": 20.6387,
      "duration": 0.1502,
      "velocity": 94,
      "chip": "ym2612"
    },
    {
      "channel": 3,
      "note": 72,
      "start": 20.788,
      "duration": 0.3,
      "velocity": 51,
      "chip": "ym2612"
    },
    {
      "channel": 2,
      "note": 68,
      "start": 20.7883,
      "duration": 0.1499,
      "velocity": 127,
      "chip": "ym2612"
    },
    {
      "channel": 1,
      "note": 57,
      "start": 20.7886,
      "duration": 0.1499,
      "velocity": 104,
      "chip": "ym2612"
    },
    {
      "channel": 4,
      "note": 84,
      "start": 20.7888,
      "duration": 0.1502,
      "velocity": 94,
      "chip": "ym2612"
    },
    {
      "channel": 5,
      "note": 72,
      "start": 20.8378,
      "duration": 0.3,
      "velocity": 51,
      "chip": "ym2612"
    },
    {
      "channel": 2,
      "note": 68,
      "start": 20.9382,
      "duration": 0.1505,
      "velocity": 125,
      "chip": "ym2612"
    },
    {
      "channel": 1,
      "note": 57,
      "start": 20.9385,
      "duration": 0.1509,
      "velocity": 104,
      "chip": "ym2612"
    },
    {
      "channel": 0,
      "note": 84,
      "start": 20.9389,
      "duration": 0.1503,
      "velocity": 94,
      "chip": "ym2612"
    },
    {
      "channel": 3,
      "note": 69,
      "start": 21.088,
      "duration": 0.3167,
      "velocity": 51,
      "chip": "ym2612"
    },
    {
      "channel": 2,
      "note": 57,
      "start": 21.0887,
      "duration": 0.3166,
      "velocity": 122,
      "chip": "ym2612"
    },
    {
      "channel": 0,
      "note": 83,
      "start": 21.0892,
      "duration": 0.1497,
      "velocity": 94,
      "chip": "ym2612"
    },
    {
      "channel": 5,
      "note": 69,
      "start": 21.1378,
      "duration": 0.3167,
      "velocity": 51,
      "chip": "ym2612"
    },
    {
      "channel": 1,
      "note": 57,
      "start": 21.2384,
      "duration": 0.1673,
      "velocity": 104,
      "chip": "ym2612"
    },
    {
      "channel": 4,
      "note": 84,
      "start": 21.2387,
      "duration": 0.1672,
      "velocity": 94,
      "chip": "ym2612"
    },
    {
      "channel": 0,
      "note": 81,
      "start": 21.239,
      "duration": 0.1673,
      "velocity": 94,
      "chip": "ym2612"
    },
    {
      "channel": 3,
      "note": 64,
      "start": 21.4047,
      "duration": 0.3,
      "velocity": 51,
      "chip": "ym2612"
    },
    {
      "channel": 2,
      "note": 47,
      "start": 21.4054,
      "duration": 0.1495,
      "velocity": 122,
      "chip": "ym2612"
    },
    {
      "channel": 1,
      "note": 57,
      "start": 21.4056,
      "duration": 0.2996,
      "velocity": 104,
      "chip": "ym2612"
    },
    {
      "channel": 4,
      "note": 83,
      "start": 21.4059,
      "duration": 0.1494,
      "velocity": 94,
      "chip": "ym2612"
    },
    {
      "channel": 0,
      "note": 79,
      "start": 21.4062,
      "duration": 0.1494,
      "velocity": 94,
      "chip": "ym2612"
    },
    {
      "channel": 5,
      "note": 64,
      "start": 21.4545,
      "duration": 0.3,
      "velocity": 51,
      "chip": "ym2612"
    },
    {
      "channel": 2,
      "note": 47,
      "start": 21.5549,
      "duration": 0.1501,
      "velocity": 122,
      "chip": "ym2612"
    },
    {
      "channel": 4,
      "note": 81,
      "start": 21.5554,
      "duration": 0.1502,
      "velocity": 94,
      "chip": "ym2612"
    },
    {
      "channel": 0,
      "note": 81,
      "start": 21.5556,
      "duration": 0.1502,
      "velocity": 94,
      "chip": "ym2612"
    },
    {
      "channel": 3,
      "note": 67,
      "start": 21.7046,
      "duration": 0.3,
      "velocity": 51,
      "chip": "ym2612"
    },
    {
      "channel": 2,
      "note": 47,
      "start": 21.705,
      "duration": 0.1503,
      "velocity": 127,
      "chip": "ym2612"
    },
    {
      "channel": 1,
      "note": 55,
      "start": 21.7053,
      "duration": 0.3,
      "velocity": 104,
      "chip": "ym2612"
    },
    {
      "channel": 4,
      "note": 79,
      "start": 21.7056,
      "duration": 0.1502,
      "velocity": 94,
      "chip": "ym2612"
    },
    {
      "channel": 0,
      "note": 83,
      "start": 21.7058,
      "duration": 0.1502,
      "velocity": 94,
      "chip": "ym2612"
    },
    {
      "channel": 5,
      "note": 67,
      "start": 21.7545,
      "duration": 0.3,
      "velocity": 51,
      "chip": "ym2612"
    },
    {
      "channel": 2,
      "note": 68,
      "start": 21.8553,
      "duration": 0.1497,
      "velocity": 127,
      "chip": "ym2612"
    },
    {
      "channel": 4,
      "note": 81,
      "start": 21.8557,
      "duration": 0.1498,
      "velocity": 94,
      "chip": "ym2612"
    },
    {
      "channel": 0,
      "note": 84,
      "start": 21.856,
      "duration": 0.1498,
      "velocity": 94,
      "chip": "ym2612"
    },
    {
      "channel": 3,
      "note": 67,
      "start": 22.0047,
      "duration": 0.15,
      "velocity": 51,
      "chip": "ym2612"
    },
    {
      "channel": 2,
      "note": 68,
      "start": 22.005,
      "duration": 0.15,
      "velocity": 127,
      "chip": "ym2612"
    },
    {
      "channel": 1,
      "note": 55,
      "start": 22.0052,
      "duration": 0.15,
      "velocity": 104,
      "chip": "ym2612"
    },
    {
      "channel": 4,
      "note": 83,
      "start": 22.0055,
      "duration": 0.15,
      "velocity": 94,
      "chip": "ym2612"
    },
    {
      "channel": 5,
      "note": 67,
      "start": 22.0545,
      "duration": 0.15,
      "velocity": 51,
      "chip": "ym2612"
    },
    {
      "channel": 3,
      "note": 71,
      "start": 22.1547,
      "duration": 0.15,
      "velocity": 51,
      "chip": "ym2612"
    },
    {
      "channel": 2,
      "note": 68,
      "start": 22.155,
      "duration": 0.1504,
      "velocity": 125,
      "chip": "ym2612"
    },
    {
      "channel": 1,
      "note": 55,
      "start": 22.1552,
      "duration": 0.1509,
      "velocity": 104,
      "chip": "ym2612"
    },
    {
      "channel": 4,
      "note": 84,
      "start": 22.1555,
      "duration": 0.1507,
      "velocity": 94,
      "chip": "ym2612"
    },
    {
      "channel": 5,
      "note": 71,
      "start": 22.2045,
      "duration": 0.15,
      "velocity": 51,
      "chip": "ym2612"
    },
    {
      "channel": 3,
      "note": 74,
      "start": 22.3047,
      "duration": 0.1509,
      "velocity": 51,
      "chip": "ym2612"
    },
    {
      "channel": 2,
      "note": 57,
      "start": 22.3054,
      "duration": 0.2998,
      "velocity": 122,
      "chip": "ym2612"
    },
    {
      "channel": 0,
      "note": 84,
      "start": 22.306,
      "duration": 0.1494,
      "velocity": 94,
      "chip": "ym2612"
    },
    {
      "channel": 5,
      "note": 74,
      "start": 22.3545,
      "duration": 0.1508,
      "velocity": 51,
      "chip": "ym2612"
    },
    {
      "channel": 1,
      "note": 55,
      "start": 22.455,
      "duration": 0.1505,
      "velocity": 104,
      "chip": "ym2612"
    },
    {
      "channel": 0,
      "note": 83,
      "start": 22.4554,
      "duration": 0.1507,
      "velocity": 94,
      "chip": "ym2612"
    },
    {
      "channel": 3,
      "note": 71,
      "start": 22.6046,
      "duration": 0.3001,
      "velocity": 51,
      "chip": "ym2612"
    },
    {
      "channel": 2,
      "note": 47,
      "start": 22.6053,
      "duration": 0.1496,
      "velocity": 122,
      "chip": "ym2612"
    },
    {
      "channel": 1,
      "note": 55,
      "start": 22.6055,
      "duration": 0.3001,
      "velocity": 104,
      "chip": "ym2612"
    },
    {
      "channel": 4,
      "note": 84,
      "start": 22.6058,
      "duration": 0.1495,
      "velocity": 94,
      "chip": "ym2612"
    },
    {
      "channel": 0,
      "note": 81,
      "start": 22.6061,
      "duration": 0.1495,
      "velocity": 94,
      "chip": "ym2612"
    },
    {
      "channel": 5,
      "note": 71,
      "start": 22.6545,
      "duration": 0.3,
      "velocity": 51,
      "chip": "ym2612"
    },
    {
      "channel": 2,
      "note": 47,
      "start": 22.7549,
      "duration": 0.1505,
      "velocity": 127,
      "chip": "ym2612"
    },
    {
      "channel": 4,
      "note": 83,
      "start": 22.7554,
      "duration": 0.1505,
      "velocity": 94,
      "chip": "ym2612"
    },
    {
      "channel": 0,
      "note": 79,
      "start": 22.7556,
      "duration": 0.1506,
      "velocity": 94,
      "chip": "ym2612"
    },
    {
      "channel": 3,
      "note": 74,
      "start": 22.9046,
      "duration": 0.3,
      "velocity": 51,
      "chip": "ym2612"
    },
    {
      "channel": 2,
      "note": 68,
      "start": 22.9054,
      "duration": 0.1495,
      "velocity": 127,
      "chip": "ym2612"
    },
    {
      "channel": 1,
      "note": 55,
      "start": 22.9056,
      "duration": 0.2996,
      "velocity": 104,
      "chip": "ym2612"
    },
    {
      "channel": 4,
      "note": 81,
      "start": 22.9059,
      "duration": 0.1494,
      "velocity": 94,
      "chip": "ym2612"
    },
    {
      "channel": 0,
      "note": 81,
      "start": 22.9062,
      "duration": 0.1494,
      "velocity": 94,
      "chip": "ym2612"
    },
    {
      "channel": 5,
      "note": 74,
      "start": 22.9545,
      "duration": 0.3,
      "velocity": 51,
      "chip": "ym2612"
    },
    {
      "channel": 2,
      "note": 68,
      "start": 23.0549,
      "duration": 0.1501,
      "velocity": 127,
      "chip": "ym2612"
    },
    {
      "channel": 4,
      "note": 79,
      "start": 23.0553,
      "duration": 0.1502,
      "velocity": 94,
      "chip": "ym2612"
    },
    {
      "channel": 0,
      "note": 83,
      "start": 23.0556,
      "duration": 0.1502,
      "velocity": 94,
      "chip": "ym2612"
    },
    {
      "channel": 3,
      "note": 71,
      "start": 23.2047,
      "duration": 0.3,
      "velocity": 51,
      "chip": "ym2612"
    },
    {
      "channel": 2,
      "note": 68,
      "start": 23.205,
      "duration": 0.1499,
      "velocity": 127,
      "chip": "ym2612"
    },
    {
      "channel": 1,
      "note": 55,
      "start": 23.2052,
      "duration": 0.1499,
      "velocity": 104,
      "chip": "ym2612"
    },
    {
      "channel": 4,
      "note": 81,
      "start": 23.2055,
      "duration": 0.1499,
      "velocity": 94,
      "chip": "ym2612"
    },
    {
      "channel": 0,
      "note": 84,
      "start": 23.2058,
      "duration": 0.1499,
      "velocity": 94,
      "chip": "ym2612"
    },
    {
      "channel": 5,
      "note": 71,
      "start": 23.2545,
      "duration": 0.3,
      "velocity": 51,
      "chip": "ym2612"
    },
    {
      "channel": 2,
      "note": 68,
      "start": 23.3549,
      "duration": 0.1505,
      "velocity": 125,
      "chip": "ym2612"
    },
    {
      "channel": 1,
      "note": 55,
      "start": 23.3551,
      "duration": 0.1511,
      "velocity": 104,
      "chip": "ym2612"
    },
    {
      "channel": 4,
      "note": 83,
      "start": 23.3554,
      "duration": 0.1504,
      "velocity": 94,
      "chip": "ym2612"
    },
    {
      "channel": 0,
      "note": 86,
      "start": 23.3557,
      "duration": 0.1504,
      "velocity": 94,
      "chip": "ym2612"
    },
    {
      "channel": 3,
      "note": 67,
      "start": 23.5046,
      "duration": 0.3,
      "velocity": 51,
      "chip": "ym2612"
    },
    {
      "channel": 2,
      "note": 57,
      "start": 23.5054,
      "duration": 0.3,
      "velocity": 122,
      "chip": "ym2612"
    },
    {
      "channel": 4,
      "note": 84,
      "start": 23.5058,
      "duration": 0.1495,
      "velocity": 94,
      "chip": "ym2612"
    },
    {
      "channel": 0,
      "note": 88,
      "start": 23.5061,
      "duration": 0.1495,
      "velocity": 94,
      "chip": "ym2612"
    },
    {
      "channel": 5,
      "note": 67,
      "start": 23.5545,
      "duration": 0.3,
      "velocity": 51,
      "chip": "ym2612"
    },
    {
      "channel": 1,
      "note": 55,
      "start": 23.6551,
      "duration": 0.1506,
      "velocity": 104,
      "chip": "ym2612"
    },
    {
      "channel": 4,
      "note": 86,
      "start": 23.6554,
      "duration": 0.1506,
      "velocity": 94,
      "chip": "ym2612"
    },
    {
      "channel": 0,
      "note": 89,
      "start": 23.6556,
      "duration": 0.1506,
      "velocity": 94,
      "chip": "ym2612"
    },
    {
      "channel": 3,
      "note": 62,
      "start": 23.8047,
      "duration": 0.3,
      "velocity": 51,
      "chip": "ym2612"
    },
    {
      "channel": 2,
      "note": 47,
      "start": 23.8054,
      "duration": 0.1495,
      "velocity": 122,
      "chip": "ym2612"
    },
    {
      "channel": 1,
      "note": 55,
      "start": 23.8056,
      "duration": 0.2996,
      "velocity": 104,
      "chip": "ym2612"
    },
    {
      "channel": 4,
      "note": 88,
      "start": 23.8059,
      "duration": 0.1494,
      "velocity": 94,
      "chip": "ym2612"
    },
    {
      "channel": 0,
      "note": 91,
      "start": 23.8062,
      "duration": 0.1494,
      "velocity": 94,
      "chip": "ym2612"
    },
    {
      "channel": 5,
      "note": 62,
      "start": 23.8545,
      "duration": 0.3,
      "velocity": 51,
      "chip": "ym2612"
    },
    {
      "channel": 2,
      "note": 47,
      "start": 23.9549,
      "duration": 0.1501,
      "velocity": 122,
      "chip": "ym2612"
    },
    {
      "channel": 4,
      "note": 89,
      "start": 23.9554,
      "duration": 0.1502,
      "velocity": 94,
      "chip": "ym2612"
    },
    {
      "channel": 0,
      "note": 89,
      "start": 23.9556,
      "duration": 0.1502,
      "velocity": 94,
      "chip": "ym2612"
    },
    {
      "channel": 3,
      "note": 65,
      "start": 24.1046,
      "duration": 0.3,
      "velocity": 51,
      "chip": "ym2612"
    },
    {
      "channel": 2,
      "note": 47,
      "start": 24.105,
      "duration": 0.1503,
      "velocity": 127,
      "chip": "ym2612"
    },
    {
      "channel": 1,
      "note": 53,
      "start": 24.1053,
      "duration": 0.3,
      "velocity": 104,
      "chip": "ym2612"
    },
    {
      "channel": 4,
      "note": 91,
      "start": 24.1056,
      "duration": 0.1502,
      "velocity": 94,
      "chip": "ym2612"
    },
    {
      "channel": 0,
      "note": 88,
      "start": 24.1058,
      "duration": 0.1502,
      "velocity": 94,
      "chip": "ym2612"
    },
    {
      "channel": 5,
      "note": 65,
      "start": 24.1545,
      "duration": 0.3,
      "velocity": 51,
      "chip": "ym2612"
    },
    {
      "channel": 2,
      "note": 68,
      "start": 24.2553,
      "duration": 0.1497,
      "velocity": 127,
      "chip": "ym2612"
    },
    {
      "channel": 4,
      "note": 89,
      "start": 24.2557,
      "duration": 0.1498,
      "velocity": 94,
      "chip": "ym2612"
    },
    {
      "channel": 0,
      "note": 86,
      "start": 24.256,
      "duration": 0.1498,
      "velocity": 94,
      "chip": "ym2612"
    },
    {
      "channel": 3,
      "note": 65,
      "start": 24.4047,
      "duration": 0.15,
      "velocity": 51,
      "chip": "ym2612"
    },
    {
      "channel": 2,
      "note": 68,
      "start": 24.405,
      "duration": 0.15,
      "velocity": 127,
      "chip": "ym2612"
    },
    {
      "channel": 1,
      "note": 53,
      "start": 24.4052,
      "duration": 0.15,
      "velocity": 104,
      "chip": "ym2612"
    },
    {
      "channel": 4,
      "note": 88,
      "start": 24.4055,
      "duration": 0.15,
      "velocity": 94,
      "chip": "ym2612"
    },
    {
      "channel": 0,
      "note": 84,
      "start": 24.4058,
      "duration": 2.1166,
      "velocity": 94,
      "chip": "ym2612"
    },
    {
      "channel": 5,
      "note": 65,
      "start": 24.4545,
      "duration": 0.15,
      "velocity": 51,
      "chip": "ym2612"
    },
    {
      "channel": 3,
      "note": 69,
      "start": 24.5547,
      "duration": 0.15,
      "velocity": 51,
      "chip": "ym2612"
    },
    {
      "channel": 2,
      "note": 68,
      "start": 24.555,
      "duration": 0.1504,
      "velocity": 125,
      "chip": "ym2612"
    },
    {
      "channel": 1,
      "note": 53,
      "start": 24.5552,
      "duration": 0.1509,
      "velocity": 104,
      "chip": "ym2612"
    },
    {
      "channel": 4,
      "note": 86,
      "start": 24.5555,
      "duration": 0.1503,
      "velocity": 94,
      "chip": "ym2612"
    },
    {
      "channel": 5,
      "note": 69,
      "start": 24.6045,
      "duration": 0.15,
      "velocity": 51,
      "chip": "ym2612"
    },
    {
      "channel": 3,
      "note": 72,
      "start": 24.7047,
      "duration": 0.1509,
      "velocity": 51,
      "chip": "ym2612"
    },
    {
      "channel": 2,
      "note": 57,
      "start": 24.7054,
      "duration": 0.2998,
      "velocity": 122,
      "chip": "ym2612"
    },
    {
      "channel": 4,
      "note": 84,
      "start": 24.7058,
      "duration": 2.1163,
      "velocity": 94,
      "chip": "ym2612"
    },
    {
      "channel": 5,
      "note": 72,
      "start": 24.7545,
      "duration": 0.1509,
      "velocity": 51,
      "chip": "ym2612"
    },
    {
      "channel": 1,
      "note": 53,
      "start": 24.855,
      "duration": 0.1505,
      "velocity": 104,
      "chip": "ym2612"
    },
    {
      "channel": 3,
      "note": 69,
      "start": 25.0046,
      "duration": 0.3001,
      "velocity": 51,
      "chip": "ym2612"
    },
    {
      "channel": 2,
      "note": 47,
      "start": 25.0053,
      "duration": 0.1496,
      "velocity": 122,
      "chip": "ym2612"
    },
    {
      "channel": 1,
      "note": 53,
      "start": 25.0055,
      "duration": 0.3001,
      "velocity": 104,
      "chip": "ym2612"
    },
    {
      "channel": 5,
      "note": 69,
      "start": 25.0545,
      "duration": 0.3,
      "velocity": 51,
      "chip": "ym2612"
    },
    {
      "channel": 2,
      "note": 47,
      "start": 25.1549,
      "duration": 0.1505,
      "velocity": 127,
      "chip": "ym2612"
    },
    {
      "channel": 3,
      "note": 72,
      "start": 25.3047,
      "duration": 0.3166,
      "velocity": 51,
      "chip": "ym2612"
    },
    {
      "channel": 2,
      "note": 68,
      "start": 25.3054,
      "duration": 0.1495,
      "velocity": 127,
      "chip": "ym2612"
    },
    {
      "channel": 1,
      "note": 53,
      "start": 25.3056,
      "duration": 0.3163,
      "velocity": 104,
      "chip": "ym2612"
    },
    {
      "channel": 5,
      "note": 72,
      "start": 25.3545,
      "duration": 0.3167,
      "velocity": 51,
      "chip": "ym2612"
    },
    {
      "channel": 2,
      "note": 68,
      "start": 25.4549,
      "duration": 0.1667,
      "velocity": 127,
      "chip": "ym2612"
    },
    {
      "channel": 3,
      "note": 69,
      "start": 25.6213,
      "duration": 0.3,
      "velocity": 51,
      "chip": "ym2612"
    },
    {
      "channel": 2,
      "note": 68,
      "start": 25.6216,
      "duration": 0.1499,
      "velocity": 127,
      "chip": "ym2612"
    },
    {
      "channel": 1,
      "note": 53,
      "start": 25.6219,
      "duration": 0.1499,
      "velocity": 104,
      "chip": "ym2612"
    },
    {
      "channel": 5,
      "note": 69,
      "start": 25.6712,
      "duration": 0.3,
      "velocity": 51,
      "chip": "ym2612"
    },
    {
      "channel": 2,
      "note": 68,
      "start": 25.7715,
      "duration": 0.1505,
      "velocity": 125,
      "chip": "ym2612"
    },
    {
      "channel": 1,
      "note": 53,
      "start": 25.7718,
      "duration": 0.151,
      "velocity": 104,
      "chip": "ym2612"
    },
    {
      "channel": 3,
      "note": 65,
      "start": 25.9213,
      "duration": 0.3,
      "velocity": 51,
      "chip": "ym2612"
    },
    {
      "channel": 2,
      "note": 57,
      "start": 25.9221,
      "duration": 0.3,
      "velocity": 122,
      "chip": "ym2612"
    },
    {
      "channel": 5,
      "note": 65,
      "start": 25.9712,
      "duration": 0.3,
      "velocity": 51,
      "chip": "ym2612"
    },
    {
      "channel": 1,
      "note": 53,
      "start": 26.0717,
      "duration": 0.1506,
      "velocity": 104,
      "chip": "ym2612"
    },
    {
      "channel": 3,
      "note": 60,
      "start": 26.2213,
      "duration": 0.3,
      "velocity": 51,
      "chip": "ym2612"
    },
    {
      "channel": 2,
      "note": 47,
      "start": 26.222,
      "duration": 0.1495,
      "velocity": 122,
      "chip": "ym2612"
    },
    {
      "channel": 1,
      "note": 53,
      "start": 26.2223,
      "duration": 0.2996,
      "velocity": 104,
      "chip": "ym2612"
    },
    {
      "channel": 5,
      "note": 60,
      "start": 26.2712,
      "duration": 0.3,
      "velocity": 51,
      "chip": "ym2612"
    },
    {
      "channel": 2,
      "note": 47,
      "start": 26.3715,
      "duration": 0.1501,
      "velocity": 122,
      "chip": "ym2612"
    },
    {
      "channel": 3,
      "note": 64,
      "start": 26.5213,
      "duration": 0.3,
      "velocity": 51,
      "chip": "ym2612"
    },
    {
      "channel": 2,
      "note": 47,
      "start": 26.5217,
      "duration": 0.1503,
      "velocity": 127,
      "chip": "ym2612"
    },
    {
      "channel": 1,
      "note": 52,
      "start": 26.5219,
      "duration": 0.3,
      "velocity": 104,
      "chip": "ym2612"
    },
    {
      "channel": 0,
      "note": 88,
      "start": 26.5224,
      "duration": 0.1502,
      "velocity": 94,
      "chip": "ym2612"
    },
    {
      "channel": 5,
      "note": 64,
      "start": 26.5712,
      "duration": 0.3,
      "velocity": 51,
      "chip": "ym2612"
    },
    {
      "channel": 2,
      "note": 68,
      "start": 26.6719,
      "duration": 0.1497,
      "velocity": 127,
      "chip": "ym2612"
    },
    {
      "channel": 0,
      "note": 84,
      "start": 26.6726,
      "duration": 0.1499,
      "velocity": 94,
      "chip": "ym2612"
    },
    {
      "channel": 3,
      "note": 64,
      "start": 26.8213,
      "duration": 0.15,
      "velocity": 51,
      "chip": "ym2612"
    },
    {
      "channel": 2,
      "note": 68,
      "start": 26.8216,
      "duration": 0.15,
      "velocity": 127,
      "chip": "ym2612"
    },
    {
      "channel": 1,
      "note": 52,
      "start": 26.8219,
      "duration": 0.15,
      "velocity": 104,
      "chip": "ym2612"
    },
    {
      "channel": 4,
      "note": 88,
      "start": 26.8222,
      "duration": 0.15,
      "velocity": 94,
      "chip": "ym2612"
    },
    {
      "channel": 0,
      "note": 81,
      "start": 26.8225,
      "duration": 0.6002,
      "velocity": 94,
      "chip": "ym2612"
    },
    {
      "channel": 5,
      "note": 64,
      "start": 26.8712,
      "duration": 0.15,
      "velocity": 51,
      "chip": "ym2612"
    },
    {
      "channel": 3,
      "note": 68,
      "start": 26.9713,
      "duration": 0.15,
      "velocity": 51,
      "chip": "ym2612"
    },
    {
      "channel": 2,
      "note": 68,
      "start": 26.9716,
      "duration": 0.1505,
      "velocity": 125,
      "chip": "ym2612"
    },
    {
      "channel": 1,
      "note": 52,
      "start": 26.9719,
      "duration": 0.1509,
      "velocity": 104,
      "chip": "ym2612"
    },
    {
      "channel": 4,
      "note": 84,
      "start": 26.9722,
      "duration": 0.1503,
      "velocity": 94,
      "chip": "ym2612"
    },
    {
      "channel": 5,
      "note": 68,
      "start": 27.0212,
      "duration": 0.15,
      "velocity": 51,
      "chip": "ym2612"
    },
    {
      "channel": 3,
      "note": 71,
      "start": 27.1213,
      "duration": 0.1509,
      "velocity": 51,
      "chip": "ym2612"
    },
    {
      "channel": 2,
      "note": 57,
      "start": 27.1221,
      "duration": 0.2998,
      "velocity": 122,
      "chip": "ym2612"
    },
    {
      "channel": 4,
      "note": 81,
      "start": 27.1225,
      "duration": 0.6001,
      "velocity": 94,
      "chip": "ym2612"
    },
    {
      "channel": 5,
      "note": 71,
      "start": 27.1712,
      "duration": 0.1509,
      "velocity": 51,
      "chip": "ym2612"
    },
    {
      "channel": 1,
      "note": 52,
      "start": 27.2717,
      "duration": 0.1505,
      "velocity": 104,
      "chip": "ym2612"
    },
    {
      "channel": 3,
      "note": 68,
      "start": 27.4212,
      "duration": 0.3001,
      "velocity": 51,
      "chip": "ym2612"
    },
    {
      "channel": 2,
      "note": 47,
      "start": 27.4219,
      "duration": 0.1496,
      "velocity": 122,
      "chip": "ym2612"
    },
    {
      "channel": 1,
      "note": 52,
      "start": 27.4222,
      "duration": 0.3001,
      "velocity": 104,
      "chip": "ym2612"
    },
    {
      "channel": 0,
      "note": 76,
      "start": 27.4227,
      "duration": 1.8001,
      "velocity": 107,
      "chip": "ym2612"
    },
    {
      "channel": 5,
      "note": 68,
      "start": 27.4712,
      "duration": 0.3,
      "velocity": 51,
      "chip": "ym2612"
    },
    {
      "channel": 2,
      "note": 47,
      "start": 27.5715,
      "duration": 0.1505,
      "velocity": 127,
      "chip": "ym2612"
    },
    {
      "channel": 3,
      "note": 71,
      "start": 27.7213,
      "duration": 0.3,
      "velocity": 51,
      "chip": "ym2612"
    },
    {
      "channel": 2,
      "note": 68,
      "start": 27.722,
      "duration": 0.1495,
      "velocity": 127,
      "chip": "ym2612"
    },
    {
      "channel": 1,
      "note": 52,
      "start": 27.7223,
      "duration": 0.2996,
      "velocity": 104,
      "chip": "ym2612"
    },
    {
      "channel": 4,
      "note": 76,
      "start": 27.7226,
      "duration": 1.8003,
      "velocity": 107,
      "chip": "ym2612"
    },
    {
      "channel": 5,
      "note": 71,
      "start": 27.7712,
      "duration": 0.3,
      "velocity": 51,
      "chip": "ym2612"
    },
    {
      "channel": 2,
      "note": 68,
      "start": 27.8715,
      "duration": 0.1501,
      "velocity": 127,
      "chip": "ym2612"
    },
    {
      "channel": 3,
      "note": 68,
      "start": 28.0213,
      "duration": 0.3,
      "velocity": 51,
      "chip": "ym2612"
    },
    {
      "channel": 2,
      "note": 68,
      "start": 28.0216,
      "duration": 0.1499,
      "velocity": 127,
      "chip": "ym2612"
    },
    {
      "channel": 1,
      "note": 52,
      "start": 28.0219,
      "duration": 0.1499,
      "velocity": 104,
      "chip": "ym2612"
    },
    {
      "channel": 5,
      "note": 68,
      "start": 28.0712,
      "duration": 0.3,
      "velocity": 51,
      "chip": "ym2612"
    },
    {
      "channel": 2,
      "note": 68,
      "start": 28.1715,
      "duration": 0.1505,
      "velocity": 125,
      "chip": "ym2612"
    },
    {
      "channel": 1,
      "note": 52,
      "start": 28.1718,
      "duration": 0.151,
      "velocity": 104,
      "chip": "ym2612"
    },
    {
      "channel": 3,
      "note": 64,
      "start": 28.3213,
      "duration": 0.3,
      "velocity": 51,
      "chip": "ym2612"
    },
    {
      "channel": 2,
      "note": 57,
      "start": 28.3221,
      "duration": 0.3,
      "velocity": 122,
      "chip": "ym2612"
    },
    {
      "channel": 5,
      "note": 64,
      "start": 28.3712,
      "duration": 0.3,
      "velocity": 51,
      "chip": "ym2612"
    },
    {
      "channel": 1,
      "note": 52,
      "start": 28.4717,
      "duration": 0.1506,
      "velocity": 104,
      "chip": "ym2612"
    },
    {
      "channel": 3,
      "note": 59,
      "start": 28.6213,
      "duration": 0.3,
      "velocity": 51,
      "chip": "ym2612"
    },
    {
      "channel": 2,
      "note": 47,
      "start": 28.622,
      "duration": 0.1495,
      "velocity": 122,
      "chip": "ym2612"
    },
    {
      "channel": 1,
      "note": 52,
      "start": 28.6223,
      "duration": 0.2997,
      "velocity": 104,
      "chip": "ym2612"
    },
    {
      "channel": 5,
      "note": 59,
      "start": 28.6712,
      "duration": 0.3,
      "velocity": 51,
      "chip": "ym2612"
    },
    {
      "channel": 2,
      "note": 47,
      "start": 28.7715,
      "duration": 0.1501,
      "velocity": 122,
      "chip": "ym2612"
    },
    {
      "channel": 3,
      "note": 69,
      "start": 28.9214,
      "duration": 0.3,
      "velocity": 51,
      "chip": "ym2612"
    },
    {
      "channel": 2,
      "note": 47,
      "start": 28.9217,
      "duration": 0.1502,
      "velocity": 127,
      "chip": "ym2612"
    },
    {
      "channel": 1,
      "note": 57,
      "start": 28.922,
      "duration": 0.2999,
      "velocity": 104,
      "chip": "ym2612"
    },
    {
      "channel": 5,
      "note": 69,
      "start": 28.9712,
      "duration": 0.3,
      "velocity": 51,
      "chip": "ym2612"
    },
    {
      "channel": 2,
      "note": 68,
      "start": 29.0719,
      "duration": 0.1497,
      "velocity": 127,
      "chip": "ym2612"
    },
    {
      "channel": 3,
      "note": 69,
      "start": 29.2213,
      "duration": 0.15,
      "velocity": 51,
      "chip": "ym2612"
    },
    {
      "channel": 2,
      "note": 68,
      "start": 29.2216,
      "duration": 0.15,
      "velocity": 127,
      "chip": "ym2612"
    },
    {
      "channel": 1,
      "note": 57,
      "start": 29.2219,
      "duration": 0.15,
      "velocity": 104,
      "chip": "ym2612"
    },
    {
      "channel": 0,
      "note": 67,
      "start": 29.2228,
      "duration": 0.1496,
      "velocity": 107,
      "chip": "ym2612"
    },
    {
      "channel": 5,
      "note": 69,
      "start": 29.2712,
      "duration": 0.15,
      "velocity": 51,
      "chip": "ym2612"
    },
    {
      "channel": 3,
      "note": 72,
      "start": 29.3713,
      "duration": 0.15,
      "velocity": 51,
      "chip": "ym2612"
    },
    {
      "channel": 2,
      "note": 68,
      "start": 29.3716,
      "duration": 0.1505,
      "velocity": 125,
      "chip": "ym2612"
    },
    {
      "channel": 1,
      "note": 57,
      "start": 29.3719,
      "duration": 0.1515,
      "velocity": 104,
      "chip": "ym2612"
    },
    {
      "channel": 0,
      "note": 72,
      "start": 29.3724,
      "duration": 0.1508,
      "velocity": 107,
      "chip": "ym2612"
    },
    {
      "channel": 5,
      "note": 72,
      "start": 29.4212,
      "duration": 0.15,
      "velocity": 51,
      "chip": "ym2612"
    },
    {
      "channel": 3,
      "note": 76,
      "start": 29.5213,
      "duration": 0.1511,
      "velocity": 51,
      "chip": "ym2612"
    },
    {
      "channel": 2,
      "note": 57,
      "start": 29.5221,
      "duration": 0.2998,
      "velocity": 122,
      "chip": "ym2612"
    },
    {
      "channel": 4,
      "note": 67,
      "start": 29.5229,
      "duration": 0.149,
      "velocity": 107,
      "chip": "ym2612"
    },
    {
      "channel": 0,
      "note": 79,
      "start": 29.5232,
      "duration": 0.149,
      "velocity": 107,
      "chip": "ym2612"
    },
    {
      "channel": 5,
      "note": 76,
      "start": 29.5712,
      "duration": 0.1509,
      "velocity": 51,
      "chip": "ym2612"
    },
    {
      "channel": 1,
      "note": 57,
      "start": 29.6717,
      "duration": 0.1505,
      "velocity": 104,
      "chip": "ym2612"
    },
    {
      "channel": 4,
      "note": 72,
      "start": 29.672,
      "duration": 0.1505,
      "velocity": 107,
      "chip": "ym2612"
    },
    {
      "channel": 0,
      "note": 71,
      "start": 29.6722,
      "duration": 0.1505,
      "velocity": 107,
      "chip": "ym2612"
    },
    {
      "channel": 3,
      "note": 72,
      "start": 29.8212,
      "duration": 0.3168,
      "velocity": 51,
      "chip": "ym2612"
    },
    {
      "channel": 2,
      "note": 47,
      "start": 29.8219,
      "duration": 0.1663,
      "velocity": 122,
      "chip": "ym2612"
    },
    {
      "channel": 1,
      "note": 57,
      "start": 29.8222,
      "duration": 0.3168,
      "velocity": 104,
      "chip": "ym2612"
    },
    {
      "channel": 4,
      "note": 79,
      "start": 29.8225,
      "duration": 0.1662,
      "velocity": 107,
      "chip": "ym2612"
    },
    {
      "channel": 0,
      "note": 72,
      "start": 29.8228,
      "duration": 0.1662,
      "velocity": 107,
      "chip": "ym2612"
    },
    {
      "channel": 5,
      "note": 72,
      "start": 29.8878,
      "duration": 0.3,
      "velocity": 51,
      "chip": "ym2612"
    },
    {
      "channel": 2,
      "note": 47,
      "start": 29.9882,
      "duration": 0.1505,
      "velocity": 127,
      "chip": "ym2612"
    },
    {
      "channel": 4,
      "note": 71,
      "start": 29.9887,
      "duration": 0.1505,
      "velocity": 107,
      "chip": "ym2612"
    },
    {
      "channel": 0,
      "note": 79,
      "start": 29.989,
      "duration": 0.1506,
      "velocity": 107,
      "chip": "ym2612"
    },
    {
      "channel": 3,
      "note": 76,
      "start": 30.138,
      "duration": 0.3,
      "velocity": 51,
      "chip": "ym2612"
    },
    {
      "channel": 2,
      "note": 68,
      "start": 30.1387,
      "duration": 0.1495,
      "velocity": 127,
      "chip": "ym2612"
    },
    {
      "channel": 1,
      "note": 57,
      "start": 30.139,
      "duration": 0.2996,
      "velocity": 104,
      "chip": "ym2612"
    },
    {
      "channel": 4,
      "note": 72,
      "start": 30.1392,
      "duration": 0.1494,
      "velocity": 107,
      "chip": "ym2612"
    },
    {
      "channel": 0,
      "note": 67,
      "start": 30.1395,
      "duration": 0.1494,
      "velocity": 107,
      "chip": "ym2612"
    },
    {
      "channel": 5,
      "note": 76,
      "start": 30.1878,
      "duration": 0.3,
      "velocity": 51,
      "chip": "ym2612"
    },
    {
      "channel": 2,
      "note": 68,
      "start": 30.2882,
      "duration": 0.1501,
      "velocity": 127,
      "chip": "ym2612"
    },
    {
      "channel": 4,
      "note": 79,
      "start": 30.2887,
      "duration": 0.1502,
      "velocity": 107,
      "chip": "ym2612"
    },
    {
      "channel": 0,
      "note": 72,
      "start": 30.2889,
      "duration": 0.1502,
      "velocity": 107,
      "chip": "ym2612"
    },
    {
      "channel": 3,
      "note": 72,
      "start": 30.438,
      "duration": 0.3,
      "velocity": 51,
      "chip": "ym2612"
    },
    {
      "channel": 2,
      "note": 68,
      "start": 30.4383,
      "duration": 0.1499,
      "velocity": 127,
      "chip": "ym2612"
    },
    {
      "channel": 1,
      "note": 57,
      "start": 30.4386,
      "duration": 0.1499,
      "velocity": 104,
      "chip": "ym2612"
    },
    {
      "channel": 4,
      "note": 67,
      "start": 30.4389,
      "duration": 0.1499,
      "velocity": 107,
      "chip": "ym2612"
    },
    {
      "channel": 0,
      "note": 79,
      "start": 30.4391,
      "duration": 0.1499,
      "velocity": 107,
      "chip": "ym2612"
    },
    {
      "channel": 5,
      "note": 72,
      "start": 30.4878,
      "duration": 0.3,
      "velocity": 51,
      "chip": "ym2612"
    },
    {
      "channel": 2,
      "note": 68,
      "start": 30.5882,
      "duration": 0.1505,
      "velocity": 125,
      "chip": "ym2612"
    },
    {
      "channel": 1,
      "note": 57,
      "start": 30.5885,
      "duration": 0.1511,
      "velocity": 104,
      "chip": "ym2612"
    },
    {
      "channel": 4,
      "note": 72,
      "start": 30.5888,
      "duration": 0.1504,
      "velocity": 107,
      "chip": "ym2612"
    },
    {
      "channel": 0,
      "note": 71,
      "start": 30.589,
      "duration": 0.1504,
      "velocity": 107,
      "chip": "ym2612"
    },
    {
      "channel": 3,
      "note": 69,
      "start": 30.738,
      "duration": 0.3,
      "velocity": 51,
      "chip": "ym2612"
    },
    {
      "channel": 2,
      "note": 57,
      "start": 30.7388,
      "duration": 0.3,
      "velocity": 122,
      "chip": "ym2612"
    },
    {
      "channel": 4,
      "note": 79,
      "start": 30.7392,
      "duration": 0.1495,
      "velocity": 107,
      "chip": "ym2612"
    },
    {
      "channel": 0,
      "note": 72,
      "start": 30.7394,
      "duration": 0.1495,
      "velocity": 107,
      "chip": "ym2612"
    },
    {
      "channel": 5,
      "note": 69,
      "start": 30.7878,
      "duration": 0.3,
      "velocity": 51,
      "chip": "ym2612"
    },
    {
      "channel": 1,
      "note": 57,
      "start": 30.8884,
      "duration": 0.1506,
      "velocity": 104,
      "chip": "ym2612"
    },
    {
      "channel": 4,
      "note": 71,
      "start": 30.8887,
      "duration": 0.1506,
      "velocity": 107,
      "chip": "ym2612"
    },
    {
      "channel": 0,
      "note": 79,
      "start": 30.889,
      "duration": 0.1506,
      "velocity": 107,
      "chip": "ym2612"
    },
    {
      "channel": 3,
      "note": 64,
      "start": 31.038,
      "duration": 0.3,
      "velocity": 51,
      "chip": "ym2612"
    },
    {
      "channel": 2,
      "note": 47,
      "start": 31.0387,
      "duration": 0.1495,
      "velocity": 122,
      "chip": "ym2612"
    },
    {
      "channel": 1,
      "note": 57,
      "start": 31.039,
      "duration": 0.2996,
      "velocity": 104,
      "chip": "ym2612"
    },
    {
      "channel": 4,
      "note": 72,
      "start": 31.0393,
      "duration": 0.1494,
      "velocity": 107,
      "chip": "ym2612"
    },
    {
      "channel": 0,
      "note": 67,
      "start": 31.0396,
      "duration": 0.1494,
      "velocity": 107,
      "chip": "ym2612"
    },
    {
      "channel": 5,
      "note": 64,
      "start": 31.0878,
      "duration": 0.3,
      "velocity": 51,
      "chip": "ym2612"
    },
    {
      "channel": 2,
      "note": 47,
      "start": 31.1882,
      "duration": 0.1501,
      "velocity": 122,
      "chip": "ym2612"
    },
    {
      "channel": 4,
      "note": 79,
      "start": 31.1887,
      "duration": 0.1502,
      "velocity": 107,
      "chip": "ym2612"
    },
    {
      "channel": 0,
      "note": 72,
      "start": 31.189,
      "duration": 0.1502,
      "velocity": 107,
      "chip": "ym2612"
    },
    {
      "channel": 3,
      "note": 67,
      "start": 31.338,
      "duration": 0.3,
      "velocity": 51,
      "chip": "ym2612"
    },
    {
      "channel": 2,
      "note": 47,
      "start": 31.3383,
      "duration": 0.1503,
      "velocity": 127,
      "chip": "ym2612"
    },
    {
      "channel": 1,
      "note": 55,
      "start": 31.3386,
      "duration": 0.3,
      "velocity": 104,
      "chip": "ym2612"
    },
    {
      "channel": 4,
      "note": 67,
      "start": 31.3389,
      "duration": 0.1501,
      "velocity": 107,
      "chip": "ym2612"
    },
    {
      "channel": 0,
      "note": 79,
      "start": 31.3392,
      "duration": 0.1502,
      "velocity": 107,
      "chip": "ym2612"
    },
    {
      "channel": 5,
      "note": 67,
      "start": 31.3878,
      "duration": 0.3,
      "velocity": 51,
      "chip": "ym2612"
    },
    {
      "channel": 2,
      "note": 68,
      "start": 31.4886,
      "duration": 0.1497,
      "velocity": 127,
      "chip": "ym2612"
    },
    {
      "channel": 4,
      "note": 72,
      "start": 31.4891,
      "duration": 0.1498,
      "velocity": 107,
      "chip": "ym2612"
    },
    {
      "channel": 0,
      "note": 71,
      "start": 31.4893,
      "duration": 0.1498,
      "velocity": 107,
      "chip": "ym2612"
    },
    {
      "channel": 3,
      "note": 67,
      "start": 31.638,
      "duration": 0.15,
      "velocity": 51,
      "chip": "ym2612"
    },
    {
      "channel": 2,
      "note": 68,
      "start": 31.6383,
      "duration": 0.15,
      "velocity": 127,
      "chip": "ym2612"
    },
    {
      "channel": 1,
      "note": 55,
      "start": 31.6386,
      "duration": 0.15,
      "velocity": 104,
      "chip": "ym2612"
    },
    {
      "channel": 4,
      "note": 79,
      "start": 31.6388,
      "duration": 0.15,
      "velocity": 107,
      "chip": "ym2612"
    },
    {
      "channel": 0,
      "note": 72,
      "start": 31.6391,
      "duration": 0.15,
      "velocity": 107,
      "chip": "ym2612"
    },
    {
      "channel": 5,
      "note": 67,
      "start": 31.6878,
      "duration": 0.15,
      "velocity": 51,
      "chip": "ym2612"
    },
    {
      "channel": 3,
      "note": 71,
      "start": 31.788,
      "duration": 0.15,
      "velocity": 51,
      "chip": "ym2612"
    },
    {
      "channel": 2,
      "note": 68,
      "start": 31.7883,
      "duration": 0.1504,
      "velocity": 125,
      "chip": "ym2612"
    },
    {
      "channel": 1,
      "note": 55,
      "start": 31.7886,
      "duration": 0.151,
      "velocity": 104,
      "chip": "ym2612"
    },
    {
      "channel": 4,
      "note": 71,
      "start": 31.7888,
      "duration": 0.1503,
      "velocity": 107,
      "chip": "ym2612"
    },
    {
      "channel": 0,
      "note": 79,
      "start": 31.7891,
      "duration": 0.1503,
      "velocity": 107,
      "chip": "ym2612"
    },
    {
      "channel": 5,
      "note": 71,
      "start": 31.8378,
      "duration": 0.15,
      "velocity": 51,
      "chip": "ym2612"
    },
    {
      "channel": 3,
      "note": 74,
      "start": 31.938,
      "duration": 0.1511,
      "velocity": 51,
      "chip": "ym2612"
    },
    {
      "channel": 2,
      "note": 57,
      "start": 31.9388,
      "duration": 0.2998,
      "velocity": 122,
      "chip": "ym2612"
    },
    {
      "channel": 4,
      "note": 72,
      "start": 31.9392,
      "duration": 0.1495,
      "velocity": 107,
      "chip": "ym2612"
    },
    {
      "channel": 0,
      "note": 67,
      "start": 31.9395,
      "duration": 0.1495,
      "velocity": 107,
      "chip": "ym2612"
    },
    {
      "channel": 5,
      "note": 74,
      "start": 31.9878,
      "duration": 0.1509,
      "velocity": 51,
      "chip": "ym2612"
    },
    {
      "channel": 1,
      "note": 55,
      "start": 32.0883,
      "duration": 0.1505,
      "velocity": 104,
      "chip": "ym2612"
    },
    {
      "channel": 4,
      "note": 79,
      "start": 32.0886,
      "duration": 0.1505,
      "velocity": 107,
      "chip": "ym2612"
    },
    {
      "channel": 0,
      "note": 72,
      "start": 32.0889,
      "duration": 0.1505,
      "velocity": 107,
      "chip": "ym2612"
    },
    {
      "channel": 3,
      "note": 71,
      "start": 32.2379,
      "duration": 0.3001,
      "velocity": 51,
      "chip": "ym2612"
    },
    {
      "channel": 2,
      "note": 47,
      "start": 32.2386,
      "duration": 0.1496,
      "velocity": 122,
      "chip": "ym2612"
    },
    {
      "channel": 1,
      "note": 55,
      "start": 32.2389,
      "duration": 0.3001,
      "velocity": 104,
      "chip": "ym2612"
    },
    {
      "channel": 4,
      "note": 67,
      "start": 32.2392,
      "duration": 0.1495,
      "velocity": 107,
      "chip": "ym2612"
    },
    {
      "channel": 0,
      "note": 79,
      "start": 32.2395,
      "duration": 0.1495,
      "velocity": 107,
      "chip": "ym2612"
    },
    {
      "channel": 5,
      "note": 71,
      "start": 32.2878,
      "duration": 0.3,
      "velocity": 51,
      "chip": "ym2612"
    },
    {
      "channel": 2,
      "note": 47,
      "start": 32.3882,
      "duration": 0.1505,
      "velocity": 127,
      "chip": "ym2612"
    },
    {
      "channel": 4,
      "note": 72,
      "start": 32.3887,
      "duration": 0.1505,
      "velocity": 107,
      "chip": "ym2612"
    },
    {
      "channel": 0,
      "note": 71,
      "start": 32.389,
      "duration": 0.1506,
      "velocity": 107,
      "chip": "ym2612"
    },
    {
      "channel": 3,
      "note": 74,
      "start": 32.538,
      "duration": 0.3,
      "velocity": 51,
      "chip": "ym2612"
    },
    {
      "channel": 2,
      "note": 68,
      "start": 32.5387,
      "duration": 0.1495,
      "velocity": 127,
      "chip": "ym2612"
    },
    {
      "channel": 1,
      "note": 55,
      "start": 32.539,
      "duration": 0.2996,
      "velocity": 104,
      "chip": "ym2612"
    },
    {
      "channel": 4,
      "note": 79,
      "start": 32.5392,
      "duration": 0.1494,
      "velocity": 107,
      "chip": "ym2612"
    },
    {
      "channel": 0,
      "note": 72,
      "start": 32.5395,
      "duration": 0.1494,
      "velocity": 107,
      "chip": "ym2612"
    },
    {
      "channel": 5,
      "note": 74,
      "start": 32.5878,
      "duration": 0.3,
      "velocity": 51,
      "chip": "ym2612"
    },
    {
      "channel": 2,
      "note": 68,
      "start": 32.6882,
      "duration": 0.1501,
      "velocity": 127,
      "chip": "ym2612"
    },
    {
      "channel": 4,
      "note": 71,
      "start": 32.6887,
      "duration": 0.1502,
      "velocity": 107,
      "chip": "ym2612"
    },
    {
      "channel": 0,
      "note": 79,
      "start": 32.6889,
      "duration": 0.1502,
      "velocity": 107,
      "chip": "ym2612"
    },
    {
      "channel": 3,
      "note": 71,
      "start": 32.838,
      "duration": 0.3,
      "velocity": 51,
      "chip": "ym2612"
    },
    {
      "channel": 2,
      "note": 68,
      "start": 32.8383,
      "duration": 0.1499,
      "velocity": 127,
      "chip": "ym2612"
    },
    {
      "channel": 1,
      "note": 55,
      "start": 32.8386,
      "duration": 0.1499,
      "velocity": 104,
      "chip": "ym2612"
    },
    {
      "channel": 4,
      "note": 72,
      "start": 32.8388,
      "duration": 0.1499,
      "velocity": 107,
      "chip": "ym2612"
    },
    {
      "channel": 0,
      "note": 67,
      "start": 32.8392,
      "duration": 0.1499,
      "velocity": 107,
      "chip": "ym2612"
    },
    {
      "channel": 5,
      "note": 71,
      "start": 32.8878,
      "duration": 0.3,
      "velocity": 51,
      "chip": "ym2612"
    },
    {
      "channel": 2,
      "note": 68,
      "start": 32.9882,
      "duration": 0.1505,
      "velocity": 125,
      "chip": "ym2612"
    },
    {
      "channel": 1,
      "note": 55,
      "start": 32.9885,
      "duration": 0.1511,
      "velocity": 104,
      "chip": "ym2612"
    },
    {
      "channel": 4,
      "note": 79,
      "start": 32.9888,
      "duration": 0.1504,
      "velocity": 107,
      "chip": "ym2612"
    },
    {
      "channel": 0,
      "note": 72,
      "start": 32.989,
      "duration": 0.1504,
      "velocity": 107,
      "chip": "ym2612"
    },
    {
      "channel": 3,
      "note": 67,
      "start": 33.138,
      "duration": 0.3,
      "velocity": 51,
      "chip": "ym2612"
    },
    {
      "channel": 2,
      "note": 57,
      "start": 33.1388,
      "duration": 0.3,
      "velocity": 122,
      "chip": "ym2612"
    },
    {
      "channel": 4,
      "note": 67,
      "start": 33.1392,
      "duration": 0.1495,
      "velocity": 107,
      "chip": "ym2612"
    },
    {
      "channel": 0,
      "note": 79,
      "start": 33.1395,
      "duration": 0.1495,
      "velocity": 107,
      "chip": "ym2612"
    },
    {
      "channel": 5,
      "note": 67,
      "start": 33.1878,
      "duration": 0.3,
      "velocity": 51,
      "chip": "ym2612"
    },
    {
      "channel": 1,
      "note": 55,
      "start": 33.2884,
      "duration": 0.1506,
      "velocity": 104,
      "chip": "ym2612"
    },
    {
      "channel": 4,
      "note": 72,
      "start": 33.2887,
      "duration": 0.1506,
      "velocity": 107,
      "chip": "ym2612"
    },
    {
      "channel": 0,
      "note": 71,
      "start": 33.289,
      "duration": 0.1506,
      "velocity": 107,
      "chip": "ym2612"
    },
    {
      "channel": 3,
      "note": 62,
      "start": 33.438,
      "duration": 0.3,
      "velocity": 51,
      "chip": "ym2612"
    },
    {
      "channel": 2,
      "note": 47,
      "start": 33.4387,
      "duration": 0.1495,
      "velocity": 122,
      "chip": "ym2612"
    },
    {
      "channel": 1,
      "note": 55,
      "start": 33.439,
      "duration": 0.2996,
      "velocity": 104,
      "chip": "ym2612"
    },
    {
      "channel": 4,
      "note": 79,
      "start": 33.4393,
      "duration": 0.1494,
      "velocity": 107,
      "chip": "ym2612"
    },
    {
      "channel": 0,
      "note": 72,
      "start": 33.4395,
      "duration": 0.1494,
      "velocity": 107,
      "chip": "ym2612"
    },
    {
      "channel": 5,
      "note": 62,
      "start": 33.4878,
      "duration": 0.3,
      "velocity": 51,
      "chip": "ym2612"
    },
    {
      "channel": 2,
      "note": 47,
      "start": 33.5882,
      "duration": 0.1501,
      "velocity": 122,
      "chip": "ym2612"
    },
    {
      "channel": 4,
      "note": 71,
      "start": 33.5887,
      "duration": 0.1502,
      "velocity": 107,
      "chip": "ym2612"
    },
    {
      "channel": 0,
      "note": 79,
      "start": 33.589,
      "duration": 0.1502,
      "velocity": 107,
      "chip": "ym2612"
    },
    {
      "channel": 3,
      "note": 65,
      "start": 33.738,
      "duration": 0.3,
      "velocity": 51,
      "chip": "ym2612"
    },
    {
      "channel": 2,
      "note": 47,
      "start": 33.7383,
      "duration": 0.1503,
      "velocity": 127,
      "chip": "ym2612"
    },
    {
      "channel": 1,
      "note": 53,
      "start": 33.7386,
      "duration": 0.3,
      "velocity": 104,
      "chip": "ym2612"
    },
    {
      "channel": 4,
      "note": 72,
      "start": 33.7389,
      "duration": 0.1502,
      "velocity": 107,
      "chip": "ym2612"
    },
    {
      "channel": 0,
      "note": 71,
      "start": 33.7392,
      "duration": 0.1501,
      "velocity": 107,
      "chip": "ym2612"
    },
    {
      "channel": 5,
      "note": 65,
      "start": 33.7878,
      "duration": 0.3,
      "velocity": 51,
      "chip": "ym2612"
    },
    {
      "channel": 2,
      "note": 68,
      "start": 33.8886,
      "duration": 0.1497,
      "velocity": 127,
      "chip": "ym2612"
    },
    {
      "channel": 4,
      "note": 79,
      "start": 33.8891,
      "duration": 0.1498,
      "velocity": 107,
      "chip": "ym2612"
    },
    {
      "channel": 0,
      "note": 72,
      "start": 33.8893,
      "duration": 0.1498,
      "velocity": 107,
      "chip": "ym2612"
    },
    {
      "channel": 3,
      "note": 65,
      "start": 34.038,
      "duration": 0.1666,
      "velocity": 51,
      "chip": "ym2612"
    },
    {
      "channel": 2,
      "note": 68,
      "start": 34.0383,
      "duration": 0.1666,
      "velocity": 127,
      "chip": "ym2612"
    },
    {
      "channel": 1,
      "note": 53,
      "start": 34.0386,
      "duration": 0.1666,
      "velocity": 104,
      "chip": "ym2612"
    },
    {
      "channel": 4,
      "note": 71,
      "start": 34.0389,
      "duration": 0.1666,
      "velocity": 107,
      "chip": "ym2612"
    },
    {
      "channel": 0,
      "note": 77,
      "start": 34.0392,
      "duration": 0.1666,
      "velocity": 107,
      "chip": "ym2612"
    },
    {
      "channel": 5,
      "note": 65,
      "start": 34.0878,
      "duration": 0.1667,
      "velocity": 51,
      "chip": "ym2612"
    },
    {
      "channel": 3,
      "note": 69,
      "start": 34.2047,
      "duration": 0.15,
      "velocity": 51,
      "chip": "ym2612"
    },
    {
      "channel": 2,
      "note": 68,
      "start": 34.205,
      "duration": 0.1504,
      "velocity": 125,
      "chip": "ym2612"
    },
    {
      "channel": 1,
      "note": 53,
      "start": 34.2052,
      "duration": 0.151,
      "velocity": 104,
      "chip": "ym2612"
    },
    {
      "channel": 4,
      "note": 72,
      "start": 34.2055,
      "duration": 0.1503,
      "velocity": 107,
      "chip": "ym2612"
    },
    {
      "channel": 0,
      "note": 71,
      "start": 34.2058,
      "duration": 0.1503,
      "velocity": 107,
      "chip": "ym2612"
    },
    {
      "channel": 5,
      "note": 69,
      "start": 34.2545,
      "duration": 0.15,
      "velocity": 51,
      "chip": "ym2612"
    },
    {
      "channel": 3,
      "note": 72,
      "start": 34.3547,
      "duration": 0.1511,
      "velocity": 51,
      "chip": "ym2612"
    },
    {
      "channel": 2,
      "note": 57,
      "start": 34.3554,
      "duration": 0.2998,
      "velocity": 122,
      "chip": "ym2612"
    },
    {
      "channel": 4,
      "note": 77,
      "start": 34.3558,
      "duration": 0.1495,
      "velocity": 107,
      "chip": "ym2612"
    },
    {
      "channel": 0,
      "note": 72,
      "start": 34.3561,
      "duration": 0.1495,
      "velocity": 107,
      "chip": "ym2612"
    },
    {
      "channel": 5,
      "note": 72,
      "start": 34.4045,
      "duration": 0.1509,
      "velocity": 51,
      "chip": "ym2612"
    },
    {
      "channel": 1,
      "note": 53,
      "start": 34.505,
      "duration": 0.1505,
      "velocity": 104,
      "chip": "ym2612"
    },
    {
      "channel": 4,
      "note": 71,
      "start": 34.5053,
      "duration": 0.1505,
      "velocity": 107,
      "chip": "ym2612"
    },
    {
      "channel": 0,
      "note": 79,
      "start": 34.5056,
      "duration": 0.1505,
      "velocity": 107,
      "chip": "ym2612"
    },
    {
      "channel": 3,
      "note": 69,
      "start": 34.6546,
      "duration": 0.3001,
      "velocity": 51,
      "chip": "ym2612"
    },
    {
      "channel": 2,
      "note": 47,
      "start": 34.6553,
      "duration": 0.1496,
      "velocity": 122,
      "chip": "ym2612"
    },
    {
      "channel": 1,
      "note": 53,
      "start": 34.6555,
      "duration": 0.3001,
      "velocity": 104,
      "chip": "ym2612"
    },
    {
      "channel": 4,
      "note": 72,
      "start": 34.6558,
      "duration": 0.1495,
      "velocity": 107,
      "chip": "ym2612"
    },
    {
      "channel": 0,
      "note": 71,
      "start": 34.6561,
      "duration": 0.1495,
      "velocity": 107,
      "chip": "ym2612"
    },
    {
      "channel": 5,
      "note": 69,
      "start": 34.7045,
      "duration": 0.3,
      "velocity": 51,
      "chip": "ym2612"
    },
    {
      "channel": 2,
      "note": 47,
      "start": 34.8049,
      "duration": 0.1505,
      "velocity": 127,
      "chip": "ym2612"
    },
    {
      "channel": 4,
      "note": 79,
      "start": 34.8054,
      "duration": 0.1506,
      "velocity": 107,
      "chip": "ym2612"
    },
    {
      "channel": 0,
      "note": 72,
      "start": 34.8056,
      "duration": 0.1506,
      "velocity": 107,
      "chip": "ym2612"
    },
    {
      "channel": 3,
      "note": 72,
      "start": 34.9546,
      "duration": 0.3,
      "velocity": 51,
      "chip": "ym2612"
    },
    {
      "channel": 2,
      "note": 68,
      "start": 34.9554,
      "duration": 0.1495,
      "velocity": 127,
      "chip": "ym2612"
    },
    {
      "channel": 1,
      "note": 53,
      "start": 34.9556,
      "duration": 0.2996,
      "velocity": 104,
      "chip": "ym2612"
    },
    {
      "channel": 4,
      "note": 71,
      "start": 34.9559,
      "duration": 0.1494,
      "velocity": 107,
      "chip": "ym2612"
    },
    {
      "channel": 0,
      "note": 77,
      "start": 34.9562,
      "duration": 0.1494,
      "velocity": 107,
      "chip": "ym2612"
    },
    {
      "channel": 5,
      "note": 72,
      "start": 35.0045,
      "duration": 0.3,
      "velocity": 51,
      "chip": "ym2612"
    },
    {
      "channel": 2,
      "note": 68,
      "start": 35.1049,
      "duration": 0.1501,
      "velocity": 127,
      "chip": "ym2612"
    },
    {
      "channel": 4,
      "note": 72,
      "start": 35.1053,
      "duration": 0.1502,
      "velocity": 107,
      "chip": "ym2612"
    },
    {
      "channel": 0,
      "note": 71,
      "start": 35.1056,
      "duration": 0.1502,
      "velocity": 107,
      "chip": "ym2612"
    },
    {
      "channel": 3,
      "note": 69,
      "start": 35.2547,
      "duration": 0.3,
      "velocity": 51,
      "chip": "ym2612"
    },
    {
      "channel": 2,
      "note": 68,
      "start": 35.255,
      "duration": 0.1499,
      "velocity": 127,
      "chip": "ym2612"
    },
    {
      "channel": 1,
      "note": 53,
      "start": 35.2552,
      "duration": 0.1499,
      "velocity": 104,
      "chip": "ym2612"
    },
    {
      "channel": 4,
      "note": 77,
      "start": 35.2555,
      "duration": 0.1499,
      "velocity": 107,
      "chip": "ym2612"
    },
    {
      "channel": 0,
      "note": 72,
      "start": 35.2558,
      "duration": 0.1499,
      "velocity": 107,
      "chip": "ym2612"
    },
    {
      "channel": 5,
      "note": 69,
      "start": 35.3045,
      "duration": 0.3,
      "velocity": 51,
      "chip": "ym2612"
    },
    {
      "channel": 2,
      "note": 68,
      "start": 35.4049,
      "duration": 0.1505,
      "velocity": 125,
      "chip": "ym2612"
    },
    {
      "channel": 1,
      "note": 53,
      "start": 35.4051,
      "duration": 0.1511,
      "velocity": 104,
      "chip": "ym2612"
    },
    {
      "channel": 4,
      "note": 71,
      "start": 35.4054,
      "duration": 0.1504,
      "velocity": 107,
      "chip": "ym2612"
    },
    {
      "channel": 0,
      "note": 79,
      "start": 35.4057,
      "duration": 0.1504,
      "velocity": 107,
      "chip": "ym2612"
    },
    {
      "channel": 3,
      "note": 65,
      "start": 35.5546,
      "duration": 0.3,
      "velocity": 51,
      "chip": "ym2612"
    },
    {
      "channel": 2,
      "note": 57,
      "start": 35.5554,
      "duration": 0.3,
      "velocity": 122,
      "chip": "ym2612"
    },
    {
      "channel": 4,
      "note": 72,
      "start": 35.5558,
      "duration": 0.1495,
      "velocity": 107,
      "chip": "ym2612"
    },
    {
      "channel": 0,
      "note": 71,
      "start": 35.5561,
      "duration": 0.1495,
      "velocity": 107,
      "chip": "ym2612"
    },
    {
      "channel": 5,
      "note": 65,
      "start": 35.6045,
      "duration": 0.3,
      "velocity": 51,
      "chip": "ym2612"
    },
    {
      "channel": 1,
      "note": 53,
      "start": 35.7051,
      "duration": 0.1506,
      "velocity": 104,
      "chip": "ym2612"
    },
    {
      "channel": 4,
      "note": 79,
      "start": 35.7054,
      "duration": 0.1506,
      "velocity": 107,
      "chip": "ym2612"
    },
    {
      "channel": 0,
      "note": 72,
      "start": 35.7056,
      "duration": 0.1506,
      "velocity": 107,
      "chip": "ym2612"
    },
    {
      "channel": 3,
      "note": 60,
      "start": 35.8547,
      "duration": 0.3,
      "velocity": 51,
      "chip": "ym2612"
    },
    {
      "channel": 2,
      "note": 47,
      "start": 35.8554,
      "duration": 0.1495,
      "velocity": 122,
      "chip": "ym2612"
    },
    {
      "channel": 1,
      "note": 53,
      "start": 35.8556,
      "duration": 0.2996,
      "velocity": 104,
      "chip": "ym2612"
    },
    {
      "channel": 4,
      "note": 71,
      "start": 35.856,
      "duration": 0.1494,
      "velocity": 107,
      "chip": "ym2612"
    },
    {
      "channel": 0,
      "note": 77,
      "start": 35.8562,
      "duration": 0.1494,
      "velocity": 107,
      "chip": "ym2612"
    },
    {
      "channel": 5,
      "note": 60,
      "start": 35.9045,
      "duration": 0.3,
      "velocity": 51,
      "chip": "ym2612"
    },
    {
      "channel": 2,
      "note": 47,
      "start": 36.0049,
      "duration": 0.1501,
      "velocity": 122,
      "chip": "ym2612"
    },
    {
      "channel": 4,
      "note": 72,
      "start": 36.0054,
      "duration": 0.1502,
      "velocity": 107,
      "chip": "ym2612"
    },
    {
      "channel": 0,
      "note": 71,
      "start": 36.0056,
      "duration": 0.1502,
      "velocity": 107,
      "chip": "ym2612"
    },
    {
      "channel": 3,
      "note": 64,
      "start": 36.1546,
      "duration": 0.3,
      "velocity": 51,
      "chip": "ym2612"
    },
    {
      "channel": 2,
      "note": 47,
      "start": 36.155,
      "duration": 0.1503,
      "velocity": 127,
      "chip": "ym2612"
    },
    {
      "channel": 1,
      "note": 52,
      "start": 36.1553,
      "duration": 0.3,
      "velocity": 104,
      "chip": "ym2612"
    },
    {
      "channel": 4,
      "note": 77,
      "start": 36.1556,
      "duration": 0.1502,
      "velocity": 107,
      "chip": "ym2612"
    },
    {
      "channel": 0,
      "note": 72,
      "start": 36.1558,
      "duration": 0.1502,
      "velocity": 107,
      "chip": "ym2612"
    },
    {
      "channel": 5,
      "note": 64,
      "start": 36.2045,
      "duration": 0.3,
      "velocity": 51,
      "chip": "ym2612"
    },
    {
      "channel": 2,
      "note": 68,
      "start": 36.3053,
      "duration": 0.1497,
      "velocity": 127,
      "chip": "ym2612"
    },
    {
      "channel": 4,
      "note": 71,
      "start": 36.3057,
      "duration": 0.1498,
      "velocity": 107,
      "chip": "ym2612"
    },
    {
      "channel": 0,
      "note": 79,
      "start": 36.306,
      "duration": 0.1498,
      "velocity": 107,
      "chip": "ym2612"
    },
    {
      "channel": 3,
      "note": 64,
      "start": 36.4547,
      "duration": 0.15,
      "velocity": 51,
      "chip": "ym2612"
    },
    {
      "channel": 2,
      "note": 68,
      "start": 36.455,
      "duration": 0.15,
      "velocity": 127,
      "chip": "ym2612"
    },
    {
      "channel": 1,
      "note": 52,
      "start": 36.4552,
      "duration": 0.15,
      "velocity": 104,
      "chip": "ym2612"
    },
    {
      "channel": 4,
      "note": 72,
      "start": 36.4555,
      "duration": 0.15,
      "velocity": 107,
      "chip": "ym2612"
    },
    {
      "channel": 0,
      "note": 77,
      "start": 36.4558,
      "duration": 0.15,
      "velocity": 107,
      "chip": "ym2612"
    },
    {
      "channel": 5,
      "note": 64,
      "start": 36.5045,
      "duration": 0.15,
      "velocity": 51,
      "chip": "ym2612"
    },
    {
      "channel": 3,
      "note": 68,
      "start": 36.6047,
      "duration": 0.15,
      "velocity": 51,
      "chip": "ym2612"
    },
    {
      "channel": 2,
      "note": 68,
      "start": 36.605,
      "duration": 0.1504,
      "velocity": 125,
      "chip": "ym2612"
    },
    {
      "channel": 1,
      "note": 52,
      "start": 36.6052,
      "duration": 0.151,
      "velocity": 104,
      "chip": "ym2612"
    },
    {
      "channel": 4,
      "note": 79,
      "start": 36.6055,
      "duration": 0.1503,
      "velocity": 107,
      "chip": "ym2612"
    },
    {
      "channel": 0,
      "note": 76,
      "start": 36.6058,
      "duration": 0.1503,
      "velocity": 107,
      "chip": "ym2612"
    },
    {
      "channel": 5,
      "note": 68,
      "start": 36.6545,
      "duration": 0.15,
      "velocity": 51,
      "chip": "ym2612"
    },
    {
      "channel": 3,
      "note": 71,
      "start": 36.7547,
      "duration": 0.1511,
      "velocity": 51,
      "chip": "ym2612"
    },
    {
      "channel": 2,
      "note": 57,
      "start": 36.7554,
      "duration": 0.2998,
      "velocity": 122,
      "chip": "ym2612"
    },
    {
      "channel": 4,
      "note": 77,
      "start": 36.7559,
      "duration": 0.1495,
      "velocity": 107,
      "chip": "ym2612"
    },
    {
      "channel": 0,
      "note": 77,
      "start": 36.7561,
      "duration": 0.1495,
      "velocity": 107,
      "chip": "ym2612"
    },
    {
      "channel": 5,
      "note": 71,
      "start": 36.8045,
      "duration": 0.1509,
      "velocity": 51,
      "chip": "ym2612"
    },
    {
      "channel": 1,
      "note": 52,
      "start": 36.905,
      "duration": 0.1505,
      "velocity": 104,
      "chip": "ym2612"
    },
    {
      "channel": 4,
      "note": 76,
      "start": 36.9053,
      "duration": 0.1505,
      "velocity": 107,
      "chip": "ym2612"
    },
    {
      "channel": 0,
      "note": 74,
      "start": 36.9056,
      "duration": 0.1505,
      "velocity": 107,
      "chip": "ym2612"
    },
    {
      "channel": 3,
      "note": 68,
      "start": 37.0546,
      "duration": 0.3001,
      "velocity": 51,
      "chip": "ym2612"
    },
    {
      "channel": 2,
      "note": 47,
      "start": 37.0553,
      "duration": 0.1496,
      "velocity": 122,
      "chip": "ym2612"
    },
    {
      "channel": 1,
      "note": 52,
      "start": 37.0555,
      "duration": 0.3001,
      "velocity": 104,
      "chip": "ym2612"
    },
    {
      "channel": 4,
      "note": 77,
      "start": 37.0558,
      "duration": 0.1495,
      "velocity": 107,
      "chip": "ym2612"
    },
    {
      "channel": 0,
      "note": 72,
      "start": 37.0561,
      "duration": 0.1495,
      "velocity": 107,
      "chip": "ym2612"
    },
    {
      "channel": 5,
      "note": 68,
      "start": 37.1045,
      "duration": 0.3,
      "velocity": 51,
      "chip": "ym2612"
    },
    {
      "channel": 2,
      "note": 47,
      "start": 37.2049,
      "duration": 0.1505,
      "velocity": 127,
      "chip": "ym2612"
    },
    {
      "channel": 4,
      "note": 74,
      "start": 37.2054,
      "duration": 0.1505,
      "velocity": 107,
      "chip": "ym2612"
    },
    {
      "channel": 0,
      "note": 74,
      "start": 37.2056,
      "duration": 0.1506,
      "velocity": 107,
      "chip": "ym2612"
    },
    {
      "channel": 3,
      "note": 71,
      "start": 37.3547,
      "duration": 0.3,
      "velocity": 51,
      "chip": "ym2612"
    },
    {
      "channel": 2,
      "note": 68,
      "start": 37.3554,
      "duration": 0.1495,
      "velocity": 127,
      "chip": "ym2612"
    },
    {
      "channel": 1,
      "note": 52,
      "start": 37.3556,
      "duration": 0.2996,
      "velocity": 104,
      "chip": "ym2612"
    },
    {
      "channel": 4,
      "note": 72,
      "start": 37.3559,
      "duration": 0.1494,
      "velocity": 107,
      "chip": "ym2612"
    },
    {
      "channel": 0,
      "note": 72,
      "start": 37.3562,
      "duration": 0.1494,
      "velocity": 107,
      "chip": "ym2612"
    },
    {
      "channel": 5,
      "note": 71,
      "start": 37.4045,
      "duration": 0.3,
      "velocity": 51,
      "chip": "ym2612"
    },
    {
      "channel": 2,
      "note": 68,
      "start": 37.5049,
      "duration": 0.1501,
      "velocity": 127,
      "chip": "ym2612"
    },
    {
      "channel": 4,
      "note": 74,
      "start": 37.5053,
      "duration": 0.1502,
      "velocity": 107,
      "chip": "ym2612"
    },
    {
      "channel": 0,
      "note": 71,
      "start": 37.5056,
      "duration": 0.1502,
      "velocity": 107,
      "chip": "ym2612"
    },
    {
      "channel": 3,
      "note": 68,
      "start": 37.6546,
      "duration": 0.3,
      "velocity": 51,
      "chip": "ym2612"
    },
    {
      "channel": 2,
      "note": 68,
      "start": 37.655,
      "duration": 0.1499,
      "velocity": 127,
      "chip": "ym2612"
    },
    {
      "channel": 1,
      "note": 52,
      "start": 37.6552,
      "duration": 0.1499,
      "velocity": 104,
      "chip": "ym2612"
    },
    {
      "channel": 4,
      "note": 72,
      "start": 37.6555,
      "duration": 0.1499,
      "velocity": 107,
      "chip": "ym2612"
    },
    {
      "channel": 0,
      "note": 71,
      "start": 37.6558,
      "duration": 0.1499,
      "velocity": 107,
      "chip": "ym2612"
    },
    {
      "channel": 5,
      "note": 68,
      "start": 37.7045,
      "duration": 0.3,
      "velocity": 51,
      "chip": "ym2612"
    },
    {
      "channel": 2,
      "note": 68,
      "start": 37.8049,
      "duration": 0.1505,
      "velocity": 125,
      "chip": "ym2612"
    },
    {
      "channel": 1,
      "note": 52,
      "start": 37.8051,
      "duration": 0.151,
      "velocity": 104,
      "chip": "ym2612"
    },
    {
      "channel": 4,
      "note": 71,
      "start": 37.8054,
      "duration": 0.1504,
      "velocity": 107,
      "chip": "ym2612"
    },
    {
      "channel": 0,
      "note": 69,
      "start": 37.8057,
      "duration": 0.1504,
      "velocity": 107,
      "chip": "ym2612"
    },
    {
      "channel": 3,
      "note": 64,
      "start": 37.9547,
      "duration": 0.3,
      "velocity": 51,
      "chip": "ym2612"
    },
    {
      "channel": 2,
      "note": 57,
      "start": 37.9554,
      "duration": 0.3,
      "velocity": 122,
      "chip": "ym2612"
    },
    {
      "channel": 4,
      "note": 71,
      "start": 37.9558,
      "duration": 0.1495,
      "velocity": 107,
      "chip": "ym2612"
    },
    {
      "channel": 5,
      "note": 64,
      "start": 38.0045,
      "duration": 0.3,
      "velocity": 51,
      "chip": "ym2612"
    },
    {
      "channel": 1,
      "note": 52,
      "start": 38.1051,
      "duration": 0.1506,
      "velocity": 104,
      "chip": "ym2612"
    },
    {
      "channel": 4,
      "note": 69,
      "start": 38.1054,
      "duration": 0.1509,
      "velocity": 107,
      "chip": "ym2612"
    },
    {
      "channel": 3,
      "note": 59,
      "start": 38.2547,
      "duration": 0.3167,
      "velocity": 51,
      "chip": "ym2612"
    },
    {
      "channel": 2,
      "note": 47,
      "start": 38.2554,
      "duration": 0.1662,
      "velocity": 122,
      "chip": "ym2612"
    },
    {
      "channel": 1,
      "note": 52,
      "start": 38.2556,
      "duration": 0.3163,
      "velocity": 104,
      "chip": "ym2612"
    },
    {
      "channel": 0,
      "note": 67,
      "start": 38.2561,
      "duration": 0.3165,
      "velocity": 107,
      "chip": "ym2612"
    },
    {
      "channel": 5,
      "note": 59,
      "start": 38.3045,
      "duration": 0.3167,
      "velocity": 51,
      "chip": "ym2612"
    },
    {
      "channel": 2,
      "note": 47,
      "start": 38.4215,
      "duration": 0.1501,
      "velocity": 122,
      "chip": "ym2612"
    },
    {
      "channel": 3,
      "note": 69,
      "start": 38.5714,
      "duration": 0.3,
      "velocity": 51,
      "chip": "ym2612"
    },
    {
      "channel": 2,
      "note": 47,
      "start": 38.5717,
      "duration": 0.1502,
      "velocity": 127,
      "chip": "ym2612"
    },
    {
      "channel": 1,
      "note": 57,
      "start": 38.572,
      "duration": 0.2999,
      "velocity": 104,
      "chip": "ym2612"
    },
    {
      "channel": 4,
      "note": 67,
      "start": 38.5723,
      "duration": 0.2999,
      "velocity": 107,
      "chip": "ym2612"
    },
    {
      "channel": 0,
      "note": 69,
      "start": 38.5725,
      "duration": 0.15,
      "velocity": 107,
      "chip": "ym2612"
    },
    {
      "channel": 5,
      "note": 69,
      "start": 38.6212,
      "duration": 0.3,
      "velocity": 51,
      "chip": "ym2612"
    },
    {
      "channel": 2,
      "note": 68,
      "start": 38.7219,
      "duration": 0.1497,
      "velocity": 127,
      "chip": "ym2612"
    },
    {
      "channel": 0,
      "note": 71,
      "start": 38.7226,
      "duration": 0.1499,
      "velocity": 107,
      "chip": "ym2612"
    },
    {
      "channel": 3,
      "note": 69,
      "start": 38.8713,
      "duration": 0.15,
      "velocity": 51,
      "chip": "ym2612"
    },
    {
      "channel": 2,
      "note": 68,
      "start": 38.8716,
      "duration": 0.15,
      "velocity": 127,
      "chip": "ym2612"
    },
    {
      "channel": 1,
      "note": 57,
      "start": 38.8719,
      "duration": 0.15,
      "velocity": 104,
      "chip": "ym2612"
    },
    {
      "channel": 4,
      "note": 69,
      "start": 38.8722,
      "duration": 0.15,
      "velocity": 107,
      "chip": "ym2612"
    },
    {
      "channel": 0,
      "note": 72,
      "start": 38.8725,
      "duration": 0.15,
      "velocity": 107,
      "chip": "ym2612"
    },
    {
      "channel": 5,
      "note": 69,
      "start": 38.9212,
      "duration": 0.15,
      "velocity": 51,
      "chip": "ym2612"
    },
    {
      "channel": 3,
      "note": 72,
      "start": 39.0213,
      "duration": 0.15,
      "velocity": 51,
      "chip": "ym2612"
    },
    {
      "channel": 2,
      "note": 68,
      "start": 39.0216,
      "duration": 0.1504,
      "velocity": 125,
      "chip": "ym2612"
    },
    {
      "channel": 1,
      "note": 57,
      "start": 39.0219,
      "duration": 0.1509,
      "velocity": 104,
      "chip": "ym2612"
    },
    {
      "channel": 4,
      "note": 71,
      "start": 39.0222,
      "duration": 0.1503,
      "velocity": 107,
      "chip": "ym2612"
    },
    {
      "channel": 0,
      "note": 69,
      "start": 39.0225,
      "duration": 0.1503,
      "velocity": 107,
      "chip": "ym2612"
    },
    {
      "channel": 5,
      "note": 72,
      "start": 39.0712,
      "duration": 0.15,
      "velocity": 51,
      "chip": "ym2612"
    },
    {
      "channel": 3,
      "note": 76,
      "start": 39.1713,
      "duration": 0.1511,
      "velocity": 51,
      "chip": "ym2612"
    },
    {
      "channel": 2,
      "note": 57,
      "start": 39.1721,
      "duration": 0.2998,
      "velocity": 122,
      "chip": "ym2612"
    },
    {
      "channel": 4,
      "note": 72,
      "start": 39.1725,
      "duration": 0.1495,
      "velocity": 107,
      "chip": "ym2612"
    },
    {
      "channel": 5,
      "note": 76,
      "start": 39.2212,
      "duration": 0.1509,
      "velocity": 51,
      "chip": "ym2612"
    },
    {
      "channel": 1,
      "note": 57,
      "start": 39.3217,
      "duration": 0.1505,
      "velocity": 104,
      "chip": "ym2612"
    },
    {
      "channel": 4,
      "note": 69,
      "start": 39.322,
      "duration": 0.1507,
      "velocity": 107,
      "chip": "ym2612"
    },
    {
      "channel": 0,
      "note": 71,
      "start": 39.3222,
      "duration": 0.3,
      "velocity": 107,
      "chip": "ym2612"
    },
    {
      "channel": 3,
      "note": 72,
      "start": 39.4712,
      "duration": 0.3001,
      "velocity": 51,
      "chip": "ym2612"
    },
    {
      "channel": 2,
      "note": 47,
      "start": 39.4719,
      "duration": 0.1496,
      "velocity": 122,
      "chip": "ym2612"
    },
    {
      "channel": 1,
      "note": 57,
      "start": 39.4722,
      "duration": 0.3001,
      "velocity": 104,
      "chip": "ym2612"
    },
    {
      "channel": 5,
      "note": 72,
      "start": 39.5212,
      "duration": 0.3,
      "velocity": 51,
      "chip": "ym2612"
    },
    {
      "channel": 2,
      "note": 47,
      "start": 39.6215,
      "duration": 0.1505,
      "velocity": 127,
      "chip": "ym2612"
    },
    {
      "channel": 4,
      "note": 71,
      "start": 39.622,
      "duration": 0.3,
      "velocity": 107,
      "chip": "ym2612"
    },
    {
      "channel": 0,
      "note": 72,
      "start": 39.6223,
      "duration": 0.1505,
      "velocity": 107,
      "chip": "ym2612"
    },
    {
      "channel": 3,
      "note": 76,
      "start": 39.7713,
      "duration": 0.3,
      "velocity": 51,
      "chip": "ym2612"
    },
    {
      "channel": 2,
      "note": 68,
      "start": 39.772,
      "duration": 0.1495,
      "velocity": 127,
      "chip": "ym2612"
    },
    {
      "channel": 1,
      "note": 57,
      "start": 39.7723,
      "duration": 0.2996,
      "velocity": 104,
      "chip": "ym2612"
    },
    {
      "channel": 0,
      "note": 74,
      "start": 39.7728,
      "duration": 0.1495,
      "velocity": 107,
      "chip": "ym2612"
    },
    {
      "channel": 5,
      "note": 76,
      "start": 39.8212,
      "duration": 0.3,
      "velocity": 51,
      "chip": "ym2612"
    },
    {
      "channel": 2,
      "note": 68,
      "start": 39.9215,
      "duration": 0.1501,
      "velocity": 127,
      "chip": "ym2612"
    },
    {
      "channel": 4,
      "note": 72,
      "start": 39.922,
      "duration": 0.1502,
      "velocity": 107,
      "chip": "ym2612"
    },
    {
      "channel": 3,
      "note": 72,
      "start": 40.0713,
      "duration": 0.3,
      "velocity": 51,
      "chip": "ym2612"
    },
    {
      "channel": 2,
      "note": 68,
      "start": 40.0716,
      "duration": 0.1499,
      "velocity": 127,
      "chip": "ym2612"
    },
    {
      "channel": 1,
      "note": 57,
      "start": 40.0719,
      "duration": 0.1499,
      "velocity": 104,
      "chip": "ym2612"
    },
    {
      "channel": 4,
      "note": 74,
      "start": 40.0722,
      "duration": 0.1502,
      "velocity": 107,
      "chip": "ym2612"
    },
    {
      "channel": 0,
      "note": 72,
      "start": 40.0725,
      "duration": 0.1498,
      "velocity": 107,
      "chip": "ym2612"
    },
    {
      "channel": 5,
      "note": 72,
      "start": 40.1212,
      "duration": 0.3,
      "velocity": 51,
      "chip": "ym2612"
    },
    {
      "channel": 2,
      "note": 68,
      "start": 40.2215,
      "duration": 0.1505,
      "velocity": 125,
      "chip": "ym2612"
    },
    {
      "channel": 1,
      "note": 57,
      "start": 40.2218,
      "duration": 0.151,
      "velocity": 104,
      "chip": "ym2612"
    },
    {
      "channel": 0,
      "note": 67,
      "start": 40.2222,
      "duration": 0.7502,
      "velocity": 107,
      "chip": "ym2612"
    },
    {
      "channel": 3,
      "note": 69,
      "start": 40.3713,
      "duration": 0.3,
      "velocity": 51,
      "chip": "ym2612"
    },
    {
      "channel": 2,
      "note": 57,
      "start": 40.3721,
      "duration": 0.3,
      "velocity": 122,
      "chip": "ym2612"
    },
    {
      "channel": 4,
      "note": 72,
      "start": 40.3725,
      "duration": 0.1495,
      "velocity": 107,
      "chip": "ym2612"
    },
    {
      "channel": 5,
      "note": 69,
      "start": 40.4212,
      "duration": 0.3,
      "velocity": 51,
      "chip": "ym2612"
    },
    {
      "channel": 1,
      "note": 57,
      "start": 40.5217,
      "duration": 0.1506,
      "velocity": 104,
      "chip": "ym2612"
    },
    {
      "channel": 4,
      "note": 67,
      "start": 40.522,
      "duration": 0.7502,
      "velocity": 107,
      "chip": "ym2612"
    },
    {
      "channel": 3,
      "note": 64,
      "start": 40.6713,
      "duration": 0.3,
      "velocity": 51,
      "chip": "ym2612"
    },
    {
      "channel": 2,
      "note": 47,
      "start": 40.672,
      "duration": 0.1495,
      "velocity": 122,
      "chip": "ym2612"
    },
    {
      "channel": 1,
      "note": 57,
      "start": 40.6723,
      "duration": 0.2996,
      "velocity": 104,
      "chip": "ym2612"
    },
    {
      "channel": 5,
      "note": 64,
      "start": 40.7212,
      "duration": 0.3,
      "velocity": 51,
      "chip": "ym2612"
    },
    {
      "channel": 2,
      "note": 47,
      "start": 40.8215,
      "duration": 0.1501,
      "velocity": 122,
      "chip": "ym2612"
    },
    {
      "channel": 3,
      "note": 67,
      "start": 40.9713,
      "duration": 0.3,
      "velocity": 51,
      "chip": "ym2612"
    },
    {
      "channel": 2,
      "note": 47,
      "start": 40.9717,
      "duration": 0.1503,
      "velocity": 127,
      "chip": "ym2612"
    },
    {
      "channel": 1,
      "note": 55,
      "start": 40.9719,
      "duration": 0.3,
      "velocity": 104,
      "chip": "ym2612"
    },
    {
      "channel": 0,
      "note": 69,
      "start": 40.9724,
      "duration": 0.1502,
      "velocity": 107,
      "chip": "ym2612"
    },
    {
      "channel": 5,
      "note": 67,
      "start": 41.0212,
      "duration": 0.3,
      "velocity": 51,
      "chip": "ym2612"
    },
    {
      "channel": 2,
      "note": 68,
      "start": 41.1219,
      "duration": 0.1497,
      "velocity": 127,
      "chip": "ym2612"
    },
    {
      "channel": 0,
      "note": 71,
      "start": 41.1226,
      "duration": 0.1499,
      "velocity": 107,
      "chip": "ym2612"
    },
    {
      "channel": 3,
      "note": 67,
      "start": 41.2713,
      "duration": 0.15,
      "velocity": 51,
      "chip": "ym2612"
    },
    {
      "channel": 2,
      "note": 68,
      "start": 41.2716,
      "duration": 0.15,
      "velocity": 127,
      "chip": "ym2612"
    },
    {
      "channel": 1,
      "note": 55,
      "start": 41.2719,
      "duration": 0.15,
      "velocity": 104,
      "chip": "ym2612"
    },
    {
      "channel": 4,
      "note": 69,
      "start": 41.2722,
      "duration": 0.15,
      "velocity": 107,
      "chip": "ym2612"
    },
    {
      "channel": 0,
      "note": 72,
      "start": 41.2725,
      "duration": 0.15,
      "velocity": 107,
      "chip": "ym2612"
    },
    {
      "channel": 5,
      "note": 67,
      "start": 41.3212,
      "duration": 0.15,
      "velocity": 51,
      "chip": "ym2612"
    },
    {
      "channel": 3,
      "note": 71,
      "start": 41.4213,
      "duration": 0.15,
      "velocity": 51,
      "chip": "ym2612"
    },
    {
      "channel": 2,
      "note": 68,
      "start": 41.4216,
      "duration": 0.1504,
      "velocity": 125,
      "chip": "ym2612"
    },
    {
      "channel": 1,
      "note": 55,
      "start": 41.4219,
      "duration": 0.1509,
      "velocity": 104,
      "chip": "ym2612"
    },
    {
      "channel": 4,
      "note": 71,
      "start": 41.4222,
      "duration": 0.1503,
      "velocity": 107,
      "chip": "ym2612"
    },
    {
      "channel": 0,
      "note": 69,
      "start": 41.4225,
      "duration": 0.1503,
      "velocity": 107,
      "chip": "ym2612"
    },
    {
      "channel": 5,
      "note": 71,
      "start": 41.4712,
      "duration": 0.15,
      "velocity": 51,
      "chip": "ym2612"
    },
    {
      "channel": 3,
      "note": 74,
      "start": 41.5713,
      "duration": 0.1511,
      "velocity": 51,
      "chip": "ym2612"
    },
    {
      "channel": 2,
      "note": 57,
      "start": 41.5721,
      "duration": 0.2998,
      "velocity": 122,
      "chip": "ym2612"
    },
    {
      "channel": 4,
      "note": 72,
      "start": 41.5725,
      "duration": 0.1495,
      "velocity": 107,
      "chip": "ym2612"
    },
    {
      "channel": 5,
      "note": 74,
      "start": 41.6212,
      "duration": 0.1509,
      "velocity": 51,
      "chip": "ym2612"
    },
    {
      "channel": 1,
      "note": 55,
      "start": 41.7217,
      "duration": 0.1505,
      "velocity": 104,
      "chip": "ym2612"
    },
    {
      "channel": 4,
      "note": 69,
      "start": 41.722,
      "duration": 0.1507,
      "velocity": 107,
      "chip": "ym2612"
    },
    {
      "channel": 0,
      "note": 71,
      "start": 41.7222,
      "duration": 0.3,
      "velocity": 107,
      "chip": "ym2612"
    },
    {
      "channel": 3,
      "note": 71,
      "start": 41.8712,
      "duration": 0.3001,
      "velocity": 51,
      "chip": "ym2612"
    },
    {
      "channel": 2,
      "note": 47,
      "start": 41.8719,
      "duration": 0.1496,
      "velocity": 122,
      "chip": "ym2612"
    },
    {
      "channel": 1,
      "note": 55,
      "start": 41.8722,
      "duration": 0.3001,
      "velocity": 104,
      "chip": "ym2612"
    },
    {
      "channel": 5,
      "note": 71,
      "start": 41.9212,
      "duration": 0.3,
      "velocity": 51,
      "chip": "ym2612"
    },
    {
      "channel": 2,
      "note": 47,
      "start": 42.0215,
      "duration": 0.1505,
      "velocity": 127,
      "chip": "ym2612"
    },
    {
      "channel": 4,
      "note": 71,
      "start": 42.022,
      "duration": 0.3,
      "velocity": 107,
      "chip": "ym2612"
    },
    {
      "channel": 0,
      "note": 72,
      "start": 42.0223,
      "duration": 0.1505,
      "velocity": 107,
      "chip": "ym2612"
    },
    {
      "channel": 3,
      "note": 74,
      "start": 42.1713,
      "duration": 0.3,
      "velocity": 51,
      "chip": "ym2612"
    },
    {
      "channel": 2,
      "note": 68,
      "start": 42.172,
      "duration": 0.1495,
      "velocity": 127,
      "chip": "ym2612"
    },
    {
      "channel": 1,
      "note": 55,
      "start": 42.1723,
      "duration": 0.2996,
      "velocity": 104,
      "chip": "ym2612"
    },
    {
      "channel": 0,
      "note": 74,
      "start": 42.1728,
      "duration": 0.1495,
      "velocity": 107,
      "chip": "ym2612"
    },
    {
      "channel": 5,
      "note": 74,
      "start": 42.2212,
      "duration": 0.3,
      "velocity": 51,
      "chip": "ym2612"
    },
    {
      "channel": 2,
      "note": 68,
      "start": 42.3215,
      "duration": 0.1501,
      "velocity": 127,
      "chip": "ym2612"
    },
    {
      "channel": 4,
      "note": 72,
      "start": 42.322,
      "duration": 0.1502,
      "velocity": 107,
      "chip": "ym2612"
    },
    {
      "channel": 3,
      "note": 71,
      "start": 42.4713,
      "duration": 0.3167,
      "velocity": 51,
      "chip": "ym2612"
    },
    {
      "channel": 2,
      "note": 68,
      "start": 42.4716,
      "duration": 0.1499,
      "velocity": 127,
      "chip": "ym2612"
    },
    {
      "channel": 1,
      "note": 55,
      "start": 42.4719,
      "duration": 0.1499,
      "velocity": 104,
      "chip": "ym2612"
    },
    {
      "channel": 4,
      "note": 74,
      "start": 42.4722,
      "duration": 0.1502,
      "velocity": 107,
      "chip": "ym2612"
    },
    {
      "channel": 0,
      "note": 72,
      "start": 42.4725,
      "duration": 0.1498,
      "velocity": 107,
      "chip": "ym2612"
    },
    {
      "channel": 5,
      "note": 71,
      "start": 42.5212,
      "duration": 0.3167,
      "velocity": 51,
      "chip": "ym2612"
    },
    {
      "channel": 2,
      "note": 68,
      "start": 42.6215,
      "duration": 0.1672,
      "velocity": 125,
      "chip": "ym2612"
    },
    {
      "channel": 1,
      "note": 55,
      "start": 42.6218,
      "duration": 0.1677,
      "velocity": 104,
      "chip": "ym2612"
    },
    {
      "channel": 0,
      "note": 67,
      "start": 42.6222,
      "duration": 0.7668,
      "velocity": 107,
      "chip": "ym2612"
    },
    {
      "channel": 3,
      "note": 67,
      "start": 42.788,
      "duration": 0.3,
      "velocity": 51,
      "chip": "ym2612"
    },
    {
      "channel": 2,
      "note": 57,
      "start": 42.7888,
      "duration": 0.3,
      "velocity": 122,
      "chip": "ym2612"
    },
    {
      "channel": 4,
      "note": 72,
      "start": 42.7892,
      "duration": 0.1495,
      "velocity": 107,
      "chip": "ym2612"
    },
    {
      "channel": 5,
      "note": 67,
      "start": 42.8378,
      "duration": 0.3,
      "velocity": 51,
      "chip": "ym2612"
    },
    {
      "channel": 1,
      "note": 55,
      "start": 42.9384,
      "duration": 0.1506,
      "velocity": 104,
      "chip": "ym2612"
    },
    {
      "channel": 4,
      "note": 67,
      "start": 42.9387,
      "duration": 0.7502,
      "velocity": 107,
      "chip": "ym2612"
    },
    {
      "channel": 3,
      "note": 62,
      "start": 43.088,
      "duration": 0.3,
      "velocity": 51,
      "chip": "ym2612"
    },
    {
      "channel": 2,
      "note": 47,
      "start": 43.0887,
      "duration": 0.1495,
      "velocity": 122,
      "chip": "ym2612"
    },
    {
      "channel": 1,
      "note": 55,
      "start": 43.089,
      "duration": 0.2996,
      "velocity": 104,
      "chip": "ym2612"
    },
    {
      "channel": 5,
      "note": 62,
      "start": 43.1378,
      "duration": 0.3,
      "velocity": 51,
      "chip": "ym2612"
    },
    {
      "channel": 2,
      "note": 47,
      "start": 43.2382,
      "duration": 0.1501,
      "velocity": 122,
      "chip": "ym2612"
    },
    {
      "channel": 3,
      "note": 65,
      "start": 43.388,
      "duration": 0.3,
      "velocity": 51,
      "chip": "ym2612"
    },
    {
      "channel": 2,
      "note": 47,
      "start": 43.3883,
      "duration": 0.1503,
      "velocity": 127,
      "chip": "ym2612"
    },
    {
      "channel": 1,
      "note": 53,
      "start": 43.3886,
      "duration": 0.3,
      "velocity": 104,
      "chip": "ym2612"
    },
    {
      "channel": 0,
      "note": 74,
      "start": 43.3891,
      "duration": 0.1502,
      "velocity": 107,
      "chip": "ym2612"
    },
    {
      "channel": 5,
      "note": 65,
      "start": 43.4378,
      "duration": 0.3,
      "velocity": 51,
      "chip": "ym2612"
    },
    {
      "channel": 2,
      "note": 68,
      "start": 43.5386,
      "duration": 0.1497,
      "velocity": 127,
      "chip": "ym2612"
    },
    {
      "channel": 0,
      "note": 72,
      "start": 43.5393,
      "duration": 0.1499,
      "velocity": 107,
      "chip": "ym2612"
    },
    {
      "channel": 3,
      "note": 65,
      "start": 43.688,
      "duration": 0.15,
      "velocity": 51,
      "chip": "ym2612"
    },
    {
      "channel": 2,
      "note": 68,
      "start": 43.6883,
      "duration": 0.15,
      "velocity": 127,
      "chip": "ym2612"
    },
    {
      "channel": 1,
      "note": 53,
      "start": 43.6886,
      "duration": 0.15,
      "velocity": 104,
      "chip": "ym2612"
    },
    {
      "channel": 4,
      "note": 74,
      "start": 43.6888,
      "duration": 0.15,
      "velocity": 107,
      "chip": "ym2612"
    },
    {
      "channel": 0,
      "note": 74,
      "start": 43.6891,
      "duration": 0.6002,
      "velocity": 107,
      "chip": "ym2612"
    },
    {
      "channel": 5,
      "note": 65,
      "start": 43.7378,
      "duration": 0.15,
      "velocity": 51,
      "chip": "ym2612"
    },
    {
      "channel": 3,
      "note": 69,
      "start": 43.838,
      "duration": 0.15,
      "velocity": 51,
      "chip": "ym2612"
    },
    {
      "channel": 2,
      "note": 68,
      "start": 43.8383,
      "duration": 0.1504,
      "velocity": 125,
      "chip": "ym2612"
    },
    {
      "channel": 1,
      "note": 53,
      "start": 43.8386,
      "duration": 0.1509,
      "velocity": 104,
      "chip": "ym2612"
    },
    {
      "channel": 4,
      "note": 72,
      "start": 43.8388,
      "duration": 0.1503,
      "velocity": 107,
      "chip": "ym2612"
    },
    {
      "channel": 5,
      "note": 69,
      "start": 43.8878,
      "duration": 0.15,
      "velocity": 51,
      "chip": "ym2612"
    },
    {
      "channel": 3,
      "note": 72,
      "start": 43.988,
      "duration": 0.1509,
      "velocity": 51,
      "chip": "ym2612"
    },
    {
      "channel": 2,
      "note": 57,
      "start": 43.9888,
      "duration": 0.2998,
      "velocity": 122,
      "chip": "ym2612"
    },
    {
      "channel": 4,
      "note": 74,
      "start": 43.9892,
      "duration": 0.6001,
      "velocity": 107,
      "chip": "ym2612"
    },
    {
      "channel": 5,
      "note": 72,
      "start": 44.0378,
      "duration": 0.1509,
      "velocity": 51,
      "chip": "ym2612"
    },
    {
      "channel": 1,
      "note": 53,
      "start": 44.1383,
      "duration": 0.1505,
      "velocity": 104,
      "chip": "ym2612"
    },
    {
      "channel": 3,
      "note": 69,
      "start": 44.2879,
      "duration": 0.3001,
      "velocity": 51,
      "chip": "ym2612"
    },
    {
      "channel": 2,
      "note": 47,
      "start": 44.2886,
      "duration": 0.1496,
      "velocity": 122,
      "chip": "ym2612"
    },
    {
      "channel": 1,
      "note": 53,
      "start": 44.2889,
      "duration": 0.3001,
      "velocity": 104,
      "chip": "ym2612"
    },
    {
      "channel": 0,
      "note": 72,
      "start": 44.2893,
      "duration": 0.1495,
      "velocity": 107,
      "chip": "ym2612"
    },
    {
      "channel": 5,
      "note": 69,
      "start": 44.3378,
      "duration": 0.3,
      "velocity": 51,
      "chip": "ym2612"
    },
    {
      "channel": 2,
      "note": 47,
      "start": 44.4382,
      "duration": 0.1505,
      "velocity": 127,
      "chip": "ym2612"
    },
    {
      "channel": 0,
      "note": 71,
      "start": 44.4389,
      "duration": 0.1507,
      "velocity": 107,
      "chip": "ym2612"
    },
    {
      "channel": 3,
      "note": 72,
      "start": 44.588,
      "duration": 0.3,
      "velocity": 51,
      "chip": "ym2612"
    },
    {
      "channel": 2,
      "note": 68,
      "start": 44.5887,
      "duration": 0.1495,
      "velocity": 127,
      "chip": "ym2612"
    },
    {
      "channel": 1,
      "note": 53,
      "start": 44.589,
      "duration": 0.2996,
      "velocity": 104,
      "chip": "ym2612"
    },
    {
      "channel": 4,
      "note": 72,
      "start": 44.5893,
      "duration": 0.1494,
      "velocity": 107,
      "chip": "ym2612"
    },
    {
      "channel": 0,
      "note": 72,
      "start": 44.5895,
      "duration": 0.4494,
      "velocity": 107,
      "chip": "ym2612"
    },
    {
      "channel": 5,
      "note": 72,
      "start": 44.6378,
      "duration": 0.3,
      "velocity": 51,
      "chip": "ym2612"
    },
    {
      "channel": 2,
      "note": 68,
      "start": 44.7382,
      "duration": 0.1501,
      "velocity": 127,
      "chip": "ym2612"
    },
    {
      "channel": 4,
      "note": 71,
      "start": 44.7387,
      "duration": 0.1502,
      "velocity": 107,
      "chip": "ym2612"
    },
    {
      "channel": 3,
      "note": 69,
      "start": 44.888,
      "duration": 0.3,
      "velocity": 51,
      "chip": "ym2612"
    },
    {
      "channel": 2,
      "note": 68,
      "start": 44.8883,
      "duration": 0.1499,
      "velocity": 127,
      "chip": "ym2612"
    },
    {
      "channel": 1,
      "note": 53,
      "start": 44.8886,
      "duration": 0.1499,
      "velocity": 104,
      "chip": "ym2612"
    },
    {
      "channel": 4,
      "note": 72,
      "start": 44.8888,
      "duration": 0.4498,
      "velocity": 107,
      "chip": "ym2612"
    },
    {
      "channel": 5,
      "note": 69,
      "start": 44.9378,
      "duration": 0.3,
      "velocity": 51,
      "chip": "ym2612"
    },
    {
      "channel": 2,
      "note": 68,
      "start": 45.0382,
      "duration": 0.1505,
      "velocity": 125,
      "chip": "ym2612"
    },
    {
      "channel": 1,
      "note": 53,
      "start": 45.0385,
      "duration": 0.151,
      "velocity": 104,
      "chip": "ym2612"
    },
    {
      "channel": 0,
      "note": 71,
      "start": 45.039,
      "duration": 0.1504,
      "velocity": 107,
      "chip": "ym2612"
    },
    {
      "channel": 3,
      "note": 65,
      "start": 45.188,
      "duration": 0.3,
      "velocity": 51,
      "chip": "ym2612"
    },
    {
      "channel": 2,
      "note": 57,
      "start": 45.1888,
      "duration": 0.3,
      "velocity": 122,
      "chip": "ym2612"
    },
    {
      "channel": 0,
      "note": 69,
      "start": 45.1893,
      "duration": 0.1496,
      "velocity": 107,
      "chip": "ym2612"
    },
    {
      "channel": 5,
      "note": 65,
      "start": 45.2378,
      "duration": 0.3,
      "velocity": 51,
      "chip": "ym2612"
    },
    {
      "channel": 1,
      "note": 53,
      "start": 45.3384,
      "duration": 0.1506,
      "velocity": 104,
      "chip": "ym2612"
    },
    {
      "channel": 4,
      "note": 71,
      "start": 45.3387,
      "duration": 0.1506,
      "velocity": 107,
      "chip": "ym2612"
    },
    {
      "channel": 0,
      "note": 71,
      "start": 45.339,
      "duration": 0.4501,
      "velocity": 107,
      "chip": "ym2612"
    },
    {
      "channel": 3,
      "note": 60,
      "start": 45.488,
      "duration": 0.3,
      "velocity": 51,
      "chip": "ym2612"
    },
    {
      "channel": 2,
      "note": 47,
      "start": 45.4887,
      "duration": 0.1495,
      "velocity": 122,
      "chip": "ym2612"
    },
    {
      "channel": 1,
      "note": 53,
      "start": 45.489,
      "duration": 0.2996,
      "velocity": 104,
      "chip": "ym2612"
    },
    {
      "channel": 4,
      "note": 69,
      "start": 45.4893,
      "duration": 0.1494,
      "velocity": 107,
      "chip": "ym2612"
    },
    {
      "channel": 5,
      "note": 60,
      "start": 45.5378,
      "duration": 0.3,
      "velocity": 51,
      "chip": "ym2612"
    },
    {
      "channel": 2,
      "note": 47,
      "start": 45.6382,
      "duration": 0.1501,
      "velocity": 122,
      "chip": "ym2612"
    },
    {
      "channel": 4,
      "note": 71,
      "start": 45.6387,
      "duration": 0.4502,
      "velocity": 107,
      "chip": "ym2612"
    },
    {
      "channel": 3,
      "note": 64,
      "start": 45.788,
      "duration": 0.3,
      "velocity": 51,
      "chip": "ym2612"
    },
    {
      "channel": 2,
      "note": 47,
      "start": 45.7883,
      "duration": 0.1503,
      "velocity": 127,
      "chip": "ym2612"
    },
    {
      "channel": 1,
      "note": 52,
      "start": 45.7886,
      "duration": 0.3,
      "velocity": 104,
      "chip": "ym2612"
    },
    {
      "channel": 0,
      "note": 69,
      "start": 45.7891,
      "duration": 1.217,
      "velocity": 107,
      "chip": "ym2612"
    },
    {
      "channel": 5,
      "note": 64,
      "start": 45.8378,
      "duration": 0.3,
      "velocity": 51,
      "chip": "ym2612"
    },
    {
      "channel": 2,
      "note": 68,
      "start": 45.9386,
      "duration": 0.1497,
      "velocity": 127,
      "chip": "ym2612"
    },
    {
      "channel": 3,
      "note": 64,
      "start": 46.088,
      "duration": 0.15,
      "velocity": 51,
      "chip": "ym2612"
    },
    {
      "channel": 2,
      "note": 68,
      "start": 46.0883,
      "duration": 0.15,
      "velocity": 127,
      "chip": "ym2612"
    },
    {
      "channel": 1,
      "note": 52,
      "start": 46.0886,
      "duration": 0.15,
      "velocity": 104,
      "chip": "ym2612"
    },
    {
      "channel": 4,
      "note": 69,
      "start": 46.0888,
      "duration": 1.2167,
      "velocity": 107,
      "chip": "ym2612"
    },
    {
      "channel": 5,
      "note": 64,
      "start": 46.1378,
      "duration": 0.15,
      "velocity": 51,
      "chip": "ym2612"
    },
    {
      "channel": 3,
      "note": 68,
      "start": 46.238,
      "duration": 0.15,
      "velocity": 51,
      "chip": "ym2612"
    },
    {
      "channel": 2,
      "note": 68,
      "start": 46.2383,
      "duration": 0.1505,
      "velocity": 125,
      "chip": "ym2612"
    },
    {
      "channel": 1,
      "note": 52,
      "start": 46.2386,
      "duration": 0.1509,
      "velocity": 104,
      "chip": "ym2612"
    },
    {
      "channel": 5,
      "note": 68,
      "start": 46.2878,
      "duration": 0.15,
      "velocity": 51,
      "chip": "ym2612"
    },
    {
      "channel": 3,
      "note": 71,
      "start": 46.388,
      "duration": 0.1509,
      "velocity": 51,
      "chip": "ym2612"
    },
    {
      "channel": 2,
      "note": 57,
      "start": 46.3888,
      "duration": 0.2998,
      "velocity": 122,
      "chip": "ym2612"
    },
    {
      "channel": 5,
      "note": 71,
      "start": 46.4378,
      "duration": 0.1509,
      "velocity": 51,
      "chip": "ym2612"
    },
    {
      "channel": 1,
      "note": 52,
      "start": 46.5383,
      "duration": 0.1505,
      "velocity": 104,
      "chip": "ym2612"
    },
    {
      "channel": 3,
      "note": 68,
      "start": 46.6879,
      "duration": 0.3168,
      "velocity": 51,
      "chip": "ym2612"
    },
    {
      "channel": 2,
      "note": 47,
      "start": 46.6886,
      "duration": 0.1496,
      "velocity": 122,
      "chip": "ym2612"
    },
    {
      "channel": 1,
      "note": 52,
      "start": 46.6889,
      "duration": 0.3168,
      "velocity": 104,
      "chip": "ym2612"
    },
    {
      "channel": 5,
      "note": 68,
      "start": 46.7378,
      "duration": 0.3167,
      "velocity": 51,
      "chip": "ym2612"
    },
    {
      "channel": 2,
      "note": 47,
      "start": 46.8382,
      "duration": 0.1671,
      "velocity": 127,
      "chip": "ym2612"
    },
    {
      "channel": 3,
      "note": 71,
      "start": 47.0047,
      "duration": 0.3,
      "velocity": 51,
      "chip": "ym2612"
    },
    {
      "channel": 2,
      "note": 68,
      "start": 47.0054,
      "duration": 0.1495,
      "velocity": 127,
      "chip": "ym2612"
    },
    {
      "channel": 1,
      "note": 52,
      "start": 47.0056,
      "duration": 0.2996,
      "velocity": 104,
      "chip": "ym2612"
    },
    {
      "channel": 0,
      "note": 68,
      "start": 47.0061,
      "duration": 1.2002,
      "velocity": 94,
      "chip": "ym2612"
    },
    {
      "channel": 5,
      "note": 71,
      "start": 47.0545,
      "duration": 0.3,
      "velocity": 51,
      "chip": "ym2612"
    },
    {
      "channel": 2,
      "note": 68,
      "start": 47.1549,
      "duration": 0.1501,
      "velocity": 127,
      "chip": "ym2612"
    },
    {
      "channel": 3,
      "note": 68,
      "start": 47.3047,
      "duration": 0.3,
      "velocity": 51,
      "chip": "ym2612"
    },
    {
      "channel": 2,
      "note": 68,
      "start": 47.305,
      "duration": 0.1499,
      "velocity": 127,
      "chip": "ym2612"
    },
    {
      "channel": 1,
      "note": 52,
      "start": 47.3052,
      "duration": 0.1499,
      "velocity": 104,
      "chip": "ym2612"
    },
    {
      "channel": 4,
      "note": 68,
      "start": 47.3055,
      "duration": 1.1829,
      "velocity": 107,
      "chip": "ym2612"
    },
    {
      "channel": 5,
      "note": 68,
      "start": 47.3545,
      "duration": 0.3,
      "velocity": 51,
      "chip": "ym2612"
    },
    {
      "channel": 2,
      "note": 68,
      "start": 47.4549,
      "duration": 0.1505,
      "velocity": 125,
      "chip": "ym2612"
    },
    {
      "channel": 1,
      "note": 52,
      "start": 47.4551,
      "duration": 0.151,
      "velocity": 104,
      "chip": "ym2612"
    },
    {
      "channel": 3,
      "note": 64,
      "start": 47.6047,
      "duration": 0.3,
      "velocity": 51,
      "chip": "ym2612"
    },
    {
      "channel": 2,
      "note": 57,
      "start": 47.6054,
      "duration": 0.3,
      "velocity": 122,
      "chip": "ym2612"
    },
    {
      "channel": 5,
      "note": 64,
      "start": 47.6545,
      "duration": 0.3,
      "velocity": 51,
      "chip": "ym2612"
    },
    {
      "channel": 1,
      "note": 52,
      "start": 47.7551,
      "duration": 0.1506,
      "velocity": 104,
      "chip": "ym2612"
    },
    {
      "channel": 3,
      "note": 59,
      "start": 47.9047,
      "duration": 0.3,
      "velocity": 51,
      "chip": "ym2612"
    },
    {
      "channel": 2,
      "note": 47,
      "start": 47.9054,
      "duration": 0.1495,
      "velocity": 122,
      "chip": "ym2612"
    },
    {
      "channel": 1,
      "note": 52,
      "start": 47.9056,
      "duration": 0.2997,
      "velocity": 104,
      "chip": "ym2612"
    },
    {
      "channel": 5,
      "note": 59,
      "start": 47.9545,
      "duration": 0.3,
      "velocity": 51,
      "chip": "ym2612"
    },
    {
      "channel": 2,
      "note": 47,
      "start": 48.0549,
      "duration": 0.1501,
      "velocity": 122,
      "chip": "ym2612"
    },
    {
      "channel": 3,
      "note": 69,
      "start": 48.2047,
      "duration": 0.2837,
      "velocity": 51,
      "chip": "ym2612"
    },
    {
      "channel": 2,
      "note": 47,
      "start": 48.205,
      "duration": 0.1502,
      "velocity": 127,
      "chip": "ym2612"
    },
    {
      "channel": 1,
      "note": 57,
      "start": 48.2053,
      "duration": 0.2831,
      "velocity": 104,
      "chip": "ym2612"
    },
    {
      "channel": 0,
      "note": 81,
      "start": 48.2063,
      "duration": 0.1497,
      "velocity": 94,
      "chip": "ym2612"
    },
    {
      "channel": 5,
      "note": 69,
      "start": 48.2545,
      "duration": 0.2339,
      "velocity": 51,
      "chip": "ym2612"
    },
    {
      "channel": 2,
      "note": 68,
      "start": 48.3553,
      "duration": 0.1331,
      "velocity": 127,
      "chip": "ym2612"
    }
  ]
}