{
  "track_name": "06 - Large Green Meadow",
  "duration_sec": 127.148,
  "sample_rate": 44100,
  "note_count": 388,
  "unique_pitches": 29,
  "pitch_range": 34,
  "avg_note_duration": 1.7554,
  "reconstruction_stats": {
    "notes_reconstructed": 388,
    "keyon_events": 388,
    "keyoff_events": 382,
    "orphan_keyons": 6,
    "unique_pitches": 29,
    "pitch_range": 34,
    "avg_duration_sec": 1.7554
  },
  "metadata": {
    "source": "M\\Master of Monsters\\06 - Large Green Meadow.vgz"
  },
  "notes": [
    {
      "channel": 0,
      "note": 38,
      "start": 0.0,
      "duration": 2.1869,
      "velocity": 108,
      "chip": "ym2612"
    },
    {
      "channel": 2,
      "note": 26,
      "start": 0.0011,
      "duration": 2.1864,
      "velocity": 108,
      "chip": "ym2612"
    },
    {
      "channel": 5,
      "note": 26,
      "start": 0.0074,
      "duration": 1.4013,
      "velocity": 98,
      "chip": "ym2612"
    },
    {
      "channel": 4,
      "note": 26,
      "start": 0.1759,
      "duration": 1.4277,
      "velocity": 98,
      "chip": "ym2612"
    },
    {
      "channel": 1,
      "note": 38,
      "start": 0.2712,
      "duration": 2.2086,
      "velocity": 108,
      "chip": "ym2612"
    },
    {
      "channel": 3,
      "note": 26,
      "start": 0.2744,
      "duration": 2.2067,
      "velocity": 108,
      "chip": "ym2612"
    },
    {
      "channel": 5,
      "note": 28,
      "start": 1.5389,
      "duration": 1.4301,
      "velocity": 98,
      "chip": "ym2612"
    },
    {
      "channel": 4,
      "note": 28,
      "start": 1.7337,
      "duration": 1.43,
      "velocity": 98,
      "chip": "ym2612"
    },
    {
      "channel": 0,
      "note": 36,
      "start": 2.3173,
      "duration": 0.6497,
      "velocity": 108,
      "chip": "ym2612"
    },
    {
      "channel": 2,
      "note": 24,
      "start": 2.318,
      "duration": 0.6495,
      "velocity": 108,
      "chip": "ym2612"
    },
    {
      "channel": 1,
      "note": 36,
      "start": 2.61,
      "duration": 0.6499,
      "velocity": 108,
      "chip": "ym2612"
    },
    {
      "channel": 3,
      "note": 24,
      "start": 2.6116,
      "duration": 0.6495,
      "velocity": 108,
      "chip": "ym2612"
    },
    {
      "channel": 0,
      "note": 38,
      "start": 3.0973,
      "duration": 2.21,
      "velocity": 108,
      "chip": "ym2612"
    },
    {
      "channel": 2,
      "note": 26,
      "start": 3.098,
      "duration": 2.2097,
      "velocity": 108,
      "chip": "ym2612"
    },
    {
      "channel": 5,
      "note": 29,
      "start": 3.0998,
      "duration": 1.4293,
      "velocity": 98,
      "chip": "ym2612"
    },
    {
      "channel": 4,
      "note": 29,
      "start": 3.2939,
      "duration": 1.4299,
      "velocity": 98,
      "chip": "ym2612"
    },
    {
      "channel": 1,
      "note": 38,
      "start": 3.3899,
      "duration": 2.2102,
      "velocity": 108,
      "chip": "ym2612"
    },
    {
      "channel": 3,
      "note": 26,
      "start": 3.3915,
      "duration": 2.2099,
      "velocity": 108,
      "chip": "ym2612"
    },
    {
      "channel": 5,
      "note": 31,
      "start": 4.6594,
      "duration": 1.4298,
      "velocity": 98,
      "chip": "ym2612"
    },
    {
      "channel": 4,
      "note": 31,
      "start": 4.8543,
      "duration": 1.4298,
      "velocity": 98,
      "chip": "ym2612"
    },
    {
      "channel": 0,
      "note": 40,
      "start": 5.4374,
      "duration": 0.6498,
      "velocity": 108,
      "chip": "ym2612"
    },
    {
      "channel": 2,
      "note": 28,
      "start": 5.4382,
      "duration": 0.6495,
      "velocity": 108,
      "chip": "ym2612"
    },
    {
      "channel": 1,
      "note": 40,
      "start": 5.7302,
      "duration": 0.6498,
      "velocity": 108,
      "chip": "ym2612"
    },
    {
      "channel": 3,
      "note": 28,
      "start": 5.7318,
      "duration": 0.6494,
      "velocity": 108,
      "chip": "ym2612"
    },
    {
      "channel": 0,
      "note": 41,
      "start": 6.2176,
      "duration": 0.6497,
      "velocity": 108,
      "chip": "ym2612"
    },
    {
      "channel": 2,
      "note": 29,
      "start": 6.2184,
      "duration": 0.6494,
      "velocity": 108,
      "chip": "ym2612"
    },
    {
      "channel": 5,
      "note": 26,
      "start": 6.2202,
      "duration": 1.4291,
      "velocity": 98,
      "chip": "ym2612"
    },
    {
      "channel": 4,
      "note": 26,
      "start": 6.4141,
      "duration": 1.4302,
      "velocity": 98,
      "chip": "ym2612"
    },
    {
      "channel": 1,
      "note": 41,
      "start": 6.5102,
      "duration": 0.6499,
      "velocity": 108,
      "chip": "ym2612"
    },
    {
      "channel": 3,
      "note": 29,
      "start": 6.5119,
      "duration": 0.6496,
      "velocity": 108,
      "chip": "ym2612"
    },
    {
      "channel": 0,
      "note": 38,
      "start": 6.9976,
      "duration": 1.43,
      "velocity": 108,
      "chip": "ym2612"
    },
    {
      "channel": 2,
      "note": 26,
      "start": 6.9984,
      "duration": 1.4297,
      "velocity": 108,
      "chip": "ym2612"
    },
    {
      "channel": 1,
      "note": 38,
      "start": 7.2904,
      "duration": 1.43,
      "velocity": 108,
      "chip": "ym2612"
    },
    {
      "channel": 3,
      "note": 26,
      "start": 7.292,
      "duration": 1.4296,
      "velocity": 108,
      "chip": "ym2612"
    },
    {
      "channel": 5,
      "note": 28,
      "start": 7.7796,
      "duration": 1.4299,
      "velocity": 98,
      "chip": "ym2612"
    },
    {
      "channel": 4,
      "note": 28,
      "start": 7.9744,
      "duration": 1.43,
      "velocity": 98,
      "chip": "ym2612"
    },
    {
      "channel": 0,
      "note": 36,
      "start": 8.5577,
      "duration": 0.6499,
      "velocity": 108,
      "chip": "ym2612"
    },
    {
      "channel": 2,
      "note": 24,
      "start": 8.5585,
      "duration": 0.6496,
      "velocity": 108,
      "chip": "ym2612"
    },
    {
      "channel": 1,
      "note": 36,
      "start": 8.8506,
      "duration": 0.6498,
      "velocity": 108,
      "chip": "ym2612"
    },
    {
      "channel": 3,
      "note": 24,
      "start": 8.8521,
      "duration": 0.6496,
      "velocity": 108,
      "chip": "ym2612"
    },
    {
      "channel": 0,
      "note": 38,
      "start": 9.3378,
      "duration": 2.9901,
      "velocity": 108,
      "chip": "ym2612"
    },
    {
      "channel": 2,
      "note": 26,
      "start": 9.3385,
      "duration": 2.9898,
      "velocity": 108,
      "chip": "ym2612"
    },
    {
      "channel": 5,
      "note": 29,
      "start": 9.3404,
      "duration": 1.4295,
      "velocity": 98,
      "chip": "ym2612"
    },
    {
      "channel": 4,
      "note": 29,
      "start": 9.5346,
      "duration": 1.43,
      "velocity": 98,
      "chip": "ym2612"
    },
    {
      "channel": 1,
      "note": 38,
      "start": 9.6306,
      "duration": 2.9901,
      "velocity": 108,
      "chip": "ym2612"
    },
    {
      "channel": 3,
      "note": 26,
      "start": 9.6322,
      "duration": 2.9898,
      "velocity": 108,
      "chip": "ym2612"
    },
    {
      "channel": 5,
      "note": 24,
      "start": 10.9006,
      "duration": 1.4295,
      "velocity": 98,
      "chip": "ym2612"
    },
    {
      "channel": 4,
      "note": 24,
      "start": 11.0953,
      "duration": 1.4295,
      "velocity": 98,
      "chip": "ym2612"
    },
    {
      "channel": 0,
      "note": 45,
      "start": 12.4583,
      "duration": 2.9899,
      "velocity": 108,
      "chip": "ym2612"
    },
    {
      "channel": 2,
      "note": 33,
      "start": 12.459,
      "duration": 2.9896,
      "velocity": 108,
      "chip": "ym2612"
    },
    {
      "channel": 5,
      "note": 26,
      "start": 12.4613,
      "duration": 1.4288,
      "velocity": 98,
      "chip": "ym2612"
    },
    {
      "channel": 4,
      "note": 26,
      "start": 12.655,
      "duration": 1.4299,
      "velocity": 98,
      "chip": "ym2612"
    },
    {
      "channel": 1,
      "note": 45,
      "start": 12.7508,
      "duration": 2.9901,
      "velocity": 108,
      "chip": "ym2612"
    },
    {
      "channel": 3,
      "note": 33,
      "start": 12.7525,
      "duration": 2.9897,
      "velocity": 108,
      "chip": "ym2612"
    },
    {
      "channel": 5,
      "note": 28,
      "start": 14.0203,
      "duration": 1.43,
      "velocity": 98,
      "chip": "ym2612"
    },
    {
      "channel": 4,
      "note": 28,
      "start": 14.2151,
      "duration": 1.43,
      "velocity": 98,
      "chip": "ym2612"
    },
    {
      "channel": 0,
      "note": 48,
      "start": 15.5784,
      "duration": 2.2099,
      "velocity": 108,
      "chip": "ym2612"
    },
    {
      "channel": 2,
      "note": 36,
      "start": 15.5793,
      "duration": 2.2096,
      "velocity": 108,
      "chip": "ym2612"
    },
    {
      "channel": 5,
      "note": 29,
      "start": 15.5811,
      "duration": 1.4292,
      "velocity": 98,
      "chip": "ym2612"
    },
    {
      "channel": 4,
      "note": 29,
      "start": 15.7751,
      "duration": 1.43,
      "velocity": 98,
      "chip": "ym2612"
    },
    {
      "channel": 1,
      "note": 48,
      "start": 15.8713,
      "duration": 2.2099,
      "velocity": 108,
      "chip": "ym2612"
    },
    {
      "channel": 3,
      "note": 36,
      "start": 15.8729,
      "duration": 2.2095,
      "velocity": 108,
      "chip": "ym2612"
    },
    {
      "channel": 5,
      "note": 31,
      "start": 17.1406,
      "duration": 1.43,
      "velocity": 98,
      "chip": "ym2612"
    },
    {
      "channel": 4,
      "note": 31,
      "start": 17.3355,
      "duration": 1.4296,
      "velocity": 98,
      "chip": "ym2612"
    },
    {
      "channel": 0,
      "note": 47,
      "start": 17.9188,
      "duration": 0.6498,
      "velocity": 108,
      "chip": "ym2612"
    },
    {
      "channel": 2,
      "note": 35,
      "start": 17.9196,
      "duration": 0.6494,
      "velocity": 108,
      "chip": "ym2612"
    },
    {
      "channel": 1,
      "note": 47,
      "start": 18.2115,
      "duration": 0.6498,
      "velocity": 108,
      "chip": "ym2612"
    },
    {
      "channel": 3,
      "note": 35,
      "start": 18.2132,
      "duration": 0.6494,
      "velocity": 108,
      "chip": "ym2612"
    },
    {
      "channel": 0,
      "note": 45,
      "start": 18.6987,
      "duration": 1.4298,
      "velocity": 108,
      "chip": "ym2612"
    },
    {
      "channel": 2,
      "note": 33,
      "start": 18.6995,
      "duration": 1.4295,
      "velocity": 108,
      "chip": "ym2612"
    },
    {
      "channel": 5,
      "note": 26,
      "start": 18.7013,
      "duration": 1.4292,
      "velocity": 98,
      "chip": "ym2612"
    },
    {
      "channel": 4,
      "note": 26,
      "start": 18.8955,
      "duration": 1.4299,
      "velocity": 98,
      "chip": "ym2612"
    },
    {
      "channel": 1,
      "note": 45,
      "start": 18.9914,
      "duration": 1.4299,
      "velocity": 108,
      "chip": "ym2612"
    },
    {
      "channel": 3,
      "note": 33,
      "start": 18.993,
      "duration": 1.4295,
      "velocity": 108,
      "chip": "ym2612"
    },
    {
      "channel": 0,
      "note": 38,
      "start": 20.2588,
      "duration": 4.5502,
      "velocity": 108,
      "chip": "ym2612"
    },
    {
      "channel": 2,
      "note": 26,
      "start": 20.2596,
      "duration": 4.5499,
      "velocity": 108,
      "chip": "ym2612"
    },
    {
      "channel": 5,
      "note": 28,
      "start": 20.2615,
      "duration": 1.4293,
      "velocity": 98,
      "chip": "ym2612"
    },
    {
      "channel": 4,
      "note": 28,
      "start": 20.4556,
      "duration": 1.4298,
      "velocity": 98,
      "chip": "ym2612"
    },
    {
      "channel": 1,
      "note": 38,
      "start": 20.5515,
      "duration": 4.5503,
      "velocity": 108,
      "chip": "ym2612"
    },
    {
      "channel": 3,
      "note": 26,
      "start": 20.5531,
      "duration": 4.55,
      "velocity": 108,
      "chip": "ym2612"
    },
    {
      "channel": 5,
      "note": 29,
      "start": 21.8209,
      "duration": 1.4301,
      "velocity": 98,
      "chip": "ym2612"
    },
    {
      "channel": 4,
      "note": 29,
      "start": 22.0156,
      "duration": 1.4301,
      "velocity": 98,
      "chip": "ym2612"
    },
    {
      "channel": 5,
      "note": 24,
      "start": 23.3819,
      "duration": 1.4294,
      "velocity": 98,
      "chip": "ym2612"
    },
    {
      "channel": 4,
      "note": 24,
      "start": 23.5765,
      "duration": 1.4293,
      "velocity": 98,
      "chip": "ym2612"
    },
    {
      "channel": 0,
      "note": 50,
      "start": 24.9393,
      "duration": 2.21,
      "velocity": 108,
      "chip": "ym2612"
    },
    {
      "channel": 2,
      "note": 43,
      "start": 24.9403,
      "duration": 2.2094,
      "velocity": 108,
      "chip": "ym2612"
    },
    {
      "channel": 5,
      "note": 26,
      "start": 24.9429,
      "duration": 1.4285,
      "velocity": 98,
      "chip": "ym2612"
    },
    {
      "channel": 4,
      "note": 26,
      "start": 25.1364,
      "duration": 1.4295,
      "velocity": 98,
      "chip": "ym2612"
    },
    {
      "channel": 1,
      "note": 50,
      "start": 25.232,
      "duration": 2.2101,
      "velocity": 108,
      "chip": "ym2612"
    },
    {
      "channel": 3,
      "note": 43,
      "start": 25.2339,
      "duration": 2.2095,
      "velocity": 108,
      "chip": "ym2612"
    },
    {
      "channel": 5,
      "note": 28,
      "start": 26.5013,
      "duration": 1.4303,
      "velocity": 98,
      "chip": "ym2612"
    },
    {
      "channel": 4,
      "note": 28,
      "start": 26.6962,
      "duration": 1.4298,
      "velocity": 98,
      "chip": "ym2612"
    },
    {
      "channel": 0,
      "note": 48,
      "start": 27.2794,
      "duration": 0.65,
      "velocity": 108,
      "chip": "ym2612"
    },
    {
      "channel": 2,
      "note": 41,
      "start": 27.2802,
      "duration": 0.6498,
      "velocity": 108,
      "chip": "ym2612"
    },
    {
      "channel": 1,
      "note": 48,
      "start": 27.5723,
      "duration": 0.6498,
      "velocity": 108,
      "chip": "ym2612"
    },
    {
      "channel": 3,
      "note": 41,
      "start": 27.574,
      "duration": 0.6495,
      "velocity": 108,
      "chip": "ym2612"
    },
    {
      "channel": 0,
      "note": 51,
      "start": 28.0597,
      "duration": 2.2099,
      "velocity": 108,
      "chip": "ym2612"
    },
    {
      "channel": 2,
      "note": 46,
      "start": 28.0604,
      "duration": 2.2096,
      "velocity": 108,
      "chip": "ym2612"
    },
    {
      "channel": 5,
      "note": 29,
      "start": 28.0623,
      "duration": 1.4291,
      "velocity": 98,
      "chip": "ym2612"
    },
    {
      "channel": 4,
      "note": 29,
      "start": 28.2563,
      "duration": 1.4298,
      "velocity": 98,
      "chip": "ym2612"
    },
    {
      "channel": 1,
      "note": 51,
      "start": 28.3524,
      "duration": 2.21,
      "velocity": 108,
      "chip": "ym2612"
    },
    {
      "channel": 3,
      "note": 46,
      "start": 28.354,
      "duration": 2.2097,
      "velocity": 108,
      "chip": "ym2612"
    },
    {
      "channel": 5,
      "note": 24,
      "start": 29.6219,
      "duration": 1.4298,
      "velocity": 98,
      "chip": "ym2612"
    },
    {
      "channel": 4,
      "note": 24,
      "start": 29.8166,
      "duration": 1.4297,
      "velocity": 98,
      "chip": "ym2612"
    },
    {
      "channel": 0,
      "note": 50,
      "start": 30.3999,
      "duration": 0.6499,
      "velocity": 108,
      "chip": "ym2612"
    },
    {
      "channel": 2,
      "note": 45,
      "start": 30.4006,
      "duration": 0.6496,
      "velocity": 108,
      "chip": "ym2612"
    },
    {
      "channel": 1,
      "note": 50,
      "start": 30.6926,
      "duration": 0.6498,
      "velocity": 108,
      "chip": "ym2612"
    },
    {
      "channel": 3,
      "note": 45,
      "start": 30.6943,
      "duration": 0.6494,
      "velocity": 108,
      "chip": "ym2612"
    },
    {
      "channel": 0,
      "note": 52,
      "start": 31.1799,
      "duration": 1.4299,
      "velocity": 108,
      "chip": "ym2612"
    },
    {
      "channel": 2,
      "note": 47,
      "start": 31.1807,
      "duration": 1.4296,
      "velocity": 108,
      "chip": "ym2612"
    },
    {
      "channel": 5,
      "note": 26,
      "start": 31.1825,
      "duration": 1.4293,
      "velocity": 98,
      "chip": "ym2612"
    },
    {
      "channel": 4,
      "note": 26,
      "start": 31.3766,
      "duration": 1.43,
      "velocity": 98,
      "chip": "ym2612"
    },
    {
      "channel": 1,
      "note": 52,
      "start": 31.4726,
      "duration": 1.4301,
      "velocity": 108,
      "chip": "ym2612"
    },
    {
      "channel": 3,
      "note": 47,
      "start": 31.4742,
      "duration": 1.4297,
      "velocity": 108,
      "chip": "ym2612"
    },
    {
      "channel": 0,
      "note": 53,
      "start": 32.7401,
      "duration": 2.21,
      "velocity": 108,
      "chip": "ym2612"
    },
    {
      "channel": 2,
      "note": 48,
      "start": 32.741,
      "duration": 2.2096,
      "velocity": 108,
      "chip": "ym2612"
    },
    {
      "channel": 5,
      "note": 28,
      "start": 32.7428,
      "duration": 1.4291,
      "velocity": 98,
      "chip": "ym2612"
    },
    {
      "channel": 4,
      "note": 28,
      "start": 32.9368,
      "duration": 1.43,
      "velocity": 98,
      "chip": "ym2612"
    },
    {
      "channel": 1,
      "note": 53,
      "start": 33.0329,
      "duration": 2.2099,
      "velocity": 108,
      "chip": "ym2612"
    },
    {
      "channel": 3,
      "note": 48,
      "start": 33.0345,
      "duration": 2.2097,
      "velocity": 108,
      "chip": "ym2612"
    },
    {
      "channel": 5,
      "note": 29,
      "start": 34.302,
      "duration": 1.4302,
      "velocity": 98,
      "chip": "ym2612"
    },
    {
      "channel": 4,
      "note": 29,
      "start": 34.4968,
      "duration": 1.4302,
      "velocity": 98,
      "chip": "ym2612"
    },
    {
      "channel": 0,
      "note": 50,
      "start": 35.0803,
      "duration": 1.4299,
      "velocity": 108,
      "chip": "ym2612"
    },
    {
      "channel": 2,
      "note": 45,
      "start": 35.0812,
      "duration": 1.4295,
      "velocity": 108,
      "chip": "ym2612"
    },
    {
      "channel": 1,
      "note": 50,
      "start": 35.3731,
      "duration": 1.4298,
      "velocity": 108,
      "chip": "ym2612"
    },
    {
      "channel": 3,
      "note": 45,
      "start": 35.3751,
      "duration": 1.4291,
      "velocity": 108,
      "chip": "ym2612"
    },
    {
      "channel": 5,
      "note": 31,
      "start": 35.8631,
      "duration": 1.4292,
      "velocity": 98,
      "chip": "ym2612"
    },
    {
      "channel": 4,
      "note": 31,
      "start": 36.0576,
      "duration": 1.4295,
      "velocity": 98,
      "chip": "ym2612"
    },
    {
      "channel": 0,
      "note": 48,
      "start": 36.6406,
      "duration": 0.6496,
      "velocity": 108,
      "chip": "ym2612"
    },
    {
      "channel": 2,
      "note": 43,
      "start": 36.6413,
      "duration": 0.6493,
      "velocity": 108,
      "chip": "ym2612"
    },
    {
      "channel": 1,
      "note": 48,
      "start": 36.9332,
      "duration": 0.6498,
      "velocity": 108,
      "chip": "ym2612"
    },
    {
      "channel": 3,
      "note": 43,
      "start": 36.935,
      "duration": 0.6492,
      "velocity": 108,
      "chip": "ym2612"
    },
    {
      "channel": 0,
      "note": 47,
      "start": 37.4205,
      "duration": 2.9901,
      "velocity": 108,
      "chip": "ym2612"
    },
    {
      "channel": 2,
      "note": 42,
      "start": 37.4213,
      "duration": 2.9898,
      "velocity": 108,
      "chip": "ym2612"
    },
    {
      "channel": 5,
      "note": 26,
      "start": 37.4235,
      "duration": 1.4289,
      "velocity": 98,
      "chip": "ym2612"
    },
    {
      "channel": 4,
      "note": 26,
      "start": 37.6175,
      "duration": 1.4297,
      "velocity": 98,
      "chip": "ym2612"
    },
    {
      "channel": 1,
      "note": 47,
      "start": 37.7133,
      "duration": 2.99,
      "velocity": 108,
      "chip": "ym2612"
    },
    {
      "channel": 3,
      "note": 42,
      "start": 37.7149,
      "duration": 2.9897,
      "velocity": 108,
      "chip": "ym2612"
    },
    {
      "channel": 5,
      "note": 28,
      "start": 38.9826,
      "duration": 1.4301,
      "velocity": 98,
      "chip": "ym2612"
    },
    {
      "channel": 4,
      "note": 28,
      "start": 39.1773,
      "duration": 1.4301,
      "velocity": 98,
      "chip": "ym2612"
    },
    {
      "channel": 0,
      "note": 46,
      "start": 40.5408,
      "duration": 2.21,
      "velocity": 108,
      "chip": "ym2612"
    },
    {
      "channel": 2,
      "note": 41,
      "start": 40.5416,
      "duration": 2.2098,
      "velocity": 108,
      "chip": "ym2612"
    },
    {
      "channel": 5,
      "note": 29,
      "start": 40.5434,
      "duration": 1.4291,
      "velocity": 98,
      "chip": "ym2612"
    },
    {
      "channel": 4,
      "note": 29,
      "start": 40.7375,
      "duration": 1.43,
      "velocity": 98,
      "chip": "ym2612"
    },
    {
      "channel": 1,
      "note": 46,
      "start": 40.8335,
      "duration": 2.2099,
      "velocity": 108,
      "chip": "ym2612"
    },
    {
      "channel": 3,
      "note": 41,
      "start": 40.8351,
      "duration": 2.2097,
      "velocity": 108,
      "chip": "ym2612"
    },
    {
      "channel": 5,
      "note": 24,
      "start": 42.103,
      "duration": 1.4298,
      "velocity": 98,
      "chip": "ym2612"
    },
    {
      "channel": 4,
      "note": 24,
      "start": 42.2979,
      "duration": 1.4297,
      "velocity": 98,
      "chip": "ym2612"
    },
    {
      "channel": 0,
      "note": 43,
      "start": 42.881,
      "duration": 0.6499,
      "velocity": 108,
      "chip": "ym2612"
    },
    {
      "channel": 2,
      "note": 36,
      "start": 42.8817,
      "duration": 0.6496,
      "velocity": 108,
      "chip": "ym2612"
    },
    {
      "channel": 1,
      "note": 43,
      "start": 43.1738,
      "duration": 0.6498,
      "velocity": 108,
      "chip": "ym2612"
    },
    {
      "channel": 3,
      "note": 36,
      "start": 43.1753,
      "duration": 0.6495,
      "velocity": 108,
      "chip": "ym2612"
    },
    {
      "channel": 0,
      "note": 45,
      "start": 43.6612,
      "duration": 1.4296,
      "velocity": 108,
      "chip": "ym2612"
    },
    {
      "channel": 2,
      "note": 38,
      "start": 43.662,
      "duration": 1.4294,
      "velocity": 108,
      "chip": "ym2612"
    },
    {
      "channel": 5,
      "note": 26,
      "start": 43.6639,
      "duration": 1.429,
      "velocity": 98,
      "chip": "ym2612"
    },
    {
      "channel": 4,
      "note": 26,
      "start": 43.8577,
      "duration": 1.4301,
      "velocity": 98,
      "chip": "ym2612"
    },
    {
      "channel": 1,
      "note": 45,
      "start": 43.9539,
      "duration": 1.4299,
      "velocity": 108,
      "chip": "ym2612"
    },
    {
      "channel": 3,
      "note": 38,
      "start": 43.9555,
      "duration": 1.4295,
      "velocity": 108,
      "chip": "ym2612"
    },
    {
      "channel": 0,
      "note": 38,
      "start": 45.2213,
      "duration": 4.5502,
      "velocity": 108,
      "chip": "ym2612"
    },
    {
      "channel": 2,
      "note": 33,
      "start": 45.2221,
      "duration": 4.5499,
      "velocity": 108,
      "chip": "ym2612"
    },
    {
      "channel": 5,
      "note": 28,
      "start": 45.224,
      "duration": 1.429,
      "velocity": 98,
      "chip": "ym2612"
    },
    {
      "channel": 4,
      "note": 28,
      "start": 45.4179,
      "duration": 1.4301,
      "velocity": 98,
      "chip": "ym2612"
    },
    {
      "channel": 1,
      "note": 38,
      "start": 45.514,
      "duration": 4.2578,
      "velocity": 108,
      "chip": "ym2612"
    },
    {
      "channel": 3,
      "note": 33,
      "start": 45.5156,
      "duration": 4.2577,
      "velocity": 108,
      "chip": "ym2612"
    },
    {
      "channel": 5,
      "note": 29,
      "start": 46.7832,
      "duration": 1.4303,
      "velocity": 98,
      "chip": "ym2612"
    },
    {
      "channel": 4,
      "note": 29,
      "start": 46.978,
      "duration": 1.43,
      "velocity": 98,
      "chip": "ym2612"
    },
    {
      "channel": 5,
      "note": 31,
      "start": 48.3443,
      "duration": 1.4295,
      "velocity": 98,
      "chip": "ym2612"
    },
    {
      "channel": 4,
      "note": 31,
      "start": 48.5389,
      "duration": 1.4294,
      "velocity": 98,
      "chip": "ym2612"
    },
    {
      "channel": 1,
      "note": 30,
      "start": 49.9038,
      "duration": 0.9405,
      "velocity": 117,
      "chip": "ym2612"
    },
    {
      "channel": 3,
      "note": 33,
      "start": 49.9077,
      "duration": 2.4981,
      "velocity": 95,
      "chip": "ym2612"
    },
    {
      "channel": 5,
      "note": 33,
      "start": 49.9085,
      "duration": 2.9853,
      "velocity": 98,
      "chip": "ym2612"
    },
    {
      "channel": 4,
      "note": 33,
      "start": 50.0987,
      "duration": 2.9899,
      "velocity": 98,
      "chip": "ym2612"
    },
    {
      "channel": 0,
      "note": 48,
      "start": 50.6819,
      "duration": 1.4298,
      "velocity": 108,
      "chip": "ym2612"
    },
    {
      "channel": 2,
      "note": 45,
      "start": 50.6827,
      "duration": 1.4294,
      "velocity": 108,
      "chip": "ym2612"
    },
    {
      "channel": 1,
      "note": 48,
      "start": 50.9763,
      "duration": 1.4282,
      "velocity": 108,
      "chip": "ym2612"
    },
    {
      "channel": 0,
      "note": 47,
      "start": 52.2419,
      "duration": 0.6498,
      "velocity": 108,
      "chip": "ym2612"
    },
    {
      "channel": 2,
      "note": 45,
      "start": 52.2427,
      "duration": 0.6495,
      "velocity": 108,
      "chip": "ym2612"
    },
    {
      "channel": 1,
      "note": 47,
      "start": 52.5347,
      "duration": 0.6498,
      "velocity": 108,
      "chip": "ym2612"
    },
    {
      "channel": 3,
      "note": 45,
      "start": 52.5381,
      "duration": 0.6476,
      "velocity": 108,
      "chip": "ym2612"
    },
    {
      "channel": 0,
      "note": 50,
      "start": 53.0221,
      "duration": 2.99,
      "velocity": 108,
      "chip": "ym2612"
    },
    {
      "channel": 2,
      "note": 45,
      "start": 53.0229,
      "duration": 2.9897,
      "velocity": 108,
      "chip": "ym2612"
    },
    {
      "channel": 5,
      "note": 33,
      "start": 53.0247,
      "duration": 1.4295,
      "velocity": 98,
      "chip": "ym2612"
    },
    {
      "channel": 4,
      "note": 33,
      "start": 53.2186,
      "duration": 1.43,
      "velocity": 98,
      "chip": "ym2612"
    },
    {
      "channel": 1,
      "note": 50,
      "start": 53.3147,
      "duration": 2.6976,
      "velocity": 108,
      "chip": "ym2612"
    },
    {
      "channel": 3,
      "note": 45,
      "start": 53.3163,
      "duration": 2.6974,
      "velocity": 108,
      "chip": "ym2612"
    },
    {
      "channel": 5,
      "note": 31,
      "start": 54.5849,
      "duration": 0.6492,
      "velocity": 98,
      "chip": "ym2612"
    },
    {
      "channel": 4,
      "note": 31,
      "start": 54.7794,
      "duration": 0.6494,
      "velocity": 98,
      "chip": "ym2612"
    },
    {
      "channel": 5,
      "note": 31,
      "start": 55.3649,
      "duration": 0.6494,
      "velocity": 98,
      "chip": "ym2612"
    },
    {
      "channel": 4,
      "note": 31,
      "start": 55.5595,
      "duration": 0.6494,
      "velocity": 98,
      "chip": "ym2612"
    },
    {
      "channel": 1,
      "note": 30,
      "start": 56.1445,
      "duration": 0.9404,
      "velocity": 117,
      "chip": "ym2612"
    },
    {
      "channel": 3,
      "note": 33,
      "start": 56.1485,
      "duration": 2.4978,
      "velocity": 95,
      "chip": "ym2612"
    },
    {
      "channel": 5,
      "note": 33,
      "start": 56.1492,
      "duration": 4.5454,
      "velocity": 98,
      "chip": "ym2612"
    },
    {
      "channel": 4,
      "note": 33,
      "start": 56.3392,
      "duration": 4.5501,
      "velocity": 98,
      "chip": "ym2612"
    },
    {
      "channel": 0,
      "note": 48,
      "start": 56.9224,
      "duration": 1.4299,
      "velocity": 108,
      "chip": "ym2612"
    },
    {
      "channel": 2,
      "note": 45,
      "start": 56.9233,
      "duration": 1.4296,
      "velocity": 108,
      "chip": "ym2612"
    },
    {
      "channel": 1,
      "note": 48,
      "start": 57.2168,
      "duration": 1.428,
      "velocity": 108,
      "chip": "ym2612"
    },
    {
      "channel": 0,
      "note": 47,
      "start": 58.4825,
      "duration": 0.2598,
      "velocity": 108,
      "chip": "ym2612"
    },
    {
      "channel": 2,
      "note": 45,
      "start": 58.4833,
      "duration": 0.2595,
      "velocity": 108,
      "chip": "ym2612"
    },
    {
      "channel": 1,
      "note": 47,
      "start": 58.7754,
      "duration": 0.2597,
      "velocity": 108,
      "chip": "ym2612"
    },
    {
      "channel": 3,
      "note": 45,
      "start": 58.7787,
      "duration": 0.2577,
      "velocity": 108,
      "chip": "ym2612"
    },
    {
      "channel": 0,
      "note": 48,
      "start": 58.8727,
      "duration": 0.2595,
      "velocity": 108,
      "chip": "ym2612"
    },
    {
      "channel": 2,
      "note": 45,
      "start": 58.8735,
      "duration": 0.2593,
      "velocity": 108,
      "chip": "ym2612"
    },
    {
      "channel": 1,
      "note": 48,
      "start": 59.1654,
      "duration": 0.2598,
      "velocity": 108,
      "chip": "ym2612"
    },
    {
      "channel": 3,
      "note": 45,
      "start": 59.167,
      "duration": 0.2594,
      "velocity": 108,
      "chip": "ym2612"
    },
    {
      "channel": 0,
      "note": 50,
      "start": 59.2625,
      "duration": 0.6499,
      "velocity": 108,
      "chip": "ym2612"
    },
    {
      "channel": 2,
      "note": 47,
      "start": 59.2633,
      "duration": 0.6496,
      "velocity": 108,
      "chip": "ym2612"
    },
    {
      "channel": 1,
      "note": 50,
      "start": 59.5554,
      "duration": 0.6497,
      "velocity": 108,
      "chip": "ym2612"
    },
    {
      "channel": 3,
      "note": 47,
      "start": 59.5571,
      "duration": 0.6495,
      "velocity": 108,
      "chip": "ym2612"
    },
    {
      "channel": 0,
      "note": 52,
      "start": 60.0426,
      "duration": 1.43,
      "velocity": 108,
      "chip": "ym2612"
    },
    {
      "channel": 2,
      "note": 48,
      "start": 60.0434,
      "duration": 1.4296,
      "velocity": 108,
      "chip": "ym2612"
    },
    {
      "channel": 1,
      "note": 52,
      "start": 60.3355,
      "duration": 1.4299,
      "velocity": 108,
      "chip": "ym2612"
    },
    {
      "channel": 3,
      "note": 48,
      "start": 60.3375,
      "duration": 1.4293,
      "velocity": 108,
      "chip": "ym2612"
    },
    {
      "channel": 5,
      "note": 21,
      "start": 60.8258,
      "duration": 1.4291,
      "velocity": 98,
      "chip": "ym2612"
    },
    {
      "channel": 4,
      "note": 21,
      "start": 61.0202,
      "duration": 1.4291,
      "velocity": 98,
      "chip": "ym2612"
    },
    {
      "channel": 0,
      "note": 45,
      "start": 61.6029,
      "duration": 0.6497,
      "velocity": 108,
      "chip": "ym2612"
    },
    {
      "channel": 2,
      "note": 40,
      "start": 61.6037,
      "duration": 0.6494,
      "velocity": 108,
      "chip": "ym2612"
    },
    {
      "channel": 1,
      "note": 45,
      "start": 61.8957,
      "duration": 0.6497,
      "velocity": 108,
      "chip": "ym2612"
    },
    {
      "channel": 3,
      "note": 40,
      "start": 61.8974,
      "duration": 0.6493,
      "velocity": 108,
      "chip": "ym2612"
    },
    {
      "channel": 0,
      "note": 51,
      "start": 62.3829,
      "duration": 1.43,
      "velocity": 108,
      "chip": "ym2612"
    },
    {
      "channel": 2,
      "note": 48,
      "start": 62.3837,
      "duration": 1.4297,
      "velocity": 108,
      "chip": "ym2612"
    },
    {
      "channel": 5,
      "note": 32,
      "start": 62.3866,
      "duration": 4.5487,
      "velocity": 98,
      "chip": "ym2612"
    },
    {
      "channel": 4,
      "note": 32,
      "start": 62.5804,
      "duration": 4.5495,
      "velocity": 98,
      "chip": "ym2612"
    },
    {
      "channel": 1,
      "note": 51,
      "start": 62.6758,
      "duration": 1.4296,
      "velocity": 108,
      "chip": "ym2612"
    },
    {
      "channel": 3,
      "note": 48,
      "start": 62.6775,
      "duration": 1.4293,
      "velocity": 108,
      "chip": "ym2612"
    },
    {
      "channel": 0,
      "note": 50,
      "start": 63.943,
      "duration": 0.6499,
      "velocity": 108,
      "chip": "ym2612"
    },
    {
      "channel": 2,
      "note": 46,
      "start": 63.9438,
      "duration": 0.6495,
      "velocity": 108,
      "chip": "ym2612"
    },
    {
      "channel": 1,
      "note": 50,
      "start": 64.2357,
      "duration": 0.6499,
      "velocity": 108,
      "chip": "ym2612"
    },
    {
      "channel": 3,
      "note": 46,
      "start": 64.2374,
      "duration": 0.6495,
      "velocity": 108,
      "chip": "ym2612"
    },
    {
      "channel": 0,
      "note": 46,
      "start": 64.7232,
      "duration": 0.6498,
      "velocity": 108,
      "chip": "ym2612"
    },
    {
      "channel": 2,
      "note": 38,
      "start": 64.7239,
      "duration": 0.6496,
      "velocity": 108,
      "chip": "ym2612"
    },
    {
      "channel": 1,
      "note": 46,
      "start": 65.0158,
      "duration": 0.6499,
      "velocity": 108,
      "chip": "ym2612"
    },
    {
      "channel": 3,
      "note": 38,
      "start": 65.0175,
      "duration": 0.6496,
      "velocity": 108,
      "chip": "ym2612"
    },
    {
      "channel": 0,
      "note": 48,
      "start": 65.5032,
      "duration": 2.99,
      "velocity": 108,
      "chip": "ym2612"
    },
    {
      "channel": 2,
      "note": 44,
      "start": 65.5039,
      "duration": 2.9897,
      "velocity": 108,
      "chip": "ym2612"
    },
    {
      "channel": 1,
      "note": 48,
      "start": 65.7961,
      "duration": 2.9899,
      "velocity": 108,
      "chip": "ym2612"
    },
    {
      "channel": 3,
      "note": 44,
      "start": 65.7976,
      "duration": 2.9898,
      "velocity": 108,
      "chip": "ym2612"
    },
    {
      "channel": 5,
      "note": 27,
      "start": 67.066,
      "duration": 1.4294,
      "velocity": 98,
      "chip": "ym2612"
    },
    {
      "channel": 4,
      "note": 27,
      "start": 67.2606,
      "duration": 1.4294,
      "velocity": 98,
      "chip": "ym2612"
    },
    {
      "channel": 5,
      "note": 32,
      "start": 68.6263,
      "duration": 4.5497,
      "velocity": 98,
      "chip": "ym2612"
    },
    {
      "channel": 4,
      "note": 32,
      "start": 68.8203,
      "duration": 4.5502,
      "velocity": 98,
      "chip": "ym2612"
    },
    {
      "channel": 0,
      "note": 51,
      "start": 69.4037,
      "duration": 0.6497,
      "velocity": 108,
      "chip": "ym2612"
    },
    {
      "channel": 2,
      "note": 48,
      "start": 69.4045,
      "duration": 0.6494,
      "velocity": 108,
      "chip": "ym2612"
    },
    {
      "channel": 1,
      "note": 51,
      "start": 69.6964,
      "duration": 0.6499,
      "velocity": 108,
      "chip": "ym2612"
    },
    {
      "channel": 3,
      "note": 48,
      "start": 69.698,
      "duration": 0.6495,
      "velocity": 108,
      "chip": "ym2612"
    },
    {
      "channel": 0,
      "note": 50,
      "start": 70.1837,
      "duration": 0.6497,
      "velocity": 108,
      "chip": "ym2612"
    },
    {
      "channel": 2,
      "note": 48,
      "start": 70.1845,
      "duration": 0.6494,
      "velocity": 108,
      "chip": "ym2612"
    },
    {
      "channel": 1,
      "note": 50,
      "start": 70.4764,
      "duration": 0.6499,
      "velocity": 108,
      "chip": "ym2612"
    },
    {
      "channel": 3,
      "note": 48,
      "start": 70.478,
      "duration": 0.6495,
      "velocity": 108,
      "chip": "ym2612"
    },
    {
      "channel": 0,
      "note": 51,
      "start": 70.9637,
      "duration": 0.6498,
      "velocity": 108,
      "chip": "ym2612"
    },
    {
      "channel": 2,
      "note": 48,
      "start": 70.9644,
      "duration": 0.6496,
      "velocity": 108,
      "chip": "ym2612"
    },
    {
      "channel": 1,
      "note": 51,
      "start": 71.2566,
      "duration": 0.6497,
      "velocity": 108,
      "chip": "ym2612"
    },
    {
      "channel": 3,
      "note": 48,
      "start": 71.2581,
      "duration": 0.6494,
      "velocity": 108,
      "chip": "ym2612"
    },
    {
      "channel": 0,
      "note": 53,
      "start": 71.7438,
      "duration": 1.43,
      "velocity": 108,
      "chip": "ym2612"
    },
    {
      "channel": 2,
      "note": 48,
      "start": 71.7446,
      "duration": 1.4296,
      "velocity": 108,
      "chip": "ym2612"
    },
    {
      "channel": 1,
      "note": 53,
      "start": 72.0366,
      "duration": 1.4298,
      "velocity": 108,
      "chip": "ym2612"
    },
    {
      "channel": 3,
      "note": 48,
      "start": 72.0382,
      "duration": 1.4296,
      "velocity": 108,
      "chip": "ym2612"
    },
    {
      "channel": 0,
      "note": 51,
      "start": 73.3039,
      "duration": 0.6497,
      "velocity": 108,
      "chip": "ym2612"
    },
    {
      "channel": 2,
      "note": 48,
      "start": 73.3047,
      "duration": 0.6495,
      "velocity": 108,
      "chip": "ym2612"
    },
    {
      "channel": 5,
      "note": 32,
      "start": 73.3073,
      "duration": 1.4286,
      "velocity": 98,
      "chip": "ym2612"
    },
    {
      "channel": 4,
      "note": 32,
      "start": 73.5012,
      "duration": 1.4295,
      "velocity": 98,
      "chip": "ym2612"
    },
    {
      "channel": 1,
      "note": 51,
      "start": 73.5968,
      "duration": 0.6498,
      "velocity": 108,
      "chip": "ym2612"
    },
    {
      "channel": 3,
      "note": 48,
      "start": 73.5986,
      "duration": 0.6493,
      "velocity": 108,
      "chip": "ym2612"
    },
    {
      "channel": 0,
      "note": 53,
      "start": 74.084,
      "duration": 0.6498,
      "velocity": 108,
      "chip": "ym2612"
    },
    {
      "channel": 2,
      "note": 48,
      "start": 74.0847,
      "duration": 0.6496,
      "velocity": 108,
      "chip": "ym2612"
    },
    {
      "channel": 1,
      "note": 53,
      "start": 74.3766,
      "duration": 0.6499,
      "velocity": 108,
      "chip": "ym2612"
    },
    {
      "channel": 3,
      "note": 48,
      "start": 74.3785,
      "duration": 0.6495,
      "velocity": 108,
      "chip": "ym2612"
    },
    {
      "channel": 0,
      "note": 55,
      "start": 74.8643,
      "duration": 3.7698,
      "velocity": 108,
      "chip": "ym2612"
    },
    {
      "channel": 2,
      "note": 50,
      "start": 74.8653,
      "duration": 3.7694,
      "velocity": 108,
      "chip": "ym2612"
    },
    {
      "channel": 5,
      "note": 31,
      "start": 74.8679,
      "duration": 1.428,
      "velocity": 98,
      "chip": "ym2612"
    },
    {
      "channel": 4,
      "note": 31,
      "start": 75.0612,
      "duration": 1.4295,
      "velocity": 98,
      "chip": "ym2612"
    },
    {
      "channel": 1,
      "note": 55,
      "start": 75.1569,
      "duration": 3.77,
      "velocity": 108,
      "chip": "ym2612"
    },
    {
      "channel": 3,
      "note": 50,
      "start": 75.1587,
      "duration": 3.7696,
      "velocity": 108,
      "chip": "ym2612"
    },
    {
      "channel": 5,
      "note": 32,
      "start": 76.4262,
      "duration": 1.4298,
      "velocity": 98,
      "chip": "ym2612"
    },
    {
      "channel": 4,
      "note": 32,
      "start": 76.621,
      "duration": 1.4298,
      "velocity": 98,
      "chip": "ym2612"
    },
    {
      "channel": 5,
      "note": 27,
      "start": 77.9866,
      "duration": 1.4296,
      "velocity": 98,
      "chip": "ym2612"
    },
    {
      "channel": 4,
      "note": 27,
      "start": 78.1812,
      "duration": 1.4298,
      "velocity": 98,
      "chip": "ym2612"
    },
    {
      "channel": 0,
      "note": 53,
      "start": 78.7644,
      "duration": 1.43,
      "velocity": 108,
      "chip": "ym2612"
    },
    {
      "channel": 2,
      "note": 48,
      "start": 78.7651,
      "duration": 1.4297,
      "velocity": 108,
      "chip": "ym2612"
    },
    {
      "channel": 1,
      "note": 53,
      "start": 79.0573,
      "duration": 1.4298,
      "velocity": 108,
      "chip": "ym2612"
    },
    {
      "channel": 3,
      "note": 48,
      "start": 79.0589,
      "duration": 1.4295,
      "velocity": 108,
      "chip": "ym2612"
    },
    {
      "channel": 5,
      "note": 29,
      "start": 79.5466,
      "duration": 1.4299,
      "velocity": 98,
      "chip": "ym2612"
    },
    {
      "channel": 4,
      "note": 29,
      "start": 79.7412,
      "duration": 1.43,
      "velocity": 98,
      "chip": "ym2612"
    },
    {
      "channel": 0,
      "note": 48,
      "start": 80.3247,
      "duration": 0.6498,
      "velocity": 108,
      "chip": "ym2612"
    },
    {
      "channel": 2,
      "note": 43,
      "start": 80.3255,
      "duration": 0.6494,
      "velocity": 108,
      "chip": "ym2612"
    },
    {
      "channel": 1,
      "note": 48,
      "start": 80.6173,
      "duration": 0.6499,
      "velocity": 108,
      "chip": "ym2612"
    },
    {
      "channel": 3,
      "note": 43,
      "start": 80.6189,
      "duration": 0.6496,
      "velocity": 108,
      "chip": "ym2612"
    },
    {
      "channel": 0,
      "note": 50,
      "start": 81.1048,
      "duration": 3.77,
      "velocity": 108,
      "chip": "ym2612"
    },
    {
      "channel": 2,
      "note": 46,
      "start": 81.1057,
      "duration": 3.7695,
      "velocity": 108,
      "chip": "ym2612"
    },
    {
      "channel": 5,
      "note": 31,
      "start": 81.1079,
      "duration": 1.4285,
      "velocity": 98,
      "chip": "ym2612"
    },
    {
      "channel": 4,
      "note": 31,
      "start": 81.3016,
      "duration": 1.4297,
      "velocity": 98,
      "chip": "ym2612"
    },
    {
      "channel": 1,
      "note": 50,
      "start": 81.3975,
      "duration": 3.77,
      "velocity": 108,
      "chip": "ym2612"
    },
    {
      "channel": 3,
      "note": 46,
      "start": 81.3993,
      "duration": 3.7695,
      "velocity": 108,
      "chip": "ym2612"
    },
    {
      "channel": 5,
      "note": 32,
      "start": 82.6667,
      "duration": 1.4299,
      "velocity": 98,
      "chip": "ym2612"
    },
    {
      "channel": 4,
      "note": 32,
      "start": 82.8617,
      "duration": 1.4296,
      "velocity": 98,
      "chip": "ym2612"
    },
    {
      "channel": 5,
      "note": 27,
      "start": 84.2271,
      "duration": 1.4295,
      "velocity": 98,
      "chip": "ym2612"
    },
    {
      "channel": 4,
      "note": 27,
      "start": 84.4219,
      "duration": 1.4296,
      "velocity": 98,
      "chip": "ym2612"
    },
    {
      "channel": 0,
      "note": 48,
      "start": 85.0051,
      "duration": 1.43,
      "velocity": 108,
      "chip": "ym2612"
    },
    {
      "channel": 2,
      "note": 43,
      "start": 85.0059,
      "duration": 1.4297,
      "velocity": 108,
      "chip": "ym2612"
    },
    {
      "channel": 1,
      "note": 48,
      "start": 85.2977,
      "duration": 1.4301,
      "velocity": 108,
      "chip": "ym2612"
    },
    {
      "channel": 3,
      "note": 43,
      "start": 85.2993,
      "duration": 1.4298,
      "velocity": 108,
      "chip": "ym2612"
    },
    {
      "channel": 5,
      "note": 29,
      "start": 85.7869,
      "duration": 1.4302,
      "velocity": 98,
      "chip": "ym2612"
    },
    {
      "channel": 4,
      "note": 29,
      "start": 85.9817,
      "duration": 1.43,
      "velocity": 98,
      "chip": "ym2612"
    },
    {
      "channel": 0,
      "note": 43,
      "start": 86.5653,
      "duration": 0.6498,
      "velocity": 108,
      "chip": "ym2612"
    },
    {
      "channel": 2,
      "note": 38,
      "start": 86.5661,
      "duration": 0.6495,
      "velocity": 108,
      "chip": "ym2612"
    },
    {
      "channel": 1,
      "note": 43,
      "start": 86.8579,
      "duration": 0.65,
      "velocity": 108,
      "chip": "ym2612"
    },
    {
      "channel": 3,
      "note": 38,
      "start": 86.8595,
      "duration": 0.6496,
      "velocity": 108,
      "chip": "ym2612"
    },
    {
      "channel": 0,
      "note": 46,
      "start": 87.3454,
      "duration": 3.77,
      "velocity": 108,
      "chip": "ym2612"
    },
    {
      "channel": 2,
      "note": 39,
      "start": 87.3464,
      "duration": 3.7695,
      "velocity": 108,
      "chip": "ym2612"
    },
    {
      "channel": 5,
      "note": 31,
      "start": 87.3486,
      "duration": 1.4285,
      "velocity": 98,
      "chip": "ym2612"
    },
    {
      "channel": 4,
      "note": 31,
      "start": 87.5421,
      "duration": 1.4298,
      "velocity": 98,
      "chip": "ym2612"
    },
    {
      "channel": 1,
      "note": 46,
      "start": 87.6381,
      "duration": 3.77,
      "velocity": 108,
      "chip": "ym2612"
    },
    {
      "channel": 3,
      "note": 39,
      "start": 87.6399,
      "duration": 3.7695,
      "velocity": 108,
      "chip": "ym2612"
    },
    {
      "channel": 5,
      "note": 32,
      "start": 88.9072,
      "duration": 1.4299,
      "velocity": 98,
      "chip": "ym2612"
    },
    {
      "channel": 4,
      "note": 32,
      "start": 89.1023,
      "duration": 1.4297,
      "velocity": 98,
      "chip": "ym2612"
    },
    {
      "channel": 5,
      "note": 27,
      "start": 90.4679,
      "duration": 1.4295,
      "velocity": 98,
      "chip": "ym2612"
    },
    {
      "channel": 4,
      "note": 27,
      "start": 90.6624,
      "duration": 1.4296,
      "velocity": 98,
      "chip": "ym2612"
    },
    {
      "channel": 0,
      "note": 41,
      "start": 91.2456,
      "duration": 1.43,
      "velocity": 108,
      "chip": "ym2612"
    },
    {
      "channel": 2,
      "note": 36,
      "start": 91.2464,
      "duration": 1.4298,
      "velocity": 108,
      "chip": "ym2612"
    },
    {
      "channel": 1,
      "note": 41,
      "start": 91.5383,
      "duration": 1.43,
      "velocity": 108,
      "chip": "ym2612"
    },
    {
      "channel": 3,
      "note": 36,
      "start": 91.5399,
      "duration": 1.4296,
      "velocity": 108,
      "chip": "ym2612"
    },
    {
      "channel": 5,
      "note": 29,
      "start": 92.0277,
      "duration": 1.43,
      "velocity": 98,
      "chip": "ym2612"
    },
    {
      "channel": 4,
      "note": 29,
      "start": 92.2223,
      "duration": 1.43,
      "velocity": 98,
      "chip": "ym2612"
    },
    {
      "channel": 0,
      "note": 36,
      "start": 92.8058,
      "duration": 0.6499,
      "velocity": 108,
      "chip": "ym2612"
    },
    {
      "channel": 2,
      "note": 31,
      "start": 92.8066,
      "duration": 0.6495,
      "velocity": 108,
      "chip": "ym2612"
    },
    {
      "channel": 1,
      "note": 36,
      "start": 93.0988,
      "duration": 0.6496,
      "velocity": 108,
      "chip": "ym2612"
    },
    {
      "channel": 3,
      "note": 31,
      "start": 93.1004,
      "duration": 0.6493,
      "velocity": 108,
      "chip": "ym2612"
    },
    {
      "channel": 0,
      "note": 38,
      "start": 93.586,
      "duration": 6.1102,
      "velocity": 108,
      "chip": "ym2612"
    },
    {
      "channel": 2,
      "note": 34,
      "start": 93.5868,
      "duration": 6.1099,
      "velocity": 108,
      "chip": "ym2612"
    },
    {
      "channel": 5,
      "note": 31,
      "start": 93.589,
      "duration": 1.4288,
      "velocity": 98,
      "chip": "ym2612"
    },
    {
      "channel": 4,
      "note": 31,
      "start": 93.7827,
      "duration": 1.4298,
      "velocity": 98,
      "chip": "ym2612"
    },
    {
      "channel": 1,
      "note": 38,
      "start": 93.8786,
      "duration": 6.1104,
      "velocity": 108,
      "chip": "ym2612"
    },
    {
      "channel": 3,
      "note": 34,
      "start": 93.8802,
      "duration": 6.11,
      "velocity": 108,
      "chip": "ym2612"
    },
    {
      "channel": 5,
      "note": 32,
      "start": 95.148,
      "duration": 1.4298,
      "velocity": 98,
      "chip": "ym2612"
    },
    {
      "channel": 4,
      "note": 32,
      "start": 95.3429,
      "duration": 1.4298,
      "velocity": 98,
      "chip": "ym2612"
    },
    {
      "channel": 5,
      "note": 27,
      "start": 96.7085,
      "duration": 1.4295,
      "velocity": 98,
      "chip": "ym2612"
    },
    {
      "channel": 4,
      "note": 27,
      "start": 96.903,
      "duration": 1.4298,
      "velocity": 98,
      "chip": "ym2612"
    },
    {
      "channel": 5,
      "note": 29,
      "start": 98.2682,
      "duration": 1.43,
      "velocity": 98,
      "chip": "ym2612"
    },
    {
      "channel": 4,
      "note": 29,
      "start": 98.4631,
      "duration": 1.4298,
      "velocity": 98,
      "chip": "ym2612"
    },
    {
      "channel": 5,
      "note": 31,
      "start": 99.8296,
      "duration": 2.9888,
      "velocity": 98,
      "chip": "ym2612"
    },
    {
      "channel": 4,
      "note": 31,
      "start": 100.0237,
      "duration": 2.9894,
      "velocity": 98,
      "chip": "ym2612"
    },
    {
      "channel": 0,
      "note": 26,
      "start": 101.3866,
      "duration": 4.5501,
      "velocity": 108,
      "chip": "ym2612"
    },
    {
      "channel": 2,
      "note": 31,
      "start": 101.3874,
      "duration": 4.5499,
      "velocity": 108,
      "chip": "ym2612"
    },
    {
      "channel": 1,
      "note": 26,
      "start": 101.6794,
      "duration": 4.5502,
      "velocity": 108,
      "chip": "ym2612"
    },
    {
      "channel": 3,
      "note": 31,
      "start": 101.681,
      "duration": 4.5499,
      "velocity": 108,
      "chip": "ym2612"
    },
    {
      "channel": 5,
      "note": 31,
      "start": 102.9486,
      "duration": 1.4303,
      "velocity": 98,
      "chip": "ym2612"
    },
    {
      "channel": 4,
      "note": 31,
      "start": 103.1435,
      "duration": 1.43,
      "velocity": 98,
      "chip": "ym2612"
    },
    {
      "channel": 5,
      "note": 29,
      "start": 104.5095,
      "duration": 1.4294,
      "velocity": 98,
      "chip": "ym2612"
    },
    {
      "channel": 4,
      "note": 29,
      "start": 104.7043,
      "duration": 1.4293,
      "velocity": 98,
      "chip": "ym2612"
    },
    {
      "channel": 5,
      "note": 31,
      "start": 106.0699,
      "duration": 2.9892,
      "velocity": 98,
      "chip": "ym2612"
    },
    {
      "channel": 4,
      "note": 31,
      "start": 106.2639,
      "duration": 2.9899,
      "velocity": 98,
      "chip": "ym2612"
    },
    {
      "channel": 0,
      "note": 24,
      "start": 107.6272,
      "duration": 4.5501,
      "velocity": 108,
      "chip": "ym2612"
    },
    {
      "channel": 2,
      "note": 29,
      "start": 107.628,
      "duration": 4.5498,
      "velocity": 108,
      "chip": "ym2612"
    },
    {
      "channel": 1,
      "note": 24,
      "start": 107.9198,
      "duration": 4.5502,
      "velocity": 108,
      "chip": "ym2612"
    },
    {
      "channel": 3,
      "note": 29,
      "start": 107.9215,
      "duration": 4.55,
      "velocity": 108,
      "chip": "ym2612"
    },
    {
      "channel": 5,
      "note": 31,
      "start": 109.1893,
      "duration": 1.43,
      "velocity": 98,
      "chip": "ym2612"
    },
    {
      "channel": 4,
      "note": 31,
      "start": 109.384,
      "duration": 1.4301,
      "velocity": 98,
      "chip": "ym2612"
    },
    {
      "channel": 5,
      "note": 29,
      "start": 110.7501,
      "duration": 1.4294,
      "velocity": 98,
      "chip": "ym2612"
    },
    {
      "channel": 4,
      "note": 29,
      "start": 110.9448,
      "duration": 1.4294,
      "velocity": 98,
      "chip": "ym2612"
    },
    {
      "channel": 5,
      "note": 31,
      "start": 112.3104,
      "duration": 2.9892,
      "velocity": 98,
      "chip": "ym2612"
    },
    {
      "channel": 4,
      "note": 31,
      "start": 112.5045,
      "duration": 2.9899,
      "velocity": 98,
      "chip": "ym2612"
    },
    {
      "channel": 0,
      "note": 26,
      "start": 113.8677,
      "duration": 4.5502,
      "velocity": 108,
      "chip": "ym2612"
    },
    {
      "channel": 2,
      "note": 31,
      "start": 113.8686,
      "duration": 4.5498,
      "velocity": 108,
      "chip": "ym2612"
    },
    {
      "channel": 1,
      "note": 26,
      "start": 114.1605,
      "duration": 4.5503,
      "velocity": 108,
      "chip": "ym2612"
    },
    {
      "channel": 3,
      "note": 31,
      "start": 114.1621,
      "duration": 4.55,
      "velocity": 108,
      "chip": "ym2612"
    },
    {
      "channel": 5,
      "note": 31,
      "start": 115.4299,
      "duration": 1.43,
      "velocity": 98,
      "chip": "ym2612"
    },
    {
      "channel": 4,
      "note": 31,
      "start": 115.6247,
      "duration": 1.43,
      "velocity": 98,
      "chip": "ym2612"
    },
    {
      "channel": 5,
      "note": 29,
      "start": 116.9907,
      "duration": 1.4293,
      "velocity": 98,
      "chip": "ym2612"
    },
    {
      "channel": 4,
      "note": 29,
      "start": 117.1855,
      "duration": 1.4293,
      "velocity": 98,
      "chip": "ym2612"
    },
    {
      "channel": 5,
      "note": 31,
      "start": 118.5507,
      "duration": 2.9896,
      "velocity": 98,
      "chip": "ym2612"
    },
    {
      "channel": 4,
      "note": 31,
      "start": 118.7451,
      "duration": 2.9899,
      "velocity": 98,
      "chip": "ym2612"
    },
    {
      "channel": 0,
      "note": 24,
      "start": 120.1085,
      "duration": 4.5501,
      "velocity": 108,
      "chip": "ym2612"
    },
    {
      "channel": 2,
      "note": 29,
      "start": 120.1093,
      "duration": 4.5499,
      "velocity": 108,
      "chip": "ym2612"
    },
    {
      "channel": 1,
      "note": 24,
      "start": 120.4012,
      "duration": 4.5502,
      "velocity": 108,
      "chip": "ym2612"
    },
    {
      "channel": 3,
      "note": 29,
      "start": 120.4028,
      "duration": 4.55,
      "velocity": 108,
      "chip": "ym2612"
    },
    {
      "channel": 5,
      "note": 31,
      "start": 121.6705,
      "duration": 1.43,
      "velocity": 98,
      "chip": "ym2612"
    },
    {
      "channel": 4,
      "note": 31,
      "start": 121.8652,
      "duration": 1.43,
      "velocity": 98,
      "chip": "ym2612"
    },
    {
      "channel": 5,
      "note": 24,
      "start": 123.2316,
      "duration": 1.4292,
      "velocity": 98,
      "chip": "ym2612"
    },
    {
      "channel": 4,
      "note": 24,
      "start": 123.4263,
      "duration": 1.4291,
      "velocity": 98,
      "chip": "ym2612"
    },
    {
      "channel": 0,
      "note": 38,
      "start": 124.7892,
      "duration": 2.2097,
      "velocity": 108,
      "chip": "ym2612"
    },
    {
      "channel": 2,
      "note": 26,
      "start": 124.7901,
      "duration": 2.2092,
      "velocity": 108,
      "chip": "ym2612"
    },
    {
      "channel": 5,
      "note": 26,
      "start": 124.7929,
      "duration": 1.4277,
      "velocity": 98,
      "chip": "ym2612"
    },
    {
      "channel": 4,
      "note": 26,
      "start": 124.9861,
      "duration": 1.4295,
      "velocity": 98,
      "chip": "ym2612"
    },
    {
      "channel": 1,
      "note": 38,
      "start": 125.0818,
      "duration": 2.0657,
      "velocity": 108,
      "chip": "ym2612"
    },
    {
      "channel": 3,
      "note": 26,
      "start": 125.0837,
      "duration": 2.0639,
      "velocity": 108,
      "chip": "ym2612"
    },
    {
      "channel": 5,
      "note": 28,
      "start": 126.351,
      "duration": 0.7966,
      "velocity": 98,
      "chip": "ym2612"
    },
    {
      "channel": 4,
      "note": 28,
      "start": 126.5457,
      "duration": 0.6019,
      "velocity": 98,
      "chip": "ym2612"
    },
    {
      "channel": 0,
      "note": 36,
      "start": 127.1291,
      "duration": 0.0184,
      "velocity": 108,
      "chip": "ym2612"
    },
    {
      "channel": 2,
      "note": 24,
      "start": 127.1299,
      "duration": 0.0176,
      "velocity": 108,
      "chip": "ym2612"
    }
  ]
}