{
  "track_name": "06 - Unknown (Sound Test 03)",
  "duration_sec": 42.931,
  "sample_rate": 44100,
  "note_count": 458,
  "unique_pitches": 18,
  "pitch_range": 48,
  "avg_note_duration": 0.4571,
  "reconstruction_stats": {
    "notes_reconstructed": 458,
    "keyon_events": 458,
    "keyoff_events": 453,
    "orphan_keyons": 5,
    "unique_pitches": 18,
    "pitch_range": 48,
    "avg_duration_sec": 0.4571
  },
  "metadata": {
    "source": "T\\Tecmo World Cup\\06 - Unknown (Sound Test 03).vgz"
  },
  "notes": [
    {
      "channel": 0,
      "note": 46,
      "start": 0.0022,
      "duration": 0.4162,
      "velocity": 74,
      "chip": "ym2612"
    },
    {
      "channel": 1,
      "note": 82,
      "start": 0.0057,
      "duration": 0.1961,
      "velocity": 103,
      "chip": "ym2612"
    },
    {
      "channel": 1,
      "note": 82,
      "start": 0.2024,
      "duration": 0.2167,
      "velocity": 103,
      "chip": "ym2612"
    },
    {
      "channel": 0,
      "note": 46,
      "start": 0.419,
      "duration": 0.021,
      "velocity": 74,
      "chip": "ym2612"
    },
    {
      "channel": 1,
      "note": 82,
      "start": 0.4197,
      "duration": 0.021,
      "velocity": 103,
      "chip": "ym2612"
    },
    {
      "channel": 0,
      "note": 46,
      "start": 0.4406,
      "duration": 0.1067,
      "velocity": 74,
      "chip": "ym2612"
    },
    {
      "channel": 1,
      "note": 82,
      "start": 0.4413,
      "duration": 0.022,
      "velocity": 103,
      "chip": "ym2612"
    },
    {
      "channel": 1,
      "note": 82,
      "start": 0.4639,
      "duration": 0.0841,
      "velocity": 103,
      "chip": "ym2612"
    },
    {
      "channel": 0,
      "note": 46,
      "start": 0.5479,
      "duration": 0.1997,
      "velocity": 74,
      "chip": "ym2612"
    },
    {
      "channel": 1,
      "note": 82,
      "start": 0.5487,
      "duration": 0.1996,
      "velocity": 103,
      "chip": "ym2612"
    },
    {
      "channel": 0,
      "note": 46,
      "start": 0.7482,
      "duration": 0.0234,
      "velocity": 74,
      "chip": "ym2612"
    },
    {
      "channel": 1,
      "note": 82,
      "start": 0.7489,
      "duration": 0.0234,
      "velocity": 103,
      "chip": "ym2612"
    },
    {
      "channel": 0,
      "note": 46,
      "start": 0.7722,
      "duration": 0.0833,
      "velocity": 74,
      "chip": "ym2612"
    },
    {
      "channel": 1,
      "note": 82,
      "start": 0.7729,
      "duration": 0.0832,
      "velocity": 103,
      "chip": "ym2612"
    },
    {
      "channel": 0,
      "note": 46,
      "start": 0.8561,
      "duration": 0.021,
      "velocity": 74,
      "chip": "ym2612"
    },
    {
      "channel": 1,
      "note": 82,
      "start": 0.8568,
      "duration": 0.021,
      "velocity": 103,
      "chip": "ym2612"
    },
    {
      "channel": 0,
      "note": 46,
      "start": 0.8777,
      "duration": 0.0441,
      "velocity": 74,
      "chip": "ym2612"
    },
    {
      "channel": 1,
      "note": 82,
      "start": 0.8784,
      "duration": 0.0223,
      "velocity": 103,
      "chip": "ym2612"
    },
    {
      "channel": 1,
      "note": 82,
      "start": 0.9013,
      "duration": 0.0211,
      "velocity": 103,
      "chip": "ym2612"
    },
    {
      "channel": 0,
      "note": 46,
      "start": 0.9223,
      "duration": 0.0227,
      "velocity": 74,
      "chip": "ym2612"
    },
    {
      "channel": 1,
      "note": 82,
      "start": 0.923,
      "duration": 0.0227,
      "velocity": 103,
      "chip": "ym2612"
    },
    {
      "channel": 0,
      "note": 46,
      "start": 0.9456,
      "duration": 0.2836,
      "velocity": 74,
      "chip": "ym2612"
    },
    {
      "channel": 2,
      "note": 67,
      "start": 0.9467,
      "duration": 0.8087,
      "velocity": 102,
      "chip": "ym2612"
    },
    {
      "channel": 3,
      "note": 63,
      "start": 0.9474,
      "duration": 0.8086,
      "velocity": 102,
      "chip": "ym2612"
    },
    {
      "channel": 4,
      "note": 79,
      "start": 0.9482,
      "duration": 0.5002,
      "velocity": 103,
      "chip": "ym2612"
    },
    {
      "channel": 1,
      "note": 82,
      "start": 1.0302,
      "duration": 0.1998,
      "velocity": 103,
      "chip": "ym2612"
    },
    {
      "channel": 0,
      "note": 46,
      "start": 1.2299,
      "duration": 0.2163,
      "velocity": 74,
      "chip": "ym2612"
    },
    {
      "channel": 1,
      "note": 81,
      "start": 1.2306,
      "duration": 0.2163,
      "velocity": 103,
      "chip": "ym2612"
    },
    {
      "channel": 0,
      "note": 46,
      "start": 1.4468,
      "duration": 0.0907,
      "velocity": 74,
      "chip": "ym2612"
    },
    {
      "channel": 1,
      "note": 79,
      "start": 1.4475,
      "duration": 0.0331,
      "velocity": 103,
      "chip": "ym2612"
    },
    {
      "channel": 4,
      "note": 81,
      "start": 1.449,
      "duration": 0.0907,
      "velocity": 103,
      "chip": "ym2612"
    },
    {
      "channel": 1,
      "note": 77,
      "start": 1.4812,
      "duration": 0.0571,
      "velocity": 103,
      "chip": "ym2612"
    },
    {
      "channel": 0,
      "note": 46,
      "start": 1.538,
      "duration": 0.2162,
      "velocity": 74,
      "chip": "ym2612"
    },
    {
      "channel": 1,
      "note": 81,
      "start": 1.5388,
      "duration": 0.2162,
      "velocity": 103,
      "chip": "ym2612"
    },
    {
      "channel": 4,
      "note": 79,
      "start": 1.5402,
      "duration": 0.2165,
      "velocity": 103,
      "chip": "ym2612"
    },
    {
      "channel": 0,
      "note": 46,
      "start": 1.7548,
      "duration": 0.1993,
      "velocity": 74,
      "chip": "ym2612"
    },
    {
      "channel": 2,
      "note": 65,
      "start": 1.7559,
      "duration": 0.9407,
      "velocity": 102,
      "chip": "ym2612"
    },
    {
      "channel": 3,
      "note": 62,
      "start": 1.7566,
      "duration": 0.9408,
      "velocity": 102,
      "chip": "ym2612"
    },
    {
      "channel": 4,
      "note": 77,
      "start": 1.7573,
      "duration": 0.199,
      "velocity": 103,
      "chip": "ym2612"
    },
    {
      "channel": 0,
      "note": 46,
      "start": 1.9547,
      "duration": 0.2161,
      "velocity": 74,
      "chip": "ym2612"
    },
    {
      "channel": 1,
      "note": 82,
      "start": 1.9554,
      "duration": 0.2161,
      "velocity": 103,
      "chip": "ym2612"
    },
    {
      "channel": 4,
      "note": 75,
      "start": 1.9569,
      "duration": 0.2161,
      "velocity": 103,
      "chip": "ym2612"
    },
    {
      "channel": 0,
      "note": 46,
      "start": 2.1714,
      "duration": 0.2163,
      "velocity": 74,
      "chip": "ym2612"
    },
    {
      "channel": 1,
      "note": 81,
      "start": 2.1721,
      "duration": 0.2163,
      "velocity": 103,
      "chip": "ym2612"
    },
    {
      "channel": 4,
      "note": 74,
      "start": 2.1736,
      "duration": 0.2163,
      "velocity": 103,
      "chip": "ym2612"
    },
    {
      "channel": 0,
      "note": 46,
      "start": 2.3883,
      "duration": 0.0905,
      "velocity": 74,
      "chip": "ym2612"
    },
    {
      "channel": 1,
      "note": 79,
      "start": 2.389,
      "duration": 0.0304,
      "velocity": 103,
      "chip": "ym2612"
    },
    {
      "channel": 4,
      "note": 74,
      "start": 2.3905,
      "duration": 0.3076,
      "velocity": 103,
      "chip": "ym2612"
    },
    {
      "channel": 1,
      "note": 77,
      "start": 2.42,
      "duration": 0.0595,
      "velocity": 103,
      "chip": "ym2612"
    },
    {
      "channel": 0,
      "note": 46,
      "start": 2.4793,
      "duration": 0.2162,
      "velocity": 74,
      "chip": "ym2612"
    },
    {
      "channel": 1,
      "note": 74,
      "start": 2.4801,
      "duration": 0.2162,
      "velocity": 103,
      "chip": "ym2612"
    },
    {
      "channel": 0,
      "note": 46,
      "start": 2.6962,
      "duration": 0.4159,
      "velocity": 74,
      "chip": "ym2612"
    },
    {
      "channel": 2,
      "note": 67,
      "start": 2.6972,
      "duration": 0.9245,
      "velocity": 102,
      "chip": "ym2612"
    },
    {
      "channel": 3,
      "note": 63,
      "start": 2.698,
      "duration": 0.9245,
      "velocity": 102,
      "chip": "ym2612"
    },
    {
      "channel": 4,
      "note": 72,
      "start": 2.6987,
      "duration": 0.1985,
      "velocity": 103,
      "chip": "ym2612"
    },
    {
      "channel": 1,
      "note": 72,
      "start": 2.8964,
      "duration": 0.2165,
      "velocity": 103,
      "chip": "ym2612"
    },
    {
      "channel": 4,
      "note": 74,
      "start": 2.8978,
      "duration": 0.2164,
      "velocity": 103,
      "chip": "ym2612"
    },
    {
      "channel": 0,
      "note": 46,
      "start": 3.1127,
      "duration": 0.2163,
      "velocity": 74,
      "chip": "ym2612"
    },
    {
      "channel": 1,
      "note": 74,
      "start": 3.1134,
      "duration": 0.2163,
      "velocity": 103,
      "chip": "ym2612"
    },
    {
      "channel": 4,
      "note": 75,
      "start": 3.1149,
      "duration": 0.2163,
      "velocity": 103,
      "chip": "ym2612"
    },
    {
      "channel": 0,
      "note": 46,
      "start": 3.3296,
      "duration": 0.0905,
      "velocity": 74,
      "chip": "ym2612"
    },
    {
      "channel": 1,
      "note": 75,
      "start": 3.3303,
      "duration": 0.0305,
      "velocity": 103,
      "chip": "ym2612"
    },
    {
      "channel": 4,
      "note": 77,
      "start": 3.3318,
      "duration": 0.0304,
      "velocity": 103,
      "chip": "ym2612"
    },
    {
      "channel": 1,
      "note": 77,
      "start": 3.3614,
      "duration": 0.0595,
      "velocity": 103,
      "chip": "ym2612"
    },
    {
      "channel": 4,
      "note": 75,
      "start": 3.3628,
      "duration": 0.0594,
      "velocity": 103,
      "chip": "ym2612"
    },
    {
      "channel": 0,
      "note": 46,
      "start": 3.4207,
      "duration": 0.1995,
      "velocity": 74,
      "chip": "ym2612"
    },
    {
      "channel": 1,
      "note": 79,
      "start": 3.4214,
      "duration": 0.1996,
      "velocity": 103,
      "chip": "ym2612"
    },
    {
      "channel": 4,
      "note": 74,
      "start": 3.4229,
      "duration": 0.2003,
      "velocity": 103,
      "chip": "ym2612"
    },
    {
      "channel": 0,
      "note": 46,
      "start": 3.6208,
      "duration": 0.216,
      "velocity": 74,
      "chip": "ym2612"
    },
    {
      "channel": 1,
      "note": 82,
      "start": 3.6216,
      "duration": 0.216,
      "velocity": 103,
      "chip": "ym2612"
    },
    {
      "channel": 2,
      "note": 70,
      "start": 3.6223,
      "duration": 0.9403,
      "velocity": 102,
      "chip": "ym2612"
    },
    {
      "channel": 3,
      "note": 65,
      "start": 3.6231,
      "duration": 0.9403,
      "velocity": 102,
      "chip": "ym2612"
    },
    {
      "channel": 4,
      "note": 77,
      "start": 3.6238,
      "duration": 0.2152,
      "velocity": 103,
      "chip": "ym2612"
    },
    {
      "channel": 0,
      "note": 46,
      "start": 3.8373,
      "duration": 0.2161,
      "velocity": 74,
      "chip": "ym2612"
    },
    {
      "channel": 1,
      "note": 81,
      "start": 3.8381,
      "duration": 0.2161,
      "velocity": 103,
      "chip": "ym2612"
    },
    {
      "channel": 4,
      "note": 75,
      "start": 3.8396,
      "duration": 0.216,
      "velocity": 103,
      "chip": "ym2612"
    },
    {
      "channel": 0,
      "note": 46,
      "start": 4.054,
      "duration": 0.1997,
      "velocity": 74,
      "chip": "ym2612"
    },
    {
      "channel": 1,
      "note": 79,
      "start": 4.0548,
      "duration": 0.1996,
      "velocity": 103,
      "chip": "ym2612"
    },
    {
      "channel": 4,
      "note": 74,
      "start": 4.0562,
      "duration": 0.1996,
      "velocity": 103,
      "chip": "ym2612"
    },
    {
      "channel": 0,
      "note": 46,
      "start": 4.2543,
      "duration": 0.1071,
      "velocity": 74,
      "chip": "ym2612"
    },
    {
      "channel": 1,
      "note": 81,
      "start": 4.255,
      "duration": 0.0331,
      "velocity": 103,
      "chip": "ym2612"
    },
    {
      "channel": 4,
      "note": 77,
      "start": 4.2565,
      "duration": 0.0331,
      "velocity": 103,
      "chip": "ym2612"
    },
    {
      "channel": 1,
      "note": 82,
      "start": 4.2887,
      "duration": 0.0735,
      "velocity": 103,
      "chip": "ym2612"
    },
    {
      "channel": 4,
      "note": 79,
      "start": 4.2902,
      "duration": 0.0735,
      "velocity": 103,
      "chip": "ym2612"
    },
    {
      "channel": 0,
      "note": 46,
      "start": 4.362,
      "duration": 0.1995,
      "velocity": 74,
      "chip": "ym2612"
    },
    {
      "channel": 1,
      "note": 84,
      "start": 4.3627,
      "duration": 0.1996,
      "velocity": 103,
      "chip": "ym2612"
    },
    {
      "channel": 4,
      "note": 81,
      "start": 4.3642,
      "duration": 0.1999,
      "velocity": 103,
      "chip": "ym2612"
    },
    {
      "channel": 0,
      "note": 46,
      "start": 4.5622,
      "duration": 0.4159,
      "velocity": 74,
      "chip": "ym2612"
    },
    {
      "channel": 2,
      "note": 70,
      "start": 4.5632,
      "duration": 0.941,
      "velocity": 102,
      "chip": "ym2612"
    },
    {
      "channel": 3,
      "note": 67,
      "start": 4.5639,
      "duration": 0.9409,
      "velocity": 102,
      "chip": "ym2612"
    },
    {
      "channel": 4,
      "note": 82,
      "start": 4.5647,
      "duration": 1.8822,
      "velocity": 103,
      "chip": "ym2612"
    },
    {
      "channel": 1,
      "note": 82,
      "start": 4.779,
      "duration": 0.1998,
      "velocity": 103,
      "chip": "ym2612"
    },
    {
      "channel": 0,
      "note": 46,
      "start": 4.9786,
      "duration": 0.2163,
      "velocity": 74,
      "chip": "ym2612"
    },
    {
      "channel": 1,
      "note": 81,
      "start": 4.9794,
      "duration": 0.2163,
      "velocity": 103,
      "chip": "ym2612"
    },
    {
      "channel": 0,
      "note": 46,
      "start": 5.1956,
      "duration": 0.0907,
      "velocity": 74,
      "chip": "ym2612"
    },
    {
      "channel": 1,
      "note": 79,
      "start": 5.1963,
      "duration": 0.033,
      "velocity": 103,
      "chip": "ym2612"
    },
    {
      "channel": 1,
      "note": 77,
      "start": 5.2298,
      "duration": 0.0572,
      "velocity": 103,
      "chip": "ym2612"
    },
    {
      "channel": 0,
      "note": 46,
      "start": 5.2868,
      "duration": 0.2162,
      "velocity": 74,
      "chip": "ym2612"
    },
    {
      "channel": 1,
      "note": 81,
      "start": 5.2876,
      "duration": 0.2162,
      "velocity": 103,
      "chip": "ym2612"
    },
    {
      "channel": 0,
      "note": 46,
      "start": 5.5036,
      "duration": 0.216,
      "velocity": 74,
      "chip": "ym2612"
    },
    {
      "channel": 2,
      "note": 65,
      "start": 5.5047,
      "duration": 0.9407,
      "velocity": 102,
      "chip": "ym2612"
    },
    {
      "channel": 3,
      "note": 62,
      "start": 5.5054,
      "duration": 0.9408,
      "velocity": 102,
      "chip": "ym2612"
    },
    {
      "channel": 0,
      "note": 46,
      "start": 5.7202,
      "duration": 0.1994,
      "velocity": 74,
      "chip": "ym2612"
    },
    {
      "channel": 1,
      "note": 82,
      "start": 5.7209,
      "duration": 0.1994,
      "velocity": 103,
      "chip": "ym2612"
    },
    {
      "channel": 0,
      "note": 46,
      "start": 5.9202,
      "duration": 0.2163,
      "velocity": 74,
      "chip": "ym2612"
    },
    {
      "channel": 1,
      "note": 81,
      "start": 5.9209,
      "duration": 0.2163,
      "velocity": 103,
      "chip": "ym2612"
    },
    {
      "channel": 0,
      "note": 46,
      "start": 6.1371,
      "duration": 0.0905,
      "velocity": 74,
      "chip": "ym2612"
    },
    {
      "channel": 1,
      "note": 79,
      "start": 6.1378,
      "duration": 0.0328,
      "velocity": 103,
      "chip": "ym2612"
    },
    {
      "channel": 1,
      "note": 77,
      "start": 6.1712,
      "duration": 0.0572,
      "velocity": 103,
      "chip": "ym2612"
    },
    {
      "channel": 0,
      "note": 46,
      "start": 6.2281,
      "duration": 0.2162,
      "velocity": 74,
      "chip": "ym2612"
    },
    {
      "channel": 1,
      "note": 74,
      "start": 6.2289,
      "duration": 0.2162,
      "velocity": 103,
      "chip": "ym2612"
    },
    {
      "channel": 0,
      "note": 46,
      "start": 6.445,
      "duration": 0.4159,
      "velocity": 74,
      "chip": "ym2612"
    },
    {
      "channel": 2,
      "note": 70,
      "start": 6.446,
      "duration": 0.9415,
      "velocity": 102,
      "chip": "ym2612"
    },
    {
      "channel": 3,
      "note": 67,
      "start": 6.4468,
      "duration": 0.9415,
      "velocity": 102,
      "chip": "ym2612"
    },
    {
      "channel": 4,
      "note": 82,
      "start": 6.4475,
      "duration": 1.1403,
      "velocity": 103,
      "chip": "ym2612"
    },
    {
      "channel": 1,
      "note": 72,
      "start": 6.6452,
      "duration": 0.2165,
      "velocity": 103,
      "chip": "ym2612"
    },
    {
      "channel": 0,
      "note": 46,
      "start": 6.8615,
      "duration": 0.2163,
      "velocity": 74,
      "chip": "ym2612"
    },
    {
      "channel": 1,
      "note": 74,
      "start": 6.8622,
      "duration": 0.2163,
      "velocity": 103,
      "chip": "ym2612"
    },
    {
      "channel": 0,
      "note": 46,
      "start": 7.0784,
      "duration": 0.0907,
      "velocity": 74,
      "chip": "ym2612"
    },
    {
      "channel": 1,
      "note": 75,
      "start": 7.0791,
      "duration": 0.0304,
      "velocity": 103,
      "chip": "ym2612"
    },
    {
      "channel": 1,
      "note": 77,
      "start": 7.1101,
      "duration": 0.0598,
      "velocity": 103,
      "chip": "ym2612"
    },
    {
      "channel": 0,
      "note": 46,
      "start": 7.1697,
      "duration": 0.2163,
      "velocity": 74,
      "chip": "ym2612"
    },
    {
      "channel": 1,
      "note": 79,
      "start": 7.1705,
      "duration": 0.2163,
      "velocity": 103,
      "chip": "ym2612"
    },
    {
      "channel": 0,
      "note": 46,
      "start": 7.3866,
      "duration": 0.0318,
      "velocity": 74,
      "chip": "ym2612"
    },
    {
      "channel": 1,
      "note": 77,
      "start": 7.3874,
      "duration": 0.0317,
      "velocity": 103,
      "chip": "ym2612"
    },
    {
      "channel": 2,
      "note": 65,
      "start": 7.3881,
      "duration": 0.1983,
      "velocity": 102,
      "chip": "ym2612"
    },
    {
      "channel": 3,
      "note": 62,
      "start": 7.3888,
      "duration": 0.1983,
      "velocity": 102,
      "chip": "ym2612"
    },
    {
      "channel": 0,
      "note": 46,
      "start": 7.419,
      "duration": 0.0338,
      "velocity": 74,
      "chip": "ym2612"
    },
    {
      "channel": 1,
      "note": 75,
      "start": 7.4198,
      "duration": 0.0337,
      "velocity": 103,
      "chip": "ym2612"
    },
    {
      "channel": 0,
      "note": 46,
      "start": 7.4534,
      "duration": 0.0312,
      "velocity": 74,
      "chip": "ym2612"
    },
    {
      "channel": 1,
      "note": 74,
      "start": 7.4541,
      "duration": 0.0311,
      "velocity": 103,
      "chip": "ym2612"
    },
    {
      "channel": 0,
      "note": 46,
      "start": 7.4851,
      "duration": 0.0683,
      "velocity": 74,
      "chip": "ym2612"
    },
    {
      "channel": 1,
      "note": 75,
      "start": 7.4859,
      "duration": 0.0331,
      "velocity": 103,
      "chip": "ym2612"
    },
    {
      "channel": 1,
      "note": 74,
      "start": 7.5195,
      "duration": 0.0346,
      "velocity": 103,
      "chip": "ym2612"
    },
    {
      "channel": 0,
      "note": 46,
      "start": 7.554,
      "duration": 0.0313,
      "velocity": 74,
      "chip": "ym2612"
    },
    {
      "channel": 1,
      "note": 72,
      "start": 7.5547,
      "duration": 0.0313,
      "velocity": 103,
      "chip": "ym2612"
    },
    {
      "channel": 0,
      "note": 46,
      "start": 7.5859,
      "duration": 0.2462,
      "velocity": 74,
      "chip": "ym2612"
    },
    {
      "channel": 2,
      "note": 67,
      "start": 7.5869,
      "duration": 0.7546,
      "velocity": 102,
      "chip": "ym2612"
    },
    {
      "channel": 3,
      "note": 63,
      "start": 7.5877,
      "duration": 0.7546,
      "velocity": 102,
      "chip": "ym2612"
    },
    {
      "channel": 4,
      "note": 79,
      "start": 7.5884,
      "duration": 0.4461,
      "velocity": 103,
      "chip": "ym2612"
    },
    {
      "channel": 1,
      "note": 82,
      "start": 7.6177,
      "duration": 0.2151,
      "velocity": 103,
      "chip": "ym2612"
    },
    {
      "channel": 0,
      "note": 46,
      "start": 7.8327,
      "duration": 0.1997,
      "velocity": 74,
      "chip": "ym2612"
    },
    {
      "channel": 1,
      "note": 81,
      "start": 7.8334,
      "duration": 0.1996,
      "velocity": 103,
      "chip": "ym2612"
    },
    {
      "channel": 0,
      "note": 46,
      "start": 8.0329,
      "duration": 0.1073,
      "velocity": 74,
      "chip": "ym2612"
    },
    {
      "channel": 1,
      "note": 79,
      "start": 8.0337,
      "duration": 0.0331,
      "velocity": 103,
      "chip": "ym2612"
    },
    {
      "channel": 4,
      "note": 81,
      "start": 8.0351,
      "duration": 0.1073,
      "velocity": 103,
      "chip": "ym2612"
    },
    {
      "channel": 1,
      "note": 77,
      "start": 8.0673,
      "duration": 0.0737,
      "velocity": 103,
      "chip": "ym2612"
    },
    {
      "channel": 0,
      "note": 46,
      "start": 8.1408,
      "duration": 0.1997,
      "velocity": 74,
      "chip": "ym2612"
    },
    {
      "channel": 1,
      "note": 81,
      "start": 8.1416,
      "duration": 0.1996,
      "velocity": 103,
      "chip": "ym2612"
    },
    {
      "channel": 4,
      "note": 79,
      "start": 8.143,
      "duration": 0.1999,
      "velocity": 103,
      "chip": "ym2612"
    },
    {
      "channel": 0,
      "note": 46,
      "start": 8.3411,
      "duration": 0.2296,
      "velocity": 74,
      "chip": "ym2612"
    },
    {
      "channel": 2,
      "note": 65,
      "start": 8.3421,
      "duration": 0.7547,
      "velocity": 102,
      "chip": "ym2612"
    },
    {
      "channel": 3,
      "note": 62,
      "start": 8.3428,
      "duration": 0.7547,
      "velocity": 102,
      "chip": "ym2612"
    },
    {
      "channel": 4,
      "note": 81,
      "start": 8.3436,
      "duration": 0.03,
      "velocity": 103,
      "chip": "ym2612"
    },
    {
      "channel": 1,
      "note": 82,
      "start": 8.3727,
      "duration": 0.1987,
      "velocity": 103,
      "chip": "ym2612"
    },
    {
      "channel": 4,
      "note": 82,
      "start": 8.3742,
      "duration": 0.1987,
      "velocity": 103,
      "chip": "ym2612"
    },
    {
      "channel": 0,
      "note": 46,
      "start": 8.5712,
      "duration": 0.2163,
      "velocity": 74,
      "chip": "ym2612"
    },
    {
      "channel": 1,
      "note": 81,
      "start": 8.572,
      "duration": 0.2163,
      "velocity": 103,
      "chip": "ym2612"
    },
    {
      "channel": 4,
      "note": 84,
      "start": 8.5735,
      "duration": 0.2163,
      "velocity": 103,
      "chip": "ym2612"
    },
    {
      "channel": 0,
      "note": 46,
      "start": 8.7882,
      "duration": 0.0907,
      "velocity": 74,
      "chip": "ym2612"
    },
    {
      "channel": 1,
      "note": 79,
      "start": 8.7889,
      "duration": 0.0331,
      "velocity": 103,
      "chip": "ym2612"
    },
    {
      "channel": 4,
      "note": 84,
      "start": 8.7904,
      "duration": 0.3078,
      "velocity": 103,
      "chip": "ym2612"
    },
    {
      "channel": 1,
      "note": 77,
      "start": 8.8225,
      "duration": 0.0571,
      "velocity": 103,
      "chip": "ym2612"
    },
    {
      "channel": 0,
      "note": 46,
      "start": 8.8794,
      "duration": 0.2163,
      "velocity": 74,
      "chip": "ym2612"
    },
    {
      "channel": 1,
      "note": 74,
      "start": 8.8802,
      "duration": 0.2163,
      "velocity": 103,
      "chip": "ym2612"
    },
    {
      "channel": 0,
      "note": 46,
      "start": 9.0963,
      "duration": 0.2295,
      "velocity": 74,
      "chip": "ym2612"
    },
    {
      "channel": 2,
      "note": 67,
      "start": 9.0973,
      "duration": 0.7549,
      "velocity": 102,
      "chip": "ym2612"
    },
    {
      "channel": 3,
      "note": 63,
      "start": 9.0981,
      "duration": 0.7549,
      "velocity": 102,
      "chip": "ym2612"
    },
    {
      "channel": 4,
      "note": 89,
      "start": 9.0989,
      "duration": 0.4461,
      "velocity": 103,
      "chip": "ym2612"
    },
    {
      "channel": 1,
      "note": 72,
      "start": 9.1279,
      "duration": 0.1987,
      "velocity": 103,
      "chip": "ym2612"
    },
    {
      "channel": 0,
      "note": 46,
      "start": 9.3265,
      "duration": 0.2163,
      "velocity": 74,
      "chip": "ym2612"
    },
    {
      "channel": 1,
      "note": 74,
      "start": 9.3272,
      "duration": 0.2163,
      "velocity": 103,
      "chip": "ym2612"
    },
    {
      "channel": 0,
      "note": 46,
      "start": 9.5434,
      "duration": 0.3074,
      "velocity": 74,
      "chip": "ym2612"
    },
    {
      "channel": 1,
      "note": 75,
      "start": 9.5441,
      "duration": 0.0304,
      "velocity": 103,
      "chip": "ym2612"
    },
    {
      "channel": 4,
      "note": 87,
      "start": 9.5456,
      "duration": 0.09,
      "velocity": 103,
      "chip": "ym2612"
    },
    {
      "channel": 1,
      "note": 77,
      "start": 9.5751,
      "duration": 0.0591,
      "velocity": 103,
      "chip": "ym2612"
    },
    {
      "channel": 1,
      "note": 79,
      "start": 9.6348,
      "duration": 0.2167,
      "velocity": 103,
      "chip": "ym2612"
    },
    {
      "channel": 4,
      "note": 86,
      "start": 9.6362,
      "duration": 0.2175,
      "velocity": 103,
      "chip": "ym2612"
    },
    {
      "channel": 0,
      "note": 46,
      "start": 9.8513,
      "duration": 0.1031,
      "velocity": 74,
      "chip": "ym2612"
    },
    {
      "channel": 1,
      "note": 82,
      "start": 9.8521,
      "duration": 0.0334,
      "velocity": 103,
      "chip": "ym2612"
    },
    {
      "channel": 2,
      "note": 70,
      "start": 9.8528,
      "duration": 0.2288,
      "velocity": 102,
      "chip": "ym2612"
    },
    {
      "channel": 3,
      "note": 65,
      "start": 9.8535,
      "duration": 0.2289,
      "velocity": 102,
      "chip": "ym2612"
    },
    {
      "channel": 4,
      "note": 87,
      "start": 9.8543,
      "duration": 0.0326,
      "velocity": 103,
      "chip": "ym2612"
    },
    {
      "channel": 1,
      "note": 81,
      "start": 9.8861,
      "duration": 0.0341,
      "velocity": 103,
      "chip": "ym2612"
    },
    {
      "channel": 4,
      "note": 89,
      "start": 9.8875,
      "duration": 0.0341,
      "velocity": 103,
      "chip": "ym2612"
    },
    {
      "channel": 1,
      "note": 79,
      "start": 9.9207,
      "duration": 0.0344,
      "velocity": 103,
      "chip": "ym2612"
    },
    {
      "channel": 4,
      "note": 87,
      "start": 9.9222,
      "duration": 0.0344,
      "velocity": 103,
      "chip": "ym2612"
    },
    {
      "channel": 0,
      "note": 46,
      "start": 9.955,
      "duration": 0.0908,
      "velocity": 74,
      "chip": "ym2612"
    },
    {
      "channel": 1,
      "note": 81,
      "start": 9.9558,
      "duration": 0.0306,
      "velocity": 103,
      "chip": "ym2612"
    },
    {
      "channel": 4,
      "note": 86,
      "start": 9.9572,
      "duration": 0.0907,
      "velocity": 103,
      "chip": "ym2612"
    },
    {
      "channel": 1,
      "note": 82,
      "start": 9.9869,
      "duration": 0.0596,
      "velocity": 103,
      "chip": "ym2612"
    },
    {
      "channel": 0,
      "note": 46,
      "start": 10.0464,
      "duration": 0.0343,
      "velocity": 74,
      "chip": "ym2612"
    },
    {
      "channel": 1,
      "note": 84,
      "start": 10.0471,
      "duration": 0.0342,
      "velocity": 103,
      "chip": "ym2612"
    },
    {
      "channel": 4,
      "note": 84,
      "start": 10.0486,
      "duration": 0.0346,
      "velocity": 103,
      "chip": "ym2612"
    },
    {
      "channel": 0,
      "note": 46,
      "start": 10.0812,
      "duration": 0.2295,
      "velocity": 74,
      "chip": "ym2612"
    },
    {
      "channel": 2,
      "note": 70,
      "start": 10.0823,
      "duration": 0.7376,
      "velocity": 102,
      "chip": "ym2612"
    },
    {
      "channel": 3,
      "note": 67,
      "start": 10.083,
      "duration": 0.7377,
      "velocity": 102,
      "chip": "ym2612"
    },
    {
      "channel": 4,
      "note": 84,
      "start": 10.0838,
      "duration": 0.7376,
      "velocity": 103,
      "chip": "ym2612"
    },
    {
      "channel": 1,
      "note": 82,
      "start": 10.1104,
      "duration": 0.201,
      "velocity": 103,
      "chip": "ym2612"
    },
    {
      "channel": 0,
      "note": 46,
      "start": 10.3113,
      "duration": 0.1997,
      "velocity": 74,
      "chip": "ym2612"
    },
    {
      "channel": 1,
      "note": 81,
      "start": 10.312,
      "duration": 0.1996,
      "velocity": 103,
      "chip": "ym2612"
    },
    {
      "channel": 0,
      "note": 46,
      "start": 10.5115,
      "duration": 0.1071,
      "velocity": 74,
      "chip": "ym2612"
    },
    {
      "channel": 1,
      "note": 79,
      "start": 10.5123,
      "duration": 0.0328,
      "velocity": 103,
      "chip": "ym2612"
    },
    {
      "channel": 1,
      "note": 77,
      "start": 10.5456,
      "duration": 0.0738,
      "velocity": 103,
      "chip": "ym2612"
    },
    {
      "channel": 0,
      "note": 46,
      "start": 10.6192,
      "duration": 0.1997,
      "velocity": 74,
      "chip": "ym2612"
    },
    {
      "channel": 1,
      "note": 81,
      "start": 10.62,
      "duration": 0.1996,
      "velocity": 103,
      "chip": "ym2612"
    },
    {
      "channel": 0,
      "note": 46,
      "start": 10.8195,
      "duration": 0.2462,
      "velocity": 74,
      "chip": "ym2612"
    },
    {
      "channel": 2,
      "note": 65,
      "start": 10.8205,
      "duration": 0.7547,
      "velocity": 102,
      "chip": "ym2612"
    },
    {
      "channel": 3,
      "note": 62,
      "start": 10.8212,
      "duration": 0.7547,
      "velocity": 102,
      "chip": "ym2612"
    },
    {
      "channel": 4,
      "note": 82,
      "start": 10.822,
      "duration": 0.7547,
      "velocity": 103,
      "chip": "ym2612"
    },
    {
      "channel": 1,
      "note": 82,
      "start": 10.8511,
      "duration": 0.2154,
      "velocity": 103,
      "chip": "ym2612"
    },
    {
      "channel": 0,
      "note": 46,
      "start": 11.0663,
      "duration": 0.1997,
      "velocity": 74,
      "chip": "ym2612"
    },
    {
      "channel": 1,
      "note": 81,
      "start": 11.0671,
      "duration": 0.1996,
      "velocity": 103,
      "chip": "ym2612"
    },
    {
      "channel": 0,
      "note": 46,
      "start": 11.2666,
      "duration": 0.0907,
      "velocity": 74,
      "chip": "ym2612"
    },
    {
      "channel": 1,
      "note": 79,
      "start": 11.2673,
      "duration": 0.033,
      "velocity": 103,
      "chip": "ym2612"
    },
    {
      "channel": 1,
      "note": 77,
      "start": 11.3008,
      "duration": 0.0572,
      "velocity": 103,
      "chip": "ym2612"
    },
    {
      "channel": 0,
      "note": 46,
      "start": 11.3578,
      "duration": 0.2163,
      "velocity": 74,
      "chip": "ym2612"
    },
    {
      "channel": 1,
      "note": 74,
      "start": 11.3586,
      "duration": 0.2163,
      "velocity": 103,
      "chip": "ym2612"
    },
    {
      "channel": 0,
      "note": 46,
      "start": 11.5747,
      "duration": 0.0626,
      "velocity": 74,
      "chip": "ym2612"
    },
    {
      "channel": 2,
      "note": 70,
      "start": 11.5758,
      "duration": 0.1959,
      "velocity": 102,
      "chip": "ym2612"
    },
    {
      "channel": 3,
      "note": 67,
      "start": 11.5765,
      "duration": 0.1959,
      "velocity": 102,
      "chip": "ym2612"
    },
    {
      "channel": 4,
      "note": 84,
      "start": 11.5773,
      "duration": 0.0971,
      "velocity": 103,
      "chip": "ym2612"
    },
    {
      "channel": 1,
      "note": 72,
      "start": 11.6065,
      "duration": 0.0315,
      "velocity": 103,
      "chip": "ym2612"
    },
    {
      "channel": 0,
      "note": 46,
      "start": 11.6379,
      "duration": 0.0343,
      "velocity": 74,
      "chip": "ym2612"
    },
    {
      "channel": 1,
      "note": 74,
      "start": 11.6387,
      "duration": 0.0343,
      "velocity": 103,
      "chip": "ym2612"
    },
    {
      "channel": 0,
      "note": 46,
      "start": 11.6728,
      "duration": 0.0624,
      "velocity": 74,
      "chip": "ym2612"
    },
    {
      "channel": 1,
      "note": 75,
      "start": 11.6736,
      "duration": 0.0303,
      "velocity": 103,
      "chip": "ym2612"
    },
    {
      "channel": 1,
      "note": 77,
      "start": 11.7045,
      "duration": 0.0314,
      "velocity": 103,
      "chip": "ym2612"
    },
    {
      "channel": 4,
      "note": 86,
      "start": 11.706,
      "duration": 0.0314,
      "velocity": 103,
      "chip": "ym2612"
    },
    {
      "channel": 0,
      "note": 46,
      "start": 11.7358,
      "duration": 0.0344,
      "velocity": 74,
      "chip": "ym2612"
    },
    {
      "channel": 1,
      "note": 79,
      "start": 11.7366,
      "duration": 0.0343,
      "velocity": 103,
      "chip": "ym2612"
    },
    {
      "channel": 4,
      "note": 84,
      "start": 11.738,
      "duration": 0.0351,
      "velocity": 103,
      "chip": "ym2612"
    },
    {
      "channel": 0,
      "note": 46,
      "start": 11.7708,
      "duration": 0.0347,
      "velocity": 74,
      "chip": "ym2612"
    },
    {
      "channel": 1,
      "note": 77,
      "start": 11.7715,
      "duration": 0.0348,
      "velocity": 103,
      "chip": "ym2612"
    },
    {
      "channel": 2,
      "note": 65,
      "start": 11.7722,
      "duration": 0.2019,
      "velocity": 102,
      "chip": "ym2612"
    },
    {
      "channel": 3,
      "note": 62,
      "start": 11.773,
      "duration": 0.2019,
      "velocity": 102,
      "chip": "ym2612"
    },
    {
      "channel": 4,
      "note": 82,
      "start": 11.7738,
      "duration": 0.2019,
      "velocity": 103,
      "chip": "ym2612"
    },
    {
      "channel": 0,
      "note": 46,
      "start": 11.8061,
      "duration": 0.0309,
      "velocity": 74,
      "chip": "ym2612"
    },
    {
      "channel": 1,
      "note": 75,
      "start": 11.8068,
      "duration": 0.0308,
      "velocity": 103,
      "chip": "ym2612"
    },
    {
      "channel": 0,
      "note": 46,
      "start": 11.8375,
      "duration": 0.0341,
      "velocity": 74,
      "chip": "ym2612"
    },
    {
      "channel": 1,
      "note": 74,
      "start": 11.8383,
      "duration": 0.034,
      "velocity": 103,
      "chip": "ym2612"
    },
    {
      "channel": 0,
      "note": 46,
      "start": 11.8722,
      "duration": 0.066,
      "velocity": 74,
      "chip": "ym2612"
    },
    {
      "channel": 1,
      "note": 75,
      "start": 11.8729,
      "duration": 0.0307,
      "velocity": 103,
      "chip": "ym2612"
    },
    {
      "channel": 1,
      "note": 74,
      "start": 11.9042,
      "duration": 0.0346,
      "velocity": 103,
      "chip": "ym2612"
    },
    {
      "channel": 0,
      "note": 46,
      "start": 11.9388,
      "duration": 0.0343,
      "velocity": 74,
      "chip": "ym2612"
    },
    {
      "channel": 1,
      "note": 72,
      "start": 11.9395,
      "duration": 0.0343,
      "velocity": 103,
      "chip": "ym2612"
    },
    {
      "channel": 0,
      "note": 46,
      "start": 11.9737,
      "duration": 0.2297,
      "velocity": 74,
      "chip": "ym2612"
    },
    {
      "channel": 2,
      "note": 70,
      "start": 11.9747,
      "duration": 0.7621,
      "velocity": 102,
      "chip": "ym2612"
    },
    {
      "channel": 3,
      "note": 67,
      "start": 11.9754,
      "duration": 0.7622,
      "velocity": 102,
      "chip": "ym2612"
    },
    {
      "channel": 1,
      "note": 82,
      "start": 11.9996,
      "duration": 0.2044,
      "velocity": 103,
      "chip": "ym2612"
    },
    {
      "channel": 0,
      "note": 46,
      "start": 12.2039,
      "duration": 0.0299,
      "velocity": 74,
      "chip": "ym2612"
    },
    {
      "channel": 1,
      "note": 81,
      "start": 12.2046,
      "duration": 0.0298,
      "velocity": 103,
      "chip": "ym2612"
    },
    {
      "channel": 0,
      "note": 46,
      "start": 12.2343,
      "duration": 0.0906,
      "velocity": 74,
      "chip": "ym2612"
    },
    {
      "channel": 1,
      "note": 79,
      "start": 12.2351,
      "duration": 0.0306,
      "velocity": 103,
      "chip": "ym2612"
    },
    {
      "channel": 4,
      "note": 89,
      "start": 12.2366,
      "duration": 0.1221,
      "velocity": 103,
      "chip": "ym2612"
    },
    {
      "channel": 1,
      "note": 77,
      "start": 12.2663,
      "duration": 0.0593,
      "velocity": 103,
      "chip": "ym2612"
    },
    {
      "channel": 0,
      "note": 46,
      "start": 12.3255,
      "duration": 0.0308,
      "velocity": 74,
      "chip": "ym2612"
    },
    {
      "channel": 1,
      "note": 81,
      "start": 12.3262,
      "duration": 0.0307,
      "velocity": 103,
      "chip": "ym2612"
    },
    {
      "channel": 0,
      "note": 46,
      "start": 12.3568,
      "duration": 0.2462,
      "velocity": 74,
      "chip": "ym2612"
    },
    {
      "channel": 4,
      "note": 87,
      "start": 12.3593,
      "duration": 0.2772,
      "velocity": 103,
      "chip": "ym2612"
    },
    {
      "channel": 1,
      "note": 82,
      "start": 12.3883,
      "duration": 0.2154,
      "velocity": 103,
      "chip": "ym2612"
    },
    {
      "channel": 0,
      "note": 46,
      "start": 12.6036,
      "duration": 0.0308,
      "velocity": 74,
      "chip": "ym2612"
    },
    {
      "channel": 1,
      "note": 81,
      "start": 12.6043,
      "duration": 0.0307,
      "velocity": 103,
      "chip": "ym2612"
    },
    {
      "channel": 0,
      "note": 46,
      "start": 12.6349,
      "duration": 0.069,
      "velocity": 74,
      "chip": "ym2612"
    },
    {
      "channel": 1,
      "note": 79,
      "start": 12.6357,
      "duration": 0.0337,
      "velocity": 103,
      "chip": "ym2612"
    },
    {
      "channel": 4,
      "note": 86,
      "start": 12.6371,
      "duration": 0.1012,
      "velocity": 103,
      "chip": "ym2612"
    },
    {
      "channel": 1,
      "note": 77,
      "start": 12.67,
      "duration": 0.0346,
      "velocity": 103,
      "chip": "ym2612"
    },
    {
      "channel": 0,
      "note": 46,
      "start": 12.7045,
      "duration": 0.0313,
      "velocity": 74,
      "chip": "ym2612"
    },
    {
      "channel": 1,
      "note": 74,
      "start": 12.7052,
      "duration": 0.0313,
      "velocity": 103,
      "chip": "ym2612"
    },
    {
      "channel": 0,
      "note": 46,
      "start": 12.7364,
      "duration": 0.0674,
      "velocity": 74,
      "chip": "ym2612"
    },
    {
      "channel": 2,
      "note": 65,
      "start": 12.7374,
      "duration": 0.6593,
      "velocity": 102,
      "chip": "ym2612"
    },
    {
      "channel": 3,
      "note": 62,
      "start": 12.7382,
      "duration": 0.6594,
      "velocity": 102,
      "chip": "ym2612"
    },
    {
      "channel": 4,
      "note": 82,
      "start": 12.7389,
      "duration": 0.0991,
      "velocity": 103,
      "chip": "ym2612"
    },
    {
      "channel": 1,
      "note": 72,
      "start": 12.7707,
      "duration": 0.0337,
      "velocity": 103,
      "chip": "ym2612"
    },
    {
      "channel": 0,
      "note": 46,
      "start": 12.8043,
      "duration": 0.0316,
      "velocity": 74,
      "chip": "ym2612"
    },
    {
      "channel": 1,
      "note": 74,
      "start": 12.8051,
      "duration": 0.0315,
      "velocity": 103,
      "chip": "ym2612"
    },
    {
      "channel": 0,
      "note": 46,
      "start": 12.8365,
      "duration": 0.0902,
      "velocity": 74,
      "chip": "ym2612"
    },
    {
      "channel": 1,
      "note": 75,
      "start": 12.8372,
      "duration": 0.0333,
      "velocity": 103,
      "chip": "ym2612"
    },
    {
      "channel": 4,
      "note": 84,
      "start": 12.8387,
      "duration": 0.3078,
      "velocity": 103,
      "chip": "ym2612"
    },
    {
      "channel": 1,
      "note": 77,
      "start": 12.8711,
      "duration": 0.0564,
      "velocity": 103,
      "chip": "ym2612"
    },
    {
      "channel": 0,
      "note": 46,
      "start": 12.9273,
      "duration": 0.2163,
      "velocity": 74,
      "chip": "ym2612"
    },
    {
      "channel": 1,
      "note": 79,
      "start": 12.9281,
      "duration": 0.2163,
      "velocity": 103,
      "chip": "ym2612"
    },
    {
      "channel": 0,
      "note": 46,
      "start": 13.1442,
      "duration": 0.0906,
      "velocity": 74,
      "chip": "ym2612"
    },
    {
      "channel": 1,
      "note": 82,
      "start": 13.145,
      "duration": 0.0336,
      "velocity": 103,
      "chip": "ym2612"
    },
    {
      "channel": 4,
      "note": 86,
      "start": 13.1472,
      "duration": 0.1247,
      "velocity": 103,
      "chip": "ym2612"
    },
    {
      "channel": 1,
      "note": 81,
      "start": 13.1791,
      "duration": 0.0564,
      "velocity": 103,
      "chip": "ym2612"
    },
    {
      "channel": 0,
      "note": 46,
      "start": 13.2354,
      "duration": 0.0343,
      "velocity": 74,
      "chip": "ym2612"
    },
    {
      "channel": 1,
      "note": 79,
      "start": 13.2361,
      "duration": 0.0342,
      "velocity": 103,
      "chip": "ym2612"
    },
    {
      "channel": 0,
      "note": 46,
      "start": 13.2702,
      "duration": 0.0907,
      "velocity": 74,
      "chip": "ym2612"
    },
    {
      "channel": 1,
      "note": 81,
      "start": 13.271,
      "duration": 0.0332,
      "velocity": 103,
      "chip": "ym2612"
    },
    {
      "channel": 4,
      "note": 82,
      "start": 13.2725,
      "duration": 0.1258,
      "velocity": 103,
      "chip": "ym2612"
    },
    {
      "channel": 1,
      "note": 82,
      "start": 13.3047,
      "duration": 0.0568,
      "velocity": 103,
      "chip": "ym2612"
    },
    {
      "channel": 0,
      "note": 46,
      "start": 13.3615,
      "duration": 0.0343,
      "velocity": 74,
      "chip": "ym2612"
    },
    {
      "channel": 1,
      "note": 84,
      "start": 13.3622,
      "duration": 0.0342,
      "velocity": 103,
      "chip": "ym2612"
    },
    {
      "channel": 0,
      "note": 46,
      "start": 13.3963,
      "duration": 0.2297,
      "velocity": 74,
      "chip": "ym2612"
    },
    {
      "channel": 2,
      "note": 70,
      "start": 13.3974,
      "duration": 0.7485,
      "velocity": 102,
      "chip": "ym2612"
    },
    {
      "channel": 3,
      "note": 67,
      "start": 13.3981,
      "duration": 0.7486,
      "velocity": 102,
      "chip": "ym2612"
    },
    {
      "channel": 1,
      "note": 82,
      "start": 13.4222,
      "duration": 0.2044,
      "velocity": 103,
      "chip": "ym2612"
    },
    {
      "channel": 0,
      "note": 46,
      "start": 13.6266,
      "duration": 0.0299,
      "velocity": 74,
      "chip": "ym2612"
    },
    {
      "channel": 1,
      "note": 81,
      "start": 13.6273,
      "duration": 0.0298,
      "velocity": 103,
      "chip": "ym2612"
    },
    {
      "channel": 0,
      "note": 46,
      "start": 13.657,
      "duration": 0.0906,
      "velocity": 74,
      "chip": "ym2612"
    },
    {
      "channel": 1,
      "note": 79,
      "start": 13.6578,
      "duration": 0.0307,
      "velocity": 103,
      "chip": "ym2612"
    },
    {
      "channel": 4,
      "note": 89,
      "start": 13.6592,
      "duration": 0.1248,
      "velocity": 103,
      "chip": "ym2612"
    },
    {
      "channel": 1,
      "note": 77,
      "start": 13.6891,
      "duration": 0.0593,
      "velocity": 103,
      "chip": "ym2612"
    },
    {
      "channel": 0,
      "note": 46,
      "start": 13.7482,
      "duration": 0.0334,
      "velocity": 74,
      "chip": "ym2612"
    },
    {
      "channel": 1,
      "note": 81,
      "start": 13.749,
      "duration": 0.0333,
      "velocity": 103,
      "chip": "ym2612"
    },
    {
      "channel": 0,
      "note": 46,
      "start": 13.7822,
      "duration": 0.2298,
      "velocity": 74,
      "chip": "ym2612"
    },
    {
      "channel": 4,
      "note": 87,
      "start": 13.7846,
      "duration": 0.2637,
      "velocity": 103,
      "chip": "ym2612"
    },
    {
      "channel": 1,
      "note": 82,
      "start": 13.8115,
      "duration": 0.2012,
      "velocity": 103,
      "chip": "ym2612"
    },
    {
      "channel": 0,
      "note": 46,
      "start": 14.0126,
      "duration": 0.0337,
      "velocity": 74,
      "chip": "ym2612"
    },
    {
      "channel": 1,
      "note": 81,
      "start": 14.0133,
      "duration": 0.0336,
      "velocity": 103,
      "chip": "ym2612"
    },
    {
      "channel": 0,
      "note": 46,
      "start": 14.0468,
      "duration": 0.0662,
      "velocity": 74,
      "chip": "ym2612"
    },
    {
      "channel": 1,
      "note": 79,
      "start": 14.0476,
      "duration": 0.0308,
      "velocity": 103,
      "chip": "ym2612"
    },
    {
      "channel": 4,
      "note": 86,
      "start": 14.049,
      "duration": 0.0984,
      "velocity": 103,
      "chip": "ym2612"
    },
    {
      "channel": 1,
      "note": 77,
      "start": 14.079,
      "duration": 0.0347,
      "velocity": 103,
      "chip": "ym2612"
    },
    {
      "channel": 0,
      "note": 46,
      "start": 14.1136,
      "duration": 0.0313,
      "velocity": 74,
      "chip": "ym2612"
    },
    {
      "channel": 1,
      "note": 74,
      "start": 14.1143,
      "duration": 0.0313,
      "velocity": 103,
      "chip": "ym2612"
    },
    {
      "channel": 0,
      "note": 46,
      "start": 14.1455,
      "duration": 0.2466,
      "velocity": 74,
      "chip": "ym2612"
    },
    {
      "channel": 2,
      "note": 65,
      "start": 14.1465,
      "duration": 0.645,
      "velocity": 102,
      "chip": "ym2612"
    },
    {
      "channel": 3,
      "note": 62,
      "start": 14.1473,
      "duration": 0.6451,
      "velocity": 102,
      "chip": "ym2612"
    },
    {
      "channel": 4,
      "note": 94,
      "start": 14.148,
      "duration": 0.2775,
      "velocity": 103,
      "chip": "ym2612"
    },
    {
      "channel": 1,
      "note": 72,
      "start": 14.1774,
      "duration": 0.2153,
      "velocity": 103,
      "chip": "ym2612"
    },
    {
      "channel": 0,
      "note": 46,
      "start": 14.3926,
      "duration": 0.0308,
      "velocity": 74,
      "chip": "ym2612"
    },
    {
      "channel": 1,
      "note": 74,
      "start": 14.3934,
      "duration": 0.0307,
      "velocity": 103,
      "chip": "ym2612"
    },
    {
      "channel": 0,
      "note": 46,
      "start": 14.4239,
      "duration": 0.1074,
      "velocity": 74,
      "chip": "ym2612"
    },
    {
      "channel": 1,
      "note": 75,
      "start": 14.4247,
      "duration": 0.0331,
      "velocity": 103,
      "chip": "ym2612"
    },
    {
      "channel": 4,
      "note": 89,
      "start": 14.4262,
      "duration": 0.1394,
      "velocity": 103,
      "chip": "ym2612"
    },
    {
      "channel": 1,
      "note": 77,
      "start": 14.4584,
      "duration": 0.0737,
      "velocity": 103,
      "chip": "ym2612"
    },
    {
      "channel": 0,
      "note": 46,
      "start": 14.5319,
      "duration": 0.0308,
      "velocity": 74,
      "chip": "ym2612"
    },
    {
      "channel": 1,
      "note": 79,
      "start": 14.5327,
      "duration": 0.0307,
      "velocity": 103,
      "chip": "ym2612"
    },
    {
      "channel": 0,
      "note": 46,
      "start": 14.5632,
      "duration": 0.0342,
      "velocity": 74,
      "chip": "ym2612"
    },
    {
      "channel": 1,
      "note": 77,
      "start": 14.564,
      "duration": 0.0342,
      "velocity": 103,
      "chip": "ym2612"
    },
    {
      "channel": 4,
      "note": 86,
      "start": 14.5661,
      "duration": 0.1247,
      "velocity": 103,
      "chip": "ym2612"
    },
    {
      "channel": 0,
      "note": 46,
      "start": 14.598,
      "duration": 0.0558,
      "velocity": 74,
      "chip": "ym2612"
    },
    {
      "channel": 1,
      "note": 75,
      "start": 14.5988,
      "duration": 0.0557,
      "velocity": 103,
      "chip": "ym2612"
    },
    {
      "channel": 0,
      "note": 46,
      "start": 14.6544,
      "duration": 0.0343,
      "velocity": 74,
      "chip": "ym2612"
    },
    {
      "channel": 1,
      "note": 74,
      "start": 14.6551,
      "duration": 0.0342,
      "velocity": 103,
      "chip": "ym2612"
    },
    {
      "channel": 0,
      "note": 46,
      "start": 14.6892,
      "duration": 0.0661,
      "velocity": 74,
      "chip": "ym2612"
    },
    {
      "channel": 1,
      "note": 75,
      "start": 14.69,
      "duration": 0.0338,
      "velocity": 103,
      "chip": "ym2612"
    },
    {
      "channel": 4,
      "note": 82,
      "start": 14.6914,
      "duration": 0.1017,
      "velocity": 103,
      "chip": "ym2612"
    },
    {
      "channel": 1,
      "note": 74,
      "start": 14.7244,
      "duration": 0.0316,
      "velocity": 103,
      "chip": "ym2612"
    },
    {
      "channel": 0,
      "note": 46,
      "start": 14.7559,
      "duration": 0.0345,
      "velocity": 74,
      "chip": "ym2612"
    },
    {
      "channel": 1,
      "note": 72,
      "start": 14.7566,
      "duration": 0.0345,
      "velocity": 103,
      "chip": "ym2612"
    },
    {
      "channel": 0,
      "note": 46,
      "start": 14.7909,
      "duration": 0.2294,
      "velocity": 74,
      "chip": "ym2612"
    },
    {
      "channel": 2,
      "note": 67,
      "start": 14.7921,
      "duration": 0.7544,
      "velocity": 102,
      "chip": "ym2612"
    },
    {
      "channel": 3,
      "note": 63,
      "start": 14.7929,
      "duration": 0.7543,
      "velocity": 102,
      "chip": "ym2612"
    },
    {
      "channel": 4,
      "note": 79,
      "start": 14.7937,
      "duration": 0.4457,
      "velocity": 103,
      "chip": "ym2612"
    },
    {
      "channel": 1,
      "note": 82,
      "start": 14.8229,
      "duration": 0.1983,
      "velocity": 103,
      "chip": "ym2612"
    },
    {
      "channel": 0,
      "note": 46,
      "start": 15.0209,
      "duration": 0.2163,
      "velocity": 74,
      "chip": "ym2612"
    },
    {
      "channel": 1,
      "note": 81,
      "start": 15.0217,
      "duration": 0.2163,
      "velocity": 103,
      "chip": "ym2612"
    },
    {
      "channel": 0,
      "note": 46,
      "start": 15.2378,
      "duration": 0.0907,
      "velocity": 74,
      "chip": "ym2612"
    },
    {
      "channel": 1,
      "note": 79,
      "start": 15.2386,
      "duration": 0.0331,
      "velocity": 103,
      "chip": "ym2612"
    },
    {
      "channel": 4,
      "note": 81,
      "start": 15.2401,
      "duration": 0.0907,
      "velocity": 103,
      "chip": "ym2612"
    },
    {
      "channel": 1,
      "note": 77,
      "start": 15.2722,
      "duration": 0.0571,
      "velocity": 103,
      "chip": "ym2612"
    },
    {
      "channel": 0,
      "note": 46,
      "start": 15.3291,
      "duration": 0.2163,
      "velocity": 74,
      "chip": "ym2612"
    },
    {
      "channel": 1,
      "note": 81,
      "start": 15.3298,
      "duration": 0.2163,
      "velocity": 103,
      "chip": "ym2612"
    },
    {
      "channel": 4,
      "note": 79,
      "start": 15.3313,
      "duration": 0.2166,
      "velocity": 103,
      "chip": "ym2612"
    },
    {
      "channel": 0,
      "note": 46,
      "start": 15.546,
      "duration": 0.0282,
      "velocity": 74,
      "chip": "ym2612"
    },
    {
      "channel": 2,
      "note": 65,
      "start": 15.547,
      "duration": 0.7544,
      "velocity": 102,
      "chip": "ym2612"
    },
    {
      "channel": 3,
      "note": 62,
      "start": 15.5478,
      "duration": 0.7544,
      "velocity": 102,
      "chip": "ym2612"
    },
    {
      "channel": 4,
      "note": 77,
      "start": 15.5485,
      "duration": 0.0279,
      "velocity": 103,
      "chip": "ym2612"
    },
    {
      "channel": 0,
      "note": 46,
      "start": 15.5748,
      "duration": 0.2007,
      "velocity": 74,
      "chip": "ym2612"
    },
    {
      "channel": 1,
      "note": 82,
      "start": 15.5756,
      "duration": 0.2007,
      "velocity": 103,
      "chip": "ym2612"
    },
    {
      "channel": 4,
      "note": 75,
      "start": 15.5771,
      "duration": 0.2007,
      "velocity": 103,
      "chip": "ym2612"
    },
    {
      "channel": 0,
      "note": 46,
      "start": 15.7761,
      "duration": 0.2163,
      "velocity": 74,
      "chip": "ym2612"
    },
    {
      "channel": 1,
      "note": 81,
      "start": 15.7768,
      "duration": 0.2163,
      "velocity": 103,
      "chip": "ym2612"
    },
    {
      "channel": 4,
      "note": 74,
      "start": 15.7783,
      "duration": 0.2163,
      "velocity": 103,
      "chip": "ym2612"
    },
    {
      "channel": 0,
      "note": 46,
      "start": 15.993,
      "duration": 0.0904,
      "velocity": 74,
      "chip": "ym2612"
    },
    {
      "channel": 1,
      "note": 79,
      "start": 15.9938,
      "duration": 0.0304,
      "velocity": 103,
      "chip": "ym2612"
    },
    {
      "channel": 4,
      "note": 74,
      "start": 15.9952,
      "duration": 0.3076,
      "velocity": 103,
      "chip": "ym2612"
    },
    {
      "channel": 1,
      "note": 77,
      "start": 16.0248,
      "duration": 0.0595,
      "velocity": 103,
      "chip": "ym2612"
    },
    {
      "channel": 0,
      "note": 46,
      "start": 16.084,
      "duration": 0.2163,
      "velocity": 74,
      "chip": "ym2612"
    },
    {
      "channel": 1,
      "note": 74,
      "start": 16.0848,
      "duration": 0.2163,
      "velocity": 103,
      "chip": "ym2612"
    },
    {
      "channel": 0,
      "note": 46,
      "start": 16.301,
      "duration": 0.2295,
      "velocity": 74,
      "chip": "ym2612"
    },
    {
      "channel": 2,
      "note": 67,
      "start": 16.302,
      "duration": 0.7382,
      "velocity": 102,
      "chip": "ym2612"
    },
    {
      "channel": 3,
      "note": 63,
      "start": 16.3027,
      "duration": 0.7382,
      "velocity": 102,
      "chip": "ym2612"
    },
    {
      "channel": 4,
      "note": 72,
      "start": 16.3035,
      "duration": 0.0275,
      "velocity": 103,
      "chip": "ym2612"
    },
    {
      "channel": 1,
      "note": 72,
      "start": 16.3301,
      "duration": 0.2011,
      "velocity": 103,
      "chip": "ym2612"
    },
    {
      "channel": 4,
      "note": 74,
      "start": 16.3316,
      "duration": 0.201,
      "velocity": 103,
      "chip": "ym2612"
    },
    {
      "channel": 0,
      "note": 46,
      "start": 16.5311,
      "duration": 0.1997,
      "velocity": 74,
      "chip": "ym2612"
    },
    {
      "channel": 1,
      "note": 74,
      "start": 16.5318,
      "duration": 0.1996,
      "velocity": 103,
      "chip": "ym2612"
    },
    {
      "channel": 4,
      "note": 75,
      "start": 16.5333,
      "duration": 0.1996,
      "velocity": 103,
      "chip": "ym2612"
    },
    {
      "channel": 0,
      "note": 46,
      "start": 16.7313,
      "duration": 0.1071,
      "velocity": 74,
      "chip": "ym2612"
    },
    {
      "channel": 1,
      "note": 75,
      "start": 16.7321,
      "duration": 0.0331,
      "velocity": 103,
      "chip": "ym2612"
    },
    {
      "channel": 4,
      "note": 77,
      "start": 16.7335,
      "duration": 0.0331,
      "velocity": 103,
      "chip": "ym2612"
    },
    {
      "channel": 1,
      "note": 77,
      "start": 16.7658,
      "duration": 0.0735,
      "velocity": 103,
      "chip": "ym2612"
    },
    {
      "channel": 4,
      "note": 75,
      "start": 16.7672,
      "duration": 0.0734,
      "velocity": 103,
      "chip": "ym2612"
    },
    {
      "channel": 0,
      "note": 46,
      "start": 16.839,
      "duration": 0.1997,
      "velocity": 74,
      "chip": "ym2612"
    },
    {
      "channel": 1,
      "note": 79,
      "start": 16.8398,
      "duration": 0.1996,
      "velocity": 103,
      "chip": "ym2612"
    },
    {
      "channel": 4,
      "note": 74,
      "start": 16.8413,
      "duration": 0.2004,
      "velocity": 103,
      "chip": "ym2612"
    },
    {
      "channel": 0,
      "note": 46,
      "start": 17.0393,
      "duration": 0.0346,
      "velocity": 74,
      "chip": "ym2612"
    },
    {
      "channel": 1,
      "note": 82,
      "start": 17.04,
      "duration": 0.0345,
      "velocity": 103,
      "chip": "ym2612"
    },
    {
      "channel": 2,
      "note": 70,
      "start": 17.0408,
      "duration": 0.2401,
      "velocity": 102,
      "chip": "ym2612"
    },
    {
      "channel": 3,
      "note": 65,
      "start": 17.0415,
      "duration": 0.2402,
      "velocity": 102,
      "chip": "ym2612"
    },
    {
      "channel": 4,
      "note": 77,
      "start": 17.0423,
      "duration": 0.0337,
      "velocity": 103,
      "chip": "ym2612"
    },
    {
      "channel": 0,
      "note": 46,
      "start": 17.0744,
      "duration": 0.0342,
      "velocity": 74,
      "chip": "ym2612"
    },
    {
      "channel": 1,
      "note": 81,
      "start": 17.0752,
      "duration": 0.0342,
      "velocity": 103,
      "chip": "ym2612"
    },
    {
      "channel": 4,
      "note": 75,
      "start": 17.0766,
      "duration": 0.0342,
      "velocity": 103,
      "chip": "ym2612"
    },
    {
      "channel": 0,
      "note": 46,
      "start": 17.1092,
      "duration": 0.0313,
      "velocity": 74,
      "chip": "ym2612"
    },
    {
      "channel": 1,
      "note": 79,
      "start": 17.11,
      "duration": 0.0312,
      "velocity": 103,
      "chip": "ym2612"
    },
    {
      "channel": 4,
      "note": 74,
      "start": 17.1115,
      "duration": 0.0312,
      "velocity": 103,
      "chip": "ym2612"
    },
    {
      "channel": 0,
      "note": 46,
      "start": 17.1411,
      "duration": 0.1072,
      "velocity": 74,
      "chip": "ym2612"
    },
    {
      "channel": 1,
      "note": 81,
      "start": 17.1419,
      "duration": 0.0329,
      "velocity": 103,
      "chip": "ym2612"
    },
    {
      "channel": 4,
      "note": 77,
      "start": 17.1433,
      "duration": 0.0329,
      "velocity": 103,
      "chip": "ym2612"
    },
    {
      "channel": 1,
      "note": 82,
      "start": 17.1754,
      "duration": 0.0736,
      "velocity": 103,
      "chip": "ym2612"
    },
    {
      "channel": 4,
      "note": 79,
      "start": 17.1768,
      "duration": 0.0736,
      "velocity": 103,
      "chip": "ym2612"
    },
    {
      "channel": 0,
      "note": 46,
      "start": 17.2488,
      "duration": 0.0311,
      "velocity": 74,
      "chip": "ym2612"
    },
    {
      "channel": 1,
      "note": 84,
      "start": 17.2496,
      "duration": 0.031,
      "velocity": 103,
      "chip": "ym2612"
    },
    {
      "channel": 4,
      "note": 81,
      "start": 17.2511,
      "duration": 0.0314,
      "velocity": 103,
      "chip": "ym2612"
    },
    {
      "channel": 0,
      "note": 46,
      "start": 17.2805,
      "duration": 0.2295,
      "velocity": 74,
      "chip": "ym2612"
    },
    {
      "channel": 2,
      "note": 70,
      "start": 17.2815,
      "duration": 0.7546,
      "velocity": 102,
      "chip": "ym2612"
    },
    {
      "channel": 3,
      "note": 67,
      "start": 17.2822,
      "duration": 0.7546,
      "velocity": 102,
      "chip": "ym2612"
    },
    {
      "channel": 4,
      "note": 82,
      "start": 17.283,
      "duration": 1.5095,
      "velocity": 103,
      "chip": "ym2612"
    },
    {
      "channel": 1,
      "note": 82,
      "start": 17.3122,
      "duration": 0.1985,
      "velocity": 103,
      "chip": "ym2612"
    },
    {
      "channel": 0,
      "note": 46,
      "start": 17.5105,
      "duration": 0.2163,
      "velocity": 74,
      "chip": "ym2612"
    },
    {
      "channel": 1,
      "note": 81,
      "start": 17.5113,
      "duration": 0.2163,
      "velocity": 103,
      "chip": "ym2612"
    },
    {
      "channel": 0,
      "note": 46,
      "start": 17.7275,
      "duration": 0.0907,
      "velocity": 74,
      "chip": "ym2612"
    },
    {
      "channel": 1,
      "note": 79,
      "start": 17.7282,
      "duration": 0.0329,
      "velocity": 103,
      "chip": "ym2612"
    },
    {
      "channel": 1,
      "note": 77,
      "start": 17.7617,
      "duration": 0.0573,
      "velocity": 103,
      "chip": "ym2612"
    },
    {
      "channel": 0,
      "note": 46,
      "start": 17.8188,
      "duration": 0.2163,
      "velocity": 74,
      "chip": "ym2612"
    },
    {
      "channel": 1,
      "note": 81,
      "start": 17.8195,
      "duration": 0.2163,
      "velocity": 103,
      "chip": "ym2612"
    },
    {
      "channel": 0,
      "note": 46,
      "start": 18.0357,
      "duration": 0.0305,
      "velocity": 74,
      "chip": "ym2612"
    },
    {
      "channel": 2,
      "note": 65,
      "start": 18.0367,
      "duration": 0.7543,
      "velocity": 102,
      "chip": "ym2612"
    },
    {
      "channel": 3,
      "note": 62,
      "start": 18.0374,
      "duration": 0.7544,
      "velocity": 102,
      "chip": "ym2612"
    },
    {
      "channel": 0,
      "note": 46,
      "start": 18.0667,
      "duration": 0.1984,
      "velocity": 74,
      "chip": "ym2612"
    },
    {
      "channel": 1,
      "note": 82,
      "start": 18.0675,
      "duration": 0.1984,
      "velocity": 103,
      "chip": "ym2612"
    },
    {
      "channel": 0,
      "note": 46,
      "start": 18.2657,
      "duration": 0.2163,
      "velocity": 74,
      "chip": "ym2612"
    },
    {
      "channel": 1,
      "note": 81,
      "start": 18.2664,
      "duration": 0.2163,
      "velocity": 103,
      "chip": "ym2612"
    },
    {
      "channel": 0,
      "note": 46,
      "start": 18.4826,
      "duration": 0.0905,
      "velocity": 74,
      "chip": "ym2612"
    },
    {
      "channel": 1,
      "note": 79,
      "start": 18.4834,
      "duration": 0.0301,
      "velocity": 103,
      "chip": "ym2612"
    },
    {
      "channel": 1,
      "note": 77,
      "start": 18.5141,
      "duration": 0.0598,
      "velocity": 103,
      "chip": "ym2612"
    },
    {
      "channel": 0,
      "note": 46,
      "start": 18.5737,
      "duration": 0.2163,
      "velocity": 74,
      "chip": "ym2612"
    },
    {
      "channel": 1,
      "note": 74,
      "start": 18.5744,
      "duration": 0.2163,
      "velocity": 103,
      "chip": "ym2612"
    },
    {
      "channel": 0,
      "note": 46,
      "start": 18.7906,
      "duration": 0.0633,
      "velocity": 74,
      "chip": "ym2612"
    },
    {
      "channel": 2,
      "note": 70,
      "start": 18.7917,
      "duration": 0.2001,
      "velocity": 102,
      "chip": "ym2612"
    },
    {
      "channel": 3,
      "note": 67,
      "start": 18.7924,
      "duration": 0.2002,
      "velocity": 102,
      "chip": "ym2612"
    },
    {
      "channel": 4,
      "note": 82,
      "start": 18.7931,
      "duration": 24.1383,
      "velocity": 103,
      "chip": "ym2612"
    },
    {
      "channel": 1,
      "note": 72,
      "start": 18.8201,
      "duration": 0.0344,
      "velocity": 103,
      "chip": "ym2612"
    },
    {
      "channel": 0,
      "note": 46,
      "start": 18.8544,
      "duration": 0.0343,
      "velocity": 74,
      "chip": "ym2612"
    },
    {
      "channel": 1,
      "note": 74,
      "start": 18.8552,
      "duration": 0.0342,
      "velocity": 103,
      "chip": "ym2612"
    },
    {
      "channel": 0,
      "note": 46,
      "start": 18.8893,
      "duration": 0.0663,
      "velocity": 74,
      "chip": "ym2612"
    },
    {
      "channel": 1,
      "note": 75,
      "start": 18.89,
      "duration": 0.0309,
      "velocity": 103,
      "chip": "ym2612"
    },
    {
      "channel": 1,
      "note": 77,
      "start": 18.9215,
      "duration": 0.0346,
      "velocity": 103,
      "chip": "ym2612"
    },
    {
      "channel": 0,
      "note": 46,
      "start": 18.9561,
      "duration": 0.0343,
      "velocity": 74,
      "chip": "ym2612"
    },
    {
      "channel": 1,
      "note": 79,
      "start": 18.9568,
      "duration": 0.0342,
      "velocity": 103,
      "chip": "ym2612"
    },
    {
      "channel": 0,
      "note": 46,
      "start": 18.9909,
      "duration": 0.0317,
      "velocity": 74,
      "chip": "ym2612"
    },
    {
      "channel": 1,
      "note": 77,
      "start": 18.9917,
      "duration": 0.0318,
      "velocity": 103,
      "chip": "ym2612"
    },
    {
      "channel": 2,
      "note": 65,
      "start": 18.9924,
      "duration": 23.9391,
      "velocity": 102,
      "chip": "ym2612"
    },
    {
      "channel": 3,
      "note": 62,
      "start": 18.9931,
      "duration": 23.9383,
      "velocity": 102,
      "chip": "ym2612"
    },
    {
      "channel": 0,
      "note": 46,
      "start": 19.0232,
      "duration": 0.0334,
      "velocity": 74,
      "chip": "ym2612"
    },
    {
      "channel": 1,
      "note": 75,
      "start": 19.024,
      "duration": 0.0334,
      "velocity": 103,
      "chip": "ym2612"
    },
    {
      "channel": 0,
      "note": 46,
      "start": 19.0573,
      "duration": 0.0318,
      "velocity": 74,
      "chip": "ym2612"
    },
    {
      "channel": 1,
      "note": 74,
      "start": 19.058,
      "duration": 0.0317,
      "velocity": 103,
      "chip": "ym2612"
    },
    {
      "channel": 0,
      "note": 46,
      "start": 19.0896,
      "duration": 0.0692,
      "velocity": 74,
      "chip": "ym2612"
    },
    {
      "channel": 1,
      "note": 75,
      "start": 19.0904,
      "duration": 0.0339,
      "velocity": 103,
      "chip": "ym2612"
    },
    {
      "channel": 1,
      "note": 74,
      "start": 19.1249,
      "duration": 0.0346,
      "velocity": 103,
      "chip": "ym2612"
    },
    {
      "channel": 0,
      "note": 46,
      "start": 19.1594,
      "duration": 23.772,
      "velocity": 74,
      "chip": "ym2612"
    },
    {
      "channel": 1,
      "note": 72,
      "start": 19.1602,
      "duration": 23.7712,
      "velocity": 103,
      "chip": "ym2612"
    }
  ]
}