{
  "track_name": "06 - The Evergreen Fields",
  "duration_sec": 47.623,
  "sample_rate": 44100,
  "note_count": 473,
  "unique_pitches": 29,
  "pitch_range": 53,
  "avg_note_duration": 0.2922,
  "reconstruction_stats": {
    "notes_reconstructed": 473,
    "keyon_events": 473,
    "keyoff_events": 470,
    "orphan_keyons": 3,
    "unique_pitches": 29,
    "pitch_range": 53,
    "avg_duration_sec": 0.2922
  },
  "metadata": {
    "source": "P\\Pier Solar and the Great Architects\\06 - The Evergreen Fields.vgz"
  },
  "notes": [
    {
      "channel": 0,
      "note": 74,
      "start": 0.1765,
      "duration": 0.0202,
      "velocity": 95,
      "chip": "ym2612"
    },
    {
      "channel": 4,
      "note": 50,
      "start": 0.177,
      "duration": 0.1782,
      "velocity": 95,
      "chip": "ym2612"
    },
    {
      "channel": 1,
      "note": 74,
      "start": 0.3551,
      "duration": 0.0434,
      "velocity": 95,
      "chip": "ym2612"
    },
    {
      "channel": 0,
      "note": 81,
      "start": 0.3985,
      "duration": 0.1755,
      "velocity": 95,
      "chip": "ym2612"
    },
    {
      "channel": 1,
      "note": 81,
      "start": 0.594,
      "duration": 0.1587,
      "velocity": 95,
      "chip": "ym2612"
    },
    {
      "channel": 0,
      "note": 76,
      "start": 0.7527,
      "duration": 0.0433,
      "velocity": 95,
      "chip": "ym2612"
    },
    {
      "channel": 4,
      "note": 50,
      "start": 0.7532,
      "duration": 0.2192,
      "velocity": 95,
      "chip": "ym2612"
    },
    {
      "channel": 0,
      "note": 69,
      "start": 0.7961,
      "duration": 0.1756,
      "velocity": 95,
      "chip": "ym2612"
    },
    {
      "channel": 0,
      "note": 74,
      "start": 0.9719,
      "duration": 0.0199,
      "velocity": 95,
      "chip": "ym2612"
    },
    {
      "channel": 1,
      "note": 76,
      "start": 0.9721,
      "duration": 0.0198,
      "velocity": 95,
      "chip": "ym2612"
    },
    {
      "channel": 1,
      "note": 69,
      "start": 0.9921,
      "duration": 0.1583,
      "velocity": 95,
      "chip": "ym2612"
    },
    {
      "channel": 1,
      "note": 74,
      "start": 1.1505,
      "duration": 0.0434,
      "velocity": 95,
      "chip": "ym2612"
    },
    {
      "channel": 0,
      "note": 81,
      "start": 1.1939,
      "duration": 0.1755,
      "velocity": 95,
      "chip": "ym2612"
    },
    {
      "channel": 1,
      "note": 81,
      "start": 1.3896,
      "duration": 0.1586,
      "velocity": 95,
      "chip": "ym2612"
    },
    {
      "channel": 0,
      "note": 76,
      "start": 1.5481,
      "duration": 0.0436,
      "velocity": 95,
      "chip": "ym2612"
    },
    {
      "channel": 0,
      "note": 74,
      "start": 1.5918,
      "duration": 0.1756,
      "velocity": 95,
      "chip": "ym2612"
    },
    {
      "channel": 0,
      "note": 81,
      "start": 1.7675,
      "duration": 0.0201,
      "velocity": 95,
      "chip": "ym2612"
    },
    {
      "channel": 1,
      "note": 76,
      "start": 1.7678,
      "duration": 0.02,
      "velocity": 95,
      "chip": "ym2612"
    },
    {
      "channel": 4,
      "note": 50,
      "start": 1.7681,
      "duration": 0.1782,
      "velocity": 95,
      "chip": "ym2612"
    },
    {
      "channel": 1,
      "note": 74,
      "start": 1.7879,
      "duration": 0.1581,
      "velocity": 95,
      "chip": "ym2612"
    },
    {
      "channel": 1,
      "note": 81,
      "start": 1.9461,
      "duration": 0.0435,
      "velocity": 95,
      "chip": "ym2612"
    },
    {
      "channel": 0,
      "note": 81,
      "start": 1.9896,
      "duration": 0.1755,
      "velocity": 95,
      "chip": "ym2612"
    },
    {
      "channel": 1,
      "note": 81,
      "start": 2.1852,
      "duration": 0.1586,
      "velocity": 95,
      "chip": "ym2612"
    },
    {
      "channel": 0,
      "note": 76,
      "start": 2.3438,
      "duration": 0.0434,
      "velocity": 95,
      "chip": "ym2612"
    },
    {
      "channel": 4,
      "note": 50,
      "start": 2.3443,
      "duration": 0.2192,
      "velocity": 95,
      "chip": "ym2612"
    },
    {
      "channel": 0,
      "note": 74,
      "start": 2.3873,
      "duration": 0.1756,
      "velocity": 95,
      "chip": "ym2612"
    },
    {
      "channel": 0,
      "note": 83,
      "start": 2.563,
      "duration": 0.02,
      "velocity": 95,
      "chip": "ym2612"
    },
    {
      "channel": 1,
      "note": 76,
      "start": 2.5633,
      "duration": 0.0199,
      "velocity": 95,
      "chip": "ym2612"
    },
    {
      "channel": 1,
      "note": 74,
      "start": 2.5833,
      "duration": 0.1584,
      "velocity": 95,
      "chip": "ym2612"
    },
    {
      "channel": 0,
      "note": 76,
      "start": 2.7416,
      "duration": 0.0433,
      "velocity": 95,
      "chip": "ym2612"
    },
    {
      "channel": 1,
      "note": 83,
      "start": 2.7419,
      "duration": 0.0431,
      "velocity": 95,
      "chip": "ym2612"
    },
    {
      "channel": 1,
      "note": 76,
      "start": 2.9609,
      "duration": 0.02,
      "velocity": 95,
      "chip": "ym2612"
    },
    {
      "channel": 4,
      "note": 45,
      "start": 2.9613,
      "duration": 0.1783,
      "velocity": 95,
      "chip": "ym2612"
    },
    {
      "channel": 0,
      "note": 79,
      "start": 3.1393,
      "duration": 0.0433,
      "velocity": 95,
      "chip": "ym2612"
    },
    {
      "channel": 0,
      "note": 78,
      "start": 3.3586,
      "duration": 0.0201,
      "velocity": 95,
      "chip": "ym2612"
    },
    {
      "channel": 1,
      "note": 79,
      "start": 3.3588,
      "duration": 0.02,
      "velocity": 95,
      "chip": "ym2612"
    },
    {
      "channel": 4,
      "note": 47,
      "start": 3.3592,
      "duration": 0.1782,
      "velocity": 95,
      "chip": "ym2612"
    },
    {
      "channel": 1,
      "note": 78,
      "start": 3.5372,
      "duration": 0.0435,
      "velocity": 95,
      "chip": "ym2612"
    },
    {
      "channel": 0,
      "note": 69,
      "start": 3.5806,
      "duration": 0.1756,
      "velocity": 95,
      "chip": "ym2612"
    },
    {
      "channel": 0,
      "note": 74,
      "start": 3.7564,
      "duration": 0.0198,
      "velocity": 95,
      "chip": "ym2612"
    },
    {
      "channel": 1,
      "note": 69,
      "start": 3.7764,
      "duration": 0.1584,
      "velocity": 95,
      "chip": "ym2612"
    },
    {
      "channel": 1,
      "note": 74,
      "start": 3.935,
      "duration": 0.0435,
      "velocity": 95,
      "chip": "ym2612"
    },
    {
      "channel": 4,
      "note": 47,
      "start": 3.9354,
      "duration": 0.219,
      "velocity": 95,
      "chip": "ym2612"
    },
    {
      "channel": 0,
      "note": 69,
      "start": 3.9784,
      "duration": 0.1756,
      "velocity": 95,
      "chip": "ym2612"
    },
    {
      "channel": 0,
      "note": 71,
      "start": 4.1541,
      "duration": 0.0199,
      "velocity": 95,
      "chip": "ym2612"
    },
    {
      "channel": 1,
      "note": 69,
      "start": 4.1743,
      "duration": 0.1583,
      "velocity": 95,
      "chip": "ym2612"
    },
    {
      "channel": 1,
      "note": 71,
      "start": 4.3327,
      "duration": 0.0434,
      "velocity": 95,
      "chip": "ym2612"
    },
    {
      "channel": 0,
      "note": 69,
      "start": 4.3761,
      "duration": 0.1755,
      "velocity": 95,
      "chip": "ym2612"
    },
    {
      "channel": 1,
      "note": 69,
      "start": 4.5716,
      "duration": 0.1588,
      "velocity": 95,
      "chip": "ym2612"
    },
    {
      "channel": 0,
      "note": 74,
      "start": 4.7303,
      "duration": 0.0433,
      "velocity": 95,
      "chip": "ym2612"
    },
    {
      "channel": 0,
      "note": 76,
      "start": 4.9495,
      "duration": 0.0202,
      "velocity": 95,
      "chip": "ym2612"
    },
    {
      "channel": 1,
      "note": 74,
      "start": 4.9498,
      "duration": 0.0201,
      "velocity": 95,
      "chip": "ym2612"
    },
    {
      "channel": 4,
      "note": 47,
      "start": 4.9501,
      "duration": 0.1782,
      "velocity": 95,
      "chip": "ym2612"
    },
    {
      "channel": 1,
      "note": 76,
      "start": 5.1281,
      "duration": 0.0435,
      "velocity": 95,
      "chip": "ym2612"
    },
    {
      "channel": 0,
      "note": 76,
      "start": 5.1716,
      "duration": 0.1755,
      "velocity": 95,
      "chip": "ym2612"
    },
    {
      "channel": 1,
      "note": 76,
      "start": 5.367,
      "duration": 0.1588,
      "velocity": 95,
      "chip": "ym2612"
    },
    {
      "channel": 0,
      "note": 71,
      "start": 5.5258,
      "duration": 0.0433,
      "velocity": 95,
      "chip": "ym2612"
    },
    {
      "channel": 4,
      "note": 45,
      "start": 5.5263,
      "duration": 0.2192,
      "velocity": 95,
      "chip": "ym2612"
    },
    {
      "channel": 0,
      "note": 69,
      "start": 5.745,
      "duration": 0.0201,
      "velocity": 95,
      "chip": "ym2612"
    },
    {
      "channel": 1,
      "note": 71,
      "start": 5.7453,
      "duration": 0.0199,
      "velocity": 95,
      "chip": "ym2612"
    },
    {
      "channel": 1,
      "note": 69,
      "start": 5.9236,
      "duration": 0.0434,
      "velocity": 95,
      "chip": "ym2612"
    },
    {
      "channel": 0,
      "note": 69,
      "start": 5.967,
      "duration": 0.1755,
      "velocity": 95,
      "chip": "ym2612"
    },
    {
      "channel": 1,
      "note": 69,
      "start": 6.1625,
      "duration": 0.1588,
      "velocity": 95,
      "chip": "ym2612"
    },
    {
      "channel": 0,
      "note": 69,
      "start": 6.3212,
      "duration": 0.0433,
      "velocity": 95,
      "chip": "ym2612"
    },
    {
      "channel": 0,
      "note": 73,
      "start": 6.3647,
      "duration": 0.1756,
      "velocity": 95,
      "chip": "ym2612"
    },
    {
      "channel": 0,
      "note": 74,
      "start": 6.5404,
      "duration": 0.0202,
      "velocity": 95,
      "chip": "ym2612"
    },
    {
      "channel": 1,
      "note": 69,
      "start": 6.5407,
      "duration": 0.0201,
      "velocity": 95,
      "chip": "ym2612"
    },
    {
      "channel": 4,
      "note": 50,
      "start": 6.5411,
      "duration": 0.1781,
      "velocity": 95,
      "chip": "ym2612"
    },
    {
      "channel": 1,
      "note": 73,
      "start": 6.5609,
      "duration": 0.158,
      "velocity": 95,
      "chip": "ym2612"
    },
    {
      "channel": 1,
      "note": 74,
      "start": 6.719,
      "duration": 0.0434,
      "velocity": 95,
      "chip": "ym2612"
    },
    {
      "channel": 0,
      "note": 81,
      "start": 6.7624,
      "duration": 0.1755,
      "velocity": 95,
      "chip": "ym2612"
    },
    {
      "channel": 1,
      "note": 81,
      "start": 6.958,
      "duration": 0.1587,
      "velocity": 95,
      "chip": "ym2612"
    },
    {
      "channel": 0,
      "note": 76,
      "start": 7.1167,
      "duration": 0.0434,
      "velocity": 95,
      "chip": "ym2612"
    },
    {
      "channel": 4,
      "note": 50,
      "start": 7.1171,
      "duration": 0.2192,
      "velocity": 95,
      "chip": "ym2612"
    },
    {
      "channel": 0,
      "note": 69,
      "start": 7.1602,
      "duration": 0.1756,
      "velocity": 95,
      "chip": "ym2612"
    },
    {
      "channel": 0,
      "note": 74,
      "start": 7.3359,
      "duration": 0.02,
      "velocity": 95,
      "chip": "ym2612"
    },
    {
      "channel": 1,
      "note": 76,
      "start": 7.3361,
      "duration": 0.0198,
      "velocity": 95,
      "chip": "ym2612"
    },
    {
      "channel": 1,
      "note": 69,
      "start": 7.3561,
      "duration": 0.1583,
      "velocity": 95,
      "chip": "ym2612"
    },
    {
      "channel": 1,
      "note": 74,
      "start": 7.5145,
      "duration": 0.0435,
      "velocity": 95,
      "chip": "ym2612"
    },
    {
      "channel": 0,
      "note": 81,
      "start": 7.558,
      "duration": 0.1755,
      "velocity": 95,
      "chip": "ym2612"
    },
    {
      "channel": 4,
      "note": 52,
      "start": 7.734,
      "duration": 0.1785,
      "velocity": 95,
      "chip": "ym2612"
    },
    {
      "channel": 1,
      "note": 81,
      "start": 7.7538,
      "duration": 0.1584,
      "velocity": 95,
      "chip": "ym2612"
    },
    {
      "channel": 0,
      "note": 76,
      "start": 7.9122,
      "duration": 0.0433,
      "velocity": 95,
      "chip": "ym2612"
    },
    {
      "channel": 0,
      "note": 74,
      "start": 7.9556,
      "duration": 0.1756,
      "velocity": 95,
      "chip": "ym2612"
    },
    {
      "channel": 0,
      "note": 81,
      "start": 8.1314,
      "duration": 0.0201,
      "velocity": 95,
      "chip": "ym2612"
    },
    {
      "channel": 1,
      "note": 76,
      "start": 8.1316,
      "duration": 0.02,
      "velocity": 95,
      "chip": "ym2612"
    },
    {
      "channel": 4,
      "note": 50,
      "start": 8.132,
      "duration": 0.1782,
      "velocity": 95,
      "chip": "ym2612"
    },
    {
      "channel": 1,
      "note": 74,
      "start": 8.1518,
      "duration": 0.1581,
      "velocity": 95,
      "chip": "ym2612"
    },
    {
      "channel": 1,
      "note": 81,
      "start": 8.31,
      "duration": 0.0435,
      "velocity": 95,
      "chip": "ym2612"
    },
    {
      "channel": 0,
      "note": 81,
      "start": 8.3534,
      "duration": 0.1755,
      "velocity": 95,
      "chip": "ym2612"
    },
    {
      "channel": 1,
      "note": 81,
      "start": 8.5491,
      "duration": 0.1588,
      "velocity": 95,
      "chip": "ym2612"
    },
    {
      "channel": 0,
      "note": 76,
      "start": 8.7078,
      "duration": 0.0432,
      "velocity": 95,
      "chip": "ym2612"
    },
    {
      "channel": 4,
      "note": 50,
      "start": 8.7083,
      "duration": 0.219,
      "velocity": 95,
      "chip": "ym2612"
    },
    {
      "channel": 0,
      "note": 74,
      "start": 8.7511,
      "duration": 0.1756,
      "velocity": 95,
      "chip": "ym2612"
    },
    {
      "channel": 0,
      "note": 83,
      "start": 8.9268,
      "duration": 0.02,
      "velocity": 95,
      "chip": "ym2612"
    },
    {
      "channel": 1,
      "note": 76,
      "start": 8.9271,
      "duration": 0.0199,
      "velocity": 95,
      "chip": "ym2612"
    },
    {
      "channel": 1,
      "note": 74,
      "start": 8.9471,
      "duration": 0.1584,
      "velocity": 95,
      "chip": "ym2612"
    },
    {
      "channel": 0,
      "note": 76,
      "start": 9.1054,
      "duration": 0.0433,
      "velocity": 95,
      "chip": "ym2612"
    },
    {
      "channel": 1,
      "note": 83,
      "start": 9.1056,
      "duration": 0.0432,
      "velocity": 95,
      "chip": "ym2612"
    },
    {
      "channel": 1,
      "note": 76,
      "start": 9.3247,
      "duration": 0.02,
      "velocity": 95,
      "chip": "ym2612"
    },
    {
      "channel": 4,
      "note": 45,
      "start": 9.3251,
      "duration": 0.1783,
      "velocity": 95,
      "chip": "ym2612"
    },
    {
      "channel": 0,
      "note": 79,
      "start": 9.5032,
      "duration": 0.0433,
      "velocity": 95,
      "chip": "ym2612"
    },
    {
      "channel": 0,
      "note": 78,
      "start": 9.7224,
      "duration": 0.0201,
      "velocity": 95,
      "chip": "ym2612"
    },
    {
      "channel": 1,
      "note": 79,
      "start": 9.7226,
      "duration": 0.02,
      "velocity": 95,
      "chip": "ym2612"
    },
    {
      "channel": 4,
      "note": 47,
      "start": 9.723,
      "duration": 0.1782,
      "velocity": 95,
      "chip": "ym2612"
    },
    {
      "channel": 1,
      "note": 78,
      "start": 9.901,
      "duration": 0.0435,
      "velocity": 95,
      "chip": "ym2612"
    },
    {
      "channel": 0,
      "note": 69,
      "start": 9.9444,
      "duration": 0.1756,
      "velocity": 95,
      "chip": "ym2612"
    },
    {
      "channel": 0,
      "note": 74,
      "start": 10.1202,
      "duration": 0.0198,
      "velocity": 95,
      "chip": "ym2612"
    },
    {
      "channel": 1,
      "note": 69,
      "start": 10.1403,
      "duration": 0.1583,
      "velocity": 95,
      "chip": "ym2612"
    },
    {
      "channel": 1,
      "note": 74,
      "start": 10.2988,
      "duration": 0.0435,
      "velocity": 95,
      "chip": "ym2612"
    },
    {
      "channel": 4,
      "note": 47,
      "start": 10.2992,
      "duration": 0.219,
      "velocity": 95,
      "chip": "ym2612"
    },
    {
      "channel": 0,
      "note": 69,
      "start": 10.3422,
      "duration": 0.1756,
      "velocity": 95,
      "chip": "ym2612"
    },
    {
      "channel": 0,
      "note": 71,
      "start": 10.5179,
      "duration": 0.0199,
      "velocity": 95,
      "chip": "ym2612"
    },
    {
      "channel": 1,
      "note": 69,
      "start": 10.538,
      "duration": 0.1583,
      "velocity": 95,
      "chip": "ym2612"
    },
    {
      "channel": 1,
      "note": 71,
      "start": 10.6965,
      "duration": 0.0435,
      "velocity": 95,
      "chip": "ym2612"
    },
    {
      "channel": 0,
      "note": 69,
      "start": 10.7399,
      "duration": 0.1755,
      "velocity": 95,
      "chip": "ym2612"
    },
    {
      "channel": 1,
      "note": 69,
      "start": 10.9355,
      "duration": 0.1588,
      "velocity": 95,
      "chip": "ym2612"
    },
    {
      "channel": 0,
      "note": 74,
      "start": 11.0942,
      "duration": 0.0434,
      "velocity": 95,
      "chip": "ym2612"
    },
    {
      "channel": 0,
      "note": 76,
      "start": 11.3135,
      "duration": 0.0202,
      "velocity": 95,
      "chip": "ym2612"
    },
    {
      "channel": 1,
      "note": 74,
      "start": 11.3137,
      "duration": 0.0201,
      "velocity": 95,
      "chip": "ym2612"
    },
    {
      "channel": 4,
      "note": 47,
      "start": 11.3141,
      "duration": 0.1781,
      "velocity": 95,
      "chip": "ym2612"
    },
    {
      "channel": 1,
      "note": 76,
      "start": 11.492,
      "duration": 0.0435,
      "velocity": 95,
      "chip": "ym2612"
    },
    {
      "channel": 0,
      "note": 76,
      "start": 11.5355,
      "duration": 0.1755,
      "velocity": 95,
      "chip": "ym2612"
    },
    {
      "channel": 1,
      "note": 76,
      "start": 11.731,
      "duration": 0.1588,
      "velocity": 95,
      "chip": "ym2612"
    },
    {
      "channel": 0,
      "note": 71,
      "start": 11.8898,
      "duration": 0.0433,
      "velocity": 95,
      "chip": "ym2612"
    },
    {
      "channel": 4,
      "note": 45,
      "start": 11.8902,
      "duration": 0.2191,
      "velocity": 95,
      "chip": "ym2612"
    },
    {
      "channel": 0,
      "note": 69,
      "start": 12.1089,
      "duration": 0.02,
      "velocity": 95,
      "chip": "ym2612"
    },
    {
      "channel": 1,
      "note": 71,
      "start": 12.1092,
      "duration": 0.0198,
      "velocity": 95,
      "chip": "ym2612"
    },
    {
      "channel": 1,
      "note": 69,
      "start": 12.2875,
      "duration": 0.0434,
      "velocity": 95,
      "chip": "ym2612"
    },
    {
      "channel": 0,
      "note": 69,
      "start": 12.3309,
      "duration": 0.1755,
      "velocity": 95,
      "chip": "ym2612"
    },
    {
      "channel": 1,
      "note": 69,
      "start": 12.5264,
      "duration": 0.1588,
      "velocity": 95,
      "chip": "ym2612"
    },
    {
      "channel": 0,
      "note": 69,
      "start": 12.6851,
      "duration": 0.0434,
      "velocity": 95,
      "chip": "ym2612"
    },
    {
      "channel": 0,
      "note": 73,
      "start": 12.7287,
      "duration": 0.1756,
      "velocity": 95,
      "chip": "ym2612"
    },
    {
      "channel": 0,
      "note": 74,
      "start": 12.9044,
      "duration": 0.4357,
      "velocity": 95,
      "chip": "ym2612"
    },
    {
      "channel": 1,
      "note": 69,
      "start": 12.9046,
      "duration": 0.0216,
      "velocity": 95,
      "chip": "ym2612"
    },
    {
      "channel": 2,
      "note": 86,
      "start": 12.905,
      "duration": 0.0215,
      "velocity": 90,
      "chip": "ym2612"
    },
    {
      "channel": 4,
      "note": 50,
      "start": 12.9053,
      "duration": 0.0214,
      "velocity": 95,
      "chip": "ym2612"
    },
    {
      "channel": 1,
      "note": 73,
      "start": 12.9263,
      "duration": 0.019,
      "velocity": 95,
      "chip": "ym2612"
    },
    {
      "channel": 2,
      "note": 91,
      "start": 12.9266,
      "duration": 0.019,
      "velocity": 90,
      "chip": "ym2612"
    },
    {
      "channel": 1,
      "note": 74,
      "start": 12.9455,
      "duration": 0.6139,
      "velocity": 95,
      "chip": "ym2612"
    },
    {
      "channel": 2,
      "note": 93,
      "start": 12.9457,
      "duration": 0.2159,
      "velocity": 90,
      "chip": "ym2612"
    },
    {
      "channel": 3,
      "note": 86,
      "start": 12.9461,
      "duration": 0.0399,
      "velocity": 90,
      "chip": "ym2612"
    },
    {
      "channel": 4,
      "note": 57,
      "start": 12.9464,
      "duration": 0.0399,
      "velocity": 95,
      "chip": "ym2612"
    },
    {
      "channel": 3,
      "note": 91,
      "start": 12.9862,
      "duration": 0.1759,
      "velocity": 90,
      "chip": "ym2612"
    },
    {
      "channel": 2,
      "note": 86,
      "start": 13.1619,
      "duration": 0.0201,
      "velocity": 90,
      "chip": "ym2612"
    },
    {
      "channel": 3,
      "note": 93,
      "start": 13.1622,
      "duration": 0.1785,
      "velocity": 90,
      "chip": "ym2612"
    },
    {
      "channel": 4,
      "note": 61,
      "start": 13.1625,
      "duration": 0.0199,
      "velocity": 95,
      "chip": "ym2612"
    },
    {
      "channel": 2,
      "note": 91,
      "start": 13.1822,
      "duration": 0.1582,
      "velocity": 90,
      "chip": "ym2612"
    },
    {
      "channel": 0,
      "note": 74,
      "start": 13.3402,
      "duration": 0.3976,
      "velocity": 95,
      "chip": "ym2612"
    },
    {
      "channel": 2,
      "note": 93,
      "start": 13.3406,
      "duration": 0.219,
      "velocity": 90,
      "chip": "ym2612"
    },
    {
      "channel": 3,
      "note": 86,
      "start": 13.341,
      "duration": 0.0428,
      "velocity": 90,
      "chip": "ym2612"
    },
    {
      "channel": 4,
      "note": 62,
      "start": 13.3412,
      "duration": 0.4847,
      "velocity": 95,
      "chip": "ym2612"
    },
    {
      "channel": 3,
      "note": 91,
      "start": 13.3839,
      "duration": 0.1761,
      "velocity": 90,
      "chip": "ym2612"
    },
    {
      "channel": 1,
      "note": 74,
      "start": 13.5595,
      "duration": 0.2656,
      "velocity": 95,
      "chip": "ym2612"
    },
    {
      "channel": 2,
      "note": 86,
      "start": 13.5599,
      "duration": 0.02,
      "velocity": 90,
      "chip": "ym2612"
    },
    {
      "channel": 3,
      "note": 93,
      "start": 13.5601,
      "duration": 0.1783,
      "velocity": 90,
      "chip": "ym2612"
    },
    {
      "channel": 2,
      "note": 91,
      "start": 13.58,
      "duration": 0.1582,
      "velocity": 90,
      "chip": "ym2612"
    },
    {
      "channel": 0,
      "note": 74,
      "start": 13.738,
      "duration": 0.0868,
      "velocity": 95,
      "chip": "ym2612"
    },
    {
      "channel": 2,
      "note": 93,
      "start": 13.7383,
      "duration": 0.087,
      "velocity": 90,
      "chip": "ym2612"
    },
    {
      "channel": 3,
      "note": 86,
      "start": 13.7387,
      "duration": 0.0428,
      "velocity": 90,
      "chip": "ym2612"
    },
    {
      "channel": 3,
      "note": 91,
      "start": 13.7817,
      "duration": 0.044,
      "velocity": 90,
      "chip": "ym2612"
    },
    {
      "channel": 0,
      "note": 76,
      "start": 13.8249,
      "duration": 0.3977,
      "velocity": 95,
      "chip": "ym2612"
    },
    {
      "channel": 1,
      "note": 74,
      "start": 13.8252,
      "duration": 0.1783,
      "velocity": 95,
      "chip": "ym2612"
    },
    {
      "channel": 2,
      "note": 86,
      "start": 13.8256,
      "duration": 0.0203,
      "velocity": 90,
      "chip": "ym2612"
    },
    {
      "channel": 3,
      "note": 93,
      "start": 13.8258,
      "duration": 0.1781,
      "velocity": 90,
      "chip": "ym2612"
    },
    {
      "channel": 4,
      "note": 59,
      "start": 13.8261,
      "duration": 0.1783,
      "velocity": 95,
      "chip": "ym2612"
    },
    {
      "channel": 2,
      "note": 91,
      "start": 13.846,
      "duration": 0.1577,
      "velocity": 90,
      "chip": "ym2612"
    },
    {
      "channel": 1,
      "note": 76,
      "start": 14.0036,
      "duration": 0.3976,
      "velocity": 95,
      "chip": "ym2612"
    },
    {
      "channel": 2,
      "note": 93,
      "start": 14.0038,
      "duration": 0.2191,
      "velocity": 90,
      "chip": "ym2612"
    },
    {
      "channel": 3,
      "note": 86,
      "start": 14.0042,
      "duration": 0.0429,
      "velocity": 90,
      "chip": "ym2612"
    },
    {
      "channel": 4,
      "note": 57,
      "start": 14.0045,
      "duration": 0.2191,
      "velocity": 95,
      "chip": "ym2612"
    },
    {
      "channel": 3,
      "note": 91,
      "start": 14.0473,
      "duration": 0.1761,
      "velocity": 90,
      "chip": "ym2612"
    },
    {
      "channel": 0,
      "note": 79,
      "start": 14.2228,
      "duration": 0.3976,
      "velocity": 95,
      "chip": "ym2612"
    },
    {
      "channel": 2,
      "note": 86,
      "start": 14.2232,
      "duration": 0.0201,
      "velocity": 90,
      "chip": "ym2612"
    },
    {
      "channel": 3,
      "note": 93,
      "start": 14.2235,
      "duration": 0.1782,
      "velocity": 90,
      "chip": "ym2612"
    },
    {
      "channel": 4,
      "note": 52,
      "start": 14.2237,
      "duration": 0.1784,
      "velocity": 95,
      "chip": "ym2612"
    },
    {
      "channel": 2,
      "note": 91,
      "start": 14.2435,
      "duration": 0.158,
      "velocity": 90,
      "chip": "ym2612"
    },
    {
      "channel": 1,
      "note": 79,
      "start": 14.4013,
      "duration": 0.3978,
      "velocity": 95,
      "chip": "ym2612"
    },
    {
      "channel": 2,
      "note": 93,
      "start": 14.4016,
      "duration": 0.219,
      "velocity": 90,
      "chip": "ym2612"
    },
    {
      "channel": 3,
      "note": 86,
      "start": 14.402,
      "duration": 0.0429,
      "velocity": 90,
      "chip": "ym2612"
    },
    {
      "channel": 4,
      "note": 57,
      "start": 14.4022,
      "duration": 0.219,
      "velocity": 95,
      "chip": "ym2612"
    },
    {
      "channel": 3,
      "note": 91,
      "start": 14.445,
      "duration": 0.1761,
      "velocity": 90,
      "chip": "ym2612"
    },
    {
      "channel": 0,
      "note": 74,
      "start": 14.6205,
      "duration": 0.1784,
      "velocity": 95,
      "chip": "ym2612"
    },
    {
      "channel": 2,
      "note": 86,
      "start": 14.6209,
      "duration": 0.0203,
      "velocity": 90,
      "chip": "ym2612"
    },
    {
      "channel": 3,
      "note": 93,
      "start": 14.6212,
      "duration": 0.1785,
      "velocity": 90,
      "chip": "ym2612"
    },
    {
      "channel": 4,
      "note": 61,
      "start": 14.6214,
      "duration": 0.1786,
      "velocity": 95,
      "chip": "ym2612"
    },
    {
      "channel": 2,
      "note": 91,
      "start": 14.6414,
      "duration": 0.158,
      "velocity": 90,
      "chip": "ym2612"
    },
    {
      "channel": 0,
      "note": 79,
      "start": 14.799,
      "duration": 0.2191,
      "velocity": 95,
      "chip": "ym2612"
    },
    {
      "channel": 1,
      "note": 74,
      "start": 14.7993,
      "duration": 0.2191,
      "velocity": 95,
      "chip": "ym2612"
    },
    {
      "channel": 2,
      "note": 93,
      "start": 14.7995,
      "duration": 0.2191,
      "velocity": 90,
      "chip": "ym2612"
    },
    {
      "channel": 3,
      "note": 86,
      "start": 14.7999,
      "duration": 0.0427,
      "velocity": 90,
      "chip": "ym2612"
    },
    {
      "channel": 4,
      "note": 64,
      "start": 14.8002,
      "duration": 0.4843,
      "velocity": 95,
      "chip": "ym2612"
    },
    {
      "channel": 3,
      "note": 91,
      "start": 14.8427,
      "duration": 0.1762,
      "velocity": 90,
      "chip": "ym2612"
    },
    {
      "channel": 0,
      "note": 81,
      "start": 15.0182,
      "duration": 0.1784,
      "velocity": 95,
      "chip": "ym2612"
    },
    {
      "channel": 1,
      "note": 79,
      "start": 15.0185,
      "duration": 0.1784,
      "velocity": 95,
      "chip": "ym2612"
    },
    {
      "channel": 2,
      "note": 91,
      "start": 15.0188,
      "duration": 0.1783,
      "velocity": 90,
      "chip": "ym2612"
    },
    {
      "channel": 3,
      "note": 93,
      "start": 15.0191,
      "duration": 0.0198,
      "velocity": 90,
      "chip": "ym2612"
    },
    {
      "channel": 3,
      "note": 91,
      "start": 15.0391,
      "duration": 0.2012,
      "velocity": 90,
      "chip": "ym2612"
    },
    {
      "channel": 0,
      "note": 78,
      "start": 15.1968,
      "duration": 0.0869,
      "velocity": 95,
      "chip": "ym2612"
    },
    {
      "channel": 1,
      "note": 81,
      "start": 15.197,
      "duration": 0.0869,
      "velocity": 95,
      "chip": "ym2612"
    },
    {
      "channel": 2,
      "note": 90,
      "start": 15.1973,
      "duration": 0.0869,
      "velocity": 90,
      "chip": "ym2612"
    },
    {
      "channel": 3,
      "note": 90,
      "start": 15.2405,
      "duration": 0.0639,
      "velocity": 90,
      "chip": "ym2612"
    },
    {
      "channel": 0,
      "note": 76,
      "start": 15.2838,
      "duration": 0.1784,
      "velocity": 95,
      "chip": "ym2612"
    },
    {
      "channel": 1,
      "note": 78,
      "start": 15.284,
      "duration": 0.1784,
      "velocity": 95,
      "chip": "ym2612"
    },
    {
      "channel": 2,
      "note": 88,
      "start": 15.2843,
      "duration": 0.1784,
      "velocity": 90,
      "chip": "ym2612"
    },
    {
      "channel": 4,
      "note": 59,
      "start": 15.2846,
      "duration": 0.1784,
      "velocity": 95,
      "chip": "ym2612"
    },
    {
      "channel": 3,
      "note": 88,
      "start": 15.3046,
      "duration": 0.2012,
      "velocity": 90,
      "chip": "ym2612"
    },
    {
      "channel": 0,
      "note": 69,
      "start": 15.4623,
      "duration": 0.219,
      "velocity": 95,
      "chip": "ym2612"
    },
    {
      "channel": 1,
      "note": 76,
      "start": 15.4626,
      "duration": 0.219,
      "velocity": 95,
      "chip": "ym2612"
    },
    {
      "channel": 2,
      "note": 81,
      "start": 15.4628,
      "duration": 0.219,
      "velocity": 90,
      "chip": "ym2612"
    },
    {
      "channel": 4,
      "note": 57,
      "start": 15.4631,
      "duration": 0.219,
      "velocity": 95,
      "chip": "ym2612"
    },
    {
      "channel": 3,
      "note": 81,
      "start": 15.5059,
      "duration": 0.3545,
      "velocity": 90,
      "chip": "ym2612"
    },
    {
      "channel": 0,
      "note": 74,
      "start": 15.6815,
      "duration": 0.3976,
      "velocity": 95,
      "chip": "ym2612"
    },
    {
      "channel": 1,
      "note": 69,
      "start": 15.6817,
      "duration": 0.1782,
      "velocity": 95,
      "chip": "ym2612"
    },
    {
      "channel": 2,
      "note": 86,
      "start": 15.682,
      "duration": 0.02,
      "velocity": 90,
      "chip": "ym2612"
    },
    {
      "channel": 4,
      "note": 59,
      "start": 15.6823,
      "duration": 0.1784,
      "velocity": 95,
      "chip": "ym2612"
    },
    {
      "channel": 2,
      "note": 91,
      "start": 15.7021,
      "duration": 0.1581,
      "velocity": 90,
      "chip": "ym2612"
    },
    {
      "channel": 1,
      "note": 74,
      "start": 15.8601,
      "duration": 0.3978,
      "velocity": 95,
      "chip": "ym2612"
    },
    {
      "channel": 2,
      "note": 93,
      "start": 15.8603,
      "duration": 0.219,
      "velocity": 90,
      "chip": "ym2612"
    },
    {
      "channel": 3,
      "note": 86,
      "start": 15.8606,
      "duration": 0.043,
      "velocity": 90,
      "chip": "ym2612"
    },
    {
      "channel": 4,
      "note": 54,
      "start": 15.8608,
      "duration": 0.2192,
      "velocity": 95,
      "chip": "ym2612"
    },
    {
      "channel": 3,
      "note": 91,
      "start": 15.9037,
      "duration": 0.1761,
      "velocity": 90,
      "chip": "ym2612"
    },
    {
      "channel": 0,
      "note": 69,
      "start": 16.0792,
      "duration": 0.1784,
      "velocity": 95,
      "chip": "ym2612"
    },
    {
      "channel": 2,
      "note": 86,
      "start": 16.0796,
      "duration": 0.0203,
      "velocity": 90,
      "chip": "ym2612"
    },
    {
      "channel": 3,
      "note": 93,
      "start": 16.0799,
      "duration": 0.1784,
      "velocity": 90,
      "chip": "ym2612"
    },
    {
      "channel": 4,
      "note": 47,
      "start": 16.0802,
      "duration": 0.1786,
      "velocity": 95,
      "chip": "ym2612"
    },
    {
      "channel": 2,
      "note": 91,
      "start": 16.1,
      "duration": 0.158,
      "velocity": 90,
      "chip": "ym2612"
    },
    {
      "channel": 0,
      "note": 74,
      "start": 16.2577,
      "duration": 0.3976,
      "velocity": 95,
      "chip": "ym2612"
    },
    {
      "channel": 1,
      "note": 69,
      "start": 16.258,
      "duration": 0.2189,
      "velocity": 95,
      "chip": "ym2612"
    },
    {
      "channel": 2,
      "note": 93,
      "start": 16.2582,
      "duration": 0.2189,
      "velocity": 90,
      "chip": "ym2612"
    },
    {
      "channel": 3,
      "note": 86,
      "start": 16.2586,
      "duration": 0.0427,
      "velocity": 90,
      "chip": "ym2612"
    },
    {
      "channel": 4,
      "note": 59,
      "start": 16.2589,
      "duration": 0.4846,
      "velocity": 95,
      "chip": "ym2612"
    },
    {
      "channel": 3,
      "note": 91,
      "start": 16.3015,
      "duration": 0.176,
      "velocity": 90,
      "chip": "ym2612"
    },
    {
      "channel": 1,
      "note": 74,
      "start": 16.477,
      "duration": 0.2656,
      "velocity": 95,
      "chip": "ym2612"
    },
    {
      "channel": 2,
      "note": 86,
      "start": 16.4774,
      "duration": 0.0201,
      "velocity": 90,
      "chip": "ym2612"
    },
    {
      "channel": 3,
      "note": 93,
      "start": 16.4777,
      "duration": 0.1783,
      "velocity": 90,
      "chip": "ym2612"
    },
    {
      "channel": 2,
      "note": 91,
      "start": 16.4976,
      "duration": 0.158,
      "velocity": 90,
      "chip": "ym2612"
    },
    {
      "channel": 0,
      "note": 69,
      "start": 16.6555,
      "duration": 0.0868,
      "velocity": 95,
      "chip": "ym2612"
    },
    {
      "channel": 2,
      "note": 93,
      "start": 16.6558,
      "duration": 0.087,
      "velocity": 90,
      "chip": "ym2612"
    },
    {
      "channel": 3,
      "note": 86,
      "start": 16.6562,
      "duration": 0.0428,
      "velocity": 90,
      "chip": "ym2612"
    },
    {
      "channel": 3,
      "note": 91,
      "start": 16.6992,
      "duration": 0.044,
      "velocity": 90,
      "chip": "ym2612"
    },
    {
      "channel": 0,
      "note": 74,
      "start": 16.7425,
      "duration": 0.1783,
      "velocity": 95,
      "chip": "ym2612"
    },
    {
      "channel": 1,
      "note": 69,
      "start": 16.7427,
      "duration": 0.1783,
      "velocity": 95,
      "chip": "ym2612"
    },
    {
      "channel": 2,
      "note": 86,
      "start": 16.7431,
      "duration": 0.0201,
      "velocity": 90,
      "chip": "ym2612"
    },
    {
      "channel": 3,
      "note": 93,
      "start": 16.7434,
      "duration": 0.1782,
      "velocity": 90,
      "chip": "ym2612"
    },
    {
      "channel": 4,
      "note": 55,
      "start": 16.7436,
      "duration": 0.1784,
      "velocity": 95,
      "chip": "ym2612"
    },
    {
      "channel": 2,
      "note": 91,
      "start": 16.7634,
      "duration": 0.158,
      "velocity": 90,
      "chip": "ym2612"
    },
    {
      "channel": 0,
      "note": 78,
      "start": 16.921,
      "duration": 0.2191,
      "velocity": 95,
      "chip": "ym2612"
    },
    {
      "channel": 1,
      "note": 74,
      "start": 16.9212,
      "duration": 0.2191,
      "velocity": 95,
      "chip": "ym2612"
    },
    {
      "channel": 2,
      "note": 93,
      "start": 16.9215,
      "duration": 0.2191,
      "velocity": 90,
      "chip": "ym2612"
    },
    {
      "channel": 3,
      "note": 86,
      "start": 16.9219,
      "duration": 0.0427,
      "velocity": 90,
      "chip": "ym2612"
    },
    {
      "channel": 4,
      "note": 54,
      "start": 16.9221,
      "duration": 0.2191,
      "velocity": 95,
      "chip": "ym2612"
    },
    {
      "channel": 3,
      "note": 91,
      "start": 16.9647,
      "duration": 0.1763,
      "velocity": 90,
      "chip": "ym2612"
    },
    {
      "channel": 0,
      "note": 79,
      "start": 17.1402,
      "duration": 0.1784,
      "velocity": 95,
      "chip": "ym2612"
    },
    {
      "channel": 1,
      "note": 78,
      "start": 17.1404,
      "duration": 0.1784,
      "velocity": 95,
      "chip": "ym2612"
    },
    {
      "channel": 2,
      "note": 86,
      "start": 17.1408,
      "duration": 0.0203,
      "velocity": 90,
      "chip": "ym2612"
    },
    {
      "channel": 3,
      "note": 93,
      "start": 17.1411,
      "duration": 0.1783,
      "velocity": 90,
      "chip": "ym2612"
    },
    {
      "channel": 4,
      "note": 52,
      "start": 17.1413,
      "duration": 0.1783,
      "velocity": 95,
      "chip": "ym2612"
    },
    {
      "channel": 2,
      "note": 91,
      "start": 17.1612,
      "duration": 0.1578,
      "velocity": 90,
      "chip": "ym2612"
    },
    {
      "channel": 0,
      "note": 74,
      "start": 17.3187,
      "duration": 0.219,
      "velocity": 95,
      "chip": "ym2612"
    },
    {
      "channel": 1,
      "note": 79,
      "start": 17.319,
      "duration": 0.219,
      "velocity": 95,
      "chip": "ym2612"
    },
    {
      "channel": 2,
      "note": 93,
      "start": 17.3192,
      "duration": 0.219,
      "velocity": 90,
      "chip": "ym2612"
    },
    {
      "channel": 3,
      "note": 86,
      "start": 17.3196,
      "duration": 0.0426,
      "velocity": 90,
      "chip": "ym2612"
    },
    {
      "channel": 3,
      "note": 91,
      "start": 17.3624,
      "duration": 0.1763,
      "velocity": 90,
      "chip": "ym2612"
    },
    {
      "channel": 0,
      "note": 79,
      "start": 17.5379,
      "duration": 0.1784,
      "velocity": 95,
      "chip": "ym2612"
    },
    {
      "channel": 1,
      "note": 74,
      "start": 17.5381,
      "duration": 0.1784,
      "velocity": 95,
      "chip": "ym2612"
    },
    {
      "channel": 2,
      "note": 86,
      "start": 17.5385,
      "duration": 0.0199,
      "velocity": 90,
      "chip": "ym2612"
    },
    {
      "channel": 3,
      "note": 93,
      "start": 17.5388,
      "duration": 0.1783,
      "velocity": 90,
      "chip": "ym2612"
    },
    {
      "channel": 2,
      "note": 91,
      "start": 17.5586,
      "duration": 0.1582,
      "velocity": 90,
      "chip": "ym2612"
    },
    {
      "channel": 0,
      "note": 74,
      "start": 17.7164,
      "duration": 0.0868,
      "velocity": 95,
      "chip": "ym2612"
    },
    {
      "channel": 1,
      "note": 79,
      "start": 17.7167,
      "duration": 0.0868,
      "velocity": 95,
      "chip": "ym2612"
    },
    {
      "channel": 2,
      "note": 93,
      "start": 17.7169,
      "duration": 0.0868,
      "velocity": 90,
      "chip": "ym2612"
    },
    {
      "channel": 3,
      "note": 86,
      "start": 17.7173,
      "duration": 0.0427,
      "velocity": 90,
      "chip": "ym2612"
    },
    {
      "channel": 4,
      "note": 57,
      "start": 17.7176,
      "duration": 0.23,
      "velocity": 95,
      "chip": "ym2612"
    },
    {
      "channel": 3,
      "note": 91,
      "start": 17.7601,
      "duration": 0.044,
      "velocity": 90,
      "chip": "ym2612"
    },
    {
      "channel": 0,
      "note": 81,
      "start": 17.8034,
      "duration": 0.0563,
      "velocity": 95,
      "chip": "ym2612"
    },
    {
      "channel": 1,
      "note": 74,
      "start": 17.8037,
      "duration": 0.0563,
      "velocity": 95,
      "chip": "ym2612"
    },
    {
      "channel": 2,
      "note": 98,
      "start": 17.804,
      "duration": 0.0562,
      "velocity": 90,
      "chip": "ym2612"
    },
    {
      "channel": 3,
      "note": 93,
      "start": 17.8043,
      "duration": 0.0199,
      "velocity": 90,
      "chip": "ym2612"
    },
    {
      "channel": 3,
      "note": 98,
      "start": 17.8245,
      "duration": 0.079,
      "velocity": 90,
      "chip": "ym2612"
    },
    {
      "channel": 0,
      "note": 78,
      "start": 17.8599,
      "duration": 0.0869,
      "velocity": 95,
      "chip": "ym2612"
    },
    {
      "channel": 1,
      "note": 81,
      "start": 17.8601,
      "duration": 0.0869,
      "velocity": 95,
      "chip": "ym2612"
    },
    {
      "channel": 2,
      "note": 97,
      "start": 17.8604,
      "duration": 0.0869,
      "velocity": 90,
      "chip": "ym2612"
    },
    {
      "channel": 3,
      "note": 97,
      "start": 17.9036,
      "duration": 0.0637,
      "velocity": 90,
      "chip": "ym2612"
    },
    {
      "channel": 0,
      "note": 76,
      "start": 17.9469,
      "duration": 0.1784,
      "velocity": 95,
      "chip": "ym2612"
    },
    {
      "channel": 1,
      "note": 78,
      "start": 17.9472,
      "duration": 0.1784,
      "velocity": 95,
      "chip": "ym2612"
    },
    {
      "channel": 2,
      "note": 95,
      "start": 17.9474,
      "duration": 0.1784,
      "velocity": 90,
      "chip": "ym2612"
    },
    {
      "channel": 3,
      "note": 95,
      "start": 17.9674,
      "duration": 0.2016,
      "velocity": 90,
      "chip": "ym2612"
    },
    {
      "channel": 0,
      "note": 69,
      "start": 18.1255,
      "duration": 0.219,
      "velocity": 95,
      "chip": "ym2612"
    },
    {
      "channel": 1,
      "note": 76,
      "start": 18.1258,
      "duration": 0.219,
      "velocity": 95,
      "chip": "ym2612"
    },
    {
      "channel": 2,
      "note": 93,
      "start": 18.126,
      "duration": 0.219,
      "velocity": 90,
      "chip": "ym2612"
    },
    {
      "channel": 3,
      "note": 93,
      "start": 18.1692,
      "duration": 0.3545,
      "velocity": 90,
      "chip": "ym2612"
    },
    {
      "channel": 0,
      "note": 74,
      "start": 18.3447,
      "duration": 0.5761,
      "velocity": 95,
      "chip": "ym2612"
    },
    {
      "channel": 1,
      "note": 69,
      "start": 18.3449,
      "duration": 0.1782,
      "velocity": 95,
      "chip": "ym2612"
    },
    {
      "channel": 2,
      "note": 86,
      "start": 18.3453,
      "duration": 0.0201,
      "velocity": 90,
      "chip": "ym2612"
    },
    {
      "channel": 4,
      "note": 50,
      "start": 18.3456,
      "duration": 0.02,
      "velocity": 95,
      "chip": "ym2612"
    },
    {
      "channel": 2,
      "note": 91,
      "start": 18.3656,
      "duration": 0.1578,
      "velocity": 90,
      "chip": "ym2612"
    },
    {
      "channel": 1,
      "note": 74,
      "start": 18.5233,
      "duration": 0.6167,
      "velocity": 95,
      "chip": "ym2612"
    },
    {
      "channel": 2,
      "note": 93,
      "start": 18.5236,
      "duration": 0.2188,
      "velocity": 90,
      "chip": "ym2612"
    },
    {
      "channel": 3,
      "note": 86,
      "start": 18.524,
      "duration": 0.0428,
      "velocity": 90,
      "chip": "ym2612"
    },
    {
      "channel": 4,
      "note": 57,
      "start": 18.5242,
      "duration": 0.0428,
      "velocity": 95,
      "chip": "ym2612"
    },
    {
      "channel": 3,
      "note": 91,
      "start": 18.5669,
      "duration": 0.1759,
      "velocity": 90,
      "chip": "ym2612"
    },
    {
      "channel": 2,
      "note": 86,
      "start": 18.7427,
      "duration": 0.0202,
      "velocity": 90,
      "chip": "ym2612"
    },
    {
      "channel": 3,
      "note": 93,
      "start": 18.743,
      "duration": 0.1784,
      "velocity": 90,
      "chip": "ym2612"
    },
    {
      "channel": 4,
      "note": 61,
      "start": 18.7432,
      "duration": 0.0199,
      "velocity": 95,
      "chip": "ym2612"
    },
    {
      "channel": 2,
      "note": 91,
      "start": 18.763,
      "duration": 0.1581,
      "velocity": 90,
      "chip": "ym2612"
    },
    {
      "channel": 0,
      "note": 74,
      "start": 18.921,
      "duration": 0.3976,
      "velocity": 95,
      "chip": "ym2612"
    },
    {
      "channel": 2,
      "note": 93,
      "start": 18.9213,
      "duration": 0.219,
      "velocity": 90,
      "chip": "ym2612"
    },
    {
      "channel": 3,
      "note": 86,
      "start": 18.9217,
      "duration": 0.0428,
      "velocity": 90,
      "chip": "ym2612"
    },
    {
      "channel": 4,
      "note": 62,
      "start": 18.922,
      "duration": 0.4847,
      "velocity": 95,
      "chip": "ym2612"
    },
    {
      "channel": 3,
      "note": 91,
      "start": 18.9646,
      "duration": 0.1761,
      "velocity": 90,
      "chip": "ym2612"
    },
    {
      "channel": 1,
      "note": 74,
      "start": 19.1402,
      "duration": 0.2655,
      "velocity": 95,
      "chip": "ym2612"
    },
    {
      "channel": 2,
      "note": 86,
      "start": 19.1406,
      "duration": 0.02,
      "velocity": 90,
      "chip": "ym2612"
    },
    {
      "channel": 3,
      "note": 93,
      "start": 19.1409,
      "duration": 0.1783,
      "velocity": 90,
      "chip": "ym2612"
    },
    {
      "channel": 2,
      "note": 91,
      "start": 19.1607,
      "duration": 0.1582,
      "velocity": 90,
      "chip": "ym2612"
    },
    {
      "channel": 0,
      "note": 74,
      "start": 19.3188,
      "duration": 0.0868,
      "velocity": 95,
      "chip": "ym2612"
    },
    {
      "channel": 2,
      "note": 93,
      "start": 19.3191,
      "duration": 0.0869,
      "velocity": 90,
      "chip": "ym2612"
    },
    {
      "channel": 3,
      "note": 86,
      "start": 19.3195,
      "duration": 0.0428,
      "velocity": 90,
      "chip": "ym2612"
    },
    {
      "channel": 3,
      "note": 91,
      "start": 19.3624,
      "duration": 0.044,
      "velocity": 90,
      "chip": "ym2612"
    },
    {
      "channel": 0,
      "note": 76,
      "start": 19.4056,
      "duration": 0.3977,
      "velocity": 95,
      "chip": "ym2612"
    },
    {
      "channel": 1,
      "note": 74,
      "start": 19.4059,
      "duration": 0.1783,
      "velocity": 95,
      "chip": "ym2612"
    },
    {
      "channel": 2,
      "note": 86,
      "start": 19.4063,
      "duration": 0.0203,
      "velocity": 90,
      "chip": "ym2612"
    },
    {
      "channel": 3,
      "note": 93,
      "start": 19.4065,
      "duration": 0.1782,
      "velocity": 90,
      "chip": "ym2612"
    },
    {
      "channel": 4,
      "note": 59,
      "start": 19.4068,
      "duration": 0.1783,
      "velocity": 95,
      "chip": "ym2612"
    },
    {
      "channel": 2,
      "note": 91,
      "start": 19.4267,
      "duration": 0.1577,
      "velocity": 90,
      "chip": "ym2612"
    },
    {
      "channel": 1,
      "note": 76,
      "start": 19.5843,
      "duration": 0.3976,
      "velocity": 95,
      "chip": "ym2612"
    },
    {
      "channel": 2,
      "note": 93,
      "start": 19.5846,
      "duration": 0.219,
      "velocity": 90,
      "chip": "ym2612"
    },
    {
      "channel": 3,
      "note": 86,
      "start": 19.585,
      "duration": 0.0428,
      "velocity": 90,
      "chip": "ym2612"
    },
    {
      "channel": 4,
      "note": 57,
      "start": 19.5852,
      "duration": 0.219,
      "velocity": 95,
      "chip": "ym2612"
    },
    {
      "channel": 3,
      "note": 91,
      "start": 19.6279,
      "duration": 0.1761,
      "velocity": 90,
      "chip": "ym2612"
    },
    {
      "channel": 0,
      "note": 79,
      "start": 19.8034,
      "duration": 0.3976,
      "velocity": 95,
      "chip": "ym2612"
    },
    {
      "channel": 2,
      "note": 86,
      "start": 19.8039,
      "duration": 0.0201,
      "velocity": 90,
      "chip": "ym2612"
    },
    {
      "channel": 3,
      "note": 93,
      "start": 19.8041,
      "duration": 0.1782,
      "velocity": 90,
      "chip": "ym2612"
    },
    {
      "channel": 4,
      "note": 55,
      "start": 19.8044,
      "duration": 0.1784,
      "velocity": 95,
      "chip": "ym2612"
    },
    {
      "channel": 2,
      "note": 91,
      "start": 19.8241,
      "duration": 0.158,
      "velocity": 90,
      "chip": "ym2612"
    },
    {
      "channel": 1,
      "note": 79,
      "start": 19.982,
      "duration": 0.3979,
      "velocity": 95,
      "chip": "ym2612"
    },
    {
      "channel": 2,
      "note": 93,
      "start": 19.9823,
      "duration": 0.219,
      "velocity": 90,
      "chip": "ym2612"
    },
    {
      "channel": 3,
      "note": 86,
      "start": 19.9827,
      "duration": 0.0429,
      "velocity": 90,
      "chip": "ym2612"
    },
    {
      "channel": 4,
      "note": 57,
      "start": 19.9829,
      "duration": 0.219,
      "velocity": 95,
      "chip": "ym2612"
    },
    {
      "channel": 3,
      "note": 91,
      "start": 20.0257,
      "duration": 0.1761,
      "velocity": 90,
      "chip": "ym2612"
    },
    {
      "channel": 0,
      "note": 74,
      "start": 20.2012,
      "duration": 0.1785,
      "velocity": 95,
      "chip": "ym2612"
    },
    {
      "channel": 2,
      "note": 86,
      "start": 20.2016,
      "duration": 0.0203,
      "velocity": 90,
      "chip": "ym2612"
    },
    {
      "channel": 3,
      "note": 93,
      "start": 20.2019,
      "duration": 0.1786,
      "velocity": 90,
      "chip": "ym2612"
    },
    {
      "channel": 4,
      "note": 55,
      "start": 20.2021,
      "duration": 0.1788,
      "velocity": 95,
      "chip": "ym2612"
    },
    {
      "channel": 2,
      "note": 91,
      "start": 20.222,
      "duration": 0.1582,
      "velocity": 90,
      "chip": "ym2612"
    },
    {
      "channel": 0,
      "note": 79,
      "start": 20.3798,
      "duration": 0.219,
      "velocity": 95,
      "chip": "ym2612"
    },
    {
      "channel": 1,
      "note": 74,
      "start": 20.3801,
      "duration": 0.2189,
      "velocity": 95,
      "chip": "ym2612"
    },
    {
      "channel": 2,
      "note": 93,
      "start": 20.3803,
      "duration": 0.2189,
      "velocity": 90,
      "chip": "ym2612"
    },
    {
      "channel": 3,
      "note": 86,
      "start": 20.3807,
      "duration": 0.0425,
      "velocity": 90,
      "chip": "ym2612"
    },
    {
      "channel": 4,
      "note": 52,
      "start": 20.381,
      "duration": 0.4841,
      "velocity": 95,
      "chip": "ym2612"
    },
    {
      "channel": 3,
      "note": 91,
      "start": 20.4234,
      "duration": 0.1762,
      "velocity": 90,
      "chip": "ym2612"
    },
    {
      "channel": 0,
      "note": 81,
      "start": 20.5989,
      "duration": 0.1784,
      "velocity": 95,
      "chip": "ym2612"
    },
    {
      "channel": 1,
      "note": 79,
      "start": 20.5992,
      "duration": 0.1784,
      "velocity": 95,
      "chip": "ym2612"
    },
    {
      "channel": 2,
      "note": 91,
      "start": 20.5995,
      "duration": 0.1783,
      "velocity": 90,
      "chip": "ym2612"
    },
    {
      "channel": 3,
      "note": 93,
      "start": 20.5998,
      "duration": 0.0198,
      "velocity": 90,
      "chip": "ym2612"
    },
    {
      "channel": 3,
      "note": 91,
      "start": 20.6199,
      "duration": 0.2012,
      "velocity": 90,
      "chip": "ym2612"
    },
    {
      "channel": 0,
      "note": 78,
      "start": 20.7775,
      "duration": 0.0868,
      "velocity": 95,
      "chip": "ym2612"
    },
    {
      "channel": 1,
      "note": 81,
      "start": 20.7778,
      "duration": 0.0868,
      "velocity": 95,
      "chip": "ym2612"
    },
    {
      "channel": 2,
      "note": 90,
      "start": 20.778,
      "duration": 0.0868,
      "velocity": 90,
      "chip": "ym2612"
    },
    {
      "channel": 3,
      "note": 90,
      "start": 20.8212,
      "duration": 0.0639,
      "velocity": 90,
      "chip": "ym2612"
    },
    {
      "channel": 0,
      "note": 76,
      "start": 20.8644,
      "duration": 0.1784,
      "velocity": 95,
      "chip": "ym2612"
    },
    {
      "channel": 1,
      "note": 78,
      "start": 20.8647,
      "duration": 0.1784,
      "velocity": 95,
      "chip": "ym2612"
    },
    {
      "channel": 2,
      "note": 88,
      "start": 20.8649,
      "duration": 0.1784,
      "velocity": 90,
      "chip": "ym2612"
    },
    {
      "channel": 4,
      "note": 59,
      "start": 20.8653,
      "duration": 0.1784,
      "velocity": 95,
      "chip": "ym2612"
    },
    {
      "channel": 3,
      "note": 88,
      "start": 20.8852,
      "duration": 0.2013,
      "velocity": 90,
      "chip": "ym2612"
    },
    {
      "channel": 0,
      "note": 69,
      "start": 21.043,
      "duration": 0.2191,
      "velocity": 95,
      "chip": "ym2612"
    },
    {
      "channel": 1,
      "note": 76,
      "start": 21.0432,
      "duration": 0.2191,
      "velocity": 95,
      "chip": "ym2612"
    },
    {
      "channel": 2,
      "note": 81,
      "start": 21.0435,
      "duration": 0.2191,
      "velocity": 90,
      "chip": "ym2612"
    },
    {
      "channel": 4,
      "note": 61,
      "start": 21.0438,
      "duration": 0.2192,
      "velocity": 95,
      "chip": "ym2612"
    },
    {
      "channel": 3,
      "note": 81,
      "start": 21.0867,
      "duration": 0.3545,
      "velocity": 90,
      "chip": "ym2612"
    },
    {
      "channel": 0,
      "note": 74,
      "start": 21.2622,
      "duration": 0.3976,
      "velocity": 95,
      "chip": "ym2612"
    },
    {
      "channel": 1,
      "note": 69,
      "start": 21.2624,
      "duration": 0.1782,
      "velocity": 95,
      "chip": "ym2612"
    },
    {
      "channel": 2,
      "note": 86,
      "start": 21.2628,
      "duration": 0.02,
      "velocity": 90,
      "chip": "ym2612"
    },
    {
      "channel": 4,
      "note": 62,
      "start": 21.2632,
      "duration": 0.1784,
      "velocity": 95,
      "chip": "ym2612"
    },
    {
      "channel": 2,
      "note": 91,
      "start": 21.2829,
      "duration": 0.158,
      "velocity": 90,
      "chip": "ym2612"
    },
    {
      "channel": 1,
      "note": 74,
      "start": 21.4408,
      "duration": 0.3977,
      "velocity": 95,
      "chip": "ym2612"
    },
    {
      "channel": 2,
      "note": 93,
      "start": 21.4411,
      "duration": 0.219,
      "velocity": 90,
      "chip": "ym2612"
    },
    {
      "channel": 3,
      "note": 86,
      "start": 21.4415,
      "duration": 0.0428,
      "velocity": 90,
      "chip": "ym2612"
    },
    {
      "channel": 4,
      "note": 61,
      "start": 21.4417,
      "duration": 0.219,
      "velocity": 95,
      "chip": "ym2612"
    },
    {
      "channel": 3,
      "note": 91,
      "start": 21.4844,
      "duration": 0.1761,
      "velocity": 90,
      "chip": "ym2612"
    },
    {
      "channel": 0,
      "note": 69,
      "start": 21.66,
      "duration": 0.1783,
      "velocity": 95,
      "chip": "ym2612"
    },
    {
      "channel": 2,
      "note": 86,
      "start": 21.6604,
      "duration": 0.0202,
      "velocity": 90,
      "chip": "ym2612"
    },
    {
      "channel": 3,
      "note": 93,
      "start": 21.6606,
      "duration": 0.1784,
      "velocity": 90,
      "chip": "ym2612"
    },
    {
      "channel": 4,
      "note": 59,
      "start": 21.6609,
      "duration": 0.1785,
      "velocity": 95,
      "chip": "ym2612"
    },
    {
      "channel": 2,
      "note": 91,
      "start": 21.6807,
      "duration": 0.158,
      "velocity": 90,
      "chip": "ym2612"
    },
    {
      "channel": 0,
      "note": 74,
      "start": 21.8384,
      "duration": 0.3976,
      "velocity": 95,
      "chip": "ym2612"
    },
    {
      "channel": 1,
      "note": 69,
      "start": 21.8387,
      "duration": 0.2189,
      "velocity": 95,
      "chip": "ym2612"
    },
    {
      "channel": 2,
      "note": 93,
      "start": 21.8389,
      "duration": 0.2189,
      "velocity": 90,
      "chip": "ym2612"
    },
    {
      "channel": 3,
      "note": 86,
      "start": 21.8393,
      "duration": 0.0427,
      "velocity": 90,
      "chip": "ym2612"
    },
    {
      "channel": 4,
      "note": 54,
      "start": 21.8396,
      "duration": 0.4846,
      "velocity": 95,
      "chip": "ym2612"
    },
    {
      "channel": 3,
      "note": 91,
      "start": 21.8821,
      "duration": 0.1761,
      "velocity": 90,
      "chip": "ym2612"
    },
    {
      "channel": 1,
      "note": 74,
      "start": 22.0577,
      "duration": 0.2656,
      "velocity": 95,
      "chip": "ym2612"
    },
    {
      "channel": 2,
      "note": 86,
      "start": 22.0581,
      "duration": 0.0201,
      "velocity": 90,
      "chip": "ym2612"
    },
    {
      "channel": 3,
      "note": 93,
      "start": 22.0583,
      "duration": 0.1783,
      "velocity": 90,
      "chip": "ym2612"
    },
    {
      "channel": 2,
      "note": 91,
      "start": 22.0783,
      "duration": 0.158,
      "velocity": 90,
      "chip": "ym2612"
    },
    {
      "channel": 0,
      "note": 69,
      "start": 22.2362,
      "duration": 0.0868,
      "velocity": 95,
      "chip": "ym2612"
    },
    {
      "channel": 2,
      "note": 93,
      "start": 22.2365,
      "duration": 0.087,
      "velocity": 90,
      "chip": "ym2612"
    },
    {
      "channel": 3,
      "note": 86,
      "start": 22.2369,
      "duration": 0.0429,
      "velocity": 90,
      "chip": "ym2612"
    },
    {
      "channel": 3,
      "note": 91,
      "start": 22.2799,
      "duration": 0.044,
      "velocity": 90,
      "chip": "ym2612"
    },
    {
      "channel": 0,
      "note": 74,
      "start": 22.3232,
      "duration": 0.1784,
      "velocity": 95,
      "chip": "ym2612"
    },
    {
      "channel": 1,
      "note": 69,
      "start": 22.3234,
      "duration": 0.1784,
      "velocity": 95,
      "chip": "ym2612"
    },
    {
      "channel": 2,
      "note": 86,
      "start": 22.3238,
      "duration": 0.0202,
      "velocity": 90,
      "chip": "ym2612"
    },
    {
      "channel": 3,
      "note": 93,
      "start": 22.324,
      "duration": 0.1783,
      "velocity": 90,
      "chip": "ym2612"
    },
    {
      "channel": 4,
      "note": 55,
      "start": 22.3243,
      "duration": 0.1784,
      "velocity": 95,
      "chip": "ym2612"
    },
    {
      "channel": 2,
      "note": 91,
      "start": 22.3441,
      "duration": 0.158,
      "velocity": 90,
      "chip": "ym2612"
    },
    {
      "channel": 0,
      "note": 78,
      "start": 22.5017,
      "duration": 0.2191,
      "velocity": 95,
      "chip": "ym2612"
    },
    {
      "channel": 1,
      "note": 74,
      "start": 22.502,
      "duration": 0.2191,
      "velocity": 95,
      "chip": "ym2612"
    },
    {
      "channel": 2,
      "note": 93,
      "start": 22.5022,
      "duration": 0.2191,
      "velocity": 90,
      "chip": "ym2612"
    },
    {
      "channel": 3,
      "note": 86,
      "start": 22.5026,
      "duration": 0.0427,
      "velocity": 90,
      "chip": "ym2612"
    },
    {
      "channel": 4,
      "note": 54,
      "start": 22.5029,
      "duration": 0.219,
      "velocity": 95,
      "chip": "ym2612"
    },
    {
      "channel": 3,
      "note": 91,
      "start": 22.5454,
      "duration": 0.1763,
      "velocity": 90,
      "chip": "ym2612"
    },
    {
      "channel": 0,
      "note": 79,
      "start": 22.7209,
      "duration": 0.1784,
      "velocity": 95,
      "chip": "ym2612"
    },
    {
      "channel": 1,
      "note": 78,
      "start": 22.7212,
      "duration": 0.1784,
      "velocity": 95,
      "chip": "ym2612"
    },
    {
      "channel": 2,
      "note": 86,
      "start": 22.7215,
      "duration": 0.0203,
      "velocity": 90,
      "chip": "ym2612"
    },
    {
      "channel": 3,
      "note": 93,
      "start": 22.7218,
      "duration": 0.1783,
      "velocity": 90,
      "chip": "ym2612"
    },
    {
      "channel": 4,
      "note": 52,
      "start": 22.7221,
      "duration": 0.1783,
      "velocity": 95,
      "chip": "ym2612"
    },
    {
      "channel": 2,
      "note": 91,
      "start": 22.742,
      "duration": 0.1578,
      "velocity": 90,
      "chip": "ym2612"
    },
    {
      "channel": 0,
      "note": 74,
      "start": 22.8994,
      "duration": 0.219,
      "velocity": 95,
      "chip": "ym2612"
    },
    {
      "channel": 1,
      "note": 79,
      "start": 22.8997,
      "duration": 0.219,
      "velocity": 95,
      "chip": "ym2612"
    },
    {
      "channel": 2,
      "note": 93,
      "start": 22.8999,
      "duration": 0.219,
      "velocity": 90,
      "chip": "ym2612"
    },
    {
      "channel": 3,
      "note": 86,
      "start": 22.9003,
      "duration": 0.0427,
      "velocity": 90,
      "chip": "ym2612"
    },
    {
      "channel": 3,
      "note": 91,
      "start": 22.9431,
      "duration": 0.1763,
      "velocity": 90,
      "chip": "ym2612"
    },
    {
      "channel": 0,
      "note": 79,
      "start": 23.1186,
      "duration": 0.0868,
      "velocity": 95,
      "chip": "ym2612"
    },
    {
      "channel": 1,
      "note": 74,
      "start": 23.1189,
      "duration": 0.0868,
      "velocity": 95,
      "chip": "ym2612"
    },
    {
      "channel": 2,
      "note": 86,
      "start": 23.1193,
      "duration": 0.02,
      "velocity": 90,
      "chip": "ym2612"
    },
    {
      "channel": 3,
      "note": 93,
      "start": 23.1195,
      "duration": 0.0867,
      "velocity": 90,
      "chip": "ym2612"
    },
    {
      "channel": 2,
      "note": 91,
      "start": 23.1393,
      "duration": 0.0666,
      "velocity": 90,
      "chip": "ym2612"
    },
    {
      "channel": 0,
      "note": 74,
      "start": 23.2056,
      "duration": 0.1956,
      "velocity": 95,
      "chip": "ym2612"
    },
    {
      "channel": 1,
      "note": 79,
      "start": 23.2058,
      "duration": 0.1956,
      "velocity": 95,
      "chip": "ym2612"
    },
    {
      "channel": 2,
      "note": 93,
      "start": 23.2061,
      "duration": 0.1956,
      "velocity": 90,
      "chip": "ym2612"
    },
    {
      "channel": 3,
      "note": 86,
      "start": 23.2064,
      "duration": 0.1749,
      "velocity": 90,
      "chip": "ym2612"
    },
    {
      "channel": 4,
      "note": 57,
      "start": 23.2067,
      "duration": 0.6989,
      "velocity": 95,
      "chip": "ym2612"
    },
    {
      "channel": 3,
      "note": 91,
      "start": 23.3815,
      "duration": 0.0206,
      "velocity": 90,
      "chip": "ym2612"
    },
    {
      "channel": 0,
      "note": 86,
      "start": 23.4013,
      "duration": 0.2426,
      "velocity": 95,
      "chip": "ym2612"
    },
    {
      "channel": 1,
      "note": 74,
      "start": 23.4015,
      "duration": 0.2426,
      "velocity": 95,
      "chip": "ym2612"
    },
    {
      "channel": 2,
      "note": 98,
      "start": 23.4019,
      "duration": 0.2424,
      "velocity": 90,
      "chip": "ym2612"
    },
    {
      "channel": 3,
      "note": 93,
      "start": 23.4022,
      "duration": 0.0662,
      "velocity": 90,
      "chip": "ym2612"
    },
    {
      "channel": 3,
      "note": 98,
      "start": 23.4686,
      "duration": 0.1958,
      "velocity": 90,
      "chip": "ym2612"
    },
    {
      "channel": 0,
      "note": 85,
      "start": 23.644,
      "duration": 0.0868,
      "velocity": 95,
      "chip": "ym2612"
    },
    {
      "channel": 1,
      "note": 86,
      "start": 23.6443,
      "duration": 0.0868,
      "velocity": 95,
      "chip": "ym2612"
    },
    {
      "channel": 2,
      "note": 97,
      "start": 23.6445,
      "duration": 0.0868,
      "velocity": 90,
      "chip": "ym2612"
    },
    {
      "channel": 3,
      "note": 97,
      "start": 23.6646,
      "duration": 0.0868,
      "velocity": 90,
      "chip": "ym2612"
    },
    {
      "channel": 0,
      "note": 83,
      "start": 23.731,
      "duration": 0.0868,
      "velocity": 95,
      "chip": "ym2612"
    },
    {
      "channel": 1,
      "note": 85,
      "start": 23.7312,
      "duration": 0.0868,
      "velocity": 95,
      "chip": "ym2612"
    },
    {
      "channel": 2,
      "note": 95,
      "start": 23.7315,
      "duration": 0.0868,
      "velocity": 90,
      "chip": "ym2612"
    },
    {
      "channel": 3,
      "note": 95,
      "start": 23.7515,
      "duration": 0.0871,
      "velocity": 90,
      "chip": "ym2612"
    },
    {
      "channel": 0,
      "note": 81,
      "start": 23.818,
      "duration": 0.0869,
      "velocity": 95,
      "chip": "ym2612"
    },
    {
      "channel": 1,
      "note": 83,
      "start": 23.8182,
      "duration": 0.2652,
      "velocity": 95,
      "chip": "ym2612"
    },
    {
      "channel": 2,
      "note": 93,
      "start": 23.8185,
      "duration": 0.0867,
      "velocity": 90,
      "chip": "ym2612"
    },
    {
      "channel": 3,
      "note": 93,
      "start": 23.8387,
      "duration": 0.2451,
      "velocity": 90,
      "chip": "ym2612"
    },
    {
      "channel": 0,
      "note": 74,
      "start": 23.905,
      "duration": 0.0205,
      "velocity": 95,
      "chip": "ym2612"
    },
    {
      "channel": 2,
      "note": 93,
      "start": 23.9054,
      "duration": 0.3973,
      "velocity": 90,
      "chip": "ym2612"
    },
    {
      "channel": 4,
      "note": 50,
      "start": 23.9059,
      "duration": 0.1782,
      "velocity": 95,
      "chip": "ym2612"
    },
    {
      "channel": 1,
      "note": 74,
      "start": 24.0836,
      "duration": 0.0434,
      "velocity": 95,
      "chip": "ym2612"
    },
    {
      "channel": 3,
      "note": 93,
      "start": 24.0841,
      "duration": 0.3974,
      "velocity": 90,
      "chip": "ym2612"
    },
    {
      "channel": 0,
      "note": 81,
      "start": 24.127,
      "duration": 0.1755,
      "velocity": 95,
      "chip": "ym2612"
    },
    {
      "channel": 2,
      "note": 93,
      "start": 24.303,
      "duration": 0.3978,
      "velocity": 90,
      "chip": "ym2612"
    },
    {
      "channel": 1,
      "note": 81,
      "start": 24.3229,
      "duration": 0.1584,
      "velocity": 95,
      "chip": "ym2612"
    },
    {
      "channel": 0,
      "note": 76,
      "start": 24.4812,
      "duration": 0.0434,
      "velocity": 95,
      "chip": "ym2612"
    },
    {
      "channel": 3,
      "note": 93,
      "start": 24.4818,
      "duration": 0.3975,
      "velocity": 90,
      "chip": "ym2612"
    },
    {
      "channel": 4,
      "note": 50,
      "start": 24.482,
      "duration": 0.2192,
      "velocity": 95,
      "chip": "ym2612"
    },
    {
      "channel": 0,
      "note": 69,
      "start": 24.5247,
      "duration": 0.1756,
      "velocity": 95,
      "chip": "ym2612"
    },
    {
      "channel": 0,
      "note": 74,
      "start": 24.7005,
      "duration": 0.0202,
      "velocity": 95,
      "chip": "ym2612"
    },
    {
      "channel": 1,
      "note": 76,
      "start": 24.7007,
      "duration": 0.0201,
      "velocity": 95,
      "chip": "ym2612"
    },
    {
      "channel": 2,
      "note": 93,
      "start": 24.7011,
      "duration": 0.3971,
      "velocity": 90,
      "chip": "ym2612"
    },
    {
      "channel": 1,
      "note": 69,
      "start": 24.721,
      "duration": 0.158,
      "velocity": 95,
      "chip": "ym2612"
    },
    {
      "channel": 1,
      "note": 74,
      "start": 24.8791,
      "duration": 0.0434,
      "velocity": 95,
      "chip": "ym2612"
    },
    {
      "channel": 3,
      "note": 93,
      "start": 24.8795,
      "duration": 0.3975,
      "velocity": 90,
      "chip": "ym2612"
    },
    {
      "channel": 0,
      "note": 81,
      "start": 24.9225,
      "duration": 0.1755,
      "velocity": 95,
      "chip": "ym2612"
    },
    {
      "channel": 2,
      "note": 93,
      "start": 25.0985,
      "duration": 22.5242,
      "velocity": 90,
      "chip": "ym2612"
    },
    {
      "channel": 1,
      "note": 81,
      "start": 25.1185,
      "duration": 0.1583,
      "velocity": 95,
      "chip": "ym2612"
    },
    {
      "channel": 0,
      "note": 76,
      "start": 25.2767,
      "duration": 22.346,
      "velocity": 95,
      "chip": "ym2612"
    },
    {
      "channel": 3,
      "note": 93,
      "start": 25.2773,
      "duration": 22.3454,
      "velocity": 90,
      "chip": "ym2612"
    }
  ]
}