{
  "track_name": "06 - Ice Boss Tune",
  "duration_sec": 98.899,
  "sample_rate": 44100,
  "note_count": 1690,
  "unique_pitches": 12,
  "pitch_range": 31,
  "avg_note_duration": 0.0991,
  "reconstruction_stats": {
    "notes_reconstructed": 1690,
    "keyon_events": 1690,
    "keyoff_events": 1690,
    "orphan_keyons": 0,
    "unique_pitches": 12,
    "pitch_range": 31,
    "avg_duration_sec": 0.0991
  },
  "metadata": {
    "source": "G\\Global Gladiators\\06 - Ice Boss Tune.vgm"
  },
  "notes": [
    {
      "channel": 5,
      "note": 50,
      "start": 0.0055,
      "duration": 0.0282,
      "velocity": 98,
      "chip": "ym2612"
    },
    {
      "channel": 0,
      "note": 45,
      "start": 0.0102,
      "duration": 0.1398,
      "velocity": 127,
      "chip": "ym2612"
    },
    {
      "channel": 1,
      "note": 45,
      "start": 0.0175,
      "duration": 0.3795,
      "velocity": 86,
      "chip": "ym2612"
    },
    {
      "channel": 3,
      "note": 50,
      "start": 0.0224,
      "duration": 0.3746,
      "velocity": 86,
      "chip": "ym2612"
    },
    {
      "channel": 5,
      "note": 50,
      "start": 0.1532,
      "duration": 0.0805,
      "velocity": 98,
      "chip": "ym2612"
    },
    {
      "channel": 5,
      "note": 50,
      "start": 0.3197,
      "duration": 0.0021,
      "velocity": 98,
      "chip": "ym2612"
    },
    {
      "channel": 4,
      "note": 50,
      "start": 0.3859,
      "duration": 0.0299,
      "velocity": 98,
      "chip": "ym2612"
    },
    {
      "channel": 4,
      "note": 53,
      "start": 0.4698,
      "duration": 0.0808,
      "velocity": 98,
      "chip": "ym2612"
    },
    {
      "channel": 0,
      "note": 45,
      "start": 0.4724,
      "duration": 0.078,
      "velocity": 127,
      "chip": "ym2612"
    },
    {
      "channel": 1,
      "note": 53,
      "start": 0.4753,
      "duration": 0.4353,
      "velocity": 86,
      "chip": "ym2612"
    },
    {
      "channel": 3,
      "note": 48,
      "start": 0.4779,
      "duration": 0.4563,
      "velocity": 86,
      "chip": "ym2612"
    },
    {
      "channel": 4,
      "note": 53,
      "start": 0.637,
      "duration": 0.0635,
      "velocity": 98,
      "chip": "ym2612"
    },
    {
      "channel": 0,
      "note": 45,
      "start": 0.6397,
      "duration": 0.144,
      "velocity": 127,
      "chip": "ym2612"
    },
    {
      "channel": 4,
      "note": 53,
      "start": 0.8034,
      "duration": 0.0324,
      "velocity": 98,
      "chip": "ym2612"
    },
    {
      "channel": 4,
      "note": 53,
      "start": 0.8682,
      "duration": 0.0306,
      "velocity": 98,
      "chip": "ym2612"
    },
    {
      "channel": 0,
      "note": 45,
      "start": 0.8706,
      "duration": 0.0633,
      "velocity": 127,
      "chip": "ym2612"
    },
    {
      "channel": 4,
      "note": 52,
      "start": 0.9535,
      "duration": 0.0807,
      "velocity": 98,
      "chip": "ym2612"
    },
    {
      "channel": 1,
      "note": 52,
      "start": 0.9564,
      "duration": 0.4256,
      "velocity": 86,
      "chip": "ym2612"
    },
    {
      "channel": 3,
      "note": 47,
      "start": 0.9591,
      "duration": 0.4162,
      "velocity": 86,
      "chip": "ym2612"
    },
    {
      "channel": 4,
      "note": 52,
      "start": 1.1201,
      "duration": 0.0808,
      "velocity": 98,
      "chip": "ym2612"
    },
    {
      "channel": 0,
      "note": 45,
      "start": 1.1224,
      "duration": 0.1449,
      "velocity": 127,
      "chip": "ym2612"
    },
    {
      "channel": 4,
      "note": 52,
      "start": 1.287,
      "duration": 0.0263,
      "velocity": 98,
      "chip": "ym2612"
    },
    {
      "channel": 4,
      "note": 52,
      "start": 1.3518,
      "duration": 0.0303,
      "velocity": 98,
      "chip": "ym2612"
    },
    {
      "channel": 0,
      "note": 45,
      "start": 1.3542,
      "duration": 0.0278,
      "velocity": 127,
      "chip": "ym2612"
    },
    {
      "channel": 4,
      "note": 57,
      "start": 1.4371,
      "duration": 0.0639,
      "velocity": 98,
      "chip": "ym2612"
    },
    {
      "channel": 0,
      "note": 45,
      "start": 1.4394,
      "duration": 0.078,
      "velocity": 127,
      "chip": "ym2612"
    },
    {
      "channel": 1,
      "note": 45,
      "start": 1.4422,
      "duration": 0.445,
      "velocity": 86,
      "chip": "ym2612"
    },
    {
      "channel": 3,
      "note": 57,
      "start": 1.4447,
      "duration": 0.424,
      "velocity": 86,
      "chip": "ym2612"
    },
    {
      "channel": 4,
      "note": 57,
      "start": 1.6036,
      "duration": 0.0639,
      "velocity": 98,
      "chip": "ym2612"
    },
    {
      "channel": 0,
      "note": 45,
      "start": 1.6062,
      "duration": 0.1112,
      "velocity": 127,
      "chip": "ym2612"
    },
    {
      "channel": 4,
      "note": 57,
      "start": 1.787,
      "duration": 0.0319,
      "velocity": 98,
      "chip": "ym2612"
    },
    {
      "channel": 4,
      "note": 57,
      "start": 1.8516,
      "duration": 0.0291,
      "velocity": 98,
      "chip": "ym2612"
    },
    {
      "channel": 4,
      "note": 50,
      "start": 1.9376,
      "duration": 0.0804,
      "velocity": 98,
      "chip": "ym2612"
    },
    {
      "channel": 0,
      "note": 45,
      "start": 1.9402,
      "duration": 0.1276,
      "velocity": 127,
      "chip": "ym2612"
    },
    {
      "channel": 1,
      "note": 50,
      "start": 1.9434,
      "duration": 0.4209,
      "velocity": 86,
      "chip": "ym2612"
    },
    {
      "channel": 3,
      "note": 45,
      "start": 1.9458,
      "duration": 0.4064,
      "velocity": 86,
      "chip": "ym2612"
    },
    {
      "channel": 4,
      "note": 50,
      "start": 2.104,
      "duration": 0.0806,
      "velocity": 98,
      "chip": "ym2612"
    },
    {
      "channel": 4,
      "note": 50,
      "start": 2.2706,
      "duration": 0.0319,
      "velocity": 98,
      "chip": "ym2612"
    },
    {
      "channel": 4,
      "note": 50,
      "start": 2.335,
      "duration": 0.0294,
      "velocity": 98,
      "chip": "ym2612"
    },
    {
      "channel": 4,
      "note": 53,
      "start": 2.4211,
      "duration": 0.0808,
      "velocity": 98,
      "chip": "ym2612"
    },
    {
      "channel": 0,
      "note": 45,
      "start": 2.4237,
      "duration": 0.0779,
      "velocity": 127,
      "chip": "ym2612"
    },
    {
      "channel": 1,
      "note": 53,
      "start": 2.4265,
      "duration": 0.435,
      "velocity": 86,
      "chip": "ym2612"
    },
    {
      "channel": 3,
      "note": 48,
      "start": 2.4295,
      "duration": 0.4321,
      "velocity": 86,
      "chip": "ym2612"
    },
    {
      "channel": 4,
      "note": 53,
      "start": 2.5879,
      "duration": 0.0472,
      "velocity": 98,
      "chip": "ym2612"
    },
    {
      "channel": 0,
      "note": 45,
      "start": 2.5909,
      "duration": 0.1273,
      "velocity": 127,
      "chip": "ym2612"
    },
    {
      "channel": 4,
      "note": 53,
      "start": 2.7546,
      "duration": 0.0321,
      "velocity": 98,
      "chip": "ym2612"
    },
    {
      "channel": 4,
      "note": 53,
      "start": 2.8199,
      "duration": 0.0302,
      "velocity": 98,
      "chip": "ym2612"
    },
    {
      "channel": 0,
      "note": 45,
      "start": 2.8219,
      "duration": 0.0395,
      "velocity": 127,
      "chip": "ym2612"
    },
    {
      "channel": 4,
      "note": 52,
      "start": 2.9039,
      "duration": 0.0806,
      "velocity": 98,
      "chip": "ym2612"
    },
    {
      "channel": 1,
      "note": 52,
      "start": 2.9068,
      "duration": 0.4249,
      "velocity": 86,
      "chip": "ym2612"
    },
    {
      "channel": 3,
      "note": 47,
      "start": 2.9095,
      "duration": 0.4222,
      "velocity": 86,
      "chip": "ym2612"
    },
    {
      "channel": 4,
      "note": 52,
      "start": 3.0705,
      "duration": 0.0807,
      "velocity": 98,
      "chip": "ym2612"
    },
    {
      "channel": 0,
      "note": 45,
      "start": 3.0728,
      "duration": 0.1115,
      "velocity": 127,
      "chip": "ym2612"
    },
    {
      "channel": 4,
      "note": 52,
      "start": 3.2373,
      "duration": 0.0322,
      "velocity": 98,
      "chip": "ym2612"
    },
    {
      "channel": 4,
      "note": 52,
      "start": 3.3021,
      "duration": 0.0297,
      "velocity": 98,
      "chip": "ym2612"
    },
    {
      "channel": 0,
      "note": 45,
      "start": 3.3045,
      "duration": 0.027,
      "velocity": 127,
      "chip": "ym2612"
    },
    {
      "channel": 4,
      "note": 45,
      "start": 3.3866,
      "duration": 0.0807,
      "velocity": 98,
      "chip": "ym2612"
    },
    {
      "channel": 0,
      "note": 45,
      "start": 3.3889,
      "duration": 0.0781,
      "velocity": 127,
      "chip": "ym2612"
    },
    {
      "channel": 1,
      "note": 57,
      "start": 3.3917,
      "duration": 0.4186,
      "velocity": 86,
      "chip": "ym2612"
    },
    {
      "channel": 3,
      "note": 45,
      "start": 3.3943,
      "duration": 0.4347,
      "velocity": 86,
      "chip": "ym2612"
    },
    {
      "channel": 4,
      "note": 45,
      "start": 3.5533,
      "duration": 0.0807,
      "velocity": 98,
      "chip": "ym2612"
    },
    {
      "channel": 0,
      "note": 45,
      "start": 3.5559,
      "duration": 0.1111,
      "velocity": 127,
      "chip": "ym2612"
    },
    {
      "channel": 4,
      "note": 45,
      "start": 3.7202,
      "duration": 0.0321,
      "velocity": 98,
      "chip": "ym2612"
    },
    {
      "channel": 4,
      "note": 45,
      "start": 3.7852,
      "duration": 0.0316,
      "velocity": 98,
      "chip": "ym2612"
    },
    {
      "channel": 4,
      "note": 50,
      "start": 3.8507,
      "duration": 0.0318,
      "velocity": 98,
      "chip": "ym2612"
    },
    {
      "channel": 0,
      "note": 45,
      "start": 3.8529,
      "duration": 0.0614,
      "velocity": 127,
      "chip": "ym2612"
    },
    {
      "channel": 1,
      "note": 50,
      "start": 3.8551,
      "duration": 0.3401,
      "velocity": 86,
      "chip": "ym2612"
    },
    {
      "channel": 3,
      "note": 45,
      "start": 3.8582,
      "duration": 0.3371,
      "velocity": 86,
      "chip": "ym2612"
    },
    {
      "channel": 4,
      "note": 50,
      "start": 3.9337,
      "duration": 0.0807,
      "velocity": 98,
      "chip": "ym2612"
    },
    {
      "channel": 4,
      "note": 50,
      "start": 4.1004,
      "duration": 0.0322,
      "velocity": 98,
      "chip": "ym2612"
    },
    {
      "channel": 4,
      "note": 50,
      "start": 4.1657,
      "duration": 0.0296,
      "velocity": 98,
      "chip": "ym2612"
    },
    {
      "channel": 4,
      "note": 53,
      "start": 4.2511,
      "duration": 0.0808,
      "velocity": 98,
      "chip": "ym2612"
    },
    {
      "channel": 0,
      "note": 45,
      "start": 4.2541,
      "duration": 0.0776,
      "velocity": 127,
      "chip": "ym2612"
    },
    {
      "channel": 1,
      "note": 48,
      "start": 4.2568,
      "duration": 0.429,
      "velocity": 86,
      "chip": "ym2612"
    },
    {
      "channel": 3,
      "note": 53,
      "start": 4.2594,
      "duration": 0.4328,
      "velocity": 86,
      "chip": "ym2612"
    },
    {
      "channel": 4,
      "note": 53,
      "start": 4.4179,
      "duration": 0.0806,
      "velocity": 98,
      "chip": "ym2612"
    },
    {
      "channel": 0,
      "note": 45,
      "start": 4.4205,
      "duration": 0.1445,
      "velocity": 127,
      "chip": "ym2612"
    },
    {
      "channel": 4,
      "note": 53,
      "start": 4.5845,
      "duration": 0.0327,
      "velocity": 98,
      "chip": "ym2612"
    },
    {
      "channel": 4,
      "note": 53,
      "start": 4.6501,
      "duration": 0.0358,
      "velocity": 98,
      "chip": "ym2612"
    },
    {
      "channel": 0,
      "note": 45,
      "start": 4.6522,
      "duration": 0.0399,
      "velocity": 127,
      "chip": "ym2612"
    },
    {
      "channel": 4,
      "note": 52,
      "start": 4.7519,
      "duration": 0.0806,
      "velocity": 98,
      "chip": "ym2612"
    },
    {
      "channel": 1,
      "note": 52,
      "start": 4.7546,
      "duration": 0.4253,
      "velocity": 86,
      "chip": "ym2612"
    },
    {
      "channel": 3,
      "note": 47,
      "start": 4.7573,
      "duration": 0.4227,
      "velocity": 86,
      "chip": "ym2612"
    },
    {
      "channel": 4,
      "note": 52,
      "start": 4.9185,
      "duration": 0.0807,
      "velocity": 98,
      "chip": "ym2612"
    },
    {
      "channel": 0,
      "note": 45,
      "start": 4.9208,
      "duration": 0.095,
      "velocity": 127,
      "chip": "ym2612"
    },
    {
      "channel": 4,
      "note": 52,
      "start": 5.0852,
      "duration": 0.0319,
      "velocity": 98,
      "chip": "ym2612"
    },
    {
      "channel": 4,
      "note": 52,
      "start": 5.1495,
      "duration": 0.0306,
      "velocity": 98,
      "chip": "ym2612"
    },
    {
      "channel": 0,
      "note": 45,
      "start": 5.1517,
      "duration": 0.0282,
      "velocity": 127,
      "chip": "ym2612"
    },
    {
      "channel": 4,
      "note": 57,
      "start": 5.2352,
      "duration": 0.0807,
      "velocity": 98,
      "chip": "ym2612"
    },
    {
      "channel": 0,
      "note": 45,
      "start": 5.2375,
      "duration": 0.0781,
      "velocity": 127,
      "chip": "ym2612"
    },
    {
      "channel": 1,
      "note": 57,
      "start": 5.2403,
      "duration": 0.4368,
      "velocity": 86,
      "chip": "ym2612"
    },
    {
      "channel": 3,
      "note": 45,
      "start": 5.2429,
      "duration": 0.4343,
      "velocity": 86,
      "chip": "ym2612"
    },
    {
      "channel": 4,
      "note": 57,
      "start": 5.4018,
      "duration": 0.0807,
      "velocity": 98,
      "chip": "ym2612"
    },
    {
      "channel": 0,
      "note": 45,
      "start": 5.4045,
      "duration": 0.0945,
      "velocity": 127,
      "chip": "ym2612"
    },
    {
      "channel": 4,
      "note": 57,
      "start": 5.569,
      "duration": 0.0193,
      "velocity": 98,
      "chip": "ym2612"
    },
    {
      "channel": 4,
      "note": 57,
      "start": 5.6339,
      "duration": 0.0185,
      "velocity": 98,
      "chip": "ym2612"
    },
    {
      "channel": 4,
      "note": 57,
      "start": 5.6986,
      "duration": 0.02,
      "velocity": 98,
      "chip": "ym2612"
    },
    {
      "channel": 0,
      "note": 45,
      "start": 5.701,
      "duration": 0.0298,
      "velocity": 127,
      "chip": "ym2612"
    },
    {
      "channel": 1,
      "note": 57,
      "start": 5.7048,
      "duration": 1.8465,
      "velocity": 86,
      "chip": "ym2612"
    },
    {
      "channel": 3,
      "note": 45,
      "start": 5.7075,
      "duration": 0.0719,
      "velocity": 86,
      "chip": "ym2612"
    },
    {
      "channel": 4,
      "note": 55,
      "start": 5.7823,
      "duration": 0.0804,
      "velocity": 98,
      "chip": "ym2612"
    },
    {
      "channel": 0,
      "note": 45,
      "start": 5.785,
      "duration": 0.111,
      "velocity": 127,
      "chip": "ym2612"
    },
    {
      "channel": 3,
      "note": 55,
      "start": 5.7878,
      "duration": 0.1583,
      "velocity": 86,
      "chip": "ym2612"
    },
    {
      "channel": 4,
      "note": 53,
      "start": 5.9488,
      "duration": 0.0335,
      "velocity": 98,
      "chip": "ym2612"
    },
    {
      "channel": 3,
      "note": 53,
      "start": 5.9553,
      "duration": 0.0461,
      "velocity": 86,
      "chip": "ym2612"
    },
    {
      "channel": 4,
      "note": 52,
      "start": 6.016,
      "duration": 0.032,
      "velocity": 98,
      "chip": "ym2612"
    },
    {
      "channel": 0,
      "note": 45,
      "start": 6.0185,
      "duration": 0.0294,
      "velocity": 127,
      "chip": "ym2612"
    },
    {
      "channel": 3,
      "note": 52,
      "start": 6.021,
      "duration": 0.0456,
      "velocity": 86,
      "chip": "ym2612"
    },
    {
      "channel": 4,
      "note": 57,
      "start": 6.1013,
      "duration": 0.0807,
      "velocity": 98,
      "chip": "ym2612"
    },
    {
      "channel": 0,
      "note": 45,
      "start": 6.1037,
      "duration": 0.0781,
      "velocity": 127,
      "chip": "ym2612"
    },
    {
      "channel": 3,
      "note": 57,
      "start": 6.1066,
      "duration": 0.1587,
      "velocity": 86,
      "chip": "ym2612"
    },
    {
      "channel": 4,
      "note": 55,
      "start": 6.2683,
      "duration": 0.0471,
      "velocity": 98,
      "chip": "ym2612"
    },
    {
      "channel": 0,
      "note": 45,
      "start": 6.2709,
      "duration": 0.1276,
      "velocity": 127,
      "chip": "ym2612"
    },
    {
      "channel": 3,
      "note": 55,
      "start": 6.2737,
      "duration": 0.1583,
      "velocity": 86,
      "chip": "ym2612"
    },
    {
      "channel": 4,
      "note": 53,
      "start": 6.435,
      "duration": 0.0333,
      "velocity": 98,
      "chip": "ym2612"
    },
    {
      "channel": 3,
      "note": 53,
      "start": 6.4411,
      "duration": 0.0459,
      "velocity": 86,
      "chip": "ym2612"
    },
    {
      "channel": 4,
      "note": 52,
      "start": 6.5017,
      "duration": 0.0316,
      "velocity": 98,
      "chip": "ym2612"
    },
    {
      "channel": 0,
      "note": 45,
      "start": 6.5039,
      "duration": 0.0293,
      "velocity": 127,
      "chip": "ym2612"
    },
    {
      "channel": 3,
      "note": 52,
      "start": 6.5063,
      "duration": 0.0457,
      "velocity": 86,
      "chip": "ym2612"
    },
    {
      "channel": 4,
      "note": 57,
      "start": 6.5855,
      "duration": 0.0639,
      "velocity": 98,
      "chip": "ym2612"
    },
    {
      "channel": 0,
      "note": 45,
      "start": 6.5878,
      "duration": 0.0781,
      "velocity": 127,
      "chip": "ym2612"
    },
    {
      "channel": 3,
      "note": 57,
      "start": 6.5907,
      "duration": 0.1586,
      "velocity": 86,
      "chip": "ym2612"
    },
    {
      "channel": 4,
      "note": 55,
      "start": 6.7525,
      "duration": 0.0635,
      "velocity": 98,
      "chip": "ym2612"
    },
    {
      "channel": 0,
      "note": 45,
      "start": 6.7555,
      "duration": 0.1104,
      "velocity": 127,
      "chip": "ym2612"
    },
    {
      "channel": 3,
      "note": 55,
      "start": 6.7583,
      "duration": 0.1576,
      "velocity": 86,
      "chip": "ym2612"
    },
    {
      "channel": 4,
      "note": 53,
      "start": 6.9187,
      "duration": 0.0269,
      "velocity": 98,
      "chip": "ym2612"
    },
    {
      "channel": 3,
      "note": 53,
      "start": 6.9249,
      "duration": 0.051,
      "velocity": 86,
      "chip": "ym2612"
    },
    {
      "channel": 4,
      "note": 52,
      "start": 6.9846,
      "duration": 0.0314,
      "velocity": 98,
      "chip": "ym2612"
    },
    {
      "channel": 0,
      "note": 45,
      "start": 6.9869,
      "duration": 0.0288,
      "velocity": 127,
      "chip": "ym2612"
    },
    {
      "channel": 3,
      "note": 52,
      "start": 6.9906,
      "duration": 0.0593,
      "velocity": 86,
      "chip": "ym2612"
    },
    {
      "channel": 4,
      "note": 57,
      "start": 7.0694,
      "duration": 0.0639,
      "velocity": 98,
      "chip": "ym2612"
    },
    {
      "channel": 0,
      "note": 45,
      "start": 7.0718,
      "duration": 0.0781,
      "velocity": 127,
      "chip": "ym2612"
    },
    {
      "channel": 3,
      "note": 57,
      "start": 7.0747,
      "duration": 0.1586,
      "velocity": 86,
      "chip": "ym2612"
    },
    {
      "channel": 4,
      "note": 55,
      "start": 7.2361,
      "duration": 0.0639,
      "velocity": 98,
      "chip": "ym2612"
    },
    {
      "channel": 0,
      "note": 45,
      "start": 7.2387,
      "duration": 0.1111,
      "velocity": 127,
      "chip": "ym2612"
    },
    {
      "channel": 3,
      "note": 55,
      "start": 7.2416,
      "duration": 0.1416,
      "velocity": 86,
      "chip": "ym2612"
    },
    {
      "channel": 4,
      "note": 53,
      "start": 7.4027,
      "duration": 0.0332,
      "velocity": 98,
      "chip": "ym2612"
    },
    {
      "channel": 3,
      "note": 53,
      "start": 7.4088,
      "duration": 0.0578,
      "velocity": 86,
      "chip": "ym2612"
    },
    {
      "channel": 4,
      "note": 52,
      "start": 7.4691,
      "duration": 0.0251,
      "velocity": 98,
      "chip": "ym2612"
    },
    {
      "channel": 0,
      "note": 45,
      "start": 7.4714,
      "duration": 0.0288,
      "velocity": 127,
      "chip": "ym2612"
    },
    {
      "channel": 3,
      "note": 52,
      "start": 7.474,
      "duration": 0.0607,
      "velocity": 86,
      "chip": "ym2612"
    },
    {
      "channel": 4,
      "note": 57,
      "start": 7.5542,
      "duration": 0.0639,
      "velocity": 98,
      "chip": "ym2612"
    },
    {
      "channel": 0,
      "note": 45,
      "start": 7.5568,
      "duration": 0.1778,
      "velocity": 127,
      "chip": "ym2612"
    },
    {
      "channel": 2,
      "note": 76,
      "start": 7.5609,
      "duration": 0.074,
      "velocity": 127,
      "chip": "ym2612"
    },
    {
      "channel": 1,
      "note": 45,
      "start": 7.5637,
      "duration": 0.2542,
      "velocity": 86,
      "chip": "ym2612"
    },
    {
      "channel": 3,
      "note": 57,
      "start": 7.5664,
      "duration": 0.2682,
      "velocity": 86,
      "chip": "ym2612"
    },
    {
      "channel": 4,
      "note": 57,
      "start": 7.7376,
      "duration": 0.0805,
      "velocity": 98,
      "chip": "ym2612"
    },
    {
      "channel": 2,
      "note": 76,
      "start": 7.7404,
      "duration": 0.0779,
      "velocity": 127,
      "chip": "ym2612"
    },
    {
      "channel": 4,
      "note": 55,
      "start": 7.9042,
      "duration": 0.0238,
      "velocity": 98,
      "chip": "ym2612"
    },
    {
      "channel": 2,
      "note": 73,
      "start": 7.9071,
      "duration": 0.021,
      "velocity": 127,
      "chip": "ym2612"
    },
    {
      "channel": 1,
      "note": 55,
      "start": 7.9132,
      "duration": 0.1082,
      "velocity": 86,
      "chip": "ym2612"
    },
    {
      "channel": 3,
      "note": 45,
      "start": 7.9154,
      "duration": 0.0936,
      "velocity": 86,
      "chip": "ym2612"
    },
    {
      "channel": 4,
      "note": 55,
      "start": 7.9737,
      "duration": 0.0166,
      "velocity": 98,
      "chip": "ym2612"
    },
    {
      "channel": 2,
      "note": 73,
      "start": 7.9763,
      "duration": 0.0265,
      "velocity": 127,
      "chip": "ym2612"
    },
    {
      "channel": 4,
      "note": 53,
      "start": 8.0541,
      "duration": 0.0474,
      "velocity": 98,
      "chip": "ym2612"
    },
    {
      "channel": 0,
      "note": 45,
      "start": 8.0571,
      "duration": 0.0776,
      "velocity": 127,
      "chip": "ym2612"
    },
    {
      "channel": 2,
      "note": 69,
      "start": 8.0601,
      "duration": 0.0749,
      "velocity": 127,
      "chip": "ym2612"
    },
    {
      "channel": 1,
      "note": 53,
      "start": 8.0627,
      "duration": 0.2554,
      "velocity": 86,
      "chip": "ym2612"
    },
    {
      "channel": 3,
      "note": 45,
      "start": 8.0652,
      "duration": 0.253,
      "velocity": 86,
      "chip": "ym2612"
    },
    {
      "channel": 4,
      "note": 53,
      "start": 8.221,
      "duration": 0.0805,
      "velocity": 98,
      "chip": "ym2612"
    },
    {
      "channel": 0,
      "note": 45,
      "start": 8.2236,
      "duration": 0.1278,
      "velocity": 127,
      "chip": "ym2612"
    },
    {
      "channel": 2,
      "note": 69,
      "start": 8.2262,
      "duration": 0.0754,
      "velocity": 127,
      "chip": "ym2612"
    },
    {
      "channel": 4,
      "note": 52,
      "start": 8.3875,
      "duration": 0.0373,
      "velocity": 98,
      "chip": "ym2612"
    },
    {
      "channel": 2,
      "note": 66,
      "start": 8.3902,
      "duration": 0.0347,
      "velocity": 127,
      "chip": "ym2612"
    },
    {
      "channel": 1,
      "note": 52,
      "start": 8.3962,
      "duration": 0.091,
      "velocity": 86,
      "chip": "ym2612"
    },
    {
      "channel": 3,
      "note": 45,
      "start": 8.3987,
      "duration": 0.0886,
      "velocity": 86,
      "chip": "ym2612"
    },
    {
      "channel": 4,
      "note": 52,
      "start": 8.4575,
      "duration": 0.0299,
      "velocity": 98,
      "chip": "ym2612"
    },
    {
      "channel": 0,
      "note": 45,
      "start": 8.4596,
      "duration": 0.0752,
      "velocity": 127,
      "chip": "ym2612"
    },
    {
      "channel": 2,
      "note": 66,
      "start": 8.462,
      "duration": 0.0134,
      "velocity": 127,
      "chip": "ym2612"
    },
    {
      "channel": 4,
      "note": 50,
      "start": 8.5391,
      "duration": 0.0458,
      "velocity": 98,
      "chip": "ym2612"
    },
    {
      "channel": 0,
      "note": 45,
      "start": 8.5428,
      "duration": 0.142,
      "velocity": 127,
      "chip": "ym2612"
    },
    {
      "channel": 1,
      "note": 45,
      "start": 8.5494,
      "duration": 0.3762,
      "velocity": 86,
      "chip": "ym2612"
    },
    {
      "channel": 3,
      "note": 50,
      "start": 8.5537,
      "duration": 0.372,
      "velocity": 86,
      "chip": "ym2612"
    },
    {
      "channel": 4,
      "note": 50,
      "start": 8.6878,
      "duration": 0.0804,
      "velocity": 98,
      "chip": "ym2612"
    },
    {
      "channel": 4,
      "note": 50,
      "start": 8.8542,
      "duration": 0.0333,
      "velocity": 98,
      "chip": "ym2612"
    },
    {
      "channel": 4,
      "note": 50,
      "start": 8.9158,
      "duration": 0.0282,
      "velocity": 98,
      "chip": "ym2612"
    },
    {
      "channel": 4,
      "note": 53,
      "start": 8.9885,
      "duration": 0.0807,
      "velocity": 98,
      "chip": "ym2612"
    },
    {
      "channel": 0,
      "note": 45,
      "start": 8.9911,
      "duration": 0.0779,
      "velocity": 127,
      "chip": "ym2612"
    },
    {
      "channel": 1,
      "note": 53,
      "start": 8.9939,
      "duration": 0.4131,
      "velocity": 86,
      "chip": "ym2612"
    },
    {
      "channel": 3,
      "note": 48,
      "start": 8.9965,
      "duration": 0.4239,
      "velocity": 86,
      "chip": "ym2612"
    },
    {
      "channel": 4,
      "note": 53,
      "start": 9.1554,
      "duration": 0.0472,
      "velocity": 98,
      "chip": "ym2612"
    },
    {
      "channel": 0,
      "note": 45,
      "start": 9.158,
      "duration": 0.1278,
      "velocity": 127,
      "chip": "ym2612"
    },
    {
      "channel": 4,
      "note": 53,
      "start": 9.3054,
      "duration": 0.0328,
      "velocity": 98,
      "chip": "ym2612"
    },
    {
      "channel": 4,
      "note": 53,
      "start": 9.3713,
      "duration": 0.0235,
      "velocity": 98,
      "chip": "ym2612"
    },
    {
      "channel": 0,
      "note": 45,
      "start": 9.3734,
      "duration": 0.0468,
      "velocity": 127,
      "chip": "ym2612"
    },
    {
      "channel": 4,
      "note": 52,
      "start": 9.4397,
      "duration": 0.0807,
      "velocity": 98,
      "chip": "ym2612"
    },
    {
      "channel": 1,
      "note": 52,
      "start": 9.4426,
      "duration": 0.4095,
      "velocity": 86,
      "chip": "ym2612"
    },
    {
      "channel": 3,
      "note": 47,
      "start": 9.4452,
      "duration": 0.3942,
      "velocity": 86,
      "chip": "ym2612"
    },
    {
      "channel": 4,
      "note": 52,
      "start": 9.6067,
      "duration": 0.0803,
      "velocity": 98,
      "chip": "ym2612"
    },
    {
      "channel": 0,
      "note": 45,
      "start": 9.6091,
      "duration": 0.1278,
      "velocity": 127,
      "chip": "ym2612"
    },
    {
      "channel": 4,
      "note": 52,
      "start": 9.7565,
      "duration": 0.0196,
      "velocity": 98,
      "chip": "ym2612"
    },
    {
      "channel": 4,
      "note": 52,
      "start": 9.8217,
      "duration": 0.0305,
      "velocity": 98,
      "chip": "ym2612"
    },
    {
      "channel": 0,
      "note": 45,
      "start": 9.8241,
      "duration": 0.028,
      "velocity": 127,
      "chip": "ym2612"
    },
    {
      "channel": 4,
      "note": 57,
      "start": 9.8905,
      "duration": 0.0638,
      "velocity": 98,
      "chip": "ym2612"
    },
    {
      "channel": 0,
      "note": 45,
      "start": 9.8932,
      "duration": 0.0777,
      "velocity": 127,
      "chip": "ym2612"
    },
    {
      "channel": 1,
      "note": 45,
      "start": 9.896,
      "duration": 0.412,
      "velocity": 86,
      "chip": "ym2612"
    },
    {
      "channel": 3,
      "note": 57,
      "start": 9.8985,
      "duration": 0.3909,
      "velocity": 86,
      "chip": "ym2612"
    },
    {
      "channel": 4,
      "note": 57,
      "start": 10.057,
      "duration": 0.0473,
      "velocity": 98,
      "chip": "ym2612"
    },
    {
      "channel": 0,
      "note": 45,
      "start": 10.0596,
      "duration": 0.0945,
      "velocity": 127,
      "chip": "ym2612"
    },
    {
      "channel": 4,
      "note": 57,
      "start": 10.2071,
      "duration": 0.0327,
      "velocity": 98,
      "chip": "ym2612"
    },
    {
      "channel": 4,
      "note": 57,
      "start": 10.2728,
      "duration": 0.0288,
      "velocity": 98,
      "chip": "ym2612"
    },
    {
      "channel": 4,
      "note": 50,
      "start": 10.358,
      "duration": 0.0641,
      "velocity": 98,
      "chip": "ym2612"
    },
    {
      "channel": 0,
      "note": 45,
      "start": 10.3606,
      "duration": 0.1112,
      "velocity": 127,
      "chip": "ym2612"
    },
    {
      "channel": 1,
      "note": 50,
      "start": 10.3634,
      "duration": 0.3987,
      "velocity": 86,
      "chip": "ym2612"
    },
    {
      "channel": 3,
      "note": 45,
      "start": 10.3659,
      "duration": 0.3849,
      "velocity": 86,
      "chip": "ym2612"
    },
    {
      "channel": 4,
      "note": 50,
      "start": 10.508,
      "duration": 0.0807,
      "velocity": 98,
      "chip": "ym2612"
    },
    {
      "channel": 4,
      "note": 50,
      "start": 10.6747,
      "duration": 0.0261,
      "velocity": 98,
      "chip": "ym2612"
    },
    {
      "channel": 4,
      "note": 50,
      "start": 10.734,
      "duration": 0.0283,
      "velocity": 98,
      "chip": "ym2612"
    },
    {
      "channel": 4,
      "note": 53,
      "start": 10.8073,
      "duration": 0.064,
      "velocity": 98,
      "chip": "ym2612"
    },
    {
      "channel": 0,
      "note": 45,
      "start": 10.8099,
      "duration": 0.0611,
      "velocity": 127,
      "chip": "ym2612"
    },
    {
      "channel": 1,
      "note": 53,
      "start": 10.8127,
      "duration": 0.4141,
      "velocity": 86,
      "chip": "ym2612"
    },
    {
      "channel": 3,
      "note": 48,
      "start": 10.8153,
      "duration": 0.4115,
      "velocity": 86,
      "chip": "ym2612"
    },
    {
      "channel": 4,
      "note": 53,
      "start": 10.9578,
      "duration": 0.0468,
      "velocity": 98,
      "chip": "ym2612"
    },
    {
      "channel": 0,
      "note": 45,
      "start": 10.9604,
      "duration": 0.1273,
      "velocity": 127,
      "chip": "ym2612"
    },
    {
      "channel": 4,
      "note": 53,
      "start": 11.1241,
      "duration": 0.0329,
      "velocity": 98,
      "chip": "ym2612"
    },
    {
      "channel": 4,
      "note": 53,
      "start": 11.1852,
      "duration": 0.0293,
      "velocity": 98,
      "chip": "ym2612"
    },
    {
      "channel": 0,
      "note": 45,
      "start": 11.1875,
      "duration": 0.0392,
      "velocity": 127,
      "chip": "ym2612"
    },
    {
      "channel": 4,
      "note": 52,
      "start": 11.2589,
      "duration": 0.0807,
      "velocity": 98,
      "chip": "ym2612"
    },
    {
      "channel": 1,
      "note": 52,
      "start": 11.2622,
      "duration": 0.4039,
      "velocity": 86,
      "chip": "ym2612"
    },
    {
      "channel": 3,
      "note": 47,
      "start": 11.2649,
      "duration": 0.4013,
      "velocity": 86,
      "chip": "ym2612"
    },
    {
      "channel": 4,
      "note": 52,
      "start": 11.4089,
      "duration": 0.0807,
      "velocity": 98,
      "chip": "ym2612"
    },
    {
      "channel": 0,
      "note": 45,
      "start": 11.4113,
      "duration": 0.1115,
      "velocity": 127,
      "chip": "ym2612"
    },
    {
      "channel": 4,
      "note": 52,
      "start": 11.5757,
      "duration": 0.033,
      "velocity": 98,
      "chip": "ym2612"
    },
    {
      "channel": 4,
      "note": 52,
      "start": 11.6369,
      "duration": 0.0293,
      "velocity": 98,
      "chip": "ym2612"
    },
    {
      "channel": 0,
      "note": 45,
      "start": 11.6395,
      "duration": 0.0265,
      "velocity": 127,
      "chip": "ym2612"
    },
    {
      "channel": 4,
      "note": 45,
      "start": 11.7103,
      "duration": 0.0807,
      "velocity": 98,
      "chip": "ym2612"
    },
    {
      "channel": 0,
      "note": 45,
      "start": 11.7126,
      "duration": 0.0783,
      "velocity": 127,
      "chip": "ym2612"
    },
    {
      "channel": 1,
      "note": 57,
      "start": 11.7154,
      "duration": 0.3968,
      "velocity": 86,
      "chip": "ym2612"
    },
    {
      "channel": 3,
      "note": 45,
      "start": 11.7184,
      "duration": 0.4123,
      "velocity": 86,
      "chip": "ym2612"
    },
    {
      "channel": 4,
      "note": 45,
      "start": 11.8769,
      "duration": 0.0641,
      "velocity": 98,
      "chip": "ym2612"
    },
    {
      "channel": 0,
      "note": 45,
      "start": 11.8795,
      "duration": 0.0945,
      "velocity": 127,
      "chip": "ym2612"
    },
    {
      "channel": 4,
      "note": 45,
      "start": 12.027,
      "duration": 0.033,
      "velocity": 98,
      "chip": "ym2612"
    },
    {
      "channel": 4,
      "note": 45,
      "start": 12.0929,
      "duration": 0.0253,
      "velocity": 98,
      "chip": "ym2612"
    },
    {
      "channel": 4,
      "note": 50,
      "start": 12.1518,
      "duration": 0.0329,
      "velocity": 98,
      "chip": "ym2612"
    },
    {
      "channel": 0,
      "note": 45,
      "start": 12.1551,
      "duration": 0.048,
      "velocity": 127,
      "chip": "ym2612"
    },
    {
      "channel": 1,
      "note": 50,
      "start": 12.1574,
      "duration": 0.3128,
      "velocity": 86,
      "chip": "ym2612"
    },
    {
      "channel": 3,
      "note": 45,
      "start": 12.1598,
      "duration": 0.3104,
      "velocity": 86,
      "chip": "ym2612"
    },
    {
      "channel": 4,
      "note": 50,
      "start": 12.2255,
      "duration": 0.0641,
      "velocity": 98,
      "chip": "ym2612"
    },
    {
      "channel": 4,
      "note": 50,
      "start": 12.3755,
      "duration": 0.0327,
      "velocity": 98,
      "chip": "ym2612"
    },
    {
      "channel": 4,
      "note": 50,
      "start": 12.4411,
      "duration": 0.0293,
      "velocity": 98,
      "chip": "ym2612"
    },
    {
      "channel": 4,
      "note": 53,
      "start": 12.51,
      "duration": 0.0807,
      "velocity": 98,
      "chip": "ym2612"
    },
    {
      "channel": 0,
      "note": 45,
      "start": 12.5127,
      "duration": 0.0779,
      "velocity": 127,
      "chip": "ym2612"
    },
    {
      "channel": 1,
      "note": 48,
      "start": 12.5153,
      "duration": 0.4059,
      "velocity": 86,
      "chip": "ym2612"
    },
    {
      "channel": 3,
      "note": 53,
      "start": 12.5179,
      "duration": 0.4089,
      "velocity": 86,
      "chip": "ym2612"
    },
    {
      "channel": 4,
      "note": 53,
      "start": 12.6768,
      "duration": 0.0806,
      "velocity": 98,
      "chip": "ym2612"
    },
    {
      "channel": 0,
      "note": 45,
      "start": 12.6794,
      "duration": 0.1279,
      "velocity": 127,
      "chip": "ym2612"
    },
    {
      "channel": 4,
      "note": 53,
      "start": 12.8268,
      "duration": 0.0322,
      "velocity": 98,
      "chip": "ym2612"
    },
    {
      "channel": 4,
      "note": 53,
      "start": 12.8917,
      "duration": 0.0297,
      "velocity": 98,
      "chip": "ym2612"
    },
    {
      "channel": 0,
      "note": 45,
      "start": 12.8941,
      "duration": 0.0326,
      "velocity": 127,
      "chip": "ym2612"
    },
    {
      "channel": 4,
      "note": 52,
      "start": 12.9593,
      "duration": 0.0806,
      "velocity": 98,
      "chip": "ym2612"
    },
    {
      "channel": 1,
      "note": 52,
      "start": 12.962,
      "duration": 0.4185,
      "velocity": 86,
      "chip": "ym2612"
    },
    {
      "channel": 3,
      "note": 47,
      "start": 12.9647,
      "duration": 0.4159,
      "velocity": 86,
      "chip": "ym2612"
    },
    {
      "channel": 4,
      "note": 52,
      "start": 13.1259,
      "duration": 0.0807,
      "velocity": 98,
      "chip": "ym2612"
    },
    {
      "channel": 0,
      "note": 45,
      "start": 13.1281,
      "duration": 0.095,
      "velocity": 127,
      "chip": "ym2612"
    },
    {
      "channel": 4,
      "note": 52,
      "start": 13.2926,
      "duration": 0.0261,
      "velocity": 98,
      "chip": "ym2612"
    },
    {
      "channel": 4,
      "note": 52,
      "start": 13.3518,
      "duration": 0.0289,
      "velocity": 98,
      "chip": "ym2612"
    },
    {
      "channel": 0,
      "note": 45,
      "start": 13.354,
      "duration": 0.0265,
      "velocity": 127,
      "chip": "ym2612"
    },
    {
      "channel": 4,
      "note": 57,
      "start": 13.4252,
      "duration": 0.0641,
      "velocity": 98,
      "chip": "ym2612"
    },
    {
      "channel": 0,
      "note": 45,
      "start": 13.4275,
      "duration": 0.0616,
      "velocity": 127,
      "chip": "ym2612"
    },
    {
      "channel": 1,
      "note": 57,
      "start": 13.4303,
      "duration": 0.4144,
      "velocity": 86,
      "chip": "ym2612"
    },
    {
      "channel": 3,
      "note": 45,
      "start": 13.4329,
      "duration": 0.4119,
      "velocity": 86,
      "chip": "ym2612"
    },
    {
      "channel": 4,
      "note": 57,
      "start": 13.5752,
      "duration": 0.0808,
      "velocity": 98,
      "chip": "ym2612"
    },
    {
      "channel": 0,
      "note": 45,
      "start": 13.5778,
      "duration": 0.1112,
      "velocity": 127,
      "chip": "ym2612"
    },
    {
      "channel": 4,
      "note": 57,
      "start": 13.7421,
      "duration": 0.02,
      "velocity": 98,
      "chip": "ym2612"
    },
    {
      "channel": 4,
      "note": 57,
      "start": 13.8019,
      "duration": 0.0183,
      "velocity": 98,
      "chip": "ym2612"
    },
    {
      "channel": 4,
      "note": 57,
      "start": 13.867,
      "duration": 0.0192,
      "velocity": 98,
      "chip": "ym2612"
    },
    {
      "channel": 0,
      "note": 45,
      "start": 13.8692,
      "duration": 0.0293,
      "velocity": 127,
      "chip": "ym2612"
    },
    {
      "channel": 1,
      "note": 57,
      "start": 13.8718,
      "duration": 1.7085,
      "velocity": 86,
      "chip": "ym2612"
    },
    {
      "channel": 3,
      "note": 45,
      "start": 13.8742,
      "duration": 0.0546,
      "velocity": 86,
      "chip": "ym2612"
    },
    {
      "channel": 4,
      "note": 55,
      "start": 13.9322,
      "duration": 0.0801,
      "velocity": 98,
      "chip": "ym2612"
    },
    {
      "channel": 0,
      "note": 45,
      "start": 13.9348,
      "duration": 0.1106,
      "velocity": 127,
      "chip": "ym2612"
    },
    {
      "channel": 3,
      "note": 55,
      "start": 13.9376,
      "duration": 0.158,
      "velocity": 86,
      "chip": "ym2612"
    },
    {
      "channel": 4,
      "note": 53,
      "start": 14.0983,
      "duration": 0.033,
      "velocity": 98,
      "chip": "ym2612"
    },
    {
      "channel": 3,
      "note": 53,
      "start": 14.1047,
      "duration": 0.0456,
      "velocity": 86,
      "chip": "ym2612"
    },
    {
      "channel": 4,
      "note": 52,
      "start": 14.1597,
      "duration": 0.0303,
      "velocity": 98,
      "chip": "ym2612"
    },
    {
      "channel": 0,
      "note": 45,
      "start": 14.1622,
      "duration": 0.0276,
      "velocity": 127,
      "chip": "ym2612"
    },
    {
      "channel": 3,
      "note": 52,
      "start": 14.1646,
      "duration": 0.044,
      "velocity": 86,
      "chip": "ym2612"
    },
    {
      "channel": 4,
      "note": 57,
      "start": 14.2314,
      "duration": 0.0807,
      "velocity": 98,
      "chip": "ym2612"
    },
    {
      "channel": 0,
      "note": 45,
      "start": 14.2337,
      "duration": 0.0781,
      "velocity": 127,
      "chip": "ym2612"
    },
    {
      "channel": 3,
      "note": 57,
      "start": 14.237,
      "duration": 0.1583,
      "velocity": 86,
      "chip": "ym2612"
    },
    {
      "channel": 4,
      "note": 55,
      "start": 14.3983,
      "duration": 0.0471,
      "velocity": 98,
      "chip": "ym2612"
    },
    {
      "channel": 0,
      "note": 45,
      "start": 14.401,
      "duration": 0.111,
      "velocity": 127,
      "chip": "ym2612"
    },
    {
      "channel": 3,
      "note": 55,
      "start": 14.4038,
      "duration": 0.1415,
      "velocity": 86,
      "chip": "ym2612"
    },
    {
      "channel": 4,
      "note": 53,
      "start": 14.5483,
      "duration": 0.0331,
      "velocity": 98,
      "chip": "ym2612"
    },
    {
      "channel": 3,
      "note": 53,
      "start": 14.5544,
      "duration": 0.0464,
      "velocity": 86,
      "chip": "ym2612"
    },
    {
      "channel": 4,
      "note": 52,
      "start": 14.6152,
      "duration": 0.0254,
      "velocity": 98,
      "chip": "ym2612"
    },
    {
      "channel": 0,
      "note": 45,
      "start": 14.6177,
      "duration": 0.0228,
      "velocity": 127,
      "chip": "ym2612"
    },
    {
      "channel": 3,
      "note": 52,
      "start": 14.6202,
      "duration": 0.0449,
      "velocity": 86,
      "chip": "ym2612"
    },
    {
      "channel": 4,
      "note": 57,
      "start": 14.6822,
      "duration": 0.0473,
      "velocity": 98,
      "chip": "ym2612"
    },
    {
      "channel": 0,
      "note": 45,
      "start": 14.6845,
      "duration": 0.0781,
      "velocity": 127,
      "chip": "ym2612"
    },
    {
      "channel": 3,
      "note": 57,
      "start": 14.6875,
      "duration": 0.1586,
      "velocity": 86,
      "chip": "ym2612"
    },
    {
      "channel": 4,
      "note": 55,
      "start": 14.8488,
      "duration": 0.0473,
      "velocity": 98,
      "chip": "ym2612"
    },
    {
      "channel": 0,
      "note": 45,
      "start": 14.8515,
      "duration": 0.0943,
      "velocity": 127,
      "chip": "ym2612"
    },
    {
      "channel": 3,
      "note": 55,
      "start": 14.8543,
      "duration": 0.1417,
      "velocity": 86,
      "chip": "ym2612"
    },
    {
      "channel": 4,
      "note": 53,
      "start": 14.9988,
      "duration": 0.0207,
      "velocity": 98,
      "chip": "ym2612"
    },
    {
      "channel": 3,
      "note": 53,
      "start": 15.0049,
      "duration": 0.0454,
      "velocity": 86,
      "chip": "ym2612"
    },
    {
      "channel": 4,
      "note": 52,
      "start": 15.0652,
      "duration": 0.0309,
      "velocity": 98,
      "chip": "ym2612"
    },
    {
      "channel": 0,
      "note": 45,
      "start": 15.0678,
      "duration": 0.0282,
      "velocity": 127,
      "chip": "ym2612"
    },
    {
      "channel": 3,
      "note": 52,
      "start": 15.0711,
      "duration": 0.0435,
      "velocity": 86,
      "chip": "ym2612"
    },
    {
      "channel": 4,
      "note": 57,
      "start": 15.1321,
      "duration": 0.0468,
      "velocity": 98,
      "chip": "ym2612"
    },
    {
      "channel": 0,
      "note": 45,
      "start": 15.1344,
      "duration": 0.0777,
      "velocity": 127,
      "chip": "ym2612"
    },
    {
      "channel": 3,
      "note": 57,
      "start": 15.1373,
      "duration": 0.1582,
      "velocity": 86,
      "chip": "ym2612"
    },
    {
      "channel": 4,
      "note": 55,
      "start": 15.2983,
      "duration": 0.0473,
      "velocity": 98,
      "chip": "ym2612"
    },
    {
      "channel": 0,
      "note": 45,
      "start": 15.301,
      "duration": 0.0944,
      "velocity": 127,
      "chip": "ym2612"
    },
    {
      "channel": 3,
      "note": 55,
      "start": 15.3039,
      "duration": 0.1249,
      "velocity": 86,
      "chip": "ym2612"
    },
    {
      "channel": 4,
      "note": 53,
      "start": 15.4483,
      "duration": 0.0333,
      "velocity": 98,
      "chip": "ym2612"
    },
    {
      "channel": 3,
      "note": 53,
      "start": 15.4548,
      "duration": 0.0578,
      "velocity": 86,
      "chip": "ym2612"
    },
    {
      "channel": 4,
      "note": 52,
      "start": 15.5151,
      "duration": 0.0196,
      "velocity": 98,
      "chip": "ym2612"
    },
    {
      "channel": 0,
      "note": 45,
      "start": 15.5174,
      "duration": 0.0289,
      "velocity": 127,
      "chip": "ym2612"
    },
    {
      "channel": 3,
      "note": 52,
      "start": 15.52,
      "duration": 0.0456,
      "velocity": 86,
      "chip": "ym2612"
    },
    {
      "channel": 4,
      "note": 57,
      "start": 15.5833,
      "duration": 0.0639,
      "velocity": 98,
      "chip": "ym2612"
    },
    {
      "channel": 0,
      "note": 45,
      "start": 15.5859,
      "duration": 0.1611,
      "velocity": 127,
      "chip": "ym2612"
    },
    {
      "channel": 2,
      "note": 76,
      "start": 15.5899,
      "duration": 0.074,
      "velocity": 127,
      "chip": "ym2612"
    },
    {
      "channel": 1,
      "note": 45,
      "start": 15.5932,
      "duration": 0.2372,
      "velocity": 86,
      "chip": "ym2612"
    },
    {
      "channel": 3,
      "note": 57,
      "start": 15.5959,
      "duration": 0.2512,
      "velocity": 86,
      "chip": "ym2612"
    },
    {
      "channel": 4,
      "note": 57,
      "start": 15.7501,
      "duration": 0.0805,
      "velocity": 98,
      "chip": "ym2612"
    },
    {
      "channel": 2,
      "note": 76,
      "start": 15.7528,
      "duration": 0.0779,
      "velocity": 127,
      "chip": "ym2612"
    },
    {
      "channel": 4,
      "note": 55,
      "start": 15.9167,
      "duration": 0.0238,
      "velocity": 98,
      "chip": "ym2612"
    },
    {
      "channel": 2,
      "note": 73,
      "start": 15.9196,
      "duration": 0.021,
      "velocity": 127,
      "chip": "ym2612"
    },
    {
      "channel": 1,
      "note": 55,
      "start": 15.9256,
      "duration": 0.1028,
      "velocity": 86,
      "chip": "ym2612"
    },
    {
      "channel": 3,
      "note": 45,
      "start": 15.9279,
      "duration": 0.0882,
      "velocity": 86,
      "chip": "ym2612"
    },
    {
      "channel": 4,
      "note": 55,
      "start": 15.9793,
      "duration": 0.0184,
      "velocity": 98,
      "chip": "ym2612"
    },
    {
      "channel": 2,
      "note": 73,
      "start": 15.9819,
      "duration": 0.028,
      "velocity": 127,
      "chip": "ym2612"
    },
    {
      "channel": 4,
      "note": 53,
      "start": 16.0507,
      "duration": 0.0473,
      "velocity": 98,
      "chip": "ym2612"
    },
    {
      "channel": 0,
      "note": 45,
      "start": 16.0533,
      "duration": 0.0613,
      "velocity": 127,
      "chip": "ym2612"
    },
    {
      "channel": 2,
      "note": 69,
      "start": 16.0559,
      "duration": 0.059,
      "velocity": 127,
      "chip": "ym2612"
    },
    {
      "channel": 1,
      "note": 53,
      "start": 16.0586,
      "duration": 0.256,
      "velocity": 86,
      "chip": "ym2612"
    },
    {
      "channel": 3,
      "note": 45,
      "start": 16.0611,
      "duration": 0.2536,
      "velocity": 86,
      "chip": "ym2612"
    },
    {
      "channel": 4,
      "note": 53,
      "start": 16.2007,
      "duration": 0.0806,
      "velocity": 98,
      "chip": "ym2612"
    },
    {
      "channel": 0,
      "note": 45,
      "start": 16.2037,
      "duration": 0.1275,
      "velocity": 127,
      "chip": "ym2612"
    },
    {
      "channel": 2,
      "note": 69,
      "start": 16.2063,
      "duration": 0.0752,
      "velocity": 127,
      "chip": "ym2612"
    },
    {
      "channel": 4,
      "note": 52,
      "start": 16.3674,
      "duration": 0.0304,
      "velocity": 98,
      "chip": "ym2612"
    },
    {
      "channel": 2,
      "note": 66,
      "start": 16.3705,
      "duration": 0.0273,
      "velocity": 127,
      "chip": "ym2612"
    },
    {
      "channel": 1,
      "note": 52,
      "start": 16.3765,
      "duration": 0.0865,
      "velocity": 86,
      "chip": "ym2612"
    },
    {
      "channel": 3,
      "note": 45,
      "start": 16.3788,
      "duration": 0.0844,
      "velocity": 86,
      "chip": "ym2612"
    },
    {
      "channel": 4,
      "note": 52,
      "start": 16.4313,
      "duration": 0.0319,
      "velocity": 98,
      "chip": "ym2612"
    },
    {
      "channel": 0,
      "note": 45,
      "start": 16.4337,
      "duration": 0.0652,
      "velocity": 127,
      "chip": "ym2612"
    },
    {
      "channel": 2,
      "note": 66,
      "start": 16.437,
      "duration": 0.0132,
      "velocity": 127,
      "chip": "ym2612"
    },
    {
      "channel": 4,
      "note": 50,
      "start": 16.5032,
      "duration": 0.0458,
      "velocity": 98,
      "chip": "ym2612"
    },
    {
      "channel": 0,
      "note": 45,
      "start": 16.5069,
      "duration": 0.142,
      "velocity": 127,
      "chip": "ym2612"
    },
    {
      "channel": 1,
      "note": 45,
      "start": 16.5132,
      "duration": 0.3766,
      "velocity": 86,
      "chip": "ym2612"
    },
    {
      "channel": 3,
      "note": 50,
      "start": 16.5171,
      "duration": 0.3728,
      "velocity": 86,
      "chip": "ym2612"
    },
    {
      "channel": 4,
      "note": 50,
      "start": 16.6519,
      "duration": 0.0804,
      "velocity": 98,
      "chip": "ym2612"
    },
    {
      "channel": 4,
      "note": 50,
      "start": 16.8183,
      "duration": 0.0334,
      "velocity": 98,
      "chip": "ym2612"
    },
    {
      "channel": 4,
      "note": 50,
      "start": 16.88,
      "duration": 0.0282,
      "velocity": 98,
      "chip": "ym2612"
    },
    {
      "channel": 4,
      "note": 53,
      "start": 16.9527,
      "duration": 0.0641,
      "velocity": 98,
      "chip": "ym2612"
    },
    {
      "channel": 0,
      "note": 45,
      "start": 16.9553,
      "duration": 0.0613,
      "velocity": 127,
      "chip": "ym2612"
    },
    {
      "channel": 1,
      "note": 53,
      "start": 16.9581,
      "duration": 0.391,
      "velocity": 86,
      "chip": "ym2612"
    },
    {
      "channel": 3,
      "note": 48,
      "start": 16.9607,
      "duration": 0.4,
      "velocity": 86,
      "chip": "ym2612"
    },
    {
      "channel": 4,
      "note": 53,
      "start": 17.1028,
      "duration": 0.0473,
      "velocity": 98,
      "chip": "ym2612"
    },
    {
      "channel": 0,
      "note": 45,
      "start": 17.1055,
      "duration": 0.1277,
      "velocity": 127,
      "chip": "ym2612"
    },
    {
      "channel": 4,
      "note": 53,
      "start": 17.2529,
      "duration": 0.0317,
      "velocity": 98,
      "chip": "ym2612"
    },
    {
      "channel": 4,
      "note": 53,
      "start": 17.3124,
      "duration": 0.0297,
      "velocity": 98,
      "chip": "ym2612"
    },
    {
      "channel": 0,
      "note": 45,
      "start": 17.3145,
      "duration": 0.0461,
      "velocity": 127,
      "chip": "ym2612"
    },
    {
      "channel": 4,
      "note": 52,
      "start": 17.3704,
      "duration": 0.0806,
      "velocity": 98,
      "chip": "ym2612"
    },
    {
      "channel": 1,
      "note": 52,
      "start": 17.3732,
      "duration": 0.3861,
      "velocity": 86,
      "chip": "ym2612"
    },
    {
      "channel": 3,
      "note": 47,
      "start": 17.3759,
      "duration": 0.3716,
      "velocity": 86,
      "chip": "ym2612"
    },
    {
      "channel": 4,
      "note": 52,
      "start": 17.5206,
      "duration": 0.0804,
      "velocity": 98,
      "chip": "ym2612"
    },
    {
      "channel": 0,
      "note": 45,
      "start": 17.523,
      "duration": 0.1279,
      "velocity": 127,
      "chip": "ym2612"
    },
    {
      "channel": 4,
      "note": 52,
      "start": 17.6705,
      "duration": 0.0199,
      "velocity": 98,
      "chip": "ym2612"
    },
    {
      "channel": 4,
      "note": 52,
      "start": 17.7308,
      "duration": 0.0286,
      "velocity": 98,
      "chip": "ym2612"
    },
    {
      "channel": 0,
      "note": 45,
      "start": 17.7332,
      "duration": 0.0261,
      "velocity": 127,
      "chip": "ym2612"
    },
    {
      "channel": 4,
      "note": 57,
      "start": 17.787,
      "duration": 0.0471,
      "velocity": 98,
      "chip": "ym2612"
    },
    {
      "channel": 0,
      "note": 45,
      "start": 17.7898,
      "duration": 0.0776,
      "velocity": 127,
      "chip": "ym2612"
    },
    {
      "channel": 1,
      "note": 45,
      "start": 17.7925,
      "duration": 0.3905,
      "velocity": 86,
      "chip": "ym2612"
    },
    {
      "channel": 3,
      "note": 57,
      "start": 17.795,
      "duration": 0.3699,
      "velocity": 86,
      "chip": "ym2612"
    },
    {
      "channel": 4,
      "note": 57,
      "start": 17.9368,
      "duration": 0.0474,
      "velocity": 98,
      "chip": "ym2612"
    },
    {
      "channel": 0,
      "note": 45,
      "start": 17.9395,
      "duration": 0.0945,
      "velocity": 127,
      "chip": "ym2612"
    },
    {
      "channel": 4,
      "note": 57,
      "start": 18.087,
      "duration": 0.0328,
      "velocity": 98,
      "chip": "ym2612"
    },
    {
      "channel": 4,
      "note": 57,
      "start": 18.148,
      "duration": 0.0288,
      "velocity": 98,
      "chip": "ym2612"
    },
    {
      "channel": 4,
      "note": 50,
      "start": 18.2056,
      "duration": 0.0807,
      "velocity": 98,
      "chip": "ym2612"
    },
    {
      "channel": 0,
      "note": 45,
      "start": 18.2083,
      "duration": 0.1279,
      "velocity": 127,
      "chip": "ym2612"
    },
    {
      "channel": 1,
      "note": 50,
      "start": 18.2111,
      "duration": 0.3823,
      "velocity": 86,
      "chip": "ym2612"
    },
    {
      "channel": 3,
      "note": 45,
      "start": 18.2135,
      "duration": 0.3739,
      "velocity": 86,
      "chip": "ym2612"
    },
    {
      "channel": 4,
      "note": 50,
      "start": 18.3556,
      "duration": 0.0807,
      "velocity": 98,
      "chip": "ym2612"
    },
    {
      "channel": 4,
      "note": 50,
      "start": 18.5056,
      "duration": 0.0319,
      "velocity": 98,
      "chip": "ym2612"
    },
    {
      "channel": 4,
      "note": 50,
      "start": 18.5701,
      "duration": 0.0233,
      "velocity": 98,
      "chip": "ym2612"
    },
    {
      "channel": 4,
      "note": 53,
      "start": 18.6391,
      "duration": 0.0641,
      "velocity": 98,
      "chip": "ym2612"
    },
    {
      "channel": 0,
      "note": 45,
      "start": 18.6417,
      "duration": 0.0613,
      "velocity": 127,
      "chip": "ym2612"
    },
    {
      "channel": 1,
      "note": 53,
      "start": 18.6445,
      "duration": 0.3923,
      "velocity": 86,
      "chip": "ym2612"
    },
    {
      "channel": 3,
      "note": 48,
      "start": 18.6471,
      "duration": 0.3898,
      "velocity": 86,
      "chip": "ym2612"
    },
    {
      "channel": 4,
      "note": 53,
      "start": 18.7898,
      "duration": 0.0468,
      "velocity": 98,
      "chip": "ym2612"
    },
    {
      "channel": 0,
      "note": 45,
      "start": 18.7924,
      "duration": 0.1106,
      "velocity": 127,
      "chip": "ym2612"
    },
    {
      "channel": 4,
      "note": 53,
      "start": 18.9394,
      "duration": 0.0272,
      "velocity": 98,
      "chip": "ym2612"
    },
    {
      "channel": 4,
      "note": 53,
      "start": 19.0002,
      "duration": 0.0236,
      "velocity": 98,
      "chip": "ym2612"
    },
    {
      "channel": 0,
      "note": 45,
      "start": 19.0025,
      "duration": 0.0343,
      "velocity": 127,
      "chip": "ym2612"
    },
    {
      "channel": 4,
      "note": 52,
      "start": 19.058,
      "duration": 0.064,
      "velocity": 98,
      "chip": "ym2612"
    },
    {
      "channel": 1,
      "note": 52,
      "start": 19.0613,
      "duration": 0.38,
      "velocity": 86,
      "chip": "ym2612"
    },
    {
      "channel": 3,
      "note": 47,
      "start": 19.0639,
      "duration": 0.3774,
      "velocity": 86,
      "chip": "ym2612"
    },
    {
      "channel": 4,
      "note": 52,
      "start": 19.2082,
      "duration": 0.0639,
      "velocity": 98,
      "chip": "ym2612"
    },
    {
      "channel": 0,
      "note": 45,
      "start": 19.2105,
      "duration": 0.0948,
      "velocity": 127,
      "chip": "ym2612"
    },
    {
      "channel": 4,
      "note": 52,
      "start": 19.3582,
      "duration": 0.0274,
      "velocity": 98,
      "chip": "ym2612"
    },
    {
      "channel": 4,
      "note": 52,
      "start": 19.4192,
      "duration": 0.0223,
      "velocity": 98,
      "chip": "ym2612"
    },
    {
      "channel": 0,
      "note": 45,
      "start": 19.4217,
      "duration": 0.0196,
      "velocity": 127,
      "chip": "ym2612"
    },
    {
      "channel": 4,
      "note": 45,
      "start": 19.475,
      "duration": 0.0641,
      "velocity": 98,
      "chip": "ym2612"
    },
    {
      "channel": 0,
      "note": 45,
      "start": 19.4773,
      "duration": 0.0615,
      "velocity": 127,
      "chip": "ym2612"
    },
    {
      "channel": 1,
      "note": 57,
      "start": 19.4801,
      "duration": 0.3733,
      "velocity": 86,
      "chip": "ym2612"
    },
    {
      "channel": 3,
      "note": 45,
      "start": 19.4831,
      "duration": 0.3888,
      "velocity": 86,
      "chip": "ym2612"
    },
    {
      "channel": 4,
      "note": 45,
      "start": 19.6249,
      "duration": 0.0641,
      "velocity": 98,
      "chip": "ym2612"
    },
    {
      "channel": 0,
      "note": 45,
      "start": 19.6275,
      "duration": 0.0945,
      "velocity": 127,
      "chip": "ym2612"
    },
    {
      "channel": 4,
      "note": 45,
      "start": 19.775,
      "duration": 0.0274,
      "velocity": 98,
      "chip": "ym2612"
    },
    {
      "channel": 4,
      "note": 45,
      "start": 19.8359,
      "duration": 0.0238,
      "velocity": 98,
      "chip": "ym2612"
    },
    {
      "channel": 4,
      "note": 50,
      "start": 19.8924,
      "duration": 0.026,
      "velocity": 98,
      "chip": "ym2612"
    },
    {
      "channel": 0,
      "note": 45,
      "start": 19.8946,
      "duration": 0.0418,
      "velocity": 127,
      "chip": "ym2612"
    },
    {
      "channel": 1,
      "note": 50,
      "start": 19.8978,
      "duration": 0.2866,
      "velocity": 86,
      "chip": "ym2612"
    },
    {
      "channel": 3,
      "note": 45,
      "start": 19.9,
      "duration": 0.2845,
      "velocity": 86,
      "chip": "ym2612"
    },
    {
      "channel": 4,
      "note": 50,
      "start": 19.9507,
      "duration": 0.0761,
      "velocity": 98,
      "chip": "ym2612"
    },
    {
      "channel": 4,
      "note": 50,
      "start": 20.0961,
      "duration": 0.0327,
      "velocity": 98,
      "chip": "ym2612"
    },
    {
      "channel": 4,
      "note": 50,
      "start": 20.1566,
      "duration": 0.0279,
      "velocity": 98,
      "chip": "ym2612"
    },
    {
      "channel": 4,
      "note": 53,
      "start": 20.2141,
      "duration": 0.0808,
      "velocity": 98,
      "chip": "ym2612"
    },
    {
      "channel": 0,
      "note": 45,
      "start": 20.2167,
      "duration": 0.0779,
      "velocity": 127,
      "chip": "ym2612"
    },
    {
      "channel": 1,
      "note": 48,
      "start": 20.2193,
      "duration": 0.3837,
      "velocity": 86,
      "chip": "ym2612"
    },
    {
      "channel": 3,
      "note": 53,
      "start": 20.222,
      "duration": 0.388,
      "velocity": 86,
      "chip": "ym2612"
    },
    {
      "channel": 4,
      "note": 53,
      "start": 20.3641,
      "duration": 0.0808,
      "velocity": 98,
      "chip": "ym2612"
    },
    {
      "channel": 0,
      "note": 45,
      "start": 20.3667,
      "duration": 0.128,
      "velocity": 127,
      "chip": "ym2612"
    },
    {
      "channel": 4,
      "note": 53,
      "start": 20.5141,
      "duration": 0.0322,
      "velocity": 98,
      "chip": "ym2612"
    },
    {
      "channel": 4,
      "note": 53,
      "start": 20.5744,
      "duration": 0.0288,
      "velocity": 98,
      "chip": "ym2612"
    },
    {
      "channel": 0,
      "note": 45,
      "start": 20.5769,
      "duration": 0.0329,
      "velocity": 127,
      "chip": "ym2612"
    },
    {
      "channel": 4,
      "note": 52,
      "start": 20.6313,
      "duration": 0.0806,
      "velocity": 98,
      "chip": "ym2612"
    },
    {
      "channel": 1,
      "note": 52,
      "start": 20.634,
      "duration": 0.385,
      "velocity": 86,
      "chip": "ym2612"
    },
    {
      "channel": 3,
      "note": 47,
      "start": 20.6367,
      "duration": 0.3824,
      "velocity": 86,
      "chip": "ym2612"
    },
    {
      "channel": 4,
      "note": 52,
      "start": 20.7812,
      "duration": 0.0808,
      "velocity": 98,
      "chip": "ym2612"
    },
    {
      "channel": 0,
      "note": 45,
      "start": 20.7835,
      "duration": 0.0949,
      "velocity": 127,
      "chip": "ym2612"
    },
    {
      "channel": 4,
      "note": 52,
      "start": 20.9312,
      "duration": 0.0319,
      "velocity": 98,
      "chip": "ym2612"
    },
    {
      "channel": 4,
      "note": 52,
      "start": 20.9902,
      "duration": 0.029,
      "velocity": 98,
      "chip": "ym2612"
    },
    {
      "channel": 0,
      "note": 45,
      "start": 20.9924,
      "duration": 0.0265,
      "velocity": 127,
      "chip": "ym2612"
    },
    {
      "channel": 4,
      "note": 57,
      "start": 21.0471,
      "duration": 0.0808,
      "velocity": 98,
      "chip": "ym2612"
    },
    {
      "channel": 0,
      "note": 45,
      "start": 21.0494,
      "duration": 0.0783,
      "velocity": 127,
      "chip": "ym2612"
    },
    {
      "channel": 1,
      "note": 57,
      "start": 21.0522,
      "duration": 0.3984,
      "velocity": 86,
      "chip": "ym2612"
    },
    {
      "channel": 3,
      "note": 45,
      "start": 21.0548,
      "duration": 0.3959,
      "velocity": 86,
      "chip": "ym2612"
    },
    {
      "channel": 4,
      "note": 57,
      "start": 21.1971,
      "duration": 0.0808,
      "velocity": 98,
      "chip": "ym2612"
    },
    {
      "channel": 0,
      "note": 45,
      "start": 21.1997,
      "duration": 0.0947,
      "velocity": 127,
      "chip": "ym2612"
    },
    {
      "channel": 4,
      "note": 57,
      "start": 21.3472,
      "duration": 0.0202,
      "velocity": 98,
      "chip": "ym2612"
    },
    {
      "channel": 4,
      "note": 57,
      "start": 21.4083,
      "duration": 0.0241,
      "velocity": 98,
      "chip": "ym2612"
    },
    {
      "channel": 4,
      "note": 57,
      "start": 21.4727,
      "duration": 0.0193,
      "velocity": 98,
      "chip": "ym2612"
    },
    {
      "channel": 0,
      "note": 45,
      "start": 21.475,
      "duration": 0.0228,
      "velocity": 127,
      "chip": "ym2612"
    },
    {
      "channel": 1,
      "note": 57,
      "start": 21.4778,
      "duration": 1.5705,
      "velocity": 86,
      "chip": "ym2612"
    },
    {
      "channel": 3,
      "note": 45,
      "start": 21.4803,
      "duration": 0.0529,
      "velocity": 86,
      "chip": "ym2612"
    },
    {
      "channel": 4,
      "note": 55,
      "start": 21.5366,
      "duration": 0.0634,
      "velocity": 98,
      "chip": "ym2612"
    },
    {
      "channel": 0,
      "note": 45,
      "start": 21.5392,
      "duration": 0.094,
      "velocity": 127,
      "chip": "ym2612"
    },
    {
      "channel": 3,
      "note": 55,
      "start": 21.542,
      "duration": 0.1414,
      "velocity": 86,
      "chip": "ym2612"
    },
    {
      "channel": 4,
      "note": 53,
      "start": 21.6862,
      "duration": 0.0269,
      "velocity": 98,
      "chip": "ym2612"
    },
    {
      "channel": 3,
      "note": 53,
      "start": 21.6926,
      "duration": 0.0396,
      "velocity": 86,
      "chip": "ym2612"
    },
    {
      "channel": 4,
      "note": 52,
      "start": 21.7468,
      "duration": 0.0242,
      "velocity": 98,
      "chip": "ym2612"
    },
    {
      "channel": 0,
      "note": 45,
      "start": 21.7494,
      "duration": 0.0215,
      "velocity": 127,
      "chip": "ym2612"
    },
    {
      "channel": 3,
      "note": 52,
      "start": 21.7517,
      "duration": 0.0366,
      "velocity": 86,
      "chip": "ym2612"
    },
    {
      "channel": 4,
      "note": 57,
      "start": 21.8036,
      "duration": 0.0607,
      "velocity": 98,
      "chip": "ym2612"
    },
    {
      "channel": 0,
      "note": 45,
      "start": 21.8059,
      "duration": 0.0582,
      "velocity": 127,
      "chip": "ym2612"
    },
    {
      "channel": 3,
      "note": 57,
      "start": 21.8092,
      "duration": 0.1383,
      "velocity": 86,
      "chip": "ym2612"
    },
    {
      "channel": 4,
      "note": 55,
      "start": 21.9505,
      "duration": 0.0471,
      "velocity": 98,
      "chip": "ym2612"
    },
    {
      "channel": 0,
      "note": 45,
      "start": 21.9531,
      "duration": 0.1109,
      "velocity": 127,
      "chip": "ym2612"
    },
    {
      "channel": 3,
      "note": 55,
      "start": 21.9559,
      "duration": 0.1416,
      "velocity": 86,
      "chip": "ym2612"
    },
    {
      "channel": 4,
      "note": 53,
      "start": 22.1005,
      "duration": 0.0269,
      "velocity": 98,
      "chip": "ym2612"
    },
    {
      "channel": 3,
      "note": 53,
      "start": 22.1066,
      "duration": 0.04,
      "velocity": 86,
      "chip": "ym2612"
    },
    {
      "channel": 4,
      "note": 52,
      "start": 22.1613,
      "duration": 0.0251,
      "velocity": 98,
      "chip": "ym2612"
    },
    {
      "channel": 0,
      "note": 45,
      "start": 22.1635,
      "duration": 0.0227,
      "velocity": 127,
      "chip": "ym2612"
    },
    {
      "channel": 3,
      "note": 52,
      "start": 22.1659,
      "duration": 0.0384,
      "velocity": 86,
      "chip": "ym2612"
    },
    {
      "channel": 4,
      "note": 57,
      "start": 22.2197,
      "duration": 0.044,
      "velocity": 98,
      "chip": "ym2612"
    },
    {
      "channel": 0,
      "note": 45,
      "start": 22.222,
      "duration": 0.0581,
      "velocity": 127,
      "chip": "ym2612"
    },
    {
      "channel": 3,
      "note": 57,
      "start": 22.2249,
      "duration": 0.1387,
      "velocity": 86,
      "chip": "ym2612"
    },
    {
      "channel": 4,
      "note": 55,
      "start": 22.3664,
      "duration": 0.0473,
      "velocity": 98,
      "chip": "ym2612"
    },
    {
      "channel": 0,
      "note": 45,
      "start": 22.3691,
      "duration": 0.0943,
      "velocity": 127,
      "chip": "ym2612"
    },
    {
      "channel": 3,
      "note": 55,
      "start": 22.3719,
      "duration": 0.1417,
      "velocity": 86,
      "chip": "ym2612"
    },
    {
      "channel": 4,
      "note": 53,
      "start": 22.5164,
      "duration": 0.0207,
      "velocity": 98,
      "chip": "ym2612"
    },
    {
      "channel": 3,
      "note": 53,
      "start": 22.5225,
      "duration": 0.0395,
      "velocity": 86,
      "chip": "ym2612"
    },
    {
      "channel": 4,
      "note": 52,
      "start": 22.5773,
      "duration": 0.0251,
      "velocity": 98,
      "chip": "ym2612"
    },
    {
      "channel": 0,
      "note": 45,
      "start": 22.5799,
      "duration": 0.0225,
      "velocity": 127,
      "chip": "ym2612"
    },
    {
      "channel": 3,
      "note": 52,
      "start": 22.5824,
      "duration": 0.0384,
      "velocity": 86,
      "chip": "ym2612"
    },
    {
      "channel": 4,
      "note": 57,
      "start": 22.6367,
      "duration": 0.0436,
      "velocity": 98,
      "chip": "ym2612"
    },
    {
      "channel": 0,
      "note": 45,
      "start": 22.6391,
      "duration": 0.0578,
      "velocity": 127,
      "chip": "ym2612"
    },
    {
      "channel": 3,
      "note": 57,
      "start": 22.642,
      "duration": 0.1383,
      "velocity": 86,
      "chip": "ym2612"
    },
    {
      "channel": 4,
      "note": 55,
      "start": 22.7831,
      "duration": 0.0473,
      "velocity": 98,
      "chip": "ym2612"
    },
    {
      "channel": 0,
      "note": 45,
      "start": 22.7858,
      "duration": 0.0943,
      "velocity": 127,
      "chip": "ym2612"
    },
    {
      "channel": 3,
      "note": 55,
      "start": 22.7887,
      "duration": 0.1249,
      "velocity": 86,
      "chip": "ym2612"
    },
    {
      "channel": 4,
      "note": 53,
      "start": 22.9331,
      "duration": 0.0334,
      "velocity": 98,
      "chip": "ym2612"
    },
    {
      "channel": 3,
      "note": 53,
      "start": 22.9396,
      "duration": 0.0514,
      "velocity": 86,
      "chip": "ym2612"
    },
    {
      "channel": 4,
      "note": 52,
      "start": 22.9943,
      "duration": 0.0179,
      "velocity": 98,
      "chip": "ym2612"
    },
    {
      "channel": 0,
      "note": 45,
      "start": 22.9966,
      "duration": 0.0269,
      "velocity": 127,
      "chip": "ym2612"
    },
    {
      "channel": 3,
      "note": 52,
      "start": 22.9992,
      "duration": 0.0429,
      "velocity": 86,
      "chip": "ym2612"
    },
    {
      "channel": 4,
      "note": 57,
      "start": 23.0518,
      "duration": 0.0441,
      "velocity": 98,
      "chip": "ym2612"
    },
    {
      "channel": 0,
      "note": 45,
      "start": 23.0544,
      "duration": 0.1414,
      "velocity": 127,
      "chip": "ym2612"
    },
    {
      "channel": 2,
      "note": 76,
      "start": 23.0584,
      "duration": 0.071,
      "velocity": 127,
      "chip": "ym2612"
    },
    {
      "channel": 1,
      "note": 45,
      "start": 23.0616,
      "duration": 0.2176,
      "velocity": 86,
      "chip": "ym2612"
    },
    {
      "channel": 3,
      "note": 57,
      "start": 23.0645,
      "duration": 0.2315,
      "velocity": 86,
      "chip": "ym2612"
    },
    {
      "channel": 4,
      "note": 57,
      "start": 23.1989,
      "duration": 0.0805,
      "velocity": 98,
      "chip": "ym2612"
    },
    {
      "channel": 2,
      "note": 76,
      "start": 23.2015,
      "duration": 0.0781,
      "velocity": 127,
      "chip": "ym2612"
    },
    {
      "channel": 4,
      "note": 55,
      "start": 23.3487,
      "duration": 0.0237,
      "velocity": 98,
      "chip": "ym2612"
    },
    {
      "channel": 2,
      "note": 73,
      "start": 23.3515,
      "duration": 0.021,
      "velocity": 127,
      "chip": "ym2612"
    },
    {
      "channel": 1,
      "note": 55,
      "start": 23.3576,
      "duration": 0.1028,
      "velocity": 86,
      "chip": "ym2612"
    },
    {
      "channel": 3,
      "note": 45,
      "start": 23.3599,
      "duration": 0.0884,
      "velocity": 86,
      "chip": "ym2612"
    },
    {
      "channel": 4,
      "note": 55,
      "start": 23.4116,
      "duration": 0.0185,
      "velocity": 98,
      "chip": "ym2612"
    },
    {
      "channel": 2,
      "note": 73,
      "start": 23.4141,
      "duration": 0.0281,
      "velocity": 127,
      "chip": "ym2612"
    },
    {
      "channel": 4,
      "note": 53,
      "start": 23.4692,
      "duration": 0.0447,
      "velocity": 98,
      "chip": "ym2612"
    },
    {
      "channel": 0,
      "note": 45,
      "start": 23.4732,
      "duration": 0.0739,
      "velocity": 127,
      "chip": "ym2612"
    },
    {
      "channel": 2,
      "note": 69,
      "start": 23.4758,
      "duration": 0.0716,
      "velocity": 127,
      "chip": "ym2612"
    },
    {
      "channel": 1,
      "note": 53,
      "start": 23.4785,
      "duration": 0.2352,
      "velocity": 86,
      "chip": "ym2612"
    },
    {
      "channel": 3,
      "note": 45,
      "start": 23.481,
      "duration": 0.2329,
      "velocity": 86,
      "chip": "ym2612"
    },
    {
      "channel": 4,
      "note": 53,
      "start": 23.6166,
      "duration": 0.0806,
      "velocity": 98,
      "chip": "ym2612"
    },
    {
      "channel": 0,
      "note": 45,
      "start": 23.6196,
      "duration": 0.1275,
      "velocity": 127,
      "chip": "ym2612"
    },
    {
      "channel": 2,
      "note": 69,
      "start": 23.6222,
      "duration": 0.0752,
      "velocity": 127,
      "chip": "ym2612"
    },
    {
      "channel": 4,
      "note": 52,
      "start": 23.7665,
      "duration": 0.0365,
      "velocity": 98,
      "chip": "ym2612"
    },
    {
      "channel": 2,
      "note": 66,
      "start": 23.7697,
      "duration": 0.0336,
      "velocity": 127,
      "chip": "ym2612"
    },
    {
      "channel": 1,
      "note": 52,
      "start": 23.7759,
      "duration": 0.0861,
      "velocity": 86,
      "chip": "ym2612"
    },
    {
      "channel": 3,
      "note": 45,
      "start": 23.7781,
      "duration": 0.0839,
      "velocity": 86,
      "chip": "ym2612"
    },
    {
      "channel": 4,
      "note": 52,
      "start": 23.8303,
      "duration": 0.0318,
      "velocity": 98,
      "chip": "ym2612"
    },
    {
      "channel": 0,
      "note": 45,
      "start": 23.8324,
      "duration": 0.0537,
      "velocity": 127,
      "chip": "ym2612"
    },
    {
      "channel": 2,
      "note": 66,
      "start": 23.8356,
      "duration": 0.0136,
      "velocity": 127,
      "chip": "ym2612"
    },
    {
      "channel": 4,
      "note": 50,
      "start": 23.8906,
      "duration": 0.0415,
      "velocity": 98,
      "chip": "ym2612"
    },
    {
      "channel": 0,
      "note": 45,
      "start": 23.8943,
      "duration": 0.1375,
      "velocity": 127,
      "chip": "ym2612"
    },
    {
      "channel": 1,
      "note": 45,
      "start": 23.9007,
      "duration": 0.3554,
      "velocity": 86,
      "chip": "ym2612"
    },
    {
      "channel": 3,
      "note": 50,
      "start": 23.9045,
      "duration": 0.3516,
      "velocity": 86,
      "chip": "ym2612"
    },
    {
      "channel": 4,
      "note": 50,
      "start": 24.0349,
      "duration": 0.0805,
      "velocity": 98,
      "chip": "ym2612"
    },
    {
      "channel": 4,
      "note": 50,
      "start": 24.1846,
      "duration": 0.0334,
      "velocity": 98,
      "chip": "ym2612"
    },
    {
      "channel": 4,
      "note": 50,
      "start": 24.2462,
      "duration": 0.0277,
      "velocity": 98,
      "chip": "ym2612"
    },
    {
      "channel": 4,
      "note": 53,
      "start": 24.3184,
      "duration": 0.0641,
      "velocity": 98,
      "chip": "ym2612"
    },
    {
      "channel": 0,
      "note": 45,
      "start": 24.321,
      "duration": 0.0613,
      "velocity": 127,
      "chip": "ym2612"
    },
    {
      "channel": 1,
      "note": 53,
      "start": 24.3238,
      "duration": 0.3904,
      "velocity": 86,
      "chip": "ym2612"
    },
    {
      "channel": 3,
      "note": 48,
      "start": 24.3264,
      "duration": 0.3934,
      "velocity": 86,
      "chip": "ym2612"
    },
    {
      "channel": 4,
      "note": 53,
      "start": 24.4685,
      "duration": 0.0473,
      "velocity": 98,
      "chip": "ym2612"
    },
    {
      "channel": 0,
      "note": 45,
      "start": 24.4712,
      "duration": 0.1111,
      "velocity": 127,
      "chip": "ym2612"
    },
    {
      "channel": 4,
      "note": 53,
      "start": 24.6185,
      "duration": 0.0263,
      "velocity": 98,
      "chip": "ym2612"
    },
    {
      "channel": 4,
      "note": 53,
      "start": 24.678,
      "duration": 0.0236,
      "velocity": 98,
      "chip": "ym2612"
    },
    {
      "channel": 0,
      "note": 45,
      "start": 24.6801,
      "duration": 0.0396,
      "velocity": 127,
      "chip": "ym2612"
    },
    {
      "channel": 4,
      "note": 52,
      "start": 24.7356,
      "duration": 0.0639,
      "velocity": 98,
      "chip": "ym2612"
    },
    {
      "channel": 1,
      "note": 52,
      "start": 24.7384,
      "duration": 0.3635,
      "velocity": 86,
      "chip": "ym2612"
    },
    {
      "channel": 3,
      "note": 47,
      "start": 24.7411,
      "duration": 0.3485,
      "velocity": 86,
      "chip": "ym2612"
    },
    {
      "channel": 4,
      "note": 52,
      "start": 24.8691,
      "duration": 0.0804,
      "velocity": 98,
      "chip": "ym2612"
    },
    {
      "channel": 0,
      "note": 45,
      "start": 24.8715,
      "duration": 0.1279,
      "velocity": 127,
      "chip": "ym2612"
    },
    {
      "channel": 4,
      "note": 52,
      "start": 25.019,
      "duration": 0.0193,
      "velocity": 98,
      "chip": "ym2612"
    },
    {
      "channel": 4,
      "note": 52,
      "start": 25.0788,
      "duration": 0.0232,
      "velocity": 98,
      "chip": "ym2612"
    },
    {
      "channel": 0,
      "note": 45,
      "start": 25.0811,
      "duration": 0.0207,
      "velocity": 127,
      "chip": "ym2612"
    },
    {
      "channel": 4,
      "note": 57,
      "start": 25.1292,
      "duration": 0.0368,
      "velocity": 98,
      "chip": "ym2612"
    },
    {
      "channel": 0,
      "note": 45,
      "start": 25.1315,
      "duration": 0.0678,
      "velocity": 127,
      "chip": "ym2612"
    },
    {
      "channel": 1,
      "note": 45,
      "start": 25.1337,
      "duration": 0.3625,
      "velocity": 86,
      "chip": "ym2612"
    },
    {
      "channel": 3,
      "note": 57,
      "start": 25.1359,
      "duration": 0.3432,
      "velocity": 86,
      "chip": "ym2612"
    },
    {
      "channel": 4,
      "note": 57,
      "start": 25.2687,
      "duration": 0.0474,
      "velocity": 98,
      "chip": "ym2612"
    },
    {
      "channel": 0,
      "note": 45,
      "start": 25.2714,
      "duration": 0.0945,
      "velocity": 127,
      "chip": "ym2612"
    },
    {
      "channel": 4,
      "note": 57,
      "start": 25.4022,
      "duration": 0.0321,
      "velocity": 98,
      "chip": "ym2612"
    },
    {
      "channel": 4,
      "note": 57,
      "start": 25.462,
      "duration": 0.0221,
      "velocity": 98,
      "chip": "ym2612"
    },
    {
      "channel": 4,
      "note": 50,
      "start": 25.519,
      "duration": 0.0639,
      "velocity": 98,
      "chip": "ym2612"
    },
    {
      "channel": 0,
      "note": 45,
      "start": 25.5217,
      "duration": 0.1112,
      "velocity": 127,
      "chip": "ym2612"
    },
    {
      "channel": 1,
      "note": 50,
      "start": 25.5245,
      "duration": 0.3591,
      "velocity": 86,
      "chip": "ym2612"
    },
    {
      "channel": 3,
      "note": 45,
      "start": 25.5269,
      "duration": 0.3443,
      "velocity": 86,
      "chip": "ym2612"
    },
    {
      "channel": 4,
      "note": 50,
      "start": 25.6523,
      "duration": 0.0807,
      "velocity": 98,
      "chip": "ym2612"
    },
    {
      "channel": 4,
      "note": 50,
      "start": 25.8023,
      "duration": 0.0259,
      "velocity": 98,
      "chip": "ym2612"
    },
    {
      "channel": 4,
      "note": 50,
      "start": 25.861,
      "duration": 0.0226,
      "velocity": 98,
      "chip": "ym2612"
    },
    {
      "channel": 4,
      "note": 53,
      "start": 25.9105,
      "duration": 0.072,
      "velocity": 98,
      "chip": "ym2612"
    },
    {
      "channel": 0,
      "note": 45,
      "start": 25.9129,
      "duration": 0.0693,
      "velocity": 127,
      "chip": "ym2612"
    },
    {
      "channel": 1,
      "note": 53,
      "start": 25.9154,
      "duration": 0.3761,
      "velocity": 86,
      "chip": "ym2612"
    },
    {
      "channel": 3,
      "note": 48,
      "start": 25.9186,
      "duration": 0.3729,
      "velocity": 86,
      "chip": "ym2612"
    },
    {
      "channel": 4,
      "note": 53,
      "start": 26.0522,
      "duration": 0.0468,
      "velocity": 98,
      "chip": "ym2612"
    },
    {
      "channel": 0,
      "note": 45,
      "start": 26.0549,
      "duration": 0.1107,
      "velocity": 127,
      "chip": "ym2612"
    },
    {
      "channel": 4,
      "note": 53,
      "start": 26.2019,
      "duration": 0.0266,
      "velocity": 98,
      "chip": "ym2612"
    },
    {
      "channel": 4,
      "note": 53,
      "start": 26.2552,
      "duration": 0.0239,
      "velocity": 98,
      "chip": "ym2612"
    },
    {
      "channel": 0,
      "note": 45,
      "start": 26.2581,
      "duration": 0.0332,
      "velocity": 127,
      "chip": "ym2612"
    },
    {
      "channel": 4,
      "note": 52,
      "start": 26.3133,
      "duration": 0.0524,
      "velocity": 98,
      "chip": "ym2612"
    },
    {
      "channel": 1,
      "note": 52,
      "start": 26.316,
      "duration": 0.352,
      "velocity": 86,
      "chip": "ym2612"
    },
    {
      "channel": 3,
      "note": 47,
      "start": 26.3184,
      "duration": 0.3497,
      "velocity": 86,
      "chip": "ym2612"
    },
    {
      "channel": 4,
      "note": 52,
      "start": 26.4349,
      "duration": 0.0808,
      "velocity": 98,
      "chip": "ym2612"
    },
    {
      "channel": 0,
      "note": 45,
      "start": 26.4373,
      "duration": 0.0949,
      "velocity": 127,
      "chip": "ym2612"
    },
    {
      "channel": 4,
      "note": 52,
      "start": 26.5849,
      "duration": 0.0262,
      "velocity": 98,
      "chip": "ym2612"
    },
    {
      "channel": 4,
      "note": 52,
      "start": 26.6442,
      "duration": 0.0239,
      "velocity": 98,
      "chip": "ym2612"
    },
    {
      "channel": 0,
      "note": 45,
      "start": 26.6467,
      "duration": 0.0212,
      "velocity": 127,
      "chip": "ym2612"
    },
    {
      "channel": 4,
      "note": 45,
      "start": 26.6959,
      "duration": 0.0708,
      "velocity": 98,
      "chip": "ym2612"
    },
    {
      "channel": 0,
      "note": 45,
      "start": 26.698,
      "duration": 0.0685,
      "velocity": 127,
      "chip": "ym2612"
    },
    {
      "channel": 1,
      "note": 57,
      "start": 26.7005,
      "duration": 0.3575,
      "velocity": 86,
      "chip": "ym2612"
    },
    {
      "channel": 3,
      "note": 45,
      "start": 26.7032,
      "duration": 0.3733,
      "velocity": 86,
      "chip": "ym2612"
    },
    {
      "channel": 4,
      "note": 45,
      "start": 26.836,
      "duration": 0.0639,
      "velocity": 98,
      "chip": "ym2612"
    },
    {
      "channel": 0,
      "note": 45,
      "start": 26.8386,
      "duration": 0.0945,
      "velocity": 127,
      "chip": "ym2612"
    },
    {
      "channel": 4,
      "note": 45,
      "start": 26.9859,
      "duration": 0.0267,
      "velocity": 98,
      "chip": "ym2612"
    },
    {
      "channel": 4,
      "note": 45,
      "start": 27.0394,
      "duration": 0.025,
      "velocity": 98,
      "chip": "ym2612"
    },
    {
      "channel": 4,
      "note": 50,
      "start": 27.097,
      "duration": 0.026,
      "velocity": 98,
      "chip": "ym2612"
    },
    {
      "channel": 0,
      "note": 45,
      "start": 27.0992,
      "duration": 0.0418,
      "velocity": 127,
      "chip": "ym2612"
    },
    {
      "channel": 1,
      "note": 50,
      "start": 27.1024,
      "duration": 0.2634,
      "velocity": 86,
      "chip": "ym2612"
    },
    {
      "channel": 3,
      "note": 45,
      "start": 27.1047,
      "duration": 0.2612,
      "velocity": 86,
      "chip": "ym2612"
    },
    {
      "channel": 4,
      "note": 50,
      "start": 27.1501,
      "duration": 0.0644,
      "velocity": 98,
      "chip": "ym2612"
    },
    {
      "channel": 4,
      "note": 50,
      "start": 27.2838,
      "duration": 0.027,
      "velocity": 98,
      "chip": "ym2612"
    },
    {
      "channel": 4,
      "note": 50,
      "start": 27.3443,
      "duration": 0.0217,
      "velocity": 98,
      "chip": "ym2612"
    },
    {
      "channel": 4,
      "note": 53,
      "start": 27.3939,
      "duration": 0.0716,
      "velocity": 98,
      "chip": "ym2612"
    },
    {
      "channel": 0,
      "note": 45,
      "start": 27.3962,
      "duration": 0.069,
      "velocity": 127,
      "chip": "ym2612"
    },
    {
      "channel": 1,
      "note": 48,
      "start": 27.3985,
      "duration": 0.369,
      "velocity": 86,
      "chip": "ym2612"
    },
    {
      "channel": 3,
      "note": 53,
      "start": 27.4007,
      "duration": 0.3728,
      "velocity": 86,
      "chip": "ym2612"
    },
    {
      "channel": 4,
      "note": 53,
      "start": 27.5347,
      "duration": 0.064,
      "velocity": 98,
      "chip": "ym2612"
    },
    {
      "channel": 0,
      "note": 45,
      "start": 27.5373,
      "duration": 0.1113,
      "velocity": 127,
      "chip": "ym2612"
    },
    {
      "channel": 4,
      "note": 53,
      "start": 27.6848,
      "duration": 0.0266,
      "velocity": 98,
      "chip": "ym2612"
    },
    {
      "channel": 4,
      "note": 53,
      "start": 27.738,
      "duration": 0.0295,
      "velocity": 98,
      "chip": "ym2612"
    },
    {
      "channel": 0,
      "note": 45,
      "start": 27.7414,
      "duration": 0.0321,
      "velocity": 127,
      "chip": "ym2612"
    },
    {
      "channel": 4,
      "note": 52,
      "start": 27.7953,
      "duration": 0.0539,
      "velocity": 98,
      "chip": "ym2612"
    },
    {
      "channel": 1,
      "note": 52,
      "start": 27.7976,
      "duration": 0.353,
      "velocity": 86,
      "chip": "ym2612"
    },
    {
      "channel": 3,
      "note": 47,
      "start": 27.8,
      "duration": 0.3507,
      "velocity": 86,
      "chip": "ym2612"
    },
    {
      "channel": 4,
      "note": 52,
      "start": 27.9185,
      "duration": 0.0808,
      "velocity": 98,
      "chip": "ym2612"
    },
    {
      "channel": 0,
      "note": 45,
      "start": 27.9208,
      "duration": 0.095,
      "velocity": 127,
      "chip": "ym2612"
    },
    {
      "channel": 4,
      "note": 52,
      "start": 28.0685,
      "duration": 0.0265,
      "velocity": 98,
      "chip": "ym2612"
    },
    {
      "channel": 4,
      "note": 52,
      "start": 28.1277,
      "duration": 0.023,
      "velocity": 98,
      "chip": "ym2612"
    },
    {
      "channel": 0,
      "note": 45,
      "start": 28.13,
      "duration": 0.0206,
      "velocity": 127,
      "chip": "ym2612"
    },
    {
      "channel": 4,
      "note": 57,
      "start": 28.1783,
      "duration": 0.0712,
      "velocity": 98,
      "chip": "ym2612"
    },
    {
      "channel": 0,
      "note": 45,
      "start": 28.1802,
      "duration": 0.069,
      "velocity": 127,
      "chip": "ym2612"
    },
    {
      "channel": 1,
      "note": 57,
      "start": 28.1828,
      "duration": 0.3761,
      "velocity": 86,
      "chip": "ym2612"
    },
    {
      "channel": 3,
      "note": 45,
      "start": 28.1851,
      "duration": 0.3739,
      "velocity": 86,
      "chip": "ym2612"
    },
    {
      "channel": 4,
      "note": 57,
      "start": 28.3186,
      "duration": 0.0641,
      "velocity": 98,
      "chip": "ym2612"
    },
    {
      "channel": 0,
      "note": 45,
      "start": 28.3213,
      "duration": 0.0947,
      "velocity": 127,
      "chip": "ym2612"
    },
    {
      "channel": 4,
      "note": 57,
      "start": 28.4688,
      "duration": 0.0132,
      "velocity": 98,
      "chip": "ym2612"
    },
    {
      "channel": 4,
      "note": 57,
      "start": 28.5212,
      "duration": 0.0193,
      "velocity": 98,
      "chip": "ym2612"
    },
    {
      "channel": 4,
      "note": 57,
      "start": 28.5802,
      "duration": 0.0201,
      "velocity": 98,
      "chip": "ym2612"
    },
    {
      "channel": 0,
      "note": 45,
      "start": 28.5824,
      "duration": 0.0232,
      "velocity": 127,
      "chip": "ym2612"
    },
    {
      "channel": 1,
      "note": 57,
      "start": 28.586,
      "duration": 1.4788,
      "velocity": 86,
      "chip": "ym2612"
    },
    {
      "channel": 3,
      "note": 45,
      "start": 28.5885,
      "duration": 0.0428,
      "velocity": 86,
      "chip": "ym2612"
    },
    {
      "channel": 4,
      "note": 55,
      "start": 28.6342,
      "duration": 0.0641,
      "velocity": 98,
      "chip": "ym2612"
    },
    {
      "channel": 0,
      "note": 45,
      "start": 28.6364,
      "duration": 0.0783,
      "velocity": 127,
      "chip": "ym2612"
    },
    {
      "channel": 3,
      "note": 55,
      "start": 28.6388,
      "duration": 0.1261,
      "velocity": 86,
      "chip": "ym2612"
    },
    {
      "channel": 4,
      "note": 53,
      "start": 28.7677,
      "duration": 0.0266,
      "velocity": 98,
      "chip": "ym2612"
    },
    {
      "channel": 3,
      "note": 53,
      "start": 28.7742,
      "duration": 0.0394,
      "velocity": 86,
      "chip": "ym2612"
    },
    {
      "channel": 4,
      "note": 52,
      "start": 28.8288,
      "duration": 0.025,
      "velocity": 98,
      "chip": "ym2612"
    },
    {
      "channel": 0,
      "note": 45,
      "start": 28.8313,
      "duration": 0.0223,
      "velocity": 127,
      "chip": "ym2612"
    },
    {
      "channel": 3,
      "note": 52,
      "start": 28.8336,
      "duration": 0.038,
      "velocity": 86,
      "chip": "ym2612"
    },
    {
      "channel": 4,
      "note": 57,
      "start": 28.8801,
      "duration": 0.0698,
      "velocity": 98,
      "chip": "ym2612"
    },
    {
      "channel": 0,
      "note": 45,
      "start": 28.8832,
      "duration": 0.0665,
      "velocity": 127,
      "chip": "ym2612"
    },
    {
      "channel": 3,
      "note": 57,
      "start": 28.886,
      "duration": 0.1305,
      "velocity": 86,
      "chip": "ym2612"
    },
    {
      "channel": 4,
      "note": 55,
      "start": 29.0194,
      "duration": 0.0471,
      "velocity": 98,
      "chip": "ym2612"
    },
    {
      "channel": 0,
      "note": 45,
      "start": 29.0221,
      "duration": 0.111,
      "velocity": 127,
      "chip": "ym2612"
    },
    {
      "channel": 3,
      "note": 55,
      "start": 29.0249,
      "duration": 0.1415,
      "velocity": 86,
      "chip": "ym2612"
    },
    {
      "channel": 4,
      "note": 53,
      "start": 29.1694,
      "duration": 0.027,
      "velocity": 98,
      "chip": "ym2612"
    },
    {
      "channel": 3,
      "note": 53,
      "start": 29.1756,
      "duration": 0.0399,
      "velocity": 86,
      "chip": "ym2612"
    },
    {
      "channel": 4,
      "note": 52,
      "start": 29.2238,
      "duration": 0.0315,
      "velocity": 98,
      "chip": "ym2612"
    },
    {
      "channel": 0,
      "note": 45,
      "start": 29.2259,
      "duration": 0.0292,
      "velocity": 127,
      "chip": "ym2612"
    },
    {
      "channel": 3,
      "note": 52,
      "start": 29.2293,
      "duration": 0.0376,
      "velocity": 86,
      "chip": "ym2612"
    },
    {
      "channel": 4,
      "note": 57,
      "start": 29.2813,
      "duration": 0.036,
      "velocity": 98,
      "chip": "ym2612"
    },
    {
      "channel": 0,
      "note": 45,
      "start": 29.2843,
      "duration": 0.0495,
      "velocity": 127,
      "chip": "ym2612"
    },
    {
      "channel": 3,
      "note": 57,
      "start": 29.2867,
      "duration": 0.1306,
      "velocity": 86,
      "chip": "ym2612"
    },
    {
      "channel": 4,
      "note": 55,
      "start": 29.42,
      "duration": 0.0305,
      "velocity": 98,
      "chip": "ym2612"
    },
    {
      "channel": 0,
      "note": 45,
      "start": 29.4227,
      "duration": 0.0777,
      "velocity": 127,
      "chip": "ym2612"
    },
    {
      "channel": 3,
      "note": 55,
      "start": 29.4255,
      "duration": 0.125,
      "velocity": 86,
      "chip": "ym2612"
    },
    {
      "channel": 4,
      "note": 53,
      "start": 29.5533,
      "duration": 0.0211,
      "velocity": 98,
      "chip": "ym2612"
    },
    {
      "channel": 3,
      "note": 53,
      "start": 29.5596,
      "duration": 0.04,
      "velocity": 86,
      "chip": "ym2612"
    },
    {
      "channel": 4,
      "note": 52,
      "start": 29.615,
      "duration": 0.0246,
      "velocity": 98,
      "chip": "ym2612"
    },
    {
      "channel": 0,
      "note": 45,
      "start": 29.6175,
      "duration": 0.022,
      "velocity": 127,
      "chip": "ym2612"
    },
    {
      "channel": 3,
      "note": 52,
      "start": 29.6199,
      "duration": 0.0371,
      "velocity": 86,
      "chip": "ym2612"
    },
    {
      "channel": 4,
      "note": 57,
      "start": 29.666,
      "duration": 0.0358,
      "velocity": 98,
      "chip": "ym2612"
    },
    {
      "channel": 0,
      "note": 45,
      "start": 29.6689,
      "duration": 0.0661,
      "velocity": 127,
      "chip": "ym2612"
    },
    {
      "channel": 3,
      "note": 57,
      "start": 29.6712,
      "duration": 0.1305,
      "velocity": 86,
      "chip": "ym2612"
    },
    {
      "channel": 4,
      "note": 55,
      "start": 29.8044,
      "duration": 0.0474,
      "velocity": 98,
      "chip": "ym2612"
    },
    {
      "channel": 0,
      "note": 45,
      "start": 29.8071,
      "duration": 0.0945,
      "velocity": 127,
      "chip": "ym2612"
    },
    {
      "channel": 3,
      "note": 55,
      "start": 29.81,
      "duration": 0.1083,
      "velocity": 86,
      "chip": "ym2612"
    },
    {
      "channel": 4,
      "note": 53,
      "start": 29.9546,
      "duration": 0.0274,
      "velocity": 98,
      "chip": "ym2612"
    },
    {
      "channel": 3,
      "note": 53,
      "start": 29.9611,
      "duration": 0.0456,
      "velocity": 86,
      "chip": "ym2612"
    },
    {
      "channel": 4,
      "note": 52,
      "start": 30.0092,
      "duration": 0.0189,
      "velocity": 98,
      "chip": "ym2612"
    },
    {
      "channel": 0,
      "note": 45,
      "start": 30.0117,
      "duration": 0.0293,
      "velocity": 127,
      "chip": "ym2612"
    },
    {
      "channel": 3,
      "note": 52,
      "start": 30.0152,
      "duration": 0.0373,
      "velocity": 86,
      "chip": "ym2612"
    },
    {
      "channel": 4,
      "note": 57,
      "start": 30.0672,
      "duration": 0.0362,
      "velocity": 98,
      "chip": "ym2612"
    },
    {
      "channel": 0,
      "note": 45,
      "start": 30.0703,
      "duration": 0.1329,
      "velocity": 127,
      "chip": "ym2612"
    },
    {
      "channel": 2,
      "note": 76,
      "start": 30.0737,
      "duration": 0.0465,
      "velocity": 127,
      "chip": "ym2612"
    },
    {
      "channel": 1,
      "note": 45,
      "start": 30.0764,
      "duration": 0.1935,
      "velocity": 86,
      "chip": "ym2612"
    },
    {
      "channel": 3,
      "note": 57,
      "start": 30.0801,
      "duration": 0.2066,
      "velocity": 86,
      "chip": "ym2612"
    },
    {
      "channel": 4,
      "note": 57,
      "start": 30.2063,
      "duration": 0.0638,
      "velocity": 98,
      "chip": "ym2612"
    },
    {
      "channel": 2,
      "note": 76,
      "start": 30.209,
      "duration": 0.0613,
      "velocity": 127,
      "chip": "ym2612"
    },
    {
      "channel": 4,
      "note": 55,
      "start": 30.3395,
      "duration": 0.0236,
      "velocity": 98,
      "chip": "ym2612"
    },
    {
      "channel": 2,
      "note": 73,
      "start": 30.3424,
      "duration": 0.0207,
      "velocity": 127,
      "chip": "ym2612"
    },
    {
      "channel": 1,
      "note": 55,
      "start": 30.3485,
      "duration": 0.0961,
      "velocity": 86,
      "chip": "ym2612"
    },
    {
      "channel": 3,
      "note": 45,
      "start": 30.3507,
      "duration": 0.0877,
      "velocity": 86,
      "chip": "ym2612"
    },
    {
      "channel": 4,
      "note": 55,
      "start": 30.4022,
      "duration": 0.018,
      "velocity": 98,
      "chip": "ym2612"
    },
    {
      "channel": 2,
      "note": 73,
      "start": 30.4047,
      "duration": 0.022,
      "velocity": 127,
      "chip": "ym2612"
    },
    {
      "channel": 4,
      "note": 53,
      "start": 30.453,
      "duration": 0.0345,
      "velocity": 98,
      "chip": "ym2612"
    },
    {
      "channel": 0,
      "note": 45,
      "start": 30.4553,
      "duration": 0.0654,
      "velocity": 127,
      "chip": "ym2612"
    },
    {
      "channel": 2,
      "note": 69,
      "start": 30.4576,
      "duration": 0.0634,
      "velocity": 127,
      "chip": "ym2612"
    },
    {
      "channel": 1,
      "note": 53,
      "start": 30.4609,
      "duration": 0.2263,
      "velocity": 86,
      "chip": "ym2612"
    },
    {
      "channel": 3,
      "note": 45,
      "start": 30.4632,
      "duration": 0.2242,
      "velocity": 86,
      "chip": "ym2612"
    },
    {
      "channel": 4,
      "note": 53,
      "start": 30.5902,
      "duration": 0.0639,
      "velocity": 98,
      "chip": "ym2612"
    },
    {
      "channel": 0,
      "note": 45,
      "start": 30.5932,
      "duration": 0.1108,
      "velocity": 127,
      "chip": "ym2612"
    },
    {
      "channel": 2,
      "note": 69,
      "start": 30.5958,
      "duration": 0.0585,
      "velocity": 127,
      "chip": "ym2612"
    },
    {
      "channel": 4,
      "note": 52,
      "start": 30.7401,
      "duration": 0.0301,
      "velocity": 98,
      "chip": "ym2612"
    },
    {
      "channel": 2,
      "note": 66,
      "start": 30.7432,
      "duration": 0.0271,
      "velocity": 127,
      "chip": "ym2612"
    },
    {
      "channel": 1,
      "note": 52,
      "start": 30.7494,
      "duration": 0.0783,
      "velocity": 86,
      "chip": "ym2612"
    },
    {
      "channel": 3,
      "note": 45,
      "start": 30.7517,
      "duration": 0.0762,
      "velocity": 86,
      "chip": "ym2612"
    },
    {
      "channel": 4,
      "note": 52,
      "start": 30.7978,
      "duration": 0.0301,
      "velocity": 98,
      "chip": "ym2612"
    },
    {
      "channel": 0,
      "note": 45,
      "start": 30.8,
      "duration": 0.0522,
      "velocity": 127,
      "chip": "ym2612"
    },
    {
      "channel": 2,
      "note": 66,
      "start": 30.8024,
      "duration": 0.0135,
      "velocity": 127,
      "chip": "ym2612"
    },
    {
      "channel": 4,
      "note": 50,
      "start": 30.8556,
      "duration": 0.0322,
      "velocity": 98,
      "chip": "ym2612"
    },
    {
      "channel": 0,
      "note": 45,
      "start": 30.8598,
      "duration": 0.1278,
      "velocity": 127,
      "chip": "ym2612"
    },
    {
      "channel": 1,
      "note": 45,
      "start": 30.8644,
      "duration": 0.3248,
      "velocity": 86,
      "chip": "ym2612"
    },
    {
      "channel": 3,
      "note": 50,
      "start": 30.8693,
      "duration": 0.32,
      "velocity": 86,
      "chip": "ym2612"
    },
    {
      "channel": 4,
      "note": 50,
      "start": 30.9907,
      "duration": 0.0637,
      "velocity": 98,
      "chip": "ym2612"
    },
    {
      "channel": 4,
      "note": 50,
      "start": 31.1237,
      "duration": 0.0334,
      "velocity": 98,
      "chip": "ym2612"
    },
    {
      "channel": 4,
      "note": 50,
      "start": 31.1852,
      "duration": 0.0213,
      "velocity": 98,
      "chip": "ym2612"
    },
    {
      "channel": 4,
      "note": 53,
      "start": 31.2341,
      "duration": 0.0708,
      "velocity": 98,
      "chip": "ym2612"
    },
    {
      "channel": 0,
      "note": 45,
      "start": 31.2365,
      "duration": 0.0682,
      "velocity": 127,
      "chip": "ym2612"
    },
    {
      "channel": 1,
      "note": 53,
      "start": 31.239,
      "duration": 0.3741,
      "velocity": 86,
      "chip": "ym2612"
    },
    {
      "channel": 3,
      "note": 48,
      "start": 31.2413,
      "duration": 0.3845,
      "velocity": 86,
      "chip": "ym2612"
    },
    {
      "channel": 4,
      "note": 53,
      "start": 31.3744,
      "duration": 0.0473,
      "velocity": 98,
      "chip": "ym2612"
    },
    {
      "channel": 0,
      "note": 45,
      "start": 31.377,
      "duration": 0.1111,
      "velocity": 127,
      "chip": "ym2612"
    },
    {
      "channel": 4,
      "note": 53,
      "start": 31.5244,
      "duration": 0.0263,
      "velocity": 98,
      "chip": "ym2612"
    },
    {
      "channel": 4,
      "note": 53,
      "start": 31.5774,
      "duration": 0.03,
      "velocity": 98,
      "chip": "ym2612"
    },
    {
      "channel": 0,
      "note": 45,
      "start": 31.5804,
      "duration": 0.0452,
      "velocity": 127,
      "chip": "ym2612"
    },
    {
      "channel": 4,
      "note": 52,
      "start": 31.6351,
      "duration": 0.0536,
      "velocity": 98,
      "chip": "ym2612"
    },
    {
      "channel": 1,
      "note": 52,
      "start": 31.6373,
      "duration": 0.3545,
      "velocity": 86,
      "chip": "ym2612"
    },
    {
      "channel": 3,
      "note": 47,
      "start": 31.6396,
      "duration": 0.3459,
      "velocity": 86,
      "chip": "ym2612"
    },
    {
      "channel": 4,
      "note": 52,
      "start": 31.7752,
      "duration": 0.0636,
      "velocity": 98,
      "chip": "ym2612"
    },
    {
      "channel": 0,
      "note": 45,
      "start": 31.7776,
      "duration": 0.1111,
      "velocity": 127,
      "chip": "ym2612"
    },
    {
      "channel": 4,
      "note": 52,
      "start": 31.9083,
      "duration": 0.0196,
      "velocity": 98,
      "chip": "ym2612"
    },
    {
      "channel": 4,
      "note": 52,
      "start": 31.9683,
      "duration": 0.0236,
      "velocity": 98,
      "chip": "ym2612"
    },
    {
      "channel": 0,
      "note": 45,
      "start": 31.9705,
      "duration": 0.0212,
      "velocity": 127,
      "chip": "ym2612"
    },
    {
      "channel": 4,
      "note": 57,
      "start": 32.0263,
      "duration": 0.0304,
      "velocity": 98,
      "chip": "ym2612"
    },
    {
      "channel": 0,
      "note": 45,
      "start": 32.0289,
      "duration": 0.061,
      "velocity": 127,
      "chip": "ym2612"
    },
    {
      "channel": 1,
      "note": 45,
      "start": 32.0317,
      "duration": 0.3499,
      "velocity": 86,
      "chip": "ym2612"
    },
    {
      "channel": 3,
      "note": 57,
      "start": 32.0342,
      "duration": 0.3287,
      "velocity": 86,
      "chip": "ym2612"
    },
    {
      "channel": 4,
      "note": 57,
      "start": 32.1593,
      "duration": 0.0474,
      "velocity": 98,
      "chip": "ym2612"
    },
    {
      "channel": 0,
      "note": 45,
      "start": 32.162,
      "duration": 0.0778,
      "velocity": 127,
      "chip": "ym2612"
    },
    {
      "channel": 4,
      "note": 57,
      "start": 32.2928,
      "duration": 0.0263,
      "velocity": 98,
      "chip": "ym2612"
    },
    {
      "channel": 4,
      "note": 57,
      "start": 32.3459,
      "duration": 0.0241,
      "velocity": 98,
      "chip": "ym2612"
    },
    {
      "channel": 4,
      "note": 50,
      "start": 32.396,
      "duration": 0.0622,
      "velocity": 98,
      "chip": "ym2612"
    },
    {
      "channel": 0,
      "note": 45,
      "start": 32.3993,
      "duration": 0.0921,
      "velocity": 127,
      "chip": "ym2612"
    },
    {
      "channel": 1,
      "note": 50,
      "start": 32.4018,
      "duration": 0.3353,
      "velocity": 86,
      "chip": "ym2612"
    },
    {
      "channel": 3,
      "note": 45,
      "start": 32.4041,
      "duration": 0.3261,
      "velocity": 86,
      "chip": "ym2612"
    },
    {
      "channel": 4,
      "note": 50,
      "start": 32.5275,
      "duration": 0.0641,
      "velocity": 98,
      "chip": "ym2612"
    },
    {
      "channel": 4,
      "note": 50,
      "start": 32.6608,
      "duration": 0.0265,
      "velocity": 98,
      "chip": "ym2612"
    },
    {
      "channel": 4,
      "note": 50,
      "start": 32.7136,
      "duration": 0.0235,
      "velocity": 98,
      "chip": "ym2612"
    },
    {
      "channel": 4,
      "note": 53,
      "start": 32.7631,
      "duration": 0.0456,
      "velocity": 98,
      "chip": "ym2612"
    },
    {
      "channel": 0,
      "note": 45,
      "start": 32.7662,
      "duration": 0.0422,
      "velocity": 127,
      "chip": "ym2612"
    },
    {
      "channel": 1,
      "note": 53,
      "start": 32.7687,
      "duration": 0.3428,
      "velocity": 86,
      "chip": "ym2612"
    },
    {
      "channel": 3,
      "note": 48,
      "start": 32.7712,
      "duration": 0.3404,
      "velocity": 86,
      "chip": "ym2612"
    },
    {
      "channel": 4,
      "note": 53,
      "start": 32.8785,
      "duration": 0.0468,
      "velocity": 98,
      "chip": "ym2612"
    },
    {
      "channel": 0,
      "note": 45,
      "start": 32.8811,
      "duration": 0.1107,
      "velocity": 127,
      "chip": "ym2612"
    },
    {
      "channel": 4,
      "note": 53,
      "start": 33.0281,
      "duration": 0.0266,
      "velocity": 98,
      "chip": "ym2612"
    },
    {
      "channel": 4,
      "note": 53,
      "start": 33.0814,
      "duration": 0.0237,
      "velocity": 98,
      "chip": "ym2612"
    },
    {
      "channel": 0,
      "note": 45,
      "start": 33.0843,
      "duration": 0.0271,
      "velocity": 127,
      "chip": "ym2612"
    },
    {
      "channel": 4,
      "note": 52,
      "start": 33.1319,
      "duration": 0.0432,
      "velocity": 98,
      "chip": "ym2612"
    },
    {
      "channel": 1,
      "note": 52,
      "start": 33.1348,
      "duration": 0.3381,
      "velocity": 86,
      "chip": "ym2612"
    },
    {
      "channel": 3,
      "note": 47,
      "start": 33.138,
      "duration": 0.3349,
      "velocity": 86,
      "chip": "ym2612"
    },
    {
      "channel": 4,
      "note": 52,
      "start": 33.2444,
      "duration": 0.0641,
      "velocity": 98,
      "chip": "ym2612"
    },
    {
      "channel": 0,
      "note": 45,
      "start": 33.2467,
      "duration": 0.0948,
      "velocity": 127,
      "chip": "ym2612"
    },
    {
      "channel": 4,
      "note": 52,
      "start": 33.3944,
      "duration": 0.0273,
      "velocity": 98,
      "chip": "ym2612"
    },
    {
      "channel": 4,
      "note": 52,
      "start": 33.4484,
      "duration": 0.0246,
      "velocity": 98,
      "chip": "ym2612"
    },
    {
      "channel": 0,
      "note": 45,
      "start": 33.4519,
      "duration": 0.0209,
      "velocity": 127,
      "chip": "ym2612"
    },
    {
      "channel": 4,
      "note": 45,
      "start": 33.4994,
      "duration": 0.0442,
      "velocity": 98,
      "chip": "ym2612"
    },
    {
      "channel": 0,
      "note": 45,
      "start": 33.5016,
      "duration": 0.0418,
      "velocity": 127,
      "chip": "ym2612"
    },
    {
      "channel": 1,
      "note": 57,
      "start": 33.5048,
      "duration": 0.3129,
      "velocity": 86,
      "chip": "ym2612"
    },
    {
      "channel": 3,
      "note": 45,
      "start": 33.5075,
      "duration": 0.329,
      "velocity": 86,
      "chip": "ym2612"
    },
    {
      "channel": 4,
      "note": 45,
      "start": 33.6127,
      "duration": 0.0641,
      "velocity": 98,
      "chip": "ym2612"
    },
    {
      "channel": 0,
      "note": 45,
      "start": 33.6154,
      "duration": 0.0946,
      "velocity": 127,
      "chip": "ym2612"
    },
    {
      "channel": 4,
      "note": 45,
      "start": 33.7462,
      "duration": 0.0326,
      "velocity": 98,
      "chip": "ym2612"
    },
    {
      "channel": 4,
      "note": 45,
      "start": 33.8067,
      "duration": 0.0237,
      "velocity": 98,
      "chip": "ym2612"
    },
    {
      "channel": 4,
      "note": 50,
      "start": 33.8582,
      "duration": 0.0263,
      "velocity": 98,
      "chip": "ym2612"
    },
    {
      "channel": 0,
      "note": 45,
      "start": 33.8605,
      "duration": 0.0422,
      "velocity": 127,
      "chip": "ym2612"
    },
    {
      "channel": 1,
      "note": 50,
      "start": 33.863,
      "duration": 0.2382,
      "velocity": 86,
      "chip": "ym2612"
    },
    {
      "channel": 3,
      "note": 45,
      "start": 33.8664,
      "duration": 0.2349,
      "velocity": 86,
      "chip": "ym2612"
    },
    {
      "channel": 4,
      "note": 50,
      "start": 33.9116,
      "duration": 0.0379,
      "velocity": 98,
      "chip": "ym2612"
    },
    {
      "channel": 4,
      "note": 50,
      "start": 34.0188,
      "duration": 0.027,
      "velocity": 98,
      "chip": "ym2612"
    },
    {
      "channel": 4,
      "note": 50,
      "start": 34.0725,
      "duration": 0.0288,
      "velocity": 98,
      "chip": "ym2612"
    },
    {
      "channel": 4,
      "note": 53,
      "start": 34.129,
      "duration": 0.055,
      "velocity": 98,
      "chip": "ym2612"
    },
    {
      "channel": 0,
      "note": 45,
      "start": 34.1313,
      "duration": 0.0524,
      "velocity": 127,
      "chip": "ym2612"
    },
    {
      "channel": 1,
      "note": 48,
      "start": 34.1336,
      "duration": 0.3294,
      "velocity": 86,
      "chip": "ym2612"
    },
    {
      "channel": 3,
      "note": 53,
      "start": 34.1359,
      "duration": 0.339,
      "velocity": 86,
      "chip": "ym2612"
    },
    {
      "channel": 4,
      "note": 53,
      "start": 34.2532,
      "duration": 0.0641,
      "velocity": 98,
      "chip": "ym2612"
    },
    {
      "channel": 0,
      "note": 45,
      "start": 34.2558,
      "duration": 0.1114,
      "velocity": 127,
      "chip": "ym2612"
    },
    {
      "channel": 4,
      "note": 53,
      "start": 34.3866,
      "duration": 0.0263,
      "velocity": 98,
      "chip": "ym2612"
    },
    {
      "channel": 4,
      "note": 53,
      "start": 34.4394,
      "duration": 0.0237,
      "velocity": 98,
      "chip": "ym2612"
    },
    {
      "channel": 0,
      "note": 45,
      "start": 34.4428,
      "duration": 0.032,
      "velocity": 127,
      "chip": "ym2612"
    },
    {
      "channel": 4,
      "note": 52,
      "start": 34.4966,
      "duration": 0.0539,
      "velocity": 98,
      "chip": "ym2612"
    },
    {
      "channel": 1,
      "note": 52,
      "start": 34.4989,
      "duration": 0.3314,
      "velocity": 86,
      "chip": "ym2612"
    },
    {
      "channel": 3,
      "note": 47,
      "start": 34.5013,
      "duration": 0.3291,
      "velocity": 86,
      "chip": "ym2612"
    },
    {
      "channel": 4,
      "note": 52,
      "start": 34.6198,
      "duration": 0.0641,
      "velocity": 98,
      "chip": "ym2612"
    },
    {
      "channel": 0,
      "note": 45,
      "start": 34.6222,
      "duration": 0.0783,
      "velocity": 127,
      "chip": "ym2612"
    },
    {
      "channel": 4,
      "note": 52,
      "start": 34.7532,
      "duration": 0.0265,
      "velocity": 98,
      "chip": "ym2612"
    },
    {
      "channel": 4,
      "note": 52,
      "start": 34.8058,
      "duration": 0.0246,
      "velocity": 98,
      "chip": "ym2612"
    },
    {
      "channel": 0,
      "note": 45,
      "start": 34.809,
      "duration": 0.0212,
      "velocity": 127,
      "chip": "ym2612"
    },
    {
      "channel": 4,
      "note": 57,
      "start": 34.8568,
      "duration": 0.0612,
      "velocity": 98,
      "chip": "ym2612"
    },
    {
      "channel": 0,
      "note": 45,
      "start": 34.859,
      "duration": 0.0588,
      "velocity": 127,
      "chip": "ym2612"
    },
    {
      "channel": 1,
      "note": 57,
      "start": 34.8622,
      "duration": 0.3491,
      "velocity": 86,
      "chip": "ym2612"
    },
    {
      "channel": 3,
      "note": 45,
      "start": 34.8647,
      "duration": 0.3468,
      "velocity": 86,
      "chip": "ym2612"
    },
    {
      "channel": 4,
      "note": 57,
      "start": 34.9872,
      "duration": 0.064,
      "velocity": 98,
      "chip": "ym2612"
    },
    {
      "channel": 0,
      "note": 45,
      "start": 34.9899,
      "duration": 0.0778,
      "velocity": 127,
      "chip": "ym2612"
    },
    {
      "channel": 4,
      "note": 57,
      "start": 35.1208,
      "duration": 0.02,
      "velocity": 98,
      "chip": "ym2612"
    },
    {
      "channel": 4,
      "note": 57,
      "start": 35.1736,
      "duration": 0.0196,
      "velocity": 98,
      "chip": "ym2612"
    },
    {
      "channel": 4,
      "note": 57,
      "start": 35.2273,
      "duration": 0.0193,
      "velocity": 98,
      "chip": "ym2612"
    },
    {
      "channel": 0,
      "note": 45,
      "start": 35.2297,
      "duration": 0.0236,
      "velocity": 127,
      "chip": "ym2612"
    },
    {
      "channel": 1,
      "note": 57,
      "start": 35.2322,
      "duration": 1.3697,
      "velocity": 86,
      "chip": "ym2612"
    },
    {
      "channel": 3,
      "note": 45,
      "start": 35.2356,
      "duration": 0.0419,
      "velocity": 86,
      "chip": "ym2612"
    },
    {
      "channel": 4,
      "note": 55,
      "start": 35.2813,
      "duration": 0.0537,
      "velocity": 98,
      "chip": "ym2612"
    },
    {
      "channel": 0,
      "note": 45,
      "start": 35.2835,
      "duration": 0.068,
      "velocity": 127,
      "chip": "ym2612"
    },
    {
      "channel": 3,
      "note": 55,
      "start": 35.286,
      "duration": 0.1156,
      "velocity": 86,
      "chip": "ym2612"
    },
    {
      "channel": 4,
      "note": 53,
      "start": 35.4044,
      "duration": 0.0269,
      "velocity": 98,
      "chip": "ym2612"
    },
    {
      "channel": 3,
      "note": 53,
      "start": 35.4108,
      "duration": 0.0398,
      "velocity": 86,
      "chip": "ym2612"
    },
    {
      "channel": 4,
      "note": 52,
      "start": 35.4586,
      "duration": 0.0258,
      "velocity": 98,
      "chip": "ym2612"
    },
    {
      "channel": 0,
      "note": 45,
      "start": 35.4611,
      "duration": 0.023,
      "velocity": 127,
      "chip": "ym2612"
    },
    {
      "channel": 3,
      "note": 52,
      "start": 35.4644,
      "duration": 0.0382,
      "velocity": 86,
      "chip": "ym2612"
    },
    {
      "channel": 4,
      "note": 57,
      "start": 35.5113,
      "duration": 0.0424,
      "velocity": 98,
      "chip": "ym2612"
    },
    {
      "channel": 0,
      "note": 45,
      "start": 35.5134,
      "duration": 0.0401,
      "velocity": 127,
      "chip": "ym2612"
    },
    {
      "channel": 3,
      "note": 57,
      "start": 35.5162,
      "duration": 0.1041,
      "velocity": 86,
      "chip": "ym2612"
    },
    {
      "channel": 4,
      "note": 55,
      "start": 35.6233,
      "duration": 0.0471,
      "velocity": 98,
      "chip": "ym2612"
    },
    {
      "channel": 0,
      "note": 45,
      "start": 35.6259,
      "duration": 0.1109,
      "velocity": 127,
      "chip": "ym2612"
    },
    {
      "channel": 3,
      "note": 55,
      "start": 35.6287,
      "duration": 0.1416,
      "velocity": 86,
      "chip": "ym2612"
    },
    {
      "channel": 4,
      "note": 53,
      "start": 35.7732,
      "duration": 0.0269,
      "velocity": 98,
      "chip": "ym2612"
    },
    {
      "channel": 3,
      "note": 53,
      "start": 35.7795,
      "duration": 0.0329,
      "velocity": 86,
      "chip": "ym2612"
    },
    {
      "channel": 4,
      "note": 52,
      "start": 35.8274,
      "duration": 0.0245,
      "velocity": 98,
      "chip": "ym2612"
    },
    {
      "channel": 0,
      "note": 45,
      "start": 35.8295,
      "duration": 0.0222,
      "velocity": 127,
      "chip": "ym2612"
    },
    {
      "channel": 3,
      "note": 52,
      "start": 35.8329,
      "duration": 0.0375,
      "velocity": 86,
      "chip": "ym2612"
    },
    {
      "channel": 4,
      "note": 57,
      "start": 35.8788,
      "duration": 0.0257,
      "velocity": 98,
      "chip": "ym2612"
    },
    {
      "channel": 0,
      "note": 45,
      "start": 35.881,
      "duration": 0.0401,
      "velocity": 127,
      "chip": "ym2612"
    },
    {
      "channel": 3,
      "note": 57,
      "start": 35.8835,
      "duration": 0.1042,
      "velocity": 86,
      "chip": "ym2612"
    },
    {
      "channel": 4,
      "note": 55,
      "start": 35.9905,
      "duration": 0.0474,
      "velocity": 98,
      "chip": "ym2612"
    },
    {
      "channel": 0,
      "note": 45,
      "start": 35.9932,
      "duration": 0.0945,
      "velocity": 127,
      "chip": "ym2612"
    },
    {
      "channel": 3,
      "note": 55,
      "start": 35.996,
      "duration": 0.1251,
      "velocity": 86,
      "chip": "ym2612"
    },
    {
      "channel": 4,
      "note": 53,
      "start": 36.1239,
      "duration": 0.0211,
      "velocity": 98,
      "chip": "ym2612"
    },
    {
      "channel": 3,
      "note": 53,
      "start": 36.1302,
      "duration": 0.04,
      "velocity": 86,
      "chip": "ym2612"
    },
    {
      "channel": 4,
      "note": 52,
      "start": 36.1856,
      "duration": 0.0244,
      "velocity": 98,
      "chip": "ym2612"
    },
    {
      "channel": 0,
      "note": 45,
      "start": 36.1881,
      "duration": 0.0217,
      "velocity": 127,
      "chip": "ym2612"
    },
    {
      "channel": 3,
      "note": 52,
      "start": 36.1905,
      "duration": 0.031,
      "velocity": 86,
      "chip": "ym2612"
    },
    {
      "channel": 4,
      "note": 57,
      "start": 36.2368,
      "duration": 0.0361,
      "velocity": 98,
      "chip": "ym2612"
    },
    {
      "channel": 0,
      "note": 45,
      "start": 36.2397,
      "duration": 0.0497,
      "velocity": 127,
      "chip": "ym2612"
    },
    {
      "channel": 3,
      "note": 57,
      "start": 36.242,
      "duration": 0.1141,
      "velocity": 86,
      "chip": "ym2612"
    },
    {
      "channel": 4,
      "note": 55,
      "start": 36.3588,
      "duration": 0.0474,
      "velocity": 98,
      "chip": "ym2612"
    },
    {
      "channel": 0,
      "note": 45,
      "start": 36.3615,
      "duration": 0.0945,
      "velocity": 127,
      "chip": "ym2612"
    },
    {
      "channel": 3,
      "note": 55,
      "start": 36.3644,
      "duration": 0.1083,
      "velocity": 86,
      "chip": "ym2612"
    },
    {
      "channel": 4,
      "note": 53,
      "start": 36.4923,
      "duration": 0.0273,
      "velocity": 98,
      "chip": "ym2612"
    },
    {
      "channel": 3,
      "note": 53,
      "start": 36.4988,
      "duration": 0.0451,
      "velocity": 86,
      "chip": "ym2612"
    },
    {
      "channel": 4,
      "note": 52,
      "start": 36.5464,
      "duration": 0.0189,
      "velocity": 98,
      "chip": "ym2612"
    },
    {
      "channel": 0,
      "note": 45,
      "start": 36.5488,
      "duration": 0.0293,
      "velocity": 127,
      "chip": "ym2612"
    },
    {
      "channel": 3,
      "note": 52,
      "start": 36.5524,
      "duration": 0.0373,
      "velocity": 86,
      "chip": "ym2612"
    },
    {
      "channel": 4,
      "note": 57,
      "start": 36.6043,
      "duration": 0.0196,
      "velocity": 98,
      "chip": "ym2612"
    },
    {
      "channel": 0,
      "note": 45,
      "start": 36.6075,
      "duration": 0.1162,
      "velocity": 127,
      "chip": "ym2612"
    },
    {
      "channel": 2,
      "note": 76,
      "start": 36.6108,
      "duration": 0.0465,
      "velocity": 127,
      "chip": "ym2612"
    },
    {
      "channel": 1,
      "note": 45,
      "start": 36.6135,
      "duration": 0.1769,
      "velocity": 86,
      "chip": "ym2612"
    },
    {
      "channel": 3,
      "note": 57,
      "start": 36.6173,
      "duration": 0.1899,
      "velocity": 86,
      "chip": "ym2612"
    },
    {
      "channel": 4,
      "note": 57,
      "start": 36.7267,
      "duration": 0.0639,
      "velocity": 98,
      "chip": "ym2612"
    },
    {
      "channel": 2,
      "note": 76,
      "start": 36.7295,
      "duration": 0.0613,
      "velocity": 127,
      "chip": "ym2612"
    },
    {
      "channel": 4,
      "note": 55,
      "start": 36.86,
      "duration": 0.0241,
      "velocity": 98,
      "chip": "ym2612"
    },
    {
      "channel": 2,
      "note": 73,
      "start": 36.8629,
      "duration": 0.0213,
      "velocity": 127,
      "chip": "ym2612"
    },
    {
      "channel": 1,
      "note": 55,
      "start": 36.8689,
      "duration": 0.0908,
      "velocity": 86,
      "chip": "ym2612"
    },
    {
      "channel": 3,
      "note": 45,
      "start": 36.8712,
      "duration": 0.0827,
      "velocity": 86,
      "chip": "ym2612"
    },
    {
      "channel": 4,
      "note": 55,
      "start": 36.9177,
      "duration": 0.0186,
      "velocity": 98,
      "chip": "ym2612"
    },
    {
      "channel": 2,
      "note": 73,
      "start": 36.9203,
      "duration": 0.0214,
      "velocity": 127,
      "chip": "ym2612"
    },
    {
      "channel": 4,
      "note": 53,
      "start": 36.9743,
      "duration": 0.0178,
      "velocity": 98,
      "chip": "ym2612"
    },
    {
      "channel": 0,
      "note": 45,
      "start": 36.9766,
      "duration": 0.0486,
      "velocity": 127,
      "chip": "ym2612"
    },
    {
      "channel": 2,
      "note": 69,
      "start": 36.979,
      "duration": 0.0466,
      "velocity": 127,
      "chip": "ym2612"
    },
    {
      "channel": 1,
      "note": 53,
      "start": 36.9823,
      "duration": 0.193,
      "velocity": 86,
      "chip": "ym2612"
    },
    {
      "channel": 3,
      "note": 45,
      "start": 36.9846,
      "duration": 0.1909,
      "velocity": 86,
      "chip": "ym2612"
    },
    {
      "channel": 4,
      "note": 53,
      "start": 37.0949,
      "duration": 0.0639,
      "velocity": 98,
      "chip": "ym2612"
    },
    {
      "channel": 0,
      "note": 45,
      "start": 37.0979,
      "duration": 0.1107,
      "velocity": 127,
      "chip": "ym2612"
    },
    {
      "channel": 2,
      "note": 69,
      "start": 37.1005,
      "duration": 0.0585,
      "velocity": 127,
      "chip": "ym2612"
    },
    {
      "channel": 4,
      "note": 52,
      "start": 37.2281,
      "duration": 0.0301,
      "velocity": 98,
      "chip": "ym2612"
    },
    {
      "channel": 2,
      "note": 66,
      "start": 37.2312,
      "duration": 0.0271,
      "velocity": 127,
      "chip": "ym2612"
    },
    {
      "channel": 1,
      "note": 52,
      "start": 37.2374,
      "duration": 0.0724,
      "velocity": 86,
      "chip": "ym2612"
    },
    {
      "channel": 3,
      "note": 45,
      "start": 37.2396,
      "duration": 0.0703,
      "velocity": 86,
      "chip": "ym2612"
    },
    {
      "channel": 4,
      "note": 52,
      "start": 37.2858,
      "duration": 0.0242,
      "velocity": 98,
      "chip": "ym2612"
    },
    {
      "channel": 0,
      "note": 45,
      "start": 37.288,
      "duration": 0.0461,
      "velocity": 127,
      "chip": "ym2612"
    },
    {
      "channel": 2,
      "note": 66,
      "start": 37.2904,
      "duration": 0.0135,
      "velocity": 127,
      "chip": "ym2612"
    },
    {
      "channel": 4,
      "note": 50,
      "start": 37.3386,
      "duration": 0.0199,
      "velocity": 98,
      "chip": "ym2612"
    },
    {
      "channel": 0,
      "note": 45,
      "start": 37.3417,
      "duration": 0.1166,
      "velocity": 127,
      "chip": "ym2612"
    },
    {
      "channel": 1,
      "note": 45,
      "start": 37.3476,
      "duration": 0.3062,
      "velocity": 86,
      "chip": "ym2612"
    },
    {
      "channel": 3,
      "note": 50,
      "start": 37.3515,
      "duration": 0.3024,
      "velocity": 86,
      "chip": "ym2612"
    },
    {
      "channel": 4,
      "note": 50,
      "start": 37.4614,
      "duration": 0.0637,
      "velocity": 98,
      "chip": "ym2612"
    },
    {
      "channel": 4,
      "note": 50,
      "start": 37.5946,
      "duration": 0.0284,
      "velocity": 98,
      "chip": "ym2612"
    },
    {
      "channel": 4,
      "note": 50,
      "start": 37.6489,
      "duration": 0.0232,
      "velocity": 98,
      "chip": "ym2612"
    },
    {
      "channel": 4,
      "note": 53,
      "start": 37.6997,
      "duration": 0.0446,
      "velocity": 98,
      "chip": "ym2612"
    },
    {
      "channel": 0,
      "note": 45,
      "start": 37.7019,
      "duration": 0.0421,
      "velocity": 127,
      "chip": "ym2612"
    },
    {
      "channel": 1,
      "note": 53,
      "start": 37.7052,
      "duration": 0.3421,
      "velocity": 86,
      "chip": "ym2612"
    },
    {
      "channel": 3,
      "note": 48,
      "start": 37.7077,
      "duration": 0.3526,
      "velocity": 86,
      "chip": "ym2612"
    },
    {
      "channel": 4,
      "note": 53,
      "start": 37.8135,
      "duration": 0.0473,
      "velocity": 98,
      "chip": "ym2612"
    },
    {
      "channel": 0,
      "note": 45,
      "start": 37.8162,
      "duration": 0.1111,
      "velocity": 127,
      "chip": "ym2612"
    },
    {
      "channel": 4,
      "note": 53,
      "start": 37.9636,
      "duration": 0.0266,
      "velocity": 98,
      "chip": "ym2612"
    },
    {
      "channel": 4,
      "note": 53,
      "start": 38.017,
      "duration": 0.0239,
      "velocity": 98,
      "chip": "ym2612"
    },
    {
      "channel": 0,
      "note": 45,
      "start": 38.02,
      "duration": 0.0402,
      "velocity": 127,
      "chip": "ym2612"
    },
    {
      "channel": 4,
      "note": 52,
      "start": 38.0684,
      "duration": 0.0426,
      "velocity": 98,
      "chip": "ym2612"
    },
    {
      "channel": 1,
      "note": 52,
      "start": 38.0709,
      "duration": 0.3359,
      "velocity": 86,
      "chip": "ym2612"
    },
    {
      "channel": 3,
      "note": 47,
      "start": 38.0741,
      "duration": 0.3209,
      "velocity": 86,
      "chip": "ym2612"
    },
    {
      "channel": 4,
      "note": 52,
      "start": 38.1806,
      "duration": 0.0637,
      "velocity": 98,
      "chip": "ym2612"
    },
    {
      "channel": 0,
      "note": 45,
      "start": 38.183,
      "duration": 0.1112,
      "velocity": 127,
      "chip": "ym2612"
    },
    {
      "channel": 4,
      "note": 52,
      "start": 38.3305,
      "duration": 0.0132,
      "velocity": 98,
      "chip": "ym2612"
    },
    {
      "channel": 4,
      "note": 52,
      "start": 38.3835,
      "duration": 0.0233,
      "velocity": 98,
      "chip": "ym2612"
    },
    {
      "channel": 0,
      "note": 45,
      "start": 38.3868,
      "duration": 0.0199,
      "velocity": 127,
      "chip": "ym2612"
    },
    {
      "channel": 4,
      "note": 57,
      "start": 38.4333,
      "duration": 0.0283,
      "velocity": 98,
      "chip": "ym2612"
    },
    {
      "channel": 0,
      "note": 45,
      "start": 38.4357,
      "duration": 0.0424,
      "velocity": 127,
      "chip": "ym2612"
    },
    {
      "channel": 1,
      "note": 45,
      "start": 38.4391,
      "duration": 0.3295,
      "velocity": 86,
      "chip": "ym2612"
    },
    {
      "channel": 3,
      "note": 57,
      "start": 38.4414,
      "duration": 0.3093,
      "velocity": 86,
      "chip": "ym2612"
    },
    {
      "channel": 4,
      "note": 57,
      "start": 38.5476,
      "duration": 0.0474,
      "velocity": 98,
      "chip": "ym2612"
    },
    {
      "channel": 0,
      "note": 45,
      "start": 38.5502,
      "duration": 0.0945,
      "velocity": 127,
      "chip": "ym2612"
    },
    {
      "channel": 4,
      "note": 57,
      "start": 38.681,
      "duration": 0.0265,
      "velocity": 98,
      "chip": "ym2612"
    },
    {
      "channel": 4,
      "note": 57,
      "start": 38.7408,
      "duration": 0.0221,
      "velocity": 98,
      "chip": "ym2612"
    },
    {
      "channel": 4,
      "note": 50,
      "start": 38.7897,
      "duration": 0.0551,
      "velocity": 98,
      "chip": "ym2612"
    },
    {
      "channel": 0,
      "note": 45,
      "start": 38.792,
      "duration": 0.0859,
      "velocity": 127,
      "chip": "ym2612"
    },
    {
      "channel": 1,
      "note": 50,
      "start": 38.7945,
      "duration": 0.3225,
      "velocity": 86,
      "chip": "ym2612"
    },
    {
      "channel": 3,
      "note": 45,
      "start": 38.7967,
      "duration": 0.3143,
      "velocity": 86,
      "chip": "ym2612"
    },
    {
      "channel": 4,
      "note": 50,
      "start": 38.9141,
      "duration": 0.0639,
      "velocity": 98,
      "chip": "ym2612"
    },
    {
      "channel": 4,
      "note": 50,
      "start": 39.0474,
      "duration": 0.0262,
      "velocity": 98,
      "chip": "ym2612"
    },
    {
      "channel": 4,
      "note": 50,
      "start": 39.0941,
      "duration": 0.0231,
      "velocity": 98,
      "chip": "ym2612"
    },
    {
      "channel": 4,
      "note": 53,
      "start": 39.1439,
      "duration": 0.0351,
      "velocity": 98,
      "chip": "ym2612"
    },
    {
      "channel": 0,
      "note": 45,
      "start": 39.1461,
      "duration": 0.0326,
      "velocity": 127,
      "chip": "ym2612"
    },
    {
      "channel": 1,
      "note": 53,
      "start": 39.1485,
      "duration": 0.3174,
      "velocity": 86,
      "chip": "ym2612"
    },
    {
      "channel": 3,
      "note": 48,
      "start": 39.152,
      "duration": 0.3139,
      "velocity": 86,
      "chip": "ym2612"
    },
    {
      "channel": 4,
      "note": 53,
      "start": 39.2488,
      "duration": 0.0468,
      "velocity": 98,
      "chip": "ym2612"
    },
    {
      "channel": 0,
      "note": 45,
      "start": 39.2514,
      "duration": 0.1108,
      "velocity": 127,
      "chip": "ym2612"
    },
    {
      "channel": 4,
      "note": 53,
      "start": 39.3818,
      "duration": 0.0272,
      "velocity": 98,
      "chip": "ym2612"
    },
    {
      "channel": 4,
      "note": 53,
      "start": 39.436,
      "duration": 0.0241,
      "velocity": 98,
      "chip": "ym2612"
    },
    {
      "channel": 0,
      "note": 45,
      "start": 39.4389,
      "duration": 0.0269,
      "velocity": 127,
      "chip": "ym2612"
    },
    {
      "channel": 4,
      "note": 52,
      "start": 39.4865,
      "duration": 0.0437,
      "velocity": 98,
      "chip": "ym2612"
    },
    {
      "channel": 1,
      "note": 52,
      "start": 39.4892,
      "duration": 0.3156,
      "velocity": 86,
      "chip": "ym2612"
    },
    {
      "channel": 3,
      "note": 47,
      "start": 39.4925,
      "duration": 0.3124,
      "velocity": 86,
      "chip": "ym2612"
    },
    {
      "channel": 4,
      "note": 52,
      "start": 39.5996,
      "duration": 0.0639,
      "velocity": 98,
      "chip": "ym2612"
    },
    {
      "channel": 0,
      "note": 45,
      "start": 39.602,
      "duration": 0.078,
      "velocity": 127,
      "chip": "ym2612"
    },
    {
      "channel": 4,
      "note": 52,
      "start": 39.733,
      "duration": 0.0273,
      "velocity": 98,
      "chip": "ym2612"
    },
    {
      "channel": 4,
      "note": 52,
      "start": 39.7806,
      "duration": 0.0244,
      "velocity": 98,
      "chip": "ym2612"
    },
    {
      "channel": 0,
      "note": 45,
      "start": 39.783,
      "duration": 0.0217,
      "velocity": 127,
      "chip": "ym2612"
    },
    {
      "channel": 4,
      "note": 45,
      "start": 39.8322,
      "duration": 0.033,
      "velocity": 98,
      "chip": "ym2612"
    },
    {
      "channel": 0,
      "note": 45,
      "start": 39.8345,
      "duration": 0.0305,
      "velocity": 127,
      "chip": "ym2612"
    },
    {
      "channel": 1,
      "note": 57,
      "start": 39.837,
      "duration": 0.3041,
      "velocity": 86,
      "chip": "ym2612"
    },
    {
      "channel": 3,
      "note": 45,
      "start": 39.8407,
      "duration": 0.3129,
      "velocity": 86,
      "chip": "ym2612"
    },
    {
      "channel": 4,
      "note": 45,
      "start": 39.9344,
      "duration": 0.0641,
      "velocity": 98,
      "chip": "ym2612"
    },
    {
      "channel": 0,
      "note": 45,
      "start": 39.937,
      "duration": 0.078,
      "velocity": 127,
      "chip": "ym2612"
    },
    {
      "channel": 4,
      "note": 45,
      "start": 40.0679,
      "duration": 0.0274,
      "velocity": 98,
      "chip": "ym2612"
    },
    {
      "channel": 4,
      "note": 45,
      "start": 40.1222,
      "duration": 0.0251,
      "velocity": 98,
      "chip": "ym2612"
    },
    {
      "channel": 4,
      "note": 50,
      "start": 40.1748,
      "duration": 0.0265,
      "velocity": 98,
      "chip": "ym2612"
    },
    {
      "channel": 0,
      "note": 45,
      "start": 40.1771,
      "duration": 0.0365,
      "velocity": 127,
      "chip": "ym2612"
    },
    {
      "channel": 1,
      "note": 50,
      "start": 40.1796,
      "duration": 0.2263,
      "velocity": 86,
      "chip": "ym2612"
    },
    {
      "channel": 3,
      "note": 45,
      "start": 40.183,
      "duration": 0.2229,
      "velocity": 86,
      "chip": "ym2612"
    },
    {
      "channel": 4,
      "note": 50,
      "start": 40.2282,
      "duration": 0.0383,
      "velocity": 98,
      "chip": "ym2612"
    },
    {
      "channel": 4,
      "note": 50,
      "start": 40.3358,
      "duration": 0.0265,
      "velocity": 98,
      "chip": "ym2612"
    },
    {
      "channel": 4,
      "note": 50,
      "start": 40.3892,
      "duration": 0.0169,
      "velocity": 98,
      "chip": "ym2612"
    },
    {
      "channel": 4,
      "note": 53,
      "start": 40.4325,
      "duration": 0.0341,
      "velocity": 98,
      "chip": "ym2612"
    },
    {
      "channel": 0,
      "note": 45,
      "start": 40.4348,
      "duration": 0.0316,
      "velocity": 127,
      "chip": "ym2612"
    },
    {
      "channel": 1,
      "note": 48,
      "start": 40.4371,
      "duration": 0.3093,
      "velocity": 86,
      "chip": "ym2612"
    },
    {
      "channel": 3,
      "note": 53,
      "start": 40.4406,
      "duration": 0.3117,
      "velocity": 86,
      "chip": "ym2612"
    },
    {
      "channel": 4,
      "note": 53,
      "start": 40.5359,
      "duration": 0.0639,
      "velocity": 98,
      "chip": "ym2612"
    },
    {
      "channel": 0,
      "note": 45,
      "start": 40.5385,
      "duration": 0.1113,
      "velocity": 127,
      "chip": "ym2612"
    },
    {
      "channel": 4,
      "note": 53,
      "start": 40.6693,
      "duration": 0.0268,
      "velocity": 98,
      "chip": "ym2612"
    },
    {
      "channel": 4,
      "note": 53,
      "start": 40.7227,
      "duration": 0.0238,
      "velocity": 98,
      "chip": "ym2612"
    },
    {
      "channel": 0,
      "note": 45,
      "start": 40.7261,
      "duration": 0.0261,
      "velocity": 127,
      "chip": "ym2612"
    },
    {
      "channel": 4,
      "note": 52,
      "start": 40.7728,
      "duration": 0.0428,
      "velocity": 98,
      "chip": "ym2612"
    },
    {
      "channel": 1,
      "note": 52,
      "start": 40.7752,
      "duration": 0.3135,
      "velocity": 86,
      "chip": "ym2612"
    },
    {
      "channel": 3,
      "note": 47,
      "start": 40.7784,
      "duration": 0.3104,
      "velocity": 86,
      "chip": "ym2612"
    },
    {
      "channel": 4,
      "note": 52,
      "start": 40.885,
      "duration": 0.0639,
      "velocity": 98,
      "chip": "ym2612"
    },
    {
      "channel": 0,
      "note": 45,
      "start": 40.8874,
      "duration": 0.078,
      "velocity": 127,
      "chip": "ym2612"
    },
    {
      "channel": 4,
      "note": 52,
      "start": 41.0183,
      "duration": 0.0261,
      "velocity": 98,
      "chip": "ym2612"
    },
    {
      "channel": 4,
      "note": 52,
      "start": 41.0712,
      "duration": 0.0178,
      "velocity": 98,
      "chip": "ym2612"
    },
    {
      "channel": 0,
      "note": 45,
      "start": 41.0744,
      "duration": 0.0143,
      "velocity": 127,
      "chip": "ym2612"
    },
    {
      "channel": 4,
      "note": 57,
      "start": 41.116,
      "duration": 0.033,
      "velocity": 98,
      "chip": "ym2612"
    },
    {
      "channel": 0,
      "note": 45,
      "start": 41.118,
      "duration": 0.0309,
      "velocity": 127,
      "chip": "ym2612"
    },
    {
      "channel": 1,
      "note": 57,
      "start": 41.1202,
      "duration": 0.3156,
      "velocity": 86,
      "chip": "ym2612"
    },
    {
      "channel": 3,
      "note": 45,
      "start": 41.1226,
      "duration": 0.3133,
      "velocity": 86,
      "chip": "ym2612"
    },
    {
      "channel": 4,
      "note": 57,
      "start": 41.2183,
      "duration": 0.0639,
      "velocity": 98,
      "chip": "ym2612"
    },
    {
      "channel": 0,
      "note": 45,
      "start": 41.221,
      "duration": 0.0945,
      "velocity": 127,
      "chip": "ym2612"
    },
    {
      "channel": 4,
      "note": 57,
      "start": 41.3517,
      "duration": 0.0193,
      "velocity": 98,
      "chip": "ym2612"
    },
    {
      "channel": 4,
      "note": 57,
      "start": 41.4039,
      "duration": 0.0196,
      "velocity": 98,
      "chip": "ym2612"
    },
    {
      "channel": 4,
      "note": 57,
      "start": 41.4574,
      "duration": 0.0197,
      "velocity": 98,
      "chip": "ym2612"
    },
    {
      "channel": 0,
      "note": 45,
      "start": 41.4598,
      "duration": 0.024,
      "velocity": 127,
      "chip": "ym2612"
    },
    {
      "channel": 1,
      "note": 57,
      "start": 41.4624,
      "duration": 1.282,
      "velocity": 86,
      "chip": "ym2612"
    },
    {
      "channel": 3,
      "note": 45,
      "start": 41.4657,
      "duration": 0.0425,
      "velocity": 86,
      "chip": "ym2612"
    },
    {
      "channel": 4,
      "note": 55,
      "start": 41.512,
      "duration": 0.0369,
      "velocity": 98,
      "chip": "ym2612"
    },
    {
      "channel": 0,
      "note": 45,
      "start": 41.5142,
      "duration": 0.0512,
      "velocity": 127,
      "chip": "ym2612"
    },
    {
      "channel": 3,
      "note": 55,
      "start": 41.5167,
      "duration": 0.0987,
      "velocity": 86,
      "chip": "ym2612"
    },
    {
      "channel": 4,
      "note": 53,
      "start": 41.6182,
      "duration": 0.0271,
      "velocity": 98,
      "chip": "ym2612"
    },
    {
      "channel": 3,
      "note": 53,
      "start": 41.6245,
      "duration": 0.0334,
      "velocity": 86,
      "chip": "ym2612"
    },
    {
      "channel": 4,
      "note": 52,
      "start": 41.6733,
      "duration": 0.0191,
      "velocity": 98,
      "chip": "ym2612"
    },
    {
      "channel": 0,
      "note": 45,
      "start": 41.6766,
      "duration": 0.0156,
      "velocity": 127,
      "chip": "ym2612"
    },
    {
      "channel": 3,
      "note": 52,
      "start": 41.6791,
      "duration": 0.0315,
      "velocity": 86,
      "chip": "ym2612"
    },
    {
      "channel": 4,
      "note": 57,
      "start": 41.7203,
      "duration": 0.031,
      "velocity": 98,
      "chip": "ym2612"
    },
    {
      "channel": 0,
      "note": 45,
      "start": 41.7224,
      "duration": 0.0286,
      "velocity": 127,
      "chip": "ym2612"
    },
    {
      "channel": 3,
      "note": 57,
      "start": 41.7252,
      "duration": 0.0925,
      "velocity": 86,
      "chip": "ym2612"
    },
    {
      "channel": 4,
      "note": 55,
      "start": 41.8207,
      "duration": 0.0471,
      "velocity": 98,
      "chip": "ym2612"
    },
    {
      "channel": 0,
      "note": 45,
      "start": 41.8233,
      "duration": 0.1111,
      "velocity": 127,
      "chip": "ym2612"
    },
    {
      "channel": 3,
      "note": 55,
      "start": 41.8261,
      "duration": 0.1251,
      "velocity": 86,
      "chip": "ym2612"
    },
    {
      "channel": 4,
      "note": 53,
      "start": 41.9541,
      "duration": 0.027,
      "velocity": 98,
      "chip": "ym2612"
    },
    {
      "channel": 3,
      "note": 53,
      "start": 41.9602,
      "duration": 0.0399,
      "velocity": 86,
      "chip": "ym2612"
    },
    {
      "channel": 4,
      "note": 52,
      "start": 42.0084,
      "duration": 0.025,
      "velocity": 98,
      "chip": "ym2612"
    },
    {
      "channel": 0,
      "note": 45,
      "start": 42.0106,
      "duration": 0.0227,
      "velocity": 127,
      "chip": "ym2612"
    },
    {
      "channel": 3,
      "note": 52,
      "start": 42.014,
      "duration": 0.0379,
      "velocity": 86,
      "chip": "ym2612"
    },
    {
      "channel": 4,
      "note": 57,
      "start": 42.0604,
      "duration": 0.0257,
      "velocity": 98,
      "chip": "ym2612"
    },
    {
      "channel": 0,
      "note": 45,
      "start": 42.0625,
      "duration": 0.0401,
      "velocity": 127,
      "chip": "ym2612"
    },
    {
      "channel": 3,
      "note": 57,
      "start": 42.065,
      "duration": 0.1044,
      "velocity": 86,
      "chip": "ym2612"
    },
    {
      "channel": 4,
      "note": 55,
      "start": 42.1722,
      "duration": 0.0305,
      "velocity": 98,
      "chip": "ym2612"
    },
    {
      "channel": 0,
      "note": 45,
      "start": 42.1749,
      "duration": 0.0777,
      "velocity": 127,
      "chip": "ym2612"
    },
    {
      "channel": 3,
      "note": 55,
      "start": 42.1776,
      "duration": 0.125,
      "velocity": 86,
      "chip": "ym2612"
    },
    {
      "channel": 4,
      "note": 53,
      "start": 42.3054,
      "duration": 0.0153,
      "velocity": 98,
      "chip": "ym2612"
    },
    {
      "channel": 3,
      "note": 53,
      "start": 42.3118,
      "duration": 0.0333,
      "velocity": 86,
      "chip": "ym2612"
    },
    {
      "channel": 4,
      "note": 52,
      "start": 42.3602,
      "duration": 0.0187,
      "velocity": 98,
      "chip": "ym2612"
    },
    {
      "channel": 0,
      "note": 45,
      "start": 42.3636,
      "duration": 0.0152,
      "velocity": 127,
      "chip": "ym2612"
    },
    {
      "channel": 3,
      "note": 52,
      "start": 42.366,
      "duration": 0.0315,
      "velocity": 86,
      "chip": "ym2612"
    },
    {
      "channel": 4,
      "note": 57,
      "start": 42.4075,
      "duration": 0.0176,
      "velocity": 98,
      "chip": "ym2612"
    },
    {
      "channel": 0,
      "note": 45,
      "start": 42.4097,
      "duration": 0.0281,
      "velocity": 127,
      "chip": "ym2612"
    },
    {
      "channel": 3,
      "note": 57,
      "start": 42.4122,
      "duration": 0.0924,
      "velocity": 86,
      "chip": "ym2612"
    },
    {
      "channel": 4,
      "note": 55,
      "start": 42.5074,
      "duration": 0.0472,
      "velocity": 98,
      "chip": "ym2612"
    },
    {
      "channel": 0,
      "note": 45,
      "start": 42.51,
      "duration": 0.0945,
      "velocity": 127,
      "chip": "ym2612"
    },
    {
      "channel": 3,
      "note": 55,
      "start": 42.5129,
      "duration": 0.1083,
      "velocity": 86,
      "chip": "ym2612"
    },
    {
      "channel": 4,
      "note": 53,
      "start": 42.6408,
      "duration": 0.0266,
      "velocity": 98,
      "chip": "ym2612"
    },
    {
      "channel": 3,
      "note": 53,
      "start": 42.6473,
      "duration": 0.045,
      "velocity": 86,
      "chip": "ym2612"
    },
    {
      "channel": 4,
      "note": 52,
      "start": 42.6947,
      "duration": 0.019,
      "velocity": 98,
      "chip": "ym2612"
    },
    {
      "channel": 0,
      "note": 45,
      "start": 42.6969,
      "duration": 0.0227,
      "velocity": 127,
      "chip": "ym2612"
    },
    {
      "channel": 3,
      "note": 52,
      "start": 42.7003,
      "duration": 0.0381,
      "velocity": 86,
      "chip": "ym2612"
    },
    {
      "channel": 4,
      "note": 57,
      "start": 42.7468,
      "duration": 0.0261,
      "velocity": 98,
      "chip": "ym2612"
    },
    {
      "channel": 0,
      "note": 45,
      "start": 42.7492,
      "duration": 0.1068,
      "velocity": 127,
      "chip": "ym2612"
    },
    {
      "channel": 2,
      "note": 76,
      "start": 42.7534,
      "duration": 0.0362,
      "velocity": 127,
      "chip": "ym2612"
    },
    {
      "channel": 1,
      "note": 45,
      "start": 42.7562,
      "duration": 0.1665,
      "velocity": 86,
      "chip": "ym2612"
    },
    {
      "channel": 3,
      "note": 57,
      "start": 42.7585,
      "duration": 0.1809,
      "velocity": 86,
      "chip": "ym2612"
    },
    {
      "channel": 4,
      "note": 57,
      "start": 42.8591,
      "duration": 0.0638,
      "velocity": 98,
      "chip": "ym2612"
    },
    {
      "channel": 2,
      "note": 76,
      "start": 42.8617,
      "duration": 0.0613,
      "velocity": 127,
      "chip": "ym2612"
    },
    {
      "channel": 4,
      "note": 55,
      "start": 42.9923,
      "duration": 0.0177,
      "velocity": 98,
      "chip": "ym2612"
    },
    {
      "channel": 2,
      "note": 73,
      "start": 42.9952,
      "duration": 0.0149,
      "velocity": 127,
      "chip": "ym2612"
    },
    {
      "channel": 1,
      "note": 55,
      "start": 43.0012,
      "duration": 0.0841,
      "velocity": 86,
      "chip": "ym2612"
    },
    {
      "channel": 3,
      "note": 45,
      "start": 43.0035,
      "duration": 0.0756,
      "velocity": 86,
      "chip": "ym2612"
    },
    {
      "channel": 4,
      "note": 55,
      "start": 43.0493,
      "duration": 0.0116,
      "velocity": 98,
      "chip": "ym2612"
    },
    {
      "channel": 2,
      "note": 73,
      "start": 43.0519,
      "duration": 0.021,
      "velocity": 127,
      "chip": "ym2612"
    },
    {
      "channel": 4,
      "note": 53,
      "start": 43.0936,
      "duration": 0.022,
      "velocity": 98,
      "chip": "ym2612"
    },
    {
      "channel": 0,
      "note": 45,
      "start": 43.0969,
      "duration": 0.0266,
      "velocity": 127,
      "chip": "ym2612"
    },
    {
      "channel": 2,
      "note": 69,
      "start": 43.0992,
      "duration": 0.0246,
      "velocity": 127,
      "chip": "ym2612"
    },
    {
      "channel": 1,
      "note": 53,
      "start": 43.1017,
      "duration": 0.1885,
      "velocity": 86,
      "chip": "ym2612"
    },
    {
      "channel": 3,
      "note": 45,
      "start": 43.1039,
      "duration": 0.1865,
      "velocity": 86,
      "chip": "ym2612"
    },
    {
      "channel": 4,
      "note": 53,
      "start": 43.1931,
      "duration": 0.0639,
      "velocity": 98,
      "chip": "ym2612"
    },
    {
      "channel": 0,
      "note": 45,
      "start": 43.1961,
      "duration": 0.1107,
      "velocity": 127,
      "chip": "ym2612"
    },
    {
      "channel": 2,
      "note": 69,
      "start": 43.1987,
      "duration": 0.0585,
      "velocity": 127,
      "chip": "ym2612"
    },
    {
      "channel": 4,
      "note": 52,
      "start": 43.3263,
      "duration": 0.0305,
      "velocity": 98,
      "chip": "ym2612"
    },
    {
      "channel": 2,
      "note": 66,
      "start": 43.3295,
      "duration": 0.0275,
      "velocity": 127,
      "chip": "ym2612"
    },
    {
      "channel": 1,
      "note": 52,
      "start": 43.3357,
      "duration": 0.0729,
      "velocity": 86,
      "chip": "ym2612"
    },
    {
      "channel": 3,
      "note": 45,
      "start": 43.3379,
      "duration": 0.0708,
      "velocity": 86,
      "chip": "ym2612"
    },
    {
      "channel": 4,
      "note": 52,
      "start": 43.3844,
      "duration": 0.0243,
      "velocity": 98,
      "chip": "ym2612"
    },
    {
      "channel": 0,
      "note": 45,
      "start": 43.3866,
      "duration": 0.0462,
      "velocity": 127,
      "chip": "ym2612"
    },
    {
      "channel": 2,
      "note": 66,
      "start": 43.389,
      "duration": 0.0136,
      "velocity": 127,
      "chip": "ym2612"
    },
    {
      "channel": 4,
      "note": 50,
      "start": 43.4373,
      "duration": 0.0199,
      "velocity": 98,
      "chip": "ym2612"
    },
    {
      "channel": 0,
      "note": 45,
      "start": 43.4405,
      "duration": 0.1,
      "velocity": 127,
      "chip": "ym2612"
    },
    {
      "channel": 1,
      "note": 45,
      "start": 43.4463,
      "duration": 0.29,
      "velocity": 86,
      "chip": "ym2612"
    },
    {
      "channel": 3,
      "note": 50,
      "start": 43.4502,
      "duration": 0.2861,
      "velocity": 86,
      "chip": "ym2612"
    },
    {
      "channel": 4,
      "note": 50,
      "start": 43.5435,
      "duration": 0.0637,
      "velocity": 98,
      "chip": "ym2612"
    },
    {
      "channel": 4,
      "note": 50,
      "start": 43.6766,
      "duration": 0.0284,
      "velocity": 98,
      "chip": "ym2612"
    },
    {
      "channel": 4,
      "note": 50,
      "start": 43.7313,
      "duration": 0.0237,
      "velocity": 98,
      "chip": "ym2612"
    },
    {
      "channel": 4,
      "note": 53,
      "start": 43.7766,
      "duration": 0.0329,
      "velocity": 98,
      "chip": "ym2612"
    },
    {
      "channel": 0,
      "note": 45,
      "start": 43.7788,
      "duration": 0.0305,
      "velocity": 127,
      "chip": "ym2612"
    },
    {
      "channel": 1,
      "note": 53,
      "start": 43.7812,
      "duration": 0.3143,
      "velocity": 86,
      "chip": "ym2612"
    },
    {
      "channel": 3,
      "note": 48,
      "start": 43.7845,
      "duration": 0.3239,
      "velocity": 86,
      "chip": "ym2612"
    },
    {
      "channel": 4,
      "note": 53,
      "start": 43.8789,
      "duration": 0.0471,
      "velocity": 98,
      "chip": "ym2612"
    },
    {
      "channel": 0,
      "note": 45,
      "start": 43.8815,
      "duration": 0.1111,
      "velocity": 127,
      "chip": "ym2612"
    },
    {
      "channel": 4,
      "note": 53,
      "start": 44.0123,
      "duration": 0.0261,
      "velocity": 98,
      "chip": "ym2612"
    },
    {
      "channel": 4,
      "note": 53,
      "start": 44.0652,
      "duration": 0.0239,
      "velocity": 98,
      "chip": "ym2612"
    },
    {
      "channel": 0,
      "note": 45,
      "start": 44.0682,
      "duration": 0.0402,
      "velocity": 127,
      "chip": "ym2612"
    },
    {
      "channel": 4,
      "note": 52,
      "start": 44.1166,
      "duration": 0.0426,
      "velocity": 98,
      "chip": "ym2612"
    },
    {
      "channel": 1,
      "note": 52,
      "start": 44.1191,
      "duration": 0.3199,
      "velocity": 86,
      "chip": "ym2612"
    },
    {
      "channel": 3,
      "note": 47,
      "start": 44.1223,
      "duration": 0.3051,
      "velocity": 86,
      "chip": "ym2612"
    },
    {
      "channel": 4,
      "note": 52,
      "start": 44.2288,
      "duration": 0.0637,
      "velocity": 98,
      "chip": "ym2612"
    },
    {
      "channel": 0,
      "note": 45,
      "start": 44.2312,
      "duration": 0.0945,
      "velocity": 127,
      "chip": "ym2612"
    },
    {
      "channel": 4,
      "note": 52,
      "start": 44.362,
      "duration": 0.014,
      "velocity": 98,
      "chip": "ym2612"
    },
    {
      "channel": 4,
      "note": 52,
      "start": 44.4151,
      "duration": 0.0241,
      "velocity": 98,
      "chip": "ym2612"
    },
    {
      "channel": 0,
      "note": 45,
      "start": 44.4182,
      "duration": 0.0207,
      "velocity": 127,
      "chip": "ym2612"
    },
    {
      "channel": 4,
      "note": 57,
      "start": 44.4601,
      "duration": 0.0198,
      "velocity": 98,
      "chip": "ym2612"
    },
    {
      "channel": 0,
      "note": 45,
      "start": 44.4626,
      "duration": 0.0311,
      "velocity": 127,
      "chip": "ym2612"
    },
    {
      "channel": 1,
      "note": 45,
      "start": 44.465,
      "duration": 0.3149,
      "velocity": 86,
      "chip": "ym2612"
    },
    {
      "channel": 3,
      "note": 57,
      "start": 44.4682,
      "duration": 0.2988,
      "velocity": 86,
      "chip": "ym2612"
    },
    {
      "channel": 4,
      "note": 57,
      "start": 44.5632,
      "duration": 0.0474,
      "velocity": 98,
      "chip": "ym2612"
    },
    {
      "channel": 0,
      "note": 45,
      "start": 44.5658,
      "duration": 0.0945,
      "velocity": 127,
      "chip": "ym2612"
    },
    {
      "channel": 4,
      "note": 57,
      "start": 44.6966,
      "duration": 0.0265,
      "velocity": 98,
      "chip": "ym2612"
    },
    {
      "channel": 4,
      "note": 57,
      "start": 44.75,
      "duration": 0.0243,
      "velocity": 98,
      "chip": "ym2612"
    },
    {
      "channel": 4,
      "note": 50,
      "start": 44.8003,
      "duration": 0.0442,
      "velocity": 98,
      "chip": "ym2612"
    },
    {
      "channel": 0,
      "note": 45,
      "start": 44.8037,
      "duration": 0.0907,
      "velocity": 127,
      "chip": "ym2612"
    },
    {
      "channel": 1,
      "note": 50,
      "start": 44.8061,
      "duration": 0.3182,
      "velocity": 86,
      "chip": "ym2612"
    },
    {
      "channel": 3,
      "note": 45,
      "start": 44.8084,
      "duration": 0.303,
      "velocity": 86,
      "chip": "ym2612"
    },
    {
      "channel": 4,
      "note": 50,
      "start": 44.9138,
      "duration": 0.0641,
      "velocity": 98,
      "chip": "ym2612"
    },
    {
      "channel": 4,
      "note": 50,
      "start": 45.0473,
      "duration": 0.0262,
      "velocity": 98,
      "chip": "ym2612"
    },
    {
      "channel": 4,
      "note": 50,
      "start": 45.1004,
      "duration": 0.024,
      "velocity": 98,
      "chip": "ym2612"
    },
    {
      "channel": 4,
      "note": 53,
      "start": 45.1446,
      "duration": 0.035,
      "velocity": 98,
      "chip": "ym2612"
    },
    {
      "channel": 0,
      "note": 45,
      "start": 45.1468,
      "duration": 0.0325,
      "velocity": 127,
      "chip": "ym2612"
    },
    {
      "channel": 1,
      "note": 53,
      "start": 45.1492,
      "duration": 0.311,
      "velocity": 86,
      "chip": "ym2612"
    },
    {
      "channel": 3,
      "note": 48,
      "start": 45.1527,
      "duration": 0.3076,
      "velocity": 86,
      "chip": "ym2612"
    },
    {
      "channel": 4,
      "note": 53,
      "start": 45.2493,
      "duration": 0.0468,
      "velocity": 98,
      "chip": "ym2612"
    },
    {
      "channel": 0,
      "note": 45,
      "start": 45.252,
      "duration": 0.0939,
      "velocity": 127,
      "chip": "ym2612"
    },
    {
      "channel": 4,
      "note": 53,
      "start": 45.3823,
      "duration": 0.0199,
      "velocity": 98,
      "chip": "ym2612"
    },
    {
      "channel": 4,
      "note": 53,
      "start": 45.4293,
      "duration": 0.0247,
      "velocity": 98,
      "chip": "ym2612"
    },
    {
      "channel": 0,
      "note": 45,
      "start": 45.4315,
      "duration": 0.0286,
      "velocity": 127,
      "chip": "ym2612"
    },
    {
      "channel": 4,
      "note": 52,
      "start": 45.4815,
      "duration": 0.0186,
      "velocity": 98,
      "chip": "ym2612"
    },
    {
      "channel": 1,
      "note": 52,
      "start": 45.4841,
      "duration": 0.2877,
      "velocity": 86,
      "chip": "ym2612"
    },
    {
      "channel": 3,
      "note": 47,
      "start": 45.4865,
      "duration": 0.2855,
      "velocity": 86,
      "chip": "ym2612"
    },
    {
      "channel": 4,
      "note": 52,
      "start": 45.5674,
      "duration": 0.0639,
      "velocity": 98,
      "chip": "ym2612"
    },
    {
      "channel": 0,
      "note": 45,
      "start": 45.5697,
      "duration": 0.0781,
      "velocity": 127,
      "chip": "ym2612"
    },
    {
      "channel": 4,
      "note": 52,
      "start": 45.7007,
      "duration": 0.0201,
      "velocity": 98,
      "chip": "ym2612"
    },
    {
      "channel": 4,
      "note": 52,
      "start": 45.7473,
      "duration": 0.0247,
      "velocity": 98,
      "chip": "ym2612"
    },
    {
      "channel": 0,
      "note": 45,
      "start": 45.7498,
      "duration": 0.022,
      "velocity": 127,
      "chip": "ym2612"
    },
    {
      "channel": 4,
      "note": 45,
      "start": 45.7996,
      "duration": 0.0333,
      "velocity": 98,
      "chip": "ym2612"
    },
    {
      "channel": 0,
      "note": 45,
      "start": 45.8019,
      "duration": 0.0309,
      "velocity": 127,
      "chip": "ym2612"
    },
    {
      "channel": 1,
      "note": 57,
      "start": 45.8044,
      "duration": 0.2808,
      "velocity": 86,
      "chip": "ym2612"
    },
    {
      "channel": 3,
      "note": 45,
      "start": 45.8081,
      "duration": 0.2896,
      "velocity": 86,
      "chip": "ym2612"
    },
    {
      "channel": 4,
      "note": 45,
      "start": 45.8856,
      "duration": 0.0641,
      "velocity": 98,
      "chip": "ym2612"
    },
    {
      "channel": 0,
      "note": 45,
      "start": 45.8882,
      "duration": 0.078,
      "velocity": 127,
      "chip": "ym2612"
    },
    {
      "channel": 4,
      "note": 45,
      "start": 46.019,
      "duration": 0.0272,
      "velocity": 98,
      "chip": "ym2612"
    },
    {
      "channel": 4,
      "note": 45,
      "start": 46.0665,
      "duration": 0.0249,
      "velocity": 98,
      "chip": "ym2612"
    },
    {
      "channel": 4,
      "note": 50,
      "start": 46.1183,
      "duration": 0.0264,
      "velocity": 98,
      "chip": "ym2612"
    },
    {
      "channel": 0,
      "note": 45,
      "start": 46.1208,
      "duration": 0.0363,
      "velocity": 127,
      "chip": "ym2612"
    },
    {
      "channel": 1,
      "note": 50,
      "start": 46.1232,
      "duration": 0.2119,
      "velocity": 86,
      "chip": "ym2612"
    },
    {
      "channel": 3,
      "note": 45,
      "start": 46.1266,
      "duration": 0.2086,
      "velocity": 86,
      "chip": "ym2612"
    },
    {
      "channel": 4,
      "note": 50,
      "start": 46.1656,
      "duration": 0.03,
      "velocity": 98,
      "chip": "ym2612"
    },
    {
      "channel": 4,
      "note": 50,
      "start": 46.2649,
      "duration": 0.027,
      "velocity": 98,
      "chip": "ym2612"
    },
    {
      "channel": 4,
      "note": 50,
      "start": 46.3124,
      "duration": 0.0229,
      "velocity": 98,
      "chip": "ym2612"
    },
    {
      "channel": 4,
      "note": 53,
      "start": 46.3626,
      "duration": 0.0346,
      "velocity": 98,
      "chip": "ym2612"
    },
    {
      "channel": 0,
      "note": 45,
      "start": 46.3649,
      "duration": 0.0322,
      "velocity": 127,
      "chip": "ym2612"
    },
    {
      "channel": 1,
      "note": 48,
      "start": 46.3672,
      "duration": 0.2863,
      "velocity": 86,
      "chip": "ym2612"
    },
    {
      "channel": 3,
      "note": 53,
      "start": 46.3704,
      "duration": 0.2953,
      "velocity": 86,
      "chip": "ym2612"
    },
    {
      "channel": 4,
      "note": 53,
      "start": 46.4665,
      "duration": 0.0473,
      "velocity": 98,
      "chip": "ym2612"
    },
    {
      "channel": 0,
      "note": 45,
      "start": 46.4691,
      "duration": 0.0945,
      "velocity": 127,
      "chip": "ym2612"
    },
    {
      "channel": 4,
      "note": 53,
      "start": 46.5831,
      "duration": 0.0269,
      "velocity": 98,
      "chip": "ym2612"
    },
    {
      "channel": 4,
      "note": 53,
      "start": 46.6363,
      "duration": 0.0173,
      "velocity": 98,
      "chip": "ym2612"
    },
    {
      "channel": 0,
      "note": 45,
      "start": 46.6396,
      "duration": 0.026,
      "velocity": 127,
      "chip": "ym2612"
    },
    {
      "channel": 4,
      "note": 52,
      "start": 46.681,
      "duration": 0.0326,
      "velocity": 98,
      "chip": "ym2612"
    },
    {
      "channel": 1,
      "note": 52,
      "start": 46.6835,
      "duration": 0.2862,
      "velocity": 86,
      "chip": "ym2612"
    },
    {
      "channel": 3,
      "note": 47,
      "start": 46.6858,
      "duration": 0.284,
      "velocity": 86,
      "chip": "ym2612"
    },
    {
      "channel": 4,
      "note": 52,
      "start": 46.7831,
      "duration": 0.0473,
      "velocity": 98,
      "chip": "ym2612"
    },
    {
      "channel": 0,
      "note": 45,
      "start": 46.7854,
      "duration": 0.0781,
      "velocity": 127,
      "chip": "ym2612"
    },
    {
      "channel": 4,
      "note": 52,
      "start": 46.8997,
      "duration": 0.0265,
      "velocity": 98,
      "chip": "ym2612"
    },
    {
      "channel": 4,
      "note": 52,
      "start": 46.9522,
      "duration": 0.0176,
      "velocity": 98,
      "chip": "ym2612"
    },
    {
      "channel": 0,
      "note": 45,
      "start": 46.9554,
      "duration": 0.0143,
      "velocity": 127,
      "chip": "ym2612"
    },
    {
      "channel": 4,
      "note": 57,
      "start": 46.9974,
      "duration": 0.0332,
      "velocity": 98,
      "chip": "ym2612"
    },
    {
      "channel": 0,
      "note": 45,
      "start": 46.9995,
      "duration": 0.0308,
      "velocity": 127,
      "chip": "ym2612"
    },
    {
      "channel": 1,
      "note": 57,
      "start": 47.002,
      "duration": 0.2998,
      "velocity": 86,
      "chip": "ym2612"
    },
    {
      "channel": 3,
      "note": 45,
      "start": 47.0044,
      "duration": 0.2975,
      "velocity": 86,
      "chip": "ym2612"
    },
    {
      "channel": 4,
      "note": 57,
      "start": 47.0998,
      "duration": 0.0641,
      "velocity": 98,
      "chip": "ym2612"
    },
    {
      "channel": 0,
      "note": 45,
      "start": 47.1024,
      "duration": 0.0779,
      "velocity": 127,
      "chip": "ym2612"
    },
    {
      "channel": 4,
      "note": 57,
      "start": 47.2167,
      "duration": 0.02,
      "velocity": 98,
      "chip": "ym2612"
    },
    {
      "channel": 4,
      "note": 57,
      "start": 47.2696,
      "duration": 0.0131,
      "velocity": 98,
      "chip": "ym2612"
    },
    {
      "channel": 4,
      "note": 57,
      "start": 47.3163,
      "duration": 0.0199,
      "velocity": 98,
      "chip": "ym2612"
    },
    {
      "channel": 0,
      "note": 45,
      "start": 47.3194,
      "duration": 0.0225,
      "velocity": 127,
      "chip": "ym2612"
    },
    {
      "channel": 1,
      "note": 57,
      "start": 47.3223,
      "duration": 1.1973,
      "velocity": 86,
      "chip": "ym2612"
    },
    {
      "channel": 3,
      "note": 45,
      "start": 47.3248,
      "duration": 0.0415,
      "velocity": 86,
      "chip": "ym2612"
    },
    {
      "channel": 4,
      "note": 55,
      "start": 47.3689,
      "duration": 0.0271,
      "velocity": 98,
      "chip": "ym2612"
    },
    {
      "channel": 0,
      "note": 45,
      "start": 47.3711,
      "duration": 0.0415,
      "velocity": 127,
      "chip": "ym2612"
    },
    {
      "channel": 3,
      "note": 55,
      "start": 47.3734,
      "duration": 0.0725,
      "velocity": 86,
      "chip": "ym2612"
    },
    {
      "channel": 4,
      "note": 53,
      "start": 47.4488,
      "duration": 0.0266,
      "velocity": 98,
      "chip": "ym2612"
    },
    {
      "channel": 3,
      "note": 53,
      "start": 47.4553,
      "duration": 0.0393,
      "velocity": 86,
      "chip": "ym2612"
    },
    {
      "channel": 4,
      "note": 52,
      "start": 47.5032,
      "duration": 0.0248,
      "velocity": 98,
      "chip": "ym2612"
    },
    {
      "channel": 0,
      "note": 45,
      "start": 47.5066,
      "duration": 0.0213,
      "velocity": 127,
      "chip": "ym2612"
    },
    {
      "channel": 3,
      "note": 52,
      "start": 47.509,
      "duration": 0.0312,
      "velocity": 86,
      "chip": "ym2612"
    },
    {
      "channel": 4,
      "note": 57,
      "start": 47.5499,
      "duration": 0.031,
      "velocity": 98,
      "chip": "ym2612"
    },
    {
      "channel": 0,
      "note": 45,
      "start": 47.552,
      "duration": 0.0286,
      "velocity": 127,
      "chip": "ym2612"
    },
    {
      "channel": 3,
      "note": 57,
      "start": 47.5548,
      "duration": 0.0925,
      "velocity": 86,
      "chip": "ym2612"
    },
    {
      "channel": 4,
      "note": 55,
      "start": 47.6503,
      "duration": 0.0472,
      "velocity": 98,
      "chip": "ym2612"
    },
    {
      "channel": 0,
      "note": 45,
      "start": 47.6529,
      "duration": 0.0944,
      "velocity": 127,
      "chip": "ym2612"
    },
    {
      "channel": 3,
      "note": 55,
      "start": 47.6557,
      "duration": 0.125,
      "velocity": 86,
      "chip": "ym2612"
    },
    {
      "channel": 4,
      "note": 53,
      "start": 47.7837,
      "duration": 0.0208,
      "velocity": 98,
      "chip": "ym2612"
    },
    {
      "channel": 3,
      "note": 53,
      "start": 47.7898,
      "duration": 0.0334,
      "velocity": 86,
      "chip": "ym2612"
    },
    {
      "channel": 4,
      "note": 52,
      "start": 47.8323,
      "duration": 0.0249,
      "velocity": 98,
      "chip": "ym2612"
    },
    {
      "channel": 0,
      "note": 45,
      "start": 47.8346,
      "duration": 0.0225,
      "velocity": 127,
      "chip": "ym2612"
    },
    {
      "channel": 3,
      "note": 52,
      "start": 47.837,
      "duration": 0.0336,
      "velocity": 86,
      "chip": "ym2612"
    },
    {
      "channel": 4,
      "note": 57,
      "start": 47.8854,
      "duration": 0.0122,
      "velocity": 98,
      "chip": "ym2612"
    },
    {
      "channel": 0,
      "note": 45,
      "start": 47.8874,
      "duration": 0.0163,
      "velocity": 127,
      "chip": "ym2612"
    },
    {
      "channel": 3,
      "note": 57,
      "start": 47.89,
      "duration": 0.0764,
      "velocity": 86,
      "chip": "ym2612"
    },
    {
      "channel": 4,
      "note": 55,
      "start": 47.9693,
      "duration": 0.0473,
      "velocity": 98,
      "chip": "ym2612"
    },
    {
      "channel": 0,
      "note": 45,
      "start": 47.9719,
      "duration": 0.0778,
      "velocity": 127,
      "chip": "ym2612"
    },
    {
      "channel": 3,
      "note": 55,
      "start": 47.9747,
      "duration": 0.1251,
      "velocity": 86,
      "chip": "ym2612"
    },
    {
      "channel": 4,
      "note": 53,
      "start": 48.1027,
      "duration": 0.0147,
      "velocity": 98,
      "chip": "ym2612"
    },
    {
      "channel": 3,
      "note": 53,
      "start": 48.1088,
      "duration": 0.0334,
      "velocity": 86,
      "chip": "ym2612"
    },
    {
      "channel": 4,
      "note": 52,
      "start": 48.1509,
      "duration": 0.0246,
      "velocity": 98,
      "chip": "ym2612"
    },
    {
      "channel": 0,
      "note": 45,
      "start": 48.1535,
      "duration": 0.022,
      "velocity": 127,
      "chip": "ym2612"
    },
    {
      "channel": 3,
      "note": 52,
      "start": 48.1559,
      "duration": 0.0331,
      "velocity": 86,
      "chip": "ym2612"
    },
    {
      "channel": 4,
      "note": 57,
      "start": 48.2039,
      "duration": 0.0119,
      "velocity": 98,
      "chip": "ym2612"
    },
    {
      "channel": 0,
      "note": 45,
      "start": 48.2061,
      "duration": 0.0157,
      "velocity": 127,
      "chip": "ym2612"
    },
    {
      "channel": 3,
      "note": 57,
      "start": 48.2086,
      "duration": 0.0764,
      "velocity": 86,
      "chip": "ym2612"
    },
    {
      "channel": 4,
      "note": 55,
      "start": 48.2878,
      "duration": 0.0473,
      "velocity": 98,
      "chip": "ym2612"
    },
    {
      "channel": 0,
      "note": 45,
      "start": 48.2904,
      "duration": 0.0779,
      "velocity": 127,
      "chip": "ym2612"
    },
    {
      "channel": 3,
      "note": 55,
      "start": 48.2933,
      "duration": 0.1083,
      "velocity": 86,
      "chip": "ym2612"
    },
    {
      "channel": 4,
      "note": 53,
      "start": 48.4212,
      "duration": 0.0271,
      "velocity": 98,
      "chip": "ym2612"
    },
    {
      "channel": 3,
      "note": 53,
      "start": 48.4277,
      "duration": 0.0396,
      "velocity": 86,
      "chip": "ym2612"
    },
    {
      "channel": 4,
      "note": 52,
      "start": 48.4699,
      "duration": 0.0186,
      "velocity": 98,
      "chip": "ym2612"
    },
    {
      "channel": 0,
      "note": 45,
      "start": 48.472,
      "duration": 0.0226,
      "velocity": 127,
      "chip": "ym2612"
    },
    {
      "channel": 3,
      "note": 52,
      "start": 48.4745,
      "duration": 0.0387,
      "velocity": 86,
      "chip": "ym2612"
    },
    {
      "channel": 4,
      "note": 57,
      "start": 48.5228,
      "duration": 0.0158,
      "velocity": 98,
      "chip": "ym2612"
    },
    {
      "channel": 0,
      "note": 45,
      "start": 48.5251,
      "duration": 0.0786,
      "velocity": 127,
      "chip": "ym2612"
    },
    {
      "channel": 2,
      "note": 76,
      "start": 48.5285,
      "duration": 0.0255,
      "velocity": 127,
      "chip": "ym2612"
    },
    {
      "channel": 1,
      "note": 45,
      "start": 48.5321,
      "duration": 0.1384,
      "velocity": 86,
      "chip": "ym2612"
    },
    {
      "channel": 3,
      "note": 57,
      "start": 48.5345,
      "duration": 0.1527,
      "velocity": 86,
      "chip": "ym2612"
    },
    {
      "channel": 4,
      "note": 57,
      "start": 48.6068,
      "duration": 0.0639,
      "velocity": 98,
      "chip": "ym2612"
    },
    {
      "channel": 2,
      "note": 76,
      "start": 48.6095,
      "duration": 0.0613,
      "velocity": 127,
      "chip": "ym2612"
    },
    {
      "channel": 4,
      "note": 55,
      "start": 48.74,
      "duration": 0.0177,
      "velocity": 98,
      "chip": "ym2612"
    },
    {
      "channel": 2,
      "note": 73,
      "start": 48.7429,
      "duration": 0.0149,
      "velocity": 127,
      "chip": "ym2612"
    },
    {
      "channel": 1,
      "note": 55,
      "start": 48.749,
      "duration": 0.0845,
      "velocity": 86,
      "chip": "ym2612"
    },
    {
      "channel": 3,
      "note": 45,
      "start": 48.7512,
      "duration": 0.0697,
      "velocity": 86,
      "chip": "ym2612"
    },
    {
      "channel": 4,
      "note": 55,
      "start": 48.7906,
      "duration": 0.0183,
      "velocity": 98,
      "chip": "ym2612"
    },
    {
      "channel": 2,
      "note": 73,
      "start": 48.794,
      "duration": 0.022,
      "velocity": 127,
      "chip": "ym2612"
    },
    {
      "channel": 4,
      "note": 53,
      "start": 48.842,
      "duration": 0.0146,
      "velocity": 98,
      "chip": "ym2612"
    },
    {
      "channel": 0,
      "note": 45,
      "start": 48.8452,
      "duration": 0.0264,
      "velocity": 127,
      "chip": "ym2612"
    },
    {
      "channel": 2,
      "note": 69,
      "start": 48.8476,
      "duration": 0.0243,
      "velocity": 127,
      "chip": "ym2612"
    },
    {
      "channel": 1,
      "note": 53,
      "start": 48.8499,
      "duration": 0.1551,
      "velocity": 86,
      "chip": "ym2612"
    },
    {
      "channel": 3,
      "note": 45,
      "start": 48.8519,
      "duration": 0.1532,
      "velocity": 86,
      "chip": "ym2612"
    },
    {
      "channel": 4,
      "note": 53,
      "start": 48.9246,
      "duration": 0.0638,
      "velocity": 98,
      "chip": "ym2612"
    },
    {
      "channel": 0,
      "note": 45,
      "start": 48.9276,
      "duration": 0.1107,
      "velocity": 127,
      "chip": "ym2612"
    },
    {
      "channel": 2,
      "note": 69,
      "start": 48.9302,
      "duration": 0.0583,
      "velocity": 127,
      "chip": "ym2612"
    },
    {
      "channel": 4,
      "note": 52,
      "start": 49.0577,
      "duration": 0.0302,
      "velocity": 98,
      "chip": "ym2612"
    },
    {
      "channel": 2,
      "note": 66,
      "start": 49.0608,
      "duration": 0.0273,
      "velocity": 127,
      "chip": "ym2612"
    },
    {
      "channel": 1,
      "note": 52,
      "start": 49.0668,
      "duration": 0.0672,
      "velocity": 86,
      "chip": "ym2612"
    },
    {
      "channel": 3,
      "note": 45,
      "start": 49.0693,
      "duration": 0.0648,
      "velocity": 86,
      "chip": "ym2612"
    },
    {
      "channel": 4,
      "note": 52,
      "start": 49.1159,
      "duration": 0.0183,
      "velocity": 98,
      "chip": "ym2612"
    },
    {
      "channel": 0,
      "note": 45,
      "start": 49.1181,
      "duration": 0.0401,
      "velocity": 127,
      "chip": "ym2612"
    },
    {
      "channel": 2,
      "note": 66,
      "start": 49.1205,
      "duration": 0.0076,
      "velocity": 127,
      "chip": "ym2612"
    },
    {
      "channel": 4,
      "note": 50,
      "start": 49.1615,
      "duration": 0.02,
      "velocity": 98,
      "chip": "ym2612"
    },
    {
      "channel": 0,
      "note": 45,
      "start": 49.1651,
      "duration": 0.0915,
      "velocity": 127,
      "chip": "ym2612"
    },
    {
      "channel": 1,
      "note": 45,
      "start": 49.1712,
      "duration": 0.2641,
      "velocity": 86,
      "chip": "ym2612"
    },
    {
      "channel": 3,
      "note": 50,
      "start": 49.1741,
      "duration": 0.2612,
      "velocity": 86,
      "chip": "ym2612"
    },
    {
      "channel": 4,
      "note": 50,
      "start": 49.2597,
      "duration": 0.047,
      "velocity": 98,
      "chip": "ym2612"
    },
    {
      "channel": 4,
      "note": 50,
      "start": 49.376,
      "duration": 0.0281,
      "velocity": 98,
      "chip": "ym2612"
    },
    {
      "channel": 4,
      "note": 50,
      "start": 49.4305,
      "duration": 0.0164,
      "velocity": 98,
      "chip": "ym2612"
    },
    {
      "channel": 4,
      "note": 53,
      "start": 49.4742,
      "duration": 0.034,
      "velocity": 98,
      "chip": "ym2612"
    },
    {
      "channel": 0,
      "note": 45,
      "start": 49.4766,
      "duration": 0.0312,
      "velocity": 127,
      "chip": "ym2612"
    },
    {
      "channel": 1,
      "note": 53,
      "start": 49.4791,
      "duration": 0.2986,
      "velocity": 86,
      "chip": "ym2612"
    },
    {
      "channel": 3,
      "note": 48,
      "start": 49.4824,
      "duration": 0.3016,
      "velocity": 86,
      "chip": "ym2612"
    },
    {
      "channel": 4,
      "note": 53,
      "start": 49.5776,
      "duration": 0.0305,
      "velocity": 98,
      "chip": "ym2612"
    },
    {
      "channel": 0,
      "note": 45,
      "start": 49.5802,
      "duration": 0.0943,
      "velocity": 127,
      "chip": "ym2612"
    },
    {
      "channel": 4,
      "note": 53,
      "start": 49.6942,
      "duration": 0.0259,
      "velocity": 98,
      "chip": "ym2612"
    },
    {
      "channel": 4,
      "note": 53,
      "start": 49.7469,
      "duration": 0.0244,
      "velocity": 98,
      "chip": "ym2612"
    },
    {
      "channel": 0,
      "note": 45,
      "start": 49.7499,
      "duration": 0.034,
      "velocity": 127,
      "chip": "ym2612"
    },
    {
      "channel": 4,
      "note": 52,
      "start": 49.7932,
      "duration": 0.0331,
      "velocity": 98,
      "chip": "ym2612"
    },
    {
      "channel": 1,
      "note": 52,
      "start": 49.7958,
      "duration": 0.2939,
      "velocity": 86,
      "chip": "ym2612"
    },
    {
      "channel": 3,
      "note": 47,
      "start": 49.7981,
      "duration": 0.2797,
      "velocity": 86,
      "chip": "ym2612"
    },
    {
      "channel": 4,
      "note": 52,
      "start": 49.8961,
      "duration": 0.0637,
      "velocity": 98,
      "chip": "ym2612"
    },
    {
      "channel": 0,
      "note": 45,
      "start": 49.8984,
      "duration": 0.0944,
      "velocity": 127,
      "chip": "ym2612"
    },
    {
      "channel": 4,
      "note": 52,
      "start": 50.0124,
      "duration": 0.0199,
      "velocity": 98,
      "chip": "ym2612"
    },
    {
      "channel": 4,
      "note": 52,
      "start": 50.0658,
      "duration": 0.024,
      "velocity": 98,
      "chip": "ym2612"
    },
    {
      "channel": 0,
      "note": 45,
      "start": 50.069,
      "duration": 0.0207,
      "velocity": 127,
      "chip": "ym2612"
    },
    {
      "channel": 4,
      "note": 57,
      "start": 50.1112,
      "duration": 0.019,
      "velocity": 98,
      "chip": "ym2612"
    },
    {
      "channel": 0,
      "note": 45,
      "start": 50.1135,
      "duration": 0.0307,
      "velocity": 127,
      "chip": "ym2612"
    },
    {
      "channel": 1,
      "note": 45,
      "start": 50.116,
      "duration": 0.2968,
      "velocity": 86,
      "chip": "ym2612"
    },
    {
      "channel": 3,
      "note": 57,
      "start": 50.1193,
      "duration": 0.2811,
      "velocity": 86,
      "chip": "ym2612"
    },
    {
      "channel": 4,
      "note": 57,
      "start": 50.2136,
      "duration": 0.0307,
      "velocity": 98,
      "chip": "ym2612"
    },
    {
      "channel": 0,
      "note": 45,
      "start": 50.2163,
      "duration": 0.0778,
      "velocity": 127,
      "chip": "ym2612"
    },
    {
      "channel": 4,
      "note": 57,
      "start": 50.3304,
      "duration": 0.0268,
      "velocity": 98,
      "chip": "ym2612"
    },
    {
      "channel": 4,
      "note": 57,
      "start": 50.384,
      "duration": 0.0236,
      "velocity": 98,
      "chip": "ym2612"
    },
    {
      "channel": 4,
      "note": 50,
      "start": 50.433,
      "duration": 0.0288,
      "velocity": 98,
      "chip": "ym2612"
    },
    {
      "channel": 0,
      "note": 45,
      "start": 50.4362,
      "duration": 0.0753,
      "velocity": 127,
      "chip": "ym2612"
    },
    {
      "channel": 1,
      "note": 50,
      "start": 50.4386,
      "duration": 0.2955,
      "velocity": 86,
      "chip": "ym2612"
    },
    {
      "channel": 3,
      "note": 45,
      "start": 50.4409,
      "duration": 0.2872,
      "velocity": 86,
      "chip": "ym2612"
    },
    {
      "channel": 4,
      "note": 50,
      "start": 50.531,
      "duration": 0.0641,
      "velocity": 98,
      "chip": "ym2612"
    },
    {
      "channel": 4,
      "note": 50,
      "start": 50.6644,
      "duration": 0.0194,
      "velocity": 98,
      "chip": "ym2612"
    },
    {
      "channel": 4,
      "note": 50,
      "start": 50.711,
      "duration": 0.0233,
      "velocity": 98,
      "chip": "ym2612"
    },
    {
      "channel": 4,
      "note": 53,
      "start": 50.7608,
      "duration": 0.0204,
      "velocity": 98,
      "chip": "ym2612"
    },
    {
      "channel": 0,
      "note": 45,
      "start": 50.7631,
      "duration": 0.018,
      "velocity": 127,
      "chip": "ym2612"
    },
    {
      "channel": 1,
      "note": 53,
      "start": 50.7655,
      "duration": 0.294,
      "velocity": 86,
      "chip": "ym2612"
    },
    {
      "channel": 3,
      "note": 48,
      "start": 50.769,
      "duration": 0.2905,
      "velocity": 86,
      "chip": "ym2612"
    },
    {
      "channel": 4,
      "note": 53,
      "start": 50.849,
      "duration": 0.0468,
      "velocity": 98,
      "chip": "ym2612"
    },
    {
      "channel": 0,
      "note": 45,
      "start": 50.8516,
      "duration": 0.0941,
      "velocity": 127,
      "chip": "ym2612"
    },
    {
      "channel": 4,
      "note": 53,
      "start": 50.982,
      "duration": 0.0203,
      "velocity": 98,
      "chip": "ym2612"
    },
    {
      "channel": 4,
      "note": 53,
      "start": 51.0289,
      "duration": 0.0244,
      "velocity": 98,
      "chip": "ym2612"
    },
    {
      "channel": 0,
      "note": 45,
      "start": 51.0311,
      "duration": 0.0282,
      "velocity": 127,
      "chip": "ym2612"
    },
    {
      "channel": 4,
      "note": 52,
      "start": 51.0807,
      "duration": 0.018,
      "velocity": 98,
      "chip": "ym2612"
    },
    {
      "channel": 1,
      "note": 52,
      "start": 51.0836,
      "duration": 0.2711,
      "velocity": 86,
      "chip": "ym2612"
    },
    {
      "channel": 3,
      "note": 47,
      "start": 51.086,
      "duration": 0.2689,
      "velocity": 86,
      "chip": "ym2612"
    },
    {
      "channel": 4,
      "note": 52,
      "start": 51.1659,
      "duration": 0.0641,
      "velocity": 98,
      "chip": "ym2612"
    },
    {
      "channel": 0,
      "note": 45,
      "start": 51.1682,
      "duration": 0.0783,
      "velocity": 127,
      "chip": "ym2612"
    },
    {
      "channel": 4,
      "note": 52,
      "start": 51.2826,
      "duration": 0.027,
      "velocity": 98,
      "chip": "ym2612"
    },
    {
      "channel": 4,
      "note": 52,
      "start": 51.3363,
      "duration": 0.0185,
      "velocity": 98,
      "chip": "ym2612"
    },
    {
      "channel": 0,
      "note": 45,
      "start": 51.3398,
      "duration": 0.0149,
      "velocity": 127,
      "chip": "ym2612"
    },
    {
      "channel": 4,
      "note": 45,
      "start": 51.3825,
      "duration": 0.0199,
      "velocity": 98,
      "chip": "ym2612"
    },
    {
      "channel": 0,
      "note": 45,
      "start": 51.3847,
      "duration": 0.0176,
      "velocity": 127,
      "chip": "ym2612"
    },
    {
      "channel": 1,
      "note": 57,
      "start": 51.3872,
      "duration": 0.2643,
      "velocity": 86,
      "chip": "ym2612"
    },
    {
      "channel": 3,
      "note": 45,
      "start": 51.391,
      "duration": 0.2729,
      "velocity": 86,
      "chip": "ym2612"
    },
    {
      "channel": 4,
      "note": 45,
      "start": 51.4687,
      "duration": 0.0641,
      "velocity": 98,
      "chip": "ym2612"
    },
    {
      "channel": 0,
      "note": 45,
      "start": 51.4713,
      "duration": 0.0779,
      "velocity": 127,
      "chip": "ym2612"
    },
    {
      "channel": 4,
      "note": 45,
      "start": 51.5854,
      "duration": 0.027,
      "velocity": 98,
      "chip": "ym2612"
    },
    {
      "channel": 4,
      "note": 45,
      "start": 51.6391,
      "duration": 0.0189,
      "velocity": 98,
      "chip": "ym2612"
    },
    {
      "channel": 4,
      "note": 50,
      "start": 51.6843,
      "duration": 0.0194,
      "velocity": 98,
      "chip": "ym2612"
    },
    {
      "channel": 0,
      "note": 45,
      "start": 51.6874,
      "duration": 0.0344,
      "velocity": 127,
      "chip": "ym2612"
    },
    {
      "channel": 1,
      "note": 50,
      "start": 51.6899,
      "duration": 0.1809,
      "velocity": 86,
      "chip": "ym2612"
    },
    {
      "channel": 3,
      "note": 45,
      "start": 51.6924,
      "duration": 0.1785,
      "velocity": 86,
      "chip": "ym2612"
    },
    {
      "channel": 4,
      "note": 50,
      "start": 51.7311,
      "duration": 0.0222,
      "velocity": 98,
      "chip": "ym2612"
    },
    {
      "channel": 4,
      "note": 50,
      "start": 51.8002,
      "duration": 0.0274,
      "velocity": 98,
      "chip": "ym2612"
    },
    {
      "channel": 4,
      "note": 50,
      "start": 51.8483,
      "duration": 0.0227,
      "velocity": 98,
      "chip": "ym2612"
    },
    {
      "channel": 4,
      "note": 53,
      "start": 51.8985,
      "duration": 0.0203,
      "velocity": 98,
      "chip": "ym2612"
    },
    {
      "channel": 0,
      "note": 45,
      "start": 51.9008,
      "duration": 0.0178,
      "velocity": 127,
      "chip": "ym2612"
    },
    {
      "channel": 1,
      "note": 48,
      "start": 51.903,
      "duration": 0.2706,
      "velocity": 86,
      "chip": "ym2612"
    },
    {
      "channel": 3,
      "note": 53,
      "start": 51.9064,
      "duration": 0.2736,
      "velocity": 86,
      "chip": "ym2612"
    },
    {
      "channel": 4,
      "note": 53,
      "start": 51.9858,
      "duration": 0.0641,
      "velocity": 98,
      "chip": "ym2612"
    },
    {
      "channel": 0,
      "note": 45,
      "start": 51.9884,
      "duration": 0.0945,
      "velocity": 127,
      "chip": "ym2612"
    },
    {
      "channel": 4,
      "note": 53,
      "start": 52.1025,
      "duration": 0.0266,
      "velocity": 98,
      "chip": "ym2612"
    },
    {
      "channel": 4,
      "note": 53,
      "start": 52.1493,
      "duration": 0.0244,
      "velocity": 98,
      "chip": "ym2612"
    },
    {
      "channel": 0,
      "note": 45,
      "start": 52.1518,
      "duration": 0.0281,
      "velocity": 127,
      "chip": "ym2612"
    },
    {
      "channel": 4,
      "note": 52,
      "start": 52.2013,
      "duration": 0.0186,
      "velocity": 98,
      "chip": "ym2612"
    },
    {
      "channel": 1,
      "note": 52,
      "start": 52.2037,
      "duration": 0.2704,
      "velocity": 86,
      "chip": "ym2612"
    },
    {
      "channel": 3,
      "note": 47,
      "start": 52.2061,
      "duration": 0.2681,
      "velocity": 86,
      "chip": "ym2612"
    },
    {
      "channel": 4,
      "note": 52,
      "start": 52.2872,
      "duration": 0.0641,
      "velocity": 98,
      "chip": "ym2612"
    },
    {
      "channel": 0,
      "note": 45,
      "start": 52.2895,
      "duration": 0.0783,
      "velocity": 127,
      "chip": "ym2612"
    },
    {
      "channel": 4,
      "note": 52,
      "start": 52.404,
      "duration": 0.0261,
      "velocity": 98,
      "chip": "ym2612"
    },
    {
      "channel": 4,
      "note": 52,
      "start": 52.4505,
      "duration": 0.0238,
      "velocity": 98,
      "chip": "ym2612"
    },
    {
      "channel": 0,
      "note": 45,
      "start": 52.4528,
      "duration": 0.0212,
      "velocity": 127,
      "chip": "ym2612"
    },
    {
      "channel": 4,
      "note": 57,
      "start": 52.5006,
      "duration": 0.0196,
      "velocity": 98,
      "chip": "ym2612"
    },
    {
      "channel": 0,
      "note": 45,
      "start": 52.5025,
      "duration": 0.0176,
      "velocity": 127,
      "chip": "ym2612"
    },
    {
      "channel": 1,
      "note": 57,
      "start": 52.5048,
      "duration": 0.2773,
      "velocity": 86,
      "chip": "ym2612"
    },
    {
      "channel": 3,
      "note": 45,
      "start": 52.5072,
      "duration": 0.2749,
      "velocity": 86,
      "chip": "ym2612"
    },
    {
      "channel": 4,
      "note": 57,
      "start": 52.5867,
      "duration": 0.0641,
      "velocity": 98,
      "chip": "ym2612"
    },
    {
      "channel": 0,
      "note": 45,
      "start": 52.5893,
      "duration": 0.0779,
      "velocity": 127,
      "chip": "ym2612"
    },
    {
      "channel": 4,
      "note": 57,
      "start": 52.7036,
      "duration": 0.02,
      "velocity": 98,
      "chip": "ym2612"
    },
    {
      "channel": 4,
      "note": 57,
      "start": 52.7503,
      "duration": 0.0191,
      "velocity": 98,
      "chip": "ym2612"
    },
    {
      "channel": 4,
      "note": 57,
      "start": 52.8027,
      "duration": 0.0141,
      "velocity": 98,
      "chip": "ym2612"
    },
    {
      "channel": 0,
      "note": 45,
      "start": 52.8052,
      "duration": 0.0177,
      "velocity": 127,
      "chip": "ym2612"
    },
    {
      "channel": 1,
      "note": 57,
      "start": 52.8089,
      "duration": 1.1282,
      "velocity": 86,
      "chip": "ym2612"
    },
    {
      "channel": 3,
      "note": 45,
      "start": 52.8113,
      "duration": 0.0362,
      "velocity": 86,
      "chip": "ym2612"
    },
    {
      "channel": 4,
      "note": 55,
      "start": 52.8502,
      "duration": 0.0291,
      "velocity": 98,
      "chip": "ym2612"
    },
    {
      "channel": 0,
      "note": 45,
      "start": 52.8535,
      "duration": 0.0423,
      "velocity": 127,
      "chip": "ym2612"
    },
    {
      "channel": 3,
      "note": 55,
      "start": 52.8561,
      "duration": 0.0732,
      "velocity": 86,
      "chip": "ym2612"
    },
    {
      "channel": 4,
      "note": 53,
      "start": 52.932,
      "duration": 0.0266,
      "velocity": 98,
      "chip": "ym2612"
    },
    {
      "channel": 3,
      "note": 53,
      "start": 52.9385,
      "duration": 0.0327,
      "velocity": 86,
      "chip": "ym2612"
    },
    {
      "channel": 4,
      "note": 52,
      "start": 52.9805,
      "duration": 0.0252,
      "velocity": 98,
      "chip": "ym2612"
    },
    {
      "channel": 0,
      "note": 45,
      "start": 52.983,
      "duration": 0.0227,
      "velocity": 127,
      "chip": "ym2612"
    },
    {
      "channel": 3,
      "note": 52,
      "start": 52.9854,
      "duration": 0.0337,
      "velocity": 86,
      "chip": "ym2612"
    },
    {
      "channel": 4,
      "note": 57,
      "start": 53.0335,
      "duration": 0.0184,
      "velocity": 98,
      "chip": "ym2612"
    },
    {
      "channel": 0,
      "note": 45,
      "start": 53.0356,
      "duration": 0.0161,
      "velocity": 127,
      "chip": "ym2612"
    },
    {
      "channel": 3,
      "note": 57,
      "start": 53.0384,
      "duration": 0.0759,
      "velocity": 86,
      "chip": "ym2612"
    },
    {
      "channel": 4,
      "note": 55,
      "start": 53.1173,
      "duration": 0.0305,
      "velocity": 98,
      "chip": "ym2612"
    },
    {
      "channel": 0,
      "note": 45,
      "start": 53.1199,
      "duration": 0.0944,
      "velocity": 127,
      "chip": "ym2612"
    },
    {
      "channel": 3,
      "note": 55,
      "start": 53.1227,
      "duration": 0.1083,
      "velocity": 86,
      "chip": "ym2612"
    },
    {
      "channel": 4,
      "note": 53,
      "start": 53.234,
      "duration": 0.0272,
      "velocity": 98,
      "chip": "ym2612"
    },
    {
      "channel": 3,
      "note": 53,
      "start": 53.2403,
      "duration": 0.0332,
      "velocity": 86,
      "chip": "ym2612"
    },
    {
      "channel": 4,
      "note": 52,
      "start": 53.2826,
      "duration": 0.025,
      "velocity": 98,
      "chip": "ym2612"
    },
    {
      "channel": 0,
      "note": 45,
      "start": 53.2849,
      "duration": 0.0226,
      "velocity": 127,
      "chip": "ym2612"
    },
    {
      "channel": 3,
      "note": 52,
      "start": 53.2873,
      "duration": 0.0336,
      "velocity": 86,
      "chip": "ym2612"
    },
    {
      "channel": 4,
      "note": 57,
      "start": 53.3358,
      "duration": 0.0122,
      "velocity": 98,
      "chip": "ym2612"
    },
    {
      "channel": 0,
      "note": 45,
      "start": 53.3378,
      "duration": 0.0163,
      "velocity": 127,
      "chip": "ym2612"
    },
    {
      "channel": 3,
      "note": 57,
      "start": 53.3404,
      "duration": 0.0764,
      "velocity": 86,
      "chip": "ym2612"
    },
    {
      "channel": 4,
      "note": 55,
      "start": 53.4196,
      "duration": 0.0305,
      "velocity": 98,
      "chip": "ym2612"
    },
    {
      "channel": 0,
      "note": 45,
      "start": 53.4223,
      "duration": 0.0778,
      "velocity": 127,
      "chip": "ym2612"
    },
    {
      "channel": 3,
      "note": 55,
      "start": 53.4251,
      "duration": 0.1084,
      "velocity": 86,
      "chip": "ym2612"
    },
    {
      "channel": 4,
      "note": 53,
      "start": 53.5363,
      "duration": 0.0211,
      "velocity": 98,
      "chip": "ym2612"
    },
    {
      "channel": 3,
      "note": 53,
      "start": 53.5426,
      "duration": 0.0332,
      "velocity": 86,
      "chip": "ym2612"
    },
    {
      "channel": 4,
      "note": 52,
      "start": 53.5851,
      "duration": 0.0249,
      "velocity": 98,
      "chip": "ym2612"
    },
    {
      "channel": 0,
      "note": 45,
      "start": 53.5876,
      "duration": 0.0223,
      "velocity": 127,
      "chip": "ym2612"
    },
    {
      "channel": 3,
      "note": 52,
      "start": 53.5902,
      "duration": 0.0328,
      "velocity": 86,
      "chip": "ym2612"
    },
    {
      "channel": 4,
      "note": 57,
      "start": 53.6381,
      "duration": 0.0117,
      "velocity": 98,
      "chip": "ym2612"
    },
    {
      "channel": 0,
      "note": 45,
      "start": 53.6403,
      "duration": 0.0157,
      "velocity": 127,
      "chip": "ym2612"
    },
    {
      "channel": 3,
      "note": 57,
      "start": 53.6428,
      "duration": 0.0761,
      "velocity": 86,
      "chip": "ym2612"
    },
    {
      "channel": 4,
      "note": 55,
      "start": 53.7217,
      "duration": 0.0306,
      "velocity": 98,
      "chip": "ym2612"
    },
    {
      "channel": 0,
      "note": 45,
      "start": 53.7244,
      "duration": 0.0778,
      "velocity": 127,
      "chip": "ym2612"
    },
    {
      "channel": 3,
      "note": 55,
      "start": 53.7273,
      "duration": 0.0917,
      "velocity": 86,
      "chip": "ym2612"
    },
    {
      "channel": 4,
      "note": 53,
      "start": 53.8385,
      "duration": 0.0274,
      "velocity": 98,
      "chip": "ym2612"
    },
    {
      "channel": 3,
      "note": 53,
      "start": 53.845,
      "duration": 0.04,
      "velocity": 86,
      "chip": "ym2612"
    },
    {
      "channel": 4,
      "note": 52,
      "start": 53.8875,
      "duration": 0.0186,
      "velocity": 98,
      "chip": "ym2612"
    },
    {
      "channel": 0,
      "note": 45,
      "start": 53.8897,
      "duration": 0.0226,
      "velocity": 127,
      "chip": "ym2612"
    },
    {
      "channel": 3,
      "note": 52,
      "start": 53.8921,
      "duration": 0.0333,
      "velocity": 86,
      "chip": "ym2612"
    },
    {
      "channel": 4,
      "note": 57,
      "start": 53.9402,
      "duration": 0.0158,
      "velocity": 98,
      "chip": "ym2612"
    },
    {
      "channel": 0,
      "note": 45,
      "start": 53.9425,
      "duration": 0.0789,
      "velocity": 127,
      "chip": "ym2612"
    },
    {
      "channel": 2,
      "note": 76,
      "start": 53.9459,
      "duration": 0.0145,
      "velocity": 127,
      "chip": "ym2612"
    },
    {
      "channel": 1,
      "note": 45,
      "start": 53.9495,
      "duration": 0.1219,
      "velocity": 86,
      "chip": "ym2612"
    },
    {
      "channel": 3,
      "note": 57,
      "start": 53.9519,
      "duration": 0.1529,
      "velocity": 86,
      "chip": "ym2612"
    },
    {
      "channel": 4,
      "note": 57,
      "start": 54.0244,
      "duration": 0.0471,
      "velocity": 98,
      "chip": "ym2612"
    },
    {
      "channel": 2,
      "note": 76,
      "start": 54.0272,
      "duration": 0.0446,
      "velocity": 127,
      "chip": "ym2612"
    },
    {
      "channel": 4,
      "note": 55,
      "start": 54.141,
      "duration": 0.0241,
      "velocity": 98,
      "chip": "ym2612"
    },
    {
      "channel": 2,
      "note": 73,
      "start": 54.1438,
      "duration": 0.0213,
      "velocity": 127,
      "chip": "ym2612"
    },
    {
      "channel": 1,
      "note": 55,
      "start": 54.1499,
      "duration": 0.0783,
      "velocity": 86,
      "chip": "ym2612"
    },
    {
      "channel": 3,
      "note": 45,
      "start": 54.1522,
      "duration": 0.0699,
      "velocity": 86,
      "chip": "ym2612"
    },
    {
      "channel": 4,
      "note": 55,
      "start": 54.1922,
      "duration": 0.0177,
      "velocity": 98,
      "chip": "ym2612"
    },
    {
      "channel": 2,
      "note": 73,
      "start": 54.1956,
      "duration": 0.0211,
      "velocity": 127,
      "chip": "ym2612"
    },
    {
      "channel": 4,
      "note": 53,
      "start": 54.243,
      "duration": 0.0151,
      "velocity": 98,
      "chip": "ym2612"
    },
    {
      "channel": 0,
      "note": 45,
      "start": 54.2463,
      "duration": 0.0181,
      "velocity": 127,
      "chip": "ym2612"
    },
    {
      "channel": 2,
      "note": 69,
      "start": 54.2487,
      "duration": 0.0159,
      "velocity": 127,
      "chip": "ym2612"
    },
    {
      "channel": 1,
      "note": 53,
      "start": 54.2511,
      "duration": 0.155,
      "velocity": 86,
      "chip": "ym2612"
    },
    {
      "channel": 3,
      "note": 45,
      "start": 54.2535,
      "duration": 0.1527,
      "velocity": 86,
      "chip": "ym2612"
    },
    {
      "channel": 4,
      "note": 53,
      "start": 54.3256,
      "duration": 0.0473,
      "velocity": 98,
      "chip": "ym2612"
    },
    {
      "channel": 0,
      "note": 45,
      "start": 54.3285,
      "duration": 0.0941,
      "velocity": 127,
      "chip": "ym2612"
    },
    {
      "channel": 2,
      "note": 69,
      "start": 54.3312,
      "duration": 0.0419,
      "velocity": 127,
      "chip": "ym2612"
    },
    {
      "channel": 4,
      "note": 52,
      "start": 54.4421,
      "duration": 0.0304,
      "velocity": 98,
      "chip": "ym2612"
    },
    {
      "channel": 2,
      "note": 66,
      "start": 54.4452,
      "duration": 0.0273,
      "velocity": 127,
      "chip": "ym2612"
    },
    {
      "channel": 1,
      "note": 52,
      "start": 54.4515,
      "duration": 0.0669,
      "velocity": 86,
      "chip": "ym2612"
    },
    {
      "channel": 3,
      "note": 45,
      "start": 54.4537,
      "duration": 0.0647,
      "velocity": 86,
      "chip": "ym2612"
    },
    {
      "channel": 4,
      "note": 52,
      "start": 54.4941,
      "duration": 0.0244,
      "velocity": 98,
      "chip": "ym2612"
    },
    {
      "channel": 0,
      "note": 45,
      "start": 54.4965,
      "duration": 0.0465,
      "velocity": 127,
      "chip": "ym2612"
    },
    {
      "channel": 2,
      "note": 66,
      "start": 54.4989,
      "duration": 0.0133,
      "velocity": 127,
      "chip": "ym2612"
    },
    {
      "channel": 4,
      "note": 50,
      "start": 54.5464,
      "duration": 0.0167,
      "velocity": 98,
      "chip": "ym2612"
    },
    {
      "channel": 0,
      "note": 45,
      "start": 54.5503,
      "duration": 0.074,
      "velocity": 127,
      "chip": "ym2612"
    },
    {
      "channel": 1,
      "note": 45,
      "start": 54.5561,
      "duration": 0.2468,
      "velocity": 86,
      "chip": "ym2612"
    },
    {
      "channel": 3,
      "note": 50,
      "start": 54.5594,
      "duration": 0.2436,
      "velocity": 86,
      "chip": "ym2612"
    },
    {
      "channel": 4,
      "note": 50,
      "start": 54.6273,
      "duration": 0.0472,
      "velocity": 98,
      "chip": "ym2612"
    },
    {
      "channel": 4,
      "note": 50,
      "start": 54.7438,
      "duration": 0.0282,
      "velocity": 98,
      "chip": "ym2612"
    },
    {
      "channel": 4,
      "note": 50,
      "start": 54.7924,
      "duration": 0.0221,
      "velocity": 98,
      "chip": "ym2612"
    },
    {
      "channel": 4,
      "note": 53,
      "start": 54.842,
      "duration": 0.0199,
      "velocity": 98,
      "chip": "ym2612"
    },
    {
      "channel": 0,
      "note": 45,
      "start": 54.8445,
      "duration": 0.0173,
      "velocity": 127,
      "chip": "ym2612"
    },
    {
      "channel": 1,
      "note": 53,
      "start": 54.847,
      "duration": 0.2746,
      "velocity": 86,
      "chip": "ym2612"
    },
    {
      "channel": 3,
      "note": 48,
      "start": 54.8503,
      "duration": 0.2776,
      "velocity": 86,
      "chip": "ym2612"
    },
    {
      "channel": 4,
      "note": 53,
      "start": 54.9286,
      "duration": 0.0305,
      "velocity": 98,
      "chip": "ym2612"
    },
    {
      "channel": 0,
      "note": 45,
      "start": 54.9313,
      "duration": 0.0943,
      "velocity": 127,
      "chip": "ym2612"
    },
    {
      "channel": 4,
      "note": 53,
      "start": 55.0452,
      "duration": 0.0266,
      "velocity": 98,
      "chip": "ym2612"
    },
    {
      "channel": 4,
      "note": 53,
      "start": 55.092,
      "duration": 0.0236,
      "velocity": 98,
      "chip": "ym2612"
    },
    {
      "channel": 0,
      "note": 45,
      "start": 55.0939,
      "duration": 0.0339,
      "velocity": 127,
      "chip": "ym2612"
    },
    {
      "channel": 4,
      "note": 52,
      "start": 55.1427,
      "duration": 0.0187,
      "velocity": 98,
      "chip": "ym2612"
    },
    {
      "channel": 1,
      "note": 52,
      "start": 55.1452,
      "duration": 0.2709,
      "velocity": 86,
      "chip": "ym2612"
    },
    {
      "channel": 3,
      "note": 47,
      "start": 55.1476,
      "duration": 0.2628,
      "velocity": 86,
      "chip": "ym2612"
    },
    {
      "channel": 4,
      "note": 52,
      "start": 55.2291,
      "duration": 0.047,
      "velocity": 98,
      "chip": "ym2612"
    },
    {
      "channel": 0,
      "note": 45,
      "start": 55.2315,
      "duration": 0.0944,
      "velocity": 127,
      "chip": "ym2612"
    },
    {
      "channel": 4,
      "note": 52,
      "start": 55.3455,
      "duration": 0.0136,
      "velocity": 98,
      "chip": "ym2612"
    },
    {
      "channel": 4,
      "note": 52,
      "start": 55.3923,
      "duration": 0.0239,
      "velocity": 98,
      "chip": "ym2612"
    },
    {
      "channel": 0,
      "note": 45,
      "start": 55.3946,
      "duration": 0.0215,
      "velocity": 127,
      "chip": "ym2612"
    },
    {
      "channel": 4,
      "note": 57,
      "start": 55.444,
      "duration": 0.0132,
      "velocity": 98,
      "chip": "ym2612"
    },
    {
      "channel": 0,
      "note": 45,
      "start": 55.4463,
      "duration": 0.0171,
      "velocity": 127,
      "chip": "ym2612"
    },
    {
      "channel": 1,
      "note": 45,
      "start": 55.4488,
      "duration": 0.2753,
      "velocity": 86,
      "chip": "ym2612"
    },
    {
      "channel": 3,
      "note": 57,
      "start": 55.452,
      "duration": 0.259,
      "velocity": 86,
      "chip": "ym2612"
    },
    {
      "channel": 4,
      "note": 57,
      "start": 55.5301,
      "duration": 0.0307,
      "velocity": 98,
      "chip": "ym2612"
    },
    {
      "channel": 0,
      "note": 45,
      "start": 55.5327,
      "duration": 0.0779,
      "velocity": 127,
      "chip": "ym2612"
    },
    {
      "channel": 4,
      "note": 57,
      "start": 55.6468,
      "duration": 0.0266,
      "velocity": 98,
      "chip": "ym2612"
    },
    {
      "channel": 4,
      "note": 57,
      "start": 55.6937,
      "duration": 0.0234,
      "velocity": 98,
      "chip": "ym2612"
    },
    {
      "channel": 4,
      "note": 50,
      "start": 55.7394,
      "duration": 0.0258,
      "velocity": 98,
      "chip": "ym2612"
    },
    {
      "channel": 0,
      "note": 45,
      "start": 55.7418,
      "duration": 0.0714,
      "velocity": 127,
      "chip": "ym2612"
    },
    {
      "channel": 1,
      "note": 50,
      "start": 55.7443,
      "duration": 0.2745,
      "velocity": 86,
      "chip": "ym2612"
    },
    {
      "channel": 3,
      "note": 45,
      "start": 55.7465,
      "duration": 0.2662,
      "velocity": 86,
      "chip": "ym2612"
    },
    {
      "channel": 4,
      "note": 50,
      "start": 55.8327,
      "duration": 0.0473,
      "velocity": 98,
      "chip": "ym2612"
    },
    {
      "channel": 4,
      "note": 50,
      "start": 55.9493,
      "duration": 0.0262,
      "velocity": 98,
      "chip": "ym2612"
    },
    {
      "channel": 4,
      "note": 50,
      "start": 55.9954,
      "duration": 0.0236,
      "velocity": 98,
      "chip": "ym2612"
    },
    {
      "channel": 4,
      "note": 53,
      "start": 56.0405,
      "duration": 0.0254,
      "velocity": 98,
      "chip": "ym2612"
    },
    {
      "channel": 0,
      "note": 45,
      "start": 56.0427,
      "duration": 0.0232,
      "velocity": 127,
      "chip": "ym2612"
    },
    {
      "channel": 1,
      "note": 53,
      "start": 56.0449,
      "duration": 0.2834,
      "velocity": 86,
      "chip": "ym2612"
    },
    {
      "channel": 3,
      "note": 48,
      "start": 56.0473,
      "duration": 0.281,
      "velocity": 86,
      "chip": "ym2612"
    },
    {
      "channel": 4,
      "note": 53,
      "start": 56.1339,
      "duration": 0.0302,
      "velocity": 98,
      "chip": "ym2612"
    },
    {
      "channel": 0,
      "note": 45,
      "start": 56.1366,
      "duration": 0.0939,
      "velocity": 127,
      "chip": "ym2612"
    },
    {
      "channel": 4,
      "note": 53,
      "start": 56.2502,
      "duration": 0.0271,
      "velocity": 98,
      "chip": "ym2612"
    },
    {
      "channel": 4,
      "note": 53,
      "start": 56.2977,
      "duration": 0.0244,
      "velocity": 98,
      "chip": "ym2612"
    },
    {
      "channel": 0,
      "note": 45,
      "start": 56.2999,
      "duration": 0.0282,
      "velocity": 127,
      "chip": "ym2612"
    },
    {
      "channel": 4,
      "note": 52,
      "start": 56.3427,
      "duration": 0.0256,
      "velocity": 98,
      "chip": "ym2612"
    },
    {
      "channel": 1,
      "note": 52,
      "start": 56.3465,
      "duration": 0.2766,
      "velocity": 86,
      "chip": "ym2612"
    },
    {
      "channel": 3,
      "note": 47,
      "start": 56.3487,
      "duration": 0.2744,
      "velocity": 86,
      "chip": "ym2612"
    },
    {
      "channel": 4,
      "note": 52,
      "start": 56.4356,
      "duration": 0.0474,
      "velocity": 98,
      "chip": "ym2612"
    },
    {
      "channel": 0,
      "note": 45,
      "start": 56.438,
      "duration": 0.0783,
      "velocity": 127,
      "chip": "ym2612"
    },
    {
      "channel": 4,
      "note": 52,
      "start": 56.5522,
      "duration": 0.0264,
      "velocity": 98,
      "chip": "ym2612"
    },
    {
      "channel": 4,
      "note": 52,
      "start": 56.5988,
      "duration": 0.0245,
      "velocity": 98,
      "chip": "ym2612"
    },
    {
      "channel": 0,
      "note": 45,
      "start": 56.6014,
      "duration": 0.0217,
      "velocity": 127,
      "chip": "ym2612"
    },
    {
      "channel": 4,
      "note": 45,
      "start": 56.6439,
      "duration": 0.0269,
      "velocity": 98,
      "chip": "ym2612"
    },
    {
      "channel": 0,
      "note": 45,
      "start": 56.647,
      "duration": 0.0237,
      "velocity": 127,
      "chip": "ym2612"
    },
    {
      "channel": 1,
      "note": 57,
      "start": 56.6495,
      "duration": 0.2528,
      "velocity": 86,
      "chip": "ym2612"
    },
    {
      "channel": 3,
      "note": 45,
      "start": 56.652,
      "duration": 0.263,
      "velocity": 86,
      "chip": "ym2612"
    },
    {
      "channel": 4,
      "note": 45,
      "start": 56.7204,
      "duration": 0.0641,
      "velocity": 98,
      "chip": "ym2612"
    },
    {
      "channel": 0,
      "note": 45,
      "start": 56.723,
      "duration": 0.078,
      "velocity": 127,
      "chip": "ym2612"
    },
    {
      "channel": 4,
      "note": 45,
      "start": 56.8371,
      "duration": 0.0263,
      "velocity": 98,
      "chip": "ym2612"
    },
    {
      "channel": 4,
      "note": 45,
      "start": 56.8836,
      "duration": 0.0251,
      "velocity": 98,
      "chip": "ym2612"
    },
    {
      "channel": 4,
      "note": 50,
      "start": 56.9301,
      "duration": 0.0264,
      "velocity": 98,
      "chip": "ym2612"
    },
    {
      "channel": 0,
      "note": 45,
      "start": 56.9324,
      "duration": 0.0354,
      "velocity": 127,
      "chip": "ym2612"
    },
    {
      "channel": 1,
      "note": 50,
      "start": 56.9349,
      "duration": 0.1832,
      "velocity": 86,
      "chip": "ym2612"
    },
    {
      "channel": 3,
      "note": 45,
      "start": 56.9371,
      "duration": 0.1811,
      "velocity": 86,
      "chip": "ym2612"
    },
    {
      "channel": 4,
      "note": 50,
      "start": 56.9768,
      "duration": 0.0225,
      "velocity": 98,
      "chip": "ym2612"
    },
    {
      "channel": 4,
      "note": 50,
      "start": 57.0478,
      "duration": 0.027,
      "velocity": 98,
      "chip": "ym2612"
    },
    {
      "channel": 4,
      "note": 50,
      "start": 57.0954,
      "duration": 0.0229,
      "velocity": 98,
      "chip": "ym2612"
    },
    {
      "channel": 4,
      "note": 53,
      "start": 57.1406,
      "duration": 0.0252,
      "velocity": 98,
      "chip": "ym2612"
    },
    {
      "channel": 0,
      "note": 45,
      "start": 57.1431,
      "duration": 0.0226,
      "velocity": 127,
      "chip": "ym2612"
    },
    {
      "channel": 1,
      "note": 48,
      "start": 57.1454,
      "duration": 0.2532,
      "velocity": 86,
      "chip": "ym2612"
    },
    {
      "channel": 3,
      "note": 53,
      "start": 57.1476,
      "duration": 0.2625,
      "velocity": 86,
      "chip": "ym2612"
    },
    {
      "channel": 4,
      "note": 53,
      "start": 57.2164,
      "duration": 0.064,
      "velocity": 98,
      "chip": "ym2612"
    },
    {
      "channel": 0,
      "note": 45,
      "start": 57.219,
      "duration": 0.0946,
      "velocity": 127,
      "chip": "ym2612"
    },
    {
      "channel": 4,
      "note": 53,
      "start": 57.3331,
      "duration": 0.0203,
      "velocity": 98,
      "chip": "ym2612"
    },
    {
      "channel": 4,
      "note": 53,
      "start": 57.3803,
      "duration": 0.0184,
      "velocity": 98,
      "chip": "ym2612"
    },
    {
      "channel": 0,
      "note": 45,
      "start": 57.3827,
      "duration": 0.0273,
      "velocity": 127,
      "chip": "ym2612"
    },
    {
      "channel": 4,
      "note": 52,
      "start": 57.4242,
      "duration": 0.0193,
      "velocity": 98,
      "chip": "ym2612"
    },
    {
      "channel": 1,
      "note": 52,
      "start": 57.4276,
      "duration": 0.2531,
      "velocity": 86,
      "chip": "ym2612"
    },
    {
      "channel": 3,
      "note": 47,
      "start": 57.43,
      "duration": 0.2509,
      "velocity": 86,
      "chip": "ym2612"
    },
    {
      "channel": 4,
      "note": 52,
      "start": 57.4989,
      "duration": 0.0473,
      "velocity": 98,
      "chip": "ym2612"
    },
    {
      "channel": 0,
      "note": 45,
      "start": 57.5012,
      "duration": 0.0616,
      "velocity": 127,
      "chip": "ym2612"
    },
    {
      "channel": 4,
      "note": 52,
      "start": 57.6155,
      "duration": 0.0203,
      "velocity": 98,
      "chip": "ym2612"
    },
    {
      "channel": 4,
      "note": 52,
      "start": 57.6624,
      "duration": 0.0185,
      "velocity": 98,
      "chip": "ym2612"
    },
    {
      "channel": 0,
      "note": 45,
      "start": 57.6646,
      "duration": 0.016,
      "velocity": 127,
      "chip": "ym2612"
    },
    {
      "channel": 4,
      "note": 57,
      "start": 57.7077,
      "duration": 0.0208,
      "velocity": 98,
      "chip": "ym2612"
    },
    {
      "channel": 0,
      "note": 45,
      "start": 57.7109,
      "duration": 0.0176,
      "velocity": 127,
      "chip": "ym2612"
    },
    {
      "channel": 1,
      "note": 57,
      "start": 57.7133,
      "duration": 0.2598,
      "velocity": 86,
      "chip": "ym2612"
    },
    {
      "channel": 3,
      "note": 45,
      "start": 57.7156,
      "duration": 0.2576,
      "velocity": 86,
      "chip": "ym2612"
    },
    {
      "channel": 4,
      "note": 57,
      "start": 57.7845,
      "duration": 0.0472,
      "velocity": 98,
      "chip": "ym2612"
    },
    {
      "channel": 0,
      "note": 45,
      "start": 57.7871,
      "duration": 0.0611,
      "velocity": 127,
      "chip": "ym2612"
    },
    {
      "channel": 4,
      "note": 57,
      "start": 57.9012,
      "duration": 0.0132,
      "velocity": 98,
      "chip": "ym2612"
    },
    {
      "channel": 4,
      "note": 57,
      "start": 57.9479,
      "duration": 0.0137,
      "velocity": 98,
      "chip": "ym2612"
    },
    {
      "channel": 4,
      "note": 57,
      "start": 57.9875,
      "duration": 0.0207,
      "velocity": 98,
      "chip": "ym2612"
    },
    {
      "channel": 0,
      "note": 45,
      "start": 57.9908,
      "duration": 0.0233,
      "velocity": 127,
      "chip": "ym2612"
    },
    {
      "channel": 1,
      "note": 57,
      "start": 57.9935,
      "duration": 1.0506,
      "velocity": 86,
      "chip": "ym2612"
    },
    {
      "channel": 3,
      "note": 45,
      "start": 57.9961,
      "duration": 0.0366,
      "velocity": 86,
      "chip": "ym2612"
    },
    {
      "channel": 4,
      "note": 55,
      "start": 58.0366,
      "duration": 0.0239,
      "velocity": 98,
      "chip": "ym2612"
    },
    {
      "channel": 0,
      "note": 45,
      "start": 58.0388,
      "duration": 0.0275,
      "velocity": 127,
      "chip": "ym2612"
    },
    {
      "channel": 3,
      "note": 55,
      "start": 58.0412,
      "duration": 0.0526,
      "velocity": 86,
      "chip": "ym2612"
    },
    {
      "channel": 4,
      "note": 53,
      "start": 58.0966,
      "duration": 0.0266,
      "velocity": 98,
      "chip": "ym2612"
    },
    {
      "channel": 3,
      "note": 53,
      "start": 58.1029,
      "duration": 0.0329,
      "velocity": 86,
      "chip": "ym2612"
    },
    {
      "channel": 4,
      "note": 52,
      "start": 58.145,
      "duration": 0.0245,
      "velocity": 98,
      "chip": "ym2612"
    },
    {
      "channel": 0,
      "note": 45,
      "start": 58.1475,
      "duration": 0.022,
      "velocity": 127,
      "chip": "ym2612"
    },
    {
      "channel": 3,
      "note": 52,
      "start": 58.1499,
      "duration": 0.033,
      "velocity": 86,
      "chip": "ym2612"
    },
    {
      "channel": 4,
      "note": 57,
      "start": 58.1905,
      "duration": 0.0255,
      "velocity": 98,
      "chip": "ym2612"
    },
    {
      "channel": 0,
      "note": 45,
      "start": 58.1926,
      "duration": 0.0233,
      "velocity": 127,
      "chip": "ym2612"
    },
    {
      "channel": 3,
      "note": 57,
      "start": 58.1964,
      "duration": 0.0656,
      "velocity": 86,
      "chip": "ym2612"
    },
    {
      "channel": 4,
      "note": 55,
      "start": 58.2649,
      "duration": 0.0471,
      "velocity": 98,
      "chip": "ym2612"
    },
    {
      "channel": 0,
      "note": 45,
      "start": 58.2676,
      "duration": 0.0942,
      "velocity": 127,
      "chip": "ym2612"
    },
    {
      "channel": 3,
      "note": 55,
      "start": 58.2704,
      "duration": 0.1082,
      "velocity": 86,
      "chip": "ym2612"
    },
    {
      "channel": 4,
      "note": 53,
      "start": 58.3815,
      "duration": 0.0269,
      "velocity": 98,
      "chip": "ym2612"
    },
    {
      "channel": 3,
      "note": 53,
      "start": 58.3876,
      "duration": 0.0331,
      "velocity": 86,
      "chip": "ym2612"
    },
    {
      "channel": 4,
      "note": 52,
      "start": 58.4299,
      "duration": 0.0248,
      "velocity": 98,
      "chip": "ym2612"
    },
    {
      "channel": 0,
      "note": 45,
      "start": 58.4322,
      "duration": 0.0223,
      "velocity": 127,
      "chip": "ym2612"
    },
    {
      "channel": 3,
      "note": 52,
      "start": 58.4346,
      "duration": 0.0334,
      "velocity": 86,
      "chip": "ym2612"
    },
    {
      "channel": 4,
      "note": 57,
      "start": 58.476,
      "duration": 0.013,
      "velocity": 98,
      "chip": "ym2612"
    },
    {
      "channel": 0,
      "note": 45,
      "start": 58.4783,
      "duration": 0.0226,
      "velocity": 127,
      "chip": "ym2612"
    },
    {
      "channel": 3,
      "note": 57,
      "start": 58.4818,
      "duration": 0.0651,
      "velocity": 86,
      "chip": "ym2612"
    },
    {
      "channel": 4,
      "note": 55,
      "start": 58.5498,
      "duration": 0.0307,
      "velocity": 98,
      "chip": "ym2612"
    },
    {
      "channel": 0,
      "note": 45,
      "start": 58.5524,
      "duration": 0.0779,
      "velocity": 127,
      "chip": "ym2612"
    },
    {
      "channel": 3,
      "note": 55,
      "start": 58.5552,
      "duration": 0.1085,
      "velocity": 86,
      "chip": "ym2612"
    },
    {
      "channel": 4,
      "note": 53,
      "start": 58.6664,
      "duration": 0.0153,
      "velocity": 98,
      "chip": "ym2612"
    },
    {
      "channel": 3,
      "note": 53,
      "start": 58.6728,
      "duration": 0.0331,
      "velocity": 86,
      "chip": "ym2612"
    },
    {
      "channel": 4,
      "note": 52,
      "start": 58.7151,
      "duration": 0.0192,
      "velocity": 98,
      "chip": "ym2612"
    },
    {
      "channel": 0,
      "note": 45,
      "start": 58.7176,
      "duration": 0.0166,
      "velocity": 127,
      "chip": "ym2612"
    },
    {
      "channel": 3,
      "note": 52,
      "start": 58.7202,
      "duration": 0.0332,
      "velocity": 86,
      "chip": "ym2612"
    },
    {
      "channel": 4,
      "note": 57,
      "start": 58.7615,
      "duration": 0.013,
      "velocity": 98,
      "chip": "ym2612"
    },
    {
      "channel": 0,
      "note": 45,
      "start": 58.7636,
      "duration": 0.017,
      "velocity": 127,
      "chip": "ym2612"
    },
    {
      "channel": 3,
      "note": 57,
      "start": 58.7673,
      "duration": 0.0658,
      "velocity": 86,
      "chip": "ym2612"
    },
    {
      "channel": 4,
      "note": 55,
      "start": 58.8359,
      "duration": 0.0307,
      "velocity": 98,
      "chip": "ym2612"
    },
    {
      "channel": 0,
      "note": 45,
      "start": 58.8385,
      "duration": 0.0611,
      "velocity": 127,
      "chip": "ym2612"
    },
    {
      "channel": 3,
      "note": 55,
      "start": 58.8414,
      "duration": 0.0917,
      "velocity": 86,
      "chip": "ym2612"
    },
    {
      "channel": 4,
      "note": 53,
      "start": 58.9526,
      "duration": 0.0211,
      "velocity": 98,
      "chip": "ym2612"
    },
    {
      "channel": 3,
      "note": 53,
      "start": 58.9591,
      "duration": 0.0399,
      "velocity": 86,
      "chip": "ym2612"
    },
    {
      "channel": 4,
      "note": 52,
      "start": 59.0016,
      "duration": 0.0126,
      "velocity": 98,
      "chip": "ym2612"
    },
    {
      "channel": 0,
      "note": 45,
      "start": 59.0038,
      "duration": 0.0161,
      "velocity": 127,
      "chip": "ym2612"
    },
    {
      "channel": 3,
      "note": 52,
      "start": 59.0062,
      "duration": 0.0326,
      "velocity": 86,
      "chip": "ym2612"
    },
    {
      "channel": 4,
      "note": 57,
      "start": 59.0465,
      "duration": 0.0157,
      "velocity": 98,
      "chip": "ym2612"
    },
    {
      "channel": 0,
      "note": 45,
      "start": 59.0489,
      "duration": 0.0687,
      "velocity": 127,
      "chip": "ym2612"
    },
    {
      "channel": 2,
      "note": 76,
      "start": 59.0532,
      "duration": 0.0155,
      "velocity": 127,
      "chip": "ym2612"
    },
    {
      "channel": 1,
      "note": 45,
      "start": 59.0559,
      "duration": 0.1118,
      "velocity": 86,
      "chip": "ym2612"
    },
    {
      "channel": 3,
      "note": 57,
      "start": 59.0583,
      "duration": 0.126,
      "velocity": 86,
      "chip": "ym2612"
    },
    {
      "channel": 4,
      "note": 57,
      "start": 59.1207,
      "duration": 0.0471,
      "velocity": 98,
      "chip": "ym2612"
    },
    {
      "channel": 2,
      "note": 76,
      "start": 59.1234,
      "duration": 0.0447,
      "velocity": 127,
      "chip": "ym2612"
    },
    {
      "channel": 4,
      "note": 55,
      "start": 59.2372,
      "duration": 0.0177,
      "velocity": 98,
      "chip": "ym2612"
    },
    {
      "channel": 2,
      "note": 73,
      "start": 59.2401,
      "duration": 0.0149,
      "velocity": 127,
      "chip": "ym2612"
    },
    {
      "channel": 1,
      "note": 55,
      "start": 59.2462,
      "duration": 0.073,
      "velocity": 86,
      "chip": "ym2612"
    },
    {
      "channel": 3,
      "note": 45,
      "start": 59.2484,
      "duration": 0.0655,
      "velocity": 86,
      "chip": "ym2612"
    },
    {
      "channel": 4,
      "note": 55,
      "start": 59.2883,
      "duration": 0.0118,
      "velocity": 98,
      "chip": "ym2612"
    },
    {
      "channel": 2,
      "note": 73,
      "start": 59.2917,
      "duration": 0.0149,
      "velocity": 127,
      "chip": "ym2612"
    },
    {
      "channel": 4,
      "note": 53,
      "start": 59.3288,
      "duration": 0.0209,
      "velocity": 98,
      "chip": "ym2612"
    },
    {
      "channel": 0,
      "note": 45,
      "start": 59.3313,
      "duration": 0.0244,
      "velocity": 127,
      "chip": "ym2612"
    },
    {
      "channel": 2,
      "note": 69,
      "start": 59.3336,
      "duration": 0.0223,
      "velocity": 127,
      "chip": "ym2612"
    },
    {
      "channel": 1,
      "note": 53,
      "start": 59.336,
      "duration": 0.1348,
      "velocity": 86,
      "chip": "ym2612"
    },
    {
      "channel": 3,
      "note": 45,
      "start": 59.3384,
      "duration": 0.1325,
      "velocity": 86,
      "chip": "ym2612"
    },
    {
      "channel": 4,
      "note": 53,
      "start": 59.3903,
      "duration": 0.0639,
      "velocity": 98,
      "chip": "ym2612"
    },
    {
      "channel": 0,
      "note": 45,
      "start": 59.3933,
      "duration": 0.0941,
      "velocity": 127,
      "chip": "ym2612"
    },
    {
      "channel": 2,
      "note": 69,
      "start": 59.3959,
      "duration": 0.0585,
      "velocity": 127,
      "chip": "ym2612"
    },
    {
      "channel": 4,
      "note": 52,
      "start": 59.5068,
      "duration": 0.0307,
      "velocity": 98,
      "chip": "ym2612"
    },
    {
      "channel": 2,
      "note": 66,
      "start": 59.5099,
      "duration": 0.0276,
      "velocity": 127,
      "chip": "ym2612"
    },
    {
      "channel": 1,
      "note": 52,
      "start": 59.5162,
      "duration": 0.0672,
      "velocity": 86,
      "chip": "ym2612"
    },
    {
      "channel": 3,
      "note": 45,
      "start": 59.5184,
      "duration": 0.065,
      "velocity": 86,
      "chip": "ym2612"
    },
    {
      "channel": 4,
      "note": 52,
      "start": 59.5591,
      "duration": 0.0244,
      "velocity": 98,
      "chip": "ym2612"
    },
    {
      "channel": 0,
      "note": 45,
      "start": 59.5615,
      "duration": 0.0415,
      "velocity": 127,
      "chip": "ym2612"
    },
    {
      "channel": 2,
      "note": 66,
      "start": 59.5639,
      "duration": 0.0133,
      "velocity": 127,
      "chip": "ym2612"
    },
    {
      "channel": 4,
      "note": 50,
      "start": 59.6064,
      "duration": 0.0186,
      "velocity": 98,
      "chip": "ym2612"
    },
    {
      "channel": 0,
      "note": 45,
      "start": 59.6105,
      "duration": 0.0628,
      "velocity": 127,
      "chip": "ym2612"
    },
    {
      "channel": 1,
      "note": 45,
      "start": 59.6151,
      "duration": 0.2304,
      "velocity": 86,
      "chip": "ym2612"
    },
    {
      "channel": 3,
      "note": 50,
      "start": 59.6192,
      "duration": 0.2263,
      "velocity": 86,
      "chip": "ym2612"
    },
    {
      "channel": 4,
      "note": 50,
      "start": 59.6764,
      "duration": 0.0637,
      "velocity": 98,
      "chip": "ym2612"
    },
    {
      "channel": 4,
      "note": 50,
      "start": 59.7929,
      "duration": 0.0278,
      "velocity": 98,
      "chip": "ym2612"
    },
    {
      "channel": 4,
      "note": 50,
      "start": 59.8409,
      "duration": 0.0232,
      "velocity": 98,
      "chip": "ym2612"
    },
    {
      "channel": 4,
      "note": 53,
      "start": 59.8844,
      "duration": 0.0258,
      "velocity": 98,
      "chip": "ym2612"
    },
    {
      "channel": 0,
      "note": 45,
      "start": 59.8875,
      "duration": 0.0225,
      "velocity": 127,
      "chip": "ym2612"
    },
    {
      "channel": 1,
      "note": 53,
      "start": 59.8897,
      "duration": 0.264,
      "velocity": 86,
      "chip": "ym2612"
    },
    {
      "channel": 3,
      "note": 48,
      "start": 59.8922,
      "duration": 0.2676,
      "velocity": 86,
      "chip": "ym2612"
    },
    {
      "channel": 4,
      "note": 53,
      "start": 59.9602,
      "duration": 0.0305,
      "velocity": 98,
      "chip": "ym2612"
    },
    {
      "channel": 0,
      "note": 45,
      "start": 59.9628,
      "duration": 0.0944,
      "velocity": 127,
      "chip": "ym2612"
    },
    {
      "channel": 4,
      "note": 53,
      "start": 60.0768,
      "duration": 0.0199,
      "velocity": 98,
      "chip": "ym2612"
    },
    {
      "channel": 4,
      "note": 53,
      "start": 60.1239,
      "duration": 0.0184,
      "velocity": 98,
      "chip": "ym2612"
    },
    {
      "channel": 0,
      "note": 45,
      "start": 60.126,
      "duration": 0.0336,
      "velocity": 127,
      "chip": "ym2612"
    },
    {
      "channel": 4,
      "note": 52,
      "start": 60.1679,
      "duration": 0.0196,
      "velocity": 98,
      "chip": "ym2612"
    },
    {
      "channel": 1,
      "note": 52,
      "start": 60.1713,
      "duration": 0.2532,
      "velocity": 86,
      "chip": "ym2612"
    },
    {
      "channel": 3,
      "note": 47,
      "start": 60.1736,
      "duration": 0.2449,
      "velocity": 86,
      "chip": "ym2612"
    },
    {
      "channel": 4,
      "note": 52,
      "start": 60.2431,
      "duration": 0.047,
      "velocity": 98,
      "chip": "ym2612"
    },
    {
      "channel": 0,
      "note": 45,
      "start": 60.2455,
      "duration": 0.0944,
      "velocity": 127,
      "chip": "ym2612"
    },
    {
      "channel": 4,
      "note": 52,
      "start": 60.3595,
      "duration": 0.0137,
      "velocity": 98,
      "chip": "ym2612"
    },
    {
      "channel": 4,
      "note": 52,
      "start": 60.4064,
      "duration": 0.0182,
      "velocity": 98,
      "chip": "ym2612"
    },
    {
      "channel": 0,
      "note": 45,
      "start": 60.4087,
      "duration": 0.0158,
      "velocity": 127,
      "chip": "ym2612"
    },
    {
      "channel": 4,
      "note": 57,
      "start": 60.4514,
      "duration": 0.015,
      "velocity": 98,
      "chip": "ym2612"
    },
    {
      "channel": 0,
      "note": 45,
      "start": 60.4547,
      "duration": 0.0171,
      "velocity": 127,
      "chip": "ym2612"
    },
    {
      "channel": 1,
      "note": 45,
      "start": 60.4571,
      "duration": 0.2581,
      "velocity": 86,
      "chip": "ym2612"
    },
    {
      "channel": 3,
      "note": 57,
      "start": 60.4593,
      "duration": 0.2437,
      "velocity": 86,
      "chip": "ym2612"
    },
    {
      "channel": 4,
      "note": 57,
      "start": 60.5278,
      "duration": 0.0305,
      "velocity": 98,
      "chip": "ym2612"
    },
    {
      "channel": 0,
      "note": 45,
      "start": 60.5305,
      "duration": 0.0611,
      "velocity": 127,
      "chip": "ym2612"
    },
    {
      "channel": 4,
      "note": 57,
      "start": 60.6446,
      "duration": 0.0203,
      "velocity": 98,
      "chip": "ym2612"
    },
    {
      "channel": 4,
      "note": 57,
      "start": 60.6915,
      "duration": 0.0175,
      "velocity": 98,
      "chip": "ym2612"
    },
    {
      "channel": 4,
      "note": 50,
      "start": 60.7306,
      "duration": 0.0262,
      "velocity": 98,
      "chip": "ym2612"
    },
    {
      "channel": 0,
      "note": 45,
      "start": 60.7331,
      "duration": 0.0441,
      "velocity": 127,
      "chip": "ym2612"
    },
    {
      "channel": 1,
      "note": 50,
      "start": 60.7364,
      "duration": 0.2467,
      "velocity": 86,
      "chip": "ym2612"
    },
    {
      "channel": 3,
      "note": 45,
      "start": 60.7385,
      "duration": 0.2385,
      "velocity": 86,
      "chip": "ym2612"
    },
    {
      "channel": 4,
      "note": 50,
      "start": 60.7966,
      "duration": 0.0641,
      "velocity": 98,
      "chip": "ym2612"
    },
    {
      "channel": 4,
      "note": 50,
      "start": 60.9134,
      "duration": 0.0263,
      "velocity": 98,
      "chip": "ym2612"
    },
    {
      "channel": 4,
      "note": 50,
      "start": 60.9602,
      "duration": 0.0231,
      "velocity": 98,
      "chip": "ym2612"
    },
    {
      "channel": 4,
      "note": 53,
      "start": 61.0046,
      "duration": 0.0251,
      "velocity": 98,
      "chip": "ym2612"
    },
    {
      "channel": 0,
      "note": 45,
      "start": 61.0068,
      "duration": 0.0227,
      "velocity": 127,
      "chip": "ym2612"
    },
    {
      "channel": 1,
      "note": 53,
      "start": 61.009,
      "duration": 0.2648,
      "velocity": 86,
      "chip": "ym2612"
    },
    {
      "channel": 3,
      "note": 48,
      "start": 61.0113,
      "duration": 0.2626,
      "velocity": 86,
      "chip": "ym2612"
    },
    {
      "channel": 4,
      "note": 53,
      "start": 61.0807,
      "duration": 0.0469,
      "velocity": 98,
      "chip": "ym2612"
    },
    {
      "channel": 0,
      "note": 45,
      "start": 61.0834,
      "duration": 0.0941,
      "velocity": 127,
      "chip": "ym2612"
    },
    {
      "channel": 4,
      "note": 53,
      "start": 61.197,
      "duration": 0.0263,
      "velocity": 98,
      "chip": "ym2612"
    },
    {
      "channel": 4,
      "note": 53,
      "start": 61.2434,
      "duration": 0.0242,
      "velocity": 98,
      "chip": "ym2612"
    },
    {
      "channel": 0,
      "note": 45,
      "start": 61.2456,
      "duration": 0.0281,
      "velocity": 127,
      "chip": "ym2612"
    },
    {
      "channel": 4,
      "note": 52,
      "start": 61.2884,
      "duration": 0.0255,
      "velocity": 98,
      "chip": "ym2612"
    },
    {
      "channel": 1,
      "note": 52,
      "start": 61.292,
      "duration": 0.2545,
      "velocity": 86,
      "chip": "ym2612"
    },
    {
      "channel": 3,
      "note": 47,
      "start": 61.2944,
      "duration": 0.2521,
      "velocity": 86,
      "chip": "ym2612"
    },
    {
      "channel": 4,
      "note": 52,
      "start": 61.3645,
      "duration": 0.0641,
      "velocity": 98,
      "chip": "ym2612"
    },
    {
      "channel": 0,
      "note": 45,
      "start": 61.3669,
      "duration": 0.0783,
      "velocity": 127,
      "chip": "ym2612"
    },
    {
      "channel": 4,
      "note": 52,
      "start": 61.4811,
      "duration": 0.0197,
      "velocity": 98,
      "chip": "ym2612"
    },
    {
      "channel": 4,
      "note": 52,
      "start": 61.528,
      "duration": 0.0185,
      "velocity": 98,
      "chip": "ym2612"
    },
    {
      "channel": 0,
      "note": 45,
      "start": 61.5306,
      "duration": 0.0157,
      "velocity": 127,
      "chip": "ym2612"
    },
    {
      "channel": 4,
      "note": 45,
      "start": 61.5724,
      "duration": 0.0207,
      "velocity": 98,
      "chip": "ym2612"
    },
    {
      "channel": 0,
      "note": 45,
      "start": 61.5754,
      "duration": 0.0175,
      "velocity": 127,
      "chip": "ym2612"
    },
    {
      "channel": 1,
      "note": 57,
      "start": 61.5779,
      "duration": 0.2474,
      "velocity": 86,
      "chip": "ym2612"
    },
    {
      "channel": 3,
      "note": 45,
      "start": 61.5804,
      "duration": 0.2562,
      "velocity": 86,
      "chip": "ym2612"
    },
    {
      "channel": 4,
      "note": 45,
      "start": 61.6486,
      "duration": 0.0473,
      "velocity": 98,
      "chip": "ym2612"
    },
    {
      "channel": 0,
      "note": 45,
      "start": 61.6512,
      "duration": 0.0613,
      "velocity": 127,
      "chip": "ym2612"
    },
    {
      "channel": 4,
      "note": 45,
      "start": 61.7653,
      "duration": 0.0204,
      "velocity": 98,
      "chip": "ym2612"
    },
    {
      "channel": 4,
      "note": 45,
      "start": 61.8123,
      "duration": 0.0183,
      "velocity": 98,
      "chip": "ym2612"
    },
    {
      "channel": 4,
      "note": 50,
      "start": 61.8586,
      "duration": 0.0194,
      "velocity": 98,
      "chip": "ym2612"
    },
    {
      "channel": 0,
      "note": 45,
      "start": 61.8609,
      "duration": 0.0297,
      "velocity": 127,
      "chip": "ym2612"
    },
    {
      "channel": 1,
      "note": 50,
      "start": 61.8633,
      "duration": 0.1624,
      "velocity": 86,
      "chip": "ym2612"
    },
    {
      "channel": 3,
      "note": 45,
      "start": 61.8657,
      "duration": 0.16,
      "velocity": 86,
      "chip": "ym2612"
    },
    {
      "channel": 4,
      "note": 50,
      "start": 61.8999,
      "duration": 0.023,
      "velocity": 98,
      "chip": "ym2612"
    },
    {
      "channel": 4,
      "note": 50,
      "start": 61.9613,
      "duration": 0.0272,
      "velocity": 98,
      "chip": "ym2612"
    },
    {
      "channel": 4,
      "note": 50,
      "start": 62.0092,
      "duration": 0.0166,
      "velocity": 98,
      "chip": "ym2612"
    },
    {
      "channel": 4,
      "note": 53,
      "start": 62.0532,
      "duration": 0.0193,
      "velocity": 98,
      "chip": "ym2612"
    },
    {
      "channel": 0,
      "note": 45,
      "start": 62.0554,
      "duration": 0.0169,
      "velocity": 127,
      "chip": "ym2612"
    },
    {
      "channel": 1,
      "note": 48,
      "start": 62.0577,
      "duration": 0.2372,
      "velocity": 86,
      "chip": "ym2612"
    },
    {
      "channel": 3,
      "note": 53,
      "start": 62.0601,
      "duration": 0.2407,
      "velocity": 86,
      "chip": "ym2612"
    },
    {
      "channel": 4,
      "note": 53,
      "start": 62.1127,
      "duration": 0.0641,
      "velocity": 98,
      "chip": "ym2612"
    },
    {
      "channel": 0,
      "note": 45,
      "start": 62.1153,
      "duration": 0.0945,
      "velocity": 127,
      "chip": "ym2612"
    },
    {
      "channel": 4,
      "note": 53,
      "start": 62.2293,
      "duration": 0.0204,
      "velocity": 98,
      "chip": "ym2612"
    },
    {
      "channel": 4,
      "note": 53,
      "start": 62.2766,
      "duration": 0.0184,
      "velocity": 98,
      "chip": "ym2612"
    },
    {
      "channel": 0,
      "note": 45,
      "start": 62.279,
      "duration": 0.0217,
      "velocity": 127,
      "chip": "ym2612"
    },
    {
      "channel": 4,
      "note": 52,
      "start": 62.3158,
      "duration": 0.0252,
      "velocity": 98,
      "chip": "ym2612"
    },
    {
      "channel": 1,
      "note": 52,
      "start": 62.3183,
      "duration": 0.2446,
      "velocity": 86,
      "chip": "ym2612"
    },
    {
      "channel": 3,
      "note": 47,
      "start": 62.3206,
      "duration": 0.2424,
      "velocity": 86,
      "chip": "ym2612"
    },
    {
      "channel": 4,
      "note": 52,
      "start": 62.3811,
      "duration": 0.0474,
      "velocity": 98,
      "chip": "ym2612"
    },
    {
      "channel": 0,
      "note": 45,
      "start": 62.3834,
      "duration": 0.0783,
      "velocity": 127,
      "chip": "ym2612"
    },
    {
      "channel": 4,
      "note": 52,
      "start": 62.4977,
      "duration": 0.0197,
      "velocity": 98,
      "chip": "ym2612"
    },
    {
      "channel": 4,
      "note": 52,
      "start": 62.5445,
      "duration": 0.0185,
      "velocity": 98,
      "chip": "ym2612"
    },
    {
      "channel": 0,
      "note": 45,
      "start": 62.5467,
      "duration": 0.016,
      "velocity": 127,
      "chip": "ym2612"
    },
    {
      "channel": 4,
      "note": 57,
      "start": 62.5833,
      "duration": 0.0259,
      "velocity": 98,
      "chip": "ym2612"
    },
    {
      "channel": 0,
      "note": 45,
      "start": 62.5853,
      "duration": 0.0238,
      "velocity": 127,
      "chip": "ym2612"
    },
    {
      "channel": 1,
      "note": 57,
      "start": 62.5875,
      "duration": 0.25,
      "velocity": 86,
      "chip": "ym2612"
    },
    {
      "channel": 3,
      "note": 45,
      "start": 62.5907,
      "duration": 0.2469,
      "velocity": 86,
      "chip": "ym2612"
    },
    {
      "channel": 4,
      "note": 57,
      "start": 62.6484,
      "duration": 0.0474,
      "velocity": 98,
      "chip": "ym2612"
    },
    {
      "channel": 0,
      "note": 45,
      "start": 62.6511,
      "duration": 0.0613,
      "velocity": 127,
      "chip": "ym2612"
    },
    {
      "channel": 4,
      "note": 57,
      "start": 62.7652,
      "duration": 0.0142,
      "velocity": 98,
      "chip": "ym2612"
    },
    {
      "channel": 4,
      "note": 57,
      "start": 62.807,
      "duration": 0.0182,
      "velocity": 98,
      "chip": "ym2612"
    },
    {
      "channel": 4,
      "note": 57,
      "start": 62.8526,
      "duration": 0.0137,
      "velocity": 98,
      "chip": "ym2612"
    },
    {
      "channel": 0,
      "note": 45,
      "start": 62.8559,
      "duration": 0.0164,
      "velocity": 127,
      "chip": "ym2612"
    },
    {
      "channel": 1,
      "note": 57,
      "start": 62.8585,
      "duration": 0.9877,
      "velocity": 86,
      "chip": "ym2612"
    },
    {
      "channel": 3,
      "note": 45,
      "start": 62.8609,
      "duration": 0.0363,
      "velocity": 86,
      "chip": "ym2612"
    },
    {
      "channel": 4,
      "note": 55,
      "start": 62.9009,
      "duration": 0.0186,
      "velocity": 98,
      "chip": "ym2612"
    },
    {
      "channel": 0,
      "note": 45,
      "start": 62.9032,
      "duration": 0.0231,
      "velocity": 127,
      "chip": "ym2612"
    },
    {
      "channel": 3,
      "note": 55,
      "start": 62.9057,
      "duration": 0.0455,
      "velocity": 86,
      "chip": "ym2612"
    },
    {
      "channel": 4,
      "note": 53,
      "start": 62.9539,
      "duration": 0.0266,
      "velocity": 98,
      "chip": "ym2612"
    },
    {
      "channel": 3,
      "note": 53,
      "start": 62.9605,
      "duration": 0.0327,
      "velocity": 86,
      "chip": "ym2612"
    },
    {
      "channel": 4,
      "note": 52,
      "start": 63.0024,
      "duration": 0.0244,
      "velocity": 98,
      "chip": "ym2612"
    },
    {
      "channel": 0,
      "note": 45,
      "start": 63.0049,
      "duration": 0.0218,
      "velocity": 127,
      "chip": "ym2612"
    },
    {
      "channel": 3,
      "note": 52,
      "start": 63.0072,
      "duration": 0.0328,
      "velocity": 86,
      "chip": "ym2612"
    },
    {
      "channel": 4,
      "note": 57,
      "start": 63.0478,
      "duration": 0.0195,
      "velocity": 98,
      "chip": "ym2612"
    },
    {
      "channel": 0,
      "note": 45,
      "start": 63.0498,
      "duration": 0.0173,
      "velocity": 127,
      "chip": "ym2612"
    },
    {
      "channel": 3,
      "note": 57,
      "start": 63.0536,
      "duration": 0.0656,
      "velocity": 86,
      "chip": "ym2612"
    },
    {
      "channel": 4,
      "note": 55,
      "start": 63.1222,
      "duration": 0.0304,
      "velocity": 98,
      "chip": "ym2612"
    },
    {
      "channel": 0,
      "note": 45,
      "start": 63.1249,
      "duration": 0.0777,
      "velocity": 127,
      "chip": "ym2612"
    },
    {
      "channel": 3,
      "note": 55,
      "start": 63.1276,
      "duration": 0.0916,
      "velocity": 86,
      "chip": "ym2612"
    },
    {
      "channel": 4,
      "note": 53,
      "start": 63.2222,
      "duration": 0.0272,
      "velocity": 98,
      "chip": "ym2612"
    },
    {
      "channel": 3,
      "note": 53,
      "start": 63.2285,
      "duration": 0.0332,
      "velocity": 86,
      "chip": "ym2612"
    },
    {
      "channel": 4,
      "note": 52,
      "start": 63.2707,
      "duration": 0.0187,
      "velocity": 98,
      "chip": "ym2612"
    },
    {
      "channel": 0,
      "note": 45,
      "start": 63.2731,
      "duration": 0.0162,
      "velocity": 127,
      "chip": "ym2612"
    },
    {
      "channel": 3,
      "note": 52,
      "start": 63.2755,
      "duration": 0.0333,
      "velocity": 86,
      "chip": "ym2612"
    },
    {
      "channel": 4,
      "note": 57,
      "start": 63.3168,
      "duration": 0.013,
      "velocity": 98,
      "chip": "ym2612"
    },
    {
      "channel": 0,
      "note": 45,
      "start": 63.3191,
      "duration": 0.0168,
      "velocity": 127,
      "chip": "ym2612"
    },
    {
      "channel": 3,
      "note": 57,
      "start": 63.3226,
      "duration": 0.0492,
      "velocity": 86,
      "chip": "ym2612"
    },
    {
      "channel": 4,
      "note": 55,
      "start": 63.3746,
      "duration": 0.0472,
      "velocity": 98,
      "chip": "ym2612"
    },
    {
      "channel": 0,
      "note": 45,
      "start": 63.3772,
      "duration": 0.0778,
      "velocity": 127,
      "chip": "ym2612"
    },
    {
      "channel": 3,
      "note": 55,
      "start": 63.38,
      "duration": 0.1085,
      "velocity": 86,
      "chip": "ym2612"
    },
    {
      "channel": 4,
      "note": 53,
      "start": 63.4912,
      "duration": 0.015,
      "velocity": 98,
      "chip": "ym2612"
    },
    {
      "channel": 3,
      "note": 53,
      "start": 63.4976,
      "duration": 0.0338,
      "velocity": 86,
      "chip": "ym2612"
    },
    {
      "channel": 4,
      "note": 52,
      "start": 63.5401,
      "duration": 0.0184,
      "velocity": 98,
      "chip": "ym2612"
    },
    {
      "channel": 0,
      "note": 45,
      "start": 63.5427,
      "duration": 0.0157,
      "velocity": 127,
      "chip": "ym2612"
    },
    {
      "channel": 3,
      "note": 52,
      "start": 63.545,
      "duration": 0.0256,
      "velocity": 86,
      "chip": "ym2612"
    },
    {
      "channel": 4,
      "note": 57,
      "start": 63.5857,
      "duration": 0.0128,
      "velocity": 98,
      "chip": "ym2612"
    },
    {
      "channel": 0,
      "note": 45,
      "start": 63.5876,
      "duration": 0.0171,
      "velocity": 127,
      "chip": "ym2612"
    },
    {
      "channel": 3,
      "note": 57,
      "start": 63.591,
      "duration": 0.0493,
      "velocity": 86,
      "chip": "ym2612"
    },
    {
      "channel": 4,
      "note": 55,
      "start": 63.6431,
      "duration": 0.0473,
      "velocity": 98,
      "chip": "ym2612"
    },
    {
      "channel": 0,
      "note": 45,
      "start": 63.6457,
      "duration": 0.0779,
      "velocity": 127,
      "chip": "ym2612"
    },
    {
      "channel": 3,
      "note": 55,
      "start": 63.6486,
      "duration": 0.0917,
      "velocity": 86,
      "chip": "ym2612"
    },
    {
      "channel": 4,
      "note": 53,
      "start": 63.7598,
      "duration": 0.0211,
      "velocity": 98,
      "chip": "ym2612"
    },
    {
      "channel": 3,
      "note": 53,
      "start": 63.7663,
      "duration": 0.0399,
      "velocity": 86,
      "chip": "ym2612"
    },
    {
      "channel": 4,
      "note": 52,
      "start": 63.8088,
      "duration": 0.0126,
      "velocity": 98,
      "chip": "ym2612"
    },
    {
      "channel": 0,
      "note": 45,
      "start": 63.811,
      "duration": 0.0161,
      "velocity": 127,
      "chip": "ym2612"
    },
    {
      "channel": 3,
      "note": 52,
      "start": 63.8134,
      "duration": 0.026,
      "velocity": 86,
      "chip": "ym2612"
    },
    {
      "channel": 4,
      "note": 57,
      "start": 63.8487,
      "duration": 0.0201,
      "velocity": 98,
      "chip": "ym2612"
    },
    {
      "channel": 0,
      "note": 45,
      "start": 63.8509,
      "duration": 0.0571,
      "velocity": 127,
      "chip": "ym2612"
    },
    {
      "channel": 2,
      "note": 76,
      "start": 63.8551,
      "duration": 0.0207,
      "velocity": 127,
      "chip": "ym2612"
    },
    {
      "channel": 1,
      "note": 45,
      "start": 63.8577,
      "duration": 0.1003,
      "velocity": 86,
      "chip": "ym2612"
    },
    {
      "channel": 3,
      "note": 57,
      "start": 63.8602,
      "duration": 0.1313,
      "velocity": 86,
      "chip": "ym2612"
    },
    {
      "channel": 4,
      "note": 57,
      "start": 63.9111,
      "duration": 0.0471,
      "velocity": 98,
      "chip": "ym2612"
    },
    {
      "channel": 2,
      "note": 76,
      "start": 63.9138,
      "duration": 0.0446,
      "velocity": 127,
      "chip": "ym2612"
    },
    {
      "channel": 4,
      "note": 55,
      "start": 64.0276,
      "duration": 0.0178,
      "velocity": 98,
      "chip": "ym2612"
    },
    {
      "channel": 2,
      "note": 73,
      "start": 64.0305,
      "duration": 0.0151,
      "velocity": 127,
      "chip": "ym2612"
    },
    {
      "channel": 1,
      "note": 55,
      "start": 64.0366,
      "duration": 0.0728,
      "velocity": 86,
      "chip": "ym2612"
    },
    {
      "channel": 3,
      "note": 45,
      "start": 64.0388,
      "duration": 0.0651,
      "velocity": 86,
      "chip": "ym2612"
    },
    {
      "channel": 4,
      "note": 55,
      "start": 64.078,
      "duration": 0.0121,
      "velocity": 98,
      "chip": "ym2612"
    },
    {
      "channel": 2,
      "note": 73,
      "start": 64.0814,
      "duration": 0.0151,
      "velocity": 127,
      "chip": "ym2612"
    },
    {
      "channel": 4,
      "note": 53,
      "start": 64.1184,
      "duration": 0.0136,
      "velocity": 98,
      "chip": "ym2612"
    },
    {
      "channel": 0,
      "note": 45,
      "start": 64.1206,
      "duration": 0.0237,
      "velocity": 127,
      "chip": "ym2612"
    },
    {
      "channel": 2,
      "note": 69,
      "start": 64.1228,
      "duration": 0.0217,
      "velocity": 127,
      "chip": "ym2612"
    },
    {
      "channel": 1,
      "note": 53,
      "start": 64.1251,
      "duration": 0.1171,
      "velocity": 86,
      "chip": "ym2612"
    },
    {
      "channel": 3,
      "note": 45,
      "start": 64.1273,
      "duration": 0.1151,
      "velocity": 86,
      "chip": "ym2612"
    },
    {
      "channel": 4,
      "note": 53,
      "start": 64.1784,
      "duration": 0.0472,
      "velocity": 98,
      "chip": "ym2612"
    },
    {
      "channel": 0,
      "note": 45,
      "start": 64.1814,
      "duration": 0.0941,
      "velocity": 127,
      "chip": "ym2612"
    },
    {
      "channel": 2,
      "note": 69,
      "start": 64.184,
      "duration": 0.0418,
      "velocity": 127,
      "chip": "ym2612"
    },
    {
      "channel": 4,
      "note": 52,
      "start": 64.2949,
      "duration": 0.0246,
      "velocity": 98,
      "chip": "ym2612"
    },
    {
      "channel": 2,
      "note": 66,
      "start": 64.298,
      "duration": 0.0217,
      "velocity": 127,
      "chip": "ym2612"
    },
    {
      "channel": 1,
      "note": 52,
      "start": 64.3043,
      "duration": 0.0617,
      "velocity": 86,
      "chip": "ym2612"
    },
    {
      "channel": 3,
      "note": 45,
      "start": 64.3065,
      "duration": 0.0595,
      "velocity": 86,
      "chip": "ym2612"
    },
    {
      "channel": 4,
      "note": 52,
      "start": 64.3406,
      "duration": 0.0255,
      "velocity": 98,
      "chip": "ym2612"
    },
    {
      "channel": 0,
      "note": 45,
      "start": 64.343,
      "duration": 0.0421,
      "velocity": 127,
      "chip": "ym2612"
    },
    {
      "channel": 2,
      "note": 66,
      "start": 64.3463,
      "duration": 0.0141,
      "velocity": 127,
      "chip": "ym2612"
    }
  ]
}