{
  "track_name": "06 - Sub-Space 2 BGM",
  "duration_sec": 105.161,
  "sample_rate": 44100,
  "note_count": 1506,
  "unique_pitches": 57,
  "pitch_range": 58,
  "avg_note_duration": 0.2815,
  "reconstruction_stats": {
    "notes_reconstructed": 1506,
    "keyon_events": 1506,
    "keyoff_events": 1452,
    "orphan_keyons": 4,
    "unique_pitches": 57,
    "pitch_range": 58,
    "avg_duration_sec": 0.2815
  },
  "metadata": {
    "source": "Y\\Yu Yu Hakusho - Makyou Touitsusen\\06 - Sub-Space 2 BGM.vgz"
  },
  "notes": [
    {
      "channel": 0,
      "note": 48,
      "start": 0.0003,
      "duration": 0.0237,
      "velocity": 127,
      "chip": "ym2612"
    },
    {
      "channel": 1,
      "note": 72,
      "start": 0.002,
      "duration": 0.0238,
      "velocity": 111,
      "chip": "ym2612"
    },
    {
      "channel": 3,
      "note": 72,
      "start": 0.0047,
      "duration": 0.0056,
      "velocity": 115,
      "chip": "ym2612"
    },
    {
      "channel": 4,
      "note": 96,
      "start": 0.0063,
      "duration": 0.0108,
      "velocity": 115,
      "chip": "ym2612"
    },
    {
      "channel": 3,
      "note": 77,
      "start": 0.0106,
      "duration": 0.0062,
      "velocity": 115,
      "chip": "ym2612"
    },
    {
      "channel": 2,
      "note": 72,
      "start": 0.0133,
      "duration": 0.024,
      "velocity": 111,
      "chip": "ym2612"
    },
    {
      "channel": 3,
      "note": 79,
      "start": 0.0171,
      "duration": 0.0045,
      "velocity": 115,
      "chip": "ym2612"
    },
    {
      "channel": 3,
      "note": 82,
      "start": 0.0218,
      "duration": 0.0052,
      "velocity": 115,
      "chip": "ym2612"
    },
    {
      "channel": 3,
      "note": 72,
      "start": 0.0273,
      "duration": 0.0072,
      "velocity": 115,
      "chip": "ym2612"
    },
    {
      "channel": 4,
      "note": 82,
      "start": 0.0291,
      "duration": 0.3126,
      "velocity": 111,
      "chip": "ym2612"
    },
    {
      "channel": 1,
      "note": 82,
      "start": 0.0318,
      "duration": 0.3123,
      "velocity": 111,
      "chip": "ym2612"
    },
    {
      "channel": 3,
      "note": 82,
      "start": 0.0397,
      "duration": 0.005,
      "velocity": 115,
      "chip": "ym2612"
    },
    {
      "channel": 2,
      "note": 82,
      "start": 0.0412,
      "duration": 0.3798,
      "velocity": 111,
      "chip": "ym2612"
    },
    {
      "channel": 3,
      "note": 72,
      "start": 0.0489,
      "duration": 0.0087,
      "velocity": 115,
      "chip": "ym2612"
    },
    {
      "channel": 3,
      "note": 81,
      "start": 0.158,
      "duration": 0.0848,
      "velocity": 115,
      "chip": "ym2612"
    },
    {
      "channel": 3,
      "note": 72,
      "start": 0.2469,
      "duration": 0.0057,
      "velocity": 115,
      "chip": "ym2612"
    },
    {
      "channel": 3,
      "note": 77,
      "start": 0.2569,
      "duration": 0.0049,
      "velocity": 115,
      "chip": "ym2612"
    },
    {
      "channel": 3,
      "note": 79,
      "start": 0.3003,
      "duration": 0.0054,
      "velocity": 115,
      "chip": "ym2612"
    },
    {
      "channel": 3,
      "note": 77,
      "start": 0.3059,
      "duration": 0.0053,
      "velocity": 115,
      "chip": "ym2612"
    },
    {
      "channel": 3,
      "note": 72,
      "start": 0.3114,
      "duration": 0.0043,
      "velocity": 115,
      "chip": "ym2612"
    },
    {
      "channel": 3,
      "note": 82,
      "start": 0.3159,
      "duration": 0.0049,
      "velocity": 115,
      "chip": "ym2612"
    },
    {
      "channel": 3,
      "note": 72,
      "start": 0.3211,
      "duration": 0.0054,
      "velocity": 115,
      "chip": "ym2612"
    },
    {
      "channel": 3,
      "note": 81,
      "start": 0.3312,
      "duration": 0.0062,
      "velocity": 115,
      "chip": "ym2612"
    },
    {
      "channel": 3,
      "note": 77,
      "start": 0.3416,
      "duration": 0.009,
      "velocity": 115,
      "chip": "ym2612"
    },
    {
      "channel": 4,
      "note": 81,
      "start": 0.3419,
      "duration": 0.082,
      "velocity": 111,
      "chip": "ym2612"
    },
    {
      "channel": 1,
      "note": 81,
      "start": 0.3443,
      "duration": 0.0817,
      "velocity": 111,
      "chip": "ym2612"
    },
    {
      "channel": 3,
      "note": 72,
      "start": 0.4192,
      "duration": 0.0046,
      "velocity": 115,
      "chip": "ym2612"
    },
    {
      "channel": 2,
      "note": 81,
      "start": 0.4212,
      "duration": 0.014,
      "velocity": 111,
      "chip": "ym2612"
    },
    {
      "channel": 4,
      "note": 79,
      "start": 0.4241,
      "duration": 0.0702,
      "velocity": 111,
      "chip": "ym2612"
    },
    {
      "channel": 1,
      "note": 79,
      "start": 0.4263,
      "duration": 0.0719,
      "velocity": 111,
      "chip": "ym2612"
    },
    {
      "channel": 3,
      "note": 79,
      "start": 0.4284,
      "duration": 0.0057,
      "velocity": 115,
      "chip": "ym2612"
    },
    {
      "channel": 2,
      "note": 79,
      "start": 0.4355,
      "duration": 0.0708,
      "velocity": 111,
      "chip": "ym2612"
    },
    {
      "channel": 0,
      "note": 46,
      "start": 0.4366,
      "duration": 0.0442,
      "velocity": 127,
      "chip": "ym2612"
    },
    {
      "channel": 3,
      "note": 77,
      "start": 0.439,
      "duration": 0.0055,
      "velocity": 115,
      "chip": "ym2612"
    },
    {
      "channel": 3,
      "note": 70,
      "start": 0.4447,
      "duration": 0.0388,
      "velocity": 115,
      "chip": "ym2612"
    },
    {
      "channel": 0,
      "note": 48,
      "start": 0.4811,
      "duration": 0.0104,
      "velocity": 127,
      "chip": "ym2612"
    },
    {
      "channel": 0,
      "note": 48,
      "start": 0.4918,
      "duration": 0.0103,
      "velocity": 127,
      "chip": "ym2612"
    },
    {
      "channel": 3,
      "note": 72,
      "start": 0.4943,
      "duration": 0.0059,
      "velocity": 115,
      "chip": "ym2612"
    },
    {
      "channel": 4,
      "note": 77,
      "start": 0.4947,
      "duration": 0.0203,
      "velocity": 111,
      "chip": "ym2612"
    },
    {
      "channel": 1,
      "note": 77,
      "start": 0.4985,
      "duration": 0.0205,
      "velocity": 111,
      "chip": "ym2612"
    },
    {
      "channel": 3,
      "note": 77,
      "start": 0.5049,
      "duration": 0.0055,
      "velocity": 115,
      "chip": "ym2612"
    },
    {
      "channel": 2,
      "note": 77,
      "start": 0.5066,
      "duration": 0.0213,
      "velocity": 111,
      "chip": "ym2612"
    },
    {
      "channel": 3,
      "note": 79,
      "start": 0.5149,
      "duration": 0.0065,
      "velocity": 115,
      "chip": "ym2612"
    },
    {
      "channel": 4,
      "note": 72,
      "start": 0.5152,
      "duration": 0.3589,
      "velocity": 111,
      "chip": "ym2612"
    },
    {
      "channel": 1,
      "note": 72,
      "start": 0.5193,
      "duration": 0.3574,
      "velocity": 111,
      "chip": "ym2612"
    },
    {
      "channel": 3,
      "note": 72,
      "start": 0.5216,
      "duration": 0.005,
      "velocity": 115,
      "chip": "ym2612"
    },
    {
      "channel": 3,
      "note": 84,
      "start": 0.5268,
      "duration": 0.0083,
      "velocity": 115,
      "chip": "ym2612"
    },
    {
      "channel": 2,
      "note": 72,
      "start": 0.5282,
      "duration": 0.3576,
      "velocity": 111,
      "chip": "ym2612"
    },
    {
      "channel": 3,
      "note": 72,
      "start": 0.6354,
      "duration": 0.1163,
      "velocity": 115,
      "chip": "ym2612"
    },
    {
      "channel": 3,
      "note": 82,
      "start": 0.8204,
      "duration": 0.0055,
      "velocity": 115,
      "chip": "ym2612"
    },
    {
      "channel": 3,
      "note": 72,
      "start": 0.8304,
      "duration": 0.0049,
      "velocity": 115,
      "chip": "ym2612"
    },
    {
      "channel": 3,
      "note": 81,
      "start": 0.874,
      "duration": 0.0044,
      "velocity": 115,
      "chip": "ym2612"
    },
    {
      "channel": 3,
      "note": 72,
      "start": 0.8785,
      "duration": 0.0054,
      "velocity": 115,
      "chip": "ym2612"
    },
    {
      "channel": 4,
      "note": 65,
      "start": 0.8787,
      "duration": 0.0056,
      "velocity": 111,
      "chip": "ym2612"
    },
    {
      "channel": 1,
      "note": 65,
      "start": 0.8821,
      "duration": 0.0046,
      "velocity": 111,
      "chip": "ym2612"
    },
    {
      "channel": 3,
      "note": 77,
      "start": 0.8842,
      "duration": 0.0036,
      "velocity": 115,
      "chip": "ym2612"
    },
    {
      "channel": 4,
      "note": 67,
      "start": 0.8844,
      "duration": 0.0036,
      "velocity": 111,
      "chip": "ym2612"
    },
    {
      "channel": 1,
      "note": 67,
      "start": 0.8867,
      "duration": 0.0046,
      "velocity": 111,
      "chip": "ym2612"
    },
    {
      "channel": 3,
      "note": 79,
      "start": 0.8879,
      "duration": 0.0059,
      "velocity": 115,
      "chip": "ym2612"
    },
    {
      "channel": 4,
      "note": 69,
      "start": 0.8882,
      "duration": 0.0062,
      "velocity": 111,
      "chip": "ym2612"
    },
    {
      "channel": 2,
      "note": 65,
      "start": 0.8892,
      "duration": 0.0064,
      "velocity": 111,
      "chip": "ym2612"
    },
    {
      "channel": 1,
      "note": 69,
      "start": 0.8916,
      "duration": 0.0058,
      "velocity": 111,
      "chip": "ym2612"
    },
    {
      "channel": 3,
      "note": 72,
      "start": 0.8941,
      "duration": 0.0059,
      "velocity": 115,
      "chip": "ym2612"
    },
    {
      "channel": 4,
      "note": 70,
      "start": 0.8944,
      "duration": 0.0059,
      "velocity": 111,
      "chip": "ym2612"
    },
    {
      "channel": 2,
      "note": 67,
      "start": 0.8956,
      "duration": 0.0055,
      "velocity": 111,
      "chip": "ym2612"
    },
    {
      "channel": 1,
      "note": 70,
      "start": 0.8973,
      "duration": 0.0053,
      "velocity": 111,
      "chip": "ym2612"
    },
    {
      "channel": 4,
      "note": 67,
      "start": 0.9002,
      "duration": 0.0046,
      "velocity": 111,
      "chip": "ym2612"
    },
    {
      "channel": 2,
      "note": 69,
      "start": 0.9015,
      "duration": 0.0048,
      "velocity": 111,
      "chip": "ym2612"
    },
    {
      "channel": 1,
      "note": 67,
      "start": 0.9027,
      "duration": 0.0062,
      "velocity": 111,
      "chip": "ym2612"
    },
    {
      "channel": 3,
      "note": 81,
      "start": 0.9045,
      "duration": 0.0064,
      "velocity": 115,
      "chip": "ym2612"
    },
    {
      "channel": 4,
      "note": 69,
      "start": 0.9049,
      "duration": 0.0061,
      "velocity": 111,
      "chip": "ym2612"
    },
    {
      "channel": 2,
      "note": 70,
      "start": 0.9063,
      "duration": 0.006,
      "velocity": 111,
      "chip": "ym2612"
    },
    {
      "channel": 1,
      "note": 69,
      "start": 0.9089,
      "duration": 0.0048,
      "velocity": 111,
      "chip": "ym2612"
    },
    {
      "channel": 4,
      "note": 70,
      "start": 0.9112,
      "duration": 0.0132,
      "velocity": 111,
      "chip": "ym2612"
    },
    {
      "channel": 2,
      "note": 67,
      "start": 0.9122,
      "duration": 0.0045,
      "velocity": 111,
      "chip": "ym2612"
    },
    {
      "channel": 1,
      "note": 70,
      "start": 0.9138,
      "duration": 0.0768,
      "velocity": 111,
      "chip": "ym2612"
    },
    {
      "channel": 3,
      "note": 82,
      "start": 0.9154,
      "duration": 0.0088,
      "velocity": 115,
      "chip": "ym2612"
    },
    {
      "channel": 2,
      "note": 69,
      "start": 0.9167,
      "duration": 0.0406,
      "velocity": 111,
      "chip": "ym2612"
    },
    {
      "channel": 4,
      "note": 72,
      "start": 0.9248,
      "duration": 0.068,
      "velocity": 111,
      "chip": "ym2612"
    },
    {
      "channel": 2,
      "note": 70,
      "start": 0.9577,
      "duration": 0.0408,
      "velocity": 111,
      "chip": "ym2612"
    },
    {
      "channel": 1,
      "note": 72,
      "start": 0.9909,
      "duration": 0.0047,
      "velocity": 111,
      "chip": "ym2612"
    },
    {
      "channel": 3,
      "note": 81,
      "start": 0.9927,
      "duration": 0.0047,
      "velocity": 115,
      "chip": "ym2612"
    },
    {
      "channel": 4,
      "note": 74,
      "start": 0.9931,
      "duration": 0.0044,
      "velocity": 111,
      "chip": "ym2612"
    },
    {
      "channel": 1,
      "note": 74,
      "start": 0.9958,
      "duration": 0.0048,
      "velocity": 111,
      "chip": "ym2612"
    },
    {
      "channel": 4,
      "note": 72,
      "start": 0.9977,
      "duration": 0.0056,
      "velocity": 111,
      "chip": "ym2612"
    },
    {
      "channel": 2,
      "note": 72,
      "start": 0.9986,
      "duration": 0.0059,
      "velocity": 111,
      "chip": "ym2612"
    },
    {
      "channel": 1,
      "note": 72,
      "start": 1.0009,
      "duration": 0.0053,
      "velocity": 111,
      "chip": "ym2612"
    },
    {
      "channel": 3,
      "note": 79,
      "start": 1.003,
      "duration": 0.0058,
      "velocity": 115,
      "chip": "ym2612"
    },
    {
      "channel": 4,
      "note": 74,
      "start": 1.0033,
      "duration": 0.0056,
      "velocity": 111,
      "chip": "ym2612"
    },
    {
      "channel": 2,
      "note": 74,
      "start": 1.0047,
      "duration": 0.0056,
      "velocity": 111,
      "chip": "ym2612"
    },
    {
      "channel": 1,
      "note": 74,
      "start": 1.0061,
      "duration": 0.0074,
      "velocity": 112,
      "chip": "ym2612"
    },
    {
      "channel": 4,
      "note": 75,
      "start": 1.0092,
      "duration": 0.0072,
      "velocity": 111,
      "chip": "ym2612"
    },
    {
      "channel": 2,
      "note": 72,
      "start": 1.0105,
      "duration": 0.0072,
      "velocity": 111,
      "chip": "ym2612"
    },
    {
      "channel": 0,
      "note": 46,
      "start": 1.0117,
      "duration": 0.0469,
      "velocity": 127,
      "chip": "ym2612"
    },
    {
      "channel": 1,
      "note": 72,
      "start": 1.0139,
      "duration": 0.0452,
      "velocity": 112,
      "chip": "ym2612"
    },
    {
      "channel": 3,
      "note": 77,
      "start": 1.0161,
      "duration": 0.0056,
      "velocity": 115,
      "chip": "ym2612"
    },
    {
      "channel": 4,
      "note": 79,
      "start": 1.0163,
      "duration": 0.0054,
      "velocity": 111,
      "chip": "ym2612"
    },
    {
      "channel": 2,
      "note": 74,
      "start": 1.0177,
      "duration": 0.0074,
      "velocity": 112,
      "chip": "ym2612"
    },
    {
      "channel": 4,
      "note": 77,
      "start": 1.0221,
      "duration": 0.0409,
      "velocity": 115,
      "chip": "ym2612"
    },
    {
      "channel": 2,
      "note": 72,
      "start": 1.0253,
      "duration": 0.046,
      "velocity": 112,
      "chip": "ym2612"
    },
    {
      "channel": 0,
      "note": 48,
      "start": 1.0591,
      "duration": 0.0235,
      "velocity": 127,
      "chip": "ym2612"
    },
    {
      "channel": 1,
      "note": 72,
      "start": 1.0595,
      "duration": 0.0253,
      "velocity": 111,
      "chip": "ym2612"
    },
    {
      "channel": 3,
      "note": 72,
      "start": 1.0615,
      "duration": 0.0082,
      "velocity": 115,
      "chip": "ym2612"
    },
    {
      "channel": 4,
      "note": 96,
      "start": 1.0633,
      "duration": 0.0125,
      "velocity": 115,
      "chip": "ym2612"
    },
    {
      "channel": 3,
      "note": 77,
      "start": 1.07,
      "duration": 0.0056,
      "velocity": 115,
      "chip": "ym2612"
    },
    {
      "channel": 2,
      "note": 72,
      "start": 1.0715,
      "duration": 0.0239,
      "velocity": 111,
      "chip": "ym2612"
    },
    {
      "channel": 3,
      "note": 79,
      "start": 1.0758,
      "duration": 0.0044,
      "velocity": 115,
      "chip": "ym2612"
    },
    {
      "channel": 3,
      "note": 82,
      "start": 1.0805,
      "duration": 0.0052,
      "velocity": 115,
      "chip": "ym2612"
    },
    {
      "channel": 3,
      "note": 72,
      "start": 1.0859,
      "duration": 0.0065,
      "velocity": 115,
      "chip": "ym2612"
    },
    {
      "channel": 4,
      "note": 82,
      "start": 1.0878,
      "duration": 0.0194,
      "velocity": 111,
      "chip": "ym2612"
    },
    {
      "channel": 1,
      "note": 82,
      "start": 1.0898,
      "duration": 0.0196,
      "velocity": 111,
      "chip": "ym2612"
    },
    {
      "channel": 3,
      "note": 82,
      "start": 1.0977,
      "duration": 0.0051,
      "velocity": 115,
      "chip": "ym2612"
    },
    {
      "channel": 2,
      "note": 82,
      "start": 1.0992,
      "duration": 0.1663,
      "velocity": 111,
      "chip": "ym2612"
    },
    {
      "channel": 3,
      "note": 72,
      "start": 1.1071,
      "duration": 0.0086,
      "velocity": 115,
      "chip": "ym2612"
    },
    {
      "channel": 4,
      "note": 79,
      "start": 1.1073,
      "duration": 0.0086,
      "velocity": 111,
      "chip": "ym2612"
    },
    {
      "channel": 1,
      "note": 79,
      "start": 1.1095,
      "duration": 0.0724,
      "velocity": 111,
      "chip": "ym2612"
    },
    {
      "channel": 4,
      "note": 77,
      "start": 1.1162,
      "duration": 0.1002,
      "velocity": 111,
      "chip": "ym2612"
    },
    {
      "channel": 1,
      "note": 77,
      "start": 1.1823,
      "duration": 0.1167,
      "velocity": 111,
      "chip": "ym2612"
    },
    {
      "channel": 3,
      "note": 81,
      "start": 1.2161,
      "duration": 0.0848,
      "velocity": 115,
      "chip": "ym2612"
    },
    {
      "channel": 4,
      "note": 79,
      "start": 1.2164,
      "duration": 0.0845,
      "velocity": 111,
      "chip": "ym2612"
    },
    {
      "channel": 2,
      "note": 79,
      "start": 1.2659,
      "duration": 0.0361,
      "velocity": 111,
      "chip": "ym2612"
    },
    {
      "channel": 1,
      "note": 79,
      "start": 1.2989,
      "duration": 0.0041,
      "velocity": 111,
      "chip": "ym2612"
    },
    {
      "channel": 4,
      "note": 81,
      "start": 1.3011,
      "duration": 0.0048,
      "velocity": 111,
      "chip": "ym2612"
    },
    {
      "channel": 2,
      "note": 77,
      "start": 1.3022,
      "duration": 0.0052,
      "velocity": 111,
      "chip": "ym2612"
    },
    {
      "channel": 1,
      "note": 81,
      "start": 1.3035,
      "duration": 0.0053,
      "velocity": 111,
      "chip": "ym2612"
    },
    {
      "channel": 3,
      "note": 72,
      "start": 1.3056,
      "duration": 0.0058,
      "velocity": 115,
      "chip": "ym2612"
    },
    {
      "channel": 4,
      "note": 82,
      "start": 1.3059,
      "duration": 0.0058,
      "velocity": 111,
      "chip": "ym2612"
    },
    {
      "channel": 2,
      "note": 79,
      "start": 1.3074,
      "duration": 0.0053,
      "velocity": 111,
      "chip": "ym2612"
    },
    {
      "channel": 1,
      "note": 82,
      "start": 1.3088,
      "duration": 0.0053,
      "velocity": 111,
      "chip": "ym2612"
    },
    {
      "channel": 4,
      "note": 84,
      "start": 1.3117,
      "duration": 0.0042,
      "velocity": 111,
      "chip": "ym2612"
    },
    {
      "channel": 2,
      "note": 81,
      "start": 1.3129,
      "duration": 0.0047,
      "velocity": 111,
      "chip": "ym2612"
    },
    {
      "channel": 1,
      "note": 84,
      "start": 1.3141,
      "duration": 0.0048,
      "velocity": 111,
      "chip": "ym2612"
    },
    {
      "channel": 3,
      "note": 77,
      "start": 1.3159,
      "duration": 0.0052,
      "velocity": 115,
      "chip": "ym2612"
    },
    {
      "channel": 4,
      "note": 86,
      "start": 1.3162,
      "duration": 0.0052,
      "velocity": 111,
      "chip": "ym2612"
    },
    {
      "channel": 2,
      "note": 82,
      "start": 1.3176,
      "duration": 0.0055,
      "velocity": 111,
      "chip": "ym2612"
    },
    {
      "channel": 1,
      "note": 86,
      "start": 1.3192,
      "duration": 0.0386,
      "velocity": 111,
      "chip": "ym2612"
    },
    {
      "channel": 3,
      "note": 79,
      "start": 1.3214,
      "duration": 0.0386,
      "velocity": 115,
      "chip": "ym2612"
    },
    {
      "channel": 4,
      "note": 89,
      "start": 1.3217,
      "duration": 0.0683,
      "velocity": 111,
      "chip": "ym2612"
    },
    {
      "channel": 2,
      "note": 84,
      "start": 1.323,
      "duration": 0.0384,
      "velocity": 111,
      "chip": "ym2612"
    },
    {
      "channel": 1,
      "note": 89,
      "start": 1.3581,
      "duration": 0.036,
      "velocity": 111,
      "chip": "ym2612"
    },
    {
      "channel": 3,
      "note": 81,
      "start": 1.3602,
      "duration": 0.0053,
      "velocity": 115,
      "chip": "ym2612"
    },
    {
      "channel": 2,
      "note": 86,
      "start": 1.3616,
      "duration": 0.0049,
      "velocity": 111,
      "chip": "ym2612"
    },
    {
      "channel": 2,
      "note": 89,
      "start": 1.3668,
      "duration": 0.0352,
      "velocity": 111,
      "chip": "ym2612"
    },
    {
      "channel": 3,
      "note": 72,
      "start": 1.3708,
      "duration": 0.0047,
      "velocity": 115,
      "chip": "ym2612"
    },
    {
      "channel": 3,
      "note": 82,
      "start": 1.3799,
      "duration": 0.0056,
      "velocity": 115,
      "chip": "ym2612"
    },
    {
      "channel": 3,
      "note": 81,
      "start": 1.39,
      "duration": 0.0063,
      "velocity": 115,
      "chip": "ym2612"
    },
    {
      "channel": 4,
      "note": 87,
      "start": 1.3903,
      "duration": 0.0061,
      "velocity": 111,
      "chip": "ym2612"
    },
    {
      "channel": 1,
      "note": 87,
      "start": 1.3944,
      "duration": 0.0047,
      "velocity": 111,
      "chip": "ym2612"
    },
    {
      "channel": 4,
      "note": 91,
      "start": 1.3967,
      "duration": 0.0043,
      "velocity": 111,
      "chip": "ym2612"
    },
    {
      "channel": 1,
      "note": 91,
      "start": 1.3993,
      "duration": 0.0039,
      "velocity": 111,
      "chip": "ym2612"
    },
    {
      "channel": 3,
      "note": 79,
      "start": 1.4008,
      "duration": 0.0087,
      "velocity": 115,
      "chip": "ym2612"
    },
    {
      "channel": 4,
      "note": 89,
      "start": 1.4012,
      "duration": 0.0085,
      "velocity": 111,
      "chip": "ym2612"
    },
    {
      "channel": 2,
      "note": 87,
      "start": 1.4022,
      "duration": 0.0403,
      "velocity": 111,
      "chip": "ym2612"
    },
    {
      "channel": 1,
      "note": 89,
      "start": 1.4035,
      "duration": 0.0723,
      "velocity": 111,
      "chip": "ym2612"
    },
    {
      "channel": 4,
      "note": 87,
      "start": 1.41,
      "duration": 0.0681,
      "velocity": 111,
      "chip": "ym2612"
    },
    {
      "channel": 2,
      "note": 91,
      "start": 1.443,
      "duration": 0.0369,
      "velocity": 111,
      "chip": "ym2612"
    },
    {
      "channel": 1,
      "note": 87,
      "start": 1.4762,
      "duration": 0.0049,
      "velocity": 111,
      "chip": "ym2612"
    },
    {
      "channel": 3,
      "note": 77,
      "start": 1.478,
      "duration": 0.0048,
      "velocity": 115,
      "chip": "ym2612"
    },
    {
      "channel": 4,
      "note": 84,
      "start": 1.4783,
      "duration": 0.0046,
      "velocity": 111,
      "chip": "ym2612"
    },
    {
      "channel": 2,
      "note": 89,
      "start": 1.4801,
      "duration": 0.0039,
      "velocity": 111,
      "chip": "ym2612"
    },
    {
      "channel": 1,
      "note": 84,
      "start": 1.4813,
      "duration": 0.0049,
      "velocity": 111,
      "chip": "ym2612"
    },
    {
      "channel": 4,
      "note": 87,
      "start": 1.4832,
      "duration": 0.0783,
      "velocity": 111,
      "chip": "ym2612"
    },
    {
      "channel": 2,
      "note": 87,
      "start": 1.4842,
      "duration": 0.0056,
      "velocity": 111,
      "chip": "ym2612"
    },
    {
      "channel": 1,
      "note": 87,
      "start": 1.4864,
      "duration": 0.0778,
      "velocity": 111,
      "chip": "ym2612"
    },
    {
      "channel": 3,
      "note": 75,
      "start": 1.4886,
      "duration": 0.0055,
      "velocity": 115,
      "chip": "ym2612"
    },
    {
      "channel": 2,
      "note": 84,
      "start": 1.49,
      "duration": 0.0053,
      "velocity": 111,
      "chip": "ym2612"
    },
    {
      "channel": 2,
      "note": 87,
      "start": 1.4956,
      "duration": 0.0783,
      "velocity": 111,
      "chip": "ym2612"
    },
    {
      "channel": 0,
      "note": 46,
      "start": 1.4969,
      "duration": 0.0441,
      "velocity": 127,
      "chip": "ym2612"
    },
    {
      "channel": 3,
      "note": 72,
      "start": 1.4993,
      "duration": 0.0059,
      "velocity": 115,
      "chip": "ym2612"
    },
    {
      "channel": 0,
      "note": 48,
      "start": 1.5413,
      "duration": 0.0229,
      "velocity": 127,
      "chip": "ym2612"
    },
    {
      "channel": 3,
      "note": 77,
      "start": 1.5436,
      "duration": 0.0058,
      "velocity": 115,
      "chip": "ym2612"
    },
    {
      "channel": 3,
      "note": 72,
      "start": 1.5498,
      "duration": 0.0059,
      "velocity": 115,
      "chip": "ym2612"
    },
    {
      "channel": 3,
      "note": 75,
      "start": 1.5559,
      "duration": 0.0053,
      "velocity": 115,
      "chip": "ym2612"
    },
    {
      "channel": 3,
      "note": 77,
      "start": 1.5614,
      "duration": 0.0054,
      "velocity": 115,
      "chip": "ym2612"
    },
    {
      "channel": 4,
      "note": 86,
      "start": 1.5616,
      "duration": 0.0155,
      "velocity": 111,
      "chip": "ym2612"
    },
    {
      "channel": 1,
      "note": 86,
      "start": 1.5646,
      "duration": 0.0168,
      "velocity": 111,
      "chip": "ym2612"
    },
    {
      "channel": 3,
      "note": 79,
      "start": 1.5671,
      "duration": 0.0056,
      "velocity": 115,
      "chip": "ym2612"
    },
    {
      "channel": 2,
      "note": 86,
      "start": 1.5741,
      "duration": 0.0153,
      "velocity": 111,
      "chip": "ym2612"
    },
    {
      "channel": 3,
      "note": 72,
      "start": 1.577,
      "duration": 0.0067,
      "velocity": 115,
      "chip": "ym2612"
    },
    {
      "channel": 4,
      "note": 81,
      "start": 1.5774,
      "duration": 0.0881,
      "velocity": 111,
      "chip": "ym2612"
    },
    {
      "channel": 1,
      "note": 81,
      "start": 1.5818,
      "duration": 0.0868,
      "velocity": 111,
      "chip": "ym2612"
    },
    {
      "channel": 3,
      "note": 72,
      "start": 1.5882,
      "duration": 0.0086,
      "velocity": 115,
      "chip": "ym2612"
    },
    {
      "channel": 2,
      "note": 81,
      "start": 1.5896,
      "duration": 0.0873,
      "velocity": 111,
      "chip": "ym2612"
    },
    {
      "channel": 3,
      "note": 81,
      "start": 1.6654,
      "duration": 0.0047,
      "velocity": 115,
      "chip": "ym2612"
    },
    {
      "channel": 4,
      "note": 84,
      "start": 1.6658,
      "duration": 0.0097,
      "velocity": 111,
      "chip": "ym2612"
    },
    {
      "channel": 1,
      "note": 84,
      "start": 1.6688,
      "duration": 0.0096,
      "velocity": 111,
      "chip": "ym2612"
    },
    {
      "channel": 3,
      "note": 72,
      "start": 1.6755,
      "duration": 0.0058,
      "velocity": 115,
      "chip": "ym2612"
    },
    {
      "channel": 4,
      "note": 77,
      "start": 1.6759,
      "duration": 0.1614,
      "velocity": 112,
      "chip": "ym2612"
    },
    {
      "channel": 2,
      "note": 84,
      "start": 1.6772,
      "duration": 0.0098,
      "velocity": 111,
      "chip": "ym2612"
    },
    {
      "channel": 1,
      "note": 77,
      "start": 1.6786,
      "duration": 0.223,
      "velocity": 111,
      "chip": "ym2612"
    },
    {
      "channel": 3,
      "note": 82,
      "start": 1.6856,
      "duration": 0.005,
      "velocity": 115,
      "chip": "ym2612"
    },
    {
      "channel": 2,
      "note": 77,
      "start": 1.6872,
      "duration": 0.3176,
      "velocity": 111,
      "chip": "ym2612"
    },
    {
      "channel": 3,
      "note": 77,
      "start": 1.7291,
      "duration": 0.0051,
      "velocity": 115,
      "chip": "ym2612"
    },
    {
      "channel": 3,
      "note": 79,
      "start": 1.7392,
      "duration": 0.0045,
      "velocity": 115,
      "chip": "ym2612"
    },
    {
      "channel": 3,
      "note": 81,
      "start": 1.7491,
      "duration": 0.0058,
      "velocity": 115,
      "chip": "ym2612"
    },
    {
      "channel": 0,
      "note": 46,
      "start": 1.7575,
      "duration": 0.2441,
      "velocity": 127,
      "chip": "ym2612"
    },
    {
      "channel": 3,
      "note": 82,
      "start": 1.76,
      "duration": 0.0053,
      "velocity": 115,
      "chip": "ym2612"
    },
    {
      "channel": 3,
      "note": 77,
      "start": 1.8356,
      "duration": 0.0995,
      "velocity": 115,
      "chip": "ym2612"
    },
    {
      "channel": 0,
      "note": 53,
      "start": 2.0019,
      "duration": 0.064,
      "velocity": 112,
      "chip": "ym2612"
    },
    {
      "channel": 3,
      "note": 75,
      "start": 2.0037,
      "duration": 0.0035,
      "velocity": 115,
      "chip": "ym2612"
    },
    {
      "channel": 4,
      "note": 67,
      "start": 2.0063,
      "duration": 0.008,
      "velocity": 112,
      "chip": "ym2612"
    },
    {
      "channel": 3,
      "note": 74,
      "start": 2.0117,
      "duration": 0.0044,
      "velocity": 115,
      "chip": "ym2612"
    },
    {
      "channel": 4,
      "note": 70,
      "start": 2.0146,
      "duration": 0.0602,
      "velocity": 112,
      "chip": "ym2612"
    },
    {
      "channel": 1,
      "note": 72,
      "start": 2.0202,
      "duration": 0.0473,
      "velocity": 102,
      "chip": "ym2612"
    },
    {
      "channel": 3,
      "note": 72,
      "start": 2.0219,
      "duration": 0.0047,
      "velocity": 115,
      "chip": "ym2612"
    },
    {
      "channel": 2,
      "note": 72,
      "start": 2.0301,
      "duration": 0.0493,
      "velocity": 95,
      "chip": "ym2612"
    },
    {
      "channel": 0,
      "note": 39,
      "start": 2.066,
      "duration": 0.0159,
      "velocity": 112,
      "chip": "ym2612"
    },
    {
      "channel": 1,
      "note": 84,
      "start": 2.0678,
      "duration": 0.0146,
      "velocity": 102,
      "chip": "ym2612"
    },
    {
      "channel": 3,
      "note": 51,
      "start": 2.0712,
      "duration": 0.0132,
      "velocity": 113,
      "chip": "ym2612"
    },
    {
      "channel": 4,
      "note": 75,
      "start": 2.0754,
      "duration": 0.0335,
      "velocity": 112,
      "chip": "ym2612"
    },
    {
      "channel": 2,
      "note": 84,
      "start": 2.0796,
      "duration": 0.0105,
      "velocity": 95,
      "chip": "ym2612"
    },
    {
      "channel": 0,
      "note": 39,
      "start": 2.0823,
      "duration": 0.0096,
      "velocity": 112,
      "chip": "ym2612"
    },
    {
      "channel": 3,
      "note": 51,
      "start": 2.0846,
      "duration": 0.0097,
      "velocity": 113,
      "chip": "ym2612"
    },
    {
      "channel": 0,
      "note": 51,
      "start": 2.0922,
      "duration": 0.0104,
      "velocity": 112,
      "chip": "ym2612"
    },
    {
      "channel": 1,
      "note": 84,
      "start": 2.0927,
      "duration": 0.0102,
      "velocity": 102,
      "chip": "ym2612"
    },
    {
      "channel": 3,
      "note": 63,
      "start": 2.0946,
      "duration": 0.01,
      "velocity": 113,
      "chip": "ym2612"
    },
    {
      "channel": 2,
      "note": 84,
      "start": 2.1014,
      "duration": 0.0104,
      "velocity": 95,
      "chip": "ym2612"
    },
    {
      "channel": 0,
      "note": 41,
      "start": 2.1029,
      "duration": 0.0862,
      "velocity": 112,
      "chip": "ym2612"
    },
    {
      "channel": 3,
      "note": 53,
      "start": 2.1048,
      "duration": 0.118,
      "velocity": 113,
      "chip": "ym2612"
    },
    {
      "channel": 4,
      "note": 77,
      "start": 2.1093,
      "duration": 0.1972,
      "velocity": 112,
      "chip": "ym2612"
    },
    {
      "channel": 1,
      "note": 84,
      "start": 2.1134,
      "duration": 0.0761,
      "velocity": 102,
      "chip": "ym2612"
    },
    {
      "channel": 2,
      "note": 84,
      "start": 2.1565,
      "duration": 0.1526,
      "velocity": 95,
      "chip": "ym2612"
    },
    {
      "channel": 0,
      "note": 41,
      "start": 2.1894,
      "duration": 0.1205,
      "velocity": 112,
      "chip": "ym2612"
    },
    {
      "channel": 3,
      "note": 53,
      "start": 2.2232,
      "duration": 0.0892,
      "velocity": 113,
      "chip": "ym2612"
    },
    {
      "channel": 4,
      "note": 70,
      "start": 2.3069,
      "duration": 0.0192,
      "velocity": 112,
      "chip": "ym2612"
    },
    {
      "channel": 0,
      "note": 53,
      "start": 2.3103,
      "duration": 0.0103,
      "velocity": 112,
      "chip": "ym2612"
    },
    {
      "channel": 1,
      "note": 84,
      "start": 2.3108,
      "duration": 0.01,
      "velocity": 102,
      "chip": "ym2612"
    },
    {
      "channel": 3,
      "note": 65,
      "start": 2.3126,
      "duration": 0.0102,
      "velocity": 113,
      "chip": "ym2612"
    },
    {
      "channel": 2,
      "note": 84,
      "start": 2.3193,
      "duration": 0.0098,
      "velocity": 95,
      "chip": "ym2612"
    },
    {
      "channel": 0,
      "note": 39,
      "start": 2.3208,
      "duration": 0.061,
      "velocity": 112,
      "chip": "ym2612"
    },
    {
      "channel": 3,
      "note": 51,
      "start": 2.3231,
      "duration": 0.0612,
      "velocity": 113,
      "chip": "ym2612"
    },
    {
      "channel": 4,
      "note": 69,
      "start": 2.3264,
      "duration": 0.0523,
      "velocity": 112,
      "chip": "ym2612"
    },
    {
      "channel": 1,
      "note": 84,
      "start": 2.3639,
      "duration": 0.0097,
      "velocity": 102,
      "chip": "ym2612"
    },
    {
      "channel": 2,
      "note": 84,
      "start": 2.3715,
      "duration": 0.0095,
      "velocity": 95,
      "chip": "ym2612"
    },
    {
      "channel": 4,
      "note": 74,
      "start": 2.379,
      "duration": 0.0199,
      "velocity": 112,
      "chip": "ym2612"
    },
    {
      "channel": 0,
      "note": 51,
      "start": 2.382,
      "duration": 0.0104,
      "velocity": 112,
      "chip": "ym2612"
    },
    {
      "channel": 1,
      "note": 84,
      "start": 2.3825,
      "duration": 0.0103,
      "velocity": 102,
      "chip": "ym2612"
    },
    {
      "channel": 3,
      "note": 63,
      "start": 2.3845,
      "duration": 0.0101,
      "velocity": 113,
      "chip": "ym2612"
    },
    {
      "channel": 2,
      "note": 84,
      "start": 2.391,
      "duration": 0.0105,
      "velocity": 95,
      "chip": "ym2612"
    },
    {
      "channel": 0,
      "note": 41,
      "start": 2.3927,
      "duration": 0.148,
      "velocity": 112,
      "chip": "ym2612"
    },
    {
      "channel": 3,
      "note": 53,
      "start": 2.395,
      "duration": 0.1479,
      "velocity": 113,
      "chip": "ym2612"
    },
    {
      "channel": 4,
      "note": 65,
      "start": 2.3992,
      "duration": 0.0852,
      "velocity": 112,
      "chip": "ym2612"
    },
    {
      "channel": 1,
      "note": 84,
      "start": 2.4032,
      "duration": 0.076,
      "velocity": 102,
      "chip": "ym2612"
    },
    {
      "channel": 2,
      "note": 84,
      "start": 2.4463,
      "duration": 0.0401,
      "velocity": 95,
      "chip": "ym2612"
    },
    {
      "channel": 4,
      "note": 67,
      "start": 2.4845,
      "duration": 0.062,
      "velocity": 112,
      "chip": "ym2612"
    },
    {
      "channel": 1,
      "note": 84,
      "start": 2.4878,
      "duration": 0.0104,
      "velocity": 102,
      "chip": "ym2612"
    },
    {
      "channel": 2,
      "note": 84,
      "start": 2.4967,
      "duration": 0.0093,
      "velocity": 95,
      "chip": "ym2612"
    },
    {
      "channel": 0,
      "note": 39,
      "start": 2.541,
      "duration": 0.0092,
      "velocity": 112,
      "chip": "ym2612"
    },
    {
      "channel": 1,
      "note": 84,
      "start": 2.5414,
      "duration": 0.0093,
      "velocity": 102,
      "chip": "ym2612"
    },
    {
      "channel": 3,
      "note": 51,
      "start": 2.5433,
      "duration": 0.0093,
      "velocity": 113,
      "chip": "ym2612"
    },
    {
      "channel": 2,
      "note": 84,
      "start": 2.5486,
      "duration": 0.009,
      "velocity": 95,
      "chip": "ym2612"
    },
    {
      "channel": 0,
      "note": 39,
      "start": 2.5506,
      "duration": 0.0088,
      "velocity": 112,
      "chip": "ym2612"
    },
    {
      "channel": 3,
      "note": 51,
      "start": 2.5527,
      "duration": 0.0092,
      "velocity": 113,
      "chip": "ym2612"
    },
    {
      "channel": 4,
      "note": 70,
      "start": 2.5553,
      "duration": 0.0215,
      "velocity": 112,
      "chip": "ym2612"
    },
    {
      "channel": 0,
      "note": 51,
      "start": 2.5598,
      "duration": 0.0105,
      "velocity": 112,
      "chip": "ym2612"
    },
    {
      "channel": 1,
      "note": 84,
      "start": 2.5603,
      "duration": 0.0104,
      "velocity": 102,
      "chip": "ym2612"
    },
    {
      "channel": 3,
      "note": 63,
      "start": 2.5623,
      "duration": 0.0104,
      "velocity": 113,
      "chip": "ym2612"
    },
    {
      "channel": 2,
      "note": 84,
      "start": 2.5689,
      "duration": 0.0103,
      "velocity": 95,
      "chip": "ym2612"
    },
    {
      "channel": 0,
      "note": 41,
      "start": 2.5707,
      "duration": 0.0857,
      "velocity": 112,
      "chip": "ym2612"
    },
    {
      "channel": 3,
      "note": 53,
      "start": 2.5729,
      "duration": 0.1173,
      "velocity": 113,
      "chip": "ym2612"
    },
    {
      "channel": 4,
      "note": 69,
      "start": 2.5771,
      "duration": 0.1966,
      "velocity": 112,
      "chip": "ym2612"
    },
    {
      "channel": 1,
      "note": 84,
      "start": 2.5807,
      "duration": 0.0761,
      "velocity": 102,
      "chip": "ym2612"
    },
    {
      "channel": 2,
      "note": 84,
      "start": 2.6239,
      "duration": 0.2161,
      "velocity": 95,
      "chip": "ym2612"
    },
    {
      "channel": 0,
      "note": 53,
      "start": 2.6567,
      "duration": 0.2267,
      "velocity": 112,
      "chip": "ym2612"
    },
    {
      "channel": 3,
      "note": 65,
      "start": 2.6905,
      "duration": 0.1948,
      "velocity": 113,
      "chip": "ym2612"
    },
    {
      "channel": 4,
      "note": 67,
      "start": 2.7741,
      "duration": 0.1148,
      "velocity": 112,
      "chip": "ym2612"
    },
    {
      "channel": 1,
      "note": 84,
      "start": 2.8738,
      "duration": 0.0098,
      "velocity": 102,
      "chip": "ym2612"
    },
    {
      "channel": 2,
      "note": 84,
      "start": 2.882,
      "duration": 0.0096,
      "velocity": 95,
      "chip": "ym2612"
    },
    {
      "channel": 0,
      "note": 41,
      "start": 2.8836,
      "duration": 0.0426,
      "velocity": 112,
      "chip": "ym2612"
    },
    {
      "channel": 3,
      "note": 53,
      "start": 2.8857,
      "duration": 0.0429,
      "velocity": 113,
      "chip": "ym2612"
    },
    {
      "channel": 4,
      "note": 72,
      "start": 2.8891,
      "duration": 0.0533,
      "velocity": 112,
      "chip": "ym2612"
    },
    {
      "channel": 0,
      "note": 43,
      "start": 2.9265,
      "duration": 0.0102,
      "velocity": 112,
      "chip": "ym2612"
    },
    {
      "channel": 1,
      "note": 84,
      "start": 2.927,
      "duration": 0.0102,
      "velocity": 102,
      "chip": "ym2612"
    },
    {
      "channel": 3,
      "note": 55,
      "start": 2.9289,
      "duration": 0.0102,
      "velocity": 113,
      "chip": "ym2612"
    },
    {
      "channel": 2,
      "note": 84,
      "start": 2.9351,
      "duration": 0.0096,
      "velocity": 95,
      "chip": "ym2612"
    },
    {
      "channel": 0,
      "note": 55,
      "start": 2.9371,
      "duration": 0.009,
      "velocity": 112,
      "chip": "ym2612"
    },
    {
      "channel": 3,
      "note": 67,
      "start": 2.9394,
      "duration": 0.0093,
      "velocity": 113,
      "chip": "ym2612"
    },
    {
      "channel": 4,
      "note": 74,
      "start": 2.9427,
      "duration": 0.021,
      "velocity": 112,
      "chip": "ym2612"
    },
    {
      "channel": 0,
      "note": 43,
      "start": 2.9465,
      "duration": 0.0105,
      "velocity": 112,
      "chip": "ym2612"
    },
    {
      "channel": 1,
      "note": 84,
      "start": 2.947,
      "duration": 0.0104,
      "velocity": 102,
      "chip": "ym2612"
    },
    {
      "channel": 3,
      "note": 55,
      "start": 2.949,
      "duration": 0.0104,
      "velocity": 113,
      "chip": "ym2612"
    },
    {
      "channel": 2,
      "note": 84,
      "start": 2.9556,
      "duration": 0.0107,
      "velocity": 95,
      "chip": "ym2612"
    },
    {
      "channel": 0,
      "note": 53,
      "start": 2.9573,
      "duration": 0.0957,
      "velocity": 96,
      "chip": "ym2612"
    },
    {
      "channel": 3,
      "note": 65,
      "start": 2.9597,
      "duration": 0.0956,
      "velocity": 113,
      "chip": "ym2612"
    },
    {
      "channel": 4,
      "note": 70,
      "start": 2.964,
      "duration": 0.0851,
      "velocity": 112,
      "chip": "ym2612"
    },
    {
      "channel": 1,
      "note": 84,
      "start": 2.968,
      "duration": 0.076,
      "velocity": 102,
      "chip": "ym2612"
    },
    {
      "channel": 2,
      "note": 84,
      "start": 3.011,
      "duration": 0.0401,
      "velocity": 95,
      "chip": "ym2612"
    },
    {
      "channel": 4,
      "note": 69,
      "start": 3.0492,
      "duration": 0.0085,
      "velocity": 112,
      "chip": "ym2612"
    },
    {
      "channel": 0,
      "note": 48,
      "start": 3.0534,
      "duration": 0.0198,
      "velocity": 112,
      "chip": "ym2612"
    },
    {
      "channel": 1,
      "note": 84,
      "start": 3.0537,
      "duration": 0.0085,
      "velocity": 102,
      "chip": "ym2612"
    },
    {
      "channel": 4,
      "note": 70,
      "start": 3.058,
      "duration": 0.0097,
      "velocity": 112,
      "chip": "ym2612"
    },
    {
      "channel": 2,
      "note": 84,
      "start": 3.061,
      "duration": 0.009,
      "velocity": 95,
      "chip": "ym2612"
    },
    {
      "channel": 4,
      "note": 79,
      "start": 3.068,
      "duration": 0.0285,
      "velocity": 112,
      "chip": "ym2612"
    },
    {
      "channel": 0,
      "note": 39,
      "start": 3.0735,
      "duration": 0.0089,
      "velocity": 112,
      "chip": "ym2612"
    },
    {
      "channel": 1,
      "note": 84,
      "start": 3.0738,
      "duration": 0.0091,
      "velocity": 102,
      "chip": "ym2612"
    },
    {
      "channel": 3,
      "note": 51,
      "start": 3.0751,
      "duration": 0.0097,
      "velocity": 113,
      "chip": "ym2612"
    },
    {
      "channel": 2,
      "note": 84,
      "start": 3.0807,
      "duration": 0.0096,
      "velocity": 95,
      "chip": "ym2612"
    },
    {
      "channel": 0,
      "note": 39,
      "start": 3.0827,
      "duration": 0.0083,
      "velocity": 112,
      "chip": "ym2612"
    },
    {
      "channel": 3,
      "note": 51,
      "start": 3.0851,
      "duration": 0.0085,
      "velocity": 113,
      "chip": "ym2612"
    },
    {
      "channel": 0,
      "note": 51,
      "start": 3.0913,
      "duration": 0.0099,
      "velocity": 112,
      "chip": "ym2612"
    },
    {
      "channel": 1,
      "note": 84,
      "start": 3.0918,
      "duration": 0.0098,
      "velocity": 102,
      "chip": "ym2612"
    },
    {
      "channel": 3,
      "note": 63,
      "start": 3.0938,
      "duration": 0.0099,
      "velocity": 113,
      "chip": "ym2612"
    },
    {
      "channel": 4,
      "note": 77,
      "start": 3.0968,
      "duration": 0.0115,
      "velocity": 112,
      "chip": "ym2612"
    },
    {
      "channel": 2,
      "note": 84,
      "start": 3.0999,
      "duration": 0.0109,
      "velocity": 95,
      "chip": "ym2612"
    },
    {
      "channel": 0,
      "note": 41,
      "start": 3.1015,
      "duration": 0.0863,
      "velocity": 112,
      "chip": "ym2612"
    },
    {
      "channel": 3,
      "note": 53,
      "start": 3.1039,
      "duration": 0.1178,
      "velocity": 113,
      "chip": "ym2612"
    },
    {
      "channel": 4,
      "note": 70,
      "start": 3.1086,
      "duration": 0.2055,
      "velocity": 112,
      "chip": "ym2612"
    },
    {
      "channel": 1,
      "note": 84,
      "start": 3.1123,
      "duration": 0.0759,
      "velocity": 102,
      "chip": "ym2612"
    },
    {
      "channel": 2,
      "note": 84,
      "start": 3.1553,
      "duration": 0.1525,
      "velocity": 95,
      "chip": "ym2612"
    },
    {
      "channel": 0,
      "note": 53,
      "start": 3.1882,
      "duration": 0.1739,
      "velocity": 112,
      "chip": "ym2612"
    },
    {
      "channel": 3,
      "note": 65,
      "start": 3.222,
      "duration": 0.1424,
      "velocity": 113,
      "chip": "ym2612"
    },
    {
      "channel": 1,
      "note": 84,
      "start": 3.3093,
      "duration": 0.0101,
      "velocity": 102,
      "chip": "ym2612"
    },
    {
      "channel": 4,
      "note": 77,
      "start": 3.3143,
      "duration": 0.0638,
      "velocity": 112,
      "chip": "ym2612"
    },
    {
      "channel": 2,
      "note": 84,
      "start": 3.3179,
      "duration": 0.0098,
      "velocity": 95,
      "chip": "ym2612"
    },
    {
      "channel": 0,
      "note": 39,
      "start": 3.3624,
      "duration": 0.01,
      "velocity": 112,
      "chip": "ym2612"
    },
    {
      "channel": 1,
      "note": 84,
      "start": 3.3629,
      "duration": 0.01,
      "velocity": 102,
      "chip": "ym2612"
    },
    {
      "channel": 3,
      "note": 51,
      "start": 3.3647,
      "duration": 0.0102,
      "velocity": 113,
      "chip": "ym2612"
    },
    {
      "channel": 2,
      "note": 84,
      "start": 3.3707,
      "duration": 0.0095,
      "velocity": 95,
      "chip": "ym2612"
    },
    {
      "channel": 0,
      "note": 51,
      "start": 3.3728,
      "duration": 0.0091,
      "velocity": 112,
      "chip": "ym2612"
    },
    {
      "channel": 3,
      "note": 63,
      "start": 3.3752,
      "duration": 0.0095,
      "velocity": 113,
      "chip": "ym2612"
    },
    {
      "channel": 4,
      "note": 75,
      "start": 3.3783,
      "duration": 0.0097,
      "velocity": 112,
      "chip": "ym2612"
    },
    {
      "channel": 0,
      "note": 39,
      "start": 3.3824,
      "duration": 0.0108,
      "velocity": 112,
      "chip": "ym2612"
    },
    {
      "channel": 1,
      "note": 84,
      "start": 3.3828,
      "duration": 0.0106,
      "velocity": 102,
      "chip": "ym2612"
    },
    {
      "channel": 3,
      "note": 51,
      "start": 3.385,
      "duration": 0.0101,
      "velocity": 113,
      "chip": "ym2612"
    },
    {
      "channel": 4,
      "note": 67,
      "start": 3.3883,
      "duration": 0.0963,
      "velocity": 112,
      "chip": "ym2612"
    },
    {
      "channel": 2,
      "note": 84,
      "start": 3.3919,
      "duration": 0.0101,
      "velocity": 95,
      "chip": "ym2612"
    },
    {
      "channel": 0,
      "note": 41,
      "start": 3.3933,
      "duration": 0.1481,
      "velocity": 112,
      "chip": "ym2612"
    },
    {
      "channel": 3,
      "note": 53,
      "start": 3.3954,
      "duration": 0.1483,
      "velocity": 113,
      "chip": "ym2612"
    },
    {
      "channel": 1,
      "note": 84,
      "start": 3.4034,
      "duration": 0.0762,
      "velocity": 102,
      "chip": "ym2612"
    },
    {
      "channel": 2,
      "note": 84,
      "start": 3.4467,
      "duration": 0.04,
      "velocity": 95,
      "chip": "ym2612"
    },
    {
      "channel": 4,
      "note": 65,
      "start": 3.4848,
      "duration": 0.0087,
      "velocity": 112,
      "chip": "ym2612"
    },
    {
      "channel": 1,
      "note": 84,
      "start": 3.4881,
      "duration": 0.0108,
      "velocity": 102,
      "chip": "ym2612"
    },
    {
      "channel": 4,
      "note": 67,
      "start": 3.4937,
      "duration": 0.0104,
      "velocity": 112,
      "chip": "ym2612"
    },
    {
      "channel": 2,
      "note": 84,
      "start": 3.4974,
      "duration": 0.0096,
      "velocity": 95,
      "chip": "ym2612"
    },
    {
      "channel": 4,
      "note": 72,
      "start": 3.5043,
      "duration": 0.053,
      "velocity": 112,
      "chip": "ym2612"
    },
    {
      "channel": 0,
      "note": 39,
      "start": 3.5417,
      "duration": 0.0099,
      "velocity": 112,
      "chip": "ym2612"
    },
    {
      "channel": 1,
      "note": 84,
      "start": 3.5422,
      "duration": 0.0099,
      "velocity": 102,
      "chip": "ym2612"
    },
    {
      "channel": 3,
      "note": 51,
      "start": 3.544,
      "duration": 0.0102,
      "velocity": 113,
      "chip": "ym2612"
    },
    {
      "channel": 2,
      "note": 84,
      "start": 3.5499,
      "duration": 0.0096,
      "velocity": 95,
      "chip": "ym2612"
    },
    {
      "channel": 0,
      "note": 51,
      "start": 3.552,
      "duration": 0.0083,
      "velocity": 112,
      "chip": "ym2612"
    },
    {
      "channel": 3,
      "note": 63,
      "start": 3.5544,
      "duration": 0.0085,
      "velocity": 113,
      "chip": "ym2612"
    },
    {
      "channel": 4,
      "note": 67,
      "start": 3.5575,
      "duration": 0.0199,
      "velocity": 112,
      "chip": "ym2612"
    },
    {
      "channel": 0,
      "note": 39,
      "start": 3.5606,
      "duration": 0.0106,
      "velocity": 112,
      "chip": "ym2612"
    },
    {
      "channel": 1,
      "note": 84,
      "start": 3.561,
      "duration": 0.0105,
      "velocity": 102,
      "chip": "ym2612"
    },
    {
      "channel": 3,
      "note": 51,
      "start": 3.5631,
      "duration": 0.0103,
      "velocity": 113,
      "chip": "ym2612"
    },
    {
      "channel": 2,
      "note": 84,
      "start": 3.5697,
      "duration": 0.0104,
      "velocity": 95,
      "chip": "ym2612"
    },
    {
      "channel": 0,
      "note": 41,
      "start": 3.5714,
      "duration": 0.0862,
      "velocity": 112,
      "chip": "ym2612"
    },
    {
      "channel": 3,
      "note": 53,
      "start": 3.5737,
      "duration": 0.0863,
      "velocity": 113,
      "chip": "ym2612"
    },
    {
      "channel": 4,
      "note": 74,
      "start": 3.5778,
      "duration": 0.0856,
      "velocity": 112,
      "chip": "ym2612"
    },
    {
      "channel": 1,
      "note": 84,
      "start": 3.5818,
      "duration": 0.0762,
      "velocity": 102,
      "chip": "ym2612"
    },
    {
      "channel": 2,
      "note": 84,
      "start": 3.6249,
      "duration": 0.0408,
      "velocity": 95,
      "chip": "ym2612"
    },
    {
      "channel": 0,
      "note": 53,
      "start": 3.658,
      "duration": 0.062,
      "velocity": 112,
      "chip": "ym2612"
    },
    {
      "channel": 3,
      "note": 65,
      "start": 3.6602,
      "duration": 0.062,
      "velocity": 113,
      "chip": "ym2612"
    },
    {
      "channel": 4,
      "note": 70,
      "start": 3.6636,
      "duration": 0.0084,
      "velocity": 112,
      "chip": "ym2612"
    },
    {
      "channel": 1,
      "note": 84,
      "start": 3.6671,
      "duration": 0.0103,
      "velocity": 102,
      "chip": "ym2612"
    },
    {
      "channel": 4,
      "note": 77,
      "start": 3.6723,
      "duration": 0.0862,
      "velocity": 112,
      "chip": "ym2612"
    },
    {
      "channel": 2,
      "note": 84,
      "start": 3.6759,
      "duration": 0.0096,
      "velocity": 95,
      "chip": "ym2612"
    },
    {
      "channel": 0,
      "note": 43,
      "start": 3.7203,
      "duration": 0.01,
      "velocity": 112,
      "chip": "ym2612"
    },
    {
      "channel": 1,
      "note": 84,
      "start": 3.7208,
      "duration": 0.01,
      "velocity": 102,
      "chip": "ym2612"
    },
    {
      "channel": 3,
      "note": 55,
      "start": 3.7226,
      "duration": 0.0101,
      "velocity": 113,
      "chip": "ym2612"
    },
    {
      "channel": 2,
      "note": 84,
      "start": 3.7286,
      "duration": 0.0098,
      "velocity": 95,
      "chip": "ym2612"
    },
    {
      "channel": 0,
      "note": 55,
      "start": 3.7306,
      "duration": 0.0095,
      "velocity": 112,
      "chip": "ym2612"
    },
    {
      "channel": 3,
      "note": 67,
      "start": 3.7329,
      "duration": 0.0101,
      "velocity": 113,
      "chip": "ym2612"
    },
    {
      "channel": 0,
      "note": 43,
      "start": 3.7405,
      "duration": 0.0122,
      "velocity": 112,
      "chip": "ym2612"
    },
    {
      "channel": 1,
      "note": 84,
      "start": 3.7409,
      "duration": 0.0121,
      "velocity": 102,
      "chip": "ym2612"
    },
    {
      "channel": 3,
      "note": 55,
      "start": 3.7432,
      "duration": 0.0118,
      "velocity": 113,
      "chip": "ym2612"
    },
    {
      "channel": 2,
      "note": 84,
      "start": 3.7511,
      "duration": 0.0106,
      "velocity": 95,
      "chip": "ym2612"
    },
    {
      "channel": 0,
      "note": 51,
      "start": 3.7529,
      "duration": 0.0535,
      "velocity": 112,
      "chip": "ym2612"
    },
    {
      "channel": 3,
      "note": 63,
      "start": 3.7553,
      "duration": 0.0539,
      "velocity": 113,
      "chip": "ym2612"
    },
    {
      "channel": 4,
      "note": 79,
      "start": 3.7588,
      "duration": 0.055,
      "velocity": 112,
      "chip": "ym2612"
    },
    {
      "channel": 1,
      "note": 84,
      "start": 3.7968,
      "duration": 0.0102,
      "velocity": 102,
      "chip": "ym2612"
    },
    {
      "channel": 2,
      "note": 84,
      "start": 3.8049,
      "duration": 0.0127,
      "velocity": 95,
      "chip": "ym2612"
    },
    {
      "channel": 0,
      "note": 41,
      "start": 3.807,
      "duration": 0.0118,
      "velocity": 112,
      "chip": "ym2612"
    },
    {
      "channel": 3,
      "note": 53,
      "start": 3.8095,
      "duration": 0.013,
      "velocity": 113,
      "chip": "ym2612"
    },
    {
      "channel": 4,
      "note": 82,
      "start": 3.8141,
      "duration": 0.039,
      "velocity": 106,
      "chip": "ym2612"
    },
    {
      "channel": 0,
      "note": 53,
      "start": 3.8192,
      "duration": 0.0128,
      "velocity": 112,
      "chip": "ym2612"
    },
    {
      "channel": 1,
      "note": 84,
      "start": 3.8196,
      "duration": 0.0127,
      "velocity": 102,
      "chip": "ym2612"
    },
    {
      "channel": 3,
      "note": 65,
      "start": 3.8228,
      "duration": 0.0118,
      "velocity": 113,
      "chip": "ym2612"
    },
    {
      "channel": 2,
      "note": 84,
      "start": 3.8296,
      "duration": 0.013,
      "velocity": 95,
      "chip": "ym2612"
    },
    {
      "channel": 0,
      "note": 51,
      "start": 3.8323,
      "duration": 0.0136,
      "velocity": 127,
      "chip": "ym2612"
    },
    {
      "channel": 3,
      "note": 63,
      "start": 3.8349,
      "duration": 0.0161,
      "velocity": 127,
      "chip": "ym2612"
    },
    {
      "channel": 0,
      "note": 48,
      "start": 3.8464,
      "duration": 0.0151,
      "velocity": 127,
      "chip": "ym2612"
    },
    {
      "channel": 1,
      "note": 72,
      "start": 3.8483,
      "duration": 0.0335,
      "velocity": 115,
      "chip": "ym2612"
    },
    {
      "channel": 3,
      "note": 72,
      "start": 3.8512,
      "duration": 0.0327,
      "velocity": 127,
      "chip": "ym2612"
    },
    {
      "channel": 4,
      "note": 51,
      "start": 3.8533,
      "duration": 0.299,
      "velocity": 106,
      "chip": "ym2612"
    },
    {
      "channel": 2,
      "note": 72,
      "start": 3.8605,
      "duration": 0.0312,
      "velocity": 115,
      "chip": "ym2612"
    },
    {
      "channel": 0,
      "note": 48,
      "start": 3.8619,
      "duration": 0.0098,
      "velocity": 127,
      "chip": "ym2612"
    },
    {
      "channel": 0,
      "note": 55,
      "start": 3.8817,
      "duration": 0.0123,
      "velocity": 127,
      "chip": "ym2612"
    },
    {
      "channel": 1,
      "note": 84,
      "start": 3.882,
      "duration": 0.2894,
      "velocity": 115,
      "chip": "ym2612"
    },
    {
      "channel": 3,
      "note": 84,
      "start": 3.8841,
      "duration": 0.2897,
      "velocity": 127,
      "chip": "ym2612"
    },
    {
      "channel": 2,
      "note": 84,
      "start": 3.892,
      "duration": 0.2875,
      "velocity": 115,
      "chip": "ym2612"
    },
    {
      "channel": 0,
      "note": 60,
      "start": 3.8942,
      "duration": 0.0761,
      "velocity": 127,
      "chip": "ym2612"
    },
    {
      "channel": 0,
      "note": 55,
      "start": 3.9707,
      "duration": 0.1165,
      "velocity": 127,
      "chip": "ym2612"
    },
    {
      "channel": 0,
      "note": 58,
      "start": 4.0875,
      "duration": 0.018,
      "velocity": 127,
      "chip": "ym2612"
    },
    {
      "channel": 0,
      "note": 60,
      "start": 4.1058,
      "duration": 0.0437,
      "velocity": 127,
      "chip": "ym2612"
    },
    {
      "channel": 0,
      "note": 48,
      "start": 4.1499,
      "duration": 0.0109,
      "velocity": 127,
      "chip": "ym2612"
    },
    {
      "channel": 4,
      "note": 53,
      "start": 4.1525,
      "duration": 0.1883,
      "velocity": 106,
      "chip": "ym2612"
    },
    {
      "channel": 0,
      "note": 48,
      "start": 4.1612,
      "duration": 0.0102,
      "velocity": 127,
      "chip": "ym2612"
    },
    {
      "channel": 1,
      "note": 72,
      "start": 4.1718,
      "duration": 0.0213,
      "velocity": 115,
      "chip": "ym2612"
    },
    {
      "channel": 3,
      "note": 72,
      "start": 4.174,
      "duration": 0.0212,
      "velocity": 127,
      "chip": "ym2612"
    },
    {
      "channel": 2,
      "note": 72,
      "start": 4.1798,
      "duration": 0.0572,
      "velocity": 115,
      "chip": "ym2612"
    },
    {
      "channel": 0,
      "note": 55,
      "start": 4.1811,
      "duration": 0.0117,
      "velocity": 127,
      "chip": "ym2612"
    },
    {
      "channel": 0,
      "note": 60,
      "start": 4.193,
      "duration": 0.077,
      "velocity": 127,
      "chip": "ym2612"
    },
    {
      "channel": 1,
      "note": 73,
      "start": 4.1934,
      "duration": 0.0831,
      "velocity": 115,
      "chip": "ym2612"
    },
    {
      "channel": 3,
      "note": 73,
      "start": 4.1956,
      "duration": 0.083,
      "velocity": 127,
      "chip": "ym2612"
    },
    {
      "channel": 2,
      "note": 73,
      "start": 4.2373,
      "duration": 0.0489,
      "velocity": 115,
      "chip": "ym2612"
    },
    {
      "channel": 0,
      "note": 55,
      "start": 4.2704,
      "duration": 0.0058,
      "velocity": 127,
      "chip": "ym2612"
    },
    {
      "channel": 0,
      "note": 58,
      "start": 4.2764,
      "duration": 0.0172,
      "velocity": 127,
      "chip": "ym2612"
    },
    {
      "channel": 1,
      "note": 84,
      "start": 4.2767,
      "duration": 0.0173,
      "velocity": 115,
      "chip": "ym2612"
    },
    {
      "channel": 3,
      "note": 84,
      "start": 4.2788,
      "duration": 0.0176,
      "velocity": 127,
      "chip": "ym2612"
    },
    {
      "channel": 2,
      "note": 84,
      "start": 4.2865,
      "duration": 0.0171,
      "velocity": 115,
      "chip": "ym2612"
    },
    {
      "channel": 0,
      "note": 60,
      "start": 4.2939,
      "duration": 0.0439,
      "velocity": 127,
      "chip": "ym2612"
    },
    {
      "channel": 1,
      "note": 82,
      "start": 4.2942,
      "duration": 0.0439,
      "velocity": 115,
      "chip": "ym2612"
    },
    {
      "channel": 3,
      "note": 82,
      "start": 4.2966,
      "duration": 0.044,
      "velocity": 127,
      "chip": "ym2612"
    },
    {
      "channel": 2,
      "note": 82,
      "start": 4.3038,
      "duration": 0.0438,
      "velocity": 115,
      "chip": "ym2612"
    },
    {
      "channel": 0,
      "note": 48,
      "start": 4.3381,
      "duration": 0.0111,
      "velocity": 127,
      "chip": "ym2612"
    },
    {
      "channel": 1,
      "note": 80,
      "start": 4.3385,
      "duration": 0.0168,
      "velocity": 115,
      "chip": "ym2612"
    },
    {
      "channel": 3,
      "note": 80,
      "start": 4.3408,
      "duration": 0.0163,
      "velocity": 127,
      "chip": "ym2612"
    },
    {
      "channel": 4,
      "note": 55,
      "start": 4.341,
      "duration": 0.3932,
      "velocity": 106,
      "chip": "ym2612"
    },
    {
      "channel": 2,
      "note": 80,
      "start": 4.3478,
      "duration": 0.0156,
      "velocity": 115,
      "chip": "ym2612"
    },
    {
      "channel": 0,
      "note": 48,
      "start": 4.3495,
      "duration": 0.0101,
      "velocity": 127,
      "chip": "ym2612"
    },
    {
      "channel": 1,
      "note": 79,
      "start": 4.3556,
      "duration": 0.0144,
      "velocity": 115,
      "chip": "ym2612"
    },
    {
      "channel": 3,
      "note": 79,
      "start": 4.3574,
      "duration": 0.0146,
      "velocity": 127,
      "chip": "ym2612"
    },
    {
      "channel": 2,
      "note": 79,
      "start": 4.3638,
      "duration": 0.0159,
      "velocity": 115,
      "chip": "ym2612"
    },
    {
      "channel": 0,
      "note": 55,
      "start": 4.37,
      "duration": 0.0119,
      "velocity": 127,
      "chip": "ym2612"
    },
    {
      "channel": 1,
      "note": 70,
      "start": 4.3703,
      "duration": 0.489,
      "velocity": 115,
      "chip": "ym2612"
    },
    {
      "channel": 3,
      "note": 70,
      "start": 4.3723,
      "duration": 0.489,
      "velocity": 127,
      "chip": "ym2612"
    },
    {
      "channel": 2,
      "note": 70,
      "start": 4.3799,
      "duration": 0.489,
      "velocity": 115,
      "chip": "ym2612"
    },
    {
      "channel": 0,
      "note": 60,
      "start": 4.382,
      "duration": 0.0765,
      "velocity": 127,
      "chip": "ym2612"
    },
    {
      "channel": 0,
      "note": 55,
      "start": 4.4589,
      "duration": 0.1162,
      "velocity": 127,
      "chip": "ym2612"
    },
    {
      "channel": 0,
      "note": 58,
      "start": 4.5755,
      "duration": 0.1122,
      "velocity": 127,
      "chip": "ym2612"
    },
    {
      "channel": 0,
      "note": 60,
      "start": 4.6879,
      "duration": 0.0434,
      "velocity": 127,
      "chip": "ym2612"
    },
    {
      "channel": 0,
      "note": 48,
      "start": 4.7317,
      "duration": 0.0113,
      "velocity": 127,
      "chip": "ym2612"
    },
    {
      "channel": 4,
      "note": 53,
      "start": 4.7344,
      "duration": 0.1895,
      "velocity": 106,
      "chip": "ym2612"
    },
    {
      "channel": 0,
      "note": 48,
      "start": 4.7434,
      "duration": 0.0102,
      "velocity": 127,
      "chip": "ym2612"
    },
    {
      "channel": 0,
      "note": 48,
      "start": 4.7638,
      "duration": 0.0123,
      "velocity": 127,
      "chip": "ym2612"
    },
    {
      "channel": 0,
      "note": 60,
      "start": 4.7763,
      "duration": 0.0764,
      "velocity": 127,
      "chip": "ym2612"
    },
    {
      "channel": 0,
      "note": 55,
      "start": 4.8531,
      "duration": 0.0059,
      "velocity": 127,
      "chip": "ym2612"
    },
    {
      "channel": 0,
      "note": 58,
      "start": 4.8592,
      "duration": 0.0177,
      "velocity": 127,
      "chip": "ym2612"
    },
    {
      "channel": 1,
      "note": 68,
      "start": 4.8596,
      "duration": 0.0177,
      "velocity": 115,
      "chip": "ym2612"
    },
    {
      "channel": 3,
      "note": 68,
      "start": 4.8616,
      "duration": 0.0179,
      "velocity": 127,
      "chip": "ym2612"
    },
    {
      "channel": 2,
      "note": 68,
      "start": 4.8692,
      "duration": 0.0177,
      "velocity": 115,
      "chip": "ym2612"
    },
    {
      "channel": 0,
      "note": 60,
      "start": 4.8772,
      "duration": 0.0439,
      "velocity": 127,
      "chip": "ym2612"
    },
    {
      "channel": 1,
      "note": 77,
      "start": 4.8776,
      "duration": 0.0607,
      "velocity": 115,
      "chip": "ym2612"
    },
    {
      "channel": 3,
      "note": 77,
      "start": 4.8798,
      "duration": 0.0604,
      "velocity": 127,
      "chip": "ym2612"
    },
    {
      "channel": 2,
      "note": 77,
      "start": 4.8873,
      "duration": 0.0593,
      "velocity": 115,
      "chip": "ym2612"
    },
    {
      "channel": 0,
      "note": 48,
      "start": 4.9215,
      "duration": 0.0107,
      "velocity": 127,
      "chip": "ym2612"
    },
    {
      "channel": 4,
      "note": 51,
      "start": 4.9241,
      "duration": 0.2999,
      "velocity": 106,
      "chip": "ym2612"
    },
    {
      "channel": 0,
      "note": 48,
      "start": 4.9327,
      "duration": 0.0102,
      "velocity": 127,
      "chip": "ym2612"
    },
    {
      "channel": 1,
      "note": 79,
      "start": 4.9385,
      "duration": 0.0144,
      "velocity": 115,
      "chip": "ym2612"
    },
    {
      "channel": 3,
      "note": 79,
      "start": 4.9404,
      "duration": 0.0145,
      "velocity": 127,
      "chip": "ym2612"
    },
    {
      "channel": 2,
      "note": 79,
      "start": 4.947,
      "duration": 0.0161,
      "velocity": 115,
      "chip": "ym2612"
    },
    {
      "channel": 0,
      "note": 55,
      "start": 4.9529,
      "duration": 0.0123,
      "velocity": 127,
      "chip": "ym2612"
    },
    {
      "channel": 1,
      "note": 75,
      "start": 4.9532,
      "duration": 0.2856,
      "velocity": 115,
      "chip": "ym2612"
    },
    {
      "channel": 3,
      "note": 75,
      "start": 4.9552,
      "duration": 0.2856,
      "velocity": 127,
      "chip": "ym2612"
    },
    {
      "channel": 2,
      "note": 75,
      "start": 4.9633,
      "duration": 0.2838,
      "velocity": 115,
      "chip": "ym2612"
    },
    {
      "channel": 0,
      "note": 60,
      "start": 4.9654,
      "duration": 0.0766,
      "velocity": 127,
      "chip": "ym2612"
    },
    {
      "channel": 0,
      "note": 55,
      "start": 5.0423,
      "duration": 0.1165,
      "velocity": 127,
      "chip": "ym2612"
    },
    {
      "channel": 0,
      "note": 58,
      "start": 5.1591,
      "duration": 0.018,
      "velocity": 127,
      "chip": "ym2612"
    },
    {
      "channel": 0,
      "note": 60,
      "start": 5.1774,
      "duration": 0.0437,
      "velocity": 127,
      "chip": "ym2612"
    },
    {
      "channel": 0,
      "note": 48,
      "start": 5.2215,
      "duration": 0.0109,
      "velocity": 127,
      "chip": "ym2612"
    },
    {
      "channel": 4,
      "note": 53,
      "start": 5.2241,
      "duration": 0.1893,
      "velocity": 106,
      "chip": "ym2612"
    },
    {
      "channel": 0,
      "note": 48,
      "start": 5.2328,
      "duration": 0.0108,
      "velocity": 127,
      "chip": "ym2612"
    },
    {
      "channel": 1,
      "note": 73,
      "start": 5.239,
      "duration": 0.0144,
      "velocity": 115,
      "chip": "ym2612"
    },
    {
      "channel": 3,
      "note": 73,
      "start": 5.2412,
      "duration": 0.0145,
      "velocity": 127,
      "chip": "ym2612"
    },
    {
      "channel": 2,
      "note": 73,
      "start": 5.2474,
      "duration": 0.0163,
      "velocity": 115,
      "chip": "ym2612"
    },
    {
      "channel": 0,
      "note": 55,
      "start": 5.2534,
      "duration": 0.0124,
      "velocity": 127,
      "chip": "ym2612"
    },
    {
      "channel": 1,
      "note": 72,
      "start": 5.2537,
      "duration": 0.0123,
      "velocity": 115,
      "chip": "ym2612"
    },
    {
      "channel": 3,
      "note": 72,
      "start": 5.2559,
      "duration": 0.0123,
      "velocity": 127,
      "chip": "ym2612"
    },
    {
      "channel": 2,
      "note": 72,
      "start": 5.2639,
      "duration": 0.046,
      "velocity": 115,
      "chip": "ym2612"
    },
    {
      "channel": 0,
      "note": 60,
      "start": 5.266,
      "duration": 0.077,
      "velocity": 127,
      "chip": "ym2612"
    },
    {
      "channel": 1,
      "note": 70,
      "start": 5.2663,
      "duration": 0.0832,
      "velocity": 115,
      "chip": "ym2612"
    },
    {
      "channel": 3,
      "note": 70,
      "start": 5.2684,
      "duration": 0.0831,
      "velocity": 127,
      "chip": "ym2612"
    },
    {
      "channel": 2,
      "note": 70,
      "start": 5.3103,
      "duration": 0.0489,
      "velocity": 115,
      "chip": "ym2612"
    },
    {
      "channel": 0,
      "note": 55,
      "start": 5.3434,
      "duration": 0.0058,
      "velocity": 127,
      "chip": "ym2612"
    },
    {
      "channel": 0,
      "note": 58,
      "start": 5.3494,
      "duration": 0.0172,
      "velocity": 127,
      "chip": "ym2612"
    },
    {
      "channel": 1,
      "note": 68,
      "start": 5.3496,
      "duration": 0.0173,
      "velocity": 115,
      "chip": "ym2612"
    },
    {
      "channel": 3,
      "note": 68,
      "start": 5.3517,
      "duration": 0.0176,
      "velocity": 127,
      "chip": "ym2612"
    },
    {
      "channel": 2,
      "note": 68,
      "start": 5.3594,
      "duration": 0.0171,
      "velocity": 115,
      "chip": "ym2612"
    },
    {
      "channel": 0,
      "note": 60,
      "start": 5.3668,
      "duration": 0.0439,
      "velocity": 127,
      "chip": "ym2612"
    },
    {
      "channel": 1,
      "note": 73,
      "start": 5.3672,
      "duration": 0.0607,
      "velocity": 115,
      "chip": "ym2612"
    },
    {
      "channel": 3,
      "note": 73,
      "start": 5.3695,
      "duration": 0.0603,
      "velocity": 127,
      "chip": "ym2612"
    },
    {
      "channel": 2,
      "note": 73,
      "start": 5.3768,
      "duration": 0.0594,
      "velocity": 115,
      "chip": "ym2612"
    },
    {
      "channel": 0,
      "note": 48,
      "start": 5.411,
      "duration": 0.0107,
      "velocity": 127,
      "chip": "ym2612"
    },
    {
      "channel": 4,
      "note": 55,
      "start": 5.4137,
      "duration": 0.1886,
      "velocity": 106,
      "chip": "ym2612"
    },
    {
      "channel": 0,
      "note": 48,
      "start": 5.4222,
      "duration": 0.0104,
      "velocity": 127,
      "chip": "ym2612"
    },
    {
      "channel": 1,
      "note": 72,
      "start": 5.4281,
      "duration": 0.0142,
      "velocity": 115,
      "chip": "ym2612"
    },
    {
      "channel": 3,
      "note": 72,
      "start": 5.43,
      "duration": 0.0145,
      "velocity": 127,
      "chip": "ym2612"
    },
    {
      "channel": 2,
      "note": 72,
      "start": 5.4365,
      "duration": 0.0162,
      "velocity": 115,
      "chip": "ym2612"
    },
    {
      "channel": 0,
      "note": 55,
      "start": 5.4423,
      "duration": 0.0124,
      "velocity": 127,
      "chip": "ym2612"
    },
    {
      "channel": 1,
      "note": 67,
      "start": 5.4425,
      "duration": 0.4979,
      "velocity": 115,
      "chip": "ym2612"
    },
    {
      "channel": 3,
      "note": 67,
      "start": 5.4447,
      "duration": 0.498,
      "velocity": 127,
      "chip": "ym2612"
    },
    {
      "channel": 2,
      "note": 67,
      "start": 5.4529,
      "duration": 0.4963,
      "velocity": 115,
      "chip": "ym2612"
    },
    {
      "channel": 0,
      "note": 60,
      "start": 5.4549,
      "duration": 0.0767,
      "velocity": 127,
      "chip": "ym2612"
    },
    {
      "channel": 0,
      "note": 55,
      "start": 5.532,
      "duration": 0.0057,
      "velocity": 127,
      "chip": "ym2612"
    },
    {
      "channel": 0,
      "note": 58,
      "start": 5.538,
      "duration": 0.0174,
      "velocity": 127,
      "chip": "ym2612"
    },
    {
      "channel": 0,
      "note": 60,
      "start": 5.5557,
      "duration": 0.0437,
      "velocity": 127,
      "chip": "ym2612"
    },
    {
      "channel": 0,
      "note": 48,
      "start": 5.5998,
      "duration": 0.011,
      "velocity": 127,
      "chip": "ym2612"
    },
    {
      "channel": 4,
      "note": 53,
      "start": 5.6025,
      "duration": 0.0166,
      "velocity": 106,
      "chip": "ym2612"
    },
    {
      "channel": 0,
      "note": 48,
      "start": 5.6112,
      "duration": 0.0107,
      "velocity": 127,
      "chip": "ym2612"
    },
    {
      "channel": 4,
      "note": 51,
      "start": 5.6194,
      "duration": 0.0893,
      "velocity": 106,
      "chip": "ym2612"
    },
    {
      "channel": 0,
      "note": 55,
      "start": 5.6319,
      "duration": 0.0427,
      "velocity": 127,
      "chip": "ym2612"
    },
    {
      "channel": 0,
      "note": 63,
      "start": 5.6749,
      "duration": 0.1999,
      "velocity": 127,
      "chip": "ym2612"
    },
    {
      "channel": 4,
      "note": 49,
      "start": 5.7091,
      "duration": 0.1748,
      "velocity": 106,
      "chip": "ym2612"
    },
    {
      "channel": 0,
      "note": 53,
      "start": 5.8751,
      "duration": 0.0061,
      "velocity": 127,
      "chip": "ym2612"
    },
    {
      "channel": 0,
      "note": 61,
      "start": 5.8816,
      "duration": 0.0158,
      "velocity": 127,
      "chip": "ym2612"
    },
    {
      "channel": 4,
      "note": 48,
      "start": 5.884,
      "duration": 0.0591,
      "velocity": 106,
      "chip": "ym2612"
    },
    {
      "channel": 0,
      "note": 58,
      "start": 5.8976,
      "duration": 0.0424,
      "velocity": 127,
      "chip": "ym2612"
    },
    {
      "channel": 0,
      "note": 48,
      "start": 5.9404,
      "duration": 0.0105,
      "velocity": 127,
      "chip": "ym2612"
    },
    {
      "channel": 1,
      "note": 72,
      "start": 5.9408,
      "duration": 0.0296,
      "velocity": 115,
      "chip": "ym2612"
    },
    {
      "channel": 3,
      "note": 72,
      "start": 5.943,
      "duration": 0.0292,
      "velocity": 127,
      "chip": "ym2612"
    },
    {
      "channel": 4,
      "note": 67,
      "start": 5.9433,
      "duration": 0.005,
      "velocity": 106,
      "chip": "ym2612"
    },
    {
      "channel": 2,
      "note": 72,
      "start": 5.9495,
      "duration": 0.0312,
      "velocity": 115,
      "chip": "ym2612"
    },
    {
      "channel": 0,
      "note": 48,
      "start": 5.9513,
      "duration": 0.0093,
      "velocity": 127,
      "chip": "ym2612"
    },
    {
      "channel": 4,
      "note": 72,
      "start": 5.9538,
      "duration": 0.0046,
      "velocity": 106,
      "chip": "ym2612"
    },
    {
      "channel": 4,
      "note": 75,
      "start": 5.9634,
      "duration": 0.0047,
      "velocity": 106,
      "chip": "ym2612"
    },
    {
      "channel": 0,
      "note": 55,
      "start": 5.9703,
      "duration": 0.0122,
      "velocity": 127,
      "chip": "ym2612"
    },
    {
      "channel": 1,
      "note": 84,
      "start": 5.9707,
      "duration": 0.2879,
      "velocity": 115,
      "chip": "ym2612"
    },
    {
      "channel": 3,
      "note": 84,
      "start": 5.9724,
      "duration": 0.2884,
      "velocity": 127,
      "chip": "ym2612"
    },
    {
      "channel": 4,
      "note": 67,
      "start": 5.9728,
      "duration": 0.0065,
      "velocity": 106,
      "chip": "ym2612"
    },
    {
      "channel": 4,
      "note": 72,
      "start": 5.9795,
      "duration": 0.0053,
      "velocity": 106,
      "chip": "ym2612"
    },
    {
      "channel": 2,
      "note": 84,
      "start": 5.9809,
      "duration": 0.2864,
      "velocity": 115,
      "chip": "ym2612"
    },
    {
      "channel": 0,
      "note": 60,
      "start": 5.9828,
      "duration": 0.0763,
      "velocity": 127,
      "chip": "ym2612"
    },
    {
      "channel": 4,
      "note": 75,
      "start": 5.9937,
      "duration": 0.0997,
      "velocity": 106,
      "chip": "ym2612"
    },
    {
      "channel": 0,
      "note": 53,
      "start": 6.0595,
      "duration": 0.1165,
      "velocity": 127,
      "chip": "ym2612"
    },
    {
      "channel": 0,
      "note": 58,
      "start": 6.1763,
      "duration": 0.0177,
      "velocity": 127,
      "chip": "ym2612"
    },
    {
      "channel": 4,
      "note": 67,
      "start": 6.1787,
      "duration": 0.0059,
      "velocity": 106,
      "chip": "ym2612"
    },
    {
      "channel": 4,
      "note": 72,
      "start": 6.185,
      "duration": 0.0065,
      "velocity": 106,
      "chip": "ym2612"
    },
    {
      "channel": 0,
      "note": 60,
      "start": 6.1943,
      "duration": 0.043,
      "velocity": 127,
      "chip": "ym2612"
    },
    {
      "channel": 4,
      "note": 75,
      "start": 6.1968,
      "duration": 0.0055,
      "velocity": 106,
      "chip": "ym2612"
    },
    {
      "channel": 0,
      "note": 48,
      "start": 6.2376,
      "duration": 0.0108,
      "velocity": 127,
      "chip": "ym2612"
    },
    {
      "channel": 4,
      "note": 68,
      "start": 6.24,
      "duration": 0.0058,
      "velocity": 106,
      "chip": "ym2612"
    },
    {
      "channel": 0,
      "note": 48,
      "start": 6.2488,
      "duration": 0.0096,
      "velocity": 127,
      "chip": "ym2612"
    },
    {
      "channel": 4,
      "note": 73,
      "start": 6.2514,
      "duration": 0.0053,
      "velocity": 106,
      "chip": "ym2612"
    },
    {
      "channel": 1,
      "note": 72,
      "start": 6.259,
      "duration": 0.0219,
      "velocity": 115,
      "chip": "ym2612"
    },
    {
      "channel": 3,
      "note": 72,
      "start": 6.2611,
      "duration": 0.0218,
      "velocity": 127,
      "chip": "ym2612"
    },
    {
      "channel": 4,
      "note": 75,
      "start": 6.2615,
      "duration": 0.0049,
      "velocity": 106,
      "chip": "ym2612"
    },
    {
      "channel": 2,
      "note": 72,
      "start": 6.2676,
      "duration": 0.0571,
      "velocity": 115,
      "chip": "ym2612"
    },
    {
      "channel": 0,
      "note": 55,
      "start": 6.2686,
      "duration": 0.0119,
      "velocity": 127,
      "chip": "ym2612"
    },
    {
      "channel": 4,
      "note": 68,
      "start": 6.271,
      "duration": 0.0063,
      "velocity": 106,
      "chip": "ym2612"
    },
    {
      "channel": 4,
      "note": 73,
      "start": 6.2775,
      "duration": 0.0058,
      "velocity": 106,
      "chip": "ym2612"
    },
    {
      "channel": 0,
      "note": 60,
      "start": 6.2807,
      "duration": 0.077,
      "velocity": 127,
      "chip": "ym2612"
    },
    {
      "channel": 1,
      "note": 73,
      "start": 6.2811,
      "duration": 0.0824,
      "velocity": 115,
      "chip": "ym2612"
    },
    {
      "channel": 3,
      "note": 73,
      "start": 6.2832,
      "duration": 0.0819,
      "velocity": 127,
      "chip": "ym2612"
    },
    {
      "channel": 4,
      "note": 75,
      "start": 6.2921,
      "duration": 0.0685,
      "velocity": 106,
      "chip": "ym2612"
    },
    {
      "channel": 2,
      "note": 73,
      "start": 6.325,
      "duration": 0.048,
      "velocity": 115,
      "chip": "ym2612"
    },
    {
      "channel": 0,
      "note": 55,
      "start": 6.3581,
      "duration": 0.0051,
      "velocity": 127,
      "chip": "ym2612"
    },
    {
      "channel": 0,
      "note": 58,
      "start": 6.3634,
      "duration": 0.0167,
      "velocity": 127,
      "chip": "ym2612"
    },
    {
      "channel": 1,
      "note": 84,
      "start": 6.3636,
      "duration": 0.0168,
      "velocity": 115,
      "chip": "ym2612"
    },
    {
      "channel": 3,
      "note": 84,
      "start": 6.3654,
      "duration": 0.017,
      "velocity": 127,
      "chip": "ym2612"
    },
    {
      "channel": 4,
      "note": 68,
      "start": 6.3657,
      "duration": 0.0055,
      "velocity": 106,
      "chip": "ym2612"
    },
    {
      "channel": 4,
      "note": 73,
      "start": 6.3715,
      "duration": 0.0061,
      "velocity": 106,
      "chip": "ym2612"
    },
    {
      "channel": 2,
      "note": 84,
      "start": 6.3732,
      "duration": 0.0163,
      "velocity": 115,
      "chip": "ym2612"
    },
    {
      "channel": 0,
      "note": 60,
      "start": 6.3804,
      "duration": 0.0432,
      "velocity": 127,
      "chip": "ym2612"
    },
    {
      "channel": 1,
      "note": 82,
      "start": 6.3807,
      "duration": 0.0433,
      "velocity": 115,
      "chip": "ym2612"
    },
    {
      "channel": 3,
      "note": 82,
      "start": 6.3826,
      "duration": 0.0434,
      "velocity": 127,
      "chip": "ym2612"
    },
    {
      "channel": 4,
      "note": 75,
      "start": 6.3829,
      "duration": 0.0052,
      "velocity": 106,
      "chip": "ym2612"
    },
    {
      "channel": 2,
      "note": 82,
      "start": 6.3898,
      "duration": 0.043,
      "velocity": 115,
      "chip": "ym2612"
    },
    {
      "channel": 0,
      "note": 48,
      "start": 6.4239,
      "duration": 0.0106,
      "velocity": 127,
      "chip": "ym2612"
    },
    {
      "channel": 1,
      "note": 80,
      "start": 6.4244,
      "duration": 0.016,
      "velocity": 115,
      "chip": "ym2612"
    },
    {
      "channel": 3,
      "note": 80,
      "start": 6.4261,
      "duration": 0.016,
      "velocity": 127,
      "chip": "ym2612"
    },
    {
      "channel": 4,
      "note": 67,
      "start": 6.4264,
      "duration": 0.0055,
      "velocity": 106,
      "chip": "ym2612"
    },
    {
      "channel": 2,
      "note": 80,
      "start": 6.4332,
      "duration": 0.0146,
      "velocity": 115,
      "chip": "ym2612"
    },
    {
      "channel": 0,
      "note": 48,
      "start": 6.4349,
      "duration": 0.0092,
      "velocity": 127,
      "chip": "ym2612"
    },
    {
      "channel": 4,
      "note": 72,
      "start": 6.4374,
      "duration": 0.005,
      "velocity": 106,
      "chip": "ym2612"
    },
    {
      "channel": 1,
      "note": 79,
      "start": 6.4406,
      "duration": 0.0132,
      "velocity": 115,
      "chip": "ym2612"
    },
    {
      "channel": 3,
      "note": 79,
      "start": 6.4424,
      "duration": 0.0134,
      "velocity": 127,
      "chip": "ym2612"
    },
    {
      "channel": 4,
      "note": 75,
      "start": 6.4467,
      "duration": 0.0049,
      "velocity": 106,
      "chip": "ym2612"
    },
    {
      "channel": 2,
      "note": 79,
      "start": 6.4481,
      "duration": 0.0164,
      "velocity": 115,
      "chip": "ym2612"
    },
    {
      "channel": 0,
      "note": 55,
      "start": 6.4537,
      "duration": 0.0129,
      "velocity": 127,
      "chip": "ym2612"
    },
    {
      "channel": 1,
      "note": 70,
      "start": 6.4541,
      "duration": 0.4874,
      "velocity": 115,
      "chip": "ym2612"
    },
    {
      "channel": 3,
      "note": 70,
      "start": 6.4561,
      "duration": 0.4872,
      "velocity": 127,
      "chip": "ym2612"
    },
    {
      "channel": 4,
      "note": 67,
      "start": 6.4564,
      "duration": 0.0067,
      "velocity": 106,
      "chip": "ym2612"
    },
    {
      "channel": 4,
      "note": 72,
      "start": 6.4634,
      "duration": 0.0059,
      "velocity": 106,
      "chip": "ym2612"
    },
    {
      "channel": 2,
      "note": 70,
      "start": 6.4648,
      "duration": 0.4864,
      "velocity": 115,
      "chip": "ym2612"
    },
    {
      "channel": 0,
      "note": 60,
      "start": 6.467,
      "duration": 0.0763,
      "velocity": 127,
      "chip": "ym2612"
    },
    {
      "channel": 4,
      "note": 75,
      "start": 6.4778,
      "duration": 0.0997,
      "velocity": 106,
      "chip": "ym2612"
    },
    {
      "channel": 0,
      "note": 53,
      "start": 6.5437,
      "duration": 0.1162,
      "velocity": 127,
      "chip": "ym2612"
    },
    {
      "channel": 0,
      "note": 58,
      "start": 6.6603,
      "duration": 0.1118,
      "velocity": 127,
      "chip": "ym2612"
    },
    {
      "channel": 4,
      "note": 67,
      "start": 6.6945,
      "duration": 0.0685,
      "velocity": 106,
      "chip": "ym2612"
    },
    {
      "channel": 4,
      "note": 72,
      "start": 6.7632,
      "duration": 0.0064,
      "velocity": 106,
      "chip": "ym2612"
    },
    {
      "channel": 0,
      "note": 60,
      "start": 6.7723,
      "duration": 0.0434,
      "velocity": 127,
      "chip": "ym2612"
    },
    {
      "channel": 4,
      "note": 75,
      "start": 6.7747,
      "duration": 0.0056,
      "velocity": 106,
      "chip": "ym2612"
    },
    {
      "channel": 0,
      "note": 48,
      "start": 6.816,
      "duration": 0.0108,
      "velocity": 127,
      "chip": "ym2612"
    },
    {
      "channel": 4,
      "note": 68,
      "start": 6.8185,
      "duration": 0.0058,
      "velocity": 106,
      "chip": "ym2612"
    },
    {
      "channel": 0,
      "note": 48,
      "start": 6.8272,
      "duration": 0.0096,
      "velocity": 127,
      "chip": "ym2612"
    },
    {
      "channel": 4,
      "note": 73,
      "start": 6.8299,
      "duration": 0.0053,
      "velocity": 106,
      "chip": "ym2612"
    },
    {
      "channel": 4,
      "note": 75,
      "start": 6.8397,
      "duration": 0.0049,
      "velocity": 106,
      "chip": "ym2612"
    },
    {
      "channel": 0,
      "note": 55,
      "start": 6.8467,
      "duration": 0.0123,
      "velocity": 127,
      "chip": "ym2612"
    },
    {
      "channel": 4,
      "note": 68,
      "start": 6.8491,
      "duration": 0.0065,
      "velocity": 106,
      "chip": "ym2612"
    },
    {
      "channel": 4,
      "note": 73,
      "start": 6.8559,
      "duration": 0.0055,
      "velocity": 106,
      "chip": "ym2612"
    },
    {
      "channel": 0,
      "note": 60,
      "start": 6.8592,
      "duration": 0.0764,
      "velocity": 127,
      "chip": "ym2612"
    },
    {
      "channel": 4,
      "note": 75,
      "start": 6.87,
      "duration": 0.0685,
      "velocity": 106,
      "chip": "ym2612"
    },
    {
      "channel": 0,
      "note": 53,
      "start": 6.936,
      "duration": 0.0053,
      "velocity": 127,
      "chip": "ym2612"
    },
    {
      "channel": 0,
      "note": 58,
      "start": 6.9415,
      "duration": 0.0173,
      "velocity": 127,
      "chip": "ym2612"
    },
    {
      "channel": 1,
      "note": 68,
      "start": 6.9418,
      "duration": 0.0172,
      "velocity": 115,
      "chip": "ym2612"
    },
    {
      "channel": 3,
      "note": 68,
      "start": 6.9435,
      "duration": 0.0174,
      "velocity": 127,
      "chip": "ym2612"
    },
    {
      "channel": 4,
      "note": 68,
      "start": 6.9438,
      "duration": 0.0056,
      "velocity": 106,
      "chip": "ym2612"
    },
    {
      "channel": 4,
      "note": 73,
      "start": 6.9498,
      "duration": 0.0063,
      "velocity": 106,
      "chip": "ym2612"
    },
    {
      "channel": 2,
      "note": 68,
      "start": 6.9515,
      "duration": 0.0169,
      "velocity": 115,
      "chip": "ym2612"
    },
    {
      "channel": 0,
      "note": 60,
      "start": 6.959,
      "duration": 0.0435,
      "velocity": 127,
      "chip": "ym2612"
    },
    {
      "channel": 1,
      "note": 73,
      "start": 6.9593,
      "duration": 0.0601,
      "velocity": 115,
      "chip": "ym2612"
    },
    {
      "channel": 3,
      "note": 73,
      "start": 6.9612,
      "duration": 0.0602,
      "velocity": 127,
      "chip": "ym2612"
    },
    {
      "channel": 4,
      "note": 75,
      "start": 6.9615,
      "duration": 0.0055,
      "velocity": 106,
      "chip": "ym2612"
    },
    {
      "channel": 2,
      "note": 73,
      "start": 6.9688,
      "duration": 0.0583,
      "velocity": 115,
      "chip": "ym2612"
    },
    {
      "channel": 0,
      "note": 48,
      "start": 7.0028,
      "duration": 0.0106,
      "velocity": 127,
      "chip": "ym2612"
    },
    {
      "channel": 4,
      "note": 67,
      "start": 7.0053,
      "duration": 0.0056,
      "velocity": 106,
      "chip": "ym2612"
    },
    {
      "channel": 0,
      "note": 48,
      "start": 7.0138,
      "duration": 0.0098,
      "velocity": 127,
      "chip": "ym2612"
    },
    {
      "channel": 4,
      "note": 72,
      "start": 7.0164,
      "duration": 0.0054,
      "velocity": 106,
      "chip": "ym2612"
    },
    {
      "channel": 1,
      "note": 72,
      "start": 7.0197,
      "duration": 0.0134,
      "velocity": 115,
      "chip": "ym2612"
    },
    {
      "channel": 3,
      "note": 72,
      "start": 7.0217,
      "duration": 0.0134,
      "velocity": 127,
      "chip": "ym2612"
    },
    {
      "channel": 4,
      "note": 75,
      "start": 7.0261,
      "duration": 0.0048,
      "velocity": 106,
      "chip": "ym2612"
    },
    {
      "channel": 2,
      "note": 72,
      "start": 7.0273,
      "duration": 0.0165,
      "velocity": 115,
      "chip": "ym2612"
    },
    {
      "channel": 0,
      "note": 55,
      "start": 7.0331,
      "duration": 0.0129,
      "velocity": 127,
      "chip": "ym2612"
    },
    {
      "channel": 1,
      "note": 79,
      "start": 7.0334,
      "duration": 0.2064,
      "velocity": 115,
      "chip": "ym2612"
    },
    {
      "channel": 3,
      "note": 79,
      "start": 7.0354,
      "duration": 0.2066,
      "velocity": 127,
      "chip": "ym2612"
    },
    {
      "channel": 4,
      "note": 67,
      "start": 7.0358,
      "duration": 0.0067,
      "velocity": 106,
      "chip": "ym2612"
    },
    {
      "channel": 4,
      "note": 72,
      "start": 7.0427,
      "duration": 0.0059,
      "velocity": 106,
      "chip": "ym2612"
    },
    {
      "channel": 2,
      "note": 79,
      "start": 7.0441,
      "duration": 0.2063,
      "velocity": 115,
      "chip": "ym2612"
    },
    {
      "channel": 0,
      "note": 60,
      "start": 7.0463,
      "duration": 0.0763,
      "velocity": 127,
      "chip": "ym2612"
    },
    {
      "channel": 4,
      "note": 75,
      "start": 7.0571,
      "duration": 0.0997,
      "velocity": 106,
      "chip": "ym2612"
    },
    {
      "channel": 0,
      "note": 55,
      "start": 7.123,
      "duration": 0.1165,
      "velocity": 127,
      "chip": "ym2612"
    },
    {
      "channel": 0,
      "note": 58,
      "start": 7.2398,
      "duration": 0.0182,
      "velocity": 127,
      "chip": "ym2612"
    },
    {
      "channel": 1,
      "note": 77,
      "start": 7.2402,
      "duration": 0.018,
      "velocity": 115,
      "chip": "ym2612"
    },
    {
      "channel": 3,
      "note": 77,
      "start": 7.2422,
      "duration": 0.018,
      "velocity": 127,
      "chip": "ym2612"
    },
    {
      "channel": 4,
      "note": 67,
      "start": 7.2425,
      "duration": 0.0061,
      "velocity": 106,
      "chip": "ym2612"
    },
    {
      "channel": 4,
      "note": 72,
      "start": 7.2488,
      "duration": 0.0065,
      "velocity": 106,
      "chip": "ym2612"
    },
    {
      "channel": 2,
      "note": 77,
      "start": 7.2506,
      "duration": 0.0175,
      "velocity": 115,
      "chip": "ym2612"
    },
    {
      "channel": 0,
      "note": 60,
      "start": 7.2582,
      "duration": 0.0439,
      "velocity": 127,
      "chip": "ym2612"
    },
    {
      "channel": 1,
      "note": 82,
      "start": 7.2585,
      "duration": 0.1693,
      "velocity": 115,
      "chip": "ym2612"
    },
    {
      "channel": 3,
      "note": 82,
      "start": 7.2605,
      "duration": 0.1694,
      "velocity": 127,
      "chip": "ym2612"
    },
    {
      "channel": 4,
      "note": 75,
      "start": 7.2609,
      "duration": 0.0057,
      "velocity": 106,
      "chip": "ym2612"
    },
    {
      "channel": 2,
      "note": 82,
      "start": 7.2683,
      "duration": 0.1695,
      "velocity": 115,
      "chip": "ym2612"
    },
    {
      "channel": 0,
      "note": 48,
      "start": 7.3024,
      "duration": 0.0105,
      "velocity": 127,
      "chip": "ym2612"
    },
    {
      "channel": 4,
      "note": 68,
      "start": 7.3049,
      "duration": 0.0056,
      "velocity": 106,
      "chip": "ym2612"
    },
    {
      "channel": 0,
      "note": 48,
      "start": 7.3133,
      "duration": 0.01,
      "velocity": 127,
      "chip": "ym2612"
    },
    {
      "channel": 4,
      "note": 73,
      "start": 7.3159,
      "duration": 0.005,
      "velocity": 106,
      "chip": "ym2612"
    },
    {
      "channel": 4,
      "note": 75,
      "start": 7.3258,
      "duration": 0.0052,
      "velocity": 106,
      "chip": "ym2612"
    },
    {
      "channel": 0,
      "note": 55,
      "start": 7.333,
      "duration": 0.0124,
      "velocity": 127,
      "chip": "ym2612"
    },
    {
      "channel": 4,
      "note": 68,
      "start": 7.3356,
      "duration": 0.0068,
      "velocity": 106,
      "chip": "ym2612"
    },
    {
      "channel": 4,
      "note": 73,
      "start": 7.3426,
      "duration": 0.0051,
      "velocity": 106,
      "chip": "ym2612"
    },
    {
      "channel": 0,
      "note": 60,
      "start": 7.3456,
      "duration": 0.0764,
      "velocity": 127,
      "chip": "ym2612"
    },
    {
      "channel": 4,
      "note": 75,
      "start": 7.3564,
      "duration": 0.0685,
      "velocity": 106,
      "chip": "ym2612"
    },
    {
      "channel": 0,
      "note": 53,
      "start": 7.4225,
      "duration": 0.0051,
      "velocity": 127,
      "chip": "ym2612"
    },
    {
      "channel": 0,
      "note": 58,
      "start": 7.4278,
      "duration": 0.0176,
      "velocity": 127,
      "chip": "ym2612"
    },
    {
      "channel": 1,
      "note": 80,
      "start": 7.4281,
      "duration": 0.0176,
      "velocity": 115,
      "chip": "ym2612"
    },
    {
      "channel": 3,
      "note": 80,
      "start": 7.4301,
      "duration": 0.0176,
      "velocity": 127,
      "chip": "ym2612"
    },
    {
      "channel": 4,
      "note": 68,
      "start": 7.4304,
      "duration": 0.0056,
      "velocity": 106,
      "chip": "ym2612"
    },
    {
      "channel": 4,
      "note": 73,
      "start": 7.4362,
      "duration": 0.0067,
      "velocity": 106,
      "chip": "ym2612"
    },
    {
      "channel": 2,
      "note": 80,
      "start": 7.4381,
      "duration": 0.0169,
      "velocity": 115,
      "chip": "ym2612"
    },
    {
      "channel": 0,
      "note": 60,
      "start": 7.4456,
      "duration": 0.0435,
      "velocity": 127,
      "chip": "ym2612"
    },
    {
      "channel": 1,
      "note": 82,
      "start": 7.446,
      "duration": 0.0436,
      "velocity": 115,
      "chip": "ym2612"
    },
    {
      "channel": 3,
      "note": 82,
      "start": 7.4479,
      "duration": 0.0436,
      "velocity": 127,
      "chip": "ym2612"
    },
    {
      "channel": 4,
      "note": 75,
      "start": 7.4483,
      "duration": 0.0052,
      "velocity": 106,
      "chip": "ym2612"
    },
    {
      "channel": 2,
      "note": 82,
      "start": 7.4554,
      "duration": 0.0429,
      "velocity": 115,
      "chip": "ym2612"
    },
    {
      "channel": 0,
      "note": 48,
      "start": 7.4895,
      "duration": 0.0105,
      "velocity": 127,
      "chip": "ym2612"
    },
    {
      "channel": 1,
      "note": 84,
      "start": 7.4899,
      "duration": 0.0159,
      "velocity": 115,
      "chip": "ym2612"
    },
    {
      "channel": 3,
      "note": 84,
      "start": 7.4917,
      "duration": 0.0159,
      "velocity": 127,
      "chip": "ym2612"
    },
    {
      "channel": 4,
      "note": 67,
      "start": 7.492,
      "duration": 0.0053,
      "velocity": 106,
      "chip": "ym2612"
    },
    {
      "channel": 2,
      "note": 84,
      "start": 7.4985,
      "duration": 0.0146,
      "velocity": 115,
      "chip": "ym2612"
    },
    {
      "channel": 0,
      "note": 48,
      "start": 7.5003,
      "duration": 0.0094,
      "velocity": 127,
      "chip": "ym2612"
    },
    {
      "channel": 4,
      "note": 72,
      "start": 7.5028,
      "duration": 0.0051,
      "velocity": 106,
      "chip": "ym2612"
    },
    {
      "channel": 1,
      "note": 79,
      "start": 7.506,
      "duration": 0.1858,
      "velocity": 115,
      "chip": "ym2612"
    },
    {
      "channel": 3,
      "note": 79,
      "start": 7.5079,
      "duration": 0.1861,
      "velocity": 127,
      "chip": "ym2612"
    },
    {
      "channel": 4,
      "note": 75,
      "start": 7.5122,
      "duration": 0.0049,
      "velocity": 106,
      "chip": "ym2612"
    },
    {
      "channel": 2,
      "note": 79,
      "start": 7.5134,
      "duration": 0.1862,
      "velocity": 115,
      "chip": "ym2612"
    },
    {
      "channel": 0,
      "note": 55,
      "start": 7.5193,
      "duration": 0.0126,
      "velocity": 127,
      "chip": "ym2612"
    },
    {
      "channel": 4,
      "note": 67,
      "start": 7.5216,
      "duration": 0.0071,
      "velocity": 106,
      "chip": "ym2612"
    },
    {
      "channel": 4,
      "note": 72,
      "start": 7.5289,
      "duration": 0.0052,
      "velocity": 106,
      "chip": "ym2612"
    },
    {
      "channel": 0,
      "note": 60,
      "start": 7.5321,
      "duration": 0.0761,
      "velocity": 127,
      "chip": "ym2612"
    },
    {
      "channel": 4,
      "note": 75,
      "start": 7.5425,
      "duration": 0.0685,
      "velocity": 106,
      "chip": "ym2612"
    },
    {
      "channel": 0,
      "note": 55,
      "start": 7.6085,
      "duration": 0.0054,
      "velocity": 127,
      "chip": "ym2612"
    },
    {
      "channel": 0,
      "note": 58,
      "start": 7.6141,
      "duration": 0.0171,
      "velocity": 127,
      "chip": "ym2612"
    },
    {
      "channel": 4,
      "note": 67,
      "start": 7.6163,
      "duration": 0.0061,
      "velocity": 106,
      "chip": "ym2612"
    },
    {
      "channel": 4,
      "note": 72,
      "start": 7.6226,
      "duration": 0.0061,
      "velocity": 106,
      "chip": "ym2612"
    },
    {
      "channel": 0,
      "note": 60,
      "start": 7.6315,
      "duration": 0.0433,
      "velocity": 127,
      "chip": "ym2612"
    },
    {
      "channel": 4,
      "note": 75,
      "start": 7.634,
      "duration": 0.0054,
      "velocity": 106,
      "chip": "ym2612"
    },
    {
      "channel": 0,
      "note": 48,
      "start": 7.6751,
      "duration": 0.0105,
      "velocity": 127,
      "chip": "ym2612"
    },
    {
      "channel": 4,
      "note": 68,
      "start": 7.6775,
      "duration": 0.0057,
      "velocity": 106,
      "chip": "ym2612"
    },
    {
      "channel": 0,
      "note": 48,
      "start": 7.6859,
      "duration": 0.0101,
      "velocity": 127,
      "chip": "ym2612"
    },
    {
      "channel": 4,
      "note": 73,
      "start": 7.6883,
      "duration": 0.0059,
      "velocity": 106,
      "chip": "ym2612"
    },
    {
      "channel": 1,
      "note": 77,
      "start": 7.6921,
      "duration": 0.0135,
      "velocity": 115,
      "chip": "ym2612"
    },
    {
      "channel": 3,
      "note": 77,
      "start": 7.6942,
      "duration": 0.0132,
      "velocity": 127,
      "chip": "ym2612"
    },
    {
      "channel": 4,
      "note": 75,
      "start": 7.6985,
      "duration": 0.005,
      "velocity": 106,
      "chip": "ym2612"
    },
    {
      "channel": 2,
      "note": 77,
      "start": 7.6998,
      "duration": 0.0149,
      "velocity": 115,
      "chip": "ym2612"
    },
    {
      "channel": 0,
      "note": 55,
      "start": 7.7055,
      "duration": 0.0442,
      "velocity": 127,
      "chip": "ym2612"
    },
    {
      "channel": 1,
      "note": 82,
      "start": 7.7058,
      "duration": 0.0443,
      "velocity": 115,
      "chip": "ym2612"
    },
    {
      "channel": 3,
      "note": 82,
      "start": 7.7076,
      "duration": 0.0452,
      "velocity": 127,
      "chip": "ym2612"
    },
    {
      "channel": 4,
      "note": 68,
      "start": 7.7079,
      "duration": 0.0051,
      "velocity": 106,
      "chip": "ym2612"
    },
    {
      "channel": 4,
      "note": 73,
      "start": 7.7134,
      "duration": 0.0397,
      "velocity": 106,
      "chip": "ym2612"
    },
    {
      "channel": 2,
      "note": 82,
      "start": 7.7151,
      "duration": 0.0441,
      "velocity": 115,
      "chip": "ym2612"
    },
    {
      "channel": 0,
      "note": 63,
      "start": 7.75,
      "duration": 0.0106,
      "velocity": 127,
      "chip": "ym2612"
    },
    {
      "channel": 1,
      "note": 80,
      "start": 7.7504,
      "duration": 0.0164,
      "velocity": 115,
      "chip": "ym2612"
    },
    {
      "channel": 3,
      "note": 80,
      "start": 7.753,
      "duration": 0.0172,
      "velocity": 127,
      "chip": "ym2612"
    },
    {
      "channel": 4,
      "note": 75,
      "start": 7.7578,
      "duration": 0.0057,
      "velocity": 106,
      "chip": "ym2612"
    },
    {
      "channel": 2,
      "note": 80,
      "start": 7.7595,
      "duration": 0.0185,
      "velocity": 115,
      "chip": "ym2612"
    },
    {
      "channel": 0,
      "note": 53,
      "start": 7.761,
      "duration": 0.0055,
      "velocity": 127,
      "chip": "ym2612"
    },
    {
      "channel": 0,
      "note": 61,
      "start": 7.7668,
      "duration": 0.0184,
      "velocity": 127,
      "chip": "ym2612"
    },
    {
      "channel": 1,
      "note": 79,
      "start": 7.7672,
      "duration": 0.0184,
      "velocity": 115,
      "chip": "ym2612"
    },
    {
      "channel": 3,
      "note": 79,
      "start": 7.7705,
      "duration": 0.0176,
      "velocity": 127,
      "chip": "ym2612"
    },
    {
      "channel": 4,
      "note": 68,
      "start": 7.7707,
      "duration": 0.006,
      "velocity": 106,
      "chip": "ym2612"
    },
    {
      "channel": 4,
      "note": 73,
      "start": 7.7769,
      "duration": 0.0056,
      "velocity": 106,
      "chip": "ym2612"
    },
    {
      "channel": 2,
      "note": 79,
      "start": 7.7783,
      "duration": 0.0178,
      "velocity": 115,
      "chip": "ym2612"
    },
    {
      "channel": 0,
      "note": 58,
      "start": 7.7856,
      "duration": 0.0141,
      "velocity": 127,
      "chip": "ym2612"
    },
    {
      "channel": 1,
      "note": 75,
      "start": 7.786,
      "duration": 0.0155,
      "velocity": 127,
      "chip": "ym2612"
    },
    {
      "channel": 3,
      "note": 75,
      "start": 7.7884,
      "duration": 0.0159,
      "velocity": 100,
      "chip": "ym2612"
    },
    {
      "channel": 4,
      "note": 75,
      "start": 7.7887,
      "duration": 0.0065,
      "velocity": 106,
      "chip": "ym2612"
    },
    {
      "channel": 2,
      "note": 75,
      "start": 7.7964,
      "duration": 0.0171,
      "velocity": 127,
      "chip": "ym2612"
    },
    {
      "channel": 0,
      "note": 40,
      "start": 7.8001,
      "duration": 0.0146,
      "velocity": 127,
      "chip": "ym2612"
    },
    {
      "channel": 1,
      "note": 94,
      "start": 7.8017,
      "duration": 0.298,
      "velocity": 127,
      "chip": "ym2612"
    },
    {
      "channel": 3,
      "note": 82,
      "start": 7.8045,
      "duration": 0.2971,
      "velocity": 100,
      "chip": "ym2612"
    },
    {
      "channel": 4,
      "note": 94,
      "start": 7.8065,
      "duration": 0.0109,
      "velocity": 120,
      "chip": "ym2612"
    },
    {
      "channel": 2,
      "note": 94,
      "start": 7.8137,
      "duration": 0.2948,
      "velocity": 127,
      "chip": "ym2612"
    },
    {
      "channel": 0,
      "note": 40,
      "start": 7.815,
      "duration": 0.0081,
      "velocity": 127,
      "chip": "ym2612"
    },
    {
      "channel": 0,
      "note": 52,
      "start": 7.8234,
      "duration": 0.0112,
      "velocity": 127,
      "chip": "ym2612"
    },
    {
      "channel": 4,
      "note": 94,
      "start": 7.8265,
      "duration": 0.0107,
      "velocity": 120,
      "chip": "ym2612"
    },
    {
      "channel": 0,
      "note": 51,
      "start": 7.8349,
      "duration": 0.0053,
      "velocity": 127,
      "chip": "ym2612"
    },
    {
      "channel": 0,
      "note": 52,
      "start": 7.8406,
      "duration": 0.0095,
      "velocity": 127,
      "chip": "ym2612"
    },
    {
      "channel": 4,
      "note": 94,
      "start": 7.8476,
      "duration": 0.1089,
      "velocity": 120,
      "chip": "ym2612"
    },
    {
      "channel": 0,
      "note": 51,
      "start": 7.8502,
      "duration": 0.072,
      "velocity": 127,
      "chip": "ym2612"
    },
    {
      "channel": 0,
      "note": 40,
      "start": 7.9227,
      "duration": 0.1208,
      "velocity": 127,
      "chip": "ym2612"
    },
    {
      "channel": 0,
      "note": 52,
      "start": 8.0437,
      "duration": 0.0124,
      "velocity": 127,
      "chip": "ym2612"
    },
    {
      "channel": 4,
      "note": 94,
      "start": 8.0466,
      "duration": 0.0122,
      "velocity": 120,
      "chip": "ym2612"
    },
    {
      "channel": 0,
      "note": 51,
      "start": 8.0563,
      "duration": 0.0052,
      "velocity": 127,
      "chip": "ym2612"
    },
    {
      "channel": 0,
      "note": 52,
      "start": 8.0619,
      "duration": 0.0376,
      "velocity": 127,
      "chip": "ym2612"
    },
    {
      "channel": 1,
      "note": 94,
      "start": 8.1,
      "duration": 0.0285,
      "velocity": 127,
      "chip": "ym2612"
    },
    {
      "channel": 3,
      "note": 82,
      "start": 8.1017,
      "duration": 0.0291,
      "velocity": 100,
      "chip": "ym2612"
    },
    {
      "channel": 4,
      "note": 94,
      "start": 8.102,
      "duration": 0.011,
      "velocity": 120,
      "chip": "ym2612"
    },
    {
      "channel": 0,
      "note": 52,
      "start": 8.105,
      "duration": 0.0052,
      "velocity": 127,
      "chip": "ym2612"
    },
    {
      "channel": 2,
      "note": 94,
      "start": 8.1087,
      "duration": 0.0295,
      "velocity": 127,
      "chip": "ym2612"
    },
    {
      "channel": 0,
      "note": 40,
      "start": 8.1105,
      "duration": 0.0085,
      "velocity": 127,
      "chip": "ym2612"
    },
    {
      "channel": 4,
      "note": 94,
      "start": 8.1215,
      "duration": 0.0096,
      "velocity": 120,
      "chip": "ym2612"
    },
    {
      "channel": 0,
      "note": 40,
      "start": 8.1284,
      "duration": 0.0114,
      "velocity": 127,
      "chip": "ym2612"
    },
    {
      "channel": 1,
      "note": 90,
      "start": 8.1288,
      "duration": 0.0966,
      "velocity": 127,
      "chip": "ym2612"
    },
    {
      "channel": 3,
      "note": 78,
      "start": 8.131,
      "duration": 0.0964,
      "velocity": 100,
      "chip": "ym2612"
    },
    {
      "channel": 2,
      "note": 90,
      "start": 8.1384,
      "duration": 0.0952,
      "velocity": 127,
      "chip": "ym2612"
    },
    {
      "channel": 0,
      "note": 52,
      "start": 8.14,
      "duration": 0.0764,
      "velocity": 127,
      "chip": "ym2612"
    },
    {
      "channel": 4,
      "note": 94,
      "start": 8.1419,
      "duration": 0.0772,
      "velocity": 120,
      "chip": "ym2612"
    },
    {
      "channel": 0,
      "note": 51,
      "start": 8.2168,
      "duration": 0.0046,
      "velocity": 127,
      "chip": "ym2612"
    },
    {
      "channel": 0,
      "note": 52,
      "start": 8.2217,
      "duration": 0.0036,
      "velocity": 127,
      "chip": "ym2612"
    },
    {
      "channel": 1,
      "note": 92,
      "start": 8.2257,
      "duration": 0.0527,
      "velocity": 127,
      "chip": "ym2612"
    },
    {
      "channel": 3,
      "note": 80,
      "start": 8.2277,
      "duration": 0.0527,
      "velocity": 100,
      "chip": "ym2612"
    },
    {
      "channel": 4,
      "note": 94,
      "start": 8.2282,
      "duration": 0.0094,
      "velocity": 120,
      "chip": "ym2612"
    },
    {
      "channel": 2,
      "note": 92,
      "start": 8.2339,
      "duration": 0.0532,
      "velocity": 127,
      "chip": "ym2612"
    },
    {
      "channel": 0,
      "note": 52,
      "start": 8.235,
      "duration": 0.043,
      "velocity": 127,
      "chip": "ym2612"
    },
    {
      "channel": 0,
      "note": 39,
      "start": 8.2783,
      "duration": 0.0104,
      "velocity": 127,
      "chip": "ym2612"
    },
    {
      "channel": 1,
      "note": 94,
      "start": 8.2788,
      "duration": 0.015,
      "velocity": 127,
      "chip": "ym2612"
    },
    {
      "channel": 3,
      "note": 82,
      "start": 8.2807,
      "duration": 0.0147,
      "velocity": 100,
      "chip": "ym2612"
    },
    {
      "channel": 4,
      "note": 94,
      "start": 8.281,
      "duration": 0.0104,
      "velocity": 120,
      "chip": "ym2612"
    },
    {
      "channel": 2,
      "note": 94,
      "start": 8.2872,
      "duration": 0.0147,
      "velocity": 127,
      "chip": "ym2612"
    },
    {
      "channel": 0,
      "note": 39,
      "start": 8.2891,
      "duration": 0.0084,
      "velocity": 127,
      "chip": "ym2612"
    },
    {
      "channel": 1,
      "note": 90,
      "start": 8.294,
      "duration": 0.33,
      "velocity": 127,
      "chip": "ym2612"
    },
    {
      "channel": 3,
      "note": 78,
      "start": 8.2957,
      "duration": 0.3303,
      "velocity": 100,
      "chip": "ym2612"
    },
    {
      "channel": 0,
      "note": 51,
      "start": 8.2978,
      "duration": 0.0107,
      "velocity": 127,
      "chip": "ym2612"
    },
    {
      "channel": 4,
      "note": 94,
      "start": 8.3007,
      "duration": 0.0103,
      "velocity": 120,
      "chip": "ym2612"
    },
    {
      "channel": 2,
      "note": 90,
      "start": 8.3022,
      "duration": 0.3305,
      "velocity": 127,
      "chip": "ym2612"
    },
    {
      "channel": 0,
      "note": 49,
      "start": 8.3087,
      "duration": 0.0051,
      "velocity": 127,
      "chip": "ym2612"
    },
    {
      "channel": 0,
      "note": 51,
      "start": 8.3143,
      "duration": 0.0043,
      "velocity": 127,
      "chip": "ym2612"
    },
    {
      "channel": 4,
      "note": 94,
      "start": 8.3203,
      "duration": 0.1086,
      "velocity": 120,
      "chip": "ym2612"
    },
    {
      "channel": 0,
      "note": 51,
      "start": 8.3224,
      "duration": 0.0723,
      "velocity": 127,
      "chip": "ym2612"
    },
    {
      "channel": 0,
      "note": 39,
      "start": 8.395,
      "duration": 0.2164,
      "velocity": 127,
      "chip": "ym2612"
    },
    {
      "channel": 0,
      "note": 51,
      "start": 8.6118,
      "duration": 0.0118,
      "velocity": 127,
      "chip": "ym2612"
    },
    {
      "channel": 4,
      "note": 94,
      "start": 8.6144,
      "duration": 0.012,
      "velocity": 120,
      "chip": "ym2612"
    },
    {
      "channel": 0,
      "note": 49,
      "start": 8.6239,
      "duration": 0.005,
      "velocity": 127,
      "chip": "ym2612"
    },
    {
      "channel": 1,
      "note": 90,
      "start": 8.6243,
      "duration": 0.0426,
      "velocity": 127,
      "chip": "ym2612"
    },
    {
      "channel": 3,
      "note": 78,
      "start": 8.6264,
      "duration": 0.0425,
      "velocity": 100,
      "chip": "ym2612"
    },
    {
      "channel": 0,
      "note": 51,
      "start": 8.6292,
      "duration": 0.0376,
      "velocity": 127,
      "chip": "ym2612"
    },
    {
      "channel": 2,
      "note": 90,
      "start": 8.6329,
      "duration": 0.0428,
      "velocity": 127,
      "chip": "ym2612"
    },
    {
      "channel": 1,
      "note": 89,
      "start": 8.6673,
      "duration": 0.0154,
      "velocity": 127,
      "chip": "ym2612"
    },
    {
      "channel": 3,
      "note": 77,
      "start": 8.6692,
      "duration": 0.0152,
      "velocity": 100,
      "chip": "ym2612"
    },
    {
      "channel": 4,
      "note": 94,
      "start": 8.6695,
      "duration": 0.0107,
      "velocity": 120,
      "chip": "ym2612"
    },
    {
      "channel": 0,
      "note": 51,
      "start": 8.6723,
      "duration": 0.0051,
      "velocity": 127,
      "chip": "ym2612"
    },
    {
      "channel": 2,
      "note": 89,
      "start": 8.676,
      "duration": 0.014,
      "velocity": 127,
      "chip": "ym2612"
    },
    {
      "channel": 0,
      "note": 39,
      "start": 8.6778,
      "duration": 0.0087,
      "velocity": 127,
      "chip": "ym2612"
    },
    {
      "channel": 1,
      "note": 85,
      "start": 8.6829,
      "duration": 0.1643,
      "velocity": 127,
      "chip": "ym2612"
    },
    {
      "channel": 3,
      "note": 73,
      "start": 8.6846,
      "duration": 0.1645,
      "velocity": 100,
      "chip": "ym2612"
    },
    {
      "channel": 4,
      "note": 94,
      "start": 8.689,
      "duration": 0.0096,
      "velocity": 120,
      "chip": "ym2612"
    },
    {
      "channel": 2,
      "note": 85,
      "start": 8.6903,
      "duration": 0.1661,
      "velocity": 127,
      "chip": "ym2612"
    },
    {
      "channel": 0,
      "note": 39,
      "start": 8.6962,
      "duration": 0.0108,
      "velocity": 127,
      "chip": "ym2612"
    },
    {
      "channel": 0,
      "note": 39,
      "start": 8.7072,
      "duration": 0.0818,
      "velocity": 127,
      "chip": "ym2612"
    },
    {
      "channel": 4,
      "note": 94,
      "start": 8.7093,
      "duration": 0.0772,
      "velocity": 120,
      "chip": "ym2612"
    },
    {
      "channel": 0,
      "note": 51,
      "start": 8.7892,
      "duration": 0.0037,
      "velocity": 127,
      "chip": "ym2612"
    },
    {
      "channel": 4,
      "note": 94,
      "start": 8.7955,
      "duration": 0.0101,
      "velocity": 120,
      "chip": "ym2612"
    },
    {
      "channel": 0,
      "note": 39,
      "start": 8.8029,
      "duration": 0.0439,
      "velocity": 127,
      "chip": "ym2612"
    },
    {
      "channel": 0,
      "note": 40,
      "start": 8.8471,
      "duration": 0.0111,
      "velocity": 127,
      "chip": "ym2612"
    },
    {
      "channel": 1,
      "note": 94,
      "start": 8.8476,
      "duration": 0.2394,
      "velocity": 127,
      "chip": "ym2612"
    },
    {
      "channel": 3,
      "note": 82,
      "start": 8.8493,
      "duration": 0.2397,
      "velocity": 100,
      "chip": "ym2612"
    },
    {
      "channel": 4,
      "note": 94,
      "start": 8.8496,
      "duration": 0.0112,
      "velocity": 120,
      "chip": "ym2612"
    },
    {
      "channel": 2,
      "note": 94,
      "start": 8.8566,
      "duration": 0.2377,
      "velocity": 127,
      "chip": "ym2612"
    },
    {
      "channel": 0,
      "note": 40,
      "start": 8.8586,
      "duration": 0.0083,
      "velocity": 127,
      "chip": "ym2612"
    },
    {
      "channel": 0,
      "note": 52,
      "start": 8.8672,
      "duration": 0.0112,
      "velocity": 127,
      "chip": "ym2612"
    },
    {
      "channel": 4,
      "note": 94,
      "start": 8.8702,
      "duration": 0.0107,
      "velocity": 120,
      "chip": "ym2612"
    },
    {
      "channel": 0,
      "note": 51,
      "start": 8.8787,
      "duration": 0.0053,
      "velocity": 127,
      "chip": "ym2612"
    },
    {
      "channel": 0,
      "note": 52,
      "start": 8.8843,
      "duration": 0.0048,
      "velocity": 127,
      "chip": "ym2612"
    },
    {
      "channel": 4,
      "note": 94,
      "start": 8.8909,
      "duration": 0.1089,
      "velocity": 120,
      "chip": "ym2612"
    },
    {
      "channel": 0,
      "note": 52,
      "start": 8.893,
      "duration": 0.0725,
      "velocity": 127,
      "chip": "ym2612"
    },
    {
      "channel": 0,
      "note": 40,
      "start": 8.9659,
      "duration": 0.1208,
      "velocity": 127,
      "chip": "ym2612"
    },
    {
      "channel": 0,
      "note": 52,
      "start": 9.0869,
      "duration": 0.008,
      "velocity": 127,
      "chip": "ym2612"
    },
    {
      "channel": 4,
      "note": 94,
      "start": 9.0894,
      "duration": 0.0077,
      "velocity": 120,
      "chip": "ym2612"
    },
    {
      "channel": 0,
      "note": 51,
      "start": 9.0952,
      "duration": 0.0039,
      "velocity": 127,
      "chip": "ym2612"
    },
    {
      "channel": 1,
      "note": 94,
      "start": 9.0955,
      "duration": 0.0041,
      "velocity": 127,
      "chip": "ym2612"
    },
    {
      "channel": 3,
      "note": 82,
      "start": 9.097,
      "duration": 0.0041,
      "velocity": 100,
      "chip": "ym2612"
    },
    {
      "channel": 0,
      "note": 52,
      "start": 9.0995,
      "duration": 0.0385,
      "velocity": 127,
      "chip": "ym2612"
    },
    {
      "channel": 1,
      "note": 95,
      "start": 9.0998,
      "duration": 0.0383,
      "velocity": 127,
      "chip": "ym2612"
    },
    {
      "channel": 3,
      "note": 83,
      "start": 9.1012,
      "duration": 0.0388,
      "velocity": 100,
      "chip": "ym2612"
    },
    {
      "channel": 2,
      "note": 94,
      "start": 9.1026,
      "duration": 0.0388,
      "velocity": 127,
      "chip": "ym2612"
    },
    {
      "channel": 1,
      "note": 97,
      "start": 9.1385,
      "duration": 0.0155,
      "velocity": 127,
      "chip": "ym2612"
    },
    {
      "channel": 3,
      "note": 85,
      "start": 9.1403,
      "duration": 0.0152,
      "velocity": 100,
      "chip": "ym2612"
    },
    {
      "channel": 4,
      "note": 94,
      "start": 9.1405,
      "duration": 0.0109,
      "velocity": 120,
      "chip": "ym2612"
    },
    {
      "channel": 2,
      "note": 95,
      "start": 9.1416,
      "duration": 0.0054,
      "velocity": 127,
      "chip": "ym2612"
    },
    {
      "channel": 0,
      "note": 52,
      "start": 9.1436,
      "duration": 0.0052,
      "velocity": 127,
      "chip": "ym2612"
    },
    {
      "channel": 2,
      "note": 97,
      "start": 9.1473,
      "duration": 0.0146,
      "velocity": 127,
      "chip": "ym2612"
    },
    {
      "channel": 0,
      "note": 40,
      "start": 9.1492,
      "duration": 0.0083,
      "velocity": 127,
      "chip": "ym2612"
    },
    {
      "channel": 1,
      "note": 95,
      "start": 9.1542,
      "duration": 0.0145,
      "velocity": 127,
      "chip": "ym2612"
    },
    {
      "channel": 3,
      "note": 83,
      "start": 9.1557,
      "duration": 0.0152,
      "velocity": 100,
      "chip": "ym2612"
    },
    {
      "channel": 0,
      "note": 40,
      "start": 9.1578,
      "duration": 0.0209,
      "velocity": 127,
      "chip": "ym2612"
    },
    {
      "channel": 4,
      "note": 94,
      "start": 9.1605,
      "duration": 0.0107,
      "velocity": 120,
      "chip": "ym2612"
    },
    {
      "channel": 2,
      "note": 95,
      "start": 9.1622,
      "duration": 0.0148,
      "velocity": 127,
      "chip": "ym2612"
    },
    {
      "channel": 1,
      "note": 94,
      "start": 9.169,
      "duration": 0.0913,
      "velocity": 127,
      "chip": "ym2612"
    },
    {
      "channel": 3,
      "note": 82,
      "start": 9.1712,
      "duration": 0.0905,
      "velocity": 100,
      "chip": "ym2612"
    },
    {
      "channel": 2,
      "note": 94,
      "start": 9.1772,
      "duration": 0.0898,
      "velocity": 127,
      "chip": "ym2612"
    },
    {
      "channel": 0,
      "note": 52,
      "start": 9.179,
      "duration": 0.0811,
      "velocity": 127,
      "chip": "ym2612"
    },
    {
      "channel": 4,
      "note": 94,
      "start": 9.181,
      "duration": 0.0768,
      "velocity": 120,
      "chip": "ym2612"
    },
    {
      "channel": 0,
      "note": 40,
      "start": 9.2602,
      "duration": 0.0034,
      "velocity": 127,
      "chip": "ym2612"
    },
    {
      "channel": 1,
      "note": 90,
      "start": 9.2604,
      "duration": 0.0126,
      "velocity": 127,
      "chip": "ym2612"
    },
    {
      "channel": 3,
      "note": 78,
      "start": 9.262,
      "duration": 0.0131,
      "velocity": 100,
      "chip": "ym2612"
    },
    {
      "channel": 4,
      "note": 94,
      "start": 9.2661,
      "duration": 0.0094,
      "velocity": 120,
      "chip": "ym2612"
    },
    {
      "channel": 2,
      "note": 90,
      "start": 9.2672,
      "duration": 0.0139,
      "velocity": 127,
      "chip": "ym2612"
    },
    {
      "channel": 0,
      "note": 52,
      "start": 9.273,
      "duration": 0.0429,
      "velocity": 127,
      "chip": "ym2612"
    },
    {
      "channel": 1,
      "note": 94,
      "start": 9.2733,
      "duration": 0.0428,
      "velocity": 127,
      "chip": "ym2612"
    },
    {
      "channel": 3,
      "note": 82,
      "start": 9.2755,
      "duration": 0.0426,
      "velocity": 100,
      "chip": "ym2612"
    },
    {
      "channel": 2,
      "note": 94,
      "start": 9.2814,
      "duration": 0.0427,
      "velocity": 127,
      "chip": "ym2612"
    },
    {
      "channel": 1,
      "note": 94,
      "start": 9.3164,
      "duration": 0.18,
      "velocity": 127,
      "chip": "ym2612"
    },
    {
      "channel": 3,
      "note": 82,
      "start": 9.3183,
      "duration": 0.1802,
      "velocity": 100,
      "chip": "ym2612"
    },
    {
      "channel": 4,
      "note": 94,
      "start": 9.3186,
      "duration": 0.0099,
      "velocity": 120,
      "chip": "ym2612"
    },
    {
      "channel": 2,
      "note": 94,
      "start": 9.3244,
      "duration": 0.1813,
      "velocity": 127,
      "chip": "ym2612"
    },
    {
      "channel": 0,
      "note": 51,
      "start": 9.3261,
      "duration": 0.0081,
      "velocity": 127,
      "chip": "ym2612"
    },
    {
      "channel": 0,
      "note": 52,
      "start": 9.3346,
      "duration": 0.0108,
      "velocity": 127,
      "chip": "ym2612"
    },
    {
      "channel": 4,
      "note": 94,
      "start": 9.3373,
      "duration": 0.0106,
      "velocity": 120,
      "chip": "ym2612"
    },
    {
      "channel": 0,
      "note": 40,
      "start": 9.3456,
      "duration": 0.01,
      "velocity": 127,
      "chip": "ym2612"
    },
    {
      "channel": 0,
      "note": 51,
      "start": 9.3559,
      "duration": 0.0824,
      "velocity": 127,
      "chip": "ym2612"
    },
    {
      "channel": 4,
      "note": 94,
      "start": 9.358,
      "duration": 0.0776,
      "velocity": 120,
      "chip": "ym2612"
    },
    {
      "channel": 0,
      "note": 49,
      "start": 9.4384,
      "duration": 0.0038,
      "velocity": 127,
      "chip": "ym2612"
    },
    {
      "channel": 4,
      "note": 94,
      "start": 9.4451,
      "duration": 0.0099,
      "velocity": 120,
      "chip": "ym2612"
    },
    {
      "channel": 0,
      "note": 51,
      "start": 9.4523,
      "duration": 0.0437,
      "velocity": 127,
      "chip": "ym2612"
    },
    {
      "channel": 0,
      "note": 39,
      "start": 9.4963,
      "duration": 0.011,
      "velocity": 127,
      "chip": "ym2612"
    },
    {
      "channel": 1,
      "note": 95,
      "start": 9.4968,
      "duration": 0.016,
      "velocity": 127,
      "chip": "ym2612"
    },
    {
      "channel": 3,
      "note": 83,
      "start": 9.4988,
      "duration": 0.0158,
      "velocity": 100,
      "chip": "ym2612"
    },
    {
      "channel": 4,
      "note": 94,
      "start": 9.499,
      "duration": 0.0112,
      "velocity": 120,
      "chip": "ym2612"
    },
    {
      "channel": 2,
      "note": 95,
      "start": 9.5059,
      "duration": 0.0151,
      "velocity": 127,
      "chip": "ym2612"
    },
    {
      "channel": 0,
      "note": 49,
      "start": 9.5077,
      "duration": 0.0088,
      "velocity": 127,
      "chip": "ym2612"
    },
    {
      "channel": 1,
      "note": 94,
      "start": 9.5129,
      "duration": 0.0154,
      "velocity": 127,
      "chip": "ym2612"
    },
    {
      "channel": 3,
      "note": 82,
      "start": 9.5148,
      "duration": 0.0159,
      "velocity": 100,
      "chip": "ym2612"
    },
    {
      "channel": 0,
      "note": 47,
      "start": 9.5168,
      "duration": 0.0112,
      "velocity": 127,
      "chip": "ym2612"
    },
    {
      "channel": 4,
      "note": 94,
      "start": 9.5196,
      "duration": 0.0113,
      "velocity": 120,
      "chip": "ym2612"
    },
    {
      "channel": 2,
      "note": 94,
      "start": 9.5213,
      "duration": 0.0152,
      "velocity": 127,
      "chip": "ym2612"
    },
    {
      "channel": 0,
      "note": 39,
      "start": 9.5283,
      "duration": 0.0422,
      "velocity": 127,
      "chip": "ym2612"
    },
    {
      "channel": 1,
      "note": 97,
      "start": 9.5287,
      "duration": 0.0422,
      "velocity": 127,
      "chip": "ym2612"
    },
    {
      "channel": 3,
      "note": 85,
      "start": 9.5309,
      "duration": 0.0737,
      "velocity": 100,
      "chip": "ym2612"
    },
    {
      "channel": 2,
      "note": 97,
      "start": 9.5368,
      "duration": 0.2008,
      "velocity": 127,
      "chip": "ym2612"
    },
    {
      "channel": 0,
      "note": 46,
      "start": 9.5709,
      "duration": 0.1999,
      "velocity": 127,
      "chip": "ym2612"
    },
    {
      "channel": 1,
      "note": 95,
      "start": 9.5713,
      "duration": 0.2057,
      "velocity": 127,
      "chip": "ym2612"
    },
    {
      "channel": 3,
      "note": 83,
      "start": 9.6049,
      "duration": 0.1744,
      "velocity": 100,
      "chip": "ym2612"
    },
    {
      "channel": 4,
      "note": 94,
      "start": 9.6053,
      "duration": 0.1681,
      "velocity": 120,
      "chip": "ym2612"
    },
    {
      "channel": 2,
      "note": 95,
      "start": 9.738,
      "duration": 0.0479,
      "velocity": 127,
      "chip": "ym2612"
    },
    {
      "channel": 0,
      "note": 39,
      "start": 9.7711,
      "duration": 0.0105,
      "velocity": 127,
      "chip": "ym2612"
    },
    {
      "channel": 1,
      "note": 94,
      "start": 9.7774,
      "duration": 0.0156,
      "velocity": 127,
      "chip": "ym2612"
    },
    {
      "channel": 3,
      "note": 82,
      "start": 9.7795,
      "duration": 0.0156,
      "velocity": 100,
      "chip": "ym2612"
    },
    {
      "channel": 0,
      "note": 44,
      "start": 9.782,
      "duration": 0.0107,
      "velocity": 127,
      "chip": "ym2612"
    },
    {
      "channel": 4,
      "note": 94,
      "start": 9.7846,
      "duration": 0.0109,
      "velocity": 120,
      "chip": "ym2612"
    },
    {
      "channel": 2,
      "note": 94,
      "start": 9.7862,
      "duration": 0.0148,
      "velocity": 127,
      "chip": "ym2612"
    },
    {
      "channel": 0,
      "note": 46,
      "start": 9.7929,
      "duration": 0.0421,
      "velocity": 127,
      "chip": "ym2612"
    },
    {
      "channel": 1,
      "note": 90,
      "start": 9.7932,
      "duration": 0.0437,
      "velocity": 115,
      "chip": "ym2612"
    },
    {
      "channel": 3,
      "note": 78,
      "start": 9.7954,
      "duration": 0.0443,
      "velocity": 127,
      "chip": "ym2612"
    },
    {
      "channel": 2,
      "note": 90,
      "start": 9.8013,
      "duration": 0.0472,
      "velocity": 115,
      "chip": "ym2612"
    },
    {
      "channel": 0,
      "note": 47,
      "start": 9.8354,
      "duration": 0.0143,
      "velocity": 127,
      "chip": "ym2612"
    },
    {
      "channel": 1,
      "note": 89,
      "start": 9.8371,
      "duration": 0.0331,
      "velocity": 115,
      "chip": "ym2612"
    },
    {
      "channel": 3,
      "note": 68,
      "start": 9.8398,
      "duration": 0.0323,
      "velocity": 127,
      "chip": "ym2612"
    },
    {
      "channel": 4,
      "note": 85,
      "start": 9.8415,
      "duration": 0.0309,
      "velocity": 120,
      "chip": "ym2612"
    },
    {
      "channel": 2,
      "note": 89,
      "start": 9.8486,
      "duration": 0.0307,
      "velocity": 115,
      "chip": "ym2612"
    },
    {
      "channel": 0,
      "note": 47,
      "start": 9.85,
      "duration": 0.0088,
      "velocity": 127,
      "chip": "ym2612"
    },
    {
      "channel": 0,
      "note": 59,
      "start": 9.8592,
      "duration": 0.0107,
      "velocity": 127,
      "chip": "ym2612"
    },
    {
      "channel": 0,
      "note": 58,
      "start": 9.8702,
      "duration": 0.0056,
      "velocity": 127,
      "chip": "ym2612"
    },
    {
      "channel": 1,
      "note": 90,
      "start": 9.8704,
      "duration": 0.2853,
      "velocity": 115,
      "chip": "ym2612"
    },
    {
      "channel": 3,
      "note": 70,
      "start": 9.8724,
      "duration": 0.2859,
      "velocity": 127,
      "chip": "ym2612"
    },
    {
      "channel": 4,
      "note": 85,
      "start": 9.8727,
      "duration": 0.2859,
      "velocity": 120,
      "chip": "ym2612"
    },
    {
      "channel": 0,
      "note": 59,
      "start": 9.8761,
      "duration": 0.0051,
      "velocity": 127,
      "chip": "ym2612"
    },
    {
      "channel": 2,
      "note": 90,
      "start": 9.8796,
      "duration": 0.2864,
      "velocity": 115,
      "chip": "ym2612"
    },
    {
      "channel": 0,
      "note": 59,
      "start": 9.8852,
      "duration": 0.0721,
      "velocity": 127,
      "chip": "ym2612"
    },
    {
      "channel": 0,
      "note": 47,
      "start": 9.9577,
      "duration": 0.1216,
      "velocity": 127,
      "chip": "ym2612"
    },
    {
      "channel": 0,
      "note": 59,
      "start": 10.0797,
      "duration": 0.0112,
      "velocity": 127,
      "chip": "ym2612"
    },
    {
      "channel": 0,
      "note": 58,
      "start": 10.0912,
      "duration": 0.0052,
      "velocity": 127,
      "chip": "ym2612"
    },
    {
      "channel": 0,
      "note": 59,
      "start": 10.0968,
      "duration": 0.0382,
      "velocity": 127,
      "chip": "ym2612"
    },
    {
      "channel": 0,
      "note": 59,
      "start": 10.1404,
      "duration": 0.0053,
      "velocity": 127,
      "chip": "ym2612"
    },
    {
      "channel": 0,
      "note": 47,
      "start": 10.1461,
      "duration": 0.0093,
      "velocity": 127,
      "chip": "ym2612"
    },
    {
      "channel": 0,
      "note": 59,
      "start": 10.1556,
      "duration": 0.0232,
      "velocity": 127,
      "chip": "ym2612"
    },
    {
      "channel": 1,
      "note": 85,
      "start": 10.1561,
      "duration": 0.0229,
      "velocity": 115,
      "chip": "ym2612"
    },
    {
      "channel": 3,
      "note": 68,
      "start": 10.1586,
      "duration": 0.0221,
      "velocity": 127,
      "chip": "ym2612"
    },
    {
      "channel": 4,
      "note": 80,
      "start": 10.1589,
      "duration": 0.022,
      "velocity": 120,
      "chip": "ym2612"
    },
    {
      "channel": 2,
      "note": 85,
      "start": 10.1663,
      "duration": 0.0557,
      "velocity": 115,
      "chip": "ym2612"
    },
    {
      "channel": 0,
      "note": 59,
      "start": 10.1789,
      "duration": 0.0814,
      "velocity": 127,
      "chip": "ym2612"
    },
    {
      "channel": 1,
      "note": 92,
      "start": 10.1793,
      "duration": 0.0798,
      "velocity": 115,
      "chip": "ym2612"
    },
    {
      "channel": 3,
      "note": 77,
      "start": 10.1809,
      "duration": 0.08,
      "velocity": 127,
      "chip": "ym2612"
    },
    {
      "channel": 4,
      "note": 89,
      "start": 10.1812,
      "duration": 0.08,
      "velocity": 120,
      "chip": "ym2612"
    },
    {
      "channel": 2,
      "note": 92,
      "start": 10.2223,
      "duration": 0.0453,
      "velocity": 115,
      "chip": "ym2612"
    },
    {
      "channel": 1,
      "note": 90,
      "start": 10.2593,
      "duration": 0.0127,
      "velocity": 115,
      "chip": "ym2612"
    },
    {
      "channel": 0,
      "note": 47,
      "start": 10.2605,
      "duration": 0.0047,
      "velocity": 127,
      "chip": "ym2612"
    },
    {
      "channel": 3,
      "note": 75,
      "start": 10.2611,
      "duration": 0.0125,
      "velocity": 127,
      "chip": "ym2612"
    },
    {
      "channel": 4,
      "note": 87,
      "start": 10.2614,
      "duration": 0.0125,
      "velocity": 120,
      "chip": "ym2612"
    },
    {
      "channel": 2,
      "note": 90,
      "start": 10.2678,
      "duration": 0.0126,
      "velocity": 115,
      "chip": "ym2612"
    },
    {
      "channel": 1,
      "note": 89,
      "start": 10.2722,
      "duration": 0.0464,
      "velocity": 115,
      "chip": "ym2612"
    },
    {
      "channel": 3,
      "note": 73,
      "start": 10.2739,
      "duration": 0.0466,
      "velocity": 127,
      "chip": "ym2612"
    },
    {
      "channel": 4,
      "note": 85,
      "start": 10.2741,
      "duration": 0.0467,
      "velocity": 120,
      "chip": "ym2612"
    },
    {
      "channel": 0,
      "note": 59,
      "start": 10.2752,
      "duration": 0.043,
      "velocity": 127,
      "chip": "ym2612"
    },
    {
      "channel": 2,
      "note": 89,
      "start": 10.2807,
      "duration": 0.0465,
      "velocity": 115,
      "chip": "ym2612"
    },
    {
      "channel": 0,
      "note": 46,
      "start": 10.3185,
      "duration": 0.0104,
      "velocity": 127,
      "chip": "ym2612"
    },
    {
      "channel": 1,
      "note": 89,
      "start": 10.3188,
      "duration": 0.0307,
      "velocity": 115,
      "chip": "ym2612"
    },
    {
      "channel": 3,
      "note": 68,
      "start": 10.3207,
      "duration": 0.0309,
      "velocity": 127,
      "chip": "ym2612"
    },
    {
      "channel": 4,
      "note": 85,
      "start": 10.3211,
      "duration": 0.0308,
      "velocity": 120,
      "chip": "ym2612"
    },
    {
      "channel": 2,
      "note": 89,
      "start": 10.3273,
      "duration": 0.0312,
      "velocity": 115,
      "chip": "ym2612"
    },
    {
      "channel": 0,
      "note": 46,
      "start": 10.3293,
      "duration": 0.009,
      "velocity": 127,
      "chip": "ym2612"
    },
    {
      "channel": 0,
      "note": 58,
      "start": 10.3385,
      "duration": 0.0107,
      "velocity": 127,
      "chip": "ym2612"
    },
    {
      "channel": 0,
      "note": 56,
      "start": 10.3495,
      "duration": 0.0055,
      "velocity": 127,
      "chip": "ym2612"
    },
    {
      "channel": 1,
      "note": 90,
      "start": 10.3498,
      "duration": 0.304,
      "velocity": 115,
      "chip": "ym2612"
    },
    {
      "channel": 3,
      "note": 70,
      "start": 10.3518,
      "duration": 0.3044,
      "velocity": 127,
      "chip": "ym2612"
    },
    {
      "channel": 4,
      "note": 85,
      "start": 10.3521,
      "duration": 0.3044,
      "velocity": 120,
      "chip": "ym2612"
    },
    {
      "channel": 0,
      "note": 58,
      "start": 10.3554,
      "duration": 0.005,
      "velocity": 127,
      "chip": "ym2612"
    },
    {
      "channel": 2,
      "note": 90,
      "start": 10.3587,
      "duration": 0.3048,
      "velocity": 115,
      "chip": "ym2612"
    },
    {
      "channel": 0,
      "note": 58,
      "start": 10.3644,
      "duration": 0.0721,
      "velocity": 127,
      "chip": "ym2612"
    },
    {
      "channel": 0,
      "note": 46,
      "start": 10.4368,
      "duration": 0.2164,
      "velocity": 127,
      "chip": "ym2612"
    },
    {
      "channel": 0,
      "note": 58,
      "start": 10.6537,
      "duration": 0.0113,
      "velocity": 127,
      "chip": "ym2612"
    },
    {
      "channel": 1,
      "note": 85,
      "start": 10.654,
      "duration": 0.0644,
      "velocity": 115,
      "chip": "ym2612"
    },
    {
      "channel": 3,
      "note": 73,
      "start": 10.6564,
      "duration": 0.0641,
      "velocity": 127,
      "chip": "ym2612"
    },
    {
      "channel": 4,
      "note": 85,
      "start": 10.6567,
      "duration": 0.064,
      "velocity": 120,
      "chip": "ym2612"
    },
    {
      "channel": 2,
      "note": 85,
      "start": 10.6639,
      "duration": 0.0629,
      "velocity": 115,
      "chip": "ym2612"
    },
    {
      "channel": 0,
      "note": 56,
      "start": 10.6652,
      "duration": 0.0051,
      "velocity": 127,
      "chip": "ym2612"
    },
    {
      "channel": 0,
      "note": 58,
      "start": 10.6705,
      "duration": 0.0375,
      "velocity": 127,
      "chip": "ym2612"
    },
    {
      "channel": 0,
      "note": 45,
      "start": 10.7183,
      "duration": 0.0093,
      "velocity": 127,
      "chip": "ym2612"
    },
    {
      "channel": 1,
      "note": 83,
      "start": 10.7188,
      "duration": 0.1083,
      "velocity": 115,
      "chip": "ym2612"
    },
    {
      "channel": 3,
      "note": 71,
      "start": 10.7207,
      "duration": 0.1087,
      "velocity": 127,
      "chip": "ym2612"
    },
    {
      "channel": 4,
      "note": 83,
      "start": 10.721,
      "duration": 0.1086,
      "velocity": 120,
      "chip": "ym2612"
    },
    {
      "channel": 2,
      "note": 83,
      "start": 10.7269,
      "duration": 0.1092,
      "velocity": 115,
      "chip": "ym2612"
    },
    {
      "channel": 0,
      "note": 57,
      "start": 10.728,
      "duration": 0.022,
      "velocity": 127,
      "chip": "ym2612"
    },
    {
      "channel": 0,
      "note": 54,
      "start": 10.7503,
      "duration": 0.0763,
      "velocity": 127,
      "chip": "ym2612"
    },
    {
      "channel": 0,
      "note": 57,
      "start": 10.827,
      "duration": 0.0058,
      "velocity": 127,
      "chip": "ym2612"
    },
    {
      "channel": 1,
      "note": 85,
      "start": 10.8274,
      "duration": 0.0103,
      "velocity": 115,
      "chip": "ym2612"
    },
    {
      "channel": 3,
      "note": 73,
      "start": 10.8296,
      "duration": 0.0104,
      "velocity": 127,
      "chip": "ym2612"
    },
    {
      "channel": 4,
      "note": 85,
      "start": 10.8299,
      "duration": 0.0104,
      "velocity": 120,
      "chip": "ym2612"
    },
    {
      "channel": 0,
      "note": 54,
      "start": 10.833,
      "duration": 0.0045,
      "velocity": 127,
      "chip": "ym2612"
    },
    {
      "channel": 2,
      "note": 85,
      "start": 10.8362,
      "duration": 0.0102,
      "velocity": 115,
      "chip": "ym2612"
    },
    {
      "channel": 1,
      "note": 86,
      "start": 10.838,
      "duration": 0.0098,
      "velocity": 115,
      "chip": "ym2612"
    },
    {
      "channel": 3,
      "note": 74,
      "start": 10.8402,
      "duration": 0.0093,
      "velocity": 127,
      "chip": "ym2612"
    },
    {
      "channel": 4,
      "note": 86,
      "start": 10.8405,
      "duration": 0.0094,
      "velocity": 120,
      "chip": "ym2612"
    },
    {
      "channel": 2,
      "note": 86,
      "start": 10.8466,
      "duration": 0.0099,
      "velocity": 115,
      "chip": "ym2612"
    },
    {
      "channel": 0,
      "note": 64,
      "start": 10.8477,
      "duration": 0.0432,
      "velocity": 127,
      "chip": "ym2612"
    },
    {
      "channel": 1,
      "note": 88,
      "start": 10.848,
      "duration": 0.0433,
      "velocity": 115,
      "chip": "ym2612"
    },
    {
      "channel": 3,
      "note": 76,
      "start": 10.8498,
      "duration": 0.0436,
      "velocity": 127,
      "chip": "ym2612"
    },
    {
      "channel": 4,
      "note": 88,
      "start": 10.8502,
      "duration": 0.0435,
      "velocity": 120,
      "chip": "ym2612"
    },
    {
      "channel": 2,
      "note": 88,
      "start": 10.8567,
      "duration": 0.0432,
      "velocity": 115,
      "chip": "ym2612"
    },
    {
      "channel": 0,
      "note": 44,
      "start": 10.8912,
      "duration": 0.0103,
      "velocity": 127,
      "chip": "ym2612"
    },
    {
      "channel": 1,
      "note": 90,
      "start": 10.8917,
      "duration": 0.0142,
      "velocity": 115,
      "chip": "ym2612"
    },
    {
      "channel": 3,
      "note": 73,
      "start": 10.8936,
      "duration": 0.014,
      "velocity": 127,
      "chip": "ym2612"
    },
    {
      "channel": 4,
      "note": 85,
      "start": 10.8939,
      "duration": 0.014,
      "velocity": 120,
      "chip": "ym2612"
    },
    {
      "channel": 2,
      "note": 90,
      "start": 10.9001,
      "duration": 0.0141,
      "velocity": 115,
      "chip": "ym2612"
    },
    {
      "channel": 0,
      "note": 44,
      "start": 10.902,
      "duration": 0.0097,
      "velocity": 127,
      "chip": "ym2612"
    },
    {
      "channel": 1,
      "note": 92,
      "start": 10.9061,
      "duration": 0.0133,
      "velocity": 115,
      "chip": "ym2612"
    },
    {
      "channel": 3,
      "note": 75,
      "start": 10.9079,
      "duration": 0.0134,
      "velocity": 127,
      "chip": "ym2612"
    },
    {
      "channel": 4,
      "note": 87,
      "start": 10.9082,
      "duration": 0.0135,
      "velocity": 120,
      "chip": "ym2612"
    },
    {
      "channel": 0,
      "note": 56,
      "start": 10.912,
      "duration": 0.0107,
      "velocity": 127,
      "chip": "ym2612"
    },
    {
      "channel": 2,
      "note": 92,
      "start": 10.9145,
      "duration": 0.0144,
      "velocity": 115,
      "chip": "ym2612"
    },
    {
      "channel": 1,
      "note": 95,
      "start": 10.9197,
      "duration": 0.014,
      "velocity": 115,
      "chip": "ym2612"
    },
    {
      "channel": 3,
      "note": 78,
      "start": 10.9216,
      "duration": 0.0135,
      "velocity": 127,
      "chip": "ym2612"
    },
    {
      "channel": 4,
      "note": 90,
      "start": 10.9218,
      "duration": 0.0136,
      "velocity": 120,
      "chip": "ym2612"
    },
    {
      "channel": 0,
      "note": 54,
      "start": 10.9229,
      "duration": 0.0053,
      "velocity": 127,
      "chip": "ym2612"
    },
    {
      "channel": 0,
      "note": 56,
      "start": 10.9286,
      "duration": 0.005,
      "velocity": 127,
      "chip": "ym2612"
    },
    {
      "channel": 2,
      "note": 95,
      "start": 10.9293,
      "duration": 0.0474,
      "velocity": 115,
      "chip": "ym2612"
    },
    {
      "channel": 1,
      "note": 95,
      "start": 10.9339,
      "duration": 0.1591,
      "velocity": 115,
      "chip": "ym2612"
    },
    {
      "channel": 3,
      "note": 78,
      "start": 10.9354,
      "duration": 0.1917,
      "velocity": 127,
      "chip": "ym2612"
    },
    {
      "channel": 4,
      "note": 90,
      "start": 10.9356,
      "duration": 0.1918,
      "velocity": 120,
      "chip": "ym2612"
    },
    {
      "channel": 0,
      "note": 56,
      "start": 10.9376,
      "duration": 0.072,
      "velocity": 127,
      "chip": "ym2612"
    },
    {
      "channel": 2,
      "note": 95,
      "start": 10.977,
      "duration": 0.1572,
      "velocity": 115,
      "chip": "ym2612"
    },
    {
      "channel": 0,
      "note": 44,
      "start": 11.01,
      "duration": 0.1216,
      "velocity": 127,
      "chip": "ym2612"
    },
    {
      "channel": 1,
      "note": 94,
      "start": 11.0934,
      "duration": 0.0463,
      "velocity": 115,
      "chip": "ym2612"
    },
    {
      "channel": 3,
      "note": 77,
      "start": 11.1273,
      "duration": 0.0146,
      "velocity": 127,
      "chip": "ym2612"
    },
    {
      "channel": 4,
      "note": 89,
      "start": 11.1279,
      "duration": 0.0144,
      "velocity": 120,
      "chip": "ym2612"
    },
    {
      "channel": 0,
      "note": 56,
      "start": 11.1319,
      "duration": 0.0114,
      "velocity": 127,
      "chip": "ym2612"
    },
    {
      "channel": 2,
      "note": 94,
      "start": 11.1345,
      "duration": 0.0143,
      "velocity": 115,
      "chip": "ym2612"
    },
    {
      "channel": 1,
      "note": 92,
      "start": 11.1399,
      "duration": 0.0466,
      "velocity": 115,
      "chip": "ym2612"
    },
    {
      "channel": 3,
      "note": 75,
      "start": 11.1422,
      "duration": 0.0465,
      "velocity": 127,
      "chip": "ym2612"
    },
    {
      "channel": 4,
      "note": 87,
      "start": 11.1424,
      "duration": 0.0465,
      "velocity": 120,
      "chip": "ym2612"
    },
    {
      "channel": 0,
      "note": 46,
      "start": 11.1436,
      "duration": 0.0047,
      "velocity": 127,
      "chip": "ym2612"
    },
    {
      "channel": 0,
      "note": 44,
      "start": 11.1486,
      "duration": 0.0376,
      "velocity": 127,
      "chip": "ym2612"
    },
    {
      "channel": 2,
      "note": 92,
      "start": 11.1491,
      "duration": 0.0458,
      "velocity": 115,
      "chip": "ym2612"
    },
    {
      "channel": 0,
      "note": 54,
      "start": 11.1865,
      "duration": 0.0102,
      "velocity": 127,
      "chip": "ym2612"
    },
    {
      "channel": 1,
      "note": 90,
      "start": 11.1869,
      "duration": 0.0142,
      "velocity": 115,
      "chip": "ym2612"
    },
    {
      "channel": 3,
      "note": 73,
      "start": 11.1889,
      "duration": 0.014,
      "velocity": 127,
      "chip": "ym2612"
    },
    {
      "channel": 4,
      "note": 85,
      "start": 11.1891,
      "duration": 0.0141,
      "velocity": 120,
      "chip": "ym2612"
    },
    {
      "channel": 2,
      "note": 90,
      "start": 11.1952,
      "duration": 0.014,
      "velocity": 115,
      "chip": "ym2612"
    },
    {
      "channel": 0,
      "note": 54,
      "start": 11.1971,
      "duration": 0.0095,
      "velocity": 127,
      "chip": "ym2612"
    },
    {
      "channel": 1,
      "note": 88,
      "start": 11.2013,
      "duration": 0.0132,
      "velocity": 115,
      "chip": "ym2612"
    },
    {
      "channel": 3,
      "note": 71,
      "start": 11.2031,
      "duration": 0.0132,
      "velocity": 127,
      "chip": "ym2612"
    },
    {
      "channel": 4,
      "note": 83,
      "start": 11.2034,
      "duration": 0.0133,
      "velocity": 120,
      "chip": "ym2612"
    },
    {
      "channel": 0,
      "note": 66,
      "start": 11.207,
      "duration": 0.0109,
      "velocity": 127,
      "chip": "ym2612"
    },
    {
      "channel": 2,
      "note": 88,
      "start": 11.2095,
      "duration": 0.0144,
      "velocity": 115,
      "chip": "ym2612"
    },
    {
      "channel": 1,
      "note": 83,
      "start": 11.2147,
      "duration": 0.0991,
      "velocity": 115,
      "chip": "ym2612"
    },
    {
      "channel": 3,
      "note": 67,
      "start": 11.2166,
      "duration": 0.0998,
      "velocity": 127,
      "chip": "ym2612"
    },
    {
      "channel": 4,
      "note": 79,
      "start": 11.2169,
      "duration": 0.0999,
      "velocity": 120,
      "chip": "ym2612"
    },
    {
      "channel": 0,
      "note": 65,
      "start": 11.2182,
      "duration": 0.0051,
      "velocity": 127,
      "chip": "ym2612"
    },
    {
      "channel": 0,
      "note": 66,
      "start": 11.2237,
      "duration": 0.0051,
      "velocity": 127,
      "chip": "ym2612"
    },
    {
      "channel": 2,
      "note": 83,
      "start": 11.2243,
      "duration": 0.0995,
      "velocity": 115,
      "chip": "ym2612"
    },
    {
      "channel": 0,
      "note": 66,
      "start": 11.2321,
      "duration": 0.0724,
      "velocity": 127,
      "chip": "ym2612"
    },
    {
      "channel": 0,
      "note": 54,
      "start": 11.3049,
      "duration": 0.0086,
      "velocity": 127,
      "chip": "ym2612"
    },
    {
      "channel": 0,
      "note": 53,
      "start": 11.3137,
      "duration": 0.0117,
      "velocity": 127,
      "chip": "ym2612"
    },
    {
      "channel": 1,
      "note": 85,
      "start": 11.3142,
      "duration": 0.0573,
      "velocity": 112,
      "chip": "ym2612"
    },
    {
      "channel": 3,
      "note": 69,
      "start": 11.3168,
      "duration": 0.0576,
      "velocity": 112,
      "chip": "ym2612"
    },
    {
      "channel": 4,
      "note": 81,
      "start": 11.3171,
      "duration": 0.0588,
      "velocity": 112,
      "chip": "ym2612"
    },
    {
      "channel": 2,
      "note": 85,
      "start": 11.3242,
      "duration": 0.0587,
      "velocity": 112,
      "chip": "ym2612"
    },
    {
      "channel": 0,
      "note": 54,
      "start": 11.3256,
      "duration": 0.0443,
      "velocity": 96,
      "chip": "ym2612"
    },
    {
      "channel": 0,
      "note": 42,
      "start": 11.3701,
      "duration": 0.008,
      "velocity": 96,
      "chip": "ym2612"
    },
    {
      "channel": 1,
      "note": 62,
      "start": 11.3717,
      "duration": 0.033,
      "velocity": 112,
      "chip": "ym2612"
    },
    {
      "channel": 3,
      "note": 52,
      "start": 11.3746,
      "duration": 0.0324,
      "velocity": 112,
      "chip": "ym2612"
    },
    {
      "channel": 4,
      "note": 57,
      "start": 11.3762,
      "duration": 0.0311,
      "velocity": 112,
      "chip": "ym2612"
    },
    {
      "channel": 0,
      "note": 42,
      "start": 11.3785,
      "duration": 0.0056,
      "velocity": 96,
      "chip": "ym2612"
    },
    {
      "channel": 2,
      "note": 62,
      "start": 11.3832,
      "duration": 0.031,
      "velocity": 112,
      "chip": "ym2612"
    },
    {
      "channel": 0,
      "note": 42,
      "start": 11.3845,
      "duration": 0.0089,
      "velocity": 96,
      "chip": "ym2612"
    },
    {
      "channel": 0,
      "note": 42,
      "start": 11.3936,
      "duration": 0.0108,
      "velocity": 96,
      "chip": "ym2612"
    },
    {
      "channel": 0,
      "note": 42,
      "start": 11.4046,
      "duration": 0.0056,
      "velocity": 96,
      "chip": "ym2612"
    },
    {
      "channel": 1,
      "note": 68,
      "start": 11.4049,
      "duration": 0.098,
      "velocity": 112,
      "chip": "ym2612"
    },
    {
      "channel": 3,
      "note": 58,
      "start": 11.4072,
      "duration": 0.0983,
      "velocity": 112,
      "chip": "ym2612"
    },
    {
      "channel": 4,
      "note": 63,
      "start": 11.4075,
      "duration": 0.0983,
      "velocity": 112,
      "chip": "ym2612"
    },
    {
      "channel": 0,
      "note": 42,
      "start": 11.4107,
      "duration": 0.0053,
      "velocity": 96,
      "chip": "ym2612"
    },
    {
      "channel": 2,
      "note": 68,
      "start": 11.4144,
      "duration": 0.0985,
      "velocity": 112,
      "chip": "ym2612"
    },
    {
      "channel": 0,
      "note": 42,
      "start": 11.4162,
      "duration": 0.0043,
      "velocity": 96,
      "chip": "ym2612"
    },
    {
      "channel": 0,
      "note": 42,
      "start": 11.4208,
      "duration": 0.0721,
      "velocity": 96,
      "chip": "ym2612"
    },
    {
      "channel": 0,
      "note": 42,
      "start": 11.4933,
      "duration": 0.0092,
      "velocity": 96,
      "chip": "ym2612"
    },
    {
      "channel": 0,
      "note": 42,
      "start": 11.5028,
      "duration": 0.0113,
      "velocity": 96,
      "chip": "ym2612"
    },
    {
      "channel": 1,
      "note": 61,
      "start": 11.5032,
      "duration": 0.0655,
      "velocity": 112,
      "chip": "ym2612"
    },
    {
      "channel": 3,
      "note": 51,
      "start": 11.5058,
      "duration": 0.0654,
      "velocity": 112,
      "chip": "ym2612"
    },
    {
      "channel": 4,
      "note": 56,
      "start": 11.506,
      "duration": 0.0655,
      "velocity": 112,
      "chip": "ym2612"
    },
    {
      "channel": 2,
      "note": 61,
      "start": 11.5131,
      "duration": 0.0657,
      "velocity": 112,
      "chip": "ym2612"
    },
    {
      "channel": 0,
      "note": 42,
      "start": 11.5143,
      "duration": 0.0051,
      "velocity": 96,
      "chip": "ym2612"
    },
    {
      "channel": 0,
      "note": 42,
      "start": 11.5197,
      "duration": 0.0373,
      "velocity": 96,
      "chip": "ym2612"
    },
    {
      "channel": 0,
      "note": 42,
      "start": 11.5634,
      "duration": 0.0049,
      "velocity": 96,
      "chip": "ym2612"
    },
    {
      "channel": 0,
      "note": 42,
      "start": 11.5687,
      "duration": 0.0129,
      "velocity": 96,
      "chip": "ym2612"
    },
    {
      "channel": 1,
      "note": 69,
      "start": 11.5691,
      "duration": 0.0361,
      "velocity": 112,
      "chip": "ym2612"
    },
    {
      "channel": 3,
      "note": 59,
      "start": 11.5714,
      "duration": 0.0359,
      "velocity": 112,
      "chip": "ym2612"
    },
    {
      "channel": 4,
      "note": 64,
      "start": 11.5717,
      "duration": 0.0359,
      "velocity": 112,
      "chip": "ym2612"
    },
    {
      "channel": 2,
      "note": 69,
      "start": 11.5791,
      "duration": 0.0341,
      "velocity": 112,
      "chip": "ym2612"
    },
    {
      "channel": 0,
      "note": 42,
      "start": 11.5819,
      "duration": 0.0112,
      "velocity": 96,
      "chip": "ym2612"
    },
    {
      "channel": 0,
      "note": 42,
      "start": 11.5935,
      "duration": 0.0052,
      "velocity": 96,
      "chip": "ym2612"
    },
    {
      "channel": 0,
      "note": 42,
      "start": 11.5991,
      "duration": 0.0056,
      "velocity": 96,
      "chip": "ym2612"
    },
    {
      "channel": 0,
      "note": 42,
      "start": 11.6051,
      "duration": 0.0136,
      "velocity": 96,
      "chip": "ym2612"
    },
    {
      "channel": 1,
      "note": 64,
      "start": 11.6055,
      "duration": 0.0135,
      "velocity": 112,
      "chip": "ym2612"
    },
    {
      "channel": 3,
      "note": 55,
      "start": 11.6075,
      "duration": 0.0137,
      "velocity": 112,
      "chip": "ym2612"
    },
    {
      "channel": 4,
      "note": 59,
      "start": 11.6078,
      "duration": 0.0138,
      "velocity": 112,
      "chip": "ym2612"
    },
    {
      "channel": 2,
      "note": 64,
      "start": 11.6134,
      "duration": 0.0141,
      "velocity": 112,
      "chip": "ym2612"
    },
    {
      "channel": 0,
      "note": 42,
      "start": 11.619,
      "duration": 0.0143,
      "velocity": 96,
      "chip": "ym2612"
    },
    {
      "channel": 1,
      "note": 62,
      "start": 11.6193,
      "duration": 0.0142,
      "velocity": 112,
      "chip": "ym2612"
    },
    {
      "channel": 3,
      "note": 53,
      "start": 11.6215,
      "duration": 0.0137,
      "velocity": 112,
      "chip": "ym2612"
    },
    {
      "channel": 4,
      "note": 57,
      "start": 11.622,
      "duration": 0.0135,
      "velocity": 112,
      "chip": "ym2612"
    },
    {
      "channel": 2,
      "note": 62,
      "start": 11.6277,
      "duration": 0.0141,
      "velocity": 112,
      "chip": "ym2612"
    },
    {
      "channel": 0,
      "note": 42,
      "start": 11.6334,
      "duration": 0.0133,
      "velocity": 96,
      "chip": "ym2612"
    },
    {
      "channel": 1,
      "note": 70,
      "start": 11.6337,
      "duration": 0.0133,
      "velocity": 112,
      "chip": "ym2612"
    },
    {
      "channel": 3,
      "note": 61,
      "start": 11.6354,
      "duration": 0.0131,
      "velocity": 112,
      "chip": "ym2612"
    },
    {
      "channel": 4,
      "note": 65,
      "start": 11.6357,
      "duration": 0.0129,
      "velocity": 112,
      "chip": "ym2612"
    },
    {
      "channel": 2,
      "note": 70,
      "start": 11.6421,
      "duration": 0.0081,
      "velocity": 112,
      "chip": "ym2612"
    },
    {
      "channel": 0,
      "note": 48,
      "start": 11.6663,
      "duration": 0.011,
      "velocity": 127,
      "chip": "ym2612"
    },
    {
      "channel": 1,
      "note": 60,
      "start": 11.6665,
      "duration": 0.0112,
      "velocity": 112,
      "chip": "ym2612"
    },
    {
      "channel": 3,
      "note": 72,
      "start": 11.6675,
      "duration": 0.0125,
      "velocity": 112,
      "chip": "ym2612"
    },
    {
      "channel": 4,
      "note": 72,
      "start": 11.6691,
      "duration": 0.0036,
      "velocity": 127,
      "chip": "ym2612"
    },
    {
      "channel": 4,
      "note": 75,
      "start": 11.673,
      "duration": 0.0032,
      "velocity": 127,
      "chip": "ym2612"
    },
    {
      "channel": 2,
      "note": 60,
      "start": 11.6761,
      "duration": 0.0108,
      "velocity": 112,
      "chip": "ym2612"
    },
    {
      "channel": 4,
      "note": 79,
      "start": 11.6764,
      "duration": 0.0039,
      "velocity": 127,
      "chip": "ym2612"
    },
    {
      "channel": 0,
      "note": 48,
      "start": 11.6777,
      "duration": 0.0053,
      "velocity": 127,
      "chip": "ym2612"
    },
    {
      "channel": 1,
      "note": 72,
      "start": 11.678,
      "duration": 0.0115,
      "velocity": 112,
      "chip": "ym2612"
    },
    {
      "channel": 3,
      "note": 84,
      "start": 11.6803,
      "duration": 0.0114,
      "velocity": 112,
      "chip": "ym2612"
    },
    {
      "channel": 4,
      "note": 84,
      "start": 11.6805,
      "duration": 0.0035,
      "velocity": 127,
      "chip": "ym2612"
    },
    {
      "channel": 0,
      "note": 48,
      "start": 11.6833,
      "duration": 0.0058,
      "velocity": 127,
      "chip": "ym2612"
    },
    {
      "channel": 4,
      "note": 87,
      "start": 11.6844,
      "duration": 0.0029,
      "velocity": 127,
      "chip": "ym2612"
    },
    {
      "channel": 2,
      "note": 72,
      "start": 11.6872,
      "duration": 0.0114,
      "velocity": 112,
      "chip": "ym2612"
    },
    {
      "channel": 4,
      "note": 75,
      "start": 11.6876,
      "duration": 0.0044,
      "velocity": 127,
      "chip": "ym2612"
    },
    {
      "channel": 0,
      "note": 48,
      "start": 11.6894,
      "duration": 0.005,
      "velocity": 127,
      "chip": "ym2612"
    },
    {
      "channel": 1,
      "note": 60,
      "start": 11.6899,
      "duration": 0.0109,
      "velocity": 112,
      "chip": "ym2612"
    },
    {
      "channel": 3,
      "note": 72,
      "start": 11.6919,
      "duration": 0.0115,
      "velocity": 112,
      "chip": "ym2612"
    },
    {
      "channel": 4,
      "note": 79,
      "start": 11.6921,
      "duration": 0.0034,
      "velocity": 127,
      "chip": "ym2612"
    },
    {
      "channel": 0,
      "note": 48,
      "start": 11.6947,
      "duration": 0.0056,
      "velocity": 127,
      "chip": "ym2612"
    },
    {
      "channel": 4,
      "note": 84,
      "start": 11.696,
      "duration": 0.0029,
      "velocity": 127,
      "chip": "ym2612"
    },
    {
      "channel": 2,
      "note": 60,
      "start": 11.6988,
      "duration": 0.0128,
      "velocity": 112,
      "chip": "ym2612"
    },
    {
      "channel": 4,
      "note": 72,
      "start": 11.6991,
      "duration": 0.0046,
      "velocity": 127,
      "chip": "ym2612"
    },
    {
      "channel": 0,
      "note": 48,
      "start": 11.7007,
      "duration": 0.0128,
      "velocity": 127,
      "chip": "ym2612"
    },
    {
      "channel": 1,
      "note": 61,
      "start": 11.7011,
      "duration": 0.0129,
      "velocity": 112,
      "chip": "ym2612"
    },
    {
      "channel": 3,
      "note": 73,
      "start": 11.7036,
      "duration": 0.0127,
      "velocity": 112,
      "chip": "ym2612"
    },
    {
      "channel": 4,
      "note": 75,
      "start": 11.7039,
      "duration": 0.0048,
      "velocity": 127,
      "chip": "ym2612"
    },
    {
      "channel": 4,
      "note": 79,
      "start": 11.709,
      "duration": 0.003,
      "velocity": 127,
      "chip": "ym2612"
    },
    {
      "channel": 2,
      "note": 61,
      "start": 11.7117,
      "duration": 0.0132,
      "velocity": 112,
      "chip": "ym2612"
    },
    {
      "channel": 4,
      "note": 75,
      "start": 11.7122,
      "duration": 0.0043,
      "velocity": 127,
      "chip": "ym2612"
    },
    {
      "channel": 0,
      "note": 48,
      "start": 11.7139,
      "duration": 0.0055,
      "velocity": 127,
      "chip": "ym2612"
    },
    {
      "channel": 1,
      "note": 73,
      "start": 11.7143,
      "duration": 0.0125,
      "velocity": 112,
      "chip": "ym2612"
    },
    {
      "channel": 3,
      "note": 85,
      "start": 11.7165,
      "duration": 0.0135,
      "velocity": 112,
      "chip": "ym2612"
    },
    {
      "channel": 4,
      "note": 84,
      "start": 11.7167,
      "duration": 0.0038,
      "velocity": 127,
      "chip": "ym2612"
    },
    {
      "channel": 0,
      "note": 48,
      "start": 11.7197,
      "duration": 0.0067,
      "velocity": 127,
      "chip": "ym2612"
    },
    {
      "channel": 4,
      "note": 72,
      "start": 11.7208,
      "duration": 0.0045,
      "velocity": 127,
      "chip": "ym2612"
    },
    {
      "channel": 2,
      "note": 73,
      "start": 11.7252,
      "duration": 0.0119,
      "velocity": 112,
      "chip": "ym2612"
    },
    {
      "channel": 4,
      "note": 79,
      "start": 11.7257,
      "duration": 0.0045,
      "velocity": 127,
      "chip": "ym2612"
    },
    {
      "channel": 0,
      "note": 48,
      "start": 11.7268,
      "duration": 0.006,
      "velocity": 127,
      "chip": "ym2612"
    },
    {
      "channel": 1,
      "note": 61,
      "start": 11.7271,
      "duration": 0.013,
      "velocity": 112,
      "chip": "ym2612"
    },
    {
      "channel": 3,
      "note": 73,
      "start": 11.7302,
      "duration": 0.0125,
      "velocity": 112,
      "chip": "ym2612"
    },
    {
      "channel": 4,
      "note": 75,
      "start": 11.7304,
      "duration": 0.0035,
      "velocity": 127,
      "chip": "ym2612"
    },
    {
      "channel": 0,
      "note": 48,
      "start": 11.7331,
      "duration": 0.0066,
      "velocity": 127,
      "chip": "ym2612"
    },
    {
      "channel": 4,
      "note": 79,
      "start": 11.7343,
      "duration": 0.0033,
      "velocity": 127,
      "chip": "ym2612"
    },
    {
      "channel": 2,
      "note": 61,
      "start": 11.7374,
      "duration": 0.0142,
      "velocity": 112,
      "chip": "ym2612"
    },
    {
      "channel": 4,
      "note": 72,
      "start": 11.7379,
      "duration": 0.0051,
      "velocity": 127,
      "chip": "ym2612"
    },
    {
      "channel": 0,
      "note": 48,
      "start": 11.74,
      "duration": 0.0146,
      "velocity": 127,
      "chip": "ym2612"
    },
    {
      "channel": 1,
      "note": 58,
      "start": 11.7404,
      "duration": 0.0147,
      "velocity": 112,
      "chip": "ym2612"
    },
    {
      "channel": 3,
      "note": 70,
      "start": 11.743,
      "duration": 0.0144,
      "velocity": 112,
      "chip": "ym2612"
    },
    {
      "channel": 4,
      "note": 72,
      "start": 11.7433,
      "duration": 0.0049,
      "velocity": 127,
      "chip": "ym2612"
    },
    {
      "channel": 4,
      "note": 73,
      "start": 11.7486,
      "duration": 0.0036,
      "velocity": 127,
      "chip": "ym2612"
    },
    {
      "channel": 2,
      "note": 58,
      "start": 11.752,
      "duration": 0.0142,
      "velocity": 112,
      "chip": "ym2612"
    },
    {
      "channel": 4,
      "note": 80,
      "start": 11.7524,
      "duration": 0.0054,
      "velocity": 127,
      "chip": "ym2612"
    },
    {
      "channel": 0,
      "note": 48,
      "start": 11.7551,
      "duration": 0.0064,
      "velocity": 127,
      "chip": "ym2612"
    },
    {
      "channel": 1,
      "note": 70,
      "start": 11.7554,
      "duration": 0.0141,
      "velocity": 112,
      "chip": "ym2612"
    },
    {
      "channel": 3,
      "note": 82,
      "start": 11.7577,
      "duration": 0.0142,
      "velocity": 112,
      "chip": "ym2612"
    },
    {
      "channel": 4,
      "note": 77,
      "start": 11.758,
      "duration": 0.0047,
      "velocity": 127,
      "chip": "ym2612"
    },
    {
      "channel": 0,
      "note": 48,
      "start": 11.7619,
      "duration": 0.0071,
      "velocity": 127,
      "chip": "ym2612"
    },
    {
      "channel": 4,
      "note": 85,
      "start": 11.7631,
      "duration": 0.0035,
      "velocity": 127,
      "chip": "ym2612"
    },
    {
      "channel": 2,
      "note": 70,
      "start": 11.7664,
      "duration": 0.0134,
      "velocity": 112,
      "chip": "ym2612"
    },
    {
      "channel": 4,
      "note": 73,
      "start": 11.7669,
      "duration": 0.0054,
      "velocity": 127,
      "chip": "ym2612"
    },
    {
      "channel": 0,
      "note": 48,
      "start": 11.7695,
      "duration": 0.0056,
      "velocity": 127,
      "chip": "ym2612"
    },
    {
      "channel": 1,
      "note": 58,
      "start": 11.7699,
      "duration": 0.0117,
      "velocity": 112,
      "chip": "ym2612"
    },
    {
      "channel": 3,
      "note": 70,
      "start": 11.7722,
      "duration": 0.0117,
      "velocity": 112,
      "chip": "ym2612"
    },
    {
      "channel": 4,
      "note": 80,
      "start": 11.7725,
      "duration": 0.0036,
      "velocity": 127,
      "chip": "ym2612"
    },
    {
      "channel": 0,
      "note": 48,
      "start": 11.7754,
      "duration": 0.0059,
      "velocity": 127,
      "chip": "ym2612"
    },
    {
      "channel": 4,
      "note": 77,
      "start": 11.7765,
      "duration": 0.0037,
      "velocity": 127,
      "chip": "ym2612"
    },
    {
      "channel": 2,
      "note": 58,
      "start": 11.78,
      "duration": 0.0104,
      "velocity": 112,
      "chip": "ym2612"
    },
    {
      "channel": 4,
      "note": 89,
      "start": 11.7804,
      "duration": 0.0039,
      "velocity": 127,
      "chip": "ym2612"
    },
    {
      "channel": 0,
      "note": 48,
      "start": 11.7816,
      "duration": 0.012,
      "velocity": 127,
      "chip": "ym2612"
    },
    {
      "channel": 1,
      "note": 60,
      "start": 11.782,
      "duration": 0.0119,
      "velocity": 112,
      "chip": "ym2612"
    },
    {
      "channel": 3,
      "note": 72,
      "start": 11.7842,
      "duration": 0.0124,
      "velocity": 112,
      "chip": "ym2612"
    },
    {
      "channel": 4,
      "note": 73,
      "start": 11.7845,
      "duration": 0.0031,
      "velocity": 127,
      "chip": "ym2612"
    },
    {
      "channel": 4,
      "note": 85,
      "start": 11.7879,
      "duration": 0.0029,
      "velocity": 127,
      "chip": "ym2612"
    },
    {
      "channel": 2,
      "note": 60,
      "start": 11.7907,
      "duration": 0.0136,
      "velocity": 112,
      "chip": "ym2612"
    },
    {
      "channel": 4,
      "note": 77,
      "start": 11.7911,
      "duration": 0.0057,
      "velocity": 127,
      "chip": "ym2612"
    },
    {
      "channel": 0,
      "note": 48,
      "start": 11.7939,
      "duration": 0.0059,
      "velocity": 127,
      "chip": "ym2612"
    },
    {
      "channel": 1,
      "note": 72,
      "start": 11.7944,
      "duration": 0.0133,
      "velocity": 112,
      "chip": "ym2612"
    },
    {
      "channel": 3,
      "note": 84,
      "start": 11.7968,
      "duration": 0.0132,
      "velocity": 112,
      "chip": "ym2612"
    },
    {
      "channel": 4,
      "note": 85,
      "start": 11.7971,
      "duration": 0.0038,
      "velocity": 127,
      "chip": "ym2612"
    },
    {
      "channel": 0,
      "note": 48,
      "start": 11.8001,
      "duration": 0.0072,
      "velocity": 127,
      "chip": "ym2612"
    },
    {
      "channel": 4,
      "note": 80,
      "start": 11.8012,
      "duration": 0.0035,
      "velocity": 127,
      "chip": "ym2612"
    },
    {
      "channel": 2,
      "note": 72,
      "start": 11.8045,
      "duration": 0.0144,
      "velocity": 112,
      "chip": "ym2612"
    },
    {
      "channel": 4,
      "note": 85,
      "start": 11.8049,
      "duration": 0.0054,
      "velocity": 127,
      "chip": "ym2612"
    },
    {
      "channel": 0,
      "note": 60,
      "start": 11.8076,
      "duration": 0.0068,
      "velocity": 127,
      "chip": "ym2612"
    },
    {
      "channel": 1,
      "note": 60,
      "start": 11.808,
      "duration": 0.014,
      "velocity": 112,
      "chip": "ym2612"
    },
    {
      "channel": 3,
      "note": 72,
      "start": 11.8103,
      "duration": 0.0144,
      "velocity": 112,
      "chip": "ym2612"
    },
    {
      "channel": 4,
      "note": 73,
      "start": 11.8105,
      "duration": 0.0051,
      "velocity": 127,
      "chip": "ym2612"
    },
    {
      "channel": 0,
      "note": 48,
      "start": 11.8149,
      "duration": 0.0068,
      "velocity": 127,
      "chip": "ym2612"
    },
    {
      "channel": 4,
      "note": 77,
      "start": 11.816,
      "duration": 0.0033,
      "velocity": 127,
      "chip": "ym2612"
    },
    {
      "channel": 2,
      "note": 60,
      "start": 11.8191,
      "duration": 0.0157,
      "velocity": 112,
      "chip": "ym2612"
    },
    {
      "channel": 4,
      "note": 80,
      "start": 11.8195,
      "duration": 0.0055,
      "velocity": 127,
      "chip": "ym2612"
    },
    {
      "channel": 0,
      "note": 48,
      "start": 11.822,
      "duration": 0.0149,
      "velocity": 127,
      "chip": "ym2612"
    },
    {
      "channel": 1,
      "note": 60,
      "start": 11.8224,
      "duration": 0.0149,
      "velocity": 112,
      "chip": "ym2612"
    },
    {
      "channel": 3,
      "note": 72,
      "start": 11.825,
      "duration": 0.0147,
      "velocity": 112,
      "chip": "ym2612"
    },
    {
      "channel": 4,
      "note": 72,
      "start": 11.8253,
      "duration": 0.005,
      "velocity": 127,
      "chip": "ym2612"
    },
    {
      "channel": 4,
      "note": 75,
      "start": 11.8306,
      "duration": 0.0047,
      "velocity": 127,
      "chip": "ym2612"
    },
    {
      "channel": 2,
      "note": 60,
      "start": 11.8351,
      "duration": 0.0123,
      "velocity": 112,
      "chip": "ym2612"
    },
    {
      "channel": 4,
      "note": 84,
      "start": 11.8357,
      "duration": 0.0044,
      "velocity": 127,
      "chip": "ym2612"
    },
    {
      "channel": 0,
      "note": 48,
      "start": 11.8372,
      "duration": 0.0057,
      "velocity": 127,
      "chip": "ym2612"
    },
    {
      "channel": 1,
      "note": 72,
      "start": 11.8376,
      "duration": 0.0127,
      "velocity": 112,
      "chip": "ym2612"
    },
    {
      "channel": 3,
      "note": 84,
      "start": 11.84,
      "duration": 0.0127,
      "velocity": 112,
      "chip": "ym2612"
    },
    {
      "channel": 4,
      "note": 72,
      "start": 11.8402,
      "duration": 0.0038,
      "velocity": 127,
      "chip": "ym2612"
    },
    {
      "channel": 0,
      "note": 48,
      "start": 11.8433,
      "duration": 0.0066,
      "velocity": 127,
      "chip": "ym2612"
    },
    {
      "channel": 4,
      "note": 79,
      "start": 11.8444,
      "duration": 0.0034,
      "velocity": 127,
      "chip": "ym2612"
    },
    {
      "channel": 2,
      "note": 72,
      "start": 11.8476,
      "duration": 0.012,
      "velocity": 112,
      "chip": "ym2612"
    },
    {
      "channel": 4,
      "note": 75,
      "start": 11.848,
      "duration": 0.0049,
      "velocity": 127,
      "chip": "ym2612"
    },
    {
      "channel": 0,
      "note": 48,
      "start": 11.8502,
      "duration": 0.0056,
      "velocity": 127,
      "chip": "ym2612"
    },
    {
      "channel": 1,
      "note": 60,
      "start": 11.8507,
      "duration": 0.0114,
      "velocity": 112,
      "chip": "ym2612"
    },
    {
      "channel": 3,
      "note": 72,
      "start": 11.8529,
      "duration": 0.0118,
      "velocity": 112,
      "chip": "ym2612"
    },
    {
      "channel": 4,
      "note": 84,
      "start": 11.8532,
      "duration": 0.0038,
      "velocity": 127,
      "chip": "ym2612"
    },
    {
      "channel": 0,
      "note": 48,
      "start": 11.8562,
      "duration": 0.0054,
      "velocity": 127,
      "chip": "ym2612"
    },
    {
      "channel": 4,
      "note": 72,
      "start": 11.8572,
      "duration": 0.0028,
      "velocity": 127,
      "chip": "ym2612"
    },
    {
      "channel": 2,
      "note": 60,
      "start": 11.8598,
      "duration": 0.0129,
      "velocity": 112,
      "chip": "ym2612"
    },
    {
      "channel": 4,
      "note": 87,
      "start": 11.8602,
      "duration": 0.0047,
      "velocity": 127,
      "chip": "ym2612"
    },
    {
      "channel": 0,
      "note": 48,
      "start": 11.862,
      "duration": 0.0123,
      "velocity": 127,
      "chip": "ym2612"
    },
    {
      "channel": 1,
      "note": 61,
      "start": 11.8624,
      "duration": 0.0124,
      "velocity": 112,
      "chip": "ym2612"
    },
    {
      "channel": 3,
      "note": 73,
      "start": 11.8649,
      "duration": 0.012,
      "velocity": 112,
      "chip": "ym2612"
    },
    {
      "channel": 4,
      "note": 75,
      "start": 11.8651,
      "duration": 0.0048,
      "velocity": 127,
      "chip": "ym2612"
    },
    {
      "channel": 4,
      "note": 79,
      "start": 11.8703,
      "duration": 0.0028,
      "velocity": 127,
      "chip": "ym2612"
    },
    {
      "channel": 2,
      "note": 61,
      "start": 11.8729,
      "duration": 0.0127,
      "velocity": 112,
      "chip": "ym2612"
    },
    {
      "channel": 4,
      "note": 84,
      "start": 11.8733,
      "duration": 0.0039,
      "velocity": 127,
      "chip": "ym2612"
    },
    {
      "channel": 0,
      "note": 48,
      "start": 11.8746,
      "duration": 0.0053,
      "velocity": 127,
      "chip": "ym2612"
    },
    {
      "channel": 1,
      "note": 73,
      "start": 11.875,
      "duration": 0.0126,
      "velocity": 112,
      "chip": "ym2612"
    },
    {
      "channel": 3,
      "note": 85,
      "start": 11.8771,
      "duration": 0.0131,
      "velocity": 112,
      "chip": "ym2612"
    },
    {
      "channel": 4,
      "note": 75,
      "start": 11.8775,
      "duration": 0.0034,
      "velocity": 127,
      "chip": "ym2612"
    },
    {
      "channel": 0,
      "note": 48,
      "start": 11.8802,
      "duration": 0.007,
      "velocity": 127,
      "chip": "ym2612"
    },
    {
      "channel": 4,
      "note": 79,
      "start": 11.8814,
      "duration": 0.0046,
      "velocity": 127,
      "chip": "ym2612"
    },
    {
      "channel": 2,
      "note": 73,
      "start": 11.8858,
      "duration": 0.0131,
      "velocity": 112,
      "chip": "ym2612"
    },
    {
      "channel": 4,
      "note": 87,
      "start": 11.8863,
      "duration": 0.0043,
      "velocity": 127,
      "chip": "ym2612"
    },
    {
      "channel": 0,
      "note": 48,
      "start": 11.8876,
      "duration": 0.0075,
      "velocity": 127,
      "chip": "ym2612"
    },
    {
      "channel": 1,
      "note": 61,
      "start": 11.888,
      "duration": 0.0145,
      "velocity": 112,
      "chip": "ym2612"
    },
    {
      "channel": 3,
      "note": 73,
      "start": 11.8905,
      "duration": 0.0141,
      "velocity": 112,
      "chip": "ym2612"
    },
    {
      "channel": 4,
      "note": 75,
      "start": 11.8908,
      "duration": 0.0053,
      "velocity": 127,
      "chip": "ym2612"
    },
    {
      "channel": 0,
      "note": 48,
      "start": 11.8954,
      "duration": 0.0066,
      "velocity": 127,
      "chip": "ym2612"
    },
    {
      "channel": 4,
      "note": 84,
      "start": 11.8964,
      "duration": 0.0029,
      "velocity": 127,
      "chip": "ym2612"
    },
    {
      "channel": 2,
      "note": 61,
      "start": 11.8991,
      "duration": 0.0122,
      "velocity": 112,
      "chip": "ym2612"
    },
    {
      "channel": 4,
      "note": 91,
      "start": 11.8995,
      "duration": 0.0054,
      "velocity": 127,
      "chip": "ym2612"
    },
    {
      "channel": 0,
      "note": 48,
      "start": 11.9024,
      "duration": 0.0119,
      "velocity": 127,
      "chip": "ym2612"
    },
    {
      "channel": 1,
      "note": 63,
      "start": 11.9028,
      "duration": 0.012,
      "velocity": 112,
      "chip": "ym2612"
    },
    {
      "channel": 3,
      "note": 75,
      "start": 11.9048,
      "duration": 0.0123,
      "velocity": 112,
      "chip": "ym2612"
    },
    {
      "channel": 4,
      "note": 72,
      "start": 11.9051,
      "duration": 0.0031,
      "velocity": 127,
      "chip": "ym2612"
    },
    {
      "channel": 4,
      "note": 73,
      "start": 11.9085,
      "duration": 0.0033,
      "velocity": 127,
      "chip": "ym2612"
    },
    {
      "channel": 2,
      "note": 63,
      "start": 11.9116,
      "duration": 0.0138,
      "velocity": 112,
      "chip": "ym2612"
    },
    {
      "channel": 4,
      "note": 77,
      "start": 11.912,
      "duration": 0.0055,
      "velocity": 127,
      "chip": "ym2612"
    },
    {
      "channel": 0,
      "note": 48,
      "start": 11.9147,
      "duration": 0.0068,
      "velocity": 127,
      "chip": "ym2612"
    },
    {
      "channel": 1,
      "note": 75,
      "start": 11.9151,
      "duration": 0.0127,
      "velocity": 112,
      "chip": "ym2612"
    },
    {
      "channel": 3,
      "note": 87,
      "start": 11.9174,
      "duration": 0.0128,
      "velocity": 112,
      "chip": "ym2612"
    },
    {
      "channel": 4,
      "note": 85,
      "start": 11.9177,
      "duration": 0.0049,
      "velocity": 127,
      "chip": "ym2612"
    },
    {
      "channel": 0,
      "note": 48,
      "start": 11.9219,
      "duration": 0.0055,
      "velocity": 127,
      "chip": "ym2612"
    },
    {
      "channel": 4,
      "note": 80,
      "start": 11.923,
      "duration": 0.0028,
      "velocity": 127,
      "chip": "ym2612"
    },
    {
      "channel": 2,
      "note": 75,
      "start": 11.9256,
      "duration": 0.0142,
      "velocity": 112,
      "chip": "ym2612"
    },
    {
      "channel": 4,
      "note": 89,
      "start": 11.9261,
      "duration": 0.0046,
      "velocity": 127,
      "chip": "ym2612"
    },
    {
      "channel": 0,
      "note": 48,
      "start": 11.9277,
      "duration": 0.0072,
      "velocity": 127,
      "chip": "ym2612"
    },
    {
      "channel": 1,
      "note": 63,
      "start": 11.9281,
      "duration": 0.0136,
      "velocity": 112,
      "chip": "ym2612"
    },
    {
      "channel": 3,
      "note": 75,
      "start": 11.9305,
      "duration": 0.0137,
      "velocity": 112,
      "chip": "ym2612"
    },
    {
      "channel": 4,
      "note": 85,
      "start": 11.931,
      "duration": 0.0051,
      "velocity": 127,
      "chip": "ym2612"
    },
    {
      "channel": 0,
      "note": 48,
      "start": 11.9353,
      "duration": 0.0059,
      "velocity": 127,
      "chip": "ym2612"
    },
    {
      "channel": 4,
      "note": 92,
      "start": 11.9365,
      "duration": 0.0038,
      "velocity": 127,
      "chip": "ym2612"
    },
    {
      "channel": 2,
      "note": 63,
      "start": 11.9401,
      "duration": 0.0105,
      "velocity": 112,
      "chip": "ym2612"
    },
    {
      "channel": 4,
      "note": 89,
      "start": 11.9405,
      "duration": 0.004,
      "velocity": 127,
      "chip": "ym2612"
    },
    {
      "channel": 0,
      "note": 48,
      "start": 11.9416,
      "duration": 0.0112,
      "velocity": 127,
      "chip": "ym2612"
    },
    {
      "channel": 1,
      "note": 73,
      "start": 11.942,
      "duration": 0.0112,
      "velocity": 112,
      "chip": "ym2612"
    },
    {
      "channel": 3,
      "note": 85,
      "start": 11.9444,
      "duration": 0.0111,
      "velocity": 112,
      "chip": "ym2612"
    },
    {
      "channel": 4,
      "note": 85,
      "start": 11.9448,
      "duration": 0.0029,
      "velocity": 127,
      "chip": "ym2612"
    },
    {
      "channel": 4,
      "note": 80,
      "start": 11.948,
      "duration": 0.003,
      "velocity": 127,
      "chip": "ym2612"
    },
    {
      "channel": 2,
      "note": 73,
      "start": 11.9508,
      "duration": 0.012,
      "velocity": 112,
      "chip": "ym2612"
    },
    {
      "channel": 4,
      "note": 77,
      "start": 11.9512,
      "duration": 0.0047,
      "velocity": 127,
      "chip": "ym2612"
    },
    {
      "channel": 0,
      "note": 48,
      "start": 11.9532,
      "duration": 0.0055,
      "velocity": 127,
      "chip": "ym2612"
    },
    {
      "channel": 1,
      "note": 61,
      "start": 11.9536,
      "duration": 0.0116,
      "velocity": 112,
      "chip": "ym2612"
    },
    {
      "channel": 3,
      "note": 73,
      "start": 11.9559,
      "duration": 0.0115,
      "velocity": 112,
      "chip": "ym2612"
    },
    {
      "channel": 4,
      "note": 73,
      "start": 11.9562,
      "duration": 0.0035,
      "velocity": 127,
      "chip": "ym2612"
    },
    {
      "channel": 0,
      "note": 48,
      "start": 11.9589,
      "duration": 0.0058,
      "velocity": 127,
      "chip": "ym2612"
    },
    {
      "channel": 4,
      "note": 77,
      "start": 11.9602,
      "duration": 0.003,
      "velocity": 127,
      "chip": "ym2612"
    },
    {
      "channel": 2,
      "note": 61,
      "start": 11.9631,
      "duration": 0.0118,
      "velocity": 112,
      "chip": "ym2612"
    },
    {
      "channel": 4,
      "note": 80,
      "start": 11.9634,
      "duration": 0.0041,
      "velocity": 127,
      "chip": "ym2612"
    },
    {
      "channel": 0,
      "note": 60,
      "start": 11.9651,
      "duration": 0.006,
      "velocity": 127,
      "chip": "ym2612"
    },
    {
      "channel": 1,
      "note": 73,
      "start": 11.9655,
      "duration": 0.0137,
      "velocity": 106,
      "chip": "ym2612"
    },
    {
      "channel": 3,
      "note": 85,
      "start": 11.9675,
      "duration": 0.0153,
      "velocity": 115,
      "chip": "ym2612"
    },
    {
      "channel": 4,
      "note": 89,
      "start": 11.9678,
      "duration": 0.0044,
      "velocity": 127,
      "chip": "ym2612"
    },
    {
      "channel": 0,
      "note": 48,
      "start": 11.9714,
      "duration": 0.0057,
      "velocity": 127,
      "chip": "ym2612"
    },
    {
      "channel": 4,
      "note": 85,
      "start": 11.9725,
      "duration": 0.0028,
      "velocity": 127,
      "chip": "ym2612"
    },
    {
      "channel": 2,
      "note": 73,
      "start": 11.9751,
      "duration": 0.018,
      "velocity": 99,
      "chip": "ym2612"
    },
    {
      "channel": 4,
      "note": 92,
      "start": 11.9755,
      "duration": 0.0076,
      "velocity": 127,
      "chip": "ym2612"
    },
    {
      "channel": 0,
      "note": 55,
      "start": 11.9775,
      "duration": 0.0085,
      "velocity": 127,
      "chip": "ym2612"
    },
    {
      "channel": 1,
      "note": 67,
      "start": 11.9794,
      "duration": 0.007,
      "velocity": 106,
      "chip": "ym2612"
    },
    {
      "channel": 3,
      "note": 55,
      "start": 11.9831,
      "duration": 0.0066,
      "velocity": 115,
      "chip": "ym2612"
    },
    {
      "channel": 4,
      "note": 55,
      "start": 11.9833,
      "duration": 0.0067,
      "velocity": 127,
      "chip": "ym2612"
    },
    {
      "channel": 0,
      "note": 60,
      "start": 11.9863,
      "duration": 0.0079,
      "velocity": 127,
      "chip": "ym2612"
    },
    {
      "channel": 1,
      "note": 72,
      "start": 11.9867,
      "duration": 0.0078,
      "velocity": 106,
      "chip": "ym2612"
    },
    {
      "channel": 3,
      "note": 60,
      "start": 11.99,
      "duration": 0.0072,
      "velocity": 115,
      "chip": "ym2612"
    },
    {
      "channel": 4,
      "note": 60,
      "start": 11.9903,
      "duration": 0.0073,
      "velocity": 127,
      "chip": "ym2612"
    },
    {
      "channel": 2,
      "note": 67,
      "start": 11.9934,
      "duration": 0.0059,
      "velocity": 99,
      "chip": "ym2612"
    },
    {
      "channel": 0,
      "note": 63,
      "start": 11.9945,
      "duration": 0.0072,
      "velocity": 127,
      "chip": "ym2612"
    },
    {
      "channel": 1,
      "note": 75,
      "start": 11.9949,
      "duration": 0.0073,
      "velocity": 106,
      "chip": "ym2612"
    },
    {
      "channel": 3,
      "note": 63,
      "start": 11.9975,
      "duration": 0.0071,
      "velocity": 115,
      "chip": "ym2612"
    },
    {
      "channel": 4,
      "note": 63,
      "start": 11.9978,
      "duration": 0.0072,
      "velocity": 127,
      "chip": "ym2612"
    },
    {
      "channel": 2,
      "note": 72,
      "start": 11.9995,
      "duration": 0.0067,
      "velocity": 99,
      "chip": "ym2612"
    },
    {
      "channel": 0,
      "note": 55,
      "start": 12.0021,
      "duration": 0.0061,
      "velocity": 127,
      "chip": "ym2612"
    },
    {
      "channel": 1,
      "note": 67,
      "start": 12.0025,
      "duration": 0.0062,
      "velocity": 106,
      "chip": "ym2612"
    },
    {
      "channel": 3,
      "note": 55,
      "start": 12.0049,
      "duration": 0.0066,
      "velocity": 115,
      "chip": "ym2612"
    },
    {
      "channel": 4,
      "note": 55,
      "start": 12.0051,
      "duration": 0.0068,
      "velocity": 127,
      "chip": "ym2612"
    },
    {
      "channel": 2,
      "note": 75,
      "start": 12.0064,
      "duration": 0.0071,
      "velocity": 99,
      "chip": "ym2612"
    },
    {
      "channel": 0,
      "note": 61,
      "start": 12.0087,
      "duration": 0.0494,
      "velocity": 127,
      "chip": "ym2612"
    },
    {
      "channel": 1,
      "note": 73,
      "start": 12.0091,
      "duration": 0.0508,
      "velocity": 127,
      "chip": "ym2612"
    },
    {
      "channel": 3,
      "note": 61,
      "start": 12.0118,
      "duration": 0.0505,
      "velocity": 79,
      "chip": "ym2612"
    },
    {
      "channel": 4,
      "note": 61,
      "start": 12.0123,
      "duration": 0.0514,
      "velocity": 96,
      "chip": "ym2612"
    },
    {
      "channel": 2,
      "note": 67,
      "start": 12.0137,
      "duration": 0.0058,
      "velocity": 99,
      "chip": "ym2612"
    },
    {
      "channel": 2,
      "note": 73,
      "start": 12.0197,
      "duration": 0.0469,
      "velocity": 127,
      "chip": "ym2612"
    },
    {
      "channel": 0,
      "note": 49,
      "start": 12.0686,
      "duration": 0.0136,
      "velocity": 127,
      "chip": "ym2612"
    },
    {
      "channel": 1,
      "note": 49,
      "start": 12.069,
      "duration": 0.0137,
      "velocity": 127,
      "chip": "ym2612"
    },
    {
      "channel": 3,
      "note": 49,
      "start": 12.0707,
      "duration": 0.0155,
      "velocity": 79,
      "chip": "ym2612"
    },
    {
      "channel": 4,
      "note": 49,
      "start": 12.071,
      "duration": 0.0155,
      "velocity": 96,
      "chip": "ym2612"
    },
    {
      "channel": 2,
      "note": 49,
      "start": 12.0765,
      "duration": 0.0161,
      "velocity": 127,
      "chip": "ym2612"
    },
    {
      "channel": 0,
      "note": 61,
      "start": 12.0826,
      "duration": 0.0151,
      "velocity": 127,
      "chip": "ym2612"
    },
    {
      "channel": 1,
      "note": 61,
      "start": 12.0831,
      "duration": 0.0149,
      "velocity": 127,
      "chip": "ym2612"
    },
    {
      "channel": 3,
      "note": 61,
      "start": 12.0865,
      "duration": 0.015,
      "velocity": 79,
      "chip": "ym2612"
    },
    {
      "channel": 4,
      "note": 61,
      "start": 12.0868,
      "duration": 0.0149,
      "velocity": 96,
      "chip": "ym2612"
    },
    {
      "channel": 2,
      "note": 61,
      "start": 12.0929,
      "duration": 0.0148,
      "velocity": 127,
      "chip": "ym2612"
    },
    {
      "channel": 0,
      "note": 60,
      "start": 12.0979,
      "duration": 0.0148,
      "velocity": 127,
      "chip": "ym2612"
    },
    {
      "channel": 1,
      "note": 60,
      "start": 12.0984,
      "duration": 0.0146,
      "velocity": 127,
      "chip": "ym2612"
    },
    {
      "channel": 3,
      "note": 60,
      "start": 12.1016,
      "duration": 0.0138,
      "velocity": 79,
      "chip": "ym2612"
    },
    {
      "channel": 4,
      "note": 60,
      "start": 12.102,
      "duration": 0.0138,
      "velocity": 96,
      "chip": "ym2612"
    },
    {
      "channel": 2,
      "note": 60,
      "start": 12.1079,
      "duration": 0.0139,
      "velocity": 127,
      "chip": "ym2612"
    },
    {
      "channel": 0,
      "note": 49,
      "start": 12.113,
      "duration": 0.0496,
      "velocity": 127,
      "chip": "ym2612"
    },
    {
      "channel": 1,
      "note": 49,
      "start": 12.1134,
      "duration": 0.0496,
      "velocity": 127,
      "chip": "ym2612"
    },
    {
      "channel": 3,
      "note": 49,
      "start": 12.1157,
      "duration": 0.0498,
      "velocity": 79,
      "chip": "ym2612"
    },
    {
      "channel": 4,
      "note": 49,
      "start": 12.116,
      "duration": 0.0497,
      "velocity": 96,
      "chip": "ym2612"
    },
    {
      "channel": 2,
      "note": 49,
      "start": 12.1221,
      "duration": 0.0498,
      "velocity": 127,
      "chip": "ym2612"
    },
    {
      "channel": 0,
      "note": 58,
      "start": 12.163,
      "duration": 0.0138,
      "velocity": 127,
      "chip": "ym2612"
    },
    {
      "channel": 1,
      "note": 58,
      "start": 12.1634,
      "duration": 0.0137,
      "velocity": 127,
      "chip": "ym2612"
    },
    {
      "channel": 3,
      "note": 58,
      "start": 12.1656,
      "duration": 0.0132,
      "velocity": 79,
      "chip": "ym2612"
    },
    {
      "channel": 4,
      "note": 58,
      "start": 12.1659,
      "duration": 0.013,
      "velocity": 96,
      "chip": "ym2612"
    },
    {
      "channel": 2,
      "note": 58,
      "start": 12.1721,
      "duration": 0.0105,
      "velocity": 127,
      "chip": "ym2612"
    },
    {
      "channel": 0,
      "note": 48,
      "start": 12.1917,
      "duration": 0.0251,
      "velocity": 127,
      "chip": "ym2612"
    },
    {
      "channel": 1,
      "note": 72,
      "start": 12.1934,
      "duration": 0.0256,
      "velocity": 111,
      "chip": "ym2612"
    },
    {
      "channel": 3,
      "note": 72,
      "start": 12.1957,
      "duration": 0.0062,
      "velocity": 115,
      "chip": "ym2612"
    },
    {
      "channel": 4,
      "note": 96,
      "start": 12.1974,
      "duration": 0.0127,
      "velocity": 115,
      "chip": "ym2612"
    },
    {
      "channel": 3,
      "note": 77,
      "start": 12.2022,
      "duration": 0.0077,
      "velocity": 115,
      "chip": "ym2612"
    },
    {
      "channel": 2,
      "note": 72,
      "start": 12.205,
      "duration": 0.0255,
      "velocity": 111,
      "chip": "ym2612"
    },
    {
      "channel": 3,
      "note": 79,
      "start": 12.21,
      "duration": 0.0038,
      "velocity": 115,
      "chip": "ym2612"
    },
    {
      "channel": 3,
      "note": 82,
      "start": 12.2142,
      "duration": 0.006,
      "velocity": 115,
      "chip": "ym2612"
    },
    {
      "channel": 3,
      "note": 72,
      "start": 12.2204,
      "duration": 0.0068,
      "velocity": 115,
      "chip": "ym2612"
    },
    {
      "channel": 4,
      "note": 82,
      "start": 12.2221,
      "duration": 0.3204,
      "velocity": 111,
      "chip": "ym2612"
    },
    {
      "channel": 1,
      "note": 82,
      "start": 12.2253,
      "duration": 0.3197,
      "velocity": 111,
      "chip": "ym2612"
    },
    {
      "channel": 3,
      "note": 82,
      "start": 12.2329,
      "duration": 0.0059,
      "velocity": 115,
      "chip": "ym2612"
    },
    {
      "channel": 2,
      "note": 82,
      "start": 12.2344,
      "duration": 0.4036,
      "velocity": 111,
      "chip": "ym2612"
    },
    {
      "channel": 3,
      "note": 72,
      "start": 12.2426,
      "duration": 0.0086,
      "velocity": 115,
      "chip": "ym2612"
    },
    {
      "channel": 3,
      "note": 81,
      "start": 12.3682,
      "duration": 0.0682,
      "velocity": 115,
      "chip": "ym2612"
    },
    {
      "channel": 3,
      "note": 72,
      "start": 12.4422,
      "duration": 0.0064,
      "velocity": 115,
      "chip": "ym2612"
    },
    {
      "channel": 3,
      "note": 77,
      "start": 12.4535,
      "duration": 0.0059,
      "velocity": 115,
      "chip": "ym2612"
    },
    {
      "channel": 3,
      "note": 79,
      "start": 12.4974,
      "duration": 0.0055,
      "velocity": 115,
      "chip": "ym2612"
    },
    {
      "channel": 3,
      "note": 77,
      "start": 12.5032,
      "duration": 0.0064,
      "velocity": 115,
      "chip": "ym2612"
    },
    {
      "channel": 3,
      "note": 72,
      "start": 12.5097,
      "duration": 0.0041,
      "velocity": 115,
      "chip": "ym2612"
    },
    {
      "channel": 3,
      "note": 82,
      "start": 12.514,
      "duration": 0.006,
      "velocity": 115,
      "chip": "ym2612"
    },
    {
      "channel": 3,
      "note": 72,
      "start": 12.5203,
      "duration": 0.0057,
      "velocity": 115,
      "chip": "ym2612"
    },
    {
      "channel": 3,
      "note": 81,
      "start": 12.5307,
      "duration": 0.0075,
      "velocity": 115,
      "chip": "ym2612"
    },
    {
      "channel": 3,
      "note": 77,
      "start": 12.5424,
      "duration": 0.0088,
      "velocity": 115,
      "chip": "ym2612"
    },
    {
      "channel": 4,
      "note": 81,
      "start": 12.5427,
      "duration": 0.0983,
      "velocity": 111,
      "chip": "ym2612"
    },
    {
      "channel": 1,
      "note": 81,
      "start": 12.5452,
      "duration": 0.0991,
      "velocity": 111,
      "chip": "ym2612"
    },
    {
      "channel": 3,
      "note": 72,
      "start": 12.6367,
      "duration": 0.0042,
      "velocity": 115,
      "chip": "ym2612"
    },
    {
      "channel": 2,
      "note": 81,
      "start": 12.6382,
      "duration": 0.0159,
      "velocity": 111,
      "chip": "ym2612"
    },
    {
      "channel": 4,
      "note": 79,
      "start": 12.6412,
      "duration": 0.0739,
      "velocity": 111,
      "chip": "ym2612"
    },
    {
      "channel": 1,
      "note": 79,
      "start": 12.6446,
      "duration": 0.0734,
      "velocity": 111,
      "chip": "ym2612"
    },
    {
      "channel": 3,
      "note": 79,
      "start": 12.647,
      "duration": 0.0058,
      "velocity": 115,
      "chip": "ym2612"
    },
    {
      "channel": 2,
      "note": 79,
      "start": 12.6543,
      "duration": 0.0738,
      "velocity": 111,
      "chip": "ym2612"
    },
    {
      "channel": 0,
      "note": 46,
      "start": 12.6557,
      "duration": 0.0444,
      "velocity": 127,
      "chip": "ym2612"
    },
    {
      "channel": 3,
      "note": 77,
      "start": 12.658,
      "duration": 0.0069,
      "velocity": 115,
      "chip": "ym2612"
    },
    {
      "channel": 3,
      "note": 70,
      "start": 12.6651,
      "duration": 0.0377,
      "velocity": 115,
      "chip": "ym2612"
    },
    {
      "channel": 0,
      "note": 48,
      "start": 12.7004,
      "duration": 0.0118,
      "velocity": 127,
      "chip": "ym2612"
    },
    {
      "channel": 0,
      "note": 48,
      "start": 12.7126,
      "duration": 0.0107,
      "velocity": 127,
      "chip": "ym2612"
    },
    {
      "channel": 3,
      "note": 72,
      "start": 12.715,
      "duration": 0.005,
      "velocity": 115,
      "chip": "ym2612"
    },
    {
      "channel": 4,
      "note": 77,
      "start": 12.7153,
      "duration": 0.0214,
      "velocity": 111,
      "chip": "ym2612"
    },
    {
      "channel": 1,
      "note": 77,
      "start": 12.7183,
      "duration": 0.0227,
      "velocity": 111,
      "chip": "ym2612"
    },
    {
      "channel": 3,
      "note": 77,
      "start": 12.7258,
      "duration": 0.0061,
      "velocity": 115,
      "chip": "ym2612"
    },
    {
      "channel": 2,
      "note": 77,
      "start": 12.7284,
      "duration": 0.0212,
      "velocity": 111,
      "chip": "ym2612"
    },
    {
      "channel": 3,
      "note": 79,
      "start": 12.7366,
      "duration": 0.0072,
      "velocity": 115,
      "chip": "ym2612"
    },
    {
      "channel": 4,
      "note": 72,
      "start": 12.737,
      "duration": 0.36,
      "velocity": 111,
      "chip": "ym2612"
    },
    {
      "channel": 1,
      "note": 72,
      "start": 12.7413,
      "duration": 0.3584,
      "velocity": 111,
      "chip": "ym2612"
    },
    {
      "channel": 3,
      "note": 72,
      "start": 12.7441,
      "duration": 0.0041,
      "velocity": 115,
      "chip": "ym2612"
    },
    {
      "channel": 3,
      "note": 84,
      "start": 12.7485,
      "duration": 0.0086,
      "velocity": 115,
      "chip": "ym2612"
    },
    {
      "channel": 2,
      "note": 72,
      "start": 12.7498,
      "duration": 0.3583,
      "velocity": 111,
      "chip": "ym2612"
    },
    {
      "channel": 3,
      "note": 72,
      "start": 12.8741,
      "duration": 0.0997,
      "velocity": 115,
      "chip": "ym2612"
    },
    {
      "channel": 3,
      "note": 82,
      "start": 13.0426,
      "duration": 0.0056,
      "velocity": 115,
      "chip": "ym2612"
    },
    {
      "channel": 3,
      "note": 72,
      "start": 13.0527,
      "duration": 0.0062,
      "velocity": 115,
      "chip": "ym2612"
    },
    {
      "channel": 3,
      "note": 81,
      "start": 13.0969,
      "duration": 0.0045,
      "velocity": 115,
      "chip": "ym2612"
    },
    {
      "channel": 3,
      "note": 72,
      "start": 13.1015,
      "duration": 0.005,
      "velocity": 115,
      "chip": "ym2612"
    },
    {
      "channel": 4,
      "note": 65,
      "start": 13.1018,
      "duration": 0.0053,
      "velocity": 111,
      "chip": "ym2612"
    },
    {
      "channel": 1,
      "note": 65,
      "start": 13.1043,
      "duration": 0.0049,
      "velocity": 111,
      "chip": "ym2612"
    },
    {
      "channel": 3,
      "note": 77,
      "start": 13.1068,
      "duration": 0.0035,
      "velocity": 115,
      "chip": "ym2612"
    },
    {
      "channel": 4,
      "note": 67,
      "start": 13.1071,
      "duration": 0.0036,
      "velocity": 111,
      "chip": "ym2612"
    },
    {
      "channel": 1,
      "note": 67,
      "start": 13.1093,
      "duration": 0.0051,
      "velocity": 111,
      "chip": "ym2612"
    },
    {
      "channel": 3,
      "note": 79,
      "start": 13.1106,
      "duration": 0.0061,
      "velocity": 115,
      "chip": "ym2612"
    },
    {
      "channel": 4,
      "note": 69,
      "start": 13.111,
      "duration": 0.0064,
      "velocity": 111,
      "chip": "ym2612"
    },
    {
      "channel": 2,
      "note": 65,
      "start": 13.112,
      "duration": 0.0079,
      "velocity": 111,
      "chip": "ym2612"
    },
    {
      "channel": 1,
      "note": 69,
      "start": 13.1146,
      "duration": 0.0068,
      "velocity": 111,
      "chip": "ym2612"
    },
    {
      "channel": 3,
      "note": 72,
      "start": 13.117,
      "duration": 0.0064,
      "velocity": 115,
      "chip": "ym2612"
    },
    {
      "channel": 4,
      "note": 70,
      "start": 13.1173,
      "duration": 0.0063,
      "velocity": 111,
      "chip": "ym2612"
    },
    {
      "channel": 2,
      "note": 67,
      "start": 13.1199,
      "duration": 0.0048,
      "velocity": 111,
      "chip": "ym2612"
    },
    {
      "channel": 1,
      "note": 70,
      "start": 13.1215,
      "duration": 0.0048,
      "velocity": 111,
      "chip": "ym2612"
    },
    {
      "channel": 4,
      "note": 67,
      "start": 13.1236,
      "duration": 0.0049,
      "velocity": 111,
      "chip": "ym2612"
    },
    {
      "channel": 2,
      "note": 69,
      "start": 13.125,
      "duration": 0.0048,
      "velocity": 111,
      "chip": "ym2612"
    },
    {
      "channel": 1,
      "note": 67,
      "start": 13.1263,
      "duration": 0.0059,
      "velocity": 111,
      "chip": "ym2612"
    },
    {
      "channel": 3,
      "note": 81,
      "start": 13.1282,
      "duration": 0.0068,
      "velocity": 115,
      "chip": "ym2612"
    },
    {
      "channel": 4,
      "note": 69,
      "start": 13.1285,
      "duration": 0.0066,
      "velocity": 111,
      "chip": "ym2612"
    },
    {
      "channel": 2,
      "note": 70,
      "start": 13.1298,
      "duration": 0.0066,
      "velocity": 111,
      "chip": "ym2612"
    },
    {
      "channel": 1,
      "note": 69,
      "start": 13.1322,
      "duration": 0.0051,
      "velocity": 111,
      "chip": "ym2612"
    },
    {
      "channel": 4,
      "note": 70,
      "start": 13.1353,
      "duration": 0.0129,
      "velocity": 111,
      "chip": "ym2612"
    },
    {
      "channel": 2,
      "note": 67,
      "start": 13.1364,
      "duration": 0.0043,
      "velocity": 111,
      "chip": "ym2612"
    },
    {
      "channel": 1,
      "note": 70,
      "start": 13.1375,
      "duration": 0.0936,
      "velocity": 111,
      "chip": "ym2612"
    },
    {
      "channel": 3,
      "note": 82,
      "start": 13.1392,
      "duration": 0.0088,
      "velocity": 115,
      "chip": "ym2612"
    },
    {
      "channel": 2,
      "note": 69,
      "start": 13.1406,
      "duration": 0.0405,
      "velocity": 111,
      "chip": "ym2612"
    },
    {
      "channel": 4,
      "note": 72,
      "start": 13.1486,
      "duration": 0.0849,
      "velocity": 111,
      "chip": "ym2612"
    },
    {
      "channel": 2,
      "note": 70,
      "start": 13.1815,
      "duration": 0.0574,
      "velocity": 111,
      "chip": "ym2612"
    },
    {
      "channel": 1,
      "note": 72,
      "start": 13.2314,
      "duration": 0.0045,
      "velocity": 111,
      "chip": "ym2612"
    },
    {
      "channel": 3,
      "note": 81,
      "start": 13.2334,
      "duration": 0.0044,
      "velocity": 115,
      "chip": "ym2612"
    },
    {
      "channel": 4,
      "note": 74,
      "start": 13.2337,
      "duration": 0.0042,
      "velocity": 111,
      "chip": "ym2612"
    },
    {
      "channel": 1,
      "note": 74,
      "start": 13.2362,
      "duration": 0.005,
      "velocity": 111,
      "chip": "ym2612"
    },
    {
      "channel": 4,
      "note": 72,
      "start": 13.2381,
      "duration": 0.0058,
      "velocity": 111,
      "chip": "ym2612"
    },
    {
      "channel": 2,
      "note": 72,
      "start": 13.2391,
      "duration": 0.0067,
      "velocity": 111,
      "chip": "ym2612"
    },
    {
      "channel": 1,
      "note": 72,
      "start": 13.2415,
      "duration": 0.006,
      "velocity": 111,
      "chip": "ym2612"
    },
    {
      "channel": 3,
      "note": 79,
      "start": 13.2437,
      "duration": 0.0057,
      "velocity": 115,
      "chip": "ym2612"
    },
    {
      "channel": 4,
      "note": 74,
      "start": 13.2439,
      "duration": 0.0055,
      "velocity": 111,
      "chip": "ym2612"
    },
    {
      "channel": 2,
      "note": 74,
      "start": 13.246,
      "duration": 0.005,
      "velocity": 111,
      "chip": "ym2612"
    },
    {
      "channel": 1,
      "note": 74,
      "start": 13.2475,
      "duration": 0.0071,
      "velocity": 112,
      "chip": "ym2612"
    },
    {
      "channel": 4,
      "note": 75,
      "start": 13.2498,
      "duration": 0.0076,
      "velocity": 111,
      "chip": "ym2612"
    },
    {
      "channel": 2,
      "note": 72,
      "start": 13.2514,
      "duration": 0.0079,
      "velocity": 111,
      "chip": "ym2612"
    },
    {
      "channel": 0,
      "note": 46,
      "start": 13.2529,
      "duration": 0.0463,
      "velocity": 127,
      "chip": "ym2612"
    },
    {
      "channel": 1,
      "note": 72,
      "start": 13.2548,
      "duration": 0.0448,
      "velocity": 112,
      "chip": "ym2612"
    },
    {
      "channel": 3,
      "note": 77,
      "start": 13.2571,
      "duration": 0.0073,
      "velocity": 115,
      "chip": "ym2612"
    },
    {
      "channel": 4,
      "note": 79,
      "start": 13.2574,
      "duration": 0.0072,
      "velocity": 111,
      "chip": "ym2612"
    },
    {
      "channel": 2,
      "note": 74,
      "start": 13.2592,
      "duration": 0.0088,
      "velocity": 112,
      "chip": "ym2612"
    },
    {
      "channel": 4,
      "note": 77,
      "start": 13.2648,
      "duration": 0.0388,
      "velocity": 115,
      "chip": "ym2612"
    },
    {
      "channel": 2,
      "note": 72,
      "start": 13.2683,
      "duration": 0.0437,
      "velocity": 112,
      "chip": "ym2612"
    },
    {
      "channel": 0,
      "note": 48,
      "start": 13.2995,
      "duration": 0.025,
      "velocity": 127,
      "chip": "ym2612"
    },
    {
      "channel": 1,
      "note": 72,
      "start": 13.2999,
      "duration": 0.0268,
      "velocity": 111,
      "chip": "ym2612"
    },
    {
      "channel": 3,
      "note": 72,
      "start": 13.3022,
      "duration": 0.0084,
      "velocity": 115,
      "chip": "ym2612"
    },
    {
      "channel": 4,
      "note": 96,
      "start": 13.3038,
      "duration": 0.0138,
      "velocity": 115,
      "chip": "ym2612"
    },
    {
      "channel": 3,
      "note": 77,
      "start": 13.3108,
      "duration": 0.0065,
      "velocity": 115,
      "chip": "ym2612"
    },
    {
      "channel": 2,
      "note": 72,
      "start": 13.3123,
      "duration": 0.0263,
      "velocity": 111,
      "chip": "ym2612"
    },
    {
      "channel": 3,
      "note": 79,
      "start": 13.3176,
      "duration": 0.004,
      "velocity": 115,
      "chip": "ym2612"
    },
    {
      "channel": 3,
      "note": 82,
      "start": 13.3218,
      "duration": 0.0062,
      "velocity": 115,
      "chip": "ym2612"
    },
    {
      "channel": 3,
      "note": 72,
      "start": 13.3282,
      "duration": 0.0071,
      "velocity": 115,
      "chip": "ym2612"
    },
    {
      "channel": 4,
      "note": 82,
      "start": 13.33,
      "duration": 0.0206,
      "velocity": 111,
      "chip": "ym2612"
    },
    {
      "channel": 1,
      "note": 82,
      "start": 13.3334,
      "duration": 0.0197,
      "velocity": 111,
      "chip": "ym2612"
    },
    {
      "channel": 3,
      "note": 82,
      "start": 13.3409,
      "duration": 0.0058,
      "velocity": 115,
      "chip": "ym2612"
    },
    {
      "channel": 2,
      "note": 82,
      "start": 13.3423,
      "duration": 0.1668,
      "velocity": 111,
      "chip": "ym2612"
    },
    {
      "channel": 3,
      "note": 72,
      "start": 13.3506,
      "duration": 0.0088,
      "velocity": 115,
      "chip": "ym2612"
    },
    {
      "channel": 4,
      "note": 79,
      "start": 13.3509,
      "duration": 0.0087,
      "velocity": 111,
      "chip": "ym2612"
    },
    {
      "channel": 1,
      "note": 79,
      "start": 13.3532,
      "duration": 0.089,
      "velocity": 111,
      "chip": "ym2612"
    },
    {
      "channel": 4,
      "note": 77,
      "start": 13.3599,
      "duration": 0.1169,
      "velocity": 111,
      "chip": "ym2612"
    },
    {
      "channel": 1,
      "note": 77,
      "start": 13.4426,
      "duration": 0.1001,
      "velocity": 111,
      "chip": "ym2612"
    },
    {
      "channel": 3,
      "note": 81,
      "start": 13.4764,
      "duration": 0.0684,
      "velocity": 115,
      "chip": "ym2612"
    },
    {
      "channel": 4,
      "note": 79,
      "start": 13.4768,
      "duration": 0.068,
      "velocity": 111,
      "chip": "ym2612"
    },
    {
      "channel": 2,
      "note": 79,
      "start": 13.5095,
      "duration": 0.0365,
      "velocity": 111,
      "chip": "ym2612"
    },
    {
      "channel": 1,
      "note": 79,
      "start": 13.5427,
      "duration": 0.0054,
      "velocity": 111,
      "chip": "ym2612"
    },
    {
      "channel": 4,
      "note": 81,
      "start": 13.545,
      "duration": 0.0059,
      "velocity": 111,
      "chip": "ym2612"
    },
    {
      "channel": 2,
      "note": 77,
      "start": 13.5461,
      "duration": 0.007,
      "velocity": 111,
      "chip": "ym2612"
    },
    {
      "channel": 1,
      "note": 81,
      "start": 13.5484,
      "duration": 0.0063,
      "velocity": 111,
      "chip": "ym2612"
    },
    {
      "channel": 3,
      "note": 72,
      "start": 13.5506,
      "duration": 0.006,
      "velocity": 115,
      "chip": "ym2612"
    },
    {
      "channel": 4,
      "note": 82,
      "start": 13.5509,
      "duration": 0.006,
      "velocity": 111,
      "chip": "ym2612"
    },
    {
      "channel": 2,
      "note": 79,
      "start": 13.5532,
      "duration": 0.0049,
      "velocity": 111,
      "chip": "ym2612"
    },
    {
      "channel": 1,
      "note": 82,
      "start": 13.5548,
      "duration": 0.0048,
      "velocity": 111,
      "chip": "ym2612"
    },
    {
      "channel": 4,
      "note": 84,
      "start": 13.5569,
      "duration": 0.0047,
      "velocity": 111,
      "chip": "ym2612"
    },
    {
      "channel": 2,
      "note": 81,
      "start": 13.5584,
      "duration": 0.005,
      "velocity": 111,
      "chip": "ym2612"
    },
    {
      "channel": 1,
      "note": 84,
      "start": 13.5595,
      "duration": 0.0052,
      "velocity": 111,
      "chip": "ym2612"
    },
    {
      "channel": 3,
      "note": 77,
      "start": 13.5615,
      "duration": 0.0062,
      "velocity": 115,
      "chip": "ym2612"
    },
    {
      "channel": 4,
      "note": 86,
      "start": 13.5619,
      "duration": 0.0061,
      "velocity": 111,
      "chip": "ym2612"
    },
    {
      "channel": 2,
      "note": 82,
      "start": 13.5634,
      "duration": 0.0072,
      "velocity": 111,
      "chip": "ym2612"
    },
    {
      "channel": 1,
      "note": 86,
      "start": 13.565,
      "duration": 0.0385,
      "velocity": 111,
      "chip": "ym2612"
    },
    {
      "channel": 3,
      "note": 79,
      "start": 13.568,
      "duration": 0.0378,
      "velocity": 115,
      "chip": "ym2612"
    },
    {
      "channel": 4,
      "note": 89,
      "start": 13.5682,
      "duration": 0.0703,
      "velocity": 111,
      "chip": "ym2612"
    },
    {
      "channel": 2,
      "note": 84,
      "start": 13.5705,
      "duration": 0.0367,
      "velocity": 111,
      "chip": "ym2612"
    },
    {
      "channel": 1,
      "note": 89,
      "start": 13.6039,
      "duration": 0.0389,
      "velocity": 111,
      "chip": "ym2612"
    },
    {
      "channel": 3,
      "note": 81,
      "start": 13.6061,
      "duration": 0.0056,
      "velocity": 115,
      "chip": "ym2612"
    },
    {
      "channel": 2,
      "note": 86,
      "start": 13.6075,
      "duration": 0.005,
      "velocity": 111,
      "chip": "ym2612"
    },
    {
      "channel": 2,
      "note": 89,
      "start": 13.6127,
      "duration": 0.0386,
      "velocity": 111,
      "chip": "ym2612"
    },
    {
      "channel": 3,
      "note": 72,
      "start": 13.6178,
      "duration": 0.004,
      "velocity": 115,
      "chip": "ym2612"
    },
    {
      "channel": 3,
      "note": 82,
      "start": 13.6275,
      "duration": 0.0062,
      "velocity": 115,
      "chip": "ym2612"
    },
    {
      "channel": 3,
      "note": 81,
      "start": 13.6385,
      "duration": 0.0073,
      "velocity": 115,
      "chip": "ym2612"
    },
    {
      "channel": 4,
      "note": 87,
      "start": 13.6388,
      "duration": 0.0071,
      "velocity": 111,
      "chip": "ym2612"
    },
    {
      "channel": 1,
      "note": 87,
      "start": 13.6432,
      "duration": 0.0046,
      "velocity": 111,
      "chip": "ym2612"
    },
    {
      "channel": 4,
      "note": 91,
      "start": 13.6462,
      "duration": 0.0038,
      "velocity": 111,
      "chip": "ym2612"
    },
    {
      "channel": 1,
      "note": 91,
      "start": 13.6481,
      "duration": 0.0046,
      "velocity": 111,
      "chip": "ym2612"
    },
    {
      "channel": 3,
      "note": 79,
      "start": 13.6499,
      "duration": 0.0089,
      "velocity": 115,
      "chip": "ym2612"
    },
    {
      "channel": 4,
      "note": 89,
      "start": 13.6502,
      "duration": 0.0087,
      "velocity": 111,
      "chip": "ym2612"
    },
    {
      "channel": 2,
      "note": 87,
      "start": 13.6515,
      "duration": 0.0403,
      "velocity": 111,
      "chip": "ym2612"
    },
    {
      "channel": 1,
      "note": 89,
      "start": 13.6529,
      "duration": 0.0889,
      "velocity": 111,
      "chip": "ym2612"
    },
    {
      "channel": 4,
      "note": 87,
      "start": 13.6593,
      "duration": 0.0849,
      "velocity": 111,
      "chip": "ym2612"
    },
    {
      "channel": 2,
      "note": 91,
      "start": 13.6922,
      "duration": 0.0532,
      "velocity": 111,
      "chip": "ym2612"
    },
    {
      "channel": 1,
      "note": 87,
      "start": 13.7421,
      "duration": 0.0046,
      "velocity": 111,
      "chip": "ym2612"
    },
    {
      "channel": 3,
      "note": 77,
      "start": 13.7441,
      "duration": 0.0044,
      "velocity": 115,
      "chip": "ym2612"
    },
    {
      "channel": 4,
      "note": 84,
      "start": 13.7443,
      "duration": 0.0042,
      "velocity": 111,
      "chip": "ym2612"
    },
    {
      "channel": 2,
      "note": 89,
      "start": 13.7456,
      "duration": 0.0042,
      "velocity": 111,
      "chip": "ym2612"
    },
    {
      "channel": 1,
      "note": 84,
      "start": 13.7469,
      "duration": 0.0051,
      "velocity": 111,
      "chip": "ym2612"
    },
    {
      "channel": 4,
      "note": 87,
      "start": 13.7488,
      "duration": 0.0807,
      "velocity": 111,
      "chip": "ym2612"
    },
    {
      "channel": 2,
      "note": 87,
      "start": 13.7499,
      "duration": 0.0068,
      "velocity": 111,
      "chip": "ym2612"
    },
    {
      "channel": 1,
      "note": 87,
      "start": 13.7524,
      "duration": 0.0802,
      "velocity": 111,
      "chip": "ym2612"
    },
    {
      "channel": 3,
      "note": 75,
      "start": 13.7548,
      "duration": 0.0059,
      "velocity": 115,
      "chip": "ym2612"
    },
    {
      "channel": 2,
      "note": 84,
      "start": 13.7571,
      "duration": 0.0049,
      "velocity": 111,
      "chip": "ym2612"
    },
    {
      "channel": 2,
      "note": 87,
      "start": 13.7622,
      "duration": 0.0801,
      "velocity": 111,
      "chip": "ym2612"
    },
    {
      "channel": 0,
      "note": 46,
      "start": 13.7637,
      "duration": 0.0444,
      "velocity": 127,
      "chip": "ym2612"
    },
    {
      "channel": 3,
      "note": 72,
      "start": 13.766,
      "duration": 0.0069,
      "velocity": 115,
      "chip": "ym2612"
    },
    {
      "channel": 0,
      "note": 48,
      "start": 13.8083,
      "duration": 0.024,
      "velocity": 127,
      "chip": "ym2612"
    },
    {
      "channel": 3,
      "note": 77,
      "start": 13.8109,
      "duration": 0.006,
      "velocity": 115,
      "chip": "ym2612"
    },
    {
      "channel": 3,
      "note": 72,
      "start": 13.8171,
      "duration": 0.0072,
      "velocity": 115,
      "chip": "ym2612"
    },
    {
      "channel": 3,
      "note": 75,
      "start": 13.8245,
      "duration": 0.0046,
      "velocity": 115,
      "chip": "ym2612"
    },
    {
      "channel": 3,
      "note": 77,
      "start": 13.8294,
      "duration": 0.0054,
      "velocity": 115,
      "chip": "ym2612"
    },
    {
      "channel": 4,
      "note": 86,
      "start": 13.8298,
      "duration": 0.0159,
      "velocity": 111,
      "chip": "ym2612"
    },
    {
      "channel": 1,
      "note": 86,
      "start": 13.8329,
      "duration": 0.0168,
      "velocity": 111,
      "chip": "ym2612"
    },
    {
      "channel": 3,
      "note": 79,
      "start": 13.8352,
      "duration": 0.0058,
      "velocity": 115,
      "chip": "ym2612"
    },
    {
      "channel": 2,
      "note": 86,
      "start": 13.8426,
      "duration": 0.0152,
      "velocity": 111,
      "chip": "ym2612"
    },
    {
      "channel": 3,
      "note": 72,
      "start": 13.8457,
      "duration": 0.0071,
      "velocity": 115,
      "chip": "ym2612"
    },
    {
      "channel": 4,
      "note": 81,
      "start": 13.846,
      "duration": 0.1049,
      "velocity": 111,
      "chip": "ym2612"
    },
    {
      "channel": 1,
      "note": 81,
      "start": 13.8501,
      "duration": 0.1032,
      "velocity": 111,
      "chip": "ym2612"
    },
    {
      "channel": 3,
      "note": 72,
      "start": 13.8566,
      "duration": 0.0089,
      "velocity": 115,
      "chip": "ym2612"
    },
    {
      "channel": 2,
      "note": 81,
      "start": 13.858,
      "duration": 0.1054,
      "velocity": 111,
      "chip": "ym2612"
    },
    {
      "channel": 3,
      "note": 81,
      "start": 13.9508,
      "duration": 0.0043,
      "velocity": 115,
      "chip": "ym2612"
    },
    {
      "channel": 4,
      "note": 84,
      "start": 13.9512,
      "duration": 0.0101,
      "velocity": 111,
      "chip": "ym2612"
    },
    {
      "channel": 1,
      "note": 84,
      "start": 13.9535,
      "duration": 0.0112,
      "velocity": 111,
      "chip": "ym2612"
    },
    {
      "channel": 3,
      "note": 72,
      "start": 13.9612,
      "duration": 0.006,
      "velocity": 115,
      "chip": "ym2612"
    },
    {
      "channel": 4,
      "note": 77,
      "start": 13.9615,
      "duration": 0.1658,
      "velocity": 112,
      "chip": "ym2612"
    },
    {
      "channel": 2,
      "note": 84,
      "start": 13.9637,
      "duration": 0.0099,
      "velocity": 111,
      "chip": "ym2612"
    },
    {
      "channel": 1,
      "note": 77,
      "start": 13.9651,
      "duration": 0.2265,
      "velocity": 111,
      "chip": "ym2612"
    },
    {
      "channel": 3,
      "note": 82,
      "start": 13.9722,
      "duration": 0.0061,
      "velocity": 115,
      "chip": "ym2612"
    },
    {
      "channel": 2,
      "note": 77,
      "start": 13.9739,
      "duration": 0.3374,
      "velocity": 111,
      "chip": "ym2612"
    },
    {
      "channel": 3,
      "note": 77,
      "start": 14.016,
      "duration": 0.0052,
      "velocity": 115,
      "chip": "ym2612"
    },
    {
      "channel": 3,
      "note": 79,
      "start": 14.0276,
      "duration": 0.0041,
      "velocity": 115,
      "chip": "ym2612"
    },
    {
      "channel": 3,
      "note": 81,
      "start": 14.0378,
      "duration": 0.0059,
      "velocity": 115,
      "chip": "ym2612"
    },
    {
      "channel": 0,
      "note": 46,
      "start": 14.0464,
      "duration": 0.2619,
      "velocity": 127,
      "chip": "ym2612"
    },
    {
      "channel": 3,
      "note": 82,
      "start": 14.049,
      "duration": 0.0072,
      "velocity": 115,
      "chip": "ym2612"
    },
    {
      "channel": 3,
      "note": 77,
      "start": 14.1257,
      "duration": 0.0995,
      "velocity": 115,
      "chip": "ym2612"
    },
    {
      "channel": 0,
      "note": 53,
      "start": 14.3086,
      "duration": 90.8525,
      "velocity": 127,
      "chip": "ym2612"
    },
    {
      "channel": 3,
      "note": 75,
      "start": 14.3105,
      "duration": 0.0046,
      "velocity": 115,
      "chip": "ym2612"
    },
    {
      "channel": 4,
      "note": 67,
      "start": 14.3141,
      "duration": 0.0083,
      "velocity": 112,
      "chip": "ym2612"
    },
    {
      "channel": 3,
      "note": 74,
      "start": 14.3195,
      "duration": 0.004,
      "velocity": 115,
      "chip": "ym2612"
    },
    {
      "channel": 4,
      "note": 70,
      "start": 14.3227,
      "duration": 90.8384,
      "velocity": 112,
      "chip": "ym2612"
    },
    {
      "channel": 1,
      "note": 72,
      "start": 14.3274,
      "duration": 90.8337,
      "velocity": 112,
      "chip": "ym2612"
    },
    {
      "channel": 3,
      "note": 72,
      "start": 14.329,
      "duration": 0.0053,
      "velocity": 115,
      "chip": "ym2612"
    },
    {
      "channel": 2,
      "note": 72,
      "start": 14.339,
      "duration": 90.8222,
      "velocity": 112,
      "chip": "ym2612"
    }
  ]
}