{
  "track_name": "06 - Mercury Stage 2",
  "duration_sec": 87.442,
  "sample_rate": 44100,
  "note_count": 1227,
  "unique_pitches": 21,
  "pitch_range": 47,
  "avg_note_duration": 0.351,
  "reconstruction_stats": {
    "notes_reconstructed": 1227,
    "keyon_events": 1227,
    "keyoff_events": 1222,
    "orphan_keyons": 5,
    "unique_pitches": 21,
    "pitch_range": 47,
    "avg_duration_sec": 0.351
  },
  "metadata": {
    "source": "O\\Ooparts\\06 - Mercury Stage 2.vgz"
  },
  "notes": [
    {
      "channel": 0,
      "note": -1,
      "start": 0.0244,
      "duration": 0.1548,
      "velocity": 114,
      "chip": "ym2612"
    },
    {
      "channel": 1,
      "note": -1,
      "start": 0.0248,
      "duration": 0.3102,
      "velocity": 107,
      "chip": "ym2612"
    },
    {
      "channel": 2,
      "note": -1,
      "start": 0.0252,
      "duration": 0.6211,
      "velocity": 107,
      "chip": "ym2612"
    },
    {
      "channel": 3,
      "note": -1,
      "start": 0.0256,
      "duration": 0.6209,
      "velocity": 107,
      "chip": "ym2612"
    },
    {
      "channel": 4,
      "note": -1,
      "start": 0.1483,
      "duration": 0.6224,
      "velocity": 107,
      "chip": "ym2612"
    },
    {
      "channel": 5,
      "note": -1,
      "start": 0.1485,
      "duration": 0.6224,
      "velocity": 107,
      "chip": "ym2612"
    },
    {
      "channel": 0,
      "note": 54,
      "start": 0.1793,
      "duration": 0.0309,
      "velocity": 114,
      "chip": "ym2612"
    },
    {
      "channel": 0,
      "note": 98,
      "start": 0.3349,
      "duration": 0.1558,
      "velocity": 114,
      "chip": "ym2612"
    },
    {
      "channel": 1,
      "note": 56,
      "start": 0.335,
      "duration": 0.3112,
      "velocity": 107,
      "chip": "ym2612"
    },
    {
      "channel": 0,
      "note": 54,
      "start": 0.4907,
      "duration": 0.0307,
      "velocity": 114,
      "chip": "ym2612"
    },
    {
      "channel": 0,
      "note": 98,
      "start": 0.6461,
      "duration": 0.3113,
      "velocity": 114,
      "chip": "ym2612"
    },
    {
      "channel": 2,
      "note": 77,
      "start": 0.6463,
      "duration": 0.6225,
      "velocity": 107,
      "chip": "ym2612"
    },
    {
      "channel": 3,
      "note": 70,
      "start": 0.6465,
      "duration": 0.6225,
      "velocity": 107,
      "chip": "ym2612"
    },
    {
      "channel": 4,
      "note": 70,
      "start": 0.7707,
      "duration": 0.6226,
      "velocity": 107,
      "chip": "ym2612"
    },
    {
      "channel": 5,
      "note": 77,
      "start": 0.7709,
      "duration": 0.6226,
      "velocity": 107,
      "chip": "ym2612"
    },
    {
      "channel": 0,
      "note": 98,
      "start": 0.9574,
      "duration": 0.0309,
      "velocity": 114,
      "chip": "ym2612"
    },
    {
      "channel": 0,
      "note": 98,
      "start": 1.113,
      "duration": 0.0309,
      "velocity": 114,
      "chip": "ym2612"
    },
    {
      "channel": 0,
      "note": 98,
      "start": 1.2687,
      "duration": 0.0154,
      "velocity": 127,
      "chip": "ym2612"
    },
    {
      "channel": 2,
      "note": 77,
      "start": 1.2689,
      "duration": 0.6226,
      "velocity": 107,
      "chip": "ym2612"
    },
    {
      "channel": 3,
      "note": 70,
      "start": 1.269,
      "duration": 0.6226,
      "velocity": 107,
      "chip": "ym2612"
    },
    {
      "channel": 0,
      "note": 76,
      "start": 1.284,
      "duration": 0.1401,
      "velocity": 127,
      "chip": "ym2612"
    },
    {
      "channel": 4,
      "note": 70,
      "start": 1.3933,
      "duration": 0.6225,
      "velocity": 107,
      "chip": "ym2612"
    },
    {
      "channel": 5,
      "note": 77,
      "start": 1.3934,
      "duration": 0.6225,
      "velocity": 107,
      "chip": "ym2612"
    },
    {
      "channel": 0,
      "note": 68,
      "start": 1.5799,
      "duration": 0.0309,
      "velocity": 114,
      "chip": "ym2612"
    },
    {
      "channel": 0,
      "note": 98,
      "start": 1.7356,
      "duration": 0.0309,
      "velocity": 114,
      "chip": "ym2612"
    },
    {
      "channel": 0,
      "note": 98,
      "start": 1.8912,
      "duration": 0.1556,
      "velocity": 114,
      "chip": "ym2612"
    },
    {
      "channel": 1,
      "note": 58,
      "start": 1.8913,
      "duration": 0.3113,
      "velocity": 107,
      "chip": "ym2612"
    },
    {
      "channel": 2,
      "note": 75,
      "start": 1.8915,
      "duration": 0.6225,
      "velocity": 107,
      "chip": "ym2612"
    },
    {
      "channel": 3,
      "note": 72,
      "start": 1.8916,
      "duration": 0.6225,
      "velocity": 107,
      "chip": "ym2612"
    },
    {
      "channel": 4,
      "note": 72,
      "start": 2.0158,
      "duration": 0.6225,
      "velocity": 107,
      "chip": "ym2612"
    },
    {
      "channel": 5,
      "note": 75,
      "start": 2.016,
      "duration": 0.6225,
      "velocity": 107,
      "chip": "ym2612"
    },
    {
      "channel": 0,
      "note": 54,
      "start": 2.0468,
      "duration": 0.0309,
      "velocity": 114,
      "chip": "ym2612"
    },
    {
      "channel": 0,
      "note": 98,
      "start": 2.2024,
      "duration": 0.1556,
      "velocity": 114,
      "chip": "ym2612"
    },
    {
      "channel": 1,
      "note": 70,
      "start": 2.2026,
      "duration": 0.3112,
      "velocity": 107,
      "chip": "ym2612"
    },
    {
      "channel": 0,
      "note": 54,
      "start": 2.3581,
      "duration": 0.0309,
      "velocity": 114,
      "chip": "ym2612"
    },
    {
      "channel": 0,
      "note": 98,
      "start": 2.5137,
      "duration": 0.1556,
      "velocity": 114,
      "chip": "ym2612"
    },
    {
      "channel": 1,
      "note": 56,
      "start": 2.5139,
      "duration": 0.3112,
      "velocity": 107,
      "chip": "ym2612"
    },
    {
      "channel": 2,
      "note": 75,
      "start": 2.514,
      "duration": 0.6224,
      "velocity": 107,
      "chip": "ym2612"
    },
    {
      "channel": 3,
      "note": 72,
      "start": 2.5141,
      "duration": 0.6224,
      "velocity": 107,
      "chip": "ym2612"
    },
    {
      "channel": 4,
      "note": 72,
      "start": 2.6384,
      "duration": 0.6225,
      "velocity": 107,
      "chip": "ym2612"
    },
    {
      "channel": 5,
      "note": 75,
      "start": 2.6385,
      "duration": 0.6225,
      "velocity": 107,
      "chip": "ym2612"
    },
    {
      "channel": 0,
      "note": 54,
      "start": 2.6693,
      "duration": 0.0309,
      "velocity": 114,
      "chip": "ym2612"
    },
    {
      "channel": 0,
      "note": 98,
      "start": 2.825,
      "duration": 0.1556,
      "velocity": 114,
      "chip": "ym2612"
    },
    {
      "channel": 1,
      "note": 58,
      "start": 2.8251,
      "duration": 0.3112,
      "velocity": 107,
      "chip": "ym2612"
    },
    {
      "channel": 0,
      "note": 54,
      "start": 2.9806,
      "duration": 0.0309,
      "velocity": 114,
      "chip": "ym2612"
    },
    {
      "channel": 0,
      "note": 98,
      "start": 3.1362,
      "duration": 0.0309,
      "velocity": 114,
      "chip": "ym2612"
    },
    {
      "channel": 2,
      "note": 77,
      "start": 3.1365,
      "duration": 0.6225,
      "velocity": 107,
      "chip": "ym2612"
    },
    {
      "channel": 3,
      "note": 70,
      "start": 3.1366,
      "duration": 0.6225,
      "velocity": 107,
      "chip": "ym2612"
    },
    {
      "channel": 4,
      "note": 70,
      "start": 3.2609,
      "duration": 0.6225,
      "velocity": 107,
      "chip": "ym2612"
    },
    {
      "channel": 5,
      "note": 77,
      "start": 3.261,
      "duration": 0.6225,
      "velocity": 107,
      "chip": "ym2612"
    },
    {
      "channel": 0,
      "note": 98,
      "start": 3.2919,
      "duration": 0.0309,
      "velocity": 114,
      "chip": "ym2612"
    },
    {
      "channel": 0,
      "note": 98,
      "start": 3.4475,
      "duration": 0.0154,
      "velocity": 127,
      "chip": "ym2612"
    },
    {
      "channel": 0,
      "note": 76,
      "start": 3.4629,
      "duration": 0.14,
      "velocity": 127,
      "chip": "ym2612"
    },
    {
      "channel": 0,
      "note": 68,
      "start": 3.7588,
      "duration": 0.0309,
      "velocity": 114,
      "chip": "ym2612"
    },
    {
      "channel": 2,
      "note": 77,
      "start": 3.759,
      "duration": 0.6226,
      "velocity": 107,
      "chip": "ym2612"
    },
    {
      "channel": 3,
      "note": 70,
      "start": 3.7591,
      "duration": 0.6226,
      "velocity": 107,
      "chip": "ym2612"
    },
    {
      "channel": 4,
      "note": 70,
      "start": 3.8834,
      "duration": 0.6225,
      "velocity": 107,
      "chip": "ym2612"
    },
    {
      "channel": 5,
      "note": 77,
      "start": 3.8835,
      "duration": 0.6225,
      "velocity": 107,
      "chip": "ym2612"
    },
    {
      "channel": 0,
      "note": 98,
      "start": 3.9144,
      "duration": 0.0309,
      "velocity": 114,
      "chip": "ym2612"
    },
    {
      "channel": 0,
      "note": 98,
      "start": 4.07,
      "duration": 0.1556,
      "velocity": 114,
      "chip": "ym2612"
    },
    {
      "channel": 0,
      "note": 54,
      "start": 4.2256,
      "duration": 0.0309,
      "velocity": 114,
      "chip": "ym2612"
    },
    {
      "channel": 0,
      "note": 98,
      "start": 4.3813,
      "duration": 0.1556,
      "velocity": 114,
      "chip": "ym2612"
    },
    {
      "channel": 1,
      "note": 58,
      "start": 4.3815,
      "duration": 0.3112,
      "velocity": 107,
      "chip": "ym2612"
    },
    {
      "channel": 2,
      "note": 75,
      "start": 4.3816,
      "duration": 0.6224,
      "velocity": 107,
      "chip": "ym2612"
    },
    {
      "channel": 3,
      "note": 72,
      "start": 4.3817,
      "duration": 0.6224,
      "velocity": 107,
      "chip": "ym2612"
    },
    {
      "channel": 4,
      "note": 72,
      "start": 4.5059,
      "duration": 0.6225,
      "velocity": 107,
      "chip": "ym2612"
    },
    {
      "channel": 5,
      "note": 75,
      "start": 4.5061,
      "duration": 0.6225,
      "velocity": 107,
      "chip": "ym2612"
    },
    {
      "channel": 0,
      "note": 54,
      "start": 4.5369,
      "duration": 0.0309,
      "velocity": 114,
      "chip": "ym2612"
    },
    {
      "channel": 0,
      "note": 98,
      "start": 4.6925,
      "duration": 0.1556,
      "velocity": 114,
      "chip": "ym2612"
    },
    {
      "channel": 1,
      "note": 56,
      "start": 4.6927,
      "duration": 0.3112,
      "velocity": 107,
      "chip": "ym2612"
    },
    {
      "channel": 0,
      "note": 54,
      "start": 4.8482,
      "duration": 0.0309,
      "velocity": 114,
      "chip": "ym2612"
    },
    {
      "channel": 0,
      "note": 98,
      "start": 5.0038,
      "duration": 0.3113,
      "velocity": 114,
      "chip": "ym2612"
    },
    {
      "channel": 2,
      "note": 77,
      "start": 5.004,
      "duration": 0.6225,
      "velocity": 107,
      "chip": "ym2612"
    },
    {
      "channel": 3,
      "note": 70,
      "start": 5.0041,
      "duration": 0.6225,
      "velocity": 107,
      "chip": "ym2612"
    },
    {
      "channel": 4,
      "note": 70,
      "start": 5.1284,
      "duration": 0.6225,
      "velocity": 107,
      "chip": "ym2612"
    },
    {
      "channel": 5,
      "note": 77,
      "start": 5.1286,
      "duration": 0.6225,
      "velocity": 107,
      "chip": "ym2612"
    },
    {
      "channel": 0,
      "note": 98,
      "start": 5.3151,
      "duration": 0.0309,
      "velocity": 114,
      "chip": "ym2612"
    },
    {
      "channel": 0,
      "note": 98,
      "start": 5.4707,
      "duration": 0.0309,
      "velocity": 114,
      "chip": "ym2612"
    },
    {
      "channel": 0,
      "note": 98,
      "start": 5.6263,
      "duration": 0.0154,
      "velocity": 127,
      "chip": "ym2612"
    },
    {
      "channel": 2,
      "note": 77,
      "start": 5.6266,
      "duration": 0.6226,
      "velocity": 107,
      "chip": "ym2612"
    },
    {
      "channel": 3,
      "note": 70,
      "start": 5.6267,
      "duration": 0.6226,
      "velocity": 107,
      "chip": "ym2612"
    },
    {
      "channel": 0,
      "note": 76,
      "start": 5.6417,
      "duration": 0.14,
      "velocity": 127,
      "chip": "ym2612"
    },
    {
      "channel": 4,
      "note": 70,
      "start": 5.751,
      "duration": 0.6225,
      "velocity": 107,
      "chip": "ym2612"
    },
    {
      "channel": 5,
      "note": 77,
      "start": 5.7511,
      "duration": 0.6227,
      "velocity": 107,
      "chip": "ym2612"
    },
    {
      "channel": 0,
      "note": 68,
      "start": 5.9376,
      "duration": 0.0309,
      "velocity": 114,
      "chip": "ym2612"
    },
    {
      "channel": 0,
      "note": 98,
      "start": 6.0932,
      "duration": 0.0309,
      "velocity": 114,
      "chip": "ym2612"
    },
    {
      "channel": 0,
      "note": 98,
      "start": 6.2489,
      "duration": 0.1556,
      "velocity": 114,
      "chip": "ym2612"
    },
    {
      "channel": 1,
      "note": 58,
      "start": 6.249,
      "duration": 0.3113,
      "velocity": 107,
      "chip": "ym2612"
    },
    {
      "channel": 2,
      "note": 75,
      "start": 6.2491,
      "duration": 0.6225,
      "velocity": 107,
      "chip": "ym2612"
    },
    {
      "channel": 3,
      "note": 72,
      "start": 6.2493,
      "duration": 0.6225,
      "velocity": 107,
      "chip": "ym2612"
    },
    {
      "channel": 4,
      "note": 72,
      "start": 6.3735,
      "duration": 0.6225,
      "velocity": 107,
      "chip": "ym2612"
    },
    {
      "channel": 5,
      "note": 75,
      "start": 6.3738,
      "duration": 0.6223,
      "velocity": 107,
      "chip": "ym2612"
    },
    {
      "channel": 0,
      "note": 54,
      "start": 6.4045,
      "duration": 0.0309,
      "velocity": 114,
      "chip": "ym2612"
    },
    {
      "channel": 0,
      "note": 98,
      "start": 6.5601,
      "duration": 0.1556,
      "velocity": 114,
      "chip": "ym2612"
    },
    {
      "channel": 1,
      "note": 70,
      "start": 6.5602,
      "duration": 0.3113,
      "velocity": 107,
      "chip": "ym2612"
    },
    {
      "channel": 0,
      "note": 54,
      "start": 6.7158,
      "duration": 0.0309,
      "velocity": 114,
      "chip": "ym2612"
    },
    {
      "channel": 0,
      "note": 98,
      "start": 6.8714,
      "duration": 0.1556,
      "velocity": 114,
      "chip": "ym2612"
    },
    {
      "channel": 1,
      "note": 56,
      "start": 6.8715,
      "duration": 0.3112,
      "velocity": 107,
      "chip": "ym2612"
    },
    {
      "channel": 2,
      "note": 75,
      "start": 6.8717,
      "duration": 0.6224,
      "velocity": 107,
      "chip": "ym2612"
    },
    {
      "channel": 3,
      "note": 72,
      "start": 6.8718,
      "duration": 0.6224,
      "velocity": 107,
      "chip": "ym2612"
    },
    {
      "channel": 4,
      "note": 72,
      "start": 6.996,
      "duration": 0.6225,
      "velocity": 107,
      "chip": "ym2612"
    },
    {
      "channel": 5,
      "note": 75,
      "start": 6.9962,
      "duration": 0.6225,
      "velocity": 107,
      "chip": "ym2612"
    },
    {
      "channel": 0,
      "note": 54,
      "start": 7.027,
      "duration": 0.0309,
      "velocity": 114,
      "chip": "ym2612"
    },
    {
      "channel": 0,
      "note": 98,
      "start": 7.1826,
      "duration": 0.1556,
      "velocity": 114,
      "chip": "ym2612"
    },
    {
      "channel": 1,
      "note": 58,
      "start": 7.1828,
      "duration": 0.3112,
      "velocity": 107,
      "chip": "ym2612"
    },
    {
      "channel": 0,
      "note": 54,
      "start": 7.3383,
      "duration": 0.0309,
      "velocity": 114,
      "chip": "ym2612"
    },
    {
      "channel": 0,
      "note": 98,
      "start": 7.4939,
      "duration": 0.0309,
      "velocity": 114,
      "chip": "ym2612"
    },
    {
      "channel": 2,
      "note": 77,
      "start": 7.4941,
      "duration": 0.6225,
      "velocity": 107,
      "chip": "ym2612"
    },
    {
      "channel": 3,
      "note": 70,
      "start": 7.4942,
      "duration": 0.6225,
      "velocity": 107,
      "chip": "ym2612"
    },
    {
      "channel": 4,
      "note": 70,
      "start": 7.6185,
      "duration": 0.6225,
      "velocity": 107,
      "chip": "ym2612"
    },
    {
      "channel": 5,
      "note": 77,
      "start": 7.6187,
      "duration": 0.6225,
      "velocity": 107,
      "chip": "ym2612"
    },
    {
      "channel": 0,
      "note": 98,
      "start": 7.6495,
      "duration": 0.0309,
      "velocity": 114,
      "chip": "ym2612"
    },
    {
      "channel": 0,
      "note": 98,
      "start": 7.8052,
      "duration": 0.0154,
      "velocity": 127,
      "chip": "ym2612"
    },
    {
      "channel": 0,
      "note": 76,
      "start": 7.8205,
      "duration": 0.14,
      "velocity": 127,
      "chip": "ym2612"
    },
    {
      "channel": 0,
      "note": 68,
      "start": 8.1164,
      "duration": 0.0309,
      "velocity": 114,
      "chip": "ym2612"
    },
    {
      "channel": 2,
      "note": 77,
      "start": 8.1166,
      "duration": 0.6227,
      "velocity": 107,
      "chip": "ym2612"
    },
    {
      "channel": 3,
      "note": 70,
      "start": 8.1168,
      "duration": 0.6227,
      "velocity": 107,
      "chip": "ym2612"
    },
    {
      "channel": 4,
      "note": 70,
      "start": 8.241,
      "duration": 0.6226,
      "velocity": 107,
      "chip": "ym2612"
    },
    {
      "channel": 5,
      "note": 77,
      "start": 8.2412,
      "duration": 0.6226,
      "velocity": 107,
      "chip": "ym2612"
    },
    {
      "channel": 0,
      "note": 98,
      "start": 8.2721,
      "duration": 0.0309,
      "velocity": 114,
      "chip": "ym2612"
    },
    {
      "channel": 0,
      "note": 98,
      "start": 8.4277,
      "duration": 0.1556,
      "velocity": 114,
      "chip": "ym2612"
    },
    {
      "channel": 0,
      "note": 54,
      "start": 8.5833,
      "duration": 0.0309,
      "velocity": 114,
      "chip": "ym2612"
    },
    {
      "channel": 0,
      "note": 98,
      "start": 8.739,
      "duration": 0.1556,
      "velocity": 114,
      "chip": "ym2612"
    },
    {
      "channel": 1,
      "note": 58,
      "start": 8.7392,
      "duration": 0.3112,
      "velocity": 107,
      "chip": "ym2612"
    },
    {
      "channel": 2,
      "note": 75,
      "start": 8.7393,
      "duration": 0.6224,
      "velocity": 107,
      "chip": "ym2612"
    },
    {
      "channel": 3,
      "note": 72,
      "start": 8.7395,
      "duration": 0.6223,
      "velocity": 107,
      "chip": "ym2612"
    },
    {
      "channel": 4,
      "note": 72,
      "start": 8.8637,
      "duration": 0.6224,
      "velocity": 107,
      "chip": "ym2612"
    },
    {
      "channel": 5,
      "note": 75,
      "start": 8.8638,
      "duration": 0.6224,
      "velocity": 107,
      "chip": "ym2612"
    },
    {
      "channel": 0,
      "note": 54,
      "start": 8.8946,
      "duration": 0.0309,
      "velocity": 114,
      "chip": "ym2612"
    },
    {
      "channel": 0,
      "note": 98,
      "start": 9.0502,
      "duration": 0.1556,
      "velocity": 114,
      "chip": "ym2612"
    },
    {
      "channel": 1,
      "note": 58,
      "start": 9.0503,
      "duration": 0.3112,
      "velocity": 107,
      "chip": "ym2612"
    },
    {
      "channel": 0,
      "note": 54,
      "start": 9.2059,
      "duration": 0.0309,
      "velocity": 114,
      "chip": "ym2612"
    },
    {
      "channel": 0,
      "note": 98,
      "start": 9.3615,
      "duration": 0.3113,
      "velocity": 114,
      "chip": "ym2612"
    },
    {
      "channel": 2,
      "note": 79,
      "start": 9.3617,
      "duration": 0.6225,
      "velocity": 107,
      "chip": "ym2612"
    },
    {
      "channel": 3,
      "note": 72,
      "start": 9.3618,
      "duration": 0.6225,
      "velocity": 107,
      "chip": "ym2612"
    },
    {
      "channel": 4,
      "note": 72,
      "start": 9.4861,
      "duration": 0.6225,
      "velocity": 107,
      "chip": "ym2612"
    },
    {
      "channel": 5,
      "note": 79,
      "start": 9.4862,
      "duration": 0.6225,
      "velocity": 107,
      "chip": "ym2612"
    },
    {
      "channel": 0,
      "note": 98,
      "start": 9.6727,
      "duration": 0.0309,
      "velocity": 114,
      "chip": "ym2612"
    },
    {
      "channel": 0,
      "note": 98,
      "start": 9.8284,
      "duration": 0.0309,
      "velocity": 114,
      "chip": "ym2612"
    },
    {
      "channel": 0,
      "note": 98,
      "start": 9.984,
      "duration": 0.0154,
      "velocity": 127,
      "chip": "ym2612"
    },
    {
      "channel": 2,
      "note": 79,
      "start": 9.9842,
      "duration": 0.6226,
      "velocity": 107,
      "chip": "ym2612"
    },
    {
      "channel": 3,
      "note": 72,
      "start": 9.9843,
      "duration": 0.6227,
      "velocity": 107,
      "chip": "ym2612"
    },
    {
      "channel": 0,
      "note": 76,
      "start": 9.9994,
      "duration": 0.14,
      "velocity": 127,
      "chip": "ym2612"
    },
    {
      "channel": 4,
      "note": 72,
      "start": 10.1086,
      "duration": 0.6225,
      "velocity": 107,
      "chip": "ym2612"
    },
    {
      "channel": 5,
      "note": 79,
      "start": 10.1088,
      "duration": 0.6225,
      "velocity": 107,
      "chip": "ym2612"
    },
    {
      "channel": 0,
      "note": 68,
      "start": 10.2953,
      "duration": 0.0309,
      "velocity": 114,
      "chip": "ym2612"
    },
    {
      "channel": 0,
      "note": 98,
      "start": 10.4509,
      "duration": 0.0309,
      "velocity": 114,
      "chip": "ym2612"
    },
    {
      "channel": 0,
      "note": 98,
      "start": 10.6065,
      "duration": 0.1556,
      "velocity": 114,
      "chip": "ym2612"
    },
    {
      "channel": 1,
      "note": 60,
      "start": 10.6066,
      "duration": 0.3113,
      "velocity": 107,
      "chip": "ym2612"
    },
    {
      "channel": 2,
      "note": 77,
      "start": 10.6068,
      "duration": 0.6225,
      "velocity": 107,
      "chip": "ym2612"
    },
    {
      "channel": 3,
      "note": 74,
      "start": 10.6071,
      "duration": 0.6223,
      "velocity": 107,
      "chip": "ym2612"
    },
    {
      "channel": 4,
      "note": 74,
      "start": 10.7312,
      "duration": 0.6225,
      "velocity": 107,
      "chip": "ym2612"
    },
    {
      "channel": 5,
      "note": 77,
      "start": 10.7313,
      "duration": 0.6225,
      "velocity": 107,
      "chip": "ym2612"
    },
    {
      "channel": 0,
      "note": 54,
      "start": 10.7622,
      "duration": 0.0309,
      "velocity": 114,
      "chip": "ym2612"
    },
    {
      "channel": 0,
      "note": 98,
      "start": 10.9178,
      "duration": 0.1556,
      "velocity": 114,
      "chip": "ym2612"
    },
    {
      "channel": 1,
      "note": 72,
      "start": 10.9179,
      "duration": 0.3113,
      "velocity": 107,
      "chip": "ym2612"
    },
    {
      "channel": 0,
      "note": 54,
      "start": 11.0734,
      "duration": 0.0309,
      "velocity": 114,
      "chip": "ym2612"
    },
    {
      "channel": 0,
      "note": 98,
      "start": 11.229,
      "duration": 0.1556,
      "velocity": 114,
      "chip": "ym2612"
    },
    {
      "channel": 1,
      "note": 58,
      "start": 11.2292,
      "duration": 0.3114,
      "velocity": 107,
      "chip": "ym2612"
    },
    {
      "channel": 2,
      "note": 77,
      "start": 11.2293,
      "duration": 0.6224,
      "velocity": 107,
      "chip": "ym2612"
    },
    {
      "channel": 3,
      "note": 74,
      "start": 11.2295,
      "duration": 0.6224,
      "velocity": 107,
      "chip": "ym2612"
    },
    {
      "channel": 4,
      "note": 74,
      "start": 11.3537,
      "duration": 0.6225,
      "velocity": 107,
      "chip": "ym2612"
    },
    {
      "channel": 5,
      "note": 77,
      "start": 11.3538,
      "duration": 0.6225,
      "velocity": 107,
      "chip": "ym2612"
    },
    {
      "channel": 0,
      "note": 54,
      "start": 11.3847,
      "duration": 0.0309,
      "velocity": 114,
      "chip": "ym2612"
    },
    {
      "channel": 0,
      "note": 98,
      "start": 11.5405,
      "duration": 0.1555,
      "velocity": 114,
      "chip": "ym2612"
    },
    {
      "channel": 1,
      "note": 60,
      "start": 11.5406,
      "duration": 0.3111,
      "velocity": 107,
      "chip": "ym2612"
    },
    {
      "channel": 0,
      "note": 54,
      "start": 11.6959,
      "duration": 0.0309,
      "velocity": 114,
      "chip": "ym2612"
    },
    {
      "channel": 0,
      "note": 98,
      "start": 11.8516,
      "duration": 0.0309,
      "velocity": 114,
      "chip": "ym2612"
    },
    {
      "channel": 2,
      "note": 79,
      "start": 11.8518,
      "duration": 0.6225,
      "velocity": 107,
      "chip": "ym2612"
    },
    {
      "channel": 3,
      "note": 72,
      "start": 11.8519,
      "duration": 0.6225,
      "velocity": 107,
      "chip": "ym2612"
    },
    {
      "channel": 4,
      "note": 72,
      "start": 11.9762,
      "duration": 0.6225,
      "velocity": 107,
      "chip": "ym2612"
    },
    {
      "channel": 5,
      "note": 79,
      "start": 11.9763,
      "duration": 0.6225,
      "velocity": 107,
      "chip": "ym2612"
    },
    {
      "channel": 0,
      "note": 98,
      "start": 12.0074,
      "duration": 0.0307,
      "velocity": 114,
      "chip": "ym2612"
    },
    {
      "channel": 0,
      "note": 98,
      "start": 12.1628,
      "duration": 0.0154,
      "velocity": 127,
      "chip": "ym2612"
    },
    {
      "channel": 0,
      "note": 76,
      "start": 12.1782,
      "duration": 0.14,
      "velocity": 127,
      "chip": "ym2612"
    },
    {
      "channel": 0,
      "note": 68,
      "start": 12.4741,
      "duration": 0.0309,
      "velocity": 114,
      "chip": "ym2612"
    },
    {
      "channel": 2,
      "note": 79,
      "start": 12.4743,
      "duration": 0.6226,
      "velocity": 107,
      "chip": "ym2612"
    },
    {
      "channel": 3,
      "note": 72,
      "start": 12.4744,
      "duration": 0.6226,
      "velocity": 107,
      "chip": "ym2612"
    },
    {
      "channel": 4,
      "note": 72,
      "start": 12.5987,
      "duration": 0.6225,
      "velocity": 107,
      "chip": "ym2612"
    },
    {
      "channel": 5,
      "note": 79,
      "start": 12.5988,
      "duration": 0.6225,
      "velocity": 107,
      "chip": "ym2612"
    },
    {
      "channel": 0,
      "note": 98,
      "start": 12.6297,
      "duration": 0.0309,
      "velocity": 114,
      "chip": "ym2612"
    },
    {
      "channel": 0,
      "note": 98,
      "start": 12.7854,
      "duration": 0.1556,
      "velocity": 114,
      "chip": "ym2612"
    },
    {
      "channel": 0,
      "note": 54,
      "start": 12.941,
      "duration": 0.0309,
      "velocity": 114,
      "chip": "ym2612"
    },
    {
      "channel": 0,
      "note": 98,
      "start": 13.0966,
      "duration": 0.1556,
      "velocity": 114,
      "chip": "ym2612"
    },
    {
      "channel": 1,
      "note": 60,
      "start": 13.0968,
      "duration": 0.3112,
      "velocity": 107,
      "chip": "ym2612"
    },
    {
      "channel": 2,
      "note": 77,
      "start": 13.0969,
      "duration": 0.6224,
      "velocity": 107,
      "chip": "ym2612"
    },
    {
      "channel": 3,
      "note": 74,
      "start": 13.0971,
      "duration": 0.6224,
      "velocity": 107,
      "chip": "ym2612"
    },
    {
      "channel": 4,
      "note": 74,
      "start": 13.2213,
      "duration": 0.6225,
      "velocity": 107,
      "chip": "ym2612"
    },
    {
      "channel": 5,
      "note": 77,
      "start": 13.2214,
      "duration": 0.6225,
      "velocity": 107,
      "chip": "ym2612"
    },
    {
      "channel": 0,
      "note": 54,
      "start": 13.2522,
      "duration": 0.0309,
      "velocity": 114,
      "chip": "ym2612"
    },
    {
      "channel": 0,
      "note": 98,
      "start": 13.4079,
      "duration": 0.1556,
      "velocity": 114,
      "chip": "ym2612"
    },
    {
      "channel": 1,
      "note": 58,
      "start": 13.408,
      "duration": 0.3112,
      "velocity": 107,
      "chip": "ym2612"
    },
    {
      "channel": 0,
      "note": 54,
      "start": 13.5635,
      "duration": 0.0309,
      "velocity": 114,
      "chip": "ym2612"
    },
    {
      "channel": 0,
      "note": 98,
      "start": 13.7191,
      "duration": 0.3113,
      "velocity": 114,
      "chip": "ym2612"
    },
    {
      "channel": 2,
      "note": 79,
      "start": 13.7194,
      "duration": 0.6225,
      "velocity": 107,
      "chip": "ym2612"
    },
    {
      "channel": 3,
      "note": 72,
      "start": 13.7195,
      "duration": 0.6225,
      "velocity": 107,
      "chip": "ym2612"
    },
    {
      "channel": 4,
      "note": 72,
      "start": 13.8438,
      "duration": 0.6225,
      "velocity": 107,
      "chip": "ym2612"
    },
    {
      "channel": 5,
      "note": 79,
      "start": 13.8439,
      "duration": 0.6225,
      "velocity": 107,
      "chip": "ym2612"
    },
    {
      "channel": 0,
      "note": 98,
      "start": 14.0304,
      "duration": 0.0309,
      "velocity": 114,
      "chip": "ym2612"
    },
    {
      "channel": 0,
      "note": 98,
      "start": 14.186,
      "duration": 0.0309,
      "velocity": 114,
      "chip": "ym2612"
    },
    {
      "channel": 0,
      "note": 98,
      "start": 14.3417,
      "duration": 0.0155,
      "velocity": 127,
      "chip": "ym2612"
    },
    {
      "channel": 2,
      "note": 79,
      "start": 14.3419,
      "duration": 0.6226,
      "velocity": 107,
      "chip": "ym2612"
    },
    {
      "channel": 3,
      "note": 72,
      "start": 14.342,
      "duration": 0.6226,
      "velocity": 107,
      "chip": "ym2612"
    },
    {
      "channel": 0,
      "note": 76,
      "start": 14.3572,
      "duration": 0.1399,
      "velocity": 127,
      "chip": "ym2612"
    },
    {
      "channel": 4,
      "note": 72,
      "start": 14.4663,
      "duration": 0.6225,
      "velocity": 107,
      "chip": "ym2612"
    },
    {
      "channel": 5,
      "note": 79,
      "start": 14.4664,
      "duration": 0.6225,
      "velocity": 107,
      "chip": "ym2612"
    },
    {
      "channel": 0,
      "note": 68,
      "start": 14.6529,
      "duration": 0.0309,
      "velocity": 114,
      "chip": "ym2612"
    },
    {
      "channel": 0,
      "note": 98,
      "start": 14.8086,
      "duration": 0.0309,
      "velocity": 114,
      "chip": "ym2612"
    },
    {
      "channel": 0,
      "note": 98,
      "start": 14.9642,
      "duration": 0.1556,
      "velocity": 114,
      "chip": "ym2612"
    },
    {
      "channel": 1,
      "note": 60,
      "start": 14.9643,
      "duration": 0.3113,
      "velocity": 107,
      "chip": "ym2612"
    },
    {
      "channel": 2,
      "note": 77,
      "start": 14.9644,
      "duration": 0.6225,
      "velocity": 107,
      "chip": "ym2612"
    },
    {
      "channel": 3,
      "note": 74,
      "start": 14.9646,
      "duration": 0.6225,
      "velocity": 107,
      "chip": "ym2612"
    },
    {
      "channel": 4,
      "note": 74,
      "start": 15.0888,
      "duration": 0.6225,
      "velocity": 107,
      "chip": "ym2612"
    },
    {
      "channel": 5,
      "note": 77,
      "start": 15.089,
      "duration": 0.6225,
      "velocity": 107,
      "chip": "ym2612"
    },
    {
      "channel": 0,
      "note": 54,
      "start": 15.1198,
      "duration": 0.0309,
      "velocity": 114,
      "chip": "ym2612"
    },
    {
      "channel": 0,
      "note": 98,
      "start": 15.2754,
      "duration": 0.1556,
      "velocity": 114,
      "chip": "ym2612"
    },
    {
      "channel": 1,
      "note": 72,
      "start": 15.2756,
      "duration": 0.3113,
      "velocity": 107,
      "chip": "ym2612"
    },
    {
      "channel": 0,
      "note": 54,
      "start": 15.4311,
      "duration": 0.0309,
      "velocity": 114,
      "chip": "ym2612"
    },
    {
      "channel": 0,
      "note": 98,
      "start": 15.5867,
      "duration": 0.1556,
      "velocity": 114,
      "chip": "ym2612"
    },
    {
      "channel": 1,
      "note": 58,
      "start": 15.5868,
      "duration": 0.3112,
      "velocity": 107,
      "chip": "ym2612"
    },
    {
      "channel": 2,
      "note": 77,
      "start": 15.587,
      "duration": 0.6224,
      "velocity": 107,
      "chip": "ym2612"
    },
    {
      "channel": 3,
      "note": 74,
      "start": 15.5871,
      "duration": 0.6224,
      "velocity": 107,
      "chip": "ym2612"
    },
    {
      "channel": 4,
      "note": 74,
      "start": 15.7114,
      "duration": 0.6225,
      "velocity": 107,
      "chip": "ym2612"
    },
    {
      "channel": 5,
      "note": 77,
      "start": 15.7115,
      "duration": 0.6225,
      "velocity": 107,
      "chip": "ym2612"
    },
    {
      "channel": 0,
      "note": 54,
      "start": 15.7423,
      "duration": 0.0309,
      "velocity": 114,
      "chip": "ym2612"
    },
    {
      "channel": 0,
      "note": 98,
      "start": 15.898,
      "duration": 0.1556,
      "velocity": 114,
      "chip": "ym2612"
    },
    {
      "channel": 1,
      "note": 60,
      "start": 15.8981,
      "duration": 0.3112,
      "velocity": 107,
      "chip": "ym2612"
    },
    {
      "channel": 0,
      "note": 54,
      "start": 16.0536,
      "duration": 0.0309,
      "velocity": 114,
      "chip": "ym2612"
    },
    {
      "channel": 0,
      "note": 98,
      "start": 16.2093,
      "duration": 0.0309,
      "velocity": 114,
      "chip": "ym2612"
    },
    {
      "channel": 2,
      "note": 79,
      "start": 16.2095,
      "duration": 0.6225,
      "velocity": 107,
      "chip": "ym2612"
    },
    {
      "channel": 3,
      "note": 72,
      "start": 16.2096,
      "duration": 0.6225,
      "velocity": 107,
      "chip": "ym2612"
    },
    {
      "channel": 4,
      "note": 72,
      "start": 16.3339,
      "duration": 0.6225,
      "velocity": 107,
      "chip": "ym2612"
    },
    {
      "channel": 5,
      "note": 79,
      "start": 16.334,
      "duration": 0.6225,
      "velocity": 107,
      "chip": "ym2612"
    },
    {
      "channel": 0,
      "note": 98,
      "start": 16.3649,
      "duration": 0.0309,
      "velocity": 114,
      "chip": "ym2612"
    },
    {
      "channel": 0,
      "note": 98,
      "start": 16.5205,
      "duration": 0.0154,
      "velocity": 127,
      "chip": "ym2612"
    },
    {
      "channel": 0,
      "note": 76,
      "start": 16.5359,
      "duration": 0.1401,
      "velocity": 127,
      "chip": "ym2612"
    },
    {
      "channel": 0,
      "note": 68,
      "start": 16.8317,
      "duration": 0.0309,
      "velocity": 114,
      "chip": "ym2612"
    },
    {
      "channel": 2,
      "note": 79,
      "start": 16.832,
      "duration": 0.6227,
      "velocity": 107,
      "chip": "ym2612"
    },
    {
      "channel": 3,
      "note": 72,
      "start": 16.8321,
      "duration": 0.6228,
      "velocity": 107,
      "chip": "ym2612"
    },
    {
      "channel": 4,
      "note": 72,
      "start": 16.9564,
      "duration": 0.6226,
      "velocity": 107,
      "chip": "ym2612"
    },
    {
      "channel": 5,
      "note": 79,
      "start": 16.9565,
      "duration": 0.6226,
      "velocity": 107,
      "chip": "ym2612"
    },
    {
      "channel": 0,
      "note": 98,
      "start": 16.9874,
      "duration": 0.0309,
      "velocity": 114,
      "chip": "ym2612"
    },
    {
      "channel": 0,
      "note": 98,
      "start": 17.143,
      "duration": 0.1556,
      "velocity": 114,
      "chip": "ym2612"
    },
    {
      "channel": 0,
      "note": 54,
      "start": 17.2987,
      "duration": 0.0309,
      "velocity": 114,
      "chip": "ym2612"
    },
    {
      "channel": 0,
      "note": 98,
      "start": 17.4543,
      "duration": 0.1556,
      "velocity": 114,
      "chip": "ym2612"
    },
    {
      "channel": 1,
      "note": 60,
      "start": 17.4545,
      "duration": 0.3112,
      "velocity": 107,
      "chip": "ym2612"
    },
    {
      "channel": 2,
      "note": 77,
      "start": 17.4547,
      "duration": 0.6223,
      "velocity": 107,
      "chip": "ym2612"
    },
    {
      "channel": 3,
      "note": 74,
      "start": 17.4549,
      "duration": 0.6223,
      "velocity": 107,
      "chip": "ym2612"
    },
    {
      "channel": 4,
      "note": 74,
      "start": 17.579,
      "duration": 0.6224,
      "velocity": 107,
      "chip": "ym2612"
    },
    {
      "channel": 5,
      "note": 77,
      "start": 17.5792,
      "duration": 0.6224,
      "velocity": 107,
      "chip": "ym2612"
    },
    {
      "channel": 0,
      "note": 54,
      "start": 17.6099,
      "duration": 0.0309,
      "velocity": 114,
      "chip": "ym2612"
    },
    {
      "channel": 0,
      "note": 98,
      "start": 17.7656,
      "duration": 0.1556,
      "velocity": 114,
      "chip": "ym2612"
    },
    {
      "channel": 1,
      "note": 55,
      "start": 17.7657,
      "duration": 0.3112,
      "velocity": 107,
      "chip": "ym2612"
    },
    {
      "channel": 0,
      "note": 54,
      "start": 17.9212,
      "duration": 0.0309,
      "velocity": 114,
      "chip": "ym2612"
    },
    {
      "channel": 0,
      "note": 98,
      "start": 18.0768,
      "duration": 0.3112,
      "velocity": 114,
      "chip": "ym2612"
    },
    {
      "channel": 2,
      "note": 76,
      "start": 18.077,
      "duration": 0.6225,
      "velocity": 107,
      "chip": "ym2612"
    },
    {
      "channel": 3,
      "note": 69,
      "start": 18.0771,
      "duration": 0.6225,
      "velocity": 107,
      "chip": "ym2612"
    },
    {
      "channel": 4,
      "note": 69,
      "start": 18.2014,
      "duration": 0.6227,
      "velocity": 107,
      "chip": "ym2612"
    },
    {
      "channel": 5,
      "note": 76,
      "start": 18.2016,
      "duration": 0.6227,
      "velocity": 107,
      "chip": "ym2612"
    },
    {
      "channel": 0,
      "note": 98,
      "start": 18.3881,
      "duration": 0.0309,
      "velocity": 114,
      "chip": "ym2612"
    },
    {
      "channel": 0,
      "note": 98,
      "start": 18.5437,
      "duration": 0.0309,
      "velocity": 114,
      "chip": "ym2612"
    },
    {
      "channel": 0,
      "note": 98,
      "start": 18.6993,
      "duration": 0.0154,
      "velocity": 127,
      "chip": "ym2612"
    },
    {
      "channel": 2,
      "note": 76,
      "start": 18.6995,
      "duration": 0.6226,
      "velocity": 107,
      "chip": "ym2612"
    },
    {
      "channel": 3,
      "note": 69,
      "start": 18.6997,
      "duration": 0.6226,
      "velocity": 107,
      "chip": "ym2612"
    },
    {
      "channel": 0,
      "note": 76,
      "start": 18.7147,
      "duration": 0.14,
      "velocity": 127,
      "chip": "ym2612"
    },
    {
      "channel": 4,
      "note": 69,
      "start": 18.8241,
      "duration": 0.6223,
      "velocity": 107,
      "chip": "ym2612"
    },
    {
      "channel": 5,
      "note": 76,
      "start": 18.8243,
      "duration": 0.6223,
      "velocity": 107,
      "chip": "ym2612"
    },
    {
      "channel": 0,
      "note": 68,
      "start": 19.0106,
      "duration": 0.0309,
      "velocity": 114,
      "chip": "ym2612"
    },
    {
      "channel": 0,
      "note": 98,
      "start": 19.1662,
      "duration": 0.0309,
      "velocity": 114,
      "chip": "ym2612"
    },
    {
      "channel": 0,
      "note": 98,
      "start": 19.3219,
      "duration": 0.1556,
      "velocity": 114,
      "chip": "ym2612"
    },
    {
      "channel": 1,
      "note": 57,
      "start": 19.322,
      "duration": 0.3112,
      "velocity": 107,
      "chip": "ym2612"
    },
    {
      "channel": 2,
      "note": 74,
      "start": 19.3221,
      "duration": 0.6225,
      "velocity": 107,
      "chip": "ym2612"
    },
    {
      "channel": 3,
      "note": 71,
      "start": 19.3222,
      "duration": 0.6225,
      "velocity": 107,
      "chip": "ym2612"
    },
    {
      "channel": 4,
      "note": 71,
      "start": 19.4465,
      "duration": 0.6225,
      "velocity": 107,
      "chip": "ym2612"
    },
    {
      "channel": 5,
      "note": 74,
      "start": 19.4466,
      "duration": 0.6225,
      "velocity": 107,
      "chip": "ym2612"
    },
    {
      "channel": 0,
      "note": 54,
      "start": 19.4775,
      "duration": 0.0309,
      "velocity": 114,
      "chip": "ym2612"
    },
    {
      "channel": 0,
      "note": 98,
      "start": 19.6331,
      "duration": 0.1556,
      "velocity": 114,
      "chip": "ym2612"
    },
    {
      "channel": 1,
      "note": 69,
      "start": 19.6333,
      "duration": 0.3112,
      "velocity": 107,
      "chip": "ym2612"
    },
    {
      "channel": 0,
      "note": 54,
      "start": 19.7888,
      "duration": 0.0309,
      "velocity": 114,
      "chip": "ym2612"
    },
    {
      "channel": 0,
      "note": 98,
      "start": 19.9444,
      "duration": 0.1556,
      "velocity": 114,
      "chip": "ym2612"
    },
    {
      "channel": 1,
      "note": 55,
      "start": 19.9445,
      "duration": 0.3113,
      "velocity": 107,
      "chip": "ym2612"
    },
    {
      "channel": 2,
      "note": 74,
      "start": 19.9446,
      "duration": 0.6225,
      "velocity": 107,
      "chip": "ym2612"
    },
    {
      "channel": 3,
      "note": 71,
      "start": 19.9448,
      "duration": 0.6224,
      "velocity": 107,
      "chip": "ym2612"
    },
    {
      "channel": 4,
      "note": 71,
      "start": 20.069,
      "duration": 0.6225,
      "velocity": 107,
      "chip": "ym2612"
    },
    {
      "channel": 5,
      "note": 74,
      "start": 20.0692,
      "duration": 0.6225,
      "velocity": 107,
      "chip": "ym2612"
    },
    {
      "channel": 0,
      "note": 54,
      "start": 20.1,
      "duration": 0.0309,
      "velocity": 114,
      "chip": "ym2612"
    },
    {
      "channel": 0,
      "note": 98,
      "start": 20.2556,
      "duration": 0.1556,
      "velocity": 114,
      "chip": "ym2612"
    },
    {
      "channel": 1,
      "note": 57,
      "start": 20.2558,
      "duration": 0.3112,
      "velocity": 107,
      "chip": "ym2612"
    },
    {
      "channel": 0,
      "note": 54,
      "start": 20.4113,
      "duration": 0.0309,
      "velocity": 114,
      "chip": "ym2612"
    },
    {
      "channel": 0,
      "note": 98,
      "start": 20.5669,
      "duration": 0.0309,
      "velocity": 114,
      "chip": "ym2612"
    },
    {
      "channel": 2,
      "note": 76,
      "start": 20.5671,
      "duration": 0.6225,
      "velocity": 107,
      "chip": "ym2612"
    },
    {
      "channel": 3,
      "note": 69,
      "start": 20.5673,
      "duration": 0.6225,
      "velocity": 107,
      "chip": "ym2612"
    },
    {
      "channel": 4,
      "note": 69,
      "start": 20.6915,
      "duration": 0.6225,
      "velocity": 107,
      "chip": "ym2612"
    },
    {
      "channel": 5,
      "note": 76,
      "start": 20.6917,
      "duration": 0.6225,
      "velocity": 107,
      "chip": "ym2612"
    },
    {
      "channel": 0,
      "note": 98,
      "start": 20.7225,
      "duration": 0.0309,
      "velocity": 114,
      "chip": "ym2612"
    },
    {
      "channel": 0,
      "note": 98,
      "start": 20.8782,
      "duration": 0.0154,
      "velocity": 127,
      "chip": "ym2612"
    },
    {
      "channel": 0,
      "note": 76,
      "start": 20.8935,
      "duration": 0.14,
      "velocity": 127,
      "chip": "ym2612"
    },
    {
      "channel": 0,
      "note": 68,
      "start": 21.1894,
      "duration": 0.0309,
      "velocity": 114,
      "chip": "ym2612"
    },
    {
      "channel": 2,
      "note": 76,
      "start": 21.1896,
      "duration": 0.6226,
      "velocity": 107,
      "chip": "ym2612"
    },
    {
      "channel": 3,
      "note": 69,
      "start": 21.1898,
      "duration": 0.6226,
      "velocity": 107,
      "chip": "ym2612"
    },
    {
      "channel": 4,
      "note": 69,
      "start": 21.314,
      "duration": 0.6226,
      "velocity": 107,
      "chip": "ym2612"
    },
    {
      "channel": 5,
      "note": 76,
      "start": 21.3142,
      "duration": 0.6226,
      "velocity": 107,
      "chip": "ym2612"
    },
    {
      "channel": 0,
      "note": 98,
      "start": 21.3451,
      "duration": 0.0309,
      "velocity": 114,
      "chip": "ym2612"
    },
    {
      "channel": 0,
      "note": 98,
      "start": 21.5007,
      "duration": 0.1556,
      "velocity": 114,
      "chip": "ym2612"
    },
    {
      "channel": 0,
      "note": 54,
      "start": 21.6563,
      "duration": 0.0309,
      "velocity": 114,
      "chip": "ym2612"
    },
    {
      "channel": 0,
      "note": 98,
      "start": 21.812,
      "duration": 0.1556,
      "velocity": 114,
      "chip": "ym2612"
    },
    {
      "channel": 1,
      "note": 57,
      "start": 21.8121,
      "duration": 0.3112,
      "velocity": 107,
      "chip": "ym2612"
    },
    {
      "channel": 2,
      "note": 74,
      "start": 21.8122,
      "duration": 0.6224,
      "velocity": 107,
      "chip": "ym2612"
    },
    {
      "channel": 3,
      "note": 71,
      "start": 21.8124,
      "duration": 0.6224,
      "velocity": 107,
      "chip": "ym2612"
    },
    {
      "channel": 4,
      "note": 71,
      "start": 21.9366,
      "duration": 0.6225,
      "velocity": 107,
      "chip": "ym2612"
    },
    {
      "channel": 5,
      "note": 74,
      "start": 21.9367,
      "duration": 0.6225,
      "velocity": 107,
      "chip": "ym2612"
    },
    {
      "channel": 0,
      "note": 54,
      "start": 21.9676,
      "duration": 0.0309,
      "velocity": 114,
      "chip": "ym2612"
    },
    {
      "channel": 0,
      "note": 98,
      "start": 22.1232,
      "duration": 0.1556,
      "velocity": 114,
      "chip": "ym2612"
    },
    {
      "channel": 1,
      "note": 55,
      "start": 22.1234,
      "duration": 0.3112,
      "velocity": 107,
      "chip": "ym2612"
    },
    {
      "channel": 0,
      "note": 54,
      "start": 22.2788,
      "duration": 0.0309,
      "velocity": 114,
      "chip": "ym2612"
    },
    {
      "channel": 0,
      "note": 98,
      "start": 22.4345,
      "duration": 0.3112,
      "velocity": 114,
      "chip": "ym2612"
    },
    {
      "channel": 2,
      "note": 76,
      "start": 22.4347,
      "duration": 0.6227,
      "velocity": 107,
      "chip": "ym2612"
    },
    {
      "channel": 3,
      "note": 69,
      "start": 22.4348,
      "duration": 0.6227,
      "velocity": 107,
      "chip": "ym2612"
    },
    {
      "channel": 4,
      "note": 69,
      "start": 22.5591,
      "duration": 0.6225,
      "velocity": 107,
      "chip": "ym2612"
    },
    {
      "channel": 5,
      "note": 76,
      "start": 22.5592,
      "duration": 0.6225,
      "velocity": 107,
      "chip": "ym2612"
    },
    {
      "channel": 0,
      "note": 98,
      "start": 22.7458,
      "duration": 0.0309,
      "velocity": 114,
      "chip": "ym2612"
    },
    {
      "channel": 0,
      "note": 98,
      "start": 22.9014,
      "duration": 0.0309,
      "velocity": 114,
      "chip": "ym2612"
    },
    {
      "channel": 0,
      "note": 98,
      "start": 23.0572,
      "duration": 0.0152,
      "velocity": 127,
      "chip": "ym2612"
    },
    {
      "channel": 2,
      "note": 76,
      "start": 23.0574,
      "duration": 0.6224,
      "velocity": 107,
      "chip": "ym2612"
    },
    {
      "channel": 3,
      "note": 69,
      "start": 23.0575,
      "duration": 0.6224,
      "velocity": 107,
      "chip": "ym2612"
    },
    {
      "channel": 0,
      "note": 76,
      "start": 23.0724,
      "duration": 0.14,
      "velocity": 127,
      "chip": "ym2612"
    },
    {
      "channel": 4,
      "note": 69,
      "start": 23.1817,
      "duration": 0.6225,
      "velocity": 107,
      "chip": "ym2612"
    },
    {
      "channel": 5,
      "note": 76,
      "start": 23.1818,
      "duration": 0.6225,
      "velocity": 107,
      "chip": "ym2612"
    },
    {
      "channel": 0,
      "note": 68,
      "start": 23.3683,
      "duration": 0.0309,
      "velocity": 114,
      "chip": "ym2612"
    },
    {
      "channel": 0,
      "note": 98,
      "start": 23.5241,
      "duration": 0.0307,
      "velocity": 114,
      "chip": "ym2612"
    },
    {
      "channel": 0,
      "note": 98,
      "start": 23.6795,
      "duration": 0.1556,
      "velocity": 114,
      "chip": "ym2612"
    },
    {
      "channel": 1,
      "note": 57,
      "start": 23.6797,
      "duration": 0.3112,
      "velocity": 107,
      "chip": "ym2612"
    },
    {
      "channel": 2,
      "note": 74,
      "start": 23.6798,
      "duration": 0.6225,
      "velocity": 107,
      "chip": "ym2612"
    },
    {
      "channel": 3,
      "note": 71,
      "start": 23.6799,
      "duration": 0.6225,
      "velocity": 107,
      "chip": "ym2612"
    },
    {
      "channel": 4,
      "note": 71,
      "start": 23.8042,
      "duration": 0.6225,
      "velocity": 107,
      "chip": "ym2612"
    },
    {
      "channel": 5,
      "note": 74,
      "start": 23.8043,
      "duration": 0.6225,
      "velocity": 107,
      "chip": "ym2612"
    },
    {
      "channel": 0,
      "note": 54,
      "start": 23.8351,
      "duration": 0.0309,
      "velocity": 114,
      "chip": "ym2612"
    },
    {
      "channel": 0,
      "note": 98,
      "start": 23.9908,
      "duration": 0.1556,
      "velocity": 114,
      "chip": "ym2612"
    },
    {
      "channel": 1,
      "note": 69,
      "start": 23.9909,
      "duration": 0.3112,
      "velocity": 107,
      "chip": "ym2612"
    },
    {
      "channel": 0,
      "note": 54,
      "start": 24.1464,
      "duration": 0.0309,
      "velocity": 114,
      "chip": "ym2612"
    },
    {
      "channel": 0,
      "note": 98,
      "start": 24.302,
      "duration": 0.1556,
      "velocity": 114,
      "chip": "ym2612"
    },
    {
      "channel": 1,
      "note": 55,
      "start": 24.3022,
      "duration": 0.3113,
      "velocity": 107,
      "chip": "ym2612"
    },
    {
      "channel": 2,
      "note": 74,
      "start": 24.3023,
      "duration": 0.6225,
      "velocity": 107,
      "chip": "ym2612"
    },
    {
      "channel": 3,
      "note": 71,
      "start": 24.3024,
      "duration": 0.6224,
      "velocity": 107,
      "chip": "ym2612"
    },
    {
      "channel": 4,
      "note": 71,
      "start": 24.4267,
      "duration": 0.6225,
      "velocity": 107,
      "chip": "ym2612"
    },
    {
      "channel": 5,
      "note": 74,
      "start": 24.4268,
      "duration": 0.6225,
      "velocity": 107,
      "chip": "ym2612"
    },
    {
      "channel": 0,
      "note": 54,
      "start": 24.4577,
      "duration": 0.0309,
      "velocity": 114,
      "chip": "ym2612"
    },
    {
      "channel": 0,
      "note": 98,
      "start": 24.6133,
      "duration": 0.1556,
      "velocity": 114,
      "chip": "ym2612"
    },
    {
      "channel": 1,
      "note": 57,
      "start": 24.6134,
      "duration": 0.3112,
      "velocity": 107,
      "chip": "ym2612"
    },
    {
      "channel": 0,
      "note": 54,
      "start": 24.7689,
      "duration": 0.0309,
      "velocity": 114,
      "chip": "ym2612"
    },
    {
      "channel": 0,
      "note": 98,
      "start": 24.9246,
      "duration": 0.0309,
      "velocity": 114,
      "chip": "ym2612"
    },
    {
      "channel": 2,
      "note": 76,
      "start": 24.9248,
      "duration": 0.6225,
      "velocity": 107,
      "chip": "ym2612"
    },
    {
      "channel": 3,
      "note": 69,
      "start": 24.9249,
      "duration": 0.6225,
      "velocity": 107,
      "chip": "ym2612"
    },
    {
      "channel": 4,
      "note": 69,
      "start": 25.0492,
      "duration": 0.6225,
      "velocity": 107,
      "chip": "ym2612"
    },
    {
      "channel": 5,
      "note": 76,
      "start": 25.0493,
      "duration": 0.6225,
      "velocity": 107,
      "chip": "ym2612"
    },
    {
      "channel": 0,
      "note": 98,
      "start": 25.0802,
      "duration": 0.0309,
      "velocity": 114,
      "chip": "ym2612"
    },
    {
      "channel": 0,
      "note": 98,
      "start": 25.2358,
      "duration": 0.0154,
      "velocity": 127,
      "chip": "ym2612"
    },
    {
      "channel": 0,
      "note": 76,
      "start": 25.2512,
      "duration": 0.14,
      "velocity": 127,
      "chip": "ym2612"
    },
    {
      "channel": 0,
      "note": 68,
      "start": 25.5471,
      "duration": 0.0309,
      "velocity": 114,
      "chip": "ym2612"
    },
    {
      "channel": 2,
      "note": 76,
      "start": 25.5473,
      "duration": 0.6227,
      "velocity": 107,
      "chip": "ym2612"
    },
    {
      "channel": 3,
      "note": 69,
      "start": 25.5474,
      "duration": 0.6228,
      "velocity": 107,
      "chip": "ym2612"
    },
    {
      "channel": 4,
      "note": 69,
      "start": 25.6717,
      "duration": 0.6226,
      "velocity": 107,
      "chip": "ym2612"
    },
    {
      "channel": 5,
      "note": 76,
      "start": 25.6718,
      "duration": 0.6227,
      "velocity": 107,
      "chip": "ym2612"
    },
    {
      "channel": 0,
      "note": 98,
      "start": 25.7027,
      "duration": 0.0309,
      "velocity": 114,
      "chip": "ym2612"
    },
    {
      "channel": 0,
      "note": 98,
      "start": 25.8584,
      "duration": 0.1556,
      "velocity": 114,
      "chip": "ym2612"
    },
    {
      "channel": 0,
      "note": 54,
      "start": 26.014,
      "duration": 0.0309,
      "velocity": 114,
      "chip": "ym2612"
    },
    {
      "channel": 0,
      "note": 98,
      "start": 26.1696,
      "duration": 0.1556,
      "velocity": 114,
      "chip": "ym2612"
    },
    {
      "channel": 1,
      "note": 57,
      "start": 26.1698,
      "duration": 0.3112,
      "velocity": 107,
      "chip": "ym2612"
    },
    {
      "channel": 2,
      "note": 74,
      "start": 26.17,
      "duration": 0.6223,
      "velocity": 107,
      "chip": "ym2612"
    },
    {
      "channel": 3,
      "note": 71,
      "start": 26.1702,
      "duration": 0.6223,
      "velocity": 107,
      "chip": "ym2612"
    },
    {
      "channel": 4,
      "note": 71,
      "start": 26.2943,
      "duration": 0.6224,
      "velocity": 107,
      "chip": "ym2612"
    },
    {
      "channel": 5,
      "note": 74,
      "start": 26.2945,
      "duration": 0.6224,
      "velocity": 107,
      "chip": "ym2612"
    },
    {
      "channel": 0,
      "note": 54,
      "start": 26.3253,
      "duration": 0.0309,
      "velocity": 114,
      "chip": "ym2612"
    },
    {
      "channel": 0,
      "note": 98,
      "start": 26.4809,
      "duration": 0.1556,
      "velocity": 114,
      "chip": "ym2612"
    },
    {
      "channel": 1,
      "note": 55,
      "start": 26.481,
      "duration": 0.3112,
      "velocity": 107,
      "chip": "ym2612"
    },
    {
      "channel": 0,
      "note": 54,
      "start": 26.6365,
      "duration": 0.0309,
      "velocity": 114,
      "chip": "ym2612"
    },
    {
      "channel": 0,
      "note": 98,
      "start": 26.7922,
      "duration": 0.3112,
      "velocity": 114,
      "chip": "ym2612"
    },
    {
      "channel": 2,
      "note": 76,
      "start": 26.7924,
      "duration": 0.6225,
      "velocity": 107,
      "chip": "ym2612"
    },
    {
      "channel": 3,
      "note": 69,
      "start": 26.7925,
      "duration": 0.6225,
      "velocity": 107,
      "chip": "ym2612"
    },
    {
      "channel": 4,
      "note": 69,
      "start": 26.9168,
      "duration": 0.6225,
      "velocity": 107,
      "chip": "ym2612"
    },
    {
      "channel": 5,
      "note": 76,
      "start": 26.9169,
      "duration": 0.6225,
      "velocity": 107,
      "chip": "ym2612"
    },
    {
      "channel": 0,
      "note": 98,
      "start": 27.1034,
      "duration": 0.0309,
      "velocity": 114,
      "chip": "ym2612"
    },
    {
      "channel": 0,
      "note": 98,
      "start": 27.259,
      "duration": 0.0309,
      "velocity": 114,
      "chip": "ym2612"
    },
    {
      "channel": 0,
      "note": 98,
      "start": 27.4147,
      "duration": 0.0154,
      "velocity": 127,
      "chip": "ym2612"
    },
    {
      "channel": 2,
      "note": 76,
      "start": 27.4149,
      "duration": 0.6226,
      "velocity": 107,
      "chip": "ym2612"
    },
    {
      "channel": 3,
      "note": 69,
      "start": 27.415,
      "duration": 0.6226,
      "velocity": 107,
      "chip": "ym2612"
    },
    {
      "channel": 0,
      "note": 76,
      "start": 27.43,
      "duration": 0.14,
      "velocity": 127,
      "chip": "ym2612"
    },
    {
      "channel": 4,
      "note": 69,
      "start": 27.5393,
      "duration": 0.6225,
      "velocity": 107,
      "chip": "ym2612"
    },
    {
      "channel": 5,
      "note": 76,
      "start": 27.5395,
      "duration": 0.6225,
      "velocity": 107,
      "chip": "ym2612"
    },
    {
      "channel": 0,
      "note": 68,
      "start": 27.7259,
      "duration": 0.0309,
      "velocity": 114,
      "chip": "ym2612"
    },
    {
      "channel": 0,
      "note": 98,
      "start": 27.8816,
      "duration": 0.0309,
      "velocity": 114,
      "chip": "ym2612"
    },
    {
      "channel": 0,
      "note": 98,
      "start": 28.0372,
      "duration": 0.1556,
      "velocity": 114,
      "chip": "ym2612"
    },
    {
      "channel": 1,
      "note": 57,
      "start": 28.0373,
      "duration": 0.3112,
      "velocity": 107,
      "chip": "ym2612"
    },
    {
      "channel": 2,
      "note": 74,
      "start": 28.0375,
      "duration": 0.6225,
      "velocity": 107,
      "chip": "ym2612"
    },
    {
      "channel": 3,
      "note": 71,
      "start": 28.0376,
      "duration": 0.6225,
      "velocity": 107,
      "chip": "ym2612"
    },
    {
      "channel": 4,
      "note": 71,
      "start": 28.1618,
      "duration": 0.6225,
      "velocity": 107,
      "chip": "ym2612"
    },
    {
      "channel": 5,
      "note": 74,
      "start": 28.162,
      "duration": 0.6225,
      "velocity": 107,
      "chip": "ym2612"
    },
    {
      "channel": 0,
      "note": 54,
      "start": 28.1928,
      "duration": 0.031,
      "velocity": 114,
      "chip": "ym2612"
    },
    {
      "channel": 0,
      "note": 98,
      "start": 28.3485,
      "duration": 0.1556,
      "velocity": 114,
      "chip": "ym2612"
    },
    {
      "channel": 1,
      "note": 69,
      "start": 28.3486,
      "duration": 0.3112,
      "velocity": 107,
      "chip": "ym2612"
    },
    {
      "channel": 0,
      "note": 54,
      "start": 28.5041,
      "duration": 0.0309,
      "velocity": 114,
      "chip": "ym2612"
    },
    {
      "channel": 0,
      "note": 98,
      "start": 28.6597,
      "duration": 0.1556,
      "velocity": 114,
      "chip": "ym2612"
    },
    {
      "channel": 1,
      "note": 55,
      "start": 28.6598,
      "duration": 0.3113,
      "velocity": 107,
      "chip": "ym2612"
    },
    {
      "channel": 2,
      "note": 74,
      "start": 28.66,
      "duration": 0.6225,
      "velocity": 107,
      "chip": "ym2612"
    },
    {
      "channel": 3,
      "note": 71,
      "start": 28.6601,
      "duration": 0.6225,
      "velocity": 107,
      "chip": "ym2612"
    },
    {
      "channel": 4,
      "note": 71,
      "start": 28.7844,
      "duration": 0.6225,
      "velocity": 107,
      "chip": "ym2612"
    },
    {
      "channel": 5,
      "note": 74,
      "start": 28.7845,
      "duration": 0.6227,
      "velocity": 107,
      "chip": "ym2612"
    },
    {
      "channel": 0,
      "note": 54,
      "start": 28.8154,
      "duration": 0.0309,
      "velocity": 114,
      "chip": "ym2612"
    },
    {
      "channel": 0,
      "note": 98,
      "start": 28.971,
      "duration": 0.1556,
      "velocity": 114,
      "chip": "ym2612"
    },
    {
      "channel": 1,
      "note": 57,
      "start": 28.9711,
      "duration": 0.3112,
      "velocity": 107,
      "chip": "ym2612"
    },
    {
      "channel": 0,
      "note": 54,
      "start": 29.1266,
      "duration": 0.0309,
      "velocity": 114,
      "chip": "ym2612"
    },
    {
      "channel": 0,
      "note": 98,
      "start": 29.2822,
      "duration": 0.0309,
      "velocity": 114,
      "chip": "ym2612"
    },
    {
      "channel": 2,
      "note": 76,
      "start": 29.2824,
      "duration": 0.6225,
      "velocity": 107,
      "chip": "ym2612"
    },
    {
      "channel": 3,
      "note": 69,
      "start": 29.2826,
      "duration": 0.6225,
      "velocity": 107,
      "chip": "ym2612"
    },
    {
      "channel": 4,
      "note": 69,
      "start": 29.4068,
      "duration": 0.6225,
      "velocity": 107,
      "chip": "ym2612"
    },
    {
      "channel": 5,
      "note": 76,
      "start": 29.4072,
      "duration": 0.6223,
      "velocity": 107,
      "chip": "ym2612"
    },
    {
      "channel": 0,
      "note": 98,
      "start": 29.4379,
      "duration": 0.0309,
      "velocity": 114,
      "chip": "ym2612"
    },
    {
      "channel": 0,
      "note": 98,
      "start": 29.5935,
      "duration": 0.0154,
      "velocity": 127,
      "chip": "ym2612"
    },
    {
      "channel": 0,
      "note": 76,
      "start": 29.6089,
      "duration": 0.14,
      "velocity": 127,
      "chip": "ym2612"
    },
    {
      "channel": 0,
      "note": 68,
      "start": 29.9048,
      "duration": 0.0309,
      "velocity": 114,
      "chip": "ym2612"
    },
    {
      "channel": 2,
      "note": 76,
      "start": 29.905,
      "duration": 0.6226,
      "velocity": 107,
      "chip": "ym2612"
    },
    {
      "channel": 3,
      "note": 69,
      "start": 29.9051,
      "duration": 0.6226,
      "velocity": 107,
      "chip": "ym2612"
    },
    {
      "channel": 4,
      "note": 69,
      "start": 30.0294,
      "duration": 0.6225,
      "velocity": 107,
      "chip": "ym2612"
    },
    {
      "channel": 5,
      "note": 76,
      "start": 30.0295,
      "duration": 0.6225,
      "velocity": 107,
      "chip": "ym2612"
    },
    {
      "channel": 0,
      "note": 98,
      "start": 30.0604,
      "duration": 0.0309,
      "velocity": 114,
      "chip": "ym2612"
    },
    {
      "channel": 0,
      "note": 98,
      "start": 30.216,
      "duration": 0.1556,
      "velocity": 114,
      "chip": "ym2612"
    },
    {
      "channel": 0,
      "note": 54,
      "start": 30.3717,
      "duration": 0.0309,
      "velocity": 114,
      "chip": "ym2612"
    },
    {
      "channel": 0,
      "note": 98,
      "start": 30.5273,
      "duration": 0.1556,
      "velocity": 114,
      "chip": "ym2612"
    },
    {
      "channel": 1,
      "note": 57,
      "start": 30.5274,
      "duration": 0.3112,
      "velocity": 107,
      "chip": "ym2612"
    },
    {
      "channel": 2,
      "note": 74,
      "start": 30.5276,
      "duration": 0.6224,
      "velocity": 107,
      "chip": "ym2612"
    },
    {
      "channel": 3,
      "note": 71,
      "start": 30.5277,
      "duration": 0.6224,
      "velocity": 107,
      "chip": "ym2612"
    },
    {
      "channel": 4,
      "note": 71,
      "start": 30.6519,
      "duration": 0.6225,
      "velocity": 107,
      "chip": "ym2612"
    },
    {
      "channel": 5,
      "note": 74,
      "start": 30.6521,
      "duration": 0.6225,
      "velocity": 107,
      "chip": "ym2612"
    },
    {
      "channel": 0,
      "note": 54,
      "start": 30.6829,
      "duration": 0.0309,
      "velocity": 114,
      "chip": "ym2612"
    },
    {
      "channel": 0,
      "note": 98,
      "start": 30.8385,
      "duration": 0.1556,
      "velocity": 114,
      "chip": "ym2612"
    },
    {
      "channel": 1,
      "note": 55,
      "start": 30.8387,
      "duration": 0.3112,
      "velocity": 107,
      "chip": "ym2612"
    },
    {
      "channel": 0,
      "note": 54,
      "start": 30.9942,
      "duration": 0.0309,
      "velocity": 114,
      "chip": "ym2612"
    },
    {
      "channel": 0,
      "note": 98,
      "start": 31.1498,
      "duration": 0.3113,
      "velocity": 114,
      "chip": "ym2612"
    },
    {
      "channel": 2,
      "note": 76,
      "start": 31.15,
      "duration": 0.6225,
      "velocity": 107,
      "chip": "ym2612"
    },
    {
      "channel": 3,
      "note": 69,
      "start": 31.1502,
      "duration": 0.6225,
      "velocity": 107,
      "chip": "ym2612"
    },
    {
      "channel": 4,
      "note": 69,
      "start": 31.2744,
      "duration": 0.6225,
      "velocity": 107,
      "chip": "ym2612"
    },
    {
      "channel": 5,
      "note": 76,
      "start": 31.2746,
      "duration": 0.6225,
      "velocity": 107,
      "chip": "ym2612"
    },
    {
      "channel": 0,
      "note": 98,
      "start": 31.4611,
      "duration": 0.0309,
      "velocity": 114,
      "chip": "ym2612"
    },
    {
      "channel": 0,
      "note": 98,
      "start": 31.6167,
      "duration": 0.0309,
      "velocity": 114,
      "chip": "ym2612"
    },
    {
      "channel": 0,
      "note": 98,
      "start": 31.7723,
      "duration": 0.0154,
      "velocity": 127,
      "chip": "ym2612"
    },
    {
      "channel": 2,
      "note": 76,
      "start": 31.7725,
      "duration": 0.6226,
      "velocity": 107,
      "chip": "ym2612"
    },
    {
      "channel": 3,
      "note": 69,
      "start": 31.7727,
      "duration": 0.6226,
      "velocity": 107,
      "chip": "ym2612"
    },
    {
      "channel": 0,
      "note": 76,
      "start": 31.7877,
      "duration": 0.14,
      "velocity": 127,
      "chip": "ym2612"
    },
    {
      "channel": 4,
      "note": 69,
      "start": 31.897,
      "duration": 0.6225,
      "velocity": 107,
      "chip": "ym2612"
    },
    {
      "channel": 5,
      "note": 76,
      "start": 31.8971,
      "duration": 0.6225,
      "velocity": 107,
      "chip": "ym2612"
    },
    {
      "channel": 0,
      "note": 68,
      "start": 32.0836,
      "duration": 0.0309,
      "velocity": 114,
      "chip": "ym2612"
    },
    {
      "channel": 0,
      "note": 98,
      "start": 32.2392,
      "duration": 0.0309,
      "velocity": 114,
      "chip": "ym2612"
    },
    {
      "channel": 0,
      "note": 98,
      "start": 32.3949,
      "duration": 0.1556,
      "velocity": 114,
      "chip": "ym2612"
    },
    {
      "channel": 1,
      "note": 57,
      "start": 32.395,
      "duration": 0.3113,
      "velocity": 107,
      "chip": "ym2612"
    },
    {
      "channel": 2,
      "note": 74,
      "start": 32.3951,
      "duration": 0.6225,
      "velocity": 107,
      "chip": "ym2612"
    },
    {
      "channel": 3,
      "note": 71,
      "start": 32.3953,
      "duration": 0.6225,
      "velocity": 107,
      "chip": "ym2612"
    },
    {
      "channel": 4,
      "note": 71,
      "start": 32.5195,
      "duration": 0.6225,
      "velocity": 107,
      "chip": "ym2612"
    },
    {
      "channel": 5,
      "note": 74,
      "start": 32.5196,
      "duration": 0.6225,
      "velocity": 107,
      "chip": "ym2612"
    },
    {
      "channel": 0,
      "note": 54,
      "start": 32.5505,
      "duration": 0.0309,
      "velocity": 114,
      "chip": "ym2612"
    },
    {
      "channel": 0,
      "note": 98,
      "start": 32.7061,
      "duration": 0.1556,
      "velocity": 114,
      "chip": "ym2612"
    },
    {
      "channel": 1,
      "note": 69,
      "start": 32.7063,
      "duration": 0.3112,
      "velocity": 107,
      "chip": "ym2612"
    },
    {
      "channel": 0,
      "note": 54,
      "start": 32.8617,
      "duration": 0.0309,
      "velocity": 114,
      "chip": "ym2612"
    },
    {
      "channel": 0,
      "note": 98,
      "start": 33.0174,
      "duration": 0.1556,
      "velocity": 114,
      "chip": "ym2612"
    },
    {
      "channel": 1,
      "note": 55,
      "start": 33.0175,
      "duration": 0.3112,
      "velocity": 107,
      "chip": "ym2612"
    },
    {
      "channel": 2,
      "note": 74,
      "start": 33.0177,
      "duration": 0.6224,
      "velocity": 107,
      "chip": "ym2612"
    },
    {
      "channel": 3,
      "note": 71,
      "start": 33.0178,
      "duration": 0.6226,
      "velocity": 107,
      "chip": "ym2612"
    },
    {
      "channel": 4,
      "note": 71,
      "start": 33.142,
      "duration": 0.6225,
      "velocity": 107,
      "chip": "ym2612"
    },
    {
      "channel": 5,
      "note": 74,
      "start": 33.1422,
      "duration": 0.6225,
      "velocity": 107,
      "chip": "ym2612"
    },
    {
      "channel": 0,
      "note": 54,
      "start": 33.173,
      "duration": 0.0309,
      "velocity": 114,
      "chip": "ym2612"
    },
    {
      "channel": 0,
      "note": 98,
      "start": 33.3286,
      "duration": 0.1556,
      "velocity": 114,
      "chip": "ym2612"
    },
    {
      "channel": 1,
      "note": 57,
      "start": 33.3288,
      "duration": 0.3112,
      "velocity": 107,
      "chip": "ym2612"
    },
    {
      "channel": 0,
      "note": 54,
      "start": 33.4843,
      "duration": 0.0309,
      "velocity": 114,
      "chip": "ym2612"
    },
    {
      "channel": 0,
      "note": 98,
      "start": 33.6399,
      "duration": 0.0309,
      "velocity": 114,
      "chip": "ym2612"
    },
    {
      "channel": 2,
      "note": 76,
      "start": 33.6401,
      "duration": 0.6225,
      "velocity": 107,
      "chip": "ym2612"
    },
    {
      "channel": 3,
      "note": 69,
      "start": 33.6404,
      "duration": 0.6223,
      "velocity": 107,
      "chip": "ym2612"
    },
    {
      "channel": 4,
      "note": 69,
      "start": 33.7645,
      "duration": 0.6225,
      "velocity": 107,
      "chip": "ym2612"
    },
    {
      "channel": 5,
      "note": 76,
      "start": 33.7646,
      "duration": 0.6225,
      "velocity": 107,
      "chip": "ym2612"
    },
    {
      "channel": 0,
      "note": 98,
      "start": 33.7955,
      "duration": 0.0309,
      "velocity": 114,
      "chip": "ym2612"
    },
    {
      "channel": 0,
      "note": 98,
      "start": 33.9512,
      "duration": 0.0154,
      "velocity": 127,
      "chip": "ym2612"
    },
    {
      "channel": 0,
      "note": 76,
      "start": 33.9665,
      "duration": 0.14,
      "velocity": 127,
      "chip": "ym2612"
    },
    {
      "channel": 0,
      "note": 68,
      "start": 34.2624,
      "duration": 0.0309,
      "velocity": 114,
      "chip": "ym2612"
    },
    {
      "channel": 2,
      "note": 76,
      "start": 34.2626,
      "duration": 0.6227,
      "velocity": 107,
      "chip": "ym2612"
    },
    {
      "channel": 3,
      "note": 69,
      "start": 34.2628,
      "duration": 0.6228,
      "velocity": 107,
      "chip": "ym2612"
    },
    {
      "channel": 4,
      "note": 69,
      "start": 34.3871,
      "duration": 0.6226,
      "velocity": 107,
      "chip": "ym2612"
    },
    {
      "channel": 5,
      "note": 76,
      "start": 34.3872,
      "duration": 0.6227,
      "velocity": 107,
      "chip": "ym2612"
    },
    {
      "channel": 0,
      "note": 98,
      "start": 34.4181,
      "duration": 0.0309,
      "velocity": 114,
      "chip": "ym2612"
    },
    {
      "channel": 0,
      "note": 98,
      "start": 34.5739,
      "duration": 0.1555,
      "velocity": 114,
      "chip": "ym2612"
    },
    {
      "channel": 0,
      "note": 54,
      "start": 34.7293,
      "duration": 0.0309,
      "velocity": 114,
      "chip": "ym2612"
    },
    {
      "channel": 0,
      "note": 98,
      "start": 34.885,
      "duration": 0.1558,
      "velocity": 114,
      "chip": "ym2612"
    },
    {
      "channel": 1,
      "note": 57,
      "start": 34.8852,
      "duration": 0.3112,
      "velocity": 107,
      "chip": "ym2612"
    },
    {
      "channel": 2,
      "note": 74,
      "start": 34.8854,
      "duration": 0.6223,
      "velocity": 107,
      "chip": "ym2612"
    },
    {
      "channel": 3,
      "note": 71,
      "start": 34.8856,
      "duration": 0.6222,
      "velocity": 107,
      "chip": "ym2612"
    },
    {
      "channel": 4,
      "note": 71,
      "start": 35.0097,
      "duration": 0.6224,
      "velocity": 107,
      "chip": "ym2612"
    },
    {
      "channel": 5,
      "note": 74,
      "start": 35.0099,
      "duration": 0.6224,
      "velocity": 107,
      "chip": "ym2612"
    },
    {
      "channel": 0,
      "note": 54,
      "start": 35.0407,
      "duration": 0.0307,
      "velocity": 114,
      "chip": "ym2612"
    },
    {
      "channel": 0,
      "note": 98,
      "start": 35.1962,
      "duration": 0.1556,
      "velocity": 114,
      "chip": "ym2612"
    },
    {
      "channel": 1,
      "note": 56,
      "start": 35.1963,
      "duration": 0.3112,
      "velocity": 107,
      "chip": "ym2612"
    },
    {
      "channel": 0,
      "note": 54,
      "start": 35.3519,
      "duration": 0.0309,
      "velocity": 114,
      "chip": "ym2612"
    },
    {
      "channel": 0,
      "note": 98,
      "start": 35.5075,
      "duration": 0.3113,
      "velocity": 114,
      "chip": "ym2612"
    },
    {
      "channel": 2,
      "note": 77,
      "start": 35.5077,
      "duration": 0.6225,
      "velocity": 107,
      "chip": "ym2612"
    },
    {
      "channel": 3,
      "note": 70,
      "start": 35.5078,
      "duration": 0.6225,
      "velocity": 107,
      "chip": "ym2612"
    },
    {
      "channel": 4,
      "note": 70,
      "start": 35.6321,
      "duration": 0.6226,
      "velocity": 107,
      "chip": "ym2612"
    },
    {
      "channel": 5,
      "note": 77,
      "start": 35.6322,
      "duration": 0.6225,
      "velocity": 107,
      "chip": "ym2612"
    },
    {
      "channel": 0,
      "note": 98,
      "start": 35.8188,
      "duration": 0.0309,
      "velocity": 114,
      "chip": "ym2612"
    },
    {
      "channel": 0,
      "note": 98,
      "start": 35.9744,
      "duration": 0.0309,
      "velocity": 114,
      "chip": "ym2612"
    },
    {
      "channel": 0,
      "note": 98,
      "start": 36.13,
      "duration": 0.0154,
      "velocity": 127,
      "chip": "ym2612"
    },
    {
      "channel": 2,
      "note": 77,
      "start": 36.1302,
      "duration": 0.6226,
      "velocity": 107,
      "chip": "ym2612"
    },
    {
      "channel": 3,
      "note": 70,
      "start": 36.1303,
      "duration": 0.6226,
      "velocity": 107,
      "chip": "ym2612"
    },
    {
      "channel": 0,
      "note": 76,
      "start": 36.1454,
      "duration": 0.1401,
      "velocity": 127,
      "chip": "ym2612"
    },
    {
      "channel": 4,
      "note": 70,
      "start": 36.2546,
      "duration": 0.6225,
      "velocity": 107,
      "chip": "ym2612"
    },
    {
      "channel": 5,
      "note": 77,
      "start": 36.2548,
      "duration": 0.6225,
      "velocity": 107,
      "chip": "ym2612"
    },
    {
      "channel": 0,
      "note": 68,
      "start": 36.4412,
      "duration": 0.0309,
      "velocity": 114,
      "chip": "ym2612"
    },
    {
      "channel": 0,
      "note": 98,
      "start": 36.5969,
      "duration": 0.0309,
      "velocity": 114,
      "chip": "ym2612"
    },
    {
      "channel": 0,
      "note": 98,
      "start": 36.7525,
      "duration": 0.1556,
      "velocity": 114,
      "chip": "ym2612"
    },
    {
      "channel": 1,
      "note": 58,
      "start": 36.7527,
      "duration": 0.3113,
      "velocity": 107,
      "chip": "ym2612"
    },
    {
      "channel": 2,
      "note": 75,
      "start": 36.7528,
      "duration": 0.6225,
      "velocity": 107,
      "chip": "ym2612"
    },
    {
      "channel": 3,
      "note": 72,
      "start": 36.7529,
      "duration": 0.6225,
      "velocity": 107,
      "chip": "ym2612"
    },
    {
      "channel": 4,
      "note": 72,
      "start": 36.8772,
      "duration": 0.6225,
      "velocity": 107,
      "chip": "ym2612"
    },
    {
      "channel": 5,
      "note": 75,
      "start": 36.8773,
      "duration": 0.6225,
      "velocity": 107,
      "chip": "ym2612"
    },
    {
      "channel": 0,
      "note": 54,
      "start": 36.9082,
      "duration": 0.0309,
      "velocity": 114,
      "chip": "ym2612"
    },
    {
      "channel": 0,
      "note": 98,
      "start": 37.0638,
      "duration": 0.1556,
      "velocity": 114,
      "chip": "ym2612"
    },
    {
      "channel": 1,
      "note": 70,
      "start": 37.0639,
      "duration": 0.3112,
      "velocity": 107,
      "chip": "ym2612"
    },
    {
      "channel": 0,
      "note": 54,
      "start": 37.2194,
      "duration": 0.0309,
      "velocity": 114,
      "chip": "ym2612"
    },
    {
      "channel": 0,
      "note": 98,
      "start": 37.3751,
      "duration": 0.1556,
      "velocity": 114,
      "chip": "ym2612"
    },
    {
      "channel": 1,
      "note": 56,
      "start": 37.3752,
      "duration": 0.3112,
      "velocity": 107,
      "chip": "ym2612"
    },
    {
      "channel": 2,
      "note": 75,
      "start": 37.3753,
      "duration": 0.6224,
      "velocity": 107,
      "chip": "ym2612"
    },
    {
      "channel": 3,
      "note": 72,
      "start": 37.3754,
      "duration": 0.6225,
      "velocity": 107,
      "chip": "ym2612"
    },
    {
      "channel": 4,
      "note": 72,
      "start": 37.4997,
      "duration": 0.6225,
      "velocity": 107,
      "chip": "ym2612"
    },
    {
      "channel": 5,
      "note": 75,
      "start": 37.4998,
      "duration": 0.6225,
      "velocity": 107,
      "chip": "ym2612"
    },
    {
      "channel": 0,
      "note": 54,
      "start": 37.5307,
      "duration": 0.0309,
      "velocity": 114,
      "chip": "ym2612"
    },
    {
      "channel": 0,
      "note": 98,
      "start": 37.6863,
      "duration": 0.1556,
      "velocity": 114,
      "chip": "ym2612"
    },
    {
      "channel": 1,
      "note": 58,
      "start": 37.6864,
      "duration": 0.3112,
      "velocity": 107,
      "chip": "ym2612"
    },
    {
      "channel": 0,
      "note": 54,
      "start": 37.842,
      "duration": 0.0309,
      "velocity": 114,
      "chip": "ym2612"
    },
    {
      "channel": 0,
      "note": 98,
      "start": 37.9976,
      "duration": 0.0309,
      "velocity": 114,
      "chip": "ym2612"
    },
    {
      "channel": 2,
      "note": 77,
      "start": 37.9978,
      "duration": 0.6225,
      "velocity": 107,
      "chip": "ym2612"
    },
    {
      "channel": 3,
      "note": 70,
      "start": 37.9979,
      "duration": 0.6225,
      "velocity": 107,
      "chip": "ym2612"
    },
    {
      "channel": 4,
      "note": 70,
      "start": 38.1222,
      "duration": 0.6225,
      "velocity": 107,
      "chip": "ym2612"
    },
    {
      "channel": 5,
      "note": 77,
      "start": 38.1223,
      "duration": 0.6225,
      "velocity": 107,
      "chip": "ym2612"
    },
    {
      "channel": 0,
      "note": 98,
      "start": 38.1532,
      "duration": 0.0309,
      "velocity": 114,
      "chip": "ym2612"
    },
    {
      "channel": 0,
      "note": 98,
      "start": 38.3088,
      "duration": 0.0154,
      "velocity": 127,
      "chip": "ym2612"
    },
    {
      "channel": 0,
      "note": 76,
      "start": 38.3242,
      "duration": 0.14,
      "velocity": 127,
      "chip": "ym2612"
    },
    {
      "channel": 0,
      "note": 68,
      "start": 38.6201,
      "duration": 0.0309,
      "velocity": 114,
      "chip": "ym2612"
    },
    {
      "channel": 2,
      "note": 77,
      "start": 38.6203,
      "duration": 0.6226,
      "velocity": 107,
      "chip": "ym2612"
    },
    {
      "channel": 3,
      "note": 70,
      "start": 38.6204,
      "duration": 0.6226,
      "velocity": 107,
      "chip": "ym2612"
    },
    {
      "channel": 4,
      "note": 70,
      "start": 38.7447,
      "duration": 0.6225,
      "velocity": 107,
      "chip": "ym2612"
    },
    {
      "channel": 5,
      "note": 77,
      "start": 38.7449,
      "duration": 0.6225,
      "velocity": 107,
      "chip": "ym2612"
    },
    {
      "channel": 0,
      "note": 98,
      "start": 38.7757,
      "duration": 0.0309,
      "velocity": 114,
      "chip": "ym2612"
    },
    {
      "channel": 0,
      "note": 98,
      "start": 38.9314,
      "duration": 0.1556,
      "velocity": 114,
      "chip": "ym2612"
    },
    {
      "channel": 0,
      "note": 54,
      "start": 39.087,
      "duration": 0.0309,
      "velocity": 114,
      "chip": "ym2612"
    },
    {
      "channel": 0,
      "note": 98,
      "start": 39.2426,
      "duration": 0.1556,
      "velocity": 114,
      "chip": "ym2612"
    },
    {
      "channel": 1,
      "note": 58,
      "start": 39.2428,
      "duration": 0.3112,
      "velocity": 107,
      "chip": "ym2612"
    },
    {
      "channel": 2,
      "note": 75,
      "start": 39.2429,
      "duration": 0.6224,
      "velocity": 107,
      "chip": "ym2612"
    },
    {
      "channel": 3,
      "note": 72,
      "start": 39.243,
      "duration": 0.6224,
      "velocity": 107,
      "chip": "ym2612"
    },
    {
      "channel": 4,
      "note": 72,
      "start": 39.3673,
      "duration": 0.6225,
      "velocity": 107,
      "chip": "ym2612"
    },
    {
      "channel": 5,
      "note": 75,
      "start": 39.3674,
      "duration": 0.6225,
      "velocity": 107,
      "chip": "ym2612"
    },
    {
      "channel": 0,
      "note": 54,
      "start": 39.3983,
      "duration": 0.0309,
      "velocity": 114,
      "chip": "ym2612"
    },
    {
      "channel": 0,
      "note": 98,
      "start": 39.5539,
      "duration": 0.1556,
      "velocity": 114,
      "chip": "ym2612"
    },
    {
      "channel": 1,
      "note": 56,
      "start": 39.554,
      "duration": 0.3112,
      "velocity": 107,
      "chip": "ym2612"
    },
    {
      "channel": 0,
      "note": 54,
      "start": 39.7095,
      "duration": 0.031,
      "velocity": 114,
      "chip": "ym2612"
    },
    {
      "channel": 0,
      "note": 98,
      "start": 39.8651,
      "duration": 0.3113,
      "velocity": 114,
      "chip": "ym2612"
    },
    {
      "channel": 2,
      "note": 77,
      "start": 39.8654,
      "duration": 0.6225,
      "velocity": 107,
      "chip": "ym2612"
    },
    {
      "channel": 3,
      "note": 70,
      "start": 39.8655,
      "duration": 0.6225,
      "velocity": 107,
      "chip": "ym2612"
    },
    {
      "channel": 4,
      "note": 70,
      "start": 39.9898,
      "duration": 0.6226,
      "velocity": 107,
      "chip": "ym2612"
    },
    {
      "channel": 5,
      "note": 77,
      "start": 39.9899,
      "duration": 0.6226,
      "velocity": 107,
      "chip": "ym2612"
    },
    {
      "channel": 0,
      "note": 98,
      "start": 40.1764,
      "duration": 0.0309,
      "velocity": 114,
      "chip": "ym2612"
    },
    {
      "channel": 0,
      "note": 98,
      "start": 40.332,
      "duration": 0.0309,
      "velocity": 114,
      "chip": "ym2612"
    },
    {
      "channel": 0,
      "note": 98,
      "start": 40.4877,
      "duration": 0.0154,
      "velocity": 127,
      "chip": "ym2612"
    },
    {
      "channel": 2,
      "note": 77,
      "start": 40.4879,
      "duration": 0.6226,
      "velocity": 107,
      "chip": "ym2612"
    },
    {
      "channel": 3,
      "note": 70,
      "start": 40.488,
      "duration": 0.6226,
      "velocity": 107,
      "chip": "ym2612"
    },
    {
      "channel": 0,
      "note": 76,
      "start": 40.503,
      "duration": 0.1401,
      "velocity": 127,
      "chip": "ym2612"
    },
    {
      "channel": 4,
      "note": 70,
      "start": 40.6123,
      "duration": 0.6225,
      "velocity": 107,
      "chip": "ym2612"
    },
    {
      "channel": 5,
      "note": 77,
      "start": 40.6124,
      "duration": 0.6225,
      "velocity": 107,
      "chip": "ym2612"
    },
    {
      "channel": 0,
      "note": 68,
      "start": 40.7989,
      "duration": 0.0309,
      "velocity": 114,
      "chip": "ym2612"
    },
    {
      "channel": 0,
      "note": 98,
      "start": 40.9546,
      "duration": 0.0309,
      "velocity": 114,
      "chip": "ym2612"
    },
    {
      "channel": 0,
      "note": 98,
      "start": 41.1102,
      "duration": 0.1556,
      "velocity": 114,
      "chip": "ym2612"
    },
    {
      "channel": 1,
      "note": 58,
      "start": 41.1103,
      "duration": 0.3113,
      "velocity": 107,
      "chip": "ym2612"
    },
    {
      "channel": 2,
      "note": 75,
      "start": 41.1105,
      "duration": 0.6225,
      "velocity": 107,
      "chip": "ym2612"
    },
    {
      "channel": 3,
      "note": 72,
      "start": 41.1106,
      "duration": 0.6225,
      "velocity": 107,
      "chip": "ym2612"
    },
    {
      "channel": 4,
      "note": 72,
      "start": 41.2348,
      "duration": 0.6227,
      "velocity": 107,
      "chip": "ym2612"
    },
    {
      "channel": 5,
      "note": 75,
      "start": 41.235,
      "duration": 0.6227,
      "velocity": 107,
      "chip": "ym2612"
    },
    {
      "channel": 0,
      "note": 54,
      "start": 41.2658,
      "duration": 0.0309,
      "velocity": 114,
      "chip": "ym2612"
    },
    {
      "channel": 0,
      "note": 98,
      "start": 41.4215,
      "duration": 0.1556,
      "velocity": 114,
      "chip": "ym2612"
    },
    {
      "channel": 1,
      "note": 70,
      "start": 41.4216,
      "duration": 0.3112,
      "velocity": 107,
      "chip": "ym2612"
    },
    {
      "channel": 0,
      "note": 54,
      "start": 41.5771,
      "duration": 0.0309,
      "velocity": 114,
      "chip": "ym2612"
    },
    {
      "channel": 0,
      "note": 98,
      "start": 41.7327,
      "duration": 0.1556,
      "velocity": 114,
      "chip": "ym2612"
    },
    {
      "channel": 1,
      "note": 56,
      "start": 41.7329,
      "duration": 0.3112,
      "velocity": 107,
      "chip": "ym2612"
    },
    {
      "channel": 2,
      "note": 75,
      "start": 41.733,
      "duration": 0.6224,
      "velocity": 107,
      "chip": "ym2612"
    },
    {
      "channel": 3,
      "note": 72,
      "start": 41.7331,
      "duration": 0.6224,
      "velocity": 107,
      "chip": "ym2612"
    },
    {
      "channel": 4,
      "note": 72,
      "start": 41.8575,
      "duration": 0.6223,
      "velocity": 107,
      "chip": "ym2612"
    },
    {
      "channel": 5,
      "note": 75,
      "start": 41.8577,
      "duration": 0.6223,
      "velocity": 107,
      "chip": "ym2612"
    },
    {
      "channel": 0,
      "note": 54,
      "start": 41.8883,
      "duration": 0.0309,
      "velocity": 114,
      "chip": "ym2612"
    },
    {
      "channel": 0,
      "note": 98,
      "start": 42.044,
      "duration": 0.1556,
      "velocity": 114,
      "chip": "ym2612"
    },
    {
      "channel": 1,
      "note": 58,
      "start": 42.0441,
      "duration": 0.3112,
      "velocity": 107,
      "chip": "ym2612"
    },
    {
      "channel": 0,
      "note": 54,
      "start": 42.1996,
      "duration": 0.0309,
      "velocity": 114,
      "chip": "ym2612"
    },
    {
      "channel": 0,
      "note": 98,
      "start": 42.3552,
      "duration": 0.0309,
      "velocity": 114,
      "chip": "ym2612"
    },
    {
      "channel": 2,
      "note": 77,
      "start": 42.3555,
      "duration": 0.6225,
      "velocity": 107,
      "chip": "ym2612"
    },
    {
      "channel": 3,
      "note": 70,
      "start": 42.3556,
      "duration": 0.6225,
      "velocity": 107,
      "chip": "ym2612"
    },
    {
      "channel": 4,
      "note": 70,
      "start": 42.4799,
      "duration": 0.6225,
      "velocity": 107,
      "chip": "ym2612"
    },
    {
      "channel": 5,
      "note": 77,
      "start": 42.48,
      "duration": 0.6225,
      "velocity": 107,
      "chip": "ym2612"
    },
    {
      "channel": 0,
      "note": 98,
      "start": 42.5109,
      "duration": 0.0309,
      "velocity": 114,
      "chip": "ym2612"
    },
    {
      "channel": 0,
      "note": 98,
      "start": 42.6665,
      "duration": 0.0154,
      "velocity": 127,
      "chip": "ym2612"
    },
    {
      "channel": 0,
      "note": 76,
      "start": 42.6819,
      "duration": 0.14,
      "velocity": 127,
      "chip": "ym2612"
    },
    {
      "channel": 0,
      "note": 68,
      "start": 42.9778,
      "duration": 0.0309,
      "velocity": 114,
      "chip": "ym2612"
    },
    {
      "channel": 2,
      "note": 77,
      "start": 42.978,
      "duration": 0.6227,
      "velocity": 107,
      "chip": "ym2612"
    },
    {
      "channel": 3,
      "note": 70,
      "start": 42.9781,
      "duration": 0.6227,
      "velocity": 107,
      "chip": "ym2612"
    },
    {
      "channel": 4,
      "note": 70,
      "start": 43.1024,
      "duration": 0.6226,
      "velocity": 107,
      "chip": "ym2612"
    },
    {
      "channel": 5,
      "note": 77,
      "start": 43.1025,
      "duration": 0.6226,
      "velocity": 107,
      "chip": "ym2612"
    },
    {
      "channel": 0,
      "note": 98,
      "start": 43.1334,
      "duration": 0.0309,
      "velocity": 114,
      "chip": "ym2612"
    },
    {
      "channel": 0,
      "note": 98,
      "start": 43.289,
      "duration": 0.1556,
      "velocity": 114,
      "chip": "ym2612"
    },
    {
      "channel": 0,
      "note": 54,
      "start": 43.4446,
      "duration": 0.0309,
      "velocity": 114,
      "chip": "ym2612"
    },
    {
      "channel": 0,
      "note": 98,
      "start": 43.6003,
      "duration": 0.1556,
      "velocity": 114,
      "chip": "ym2612"
    },
    {
      "channel": 1,
      "note": 58,
      "start": 43.6005,
      "duration": 0.3112,
      "velocity": 107,
      "chip": "ym2612"
    },
    {
      "channel": 2,
      "note": 75,
      "start": 43.6007,
      "duration": 0.6224,
      "velocity": 107,
      "chip": "ym2612"
    },
    {
      "channel": 3,
      "note": 72,
      "start": 43.6008,
      "duration": 0.6223,
      "velocity": 107,
      "chip": "ym2612"
    },
    {
      "channel": 4,
      "note": 72,
      "start": 43.725,
      "duration": 0.6224,
      "velocity": 107,
      "chip": "ym2612"
    },
    {
      "channel": 5,
      "note": 75,
      "start": 43.7251,
      "duration": 0.6224,
      "velocity": 107,
      "chip": "ym2612"
    },
    {
      "channel": 0,
      "note": 54,
      "start": 43.7559,
      "duration": 0.0309,
      "velocity": 114,
      "chip": "ym2612"
    },
    {
      "channel": 0,
      "note": 98,
      "start": 43.9115,
      "duration": 0.1556,
      "velocity": 114,
      "chip": "ym2612"
    },
    {
      "channel": 1,
      "note": 58,
      "start": 43.9117,
      "duration": 0.3112,
      "velocity": 107,
      "chip": "ym2612"
    },
    {
      "channel": 0,
      "note": 54,
      "start": 44.0672,
      "duration": 0.0309,
      "velocity": 114,
      "chip": "ym2612"
    },
    {
      "channel": 0,
      "note": 98,
      "start": 44.2228,
      "duration": 0.3113,
      "velocity": 114,
      "chip": "ym2612"
    },
    {
      "channel": 2,
      "note": 79,
      "start": 44.223,
      "duration": 0.6225,
      "velocity": 107,
      "chip": "ym2612"
    },
    {
      "channel": 3,
      "note": 72,
      "start": 44.2232,
      "duration": 0.6225,
      "velocity": 107,
      "chip": "ym2612"
    },
    {
      "channel": 4,
      "note": 72,
      "start": 44.3474,
      "duration": 0.6225,
      "velocity": 107,
      "chip": "ym2612"
    },
    {
      "channel": 5,
      "note": 79,
      "start": 44.3476,
      "duration": 0.6225,
      "velocity": 107,
      "chip": "ym2612"
    },
    {
      "channel": 0,
      "note": 98,
      "start": 44.5341,
      "duration": 0.0309,
      "velocity": 114,
      "chip": "ym2612"
    },
    {
      "channel": 0,
      "note": 98,
      "start": 44.6897,
      "duration": 0.0309,
      "velocity": 114,
      "chip": "ym2612"
    },
    {
      "channel": 0,
      "note": 98,
      "start": 44.8453,
      "duration": 0.0154,
      "velocity": 127,
      "chip": "ym2612"
    },
    {
      "channel": 2,
      "note": 79,
      "start": 44.8456,
      "duration": 0.6226,
      "velocity": 107,
      "chip": "ym2612"
    },
    {
      "channel": 3,
      "note": 72,
      "start": 44.8457,
      "duration": 0.6226,
      "velocity": 107,
      "chip": "ym2612"
    },
    {
      "channel": 0,
      "note": 76,
      "start": 44.8607,
      "duration": 0.14,
      "velocity": 127,
      "chip": "ym2612"
    },
    {
      "channel": 4,
      "note": 72,
      "start": 44.97,
      "duration": 0.6225,
      "velocity": 107,
      "chip": "ym2612"
    },
    {
      "channel": 5,
      "note": 79,
      "start": 44.9701,
      "duration": 0.6225,
      "velocity": 107,
      "chip": "ym2612"
    },
    {
      "channel": 0,
      "note": 68,
      "start": 45.1566,
      "duration": 0.0309,
      "velocity": 114,
      "chip": "ym2612"
    },
    {
      "channel": 0,
      "note": 98,
      "start": 45.3122,
      "duration": 0.0309,
      "velocity": 114,
      "chip": "ym2612"
    },
    {
      "channel": 0,
      "note": 98,
      "start": 45.4679,
      "duration": 0.1556,
      "velocity": 114,
      "chip": "ym2612"
    },
    {
      "channel": 1,
      "note": 60,
      "start": 45.468,
      "duration": 0.3113,
      "velocity": 107,
      "chip": "ym2612"
    },
    {
      "channel": 2,
      "note": 77,
      "start": 45.4681,
      "duration": 0.6227,
      "velocity": 107,
      "chip": "ym2612"
    },
    {
      "channel": 3,
      "note": 74,
      "start": 45.4683,
      "duration": 0.6227,
      "velocity": 107,
      "chip": "ym2612"
    },
    {
      "channel": 4,
      "note": 74,
      "start": 45.5925,
      "duration": 0.6225,
      "velocity": 107,
      "chip": "ym2612"
    },
    {
      "channel": 5,
      "note": 77,
      "start": 45.5926,
      "duration": 0.6225,
      "velocity": 107,
      "chip": "ym2612"
    },
    {
      "channel": 0,
      "note": 54,
      "start": 45.6235,
      "duration": 0.0309,
      "velocity": 114,
      "chip": "ym2612"
    },
    {
      "channel": 0,
      "note": 98,
      "start": 45.7791,
      "duration": 0.1556,
      "velocity": 114,
      "chip": "ym2612"
    },
    {
      "channel": 1,
      "note": 72,
      "start": 45.7793,
      "duration": 0.3114,
      "velocity": 107,
      "chip": "ym2612"
    },
    {
      "channel": 0,
      "note": 54,
      "start": 45.9348,
      "duration": 0.0309,
      "velocity": 114,
      "chip": "ym2612"
    },
    {
      "channel": 0,
      "note": 98,
      "start": 46.0905,
      "duration": 0.1555,
      "velocity": 114,
      "chip": "ym2612"
    },
    {
      "channel": 1,
      "note": 58,
      "start": 46.0907,
      "duration": 0.3111,
      "velocity": 107,
      "chip": "ym2612"
    },
    {
      "channel": 2,
      "note": 77,
      "start": 46.0908,
      "duration": 0.6223,
      "velocity": 107,
      "chip": "ym2612"
    },
    {
      "channel": 3,
      "note": 74,
      "start": 46.091,
      "duration": 0.6223,
      "velocity": 107,
      "chip": "ym2612"
    },
    {
      "channel": 4,
      "note": 74,
      "start": 46.215,
      "duration": 0.6225,
      "velocity": 107,
      "chip": "ym2612"
    },
    {
      "channel": 5,
      "note": 77,
      "start": 46.2152,
      "duration": 0.6225,
      "velocity": 107,
      "chip": "ym2612"
    },
    {
      "channel": 0,
      "note": 54,
      "start": 46.246,
      "duration": 0.0309,
      "velocity": 114,
      "chip": "ym2612"
    },
    {
      "channel": 0,
      "note": 98,
      "start": 46.4017,
      "duration": 0.1557,
      "velocity": 114,
      "chip": "ym2612"
    },
    {
      "channel": 1,
      "note": 60,
      "start": 46.4018,
      "duration": 0.3112,
      "velocity": 107,
      "chip": "ym2612"
    },
    {
      "channel": 0,
      "note": 54,
      "start": 46.5574,
      "duration": 0.0308,
      "velocity": 114,
      "chip": "ym2612"
    },
    {
      "channel": 0,
      "note": 98,
      "start": 46.7129,
      "duration": 0.0309,
      "velocity": 114,
      "chip": "ym2612"
    },
    {
      "channel": 2,
      "note": 79,
      "start": 46.7131,
      "duration": 0.6225,
      "velocity": 107,
      "chip": "ym2612"
    },
    {
      "channel": 3,
      "note": 72,
      "start": 46.7132,
      "duration": 0.6225,
      "velocity": 107,
      "chip": "ym2612"
    },
    {
      "channel": 4,
      "note": 72,
      "start": 46.8375,
      "duration": 0.6225,
      "velocity": 107,
      "chip": "ym2612"
    },
    {
      "channel": 5,
      "note": 79,
      "start": 46.8377,
      "duration": 0.6225,
      "velocity": 107,
      "chip": "ym2612"
    },
    {
      "channel": 0,
      "note": 98,
      "start": 46.8685,
      "duration": 0.0309,
      "velocity": 114,
      "chip": "ym2612"
    },
    {
      "channel": 0,
      "note": 98,
      "start": 47.0242,
      "duration": 0.0154,
      "velocity": 127,
      "chip": "ym2612"
    },
    {
      "channel": 0,
      "note": 76,
      "start": 47.0395,
      "duration": 0.14,
      "velocity": 127,
      "chip": "ym2612"
    },
    {
      "channel": 0,
      "note": 68,
      "start": 47.3354,
      "duration": 0.0309,
      "velocity": 114,
      "chip": "ym2612"
    },
    {
      "channel": 2,
      "note": 79,
      "start": 47.3356,
      "duration": 0.6226,
      "velocity": 107,
      "chip": "ym2612"
    },
    {
      "channel": 3,
      "note": 72,
      "start": 47.3358,
      "duration": 0.6226,
      "velocity": 107,
      "chip": "ym2612"
    },
    {
      "channel": 4,
      "note": 72,
      "start": 47.46,
      "duration": 0.6225,
      "velocity": 107,
      "chip": "ym2612"
    },
    {
      "channel": 5,
      "note": 79,
      "start": 47.4602,
      "duration": 0.6225,
      "velocity": 107,
      "chip": "ym2612"
    },
    {
      "channel": 0,
      "note": 98,
      "start": 47.4911,
      "duration": 0.0309,
      "velocity": 114,
      "chip": "ym2612"
    },
    {
      "channel": 0,
      "note": 98,
      "start": 47.6467,
      "duration": 0.1556,
      "velocity": 114,
      "chip": "ym2612"
    },
    {
      "channel": 0,
      "note": 54,
      "start": 47.8023,
      "duration": 0.0309,
      "velocity": 114,
      "chip": "ym2612"
    },
    {
      "channel": 0,
      "note": 98,
      "start": 47.958,
      "duration": 0.1556,
      "velocity": 114,
      "chip": "ym2612"
    },
    {
      "channel": 1,
      "note": 60,
      "start": 47.9581,
      "duration": 0.3112,
      "velocity": 107,
      "chip": "ym2612"
    },
    {
      "channel": 2,
      "note": 77,
      "start": 47.9583,
      "duration": 0.6224,
      "velocity": 107,
      "chip": "ym2612"
    },
    {
      "channel": 3,
      "note": 74,
      "start": 47.9584,
      "duration": 0.6224,
      "velocity": 107,
      "chip": "ym2612"
    },
    {
      "channel": 4,
      "note": 74,
      "start": 48.0826,
      "duration": 0.6225,
      "velocity": 107,
      "chip": "ym2612"
    },
    {
      "channel": 5,
      "note": 77,
      "start": 48.0827,
      "duration": 0.6225,
      "velocity": 107,
      "chip": "ym2612"
    },
    {
      "channel": 0,
      "note": 54,
      "start": 48.1136,
      "duration": 0.0309,
      "velocity": 114,
      "chip": "ym2612"
    },
    {
      "channel": 0,
      "note": 98,
      "start": 48.2692,
      "duration": 0.1556,
      "velocity": 114,
      "chip": "ym2612"
    },
    {
      "channel": 1,
      "note": 58,
      "start": 48.2694,
      "duration": 0.3112,
      "velocity": 107,
      "chip": "ym2612"
    },
    {
      "channel": 0,
      "note": 54,
      "start": 48.4249,
      "duration": 0.0309,
      "velocity": 114,
      "chip": "ym2612"
    },
    {
      "channel": 0,
      "note": 98,
      "start": 48.5805,
      "duration": 0.3113,
      "velocity": 114,
      "chip": "ym2612"
    },
    {
      "channel": 2,
      "note": 79,
      "start": 48.5807,
      "duration": 0.6225,
      "velocity": 107,
      "chip": "ym2612"
    },
    {
      "channel": 3,
      "note": 72,
      "start": 48.5808,
      "duration": 0.6225,
      "velocity": 107,
      "chip": "ym2612"
    },
    {
      "channel": 4,
      "note": 72,
      "start": 48.7051,
      "duration": 0.6225,
      "velocity": 107,
      "chip": "ym2612"
    },
    {
      "channel": 5,
      "note": 79,
      "start": 48.7052,
      "duration": 0.6225,
      "velocity": 107,
      "chip": "ym2612"
    },
    {
      "channel": 0,
      "note": 98,
      "start": 48.8917,
      "duration": 0.0309,
      "velocity": 114,
      "chip": "ym2612"
    },
    {
      "channel": 0,
      "note": 98,
      "start": 49.0474,
      "duration": 0.0309,
      "velocity": 114,
      "chip": "ym2612"
    },
    {
      "channel": 0,
      "note": 98,
      "start": 49.203,
      "duration": 0.0154,
      "velocity": 127,
      "chip": "ym2612"
    },
    {
      "channel": 2,
      "note": 79,
      "start": 49.2032,
      "duration": 0.6226,
      "velocity": 107,
      "chip": "ym2612"
    },
    {
      "channel": 3,
      "note": 72,
      "start": 49.2034,
      "duration": 0.6226,
      "velocity": 107,
      "chip": "ym2612"
    },
    {
      "channel": 0,
      "note": 76,
      "start": 49.2184,
      "duration": 0.14,
      "velocity": 127,
      "chip": "ym2612"
    },
    {
      "channel": 4,
      "note": 72,
      "start": 49.3276,
      "duration": 0.6225,
      "velocity": 107,
      "chip": "ym2612"
    },
    {
      "channel": 5,
      "note": 79,
      "start": 49.3278,
      "duration": 0.6225,
      "velocity": 107,
      "chip": "ym2612"
    },
    {
      "channel": 0,
      "note": 68,
      "start": 49.5143,
      "duration": 0.0309,
      "velocity": 114,
      "chip": "ym2612"
    },
    {
      "channel": 0,
      "note": 98,
      "start": 49.6699,
      "duration": 0.0309,
      "velocity": 114,
      "chip": "ym2612"
    },
    {
      "channel": 0,
      "note": 98,
      "start": 49.8255,
      "duration": 0.1556,
      "velocity": 114,
      "chip": "ym2612"
    },
    {
      "channel": 1,
      "note": 60,
      "start": 49.8256,
      "duration": 0.3113,
      "velocity": 107,
      "chip": "ym2612"
    },
    {
      "channel": 2,
      "note": 77,
      "start": 49.8258,
      "duration": 0.6225,
      "velocity": 107,
      "chip": "ym2612"
    },
    {
      "channel": 3,
      "note": 74,
      "start": 49.8259,
      "duration": 0.6225,
      "velocity": 107,
      "chip": "ym2612"
    },
    {
      "channel": 4,
      "note": 74,
      "start": 49.9502,
      "duration": 0.6225,
      "velocity": 107,
      "chip": "ym2612"
    },
    {
      "channel": 5,
      "note": 77,
      "start": 49.9503,
      "duration": 0.6225,
      "velocity": 107,
      "chip": "ym2612"
    },
    {
      "channel": 0,
      "note": 54,
      "start": 49.9812,
      "duration": 0.0309,
      "velocity": 114,
      "chip": "ym2612"
    },
    {
      "channel": 0,
      "note": 98,
      "start": 50.1368,
      "duration": 0.1556,
      "velocity": 114,
      "chip": "ym2612"
    },
    {
      "channel": 1,
      "note": 72,
      "start": 50.1369,
      "duration": 0.3113,
      "velocity": 107,
      "chip": "ym2612"
    },
    {
      "channel": 0,
      "note": 54,
      "start": 50.2924,
      "duration": 0.0309,
      "velocity": 114,
      "chip": "ym2612"
    },
    {
      "channel": 0,
      "note": 98,
      "start": 50.448,
      "duration": 0.1556,
      "velocity": 114,
      "chip": "ym2612"
    },
    {
      "channel": 1,
      "note": 58,
      "start": 50.4482,
      "duration": 0.3112,
      "velocity": 107,
      "chip": "ym2612"
    },
    {
      "channel": 2,
      "note": 77,
      "start": 50.4483,
      "duration": 0.6224,
      "velocity": 107,
      "chip": "ym2612"
    },
    {
      "channel": 3,
      "note": 74,
      "start": 50.4485,
      "duration": 0.6224,
      "velocity": 107,
      "chip": "ym2612"
    },
    {
      "channel": 4,
      "note": 74,
      "start": 50.5727,
      "duration": 0.6225,
      "velocity": 107,
      "chip": "ym2612"
    },
    {
      "channel": 5,
      "note": 77,
      "start": 50.5728,
      "duration": 0.6225,
      "velocity": 107,
      "chip": "ym2612"
    },
    {
      "channel": 0,
      "note": 54,
      "start": 50.6037,
      "duration": 0.0309,
      "velocity": 114,
      "chip": "ym2612"
    },
    {
      "channel": 0,
      "note": 98,
      "start": 50.7593,
      "duration": 0.1556,
      "velocity": 114,
      "chip": "ym2612"
    },
    {
      "channel": 1,
      "note": 60,
      "start": 50.7595,
      "duration": 0.3112,
      "velocity": 107,
      "chip": "ym2612"
    },
    {
      "channel": 0,
      "note": 54,
      "start": 50.9149,
      "duration": 0.0309,
      "velocity": 114,
      "chip": "ym2612"
    },
    {
      "channel": 0,
      "note": 98,
      "start": 51.0706,
      "duration": 0.0309,
      "velocity": 114,
      "chip": "ym2612"
    },
    {
      "channel": 2,
      "note": 79,
      "start": 51.0708,
      "duration": 0.6225,
      "velocity": 107,
      "chip": "ym2612"
    },
    {
      "channel": 3,
      "note": 72,
      "start": 51.0709,
      "duration": 0.6225,
      "velocity": 107,
      "chip": "ym2612"
    },
    {
      "channel": 4,
      "note": 72,
      "start": 51.1952,
      "duration": 0.6225,
      "velocity": 107,
      "chip": "ym2612"
    },
    {
      "channel": 5,
      "note": 79,
      "start": 51.1953,
      "duration": 0.6225,
      "velocity": 107,
      "chip": "ym2612"
    },
    {
      "channel": 0,
      "note": 98,
      "start": 51.2262,
      "duration": 0.031,
      "velocity": 114,
      "chip": "ym2612"
    },
    {
      "channel": 0,
      "note": 98,
      "start": 51.3818,
      "duration": 0.0154,
      "velocity": 127,
      "chip": "ym2612"
    },
    {
      "channel": 0,
      "note": 76,
      "start": 51.3972,
      "duration": 0.14,
      "velocity": 127,
      "chip": "ym2612"
    },
    {
      "channel": 0,
      "note": 68,
      "start": 51.6931,
      "duration": 0.0309,
      "velocity": 114,
      "chip": "ym2612"
    },
    {
      "channel": 2,
      "note": 79,
      "start": 51.6933,
      "duration": 0.6227,
      "velocity": 107,
      "chip": "ym2612"
    },
    {
      "channel": 3,
      "note": 72,
      "start": 51.6934,
      "duration": 0.6228,
      "velocity": 107,
      "chip": "ym2612"
    },
    {
      "channel": 4,
      "note": 72,
      "start": 51.8177,
      "duration": 0.6228,
      "velocity": 107,
      "chip": "ym2612"
    },
    {
      "channel": 5,
      "note": 79,
      "start": 51.8178,
      "duration": 0.6228,
      "velocity": 107,
      "chip": "ym2612"
    },
    {
      "channel": 0,
      "note": 98,
      "start": 51.8487,
      "duration": 0.0309,
      "velocity": 114,
      "chip": "ym2612"
    },
    {
      "channel": 0,
      "note": 98,
      "start": 52.0044,
      "duration": 0.1556,
      "velocity": 114,
      "chip": "ym2612"
    },
    {
      "channel": 0,
      "note": 54,
      "start": 52.16,
      "duration": 0.0309,
      "velocity": 114,
      "chip": "ym2612"
    },
    {
      "channel": 0,
      "note": 98,
      "start": 52.3156,
      "duration": 0.1556,
      "velocity": 114,
      "chip": "ym2612"
    },
    {
      "channel": 1,
      "note": 60,
      "start": 52.3158,
      "duration": 0.3112,
      "velocity": 107,
      "chip": "ym2612"
    },
    {
      "channel": 2,
      "note": 77,
      "start": 52.316,
      "duration": 0.6223,
      "velocity": 107,
      "chip": "ym2612"
    },
    {
      "channel": 3,
      "note": 74,
      "start": 52.3162,
      "duration": 0.6223,
      "velocity": 107,
      "chip": "ym2612"
    },
    {
      "channel": 4,
      "note": 74,
      "start": 52.4405,
      "duration": 0.6223,
      "velocity": 107,
      "chip": "ym2612"
    },
    {
      "channel": 5,
      "note": 77,
      "start": 52.4407,
      "duration": 0.6222,
      "velocity": 107,
      "chip": "ym2612"
    },
    {
      "channel": 0,
      "note": 54,
      "start": 52.4712,
      "duration": 0.0309,
      "velocity": 114,
      "chip": "ym2612"
    },
    {
      "channel": 0,
      "note": 98,
      "start": 52.6269,
      "duration": 0.1556,
      "velocity": 114,
      "chip": "ym2612"
    },
    {
      "channel": 1,
      "note": 55,
      "start": 52.627,
      "duration": 0.3112,
      "velocity": 107,
      "chip": "ym2612"
    },
    {
      "channel": 0,
      "note": 54,
      "start": 52.7825,
      "duration": 0.0309,
      "velocity": 114,
      "chip": "ym2612"
    },
    {
      "channel": 0,
      "note": 98,
      "start": 52.9381,
      "duration": 0.3113,
      "velocity": 114,
      "chip": "ym2612"
    },
    {
      "channel": 2,
      "note": 76,
      "start": 52.9384,
      "duration": 0.6225,
      "velocity": 107,
      "chip": "ym2612"
    },
    {
      "channel": 3,
      "note": 69,
      "start": 52.9385,
      "duration": 0.6225,
      "velocity": 107,
      "chip": "ym2612"
    },
    {
      "channel": 4,
      "note": 69,
      "start": 53.0628,
      "duration": 0.6225,
      "velocity": 107,
      "chip": "ym2612"
    },
    {
      "channel": 5,
      "note": 76,
      "start": 53.0629,
      "duration": 0.6225,
      "velocity": 107,
      "chip": "ym2612"
    },
    {
      "channel": 0,
      "note": 98,
      "start": 53.2494,
      "duration": 0.0309,
      "velocity": 114,
      "chip": "ym2612"
    },
    {
      "channel": 0,
      "note": 98,
      "start": 53.405,
      "duration": 0.0309,
      "velocity": 114,
      "chip": "ym2612"
    },
    {
      "channel": 0,
      "note": 98,
      "start": 53.5607,
      "duration": 0.0154,
      "velocity": 127,
      "chip": "ym2612"
    },
    {
      "channel": 2,
      "note": 76,
      "start": 53.5609,
      "duration": 0.6226,
      "velocity": 107,
      "chip": "ym2612"
    },
    {
      "channel": 3,
      "note": 69,
      "start": 53.561,
      "duration": 0.6226,
      "velocity": 107,
      "chip": "ym2612"
    },
    {
      "channel": 0,
      "note": 76,
      "start": 53.576,
      "duration": 0.14,
      "velocity": 127,
      "chip": "ym2612"
    },
    {
      "channel": 4,
      "note": 69,
      "start": 53.6853,
      "duration": 0.6225,
      "velocity": 107,
      "chip": "ym2612"
    },
    {
      "channel": 5,
      "note": 76,
      "start": 53.6854,
      "duration": 0.6225,
      "velocity": 107,
      "chip": "ym2612"
    },
    {
      "channel": 0,
      "note": 68,
      "start": 53.8719,
      "duration": 0.0309,
      "velocity": 114,
      "chip": "ym2612"
    },
    {
      "channel": 0,
      "note": 98,
      "start": 54.0276,
      "duration": 0.0309,
      "velocity": 114,
      "chip": "ym2612"
    },
    {
      "channel": 0,
      "note": 98,
      "start": 54.1832,
      "duration": 0.1556,
      "velocity": 114,
      "chip": "ym2612"
    },
    {
      "channel": 1,
      "note": 57,
      "start": 54.1833,
      "duration": 0.3113,
      "velocity": 107,
      "chip": "ym2612"
    },
    {
      "channel": 2,
      "note": 74,
      "start": 54.1834,
      "duration": 0.6225,
      "velocity": 107,
      "chip": "ym2612"
    },
    {
      "channel": 3,
      "note": 71,
      "start": 54.1836,
      "duration": 0.6225,
      "velocity": 107,
      "chip": "ym2612"
    },
    {
      "channel": 4,
      "note": 71,
      "start": 54.3078,
      "duration": 0.6225,
      "velocity": 107,
      "chip": "ym2612"
    },
    {
      "channel": 5,
      "note": 74,
      "start": 54.308,
      "duration": 0.6225,
      "velocity": 107,
      "chip": "ym2612"
    },
    {
      "channel": 0,
      "note": 54,
      "start": 54.3388,
      "duration": 0.0309,
      "velocity": 114,
      "chip": "ym2612"
    },
    {
      "channel": 0,
      "note": 98,
      "start": 54.4944,
      "duration": 0.1556,
      "velocity": 114,
      "chip": "ym2612"
    },
    {
      "channel": 1,
      "note": 69,
      "start": 54.4946,
      "duration": 0.3112,
      "velocity": 107,
      "chip": "ym2612"
    },
    {
      "channel": 0,
      "note": 54,
      "start": 54.6501,
      "duration": 0.0309,
      "velocity": 114,
      "chip": "ym2612"
    },
    {
      "channel": 0,
      "note": 98,
      "start": 54.8057,
      "duration": 0.1556,
      "velocity": 114,
      "chip": "ym2612"
    },
    {
      "channel": 1,
      "note": 55,
      "start": 54.8059,
      "duration": 0.3112,
      "velocity": 107,
      "chip": "ym2612"
    },
    {
      "channel": 2,
      "note": 74,
      "start": 54.806,
      "duration": 0.6224,
      "velocity": 107,
      "chip": "ym2612"
    },
    {
      "channel": 3,
      "note": 71,
      "start": 54.8061,
      "duration": 0.6224,
      "velocity": 107,
      "chip": "ym2612"
    },
    {
      "channel": 4,
      "note": 71,
      "start": 54.9304,
      "duration": 0.6225,
      "velocity": 107,
      "chip": "ym2612"
    },
    {
      "channel": 5,
      "note": 74,
      "start": 54.9305,
      "duration": 0.6225,
      "velocity": 107,
      "chip": "ym2612"
    },
    {
      "channel": 0,
      "note": 54,
      "start": 54.9613,
      "duration": 0.0309,
      "velocity": 114,
      "chip": "ym2612"
    },
    {
      "channel": 0,
      "note": 98,
      "start": 55.117,
      "duration": 0.1556,
      "velocity": 114,
      "chip": "ym2612"
    },
    {
      "channel": 1,
      "note": 57,
      "start": 55.1171,
      "duration": 0.3112,
      "velocity": 107,
      "chip": "ym2612"
    },
    {
      "channel": 0,
      "note": 54,
      "start": 55.2726,
      "duration": 0.0309,
      "velocity": 114,
      "chip": "ym2612"
    },
    {
      "channel": 0,
      "note": 98,
      "start": 55.4283,
      "duration": 0.0309,
      "velocity": 114,
      "chip": "ym2612"
    },
    {
      "channel": 2,
      "note": 76,
      "start": 55.4285,
      "duration": 0.6225,
      "velocity": 107,
      "chip": "ym2612"
    },
    {
      "channel": 3,
      "note": 69,
      "start": 55.4286,
      "duration": 0.6225,
      "velocity": 107,
      "chip": "ym2612"
    },
    {
      "channel": 4,
      "note": 69,
      "start": 55.5529,
      "duration": 0.6225,
      "velocity": 107,
      "chip": "ym2612"
    },
    {
      "channel": 5,
      "note": 76,
      "start": 55.553,
      "duration": 0.6225,
      "velocity": 107,
      "chip": "ym2612"
    },
    {
      "channel": 0,
      "note": 98,
      "start": 55.5839,
      "duration": 0.0309,
      "velocity": 114,
      "chip": "ym2612"
    },
    {
      "channel": 0,
      "note": 98,
      "start": 55.7395,
      "duration": 0.0154,
      "velocity": 127,
      "chip": "ym2612"
    },
    {
      "channel": 0,
      "note": 76,
      "start": 55.7549,
      "duration": 0.1401,
      "velocity": 127,
      "chip": "ym2612"
    },
    {
      "channel": 0,
      "note": 68,
      "start": 56.0507,
      "duration": 0.0309,
      "velocity": 114,
      "chip": "ym2612"
    },
    {
      "channel": 2,
      "note": 76,
      "start": 56.051,
      "duration": 0.6228,
      "velocity": 107,
      "chip": "ym2612"
    },
    {
      "channel": 3,
      "note": 69,
      "start": 56.0511,
      "duration": 0.6228,
      "velocity": 107,
      "chip": "ym2612"
    },
    {
      "channel": 4,
      "note": 69,
      "start": 56.1754,
      "duration": 0.6225,
      "velocity": 107,
      "chip": "ym2612"
    },
    {
      "channel": 5,
      "note": 76,
      "start": 56.1755,
      "duration": 0.6225,
      "velocity": 107,
      "chip": "ym2612"
    },
    {
      "channel": 0,
      "note": 98,
      "start": 56.2064,
      "duration": 0.0309,
      "velocity": 114,
      "chip": "ym2612"
    },
    {
      "channel": 0,
      "note": 98,
      "start": 56.362,
      "duration": 0.1556,
      "velocity": 114,
      "chip": "ym2612"
    },
    {
      "channel": 0,
      "note": 54,
      "start": 56.5177,
      "duration": 0.0309,
      "velocity": 114,
      "chip": "ym2612"
    },
    {
      "channel": 0,
      "note": 98,
      "start": 56.6733,
      "duration": 0.1556,
      "velocity": 114,
      "chip": "ym2612"
    },
    {
      "channel": 1,
      "note": 57,
      "start": 56.6734,
      "duration": 0.3112,
      "velocity": 107,
      "chip": "ym2612"
    },
    {
      "channel": 2,
      "note": 74,
      "start": 56.6738,
      "duration": 0.6222,
      "velocity": 107,
      "chip": "ym2612"
    },
    {
      "channel": 3,
      "note": 71,
      "start": 56.6739,
      "duration": 0.6223,
      "velocity": 107,
      "chip": "ym2612"
    },
    {
      "channel": 4,
      "note": 71,
      "start": 56.7979,
      "duration": 0.6225,
      "velocity": 107,
      "chip": "ym2612"
    },
    {
      "channel": 5,
      "note": 74,
      "start": 56.7981,
      "duration": 0.6225,
      "velocity": 107,
      "chip": "ym2612"
    },
    {
      "channel": 0,
      "note": 54,
      "start": 56.8289,
      "duration": 0.0309,
      "velocity": 114,
      "chip": "ym2612"
    },
    {
      "channel": 0,
      "note": 98,
      "start": 56.9846,
      "duration": 0.1556,
      "velocity": 114,
      "chip": "ym2612"
    },
    {
      "channel": 1,
      "note": 55,
      "start": 56.9847,
      "duration": 0.3112,
      "velocity": 107,
      "chip": "ym2612"
    },
    {
      "channel": 0,
      "note": 54,
      "start": 57.1402,
      "duration": 0.0309,
      "velocity": 114,
      "chip": "ym2612"
    },
    {
      "channel": 0,
      "note": 98,
      "start": 57.2958,
      "duration": 0.3114,
      "velocity": 114,
      "chip": "ym2612"
    },
    {
      "channel": 2,
      "note": 76,
      "start": 57.296,
      "duration": 0.6225,
      "velocity": 107,
      "chip": "ym2612"
    },
    {
      "channel": 3,
      "note": 69,
      "start": 57.2962,
      "duration": 0.6225,
      "velocity": 107,
      "chip": "ym2612"
    },
    {
      "channel": 4,
      "note": 69,
      "start": 57.4204,
      "duration": 0.6225,
      "velocity": 107,
      "chip": "ym2612"
    },
    {
      "channel": 5,
      "note": 76,
      "start": 57.4206,
      "duration": 0.6225,
      "velocity": 107,
      "chip": "ym2612"
    },
    {
      "channel": 0,
      "note": 98,
      "start": 57.6073,
      "duration": 0.0307,
      "velocity": 114,
      "chip": "ym2612"
    },
    {
      "channel": 0,
      "note": 98,
      "start": 57.7627,
      "duration": 0.0309,
      "velocity": 114,
      "chip": "ym2612"
    },
    {
      "channel": 0,
      "note": 98,
      "start": 57.9183,
      "duration": 0.0154,
      "velocity": 127,
      "chip": "ym2612"
    },
    {
      "channel": 2,
      "note": 76,
      "start": 57.9185,
      "duration": 0.6226,
      "velocity": 107,
      "chip": "ym2612"
    },
    {
      "channel": 3,
      "note": 69,
      "start": 57.9187,
      "duration": 0.6226,
      "velocity": 107,
      "chip": "ym2612"
    },
    {
      "channel": 0,
      "note": 76,
      "start": 57.9337,
      "duration": 0.1402,
      "velocity": 127,
      "chip": "ym2612"
    },
    {
      "channel": 4,
      "note": 69,
      "start": 58.043,
      "duration": 0.6225,
      "velocity": 107,
      "chip": "ym2612"
    },
    {
      "channel": 5,
      "note": 76,
      "start": 58.0431,
      "duration": 0.6225,
      "velocity": 107,
      "chip": "ym2612"
    },
    {
      "channel": 0,
      "note": 68,
      "start": 58.2296,
      "duration": 0.0309,
      "velocity": 114,
      "chip": "ym2612"
    },
    {
      "channel": 0,
      "note": 98,
      "start": 58.3852,
      "duration": 0.0309,
      "velocity": 114,
      "chip": "ym2612"
    },
    {
      "channel": 0,
      "note": 98,
      "start": 58.5409,
      "duration": 0.1556,
      "velocity": 114,
      "chip": "ym2612"
    },
    {
      "channel": 1,
      "note": 57,
      "start": 58.541,
      "duration": 0.3112,
      "velocity": 107,
      "chip": "ym2612"
    },
    {
      "channel": 2,
      "note": 74,
      "start": 58.5411,
      "duration": 0.6225,
      "velocity": 107,
      "chip": "ym2612"
    },
    {
      "channel": 3,
      "note": 71,
      "start": 58.5412,
      "duration": 0.6225,
      "velocity": 107,
      "chip": "ym2612"
    },
    {
      "channel": 4,
      "note": 71,
      "start": 58.6655,
      "duration": 0.6225,
      "velocity": 107,
      "chip": "ym2612"
    },
    {
      "channel": 5,
      "note": 74,
      "start": 58.6656,
      "duration": 0.6225,
      "velocity": 107,
      "chip": "ym2612"
    },
    {
      "channel": 0,
      "note": 54,
      "start": 58.6965,
      "duration": 0.0309,
      "velocity": 114,
      "chip": "ym2612"
    },
    {
      "channel": 0,
      "note": 98,
      "start": 58.8521,
      "duration": 0.1556,
      "velocity": 114,
      "chip": "ym2612"
    },
    {
      "channel": 1,
      "note": 69,
      "start": 58.8523,
      "duration": 0.3112,
      "velocity": 107,
      "chip": "ym2612"
    },
    {
      "channel": 0,
      "note": 54,
      "start": 59.0078,
      "duration": 0.0309,
      "velocity": 114,
      "chip": "ym2612"
    },
    {
      "channel": 0,
      "note": 98,
      "start": 59.1634,
      "duration": 0.1556,
      "velocity": 114,
      "chip": "ym2612"
    },
    {
      "channel": 1,
      "note": 55,
      "start": 59.1635,
      "duration": 0.3113,
      "velocity": 107,
      "chip": "ym2612"
    },
    {
      "channel": 2,
      "note": 74,
      "start": 59.1637,
      "duration": 0.6225,
      "velocity": 107,
      "chip": "ym2612"
    },
    {
      "channel": 3,
      "note": 71,
      "start": 59.1638,
      "duration": 0.6224,
      "velocity": 107,
      "chip": "ym2612"
    },
    {
      "channel": 4,
      "note": 71,
      "start": 59.288,
      "duration": 0.6225,
      "velocity": 107,
      "chip": "ym2612"
    },
    {
      "channel": 5,
      "note": 74,
      "start": 59.2882,
      "duration": 0.6225,
      "velocity": 107,
      "chip": "ym2612"
    },
    {
      "channel": 0,
      "note": 54,
      "start": 59.319,
      "duration": 0.0309,
      "velocity": 114,
      "chip": "ym2612"
    },
    {
      "channel": 0,
      "note": 98,
      "start": 59.4746,
      "duration": 0.1556,
      "velocity": 114,
      "chip": "ym2612"
    },
    {
      "channel": 1,
      "note": 57,
      "start": 59.4748,
      "duration": 0.3112,
      "velocity": 107,
      "chip": "ym2612"
    },
    {
      "channel": 0,
      "note": 54,
      "start": 59.6303,
      "duration": 0.0309,
      "velocity": 114,
      "chip": "ym2612"
    },
    {
      "channel": 0,
      "note": 98,
      "start": 59.7859,
      "duration": 0.0309,
      "velocity": 114,
      "chip": "ym2612"
    },
    {
      "channel": 2,
      "note": 76,
      "start": 59.7861,
      "duration": 0.6225,
      "velocity": 107,
      "chip": "ym2612"
    },
    {
      "channel": 3,
      "note": 69,
      "start": 59.7863,
      "duration": 0.6225,
      "velocity": 107,
      "chip": "ym2612"
    },
    {
      "channel": 4,
      "note": 69,
      "start": 59.9105,
      "duration": 0.6225,
      "velocity": 107,
      "chip": "ym2612"
    },
    {
      "channel": 5,
      "note": 76,
      "start": 59.9107,
      "duration": 0.6225,
      "velocity": 107,
      "chip": "ym2612"
    },
    {
      "channel": 0,
      "note": 98,
      "start": 59.9415,
      "duration": 0.0309,
      "velocity": 114,
      "chip": "ym2612"
    },
    {
      "channel": 0,
      "note": 98,
      "start": 60.0972,
      "duration": 0.0154,
      "velocity": 127,
      "chip": "ym2612"
    },
    {
      "channel": 0,
      "note": 76,
      "start": 60.1125,
      "duration": 0.14,
      "velocity": 127,
      "chip": "ym2612"
    },
    {
      "channel": 0,
      "note": 68,
      "start": 60.4084,
      "duration": 0.0309,
      "velocity": 114,
      "chip": "ym2612"
    },
    {
      "channel": 2,
      "note": 76,
      "start": 60.4086,
      "duration": 0.6228,
      "velocity": 107,
      "chip": "ym2612"
    },
    {
      "channel": 3,
      "note": 69,
      "start": 60.4088,
      "duration": 0.6228,
      "velocity": 107,
      "chip": "ym2612"
    },
    {
      "channel": 4,
      "note": 69,
      "start": 60.533,
      "duration": 0.6226,
      "velocity": 107,
      "chip": "ym2612"
    },
    {
      "channel": 5,
      "note": 76,
      "start": 60.5332,
      "duration": 0.6227,
      "velocity": 107,
      "chip": "ym2612"
    },
    {
      "channel": 0,
      "note": 98,
      "start": 60.5641,
      "duration": 0.0309,
      "velocity": 114,
      "chip": "ym2612"
    },
    {
      "channel": 0,
      "note": 98,
      "start": 60.7197,
      "duration": 0.1556,
      "velocity": 114,
      "chip": "ym2612"
    },
    {
      "channel": 0,
      "note": 54,
      "start": 60.8753,
      "duration": 0.0309,
      "velocity": 114,
      "chip": "ym2612"
    },
    {
      "channel": 0,
      "note": 98,
      "start": 61.031,
      "duration": 0.1556,
      "velocity": 114,
      "chip": "ym2612"
    },
    {
      "channel": 1,
      "note": 57,
      "start": 61.0312,
      "duration": 0.3111,
      "velocity": 107,
      "chip": "ym2612"
    },
    {
      "channel": 2,
      "note": 74,
      "start": 61.0314,
      "duration": 0.6223,
      "velocity": 107,
      "chip": "ym2612"
    },
    {
      "channel": 3,
      "note": 71,
      "start": 61.0316,
      "duration": 0.6222,
      "velocity": 107,
      "chip": "ym2612"
    },
    {
      "channel": 4,
      "note": 71,
      "start": 61.1557,
      "duration": 0.6224,
      "velocity": 107,
      "chip": "ym2612"
    },
    {
      "channel": 5,
      "note": 74,
      "start": 61.1559,
      "duration": 0.6224,
      "velocity": 107,
      "chip": "ym2612"
    },
    {
      "channel": 0,
      "note": 54,
      "start": 61.1866,
      "duration": 0.0309,
      "velocity": 114,
      "chip": "ym2612"
    },
    {
      "channel": 0,
      "note": 98,
      "start": 61.3422,
      "duration": 0.1556,
      "velocity": 114,
      "chip": "ym2612"
    },
    {
      "channel": 1,
      "note": 51,
      "start": 61.3424,
      "duration": 0.3112,
      "velocity": 107,
      "chip": "ym2612"
    },
    {
      "channel": 0,
      "note": 54,
      "start": 61.4978,
      "duration": 0.0309,
      "velocity": 114,
      "chip": "ym2612"
    },
    {
      "channel": 0,
      "note": 98,
      "start": 61.6535,
      "duration": 0.3112,
      "velocity": 114,
      "chip": "ym2612"
    },
    {
      "channel": 2,
      "note": 72,
      "start": 61.6537,
      "duration": 0.6225,
      "velocity": 107,
      "chip": "ym2612"
    },
    {
      "channel": 3,
      "note": 65,
      "start": 61.6538,
      "duration": 0.6225,
      "velocity": 107,
      "chip": "ym2612"
    },
    {
      "channel": 4,
      "note": 65,
      "start": 61.7781,
      "duration": 0.6225,
      "velocity": 107,
      "chip": "ym2612"
    },
    {
      "channel": 5,
      "note": 72,
      "start": 61.7782,
      "duration": 0.6225,
      "velocity": 107,
      "chip": "ym2612"
    },
    {
      "channel": 0,
      "note": 98,
      "start": 61.9648,
      "duration": 0.0309,
      "velocity": 114,
      "chip": "ym2612"
    },
    {
      "channel": 0,
      "note": 98,
      "start": 62.1204,
      "duration": 0.0309,
      "velocity": 114,
      "chip": "ym2612"
    },
    {
      "channel": 0,
      "note": 98,
      "start": 62.276,
      "duration": 0.0154,
      "velocity": 127,
      "chip": "ym2612"
    },
    {
      "channel": 2,
      "note": 72,
      "start": 62.2762,
      "duration": 0.6226,
      "velocity": 107,
      "chip": "ym2612"
    },
    {
      "channel": 3,
      "note": 65,
      "start": 62.2763,
      "duration": 0.6226,
      "velocity": 107,
      "chip": "ym2612"
    },
    {
      "channel": 0,
      "note": 76,
      "start": 62.2914,
      "duration": 0.14,
      "velocity": 127,
      "chip": "ym2612"
    },
    {
      "channel": 4,
      "note": 65,
      "start": 62.4007,
      "duration": 0.6225,
      "velocity": 107,
      "chip": "ym2612"
    },
    {
      "channel": 5,
      "note": 72,
      "start": 62.4008,
      "duration": 0.6225,
      "velocity": 107,
      "chip": "ym2612"
    },
    {
      "channel": 0,
      "note": 68,
      "start": 62.5873,
      "duration": 0.0309,
      "velocity": 114,
      "chip": "ym2612"
    },
    {
      "channel": 0,
      "note": 98,
      "start": 62.7429,
      "duration": 0.031,
      "velocity": 114,
      "chip": "ym2612"
    },
    {
      "channel": 0,
      "note": 98,
      "start": 62.8985,
      "duration": 0.1556,
      "velocity": 114,
      "chip": "ym2612"
    },
    {
      "channel": 1,
      "note": 53,
      "start": 62.8987,
      "duration": 0.3112,
      "velocity": 107,
      "chip": "ym2612"
    },
    {
      "channel": 2,
      "note": 70,
      "start": 62.8988,
      "duration": 0.6225,
      "velocity": 107,
      "chip": "ym2612"
    },
    {
      "channel": 3,
      "note": 67,
      "start": 62.8989,
      "duration": 0.6225,
      "velocity": 107,
      "chip": "ym2612"
    },
    {
      "channel": 4,
      "note": 67,
      "start": 63.0232,
      "duration": 0.6225,
      "velocity": 107,
      "chip": "ym2612"
    },
    {
      "channel": 5,
      "note": 70,
      "start": 63.0233,
      "duration": 0.6225,
      "velocity": 107,
      "chip": "ym2612"
    },
    {
      "channel": 0,
      "note": 54,
      "start": 63.0541,
      "duration": 0.0309,
      "velocity": 114,
      "chip": "ym2612"
    },
    {
      "channel": 0,
      "note": 98,
      "start": 63.2098,
      "duration": 0.1556,
      "velocity": 114,
      "chip": "ym2612"
    },
    {
      "channel": 1,
      "note": 65,
      "start": 63.2099,
      "duration": 0.3112,
      "velocity": 107,
      "chip": "ym2612"
    },
    {
      "channel": 0,
      "note": 54,
      "start": 63.3654,
      "duration": 0.0309,
      "velocity": 114,
      "chip": "ym2612"
    },
    {
      "channel": 0,
      "note": 98,
      "start": 63.521,
      "duration": 0.1556,
      "velocity": 114,
      "chip": "ym2612"
    },
    {
      "channel": 1,
      "note": 51,
      "start": 63.5212,
      "duration": 0.3113,
      "velocity": 107,
      "chip": "ym2612"
    },
    {
      "channel": 2,
      "note": 70,
      "start": 63.5213,
      "duration": 0.6225,
      "velocity": 107,
      "chip": "ym2612"
    },
    {
      "channel": 3,
      "note": 67,
      "start": 63.5215,
      "duration": 0.6224,
      "velocity": 107,
      "chip": "ym2612"
    },
    {
      "channel": 4,
      "note": 67,
      "start": 63.6457,
      "duration": 0.6225,
      "velocity": 107,
      "chip": "ym2612"
    },
    {
      "channel": 5,
      "note": 70,
      "start": 63.6458,
      "duration": 0.6225,
      "velocity": 107,
      "chip": "ym2612"
    },
    {
      "channel": 0,
      "note": 54,
      "start": 63.6767,
      "duration": 0.0309,
      "velocity": 114,
      "chip": "ym2612"
    },
    {
      "channel": 0,
      "note": 98,
      "start": 63.8323,
      "duration": 0.1556,
      "velocity": 114,
      "chip": "ym2612"
    },
    {
      "channel": 1,
      "note": 53,
      "start": 63.8324,
      "duration": 0.3112,
      "velocity": 107,
      "chip": "ym2612"
    },
    {
      "channel": 0,
      "note": 54,
      "start": 63.9879,
      "duration": 0.0309,
      "velocity": 114,
      "chip": "ym2612"
    },
    {
      "channel": 0,
      "note": 98,
      "start": 64.1436,
      "duration": 0.0309,
      "velocity": 114,
      "chip": "ym2612"
    },
    {
      "channel": 2,
      "note": 72,
      "start": 64.1438,
      "duration": 0.6225,
      "velocity": 107,
      "chip": "ym2612"
    },
    {
      "channel": 3,
      "note": 65,
      "start": 64.1439,
      "duration": 0.6225,
      "velocity": 107,
      "chip": "ym2612"
    },
    {
      "channel": 4,
      "note": 65,
      "start": 64.2682,
      "duration": 0.6227,
      "velocity": 107,
      "chip": "ym2612"
    },
    {
      "channel": 5,
      "note": 72,
      "start": 64.2683,
      "duration": 0.6227,
      "velocity": 107,
      "chip": "ym2612"
    },
    {
      "channel": 0,
      "note": 98,
      "start": 64.2992,
      "duration": 0.0309,
      "velocity": 114,
      "chip": "ym2612"
    },
    {
      "channel": 0,
      "note": 98,
      "start": 64.4548,
      "duration": 0.0154,
      "velocity": 127,
      "chip": "ym2612"
    },
    {
      "channel": 0,
      "note": 76,
      "start": 64.4702,
      "duration": 0.14,
      "velocity": 127,
      "chip": "ym2612"
    },
    {
      "channel": 0,
      "note": 68,
      "start": 64.7661,
      "duration": 0.0309,
      "velocity": 114,
      "chip": "ym2612"
    },
    {
      "channel": 2,
      "note": 72,
      "start": 64.7663,
      "duration": 0.6226,
      "velocity": 107,
      "chip": "ym2612"
    },
    {
      "channel": 3,
      "note": 65,
      "start": 64.7664,
      "duration": 0.6226,
      "velocity": 107,
      "chip": "ym2612"
    },
    {
      "channel": 4,
      "note": 65,
      "start": 64.8908,
      "duration": 0.6224,
      "velocity": 107,
      "chip": "ym2612"
    },
    {
      "channel": 5,
      "note": 72,
      "start": 64.891,
      "duration": 0.6224,
      "velocity": 107,
      "chip": "ym2612"
    },
    {
      "channel": 0,
      "note": 98,
      "start": 64.9217,
      "duration": 0.0309,
      "velocity": 114,
      "chip": "ym2612"
    },
    {
      "channel": 0,
      "note": 98,
      "start": 65.0774,
      "duration": 0.1556,
      "velocity": 114,
      "chip": "ym2612"
    },
    {
      "channel": 0,
      "note": 54,
      "start": 65.233,
      "duration": 0.0309,
      "velocity": 114,
      "chip": "ym2612"
    },
    {
      "channel": 0,
      "note": 98,
      "start": 65.3886,
      "duration": 0.1556,
      "velocity": 114,
      "chip": "ym2612"
    },
    {
      "channel": 1,
      "note": 53,
      "start": 65.3888,
      "duration": 0.3112,
      "velocity": 107,
      "chip": "ym2612"
    },
    {
      "channel": 2,
      "note": 70,
      "start": 65.3889,
      "duration": 0.6224,
      "velocity": 107,
      "chip": "ym2612"
    },
    {
      "channel": 3,
      "note": 67,
      "start": 65.389,
      "duration": 0.6224,
      "velocity": 107,
      "chip": "ym2612"
    },
    {
      "channel": 4,
      "note": 67,
      "start": 65.5133,
      "duration": 0.6225,
      "velocity": 107,
      "chip": "ym2612"
    },
    {
      "channel": 5,
      "note": 70,
      "start": 65.5134,
      "duration": 0.6225,
      "velocity": 107,
      "chip": "ym2612"
    },
    {
      "channel": 0,
      "note": 54,
      "start": 65.5443,
      "duration": 0.0309,
      "velocity": 114,
      "chip": "ym2612"
    },
    {
      "channel": 0,
      "note": 98,
      "start": 65.6999,
      "duration": 0.1556,
      "velocity": 114,
      "chip": "ym2612"
    },
    {
      "channel": 1,
      "note": 51,
      "start": 65.7,
      "duration": 0.3112,
      "velocity": 107,
      "chip": "ym2612"
    },
    {
      "channel": 0,
      "note": 54,
      "start": 65.8555,
      "duration": 0.0309,
      "velocity": 114,
      "chip": "ym2612"
    },
    {
      "channel": 0,
      "note": 98,
      "start": 66.0112,
      "duration": 0.3112,
      "velocity": 114,
      "chip": "ym2612"
    },
    {
      "channel": 2,
      "note": 72,
      "start": 66.0114,
      "duration": 0.6225,
      "velocity": 107,
      "chip": "ym2612"
    },
    {
      "channel": 3,
      "note": 65,
      "start": 66.0115,
      "duration": 0.6225,
      "velocity": 107,
      "chip": "ym2612"
    },
    {
      "channel": 4,
      "note": 65,
      "start": 66.1358,
      "duration": 0.6225,
      "velocity": 107,
      "chip": "ym2612"
    },
    {
      "channel": 5,
      "note": 72,
      "start": 66.1359,
      "duration": 0.6225,
      "velocity": 107,
      "chip": "ym2612"
    },
    {
      "channel": 0,
      "note": 98,
      "start": 66.3224,
      "duration": 0.0309,
      "velocity": 114,
      "chip": "ym2612"
    },
    {
      "channel": 0,
      "note": 98,
      "start": 66.478,
      "duration": 0.0309,
      "velocity": 114,
      "chip": "ym2612"
    },
    {
      "channel": 0,
      "note": 98,
      "start": 66.6337,
      "duration": 0.0154,
      "velocity": 127,
      "chip": "ym2612"
    },
    {
      "channel": 2,
      "note": 72,
      "start": 66.6339,
      "duration": 0.6226,
      "velocity": 107,
      "chip": "ym2612"
    },
    {
      "channel": 3,
      "note": 65,
      "start": 66.634,
      "duration": 0.6226,
      "velocity": 107,
      "chip": "ym2612"
    },
    {
      "channel": 0,
      "note": 76,
      "start": 66.649,
      "duration": 0.14,
      "velocity": 127,
      "chip": "ym2612"
    },
    {
      "channel": 4,
      "note": 65,
      "start": 66.7583,
      "duration": 0.6225,
      "velocity": 107,
      "chip": "ym2612"
    },
    {
      "channel": 5,
      "note": 72,
      "start": 66.7585,
      "duration": 0.6225,
      "velocity": 107,
      "chip": "ym2612"
    },
    {
      "channel": 0,
      "note": 68,
      "start": 66.9449,
      "duration": 0.0309,
      "velocity": 114,
      "chip": "ym2612"
    },
    {
      "channel": 0,
      "note": 98,
      "start": 67.1006,
      "duration": 0.0309,
      "velocity": 114,
      "chip": "ym2612"
    },
    {
      "channel": 0,
      "note": 98,
      "start": 67.2562,
      "duration": 0.1556,
      "velocity": 114,
      "chip": "ym2612"
    },
    {
      "channel": 1,
      "note": 53,
      "start": 67.2563,
      "duration": 0.3112,
      "velocity": 107,
      "chip": "ym2612"
    },
    {
      "channel": 2,
      "note": 70,
      "start": 67.2565,
      "duration": 0.6225,
      "velocity": 107,
      "chip": "ym2612"
    },
    {
      "channel": 3,
      "note": 67,
      "start": 67.2566,
      "duration": 0.6225,
      "velocity": 107,
      "chip": "ym2612"
    },
    {
      "channel": 4,
      "note": 67,
      "start": 67.3808,
      "duration": 0.6225,
      "velocity": 107,
      "chip": "ym2612"
    },
    {
      "channel": 5,
      "note": 70,
      "start": 67.381,
      "duration": 0.6225,
      "velocity": 107,
      "chip": "ym2612"
    },
    {
      "channel": 0,
      "note": 54,
      "start": 67.4118,
      "duration": 0.0309,
      "velocity": 114,
      "chip": "ym2612"
    },
    {
      "channel": 0,
      "note": 98,
      "start": 67.5675,
      "duration": 0.1556,
      "velocity": 114,
      "chip": "ym2612"
    },
    {
      "channel": 1,
      "note": 65,
      "start": 67.5676,
      "duration": 0.3112,
      "velocity": 107,
      "chip": "ym2612"
    },
    {
      "channel": 0,
      "note": 54,
      "start": 67.7231,
      "duration": 0.0309,
      "velocity": 114,
      "chip": "ym2612"
    },
    {
      "channel": 0,
      "note": 98,
      "start": 67.8787,
      "duration": 0.1556,
      "velocity": 114,
      "chip": "ym2612"
    },
    {
      "channel": 1,
      "note": 51,
      "start": 67.8789,
      "duration": 0.3112,
      "velocity": 107,
      "chip": "ym2612"
    },
    {
      "channel": 2,
      "note": 70,
      "start": 67.879,
      "duration": 0.6224,
      "velocity": 107,
      "chip": "ym2612"
    },
    {
      "channel": 3,
      "note": 67,
      "start": 67.8791,
      "duration": 0.6225,
      "velocity": 107,
      "chip": "ym2612"
    },
    {
      "channel": 4,
      "note": 67,
      "start": 68.0034,
      "duration": 0.6225,
      "velocity": 107,
      "chip": "ym2612"
    },
    {
      "channel": 5,
      "note": 70,
      "start": 68.0035,
      "duration": 0.6225,
      "velocity": 107,
      "chip": "ym2612"
    },
    {
      "channel": 0,
      "note": 54,
      "start": 68.0344,
      "duration": 0.0309,
      "velocity": 114,
      "chip": "ym2612"
    },
    {
      "channel": 0,
      "note": 98,
      "start": 68.19,
      "duration": 0.1556,
      "velocity": 114,
      "chip": "ym2612"
    },
    {
      "channel": 1,
      "note": 53,
      "start": 68.1901,
      "duration": 0.3112,
      "velocity": 107,
      "chip": "ym2612"
    },
    {
      "channel": 0,
      "note": 54,
      "start": 68.3456,
      "duration": 0.0309,
      "velocity": 114,
      "chip": "ym2612"
    },
    {
      "channel": 0,
      "note": 98,
      "start": 68.5012,
      "duration": 0.0309,
      "velocity": 114,
      "chip": "ym2612"
    },
    {
      "channel": 2,
      "note": 72,
      "start": 68.5015,
      "duration": 0.6227,
      "velocity": 107,
      "chip": "ym2612"
    },
    {
      "channel": 3,
      "note": 65,
      "start": 68.5016,
      "duration": 0.6227,
      "velocity": 107,
      "chip": "ym2612"
    },
    {
      "channel": 4,
      "note": 65,
      "start": 68.6259,
      "duration": 0.6225,
      "velocity": 107,
      "chip": "ym2612"
    },
    {
      "channel": 5,
      "note": 72,
      "start": 68.626,
      "duration": 0.6225,
      "velocity": 107,
      "chip": "ym2612"
    },
    {
      "channel": 0,
      "note": 98,
      "start": 68.6569,
      "duration": 0.0309,
      "velocity": 114,
      "chip": "ym2612"
    },
    {
      "channel": 0,
      "note": 98,
      "start": 68.8125,
      "duration": 0.0154,
      "velocity": 127,
      "chip": "ym2612"
    },
    {
      "channel": 0,
      "note": 76,
      "start": 68.8279,
      "duration": 0.14,
      "velocity": 127,
      "chip": "ym2612"
    },
    {
      "channel": 0,
      "note": 68,
      "start": 69.1239,
      "duration": 0.0307,
      "velocity": 114,
      "chip": "ym2612"
    },
    {
      "channel": 2,
      "note": 72,
      "start": 69.1241,
      "duration": 0.6225,
      "velocity": 107,
      "chip": "ym2612"
    },
    {
      "channel": 3,
      "note": 65,
      "start": 69.1243,
      "duration": 0.6226,
      "velocity": 107,
      "chip": "ym2612"
    },
    {
      "channel": 4,
      "note": 65,
      "start": 69.2484,
      "duration": 0.6226,
      "velocity": 107,
      "chip": "ym2612"
    },
    {
      "channel": 5,
      "note": 72,
      "start": 69.2485,
      "duration": 0.6226,
      "velocity": 107,
      "chip": "ym2612"
    },
    {
      "channel": 0,
      "note": 98,
      "start": 69.2794,
      "duration": 0.0309,
      "velocity": 114,
      "chip": "ym2612"
    },
    {
      "channel": 0,
      "note": 98,
      "start": 69.435,
      "duration": 0.1557,
      "velocity": 114,
      "chip": "ym2612"
    },
    {
      "channel": 0,
      "note": 54,
      "start": 69.5907,
      "duration": 0.0308,
      "velocity": 114,
      "chip": "ym2612"
    },
    {
      "channel": 0,
      "note": 98,
      "start": 69.7463,
      "duration": 0.1556,
      "velocity": 114,
      "chip": "ym2612"
    },
    {
      "channel": 1,
      "note": 53,
      "start": 69.7465,
      "duration": 0.3112,
      "velocity": 107,
      "chip": "ym2612"
    },
    {
      "channel": 2,
      "note": 70,
      "start": 69.7467,
      "duration": 0.6224,
      "velocity": 107,
      "chip": "ym2612"
    },
    {
      "channel": 3,
      "note": 67,
      "start": 69.7468,
      "duration": 0.6223,
      "velocity": 107,
      "chip": "ym2612"
    },
    {
      "channel": 4,
      "note": 67,
      "start": 69.871,
      "duration": 0.6224,
      "velocity": 107,
      "chip": "ym2612"
    },
    {
      "channel": 5,
      "note": 70,
      "start": 69.8712,
      "duration": 0.6224,
      "velocity": 107,
      "chip": "ym2612"
    },
    {
      "channel": 0,
      "note": 54,
      "start": 69.9019,
      "duration": 0.0309,
      "velocity": 114,
      "chip": "ym2612"
    },
    {
      "channel": 0,
      "note": 98,
      "start": 70.0576,
      "duration": 0.1556,
      "velocity": 114,
      "chip": "ym2612"
    },
    {
      "channel": 1,
      "note": 53,
      "start": 70.0577,
      "duration": 0.3112,
      "velocity": 107,
      "chip": "ym2612"
    },
    {
      "channel": 0,
      "note": 54,
      "start": 70.2132,
      "duration": 0.0309,
      "velocity": 114,
      "chip": "ym2612"
    },
    {
      "channel": 0,
      "note": 98,
      "start": 70.3688,
      "duration": 0.3113,
      "velocity": 114,
      "chip": "ym2612"
    },
    {
      "channel": 2,
      "note": 74,
      "start": 70.369,
      "duration": 0.6225,
      "velocity": 107,
      "chip": "ym2612"
    },
    {
      "channel": 3,
      "note": 67,
      "start": 70.3692,
      "duration": 0.6225,
      "velocity": 107,
      "chip": "ym2612"
    },
    {
      "channel": 4,
      "note": 67,
      "start": 70.4934,
      "duration": 0.6225,
      "velocity": 107,
      "chip": "ym2612"
    },
    {
      "channel": 5,
      "note": 74,
      "start": 70.4936,
      "duration": 0.6225,
      "velocity": 107,
      "chip": "ym2612"
    },
    {
      "channel": 0,
      "note": 98,
      "start": 70.6801,
      "duration": 0.0309,
      "velocity": 114,
      "chip": "ym2612"
    },
    {
      "channel": 0,
      "note": 98,
      "start": 70.8357,
      "duration": 0.0309,
      "velocity": 114,
      "chip": "ym2612"
    },
    {
      "channel": 0,
      "note": 98,
      "start": 70.9913,
      "duration": 0.0154,
      "velocity": 127,
      "chip": "ym2612"
    },
    {
      "channel": 2,
      "note": 74,
      "start": 70.9915,
      "duration": 0.6226,
      "velocity": 107,
      "chip": "ym2612"
    },
    {
      "channel": 3,
      "note": 67,
      "start": 70.9917,
      "duration": 0.6226,
      "velocity": 107,
      "chip": "ym2612"
    },
    {
      "channel": 0,
      "note": 76,
      "start": 71.0067,
      "duration": 0.14,
      "velocity": 127,
      "chip": "ym2612"
    },
    {
      "channel": 4,
      "note": 67,
      "start": 71.116,
      "duration": 0.6225,
      "velocity": 107,
      "chip": "ym2612"
    },
    {
      "channel": 5,
      "note": 74,
      "start": 71.1161,
      "duration": 0.6225,
      "velocity": 107,
      "chip": "ym2612"
    },
    {
      "channel": 0,
      "note": 68,
      "start": 71.3026,
      "duration": 0.0309,
      "velocity": 114,
      "chip": "ym2612"
    },
    {
      "channel": 0,
      "note": 98,
      "start": 71.4582,
      "duration": 0.0309,
      "velocity": 114,
      "chip": "ym2612"
    },
    {
      "channel": 0,
      "note": 98,
      "start": 71.6139,
      "duration": 0.1556,
      "velocity": 114,
      "chip": "ym2612"
    },
    {
      "channel": 1,
      "note": 55,
      "start": 71.614,
      "duration": 0.3113,
      "velocity": 107,
      "chip": "ym2612"
    },
    {
      "channel": 2,
      "note": 72,
      "start": 71.6141,
      "duration": 0.6225,
      "velocity": 107,
      "chip": "ym2612"
    },
    {
      "channel": 3,
      "note": 69,
      "start": 71.6143,
      "duration": 0.6225,
      "velocity": 107,
      "chip": "ym2612"
    },
    {
      "channel": 4,
      "note": 69,
      "start": 71.7385,
      "duration": 0.6225,
      "velocity": 107,
      "chip": "ym2612"
    },
    {
      "channel": 5,
      "note": 72,
      "start": 71.7386,
      "duration": 0.6225,
      "velocity": 107,
      "chip": "ym2612"
    },
    {
      "channel": 0,
      "note": 54,
      "start": 71.7695,
      "duration": 0.0309,
      "velocity": 114,
      "chip": "ym2612"
    },
    {
      "channel": 0,
      "note": 98,
      "start": 71.9251,
      "duration": 0.1556,
      "velocity": 114,
      "chip": "ym2612"
    },
    {
      "channel": 1,
      "note": 67,
      "start": 71.9253,
      "duration": 0.3112,
      "velocity": 107,
      "chip": "ym2612"
    },
    {
      "channel": 0,
      "note": 54,
      "start": 72.0807,
      "duration": 0.0309,
      "velocity": 114,
      "chip": "ym2612"
    },
    {
      "channel": 0,
      "note": 98,
      "start": 72.2364,
      "duration": 0.1556,
      "velocity": 114,
      "chip": "ym2612"
    },
    {
      "channel": 1,
      "note": 53,
      "start": 72.2365,
      "duration": 0.3112,
      "velocity": 107,
      "chip": "ym2612"
    },
    {
      "channel": 2,
      "note": 72,
      "start": 72.2367,
      "duration": 0.6224,
      "velocity": 107,
      "chip": "ym2612"
    },
    {
      "channel": 3,
      "note": 69,
      "start": 72.2368,
      "duration": 0.6225,
      "velocity": 107,
      "chip": "ym2612"
    },
    {
      "channel": 4,
      "note": 69,
      "start": 72.361,
      "duration": 0.6225,
      "velocity": 107,
      "chip": "ym2612"
    },
    {
      "channel": 5,
      "note": 72,
      "start": 72.3612,
      "duration": 0.6225,
      "velocity": 107,
      "chip": "ym2612"
    },
    {
      "channel": 0,
      "note": 54,
      "start": 72.392,
      "duration": 0.0309,
      "velocity": 114,
      "chip": "ym2612"
    },
    {
      "channel": 0,
      "note": 98,
      "start": 72.5476,
      "duration": 0.1556,
      "velocity": 114,
      "chip": "ym2612"
    },
    {
      "channel": 1,
      "note": 55,
      "start": 72.5478,
      "duration": 0.3112,
      "velocity": 107,
      "chip": "ym2612"
    },
    {
      "channel": 0,
      "note": 54,
      "start": 72.7033,
      "duration": 0.0309,
      "velocity": 114,
      "chip": "ym2612"
    },
    {
      "channel": 0,
      "note": 98,
      "start": 72.8589,
      "duration": 0.0309,
      "velocity": 114,
      "chip": "ym2612"
    },
    {
      "channel": 2,
      "note": 74,
      "start": 72.8591,
      "duration": 0.6225,
      "velocity": 107,
      "chip": "ym2612"
    },
    {
      "channel": 3,
      "note": 67,
      "start": 72.8593,
      "duration": 0.6225,
      "velocity": 107,
      "chip": "ym2612"
    },
    {
      "channel": 4,
      "note": 67,
      "start": 72.9835,
      "duration": 0.6225,
      "velocity": 107,
      "chip": "ym2612"
    },
    {
      "channel": 5,
      "note": 74,
      "start": 72.9837,
      "duration": 0.6225,
      "velocity": 107,
      "chip": "ym2612"
    },
    {
      "channel": 0,
      "note": 98,
      "start": 73.0145,
      "duration": 0.0309,
      "velocity": 114,
      "chip": "ym2612"
    },
    {
      "channel": 0,
      "note": 98,
      "start": 73.1702,
      "duration": 0.0153,
      "velocity": 127,
      "chip": "ym2612"
    },
    {
      "channel": 0,
      "note": 76,
      "start": 73.1855,
      "duration": 0.14,
      "velocity": 127,
      "chip": "ym2612"
    },
    {
      "channel": 0,
      "note": 68,
      "start": 73.4814,
      "duration": 0.0309,
      "velocity": 114,
      "chip": "ym2612"
    },
    {
      "channel": 2,
      "note": 74,
      "start": 73.4816,
      "duration": 0.6226,
      "velocity": 107,
      "chip": "ym2612"
    },
    {
      "channel": 3,
      "note": 67,
      "start": 73.4818,
      "duration": 0.6226,
      "velocity": 107,
      "chip": "ym2612"
    },
    {
      "channel": 4,
      "note": 67,
      "start": 73.6061,
      "duration": 0.6225,
      "velocity": 107,
      "chip": "ym2612"
    },
    {
      "channel": 5,
      "note": 74,
      "start": 73.6062,
      "duration": 0.6225,
      "velocity": 107,
      "chip": "ym2612"
    },
    {
      "channel": 0,
      "note": 98,
      "start": 73.6371,
      "duration": 0.0309,
      "velocity": 114,
      "chip": "ym2612"
    },
    {
      "channel": 0,
      "note": 98,
      "start": 73.7927,
      "duration": 0.1556,
      "velocity": 114,
      "chip": "ym2612"
    },
    {
      "channel": 0,
      "note": 54,
      "start": 73.9483,
      "duration": 0.0309,
      "velocity": 114,
      "chip": "ym2612"
    },
    {
      "channel": 0,
      "note": 98,
      "start": 74.104,
      "duration": 0.1556,
      "velocity": 114,
      "chip": "ym2612"
    },
    {
      "channel": 1,
      "note": 55,
      "start": 74.1041,
      "duration": 0.3112,
      "velocity": 107,
      "chip": "ym2612"
    },
    {
      "channel": 2,
      "note": 72,
      "start": 74.1043,
      "duration": 0.6224,
      "velocity": 107,
      "chip": "ym2612"
    },
    {
      "channel": 3,
      "note": 69,
      "start": 74.1044,
      "duration": 0.6224,
      "velocity": 107,
      "chip": "ym2612"
    },
    {
      "channel": 4,
      "note": 69,
      "start": 74.2286,
      "duration": 0.6225,
      "velocity": 107,
      "chip": "ym2612"
    },
    {
      "channel": 5,
      "note": 72,
      "start": 74.2287,
      "duration": 0.6225,
      "velocity": 107,
      "chip": "ym2612"
    },
    {
      "channel": 0,
      "note": 54,
      "start": 74.2596,
      "duration": 0.0309,
      "velocity": 114,
      "chip": "ym2612"
    },
    {
      "channel": 0,
      "note": 98,
      "start": 74.4152,
      "duration": 0.1556,
      "velocity": 114,
      "chip": "ym2612"
    },
    {
      "channel": 1,
      "note": 53,
      "start": 74.4154,
      "duration": 0.3112,
      "velocity": 107,
      "chip": "ym2612"
    },
    {
      "channel": 0,
      "note": 54,
      "start": 74.5709,
      "duration": 0.0309,
      "velocity": 114,
      "chip": "ym2612"
    },
    {
      "channel": 0,
      "note": 98,
      "start": 74.7265,
      "duration": 0.3113,
      "velocity": 114,
      "chip": "ym2612"
    },
    {
      "channel": 2,
      "note": 74,
      "start": 74.7267,
      "duration": 0.6225,
      "velocity": 107,
      "chip": "ym2612"
    },
    {
      "channel": 3,
      "note": 67,
      "start": 74.7268,
      "duration": 0.6225,
      "velocity": 107,
      "chip": "ym2612"
    },
    {
      "channel": 4,
      "note": 67,
      "start": 74.8511,
      "duration": 0.6227,
      "velocity": 107,
      "chip": "ym2612"
    },
    {
      "channel": 5,
      "note": 74,
      "start": 74.8512,
      "duration": 0.6227,
      "velocity": 107,
      "chip": "ym2612"
    },
    {
      "channel": 0,
      "note": 98,
      "start": 75.0378,
      "duration": 0.0309,
      "velocity": 114,
      "chip": "ym2612"
    },
    {
      "channel": 0,
      "note": 98,
      "start": 75.1934,
      "duration": 0.0309,
      "velocity": 114,
      "chip": "ym2612"
    },
    {
      "channel": 0,
      "note": 98,
      "start": 75.349,
      "duration": 0.0154,
      "velocity": 127,
      "chip": "ym2612"
    },
    {
      "channel": 2,
      "note": 74,
      "start": 75.3492,
      "duration": 0.6226,
      "velocity": 107,
      "chip": "ym2612"
    },
    {
      "channel": 3,
      "note": 67,
      "start": 75.3493,
      "duration": 0.6226,
      "velocity": 107,
      "chip": "ym2612"
    },
    {
      "channel": 0,
      "note": 76,
      "start": 75.3644,
      "duration": 0.1401,
      "velocity": 127,
      "chip": "ym2612"
    },
    {
      "channel": 4,
      "note": 67,
      "start": 75.4738,
      "duration": 0.6224,
      "velocity": 107,
      "chip": "ym2612"
    },
    {
      "channel": 5,
      "note": 74,
      "start": 75.4739,
      "duration": 0.6224,
      "velocity": 107,
      "chip": "ym2612"
    },
    {
      "channel": 0,
      "note": 68,
      "start": 75.6602,
      "duration": 0.0309,
      "velocity": 114,
      "chip": "ym2612"
    },
    {
      "channel": 0,
      "note": 98,
      "start": 75.8159,
      "duration": 0.0309,
      "velocity": 114,
      "chip": "ym2612"
    },
    {
      "channel": 0,
      "note": 98,
      "start": 75.9715,
      "duration": 0.1556,
      "velocity": 114,
      "chip": "ym2612"
    },
    {
      "channel": 1,
      "note": 55,
      "start": 75.9717,
      "duration": 0.3113,
      "velocity": 107,
      "chip": "ym2612"
    },
    {
      "channel": 2,
      "note": 72,
      "start": 75.9718,
      "duration": 0.6225,
      "velocity": 107,
      "chip": "ym2612"
    },
    {
      "channel": 3,
      "note": 69,
      "start": 75.9719,
      "duration": 0.6225,
      "velocity": 107,
      "chip": "ym2612"
    },
    {
      "channel": 4,
      "note": 69,
      "start": 76.0962,
      "duration": 0.6225,
      "velocity": 107,
      "chip": "ym2612"
    },
    {
      "channel": 5,
      "note": 72,
      "start": 76.0963,
      "duration": 0.6225,
      "velocity": 107,
      "chip": "ym2612"
    },
    {
      "channel": 0,
      "note": 54,
      "start": 76.1272,
      "duration": 0.0309,
      "velocity": 114,
      "chip": "ym2612"
    },
    {
      "channel": 0,
      "note": 98,
      "start": 76.2828,
      "duration": 0.1556,
      "velocity": 114,
      "chip": "ym2612"
    },
    {
      "channel": 1,
      "note": 67,
      "start": 76.2829,
      "duration": 0.3112,
      "velocity": 107,
      "chip": "ym2612"
    },
    {
      "channel": 0,
      "note": 54,
      "start": 76.4384,
      "duration": 0.0309,
      "velocity": 114,
      "chip": "ym2612"
    },
    {
      "channel": 0,
      "note": 98,
      "start": 76.5941,
      "duration": 0.1556,
      "velocity": 114,
      "chip": "ym2612"
    },
    {
      "channel": 1,
      "note": 53,
      "start": 76.5942,
      "duration": 0.3112,
      "velocity": 107,
      "chip": "ym2612"
    },
    {
      "channel": 2,
      "note": 72,
      "start": 76.5943,
      "duration": 0.6224,
      "velocity": 107,
      "chip": "ym2612"
    },
    {
      "channel": 3,
      "note": 69,
      "start": 76.5945,
      "duration": 0.6224,
      "velocity": 107,
      "chip": "ym2612"
    },
    {
      "channel": 4,
      "note": 69,
      "start": 76.7187,
      "duration": 0.6225,
      "velocity": 107,
      "chip": "ym2612"
    },
    {
      "channel": 5,
      "note": 72,
      "start": 76.7188,
      "duration": 0.6225,
      "velocity": 107,
      "chip": "ym2612"
    },
    {
      "channel": 0,
      "note": 54,
      "start": 76.7497,
      "duration": 0.0309,
      "velocity": 114,
      "chip": "ym2612"
    },
    {
      "channel": 0,
      "note": 98,
      "start": 76.9053,
      "duration": 0.1556,
      "velocity": 114,
      "chip": "ym2612"
    },
    {
      "channel": 1,
      "note": 55,
      "start": 76.9054,
      "duration": 0.3112,
      "velocity": 107,
      "chip": "ym2612"
    },
    {
      "channel": 0,
      "note": 54,
      "start": 77.061,
      "duration": 0.0309,
      "velocity": 114,
      "chip": "ym2612"
    },
    {
      "channel": 0,
      "note": 98,
      "start": 77.2166,
      "duration": 0.0309,
      "velocity": 114,
      "chip": "ym2612"
    },
    {
      "channel": 2,
      "note": 74,
      "start": 77.2168,
      "duration": 0.6225,
      "velocity": 107,
      "chip": "ym2612"
    },
    {
      "channel": 3,
      "note": 67,
      "start": 77.2169,
      "duration": 0.6225,
      "velocity": 107,
      "chip": "ym2612"
    },
    {
      "channel": 4,
      "note": 67,
      "start": 77.3412,
      "duration": 0.6225,
      "velocity": 107,
      "chip": "ym2612"
    },
    {
      "channel": 5,
      "note": 74,
      "start": 77.3413,
      "duration": 0.6225,
      "velocity": 107,
      "chip": "ym2612"
    },
    {
      "channel": 0,
      "note": 98,
      "start": 77.3722,
      "duration": 0.0309,
      "velocity": 114,
      "chip": "ym2612"
    },
    {
      "channel": 0,
      "note": 98,
      "start": 77.5278,
      "duration": 0.0154,
      "velocity": 127,
      "chip": "ym2612"
    },
    {
      "channel": 0,
      "note": 76,
      "start": 77.5432,
      "duration": 0.14,
      "velocity": 127,
      "chip": "ym2612"
    },
    {
      "channel": 0,
      "note": 68,
      "start": 77.8391,
      "duration": 0.0309,
      "velocity": 114,
      "chip": "ym2612"
    },
    {
      "channel": 2,
      "note": 74,
      "start": 77.8393,
      "duration": 0.6227,
      "velocity": 107,
      "chip": "ym2612"
    },
    {
      "channel": 3,
      "note": 67,
      "start": 77.8394,
      "duration": 0.6227,
      "velocity": 107,
      "chip": "ym2612"
    },
    {
      "channel": 4,
      "note": 67,
      "start": 77.9637,
      "duration": 0.6226,
      "velocity": 107,
      "chip": "ym2612"
    },
    {
      "channel": 5,
      "note": 74,
      "start": 77.9639,
      "duration": 0.6226,
      "velocity": 107,
      "chip": "ym2612"
    },
    {
      "channel": 0,
      "note": 98,
      "start": 77.9947,
      "duration": 0.0309,
      "velocity": 114,
      "chip": "ym2612"
    },
    {
      "channel": 0,
      "note": 98,
      "start": 78.1504,
      "duration": 0.1556,
      "velocity": 114,
      "chip": "ym2612"
    },
    {
      "channel": 0,
      "note": 54,
      "start": 78.306,
      "duration": 0.0309,
      "velocity": 114,
      "chip": "ym2612"
    },
    {
      "channel": 0,
      "note": 98,
      "start": 78.4616,
      "duration": 0.1556,
      "velocity": 114,
      "chip": "ym2612"
    },
    {
      "channel": 1,
      "note": 55,
      "start": 78.4618,
      "duration": 0.3112,
      "velocity": 107,
      "chip": "ym2612"
    },
    {
      "channel": 2,
      "note": 72,
      "start": 78.462,
      "duration": 0.6223,
      "velocity": 107,
      "chip": "ym2612"
    },
    {
      "channel": 3,
      "note": 69,
      "start": 78.4622,
      "duration": 0.6223,
      "velocity": 107,
      "chip": "ym2612"
    },
    {
      "channel": 4,
      "note": 69,
      "start": 78.5863,
      "duration": 0.6224,
      "velocity": 107,
      "chip": "ym2612"
    },
    {
      "channel": 5,
      "note": 72,
      "start": 78.5865,
      "duration": 0.6224,
      "velocity": 107,
      "chip": "ym2612"
    },
    {
      "channel": 0,
      "note": 54,
      "start": 78.6173,
      "duration": 0.0309,
      "velocity": 114,
      "chip": "ym2612"
    },
    {
      "channel": 0,
      "note": 98,
      "start": 78.7729,
      "duration": 0.1556,
      "velocity": 114,
      "chip": "ym2612"
    },
    {
      "channel": 1,
      "note": 51,
      "start": 78.773,
      "duration": 0.3112,
      "velocity": 107,
      "chip": "ym2612"
    },
    {
      "channel": 0,
      "note": 54,
      "start": 78.9285,
      "duration": 0.0309,
      "velocity": 114,
      "chip": "ym2612"
    },
    {
      "channel": 0,
      "note": 98,
      "start": 79.0841,
      "duration": 0.3113,
      "velocity": 114,
      "chip": "ym2612"
    },
    {
      "channel": 2,
      "note": 72,
      "start": 79.0844,
      "duration": 0.6225,
      "velocity": 107,
      "chip": "ym2612"
    },
    {
      "channel": 3,
      "note": 65,
      "start": 79.0845,
      "duration": 0.6227,
      "velocity": 107,
      "chip": "ym2612"
    },
    {
      "channel": 4,
      "note": 65,
      "start": 79.2088,
      "duration": 0.6226,
      "velocity": 107,
      "chip": "ym2612"
    },
    {
      "channel": 5,
      "note": 72,
      "start": 79.2089,
      "duration": 0.6226,
      "velocity": 107,
      "chip": "ym2612"
    },
    {
      "channel": 0,
      "note": 98,
      "start": 79.3954,
      "duration": 0.0309,
      "velocity": 114,
      "chip": "ym2612"
    },
    {
      "channel": 0,
      "note": 98,
      "start": 79.551,
      "duration": 0.0309,
      "velocity": 114,
      "chip": "ym2612"
    },
    {
      "channel": 0,
      "note": 98,
      "start": 79.7067,
      "duration": 0.0154,
      "velocity": 127,
      "chip": "ym2612"
    },
    {
      "channel": 2,
      "note": 72,
      "start": 79.7069,
      "duration": 0.6226,
      "velocity": 107,
      "chip": "ym2612"
    },
    {
      "channel": 3,
      "note": 65,
      "start": 79.7072,
      "duration": 0.6224,
      "velocity": 107,
      "chip": "ym2612"
    },
    {
      "channel": 0,
      "note": 76,
      "start": 79.722,
      "duration": 0.14,
      "velocity": 127,
      "chip": "ym2612"
    },
    {
      "channel": 4,
      "note": 65,
      "start": 79.8313,
      "duration": 0.6225,
      "velocity": 107,
      "chip": "ym2612"
    },
    {
      "channel": 5,
      "note": 72,
      "start": 79.8315,
      "duration": 0.6225,
      "velocity": 107,
      "chip": "ym2612"
    },
    {
      "channel": 0,
      "note": 68,
      "start": 80.0179,
      "duration": 0.0309,
      "velocity": 114,
      "chip": "ym2612"
    },
    {
      "channel": 0,
      "note": 98,
      "start": 80.1736,
      "duration": 0.0309,
      "velocity": 114,
      "chip": "ym2612"
    },
    {
      "channel": 0,
      "note": 98,
      "start": 80.3292,
      "duration": 0.1556,
      "velocity": 114,
      "chip": "ym2612"
    },
    {
      "channel": 1,
      "note": 53,
      "start": 80.3293,
      "duration": 0.3114,
      "velocity": 107,
      "chip": "ym2612"
    },
    {
      "channel": 2,
      "note": 70,
      "start": 80.3295,
      "duration": 0.6225,
      "velocity": 107,
      "chip": "ym2612"
    },
    {
      "channel": 3,
      "note": 67,
      "start": 80.3296,
      "duration": 0.6225,
      "velocity": 107,
      "chip": "ym2612"
    },
    {
      "channel": 4,
      "note": 67,
      "start": 80.4538,
      "duration": 0.6225,
      "velocity": 107,
      "chip": "ym2612"
    },
    {
      "channel": 5,
      "note": 70,
      "start": 80.454,
      "duration": 0.6225,
      "velocity": 107,
      "chip": "ym2612"
    },
    {
      "channel": 0,
      "note": 54,
      "start": 80.4848,
      "duration": 0.0309,
      "velocity": 114,
      "chip": "ym2612"
    },
    {
      "channel": 0,
      "note": 98,
      "start": 80.6406,
      "duration": 0.1554,
      "velocity": 114,
      "chip": "ym2612"
    },
    {
      "channel": 1,
      "note": 65,
      "start": 80.6408,
      "duration": 0.3111,
      "velocity": 107,
      "chip": "ym2612"
    },
    {
      "channel": 0,
      "note": 54,
      "start": 80.7961,
      "duration": 0.0309,
      "velocity": 114,
      "chip": "ym2612"
    },
    {
      "channel": 0,
      "note": 98,
      "start": 80.9517,
      "duration": 0.1557,
      "velocity": 114,
      "chip": "ym2612"
    },
    {
      "channel": 1,
      "note": 51,
      "start": 80.9519,
      "duration": 0.3112,
      "velocity": 107,
      "chip": "ym2612"
    },
    {
      "channel": 2,
      "note": 70,
      "start": 80.952,
      "duration": 0.6224,
      "velocity": 107,
      "chip": "ym2612"
    },
    {
      "channel": 3,
      "note": 67,
      "start": 80.9521,
      "duration": 0.6224,
      "velocity": 107,
      "chip": "ym2612"
    },
    {
      "channel": 4,
      "note": 67,
      "start": 81.0764,
      "duration": 0.6225,
      "velocity": 107,
      "chip": "ym2612"
    },
    {
      "channel": 5,
      "note": 70,
      "start": 81.0765,
      "duration": 0.6225,
      "velocity": 107,
      "chip": "ym2612"
    },
    {
      "channel": 0,
      "note": 54,
      "start": 81.1074,
      "duration": 0.0308,
      "velocity": 114,
      "chip": "ym2612"
    },
    {
      "channel": 0,
      "note": 98,
      "start": 81.263,
      "duration": 0.1556,
      "velocity": 114,
      "chip": "ym2612"
    },
    {
      "channel": 1,
      "note": 53,
      "start": 81.2631,
      "duration": 0.3112,
      "velocity": 107,
      "chip": "ym2612"
    },
    {
      "channel": 0,
      "note": 54,
      "start": 81.4186,
      "duration": 0.0309,
      "velocity": 114,
      "chip": "ym2612"
    },
    {
      "channel": 0,
      "note": 98,
      "start": 81.5742,
      "duration": 0.0309,
      "velocity": 114,
      "chip": "ym2612"
    },
    {
      "channel": 2,
      "note": 72,
      "start": 81.5745,
      "duration": 0.6225,
      "velocity": 107,
      "chip": "ym2612"
    },
    {
      "channel": 3,
      "note": 65,
      "start": 81.5746,
      "duration": 0.6225,
      "velocity": 107,
      "chip": "ym2612"
    },
    {
      "channel": 4,
      "note": 65,
      "start": 81.6989,
      "duration": 0.6225,
      "velocity": 107,
      "chip": "ym2612"
    },
    {
      "channel": 5,
      "note": 72,
      "start": 81.699,
      "duration": 0.6225,
      "velocity": 107,
      "chip": "ym2612"
    },
    {
      "channel": 0,
      "note": 98,
      "start": 81.7299,
      "duration": 0.0309,
      "velocity": 114,
      "chip": "ym2612"
    },
    {
      "channel": 0,
      "note": 98,
      "start": 81.8855,
      "duration": 0.0154,
      "velocity": 127,
      "chip": "ym2612"
    },
    {
      "channel": 0,
      "note": 76,
      "start": 81.9009,
      "duration": 0.14,
      "velocity": 127,
      "chip": "ym2612"
    },
    {
      "channel": 0,
      "note": 68,
      "start": 82.1968,
      "duration": 0.0309,
      "velocity": 114,
      "chip": "ym2612"
    },
    {
      "channel": 2,
      "note": 72,
      "start": 82.197,
      "duration": 0.6226,
      "velocity": 107,
      "chip": "ym2612"
    },
    {
      "channel": 3,
      "note": 65,
      "start": 82.1971,
      "duration": 0.6226,
      "velocity": 107,
      "chip": "ym2612"
    },
    {
      "channel": 4,
      "note": 65,
      "start": 82.3214,
      "duration": 0.6225,
      "velocity": 107,
      "chip": "ym2612"
    },
    {
      "channel": 5,
      "note": 72,
      "start": 82.3215,
      "duration": 0.6225,
      "velocity": 107,
      "chip": "ym2612"
    },
    {
      "channel": 0,
      "note": 98,
      "start": 82.3524,
      "duration": 0.0309,
      "velocity": 114,
      "chip": "ym2612"
    },
    {
      "channel": 0,
      "note": 98,
      "start": 82.508,
      "duration": 0.1556,
      "velocity": 114,
      "chip": "ym2612"
    },
    {
      "channel": 0,
      "note": 54,
      "start": 82.6637,
      "duration": 0.0309,
      "velocity": 114,
      "chip": "ym2612"
    },
    {
      "channel": 0,
      "note": 98,
      "start": 82.8193,
      "duration": 0.1556,
      "velocity": 114,
      "chip": "ym2612"
    },
    {
      "channel": 1,
      "note": 53,
      "start": 82.8195,
      "duration": 0.3112,
      "velocity": 107,
      "chip": "ym2612"
    },
    {
      "channel": 2,
      "note": 70,
      "start": 82.8196,
      "duration": 0.6224,
      "velocity": 107,
      "chip": "ym2612"
    },
    {
      "channel": 3,
      "note": 67,
      "start": 82.8197,
      "duration": 0.6224,
      "velocity": 107,
      "chip": "ym2612"
    },
    {
      "channel": 4,
      "note": 67,
      "start": 82.9439,
      "duration": 0.6225,
      "velocity": 107,
      "chip": "ym2612"
    },
    {
      "channel": 5,
      "note": 70,
      "start": 82.9441,
      "duration": 0.6225,
      "velocity": 107,
      "chip": "ym2612"
    },
    {
      "channel": 0,
      "note": 54,
      "start": 82.9749,
      "duration": 0.0309,
      "velocity": 114,
      "chip": "ym2612"
    },
    {
      "channel": 0,
      "note": 98,
      "start": 83.1305,
      "duration": 0.1556,
      "velocity": 114,
      "chip": "ym2612"
    },
    {
      "channel": 1,
      "note": 51,
      "start": 83.1307,
      "duration": 0.3112,
      "velocity": 107,
      "chip": "ym2612"
    },
    {
      "channel": 0,
      "note": 54,
      "start": 83.2862,
      "duration": 0.0309,
      "velocity": 114,
      "chip": "ym2612"
    },
    {
      "channel": 0,
      "note": 98,
      "start": 83.4418,
      "duration": 0.3113,
      "velocity": 114,
      "chip": "ym2612"
    },
    {
      "channel": 2,
      "note": 72,
      "start": 83.442,
      "duration": 0.6225,
      "velocity": 107,
      "chip": "ym2612"
    },
    {
      "channel": 3,
      "note": 65,
      "start": 83.4422,
      "duration": 0.6225,
      "velocity": 107,
      "chip": "ym2612"
    },
    {
      "channel": 4,
      "note": 65,
      "start": 83.5664,
      "duration": 0.6225,
      "velocity": 107,
      "chip": "ym2612"
    },
    {
      "channel": 5,
      "note": 72,
      "start": 83.5666,
      "duration": 0.6225,
      "velocity": 107,
      "chip": "ym2612"
    },
    {
      "channel": 0,
      "note": 98,
      "start": 83.7531,
      "duration": 0.0309,
      "velocity": 114,
      "chip": "ym2612"
    },
    {
      "channel": 0,
      "note": 98,
      "start": 83.9087,
      "duration": 0.0309,
      "velocity": 114,
      "chip": "ym2612"
    },
    {
      "channel": 0,
      "note": 98,
      "start": 84.0643,
      "duration": 0.0154,
      "velocity": 127,
      "chip": "ym2612"
    },
    {
      "channel": 2,
      "note": 72,
      "start": 84.0646,
      "duration": 0.6226,
      "velocity": 107,
      "chip": "ym2612"
    },
    {
      "channel": 3,
      "note": 65,
      "start": 84.0647,
      "duration": 0.6226,
      "velocity": 107,
      "chip": "ym2612"
    },
    {
      "channel": 0,
      "note": 76,
      "start": 84.0797,
      "duration": 0.14,
      "velocity": 127,
      "chip": "ym2612"
    },
    {
      "channel": 4,
      "note": 65,
      "start": 84.189,
      "duration": 0.6225,
      "velocity": 107,
      "chip": "ym2612"
    },
    {
      "channel": 5,
      "note": 72,
      "start": 84.1891,
      "duration": 0.6225,
      "velocity": 107,
      "chip": "ym2612"
    },
    {
      "channel": 0,
      "note": 68,
      "start": 84.3756,
      "duration": 0.0309,
      "velocity": 114,
      "chip": "ym2612"
    },
    {
      "channel": 0,
      "note": 98,
      "start": 84.5312,
      "duration": 0.0309,
      "velocity": 114,
      "chip": "ym2612"
    },
    {
      "channel": 0,
      "note": 98,
      "start": 84.6869,
      "duration": 0.1556,
      "velocity": 114,
      "chip": "ym2612"
    },
    {
      "channel": 1,
      "note": 53,
      "start": 84.687,
      "duration": 0.3113,
      "velocity": 107,
      "chip": "ym2612"
    },
    {
      "channel": 2,
      "note": 70,
      "start": 84.6871,
      "duration": 0.6225,
      "velocity": 107,
      "chip": "ym2612"
    },
    {
      "channel": 3,
      "note": 67,
      "start": 84.6873,
      "duration": 0.6225,
      "velocity": 107,
      "chip": "ym2612"
    },
    {
      "channel": 4,
      "note": 67,
      "start": 84.8115,
      "duration": 0.6225,
      "velocity": 107,
      "chip": "ym2612"
    },
    {
      "channel": 5,
      "note": 70,
      "start": 84.8116,
      "duration": 0.6225,
      "velocity": 107,
      "chip": "ym2612"
    },
    {
      "channel": 0,
      "note": 54,
      "start": 84.8425,
      "duration": 0.0309,
      "velocity": 114,
      "chip": "ym2612"
    },
    {
      "channel": 0,
      "note": 98,
      "start": 84.9981,
      "duration": 0.1556,
      "velocity": 114,
      "chip": "ym2612"
    },
    {
      "channel": 1,
      "note": 65,
      "start": 84.9983,
      "duration": 0.3113,
      "velocity": 107,
      "chip": "ym2612"
    },
    {
      "channel": 0,
      "note": 54,
      "start": 85.1538,
      "duration": 0.0309,
      "velocity": 114,
      "chip": "ym2612"
    },
    {
      "channel": 0,
      "note": 98,
      "start": 85.3094,
      "duration": 0.1556,
      "velocity": 114,
      "chip": "ym2612"
    },
    {
      "channel": 1,
      "note": 51,
      "start": 85.3095,
      "duration": 0.3112,
      "velocity": 107,
      "chip": "ym2612"
    },
    {
      "channel": 2,
      "note": 70,
      "start": 85.3097,
      "duration": 0.6224,
      "velocity": 107,
      "chip": "ym2612"
    },
    {
      "channel": 3,
      "note": 67,
      "start": 85.3098,
      "duration": 0.6224,
      "velocity": 107,
      "chip": "ym2612"
    },
    {
      "channel": 4,
      "note": 67,
      "start": 85.434,
      "duration": 0.6225,
      "velocity": 107,
      "chip": "ym2612"
    },
    {
      "channel": 5,
      "note": 70,
      "start": 85.4342,
      "duration": 0.6225,
      "velocity": 107,
      "chip": "ym2612"
    },
    {
      "channel": 0,
      "note": 54,
      "start": 85.465,
      "duration": 0.0309,
      "velocity": 114,
      "chip": "ym2612"
    },
    {
      "channel": 0,
      "note": 98,
      "start": 85.6207,
      "duration": 0.1556,
      "velocity": 114,
      "chip": "ym2612"
    },
    {
      "channel": 1,
      "note": 53,
      "start": 85.6208,
      "duration": 0.3112,
      "velocity": 107,
      "chip": "ym2612"
    },
    {
      "channel": 0,
      "note": 54,
      "start": 85.7763,
      "duration": 0.0309,
      "velocity": 114,
      "chip": "ym2612"
    },
    {
      "channel": 0,
      "note": 98,
      "start": 85.9319,
      "duration": 0.0309,
      "velocity": 114,
      "chip": "ym2612"
    },
    {
      "channel": 2,
      "note": 72,
      "start": 85.9321,
      "duration": 0.6225,
      "velocity": 107,
      "chip": "ym2612"
    },
    {
      "channel": 3,
      "note": 65,
      "start": 85.9322,
      "duration": 0.6225,
      "velocity": 107,
      "chip": "ym2612"
    },
    {
      "channel": 4,
      "note": 65,
      "start": 86.0565,
      "duration": 0.6225,
      "velocity": 107,
      "chip": "ym2612"
    },
    {
      "channel": 5,
      "note": 72,
      "start": 86.0567,
      "duration": 0.6225,
      "velocity": 107,
      "chip": "ym2612"
    },
    {
      "channel": 0,
      "note": 98,
      "start": 86.0876,
      "duration": 0.0309,
      "velocity": 114,
      "chip": "ym2612"
    },
    {
      "channel": 0,
      "note": 98,
      "start": 86.2432,
      "duration": 0.0154,
      "velocity": 127,
      "chip": "ym2612"
    },
    {
      "channel": 0,
      "note": 76,
      "start": 86.2585,
      "duration": 0.14,
      "velocity": 127,
      "chip": "ym2612"
    },
    {
      "channel": 0,
      "note": 68,
      "start": 86.5544,
      "duration": 0.0309,
      "velocity": 114,
      "chip": "ym2612"
    },
    {
      "channel": 2,
      "note": 72,
      "start": 86.5546,
      "duration": 0.6228,
      "velocity": 107,
      "chip": "ym2612"
    },
    {
      "channel": 3,
      "note": 65,
      "start": 86.5548,
      "duration": 0.6228,
      "velocity": 107,
      "chip": "ym2612"
    },
    {
      "channel": 4,
      "note": 65,
      "start": 86.679,
      "duration": 0.6226,
      "velocity": 107,
      "chip": "ym2612"
    },
    {
      "channel": 5,
      "note": 72,
      "start": 86.6792,
      "duration": 0.6227,
      "velocity": 107,
      "chip": "ym2612"
    },
    {
      "channel": 0,
      "note": 98,
      "start": 86.7101,
      "duration": 0.0309,
      "velocity": 114,
      "chip": "ym2612"
    },
    {
      "channel": 0,
      "note": 98,
      "start": 86.8657,
      "duration": 0.1556,
      "velocity": 114,
      "chip": "ym2612"
    },
    {
      "channel": 0,
      "note": 54,
      "start": 87.0213,
      "duration": 0.0309,
      "velocity": 114,
      "chip": "ym2612"
    },
    {
      "channel": 0,
      "note": 98,
      "start": 87.177,
      "duration": 0.1556,
      "velocity": 114,
      "chip": "ym2612"
    },
    {
      "channel": 1,
      "note": 53,
      "start": 87.1772,
      "duration": 0.2648,
      "velocity": 107,
      "chip": "ym2612"
    },
    {
      "channel": 2,
      "note": 70,
      "start": 87.1774,
      "duration": 0.2646,
      "velocity": 107,
      "chip": "ym2612"
    },
    {
      "channel": 3,
      "note": 67,
      "start": 87.1776,
      "duration": 0.2644,
      "velocity": 107,
      "chip": "ym2612"
    },
    {
      "channel": 4,
      "note": 67,
      "start": 87.3017,
      "duration": 0.1403,
      "velocity": 107,
      "chip": "ym2612"
    },
    {
      "channel": 5,
      "note": 70,
      "start": 87.3019,
      "duration": 0.1401,
      "velocity": 107,
      "chip": "ym2612"
    },
    {
      "channel": 0,
      "note": 54,
      "start": 87.3326,
      "duration": 0.0309,
      "velocity": 114,
      "chip": "ym2612"
    }
  ]
}