{
  "track_name": "06 - Bannousen Suikan",
  "duration_sec": 33.824,
  "sample_rate": 44100,
  "note_count": 414,
  "unique_pitches": 20,
  "pitch_range": 47,
  "avg_note_duration": 0.2822,
  "reconstruction_stats": {
    "notes_reconstructed": 414,
    "keyon_events": 414,
    "keyoff_events": 409,
    "orphan_keyons": 2,
    "unique_pitches": 20,
    "pitch_range": 47,
    "avg_duration_sec": 0.2822
  },
  "metadata": {
    "source": "F\\Fushigi no Umi no Nadia\\06 - Bannousen Suikan.vgz"
  },
  "notes": [
    {
      "channel": 3,
      "note": -1,
      "start": 0.0,
      "duration": 0.0,
      "velocity": 1,
      "chip": "ym2612"
    },
    {
      "channel": 3,
      "note": -1,
      "start": 0.0,
      "duration": 3.9469,
      "velocity": 1,
      "chip": "ym2612"
    },
    {
      "channel": 4,
      "note": -1,
      "start": 0.0,
      "duration": 0.0,
      "velocity": 1,
      "chip": "ym2612"
    },
    {
      "channel": 4,
      "note": -1,
      "start": 0.0,
      "duration": 0.0002,
      "velocity": 105,
      "chip": "ym2612"
    },
    {
      "channel": 5,
      "note": -1,
      "start": 0.0,
      "duration": 0.0,
      "velocity": 1,
      "chip": "ym2612"
    },
    {
      "channel": 5,
      "note": -1,
      "start": 0.0,
      "duration": 0.0169,
      "velocity": 105,
      "chip": "ym2612"
    },
    {
      "channel": 4,
      "note": 42,
      "start": 0.0002,
      "duration": 0.0632,
      "velocity": 105,
      "chip": "ym2612"
    },
    {
      "channel": 5,
      "note": 54,
      "start": 0.017,
      "duration": 0.0631,
      "velocity": 105,
      "chip": "ym2612"
    },
    {
      "channel": 4,
      "note": 44,
      "start": 0.2306,
      "duration": 0.0661,
      "velocity": 105,
      "chip": "ym2612"
    },
    {
      "channel": 5,
      "note": 56,
      "start": 0.2473,
      "duration": 0.0661,
      "velocity": 105,
      "chip": "ym2612"
    },
    {
      "channel": 4,
      "note": 42,
      "start": 0.4639,
      "duration": 0.0661,
      "velocity": 105,
      "chip": "ym2612"
    },
    {
      "channel": 5,
      "note": 54,
      "start": 0.4807,
      "duration": 0.0661,
      "velocity": 105,
      "chip": "ym2612"
    },
    {
      "channel": 4,
      "note": 46,
      "start": 0.6973,
      "duration": 0.0661,
      "velocity": 105,
      "chip": "ym2612"
    },
    {
      "channel": 5,
      "note": 58,
      "start": 0.714,
      "duration": 0.0661,
      "velocity": 105,
      "chip": "ym2612"
    },
    {
      "channel": 4,
      "note": 42,
      "start": 0.9306,
      "duration": 0.066,
      "velocity": 105,
      "chip": "ym2612"
    },
    {
      "channel": 5,
      "note": 54,
      "start": 0.9473,
      "duration": 0.0661,
      "velocity": 105,
      "chip": "ym2612"
    },
    {
      "channel": 4,
      "note": 44,
      "start": 1.1639,
      "duration": 0.0661,
      "velocity": 105,
      "chip": "ym2612"
    },
    {
      "channel": 5,
      "note": 56,
      "start": 1.1807,
      "duration": 0.0661,
      "velocity": 105,
      "chip": "ym2612"
    },
    {
      "channel": 4,
      "note": 42,
      "start": 1.3973,
      "duration": 0.0661,
      "velocity": 105,
      "chip": "ym2612"
    },
    {
      "channel": 5,
      "note": 54,
      "start": 1.414,
      "duration": 0.0661,
      "velocity": 105,
      "chip": "ym2612"
    },
    {
      "channel": 4,
      "note": 46,
      "start": 1.6306,
      "duration": 0.066,
      "velocity": 105,
      "chip": "ym2612"
    },
    {
      "channel": 5,
      "note": 58,
      "start": 1.6473,
      "duration": 0.0661,
      "velocity": 105,
      "chip": "ym2612"
    },
    {
      "channel": 4,
      "note": 42,
      "start": 1.8669,
      "duration": 0.0632,
      "velocity": 105,
      "chip": "ym2612"
    },
    {
      "channel": 5,
      "note": 54,
      "start": 1.8837,
      "duration": 0.0631,
      "velocity": 105,
      "chip": "ym2612"
    },
    {
      "channel": 4,
      "note": 44,
      "start": 2.0973,
      "duration": 0.066,
      "velocity": 105,
      "chip": "ym2612"
    },
    {
      "channel": 5,
      "note": 56,
      "start": 2.114,
      "duration": 0.0661,
      "velocity": 105,
      "chip": "ym2612"
    },
    {
      "channel": 4,
      "note": 42,
      "start": 2.3306,
      "duration": 0.0661,
      "velocity": 105,
      "chip": "ym2612"
    },
    {
      "channel": 5,
      "note": 54,
      "start": 2.3473,
      "duration": 0.0661,
      "velocity": 105,
      "chip": "ym2612"
    },
    {
      "channel": 4,
      "note": 46,
      "start": 2.5639,
      "duration": 0.0661,
      "velocity": 105,
      "chip": "ym2612"
    },
    {
      "channel": 5,
      "note": 58,
      "start": 2.5807,
      "duration": 0.0661,
      "velocity": 105,
      "chip": "ym2612"
    },
    {
      "channel": 4,
      "note": 42,
      "start": 2.7973,
      "duration": 0.066,
      "velocity": 105,
      "chip": "ym2612"
    },
    {
      "channel": 5,
      "note": 54,
      "start": 2.814,
      "duration": 0.0661,
      "velocity": 105,
      "chip": "ym2612"
    },
    {
      "channel": 4,
      "note": 44,
      "start": 3.0306,
      "duration": 0.0661,
      "velocity": 105,
      "chip": "ym2612"
    },
    {
      "channel": 5,
      "note": 56,
      "start": 3.0473,
      "duration": 0.0661,
      "velocity": 105,
      "chip": "ym2612"
    },
    {
      "channel": 4,
      "note": 42,
      "start": 3.2639,
      "duration": 0.0661,
      "velocity": 105,
      "chip": "ym2612"
    },
    {
      "channel": 5,
      "note": 54,
      "start": 3.2807,
      "duration": 0.0661,
      "velocity": 105,
      "chip": "ym2612"
    },
    {
      "channel": 4,
      "note": 46,
      "start": 3.4973,
      "duration": 0.066,
      "velocity": 105,
      "chip": "ym2612"
    },
    {
      "channel": 5,
      "note": 58,
      "start": 3.514,
      "duration": 0.0661,
      "velocity": 105,
      "chip": "ym2612"
    },
    {
      "channel": 0,
      "note": 84,
      "start": 3.7171,
      "duration": 1.8635,
      "velocity": 99,
      "chip": "ym2612"
    },
    {
      "channel": 1,
      "note": 80,
      "start": 3.7206,
      "duration": 1.8605,
      "velocity": 99,
      "chip": "ym2612"
    },
    {
      "channel": 4,
      "note": 42,
      "start": 3.7337,
      "duration": 0.0632,
      "velocity": 105,
      "chip": "ym2612"
    },
    {
      "channel": 5,
      "note": 54,
      "start": 3.7505,
      "duration": 0.0631,
      "velocity": 105,
      "chip": "ym2612"
    },
    {
      "channel": 4,
      "note": 44,
      "start": 3.9641,
      "duration": 0.0661,
      "velocity": 105,
      "chip": "ym2612"
    },
    {
      "channel": 5,
      "note": 56,
      "start": 3.9809,
      "duration": 0.0661,
      "velocity": 105,
      "chip": "ym2612"
    },
    {
      "channel": 3,
      "note": 84,
      "start": 4.0169,
      "duration": 1.8637,
      "velocity": 99,
      "chip": "ym2612"
    },
    {
      "channel": 4,
      "note": 42,
      "start": 4.1974,
      "duration": 0.0661,
      "velocity": 105,
      "chip": "ym2612"
    },
    {
      "channel": 5,
      "note": 54,
      "start": 4.2141,
      "duration": 0.0661,
      "velocity": 105,
      "chip": "ym2612"
    },
    {
      "channel": 4,
      "note": 46,
      "start": 4.4307,
      "duration": 0.0661,
      "velocity": 105,
      "chip": "ym2612"
    },
    {
      "channel": 5,
      "note": 58,
      "start": 4.4475,
      "duration": 0.0661,
      "velocity": 105,
      "chip": "ym2612"
    },
    {
      "channel": 4,
      "note": 42,
      "start": 4.6641,
      "duration": 0.0661,
      "velocity": 105,
      "chip": "ym2612"
    },
    {
      "channel": 5,
      "note": 54,
      "start": 4.6809,
      "duration": 0.066,
      "velocity": 105,
      "chip": "ym2612"
    },
    {
      "channel": 4,
      "note": 44,
      "start": 4.8974,
      "duration": 0.0661,
      "velocity": 105,
      "chip": "ym2612"
    },
    {
      "channel": 5,
      "note": 56,
      "start": 4.9142,
      "duration": 0.0661,
      "velocity": 105,
      "chip": "ym2612"
    },
    {
      "channel": 4,
      "note": 42,
      "start": 5.1307,
      "duration": 0.0661,
      "velocity": 105,
      "chip": "ym2612"
    },
    {
      "channel": 5,
      "note": 54,
      "start": 5.1475,
      "duration": 0.066,
      "velocity": 105,
      "chip": "ym2612"
    },
    {
      "channel": 4,
      "note": 46,
      "start": 5.3641,
      "duration": 0.0661,
      "velocity": 105,
      "chip": "ym2612"
    },
    {
      "channel": 5,
      "note": 58,
      "start": 5.3809,
      "duration": 0.066,
      "velocity": 105,
      "chip": "ym2612"
    },
    {
      "channel": 0,
      "note": 82,
      "start": 5.5806,
      "duration": 1.3999,
      "velocity": 99,
      "chip": "ym2612"
    },
    {
      "channel": 1,
      "note": 80,
      "start": 5.5812,
      "duration": 1.3999,
      "velocity": 99,
      "chip": "ym2612"
    },
    {
      "channel": 2,
      "note": 78,
      "start": 5.5847,
      "duration": 1.3966,
      "velocity": 99,
      "chip": "ym2612"
    },
    {
      "channel": 4,
      "note": 42,
      "start": 5.5975,
      "duration": 0.0661,
      "velocity": 105,
      "chip": "ym2612"
    },
    {
      "channel": 5,
      "note": 54,
      "start": 5.6142,
      "duration": 0.0662,
      "velocity": 105,
      "chip": "ym2612"
    },
    {
      "channel": 4,
      "note": 44,
      "start": 5.8308,
      "duration": 0.0661,
      "velocity": 105,
      "chip": "ym2612"
    },
    {
      "channel": 5,
      "note": 56,
      "start": 5.8475,
      "duration": 0.0661,
      "velocity": 105,
      "chip": "ym2612"
    },
    {
      "channel": 3,
      "note": 82,
      "start": 5.8806,
      "duration": 1.1833,
      "velocity": 99,
      "chip": "ym2612"
    },
    {
      "channel": 4,
      "note": 42,
      "start": 6.0641,
      "duration": 0.0661,
      "velocity": 105,
      "chip": "ym2612"
    },
    {
      "channel": 5,
      "note": 54,
      "start": 6.0809,
      "duration": 0.0661,
      "velocity": 105,
      "chip": "ym2612"
    },
    {
      "channel": 4,
      "note": 46,
      "start": 6.2975,
      "duration": 0.0661,
      "velocity": 105,
      "chip": "ym2612"
    },
    {
      "channel": 5,
      "note": 58,
      "start": 6.3143,
      "duration": 0.066,
      "velocity": 105,
      "chip": "ym2612"
    },
    {
      "channel": 4,
      "note": 42,
      "start": 6.5308,
      "duration": 0.0661,
      "velocity": 105,
      "chip": "ym2612"
    },
    {
      "channel": 5,
      "note": 54,
      "start": 6.5476,
      "duration": 0.066,
      "velocity": 105,
      "chip": "ym2612"
    },
    {
      "channel": 4,
      "note": 44,
      "start": 6.7641,
      "duration": 0.0661,
      "velocity": 105,
      "chip": "ym2612"
    },
    {
      "channel": 5,
      "note": 56,
      "start": 6.7809,
      "duration": 0.0661,
      "velocity": 105,
      "chip": "ym2612"
    },
    {
      "channel": 0,
      "note": 84,
      "start": 6.9805,
      "duration": 0.0661,
      "velocity": 99,
      "chip": "ym2612"
    },
    {
      "channel": 1,
      "note": 80,
      "start": 6.9811,
      "duration": 0.0658,
      "velocity": 99,
      "chip": "ym2612"
    },
    {
      "channel": 4,
      "note": 42,
      "start": 6.9975,
      "duration": 0.0666,
      "velocity": 105,
      "chip": "ym2612"
    },
    {
      "channel": 5,
      "note": 54,
      "start": 7.0143,
      "duration": 0.0661,
      "velocity": 105,
      "chip": "ym2612"
    },
    {
      "channel": 3,
      "note": 84,
      "start": 7.0639,
      "duration": 0.15,
      "velocity": 99,
      "chip": "ym2612"
    },
    {
      "channel": 0,
      "note": 82,
      "start": 7.1305,
      "duration": 0.0662,
      "velocity": 99,
      "chip": "ym2612"
    },
    {
      "channel": 1,
      "note": 80,
      "start": 7.1311,
      "duration": 0.0658,
      "velocity": 99,
      "chip": "ym2612"
    },
    {
      "channel": 2,
      "note": 78,
      "start": 7.1316,
      "duration": 0.0655,
      "velocity": 99,
      "chip": "ym2612"
    },
    {
      "channel": 3,
      "note": 82,
      "start": 7.214,
      "duration": 0.1499,
      "velocity": 99,
      "chip": "ym2612"
    },
    {
      "channel": 4,
      "note": 46,
      "start": 7.2309,
      "duration": 0.0661,
      "velocity": 105,
      "chip": "ym2612"
    },
    {
      "channel": 5,
      "note": 58,
      "start": 7.2476,
      "duration": 0.0661,
      "velocity": 105,
      "chip": "ym2612"
    },
    {
      "channel": 0,
      "note": 84,
      "start": 7.2805,
      "duration": 0.0661,
      "velocity": 99,
      "chip": "ym2612"
    },
    {
      "channel": 1,
      "note": 80,
      "start": 7.281,
      "duration": 0.0658,
      "velocity": 99,
      "chip": "ym2612"
    },
    {
      "channel": 3,
      "note": 84,
      "start": 7.364,
      "duration": 0.3832,
      "velocity": 99,
      "chip": "ym2612"
    },
    {
      "channel": 0,
      "note": 85,
      "start": 7.4474,
      "duration": 0.0992,
      "velocity": 99,
      "chip": "ym2612"
    },
    {
      "channel": 1,
      "note": 80,
      "start": 7.448,
      "duration": 0.0988,
      "velocity": 99,
      "chip": "ym2612"
    },
    {
      "channel": 2,
      "note": 82,
      "start": 7.4485,
      "duration": 0.0985,
      "velocity": 99,
      "chip": "ym2612"
    },
    {
      "channel": 4,
      "note": 42,
      "start": 7.4641,
      "duration": 0.0661,
      "velocity": 105,
      "chip": "ym2612"
    },
    {
      "channel": 5,
      "note": 54,
      "start": 7.4809,
      "duration": 0.0664,
      "velocity": 105,
      "chip": "ym2612"
    },
    {
      "channel": 4,
      "note": 44,
      "start": 7.6975,
      "duration": 0.0661,
      "velocity": 105,
      "chip": "ym2612"
    },
    {
      "channel": 5,
      "note": 56,
      "start": 7.7143,
      "duration": 0.0661,
      "velocity": 105,
      "chip": "ym2612"
    },
    {
      "channel": 3,
      "note": 85,
      "start": 7.7473,
      "duration": 0.0995,
      "velocity": 99,
      "chip": "ym2612"
    },
    {
      "channel": 4,
      "note": 42,
      "start": 7.9308,
      "duration": 0.0661,
      "velocity": 105,
      "chip": "ym2612"
    },
    {
      "channel": 5,
      "note": 54,
      "start": 7.9475,
      "duration": 0.0661,
      "velocity": 105,
      "chip": "ym2612"
    },
    {
      "channel": 0,
      "note": 89,
      "start": 8.1473,
      "duration": 0.2333,
      "velocity": 99,
      "chip": "ym2612"
    },
    {
      "channel": 1,
      "note": 80,
      "start": 8.1478,
      "duration": 0.2333,
      "velocity": 99,
      "chip": "ym2612"
    },
    {
      "channel": 2,
      "note": 82,
      "start": 8.1484,
      "duration": 0.2333,
      "velocity": 99,
      "chip": "ym2612"
    },
    {
      "channel": 4,
      "note": 46,
      "start": 8.1641,
      "duration": 0.0661,
      "velocity": 105,
      "chip": "ym2612"
    },
    {
      "channel": 5,
      "note": 58,
      "start": 8.1809,
      "duration": 0.0662,
      "velocity": 105,
      "chip": "ym2612"
    },
    {
      "channel": 0,
      "note": 87,
      "start": 8.3806,
      "duration": 2.5661,
      "velocity": 99,
      "chip": "ym2612"
    },
    {
      "channel": 1,
      "note": 80,
      "start": 8.3812,
      "duration": 2.5657,
      "velocity": 99,
      "chip": "ym2612"
    },
    {
      "channel": 2,
      "note": 82,
      "start": 8.3818,
      "duration": 2.5653,
      "velocity": 99,
      "chip": "ym2612"
    },
    {
      "channel": 4,
      "note": 42,
      "start": 8.3975,
      "duration": 0.0661,
      "velocity": 105,
      "chip": "ym2612"
    },
    {
      "channel": 5,
      "note": 54,
      "start": 8.4142,
      "duration": 0.0661,
      "velocity": 105,
      "chip": "ym2612"
    },
    {
      "channel": 3,
      "note": 89,
      "start": 8.4473,
      "duration": 0.0995,
      "velocity": 99,
      "chip": "ym2612"
    },
    {
      "channel": 4,
      "note": 44,
      "start": 8.6308,
      "duration": 0.0661,
      "velocity": 105,
      "chip": "ym2612"
    },
    {
      "channel": 5,
      "note": 56,
      "start": 8.6476,
      "duration": 0.0661,
      "velocity": 105,
      "chip": "ym2612"
    },
    {
      "channel": 3,
      "note": 87,
      "start": 8.6806,
      "duration": 0.0995,
      "velocity": 99,
      "chip": "ym2612"
    },
    {
      "channel": 4,
      "note": 42,
      "start": 8.8641,
      "duration": 0.0661,
      "velocity": 105,
      "chip": "ym2612"
    },
    {
      "channel": 5,
      "note": 54,
      "start": 8.8809,
      "duration": 0.0662,
      "velocity": 105,
      "chip": "ym2612"
    },
    {
      "channel": 4,
      "note": 46,
      "start": 9.0975,
      "duration": 0.0661,
      "velocity": 105,
      "chip": "ym2612"
    },
    {
      "channel": 5,
      "note": 58,
      "start": 9.1143,
      "duration": 0.066,
      "velocity": 105,
      "chip": "ym2612"
    },
    {
      "channel": 4,
      "note": 42,
      "start": 9.3308,
      "duration": 0.0661,
      "velocity": 105,
      "chip": "ym2612"
    },
    {
      "channel": 5,
      "note": 54,
      "start": 9.3476,
      "duration": 0.066,
      "velocity": 105,
      "chip": "ym2612"
    },
    {
      "channel": 4,
      "note": 44,
      "start": 9.5641,
      "duration": 0.0661,
      "velocity": 105,
      "chip": "ym2612"
    },
    {
      "channel": 5,
      "note": 56,
      "start": 9.5809,
      "duration": 0.066,
      "velocity": 105,
      "chip": "ym2612"
    },
    {
      "channel": 4,
      "note": 42,
      "start": 9.7975,
      "duration": 0.0661,
      "velocity": 105,
      "chip": "ym2612"
    },
    {
      "channel": 5,
      "note": 54,
      "start": 9.8143,
      "duration": 0.066,
      "velocity": 105,
      "chip": "ym2612"
    },
    {
      "channel": 4,
      "note": 46,
      "start": 10.0308,
      "duration": 0.0661,
      "velocity": 105,
      "chip": "ym2612"
    },
    {
      "channel": 5,
      "note": 58,
      "start": 10.0476,
      "duration": 0.066,
      "velocity": 105,
      "chip": "ym2612"
    },
    {
      "channel": 4,
      "note": 42,
      "start": 10.2641,
      "duration": 0.0661,
      "velocity": 105,
      "chip": "ym2612"
    },
    {
      "channel": 5,
      "note": 54,
      "start": 10.2809,
      "duration": 0.066,
      "velocity": 105,
      "chip": "ym2612"
    },
    {
      "channel": 4,
      "note": 44,
      "start": 10.4975,
      "duration": 0.0661,
      "velocity": 105,
      "chip": "ym2612"
    },
    {
      "channel": 5,
      "note": 56,
      "start": 10.5143,
      "duration": 0.066,
      "velocity": 105,
      "chip": "ym2612"
    },
    {
      "channel": 4,
      "note": 42,
      "start": 10.7308,
      "duration": 0.0661,
      "velocity": 105,
      "chip": "ym2612"
    },
    {
      "channel": 5,
      "note": 54,
      "start": 10.7476,
      "duration": 0.066,
      "velocity": 105,
      "chip": "ym2612"
    },
    {
      "channel": 4,
      "note": 46,
      "start": 10.9641,
      "duration": 0.0661,
      "velocity": 105,
      "chip": "ym2612"
    },
    {
      "channel": 5,
      "note": 58,
      "start": 10.9809,
      "duration": 0.0661,
      "velocity": 105,
      "chip": "ym2612"
    },
    {
      "channel": 0,
      "note": 84,
      "start": 11.1809,
      "duration": 1.8663,
      "velocity": 99,
      "chip": "ym2612"
    },
    {
      "channel": 1,
      "note": 80,
      "start": 11.1844,
      "duration": 1.8634,
      "velocity": 99,
      "chip": "ym2612"
    },
    {
      "channel": 4,
      "note": 42,
      "start": 11.2005,
      "duration": 0.0631,
      "velocity": 105,
      "chip": "ym2612"
    },
    {
      "channel": 5,
      "note": 54,
      "start": 11.2172,
      "duration": 0.0631,
      "velocity": 105,
      "chip": "ym2612"
    },
    {
      "channel": 4,
      "note": 44,
      "start": 11.4308,
      "duration": 0.0661,
      "velocity": 105,
      "chip": "ym2612"
    },
    {
      "channel": 5,
      "note": 56,
      "start": 11.4476,
      "duration": 0.0661,
      "velocity": 105,
      "chip": "ym2612"
    },
    {
      "channel": 3,
      "note": 84,
      "start": 11.4806,
      "duration": 1.8667,
      "velocity": 99,
      "chip": "ym2612"
    },
    {
      "channel": 4,
      "note": 42,
      "start": 11.6641,
      "duration": 0.0661,
      "velocity": 105,
      "chip": "ym2612"
    },
    {
      "channel": 5,
      "note": 54,
      "start": 11.6809,
      "duration": 0.0662,
      "velocity": 105,
      "chip": "ym2612"
    },
    {
      "channel": 4,
      "note": 46,
      "start": 11.8975,
      "duration": 0.0661,
      "velocity": 105,
      "chip": "ym2612"
    },
    {
      "channel": 5,
      "note": 58,
      "start": 11.9142,
      "duration": 0.0662,
      "velocity": 105,
      "chip": "ym2612"
    },
    {
      "channel": 4,
      "note": 42,
      "start": 12.1308,
      "duration": 0.0661,
      "velocity": 105,
      "chip": "ym2612"
    },
    {
      "channel": 5,
      "note": 54,
      "start": 12.1475,
      "duration": 0.0662,
      "velocity": 105,
      "chip": "ym2612"
    },
    {
      "channel": 4,
      "note": 44,
      "start": 12.3641,
      "duration": 0.0661,
      "velocity": 105,
      "chip": "ym2612"
    },
    {
      "channel": 5,
      "note": 56,
      "start": 12.3809,
      "duration": 0.0662,
      "velocity": 105,
      "chip": "ym2612"
    },
    {
      "channel": 4,
      "note": 42,
      "start": 12.5975,
      "duration": 0.0661,
      "velocity": 105,
      "chip": "ym2612"
    },
    {
      "channel": 5,
      "note": 54,
      "start": 12.6142,
      "duration": 0.0662,
      "velocity": 105,
      "chip": "ym2612"
    },
    {
      "channel": 4,
      "note": 46,
      "start": 12.8308,
      "duration": 0.0661,
      "velocity": 105,
      "chip": "ym2612"
    },
    {
      "channel": 5,
      "note": 58,
      "start": 12.8475,
      "duration": 0.0662,
      "velocity": 105,
      "chip": "ym2612"
    },
    {
      "channel": 0,
      "note": 82,
      "start": 13.0473,
      "duration": 1.3999,
      "velocity": 99,
      "chip": "ym2612"
    },
    {
      "channel": 1,
      "note": 80,
      "start": 13.0478,
      "duration": 1.3999,
      "velocity": 99,
      "chip": "ym2612"
    },
    {
      "channel": 2,
      "note": 78,
      "start": 13.0484,
      "duration": 1.3995,
      "velocity": 99,
      "chip": "ym2612"
    },
    {
      "channel": 4,
      "note": 42,
      "start": 13.0641,
      "duration": 0.0661,
      "velocity": 105,
      "chip": "ym2612"
    },
    {
      "channel": 5,
      "note": 54,
      "start": 13.0809,
      "duration": 0.0662,
      "velocity": 105,
      "chip": "ym2612"
    },
    {
      "channel": 4,
      "note": 44,
      "start": 13.2975,
      "duration": 0.0661,
      "velocity": 105,
      "chip": "ym2612"
    },
    {
      "channel": 5,
      "note": 56,
      "start": 13.3142,
      "duration": 0.0661,
      "velocity": 105,
      "chip": "ym2612"
    },
    {
      "channel": 3,
      "note": 82,
      "start": 13.3473,
      "duration": 1.1833,
      "velocity": 99,
      "chip": "ym2612"
    },
    {
      "channel": 4,
      "note": 42,
      "start": 13.5308,
      "duration": 0.0661,
      "velocity": 105,
      "chip": "ym2612"
    },
    {
      "channel": 5,
      "note": 54,
      "start": 13.5476,
      "duration": 0.0661,
      "velocity": 105,
      "chip": "ym2612"
    },
    {
      "channel": 4,
      "note": 46,
      "start": 13.7641,
      "duration": 0.0661,
      "velocity": 105,
      "chip": "ym2612"
    },
    {
      "channel": 5,
      "note": 58,
      "start": 13.7809,
      "duration": 0.066,
      "velocity": 105,
      "chip": "ym2612"
    },
    {
      "channel": 4,
      "note": 42,
      "start": 13.9975,
      "duration": 0.0661,
      "velocity": 105,
      "chip": "ym2612"
    },
    {
      "channel": 5,
      "note": 54,
      "start": 14.0143,
      "duration": 0.066,
      "velocity": 105,
      "chip": "ym2612"
    },
    {
      "channel": 4,
      "note": 44,
      "start": 14.2308,
      "duration": 0.0661,
      "velocity": 105,
      "chip": "ym2612"
    },
    {
      "channel": 5,
      "note": 56,
      "start": 14.2476,
      "duration": 0.0661,
      "velocity": 105,
      "chip": "ym2612"
    },
    {
      "channel": 0,
      "note": 84,
      "start": 14.4472,
      "duration": 0.0661,
      "velocity": 99,
      "chip": "ym2612"
    },
    {
      "channel": 1,
      "note": 80,
      "start": 14.4477,
      "duration": 0.0658,
      "velocity": 99,
      "chip": "ym2612"
    },
    {
      "channel": 4,
      "note": 42,
      "start": 14.4642,
      "duration": 0.0666,
      "velocity": 105,
      "chip": "ym2612"
    },
    {
      "channel": 5,
      "note": 54,
      "start": 14.4809,
      "duration": 0.0661,
      "velocity": 105,
      "chip": "ym2612"
    },
    {
      "channel": 3,
      "note": 84,
      "start": 14.5306,
      "duration": 0.15,
      "velocity": 99,
      "chip": "ym2612"
    },
    {
      "channel": 0,
      "note": 82,
      "start": 14.5972,
      "duration": 0.0662,
      "velocity": 99,
      "chip": "ym2612"
    },
    {
      "channel": 1,
      "note": 80,
      "start": 14.5978,
      "duration": 0.0658,
      "velocity": 99,
      "chip": "ym2612"
    },
    {
      "channel": 2,
      "note": 78,
      "start": 14.5983,
      "duration": 0.0655,
      "velocity": 99,
      "chip": "ym2612"
    },
    {
      "channel": 3,
      "note": 82,
      "start": 14.6807,
      "duration": 0.1499,
      "velocity": 99,
      "chip": "ym2612"
    },
    {
      "channel": 4,
      "note": 46,
      "start": 14.6975,
      "duration": 0.0661,
      "velocity": 105,
      "chip": "ym2612"
    },
    {
      "channel": 5,
      "note": 58,
      "start": 14.7143,
      "duration": 0.0661,
      "velocity": 105,
      "chip": "ym2612"
    },
    {
      "channel": 0,
      "note": 84,
      "start": 14.7472,
      "duration": 0.0661,
      "velocity": 99,
      "chip": "ym2612"
    },
    {
      "channel": 1,
      "note": 80,
      "start": 14.7477,
      "duration": 0.0658,
      "velocity": 99,
      "chip": "ym2612"
    },
    {
      "channel": 3,
      "note": 84,
      "start": 14.8307,
      "duration": 0.3832,
      "velocity": 99,
      "chip": "ym2612"
    },
    {
      "channel": 0,
      "note": 85,
      "start": 14.9141,
      "duration": 0.4663,
      "velocity": 99,
      "chip": "ym2612"
    },
    {
      "channel": 1,
      "note": 80,
      "start": 14.9146,
      "duration": 1.0987,
      "velocity": 99,
      "chip": "ym2612"
    },
    {
      "channel": 2,
      "note": 82,
      "start": 14.9151,
      "duration": 1.0983,
      "velocity": 99,
      "chip": "ym2612"
    },
    {
      "channel": 4,
      "note": 42,
      "start": 14.9308,
      "duration": 0.0661,
      "velocity": 105,
      "chip": "ym2612"
    },
    {
      "channel": 5,
      "note": 54,
      "start": 14.9476,
      "duration": 0.0661,
      "velocity": 105,
      "chip": "ym2612"
    },
    {
      "channel": 4,
      "note": 44,
      "start": 15.1641,
      "duration": 0.0661,
      "velocity": 105,
      "chip": "ym2612"
    },
    {
      "channel": 5,
      "note": 56,
      "start": 15.1809,
      "duration": 0.0661,
      "velocity": 105,
      "chip": "ym2612"
    },
    {
      "channel": 3,
      "note": 85,
      "start": 15.2139,
      "duration": 0.1669,
      "velocity": 99,
      "chip": "ym2612"
    },
    {
      "channel": 0,
      "note": 84,
      "start": 15.3805,
      "duration": 0.2333,
      "velocity": 99,
      "chip": "ym2612"
    },
    {
      "channel": 4,
      "note": 42,
      "start": 15.3975,
      "duration": 0.066,
      "velocity": 105,
      "chip": "ym2612"
    },
    {
      "channel": 5,
      "note": 54,
      "start": 15.4143,
      "duration": 0.0661,
      "velocity": 105,
      "chip": "ym2612"
    },
    {
      "channel": 0,
      "note": 85,
      "start": 15.6138,
      "duration": 0.2329,
      "velocity": 99,
      "chip": "ym2612"
    },
    {
      "channel": 4,
      "note": 46,
      "start": 15.6309,
      "duration": 0.0661,
      "velocity": 105,
      "chip": "ym2612"
    },
    {
      "channel": 5,
      "note": 58,
      "start": 15.6476,
      "duration": 0.0661,
      "velocity": 105,
      "chip": "ym2612"
    },
    {
      "channel": 3,
      "note": 84,
      "start": 15.6806,
      "duration": 0.2333,
      "velocity": 99,
      "chip": "ym2612"
    },
    {
      "channel": 4,
      "note": 42,
      "start": 15.8641,
      "duration": 0.0661,
      "velocity": 105,
      "chip": "ym2612"
    },
    {
      "channel": 5,
      "note": 54,
      "start": 15.8809,
      "duration": 0.0661,
      "velocity": 105,
      "chip": "ym2612"
    },
    {
      "channel": 3,
      "note": 85,
      "start": 15.9139,
      "duration": 0.168,
      "velocity": 99,
      "chip": "ym2612"
    },
    {
      "channel": 0,
      "note": 87,
      "start": 16.0807,
      "duration": 2.3327,
      "velocity": 99,
      "chip": "ym2612"
    },
    {
      "channel": 1,
      "note": 80,
      "start": 16.0812,
      "duration": 2.3323,
      "velocity": 99,
      "chip": "ym2612"
    },
    {
      "channel": 2,
      "note": 82,
      "start": 16.0818,
      "duration": 2.332,
      "velocity": 99,
      "chip": "ym2612"
    },
    {
      "channel": 4,
      "note": 44,
      "start": 16.0975,
      "duration": 0.0661,
      "velocity": 105,
      "chip": "ym2612"
    },
    {
      "channel": 5,
      "note": 56,
      "start": 16.1142,
      "duration": 0.0662,
      "velocity": 105,
      "chip": "ym2612"
    },
    {
      "channel": 4,
      "note": 42,
      "start": 16.3308,
      "duration": 0.0661,
      "velocity": 105,
      "chip": "ym2612"
    },
    {
      "channel": 5,
      "note": 54,
      "start": 16.3475,
      "duration": 0.0661,
      "velocity": 105,
      "chip": "ym2612"
    },
    {
      "channel": 3,
      "note": 87,
      "start": 16.3806,
      "duration": 2.2708,
      "velocity": 99,
      "chip": "ym2612"
    },
    {
      "channel": 4,
      "note": 46,
      "start": 16.5641,
      "duration": 0.0661,
      "velocity": 105,
      "chip": "ym2612"
    },
    {
      "channel": 5,
      "note": 58,
      "start": 16.5809,
      "duration": 0.066,
      "velocity": 105,
      "chip": "ym2612"
    },
    {
      "channel": 4,
      "note": 42,
      "start": 16.7975,
      "duration": 0.0661,
      "velocity": 105,
      "chip": "ym2612"
    },
    {
      "channel": 5,
      "note": 54,
      "start": 16.8143,
      "duration": 0.066,
      "velocity": 105,
      "chip": "ym2612"
    },
    {
      "channel": 4,
      "note": 44,
      "start": 17.0308,
      "duration": 0.0661,
      "velocity": 105,
      "chip": "ym2612"
    },
    {
      "channel": 5,
      "note": 56,
      "start": 17.0476,
      "duration": 0.0661,
      "velocity": 105,
      "chip": "ym2612"
    },
    {
      "channel": 4,
      "note": 42,
      "start": 17.2641,
      "duration": 0.0661,
      "velocity": 105,
      "chip": "ym2612"
    },
    {
      "channel": 5,
      "note": 54,
      "start": 17.2809,
      "duration": 0.066,
      "velocity": 105,
      "chip": "ym2612"
    },
    {
      "channel": 4,
      "note": 46,
      "start": 17.4975,
      "duration": 0.0661,
      "velocity": 105,
      "chip": "ym2612"
    },
    {
      "channel": 5,
      "note": 58,
      "start": 17.5143,
      "duration": 0.066,
      "velocity": 105,
      "chip": "ym2612"
    },
    {
      "channel": 4,
      "note": 42,
      "start": 17.7308,
      "duration": 0.0661,
      "velocity": 105,
      "chip": "ym2612"
    },
    {
      "channel": 5,
      "note": 54,
      "start": 17.7476,
      "duration": 0.066,
      "velocity": 105,
      "chip": "ym2612"
    },
    {
      "channel": 4,
      "note": 44,
      "start": 17.9641,
      "duration": 0.0661,
      "velocity": 105,
      "chip": "ym2612"
    },
    {
      "channel": 5,
      "note": 56,
      "start": 17.9809,
      "duration": 0.0661,
      "velocity": 105,
      "chip": "ym2612"
    },
    {
      "channel": 4,
      "note": 42,
      "start": 18.1975,
      "duration": 0.0661,
      "velocity": 105,
      "chip": "ym2612"
    },
    {
      "channel": 5,
      "note": 54,
      "start": 18.2143,
      "duration": 0.066,
      "velocity": 105,
      "chip": "ym2612"
    },
    {
      "channel": 4,
      "note": 46,
      "start": 18.4308,
      "duration": 0.0661,
      "velocity": 105,
      "chip": "ym2612"
    },
    {
      "channel": 5,
      "note": 58,
      "start": 18.4476,
      "duration": 0.066,
      "velocity": 105,
      "chip": "ym2612"
    },
    {
      "channel": 0,
      "note": 72,
      "start": 18.6477,
      "duration": 1.8663,
      "velocity": 99,
      "chip": "ym2612"
    },
    {
      "channel": 1,
      "note": 68,
      "start": 18.6512,
      "duration": 1.8633,
      "velocity": 99,
      "chip": "ym2612"
    },
    {
      "channel": 4,
      "note": 42,
      "start": 18.6671,
      "duration": 0.0631,
      "velocity": 105,
      "chip": "ym2612"
    },
    {
      "channel": 5,
      "note": 54,
      "start": 18.6839,
      "duration": 0.0631,
      "velocity": 105,
      "chip": "ym2612"
    },
    {
      "channel": 4,
      "note": 44,
      "start": 18.8975,
      "duration": 0.0661,
      "velocity": 105,
      "chip": "ym2612"
    },
    {
      "channel": 5,
      "note": 56,
      "start": 18.9143,
      "duration": 0.0661,
      "velocity": 105,
      "chip": "ym2612"
    },
    {
      "channel": 3,
      "note": 72,
      "start": 18.9473,
      "duration": 1.8666,
      "velocity": 99,
      "chip": "ym2612"
    },
    {
      "channel": 4,
      "note": 42,
      "start": 19.1308,
      "duration": 0.0661,
      "velocity": 105,
      "chip": "ym2612"
    },
    {
      "channel": 5,
      "note": 54,
      "start": 19.1475,
      "duration": 0.0662,
      "velocity": 105,
      "chip": "ym2612"
    },
    {
      "channel": 4,
      "note": 46,
      "start": 19.3641,
      "duration": 0.0661,
      "velocity": 105,
      "chip": "ym2612"
    },
    {
      "channel": 5,
      "note": 58,
      "start": 19.3809,
      "duration": 0.066,
      "velocity": 105,
      "chip": "ym2612"
    },
    {
      "channel": 4,
      "note": 42,
      "start": 19.5975,
      "duration": 0.0661,
      "velocity": 105,
      "chip": "ym2612"
    },
    {
      "channel": 5,
      "note": 54,
      "start": 19.6143,
      "duration": 0.066,
      "velocity": 105,
      "chip": "ym2612"
    },
    {
      "channel": 4,
      "note": 44,
      "start": 19.8308,
      "duration": 0.0661,
      "velocity": 105,
      "chip": "ym2612"
    },
    {
      "channel": 5,
      "note": 56,
      "start": 19.8476,
      "duration": 0.066,
      "velocity": 105,
      "chip": "ym2612"
    },
    {
      "channel": 4,
      "note": 42,
      "start": 20.0641,
      "duration": 0.0661,
      "velocity": 105,
      "chip": "ym2612"
    },
    {
      "channel": 5,
      "note": 54,
      "start": 20.0809,
      "duration": 0.066,
      "velocity": 105,
      "chip": "ym2612"
    },
    {
      "channel": 4,
      "note": 46,
      "start": 20.2975,
      "duration": 0.0661,
      "velocity": 105,
      "chip": "ym2612"
    },
    {
      "channel": 5,
      "note": 58,
      "start": 20.3143,
      "duration": 0.0661,
      "velocity": 105,
      "chip": "ym2612"
    },
    {
      "channel": 0,
      "note": 70,
      "start": 20.5139,
      "duration": 1.3999,
      "velocity": 99,
      "chip": "ym2612"
    },
    {
      "channel": 1,
      "note": 68,
      "start": 20.5145,
      "duration": 1.3999,
      "velocity": 99,
      "chip": "ym2612"
    },
    {
      "channel": 2,
      "note": 66,
      "start": 20.515,
      "duration": 1.3996,
      "velocity": 99,
      "chip": "ym2612"
    },
    {
      "channel": 4,
      "note": 42,
      "start": 20.5308,
      "duration": 0.0661,
      "velocity": 105,
      "chip": "ym2612"
    },
    {
      "channel": 5,
      "note": 54,
      "start": 20.5476,
      "duration": 0.0661,
      "velocity": 105,
      "chip": "ym2612"
    },
    {
      "channel": 4,
      "note": 44,
      "start": 20.7641,
      "duration": 0.0661,
      "velocity": 105,
      "chip": "ym2612"
    },
    {
      "channel": 5,
      "note": 56,
      "start": 20.7809,
      "duration": 0.0661,
      "velocity": 105,
      "chip": "ym2612"
    },
    {
      "channel": 3,
      "note": 70,
      "start": 20.8139,
      "duration": 1.1833,
      "velocity": 99,
      "chip": "ym2612"
    },
    {
      "channel": 4,
      "note": 42,
      "start": 20.9975,
      "duration": 0.0661,
      "velocity": 105,
      "chip": "ym2612"
    },
    {
      "channel": 5,
      "note": 54,
      "start": 21.0142,
      "duration": 0.0662,
      "velocity": 105,
      "chip": "ym2612"
    },
    {
      "channel": 4,
      "note": 46,
      "start": 21.2308,
      "duration": 0.0661,
      "velocity": 105,
      "chip": "ym2612"
    },
    {
      "channel": 5,
      "note": 58,
      "start": 21.2475,
      "duration": 0.0662,
      "velocity": 105,
      "chip": "ym2612"
    },
    {
      "channel": 4,
      "note": 42,
      "start": 21.4641,
      "duration": 0.0661,
      "velocity": 105,
      "chip": "ym2612"
    },
    {
      "channel": 5,
      "note": 54,
      "start": 21.4809,
      "duration": 0.0662,
      "velocity": 105,
      "chip": "ym2612"
    },
    {
      "channel": 4,
      "note": 44,
      "start": 21.6975,
      "duration": 0.0661,
      "velocity": 105,
      "chip": "ym2612"
    },
    {
      "channel": 5,
      "note": 56,
      "start": 21.7142,
      "duration": 0.0662,
      "velocity": 105,
      "chip": "ym2612"
    },
    {
      "channel": 0,
      "note": 72,
      "start": 21.9139,
      "duration": 0.0661,
      "velocity": 99,
      "chip": "ym2612"
    },
    {
      "channel": 1,
      "note": 68,
      "start": 21.9145,
      "duration": 0.0657,
      "velocity": 99,
      "chip": "ym2612"
    },
    {
      "channel": 4,
      "note": 42,
      "start": 21.9309,
      "duration": 0.0667,
      "velocity": 105,
      "chip": "ym2612"
    },
    {
      "channel": 5,
      "note": 54,
      "start": 21.9476,
      "duration": 0.0661,
      "velocity": 105,
      "chip": "ym2612"
    },
    {
      "channel": 3,
      "note": 72,
      "start": 21.9973,
      "duration": 0.15,
      "velocity": 99,
      "chip": "ym2612"
    },
    {
      "channel": 0,
      "note": 70,
      "start": 22.0639,
      "duration": 0.0661,
      "velocity": 99,
      "chip": "ym2612"
    },
    {
      "channel": 1,
      "note": 68,
      "start": 22.0645,
      "duration": 0.0657,
      "velocity": 99,
      "chip": "ym2612"
    },
    {
      "channel": 2,
      "note": 66,
      "start": 22.065,
      "duration": 0.0653,
      "velocity": 99,
      "chip": "ym2612"
    },
    {
      "channel": 3,
      "note": 70,
      "start": 22.1473,
      "duration": 0.1499,
      "velocity": 99,
      "chip": "ym2612"
    },
    {
      "channel": 4,
      "note": 46,
      "start": 22.1641,
      "duration": 0.0662,
      "velocity": 105,
      "chip": "ym2612"
    },
    {
      "channel": 5,
      "note": 58,
      "start": 22.1809,
      "duration": 0.0662,
      "velocity": 105,
      "chip": "ym2612"
    },
    {
      "channel": 0,
      "note": 72,
      "start": 22.2138,
      "duration": 0.0662,
      "velocity": 99,
      "chip": "ym2612"
    },
    {
      "channel": 1,
      "note": 68,
      "start": 22.2143,
      "duration": 0.0658,
      "velocity": 99,
      "chip": "ym2612"
    },
    {
      "channel": 3,
      "note": 72,
      "start": 22.2973,
      "duration": 0.3833,
      "velocity": 99,
      "chip": "ym2612"
    },
    {
      "channel": 0,
      "note": 73,
      "start": 22.3807,
      "duration": 0.0992,
      "velocity": 99,
      "chip": "ym2612"
    },
    {
      "channel": 1,
      "note": 68,
      "start": 22.3813,
      "duration": 0.0988,
      "velocity": 99,
      "chip": "ym2612"
    },
    {
      "channel": 2,
      "note": 70,
      "start": 22.3819,
      "duration": 0.0984,
      "velocity": 99,
      "chip": "ym2612"
    },
    {
      "channel": 4,
      "note": 42,
      "start": 22.3975,
      "duration": 0.0661,
      "velocity": 105,
      "chip": "ym2612"
    },
    {
      "channel": 5,
      "note": 54,
      "start": 22.4142,
      "duration": 0.0665,
      "velocity": 105,
      "chip": "ym2612"
    },
    {
      "channel": 4,
      "note": 44,
      "start": 22.6308,
      "duration": 0.0661,
      "velocity": 105,
      "chip": "ym2612"
    },
    {
      "channel": 5,
      "note": 56,
      "start": 22.6475,
      "duration": 0.0661,
      "velocity": 105,
      "chip": "ym2612"
    },
    {
      "channel": 3,
      "note": 73,
      "start": 22.6805,
      "duration": 0.0996,
      "velocity": 99,
      "chip": "ym2612"
    },
    {
      "channel": 4,
      "note": 42,
      "start": 22.8641,
      "duration": 0.0661,
      "velocity": 105,
      "chip": "ym2612"
    },
    {
      "channel": 5,
      "note": 54,
      "start": 22.8809,
      "duration": 0.066,
      "velocity": 105,
      "chip": "ym2612"
    },
    {
      "channel": 0,
      "note": 77,
      "start": 23.0807,
      "duration": 0.2333,
      "velocity": 99,
      "chip": "ym2612"
    },
    {
      "channel": 1,
      "note": 68,
      "start": 23.0812,
      "duration": 0.2333,
      "velocity": 99,
      "chip": "ym2612"
    },
    {
      "channel": 2,
      "note": 70,
      "start": 23.0818,
      "duration": 0.2333,
      "velocity": 99,
      "chip": "ym2612"
    },
    {
      "channel": 4,
      "note": 46,
      "start": 23.0975,
      "duration": 0.0661,
      "velocity": 105,
      "chip": "ym2612"
    },
    {
      "channel": 5,
      "note": 58,
      "start": 23.1142,
      "duration": 0.0662,
      "velocity": 105,
      "chip": "ym2612"
    },
    {
      "channel": 0,
      "note": 75,
      "start": 23.3139,
      "duration": 2.5661,
      "velocity": 99,
      "chip": "ym2612"
    },
    {
      "channel": 1,
      "note": 68,
      "start": 23.3145,
      "duration": 2.5657,
      "velocity": 99,
      "chip": "ym2612"
    },
    {
      "channel": 2,
      "note": 70,
      "start": 23.3151,
      "duration": 2.5653,
      "velocity": 99,
      "chip": "ym2612"
    },
    {
      "channel": 4,
      "note": 42,
      "start": 23.3308,
      "duration": 0.0661,
      "velocity": 105,
      "chip": "ym2612"
    },
    {
      "channel": 5,
      "note": 54,
      "start": 23.3476,
      "duration": 0.0661,
      "velocity": 105,
      "chip": "ym2612"
    },
    {
      "channel": 3,
      "note": 77,
      "start": 23.3806,
      "duration": 0.0995,
      "velocity": 99,
      "chip": "ym2612"
    },
    {
      "channel": 4,
      "note": 44,
      "start": 23.5641,
      "duration": 0.0661,
      "velocity": 105,
      "chip": "ym2612"
    },
    {
      "channel": 5,
      "note": 56,
      "start": 23.5809,
      "duration": 0.0661,
      "velocity": 105,
      "chip": "ym2612"
    },
    {
      "channel": 3,
      "note": 75,
      "start": 23.6139,
      "duration": 0.0995,
      "velocity": 99,
      "chip": "ym2612"
    },
    {
      "channel": 4,
      "note": 42,
      "start": 23.7975,
      "duration": 0.0661,
      "velocity": 105,
      "chip": "ym2612"
    },
    {
      "channel": 5,
      "note": 54,
      "start": 23.8143,
      "duration": 0.0661,
      "velocity": 105,
      "chip": "ym2612"
    },
    {
      "channel": 4,
      "note": 46,
      "start": 24.0308,
      "duration": 0.0661,
      "velocity": 105,
      "chip": "ym2612"
    },
    {
      "channel": 5,
      "note": 58,
      "start": 24.0476,
      "duration": 0.0661,
      "velocity": 105,
      "chip": "ym2612"
    },
    {
      "channel": 4,
      "note": 42,
      "start": 24.2641,
      "duration": 0.0661,
      "velocity": 105,
      "chip": "ym2612"
    },
    {
      "channel": 5,
      "note": 54,
      "start": 24.2809,
      "duration": 0.066,
      "velocity": 105,
      "chip": "ym2612"
    },
    {
      "channel": 4,
      "note": 44,
      "start": 24.4975,
      "duration": 0.0661,
      "velocity": 105,
      "chip": "ym2612"
    },
    {
      "channel": 5,
      "note": 56,
      "start": 24.5143,
      "duration": 0.066,
      "velocity": 105,
      "chip": "ym2612"
    },
    {
      "channel": 4,
      "note": 42,
      "start": 24.7308,
      "duration": 0.0661,
      "velocity": 105,
      "chip": "ym2612"
    },
    {
      "channel": 5,
      "note": 54,
      "start": 24.7476,
      "duration": 0.066,
      "velocity": 105,
      "chip": "ym2612"
    },
    {
      "channel": 4,
      "note": 46,
      "start": 24.9641,
      "duration": 0.0661,
      "velocity": 105,
      "chip": "ym2612"
    },
    {
      "channel": 5,
      "note": 58,
      "start": 24.9809,
      "duration": 0.066,
      "velocity": 105,
      "chip": "ym2612"
    },
    {
      "channel": 4,
      "note": 42,
      "start": 25.1975,
      "duration": 0.0661,
      "velocity": 105,
      "chip": "ym2612"
    },
    {
      "channel": 5,
      "note": 54,
      "start": 25.2143,
      "duration": 0.066,
      "velocity": 105,
      "chip": "ym2612"
    },
    {
      "channel": 4,
      "note": 44,
      "start": 25.4308,
      "duration": 0.0661,
      "velocity": 105,
      "chip": "ym2612"
    },
    {
      "channel": 5,
      "note": 56,
      "start": 25.4476,
      "duration": 0.066,
      "velocity": 105,
      "chip": "ym2612"
    },
    {
      "channel": 4,
      "note": 42,
      "start": 25.6641,
      "duration": 0.0661,
      "velocity": 105,
      "chip": "ym2612"
    },
    {
      "channel": 5,
      "note": 54,
      "start": 25.6809,
      "duration": 0.066,
      "velocity": 105,
      "chip": "ym2612"
    },
    {
      "channel": 4,
      "note": 46,
      "start": 25.8975,
      "duration": 0.0661,
      "velocity": 105,
      "chip": "ym2612"
    },
    {
      "channel": 5,
      "note": 58,
      "start": 25.9142,
      "duration": 0.0661,
      "velocity": 105,
      "chip": "ym2612"
    },
    {
      "channel": 0,
      "note": 72,
      "start": 26.1143,
      "duration": 1.8663,
      "velocity": 99,
      "chip": "ym2612"
    },
    {
      "channel": 1,
      "note": 68,
      "start": 26.1178,
      "duration": 1.8634,
      "velocity": 99,
      "chip": "ym2612"
    },
    {
      "channel": 4,
      "note": 42,
      "start": 26.1337,
      "duration": 0.0632,
      "velocity": 105,
      "chip": "ym2612"
    },
    {
      "channel": 5,
      "note": 54,
      "start": 26.1505,
      "duration": 0.0632,
      "velocity": 105,
      "chip": "ym2612"
    },
    {
      "channel": 4,
      "note": 44,
      "start": 26.3641,
      "duration": 0.0661,
      "velocity": 105,
      "chip": "ym2612"
    },
    {
      "channel": 5,
      "note": 56,
      "start": 26.3809,
      "duration": 0.0661,
      "velocity": 105,
      "chip": "ym2612"
    },
    {
      "channel": 3,
      "note": 72,
      "start": 26.4139,
      "duration": 1.8666,
      "velocity": 99,
      "chip": "ym2612"
    },
    {
      "channel": 4,
      "note": 42,
      "start": 26.5975,
      "duration": 0.0661,
      "velocity": 105,
      "chip": "ym2612"
    },
    {
      "channel": 5,
      "note": 54,
      "start": 26.6142,
      "duration": 0.0662,
      "velocity": 105,
      "chip": "ym2612"
    },
    {
      "channel": 4,
      "note": 46,
      "start": 26.8308,
      "duration": 0.0661,
      "velocity": 105,
      "chip": "ym2612"
    },
    {
      "channel": 5,
      "note": 58,
      "start": 26.8475,
      "duration": 0.0662,
      "velocity": 105,
      "chip": "ym2612"
    },
    {
      "channel": 4,
      "note": 42,
      "start": 27.0641,
      "duration": 0.0661,
      "velocity": 105,
      "chip": "ym2612"
    },
    {
      "channel": 5,
      "note": 54,
      "start": 27.0809,
      "duration": 0.0662,
      "velocity": 105,
      "chip": "ym2612"
    },
    {
      "channel": 4,
      "note": 44,
      "start": 27.2975,
      "duration": 0.0661,
      "velocity": 105,
      "chip": "ym2612"
    },
    {
      "channel": 5,
      "note": 56,
      "start": 27.3143,
      "duration": 0.066,
      "velocity": 105,
      "chip": "ym2612"
    },
    {
      "channel": 4,
      "note": 42,
      "start": 27.5308,
      "duration": 0.0661,
      "velocity": 105,
      "chip": "ym2612"
    },
    {
      "channel": 5,
      "note": 54,
      "start": 27.5476,
      "duration": 0.066,
      "velocity": 105,
      "chip": "ym2612"
    },
    {
      "channel": 4,
      "note": 46,
      "start": 27.7641,
      "duration": 0.0661,
      "velocity": 105,
      "chip": "ym2612"
    },
    {
      "channel": 5,
      "note": 58,
      "start": 27.7809,
      "duration": 0.066,
      "velocity": 105,
      "chip": "ym2612"
    },
    {
      "channel": 0,
      "note": 70,
      "start": 27.9806,
      "duration": 1.3999,
      "velocity": 99,
      "chip": "ym2612"
    },
    {
      "channel": 1,
      "note": 68,
      "start": 27.9812,
      "duration": 1.3999,
      "velocity": 99,
      "chip": "ym2612"
    },
    {
      "channel": 2,
      "note": 66,
      "start": 27.9817,
      "duration": 1.3996,
      "velocity": 99,
      "chip": "ym2612"
    },
    {
      "channel": 4,
      "note": 42,
      "start": 27.9975,
      "duration": 0.0661,
      "velocity": 105,
      "chip": "ym2612"
    },
    {
      "channel": 5,
      "note": 54,
      "start": 28.0143,
      "duration": 0.066,
      "velocity": 105,
      "chip": "ym2612"
    },
    {
      "channel": 4,
      "note": 44,
      "start": 28.2308,
      "duration": 0.0661,
      "velocity": 105,
      "chip": "ym2612"
    },
    {
      "channel": 5,
      "note": 56,
      "start": 28.2476,
      "duration": 0.0661,
      "velocity": 105,
      "chip": "ym2612"
    },
    {
      "channel": 3,
      "note": 70,
      "start": 28.2806,
      "duration": 1.1833,
      "velocity": 99,
      "chip": "ym2612"
    },
    {
      "channel": 4,
      "note": 42,
      "start": 28.4641,
      "duration": 0.0661,
      "velocity": 105,
      "chip": "ym2612"
    },
    {
      "channel": 5,
      "note": 54,
      "start": 28.4809,
      "duration": 0.0662,
      "velocity": 105,
      "chip": "ym2612"
    },
    {
      "channel": 4,
      "note": 46,
      "start": 28.6975,
      "duration": 0.0661,
      "velocity": 105,
      "chip": "ym2612"
    },
    {
      "channel": 5,
      "note": 58,
      "start": 28.7142,
      "duration": 0.0662,
      "velocity": 105,
      "chip": "ym2612"
    },
    {
      "channel": 4,
      "note": 42,
      "start": 28.9308,
      "duration": 0.0661,
      "velocity": 105,
      "chip": "ym2612"
    },
    {
      "channel": 5,
      "note": 54,
      "start": 28.9475,
      "duration": 0.0662,
      "velocity": 105,
      "chip": "ym2612"
    },
    {
      "channel": 4,
      "note": 44,
      "start": 29.1641,
      "duration": 0.0661,
      "velocity": 105,
      "chip": "ym2612"
    },
    {
      "channel": 5,
      "note": 56,
      "start": 29.1809,
      "duration": 0.0662,
      "velocity": 105,
      "chip": "ym2612"
    },
    {
      "channel": 0,
      "note": 72,
      "start": 29.3805,
      "duration": 0.0661,
      "velocity": 99,
      "chip": "ym2612"
    },
    {
      "channel": 1,
      "note": 68,
      "start": 29.3811,
      "duration": 0.0657,
      "velocity": 99,
      "chip": "ym2612"
    },
    {
      "channel": 4,
      "note": 42,
      "start": 29.3975,
      "duration": 0.0667,
      "velocity": 105,
      "chip": "ym2612"
    },
    {
      "channel": 5,
      "note": 54,
      "start": 29.4143,
      "duration": 0.0661,
      "velocity": 105,
      "chip": "ym2612"
    },
    {
      "channel": 3,
      "note": 72,
      "start": 29.464,
      "duration": 0.15,
      "velocity": 99,
      "chip": "ym2612"
    },
    {
      "channel": 0,
      "note": 70,
      "start": 29.5305,
      "duration": 0.0661,
      "velocity": 99,
      "chip": "ym2612"
    },
    {
      "channel": 1,
      "note": 68,
      "start": 29.5311,
      "duration": 0.0657,
      "velocity": 99,
      "chip": "ym2612"
    },
    {
      "channel": 2,
      "note": 66,
      "start": 29.5317,
      "duration": 0.0653,
      "velocity": 99,
      "chip": "ym2612"
    },
    {
      "channel": 3,
      "note": 70,
      "start": 29.614,
      "duration": 0.1499,
      "velocity": 99,
      "chip": "ym2612"
    },
    {
      "channel": 4,
      "note": 46,
      "start": 29.6308,
      "duration": 0.0662,
      "velocity": 105,
      "chip": "ym2612"
    },
    {
      "channel": 5,
      "note": 58,
      "start": 29.6475,
      "duration": 0.0662,
      "velocity": 105,
      "chip": "ym2612"
    },
    {
      "channel": 0,
      "note": 72,
      "start": 29.6804,
      "duration": 0.0662,
      "velocity": 99,
      "chip": "ym2612"
    },
    {
      "channel": 1,
      "note": 68,
      "start": 29.681,
      "duration": 0.0658,
      "velocity": 99,
      "chip": "ym2612"
    },
    {
      "channel": 3,
      "note": 72,
      "start": 29.7639,
      "duration": 0.3833,
      "velocity": 99,
      "chip": "ym2612"
    },
    {
      "channel": 0,
      "note": 73,
      "start": 29.8474,
      "duration": 0.4663,
      "velocity": 99,
      "chip": "ym2612"
    },
    {
      "channel": 1,
      "note": 68,
      "start": 29.848,
      "duration": 1.0987,
      "velocity": 99,
      "chip": "ym2612"
    },
    {
      "channel": 2,
      "note": 70,
      "start": 29.8485,
      "duration": 1.0983,
      "velocity": 99,
      "chip": "ym2612"
    },
    {
      "channel": 4,
      "note": 42,
      "start": 29.8641,
      "duration": 0.0661,
      "velocity": 105,
      "chip": "ym2612"
    },
    {
      "channel": 5,
      "note": 54,
      "start": 29.8809,
      "duration": 0.0662,
      "velocity": 105,
      "chip": "ym2612"
    },
    {
      "channel": 4,
      "note": 44,
      "start": 30.0975,
      "duration": 0.0661,
      "velocity": 105,
      "chip": "ym2612"
    },
    {
      "channel": 5,
      "note": 56,
      "start": 30.1142,
      "duration": 0.0661,
      "velocity": 105,
      "chip": "ym2612"
    },
    {
      "channel": 3,
      "note": 73,
      "start": 30.1473,
      "duration": 0.1669,
      "velocity": 99,
      "chip": "ym2612"
    },
    {
      "channel": 0,
      "note": 72,
      "start": 30.3138,
      "duration": 0.2333,
      "velocity": 99,
      "chip": "ym2612"
    },
    {
      "channel": 4,
      "note": 42,
      "start": 30.3308,
      "duration": 0.0661,
      "velocity": 105,
      "chip": "ym2612"
    },
    {
      "channel": 5,
      "note": 54,
      "start": 30.3475,
      "duration": 0.0662,
      "velocity": 105,
      "chip": "ym2612"
    },
    {
      "channel": 0,
      "note": 73,
      "start": 30.5472,
      "duration": 0.2329,
      "velocity": 99,
      "chip": "ym2612"
    },
    {
      "channel": 4,
      "note": 46,
      "start": 30.5641,
      "duration": 0.0661,
      "velocity": 105,
      "chip": "ym2612"
    },
    {
      "channel": 5,
      "note": 58,
      "start": 30.5809,
      "duration": 0.0661,
      "velocity": 105,
      "chip": "ym2612"
    },
    {
      "channel": 3,
      "note": 72,
      "start": 30.6139,
      "duration": 0.2333,
      "velocity": 99,
      "chip": "ym2612"
    },
    {
      "channel": 4,
      "note": 42,
      "start": 30.7975,
      "duration": 0.0661,
      "velocity": 105,
      "chip": "ym2612"
    },
    {
      "channel": 5,
      "note": 54,
      "start": 30.8143,
      "duration": 0.0661,
      "velocity": 105,
      "chip": "ym2612"
    },
    {
      "channel": 3,
      "note": 73,
      "start": 30.8473,
      "duration": 0.168,
      "velocity": 99,
      "chip": "ym2612"
    },
    {
      "channel": 0,
      "note": 75,
      "start": 31.014,
      "duration": 2.3327,
      "velocity": 99,
      "chip": "ym2612"
    },
    {
      "channel": 1,
      "note": 68,
      "start": 31.0146,
      "duration": 2.3323,
      "velocity": 99,
      "chip": "ym2612"
    },
    {
      "channel": 2,
      "note": 70,
      "start": 31.0151,
      "duration": 2.332,
      "velocity": 99,
      "chip": "ym2612"
    },
    {
      "channel": 4,
      "note": 44,
      "start": 31.0308,
      "duration": 0.0661,
      "velocity": 105,
      "chip": "ym2612"
    },
    {
      "channel": 5,
      "note": 56,
      "start": 31.0475,
      "duration": 0.0662,
      "velocity": 105,
      "chip": "ym2612"
    },
    {
      "channel": 4,
      "note": 42,
      "start": 31.2641,
      "duration": 0.0661,
      "velocity": 105,
      "chip": "ym2612"
    },
    {
      "channel": 5,
      "note": 54,
      "start": 31.2809,
      "duration": 0.0661,
      "velocity": 105,
      "chip": "ym2612"
    },
    {
      "channel": 3,
      "note": 75,
      "start": 31.3139,
      "duration": 2.2708,
      "velocity": 99,
      "chip": "ym2612"
    },
    {
      "channel": 4,
      "note": 46,
      "start": 31.4975,
      "duration": 0.0661,
      "velocity": 105,
      "chip": "ym2612"
    },
    {
      "channel": 5,
      "note": 58,
      "start": 31.5143,
      "duration": 0.066,
      "velocity": 105,
      "chip": "ym2612"
    },
    {
      "channel": 4,
      "note": 42,
      "start": 31.7308,
      "duration": 0.0661,
      "velocity": 105,
      "chip": "ym2612"
    },
    {
      "channel": 5,
      "note": 54,
      "start": 31.7476,
      "duration": 0.066,
      "velocity": 105,
      "chip": "ym2612"
    },
    {
      "channel": 4,
      "note": 44,
      "start": 31.9641,
      "duration": 0.0661,
      "velocity": 105,
      "chip": "ym2612"
    },
    {
      "channel": 5,
      "note": 56,
      "start": 31.9809,
      "duration": 0.0661,
      "velocity": 105,
      "chip": "ym2612"
    },
    {
      "channel": 4,
      "note": 42,
      "start": 32.1975,
      "duration": 0.0661,
      "velocity": 105,
      "chip": "ym2612"
    },
    {
      "channel": 5,
      "note": 54,
      "start": 32.2143,
      "duration": 0.066,
      "velocity": 105,
      "chip": "ym2612"
    },
    {
      "channel": 4,
      "note": 46,
      "start": 32.4308,
      "duration": 0.0661,
      "velocity": 105,
      "chip": "ym2612"
    },
    {
      "channel": 5,
      "note": 58,
      "start": 32.4476,
      "duration": 0.066,
      "velocity": 105,
      "chip": "ym2612"
    },
    {
      "channel": 4,
      "note": 42,
      "start": 32.6641,
      "duration": 0.0661,
      "velocity": 105,
      "chip": "ym2612"
    },
    {
      "channel": 5,
      "note": 54,
      "start": 32.6809,
      "duration": 0.066,
      "velocity": 105,
      "chip": "ym2612"
    },
    {
      "channel": 4,
      "note": 44,
      "start": 32.8975,
      "duration": 0.0661,
      "velocity": 105,
      "chip": "ym2612"
    },
    {
      "channel": 5,
      "note": 56,
      "start": 32.9143,
      "duration": 0.066,
      "velocity": 105,
      "chip": "ym2612"
    },
    {
      "channel": 4,
      "note": 42,
      "start": 33.1308,
      "duration": 0.0661,
      "velocity": 105,
      "chip": "ym2612"
    },
    {
      "channel": 5,
      "note": 54,
      "start": 33.1476,
      "duration": 0.066,
      "velocity": 105,
      "chip": "ym2612"
    },
    {
      "channel": 4,
      "note": 46,
      "start": 33.3641,
      "duration": 0.0661,
      "velocity": 105,
      "chip": "ym2612"
    },
    {
      "channel": 5,
      "note": 58,
      "start": 33.3809,
      "duration": 0.066,
      "velocity": 105,
      "chip": "ym2612"
    },
    {
      "channel": 0,
      "note": 84,
      "start": 33.581,
      "duration": 0.2428,
      "velocity": 99,
      "chip": "ym2612"
    },
    {
      "channel": 1,
      "note": 80,
      "start": 33.5845,
      "duration": 0.2393,
      "velocity": 99,
      "chip": "ym2612"
    },
    {
      "channel": 4,
      "note": 42,
      "start": 33.6005,
      "duration": 0.0631,
      "velocity": 105,
      "chip": "ym2612"
    },
    {
      "channel": 5,
      "note": 54,
      "start": 33.6172,
      "duration": 0.0631,
      "velocity": 105,
      "chip": "ym2612"
    }
  ]
}