{
  "track_name": "06 - Stages 1-3, 5-2, 7-2, & 7-3",
  "duration_sec": 56.814,
  "sample_rate": 44100,
  "note_count": 1415,
  "unique_pitches": 38,
  "pitch_range": 53,
  "avg_note_duration": 0.1442,
  "reconstruction_stats": {
    "notes_reconstructed": 1415,
    "keyon_events": 1415,
    "keyoff_events": 1411,
    "orphan_keyons": 4,
    "unique_pitches": 38,
    "pitch_range": 53,
    "avg_duration_sec": 0.1442
  },
  "metadata": {
    "source": "M\\Magical Hat no Buttobi Turbo! Daibouken\\06 - Stages 1-3, 5-2, 7-2, & 7-3.vgz"
  },
  "notes": [
    {
      "channel": 2,
      "note": 86,
      "start": 0.0,
      "duration": 0.0526,
      "velocity": 127,
      "chip": "ym2612"
    },
    {
      "channel": 2,
      "note": 86,
      "start": 0.0566,
      "duration": 0.0683,
      "velocity": 127,
      "chip": "ym2612"
    },
    {
      "channel": 2,
      "note": 86,
      "start": 0.1289,
      "duration": 0.0682,
      "velocity": 127,
      "chip": "ym2612"
    },
    {
      "channel": 2,
      "note": 86,
      "start": 0.2016,
      "duration": 0.104,
      "velocity": 127,
      "chip": "ym2612"
    },
    {
      "channel": 2,
      "note": 86,
      "start": 0.3097,
      "duration": 0.1044,
      "velocity": 127,
      "chip": "ym2612"
    },
    {
      "channel": 2,
      "note": 82,
      "start": 0.418,
      "duration": 0.1045,
      "velocity": 127,
      "chip": "ym2612"
    },
    {
      "channel": 2,
      "note": 82,
      "start": 0.5264,
      "duration": 0.1046,
      "velocity": 127,
      "chip": "ym2612"
    },
    {
      "channel": 2,
      "note": 74,
      "start": 0.635,
      "duration": 0.1045,
      "velocity": 127,
      "chip": "ym2612"
    },
    {
      "channel": 2,
      "note": 74,
      "start": 0.7435,
      "duration": 0.1044,
      "velocity": 127,
      "chip": "ym2612"
    },
    {
      "channel": 0,
      "note": 78,
      "start": 0.8542,
      "duration": 0.105,
      "velocity": 96,
      "chip": "ym2612"
    },
    {
      "channel": 1,
      "note": 54,
      "start": 0.8551,
      "duration": 0.105,
      "velocity": 96,
      "chip": "ym2612"
    },
    {
      "channel": 3,
      "note": 63,
      "start": 0.8561,
      "duration": 0.1048,
      "velocity": 99,
      "chip": "ym2612"
    },
    {
      "channel": 4,
      "note": 59,
      "start": 0.8596,
      "duration": 0.102,
      "velocity": 99,
      "chip": "ym2612"
    },
    {
      "channel": 2,
      "note": 37,
      "start": 0.8605,
      "duration": 0.0959,
      "velocity": 120,
      "chip": "ym2612"
    },
    {
      "channel": 0,
      "note": 78,
      "start": 0.96,
      "duration": 0.1049,
      "velocity": 96,
      "chip": "ym2612"
    },
    {
      "channel": 1,
      "note": 54,
      "start": 0.9607,
      "duration": 0.1045,
      "velocity": 96,
      "chip": "ym2612"
    },
    {
      "channel": 3,
      "note": 65,
      "start": 0.9615,
      "duration": 0.104,
      "velocity": 99,
      "chip": "ym2612"
    },
    {
      "channel": 4,
      "note": 61,
      "start": 0.9622,
      "duration": 0.1036,
      "velocity": 99,
      "chip": "ym2612"
    },
    {
      "channel": 2,
      "note": 37,
      "start": 0.9631,
      "duration": 0.1207,
      "velocity": 120,
      "chip": "ym2612"
    },
    {
      "channel": 5,
      "note": 78,
      "start": 1.0698,
      "duration": 0.1062,
      "velocity": 85,
      "chip": "ym2612"
    },
    {
      "channel": 0,
      "note": 78,
      "start": 1.1741,
      "duration": 0.1103,
      "velocity": 96,
      "chip": "ym2612"
    },
    {
      "channel": 3,
      "note": 65,
      "start": 1.175,
      "duration": 0.1098,
      "velocity": 99,
      "chip": "ym2612"
    },
    {
      "channel": 4,
      "note": 61,
      "start": 1.1757,
      "duration": 0.1094,
      "velocity": 99,
      "chip": "ym2612"
    },
    {
      "channel": 5,
      "note": 78,
      "start": 1.1766,
      "duration": 0.1088,
      "velocity": 85,
      "chip": "ym2612"
    },
    {
      "channel": 2,
      "note": 77,
      "start": 1.2865,
      "duration": 0.2315,
      "velocity": 127,
      "chip": "ym2612"
    },
    {
      "channel": 0,
      "note": 73,
      "start": 1.3909,
      "duration": 0.1078,
      "velocity": 96,
      "chip": "ym2612"
    },
    {
      "channel": 3,
      "note": 65,
      "start": 1.3919,
      "duration": 0.1084,
      "velocity": 99,
      "chip": "ym2612"
    },
    {
      "channel": 4,
      "note": 61,
      "start": 1.3926,
      "duration": 0.108,
      "velocity": 99,
      "chip": "ym2612"
    },
    {
      "channel": 5,
      "note": 78,
      "start": 1.3935,
      "duration": 0.1074,
      "velocity": 85,
      "chip": "ym2612"
    },
    {
      "channel": 0,
      "note": 76,
      "start": 1.4994,
      "duration": 0.1078,
      "velocity": 96,
      "chip": "ym2612"
    },
    {
      "channel": 1,
      "note": 54,
      "start": 1.5002,
      "duration": 0.1074,
      "velocity": 96,
      "chip": "ym2612"
    },
    {
      "channel": 1,
      "note": 54,
      "start": 1.6081,
      "duration": 0.1083,
      "velocity": 96,
      "chip": "ym2612"
    },
    {
      "channel": 3,
      "note": 65,
      "start": 1.6089,
      "duration": 0.1078,
      "velocity": 99,
      "chip": "ym2612"
    },
    {
      "channel": 4,
      "note": 61,
      "start": 1.6097,
      "duration": 0.1074,
      "velocity": 99,
      "chip": "ym2612"
    },
    {
      "channel": 5,
      "note": 73,
      "start": 1.6106,
      "duration": 0.1068,
      "velocity": 85,
      "chip": "ym2612"
    },
    {
      "channel": 0,
      "note": 81,
      "start": 1.7163,
      "duration": 0.8702,
      "velocity": 96,
      "chip": "ym2612"
    },
    {
      "channel": 5,
      "note": 76,
      "start": 1.7181,
      "duration": 0.1081,
      "velocity": 85,
      "chip": "ym2612"
    },
    {
      "channel": 3,
      "note": 65,
      "start": 1.8253,
      "duration": 0.1111,
      "velocity": 99,
      "chip": "ym2612"
    },
    {
      "channel": 4,
      "note": 61,
      "start": 1.8261,
      "duration": 0.1107,
      "velocity": 99,
      "chip": "ym2612"
    },
    {
      "channel": 1,
      "note": 54,
      "start": 1.9363,
      "duration": 0.1051,
      "velocity": 96,
      "chip": "ym2612"
    },
    {
      "channel": 5,
      "note": 81,
      "start": 1.9378,
      "duration": 0.8637,
      "velocity": 85,
      "chip": "ym2612"
    },
    {
      "channel": 2,
      "note": 37,
      "start": 1.9386,
      "duration": 0.1226,
      "velocity": 120,
      "chip": "ym2612"
    },
    {
      "channel": 1,
      "note": 54,
      "start": 2.042,
      "duration": 0.1107,
      "velocity": 96,
      "chip": "ym2612"
    },
    {
      "channel": 3,
      "note": 65,
      "start": 2.0429,
      "duration": 0.1102,
      "velocity": 99,
      "chip": "ym2612"
    },
    {
      "channel": 4,
      "note": 61,
      "start": 2.0435,
      "duration": 0.1104,
      "velocity": 99,
      "chip": "ym2612"
    },
    {
      "channel": 3,
      "note": 69,
      "start": 2.1538,
      "duration": 0.4346,
      "velocity": 99,
      "chip": "ym2612"
    },
    {
      "channel": 4,
      "note": 64,
      "start": 2.1547,
      "duration": 0.4347,
      "velocity": 99,
      "chip": "ym2612"
    },
    {
      "channel": 2,
      "note": 77,
      "start": 2.156,
      "duration": 0.1018,
      "velocity": 127,
      "chip": "ym2612"
    },
    {
      "channel": 1,
      "note": 54,
      "start": 2.2616,
      "duration": 0.1051,
      "velocity": 96,
      "chip": "ym2612"
    },
    {
      "channel": 2,
      "note": 37,
      "start": 2.2638,
      "duration": 0.1229,
      "velocity": 120,
      "chip": "ym2612"
    },
    {
      "channel": 1,
      "note": 54,
      "start": 2.3673,
      "duration": 0.1079,
      "velocity": 96,
      "chip": "ym2612"
    },
    {
      "channel": 0,
      "note": 78,
      "start": 2.5871,
      "duration": 0.1074,
      "velocity": 96,
      "chip": "ym2612"
    },
    {
      "channel": 1,
      "note": 54,
      "start": 2.5882,
      "duration": 0.1071,
      "velocity": 96,
      "chip": "ym2612"
    },
    {
      "channel": 3,
      "note": 63,
      "start": 2.5892,
      "duration": 0.1069,
      "velocity": 99,
      "chip": "ym2612"
    },
    {
      "channel": 4,
      "note": 58,
      "start": 2.5901,
      "duration": 0.1069,
      "velocity": 99,
      "chip": "ym2612"
    },
    {
      "channel": 2,
      "note": 37,
      "start": 2.5912,
      "duration": 0.1004,
      "velocity": 120,
      "chip": "ym2612"
    },
    {
      "channel": 0,
      "note": 78,
      "start": 2.6952,
      "duration": 0.1049,
      "velocity": 96,
      "chip": "ym2612"
    },
    {
      "channel": 1,
      "note": 54,
      "start": 2.6959,
      "duration": 0.1045,
      "velocity": 96,
      "chip": "ym2612"
    },
    {
      "channel": 3,
      "note": 65,
      "start": 2.6968,
      "duration": 0.1039,
      "velocity": 99,
      "chip": "ym2612"
    },
    {
      "channel": 4,
      "note": 60,
      "start": 2.6977,
      "duration": 0.1034,
      "velocity": 99,
      "chip": "ym2612"
    },
    {
      "channel": 2,
      "note": 37,
      "start": 2.6989,
      "duration": 0.1202,
      "velocity": 120,
      "chip": "ym2612"
    },
    {
      "channel": 5,
      "note": 78,
      "start": 2.8022,
      "duration": 0.1092,
      "velocity": 85,
      "chip": "ym2612"
    },
    {
      "channel": 0,
      "note": 78,
      "start": 2.9093,
      "duration": 0.1104,
      "velocity": 96,
      "chip": "ym2612"
    },
    {
      "channel": 3,
      "note": 65,
      "start": 2.9103,
      "duration": 0.1099,
      "velocity": 99,
      "chip": "ym2612"
    },
    {
      "channel": 4,
      "note": 60,
      "start": 2.9112,
      "duration": 0.1093,
      "velocity": 99,
      "chip": "ym2612"
    },
    {
      "channel": 5,
      "note": 78,
      "start": 2.9121,
      "duration": 0.1087,
      "velocity": 85,
      "chip": "ym2612"
    },
    {
      "channel": 2,
      "note": 77,
      "start": 3.0218,
      "duration": 0.2322,
      "velocity": 127,
      "chip": "ym2612"
    },
    {
      "channel": 0,
      "note": 73,
      "start": 3.1262,
      "duration": 0.1078,
      "velocity": 96,
      "chip": "ym2612"
    },
    {
      "channel": 3,
      "note": 65,
      "start": 3.1272,
      "duration": 0.1084,
      "velocity": 99,
      "chip": "ym2612"
    },
    {
      "channel": 4,
      "note": 60,
      "start": 3.1281,
      "duration": 0.1084,
      "velocity": 99,
      "chip": "ym2612"
    },
    {
      "channel": 5,
      "note": 78,
      "start": 3.129,
      "duration": 0.1084,
      "velocity": 85,
      "chip": "ym2612"
    },
    {
      "channel": 0,
      "note": 76,
      "start": 3.2347,
      "duration": 0.1077,
      "velocity": 96,
      "chip": "ym2612"
    },
    {
      "channel": 1,
      "note": 54,
      "start": 3.2355,
      "duration": 0.1073,
      "velocity": 96,
      "chip": "ym2612"
    },
    {
      "channel": 3,
      "note": 63,
      "start": 3.2363,
      "duration": 0.1071,
      "velocity": 99,
      "chip": "ym2612"
    },
    {
      "channel": 4,
      "note": 58,
      "start": 3.2372,
      "duration": 0.1071,
      "velocity": 99,
      "chip": "ym2612"
    },
    {
      "channel": 1,
      "note": 54,
      "start": 3.3433,
      "duration": 0.1077,
      "velocity": 96,
      "chip": "ym2612"
    },
    {
      "channel": 3,
      "note": 65,
      "start": 3.3441,
      "duration": 0.1072,
      "velocity": 99,
      "chip": "ym2612"
    },
    {
      "channel": 4,
      "note": 60,
      "start": 3.345,
      "duration": 0.1072,
      "velocity": 99,
      "chip": "ym2612"
    },
    {
      "channel": 5,
      "note": 73,
      "start": 3.3459,
      "duration": 0.1072,
      "velocity": 85,
      "chip": "ym2612"
    },
    {
      "channel": 3,
      "note": 60,
      "start": 3.4521,
      "duration": 0.1078,
      "velocity": 99,
      "chip": "ym2612"
    },
    {
      "channel": 4,
      "note": 55,
      "start": 3.4529,
      "duration": 0.1078,
      "velocity": 99,
      "chip": "ym2612"
    },
    {
      "channel": 5,
      "note": 76,
      "start": 3.4538,
      "duration": 0.1078,
      "velocity": 85,
      "chip": "ym2612"
    },
    {
      "channel": 3,
      "note": 61,
      "start": 3.5606,
      "duration": 0.1117,
      "velocity": 99,
      "chip": "ym2612"
    },
    {
      "channel": 4,
      "note": 56,
      "start": 3.5614,
      "duration": 0.1111,
      "velocity": 99,
      "chip": "ym2612"
    },
    {
      "channel": 0,
      "note": 83,
      "start": 3.6713,
      "duration": 0.2162,
      "velocity": 96,
      "chip": "ym2612"
    },
    {
      "channel": 1,
      "note": 54,
      "start": 3.6721,
      "duration": 0.1046,
      "velocity": 96,
      "chip": "ym2612"
    },
    {
      "channel": 2,
      "note": 37,
      "start": 3.6735,
      "duration": 0.1228,
      "velocity": 120,
      "chip": "ym2612"
    },
    {
      "channel": 1,
      "note": 54,
      "start": 3.7773,
      "duration": 0.1111,
      "velocity": 96,
      "chip": "ym2612"
    },
    {
      "channel": 3,
      "note": 58,
      "start": 3.7783,
      "duration": 0.1104,
      "velocity": 99,
      "chip": "ym2612"
    },
    {
      "channel": 4,
      "note": 53,
      "start": 3.7792,
      "duration": 0.1098,
      "velocity": 99,
      "chip": "ym2612"
    },
    {
      "channel": 0,
      "note": 81,
      "start": 3.8883,
      "duration": 0.4335,
      "velocity": 96,
      "chip": "ym2612"
    },
    {
      "channel": 5,
      "note": 83,
      "start": 3.8901,
      "duration": 0.2134,
      "velocity": 85,
      "chip": "ym2612"
    },
    {
      "channel": 2,
      "note": 77,
      "start": 3.8909,
      "duration": 0.1022,
      "velocity": 127,
      "chip": "ym2612"
    },
    {
      "channel": 1,
      "note": 54,
      "start": 3.9971,
      "duration": 0.1051,
      "velocity": 96,
      "chip": "ym2612"
    },
    {
      "channel": 3,
      "note": 58,
      "start": 3.9979,
      "duration": 0.105,
      "velocity": 99,
      "chip": "ym2612"
    },
    {
      "channel": 4,
      "note": 53,
      "start": 3.9988,
      "duration": 0.1044,
      "velocity": 99,
      "chip": "ym2612"
    },
    {
      "channel": 2,
      "note": 37,
      "start": 4.0,
      "duration": 0.1212,
      "velocity": 120,
      "chip": "ym2612"
    },
    {
      "channel": 1,
      "note": 54,
      "start": 4.1027,
      "duration": 0.1078,
      "velocity": 96,
      "chip": "ym2612"
    },
    {
      "channel": 5,
      "note": 81,
      "start": 4.1042,
      "duration": 0.4326,
      "velocity": 85,
      "chip": "ym2612"
    },
    {
      "channel": 3,
      "note": 60,
      "start": 4.2116,
      "duration": 0.1122,
      "velocity": 99,
      "chip": "ym2612"
    },
    {
      "channel": 4,
      "note": 55,
      "start": 4.2124,
      "duration": 0.1124,
      "velocity": 99,
      "chip": "ym2612"
    },
    {
      "channel": 0,
      "note": 78,
      "start": 4.3226,
      "duration": 0.1072,
      "velocity": 96,
      "chip": "ym2612"
    },
    {
      "channel": 1,
      "note": 54,
      "start": 4.3236,
      "duration": 0.1071,
      "velocity": 96,
      "chip": "ym2612"
    },
    {
      "channel": 3,
      "note": 63,
      "start": 4.3246,
      "duration": 0.1068,
      "velocity": 99,
      "chip": "ym2612"
    },
    {
      "channel": 4,
      "note": 58,
      "start": 4.3255,
      "duration": 0.1067,
      "velocity": 99,
      "chip": "ym2612"
    },
    {
      "channel": 2,
      "note": 37,
      "start": 4.3268,
      "duration": 0.1002,
      "velocity": 120,
      "chip": "ym2612"
    },
    {
      "channel": 0,
      "note": 78,
      "start": 4.4305,
      "duration": 0.105,
      "velocity": 96,
      "chip": "ym2612"
    },
    {
      "channel": 1,
      "note": 54,
      "start": 4.4312,
      "duration": 0.1046,
      "velocity": 96,
      "chip": "ym2612"
    },
    {
      "channel": 3,
      "note": 65,
      "start": 4.432,
      "duration": 0.1041,
      "velocity": 99,
      "chip": "ym2612"
    },
    {
      "channel": 4,
      "note": 60,
      "start": 4.4329,
      "duration": 0.1035,
      "velocity": 99,
      "chip": "ym2612"
    },
    {
      "channel": 2,
      "note": 37,
      "start": 4.4341,
      "duration": 0.1202,
      "velocity": 120,
      "chip": "ym2612"
    },
    {
      "channel": 5,
      "note": 78,
      "start": 4.5376,
      "duration": 0.109,
      "velocity": 85,
      "chip": "ym2612"
    },
    {
      "channel": 0,
      "note": 78,
      "start": 4.6446,
      "duration": 0.1104,
      "velocity": 96,
      "chip": "ym2612"
    },
    {
      "channel": 3,
      "note": 65,
      "start": 4.6456,
      "duration": 0.1099,
      "velocity": 99,
      "chip": "ym2612"
    },
    {
      "channel": 4,
      "note": 60,
      "start": 4.6465,
      "duration": 0.1093,
      "velocity": 99,
      "chip": "ym2612"
    },
    {
      "channel": 5,
      "note": 78,
      "start": 4.6473,
      "duration": 0.1088,
      "velocity": 85,
      "chip": "ym2612"
    },
    {
      "channel": 2,
      "note": 77,
      "start": 4.7572,
      "duration": 0.2314,
      "velocity": 127,
      "chip": "ym2612"
    },
    {
      "channel": 0,
      "note": 73,
      "start": 4.8615,
      "duration": 0.1078,
      "velocity": 96,
      "chip": "ym2612"
    },
    {
      "channel": 3,
      "note": 65,
      "start": 4.8625,
      "duration": 0.1084,
      "velocity": 99,
      "chip": "ym2612"
    },
    {
      "channel": 4,
      "note": 60,
      "start": 4.8634,
      "duration": 0.1078,
      "velocity": 99,
      "chip": "ym2612"
    },
    {
      "channel": 5,
      "note": 78,
      "start": 4.8642,
      "duration": 0.1073,
      "velocity": 85,
      "chip": "ym2612"
    },
    {
      "channel": 0,
      "note": 76,
      "start": 4.97,
      "duration": 0.1077,
      "velocity": 96,
      "chip": "ym2612"
    },
    {
      "channel": 1,
      "note": 54,
      "start": 4.9707,
      "duration": 0.1073,
      "velocity": 96,
      "chip": "ym2612"
    },
    {
      "channel": 1,
      "note": 54,
      "start": 5.0786,
      "duration": 0.1085,
      "velocity": 96,
      "chip": "ym2612"
    },
    {
      "channel": 3,
      "note": 65,
      "start": 5.0795,
      "duration": 0.108,
      "velocity": 99,
      "chip": "ym2612"
    },
    {
      "channel": 4,
      "note": 60,
      "start": 5.0803,
      "duration": 0.1074,
      "velocity": 99,
      "chip": "ym2612"
    },
    {
      "channel": 5,
      "note": 73,
      "start": 5.0812,
      "duration": 0.1069,
      "velocity": 85,
      "chip": "ym2612"
    },
    {
      "channel": 0,
      "note": 81,
      "start": 5.187,
      "duration": 0.87,
      "velocity": 96,
      "chip": "ym2612"
    },
    {
      "channel": 5,
      "note": 76,
      "start": 5.1888,
      "duration": 0.1081,
      "velocity": 85,
      "chip": "ym2612"
    },
    {
      "channel": 3,
      "note": 65,
      "start": 5.2959,
      "duration": 0.1112,
      "velocity": 99,
      "chip": "ym2612"
    },
    {
      "channel": 4,
      "note": 60,
      "start": 5.2968,
      "duration": 0.1106,
      "velocity": 99,
      "chip": "ym2612"
    },
    {
      "channel": 1,
      "note": 54,
      "start": 5.407,
      "duration": 0.1051,
      "velocity": 96,
      "chip": "ym2612"
    },
    {
      "channel": 5,
      "note": 81,
      "start": 5.4085,
      "duration": 0.8637,
      "velocity": 85,
      "chip": "ym2612"
    },
    {
      "channel": 2,
      "note": 37,
      "start": 5.4092,
      "duration": 0.1227,
      "velocity": 120,
      "chip": "ym2612"
    },
    {
      "channel": 1,
      "note": 54,
      "start": 5.5126,
      "duration": 0.1106,
      "velocity": 96,
      "chip": "ym2612"
    },
    {
      "channel": 3,
      "note": 65,
      "start": 5.5135,
      "duration": 0.1101,
      "velocity": 99,
      "chip": "ym2612"
    },
    {
      "channel": 4,
      "note": 60,
      "start": 5.5144,
      "duration": 0.1102,
      "velocity": 99,
      "chip": "ym2612"
    },
    {
      "channel": 3,
      "note": 69,
      "start": 5.6244,
      "duration": 0.4346,
      "velocity": 99,
      "chip": "ym2612"
    },
    {
      "channel": 4,
      "note": 64,
      "start": 5.6253,
      "duration": 0.4347,
      "velocity": 99,
      "chip": "ym2612"
    },
    {
      "channel": 2,
      "note": 77,
      "start": 5.6266,
      "duration": 0.1018,
      "velocity": 127,
      "chip": "ym2612"
    },
    {
      "channel": 1,
      "note": 54,
      "start": 5.7323,
      "duration": 0.1051,
      "velocity": 96,
      "chip": "ym2612"
    },
    {
      "channel": 2,
      "note": 37,
      "start": 5.7344,
      "duration": 0.1228,
      "velocity": 120,
      "chip": "ym2612"
    },
    {
      "channel": 1,
      "note": 54,
      "start": 5.838,
      "duration": 0.1078,
      "velocity": 96,
      "chip": "ym2612"
    },
    {
      "channel": 0,
      "note": 78,
      "start": 6.0578,
      "duration": 0.1074,
      "velocity": 96,
      "chip": "ym2612"
    },
    {
      "channel": 1,
      "note": 54,
      "start": 6.0588,
      "duration": 0.1072,
      "velocity": 96,
      "chip": "ym2612"
    },
    {
      "channel": 3,
      "note": 63,
      "start": 6.0598,
      "duration": 0.107,
      "velocity": 99,
      "chip": "ym2612"
    },
    {
      "channel": 4,
      "note": 58,
      "start": 6.0607,
      "duration": 0.1069,
      "velocity": 99,
      "chip": "ym2612"
    },
    {
      "channel": 2,
      "note": 37,
      "start": 6.0619,
      "duration": 0.1005,
      "velocity": 120,
      "chip": "ym2612"
    },
    {
      "channel": 0,
      "note": 78,
      "start": 6.1659,
      "duration": 0.105,
      "velocity": 96,
      "chip": "ym2612"
    },
    {
      "channel": 1,
      "note": 54,
      "start": 6.1666,
      "duration": 0.1046,
      "velocity": 96,
      "chip": "ym2612"
    },
    {
      "channel": 3,
      "note": 65,
      "start": 6.1675,
      "duration": 0.104,
      "velocity": 99,
      "chip": "ym2612"
    },
    {
      "channel": 4,
      "note": 60,
      "start": 6.1683,
      "duration": 0.1034,
      "velocity": 99,
      "chip": "ym2612"
    },
    {
      "channel": 2,
      "note": 37,
      "start": 6.1696,
      "duration": 0.1201,
      "velocity": 120,
      "chip": "ym2612"
    },
    {
      "channel": 5,
      "note": 78,
      "start": 6.2729,
      "duration": 0.109,
      "velocity": 85,
      "chip": "ym2612"
    },
    {
      "channel": 0,
      "note": 78,
      "start": 6.3799,
      "duration": 0.1105,
      "velocity": 96,
      "chip": "ym2612"
    },
    {
      "channel": 3,
      "note": 65,
      "start": 6.3809,
      "duration": 0.1099,
      "velocity": 99,
      "chip": "ym2612"
    },
    {
      "channel": 4,
      "note": 60,
      "start": 6.3818,
      "duration": 0.1094,
      "velocity": 99,
      "chip": "ym2612"
    },
    {
      "channel": 5,
      "note": 78,
      "start": 6.3827,
      "duration": 0.1088,
      "velocity": 85,
      "chip": "ym2612"
    },
    {
      "channel": 2,
      "note": 77,
      "start": 6.4925,
      "duration": 0.2322,
      "velocity": 127,
      "chip": "ym2612"
    },
    {
      "channel": 0,
      "note": 73,
      "start": 6.5968,
      "duration": 0.1078,
      "velocity": 96,
      "chip": "ym2612"
    },
    {
      "channel": 3,
      "note": 65,
      "start": 6.5978,
      "duration": 0.1085,
      "velocity": 99,
      "chip": "ym2612"
    },
    {
      "channel": 4,
      "note": 60,
      "start": 6.5986,
      "duration": 0.1085,
      "velocity": 99,
      "chip": "ym2612"
    },
    {
      "channel": 5,
      "note": 78,
      "start": 6.5995,
      "duration": 0.1085,
      "velocity": 85,
      "chip": "ym2612"
    },
    {
      "channel": 0,
      "note": 76,
      "start": 6.7053,
      "duration": 0.1077,
      "velocity": 96,
      "chip": "ym2612"
    },
    {
      "channel": 1,
      "note": 54,
      "start": 6.706,
      "duration": 0.1073,
      "velocity": 96,
      "chip": "ym2612"
    },
    {
      "channel": 3,
      "note": 63,
      "start": 6.707,
      "duration": 0.1071,
      "velocity": 99,
      "chip": "ym2612"
    },
    {
      "channel": 4,
      "note": 58,
      "start": 6.7078,
      "duration": 0.1071,
      "velocity": 99,
      "chip": "ym2612"
    },
    {
      "channel": 1,
      "note": 54,
      "start": 6.8139,
      "duration": 0.1085,
      "velocity": 96,
      "chip": "ym2612"
    },
    {
      "channel": 3,
      "note": 65,
      "start": 6.8148,
      "duration": 0.108,
      "velocity": 99,
      "chip": "ym2612"
    },
    {
      "channel": 4,
      "note": 60,
      "start": 6.8156,
      "duration": 0.108,
      "velocity": 99,
      "chip": "ym2612"
    },
    {
      "channel": 5,
      "note": 73,
      "start": 6.8165,
      "duration": 0.108,
      "velocity": 85,
      "chip": "ym2612"
    },
    {
      "channel": 0,
      "note": 85,
      "start": 6.9222,
      "duration": 0.1078,
      "velocity": 96,
      "chip": "ym2612"
    },
    {
      "channel": 3,
      "note": 60,
      "start": 6.9234,
      "duration": 0.1075,
      "velocity": 99,
      "chip": "ym2612"
    },
    {
      "channel": 4,
      "note": 55,
      "start": 6.9243,
      "duration": 0.1075,
      "velocity": 99,
      "chip": "ym2612"
    },
    {
      "channel": 5,
      "note": 76,
      "start": 6.9252,
      "duration": 0.1075,
      "velocity": 85,
      "chip": "ym2612"
    },
    {
      "channel": 0,
      "note": 83,
      "start": 7.0307,
      "duration": 0.1105,
      "velocity": 96,
      "chip": "ym2612"
    },
    {
      "channel": 3,
      "note": 61,
      "start": 7.0317,
      "duration": 0.1111,
      "velocity": 99,
      "chip": "ym2612"
    },
    {
      "channel": 4,
      "note": 56,
      "start": 7.0325,
      "duration": 0.1106,
      "velocity": 99,
      "chip": "ym2612"
    },
    {
      "channel": 0,
      "note": 81,
      "start": 7.1419,
      "duration": 0.105,
      "velocity": 96,
      "chip": "ym2612"
    },
    {
      "channel": 1,
      "note": 54,
      "start": 7.1427,
      "duration": 0.1051,
      "velocity": 96,
      "chip": "ym2612"
    },
    {
      "channel": 5,
      "note": 85,
      "start": 7.1442,
      "duration": 0.1062,
      "velocity": 85,
      "chip": "ym2612"
    },
    {
      "channel": 2,
      "note": 37,
      "start": 7.1449,
      "duration": 0.1224,
      "velocity": 120,
      "chip": "ym2612"
    },
    {
      "channel": 0,
      "note": 83,
      "start": 7.2476,
      "duration": 0.219,
      "velocity": 96,
      "chip": "ym2612"
    },
    {
      "channel": 1,
      "note": 54,
      "start": 7.2483,
      "duration": 0.1102,
      "velocity": 96,
      "chip": "ym2612"
    },
    {
      "channel": 3,
      "note": 61,
      "start": 7.2493,
      "duration": 0.1095,
      "velocity": 99,
      "chip": "ym2612"
    },
    {
      "channel": 4,
      "note": 56,
      "start": 7.2503,
      "duration": 0.1089,
      "velocity": 99,
      "chip": "ym2612"
    },
    {
      "channel": 5,
      "note": 83,
      "start": 7.2512,
      "duration": 0.1083,
      "velocity": 85,
      "chip": "ym2612"
    },
    {
      "channel": 5,
      "note": 81,
      "start": 7.3602,
      "duration": 0.1098,
      "velocity": 85,
      "chip": "ym2612"
    },
    {
      "channel": 2,
      "note": 77,
      "start": 7.361,
      "duration": 0.1027,
      "velocity": 127,
      "chip": "ym2612"
    },
    {
      "channel": 0,
      "note": 81,
      "start": 7.4673,
      "duration": 0.105,
      "velocity": 96,
      "chip": "ym2612"
    },
    {
      "channel": 1,
      "note": 54,
      "start": 7.468,
      "duration": 0.105,
      "velocity": 96,
      "chip": "ym2612"
    },
    {
      "channel": 3,
      "note": 63,
      "start": 7.4689,
      "duration": 0.105,
      "velocity": 99,
      "chip": "ym2612"
    },
    {
      "channel": 4,
      "note": 58,
      "start": 7.4698,
      "duration": 0.105,
      "velocity": 99,
      "chip": "ym2612"
    },
    {
      "channel": 5,
      "note": 83,
      "start": 7.4706,
      "duration": 0.213,
      "velocity": 85,
      "chip": "ym2612"
    },
    {
      "channel": 2,
      "note": 37,
      "start": 7.4714,
      "duration": 0.1212,
      "velocity": 120,
      "chip": "ym2612"
    },
    {
      "channel": 0,
      "note": 80,
      "start": 7.5729,
      "duration": 0.1077,
      "velocity": 96,
      "chip": "ym2612"
    },
    {
      "channel": 1,
      "note": 54,
      "start": 7.5737,
      "duration": 0.1078,
      "velocity": 96,
      "chip": "ym2612"
    },
    {
      "channel": 3,
      "note": 61,
      "start": 7.5745,
      "duration": 0.1073,
      "velocity": 99,
      "chip": "ym2612"
    },
    {
      "channel": 4,
      "note": 56,
      "start": 7.5754,
      "duration": 0.1073,
      "velocity": 99,
      "chip": "ym2612"
    },
    {
      "channel": 0,
      "note": 76,
      "start": 7.6814,
      "duration": 0.111,
      "velocity": 96,
      "chip": "ym2612"
    },
    {
      "channel": 3,
      "note": 63,
      "start": 7.6826,
      "duration": 0.1119,
      "velocity": 99,
      "chip": "ym2612"
    },
    {
      "channel": 4,
      "note": 58,
      "start": 7.6834,
      "duration": 0.1148,
      "velocity": 99,
      "chip": "ym2612"
    },
    {
      "channel": 5,
      "note": 81,
      "start": 7.6844,
      "duration": 0.1148,
      "velocity": 85,
      "chip": "ym2612"
    },
    {
      "channel": 0,
      "note": 78,
      "start": 7.7931,
      "duration": 0.1073,
      "velocity": 96,
      "chip": "ym2612"
    },
    {
      "channel": 1,
      "note": 54,
      "start": 7.7941,
      "duration": 0.1072,
      "velocity": 96,
      "chip": "ym2612"
    },
    {
      "channel": 3,
      "note": 63,
      "start": 7.7952,
      "duration": 0.1068,
      "velocity": 99,
      "chip": "ym2612"
    },
    {
      "channel": 4,
      "note": 58,
      "start": 7.799,
      "duration": 0.1039,
      "velocity": 99,
      "chip": "ym2612"
    },
    {
      "channel": 5,
      "note": 80,
      "start": 7.7998,
      "duration": 0.1039,
      "velocity": 85,
      "chip": "ym2612"
    },
    {
      "channel": 2,
      "note": 37,
      "start": 7.8006,
      "duration": 0.097,
      "velocity": 120,
      "chip": "ym2612"
    },
    {
      "channel": 0,
      "note": 78,
      "start": 7.9011,
      "duration": 0.105,
      "velocity": 96,
      "chip": "ym2612"
    },
    {
      "channel": 1,
      "note": 54,
      "start": 7.9019,
      "duration": 0.1046,
      "velocity": 96,
      "chip": "ym2612"
    },
    {
      "channel": 3,
      "note": 65,
      "start": 7.9028,
      "duration": 0.104,
      "velocity": 99,
      "chip": "ym2612"
    },
    {
      "channel": 4,
      "note": 60,
      "start": 7.9036,
      "duration": 0.1035,
      "velocity": 99,
      "chip": "ym2612"
    },
    {
      "channel": 5,
      "note": 76,
      "start": 7.9045,
      "duration": 0.103,
      "velocity": 85,
      "chip": "ym2612"
    },
    {
      "channel": 2,
      "note": 37,
      "start": 7.9053,
      "duration": 0.1198,
      "velocity": 120,
      "chip": "ym2612"
    },
    {
      "channel": 5,
      "note": 78,
      "start": 8.0082,
      "duration": 0.109,
      "velocity": 85,
      "chip": "ym2612"
    },
    {
      "channel": 0,
      "note": 78,
      "start": 8.1152,
      "duration": 0.1109,
      "velocity": 96,
      "chip": "ym2612"
    },
    {
      "channel": 3,
      "note": 65,
      "start": 8.1162,
      "duration": 0.1103,
      "velocity": 99,
      "chip": "ym2612"
    },
    {
      "channel": 4,
      "note": 60,
      "start": 8.1171,
      "duration": 0.1098,
      "velocity": 99,
      "chip": "ym2612"
    },
    {
      "channel": 5,
      "note": 78,
      "start": 8.1179,
      "duration": 0.1092,
      "velocity": 85,
      "chip": "ym2612"
    },
    {
      "channel": 2,
      "note": 77,
      "start": 8.2281,
      "duration": 0.2311,
      "velocity": 127,
      "chip": "ym2612"
    },
    {
      "channel": 0,
      "note": 73,
      "start": 8.3322,
      "duration": 0.1077,
      "velocity": 96,
      "chip": "ym2612"
    },
    {
      "channel": 3,
      "note": 65,
      "start": 8.3332,
      "duration": 0.1083,
      "velocity": 99,
      "chip": "ym2612"
    },
    {
      "channel": 4,
      "note": 60,
      "start": 8.3341,
      "duration": 0.1078,
      "velocity": 99,
      "chip": "ym2612"
    },
    {
      "channel": 5,
      "note": 78,
      "start": 8.3349,
      "duration": 0.1073,
      "velocity": 85,
      "chip": "ym2612"
    },
    {
      "channel": 0,
      "note": 76,
      "start": 8.4406,
      "duration": 0.1077,
      "velocity": 96,
      "chip": "ym2612"
    },
    {
      "channel": 1,
      "note": 54,
      "start": 8.4414,
      "duration": 0.1073,
      "velocity": 96,
      "chip": "ym2612"
    },
    {
      "channel": 1,
      "note": 54,
      "start": 8.5492,
      "duration": 0.1085,
      "velocity": 96,
      "chip": "ym2612"
    },
    {
      "channel": 3,
      "note": 65,
      "start": 8.5501,
      "duration": 0.108,
      "velocity": 99,
      "chip": "ym2612"
    },
    {
      "channel": 4,
      "note": 60,
      "start": 8.5509,
      "duration": 0.1074,
      "velocity": 99,
      "chip": "ym2612"
    },
    {
      "channel": 5,
      "note": 73,
      "start": 8.5518,
      "duration": 0.1069,
      "velocity": 85,
      "chip": "ym2612"
    },
    {
      "channel": 0,
      "note": 81,
      "start": 8.6576,
      "duration": 0.8701,
      "velocity": 96,
      "chip": "ym2612"
    },
    {
      "channel": 5,
      "note": 76,
      "start": 8.6594,
      "duration": 0.1082,
      "velocity": 85,
      "chip": "ym2612"
    },
    {
      "channel": 3,
      "note": 65,
      "start": 8.7666,
      "duration": 0.1112,
      "velocity": 99,
      "chip": "ym2612"
    },
    {
      "channel": 4,
      "note": 60,
      "start": 8.7675,
      "duration": 0.1106,
      "velocity": 99,
      "chip": "ym2612"
    },
    {
      "channel": 1,
      "note": 54,
      "start": 8.8776,
      "duration": 0.1051,
      "velocity": 96,
      "chip": "ym2612"
    },
    {
      "channel": 5,
      "note": 81,
      "start": 8.8791,
      "duration": 0.8639,
      "velocity": 85,
      "chip": "ym2612"
    },
    {
      "channel": 2,
      "note": 37,
      "start": 8.8799,
      "duration": 0.1227,
      "velocity": 120,
      "chip": "ym2612"
    },
    {
      "channel": 1,
      "note": 54,
      "start": 8.9832,
      "duration": 0.1107,
      "velocity": 96,
      "chip": "ym2612"
    },
    {
      "channel": 3,
      "note": 65,
      "start": 8.9841,
      "duration": 0.1102,
      "velocity": 99,
      "chip": "ym2612"
    },
    {
      "channel": 4,
      "note": 60,
      "start": 8.985,
      "duration": 0.1102,
      "velocity": 99,
      "chip": "ym2612"
    },
    {
      "channel": 3,
      "note": 69,
      "start": 9.0951,
      "duration": 0.4345,
      "velocity": 99,
      "chip": "ym2612"
    },
    {
      "channel": 4,
      "note": 64,
      "start": 9.096,
      "duration": 0.4345,
      "velocity": 99,
      "chip": "ym2612"
    },
    {
      "channel": 2,
      "note": 77,
      "start": 9.0973,
      "duration": 0.1018,
      "velocity": 127,
      "chip": "ym2612"
    },
    {
      "channel": 1,
      "note": 54,
      "start": 9.2029,
      "duration": 0.1051,
      "velocity": 96,
      "chip": "ym2612"
    },
    {
      "channel": 2,
      "note": 37,
      "start": 9.2051,
      "duration": 0.1229,
      "velocity": 120,
      "chip": "ym2612"
    },
    {
      "channel": 1,
      "note": 54,
      "start": 9.3086,
      "duration": 0.1079,
      "velocity": 96,
      "chip": "ym2612"
    },
    {
      "channel": 0,
      "note": 85,
      "start": 9.5283,
      "duration": 0.3214,
      "velocity": 96,
      "chip": "ym2612"
    },
    {
      "channel": 1,
      "note": 54,
      "start": 9.5294,
      "duration": 0.1068,
      "velocity": 96,
      "chip": "ym2612"
    },
    {
      "channel": 3,
      "note": 63,
      "start": 9.5303,
      "duration": 0.1066,
      "velocity": 99,
      "chip": "ym2612"
    },
    {
      "channel": 4,
      "note": 58,
      "start": 9.5313,
      "duration": 0.1066,
      "velocity": 99,
      "chip": "ym2612"
    },
    {
      "channel": 2,
      "note": 37,
      "start": 9.5325,
      "duration": 0.1004,
      "velocity": 120,
      "chip": "ym2612"
    },
    {
      "channel": 1,
      "note": 54,
      "start": 9.6367,
      "duration": 0.1051,
      "velocity": 96,
      "chip": "ym2612"
    },
    {
      "channel": 3,
      "note": 65,
      "start": 9.6376,
      "duration": 0.1046,
      "velocity": 99,
      "chip": "ym2612"
    },
    {
      "channel": 4,
      "note": 60,
      "start": 9.6385,
      "duration": 0.104,
      "velocity": 99,
      "chip": "ym2612"
    },
    {
      "channel": 2,
      "note": 37,
      "start": 9.6397,
      "duration": 0.1209,
      "velocity": 120,
      "chip": "ym2612"
    },
    {
      "channel": 5,
      "note": 85,
      "start": 9.7437,
      "duration": 0.3258,
      "velocity": 85,
      "chip": "ym2612"
    },
    {
      "channel": 0,
      "note": 90,
      "start": 9.8505,
      "duration": 0.2162,
      "velocity": 96,
      "chip": "ym2612"
    },
    {
      "channel": 3,
      "note": 65,
      "start": 9.8515,
      "duration": 0.11,
      "velocity": 99,
      "chip": "ym2612"
    },
    {
      "channel": 4,
      "note": 60,
      "start": 9.8524,
      "duration": 0.1095,
      "velocity": 99,
      "chip": "ym2612"
    },
    {
      "channel": 2,
      "note": 77,
      "start": 9.9633,
      "duration": 0.2324,
      "velocity": 127,
      "chip": "ym2612"
    },
    {
      "channel": 0,
      "note": 88,
      "start": 10.0675,
      "duration": 0.1077,
      "velocity": 96,
      "chip": "ym2612"
    },
    {
      "channel": 3,
      "note": 65,
      "start": 10.0685,
      "duration": 0.1083,
      "velocity": 99,
      "chip": "ym2612"
    },
    {
      "channel": 4,
      "note": 60,
      "start": 10.0694,
      "duration": 0.1083,
      "velocity": 99,
      "chip": "ym2612"
    },
    {
      "channel": 5,
      "note": 90,
      "start": 10.0703,
      "duration": 0.2167,
      "velocity": 85,
      "chip": "ym2612"
    },
    {
      "channel": 0,
      "note": 87,
      "start": 10.1759,
      "duration": 0.1077,
      "velocity": 96,
      "chip": "ym2612"
    },
    {
      "channel": 1,
      "note": 54,
      "start": 10.1767,
      "duration": 0.1078,
      "velocity": 96,
      "chip": "ym2612"
    },
    {
      "channel": 3,
      "note": 63,
      "start": 10.1775,
      "duration": 0.1078,
      "velocity": 99,
      "chip": "ym2612"
    },
    {
      "channel": 4,
      "note": 58,
      "start": 10.1784,
      "duration": 0.1077,
      "velocity": 99,
      "chip": "ym2612"
    },
    {
      "channel": 0,
      "note": 83,
      "start": 10.2844,
      "duration": 0.1077,
      "velocity": 96,
      "chip": "ym2612"
    },
    {
      "channel": 1,
      "note": 54,
      "start": 10.2851,
      "duration": 0.1079,
      "velocity": 96,
      "chip": "ym2612"
    },
    {
      "channel": 3,
      "note": 65,
      "start": 10.286,
      "duration": 0.1074,
      "velocity": 99,
      "chip": "ym2612"
    },
    {
      "channel": 4,
      "note": 60,
      "start": 10.2869,
      "duration": 0.1073,
      "velocity": 99,
      "chip": "ym2612"
    },
    {
      "channel": 5,
      "note": 88,
      "start": 10.2878,
      "duration": 0.1073,
      "velocity": 85,
      "chip": "ym2612"
    },
    {
      "channel": 0,
      "note": 81,
      "start": 10.3929,
      "duration": 0.3247,
      "velocity": 96,
      "chip": "ym2612"
    },
    {
      "channel": 3,
      "note": 60,
      "start": 10.3941,
      "duration": 0.1071,
      "velocity": 99,
      "chip": "ym2612"
    },
    {
      "channel": 4,
      "note": 55,
      "start": 10.3949,
      "duration": 0.1071,
      "velocity": 99,
      "chip": "ym2612"
    },
    {
      "channel": 5,
      "note": 87,
      "start": 10.3958,
      "duration": 0.1071,
      "velocity": 85,
      "chip": "ym2612"
    },
    {
      "channel": 3,
      "note": 61,
      "start": 10.5018,
      "duration": 0.1111,
      "velocity": 99,
      "chip": "ym2612"
    },
    {
      "channel": 4,
      "note": 56,
      "start": 10.5027,
      "duration": 0.1106,
      "velocity": 99,
      "chip": "ym2612"
    },
    {
      "channel": 5,
      "note": 83,
      "start": 10.5036,
      "duration": 0.11,
      "velocity": 85,
      "chip": "ym2612"
    },
    {
      "channel": 1,
      "note": 54,
      "start": 10.6128,
      "duration": 0.1055,
      "velocity": 96,
      "chip": "ym2612"
    },
    {
      "channel": 5,
      "note": 81,
      "start": 10.6144,
      "duration": 0.3258,
      "velocity": 85,
      "chip": "ym2612"
    },
    {
      "channel": 2,
      "note": 37,
      "start": 10.6151,
      "duration": 0.1228,
      "velocity": 120,
      "chip": "ym2612"
    },
    {
      "channel": 0,
      "note": 83,
      "start": 10.7182,
      "duration": 0.3247,
      "velocity": 96,
      "chip": "ym2612"
    },
    {
      "channel": 1,
      "note": 54,
      "start": 10.7189,
      "duration": 0.1102,
      "velocity": 96,
      "chip": "ym2612"
    },
    {
      "channel": 3,
      "note": 58,
      "start": 10.72,
      "duration": 0.1095,
      "velocity": 99,
      "chip": "ym2612"
    },
    {
      "channel": 4,
      "note": 53,
      "start": 10.7209,
      "duration": 0.1089,
      "velocity": 99,
      "chip": "ym2612"
    },
    {
      "channel": 2,
      "note": 77,
      "start": 10.8313,
      "duration": 0.1031,
      "velocity": 127,
      "chip": "ym2612"
    },
    {
      "channel": 1,
      "note": 54,
      "start": 10.9382,
      "duration": 0.1056,
      "velocity": 96,
      "chip": "ym2612"
    },
    {
      "channel": 3,
      "note": 58,
      "start": 10.9391,
      "duration": 0.1054,
      "velocity": 99,
      "chip": "ym2612"
    },
    {
      "channel": 4,
      "note": 53,
      "start": 10.9399,
      "duration": 0.1049,
      "velocity": 99,
      "chip": "ym2612"
    },
    {
      "channel": 5,
      "note": 83,
      "start": 10.9409,
      "duration": 0.326,
      "velocity": 85,
      "chip": "ym2612"
    },
    {
      "channel": 2,
      "note": 37,
      "start": 10.9416,
      "duration": 0.1209,
      "velocity": 120,
      "chip": "ym2612"
    },
    {
      "channel": 0,
      "note": 85,
      "start": 11.0437,
      "duration": 0.2193,
      "velocity": 96,
      "chip": "ym2612"
    },
    {
      "channel": 1,
      "note": 54,
      "start": 11.0444,
      "duration": 0.1074,
      "velocity": 96,
      "chip": "ym2612"
    },
    {
      "channel": 3,
      "note": 60,
      "start": 11.1528,
      "duration": 0.1122,
      "velocity": 99,
      "chip": "ym2612"
    },
    {
      "channel": 4,
      "note": 55,
      "start": 11.1536,
      "duration": 0.1124,
      "velocity": 99,
      "chip": "ym2612"
    },
    {
      "channel": 0,
      "note": 78,
      "start": 11.2637,
      "duration": 0.1073,
      "velocity": 96,
      "chip": "ym2612"
    },
    {
      "channel": 1,
      "note": 54,
      "start": 11.2647,
      "duration": 0.1072,
      "velocity": 96,
      "chip": "ym2612"
    },
    {
      "channel": 3,
      "note": 63,
      "start": 11.2657,
      "duration": 0.1069,
      "velocity": 99,
      "chip": "ym2612"
    },
    {
      "channel": 4,
      "note": 58,
      "start": 11.2667,
      "duration": 0.1068,
      "velocity": 99,
      "chip": "ym2612"
    },
    {
      "channel": 5,
      "note": 85,
      "start": 11.2676,
      "duration": 0.2104,
      "velocity": 85,
      "chip": "ym2612"
    },
    {
      "channel": 2,
      "note": 37,
      "start": 11.2683,
      "duration": 0.0999,
      "velocity": 120,
      "chip": "ym2612"
    },
    {
      "channel": 0,
      "note": 78,
      "start": 11.3717,
      "duration": 0.105,
      "velocity": 96,
      "chip": "ym2612"
    },
    {
      "channel": 1,
      "note": 54,
      "start": 11.3725,
      "duration": 0.1045,
      "velocity": 96,
      "chip": "ym2612"
    },
    {
      "channel": 3,
      "note": 65,
      "start": 11.3734,
      "duration": 0.1039,
      "velocity": 99,
      "chip": "ym2612"
    },
    {
      "channel": 4,
      "note": 60,
      "start": 11.3743,
      "duration": 0.1034,
      "velocity": 99,
      "chip": "ym2612"
    },
    {
      "channel": 2,
      "note": 37,
      "start": 11.3755,
      "duration": 0.1201,
      "velocity": 120,
      "chip": "ym2612"
    },
    {
      "channel": 5,
      "note": 78,
      "start": 11.4788,
      "duration": 0.109,
      "velocity": 85,
      "chip": "ym2612"
    },
    {
      "channel": 0,
      "note": 78,
      "start": 11.5859,
      "duration": 0.1105,
      "velocity": 96,
      "chip": "ym2612"
    },
    {
      "channel": 3,
      "note": 65,
      "start": 11.5868,
      "duration": 0.1099,
      "velocity": 99,
      "chip": "ym2612"
    },
    {
      "channel": 4,
      "note": 60,
      "start": 11.5877,
      "duration": 0.1094,
      "velocity": 99,
      "chip": "ym2612"
    },
    {
      "channel": 5,
      "note": 78,
      "start": 11.5885,
      "duration": 0.1088,
      "velocity": 85,
      "chip": "ym2612"
    },
    {
      "channel": 2,
      "note": 77,
      "start": 11.6984,
      "duration": 0.2314,
      "velocity": 127,
      "chip": "ym2612"
    },
    {
      "channel": 0,
      "note": 73,
      "start": 11.8028,
      "duration": 0.1077,
      "velocity": 96,
      "chip": "ym2612"
    },
    {
      "channel": 3,
      "note": 65,
      "start": 11.8037,
      "duration": 0.1083,
      "velocity": 99,
      "chip": "ym2612"
    },
    {
      "channel": 4,
      "note": 60,
      "start": 11.8046,
      "duration": 0.1078,
      "velocity": 99,
      "chip": "ym2612"
    },
    {
      "channel": 5,
      "note": 78,
      "start": 11.8054,
      "duration": 0.1073,
      "velocity": 85,
      "chip": "ym2612"
    },
    {
      "channel": 0,
      "note": 76,
      "start": 11.9112,
      "duration": 0.1078,
      "velocity": 96,
      "chip": "ym2612"
    },
    {
      "channel": 1,
      "note": 54,
      "start": 11.9119,
      "duration": 0.1073,
      "velocity": 96,
      "chip": "ym2612"
    },
    {
      "channel": 1,
      "note": 54,
      "start": 12.0198,
      "duration": 0.1085,
      "velocity": 96,
      "chip": "ym2612"
    },
    {
      "channel": 3,
      "note": 65,
      "start": 12.0207,
      "duration": 0.108,
      "velocity": 99,
      "chip": "ym2612"
    },
    {
      "channel": 4,
      "note": 60,
      "start": 12.0215,
      "duration": 0.1074,
      "velocity": 99,
      "chip": "ym2612"
    },
    {
      "channel": 5,
      "note": 73,
      "start": 12.0224,
      "duration": 0.1069,
      "velocity": 85,
      "chip": "ym2612"
    },
    {
      "channel": 0,
      "note": 81,
      "start": 12.1282,
      "duration": 0.87,
      "velocity": 96,
      "chip": "ym2612"
    },
    {
      "channel": 5,
      "note": 76,
      "start": 12.13,
      "duration": 0.1081,
      "velocity": 85,
      "chip": "ym2612"
    },
    {
      "channel": 3,
      "note": 65,
      "start": 12.2371,
      "duration": 0.1111,
      "velocity": 99,
      "chip": "ym2612"
    },
    {
      "channel": 4,
      "note": 60,
      "start": 12.238,
      "duration": 0.1106,
      "velocity": 99,
      "chip": "ym2612"
    },
    {
      "channel": 1,
      "note": 54,
      "start": 12.3481,
      "duration": 0.1051,
      "velocity": 96,
      "chip": "ym2612"
    },
    {
      "channel": 5,
      "note": 81,
      "start": 12.3497,
      "duration": 0.8637,
      "velocity": 85,
      "chip": "ym2612"
    },
    {
      "channel": 2,
      "note": 37,
      "start": 12.3504,
      "duration": 0.1228,
      "velocity": 120,
      "chip": "ym2612"
    },
    {
      "channel": 1,
      "note": 54,
      "start": 12.4538,
      "duration": 0.1107,
      "velocity": 96,
      "chip": "ym2612"
    },
    {
      "channel": 3,
      "note": 65,
      "start": 12.4547,
      "duration": 0.1102,
      "velocity": 99,
      "chip": "ym2612"
    },
    {
      "channel": 4,
      "note": 60,
      "start": 12.4555,
      "duration": 0.1104,
      "velocity": 99,
      "chip": "ym2612"
    },
    {
      "channel": 3,
      "note": 69,
      "start": 12.5657,
      "duration": 0.4344,
      "velocity": 99,
      "chip": "ym2612"
    },
    {
      "channel": 4,
      "note": 64,
      "start": 12.5666,
      "duration": 0.4345,
      "velocity": 99,
      "chip": "ym2612"
    },
    {
      "channel": 2,
      "note": 77,
      "start": 12.5679,
      "duration": 0.1017,
      "velocity": 127,
      "chip": "ym2612"
    },
    {
      "channel": 1,
      "note": 54,
      "start": 12.6735,
      "duration": 0.1051,
      "velocity": 96,
      "chip": "ym2612"
    },
    {
      "channel": 2,
      "note": 37,
      "start": 12.6757,
      "duration": 0.1228,
      "velocity": 120,
      "chip": "ym2612"
    },
    {
      "channel": 1,
      "note": 54,
      "start": 12.7792,
      "duration": 0.1081,
      "velocity": 96,
      "chip": "ym2612"
    },
    {
      "channel": 0,
      "note": 78,
      "start": 12.9989,
      "duration": 0.1074,
      "velocity": 96,
      "chip": "ym2612"
    },
    {
      "channel": 1,
      "note": 54,
      "start": 12.9999,
      "duration": 0.1073,
      "velocity": 96,
      "chip": "ym2612"
    },
    {
      "channel": 3,
      "note": 63,
      "start": 13.0009,
      "duration": 0.107,
      "velocity": 99,
      "chip": "ym2612"
    },
    {
      "channel": 4,
      "note": 58,
      "start": 13.0018,
      "duration": 0.107,
      "velocity": 99,
      "chip": "ym2612"
    },
    {
      "channel": 2,
      "note": 37,
      "start": 13.003,
      "duration": 0.1005,
      "velocity": 120,
      "chip": "ym2612"
    },
    {
      "channel": 0,
      "note": 78,
      "start": 13.107,
      "duration": 0.105,
      "velocity": 96,
      "chip": "ym2612"
    },
    {
      "channel": 1,
      "note": 54,
      "start": 13.1077,
      "duration": 0.1046,
      "velocity": 96,
      "chip": "ym2612"
    },
    {
      "channel": 3,
      "note": 65,
      "start": 13.1086,
      "duration": 0.104,
      "velocity": 99,
      "chip": "ym2612"
    },
    {
      "channel": 4,
      "note": 60,
      "start": 13.1095,
      "duration": 0.1034,
      "velocity": 99,
      "chip": "ym2612"
    },
    {
      "channel": 2,
      "note": 37,
      "start": 13.1107,
      "duration": 0.1202,
      "velocity": 120,
      "chip": "ym2612"
    },
    {
      "channel": 5,
      "note": 78,
      "start": 13.2141,
      "duration": 0.1091,
      "velocity": 85,
      "chip": "ym2612"
    },
    {
      "channel": 0,
      "note": 81,
      "start": 13.3212,
      "duration": 0.1104,
      "velocity": 96,
      "chip": "ym2612"
    },
    {
      "channel": 3,
      "note": 65,
      "start": 13.3221,
      "duration": 0.1099,
      "velocity": 99,
      "chip": "ym2612"
    },
    {
      "channel": 4,
      "note": 60,
      "start": 13.323,
      "duration": 0.1093,
      "velocity": 99,
      "chip": "ym2612"
    },
    {
      "channel": 5,
      "note": 78,
      "start": 13.3239,
      "duration": 0.1087,
      "velocity": 85,
      "chip": "ym2612"
    },
    {
      "channel": 2,
      "note": 77,
      "start": 13.4336,
      "duration": 0.2322,
      "velocity": 127,
      "chip": "ym2612"
    },
    {
      "channel": 0,
      "note": 80,
      "start": 13.5381,
      "duration": 0.1079,
      "velocity": 96,
      "chip": "ym2612"
    },
    {
      "channel": 3,
      "note": 65,
      "start": 13.539,
      "duration": 0.1085,
      "velocity": 99,
      "chip": "ym2612"
    },
    {
      "channel": 4,
      "note": 60,
      "start": 13.5399,
      "duration": 0.1085,
      "velocity": 99,
      "chip": "ym2612"
    },
    {
      "channel": 5,
      "note": 81,
      "start": 13.5409,
      "duration": 0.1084,
      "velocity": 85,
      "chip": "ym2612"
    },
    {
      "channel": 0,
      "note": 78,
      "start": 13.6467,
      "duration": 0.1076,
      "velocity": 96,
      "chip": "ym2612"
    },
    {
      "channel": 1,
      "note": 54,
      "start": 13.6474,
      "duration": 0.1078,
      "velocity": 96,
      "chip": "ym2612"
    },
    {
      "channel": 3,
      "note": 63,
      "start": 13.6483,
      "duration": 0.1076,
      "velocity": 99,
      "chip": "ym2612"
    },
    {
      "channel": 4,
      "note": 58,
      "start": 13.6491,
      "duration": 0.1076,
      "velocity": 99,
      "chip": "ym2612"
    },
    {
      "channel": 0,
      "note": 76,
      "start": 13.7549,
      "duration": 0.1078,
      "velocity": 96,
      "chip": "ym2612"
    },
    {
      "channel": 1,
      "note": 54,
      "start": 13.7557,
      "duration": 0.108,
      "velocity": 96,
      "chip": "ym2612"
    },
    {
      "channel": 3,
      "note": 65,
      "start": 13.7565,
      "duration": 0.1074,
      "velocity": 99,
      "chip": "ym2612"
    },
    {
      "channel": 4,
      "note": 60,
      "start": 13.7575,
      "duration": 0.1074,
      "velocity": 99,
      "chip": "ym2612"
    },
    {
      "channel": 5,
      "note": 80,
      "start": 13.7583,
      "duration": 0.1074,
      "velocity": 85,
      "chip": "ym2612"
    },
    {
      "channel": 0,
      "note": 73,
      "start": 13.8634,
      "duration": 0.1106,
      "velocity": 96,
      "chip": "ym2612"
    },
    {
      "channel": 3,
      "note": 60,
      "start": 13.8647,
      "duration": 0.1103,
      "velocity": 99,
      "chip": "ym2612"
    },
    {
      "channel": 4,
      "note": 55,
      "start": 13.8656,
      "duration": 0.1102,
      "velocity": 99,
      "chip": "ym2612"
    },
    {
      "channel": 5,
      "note": 78,
      "start": 13.8664,
      "duration": 0.1103,
      "velocity": 85,
      "chip": "ym2612"
    },
    {
      "channel": 0,
      "note": 73,
      "start": 13.9747,
      "duration": 0.1076,
      "velocity": 96,
      "chip": "ym2612"
    },
    {
      "channel": 3,
      "note": 61,
      "start": 13.9757,
      "duration": 0.1083,
      "velocity": 99,
      "chip": "ym2612"
    },
    {
      "channel": 4,
      "note": 56,
      "start": 13.9766,
      "duration": 0.1077,
      "velocity": 99,
      "chip": "ym2612"
    },
    {
      "channel": 5,
      "note": 76,
      "start": 13.9774,
      "duration": 0.1072,
      "velocity": 85,
      "chip": "ym2612"
    },
    {
      "channel": 2,
      "note": 77,
      "start": 13.9782,
      "duration": 0.0291,
      "velocity": 127,
      "chip": "ym2612"
    },
    {
      "channel": 2,
      "note": 77,
      "start": 14.0128,
      "duration": 0.0668,
      "velocity": 127,
      "chip": "ym2612"
    },
    {
      "channel": 0,
      "note": 66,
      "start": 14.0831,
      "duration": 0.1078,
      "velocity": 96,
      "chip": "ym2612"
    },
    {
      "channel": 1,
      "note": 54,
      "start": 14.0838,
      "duration": 0.108,
      "velocity": 96,
      "chip": "ym2612"
    },
    {
      "channel": 5,
      "note": 73,
      "start": 14.0853,
      "duration": 0.1092,
      "velocity": 85,
      "chip": "ym2612"
    },
    {
      "channel": 2,
      "note": 77,
      "start": 14.0861,
      "duration": 0.102,
      "velocity": 127,
      "chip": "ym2612"
    },
    {
      "channel": 0,
      "note": 71,
      "start": 14.1916,
      "duration": 0.1077,
      "velocity": 96,
      "chip": "ym2612"
    },
    {
      "channel": 1,
      "note": 54,
      "start": 14.1923,
      "duration": 0.1079,
      "velocity": 96,
      "chip": "ym2612"
    },
    {
      "channel": 3,
      "note": 61,
      "start": 14.1933,
      "duration": 0.1073,
      "velocity": 99,
      "chip": "ym2612"
    },
    {
      "channel": 4,
      "note": 56,
      "start": 14.1942,
      "duration": 0.1066,
      "velocity": 99,
      "chip": "ym2612"
    },
    {
      "channel": 5,
      "note": 73,
      "start": 14.1951,
      "duration": 0.106,
      "velocity": 85,
      "chip": "ym2612"
    },
    {
      "channel": 2,
      "note": 77,
      "start": 14.196,
      "duration": 0.1006,
      "velocity": 127,
      "chip": "ym2612"
    },
    {
      "channel": 0,
      "note": 71,
      "start": 14.3,
      "duration": 0.1078,
      "velocity": 96,
      "chip": "ym2612"
    },
    {
      "channel": 5,
      "note": 66,
      "start": 14.3019,
      "duration": 0.1092,
      "velocity": 85,
      "chip": "ym2612"
    },
    {
      "channel": 2,
      "note": 77,
      "start": 14.3027,
      "duration": 0.1022,
      "velocity": 127,
      "chip": "ym2612"
    },
    {
      "channel": 0,
      "note": 66,
      "start": 14.4085,
      "duration": 0.1077,
      "velocity": 96,
      "chip": "ym2612"
    },
    {
      "channel": 1,
      "note": 54,
      "start": 14.4092,
      "duration": 0.1078,
      "velocity": 96,
      "chip": "ym2612"
    },
    {
      "channel": 3,
      "note": 63,
      "start": 14.4101,
      "duration": 0.1077,
      "velocity": 99,
      "chip": "ym2612"
    },
    {
      "channel": 4,
      "note": 58,
      "start": 14.411,
      "duration": 0.1077,
      "velocity": 99,
      "chip": "ym2612"
    },
    {
      "channel": 5,
      "note": 71,
      "start": 14.4119,
      "duration": 0.1076,
      "velocity": 85,
      "chip": "ym2612"
    },
    {
      "channel": 2,
      "note": 77,
      "start": 14.4127,
      "duration": 0.1007,
      "velocity": 127,
      "chip": "ym2612"
    },
    {
      "channel": 0,
      "note": 69,
      "start": 14.5169,
      "duration": 0.1078,
      "velocity": 96,
      "chip": "ym2612"
    },
    {
      "channel": 1,
      "note": 54,
      "start": 14.5176,
      "duration": 0.1079,
      "velocity": 96,
      "chip": "ym2612"
    },
    {
      "channel": 3,
      "note": 61,
      "start": 14.5185,
      "duration": 0.1074,
      "velocity": 99,
      "chip": "ym2612"
    },
    {
      "channel": 4,
      "note": 56,
      "start": 14.5194,
      "duration": 0.1074,
      "velocity": 99,
      "chip": "ym2612"
    },
    {
      "channel": 5,
      "note": 71,
      "start": 14.5203,
      "duration": 0.1074,
      "velocity": 85,
      "chip": "ym2612"
    },
    {
      "channel": 2,
      "note": 77,
      "start": 14.5211,
      "duration": 0.1008,
      "velocity": 127,
      "chip": "ym2612"
    },
    {
      "channel": 0,
      "note": 61,
      "start": 14.6254,
      "duration": 0.1081,
      "velocity": 96,
      "chip": "ym2612"
    },
    {
      "channel": 3,
      "note": 63,
      "start": 14.6266,
      "duration": 0.1087,
      "velocity": 99,
      "chip": "ym2612"
    },
    {
      "channel": 4,
      "note": 58,
      "start": 14.6275,
      "duration": 0.1088,
      "velocity": 99,
      "chip": "ym2612"
    },
    {
      "channel": 5,
      "note": 66,
      "start": 14.6283,
      "duration": 0.1088,
      "velocity": 85,
      "chip": "ym2612"
    },
    {
      "channel": 2,
      "note": 77,
      "start": 14.6292,
      "duration": 0.1013,
      "velocity": 127,
      "chip": "ym2612"
    },
    {
      "channel": 0,
      "note": 66,
      "start": 14.7342,
      "duration": 0.6469,
      "velocity": 96,
      "chip": "ym2612"
    },
    {
      "channel": 1,
      "note": 50,
      "start": 14.7351,
      "duration": 0.2155,
      "velocity": 96,
      "chip": "ym2612"
    },
    {
      "channel": 3,
      "note": 65,
      "start": 14.7361,
      "duration": 0.1035,
      "velocity": 99,
      "chip": "ym2612"
    },
    {
      "channel": 4,
      "note": 61,
      "start": 14.7371,
      "duration": 0.1035,
      "velocity": 99,
      "chip": "ym2612"
    },
    {
      "channel": 5,
      "note": 69,
      "start": 14.738,
      "duration": 0.1035,
      "velocity": 85,
      "chip": "ym2612"
    },
    {
      "channel": 2,
      "note": 37,
      "start": 14.7386,
      "duration": 0.1206,
      "velocity": 120,
      "chip": "ym2612"
    },
    {
      "channel": 3,
      "note": 65,
      "start": 14.8404,
      "duration": 0.1109,
      "velocity": 99,
      "chip": "ym2612"
    },
    {
      "channel": 4,
      "note": 61,
      "start": 14.8412,
      "duration": 0.1103,
      "velocity": 99,
      "chip": "ym2612"
    },
    {
      "channel": 5,
      "note": 61,
      "start": 14.8422,
      "duration": 0.1099,
      "velocity": 85,
      "chip": "ym2612"
    },
    {
      "channel": 1,
      "note": 50,
      "start": 14.9511,
      "duration": 0.2163,
      "velocity": 96,
      "chip": "ym2612"
    },
    {
      "channel": 5,
      "note": 66,
      "start": 14.9528,
      "duration": 0.6466,
      "velocity": 85,
      "chip": "ym2612"
    },
    {
      "channel": 2,
      "note": 37,
      "start": 14.9535,
      "duration": 0.1217,
      "velocity": 120,
      "chip": "ym2612"
    },
    {
      "channel": 1,
      "note": 50,
      "start": 15.168,
      "duration": 0.1079,
      "velocity": 96,
      "chip": "ym2612"
    },
    {
      "channel": 2,
      "note": 37,
      "start": 15.1694,
      "duration": 0.1032,
      "velocity": 120,
      "chip": "ym2612"
    },
    {
      "channel": 1,
      "note": 50,
      "start": 15.2765,
      "duration": 0.2163,
      "velocity": 96,
      "chip": "ym2612"
    },
    {
      "channel": 2,
      "note": 37,
      "start": 15.2778,
      "duration": 0.1237,
      "velocity": 120,
      "chip": "ym2612"
    },
    {
      "channel": 0,
      "note": 73,
      "start": 15.3818,
      "duration": 0.6528,
      "velocity": 96,
      "chip": "ym2612"
    },
    {
      "channel": 3,
      "note": 65,
      "start": 15.383,
      "duration": 0.1105,
      "velocity": 99,
      "chip": "ym2612"
    },
    {
      "channel": 4,
      "note": 61,
      "start": 15.3839,
      "duration": 0.1105,
      "velocity": 99,
      "chip": "ym2612"
    },
    {
      "channel": 1,
      "note": 50,
      "start": 15.4934,
      "duration": 0.2164,
      "velocity": 96,
      "chip": "ym2612"
    },
    {
      "channel": 3,
      "note": 65,
      "start": 15.4942,
      "duration": 0.1046,
      "velocity": 99,
      "chip": "ym2612"
    },
    {
      "channel": 4,
      "note": 61,
      "start": 15.4951,
      "duration": 0.104,
      "velocity": 99,
      "chip": "ym2612"
    },
    {
      "channel": 2,
      "note": 37,
      "start": 15.4963,
      "duration": 0.1213,
      "velocity": 120,
      "chip": "ym2612"
    },
    {
      "channel": 5,
      "note": 73,
      "start": 15.6002,
      "duration": 0.6536,
      "velocity": 85,
      "chip": "ym2612"
    },
    {
      "channel": 1,
      "note": 50,
      "start": 15.7103,
      "duration": 0.1079,
      "velocity": 96,
      "chip": "ym2612"
    },
    {
      "channel": 4,
      "note": 72,
      "start": 15.7114,
      "duration": 0.2134,
      "velocity": 99,
      "chip": "ym2612"
    },
    {
      "channel": 2,
      "note": 37,
      "start": 15.7126,
      "duration": 0.1024,
      "velocity": 120,
      "chip": "ym2612"
    },
    {
      "channel": 1,
      "note": 50,
      "start": 15.8188,
      "duration": 0.1051,
      "velocity": 96,
      "chip": "ym2612"
    },
    {
      "channel": 2,
      "note": 37,
      "start": 15.8204,
      "duration": 0.123,
      "velocity": 120,
      "chip": "ym2612"
    },
    {
      "channel": 1,
      "note": 50,
      "start": 15.9245,
      "duration": 0.1109,
      "velocity": 96,
      "chip": "ym2612"
    },
    {
      "channel": 4,
      "note": 70,
      "start": 15.9255,
      "duration": 0.2157,
      "velocity": 99,
      "chip": "ym2612"
    },
    {
      "channel": 0,
      "note": 78,
      "start": 16.0354,
      "duration": 0.867,
      "velocity": 96,
      "chip": "ym2612"
    },
    {
      "channel": 1,
      "note": 62,
      "start": 16.036,
      "duration": 0.216,
      "velocity": 96,
      "chip": "ym2612"
    },
    {
      "channel": 2,
      "note": 77,
      "start": 16.0378,
      "duration": 0.2109,
      "velocity": 127,
      "chip": "ym2612"
    },
    {
      "channel": 4,
      "note": 68,
      "start": 16.142,
      "duration": 0.1109,
      "velocity": 99,
      "chip": "ym2612"
    },
    {
      "channel": 1,
      "note": 50,
      "start": 16.2526,
      "duration": 0.2168,
      "velocity": 96,
      "chip": "ym2612"
    },
    {
      "channel": 4,
      "note": 67,
      "start": 16.2536,
      "duration": 0.1044,
      "velocity": 99,
      "chip": "ym2612"
    },
    {
      "channel": 5,
      "note": 78,
      "start": 16.2545,
      "duration": 0.8649,
      "velocity": 85,
      "chip": "ym2612"
    },
    {
      "channel": 2,
      "note": 37,
      "start": 16.2552,
      "duration": 0.122,
      "velocity": 120,
      "chip": "ym2612"
    },
    {
      "channel": 4,
      "note": 65,
      "start": 16.3588,
      "duration": 0.1123,
      "velocity": 99,
      "chip": "ym2612"
    },
    {
      "channel": 1,
      "note": 50,
      "start": 16.47,
      "duration": 0.2158,
      "velocity": 96,
      "chip": "ym2612"
    },
    {
      "channel": 3,
      "note": 65,
      "start": 16.4709,
      "duration": 0.1041,
      "velocity": 99,
      "chip": "ym2612"
    },
    {
      "channel": 4,
      "note": 61,
      "start": 16.4718,
      "duration": 0.1041,
      "velocity": 99,
      "chip": "ym2612"
    },
    {
      "channel": 2,
      "note": 37,
      "start": 16.473,
      "duration": 0.1215,
      "velocity": 120,
      "chip": "ym2612"
    },
    {
      "channel": 3,
      "note": 65,
      "start": 16.5757,
      "duration": 0.1108,
      "velocity": 99,
      "chip": "ym2612"
    },
    {
      "channel": 4,
      "note": 61,
      "start": 16.5766,
      "duration": 0.1102,
      "velocity": 99,
      "chip": "ym2612"
    },
    {
      "channel": 1,
      "note": 50,
      "start": 16.6863,
      "duration": 0.2163,
      "velocity": 96,
      "chip": "ym2612"
    },
    {
      "channel": 2,
      "note": 37,
      "start": 16.6883,
      "duration": 0.1224,
      "velocity": 120,
      "chip": "ym2612"
    },
    {
      "channel": 1,
      "note": 50,
      "start": 16.9032,
      "duration": 0.1076,
      "velocity": 96,
      "chip": "ym2612"
    },
    {
      "channel": 2,
      "note": 37,
      "start": 16.9046,
      "duration": 0.1034,
      "velocity": 120,
      "chip": "ym2612"
    },
    {
      "channel": 1,
      "note": 50,
      "start": 17.0114,
      "duration": 0.2171,
      "velocity": 96,
      "chip": "ym2612"
    },
    {
      "channel": 2,
      "note": 37,
      "start": 17.0128,
      "duration": 0.1235,
      "velocity": 120,
      "chip": "ym2612"
    },
    {
      "channel": 0,
      "note": 78,
      "start": 17.1171,
      "duration": 0.1106,
      "velocity": 96,
      "chip": "ym2612"
    },
    {
      "channel": 3,
      "note": 65,
      "start": 17.1183,
      "duration": 0.1109,
      "velocity": 99,
      "chip": "ym2612"
    },
    {
      "channel": 4,
      "note": 61,
      "start": 17.1193,
      "duration": 0.1108,
      "velocity": 99,
      "chip": "ym2612"
    },
    {
      "channel": 0,
      "note": 80,
      "start": 17.2283,
      "duration": 0.105,
      "velocity": 96,
      "chip": "ym2612"
    },
    {
      "channel": 1,
      "note": 50,
      "start": 17.229,
      "duration": 0.216,
      "velocity": 96,
      "chip": "ym2612"
    },
    {
      "channel": 3,
      "note": 65,
      "start": 17.2299,
      "duration": 0.1046,
      "velocity": 99,
      "chip": "ym2612"
    },
    {
      "channel": 4,
      "note": 61,
      "start": 17.2308,
      "duration": 0.1041,
      "velocity": 99,
      "chip": "ym2612"
    },
    {
      "channel": 2,
      "note": 37,
      "start": 17.2316,
      "duration": 0.1214,
      "velocity": 120,
      "chip": "ym2612"
    },
    {
      "channel": 0,
      "note": 81,
      "start": 17.3341,
      "duration": 0.2192,
      "velocity": 96,
      "chip": "ym2612"
    },
    {
      "channel": 5,
      "note": 78,
      "start": 17.336,
      "duration": 0.1108,
      "velocity": 85,
      "chip": "ym2612"
    },
    {
      "channel": 1,
      "note": 50,
      "start": 17.4456,
      "duration": 0.1085,
      "velocity": 96,
      "chip": "ym2612"
    },
    {
      "channel": 4,
      "note": 72,
      "start": 17.4467,
      "duration": 0.2134,
      "velocity": 99,
      "chip": "ym2612"
    },
    {
      "channel": 5,
      "note": 80,
      "start": 17.4475,
      "duration": 0.1078,
      "velocity": 85,
      "chip": "ym2612"
    },
    {
      "channel": 2,
      "note": 37,
      "start": 17.4483,
      "duration": 0.1022,
      "velocity": 120,
      "chip": "ym2612"
    },
    {
      "channel": 0,
      "note": 80,
      "start": 17.554,
      "duration": 0.216,
      "velocity": 96,
      "chip": "ym2612"
    },
    {
      "channel": 1,
      "note": 50,
      "start": 17.5547,
      "duration": 0.1045,
      "velocity": 96,
      "chip": "ym2612"
    },
    {
      "channel": 5,
      "note": 81,
      "start": 17.556,
      "duration": 0.216,
      "velocity": 85,
      "chip": "ym2612"
    },
    {
      "channel": 2,
      "note": 37,
      "start": 17.5567,
      "duration": 0.122,
      "velocity": 120,
      "chip": "ym2612"
    },
    {
      "channel": 1,
      "note": 50,
      "start": 17.6598,
      "duration": 0.1111,
      "velocity": 96,
      "chip": "ym2612"
    },
    {
      "channel": 4,
      "note": 73,
      "start": 17.6607,
      "duration": 0.2158,
      "velocity": 99,
      "chip": "ym2612"
    },
    {
      "channel": 0,
      "note": 78,
      "start": 17.7706,
      "duration": 0.2162,
      "velocity": 96,
      "chip": "ym2612"
    },
    {
      "channel": 1,
      "note": 62,
      "start": 17.7714,
      "duration": 0.2163,
      "velocity": 96,
      "chip": "ym2612"
    },
    {
      "channel": 5,
      "note": 80,
      "start": 17.7727,
      "duration": 0.2167,
      "velocity": 85,
      "chip": "ym2612"
    },
    {
      "channel": 2,
      "note": 77,
      "start": 17.7736,
      "duration": 0.2104,
      "velocity": 127,
      "chip": "ym2612"
    },
    {
      "channel": 4,
      "note": 75,
      "start": 17.8772,
      "duration": 0.1113,
      "velocity": 99,
      "chip": "ym2612"
    },
    {
      "channel": 0,
      "note": 81,
      "start": 17.9876,
      "duration": 0.2166,
      "velocity": 96,
      "chip": "ym2612"
    },
    {
      "channel": 1,
      "note": 50,
      "start": 17.9883,
      "duration": 0.2168,
      "velocity": 96,
      "chip": "ym2612"
    },
    {
      "channel": 4,
      "note": 77,
      "start": 17.9892,
      "duration": 0.1042,
      "velocity": 99,
      "chip": "ym2612"
    },
    {
      "channel": 5,
      "note": 78,
      "start": 17.9902,
      "duration": 0.2176,
      "velocity": 85,
      "chip": "ym2612"
    },
    {
      "channel": 2,
      "note": 37,
      "start": 17.9909,
      "duration": 0.1216,
      "velocity": 120,
      "chip": "ym2612"
    },
    {
      "channel": 4,
      "note": 80,
      "start": 18.0941,
      "duration": 0.1127,
      "velocity": 99,
      "chip": "ym2612"
    },
    {
      "channel": 0,
      "note": 76,
      "start": 18.2049,
      "duration": 0.6468,
      "velocity": 96,
      "chip": "ym2612"
    },
    {
      "channel": 1,
      "note": 52,
      "start": 18.2057,
      "duration": 0.2155,
      "velocity": 96,
      "chip": "ym2612"
    },
    {
      "channel": 3,
      "note": 67,
      "start": 18.2067,
      "duration": 0.1036,
      "velocity": 99,
      "chip": "ym2612"
    },
    {
      "channel": 4,
      "note": 63,
      "start": 18.2076,
      "duration": 0.1036,
      "velocity": 99,
      "chip": "ym2612"
    },
    {
      "channel": 5,
      "note": 81,
      "start": 18.2085,
      "duration": 0.2141,
      "velocity": 85,
      "chip": "ym2612"
    },
    {
      "channel": 2,
      "note": 37,
      "start": 18.2092,
      "duration": 0.1206,
      "velocity": 120,
      "chip": "ym2612"
    },
    {
      "channel": 3,
      "note": 67,
      "start": 18.311,
      "duration": 0.1108,
      "velocity": 99,
      "chip": "ym2612"
    },
    {
      "channel": 4,
      "note": 63,
      "start": 18.3119,
      "duration": 0.1102,
      "velocity": 99,
      "chip": "ym2612"
    },
    {
      "channel": 1,
      "note": 52,
      "start": 18.4217,
      "duration": 0.2164,
      "velocity": 96,
      "chip": "ym2612"
    },
    {
      "channel": 5,
      "note": 76,
      "start": 18.4234,
      "duration": 0.6468,
      "velocity": 85,
      "chip": "ym2612"
    },
    {
      "channel": 2,
      "note": 37,
      "start": 18.4241,
      "duration": 0.1219,
      "velocity": 120,
      "chip": "ym2612"
    },
    {
      "channel": 1,
      "note": 52,
      "start": 18.6387,
      "duration": 0.1078,
      "velocity": 96,
      "chip": "ym2612"
    },
    {
      "channel": 2,
      "note": 37,
      "start": 18.64,
      "duration": 0.1032,
      "velocity": 120,
      "chip": "ym2612"
    },
    {
      "channel": 1,
      "note": 52,
      "start": 18.7471,
      "duration": 0.2163,
      "velocity": 96,
      "chip": "ym2612"
    },
    {
      "channel": 2,
      "note": 37,
      "start": 18.7484,
      "duration": 0.1236,
      "velocity": 120,
      "chip": "ym2612"
    },
    {
      "channel": 0,
      "note": 71,
      "start": 18.8524,
      "duration": 0.6528,
      "velocity": 96,
      "chip": "ym2612"
    },
    {
      "channel": 3,
      "note": 67,
      "start": 18.8536,
      "duration": 0.1105,
      "velocity": 99,
      "chip": "ym2612"
    },
    {
      "channel": 4,
      "note": 63,
      "start": 18.8545,
      "duration": 0.1106,
      "velocity": 99,
      "chip": "ym2612"
    },
    {
      "channel": 1,
      "note": 52,
      "start": 18.964,
      "duration": 0.2163,
      "velocity": 96,
      "chip": "ym2612"
    },
    {
      "channel": 3,
      "note": 67,
      "start": 18.9649,
      "duration": 0.1046,
      "velocity": 99,
      "chip": "ym2612"
    },
    {
      "channel": 4,
      "note": 63,
      "start": 18.9657,
      "duration": 0.1041,
      "velocity": 99,
      "chip": "ym2612"
    },
    {
      "channel": 2,
      "note": 37,
      "start": 18.967,
      "duration": 0.1212,
      "velocity": 120,
      "chip": "ym2612"
    },
    {
      "channel": 5,
      "note": 71,
      "start": 19.0708,
      "duration": 0.6527,
      "velocity": 85,
      "chip": "ym2612"
    },
    {
      "channel": 1,
      "note": 52,
      "start": 19.181,
      "duration": 0.108,
      "velocity": 96,
      "chip": "ym2612"
    },
    {
      "channel": 2,
      "note": 37,
      "start": 19.1823,
      "duration": 0.1032,
      "velocity": 120,
      "chip": "ym2612"
    },
    {
      "channel": 1,
      "note": 52,
      "start": 19.2895,
      "duration": 0.105,
      "velocity": 96,
      "chip": "ym2612"
    },
    {
      "channel": 2,
      "note": 37,
      "start": 19.2908,
      "duration": 0.1227,
      "velocity": 120,
      "chip": "ym2612"
    },
    {
      "channel": 1,
      "note": 52,
      "start": 19.3951,
      "duration": 0.111,
      "velocity": 96,
      "chip": "ym2612"
    },
    {
      "channel": 0,
      "note": 68,
      "start": 19.5059,
      "duration": 2.1686,
      "velocity": 96,
      "chip": "ym2612"
    },
    {
      "channel": 1,
      "note": 64,
      "start": 19.5066,
      "duration": 0.216,
      "velocity": 96,
      "chip": "ym2612"
    },
    {
      "channel": 2,
      "note": 77,
      "start": 19.5082,
      "duration": 0.2111,
      "velocity": 127,
      "chip": "ym2612"
    },
    {
      "channel": 1,
      "note": 52,
      "start": 19.7232,
      "duration": 0.2166,
      "velocity": 96,
      "chip": "ym2612"
    },
    {
      "channel": 5,
      "note": 68,
      "start": 19.7243,
      "duration": 2.169,
      "velocity": 85,
      "chip": "ym2612"
    },
    {
      "channel": 2,
      "note": 37,
      "start": 19.725,
      "duration": 0.1224,
      "velocity": 120,
      "chip": "ym2612"
    },
    {
      "channel": 1,
      "note": 52,
      "start": 19.9404,
      "duration": 0.216,
      "velocity": 96,
      "chip": "ym2612"
    },
    {
      "channel": 3,
      "note": 67,
      "start": 19.9412,
      "duration": 0.1043,
      "velocity": 99,
      "chip": "ym2612"
    },
    {
      "channel": 4,
      "note": 63,
      "start": 19.9422,
      "duration": 0.1043,
      "velocity": 99,
      "chip": "ym2612"
    },
    {
      "channel": 2,
      "note": 37,
      "start": 19.9434,
      "duration": 0.1217,
      "velocity": 120,
      "chip": "ym2612"
    },
    {
      "channel": 3,
      "note": 67,
      "start": 20.0463,
      "duration": 0.1107,
      "velocity": 99,
      "chip": "ym2612"
    },
    {
      "channel": 4,
      "note": 63,
      "start": 20.0472,
      "duration": 0.1102,
      "velocity": 99,
      "chip": "ym2612"
    },
    {
      "channel": 1,
      "note": 52,
      "start": 20.157,
      "duration": 0.2164,
      "velocity": 96,
      "chip": "ym2612"
    },
    {
      "channel": 2,
      "note": 77,
      "start": 20.1589,
      "duration": 0.0303,
      "velocity": 127,
      "chip": "ym2612"
    },
    {
      "channel": 2,
      "note": 77,
      "start": 20.1942,
      "duration": 0.0674,
      "velocity": 127,
      "chip": "ym2612"
    },
    {
      "channel": 3,
      "note": 67,
      "start": 20.2659,
      "duration": 0.1081,
      "velocity": 99,
      "chip": "ym2612"
    },
    {
      "channel": 4,
      "note": 63,
      "start": 20.2668,
      "duration": 0.1081,
      "velocity": 99,
      "chip": "ym2612"
    },
    {
      "channel": 2,
      "note": 77,
      "start": 20.2682,
      "duration": 0.1018,
      "velocity": 127,
      "chip": "ym2612"
    },
    {
      "channel": 1,
      "note": 52,
      "start": 20.3739,
      "duration": 0.1079,
      "velocity": 96,
      "chip": "ym2612"
    },
    {
      "channel": 3,
      "note": 67,
      "start": 20.3749,
      "duration": 0.1078,
      "velocity": 99,
      "chip": "ym2612"
    },
    {
      "channel": 4,
      "note": 63,
      "start": 20.3757,
      "duration": 0.1073,
      "velocity": 99,
      "chip": "ym2612"
    },
    {
      "channel": 2,
      "note": 77,
      "start": 20.377,
      "duration": 0.1016,
      "velocity": 127,
      "chip": "ym2612"
    },
    {
      "channel": 1,
      "note": 52,
      "start": 20.4824,
      "duration": 0.2163,
      "velocity": 96,
      "chip": "ym2612"
    },
    {
      "channel": 2,
      "note": 77,
      "start": 20.4844,
      "duration": 0.2111,
      "velocity": 127,
      "chip": "ym2612"
    },
    {
      "channel": 1,
      "note": 52,
      "start": 20.6993,
      "duration": 0.2163,
      "velocity": 96,
      "chip": "ym2612"
    },
    {
      "channel": 2,
      "note": 37,
      "start": 20.7007,
      "duration": 0.1228,
      "velocity": 120,
      "chip": "ym2612"
    },
    {
      "channel": 1,
      "note": 52,
      "start": 20.9162,
      "duration": 0.108,
      "velocity": 96,
      "chip": "ym2612"
    },
    {
      "channel": 2,
      "note": 77,
      "start": 20.9177,
      "duration": 0.1032,
      "velocity": 127,
      "chip": "ym2612"
    },
    {
      "channel": 1,
      "note": 52,
      "start": 21.0247,
      "duration": 0.1078,
      "velocity": 96,
      "chip": "ym2612"
    },
    {
      "channel": 2,
      "note": 37,
      "start": 21.0261,
      "duration": 0.1031,
      "velocity": 120,
      "chip": "ym2612"
    },
    {
      "channel": 1,
      "note": 52,
      "start": 21.1331,
      "duration": 0.1079,
      "velocity": 96,
      "chip": "ym2612"
    },
    {
      "channel": 2,
      "note": 77,
      "start": 21.1345,
      "duration": 0.031,
      "velocity": 127,
      "chip": "ym2612"
    },
    {
      "channel": 2,
      "note": 77,
      "start": 21.1705,
      "duration": 0.0672,
      "velocity": 127,
      "chip": "ym2612"
    },
    {
      "channel": 1,
      "note": 64,
      "start": 21.2416,
      "duration": 0.2167,
      "velocity": 96,
      "chip": "ym2612"
    },
    {
      "channel": 2,
      "note": 77,
      "start": 21.2431,
      "duration": 0.1031,
      "velocity": 127,
      "chip": "ym2612"
    },
    {
      "channel": 3,
      "note": 79,
      "start": 21.3505,
      "duration": 0.3257,
      "velocity": 99,
      "chip": "ym2612"
    },
    {
      "channel": 4,
      "note": 75,
      "start": 21.3514,
      "duration": 0.3257,
      "velocity": 99,
      "chip": "ym2612"
    },
    {
      "channel": 2,
      "note": 77,
      "start": 21.3528,
      "duration": 0.1022,
      "velocity": 127,
      "chip": "ym2612"
    },
    {
      "channel": 1,
      "note": 52,
      "start": 21.4589,
      "duration": 0.2167,
      "velocity": 96,
      "chip": "ym2612"
    },
    {
      "channel": 2,
      "note": 77,
      "start": 21.4608,
      "duration": 0.1023,
      "velocity": 127,
      "chip": "ym2612"
    },
    {
      "channel": 2,
      "note": 77,
      "start": 21.5685,
      "duration": 0.1031,
      "velocity": 127,
      "chip": "ym2612"
    },
    {
      "channel": 0,
      "note": 66,
      "start": 21.6753,
      "duration": 0.6471,
      "velocity": 96,
      "chip": "ym2612"
    },
    {
      "channel": 1,
      "note": 50,
      "start": 21.6761,
      "duration": 0.2157,
      "velocity": 96,
      "chip": "ym2612"
    },
    {
      "channel": 3,
      "note": 68,
      "start": 21.677,
      "duration": 0.1038,
      "velocity": 99,
      "chip": "ym2612"
    },
    {
      "channel": 4,
      "note": 65,
      "start": 21.6779,
      "duration": 0.1038,
      "velocity": 99,
      "chip": "ym2612"
    },
    {
      "channel": 2,
      "note": 37,
      "start": 21.679,
      "duration": 0.1214,
      "velocity": 120,
      "chip": "ym2612"
    },
    {
      "channel": 3,
      "note": 68,
      "start": 21.7816,
      "duration": 0.111,
      "velocity": 99,
      "chip": "ym2612"
    },
    {
      "channel": 4,
      "note": 65,
      "start": 21.7824,
      "duration": 0.1105,
      "velocity": 99,
      "chip": "ym2612"
    },
    {
      "channel": 1,
      "note": 50,
      "start": 21.8924,
      "duration": 0.2163,
      "velocity": 96,
      "chip": "ym2612"
    },
    {
      "channel": 5,
      "note": 66,
      "start": 21.8941,
      "duration": 0.6466,
      "velocity": 85,
      "chip": "ym2612"
    },
    {
      "channel": 2,
      "note": 37,
      "start": 21.8948,
      "duration": 0.1217,
      "velocity": 120,
      "chip": "ym2612"
    },
    {
      "channel": 1,
      "note": 50,
      "start": 22.1093,
      "duration": 0.108,
      "velocity": 96,
      "chip": "ym2612"
    },
    {
      "channel": 2,
      "note": 37,
      "start": 22.1107,
      "duration": 0.1033,
      "velocity": 120,
      "chip": "ym2612"
    },
    {
      "channel": 1,
      "note": 50,
      "start": 22.2179,
      "duration": 0.2161,
      "velocity": 96,
      "chip": "ym2612"
    },
    {
      "channel": 2,
      "note": 37,
      "start": 22.2193,
      "duration": 0.1234,
      "velocity": 120,
      "chip": "ym2612"
    },
    {
      "channel": 0,
      "note": 73,
      "start": 22.3231,
      "duration": 0.6527,
      "velocity": 96,
      "chip": "ym2612"
    },
    {
      "channel": 3,
      "note": 68,
      "start": 22.3243,
      "duration": 0.1104,
      "velocity": 99,
      "chip": "ym2612"
    },
    {
      "channel": 4,
      "note": 65,
      "start": 22.3252,
      "duration": 0.1104,
      "velocity": 99,
      "chip": "ym2612"
    },
    {
      "channel": 1,
      "note": 50,
      "start": 22.4346,
      "duration": 0.2164,
      "velocity": 96,
      "chip": "ym2612"
    },
    {
      "channel": 3,
      "note": 68,
      "start": 22.4355,
      "duration": 0.1046,
      "velocity": 99,
      "chip": "ym2612"
    },
    {
      "channel": 4,
      "note": 65,
      "start": 22.4363,
      "duration": 0.1041,
      "velocity": 99,
      "chip": "ym2612"
    },
    {
      "channel": 2,
      "note": 37,
      "start": 22.4375,
      "duration": 0.1214,
      "velocity": 120,
      "chip": "ym2612"
    },
    {
      "channel": 5,
      "note": 73,
      "start": 22.5414,
      "duration": 0.6527,
      "velocity": 85,
      "chip": "ym2612"
    },
    {
      "channel": 1,
      "note": 50,
      "start": 22.6516,
      "duration": 0.1079,
      "velocity": 96,
      "chip": "ym2612"
    },
    {
      "channel": 2,
      "note": 37,
      "start": 22.6529,
      "duration": 0.1032,
      "velocity": 120,
      "chip": "ym2612"
    },
    {
      "channel": 1,
      "note": 50,
      "start": 22.76,
      "duration": 0.1051,
      "velocity": 96,
      "chip": "ym2612"
    },
    {
      "channel": 2,
      "note": 37,
      "start": 22.7614,
      "duration": 0.1228,
      "velocity": 120,
      "chip": "ym2612"
    },
    {
      "channel": 1,
      "note": 50,
      "start": 22.8657,
      "duration": 0.111,
      "velocity": 96,
      "chip": "ym2612"
    },
    {
      "channel": 0,
      "note": 78,
      "start": 22.9766,
      "duration": 0.867,
      "velocity": 96,
      "chip": "ym2612"
    },
    {
      "channel": 1,
      "note": 62,
      "start": 22.9773,
      "duration": 0.2159,
      "velocity": 96,
      "chip": "ym2612"
    },
    {
      "channel": 2,
      "note": 77,
      "start": 22.9788,
      "duration": 0.2111,
      "velocity": 127,
      "chip": "ym2612"
    },
    {
      "channel": 1,
      "note": 50,
      "start": 23.1937,
      "duration": 0.2169,
      "velocity": 96,
      "chip": "ym2612"
    },
    {
      "channel": 5,
      "note": 78,
      "start": 23.1948,
      "duration": 0.8658,
      "velocity": 85,
      "chip": "ym2612"
    },
    {
      "channel": 2,
      "note": 37,
      "start": 23.1955,
      "duration": 0.1225,
      "velocity": 120,
      "chip": "ym2612"
    },
    {
      "channel": 1,
      "note": 50,
      "start": 23.4112,
      "duration": 0.2159,
      "velocity": 96,
      "chip": "ym2612"
    },
    {
      "channel": 3,
      "note": 68,
      "start": 23.4122,
      "duration": 0.104,
      "velocity": 99,
      "chip": "ym2612"
    },
    {
      "channel": 4,
      "note": 65,
      "start": 23.4132,
      "duration": 0.1039,
      "velocity": 99,
      "chip": "ym2612"
    },
    {
      "channel": 2,
      "note": 37,
      "start": 23.4144,
      "duration": 0.1213,
      "velocity": 120,
      "chip": "ym2612"
    },
    {
      "channel": 3,
      "note": 68,
      "start": 23.517,
      "duration": 0.1109,
      "velocity": 99,
      "chip": "ym2612"
    },
    {
      "channel": 4,
      "note": 65,
      "start": 23.5178,
      "duration": 0.1103,
      "velocity": 99,
      "chip": "ym2612"
    },
    {
      "channel": 1,
      "note": 50,
      "start": 23.6276,
      "duration": 0.2162,
      "velocity": 96,
      "chip": "ym2612"
    },
    {
      "channel": 2,
      "note": 37,
      "start": 23.6295,
      "duration": 0.1223,
      "velocity": 120,
      "chip": "ym2612"
    },
    {
      "channel": 1,
      "note": 50,
      "start": 23.8444,
      "duration": 0.1076,
      "velocity": 96,
      "chip": "ym2612"
    },
    {
      "channel": 2,
      "note": 37,
      "start": 23.8458,
      "duration": 0.1034,
      "velocity": 120,
      "chip": "ym2612"
    },
    {
      "channel": 1,
      "note": 50,
      "start": 23.9527,
      "duration": 0.2171,
      "velocity": 96,
      "chip": "ym2612"
    },
    {
      "channel": 2,
      "note": 37,
      "start": 23.954,
      "duration": 0.1236,
      "velocity": 120,
      "chip": "ym2612"
    },
    {
      "channel": 0,
      "note": 78,
      "start": 24.0583,
      "duration": 0.1106,
      "velocity": 96,
      "chip": "ym2612"
    },
    {
      "channel": 3,
      "note": 68,
      "start": 24.0596,
      "duration": 0.1109,
      "velocity": 99,
      "chip": "ym2612"
    },
    {
      "channel": 4,
      "note": 65,
      "start": 24.0605,
      "duration": 0.1109,
      "velocity": 99,
      "chip": "ym2612"
    },
    {
      "channel": 0,
      "note": 80,
      "start": 24.1696,
      "duration": 0.1049,
      "velocity": 96,
      "chip": "ym2612"
    },
    {
      "channel": 1,
      "note": 50,
      "start": 24.1703,
      "duration": 0.2159,
      "velocity": 96,
      "chip": "ym2612"
    },
    {
      "channel": 3,
      "note": 68,
      "start": 24.1712,
      "duration": 0.1046,
      "velocity": 99,
      "chip": "ym2612"
    },
    {
      "channel": 4,
      "note": 65,
      "start": 24.1721,
      "duration": 0.104,
      "velocity": 99,
      "chip": "ym2612"
    },
    {
      "channel": 2,
      "note": 37,
      "start": 24.1729,
      "duration": 0.1211,
      "velocity": 120,
      "chip": "ym2612"
    },
    {
      "channel": 0,
      "note": 81,
      "start": 24.2754,
      "duration": 0.2189,
      "velocity": 96,
      "chip": "ym2612"
    },
    {
      "channel": 5,
      "note": 78,
      "start": 24.2772,
      "duration": 0.1099,
      "velocity": 85,
      "chip": "ym2612"
    },
    {
      "channel": 1,
      "note": 50,
      "start": 24.3867,
      "duration": 0.1083,
      "velocity": 96,
      "chip": "ym2612"
    },
    {
      "channel": 5,
      "note": 80,
      "start": 24.3878,
      "duration": 0.1081,
      "velocity": 85,
      "chip": "ym2612"
    },
    {
      "channel": 2,
      "note": 37,
      "start": 24.3885,
      "duration": 0.1029,
      "velocity": 120,
      "chip": "ym2612"
    },
    {
      "channel": 0,
      "note": 80,
      "start": 24.4949,
      "duration": 0.2162,
      "velocity": 96,
      "chip": "ym2612"
    },
    {
      "channel": 1,
      "note": 50,
      "start": 24.4956,
      "duration": 0.1048,
      "velocity": 96,
      "chip": "ym2612"
    },
    {
      "channel": 5,
      "note": 81,
      "start": 24.4967,
      "duration": 0.2162,
      "velocity": 85,
      "chip": "ym2612"
    },
    {
      "channel": 2,
      "note": 37,
      "start": 24.4975,
      "duration": 0.122,
      "velocity": 120,
      "chip": "ym2612"
    },
    {
      "channel": 1,
      "note": 50,
      "start": 24.601,
      "duration": 0.1111,
      "velocity": 96,
      "chip": "ym2612"
    },
    {
      "channel": 0,
      "note": 78,
      "start": 24.7119,
      "duration": 0.2162,
      "velocity": 96,
      "chip": "ym2612"
    },
    {
      "channel": 1,
      "note": 62,
      "start": 24.7126,
      "duration": 0.2162,
      "velocity": 96,
      "chip": "ym2612"
    },
    {
      "channel": 5,
      "note": 80,
      "start": 24.7137,
      "duration": 0.2161,
      "velocity": 85,
      "chip": "ym2612"
    },
    {
      "channel": 2,
      "note": 77,
      "start": 24.7145,
      "duration": 0.2107,
      "velocity": 127,
      "chip": "ym2612"
    },
    {
      "channel": 0,
      "note": 81,
      "start": 24.9287,
      "duration": 0.2166,
      "velocity": 96,
      "chip": "ym2612"
    },
    {
      "channel": 1,
      "note": 50,
      "start": 24.9294,
      "duration": 0.2168,
      "velocity": 96,
      "chip": "ym2612"
    },
    {
      "channel": 5,
      "note": 78,
      "start": 24.9305,
      "duration": 0.2185,
      "velocity": 85,
      "chip": "ym2612"
    },
    {
      "channel": 2,
      "note": 37,
      "start": 24.9312,
      "duration": 0.1221,
      "velocity": 120,
      "chip": "ym2612"
    },
    {
      "channel": 0,
      "note": 76,
      "start": 25.146,
      "duration": 0.3215,
      "velocity": 96,
      "chip": "ym2612"
    },
    {
      "channel": 1,
      "note": 52,
      "start": 25.1468,
      "duration": 0.2155,
      "velocity": 96,
      "chip": "ym2612"
    },
    {
      "channel": 3,
      "note": 67,
      "start": 25.1478,
      "duration": 0.1036,
      "velocity": 99,
      "chip": "ym2612"
    },
    {
      "channel": 4,
      "note": 63,
      "start": 25.1488,
      "duration": 0.1035,
      "velocity": 99,
      "chip": "ym2612"
    },
    {
      "channel": 5,
      "note": 81,
      "start": 25.1497,
      "duration": 0.2141,
      "velocity": 85,
      "chip": "ym2612"
    },
    {
      "channel": 2,
      "note": 37,
      "start": 25.1504,
      "duration": 0.1207,
      "velocity": 120,
      "chip": "ym2612"
    },
    {
      "channel": 3,
      "note": 67,
      "start": 25.2521,
      "duration": 0.111,
      "velocity": 99,
      "chip": "ym2612"
    },
    {
      "channel": 4,
      "note": 63,
      "start": 25.253,
      "duration": 0.1104,
      "velocity": 99,
      "chip": "ym2612"
    },
    {
      "channel": 1,
      "note": 52,
      "start": 25.3629,
      "duration": 0.2163,
      "velocity": 96,
      "chip": "ym2612"
    },
    {
      "channel": 5,
      "note": 76,
      "start": 25.3646,
      "duration": 0.324,
      "velocity": 85,
      "chip": "ym2612"
    },
    {
      "channel": 2,
      "note": 37,
      "start": 25.3653,
      "duration": 0.1218,
      "velocity": 120,
      "chip": "ym2612"
    },
    {
      "channel": 0,
      "note": 71,
      "start": 25.4683,
      "duration": 0.3246,
      "velocity": 96,
      "chip": "ym2612"
    },
    {
      "channel": 1,
      "note": 52,
      "start": 25.5798,
      "duration": 0.108,
      "velocity": 96,
      "chip": "ym2612"
    },
    {
      "channel": 2,
      "note": 37,
      "start": 25.5811,
      "duration": 0.1033,
      "velocity": 120,
      "chip": "ym2612"
    },
    {
      "channel": 1,
      "note": 52,
      "start": 25.6883,
      "duration": 0.2163,
      "velocity": 96,
      "chip": "ym2612"
    },
    {
      "channel": 5,
      "note": 71,
      "start": 25.6893,
      "duration": 0.3225,
      "velocity": 85,
      "chip": "ym2612"
    },
    {
      "channel": 2,
      "note": 37,
      "start": 25.6901,
      "duration": 0.1232,
      "velocity": 120,
      "chip": "ym2612"
    },
    {
      "channel": 0,
      "note": 68,
      "start": 25.7937,
      "duration": 0.2162,
      "velocity": 96,
      "chip": "ym2612"
    },
    {
      "channel": 3,
      "note": 67,
      "start": 25.7949,
      "duration": 0.1105,
      "velocity": 99,
      "chip": "ym2612"
    },
    {
      "channel": 4,
      "note": 63,
      "start": 25.7958,
      "duration": 0.1105,
      "velocity": 99,
      "chip": "ym2612"
    },
    {
      "channel": 1,
      "note": 52,
      "start": 25.9053,
      "duration": 0.217,
      "velocity": 96,
      "chip": "ym2612"
    },
    {
      "channel": 3,
      "note": 67,
      "start": 25.9061,
      "duration": 0.105,
      "velocity": 99,
      "chip": "ym2612"
    },
    {
      "channel": 4,
      "note": 63,
      "start": 25.907,
      "duration": 0.1044,
      "velocity": 99,
      "chip": "ym2612"
    },
    {
      "channel": 2,
      "note": 37,
      "start": 25.9082,
      "duration": 0.1212,
      "velocity": 120,
      "chip": "ym2612"
    },
    {
      "channel": 0,
      "note": 76,
      "start": 26.0107,
      "duration": 0.1107,
      "velocity": 96,
      "chip": "ym2612"
    },
    {
      "channel": 5,
      "note": 68,
      "start": 26.0125,
      "duration": 0.2188,
      "velocity": 85,
      "chip": "ym2612"
    },
    {
      "channel": 0,
      "note": 71,
      "start": 26.1221,
      "duration": 0.1074,
      "velocity": 96,
      "chip": "ym2612"
    },
    {
      "channel": 1,
      "note": 52,
      "start": 26.1228,
      "duration": 0.1076,
      "velocity": 96,
      "chip": "ym2612"
    },
    {
      "channel": 2,
      "note": 37,
      "start": 26.1242,
      "duration": 0.1025,
      "velocity": 120,
      "chip": "ym2612"
    },
    {
      "channel": 0,
      "note": 68,
      "start": 26.2302,
      "duration": 0.105,
      "velocity": 96,
      "chip": "ym2612"
    },
    {
      "channel": 1,
      "note": 52,
      "start": 26.231,
      "duration": 0.1051,
      "velocity": 96,
      "chip": "ym2612"
    },
    {
      "channel": 5,
      "note": 76,
      "start": 26.232,
      "duration": 0.1049,
      "velocity": 85,
      "chip": "ym2612"
    },
    {
      "channel": 2,
      "note": 37,
      "start": 26.2327,
      "duration": 0.1221,
      "velocity": 120,
      "chip": "ym2612"
    },
    {
      "channel": 0,
      "note": 76,
      "start": 26.336,
      "duration": 0.1104,
      "velocity": 96,
      "chip": "ym2612"
    },
    {
      "channel": 1,
      "note": 52,
      "start": 26.3367,
      "duration": 0.1106,
      "velocity": 96,
      "chip": "ym2612"
    },
    {
      "channel": 5,
      "note": 71,
      "start": 26.3377,
      "duration": 0.1105,
      "velocity": 85,
      "chip": "ym2612"
    },
    {
      "channel": 0,
      "note": 71,
      "start": 26.4471,
      "duration": 0.1049,
      "velocity": 96,
      "chip": "ym2612"
    },
    {
      "channel": 1,
      "note": 64,
      "start": 26.4479,
      "duration": 0.2163,
      "velocity": 96,
      "chip": "ym2612"
    },
    {
      "channel": 5,
      "note": 68,
      "start": 26.4489,
      "duration": 0.1046,
      "velocity": 85,
      "chip": "ym2612"
    },
    {
      "channel": 2,
      "note": 77,
      "start": 26.4497,
      "duration": 0.2108,
      "velocity": 127,
      "chip": "ym2612"
    },
    {
      "channel": 0,
      "note": 68,
      "start": 26.5528,
      "duration": 0.1105,
      "velocity": 96,
      "chip": "ym2612"
    },
    {
      "channel": 5,
      "note": 76,
      "start": 26.5542,
      "duration": 0.1109,
      "velocity": 85,
      "chip": "ym2612"
    },
    {
      "channel": 0,
      "note": 76,
      "start": 26.6641,
      "duration": 0.1049,
      "velocity": 96,
      "chip": "ym2612"
    },
    {
      "channel": 1,
      "note": 52,
      "start": 26.6648,
      "duration": 0.2167,
      "velocity": 96,
      "chip": "ym2612"
    },
    {
      "channel": 5,
      "note": 71,
      "start": 26.6658,
      "duration": 0.1046,
      "velocity": 85,
      "chip": "ym2612"
    },
    {
      "channel": 2,
      "note": 37,
      "start": 26.6666,
      "duration": 0.1221,
      "velocity": 120,
      "chip": "ym2612"
    },
    {
      "channel": 0,
      "note": 71,
      "start": 26.7697,
      "duration": 0.111,
      "velocity": 96,
      "chip": "ym2612"
    },
    {
      "channel": 5,
      "note": 68,
      "start": 26.7711,
      "duration": 0.1129,
      "velocity": 85,
      "chip": "ym2612"
    },
    {
      "channel": 0,
      "note": 64,
      "start": 26.8813,
      "duration": 0.1074,
      "velocity": 96,
      "chip": "ym2612"
    },
    {
      "channel": 1,
      "note": 52,
      "start": 26.8821,
      "duration": 0.1075,
      "velocity": 96,
      "chip": "ym2612"
    },
    {
      "channel": 3,
      "note": 75,
      "start": 26.883,
      "duration": 0.1073,
      "velocity": 99,
      "chip": "ym2612"
    },
    {
      "channel": 4,
      "note": 70,
      "start": 26.8839,
      "duration": 0.1073,
      "velocity": 99,
      "chip": "ym2612"
    },
    {
      "channel": 5,
      "note": 76,
      "start": 26.8848,
      "duration": 0.1073,
      "velocity": 85,
      "chip": "ym2612"
    },
    {
      "channel": 2,
      "note": 77,
      "start": 26.8856,
      "duration": 0.1003,
      "velocity": 127,
      "chip": "ym2612"
    },
    {
      "channel": 0,
      "note": 64,
      "start": 26.9894,
      "duration": 0.1051,
      "velocity": 96,
      "chip": "ym2612"
    },
    {
      "channel": 1,
      "note": 52,
      "start": 26.9902,
      "duration": 0.1046,
      "velocity": 96,
      "chip": "ym2612"
    },
    {
      "channel": 3,
      "note": 75,
      "start": 26.9911,
      "duration": 0.1041,
      "velocity": 99,
      "chip": "ym2612"
    },
    {
      "channel": 4,
      "note": 70,
      "start": 26.992,
      "duration": 0.1035,
      "velocity": 99,
      "chip": "ym2612"
    },
    {
      "channel": 5,
      "note": 71,
      "start": 26.9928,
      "duration": 0.103,
      "velocity": 85,
      "chip": "ym2612"
    },
    {
      "channel": 2,
      "note": 77,
      "start": 26.9936,
      "duration": 0.2093,
      "velocity": 127,
      "chip": "ym2612"
    },
    {
      "channel": 5,
      "note": 64,
      "start": 27.0965,
      "duration": 0.1127,
      "velocity": 85,
      "chip": "ym2612"
    },
    {
      "channel": 0,
      "note": 64,
      "start": 27.2064,
      "duration": 0.1076,
      "velocity": 96,
      "chip": "ym2612"
    },
    {
      "channel": 1,
      "note": 52,
      "start": 27.2072,
      "duration": 0.1078,
      "velocity": 96,
      "chip": "ym2612"
    },
    {
      "channel": 3,
      "note": 75,
      "start": 27.208,
      "duration": 0.1076,
      "velocity": 99,
      "chip": "ym2612"
    },
    {
      "channel": 4,
      "note": 70,
      "start": 27.2089,
      "duration": 0.1076,
      "velocity": 99,
      "chip": "ym2612"
    },
    {
      "channel": 5,
      "note": 64,
      "start": 27.2098,
      "duration": 0.1076,
      "velocity": 85,
      "chip": "ym2612"
    },
    {
      "channel": 2,
      "note": 77,
      "start": 27.2107,
      "duration": 0.1006,
      "velocity": 127,
      "chip": "ym2612"
    },
    {
      "channel": 0,
      "note": 64,
      "start": 27.3147,
      "duration": 0.105,
      "velocity": 96,
      "chip": "ym2612"
    },
    {
      "channel": 1,
      "note": 52,
      "start": 27.3155,
      "duration": 0.1046,
      "velocity": 96,
      "chip": "ym2612"
    },
    {
      "channel": 3,
      "note": 75,
      "start": 27.3164,
      "duration": 0.104,
      "velocity": 99,
      "chip": "ym2612"
    },
    {
      "channel": 4,
      "note": 70,
      "start": 27.3173,
      "duration": 0.1034,
      "velocity": 99,
      "chip": "ym2612"
    },
    {
      "channel": 2,
      "note": 77,
      "start": 27.3184,
      "duration": 0.2099,
      "velocity": 127,
      "chip": "ym2612"
    },
    {
      "channel": 5,
      "note": 64,
      "start": 27.4217,
      "duration": 0.1128,
      "velocity": 85,
      "chip": "ym2612"
    },
    {
      "channel": 0,
      "note": 64,
      "start": 27.5318,
      "duration": 0.1076,
      "velocity": 96,
      "chip": "ym2612"
    },
    {
      "channel": 1,
      "note": 52,
      "start": 27.5325,
      "duration": 0.1078,
      "velocity": 96,
      "chip": "ym2612"
    },
    {
      "channel": 3,
      "note": 75,
      "start": 27.5334,
      "duration": 0.1076,
      "velocity": 99,
      "chip": "ym2612"
    },
    {
      "channel": 4,
      "note": 70,
      "start": 27.5344,
      "duration": 0.1076,
      "velocity": 99,
      "chip": "ym2612"
    },
    {
      "channel": 5,
      "note": 64,
      "start": 27.5352,
      "duration": 0.1076,
      "velocity": 85,
      "chip": "ym2612"
    },
    {
      "channel": 2,
      "note": 77,
      "start": 27.536,
      "duration": 0.1006,
      "velocity": 127,
      "chip": "ym2612"
    },
    {
      "channel": 0,
      "note": 64,
      "start": 27.6402,
      "duration": 0.1049,
      "velocity": 96,
      "chip": "ym2612"
    },
    {
      "channel": 1,
      "note": 52,
      "start": 27.6409,
      "duration": 0.1046,
      "velocity": 96,
      "chip": "ym2612"
    },
    {
      "channel": 3,
      "note": 75,
      "start": 27.6418,
      "duration": 0.104,
      "velocity": 99,
      "chip": "ym2612"
    },
    {
      "channel": 4,
      "note": 70,
      "start": 27.6427,
      "duration": 0.1034,
      "velocity": 99,
      "chip": "ym2612"
    },
    {
      "channel": 2,
      "note": 77,
      "start": 27.6439,
      "duration": 0.2288,
      "velocity": 127,
      "chip": "ym2612"
    },
    {
      "channel": 5,
      "note": 64,
      "start": 27.7472,
      "duration": 0.107,
      "velocity": 85,
      "chip": "ym2612"
    },
    {
      "channel": 5,
      "note": 64,
      "start": 27.8549,
      "duration": 0.1076,
      "velocity": 85,
      "chip": "ym2612"
    },
    {
      "channel": 2,
      "note": 77,
      "start": 28.1828,
      "duration": 0.0323,
      "velocity": 127,
      "chip": "ym2612"
    },
    {
      "channel": 2,
      "note": 77,
      "start": 28.219,
      "duration": 0.0684,
      "velocity": 127,
      "chip": "ym2612"
    },
    {
      "channel": 2,
      "note": 77,
      "start": 28.2912,
      "duration": 0.1046,
      "velocity": 127,
      "chip": "ym2612"
    },
    {
      "channel": 2,
      "note": 77,
      "start": 28.3998,
      "duration": 0.1046,
      "velocity": 127,
      "chip": "ym2612"
    },
    {
      "channel": 2,
      "note": 77,
      "start": 28.5083,
      "duration": 0.1045,
      "velocity": 127,
      "chip": "ym2612"
    },
    {
      "channel": 0,
      "note": 78,
      "start": 28.6166,
      "duration": 0.1074,
      "velocity": 96,
      "chip": "ym2612"
    },
    {
      "channel": 1,
      "note": 54,
      "start": 28.6174,
      "duration": 0.1075,
      "velocity": 96,
      "chip": "ym2612"
    },
    {
      "channel": 3,
      "note": 63,
      "start": 28.6184,
      "duration": 0.1072,
      "velocity": 99,
      "chip": "ym2612"
    },
    {
      "channel": 4,
      "note": 58,
      "start": 28.6194,
      "duration": 0.1071,
      "velocity": 99,
      "chip": "ym2612"
    },
    {
      "channel": 2,
      "note": 37,
      "start": 28.6202,
      "duration": 0.101,
      "velocity": 120,
      "chip": "ym2612"
    },
    {
      "channel": 0,
      "note": 78,
      "start": 28.7247,
      "duration": 0.105,
      "velocity": 96,
      "chip": "ym2612"
    },
    {
      "channel": 1,
      "note": 54,
      "start": 28.7255,
      "duration": 0.1046,
      "velocity": 96,
      "chip": "ym2612"
    },
    {
      "channel": 3,
      "note": 65,
      "start": 28.7264,
      "duration": 0.104,
      "velocity": 99,
      "chip": "ym2612"
    },
    {
      "channel": 4,
      "note": 60,
      "start": 28.7272,
      "duration": 0.1035,
      "velocity": 99,
      "chip": "ym2612"
    },
    {
      "channel": 2,
      "note": 37,
      "start": 28.728,
      "duration": 0.1206,
      "velocity": 120,
      "chip": "ym2612"
    },
    {
      "channel": 5,
      "note": 78,
      "start": 28.832,
      "duration": 0.109,
      "velocity": 85,
      "chip": "ym2612"
    },
    {
      "channel": 0,
      "note": 78,
      "start": 28.9389,
      "duration": 0.1105,
      "velocity": 96,
      "chip": "ym2612"
    },
    {
      "channel": 3,
      "note": 65,
      "start": 28.9399,
      "duration": 0.1099,
      "velocity": 99,
      "chip": "ym2612"
    },
    {
      "channel": 4,
      "note": 60,
      "start": 28.9407,
      "duration": 0.1093,
      "velocity": 99,
      "chip": "ym2612"
    },
    {
      "channel": 5,
      "note": 78,
      "start": 28.9416,
      "duration": 0.1088,
      "velocity": 85,
      "chip": "ym2612"
    },
    {
      "channel": 2,
      "note": 77,
      "start": 29.0514,
      "duration": 0.2314,
      "velocity": 127,
      "chip": "ym2612"
    },
    {
      "channel": 0,
      "note": 73,
      "start": 29.1558,
      "duration": 0.1078,
      "velocity": 96,
      "chip": "ym2612"
    },
    {
      "channel": 3,
      "note": 65,
      "start": 29.1568,
      "duration": 0.1085,
      "velocity": 99,
      "chip": "ym2612"
    },
    {
      "channel": 4,
      "note": 60,
      "start": 29.1576,
      "duration": 0.108,
      "velocity": 99,
      "chip": "ym2612"
    },
    {
      "channel": 5,
      "note": 78,
      "start": 29.1585,
      "duration": 0.1074,
      "velocity": 85,
      "chip": "ym2612"
    },
    {
      "channel": 0,
      "note": 76,
      "start": 29.2644,
      "duration": 0.1077,
      "velocity": 96,
      "chip": "ym2612"
    },
    {
      "channel": 1,
      "note": 54,
      "start": 29.2651,
      "duration": 0.1073,
      "velocity": 96,
      "chip": "ym2612"
    },
    {
      "channel": 1,
      "note": 54,
      "start": 29.3729,
      "duration": 0.1084,
      "velocity": 96,
      "chip": "ym2612"
    },
    {
      "channel": 3,
      "note": 65,
      "start": 29.3738,
      "duration": 0.1078,
      "velocity": 99,
      "chip": "ym2612"
    },
    {
      "channel": 4,
      "note": 60,
      "start": 29.3747,
      "duration": 0.1073,
      "velocity": 99,
      "chip": "ym2612"
    },
    {
      "channel": 5,
      "note": 73,
      "start": 29.3755,
      "duration": 0.1068,
      "velocity": 85,
      "chip": "ym2612"
    },
    {
      "channel": 0,
      "note": 81,
      "start": 29.4811,
      "duration": 0.8701,
      "velocity": 96,
      "chip": "ym2612"
    },
    {
      "channel": 5,
      "note": 76,
      "start": 29.483,
      "duration": 0.1083,
      "velocity": 85,
      "chip": "ym2612"
    },
    {
      "channel": 3,
      "note": 65,
      "start": 29.5902,
      "duration": 0.1111,
      "velocity": 99,
      "chip": "ym2612"
    },
    {
      "channel": 4,
      "note": 60,
      "start": 29.5911,
      "duration": 0.1105,
      "velocity": 99,
      "chip": "ym2612"
    },
    {
      "channel": 1,
      "note": 54,
      "start": 29.7012,
      "duration": 0.1051,
      "velocity": 96,
      "chip": "ym2612"
    },
    {
      "channel": 5,
      "note": 81,
      "start": 29.7027,
      "duration": 0.8637,
      "velocity": 85,
      "chip": "ym2612"
    },
    {
      "channel": 2,
      "note": 37,
      "start": 29.7035,
      "duration": 0.1227,
      "velocity": 120,
      "chip": "ym2612"
    },
    {
      "channel": 1,
      "note": 54,
      "start": 29.8069,
      "duration": 0.1107,
      "velocity": 96,
      "chip": "ym2612"
    },
    {
      "channel": 3,
      "note": 65,
      "start": 29.8078,
      "duration": 0.1101,
      "velocity": 99,
      "chip": "ym2612"
    },
    {
      "channel": 4,
      "note": 60,
      "start": 29.8086,
      "duration": 0.1102,
      "velocity": 99,
      "chip": "ym2612"
    },
    {
      "channel": 3,
      "note": 69,
      "start": 29.9187,
      "duration": 0.4345,
      "velocity": 99,
      "chip": "ym2612"
    },
    {
      "channel": 4,
      "note": 64,
      "start": 29.9196,
      "duration": 0.4345,
      "velocity": 99,
      "chip": "ym2612"
    },
    {
      "channel": 2,
      "note": 77,
      "start": 29.9209,
      "duration": 0.1018,
      "velocity": 127,
      "chip": "ym2612"
    },
    {
      "channel": 1,
      "note": 54,
      "start": 30.0266,
      "duration": 0.105,
      "velocity": 96,
      "chip": "ym2612"
    },
    {
      "channel": 2,
      "note": 37,
      "start": 30.0288,
      "duration": 0.1228,
      "velocity": 120,
      "chip": "ym2612"
    },
    {
      "channel": 1,
      "note": 54,
      "start": 30.1322,
      "duration": 0.1079,
      "velocity": 96,
      "chip": "ym2612"
    },
    {
      "channel": 0,
      "note": 78,
      "start": 30.352,
      "duration": 0.1074,
      "velocity": 96,
      "chip": "ym2612"
    },
    {
      "channel": 1,
      "note": 54,
      "start": 30.353,
      "duration": 0.1072,
      "velocity": 96,
      "chip": "ym2612"
    },
    {
      "channel": 3,
      "note": 63,
      "start": 30.354,
      "duration": 0.107,
      "velocity": 99,
      "chip": "ym2612"
    },
    {
      "channel": 4,
      "note": 58,
      "start": 30.3549,
      "duration": 0.107,
      "velocity": 99,
      "chip": "ym2612"
    },
    {
      "channel": 2,
      "note": 37,
      "start": 30.3561,
      "duration": 0.1005,
      "velocity": 120,
      "chip": "ym2612"
    },
    {
      "channel": 0,
      "note": 78,
      "start": 30.4601,
      "duration": 0.1049,
      "velocity": 96,
      "chip": "ym2612"
    },
    {
      "channel": 1,
      "note": 54,
      "start": 30.4608,
      "duration": 0.1045,
      "velocity": 96,
      "chip": "ym2612"
    },
    {
      "channel": 3,
      "note": 65,
      "start": 30.4617,
      "duration": 0.1039,
      "velocity": 99,
      "chip": "ym2612"
    },
    {
      "channel": 4,
      "note": 60,
      "start": 30.4626,
      "duration": 0.1034,
      "velocity": 99,
      "chip": "ym2612"
    },
    {
      "channel": 2,
      "note": 37,
      "start": 30.4638,
      "duration": 0.1202,
      "velocity": 120,
      "chip": "ym2612"
    },
    {
      "channel": 5,
      "note": 78,
      "start": 30.5671,
      "duration": 0.1092,
      "velocity": 85,
      "chip": "ym2612"
    },
    {
      "channel": 0,
      "note": 78,
      "start": 30.6742,
      "duration": 0.1108,
      "velocity": 96,
      "chip": "ym2612"
    },
    {
      "channel": 3,
      "note": 65,
      "start": 30.6752,
      "duration": 0.1102,
      "velocity": 99,
      "chip": "ym2612"
    },
    {
      "channel": 4,
      "note": 60,
      "start": 30.6761,
      "duration": 0.1097,
      "velocity": 99,
      "chip": "ym2612"
    },
    {
      "channel": 5,
      "note": 78,
      "start": 30.6769,
      "duration": 0.1091,
      "velocity": 85,
      "chip": "ym2612"
    },
    {
      "channel": 2,
      "note": 77,
      "start": 30.7871,
      "duration": 0.2319,
      "velocity": 127,
      "chip": "ym2612"
    },
    {
      "channel": 0,
      "note": 73,
      "start": 30.8912,
      "duration": 0.1076,
      "velocity": 96,
      "chip": "ym2612"
    },
    {
      "channel": 3,
      "note": 65,
      "start": 30.8922,
      "duration": 0.1082,
      "velocity": 99,
      "chip": "ym2612"
    },
    {
      "channel": 4,
      "note": 60,
      "start": 30.8931,
      "duration": 0.1082,
      "velocity": 99,
      "chip": "ym2612"
    },
    {
      "channel": 5,
      "note": 78,
      "start": 30.8939,
      "duration": 0.1082,
      "velocity": 85,
      "chip": "ym2612"
    },
    {
      "channel": 0,
      "note": 76,
      "start": 30.9995,
      "duration": 0.1078,
      "velocity": 96,
      "chip": "ym2612"
    },
    {
      "channel": 1,
      "note": 54,
      "start": 31.0002,
      "duration": 0.1074,
      "velocity": 96,
      "chip": "ym2612"
    },
    {
      "channel": 3,
      "note": 63,
      "start": 31.0011,
      "duration": 0.1073,
      "velocity": 99,
      "chip": "ym2612"
    },
    {
      "channel": 4,
      "note": 58,
      "start": 31.002,
      "duration": 0.1072,
      "velocity": 99,
      "chip": "ym2612"
    },
    {
      "channel": 1,
      "note": 54,
      "start": 31.1082,
      "duration": 0.1076,
      "velocity": 96,
      "chip": "ym2612"
    },
    {
      "channel": 3,
      "note": 65,
      "start": 31.1091,
      "duration": 0.1071,
      "velocity": 99,
      "chip": "ym2612"
    },
    {
      "channel": 4,
      "note": 60,
      "start": 31.11,
      "duration": 0.1071,
      "velocity": 99,
      "chip": "ym2612"
    },
    {
      "channel": 5,
      "note": 73,
      "start": 31.1108,
      "duration": 0.1071,
      "velocity": 85,
      "chip": "ym2612"
    },
    {
      "channel": 3,
      "note": 60,
      "start": 31.2169,
      "duration": 0.1076,
      "velocity": 99,
      "chip": "ym2612"
    },
    {
      "channel": 4,
      "note": 55,
      "start": 31.2177,
      "duration": 0.1076,
      "velocity": 99,
      "chip": "ym2612"
    },
    {
      "channel": 5,
      "note": 76,
      "start": 31.2186,
      "duration": 0.1076,
      "velocity": 85,
      "chip": "ym2612"
    },
    {
      "channel": 3,
      "note": 61,
      "start": 31.3252,
      "duration": 0.112,
      "velocity": 99,
      "chip": "ym2612"
    },
    {
      "channel": 4,
      "note": 56,
      "start": 31.3261,
      "duration": 0.1114,
      "velocity": 99,
      "chip": "ym2612"
    },
    {
      "channel": 0,
      "note": 83,
      "start": 31.4362,
      "duration": 0.2161,
      "velocity": 96,
      "chip": "ym2612"
    },
    {
      "channel": 1,
      "note": 54,
      "start": 31.4369,
      "duration": 0.1048,
      "velocity": 96,
      "chip": "ym2612"
    },
    {
      "channel": 2,
      "note": 37,
      "start": 31.4384,
      "duration": 0.1227,
      "velocity": 120,
      "chip": "ym2612"
    },
    {
      "channel": 1,
      "note": 54,
      "start": 31.5423,
      "duration": 0.111,
      "velocity": 96,
      "chip": "ym2612"
    },
    {
      "channel": 3,
      "note": 58,
      "start": 31.5432,
      "duration": 0.1103,
      "velocity": 99,
      "chip": "ym2612"
    },
    {
      "channel": 4,
      "note": 53,
      "start": 31.5442,
      "duration": 0.1097,
      "velocity": 99,
      "chip": "ym2612"
    },
    {
      "channel": 0,
      "note": 81,
      "start": 31.6531,
      "duration": 0.4335,
      "velocity": 96,
      "chip": "ym2612"
    },
    {
      "channel": 5,
      "note": 83,
      "start": 31.6549,
      "duration": 0.2134,
      "velocity": 85,
      "chip": "ym2612"
    },
    {
      "channel": 2,
      "note": 77,
      "start": 31.6558,
      "duration": 0.1022,
      "velocity": 127,
      "chip": "ym2612"
    },
    {
      "channel": 1,
      "note": 54,
      "start": 31.7618,
      "duration": 0.1052,
      "velocity": 96,
      "chip": "ym2612"
    },
    {
      "channel": 3,
      "note": 58,
      "start": 31.7627,
      "duration": 0.105,
      "velocity": 99,
      "chip": "ym2612"
    },
    {
      "channel": 4,
      "note": 53,
      "start": 31.7635,
      "duration": 0.1045,
      "velocity": 99,
      "chip": "ym2612"
    },
    {
      "channel": 2,
      "note": 37,
      "start": 31.7647,
      "duration": 0.1214,
      "velocity": 120,
      "chip": "ym2612"
    },
    {
      "channel": 1,
      "note": 54,
      "start": 31.8676,
      "duration": 0.1078,
      "velocity": 96,
      "chip": "ym2612"
    },
    {
      "channel": 5,
      "note": 81,
      "start": 31.8691,
      "duration": 0.4325,
      "velocity": 85,
      "chip": "ym2612"
    },
    {
      "channel": 3,
      "note": 60,
      "start": 31.9765,
      "duration": 0.1121,
      "velocity": 99,
      "chip": "ym2612"
    },
    {
      "channel": 4,
      "note": 55,
      "start": 31.9773,
      "duration": 0.1123,
      "velocity": 99,
      "chip": "ym2612"
    },
    {
      "channel": 0,
      "note": 78,
      "start": 32.0873,
      "duration": 0.1074,
      "velocity": 96,
      "chip": "ym2612"
    },
    {
      "channel": 1,
      "note": 54,
      "start": 32.0883,
      "duration": 0.1072,
      "velocity": 96,
      "chip": "ym2612"
    },
    {
      "channel": 3,
      "note": 63,
      "start": 32.0893,
      "duration": 0.1069,
      "velocity": 99,
      "chip": "ym2612"
    },
    {
      "channel": 4,
      "note": 58,
      "start": 32.0904,
      "duration": 0.1068,
      "velocity": 99,
      "chip": "ym2612"
    },
    {
      "channel": 2,
      "note": 37,
      "start": 32.0915,
      "duration": 0.1003,
      "velocity": 120,
      "chip": "ym2612"
    },
    {
      "channel": 0,
      "note": 78,
      "start": 32.1954,
      "duration": 0.1049,
      "velocity": 96,
      "chip": "ym2612"
    },
    {
      "channel": 1,
      "note": 54,
      "start": 32.1961,
      "duration": 0.1045,
      "velocity": 96,
      "chip": "ym2612"
    },
    {
      "channel": 3,
      "note": 65,
      "start": 32.197,
      "duration": 0.1039,
      "velocity": 99,
      "chip": "ym2612"
    },
    {
      "channel": 4,
      "note": 60,
      "start": 32.1979,
      "duration": 0.1034,
      "velocity": 99,
      "chip": "ym2612"
    },
    {
      "channel": 2,
      "note": 37,
      "start": 32.199,
      "duration": 0.1203,
      "velocity": 120,
      "chip": "ym2612"
    },
    {
      "channel": 5,
      "note": 78,
      "start": 32.3024,
      "duration": 0.1092,
      "velocity": 85,
      "chip": "ym2612"
    },
    {
      "channel": 0,
      "note": 78,
      "start": 32.4096,
      "duration": 0.1104,
      "velocity": 96,
      "chip": "ym2612"
    },
    {
      "channel": 3,
      "note": 65,
      "start": 32.4105,
      "duration": 0.1099,
      "velocity": 99,
      "chip": "ym2612"
    },
    {
      "channel": 4,
      "note": 60,
      "start": 32.4114,
      "duration": 0.1093,
      "velocity": 99,
      "chip": "ym2612"
    },
    {
      "channel": 5,
      "note": 78,
      "start": 32.4122,
      "duration": 0.1088,
      "velocity": 85,
      "chip": "ym2612"
    },
    {
      "channel": 2,
      "note": 77,
      "start": 32.522,
      "duration": 0.2314,
      "velocity": 127,
      "chip": "ym2612"
    },
    {
      "channel": 0,
      "note": 73,
      "start": 32.6264,
      "duration": 0.1078,
      "velocity": 96,
      "chip": "ym2612"
    },
    {
      "channel": 3,
      "note": 65,
      "start": 32.6273,
      "duration": 0.1084,
      "velocity": 99,
      "chip": "ym2612"
    },
    {
      "channel": 4,
      "note": 60,
      "start": 32.6282,
      "duration": 0.1078,
      "velocity": 99,
      "chip": "ym2612"
    },
    {
      "channel": 5,
      "note": 78,
      "start": 32.629,
      "duration": 0.1073,
      "velocity": 85,
      "chip": "ym2612"
    },
    {
      "channel": 0,
      "note": 76,
      "start": 32.7348,
      "duration": 0.1078,
      "velocity": 96,
      "chip": "ym2612"
    },
    {
      "channel": 1,
      "note": 54,
      "start": 32.7355,
      "duration": 0.1074,
      "velocity": 96,
      "chip": "ym2612"
    },
    {
      "channel": 1,
      "note": 54,
      "start": 32.8435,
      "duration": 0.1084,
      "velocity": 96,
      "chip": "ym2612"
    },
    {
      "channel": 3,
      "note": 65,
      "start": 32.8444,
      "duration": 0.1079,
      "velocity": 99,
      "chip": "ym2612"
    },
    {
      "channel": 4,
      "note": 60,
      "start": 32.8452,
      "duration": 0.1074,
      "velocity": 99,
      "chip": "ym2612"
    },
    {
      "channel": 5,
      "note": 73,
      "start": 32.8461,
      "duration": 0.1068,
      "velocity": 85,
      "chip": "ym2612"
    },
    {
      "channel": 0,
      "note": 81,
      "start": 32.9517,
      "duration": 0.8701,
      "velocity": 96,
      "chip": "ym2612"
    },
    {
      "channel": 5,
      "note": 76,
      "start": 32.9536,
      "duration": 0.1082,
      "velocity": 85,
      "chip": "ym2612"
    },
    {
      "channel": 3,
      "note": 65,
      "start": 33.0608,
      "duration": 0.1111,
      "velocity": 99,
      "chip": "ym2612"
    },
    {
      "channel": 4,
      "note": 60,
      "start": 33.0617,
      "duration": 0.1106,
      "velocity": 99,
      "chip": "ym2612"
    },
    {
      "channel": 1,
      "note": 54,
      "start": 33.1718,
      "duration": 0.1051,
      "velocity": 96,
      "chip": "ym2612"
    },
    {
      "channel": 5,
      "note": 81,
      "start": 33.1733,
      "duration": 0.8637,
      "velocity": 85,
      "chip": "ym2612"
    },
    {
      "channel": 2,
      "note": 37,
      "start": 33.174,
      "duration": 0.1228,
      "velocity": 120,
      "chip": "ym2612"
    },
    {
      "channel": 1,
      "note": 54,
      "start": 33.2775,
      "duration": 0.1107,
      "velocity": 96,
      "chip": "ym2612"
    },
    {
      "channel": 3,
      "note": 65,
      "start": 33.2783,
      "duration": 0.1102,
      "velocity": 99,
      "chip": "ym2612"
    },
    {
      "channel": 4,
      "note": 60,
      "start": 33.2792,
      "duration": 0.1102,
      "velocity": 99,
      "chip": "ym2612"
    },
    {
      "channel": 3,
      "note": 69,
      "start": 33.3893,
      "duration": 0.4346,
      "velocity": 99,
      "chip": "ym2612"
    },
    {
      "channel": 4,
      "note": 64,
      "start": 33.3902,
      "duration": 0.4345,
      "velocity": 99,
      "chip": "ym2612"
    },
    {
      "channel": 2,
      "note": 77,
      "start": 33.3915,
      "duration": 0.1018,
      "velocity": 127,
      "chip": "ym2612"
    },
    {
      "channel": 1,
      "note": 54,
      "start": 33.4972,
      "duration": 0.1052,
      "velocity": 96,
      "chip": "ym2612"
    },
    {
      "channel": 2,
      "note": 37,
      "start": 33.4993,
      "duration": 0.1228,
      "velocity": 120,
      "chip": "ym2612"
    },
    {
      "channel": 1,
      "note": 54,
      "start": 33.6029,
      "duration": 0.1078,
      "velocity": 96,
      "chip": "ym2612"
    },
    {
      "channel": 0,
      "note": 78,
      "start": 33.8226,
      "duration": 0.1074,
      "velocity": 96,
      "chip": "ym2612"
    },
    {
      "channel": 1,
      "note": 54,
      "start": 33.8236,
      "duration": 0.1072,
      "velocity": 96,
      "chip": "ym2612"
    },
    {
      "channel": 3,
      "note": 63,
      "start": 33.8246,
      "duration": 0.107,
      "velocity": 99,
      "chip": "ym2612"
    },
    {
      "channel": 4,
      "note": 58,
      "start": 33.8255,
      "duration": 0.1069,
      "velocity": 99,
      "chip": "ym2612"
    },
    {
      "channel": 2,
      "note": 37,
      "start": 33.8267,
      "duration": 0.1005,
      "velocity": 120,
      "chip": "ym2612"
    },
    {
      "channel": 0,
      "note": 78,
      "start": 33.9307,
      "duration": 0.105,
      "velocity": 96,
      "chip": "ym2612"
    },
    {
      "channel": 1,
      "note": 54,
      "start": 33.9314,
      "duration": 0.1046,
      "velocity": 96,
      "chip": "ym2612"
    },
    {
      "channel": 3,
      "note": 65,
      "start": 33.9323,
      "duration": 0.104,
      "velocity": 99,
      "chip": "ym2612"
    },
    {
      "channel": 4,
      "note": 60,
      "start": 33.9332,
      "duration": 0.1034,
      "velocity": 99,
      "chip": "ym2612"
    },
    {
      "channel": 2,
      "note": 37,
      "start": 33.9344,
      "duration": 0.1202,
      "velocity": 120,
      "chip": "ym2612"
    },
    {
      "channel": 5,
      "note": 78,
      "start": 34.0378,
      "duration": 0.109,
      "velocity": 85,
      "chip": "ym2612"
    },
    {
      "channel": 0,
      "note": 78,
      "start": 34.1448,
      "duration": 0.1105,
      "velocity": 96,
      "chip": "ym2612"
    },
    {
      "channel": 3,
      "note": 65,
      "start": 34.1458,
      "duration": 0.1099,
      "velocity": 99,
      "chip": "ym2612"
    },
    {
      "channel": 4,
      "note": 60,
      "start": 34.1467,
      "duration": 0.1093,
      "velocity": 99,
      "chip": "ym2612"
    },
    {
      "channel": 5,
      "note": 78,
      "start": 34.1475,
      "duration": 0.1088,
      "velocity": 85,
      "chip": "ym2612"
    },
    {
      "channel": 2,
      "note": 77,
      "start": 34.2573,
      "duration": 0.2321,
      "velocity": 127,
      "chip": "ym2612"
    },
    {
      "channel": 0,
      "note": 73,
      "start": 34.3617,
      "duration": 0.1077,
      "velocity": 96,
      "chip": "ym2612"
    },
    {
      "channel": 3,
      "note": 65,
      "start": 34.3627,
      "duration": 0.1084,
      "velocity": 99,
      "chip": "ym2612"
    },
    {
      "channel": 4,
      "note": 60,
      "start": 34.3636,
      "duration": 0.1084,
      "velocity": 99,
      "chip": "ym2612"
    },
    {
      "channel": 5,
      "note": 78,
      "start": 34.3645,
      "duration": 0.1083,
      "velocity": 85,
      "chip": "ym2612"
    },
    {
      "channel": 0,
      "note": 76,
      "start": 34.4702,
      "duration": 0.1078,
      "velocity": 96,
      "chip": "ym2612"
    },
    {
      "channel": 1,
      "note": 54,
      "start": 34.4709,
      "duration": 0.1074,
      "velocity": 96,
      "chip": "ym2612"
    },
    {
      "channel": 3,
      "note": 63,
      "start": 34.4718,
      "duration": 0.1072,
      "velocity": 99,
      "chip": "ym2612"
    },
    {
      "channel": 4,
      "note": 58,
      "start": 34.4727,
      "duration": 0.1072,
      "velocity": 99,
      "chip": "ym2612"
    },
    {
      "channel": 1,
      "note": 54,
      "start": 34.5788,
      "duration": 0.1084,
      "velocity": 96,
      "chip": "ym2612"
    },
    {
      "channel": 3,
      "note": 65,
      "start": 34.5798,
      "duration": 0.1079,
      "velocity": 99,
      "chip": "ym2612"
    },
    {
      "channel": 4,
      "note": 60,
      "start": 34.5806,
      "duration": 0.1079,
      "velocity": 99,
      "chip": "ym2612"
    },
    {
      "channel": 5,
      "note": 73,
      "start": 34.5815,
      "duration": 0.1079,
      "velocity": 85,
      "chip": "ym2612"
    },
    {
      "channel": 0,
      "note": 85,
      "start": 34.6871,
      "duration": 0.1078,
      "velocity": 96,
      "chip": "ym2612"
    },
    {
      "channel": 3,
      "note": 60,
      "start": 34.6883,
      "duration": 0.1075,
      "velocity": 99,
      "chip": "ym2612"
    },
    {
      "channel": 4,
      "note": 55,
      "start": 34.6892,
      "duration": 0.1076,
      "velocity": 99,
      "chip": "ym2612"
    },
    {
      "channel": 5,
      "note": 76,
      "start": 34.6901,
      "duration": 0.1074,
      "velocity": 85,
      "chip": "ym2612"
    },
    {
      "channel": 0,
      "note": 83,
      "start": 34.7956,
      "duration": 0.1104,
      "velocity": 96,
      "chip": "ym2612"
    },
    {
      "channel": 3,
      "note": 61,
      "start": 34.7965,
      "duration": 0.1111,
      "velocity": 99,
      "chip": "ym2612"
    },
    {
      "channel": 4,
      "note": 56,
      "start": 34.7974,
      "duration": 0.1105,
      "velocity": 99,
      "chip": "ym2612"
    },
    {
      "channel": 0,
      "note": 81,
      "start": 34.9068,
      "duration": 0.105,
      "velocity": 96,
      "chip": "ym2612"
    },
    {
      "channel": 1,
      "note": 54,
      "start": 34.9075,
      "duration": 0.1051,
      "velocity": 96,
      "chip": "ym2612"
    },
    {
      "channel": 5,
      "note": 85,
      "start": 34.909,
      "duration": 0.1062,
      "velocity": 85,
      "chip": "ym2612"
    },
    {
      "channel": 2,
      "note": 37,
      "start": 34.9098,
      "duration": 0.1223,
      "velocity": 120,
      "chip": "ym2612"
    },
    {
      "channel": 0,
      "note": 83,
      "start": 35.0124,
      "duration": 0.219,
      "velocity": 96,
      "chip": "ym2612"
    },
    {
      "channel": 1,
      "note": 54,
      "start": 35.0131,
      "duration": 0.1104,
      "velocity": 96,
      "chip": "ym2612"
    },
    {
      "channel": 3,
      "note": 61,
      "start": 35.0141,
      "duration": 0.1097,
      "velocity": 99,
      "chip": "ym2612"
    },
    {
      "channel": 4,
      "note": 56,
      "start": 35.0151,
      "duration": 0.109,
      "velocity": 99,
      "chip": "ym2612"
    },
    {
      "channel": 5,
      "note": 83,
      "start": 35.016,
      "duration": 0.1085,
      "velocity": 85,
      "chip": "ym2612"
    },
    {
      "channel": 5,
      "note": 81,
      "start": 35.1252,
      "duration": 0.1096,
      "velocity": 85,
      "chip": "ym2612"
    },
    {
      "channel": 2,
      "note": 77,
      "start": 35.126,
      "duration": 0.1026,
      "velocity": 127,
      "chip": "ym2612"
    },
    {
      "channel": 0,
      "note": 81,
      "start": 35.2322,
      "duration": 0.105,
      "velocity": 96,
      "chip": "ym2612"
    },
    {
      "channel": 1,
      "note": 54,
      "start": 35.2329,
      "duration": 0.1051,
      "velocity": 96,
      "chip": "ym2612"
    },
    {
      "channel": 3,
      "note": 63,
      "start": 35.2337,
      "duration": 0.105,
      "velocity": 99,
      "chip": "ym2612"
    },
    {
      "channel": 4,
      "note": 58,
      "start": 35.2346,
      "duration": 0.1049,
      "velocity": 99,
      "chip": "ym2612"
    },
    {
      "channel": 5,
      "note": 83,
      "start": 35.2355,
      "duration": 0.2133,
      "velocity": 85,
      "chip": "ym2612"
    },
    {
      "channel": 2,
      "note": 37,
      "start": 35.2362,
      "duration": 0.1213,
      "velocity": 120,
      "chip": "ym2612"
    },
    {
      "channel": 0,
      "note": 80,
      "start": 35.3379,
      "duration": 0.108,
      "velocity": 96,
      "chip": "ym2612"
    },
    {
      "channel": 1,
      "note": 54,
      "start": 35.3386,
      "duration": 0.1081,
      "velocity": 96,
      "chip": "ym2612"
    },
    {
      "channel": 3,
      "note": 61,
      "start": 35.3395,
      "duration": 0.1076,
      "velocity": 99,
      "chip": "ym2612"
    },
    {
      "channel": 4,
      "note": 56,
      "start": 35.3404,
      "duration": 0.1076,
      "velocity": 99,
      "chip": "ym2612"
    },
    {
      "channel": 0,
      "note": 76,
      "start": 35.4466,
      "duration": 0.1106,
      "velocity": 96,
      "chip": "ym2612"
    },
    {
      "channel": 3,
      "note": 63,
      "start": 35.4478,
      "duration": 0.1115,
      "velocity": 99,
      "chip": "ym2612"
    },
    {
      "channel": 4,
      "note": 58,
      "start": 35.4486,
      "duration": 0.1118,
      "velocity": 99,
      "chip": "ym2612"
    },
    {
      "channel": 5,
      "note": 81,
      "start": 35.4496,
      "duration": 0.1117,
      "velocity": 85,
      "chip": "ym2612"
    },
    {
      "channel": 0,
      "note": 78,
      "start": 35.5579,
      "duration": 0.1073,
      "velocity": 96,
      "chip": "ym2612"
    },
    {
      "channel": 1,
      "note": 54,
      "start": 35.5589,
      "duration": 0.1071,
      "velocity": 96,
      "chip": "ym2612"
    },
    {
      "channel": 3,
      "note": 63,
      "start": 35.56,
      "duration": 0.1068,
      "velocity": 99,
      "chip": "ym2612"
    },
    {
      "channel": 4,
      "note": 58,
      "start": 35.5611,
      "duration": 0.1066,
      "velocity": 99,
      "chip": "ym2612"
    },
    {
      "channel": 5,
      "note": 80,
      "start": 35.562,
      "duration": 0.1066,
      "velocity": 85,
      "chip": "ym2612"
    },
    {
      "channel": 2,
      "note": 37,
      "start": 35.5627,
      "duration": 0.0997,
      "velocity": 120,
      "chip": "ym2612"
    },
    {
      "channel": 0,
      "note": 78,
      "start": 35.6659,
      "duration": 0.105,
      "velocity": 96,
      "chip": "ym2612"
    },
    {
      "channel": 1,
      "note": 54,
      "start": 35.6666,
      "duration": 0.1046,
      "velocity": 96,
      "chip": "ym2612"
    },
    {
      "channel": 3,
      "note": 65,
      "start": 35.6675,
      "duration": 0.1041,
      "velocity": 99,
      "chip": "ym2612"
    },
    {
      "channel": 4,
      "note": 60,
      "start": 35.6684,
      "duration": 0.1035,
      "velocity": 99,
      "chip": "ym2612"
    },
    {
      "channel": 5,
      "note": 76,
      "start": 35.6693,
      "duration": 0.103,
      "velocity": 85,
      "chip": "ym2612"
    },
    {
      "channel": 2,
      "note": 37,
      "start": 35.67,
      "duration": 0.1198,
      "velocity": 120,
      "chip": "ym2612"
    },
    {
      "channel": 5,
      "note": 78,
      "start": 35.7731,
      "duration": 0.109,
      "velocity": 85,
      "chip": "ym2612"
    },
    {
      "channel": 0,
      "note": 78,
      "start": 35.8801,
      "duration": 0.1106,
      "velocity": 96,
      "chip": "ym2612"
    },
    {
      "channel": 3,
      "note": 65,
      "start": 35.881,
      "duration": 0.11,
      "velocity": 99,
      "chip": "ym2612"
    },
    {
      "channel": 4,
      "note": 60,
      "start": 35.8819,
      "duration": 0.1095,
      "velocity": 99,
      "chip": "ym2612"
    },
    {
      "channel": 5,
      "note": 78,
      "start": 35.8827,
      "duration": 0.109,
      "velocity": 85,
      "chip": "ym2612"
    },
    {
      "channel": 2,
      "note": 77,
      "start": 35.9927,
      "duration": 0.2314,
      "velocity": 127,
      "chip": "ym2612"
    },
    {
      "channel": 0,
      "note": 73,
      "start": 36.0971,
      "duration": 0.1078,
      "velocity": 96,
      "chip": "ym2612"
    },
    {
      "channel": 3,
      "note": 65,
      "start": 36.098,
      "duration": 0.1084,
      "velocity": 99,
      "chip": "ym2612"
    },
    {
      "channel": 4,
      "note": 60,
      "start": 36.0989,
      "duration": 0.1078,
      "velocity": 99,
      "chip": "ym2612"
    },
    {
      "channel": 5,
      "note": 78,
      "start": 36.0998,
      "duration": 0.1073,
      "velocity": 85,
      "chip": "ym2612"
    },
    {
      "channel": 0,
      "note": 76,
      "start": 36.2055,
      "duration": 0.1078,
      "velocity": 96,
      "chip": "ym2612"
    },
    {
      "channel": 1,
      "note": 54,
      "start": 36.2062,
      "duration": 0.1074,
      "velocity": 96,
      "chip": "ym2612"
    },
    {
      "channel": 1,
      "note": 54,
      "start": 36.3141,
      "duration": 0.1085,
      "velocity": 96,
      "chip": "ym2612"
    },
    {
      "channel": 3,
      "note": 65,
      "start": 36.3151,
      "duration": 0.1079,
      "velocity": 99,
      "chip": "ym2612"
    },
    {
      "channel": 4,
      "note": 60,
      "start": 36.3159,
      "duration": 0.1074,
      "velocity": 99,
      "chip": "ym2612"
    },
    {
      "channel": 5,
      "note": 73,
      "start": 36.3168,
      "duration": 0.1068,
      "velocity": 85,
      "chip": "ym2612"
    },
    {
      "channel": 0,
      "note": 81,
      "start": 36.4225,
      "duration": 0.87,
      "velocity": 96,
      "chip": "ym2612"
    },
    {
      "channel": 5,
      "note": 76,
      "start": 36.4243,
      "duration": 0.1081,
      "velocity": 85,
      "chip": "ym2612"
    },
    {
      "channel": 3,
      "note": 65,
      "start": 36.5314,
      "duration": 0.1111,
      "velocity": 99,
      "chip": "ym2612"
    },
    {
      "channel": 4,
      "note": 60,
      "start": 36.5323,
      "duration": 0.1106,
      "velocity": 99,
      "chip": "ym2612"
    },
    {
      "channel": 1,
      "note": 54,
      "start": 36.6424,
      "duration": 0.1051,
      "velocity": 96,
      "chip": "ym2612"
    },
    {
      "channel": 5,
      "note": 81,
      "start": 36.6439,
      "duration": 0.8638,
      "velocity": 85,
      "chip": "ym2612"
    },
    {
      "channel": 2,
      "note": 37,
      "start": 36.6447,
      "duration": 0.1227,
      "velocity": 120,
      "chip": "ym2612"
    },
    {
      "channel": 1,
      "note": 54,
      "start": 36.7481,
      "duration": 0.1108,
      "velocity": 96,
      "chip": "ym2612"
    },
    {
      "channel": 3,
      "note": 65,
      "start": 36.749,
      "duration": 0.1103,
      "velocity": 99,
      "chip": "ym2612"
    },
    {
      "channel": 4,
      "note": 60,
      "start": 36.7498,
      "duration": 0.1104,
      "velocity": 99,
      "chip": "ym2612"
    },
    {
      "channel": 3,
      "note": 69,
      "start": 36.86,
      "duration": 0.4345,
      "velocity": 99,
      "chip": "ym2612"
    },
    {
      "channel": 4,
      "note": 64,
      "start": 36.8609,
      "duration": 0.4346,
      "velocity": 99,
      "chip": "ym2612"
    },
    {
      "channel": 2,
      "note": 77,
      "start": 36.8622,
      "duration": 0.1017,
      "velocity": 127,
      "chip": "ym2612"
    },
    {
      "channel": 1,
      "note": 54,
      "start": 36.9678,
      "duration": 0.1051,
      "velocity": 96,
      "chip": "ym2612"
    },
    {
      "channel": 2,
      "note": 37,
      "start": 36.97,
      "duration": 0.1228,
      "velocity": 120,
      "chip": "ym2612"
    },
    {
      "channel": 1,
      "note": 54,
      "start": 37.0735,
      "duration": 0.1078,
      "velocity": 96,
      "chip": "ym2612"
    },
    {
      "channel": 0,
      "note": 85,
      "start": 37.2933,
      "duration": 0.3214,
      "velocity": 96,
      "chip": "ym2612"
    },
    {
      "channel": 1,
      "note": 54,
      "start": 37.2943,
      "duration": 0.1067,
      "velocity": 96,
      "chip": "ym2612"
    },
    {
      "channel": 3,
      "note": 63,
      "start": 37.2953,
      "duration": 0.1066,
      "velocity": 99,
      "chip": "ym2612"
    },
    {
      "channel": 4,
      "note": 58,
      "start": 37.2961,
      "duration": 0.1066,
      "velocity": 99,
      "chip": "ym2612"
    },
    {
      "channel": 2,
      "note": 37,
      "start": 37.2974,
      "duration": 0.1004,
      "velocity": 120,
      "chip": "ym2612"
    },
    {
      "channel": 1,
      "note": 54,
      "start": 37.4016,
      "duration": 0.1051,
      "velocity": 96,
      "chip": "ym2612"
    },
    {
      "channel": 3,
      "note": 65,
      "start": 37.4025,
      "duration": 0.1045,
      "velocity": 99,
      "chip": "ym2612"
    },
    {
      "channel": 4,
      "note": 60,
      "start": 37.4034,
      "duration": 0.1039,
      "velocity": 99,
      "chip": "ym2612"
    },
    {
      "channel": 2,
      "note": 37,
      "start": 37.4046,
      "duration": 0.121,
      "velocity": 120,
      "chip": "ym2612"
    },
    {
      "channel": 5,
      "note": 85,
      "start": 37.5085,
      "duration": 0.3258,
      "velocity": 85,
      "chip": "ym2612"
    },
    {
      "channel": 0,
      "note": 90,
      "start": 37.6154,
      "duration": 0.2162,
      "velocity": 96,
      "chip": "ym2612"
    },
    {
      "channel": 3,
      "note": 65,
      "start": 37.6164,
      "duration": 0.1101,
      "velocity": 99,
      "chip": "ym2612"
    },
    {
      "channel": 4,
      "note": 60,
      "start": 37.6173,
      "duration": 0.1095,
      "velocity": 99,
      "chip": "ym2612"
    },
    {
      "channel": 2,
      "note": 77,
      "start": 37.7283,
      "duration": 0.2323,
      "velocity": 127,
      "chip": "ym2612"
    },
    {
      "channel": 0,
      "note": 88,
      "start": 37.8324,
      "duration": 0.1077,
      "velocity": 96,
      "chip": "ym2612"
    },
    {
      "channel": 3,
      "note": 65,
      "start": 37.8333,
      "duration": 0.1084,
      "velocity": 99,
      "chip": "ym2612"
    },
    {
      "channel": 4,
      "note": 60,
      "start": 37.8341,
      "duration": 0.1085,
      "velocity": 99,
      "chip": "ym2612"
    },
    {
      "channel": 5,
      "note": 90,
      "start": 37.8351,
      "duration": 0.2168,
      "velocity": 85,
      "chip": "ym2612"
    },
    {
      "channel": 0,
      "note": 87,
      "start": 37.9408,
      "duration": 0.1078,
      "velocity": 96,
      "chip": "ym2612"
    },
    {
      "channel": 1,
      "note": 54,
      "start": 37.9415,
      "duration": 0.1079,
      "velocity": 96,
      "chip": "ym2612"
    },
    {
      "channel": 3,
      "note": 63,
      "start": 37.9424,
      "duration": 0.1078,
      "velocity": 99,
      "chip": "ym2612"
    },
    {
      "channel": 4,
      "note": 58,
      "start": 37.9433,
      "duration": 0.1078,
      "velocity": 99,
      "chip": "ym2612"
    },
    {
      "channel": 0,
      "note": 83,
      "start": 38.0493,
      "duration": 0.1078,
      "velocity": 96,
      "chip": "ym2612"
    },
    {
      "channel": 1,
      "note": 54,
      "start": 38.05,
      "duration": 0.108,
      "velocity": 96,
      "chip": "ym2612"
    },
    {
      "channel": 3,
      "note": 65,
      "start": 38.0509,
      "duration": 0.1074,
      "velocity": 99,
      "chip": "ym2612"
    },
    {
      "channel": 4,
      "note": 60,
      "start": 38.0517,
      "duration": 0.1075,
      "velocity": 99,
      "chip": "ym2612"
    },
    {
      "channel": 5,
      "note": 88,
      "start": 38.0527,
      "duration": 0.1074,
      "velocity": 85,
      "chip": "ym2612"
    },
    {
      "channel": 0,
      "note": 81,
      "start": 38.1579,
      "duration": 0.3245,
      "velocity": 96,
      "chip": "ym2612"
    },
    {
      "channel": 3,
      "note": 60,
      "start": 38.1591,
      "duration": 0.1069,
      "velocity": 99,
      "chip": "ym2612"
    },
    {
      "channel": 4,
      "note": 55,
      "start": 38.1599,
      "duration": 0.107,
      "velocity": 99,
      "chip": "ym2612"
    },
    {
      "channel": 5,
      "note": 87,
      "start": 38.1608,
      "duration": 0.107,
      "velocity": 85,
      "chip": "ym2612"
    },
    {
      "channel": 3,
      "note": 61,
      "start": 38.2668,
      "duration": 0.1111,
      "velocity": 99,
      "chip": "ym2612"
    },
    {
      "channel": 4,
      "note": 56,
      "start": 38.2676,
      "duration": 0.1106,
      "velocity": 99,
      "chip": "ym2612"
    },
    {
      "channel": 5,
      "note": 83,
      "start": 38.2685,
      "duration": 0.11,
      "velocity": 85,
      "chip": "ym2612"
    },
    {
      "channel": 1,
      "note": 54,
      "start": 38.3777,
      "duration": 0.1055,
      "velocity": 96,
      "chip": "ym2612"
    },
    {
      "channel": 5,
      "note": 81,
      "start": 38.3792,
      "duration": 0.3257,
      "velocity": 85,
      "chip": "ym2612"
    },
    {
      "channel": 2,
      "note": 37,
      "start": 38.38,
      "duration": 0.1227,
      "velocity": 120,
      "chip": "ym2612"
    },
    {
      "channel": 0,
      "note": 83,
      "start": 38.4831,
      "duration": 0.3246,
      "velocity": 96,
      "chip": "ym2612"
    },
    {
      "channel": 1,
      "note": 54,
      "start": 38.4838,
      "duration": 0.1102,
      "velocity": 96,
      "chip": "ym2612"
    },
    {
      "channel": 3,
      "note": 58,
      "start": 38.4848,
      "duration": 0.1095,
      "velocity": 99,
      "chip": "ym2612"
    },
    {
      "channel": 4,
      "note": 53,
      "start": 38.4858,
      "duration": 0.1089,
      "velocity": 99,
      "chip": "ym2612"
    },
    {
      "channel": 2,
      "note": 77,
      "start": 38.5961,
      "duration": 0.1031,
      "velocity": 127,
      "chip": "ym2612"
    },
    {
      "channel": 1,
      "note": 54,
      "start": 38.703,
      "duration": 0.1056,
      "velocity": 96,
      "chip": "ym2612"
    },
    {
      "channel": 3,
      "note": 58,
      "start": 38.7039,
      "duration": 0.1054,
      "velocity": 99,
      "chip": "ym2612"
    },
    {
      "channel": 4,
      "note": 53,
      "start": 38.7047,
      "duration": 0.1049,
      "velocity": 99,
      "chip": "ym2612"
    },
    {
      "channel": 5,
      "note": 83,
      "start": 38.7056,
      "duration": 0.3261,
      "velocity": 85,
      "chip": "ym2612"
    },
    {
      "channel": 2,
      "note": 37,
      "start": 38.7064,
      "duration": 0.1212,
      "velocity": 120,
      "chip": "ym2612"
    },
    {
      "channel": 0,
      "note": 85,
      "start": 38.8085,
      "duration": 0.2193,
      "velocity": 96,
      "chip": "ym2612"
    },
    {
      "channel": 1,
      "note": 54,
      "start": 38.8092,
      "duration": 0.1074,
      "velocity": 96,
      "chip": "ym2612"
    },
    {
      "channel": 3,
      "note": 60,
      "start": 38.9177,
      "duration": 0.1121,
      "velocity": 99,
      "chip": "ym2612"
    },
    {
      "channel": 4,
      "note": 55,
      "start": 38.9185,
      "duration": 0.1123,
      "velocity": 99,
      "chip": "ym2612"
    },
    {
      "channel": 0,
      "note": 78,
      "start": 39.0285,
      "duration": 0.1074,
      "velocity": 96,
      "chip": "ym2612"
    },
    {
      "channel": 1,
      "note": 54,
      "start": 39.0295,
      "duration": 0.1072,
      "velocity": 96,
      "chip": "ym2612"
    },
    {
      "channel": 3,
      "note": 63,
      "start": 39.0306,
      "duration": 0.1069,
      "velocity": 99,
      "chip": "ym2612"
    },
    {
      "channel": 4,
      "note": 58,
      "start": 39.0315,
      "duration": 0.1068,
      "velocity": 99,
      "chip": "ym2612"
    },
    {
      "channel": 5,
      "note": 85,
      "start": 39.0324,
      "duration": 0.2105,
      "velocity": 85,
      "chip": "ym2612"
    },
    {
      "channel": 2,
      "note": 37,
      "start": 39.0332,
      "duration": 0.0999,
      "velocity": 120,
      "chip": "ym2612"
    },
    {
      "channel": 0,
      "note": 78,
      "start": 39.1366,
      "duration": 0.1049,
      "velocity": 96,
      "chip": "ym2612"
    },
    {
      "channel": 1,
      "note": 54,
      "start": 39.1373,
      "duration": 0.1045,
      "velocity": 96,
      "chip": "ym2612"
    },
    {
      "channel": 3,
      "note": 65,
      "start": 39.1382,
      "duration": 0.1039,
      "velocity": 99,
      "chip": "ym2612"
    },
    {
      "channel": 4,
      "note": 60,
      "start": 39.1391,
      "duration": 0.1034,
      "velocity": 99,
      "chip": "ym2612"
    },
    {
      "channel": 2,
      "note": 37,
      "start": 39.1403,
      "duration": 0.1202,
      "velocity": 120,
      "chip": "ym2612"
    },
    {
      "channel": 5,
      "note": 78,
      "start": 39.2436,
      "duration": 0.1091,
      "velocity": 85,
      "chip": "ym2612"
    },
    {
      "channel": 0,
      "note": 78,
      "start": 39.3507,
      "duration": 0.1105,
      "velocity": 96,
      "chip": "ym2612"
    },
    {
      "channel": 3,
      "note": 65,
      "start": 39.3516,
      "duration": 0.11,
      "velocity": 99,
      "chip": "ym2612"
    },
    {
      "channel": 4,
      "note": 60,
      "start": 39.3525,
      "duration": 0.1094,
      "velocity": 99,
      "chip": "ym2612"
    },
    {
      "channel": 5,
      "note": 78,
      "start": 39.3534,
      "duration": 0.1088,
      "velocity": 85,
      "chip": "ym2612"
    },
    {
      "channel": 2,
      "note": 77,
      "start": 39.4632,
      "duration": 0.2315,
      "velocity": 127,
      "chip": "ym2612"
    },
    {
      "channel": 0,
      "note": 73,
      "start": 39.5676,
      "duration": 0.1078,
      "velocity": 96,
      "chip": "ym2612"
    },
    {
      "channel": 3,
      "note": 65,
      "start": 39.5685,
      "duration": 0.1085,
      "velocity": 99,
      "chip": "ym2612"
    },
    {
      "channel": 4,
      "note": 60,
      "start": 39.5694,
      "duration": 0.1079,
      "velocity": 99,
      "chip": "ym2612"
    },
    {
      "channel": 5,
      "note": 78,
      "start": 39.5703,
      "duration": 0.1074,
      "velocity": 85,
      "chip": "ym2612"
    },
    {
      "channel": 0,
      "note": 76,
      "start": 39.6761,
      "duration": 0.1077,
      "velocity": 96,
      "chip": "ym2612"
    },
    {
      "channel": 1,
      "note": 54,
      "start": 39.6768,
      "duration": 0.1073,
      "velocity": 96,
      "chip": "ym2612"
    },
    {
      "channel": 1,
      "note": 54,
      "start": 39.7847,
      "duration": 0.1085,
      "velocity": 96,
      "chip": "ym2612"
    },
    {
      "channel": 3,
      "note": 65,
      "start": 39.7856,
      "duration": 0.1079,
      "velocity": 99,
      "chip": "ym2612"
    },
    {
      "channel": 4,
      "note": 60,
      "start": 39.7864,
      "duration": 0.1074,
      "velocity": 99,
      "chip": "ym2612"
    },
    {
      "channel": 5,
      "note": 73,
      "start": 39.7873,
      "duration": 0.1069,
      "velocity": 85,
      "chip": "ym2612"
    },
    {
      "channel": 0,
      "note": 81,
      "start": 39.893,
      "duration": 0.87,
      "velocity": 96,
      "chip": "ym2612"
    },
    {
      "channel": 5,
      "note": 76,
      "start": 39.8949,
      "duration": 0.1082,
      "velocity": 85,
      "chip": "ym2612"
    },
    {
      "channel": 3,
      "note": 65,
      "start": 40.0021,
      "duration": 0.1113,
      "velocity": 99,
      "chip": "ym2612"
    },
    {
      "channel": 4,
      "note": 60,
      "start": 40.003,
      "duration": 0.1107,
      "velocity": 99,
      "chip": "ym2612"
    },
    {
      "channel": 1,
      "note": 54,
      "start": 40.1133,
      "duration": 0.1048,
      "velocity": 96,
      "chip": "ym2612"
    },
    {
      "channel": 5,
      "note": 81,
      "start": 40.1148,
      "duration": 0.8634,
      "velocity": 85,
      "chip": "ym2612"
    },
    {
      "channel": 2,
      "note": 37,
      "start": 40.1155,
      "duration": 0.1225,
      "velocity": 120,
      "chip": "ym2612"
    },
    {
      "channel": 1,
      "note": 54,
      "start": 40.2187,
      "duration": 0.1107,
      "velocity": 96,
      "chip": "ym2612"
    },
    {
      "channel": 3,
      "note": 65,
      "start": 40.2196,
      "duration": 0.1101,
      "velocity": 99,
      "chip": "ym2612"
    },
    {
      "channel": 4,
      "note": 60,
      "start": 40.2204,
      "duration": 0.1102,
      "velocity": 99,
      "chip": "ym2612"
    },
    {
      "channel": 3,
      "note": 69,
      "start": 40.3305,
      "duration": 0.4345,
      "velocity": 99,
      "chip": "ym2612"
    },
    {
      "channel": 4,
      "note": 64,
      "start": 40.3314,
      "duration": 0.4345,
      "velocity": 99,
      "chip": "ym2612"
    },
    {
      "channel": 2,
      "note": 77,
      "start": 40.3327,
      "duration": 0.1018,
      "velocity": 127,
      "chip": "ym2612"
    },
    {
      "channel": 1,
      "note": 54,
      "start": 40.4383,
      "duration": 0.1052,
      "velocity": 96,
      "chip": "ym2612"
    },
    {
      "channel": 2,
      "note": 37,
      "start": 40.4405,
      "duration": 0.1228,
      "velocity": 120,
      "chip": "ym2612"
    },
    {
      "channel": 1,
      "note": 54,
      "start": 40.5441,
      "duration": 0.1078,
      "velocity": 96,
      "chip": "ym2612"
    },
    {
      "channel": 0,
      "note": 78,
      "start": 40.7638,
      "duration": 0.1074,
      "velocity": 96,
      "chip": "ym2612"
    },
    {
      "channel": 1,
      "note": 54,
      "start": 40.7648,
      "duration": 0.1073,
      "velocity": 96,
      "chip": "ym2612"
    },
    {
      "channel": 3,
      "note": 63,
      "start": 40.7657,
      "duration": 0.1071,
      "velocity": 99,
      "chip": "ym2612"
    },
    {
      "channel": 4,
      "note": 58,
      "start": 40.7666,
      "duration": 0.1071,
      "velocity": 99,
      "chip": "ym2612"
    },
    {
      "channel": 2,
      "note": 37,
      "start": 40.7678,
      "duration": 0.1006,
      "velocity": 120,
      "chip": "ym2612"
    },
    {
      "channel": 0,
      "note": 78,
      "start": 40.8719,
      "duration": 0.1049,
      "velocity": 96,
      "chip": "ym2612"
    },
    {
      "channel": 1,
      "note": 54,
      "start": 40.8727,
      "duration": 0.1045,
      "velocity": 96,
      "chip": "ym2612"
    },
    {
      "channel": 3,
      "note": 65,
      "start": 40.8736,
      "duration": 0.1039,
      "velocity": 99,
      "chip": "ym2612"
    },
    {
      "channel": 4,
      "note": 60,
      "start": 40.8745,
      "duration": 0.1033,
      "velocity": 99,
      "chip": "ym2612"
    },
    {
      "channel": 2,
      "note": 37,
      "start": 40.8756,
      "duration": 0.1202,
      "velocity": 120,
      "chip": "ym2612"
    },
    {
      "channel": 5,
      "note": 78,
      "start": 40.9789,
      "duration": 0.1092,
      "velocity": 85,
      "chip": "ym2612"
    },
    {
      "channel": 0,
      "note": 81,
      "start": 41.086,
      "duration": 0.1105,
      "velocity": 96,
      "chip": "ym2612"
    },
    {
      "channel": 3,
      "note": 65,
      "start": 41.0871,
      "duration": 0.1099,
      "velocity": 99,
      "chip": "ym2612"
    },
    {
      "channel": 4,
      "note": 60,
      "start": 41.088,
      "duration": 0.1093,
      "velocity": 99,
      "chip": "ym2612"
    },
    {
      "channel": 5,
      "note": 78,
      "start": 41.0888,
      "duration": 0.1088,
      "velocity": 85,
      "chip": "ym2612"
    },
    {
      "channel": 2,
      "note": 77,
      "start": 41.1986,
      "duration": 0.2322,
      "velocity": 127,
      "chip": "ym2612"
    },
    {
      "channel": 0,
      "note": 80,
      "start": 41.3029,
      "duration": 0.1077,
      "velocity": 96,
      "chip": "ym2612"
    },
    {
      "channel": 3,
      "note": 65,
      "start": 41.3039,
      "duration": 0.1084,
      "velocity": 99,
      "chip": "ym2612"
    },
    {
      "channel": 4,
      "note": 60,
      "start": 41.3047,
      "duration": 0.1084,
      "velocity": 99,
      "chip": "ym2612"
    },
    {
      "channel": 5,
      "note": 81,
      "start": 41.3056,
      "duration": 0.1083,
      "velocity": 85,
      "chip": "ym2612"
    },
    {
      "channel": 0,
      "note": 78,
      "start": 41.4114,
      "duration": 0.1078,
      "velocity": 96,
      "chip": "ym2612"
    },
    {
      "channel": 1,
      "note": 54,
      "start": 41.4121,
      "duration": 0.1079,
      "velocity": 96,
      "chip": "ym2612"
    },
    {
      "channel": 3,
      "note": 63,
      "start": 41.4129,
      "duration": 0.1078,
      "velocity": 99,
      "chip": "ym2612"
    },
    {
      "channel": 4,
      "note": 58,
      "start": 41.4138,
      "duration": 0.1078,
      "velocity": 99,
      "chip": "ym2612"
    },
    {
      "channel": 0,
      "note": 76,
      "start": 41.5199,
      "duration": 0.1078,
      "velocity": 96,
      "chip": "ym2612"
    },
    {
      "channel": 1,
      "note": 54,
      "start": 41.5206,
      "duration": 0.1079,
      "velocity": 96,
      "chip": "ym2612"
    },
    {
      "channel": 3,
      "note": 65,
      "start": 41.5215,
      "duration": 0.1073,
      "velocity": 99,
      "chip": "ym2612"
    },
    {
      "channel": 4,
      "note": 60,
      "start": 41.5224,
      "duration": 0.1073,
      "velocity": 99,
      "chip": "ym2612"
    },
    {
      "channel": 5,
      "note": 80,
      "start": 41.5232,
      "duration": 0.1074,
      "velocity": 85,
      "chip": "ym2612"
    },
    {
      "channel": 0,
      "note": 73,
      "start": 41.6283,
      "duration": 0.1105,
      "velocity": 96,
      "chip": "ym2612"
    },
    {
      "channel": 3,
      "note": 60,
      "start": 41.6295,
      "duration": 0.1102,
      "velocity": 99,
      "chip": "ym2612"
    },
    {
      "channel": 4,
      "note": 55,
      "start": 41.6304,
      "duration": 0.1103,
      "velocity": 99,
      "chip": "ym2612"
    },
    {
      "channel": 5,
      "note": 78,
      "start": 41.6313,
      "duration": 0.1103,
      "velocity": 85,
      "chip": "ym2612"
    },
    {
      "channel": 0,
      "note": 73,
      "start": 41.7395,
      "duration": 0.1077,
      "velocity": 96,
      "chip": "ym2612"
    },
    {
      "channel": 3,
      "note": 61,
      "start": 41.7406,
      "duration": 0.1083,
      "velocity": 99,
      "chip": "ym2612"
    },
    {
      "channel": 4,
      "note": 56,
      "start": 41.7414,
      "duration": 0.1078,
      "velocity": 99,
      "chip": "ym2612"
    },
    {
      "channel": 5,
      "note": 76,
      "start": 41.7423,
      "duration": 0.1072,
      "velocity": 85,
      "chip": "ym2612"
    },
    {
      "channel": 2,
      "note": 77,
      "start": 41.7431,
      "duration": 0.0291,
      "velocity": 127,
      "chip": "ym2612"
    },
    {
      "channel": 2,
      "note": 77,
      "start": 41.7776,
      "duration": 0.0667,
      "velocity": 127,
      "chip": "ym2612"
    },
    {
      "channel": 0,
      "note": 66,
      "start": 41.8479,
      "duration": 0.1078,
      "velocity": 96,
      "chip": "ym2612"
    },
    {
      "channel": 1,
      "note": 54,
      "start": 41.8486,
      "duration": 0.1079,
      "velocity": 96,
      "chip": "ym2612"
    },
    {
      "channel": 5,
      "note": 73,
      "start": 41.8502,
      "duration": 0.109,
      "velocity": 85,
      "chip": "ym2612"
    },
    {
      "channel": 2,
      "note": 77,
      "start": 41.851,
      "duration": 0.1019,
      "velocity": 127,
      "chip": "ym2612"
    },
    {
      "channel": 0,
      "note": 71,
      "start": 41.9564,
      "duration": 0.1078,
      "velocity": 96,
      "chip": "ym2612"
    },
    {
      "channel": 1,
      "note": 54,
      "start": 41.9572,
      "duration": 0.1078,
      "velocity": 96,
      "chip": "ym2612"
    },
    {
      "channel": 3,
      "note": 61,
      "start": 41.9581,
      "duration": 0.1072,
      "velocity": 99,
      "chip": "ym2612"
    },
    {
      "channel": 4,
      "note": 56,
      "start": 41.9591,
      "duration": 0.1066,
      "velocity": 99,
      "chip": "ym2612"
    },
    {
      "channel": 5,
      "note": 73,
      "start": 41.96,
      "duration": 0.106,
      "velocity": 85,
      "chip": "ym2612"
    },
    {
      "channel": 2,
      "note": 77,
      "start": 41.9608,
      "duration": 0.1006,
      "velocity": 127,
      "chip": "ym2612"
    },
    {
      "channel": 0,
      "note": 71,
      "start": 42.0649,
      "duration": 0.1078,
      "velocity": 96,
      "chip": "ym2612"
    },
    {
      "channel": 5,
      "note": 66,
      "start": 42.0667,
      "duration": 0.1093,
      "velocity": 85,
      "chip": "ym2612"
    },
    {
      "channel": 2,
      "note": 77,
      "start": 42.0675,
      "duration": 0.1023,
      "velocity": 127,
      "chip": "ym2612"
    },
    {
      "channel": 0,
      "note": 66,
      "start": 42.1734,
      "duration": 0.1077,
      "velocity": 96,
      "chip": "ym2612"
    },
    {
      "channel": 1,
      "note": 54,
      "start": 42.1741,
      "duration": 0.1078,
      "velocity": 96,
      "chip": "ym2612"
    },
    {
      "channel": 3,
      "note": 63,
      "start": 42.175,
      "duration": 0.1077,
      "velocity": 99,
      "chip": "ym2612"
    },
    {
      "channel": 4,
      "note": 58,
      "start": 42.1758,
      "duration": 0.1077,
      "velocity": 99,
      "chip": "ym2612"
    },
    {
      "channel": 5,
      "note": 71,
      "start": 42.1767,
      "duration": 0.1077,
      "velocity": 85,
      "chip": "ym2612"
    },
    {
      "channel": 2,
      "note": 77,
      "start": 42.1775,
      "duration": 0.1008,
      "velocity": 127,
      "chip": "ym2612"
    },
    {
      "channel": 0,
      "note": 69,
      "start": 42.2818,
      "duration": 0.1078,
      "velocity": 96,
      "chip": "ym2612"
    },
    {
      "channel": 1,
      "note": 54,
      "start": 42.2825,
      "duration": 0.1079,
      "velocity": 96,
      "chip": "ym2612"
    },
    {
      "channel": 3,
      "note": 61,
      "start": 42.2834,
      "duration": 0.1073,
      "velocity": 99,
      "chip": "ym2612"
    },
    {
      "channel": 4,
      "note": 56,
      "start": 42.2843,
      "duration": 0.1073,
      "velocity": 99,
      "chip": "ym2612"
    },
    {
      "channel": 5,
      "note": 71,
      "start": 42.2851,
      "duration": 0.1074,
      "velocity": 85,
      "chip": "ym2612"
    },
    {
      "channel": 2,
      "note": 77,
      "start": 42.2859,
      "duration": 0.1008,
      "velocity": 127,
      "chip": "ym2612"
    },
    {
      "channel": 0,
      "note": 61,
      "start": 42.3902,
      "duration": 0.1081,
      "velocity": 96,
      "chip": "ym2612"
    },
    {
      "channel": 3,
      "note": 63,
      "start": 42.3915,
      "duration": 0.1085,
      "velocity": 99,
      "chip": "ym2612"
    },
    {
      "channel": 4,
      "note": 58,
      "start": 42.3923,
      "duration": 0.1087,
      "velocity": 99,
      "chip": "ym2612"
    },
    {
      "channel": 5,
      "note": 66,
      "start": 42.3932,
      "duration": 0.1087,
      "velocity": 85,
      "chip": "ym2612"
    },
    {
      "channel": 2,
      "note": 77,
      "start": 42.394,
      "duration": 0.1015,
      "velocity": 127,
      "chip": "ym2612"
    },
    {
      "channel": 1,
      "note": 54,
      "start": 42.4995,
      "duration": 0.107,
      "velocity": 96,
      "chip": "ym2612"
    },
    {
      "channel": 3,
      "note": 63,
      "start": 42.5006,
      "duration": 0.1067,
      "velocity": 99,
      "chip": "ym2612"
    },
    {
      "channel": 4,
      "note": 58,
      "start": 42.5017,
      "duration": 0.1065,
      "velocity": 99,
      "chip": "ym2612"
    },
    {
      "channel": 5,
      "note": 69,
      "start": 42.5026,
      "duration": 0.1065,
      "velocity": 85,
      "chip": "ym2612"
    },
    {
      "channel": 2,
      "note": 37,
      "start": 42.5033,
      "duration": 0.1004,
      "velocity": 120,
      "chip": "ym2612"
    },
    {
      "channel": 1,
      "note": 54,
      "start": 42.6072,
      "duration": 0.105,
      "velocity": 96,
      "chip": "ym2612"
    },
    {
      "channel": 3,
      "note": 65,
      "start": 42.608,
      "duration": 0.1045,
      "velocity": 99,
      "chip": "ym2612"
    },
    {
      "channel": 4,
      "note": 60,
      "start": 42.6089,
      "duration": 0.104,
      "velocity": 99,
      "chip": "ym2612"
    },
    {
      "channel": 5,
      "note": 61,
      "start": 42.6098,
      "duration": 0.1035,
      "velocity": 85,
      "chip": "ym2612"
    },
    {
      "channel": 2,
      "note": 37,
      "start": 42.6105,
      "duration": 0.1202,
      "velocity": 120,
      "chip": "ym2612"
    },
    {
      "channel": 3,
      "note": 65,
      "start": 42.8215,
      "duration": 0.1105,
      "velocity": 99,
      "chip": "ym2612"
    },
    {
      "channel": 4,
      "note": 60,
      "start": 42.8224,
      "duration": 0.1099,
      "velocity": 99,
      "chip": "ym2612"
    },
    {
      "channel": 2,
      "note": 77,
      "start": 42.9334,
      "duration": 0.2315,
      "velocity": 127,
      "chip": "ym2612"
    },
    {
      "channel": 3,
      "note": 65,
      "start": 43.0385,
      "duration": 0.1083,
      "velocity": 99,
      "chip": "ym2612"
    },
    {
      "channel": 4,
      "note": 60,
      "start": 43.0393,
      "duration": 0.1077,
      "velocity": 99,
      "chip": "ym2612"
    },
    {
      "channel": 1,
      "note": 54,
      "start": 43.1466,
      "duration": 0.1079,
      "velocity": 96,
      "chip": "ym2612"
    },
    {
      "channel": 1,
      "note": 54,
      "start": 43.2551,
      "duration": 0.108,
      "velocity": 96,
      "chip": "ym2612"
    },
    {
      "channel": 3,
      "note": 65,
      "start": 43.2559,
      "duration": 0.1074,
      "velocity": 99,
      "chip": "ym2612"
    },
    {
      "channel": 4,
      "note": 60,
      "start": 43.2568,
      "duration": 0.1068,
      "velocity": 99,
      "chip": "ym2612"
    },
    {
      "channel": 3,
      "note": 65,
      "start": 43.4723,
      "duration": 0.111,
      "velocity": 99,
      "chip": "ym2612"
    },
    {
      "channel": 4,
      "note": 60,
      "start": 43.4732,
      "duration": 0.1104,
      "velocity": 99,
      "chip": "ym2612"
    },
    {
      "channel": 1,
      "note": 54,
      "start": 43.5832,
      "duration": 0.1051,
      "velocity": 96,
      "chip": "ym2612"
    },
    {
      "channel": 2,
      "note": 37,
      "start": 43.5846,
      "duration": 0.1233,
      "velocity": 120,
      "chip": "ym2612"
    },
    {
      "channel": 1,
      "note": 54,
      "start": 43.6888,
      "duration": 0.1107,
      "velocity": 96,
      "chip": "ym2612"
    },
    {
      "channel": 3,
      "note": 65,
      "start": 43.6897,
      "duration": 0.1102,
      "velocity": 99,
      "chip": "ym2612"
    },
    {
      "channel": 4,
      "note": 60,
      "start": 43.6906,
      "duration": 0.1103,
      "velocity": 99,
      "chip": "ym2612"
    },
    {
      "channel": 3,
      "note": 69,
      "start": 43.8007,
      "duration": 0.4344,
      "velocity": 99,
      "chip": "ym2612"
    },
    {
      "channel": 4,
      "note": 64,
      "start": 43.8016,
      "duration": 0.4344,
      "velocity": 99,
      "chip": "ym2612"
    },
    {
      "channel": 2,
      "note": 77,
      "start": 43.8025,
      "duration": 0.1026,
      "velocity": 127,
      "chip": "ym2612"
    },
    {
      "channel": 1,
      "note": 54,
      "start": 43.9086,
      "duration": 0.1054,
      "velocity": 96,
      "chip": "ym2612"
    },
    {
      "channel": 2,
      "note": 37,
      "start": 43.9104,
      "duration": 0.1228,
      "velocity": 120,
      "chip": "ym2612"
    },
    {
      "channel": 1,
      "note": 54,
      "start": 44.0146,
      "duration": 0.1076,
      "velocity": 96,
      "chip": "ym2612"
    },
    {
      "channel": 1,
      "note": 54,
      "start": 44.2349,
      "duration": 0.1071,
      "velocity": 96,
      "chip": "ym2612"
    },
    {
      "channel": 3,
      "note": 63,
      "start": 44.2359,
      "duration": 0.1068,
      "velocity": 99,
      "chip": "ym2612"
    },
    {
      "channel": 4,
      "note": 58,
      "start": 44.2368,
      "duration": 0.1067,
      "velocity": 99,
      "chip": "ym2612"
    },
    {
      "channel": 2,
      "note": 37,
      "start": 44.2376,
      "duration": 0.1015,
      "velocity": 120,
      "chip": "ym2612"
    },
    {
      "channel": 1,
      "note": 54,
      "start": 44.3425,
      "duration": 0.1049,
      "velocity": 96,
      "chip": "ym2612"
    },
    {
      "channel": 3,
      "note": 65,
      "start": 44.3434,
      "duration": 0.1044,
      "velocity": 99,
      "chip": "ym2612"
    },
    {
      "channel": 4,
      "note": 60,
      "start": 44.3443,
      "duration": 0.1039,
      "velocity": 99,
      "chip": "ym2612"
    },
    {
      "channel": 2,
      "note": 37,
      "start": 44.3451,
      "duration": 0.1209,
      "velocity": 120,
      "chip": "ym2612"
    },
    {
      "channel": 3,
      "note": 65,
      "start": 44.5568,
      "duration": 0.1105,
      "velocity": 99,
      "chip": "ym2612"
    },
    {
      "channel": 4,
      "note": 60,
      "start": 44.5577,
      "duration": 0.1099,
      "velocity": 99,
      "chip": "ym2612"
    },
    {
      "channel": 2,
      "note": 77,
      "start": 44.6687,
      "duration": 0.2323,
      "velocity": 127,
      "chip": "ym2612"
    },
    {
      "channel": 3,
      "note": 65,
      "start": 44.7739,
      "duration": 0.1081,
      "velocity": 99,
      "chip": "ym2612"
    },
    {
      "channel": 4,
      "note": 60,
      "start": 44.7749,
      "duration": 0.1081,
      "velocity": 99,
      "chip": "ym2612"
    },
    {
      "channel": 1,
      "note": 54,
      "start": 44.882,
      "duration": 0.1078,
      "velocity": 96,
      "chip": "ym2612"
    },
    {
      "channel": 3,
      "note": 63,
      "start": 44.8828,
      "duration": 0.1078,
      "velocity": 99,
      "chip": "ym2612"
    },
    {
      "channel": 4,
      "note": 58,
      "start": 44.8837,
      "duration": 0.1078,
      "velocity": 99,
      "chip": "ym2612"
    },
    {
      "channel": 1,
      "note": 54,
      "start": 44.9904,
      "duration": 0.1078,
      "velocity": 96,
      "chip": "ym2612"
    },
    {
      "channel": 3,
      "note": 65,
      "start": 44.9913,
      "duration": 0.1073,
      "velocity": 99,
      "chip": "ym2612"
    },
    {
      "channel": 4,
      "note": 60,
      "start": 44.9922,
      "duration": 0.1073,
      "velocity": 99,
      "chip": "ym2612"
    },
    {
      "channel": 3,
      "note": 60,
      "start": 45.0993,
      "duration": 0.1075,
      "velocity": 99,
      "chip": "ym2612"
    },
    {
      "channel": 4,
      "note": 55,
      "start": 45.1002,
      "duration": 0.1076,
      "velocity": 99,
      "chip": "ym2612"
    },
    {
      "channel": 3,
      "note": 61,
      "start": 45.2076,
      "duration": 0.1112,
      "velocity": 99,
      "chip": "ym2612"
    },
    {
      "channel": 4,
      "note": 56,
      "start": 45.2084,
      "duration": 0.1106,
      "velocity": 99,
      "chip": "ym2612"
    },
    {
      "channel": 1,
      "note": 54,
      "start": 45.3186,
      "duration": 0.105,
      "velocity": 96,
      "chip": "ym2612"
    },
    {
      "channel": 2,
      "note": 37,
      "start": 45.32,
      "duration": 0.1232,
      "velocity": 120,
      "chip": "ym2612"
    },
    {
      "channel": 1,
      "note": 54,
      "start": 45.4242,
      "duration": 0.1106,
      "velocity": 96,
      "chip": "ym2612"
    },
    {
      "channel": 3,
      "note": 58,
      "start": 45.4252,
      "duration": 0.11,
      "velocity": 99,
      "chip": "ym2612"
    },
    {
      "channel": 4,
      "note": 53,
      "start": 45.4261,
      "duration": 0.1093,
      "velocity": 99,
      "chip": "ym2612"
    },
    {
      "channel": 2,
      "note": 77,
      "start": 45.5366,
      "duration": 0.1039,
      "velocity": 127,
      "chip": "ym2612"
    },
    {
      "channel": 1,
      "note": 54,
      "start": 45.6439,
      "duration": 0.105,
      "velocity": 96,
      "chip": "ym2612"
    },
    {
      "channel": 3,
      "note": 58,
      "start": 45.6448,
      "duration": 0.105,
      "velocity": 99,
      "chip": "ym2612"
    },
    {
      "channel": 4,
      "note": 53,
      "start": 45.6456,
      "duration": 0.1044,
      "velocity": 99,
      "chip": "ym2612"
    },
    {
      "channel": 2,
      "note": 37,
      "start": 45.6465,
      "duration": 0.1213,
      "velocity": 120,
      "chip": "ym2612"
    },
    {
      "channel": 1,
      "note": 54,
      "start": 45.7495,
      "duration": 0.108,
      "velocity": 96,
      "chip": "ym2612"
    },
    {
      "channel": 3,
      "note": 60,
      "start": 45.8585,
      "duration": 0.1119,
      "velocity": 99,
      "chip": "ym2612"
    },
    {
      "channel": 4,
      "note": 55,
      "start": 45.8594,
      "duration": 0.112,
      "velocity": 99,
      "chip": "ym2612"
    },
    {
      "channel": 1,
      "note": 54,
      "start": 45.9702,
      "duration": 0.1069,
      "velocity": 96,
      "chip": "ym2612"
    },
    {
      "channel": 3,
      "note": 63,
      "start": 45.9712,
      "duration": 0.1067,
      "velocity": 99,
      "chip": "ym2612"
    },
    {
      "channel": 4,
      "note": 58,
      "start": 45.9722,
      "duration": 0.1066,
      "velocity": 99,
      "chip": "ym2612"
    },
    {
      "channel": 2,
      "note": 37,
      "start": 45.9729,
      "duration": 0.1013,
      "velocity": 120,
      "chip": "ym2612"
    },
    {
      "channel": 1,
      "note": 54,
      "start": 46.0777,
      "duration": 0.1051,
      "velocity": 96,
      "chip": "ym2612"
    },
    {
      "channel": 3,
      "note": 65,
      "start": 46.0786,
      "duration": 0.1046,
      "velocity": 99,
      "chip": "ym2612"
    },
    {
      "channel": 4,
      "note": 60,
      "start": 46.0795,
      "duration": 0.104,
      "velocity": 99,
      "chip": "ym2612"
    },
    {
      "channel": 2,
      "note": 37,
      "start": 46.0802,
      "duration": 0.1211,
      "velocity": 120,
      "chip": "ym2612"
    },
    {
      "channel": 3,
      "note": 65,
      "start": 46.2921,
      "duration": 0.1105,
      "velocity": 99,
      "chip": "ym2612"
    },
    {
      "channel": 4,
      "note": 60,
      "start": 46.2929,
      "duration": 0.11,
      "velocity": 99,
      "chip": "ym2612"
    },
    {
      "channel": 2,
      "note": 77,
      "start": 46.404,
      "duration": 0.2315,
      "velocity": 127,
      "chip": "ym2612"
    },
    {
      "channel": 3,
      "note": 65,
      "start": 46.509,
      "duration": 0.1085,
      "velocity": 99,
      "chip": "ym2612"
    },
    {
      "channel": 4,
      "note": 60,
      "start": 46.5099,
      "duration": 0.1079,
      "velocity": 99,
      "chip": "ym2612"
    },
    {
      "channel": 1,
      "note": 54,
      "start": 46.6173,
      "duration": 0.1078,
      "velocity": 96,
      "chip": "ym2612"
    },
    {
      "channel": 1,
      "note": 54,
      "start": 46.7257,
      "duration": 0.1079,
      "velocity": 96,
      "chip": "ym2612"
    },
    {
      "channel": 3,
      "note": 65,
      "start": 46.7266,
      "duration": 0.1073,
      "velocity": 99,
      "chip": "ym2612"
    },
    {
      "channel": 4,
      "note": 60,
      "start": 46.7274,
      "duration": 0.1068,
      "velocity": 99,
      "chip": "ym2612"
    },
    {
      "channel": 3,
      "note": 65,
      "start": 46.9429,
      "duration": 0.1112,
      "velocity": 99,
      "chip": "ym2612"
    },
    {
      "channel": 4,
      "note": 60,
      "start": 46.9437,
      "duration": 0.1107,
      "velocity": 99,
      "chip": "ym2612"
    },
    {
      "channel": 1,
      "note": 54,
      "start": 47.0539,
      "duration": 0.105,
      "velocity": 96,
      "chip": "ym2612"
    },
    {
      "channel": 2,
      "note": 37,
      "start": 47.0553,
      "duration": 0.1232,
      "velocity": 120,
      "chip": "ym2612"
    },
    {
      "channel": 1,
      "note": 54,
      "start": 47.1595,
      "duration": 0.1106,
      "velocity": 96,
      "chip": "ym2612"
    },
    {
      "channel": 3,
      "note": 65,
      "start": 47.1604,
      "duration": 0.1101,
      "velocity": 99,
      "chip": "ym2612"
    },
    {
      "channel": 4,
      "note": 60,
      "start": 47.1612,
      "duration": 0.1102,
      "velocity": 99,
      "chip": "ym2612"
    },
    {
      "channel": 3,
      "note": 69,
      "start": 47.2712,
      "duration": 0.4345,
      "velocity": 99,
      "chip": "ym2612"
    },
    {
      "channel": 4,
      "note": 64,
      "start": 47.2722,
      "duration": 0.4345,
      "velocity": 99,
      "chip": "ym2612"
    },
    {
      "channel": 2,
      "note": 77,
      "start": 47.2731,
      "duration": 0.1027,
      "velocity": 127,
      "chip": "ym2612"
    },
    {
      "channel": 1,
      "note": 54,
      "start": 47.3792,
      "duration": 0.105,
      "velocity": 96,
      "chip": "ym2612"
    },
    {
      "channel": 2,
      "note": 37,
      "start": 47.381,
      "duration": 0.1228,
      "velocity": 120,
      "chip": "ym2612"
    },
    {
      "channel": 1,
      "note": 54,
      "start": 47.4848,
      "duration": 0.108,
      "velocity": 96,
      "chip": "ym2612"
    },
    {
      "channel": 1,
      "note": 54,
      "start": 47.7056,
      "duration": 0.1069,
      "velocity": 96,
      "chip": "ym2612"
    },
    {
      "channel": 3,
      "note": 63,
      "start": 47.7065,
      "duration": 0.1067,
      "velocity": 99,
      "chip": "ym2612"
    },
    {
      "channel": 4,
      "note": 58,
      "start": 47.7075,
      "duration": 0.1066,
      "velocity": 99,
      "chip": "ym2612"
    },
    {
      "channel": 2,
      "note": 37,
      "start": 47.7083,
      "duration": 0.1013,
      "velocity": 120,
      "chip": "ym2612"
    },
    {
      "channel": 1,
      "note": 54,
      "start": 47.813,
      "duration": 0.1051,
      "velocity": 96,
      "chip": "ym2612"
    },
    {
      "channel": 3,
      "note": 65,
      "start": 47.8139,
      "duration": 0.1046,
      "velocity": 99,
      "chip": "ym2612"
    },
    {
      "channel": 4,
      "note": 60,
      "start": 47.8148,
      "duration": 0.104,
      "velocity": 99,
      "chip": "ym2612"
    },
    {
      "channel": 2,
      "note": 37,
      "start": 47.8156,
      "duration": 0.121,
      "velocity": 120,
      "chip": "ym2612"
    },
    {
      "channel": 3,
      "note": 65,
      "start": 48.0275,
      "duration": 0.1103,
      "velocity": 99,
      "chip": "ym2612"
    },
    {
      "channel": 4,
      "note": 60,
      "start": 48.0284,
      "duration": 0.1097,
      "velocity": 99,
      "chip": "ym2612"
    },
    {
      "channel": 2,
      "note": 77,
      "start": 48.1393,
      "duration": 0.2323,
      "velocity": 127,
      "chip": "ym2612"
    },
    {
      "channel": 3,
      "note": 65,
      "start": 48.2443,
      "duration": 0.1083,
      "velocity": 99,
      "chip": "ym2612"
    },
    {
      "channel": 4,
      "note": 60,
      "start": 48.2452,
      "duration": 0.1083,
      "velocity": 99,
      "chip": "ym2612"
    },
    {
      "channel": 1,
      "note": 54,
      "start": 48.3525,
      "duration": 0.1079,
      "velocity": 96,
      "chip": "ym2612"
    },
    {
      "channel": 3,
      "note": 63,
      "start": 48.3534,
      "duration": 0.1077,
      "velocity": 99,
      "chip": "ym2612"
    },
    {
      "channel": 4,
      "note": 58,
      "start": 48.3542,
      "duration": 0.1078,
      "velocity": 99,
      "chip": "ym2612"
    },
    {
      "channel": 1,
      "note": 54,
      "start": 48.461,
      "duration": 0.108,
      "velocity": 96,
      "chip": "ym2612"
    },
    {
      "channel": 3,
      "note": 65,
      "start": 48.4618,
      "duration": 0.1074,
      "velocity": 99,
      "chip": "ym2612"
    },
    {
      "channel": 4,
      "note": 60,
      "start": 48.4627,
      "duration": 0.1074,
      "velocity": 99,
      "chip": "ym2612"
    },
    {
      "channel": 3,
      "note": 60,
      "start": 48.57,
      "duration": 0.1078,
      "velocity": 99,
      "chip": "ym2612"
    },
    {
      "channel": 4,
      "note": 55,
      "start": 48.5708,
      "duration": 0.1078,
      "velocity": 99,
      "chip": "ym2612"
    },
    {
      "channel": 3,
      "note": 61,
      "start": 48.6785,
      "duration": 0.1107,
      "velocity": 99,
      "chip": "ym2612"
    },
    {
      "channel": 4,
      "note": 56,
      "start": 48.6794,
      "duration": 0.1102,
      "velocity": 99,
      "chip": "ym2612"
    },
    {
      "channel": 1,
      "note": 54,
      "start": 48.7891,
      "duration": 0.1051,
      "velocity": 96,
      "chip": "ym2612"
    },
    {
      "channel": 2,
      "note": 37,
      "start": 48.7906,
      "duration": 0.1233,
      "velocity": 120,
      "chip": "ym2612"
    },
    {
      "channel": 1,
      "note": 54,
      "start": 48.8948,
      "duration": 0.1107,
      "velocity": 96,
      "chip": "ym2612"
    },
    {
      "channel": 3,
      "note": 61,
      "start": 48.8958,
      "duration": 0.11,
      "velocity": 99,
      "chip": "ym2612"
    },
    {
      "channel": 4,
      "note": 56,
      "start": 48.8967,
      "duration": 0.1094,
      "velocity": 99,
      "chip": "ym2612"
    },
    {
      "channel": 2,
      "note": 77,
      "start": 49.0072,
      "duration": 0.1039,
      "velocity": 127,
      "chip": "ym2612"
    },
    {
      "channel": 1,
      "note": 54,
      "start": 49.1145,
      "duration": 0.1051,
      "velocity": 96,
      "chip": "ym2612"
    },
    {
      "channel": 3,
      "note": 63,
      "start": 49.1154,
      "duration": 0.1049,
      "velocity": 99,
      "chip": "ym2612"
    },
    {
      "channel": 4,
      "note": 58,
      "start": 49.1163,
      "duration": 0.1049,
      "velocity": 99,
      "chip": "ym2612"
    },
    {
      "channel": 2,
      "note": 37,
      "start": 49.1171,
      "duration": 0.1221,
      "velocity": 120,
      "chip": "ym2612"
    },
    {
      "channel": 1,
      "note": 54,
      "start": 49.2202,
      "duration": 0.1079,
      "velocity": 96,
      "chip": "ym2612"
    },
    {
      "channel": 3,
      "note": 61,
      "start": 49.2211,
      "duration": 0.1073,
      "velocity": 99,
      "chip": "ym2612"
    },
    {
      "channel": 4,
      "note": 56,
      "start": 49.2219,
      "duration": 0.1074,
      "velocity": 99,
      "chip": "ym2612"
    },
    {
      "channel": 3,
      "note": 63,
      "start": 49.3292,
      "duration": 0.1122,
      "velocity": 99,
      "chip": "ym2612"
    },
    {
      "channel": 4,
      "note": 58,
      "start": 49.3301,
      "duration": 0.1123,
      "velocity": 99,
      "chip": "ym2612"
    },
    {
      "channel": 1,
      "note": 54,
      "start": 49.441,
      "duration": 0.1068,
      "velocity": 96,
      "chip": "ym2612"
    },
    {
      "channel": 3,
      "note": 63,
      "start": 49.4421,
      "duration": 0.1064,
      "velocity": 99,
      "chip": "ym2612"
    },
    {
      "channel": 4,
      "note": 58,
      "start": 49.4432,
      "duration": 0.1062,
      "velocity": 99,
      "chip": "ym2612"
    },
    {
      "channel": 2,
      "note": 37,
      "start": 49.444,
      "duration": 0.1009,
      "velocity": 120,
      "chip": "ym2612"
    },
    {
      "channel": 1,
      "note": 54,
      "start": 49.5484,
      "duration": 0.1051,
      "velocity": 96,
      "chip": "ym2612"
    },
    {
      "channel": 3,
      "note": 65,
      "start": 49.5493,
      "duration": 0.1045,
      "velocity": 99,
      "chip": "ym2612"
    },
    {
      "channel": 4,
      "note": 60,
      "start": 49.5501,
      "duration": 0.104,
      "velocity": 99,
      "chip": "ym2612"
    },
    {
      "channel": 2,
      "note": 37,
      "start": 49.5509,
      "duration": 0.1209,
      "velocity": 120,
      "chip": "ym2612"
    },
    {
      "channel": 3,
      "note": 65,
      "start": 49.7628,
      "duration": 0.1104,
      "velocity": 99,
      "chip": "ym2612"
    },
    {
      "channel": 4,
      "note": 60,
      "start": 49.7637,
      "duration": 0.1099,
      "velocity": 99,
      "chip": "ym2612"
    },
    {
      "channel": 2,
      "note": 77,
      "start": 49.8746,
      "duration": 0.2315,
      "velocity": 127,
      "chip": "ym2612"
    },
    {
      "channel": 3,
      "note": 65,
      "start": 49.9796,
      "duration": 0.1084,
      "velocity": 99,
      "chip": "ym2612"
    },
    {
      "channel": 4,
      "note": 60,
      "start": 49.9805,
      "duration": 0.1078,
      "velocity": 99,
      "chip": "ym2612"
    },
    {
      "channel": 1,
      "note": 54,
      "start": 50.0879,
      "duration": 0.1079,
      "velocity": 96,
      "chip": "ym2612"
    },
    {
      "channel": 1,
      "note": 54,
      "start": 50.1963,
      "duration": 0.1078,
      "velocity": 96,
      "chip": "ym2612"
    },
    {
      "channel": 3,
      "note": 65,
      "start": 50.1972,
      "duration": 0.1073,
      "velocity": 99,
      "chip": "ym2612"
    },
    {
      "channel": 4,
      "note": 60,
      "start": 50.1981,
      "duration": 0.1067,
      "velocity": 99,
      "chip": "ym2612"
    },
    {
      "channel": 3,
      "note": 65,
      "start": 50.4134,
      "duration": 0.1112,
      "velocity": 99,
      "chip": "ym2612"
    },
    {
      "channel": 4,
      "note": 60,
      "start": 50.4144,
      "duration": 0.1106,
      "velocity": 99,
      "chip": "ym2612"
    },
    {
      "channel": 1,
      "note": 54,
      "start": 50.5245,
      "duration": 0.1051,
      "velocity": 96,
      "chip": "ym2612"
    },
    {
      "channel": 2,
      "note": 37,
      "start": 50.5259,
      "duration": 0.1231,
      "velocity": 120,
      "chip": "ym2612"
    },
    {
      "channel": 1,
      "note": 54,
      "start": 50.6302,
      "duration": 0.1106,
      "velocity": 96,
      "chip": "ym2612"
    },
    {
      "channel": 3,
      "note": 65,
      "start": 50.6311,
      "duration": 0.1101,
      "velocity": 99,
      "chip": "ym2612"
    },
    {
      "channel": 4,
      "note": 60,
      "start": 50.6319,
      "duration": 0.1102,
      "velocity": 99,
      "chip": "ym2612"
    },
    {
      "channel": 3,
      "note": 69,
      "start": 50.7419,
      "duration": 0.4345,
      "velocity": 99,
      "chip": "ym2612"
    },
    {
      "channel": 4,
      "note": 64,
      "start": 50.7429,
      "duration": 0.4345,
      "velocity": 99,
      "chip": "ym2612"
    },
    {
      "channel": 2,
      "note": 77,
      "start": 50.7437,
      "duration": 0.1025,
      "velocity": 127,
      "chip": "ym2612"
    },
    {
      "channel": 1,
      "note": 54,
      "start": 50.8498,
      "duration": 0.1052,
      "velocity": 96,
      "chip": "ym2612"
    },
    {
      "channel": 2,
      "note": 37,
      "start": 50.8515,
      "duration": 0.123,
      "velocity": 120,
      "chip": "ym2612"
    },
    {
      "channel": 1,
      "note": 54,
      "start": 50.9556,
      "duration": 0.1078,
      "velocity": 96,
      "chip": "ym2612"
    },
    {
      "channel": 1,
      "note": 54,
      "start": 51.1762,
      "duration": 0.1069,
      "velocity": 96,
      "chip": "ym2612"
    },
    {
      "channel": 3,
      "note": 63,
      "start": 51.1771,
      "duration": 0.1067,
      "velocity": 99,
      "chip": "ym2612"
    },
    {
      "channel": 4,
      "note": 58,
      "start": 51.1781,
      "duration": 0.1066,
      "velocity": 99,
      "chip": "ym2612"
    },
    {
      "channel": 2,
      "note": 37,
      "start": 51.1788,
      "duration": 0.1013,
      "velocity": 120,
      "chip": "ym2612"
    },
    {
      "channel": 1,
      "note": 54,
      "start": 51.2837,
      "duration": 0.105,
      "velocity": 96,
      "chip": "ym2612"
    },
    {
      "channel": 3,
      "note": 65,
      "start": 51.2846,
      "duration": 0.1045,
      "velocity": 99,
      "chip": "ym2612"
    },
    {
      "channel": 4,
      "note": 60,
      "start": 51.2855,
      "duration": 0.1039,
      "velocity": 99,
      "chip": "ym2612"
    },
    {
      "channel": 2,
      "note": 37,
      "start": 51.2862,
      "duration": 0.121,
      "velocity": 120,
      "chip": "ym2612"
    },
    {
      "channel": 3,
      "note": 65,
      "start": 51.4981,
      "duration": 0.1104,
      "velocity": 99,
      "chip": "ym2612"
    },
    {
      "channel": 4,
      "note": 60,
      "start": 51.499,
      "duration": 0.1099,
      "velocity": 99,
      "chip": "ym2612"
    },
    {
      "channel": 2,
      "note": 77,
      "start": 51.6099,
      "duration": 0.2323,
      "velocity": 127,
      "chip": "ym2612"
    },
    {
      "channel": 3,
      "note": 65,
      "start": 51.7149,
      "duration": 0.1085,
      "velocity": 99,
      "chip": "ym2612"
    },
    {
      "channel": 4,
      "note": 60,
      "start": 51.7158,
      "duration": 0.1085,
      "velocity": 99,
      "chip": "ym2612"
    },
    {
      "channel": 1,
      "note": 54,
      "start": 51.8232,
      "duration": 0.1079,
      "velocity": 96,
      "chip": "ym2612"
    },
    {
      "channel": 3,
      "note": 63,
      "start": 51.8241,
      "duration": 0.1078,
      "velocity": 99,
      "chip": "ym2612"
    },
    {
      "channel": 4,
      "note": 58,
      "start": 51.825,
      "duration": 0.1077,
      "velocity": 99,
      "chip": "ym2612"
    },
    {
      "channel": 1,
      "note": 54,
      "start": 51.9317,
      "duration": 0.1078,
      "velocity": 96,
      "chip": "ym2612"
    },
    {
      "channel": 3,
      "note": 65,
      "start": 51.9325,
      "duration": 0.1073,
      "velocity": 99,
      "chip": "ym2612"
    },
    {
      "channel": 4,
      "note": 60,
      "start": 51.9334,
      "duration": 0.1073,
      "velocity": 99,
      "chip": "ym2612"
    },
    {
      "channel": 3,
      "note": 60,
      "start": 52.0406,
      "duration": 0.1075,
      "velocity": 99,
      "chip": "ym2612"
    },
    {
      "channel": 4,
      "note": 55,
      "start": 52.0414,
      "duration": 0.1076,
      "velocity": 99,
      "chip": "ym2612"
    },
    {
      "channel": 3,
      "note": 61,
      "start": 52.1488,
      "duration": 0.1111,
      "velocity": 99,
      "chip": "ym2612"
    },
    {
      "channel": 4,
      "note": 56,
      "start": 52.1497,
      "duration": 0.1106,
      "velocity": 99,
      "chip": "ym2612"
    },
    {
      "channel": 1,
      "note": 54,
      "start": 52.2598,
      "duration": 0.1051,
      "velocity": 96,
      "chip": "ym2612"
    },
    {
      "channel": 2,
      "note": 37,
      "start": 52.2612,
      "duration": 0.1232,
      "velocity": 120,
      "chip": "ym2612"
    },
    {
      "channel": 1,
      "note": 54,
      "start": 52.3655,
      "duration": 0.1106,
      "velocity": 96,
      "chip": "ym2612"
    },
    {
      "channel": 3,
      "note": 58,
      "start": 52.3664,
      "duration": 0.11,
      "velocity": 99,
      "chip": "ym2612"
    },
    {
      "channel": 4,
      "note": 53,
      "start": 52.3674,
      "duration": 0.1094,
      "velocity": 99,
      "chip": "ym2612"
    },
    {
      "channel": 2,
      "note": 77,
      "start": 52.4778,
      "duration": 0.1038,
      "velocity": 127,
      "chip": "ym2612"
    },
    {
      "channel": 1,
      "note": 54,
      "start": 52.5851,
      "duration": 0.1052,
      "velocity": 96,
      "chip": "ym2612"
    },
    {
      "channel": 3,
      "note": 58,
      "start": 52.586,
      "duration": 0.105,
      "velocity": 99,
      "chip": "ym2612"
    },
    {
      "channel": 4,
      "note": 53,
      "start": 52.5868,
      "duration": 0.1045,
      "velocity": 99,
      "chip": "ym2612"
    },
    {
      "channel": 2,
      "note": 37,
      "start": 52.5876,
      "duration": 0.1213,
      "velocity": 120,
      "chip": "ym2612"
    },
    {
      "channel": 1,
      "note": 54,
      "start": 52.6909,
      "duration": 0.1078,
      "velocity": 96,
      "chip": "ym2612"
    },
    {
      "channel": 3,
      "note": 60,
      "start": 52.7997,
      "duration": 0.112,
      "velocity": 99,
      "chip": "ym2612"
    },
    {
      "channel": 4,
      "note": 55,
      "start": 52.8006,
      "duration": 0.1121,
      "velocity": 99,
      "chip": "ym2612"
    },
    {
      "channel": 1,
      "note": 54,
      "start": 52.9115,
      "duration": 0.1068,
      "velocity": 96,
      "chip": "ym2612"
    },
    {
      "channel": 3,
      "note": 63,
      "start": 52.9124,
      "duration": 0.1066,
      "velocity": 99,
      "chip": "ym2612"
    },
    {
      "channel": 4,
      "note": 58,
      "start": 52.9134,
      "duration": 0.1065,
      "velocity": 99,
      "chip": "ym2612"
    },
    {
      "channel": 2,
      "note": 37,
      "start": 52.9142,
      "duration": 0.1013,
      "velocity": 120,
      "chip": "ym2612"
    },
    {
      "channel": 1,
      "note": 54,
      "start": 53.0189,
      "duration": 0.1051,
      "velocity": 96,
      "chip": "ym2612"
    },
    {
      "channel": 3,
      "note": 65,
      "start": 53.0198,
      "duration": 0.1046,
      "velocity": 99,
      "chip": "ym2612"
    },
    {
      "channel": 4,
      "note": 60,
      "start": 53.0207,
      "duration": 0.104,
      "velocity": 99,
      "chip": "ym2612"
    },
    {
      "channel": 2,
      "note": 37,
      "start": 53.0215,
      "duration": 0.1211,
      "velocity": 120,
      "chip": "ym2612"
    },
    {
      "channel": 3,
      "note": 65,
      "start": 53.2333,
      "duration": 0.1108,
      "velocity": 99,
      "chip": "ym2612"
    },
    {
      "channel": 4,
      "note": 60,
      "start": 53.2342,
      "duration": 0.1102,
      "velocity": 99,
      "chip": "ym2612"
    },
    {
      "channel": 2,
      "note": 77,
      "start": 53.3455,
      "duration": 0.2312,
      "velocity": 127,
      "chip": "ym2612"
    },
    {
      "channel": 3,
      "note": 65,
      "start": 53.4502,
      "duration": 0.1084,
      "velocity": 99,
      "chip": "ym2612"
    },
    {
      "channel": 4,
      "note": 60,
      "start": 53.4511,
      "duration": 0.1078,
      "velocity": 99,
      "chip": "ym2612"
    },
    {
      "channel": 1,
      "note": 54,
      "start": 53.5585,
      "duration": 0.1078,
      "velocity": 96,
      "chip": "ym2612"
    },
    {
      "channel": 1,
      "note": 54,
      "start": 53.6669,
      "duration": 0.1079,
      "velocity": 96,
      "chip": "ym2612"
    },
    {
      "channel": 3,
      "note": 65,
      "start": 53.6678,
      "duration": 0.1073,
      "velocity": 99,
      "chip": "ym2612"
    },
    {
      "channel": 4,
      "note": 60,
      "start": 53.6686,
      "duration": 0.1068,
      "velocity": 99,
      "chip": "ym2612"
    },
    {
      "channel": 3,
      "note": 65,
      "start": 53.8841,
      "duration": 0.1111,
      "velocity": 99,
      "chip": "ym2612"
    },
    {
      "channel": 4,
      "note": 60,
      "start": 53.8849,
      "duration": 0.1106,
      "velocity": 99,
      "chip": "ym2612"
    },
    {
      "channel": 1,
      "note": 54,
      "start": 53.9951,
      "duration": 0.1051,
      "velocity": 96,
      "chip": "ym2612"
    },
    {
      "channel": 2,
      "note": 37,
      "start": 53.9965,
      "duration": 0.1232,
      "velocity": 120,
      "chip": "ym2612"
    },
    {
      "channel": 1,
      "note": 54,
      "start": 54.1008,
      "duration": 0.1106,
      "velocity": 96,
      "chip": "ym2612"
    },
    {
      "channel": 3,
      "note": 65,
      "start": 54.1017,
      "duration": 0.1101,
      "velocity": 99,
      "chip": "ym2612"
    },
    {
      "channel": 4,
      "note": 60,
      "start": 54.1026,
      "duration": 0.1101,
      "velocity": 99,
      "chip": "ym2612"
    },
    {
      "channel": 3,
      "note": 69,
      "start": 54.2124,
      "duration": 0.4345,
      "velocity": 99,
      "chip": "ym2612"
    },
    {
      "channel": 4,
      "note": 64,
      "start": 54.2134,
      "duration": 0.4344,
      "velocity": 99,
      "chip": "ym2612"
    },
    {
      "channel": 2,
      "note": 77,
      "start": 54.2143,
      "duration": 0.1027,
      "velocity": 127,
      "chip": "ym2612"
    },
    {
      "channel": 1,
      "note": 54,
      "start": 54.3205,
      "duration": 0.1051,
      "velocity": 96,
      "chip": "ym2612"
    },
    {
      "channel": 2,
      "note": 37,
      "start": 54.3222,
      "duration": 0.1229,
      "velocity": 120,
      "chip": "ym2612"
    },
    {
      "channel": 1,
      "note": 54,
      "start": 54.4261,
      "duration": 0.1078,
      "velocity": 96,
      "chip": "ym2612"
    },
    {
      "channel": 1,
      "note": 54,
      "start": 54.6467,
      "duration": 0.107,
      "velocity": 96,
      "chip": "ym2612"
    },
    {
      "channel": 3,
      "note": 63,
      "start": 54.6476,
      "duration": 0.1068,
      "velocity": 99,
      "chip": "ym2612"
    },
    {
      "channel": 4,
      "note": 58,
      "start": 54.6486,
      "duration": 0.1067,
      "velocity": 99,
      "chip": "ym2612"
    },
    {
      "channel": 2,
      "note": 37,
      "start": 54.6494,
      "duration": 0.1014,
      "velocity": 120,
      "chip": "ym2612"
    },
    {
      "channel": 1,
      "note": 54,
      "start": 54.7542,
      "duration": 0.1051,
      "velocity": 96,
      "chip": "ym2612"
    },
    {
      "channel": 3,
      "note": 65,
      "start": 54.7551,
      "duration": 0.1046,
      "velocity": 99,
      "chip": "ym2612"
    },
    {
      "channel": 4,
      "note": 60,
      "start": 54.756,
      "duration": 0.1041,
      "velocity": 99,
      "chip": "ym2612"
    },
    {
      "channel": 2,
      "note": 37,
      "start": 54.7568,
      "duration": 0.1209,
      "velocity": 120,
      "chip": "ym2612"
    },
    {
      "channel": 3,
      "note": 65,
      "start": 54.9686,
      "duration": 0.1105,
      "velocity": 99,
      "chip": "ym2612"
    },
    {
      "channel": 4,
      "note": 60,
      "start": 54.9695,
      "duration": 0.11,
      "velocity": 99,
      "chip": "ym2612"
    },
    {
      "channel": 2,
      "note": 77,
      "start": 55.0806,
      "duration": 0.2322,
      "velocity": 127,
      "chip": "ym2612"
    },
    {
      "channel": 3,
      "note": 65,
      "start": 55.1856,
      "duration": 0.1083,
      "velocity": 99,
      "chip": "ym2612"
    },
    {
      "channel": 4,
      "note": 60,
      "start": 55.1864,
      "duration": 0.1083,
      "velocity": 99,
      "chip": "ym2612"
    },
    {
      "channel": 1,
      "note": 54,
      "start": 55.2937,
      "duration": 0.1079,
      "velocity": 96,
      "chip": "ym2612"
    },
    {
      "channel": 3,
      "note": 63,
      "start": 55.2946,
      "duration": 0.1078,
      "velocity": 99,
      "chip": "ym2612"
    },
    {
      "channel": 4,
      "note": 58,
      "start": 55.2955,
      "duration": 0.1078,
      "velocity": 99,
      "chip": "ym2612"
    },
    {
      "channel": 1,
      "note": 54,
      "start": 55.4023,
      "duration": 0.1079,
      "velocity": 96,
      "chip": "ym2612"
    },
    {
      "channel": 3,
      "note": 65,
      "start": 55.4032,
      "duration": 0.1073,
      "velocity": 99,
      "chip": "ym2612"
    },
    {
      "channel": 4,
      "note": 60,
      "start": 55.404,
      "duration": 0.1074,
      "velocity": 99,
      "chip": "ym2612"
    },
    {
      "channel": 3,
      "note": 60,
      "start": 55.5112,
      "duration": 0.1102,
      "velocity": 99,
      "chip": "ym2612"
    },
    {
      "channel": 4,
      "note": 55,
      "start": 55.5121,
      "duration": 0.1102,
      "velocity": 99,
      "chip": "ym2612"
    },
    {
      "channel": 3,
      "note": 61,
      "start": 55.6221,
      "duration": 0.1084,
      "velocity": 99,
      "chip": "ym2612"
    },
    {
      "channel": 4,
      "note": 56,
      "start": 55.623,
      "duration": 0.1078,
      "velocity": 99,
      "chip": "ym2612"
    },
    {
      "channel": 2,
      "note": 77,
      "start": 55.6239,
      "duration": 0.0307,
      "velocity": 127,
      "chip": "ym2612"
    },
    {
      "channel": 2,
      "note": 77,
      "start": 55.6593,
      "duration": 0.0676,
      "velocity": 127,
      "chip": "ym2612"
    },
    {
      "channel": 1,
      "note": 54,
      "start": 55.7303,
      "duration": 0.1078,
      "velocity": 96,
      "chip": "ym2612"
    },
    {
      "channel": 2,
      "note": 77,
      "start": 55.7319,
      "duration": 0.1034,
      "velocity": 127,
      "chip": "ym2612"
    },
    {
      "channel": 1,
      "note": 54,
      "start": 55.8387,
      "duration": 0.108,
      "velocity": 96,
      "chip": "ym2612"
    },
    {
      "channel": 3,
      "note": 61,
      "start": 55.8397,
      "duration": 0.1073,
      "velocity": 99,
      "chip": "ym2612"
    },
    {
      "channel": 4,
      "note": 56,
      "start": 55.8407,
      "duration": 0.1066,
      "velocity": 99,
      "chip": "ym2612"
    },
    {
      "channel": 2,
      "note": 77,
      "start": 55.8416,
      "duration": 0.1022,
      "velocity": 127,
      "chip": "ym2612"
    },
    {
      "channel": 2,
      "note": 77,
      "start": 55.9484,
      "duration": 0.1038,
      "velocity": 127,
      "chip": "ym2612"
    },
    {
      "channel": 1,
      "note": 54,
      "start": 56.0557,
      "duration": 0.108,
      "velocity": 96,
      "chip": "ym2612"
    },
    {
      "channel": 3,
      "note": 63,
      "start": 56.0566,
      "duration": 0.1078,
      "velocity": 99,
      "chip": "ym2612"
    },
    {
      "channel": 4,
      "note": 58,
      "start": 56.0575,
      "duration": 0.1078,
      "velocity": 99,
      "chip": "ym2612"
    },
    {
      "channel": 2,
      "note": 77,
      "start": 56.0584,
      "duration": 0.1024,
      "velocity": 127,
      "chip": "ym2612"
    },
    {
      "channel": 1,
      "note": 54,
      "start": 56.1642,
      "duration": 0.1078,
      "velocity": 96,
      "chip": "ym2612"
    },
    {
      "channel": 3,
      "note": 61,
      "start": 56.1651,
      "duration": 0.1073,
      "velocity": 99,
      "chip": "ym2612"
    },
    {
      "channel": 4,
      "note": 56,
      "start": 56.1659,
      "duration": 0.1073,
      "velocity": 99,
      "chip": "ym2612"
    },
    {
      "channel": 2,
      "note": 77,
      "start": 56.1669,
      "duration": 0.1023,
      "velocity": 127,
      "chip": "ym2612"
    },
    {
      "channel": 3,
      "note": 63,
      "start": 56.2731,
      "duration": 0.1127,
      "velocity": 99,
      "chip": "ym2612"
    },
    {
      "channel": 4,
      "note": 58,
      "start": 56.274,
      "duration": 0.1156,
      "velocity": 99,
      "chip": "ym2612"
    },
    {
      "channel": 2,
      "note": 77,
      "start": 56.275,
      "duration": 0.103,
      "velocity": 127,
      "chip": "ym2612"
    },
    {
      "channel": 0,
      "note": 78,
      "start": 56.3844,
      "duration": 0.1045,
      "velocity": 96,
      "chip": "ym2612"
    },
    {
      "channel": 1,
      "note": 54,
      "start": 56.3855,
      "duration": 0.1043,
      "velocity": 96,
      "chip": "ym2612"
    },
    {
      "channel": 3,
      "note": 63,
      "start": 56.3866,
      "duration": 0.1039,
      "velocity": 99,
      "chip": "ym2612"
    },
    {
      "channel": 4,
      "note": 58,
      "start": 56.3904,
      "duration": 0.101,
      "velocity": 99,
      "chip": "ym2612"
    },
    {
      "channel": 2,
      "note": 37,
      "start": 56.3912,
      "duration": 0.0948,
      "velocity": 120,
      "chip": "ym2612"
    },
    {
      "channel": 0,
      "note": 78,
      "start": 56.4896,
      "duration": 0.105,
      "velocity": 96,
      "chip": "ym2612"
    },
    {
      "channel": 1,
      "note": 54,
      "start": 56.4904,
      "duration": 0.1046,
      "velocity": 96,
      "chip": "ym2612"
    },
    {
      "channel": 3,
      "note": 65,
      "start": 56.4912,
      "duration": 0.1041,
      "velocity": 99,
      "chip": "ym2612"
    },
    {
      "channel": 4,
      "note": 60,
      "start": 56.4921,
      "duration": 0.1035,
      "velocity": 99,
      "chip": "ym2612"
    },
    {
      "channel": 2,
      "note": 37,
      "start": 56.4929,
      "duration": 0.1205,
      "velocity": 120,
      "chip": "ym2612"
    },
    {
      "channel": 5,
      "note": 78,
      "start": 56.5996,
      "duration": 0.1062,
      "velocity": 85,
      "chip": "ym2612"
    },
    {
      "channel": 0,
      "note": 78,
      "start": 56.7037,
      "duration": 0.1105,
      "velocity": 96,
      "chip": "ym2612"
    },
    {
      "channel": 3,
      "note": 65,
      "start": 56.7047,
      "duration": 0.1095,
      "velocity": 99,
      "chip": "ym2612"
    },
    {
      "channel": 4,
      "note": 60,
      "start": 56.7056,
      "duration": 0.1086,
      "velocity": 99,
      "chip": "ym2612"
    },
    {
      "channel": 5,
      "note": 78,
      "start": 56.7065,
      "duration": 0.1077,
      "velocity": 85,
      "chip": "ym2612"
    }
  ]
}