{
  "track_name": "06 - Haste Makes Waste",
  "duration_sec": 35.335,
  "sample_rate": 44100,
  "note_count": 482,
  "unique_pitches": 44,
  "pitch_range": 52,
  "avg_note_duration": 0.3635,
  "reconstruction_stats": {
    "notes_reconstructed": 482,
    "keyon_events": 482,
    "keyoff_events": 477,
    "orphan_keyons": 5,
    "unique_pitches": 44,
    "pitch_range": 52,
    "avg_duration_sec": 0.3635
  },
  "metadata": {
    "source": "P\\Pac-Man 2 - The New Adventures\\06 - Haste Makes Waste.vgz"
  },
  "notes": [
    {
      "channel": 0,
      "note": 66,
      "start": 0.0,
      "duration": 0.1578,
      "velocity": 95,
      "chip": "ym2612"
    },
    {
      "channel": 1,
      "note": 35,
      "start": 0.0013,
      "duration": 0.3237,
      "velocity": 92,
      "chip": "ym2612"
    },
    {
      "channel": 2,
      "note": 47,
      "start": 0.0079,
      "duration": 0.3228,
      "velocity": 116,
      "chip": "ym2612"
    },
    {
      "channel": 3,
      "note": 46,
      "start": 0.0129,
      "duration": 0.3311,
      "velocity": 74,
      "chip": "ym2612"
    },
    {
      "channel": 4,
      "note": 66,
      "start": 0.0488,
      "duration": 0.1627,
      "velocity": 95,
      "chip": "ym2612"
    },
    {
      "channel": 0,
      "note": 66,
      "start": 0.1579,
      "duration": 0.1668,
      "velocity": 95,
      "chip": "ym2612"
    },
    {
      "channel": 4,
      "note": 67,
      "start": 0.2116,
      "duration": 0.1667,
      "velocity": 95,
      "chip": "ym2612"
    },
    {
      "channel": 0,
      "note": 71,
      "start": 0.3247,
      "duration": 1.3333,
      "velocity": 95,
      "chip": "ym2612"
    },
    {
      "channel": 1,
      "note": 47,
      "start": 0.3297,
      "duration": 0.3286,
      "velocity": 103,
      "chip": "ym2612"
    },
    {
      "channel": 2,
      "note": 47,
      "start": 0.3307,
      "duration": 0.3326,
      "velocity": 116,
      "chip": "ym2612"
    },
    {
      "channel": 3,
      "note": 50,
      "start": 0.344,
      "duration": 0.3333,
      "velocity": 74,
      "chip": "ym2612"
    },
    {
      "channel": 4,
      "note": 71,
      "start": 0.3783,
      "duration": 1.3332,
      "velocity": 95,
      "chip": "ym2612"
    },
    {
      "channel": 1,
      "note": 42,
      "start": 0.663,
      "duration": 0.3288,
      "velocity": 92,
      "chip": "ym2612"
    },
    {
      "channel": 2,
      "note": 59,
      "start": 0.668,
      "duration": 0.3287,
      "velocity": 94,
      "chip": "ym2612"
    },
    {
      "channel": 3,
      "note": 41,
      "start": 0.6773,
      "duration": 0.3334,
      "velocity": 74,
      "chip": "ym2612"
    },
    {
      "channel": 1,
      "note": 47,
      "start": 0.9964,
      "duration": 0.3287,
      "velocity": 103,
      "chip": "ym2612"
    },
    {
      "channel": 2,
      "note": 47,
      "start": 1.0013,
      "duration": 0.3293,
      "velocity": 116,
      "chip": "ym2612"
    },
    {
      "channel": 3,
      "note": 43,
      "start": 1.0107,
      "duration": 0.1667,
      "velocity": 74,
      "chip": "ym2612"
    },
    {
      "channel": 3,
      "note": 44,
      "start": 1.1773,
      "duration": 0.1667,
      "velocity": 74,
      "chip": "ym2612"
    },
    {
      "channel": 1,
      "note": 35,
      "start": 1.3297,
      "duration": 0.3286,
      "velocity": 92,
      "chip": "ym2612"
    },
    {
      "channel": 2,
      "note": 47,
      "start": 1.3307,
      "duration": 0.3333,
      "velocity": 116,
      "chip": "ym2612"
    },
    {
      "channel": 3,
      "note": 46,
      "start": 1.3441,
      "duration": 0.3332,
      "velocity": 74,
      "chip": "ym2612"
    },
    {
      "channel": 0,
      "note": 74,
      "start": 1.6579,
      "duration": 0.1666,
      "velocity": 95,
      "chip": "ym2612"
    },
    {
      "channel": 1,
      "note": 47,
      "start": 1.663,
      "duration": 0.3288,
      "velocity": 103,
      "chip": "ym2612"
    },
    {
      "channel": 2,
      "note": 47,
      "start": 1.664,
      "duration": 0.3328,
      "velocity": 116,
      "chip": "ym2612"
    },
    {
      "channel": 3,
      "note": 50,
      "start": 1.6773,
      "duration": 0.3334,
      "velocity": 74,
      "chip": "ym2612"
    },
    {
      "channel": 4,
      "note": 74,
      "start": 1.7116,
      "duration": 0.1667,
      "velocity": 95,
      "chip": "ym2612"
    },
    {
      "channel": 0,
      "note": 74,
      "start": 1.8245,
      "duration": 0.1668,
      "velocity": 95,
      "chip": "ym2612"
    },
    {
      "channel": 4,
      "note": 74,
      "start": 1.8782,
      "duration": 0.1667,
      "velocity": 95,
      "chip": "ym2612"
    },
    {
      "channel": 0,
      "note": 78,
      "start": 1.9913,
      "duration": 0.3332,
      "velocity": 95,
      "chip": "ym2612"
    },
    {
      "channel": 1,
      "note": 42,
      "start": 1.9964,
      "duration": 0.3286,
      "velocity": 92,
      "chip": "ym2612"
    },
    {
      "channel": 2,
      "note": 59,
      "start": 2.0014,
      "duration": 0.3286,
      "velocity": 94,
      "chip": "ym2612"
    },
    {
      "channel": 3,
      "note": 41,
      "start": 2.0107,
      "duration": 0.6666,
      "velocity": 74,
      "chip": "ym2612"
    },
    {
      "channel": 4,
      "note": 78,
      "start": 2.0449,
      "duration": 0.3334,
      "velocity": 95,
      "chip": "ym2612"
    },
    {
      "channel": 0,
      "note": 80,
      "start": 2.3246,
      "duration": 0.3333,
      "velocity": 95,
      "chip": "ym2612"
    },
    {
      "channel": 1,
      "note": 46,
      "start": 2.3296,
      "duration": 0.3287,
      "velocity": 103,
      "chip": "ym2612"
    },
    {
      "channel": 2,
      "note": 47,
      "start": 2.3346,
      "duration": 0.3288,
      "velocity": 116,
      "chip": "ym2612"
    },
    {
      "channel": 4,
      "note": 80,
      "start": 2.3783,
      "duration": 0.3333,
      "velocity": 95,
      "chip": "ym2612"
    },
    {
      "channel": 0,
      "note": 81,
      "start": 2.6579,
      "duration": 0.1667,
      "velocity": 95,
      "chip": "ym2612"
    },
    {
      "channel": 1,
      "note": 37,
      "start": 2.663,
      "duration": 0.3288,
      "velocity": 92,
      "chip": "ym2612"
    },
    {
      "channel": 2,
      "note": 40,
      "start": 2.668,
      "duration": 0.3288,
      "velocity": 116,
      "chip": "ym2612"
    },
    {
      "channel": 3,
      "note": 48,
      "start": 2.6773,
      "duration": 0.3333,
      "velocity": 74,
      "chip": "ym2612"
    },
    {
      "channel": 4,
      "note": 81,
      "start": 2.7116,
      "duration": 0.1667,
      "velocity": 95,
      "chip": "ym2612"
    },
    {
      "channel": 0,
      "note": 80,
      "start": 2.8247,
      "duration": 0.1667,
      "velocity": 95,
      "chip": "ym2612"
    },
    {
      "channel": 4,
      "note": 80,
      "start": 2.8782,
      "duration": 0.1667,
      "velocity": 95,
      "chip": "ym2612"
    },
    {
      "channel": 0,
      "note": 78,
      "start": 2.9913,
      "duration": 0.3334,
      "velocity": 95,
      "chip": "ym2612"
    },
    {
      "channel": 1,
      "note": 40,
      "start": 2.9964,
      "duration": 0.3288,
      "velocity": 116,
      "chip": "ym2612"
    },
    {
      "channel": 2,
      "note": 49,
      "start": 3.0014,
      "duration": 0.3288,
      "velocity": 116,
      "chip": "ym2612"
    },
    {
      "channel": 3,
      "note": 51,
      "start": 3.0107,
      "duration": 0.3333,
      "velocity": 74,
      "chip": "ym2612"
    },
    {
      "channel": 4,
      "note": 78,
      "start": 3.045,
      "duration": 0.3335,
      "velocity": 95,
      "chip": "ym2612"
    },
    {
      "channel": 0,
      "note": 81,
      "start": 3.3247,
      "duration": 0.3333,
      "velocity": 95,
      "chip": "ym2612"
    },
    {
      "channel": 1,
      "note": 42,
      "start": 3.3298,
      "duration": 0.3288,
      "velocity": 92,
      "chip": "ym2612"
    },
    {
      "channel": 2,
      "note": 59,
      "start": 3.3348,
      "duration": 0.3287,
      "velocity": 94,
      "chip": "ym2612"
    },
    {
      "channel": 3,
      "note": 41,
      "start": 3.3439,
      "duration": 0.3334,
      "velocity": 74,
      "chip": "ym2612"
    },
    {
      "channel": 4,
      "note": 81,
      "start": 3.3784,
      "duration": 0.3331,
      "velocity": 95,
      "chip": "ym2612"
    },
    {
      "channel": 0,
      "note": 83,
      "start": 3.6581,
      "duration": 0.3332,
      "velocity": 95,
      "chip": "ym2612"
    },
    {
      "channel": 1,
      "note": 40,
      "start": 3.6632,
      "duration": 0.3286,
      "velocity": 116,
      "chip": "ym2612"
    },
    {
      "channel": 2,
      "note": 49,
      "start": 3.6681,
      "duration": 0.3286,
      "velocity": 116,
      "chip": "ym2612"
    },
    {
      "channel": 3,
      "note": 43,
      "start": 3.6773,
      "duration": 0.1665,
      "velocity": 74,
      "chip": "ym2612"
    },
    {
      "channel": 4,
      "note": 83,
      "start": 3.7116,
      "duration": 0.3334,
      "velocity": 95,
      "chip": "ym2612"
    },
    {
      "channel": 3,
      "note": 44,
      "start": 3.8439,
      "duration": 0.1669,
      "velocity": 74,
      "chip": "ym2612"
    },
    {
      "channel": 0,
      "note": 83,
      "start": 3.9913,
      "duration": 0.3334,
      "velocity": 95,
      "chip": "ym2612"
    },
    {
      "channel": 1,
      "note": 31,
      "start": 3.9964,
      "duration": 0.3288,
      "velocity": 92,
      "chip": "ym2612"
    },
    {
      "channel": 2,
      "note": 43,
      "start": 4.0014,
      "duration": 0.3294,
      "velocity": 116,
      "chip": "ym2612"
    },
    {
      "channel": 3,
      "note": 46,
      "start": 4.0107,
      "duration": 0.3332,
      "velocity": 74,
      "chip": "ym2612"
    },
    {
      "channel": 4,
      "note": 83,
      "start": 4.045,
      "duration": 0.3333,
      "velocity": 95,
      "chip": "ym2612"
    },
    {
      "channel": 0,
      "note": 80,
      "start": 4.3247,
      "duration": 0.9993,
      "velocity": 95,
      "chip": "ym2612"
    },
    {
      "channel": 1,
      "note": 43,
      "start": 4.3298,
      "duration": 0.3286,
      "velocity": 103,
      "chip": "ym2612"
    },
    {
      "channel": 2,
      "note": 43,
      "start": 4.3308,
      "duration": 0.3327,
      "velocity": 116,
      "chip": "ym2612"
    },
    {
      "channel": 3,
      "note": 49,
      "start": 4.3439,
      "duration": 0.3334,
      "velocity": 74,
      "chip": "ym2612"
    },
    {
      "channel": 4,
      "note": 80,
      "start": 4.3784,
      "duration": 0.9993,
      "velocity": 95,
      "chip": "ym2612"
    },
    {
      "channel": 1,
      "note": 42,
      "start": 4.663,
      "duration": 0.3286,
      "velocity": 92,
      "chip": "ym2612"
    },
    {
      "channel": 2,
      "note": 59,
      "start": 4.668,
      "duration": 0.3284,
      "velocity": 94,
      "chip": "ym2612"
    },
    {
      "channel": 3,
      "note": 41,
      "start": 4.6773,
      "duration": 0.6666,
      "velocity": 74,
      "chip": "ym2612"
    },
    {
      "channel": 1,
      "note": 42,
      "start": 4.9962,
      "duration": 0.3328,
      "velocity": 103,
      "chip": "ym2612"
    },
    {
      "channel": 2,
      "note": 34,
      "start": 5.0011,
      "duration": 0.3335,
      "velocity": 116,
      "chip": "ym2612"
    },
    {
      "channel": 0,
      "note": 78,
      "start": 5.3286,
      "duration": 0.1626,
      "velocity": 74,
      "chip": "ym2612"
    },
    {
      "channel": 1,
      "note": 36,
      "start": 5.3336,
      "duration": 0.3248,
      "velocity": 92,
      "chip": "ym2612"
    },
    {
      "channel": 2,
      "note": 36,
      "start": 5.3347,
      "duration": 0.1585,
      "velocity": 116,
      "chip": "ym2612"
    },
    {
      "channel": 3,
      "note": 47,
      "start": 5.344,
      "duration": 0.3333,
      "velocity": 74,
      "chip": "ym2612"
    },
    {
      "channel": 4,
      "note": 78,
      "start": 5.3823,
      "duration": 0.1626,
      "velocity": 74,
      "chip": "ym2612"
    },
    {
      "channel": 0,
      "note": 78,
      "start": 5.4912,
      "duration": 0.1668,
      "velocity": 74,
      "chip": "ym2612"
    },
    {
      "channel": 2,
      "note": 40,
      "start": 5.4932,
      "duration": 0.1709,
      "velocity": 116,
      "chip": "ym2612"
    },
    {
      "channel": 4,
      "note": 78,
      "start": 5.5449,
      "duration": 0.1667,
      "velocity": 74,
      "chip": "ym2612"
    },
    {
      "channel": 0,
      "note": 76,
      "start": 5.658,
      "duration": 0.3333,
      "velocity": 74,
      "chip": "ym2612"
    },
    {
      "channel": 1,
      "note": 46,
      "start": 5.663,
      "duration": 0.3286,
      "velocity": 103,
      "chip": "ym2612"
    },
    {
      "channel": 2,
      "note": 42,
      "start": 5.6641,
      "duration": 0.3326,
      "velocity": 116,
      "chip": "ym2612"
    },
    {
      "channel": 3,
      "note": 51,
      "start": 5.6773,
      "duration": 0.3333,
      "velocity": 74,
      "chip": "ym2612"
    },
    {
      "channel": 4,
      "note": 76,
      "start": 5.7116,
      "duration": 0.3332,
      "velocity": 74,
      "chip": "ym2612"
    },
    {
      "channel": 0,
      "note": 83,
      "start": 5.9913,
      "duration": 0.3333,
      "velocity": 74,
      "chip": "ym2612"
    },
    {
      "channel": 1,
      "note": 35,
      "start": 5.9963,
      "duration": 0.3288,
      "velocity": 92,
      "chip": "ym2612"
    },
    {
      "channel": 2,
      "note": 59,
      "start": 6.0013,
      "duration": 0.3287,
      "velocity": 94,
      "chip": "ym2612"
    },
    {
      "channel": 3,
      "note": 42,
      "start": 6.0106,
      "duration": 0.3334,
      "velocity": 74,
      "chip": "ym2612"
    },
    {
      "channel": 4,
      "note": 83,
      "start": 6.0448,
      "duration": 0.3334,
      "velocity": 74,
      "chip": "ym2612"
    },
    {
      "channel": 0,
      "note": 78,
      "start": 6.3247,
      "duration": 0.333,
      "velocity": 74,
      "chip": "ym2612"
    },
    {
      "channel": 1,
      "note": 42,
      "start": 6.3297,
      "duration": 0.3329,
      "velocity": 103,
      "chip": "ym2612"
    },
    {
      "channel": 2,
      "note": 42,
      "start": 6.3347,
      "duration": 0.3329,
      "velocity": 116,
      "chip": "ym2612"
    },
    {
      "channel": 3,
      "note": 44,
      "start": 6.344,
      "duration": 0.1665,
      "velocity": 74,
      "chip": "ym2612"
    },
    {
      "channel": 4,
      "note": 78,
      "start": 6.3782,
      "duration": 0.3327,
      "velocity": 74,
      "chip": "ym2612"
    },
    {
      "channel": 3,
      "note": 45,
      "start": 6.5105,
      "duration": 0.1644,
      "velocity": 74,
      "chip": "ym2612"
    },
    {
      "channel": 0,
      "note": 67,
      "start": 6.6623,
      "duration": 0.1623,
      "velocity": 127,
      "chip": "ym2612"
    },
    {
      "channel": 1,
      "note": 43,
      "start": 6.6673,
      "duration": 0.3245,
      "velocity": 92,
      "chip": "ym2612"
    },
    {
      "channel": 2,
      "note": 50,
      "start": 6.674,
      "duration": 0.3234,
      "velocity": 116,
      "chip": "ym2612"
    },
    {
      "channel": 3,
      "note": 42,
      "start": 6.675,
      "duration": 0.3356,
      "velocity": 74,
      "chip": "ym2612"
    },
    {
      "channel": 4,
      "note": 67,
      "start": 6.7156,
      "duration": 0.1627,
      "velocity": 127,
      "chip": "ym2612"
    },
    {
      "channel": 0,
      "note": 66,
      "start": 6.8246,
      "duration": 0.1668,
      "velocity": 127,
      "chip": "ym2612"
    },
    {
      "channel": 4,
      "note": 66,
      "start": 6.8783,
      "duration": 0.1665,
      "velocity": 127,
      "chip": "ym2612"
    },
    {
      "channel": 0,
      "note": 64,
      "start": 6.9914,
      "duration": 0.3333,
      "velocity": 127,
      "chip": "ym2612"
    },
    {
      "channel": 1,
      "note": 43,
      "start": 6.9963,
      "duration": 0.3288,
      "velocity": 103,
      "chip": "ym2612"
    },
    {
      "channel": 2,
      "note": 55,
      "start": 6.9973,
      "duration": 0.3328,
      "velocity": 116,
      "chip": "ym2612"
    },
    {
      "channel": 3,
      "note": 47,
      "start": 7.0106,
      "duration": 0.3334,
      "velocity": 74,
      "chip": "ym2612"
    },
    {
      "channel": 4,
      "note": 64,
      "start": 7.0449,
      "duration": 0.3333,
      "velocity": 127,
      "chip": "ym2612"
    },
    {
      "channel": 0,
      "note": 74,
      "start": 7.3247,
      "duration": 0.3333,
      "velocity": 127,
      "chip": "ym2612"
    },
    {
      "channel": 1,
      "note": 42,
      "start": 7.3297,
      "duration": 0.3288,
      "velocity": 92,
      "chip": "ym2612"
    },
    {
      "channel": 2,
      "note": 59,
      "start": 7.3347,
      "duration": 0.3286,
      "velocity": 94,
      "chip": "ym2612"
    },
    {
      "channel": 3,
      "note": 46,
      "start": 7.344,
      "duration": 0.3334,
      "velocity": 74,
      "chip": "ym2612"
    },
    {
      "channel": 4,
      "note": 74,
      "start": 7.3782,
      "duration": 0.3335,
      "velocity": 127,
      "chip": "ym2612"
    },
    {
      "channel": 0,
      "note": 73,
      "start": 7.6581,
      "duration": 0.3333,
      "velocity": 127,
      "chip": "ym2612"
    },
    {
      "channel": 1,
      "note": 42,
      "start": 7.663,
      "duration": 0.3288,
      "velocity": 103,
      "chip": "ym2612"
    },
    {
      "channel": 2,
      "note": 46,
      "start": 7.6679,
      "duration": 0.3289,
      "velocity": 116,
      "chip": "ym2612"
    },
    {
      "channel": 3,
      "note": 45,
      "start": 7.6774,
      "duration": 0.3332,
      "velocity": 74,
      "chip": "ym2612"
    },
    {
      "channel": 4,
      "note": 73,
      "start": 7.7118,
      "duration": 0.3334,
      "velocity": 127,
      "chip": "ym2612"
    },
    {
      "channel": 0,
      "note": 72,
      "start": 7.9914,
      "duration": 0.3333,
      "velocity": 127,
      "chip": "ym2612"
    },
    {
      "channel": 1,
      "note": 35,
      "start": 7.9964,
      "duration": 0.3286,
      "velocity": 92,
      "chip": "ym2612"
    },
    {
      "channel": 2,
      "note": 47,
      "start": 8.0015,
      "duration": 0.3293,
      "velocity": 116,
      "chip": "ym2612"
    },
    {
      "channel": 3,
      "note": 46,
      "start": 8.0107,
      "duration": 0.3333,
      "velocity": 74,
      "chip": "ym2612"
    },
    {
      "channel": 4,
      "note": 72,
      "start": 8.0451,
      "duration": 0.3331,
      "velocity": 127,
      "chip": "ym2612"
    },
    {
      "channel": 0,
      "note": 71,
      "start": 8.3247,
      "duration": 0.3333,
      "velocity": 127,
      "chip": "ym2612"
    },
    {
      "channel": 1,
      "note": 47,
      "start": 8.3297,
      "duration": 0.3286,
      "velocity": 103,
      "chip": "ym2612"
    },
    {
      "channel": 2,
      "note": 47,
      "start": 8.3307,
      "duration": 0.3326,
      "velocity": 116,
      "chip": "ym2612"
    },
    {
      "channel": 3,
      "note": 50,
      "start": 8.344,
      "duration": 0.3333,
      "velocity": 74,
      "chip": "ym2612"
    },
    {
      "channel": 4,
      "note": 71,
      "start": 8.3783,
      "duration": 0.3332,
      "velocity": 127,
      "chip": "ym2612"
    },
    {
      "channel": 0,
      "note": 71,
      "start": 8.6579,
      "duration": 1.9997,
      "velocity": 127,
      "chip": "ym2612"
    },
    {
      "channel": 1,
      "note": 42,
      "start": 8.663,
      "duration": 0.3288,
      "velocity": 92,
      "chip": "ym2612"
    },
    {
      "channel": 2,
      "note": 59,
      "start": 8.6679,
      "duration": 0.3288,
      "velocity": 94,
      "chip": "ym2612"
    },
    {
      "channel": 3,
      "note": 41,
      "start": 8.6773,
      "duration": 0.3334,
      "velocity": 74,
      "chip": "ym2612"
    },
    {
      "channel": 4,
      "note": 71,
      "start": 8.7115,
      "duration": 1.9994,
      "velocity": 127,
      "chip": "ym2612"
    },
    {
      "channel": 1,
      "note": 46,
      "start": 8.9964,
      "duration": 0.3287,
      "velocity": 103,
      "chip": "ym2612"
    },
    {
      "channel": 2,
      "note": 47,
      "start": 9.0013,
      "duration": 0.3293,
      "velocity": 116,
      "chip": "ym2612"
    },
    {
      "channel": 3,
      "note": 43,
      "start": 9.0107,
      "duration": 0.1667,
      "velocity": 74,
      "chip": "ym2612"
    },
    {
      "channel": 3,
      "note": 44,
      "start": 9.1773,
      "duration": 0.1667,
      "velocity": 74,
      "chip": "ym2612"
    },
    {
      "channel": 1,
      "note": 35,
      "start": 9.3297,
      "duration": 0.3286,
      "velocity": 92,
      "chip": "ym2612"
    },
    {
      "channel": 2,
      "note": 47,
      "start": 9.3306,
      "duration": 0.3334,
      "velocity": 116,
      "chip": "ym2612"
    },
    {
      "channel": 3,
      "note": 46,
      "start": 9.3441,
      "duration": 0.3332,
      "velocity": 74,
      "chip": "ym2612"
    },
    {
      "channel": 1,
      "note": 47,
      "start": 9.663,
      "duration": 0.3288,
      "velocity": 103,
      "chip": "ym2612"
    },
    {
      "channel": 2,
      "note": 47,
      "start": 9.664,
      "duration": 0.3328,
      "velocity": 116,
      "chip": "ym2612"
    },
    {
      "channel": 3,
      "note": 50,
      "start": 9.6773,
      "duration": 0.3334,
      "velocity": 74,
      "chip": "ym2612"
    },
    {
      "channel": 1,
      "note": 42,
      "start": 9.9964,
      "duration": 0.3289,
      "velocity": 92,
      "chip": "ym2612"
    },
    {
      "channel": 2,
      "note": 59,
      "start": 10.0014,
      "duration": 0.3288,
      "velocity": 94,
      "chip": "ym2612"
    },
    {
      "channel": 3,
      "note": 41,
      "start": 10.0107,
      "duration": 0.3333,
      "velocity": 74,
      "chip": "ym2612"
    },
    {
      "channel": 1,
      "note": 46,
      "start": 10.3299,
      "duration": 0.3327,
      "velocity": 103,
      "chip": "ym2612"
    },
    {
      "channel": 2,
      "note": 47,
      "start": 10.3349,
      "duration": 0.3335,
      "velocity": 116,
      "chip": "ym2612"
    },
    {
      "channel": 3,
      "note": 43,
      "start": 10.3439,
      "duration": 0.1667,
      "velocity": 74,
      "chip": "ym2612"
    },
    {
      "channel": 3,
      "note": 44,
      "start": 10.5106,
      "duration": 0.1667,
      "velocity": 74,
      "chip": "ym2612"
    },
    {
      "channel": 0,
      "note": 68,
      "start": 10.6622,
      "duration": 0.3291,
      "velocity": 83,
      "chip": "ym2612"
    },
    {
      "channel": 1,
      "note": 40,
      "start": 10.6672,
      "duration": 0.3245,
      "velocity": 92,
      "chip": "ym2612"
    },
    {
      "channel": 2,
      "note": 52,
      "start": 10.6684,
      "duration": 0.329,
      "velocity": 116,
      "chip": "ym2612"
    },
    {
      "channel": 3,
      "note": 46,
      "start": 10.6773,
      "duration": 0.3333,
      "velocity": 74,
      "chip": "ym2612"
    },
    {
      "channel": 4,
      "note": 68,
      "start": 10.7155,
      "duration": 0.3294,
      "velocity": 83,
      "chip": "ym2612"
    },
    {
      "channel": 0,
      "note": 71,
      "start": 10.9913,
      "duration": 0.3334,
      "velocity": 83,
      "chip": "ym2612"
    },
    {
      "channel": 1,
      "note": 52,
      "start": 10.9964,
      "duration": 0.3288,
      "velocity": 100,
      "chip": "ym2612"
    },
    {
      "channel": 2,
      "note": 52,
      "start": 10.9974,
      "duration": 0.3327,
      "velocity": 116,
      "chip": "ym2612"
    },
    {
      "channel": 3,
      "note": 50,
      "start": 11.0107,
      "duration": 0.3333,
      "velocity": 74,
      "chip": "ym2612"
    },
    {
      "channel": 4,
      "note": 71,
      "start": 11.0449,
      "duration": 0.3335,
      "velocity": 83,
      "chip": "ym2612"
    },
    {
      "channel": 0,
      "note": 71,
      "start": 11.3247,
      "duration": 0.3333,
      "velocity": 83,
      "chip": "ym2612"
    },
    {
      "channel": 1,
      "note": 35,
      "start": 11.3298,
      "duration": 0.3288,
      "velocity": 92,
      "chip": "ym2612"
    },
    {
      "channel": 2,
      "note": 59,
      "start": 11.3348,
      "duration": 0.3287,
      "velocity": 94,
      "chip": "ym2612"
    },
    {
      "channel": 3,
      "note": 51,
      "start": 11.3439,
      "duration": 0.3334,
      "velocity": 74,
      "chip": "ym2612"
    },
    {
      "channel": 4,
      "note": 72,
      "start": 11.3784,
      "duration": 0.3331,
      "velocity": 83,
      "chip": "ym2612"
    },
    {
      "channel": 0,
      "note": 71,
      "start": 11.6581,
      "duration": 0.3332,
      "velocity": 83,
      "chip": "ym2612"
    },
    {
      "channel": 1,
      "note": 40,
      "start": 11.6632,
      "duration": 0.3286,
      "velocity": 103,
      "chip": "ym2612"
    },
    {
      "channel": 2,
      "note": 52,
      "start": 11.6681,
      "duration": 0.329,
      "velocity": 116,
      "chip": "ym2612"
    },
    {
      "channel": 3,
      "note": 54,
      "start": 11.6773,
      "duration": 0.9918,
      "velocity": 74,
      "chip": "ym2612"
    },
    {
      "channel": 4,
      "note": 71,
      "start": 11.7116,
      "duration": 0.3333,
      "velocity": 83,
      "chip": "ym2612"
    },
    {
      "channel": 0,
      "note": 74,
      "start": 11.9913,
      "duration": 0.3333,
      "velocity": 83,
      "chip": "ym2612"
    },
    {
      "channel": 1,
      "note": 40,
      "start": 11.9962,
      "duration": 0.3288,
      "velocity": 92,
      "chip": "ym2612"
    },
    {
      "channel": 2,
      "note": 52,
      "start": 11.9971,
      "duration": 0.3335,
      "velocity": 116,
      "chip": "ym2612"
    },
    {
      "channel": 4,
      "note": 74,
      "start": 12.045,
      "duration": 0.3332,
      "velocity": 83,
      "chip": "ym2612"
    },
    {
      "channel": 0,
      "note": 71,
      "start": 12.3246,
      "duration": 0.3335,
      "velocity": 83,
      "chip": "ym2612"
    },
    {
      "channel": 1,
      "note": 52,
      "start": 12.3296,
      "duration": 0.3289,
      "velocity": 100,
      "chip": "ym2612"
    },
    {
      "channel": 2,
      "note": 52,
      "start": 12.3307,
      "duration": 0.3329,
      "velocity": 116,
      "chip": "ym2612"
    },
    {
      "channel": 4,
      "note": 71,
      "start": 12.3782,
      "duration": 0.3335,
      "velocity": 83,
      "chip": "ym2612"
    },
    {
      "channel": 0,
      "note": 71,
      "start": 12.6581,
      "duration": 0.3332,
      "velocity": 83,
      "chip": "ym2612"
    },
    {
      "channel": 1,
      "note": 40,
      "start": 12.6632,
      "duration": 0.3286,
      "velocity": 92,
      "chip": "ym2612"
    },
    {
      "channel": 2,
      "note": 59,
      "start": 12.6682,
      "duration": 0.3284,
      "velocity": 94,
      "chip": "ym2612"
    },
    {
      "channel": 4,
      "note": 72,
      "start": 12.7117,
      "duration": 0.3333,
      "velocity": 83,
      "chip": "ym2612"
    },
    {
      "channel": 3,
      "note": 53,
      "start": 12.8439,
      "duration": 0.1669,
      "velocity": 74,
      "chip": "ym2612"
    },
    {
      "channel": 0,
      "note": 71,
      "start": 12.9914,
      "duration": 0.6666,
      "velocity": 83,
      "chip": "ym2612"
    },
    {
      "channel": 1,
      "note": 40,
      "start": 12.9963,
      "duration": 0.3287,
      "velocity": 103,
      "chip": "ym2612"
    },
    {
      "channel": 2,
      "note": 52,
      "start": 13.0013,
      "duration": 0.3288,
      "velocity": 116,
      "chip": "ym2612"
    },
    {
      "channel": 3,
      "note": 50,
      "start": 13.0107,
      "duration": 0.1664,
      "velocity": 74,
      "chip": "ym2612"
    },
    {
      "channel": 4,
      "note": 71,
      "start": 13.045,
      "duration": 0.6666,
      "velocity": 83,
      "chip": "ym2612"
    },
    {
      "channel": 3,
      "note": 48,
      "start": 13.1772,
      "duration": 0.1668,
      "velocity": 74,
      "chip": "ym2612"
    },
    {
      "channel": 1,
      "note": 31,
      "start": 13.3296,
      "duration": 0.3288,
      "velocity": 92,
      "chip": "ym2612"
    },
    {
      "channel": 2,
      "note": 43,
      "start": 13.3347,
      "duration": 0.3294,
      "velocity": 116,
      "chip": "ym2612"
    },
    {
      "channel": 3,
      "note": 44,
      "start": 13.344,
      "duration": 0.3333,
      "velocity": 74,
      "chip": "ym2612"
    },
    {
      "channel": 0,
      "note": 71,
      "start": 13.658,
      "duration": 0.3334,
      "velocity": 83,
      "chip": "ym2612"
    },
    {
      "channel": 1,
      "note": 52,
      "start": 13.663,
      "duration": 0.3288,
      "velocity": 100,
      "chip": "ym2612"
    },
    {
      "channel": 2,
      "note": 43,
      "start": 13.6641,
      "duration": 0.3327,
      "velocity": 116,
      "chip": "ym2612"
    },
    {
      "channel": 3,
      "note": 45,
      "start": 13.6773,
      "duration": 0.3334,
      "velocity": 74,
      "chip": "ym2612"
    },
    {
      "channel": 4,
      "note": 71,
      "start": 13.7116,
      "duration": 0.3335,
      "velocity": 83,
      "chip": "ym2612"
    },
    {
      "channel": 0,
      "note": 71,
      "start": 13.9914,
      "duration": 0.3333,
      "velocity": 83,
      "chip": "ym2612"
    },
    {
      "channel": 1,
      "note": 40,
      "start": 13.9964,
      "duration": 0.3288,
      "velocity": 92,
      "chip": "ym2612"
    },
    {
      "channel": 2,
      "note": 59,
      "start": 14.0014,
      "duration": 0.3288,
      "velocity": 94,
      "chip": "ym2612"
    },
    {
      "channel": 3,
      "note": 49,
      "start": 14.0107,
      "duration": 0.3332,
      "velocity": 74,
      "chip": "ym2612"
    },
    {
      "channel": 4,
      "note": 72,
      "start": 14.0451,
      "duration": 0.3331,
      "velocity": 83,
      "chip": "ym2612"
    },
    {
      "channel": 0,
      "note": 71,
      "start": 14.3248,
      "duration": 0.3332,
      "velocity": 83,
      "chip": "ym2612"
    },
    {
      "channel": 1,
      "note": 43,
      "start": 14.3298,
      "duration": 0.3286,
      "velocity": 103,
      "chip": "ym2612"
    },
    {
      "channel": 2,
      "note": 43,
      "start": 14.3348,
      "duration": 0.3291,
      "velocity": 116,
      "chip": "ym2612"
    },
    {
      "channel": 3,
      "note": 53,
      "start": 14.344,
      "duration": 0.9917,
      "velocity": 74,
      "chip": "ym2612"
    },
    {
      "channel": 4,
      "note": 71,
      "start": 14.3782,
      "duration": 0.3334,
      "velocity": 83,
      "chip": "ym2612"
    },
    {
      "channel": 0,
      "note": 76,
      "start": 14.658,
      "duration": 0.3329,
      "velocity": 83,
      "chip": "ym2612"
    },
    {
      "channel": 1,
      "note": 40,
      "start": 14.663,
      "duration": 0.3328,
      "velocity": 92,
      "chip": "ym2612"
    },
    {
      "channel": 2,
      "note": 43,
      "start": 14.6639,
      "duration": 0.3376,
      "velocity": 116,
      "chip": "ym2612"
    },
    {
      "channel": 4,
      "note": 76,
      "start": 14.7116,
      "duration": 0.3326,
      "velocity": 83,
      "chip": "ym2612"
    },
    {
      "channel": 0,
      "note": 71,
      "start": 14.9955,
      "duration": 0.3291,
      "velocity": 81,
      "chip": "ym2612"
    },
    {
      "channel": 1,
      "note": 43,
      "start": 15.0005,
      "duration": 0.3246,
      "velocity": 103,
      "chip": "ym2612"
    },
    {
      "channel": 2,
      "note": 43,
      "start": 15.0015,
      "duration": 0.3285,
      "velocity": 116,
      "chip": "ym2612"
    },
    {
      "channel": 4,
      "note": 71,
      "start": 15.0488,
      "duration": 0.3294,
      "velocity": 81,
      "chip": "ym2612"
    },
    {
      "channel": 0,
      "note": 79,
      "start": 15.3247,
      "duration": 0.3333,
      "velocity": 81,
      "chip": "ym2612"
    },
    {
      "channel": 1,
      "note": 35,
      "start": 15.3297,
      "duration": 0.3288,
      "velocity": 92,
      "chip": "ym2612"
    },
    {
      "channel": 2,
      "note": 59,
      "start": 15.3347,
      "duration": 0.3288,
      "velocity": 94,
      "chip": "ym2612"
    },
    {
      "channel": 4,
      "note": 79,
      "start": 15.3782,
      "duration": 0.3333,
      "velocity": 81,
      "chip": "ym2612"
    },
    {
      "channel": 3,
      "note": 54,
      "start": 15.5105,
      "duration": 0.1669,
      "velocity": 74,
      "chip": "ym2612"
    },
    {
      "channel": 0,
      "note": 78,
      "start": 15.6581,
      "duration": 0.3333,
      "velocity": 81,
      "chip": "ym2612"
    },
    {
      "channel": 1,
      "note": 43,
      "start": 15.6631,
      "duration": 0.3287,
      "velocity": 103,
      "chip": "ym2612"
    },
    {
      "channel": 2,
      "note": 43,
      "start": 15.668,
      "duration": 0.3288,
      "velocity": 116,
      "chip": "ym2612"
    },
    {
      "channel": 3,
      "note": 54,
      "start": 15.6774,
      "duration": 0.1664,
      "velocity": 74,
      "chip": "ym2612"
    },
    {
      "channel": 4,
      "note": 78,
      "start": 15.7115,
      "duration": 0.3333,
      "velocity": 81,
      "chip": "ym2612"
    },
    {
      "channel": 3,
      "note": 54,
      "start": 15.8438,
      "duration": 0.1668,
      "velocity": 74,
      "chip": "ym2612"
    },
    {
      "channel": 0,
      "note": 76,
      "start": 15.9914,
      "duration": 0.3326,
      "velocity": 81,
      "chip": "ym2612"
    },
    {
      "channel": 1,
      "note": 35,
      "start": 15.9964,
      "duration": 0.3326,
      "velocity": 92,
      "chip": "ym2612"
    },
    {
      "channel": 2,
      "note": 47,
      "start": 16.0015,
      "duration": 0.3332,
      "velocity": 116,
      "chip": "ym2612"
    },
    {
      "channel": 3,
      "note": 55,
      "start": 16.0106,
      "duration": 0.6585,
      "velocity": 74,
      "chip": "ym2612"
    },
    {
      "channel": 4,
      "note": 76,
      "start": 16.0449,
      "duration": 0.3327,
      "velocity": 81,
      "chip": "ym2612"
    },
    {
      "channel": 0,
      "note": 66,
      "start": 16.3286,
      "duration": 0.3294,
      "velocity": 74,
      "chip": "ym2612"
    },
    {
      "channel": 1,
      "note": 47,
      "start": 16.3337,
      "duration": 0.3248,
      "velocity": 103,
      "chip": "ym2612"
    },
    {
      "channel": 2,
      "note": 47,
      "start": 16.3347,
      "duration": 0.3288,
      "velocity": 116,
      "chip": "ym2612"
    },
    {
      "channel": 4,
      "note": 66,
      "start": 16.3822,
      "duration": 0.3295,
      "velocity": 74,
      "chip": "ym2612"
    },
    {
      "channel": 0,
      "note": 66,
      "start": 16.6581,
      "duration": 0.3333,
      "velocity": 74,
      "chip": "ym2612"
    },
    {
      "channel": 1,
      "note": 42,
      "start": 16.6631,
      "duration": 0.3288,
      "velocity": 92,
      "chip": "ym2612"
    },
    {
      "channel": 2,
      "note": 59,
      "start": 16.668,
      "duration": 0.3288,
      "velocity": 94,
      "chip": "ym2612"
    },
    {
      "channel": 4,
      "note": 67,
      "start": 16.7118,
      "duration": 0.3331,
      "velocity": 74,
      "chip": "ym2612"
    },
    {
      "channel": 3,
      "note": 55,
      "start": 16.8438,
      "duration": 0.1668,
      "velocity": 74,
      "chip": "ym2612"
    },
    {
      "channel": 0,
      "note": 66,
      "start": 16.9915,
      "duration": 0.3332,
      "velocity": 74,
      "chip": "ym2612"
    },
    {
      "channel": 1,
      "note": 47,
      "start": 16.9965,
      "duration": 0.3286,
      "velocity": 103,
      "chip": "ym2612"
    },
    {
      "channel": 2,
      "note": 47,
      "start": 17.0015,
      "duration": 0.3291,
      "velocity": 116,
      "chip": "ym2612"
    },
    {
      "channel": 3,
      "note": 53,
      "start": 17.0107,
      "duration": 0.1665,
      "velocity": 74,
      "chip": "ym2612"
    },
    {
      "channel": 4,
      "note": 66,
      "start": 17.0449,
      "duration": 0.3333,
      "velocity": 74,
      "chip": "ym2612"
    },
    {
      "channel": 3,
      "note": 51,
      "start": 17.1772,
      "duration": 0.1668,
      "velocity": 74,
      "chip": "ym2612"
    },
    {
      "channel": 0,
      "note": 71,
      "start": 17.3247,
      "duration": 0.3333,
      "velocity": 74,
      "chip": "ym2612"
    },
    {
      "channel": 1,
      "note": 35,
      "start": 17.3297,
      "duration": 0.3286,
      "velocity": 92,
      "chip": "ym2612"
    },
    {
      "channel": 2,
      "note": 47,
      "start": 17.3306,
      "duration": 0.3334,
      "velocity": 116,
      "chip": "ym2612"
    },
    {
      "channel": 3,
      "note": 46,
      "start": 17.3441,
      "duration": 0.6666,
      "velocity": 74,
      "chip": "ym2612"
    },
    {
      "channel": 4,
      "note": 71,
      "start": 17.3783,
      "duration": 0.3332,
      "velocity": 74,
      "chip": "ym2612"
    },
    {
      "channel": 0,
      "note": 66,
      "start": 17.6579,
      "duration": 0.3335,
      "velocity": 74,
      "chip": "ym2612"
    },
    {
      "channel": 1,
      "note": 47,
      "start": 17.663,
      "duration": 0.3289,
      "velocity": 103,
      "chip": "ym2612"
    },
    {
      "channel": 2,
      "note": 47,
      "start": 17.664,
      "duration": 0.3328,
      "velocity": 116,
      "chip": "ym2612"
    },
    {
      "channel": 4,
      "note": 66,
      "start": 17.7115,
      "duration": 0.3335,
      "velocity": 74,
      "chip": "ym2612"
    },
    {
      "channel": 0,
      "note": 66,
      "start": 17.9915,
      "duration": 0.3332,
      "velocity": 74,
      "chip": "ym2612"
    },
    {
      "channel": 1,
      "note": 42,
      "start": 17.9965,
      "duration": 0.3286,
      "velocity": 92,
      "chip": "ym2612"
    },
    {
      "channel": 2,
      "note": 59,
      "start": 18.0015,
      "duration": 0.3286,
      "velocity": 94,
      "chip": "ym2612"
    },
    {
      "channel": 3,
      "note": 51,
      "start": 18.0107,
      "duration": 0.6666,
      "velocity": 74,
      "chip": "ym2612"
    },
    {
      "channel": 4,
      "note": 67,
      "start": 18.045,
      "duration": 0.3333,
      "velocity": 74,
      "chip": "ym2612"
    },
    {
      "channel": 0,
      "note": 66,
      "start": 18.3247,
      "duration": 0.3327,
      "velocity": 74,
      "chip": "ym2612"
    },
    {
      "channel": 1,
      "note": 46,
      "start": 18.3298,
      "duration": 0.3326,
      "velocity": 103,
      "chip": "ym2612"
    },
    {
      "channel": 2,
      "note": 47,
      "start": 18.3347,
      "duration": 0.3332,
      "velocity": 116,
      "chip": "ym2612"
    },
    {
      "channel": 4,
      "note": 66,
      "start": 18.3783,
      "duration": 0.3326,
      "velocity": 74,
      "chip": "ym2612"
    },
    {
      "channel": 0,
      "note": 54,
      "start": 18.6621,
      "duration": 0.3293,
      "velocity": 95,
      "chip": "ym2612"
    },
    {
      "channel": 1,
      "note": 35,
      "start": 18.667,
      "duration": 0.3247,
      "velocity": 92,
      "chip": "ym2612"
    },
    {
      "channel": 2,
      "note": 47,
      "start": 18.6679,
      "duration": 0.3295,
      "velocity": 116,
      "chip": "ym2612"
    },
    {
      "channel": 3,
      "note": 46,
      "start": 18.6773,
      "duration": 0.3334,
      "velocity": 74,
      "chip": "ym2612"
    },
    {
      "channel": 4,
      "note": 54,
      "start": 18.7155,
      "duration": 0.3294,
      "velocity": 95,
      "chip": "ym2612"
    },
    {
      "channel": 0,
      "note": 56,
      "start": 18.9913,
      "duration": 0.3335,
      "velocity": 95,
      "chip": "ym2612"
    },
    {
      "channel": 1,
      "note": 47,
      "start": 18.9964,
      "duration": 0.3289,
      "velocity": 100,
      "chip": "ym2612"
    },
    {
      "channel": 2,
      "note": 47,
      "start": 18.9974,
      "duration": 0.3329,
      "velocity": 116,
      "chip": "ym2612"
    },
    {
      "channel": 3,
      "note": 53,
      "start": 19.0107,
      "duration": 0.3334,
      "velocity": 74,
      "chip": "ym2612"
    },
    {
      "channel": 4,
      "note": 56,
      "start": 19.0449,
      "duration": 0.3335,
      "velocity": 95,
      "chip": "ym2612"
    },
    {
      "channel": 0,
      "note": 57,
      "start": 19.3249,
      "duration": 0.3332,
      "velocity": 95,
      "chip": "ym2612"
    },
    {
      "channel": 1,
      "note": 42,
      "start": 19.3299,
      "duration": 0.3286,
      "velocity": 92,
      "chip": "ym2612"
    },
    {
      "channel": 2,
      "note": 59,
      "start": 19.3349,
      "duration": 0.3286,
      "velocity": 94,
      "chip": "ym2612"
    },
    {
      "channel": 3,
      "note": 55,
      "start": 19.3441,
      "duration": 0.3333,
      "velocity": 74,
      "chip": "ym2612"
    },
    {
      "channel": 4,
      "note": 57,
      "start": 19.3784,
      "duration": 0.3331,
      "velocity": 95,
      "chip": "ym2612"
    },
    {
      "channel": 0,
      "note": 57,
      "start": 19.6581,
      "duration": 0.3332,
      "velocity": 95,
      "chip": "ym2612"
    },
    {
      "channel": 1,
      "note": 35,
      "start": 19.6632,
      "duration": 0.3286,
      "velocity": 103,
      "chip": "ym2612"
    },
    {
      "channel": 2,
      "note": 47,
      "start": 19.6681,
      "duration": 0.3291,
      "velocity": 116,
      "chip": "ym2612"
    },
    {
      "channel": 3,
      "note": 54,
      "start": 19.6773,
      "duration": 0.3333,
      "velocity": 74,
      "chip": "ym2612"
    },
    {
      "channel": 4,
      "note": 57,
      "start": 19.7116,
      "duration": 0.3333,
      "velocity": 95,
      "chip": "ym2612"
    },
    {
      "channel": 0,
      "note": 54,
      "start": 19.9913,
      "duration": 0.3333,
      "velocity": 95,
      "chip": "ym2612"
    },
    {
      "channel": 1,
      "note": 38,
      "start": 19.9964,
      "duration": 0.3286,
      "velocity": 92,
      "chip": "ym2612"
    },
    {
      "channel": 2,
      "note": 47,
      "start": 19.9973,
      "duration": 0.3333,
      "velocity": 116,
      "chip": "ym2612"
    },
    {
      "channel": 3,
      "note": 56,
      "start": 20.0107,
      "duration": 0.3333,
      "velocity": 74,
      "chip": "ym2612"
    },
    {
      "channel": 4,
      "note": 54,
      "start": 20.045,
      "duration": 0.3332,
      "velocity": 95,
      "chip": "ym2612"
    },
    {
      "channel": 0,
      "note": 50,
      "start": 20.3246,
      "duration": 0.3335,
      "velocity": 95,
      "chip": "ym2612"
    },
    {
      "channel": 1,
      "note": 38,
      "start": 20.3295,
      "duration": 0.329,
      "velocity": 103,
      "chip": "ym2612"
    },
    {
      "channel": 2,
      "note": 47,
      "start": 20.3305,
      "duration": 0.3329,
      "velocity": 116,
      "chip": "ym2612"
    },
    {
      "channel": 3,
      "note": 58,
      "start": 20.3439,
      "duration": 0.6666,
      "velocity": 74,
      "chip": "ym2612"
    },
    {
      "channel": 4,
      "note": 50,
      "start": 20.3782,
      "duration": 0.3335,
      "velocity": 95,
      "chip": "ym2612"
    },
    {
      "channel": 0,
      "note": 50,
      "start": 20.6581,
      "duration": 0.3332,
      "velocity": 95,
      "chip": "ym2612"
    },
    {
      "channel": 1,
      "note": 35,
      "start": 20.6632,
      "duration": 0.3286,
      "velocity": 92,
      "chip": "ym2612"
    },
    {
      "channel": 2,
      "note": 59,
      "start": 20.6681,
      "duration": 0.3285,
      "velocity": 94,
      "chip": "ym2612"
    },
    {
      "channel": 4,
      "note": 50,
      "start": 20.7117,
      "duration": 0.3333,
      "velocity": 95,
      "chip": "ym2612"
    },
    {
      "channel": 0,
      "note": 47,
      "start": 20.9913,
      "duration": 0.3328,
      "velocity": 95,
      "chip": "ym2612"
    },
    {
      "channel": 1,
      "note": 35,
      "start": 20.9963,
      "duration": 0.3328,
      "velocity": 103,
      "chip": "ym2612"
    },
    {
      "channel": 2,
      "note": 47,
      "start": 21.0013,
      "duration": 0.3334,
      "velocity": 116,
      "chip": "ym2612"
    },
    {
      "channel": 3,
      "note": 56,
      "start": 21.0106,
      "duration": 0.1666,
      "velocity": 74,
      "chip": "ym2612"
    },
    {
      "channel": 4,
      "note": 47,
      "start": 21.045,
      "duration": 0.3326,
      "velocity": 95,
      "chip": "ym2612"
    },
    {
      "channel": 3,
      "note": 53,
      "start": 21.1772,
      "duration": 0.1668,
      "velocity": 74,
      "chip": "ym2612"
    },
    {
      "channel": 0,
      "note": 56,
      "start": 21.3288,
      "duration": 0.3293,
      "velocity": 93,
      "chip": "ym2612"
    },
    {
      "channel": 1,
      "note": 40,
      "start": 21.3337,
      "duration": 0.3247,
      "velocity": 92,
      "chip": "ym2612"
    },
    {
      "channel": 2,
      "note": 52,
      "start": 21.3348,
      "duration": 0.3293,
      "velocity": 116,
      "chip": "ym2612"
    },
    {
      "channel": 3,
      "note": 46,
      "start": 21.3439,
      "duration": 0.3334,
      "velocity": 74,
      "chip": "ym2612"
    },
    {
      "channel": 4,
      "note": 56,
      "start": 21.3822,
      "duration": 0.3294,
      "velocity": 93,
      "chip": "ym2612"
    },
    {
      "channel": 0,
      "note": 59,
      "start": 21.658,
      "duration": 0.3334,
      "velocity": 93,
      "chip": "ym2612"
    },
    {
      "channel": 1,
      "note": 52,
      "start": 21.663,
      "duration": 0.3288,
      "velocity": 100,
      "chip": "ym2612"
    },
    {
      "channel": 2,
      "note": 52,
      "start": 21.6641,
      "duration": 0.3327,
      "velocity": 116,
      "chip": "ym2612"
    },
    {
      "channel": 3,
      "note": 49,
      "start": 21.6773,
      "duration": 0.3334,
      "velocity": 74,
      "chip": "ym2612"
    },
    {
      "channel": 4,
      "note": 59,
      "start": 21.7116,
      "duration": 0.3335,
      "velocity": 93,
      "chip": "ym2612"
    },
    {
      "channel": 0,
      "note": 59,
      "start": 21.9914,
      "duration": 0.3333,
      "velocity": 93,
      "chip": "ym2612"
    },
    {
      "channel": 1,
      "note": 35,
      "start": 21.9964,
      "duration": 0.3288,
      "velocity": 92,
      "chip": "ym2612"
    },
    {
      "channel": 2,
      "note": 59,
      "start": 22.0014,
      "duration": 0.3288,
      "velocity": 94,
      "chip": "ym2612"
    },
    {
      "channel": 3,
      "note": 51,
      "start": 22.0107,
      "duration": 0.3333,
      "velocity": 74,
      "chip": "ym2612"
    },
    {
      "channel": 4,
      "note": 60,
      "start": 22.0451,
      "duration": 0.3331,
      "velocity": 93,
      "chip": "ym2612"
    },
    {
      "channel": 0,
      "note": 59,
      "start": 22.3247,
      "duration": 0.3333,
      "velocity": 93,
      "chip": "ym2612"
    },
    {
      "channel": 1,
      "note": 40,
      "start": 22.3298,
      "duration": 0.3286,
      "velocity": 103,
      "chip": "ym2612"
    },
    {
      "channel": 2,
      "note": 52,
      "start": 22.3348,
      "duration": 0.329,
      "velocity": 116,
      "chip": "ym2612"
    },
    {
      "channel": 3,
      "note": 54,
      "start": 22.344,
      "duration": 1.1665,
      "velocity": 74,
      "chip": "ym2612"
    },
    {
      "channel": 4,
      "note": 59,
      "start": 22.3782,
      "duration": 0.3333,
      "velocity": 93,
      "chip": "ym2612"
    },
    {
      "channel": 0,
      "note": 62,
      "start": 22.658,
      "duration": 0.3333,
      "velocity": 93,
      "chip": "ym2612"
    },
    {
      "channel": 1,
      "note": 40,
      "start": 22.6629,
      "duration": 0.3288,
      "velocity": 92,
      "chip": "ym2612"
    },
    {
      "channel": 2,
      "note": 52,
      "start": 22.6638,
      "duration": 0.3335,
      "velocity": 116,
      "chip": "ym2612"
    },
    {
      "channel": 4,
      "note": 62,
      "start": 22.7116,
      "duration": 0.3332,
      "velocity": 93,
      "chip": "ym2612"
    },
    {
      "channel": 0,
      "note": 59,
      "start": 22.9913,
      "duration": 0.3335,
      "velocity": 93,
      "chip": "ym2612"
    },
    {
      "channel": 1,
      "note": 52,
      "start": 22.9963,
      "duration": 0.3289,
      "velocity": 100,
      "chip": "ym2612"
    },
    {
      "channel": 2,
      "note": 52,
      "start": 22.9973,
      "duration": 0.3328,
      "velocity": 116,
      "chip": "ym2612"
    },
    {
      "channel": 4,
      "note": 59,
      "start": 23.0448,
      "duration": 0.3335,
      "velocity": 93,
      "chip": "ym2612"
    },
    {
      "channel": 0,
      "note": 59,
      "start": 23.3248,
      "duration": 0.3332,
      "velocity": 93,
      "chip": "ym2612"
    },
    {
      "channel": 1,
      "note": 40,
      "start": 23.3298,
      "duration": 0.3286,
      "velocity": 92,
      "chip": "ym2612"
    },
    {
      "channel": 2,
      "note": 59,
      "start": 23.3348,
      "duration": 0.3285,
      "velocity": 94,
      "chip": "ym2612"
    },
    {
      "channel": 4,
      "note": 60,
      "start": 23.3784,
      "duration": 0.3333,
      "velocity": 93,
      "chip": "ym2612"
    },
    {
      "channel": 3,
      "note": 51,
      "start": 23.5105,
      "duration": 0.1669,
      "velocity": 74,
      "chip": "ym2612"
    },
    {
      "channel": 0,
      "note": 59,
      "start": 23.658,
      "duration": 0.6667,
      "velocity": 93,
      "chip": "ym2612"
    },
    {
      "channel": 1,
      "note": 40,
      "start": 23.6629,
      "duration": 0.3286,
      "velocity": 103,
      "chip": "ym2612"
    },
    {
      "channel": 2,
      "note": 52,
      "start": 23.6679,
      "duration": 0.3286,
      "velocity": 116,
      "chip": "ym2612"
    },
    {
      "channel": 3,
      "note": 49,
      "start": 23.6774,
      "duration": 0.1664,
      "velocity": 74,
      "chip": "ym2612"
    },
    {
      "channel": 4,
      "note": 59,
      "start": 23.7116,
      "duration": 0.6666,
      "velocity": 93,
      "chip": "ym2612"
    },
    {
      "channel": 3,
      "note": 46,
      "start": 23.8438,
      "duration": 0.1668,
      "velocity": 74,
      "chip": "ym2612"
    },
    {
      "channel": 1,
      "note": 31,
      "start": 23.9962,
      "duration": 0.3289,
      "velocity": 92,
      "chip": "ym2612"
    },
    {
      "channel": 2,
      "note": 43,
      "start": 24.0012,
      "duration": 0.3294,
      "velocity": 116,
      "chip": "ym2612"
    },
    {
      "channel": 3,
      "note": 42,
      "start": 24.0106,
      "duration": 0.3334,
      "velocity": 74,
      "chip": "ym2612"
    },
    {
      "channel": 0,
      "note": 59,
      "start": 24.3247,
      "duration": 0.3334,
      "velocity": 93,
      "chip": "ym2612"
    },
    {
      "channel": 1,
      "note": 52,
      "start": 24.3297,
      "duration": 0.3288,
      "velocity": 100,
      "chip": "ym2612"
    },
    {
      "channel": 2,
      "note": 43,
      "start": 24.3306,
      "duration": 0.3328,
      "velocity": 116,
      "chip": "ym2612"
    },
    {
      "channel": 3,
      "note": 46,
      "start": 24.344,
      "duration": 0.3334,
      "velocity": 74,
      "chip": "ym2612"
    },
    {
      "channel": 4,
      "note": 59,
      "start": 24.3782,
      "duration": 0.3335,
      "velocity": 93,
      "chip": "ym2612"
    },
    {
      "channel": 0,
      "note": 59,
      "start": 24.6581,
      "duration": 0.3333,
      "velocity": 93,
      "chip": "ym2612"
    },
    {
      "channel": 1,
      "note": 40,
      "start": 24.6631,
      "duration": 0.3287,
      "velocity": 92,
      "chip": "ym2612"
    },
    {
      "channel": 2,
      "note": 59,
      "start": 24.668,
      "duration": 0.3288,
      "velocity": 94,
      "chip": "ym2612"
    },
    {
      "channel": 3,
      "note": 51,
      "start": 24.6774,
      "duration": 0.3332,
      "velocity": 74,
      "chip": "ym2612"
    },
    {
      "channel": 4,
      "note": 60,
      "start": 24.7118,
      "duration": 0.3331,
      "velocity": 93,
      "chip": "ym2612"
    },
    {
      "channel": 0,
      "note": 59,
      "start": 24.9914,
      "duration": 0.3333,
      "velocity": 93,
      "chip": "ym2612"
    },
    {
      "channel": 1,
      "note": 43,
      "start": 24.9964,
      "duration": 0.3286,
      "velocity": 103,
      "chip": "ym2612"
    },
    {
      "channel": 2,
      "note": 43,
      "start": 25.0015,
      "duration": 0.3291,
      "velocity": 116,
      "chip": "ym2612"
    },
    {
      "channel": 3,
      "note": 53,
      "start": 25.0107,
      "duration": 1.1665,
      "velocity": 74,
      "chip": "ym2612"
    },
    {
      "channel": 4,
      "note": 59,
      "start": 25.0449,
      "duration": 0.3333,
      "velocity": 93,
      "chip": "ym2612"
    },
    {
      "channel": 0,
      "note": 64,
      "start": 25.3247,
      "duration": 0.3327,
      "velocity": 93,
      "chip": "ym2612"
    },
    {
      "channel": 1,
      "note": 40,
      "start": 25.3297,
      "duration": 0.3327,
      "velocity": 92,
      "chip": "ym2612"
    },
    {
      "channel": 2,
      "note": 43,
      "start": 25.3306,
      "duration": 0.3375,
      "velocity": 116,
      "chip": "ym2612"
    },
    {
      "channel": 4,
      "note": 64,
      "start": 25.3783,
      "duration": 0.3326,
      "velocity": 93,
      "chip": "ym2612"
    },
    {
      "channel": 0,
      "note": 71,
      "start": 25.662,
      "duration": 0.3293,
      "velocity": 81,
      "chip": "ym2612"
    },
    {
      "channel": 1,
      "note": 43,
      "start": 25.667,
      "duration": 0.3247,
      "velocity": 103,
      "chip": "ym2612"
    },
    {
      "channel": 2,
      "note": 43,
      "start": 25.668,
      "duration": 0.3286,
      "velocity": 116,
      "chip": "ym2612"
    },
    {
      "channel": 4,
      "note": 71,
      "start": 25.7155,
      "duration": 0.3294,
      "velocity": 81,
      "chip": "ym2612"
    },
    {
      "channel": 0,
      "note": 79,
      "start": 25.9913,
      "duration": 0.3333,
      "velocity": 81,
      "chip": "ym2612"
    },
    {
      "channel": 1,
      "note": 35,
      "start": 25.9964,
      "duration": 0.3287,
      "velocity": 92,
      "chip": "ym2612"
    },
    {
      "channel": 2,
      "note": 59,
      "start": 26.0013,
      "duration": 0.3288,
      "velocity": 94,
      "chip": "ym2612"
    },
    {
      "channel": 4,
      "note": 79,
      "start": 26.0449,
      "duration": 0.3332,
      "velocity": 81,
      "chip": "ym2612"
    },
    {
      "channel": 3,
      "note": 54,
      "start": 26.1772,
      "duration": 0.1668,
      "velocity": 74,
      "chip": "ym2612"
    },
    {
      "channel": 0,
      "note": 76,
      "start": 26.3247,
      "duration": 0.3333,
      "velocity": 81,
      "chip": "ym2612"
    },
    {
      "channel": 1,
      "note": 43,
      "start": 26.3297,
      "duration": 0.3286,
      "velocity": 103,
      "chip": "ym2612"
    },
    {
      "channel": 2,
      "note": 43,
      "start": 26.3347,
      "duration": 0.3293,
      "velocity": 116,
      "chip": "ym2612"
    },
    {
      "channel": 3,
      "note": 54,
      "start": 26.3441,
      "duration": 0.1664,
      "velocity": 74,
      "chip": "ym2612"
    },
    {
      "channel": 4,
      "note": 76,
      "start": 26.3782,
      "duration": 0.3333,
      "velocity": 81,
      "chip": "ym2612"
    },
    {
      "channel": 3,
      "note": 54,
      "start": 26.5105,
      "duration": 0.1668,
      "velocity": 74,
      "chip": "ym2612"
    },
    {
      "channel": 0,
      "note": 78,
      "start": 26.6579,
      "duration": 0.3328,
      "velocity": 81,
      "chip": "ym2612"
    },
    {
      "channel": 1,
      "note": 42,
      "start": 26.663,
      "duration": 0.3327,
      "velocity": 92,
      "chip": "ym2612"
    },
    {
      "channel": 2,
      "note": 54,
      "start": 26.664,
      "duration": 0.3373,
      "velocity": 116,
      "chip": "ym2612"
    },
    {
      "channel": 3,
      "note": 54,
      "start": 26.6773,
      "duration": 0.3334,
      "velocity": 74,
      "chip": "ym2612"
    },
    {
      "channel": 4,
      "note": 78,
      "start": 26.7116,
      "duration": 0.3327,
      "velocity": 81,
      "chip": "ym2612"
    },
    {
      "channel": 0,
      "note": 66,
      "start": 26.9953,
      "duration": 2.3295,
      "velocity": 95,
      "chip": "ym2612"
    },
    {
      "channel": 1,
      "note": 40,
      "start": 27.0003,
      "duration": 0.3248,
      "velocity": 103,
      "chip": "ym2612"
    },
    {
      "channel": 2,
      "note": 54,
      "start": 27.0013,
      "duration": 0.3293,
      "velocity": 116,
      "chip": "ym2612"
    },
    {
      "channel": 3,
      "note": 55,
      "start": 27.0107,
      "duration": 0.1665,
      "velocity": 74,
      "chip": "ym2612"
    },
    {
      "channel": 4,
      "note": 66,
      "start": 27.0489,
      "duration": 2.3295,
      "velocity": 95,
      "chip": "ym2612"
    },
    {
      "channel": 3,
      "note": 54,
      "start": 27.1772,
      "duration": 0.1669,
      "velocity": 74,
      "chip": "ym2612"
    },
    {
      "channel": 1,
      "note": 40,
      "start": 27.3296,
      "duration": 0.3287,
      "velocity": 92,
      "chip": "ym2612"
    },
    {
      "channel": 2,
      "note": 52,
      "start": 27.3307,
      "duration": 0.3333,
      "velocity": 116,
      "chip": "ym2612"
    },
    {
      "channel": 3,
      "note": 51,
      "start": 27.3441,
      "duration": 0.3332,
      "velocity": 74,
      "chip": "ym2612"
    },
    {
      "channel": 1,
      "note": 42,
      "start": 27.663,
      "duration": 0.3288,
      "velocity": 103,
      "chip": "ym2612"
    },
    {
      "channel": 2,
      "note": 52,
      "start": 27.6641,
      "duration": 0.3327,
      "velocity": 116,
      "chip": "ym2612"
    },
    {
      "channel": 3,
      "note": 53,
      "start": 27.6773,
      "duration": 0.1667,
      "velocity": 74,
      "chip": "ym2612"
    },
    {
      "channel": 3,
      "note": 53,
      "start": 27.844,
      "duration": 0.1667,
      "velocity": 74,
      "chip": "ym2612"
    },
    {
      "channel": 1,
      "note": 39,
      "start": 27.9964,
      "duration": 0.3286,
      "velocity": 92,
      "chip": "ym2612"
    },
    {
      "channel": 2,
      "note": 54,
      "start": 28.0014,
      "duration": 0.3293,
      "velocity": 116,
      "chip": "ym2612"
    },
    {
      "channel": 3,
      "note": 50,
      "start": 28.0107,
      "duration": 0.3333,
      "velocity": 74,
      "chip": "ym2612"
    },
    {
      "channel": 1,
      "note": 54,
      "start": 28.3296,
      "duration": 0.3288,
      "velocity": 100,
      "chip": "ym2612"
    },
    {
      "channel": 2,
      "note": 54,
      "start": 28.3307,
      "duration": 0.3334,
      "velocity": 116,
      "chip": "ym2612"
    },
    {
      "channel": 3,
      "note": 51,
      "start": 28.3439,
      "duration": 0.1667,
      "velocity": 74,
      "chip": "ym2612"
    },
    {
      "channel": 3,
      "note": 51,
      "start": 28.5106,
      "duration": 0.1667,
      "velocity": 74,
      "chip": "ym2612"
    },
    {
      "channel": 1,
      "note": 37,
      "start": 28.663,
      "duration": 0.3285,
      "velocity": 92,
      "chip": "ym2612"
    },
    {
      "channel": 2,
      "note": 52,
      "start": 28.6641,
      "duration": 0.3332,
      "velocity": 116,
      "chip": "ym2612"
    },
    {
      "channel": 3,
      "note": 48,
      "start": 28.6773,
      "duration": 0.6667,
      "velocity": 74,
      "chip": "ym2612"
    },
    {
      "channel": 1,
      "note": 56,
      "start": 28.9962,
      "duration": 0.3289,
      "velocity": 100,
      "chip": "ym2612"
    },
    {
      "channel": 2,
      "note": 52,
      "start": 28.9973,
      "duration": 0.3334,
      "velocity": 116,
      "chip": "ym2612"
    },
    {
      "channel": 0,
      "note": 65,
      "start": 29.3247,
      "duration": 5.3341,
      "velocity": 95,
      "chip": "ym2612"
    },
    {
      "channel": 1,
      "note": 35,
      "start": 29.3298,
      "duration": 0.3286,
      "velocity": 92,
      "chip": "ym2612"
    },
    {
      "channel": 2,
      "note": 47,
      "start": 29.3308,
      "duration": 0.3333,
      "velocity": 116,
      "chip": "ym2612"
    },
    {
      "channel": 3,
      "note": 46,
      "start": 29.3441,
      "duration": 0.3333,
      "velocity": 74,
      "chip": "ym2612"
    },
    {
      "channel": 4,
      "note": 65,
      "start": 29.3785,
      "duration": 5.3333,
      "velocity": 95,
      "chip": "ym2612"
    },
    {
      "channel": 1,
      "note": 47,
      "start": 29.663,
      "duration": 0.3286,
      "velocity": 103,
      "chip": "ym2612"
    },
    {
      "channel": 2,
      "note": 47,
      "start": 29.6641,
      "duration": 0.3326,
      "velocity": 116,
      "chip": "ym2612"
    },
    {
      "channel": 3,
      "note": 50,
      "start": 29.6773,
      "duration": 0.3333,
      "velocity": 74,
      "chip": "ym2612"
    },
    {
      "channel": 1,
      "note": 42,
      "start": 29.9963,
      "duration": 0.3287,
      "velocity": 92,
      "chip": "ym2612"
    },
    {
      "channel": 2,
      "note": 59,
      "start": 30.0013,
      "duration": 0.3288,
      "velocity": 94,
      "chip": "ym2612"
    },
    {
      "channel": 3,
      "note": 41,
      "start": 30.0106,
      "duration": 0.3333,
      "velocity": 74,
      "chip": "ym2612"
    },
    {
      "channel": 1,
      "note": 46,
      "start": 30.3296,
      "duration": 0.3288,
      "velocity": 103,
      "chip": "ym2612"
    },
    {
      "channel": 2,
      "note": 34,
      "start": 30.3347,
      "duration": 0.3288,
      "velocity": 116,
      "chip": "ym2612"
    },
    {
      "channel": 3,
      "note": 43,
      "start": 30.344,
      "duration": 0.1667,
      "velocity": 74,
      "chip": "ym2612"
    },
    {
      "channel": 3,
      "note": 44,
      "start": 30.5107,
      "duration": 0.1667,
      "velocity": 74,
      "chip": "ym2612"
    },
    {
      "channel": 1,
      "note": 35,
      "start": 30.663,
      "duration": 0.3286,
      "velocity": 92,
      "chip": "ym2612"
    },
    {
      "channel": 2,
      "note": 47,
      "start": 30.668,
      "duration": 0.3293,
      "velocity": 116,
      "chip": "ym2612"
    },
    {
      "channel": 3,
      "note": 46,
      "start": 30.6773,
      "duration": 0.3333,
      "velocity": 74,
      "chip": "ym2612"
    },
    {
      "channel": 1,
      "note": 47,
      "start": 30.9963,
      "duration": 0.3288,
      "velocity": 103,
      "chip": "ym2612"
    },
    {
      "channel": 2,
      "note": 47,
      "start": 30.9973,
      "duration": 0.3327,
      "velocity": 116,
      "chip": "ym2612"
    },
    {
      "channel": 3,
      "note": 50,
      "start": 31.0106,
      "duration": 0.3334,
      "velocity": 74,
      "chip": "ym2612"
    },
    {
      "channel": 1,
      "note": 42,
      "start": 31.3297,
      "duration": 0.3287,
      "velocity": 92,
      "chip": "ym2612"
    },
    {
      "channel": 2,
      "note": 59,
      "start": 31.3347,
      "duration": 0.3288,
      "velocity": 94,
      "chip": "ym2612"
    },
    {
      "channel": 3,
      "note": 41,
      "start": 31.344,
      "duration": 0.3333,
      "velocity": 74,
      "chip": "ym2612"
    },
    {
      "channel": 1,
      "note": 46,
      "start": 31.663,
      "duration": 0.3288,
      "velocity": 103,
      "chip": "ym2612"
    },
    {
      "channel": 2,
      "note": 34,
      "start": 31.668,
      "duration": 0.3288,
      "velocity": 116,
      "chip": "ym2612"
    },
    {
      "channel": 3,
      "note": 43,
      "start": 31.6774,
      "duration": 0.1667,
      "velocity": 74,
      "chip": "ym2612"
    },
    {
      "channel": 3,
      "note": 45,
      "start": 31.8441,
      "duration": 0.1665,
      "velocity": 74,
      "chip": "ym2612"
    },
    {
      "channel": 1,
      "note": 35,
      "start": 31.9964,
      "duration": 0.3286,
      "velocity": 92,
      "chip": "ym2612"
    },
    {
      "channel": 2,
      "note": 47,
      "start": 32.0015,
      "duration": 0.3293,
      "velocity": 116,
      "chip": "ym2612"
    },
    {
      "channel": 3,
      "note": 46,
      "start": 32.0106,
      "duration": 0.3334,
      "velocity": 74,
      "chip": "ym2612"
    },
    {
      "channel": 1,
      "note": 47,
      "start": 32.3297,
      "duration": 0.3286,
      "velocity": 103,
      "chip": "ym2612"
    },
    {
      "channel": 2,
      "note": 47,
      "start": 32.3307,
      "duration": 0.3326,
      "velocity": 116,
      "chip": "ym2612"
    },
    {
      "channel": 3,
      "note": 50,
      "start": 32.344,
      "duration": 0.3334,
      "velocity": 74,
      "chip": "ym2612"
    },
    {
      "channel": 1,
      "note": 42,
      "start": 32.663,
      "duration": 0.3287,
      "velocity": 92,
      "chip": "ym2612"
    },
    {
      "channel": 2,
      "note": 59,
      "start": 32.6679,
      "duration": 0.3288,
      "velocity": 94,
      "chip": "ym2612"
    },
    {
      "channel": 3,
      "note": 41,
      "start": 32.6774,
      "duration": 0.3332,
      "velocity": 74,
      "chip": "ym2612"
    },
    {
      "channel": 1,
      "note": 46,
      "start": 32.9963,
      "duration": 0.3289,
      "velocity": 103,
      "chip": "ym2612"
    },
    {
      "channel": 2,
      "note": 34,
      "start": 33.0013,
      "duration": 0.3289,
      "velocity": 116,
      "chip": "ym2612"
    },
    {
      "channel": 3,
      "note": 43,
      "start": 33.0107,
      "duration": 0.1667,
      "velocity": 74,
      "chip": "ym2612"
    },
    {
      "channel": 3,
      "note": 45,
      "start": 33.1773,
      "duration": 0.1667,
      "velocity": 74,
      "chip": "ym2612"
    },
    {
      "channel": 1,
      "note": 35,
      "start": 33.3298,
      "duration": 0.3288,
      "velocity": 92,
      "chip": "ym2612"
    },
    {
      "channel": 2,
      "note": 47,
      "start": 33.3349,
      "duration": 0.3294,
      "velocity": 116,
      "chip": "ym2612"
    },
    {
      "channel": 3,
      "note": 46,
      "start": 33.344,
      "duration": 0.3333,
      "velocity": 74,
      "chip": "ym2612"
    },
    {
      "channel": 1,
      "note": 47,
      "start": 33.6632,
      "duration": 0.3288,
      "velocity": 103,
      "chip": "ym2612"
    },
    {
      "channel": 2,
      "note": 47,
      "start": 33.6642,
      "duration": 0.3327,
      "velocity": 116,
      "chip": "ym2612"
    },
    {
      "channel": 3,
      "note": 50,
      "start": 33.6773,
      "duration": 0.3334,
      "velocity": 74,
      "chip": "ym2612"
    },
    {
      "channel": 1,
      "note": 42,
      "start": 33.9966,
      "duration": 0.3284,
      "velocity": 92,
      "chip": "ym2612"
    },
    {
      "channel": 2,
      "note": 59,
      "start": 34.0016,
      "duration": 0.3285,
      "velocity": 94,
      "chip": "ym2612"
    },
    {
      "channel": 3,
      "note": 41,
      "start": 34.0107,
      "duration": 0.3333,
      "velocity": 74,
      "chip": "ym2612"
    },
    {
      "channel": 1,
      "note": 46,
      "start": 34.3297,
      "duration": 0.3296,
      "velocity": 103,
      "chip": "ym2612"
    },
    {
      "channel": 2,
      "note": 34,
      "start": 34.3347,
      "duration": 0.3295,
      "velocity": 116,
      "chip": "ym2612"
    },
    {
      "channel": 3,
      "note": 43,
      "start": 34.3441,
      "duration": 0.1667,
      "velocity": 74,
      "chip": "ym2612"
    },
    {
      "channel": 3,
      "note": 45,
      "start": 34.5107,
      "duration": 0.1667,
      "velocity": 74,
      "chip": "ym2612"
    },
    {
      "channel": 0,
      "note": 66,
      "start": 34.6589,
      "duration": 0.1657,
      "velocity": 95,
      "chip": "ym2612"
    },
    {
      "channel": 1,
      "note": 35,
      "start": 34.6639,
      "duration": 0.3278,
      "velocity": 92,
      "chip": "ym2612"
    },
    {
      "channel": 2,
      "note": 47,
      "start": 34.6689,
      "duration": 0.3285,
      "velocity": 116,
      "chip": "ym2612"
    },
    {
      "channel": 3,
      "note": 46,
      "start": 34.6774,
      "duration": 0.3333,
      "velocity": 74,
      "chip": "ym2612"
    },
    {
      "channel": 4,
      "note": 66,
      "start": 34.7118,
      "duration": 0.1664,
      "velocity": 95,
      "chip": "ym2612"
    },
    {
      "channel": 0,
      "note": 66,
      "start": 34.8246,
      "duration": 0.1667,
      "velocity": 95,
      "chip": "ym2612"
    },
    {
      "channel": 4,
      "note": 67,
      "start": 34.8782,
      "duration": 0.1667,
      "velocity": 95,
      "chip": "ym2612"
    },
    {
      "channel": 0,
      "note": 71,
      "start": 34.9913,
      "duration": 0.3433,
      "velocity": 95,
      "chip": "ym2612"
    },
    {
      "channel": 1,
      "note": 47,
      "start": 34.9964,
      "duration": 0.3286,
      "velocity": 103,
      "chip": "ym2612"
    },
    {
      "channel": 2,
      "note": 47,
      "start": 34.9974,
      "duration": 0.3326,
      "velocity": 116,
      "chip": "ym2612"
    },
    {
      "channel": 3,
      "note": 49,
      "start": 35.0107,
      "duration": 0.324,
      "velocity": 74,
      "chip": "ym2612"
    },
    {
      "channel": 4,
      "note": 71,
      "start": 35.0449,
      "duration": 0.2898,
      "velocity": 95,
      "chip": "ym2612"
    },
    {
      "channel": 1,
      "note": 42,
      "start": 35.3296,
      "duration": 0.005,
      "velocity": 92,
      "chip": "ym2612"
    },
    {
      "channel": 2,
      "note": 59,
      "start": 35.3346,
      "duration": 0.0,
      "velocity": 94,
      "chip": "ym2612"
    }
  ]
}