{
  "track_name": "06 - On the Rainy Street",
  "duration_sec": 85.32,
  "sample_rate": 44100,
  "note_count": 2518,
  "unique_pitches": 47,
  "pitch_range": 55,
  "avg_note_duration": 0.1308,
  "reconstruction_stats": {
    "notes_reconstructed": 2518,
    "keyon_events": 2518,
    "keyoff_events": 2515,
    "orphan_keyons": 3,
    "unique_pitches": 47,
    "pitch_range": 55,
    "avg_duration_sec": 0.1308
  },
  "metadata": {
    "source": "D\\Dyna Brothers 2\\06 - On the Rainy Street.vgm"
  },
  "notes": [
    {
      "channel": 0,
      "note": 87,
      "start": 0.0,
      "duration": 0.1623,
      "velocity": 104,
      "chip": "ym2612"
    },
    {
      "channel": 1,
      "note": 87,
      "start": 0.1325,
      "duration": 0.18,
      "velocity": 104,
      "chip": "ym2612"
    },
    {
      "channel": 0,
      "note": 92,
      "start": 0.3965,
      "duration": 0.2825,
      "velocity": 104,
      "chip": "ym2612"
    },
    {
      "channel": 1,
      "note": 92,
      "start": 0.5636,
      "duration": 0.2823,
      "velocity": 104,
      "chip": "ym2612"
    },
    {
      "channel": 0,
      "note": 90,
      "start": 0.7128,
      "duration": 0.2828,
      "velocity": 104,
      "chip": "ym2612"
    },
    {
      "channel": 1,
      "note": 90,
      "start": 0.8802,
      "duration": 0.2826,
      "velocity": 104,
      "chip": "ym2612"
    },
    {
      "channel": 0,
      "note": 87,
      "start": 1.0463,
      "duration": 0.1827,
      "velocity": 104,
      "chip": "ym2612"
    },
    {
      "channel": 1,
      "note": 87,
      "start": 1.1968,
      "duration": 0.1824,
      "velocity": 104,
      "chip": "ym2612"
    },
    {
      "channel": 0,
      "note": 83,
      "start": 1.2463,
      "duration": 0.0827,
      "velocity": 104,
      "chip": "ym2612"
    },
    {
      "channel": 0,
      "note": 90,
      "start": 1.363,
      "duration": 0.0824,
      "velocity": 104,
      "chip": "ym2612"
    },
    {
      "channel": 1,
      "note": 83,
      "start": 1.4135,
      "duration": 0.0826,
      "velocity": 104,
      "chip": "ym2612"
    },
    {
      "channel": 1,
      "note": 90,
      "start": 1.5132,
      "duration": 0.0828,
      "velocity": 104,
      "chip": "ym2612"
    },
    {
      "channel": 0,
      "note": 78,
      "start": 1.5795,
      "duration": 0.0828,
      "velocity": 104,
      "chip": "ym2612"
    },
    {
      "channel": 0,
      "note": 82,
      "start": 1.6799,
      "duration": 0.1824,
      "velocity": 104,
      "chip": "ym2612"
    },
    {
      "channel": 1,
      "note": 78,
      "start": 1.7301,
      "duration": 0.0826,
      "velocity": 104,
      "chip": "ym2612"
    },
    {
      "channel": 1,
      "note": 82,
      "start": 1.8468,
      "duration": 0.1826,
      "velocity": 104,
      "chip": "ym2612"
    },
    {
      "channel": 0,
      "note": 87,
      "start": 1.8963,
      "duration": 0.1826,
      "velocity": 104,
      "chip": "ym2612"
    },
    {
      "channel": 1,
      "note": 87,
      "start": 2.0466,
      "duration": 0.1828,
      "velocity": 104,
      "chip": "ym2612"
    },
    {
      "channel": 0,
      "note": 90,
      "start": 2.1128,
      "duration": 0.1828,
      "velocity": 104,
      "chip": "ym2612"
    },
    {
      "channel": 1,
      "note": 90,
      "start": 2.2634,
      "duration": 0.1824,
      "velocity": 104,
      "chip": "ym2612"
    },
    {
      "channel": 0,
      "note": 94,
      "start": 2.3129,
      "duration": 0.0827,
      "velocity": 104,
      "chip": "ym2612"
    },
    {
      "channel": 0,
      "note": 95,
      "start": 2.4298,
      "duration": 0.4823,
      "velocity": 104,
      "chip": "ym2612"
    },
    {
      "channel": 1,
      "note": 94,
      "start": 2.4802,
      "duration": 0.0825,
      "velocity": 104,
      "chip": "ym2612"
    },
    {
      "channel": 1,
      "note": 95,
      "start": 2.58,
      "duration": 0.4827,
      "velocity": 104,
      "chip": "ym2612"
    },
    {
      "channel": 0,
      "note": 94,
      "start": 2.9631,
      "duration": 0.3658,
      "velocity": 104,
      "chip": "ym2612"
    },
    {
      "channel": 1,
      "note": 94,
      "start": 3.1134,
      "duration": 0.366,
      "velocity": 104,
      "chip": "ym2612"
    },
    {
      "channel": 0,
      "note": 92,
      "start": 3.3797,
      "duration": 0.1826,
      "velocity": 104,
      "chip": "ym2612"
    },
    {
      "channel": 1,
      "note": 92,
      "start": 3.5469,
      "duration": 0.1825,
      "velocity": 104,
      "chip": "ym2612"
    },
    {
      "channel": 0,
      "note": 90,
      "start": 3.5963,
      "duration": 0.1824,
      "velocity": 104,
      "chip": "ym2612"
    },
    {
      "channel": 1,
      "note": 90,
      "start": 3.7635,
      "duration": 0.1826,
      "velocity": 104,
      "chip": "ym2612"
    },
    {
      "channel": 0,
      "note": 88,
      "start": 3.8131,
      "duration": 0.0825,
      "velocity": 104,
      "chip": "ym2612"
    },
    {
      "channel": 0,
      "note": 87,
      "start": 3.9129,
      "duration": 0.1827,
      "velocity": 104,
      "chip": "ym2612"
    },
    {
      "channel": 1,
      "note": 88,
      "start": 3.98,
      "duration": 0.0827,
      "velocity": 104,
      "chip": "ym2612"
    },
    {
      "channel": 1,
      "note": 87,
      "start": 4.0802,
      "duration": 0.1825,
      "velocity": 104,
      "chip": "ym2612"
    },
    {
      "channel": 0,
      "note": 83,
      "start": 4.1298,
      "duration": 0.2825,
      "velocity": 104,
      "chip": "ym2612"
    },
    {
      "channel": 1,
      "note": 83,
      "start": 4.2969,
      "duration": 0.2823,
      "velocity": 104,
      "chip": "ym2612"
    },
    {
      "channel": 0,
      "note": 90,
      "start": 4.4461,
      "duration": 0.2828,
      "velocity": 104,
      "chip": "ym2612"
    },
    {
      "channel": 1,
      "note": 90,
      "start": 4.6135,
      "duration": 0.2826,
      "velocity": 104,
      "chip": "ym2612"
    },
    {
      "channel": 0,
      "note": 78,
      "start": 4.7795,
      "duration": 0.2828,
      "velocity": 104,
      "chip": "ym2612"
    },
    {
      "channel": 1,
      "note": 78,
      "start": 4.9301,
      "duration": 0.2826,
      "velocity": 104,
      "chip": "ym2612"
    },
    {
      "channel": 0,
      "note": 82,
      "start": 5.0966,
      "duration": 0.1823,
      "velocity": 104,
      "chip": "ym2612"
    },
    {
      "channel": 1,
      "note": 82,
      "start": 5.2468,
      "duration": 0.1826,
      "velocity": 104,
      "chip": "ym2612"
    },
    {
      "channel": 0,
      "note": 87,
      "start": 5.3128,
      "duration": 0.1828,
      "velocity": 104,
      "chip": "ym2612"
    },
    {
      "channel": 1,
      "note": 87,
      "start": 5.4634,
      "duration": 0.1824,
      "velocity": 104,
      "chip": "ym2612"
    },
    {
      "channel": 0,
      "note": 90,
      "start": 5.5128,
      "duration": 0.1828,
      "velocity": 104,
      "chip": "ym2612"
    },
    {
      "channel": 1,
      "note": 90,
      "start": 5.6802,
      "duration": 0.1826,
      "velocity": 104,
      "chip": "ym2612"
    },
    {
      "channel": 0,
      "note": 94,
      "start": 5.7298,
      "duration": 0.0825,
      "velocity": 104,
      "chip": "ym2612"
    },
    {
      "channel": 0,
      "note": 92,
      "start": 5.8463,
      "duration": 0.766,
      "velocity": 104,
      "chip": "ym2612"
    },
    {
      "channel": 1,
      "note": 94,
      "start": 5.8969,
      "duration": 0.0823,
      "velocity": 104,
      "chip": "ym2612"
    },
    {
      "channel": 5,
      "note": 56,
      "start": 5.9524,
      "duration": 0.2098,
      "velocity": 117,
      "chip": "ym2612"
    },
    {
      "channel": 1,
      "note": 92,
      "start": 5.9968,
      "duration": 0.766,
      "velocity": 104,
      "chip": "ym2612"
    },
    {
      "channel": 5,
      "note": 48,
      "start": 6.1692,
      "duration": 0.093,
      "velocity": 127,
      "chip": "ym2612"
    },
    {
      "channel": 5,
      "note": 48,
      "start": 6.2692,
      "duration": 0.1096,
      "velocity": 127,
      "chip": "ym2612"
    },
    {
      "channel": 2,
      "note": 80,
      "start": 6.383,
      "duration": 0.0469,
      "velocity": 112,
      "chip": "ym2612"
    },
    {
      "channel": 3,
      "note": 71,
      "start": 6.3839,
      "duration": 0.0462,
      "velocity": 97,
      "chip": "ym2612"
    },
    {
      "channel": 4,
      "note": 59,
      "start": 6.3847,
      "duration": 0.4174,
      "velocity": 97,
      "chip": "ym2612"
    },
    {
      "channel": 5,
      "note": 56,
      "start": 6.3881,
      "duration": 0.0908,
      "velocity": 117,
      "chip": "ym2612"
    },
    {
      "channel": 5,
      "note": 48,
      "start": 6.4868,
      "duration": 0.092,
      "velocity": 127,
      "chip": "ym2612"
    },
    {
      "channel": 2,
      "note": 80,
      "start": 6.5829,
      "duration": 0.0471,
      "velocity": 112,
      "chip": "ym2612"
    },
    {
      "channel": 5,
      "note": 48,
      "start": 6.5875,
      "duration": 0.2082,
      "velocity": 127,
      "chip": "ym2612"
    },
    {
      "channel": 2,
      "note": 80,
      "start": 6.6973,
      "duration": 0.0492,
      "velocity": 112,
      "chip": "ym2612"
    },
    {
      "channel": 3,
      "note": 71,
      "start": 6.6982,
      "duration": 0.0485,
      "velocity": 97,
      "chip": "ym2612"
    },
    {
      "channel": 0,
      "note": 87,
      "start": 6.7992,
      "duration": 0.1796,
      "velocity": 104,
      "chip": "ym2612"
    },
    {
      "channel": 2,
      "note": 71,
      "start": 6.8007,
      "duration": 0.0457,
      "velocity": 112,
      "chip": "ym2612"
    },
    {
      "channel": 3,
      "note": 87,
      "start": 6.8017,
      "duration": 0.0448,
      "velocity": 97,
      "chip": "ym2612"
    },
    {
      "channel": 4,
      "note": 56,
      "start": 6.8027,
      "duration": 0.1775,
      "velocity": 97,
      "chip": "ym2612"
    },
    {
      "channel": 5,
      "note": 56,
      "start": 6.8061,
      "duration": 0.1061,
      "velocity": 117,
      "chip": "ym2612"
    },
    {
      "channel": 2,
      "note": 71,
      "start": 6.9162,
      "duration": 0.0477,
      "velocity": 112,
      "chip": "ym2612"
    },
    {
      "channel": 3,
      "note": 75,
      "start": 6.9171,
      "duration": 0.047,
      "velocity": 97,
      "chip": "ym2612"
    },
    {
      "channel": 5,
      "note": 57,
      "start": 6.9207,
      "duration": 0.0915,
      "velocity": 115,
      "chip": "ym2612"
    },
    {
      "channel": 1,
      "note": 87,
      "start": 6.9638,
      "duration": 0.1823,
      "velocity": 104,
      "chip": "ym2612"
    },
    {
      "channel": 3,
      "note": 75,
      "start": 7.0168,
      "duration": 0.0469,
      "velocity": 97,
      "chip": "ym2612"
    },
    {
      "channel": 4,
      "note": 56,
      "start": 7.0174,
      "duration": 0.1799,
      "velocity": 97,
      "chip": "ym2612"
    },
    {
      "channel": 5,
      "note": 57,
      "start": 7.0208,
      "duration": 0.0913,
      "velocity": 115,
      "chip": "ym2612"
    },
    {
      "channel": 2,
      "note": 83,
      "start": 7.1162,
      "duration": 0.0471,
      "velocity": 112,
      "chip": "ym2612"
    },
    {
      "channel": 3,
      "note": 87,
      "start": 7.1171,
      "duration": 0.0464,
      "velocity": 97,
      "chip": "ym2612"
    },
    {
      "channel": 5,
      "note": 57,
      "start": 7.1207,
      "duration": 0.1081,
      "velocity": 115,
      "chip": "ym2612"
    },
    {
      "channel": 0,
      "note": 92,
      "start": 7.2322,
      "duration": 0.2799,
      "velocity": 104,
      "chip": "ym2612"
    },
    {
      "channel": 3,
      "note": 75,
      "start": 7.2339,
      "duration": 0.0464,
      "velocity": 97,
      "chip": "ym2612"
    },
    {
      "channel": 4,
      "note": 56,
      "start": 7.2346,
      "duration": 0.1795,
      "velocity": 97,
      "chip": "ym2612"
    },
    {
      "channel": 5,
      "note": 56,
      "start": 7.238,
      "duration": 0.2074,
      "velocity": 117,
      "chip": "ym2612"
    },
    {
      "channel": 2,
      "note": 80,
      "start": 7.3305,
      "duration": 0.0496,
      "velocity": 112,
      "chip": "ym2612"
    },
    {
      "channel": 1,
      "note": 92,
      "start": 7.38,
      "duration": 0.2827,
      "velocity": 104,
      "chip": "ym2612"
    },
    {
      "channel": 3,
      "note": 80,
      "start": 7.45,
      "duration": 0.1803,
      "velocity": 97,
      "chip": "ym2612"
    },
    {
      "channel": 4,
      "note": 56,
      "start": 7.4508,
      "duration": 0.0799,
      "velocity": 97,
      "chip": "ym2612"
    },
    {
      "channel": 5,
      "note": 57,
      "start": 7.4542,
      "duration": 0.0913,
      "velocity": 115,
      "chip": "ym2612"
    },
    {
      "channel": 0,
      "note": 90,
      "start": 7.5488,
      "duration": 0.2802,
      "velocity": 104,
      "chip": "ym2612"
    },
    {
      "channel": 2,
      "note": 75,
      "start": 7.5501,
      "duration": 0.0464,
      "velocity": 112,
      "chip": "ym2612"
    },
    {
      "channel": 4,
      "note": 51,
      "start": 7.5514,
      "duration": 0.1793,
      "velocity": 97,
      "chip": "ym2612"
    },
    {
      "channel": 5,
      "note": 57,
      "start": 7.5547,
      "duration": 0.0908,
      "velocity": 115,
      "chip": "ym2612"
    },
    {
      "channel": 2,
      "note": 83,
      "start": 7.6496,
      "duration": 0.047,
      "velocity": 112,
      "chip": "ym2612"
    },
    {
      "channel": 3,
      "note": 78,
      "start": 7.6506,
      "duration": 0.0462,
      "velocity": 97,
      "chip": "ym2612"
    },
    {
      "channel": 5,
      "note": 56,
      "start": 7.6542,
      "duration": 0.108,
      "velocity": 117,
      "chip": "ym2612"
    },
    {
      "channel": 1,
      "note": 90,
      "start": 7.7133,
      "duration": 0.2828,
      "velocity": 104,
      "chip": "ym2612"
    },
    {
      "channel": 3,
      "note": 66,
      "start": 7.7668,
      "duration": 0.0469,
      "velocity": 97,
      "chip": "ym2612"
    },
    {
      "channel": 4,
      "note": 51,
      "start": 7.7674,
      "duration": 0.18,
      "velocity": 97,
      "chip": "ym2612"
    },
    {
      "channel": 5,
      "note": 57,
      "start": 7.7708,
      "duration": 0.0914,
      "velocity": 115,
      "chip": "ym2612"
    },
    {
      "channel": 0,
      "note": 87,
      "start": 7.8655,
      "duration": 0.1799,
      "velocity": 104,
      "chip": "ym2612"
    },
    {
      "channel": 2,
      "note": 71,
      "start": 7.8668,
      "duration": 0.0462,
      "velocity": 112,
      "chip": "ym2612"
    },
    {
      "channel": 5,
      "note": 57,
      "start": 7.871,
      "duration": 0.1078,
      "velocity": 115,
      "chip": "ym2612"
    },
    {
      "channel": 2,
      "note": 83,
      "start": 7.9829,
      "duration": 0.0475,
      "velocity": 112,
      "chip": "ym2612"
    },
    {
      "channel": 3,
      "note": 78,
      "start": 7.9837,
      "duration": 0.0468,
      "velocity": 97,
      "chip": "ym2612"
    },
    {
      "channel": 4,
      "note": 51,
      "start": 7.9845,
      "duration": 0.0795,
      "velocity": 97,
      "chip": "ym2612"
    },
    {
      "channel": 5,
      "note": 57,
      "start": 7.9879,
      "duration": 0.091,
      "velocity": 115,
      "chip": "ym2612"
    },
    {
      "channel": 1,
      "note": 87,
      "start": 8.0302,
      "duration": 0.1825,
      "velocity": 104,
      "chip": "ym2612"
    },
    {
      "channel": 0,
      "note": 83,
      "start": 8.0822,
      "duration": 0.0801,
      "velocity": 104,
      "chip": "ym2612"
    },
    {
      "channel": 2,
      "note": 83,
      "start": 8.0835,
      "duration": 0.0464,
      "velocity": 112,
      "chip": "ym2612"
    },
    {
      "channel": 3,
      "note": 78,
      "start": 8.0844,
      "duration": 0.0456,
      "velocity": 97,
      "chip": "ym2612"
    },
    {
      "channel": 4,
      "note": 51,
      "start": 8.0851,
      "duration": 0.1788,
      "velocity": 97,
      "chip": "ym2612"
    },
    {
      "channel": 5,
      "note": 56,
      "start": 8.0885,
      "duration": 0.2071,
      "velocity": 117,
      "chip": "ym2612"
    },
    {
      "channel": 0,
      "note": 90,
      "start": 8.1795,
      "duration": 0.0828,
      "velocity": 104,
      "chip": "ym2612"
    },
    {
      "channel": 1,
      "note": 83,
      "start": 8.2467,
      "duration": 0.0827,
      "velocity": 104,
      "chip": "ym2612"
    },
    {
      "channel": 2,
      "note": 71,
      "start": 8.2997,
      "duration": 0.0472,
      "velocity": 112,
      "chip": "ym2612"
    },
    {
      "channel": 3,
      "note": 90,
      "start": 8.3005,
      "duration": 0.0465,
      "velocity": 97,
      "chip": "ym2612"
    },
    {
      "channel": 4,
      "note": 51,
      "start": 8.3012,
      "duration": 0.1792,
      "velocity": 97,
      "chip": "ym2612"
    },
    {
      "channel": 5,
      "note": 57,
      "start": 8.3046,
      "duration": 0.091,
      "velocity": 115,
      "chip": "ym2612"
    },
    {
      "channel": 1,
      "note": 90,
      "start": 8.3468,
      "duration": 0.0826,
      "velocity": 104,
      "chip": "ym2612"
    },
    {
      "channel": 0,
      "note": 78,
      "start": 8.3988,
      "duration": 0.0802,
      "velocity": 104,
      "chip": "ym2612"
    },
    {
      "channel": 2,
      "note": 83,
      "start": 8.4001,
      "duration": 0.0462,
      "velocity": 112,
      "chip": "ym2612"
    },
    {
      "channel": 3,
      "note": 78,
      "start": 8.4009,
      "duration": 0.0456,
      "velocity": 97,
      "chip": "ym2612"
    },
    {
      "channel": 5,
      "note": 57,
      "start": 8.4046,
      "duration": 0.1079,
      "velocity": 115,
      "chip": "ym2612"
    },
    {
      "channel": 0,
      "note": 82,
      "start": 8.5158,
      "duration": 0.1798,
      "velocity": 104,
      "chip": "ym2612"
    },
    {
      "channel": 2,
      "note": 82,
      "start": 8.5171,
      "duration": 0.0465,
      "velocity": 112,
      "chip": "ym2612"
    },
    {
      "channel": 4,
      "note": 54,
      "start": 8.5181,
      "duration": 0.1786,
      "velocity": 97,
      "chip": "ym2612"
    },
    {
      "channel": 5,
      "note": 56,
      "start": 8.5215,
      "duration": 0.0908,
      "velocity": 117,
      "chip": "ym2612"
    },
    {
      "channel": 1,
      "note": 78,
      "start": 8.5634,
      "duration": 0.0824,
      "velocity": 104,
      "chip": "ym2612"
    },
    {
      "channel": 2,
      "note": 70,
      "start": 8.6163,
      "duration": 0.0474,
      "velocity": 112,
      "chip": "ym2612"
    },
    {
      "channel": 5,
      "note": 57,
      "start": 8.6201,
      "duration": 0.092,
      "velocity": 115,
      "chip": "ym2612"
    },
    {
      "channel": 1,
      "note": 82,
      "start": 8.6635,
      "duration": 0.1824,
      "velocity": 104,
      "chip": "ym2612"
    },
    {
      "channel": 0,
      "note": 87,
      "start": 8.7153,
      "duration": 0.1803,
      "velocity": 104,
      "chip": "ym2612"
    },
    {
      "channel": 2,
      "note": 82,
      "start": 8.7166,
      "duration": 0.0467,
      "velocity": 112,
      "chip": "ym2612"
    },
    {
      "channel": 3,
      "note": 73,
      "start": 8.7174,
      "duration": 0.046,
      "velocity": 97,
      "chip": "ym2612"
    },
    {
      "channel": 4,
      "note": 54,
      "start": 8.7181,
      "duration": 0.179,
      "velocity": 97,
      "chip": "ym2612"
    },
    {
      "channel": 5,
      "note": 57,
      "start": 8.7215,
      "duration": 0.1074,
      "velocity": 115,
      "chip": "ym2612"
    },
    {
      "channel": 2,
      "note": 82,
      "start": 8.8331,
      "duration": 0.0472,
      "velocity": 112,
      "chip": "ym2612"
    },
    {
      "channel": 3,
      "note": 85,
      "start": 8.8339,
      "duration": 0.0465,
      "velocity": 97,
      "chip": "ym2612"
    },
    {
      "channel": 5,
      "note": 57,
      "start": 8.8376,
      "duration": 0.0913,
      "velocity": 115,
      "chip": "ym2612"
    },
    {
      "channel": 1,
      "note": 87,
      "start": 8.8802,
      "duration": 0.1826,
      "velocity": 104,
      "chip": "ym2612"
    },
    {
      "channel": 0,
      "note": 90,
      "start": 8.9321,
      "duration": 0.18,
      "velocity": 104,
      "chip": "ym2612"
    },
    {
      "channel": 3,
      "note": 97,
      "start": 8.9339,
      "duration": 0.0463,
      "velocity": 97,
      "chip": "ym2612"
    },
    {
      "channel": 4,
      "note": 54,
      "start": 8.9346,
      "duration": 0.1791,
      "velocity": 97,
      "chip": "ym2612"
    },
    {
      "channel": 5,
      "note": 56,
      "start": 8.9379,
      "duration": 0.2076,
      "velocity": 117,
      "chip": "ym2612"
    },
    {
      "channel": 2,
      "note": 82,
      "start": 9.0471,
      "duration": 0.0499,
      "velocity": 112,
      "chip": "ym2612"
    },
    {
      "channel": 1,
      "note": 90,
      "start": 9.0968,
      "duration": 0.1826,
      "velocity": 104,
      "chip": "ym2612"
    },
    {
      "channel": 0,
      "note": 94,
      "start": 9.1489,
      "duration": 0.0801,
      "velocity": 104,
      "chip": "ym2612"
    },
    {
      "channel": 3,
      "note": 85,
      "start": 9.1507,
      "duration": 0.0463,
      "velocity": 97,
      "chip": "ym2612"
    },
    {
      "channel": 4,
      "note": 54,
      "start": 9.1514,
      "duration": 0.0791,
      "velocity": 97,
      "chip": "ym2612"
    },
    {
      "channel": 5,
      "note": 57,
      "start": 9.1548,
      "duration": 0.0907,
      "velocity": 115,
      "chip": "ym2612"
    },
    {
      "channel": 0,
      "note": 95,
      "start": 9.2488,
      "duration": 0.4802,
      "velocity": 104,
      "chip": "ym2612"
    },
    {
      "channel": 2,
      "note": 87,
      "start": 9.25,
      "duration": 0.0466,
      "velocity": 112,
      "chip": "ym2612"
    },
    {
      "channel": 3,
      "note": 97,
      "start": 9.2509,
      "duration": 0.0459,
      "velocity": 97,
      "chip": "ym2612"
    },
    {
      "channel": 4,
      "note": 59,
      "start": 9.2517,
      "duration": 0.179,
      "velocity": 97,
      "chip": "ym2612"
    },
    {
      "channel": 5,
      "note": 57,
      "start": 9.255,
      "duration": 0.1073,
      "velocity": 115,
      "chip": "ym2612"
    },
    {
      "channel": 1,
      "note": 94,
      "start": 9.3134,
      "duration": 0.0827,
      "velocity": 104,
      "chip": "ym2612"
    },
    {
      "channel": 2,
      "note": 75,
      "start": 9.3665,
      "duration": 0.0473,
      "velocity": 112,
      "chip": "ym2612"
    },
    {
      "channel": 3,
      "note": 87,
      "start": 9.3673,
      "duration": 0.0466,
      "velocity": 97,
      "chip": "ym2612"
    },
    {
      "channel": 5,
      "note": 56,
      "start": 9.371,
      "duration": 0.0912,
      "velocity": 117,
      "chip": "ym2612"
    },
    {
      "channel": 1,
      "note": 95,
      "start": 9.4136,
      "duration": 0.4825,
      "velocity": 104,
      "chip": "ym2612"
    },
    {
      "channel": 3,
      "note": 87,
      "start": 9.4668,
      "duration": 0.0467,
      "velocity": 97,
      "chip": "ym2612"
    },
    {
      "channel": 4,
      "note": 59,
      "start": 9.4674,
      "duration": 0.1798,
      "velocity": 97,
      "chip": "ym2612"
    },
    {
      "channel": 5,
      "note": 57,
      "start": 9.4708,
      "duration": 0.108,
      "velocity": 115,
      "chip": "ym2612"
    },
    {
      "channel": 2,
      "note": 87,
      "start": 9.5829,
      "duration": 0.0469,
      "velocity": 112,
      "chip": "ym2612"
    },
    {
      "channel": 5,
      "note": 57,
      "start": 9.587,
      "duration": 0.0919,
      "velocity": 115,
      "chip": "ym2612"
    },
    {
      "channel": 3,
      "note": 87,
      "start": 9.6835,
      "duration": 0.0466,
      "velocity": 97,
      "chip": "ym2612"
    },
    {
      "channel": 4,
      "note": 59,
      "start": 9.6843,
      "duration": 0.0798,
      "velocity": 97,
      "chip": "ym2612"
    },
    {
      "channel": 5,
      "note": 57,
      "start": 9.6877,
      "duration": 0.0911,
      "velocity": 115,
      "chip": "ym2612"
    },
    {
      "channel": 0,
      "note": 94,
      "start": 9.7821,
      "duration": 0.3635,
      "velocity": 104,
      "chip": "ym2612"
    },
    {
      "channel": 2,
      "note": 87,
      "start": 9.7834,
      "duration": 0.0466,
      "velocity": 112,
      "chip": "ym2612"
    },
    {
      "channel": 3,
      "note": 87,
      "start": 9.7843,
      "duration": 0.0458,
      "velocity": 97,
      "chip": "ym2612"
    },
    {
      "channel": 4,
      "note": 59,
      "start": 9.7851,
      "duration": 0.179,
      "velocity": 97,
      "chip": "ym2612"
    },
    {
      "channel": 5,
      "note": 56,
      "start": 9.7884,
      "duration": 0.2071,
      "velocity": 117,
      "chip": "ym2612"
    },
    {
      "channel": 2,
      "note": 75,
      "start": 9.897,
      "duration": 0.0501,
      "velocity": 112,
      "chip": "ym2612"
    },
    {
      "channel": 1,
      "note": 94,
      "start": 9.9469,
      "duration": 0.3681,
      "velocity": 104,
      "chip": "ym2612"
    },
    {
      "channel": 3,
      "note": 87,
      "start": 10.0001,
      "duration": 0.0467,
      "velocity": 97,
      "chip": "ym2612"
    },
    {
      "channel": 4,
      "note": 58,
      "start": 10.0008,
      "duration": 0.1797,
      "velocity": 97,
      "chip": "ym2612"
    },
    {
      "channel": 5,
      "note": 57,
      "start": 10.0042,
      "duration": 0.1079,
      "velocity": 115,
      "chip": "ym2612"
    },
    {
      "channel": 2,
      "note": 87,
      "start": 10.1162,
      "duration": 0.047,
      "velocity": 112,
      "chip": "ym2612"
    },
    {
      "channel": 3,
      "note": 87,
      "start": 10.1171,
      "duration": 0.0463,
      "velocity": 97,
      "chip": "ym2612"
    },
    {
      "channel": 5,
      "note": 57,
      "start": 10.1207,
      "duration": 0.0919,
      "velocity": 115,
      "chip": "ym2612"
    },
    {
      "channel": 0,
      "note": 92,
      "start": 10.2159,
      "duration": 0.1797,
      "velocity": 104,
      "chip": "ym2612"
    },
    {
      "channel": 2,
      "note": 71,
      "start": 10.2172,
      "duration": 0.046,
      "velocity": 112,
      "chip": "ym2612"
    },
    {
      "channel": 3,
      "note": 92,
      "start": 10.218,
      "duration": 0.0453,
      "velocity": 97,
      "chip": "ym2612"
    },
    {
      "channel": 4,
      "note": 56,
      "start": 10.2188,
      "duration": 0.1783,
      "velocity": 97,
      "chip": "ym2612"
    },
    {
      "channel": 5,
      "note": 56,
      "start": 10.2221,
      "duration": 0.09,
      "velocity": 117,
      "chip": "ym2612"
    },
    {
      "channel": 2,
      "note": 80,
      "start": 10.3159,
      "duration": 0.0474,
      "velocity": 112,
      "chip": "ym2612"
    },
    {
      "channel": 3,
      "note": 80,
      "start": 10.3168,
      "duration": 0.0467,
      "velocity": 97,
      "chip": "ym2612"
    },
    {
      "channel": 5,
      "note": 57,
      "start": 10.3204,
      "duration": 0.1085,
      "velocity": 115,
      "chip": "ym2612"
    },
    {
      "channel": 1,
      "note": 92,
      "start": 10.3801,
      "duration": 0.1826,
      "velocity": 104,
      "chip": "ym2612"
    },
    {
      "channel": 0,
      "note": 90,
      "start": 10.4321,
      "duration": 0.1802,
      "velocity": 104,
      "chip": "ym2612"
    },
    {
      "channel": 2,
      "note": 87,
      "start": 10.4334,
      "duration": 0.0464,
      "velocity": 112,
      "chip": "ym2612"
    },
    {
      "channel": 3,
      "note": 68,
      "start": 10.4342,
      "duration": 0.0457,
      "velocity": 97,
      "chip": "ym2612"
    },
    {
      "channel": 4,
      "note": 56,
      "start": 10.4349,
      "duration": 0.1789,
      "velocity": 97,
      "chip": "ym2612"
    },
    {
      "channel": 5,
      "note": 57,
      "start": 10.4383,
      "duration": 0.0906,
      "velocity": 115,
      "chip": "ym2612"
    },
    {
      "channel": 2,
      "note": 83,
      "start": 10.533,
      "duration": 0.047,
      "velocity": 112,
      "chip": "ym2612"
    },
    {
      "channel": 5,
      "note": 57,
      "start": 10.5371,
      "duration": 0.1083,
      "velocity": 115,
      "chip": "ym2612"
    },
    {
      "channel": 1,
      "note": 90,
      "start": 10.5799,
      "duration": 0.1828,
      "velocity": 104,
      "chip": "ym2612"
    },
    {
      "channel": 0,
      "note": 88,
      "start": 10.6488,
      "duration": 0.0802,
      "velocity": 104,
      "chip": "ym2612"
    },
    {
      "channel": 3,
      "note": 80,
      "start": 10.6505,
      "duration": 0.0465,
      "velocity": 97,
      "chip": "ym2612"
    },
    {
      "channel": 4,
      "note": 56,
      "start": 10.6512,
      "duration": 0.1795,
      "velocity": 97,
      "chip": "ym2612"
    },
    {
      "channel": 5,
      "note": 56,
      "start": 10.6545,
      "duration": 0.191,
      "velocity": 117,
      "chip": "ym2612"
    },
    {
      "channel": 0,
      "note": 87,
      "start": 10.7465,
      "duration": 0.1825,
      "velocity": 104,
      "chip": "ym2612"
    },
    {
      "channel": 2,
      "note": 87,
      "start": 10.7478,
      "duration": 0.0492,
      "velocity": 112,
      "chip": "ym2612"
    },
    {
      "channel": 3,
      "note": 92,
      "start": 10.7486,
      "duration": 0.0485,
      "velocity": 97,
      "chip": "ym2612"
    },
    {
      "channel": 1,
      "note": 88,
      "start": 10.7968,
      "duration": 0.0826,
      "velocity": 104,
      "chip": "ym2612"
    },
    {
      "channel": 3,
      "note": 90,
      "start": 10.85,
      "duration": 0.0471,
      "velocity": 97,
      "chip": "ym2612"
    },
    {
      "channel": 4,
      "note": 56,
      "start": 10.8508,
      "duration": 0.0797,
      "velocity": 97,
      "chip": "ym2612"
    },
    {
      "channel": 5,
      "note": 57,
      "start": 10.8541,
      "duration": 0.1081,
      "velocity": 115,
      "chip": "ym2612"
    },
    {
      "channel": 1,
      "note": 87,
      "start": 10.9134,
      "duration": 0.1826,
      "velocity": 104,
      "chip": "ym2612"
    },
    {
      "channel": 0,
      "note": 83,
      "start": 10.9655,
      "duration": 0.2799,
      "velocity": 104,
      "chip": "ym2612"
    },
    {
      "channel": 2,
      "note": 78,
      "start": 10.9668,
      "duration": 0.0464,
      "velocity": 112,
      "chip": "ym2612"
    },
    {
      "channel": 4,
      "note": 54,
      "start": 10.968,
      "duration": 0.1794,
      "velocity": 97,
      "chip": "ym2612"
    },
    {
      "channel": 5,
      "note": 57,
      "start": 10.9714,
      "duration": 0.091,
      "velocity": 115,
      "chip": "ym2612"
    },
    {
      "channel": 3,
      "note": 90,
      "start": 11.0669,
      "duration": 0.0471,
      "velocity": 97,
      "chip": "ym2612"
    },
    {
      "channel": 5,
      "note": 56,
      "start": 11.0706,
      "duration": 0.1082,
      "velocity": 117,
      "chip": "ym2612"
    },
    {
      "channel": 1,
      "note": 83,
      "start": 11.1134,
      "duration": 0.2827,
      "velocity": 104,
      "chip": "ym2612"
    },
    {
      "channel": 2,
      "note": 73,
      "start": 11.1828,
      "duration": 0.047,
      "velocity": 112,
      "chip": "ym2612"
    },
    {
      "channel": 4,
      "note": 54,
      "start": 11.184,
      "duration": 0.1801,
      "velocity": 97,
      "chip": "ym2612"
    },
    {
      "channel": 5,
      "note": 57,
      "start": 11.1873,
      "duration": 0.0915,
      "velocity": 115,
      "chip": "ym2612"
    },
    {
      "channel": 0,
      "note": 90,
      "start": 11.2821,
      "duration": 0.2802,
      "velocity": 104,
      "chip": "ym2612"
    },
    {
      "channel": 2,
      "note": 78,
      "start": 11.2834,
      "duration": 0.0464,
      "velocity": 112,
      "chip": "ym2612"
    },
    {
      "channel": 3,
      "note": 90,
      "start": 11.2843,
      "duration": 0.0457,
      "velocity": 97,
      "chip": "ym2612"
    },
    {
      "channel": 5,
      "note": 57,
      "start": 11.288,
      "duration": 0.0908,
      "velocity": 115,
      "chip": "ym2612"
    },
    {
      "channel": 2,
      "note": 70,
      "start": 11.3828,
      "duration": 0.0471,
      "velocity": 112,
      "chip": "ym2612"
    },
    {
      "channel": 3,
      "note": 90,
      "start": 11.3837,
      "duration": 0.0464,
      "velocity": 97,
      "chip": "ym2612"
    },
    {
      "channel": 4,
      "note": 54,
      "start": 11.3845,
      "duration": 0.0795,
      "velocity": 97,
      "chip": "ym2612"
    },
    {
      "channel": 5,
      "note": 57,
      "start": 11.3879,
      "duration": 0.1077,
      "velocity": 115,
      "chip": "ym2612"
    },
    {
      "channel": 1,
      "note": 90,
      "start": 11.4466,
      "duration": 0.2828,
      "velocity": 104,
      "chip": "ym2612"
    },
    {
      "channel": 2,
      "note": 73,
      "start": 11.4997,
      "duration": 0.0468,
      "velocity": 112,
      "chip": "ym2612"
    },
    {
      "channel": 4,
      "note": 54,
      "start": 11.5009,
      "duration": 0.1799,
      "velocity": 97,
      "chip": "ym2612"
    },
    {
      "channel": 5,
      "note": 56,
      "start": 11.5043,
      "duration": 0.2078,
      "velocity": 117,
      "chip": "ym2612"
    },
    {
      "channel": 0,
      "note": 78,
      "start": 11.5963,
      "duration": 0.2826,
      "velocity": 104,
      "chip": "ym2612"
    },
    {
      "channel": 3,
      "note": 90,
      "start": 11.598,
      "duration": 0.0487,
      "velocity": 97,
      "chip": "ym2612"
    },
    {
      "channel": 2,
      "note": 85,
      "start": 11.7162,
      "duration": 0.0474,
      "velocity": 112,
      "chip": "ym2612"
    },
    {
      "channel": 4,
      "note": 54,
      "start": 11.7174,
      "duration": 0.18,
      "velocity": 97,
      "chip": "ym2612"
    },
    {
      "channel": 5,
      "note": 57,
      "start": 11.7207,
      "duration": 0.0915,
      "velocity": 115,
      "chip": "ym2612"
    },
    {
      "channel": 1,
      "note": 78,
      "start": 11.7635,
      "duration": 0.2824,
      "velocity": 104,
      "chip": "ym2612"
    },
    {
      "channel": 3,
      "note": 90,
      "start": 11.8168,
      "duration": 0.0469,
      "velocity": 97,
      "chip": "ym2612"
    },
    {
      "channel": 5,
      "note": 57,
      "start": 11.8204,
      "duration": 0.0921,
      "velocity": 115,
      "chip": "ym2612"
    },
    {
      "channel": 0,
      "note": 82,
      "start": 11.9159,
      "duration": 0.1798,
      "velocity": 104,
      "chip": "ym2612"
    },
    {
      "channel": 2,
      "note": 87,
      "start": 11.9171,
      "duration": 0.0462,
      "velocity": 112,
      "chip": "ym2612"
    },
    {
      "channel": 4,
      "note": 51,
      "start": 11.9181,
      "duration": 0.1786,
      "velocity": 97,
      "chip": "ym2612"
    },
    {
      "channel": 5,
      "note": 56,
      "start": 11.9215,
      "duration": 0.1074,
      "velocity": 117,
      "chip": "ym2612"
    },
    {
      "channel": 2,
      "note": 85,
      "start": 12.033,
      "duration": 0.0474,
      "velocity": 112,
      "chip": "ym2612"
    },
    {
      "channel": 5,
      "note": 57,
      "start": 12.0368,
      "duration": 0.0921,
      "velocity": 115,
      "chip": "ym2612"
    },
    {
      "channel": 1,
      "note": 82,
      "start": 12.0804,
      "duration": 0.1824,
      "velocity": 104,
      "chip": "ym2612"
    },
    {
      "channel": 0,
      "note": 87,
      "start": 12.1321,
      "duration": 0.18,
      "velocity": 104,
      "chip": "ym2612"
    },
    {
      "channel": 2,
      "note": 82,
      "start": 12.1334,
      "duration": 0.0462,
      "velocity": 112,
      "chip": "ym2612"
    },
    {
      "channel": 3,
      "note": 82,
      "start": 12.1342,
      "duration": 0.0456,
      "velocity": 97,
      "chip": "ym2612"
    },
    {
      "channel": 4,
      "note": 51,
      "start": 12.1349,
      "duration": 0.1786,
      "velocity": 97,
      "chip": "ym2612"
    },
    {
      "channel": 5,
      "note": 57,
      "start": 12.1383,
      "duration": 0.1071,
      "velocity": 115,
      "chip": "ym2612"
    },
    {
      "channel": 2,
      "note": 87,
      "start": 12.2496,
      "duration": 0.0474,
      "velocity": 112,
      "chip": "ym2612"
    },
    {
      "channel": 3,
      "note": 82,
      "start": 12.2504,
      "duration": 0.0467,
      "velocity": 97,
      "chip": "ym2612"
    },
    {
      "channel": 5,
      "note": 57,
      "start": 12.2541,
      "duration": 0.0915,
      "velocity": 115,
      "chip": "ym2612"
    },
    {
      "channel": 1,
      "note": 87,
      "start": 12.2968,
      "duration": 0.1826,
      "velocity": 104,
      "chip": "ym2612"
    },
    {
      "channel": 0,
      "note": 90,
      "start": 12.3488,
      "duration": 0.1802,
      "velocity": 104,
      "chip": "ym2612"
    },
    {
      "channel": 2,
      "note": 85,
      "start": 12.3501,
      "duration": 0.0464,
      "velocity": 112,
      "chip": "ym2612"
    },
    {
      "channel": 4,
      "note": 51,
      "start": 12.3511,
      "duration": 0.179,
      "velocity": 97,
      "chip": "ym2612"
    },
    {
      "channel": 5,
      "note": 56,
      "start": 12.3545,
      "duration": 0.2078,
      "velocity": 117,
      "chip": "ym2612"
    },
    {
      "channel": 2,
      "note": 78,
      "start": 12.447,
      "duration": 0.0496,
      "velocity": 112,
      "chip": "ym2612"
    },
    {
      "channel": 1,
      "note": 90,
      "start": 12.5133,
      "duration": 0.1828,
      "velocity": 104,
      "chip": "ym2612"
    },
    {
      "channel": 0,
      "note": 94,
      "start": 12.5655,
      "duration": 0.0799,
      "velocity": 104,
      "chip": "ym2612"
    },
    {
      "channel": 2,
      "note": 75,
      "start": 12.5668,
      "duration": 0.0464,
      "velocity": 112,
      "chip": "ym2612"
    },
    {
      "channel": 3,
      "note": 82,
      "start": 12.5677,
      "duration": 0.0456,
      "velocity": 97,
      "chip": "ym2612"
    },
    {
      "channel": 4,
      "note": 51,
      "start": 12.5685,
      "duration": 0.0784,
      "velocity": 97,
      "chip": "ym2612"
    },
    {
      "channel": 5,
      "note": 57,
      "start": 12.5718,
      "duration": 0.0904,
      "velocity": 115,
      "chip": "ym2612"
    },
    {
      "channel": 0,
      "note": 92,
      "start": 12.6655,
      "duration": 0.7634,
      "velocity": 104,
      "chip": "ym2612"
    },
    {
      "channel": 2,
      "note": 78,
      "start": 12.6668,
      "duration": 0.0467,
      "velocity": 112,
      "chip": "ym2612"
    },
    {
      "channel": 3,
      "note": 82,
      "start": 12.6676,
      "duration": 0.046,
      "velocity": 97,
      "chip": "ym2612"
    },
    {
      "channel": 4,
      "note": 56,
      "start": 12.6684,
      "duration": 0.1784,
      "velocity": 97,
      "chip": "ym2612"
    },
    {
      "channel": 5,
      "note": 57,
      "start": 12.6718,
      "duration": 0.107,
      "velocity": 115,
      "chip": "ym2612"
    },
    {
      "channel": 1,
      "note": 94,
      "start": 12.7134,
      "duration": 0.0827,
      "velocity": 104,
      "chip": "ym2612"
    },
    {
      "channel": 2,
      "note": 87,
      "start": 12.7828,
      "duration": 0.0476,
      "velocity": 112,
      "chip": "ym2612"
    },
    {
      "channel": 5,
      "note": 56,
      "start": 12.7868,
      "duration": 0.092,
      "velocity": 117,
      "chip": "ym2612"
    },
    {
      "channel": 1,
      "note": 92,
      "start": 12.8302,
      "duration": 0.7659,
      "velocity": 104,
      "chip": "ym2612"
    },
    {
      "channel": 2,
      "note": 92,
      "start": 12.883,
      "duration": 0.0469,
      "velocity": 112,
      "chip": "ym2612"
    },
    {
      "channel": 4,
      "note": 56,
      "start": 12.8838,
      "duration": 0.1803,
      "velocity": 97,
      "chip": "ym2612"
    },
    {
      "channel": 5,
      "note": 57,
      "start": 12.8872,
      "duration": 0.0916,
      "velocity": 115,
      "chip": "ym2612"
    },
    {
      "channel": 2,
      "note": 90,
      "start": 12.9828,
      "duration": 0.0472,
      "velocity": 112,
      "chip": "ym2612"
    },
    {
      "channel": 3,
      "note": 83,
      "start": 12.9837,
      "duration": 0.0464,
      "velocity": 97,
      "chip": "ym2612"
    },
    {
      "channel": 5,
      "note": 48,
      "start": 12.9874,
      "duration": 0.1081,
      "velocity": 127,
      "chip": "ym2612"
    },
    {
      "channel": 2,
      "note": 87,
      "start": 13.0997,
      "duration": 0.0468,
      "velocity": 112,
      "chip": "ym2612"
    },
    {
      "channel": 3,
      "note": 83,
      "start": 13.1006,
      "duration": 0.0461,
      "velocity": 97,
      "chip": "ym2612"
    },
    {
      "channel": 4,
      "note": 56,
      "start": 13.1014,
      "duration": 0.0792,
      "velocity": 97,
      "chip": "ym2612"
    },
    {
      "channel": 5,
      "note": 48,
      "start": 13.1048,
      "duration": 0.0908,
      "velocity": 127,
      "chip": "ym2612"
    },
    {
      "channel": 2,
      "note": 83,
      "start": 13.1998,
      "duration": 0.0466,
      "velocity": 112,
      "chip": "ym2612"
    },
    {
      "channel": 4,
      "note": 56,
      "start": 13.201,
      "duration": 0.1796,
      "velocity": 97,
      "chip": "ym2612"
    },
    {
      "channel": 5,
      "note": 56,
      "start": 13.2043,
      "duration": 0.1078,
      "velocity": 117,
      "chip": "ym2612"
    },
    {
      "channel": 3,
      "note": 83,
      "start": 13.3166,
      "duration": 0.0471,
      "velocity": 97,
      "chip": "ym2612"
    },
    {
      "channel": 5,
      "note": 48,
      "start": 13.3204,
      "duration": 0.0919,
      "velocity": 127,
      "chip": "ym2612"
    },
    {
      "channel": 2,
      "note": 80,
      "start": 13.4164,
      "duration": 0.0469,
      "velocity": 112,
      "chip": "ym2612"
    },
    {
      "channel": 3,
      "note": 83,
      "start": 13.4172,
      "duration": 0.0462,
      "velocity": 97,
      "chip": "ym2612"
    },
    {
      "channel": 4,
      "note": 68,
      "start": 13.4179,
      "duration": 0.1793,
      "velocity": 97,
      "chip": "ym2612"
    },
    {
      "channel": 5,
      "note": 48,
      "start": 13.4213,
      "duration": 0.2079,
      "velocity": 127,
      "chip": "ym2612"
    },
    {
      "channel": 3,
      "note": 83,
      "start": 13.5142,
      "duration": 0.0496,
      "velocity": 97,
      "chip": "ym2612"
    },
    {
      "channel": 0,
      "note": 87,
      "start": 13.6347,
      "duration": 0.1776,
      "velocity": 104,
      "chip": "ym2612"
    },
    {
      "channel": 2,
      "note": 71,
      "start": 13.6363,
      "duration": 0.0436,
      "velocity": 112,
      "chip": "ym2612"
    },
    {
      "channel": 3,
      "note": 87,
      "start": 13.6374,
      "duration": 0.0426,
      "velocity": 97,
      "chip": "ym2612"
    },
    {
      "channel": 4,
      "note": 56,
      "start": 13.6384,
      "duration": 0.1753,
      "velocity": 97,
      "chip": "ym2612"
    },
    {
      "channel": 5,
      "note": 56,
      "start": 13.6417,
      "duration": 0.0871,
      "velocity": 117,
      "chip": "ym2612"
    },
    {
      "channel": 2,
      "note": 71,
      "start": 13.733,
      "duration": 0.0494,
      "velocity": 112,
      "chip": "ym2612"
    },
    {
      "channel": 3,
      "note": 75,
      "start": 13.7339,
      "duration": 0.0487,
      "velocity": 97,
      "chip": "ym2612"
    },
    {
      "channel": 5,
      "note": 57,
      "start": 13.7376,
      "duration": 0.1079,
      "velocity": 115,
      "chip": "ym2612"
    },
    {
      "channel": 1,
      "note": 87,
      "start": 13.7823,
      "duration": 0.1804,
      "velocity": 104,
      "chip": "ym2612"
    },
    {
      "channel": 3,
      "note": 75,
      "start": 13.85,
      "duration": 0.047,
      "velocity": 97,
      "chip": "ym2612"
    },
    {
      "channel": 4,
      "note": 56,
      "start": 13.8507,
      "duration": 0.1801,
      "velocity": 97,
      "chip": "ym2612"
    },
    {
      "channel": 5,
      "note": 57,
      "start": 13.854,
      "duration": 0.0915,
      "velocity": 115,
      "chip": "ym2612"
    },
    {
      "channel": 2,
      "note": 83,
      "start": 13.9498,
      "duration": 0.0467,
      "velocity": 112,
      "chip": "ym2612"
    },
    {
      "channel": 3,
      "note": 87,
      "start": 13.9506,
      "duration": 0.0461,
      "velocity": 97,
      "chip": "ym2612"
    },
    {
      "channel": 5,
      "note": 57,
      "start": 13.9543,
      "duration": 0.0912,
      "velocity": 115,
      "chip": "ym2612"
    },
    {
      "channel": 0,
      "note": 92,
      "start": 14.0488,
      "duration": 0.2802,
      "velocity": 104,
      "chip": "ym2612"
    },
    {
      "channel": 3,
      "note": 75,
      "start": 14.0505,
      "duration": 0.0466,
      "velocity": 97,
      "chip": "ym2612"
    },
    {
      "channel": 4,
      "note": 68,
      "start": 14.0512,
      "duration": 0.1796,
      "velocity": 97,
      "chip": "ym2612"
    },
    {
      "channel": 5,
      "note": 48,
      "start": 14.0545,
      "duration": 0.2077,
      "velocity": 127,
      "chip": "ym2612"
    },
    {
      "channel": 2,
      "note": 80,
      "start": 14.1639,
      "duration": 0.0498,
      "velocity": 112,
      "chip": "ym2612"
    },
    {
      "channel": 1,
      "note": 92,
      "start": 14.2136,
      "duration": 0.2825,
      "velocity": 104,
      "chip": "ym2612"
    },
    {
      "channel": 3,
      "note": 80,
      "start": 14.2668,
      "duration": 0.18,
      "velocity": 97,
      "chip": "ym2612"
    },
    {
      "channel": 4,
      "note": 59,
      "start": 14.2676,
      "duration": 0.0798,
      "velocity": 97,
      "chip": "ym2612"
    },
    {
      "channel": 5,
      "note": 57,
      "start": 14.271,
      "duration": 0.1078,
      "velocity": 115,
      "chip": "ym2612"
    },
    {
      "channel": 0,
      "note": 90,
      "start": 14.382,
      "duration": 0.2803,
      "velocity": 104,
      "chip": "ym2612"
    },
    {
      "channel": 2,
      "note": 75,
      "start": 14.3834,
      "duration": 0.0465,
      "velocity": 112,
      "chip": "ym2612"
    },
    {
      "channel": 4,
      "note": 51,
      "start": 14.3846,
      "duration": 0.1795,
      "velocity": 97,
      "chip": "ym2612"
    },
    {
      "channel": 5,
      "note": 57,
      "start": 14.3879,
      "duration": 0.0911,
      "velocity": 115,
      "chip": "ym2612"
    },
    {
      "channel": 2,
      "note": 83,
      "start": 14.4832,
      "duration": 0.0471,
      "velocity": 112,
      "chip": "ym2612"
    },
    {
      "channel": 3,
      "note": 78,
      "start": 14.4841,
      "duration": 0.0463,
      "velocity": 97,
      "chip": "ym2612"
    },
    {
      "channel": 5,
      "note": 56,
      "start": 14.4877,
      "duration": 0.091,
      "velocity": 117,
      "chip": "ym2612"
    },
    {
      "channel": 1,
      "note": 90,
      "start": 14.5301,
      "duration": 0.2826,
      "velocity": 104,
      "chip": "ym2612"
    },
    {
      "channel": 3,
      "note": 66,
      "start": 14.5833,
      "duration": 0.0471,
      "velocity": 97,
      "chip": "ym2612"
    },
    {
      "channel": 4,
      "note": 51,
      "start": 14.584,
      "duration": 0.1802,
      "velocity": 97,
      "chip": "ym2612"
    },
    {
      "channel": 5,
      "note": 57,
      "start": 14.5873,
      "duration": 0.1082,
      "velocity": 115,
      "chip": "ym2612"
    },
    {
      "channel": 0,
      "note": 87,
      "start": 14.6989,
      "duration": 0.1801,
      "velocity": 104,
      "chip": "ym2612"
    },
    {
      "channel": 2,
      "note": 71,
      "start": 14.7002,
      "duration": 0.0463,
      "velocity": 112,
      "chip": "ym2612"
    },
    {
      "channel": 5,
      "note": 57,
      "start": 14.7043,
      "duration": 0.0912,
      "velocity": 115,
      "chip": "ym2612"
    },
    {
      "channel": 2,
      "note": 83,
      "start": 14.7997,
      "duration": 0.0471,
      "velocity": 112,
      "chip": "ym2612"
    },
    {
      "channel": 3,
      "note": 78,
      "start": 14.8005,
      "duration": 0.0464,
      "velocity": 97,
      "chip": "ym2612"
    },
    {
      "channel": 4,
      "note": 51,
      "start": 14.8013,
      "duration": 0.0791,
      "velocity": 97,
      "chip": "ym2612"
    },
    {
      "channel": 5,
      "note": 57,
      "start": 14.8047,
      "duration": 0.1074,
      "velocity": 115,
      "chip": "ym2612"
    },
    {
      "channel": 1,
      "note": 87,
      "start": 14.8467,
      "duration": 0.1827,
      "velocity": 104,
      "chip": "ym2612"
    },
    {
      "channel": 0,
      "note": 83,
      "start": 14.9154,
      "duration": 0.0802,
      "velocity": 104,
      "chip": "ym2612"
    },
    {
      "channel": 2,
      "note": 83,
      "start": 14.9167,
      "duration": 0.0465,
      "velocity": 112,
      "chip": "ym2612"
    },
    {
      "channel": 3,
      "note": 78,
      "start": 14.9175,
      "duration": 0.0458,
      "velocity": 97,
      "chip": "ym2612"
    },
    {
      "channel": 4,
      "note": 63,
      "start": 14.9183,
      "duration": 0.1789,
      "velocity": 97,
      "chip": "ym2612"
    },
    {
      "channel": 5,
      "note": 48,
      "start": 14.9217,
      "duration": 0.1904,
      "velocity": 127,
      "chip": "ym2612"
    },
    {
      "channel": 0,
      "note": 90,
      "start": 15.013,
      "duration": 0.0826,
      "velocity": 104,
      "chip": "ym2612"
    },
    {
      "channel": 1,
      "note": 83,
      "start": 15.0635,
      "duration": 0.0826,
      "velocity": 104,
      "chip": "ym2612"
    },
    {
      "channel": 2,
      "note": 71,
      "start": 15.1162,
      "duration": 0.0471,
      "velocity": 112,
      "chip": "ym2612"
    },
    {
      "channel": 3,
      "note": 90,
      "start": 15.117,
      "duration": 0.0464,
      "velocity": 97,
      "chip": "ym2612"
    },
    {
      "channel": 4,
      "note": 58,
      "start": 15.1178,
      "duration": 0.1796,
      "velocity": 97,
      "chip": "ym2612"
    },
    {
      "channel": 5,
      "note": 57,
      "start": 15.1211,
      "duration": 0.1078,
      "velocity": 115,
      "chip": "ym2612"
    },
    {
      "channel": 1,
      "note": 90,
      "start": 15.1799,
      "duration": 0.0828,
      "velocity": 104,
      "chip": "ym2612"
    },
    {
      "channel": 0,
      "note": 78,
      "start": 15.2321,
      "duration": 0.08,
      "velocity": 104,
      "chip": "ym2612"
    },
    {
      "channel": 2,
      "note": 83,
      "start": 15.2334,
      "duration": 0.0464,
      "velocity": 112,
      "chip": "ym2612"
    },
    {
      "channel": 3,
      "note": 78,
      "start": 15.2342,
      "duration": 0.0457,
      "velocity": 97,
      "chip": "ym2612"
    },
    {
      "channel": 5,
      "note": 57,
      "start": 15.2379,
      "duration": 0.0914,
      "velocity": 115,
      "chip": "ym2612"
    },
    {
      "channel": 0,
      "note": 82,
      "start": 15.3327,
      "duration": 0.1795,
      "velocity": 104,
      "chip": "ym2612"
    },
    {
      "channel": 2,
      "note": 82,
      "start": 15.3339,
      "duration": 0.0461,
      "velocity": 112,
      "chip": "ym2612"
    },
    {
      "channel": 4,
      "note": 54,
      "start": 15.3349,
      "duration": 0.1783,
      "velocity": 97,
      "chip": "ym2612"
    },
    {
      "channel": 5,
      "note": 56,
      "start": 15.3383,
      "duration": 0.1071,
      "velocity": 117,
      "chip": "ym2612"
    },
    {
      "channel": 1,
      "note": 78,
      "start": 15.3799,
      "duration": 0.0828,
      "velocity": 104,
      "chip": "ym2612"
    },
    {
      "channel": 2,
      "note": 70,
      "start": 15.4495,
      "duration": 0.0476,
      "velocity": 112,
      "chip": "ym2612"
    },
    {
      "channel": 5,
      "note": 57,
      "start": 15.4533,
      "duration": 0.0923,
      "velocity": 115,
      "chip": "ym2612"
    },
    {
      "channel": 1,
      "note": 82,
      "start": 15.4969,
      "duration": 0.1825,
      "velocity": 104,
      "chip": "ym2612"
    },
    {
      "channel": 0,
      "note": 87,
      "start": 15.5488,
      "duration": 0.1802,
      "velocity": 104,
      "chip": "ym2612"
    },
    {
      "channel": 2,
      "note": 82,
      "start": 15.5501,
      "duration": 0.0464,
      "velocity": 112,
      "chip": "ym2612"
    },
    {
      "channel": 3,
      "note": 73,
      "start": 15.5509,
      "duration": 0.0457,
      "velocity": 97,
      "chip": "ym2612"
    },
    {
      "channel": 4,
      "note": 58,
      "start": 15.5516,
      "duration": 0.1788,
      "velocity": 97,
      "chip": "ym2612"
    },
    {
      "channel": 5,
      "note": 57,
      "start": 15.555,
      "duration": 0.0905,
      "velocity": 115,
      "chip": "ym2612"
    },
    {
      "channel": 2,
      "note": 82,
      "start": 15.6495,
      "duration": 0.0471,
      "velocity": 112,
      "chip": "ym2612"
    },
    {
      "channel": 3,
      "note": 85,
      "start": 15.6504,
      "duration": 0.0464,
      "velocity": 97,
      "chip": "ym2612"
    },
    {
      "channel": 5,
      "note": 57,
      "start": 15.6541,
      "duration": 0.1081,
      "velocity": 115,
      "chip": "ym2612"
    },
    {
      "channel": 1,
      "note": 87,
      "start": 15.7133,
      "duration": 0.1828,
      "velocity": 104,
      "chip": "ym2612"
    },
    {
      "channel": 0,
      "note": 90,
      "start": 15.7655,
      "duration": 0.1802,
      "velocity": 104,
      "chip": "ym2612"
    },
    {
      "channel": 3,
      "note": 97,
      "start": 15.7672,
      "duration": 0.0464,
      "velocity": 97,
      "chip": "ym2612"
    },
    {
      "channel": 4,
      "note": 66,
      "start": 15.768,
      "duration": 0.1792,
      "velocity": 97,
      "chip": "ym2612"
    },
    {
      "channel": 5,
      "note": 48,
      "start": 15.7713,
      "duration": 0.2074,
      "velocity": 127,
      "chip": "ym2612"
    },
    {
      "channel": 2,
      "note": 82,
      "start": 15.8639,
      "duration": 0.0495,
      "velocity": 112,
      "chip": "ym2612"
    },
    {
      "channel": 1,
      "note": 90,
      "start": 15.9132,
      "duration": 0.1828,
      "velocity": 104,
      "chip": "ym2612"
    },
    {
      "channel": 0,
      "note": 94,
      "start": 15.9821,
      "duration": 0.0802,
      "velocity": 104,
      "chip": "ym2612"
    },
    {
      "channel": 3,
      "note": 85,
      "start": 15.9838,
      "duration": 0.0465,
      "velocity": 97,
      "chip": "ym2612"
    },
    {
      "channel": 4,
      "note": 61,
      "start": 15.9846,
      "duration": 0.0791,
      "velocity": 97,
      "chip": "ym2612"
    },
    {
      "channel": 5,
      "note": 57,
      "start": 15.988,
      "duration": 0.0909,
      "velocity": 115,
      "chip": "ym2612"
    },
    {
      "channel": 0,
      "note": 95,
      "start": 16.0822,
      "duration": 0.4801,
      "velocity": 104,
      "chip": "ym2612"
    },
    {
      "channel": 2,
      "note": 87,
      "start": 16.0835,
      "duration": 0.0468,
      "velocity": 112,
      "chip": "ym2612"
    },
    {
      "channel": 3,
      "note": 97,
      "start": 16.0844,
      "duration": 0.0461,
      "velocity": 97,
      "chip": "ym2612"
    },
    {
      "channel": 4,
      "note": 59,
      "start": 16.0852,
      "duration": 0.1788,
      "velocity": 97,
      "chip": "ym2612"
    },
    {
      "channel": 5,
      "note": 57,
      "start": 16.0886,
      "duration": 0.0903,
      "velocity": 115,
      "chip": "ym2612"
    },
    {
      "channel": 1,
      "note": 94,
      "start": 16.1302,
      "duration": 0.0825,
      "velocity": 104,
      "chip": "ym2612"
    },
    {
      "channel": 2,
      "note": 75,
      "start": 16.183,
      "duration": 0.047,
      "velocity": 112,
      "chip": "ym2612"
    },
    {
      "channel": 3,
      "note": 87,
      "start": 16.1838,
      "duration": 0.0463,
      "velocity": 97,
      "chip": "ym2612"
    },
    {
      "channel": 5,
      "note": 56,
      "start": 16.1875,
      "duration": 0.1081,
      "velocity": 117,
      "chip": "ym2612"
    },
    {
      "channel": 1,
      "note": 95,
      "start": 16.2468,
      "duration": 0.4826,
      "velocity": 104,
      "chip": "ym2612"
    },
    {
      "channel": 3,
      "note": 87,
      "start": 16.3001,
      "duration": 0.0469,
      "velocity": 97,
      "chip": "ym2612"
    },
    {
      "channel": 4,
      "note": 59,
      "start": 16.3008,
      "duration": 0.18,
      "velocity": 97,
      "chip": "ym2612"
    },
    {
      "channel": 5,
      "note": 57,
      "start": 16.3042,
      "duration": 0.0913,
      "velocity": 115,
      "chip": "ym2612"
    },
    {
      "channel": 2,
      "note": 87,
      "start": 16.3997,
      "duration": 0.0467,
      "velocity": 112,
      "chip": "ym2612"
    },
    {
      "channel": 5,
      "note": 57,
      "start": 16.4038,
      "duration": 0.1083,
      "velocity": 115,
      "chip": "ym2612"
    },
    {
      "channel": 3,
      "note": 87,
      "start": 16.5167,
      "duration": 0.0466,
      "velocity": 97,
      "chip": "ym2612"
    },
    {
      "channel": 4,
      "note": 59,
      "start": 16.5175,
      "duration": 0.0799,
      "velocity": 97,
      "chip": "ym2612"
    },
    {
      "channel": 5,
      "note": 57,
      "start": 16.5209,
      "duration": 0.0913,
      "velocity": 115,
      "chip": "ym2612"
    },
    {
      "channel": 0,
      "note": 94,
      "start": 16.6155,
      "duration": 0.3632,
      "velocity": 104,
      "chip": "ym2612"
    },
    {
      "channel": 2,
      "note": 87,
      "start": 16.6169,
      "duration": 0.0462,
      "velocity": 112,
      "chip": "ym2612"
    },
    {
      "channel": 3,
      "note": 87,
      "start": 16.6178,
      "duration": 0.0456,
      "velocity": 97,
      "chip": "ym2612"
    },
    {
      "channel": 4,
      "note": 71,
      "start": 16.6186,
      "duration": 0.1788,
      "velocity": 97,
      "chip": "ym2612"
    },
    {
      "channel": 5,
      "note": 48,
      "start": 16.622,
      "duration": 0.2069,
      "velocity": 127,
      "chip": "ym2612"
    },
    {
      "channel": 2,
      "note": 75,
      "start": 16.7137,
      "duration": 0.0496,
      "velocity": 112,
      "chip": "ym2612"
    },
    {
      "channel": 1,
      "note": 94,
      "start": 16.7801,
      "duration": 0.3684,
      "velocity": 104,
      "chip": "ym2612"
    },
    {
      "channel": 3,
      "note": 87,
      "start": 16.8335,
      "duration": 0.0468,
      "velocity": 97,
      "chip": "ym2612"
    },
    {
      "channel": 4,
      "note": 70,
      "start": 16.8342,
      "duration": 0.1799,
      "velocity": 97,
      "chip": "ym2612"
    },
    {
      "channel": 5,
      "note": 57,
      "start": 16.8376,
      "duration": 0.0913,
      "velocity": 115,
      "chip": "ym2612"
    },
    {
      "channel": 2,
      "note": 87,
      "start": 16.933,
      "duration": 0.0464,
      "velocity": 112,
      "chip": "ym2612"
    },
    {
      "channel": 3,
      "note": 87,
      "start": 16.9339,
      "duration": 0.0457,
      "velocity": 97,
      "chip": "ym2612"
    },
    {
      "channel": 5,
      "note": 57,
      "start": 16.9376,
      "duration": 0.1083,
      "velocity": 115,
      "chip": "ym2612"
    },
    {
      "channel": 0,
      "note": 92,
      "start": 17.0491,
      "duration": 0.1798,
      "velocity": 104,
      "chip": "ym2612"
    },
    {
      "channel": 2,
      "note": 71,
      "start": 17.0504,
      "duration": 0.0461,
      "velocity": 112,
      "chip": "ym2612"
    },
    {
      "channel": 3,
      "note": 92,
      "start": 17.0512,
      "duration": 0.0454,
      "velocity": 97,
      "chip": "ym2612"
    },
    {
      "channel": 4,
      "note": 56,
      "start": 17.052,
      "duration": 0.1784,
      "velocity": 97,
      "chip": "ym2612"
    },
    {
      "channel": 5,
      "note": 56,
      "start": 17.0553,
      "duration": 0.0902,
      "velocity": 117,
      "chip": "ym2612"
    },
    {
      "channel": 2,
      "note": 80,
      "start": 17.1494,
      "duration": 0.0476,
      "velocity": 112,
      "chip": "ym2612"
    },
    {
      "channel": 3,
      "note": 80,
      "start": 17.1502,
      "duration": 0.0469,
      "velocity": 97,
      "chip": "ym2612"
    },
    {
      "channel": 5,
      "note": 57,
      "start": 17.1539,
      "duration": 0.0915,
      "velocity": 115,
      "chip": "ym2612"
    },
    {
      "channel": 1,
      "note": 92,
      "start": 17.1968,
      "duration": 0.1824,
      "velocity": 104,
      "chip": "ym2612"
    },
    {
      "channel": 0,
      "note": 90,
      "start": 17.2486,
      "duration": 0.1803,
      "velocity": 104,
      "chip": "ym2612"
    },
    {
      "channel": 2,
      "note": 87,
      "start": 17.25,
      "duration": 0.0467,
      "velocity": 112,
      "chip": "ym2612"
    },
    {
      "channel": 3,
      "note": 68,
      "start": 17.2508,
      "duration": 0.046,
      "velocity": 97,
      "chip": "ym2612"
    },
    {
      "channel": 4,
      "note": 56,
      "start": 17.2515,
      "duration": 0.179,
      "velocity": 97,
      "chip": "ym2612"
    },
    {
      "channel": 5,
      "note": 57,
      "start": 17.2549,
      "duration": 0.1074,
      "velocity": 115,
      "chip": "ym2612"
    },
    {
      "channel": 2,
      "note": 83,
      "start": 17.3664,
      "duration": 0.0472,
      "velocity": 112,
      "chip": "ym2612"
    },
    {
      "channel": 5,
      "note": 57,
      "start": 17.3706,
      "duration": 0.0917,
      "velocity": 115,
      "chip": "ym2612"
    },
    {
      "channel": 1,
      "note": 90,
      "start": 17.4135,
      "duration": 0.1826,
      "velocity": 104,
      "chip": "ym2612"
    },
    {
      "channel": 0,
      "note": 88,
      "start": 17.4655,
      "duration": 0.0801,
      "velocity": 104,
      "chip": "ym2612"
    },
    {
      "channel": 3,
      "note": 80,
      "start": 17.4673,
      "duration": 0.0462,
      "velocity": 97,
      "chip": "ym2612"
    },
    {
      "channel": 4,
      "note": 68,
      "start": 17.468,
      "duration": 0.1792,
      "velocity": 97,
      "chip": "ym2612"
    },
    {
      "channel": 5,
      "note": 48,
      "start": 17.4713,
      "duration": 0.2076,
      "velocity": 127,
      "chip": "ym2612"
    },
    {
      "channel": 0,
      "note": 87,
      "start": 17.5796,
      "duration": 0.1827,
      "velocity": 104,
      "chip": "ym2612"
    },
    {
      "channel": 2,
      "note": 87,
      "start": 17.5809,
      "duration": 0.0494,
      "velocity": 112,
      "chip": "ym2612"
    },
    {
      "channel": 3,
      "note": 92,
      "start": 17.5818,
      "duration": 0.0487,
      "velocity": 97,
      "chip": "ym2612"
    },
    {
      "channel": 1,
      "note": 88,
      "start": 17.6302,
      "duration": 0.0824,
      "velocity": 104,
      "chip": "ym2612"
    },
    {
      "channel": 3,
      "note": 90,
      "start": 17.6835,
      "duration": 0.0473,
      "velocity": 97,
      "chip": "ym2612"
    },
    {
      "channel": 4,
      "note": 59,
      "start": 17.6842,
      "duration": 0.0796,
      "velocity": 97,
      "chip": "ym2612"
    },
    {
      "channel": 5,
      "note": 57,
      "start": 17.6876,
      "duration": 0.0912,
      "velocity": 115,
      "chip": "ym2612"
    },
    {
      "channel": 1,
      "note": 87,
      "start": 17.7302,
      "duration": 0.1824,
      "velocity": 104,
      "chip": "ym2612"
    },
    {
      "channel": 0,
      "note": 83,
      "start": 17.7821,
      "duration": 0.2802,
      "velocity": 104,
      "chip": "ym2612"
    },
    {
      "channel": 2,
      "note": 78,
      "start": 17.7834,
      "duration": 0.0466,
      "velocity": 112,
      "chip": "ym2612"
    },
    {
      "channel": 4,
      "note": 54,
      "start": 17.7846,
      "duration": 0.1795,
      "velocity": 97,
      "chip": "ym2612"
    },
    {
      "channel": 5,
      "note": 57,
      "start": 17.7879,
      "duration": 0.1078,
      "velocity": 115,
      "chip": "ym2612"
    },
    {
      "channel": 3,
      "note": 90,
      "start": 17.9003,
      "duration": 0.0471,
      "velocity": 97,
      "chip": "ym2612"
    },
    {
      "channel": 5,
      "note": 56,
      "start": 17.904,
      "duration": 0.0916,
      "velocity": 117,
      "chip": "ym2612"
    },
    {
      "channel": 1,
      "note": 83,
      "start": 17.9469,
      "duration": 0.2825,
      "velocity": 104,
      "chip": "ym2612"
    },
    {
      "channel": 2,
      "note": 73,
      "start": 17.9996,
      "duration": 0.0467,
      "velocity": 112,
      "chip": "ym2612"
    },
    {
      "channel": 4,
      "note": 54,
      "start": 18.0008,
      "duration": 0.1798,
      "velocity": 97,
      "chip": "ym2612"
    },
    {
      "channel": 5,
      "note": 57,
      "start": 18.0041,
      "duration": 0.108,
      "velocity": 115,
      "chip": "ym2612"
    },
    {
      "channel": 0,
      "note": 90,
      "start": 18.1153,
      "duration": 0.2803,
      "velocity": 104,
      "chip": "ym2612"
    },
    {
      "channel": 2,
      "note": 78,
      "start": 18.1166,
      "duration": 0.0466,
      "velocity": 112,
      "chip": "ym2612"
    },
    {
      "channel": 3,
      "note": 90,
      "start": 18.1175,
      "duration": 0.0458,
      "velocity": 97,
      "chip": "ym2612"
    },
    {
      "channel": 5,
      "note": 57,
      "start": 18.1212,
      "duration": 0.091,
      "velocity": 115,
      "chip": "ym2612"
    },
    {
      "channel": 2,
      "note": 70,
      "start": 18.2164,
      "duration": 0.0472,
      "velocity": 112,
      "chip": "ym2612"
    },
    {
      "channel": 3,
      "note": 90,
      "start": 18.2172,
      "duration": 0.0466,
      "velocity": 97,
      "chip": "ym2612"
    },
    {
      "channel": 4,
      "note": 54,
      "start": 18.218,
      "duration": 0.0793,
      "velocity": 97,
      "chip": "ym2612"
    },
    {
      "channel": 5,
      "note": 57,
      "start": 18.2214,
      "duration": 0.0907,
      "velocity": 115,
      "chip": "ym2612"
    },
    {
      "channel": 1,
      "note": 90,
      "start": 18.2634,
      "duration": 0.2826,
      "velocity": 104,
      "chip": "ym2612"
    },
    {
      "channel": 2,
      "note": 73,
      "start": 18.3162,
      "duration": 0.0471,
      "velocity": 112,
      "chip": "ym2612"
    },
    {
      "channel": 4,
      "note": 66,
      "start": 18.3174,
      "duration": 0.18,
      "velocity": 97,
      "chip": "ym2612"
    },
    {
      "channel": 5,
      "note": 48,
      "start": 18.3208,
      "duration": 0.2081,
      "velocity": 127,
      "chip": "ym2612"
    },
    {
      "channel": 0,
      "note": 78,
      "start": 18.4297,
      "duration": 0.2824,
      "velocity": 104,
      "chip": "ym2612"
    },
    {
      "channel": 3,
      "note": 90,
      "start": 18.4315,
      "duration": 0.0488,
      "velocity": 97,
      "chip": "ym2612"
    },
    {
      "channel": 2,
      "note": 85,
      "start": 18.533,
      "duration": 0.047,
      "velocity": 112,
      "chip": "ym2612"
    },
    {
      "channel": 4,
      "note": 54,
      "start": 18.5342,
      "duration": 0.1795,
      "velocity": 97,
      "chip": "ym2612"
    },
    {
      "channel": 5,
      "note": 57,
      "start": 18.5376,
      "duration": 0.1079,
      "velocity": 115,
      "chip": "ym2612"
    },
    {
      "channel": 1,
      "note": 78,
      "start": 18.5799,
      "duration": 0.2828,
      "velocity": 104,
      "chip": "ym2612"
    },
    {
      "channel": 3,
      "note": 90,
      "start": 18.65,
      "duration": 0.047,
      "velocity": 97,
      "chip": "ym2612"
    },
    {
      "channel": 5,
      "note": 57,
      "start": 18.6537,
      "duration": 0.0923,
      "velocity": 115,
      "chip": "ym2612"
    },
    {
      "channel": 0,
      "note": 82,
      "start": 18.7494,
      "duration": 0.1796,
      "velocity": 104,
      "chip": "ym2612"
    },
    {
      "channel": 2,
      "note": 87,
      "start": 18.7507,
      "duration": 0.0458,
      "velocity": 112,
      "chip": "ym2612"
    },
    {
      "channel": 4,
      "note": 51,
      "start": 18.7517,
      "duration": 0.1783,
      "velocity": 97,
      "chip": "ym2612"
    },
    {
      "channel": 5,
      "note": 56,
      "start": 18.7551,
      "duration": 0.0903,
      "velocity": 117,
      "chip": "ym2612"
    },
    {
      "channel": 2,
      "note": 85,
      "start": 18.8496,
      "duration": 0.0471,
      "velocity": 112,
      "chip": "ym2612"
    },
    {
      "channel": 5,
      "note": 57,
      "start": 18.8533,
      "duration": 0.1089,
      "velocity": 115,
      "chip": "ym2612"
    },
    {
      "channel": 1,
      "note": 82,
      "start": 18.9135,
      "duration": 0.1826,
      "velocity": 104,
      "chip": "ym2612"
    },
    {
      "channel": 0,
      "note": 87,
      "start": 18.9655,
      "duration": 0.1802,
      "velocity": 104,
      "chip": "ym2612"
    },
    {
      "channel": 2,
      "note": 82,
      "start": 18.9668,
      "duration": 0.0464,
      "velocity": 112,
      "chip": "ym2612"
    },
    {
      "channel": 3,
      "note": 82,
      "start": 18.9676,
      "duration": 0.0457,
      "velocity": 97,
      "chip": "ym2612"
    },
    {
      "channel": 4,
      "note": 54,
      "start": 18.9683,
      "duration": 0.1788,
      "velocity": 97,
      "chip": "ym2612"
    },
    {
      "channel": 5,
      "note": 57,
      "start": 18.9717,
      "duration": 0.0906,
      "velocity": 115,
      "chip": "ym2612"
    },
    {
      "channel": 2,
      "note": 87,
      "start": 19.0664,
      "duration": 0.047,
      "velocity": 112,
      "chip": "ym2612"
    },
    {
      "channel": 3,
      "note": 82,
      "start": 19.0672,
      "duration": 0.0464,
      "velocity": 97,
      "chip": "ym2612"
    },
    {
      "channel": 5,
      "note": 57,
      "start": 19.0709,
      "duration": 0.1079,
      "velocity": 115,
      "chip": "ym2612"
    },
    {
      "channel": 1,
      "note": 87,
      "start": 19.1132,
      "duration": 0.1828,
      "velocity": 104,
      "chip": "ym2612"
    },
    {
      "channel": 0,
      "note": 90,
      "start": 19.182,
      "duration": 0.1803,
      "velocity": 104,
      "chip": "ym2612"
    },
    {
      "channel": 2,
      "note": 85,
      "start": 19.1833,
      "duration": 0.0466,
      "velocity": 112,
      "chip": "ym2612"
    },
    {
      "channel": 4,
      "note": 63,
      "start": 19.1843,
      "duration": 0.1791,
      "velocity": 97,
      "chip": "ym2612"
    },
    {
      "channel": 5,
      "note": 48,
      "start": 19.1877,
      "duration": 0.1911,
      "velocity": 127,
      "chip": "ym2612"
    },
    {
      "channel": 2,
      "note": 78,
      "start": 19.2806,
      "duration": 0.0496,
      "velocity": 112,
      "chip": "ym2612"
    },
    {
      "channel": 1,
      "note": 90,
      "start": 19.3301,
      "duration": 0.1824,
      "velocity": 104,
      "chip": "ym2612"
    },
    {
      "channel": 0,
      "note": 94,
      "start": 19.3821,
      "duration": 0.0802,
      "velocity": 104,
      "chip": "ym2612"
    },
    {
      "channel": 2,
      "note": 75,
      "start": 19.3834,
      "duration": 0.0466,
      "velocity": 112,
      "chip": "ym2612"
    },
    {
      "channel": 3,
      "note": 82,
      "start": 19.3842,
      "duration": 0.0459,
      "velocity": 97,
      "chip": "ym2612"
    },
    {
      "channel": 4,
      "note": 58,
      "start": 19.385,
      "duration": 0.0788,
      "velocity": 97,
      "chip": "ym2612"
    },
    {
      "channel": 5,
      "note": 57,
      "start": 19.3884,
      "duration": 0.1072,
      "velocity": 115,
      "chip": "ym2612"
    },
    {
      "channel": 0,
      "note": 92,
      "start": 19.4989,
      "duration": 0.7634,
      "velocity": 104,
      "chip": "ym2612"
    },
    {
      "channel": 2,
      "note": 78,
      "start": 19.5002,
      "duration": 0.0468,
      "velocity": 112,
      "chip": "ym2612"
    },
    {
      "channel": 3,
      "note": 82,
      "start": 19.501,
      "duration": 0.0461,
      "velocity": 97,
      "chip": "ym2612"
    },
    {
      "channel": 4,
      "note": 56,
      "start": 19.5018,
      "duration": 0.1786,
      "velocity": 97,
      "chip": "ym2612"
    },
    {
      "channel": 5,
      "note": 57,
      "start": 19.5052,
      "duration": 0.0904,
      "velocity": 115,
      "chip": "ym2612"
    },
    {
      "channel": 1,
      "note": 94,
      "start": 19.5469,
      "duration": 0.0825,
      "velocity": 104,
      "chip": "ym2612"
    },
    {
      "channel": 2,
      "note": 87,
      "start": 19.5997,
      "duration": 0.0471,
      "velocity": 112,
      "chip": "ym2612"
    },
    {
      "channel": 5,
      "note": 56,
      "start": 19.6037,
      "duration": 0.2085,
      "velocity": 117,
      "chip": "ym2612"
    },
    {
      "channel": 1,
      "note": 92,
      "start": 19.6467,
      "duration": 0.7661,
      "velocity": 104,
      "chip": "ym2612"
    },
    {
      "channel": 2,
      "note": 92,
      "start": 19.7137,
      "duration": 0.0495,
      "velocity": 112,
      "chip": "ym2612"
    },
    {
      "channel": 4,
      "note": 56,
      "start": 19.7145,
      "duration": 0.1829,
      "velocity": 97,
      "chip": "ym2612"
    },
    {
      "channel": 2,
      "note": 90,
      "start": 19.8164,
      "duration": 0.0468,
      "velocity": 112,
      "chip": "ym2612"
    },
    {
      "channel": 3,
      "note": 83,
      "start": 19.8173,
      "duration": 0.0461,
      "velocity": 97,
      "chip": "ym2612"
    },
    {
      "channel": 5,
      "note": 48,
      "start": 19.821,
      "duration": 0.0912,
      "velocity": 127,
      "chip": "ym2612"
    },
    {
      "channel": 2,
      "note": 87,
      "start": 19.9162,
      "duration": 0.0471,
      "velocity": 112,
      "chip": "ym2612"
    },
    {
      "channel": 3,
      "note": 83,
      "start": 19.9171,
      "duration": 0.0464,
      "velocity": 97,
      "chip": "ym2612"
    },
    {
      "channel": 4,
      "note": 56,
      "start": 19.9178,
      "duration": 0.0796,
      "velocity": 97,
      "chip": "ym2612"
    },
    {
      "channel": 5,
      "note": 48,
      "start": 19.9212,
      "duration": 0.1077,
      "velocity": 127,
      "chip": "ym2612"
    },
    {
      "channel": 2,
      "note": 83,
      "start": 20.033,
      "duration": 0.0469,
      "velocity": 112,
      "chip": "ym2612"
    },
    {
      "channel": 4,
      "note": 68,
      "start": 20.0342,
      "duration": 0.1799,
      "velocity": 97,
      "chip": "ym2612"
    },
    {
      "channel": 5,
      "note": 56,
      "start": 20.0376,
      "duration": 0.0913,
      "velocity": 117,
      "chip": "ym2612"
    },
    {
      "channel": 3,
      "note": 83,
      "start": 20.1335,
      "duration": 0.0466,
      "velocity": 97,
      "chip": "ym2612"
    },
    {
      "channel": 5,
      "note": 48,
      "start": 20.1372,
      "duration": 0.1083,
      "velocity": 127,
      "chip": "ym2612"
    },
    {
      "channel": 2,
      "note": 80,
      "start": 20.2495,
      "duration": 0.047,
      "velocity": 112,
      "chip": "ym2612"
    },
    {
      "channel": 3,
      "note": 83,
      "start": 20.2503,
      "duration": 0.0463,
      "velocity": 97,
      "chip": "ym2612"
    },
    {
      "channel": 4,
      "note": 56,
      "start": 20.2511,
      "duration": 0.1797,
      "velocity": 97,
      "chip": "ym2612"
    },
    {
      "channel": 5,
      "note": 48,
      "start": 20.2545,
      "duration": 0.1912,
      "velocity": 127,
      "chip": "ym2612"
    },
    {
      "channel": 3,
      "note": 83,
      "start": 20.3477,
      "duration": 0.0492,
      "velocity": 97,
      "chip": "ym2612"
    },
    {
      "channel": 0,
      "note": 87,
      "start": 20.4491,
      "duration": 0.1799,
      "velocity": 104,
      "chip": "ym2612"
    },
    {
      "channel": 2,
      "note": 71,
      "start": 20.4506,
      "duration": 0.0461,
      "velocity": 112,
      "chip": "ym2612"
    },
    {
      "channel": 3,
      "note": 87,
      "start": 20.4517,
      "duration": 0.0451,
      "velocity": 97,
      "chip": "ym2612"
    },
    {
      "channel": 4,
      "note": 56,
      "start": 20.4527,
      "duration": 0.1777,
      "velocity": 97,
      "chip": "ym2612"
    },
    {
      "channel": 5,
      "note": 56,
      "start": 20.4561,
      "duration": 0.1062,
      "velocity": 117,
      "chip": "ym2612"
    },
    {
      "channel": 2,
      "note": 71,
      "start": 20.5664,
      "duration": 0.0474,
      "velocity": 112,
      "chip": "ym2612"
    },
    {
      "channel": 3,
      "note": 75,
      "start": 20.5673,
      "duration": 0.0467,
      "velocity": 97,
      "chip": "ym2612"
    },
    {
      "channel": 5,
      "note": 57,
      "start": 20.5709,
      "duration": 0.0913,
      "velocity": 115,
      "chip": "ym2612"
    },
    {
      "channel": 1,
      "note": 87,
      "start": 20.6137,
      "duration": 0.1824,
      "velocity": 104,
      "chip": "ym2612"
    },
    {
      "channel": 3,
      "note": 75,
      "start": 20.6668,
      "duration": 0.0467,
      "velocity": 97,
      "chip": "ym2612"
    },
    {
      "channel": 4,
      "note": 56,
      "start": 20.6674,
      "duration": 0.1797,
      "velocity": 97,
      "chip": "ym2612"
    },
    {
      "channel": 5,
      "note": 57,
      "start": 20.6708,
      "duration": 0.108,
      "velocity": 115,
      "chip": "ym2612"
    },
    {
      "channel": 2,
      "note": 83,
      "start": 20.7829,
      "duration": 0.047,
      "velocity": 112,
      "chip": "ym2612"
    },
    {
      "channel": 3,
      "note": 87,
      "start": 20.7837,
      "duration": 0.0463,
      "velocity": 97,
      "chip": "ym2612"
    },
    {
      "channel": 5,
      "note": 57,
      "start": 20.7874,
      "duration": 0.0915,
      "velocity": 115,
      "chip": "ym2612"
    },
    {
      "channel": 0,
      "note": 92,
      "start": 20.8822,
      "duration": 0.2801,
      "velocity": 104,
      "chip": "ym2612"
    },
    {
      "channel": 3,
      "note": 75,
      "start": 20.8839,
      "duration": 0.0464,
      "velocity": 97,
      "chip": "ym2612"
    },
    {
      "channel": 4,
      "note": 68,
      "start": 20.8846,
      "duration": 0.1795,
      "velocity": 97,
      "chip": "ym2612"
    },
    {
      "channel": 5,
      "note": 48,
      "start": 20.888,
      "duration": 0.2076,
      "velocity": 127,
      "chip": "ym2612"
    },
    {
      "channel": 2,
      "note": 80,
      "start": 20.9804,
      "duration": 0.0496,
      "velocity": 112,
      "chip": "ym2612"
    },
    {
      "channel": 1,
      "note": 92,
      "start": 21.0468,
      "duration": 0.2826,
      "velocity": 104,
      "chip": "ym2612"
    },
    {
      "channel": 3,
      "note": 80,
      "start": 21.1002,
      "duration": 0.1801,
      "velocity": 97,
      "chip": "ym2612"
    },
    {
      "channel": 4,
      "note": 59,
      "start": 21.101,
      "duration": 0.0796,
      "velocity": 97,
      "chip": "ym2612"
    },
    {
      "channel": 5,
      "note": 57,
      "start": 21.1043,
      "duration": 0.0912,
      "velocity": 115,
      "chip": "ym2612"
    },
    {
      "channel": 0,
      "note": 90,
      "start": 21.1988,
      "duration": 0.2802,
      "velocity": 104,
      "chip": "ym2612"
    },
    {
      "channel": 2,
      "note": 75,
      "start": 21.2001,
      "duration": 0.0462,
      "velocity": 112,
      "chip": "ym2612"
    },
    {
      "channel": 4,
      "note": 51,
      "start": 21.2013,
      "duration": 0.1793,
      "velocity": 97,
      "chip": "ym2612"
    },
    {
      "channel": 5,
      "note": 57,
      "start": 21.2047,
      "duration": 0.1075,
      "velocity": 115,
      "chip": "ym2612"
    },
    {
      "channel": 2,
      "note": 83,
      "start": 21.3163,
      "duration": 0.0473,
      "velocity": 112,
      "chip": "ym2612"
    },
    {
      "channel": 3,
      "note": 78,
      "start": 21.3173,
      "duration": 0.0465,
      "velocity": 97,
      "chip": "ym2612"
    },
    {
      "channel": 5,
      "note": 56,
      "start": 21.3209,
      "duration": 0.0913,
      "velocity": 117,
      "chip": "ym2612"
    },
    {
      "channel": 1,
      "note": 90,
      "start": 21.3635,
      "duration": 0.2824,
      "velocity": 104,
      "chip": "ym2612"
    },
    {
      "channel": 3,
      "note": 66,
      "start": 21.4168,
      "duration": 0.0469,
      "velocity": 97,
      "chip": "ym2612"
    },
    {
      "channel": 4,
      "note": 51,
      "start": 21.4174,
      "duration": 0.18,
      "velocity": 97,
      "chip": "ym2612"
    },
    {
      "channel": 5,
      "note": 57,
      "start": 21.4208,
      "duration": 0.0913,
      "velocity": 115,
      "chip": "ym2612"
    },
    {
      "channel": 0,
      "note": 87,
      "start": 21.5154,
      "duration": 0.1802,
      "velocity": 104,
      "chip": "ym2612"
    },
    {
      "channel": 2,
      "note": 71,
      "start": 21.5167,
      "duration": 0.0466,
      "velocity": 112,
      "chip": "ym2612"
    },
    {
      "channel": 5,
      "note": 57,
      "start": 21.5208,
      "duration": 0.1081,
      "velocity": 115,
      "chip": "ym2612"
    },
    {
      "channel": 2,
      "note": 83,
      "start": 21.633,
      "duration": 0.0474,
      "velocity": 112,
      "chip": "ym2612"
    },
    {
      "channel": 3,
      "note": 78,
      "start": 21.6339,
      "duration": 0.0467,
      "velocity": 97,
      "chip": "ym2612"
    },
    {
      "channel": 4,
      "note": 51,
      "start": 21.6346,
      "duration": 0.0792,
      "velocity": 97,
      "chip": "ym2612"
    },
    {
      "channel": 5,
      "note": 57,
      "start": 21.638,
      "duration": 0.0909,
      "velocity": 115,
      "chip": "ym2612"
    },
    {
      "channel": 1,
      "note": 87,
      "start": 21.6802,
      "duration": 0.1825,
      "velocity": 104,
      "chip": "ym2612"
    },
    {
      "channel": 0,
      "note": 83,
      "start": 21.7322,
      "duration": 0.0801,
      "velocity": 104,
      "chip": "ym2612"
    },
    {
      "channel": 2,
      "note": 83,
      "start": 21.7335,
      "duration": 0.0462,
      "velocity": 112,
      "chip": "ym2612"
    },
    {
      "channel": 3,
      "note": 78,
      "start": 21.7344,
      "duration": 0.0454,
      "velocity": 97,
      "chip": "ym2612"
    },
    {
      "channel": 4,
      "note": 63,
      "start": 21.7351,
      "duration": 0.1788,
      "velocity": 97,
      "chip": "ym2612"
    },
    {
      "channel": 5,
      "note": 48,
      "start": 21.7386,
      "duration": 0.207,
      "velocity": 127,
      "chip": "ym2612"
    },
    {
      "channel": 0,
      "note": 90,
      "start": 21.8461,
      "duration": 0.0828,
      "velocity": 104,
      "chip": "ym2612"
    },
    {
      "channel": 1,
      "note": 83,
      "start": 21.8968,
      "duration": 0.0824,
      "velocity": 104,
      "chip": "ym2612"
    },
    {
      "channel": 2,
      "note": 71,
      "start": 21.9496,
      "duration": 0.0473,
      "velocity": 112,
      "chip": "ym2612"
    },
    {
      "channel": 3,
      "note": 90,
      "start": 21.9505,
      "duration": 0.0466,
      "velocity": 97,
      "chip": "ym2612"
    },
    {
      "channel": 4,
      "note": 58,
      "start": 21.9512,
      "duration": 0.1792,
      "velocity": 97,
      "chip": "ym2612"
    },
    {
      "channel": 5,
      "note": 57,
      "start": 21.9546,
      "duration": 0.0908,
      "velocity": 115,
      "chip": "ym2612"
    },
    {
      "channel": 1,
      "note": 90,
      "start": 21.9968,
      "duration": 0.0826,
      "velocity": 104,
      "chip": "ym2612"
    },
    {
      "channel": 0,
      "note": 78,
      "start": 22.0486,
      "duration": 0.0803,
      "velocity": 104,
      "chip": "ym2612"
    },
    {
      "channel": 2,
      "note": 83,
      "start": 22.05,
      "duration": 0.0467,
      "velocity": 112,
      "chip": "ym2612"
    },
    {
      "channel": 3,
      "note": 78,
      "start": 22.0508,
      "duration": 0.046,
      "velocity": 97,
      "chip": "ym2612"
    },
    {
      "channel": 5,
      "note": 57,
      "start": 22.0545,
      "duration": 0.1081,
      "velocity": 115,
      "chip": "ym2612"
    },
    {
      "channel": 0,
      "note": 82,
      "start": 22.1659,
      "duration": 0.1798,
      "velocity": 104,
      "chip": "ym2612"
    },
    {
      "channel": 2,
      "note": 82,
      "start": 22.1671,
      "duration": 0.0464,
      "velocity": 112,
      "chip": "ym2612"
    },
    {
      "channel": 4,
      "note": 54,
      "start": 22.1681,
      "duration": 0.1786,
      "velocity": 97,
      "chip": "ym2612"
    },
    {
      "channel": 5,
      "note": 56,
      "start": 22.1715,
      "duration": 0.0907,
      "velocity": 117,
      "chip": "ym2612"
    },
    {
      "channel": 1,
      "note": 78,
      "start": 22.2134,
      "duration": 0.0826,
      "velocity": 104,
      "chip": "ym2612"
    },
    {
      "channel": 2,
      "note": 70,
      "start": 22.2663,
      "duration": 0.0472,
      "velocity": 112,
      "chip": "ym2612"
    },
    {
      "channel": 5,
      "note": 57,
      "start": 22.2701,
      "duration": 0.1087,
      "velocity": 115,
      "chip": "ym2612"
    },
    {
      "channel": 1,
      "note": 82,
      "start": 22.3134,
      "duration": 0.1827,
      "velocity": 104,
      "chip": "ym2612"
    },
    {
      "channel": 0,
      "note": 87,
      "start": 22.382,
      "duration": 0.1803,
      "velocity": 104,
      "chip": "ym2612"
    },
    {
      "channel": 2,
      "note": 82,
      "start": 22.3833,
      "duration": 0.0466,
      "velocity": 112,
      "chip": "ym2612"
    },
    {
      "channel": 3,
      "note": 73,
      "start": 22.3841,
      "duration": 0.0459,
      "velocity": 97,
      "chip": "ym2612"
    },
    {
      "channel": 4,
      "note": 58,
      "start": 22.3848,
      "duration": 0.179,
      "velocity": 97,
      "chip": "ym2612"
    },
    {
      "channel": 5,
      "note": 57,
      "start": 22.3882,
      "duration": 0.0907,
      "velocity": 115,
      "chip": "ym2612"
    },
    {
      "channel": 2,
      "note": 82,
      "start": 22.4831,
      "duration": 0.0471,
      "velocity": 112,
      "chip": "ym2612"
    },
    {
      "channel": 3,
      "note": 85,
      "start": 22.4839,
      "duration": 0.0465,
      "velocity": 97,
      "chip": "ym2612"
    },
    {
      "channel": 5,
      "note": 57,
      "start": 22.4876,
      "duration": 0.0912,
      "velocity": 115,
      "chip": "ym2612"
    },
    {
      "channel": 1,
      "note": 87,
      "start": 22.5301,
      "duration": 0.1824,
      "velocity": 104,
      "chip": "ym2612"
    },
    {
      "channel": 0,
      "note": 90,
      "start": 22.582,
      "duration": 0.1803,
      "velocity": 104,
      "chip": "ym2612"
    },
    {
      "channel": 3,
      "note": 97,
      "start": 22.5837,
      "duration": 0.0467,
      "velocity": 97,
      "chip": "ym2612"
    },
    {
      "channel": 4,
      "note": 66,
      "start": 22.5844,
      "duration": 0.1794,
      "velocity": 97,
      "chip": "ym2612"
    },
    {
      "channel": 5,
      "note": 48,
      "start": 22.5878,
      "duration": 0.2078,
      "velocity": 127,
      "chip": "ym2612"
    },
    {
      "channel": 2,
      "note": 82,
      "start": 22.6973,
      "duration": 0.0497,
      "velocity": 112,
      "chip": "ym2612"
    },
    {
      "channel": 1,
      "note": 90,
      "start": 22.7468,
      "duration": 0.1826,
      "velocity": 104,
      "chip": "ym2612"
    },
    {
      "channel": 0,
      "note": 94,
      "start": 22.7989,
      "duration": 0.0801,
      "velocity": 104,
      "chip": "ym2612"
    },
    {
      "channel": 3,
      "note": 85,
      "start": 22.8007,
      "duration": 0.0461,
      "velocity": 97,
      "chip": "ym2612"
    },
    {
      "channel": 4,
      "note": 61,
      "start": 22.8014,
      "duration": 0.0791,
      "velocity": 97,
      "chip": "ym2612"
    },
    {
      "channel": 5,
      "note": 57,
      "start": 22.8048,
      "duration": 0.1073,
      "velocity": 115,
      "chip": "ym2612"
    },
    {
      "channel": 0,
      "note": 95,
      "start": 22.9154,
      "duration": 0.4802,
      "velocity": 104,
      "chip": "ym2612"
    },
    {
      "channel": 2,
      "note": 87,
      "start": 22.9168,
      "duration": 0.0469,
      "velocity": 112,
      "chip": "ym2612"
    },
    {
      "channel": 3,
      "note": 97,
      "start": 22.9176,
      "duration": 0.0462,
      "velocity": 97,
      "chip": "ym2612"
    },
    {
      "channel": 4,
      "note": 59,
      "start": 22.9184,
      "duration": 0.179,
      "velocity": 97,
      "chip": "ym2612"
    },
    {
      "channel": 5,
      "note": 57,
      "start": 22.9218,
      "duration": 0.0906,
      "velocity": 115,
      "chip": "ym2612"
    },
    {
      "channel": 1,
      "note": 94,
      "start": 22.9636,
      "duration": 0.0823,
      "velocity": 104,
      "chip": "ym2612"
    },
    {
      "channel": 2,
      "note": 75,
      "start": 23.0165,
      "duration": 0.0472,
      "velocity": 112,
      "chip": "ym2612"
    },
    {
      "channel": 3,
      "note": 87,
      "start": 23.0173,
      "duration": 0.0465,
      "velocity": 97,
      "chip": "ym2612"
    },
    {
      "channel": 5,
      "note": 56,
      "start": 23.021,
      "duration": 0.0911,
      "velocity": 117,
      "chip": "ym2612"
    },
    {
      "channel": 1,
      "note": 95,
      "start": 23.0636,
      "duration": 0.4825,
      "velocity": 104,
      "chip": "ym2612"
    },
    {
      "channel": 3,
      "note": 87,
      "start": 23.1166,
      "duration": 0.0471,
      "velocity": 97,
      "chip": "ym2612"
    },
    {
      "channel": 4,
      "note": 59,
      "start": 23.1173,
      "duration": 0.1802,
      "velocity": 97,
      "chip": "ym2612"
    },
    {
      "channel": 5,
      "note": 57,
      "start": 23.1207,
      "duration": 0.1082,
      "velocity": 115,
      "chip": "ym2612"
    },
    {
      "channel": 2,
      "note": 87,
      "start": 23.2331,
      "duration": 0.0468,
      "velocity": 112,
      "chip": "ym2612"
    },
    {
      "channel": 5,
      "note": 57,
      "start": 23.2372,
      "duration": 0.0917,
      "velocity": 115,
      "chip": "ym2612"
    },
    {
      "channel": 3,
      "note": 87,
      "start": 23.3335,
      "duration": 0.0466,
      "velocity": 97,
      "chip": "ym2612"
    },
    {
      "channel": 4,
      "note": 59,
      "start": 23.3342,
      "duration": 0.0798,
      "velocity": 97,
      "chip": "ym2612"
    },
    {
      "channel": 5,
      "note": 57,
      "start": 23.3376,
      "duration": 0.1078,
      "velocity": 115,
      "chip": "ym2612"
    },
    {
      "channel": 0,
      "note": 94,
      "start": 23.4488,
      "duration": 0.3635,
      "velocity": 104,
      "chip": "ym2612"
    },
    {
      "channel": 2,
      "note": 87,
      "start": 23.45,
      "duration": 0.0466,
      "velocity": 112,
      "chip": "ym2612"
    },
    {
      "channel": 3,
      "note": 87,
      "start": 23.4509,
      "duration": 0.0458,
      "velocity": 97,
      "chip": "ym2612"
    },
    {
      "channel": 4,
      "note": 71,
      "start": 23.4517,
      "duration": 0.179,
      "velocity": 97,
      "chip": "ym2612"
    },
    {
      "channel": 5,
      "note": 48,
      "start": 23.4551,
      "duration": 0.1903,
      "velocity": 127,
      "chip": "ym2612"
    },
    {
      "channel": 2,
      "note": 75,
      "start": 23.547,
      "duration": 0.0501,
      "velocity": 112,
      "chip": "ym2612"
    },
    {
      "channel": 1,
      "note": 94,
      "start": 23.5969,
      "duration": 0.366,
      "velocity": 104,
      "chip": "ym2612"
    },
    {
      "channel": 3,
      "note": 87,
      "start": 23.65,
      "duration": 0.0471,
      "velocity": 97,
      "chip": "ym2612"
    },
    {
      "channel": 4,
      "note": 70,
      "start": 23.6507,
      "duration": 0.1801,
      "velocity": 97,
      "chip": "ym2612"
    },
    {
      "channel": 5,
      "note": 57,
      "start": 23.6541,
      "duration": 0.1081,
      "velocity": 115,
      "chip": "ym2612"
    },
    {
      "channel": 2,
      "note": 87,
      "start": 23.7664,
      "duration": 0.0464,
      "velocity": 112,
      "chip": "ym2612"
    },
    {
      "channel": 3,
      "note": 87,
      "start": 23.7673,
      "duration": 0.0458,
      "velocity": 97,
      "chip": "ym2612"
    },
    {
      "channel": 5,
      "note": 57,
      "start": 23.771,
      "duration": 0.0915,
      "velocity": 115,
      "chip": "ym2612"
    },
    {
      "channel": 0,
      "note": 92,
      "start": 23.8657,
      "duration": 0.1797,
      "velocity": 104,
      "chip": "ym2612"
    },
    {
      "channel": 2,
      "note": 71,
      "start": 23.867,
      "duration": 0.046,
      "velocity": 112,
      "chip": "ym2612"
    },
    {
      "channel": 3,
      "note": 92,
      "start": 23.8678,
      "duration": 0.0453,
      "velocity": 97,
      "chip": "ym2612"
    },
    {
      "channel": 4,
      "note": 56,
      "start": 23.8686,
      "duration": 0.1783,
      "velocity": 97,
      "chip": "ym2612"
    },
    {
      "channel": 5,
      "note": 56,
      "start": 23.8719,
      "duration": 0.1069,
      "velocity": 117,
      "chip": "ym2612"
    },
    {
      "channel": 2,
      "note": 80,
      "start": 23.9829,
      "duration": 0.0475,
      "velocity": 112,
      "chip": "ym2612"
    },
    {
      "channel": 3,
      "note": 80,
      "start": 23.9837,
      "duration": 0.0468,
      "velocity": 97,
      "chip": "ym2612"
    },
    {
      "channel": 5,
      "note": 57,
      "start": 23.9874,
      "duration": 0.0915,
      "velocity": 115,
      "chip": "ym2612"
    },
    {
      "channel": 1,
      "note": 92,
      "start": 24.0302,
      "duration": 0.1825,
      "velocity": 104,
      "chip": "ym2612"
    },
    {
      "channel": 0,
      "note": 90,
      "start": 24.0821,
      "duration": 0.1802,
      "velocity": 104,
      "chip": "ym2612"
    },
    {
      "channel": 2,
      "note": 87,
      "start": 24.0834,
      "duration": 0.0464,
      "velocity": 112,
      "chip": "ym2612"
    },
    {
      "channel": 3,
      "note": 68,
      "start": 24.0842,
      "duration": 0.0457,
      "velocity": 97,
      "chip": "ym2612"
    },
    {
      "channel": 4,
      "note": 56,
      "start": 24.0849,
      "duration": 0.1789,
      "velocity": 97,
      "chip": "ym2612"
    },
    {
      "channel": 5,
      "note": 57,
      "start": 24.0883,
      "duration": 0.0905,
      "velocity": 115,
      "chip": "ym2612"
    },
    {
      "channel": 2,
      "note": 83,
      "start": 24.1828,
      "duration": 0.0471,
      "velocity": 112,
      "chip": "ym2612"
    },
    {
      "channel": 5,
      "note": 57,
      "start": 24.187,
      "duration": 0.1086,
      "velocity": 115,
      "chip": "ym2612"
    },
    {
      "channel": 1,
      "note": 90,
      "start": 24.2466,
      "duration": 0.1828,
      "velocity": 104,
      "chip": "ym2612"
    },
    {
      "channel": 0,
      "note": 88,
      "start": 24.2989,
      "duration": 0.0799,
      "velocity": 104,
      "chip": "ym2612"
    },
    {
      "channel": 3,
      "note": 80,
      "start": 24.3006,
      "duration": 0.0464,
      "velocity": 97,
      "chip": "ym2612"
    },
    {
      "channel": 4,
      "note": 68,
      "start": 24.3013,
      "duration": 0.1794,
      "velocity": 97,
      "chip": "ym2612"
    },
    {
      "channel": 5,
      "note": 48,
      "start": 24.3047,
      "duration": 0.2074,
      "velocity": 127,
      "chip": "ym2612"
    },
    {
      "channel": 0,
      "note": 87,
      "start": 24.3965,
      "duration": 0.1823,
      "velocity": 104,
      "chip": "ym2612"
    },
    {
      "channel": 2,
      "note": 87,
      "start": 24.3977,
      "duration": 0.0491,
      "velocity": 112,
      "chip": "ym2612"
    },
    {
      "channel": 3,
      "note": 92,
      "start": 24.3985,
      "duration": 0.0484,
      "velocity": 97,
      "chip": "ym2612"
    },
    {
      "channel": 1,
      "note": 88,
      "start": 24.4467,
      "duration": 0.0827,
      "velocity": 104,
      "chip": "ym2612"
    },
    {
      "channel": 3,
      "note": 90,
      "start": 24.5167,
      "duration": 0.0475,
      "velocity": 97,
      "chip": "ym2612"
    },
    {
      "channel": 4,
      "note": 59,
      "start": 24.5174,
      "duration": 0.08,
      "velocity": 97,
      "chip": "ym2612"
    },
    {
      "channel": 5,
      "note": 57,
      "start": 24.5208,
      "duration": 0.0914,
      "velocity": 115,
      "chip": "ym2612"
    },
    {
      "channel": 1,
      "note": 87,
      "start": 24.5636,
      "duration": 0.1825,
      "velocity": 104,
      "chip": "ym2612"
    },
    {
      "channel": 0,
      "note": 83,
      "start": 24.6155,
      "duration": 0.2801,
      "velocity": 104,
      "chip": "ym2612"
    },
    {
      "channel": 2,
      "note": 78,
      "start": 24.6168,
      "duration": 0.0464,
      "velocity": 112,
      "chip": "ym2612"
    },
    {
      "channel": 4,
      "note": 54,
      "start": 24.618,
      "duration": 0.1794,
      "velocity": 97,
      "chip": "ym2612"
    },
    {
      "channel": 5,
      "note": 57,
      "start": 24.6214,
      "duration": 0.0907,
      "velocity": 115,
      "chip": "ym2612"
    },
    {
      "channel": 3,
      "note": 90,
      "start": 24.7166,
      "duration": 0.0471,
      "velocity": 97,
      "chip": "ym2612"
    },
    {
      "channel": 5,
      "note": 56,
      "start": 24.7203,
      "duration": 0.1086,
      "velocity": 117,
      "chip": "ym2612"
    },
    {
      "channel": 1,
      "note": 83,
      "start": 24.7801,
      "duration": 0.2826,
      "velocity": 104,
      "chip": "ym2612"
    },
    {
      "channel": 2,
      "note": 73,
      "start": 24.833,
      "duration": 0.0469,
      "velocity": 112,
      "chip": "ym2612"
    },
    {
      "channel": 4,
      "note": 54,
      "start": 24.8342,
      "duration": 0.1799,
      "velocity": 97,
      "chip": "ym2612"
    },
    {
      "channel": 5,
      "note": 57,
      "start": 24.8375,
      "duration": 0.0914,
      "velocity": 115,
      "chip": "ym2612"
    },
    {
      "channel": 0,
      "note": 90,
      "start": 24.9321,
      "duration": 0.2802,
      "velocity": 104,
      "chip": "ym2612"
    },
    {
      "channel": 2,
      "note": 78,
      "start": 24.9334,
      "duration": 0.0462,
      "velocity": 112,
      "chip": "ym2612"
    },
    {
      "channel": 3,
      "note": 90,
      "start": 24.9342,
      "duration": 0.0456,
      "velocity": 97,
      "chip": "ym2612"
    },
    {
      "channel": 5,
      "note": 57,
      "start": 24.9379,
      "duration": 0.1075,
      "velocity": 115,
      "chip": "ym2612"
    },
    {
      "channel": 2,
      "note": 70,
      "start": 25.0495,
      "duration": 0.0475,
      "velocity": 112,
      "chip": "ym2612"
    },
    {
      "channel": 3,
      "note": 90,
      "start": 25.0504,
      "duration": 0.0467,
      "velocity": 97,
      "chip": "ym2612"
    },
    {
      "channel": 4,
      "note": 54,
      "start": 25.0512,
      "duration": 0.0795,
      "velocity": 97,
      "chip": "ym2612"
    },
    {
      "channel": 5,
      "note": 57,
      "start": 25.0545,
      "duration": 0.091,
      "velocity": 115,
      "chip": "ym2612"
    },
    {
      "channel": 1,
      "note": 90,
      "start": 25.0968,
      "duration": 0.2824,
      "velocity": 104,
      "chip": "ym2612"
    },
    {
      "channel": 2,
      "note": 73,
      "start": 25.1496,
      "duration": 0.0469,
      "velocity": 112,
      "chip": "ym2612"
    },
    {
      "channel": 4,
      "note": 66,
      "start": 25.1509,
      "duration": 0.1799,
      "velocity": 97,
      "chip": "ym2612"
    },
    {
      "channel": 5,
      "note": 48,
      "start": 25.1543,
      "duration": 0.0912,
      "velocity": 127,
      "chip": "ym2612"
    },
    {
      "channel": 0,
      "note": 78,
      "start": 25.2486,
      "duration": 0.2803,
      "velocity": 104,
      "chip": "ym2612"
    },
    {
      "channel": 3,
      "note": 90,
      "start": 25.2503,
      "duration": 0.0468,
      "velocity": 97,
      "chip": "ym2612"
    },
    {
      "channel": 5,
      "note": 44,
      "start": 25.254,
      "duration": 0.3248,
      "velocity": 122,
      "chip": "ym2612"
    },
    {
      "channel": 2,
      "note": 85,
      "start": 25.3639,
      "duration": 0.0498,
      "velocity": 112,
      "chip": "ym2612"
    },
    {
      "channel": 4,
      "note": 54,
      "start": 25.365,
      "duration": 0.1824,
      "velocity": 97,
      "chip": "ym2612"
    },
    {
      "channel": 1,
      "note": 78,
      "start": 25.4135,
      "duration": 0.2826,
      "velocity": 104,
      "chip": "ym2612"
    },
    {
      "channel": 3,
      "note": 90,
      "start": 25.4643,
      "duration": 0.0491,
      "velocity": 97,
      "chip": "ym2612"
    },
    {
      "channel": 0,
      "note": 82,
      "start": 25.5821,
      "duration": 0.1802,
      "velocity": 104,
      "chip": "ym2612"
    },
    {
      "channel": 2,
      "note": 87,
      "start": 25.5835,
      "duration": 0.0463,
      "velocity": 112,
      "chip": "ym2612"
    },
    {
      "channel": 4,
      "note": 51,
      "start": 25.5846,
      "duration": 0.1788,
      "velocity": 97,
      "chip": "ym2612"
    },
    {
      "channel": 5,
      "note": 56,
      "start": 25.5879,
      "duration": 0.091,
      "velocity": 122,
      "chip": "ym2612"
    },
    {
      "channel": 2,
      "note": 85,
      "start": 25.683,
      "duration": 0.0474,
      "velocity": 112,
      "chip": "ym2612"
    },
    {
      "channel": 5,
      "note": 56,
      "start": 25.6868,
      "duration": 0.2088,
      "velocity": 122,
      "chip": "ym2612"
    },
    {
      "channel": 1,
      "note": 82,
      "start": 25.7303,
      "duration": 0.1822,
      "velocity": 104,
      "chip": "ym2612"
    },
    {
      "channel": 0,
      "note": 87,
      "start": 25.7795,
      "duration": 0.1828,
      "velocity": 104,
      "chip": "ym2612"
    },
    {
      "channel": 2,
      "note": 82,
      "start": 25.7808,
      "duration": 0.0492,
      "velocity": 112,
      "chip": "ym2612"
    },
    {
      "channel": 3,
      "note": 82,
      "start": 25.7816,
      "duration": 0.0485,
      "velocity": 97,
      "chip": "ym2612"
    },
    {
      "channel": 4,
      "note": 54,
      "start": 25.7823,
      "duration": 0.1814,
      "velocity": 97,
      "chip": "ym2612"
    },
    {
      "channel": 2,
      "note": 87,
      "start": 25.8998,
      "duration": 0.0472,
      "velocity": 112,
      "chip": "ym2612"
    },
    {
      "channel": 3,
      "note": 82,
      "start": 25.9006,
      "duration": 0.0465,
      "velocity": 97,
      "chip": "ym2612"
    },
    {
      "channel": 5,
      "note": 56,
      "start": 25.9043,
      "duration": 0.0913,
      "velocity": 122,
      "chip": "ym2612"
    },
    {
      "channel": 1,
      "note": 87,
      "start": 25.9468,
      "duration": 0.1826,
      "velocity": 104,
      "chip": "ym2612"
    },
    {
      "channel": 0,
      "note": 90,
      "start": 25.9988,
      "duration": 0.18,
      "velocity": 104,
      "chip": "ym2612"
    },
    {
      "channel": 2,
      "note": 85,
      "start": 26.0001,
      "duration": 0.0462,
      "velocity": 112,
      "chip": "ym2612"
    },
    {
      "channel": 4,
      "note": 63,
      "start": 26.0011,
      "duration": 0.1788,
      "velocity": 97,
      "chip": "ym2612"
    },
    {
      "channel": 5,
      "note": 51,
      "start": 26.0045,
      "duration": 0.2078,
      "velocity": 122,
      "chip": "ym2612"
    },
    {
      "channel": 2,
      "note": 78,
      "start": 26.1138,
      "duration": 0.0499,
      "velocity": 112,
      "chip": "ym2612"
    },
    {
      "channel": 1,
      "note": 90,
      "start": 26.1635,
      "duration": 0.1826,
      "velocity": 104,
      "chip": "ym2612"
    },
    {
      "channel": 0,
      "note": 94,
      "start": 26.2155,
      "duration": 0.0801,
      "velocity": 104,
      "chip": "ym2612"
    },
    {
      "channel": 2,
      "note": 75,
      "start": 26.2168,
      "duration": 0.0464,
      "velocity": 112,
      "chip": "ym2612"
    },
    {
      "channel": 3,
      "note": 82,
      "start": 26.2177,
      "duration": 0.0456,
      "velocity": 97,
      "chip": "ym2612"
    },
    {
      "channel": 4,
      "note": 58,
      "start": 26.2185,
      "duration": 0.0786,
      "velocity": 97,
      "chip": "ym2612"
    },
    {
      "channel": 5,
      "note": 51,
      "start": 26.2218,
      "duration": 0.0903,
      "velocity": 122,
      "chip": "ym2612"
    },
    {
      "channel": 0,
      "note": 92,
      "start": 26.3154,
      "duration": 0.6634,
      "velocity": 104,
      "chip": "ym2612"
    },
    {
      "channel": 2,
      "note": 78,
      "start": 26.3167,
      "duration": 0.0466,
      "velocity": 112,
      "chip": "ym2612"
    },
    {
      "channel": 3,
      "note": 82,
      "start": 26.3175,
      "duration": 0.0459,
      "velocity": 97,
      "chip": "ym2612"
    },
    {
      "channel": 4,
      "note": 56,
      "start": 26.3183,
      "duration": 0.1788,
      "velocity": 97,
      "chip": "ym2612"
    },
    {
      "channel": 5,
      "note": 51,
      "start": 26.3217,
      "duration": 0.2072,
      "velocity": 122,
      "chip": "ym2612"
    },
    {
      "channel": 1,
      "note": 94,
      "start": 26.38,
      "duration": 0.0827,
      "velocity": 104,
      "chip": "ym2612"
    },
    {
      "channel": 2,
      "note": 87,
      "start": 26.4305,
      "duration": 0.0499,
      "velocity": 112,
      "chip": "ym2612"
    },
    {
      "channel": 1,
      "note": 92,
      "start": 26.4802,
      "duration": 0.6655,
      "velocity": 104,
      "chip": "ym2612"
    },
    {
      "channel": 2,
      "note": 92,
      "start": 26.533,
      "duration": 0.0466,
      "velocity": 112,
      "chip": "ym2612"
    },
    {
      "channel": 4,
      "note": 56,
      "start": 26.5338,
      "duration": 0.1802,
      "velocity": 97,
      "chip": "ym2612"
    },
    {
      "channel": 5,
      "note": 44,
      "start": 26.5372,
      "duration": 0.1083,
      "velocity": 122,
      "chip": "ym2612"
    },
    {
      "channel": 2,
      "note": 90,
      "start": 26.6496,
      "duration": 0.0469,
      "velocity": 112,
      "chip": "ym2612"
    },
    {
      "channel": 3,
      "note": 83,
      "start": 26.6505,
      "duration": 0.0462,
      "velocity": 97,
      "chip": "ym2612"
    },
    {
      "channel": 5,
      "note": 44,
      "start": 26.6541,
      "duration": 0.1913,
      "velocity": 122,
      "chip": "ym2612"
    },
    {
      "channel": 2,
      "note": 87,
      "start": 26.7473,
      "duration": 0.0492,
      "velocity": 112,
      "chip": "ym2612"
    },
    {
      "channel": 3,
      "note": 83,
      "start": 26.7481,
      "duration": 0.0485,
      "velocity": 97,
      "chip": "ym2612"
    },
    {
      "channel": 4,
      "note": 56,
      "start": 26.7489,
      "duration": 0.0817,
      "velocity": 97,
      "chip": "ym2612"
    },
    {
      "channel": 2,
      "note": 83,
      "start": 26.8496,
      "duration": 0.047,
      "velocity": 112,
      "chip": "ym2612"
    },
    {
      "channel": 4,
      "note": 68,
      "start": 26.8508,
      "duration": 0.18,
      "velocity": 97,
      "chip": "ym2612"
    },
    {
      "channel": 5,
      "note": 48,
      "start": 26.8542,
      "duration": 0.0579,
      "velocity": 127,
      "chip": "ym2612"
    },
    {
      "channel": 5,
      "note": 48,
      "start": 26.92,
      "duration": 0.0422,
      "velocity": 127,
      "chip": "ym2612"
    },
    {
      "channel": 3,
      "note": 83,
      "start": 26.9668,
      "duration": 0.0468,
      "velocity": 97,
      "chip": "ym2612"
    },
    {
      "channel": 5,
      "note": 48,
      "start": 26.9705,
      "duration": 0.0917,
      "velocity": 127,
      "chip": "ym2612"
    },
    {
      "channel": 0,
      "note": 78,
      "start": 27.0676,
      "duration": 0.078,
      "velocity": 97,
      "chip": "ym2612"
    },
    {
      "channel": 2,
      "note": 80,
      "start": 27.0689,
      "duration": 0.0441,
      "velocity": 112,
      "chip": "ym2612"
    },
    {
      "channel": 3,
      "note": 83,
      "start": 27.0697,
      "duration": 0.0434,
      "velocity": 97,
      "chip": "ym2612"
    },
    {
      "channel": 4,
      "note": 56,
      "start": 27.0704,
      "duration": 0.1768,
      "velocity": 97,
      "chip": "ym2612"
    },
    {
      "channel": 5,
      "note": 48,
      "start": 27.0739,
      "duration": 0.1049,
      "velocity": 127,
      "chip": "ym2612"
    },
    {
      "channel": 0,
      "note": 80,
      "start": 27.182,
      "duration": 0.0803,
      "velocity": 97,
      "chip": "ym2612"
    },
    {
      "channel": 3,
      "note": 83,
      "start": 27.1837,
      "duration": 0.0492,
      "velocity": 97,
      "chip": "ym2612"
    },
    {
      "channel": 5,
      "note": 48,
      "start": 27.1874,
      "duration": 0.0916,
      "velocity": 127,
      "chip": "ym2612"
    },
    {
      "channel": 1,
      "note": 78,
      "start": 27.2323,
      "duration": 0.0803,
      "velocity": 97,
      "chip": "ym2612"
    },
    {
      "channel": 0,
      "note": 83,
      "start": 27.2824,
      "duration": 0.1798,
      "velocity": 97,
      "chip": "ym2612"
    },
    {
      "channel": 4,
      "note": 56,
      "start": 27.2847,
      "duration": 0.1783,
      "velocity": 97,
      "chip": "ym2612"
    },
    {
      "channel": 5,
      "note": 56,
      "start": 27.288,
      "duration": 0.0907,
      "velocity": 117,
      "chip": "ym2612"
    },
    {
      "channel": 1,
      "note": 80,
      "start": 27.3301,
      "duration": 0.0826,
      "velocity": 97,
      "chip": "ym2612"
    },
    {
      "channel": 5,
      "note": 57,
      "start": 27.3858,
      "duration": 0.1097,
      "velocity": 115,
      "chip": "ym2612"
    },
    {
      "channel": 1,
      "note": 83,
      "start": 27.4468,
      "duration": 0.1826,
      "velocity": 97,
      "chip": "ym2612"
    },
    {
      "channel": 0,
      "note": 82,
      "start": 27.4988,
      "duration": 0.1802,
      "velocity": 97,
      "chip": "ym2612"
    },
    {
      "channel": 4,
      "note": 56,
      "start": 27.5001,
      "duration": 0.1796,
      "velocity": 97,
      "chip": "ym2612"
    },
    {
      "channel": 5,
      "note": 57,
      "start": 27.5034,
      "duration": 0.0921,
      "velocity": 115,
      "chip": "ym2612"
    },
    {
      "channel": 5,
      "note": 57,
      "start": 27.6027,
      "duration": 0.1094,
      "velocity": 115,
      "chip": "ym2612"
    },
    {
      "channel": 1,
      "note": 82,
      "start": 27.6466,
      "duration": 0.1828,
      "velocity": 97,
      "chip": "ym2612"
    },
    {
      "channel": 0,
      "note": 80,
      "start": 27.7153,
      "duration": 0.1803,
      "velocity": 97,
      "chip": "ym2612"
    },
    {
      "channel": 4,
      "note": 56,
      "start": 27.7166,
      "duration": 0.1798,
      "velocity": 97,
      "chip": "ym2612"
    },
    {
      "channel": 5,
      "note": 56,
      "start": 27.72,
      "duration": 0.1921,
      "velocity": 117,
      "chip": "ym2612"
    },
    {
      "channel": 1,
      "note": 80,
      "start": 27.8634,
      "duration": 0.1824,
      "velocity": 97,
      "chip": "ym2612"
    },
    {
      "channel": 0,
      "note": 75,
      "start": 27.9154,
      "duration": 0.0802,
      "velocity": 97,
      "chip": "ym2612"
    },
    {
      "channel": 4,
      "note": 56,
      "start": 27.9168,
      "duration": 0.0796,
      "velocity": 97,
      "chip": "ym2612"
    },
    {
      "channel": 5,
      "note": 57,
      "start": 27.9202,
      "duration": 0.1087,
      "velocity": 115,
      "chip": "ym2612"
    },
    {
      "channel": 0,
      "note": 71,
      "start": 28.0322,
      "duration": 0.2799,
      "velocity": 97,
      "chip": "ym2612"
    },
    {
      "channel": 4,
      "note": 51,
      "start": 28.0336,
      "duration": 0.1798,
      "velocity": 97,
      "chip": "ym2612"
    },
    {
      "channel": 5,
      "note": 57,
      "start": 28.037,
      "duration": 0.092,
      "velocity": 115,
      "chip": "ym2612"
    },
    {
      "channel": 1,
      "note": 75,
      "start": 28.0802,
      "duration": 0.0826,
      "velocity": 97,
      "chip": "ym2612"
    },
    {
      "channel": 5,
      "note": 56,
      "start": 28.1361,
      "duration": 0.1093,
      "velocity": 117,
      "chip": "ym2612"
    },
    {
      "channel": 1,
      "note": 71,
      "start": 28.18,
      "duration": 0.2828,
      "velocity": 97,
      "chip": "ym2612"
    },
    {
      "channel": 4,
      "note": 51,
      "start": 28.2495,
      "duration": 0.1805,
      "velocity": 97,
      "chip": "ym2612"
    },
    {
      "channel": 5,
      "note": 57,
      "start": 28.2529,
      "duration": 0.0927,
      "velocity": 115,
      "chip": "ym2612"
    },
    {
      "channel": 0,
      "note": 78,
      "start": 28.3488,
      "duration": 0.2802,
      "velocity": 97,
      "chip": "ym2612"
    },
    {
      "channel": 5,
      "note": 57,
      "start": 28.3531,
      "duration": 0.0923,
      "velocity": 115,
      "chip": "ym2612"
    },
    {
      "channel": 4,
      "note": 51,
      "start": 28.4496,
      "duration": 0.0804,
      "velocity": 97,
      "chip": "ym2612"
    },
    {
      "channel": 5,
      "note": 57,
      "start": 28.453,
      "duration": 0.1092,
      "velocity": 115,
      "chip": "ym2612"
    },
    {
      "channel": 1,
      "note": 78,
      "start": 28.5133,
      "duration": 0.2828,
      "velocity": 97,
      "chip": "ym2612"
    },
    {
      "channel": 4,
      "note": 51,
      "start": 28.5664,
      "duration": 0.1803,
      "velocity": 97,
      "chip": "ym2612"
    },
    {
      "channel": 5,
      "note": 56,
      "start": 28.5698,
      "duration": 0.209,
      "velocity": 117,
      "chip": "ym2612"
    },
    {
      "channel": 0,
      "note": 83,
      "start": 28.663,
      "duration": 0.2826,
      "velocity": 97,
      "chip": "ym2612"
    },
    {
      "channel": 4,
      "note": 51,
      "start": 28.7829,
      "duration": 0.1805,
      "velocity": 97,
      "chip": "ym2612"
    },
    {
      "channel": 5,
      "note": 57,
      "start": 28.7863,
      "duration": 0.0926,
      "velocity": 115,
      "chip": "ym2612"
    },
    {
      "channel": 1,
      "note": 83,
      "start": 28.8302,
      "duration": 0.2824,
      "velocity": 97,
      "chip": "ym2612"
    },
    {
      "channel": 5,
      "note": 57,
      "start": 28.886,
      "duration": 0.0932,
      "velocity": 115,
      "chip": "ym2612"
    },
    {
      "channel": 0,
      "note": 82,
      "start": 28.9826,
      "duration": 0.1797,
      "velocity": 97,
      "chip": "ym2612"
    },
    {
      "channel": 4,
      "note": 54,
      "start": 28.9844,
      "duration": 0.1787,
      "velocity": 97,
      "chip": "ym2612"
    },
    {
      "channel": 5,
      "note": 56,
      "start": 28.9877,
      "duration": 0.1079,
      "velocity": 117,
      "chip": "ym2612"
    },
    {
      "channel": 5,
      "note": 57,
      "start": 29.1027,
      "duration": 0.0929,
      "velocity": 115,
      "chip": "ym2612"
    },
    {
      "channel": 1,
      "note": 82,
      "start": 29.147,
      "duration": 0.1824,
      "velocity": 97,
      "chip": "ym2612"
    },
    {
      "channel": 0,
      "note": 83,
      "start": 29.1988,
      "duration": 0.18,
      "velocity": 97,
      "chip": "ym2612"
    },
    {
      "channel": 4,
      "note": 54,
      "start": 29.2001,
      "duration": 0.1794,
      "velocity": 97,
      "chip": "ym2612"
    },
    {
      "channel": 5,
      "note": 57,
      "start": 29.2034,
      "duration": 0.1087,
      "velocity": 115,
      "chip": "ym2612"
    },
    {
      "channel": 5,
      "note": 57,
      "start": 29.3192,
      "duration": 0.093,
      "velocity": 115,
      "chip": "ym2612"
    },
    {
      "channel": 1,
      "note": 83,
      "start": 29.3635,
      "duration": 0.1826,
      "velocity": 97,
      "chip": "ym2612"
    },
    {
      "channel": 0,
      "note": 82,
      "start": 29.4155,
      "duration": 0.1802,
      "velocity": 97,
      "chip": "ym2612"
    },
    {
      "channel": 4,
      "note": 54,
      "start": 29.4168,
      "duration": 0.1796,
      "velocity": 97,
      "chip": "ym2612"
    },
    {
      "channel": 5,
      "note": 56,
      "start": 29.4201,
      "duration": 0.2088,
      "velocity": 117,
      "chip": "ym2612"
    },
    {
      "channel": 1,
      "note": 82,
      "start": 29.58,
      "duration": 0.1828,
      "velocity": 97,
      "chip": "ym2612"
    },
    {
      "channel": 0,
      "note": 78,
      "start": 29.6322,
      "duration": 0.0799,
      "velocity": 97,
      "chip": "ym2612"
    },
    {
      "channel": 4,
      "note": 54,
      "start": 29.6336,
      "duration": 0.0793,
      "velocity": 97,
      "chip": "ym2612"
    },
    {
      "channel": 5,
      "note": 57,
      "start": 29.637,
      "duration": 0.0919,
      "velocity": 115,
      "chip": "ym2612"
    },
    {
      "channel": 0,
      "note": 80,
      "start": 29.7322,
      "duration": 0.2801,
      "velocity": 97,
      "chip": "ym2612"
    },
    {
      "channel": 4,
      "note": 59,
      "start": 29.7336,
      "duration": 0.1796,
      "velocity": 97,
      "chip": "ym2612"
    },
    {
      "channel": 5,
      "note": 57,
      "start": 29.737,
      "duration": 0.1085,
      "velocity": 115,
      "chip": "ym2612"
    },
    {
      "channel": 1,
      "note": 78,
      "start": 29.78,
      "duration": 0.0828,
      "velocity": 97,
      "chip": "ym2612"
    },
    {
      "channel": 5,
      "note": 56,
      "start": 29.8526,
      "duration": 0.0929,
      "velocity": 117,
      "chip": "ym2612"
    },
    {
      "channel": 1,
      "note": 80,
      "start": 29.8969,
      "duration": 0.2823,
      "velocity": 97,
      "chip": "ym2612"
    },
    {
      "channel": 4,
      "note": 59,
      "start": 29.9497,
      "duration": 0.1803,
      "velocity": 97,
      "chip": "ym2612"
    },
    {
      "channel": 5,
      "note": 57,
      "start": 29.9531,
      "duration": 0.0924,
      "velocity": 115,
      "chip": "ym2612"
    },
    {
      "channel": 0,
      "note": 78,
      "start": 30.0488,
      "duration": 0.3635,
      "velocity": 97,
      "chip": "ym2612"
    },
    {
      "channel": 5,
      "note": 57,
      "start": 30.053,
      "duration": 0.1092,
      "velocity": 115,
      "chip": "ym2612"
    },
    {
      "channel": 4,
      "note": 59,
      "start": 30.1665,
      "duration": 0.08,
      "velocity": 97,
      "chip": "ym2612"
    },
    {
      "channel": 5,
      "note": 57,
      "start": 30.1699,
      "duration": 0.0924,
      "velocity": 115,
      "chip": "ym2612"
    },
    {
      "channel": 1,
      "note": 78,
      "start": 30.2136,
      "duration": 0.3681,
      "velocity": 97,
      "chip": "ym2612"
    },
    {
      "channel": 4,
      "note": 59,
      "start": 30.2664,
      "duration": 0.1801,
      "velocity": 97,
      "chip": "ym2612"
    },
    {
      "channel": 5,
      "note": 56,
      "start": 30.2698,
      "duration": 0.2091,
      "velocity": 117,
      "chip": "ym2612"
    },
    {
      "channel": 0,
      "note": 77,
      "start": 30.4822,
      "duration": 0.1801,
      "velocity": 97,
      "chip": "ym2612"
    },
    {
      "channel": 4,
      "note": 58,
      "start": 30.4835,
      "duration": 0.1795,
      "velocity": 97,
      "chip": "ym2612"
    },
    {
      "channel": 5,
      "note": 57,
      "start": 30.4869,
      "duration": 0.0919,
      "velocity": 115,
      "chip": "ym2612"
    },
    {
      "channel": 5,
      "note": 57,
      "start": 30.5856,
      "duration": 0.1104,
      "velocity": 115,
      "chip": "ym2612"
    },
    {
      "channel": 1,
      "note": 77,
      "start": 30.6467,
      "duration": 0.1827,
      "velocity": 97,
      "chip": "ym2612"
    },
    {
      "channel": 0,
      "note": 75,
      "start": 30.6992,
      "duration": 0.1798,
      "velocity": 97,
      "chip": "ym2612"
    },
    {
      "channel": 4,
      "note": 56,
      "start": 30.701,
      "duration": 0.1788,
      "velocity": 97,
      "chip": "ym2612"
    },
    {
      "channel": 5,
      "note": 56,
      "start": 30.7043,
      "duration": 0.0913,
      "velocity": 117,
      "chip": "ym2612"
    },
    {
      "channel": 5,
      "note": 57,
      "start": 30.8027,
      "duration": 0.1094,
      "velocity": 115,
      "chip": "ym2612"
    },
    {
      "channel": 1,
      "note": 75,
      "start": 30.8466,
      "duration": 0.1828,
      "velocity": 97,
      "chip": "ym2612"
    },
    {
      "channel": 0,
      "note": 78,
      "start": 30.9153,
      "duration": 0.1803,
      "velocity": 97,
      "chip": "ym2612"
    },
    {
      "channel": 4,
      "note": 56,
      "start": 30.9166,
      "duration": 0.1798,
      "velocity": 97,
      "chip": "ym2612"
    },
    {
      "channel": 5,
      "note": 57,
      "start": 30.92,
      "duration": 0.0922,
      "velocity": 115,
      "chip": "ym2612"
    },
    {
      "channel": 5,
      "note": 57,
      "start": 31.0194,
      "duration": 0.0927,
      "velocity": 115,
      "chip": "ym2612"
    },
    {
      "channel": 1,
      "note": 78,
      "start": 31.0634,
      "duration": 0.1824,
      "velocity": 97,
      "chip": "ym2612"
    },
    {
      "channel": 0,
      "note": 80,
      "start": 31.1153,
      "duration": 0.1803,
      "velocity": 97,
      "chip": "ym2612"
    },
    {
      "channel": 4,
      "note": 56,
      "start": 31.1166,
      "duration": 0.1798,
      "velocity": 97,
      "chip": "ym2612"
    },
    {
      "channel": 5,
      "note": 56,
      "start": 31.12,
      "duration": 0.2089,
      "velocity": 117,
      "chip": "ym2612"
    },
    {
      "channel": 1,
      "note": 80,
      "start": 31.2802,
      "duration": 0.1826,
      "velocity": 97,
      "chip": "ym2612"
    },
    {
      "channel": 0,
      "note": 82,
      "start": 31.3322,
      "duration": 0.0801,
      "velocity": 97,
      "chip": "ym2612"
    },
    {
      "channel": 4,
      "note": 56,
      "start": 31.3336,
      "duration": 0.0795,
      "velocity": 97,
      "chip": "ym2612"
    },
    {
      "channel": 5,
      "note": 57,
      "start": 31.337,
      "duration": 0.1085,
      "velocity": 115,
      "chip": "ym2612"
    },
    {
      "channel": 0,
      "note": 80,
      "start": 31.4488,
      "duration": 0.1802,
      "velocity": 97,
      "chip": "ym2612"
    },
    {
      "channel": 4,
      "note": 54,
      "start": 31.4501,
      "duration": 0.1796,
      "velocity": 97,
      "chip": "ym2612"
    },
    {
      "channel": 5,
      "note": 57,
      "start": 31.4535,
      "duration": 0.0922,
      "velocity": 115,
      "chip": "ym2612"
    },
    {
      "channel": 1,
      "note": 82,
      "start": 31.4968,
      "duration": 0.0824,
      "velocity": 97,
      "chip": "ym2612"
    },
    {
      "channel": 5,
      "note": 56,
      "start": 31.5528,
      "duration": 0.0926,
      "velocity": 117,
      "chip": "ym2612"
    },
    {
      "channel": 1,
      "note": 80,
      "start": 31.5968,
      "duration": 0.1824,
      "velocity": 97,
      "chip": "ym2612"
    },
    {
      "channel": 0,
      "note": 78,
      "start": 31.6488,
      "duration": 0.0802,
      "velocity": 97,
      "chip": "ym2612"
    },
    {
      "channel": 4,
      "note": 54,
      "start": 31.65,
      "duration": 0.18,
      "velocity": 97,
      "chip": "ym2612"
    },
    {
      "channel": 5,
      "note": 57,
      "start": 31.6534,
      "duration": 0.1088,
      "velocity": 115,
      "chip": "ym2612"
    },
    {
      "channel": 0,
      "note": 77,
      "start": 31.7655,
      "duration": 0.1801,
      "velocity": 97,
      "chip": "ym2612"
    },
    {
      "channel": 5,
      "note": 57,
      "start": 31.7699,
      "duration": 0.0924,
      "velocity": 115,
      "chip": "ym2612"
    },
    {
      "channel": 1,
      "note": 78,
      "start": 31.8135,
      "duration": 0.0826,
      "velocity": 97,
      "chip": "ym2612"
    },
    {
      "channel": 4,
      "note": 54,
      "start": 31.8664,
      "duration": 0.08,
      "velocity": 97,
      "chip": "ym2612"
    },
    {
      "channel": 5,
      "note": 57,
      "start": 31.8698,
      "duration": 0.109,
      "velocity": 115,
      "chip": "ym2612"
    },
    {
      "channel": 1,
      "note": 77,
      "start": 31.9133,
      "duration": 0.1828,
      "velocity": 97,
      "chip": "ym2612"
    },
    {
      "channel": 0,
      "note": 75,
      "start": 31.982,
      "duration": 0.1803,
      "velocity": 97,
      "chip": "ym2612"
    },
    {
      "channel": 4,
      "note": 54,
      "start": 31.9834,
      "duration": 0.1797,
      "velocity": 97,
      "chip": "ym2612"
    },
    {
      "channel": 5,
      "note": 56,
      "start": 31.9867,
      "duration": 0.1921,
      "velocity": 117,
      "chip": "ym2612"
    },
    {
      "channel": 1,
      "note": 75,
      "start": 32.1301,
      "duration": 0.1824,
      "velocity": 97,
      "chip": "ym2612"
    },
    {
      "channel": 0,
      "note": 82,
      "start": 32.182,
      "duration": 0.1803,
      "velocity": 97,
      "chip": "ym2612"
    },
    {
      "channel": 4,
      "note": 54,
      "start": 32.1833,
      "duration": 0.1798,
      "velocity": 97,
      "chip": "ym2612"
    },
    {
      "channel": 5,
      "note": 57,
      "start": 32.1867,
      "duration": 0.1089,
      "velocity": 115,
      "chip": "ym2612"
    },
    {
      "channel": 5,
      "note": 57,
      "start": 32.3027,
      "duration": 0.0932,
      "velocity": 115,
      "chip": "ym2612"
    },
    {
      "channel": 1,
      "note": 82,
      "start": 32.3468,
      "duration": 0.1826,
      "velocity": 97,
      "chip": "ym2612"
    },
    {
      "channel": 0,
      "note": 87,
      "start": 32.3994,
      "duration": 0.1794,
      "velocity": 97,
      "chip": "ym2612"
    },
    {
      "channel": 4,
      "note": 51,
      "start": 32.4012,
      "duration": 0.1784,
      "velocity": 97,
      "chip": "ym2612"
    },
    {
      "channel": 5,
      "note": 56,
      "start": 32.4045,
      "duration": 0.1076,
      "velocity": 117,
      "chip": "ym2612"
    },
    {
      "channel": 5,
      "note": 57,
      "start": 32.5192,
      "duration": 0.093,
      "velocity": 115,
      "chip": "ym2612"
    },
    {
      "channel": 1,
      "note": 87,
      "start": 32.5637,
      "duration": 0.1824,
      "velocity": 97,
      "chip": "ym2612"
    },
    {
      "channel": 0,
      "note": 85,
      "start": 32.6155,
      "duration": 0.1802,
      "velocity": 97,
      "chip": "ym2612"
    },
    {
      "channel": 4,
      "note": 51,
      "start": 32.6168,
      "duration": 0.1796,
      "velocity": 97,
      "chip": "ym2612"
    },
    {
      "channel": 5,
      "note": 57,
      "start": 32.6201,
      "duration": 0.092,
      "velocity": 115,
      "chip": "ym2612"
    },
    {
      "channel": 5,
      "note": 57,
      "start": 32.7192,
      "duration": 0.1097,
      "velocity": 115,
      "chip": "ym2612"
    },
    {
      "channel": 1,
      "note": 85,
      "start": 32.78,
      "duration": 0.1828,
      "velocity": 97,
      "chip": "ym2612"
    },
    {
      "channel": 0,
      "note": 83,
      "start": 32.8322,
      "duration": 0.0799,
      "velocity": 97,
      "chip": "ym2612"
    },
    {
      "channel": 4,
      "note": 51,
      "start": 32.8335,
      "duration": 0.1795,
      "velocity": 97,
      "chip": "ym2612"
    },
    {
      "channel": 5,
      "note": 56,
      "start": 32.8368,
      "duration": 0.2086,
      "velocity": 117,
      "chip": "ym2612"
    },
    {
      "channel": 0,
      "note": 82,
      "start": 32.9297,
      "duration": 0.0826,
      "velocity": 97,
      "chip": "ym2612"
    },
    {
      "channel": 1,
      "note": 83,
      "start": 32.98,
      "duration": 0.0827,
      "velocity": 97,
      "chip": "ym2612"
    },
    {
      "channel": 0,
      "note": 78,
      "start": 33.0486,
      "duration": 0.0803,
      "velocity": 97,
      "chip": "ym2612"
    },
    {
      "channel": 4,
      "note": 51,
      "start": 33.05,
      "duration": 0.0797,
      "velocity": 97,
      "chip": "ym2612"
    },
    {
      "channel": 5,
      "note": 57,
      "start": 33.0534,
      "duration": 0.0922,
      "velocity": 115,
      "chip": "ym2612"
    },
    {
      "channel": 1,
      "note": 82,
      "start": 33.0968,
      "duration": 0.0824,
      "velocity": 97,
      "chip": "ym2612"
    },
    {
      "channel": 0,
      "note": 80,
      "start": 33.1489,
      "duration": 0.6802,
      "velocity": 97,
      "chip": "ym2612"
    },
    {
      "channel": 4,
      "note": 56,
      "start": 33.1503,
      "duration": 0.1798,
      "velocity": 97,
      "chip": "ym2612"
    },
    {
      "channel": 5,
      "note": 57,
      "start": 33.1537,
      "duration": 0.0918,
      "velocity": 115,
      "chip": "ym2612"
    },
    {
      "channel": 1,
      "note": 78,
      "start": 33.1968,
      "duration": 0.0826,
      "velocity": 97,
      "chip": "ym2612"
    },
    {
      "channel": 5,
      "note": 56,
      "start": 33.2525,
      "duration": 0.1097,
      "velocity": 117,
      "chip": "ym2612"
    },
    {
      "channel": 1,
      "note": 80,
      "start": 33.3134,
      "duration": 0.6831,
      "velocity": 97,
      "chip": "ym2612"
    },
    {
      "channel": 4,
      "note": 56,
      "start": 33.3664,
      "duration": 0.1803,
      "velocity": 97,
      "chip": "ym2612"
    },
    {
      "channel": 5,
      "note": 57,
      "start": 33.3697,
      "duration": 0.0925,
      "velocity": 115,
      "chip": "ym2612"
    },
    {
      "channel": 5,
      "note": 48,
      "start": 33.4694,
      "duration": 0.1094,
      "velocity": 127,
      "chip": "ym2612"
    },
    {
      "channel": 4,
      "note": 56,
      "start": 33.583,
      "duration": 0.0803,
      "velocity": 97,
      "chip": "ym2612"
    },
    {
      "channel": 5,
      "note": 48,
      "start": 33.5864,
      "duration": 0.0925,
      "velocity": 127,
      "chip": "ym2612"
    },
    {
      "channel": 4,
      "note": 56,
      "start": 33.6832,
      "duration": 0.1802,
      "velocity": 97,
      "chip": "ym2612"
    },
    {
      "channel": 5,
      "note": 56,
      "start": 33.6865,
      "duration": 0.0922,
      "velocity": 117,
      "chip": "ym2612"
    },
    {
      "channel": 5,
      "note": 48,
      "start": 33.786,
      "duration": 0.1096,
      "velocity": 127,
      "chip": "ym2612"
    },
    {
      "channel": 0,
      "note": 78,
      "start": 33.8989,
      "duration": 0.0799,
      "velocity": 97,
      "chip": "ym2612"
    },
    {
      "channel": 4,
      "note": 68,
      "start": 33.9002,
      "duration": 0.1795,
      "velocity": 97,
      "chip": "ym2612"
    },
    {
      "channel": 5,
      "note": 48,
      "start": 33.9036,
      "duration": 0.2087,
      "velocity": 127,
      "chip": "ym2612"
    },
    {
      "channel": 0,
      "note": 80,
      "start": 33.9963,
      "duration": 0.0826,
      "velocity": 97,
      "chip": "ym2612"
    },
    {
      "channel": 1,
      "note": 78,
      "start": 34.0466,
      "duration": 0.0828,
      "velocity": 97,
      "chip": "ym2612"
    },
    {
      "channel": 0,
      "note": 83,
      "start": 34.1156,
      "duration": 0.18,
      "velocity": 97,
      "chip": "ym2612"
    },
    {
      "channel": 4,
      "note": 56,
      "start": 34.1177,
      "duration": 0.1787,
      "velocity": 97,
      "chip": "ym2612"
    },
    {
      "channel": 5,
      "note": 56,
      "start": 34.121,
      "duration": 0.0912,
      "velocity": 117,
      "chip": "ym2612"
    },
    {
      "channel": 1,
      "note": 80,
      "start": 34.1634,
      "duration": 0.0824,
      "velocity": 97,
      "chip": "ym2612"
    },
    {
      "channel": 5,
      "note": 57,
      "start": 34.2194,
      "duration": 0.0927,
      "velocity": 115,
      "chip": "ym2612"
    },
    {
      "channel": 1,
      "note": 83,
      "start": 34.2635,
      "duration": 0.1824,
      "velocity": 97,
      "chip": "ym2612"
    },
    {
      "channel": 0,
      "note": 82,
      "start": 34.3153,
      "duration": 0.1803,
      "velocity": 97,
      "chip": "ym2612"
    },
    {
      "channel": 4,
      "note": 56,
      "start": 34.3166,
      "duration": 0.1798,
      "velocity": 97,
      "chip": "ym2612"
    },
    {
      "channel": 5,
      "note": 57,
      "start": 34.32,
      "duration": 0.1089,
      "velocity": 115,
      "chip": "ym2612"
    },
    {
      "channel": 5,
      "note": 57,
      "start": 34.4361,
      "duration": 0.0928,
      "velocity": 115,
      "chip": "ym2612"
    },
    {
      "channel": 1,
      "note": 82,
      "start": 34.4802,
      "duration": 0.1826,
      "velocity": 97,
      "chip": "ym2612"
    },
    {
      "channel": 0,
      "note": 80,
      "start": 34.5321,
      "duration": 0.18,
      "velocity": 97,
      "chip": "ym2612"
    },
    {
      "channel": 4,
      "note": 56,
      "start": 34.5334,
      "duration": 0.1794,
      "velocity": 97,
      "chip": "ym2612"
    },
    {
      "channel": 5,
      "note": 56,
      "start": 34.5368,
      "duration": 0.2088,
      "velocity": 117,
      "chip": "ym2612"
    },
    {
      "channel": 1,
      "note": 80,
      "start": 34.6968,
      "duration": 0.1826,
      "velocity": 97,
      "chip": "ym2612"
    },
    {
      "channel": 0,
      "note": 71,
      "start": 34.7489,
      "duration": 0.0801,
      "velocity": 97,
      "chip": "ym2612"
    },
    {
      "channel": 4,
      "note": 56,
      "start": 34.7503,
      "duration": 0.0795,
      "velocity": 97,
      "chip": "ym2612"
    },
    {
      "channel": 5,
      "note": 57,
      "start": 34.7537,
      "duration": 0.0918,
      "velocity": 115,
      "chip": "ym2612"
    },
    {
      "channel": 0,
      "note": 75,
      "start": 34.8488,
      "duration": 0.2802,
      "velocity": 97,
      "chip": "ym2612"
    },
    {
      "channel": 4,
      "note": 51,
      "start": 34.8501,
      "duration": 0.1799,
      "velocity": 97,
      "chip": "ym2612"
    },
    {
      "channel": 5,
      "note": 57,
      "start": 34.8535,
      "duration": 0.1088,
      "velocity": 115,
      "chip": "ym2612"
    },
    {
      "channel": 1,
      "note": 71,
      "start": 34.9133,
      "duration": 0.0828,
      "velocity": 97,
      "chip": "ym2612"
    },
    {
      "channel": 5,
      "note": 56,
      "start": 34.9695,
      "duration": 0.0927,
      "velocity": 117,
      "chip": "ym2612"
    },
    {
      "channel": 1,
      "note": 75,
      "start": 35.0136,
      "duration": 0.2825,
      "velocity": 97,
      "chip": "ym2612"
    },
    {
      "channel": 4,
      "note": 51,
      "start": 35.0664,
      "duration": 0.1801,
      "velocity": 97,
      "chip": "ym2612"
    },
    {
      "channel": 5,
      "note": 57,
      "start": 35.0697,
      "duration": 0.109,
      "velocity": 115,
      "chip": "ym2612"
    },
    {
      "channel": 0,
      "note": 78,
      "start": 35.182,
      "duration": 0.2803,
      "velocity": 97,
      "chip": "ym2612"
    },
    {
      "channel": 5,
      "note": 57,
      "start": 35.1863,
      "duration": 0.0925,
      "velocity": 115,
      "chip": "ym2612"
    },
    {
      "channel": 4,
      "note": 51,
      "start": 35.2832,
      "duration": 0.0802,
      "velocity": 97,
      "chip": "ym2612"
    },
    {
      "channel": 5,
      "note": 57,
      "start": 35.2865,
      "duration": 0.0922,
      "velocity": 115,
      "chip": "ym2612"
    },
    {
      "channel": 1,
      "note": 78,
      "start": 35.3301,
      "duration": 0.2826,
      "velocity": 97,
      "chip": "ym2612"
    },
    {
      "channel": 4,
      "note": 51,
      "start": 35.383,
      "duration": 0.1804,
      "velocity": 97,
      "chip": "ym2612"
    },
    {
      "channel": 5,
      "note": 56,
      "start": 35.3863,
      "duration": 0.2092,
      "velocity": 117,
      "chip": "ym2612"
    },
    {
      "channel": 0,
      "note": 83,
      "start": 35.4963,
      "duration": 0.2824,
      "velocity": 97,
      "chip": "ym2612"
    },
    {
      "channel": 4,
      "note": 51,
      "start": 35.5997,
      "duration": 0.1798,
      "velocity": 97,
      "chip": "ym2612"
    },
    {
      "channel": 5,
      "note": 57,
      "start": 35.6031,
      "duration": 0.109,
      "velocity": 115,
      "chip": "ym2612"
    },
    {
      "channel": 1,
      "note": 83,
      "start": 35.6466,
      "duration": 0.2828,
      "velocity": 97,
      "chip": "ym2612"
    },
    {
      "channel": 5,
      "note": 57,
      "start": 35.7192,
      "duration": 0.0933,
      "velocity": 115,
      "chip": "ym2612"
    },
    {
      "channel": 0,
      "note": 82,
      "start": 35.8157,
      "duration": 0.1799,
      "velocity": 97,
      "chip": "ym2612"
    },
    {
      "channel": 4,
      "note": 54,
      "start": 35.8176,
      "duration": 0.1788,
      "velocity": 97,
      "chip": "ym2612"
    },
    {
      "channel": 5,
      "note": 56,
      "start": 35.821,
      "duration": 0.0912,
      "velocity": 117,
      "chip": "ym2612"
    },
    {
      "channel": 5,
      "note": 57,
      "start": 35.9192,
      "duration": 0.1097,
      "velocity": 115,
      "chip": "ym2612"
    },
    {
      "channel": 1,
      "note": 82,
      "start": 35.9801,
      "duration": 0.1826,
      "velocity": 97,
      "chip": "ym2612"
    },
    {
      "channel": 0,
      "note": 83,
      "start": 36.0321,
      "duration": 0.1802,
      "velocity": 97,
      "chip": "ym2612"
    },
    {
      "channel": 4,
      "note": 54,
      "start": 36.0334,
      "duration": 0.1796,
      "velocity": 97,
      "chip": "ym2612"
    },
    {
      "channel": 5,
      "note": 57,
      "start": 36.0368,
      "duration": 0.0921,
      "velocity": 115,
      "chip": "ym2612"
    },
    {
      "channel": 5,
      "note": 57,
      "start": 36.136,
      "duration": 0.1094,
      "velocity": 115,
      "chip": "ym2612"
    },
    {
      "channel": 1,
      "note": 83,
      "start": 36.1799,
      "duration": 0.1828,
      "velocity": 97,
      "chip": "ym2612"
    },
    {
      "channel": 0,
      "note": 82,
      "start": 36.2487,
      "duration": 0.1803,
      "velocity": 97,
      "chip": "ym2612"
    },
    {
      "channel": 4,
      "note": 54,
      "start": 36.25,
      "duration": 0.1798,
      "velocity": 97,
      "chip": "ym2612"
    },
    {
      "channel": 5,
      "note": 56,
      "start": 36.2533,
      "duration": 0.1921,
      "velocity": 117,
      "chip": "ym2612"
    },
    {
      "channel": 1,
      "note": 82,
      "start": 36.3968,
      "duration": 0.1824,
      "velocity": 97,
      "chip": "ym2612"
    },
    {
      "channel": 0,
      "note": 78,
      "start": 36.4488,
      "duration": 0.0802,
      "velocity": 97,
      "chip": "ym2612"
    },
    {
      "channel": 4,
      "note": 54,
      "start": 36.4501,
      "duration": 0.0796,
      "velocity": 97,
      "chip": "ym2612"
    },
    {
      "channel": 5,
      "note": 57,
      "start": 36.4535,
      "duration": 0.1087,
      "velocity": 115,
      "chip": "ym2612"
    },
    {
      "channel": 0,
      "note": 80,
      "start": 36.5655,
      "duration": 0.2799,
      "velocity": 97,
      "chip": "ym2612"
    },
    {
      "channel": 4,
      "note": 59,
      "start": 36.567,
      "duration": 0.1797,
      "velocity": 97,
      "chip": "ym2612"
    },
    {
      "channel": 5,
      "note": 57,
      "start": 36.5704,
      "duration": 0.0919,
      "velocity": 115,
      "chip": "ym2612"
    },
    {
      "channel": 1,
      "note": 78,
      "start": 36.6135,
      "duration": 0.0826,
      "velocity": 97,
      "chip": "ym2612"
    },
    {
      "channel": 5,
      "note": 56,
      "start": 36.6694,
      "duration": 0.1094,
      "velocity": 117,
      "chip": "ym2612"
    },
    {
      "channel": 1,
      "note": 80,
      "start": 36.7133,
      "duration": 0.2828,
      "velocity": 97,
      "chip": "ym2612"
    },
    {
      "channel": 4,
      "note": 59,
      "start": 36.7829,
      "duration": 0.1805,
      "velocity": 97,
      "chip": "ym2612"
    },
    {
      "channel": 5,
      "note": 57,
      "start": 36.7862,
      "duration": 0.0927,
      "velocity": 115,
      "chip": "ym2612"
    },
    {
      "channel": 0,
      "note": 78,
      "start": 36.8822,
      "duration": 0.3632,
      "velocity": 97,
      "chip": "ym2612"
    },
    {
      "channel": 5,
      "note": 57,
      "start": 36.8865,
      "duration": 0.0922,
      "velocity": 115,
      "chip": "ym2612"
    },
    {
      "channel": 4,
      "note": 59,
      "start": 36.983,
      "duration": 0.0803,
      "velocity": 97,
      "chip": "ym2612"
    },
    {
      "channel": 5,
      "note": 57,
      "start": 36.9864,
      "duration": 0.1092,
      "velocity": 115,
      "chip": "ym2612"
    },
    {
      "channel": 1,
      "note": 78,
      "start": 37.0467,
      "duration": 0.3685,
      "velocity": 97,
      "chip": "ym2612"
    },
    {
      "channel": 4,
      "note": 59,
      "start": 37.0998,
      "duration": 0.1803,
      "velocity": 97,
      "chip": "ym2612"
    },
    {
      "channel": 5,
      "note": 48,
      "start": 37.1032,
      "duration": 0.2089,
      "velocity": 127,
      "chip": "ym2612"
    },
    {
      "channel": 0,
      "note": 77,
      "start": 37.3154,
      "duration": 0.1802,
      "velocity": 97,
      "chip": "ym2612"
    },
    {
      "channel": 4,
      "note": 58,
      "start": 37.3168,
      "duration": 0.1796,
      "velocity": 97,
      "chip": "ym2612"
    },
    {
      "channel": 5,
      "note": 57,
      "start": 37.3201,
      "duration": 0.0921,
      "velocity": 115,
      "chip": "ym2612"
    },
    {
      "channel": 5,
      "note": 57,
      "start": 37.419,
      "duration": 0.0931,
      "velocity": 115,
      "chip": "ym2612"
    },
    {
      "channel": 1,
      "note": 77,
      "start": 37.4635,
      "duration": 0.1824,
      "velocity": 97,
      "chip": "ym2612"
    },
    {
      "channel": 0,
      "note": 75,
      "start": 37.5154,
      "duration": 0.1803,
      "velocity": 97,
      "chip": "ym2612"
    },
    {
      "channel": 4,
      "note": 56,
      "start": 37.5172,
      "duration": 0.1792,
      "velocity": 97,
      "chip": "ym2612"
    },
    {
      "channel": 5,
      "note": 56,
      "start": 37.5205,
      "duration": 0.1084,
      "velocity": 117,
      "chip": "ym2612"
    },
    {
      "channel": 5,
      "note": 57,
      "start": 37.6361,
      "duration": 0.0928,
      "velocity": 115,
      "chip": "ym2612"
    },
    {
      "channel": 1,
      "note": 75,
      "start": 37.6802,
      "duration": 0.1826,
      "velocity": 97,
      "chip": "ym2612"
    },
    {
      "channel": 0,
      "note": 78,
      "start": 37.7321,
      "duration": 0.18,
      "velocity": 97,
      "chip": "ym2612"
    },
    {
      "channel": 4,
      "note": 56,
      "start": 37.7334,
      "duration": 0.1794,
      "velocity": 97,
      "chip": "ym2612"
    },
    {
      "channel": 5,
      "note": 57,
      "start": 37.7368,
      "duration": 0.1087,
      "velocity": 115,
      "chip": "ym2612"
    },
    {
      "channel": 5,
      "note": 57,
      "start": 37.8526,
      "duration": 0.093,
      "velocity": 115,
      "chip": "ym2612"
    },
    {
      "channel": 1,
      "note": 78,
      "start": 37.8968,
      "duration": 0.1826,
      "velocity": 97,
      "chip": "ym2612"
    },
    {
      "channel": 0,
      "note": 80,
      "start": 37.9488,
      "duration": 0.1802,
      "velocity": 97,
      "chip": "ym2612"
    },
    {
      "channel": 4,
      "note": 56,
      "start": 37.9501,
      "duration": 0.1796,
      "velocity": 97,
      "chip": "ym2612"
    },
    {
      "channel": 5,
      "note": 56,
      "start": 37.9534,
      "duration": 0.2088,
      "velocity": 117,
      "chip": "ym2612"
    },
    {
      "channel": 1,
      "note": 80,
      "start": 38.1133,
      "duration": 0.1828,
      "velocity": 97,
      "chip": "ym2612"
    },
    {
      "channel": 0,
      "note": 82,
      "start": 38.1655,
      "duration": 0.0799,
      "velocity": 97,
      "chip": "ym2612"
    },
    {
      "channel": 4,
      "note": 56,
      "start": 38.1669,
      "duration": 0.0793,
      "velocity": 97,
      "chip": "ym2612"
    },
    {
      "channel": 5,
      "note": 57,
      "start": 38.1703,
      "duration": 0.0919,
      "velocity": 115,
      "chip": "ym2612"
    },
    {
      "channel": 0,
      "note": 80,
      "start": 38.2655,
      "duration": 0.1799,
      "velocity": 97,
      "chip": "ym2612"
    },
    {
      "channel": 4,
      "note": 54,
      "start": 38.2669,
      "duration": 0.1793,
      "velocity": 97,
      "chip": "ym2612"
    },
    {
      "channel": 5,
      "note": 57,
      "start": 38.2703,
      "duration": 0.1085,
      "velocity": 115,
      "chip": "ym2612"
    },
    {
      "channel": 1,
      "note": 82,
      "start": 38.3134,
      "duration": 0.0827,
      "velocity": 97,
      "chip": "ym2612"
    },
    {
      "channel": 5,
      "note": 56,
      "start": 38.386,
      "duration": 0.0929,
      "velocity": 117,
      "chip": "ym2612"
    },
    {
      "channel": 1,
      "note": 80,
      "start": 38.4302,
      "duration": 0.1825,
      "velocity": 97,
      "chip": "ym2612"
    },
    {
      "channel": 0,
      "note": 78,
      "start": 38.4822,
      "duration": 0.0801,
      "velocity": 97,
      "chip": "ym2612"
    },
    {
      "channel": 4,
      "note": 54,
      "start": 38.4835,
      "duration": 0.1798,
      "velocity": 97,
      "chip": "ym2612"
    },
    {
      "channel": 5,
      "note": 57,
      "start": 38.4868,
      "duration": 0.0919,
      "velocity": 115,
      "chip": "ym2612"
    },
    {
      "channel": 0,
      "note": 77,
      "start": 38.5821,
      "duration": 0.1802,
      "velocity": 97,
      "chip": "ym2612"
    },
    {
      "channel": 5,
      "note": 57,
      "start": 38.5863,
      "duration": 0.1092,
      "velocity": 115,
      "chip": "ym2612"
    },
    {
      "channel": 1,
      "note": 78,
      "start": 38.6466,
      "duration": 0.0828,
      "velocity": 97,
      "chip": "ym2612"
    },
    {
      "channel": 4,
      "note": 54,
      "start": 38.6998,
      "duration": 0.0801,
      "velocity": 97,
      "chip": "ym2612"
    },
    {
      "channel": 5,
      "note": 57,
      "start": 38.7031,
      "duration": 0.0924,
      "velocity": 115,
      "chip": "ym2612"
    },
    {
      "channel": 1,
      "note": 77,
      "start": 38.7469,
      "duration": 0.1825,
      "velocity": 97,
      "chip": "ym2612"
    },
    {
      "channel": 0,
      "note": 75,
      "start": 38.7988,
      "duration": 0.18,
      "velocity": 97,
      "chip": "ym2612"
    },
    {
      "channel": 4,
      "note": 54,
      "start": 38.8001,
      "duration": 0.1794,
      "velocity": 97,
      "chip": "ym2612"
    },
    {
      "channel": 5,
      "note": 56,
      "start": 38.8035,
      "duration": 0.2087,
      "velocity": 117,
      "chip": "ym2612"
    },
    {
      "channel": 1,
      "note": 75,
      "start": 38.9635,
      "duration": 0.1826,
      "velocity": 97,
      "chip": "ym2612"
    },
    {
      "channel": 0,
      "note": 82,
      "start": 39.0155,
      "duration": 0.1802,
      "velocity": 97,
      "chip": "ym2612"
    },
    {
      "channel": 4,
      "note": 54,
      "start": 39.0168,
      "duration": 0.1796,
      "velocity": 97,
      "chip": "ym2612"
    },
    {
      "channel": 5,
      "note": 57,
      "start": 39.0201,
      "duration": 0.092,
      "velocity": 115,
      "chip": "ym2612"
    },
    {
      "channel": 5,
      "note": 57,
      "start": 39.1192,
      "duration": 0.11,
      "velocity": 115,
      "chip": "ym2612"
    },
    {
      "channel": 1,
      "note": 82,
      "start": 39.18,
      "duration": 0.1828,
      "velocity": 97,
      "chip": "ym2612"
    },
    {
      "channel": 0,
      "note": 87,
      "start": 39.2326,
      "duration": 0.1797,
      "velocity": 97,
      "chip": "ym2612"
    },
    {
      "channel": 4,
      "note": 51,
      "start": 39.2344,
      "duration": 0.1786,
      "velocity": 97,
      "chip": "ym2612"
    },
    {
      "channel": 5,
      "note": 56,
      "start": 39.2378,
      "duration": 0.0911,
      "velocity": 117,
      "chip": "ym2612"
    },
    {
      "channel": 5,
      "note": 57,
      "start": 39.336,
      "duration": 0.1094,
      "velocity": 115,
      "chip": "ym2612"
    },
    {
      "channel": 1,
      "note": 87,
      "start": 39.3801,
      "duration": 0.1826,
      "velocity": 97,
      "chip": "ym2612"
    },
    {
      "channel": 0,
      "note": 89,
      "start": 39.4486,
      "duration": 0.1803,
      "velocity": 97,
      "chip": "ym2612"
    },
    {
      "channel": 4,
      "note": 51,
      "start": 39.45,
      "duration": 0.1798,
      "velocity": 97,
      "chip": "ym2612"
    },
    {
      "channel": 5,
      "note": 57,
      "start": 39.4533,
      "duration": 0.0922,
      "velocity": 115,
      "chip": "ym2612"
    },
    {
      "channel": 5,
      "note": 57,
      "start": 39.5527,
      "duration": 0.0927,
      "velocity": 115,
      "chip": "ym2612"
    },
    {
      "channel": 1,
      "note": 89,
      "start": 39.5968,
      "duration": 0.1824,
      "velocity": 97,
      "chip": "ym2612"
    },
    {
      "channel": 0,
      "note": 90,
      "start": 39.6487,
      "duration": 0.1803,
      "velocity": 97,
      "chip": "ym2612"
    },
    {
      "channel": 4,
      "note": 51,
      "start": 39.65,
      "duration": 0.1798,
      "velocity": 97,
      "chip": "ym2612"
    },
    {
      "channel": 5,
      "note": 56,
      "start": 39.6533,
      "duration": 0.2089,
      "velocity": 117,
      "chip": "ym2612"
    },
    {
      "channel": 1,
      "note": 90,
      "start": 39.8135,
      "duration": 0.1826,
      "velocity": 97,
      "chip": "ym2612"
    },
    {
      "channel": 0,
      "note": 94,
      "start": 39.8655,
      "duration": 0.0801,
      "velocity": 97,
      "chip": "ym2612"
    },
    {
      "channel": 4,
      "note": 51,
      "start": 39.8669,
      "duration": 0.0795,
      "velocity": 97,
      "chip": "ym2612"
    },
    {
      "channel": 5,
      "note": 57,
      "start": 39.8703,
      "duration": 0.1085,
      "velocity": 115,
      "chip": "ym2612"
    },
    {
      "channel": 0,
      "note": 92,
      "start": 39.9821,
      "duration": 0.4802,
      "velocity": 97,
      "chip": "ym2612"
    },
    {
      "channel": 4,
      "note": 56,
      "start": 39.9835,
      "duration": 0.1798,
      "velocity": 97,
      "chip": "ym2612"
    },
    {
      "channel": 5,
      "note": 57,
      "start": 39.9869,
      "duration": 0.092,
      "velocity": 115,
      "chip": "ym2612"
    },
    {
      "channel": 1,
      "note": 94,
      "start": 40.0302,
      "duration": 0.0823,
      "velocity": 97,
      "chip": "ym2612"
    },
    {
      "channel": 5,
      "note": 56,
      "start": 40.086,
      "duration": 0.0927,
      "velocity": 117,
      "chip": "ym2612"
    },
    {
      "channel": 1,
      "note": 92,
      "start": 40.1302,
      "duration": 0.4855,
      "velocity": 97,
      "chip": "ym2612"
    },
    {
      "channel": 4,
      "note": 56,
      "start": 40.1829,
      "duration": 0.1805,
      "velocity": 97,
      "chip": "ym2612"
    },
    {
      "channel": 5,
      "note": 57,
      "start": 40.1863,
      "duration": 0.1093,
      "velocity": 115,
      "chip": "ym2612"
    },
    {
      "channel": 5,
      "note": 48,
      "start": 40.3027,
      "duration": 0.0928,
      "velocity": 127,
      "chip": "ym2612"
    },
    {
      "channel": 4,
      "note": 56,
      "start": 40.3998,
      "duration": 0.0802,
      "velocity": 97,
      "chip": "ym2612"
    },
    {
      "channel": 5,
      "note": 48,
      "start": 40.4032,
      "duration": 0.1089,
      "velocity": 127,
      "chip": "ym2612"
    },
    {
      "channel": 0,
      "note": 88,
      "start": 40.5154,
      "duration": 0.4164,
      "velocity": 97,
      "chip": "ym2612"
    },
    {
      "channel": 2,
      "note": 80,
      "start": 40.5168,
      "duration": 0.0465,
      "velocity": 112,
      "chip": "ym2612"
    },
    {
      "channel": 3,
      "note": 71,
      "start": 40.5177,
      "duration": 0.0457,
      "velocity": 97,
      "chip": "ym2612"
    },
    {
      "channel": 4,
      "note": 56,
      "start": 40.5185,
      "duration": 0.179,
      "velocity": 97,
      "chip": "ym2612"
    },
    {
      "channel": 5,
      "note": 56,
      "start": 40.5218,
      "duration": 0.0904,
      "velocity": 117,
      "chip": "ym2612"
    },
    {
      "channel": 5,
      "note": 48,
      "start": 40.6202,
      "duration": 0.0919,
      "velocity": 127,
      "chip": "ym2612"
    },
    {
      "channel": 1,
      "note": 88,
      "start": 40.6635,
      "duration": 0.4328,
      "velocity": 97,
      "chip": "ym2612"
    },
    {
      "channel": 2,
      "note": 80,
      "start": 40.7162,
      "duration": 0.0471,
      "velocity": 112,
      "chip": "ym2612"
    },
    {
      "channel": 4,
      "note": 68,
      "start": 40.7174,
      "duration": 0.18,
      "velocity": 97,
      "chip": "ym2612"
    },
    {
      "channel": 5,
      "note": 48,
      "start": 40.7207,
      "duration": 0.2084,
      "velocity": 127,
      "chip": "ym2612"
    },
    {
      "channel": 2,
      "note": 80,
      "start": 40.8311,
      "duration": 0.0488,
      "velocity": 112,
      "chip": "ym2612"
    },
    {
      "channel": 3,
      "note": 71,
      "start": 40.8319,
      "duration": 0.0482,
      "velocity": 97,
      "chip": "ym2612"
    },
    {
      "channel": 0,
      "note": 83,
      "start": 40.9326,
      "duration": 0.1795,
      "velocity": 97,
      "chip": "ym2612"
    },
    {
      "channel": 2,
      "note": 71,
      "start": 40.9341,
      "duration": 0.0461,
      "velocity": 112,
      "chip": "ym2612"
    },
    {
      "channel": 3,
      "note": 87,
      "start": 40.9351,
      "duration": 0.0452,
      "velocity": 97,
      "chip": "ym2612"
    },
    {
      "channel": 4,
      "note": 56,
      "start": 40.9361,
      "duration": 0.1775,
      "velocity": 97,
      "chip": "ym2612"
    },
    {
      "channel": 5,
      "note": 56,
      "start": 40.9395,
      "duration": 0.106,
      "velocity": 117,
      "chip": "ym2612"
    },
    {
      "channel": 2,
      "note": 71,
      "start": 41.0496,
      "duration": 0.0476,
      "velocity": 112,
      "chip": "ym2612"
    },
    {
      "channel": 3,
      "note": 75,
      "start": 41.0504,
      "duration": 0.0469,
      "velocity": 97,
      "chip": "ym2612"
    },
    {
      "channel": 5,
      "note": 57,
      "start": 41.0541,
      "duration": 0.0915,
      "velocity": 115,
      "chip": "ym2612"
    },
    {
      "channel": 1,
      "note": 83,
      "start": 41.097,
      "duration": 0.1824,
      "velocity": 97,
      "chip": "ym2612"
    },
    {
      "channel": 0,
      "note": 82,
      "start": 41.1488,
      "duration": 0.1802,
      "velocity": 97,
      "chip": "ym2612"
    },
    {
      "channel": 3,
      "note": 75,
      "start": 41.1505,
      "duration": 0.0465,
      "velocity": 97,
      "chip": "ym2612"
    },
    {
      "channel": 4,
      "note": 56,
      "start": 41.1512,
      "duration": 0.1792,
      "velocity": 97,
      "chip": "ym2612"
    },
    {
      "channel": 5,
      "note": 57,
      "start": 41.1545,
      "duration": 0.0909,
      "velocity": 115,
      "chip": "ym2612"
    },
    {
      "channel": 2,
      "note": 83,
      "start": 41.2495,
      "duration": 0.0471,
      "velocity": 112,
      "chip": "ym2612"
    },
    {
      "channel": 3,
      "note": 87,
      "start": 41.2504,
      "duration": 0.0464,
      "velocity": 97,
      "chip": "ym2612"
    },
    {
      "channel": 5,
      "note": 57,
      "start": 41.254,
      "duration": 0.1082,
      "velocity": 115,
      "chip": "ym2612"
    },
    {
      "channel": 1,
      "note": 82,
      "start": 41.3133,
      "duration": 0.1828,
      "velocity": 97,
      "chip": "ym2612"
    },
    {
      "channel": 0,
      "note": 80,
      "start": 41.3655,
      "duration": 0.1802,
      "velocity": 97,
      "chip": "ym2612"
    },
    {
      "channel": 3,
      "note": 75,
      "start": 41.3672,
      "duration": 0.0464,
      "velocity": 97,
      "chip": "ym2612"
    },
    {
      "channel": 4,
      "note": 68,
      "start": 41.3679,
      "duration": 0.1793,
      "velocity": 97,
      "chip": "ym2612"
    },
    {
      "channel": 5,
      "note": 48,
      "start": 41.3713,
      "duration": 0.2075,
      "velocity": 127,
      "chip": "ym2612"
    },
    {
      "channel": 2,
      "note": 80,
      "start": 41.4639,
      "duration": 0.0495,
      "velocity": 112,
      "chip": "ym2612"
    },
    {
      "channel": 1,
      "note": 80,
      "start": 41.5132,
      "duration": 0.1828,
      "velocity": 97,
      "chip": "ym2612"
    },
    {
      "channel": 0,
      "note": 75,
      "start": 41.5821,
      "duration": 0.0802,
      "velocity": 97,
      "chip": "ym2612"
    },
    {
      "channel": 3,
      "note": 80,
      "start": 41.5839,
      "duration": 0.1798,
      "velocity": 97,
      "chip": "ym2612"
    },
    {
      "channel": 4,
      "note": 59,
      "start": 41.5847,
      "duration": 0.0791,
      "velocity": 97,
      "chip": "ym2612"
    },
    {
      "channel": 5,
      "note": 57,
      "start": 41.588,
      "duration": 0.0908,
      "velocity": 115,
      "chip": "ym2612"
    },
    {
      "channel": 0,
      "note": 71,
      "start": 41.6822,
      "duration": 0.2801,
      "velocity": 97,
      "chip": "ym2612"
    },
    {
      "channel": 2,
      "note": 75,
      "start": 41.6835,
      "duration": 0.0468,
      "velocity": 112,
      "chip": "ym2612"
    },
    {
      "channel": 4,
      "note": 51,
      "start": 41.6847,
      "duration": 0.1793,
      "velocity": 97,
      "chip": "ym2612"
    },
    {
      "channel": 5,
      "note": 57,
      "start": 41.6881,
      "duration": 0.0907,
      "velocity": 115,
      "chip": "ym2612"
    },
    {
      "channel": 1,
      "note": 75,
      "start": 41.7302,
      "duration": 0.0826,
      "velocity": 97,
      "chip": "ym2612"
    },
    {
      "channel": 2,
      "note": 83,
      "start": 41.783,
      "duration": 0.047,
      "velocity": 112,
      "chip": "ym2612"
    },
    {
      "channel": 3,
      "note": 78,
      "start": 41.7839,
      "duration": 0.0463,
      "velocity": 97,
      "chip": "ym2612"
    },
    {
      "channel": 5,
      "note": 56,
      "start": 41.7876,
      "duration": 0.108,
      "velocity": 117,
      "chip": "ym2612"
    },
    {
      "channel": 1,
      "note": 71,
      "start": 41.8467,
      "duration": 0.2827,
      "velocity": 97,
      "chip": "ym2612"
    },
    {
      "channel": 3,
      "note": 66,
      "start": 41.9001,
      "duration": 0.0469,
      "velocity": 97,
      "chip": "ym2612"
    },
    {
      "channel": 4,
      "note": 51,
      "start": 41.9008,
      "duration": 0.18,
      "velocity": 97,
      "chip": "ym2612"
    },
    {
      "channel": 5,
      "note": 57,
      "start": 41.9041,
      "duration": 0.0914,
      "velocity": 115,
      "chip": "ym2612"
    },
    {
      "channel": 0,
      "note": 78,
      "start": 41.9988,
      "duration": 0.2802,
      "velocity": 97,
      "chip": "ym2612"
    },
    {
      "channel": 2,
      "note": 71,
      "start": 42.0001,
      "duration": 0.0462,
      "velocity": 112,
      "chip": "ym2612"
    },
    {
      "channel": 5,
      "note": 57,
      "start": 42.0041,
      "duration": 0.108,
      "velocity": 115,
      "chip": "ym2612"
    },
    {
      "channel": 2,
      "note": 83,
      "start": 42.1162,
      "duration": 0.0474,
      "velocity": 112,
      "chip": "ym2612"
    },
    {
      "channel": 3,
      "note": 78,
      "start": 42.1171,
      "duration": 0.0467,
      "velocity": 97,
      "chip": "ym2612"
    },
    {
      "channel": 4,
      "note": 51,
      "start": 42.1178,
      "duration": 0.0795,
      "velocity": 97,
      "chip": "ym2612"
    },
    {
      "channel": 5,
      "note": 57,
      "start": 42.1212,
      "duration": 0.091,
      "velocity": 115,
      "chip": "ym2612"
    },
    {
      "channel": 1,
      "note": 78,
      "start": 42.1635,
      "duration": 0.2824,
      "velocity": 97,
      "chip": "ym2612"
    },
    {
      "channel": 2,
      "note": 83,
      "start": 42.2164,
      "duration": 0.0468,
      "velocity": 112,
      "chip": "ym2612"
    },
    {
      "channel": 3,
      "note": 78,
      "start": 42.2172,
      "duration": 0.0461,
      "velocity": 97,
      "chip": "ym2612"
    },
    {
      "channel": 4,
      "note": 63,
      "start": 42.218,
      "duration": 0.1796,
      "velocity": 97,
      "chip": "ym2612"
    },
    {
      "channel": 5,
      "note": 48,
      "start": 42.2214,
      "duration": 0.2075,
      "velocity": 127,
      "chip": "ym2612"
    },
    {
      "channel": 0,
      "note": 83,
      "start": 42.3128,
      "duration": 0.2828,
      "velocity": 97,
      "chip": "ym2612"
    },
    {
      "channel": 2,
      "note": 71,
      "start": 42.433,
      "duration": 0.0473,
      "velocity": 112,
      "chip": "ym2612"
    },
    {
      "channel": 3,
      "note": 90,
      "start": 42.4339,
      "duration": 0.0466,
      "velocity": 97,
      "chip": "ym2612"
    },
    {
      "channel": 4,
      "note": 58,
      "start": 42.4346,
      "duration": 0.1794,
      "velocity": 97,
      "chip": "ym2612"
    },
    {
      "channel": 5,
      "note": 57,
      "start": 42.438,
      "duration": 0.0909,
      "velocity": 115,
      "chip": "ym2612"
    },
    {
      "channel": 1,
      "note": 83,
      "start": 42.4802,
      "duration": 0.2826,
      "velocity": 97,
      "chip": "ym2612"
    },
    {
      "channel": 2,
      "note": 83,
      "start": 42.533,
      "duration": 0.0467,
      "velocity": 112,
      "chip": "ym2612"
    },
    {
      "channel": 3,
      "note": 78,
      "start": 42.5339,
      "duration": 0.046,
      "velocity": 97,
      "chip": "ym2612"
    },
    {
      "channel": 5,
      "note": 57,
      "start": 42.5375,
      "duration": 0.1083,
      "velocity": 115,
      "chip": "ym2612"
    },
    {
      "channel": 0,
      "note": 82,
      "start": 42.6493,
      "duration": 0.1797,
      "velocity": 97,
      "chip": "ym2612"
    },
    {
      "channel": 2,
      "note": 82,
      "start": 42.6506,
      "duration": 0.0459,
      "velocity": 112,
      "chip": "ym2612"
    },
    {
      "channel": 4,
      "note": 54,
      "start": 42.6516,
      "duration": 0.1784,
      "velocity": 97,
      "chip": "ym2612"
    },
    {
      "channel": 5,
      "note": 56,
      "start": 42.6549,
      "duration": 0.0906,
      "velocity": 117,
      "chip": "ym2612"
    },
    {
      "channel": 2,
      "note": 70,
      "start": 42.7497,
      "duration": 0.0474,
      "velocity": 112,
      "chip": "ym2612"
    },
    {
      "channel": 5,
      "note": 57,
      "start": 42.7534,
      "duration": 0.092,
      "velocity": 115,
      "chip": "ym2612"
    },
    {
      "channel": 1,
      "note": 82,
      "start": 42.797,
      "duration": 0.1822,
      "velocity": 97,
      "chip": "ym2612"
    },
    {
      "channel": 0,
      "note": 83,
      "start": 42.8486,
      "duration": 0.1803,
      "velocity": 97,
      "chip": "ym2612"
    },
    {
      "channel": 2,
      "note": 82,
      "start": 42.85,
      "duration": 0.0467,
      "velocity": 112,
      "chip": "ym2612"
    },
    {
      "channel": 3,
      "note": 73,
      "start": 42.8508,
      "duration": 0.046,
      "velocity": 97,
      "chip": "ym2612"
    },
    {
      "channel": 4,
      "note": 58,
      "start": 42.8515,
      "duration": 0.179,
      "velocity": 97,
      "chip": "ym2612"
    },
    {
      "channel": 5,
      "note": 57,
      "start": 42.8549,
      "duration": 0.1074,
      "velocity": 115,
      "chip": "ym2612"
    },
    {
      "channel": 2,
      "note": 82,
      "start": 42.9664,
      "duration": 0.0472,
      "velocity": 112,
      "chip": "ym2612"
    },
    {
      "channel": 3,
      "note": 85,
      "start": 42.9673,
      "duration": 0.0465,
      "velocity": 97,
      "chip": "ym2612"
    },
    {
      "channel": 5,
      "note": 57,
      "start": 42.971,
      "duration": 0.0913,
      "velocity": 115,
      "chip": "ym2612"
    },
    {
      "channel": 1,
      "note": 83,
      "start": 43.0135,
      "duration": 0.1826,
      "velocity": 97,
      "chip": "ym2612"
    },
    {
      "channel": 0,
      "note": 82,
      "start": 43.0655,
      "duration": 0.18,
      "velocity": 97,
      "chip": "ym2612"
    },
    {
      "channel": 3,
      "note": 97,
      "start": 43.0672,
      "duration": 0.0463,
      "velocity": 97,
      "chip": "ym2612"
    },
    {
      "channel": 4,
      "note": 66,
      "start": 43.0679,
      "duration": 0.1791,
      "velocity": 97,
      "chip": "ym2612"
    },
    {
      "channel": 5,
      "note": 48,
      "start": 43.0713,
      "duration": 0.2076,
      "velocity": 127,
      "chip": "ym2612"
    },
    {
      "channel": 2,
      "note": 82,
      "start": 43.1804,
      "duration": 0.0499,
      "velocity": 112,
      "chip": "ym2612"
    },
    {
      "channel": 1,
      "note": 82,
      "start": 43.2302,
      "duration": 0.1826,
      "velocity": 97,
      "chip": "ym2612"
    },
    {
      "channel": 0,
      "note": 78,
      "start": 43.2822,
      "duration": 0.0801,
      "velocity": 97,
      "chip": "ym2612"
    },
    {
      "channel": 3,
      "note": 85,
      "start": 43.2839,
      "duration": 0.0464,
      "velocity": 97,
      "chip": "ym2612"
    },
    {
      "channel": 4,
      "note": 61,
      "start": 43.2847,
      "duration": 0.0791,
      "velocity": 97,
      "chip": "ym2612"
    },
    {
      "channel": 5,
      "note": 57,
      "start": 43.288,
      "duration": 0.0907,
      "velocity": 115,
      "chip": "ym2612"
    },
    {
      "channel": 0,
      "note": 80,
      "start": 43.3821,
      "duration": 0.2802,
      "velocity": 97,
      "chip": "ym2612"
    },
    {
      "channel": 2,
      "note": 87,
      "start": 43.3834,
      "duration": 0.0466,
      "velocity": 112,
      "chip": "ym2612"
    },
    {
      "channel": 3,
      "note": 97,
      "start": 43.3842,
      "duration": 0.0459,
      "velocity": 97,
      "chip": "ym2612"
    },
    {
      "channel": 4,
      "note": 59,
      "start": 43.385,
      "duration": 0.179,
      "velocity": 97,
      "chip": "ym2612"
    },
    {
      "channel": 5,
      "note": 57,
      "start": 43.3884,
      "duration": 0.1073,
      "velocity": 115,
      "chip": "ym2612"
    },
    {
      "channel": 1,
      "note": 78,
      "start": 43.4466,
      "duration": 0.0828,
      "velocity": 97,
      "chip": "ym2612"
    },
    {
      "channel": 2,
      "note": 75,
      "start": 43.4998,
      "duration": 0.0472,
      "velocity": 112,
      "chip": "ym2612"
    },
    {
      "channel": 3,
      "note": 87,
      "start": 43.5007,
      "duration": 0.0466,
      "velocity": 97,
      "chip": "ym2612"
    },
    {
      "channel": 5,
      "note": 56,
      "start": 43.5043,
      "duration": 0.0912,
      "velocity": 117,
      "chip": "ym2612"
    },
    {
      "channel": 1,
      "note": 80,
      "start": 43.5469,
      "duration": 0.2825,
      "velocity": 97,
      "chip": "ym2612"
    },
    {
      "channel": 3,
      "note": 87,
      "start": 43.6001,
      "duration": 0.0467,
      "velocity": 97,
      "chip": "ym2612"
    },
    {
      "channel": 4,
      "note": 59,
      "start": 43.6008,
      "duration": 0.1798,
      "velocity": 97,
      "chip": "ym2612"
    },
    {
      "channel": 5,
      "note": 57,
      "start": 43.6041,
      "duration": 0.108,
      "velocity": 115,
      "chip": "ym2612"
    },
    {
      "channel": 0,
      "note": 78,
      "start": 43.7154,
      "duration": 0.3635,
      "velocity": 97,
      "chip": "ym2612"
    },
    {
      "channel": 2,
      "note": 87,
      "start": 43.7168,
      "duration": 0.0464,
      "velocity": 112,
      "chip": "ym2612"
    },
    {
      "channel": 5,
      "note": 57,
      "start": 43.7209,
      "duration": 0.0913,
      "velocity": 115,
      "chip": "ym2612"
    },
    {
      "channel": 3,
      "note": 87,
      "start": 43.8168,
      "duration": 0.0473,
      "velocity": 97,
      "chip": "ym2612"
    },
    {
      "channel": 4,
      "note": 59,
      "start": 43.8176,
      "duration": 0.0798,
      "velocity": 97,
      "chip": "ym2612"
    },
    {
      "channel": 5,
      "note": 57,
      "start": 43.821,
      "duration": 0.0912,
      "velocity": 115,
      "chip": "ym2612"
    },
    {
      "channel": 1,
      "note": 78,
      "start": 43.8635,
      "duration": 0.366,
      "velocity": 97,
      "chip": "ym2612"
    },
    {
      "channel": 2,
      "note": 87,
      "start": 43.9162,
      "duration": 0.0471,
      "velocity": 112,
      "chip": "ym2612"
    },
    {
      "channel": 3,
      "note": 87,
      "start": 43.9171,
      "duration": 0.0464,
      "velocity": 97,
      "chip": "ym2612"
    },
    {
      "channel": 4,
      "note": 71,
      "start": 43.9179,
      "duration": 0.1796,
      "velocity": 97,
      "chip": "ym2612"
    },
    {
      "channel": 5,
      "note": 48,
      "start": 43.9213,
      "duration": 0.2076,
      "velocity": 127,
      "chip": "ym2612"
    },
    {
      "channel": 2,
      "note": 75,
      "start": 44.0306,
      "duration": 0.0489,
      "velocity": 112,
      "chip": "ym2612"
    },
    {
      "channel": 0,
      "note": 77,
      "start": 44.1322,
      "duration": 0.1799,
      "velocity": 97,
      "chip": "ym2612"
    },
    {
      "channel": 3,
      "note": 87,
      "start": 44.1339,
      "duration": 0.0462,
      "velocity": 97,
      "chip": "ym2612"
    },
    {
      "channel": 4,
      "note": 70,
      "start": 44.1346,
      "duration": 0.1789,
      "velocity": 97,
      "chip": "ym2612"
    },
    {
      "channel": 5,
      "note": 57,
      "start": 44.138,
      "duration": 0.1074,
      "velocity": 115,
      "chip": "ym2612"
    },
    {
      "channel": 2,
      "note": 87,
      "start": 44.2496,
      "duration": 0.0475,
      "velocity": 112,
      "chip": "ym2612"
    },
    {
      "channel": 3,
      "note": 87,
      "start": 44.2504,
      "duration": 0.0468,
      "velocity": 97,
      "chip": "ym2612"
    },
    {
      "channel": 5,
      "note": 57,
      "start": 44.2541,
      "duration": 0.0919,
      "velocity": 115,
      "chip": "ym2612"
    },
    {
      "channel": 1,
      "note": 77,
      "start": 44.2969,
      "duration": 0.1825,
      "velocity": 97,
      "chip": "ym2612"
    },
    {
      "channel": 0,
      "note": 75,
      "start": 44.3492,
      "duration": 0.1798,
      "velocity": 97,
      "chip": "ym2612"
    },
    {
      "channel": 2,
      "note": 71,
      "start": 44.3505,
      "duration": 0.0461,
      "velocity": 112,
      "chip": "ym2612"
    },
    {
      "channel": 3,
      "note": 92,
      "start": 44.3513,
      "duration": 0.0454,
      "velocity": 97,
      "chip": "ym2612"
    },
    {
      "channel": 4,
      "note": 56,
      "start": 44.352,
      "duration": 0.1784,
      "velocity": 97,
      "chip": "ym2612"
    },
    {
      "channel": 5,
      "note": 56,
      "start": 44.3554,
      "duration": 0.0901,
      "velocity": 117,
      "chip": "ym2612"
    },
    {
      "channel": 2,
      "note": 80,
      "start": 44.4495,
      "duration": 0.0471,
      "velocity": 112,
      "chip": "ym2612"
    },
    {
      "channel": 3,
      "note": 80,
      "start": 44.4503,
      "duration": 0.0464,
      "velocity": 97,
      "chip": "ym2612"
    },
    {
      "channel": 5,
      "note": 57,
      "start": 44.454,
      "duration": 0.1082,
      "velocity": 115,
      "chip": "ym2612"
    },
    {
      "channel": 1,
      "note": 75,
      "start": 44.5133,
      "duration": 0.1828,
      "velocity": 97,
      "chip": "ym2612"
    },
    {
      "channel": 0,
      "note": 78,
      "start": 44.5654,
      "duration": 0.1802,
      "velocity": 97,
      "chip": "ym2612"
    },
    {
      "channel": 2,
      "note": 87,
      "start": 44.5668,
      "duration": 0.0464,
      "velocity": 112,
      "chip": "ym2612"
    },
    {
      "channel": 3,
      "note": 68,
      "start": 44.5676,
      "duration": 0.0457,
      "velocity": 97,
      "chip": "ym2612"
    },
    {
      "channel": 4,
      "note": 56,
      "start": 44.5683,
      "duration": 0.1789,
      "velocity": 97,
      "chip": "ym2612"
    },
    {
      "channel": 5,
      "note": 57,
      "start": 44.5717,
      "duration": 0.0906,
      "velocity": 115,
      "chip": "ym2612"
    },
    {
      "channel": 2,
      "note": 83,
      "start": 44.6664,
      "duration": 0.047,
      "velocity": 112,
      "chip": "ym2612"
    },
    {
      "channel": 5,
      "note": 57,
      "start": 44.6704,
      "duration": 0.1083,
      "velocity": 115,
      "chip": "ym2612"
    },
    {
      "channel": 1,
      "note": 78,
      "start": 44.7132,
      "duration": 0.1828,
      "velocity": 97,
      "chip": "ym2612"
    },
    {
      "channel": 0,
      "note": 80,
      "start": 44.782,
      "duration": 0.1803,
      "velocity": 97,
      "chip": "ym2612"
    },
    {
      "channel": 3,
      "note": 80,
      "start": 44.7837,
      "duration": 0.0466,
      "velocity": 97,
      "chip": "ym2612"
    },
    {
      "channel": 4,
      "note": 68,
      "start": 44.7844,
      "duration": 0.1793,
      "velocity": 97,
      "chip": "ym2612"
    },
    {
      "channel": 5,
      "note": 48,
      "start": 44.7878,
      "duration": 0.191,
      "velocity": 127,
      "chip": "ym2612"
    },
    {
      "channel": 2,
      "note": 87,
      "start": 44.8806,
      "duration": 0.0496,
      "velocity": 112,
      "chip": "ym2612"
    },
    {
      "channel": 3,
      "note": 92,
      "start": 44.8815,
      "duration": 0.0489,
      "velocity": 97,
      "chip": "ym2612"
    },
    {
      "channel": 1,
      "note": 80,
      "start": 44.9301,
      "duration": 0.1824,
      "velocity": 97,
      "chip": "ym2612"
    },
    {
      "channel": 0,
      "note": 82,
      "start": 44.9821,
      "duration": 0.0802,
      "velocity": 97,
      "chip": "ym2612"
    },
    {
      "channel": 3,
      "note": 90,
      "start": 44.9838,
      "duration": 0.0466,
      "velocity": 97,
      "chip": "ym2612"
    },
    {
      "channel": 4,
      "note": 59,
      "start": 44.9846,
      "duration": 0.0793,
      "velocity": 97,
      "chip": "ym2612"
    },
    {
      "channel": 5,
      "note": 57,
      "start": 44.9879,
      "duration": 0.1076,
      "velocity": 115,
      "chip": "ym2612"
    },
    {
      "channel": 0,
      "note": 80,
      "start": 45.0989,
      "duration": 0.1801,
      "velocity": 97,
      "chip": "ym2612"
    },
    {
      "channel": 2,
      "note": 78,
      "start": 45.1002,
      "duration": 0.0468,
      "velocity": 112,
      "chip": "ym2612"
    },
    {
      "channel": 4,
      "note": 54,
      "start": 45.1014,
      "duration": 0.1791,
      "velocity": 97,
      "chip": "ym2612"
    },
    {
      "channel": 5,
      "note": 57,
      "start": 45.1048,
      "duration": 0.0909,
      "velocity": 115,
      "chip": "ym2612"
    },
    {
      "channel": 1,
      "note": 82,
      "start": 45.1468,
      "duration": 0.0826,
      "velocity": 97,
      "chip": "ym2612"
    },
    {
      "channel": 3,
      "note": 90,
      "start": 45.2002,
      "duration": 0.0471,
      "velocity": 97,
      "chip": "ym2612"
    },
    {
      "channel": 5,
      "note": 56,
      "start": 45.2039,
      "duration": 0.1082,
      "velocity": 117,
      "chip": "ym2612"
    },
    {
      "channel": 1,
      "note": 80,
      "start": 45.2466,
      "duration": 0.1828,
      "velocity": 97,
      "chip": "ym2612"
    },
    {
      "channel": 0,
      "note": 78,
      "start": 45.3154,
      "duration": 0.0802,
      "velocity": 97,
      "chip": "ym2612"
    },
    {
      "channel": 2,
      "note": 73,
      "start": 45.3167,
      "duration": 0.0465,
      "velocity": 112,
      "chip": "ym2612"
    },
    {
      "channel": 4,
      "note": 54,
      "start": 45.3178,
      "duration": 0.1795,
      "velocity": 97,
      "chip": "ym2612"
    },
    {
      "channel": 5,
      "note": 57,
      "start": 45.3212,
      "duration": 0.091,
      "velocity": 115,
      "chip": "ym2612"
    },
    {
      "channel": 0,
      "note": 77,
      "start": 45.4155,
      "duration": 0.1801,
      "velocity": 97,
      "chip": "ym2612"
    },
    {
      "channel": 2,
      "note": 78,
      "start": 45.4169,
      "duration": 0.0468,
      "velocity": 112,
      "chip": "ym2612"
    },
    {
      "channel": 3,
      "note": 90,
      "start": 45.4177,
      "duration": 0.0461,
      "velocity": 97,
      "chip": "ym2612"
    },
    {
      "channel": 5,
      "note": 57,
      "start": 45.4214,
      "duration": 0.0907,
      "velocity": 115,
      "chip": "ym2612"
    },
    {
      "channel": 1,
      "note": 78,
      "start": 45.4635,
      "duration": 0.0826,
      "velocity": 97,
      "chip": "ym2612"
    },
    {
      "channel": 2,
      "note": 70,
      "start": 45.5162,
      "duration": 0.0471,
      "velocity": 112,
      "chip": "ym2612"
    },
    {
      "channel": 3,
      "note": 90,
      "start": 45.5171,
      "duration": 0.0464,
      "velocity": 97,
      "chip": "ym2612"
    },
    {
      "channel": 4,
      "note": 54,
      "start": 45.5178,
      "duration": 0.0793,
      "velocity": 97,
      "chip": "ym2612"
    },
    {
      "channel": 5,
      "note": 57,
      "start": 45.5212,
      "duration": 0.1077,
      "velocity": 115,
      "chip": "ym2612"
    },
    {
      "channel": 1,
      "note": 77,
      "start": 45.58,
      "duration": 0.1827,
      "velocity": 97,
      "chip": "ym2612"
    },
    {
      "channel": 0,
      "note": 75,
      "start": 45.6321,
      "duration": 0.1802,
      "velocity": 97,
      "chip": "ym2612"
    },
    {
      "channel": 2,
      "note": 73,
      "start": 45.6334,
      "duration": 0.0464,
      "velocity": 112,
      "chip": "ym2612"
    },
    {
      "channel": 4,
      "note": 66,
      "start": 45.6346,
      "duration": 0.1792,
      "velocity": 97,
      "chip": "ym2612"
    },
    {
      "channel": 5,
      "note": 48,
      "start": 45.638,
      "duration": 0.2074,
      "velocity": 127,
      "chip": "ym2612"
    },
    {
      "channel": 3,
      "note": 90,
      "start": 45.731,
      "duration": 0.0495,
      "velocity": 97,
      "chip": "ym2612"
    },
    {
      "channel": 1,
      "note": 75,
      "start": 45.7799,
      "duration": 0.1828,
      "velocity": 97,
      "chip": "ym2612"
    },
    {
      "channel": 0,
      "note": 82,
      "start": 45.8487,
      "duration": 0.1803,
      "velocity": 97,
      "chip": "ym2612"
    },
    {
      "channel": 2,
      "note": 85,
      "start": 45.85,
      "duration": 0.0466,
      "velocity": 112,
      "chip": "ym2612"
    },
    {
      "channel": 4,
      "note": 54,
      "start": 45.8511,
      "duration": 0.1794,
      "velocity": 97,
      "chip": "ym2612"
    },
    {
      "channel": 5,
      "note": 57,
      "start": 45.8545,
      "duration": 0.0911,
      "velocity": 115,
      "chip": "ym2612"
    },
    {
      "channel": 3,
      "note": 90,
      "start": 45.9501,
      "duration": 0.0472,
      "velocity": 97,
      "chip": "ym2612"
    },
    {
      "channel": 5,
      "note": 57,
      "start": 45.9538,
      "duration": 0.092,
      "velocity": 115,
      "chip": "ym2612"
    },
    {
      "channel": 1,
      "note": 82,
      "start": 45.9968,
      "duration": 0.1824,
      "velocity": 97,
      "chip": "ym2612"
    },
    {
      "channel": 0,
      "note": 87,
      "start": 46.0492,
      "duration": 0.1798,
      "velocity": 97,
      "chip": "ym2612"
    },
    {
      "channel": 2,
      "note": 87,
      "start": 46.0505,
      "duration": 0.0462,
      "velocity": 112,
      "chip": "ym2612"
    },
    {
      "channel": 4,
      "note": 51,
      "start": 46.0515,
      "duration": 0.1786,
      "velocity": 97,
      "chip": "ym2612"
    },
    {
      "channel": 5,
      "note": 56,
      "start": 46.0549,
      "duration": 0.1074,
      "velocity": 117,
      "chip": "ym2612"
    },
    {
      "channel": 2,
      "note": 85,
      "start": 46.1664,
      "duration": 0.0474,
      "velocity": 112,
      "chip": "ym2612"
    },
    {
      "channel": 5,
      "note": 57,
      "start": 46.1702,
      "duration": 0.092,
      "velocity": 115,
      "chip": "ym2612"
    },
    {
      "channel": 1,
      "note": 87,
      "start": 46.2137,
      "duration": 0.1824,
      "velocity": 97,
      "chip": "ym2612"
    },
    {
      "channel": 0,
      "note": 85,
      "start": 46.2655,
      "duration": 0.18,
      "velocity": 97,
      "chip": "ym2612"
    },
    {
      "channel": 2,
      "note": 82,
      "start": 46.2668,
      "duration": 0.0462,
      "velocity": 112,
      "chip": "ym2612"
    },
    {
      "channel": 3,
      "note": 82,
      "start": 46.2676,
      "duration": 0.0456,
      "velocity": 97,
      "chip": "ym2612"
    },
    {
      "channel": 4,
      "note": 54,
      "start": 46.2683,
      "duration": 0.1786,
      "velocity": 97,
      "chip": "ym2612"
    },
    {
      "channel": 5,
      "note": 57,
      "start": 46.2717,
      "duration": 0.1071,
      "velocity": 115,
      "chip": "ym2612"
    },
    {
      "channel": 2,
      "note": 87,
      "start": 46.3829,
      "duration": 0.0474,
      "velocity": 112,
      "chip": "ym2612"
    },
    {
      "channel": 3,
      "note": 82,
      "start": 46.3837,
      "duration": 0.0467,
      "velocity": 97,
      "chip": "ym2612"
    },
    {
      "channel": 5,
      "note": 57,
      "start": 46.3874,
      "duration": 0.0915,
      "velocity": 115,
      "chip": "ym2612"
    },
    {
      "channel": 1,
      "note": 85,
      "start": 46.4302,
      "duration": 0.1826,
      "velocity": 97,
      "chip": "ym2612"
    },
    {
      "channel": 0,
      "note": 83,
      "start": 46.4822,
      "duration": 0.0801,
      "velocity": 97,
      "chip": "ym2612"
    },
    {
      "channel": 2,
      "note": 85,
      "start": 46.4835,
      "duration": 0.0464,
      "velocity": 112,
      "chip": "ym2612"
    },
    {
      "channel": 4,
      "note": 63,
      "start": 46.4846,
      "duration": 0.1788,
      "velocity": 97,
      "chip": "ym2612"
    },
    {
      "channel": 5,
      "note": 48,
      "start": 46.4879,
      "duration": 0.2076,
      "velocity": 127,
      "chip": "ym2612"
    },
    {
      "channel": 0,
      "note": 82,
      "start": 46.5795,
      "duration": 0.0828,
      "velocity": 97,
      "chip": "ym2612"
    },
    {
      "channel": 2,
      "note": 78,
      "start": 46.5807,
      "duration": 0.0492,
      "velocity": 112,
      "chip": "ym2612"
    },
    {
      "channel": 1,
      "note": 83,
      "start": 46.6467,
      "duration": 0.0827,
      "velocity": 97,
      "chip": "ym2612"
    },
    {
      "channel": 0,
      "note": 78,
      "start": 46.6988,
      "duration": 0.08,
      "velocity": 97,
      "chip": "ym2612"
    },
    {
      "channel": 2,
      "note": 75,
      "start": 46.7001,
      "duration": 0.0468,
      "velocity": 112,
      "chip": "ym2612"
    },
    {
      "channel": 3,
      "note": 82,
      "start": 46.7009,
      "duration": 0.0462,
      "velocity": 97,
      "chip": "ym2612"
    },
    {
      "channel": 4,
      "note": 58,
      "start": 46.7017,
      "duration": 0.0785,
      "velocity": 97,
      "chip": "ym2612"
    },
    {
      "channel": 5,
      "note": 57,
      "start": 46.7051,
      "duration": 0.0905,
      "velocity": 115,
      "chip": "ym2612"
    },
    {
      "channel": 1,
      "note": 82,
      "start": 46.7468,
      "duration": 0.0826,
      "velocity": 97,
      "chip": "ym2612"
    },
    {
      "channel": 0,
      "note": 80,
      "start": 46.7989,
      "duration": 0.6801,
      "velocity": 97,
      "chip": "ym2612"
    },
    {
      "channel": 2,
      "note": 78,
      "start": 46.8001,
      "duration": 0.0466,
      "velocity": 112,
      "chip": "ym2612"
    },
    {
      "channel": 3,
      "note": 82,
      "start": 46.801,
      "duration": 0.0459,
      "velocity": 97,
      "chip": "ym2612"
    },
    {
      "channel": 4,
      "note": 56,
      "start": 46.8017,
      "duration": 0.1784,
      "velocity": 97,
      "chip": "ym2612"
    },
    {
      "channel": 5,
      "note": 57,
      "start": 46.8051,
      "duration": 0.107,
      "velocity": 115,
      "chip": "ym2612"
    },
    {
      "channel": 1,
      "note": 78,
      "start": 46.8466,
      "duration": 0.0828,
      "velocity": 97,
      "chip": "ym2612"
    },
    {
      "channel": 2,
      "note": 87,
      "start": 46.9162,
      "duration": 0.0475,
      "velocity": 112,
      "chip": "ym2612"
    },
    {
      "channel": 5,
      "note": 56,
      "start": 46.9202,
      "duration": 0.1919,
      "velocity": 117,
      "chip": "ym2612"
    },
    {
      "channel": 1,
      "note": 80,
      "start": 46.9636,
      "duration": 0.6827,
      "velocity": 97,
      "chip": "ym2612"
    },
    {
      "channel": 2,
      "note": 92,
      "start": 47.0139,
      "duration": 0.0493,
      "velocity": 112,
      "chip": "ym2612"
    },
    {
      "channel": 4,
      "note": 56,
      "start": 47.0146,
      "duration": 0.1828,
      "velocity": 97,
      "chip": "ym2612"
    },
    {
      "channel": 2,
      "note": 90,
      "start": 47.1162,
      "duration": 0.0471,
      "velocity": 112,
      "chip": "ym2612"
    },
    {
      "channel": 3,
      "note": 83,
      "start": 47.1171,
      "duration": 0.0464,
      "velocity": 97,
      "chip": "ym2612"
    },
    {
      "channel": 5,
      "note": 48,
      "start": 47.1207,
      "duration": 0.1081,
      "velocity": 127,
      "chip": "ym2612"
    },
    {
      "channel": 2,
      "note": 87,
      "start": 47.233,
      "duration": 0.0468,
      "velocity": 112,
      "chip": "ym2612"
    },
    {
      "channel": 3,
      "note": 83,
      "start": 47.2339,
      "duration": 0.0461,
      "velocity": 97,
      "chip": "ym2612"
    },
    {
      "channel": 4,
      "note": 56,
      "start": 47.2347,
      "duration": 0.0792,
      "velocity": 97,
      "chip": "ym2612"
    },
    {
      "channel": 5,
      "note": 48,
      "start": 47.2381,
      "duration": 0.0908,
      "velocity": 127,
      "chip": "ym2612"
    },
    {
      "channel": 2,
      "note": 83,
      "start": 47.3331,
      "duration": 0.0466,
      "velocity": 112,
      "chip": "ym2612"
    },
    {
      "channel": 4,
      "note": 68,
      "start": 47.3343,
      "duration": 0.1796,
      "velocity": 97,
      "chip": "ym2612"
    },
    {
      "channel": 5,
      "note": 56,
      "start": 47.3377,
      "duration": 0.1078,
      "velocity": 117,
      "chip": "ym2612"
    },
    {
      "channel": 3,
      "note": 83,
      "start": 47.45,
      "duration": 0.047,
      "velocity": 97,
      "chip": "ym2612"
    },
    {
      "channel": 5,
      "note": 48,
      "start": 47.4537,
      "duration": 0.0919,
      "velocity": 127,
      "chip": "ym2612"
    },
    {
      "channel": 0,
      "note": 78,
      "start": 47.5489,
      "duration": 0.0801,
      "velocity": 97,
      "chip": "ym2612"
    },
    {
      "channel": 2,
      "note": 80,
      "start": 47.5501,
      "duration": 0.0464,
      "velocity": 112,
      "chip": "ym2612"
    },
    {
      "channel": 3,
      "note": 83,
      "start": 47.551,
      "duration": 0.0457,
      "velocity": 97,
      "chip": "ym2612"
    },
    {
      "channel": 4,
      "note": 56,
      "start": 47.5517,
      "duration": 0.1788,
      "velocity": 97,
      "chip": "ym2612"
    },
    {
      "channel": 5,
      "note": 48,
      "start": 47.5551,
      "duration": 0.2074,
      "velocity": 127,
      "chip": "ym2612"
    },
    {
      "channel": 0,
      "note": 80,
      "start": 47.6461,
      "duration": 0.0828,
      "velocity": 97,
      "chip": "ym2612"
    },
    {
      "channel": 3,
      "note": 83,
      "start": 47.6476,
      "duration": 0.0495,
      "velocity": 97,
      "chip": "ym2612"
    },
    {
      "channel": 1,
      "note": 78,
      "start": 47.7133,
      "duration": 0.0828,
      "velocity": 97,
      "chip": "ym2612"
    },
    {
      "channel": 0,
      "note": 83,
      "start": 47.7658,
      "duration": 0.1798,
      "velocity": 97,
      "chip": "ym2612"
    },
    {
      "channel": 2,
      "note": 71,
      "start": 47.7673,
      "duration": 0.0462,
      "velocity": 112,
      "chip": "ym2612"
    },
    {
      "channel": 3,
      "note": 87,
      "start": 47.7685,
      "duration": 0.0452,
      "velocity": 97,
      "chip": "ym2612"
    },
    {
      "channel": 4,
      "note": 56,
      "start": 47.7695,
      "duration": 0.1776,
      "velocity": 97,
      "chip": "ym2612"
    },
    {
      "channel": 5,
      "note": 56,
      "start": 47.7728,
      "duration": 0.0894,
      "velocity": 117,
      "chip": "ym2612"
    },
    {
      "channel": 1,
      "note": 80,
      "start": 47.8134,
      "duration": 0.0826,
      "velocity": 97,
      "chip": "ym2612"
    },
    {
      "channel": 2,
      "note": 71,
      "start": 47.8664,
      "duration": 0.0471,
      "velocity": 112,
      "chip": "ym2612"
    },
    {
      "channel": 3,
      "note": 75,
      "start": 47.8672,
      "duration": 0.0464,
      "velocity": 97,
      "chip": "ym2612"
    },
    {
      "channel": 5,
      "note": 57,
      "start": 47.8709,
      "duration": 0.1079,
      "velocity": 115,
      "chip": "ym2612"
    },
    {
      "channel": 1,
      "note": 83,
      "start": 47.9134,
      "duration": 0.1827,
      "velocity": 97,
      "chip": "ym2612"
    },
    {
      "channel": 0,
      "note": 82,
      "start": 47.982,
      "duration": 0.1803,
      "velocity": 97,
      "chip": "ym2612"
    },
    {
      "channel": 3,
      "note": 75,
      "start": 47.9837,
      "duration": 0.0466,
      "velocity": 97,
      "chip": "ym2612"
    },
    {
      "channel": 4,
      "note": 56,
      "start": 47.9844,
      "duration": 0.1793,
      "velocity": 97,
      "chip": "ym2612"
    },
    {
      "channel": 5,
      "note": 57,
      "start": 47.9877,
      "duration": 0.0912,
      "velocity": 115,
      "chip": "ym2612"
    },
    {
      "channel": 2,
      "note": 83,
      "start": 48.0831,
      "duration": 0.0471,
      "velocity": 112,
      "chip": "ym2612"
    },
    {
      "channel": 3,
      "note": 87,
      "start": 48.0839,
      "duration": 0.0465,
      "velocity": 97,
      "chip": "ym2612"
    },
    {
      "channel": 5,
      "note": 57,
      "start": 48.0876,
      "duration": 0.0912,
      "velocity": 115,
      "chip": "ym2612"
    },
    {
      "channel": 1,
      "note": 82,
      "start": 48.1301,
      "duration": 0.1824,
      "velocity": 97,
      "chip": "ym2612"
    },
    {
      "channel": 0,
      "note": 80,
      "start": 48.182,
      "duration": 0.1803,
      "velocity": 97,
      "chip": "ym2612"
    },
    {
      "channel": 3,
      "note": 75,
      "start": 48.1837,
      "duration": 0.0468,
      "velocity": 97,
      "chip": "ym2612"
    },
    {
      "channel": 4,
      "note": 68,
      "start": 48.1844,
      "duration": 0.1794,
      "velocity": 97,
      "chip": "ym2612"
    },
    {
      "channel": 5,
      "note": 48,
      "start": 48.1878,
      "duration": 0.2078,
      "velocity": 127,
      "chip": "ym2612"
    },
    {
      "channel": 2,
      "note": 80,
      "start": 48.2973,
      "duration": 0.0497,
      "velocity": 112,
      "chip": "ym2612"
    },
    {
      "channel": 1,
      "note": 80,
      "start": 48.3468,
      "duration": 0.1826,
      "velocity": 97,
      "chip": "ym2612"
    },
    {
      "channel": 0,
      "note": 71,
      "start": 48.3989,
      "duration": 0.0801,
      "velocity": 97,
      "chip": "ym2612"
    },
    {
      "channel": 3,
      "note": 80,
      "start": 48.4007,
      "duration": 0.1795,
      "velocity": 97,
      "chip": "ym2612"
    },
    {
      "channel": 4,
      "note": 59,
      "start": 48.4014,
      "duration": 0.0791,
      "velocity": 97,
      "chip": "ym2612"
    },
    {
      "channel": 5,
      "note": 57,
      "start": 48.4048,
      "duration": 0.1073,
      "velocity": 115,
      "chip": "ym2612"
    },
    {
      "channel": 0,
      "note": 75,
      "start": 48.5154,
      "duration": 0.2802,
      "velocity": 97,
      "chip": "ym2612"
    },
    {
      "channel": 2,
      "note": 75,
      "start": 48.5168,
      "duration": 0.0469,
      "velocity": 112,
      "chip": "ym2612"
    },
    {
      "channel": 4,
      "note": 51,
      "start": 48.518,
      "duration": 0.1794,
      "velocity": 97,
      "chip": "ym2612"
    },
    {
      "channel": 5,
      "note": 57,
      "start": 48.5213,
      "duration": 0.091,
      "velocity": 115,
      "chip": "ym2612"
    },
    {
      "channel": 1,
      "note": 71,
      "start": 48.5635,
      "duration": 0.0824,
      "velocity": 97,
      "chip": "ym2612"
    },
    {
      "channel": 2,
      "note": 83,
      "start": 48.6165,
      "duration": 0.0472,
      "velocity": 112,
      "chip": "ym2612"
    },
    {
      "channel": 3,
      "note": 78,
      "start": 48.6174,
      "duration": 0.0464,
      "velocity": 97,
      "chip": "ym2612"
    },
    {
      "channel": 5,
      "note": 56,
      "start": 48.6211,
      "duration": 0.091,
      "velocity": 117,
      "chip": "ym2612"
    },
    {
      "channel": 1,
      "note": 75,
      "start": 48.6635,
      "duration": 0.2826,
      "velocity": 97,
      "chip": "ym2612"
    },
    {
      "channel": 3,
      "note": 66,
      "start": 48.7166,
      "duration": 0.0471,
      "velocity": 97,
      "chip": "ym2612"
    },
    {
      "channel": 4,
      "note": 51,
      "start": 48.7173,
      "duration": 0.1802,
      "velocity": 97,
      "chip": "ym2612"
    },
    {
      "channel": 5,
      "note": 57,
      "start": 48.7207,
      "duration": 0.1082,
      "velocity": 115,
      "chip": "ym2612"
    },
    {
      "channel": 0,
      "note": 78,
      "start": 48.8321,
      "duration": 0.28,
      "velocity": 97,
      "chip": "ym2612"
    },
    {
      "channel": 2,
      "note": 71,
      "start": 48.8335,
      "duration": 0.0464,
      "velocity": 112,
      "chip": "ym2612"
    },
    {
      "channel": 5,
      "note": 57,
      "start": 48.8376,
      "duration": 0.0913,
      "velocity": 115,
      "chip": "ym2612"
    },
    {
      "channel": 2,
      "note": 83,
      "start": 48.933,
      "duration": 0.047,
      "velocity": 112,
      "chip": "ym2612"
    },
    {
      "channel": 3,
      "note": 78,
      "start": 48.9339,
      "duration": 0.0464,
      "velocity": 97,
      "chip": "ym2612"
    },
    {
      "channel": 4,
      "note": 51,
      "start": 48.9346,
      "duration": 0.0794,
      "velocity": 97,
      "chip": "ym2612"
    },
    {
      "channel": 5,
      "note": 57,
      "start": 48.938,
      "duration": 0.1074,
      "velocity": 115,
      "chip": "ym2612"
    },
    {
      "channel": 1,
      "note": 78,
      "start": 48.9799,
      "duration": 0.2828,
      "velocity": 97,
      "chip": "ym2612"
    },
    {
      "channel": 2,
      "note": 83,
      "start": 49.0495,
      "duration": 0.047,
      "velocity": 112,
      "chip": "ym2612"
    },
    {
      "channel": 3,
      "note": 78,
      "start": 49.0504,
      "duration": 0.0462,
      "velocity": 97,
      "chip": "ym2612"
    },
    {
      "channel": 4,
      "note": 63,
      "start": 49.0512,
      "duration": 0.1797,
      "velocity": 97,
      "chip": "ym2612"
    },
    {
      "channel": 5,
      "note": 48,
      "start": 49.0546,
      "duration": 0.1908,
      "velocity": 127,
      "chip": "ym2612"
    },
    {
      "channel": 0,
      "note": 83,
      "start": 49.1463,
      "duration": 0.2826,
      "velocity": 97,
      "chip": "ym2612"
    },
    {
      "channel": 2,
      "note": 71,
      "start": 49.2496,
      "duration": 0.0471,
      "velocity": 112,
      "chip": "ym2612"
    },
    {
      "channel": 3,
      "note": 90,
      "start": 49.2504,
      "duration": 0.0464,
      "velocity": 97,
      "chip": "ym2612"
    },
    {
      "channel": 4,
      "note": 58,
      "start": 49.2511,
      "duration": 0.1793,
      "velocity": 97,
      "chip": "ym2612"
    },
    {
      "channel": 5,
      "note": 57,
      "start": 49.2545,
      "duration": 0.1078,
      "velocity": 115,
      "chip": "ym2612"
    },
    {
      "channel": 1,
      "note": 83,
      "start": 49.3133,
      "duration": 0.2828,
      "velocity": 97,
      "chip": "ym2612"
    },
    {
      "channel": 2,
      "note": 83,
      "start": 49.3663,
      "duration": 0.0469,
      "velocity": 112,
      "chip": "ym2612"
    },
    {
      "channel": 3,
      "note": 78,
      "start": 49.3672,
      "duration": 0.0461,
      "velocity": 97,
      "chip": "ym2612"
    },
    {
      "channel": 5,
      "note": 57,
      "start": 49.3708,
      "duration": 0.0917,
      "velocity": 115,
      "chip": "ym2612"
    },
    {
      "channel": 0,
      "note": 82,
      "start": 49.4659,
      "duration": 0.1796,
      "velocity": 97,
      "chip": "ym2612"
    },
    {
      "channel": 2,
      "note": 82,
      "start": 49.4671,
      "duration": 0.0459,
      "velocity": 112,
      "chip": "ym2612"
    },
    {
      "channel": 4,
      "note": 54,
      "start": 49.4681,
      "duration": 0.1784,
      "velocity": 97,
      "chip": "ym2612"
    },
    {
      "channel": 5,
      "note": 56,
      "start": 49.4715,
      "duration": 0.1073,
      "velocity": 117,
      "chip": "ym2612"
    },
    {
      "channel": 2,
      "note": 70,
      "start": 49.5828,
      "duration": 0.0476,
      "velocity": 112,
      "chip": "ym2612"
    },
    {
      "channel": 5,
      "note": 57,
      "start": 49.5867,
      "duration": 0.0922,
      "velocity": 115,
      "chip": "ym2612"
    },
    {
      "channel": 1,
      "note": 82,
      "start": 49.6302,
      "duration": 0.1825,
      "velocity": 97,
      "chip": "ym2612"
    },
    {
      "channel": 0,
      "note": 83,
      "start": 49.6821,
      "duration": 0.1802,
      "velocity": 97,
      "chip": "ym2612"
    },
    {
      "channel": 2,
      "note": 82,
      "start": 49.6834,
      "duration": 0.0464,
      "velocity": 112,
      "chip": "ym2612"
    },
    {
      "channel": 3,
      "note": 73,
      "start": 49.6842,
      "duration": 0.0457,
      "velocity": 97,
      "chip": "ym2612"
    },
    {
      "channel": 4,
      "note": 58,
      "start": 49.6849,
      "duration": 0.1788,
      "velocity": 97,
      "chip": "ym2612"
    },
    {
      "channel": 5,
      "note": 57,
      "start": 49.6883,
      "duration": 0.0905,
      "velocity": 115,
      "chip": "ym2612"
    },
    {
      "channel": 2,
      "note": 82,
      "start": 49.7828,
      "duration": 0.0471,
      "velocity": 112,
      "chip": "ym2612"
    },
    {
      "channel": 3,
      "note": 85,
      "start": 49.7837,
      "duration": 0.0464,
      "velocity": 97,
      "chip": "ym2612"
    },
    {
      "channel": 5,
      "note": 57,
      "start": 49.7874,
      "duration": 0.1081,
      "velocity": 115,
      "chip": "ym2612"
    },
    {
      "channel": 1,
      "note": 83,
      "start": 49.8466,
      "duration": 0.1828,
      "velocity": 97,
      "chip": "ym2612"
    },
    {
      "channel": 0,
      "note": 82,
      "start": 49.8988,
      "duration": 0.1802,
      "velocity": 97,
      "chip": "ym2612"
    },
    {
      "channel": 3,
      "note": 97,
      "start": 49.9005,
      "duration": 0.0464,
      "velocity": 97,
      "chip": "ym2612"
    },
    {
      "channel": 4,
      "note": 66,
      "start": 49.9013,
      "duration": 0.1792,
      "velocity": 97,
      "chip": "ym2612"
    },
    {
      "channel": 5,
      "note": 48,
      "start": 49.9047,
      "duration": 0.2074,
      "velocity": 127,
      "chip": "ym2612"
    },
    {
      "channel": 2,
      "note": 82,
      "start": 49.9972,
      "duration": 0.0495,
      "velocity": 112,
      "chip": "ym2612"
    },
    {
      "channel": 1,
      "note": 82,
      "start": 50.0466,
      "duration": 0.1828,
      "velocity": 97,
      "chip": "ym2612"
    },
    {
      "channel": 0,
      "note": 78,
      "start": 50.1154,
      "duration": 0.0802,
      "velocity": 97,
      "chip": "ym2612"
    },
    {
      "channel": 3,
      "note": 85,
      "start": 50.1171,
      "duration": 0.0465,
      "velocity": 97,
      "chip": "ym2612"
    },
    {
      "channel": 4,
      "note": 61,
      "start": 50.1179,
      "duration": 0.0792,
      "velocity": 97,
      "chip": "ym2612"
    },
    {
      "channel": 5,
      "note": 57,
      "start": 50.1213,
      "duration": 0.091,
      "velocity": 115,
      "chip": "ym2612"
    },
    {
      "channel": 0,
      "note": 80,
      "start": 50.2155,
      "duration": 0.2801,
      "velocity": 97,
      "chip": "ym2612"
    },
    {
      "channel": 2,
      "note": 87,
      "start": 50.2169,
      "duration": 0.0468,
      "velocity": 112,
      "chip": "ym2612"
    },
    {
      "channel": 3,
      "note": 97,
      "start": 50.2177,
      "duration": 0.0461,
      "velocity": 97,
      "chip": "ym2612"
    },
    {
      "channel": 4,
      "note": 59,
      "start": 50.2185,
      "duration": 0.1788,
      "velocity": 97,
      "chip": "ym2612"
    },
    {
      "channel": 5,
      "note": 57,
      "start": 50.2219,
      "duration": 0.0903,
      "velocity": 115,
      "chip": "ym2612"
    },
    {
      "channel": 1,
      "note": 78,
      "start": 50.2635,
      "duration": 0.0826,
      "velocity": 97,
      "chip": "ym2612"
    },
    {
      "channel": 2,
      "note": 75,
      "start": 50.3163,
      "duration": 0.047,
      "velocity": 112,
      "chip": "ym2612"
    },
    {
      "channel": 3,
      "note": 87,
      "start": 50.3171,
      "duration": 0.0463,
      "velocity": 97,
      "chip": "ym2612"
    },
    {
      "channel": 5,
      "note": 56,
      "start": 50.3208,
      "duration": 0.1081,
      "velocity": 117,
      "chip": "ym2612"
    },
    {
      "channel": 1,
      "note": 80,
      "start": 50.38,
      "duration": 0.2827,
      "velocity": 97,
      "chip": "ym2612"
    },
    {
      "channel": 3,
      "note": 87,
      "start": 50.4334,
      "duration": 0.0469,
      "velocity": 97,
      "chip": "ym2612"
    },
    {
      "channel": 4,
      "note": 59,
      "start": 50.4342,
      "duration": 0.18,
      "velocity": 97,
      "chip": "ym2612"
    },
    {
      "channel": 5,
      "note": 57,
      "start": 50.4376,
      "duration": 0.0913,
      "velocity": 115,
      "chip": "ym2612"
    },
    {
      "channel": 0,
      "note": 78,
      "start": 50.5322,
      "duration": 0.3636,
      "velocity": 97,
      "chip": "ym2612"
    },
    {
      "channel": 2,
      "note": 87,
      "start": 50.5335,
      "duration": 0.0462,
      "velocity": 112,
      "chip": "ym2612"
    },
    {
      "channel": 5,
      "note": 57,
      "start": 50.5376,
      "duration": 0.1079,
      "velocity": 115,
      "chip": "ym2612"
    },
    {
      "channel": 3,
      "note": 87,
      "start": 50.65,
      "duration": 0.0475,
      "velocity": 97,
      "chip": "ym2612"
    },
    {
      "channel": 4,
      "note": 59,
      "start": 50.6508,
      "duration": 0.08,
      "velocity": 97,
      "chip": "ym2612"
    },
    {
      "channel": 5,
      "note": 57,
      "start": 50.6541,
      "duration": 0.0914,
      "velocity": 115,
      "chip": "ym2612"
    },
    {
      "channel": 1,
      "note": 78,
      "start": 50.6969,
      "duration": 0.3683,
      "velocity": 97,
      "chip": "ym2612"
    },
    {
      "channel": 2,
      "note": 87,
      "start": 50.7497,
      "duration": 0.0468,
      "velocity": 112,
      "chip": "ym2612"
    },
    {
      "channel": 3,
      "note": 87,
      "start": 50.7505,
      "duration": 0.0461,
      "velocity": 97,
      "chip": "ym2612"
    },
    {
      "channel": 4,
      "note": 71,
      "start": 50.7514,
      "duration": 0.1795,
      "velocity": 97,
      "chip": "ym2612"
    },
    {
      "channel": 5,
      "note": 48,
      "start": 50.7547,
      "duration": 0.2075,
      "velocity": 127,
      "chip": "ym2612"
    },
    {
      "channel": 2,
      "note": 75,
      "start": 50.847,
      "duration": 0.0493,
      "velocity": 112,
      "chip": "ym2612"
    },
    {
      "channel": 0,
      "note": 77,
      "start": 50.9655,
      "duration": 0.1801,
      "velocity": 97,
      "chip": "ym2612"
    },
    {
      "channel": 3,
      "note": 87,
      "start": 50.9673,
      "duration": 0.0464,
      "velocity": 97,
      "chip": "ym2612"
    },
    {
      "channel": 4,
      "note": 70,
      "start": 50.968,
      "duration": 0.1791,
      "velocity": 97,
      "chip": "ym2612"
    },
    {
      "channel": 5,
      "note": 57,
      "start": 50.9714,
      "duration": 0.0908,
      "velocity": 115,
      "chip": "ym2612"
    },
    {
      "channel": 2,
      "note": 87,
      "start": 51.0661,
      "duration": 0.0474,
      "velocity": 112,
      "chip": "ym2612"
    },
    {
      "channel": 3,
      "note": 87,
      "start": 51.0669,
      "duration": 0.0467,
      "velocity": 97,
      "chip": "ym2612"
    },
    {
      "channel": 5,
      "note": 57,
      "start": 51.0706,
      "duration": 0.1085,
      "velocity": 115,
      "chip": "ym2612"
    },
    {
      "channel": 1,
      "note": 77,
      "start": 51.1133,
      "duration": 0.1828,
      "velocity": 97,
      "chip": "ym2612"
    },
    {
      "channel": 0,
      "note": 75,
      "start": 51.1822,
      "duration": 0.1801,
      "velocity": 97,
      "chip": "ym2612"
    },
    {
      "channel": 2,
      "note": 71,
      "start": 51.1835,
      "duration": 0.0464,
      "velocity": 112,
      "chip": "ym2612"
    },
    {
      "channel": 3,
      "note": 92,
      "start": 51.1844,
      "duration": 0.0456,
      "velocity": 97,
      "chip": "ym2612"
    },
    {
      "channel": 4,
      "note": 56,
      "start": 51.1851,
      "duration": 0.1787,
      "velocity": 97,
      "chip": "ym2612"
    },
    {
      "channel": 5,
      "note": 56,
      "start": 51.1884,
      "duration": 0.0905,
      "velocity": 117,
      "chip": "ym2612"
    },
    {
      "channel": 2,
      "note": 80,
      "start": 51.283,
      "duration": 0.0472,
      "velocity": 112,
      "chip": "ym2612"
    },
    {
      "channel": 3,
      "note": 80,
      "start": 51.2839,
      "duration": 0.0464,
      "velocity": 97,
      "chip": "ym2612"
    },
    {
      "channel": 5,
      "note": 57,
      "start": 51.2876,
      "duration": 0.0912,
      "velocity": 115,
      "chip": "ym2612"
    },
    {
      "channel": 1,
      "note": 75,
      "start": 51.3301,
      "duration": 0.1824,
      "velocity": 97,
      "chip": "ym2612"
    },
    {
      "channel": 0,
      "note": 78,
      "start": 51.382,
      "duration": 0.1803,
      "velocity": 97,
      "chip": "ym2612"
    },
    {
      "channel": 2,
      "note": 87,
      "start": 51.3833,
      "duration": 0.0467,
      "velocity": 112,
      "chip": "ym2612"
    },
    {
      "channel": 3,
      "note": 68,
      "start": 51.3841,
      "duration": 0.046,
      "velocity": 97,
      "chip": "ym2612"
    },
    {
      "channel": 4,
      "note": 56,
      "start": 51.3848,
      "duration": 0.179,
      "velocity": 97,
      "chip": "ym2612"
    },
    {
      "channel": 5,
      "note": 57,
      "start": 51.3882,
      "duration": 0.1074,
      "velocity": 115,
      "chip": "ym2612"
    },
    {
      "channel": 2,
      "note": 83,
      "start": 51.4998,
      "duration": 0.0472,
      "velocity": 112,
      "chip": "ym2612"
    },
    {
      "channel": 5,
      "note": 57,
      "start": 51.5039,
      "duration": 0.0917,
      "velocity": 115,
      "chip": "ym2612"
    },
    {
      "channel": 1,
      "note": 78,
      "start": 51.5468,
      "duration": 0.1826,
      "velocity": 97,
      "chip": "ym2612"
    },
    {
      "channel": 0,
      "note": 80,
      "start": 51.5988,
      "duration": 0.18,
      "velocity": 97,
      "chip": "ym2612"
    },
    {
      "channel": 3,
      "note": 80,
      "start": 51.6005,
      "duration": 0.0463,
      "velocity": 97,
      "chip": "ym2612"
    },
    {
      "channel": 4,
      "note": 68,
      "start": 51.6012,
      "duration": 0.179,
      "velocity": 97,
      "chip": "ym2612"
    },
    {
      "channel": 5,
      "note": 48,
      "start": 51.6046,
      "duration": 0.2076,
      "velocity": 127,
      "chip": "ym2612"
    },
    {
      "channel": 2,
      "note": 87,
      "start": 51.7138,
      "duration": 0.0499,
      "velocity": 112,
      "chip": "ym2612"
    },
    {
      "channel": 3,
      "note": 92,
      "start": 51.7146,
      "duration": 0.0492,
      "velocity": 97,
      "chip": "ym2612"
    },
    {
      "channel": 1,
      "note": 80,
      "start": 51.7635,
      "duration": 0.1826,
      "velocity": 97,
      "chip": "ym2612"
    },
    {
      "channel": 0,
      "note": 82,
      "start": 51.8155,
      "duration": 0.0801,
      "velocity": 97,
      "chip": "ym2612"
    },
    {
      "channel": 3,
      "note": 90,
      "start": 51.8173,
      "duration": 0.0464,
      "velocity": 97,
      "chip": "ym2612"
    },
    {
      "channel": 4,
      "note": 59,
      "start": 51.818,
      "duration": 0.0791,
      "velocity": 97,
      "chip": "ym2612"
    },
    {
      "channel": 5,
      "note": 57,
      "start": 51.8214,
      "duration": 0.0907,
      "velocity": 115,
      "chip": "ym2612"
    },
    {
      "channel": 0,
      "note": 80,
      "start": 51.9154,
      "duration": 0.1802,
      "velocity": 97,
      "chip": "ym2612"
    },
    {
      "channel": 2,
      "note": 78,
      "start": 51.9167,
      "duration": 0.0466,
      "velocity": 112,
      "chip": "ym2612"
    },
    {
      "channel": 4,
      "note": 54,
      "start": 51.9179,
      "duration": 0.1793,
      "velocity": 97,
      "chip": "ym2612"
    },
    {
      "channel": 5,
      "note": 57,
      "start": 51.9213,
      "duration": 0.1076,
      "velocity": 115,
      "chip": "ym2612"
    },
    {
      "channel": 1,
      "note": 82,
      "start": 51.98,
      "duration": 0.0827,
      "velocity": 97,
      "chip": "ym2612"
    },
    {
      "channel": 3,
      "note": 90,
      "start": 52.0335,
      "duration": 0.0473,
      "velocity": 97,
      "chip": "ym2612"
    },
    {
      "channel": 5,
      "note": 56,
      "start": 52.0371,
      "duration": 0.0918,
      "velocity": 117,
      "chip": "ym2612"
    },
    {
      "channel": 1,
      "note": 80,
      "start": 52.0802,
      "duration": 0.1825,
      "velocity": 97,
      "chip": "ym2612"
    },
    {
      "channel": 0,
      "note": 78,
      "start": 52.1322,
      "duration": 0.0801,
      "velocity": 97,
      "chip": "ym2612"
    },
    {
      "channel": 2,
      "note": 73,
      "start": 52.1335,
      "duration": 0.0462,
      "velocity": 112,
      "chip": "ym2612"
    },
    {
      "channel": 4,
      "note": 54,
      "start": 52.1346,
      "duration": 0.1792,
      "velocity": 97,
      "chip": "ym2612"
    },
    {
      "channel": 5,
      "note": 57,
      "start": 52.1379,
      "duration": 0.1075,
      "velocity": 115,
      "chip": "ym2612"
    },
    {
      "channel": 0,
      "note": 77,
      "start": 52.2488,
      "duration": 0.1802,
      "velocity": 97,
      "chip": "ym2612"
    },
    {
      "channel": 2,
      "note": 78,
      "start": 52.2501,
      "duration": 0.0469,
      "velocity": 112,
      "chip": "ym2612"
    },
    {
      "channel": 3,
      "note": 90,
      "start": 52.2509,
      "duration": 0.0462,
      "velocity": 97,
      "chip": "ym2612"
    },
    {
      "channel": 5,
      "note": 57,
      "start": 52.2546,
      "duration": 0.091,
      "velocity": 115,
      "chip": "ym2612"
    },
    {
      "channel": 1,
      "note": 78,
      "start": 52.2968,
      "duration": 0.0824,
      "velocity": 97,
      "chip": "ym2612"
    },
    {
      "channel": 2,
      "note": 70,
      "start": 52.3496,
      "duration": 0.0474,
      "velocity": 112,
      "chip": "ym2612"
    },
    {
      "channel": 3,
      "note": 90,
      "start": 52.3505,
      "duration": 0.0466,
      "velocity": 97,
      "chip": "ym2612"
    },
    {
      "channel": 4,
      "note": 54,
      "start": 52.3513,
      "duration": 0.0791,
      "velocity": 97,
      "chip": "ym2612"
    },
    {
      "channel": 5,
      "note": 57,
      "start": 52.3547,
      "duration": 0.0908,
      "velocity": 115,
      "chip": "ym2612"
    },
    {
      "channel": 1,
      "note": 77,
      "start": 52.3968,
      "duration": 0.1824,
      "velocity": 97,
      "chip": "ym2612"
    },
    {
      "channel": 0,
      "note": 75,
      "start": 52.4486,
      "duration": 0.1803,
      "velocity": 97,
      "chip": "ym2612"
    },
    {
      "channel": 2,
      "note": 73,
      "start": 52.45,
      "duration": 0.0467,
      "velocity": 112,
      "chip": "ym2612"
    },
    {
      "channel": 4,
      "note": 66,
      "start": 52.4512,
      "duration": 0.1793,
      "velocity": 97,
      "chip": "ym2612"
    },
    {
      "channel": 5,
      "note": 48,
      "start": 52.4545,
      "duration": 0.1077,
      "velocity": 127,
      "chip": "ym2612"
    },
    {
      "channel": 3,
      "note": 90,
      "start": 52.5669,
      "duration": 0.0472,
      "velocity": 97,
      "chip": "ym2612"
    },
    {
      "channel": 5,
      "note": 48,
      "start": 52.5706,
      "duration": 0.2082,
      "velocity": 127,
      "chip": "ym2612"
    },
    {
      "channel": 1,
      "note": 75,
      "start": 52.6135,
      "duration": 0.1826,
      "velocity": 97,
      "chip": "ym2612"
    },
    {
      "channel": 0,
      "note": 82,
      "start": 52.663,
      "duration": 0.1824,
      "velocity": 97,
      "chip": "ym2612"
    },
    {
      "channel": 2,
      "note": 85,
      "start": 52.6643,
      "duration": 0.0487,
      "velocity": 112,
      "chip": "ym2612"
    },
    {
      "channel": 4,
      "note": 54,
      "start": 52.6654,
      "duration": 0.1815,
      "velocity": 97,
      "chip": "ym2612"
    },
    {
      "channel": 3,
      "note": 90,
      "start": 52.7834,
      "duration": 0.0473,
      "velocity": 97,
      "chip": "ym2612"
    },
    {
      "channel": 5,
      "note": 48,
      "start": 52.7871,
      "duration": 0.0919,
      "velocity": 127,
      "chip": "ym2612"
    },
    {
      "channel": 1,
      "note": 82,
      "start": 52.8302,
      "duration": 0.1826,
      "velocity": 97,
      "chip": "ym2612"
    },
    {
      "channel": 0,
      "note": 87,
      "start": 52.8824,
      "duration": 0.1799,
      "velocity": 97,
      "chip": "ym2612"
    },
    {
      "channel": 2,
      "note": 87,
      "start": 52.8837,
      "duration": 0.0461,
      "velocity": 112,
      "chip": "ym2612"
    },
    {
      "channel": 4,
      "note": 51,
      "start": 52.8847,
      "duration": 0.1786,
      "velocity": 97,
      "chip": "ym2612"
    },
    {
      "channel": 5,
      "note": 56,
      "start": 52.8881,
      "duration": 0.2074,
      "velocity": 122,
      "chip": "ym2612"
    },
    {
      "channel": 2,
      "note": 85,
      "start": 52.9804,
      "duration": 0.0496,
      "velocity": 112,
      "chip": "ym2612"
    },
    {
      "channel": 1,
      "note": 87,
      "start": 53.0468,
      "duration": 0.1826,
      "velocity": 97,
      "chip": "ym2612"
    },
    {
      "channel": 0,
      "note": 89,
      "start": 53.0988,
      "duration": 0.1802,
      "velocity": 97,
      "chip": "ym2612"
    },
    {
      "channel": 2,
      "note": 82,
      "start": 53.1001,
      "duration": 0.0464,
      "velocity": 112,
      "chip": "ym2612"
    },
    {
      "channel": 3,
      "note": 82,
      "start": 53.1009,
      "duration": 0.0457,
      "velocity": 97,
      "chip": "ym2612"
    },
    {
      "channel": 4,
      "note": 54,
      "start": 53.1016,
      "duration": 0.1788,
      "velocity": 97,
      "chip": "ym2612"
    },
    {
      "channel": 5,
      "note": 56,
      "start": 53.105,
      "duration": 0.0906,
      "velocity": 122,
      "chip": "ym2612"
    },
    {
      "channel": 2,
      "note": 87,
      "start": 53.1997,
      "duration": 0.047,
      "velocity": 112,
      "chip": "ym2612"
    },
    {
      "channel": 3,
      "note": 82,
      "start": 53.2005,
      "duration": 0.0464,
      "velocity": 97,
      "chip": "ym2612"
    },
    {
      "channel": 5,
      "note": 51,
      "start": 53.2042,
      "duration": 0.1079,
      "velocity": 122,
      "chip": "ym2612"
    },
    {
      "channel": 1,
      "note": 89,
      "start": 53.2466,
      "duration": 0.1828,
      "velocity": 97,
      "chip": "ym2612"
    },
    {
      "channel": 0,
      "note": 90,
      "start": 53.3154,
      "duration": 0.1803,
      "velocity": 97,
      "chip": "ym2612"
    },
    {
      "channel": 2,
      "note": 85,
      "start": 53.3166,
      "duration": 0.0466,
      "velocity": 112,
      "chip": "ym2612"
    },
    {
      "channel": 4,
      "note": 63,
      "start": 53.3176,
      "duration": 0.1791,
      "velocity": 97,
      "chip": "ym2612"
    },
    {
      "channel": 5,
      "note": 51,
      "start": 53.321,
      "duration": 0.1911,
      "velocity": 122,
      "chip": "ym2612"
    },
    {
      "channel": 2,
      "note": 78,
      "start": 53.4139,
      "duration": 0.0496,
      "velocity": 112,
      "chip": "ym2612"
    },
    {
      "channel": 1,
      "note": 90,
      "start": 53.4634,
      "duration": 0.1824,
      "velocity": 97,
      "chip": "ym2612"
    },
    {
      "channel": 0,
      "note": 94,
      "start": 53.5154,
      "duration": 0.0802,
      "velocity": 97,
      "chip": "ym2612"
    },
    {
      "channel": 2,
      "note": 75,
      "start": 53.5167,
      "duration": 0.0466,
      "velocity": 112,
      "chip": "ym2612"
    },
    {
      "channel": 3,
      "note": 82,
      "start": 53.5176,
      "duration": 0.0459,
      "velocity": 97,
      "chip": "ym2612"
    },
    {
      "channel": 4,
      "note": 58,
      "start": 53.5183,
      "duration": 0.0788,
      "velocity": 97,
      "chip": "ym2612"
    },
    {
      "channel": 5,
      "note": 44,
      "start": 53.5217,
      "duration": 0.1072,
      "velocity": 122,
      "chip": "ym2612"
    },
    {
      "channel": 0,
      "note": 92,
      "start": 53.6322,
      "duration": 0.4799,
      "velocity": 97,
      "chip": "ym2612"
    },
    {
      "channel": 2,
      "note": 78,
      "start": 53.6335,
      "duration": 0.0468,
      "velocity": 112,
      "chip": "ym2612"
    },
    {
      "channel": 3,
      "note": 82,
      "start": 53.6344,
      "duration": 0.0461,
      "velocity": 97,
      "chip": "ym2612"
    },
    {
      "channel": 4,
      "note": 56,
      "start": 53.6352,
      "duration": 0.1785,
      "velocity": 97,
      "chip": "ym2612"
    },
    {
      "channel": 5,
      "note": 44,
      "start": 53.6386,
      "duration": 0.2069,
      "velocity": 122,
      "chip": "ym2612"
    },
    {
      "channel": 1,
      "note": 94,
      "start": 53.6802,
      "duration": 0.0825,
      "velocity": 97,
      "chip": "ym2612"
    },
    {
      "channel": 2,
      "note": 87,
      "start": 53.7305,
      "duration": 0.0496,
      "velocity": 112,
      "chip": "ym2612"
    },
    {
      "channel": 1,
      "note": 92,
      "start": 53.78,
      "duration": 0.4856,
      "velocity": 97,
      "chip": "ym2612"
    },
    {
      "channel": 2,
      "note": 92,
      "start": 53.8495,
      "duration": 0.047,
      "velocity": 112,
      "chip": "ym2612"
    },
    {
      "channel": 4,
      "note": 56,
      "start": 53.8503,
      "duration": 0.1804,
      "velocity": 97,
      "chip": "ym2612"
    },
    {
      "channel": 5,
      "note": 56,
      "start": 53.8537,
      "duration": 0.0919,
      "velocity": 122,
      "chip": "ym2612"
    },
    {
      "channel": 2,
      "note": 90,
      "start": 53.9498,
      "duration": 0.0468,
      "velocity": 112,
      "chip": "ym2612"
    },
    {
      "channel": 3,
      "note": 83,
      "start": 53.9506,
      "duration": 0.0461,
      "velocity": 97,
      "chip": "ym2612"
    },
    {
      "channel": 5,
      "note": 48,
      "start": 53.9543,
      "duration": 0.0912,
      "velocity": 127,
      "chip": "ym2612"
    },
    {
      "channel": 2,
      "note": 87,
      "start": 54.0495,
      "duration": 0.0471,
      "velocity": 112,
      "chip": "ym2612"
    },
    {
      "channel": 3,
      "note": 83,
      "start": 54.0504,
      "duration": 0.0464,
      "velocity": 97,
      "chip": "ym2612"
    },
    {
      "channel": 4,
      "note": 56,
      "start": 54.0512,
      "duration": 0.0795,
      "velocity": 97,
      "chip": "ym2612"
    },
    {
      "channel": 5,
      "note": 48,
      "start": 54.0545,
      "duration": 0.1077,
      "velocity": 127,
      "chip": "ym2612"
    },
    {
      "channel": 0,
      "note": 71,
      "start": 54.168,
      "duration": 0.0774,
      "velocity": 99,
      "chip": "ym2612"
    },
    {
      "channel": 2,
      "note": 83,
      "start": 54.1694,
      "duration": 0.0439,
      "velocity": 112,
      "chip": "ym2612"
    },
    {
      "channel": 4,
      "note": 68,
      "start": 54.1706,
      "duration": 0.1766,
      "velocity": 97,
      "chip": "ym2612"
    },
    {
      "channel": 5,
      "note": 48,
      "start": 54.174,
      "duration": 0.0882,
      "velocity": 127,
      "chip": "ym2612"
    },
    {
      "channel": 0,
      "note": 73,
      "start": 54.2654,
      "duration": 0.0802,
      "velocity": 99,
      "chip": "ym2612"
    },
    {
      "channel": 3,
      "note": 83,
      "start": 54.2669,
      "duration": 0.0496,
      "velocity": 97,
      "chip": "ym2612"
    },
    {
      "channel": 5,
      "note": 48,
      "start": 54.2706,
      "duration": 0.1082,
      "velocity": 127,
      "chip": "ym2612"
    },
    {
      "channel": 1,
      "note": 71,
      "start": 54.3159,
      "duration": 0.0802,
      "velocity": 99,
      "chip": "ym2612"
    },
    {
      "channel": 0,
      "note": 75,
      "start": 54.382,
      "duration": 0.0803,
      "velocity": 99,
      "chip": "ym2612"
    },
    {
      "channel": 2,
      "note": 80,
      "start": 54.3832,
      "duration": 0.047,
      "velocity": 112,
      "chip": "ym2612"
    },
    {
      "channel": 3,
      "note": 83,
      "start": 54.3841,
      "duration": 0.0463,
      "velocity": 97,
      "chip": "ym2612"
    },
    {
      "channel": 4,
      "note": 56,
      "start": 54.3848,
      "duration": 0.179,
      "velocity": 97,
      "chip": "ym2612"
    },
    {
      "channel": 5,
      "note": 48,
      "start": 54.3882,
      "duration": 0.0907,
      "velocity": 127,
      "chip": "ym2612"
    },
    {
      "channel": 1,
      "note": 73,
      "start": 54.4301,
      "duration": 0.0824,
      "velocity": 99,
      "chip": "ym2612"
    },
    {
      "channel": 0,
      "note": 77,
      "start": 54.4821,
      "duration": 0.0802,
      "velocity": 99,
      "chip": "ym2612"
    },
    {
      "channel": 3,
      "note": 83,
      "start": 54.4839,
      "duration": 0.0468,
      "velocity": 97,
      "chip": "ym2612"
    },
    {
      "channel": 5,
      "note": 48,
      "start": 54.4876,
      "duration": 0.0913,
      "velocity": 127,
      "chip": "ym2612"
    },
    {
      "channel": 1,
      "note": 75,
      "start": 54.5301,
      "duration": 0.0826,
      "velocity": 99,
      "chip": "ym2612"
    },
    {
      "channel": 0,
      "note": 78,
      "start": 54.5821,
      "duration": 1.3803,
      "velocity": 99,
      "chip": "ym2612"
    },
    {
      "channel": 3,
      "note": 78,
      "start": 54.5841,
      "duration": 0.0459,
      "velocity": 97,
      "chip": "ym2612"
    },
    {
      "channel": 4,
      "note": 51,
      "start": 54.585,
      "duration": 0.1791,
      "velocity": 97,
      "chip": "ym2612"
    },
    {
      "channel": 5,
      "note": 56,
      "start": 54.5883,
      "duration": 0.1072,
      "velocity": 117,
      "chip": "ym2612"
    },
    {
      "channel": 1,
      "note": 77,
      "start": 54.6466,
      "duration": 0.0828,
      "velocity": 99,
      "chip": "ym2612"
    },
    {
      "channel": 2,
      "note": 78,
      "start": 54.6998,
      "duration": 0.0473,
      "velocity": 112,
      "chip": "ym2612"
    },
    {
      "channel": 5,
      "note": 57,
      "start": 54.7039,
      "duration": 0.0917,
      "velocity": 115,
      "chip": "ym2612"
    },
    {
      "channel": 1,
      "note": 78,
      "start": 54.7469,
      "duration": 1.3825,
      "velocity": 99,
      "chip": "ym2612"
    },
    {
      "channel": 2,
      "note": 90,
      "start": 54.7996,
      "duration": 0.0467,
      "velocity": 112,
      "chip": "ym2612"
    },
    {
      "channel": 3,
      "note": 82,
      "start": 54.8005,
      "duration": 0.046,
      "velocity": 97,
      "chip": "ym2612"
    },
    {
      "channel": 4,
      "note": 51,
      "start": 54.8014,
      "duration": 0.1792,
      "velocity": 97,
      "chip": "ym2612"
    },
    {
      "channel": 5,
      "note": 57,
      "start": 54.8048,
      "duration": 0.1073,
      "velocity": 115,
      "chip": "ym2612"
    },
    {
      "channel": 3,
      "note": 90,
      "start": 54.9167,
      "duration": 0.0469,
      "velocity": 97,
      "chip": "ym2612"
    },
    {
      "channel": 5,
      "note": 57,
      "start": 54.9204,
      "duration": 0.0919,
      "velocity": 115,
      "chip": "ym2612"
    },
    {
      "channel": 2,
      "note": 78,
      "start": 55.0164,
      "duration": 0.0468,
      "velocity": 112,
      "chip": "ym2612"
    },
    {
      "channel": 4,
      "note": 51,
      "start": 55.0177,
      "duration": 0.1797,
      "velocity": 97,
      "chip": "ym2612"
    },
    {
      "channel": 5,
      "note": 56,
      "start": 55.0211,
      "duration": 0.2078,
      "velocity": 117,
      "chip": "ym2612"
    },
    {
      "channel": 3,
      "note": 87,
      "start": 55.1142,
      "duration": 0.0496,
      "velocity": 97,
      "chip": "ym2612"
    },
    {
      "channel": 2,
      "note": 82,
      "start": 55.233,
      "duration": 0.0469,
      "velocity": 112,
      "chip": "ym2612"
    },
    {
      "channel": 4,
      "note": 51,
      "start": 55.2344,
      "duration": 0.1798,
      "velocity": 97,
      "chip": "ym2612"
    },
    {
      "channel": 5,
      "note": 57,
      "start": 55.2377,
      "duration": 0.0912,
      "velocity": 115,
      "chip": "ym2612"
    },
    {
      "channel": 3,
      "note": 75,
      "start": 55.3334,
      "duration": 0.0467,
      "velocity": 97,
      "chip": "ym2612"
    },
    {
      "channel": 5,
      "note": 57,
      "start": 55.3371,
      "duration": 0.1083,
      "velocity": 115,
      "chip": "ym2612"
    },
    {
      "channel": 2,
      "note": 90,
      "start": 55.4496,
      "duration": 0.0469,
      "velocity": 112,
      "chip": "ym2612"
    },
    {
      "channel": 4,
      "note": 51,
      "start": 55.4509,
      "duration": 0.1798,
      "velocity": 97,
      "chip": "ym2612"
    },
    {
      "channel": 5,
      "note": 56,
      "start": 55.4543,
      "duration": 0.0913,
      "velocity": 117,
      "chip": "ym2612"
    },
    {
      "channel": 2,
      "note": 82,
      "start": 55.5497,
      "duration": 0.0468,
      "velocity": 112,
      "chip": "ym2612"
    },
    {
      "channel": 3,
      "note": 87,
      "start": 55.5506,
      "duration": 0.0461,
      "velocity": 97,
      "chip": "ym2612"
    },
    {
      "channel": 5,
      "note": 57,
      "start": 55.5543,
      "duration": 0.0912,
      "velocity": 115,
      "chip": "ym2612"
    },
    {
      "channel": 3,
      "note": 82,
      "start": 55.65,
      "duration": 0.0471,
      "velocity": 97,
      "chip": "ym2612"
    },
    {
      "channel": 4,
      "note": 51,
      "start": 55.6509,
      "duration": 0.1798,
      "velocity": 97,
      "chip": "ym2612"
    },
    {
      "channel": 5,
      "note": 57,
      "start": 55.6543,
      "duration": 0.2079,
      "velocity": 115,
      "chip": "ym2612"
    },
    {
      "channel": 2,
      "note": 78,
      "start": 55.7639,
      "duration": 0.0494,
      "velocity": 112,
      "chip": "ym2612"
    },
    {
      "channel": 3,
      "note": 90,
      "start": 55.7647,
      "duration": 0.0487,
      "velocity": 97,
      "chip": "ym2612"
    },
    {
      "channel": 3,
      "note": 87,
      "start": 55.8668,
      "duration": 0.0467,
      "velocity": 97,
      "chip": "ym2612"
    },
    {
      "channel": 4,
      "note": 51,
      "start": 55.8676,
      "duration": 0.1796,
      "velocity": 97,
      "chip": "ym2612"
    },
    {
      "channel": 5,
      "note": 56,
      "start": 55.871,
      "duration": 0.2079,
      "velocity": 117,
      "chip": "ym2612"
    },
    {
      "channel": 2,
      "note": 87,
      "start": 55.9804,
      "duration": 0.0495,
      "velocity": 112,
      "chip": "ym2612"
    },
    {
      "channel": 3,
      "note": 82,
      "start": 55.9812,
      "duration": 0.0488,
      "velocity": 97,
      "chip": "ym2612"
    },
    {
      "channel": 0,
      "note": 77,
      "start": 56.0822,
      "duration": 0.0801,
      "velocity": 99,
      "chip": "ym2612"
    },
    {
      "channel": 2,
      "note": 90,
      "start": 56.0835,
      "duration": 0.0461,
      "velocity": 112,
      "chip": "ym2612"
    },
    {
      "channel": 3,
      "note": 78,
      "start": 56.0843,
      "duration": 0.0454,
      "velocity": 97,
      "chip": "ym2612"
    },
    {
      "channel": 4,
      "note": 51,
      "start": 56.0852,
      "duration": 0.0786,
      "velocity": 97,
      "chip": "ym2612"
    },
    {
      "channel": 5,
      "note": 57,
      "start": 56.0886,
      "duration": 0.0902,
      "velocity": 115,
      "chip": "ym2612"
    },
    {
      "channel": 0,
      "note": 78,
      "start": 56.182,
      "duration": 0.0803,
      "velocity": 99,
      "chip": "ym2612"
    },
    {
      "channel": 2,
      "note": 78,
      "start": 56.1832,
      "duration": 0.0468,
      "velocity": 112,
      "chip": "ym2612"
    },
    {
      "channel": 3,
      "note": 75,
      "start": 56.1841,
      "duration": 0.0461,
      "velocity": 97,
      "chip": "ym2612"
    },
    {
      "channel": 4,
      "note": 51,
      "start": 56.1848,
      "duration": 0.079,
      "velocity": 97,
      "chip": "ym2612"
    },
    {
      "channel": 5,
      "note": 57,
      "start": 56.1881,
      "duration": 0.1077,
      "velocity": 115,
      "chip": "ym2612"
    },
    {
      "channel": 1,
      "note": 77,
      "start": 56.2466,
      "duration": 0.0828,
      "velocity": 99,
      "chip": "ym2612"
    },
    {
      "channel": 0,
      "note": 80,
      "start": 56.2991,
      "duration": 0.2465,
      "velocity": 99,
      "chip": "ym2612"
    },
    {
      "channel": 3,
      "note": 80,
      "start": 56.3008,
      "duration": 0.0461,
      "velocity": 97,
      "chip": "ym2612"
    },
    {
      "channel": 4,
      "note": 56,
      "start": 56.3016,
      "duration": 0.1791,
      "velocity": 97,
      "chip": "ym2612"
    },
    {
      "channel": 5,
      "note": 56,
      "start": 56.305,
      "duration": 0.0906,
      "velocity": 117,
      "chip": "ym2612"
    },
    {
      "channel": 1,
      "note": 78,
      "start": 56.3468,
      "duration": 0.0826,
      "velocity": 99,
      "chip": "ym2612"
    },
    {
      "channel": 2,
      "note": 75,
      "start": 56.3998,
      "duration": 0.0471,
      "velocity": 112,
      "chip": "ym2612"
    },
    {
      "channel": 5,
      "note": 57,
      "start": 56.4038,
      "duration": 0.1083,
      "velocity": 115,
      "chip": "ym2612"
    },
    {
      "channel": 1,
      "note": 80,
      "start": 56.4466,
      "duration": 0.2494,
      "velocity": 99,
      "chip": "ym2612"
    },
    {
      "channel": 2,
      "note": 75,
      "start": 56.5162,
      "duration": 0.047,
      "velocity": 112,
      "chip": "ym2612"
    },
    {
      "channel": 3,
      "note": 83,
      "start": 56.517,
      "duration": 0.0463,
      "velocity": 97,
      "chip": "ym2612"
    },
    {
      "channel": 4,
      "note": 56,
      "start": 56.5178,
      "duration": 0.1795,
      "velocity": 97,
      "chip": "ym2612"
    },
    {
      "channel": 5,
      "note": 57,
      "start": 56.5211,
      "duration": 0.0912,
      "velocity": 115,
      "chip": "ym2612"
    },
    {
      "channel": 0,
      "note": 78,
      "start": 56.5795,
      "duration": 0.2495,
      "velocity": 99,
      "chip": "ym2612"
    },
    {
      "channel": 5,
      "note": 57,
      "start": 56.62,
      "duration": 0.0921,
      "velocity": 115,
      "chip": "ym2612"
    },
    {
      "channel": 2,
      "note": 75,
      "start": 56.7162,
      "duration": 0.0471,
      "velocity": 112,
      "chip": "ym2612"
    },
    {
      "channel": 4,
      "note": 56,
      "start": 56.7174,
      "duration": 0.1801,
      "velocity": 97,
      "chip": "ym2612"
    },
    {
      "channel": 5,
      "note": 56,
      "start": 56.7207,
      "duration": 0.2082,
      "velocity": 117,
      "chip": "ym2612"
    },
    {
      "channel": 1,
      "note": 78,
      "start": 56.7301,
      "duration": 0.2491,
      "velocity": 99,
      "chip": "ym2612"
    },
    {
      "channel": 0,
      "note": 77,
      "start": 56.863,
      "duration": 0.2491,
      "velocity": 99,
      "chip": "ym2612"
    },
    {
      "channel": 2,
      "note": 75,
      "start": 56.933,
      "duration": 0.0464,
      "velocity": 112,
      "chip": "ym2612"
    },
    {
      "channel": 3,
      "note": 87,
      "start": 56.9339,
      "duration": 0.0457,
      "velocity": 97,
      "chip": "ym2612"
    },
    {
      "channel": 4,
      "note": 56,
      "start": 56.9347,
      "duration": 0.0797,
      "velocity": 97,
      "chip": "ym2612"
    },
    {
      "channel": 5,
      "note": 57,
      "start": 56.938,
      "duration": 0.1074,
      "velocity": 115,
      "chip": "ym2612"
    },
    {
      "channel": 1,
      "note": 77,
      "start": 57.0134,
      "duration": 0.2493,
      "velocity": 99,
      "chip": "ym2612"
    },
    {
      "channel": 4,
      "note": 56,
      "start": 57.0503,
      "duration": 0.0805,
      "velocity": 97,
      "chip": "ym2612"
    },
    {
      "channel": 5,
      "note": 57,
      "start": 57.0537,
      "duration": 0.0919,
      "velocity": 115,
      "chip": "ym2612"
    },
    {
      "channel": 0,
      "note": 75,
      "start": 57.1488,
      "duration": 0.2469,
      "velocity": 99,
      "chip": "ym2612"
    },
    {
      "channel": 4,
      "note": 59,
      "start": 57.1509,
      "duration": 0.1798,
      "velocity": 97,
      "chip": "ym2612"
    },
    {
      "channel": 5,
      "note": 56,
      "start": 57.1543,
      "duration": 0.0912,
      "velocity": 117,
      "chip": "ym2612"
    },
    {
      "channel": 2,
      "note": 83,
      "start": 57.2496,
      "duration": 0.0471,
      "velocity": 112,
      "chip": "ym2612"
    },
    {
      "channel": 3,
      "note": 78,
      "start": 57.2505,
      "duration": 0.0463,
      "velocity": 97,
      "chip": "ym2612"
    },
    {
      "channel": 5,
      "note": 57,
      "start": 57.2541,
      "duration": 0.1081,
      "velocity": 115,
      "chip": "ym2612"
    },
    {
      "channel": 1,
      "note": 75,
      "start": 57.3133,
      "duration": 0.2495,
      "velocity": 99,
      "chip": "ym2612"
    },
    {
      "channel": 3,
      "note": 83,
      "start": 57.3668,
      "duration": 0.0468,
      "velocity": 97,
      "chip": "ym2612"
    },
    {
      "channel": 4,
      "note": 59,
      "start": 57.3675,
      "duration": 0.18,
      "velocity": 97,
      "chip": "ym2612"
    },
    {
      "channel": 5,
      "note": 57,
      "start": 57.3709,
      "duration": 0.2079,
      "velocity": 115,
      "chip": "ym2612"
    },
    {
      "channel": 0,
      "note": 73,
      "start": 57.4297,
      "duration": 0.2493,
      "velocity": 99,
      "chip": "ym2612"
    },
    {
      "channel": 2,
      "note": 75,
      "start": 57.4639,
      "duration": 0.0491,
      "velocity": 112,
      "chip": "ym2612"
    },
    {
      "channel": 4,
      "note": 59,
      "start": 57.5836,
      "duration": 0.1805,
      "velocity": 97,
      "chip": "ym2612"
    },
    {
      "channel": 5,
      "note": 48,
      "start": 57.587,
      "duration": 0.1918,
      "velocity": 127,
      "chip": "ym2612"
    },
    {
      "channel": 1,
      "note": 73,
      "start": 57.5968,
      "duration": 0.249,
      "velocity": 99,
      "chip": "ym2612"
    },
    {
      "channel": 2,
      "note": 90,
      "start": 57.6802,
      "duration": 0.0496,
      "velocity": 112,
      "chip": "ym2612"
    },
    {
      "channel": 3,
      "note": 87,
      "start": 57.6811,
      "duration": 0.0488,
      "velocity": 97,
      "chip": "ym2612"
    },
    {
      "channel": 0,
      "note": 71,
      "start": 57.7128,
      "duration": 0.2495,
      "velocity": 99,
      "chip": "ym2612"
    },
    {
      "channel": 4,
      "note": 59,
      "start": 57.7837,
      "duration": 0.0805,
      "velocity": 97,
      "chip": "ym2612"
    },
    {
      "channel": 5,
      "note": 57,
      "start": 57.787,
      "duration": 0.1085,
      "velocity": 115,
      "chip": "ym2612"
    },
    {
      "channel": 1,
      "note": 71,
      "start": 57.8802,
      "duration": 0.2493,
      "velocity": 99,
      "chip": "ym2612"
    },
    {
      "channel": 2,
      "note": 83,
      "start": 57.8997,
      "duration": 0.0469,
      "velocity": 112,
      "chip": "ym2612"
    },
    {
      "channel": 3,
      "note": 90,
      "start": 57.9005,
      "duration": 0.0462,
      "velocity": 97,
      "chip": "ym2612"
    },
    {
      "channel": 4,
      "note": 59,
      "start": 57.9012,
      "duration": 0.0793,
      "velocity": 97,
      "chip": "ym2612"
    },
    {
      "channel": 5,
      "note": 57,
      "start": 57.9046,
      "duration": 0.0912,
      "velocity": 115,
      "chip": "ym2612"
    },
    {
      "channel": 0,
      "note": 70,
      "start": 57.9991,
      "duration": 0.1797,
      "velocity": 99,
      "chip": "ym2612"
    },
    {
      "channel": 3,
      "note": 78,
      "start": 58.0008,
      "duration": 0.0456,
      "velocity": 97,
      "chip": "ym2612"
    },
    {
      "channel": 4,
      "note": 54,
      "start": 58.0016,
      "duration": 0.1787,
      "velocity": 97,
      "chip": "ym2612"
    },
    {
      "channel": 5,
      "note": 56,
      "start": 58.005,
      "duration": 0.1071,
      "velocity": 117,
      "chip": "ym2612"
    },
    {
      "channel": 2,
      "note": 78,
      "start": 58.1163,
      "duration": 0.0474,
      "velocity": 112,
      "chip": "ym2612"
    },
    {
      "channel": 5,
      "note": 57,
      "start": 58.1204,
      "duration": 0.0918,
      "velocity": 115,
      "chip": "ym2612"
    },
    {
      "channel": 1,
      "note": 70,
      "start": 58.1636,
      "duration": 0.1825,
      "velocity": 99,
      "chip": "ym2612"
    },
    {
      "channel": 0,
      "note": 71,
      "start": 58.2154,
      "duration": 0.1802,
      "velocity": 99,
      "chip": "ym2612"
    },
    {
      "channel": 2,
      "note": 90,
      "start": 58.2168,
      "duration": 0.0464,
      "velocity": 112,
      "chip": "ym2612"
    },
    {
      "channel": 3,
      "note": 82,
      "start": 58.2176,
      "duration": 0.0457,
      "velocity": 97,
      "chip": "ym2612"
    },
    {
      "channel": 4,
      "note": 54,
      "start": 58.2183,
      "duration": 0.1788,
      "velocity": 97,
      "chip": "ym2612"
    },
    {
      "channel": 5,
      "note": 57,
      "start": 58.2217,
      "duration": 0.0905,
      "velocity": 115,
      "chip": "ym2612"
    },
    {
      "channel": 3,
      "note": 90,
      "start": 58.3166,
      "duration": 0.0471,
      "velocity": 97,
      "chip": "ym2612"
    },
    {
      "channel": 5,
      "note": 57,
      "start": 58.3203,
      "duration": 0.1086,
      "velocity": 115,
      "chip": "ym2612"
    },
    {
      "channel": 1,
      "note": 71,
      "start": 58.38,
      "duration": 0.1828,
      "velocity": 99,
      "chip": "ym2612"
    },
    {
      "channel": 0,
      "note": 73,
      "start": 58.4321,
      "duration": 0.1802,
      "velocity": 99,
      "chip": "ym2612"
    },
    {
      "channel": 2,
      "note": 78,
      "start": 58.4334,
      "duration": 0.0464,
      "velocity": 112,
      "chip": "ym2612"
    },
    {
      "channel": 4,
      "note": 54,
      "start": 58.4346,
      "duration": 0.1793,
      "velocity": 97,
      "chip": "ym2612"
    },
    {
      "channel": 5,
      "note": 56,
      "start": 58.4379,
      "duration": 0.2076,
      "velocity": 117,
      "chip": "ym2612"
    },
    {
      "channel": 3,
      "note": 85,
      "start": 58.531,
      "duration": 0.0495,
      "velocity": 97,
      "chip": "ym2612"
    },
    {
      "channel": 1,
      "note": 73,
      "start": 58.5799,
      "duration": 0.1828,
      "velocity": 99,
      "chip": "ym2612"
    },
    {
      "channel": 0,
      "note": 70,
      "start": 58.6488,
      "duration": 0.0802,
      "velocity": 99,
      "chip": "ym2612"
    },
    {
      "channel": 2,
      "note": 82,
      "start": 58.65,
      "duration": 0.0465,
      "velocity": 112,
      "chip": "ym2612"
    },
    {
      "channel": 4,
      "note": 54,
      "start": 58.6512,
      "duration": 0.1796,
      "velocity": 97,
      "chip": "ym2612"
    },
    {
      "channel": 5,
      "note": 57,
      "start": 58.6545,
      "duration": 0.091,
      "velocity": 115,
      "chip": "ym2612"
    },
    {
      "channel": 0,
      "note": 75,
      "start": 58.7489,
      "duration": 0.2801,
      "velocity": 99,
      "chip": "ym2612"
    },
    {
      "channel": 3,
      "note": 73,
      "start": 58.7506,
      "duration": 0.0469,
      "velocity": 97,
      "chip": "ym2612"
    },
    {
      "channel": 5,
      "note": 57,
      "start": 58.7543,
      "duration": 0.0912,
      "velocity": 115,
      "chip": "ym2612"
    },
    {
      "channel": 1,
      "note": 70,
      "start": 58.7968,
      "duration": 0.0826,
      "velocity": 99,
      "chip": "ym2612"
    },
    {
      "channel": 2,
      "note": 90,
      "start": 58.8495,
      "duration": 0.0471,
      "velocity": 112,
      "chip": "ym2612"
    },
    {
      "channel": 4,
      "note": 51,
      "start": 58.8507,
      "duration": 0.1798,
      "velocity": 97,
      "chip": "ym2612"
    },
    {
      "channel": 5,
      "note": 56,
      "start": 58.854,
      "duration": 0.1082,
      "velocity": 117,
      "chip": "ym2612"
    },
    {
      "channel": 1,
      "note": 75,
      "start": 58.9134,
      "duration": 0.2827,
      "velocity": 99,
      "chip": "ym2612"
    },
    {
      "channel": 2,
      "note": 82,
      "start": 58.9663,
      "duration": 0.0469,
      "velocity": 112,
      "chip": "ym2612"
    },
    {
      "channel": 3,
      "note": 87,
      "start": 58.9672,
      "duration": 0.0461,
      "velocity": 97,
      "chip": "ym2612"
    },
    {
      "channel": 5,
      "note": 57,
      "start": 58.9709,
      "duration": 0.0913,
      "velocity": 115,
      "chip": "ym2612"
    },
    {
      "channel": 0,
      "note": 77,
      "start": 59.0655,
      "duration": 0.1799,
      "velocity": 99,
      "chip": "ym2612"
    },
    {
      "channel": 3,
      "note": 82,
      "start": 59.0673,
      "duration": 0.0462,
      "velocity": 97,
      "chip": "ym2612"
    },
    {
      "channel": 4,
      "note": 51,
      "start": 59.068,
      "duration": 0.1789,
      "velocity": 97,
      "chip": "ym2612"
    },
    {
      "channel": 5,
      "note": 57,
      "start": 59.0713,
      "duration": 0.2076,
      "velocity": 115,
      "chip": "ym2612"
    },
    {
      "channel": 2,
      "note": 78,
      "start": 59.1804,
      "duration": 0.05,
      "velocity": 112,
      "chip": "ym2612"
    },
    {
      "channel": 3,
      "note": 90,
      "start": 59.1812,
      "duration": 0.0494,
      "velocity": 97,
      "chip": "ym2612"
    },
    {
      "channel": 1,
      "note": 77,
      "start": 59.2302,
      "duration": 0.1825,
      "velocity": 99,
      "chip": "ym2612"
    },
    {
      "channel": 0,
      "note": 78,
      "start": 59.2821,
      "duration": 0.1802,
      "velocity": 99,
      "chip": "ym2612"
    },
    {
      "channel": 3,
      "note": 87,
      "start": 59.2839,
      "duration": 0.0464,
      "velocity": 97,
      "chip": "ym2612"
    },
    {
      "channel": 4,
      "note": 51,
      "start": 59.2846,
      "duration": 0.1792,
      "velocity": 97,
      "chip": "ym2612"
    },
    {
      "channel": 5,
      "note": 56,
      "start": 59.2879,
      "duration": 0.2077,
      "velocity": 117,
      "chip": "ym2612"
    },
    {
      "channel": 2,
      "note": 87,
      "start": 59.3804,
      "duration": 0.0496,
      "velocity": 112,
      "chip": "ym2612"
    },
    {
      "channel": 3,
      "note": 82,
      "start": 59.3812,
      "duration": 0.0489,
      "velocity": 97,
      "chip": "ym2612"
    },
    {
      "channel": 1,
      "note": 78,
      "start": 59.4466,
      "duration": 0.1828,
      "velocity": 99,
      "chip": "ym2612"
    },
    {
      "channel": 0,
      "note": 82,
      "start": 59.4988,
      "duration": 0.1802,
      "velocity": 99,
      "chip": "ym2612"
    },
    {
      "channel": 2,
      "note": 90,
      "start": 59.5001,
      "duration": 0.0464,
      "velocity": 112,
      "chip": "ym2612"
    },
    {
      "channel": 3,
      "note": 78,
      "start": 59.5009,
      "duration": 0.0457,
      "velocity": 97,
      "chip": "ym2612"
    },
    {
      "channel": 4,
      "note": 51,
      "start": 59.5017,
      "duration": 0.0789,
      "velocity": 97,
      "chip": "ym2612"
    },
    {
      "channel": 5,
      "note": 57,
      "start": 59.505,
      "duration": 0.0905,
      "velocity": 115,
      "chip": "ym2612"
    },
    {
      "channel": 2,
      "note": 78,
      "start": 59.5996,
      "duration": 0.0471,
      "velocity": 112,
      "chip": "ym2612"
    },
    {
      "channel": 3,
      "note": 75,
      "start": 59.6005,
      "duration": 0.0464,
      "velocity": 97,
      "chip": "ym2612"
    },
    {
      "channel": 4,
      "note": 51,
      "start": 59.6012,
      "duration": 0.0792,
      "velocity": 97,
      "chip": "ym2612"
    },
    {
      "channel": 5,
      "note": 57,
      "start": 59.6046,
      "duration": 0.1077,
      "velocity": 115,
      "chip": "ym2612"
    },
    {
      "channel": 1,
      "note": 82,
      "start": 59.6466,
      "duration": 0.1828,
      "velocity": 99,
      "chip": "ym2612"
    },
    {
      "channel": 0,
      "note": 80,
      "start": 59.7155,
      "duration": 0.1802,
      "velocity": 99,
      "chip": "ym2612"
    },
    {
      "channel": 3,
      "note": 80,
      "start": 59.7172,
      "duration": 0.0461,
      "velocity": 97,
      "chip": "ym2612"
    },
    {
      "channel": 4,
      "note": 53,
      "start": 59.718,
      "duration": 0.1791,
      "velocity": 97,
      "chip": "ym2612"
    },
    {
      "channel": 5,
      "note": 56,
      "start": 59.7214,
      "duration": 0.0908,
      "velocity": 117,
      "chip": "ym2612"
    },
    {
      "channel": 2,
      "note": 77,
      "start": 59.8165,
      "duration": 0.0471,
      "velocity": 112,
      "chip": "ym2612"
    },
    {
      "channel": 5,
      "note": 57,
      "start": 59.8206,
      "duration": 0.0915,
      "velocity": 115,
      "chip": "ym2612"
    },
    {
      "channel": 1,
      "note": 80,
      "start": 59.8634,
      "duration": 0.1824,
      "velocity": 99,
      "chip": "ym2612"
    },
    {
      "channel": 0,
      "note": 78,
      "start": 59.9153,
      "duration": 0.1803,
      "velocity": 99,
      "chip": "ym2612"
    },
    {
      "channel": 2,
      "note": 77,
      "start": 59.9166,
      "duration": 0.0467,
      "velocity": 112,
      "chip": "ym2612"
    },
    {
      "channel": 3,
      "note": 83,
      "start": 59.9174,
      "duration": 0.046,
      "velocity": 97,
      "chip": "ym2612"
    },
    {
      "channel": 4,
      "note": 53,
      "start": 59.9181,
      "duration": 0.1791,
      "velocity": 97,
      "chip": "ym2612"
    },
    {
      "channel": 5,
      "note": 57,
      "start": 59.9215,
      "duration": 0.1074,
      "velocity": 115,
      "chip": "ym2612"
    },
    {
      "channel": 5,
      "note": 57,
      "start": 60.0368,
      "duration": 0.0921,
      "velocity": 115,
      "chip": "ym2612"
    },
    {
      "channel": 1,
      "note": 78,
      "start": 60.0802,
      "duration": 0.1826,
      "velocity": 99,
      "chip": "ym2612"
    },
    {
      "channel": 0,
      "note": 77,
      "start": 60.1321,
      "duration": 0.18,
      "velocity": 99,
      "chip": "ym2612"
    },
    {
      "channel": 2,
      "note": 77,
      "start": 60.1334,
      "duration": 0.0462,
      "velocity": 112,
      "chip": "ym2612"
    },
    {
      "channel": 4,
      "note": 53,
      "start": 60.1346,
      "duration": 0.1791,
      "velocity": 97,
      "chip": "ym2612"
    },
    {
      "channel": 5,
      "note": 56,
      "start": 60.1379,
      "duration": 0.2077,
      "velocity": 117,
      "chip": "ym2612"
    },
    {
      "channel": 1,
      "note": 77,
      "start": 60.2968,
      "duration": 0.1826,
      "velocity": 99,
      "chip": "ym2612"
    },
    {
      "channel": 0,
      "note": 82,
      "start": 60.3489,
      "duration": 0.0801,
      "velocity": 99,
      "chip": "ym2612"
    },
    {
      "channel": 2,
      "note": 77,
      "start": 60.3501,
      "duration": 0.0464,
      "velocity": 112,
      "chip": "ym2612"
    },
    {
      "channel": 3,
      "note": 89,
      "start": 60.351,
      "duration": 0.0456,
      "velocity": 97,
      "chip": "ym2612"
    },
    {
      "channel": 4,
      "note": 53,
      "start": 60.3518,
      "duration": 0.0786,
      "velocity": 97,
      "chip": "ym2612"
    },
    {
      "channel": 5,
      "note": 57,
      "start": 60.3552,
      "duration": 0.0903,
      "velocity": 115,
      "chip": "ym2612"
    },
    {
      "channel": 0,
      "note": 75,
      "start": 60.4488,
      "duration": 0.6802,
      "velocity": 99,
      "chip": "ym2612"
    },
    {
      "channel": 4,
      "note": 53,
      "start": 60.4507,
      "duration": 0.0801,
      "velocity": 97,
      "chip": "ym2612"
    },
    {
      "channel": 5,
      "note": 57,
      "start": 60.4541,
      "duration": 0.1081,
      "velocity": 115,
      "chip": "ym2612"
    },
    {
      "channel": 1,
      "note": 82,
      "start": 60.5134,
      "duration": 0.0827,
      "velocity": 99,
      "chip": "ym2612"
    },
    {
      "channel": 4,
      "note": 59,
      "start": 60.5671,
      "duration": 0.0801,
      "velocity": 97,
      "chip": "ym2612"
    },
    {
      "channel": 5,
      "note": 56,
      "start": 60.5704,
      "duration": 0.0918,
      "velocity": 117,
      "chip": "ym2612"
    },
    {
      "channel": 1,
      "note": 75,
      "start": 60.6136,
      "duration": 0.6826,
      "velocity": 99,
      "chip": "ym2612"
    },
    {
      "channel": 2,
      "note": 83,
      "start": 60.6663,
      "duration": 0.0467,
      "velocity": 112,
      "chip": "ym2612"
    },
    {
      "channel": 3,
      "note": 78,
      "start": 60.6672,
      "duration": 0.046,
      "velocity": 97,
      "chip": "ym2612"
    },
    {
      "channel": 4,
      "note": 59,
      "start": 60.6679,
      "duration": 0.0795,
      "velocity": 97,
      "chip": "ym2612"
    },
    {
      "channel": 5,
      "note": 57,
      "start": 60.6713,
      "duration": 0.1075,
      "velocity": 115,
      "chip": "ym2612"
    },
    {
      "channel": 3,
      "note": 83,
      "start": 60.7834,
      "duration": 0.0469,
      "velocity": 97,
      "chip": "ym2612"
    },
    {
      "channel": 4,
      "note": 59,
      "start": 60.7842,
      "duration": 0.1799,
      "velocity": 97,
      "chip": "ym2612"
    },
    {
      "channel": 5,
      "note": 57,
      "start": 60.7876,
      "duration": 0.1912,
      "velocity": 115,
      "chip": "ym2612"
    },
    {
      "channel": 2,
      "note": 75,
      "start": 60.8806,
      "duration": 0.0492,
      "velocity": 112,
      "chip": "ym2612"
    },
    {
      "channel": 4,
      "note": 59,
      "start": 60.9837,
      "duration": 0.0804,
      "velocity": 97,
      "chip": "ym2612"
    },
    {
      "channel": 5,
      "note": 48,
      "start": 60.9872,
      "duration": 0.2084,
      "velocity": 127,
      "chip": "ym2612"
    },
    {
      "channel": 2,
      "note": 90,
      "start": 61.0972,
      "duration": 0.0493,
      "velocity": 112,
      "chip": "ym2612"
    },
    {
      "channel": 3,
      "note": 87,
      "start": 61.098,
      "duration": 0.0486,
      "velocity": 97,
      "chip": "ym2612"
    },
    {
      "channel": 4,
      "note": 59,
      "start": 61.0988,
      "duration": 0.0817,
      "velocity": 97,
      "chip": "ym2612"
    },
    {
      "channel": 0,
      "note": 73,
      "start": 61.1989,
      "duration": 0.0801,
      "velocity": 99,
      "chip": "ym2612"
    },
    {
      "channel": 4,
      "note": 59,
      "start": 61.201,
      "duration": 0.1795,
      "velocity": 97,
      "chip": "ym2612"
    },
    {
      "channel": 5,
      "note": 57,
      "start": 61.2043,
      "duration": 0.1078,
      "velocity": 115,
      "chip": "ym2612"
    },
    {
      "channel": 0,
      "note": 75,
      "start": 61.3153,
      "duration": 0.0803,
      "velocity": 99,
      "chip": "ym2612"
    },
    {
      "channel": 2,
      "note": 83,
      "start": 61.3166,
      "duration": 0.0471,
      "velocity": 112,
      "chip": "ym2612"
    },
    {
      "channel": 3,
      "note": 90,
      "start": 61.3174,
      "duration": 0.0464,
      "velocity": 97,
      "chip": "ym2612"
    },
    {
      "channel": 5,
      "note": 57,
      "start": 61.3211,
      "duration": 0.0912,
      "velocity": 115,
      "chip": "ym2612"
    },
    {
      "channel": 1,
      "note": 73,
      "start": 61.3635,
      "duration": 0.0824,
      "velocity": 99,
      "chip": "ym2612"
    },
    {
      "channel": 0,
      "note": 76,
      "start": 61.4157,
      "duration": 0.2466,
      "velocity": 99,
      "chip": "ym2612"
    },
    {
      "channel": 3,
      "note": 92,
      "start": 61.4173,
      "duration": 0.0464,
      "velocity": 97,
      "chip": "ym2612"
    },
    {
      "channel": 4,
      "note": 61,
      "start": 61.418,
      "duration": 0.1794,
      "velocity": 97,
      "chip": "ym2612"
    },
    {
      "channel": 5,
      "note": 56,
      "start": 61.4213,
      "duration": 0.0908,
      "velocity": 117,
      "chip": "ym2612"
    },
    {
      "channel": 1,
      "note": 75,
      "start": 61.4634,
      "duration": 0.0826,
      "velocity": 99,
      "chip": "ym2612"
    },
    {
      "channel": 2,
      "note": 88,
      "start": 61.5162,
      "duration": 0.0471,
      "velocity": 112,
      "chip": "ym2612"
    },
    {
      "channel": 3,
      "note": 80,
      "start": 61.5171,
      "duration": 0.0464,
      "velocity": 97,
      "chip": "ym2612"
    },
    {
      "channel": 5,
      "note": 57,
      "start": 61.5207,
      "duration": 0.1082,
      "velocity": 115,
      "chip": "ym2612"
    },
    {
      "channel": 1,
      "note": 76,
      "start": 61.58,
      "duration": 0.2495,
      "velocity": 99,
      "chip": "ym2612"
    },
    {
      "channel": 2,
      "note": 64,
      "start": 61.633,
      "duration": 0.0469,
      "velocity": 112,
      "chip": "ym2612"
    },
    {
      "channel": 3,
      "note": 80,
      "start": 61.6338,
      "duration": 0.0462,
      "velocity": 97,
      "chip": "ym2612"
    },
    {
      "channel": 4,
      "note": 61,
      "start": 61.6346,
      "duration": 0.1796,
      "velocity": 97,
      "chip": "ym2612"
    },
    {
      "channel": 5,
      "note": 57,
      "start": 61.6379,
      "duration": 0.091,
      "velocity": 115,
      "chip": "ym2612"
    },
    {
      "channel": 0,
      "note": 75,
      "start": 61.6963,
      "duration": 0.2493,
      "velocity": 99,
      "chip": "ym2612"
    },
    {
      "channel": 3,
      "note": 80,
      "start": 61.7334,
      "duration": 0.0467,
      "velocity": 97,
      "chip": "ym2612"
    },
    {
      "channel": 5,
      "note": 57,
      "start": 61.7371,
      "duration": 0.1083,
      "velocity": 115,
      "chip": "ym2612"
    },
    {
      "channel": 2,
      "note": 76,
      "start": 61.8495,
      "duration": 0.047,
      "velocity": 112,
      "chip": "ym2612"
    },
    {
      "channel": 3,
      "note": 92,
      "start": 61.8503,
      "duration": 0.0463,
      "velocity": 97,
      "chip": "ym2612"
    },
    {
      "channel": 4,
      "note": 61,
      "start": 61.8511,
      "duration": 0.1797,
      "velocity": 97,
      "chip": "ym2612"
    },
    {
      "channel": 5,
      "note": 48,
      "start": 61.8545,
      "duration": 0.191,
      "velocity": 127,
      "chip": "ym2612"
    },
    {
      "channel": 1,
      "note": 75,
      "start": 61.8635,
      "duration": 0.249,
      "velocity": 99,
      "chip": "ym2612"
    },
    {
      "channel": 3,
      "note": 80,
      "start": 61.9473,
      "duration": 0.0496,
      "velocity": 97,
      "chip": "ym2612"
    },
    {
      "channel": 0,
      "note": 73,
      "start": 61.9796,
      "duration": 0.4494,
      "velocity": 99,
      "chip": "ym2612"
    },
    {
      "channel": 2,
      "note": 88,
      "start": 62.0495,
      "duration": 0.0472,
      "velocity": 112,
      "chip": "ym2612"
    },
    {
      "channel": 3,
      "note": 80,
      "start": 62.0504,
      "duration": 0.0464,
      "velocity": 97,
      "chip": "ym2612"
    },
    {
      "channel": 4,
      "note": 61,
      "start": 62.0511,
      "duration": 0.1796,
      "velocity": 97,
      "chip": "ym2612"
    },
    {
      "channel": 5,
      "note": 57,
      "start": 62.0545,
      "duration": 0.1078,
      "velocity": 115,
      "chip": "ym2612"
    },
    {
      "channel": 1,
      "note": 73,
      "start": 62.1469,
      "duration": 0.4492,
      "velocity": 99,
      "chip": "ym2612"
    },
    {
      "channel": 2,
      "note": 76,
      "start": 62.1664,
      "duration": 0.0469,
      "velocity": 112,
      "chip": "ym2612"
    },
    {
      "channel": 3,
      "note": 92,
      "start": 62.1672,
      "duration": 0.0462,
      "velocity": 97,
      "chip": "ym2612"
    },
    {
      "channel": 5,
      "note": 57,
      "start": 62.1709,
      "duration": 0.0913,
      "velocity": 115,
      "chip": "ym2612"
    },
    {
      "channel": 3,
      "note": 80,
      "start": 62.2668,
      "duration": 0.0467,
      "velocity": 97,
      "chip": "ym2612"
    },
    {
      "channel": 4,
      "note": 56,
      "start": 62.2674,
      "duration": 0.1798,
      "velocity": 97,
      "chip": "ym2612"
    },
    {
      "channel": 5,
      "note": 56,
      "start": 62.2708,
      "duration": 0.108,
      "velocity": 117,
      "chip": "ym2612"
    },
    {
      "channel": 2,
      "note": 75,
      "start": 62.3829,
      "duration": 0.0466,
      "velocity": 112,
      "chip": "ym2612"
    },
    {
      "channel": 3,
      "note": 92,
      "start": 62.3837,
      "duration": 0.046,
      "velocity": 97,
      "chip": "ym2612"
    },
    {
      "channel": 5,
      "note": 57,
      "start": 62.3874,
      "duration": 0.0915,
      "velocity": 115,
      "chip": "ym2612"
    },
    {
      "channel": 0,
      "note": 71,
      "start": 62.4822,
      "duration": 0.1801,
      "velocity": 99,
      "chip": "ym2612"
    },
    {
      "channel": 3,
      "note": 80,
      "start": 62.4839,
      "duration": 0.0464,
      "velocity": 97,
      "chip": "ym2612"
    },
    {
      "channel": 4,
      "note": 56,
      "start": 62.4846,
      "duration": 0.1791,
      "velocity": 97,
      "chip": "ym2612"
    },
    {
      "channel": 5,
      "note": 57,
      "start": 62.488,
      "duration": 0.2076,
      "velocity": 115,
      "chip": "ym2612"
    },
    {
      "channel": 2,
      "note": 87,
      "start": 62.5804,
      "duration": 0.0495,
      "velocity": 112,
      "chip": "ym2612"
    },
    {
      "channel": 3,
      "note": 80,
      "start": 62.5812,
      "duration": 0.0489,
      "velocity": 97,
      "chip": "ym2612"
    },
    {
      "channel": 1,
      "note": 71,
      "start": 62.6467,
      "duration": 0.1827,
      "velocity": 99,
      "chip": "ym2612"
    },
    {
      "channel": 0,
      "note": 73,
      "start": 62.6988,
      "duration": 0.1802,
      "velocity": 99,
      "chip": "ym2612"
    },
    {
      "channel": 3,
      "note": 92,
      "start": 62.7005,
      "duration": 0.0464,
      "velocity": 97,
      "chip": "ym2612"
    },
    {
      "channel": 4,
      "note": 56,
      "start": 62.7012,
      "duration": 0.1792,
      "velocity": 97,
      "chip": "ym2612"
    },
    {
      "channel": 5,
      "note": 56,
      "start": 62.7045,
      "duration": 0.2076,
      "velocity": 117,
      "chip": "ym2612"
    },
    {
      "channel": 2,
      "note": 63,
      "start": 62.7972,
      "duration": 0.0495,
      "velocity": 112,
      "chip": "ym2612"
    },
    {
      "channel": 3,
      "note": 80,
      "start": 62.798,
      "duration": 0.0488,
      "velocity": 97,
      "chip": "ym2612"
    },
    {
      "channel": 1,
      "note": 73,
      "start": 62.8466,
      "duration": 0.1828,
      "velocity": 99,
      "chip": "ym2612"
    },
    {
      "channel": 0,
      "note": 80,
      "start": 62.9153,
      "duration": 0.1803,
      "velocity": 99,
      "chip": "ym2612"
    },
    {
      "channel": 2,
      "note": 75,
      "start": 62.9166,
      "duration": 0.0466,
      "velocity": 112,
      "chip": "ym2612"
    },
    {
      "channel": 3,
      "note": 92,
      "start": 62.9174,
      "duration": 0.0459,
      "velocity": 97,
      "chip": "ym2612"
    },
    {
      "channel": 4,
      "note": 56,
      "start": 62.9181,
      "duration": 0.179,
      "velocity": 97,
      "chip": "ym2612"
    },
    {
      "channel": 5,
      "note": 57,
      "start": 62.9215,
      "duration": 0.0907,
      "velocity": 115,
      "chip": "ym2612"
    },
    {
      "channel": 2,
      "note": 87,
      "start": 63.0164,
      "duration": 0.0471,
      "velocity": 112,
      "chip": "ym2612"
    },
    {
      "channel": 3,
      "note": 80,
      "start": 63.0173,
      "duration": 0.0464,
      "velocity": 97,
      "chip": "ym2612"
    },
    {
      "channel": 5,
      "note": 57,
      "start": 63.021,
      "duration": 0.0912,
      "velocity": 115,
      "chip": "ym2612"
    },
    {
      "channel": 1,
      "note": 80,
      "start": 63.0634,
      "duration": 0.1824,
      "velocity": 99,
      "chip": "ym2612"
    },
    {
      "channel": 0,
      "note": 82,
      "start": 63.1155,
      "duration": 0.2802,
      "velocity": 99,
      "chip": "ym2612"
    },
    {
      "channel": 3,
      "note": 94,
      "start": 63.1171,
      "duration": 0.0463,
      "velocity": 97,
      "chip": "ym2612"
    },
    {
      "channel": 4,
      "note": 54,
      "start": 63.1178,
      "duration": 0.1795,
      "velocity": 97,
      "chip": "ym2612"
    },
    {
      "channel": 5,
      "note": 56,
      "start": 63.1211,
      "duration": 0.1078,
      "velocity": 117,
      "chip": "ym2612"
    },
    {
      "channel": 2,
      "note": 85,
      "start": 63.2331,
      "duration": 0.0473,
      "velocity": 112,
      "chip": "ym2612"
    },
    {
      "channel": 3,
      "note": 82,
      "start": 63.2339,
      "duration": 0.0466,
      "velocity": 97,
      "chip": "ym2612"
    },
    {
      "channel": 5,
      "note": 57,
      "start": 63.2376,
      "duration": 0.0913,
      "velocity": 115,
      "chip": "ym2612"
    },
    {
      "channel": 1,
      "note": 82,
      "start": 63.2802,
      "duration": 0.2825,
      "velocity": 99,
      "chip": "ym2612"
    },
    {
      "channel": 2,
      "note": 61,
      "start": 63.333,
      "duration": 0.0467,
      "velocity": 112,
      "chip": "ym2612"
    },
    {
      "channel": 3,
      "note": 82,
      "start": 63.3338,
      "duration": 0.0461,
      "velocity": 97,
      "chip": "ym2612"
    },
    {
      "channel": 4,
      "note": 54,
      "start": 63.3346,
      "duration": 0.1794,
      "velocity": 97,
      "chip": "ym2612"
    },
    {
      "channel": 5,
      "note": 57,
      "start": 63.3379,
      "duration": 0.1076,
      "velocity": 115,
      "chip": "ym2612"
    },
    {
      "channel": 0,
      "note": 83,
      "start": 63.4486,
      "duration": 0.2803,
      "velocity": 99,
      "chip": "ym2612"
    },
    {
      "channel": 3,
      "note": 82,
      "start": 63.4505,
      "duration": 0.0465,
      "velocity": 97,
      "chip": "ym2612"
    },
    {
      "channel": 5,
      "note": 57,
      "start": 63.4541,
      "duration": 0.0915,
      "velocity": 115,
      "chip": "ym2612"
    },
    {
      "channel": 2,
      "note": 73,
      "start": 63.5497,
      "duration": 0.0472,
      "velocity": 112,
      "chip": "ym2612"
    },
    {
      "channel": 3,
      "note": 94,
      "start": 63.5505,
      "duration": 0.0466,
      "velocity": 97,
      "chip": "ym2612"
    },
    {
      "channel": 4,
      "note": 54,
      "start": 63.5512,
      "duration": 0.1793,
      "velocity": 97,
      "chip": "ym2612"
    },
    {
      "channel": 5,
      "note": 56,
      "start": 63.5546,
      "duration": 0.2076,
      "velocity": 117,
      "chip": "ym2612"
    },
    {
      "channel": 1,
      "note": 83,
      "start": 63.5968,
      "duration": 0.2826,
      "velocity": 99,
      "chip": "ym2612"
    },
    {
      "channel": 3,
      "note": 82,
      "start": 63.6475,
      "duration": 0.0496,
      "velocity": 97,
      "chip": "ym2612"
    },
    {
      "channel": 0,
      "note": 85,
      "start": 63.7655,
      "duration": 0.1801,
      "velocity": 99,
      "chip": "ym2612"
    },
    {
      "channel": 2,
      "note": 85,
      "start": 63.7669,
      "duration": 0.0463,
      "velocity": 112,
      "chip": "ym2612"
    },
    {
      "channel": 3,
      "note": 82,
      "start": 63.7677,
      "duration": 0.0456,
      "velocity": 97,
      "chip": "ym2612"
    },
    {
      "channel": 4,
      "note": 54,
      "start": 63.7685,
      "duration": 0.1786,
      "velocity": 97,
      "chip": "ym2612"
    },
    {
      "channel": 5,
      "note": 57,
      "start": 63.7718,
      "duration": 0.0904,
      "velocity": 115,
      "chip": "ym2612"
    },
    {
      "channel": 2,
      "note": 73,
      "start": 63.8664,
      "duration": 0.0471,
      "velocity": 112,
      "chip": "ym2612"
    },
    {
      "channel": 3,
      "note": 94,
      "start": 63.8672,
      "duration": 0.0464,
      "velocity": 97,
      "chip": "ym2612"
    },
    {
      "channel": 5,
      "note": 57,
      "start": 63.8709,
      "duration": 0.1079,
      "velocity": 115,
      "chip": "ym2612"
    },
    {
      "channel": 1,
      "note": 85,
      "start": 63.9134,
      "duration": 0.1827,
      "velocity": 99,
      "chip": "ym2612"
    },
    {
      "channel": 0,
      "note": 84,
      "start": 63.9821,
      "duration": 0.3136,
      "velocity": 99,
      "chip": "ym2612"
    },
    {
      "channel": 3,
      "note": 78,
      "start": 63.9838,
      "duration": 0.0465,
      "velocity": 97,
      "chip": "ym2612"
    },
    {
      "channel": 4,
      "note": 59,
      "start": 63.9845,
      "duration": 0.18,
      "velocity": 97,
      "chip": "ym2612"
    },
    {
      "channel": 5,
      "note": 56,
      "start": 63.9879,
      "duration": 0.091,
      "velocity": 117,
      "chip": "ym2612"
    },
    {
      "channel": 2,
      "note": 71,
      "start": 64.083,
      "duration": 0.0473,
      "velocity": 112,
      "chip": "ym2612"
    },
    {
      "channel": 3,
      "note": 90,
      "start": 64.0839,
      "duration": 0.0466,
      "velocity": 97,
      "chip": "ym2612"
    },
    {
      "channel": 5,
      "note": 57,
      "start": 64.0876,
      "duration": 0.0912,
      "velocity": 115,
      "chip": "ym2612"
    },
    {
      "channel": 1,
      "note": 84,
      "start": 64.1302,
      "duration": 0.3158,
      "velocity": 99,
      "chip": "ym2612"
    },
    {
      "channel": 3,
      "note": 78,
      "start": 64.1833,
      "duration": 0.0471,
      "velocity": 97,
      "chip": "ym2612"
    },
    {
      "channel": 4,
      "note": 59,
      "start": 64.1841,
      "duration": 0.18,
      "velocity": 97,
      "chip": "ym2612"
    },
    {
      "channel": 5,
      "note": 57,
      "start": 64.1873,
      "duration": 0.2082,
      "velocity": 115,
      "chip": "ym2612"
    },
    {
      "channel": 0,
      "note": 83,
      "start": 64.2965,
      "duration": 0.2823,
      "velocity": 99,
      "chip": "ym2612"
    },
    {
      "channel": 2,
      "note": 83,
      "start": 64.2978,
      "duration": 0.0487,
      "velocity": 112,
      "chip": "ym2612"
    },
    {
      "channel": 3,
      "note": 78,
      "start": 64.2986,
      "duration": 0.048,
      "velocity": 97,
      "chip": "ym2612"
    },
    {
      "channel": 3,
      "note": 90,
      "start": 64.4001,
      "duration": 0.0471,
      "velocity": 97,
      "chip": "ym2612"
    },
    {
      "channel": 4,
      "note": 59,
      "start": 64.4008,
      "duration": 0.1794,
      "velocity": 97,
      "chip": "ym2612"
    },
    {
      "channel": 5,
      "note": 48,
      "start": 64.4042,
      "duration": 0.208,
      "velocity": 127,
      "chip": "ym2612"
    },
    {
      "channel": 1,
      "note": 83,
      "start": 64.4467,
      "duration": 0.2827,
      "velocity": 99,
      "chip": "ym2612"
    },
    {
      "channel": 2,
      "note": 59,
      "start": 64.5137,
      "duration": 0.0495,
      "velocity": 112,
      "chip": "ym2612"
    },
    {
      "channel": 3,
      "note": 78,
      "start": 64.5145,
      "duration": 0.0488,
      "velocity": 97,
      "chip": "ym2612"
    },
    {
      "channel": 0,
      "note": 78,
      "start": 64.6155,
      "duration": 0.0801,
      "velocity": 99,
      "chip": "ym2612"
    },
    {
      "channel": 2,
      "note": 71,
      "start": 64.6169,
      "duration": 0.0463,
      "velocity": 112,
      "chip": "ym2612"
    },
    {
      "channel": 3,
      "note": 90,
      "start": 64.6177,
      "duration": 0.0456,
      "velocity": 97,
      "chip": "ym2612"
    },
    {
      "channel": 4,
      "note": 59,
      "start": 64.6184,
      "duration": 0.1787,
      "velocity": 97,
      "chip": "ym2612"
    },
    {
      "channel": 5,
      "note": 57,
      "start": 64.6218,
      "duration": 0.0903,
      "velocity": 115,
      "chip": "ym2612"
    },
    {
      "channel": 0,
      "note": 76,
      "start": 64.7153,
      "duration": 0.0803,
      "velocity": 99,
      "chip": "ym2612"
    },
    {
      "channel": 2,
      "note": 83,
      "start": 64.7166,
      "duration": 0.0467,
      "velocity": 112,
      "chip": "ym2612"
    },
    {
      "channel": 3,
      "note": 78,
      "start": 64.7174,
      "duration": 0.0461,
      "velocity": 97,
      "chip": "ym2612"
    },
    {
      "channel": 5,
      "note": 57,
      "start": 64.7211,
      "duration": 0.1079,
      "velocity": 115,
      "chip": "ym2612"
    },
    {
      "channel": 1,
      "note": 78,
      "start": 64.78,
      "duration": 0.0828,
      "velocity": 99,
      "chip": "ym2612"
    },
    {
      "channel": 0,
      "note": 75,
      "start": 64.8323,
      "duration": 0.18,
      "velocity": 99,
      "chip": "ym2612"
    },
    {
      "channel": 2,
      "note": 75,
      "start": 64.8358,
      "duration": 0.1771,
      "velocity": 97,
      "chip": "ym2612"
    },
    {
      "channel": 3,
      "note": 87,
      "start": 64.8392,
      "duration": 0.1739,
      "velocity": 97,
      "chip": "ym2612"
    },
    {
      "channel": 4,
      "note": 51,
      "start": 64.8399,
      "duration": 0.1733,
      "velocity": 97,
      "chip": "ym2612"
    },
    {
      "channel": 5,
      "note": 48,
      "start": 64.8433,
      "duration": 0.4021,
      "velocity": 127,
      "chip": "ym2612"
    },
    {
      "channel": 1,
      "note": 76,
      "start": 64.8801,
      "duration": 0.0826,
      "velocity": 99,
      "chip": "ym2612"
    },
    {
      "channel": 1,
      "note": 75,
      "start": 64.98,
      "duration": 0.1828,
      "velocity": 99,
      "chip": "ym2612"
    },
    {
      "channel": 0,
      "note": 80,
      "start": 65.2488,
      "duration": 0.2802,
      "velocity": 99,
      "chip": "ym2612"
    },
    {
      "channel": 2,
      "note": 80,
      "start": 65.2501,
      "duration": 0.2795,
      "velocity": 97,
      "chip": "ym2612"
    },
    {
      "channel": 3,
      "note": 92,
      "start": 65.251,
      "duration": 0.2787,
      "velocity": 97,
      "chip": "ym2612"
    },
    {
      "channel": 4,
      "note": 56,
      "start": 65.2518,
      "duration": 0.278,
      "velocity": 97,
      "chip": "ym2612"
    },
    {
      "channel": 5,
      "note": 48,
      "start": 65.2552,
      "duration": 0.3235,
      "velocity": 127,
      "chip": "ym2612"
    },
    {
      "channel": 1,
      "note": 80,
      "start": 65.4136,
      "duration": 0.2825,
      "velocity": 99,
      "chip": "ym2612"
    },
    {
      "channel": 0,
      "note": 78,
      "start": 65.582,
      "duration": 0.2803,
      "velocity": 99,
      "chip": "ym2612"
    },
    {
      "channel": 2,
      "note": 78,
      "start": 65.5833,
      "duration": 0.2796,
      "velocity": 97,
      "chip": "ym2612"
    },
    {
      "channel": 3,
      "note": 90,
      "start": 65.5842,
      "duration": 0.2789,
      "velocity": 97,
      "chip": "ym2612"
    },
    {
      "channel": 4,
      "note": 54,
      "start": 65.5849,
      "duration": 0.2783,
      "velocity": 97,
      "chip": "ym2612"
    },
    {
      "channel": 5,
      "note": 48,
      "start": 65.5883,
      "duration": 0.0906,
      "velocity": 127,
      "chip": "ym2612"
    },
    {
      "channel": 5,
      "note": 56,
      "start": 65.6868,
      "duration": 0.3088,
      "velocity": 117,
      "chip": "ym2612"
    },
    {
      "channel": 1,
      "note": 78,
      "start": 65.7301,
      "duration": 0.2826,
      "velocity": 99,
      "chip": "ym2612"
    },
    {
      "channel": 0,
      "note": 75,
      "start": 65.8964,
      "duration": 0.1826,
      "velocity": 99,
      "chip": "ym2612"
    },
    {
      "channel": 2,
      "note": 87,
      "start": 65.8978,
      "duration": 0.1817,
      "velocity": 97,
      "chip": "ym2612"
    },
    {
      "channel": 3,
      "note": 87,
      "start": 65.8988,
      "duration": 0.1809,
      "velocity": 97,
      "chip": "ym2612"
    },
    {
      "channel": 4,
      "note": 51,
      "start": 65.8996,
      "duration": 0.1803,
      "velocity": 97,
      "chip": "ym2612"
    },
    {
      "channel": 5,
      "note": 56,
      "start": 66.0034,
      "duration": 0.1087,
      "velocity": 117,
      "chip": "ym2612"
    },
    {
      "channel": 1,
      "note": 75,
      "start": 66.0466,
      "duration": 0.1828,
      "velocity": 99,
      "chip": "ym2612"
    },
    {
      "channel": 0,
      "note": 71,
      "start": 66.1154,
      "duration": 0.0802,
      "velocity": 99,
      "chip": "ym2612"
    },
    {
      "channel": 2,
      "note": 83,
      "start": 66.1168,
      "duration": 0.0794,
      "velocity": 97,
      "chip": "ym2612"
    },
    {
      "channel": 3,
      "note": 83,
      "start": 66.1177,
      "duration": 0.0787,
      "velocity": 97,
      "chip": "ym2612"
    },
    {
      "channel": 4,
      "note": 47,
      "start": 66.1185,
      "duration": 0.078,
      "velocity": 97,
      "chip": "ym2612"
    },
    {
      "channel": 5,
      "note": 48,
      "start": 66.1219,
      "duration": 0.1902,
      "velocity": 127,
      "chip": "ym2612"
    },
    {
      "channel": 0,
      "note": 78,
      "start": 66.213,
      "duration": 0.0826,
      "velocity": 99,
      "chip": "ym2612"
    },
    {
      "channel": 2,
      "note": 78,
      "start": 66.2144,
      "duration": 0.2821,
      "velocity": 97,
      "chip": "ym2612"
    },
    {
      "channel": 3,
      "note": 66,
      "start": 66.2154,
      "duration": 0.2813,
      "velocity": 97,
      "chip": "ym2612"
    },
    {
      "channel": 4,
      "note": 54,
      "start": 66.2161,
      "duration": 0.081,
      "velocity": 97,
      "chip": "ym2612"
    },
    {
      "channel": 1,
      "note": 71,
      "start": 66.2635,
      "duration": 0.0826,
      "velocity": 99,
      "chip": "ym2612"
    },
    {
      "channel": 5,
      "note": 56,
      "start": 66.3199,
      "duration": 0.109,
      "velocity": 122,
      "chip": "ym2612"
    },
    {
      "channel": 1,
      "note": 78,
      "start": 66.3799,
      "duration": 0.0828,
      "velocity": 99,
      "chip": "ym2612"
    },
    {
      "channel": 0,
      "note": 66,
      "start": 66.4321,
      "duration": 0.08,
      "velocity": 99,
      "chip": "ym2612"
    },
    {
      "channel": 4,
      "note": 66,
      "start": 66.4342,
      "duration": 0.0794,
      "velocity": 97,
      "chip": "ym2612"
    },
    {
      "channel": 5,
      "note": 44,
      "start": 66.4376,
      "duration": 0.0913,
      "velocity": 122,
      "chip": "ym2612"
    },
    {
      "channel": 0,
      "note": 70,
      "start": 66.5322,
      "duration": 0.1799,
      "velocity": 99,
      "chip": "ym2612"
    },
    {
      "channel": 2,
      "note": 82,
      "start": 66.5336,
      "duration": 0.1791,
      "velocity": 97,
      "chip": "ym2612"
    },
    {
      "channel": 3,
      "note": 70,
      "start": 66.5345,
      "duration": 0.1784,
      "velocity": 97,
      "chip": "ym2612"
    },
    {
      "channel": 4,
      "note": 58,
      "start": 66.5353,
      "duration": 0.1777,
      "velocity": 97,
      "chip": "ym2612"
    },
    {
      "channel": 5,
      "note": 56,
      "start": 66.5387,
      "duration": 0.4235,
      "velocity": 117,
      "chip": "ym2612"
    },
    {
      "channel": 1,
      "note": 66,
      "start": 66.5799,
      "duration": 0.0828,
      "velocity": 99,
      "chip": "ym2612"
    },
    {
      "channel": 1,
      "note": 70,
      "start": 66.6969,
      "duration": 0.1825,
      "velocity": 99,
      "chip": "ym2612"
    },
    {
      "channel": 0,
      "note": 75,
      "start": 66.7463,
      "duration": 0.1826,
      "velocity": 99,
      "chip": "ym2612"
    },
    {
      "channel": 2,
      "note": 94,
      "start": 66.7476,
      "duration": 0.1819,
      "velocity": 97,
      "chip": "ym2612"
    },
    {
      "channel": 3,
      "note": 82,
      "start": 66.7485,
      "duration": 0.1812,
      "velocity": 97,
      "chip": "ym2612"
    },
    {
      "channel": 4,
      "note": 51,
      "start": 66.7492,
      "duration": 0.1807,
      "velocity": 97,
      "chip": "ym2612"
    },
    {
      "channel": 1,
      "note": 75,
      "start": 66.9133,
      "duration": 0.1828,
      "velocity": 99,
      "chip": "ym2612"
    },
    {
      "channel": 0,
      "note": 78,
      "start": 66.9655,
      "duration": 0.1802,
      "velocity": 99,
      "chip": "ym2612"
    },
    {
      "channel": 2,
      "note": 90,
      "start": 66.9668,
      "duration": 0.1794,
      "velocity": 97,
      "chip": "ym2612"
    },
    {
      "channel": 3,
      "note": 94,
      "start": 66.9676,
      "duration": 0.1788,
      "velocity": 97,
      "chip": "ym2612"
    },
    {
      "channel": 4,
      "note": 54,
      "start": 66.9683,
      "duration": 0.1782,
      "velocity": 97,
      "chip": "ym2612"
    },
    {
      "channel": 5,
      "note": 48,
      "start": 66.9717,
      "duration": 0.2071,
      "velocity": 127,
      "chip": "ym2612"
    },
    {
      "channel": 1,
      "note": 78,
      "start": 67.1132,
      "duration": 0.1828,
      "velocity": 99,
      "chip": "ym2612"
    },
    {
      "channel": 0,
      "note": 82,
      "start": 67.1821,
      "duration": 0.0802,
      "velocity": 99,
      "chip": "ym2612"
    },
    {
      "channel": 2,
      "note": 90,
      "start": 67.1834,
      "duration": 0.0794,
      "velocity": 97,
      "chip": "ym2612"
    },
    {
      "channel": 3,
      "note": 94,
      "start": 67.1844,
      "duration": 0.0786,
      "velocity": 97,
      "chip": "ym2612"
    },
    {
      "channel": 4,
      "note": 58,
      "start": 67.1852,
      "duration": 0.078,
      "velocity": 97,
      "chip": "ym2612"
    },
    {
      "channel": 5,
      "note": 56,
      "start": 67.1886,
      "duration": 0.0903,
      "velocity": 122,
      "chip": "ym2612"
    },
    {
      "channel": 0,
      "note": 80,
      "start": 67.2822,
      "duration": 0.6659,
      "velocity": 99,
      "chip": "ym2612"
    },
    {
      "channel": 2,
      "note": 83,
      "start": 67.2836,
      "duration": 0.1796,
      "velocity": 97,
      "chip": "ym2612"
    },
    {
      "channel": 3,
      "note": 87,
      "start": 67.2846,
      "duration": 0.1788,
      "velocity": 97,
      "chip": "ym2612"
    },
    {
      "channel": 4,
      "note": 56,
      "start": 67.2853,
      "duration": 0.7619,
      "velocity": 97,
      "chip": "ym2612"
    },
    {
      "channel": 5,
      "note": 56,
      "start": 67.2887,
      "duration": 0.0901,
      "velocity": 122,
      "chip": "ym2612"
    },
    {
      "channel": 1,
      "note": 82,
      "start": 67.3302,
      "duration": 0.0826,
      "velocity": 99,
      "chip": "ym2612"
    },
    {
      "channel": 5,
      "note": 56,
      "start": 67.3866,
      "duration": 0.109,
      "velocity": 117,
      "chip": "ym2612"
    },
    {
      "channel": 1,
      "note": 80,
      "start": 67.4467,
      "duration": 0.6656,
      "velocity": 99,
      "chip": "ym2612"
    },
    {
      "channel": 2,
      "note": 83,
      "start": 67.4998,
      "duration": 0.1301,
      "velocity": 97,
      "chip": "ym2612"
    },
    {
      "channel": 3,
      "note": 87,
      "start": 67.5007,
      "duration": 0.1293,
      "velocity": 97,
      "chip": "ym2612"
    },
    {
      "channel": 5,
      "note": 51,
      "start": 67.5043,
      "duration": 0.1411,
      "velocity": 122,
      "chip": "ym2612"
    },
    {
      "channel": 2,
      "note": 83,
      "start": 67.6496,
      "duration": 0.1302,
      "velocity": 97,
      "chip": "ym2612"
    },
    {
      "channel": 3,
      "note": 87,
      "start": 67.6504,
      "duration": 0.1294,
      "velocity": 97,
      "chip": "ym2612"
    },
    {
      "channel": 5,
      "note": 51,
      "start": 67.6541,
      "duration": 0.1581,
      "velocity": 122,
      "chip": "ym2612"
    },
    {
      "channel": 2,
      "note": 87,
      "start": 67.8165,
      "duration": 0.1134,
      "velocity": 97,
      "chip": "ym2612"
    },
    {
      "channel": 3,
      "note": 92,
      "start": 67.8174,
      "duration": 0.1125,
      "velocity": 97,
      "chip": "ym2612"
    },
    {
      "channel": 5,
      "note": 48,
      "start": 67.8211,
      "duration": 0.1244,
      "velocity": 127,
      "chip": "ym2612"
    },
    {
      "channel": 2,
      "note": 87,
      "start": 67.9494,
      "duration": 0.1137,
      "velocity": 97,
      "chip": "ym2612"
    },
    {
      "channel": 3,
      "note": 92,
      "start": 67.9503,
      "duration": 0.113,
      "velocity": 97,
      "chip": "ym2612"
    },
    {
      "channel": 5,
      "note": 48,
      "start": 67.954,
      "duration": 0.1416,
      "velocity": 127,
      "chip": "ym2612"
    },
    {
      "channel": 0,
      "note": 81,
      "start": 68.0323,
      "duration": 0.0798,
      "velocity": 97,
      "chip": "ym2612"
    },
    {
      "channel": 2,
      "note": 87,
      "start": 68.0997,
      "duration": 0.1132,
      "velocity": 97,
      "chip": "ym2612"
    },
    {
      "channel": 3,
      "note": 92,
      "start": 68.1005,
      "duration": 0.1125,
      "velocity": 97,
      "chip": "ym2612"
    },
    {
      "channel": 5,
      "note": 48,
      "start": 68.1042,
      "duration": 0.1413,
      "velocity": 127,
      "chip": "ym2612"
    },
    {
      "channel": 0,
      "note": 83,
      "start": 68.1297,
      "duration": 0.0826,
      "velocity": 97,
      "chip": "ym2612"
    },
    {
      "channel": 1,
      "note": 81,
      "start": 68.1824,
      "duration": 0.0809,
      "velocity": 97,
      "chip": "ym2612"
    },
    {
      "channel": 0,
      "note": 84,
      "start": 68.2488,
      "duration": 0.1802,
      "velocity": 97,
      "chip": "ym2612"
    },
    {
      "channel": 2,
      "note": 89,
      "start": 68.2524,
      "duration": 0.0445,
      "velocity": 112,
      "chip": "ym2612"
    },
    {
      "channel": 3,
      "note": 84,
      "start": 68.2559,
      "duration": 0.0412,
      "velocity": 97,
      "chip": "ym2612"
    },
    {
      "channel": 4,
      "note": 53,
      "start": 68.2567,
      "duration": 0.074,
      "velocity": 97,
      "chip": "ym2612"
    },
    {
      "channel": 5,
      "note": 56,
      "start": 68.2601,
      "duration": 0.0855,
      "velocity": 117,
      "chip": "ym2612"
    },
    {
      "channel": 1,
      "note": 83,
      "start": 68.2968,
      "duration": 0.0824,
      "velocity": 97,
      "chip": "ym2612"
    },
    {
      "channel": 2,
      "note": 77,
      "start": 68.3496,
      "duration": 0.0474,
      "velocity": 112,
      "chip": "ym2612"
    },
    {
      "channel": 3,
      "note": 84,
      "start": 68.3505,
      "duration": 0.0466,
      "velocity": 97,
      "chip": "ym2612"
    },
    {
      "channel": 5,
      "note": 57,
      "start": 68.3541,
      "duration": 0.0913,
      "velocity": 115,
      "chip": "ym2612"
    },
    {
      "channel": 1,
      "note": 84,
      "start": 68.3968,
      "duration": 0.1824,
      "velocity": 97,
      "chip": "ym2612"
    },
    {
      "channel": 0,
      "note": 83,
      "start": 68.4486,
      "duration": 0.1803,
      "velocity": 97,
      "chip": "ym2612"
    },
    {
      "channel": 2,
      "note": 77,
      "start": 68.45,
      "duration": 0.0467,
      "velocity": 112,
      "chip": "ym2612"
    },
    {
      "channel": 3,
      "note": 96,
      "start": 68.4508,
      "duration": 0.046,
      "velocity": 97,
      "chip": "ym2612"
    },
    {
      "channel": 4,
      "note": 65,
      "start": 68.4516,
      "duration": 0.1789,
      "velocity": 97,
      "chip": "ym2612"
    },
    {
      "channel": 5,
      "note": 57,
      "start": 68.455,
      "duration": 0.1072,
      "velocity": 115,
      "chip": "ym2612"
    },
    {
      "channel": 3,
      "note": 92,
      "start": 68.5669,
      "duration": 0.0472,
      "velocity": 97,
      "chip": "ym2612"
    },
    {
      "channel": 5,
      "note": 57,
      "start": 68.5706,
      "duration": 0.0917,
      "velocity": 115,
      "chip": "ym2612"
    },
    {
      "channel": 1,
      "note": 83,
      "start": 68.6135,
      "duration": 0.1826,
      "velocity": 97,
      "chip": "ym2612"
    },
    {
      "channel": 0,
      "note": 84,
      "start": 68.6655,
      "duration": 0.18,
      "velocity": 97,
      "chip": "ym2612"
    },
    {
      "channel": 2,
      "note": 89,
      "start": 68.6668,
      "duration": 0.0462,
      "velocity": 112,
      "chip": "ym2612"
    },
    {
      "channel": 4,
      "note": 68,
      "start": 68.668,
      "duration": 0.2795,
      "velocity": 97,
      "chip": "ym2612"
    },
    {
      "channel": 5,
      "note": 48,
      "start": 68.6713,
      "duration": 0.2076,
      "velocity": 127,
      "chip": "ym2612"
    },
    {
      "channel": 3,
      "note": 84,
      "start": 68.7809,
      "duration": 0.0499,
      "velocity": 97,
      "chip": "ym2612"
    },
    {
      "channel": 1,
      "note": 84,
      "start": 68.8302,
      "duration": 0.1826,
      "velocity": 97,
      "chip": "ym2612"
    },
    {
      "channel": 0,
      "note": 77,
      "start": 68.8822,
      "duration": 0.0801,
      "velocity": 97,
      "chip": "ym2612"
    },
    {
      "channel": 2,
      "note": 77,
      "start": 68.8835,
      "duration": 0.0464,
      "velocity": 112,
      "chip": "ym2612"
    },
    {
      "channel": 3,
      "note": 84,
      "start": 68.8843,
      "duration": 0.0457,
      "velocity": 97,
      "chip": "ym2612"
    },
    {
      "channel": 5,
      "note": 57,
      "start": 68.888,
      "duration": 0.0908,
      "velocity": 115,
      "chip": "ym2612"
    },
    {
      "channel": 0,
      "note": 84,
      "start": 68.9821,
      "duration": 0.1802,
      "velocity": 97,
      "chip": "ym2612"
    },
    {
      "channel": 4,
      "note": 65,
      "start": 68.9841,
      "duration": 0.28,
      "velocity": 97,
      "chip": "ym2612"
    },
    {
      "channel": 5,
      "note": 57,
      "start": 68.9874,
      "duration": 0.1083,
      "velocity": 115,
      "chip": "ym2612"
    },
    {
      "channel": 1,
      "note": 77,
      "start": 69.0466,
      "duration": 0.0828,
      "velocity": 97,
      "chip": "ym2612"
    },
    {
      "channel": 2,
      "note": 89,
      "start": 69.0998,
      "duration": 0.0473,
      "velocity": 112,
      "chip": "ym2612"
    },
    {
      "channel": 3,
      "note": 84,
      "start": 69.1007,
      "duration": 0.0466,
      "velocity": 97,
      "chip": "ym2612"
    },
    {
      "channel": 5,
      "note": 56,
      "start": 69.1043,
      "duration": 0.0912,
      "velocity": 117,
      "chip": "ym2612"
    },
    {
      "channel": 1,
      "note": 84,
      "start": 69.1469,
      "duration": 0.1825,
      "velocity": 97,
      "chip": "ym2612"
    },
    {
      "channel": 0,
      "note": 83,
      "start": 69.1988,
      "duration": 0.18,
      "velocity": 97,
      "chip": "ym2612"
    },
    {
      "channel": 3,
      "note": 96,
      "start": 69.2005,
      "duration": 0.0463,
      "velocity": 97,
      "chip": "ym2612"
    },
    {
      "channel": 5,
      "note": 57,
      "start": 69.2042,
      "duration": 0.1079,
      "velocity": 115,
      "chip": "ym2612"
    },
    {
      "channel": 2,
      "note": 89,
      "start": 69.3162,
      "duration": 0.0474,
      "velocity": 112,
      "chip": "ym2612"
    },
    {
      "channel": 3,
      "note": 92,
      "start": 69.3171,
      "duration": 0.0466,
      "velocity": 97,
      "chip": "ym2612"
    },
    {
      "channel": 4,
      "note": 60,
      "start": 69.3179,
      "duration": 0.1793,
      "velocity": 97,
      "chip": "ym2612"
    },
    {
      "channel": 5,
      "note": 57,
      "start": 69.3213,
      "duration": 0.091,
      "velocity": 115,
      "chip": "ym2612"
    },
    {
      "channel": 1,
      "note": 83,
      "start": 69.3635,
      "duration": 0.1826,
      "velocity": 97,
      "chip": "ym2612"
    },
    {
      "channel": 0,
      "note": 83,
      "start": 69.4155,
      "duration": 0.0801,
      "velocity": 97,
      "chip": "ym2612"
    },
    {
      "channel": 5,
      "note": 57,
      "start": 69.4205,
      "duration": 0.0916,
      "velocity": 115,
      "chip": "ym2612"
    },
    {
      "channel": 0,
      "note": 84,
      "start": 69.5154,
      "duration": 0.1802,
      "velocity": 97,
      "chip": "ym2612"
    },
    {
      "channel": 2,
      "note": 77,
      "start": 69.5167,
      "duration": 0.0466,
      "velocity": 112,
      "chip": "ym2612"
    },
    {
      "channel": 3,
      "note": 84,
      "start": 69.5175,
      "duration": 0.0459,
      "velocity": 97,
      "chip": "ym2612"
    },
    {
      "channel": 4,
      "note": 53,
      "start": 69.5183,
      "duration": 0.1788,
      "velocity": 97,
      "chip": "ym2612"
    },
    {
      "channel": 5,
      "note": 48,
      "start": 69.5217,
      "duration": 0.2072,
      "velocity": 127,
      "chip": "ym2612"
    },
    {
      "channel": 1,
      "note": 83,
      "start": 69.58,
      "duration": 0.0827,
      "velocity": 97,
      "chip": "ym2612"
    },
    {
      "channel": 2,
      "note": 77,
      "start": 69.6305,
      "duration": 0.0499,
      "velocity": 112,
      "chip": "ym2612"
    },
    {
      "channel": 3,
      "note": 96,
      "start": 69.6314,
      "duration": 0.0492,
      "velocity": 97,
      "chip": "ym2612"
    },
    {
      "channel": 1,
      "note": 84,
      "start": 69.6802,
      "duration": 0.1825,
      "velocity": 97,
      "chip": "ym2612"
    },
    {
      "channel": 0,
      "note": 89,
      "start": 69.7321,
      "duration": 0.18,
      "velocity": 97,
      "chip": "ym2612"
    },
    {
      "channel": 2,
      "note": 77,
      "start": 69.7334,
      "duration": 0.0462,
      "velocity": 112,
      "chip": "ym2612"
    },
    {
      "channel": 4,
      "note": 65,
      "start": 69.7346,
      "duration": 0.179,
      "velocity": 97,
      "chip": "ym2612"
    },
    {
      "channel": 5,
      "note": 57,
      "start": 69.7379,
      "duration": 0.1075,
      "velocity": 115,
      "chip": "ym2612"
    },
    {
      "channel": 2,
      "note": 77,
      "start": 69.8496,
      "duration": 0.0474,
      "velocity": 112,
      "chip": "ym2612"
    },
    {
      "channel": 3,
      "note": 80,
      "start": 69.8504,
      "duration": 0.0467,
      "velocity": 97,
      "chip": "ym2612"
    },
    {
      "channel": 5,
      "note": 57,
      "start": 69.8541,
      "duration": 0.0917,
      "velocity": 115,
      "chip": "ym2612"
    },
    {
      "channel": 1,
      "note": 89,
      "start": 69.8968,
      "duration": 0.1826,
      "velocity": 97,
      "chip": "ym2612"
    },
    {
      "channel": 0,
      "note": 92,
      "start": 69.949,
      "duration": 0.18,
      "velocity": 97,
      "chip": "ym2612"
    },
    {
      "channel": 4,
      "note": 51,
      "start": 69.9508,
      "duration": 0.1797,
      "velocity": 97,
      "chip": "ym2612"
    },
    {
      "channel": 5,
      "note": 56,
      "start": 69.9541,
      "duration": 0.0914,
      "velocity": 117,
      "chip": "ym2612"
    },
    {
      "channel": 2,
      "note": 77,
      "start": 70.0495,
      "duration": 0.0471,
      "velocity": 112,
      "chip": "ym2612"
    },
    {
      "channel": 3,
      "note": 96,
      "start": 70.0504,
      "duration": 0.0464,
      "velocity": 97,
      "chip": "ym2612"
    },
    {
      "channel": 5,
      "note": 57,
      "start": 70.0541,
      "duration": 0.1081,
      "velocity": 115,
      "chip": "ym2612"
    },
    {
      "channel": 1,
      "note": 92,
      "start": 70.1133,
      "duration": 0.1828,
      "velocity": 97,
      "chip": "ym2612"
    },
    {
      "channel": 0,
      "note": 91,
      "start": 70.1655,
      "duration": 0.1802,
      "velocity": 97,
      "chip": "ym2612"
    },
    {
      "channel": 2,
      "note": 77,
      "start": 70.1668,
      "duration": 0.0464,
      "velocity": 112,
      "chip": "ym2612"
    },
    {
      "channel": 4,
      "note": 51,
      "start": 70.1679,
      "duration": 0.1793,
      "velocity": 97,
      "chip": "ym2612"
    },
    {
      "channel": 5,
      "note": 57,
      "start": 70.1713,
      "duration": 0.091,
      "velocity": 115,
      "chip": "ym2612"
    },
    {
      "channel": 3,
      "note": 89,
      "start": 70.2668,
      "duration": 0.0471,
      "velocity": 97,
      "chip": "ym2612"
    },
    {
      "channel": 5,
      "note": 57,
      "start": 70.2704,
      "duration": 0.1083,
      "velocity": 115,
      "chip": "ym2612"
    },
    {
      "channel": 1,
      "note": 91,
      "start": 70.3132,
      "duration": 0.1828,
      "velocity": 97,
      "chip": "ym2612"
    },
    {
      "channel": 0,
      "note": 89,
      "start": 70.382,
      "duration": 0.1803,
      "velocity": 97,
      "chip": "ym2612"
    },
    {
      "channel": 2,
      "note": 89,
      "start": 70.3833,
      "duration": 0.0466,
      "velocity": 112,
      "chip": "ym2612"
    },
    {
      "channel": 4,
      "note": 63,
      "start": 70.3844,
      "duration": 0.1794,
      "velocity": 97,
      "chip": "ym2612"
    },
    {
      "channel": 5,
      "note": 48,
      "start": 70.3878,
      "duration": 0.191,
      "velocity": 127,
      "chip": "ym2612"
    },
    {
      "channel": 3,
      "note": 84,
      "start": 70.4811,
      "duration": 0.0496,
      "velocity": 97,
      "chip": "ym2612"
    },
    {
      "channel": 1,
      "note": 89,
      "start": 70.5301,
      "duration": 0.1824,
      "velocity": 97,
      "chip": "ym2612"
    },
    {
      "channel": 0,
      "note": 87,
      "start": 70.5821,
      "duration": 0.0802,
      "velocity": 97,
      "chip": "ym2612"
    },
    {
      "channel": 2,
      "note": 77,
      "start": 70.5834,
      "duration": 0.0466,
      "velocity": 112,
      "chip": "ym2612"
    },
    {
      "channel": 3,
      "note": 84,
      "start": 70.5842,
      "duration": 0.0459,
      "velocity": 97,
      "chip": "ym2612"
    },
    {
      "channel": 4,
      "note": 51,
      "start": 70.585,
      "duration": 0.0788,
      "velocity": 97,
      "chip": "ym2612"
    },
    {
      "channel": 5,
      "note": 57,
      "start": 70.5884,
      "duration": 0.1072,
      "velocity": 115,
      "chip": "ym2612"
    },
    {
      "channel": 0,
      "note": 84,
      "start": 70.6989,
      "duration": 0.6634,
      "velocity": 97,
      "chip": "ym2612"
    },
    {
      "channel": 4,
      "note": 51,
      "start": 70.701,
      "duration": 0.0796,
      "velocity": 97,
      "chip": "ym2612"
    },
    {
      "channel": 5,
      "note": 57,
      "start": 70.7043,
      "duration": 0.0912,
      "velocity": 115,
      "chip": "ym2612"
    },
    {
      "channel": 1,
      "note": 87,
      "start": 70.7468,
      "duration": 0.0826,
      "velocity": 97,
      "chip": "ym2612"
    },
    {
      "channel": 2,
      "note": 89,
      "start": 70.7997,
      "duration": 0.0471,
      "velocity": 112,
      "chip": "ym2612"
    },
    {
      "channel": 3,
      "note": 84,
      "start": 70.8005,
      "duration": 0.0464,
      "velocity": 97,
      "chip": "ym2612"
    },
    {
      "channel": 4,
      "note": 51,
      "start": 70.8013,
      "duration": 0.1793,
      "velocity": 97,
      "chip": "ym2612"
    },
    {
      "channel": 5,
      "note": 56,
      "start": 70.8047,
      "duration": 0.1074,
      "velocity": 117,
      "chip": "ym2612"
    },
    {
      "channel": 1,
      "note": 84,
      "start": 70.8467,
      "duration": 0.6658,
      "velocity": 97,
      "chip": "ym2612"
    },
    {
      "channel": 3,
      "note": 96,
      "start": 70.9166,
      "duration": 0.047,
      "velocity": 97,
      "chip": "ym2612"
    },
    {
      "channel": 5,
      "note": 57,
      "start": 70.9203,
      "duration": 0.0919,
      "velocity": 115,
      "chip": "ym2612"
    },
    {
      "channel": 2,
      "note": 89,
      "start": 71.0164,
      "duration": 0.0468,
      "velocity": 112,
      "chip": "ym2612"
    },
    {
      "channel": 3,
      "note": 92,
      "start": 71.0173,
      "duration": 0.0461,
      "velocity": 97,
      "chip": "ym2612"
    },
    {
      "channel": 4,
      "note": 63,
      "start": 71.018,
      "duration": 0.1795,
      "velocity": 97,
      "chip": "ym2612"
    },
    {
      "channel": 5,
      "note": 57,
      "start": 71.0213,
      "duration": 0.0908,
      "velocity": 115,
      "chip": "ym2612"
    },
    {
      "channel": 2,
      "note": 77,
      "start": 71.1162,
      "duration": 0.0471,
      "velocity": 112,
      "chip": "ym2612"
    },
    {
      "channel": 5,
      "note": 57,
      "start": 71.1203,
      "duration": 0.1086,
      "velocity": 115,
      "chip": "ym2612"
    },
    {
      "channel": 2,
      "note": 77,
      "start": 71.233,
      "duration": 0.0469,
      "velocity": 112,
      "chip": "ym2612"
    },
    {
      "channel": 3,
      "note": 84,
      "start": 71.2339,
      "duration": 0.0462,
      "velocity": 97,
      "chip": "ym2612"
    },
    {
      "channel": 4,
      "note": 63,
      "start": 71.2346,
      "duration": 0.1796,
      "velocity": 97,
      "chip": "ym2612"
    },
    {
      "channel": 5,
      "note": 48,
      "start": 71.238,
      "duration": 0.0909,
      "velocity": 127,
      "chip": "ym2612"
    },
    {
      "channel": 3,
      "note": 96,
      "start": 71.3335,
      "duration": 0.0466,
      "velocity": 97,
      "chip": "ym2612"
    },
    {
      "channel": 5,
      "note": 56,
      "start": 71.3372,
      "duration": 0.1083,
      "velocity": 122,
      "chip": "ym2612"
    },
    {
      "channel": 0,
      "note": 82,
      "start": 71.4488,
      "duration": 0.0802,
      "velocity": 97,
      "chip": "ym2612"
    },
    {
      "channel": 2,
      "note": 89,
      "start": 71.45,
      "duration": 0.0465,
      "velocity": 112,
      "chip": "ym2612"
    },
    {
      "channel": 4,
      "note": 51,
      "start": 71.4513,
      "duration": 0.0791,
      "velocity": 97,
      "chip": "ym2612"
    },
    {
      "channel": 5,
      "note": 56,
      "start": 71.4547,
      "duration": 0.1908,
      "velocity": 122,
      "chip": "ym2612"
    },
    {
      "channel": 0,
      "note": 84,
      "start": 71.5463,
      "duration": 0.0826,
      "velocity": 97,
      "chip": "ym2612"
    },
    {
      "channel": 2,
      "note": 89,
      "start": 71.5476,
      "duration": 0.0494,
      "velocity": 112,
      "chip": "ym2612"
    },
    {
      "channel": 3,
      "note": 80,
      "start": 71.5485,
      "duration": 0.0487,
      "velocity": 97,
      "chip": "ym2612"
    },
    {
      "channel": 4,
      "note": 51,
      "start": 71.5492,
      "duration": 0.0812,
      "velocity": 97,
      "chip": "ym2612"
    },
    {
      "channel": 1,
      "note": 82,
      "start": 71.5968,
      "duration": 0.0826,
      "velocity": 97,
      "chip": "ym2612"
    },
    {
      "channel": 0,
      "note": 86,
      "start": 71.6488,
      "duration": 0.2802,
      "velocity": 97,
      "chip": "ym2612"
    },
    {
      "channel": 2,
      "note": 89,
      "start": 71.6501,
      "duration": 0.0466,
      "velocity": 112,
      "chip": "ym2612"
    },
    {
      "channel": 3,
      "note": 86,
      "start": 71.6509,
      "duration": 0.0459,
      "velocity": 97,
      "chip": "ym2612"
    },
    {
      "channel": 4,
      "note": 50,
      "start": 71.6517,
      "duration": 0.179,
      "velocity": 97,
      "chip": "ym2612"
    },
    {
      "channel": 5,
      "note": 56,
      "start": 71.6551,
      "duration": 0.1071,
      "velocity": 117,
      "chip": "ym2612"
    },
    {
      "channel": 1,
      "note": 84,
      "start": 71.7132,
      "duration": 0.0828,
      "velocity": 97,
      "chip": "ym2612"
    },
    {
      "channel": 3,
      "note": 98,
      "start": 71.7668,
      "duration": 0.0473,
      "velocity": 97,
      "chip": "ym2612"
    },
    {
      "channel": 5,
      "note": 57,
      "start": 71.7705,
      "duration": 0.0917,
      "velocity": 115,
      "chip": "ym2612"
    },
    {
      "channel": 1,
      "note": 86,
      "start": 71.8136,
      "duration": 0.2825,
      "velocity": 97,
      "chip": "ym2612"
    },
    {
      "channel": 2,
      "note": 89,
      "start": 71.8663,
      "duration": 0.0467,
      "velocity": 112,
      "chip": "ym2612"
    },
    {
      "channel": 4,
      "note": 50,
      "start": 71.8674,
      "duration": 0.1798,
      "velocity": 97,
      "chip": "ym2612"
    },
    {
      "channel": 5,
      "note": 57,
      "start": 71.8708,
      "duration": 0.108,
      "velocity": 115,
      "chip": "ym2612"
    },
    {
      "channel": 0,
      "note": 87,
      "start": 71.982,
      "duration": 0.2803,
      "velocity": 97,
      "chip": "ym2612"
    },
    {
      "channel": 3,
      "note": 86,
      "start": 71.9838,
      "duration": 0.0465,
      "velocity": 97,
      "chip": "ym2612"
    },
    {
      "channel": 5,
      "note": 57,
      "start": 71.9874,
      "duration": 0.0915,
      "velocity": 115,
      "chip": "ym2612"
    },
    {
      "channel": 2,
      "note": 89,
      "start": 72.083,
      "duration": 0.0472,
      "velocity": 112,
      "chip": "ym2612"
    },
    {
      "channel": 4,
      "note": 50,
      "start": 72.0842,
      "duration": 0.1796,
      "velocity": 97,
      "chip": "ym2612"
    },
    {
      "channel": 5,
      "note": 48,
      "start": 72.0876,
      "duration": 0.208,
      "velocity": 127,
      "chip": "ym2612"
    },
    {
      "channel": 1,
      "note": 87,
      "start": 72.1301,
      "duration": 0.2826,
      "velocity": 97,
      "chip": "ym2612"
    },
    {
      "channel": 2,
      "note": 77,
      "start": 72.1804,
      "duration": 0.0496,
      "velocity": 112,
      "chip": "ym2612"
    },
    {
      "channel": 3,
      "note": 86,
      "start": 72.1812,
      "duration": 0.0489,
      "velocity": 97,
      "chip": "ym2612"
    },
    {
      "channel": 0,
      "note": 89,
      "start": 72.2989,
      "duration": 0.1801,
      "velocity": 97,
      "chip": "ym2612"
    },
    {
      "channel": 3,
      "note": 86,
      "start": 72.3007,
      "duration": 0.0463,
      "velocity": 97,
      "chip": "ym2612"
    },
    {
      "channel": 4,
      "note": 50,
      "start": 72.3014,
      "duration": 0.1791,
      "velocity": 97,
      "chip": "ym2612"
    },
    {
      "channel": 5,
      "note": 57,
      "start": 72.3047,
      "duration": 0.0908,
      "velocity": 115,
      "chip": "ym2612"
    },
    {
      "channel": 2,
      "note": 89,
      "start": 72.3997,
      "duration": 0.0471,
      "velocity": 112,
      "chip": "ym2612"
    },
    {
      "channel": 5,
      "note": 57,
      "start": 72.4038,
      "duration": 0.1083,
      "velocity": 115,
      "chip": "ym2612"
    },
    {
      "channel": 1,
      "note": 89,
      "start": 72.4467,
      "duration": 0.1827,
      "velocity": 97,
      "chip": "ym2612"
    },
    {
      "channel": 0,
      "note": 92,
      "start": 72.5153,
      "duration": 0.1803,
      "velocity": 97,
      "chip": "ym2612"
    },
    {
      "channel": 3,
      "note": 86,
      "start": 72.5171,
      "duration": 0.0466,
      "velocity": 97,
      "chip": "ym2612"
    },
    {
      "channel": 4,
      "note": 62,
      "start": 72.5178,
      "duration": 0.1793,
      "velocity": 97,
      "chip": "ym2612"
    },
    {
      "channel": 5,
      "note": 56,
      "start": 72.5211,
      "duration": 0.0911,
      "velocity": 117,
      "chip": "ym2612"
    },
    {
      "channel": 2,
      "note": 89,
      "start": 72.6164,
      "duration": 0.0471,
      "velocity": 112,
      "chip": "ym2612"
    },
    {
      "channel": 3,
      "note": 98,
      "start": 72.6173,
      "duration": 0.0465,
      "velocity": 97,
      "chip": "ym2612"
    },
    {
      "channel": 5,
      "note": 57,
      "start": 72.621,
      "duration": 0.0912,
      "velocity": 115,
      "chip": "ym2612"
    },
    {
      "channel": 1,
      "note": 92,
      "start": 72.6634,
      "duration": 0.1824,
      "velocity": 97,
      "chip": "ym2612"
    },
    {
      "channel": 0,
      "note": 91,
      "start": 72.7153,
      "duration": 0.1803,
      "velocity": 97,
      "chip": "ym2612"
    },
    {
      "channel": 2,
      "note": 89,
      "start": 72.7166,
      "duration": 0.0467,
      "velocity": 112,
      "chip": "ym2612"
    },
    {
      "channel": 3,
      "note": 98,
      "start": 72.7174,
      "duration": 0.046,
      "velocity": 97,
      "chip": "ym2612"
    },
    {
      "channel": 4,
      "note": 62,
      "start": 72.7182,
      "duration": 0.1789,
      "velocity": 97,
      "chip": "ym2612"
    },
    {
      "channel": 5,
      "note": 57,
      "start": 72.7215,
      "duration": 0.1074,
      "velocity": 115,
      "chip": "ym2612"
    },
    {
      "channel": 2,
      "note": 77,
      "start": 72.833,
      "duration": 0.0473,
      "velocity": 112,
      "chip": "ym2612"
    },
    {
      "channel": 5,
      "note": 57,
      "start": 72.8372,
      "duration": 0.0917,
      "velocity": 115,
      "chip": "ym2612"
    },
    {
      "channel": 1,
      "note": 91,
      "start": 72.8802,
      "duration": 0.1826,
      "velocity": 97,
      "chip": "ym2612"
    },
    {
      "channel": 0,
      "note": 92,
      "start": 72.9322,
      "duration": 0.0801,
      "velocity": 97,
      "chip": "ym2612"
    },
    {
      "channel": 2,
      "note": 89,
      "start": 72.9335,
      "duration": 0.0462,
      "velocity": 112,
      "chip": "ym2612"
    },
    {
      "channel": 3,
      "note": 86,
      "start": 72.9344,
      "duration": 0.0454,
      "velocity": 97,
      "chip": "ym2612"
    },
    {
      "channel": 4,
      "note": 62,
      "start": 72.9351,
      "duration": 0.1788,
      "velocity": 97,
      "chip": "ym2612"
    },
    {
      "channel": 5,
      "note": 48,
      "start": 72.9384,
      "duration": 0.107,
      "velocity": 127,
      "chip": "ym2612"
    },
    {
      "channel": 0,
      "note": 80,
      "start": 73.0486,
      "duration": 0.0803,
      "velocity": 97,
      "chip": "ym2612"
    },
    {
      "channel": 3,
      "note": 98,
      "start": 73.0505,
      "duration": 0.047,
      "velocity": 97,
      "chip": "ym2612"
    },
    {
      "channel": 5,
      "note": 48,
      "start": 73.0541,
      "duration": 0.1913,
      "velocity": 127,
      "chip": "ym2612"
    },
    {
      "channel": 1,
      "note": 92,
      "start": 73.0968,
      "duration": 0.0824,
      "velocity": 97,
      "chip": "ym2612"
    },
    {
      "channel": 0,
      "note": 84,
      "start": 73.1463,
      "duration": 0.0826,
      "velocity": 97,
      "chip": "ym2612"
    },
    {
      "channel": 2,
      "note": 89,
      "start": 73.1476,
      "duration": 0.0493,
      "velocity": 112,
      "chip": "ym2612"
    },
    {
      "channel": 4,
      "note": 62,
      "start": 73.1489,
      "duration": 0.0816,
      "velocity": 97,
      "chip": "ym2612"
    },
    {
      "channel": 1,
      "note": 80,
      "start": 73.1968,
      "duration": 0.0826,
      "velocity": 97,
      "chip": "ym2612"
    },
    {
      "channel": 0,
      "note": 85,
      "start": 73.2488,
      "duration": 0.7494,
      "velocity": 97,
      "chip": "ym2612"
    },
    {
      "channel": 2,
      "note": 89,
      "start": 73.25,
      "duration": 0.0466,
      "velocity": 112,
      "chip": "ym2612"
    },
    {
      "channel": 3,
      "note": 74,
      "start": 73.2508,
      "duration": 0.0459,
      "velocity": 97,
      "chip": "ym2612"
    },
    {
      "channel": 4,
      "note": 62,
      "start": 73.2515,
      "duration": 0.0791,
      "velocity": 97,
      "chip": "ym2612"
    },
    {
      "channel": 5,
      "note": 48,
      "start": 73.2549,
      "duration": 0.1074,
      "velocity": 127,
      "chip": "ym2612"
    },
    {
      "channel": 1,
      "note": 84,
      "start": 73.3132,
      "duration": 0.0828,
      "velocity": 97,
      "chip": "ym2612"
    },
    {
      "channel": 2,
      "note": 89,
      "start": 73.3669,
      "duration": 0.0468,
      "velocity": 112,
      "chip": "ym2612"
    },
    {
      "channel": 3,
      "note": 85,
      "start": 73.3678,
      "duration": 0.0461,
      "velocity": 97,
      "chip": "ym2612"
    },
    {
      "channel": 4,
      "note": 61,
      "start": 73.3685,
      "duration": 0.179,
      "velocity": 97,
      "chip": "ym2612"
    },
    {
      "channel": 5,
      "note": 56,
      "start": 73.3719,
      "duration": 0.0903,
      "velocity": 117,
      "chip": "ym2612"
    },
    {
      "channel": 1,
      "note": 85,
      "start": 73.4136,
      "duration": 0.7493,
      "velocity": 97,
      "chip": "ym2612"
    },
    {
      "channel": 3,
      "note": 97,
      "start": 73.4668,
      "duration": 0.0472,
      "velocity": 97,
      "chip": "ym2612"
    },
    {
      "channel": 5,
      "note": 57,
      "start": 73.4704,
      "duration": 0.1083,
      "velocity": 115,
      "chip": "ym2612"
    },
    {
      "channel": 2,
      "note": 77,
      "start": 73.5829,
      "duration": 0.0469,
      "velocity": 112,
      "chip": "ym2612"
    },
    {
      "channel": 3,
      "note": 73,
      "start": 73.5837,
      "duration": 0.0462,
      "velocity": 97,
      "chip": "ym2612"
    },
    {
      "channel": 4,
      "note": 61,
      "start": 73.5846,
      "duration": 0.1795,
      "velocity": 97,
      "chip": "ym2612"
    },
    {
      "channel": 5,
      "note": 57,
      "start": 73.588,
      "duration": 0.0909,
      "velocity": 115,
      "chip": "ym2612"
    },
    {
      "channel": 3,
      "note": 85,
      "start": 73.6835,
      "duration": 0.0468,
      "velocity": 97,
      "chip": "ym2612"
    },
    {
      "channel": 5,
      "note": 57,
      "start": 73.6872,
      "duration": 0.0916,
      "velocity": 115,
      "chip": "ym2612"
    },
    {
      "channel": 2,
      "note": 77,
      "start": 73.783,
      "duration": 0.047,
      "velocity": 112,
      "chip": "ym2612"
    },
    {
      "channel": 3,
      "note": 97,
      "start": 73.7838,
      "duration": 0.0463,
      "velocity": 97,
      "chip": "ym2612"
    },
    {
      "channel": 4,
      "note": 61,
      "start": 73.7847,
      "duration": 0.1794,
      "velocity": 97,
      "chip": "ym2612"
    },
    {
      "channel": 5,
      "note": 48,
      "start": 73.7881,
      "duration": 0.2074,
      "velocity": 127,
      "chip": "ym2612"
    },
    {
      "channel": 2,
      "note": 89,
      "start": 73.8972,
      "duration": 0.0493,
      "velocity": 112,
      "chip": "ym2612"
    },
    {
      "channel": 3,
      "note": 73,
      "start": 73.898,
      "duration": 0.0486,
      "velocity": 97,
      "chip": "ym2612"
    },
    {
      "channel": 0,
      "note": 87,
      "start": 73.9988,
      "duration": 0.5635,
      "velocity": 97,
      "chip": "ym2612"
    },
    {
      "channel": 3,
      "note": 85,
      "start": 74.0005,
      "duration": 0.0463,
      "velocity": 97,
      "chip": "ym2612"
    },
    {
      "channel": 4,
      "note": 61,
      "start": 74.0014,
      "duration": 0.1791,
      "velocity": 97,
      "chip": "ym2612"
    },
    {
      "channel": 5,
      "note": 57,
      "start": 74.0048,
      "duration": 0.1073,
      "velocity": 115,
      "chip": "ym2612"
    },
    {
      "channel": 2,
      "note": 77,
      "start": 74.1162,
      "duration": 0.0475,
      "velocity": 112,
      "chip": "ym2612"
    },
    {
      "channel": 3,
      "note": 73,
      "start": 74.117,
      "duration": 0.0468,
      "velocity": 97,
      "chip": "ym2612"
    },
    {
      "channel": 5,
      "note": 57,
      "start": 74.1207,
      "duration": 0.0915,
      "velocity": 115,
      "chip": "ym2612"
    },
    {
      "channel": 1,
      "note": 87,
      "start": 74.1635,
      "duration": 0.5659,
      "velocity": 97,
      "chip": "ym2612"
    },
    {
      "channel": 3,
      "note": 85,
      "start": 74.2168,
      "duration": 0.0469,
      "velocity": 97,
      "chip": "ym2612"
    },
    {
      "channel": 4,
      "note": 61,
      "start": 74.2176,
      "duration": 0.1798,
      "velocity": 97,
      "chip": "ym2612"
    },
    {
      "channel": 5,
      "note": 56,
      "start": 74.221,
      "duration": 0.0911,
      "velocity": 117,
      "chip": "ym2612"
    },
    {
      "channel": 2,
      "note": 77,
      "start": 74.3162,
      "duration": 0.0472,
      "velocity": 112,
      "chip": "ym2612"
    },
    {
      "channel": 3,
      "note": 97,
      "start": 74.3171,
      "duration": 0.0464,
      "velocity": 97,
      "chip": "ym2612"
    },
    {
      "channel": 5,
      "note": 56,
      "start": 74.3207,
      "duration": 0.1081,
      "velocity": 122,
      "chip": "ym2612"
    },
    {
      "channel": 2,
      "note": 89,
      "start": 74.433,
      "duration": 0.0468,
      "velocity": 112,
      "chip": "ym2612"
    },
    {
      "channel": 3,
      "note": 73,
      "start": 74.4339,
      "duration": 0.0461,
      "velocity": 97,
      "chip": "ym2612"
    },
    {
      "channel": 4,
      "note": 61,
      "start": 74.4348,
      "duration": 0.1793,
      "velocity": 97,
      "chip": "ym2612"
    },
    {
      "channel": 5,
      "note": 56,
      "start": 74.4382,
      "duration": 0.0907,
      "velocity": 122,
      "chip": "ym2612"
    },
    {
      "channel": 2,
      "note": 77,
      "start": 74.533,
      "duration": 0.0467,
      "velocity": 112,
      "chip": "ym2612"
    },
    {
      "channel": 3,
      "note": 85,
      "start": 74.5339,
      "duration": 0.0459,
      "velocity": 97,
      "chip": "ym2612"
    },
    {
      "channel": 5,
      "note": 56,
      "start": 74.5376,
      "duration": 0.1079,
      "velocity": 122,
      "chip": "ym2612"
    },
    {
      "channel": 0,
      "note": 89,
      "start": 74.6488,
      "duration": 0.1802,
      "velocity": 97,
      "chip": "ym2612"
    },
    {
      "channel": 2,
      "note": 77,
      "start": 74.65,
      "duration": 0.0465,
      "velocity": 112,
      "chip": "ym2612"
    },
    {
      "channel": 3,
      "note": 97,
      "start": 74.6508,
      "duration": 0.0458,
      "velocity": 97,
      "chip": "ym2612"
    },
    {
      "channel": 4,
      "note": 61,
      "start": 74.6517,
      "duration": 0.1788,
      "velocity": 97,
      "chip": "ym2612"
    },
    {
      "channel": 5,
      "note": 56,
      "start": 74.6551,
      "duration": 0.0905,
      "velocity": 122,
      "chip": "ym2612"
    },
    {
      "channel": 3,
      "note": 85,
      "start": 74.7501,
      "duration": 0.0473,
      "velocity": 97,
      "chip": "ym2612"
    },
    {
      "channel": 5,
      "note": 44,
      "start": 74.7538,
      "duration": 0.0916,
      "velocity": 122,
      "chip": "ym2612"
    },
    {
      "channel": 1,
      "note": 89,
      "start": 74.7968,
      "duration": 0.1824,
      "velocity": 97,
      "chip": "ym2612"
    },
    {
      "channel": 0,
      "note": 90,
      "start": 74.8487,
      "duration": 0.1803,
      "velocity": 97,
      "chip": "ym2612"
    },
    {
      "channel": 2,
      "note": 89,
      "start": 74.85,
      "duration": 0.0467,
      "velocity": 112,
      "chip": "ym2612"
    },
    {
      "channel": 3,
      "note": 73,
      "start": 74.8508,
      "duration": 0.046,
      "velocity": 97,
      "chip": "ym2612"
    },
    {
      "channel": 4,
      "note": 61,
      "start": 74.8517,
      "duration": 0.0791,
      "velocity": 97,
      "chip": "ym2612"
    },
    {
      "channel": 5,
      "note": 51,
      "start": 74.855,
      "duration": 0.2072,
      "velocity": 122,
      "chip": "ym2612"
    },
    {
      "channel": 2,
      "note": 89,
      "start": 74.9639,
      "duration": 0.0497,
      "velocity": 112,
      "chip": "ym2612"
    },
    {
      "channel": 3,
      "note": 85,
      "start": 74.9648,
      "duration": 0.049,
      "velocity": 97,
      "chip": "ym2612"
    },
    {
      "channel": 4,
      "note": 61,
      "start": 74.9655,
      "duration": 0.0817,
      "velocity": 97,
      "chip": "ym2612"
    },
    {
      "channel": 1,
      "note": 90,
      "start": 75.0135,
      "duration": 0.1826,
      "velocity": 97,
      "chip": "ym2612"
    },
    {
      "channel": 0,
      "note": 92,
      "start": 75.0655,
      "duration": 0.18,
      "velocity": 97,
      "chip": "ym2612"
    },
    {
      "channel": 3,
      "note": 84,
      "start": 75.0672,
      "duration": 0.0459,
      "velocity": 97,
      "chip": "ym2612"
    },
    {
      "channel": 4,
      "note": 56,
      "start": 75.068,
      "duration": 0.1789,
      "velocity": 97,
      "chip": "ym2612"
    },
    {
      "channel": 5,
      "note": 56,
      "start": 75.0713,
      "duration": 0.1074,
      "velocity": 117,
      "chip": "ym2612"
    },
    {
      "channel": 2,
      "note": 87,
      "start": 75.183,
      "duration": 0.0473,
      "velocity": 112,
      "chip": "ym2612"
    },
    {
      "channel": 3,
      "note": 84,
      "start": 75.1839,
      "duration": 0.0466,
      "velocity": 97,
      "chip": "ym2612"
    },
    {
      "channel": 5,
      "note": 56,
      "start": 75.1876,
      "duration": 0.1912,
      "velocity": 122,
      "chip": "ym2612"
    },
    {
      "channel": 1,
      "note": 92,
      "start": 75.2302,
      "duration": 0.1826,
      "velocity": 97,
      "chip": "ym2612"
    },
    {
      "channel": 0,
      "note": 84,
      "start": 75.2797,
      "duration": 0.1826,
      "velocity": 97,
      "chip": "ym2612"
    },
    {
      "channel": 2,
      "note": 87,
      "start": 75.2809,
      "duration": 0.0489,
      "velocity": 112,
      "chip": "ym2612"
    },
    {
      "channel": 3,
      "note": 96,
      "start": 75.2818,
      "duration": 0.0482,
      "velocity": 97,
      "chip": "ym2612"
    },
    {
      "channel": 4,
      "note": 63,
      "start": 75.2826,
      "duration": 0.3645,
      "velocity": 97,
      "chip": "ym2612"
    },
    {
      "channel": 5,
      "note": 44,
      "start": 75.3866,
      "duration": 0.109,
      "velocity": 122,
      "chip": "ym2612"
    },
    {
      "channel": 1,
      "note": 84,
      "start": 75.4466,
      "duration": 0.1828,
      "velocity": 97,
      "chip": "ym2612"
    },
    {
      "channel": 0,
      "note": 87,
      "start": 75.4989,
      "duration": 0.0799,
      "velocity": 97,
      "chip": "ym2612"
    },
    {
      "channel": 2,
      "note": 75,
      "start": 75.5001,
      "duration": 0.0464,
      "velocity": 112,
      "chip": "ym2612"
    },
    {
      "channel": 3,
      "note": 84,
      "start": 75.501,
      "duration": 0.0456,
      "velocity": 97,
      "chip": "ym2612"
    },
    {
      "channel": 5,
      "note": 48,
      "start": 75.5047,
      "duration": 0.2074,
      "velocity": 127,
      "chip": "ym2612"
    },
    {
      "channel": 0,
      "note": 92,
      "start": 75.5965,
      "duration": 0.1823,
      "velocity": 97,
      "chip": "ym2612"
    },
    {
      "channel": 2,
      "note": 75,
      "start": 75.5977,
      "duration": 0.0491,
      "velocity": 112,
      "chip": "ym2612"
    },
    {
      "channel": 3,
      "note": 84,
      "start": 75.5985,
      "duration": 0.0484,
      "velocity": 97,
      "chip": "ym2612"
    },
    {
      "channel": 1,
      "note": 87,
      "start": 75.6467,
      "duration": 0.0827,
      "velocity": 97,
      "chip": "ym2612"
    },
    {
      "channel": 3,
      "note": 84,
      "start": 75.7166,
      "duration": 0.0475,
      "velocity": 97,
      "chip": "ym2612"
    },
    {
      "channel": 4,
      "note": 60,
      "start": 75.7174,
      "duration": 0.18,
      "velocity": 97,
      "chip": "ym2612"
    },
    {
      "channel": 5,
      "note": 51,
      "start": 75.7208,
      "duration": 0.1913,
      "velocity": 122,
      "chip": "ym2612"
    },
    {
      "channel": 1,
      "note": 92,
      "start": 75.7636,
      "duration": 0.1825,
      "velocity": 97,
      "chip": "ym2612"
    },
    {
      "channel": 0,
      "note": 84,
      "start": 75.8131,
      "duration": 0.2825,
      "velocity": 97,
      "chip": "ym2612"
    },
    {
      "channel": 2,
      "note": 75,
      "start": 75.8144,
      "duration": 0.0488,
      "velocity": 112,
      "chip": "ym2612"
    },
    {
      "channel": 3,
      "note": 96,
      "start": 75.8152,
      "duration": 0.0481,
      "velocity": 97,
      "chip": "ym2612"
    },
    {
      "channel": 4,
      "note": 56,
      "start": 75.9169,
      "duration": 0.1802,
      "velocity": 97,
      "chip": "ym2612"
    },
    {
      "channel": 5,
      "note": 56,
      "start": 75.9202,
      "duration": 0.1086,
      "velocity": 117,
      "chip": "ym2612"
    },
    {
      "channel": 1,
      "note": 84,
      "start": 75.9801,
      "duration": 0.2826,
      "velocity": 97,
      "chip": "ym2612"
    },
    {
      "channel": 2,
      "note": 87,
      "start": 76.033,
      "duration": 0.0468,
      "velocity": 112,
      "chip": "ym2612"
    },
    {
      "channel": 3,
      "note": 72,
      "start": 76.0339,
      "duration": 0.0461,
      "velocity": 97,
      "chip": "ym2612"
    },
    {
      "channel": 5,
      "note": 56,
      "start": 76.0376,
      "duration": 0.2079,
      "velocity": 122,
      "chip": "ym2612"
    },
    {
      "channel": 0,
      "note": 87,
      "start": 76.1297,
      "duration": 0.2826,
      "velocity": 97,
      "chip": "ym2612"
    },
    {
      "channel": 2,
      "note": 87,
      "start": 76.1309,
      "duration": 0.0487,
      "velocity": 112,
      "chip": "ym2612"
    },
    {
      "channel": 3,
      "note": 72,
      "start": 76.1318,
      "duration": 0.048,
      "velocity": 97,
      "chip": "ym2612"
    },
    {
      "channel": 4,
      "note": 51,
      "start": 76.1325,
      "duration": 0.1814,
      "velocity": 97,
      "chip": "ym2612"
    },
    {
      "channel": 3,
      "note": 84,
      "start": 76.25,
      "duration": 0.0474,
      "velocity": 97,
      "chip": "ym2612"
    },
    {
      "channel": 5,
      "note": 56,
      "start": 76.2537,
      "duration": 0.0919,
      "velocity": 122,
      "chip": "ym2612"
    },
    {
      "channel": 1,
      "note": 87,
      "start": 76.2968,
      "duration": 0.2824,
      "velocity": 97,
      "chip": "ym2612"
    },
    {
      "channel": 2,
      "note": 75,
      "start": 76.3497,
      "duration": 0.0468,
      "velocity": 112,
      "chip": "ym2612"
    },
    {
      "channel": 3,
      "note": 96,
      "start": 76.3505,
      "duration": 0.0461,
      "velocity": 97,
      "chip": "ym2612"
    },
    {
      "channel": 4,
      "note": 68,
      "start": 76.3512,
      "duration": 0.1795,
      "velocity": 97,
      "chip": "ym2612"
    },
    {
      "channel": 5,
      "note": 48,
      "start": 76.3547,
      "duration": 0.2076,
      "velocity": 127,
      "chip": "ym2612"
    },
    {
      "channel": 0,
      "note": 84,
      "start": 76.4461,
      "duration": 0.2828,
      "velocity": 97,
      "chip": "ym2612"
    },
    {
      "channel": 2,
      "note": 75,
      "start": 76.4474,
      "duration": 0.0492,
      "velocity": 112,
      "chip": "ym2612"
    },
    {
      "channel": 3,
      "note": 84,
      "start": 76.4483,
      "duration": 0.0485,
      "velocity": 97,
      "chip": "ym2612"
    },
    {
      "channel": 2,
      "note": 87,
      "start": 76.5664,
      "duration": 0.0473,
      "velocity": 112,
      "chip": "ym2612"
    },
    {
      "channel": 3,
      "note": 84,
      "start": 76.5672,
      "duration": 0.0466,
      "velocity": 97,
      "chip": "ym2612"
    },
    {
      "channel": 4,
      "note": 56,
      "start": 76.568,
      "duration": 0.0792,
      "velocity": 97,
      "chip": "ym2612"
    },
    {
      "channel": 5,
      "note": 44,
      "start": 76.5714,
      "duration": 0.0908,
      "velocity": 122,
      "chip": "ym2612"
    },
    {
      "channel": 1,
      "note": 84,
      "start": 76.6135,
      "duration": 0.2826,
      "velocity": 97,
      "chip": "ym2612"
    },
    {
      "channel": 2,
      "note": 87,
      "start": 76.6663,
      "duration": 0.0467,
      "velocity": 112,
      "chip": "ym2612"
    },
    {
      "channel": 3,
      "note": 84,
      "start": 76.6672,
      "duration": 0.046,
      "velocity": 97,
      "chip": "ym2612"
    },
    {
      "channel": 4,
      "note": 56,
      "start": 76.6679,
      "duration": 0.0795,
      "velocity": 97,
      "chip": "ym2612"
    },
    {
      "channel": 5,
      "note": 44,
      "start": 76.6712,
      "duration": 0.1076,
      "velocity": 122,
      "chip": "ym2612"
    },
    {
      "channel": 0,
      "note": 85,
      "start": 76.7821,
      "duration": 0.1802,
      "velocity": 97,
      "chip": "ym2612"
    },
    {
      "channel": 2,
      "note": 89,
      "start": 76.7834,
      "duration": 0.0464,
      "velocity": 112,
      "chip": "ym2612"
    },
    {
      "channel": 3,
      "note": 85,
      "start": 76.7842,
      "duration": 0.0457,
      "velocity": 97,
      "chip": "ym2612"
    },
    {
      "channel": 4,
      "note": 61,
      "start": 76.7851,
      "duration": 0.1788,
      "velocity": 97,
      "chip": "ym2612"
    },
    {
      "channel": 5,
      "note": 56,
      "start": 76.7884,
      "duration": 0.0905,
      "velocity": 117,
      "chip": "ym2612"
    },
    {
      "channel": 3,
      "note": 85,
      "start": 76.8835,
      "duration": 0.0473,
      "velocity": 97,
      "chip": "ym2612"
    },
    {
      "channel": 5,
      "note": 44,
      "start": 76.8871,
      "duration": 0.2085,
      "velocity": 122,
      "chip": "ym2612"
    },
    {
      "channel": 1,
      "note": 85,
      "start": 76.9302,
      "duration": 0.1824,
      "velocity": 97,
      "chip": "ym2612"
    },
    {
      "channel": 0,
      "note": 87,
      "start": 76.9795,
      "duration": 0.1828,
      "velocity": 97,
      "chip": "ym2612"
    },
    {
      "channel": 2,
      "note": 89,
      "start": 76.9808,
      "duration": 0.0492,
      "velocity": 112,
      "chip": "ym2612"
    },
    {
      "channel": 3,
      "note": 97,
      "start": 76.9816,
      "duration": 0.0485,
      "velocity": 97,
      "chip": "ym2612"
    },
    {
      "channel": 4,
      "note": 61,
      "start": 76.9824,
      "duration": 0.1815,
      "velocity": 97,
      "chip": "ym2612"
    },
    {
      "channel": 5,
      "note": 56,
      "start": 77.1034,
      "duration": 0.0921,
      "velocity": 122,
      "chip": "ym2612"
    },
    {
      "channel": 1,
      "note": 87,
      "start": 77.1468,
      "duration": 0.1826,
      "velocity": 97,
      "chip": "ym2612"
    },
    {
      "channel": 0,
      "note": 89,
      "start": 77.1988,
      "duration": 0.18,
      "velocity": 97,
      "chip": "ym2612"
    },
    {
      "channel": 2,
      "note": 77,
      "start": 77.2001,
      "duration": 0.0462,
      "velocity": 112,
      "chip": "ym2612"
    },
    {
      "channel": 3,
      "note": 85,
      "start": 77.2009,
      "duration": 0.0456,
      "velocity": 97,
      "chip": "ym2612"
    },
    {
      "channel": 4,
      "note": 61,
      "start": 77.2016,
      "duration": 0.1786,
      "velocity": 97,
      "chip": "ym2612"
    },
    {
      "channel": 5,
      "note": 48,
      "start": 77.205,
      "duration": 0.3071,
      "velocity": 127,
      "chip": "ym2612"
    },
    {
      "channel": 2,
      "note": 77,
      "start": 77.3138,
      "duration": 0.0499,
      "velocity": 112,
      "chip": "ym2612"
    },
    {
      "channel": 3,
      "note": 85,
      "start": 77.3146,
      "duration": 0.0492,
      "velocity": 97,
      "chip": "ym2612"
    },
    {
      "channel": 1,
      "note": 89,
      "start": 77.3635,
      "duration": 0.1826,
      "velocity": 97,
      "chip": "ym2612"
    },
    {
      "channel": 0,
      "note": 85,
      "start": 77.413,
      "duration": 0.1826,
      "velocity": 97,
      "chip": "ym2612"
    },
    {
      "channel": 3,
      "note": 85,
      "start": 77.4147,
      "duration": 0.0489,
      "velocity": 97,
      "chip": "ym2612"
    },
    {
      "channel": 4,
      "note": 61,
      "start": 77.4154,
      "duration": 0.1817,
      "velocity": 97,
      "chip": "ym2612"
    },
    {
      "channel": 2,
      "note": 90,
      "start": 77.5162,
      "duration": 0.0471,
      "velocity": 112,
      "chip": "ym2612"
    },
    {
      "channel": 3,
      "note": 97,
      "start": 77.5171,
      "duration": 0.0464,
      "velocity": 97,
      "chip": "ym2612"
    },
    {
      "channel": 5,
      "note": 56,
      "start": 77.5207,
      "duration": 0.1081,
      "velocity": 122,
      "chip": "ym2612"
    },
    {
      "channel": 1,
      "note": 85,
      "start": 77.58,
      "duration": 0.1828,
      "velocity": 97,
      "chip": "ym2612"
    },
    {
      "channel": 0,
      "note": 87,
      "start": 77.6322,
      "duration": 0.2799,
      "velocity": 97,
      "chip": "ym2612"
    },
    {
      "channel": 3,
      "note": 75,
      "start": 77.6339,
      "duration": 0.0464,
      "velocity": 97,
      "chip": "ym2612"
    },
    {
      "channel": 4,
      "note": 63,
      "start": 77.6346,
      "duration": 0.1795,
      "velocity": 97,
      "chip": "ym2612"
    },
    {
      "channel": 5,
      "note": 56,
      "start": 77.638,
      "duration": 0.0909,
      "velocity": 117,
      "chip": "ym2612"
    },
    {
      "channel": 2,
      "note": 90,
      "start": 77.733,
      "duration": 0.0471,
      "velocity": 112,
      "chip": "ym2612"
    },
    {
      "channel": 5,
      "note": 56,
      "start": 77.7372,
      "duration": 0.2084,
      "velocity": 122,
      "chip": "ym2612"
    },
    {
      "channel": 1,
      "note": 87,
      "start": 77.78,
      "duration": 0.2827,
      "velocity": 97,
      "chip": "ym2612"
    },
    {
      "channel": 2,
      "note": 90,
      "start": 77.847,
      "duration": 0.0495,
      "velocity": 112,
      "chip": "ym2612"
    },
    {
      "channel": 3,
      "note": 87,
      "start": 77.8479,
      "duration": 0.0487,
      "velocity": 97,
      "chip": "ym2612"
    },
    {
      "channel": 4,
      "note": 63,
      "start": 77.8486,
      "duration": 0.1821,
      "velocity": 97,
      "chip": "ym2612"
    },
    {
      "channel": 0,
      "note": 89,
      "start": 77.9488,
      "duration": 0.2802,
      "velocity": 97,
      "chip": "ym2612"
    },
    {
      "channel": 3,
      "note": 99,
      "start": 77.9506,
      "duration": 0.0464,
      "velocity": 97,
      "chip": "ym2612"
    },
    {
      "channel": 5,
      "note": 56,
      "start": 77.9543,
      "duration": 0.0912,
      "velocity": 122,
      "chip": "ym2612"
    },
    {
      "channel": 2,
      "note": 78,
      "start": 78.0496,
      "duration": 0.0471,
      "velocity": 112,
      "chip": "ym2612"
    },
    {
      "channel": 3,
      "note": 87,
      "start": 78.0504,
      "duration": 0.0464,
      "velocity": 97,
      "chip": "ym2612"
    },
    {
      "channel": 4,
      "note": 51,
      "start": 78.0511,
      "duration": 0.1793,
      "velocity": 97,
      "chip": "ym2612"
    },
    {
      "channel": 5,
      "note": 48,
      "start": 78.0545,
      "duration": 0.1078,
      "velocity": 127,
      "chip": "ym2612"
    },
    {
      "channel": 1,
      "note": 89,
      "start": 78.1133,
      "duration": 0.2828,
      "velocity": 97,
      "chip": "ym2612"
    },
    {
      "channel": 2,
      "note": 78,
      "start": 78.1663,
      "duration": 0.0469,
      "velocity": 112,
      "chip": "ym2612"
    },
    {
      "channel": 3,
      "note": 87,
      "start": 78.1672,
      "duration": 0.0461,
      "velocity": 97,
      "chip": "ym2612"
    },
    {
      "channel": 5,
      "note": 44,
      "start": 78.1708,
      "duration": 0.208,
      "velocity": 122,
      "chip": "ym2612"
    },
    {
      "channel": 0,
      "note": 89,
      "start": 78.2631,
      "duration": 0.0825,
      "velocity": 97,
      "chip": "ym2612"
    },
    {
      "channel": 2,
      "note": 90,
      "start": 78.2644,
      "duration": 0.0486,
      "velocity": 112,
      "chip": "ym2612"
    },
    {
      "channel": 3,
      "note": 87,
      "start": 78.2652,
      "duration": 0.0479,
      "velocity": 97,
      "chip": "ym2612"
    },
    {
      "channel": 4,
      "note": 51,
      "start": 78.2659,
      "duration": 0.1812,
      "velocity": 97,
      "chip": "ym2612"
    },
    {
      "channel": 0,
      "note": 91,
      "start": 78.382,
      "duration": 0.0803,
      "velocity": 97,
      "chip": "ym2612"
    },
    {
      "channel": 2,
      "note": 90,
      "start": 78.3833,
      "duration": 0.0471,
      "velocity": 112,
      "chip": "ym2612"
    },
    {
      "channel": 3,
      "note": 87,
      "start": 78.3841,
      "duration": 0.0464,
      "velocity": 97,
      "chip": "ym2612"
    },
    {
      "channel": 5,
      "note": 51,
      "start": 78.3878,
      "duration": 0.0911,
      "velocity": 122,
      "chip": "ym2612"
    },
    {
      "channel": 1,
      "note": 89,
      "start": 78.4302,
      "duration": 0.0824,
      "velocity": 97,
      "chip": "ym2612"
    },
    {
      "channel": 0,
      "note": 92,
      "start": 78.4822,
      "duration": 0.1801,
      "velocity": 97,
      "chip": "ym2612"
    },
    {
      "channel": 3,
      "note": 84,
      "start": 78.4841,
      "duration": 0.0463,
      "velocity": 97,
      "chip": "ym2612"
    },
    {
      "channel": 4,
      "note": 56,
      "start": 78.4848,
      "duration": 0.179,
      "velocity": 97,
      "chip": "ym2612"
    },
    {
      "channel": 5,
      "note": 56,
      "start": 78.4881,
      "duration": 0.0907,
      "velocity": 117,
      "chip": "ym2612"
    },
    {
      "channel": 1,
      "note": 91,
      "start": 78.5301,
      "duration": 0.0826,
      "velocity": 97,
      "chip": "ym2612"
    },
    {
      "channel": 2,
      "note": 87,
      "start": 78.583,
      "duration": 0.047,
      "velocity": 112,
      "chip": "ym2612"
    },
    {
      "channel": 3,
      "note": 84,
      "start": 78.5838,
      "duration": 0.0463,
      "velocity": 97,
      "chip": "ym2612"
    },
    {
      "channel": 5,
      "note": 56,
      "start": 78.5875,
      "duration": 0.2081,
      "velocity": 122,
      "chip": "ym2612"
    },
    {
      "channel": 1,
      "note": 92,
      "start": 78.6468,
      "duration": 0.1826,
      "velocity": 97,
      "chip": "ym2612"
    },
    {
      "channel": 0,
      "note": 84,
      "start": 78.6963,
      "duration": 0.1826,
      "velocity": 97,
      "chip": "ym2612"
    },
    {
      "channel": 2,
      "note": 87,
      "start": 78.6976,
      "duration": 0.0489,
      "velocity": 112,
      "chip": "ym2612"
    },
    {
      "channel": 3,
      "note": 96,
      "start": 78.6985,
      "duration": 0.0482,
      "velocity": 97,
      "chip": "ym2612"
    },
    {
      "channel": 4,
      "note": 56,
      "start": 78.6993,
      "duration": 0.3646,
      "velocity": 97,
      "chip": "ym2612"
    },
    {
      "channel": 5,
      "note": 44,
      "start": 78.8034,
      "duration": 0.1087,
      "velocity": 122,
      "chip": "ym2612"
    },
    {
      "channel": 1,
      "note": 84,
      "start": 78.8466,
      "duration": 0.1828,
      "velocity": 97,
      "chip": "ym2612"
    },
    {
      "channel": 0,
      "note": 87,
      "start": 78.9154,
      "duration": 0.1803,
      "velocity": 97,
      "chip": "ym2612"
    },
    {
      "channel": 2,
      "note": 75,
      "start": 78.9166,
      "duration": 0.0466,
      "velocity": 112,
      "chip": "ym2612"
    },
    {
      "channel": 3,
      "note": 84,
      "start": 78.9174,
      "duration": 0.0459,
      "velocity": 97,
      "chip": "ym2612"
    },
    {
      "channel": 5,
      "note": 48,
      "start": 78.9212,
      "duration": 0.1909,
      "velocity": 127,
      "chip": "ym2612"
    },
    {
      "channel": 2,
      "note": 75,
      "start": 79.0139,
      "duration": 0.0496,
      "velocity": 112,
      "chip": "ym2612"
    },
    {
      "channel": 3,
      "note": 84,
      "start": 79.0148,
      "duration": 0.049,
      "velocity": 97,
      "chip": "ym2612"
    },
    {
      "channel": 1,
      "note": 87,
      "start": 79.0634,
      "duration": 0.1824,
      "velocity": 97,
      "chip": "ym2612"
    },
    {
      "channel": 0,
      "note": 92,
      "start": 79.1154,
      "duration": 0.0802,
      "velocity": 97,
      "chip": "ym2612"
    },
    {
      "channel": 3,
      "note": 84,
      "start": 79.1171,
      "duration": 0.0466,
      "velocity": 97,
      "chip": "ym2612"
    },
    {
      "channel": 4,
      "note": 56,
      "start": 79.1179,
      "duration": 0.1795,
      "velocity": 97,
      "chip": "ym2612"
    },
    {
      "channel": 5,
      "note": 51,
      "start": 79.1213,
      "duration": 0.2076,
      "velocity": 122,
      "chip": "ym2612"
    },
    {
      "channel": 0,
      "note": 84,
      "start": 79.2298,
      "duration": 0.2823,
      "velocity": 97,
      "chip": "ym2612"
    },
    {
      "channel": 2,
      "note": 75,
      "start": 79.2311,
      "duration": 0.0493,
      "velocity": 112,
      "chip": "ym2612"
    },
    {
      "channel": 3,
      "note": 96,
      "start": 79.232,
      "duration": 0.0485,
      "velocity": 97,
      "chip": "ym2612"
    },
    {
      "channel": 1,
      "note": 92,
      "start": 79.2802,
      "duration": 0.0826,
      "velocity": 97,
      "chip": "ym2612"
    },
    {
      "channel": 4,
      "note": 56,
      "start": 79.3337,
      "duration": 0.1798,
      "velocity": 97,
      "chip": "ym2612"
    },
    {
      "channel": 5,
      "note": 56,
      "start": 79.3371,
      "duration": 0.1083,
      "velocity": 117,
      "chip": "ym2612"
    },
    {
      "channel": 1,
      "note": 84,
      "start": 79.38,
      "duration": 0.2827,
      "velocity": 97,
      "chip": "ym2612"
    },
    {
      "channel": 2,
      "note": 87,
      "start": 79.4495,
      "duration": 0.047,
      "velocity": 112,
      "chip": "ym2612"
    },
    {
      "channel": 3,
      "note": 72,
      "start": 79.4504,
      "duration": 0.0462,
      "velocity": 97,
      "chip": "ym2612"
    },
    {
      "channel": 5,
      "note": 56,
      "start": 79.454,
      "duration": 0.1914,
      "velocity": 122,
      "chip": "ym2612"
    },
    {
      "channel": 0,
      "note": 87,
      "start": 79.5465,
      "duration": 0.1825,
      "velocity": 97,
      "chip": "ym2612"
    },
    {
      "channel": 2,
      "note": 87,
      "start": 79.5478,
      "duration": 0.0487,
      "velocity": 112,
      "chip": "ym2612"
    },
    {
      "channel": 3,
      "note": 72,
      "start": 79.5486,
      "duration": 0.048,
      "velocity": 97,
      "chip": "ym2612"
    },
    {
      "channel": 4,
      "note": 56,
      "start": 79.5493,
      "duration": 0.1812,
      "velocity": 97,
      "chip": "ym2612"
    },
    {
      "channel": 3,
      "note": 84,
      "start": 79.65,
      "duration": 0.0471,
      "velocity": 97,
      "chip": "ym2612"
    },
    {
      "channel": 5,
      "note": 56,
      "start": 79.6537,
      "duration": 0.1086,
      "velocity": 122,
      "chip": "ym2612"
    },
    {
      "channel": 1,
      "note": 87,
      "start": 79.7134,
      "duration": 0.1826,
      "velocity": 97,
      "chip": "ym2612"
    },
    {
      "channel": 0,
      "note": 92,
      "start": 79.7655,
      "duration": 0.1802,
      "velocity": 97,
      "chip": "ym2612"
    },
    {
      "channel": 2,
      "note": 75,
      "start": 79.7668,
      "duration": 0.0464,
      "velocity": 112,
      "chip": "ym2612"
    },
    {
      "channel": 3,
      "note": 96,
      "start": 79.7676,
      "duration": 0.0457,
      "velocity": 97,
      "chip": "ym2612"
    },
    {
      "channel": 4,
      "note": 68,
      "start": 79.7683,
      "duration": 0.1788,
      "velocity": 97,
      "chip": "ym2612"
    },
    {
      "channel": 5,
      "note": 48,
      "start": 79.7717,
      "duration": 0.2071,
      "velocity": 127,
      "chip": "ym2612"
    },
    {
      "channel": 2,
      "note": 75,
      "start": 79.8639,
      "duration": 0.0495,
      "velocity": 112,
      "chip": "ym2612"
    },
    {
      "channel": 3,
      "note": 84,
      "start": 79.8647,
      "duration": 0.0488,
      "velocity": 97,
      "chip": "ym2612"
    },
    {
      "channel": 1,
      "note": 92,
      "start": 79.9132,
      "duration": 0.1828,
      "velocity": 97,
      "chip": "ym2612"
    },
    {
      "channel": 0,
      "note": 87,
      "start": 79.982,
      "duration": 0.1803,
      "velocity": 97,
      "chip": "ym2612"
    },
    {
      "channel": 2,
      "note": 87,
      "start": 79.9833,
      "duration": 0.0466,
      "velocity": 112,
      "chip": "ym2612"
    },
    {
      "channel": 3,
      "note": 84,
      "start": 79.9841,
      "duration": 0.0459,
      "velocity": 97,
      "chip": "ym2612"
    },
    {
      "channel": 4,
      "note": 56,
      "start": 79.9849,
      "duration": 0.0791,
      "velocity": 97,
      "chip": "ym2612"
    },
    {
      "channel": 5,
      "note": 44,
      "start": 79.9883,
      "duration": 0.0906,
      "velocity": 122,
      "chip": "ym2612"
    },
    {
      "channel": 2,
      "note": 87,
      "start": 80.0831,
      "duration": 0.0471,
      "velocity": 112,
      "chip": "ym2612"
    },
    {
      "channel": 3,
      "note": 84,
      "start": 80.0839,
      "duration": 0.0465,
      "velocity": 97,
      "chip": "ym2612"
    },
    {
      "channel": 4,
      "note": 56,
      "start": 80.0846,
      "duration": 0.0791,
      "velocity": 97,
      "chip": "ym2612"
    },
    {
      "channel": 5,
      "note": 44,
      "start": 80.088,
      "duration": 0.0908,
      "velocity": 122,
      "chip": "ym2612"
    },
    {
      "channel": 1,
      "note": 87,
      "start": 80.1301,
      "duration": 0.1824,
      "velocity": 97,
      "chip": "ym2612"
    },
    {
      "channel": 0,
      "note": 89,
      "start": 80.182,
      "duration": 0.1803,
      "velocity": 97,
      "chip": "ym2612"
    },
    {
      "channel": 2,
      "note": 89,
      "start": 80.1833,
      "duration": 0.0467,
      "velocity": 112,
      "chip": "ym2612"
    },
    {
      "channel": 3,
      "note": 85,
      "start": 80.1841,
      "duration": 0.046,
      "velocity": 97,
      "chip": "ym2612"
    },
    {
      "channel": 4,
      "note": 61,
      "start": 80.1849,
      "duration": 0.1789,
      "velocity": 97,
      "chip": "ym2612"
    },
    {
      "channel": 5,
      "note": 56,
      "start": 80.1883,
      "duration": 0.1073,
      "velocity": 117,
      "chip": "ym2612"
    },
    {
      "channel": 3,
      "note": 85,
      "start": 80.3002,
      "duration": 0.0472,
      "velocity": 97,
      "chip": "ym2612"
    },
    {
      "channel": 5,
      "note": 44,
      "start": 80.3038,
      "duration": 0.2083,
      "velocity": 122,
      "chip": "ym2612"
    },
    {
      "channel": 1,
      "note": 89,
      "start": 80.3468,
      "duration": 0.1826,
      "velocity": 97,
      "chip": "ym2612"
    },
    {
      "channel": 0,
      "note": 90,
      "start": 80.3963,
      "duration": 0.1824,
      "velocity": 97,
      "chip": "ym2612"
    },
    {
      "channel": 2,
      "note": 89,
      "start": 80.3976,
      "duration": 0.0487,
      "velocity": 112,
      "chip": "ym2612"
    },
    {
      "channel": 3,
      "note": 97,
      "start": 80.3985,
      "duration": 0.048,
      "velocity": 97,
      "chip": "ym2612"
    },
    {
      "channel": 4,
      "note": 61,
      "start": 80.3992,
      "duration": 0.1812,
      "velocity": 97,
      "chip": "ym2612"
    },
    {
      "channel": 5,
      "note": 56,
      "start": 80.52,
      "duration": 0.0922,
      "velocity": 122,
      "chip": "ym2612"
    },
    {
      "channel": 1,
      "note": 90,
      "start": 80.5635,
      "duration": 0.1826,
      "velocity": 97,
      "chip": "ym2612"
    },
    {
      "channel": 0,
      "note": 92,
      "start": 80.6155,
      "duration": 0.1802,
      "velocity": 97,
      "chip": "ym2612"
    },
    {
      "channel": 2,
      "note": 77,
      "start": 80.6168,
      "duration": 0.0464,
      "velocity": 112,
      "chip": "ym2612"
    },
    {
      "channel": 3,
      "note": 85,
      "start": 80.6176,
      "duration": 0.0457,
      "velocity": 97,
      "chip": "ym2612"
    },
    {
      "channel": 4,
      "note": 61,
      "start": 80.6183,
      "duration": 0.1788,
      "velocity": 97,
      "chip": "ym2612"
    },
    {
      "channel": 5,
      "note": 48,
      "start": 80.6217,
      "duration": 0.3072,
      "velocity": 127,
      "chip": "ym2612"
    },
    {
      "channel": 2,
      "note": 77,
      "start": 80.7137,
      "duration": 0.0496,
      "velocity": 112,
      "chip": "ym2612"
    },
    {
      "channel": 3,
      "note": 85,
      "start": 80.7145,
      "duration": 0.0489,
      "velocity": 97,
      "chip": "ym2612"
    },
    {
      "channel": 1,
      "note": 92,
      "start": 80.78,
      "duration": 0.1828,
      "velocity": 97,
      "chip": "ym2612"
    },
    {
      "channel": 0,
      "note": 85,
      "start": 80.8297,
      "duration": 0.1826,
      "velocity": 97,
      "chip": "ym2612"
    },
    {
      "channel": 3,
      "note": 85,
      "start": 80.8314,
      "duration": 0.0489,
      "velocity": 97,
      "chip": "ym2612"
    },
    {
      "channel": 4,
      "note": 61,
      "start": 80.8321,
      "duration": 0.1817,
      "velocity": 97,
      "chip": "ym2612"
    },
    {
      "channel": 2,
      "note": 90,
      "start": 80.933,
      "duration": 0.047,
      "velocity": 112,
      "chip": "ym2612"
    },
    {
      "channel": 3,
      "note": 97,
      "start": 80.9339,
      "duration": 0.0464,
      "velocity": 97,
      "chip": "ym2612"
    },
    {
      "channel": 5,
      "note": 56,
      "start": 80.9376,
      "duration": 0.1079,
      "velocity": 122,
      "chip": "ym2612"
    },
    {
      "channel": 1,
      "note": 85,
      "start": 80.9799,
      "duration": 0.1828,
      "velocity": 97,
      "chip": "ym2612"
    },
    {
      "channel": 0,
      "note": 90,
      "start": 81.0488,
      "duration": 0.0802,
      "velocity": 97,
      "chip": "ym2612"
    },
    {
      "channel": 3,
      "note": 75,
      "start": 81.0505,
      "duration": 0.0465,
      "velocity": 97,
      "chip": "ym2612"
    },
    {
      "channel": 4,
      "note": 63,
      "start": 81.0512,
      "duration": 0.1796,
      "velocity": 97,
      "chip": "ym2612"
    },
    {
      "channel": 5,
      "note": 56,
      "start": 81.0545,
      "duration": 0.091,
      "velocity": 117,
      "chip": "ym2612"
    },
    {
      "channel": 0,
      "note": 92,
      "start": 81.1489,
      "duration": 0.1801,
      "velocity": 97,
      "chip": "ym2612"
    },
    {
      "channel": 2,
      "note": 90,
      "start": 81.1502,
      "duration": 0.0468,
      "velocity": 112,
      "chip": "ym2612"
    },
    {
      "channel": 5,
      "note": 56,
      "start": 81.1543,
      "duration": 0.2079,
      "velocity": 122,
      "chip": "ym2612"
    },
    {
      "channel": 1,
      "note": 90,
      "start": 81.1968,
      "duration": 0.0826,
      "velocity": 97,
      "chip": "ym2612"
    },
    {
      "channel": 2,
      "note": 90,
      "start": 81.247,
      "duration": 0.0496,
      "velocity": 112,
      "chip": "ym2612"
    },
    {
      "channel": 3,
      "note": 87,
      "start": 81.2479,
      "duration": 0.0489,
      "velocity": 97,
      "chip": "ym2612"
    },
    {
      "channel": 4,
      "note": 63,
      "start": 81.2486,
      "duration": 0.1821,
      "velocity": 97,
      "chip": "ym2612"
    },
    {
      "channel": 1,
      "note": 92,
      "start": 81.3134,
      "duration": 0.1826,
      "velocity": 97,
      "chip": "ym2612"
    },
    {
      "channel": 0,
      "note": 96,
      "start": 81.3655,
      "duration": 0.2799,
      "velocity": 97,
      "chip": "ym2612"
    },
    {
      "channel": 3,
      "note": 99,
      "start": 81.3673,
      "duration": 0.0463,
      "velocity": 97,
      "chip": "ym2612"
    },
    {
      "channel": 5,
      "note": 56,
      "start": 81.371,
      "duration": 0.0912,
      "velocity": 122,
      "chip": "ym2612"
    },
    {
      "channel": 2,
      "note": 78,
      "start": 81.4664,
      "duration": 0.0471,
      "velocity": 112,
      "chip": "ym2612"
    },
    {
      "channel": 3,
      "note": 87,
      "start": 81.4672,
      "duration": 0.0464,
      "velocity": 97,
      "chip": "ym2612"
    },
    {
      "channel": 4,
      "note": 51,
      "start": 81.4679,
      "duration": 0.179,
      "velocity": 97,
      "chip": "ym2612"
    },
    {
      "channel": 5,
      "note": 48,
      "start": 81.4713,
      "duration": 0.1075,
      "velocity": 127,
      "chip": "ym2612"
    },
    {
      "channel": 1,
      "note": 96,
      "start": 81.5134,
      "duration": 0.2827,
      "velocity": 97,
      "chip": "ym2612"
    },
    {
      "channel": 2,
      "note": 78,
      "start": 81.5828,
      "duration": 0.047,
      "velocity": 112,
      "chip": "ym2612"
    },
    {
      "channel": 3,
      "note": 87,
      "start": 81.5837,
      "duration": 0.0463,
      "velocity": 97,
      "chip": "ym2612"
    },
    {
      "channel": 5,
      "note": 44,
      "start": 81.5873,
      "duration": 0.1914,
      "velocity": 122,
      "chip": "ym2612"
    },
    {
      "channel": 0,
      "note": 97,
      "start": 81.6798,
      "duration": 0.1825,
      "velocity": 97,
      "chip": "ym2612"
    },
    {
      "channel": 2,
      "note": 90,
      "start": 81.6811,
      "duration": 0.0487,
      "velocity": 112,
      "chip": "ym2612"
    },
    {
      "channel": 3,
      "note": 87,
      "start": 81.682,
      "duration": 0.048,
      "velocity": 97,
      "chip": "ym2612"
    },
    {
      "channel": 4,
      "note": 51,
      "start": 81.6827,
      "duration": 0.1811,
      "velocity": 97,
      "chip": "ym2612"
    },
    {
      "channel": 2,
      "note": 90,
      "start": 81.7829,
      "duration": 0.0471,
      "velocity": 112,
      "chip": "ym2612"
    },
    {
      "channel": 3,
      "note": 87,
      "start": 81.7837,
      "duration": 0.0464,
      "velocity": 97,
      "chip": "ym2612"
    },
    {
      "channel": 5,
      "note": 51,
      "start": 81.7874,
      "duration": 0.1081,
      "velocity": 122,
      "chip": "ym2612"
    },
    {
      "channel": 1,
      "note": 97,
      "start": 81.8468,
      "duration": 0.1826,
      "velocity": 97,
      "chip": "ym2612"
    },
    {
      "channel": 0,
      "note": 96,
      "start": 81.8989,
      "duration": 3.4182,
      "velocity": 104,
      "chip": "ym2612"
    },
    {
      "channel": 2,
      "note": 92,
      "start": 81.9003,
      "duration": 0.0462,
      "velocity": 112,
      "chip": "ym2612"
    },
    {
      "channel": 3,
      "note": 87,
      "start": 81.9014,
      "duration": 0.0452,
      "velocity": 97,
      "chip": "ym2612"
    },
    {
      "channel": 4,
      "note": 56,
      "start": 81.9022,
      "duration": 1.5786,
      "velocity": 97,
      "chip": "ym2612"
    },
    {
      "channel": 5,
      "note": 56,
      "start": 81.9056,
      "duration": 0.4095,
      "velocity": 117,
      "chip": "ym2612"
    },
    {
      "channel": 2,
      "note": 80,
      "start": 81.9972,
      "duration": 0.0496,
      "velocity": 112,
      "chip": "ym2612"
    },
    {
      "channel": 3,
      "note": 84,
      "start": 81.998,
      "duration": 0.0489,
      "velocity": 97,
      "chip": "ym2612"
    },
    {
      "channel": 1,
      "note": 96,
      "start": 82.0467,
      "duration": 3.2729,
      "velocity": 97,
      "chip": "ym2612"
    },
    {
      "channel": 2,
      "note": 80,
      "start": 82.1137,
      "duration": 0.0495,
      "velocity": 112,
      "chip": "ym2612"
    },
    {
      "channel": 2,
      "note": 92,
      "start": 82.2139,
      "duration": 0.0493,
      "velocity": 112,
      "chip": "ym2612"
    },
    {
      "channel": 3,
      "note": 87,
      "start": 82.2148,
      "duration": 0.0486,
      "velocity": 97,
      "chip": "ym2612"
    },
    {
      "channel": 2,
      "note": 80,
      "start": 82.3137,
      "duration": 0.0496,
      "velocity": 112,
      "chip": "ym2612"
    },
    {
      "channel": 3,
      "note": 84,
      "start": 82.3146,
      "duration": 0.0489,
      "velocity": 97,
      "chip": "ym2612"
    },
    {
      "channel": 2,
      "note": 80,
      "start": 82.4305,
      "duration": 0.0494,
      "velocity": 112,
      "chip": "ym2612"
    },
    {
      "channel": 2,
      "note": 92,
      "start": 82.5306,
      "duration": 0.049,
      "velocity": 112,
      "chip": "ym2612"
    },
    {
      "channel": 3,
      "note": 75,
      "start": 82.5315,
      "duration": 0.0483,
      "velocity": 97,
      "chip": "ym2612"
    },
    {
      "channel": 2,
      "note": 80,
      "start": 82.647,
      "duration": 0.0495,
      "velocity": 112,
      "chip": "ym2612"
    },
    {
      "channel": 3,
      "note": 72,
      "start": 82.6478,
      "duration": 0.0488,
      "velocity": 97,
      "chip": "ym2612"
    },
    {
      "channel": 2,
      "note": 92,
      "start": 82.7473,
      "duration": 0.0493,
      "velocity": 112,
      "chip": "ym2612"
    },
    {
      "channel": 3,
      "note": 87,
      "start": 82.7481,
      "duration": 0.0486,
      "velocity": 97,
      "chip": "ym2612"
    },
    {
      "channel": 2,
      "note": 80,
      "start": 82.847,
      "duration": 0.0496,
      "velocity": 112,
      "chip": "ym2612"
    },
    {
      "channel": 2,
      "note": 80,
      "start": 82.9639,
      "duration": 0.0494,
      "velocity": 112,
      "chip": "ym2612"
    },
    {
      "channel": 3,
      "note": 84,
      "start": 82.9648,
      "duration": 0.0486,
      "velocity": 97,
      "chip": "ym2612"
    },
    {
      "channel": 2,
      "note": 92,
      "start": 83.0639,
      "duration": 0.049,
      "velocity": 112,
      "chip": "ym2612"
    },
    {
      "channel": 3,
      "note": 75,
      "start": 83.0648,
      "duration": 0.0483,
      "velocity": 97,
      "chip": "ym2612"
    },
    {
      "channel": 2,
      "note": 80,
      "start": 83.1828,
      "duration": 0.047,
      "velocity": 112,
      "chip": "ym2612"
    },
    {
      "channel": 5,
      "note": 56,
      "start": 83.187,
      "duration": 0.0919,
      "velocity": 117,
      "chip": "ym2612"
    },
    {
      "channel": 2,
      "note": 80,
      "start": 83.283,
      "duration": 0.0493,
      "velocity": 112,
      "chip": "ym2612"
    },
    {
      "channel": 3,
      "note": 72,
      "start": 83.2839,
      "duration": 0.0486,
      "velocity": 97,
      "chip": "ym2612"
    },
    {
      "channel": 5,
      "note": 56,
      "start": 83.2876,
      "duration": 0.0413,
      "velocity": 122,
      "chip": "ym2612"
    },
    {
      "channel": 5,
      "note": 56,
      "start": 83.3362,
      "duration": 0.1593,
      "velocity": 122,
      "chip": "ym2612"
    },
    {
      "channel": 2,
      "note": 92,
      "start": 83.3804,
      "duration": 0.0496,
      "velocity": 112,
      "chip": "ym2612"
    },
    {
      "channel": 3,
      "note": 87,
      "start": 83.3812,
      "duration": 0.0489,
      "velocity": 97,
      "chip": "ym2612"
    },
    {
      "channel": 2,
      "note": 92,
      "start": 83.4997,
      "duration": 0.0469,
      "velocity": 112,
      "chip": "ym2612"
    },
    {
      "channel": 3,
      "note": 84,
      "start": 83.5005,
      "duration": 0.0462,
      "velocity": 97,
      "chip": "ym2612"
    },
    {
      "channel": 5,
      "note": 44,
      "start": 83.5042,
      "duration": 0.0913,
      "velocity": 122,
      "chip": "ym2612"
    },
    {
      "channel": 2,
      "note": 80,
      "start": 83.6003,
      "duration": 1.1819,
      "velocity": 112,
      "chip": "ym2612"
    },
    {
      "channel": 3,
      "note": 84,
      "start": 83.6012,
      "duration": 1.181,
      "velocity": 97,
      "chip": "ym2612"
    },
    {
      "channel": 4,
      "note": 56,
      "start": 83.602,
      "duration": 0.3623,
      "velocity": 97,
      "chip": "ym2612"
    },
    {
      "channel": 5,
      "note": 56,
      "start": 83.6054,
      "duration": 0.1068,
      "velocity": 117,
      "chip": "ym2612"
    },
    {
      "channel": 5,
      "note": 56,
      "start": 83.7199,
      "duration": 0.309,
      "velocity": 122,
      "chip": "ym2612"
    },
    {
      "channel": 4,
      "note": 56,
      "start": 84.0339,
      "duration": 0.3636,
      "velocity": 97,
      "chip": "ym2612"
    },
    {
      "channel": 5,
      "note": 56,
      "start": 84.0372,
      "duration": 0.0917,
      "velocity": 117,
      "chip": "ym2612"
    },
    {
      "channel": 5,
      "note": 44,
      "start": 84.1368,
      "duration": 0.3087,
      "velocity": 122,
      "chip": "ym2612"
    },
    {
      "channel": 4,
      "note": 56,
      "start": 84.4504,
      "duration": 0.1805,
      "velocity": 97,
      "chip": "ym2612"
    },
    {
      "channel": 5,
      "note": 56,
      "start": 84.4537,
      "duration": 0.2085,
      "velocity": 117,
      "chip": "ym2612"
    },
    {
      "channel": 4,
      "note": 56,
      "start": 84.6671,
      "duration": 0.1802,
      "velocity": 97,
      "chip": "ym2612"
    },
    {
      "channel": 5,
      "note": 48,
      "start": 84.6706,
      "duration": 0.1082,
      "velocity": 127,
      "chip": "ym2612"
    },
    {
      "channel": 5,
      "note": 48,
      "start": 84.786,
      "duration": 0.0929,
      "velocity": 127,
      "chip": "ym2612"
    },
    {
      "channel": 2,
      "note": 80,
      "start": 84.8832,
      "duration": 0.0468,
      "velocity": 112,
      "chip": "ym2612"
    },
    {
      "channel": 3,
      "note": 72,
      "start": 84.8841,
      "duration": 0.046,
      "velocity": 97,
      "chip": "ym2612"
    },
    {
      "channel": 4,
      "note": 56,
      "start": 84.8848,
      "duration": 0.1794,
      "velocity": 97,
      "chip": "ym2612"
    },
    {
      "channel": 5,
      "note": 56,
      "start": 84.8881,
      "duration": 0.0907,
      "velocity": 117,
      "chip": "ym2612"
    },
    {
      "channel": 5,
      "note": 48,
      "start": 84.9866,
      "duration": 0.109,
      "velocity": 127,
      "chip": "ym2612"
    },
    {
      "channel": 2,
      "note": 80,
      "start": 85.0997,
      "duration": 0.0469,
      "velocity": 112,
      "chip": "ym2612"
    },
    {
      "channel": 4,
      "note": 56,
      "start": 85.1009,
      "duration": 0.0793,
      "velocity": 97,
      "chip": "ym2612"
    },
    {
      "channel": 5,
      "note": 48,
      "start": 85.1043,
      "duration": 0.2079,
      "velocity": 127,
      "chip": "ym2612"
    },
    {
      "channel": 2,
      "note": 80,
      "start": 85.1972,
      "duration": 0.0491,
      "velocity": 112,
      "chip": "ym2612"
    },
    {
      "channel": 3,
      "note": 72,
      "start": 85.198,
      "duration": 0.0484,
      "velocity": 97,
      "chip": "ym2612"
    },
    {
      "channel": 4,
      "note": 56,
      "start": 85.1988,
      "duration": 0.0821,
      "velocity": 97,
      "chip": "ym2612"
    },
    {
      "channel": 0,
      "note": 87,
      "start": 85.3178,
      "duration": 0.0019,
      "velocity": 104,
      "chip": "ym2612"
    },
    {
      "channel": 2,
      "note": 71,
      "start": 85.3194,
      "duration": 0.0003,
      "velocity": 112,
      "chip": "ym2612"
    }
  ]
}