{
  "track_name": "06 - Other Forces Turn (Normal)",
  "duration_sec": 96.398,
  "sample_rate": 44100,
  "note_count": 1631,
  "unique_pitches": 56,
  "pitch_range": 63,
  "avg_note_duration": 0.1926,
  "reconstruction_stats": {
    "notes_reconstructed": 1631,
    "keyon_events": 1631,
    "keyoff_events": 1628,
    "orphan_keyons": 3,
    "unique_pitches": 56,
    "pitch_range": 63,
    "avg_duration_sec": 0.1926
  },
  "metadata": {
    "source": "T\\The Hybrid Front\\06 - Other Forces Turn (Normal).vgz"
  },
  "notes": [
    {
      "channel": 0,
      "note": 37,
      "start": 0.1546,
      "duration": 0.2069,
      "velocity": 95,
      "chip": "ym2612"
    },
    {
      "channel": 4,
      "note": 97,
      "start": 0.1636,
      "duration": 0.0209,
      "velocity": 109,
      "chip": "ym2612"
    },
    {
      "channel": 1,
      "note": 42,
      "start": 0.1833,
      "duration": 0.0275,
      "velocity": 97,
      "chip": "ym2612"
    },
    {
      "channel": 3,
      "note": 42,
      "start": 0.1841,
      "duration": 0.0275,
      "velocity": 95,
      "chip": "ym2612"
    },
    {
      "channel": 4,
      "note": 97,
      "start": 0.1852,
      "duration": 0.0276,
      "velocity": 109,
      "chip": "ym2612"
    },
    {
      "channel": 1,
      "note": 44,
      "start": 0.2114,
      "duration": 0.0251,
      "velocity": 97,
      "chip": "ym2612"
    },
    {
      "channel": 3,
      "note": 44,
      "start": 0.2122,
      "duration": 0.0248,
      "velocity": 95,
      "chip": "ym2612"
    },
    {
      "channel": 4,
      "note": 92,
      "start": 0.2134,
      "duration": 0.0242,
      "velocity": 109,
      "chip": "ym2612"
    },
    {
      "channel": 4,
      "note": 92,
      "start": 0.2382,
      "duration": 0.1256,
      "velocity": 109,
      "chip": "ym2612"
    },
    {
      "channel": 1,
      "note": 47,
      "start": 0.3624,
      "duration": 0.0235,
      "velocity": 97,
      "chip": "ym2612"
    },
    {
      "channel": 3,
      "note": 47,
      "start": 0.3632,
      "duration": 0.0231,
      "velocity": 95,
      "chip": "ym2612"
    },
    {
      "channel": 4,
      "note": 95,
      "start": 0.3644,
      "duration": 0.0226,
      "velocity": 109,
      "chip": "ym2612"
    },
    {
      "channel": 4,
      "note": 95,
      "start": 0.3875,
      "duration": 0.02,
      "velocity": 109,
      "chip": "ym2612"
    },
    {
      "channel": 1,
      "note": 44,
      "start": 0.4063,
      "duration": 0.0214,
      "velocity": 97,
      "chip": "ym2612"
    },
    {
      "channel": 3,
      "note": 44,
      "start": 0.407,
      "duration": 0.021,
      "velocity": 95,
      "chip": "ym2612"
    },
    {
      "channel": 3,
      "note": 47,
      "start": 0.4485,
      "duration": 0.0435,
      "velocity": 95,
      "chip": "ym2612"
    },
    {
      "channel": 4,
      "note": 97,
      "start": 0.4494,
      "duration": 0.0206,
      "velocity": 109,
      "chip": "ym2612"
    },
    {
      "channel": 1,
      "note": 54,
      "start": 0.4693,
      "duration": 0.0219,
      "velocity": 97,
      "chip": "ym2612"
    },
    {
      "channel": 4,
      "note": 92,
      "start": 0.4705,
      "duration": 0.0226,
      "velocity": 109,
      "chip": "ym2612"
    },
    {
      "channel": 1,
      "note": 56,
      "start": 0.4919,
      "duration": 0.0229,
      "velocity": 97,
      "chip": "ym2612"
    },
    {
      "channel": 3,
      "note": 44,
      "start": 0.4927,
      "duration": 0.0225,
      "velocity": 95,
      "chip": "ym2612"
    },
    {
      "channel": 4,
      "note": 92,
      "start": 0.4937,
      "duration": 0.0227,
      "velocity": 109,
      "chip": "ym2612"
    },
    {
      "channel": 3,
      "note": 47,
      "start": 0.5158,
      "duration": 0.1459,
      "velocity": 95,
      "chip": "ym2612"
    },
    {
      "channel": 4,
      "note": 95,
      "start": 0.517,
      "duration": 0.1223,
      "velocity": 109,
      "chip": "ym2612"
    },
    {
      "channel": 1,
      "note": 59,
      "start": 0.6384,
      "duration": 0.023,
      "velocity": 97,
      "chip": "ym2612"
    },
    {
      "channel": 4,
      "note": 95,
      "start": 0.6398,
      "duration": 0.0229,
      "velocity": 109,
      "chip": "ym2612"
    },
    {
      "channel": 3,
      "note": 44,
      "start": 0.6623,
      "duration": 0.0207,
      "velocity": 95,
      "chip": "ym2612"
    },
    {
      "channel": 1,
      "note": 56,
      "start": 0.6828,
      "duration": 0.0206,
      "velocity": 97,
      "chip": "ym2612"
    },
    {
      "channel": 3,
      "note": 47,
      "start": 0.6835,
      "duration": 0.0202,
      "velocity": 95,
      "chip": "ym2612"
    },
    {
      "channel": 3,
      "note": 49,
      "start": 0.7043,
      "duration": 0.1077,
      "velocity": 95,
      "chip": "ym2612"
    },
    {
      "channel": 4,
      "note": 90,
      "start": 0.705,
      "duration": 0.1098,
      "velocity": 109,
      "chip": "ym2612"
    },
    {
      "channel": 4,
      "note": 97,
      "start": 0.8154,
      "duration": 0.0195,
      "velocity": 109,
      "chip": "ym2612"
    },
    {
      "channel": 1,
      "note": 66,
      "start": 0.8337,
      "duration": 0.0225,
      "velocity": 97,
      "chip": "ym2612"
    },
    {
      "channel": 3,
      "note": 42,
      "start": 0.8345,
      "duration": 0.0225,
      "velocity": 95,
      "chip": "ym2612"
    },
    {
      "channel": 4,
      "note": 97,
      "start": 0.8356,
      "duration": 0.0227,
      "velocity": 109,
      "chip": "ym2612"
    },
    {
      "channel": 1,
      "note": 68,
      "start": 0.8568,
      "duration": 0.0226,
      "velocity": 97,
      "chip": "ym2612"
    },
    {
      "channel": 3,
      "note": 44,
      "start": 0.8576,
      "duration": 0.0222,
      "velocity": 95,
      "chip": "ym2612"
    },
    {
      "channel": 4,
      "note": 92,
      "start": 0.8588,
      "duration": 0.0217,
      "velocity": 109,
      "chip": "ym2612"
    },
    {
      "channel": 4,
      "note": 92,
      "start": 0.8811,
      "duration": 0.0285,
      "velocity": 109,
      "chip": "ym2612"
    },
    {
      "channel": 1,
      "note": 71,
      "start": 0.9082,
      "duration": 0.0234,
      "velocity": 97,
      "chip": "ym2612"
    },
    {
      "channel": 3,
      "note": 47,
      "start": 0.909,
      "duration": 0.023,
      "velocity": 95,
      "chip": "ym2612"
    },
    {
      "channel": 4,
      "note": 95,
      "start": 0.9102,
      "duration": 0.0225,
      "velocity": 109,
      "chip": "ym2612"
    },
    {
      "channel": 4,
      "note": 95,
      "start": 0.9333,
      "duration": 0.0202,
      "velocity": 109,
      "chip": "ym2612"
    },
    {
      "channel": 1,
      "note": 68,
      "start": 0.9523,
      "duration": 0.0213,
      "velocity": 97,
      "chip": "ym2612"
    },
    {
      "channel": 3,
      "note": 44,
      "start": 0.9531,
      "duration": 0.0209,
      "velocity": 95,
      "chip": "ym2612"
    },
    {
      "channel": 3,
      "note": 47,
      "start": 0.9937,
      "duration": 0.0464,
      "velocity": 95,
      "chip": "ym2612"
    },
    {
      "channel": 4,
      "note": 97,
      "start": 0.9945,
      "duration": 0.0206,
      "velocity": 109,
      "chip": "ym2612"
    },
    {
      "channel": 1,
      "note": 78,
      "start": 1.0145,
      "duration": 0.0248,
      "velocity": 97,
      "chip": "ym2612"
    },
    {
      "channel": 4,
      "note": 92,
      "start": 1.0157,
      "duration": 0.0255,
      "velocity": 109,
      "chip": "ym2612"
    },
    {
      "channel": 1,
      "note": 80,
      "start": 1.0399,
      "duration": 0.0258,
      "velocity": 97,
      "chip": "ym2612"
    },
    {
      "channel": 3,
      "note": 44,
      "start": 1.0407,
      "duration": 0.0254,
      "velocity": 95,
      "chip": "ym2612"
    },
    {
      "channel": 4,
      "note": 92,
      "start": 1.0418,
      "duration": 0.0255,
      "velocity": 109,
      "chip": "ym2612"
    },
    {
      "channel": 3,
      "note": 47,
      "start": 1.0667,
      "duration": 0.1576,
      "velocity": 95,
      "chip": "ym2612"
    },
    {
      "channel": 4,
      "note": 95,
      "start": 1.0679,
      "duration": 0.1333,
      "velocity": 109,
      "chip": "ym2612"
    },
    {
      "channel": 1,
      "note": 83,
      "start": 1.2002,
      "duration": 0.0236,
      "velocity": 97,
      "chip": "ym2612"
    },
    {
      "channel": 4,
      "note": 95,
      "start": 1.2017,
      "duration": 0.0235,
      "velocity": 109,
      "chip": "ym2612"
    },
    {
      "channel": 3,
      "note": 44,
      "start": 1.2248,
      "duration": 0.0189,
      "velocity": 95,
      "chip": "ym2612"
    },
    {
      "channel": 1,
      "note": 80,
      "start": 1.2435,
      "duration": 0.021,
      "velocity": 97,
      "chip": "ym2612"
    },
    {
      "channel": 3,
      "note": 47,
      "start": 1.2443,
      "duration": 0.0206,
      "velocity": 95,
      "chip": "ym2612"
    },
    {
      "channel": 3,
      "note": 49,
      "start": 1.2655,
      "duration": 0.1114,
      "velocity": 95,
      "chip": "ym2612"
    },
    {
      "channel": 4,
      "note": 90,
      "start": 1.2661,
      "duration": 0.1136,
      "velocity": 109,
      "chip": "ym2612"
    },
    {
      "channel": 4,
      "note": 97,
      "start": 1.3803,
      "duration": 0.0195,
      "velocity": 109,
      "chip": "ym2612"
    },
    {
      "channel": 1,
      "note": 42,
      "start": 1.3986,
      "duration": 0.0225,
      "velocity": 97,
      "chip": "ym2612"
    },
    {
      "channel": 3,
      "note": 42,
      "start": 1.3994,
      "duration": 0.0226,
      "velocity": 95,
      "chip": "ym2612"
    },
    {
      "channel": 4,
      "note": 97,
      "start": 1.4005,
      "duration": 0.0227,
      "velocity": 109,
      "chip": "ym2612"
    },
    {
      "channel": 1,
      "note": 44,
      "start": 1.4218,
      "duration": 0.0229,
      "velocity": 97,
      "chip": "ym2612"
    },
    {
      "channel": 3,
      "note": 44,
      "start": 1.4225,
      "duration": 0.0225,
      "velocity": 95,
      "chip": "ym2612"
    },
    {
      "channel": 4,
      "note": 92,
      "start": 1.4237,
      "duration": 0.022,
      "velocity": 109,
      "chip": "ym2612"
    },
    {
      "channel": 4,
      "note": 92,
      "start": 1.4463,
      "duration": 0.1192,
      "velocity": 109,
      "chip": "ym2612"
    },
    {
      "channel": 1,
      "note": 47,
      "start": 1.5641,
      "duration": 0.0241,
      "velocity": 97,
      "chip": "ym2612"
    },
    {
      "channel": 3,
      "note": 47,
      "start": 1.5649,
      "duration": 0.0236,
      "velocity": 95,
      "chip": "ym2612"
    },
    {
      "channel": 4,
      "note": 95,
      "start": 1.5661,
      "duration": 0.0231,
      "velocity": 109,
      "chip": "ym2612"
    },
    {
      "channel": 4,
      "note": 95,
      "start": 1.5898,
      "duration": 0.0221,
      "velocity": 109,
      "chip": "ym2612"
    },
    {
      "channel": 1,
      "note": 44,
      "start": 1.6107,
      "duration": 0.0217,
      "velocity": 97,
      "chip": "ym2612"
    },
    {
      "channel": 3,
      "note": 44,
      "start": 1.6114,
      "duration": 0.0213,
      "velocity": 95,
      "chip": "ym2612"
    },
    {
      "channel": 3,
      "note": 47,
      "start": 1.652,
      "duration": 0.0447,
      "velocity": 95,
      "chip": "ym2612"
    },
    {
      "channel": 4,
      "note": 97,
      "start": 1.6528,
      "duration": 0.0211,
      "velocity": 109,
      "chip": "ym2612"
    },
    {
      "channel": 1,
      "note": 54,
      "start": 1.6733,
      "duration": 0.0226,
      "velocity": 97,
      "chip": "ym2612"
    },
    {
      "channel": 4,
      "note": 92,
      "start": 1.6745,
      "duration": 0.0232,
      "velocity": 109,
      "chip": "ym2612"
    },
    {
      "channel": 1,
      "note": 56,
      "start": 1.6965,
      "duration": 0.0277,
      "velocity": 97,
      "chip": "ym2612"
    },
    {
      "channel": 3,
      "note": 44,
      "start": 1.6972,
      "duration": 0.0273,
      "velocity": 95,
      "chip": "ym2612"
    },
    {
      "channel": 4,
      "note": 92,
      "start": 1.6983,
      "duration": 0.0275,
      "velocity": 109,
      "chip": "ym2612"
    },
    {
      "channel": 3,
      "note": 47,
      "start": 1.7251,
      "duration": 0.1575,
      "velocity": 95,
      "chip": "ym2612"
    },
    {
      "channel": 4,
      "note": 95,
      "start": 1.7263,
      "duration": 0.1332,
      "velocity": 109,
      "chip": "ym2612"
    },
    {
      "channel": 1,
      "note": 59,
      "start": 1.8587,
      "duration": 0.0236,
      "velocity": 97,
      "chip": "ym2612"
    },
    {
      "channel": 4,
      "note": 95,
      "start": 1.8602,
      "duration": 0.0235,
      "velocity": 109,
      "chip": "ym2612"
    },
    {
      "channel": 3,
      "note": 44,
      "start": 1.8832,
      "duration": 0.0189,
      "velocity": 95,
      "chip": "ym2612"
    },
    {
      "channel": 1,
      "note": 56,
      "start": 1.9019,
      "duration": 0.0209,
      "velocity": 97,
      "chip": "ym2612"
    },
    {
      "channel": 3,
      "note": 47,
      "start": 1.9027,
      "duration": 0.0206,
      "velocity": 95,
      "chip": "ym2612"
    },
    {
      "channel": 3,
      "note": 49,
      "start": 1.9238,
      "duration": 0.0925,
      "velocity": 95,
      "chip": "ym2612"
    },
    {
      "channel": 4,
      "note": 90,
      "start": 1.9244,
      "duration": 0.0946,
      "velocity": 109,
      "chip": "ym2612"
    },
    {
      "channel": 4,
      "note": 97,
      "start": 2.0197,
      "duration": 0.0223,
      "velocity": 109,
      "chip": "ym2612"
    },
    {
      "channel": 1,
      "note": 66,
      "start": 2.0408,
      "duration": 0.0228,
      "velocity": 97,
      "chip": "ym2612"
    },
    {
      "channel": 3,
      "note": 42,
      "start": 2.0416,
      "duration": 0.0229,
      "velocity": 95,
      "chip": "ym2612"
    },
    {
      "channel": 4,
      "note": 97,
      "start": 2.0427,
      "duration": 0.023,
      "velocity": 109,
      "chip": "ym2612"
    },
    {
      "channel": 1,
      "note": 68,
      "start": 2.0643,
      "duration": 0.023,
      "velocity": 97,
      "chip": "ym2612"
    },
    {
      "channel": 3,
      "note": 44,
      "start": 2.065,
      "duration": 0.0226,
      "velocity": 95,
      "chip": "ym2612"
    },
    {
      "channel": 4,
      "note": 92,
      "start": 2.0662,
      "duration": 0.0221,
      "velocity": 109,
      "chip": "ym2612"
    },
    {
      "channel": 4,
      "note": 92,
      "start": 2.0889,
      "duration": 0.0202,
      "velocity": 109,
      "chip": "ym2612"
    },
    {
      "channel": 1,
      "note": 71,
      "start": 2.1077,
      "duration": 0.024,
      "velocity": 97,
      "chip": "ym2612"
    },
    {
      "channel": 3,
      "note": 47,
      "start": 2.1084,
      "duration": 0.0236,
      "velocity": 95,
      "chip": "ym2612"
    },
    {
      "channel": 4,
      "note": 95,
      "start": 2.1096,
      "duration": 0.0231,
      "velocity": 109,
      "chip": "ym2612"
    },
    {
      "channel": 4,
      "note": 95,
      "start": 2.1333,
      "duration": 0.0198,
      "velocity": 109,
      "chip": "ym2612"
    },
    {
      "channel": 1,
      "note": 68,
      "start": 2.1518,
      "duration": 0.0246,
      "velocity": 97,
      "chip": "ym2612"
    },
    {
      "channel": 3,
      "note": 44,
      "start": 2.1526,
      "duration": 0.0242,
      "velocity": 95,
      "chip": "ym2612"
    },
    {
      "channel": 3,
      "note": 47,
      "start": 2.1957,
      "duration": 0.0456,
      "velocity": 95,
      "chip": "ym2612"
    },
    {
      "channel": 4,
      "note": 97,
      "start": 2.1965,
      "duration": 0.0212,
      "velocity": 109,
      "chip": "ym2612"
    },
    {
      "channel": 1,
      "note": 78,
      "start": 2.217,
      "duration": 0.0234,
      "velocity": 97,
      "chip": "ym2612"
    },
    {
      "channel": 4,
      "note": 92,
      "start": 2.2182,
      "duration": 0.0241,
      "velocity": 109,
      "chip": "ym2612"
    },
    {
      "channel": 1,
      "note": 80,
      "start": 2.241,
      "duration": 0.0247,
      "velocity": 97,
      "chip": "ym2612"
    },
    {
      "channel": 3,
      "note": 44,
      "start": 2.2418,
      "duration": 0.0243,
      "velocity": 95,
      "chip": "ym2612"
    },
    {
      "channel": 4,
      "note": 92,
      "start": 2.2429,
      "duration": 0.0244,
      "velocity": 109,
      "chip": "ym2612"
    },
    {
      "channel": 0,
      "note": 37,
      "start": 2.2656,
      "duration": 0.1283,
      "velocity": 95,
      "chip": "ym2612"
    },
    {
      "channel": 3,
      "note": 47,
      "start": 2.2667,
      "duration": 0.0544,
      "velocity": 95,
      "chip": "ym2612"
    },
    {
      "channel": 4,
      "note": 95,
      "start": 2.2679,
      "duration": 0.0238,
      "velocity": 109,
      "chip": "ym2612"
    },
    {
      "channel": 1,
      "note": 83,
      "start": 2.2908,
      "duration": 0.0299,
      "velocity": 97,
      "chip": "ym2612"
    },
    {
      "channel": 4,
      "note": 95,
      "start": 2.2923,
      "duration": 0.0298,
      "velocity": 109,
      "chip": "ym2612"
    },
    {
      "channel": 3,
      "note": 44,
      "start": 2.3216,
      "duration": 0.0226,
      "velocity": 95,
      "chip": "ym2612"
    },
    {
      "channel": 1,
      "note": 80,
      "start": 2.344,
      "duration": 0.0246,
      "velocity": 97,
      "chip": "ym2612"
    },
    {
      "channel": 3,
      "note": 47,
      "start": 2.3447,
      "duration": 0.0242,
      "velocity": 95,
      "chip": "ym2612"
    },
    {
      "channel": 3,
      "note": 49,
      "start": 2.3695,
      "duration": 0.0324,
      "velocity": 95,
      "chip": "ym2612"
    },
    {
      "channel": 4,
      "note": 90,
      "start": 2.3702,
      "duration": 0.0345,
      "velocity": 109,
      "chip": "ym2612"
    },
    {
      "channel": 0,
      "note": 37,
      "start": 2.3946,
      "duration": 0.2634,
      "velocity": 95,
      "chip": "ym2612"
    },
    {
      "channel": 4,
      "note": 97,
      "start": 2.4054,
      "duration": 0.0224,
      "velocity": 109,
      "chip": "ym2612"
    },
    {
      "channel": 1,
      "note": 68,
      "start": 2.4259,
      "duration": 0.1756,
      "velocity": 105,
      "chip": "ym2612"
    },
    {
      "channel": 2,
      "note": 61,
      "start": 2.4266,
      "duration": 0.1755,
      "velocity": 105,
      "chip": "ym2612"
    },
    {
      "channel": 3,
      "note": 42,
      "start": 2.4273,
      "duration": 0.0276,
      "velocity": 95,
      "chip": "ym2612"
    },
    {
      "channel": 4,
      "note": 97,
      "start": 2.4283,
      "duration": 0.0278,
      "velocity": 109,
      "chip": "ym2612"
    },
    {
      "channel": 3,
      "note": 44,
      "start": 2.4554,
      "duration": 0.0307,
      "velocity": 95,
      "chip": "ym2612"
    },
    {
      "channel": 4,
      "note": 92,
      "start": 2.4566,
      "duration": 0.0302,
      "velocity": 109,
      "chip": "ym2612"
    },
    {
      "channel": 4,
      "note": 92,
      "start": 2.4874,
      "duration": 0.1164,
      "velocity": 109,
      "chip": "ym2612"
    },
    {
      "channel": 1,
      "note": 68,
      "start": 2.602,
      "duration": 0.0567,
      "velocity": 105,
      "chip": "ym2612"
    },
    {
      "channel": 2,
      "note": 61,
      "start": 2.6025,
      "duration": 0.0567,
      "velocity": 105,
      "chip": "ym2612"
    },
    {
      "channel": 3,
      "note": 47,
      "start": 2.6032,
      "duration": 0.0283,
      "velocity": 95,
      "chip": "ym2612"
    },
    {
      "channel": 4,
      "note": 95,
      "start": 2.6044,
      "duration": 0.0277,
      "velocity": 109,
      "chip": "ym2612"
    },
    {
      "channel": 4,
      "note": 95,
      "start": 2.6328,
      "duration": 0.0281,
      "velocity": 109,
      "chip": "ym2612"
    },
    {
      "channel": 0,
      "note": 37,
      "start": 2.6585,
      "duration": 0.0522,
      "velocity": 95,
      "chip": "ym2612"
    },
    {
      "channel": 1,
      "note": 68,
      "start": 2.6591,
      "duration": 0.0523,
      "velocity": 105,
      "chip": "ym2612"
    },
    {
      "channel": 2,
      "note": 61,
      "start": 2.6597,
      "duration": 0.0524,
      "velocity": 105,
      "chip": "ym2612"
    },
    {
      "channel": 3,
      "note": 44,
      "start": 2.6604,
      "duration": 0.0261,
      "velocity": 95,
      "chip": "ym2612"
    },
    {
      "channel": 0,
      "note": 37,
      "start": 2.7112,
      "duration": 0.0876,
      "velocity": 95,
      "chip": "ym2612"
    },
    {
      "channel": 1,
      "note": 66,
      "start": 2.712,
      "duration": 0.207,
      "velocity": 105,
      "chip": "ym2612"
    },
    {
      "channel": 2,
      "note": 59,
      "start": 2.7127,
      "duration": 0.2068,
      "velocity": 105,
      "chip": "ym2612"
    },
    {
      "channel": 3,
      "note": 47,
      "start": 2.7134,
      "duration": 0.0584,
      "velocity": 95,
      "chip": "ym2612"
    },
    {
      "channel": 4,
      "note": 97,
      "start": 2.7143,
      "duration": 0.031,
      "velocity": 109,
      "chip": "ym2612"
    },
    {
      "channel": 4,
      "note": 92,
      "start": 2.7459,
      "duration": 0.027,
      "velocity": 109,
      "chip": "ym2612"
    },
    {
      "channel": 3,
      "note": 44,
      "start": 2.7724,
      "duration": 0.0278,
      "velocity": 95,
      "chip": "ym2612"
    },
    {
      "channel": 4,
      "note": 92,
      "start": 2.7735,
      "duration": 0.028,
      "velocity": 109,
      "chip": "ym2612"
    },
    {
      "channel": 0,
      "note": 49,
      "start": 2.7995,
      "duration": 0.1192,
      "velocity": 95,
      "chip": "ym2612"
    },
    {
      "channel": 3,
      "note": 47,
      "start": 2.8009,
      "duration": 0.1458,
      "velocity": 95,
      "chip": "ym2612"
    },
    {
      "channel": 4,
      "note": 95,
      "start": 2.8021,
      "duration": 0.1188,
      "velocity": 109,
      "chip": "ym2612"
    },
    {
      "channel": 1,
      "note": 66,
      "start": 2.9195,
      "duration": 0.0768,
      "velocity": 105,
      "chip": "ym2612"
    },
    {
      "channel": 2,
      "note": 59,
      "start": 2.92,
      "duration": 0.077,
      "velocity": 105,
      "chip": "ym2612"
    },
    {
      "channel": 4,
      "note": 95,
      "start": 2.9215,
      "duration": 0.0262,
      "velocity": 109,
      "chip": "ym2612"
    },
    {
      "channel": 3,
      "note": 44,
      "start": 2.9472,
      "duration": 0.0233,
      "velocity": 95,
      "chip": "ym2612"
    },
    {
      "channel": 3,
      "note": 47,
      "start": 2.971,
      "duration": 0.0268,
      "velocity": 95,
      "chip": "ym2612"
    },
    {
      "channel": 1,
      "note": 68,
      "start": 2.9969,
      "duration": 0.0954,
      "velocity": 105,
      "chip": "ym2612"
    },
    {
      "channel": 2,
      "note": 61,
      "start": 2.9977,
      "duration": 0.095,
      "velocity": 105,
      "chip": "ym2612"
    },
    {
      "channel": 3,
      "note": 49,
      "start": 2.9984,
      "duration": 0.0947,
      "velocity": 95,
      "chip": "ym2612"
    },
    {
      "channel": 4,
      "note": 90,
      "start": 2.9991,
      "duration": 0.0968,
      "velocity": 109,
      "chip": "ym2612"
    },
    {
      "channel": 0,
      "note": 37,
      "start": 3.0922,
      "duration": 0.0241,
      "velocity": 95,
      "chip": "ym2612"
    },
    {
      "channel": 4,
      "note": 97,
      "start": 3.0965,
      "duration": 0.0229,
      "velocity": 109,
      "chip": "ym2612"
    },
    {
      "channel": 0,
      "note": 37,
      "start": 3.1168,
      "duration": 0.1424,
      "velocity": 95,
      "chip": "ym2612"
    },
    {
      "channel": 1,
      "note": 68,
      "start": 3.1175,
      "duration": 0.0829,
      "velocity": 105,
      "chip": "ym2612"
    },
    {
      "channel": 2,
      "note": 61,
      "start": 3.1183,
      "duration": 0.0828,
      "velocity": 105,
      "chip": "ym2612"
    },
    {
      "channel": 3,
      "note": 42,
      "start": 3.119,
      "duration": 0.0279,
      "velocity": 95,
      "chip": "ym2612"
    },
    {
      "channel": 4,
      "note": 97,
      "start": 3.1201,
      "duration": 0.028,
      "velocity": 109,
      "chip": "ym2612"
    },
    {
      "channel": 3,
      "note": 44,
      "start": 3.1475,
      "duration": 0.0274,
      "velocity": 95,
      "chip": "ym2612"
    },
    {
      "channel": 4,
      "note": 92,
      "start": 3.1487,
      "duration": 0.0268,
      "velocity": 109,
      "chip": "ym2612"
    },
    {
      "channel": 4,
      "note": 92,
      "start": 3.1761,
      "duration": 0.0267,
      "velocity": 109,
      "chip": "ym2612"
    },
    {
      "channel": 1,
      "note": 68,
      "start": 3.201,
      "duration": 0.0588,
      "velocity": 105,
      "chip": "ym2612"
    },
    {
      "channel": 2,
      "note": 61,
      "start": 3.2015,
      "duration": 0.0589,
      "velocity": 105,
      "chip": "ym2612"
    },
    {
      "channel": 3,
      "note": 47,
      "start": 3.2022,
      "duration": 0.0316,
      "velocity": 95,
      "chip": "ym2612"
    },
    {
      "channel": 4,
      "note": 95,
      "start": 3.2034,
      "duration": 0.0311,
      "velocity": 109,
      "chip": "ym2612"
    },
    {
      "channel": 4,
      "note": 95,
      "start": 3.2351,
      "duration": 0.0269,
      "velocity": 109,
      "chip": "ym2612"
    },
    {
      "channel": 0,
      "note": 37,
      "start": 3.2596,
      "duration": 0.0522,
      "velocity": 95,
      "chip": "ym2612"
    },
    {
      "channel": 1,
      "note": 68,
      "start": 3.2602,
      "duration": 0.0523,
      "velocity": 105,
      "chip": "ym2612"
    },
    {
      "channel": 2,
      "note": 61,
      "start": 3.2608,
      "duration": 0.0524,
      "velocity": 105,
      "chip": "ym2612"
    },
    {
      "channel": 3,
      "note": 44,
      "start": 3.2615,
      "duration": 0.0261,
      "velocity": 95,
      "chip": "ym2612"
    },
    {
      "channel": 0,
      "note": 37,
      "start": 3.3124,
      "duration": 0.0876,
      "velocity": 95,
      "chip": "ym2612"
    },
    {
      "channel": 1,
      "note": 71,
      "start": 3.3131,
      "duration": 0.2069,
      "velocity": 105,
      "chip": "ym2612"
    },
    {
      "channel": 2,
      "note": 64,
      "start": 3.3139,
      "duration": 0.2068,
      "velocity": 105,
      "chip": "ym2612"
    },
    {
      "channel": 3,
      "note": 47,
      "start": 3.3146,
      "duration": 0.0584,
      "velocity": 95,
      "chip": "ym2612"
    },
    {
      "channel": 4,
      "note": 97,
      "start": 3.3154,
      "duration": 0.0277,
      "velocity": 109,
      "chip": "ym2612"
    },
    {
      "channel": 4,
      "note": 92,
      "start": 3.3437,
      "duration": 0.0303,
      "velocity": 109,
      "chip": "ym2612"
    },
    {
      "channel": 3,
      "note": 44,
      "start": 3.3736,
      "duration": 0.0278,
      "velocity": 95,
      "chip": "ym2612"
    },
    {
      "channel": 4,
      "note": 92,
      "start": 3.3747,
      "duration": 0.0279,
      "velocity": 109,
      "chip": "ym2612"
    },
    {
      "channel": 0,
      "note": 49,
      "start": 3.4006,
      "duration": 0.1191,
      "velocity": 95,
      "chip": "ym2612"
    },
    {
      "channel": 3,
      "note": 47,
      "start": 3.402,
      "duration": 0.1459,
      "velocity": 95,
      "chip": "ym2612"
    },
    {
      "channel": 4,
      "note": 95,
      "start": 3.4032,
      "duration": 0.1188,
      "velocity": 109,
      "chip": "ym2612"
    },
    {
      "channel": 1,
      "note": 71,
      "start": 3.5205,
      "duration": 0.075,
      "velocity": 105,
      "chip": "ym2612"
    },
    {
      "channel": 2,
      "note": 64,
      "start": 3.5211,
      "duration": 0.0752,
      "velocity": 105,
      "chip": "ym2612"
    },
    {
      "channel": 4,
      "note": 95,
      "start": 3.5225,
      "duration": 0.0264,
      "velocity": 109,
      "chip": "ym2612"
    },
    {
      "channel": 3,
      "note": 44,
      "start": 3.5485,
      "duration": 0.0235,
      "velocity": 95,
      "chip": "ym2612"
    },
    {
      "channel": 3,
      "note": 47,
      "start": 3.5725,
      "duration": 0.0246,
      "velocity": 95,
      "chip": "ym2612"
    },
    {
      "channel": 0,
      "note": 49,
      "start": 3.5954,
      "duration": 0.0978,
      "velocity": 95,
      "chip": "ym2612"
    },
    {
      "channel": 1,
      "note": 68,
      "start": 3.5962,
      "duration": 0.0978,
      "velocity": 105,
      "chip": "ym2612"
    },
    {
      "channel": 2,
      "note": 61,
      "start": 3.5969,
      "duration": 0.0975,
      "velocity": 105,
      "chip": "ym2612"
    },
    {
      "channel": 3,
      "note": 49,
      "start": 3.5976,
      "duration": 0.0972,
      "velocity": 95,
      "chip": "ym2612"
    },
    {
      "channel": 4,
      "note": 90,
      "start": 3.5983,
      "duration": 0.0993,
      "velocity": 109,
      "chip": "ym2612"
    },
    {
      "channel": 0,
      "note": 37,
      "start": 3.6938,
      "duration": 0.2492,
      "velocity": 95,
      "chip": "ym2612"
    },
    {
      "channel": 4,
      "note": 97,
      "start": 3.6983,
      "duration": 0.0224,
      "velocity": 109,
      "chip": "ym2612"
    },
    {
      "channel": 1,
      "note": 68,
      "start": 3.7188,
      "duration": 0.1652,
      "velocity": 105,
      "chip": "ym2612"
    },
    {
      "channel": 2,
      "note": 61,
      "start": 3.7195,
      "duration": 0.1651,
      "velocity": 105,
      "chip": "ym2612"
    },
    {
      "channel": 3,
      "note": 42,
      "start": 3.7202,
      "duration": 0.0277,
      "velocity": 95,
      "chip": "ym2612"
    },
    {
      "channel": 4,
      "note": 97,
      "start": 3.7212,
      "duration": 0.0278,
      "velocity": 109,
      "chip": "ym2612"
    },
    {
      "channel": 3,
      "note": 44,
      "start": 3.7484,
      "duration": 0.0274,
      "velocity": 95,
      "chip": "ym2612"
    },
    {
      "channel": 4,
      "note": 92,
      "start": 3.7496,
      "duration": 0.0269,
      "velocity": 109,
      "chip": "ym2612"
    },
    {
      "channel": 4,
      "note": 92,
      "start": 3.7771,
      "duration": 0.1093,
      "velocity": 109,
      "chip": "ym2612"
    },
    {
      "channel": 1,
      "note": 68,
      "start": 3.8845,
      "duration": 0.059,
      "velocity": 105,
      "chip": "ym2612"
    },
    {
      "channel": 2,
      "note": 61,
      "start": 3.8851,
      "duration": 0.0591,
      "velocity": 105,
      "chip": "ym2612"
    },
    {
      "channel": 3,
      "note": 47,
      "start": 3.8858,
      "duration": 0.0283,
      "velocity": 95,
      "chip": "ym2612"
    },
    {
      "channel": 4,
      "note": 95,
      "start": 3.887,
      "duration": 0.0278,
      "velocity": 109,
      "chip": "ym2612"
    },
    {
      "channel": 4,
      "note": 95,
      "start": 3.9154,
      "duration": 0.0304,
      "velocity": 109,
      "chip": "ym2612"
    },
    {
      "channel": 0,
      "note": 37,
      "start": 3.9434,
      "duration": 0.0522,
      "velocity": 95,
      "chip": "ym2612"
    },
    {
      "channel": 1,
      "note": 68,
      "start": 3.944,
      "duration": 0.0523,
      "velocity": 105,
      "chip": "ym2612"
    },
    {
      "channel": 2,
      "note": 61,
      "start": 3.9446,
      "duration": 0.0524,
      "velocity": 105,
      "chip": "ym2612"
    },
    {
      "channel": 3,
      "note": 44,
      "start": 3.9454,
      "duration": 0.0263,
      "velocity": 95,
      "chip": "ym2612"
    },
    {
      "channel": 0,
      "note": 37,
      "start": 3.9962,
      "duration": 0.0842,
      "velocity": 95,
      "chip": "ym2612"
    },
    {
      "channel": 1,
      "note": 66,
      "start": 3.9969,
      "duration": 0.2069,
      "velocity": 105,
      "chip": "ym2612"
    },
    {
      "channel": 2,
      "note": 59,
      "start": 3.9977,
      "duration": 0.2067,
      "velocity": 105,
      "chip": "ym2612"
    },
    {
      "channel": 3,
      "note": 47,
      "start": 3.9984,
      "duration": 0.0551,
      "velocity": 95,
      "chip": "ym2612"
    },
    {
      "channel": 4,
      "note": 97,
      "start": 3.9992,
      "duration": 0.0277,
      "velocity": 109,
      "chip": "ym2612"
    },
    {
      "channel": 4,
      "note": 92,
      "start": 4.0275,
      "duration": 0.027,
      "velocity": 109,
      "chip": "ym2612"
    },
    {
      "channel": 3,
      "note": 44,
      "start": 4.054,
      "duration": 0.0278,
      "velocity": 95,
      "chip": "ym2612"
    },
    {
      "channel": 4,
      "note": 92,
      "start": 4.0551,
      "duration": 0.0279,
      "velocity": 109,
      "chip": "ym2612"
    },
    {
      "channel": 0,
      "note": 49,
      "start": 4.081,
      "duration": 0.1225,
      "velocity": 95,
      "chip": "ym2612"
    },
    {
      "channel": 3,
      "note": 47,
      "start": 4.0824,
      "duration": 0.1492,
      "velocity": 95,
      "chip": "ym2612"
    },
    {
      "channel": 4,
      "note": 95,
      "start": 4.0836,
      "duration": 0.1221,
      "velocity": 109,
      "chip": "ym2612"
    },
    {
      "channel": 1,
      "note": 66,
      "start": 4.2043,
      "duration": 0.0741,
      "velocity": 105,
      "chip": "ym2612"
    },
    {
      "channel": 2,
      "note": 59,
      "start": 4.2049,
      "duration": 0.0743,
      "velocity": 105,
      "chip": "ym2612"
    },
    {
      "channel": 4,
      "note": 95,
      "start": 4.2063,
      "duration": 0.0263,
      "velocity": 109,
      "chip": "ym2612"
    },
    {
      "channel": 3,
      "note": 44,
      "start": 4.2322,
      "duration": 0.0233,
      "velocity": 95,
      "chip": "ym2612"
    },
    {
      "channel": 3,
      "note": 47,
      "start": 4.256,
      "duration": 0.0239,
      "velocity": 95,
      "chip": "ym2612"
    },
    {
      "channel": 1,
      "note": 68,
      "start": 4.2791,
      "duration": 0.0815,
      "velocity": 105,
      "chip": "ym2612"
    },
    {
      "channel": 2,
      "note": 61,
      "start": 4.2798,
      "duration": 0.0811,
      "velocity": 105,
      "chip": "ym2612"
    },
    {
      "channel": 3,
      "note": 49,
      "start": 4.2805,
      "duration": 0.0808,
      "velocity": 95,
      "chip": "ym2612"
    },
    {
      "channel": 4,
      "note": 90,
      "start": 4.2812,
      "duration": 0.0829,
      "velocity": 109,
      "chip": "ym2612"
    },
    {
      "channel": 0,
      "note": 37,
      "start": 4.3605,
      "duration": 0.0241,
      "velocity": 95,
      "chip": "ym2612"
    },
    {
      "channel": 4,
      "note": 97,
      "start": 4.3648,
      "duration": 0.023,
      "velocity": 109,
      "chip": "ym2612"
    },
    {
      "channel": 0,
      "note": 37,
      "start": 4.385,
      "duration": 0.1437,
      "velocity": 95,
      "chip": "ym2612"
    },
    {
      "channel": 1,
      "note": 68,
      "start": 4.3858,
      "duration": 0.0864,
      "velocity": 105,
      "chip": "ym2612"
    },
    {
      "channel": 2,
      "note": 61,
      "start": 4.3866,
      "duration": 0.0862,
      "velocity": 105,
      "chip": "ym2612"
    },
    {
      "channel": 3,
      "note": 42,
      "start": 4.3873,
      "duration": 0.0314,
      "velocity": 95,
      "chip": "ym2612"
    },
    {
      "channel": 4,
      "note": 97,
      "start": 4.3883,
      "duration": 0.0315,
      "velocity": 109,
      "chip": "ym2612"
    },
    {
      "channel": 3,
      "note": 44,
      "start": 4.4192,
      "duration": 0.0275,
      "velocity": 95,
      "chip": "ym2612"
    },
    {
      "channel": 4,
      "note": 92,
      "start": 4.4204,
      "duration": 0.0269,
      "velocity": 109,
      "chip": "ym2612"
    },
    {
      "channel": 4,
      "note": 92,
      "start": 4.4479,
      "duration": 0.0267,
      "velocity": 109,
      "chip": "ym2612"
    },
    {
      "channel": 1,
      "note": 68,
      "start": 4.4727,
      "duration": 0.0567,
      "velocity": 105,
      "chip": "ym2612"
    },
    {
      "channel": 2,
      "note": 61,
      "start": 4.4732,
      "duration": 0.0567,
      "velocity": 105,
      "chip": "ym2612"
    },
    {
      "channel": 3,
      "note": 47,
      "start": 4.4739,
      "duration": 0.0283,
      "velocity": 95,
      "chip": "ym2612"
    },
    {
      "channel": 4,
      "note": 95,
      "start": 4.4751,
      "duration": 0.0278,
      "velocity": 109,
      "chip": "ym2612"
    },
    {
      "channel": 4,
      "note": 95,
      "start": 4.5035,
      "duration": 0.028,
      "velocity": 109,
      "chip": "ym2612"
    },
    {
      "channel": 0,
      "note": 37,
      "start": 4.5292,
      "duration": 0.0538,
      "velocity": 95,
      "chip": "ym2612"
    },
    {
      "channel": 1,
      "note": 68,
      "start": 4.5298,
      "duration": 0.0538,
      "velocity": 105,
      "chip": "ym2612"
    },
    {
      "channel": 2,
      "note": 61,
      "start": 4.5304,
      "duration": 0.054,
      "velocity": 105,
      "chip": "ym2612"
    },
    {
      "channel": 3,
      "note": 44,
      "start": 4.5311,
      "duration": 0.0261,
      "velocity": 95,
      "chip": "ym2612"
    },
    {
      "channel": 0,
      "note": 37,
      "start": 4.5834,
      "duration": 0.0842,
      "velocity": 95,
      "chip": "ym2612"
    },
    {
      "channel": 1,
      "note": 71,
      "start": 4.5842,
      "duration": 0.1902,
      "velocity": 105,
      "chip": "ym2612"
    },
    {
      "channel": 2,
      "note": 64,
      "start": 4.585,
      "duration": 0.19,
      "velocity": 105,
      "chip": "ym2612"
    },
    {
      "channel": 3,
      "note": 47,
      "start": 4.5857,
      "duration": 0.055,
      "velocity": 95,
      "chip": "ym2612"
    },
    {
      "channel": 4,
      "note": 97,
      "start": 4.5866,
      "duration": 0.0277,
      "velocity": 109,
      "chip": "ym2612"
    },
    {
      "channel": 4,
      "note": 92,
      "start": 4.6148,
      "duration": 0.0269,
      "velocity": 109,
      "chip": "ym2612"
    },
    {
      "channel": 3,
      "note": 44,
      "start": 4.6412,
      "duration": 0.0279,
      "velocity": 95,
      "chip": "ym2612"
    },
    {
      "channel": 4,
      "note": 92,
      "start": 4.6423,
      "duration": 0.028,
      "velocity": 109,
      "chip": "ym2612"
    },
    {
      "channel": 0,
      "note": 49,
      "start": 4.6683,
      "duration": 0.1058,
      "velocity": 95,
      "chip": "ym2612"
    },
    {
      "channel": 3,
      "note": 47,
      "start": 4.6697,
      "duration": 0.1326,
      "velocity": 95,
      "chip": "ym2612"
    },
    {
      "channel": 4,
      "note": 95,
      "start": 4.6709,
      "duration": 0.1054,
      "velocity": 109,
      "chip": "ym2612"
    },
    {
      "channel": 1,
      "note": 71,
      "start": 4.7749,
      "duration": 0.0778,
      "velocity": 105,
      "chip": "ym2612"
    },
    {
      "channel": 2,
      "note": 64,
      "start": 4.7755,
      "duration": 0.078,
      "velocity": 105,
      "chip": "ym2612"
    },
    {
      "channel": 4,
      "note": 95,
      "start": 4.7769,
      "duration": 0.0264,
      "velocity": 109,
      "chip": "ym2612"
    },
    {
      "channel": 3,
      "note": 44,
      "start": 4.8028,
      "duration": 0.0263,
      "velocity": 95,
      "chip": "ym2612"
    },
    {
      "channel": 3,
      "note": 47,
      "start": 4.8298,
      "duration": 0.0245,
      "velocity": 95,
      "chip": "ym2612"
    },
    {
      "channel": 0,
      "note": 49,
      "start": 4.8526,
      "duration": 0.095,
      "velocity": 95,
      "chip": "ym2612"
    },
    {
      "channel": 1,
      "note": 68,
      "start": 4.8534,
      "duration": 0.0955,
      "velocity": 105,
      "chip": "ym2612"
    },
    {
      "channel": 2,
      "note": 61,
      "start": 4.8541,
      "duration": 0.0954,
      "velocity": 105,
      "chip": "ym2612"
    },
    {
      "channel": 3,
      "note": 49,
      "start": 4.8548,
      "duration": 0.0954,
      "velocity": 95,
      "chip": "ym2612"
    },
    {
      "channel": 4,
      "note": 90,
      "start": 4.8555,
      "duration": 0.0954,
      "velocity": 109,
      "chip": "ym2612"
    },
    {
      "channel": 0,
      "note": 38,
      "start": 4.9483,
      "duration": 0.2634,
      "velocity": 95,
      "chip": "ym2612"
    },
    {
      "channel": 4,
      "note": 98,
      "start": 4.9516,
      "duration": 0.0231,
      "velocity": 109,
      "chip": "ym2612"
    },
    {
      "channel": 1,
      "note": 69,
      "start": 4.9727,
      "duration": 0.1825,
      "velocity": 105,
      "chip": "ym2612"
    },
    {
      "channel": 2,
      "note": 62,
      "start": 4.9734,
      "duration": 0.1824,
      "velocity": 105,
      "chip": "ym2612"
    },
    {
      "channel": 3,
      "note": 43,
      "start": 4.9741,
      "duration": 0.0276,
      "velocity": 95,
      "chip": "ym2612"
    },
    {
      "channel": 4,
      "note": 98,
      "start": 4.9752,
      "duration": 0.0277,
      "velocity": 109,
      "chip": "ym2612"
    },
    {
      "channel": 3,
      "note": 45,
      "start": 5.0023,
      "duration": 0.0274,
      "velocity": 95,
      "chip": "ym2612"
    },
    {
      "channel": 4,
      "note": 93,
      "start": 5.0035,
      "duration": 0.0268,
      "velocity": 109,
      "chip": "ym2612"
    },
    {
      "channel": 4,
      "note": 93,
      "start": 5.031,
      "duration": 0.1266,
      "velocity": 109,
      "chip": "ym2612"
    },
    {
      "channel": 1,
      "note": 69,
      "start": 5.1557,
      "duration": 0.0566,
      "velocity": 105,
      "chip": "ym2612"
    },
    {
      "channel": 2,
      "note": 62,
      "start": 5.1563,
      "duration": 0.0567,
      "velocity": 105,
      "chip": "ym2612"
    },
    {
      "channel": 3,
      "note": 48,
      "start": 5.157,
      "duration": 0.0283,
      "velocity": 95,
      "chip": "ym2612"
    },
    {
      "channel": 4,
      "note": 96,
      "start": 5.1582,
      "duration": 0.0277,
      "velocity": 109,
      "chip": "ym2612"
    },
    {
      "channel": 4,
      "note": 96,
      "start": 5.1865,
      "duration": 0.0281,
      "velocity": 109,
      "chip": "ym2612"
    },
    {
      "channel": 0,
      "note": 38,
      "start": 5.2122,
      "duration": 0.0522,
      "velocity": 95,
      "chip": "ym2612"
    },
    {
      "channel": 1,
      "note": 69,
      "start": 5.2128,
      "duration": 0.0523,
      "velocity": 105,
      "chip": "ym2612"
    },
    {
      "channel": 2,
      "note": 62,
      "start": 5.2134,
      "duration": 0.0524,
      "velocity": 105,
      "chip": "ym2612"
    },
    {
      "channel": 3,
      "note": 45,
      "start": 5.2141,
      "duration": 0.0261,
      "velocity": 95,
      "chip": "ym2612"
    },
    {
      "channel": 0,
      "note": 38,
      "start": 5.2649,
      "duration": 0.0876,
      "velocity": 95,
      "chip": "ym2612"
    },
    {
      "channel": 1,
      "note": 67,
      "start": 5.2657,
      "duration": 0.2069,
      "velocity": 105,
      "chip": "ym2612"
    },
    {
      "channel": 2,
      "note": 60,
      "start": 5.2665,
      "duration": 0.2068,
      "velocity": 105,
      "chip": "ym2612"
    },
    {
      "channel": 3,
      "note": 48,
      "start": 5.2672,
      "duration": 0.0585,
      "velocity": 95,
      "chip": "ym2612"
    },
    {
      "channel": 4,
      "note": 98,
      "start": 5.268,
      "duration": 0.031,
      "velocity": 109,
      "chip": "ym2612"
    },
    {
      "channel": 4,
      "note": 93,
      "start": 5.2996,
      "duration": 0.0271,
      "velocity": 109,
      "chip": "ym2612"
    },
    {
      "channel": 3,
      "note": 45,
      "start": 5.3262,
      "duration": 0.0278,
      "velocity": 95,
      "chip": "ym2612"
    },
    {
      "channel": 4,
      "note": 93,
      "start": 5.3273,
      "duration": 0.0279,
      "velocity": 109,
      "chip": "ym2612"
    },
    {
      "channel": 0,
      "note": 50,
      "start": 5.3532,
      "duration": 0.1191,
      "velocity": 95,
      "chip": "ym2612"
    },
    {
      "channel": 3,
      "note": 48,
      "start": 5.3546,
      "duration": 0.1458,
      "velocity": 95,
      "chip": "ym2612"
    },
    {
      "channel": 4,
      "note": 96,
      "start": 5.3558,
      "duration": 0.1188,
      "velocity": 109,
      "chip": "ym2612"
    },
    {
      "channel": 1,
      "note": 67,
      "start": 5.4732,
      "duration": 0.0769,
      "velocity": 105,
      "chip": "ym2612"
    },
    {
      "channel": 2,
      "note": 60,
      "start": 5.4737,
      "duration": 0.0771,
      "velocity": 105,
      "chip": "ym2612"
    },
    {
      "channel": 4,
      "note": 96,
      "start": 5.4752,
      "duration": 0.0262,
      "velocity": 109,
      "chip": "ym2612"
    },
    {
      "channel": 3,
      "note": 45,
      "start": 5.5009,
      "duration": 0.0233,
      "velocity": 95,
      "chip": "ym2612"
    },
    {
      "channel": 3,
      "note": 48,
      "start": 5.5247,
      "duration": 0.0268,
      "velocity": 95,
      "chip": "ym2612"
    },
    {
      "channel": 1,
      "note": 69,
      "start": 5.5507,
      "duration": 0.0953,
      "velocity": 105,
      "chip": "ym2612"
    },
    {
      "channel": 2,
      "note": 62,
      "start": 5.5514,
      "duration": 0.0949,
      "velocity": 105,
      "chip": "ym2612"
    },
    {
      "channel": 3,
      "note": 50,
      "start": 5.5521,
      "duration": 0.0946,
      "velocity": 95,
      "chip": "ym2612"
    },
    {
      "channel": 4,
      "note": 91,
      "start": 5.5528,
      "duration": 0.0945,
      "velocity": 109,
      "chip": "ym2612"
    },
    {
      "channel": 0,
      "note": 38,
      "start": 5.6459,
      "duration": 0.0222,
      "velocity": 95,
      "chip": "ym2612"
    },
    {
      "channel": 4,
      "note": 98,
      "start": 5.648,
      "duration": 0.0233,
      "velocity": 109,
      "chip": "ym2612"
    },
    {
      "channel": 0,
      "note": 38,
      "start": 5.6686,
      "duration": 0.1424,
      "velocity": 95,
      "chip": "ym2612"
    },
    {
      "channel": 1,
      "note": 69,
      "start": 5.6694,
      "duration": 0.0829,
      "velocity": 105,
      "chip": "ym2612"
    },
    {
      "channel": 2,
      "note": 62,
      "start": 5.6701,
      "duration": 0.0828,
      "velocity": 105,
      "chip": "ym2612"
    },
    {
      "channel": 3,
      "note": 43,
      "start": 5.6708,
      "duration": 0.028,
      "velocity": 95,
      "chip": "ym2612"
    },
    {
      "channel": 4,
      "note": 98,
      "start": 5.6719,
      "duration": 0.0281,
      "velocity": 109,
      "chip": "ym2612"
    },
    {
      "channel": 3,
      "note": 45,
      "start": 5.6993,
      "duration": 0.0275,
      "velocity": 95,
      "chip": "ym2612"
    },
    {
      "channel": 4,
      "note": 93,
      "start": 5.7005,
      "duration": 0.027,
      "velocity": 109,
      "chip": "ym2612"
    },
    {
      "channel": 4,
      "note": 93,
      "start": 5.7281,
      "duration": 0.0266,
      "velocity": 109,
      "chip": "ym2612"
    },
    {
      "channel": 1,
      "note": 69,
      "start": 5.7528,
      "duration": 0.0588,
      "velocity": 105,
      "chip": "ym2612"
    },
    {
      "channel": 2,
      "note": 62,
      "start": 5.7534,
      "duration": 0.0589,
      "velocity": 105,
      "chip": "ym2612"
    },
    {
      "channel": 3,
      "note": 48,
      "start": 5.7541,
      "duration": 0.0316,
      "velocity": 95,
      "chip": "ym2612"
    },
    {
      "channel": 4,
      "note": 96,
      "start": 5.7553,
      "duration": 0.0311,
      "velocity": 109,
      "chip": "ym2612"
    },
    {
      "channel": 4,
      "note": 96,
      "start": 5.787,
      "duration": 0.0269,
      "velocity": 109,
      "chip": "ym2612"
    },
    {
      "channel": 0,
      "note": 38,
      "start": 5.8115,
      "duration": 0.0522,
      "velocity": 95,
      "chip": "ym2612"
    },
    {
      "channel": 1,
      "note": 69,
      "start": 5.8121,
      "duration": 0.0523,
      "velocity": 105,
      "chip": "ym2612"
    },
    {
      "channel": 2,
      "note": 62,
      "start": 5.8127,
      "duration": 0.0524,
      "velocity": 105,
      "chip": "ym2612"
    },
    {
      "channel": 3,
      "note": 45,
      "start": 5.8134,
      "duration": 0.0261,
      "velocity": 95,
      "chip": "ym2612"
    },
    {
      "channel": 0,
      "note": 38,
      "start": 5.8643,
      "duration": 0.0875,
      "velocity": 95,
      "chip": "ym2612"
    },
    {
      "channel": 1,
      "note": 72,
      "start": 5.865,
      "duration": 0.2069,
      "velocity": 105,
      "chip": "ym2612"
    },
    {
      "channel": 2,
      "note": 65,
      "start": 5.8658,
      "duration": 0.2067,
      "velocity": 105,
      "chip": "ym2612"
    },
    {
      "channel": 3,
      "note": 48,
      "start": 5.8665,
      "duration": 0.0551,
      "velocity": 95,
      "chip": "ym2612"
    },
    {
      "channel": 4,
      "note": 98,
      "start": 5.8673,
      "duration": 0.0277,
      "velocity": 109,
      "chip": "ym2612"
    },
    {
      "channel": 4,
      "note": 93,
      "start": 5.8956,
      "duration": 0.027,
      "velocity": 109,
      "chip": "ym2612"
    },
    {
      "channel": 3,
      "note": 45,
      "start": 5.9221,
      "duration": 0.0311,
      "velocity": 95,
      "chip": "ym2612"
    },
    {
      "channel": 4,
      "note": 93,
      "start": 5.9232,
      "duration": 0.0313,
      "velocity": 109,
      "chip": "ym2612"
    },
    {
      "channel": 0,
      "note": 50,
      "start": 5.9524,
      "duration": 0.1191,
      "velocity": 95,
      "chip": "ym2612"
    },
    {
      "channel": 3,
      "note": 48,
      "start": 5.9539,
      "duration": 0.1459,
      "velocity": 95,
      "chip": "ym2612"
    },
    {
      "channel": 4,
      "note": 96,
      "start": 5.9551,
      "duration": 0.1188,
      "velocity": 109,
      "chip": "ym2612"
    },
    {
      "channel": 1,
      "note": 72,
      "start": 6.0724,
      "duration": 0.0748,
      "velocity": 105,
      "chip": "ym2612"
    },
    {
      "channel": 2,
      "note": 65,
      "start": 6.073,
      "duration": 0.075,
      "velocity": 105,
      "chip": "ym2612"
    },
    {
      "channel": 4,
      "note": 96,
      "start": 6.0744,
      "duration": 0.0264,
      "velocity": 109,
      "chip": "ym2612"
    },
    {
      "channel": 3,
      "note": 45,
      "start": 6.1003,
      "duration": 0.0234,
      "velocity": 95,
      "chip": "ym2612"
    },
    {
      "channel": 3,
      "note": 48,
      "start": 6.1242,
      "duration": 0.0245,
      "velocity": 95,
      "chip": "ym2612"
    },
    {
      "channel": 0,
      "note": 50,
      "start": 6.1471,
      "duration": 0.0812,
      "velocity": 95,
      "chip": "ym2612"
    },
    {
      "channel": 1,
      "note": 69,
      "start": 6.1479,
      "duration": 0.0812,
      "velocity": 105,
      "chip": "ym2612"
    },
    {
      "channel": 2,
      "note": 62,
      "start": 6.1486,
      "duration": 0.0832,
      "velocity": 112,
      "chip": "ym2612"
    },
    {
      "channel": 3,
      "note": 50,
      "start": 6.1493,
      "duration": 0.0834,
      "velocity": 95,
      "chip": "ym2612"
    },
    {
      "channel": 4,
      "note": 91,
      "start": 6.15,
      "duration": 0.0857,
      "velocity": 112,
      "chip": "ym2612"
    },
    {
      "channel": 0,
      "note": 38,
      "start": 6.2289,
      "duration": 0.2636,
      "velocity": 95,
      "chip": "ym2612"
    },
    {
      "channel": 2,
      "note": 69,
      "start": 6.2325,
      "duration": 0.6861,
      "velocity": 112,
      "chip": "ym2612"
    },
    {
      "channel": 4,
      "note": 62,
      "start": 6.2364,
      "duration": 0.6835,
      "velocity": 112,
      "chip": "ym2612"
    },
    {
      "channel": 1,
      "note": 69,
      "start": 6.2615,
      "duration": 0.1746,
      "velocity": 105,
      "chip": "ym2612"
    },
    {
      "channel": 3,
      "note": 43,
      "start": 6.2624,
      "duration": 0.0265,
      "velocity": 95,
      "chip": "ym2612"
    },
    {
      "channel": 3,
      "note": 45,
      "start": 6.2894,
      "duration": 0.0261,
      "velocity": 95,
      "chip": "ym2612"
    },
    {
      "channel": 1,
      "note": 69,
      "start": 6.4366,
      "duration": 0.0566,
      "velocity": 105,
      "chip": "ym2612"
    },
    {
      "channel": 3,
      "note": 48,
      "start": 6.4376,
      "duration": 0.0282,
      "velocity": 95,
      "chip": "ym2612"
    },
    {
      "channel": 0,
      "note": 38,
      "start": 6.4931,
      "duration": 0.0602,
      "velocity": 95,
      "chip": "ym2612"
    },
    {
      "channel": 1,
      "note": 69,
      "start": 6.4936,
      "duration": 0.0603,
      "velocity": 105,
      "chip": "ym2612"
    },
    {
      "channel": 3,
      "note": 45,
      "start": 6.4948,
      "duration": 0.0319,
      "velocity": 95,
      "chip": "ym2612"
    },
    {
      "channel": 0,
      "note": 38,
      "start": 6.5538,
      "duration": 0.0844,
      "velocity": 95,
      "chip": "ym2612"
    },
    {
      "channel": 1,
      "note": 67,
      "start": 6.5546,
      "duration": 0.19,
      "velocity": 105,
      "chip": "ym2612"
    },
    {
      "channel": 3,
      "note": 48,
      "start": 6.5557,
      "duration": 0.0557,
      "velocity": 95,
      "chip": "ym2612"
    },
    {
      "channel": 3,
      "note": 45,
      "start": 6.6119,
      "duration": 0.0277,
      "velocity": 95,
      "chip": "ym2612"
    },
    {
      "channel": 0,
      "note": 50,
      "start": 6.6388,
      "duration": 0.1054,
      "velocity": 95,
      "chip": "ym2612"
    },
    {
      "channel": 3,
      "note": 48,
      "start": 6.6402,
      "duration": 0.1352,
      "velocity": 95,
      "chip": "ym2612"
    },
    {
      "channel": 1,
      "note": 67,
      "start": 6.7451,
      "duration": 0.0819,
      "velocity": 105,
      "chip": "ym2612"
    },
    {
      "channel": 3,
      "note": 45,
      "start": 6.7761,
      "duration": 0.0255,
      "velocity": 95,
      "chip": "ym2612"
    },
    {
      "channel": 3,
      "note": 48,
      "start": 6.802,
      "duration": 0.0262,
      "velocity": 95,
      "chip": "ym2612"
    },
    {
      "channel": 1,
      "note": 69,
      "start": 6.8276,
      "duration": 0.0906,
      "velocity": 105,
      "chip": "ym2612"
    },
    {
      "channel": 3,
      "note": 50,
      "start": 6.8287,
      "duration": 0.0908,
      "velocity": 95,
      "chip": "ym2612"
    },
    {
      "channel": 0,
      "note": 38,
      "start": 6.9181,
      "duration": 0.024,
      "velocity": 95,
      "chip": "ym2612"
    },
    {
      "channel": 2,
      "note": 72,
      "start": 6.9193,
      "duration": 0.0451,
      "velocity": 112,
      "chip": "ym2612"
    },
    {
      "channel": 4,
      "note": 69,
      "start": 6.9205,
      "duration": 0.0525,
      "velocity": 112,
      "chip": "ym2612"
    },
    {
      "channel": 0,
      "note": 38,
      "start": 6.9427,
      "duration": 0.1385,
      "velocity": 95,
      "chip": "ym2612"
    },
    {
      "channel": 1,
      "note": 69,
      "start": 6.9434,
      "duration": 0.083,
      "velocity": 105,
      "chip": "ym2612"
    },
    {
      "channel": 3,
      "note": 43,
      "start": 6.9444,
      "duration": 0.0274,
      "velocity": 95,
      "chip": "ym2612"
    },
    {
      "channel": 2,
      "note": 72,
      "start": 6.9717,
      "duration": 0.046,
      "velocity": 112,
      "chip": "ym2612"
    },
    {
      "channel": 3,
      "note": 45,
      "start": 6.9724,
      "duration": 0.0304,
      "velocity": 95,
      "chip": "ym2612"
    },
    {
      "channel": 4,
      "note": 69,
      "start": 6.9737,
      "duration": 0.0558,
      "velocity": 112,
      "chip": "ym2612"
    },
    {
      "channel": 1,
      "note": 69,
      "start": 7.0269,
      "duration": 0.0549,
      "velocity": 105,
      "chip": "ym2612"
    },
    {
      "channel": 2,
      "note": 71,
      "start": 7.0282,
      "duration": 0.0434,
      "velocity": 112,
      "chip": "ym2612"
    },
    {
      "channel": 3,
      "note": 48,
      "start": 7.0288,
      "duration": 0.0278,
      "velocity": 95,
      "chip": "ym2612"
    },
    {
      "channel": 4,
      "note": 67,
      "start": 7.0301,
      "duration": 0.0548,
      "velocity": 112,
      "chip": "ym2612"
    },
    {
      "channel": 0,
      "note": 38,
      "start": 7.0817,
      "duration": 0.0568,
      "velocity": 95,
      "chip": "ym2612"
    },
    {
      "channel": 1,
      "note": 69,
      "start": 7.0823,
      "duration": 0.0568,
      "velocity": 105,
      "chip": "ym2612"
    },
    {
      "channel": 2,
      "note": 71,
      "start": 7.0836,
      "duration": 0.0465,
      "velocity": 112,
      "chip": "ym2612"
    },
    {
      "channel": 3,
      "note": 45,
      "start": 7.0843,
      "duration": 0.0278,
      "velocity": 95,
      "chip": "ym2612"
    },
    {
      "channel": 4,
      "note": 67,
      "start": 7.0855,
      "duration": 0.0563,
      "velocity": 112,
      "chip": "ym2612"
    },
    {
      "channel": 0,
      "note": 38,
      "start": 7.139,
      "duration": 0.0734,
      "velocity": 95,
      "chip": "ym2612"
    },
    {
      "channel": 1,
      "note": 72,
      "start": 7.1397,
      "duration": 0.1901,
      "velocity": 105,
      "chip": "ym2612"
    },
    {
      "channel": 3,
      "note": 48,
      "start": 7.1412,
      "duration": 0.0465,
      "velocity": 95,
      "chip": "ym2612"
    },
    {
      "channel": 2,
      "note": 69,
      "start": 7.1877,
      "duration": 0.0138,
      "velocity": 112,
      "chip": "ym2612"
    },
    {
      "channel": 3,
      "note": 45,
      "start": 7.1884,
      "duration": 0.0259,
      "velocity": 95,
      "chip": "ym2612"
    },
    {
      "channel": 4,
      "note": 62,
      "start": 7.1891,
      "duration": 0.013,
      "velocity": 112,
      "chip": "ym2612"
    },
    {
      "channel": 0,
      "note": 50,
      "start": 7.213,
      "duration": 0.1165,
      "velocity": 95,
      "chip": "ym2612"
    },
    {
      "channel": 2,
      "note": 67,
      "start": 7.2141,
      "duration": 0.0489,
      "velocity": 112,
      "chip": "ym2612"
    },
    {
      "channel": 3,
      "note": 48,
      "start": 7.2147,
      "duration": 0.1414,
      "velocity": 95,
      "chip": "ym2612"
    },
    {
      "channel": 4,
      "note": 60,
      "start": 7.2155,
      "duration": 0.0481,
      "velocity": 112,
      "chip": "ym2612"
    },
    {
      "channel": 1,
      "note": 72,
      "start": 7.3304,
      "duration": 0.0784,
      "velocity": 105,
      "chip": "ym2612"
    },
    {
      "channel": 2,
      "note": 69,
      "start": 7.3311,
      "duration": 0.0134,
      "velocity": 112,
      "chip": "ym2612"
    },
    {
      "channel": 4,
      "note": 62,
      "start": 7.3322,
      "duration": 0.013,
      "velocity": 112,
      "chip": "ym2612"
    },
    {
      "channel": 2,
      "note": 69,
      "start": 7.356,
      "duration": 0.154,
      "velocity": 97,
      "chip": "ym2612"
    },
    {
      "channel": 3,
      "note": 45,
      "start": 7.3567,
      "duration": 0.0275,
      "velocity": 95,
      "chip": "ym2612"
    },
    {
      "channel": 4,
      "note": 62,
      "start": 7.3574,
      "duration": 0.1563,
      "velocity": 109,
      "chip": "ym2612"
    },
    {
      "channel": 3,
      "note": 48,
      "start": 7.3847,
      "duration": 0.0251,
      "velocity": 95,
      "chip": "ym2612"
    },
    {
      "channel": 0,
      "note": 50,
      "start": 7.4086,
      "duration": 0.0945,
      "velocity": 95,
      "chip": "ym2612"
    },
    {
      "channel": 1,
      "note": 69,
      "start": 7.4094,
      "duration": 0.0975,
      "velocity": 97,
      "chip": "ym2612"
    },
    {
      "channel": 3,
      "note": 50,
      "start": 7.4104,
      "duration": 0.1003,
      "velocity": 95,
      "chip": "ym2612"
    },
    {
      "channel": 0,
      "note": 37,
      "start": 7.5038,
      "duration": 0.2637,
      "velocity": 95,
      "chip": "ym2612"
    },
    {
      "channel": 1,
      "note": 83,
      "start": 7.5075,
      "duration": 0.0899,
      "velocity": 97,
      "chip": "ym2612"
    },
    {
      "channel": 4,
      "note": 97,
      "start": 7.5145,
      "duration": 0.0266,
      "velocity": 109,
      "chip": "ym2612"
    },
    {
      "channel": 2,
      "note": 83,
      "start": 7.5278,
      "duration": 0.0995,
      "velocity": 97,
      "chip": "ym2612"
    },
    {
      "channel": 3,
      "note": 42,
      "start": 7.5405,
      "duration": 0.0287,
      "velocity": 95,
      "chip": "ym2612"
    },
    {
      "channel": 4,
      "note": 97,
      "start": 7.5417,
      "duration": 0.0287,
      "velocity": 109,
      "chip": "ym2612"
    },
    {
      "channel": 3,
      "note": 44,
      "start": 7.5697,
      "duration": 0.0289,
      "velocity": 95,
      "chip": "ym2612"
    },
    {
      "channel": 4,
      "note": 92,
      "start": 7.571,
      "duration": 0.0283,
      "velocity": 109,
      "chip": "ym2612"
    },
    {
      "channel": 1,
      "note": 82,
      "start": 7.5981,
      "duration": 0.1699,
      "velocity": 97,
      "chip": "ym2612"
    },
    {
      "channel": 4,
      "note": 92,
      "start": 7.5999,
      "duration": 0.1129,
      "velocity": 109,
      "chip": "ym2612"
    },
    {
      "channel": 2,
      "note": 82,
      "start": 7.6279,
      "duration": 0.1556,
      "velocity": 97,
      "chip": "ym2612"
    },
    {
      "channel": 3,
      "note": 47,
      "start": 7.7122,
      "duration": 0.0292,
      "velocity": 95,
      "chip": "ym2612"
    },
    {
      "channel": 4,
      "note": 95,
      "start": 7.7135,
      "duration": 0.0286,
      "velocity": 109,
      "chip": "ym2612"
    },
    {
      "channel": 4,
      "note": 95,
      "start": 7.7427,
      "duration": 0.0275,
      "velocity": 109,
      "chip": "ym2612"
    },
    {
      "channel": 0,
      "note": 37,
      "start": 7.7679,
      "duration": 0.0523,
      "velocity": 95,
      "chip": "ym2612"
    },
    {
      "channel": 1,
      "note": 80,
      "start": 7.7686,
      "duration": 0.0521,
      "velocity": 97,
      "chip": "ym2612"
    },
    {
      "channel": 3,
      "note": 44,
      "start": 7.7698,
      "duration": 0.0269,
      "velocity": 95,
      "chip": "ym2612"
    },
    {
      "channel": 2,
      "note": 80,
      "start": 7.7841,
      "duration": 0.0531,
      "velocity": 97,
      "chip": "ym2612"
    },
    {
      "channel": 0,
      "note": 37,
      "start": 7.8206,
      "duration": 0.0899,
      "velocity": 95,
      "chip": "ym2612"
    },
    {
      "channel": 1,
      "note": 83,
      "start": 7.8215,
      "duration": 0.0898,
      "velocity": 97,
      "chip": "ym2612"
    },
    {
      "channel": 3,
      "note": 47,
      "start": 7.8225,
      "duration": 0.0602,
      "velocity": 95,
      "chip": "ym2612"
    },
    {
      "channel": 4,
      "note": 97,
      "start": 7.8234,
      "duration": 0.0283,
      "velocity": 109,
      "chip": "ym2612"
    },
    {
      "channel": 2,
      "note": 83,
      "start": 7.8378,
      "duration": 0.1236,
      "velocity": 97,
      "chip": "ym2612"
    },
    {
      "channel": 4,
      "note": 92,
      "start": 7.8524,
      "duration": 0.0315,
      "velocity": 109,
      "chip": "ym2612"
    },
    {
      "channel": 3,
      "note": 44,
      "start": 7.8834,
      "duration": 0.0292,
      "velocity": 95,
      "chip": "ym2612"
    },
    {
      "channel": 4,
      "note": 92,
      "start": 7.8845,
      "duration": 0.0291,
      "velocity": 109,
      "chip": "ym2612"
    },
    {
      "channel": 0,
      "note": 49,
      "start": 7.9112,
      "duration": 0.1167,
      "velocity": 95,
      "chip": "ym2612"
    },
    {
      "channel": 1,
      "note": 82,
      "start": 7.9119,
      "duration": 0.1684,
      "velocity": 97,
      "chip": "ym2612"
    },
    {
      "channel": 3,
      "note": 47,
      "start": 7.913,
      "duration": 0.1436,
      "velocity": 95,
      "chip": "ym2612"
    },
    {
      "channel": 4,
      "note": 95,
      "start": 7.9143,
      "duration": 0.1154,
      "velocity": 109,
      "chip": "ym2612"
    },
    {
      "channel": 2,
      "note": 82,
      "start": 7.962,
      "duration": 0.1314,
      "velocity": 97,
      "chip": "ym2612"
    },
    {
      "channel": 4,
      "note": 95,
      "start": 8.0304,
      "duration": 0.0273,
      "velocity": 109,
      "chip": "ym2612"
    },
    {
      "channel": 3,
      "note": 44,
      "start": 8.0572,
      "duration": 0.0243,
      "velocity": 95,
      "chip": "ym2612"
    },
    {
      "channel": 1,
      "note": 80,
      "start": 8.081,
      "duration": 0.1207,
      "velocity": 97,
      "chip": "ym2612"
    },
    {
      "channel": 3,
      "note": 47,
      "start": 8.0821,
      "duration": 0.0236,
      "velocity": 95,
      "chip": "ym2612"
    },
    {
      "channel": 2,
      "note": 80,
      "start": 8.0941,
      "duration": 0.1245,
      "velocity": 97,
      "chip": "ym2612"
    },
    {
      "channel": 3,
      "note": 49,
      "start": 8.1062,
      "duration": 0.0968,
      "velocity": 95,
      "chip": "ym2612"
    },
    {
      "channel": 4,
      "note": 90,
      "start": 8.107,
      "duration": 0.0989,
      "velocity": 109,
      "chip": "ym2612"
    },
    {
      "channel": 0,
      "note": 37,
      "start": 8.2016,
      "duration": 0.0294,
      "velocity": 95,
      "chip": "ym2612"
    },
    {
      "channel": 1,
      "note": 83,
      "start": 8.2024,
      "duration": 0.088,
      "velocity": 97,
      "chip": "ym2612"
    },
    {
      "channel": 4,
      "note": 97,
      "start": 8.2066,
      "duration": 0.0269,
      "velocity": 109,
      "chip": "ym2612"
    },
    {
      "channel": 2,
      "note": 83,
      "start": 8.2193,
      "duration": 0.0853,
      "velocity": 97,
      "chip": "ym2612"
    },
    {
      "channel": 0,
      "note": 37,
      "start": 8.2315,
      "duration": 0.1467,
      "velocity": 95,
      "chip": "ym2612"
    },
    {
      "channel": 3,
      "note": 42,
      "start": 8.233,
      "duration": 0.029,
      "velocity": 95,
      "chip": "ym2612"
    },
    {
      "channel": 4,
      "note": 97,
      "start": 8.2341,
      "duration": 0.029,
      "velocity": 109,
      "chip": "ym2612"
    },
    {
      "channel": 3,
      "note": 44,
      "start": 8.2625,
      "duration": 0.029,
      "velocity": 95,
      "chip": "ym2612"
    },
    {
      "channel": 4,
      "note": 92,
      "start": 8.2638,
      "duration": 0.0284,
      "velocity": 109,
      "chip": "ym2612"
    },
    {
      "channel": 1,
      "note": 85,
      "start": 8.291,
      "duration": 0.0878,
      "velocity": 97,
      "chip": "ym2612"
    },
    {
      "channel": 4,
      "note": 92,
      "start": 8.2928,
      "duration": 0.0267,
      "velocity": 109,
      "chip": "ym2612"
    },
    {
      "channel": 2,
      "note": 85,
      "start": 8.3052,
      "duration": 0.0889,
      "velocity": 97,
      "chip": "ym2612"
    },
    {
      "channel": 3,
      "note": 47,
      "start": 8.3188,
      "duration": 0.0294,
      "velocity": 95,
      "chip": "ym2612"
    },
    {
      "channel": 4,
      "note": 95,
      "start": 8.3201,
      "duration": 0.0288,
      "velocity": 109,
      "chip": "ym2612"
    },
    {
      "channel": 4,
      "note": 95,
      "start": 8.3495,
      "duration": 0.0315,
      "velocity": 109,
      "chip": "ym2612"
    },
    {
      "channel": 0,
      "note": 37,
      "start": 8.3786,
      "duration": 0.0522,
      "velocity": 95,
      "chip": "ym2612"
    },
    {
      "channel": 1,
      "note": 80,
      "start": 8.3794,
      "duration": 0.312,
      "velocity": 97,
      "chip": "ym2612"
    },
    {
      "channel": 3,
      "note": 44,
      "start": 8.3805,
      "duration": 0.0268,
      "velocity": 95,
      "chip": "ym2612"
    },
    {
      "channel": 2,
      "note": 80,
      "start": 8.3948,
      "duration": 0.3083,
      "velocity": 97,
      "chip": "ym2612"
    },
    {
      "channel": 0,
      "note": 37,
      "start": 8.4313,
      "duration": 0.0866,
      "velocity": 95,
      "chip": "ym2612"
    },
    {
      "channel": 3,
      "note": 47,
      "start": 8.4329,
      "duration": 0.0573,
      "velocity": 95,
      "chip": "ym2612"
    },
    {
      "channel": 4,
      "note": 97,
      "start": 8.4337,
      "duration": 0.0288,
      "velocity": 109,
      "chip": "ym2612"
    },
    {
      "channel": 4,
      "note": 92,
      "start": 8.4632,
      "duration": 0.028,
      "velocity": 109,
      "chip": "ym2612"
    },
    {
      "channel": 3,
      "note": 44,
      "start": 8.4906,
      "duration": 0.0288,
      "velocity": 95,
      "chip": "ym2612"
    },
    {
      "channel": 4,
      "note": 92,
      "start": 8.4918,
      "duration": 0.0288,
      "velocity": 109,
      "chip": "ym2612"
    },
    {
      "channel": 0,
      "note": 49,
      "start": 8.5185,
      "duration": 0.1201,
      "velocity": 95,
      "chip": "ym2612"
    },
    {
      "channel": 3,
      "note": 47,
      "start": 8.52,
      "duration": 0.1476,
      "velocity": 95,
      "chip": "ym2612"
    },
    {
      "channel": 4,
      "note": 95,
      "start": 8.5212,
      "duration": 0.1192,
      "velocity": 109,
      "chip": "ym2612"
    },
    {
      "channel": 4,
      "note": 95,
      "start": 8.6411,
      "duration": 0.0275,
      "velocity": 109,
      "chip": "ym2612"
    },
    {
      "channel": 3,
      "note": 44,
      "start": 8.6681,
      "duration": 0.0241,
      "velocity": 95,
      "chip": "ym2612"
    },
    {
      "channel": 3,
      "note": 47,
      "start": 8.6927,
      "duration": 0.0213,
      "velocity": 95,
      "chip": "ym2612"
    },
    {
      "channel": 0,
      "note": 49,
      "start": 8.7129,
      "duration": 0.0825,
      "velocity": 95,
      "chip": "ym2612"
    },
    {
      "channel": 1,
      "note": 83,
      "start": 8.7138,
      "duration": 0.1445,
      "velocity": 97,
      "chip": "ym2612"
    },
    {
      "channel": 3,
      "note": 49,
      "start": 8.7145,
      "duration": 0.0827,
      "velocity": 95,
      "chip": "ym2612"
    },
    {
      "channel": 4,
      "note": 90,
      "start": 8.7153,
      "duration": 0.0848,
      "velocity": 109,
      "chip": "ym2612"
    },
    {
      "channel": 2,
      "note": 83,
      "start": 8.7291,
      "duration": 0.1448,
      "velocity": 97,
      "chip": "ym2612"
    },
    {
      "channel": 0,
      "note": 37,
      "start": 8.7961,
      "duration": 0.2651,
      "velocity": 95,
      "chip": "ym2612"
    },
    {
      "channel": 4,
      "note": 97,
      "start": 8.8008,
      "duration": 0.0266,
      "velocity": 109,
      "chip": "ym2612"
    },
    {
      "channel": 3,
      "note": 42,
      "start": 8.827,
      "duration": 0.0323,
      "velocity": 95,
      "chip": "ym2612"
    },
    {
      "channel": 4,
      "note": 97,
      "start": 8.8282,
      "duration": 0.0323,
      "velocity": 109,
      "chip": "ym2612"
    },
    {
      "channel": 1,
      "note": 83,
      "start": 8.8587,
      "duration": 0.1442,
      "velocity": 97,
      "chip": "ym2612"
    },
    {
      "channel": 3,
      "note": 44,
      "start": 8.8599,
      "duration": 0.028,
      "velocity": 95,
      "chip": "ym2612"
    },
    {
      "channel": 4,
      "note": 92,
      "start": 8.8611,
      "duration": 0.0274,
      "velocity": 109,
      "chip": "ym2612"
    },
    {
      "channel": 2,
      "note": 83,
      "start": 8.8743,
      "duration": 0.1454,
      "velocity": 97,
      "chip": "ym2612"
    },
    {
      "channel": 4,
      "note": 92,
      "start": 8.8891,
      "duration": 0.1162,
      "velocity": 109,
      "chip": "ym2612"
    },
    {
      "channel": 1,
      "note": 82,
      "start": 9.0037,
      "duration": 0.0582,
      "velocity": 97,
      "chip": "ym2612"
    },
    {
      "channel": 3,
      "note": 47,
      "start": 9.0047,
      "duration": 0.0291,
      "velocity": 95,
      "chip": "ym2612"
    },
    {
      "channel": 4,
      "note": 95,
      "start": 9.006,
      "duration": 0.0285,
      "velocity": 109,
      "chip": "ym2612"
    },
    {
      "channel": 2,
      "note": 82,
      "start": 9.0203,
      "duration": 0.0568,
      "velocity": 97,
      "chip": "ym2612"
    },
    {
      "channel": 4,
      "note": 95,
      "start": 9.0352,
      "duration": 0.0289,
      "velocity": 109,
      "chip": "ym2612"
    },
    {
      "channel": 0,
      "note": 37,
      "start": 9.0617,
      "duration": 0.0566,
      "velocity": 95,
      "chip": "ym2612"
    },
    {
      "channel": 1,
      "note": 80,
      "start": 9.0625,
      "duration": 0.0566,
      "velocity": 97,
      "chip": "ym2612"
    },
    {
      "channel": 3,
      "note": 44,
      "start": 9.0636,
      "duration": 0.0301,
      "velocity": 95,
      "chip": "ym2612"
    },
    {
      "channel": 2,
      "note": 80,
      "start": 9.0778,
      "duration": 0.0579,
      "velocity": 97,
      "chip": "ym2612"
    },
    {
      "channel": 0,
      "note": 37,
      "start": 9.1188,
      "duration": 0.0867,
      "velocity": 95,
      "chip": "ym2612"
    },
    {
      "channel": 1,
      "note": 83,
      "start": 9.1197,
      "duration": 0.0865,
      "velocity": 97,
      "chip": "ym2612"
    },
    {
      "channel": 3,
      "note": 47,
      "start": 9.1208,
      "duration": 0.057,
      "velocity": 95,
      "chip": "ym2612"
    },
    {
      "channel": 4,
      "note": 97,
      "start": 9.1218,
      "duration": 0.0286,
      "velocity": 109,
      "chip": "ym2612"
    },
    {
      "channel": 2,
      "note": 83,
      "start": 9.1363,
      "duration": 0.1067,
      "velocity": 97,
      "chip": "ym2612"
    },
    {
      "channel": 4,
      "note": 92,
      "start": 9.151,
      "duration": 0.0279,
      "velocity": 109,
      "chip": "ym2612"
    },
    {
      "channel": 3,
      "note": 44,
      "start": 9.1784,
      "duration": 0.029,
      "velocity": 95,
      "chip": "ym2612"
    },
    {
      "channel": 4,
      "note": 92,
      "start": 9.1795,
      "duration": 0.0291,
      "velocity": 109,
      "chip": "ym2612"
    },
    {
      "channel": 0,
      "note": 49,
      "start": 9.2061,
      "duration": 0.1033,
      "velocity": 95,
      "chip": "ym2612"
    },
    {
      "channel": 1,
      "note": 85,
      "start": 9.2069,
      "duration": 0.1583,
      "velocity": 97,
      "chip": "ym2612"
    },
    {
      "channel": 3,
      "note": 47,
      "start": 9.208,
      "duration": 0.1335,
      "velocity": 95,
      "chip": "ym2612"
    },
    {
      "channel": 4,
      "note": 95,
      "start": 9.2093,
      "duration": 0.1021,
      "velocity": 109,
      "chip": "ym2612"
    },
    {
      "channel": 2,
      "note": 85,
      "start": 9.2437,
      "duration": 0.1346,
      "velocity": 97,
      "chip": "ym2612"
    },
    {
      "channel": 4,
      "note": 95,
      "start": 9.312,
      "duration": 0.0305,
      "velocity": 109,
      "chip": "ym2612"
    },
    {
      "channel": 3,
      "note": 44,
      "start": 9.342,
      "duration": 0.0244,
      "velocity": 95,
      "chip": "ym2612"
    },
    {
      "channel": 1,
      "note": 80,
      "start": 9.3658,
      "duration": 0.7243,
      "velocity": 97,
      "chip": "ym2612"
    },
    {
      "channel": 3,
      "note": 47,
      "start": 9.367,
      "duration": 0.0236,
      "velocity": 95,
      "chip": "ym2612"
    },
    {
      "channel": 2,
      "note": 80,
      "start": 9.3789,
      "duration": 0.2163,
      "velocity": 112,
      "chip": "ym2612"
    },
    {
      "channel": 3,
      "note": 49,
      "start": 9.3911,
      "duration": 0.0933,
      "velocity": 95,
      "chip": "ym2612"
    },
    {
      "channel": 4,
      "note": 90,
      "start": 9.3919,
      "duration": 0.0954,
      "velocity": 112,
      "chip": "ym2612"
    },
    {
      "channel": 0,
      "note": 37,
      "start": 9.4831,
      "duration": 0.0275,
      "velocity": 95,
      "chip": "ym2612"
    },
    {
      "channel": 0,
      "note": 37,
      "start": 9.5111,
      "duration": 0.1392,
      "velocity": 95,
      "chip": "ym2612"
    },
    {
      "channel": 3,
      "note": 42,
      "start": 9.5126,
      "duration": 0.0264,
      "velocity": 95,
      "chip": "ym2612"
    },
    {
      "channel": 3,
      "note": 44,
      "start": 9.5395,
      "duration": 0.029,
      "velocity": 95,
      "chip": "ym2612"
    },
    {
      "channel": 2,
      "note": 68,
      "start": 9.5959,
      "duration": 0.0284,
      "velocity": 112,
      "chip": "ym2612"
    },
    {
      "channel": 3,
      "note": 47,
      "start": 9.5966,
      "duration": 0.028,
      "velocity": 95,
      "chip": "ym2612"
    },
    {
      "channel": 4,
      "note": 61,
      "start": 9.5973,
      "duration": 0.0275,
      "velocity": 112,
      "chip": "ym2612"
    },
    {
      "channel": 2,
      "note": 68,
      "start": 9.6339,
      "duration": 0.0179,
      "velocity": 112,
      "chip": "ym2612"
    },
    {
      "channel": 4,
      "note": 61,
      "start": 9.6353,
      "duration": 0.0185,
      "velocity": 112,
      "chip": "ym2612"
    },
    {
      "channel": 0,
      "note": 37,
      "start": 9.6509,
      "duration": 0.0569,
      "velocity": 95,
      "chip": "ym2612"
    },
    {
      "channel": 2,
      "note": 63,
      "start": 9.6525,
      "duration": 0.0287,
      "velocity": 112,
      "chip": "ym2612"
    },
    {
      "channel": 3,
      "note": 44,
      "start": 9.6532,
      "duration": 0.0283,
      "velocity": 95,
      "chip": "ym2612"
    },
    {
      "channel": 4,
      "note": 56,
      "start": 9.6545,
      "duration": 0.0273,
      "velocity": 112,
      "chip": "ym2612"
    },
    {
      "channel": 2,
      "note": 63,
      "start": 9.6909,
      "duration": 0.0184,
      "velocity": 112,
      "chip": "ym2612"
    },
    {
      "channel": 4,
      "note": 56,
      "start": 9.6922,
      "duration": 0.019,
      "velocity": 112,
      "chip": "ym2612"
    },
    {
      "channel": 0,
      "note": 37,
      "start": 9.7083,
      "duration": 0.0871,
      "velocity": 95,
      "chip": "ym2612"
    },
    {
      "channel": 2,
      "note": 66,
      "start": 9.7099,
      "duration": 0.0866,
      "velocity": 112,
      "chip": "ym2612"
    },
    {
      "channel": 3,
      "note": 47,
      "start": 9.7106,
      "duration": 0.0586,
      "velocity": 95,
      "chip": "ym2612"
    },
    {
      "channel": 4,
      "note": 59,
      "start": 9.7119,
      "duration": 0.0861,
      "velocity": 112,
      "chip": "ym2612"
    },
    {
      "channel": 3,
      "note": 44,
      "start": 9.7698,
      "duration": 0.0275,
      "velocity": 95,
      "chip": "ym2612"
    },
    {
      "channel": 0,
      "note": 49,
      "start": 9.7961,
      "duration": 0.1196,
      "velocity": 95,
      "chip": "ym2612"
    },
    {
      "channel": 2,
      "note": 68,
      "start": 9.7972,
      "duration": 0.1197,
      "velocity": 112,
      "chip": "ym2612"
    },
    {
      "channel": 3,
      "note": 47,
      "start": 9.7979,
      "duration": 0.1425,
      "velocity": 95,
      "chip": "ym2612"
    },
    {
      "channel": 4,
      "note": 61,
      "start": 9.7987,
      "duration": 0.1189,
      "velocity": 112,
      "chip": "ym2612"
    },
    {
      "channel": 2,
      "note": 68,
      "start": 9.9402,
      "duration": 0.0266,
      "velocity": 112,
      "chip": "ym2612"
    },
    {
      "channel": 3,
      "note": 44,
      "start": 9.941,
      "duration": 0.0261,
      "velocity": 95,
      "chip": "ym2612"
    },
    {
      "channel": 4,
      "note": 61,
      "start": 9.9422,
      "duration": 0.0256,
      "velocity": 112,
      "chip": "ym2612"
    },
    {
      "channel": 3,
      "note": 47,
      "start": 9.9676,
      "duration": 0.0252,
      "velocity": 95,
      "chip": "ym2612"
    },
    {
      "channel": 0,
      "note": 49,
      "start": 9.9915,
      "duration": 0.0976,
      "velocity": 95,
      "chip": "ym2612"
    },
    {
      "channel": 2,
      "note": 68,
      "start": 9.9927,
      "duration": 0.101,
      "velocity": 97,
      "chip": "ym2612"
    },
    {
      "channel": 3,
      "note": 49,
      "start": 9.9934,
      "duration": 0.1009,
      "velocity": 95,
      "chip": "ym2612"
    },
    {
      "channel": 4,
      "note": 61,
      "start": 9.9946,
      "duration": 0.1033,
      "velocity": 109,
      "chip": "ym2612"
    },
    {
      "channel": 0,
      "note": 38,
      "start": 10.0898,
      "duration": 0.251,
      "velocity": 95,
      "chip": "ym2612"
    },
    {
      "channel": 1,
      "note": 84,
      "start": 10.0908,
      "duration": 0.0905,
      "velocity": 97,
      "chip": "ym2612"
    },
    {
      "channel": 4,
      "note": 98,
      "start": 10.0986,
      "duration": 0.0263,
      "velocity": 109,
      "chip": "ym2612"
    },
    {
      "channel": 2,
      "note": 84,
      "start": 10.1118,
      "duration": 0.1015,
      "velocity": 97,
      "chip": "ym2612"
    },
    {
      "channel": 3,
      "note": 43,
      "start": 10.1244,
      "duration": 0.0286,
      "velocity": 95,
      "chip": "ym2612"
    },
    {
      "channel": 4,
      "note": 98,
      "start": 10.1256,
      "duration": 0.0286,
      "velocity": 109,
      "chip": "ym2612"
    },
    {
      "channel": 3,
      "note": 45,
      "start": 10.1536,
      "duration": 0.0289,
      "velocity": 95,
      "chip": "ym2612"
    },
    {
      "channel": 4,
      "note": 93,
      "start": 10.1549,
      "duration": 0.0283,
      "velocity": 109,
      "chip": "ym2612"
    },
    {
      "channel": 1,
      "note": 83,
      "start": 10.182,
      "duration": 0.1594,
      "velocity": 97,
      "chip": "ym2612"
    },
    {
      "channel": 4,
      "note": 93,
      "start": 10.1838,
      "duration": 0.0983,
      "velocity": 109,
      "chip": "ym2612"
    },
    {
      "channel": 2,
      "note": 83,
      "start": 10.2139,
      "duration": 0.1429,
      "velocity": 97,
      "chip": "ym2612"
    },
    {
      "channel": 3,
      "note": 48,
      "start": 10.2815,
      "duration": 0.0328,
      "velocity": 95,
      "chip": "ym2612"
    },
    {
      "channel": 4,
      "note": 96,
      "start": 10.2828,
      "duration": 0.0322,
      "velocity": 109,
      "chip": "ym2612"
    },
    {
      "channel": 4,
      "note": 96,
      "start": 10.3156,
      "duration": 0.028,
      "velocity": 109,
      "chip": "ym2612"
    },
    {
      "channel": 0,
      "note": 38,
      "start": 10.3412,
      "duration": 0.0523,
      "velocity": 95,
      "chip": "ym2612"
    },
    {
      "channel": 1,
      "note": 81,
      "start": 10.342,
      "duration": 0.0522,
      "velocity": 97,
      "chip": "ym2612"
    },
    {
      "channel": 3,
      "note": 45,
      "start": 10.3431,
      "duration": 0.0269,
      "velocity": 95,
      "chip": "ym2612"
    },
    {
      "channel": 2,
      "note": 81,
      "start": 10.3575,
      "duration": 0.0532,
      "velocity": 97,
      "chip": "ym2612"
    },
    {
      "channel": 0,
      "note": 38,
      "start": 10.3941,
      "duration": 0.09,
      "velocity": 95,
      "chip": "ym2612"
    },
    {
      "channel": 1,
      "note": 84,
      "start": 10.3948,
      "duration": 0.09,
      "velocity": 97,
      "chip": "ym2612"
    },
    {
      "channel": 3,
      "note": 48,
      "start": 10.396,
      "duration": 0.0568,
      "velocity": 95,
      "chip": "ym2612"
    },
    {
      "channel": 4,
      "note": 98,
      "start": 10.3968,
      "duration": 0.0283,
      "velocity": 109,
      "chip": "ym2612"
    },
    {
      "channel": 2,
      "note": 84,
      "start": 10.4112,
      "duration": 0.1236,
      "velocity": 97,
      "chip": "ym2612"
    },
    {
      "channel": 4,
      "note": 93,
      "start": 10.4258,
      "duration": 0.028,
      "velocity": 109,
      "chip": "ym2612"
    },
    {
      "channel": 3,
      "note": 45,
      "start": 10.4533,
      "duration": 0.0327,
      "velocity": 95,
      "chip": "ym2612"
    },
    {
      "channel": 4,
      "note": 93,
      "start": 10.4544,
      "duration": 0.0327,
      "velocity": 109,
      "chip": "ym2612"
    },
    {
      "channel": 0,
      "note": 50,
      "start": 10.4846,
      "duration": 0.1167,
      "velocity": 95,
      "chip": "ym2612"
    },
    {
      "channel": 1,
      "note": 83,
      "start": 10.4854,
      "duration": 0.1684,
      "velocity": 97,
      "chip": "ym2612"
    },
    {
      "channel": 3,
      "note": 48,
      "start": 10.4865,
      "duration": 0.1436,
      "velocity": 95,
      "chip": "ym2612"
    },
    {
      "channel": 4,
      "note": 96,
      "start": 10.4878,
      "duration": 0.1154,
      "velocity": 109,
      "chip": "ym2612"
    },
    {
      "channel": 2,
      "note": 83,
      "start": 10.5355,
      "duration": 0.1315,
      "velocity": 97,
      "chip": "ym2612"
    },
    {
      "channel": 4,
      "note": 96,
      "start": 10.6038,
      "duration": 0.0273,
      "velocity": 109,
      "chip": "ym2612"
    },
    {
      "channel": 3,
      "note": 45,
      "start": 10.6306,
      "duration": 0.0244,
      "velocity": 95,
      "chip": "ym2612"
    },
    {
      "channel": 1,
      "note": 81,
      "start": 10.6544,
      "duration": 0.1041,
      "velocity": 97,
      "chip": "ym2612"
    },
    {
      "channel": 3,
      "note": 48,
      "start": 10.6556,
      "duration": 0.0237,
      "velocity": 95,
      "chip": "ym2612"
    },
    {
      "channel": 2,
      "note": 81,
      "start": 10.6677,
      "duration": 0.1087,
      "velocity": 97,
      "chip": "ym2612"
    },
    {
      "channel": 3,
      "note": 50,
      "start": 10.6798,
      "duration": 0.08,
      "velocity": 95,
      "chip": "ym2612"
    },
    {
      "channel": 4,
      "note": 91,
      "start": 10.6805,
      "duration": 0.0799,
      "velocity": 109,
      "chip": "ym2612"
    },
    {
      "channel": 0,
      "note": 38,
      "start": 10.7584,
      "duration": 0.0302,
      "velocity": 95,
      "chip": "ym2612"
    },
    {
      "channel": 1,
      "note": 84,
      "start": 10.7591,
      "duration": 0.0886,
      "velocity": 97,
      "chip": "ym2612"
    },
    {
      "channel": 4,
      "note": 98,
      "start": 10.7611,
      "duration": 0.03,
      "velocity": 109,
      "chip": "ym2612"
    },
    {
      "channel": 2,
      "note": 84,
      "start": 10.777,
      "duration": 0.0849,
      "velocity": 97,
      "chip": "ym2612"
    },
    {
      "channel": 0,
      "note": 38,
      "start": 10.7891,
      "duration": 0.1466,
      "velocity": 95,
      "chip": "ym2612"
    },
    {
      "channel": 3,
      "note": 43,
      "start": 10.7906,
      "duration": 0.0289,
      "velocity": 95,
      "chip": "ym2612"
    },
    {
      "channel": 4,
      "note": 98,
      "start": 10.7917,
      "duration": 0.029,
      "velocity": 109,
      "chip": "ym2612"
    },
    {
      "channel": 3,
      "note": 45,
      "start": 10.8201,
      "duration": 0.0288,
      "velocity": 95,
      "chip": "ym2612"
    },
    {
      "channel": 4,
      "note": 93,
      "start": 10.8214,
      "duration": 0.0282,
      "velocity": 109,
      "chip": "ym2612"
    },
    {
      "channel": 1,
      "note": 86,
      "start": 10.8484,
      "duration": 0.088,
      "velocity": 97,
      "chip": "ym2612"
    },
    {
      "channel": 4,
      "note": 93,
      "start": 10.8502,
      "duration": 0.0269,
      "velocity": 109,
      "chip": "ym2612"
    },
    {
      "channel": 2,
      "note": 86,
      "start": 10.8626,
      "duration": 0.0891,
      "velocity": 97,
      "chip": "ym2612"
    },
    {
      "channel": 3,
      "note": 48,
      "start": 10.8765,
      "duration": 0.0294,
      "velocity": 95,
      "chip": "ym2612"
    },
    {
      "channel": 4,
      "note": 96,
      "start": 10.8777,
      "duration": 0.0287,
      "velocity": 109,
      "chip": "ym2612"
    },
    {
      "channel": 4,
      "note": 96,
      "start": 10.9071,
      "duration": 0.0315,
      "velocity": 109,
      "chip": "ym2612"
    },
    {
      "channel": 0,
      "note": 38,
      "start": 10.9362,
      "duration": 0.0521,
      "velocity": 95,
      "chip": "ym2612"
    },
    {
      "channel": 1,
      "note": 81,
      "start": 10.937,
      "duration": 0.312,
      "velocity": 97,
      "chip": "ym2612"
    },
    {
      "channel": 3,
      "note": 45,
      "start": 10.9381,
      "duration": 0.0268,
      "velocity": 95,
      "chip": "ym2612"
    },
    {
      "channel": 2,
      "note": 81,
      "start": 10.9524,
      "duration": 0.3083,
      "velocity": 97,
      "chip": "ym2612"
    },
    {
      "channel": 0,
      "note": 38,
      "start": 10.9889,
      "duration": 0.0864,
      "velocity": 95,
      "chip": "ym2612"
    },
    {
      "channel": 3,
      "note": 48,
      "start": 10.9904,
      "duration": 0.0571,
      "velocity": 95,
      "chip": "ym2612"
    },
    {
      "channel": 4,
      "note": 98,
      "start": 10.9913,
      "duration": 0.0288,
      "velocity": 109,
      "chip": "ym2612"
    },
    {
      "channel": 4,
      "note": 93,
      "start": 11.0207,
      "duration": 0.0279,
      "velocity": 109,
      "chip": "ym2612"
    },
    {
      "channel": 3,
      "note": 45,
      "start": 11.0481,
      "duration": 0.0288,
      "velocity": 95,
      "chip": "ym2612"
    },
    {
      "channel": 4,
      "note": 93,
      "start": 11.0492,
      "duration": 0.0288,
      "velocity": 109,
      "chip": "ym2612"
    },
    {
      "channel": 0,
      "note": 50,
      "start": 11.0759,
      "duration": 0.1202,
      "velocity": 95,
      "chip": "ym2612"
    },
    {
      "channel": 3,
      "note": 48,
      "start": 11.0774,
      "duration": 0.1477,
      "velocity": 95,
      "chip": "ym2612"
    },
    {
      "channel": 4,
      "note": 96,
      "start": 11.0787,
      "duration": 0.1193,
      "velocity": 109,
      "chip": "ym2612"
    },
    {
      "channel": 4,
      "note": 96,
      "start": 11.1987,
      "duration": 0.0275,
      "velocity": 109,
      "chip": "ym2612"
    },
    {
      "channel": 3,
      "note": 45,
      "start": 11.2256,
      "duration": 0.0241,
      "velocity": 95,
      "chip": "ym2612"
    },
    {
      "channel": 3,
      "note": 48,
      "start": 11.2503,
      "duration": 0.0213,
      "velocity": 95,
      "chip": "ym2612"
    },
    {
      "channel": 0,
      "note": 50,
      "start": 11.2705,
      "duration": 0.0825,
      "velocity": 95,
      "chip": "ym2612"
    },
    {
      "channel": 1,
      "note": 84,
      "start": 11.2714,
      "duration": 0.1425,
      "velocity": 97,
      "chip": "ym2612"
    },
    {
      "channel": 3,
      "note": 50,
      "start": 11.2721,
      "duration": 0.0827,
      "velocity": 95,
      "chip": "ym2612"
    },
    {
      "channel": 4,
      "note": 91,
      "start": 11.2729,
      "duration": 0.0826,
      "velocity": 109,
      "chip": "ym2612"
    },
    {
      "channel": 2,
      "note": 84,
      "start": 11.2867,
      "duration": 0.1428,
      "velocity": 97,
      "chip": "ym2612"
    },
    {
      "channel": 0,
      "note": 38,
      "start": 11.3537,
      "duration": 0.2653,
      "velocity": 95,
      "chip": "ym2612"
    },
    {
      "channel": 4,
      "note": 98,
      "start": 11.3562,
      "duration": 0.0267,
      "velocity": 109,
      "chip": "ym2612"
    },
    {
      "channel": 3,
      "note": 43,
      "start": 11.3824,
      "duration": 0.0324,
      "velocity": 95,
      "chip": "ym2612"
    },
    {
      "channel": 4,
      "note": 98,
      "start": 11.3836,
      "duration": 0.0325,
      "velocity": 109,
      "chip": "ym2612"
    },
    {
      "channel": 1,
      "note": 84,
      "start": 11.4143,
      "duration": 0.1465,
      "velocity": 97,
      "chip": "ym2612"
    },
    {
      "channel": 3,
      "note": 45,
      "start": 11.4154,
      "duration": 0.0281,
      "velocity": 95,
      "chip": "ym2612"
    },
    {
      "channel": 4,
      "note": 93,
      "start": 11.4167,
      "duration": 0.0275,
      "velocity": 109,
      "chip": "ym2612"
    },
    {
      "channel": 2,
      "note": 84,
      "start": 11.43,
      "duration": 0.1475,
      "velocity": 97,
      "chip": "ym2612"
    },
    {
      "channel": 4,
      "note": 93,
      "start": 11.4448,
      "duration": 0.1183,
      "velocity": 109,
      "chip": "ym2612"
    },
    {
      "channel": 1,
      "note": 83,
      "start": 11.5614,
      "duration": 0.0581,
      "velocity": 97,
      "chip": "ym2612"
    },
    {
      "channel": 3,
      "note": 48,
      "start": 11.5625,
      "duration": 0.0291,
      "velocity": 95,
      "chip": "ym2612"
    },
    {
      "channel": 4,
      "note": 96,
      "start": 11.5638,
      "duration": 0.0285,
      "velocity": 109,
      "chip": "ym2612"
    },
    {
      "channel": 2,
      "note": 83,
      "start": 11.5781,
      "duration": 0.0569,
      "velocity": 97,
      "chip": "ym2612"
    },
    {
      "channel": 4,
      "note": 96,
      "start": 11.5929,
      "duration": 0.0288,
      "velocity": 109,
      "chip": "ym2612"
    },
    {
      "channel": 0,
      "note": 38,
      "start": 11.6194,
      "duration": 0.0566,
      "velocity": 95,
      "chip": "ym2612"
    },
    {
      "channel": 1,
      "note": 81,
      "start": 11.6202,
      "duration": 0.0566,
      "velocity": 97,
      "chip": "ym2612"
    },
    {
      "channel": 3,
      "note": 45,
      "start": 11.6213,
      "duration": 0.0268,
      "velocity": 95,
      "chip": "ym2612"
    },
    {
      "channel": 2,
      "note": 81,
      "start": 11.6356,
      "duration": 0.0578,
      "velocity": 97,
      "chip": "ym2612"
    },
    {
      "channel": 0,
      "note": 38,
      "start": 11.6765,
      "duration": 0.0868,
      "velocity": 95,
      "chip": "ym2612"
    },
    {
      "channel": 1,
      "note": 84,
      "start": 11.6775,
      "duration": 0.0866,
      "velocity": 97,
      "chip": "ym2612"
    },
    {
      "channel": 3,
      "note": 48,
      "start": 11.6785,
      "duration": 0.057,
      "velocity": 95,
      "chip": "ym2612"
    },
    {
      "channel": 4,
      "note": 98,
      "start": 11.6795,
      "duration": 0.0286,
      "velocity": 109,
      "chip": "ym2612"
    },
    {
      "channel": 2,
      "note": 84,
      "start": 11.6941,
      "duration": 0.1066,
      "velocity": 97,
      "chip": "ym2612"
    },
    {
      "channel": 4,
      "note": 93,
      "start": 11.7087,
      "duration": 0.0278,
      "velocity": 109,
      "chip": "ym2612"
    },
    {
      "channel": 3,
      "note": 45,
      "start": 11.7361,
      "duration": 0.0292,
      "velocity": 95,
      "chip": "ym2612"
    },
    {
      "channel": 4,
      "note": 93,
      "start": 11.7372,
      "duration": 0.0293,
      "velocity": 109,
      "chip": "ym2612"
    },
    {
      "channel": 0,
      "note": 50,
      "start": 11.764,
      "duration": 0.1032,
      "velocity": 95,
      "chip": "ym2612"
    },
    {
      "channel": 1,
      "note": 86,
      "start": 11.7647,
      "duration": 0.1579,
      "velocity": 97,
      "chip": "ym2612"
    },
    {
      "channel": 3,
      "note": 48,
      "start": 11.7658,
      "duration": 0.1301,
      "velocity": 95,
      "chip": "ym2612"
    },
    {
      "channel": 4,
      "note": 96,
      "start": 11.7671,
      "duration": 0.102,
      "velocity": 109,
      "chip": "ym2612"
    },
    {
      "channel": 2,
      "note": 86,
      "start": 11.8014,
      "duration": 0.1344,
      "velocity": 97,
      "chip": "ym2612"
    },
    {
      "channel": 4,
      "note": 96,
      "start": 11.8697,
      "duration": 0.0272,
      "velocity": 109,
      "chip": "ym2612"
    },
    {
      "channel": 3,
      "note": 45,
      "start": 11.8965,
      "duration": 0.0274,
      "velocity": 95,
      "chip": "ym2612"
    },
    {
      "channel": 1,
      "note": 86,
      "start": 11.9233,
      "duration": 0.7295,
      "velocity": 97,
      "chip": "ym2612"
    },
    {
      "channel": 3,
      "note": 48,
      "start": 11.9244,
      "duration": 0.0237,
      "velocity": 95,
      "chip": "ym2612"
    },
    {
      "channel": 2,
      "note": 86,
      "start": 11.9365,
      "duration": 0.1078,
      "velocity": 112,
      "chip": "ym2612"
    },
    {
      "channel": 3,
      "note": 50,
      "start": 11.9487,
      "duration": 0.0964,
      "velocity": 95,
      "chip": "ym2612"
    },
    {
      "channel": 4,
      "note": 91,
      "start": 11.9494,
      "duration": 0.0985,
      "velocity": 112,
      "chip": "ym2612"
    },
    {
      "channel": 0,
      "note": 38,
      "start": 12.0408,
      "duration": 0.0317,
      "velocity": 95,
      "chip": "ym2612"
    },
    {
      "channel": 2,
      "note": 72,
      "start": 12.0449,
      "duration": 0.05,
      "velocity": 112,
      "chip": "ym2612"
    },
    {
      "channel": 4,
      "note": 69,
      "start": 12.0486,
      "duration": 0.055,
      "velocity": 112,
      "chip": "ym2612"
    },
    {
      "channel": 0,
      "note": 38,
      "start": 12.073,
      "duration": 0.1399,
      "velocity": 95,
      "chip": "ym2612"
    },
    {
      "channel": 3,
      "note": 43,
      "start": 12.0744,
      "duration": 0.028,
      "velocity": 95,
      "chip": "ym2612"
    },
    {
      "channel": 2,
      "note": 72,
      "start": 12.1023,
      "duration": 0.0468,
      "velocity": 112,
      "chip": "ym2612"
    },
    {
      "channel": 3,
      "note": 45,
      "start": 12.103,
      "duration": 0.0276,
      "velocity": 95,
      "chip": "ym2612"
    },
    {
      "channel": 4,
      "note": 69,
      "start": 12.1043,
      "duration": 0.0568,
      "velocity": 112,
      "chip": "ym2612"
    },
    {
      "channel": 2,
      "note": 71,
      "start": 12.1597,
      "duration": 0.0445,
      "velocity": 112,
      "chip": "ym2612"
    },
    {
      "channel": 3,
      "note": 48,
      "start": 12.1604,
      "duration": 0.0284,
      "velocity": 95,
      "chip": "ym2612"
    },
    {
      "channel": 4,
      "note": 67,
      "start": 12.1617,
      "duration": 0.0547,
      "velocity": 112,
      "chip": "ym2612"
    },
    {
      "channel": 0,
      "note": 38,
      "start": 12.2134,
      "duration": 0.0549,
      "velocity": 95,
      "chip": "ym2612"
    },
    {
      "channel": 2,
      "note": 71,
      "start": 12.2151,
      "duration": 0.0476,
      "velocity": 112,
      "chip": "ym2612"
    },
    {
      "channel": 3,
      "note": 45,
      "start": 12.2157,
      "duration": 0.0283,
      "velocity": 95,
      "chip": "ym2612"
    },
    {
      "channel": 4,
      "note": 67,
      "start": 12.217,
      "duration": 0.0543,
      "velocity": 112,
      "chip": "ym2612"
    },
    {
      "channel": 0,
      "note": 38,
      "start": 12.2688,
      "duration": 0.079,
      "velocity": 95,
      "chip": "ym2612"
    },
    {
      "channel": 3,
      "note": 48,
      "start": 12.2707,
      "duration": 0.0511,
      "velocity": 95,
      "chip": "ym2612"
    },
    {
      "channel": 2,
      "note": 69,
      "start": 12.3217,
      "duration": 0.0142,
      "velocity": 112,
      "chip": "ym2612"
    },
    {
      "channel": 3,
      "note": 45,
      "start": 12.3224,
      "duration": 0.0273,
      "velocity": 95,
      "chip": "ym2612"
    },
    {
      "channel": 4,
      "note": 62,
      "start": 12.3232,
      "duration": 0.0273,
      "velocity": 112,
      "chip": "ym2612"
    },
    {
      "channel": 0,
      "note": 50,
      "start": 12.3485,
      "duration": 0.1277,
      "velocity": 95,
      "chip": "ym2612"
    },
    {
      "channel": 2,
      "note": 67,
      "start": 12.3496,
      "duration": 0.0601,
      "velocity": 112,
      "chip": "ym2612"
    },
    {
      "channel": 3,
      "note": 48,
      "start": 12.3503,
      "duration": 0.1535,
      "velocity": 95,
      "chip": "ym2612"
    },
    {
      "channel": 4,
      "note": 60,
      "start": 12.3511,
      "duration": 0.1269,
      "velocity": 112,
      "chip": "ym2612"
    },
    {
      "channel": 2,
      "note": 69,
      "start": 12.4776,
      "duration": 0.0137,
      "velocity": 112,
      "chip": "ym2612"
    },
    {
      "channel": 4,
      "note": 62,
      "start": 12.4786,
      "duration": 0.0259,
      "velocity": 112,
      "chip": "ym2612"
    },
    {
      "channel": 2,
      "note": 69,
      "start": 12.5037,
      "duration": 0.1526,
      "velocity": 97,
      "chip": "ym2612"
    },
    {
      "channel": 3,
      "note": 45,
      "start": 12.5044,
      "duration": 0.0251,
      "velocity": 95,
      "chip": "ym2612"
    },
    {
      "channel": 4,
      "note": 62,
      "start": 12.5052,
      "duration": 0.1554,
      "velocity": 109,
      "chip": "ym2612"
    },
    {
      "channel": 3,
      "note": 48,
      "start": 12.5301,
      "duration": 0.0255,
      "velocity": 95,
      "chip": "ym2612"
    },
    {
      "channel": 0,
      "note": 50,
      "start": 12.5548,
      "duration": 0.0948,
      "velocity": 95,
      "chip": "ym2612"
    },
    {
      "channel": 3,
      "note": 50,
      "start": 12.5563,
      "duration": 0.1013,
      "velocity": 95,
      "chip": "ym2612"
    },
    {
      "channel": 0,
      "note": 37,
      "start": 12.6502,
      "duration": 0.2509,
      "velocity": 95,
      "chip": "ym2612"
    },
    {
      "channel": 1,
      "note": 83,
      "start": 12.6534,
      "duration": 0.0911,
      "velocity": 97,
      "chip": "ym2612"
    },
    {
      "channel": 2,
      "note": 80,
      "start": 12.657,
      "duration": 0.0883,
      "velocity": 97,
      "chip": "ym2612"
    },
    {
      "channel": 4,
      "note": 97,
      "start": 12.6613,
      "duration": 0.0268,
      "velocity": 109,
      "chip": "ym2612"
    },
    {
      "channel": 3,
      "note": 42,
      "start": 12.6876,
      "duration": 0.0286,
      "velocity": 95,
      "chip": "ym2612"
    },
    {
      "channel": 4,
      "note": 97,
      "start": 12.6888,
      "duration": 0.0286,
      "velocity": 109,
      "chip": "ym2612"
    },
    {
      "channel": 3,
      "note": 44,
      "start": 12.7167,
      "duration": 0.0293,
      "velocity": 95,
      "chip": "ym2612"
    },
    {
      "channel": 4,
      "note": 92,
      "start": 12.718,
      "duration": 0.0286,
      "velocity": 109,
      "chip": "ym2612"
    },
    {
      "channel": 1,
      "note": 82,
      "start": 12.7451,
      "duration": 0.1567,
      "velocity": 97,
      "chip": "ym2612"
    },
    {
      "channel": 2,
      "note": 78,
      "start": 12.7459,
      "duration": 0.1567,
      "velocity": 97,
      "chip": "ym2612"
    },
    {
      "channel": 4,
      "note": 92,
      "start": 12.7473,
      "duration": 0.0952,
      "velocity": 109,
      "chip": "ym2612"
    },
    {
      "channel": 3,
      "note": 47,
      "start": 12.8419,
      "duration": 0.0329,
      "velocity": 95,
      "chip": "ym2612"
    },
    {
      "channel": 4,
      "note": 95,
      "start": 12.8432,
      "duration": 0.0323,
      "velocity": 109,
      "chip": "ym2612"
    },
    {
      "channel": 4,
      "note": 95,
      "start": 12.8761,
      "duration": 0.0282,
      "velocity": 109,
      "chip": "ym2612"
    },
    {
      "channel": 0,
      "note": 37,
      "start": 12.9017,
      "duration": 0.0522,
      "velocity": 95,
      "chip": "ym2612"
    },
    {
      "channel": 1,
      "note": 80,
      "start": 12.9024,
      "duration": 0.052,
      "velocity": 97,
      "chip": "ym2612"
    },
    {
      "channel": 2,
      "note": 77,
      "start": 12.9032,
      "duration": 0.0521,
      "velocity": 97,
      "chip": "ym2612"
    },
    {
      "channel": 3,
      "note": 44,
      "start": 12.9039,
      "duration": 0.0265,
      "velocity": 95,
      "chip": "ym2612"
    },
    {
      "channel": 0,
      "note": 37,
      "start": 12.9543,
      "duration": 0.0902,
      "velocity": 95,
      "chip": "ym2612"
    },
    {
      "channel": 1,
      "note": 83,
      "start": 12.9551,
      "duration": 0.0902,
      "velocity": 97,
      "chip": "ym2612"
    },
    {
      "channel": 2,
      "note": 80,
      "start": 12.9559,
      "duration": 0.0902,
      "velocity": 97,
      "chip": "ym2612"
    },
    {
      "channel": 3,
      "note": 47,
      "start": 12.9566,
      "duration": 0.0567,
      "velocity": 95,
      "chip": "ym2612"
    },
    {
      "channel": 4,
      "note": 97,
      "start": 12.9575,
      "duration": 0.0281,
      "velocity": 109,
      "chip": "ym2612"
    },
    {
      "channel": 4,
      "note": 92,
      "start": 12.9863,
      "duration": 0.028,
      "velocity": 109,
      "chip": "ym2612"
    },
    {
      "channel": 3,
      "note": 44,
      "start": 13.0138,
      "duration": 0.0331,
      "velocity": 95,
      "chip": "ym2612"
    },
    {
      "channel": 4,
      "note": 92,
      "start": 13.0149,
      "duration": 0.0331,
      "velocity": 109,
      "chip": "ym2612"
    },
    {
      "channel": 0,
      "note": 49,
      "start": 13.0452,
      "duration": 0.1165,
      "velocity": 95,
      "chip": "ym2612"
    },
    {
      "channel": 1,
      "note": 82,
      "start": 13.046,
      "duration": 0.1682,
      "velocity": 97,
      "chip": "ym2612"
    },
    {
      "channel": 2,
      "note": 78,
      "start": 13.0467,
      "duration": 0.1681,
      "velocity": 97,
      "chip": "ym2612"
    },
    {
      "channel": 3,
      "note": 47,
      "start": 13.0474,
      "duration": 0.143,
      "velocity": 95,
      "chip": "ym2612"
    },
    {
      "channel": 4,
      "note": 95,
      "start": 13.0487,
      "duration": 0.1148,
      "velocity": 109,
      "chip": "ym2612"
    },
    {
      "channel": 4,
      "note": 95,
      "start": 13.1642,
      "duration": 0.0273,
      "velocity": 109,
      "chip": "ym2612"
    },
    {
      "channel": 3,
      "note": 44,
      "start": 13.191,
      "duration": 0.0247,
      "velocity": 95,
      "chip": "ym2612"
    },
    {
      "channel": 1,
      "note": 80,
      "start": 13.2148,
      "duration": 0.1041,
      "velocity": 97,
      "chip": "ym2612"
    },
    {
      "channel": 2,
      "note": 77,
      "start": 13.2155,
      "duration": 0.1041,
      "velocity": 97,
      "chip": "ym2612"
    },
    {
      "channel": 3,
      "note": 47,
      "start": 13.2162,
      "duration": 0.0233,
      "velocity": 95,
      "chip": "ym2612"
    },
    {
      "channel": 3,
      "note": 49,
      "start": 13.2401,
      "duration": 0.0804,
      "velocity": 95,
      "chip": "ym2612"
    },
    {
      "channel": 4,
      "note": 90,
      "start": 13.2409,
      "duration": 0.0825,
      "velocity": 109,
      "chip": "ym2612"
    },
    {
      "channel": 0,
      "note": 37,
      "start": 13.3187,
      "duration": 0.0324,
      "velocity": 95,
      "chip": "ym2612"
    },
    {
      "channel": 1,
      "note": 83,
      "start": 13.3195,
      "duration": 0.0908,
      "velocity": 97,
      "chip": "ym2612"
    },
    {
      "channel": 2,
      "note": 78,
      "start": 13.3202,
      "duration": 0.0907,
      "velocity": 97,
      "chip": "ym2612"
    },
    {
      "channel": 4,
      "note": 97,
      "start": 13.3241,
      "duration": 0.0296,
      "velocity": 109,
      "chip": "ym2612"
    },
    {
      "channel": 0,
      "note": 37,
      "start": 13.3516,
      "duration": 0.1442,
      "velocity": 95,
      "chip": "ym2612"
    },
    {
      "channel": 3,
      "note": 42,
      "start": 13.3531,
      "duration": 0.0289,
      "velocity": 95,
      "chip": "ym2612"
    },
    {
      "channel": 4,
      "note": 97,
      "start": 13.3543,
      "duration": 0.029,
      "velocity": 109,
      "chip": "ym2612"
    },
    {
      "channel": 3,
      "note": 44,
      "start": 13.3826,
      "duration": 0.0292,
      "velocity": 95,
      "chip": "ym2612"
    },
    {
      "channel": 4,
      "note": 92,
      "start": 13.3839,
      "duration": 0.0286,
      "velocity": 109,
      "chip": "ym2612"
    },
    {
      "channel": 1,
      "note": 85,
      "start": 13.4109,
      "duration": 0.0856,
      "velocity": 97,
      "chip": "ym2612"
    },
    {
      "channel": 2,
      "note": 80,
      "start": 13.4116,
      "duration": 0.0856,
      "velocity": 97,
      "chip": "ym2612"
    },
    {
      "channel": 4,
      "note": 92,
      "start": 13.4131,
      "duration": 0.0265,
      "velocity": 109,
      "chip": "ym2612"
    },
    {
      "channel": 3,
      "note": 47,
      "start": 13.439,
      "duration": 0.0294,
      "velocity": 95,
      "chip": "ym2612"
    },
    {
      "channel": 4,
      "note": 95,
      "start": 13.4402,
      "duration": 0.0288,
      "velocity": 109,
      "chip": "ym2612"
    },
    {
      "channel": 4,
      "note": 95,
      "start": 13.4697,
      "duration": 0.0293,
      "velocity": 109,
      "chip": "ym2612"
    },
    {
      "channel": 0,
      "note": 37,
      "start": 13.4963,
      "duration": 0.0566,
      "velocity": 95,
      "chip": "ym2612"
    },
    {
      "channel": 1,
      "note": 80,
      "start": 13.4971,
      "duration": 0.3032,
      "velocity": 97,
      "chip": "ym2612"
    },
    {
      "channel": 2,
      "note": 73,
      "start": 13.4978,
      "duration": 0.3027,
      "velocity": 97,
      "chip": "ym2612"
    },
    {
      "channel": 3,
      "note": 44,
      "start": 13.4985,
      "duration": 0.0298,
      "velocity": 95,
      "chip": "ym2612"
    },
    {
      "channel": 0,
      "note": 37,
      "start": 13.5535,
      "duration": 0.0862,
      "velocity": 95,
      "chip": "ym2612"
    },
    {
      "channel": 3,
      "note": 47,
      "start": 13.555,
      "duration": 0.057,
      "velocity": 95,
      "chip": "ym2612"
    },
    {
      "channel": 4,
      "note": 97,
      "start": 13.556,
      "duration": 0.0286,
      "velocity": 109,
      "chip": "ym2612"
    },
    {
      "channel": 4,
      "note": 92,
      "start": 13.5852,
      "duration": 0.0279,
      "velocity": 109,
      "chip": "ym2612"
    },
    {
      "channel": 3,
      "note": 44,
      "start": 13.6126,
      "duration": 0.0287,
      "velocity": 95,
      "chip": "ym2612"
    },
    {
      "channel": 4,
      "note": 92,
      "start": 13.6138,
      "duration": 0.0288,
      "velocity": 109,
      "chip": "ym2612"
    },
    {
      "channel": 0,
      "note": 49,
      "start": 13.6404,
      "duration": 0.1036,
      "velocity": 95,
      "chip": "ym2612"
    },
    {
      "channel": 3,
      "note": 47,
      "start": 13.6419,
      "duration": 0.1343,
      "velocity": 95,
      "chip": "ym2612"
    },
    {
      "channel": 4,
      "note": 95,
      "start": 13.6432,
      "duration": 0.1027,
      "velocity": 109,
      "chip": "ym2612"
    },
    {
      "channel": 4,
      "note": 95,
      "start": 13.7465,
      "duration": 0.0307,
      "velocity": 109,
      "chip": "ym2612"
    },
    {
      "channel": 3,
      "note": 44,
      "start": 13.7767,
      "duration": 0.0241,
      "velocity": 95,
      "chip": "ym2612"
    },
    {
      "channel": 3,
      "note": 47,
      "start": 13.8014,
      "duration": 0.0207,
      "velocity": 95,
      "chip": "ym2612"
    },
    {
      "channel": 0,
      "note": 49,
      "start": 13.8204,
      "duration": 0.0971,
      "velocity": 95,
      "chip": "ym2612"
    },
    {
      "channel": 1,
      "note": 83,
      "start": 13.8211,
      "duration": 0.1558,
      "velocity": 97,
      "chip": "ym2612"
    },
    {
      "channel": 2,
      "note": 80,
      "start": 13.8219,
      "duration": 0.1556,
      "velocity": 97,
      "chip": "ym2612"
    },
    {
      "channel": 3,
      "note": 49,
      "start": 13.8226,
      "duration": 0.0969,
      "velocity": 95,
      "chip": "ym2612"
    },
    {
      "channel": 4,
      "note": 90,
      "start": 13.8234,
      "duration": 0.099,
      "velocity": 109,
      "chip": "ym2612"
    },
    {
      "channel": 0,
      "note": 37,
      "start": 13.9181,
      "duration": 0.2653,
      "velocity": 95,
      "chip": "ym2612"
    },
    {
      "channel": 4,
      "note": 97,
      "start": 13.923,
      "duration": 0.0265,
      "velocity": 109,
      "chip": "ym2612"
    },
    {
      "channel": 3,
      "note": 42,
      "start": 13.949,
      "duration": 0.0291,
      "velocity": 95,
      "chip": "ym2612"
    },
    {
      "channel": 4,
      "note": 97,
      "start": 13.9502,
      "duration": 0.0291,
      "velocity": 109,
      "chip": "ym2612"
    },
    {
      "channel": 1,
      "note": 83,
      "start": 13.9774,
      "duration": 0.1477,
      "velocity": 97,
      "chip": "ym2612"
    },
    {
      "channel": 2,
      "note": 80,
      "start": 13.978,
      "duration": 0.1479,
      "velocity": 97,
      "chip": "ym2612"
    },
    {
      "channel": 3,
      "note": 44,
      "start": 13.9787,
      "duration": 0.0315,
      "velocity": 95,
      "chip": "ym2612"
    },
    {
      "channel": 4,
      "note": 92,
      "start": 13.9799,
      "duration": 0.0309,
      "velocity": 109,
      "chip": "ym2612"
    },
    {
      "channel": 4,
      "note": 92,
      "start": 14.0115,
      "duration": 0.1164,
      "velocity": 109,
      "chip": "ym2612"
    },
    {
      "channel": 1,
      "note": 82,
      "start": 14.1258,
      "duration": 0.0583,
      "velocity": 97,
      "chip": "ym2612"
    },
    {
      "channel": 2,
      "note": 78,
      "start": 14.1265,
      "duration": 0.0583,
      "velocity": 97,
      "chip": "ym2612"
    },
    {
      "channel": 3,
      "note": 47,
      "start": 14.1272,
      "duration": 0.0288,
      "velocity": 95,
      "chip": "ym2612"
    },
    {
      "channel": 4,
      "note": 95,
      "start": 14.1285,
      "duration": 0.0282,
      "velocity": 109,
      "chip": "ym2612"
    },
    {
      "channel": 4,
      "note": 95,
      "start": 14.1573,
      "duration": 0.0293,
      "velocity": 109,
      "chip": "ym2612"
    },
    {
      "channel": 0,
      "note": 37,
      "start": 14.1839,
      "duration": 0.0523,
      "velocity": 95,
      "chip": "ym2612"
    },
    {
      "channel": 1,
      "note": 80,
      "start": 14.1847,
      "duration": 0.0522,
      "velocity": 97,
      "chip": "ym2612"
    },
    {
      "channel": 2,
      "note": 77,
      "start": 14.1854,
      "duration": 0.0523,
      "velocity": 97,
      "chip": "ym2612"
    },
    {
      "channel": 3,
      "note": 44,
      "start": 14.1861,
      "duration": 0.0265,
      "velocity": 95,
      "chip": "ym2612"
    },
    {
      "channel": 0,
      "note": 37,
      "start": 14.2366,
      "duration": 0.0902,
      "velocity": 95,
      "chip": "ym2612"
    },
    {
      "channel": 1,
      "note": 83,
      "start": 14.2375,
      "duration": 0.0901,
      "velocity": 97,
      "chip": "ym2612"
    },
    {
      "channel": 2,
      "note": 78,
      "start": 14.2383,
      "duration": 0.09,
      "velocity": 97,
      "chip": "ym2612"
    },
    {
      "channel": 3,
      "note": 47,
      "start": 14.239,
      "duration": 0.06,
      "velocity": 95,
      "chip": "ym2612"
    },
    {
      "channel": 4,
      "note": 97,
      "start": 14.24,
      "duration": 0.0317,
      "velocity": 109,
      "chip": "ym2612"
    },
    {
      "channel": 4,
      "note": 92,
      "start": 14.2724,
      "duration": 0.0278,
      "velocity": 109,
      "chip": "ym2612"
    },
    {
      "channel": 3,
      "note": 44,
      "start": 14.2997,
      "duration": 0.0295,
      "velocity": 95,
      "chip": "ym2612"
    },
    {
      "channel": 4,
      "note": 92,
      "start": 14.3008,
      "duration": 0.0295,
      "velocity": 109,
      "chip": "ym2612"
    },
    {
      "channel": 0,
      "note": 49,
      "start": 14.3275,
      "duration": 0.1163,
      "velocity": 95,
      "chip": "ym2612"
    },
    {
      "channel": 1,
      "note": 85,
      "start": 14.3283,
      "duration": 0.168,
      "velocity": 97,
      "chip": "ym2612"
    },
    {
      "channel": 2,
      "note": 80,
      "start": 14.329,
      "duration": 0.168,
      "velocity": 97,
      "chip": "ym2612"
    },
    {
      "channel": 3,
      "note": 47,
      "start": 14.3297,
      "duration": 0.1428,
      "velocity": 95,
      "chip": "ym2612"
    },
    {
      "channel": 4,
      "note": 95,
      "start": 14.331,
      "duration": 0.1147,
      "velocity": 109,
      "chip": "ym2612"
    },
    {
      "channel": 4,
      "note": 95,
      "start": 14.4463,
      "duration": 0.0272,
      "velocity": 109,
      "chip": "ym2612"
    },
    {
      "channel": 3,
      "note": 44,
      "start": 14.4731,
      "duration": 0.0247,
      "velocity": 95,
      "chip": "ym2612"
    },
    {
      "channel": 1,
      "note": 80,
      "start": 14.4969,
      "duration": 0.7273,
      "velocity": 97,
      "chip": "ym2612"
    },
    {
      "channel": 2,
      "note": 73,
      "start": 14.4977,
      "duration": 0.2318,
      "velocity": 112,
      "chip": "ym2612"
    },
    {
      "channel": 3,
      "note": 47,
      "start": 14.4984,
      "duration": 0.0264,
      "velocity": 95,
      "chip": "ym2612"
    },
    {
      "channel": 3,
      "note": 49,
      "start": 14.5253,
      "duration": 0.0938,
      "velocity": 95,
      "chip": "ym2612"
    },
    {
      "channel": 4,
      "note": 90,
      "start": 14.5261,
      "duration": 0.0959,
      "velocity": 112,
      "chip": "ym2612"
    },
    {
      "channel": 0,
      "note": 37,
      "start": 14.6175,
      "duration": 0.0275,
      "velocity": 95,
      "chip": "ym2612"
    },
    {
      "channel": 0,
      "note": 37,
      "start": 14.6456,
      "duration": 0.1391,
      "velocity": 95,
      "chip": "ym2612"
    },
    {
      "channel": 3,
      "note": 42,
      "start": 14.6471,
      "duration": 0.0264,
      "velocity": 95,
      "chip": "ym2612"
    },
    {
      "channel": 3,
      "note": 44,
      "start": 14.674,
      "duration": 0.0256,
      "velocity": 95,
      "chip": "ym2612"
    },
    {
      "channel": 2,
      "note": 68,
      "start": 14.7301,
      "duration": 0.0283,
      "velocity": 112,
      "chip": "ym2612"
    },
    {
      "channel": 3,
      "note": 47,
      "start": 14.7308,
      "duration": 0.0279,
      "velocity": 95,
      "chip": "ym2612"
    },
    {
      "channel": 4,
      "note": 61,
      "start": 14.7316,
      "duration": 0.0275,
      "velocity": 112,
      "chip": "ym2612"
    },
    {
      "channel": 2,
      "note": 68,
      "start": 14.7655,
      "duration": 0.0207,
      "velocity": 112,
      "chip": "ym2612"
    },
    {
      "channel": 4,
      "note": 61,
      "start": 14.7668,
      "duration": 0.0213,
      "velocity": 112,
      "chip": "ym2612"
    },
    {
      "channel": 0,
      "note": 37,
      "start": 14.7852,
      "duration": 0.0568,
      "velocity": 95,
      "chip": "ym2612"
    },
    {
      "channel": 2,
      "note": 63,
      "start": 14.7868,
      "duration": 0.0288,
      "velocity": 112,
      "chip": "ym2612"
    },
    {
      "channel": 3,
      "note": 44,
      "start": 14.7875,
      "duration": 0.0284,
      "velocity": 95,
      "chip": "ym2612"
    },
    {
      "channel": 4,
      "note": 56,
      "start": 14.7888,
      "duration": 0.0275,
      "velocity": 112,
      "chip": "ym2612"
    },
    {
      "channel": 2,
      "note": 63,
      "start": 14.8253,
      "duration": 0.0183,
      "velocity": 112,
      "chip": "ym2612"
    },
    {
      "channel": 4,
      "note": 56,
      "start": 14.8267,
      "duration": 0.0189,
      "velocity": 112,
      "chip": "ym2612"
    },
    {
      "channel": 0,
      "note": 37,
      "start": 14.8426,
      "duration": 0.0872,
      "velocity": 95,
      "chip": "ym2612"
    },
    {
      "channel": 2,
      "note": 66,
      "start": 14.8442,
      "duration": 0.0867,
      "velocity": 112,
      "chip": "ym2612"
    },
    {
      "channel": 3,
      "note": 47,
      "start": 14.8449,
      "duration": 0.0586,
      "velocity": 95,
      "chip": "ym2612"
    },
    {
      "channel": 4,
      "note": 59,
      "start": 14.8462,
      "duration": 0.0862,
      "velocity": 112,
      "chip": "ym2612"
    },
    {
      "channel": 3,
      "note": 44,
      "start": 14.9041,
      "duration": 0.0276,
      "velocity": 95,
      "chip": "ym2612"
    },
    {
      "channel": 0,
      "note": 49,
      "start": 14.9304,
      "duration": 0.1195,
      "velocity": 95,
      "chip": "ym2612"
    },
    {
      "channel": 2,
      "note": 68,
      "start": 14.9315,
      "duration": 0.1195,
      "velocity": 112,
      "chip": "ym2612"
    },
    {
      "channel": 3,
      "note": 47,
      "start": 14.9322,
      "duration": 0.1424,
      "velocity": 95,
      "chip": "ym2612"
    },
    {
      "channel": 4,
      "note": 61,
      "start": 14.933,
      "duration": 0.1187,
      "velocity": 112,
      "chip": "ym2612"
    },
    {
      "channel": 2,
      "note": 68,
      "start": 15.0745,
      "duration": 0.0267,
      "velocity": 112,
      "chip": "ym2612"
    },
    {
      "channel": 3,
      "note": 44,
      "start": 15.0752,
      "duration": 0.0262,
      "velocity": 95,
      "chip": "ym2612"
    },
    {
      "channel": 4,
      "note": 61,
      "start": 15.0764,
      "duration": 0.0257,
      "velocity": 112,
      "chip": "ym2612"
    },
    {
      "channel": 3,
      "note": 47,
      "start": 15.102,
      "duration": 0.0226,
      "velocity": 95,
      "chip": "ym2612"
    },
    {
      "channel": 0,
      "note": 49,
      "start": 15.1232,
      "duration": 0.1002,
      "velocity": 95,
      "chip": "ym2612"
    },
    {
      "channel": 2,
      "note": 68,
      "start": 15.1244,
      "duration": 0.104,
      "velocity": 97,
      "chip": "ym2612"
    },
    {
      "channel": 3,
      "note": 49,
      "start": 15.1251,
      "duration": 0.1044,
      "velocity": 95,
      "chip": "ym2612"
    },
    {
      "channel": 4,
      "note": 61,
      "start": 15.1263,
      "duration": 0.1068,
      "velocity": 109,
      "chip": "ym2612"
    },
    {
      "channel": 0,
      "note": 38,
      "start": 15.224,
      "duration": 0.2509,
      "velocity": 95,
      "chip": "ym2612"
    },
    {
      "channel": 1,
      "note": 84,
      "start": 15.225,
      "duration": 0.0918,
      "velocity": 97,
      "chip": "ym2612"
    },
    {
      "channel": 2,
      "note": 81,
      "start": 15.229,
      "duration": 0.0885,
      "velocity": 97,
      "chip": "ym2612"
    },
    {
      "channel": 4,
      "note": 98,
      "start": 15.2338,
      "duration": 0.0265,
      "velocity": 109,
      "chip": "ym2612"
    },
    {
      "channel": 3,
      "note": 43,
      "start": 15.2598,
      "duration": 0.0287,
      "velocity": 95,
      "chip": "ym2612"
    },
    {
      "channel": 4,
      "note": 98,
      "start": 15.2609,
      "duration": 0.0287,
      "velocity": 109,
      "chip": "ym2612"
    },
    {
      "channel": 3,
      "note": 45,
      "start": 15.289,
      "duration": 0.0294,
      "velocity": 95,
      "chip": "ym2612"
    },
    {
      "channel": 4,
      "note": 93,
      "start": 15.2902,
      "duration": 0.0287,
      "velocity": 109,
      "chip": "ym2612"
    },
    {
      "channel": 1,
      "note": 83,
      "start": 15.3175,
      "duration": 0.1581,
      "velocity": 97,
      "chip": "ym2612"
    },
    {
      "channel": 2,
      "note": 79,
      "start": 15.3182,
      "duration": 0.1581,
      "velocity": 97,
      "chip": "ym2612"
    },
    {
      "channel": 4,
      "note": 93,
      "start": 15.3197,
      "duration": 0.0966,
      "velocity": 109,
      "chip": "ym2612"
    },
    {
      "channel": 3,
      "note": 48,
      "start": 15.4156,
      "duration": 0.0294,
      "velocity": 95,
      "chip": "ym2612"
    },
    {
      "channel": 4,
      "note": 96,
      "start": 15.4169,
      "duration": 0.0288,
      "velocity": 109,
      "chip": "ym2612"
    },
    {
      "channel": 4,
      "note": 96,
      "start": 15.4463,
      "duration": 0.0319,
      "velocity": 109,
      "chip": "ym2612"
    },
    {
      "channel": 0,
      "note": 38,
      "start": 15.4754,
      "duration": 0.0522,
      "velocity": 95,
      "chip": "ym2612"
    },
    {
      "channel": 1,
      "note": 81,
      "start": 15.4762,
      "duration": 0.052,
      "velocity": 97,
      "chip": "ym2612"
    },
    {
      "channel": 2,
      "note": 78,
      "start": 15.477,
      "duration": 0.0521,
      "velocity": 97,
      "chip": "ym2612"
    },
    {
      "channel": 3,
      "note": 45,
      "start": 15.4777,
      "duration": 0.0265,
      "velocity": 95,
      "chip": "ym2612"
    },
    {
      "channel": 0,
      "note": 38,
      "start": 15.5281,
      "duration": 0.0867,
      "velocity": 95,
      "chip": "ym2612"
    },
    {
      "channel": 1,
      "note": 84,
      "start": 15.5289,
      "duration": 0.0866,
      "velocity": 97,
      "chip": "ym2612"
    },
    {
      "channel": 2,
      "note": 81,
      "start": 15.5297,
      "duration": 0.0866,
      "velocity": 97,
      "chip": "ym2612"
    },
    {
      "channel": 3,
      "note": 48,
      "start": 15.5304,
      "duration": 0.0566,
      "velocity": 95,
      "chip": "ym2612"
    },
    {
      "channel": 4,
      "note": 98,
      "start": 15.5313,
      "duration": 0.0281,
      "velocity": 109,
      "chip": "ym2612"
    },
    {
      "channel": 4,
      "note": 93,
      "start": 15.56,
      "duration": 0.028,
      "velocity": 109,
      "chip": "ym2612"
    },
    {
      "channel": 3,
      "note": 45,
      "start": 15.5875,
      "duration": 0.0296,
      "velocity": 95,
      "chip": "ym2612"
    },
    {
      "channel": 4,
      "note": 93,
      "start": 15.5886,
      "duration": 0.0296,
      "velocity": 109,
      "chip": "ym2612"
    },
    {
      "channel": 0,
      "note": 50,
      "start": 15.6154,
      "duration": 0.12,
      "velocity": 95,
      "chip": "ym2612"
    },
    {
      "channel": 1,
      "note": 83,
      "start": 15.6162,
      "duration": 0.1715,
      "velocity": 97,
      "chip": "ym2612"
    },
    {
      "channel": 2,
      "note": 79,
      "start": 15.6169,
      "duration": 0.1716,
      "velocity": 97,
      "chip": "ym2612"
    },
    {
      "channel": 3,
      "note": 48,
      "start": 15.6176,
      "duration": 0.1465,
      "velocity": 95,
      "chip": "ym2612"
    },
    {
      "channel": 4,
      "note": 96,
      "start": 15.6189,
      "duration": 0.1183,
      "velocity": 109,
      "chip": "ym2612"
    },
    {
      "channel": 4,
      "note": 96,
      "start": 15.7379,
      "duration": 0.0273,
      "velocity": 109,
      "chip": "ym2612"
    },
    {
      "channel": 3,
      "note": 45,
      "start": 15.7647,
      "duration": 0.0246,
      "velocity": 95,
      "chip": "ym2612"
    },
    {
      "channel": 1,
      "note": 81,
      "start": 15.7884,
      "duration": 0.1042,
      "velocity": 97,
      "chip": "ym2612"
    },
    {
      "channel": 2,
      "note": 78,
      "start": 15.7892,
      "duration": 0.1042,
      "velocity": 97,
      "chip": "ym2612"
    },
    {
      "channel": 3,
      "note": 48,
      "start": 15.7899,
      "duration": 0.0233,
      "velocity": 95,
      "chip": "ym2612"
    },
    {
      "channel": 3,
      "note": 50,
      "start": 15.8137,
      "duration": 0.0805,
      "velocity": 95,
      "chip": "ym2612"
    },
    {
      "channel": 4,
      "note": 91,
      "start": 15.8145,
      "duration": 0.0804,
      "velocity": 109,
      "chip": "ym2612"
    },
    {
      "channel": 0,
      "note": 38,
      "start": 15.8924,
      "duration": 0.0275,
      "velocity": 95,
      "chip": "ym2612"
    },
    {
      "channel": 1,
      "note": 84,
      "start": 15.8932,
      "duration": 0.0893,
      "velocity": 97,
      "chip": "ym2612"
    },
    {
      "channel": 2,
      "note": 79,
      "start": 15.894,
      "duration": 0.0892,
      "velocity": 97,
      "chip": "ym2612"
    },
    {
      "channel": 4,
      "note": 98,
      "start": 15.8955,
      "duration": 0.0269,
      "velocity": 109,
      "chip": "ym2612"
    },
    {
      "channel": 0,
      "note": 38,
      "start": 15.9204,
      "duration": 0.1476,
      "velocity": 95,
      "chip": "ym2612"
    },
    {
      "channel": 3,
      "note": 43,
      "start": 15.9219,
      "duration": 0.0324,
      "velocity": 95,
      "chip": "ym2612"
    },
    {
      "channel": 4,
      "note": 98,
      "start": 15.923,
      "duration": 0.0325,
      "velocity": 109,
      "chip": "ym2612"
    },
    {
      "channel": 3,
      "note": 45,
      "start": 15.9549,
      "duration": 0.0291,
      "velocity": 95,
      "chip": "ym2612"
    },
    {
      "channel": 4,
      "note": 93,
      "start": 15.9561,
      "duration": 0.0285,
      "velocity": 109,
      "chip": "ym2612"
    },
    {
      "channel": 1,
      "note": 86,
      "start": 15.9831,
      "duration": 0.0855,
      "velocity": 97,
      "chip": "ym2612"
    },
    {
      "channel": 2,
      "note": 81,
      "start": 15.9839,
      "duration": 0.0856,
      "velocity": 97,
      "chip": "ym2612"
    },
    {
      "channel": 4,
      "note": 93,
      "start": 15.9853,
      "duration": 0.0265,
      "velocity": 109,
      "chip": "ym2612"
    },
    {
      "channel": 3,
      "note": 48,
      "start": 16.0112,
      "duration": 0.0294,
      "velocity": 95,
      "chip": "ym2612"
    },
    {
      "channel": 4,
      "note": 96,
      "start": 16.0124,
      "duration": 0.0288,
      "velocity": 109,
      "chip": "ym2612"
    },
    {
      "channel": 4,
      "note": 96,
      "start": 16.0418,
      "duration": 0.0294,
      "velocity": 109,
      "chip": "ym2612"
    },
    {
      "channel": 0,
      "note": 38,
      "start": 16.0685,
      "duration": 0.0565,
      "velocity": 95,
      "chip": "ym2612"
    },
    {
      "channel": 1,
      "note": 81,
      "start": 16.0693,
      "duration": 0.3028,
      "velocity": 97,
      "chip": "ym2612"
    },
    {
      "channel": 2,
      "note": 74,
      "start": 16.07,
      "duration": 0.3023,
      "velocity": 97,
      "chip": "ym2612"
    },
    {
      "channel": 3,
      "note": 45,
      "start": 16.0707,
      "duration": 0.0265,
      "velocity": 95,
      "chip": "ym2612"
    },
    {
      "channel": 0,
      "note": 38,
      "start": 16.1256,
      "duration": 0.0862,
      "velocity": 95,
      "chip": "ym2612"
    },
    {
      "channel": 3,
      "note": 48,
      "start": 16.1271,
      "duration": 0.057,
      "velocity": 95,
      "chip": "ym2612"
    },
    {
      "channel": 4,
      "note": 98,
      "start": 16.128,
      "duration": 0.0286,
      "velocity": 109,
      "chip": "ym2612"
    },
    {
      "channel": 4,
      "note": 93,
      "start": 16.1573,
      "duration": 0.0279,
      "velocity": 109,
      "chip": "ym2612"
    },
    {
      "channel": 3,
      "note": 45,
      "start": 16.1846,
      "duration": 0.0288,
      "velocity": 95,
      "chip": "ym2612"
    },
    {
      "channel": 4,
      "note": 93,
      "start": 16.1858,
      "duration": 0.0288,
      "velocity": 109,
      "chip": "ym2612"
    },
    {
      "channel": 0,
      "note": 50,
      "start": 16.2124,
      "duration": 0.1036,
      "velocity": 95,
      "chip": "ym2612"
    },
    {
      "channel": 3,
      "note": 48,
      "start": 16.214,
      "duration": 0.131,
      "velocity": 95,
      "chip": "ym2612"
    },
    {
      "channel": 4,
      "note": 96,
      "start": 16.2152,
      "duration": 0.1027,
      "velocity": 109,
      "chip": "ym2612"
    },
    {
      "channel": 4,
      "note": 96,
      "start": 16.3186,
      "duration": 0.0275,
      "velocity": 109,
      "chip": "ym2612"
    },
    {
      "channel": 3,
      "note": 45,
      "start": 16.3455,
      "duration": 0.0272,
      "velocity": 95,
      "chip": "ym2612"
    },
    {
      "channel": 3,
      "note": 48,
      "start": 16.3732,
      "duration": 0.0206,
      "velocity": 95,
      "chip": "ym2612"
    },
    {
      "channel": 0,
      "note": 50,
      "start": 16.3922,
      "duration": 0.0974,
      "velocity": 95,
      "chip": "ym2612"
    },
    {
      "channel": 1,
      "note": 84,
      "start": 16.3929,
      "duration": 0.1539,
      "velocity": 97,
      "chip": "ym2612"
    },
    {
      "channel": 2,
      "note": 81,
      "start": 16.3937,
      "duration": 0.1537,
      "velocity": 97,
      "chip": "ym2612"
    },
    {
      "channel": 3,
      "note": 50,
      "start": 16.3944,
      "duration": 0.0973,
      "velocity": 95,
      "chip": "ym2612"
    },
    {
      "channel": 4,
      "note": 91,
      "start": 16.3952,
      "duration": 0.0971,
      "velocity": 109,
      "chip": "ym2612"
    },
    {
      "channel": 0,
      "note": 38,
      "start": 16.4902,
      "duration": 0.2652,
      "velocity": 95,
      "chip": "ym2612"
    },
    {
      "channel": 4,
      "note": 98,
      "start": 16.4929,
      "duration": 0.0266,
      "velocity": 109,
      "chip": "ym2612"
    },
    {
      "channel": 3,
      "note": 43,
      "start": 16.519,
      "duration": 0.0291,
      "velocity": 95,
      "chip": "ym2612"
    },
    {
      "channel": 4,
      "note": 98,
      "start": 16.5201,
      "duration": 0.0292,
      "velocity": 109,
      "chip": "ym2612"
    },
    {
      "channel": 1,
      "note": 84,
      "start": 16.5473,
      "duration": 0.1499,
      "velocity": 97,
      "chip": "ym2612"
    },
    {
      "channel": 2,
      "note": 81,
      "start": 16.5479,
      "duration": 0.1501,
      "velocity": 97,
      "chip": "ym2612"
    },
    {
      "channel": 3,
      "note": 45,
      "start": 16.5486,
      "duration": 0.0315,
      "velocity": 95,
      "chip": "ym2612"
    },
    {
      "channel": 4,
      "note": 93,
      "start": 16.5499,
      "duration": 0.0309,
      "velocity": 109,
      "chip": "ym2612"
    },
    {
      "channel": 4,
      "note": 93,
      "start": 16.5815,
      "duration": 0.1185,
      "velocity": 109,
      "chip": "ym2612"
    },
    {
      "channel": 1,
      "note": 83,
      "start": 16.6979,
      "duration": 0.0581,
      "velocity": 97,
      "chip": "ym2612"
    },
    {
      "channel": 2,
      "note": 79,
      "start": 16.6987,
      "duration": 0.0581,
      "velocity": 97,
      "chip": "ym2612"
    },
    {
      "channel": 3,
      "note": 48,
      "start": 16.6994,
      "duration": 0.0287,
      "velocity": 95,
      "chip": "ym2612"
    },
    {
      "channel": 4,
      "note": 96,
      "start": 16.7006,
      "duration": 0.0281,
      "velocity": 109,
      "chip": "ym2612"
    },
    {
      "channel": 4,
      "note": 96,
      "start": 16.7293,
      "duration": 0.0292,
      "velocity": 109,
      "chip": "ym2612"
    },
    {
      "channel": 0,
      "note": 38,
      "start": 16.7559,
      "duration": 0.0522,
      "velocity": 95,
      "chip": "ym2612"
    },
    {
      "channel": 1,
      "note": 81,
      "start": 16.7566,
      "duration": 0.0522,
      "velocity": 97,
      "chip": "ym2612"
    },
    {
      "channel": 2,
      "note": 78,
      "start": 16.7574,
      "duration": 0.0524,
      "velocity": 97,
      "chip": "ym2612"
    },
    {
      "channel": 3,
      "note": 45,
      "start": 16.7581,
      "duration": 0.0264,
      "velocity": 95,
      "chip": "ym2612"
    },
    {
      "channel": 0,
      "note": 38,
      "start": 16.8086,
      "duration": 0.0904,
      "velocity": 95,
      "chip": "ym2612"
    },
    {
      "channel": 1,
      "note": 84,
      "start": 16.8095,
      "duration": 0.0902,
      "velocity": 97,
      "chip": "ym2612"
    },
    {
      "channel": 2,
      "note": 79,
      "start": 16.8104,
      "duration": 0.0901,
      "velocity": 97,
      "chip": "ym2612"
    },
    {
      "channel": 3,
      "note": 48,
      "start": 16.8111,
      "duration": 0.0601,
      "velocity": 95,
      "chip": "ym2612"
    },
    {
      "channel": 4,
      "note": 98,
      "start": 16.812,
      "duration": 0.0317,
      "velocity": 109,
      "chip": "ym2612"
    },
    {
      "channel": 4,
      "note": 93,
      "start": 16.8444,
      "duration": 0.0279,
      "velocity": 109,
      "chip": "ym2612"
    },
    {
      "channel": 3,
      "note": 45,
      "start": 16.8718,
      "duration": 0.0295,
      "velocity": 95,
      "chip": "ym2612"
    },
    {
      "channel": 4,
      "note": 93,
      "start": 16.8729,
      "duration": 0.0295,
      "velocity": 109,
      "chip": "ym2612"
    },
    {
      "channel": 0,
      "note": 50,
      "start": 16.8996,
      "duration": 0.1162,
      "velocity": 95,
      "chip": "ym2612"
    },
    {
      "channel": 1,
      "note": 86,
      "start": 16.9003,
      "duration": 0.1679,
      "velocity": 97,
      "chip": "ym2612"
    },
    {
      "channel": 2,
      "note": 81,
      "start": 16.9011,
      "duration": 0.1679,
      "velocity": 97,
      "chip": "ym2612"
    },
    {
      "channel": 3,
      "note": 48,
      "start": 16.9018,
      "duration": 0.1427,
      "velocity": 95,
      "chip": "ym2612"
    },
    {
      "channel": 4,
      "note": 96,
      "start": 16.9031,
      "duration": 0.1145,
      "velocity": 109,
      "chip": "ym2612"
    },
    {
      "channel": 4,
      "note": 96,
      "start": 17.0183,
      "duration": 0.0273,
      "velocity": 109,
      "chip": "ym2612"
    },
    {
      "channel": 3,
      "note": 45,
      "start": 17.0451,
      "duration": 0.0248,
      "velocity": 95,
      "chip": "ym2612"
    },
    {
      "channel": 1,
      "note": 86,
      "start": 17.0689,
      "duration": 0.7149,
      "velocity": 97,
      "chip": "ym2612"
    },
    {
      "channel": 2,
      "note": 81,
      "start": 17.0697,
      "duration": 0.1233,
      "velocity": 112,
      "chip": "ym2612"
    },
    {
      "channel": 3,
      "note": 48,
      "start": 17.0703,
      "duration": 0.0266,
      "velocity": 95,
      "chip": "ym2612"
    },
    {
      "channel": 3,
      "note": 50,
      "start": 17.0974,
      "duration": 0.0964,
      "velocity": 95,
      "chip": "ym2612"
    },
    {
      "channel": 4,
      "note": 91,
      "start": 17.0983,
      "duration": 0.0985,
      "velocity": 112,
      "chip": "ym2612"
    },
    {
      "channel": 0,
      "note": 38,
      "start": 17.1895,
      "duration": 0.0317,
      "velocity": 95,
      "chip": "ym2612"
    },
    {
      "channel": 2,
      "note": 72,
      "start": 17.1936,
      "duration": 0.0465,
      "velocity": 112,
      "chip": "ym2612"
    },
    {
      "channel": 4,
      "note": 69,
      "start": 17.1974,
      "duration": 0.0546,
      "velocity": 112,
      "chip": "ym2612"
    },
    {
      "channel": 0,
      "note": 38,
      "start": 17.2217,
      "duration": 0.1405,
      "velocity": 95,
      "chip": "ym2612"
    },
    {
      "channel": 3,
      "note": 43,
      "start": 17.2231,
      "duration": 0.0278,
      "velocity": 95,
      "chip": "ym2612"
    },
    {
      "channel": 2,
      "note": 72,
      "start": 17.2507,
      "duration": 0.0468,
      "velocity": 112,
      "chip": "ym2612"
    },
    {
      "channel": 3,
      "note": 45,
      "start": 17.2514,
      "duration": 0.0276,
      "velocity": 95,
      "chip": "ym2612"
    },
    {
      "channel": 4,
      "note": 69,
      "start": 17.2527,
      "duration": 0.0538,
      "velocity": 112,
      "chip": "ym2612"
    },
    {
      "channel": 2,
      "note": 71,
      "start": 17.3051,
      "duration": 0.0477,
      "velocity": 112,
      "chip": "ym2612"
    },
    {
      "channel": 3,
      "note": 48,
      "start": 17.3058,
      "duration": 0.0318,
      "velocity": 95,
      "chip": "ym2612"
    },
    {
      "channel": 4,
      "note": 67,
      "start": 17.307,
      "duration": 0.0586,
      "velocity": 112,
      "chip": "ym2612"
    },
    {
      "channel": 0,
      "note": 38,
      "start": 17.3627,
      "duration": 0.0549,
      "velocity": 95,
      "chip": "ym2612"
    },
    {
      "channel": 2,
      "note": 71,
      "start": 17.3644,
      "duration": 0.0444,
      "velocity": 112,
      "chip": "ym2612"
    },
    {
      "channel": 3,
      "note": 45,
      "start": 17.365,
      "duration": 0.0283,
      "velocity": 95,
      "chip": "ym2612"
    },
    {
      "channel": 4,
      "note": 67,
      "start": 17.3663,
      "duration": 0.0544,
      "velocity": 112,
      "chip": "ym2612"
    },
    {
      "channel": 0,
      "note": 38,
      "start": 17.4181,
      "duration": 0.0802,
      "velocity": 95,
      "chip": "ym2612"
    },
    {
      "channel": 3,
      "note": 48,
      "start": 17.42,
      "duration": 0.0483,
      "velocity": 95,
      "chip": "ym2612"
    },
    {
      "channel": 2,
      "note": 69,
      "start": 17.4681,
      "duration": 0.0314,
      "velocity": 112,
      "chip": "ym2612"
    },
    {
      "channel": 3,
      "note": 45,
      "start": 17.4688,
      "duration": 0.0314,
      "velocity": 95,
      "chip": "ym2612"
    },
    {
      "channel": 4,
      "note": 62,
      "start": 17.4696,
      "duration": 0.0314,
      "velocity": 112,
      "chip": "ym2612"
    },
    {
      "channel": 0,
      "note": 50,
      "start": 17.499,
      "duration": 0.1264,
      "velocity": 95,
      "chip": "ym2612"
    },
    {
      "channel": 2,
      "note": 67,
      "start": 17.5001,
      "duration": 0.126,
      "velocity": 112,
      "chip": "ym2612"
    },
    {
      "channel": 3,
      "note": 48,
      "start": 17.5008,
      "duration": 0.1531,
      "velocity": 95,
      "chip": "ym2612"
    },
    {
      "channel": 4,
      "note": 60,
      "start": 17.5016,
      "duration": 0.1257,
      "velocity": 112,
      "chip": "ym2612"
    },
    {
      "channel": 2,
      "note": 69,
      "start": 17.6267,
      "duration": 0.0264,
      "velocity": 112,
      "chip": "ym2612"
    },
    {
      "channel": 4,
      "note": 62,
      "start": 17.6278,
      "duration": 0.0268,
      "velocity": 112,
      "chip": "ym2612"
    },
    {
      "channel": 2,
      "note": 69,
      "start": 17.6538,
      "duration": 0.1306,
      "velocity": 112,
      "chip": "ym2612"
    },
    {
      "channel": 3,
      "note": 45,
      "start": 17.6545,
      "duration": 0.0252,
      "velocity": 95,
      "chip": "ym2612"
    },
    {
      "channel": 4,
      "note": 62,
      "start": 17.6552,
      "duration": 0.1311,
      "velocity": 112,
      "chip": "ym2612"
    },
    {
      "channel": 3,
      "note": 48,
      "start": 17.6803,
      "duration": 0.0253,
      "velocity": 95,
      "chip": "ym2612"
    },
    {
      "channel": 0,
      "note": 50,
      "start": 17.7048,
      "duration": 0.0773,
      "velocity": 95,
      "chip": "ym2612"
    },
    {
      "channel": 3,
      "note": 50,
      "start": 17.7062,
      "duration": 0.0794,
      "velocity": 95,
      "chip": "ym2612"
    },
    {
      "channel": 0,
      "note": 42,
      "start": 17.7828,
      "duration": 0.2635,
      "velocity": 95,
      "chip": "ym2612"
    },
    {
      "channel": 2,
      "note": 69,
      "start": 17.785,
      "duration": 0.0527,
      "velocity": 112,
      "chip": "ym2612"
    },
    {
      "channel": 4,
      "note": 61,
      "start": 17.787,
      "duration": 0.0526,
      "velocity": 112,
      "chip": "ym2612"
    },
    {
      "channel": 3,
      "note": 40,
      "start": 17.8131,
      "duration": 0.0254,
      "velocity": 95,
      "chip": "ym2612"
    },
    {
      "channel": 2,
      "note": 69,
      "start": 17.8383,
      "duration": 0.1548,
      "velocity": 112,
      "chip": "ym2612"
    },
    {
      "channel": 3,
      "note": 42,
      "start": 17.839,
      "duration": 0.025,
      "velocity": 95,
      "chip": "ym2612"
    },
    {
      "channel": 4,
      "note": 61,
      "start": 17.8402,
      "duration": 0.1548,
      "velocity": 112,
      "chip": "ym2612"
    },
    {
      "channel": 1,
      "note": 73,
      "start": 17.9924,
      "duration": 0.3105,
      "velocity": 106,
      "chip": "ym2612"
    },
    {
      "channel": 2,
      "note": 69,
      "start": 17.9937,
      "duration": 0.0563,
      "velocity": 109,
      "chip": "ym2612"
    },
    {
      "channel": 3,
      "note": 45,
      "start": 17.9944,
      "duration": 0.0278,
      "velocity": 95,
      "chip": "ym2612"
    },
    {
      "channel": 4,
      "note": 61,
      "start": 17.9956,
      "duration": 0.0587,
      "velocity": 109,
      "chip": "ym2612"
    },
    {
      "channel": 0,
      "note": 42,
      "start": 18.0468,
      "duration": 0.0646,
      "velocity": 95,
      "chip": "ym2612"
    },
    {
      "channel": 2,
      "note": 97,
      "start": 18.0508,
      "duration": 0.0346,
      "velocity": 109,
      "chip": "ym2612"
    },
    {
      "channel": 3,
      "note": 42,
      "start": 18.0514,
      "duration": 0.0348,
      "velocity": 95,
      "chip": "ym2612"
    },
    {
      "channel": 4,
      "note": 95,
      "start": 18.055,
      "duration": 0.0319,
      "velocity": 109,
      "chip": "ym2612"
    },
    {
      "channel": 2,
      "note": 97,
      "start": 18.0861,
      "duration": 0.0268,
      "velocity": 109,
      "chip": "ym2612"
    },
    {
      "channel": 4,
      "note": 95,
      "start": 18.0875,
      "duration": 0.0271,
      "velocity": 109,
      "chip": "ym2612"
    },
    {
      "channel": 0,
      "note": 42,
      "start": 18.1119,
      "duration": 0.0868,
      "velocity": 95,
      "chip": "ym2612"
    },
    {
      "channel": 2,
      "note": 97,
      "start": 18.1134,
      "duration": 0.0292,
      "velocity": 109,
      "chip": "ym2612"
    },
    {
      "channel": 3,
      "note": 45,
      "start": 18.1141,
      "duration": 0.0576,
      "velocity": 95,
      "chip": "ym2612"
    },
    {
      "channel": 4,
      "note": 95,
      "start": 18.1153,
      "duration": 0.029,
      "velocity": 109,
      "chip": "ym2612"
    },
    {
      "channel": 2,
      "note": 97,
      "start": 18.1433,
      "duration": 0.0277,
      "velocity": 109,
      "chip": "ym2612"
    },
    {
      "channel": 4,
      "note": 95,
      "start": 18.145,
      "duration": 0.0278,
      "velocity": 109,
      "chip": "ym2612"
    },
    {
      "channel": 2,
      "note": 97,
      "start": 18.1716,
      "duration": 0.0286,
      "velocity": 109,
      "chip": "ym2612"
    },
    {
      "channel": 3,
      "note": 42,
      "start": 18.1723,
      "duration": 0.0287,
      "velocity": 95,
      "chip": "ym2612"
    },
    {
      "channel": 4,
      "note": 95,
      "start": 18.1735,
      "duration": 0.0286,
      "velocity": 109,
      "chip": "ym2612"
    },
    {
      "channel": 0,
      "note": 54,
      "start": 18.1993,
      "duration": 0.1033,
      "velocity": 95,
      "chip": "ym2612"
    },
    {
      "channel": 2,
      "note": 97,
      "start": 18.2009,
      "duration": 0.1033,
      "velocity": 109,
      "chip": "ym2612"
    },
    {
      "channel": 3,
      "note": 45,
      "start": 18.2016,
      "duration": 0.1333,
      "velocity": 95,
      "chip": "ym2612"
    },
    {
      "channel": 4,
      "note": 95,
      "start": 18.2027,
      "duration": 0.1031,
      "velocity": 109,
      "chip": "ym2612"
    },
    {
      "channel": 1,
      "note": 78,
      "start": 18.3036,
      "duration": 0.1726,
      "velocity": 106,
      "chip": "ym2612"
    },
    {
      "channel": 2,
      "note": 85,
      "start": 18.3048,
      "duration": 0.0292,
      "velocity": 109,
      "chip": "ym2612"
    },
    {
      "channel": 4,
      "note": 95,
      "start": 18.3064,
      "duration": 0.0294,
      "velocity": 109,
      "chip": "ym2612"
    },
    {
      "channel": 2,
      "note": 85,
      "start": 18.3347,
      "duration": 0.0257,
      "velocity": 109,
      "chip": "ym2612"
    },
    {
      "channel": 3,
      "note": 42,
      "start": 18.3354,
      "duration": 0.0258,
      "velocity": 95,
      "chip": "ym2612"
    },
    {
      "channel": 4,
      "note": 95,
      "start": 18.3365,
      "duration": 0.0257,
      "velocity": 109,
      "chip": "ym2612"
    },
    {
      "channel": 2,
      "note": 85,
      "start": 18.361,
      "duration": 0.0264,
      "velocity": 109,
      "chip": "ym2612"
    },
    {
      "channel": 3,
      "note": 45,
      "start": 18.3617,
      "duration": 0.0265,
      "velocity": 95,
      "chip": "ym2612"
    },
    {
      "channel": 4,
      "note": 95,
      "start": 18.3629,
      "duration": 0.0263,
      "velocity": 109,
      "chip": "ym2612"
    },
    {
      "channel": 2,
      "note": 85,
      "start": 18.3881,
      "duration": 0.0895,
      "velocity": 109,
      "chip": "ym2612"
    },
    {
      "channel": 3,
      "note": 47,
      "start": 18.3888,
      "duration": 0.0896,
      "velocity": 95,
      "chip": "ym2612"
    },
    {
      "channel": 4,
      "note": 95,
      "start": 18.39,
      "duration": 0.0893,
      "velocity": 109,
      "chip": "ym2612"
    },
    {
      "channel": 0,
      "note": 45,
      "start": 18.4761,
      "duration": 0.0276,
      "velocity": 95,
      "chip": "ym2612"
    },
    {
      "channel": 1,
      "note": 76,
      "start": 18.4768,
      "duration": 0.4258,
      "velocity": 106,
      "chip": "ym2612"
    },
    {
      "channel": 2,
      "note": 97,
      "start": 18.4783,
      "duration": 0.0267,
      "velocity": 109,
      "chip": "ym2612"
    },
    {
      "channel": 4,
      "note": 95,
      "start": 18.48,
      "duration": 0.0268,
      "velocity": 109,
      "chip": "ym2612"
    },
    {
      "channel": 0,
      "note": 45,
      "start": 18.5041,
      "duration": 0.1462,
      "velocity": 95,
      "chip": "ym2612"
    },
    {
      "channel": 2,
      "note": 97,
      "start": 18.5056,
      "duration": 0.0319,
      "velocity": 109,
      "chip": "ym2612"
    },
    {
      "channel": 3,
      "note": 40,
      "start": 18.5063,
      "duration": 0.032,
      "velocity": 95,
      "chip": "ym2612"
    },
    {
      "channel": 4,
      "note": 95,
      "start": 18.5074,
      "duration": 0.0319,
      "velocity": 109,
      "chip": "ym2612"
    },
    {
      "channel": 2,
      "note": 97,
      "start": 18.5381,
      "duration": 0.0284,
      "velocity": 109,
      "chip": "ym2612"
    },
    {
      "channel": 3,
      "note": 42,
      "start": 18.5388,
      "duration": 0.0285,
      "velocity": 95,
      "chip": "ym2612"
    },
    {
      "channel": 4,
      "note": 95,
      "start": 18.54,
      "duration": 0.0282,
      "velocity": 109,
      "chip": "ym2612"
    },
    {
      "channel": 2,
      "note": 97,
      "start": 18.5672,
      "duration": 0.0272,
      "velocity": 109,
      "chip": "ym2612"
    },
    {
      "channel": 4,
      "note": 95,
      "start": 18.5688,
      "duration": 0.0274,
      "velocity": 109,
      "chip": "ym2612"
    },
    {
      "channel": 2,
      "note": 97,
      "start": 18.5951,
      "duration": 0.0291,
      "velocity": 109,
      "chip": "ym2612"
    },
    {
      "channel": 3,
      "note": 45,
      "start": 18.5958,
      "duration": 0.0291,
      "velocity": 95,
      "chip": "ym2612"
    },
    {
      "channel": 4,
      "note": 95,
      "start": 18.5969,
      "duration": 0.0287,
      "velocity": 109,
      "chip": "ym2612"
    },
    {
      "channel": 2,
      "note": 97,
      "start": 18.6248,
      "duration": 0.027,
      "velocity": 109,
      "chip": "ym2612"
    },
    {
      "channel": 4,
      "note": 95,
      "start": 18.6263,
      "duration": 0.0275,
      "velocity": 109,
      "chip": "ym2612"
    },
    {
      "channel": 0,
      "note": 45,
      "start": 18.6508,
      "duration": 0.0602,
      "velocity": 95,
      "chip": "ym2612"
    },
    {
      "channel": 2,
      "note": 97,
      "start": 18.6525,
      "duration": 0.0292,
      "velocity": 109,
      "chip": "ym2612"
    },
    {
      "channel": 3,
      "note": 42,
      "start": 18.6532,
      "duration": 0.0293,
      "velocity": 95,
      "chip": "ym2612"
    },
    {
      "channel": 4,
      "note": 95,
      "start": 18.6544,
      "duration": 0.0287,
      "velocity": 109,
      "chip": "ym2612"
    },
    {
      "channel": 2,
      "note": 97,
      "start": 18.6823,
      "duration": 0.0301,
      "velocity": 109,
      "chip": "ym2612"
    },
    {
      "channel": 4,
      "note": 95,
      "start": 18.6837,
      "duration": 0.0305,
      "velocity": 109,
      "chip": "ym2612"
    },
    {
      "channel": 0,
      "note": 45,
      "start": 18.7115,
      "duration": 0.087,
      "velocity": 95,
      "chip": "ym2612"
    },
    {
      "channel": 2,
      "note": 97,
      "start": 18.713,
      "duration": 0.0293,
      "velocity": 109,
      "chip": "ym2612"
    },
    {
      "channel": 3,
      "note": 45,
      "start": 18.7137,
      "duration": 0.0578,
      "velocity": 95,
      "chip": "ym2612"
    },
    {
      "channel": 4,
      "note": 95,
      "start": 18.7149,
      "duration": 0.029,
      "velocity": 109,
      "chip": "ym2612"
    },
    {
      "channel": 2,
      "note": 97,
      "start": 18.743,
      "duration": 0.0277,
      "velocity": 109,
      "chip": "ym2612"
    },
    {
      "channel": 4,
      "note": 95,
      "start": 18.7446,
      "duration": 0.028,
      "velocity": 109,
      "chip": "ym2612"
    },
    {
      "channel": 2,
      "note": 97,
      "start": 18.7714,
      "duration": 0.0287,
      "velocity": 109,
      "chip": "ym2612"
    },
    {
      "channel": 3,
      "note": 42,
      "start": 18.772,
      "duration": 0.0288,
      "velocity": 95,
      "chip": "ym2612"
    },
    {
      "channel": 4,
      "note": 95,
      "start": 18.7732,
      "duration": 0.0287,
      "velocity": 109,
      "chip": "ym2612"
    },
    {
      "channel": 0,
      "note": 57,
      "start": 18.7992,
      "duration": 0.1031,
      "velocity": 95,
      "chip": "ym2612"
    },
    {
      "channel": 2,
      "note": 97,
      "start": 18.8007,
      "duration": 0.1032,
      "velocity": 109,
      "chip": "ym2612"
    },
    {
      "channel": 3,
      "note": 45,
      "start": 18.8014,
      "duration": 0.1303,
      "velocity": 95,
      "chip": "ym2612"
    },
    {
      "channel": 4,
      "note": 95,
      "start": 18.8025,
      "duration": 0.1029,
      "velocity": 109,
      "chip": "ym2612"
    },
    {
      "channel": 1,
      "note": 69,
      "start": 18.9032,
      "duration": 0.0566,
      "velocity": 106,
      "chip": "ym2612"
    },
    {
      "channel": 2,
      "note": 97,
      "start": 18.9045,
      "duration": 0.0264,
      "velocity": 109,
      "chip": "ym2612"
    },
    {
      "channel": 4,
      "note": 95,
      "start": 18.9061,
      "duration": 0.0266,
      "velocity": 109,
      "chip": "ym2612"
    },
    {
      "channel": 2,
      "note": 97,
      "start": 18.9316,
      "duration": 0.0293,
      "velocity": 109,
      "chip": "ym2612"
    },
    {
      "channel": 3,
      "note": 42,
      "start": 18.9322,
      "duration": 0.0295,
      "velocity": 95,
      "chip": "ym2612"
    },
    {
      "channel": 4,
      "note": 95,
      "start": 18.9334,
      "duration": 0.0294,
      "velocity": 109,
      "chip": "ym2612"
    },
    {
      "channel": 1,
      "note": 71,
      "start": 18.9605,
      "duration": 0.1157,
      "velocity": 106,
      "chip": "ym2612"
    },
    {
      "channel": 2,
      "note": 97,
      "start": 18.9616,
      "duration": 0.0262,
      "velocity": 109,
      "chip": "ym2612"
    },
    {
      "channel": 3,
      "note": 45,
      "start": 18.9623,
      "duration": 0.0264,
      "velocity": 95,
      "chip": "ym2612"
    },
    {
      "channel": 4,
      "note": 95,
      "start": 18.9634,
      "duration": 0.0263,
      "velocity": 109,
      "chip": "ym2612"
    },
    {
      "channel": 0,
      "note": 45,
      "start": 18.987,
      "duration": 0.0884,
      "velocity": 95,
      "chip": "ym2612"
    },
    {
      "channel": 2,
      "note": 97,
      "start": 18.9885,
      "duration": 0.0892,
      "velocity": 109,
      "chip": "ym2612"
    },
    {
      "channel": 3,
      "note": 47,
      "start": 18.9892,
      "duration": 0.0894,
      "velocity": 95,
      "chip": "ym2612"
    },
    {
      "channel": 4,
      "note": 95,
      "start": 18.9903,
      "duration": 0.0893,
      "velocity": 109,
      "chip": "ym2612"
    },
    {
      "channel": 0,
      "note": 47,
      "start": 19.0761,
      "duration": 0.264,
      "velocity": 95,
      "chip": "ym2612"
    },
    {
      "channel": 1,
      "note": 76,
      "start": 19.0768,
      "duration": 0.0558,
      "velocity": 106,
      "chip": "ym2612"
    },
    {
      "channel": 2,
      "note": 97,
      "start": 19.0784,
      "duration": 0.0263,
      "velocity": 109,
      "chip": "ym2612"
    },
    {
      "channel": 4,
      "note": 95,
      "start": 19.0803,
      "duration": 0.0263,
      "velocity": 109,
      "chip": "ym2612"
    },
    {
      "channel": 2,
      "note": 97,
      "start": 19.1054,
      "duration": 0.0283,
      "velocity": 109,
      "chip": "ym2612"
    },
    {
      "channel": 3,
      "note": 39,
      "start": 19.1061,
      "duration": 0.0285,
      "velocity": 95,
      "chip": "ym2612"
    },
    {
      "channel": 4,
      "note": 95,
      "start": 19.1072,
      "duration": 0.0284,
      "velocity": 109,
      "chip": "ym2612"
    },
    {
      "channel": 1,
      "note": 75,
      "start": 19.1333,
      "duration": 0.1501,
      "velocity": 106,
      "chip": "ym2612"
    },
    {
      "channel": 2,
      "note": 97,
      "start": 19.1344,
      "duration": 0.0276,
      "velocity": 109,
      "chip": "ym2612"
    },
    {
      "channel": 3,
      "note": 42,
      "start": 19.1351,
      "duration": 0.0278,
      "velocity": 95,
      "chip": "ym2612"
    },
    {
      "channel": 4,
      "note": 95,
      "start": 19.1362,
      "duration": 0.0275,
      "velocity": 109,
      "chip": "ym2612"
    },
    {
      "channel": 2,
      "note": 97,
      "start": 19.1628,
      "duration": 0.1218,
      "velocity": 109,
      "chip": "ym2612"
    },
    {
      "channel": 4,
      "note": 95,
      "start": 19.1644,
      "duration": 0.122,
      "velocity": 109,
      "chip": "ym2612"
    },
    {
      "channel": 1,
      "note": 73,
      "start": 19.2841,
      "duration": 0.0567,
      "velocity": 106,
      "chip": "ym2612"
    },
    {
      "channel": 2,
      "note": 97,
      "start": 19.2852,
      "duration": 0.0285,
      "velocity": 109,
      "chip": "ym2612"
    },
    {
      "channel": 3,
      "note": 45,
      "start": 19.2859,
      "duration": 0.0286,
      "velocity": 95,
      "chip": "ym2612"
    },
    {
      "channel": 4,
      "note": 95,
      "start": 19.2871,
      "duration": 0.0281,
      "velocity": 109,
      "chip": "ym2612"
    },
    {
      "channel": 2,
      "note": 97,
      "start": 19.3144,
      "duration": 0.0276,
      "velocity": 109,
      "chip": "ym2612"
    },
    {
      "channel": 4,
      "note": 95,
      "start": 19.3159,
      "duration": 0.028,
      "velocity": 109,
      "chip": "ym2612"
    },
    {
      "channel": 0,
      "note": 47,
      "start": 19.3406,
      "duration": 0.0569,
      "velocity": 95,
      "chip": "ym2612"
    },
    {
      "channel": 1,
      "note": 71,
      "start": 19.3414,
      "duration": 0.3189,
      "velocity": 106,
      "chip": "ym2612"
    },
    {
      "channel": 2,
      "note": 97,
      "start": 19.3426,
      "duration": 0.0286,
      "velocity": 109,
      "chip": "ym2612"
    },
    {
      "channel": 3,
      "note": 42,
      "start": 19.3433,
      "duration": 0.0288,
      "velocity": 95,
      "chip": "ym2612"
    },
    {
      "channel": 4,
      "note": 95,
      "start": 19.3446,
      "duration": 0.028,
      "velocity": 109,
      "chip": "ym2612"
    },
    {
      "channel": 2,
      "note": 97,
      "start": 19.3719,
      "duration": 0.0271,
      "velocity": 109,
      "chip": "ym2612"
    },
    {
      "channel": 4,
      "note": 95,
      "start": 19.3734,
      "duration": 0.0274,
      "velocity": 109,
      "chip": "ym2612"
    },
    {
      "channel": 0,
      "note": 47,
      "start": 19.3981,
      "duration": 0.0904,
      "velocity": 95,
      "chip": "ym2612"
    },
    {
      "channel": 2,
      "note": 97,
      "start": 19.3997,
      "duration": 0.0291,
      "velocity": 109,
      "chip": "ym2612"
    },
    {
      "channel": 3,
      "note": 45,
      "start": 19.4003,
      "duration": 0.061,
      "velocity": 95,
      "chip": "ym2612"
    },
    {
      "channel": 4,
      "note": 95,
      "start": 19.4014,
      "duration": 0.029,
      "velocity": 109,
      "chip": "ym2612"
    },
    {
      "channel": 2,
      "note": 97,
      "start": 19.4295,
      "duration": 0.0311,
      "velocity": 109,
      "chip": "ym2612"
    },
    {
      "channel": 4,
      "note": 95,
      "start": 19.4311,
      "duration": 0.0313,
      "velocity": 109,
      "chip": "ym2612"
    },
    {
      "channel": 2,
      "note": 97,
      "start": 19.4612,
      "duration": 0.0288,
      "velocity": 109,
      "chip": "ym2612"
    },
    {
      "channel": 3,
      "note": 42,
      "start": 19.4619,
      "duration": 0.0289,
      "velocity": 95,
      "chip": "ym2612"
    },
    {
      "channel": 4,
      "note": 95,
      "start": 19.463,
      "duration": 0.0288,
      "velocity": 109,
      "chip": "ym2612"
    },
    {
      "channel": 0,
      "note": 59,
      "start": 19.4891,
      "duration": 0.1164,
      "velocity": 95,
      "chip": "ym2612"
    },
    {
      "channel": 2,
      "note": 97,
      "start": 19.4906,
      "duration": 0.1161,
      "velocity": 109,
      "chip": "ym2612"
    },
    {
      "channel": 3,
      "note": 45,
      "start": 19.4913,
      "duration": 0.1438,
      "velocity": 95,
      "chip": "ym2612"
    },
    {
      "channel": 4,
      "note": 95,
      "start": 19.4924,
      "duration": 0.1159,
      "velocity": 109,
      "chip": "ym2612"
    },
    {
      "channel": 2,
      "note": 97,
      "start": 19.6074,
      "duration": 0.0269,
      "velocity": 109,
      "chip": "ym2612"
    },
    {
      "channel": 4,
      "note": 95,
      "start": 19.609,
      "duration": 0.0271,
      "velocity": 109,
      "chip": "ym2612"
    },
    {
      "channel": 2,
      "note": 97,
      "start": 19.635,
      "duration": 0.0264,
      "velocity": 109,
      "chip": "ym2612"
    },
    {
      "channel": 3,
      "note": 42,
      "start": 19.6356,
      "duration": 0.0266,
      "velocity": 95,
      "chip": "ym2612"
    },
    {
      "channel": 4,
      "note": 95,
      "start": 19.6368,
      "duration": 0.0264,
      "velocity": 109,
      "chip": "ym2612"
    },
    {
      "channel": 1,
      "note": 74,
      "start": 19.6609,
      "duration": 0.1775,
      "velocity": 106,
      "chip": "ym2612"
    },
    {
      "channel": 2,
      "note": 97,
      "start": 19.662,
      "duration": 0.0257,
      "velocity": 109,
      "chip": "ym2612"
    },
    {
      "channel": 3,
      "note": 45,
      "start": 19.6627,
      "duration": 0.0258,
      "velocity": 95,
      "chip": "ym2612"
    },
    {
      "channel": 4,
      "note": 95,
      "start": 19.6639,
      "duration": 0.0257,
      "velocity": 109,
      "chip": "ym2612"
    },
    {
      "channel": 2,
      "note": 97,
      "start": 19.6884,
      "duration": 0.0923,
      "velocity": 109,
      "chip": "ym2612"
    },
    {
      "channel": 3,
      "note": 47,
      "start": 19.6891,
      "duration": 0.0925,
      "velocity": 95,
      "chip": "ym2612"
    },
    {
      "channel": 4,
      "note": 95,
      "start": 19.6902,
      "duration": 0.0924,
      "velocity": 109,
      "chip": "ym2612"
    },
    {
      "channel": 0,
      "note": 37,
      "start": 19.7792,
      "duration": 0.0291,
      "velocity": 95,
      "chip": "ym2612"
    },
    {
      "channel": 2,
      "note": 97,
      "start": 19.7814,
      "duration": 0.0283,
      "velocity": 109,
      "chip": "ym2612"
    },
    {
      "channel": 4,
      "note": 95,
      "start": 19.7834,
      "duration": 0.0282,
      "velocity": 109,
      "chip": "ym2612"
    },
    {
      "channel": 0,
      "note": 37,
      "start": 19.8088,
      "duration": 0.1448,
      "velocity": 95,
      "chip": "ym2612"
    },
    {
      "channel": 2,
      "note": 97,
      "start": 19.8103,
      "duration": 0.0292,
      "velocity": 109,
      "chip": "ym2612"
    },
    {
      "channel": 3,
      "note": 41,
      "start": 19.811,
      "duration": 0.0293,
      "velocity": 95,
      "chip": "ym2612"
    },
    {
      "channel": 4,
      "note": 95,
      "start": 19.8122,
      "duration": 0.0292,
      "velocity": 109,
      "chip": "ym2612"
    },
    {
      "channel": 1,
      "note": 73,
      "start": 19.8391,
      "duration": 0.0557,
      "velocity": 106,
      "chip": "ym2612"
    },
    {
      "channel": 2,
      "note": 97,
      "start": 19.8402,
      "duration": 0.0277,
      "velocity": 109,
      "chip": "ym2612"
    },
    {
      "channel": 3,
      "note": 44,
      "start": 19.8408,
      "duration": 0.0279,
      "velocity": 95,
      "chip": "ym2612"
    },
    {
      "channel": 4,
      "note": 95,
      "start": 19.842,
      "duration": 0.0275,
      "velocity": 109,
      "chip": "ym2612"
    },
    {
      "channel": 2,
      "note": 97,
      "start": 19.8686,
      "duration": 0.0273,
      "velocity": 109,
      "chip": "ym2612"
    },
    {
      "channel": 4,
      "note": 95,
      "start": 19.8702,
      "duration": 0.0276,
      "velocity": 109,
      "chip": "ym2612"
    },
    {
      "channel": 1,
      "note": 71,
      "start": 19.8954,
      "duration": 0.0588,
      "velocity": 106,
      "chip": "ym2612"
    },
    {
      "channel": 2,
      "note": 97,
      "start": 19.8966,
      "duration": 0.0284,
      "velocity": 109,
      "chip": "ym2612"
    },
    {
      "channel": 3,
      "note": 47,
      "start": 19.8973,
      "duration": 0.0285,
      "velocity": 95,
      "chip": "ym2612"
    },
    {
      "channel": 4,
      "note": 95,
      "start": 19.8984,
      "duration": 0.028,
      "velocity": 109,
      "chip": "ym2612"
    },
    {
      "channel": 2,
      "note": 97,
      "start": 19.9256,
      "duration": 0.0299,
      "velocity": 109,
      "chip": "ym2612"
    },
    {
      "channel": 4,
      "note": 95,
      "start": 19.9271,
      "duration": 0.0304,
      "velocity": 109,
      "chip": "ym2612"
    },
    {
      "channel": 0,
      "note": 37,
      "start": 19.9541,
      "duration": 0.0571,
      "velocity": 95,
      "chip": "ym2612"
    },
    {
      "channel": 1,
      "note": 73,
      "start": 19.9549,
      "duration": 0.4215,
      "velocity": 106,
      "chip": "ym2612"
    },
    {
      "channel": 2,
      "note": 97,
      "start": 19.9561,
      "duration": 0.0286,
      "velocity": 109,
      "chip": "ym2612"
    },
    {
      "channel": 3,
      "note": 44,
      "start": 19.9568,
      "duration": 0.0288,
      "velocity": 95,
      "chip": "ym2612"
    },
    {
      "channel": 4,
      "note": 95,
      "start": 19.9581,
      "duration": 0.0281,
      "velocity": 109,
      "chip": "ym2612"
    },
    {
      "channel": 2,
      "note": 97,
      "start": 19.9855,
      "duration": 0.0271,
      "velocity": 109,
      "chip": "ym2612"
    },
    {
      "channel": 4,
      "note": 95,
      "start": 19.9869,
      "duration": 0.0275,
      "velocity": 109,
      "chip": "ym2612"
    },
    {
      "channel": 0,
      "note": 37,
      "start": 20.0117,
      "duration": 0.0868,
      "velocity": 95,
      "chip": "ym2612"
    },
    {
      "channel": 2,
      "note": 97,
      "start": 20.0133,
      "duration": 0.0291,
      "velocity": 109,
      "chip": "ym2612"
    },
    {
      "channel": 3,
      "note": 47,
      "start": 20.0139,
      "duration": 0.0576,
      "velocity": 95,
      "chip": "ym2612"
    },
    {
      "channel": 4,
      "note": 95,
      "start": 20.0151,
      "duration": 0.0289,
      "velocity": 109,
      "chip": "ym2612"
    },
    {
      "channel": 2,
      "note": 97,
      "start": 20.043,
      "duration": 0.0277,
      "velocity": 109,
      "chip": "ym2612"
    },
    {
      "channel": 4,
      "note": 95,
      "start": 20.0446,
      "duration": 0.0279,
      "velocity": 109,
      "chip": "ym2612"
    },
    {
      "channel": 2,
      "note": 97,
      "start": 20.0714,
      "duration": 0.0287,
      "velocity": 109,
      "chip": "ym2612"
    },
    {
      "channel": 3,
      "note": 44,
      "start": 20.0721,
      "duration": 0.0288,
      "velocity": 95,
      "chip": "ym2612"
    },
    {
      "channel": 4,
      "note": 95,
      "start": 20.0732,
      "duration": 0.0287,
      "velocity": 109,
      "chip": "ym2612"
    },
    {
      "channel": 0,
      "note": 49,
      "start": 20.0992,
      "duration": 0.1199,
      "velocity": 95,
      "chip": "ym2612"
    },
    {
      "channel": 2,
      "note": 97,
      "start": 20.1008,
      "duration": 0.1195,
      "velocity": 109,
      "chip": "ym2612"
    },
    {
      "channel": 3,
      "note": 47,
      "start": 20.1014,
      "duration": 0.1475,
      "velocity": 95,
      "chip": "ym2612"
    },
    {
      "channel": 4,
      "note": 95,
      "start": 20.1025,
      "duration": 0.1193,
      "velocity": 109,
      "chip": "ym2612"
    },
    {
      "channel": 2,
      "note": 97,
      "start": 20.2209,
      "duration": 0.0272,
      "velocity": 109,
      "chip": "ym2612"
    },
    {
      "channel": 4,
      "note": 95,
      "start": 20.2225,
      "duration": 0.0274,
      "velocity": 109,
      "chip": "ym2612"
    },
    {
      "channel": 2,
      "note": 97,
      "start": 20.2488,
      "duration": 0.0262,
      "velocity": 109,
      "chip": "ym2612"
    },
    {
      "channel": 3,
      "note": 44,
      "start": 20.2495,
      "duration": 0.0263,
      "velocity": 95,
      "chip": "ym2612"
    },
    {
      "channel": 4,
      "note": 95,
      "start": 20.2507,
      "duration": 0.0262,
      "velocity": 109,
      "chip": "ym2612"
    },
    {
      "channel": 2,
      "note": 97,
      "start": 20.2757,
      "duration": 0.0269,
      "velocity": 109,
      "chip": "ym2612"
    },
    {
      "channel": 3,
      "note": 47,
      "start": 20.2764,
      "duration": 0.027,
      "velocity": 95,
      "chip": "ym2612"
    },
    {
      "channel": 4,
      "note": 95,
      "start": 20.2775,
      "duration": 0.0269,
      "velocity": 109,
      "chip": "ym2612"
    },
    {
      "channel": 0,
      "note": 49,
      "start": 20.3017,
      "duration": 0.0739,
      "velocity": 95,
      "chip": "ym2612"
    },
    {
      "channel": 2,
      "note": 97,
      "start": 20.3032,
      "duration": 0.0742,
      "velocity": 109,
      "chip": "ym2612"
    },
    {
      "channel": 3,
      "note": 49,
      "start": 20.3039,
      "duration": 0.0744,
      "velocity": 95,
      "chip": "ym2612"
    },
    {
      "channel": 4,
      "note": 95,
      "start": 20.3051,
      "duration": 0.0743,
      "velocity": 109,
      "chip": "ym2612"
    },
    {
      "channel": 0,
      "note": 42,
      "start": 20.3762,
      "duration": 0.2637,
      "velocity": 95,
      "chip": "ym2612"
    },
    {
      "channel": 2,
      "note": 97,
      "start": 20.3781,
      "duration": 0.0272,
      "velocity": 109,
      "chip": "ym2612"
    },
    {
      "channel": 4,
      "note": 95,
      "start": 20.3801,
      "duration": 0.0271,
      "velocity": 109,
      "chip": "ym2612"
    },
    {
      "channel": 2,
      "note": 97,
      "start": 20.406,
      "duration": 0.026,
      "velocity": 109,
      "chip": "ym2612"
    },
    {
      "channel": 3,
      "note": 40,
      "start": 20.4066,
      "duration": 0.0261,
      "velocity": 95,
      "chip": "ym2612"
    },
    {
      "channel": 4,
      "note": 95,
      "start": 20.4078,
      "duration": 0.026,
      "velocity": 109,
      "chip": "ym2612"
    },
    {
      "channel": 2,
      "note": 97,
      "start": 20.4326,
      "duration": 0.0256,
      "velocity": 109,
      "chip": "ym2612"
    },
    {
      "channel": 3,
      "note": 42,
      "start": 20.4332,
      "duration": 0.0257,
      "velocity": 95,
      "chip": "ym2612"
    },
    {
      "channel": 4,
      "note": 95,
      "start": 20.4344,
      "duration": 0.0254,
      "velocity": 109,
      "chip": "ym2612"
    },
    {
      "channel": 2,
      "note": 97,
      "start": 20.4588,
      "duration": 0.1257,
      "velocity": 109,
      "chip": "ym2612"
    },
    {
      "channel": 4,
      "note": 95,
      "start": 20.4604,
      "duration": 0.1259,
      "velocity": 109,
      "chip": "ym2612"
    },
    {
      "channel": 1,
      "note": 73,
      "start": 20.584,
      "duration": 0.3082,
      "velocity": 106,
      "chip": "ym2612"
    },
    {
      "channel": 2,
      "note": 97,
      "start": 20.5851,
      "duration": 0.0285,
      "velocity": 109,
      "chip": "ym2612"
    },
    {
      "channel": 3,
      "note": 45,
      "start": 20.5859,
      "duration": 0.0286,
      "velocity": 95,
      "chip": "ym2612"
    },
    {
      "channel": 4,
      "note": 95,
      "start": 20.587,
      "duration": 0.0281,
      "velocity": 109,
      "chip": "ym2612"
    },
    {
      "channel": 2,
      "note": 97,
      "start": 20.6143,
      "duration": 0.0271,
      "velocity": 109,
      "chip": "ym2612"
    },
    {
      "channel": 4,
      "note": 95,
      "start": 20.6158,
      "duration": 0.0276,
      "velocity": 109,
      "chip": "ym2612"
    },
    {
      "channel": 0,
      "note": 42,
      "start": 20.6404,
      "duration": 0.0602,
      "velocity": 95,
      "chip": "ym2612"
    },
    {
      "channel": 2,
      "note": 97,
      "start": 20.6421,
      "duration": 0.0325,
      "velocity": 109,
      "chip": "ym2612"
    },
    {
      "channel": 3,
      "note": 42,
      "start": 20.6428,
      "duration": 0.0327,
      "velocity": 95,
      "chip": "ym2612"
    },
    {
      "channel": 4,
      "note": 95,
      "start": 20.6441,
      "duration": 0.0321,
      "velocity": 109,
      "chip": "ym2612"
    },
    {
      "channel": 2,
      "note": 97,
      "start": 20.6753,
      "duration": 0.0268,
      "velocity": 109,
      "chip": "ym2612"
    },
    {
      "channel": 4,
      "note": 95,
      "start": 20.6768,
      "duration": 0.0271,
      "velocity": 109,
      "chip": "ym2612"
    },
    {
      "channel": 0,
      "note": 42,
      "start": 20.7012,
      "duration": 0.0868,
      "velocity": 95,
      "chip": "ym2612"
    },
    {
      "channel": 2,
      "note": 97,
      "start": 20.7027,
      "duration": 0.0292,
      "velocity": 109,
      "chip": "ym2612"
    },
    {
      "channel": 3,
      "note": 45,
      "start": 20.7034,
      "duration": 0.0576,
      "velocity": 95,
      "chip": "ym2612"
    },
    {
      "channel": 4,
      "note": 95,
      "start": 20.7045,
      "duration": 0.029,
      "velocity": 109,
      "chip": "ym2612"
    },
    {
      "channel": 2,
      "note": 97,
      "start": 20.7325,
      "duration": 0.0277,
      "velocity": 109,
      "chip": "ym2612"
    },
    {
      "channel": 4,
      "note": 95,
      "start": 20.7341,
      "duration": 0.0279,
      "velocity": 109,
      "chip": "ym2612"
    },
    {
      "channel": 2,
      "note": 97,
      "start": 20.7609,
      "duration": 0.0286,
      "velocity": 109,
      "chip": "ym2612"
    },
    {
      "channel": 3,
      "note": 42,
      "start": 20.7616,
      "duration": 0.0287,
      "velocity": 95,
      "chip": "ym2612"
    },
    {
      "channel": 4,
      "note": 95,
      "start": 20.7627,
      "duration": 0.0286,
      "velocity": 109,
      "chip": "ym2612"
    },
    {
      "channel": 0,
      "note": 54,
      "start": 20.7886,
      "duration": 0.1033,
      "velocity": 95,
      "chip": "ym2612"
    },
    {
      "channel": 2,
      "note": 97,
      "start": 20.7901,
      "duration": 0.1033,
      "velocity": 109,
      "chip": "ym2612"
    },
    {
      "channel": 3,
      "note": 45,
      "start": 20.7908,
      "duration": 0.1333,
      "velocity": 95,
      "chip": "ym2612"
    },
    {
      "channel": 4,
      "note": 95,
      "start": 20.7919,
      "duration": 0.1031,
      "velocity": 109,
      "chip": "ym2612"
    },
    {
      "channel": 1,
      "note": 78,
      "start": 20.8928,
      "duration": 0.1726,
      "velocity": 106,
      "chip": "ym2612"
    },
    {
      "channel": 2,
      "note": 97,
      "start": 20.8941,
      "duration": 0.0292,
      "velocity": 109,
      "chip": "ym2612"
    },
    {
      "channel": 4,
      "note": 95,
      "start": 20.8957,
      "duration": 0.0295,
      "velocity": 109,
      "chip": "ym2612"
    },
    {
      "channel": 2,
      "note": 97,
      "start": 20.924,
      "duration": 0.0256,
      "velocity": 109,
      "chip": "ym2612"
    },
    {
      "channel": 3,
      "note": 42,
      "start": 20.9247,
      "duration": 0.0257,
      "velocity": 95,
      "chip": "ym2612"
    },
    {
      "channel": 4,
      "note": 95,
      "start": 20.9258,
      "duration": 0.0256,
      "velocity": 109,
      "chip": "ym2612"
    },
    {
      "channel": 2,
      "note": 97,
      "start": 20.9502,
      "duration": 0.0264,
      "velocity": 109,
      "chip": "ym2612"
    },
    {
      "channel": 3,
      "note": 45,
      "start": 20.9509,
      "duration": 0.0265,
      "velocity": 95,
      "chip": "ym2612"
    },
    {
      "channel": 4,
      "note": 95,
      "start": 20.9521,
      "duration": 0.0264,
      "velocity": 109,
      "chip": "ym2612"
    },
    {
      "channel": 2,
      "note": 97,
      "start": 20.9773,
      "duration": 0.0896,
      "velocity": 109,
      "chip": "ym2612"
    },
    {
      "channel": 3,
      "note": 47,
      "start": 20.978,
      "duration": 0.0898,
      "velocity": 95,
      "chip": "ym2612"
    },
    {
      "channel": 4,
      "note": 95,
      "start": 20.9791,
      "duration": 0.0897,
      "velocity": 109,
      "chip": "ym2612"
    },
    {
      "channel": 0,
      "note": 45,
      "start": 21.0653,
      "duration": 0.0293,
      "velocity": 95,
      "chip": "ym2612"
    },
    {
      "channel": 1,
      "note": 76,
      "start": 21.066,
      "duration": 0.4408,
      "velocity": 106,
      "chip": "ym2612"
    },
    {
      "channel": 2,
      "note": 97,
      "start": 21.0676,
      "duration": 0.0282,
      "velocity": 109,
      "chip": "ym2612"
    },
    {
      "channel": 4,
      "note": 95,
      "start": 21.0695,
      "duration": 0.0281,
      "velocity": 109,
      "chip": "ym2612"
    },
    {
      "channel": 0,
      "note": 45,
      "start": 21.095,
      "duration": 0.1462,
      "velocity": 95,
      "chip": "ym2612"
    },
    {
      "channel": 2,
      "note": 97,
      "start": 21.0965,
      "duration": 0.0285,
      "velocity": 109,
      "chip": "ym2612"
    },
    {
      "channel": 3,
      "note": 40,
      "start": 21.0972,
      "duration": 0.0286,
      "velocity": 95,
      "chip": "ym2612"
    },
    {
      "channel": 4,
      "note": 95,
      "start": 21.0983,
      "duration": 0.0285,
      "velocity": 109,
      "chip": "ym2612"
    },
    {
      "channel": 2,
      "note": 97,
      "start": 21.1257,
      "duration": 0.0318,
      "velocity": 109,
      "chip": "ym2612"
    },
    {
      "channel": 3,
      "note": 42,
      "start": 21.1263,
      "duration": 0.0319,
      "velocity": 95,
      "chip": "ym2612"
    },
    {
      "channel": 4,
      "note": 95,
      "start": 21.1275,
      "duration": 0.0316,
      "velocity": 109,
      "chip": "ym2612"
    },
    {
      "channel": 2,
      "note": 97,
      "start": 21.1581,
      "duration": 0.0272,
      "velocity": 109,
      "chip": "ym2612"
    },
    {
      "channel": 4,
      "note": 95,
      "start": 21.1597,
      "duration": 0.0274,
      "velocity": 109,
      "chip": "ym2612"
    },
    {
      "channel": 2,
      "note": 97,
      "start": 21.186,
      "duration": 0.0291,
      "velocity": 109,
      "chip": "ym2612"
    },
    {
      "channel": 3,
      "note": 45,
      "start": 21.1867,
      "duration": 0.0292,
      "velocity": 95,
      "chip": "ym2612"
    },
    {
      "channel": 4,
      "note": 95,
      "start": 21.1878,
      "duration": 0.0288,
      "velocity": 109,
      "chip": "ym2612"
    },
    {
      "channel": 2,
      "note": 97,
      "start": 21.2157,
      "duration": 0.027,
      "velocity": 109,
      "chip": "ym2612"
    },
    {
      "channel": 4,
      "note": 95,
      "start": 21.2172,
      "duration": 0.0275,
      "velocity": 109,
      "chip": "ym2612"
    },
    {
      "channel": 0,
      "note": 45,
      "start": 21.2417,
      "duration": 0.0569,
      "velocity": 95,
      "chip": "ym2612"
    },
    {
      "channel": 2,
      "note": 97,
      "start": 21.2434,
      "duration": 0.0292,
      "velocity": 109,
      "chip": "ym2612"
    },
    {
      "channel": 3,
      "note": 42,
      "start": 21.2441,
      "duration": 0.0293,
      "velocity": 95,
      "chip": "ym2612"
    },
    {
      "channel": 4,
      "note": 95,
      "start": 21.2454,
      "duration": 0.0287,
      "velocity": 109,
      "chip": "ym2612"
    },
    {
      "channel": 2,
      "note": 97,
      "start": 21.2732,
      "duration": 0.0268,
      "velocity": 109,
      "chip": "ym2612"
    },
    {
      "channel": 4,
      "note": 95,
      "start": 21.2747,
      "duration": 0.0272,
      "velocity": 109,
      "chip": "ym2612"
    },
    {
      "channel": 0,
      "note": 45,
      "start": 21.2992,
      "duration": 0.0904,
      "velocity": 95,
      "chip": "ym2612"
    },
    {
      "channel": 2,
      "note": 97,
      "start": 21.3007,
      "duration": 0.0326,
      "velocity": 109,
      "chip": "ym2612"
    },
    {
      "channel": 3,
      "note": 45,
      "start": 21.3014,
      "duration": 0.0611,
      "velocity": 95,
      "chip": "ym2612"
    },
    {
      "channel": 4,
      "note": 95,
      "start": 21.3025,
      "duration": 0.0324,
      "velocity": 109,
      "chip": "ym2612"
    },
    {
      "channel": 2,
      "note": 97,
      "start": 21.3339,
      "duration": 0.0277,
      "velocity": 109,
      "chip": "ym2612"
    },
    {
      "channel": 4,
      "note": 95,
      "start": 21.3355,
      "duration": 0.028,
      "velocity": 109,
      "chip": "ym2612"
    },
    {
      "channel": 2,
      "note": 97,
      "start": 21.3624,
      "duration": 0.0288,
      "velocity": 109,
      "chip": "ym2612"
    },
    {
      "channel": 3,
      "note": 42,
      "start": 21.363,
      "duration": 0.0289,
      "velocity": 95,
      "chip": "ym2612"
    },
    {
      "channel": 4,
      "note": 95,
      "start": 21.3641,
      "duration": 0.0288,
      "velocity": 109,
      "chip": "ym2612"
    },
    {
      "channel": 0,
      "note": 57,
      "start": 21.3902,
      "duration": 0.1163,
      "velocity": 95,
      "chip": "ym2612"
    },
    {
      "channel": 2,
      "note": 97,
      "start": 21.3917,
      "duration": 0.1164,
      "velocity": 109,
      "chip": "ym2612"
    },
    {
      "channel": 3,
      "note": 45,
      "start": 21.3924,
      "duration": 0.1435,
      "velocity": 95,
      "chip": "ym2612"
    },
    {
      "channel": 4,
      "note": 95,
      "start": 21.3936,
      "duration": 0.1161,
      "velocity": 109,
      "chip": "ym2612"
    },
    {
      "channel": 1,
      "note": 78,
      "start": 21.5075,
      "duration": 0.0535,
      "velocity": 106,
      "chip": "ym2612"
    },
    {
      "channel": 2,
      "note": 97,
      "start": 21.5088,
      "duration": 0.0264,
      "velocity": 109,
      "chip": "ym2612"
    },
    {
      "channel": 4,
      "note": 95,
      "start": 21.5104,
      "duration": 0.0266,
      "velocity": 109,
      "chip": "ym2612"
    },
    {
      "channel": 2,
      "note": 97,
      "start": 21.5359,
      "duration": 0.0262,
      "velocity": 109,
      "chip": "ym2612"
    },
    {
      "channel": 3,
      "note": 42,
      "start": 21.5365,
      "duration": 0.0264,
      "velocity": 95,
      "chip": "ym2612"
    },
    {
      "channel": 4,
      "note": 95,
      "start": 21.5376,
      "duration": 0.0263,
      "velocity": 109,
      "chip": "ym2612"
    },
    {
      "channel": 1,
      "note": 80,
      "start": 21.5616,
      "duration": 0.1187,
      "velocity": 106,
      "chip": "ym2612"
    },
    {
      "channel": 2,
      "note": 97,
      "start": 21.5628,
      "duration": 0.0292,
      "velocity": 109,
      "chip": "ym2612"
    },
    {
      "channel": 3,
      "note": 45,
      "start": 21.5634,
      "duration": 0.0294,
      "velocity": 95,
      "chip": "ym2612"
    },
    {
      "channel": 4,
      "note": 95,
      "start": 21.5646,
      "duration": 0.0293,
      "velocity": 109,
      "chip": "ym2612"
    },
    {
      "channel": 0,
      "note": 45,
      "start": 21.5911,
      "duration": 0.0884,
      "velocity": 95,
      "chip": "ym2612"
    },
    {
      "channel": 2,
      "note": 97,
      "start": 21.5927,
      "duration": 0.0892,
      "velocity": 109,
      "chip": "ym2612"
    },
    {
      "channel": 3,
      "note": 47,
      "start": 21.5933,
      "duration": 0.0894,
      "velocity": 95,
      "chip": "ym2612"
    },
    {
      "channel": 4,
      "note": 95,
      "start": 21.5944,
      "duration": 0.0893,
      "velocity": 109,
      "chip": "ym2612"
    },
    {
      "channel": 0,
      "note": 47,
      "start": 21.6802,
      "duration": 0.2514,
      "velocity": 95,
      "chip": "ym2612"
    },
    {
      "channel": 1,
      "note": 81,
      "start": 21.6809,
      "duration": 0.0848,
      "velocity": 106,
      "chip": "ym2612"
    },
    {
      "channel": 2,
      "note": 97,
      "start": 21.6825,
      "duration": 0.0263,
      "velocity": 109,
      "chip": "ym2612"
    },
    {
      "channel": 4,
      "note": 95,
      "start": 21.6844,
      "duration": 0.0262,
      "velocity": 109,
      "chip": "ym2612"
    },
    {
      "channel": 2,
      "note": 97,
      "start": 21.7095,
      "duration": 0.028,
      "velocity": 109,
      "chip": "ym2612"
    },
    {
      "channel": 3,
      "note": 39,
      "start": 21.7101,
      "duration": 0.0282,
      "velocity": 95,
      "chip": "ym2612"
    },
    {
      "channel": 4,
      "note": 95,
      "start": 21.7112,
      "duration": 0.0281,
      "velocity": 109,
      "chip": "ym2612"
    },
    {
      "channel": 2,
      "note": 97,
      "start": 21.7382,
      "duration": 0.0288,
      "velocity": 109,
      "chip": "ym2612"
    },
    {
      "channel": 3,
      "note": 42,
      "start": 21.7388,
      "duration": 0.0289,
      "velocity": 95,
      "chip": "ym2612"
    },
    {
      "channel": 4,
      "note": 95,
      "start": 21.74,
      "duration": 0.0286,
      "velocity": 109,
      "chip": "ym2612"
    },
    {
      "channel": 1,
      "note": 78,
      "start": 21.7663,
      "duration": 0.6045,
      "velocity": 106,
      "chip": "ym2612"
    },
    {
      "channel": 2,
      "note": 97,
      "start": 21.7676,
      "duration": 0.1041,
      "velocity": 109,
      "chip": "ym2612"
    },
    {
      "channel": 4,
      "note": 95,
      "start": 21.7692,
      "duration": 0.1044,
      "velocity": 109,
      "chip": "ym2612"
    },
    {
      "channel": 2,
      "note": 97,
      "start": 21.8724,
      "duration": 0.0321,
      "velocity": 109,
      "chip": "ym2612"
    },
    {
      "channel": 3,
      "note": 45,
      "start": 21.8731,
      "duration": 0.0321,
      "velocity": 95,
      "chip": "ym2612"
    },
    {
      "channel": 4,
      "note": 95,
      "start": 21.8742,
      "duration": 0.0317,
      "velocity": 109,
      "chip": "ym2612"
    },
    {
      "channel": 2,
      "note": 97,
      "start": 21.9051,
      "duration": 0.0281,
      "velocity": 109,
      "chip": "ym2612"
    },
    {
      "channel": 4,
      "note": 95,
      "start": 21.9065,
      "duration": 0.0286,
      "velocity": 109,
      "chip": "ym2612"
    },
    {
      "channel": 0,
      "note": 47,
      "start": 21.9321,
      "duration": 0.0571,
      "velocity": 95,
      "chip": "ym2612"
    },
    {
      "channel": 2,
      "note": 97,
      "start": 21.9338,
      "duration": 0.0292,
      "velocity": 109,
      "chip": "ym2612"
    },
    {
      "channel": 3,
      "note": 42,
      "start": 21.9345,
      "duration": 0.0294,
      "velocity": 95,
      "chip": "ym2612"
    },
    {
      "channel": 4,
      "note": 95,
      "start": 21.9358,
      "duration": 0.0287,
      "velocity": 109,
      "chip": "ym2612"
    },
    {
      "channel": 2,
      "note": 97,
      "start": 21.9637,
      "duration": 0.0268,
      "velocity": 109,
      "chip": "ym2612"
    },
    {
      "channel": 4,
      "note": 95,
      "start": 21.9652,
      "duration": 0.0272,
      "velocity": 109,
      "chip": "ym2612"
    },
    {
      "channel": 0,
      "note": 47,
      "start": 21.9897,
      "duration": 0.0903,
      "velocity": 95,
      "chip": "ym2612"
    },
    {
      "channel": 2,
      "note": 97,
      "start": 21.9913,
      "duration": 0.0291,
      "velocity": 109,
      "chip": "ym2612"
    },
    {
      "channel": 3,
      "note": 45,
      "start": 21.992,
      "duration": 0.0575,
      "velocity": 95,
      "chip": "ym2612"
    },
    {
      "channel": 4,
      "note": 95,
      "start": 21.9931,
      "duration": 0.0288,
      "velocity": 109,
      "chip": "ym2612"
    },
    {
      "channel": 2,
      "note": 97,
      "start": 22.021,
      "duration": 0.0277,
      "velocity": 109,
      "chip": "ym2612"
    },
    {
      "channel": 4,
      "note": 95,
      "start": 22.0226,
      "duration": 0.0279,
      "velocity": 109,
      "chip": "ym2612"
    },
    {
      "channel": 2,
      "note": 97,
      "start": 22.0494,
      "duration": 0.0321,
      "velocity": 109,
      "chip": "ym2612"
    },
    {
      "channel": 3,
      "note": 42,
      "start": 22.0501,
      "duration": 0.0322,
      "velocity": 95,
      "chip": "ym2612"
    },
    {
      "channel": 4,
      "note": 95,
      "start": 22.0512,
      "duration": 0.0321,
      "velocity": 109,
      "chip": "ym2612"
    },
    {
      "channel": 0,
      "note": 59,
      "start": 22.0806,
      "duration": 0.1164,
      "velocity": 95,
      "chip": "ym2612"
    },
    {
      "channel": 2,
      "note": 97,
      "start": 22.0821,
      "duration": 0.1161,
      "velocity": 109,
      "chip": "ym2612"
    },
    {
      "channel": 3,
      "note": 45,
      "start": 22.0828,
      "duration": 0.1438,
      "velocity": 95,
      "chip": "ym2612"
    },
    {
      "channel": 4,
      "note": 95,
      "start": 22.084,
      "duration": 0.1159,
      "velocity": 109,
      "chip": "ym2612"
    },
    {
      "channel": 2,
      "note": 97,
      "start": 22.199,
      "duration": 0.0268,
      "velocity": 109,
      "chip": "ym2612"
    },
    {
      "channel": 4,
      "note": 95,
      "start": 22.2005,
      "duration": 0.0271,
      "velocity": 109,
      "chip": "ym2612"
    },
    {
      "channel": 2,
      "note": 97,
      "start": 22.2265,
      "duration": 0.0261,
      "velocity": 109,
      "chip": "ym2612"
    },
    {
      "channel": 3,
      "note": 42,
      "start": 22.2272,
      "duration": 0.0262,
      "velocity": 95,
      "chip": "ym2612"
    },
    {
      "channel": 4,
      "note": 95,
      "start": 22.2283,
      "duration": 0.0262,
      "velocity": 109,
      "chip": "ym2612"
    },
    {
      "channel": 2,
      "note": 97,
      "start": 22.2533,
      "duration": 0.0264,
      "velocity": 109,
      "chip": "ym2612"
    },
    {
      "channel": 3,
      "note": 45,
      "start": 22.254,
      "duration": 0.0264,
      "velocity": 95,
      "chip": "ym2612"
    },
    {
      "channel": 4,
      "note": 95,
      "start": 22.2551,
      "duration": 0.0264,
      "velocity": 109,
      "chip": "ym2612"
    },
    {
      "channel": 2,
      "note": 97,
      "start": 22.2803,
      "duration": 0.094,
      "velocity": 106,
      "chip": "ym2612"
    },
    {
      "channel": 3,
      "note": 47,
      "start": 22.281,
      "duration": 0.0941,
      "velocity": 95,
      "chip": "ym2612"
    },
    {
      "channel": 4,
      "note": 95,
      "start": 22.2822,
      "duration": 0.0943,
      "velocity": 109,
      "chip": "ym2612"
    },
    {
      "channel": 0,
      "note": 49,
      "start": 22.3706,
      "duration": 0.0883,
      "velocity": 95,
      "chip": "ym2612"
    },
    {
      "channel": 1,
      "note": 77,
      "start": 22.3715,
      "duration": 0.0882,
      "velocity": 106,
      "chip": "ym2612"
    },
    {
      "channel": 2,
      "note": 65,
      "start": 22.3749,
      "duration": 0.0855,
      "velocity": 106,
      "chip": "ym2612"
    },
    {
      "channel": 3,
      "note": 41,
      "start": 22.3756,
      "duration": 0.0285,
      "velocity": 95,
      "chip": "ym2612"
    },
    {
      "channel": 4,
      "note": 97,
      "start": 22.3771,
      "duration": 0.0281,
      "velocity": 109,
      "chip": "ym2612"
    },
    {
      "channel": 3,
      "note": 44,
      "start": 22.4047,
      "duration": 0.0269,
      "velocity": 95,
      "chip": "ym2612"
    },
    {
      "channel": 4,
      "note": 97,
      "start": 22.4058,
      "duration": 0.0267,
      "velocity": 109,
      "chip": "ym2612"
    },
    {
      "channel": 3,
      "note": 44,
      "start": 22.4321,
      "duration": 0.0291,
      "velocity": 95,
      "chip": "ym2612"
    },
    {
      "channel": 4,
      "note": 97,
      "start": 22.4332,
      "duration": 0.0291,
      "velocity": 109,
      "chip": "ym2612"
    },
    {
      "channel": 0,
      "note": 48,
      "start": 22.4595,
      "duration": 0.0878,
      "velocity": 95,
      "chip": "ym2612"
    },
    {
      "channel": 1,
      "note": 76,
      "start": 22.4603,
      "duration": 0.0878,
      "velocity": 106,
      "chip": "ym2612"
    },
    {
      "channel": 2,
      "note": 64,
      "start": 22.4611,
      "duration": 0.0878,
      "velocity": 106,
      "chip": "ym2612"
    },
    {
      "channel": 3,
      "note": 40,
      "start": 22.4617,
      "duration": 0.0275,
      "velocity": 95,
      "chip": "ym2612"
    },
    {
      "channel": 4,
      "note": 96,
      "start": 22.463,
      "duration": 0.0272,
      "velocity": 109,
      "chip": "ym2612"
    },
    {
      "channel": 3,
      "note": 43,
      "start": 22.4897,
      "duration": 0.027,
      "velocity": 95,
      "chip": "ym2612"
    },
    {
      "channel": 4,
      "note": 96,
      "start": 22.4909,
      "duration": 0.0269,
      "velocity": 109,
      "chip": "ym2612"
    },
    {
      "channel": 3,
      "note": 43,
      "start": 22.5173,
      "duration": 0.0323,
      "velocity": 95,
      "chip": "ym2612"
    },
    {
      "channel": 4,
      "note": 96,
      "start": 22.5184,
      "duration": 0.0323,
      "velocity": 109,
      "chip": "ym2612"
    },
    {
      "channel": 0,
      "note": 47,
      "start": 22.5479,
      "duration": 0.0858,
      "velocity": 95,
      "chip": "ym2612"
    },
    {
      "channel": 1,
      "note": 75,
      "start": 22.5487,
      "duration": 0.0858,
      "velocity": 106,
      "chip": "ym2612"
    },
    {
      "channel": 2,
      "note": 63,
      "start": 22.5495,
      "duration": 0.0858,
      "velocity": 106,
      "chip": "ym2612"
    },
    {
      "channel": 3,
      "note": 39,
      "start": 22.5501,
      "duration": 0.0279,
      "velocity": 95,
      "chip": "ym2612"
    },
    {
      "channel": 4,
      "note": 95,
      "start": 22.5514,
      "duration": 0.0276,
      "velocity": 109,
      "chip": "ym2612"
    },
    {
      "channel": 3,
      "note": 42,
      "start": 22.5785,
      "duration": 0.0266,
      "velocity": 95,
      "chip": "ym2612"
    },
    {
      "channel": 4,
      "note": 95,
      "start": 22.5796,
      "duration": 0.0265,
      "velocity": 109,
      "chip": "ym2612"
    },
    {
      "channel": 3,
      "note": 42,
      "start": 22.6056,
      "duration": 0.0304,
      "velocity": 95,
      "chip": "ym2612"
    },
    {
      "channel": 4,
      "note": 95,
      "start": 22.6068,
      "duration": 0.0304,
      "velocity": 109,
      "chip": "ym2612"
    },
    {
      "channel": 0,
      "note": 46,
      "start": 22.6344,
      "duration": 0.0882,
      "velocity": 95,
      "chip": "ym2612"
    },
    {
      "channel": 1,
      "note": 74,
      "start": 22.6351,
      "duration": 0.0908,
      "velocity": 112,
      "chip": "ym2612"
    },
    {
      "channel": 2,
      "note": 62,
      "start": 22.6359,
      "duration": 0.0928,
      "velocity": 112,
      "chip": "ym2612"
    },
    {
      "channel": 3,
      "note": 38,
      "start": 22.6365,
      "duration": 0.0277,
      "velocity": 95,
      "chip": "ym2612"
    },
    {
      "channel": 4,
      "note": 94,
      "start": 22.6379,
      "duration": 0.0274,
      "velocity": 109,
      "chip": "ym2612"
    },
    {
      "channel": 3,
      "note": 41,
      "start": 22.6648,
      "duration": 0.027,
      "velocity": 95,
      "chip": "ym2612"
    },
    {
      "channel": 4,
      "note": 94,
      "start": 22.666,
      "duration": 0.0269,
      "velocity": 109,
      "chip": "ym2612"
    },
    {
      "channel": 3,
      "note": 41,
      "start": 22.6924,
      "duration": 0.0367,
      "velocity": 95,
      "chip": "ym2612"
    },
    {
      "channel": 4,
      "note": 94,
      "start": 22.6935,
      "duration": 0.0365,
      "velocity": 109,
      "chip": "ym2612"
    },
    {
      "channel": 0,
      "note": 45,
      "start": 22.7231,
      "duration": 0.2386,
      "velocity": 95,
      "chip": "ym2612"
    },
    {
      "channel": 4,
      "note": 95,
      "start": 22.7307,
      "duration": 0.0208,
      "velocity": 109,
      "chip": "ym2612"
    },
    {
      "channel": 3,
      "note": 47,
      "start": 22.7514,
      "duration": 0.0229,
      "velocity": 95,
      "chip": "ym2612"
    },
    {
      "channel": 4,
      "note": 97,
      "start": 22.7521,
      "duration": 0.0228,
      "velocity": 109,
      "chip": "ym2612"
    },
    {
      "channel": 3,
      "note": 49,
      "start": 22.7749,
      "duration": 0.0227,
      "velocity": 95,
      "chip": "ym2612"
    },
    {
      "channel": 4,
      "note": 90,
      "start": 22.7756,
      "duration": 0.0222,
      "velocity": 109,
      "chip": "ym2612"
    },
    {
      "channel": 4,
      "note": 91,
      "start": 22.7985,
      "duration": 0.1163,
      "velocity": 109,
      "chip": "ym2612"
    },
    {
      "channel": 3,
      "note": 54,
      "start": 22.9144,
      "duration": 0.0238,
      "velocity": 95,
      "chip": "ym2612"
    },
    {
      "channel": 4,
      "note": 90,
      "start": 22.9155,
      "duration": 0.0229,
      "velocity": 109,
      "chip": "ym2612"
    },
    {
      "channel": 4,
      "note": 91,
      "start": 22.9391,
      "duration": 0.0246,
      "velocity": 109,
      "chip": "ym2612"
    },
    {
      "channel": 0,
      "note": 45,
      "start": 22.9622,
      "duration": 0.0458,
      "velocity": 95,
      "chip": "ym2612"
    },
    {
      "channel": 3,
      "note": 49,
      "start": 22.963,
      "duration": 0.024,
      "velocity": 95,
      "chip": "ym2612"
    },
    {
      "channel": 4,
      "note": 95,
      "start": 22.9643,
      "duration": 0.023,
      "velocity": 109,
      "chip": "ym2612"
    },
    {
      "channel": 4,
      "note": 97,
      "start": 22.988,
      "duration": 0.0214,
      "velocity": 109,
      "chip": "ym2612"
    },
    {
      "channel": 0,
      "note": 45,
      "start": 23.0085,
      "duration": 0.0676,
      "velocity": 95,
      "chip": "ym2612"
    },
    {
      "channel": 3,
      "note": 54,
      "start": 23.0093,
      "duration": 0.0462,
      "velocity": 95,
      "chip": "ym2612"
    },
    {
      "channel": 4,
      "note": 90,
      "start": 23.0101,
      "duration": 0.0232,
      "velocity": 109,
      "chip": "ym2612"
    },
    {
      "channel": 4,
      "note": 91,
      "start": 23.0339,
      "duration": 0.0222,
      "velocity": 109,
      "chip": "ym2612"
    },
    {
      "channel": 3,
      "note": 49,
      "start": 23.0561,
      "duration": 0.0209,
      "velocity": 95,
      "chip": "ym2612"
    },
    {
      "channel": 0,
      "note": 57,
      "start": 23.0767,
      "duration": 0.1389,
      "velocity": 95,
      "chip": "ym2612"
    },
    {
      "channel": 3,
      "note": 54,
      "start": 23.0776,
      "duration": 0.1605,
      "velocity": 95,
      "chip": "ym2612"
    },
    {
      "channel": 4,
      "note": 90,
      "start": 23.0787,
      "duration": 0.1378,
      "velocity": 109,
      "chip": "ym2612"
    },
    {
      "channel": 4,
      "note": 91,
      "start": 23.2171,
      "duration": 0.0219,
      "velocity": 109,
      "chip": "ym2612"
    },
    {
      "channel": 3,
      "note": 49,
      "start": 23.2385,
      "duration": 0.0187,
      "velocity": 95,
      "chip": "ym2612"
    },
    {
      "channel": 3,
      "note": 54,
      "start": 23.2577,
      "duration": 0.0187,
      "velocity": 95,
      "chip": "ym2612"
    },
    {
      "channel": 3,
      "note": 55,
      "start": 23.2769,
      "duration": 0.0965,
      "velocity": 95,
      "chip": "ym2612"
    },
    {
      "channel": 0,
      "note": 45,
      "start": 23.3726,
      "duration": 0.0222,
      "velocity": 95,
      "chip": "ym2612"
    },
    {
      "channel": 4,
      "note": 95,
      "start": 23.3746,
      "duration": 0.0217,
      "velocity": 109,
      "chip": "ym2612"
    },
    {
      "channel": 0,
      "note": 45,
      "start": 23.3954,
      "duration": 0.1201,
      "velocity": 95,
      "chip": "ym2612"
    },
    {
      "channel": 3,
      "note": 47,
      "start": 23.3962,
      "duration": 0.0261,
      "velocity": 95,
      "chip": "ym2612"
    },
    {
      "channel": 4,
      "note": 97,
      "start": 23.397,
      "duration": 0.026,
      "velocity": 109,
      "chip": "ym2612"
    },
    {
      "channel": 3,
      "note": 49,
      "start": 23.4229,
      "duration": 0.0227,
      "velocity": 95,
      "chip": "ym2612"
    },
    {
      "channel": 4,
      "note": 90,
      "start": 23.4236,
      "duration": 0.0222,
      "velocity": 109,
      "chip": "ym2612"
    },
    {
      "channel": 4,
      "note": 91,
      "start": 23.4465,
      "duration": 0.0242,
      "velocity": 109,
      "chip": "ym2612"
    },
    {
      "channel": 3,
      "note": 54,
      "start": 23.4703,
      "duration": 0.0238,
      "velocity": 95,
      "chip": "ym2612"
    },
    {
      "channel": 4,
      "note": 90,
      "start": 23.4714,
      "duration": 0.0229,
      "velocity": 109,
      "chip": "ym2612"
    },
    {
      "channel": 4,
      "note": 91,
      "start": 23.495,
      "duration": 0.0224,
      "velocity": 109,
      "chip": "ym2612"
    },
    {
      "channel": 0,
      "note": 45,
      "start": 23.5159,
      "duration": 0.0485,
      "velocity": 95,
      "chip": "ym2612"
    },
    {
      "channel": 3,
      "note": 49,
      "start": 23.5168,
      "duration": 0.0239,
      "velocity": 95,
      "chip": "ym2612"
    },
    {
      "channel": 4,
      "note": 95,
      "start": 23.518,
      "duration": 0.0229,
      "velocity": 109,
      "chip": "ym2612"
    },
    {
      "channel": 4,
      "note": 97,
      "start": 23.5417,
      "duration": 0.0242,
      "velocity": 109,
      "chip": "ym2612"
    },
    {
      "channel": 0,
      "note": 45,
      "start": 23.565,
      "duration": 0.0675,
      "velocity": 95,
      "chip": "ym2612"
    },
    {
      "channel": 3,
      "note": 54,
      "start": 23.5658,
      "duration": 0.0462,
      "velocity": 95,
      "chip": "ym2612"
    },
    {
      "channel": 4,
      "note": 90,
      "start": 23.5666,
      "duration": 0.0232,
      "velocity": 109,
      "chip": "ym2612"
    },
    {
      "channel": 4,
      "note": 91,
      "start": 23.5905,
      "duration": 0.0222,
      "velocity": 109,
      "chip": "ym2612"
    },
    {
      "channel": 3,
      "note": 49,
      "start": 23.6126,
      "duration": 0.0208,
      "velocity": 95,
      "chip": "ym2612"
    },
    {
      "channel": 0,
      "note": 57,
      "start": 23.6331,
      "duration": 0.1223,
      "velocity": 95,
      "chip": "ym2612"
    },
    {
      "channel": 3,
      "note": 54,
      "start": 23.6339,
      "duration": 0.1441,
      "velocity": 95,
      "chip": "ym2612"
    },
    {
      "channel": 4,
      "note": 90,
      "start": 23.6351,
      "duration": 0.1212,
      "velocity": 109,
      "chip": "ym2612"
    },
    {
      "channel": 4,
      "note": 91,
      "start": 23.7569,
      "duration": 0.0222,
      "velocity": 109,
      "chip": "ym2612"
    },
    {
      "channel": 3,
      "note": 49,
      "start": 23.7786,
      "duration": 0.0227,
      "velocity": 95,
      "chip": "ym2612"
    },
    {
      "channel": 1,
      "note": 64,
      "start": 23.8005,
      "duration": 0.0239,
      "velocity": 112,
      "chip": "ym2612"
    },
    {
      "channel": 2,
      "note": 61,
      "start": 23.8012,
      "duration": 0.0239,
      "velocity": 112,
      "chip": "ym2612"
    },
    {
      "channel": 3,
      "note": 54,
      "start": 23.8019,
      "duration": 0.024,
      "velocity": 95,
      "chip": "ym2612"
    },
    {
      "channel": 0,
      "note": 57,
      "start": 23.8242,
      "duration": 0.1048,
      "velocity": 95,
      "chip": "ym2612"
    },
    {
      "channel": 1,
      "note": 66,
      "start": 23.825,
      "duration": 0.1049,
      "velocity": 112,
      "chip": "ym2612"
    },
    {
      "channel": 2,
      "note": 62,
      "start": 23.8258,
      "duration": 0.1049,
      "velocity": 112,
      "chip": "ym2612"
    },
    {
      "channel": 3,
      "note": 55,
      "start": 23.8265,
      "duration": 0.1051,
      "velocity": 95,
      "chip": "ym2612"
    },
    {
      "channel": 0,
      "note": 39,
      "start": 23.9297,
      "duration": 0.2635,
      "velocity": 95,
      "chip": "ym2612"
    },
    {
      "channel": 1,
      "note": 67,
      "start": 23.9305,
      "duration": 0.7018,
      "velocity": 112,
      "chip": "ym2612"
    },
    {
      "channel": 2,
      "note": 63,
      "start": 23.9313,
      "duration": 0.702,
      "velocity": 112,
      "chip": "ym2612"
    },
    {
      "channel": 4,
      "note": 95,
      "start": 23.9327,
      "duration": 0.0246,
      "velocity": 109,
      "chip": "ym2612"
    },
    {
      "channel": 3,
      "note": 47,
      "start": 23.9572,
      "duration": 0.0268,
      "velocity": 95,
      "chip": "ym2612"
    },
    {
      "channel": 4,
      "note": 97,
      "start": 23.958,
      "duration": 0.0266,
      "velocity": 109,
      "chip": "ym2612"
    },
    {
      "channel": 3,
      "note": 49,
      "start": 23.9846,
      "duration": 0.0298,
      "velocity": 95,
      "chip": "ym2612"
    },
    {
      "channel": 4,
      "note": 90,
      "start": 23.9853,
      "duration": 0.0293,
      "velocity": 109,
      "chip": "ym2612"
    },
    {
      "channel": 4,
      "note": 91,
      "start": 24.0153,
      "duration": 0.1233,
      "velocity": 109,
      "chip": "ym2612"
    },
    {
      "channel": 3,
      "note": 54,
      "start": 24.1381,
      "duration": 0.029,
      "velocity": 95,
      "chip": "ym2612"
    },
    {
      "channel": 4,
      "note": 90,
      "start": 24.1393,
      "duration": 0.0281,
      "velocity": 109,
      "chip": "ym2612"
    },
    {
      "channel": 4,
      "note": 91,
      "start": 24.1681,
      "duration": 0.0278,
      "velocity": 109,
      "chip": "ym2612"
    },
    {
      "channel": 0,
      "note": 39,
      "start": 24.1937,
      "duration": 0.0569,
      "velocity": 95,
      "chip": "ym2612"
    },
    {
      "channel": 3,
      "note": 49,
      "start": 24.1952,
      "duration": 0.0293,
      "velocity": 95,
      "chip": "ym2612"
    },
    {
      "channel": 4,
      "note": 95,
      "start": 24.1965,
      "duration": 0.0283,
      "velocity": 109,
      "chip": "ym2612"
    },
    {
      "channel": 4,
      "note": 97,
      "start": 24.2255,
      "duration": 0.0273,
      "velocity": 109,
      "chip": "ym2612"
    },
    {
      "channel": 0,
      "note": 39,
      "start": 24.2511,
      "duration": 0.0871,
      "velocity": 95,
      "chip": "ym2612"
    },
    {
      "channel": 3,
      "note": 54,
      "start": 24.2527,
      "duration": 0.0602,
      "velocity": 95,
      "chip": "ym2612"
    },
    {
      "channel": 4,
      "note": 90,
      "start": 24.2534,
      "duration": 0.0319,
      "velocity": 109,
      "chip": "ym2612"
    },
    {
      "channel": 4,
      "note": 91,
      "start": 24.286,
      "duration": 0.0275,
      "velocity": 109,
      "chip": "ym2612"
    },
    {
      "channel": 3,
      "note": 49,
      "start": 24.3134,
      "duration": 0.0264,
      "velocity": 95,
      "chip": "ym2612"
    },
    {
      "channel": 0,
      "note": 51,
      "start": 24.3389,
      "duration": 0.1196,
      "velocity": 95,
      "chip": "ym2612"
    },
    {
      "channel": 3,
      "note": 54,
      "start": 24.3403,
      "duration": 0.1464,
      "velocity": 95,
      "chip": "ym2612"
    },
    {
      "channel": 4,
      "note": 90,
      "start": 24.3415,
      "duration": 0.1185,
      "velocity": 109,
      "chip": "ym2612"
    },
    {
      "channel": 4,
      "note": 91,
      "start": 24.4606,
      "duration": 0.0271,
      "velocity": 109,
      "chip": "ym2612"
    },
    {
      "channel": 3,
      "note": 49,
      "start": 24.4873,
      "duration": 0.0239,
      "velocity": 95,
      "chip": "ym2612"
    },
    {
      "channel": 3,
      "note": 54,
      "start": 24.5117,
      "duration": 0.0269,
      "velocity": 95,
      "chip": "ym2612"
    },
    {
      "channel": 3,
      "note": 55,
      "start": 24.5393,
      "duration": 0.0949,
      "velocity": 95,
      "chip": "ym2612"
    },
    {
      "channel": 0,
      "note": 39,
      "start": 24.6321,
      "duration": 0.0275,
      "velocity": 95,
      "chip": "ym2612"
    },
    {
      "channel": 1,
      "note": 67,
      "start": 24.633,
      "duration": 0.0272,
      "velocity": 112,
      "chip": "ym2612"
    },
    {
      "channel": 2,
      "note": 63,
      "start": 24.634,
      "duration": 0.027,
      "velocity": 112,
      "chip": "ym2612"
    },
    {
      "channel": 4,
      "note": 95,
      "start": 24.6354,
      "duration": 0.0271,
      "velocity": 109,
      "chip": "ym2612"
    },
    {
      "channel": 0,
      "note": 39,
      "start": 24.6601,
      "duration": 0.1303,
      "velocity": 95,
      "chip": "ym2612"
    },
    {
      "channel": 1,
      "note": 67,
      "start": 24.6609,
      "duration": 0.0281,
      "velocity": 112,
      "chip": "ym2612"
    },
    {
      "channel": 2,
      "note": 63,
      "start": 24.6616,
      "duration": 0.0277,
      "velocity": 112,
      "chip": "ym2612"
    },
    {
      "channel": 3,
      "note": 47,
      "start": 24.6623,
      "duration": 0.0273,
      "velocity": 95,
      "chip": "ym2612"
    },
    {
      "channel": 4,
      "note": 97,
      "start": 24.6631,
      "duration": 0.0272,
      "velocity": 109,
      "chip": "ym2612"
    },
    {
      "channel": 3,
      "note": 49,
      "start": 24.6901,
      "duration": 0.025,
      "velocity": 95,
      "chip": "ym2612"
    },
    {
      "channel": 4,
      "note": 90,
      "start": 24.691,
      "duration": 0.0245,
      "velocity": 109,
      "chip": "ym2612"
    },
    {
      "channel": 1,
      "note": 67,
      "start": 24.7137,
      "duration": 0.0135,
      "velocity": 112,
      "chip": "ym2612"
    },
    {
      "channel": 2,
      "note": 63,
      "start": 24.715,
      "duration": 0.0125,
      "velocity": 112,
      "chip": "ym2612"
    },
    {
      "channel": 4,
      "note": 91,
      "start": 24.7161,
      "duration": 0.0248,
      "velocity": 109,
      "chip": "ym2612"
    },
    {
      "channel": 1,
      "note": 67,
      "start": 24.7389,
      "duration": 0.0156,
      "velocity": 112,
      "chip": "ym2612"
    },
    {
      "channel": 2,
      "note": 63,
      "start": 24.7397,
      "duration": 0.0151,
      "velocity": 112,
      "chip": "ym2612"
    },
    {
      "channel": 3,
      "note": 54,
      "start": 24.7404,
      "duration": 0.0291,
      "velocity": 95,
      "chip": "ym2612"
    },
    {
      "channel": 4,
      "note": 90,
      "start": 24.7415,
      "duration": 0.0283,
      "velocity": 109,
      "chip": "ym2612"
    },
    {
      "channel": 4,
      "note": 91,
      "start": 24.7704,
      "duration": 0.0243,
      "velocity": 109,
      "chip": "ym2612"
    },
    {
      "channel": 0,
      "note": 39,
      "start": 24.7909,
      "duration": 0.0571,
      "velocity": 95,
      "chip": "ym2612"
    },
    {
      "channel": 1,
      "note": 67,
      "start": 24.7922,
      "duration": 0.0291,
      "velocity": 112,
      "chip": "ym2612"
    },
    {
      "channel": 2,
      "note": 61,
      "start": 24.7934,
      "duration": 0.0287,
      "velocity": 112,
      "chip": "ym2612"
    },
    {
      "channel": 3,
      "note": 49,
      "start": 24.7941,
      "duration": 0.0288,
      "velocity": 95,
      "chip": "ym2612"
    },
    {
      "channel": 4,
      "note": 95,
      "start": 24.7954,
      "duration": 0.0278,
      "velocity": 109,
      "chip": "ym2612"
    },
    {
      "channel": 1,
      "note": 67,
      "start": 24.822,
      "duration": 0.0267,
      "velocity": 112,
      "chip": "ym2612"
    },
    {
      "channel": 2,
      "note": 61,
      "start": 24.8227,
      "duration": 0.0262,
      "velocity": 112,
      "chip": "ym2612"
    },
    {
      "channel": 4,
      "note": 97,
      "start": 24.8238,
      "duration": 0.0261,
      "velocity": 109,
      "chip": "ym2612"
    },
    {
      "channel": 0,
      "note": 39,
      "start": 24.8485,
      "duration": 0.0786,
      "velocity": 95,
      "chip": "ym2612"
    },
    {
      "channel": 3,
      "note": 54,
      "start": 24.8498,
      "duration": 0.0518,
      "velocity": 95,
      "chip": "ym2612"
    },
    {
      "channel": 4,
      "note": 90,
      "start": 24.8506,
      "duration": 0.0255,
      "velocity": 109,
      "chip": "ym2612"
    },
    {
      "channel": 1,
      "note": 67,
      "start": 24.8744,
      "duration": 0.0142,
      "velocity": 112,
      "chip": "ym2612"
    },
    {
      "channel": 2,
      "note": 61,
      "start": 24.8757,
      "duration": 0.0132,
      "velocity": 112,
      "chip": "ym2612"
    },
    {
      "channel": 4,
      "note": 91,
      "start": 24.8767,
      "duration": 0.0255,
      "velocity": 109,
      "chip": "ym2612"
    },
    {
      "channel": 1,
      "note": 67,
      "start": 24.9007,
      "duration": 0.0161,
      "velocity": 112,
      "chip": "ym2612"
    },
    {
      "channel": 2,
      "note": 61,
      "start": 24.9015,
      "duration": 0.0157,
      "velocity": 112,
      "chip": "ym2612"
    },
    {
      "channel": 3,
      "note": 49,
      "start": 24.9022,
      "duration": 0.0264,
      "velocity": 95,
      "chip": "ym2612"
    },
    {
      "channel": 0,
      "note": 51,
      "start": 24.9278,
      "duration": 0.128,
      "velocity": 95,
      "chip": "ym2612"
    },
    {
      "channel": 3,
      "note": 54,
      "start": 24.9291,
      "duration": 0.1507,
      "velocity": 95,
      "chip": "ym2612"
    },
    {
      "channel": 4,
      "note": 90,
      "start": 24.9302,
      "duration": 0.1278,
      "velocity": 109,
      "chip": "ym2612"
    },
    {
      "channel": 4,
      "note": 91,
      "start": 25.0587,
      "duration": 0.0221,
      "velocity": 109,
      "chip": "ym2612"
    },
    {
      "channel": 3,
      "note": 49,
      "start": 25.0803,
      "duration": 0.0189,
      "velocity": 95,
      "chip": "ym2612"
    },
    {
      "channel": 3,
      "note": 54,
      "start": 25.0997,
      "duration": 0.0194,
      "velocity": 95,
      "chip": "ym2612"
    },
    {
      "channel": 0,
      "note": 51,
      "start": 25.1188,
      "duration": 0.0938,
      "velocity": 95,
      "chip": "ym2612"
    },
    {
      "channel": 3,
      "note": 55,
      "start": 25.1197,
      "duration": 0.0946,
      "velocity": 95,
      "chip": "ym2612"
    },
    {
      "channel": 0,
      "note": 45,
      "start": 25.2133,
      "duration": 0.2526,
      "velocity": 95,
      "chip": "ym2612"
    },
    {
      "channel": 4,
      "note": 95,
      "start": 25.2155,
      "duration": 0.0234,
      "velocity": 109,
      "chip": "ym2612"
    },
    {
      "channel": 3,
      "note": 47,
      "start": 25.2388,
      "duration": 0.0228,
      "velocity": 95,
      "chip": "ym2612"
    },
    {
      "channel": 4,
      "note": 97,
      "start": 25.2395,
      "duration": 0.0227,
      "velocity": 109,
      "chip": "ym2612"
    },
    {
      "channel": 3,
      "note": 49,
      "start": 25.2622,
      "duration": 0.024,
      "velocity": 95,
      "chip": "ym2612"
    },
    {
      "channel": 4,
      "note": 90,
      "start": 25.2629,
      "duration": 0.0236,
      "velocity": 109,
      "chip": "ym2612"
    },
    {
      "channel": 4,
      "note": 91,
      "start": 25.2871,
      "duration": 0.134,
      "velocity": 109,
      "chip": "ym2612"
    },
    {
      "channel": 3,
      "note": 54,
      "start": 25.4207,
      "duration": 0.0238,
      "velocity": 95,
      "chip": "ym2612"
    },
    {
      "channel": 4,
      "note": 90,
      "start": 25.4218,
      "duration": 0.0229,
      "velocity": 109,
      "chip": "ym2612"
    },
    {
      "channel": 4,
      "note": 91,
      "start": 25.4454,
      "duration": 0.0224,
      "velocity": 109,
      "chip": "ym2612"
    },
    {
      "channel": 0,
      "note": 45,
      "start": 25.4663,
      "duration": 0.0486,
      "velocity": 95,
      "chip": "ym2612"
    },
    {
      "channel": 3,
      "note": 49,
      "start": 25.4672,
      "duration": 0.0267,
      "velocity": 95,
      "chip": "ym2612"
    },
    {
      "channel": 4,
      "note": 95,
      "start": 25.4684,
      "duration": 0.0257,
      "velocity": 109,
      "chip": "ym2612"
    },
    {
      "channel": 4,
      "note": 97,
      "start": 25.4949,
      "duration": 0.0215,
      "velocity": 109,
      "chip": "ym2612"
    },
    {
      "channel": 0,
      "note": 45,
      "start": 25.5154,
      "duration": 0.0674,
      "velocity": 95,
      "chip": "ym2612"
    },
    {
      "channel": 3,
      "note": 54,
      "start": 25.5163,
      "duration": 0.0461,
      "velocity": 95,
      "chip": "ym2612"
    },
    {
      "channel": 4,
      "note": 90,
      "start": 25.5171,
      "duration": 0.0232,
      "velocity": 109,
      "chip": "ym2612"
    },
    {
      "channel": 4,
      "note": 91,
      "start": 25.5408,
      "duration": 0.0222,
      "velocity": 109,
      "chip": "ym2612"
    },
    {
      "channel": 3,
      "note": 49,
      "start": 25.5629,
      "duration": 0.0208,
      "velocity": 95,
      "chip": "ym2612"
    },
    {
      "channel": 0,
      "note": 57,
      "start": 25.5835,
      "duration": 0.1224,
      "velocity": 95,
      "chip": "ym2612"
    },
    {
      "channel": 3,
      "note": 54,
      "start": 25.5843,
      "duration": 0.1465,
      "velocity": 95,
      "chip": "ym2612"
    },
    {
      "channel": 4,
      "note": 90,
      "start": 25.5854,
      "duration": 0.1212,
      "velocity": 109,
      "chip": "ym2612"
    },
    {
      "channel": 4,
      "note": 91,
      "start": 25.7073,
      "duration": 0.0245,
      "velocity": 109,
      "chip": "ym2612"
    },
    {
      "channel": 3,
      "note": 49,
      "start": 25.7313,
      "duration": 0.0189,
      "velocity": 95,
      "chip": "ym2612"
    },
    {
      "channel": 3,
      "note": 54,
      "start": 25.7507,
      "duration": 0.0187,
      "velocity": 95,
      "chip": "ym2612"
    },
    {
      "channel": 3,
      "note": 55,
      "start": 25.7699,
      "duration": 0.1105,
      "velocity": 95,
      "chip": "ym2612"
    },
    {
      "channel": 0,
      "note": 45,
      "start": 25.8795,
      "duration": 0.0222,
      "velocity": 95,
      "chip": "ym2612"
    },
    {
      "channel": 4,
      "note": 95,
      "start": 25.8816,
      "duration": 0.0217,
      "velocity": 109,
      "chip": "ym2612"
    },
    {
      "channel": 0,
      "note": 45,
      "start": 25.9023,
      "duration": 0.12,
      "velocity": 95,
      "chip": "ym2612"
    },
    {
      "channel": 3,
      "note": 47,
      "start": 25.9031,
      "duration": 0.0261,
      "velocity": 95,
      "chip": "ym2612"
    },
    {
      "channel": 4,
      "note": 97,
      "start": 25.9039,
      "duration": 0.026,
      "velocity": 109,
      "chip": "ym2612"
    },
    {
      "channel": 3,
      "note": 49,
      "start": 25.9298,
      "duration": 0.0227,
      "velocity": 95,
      "chip": "ym2612"
    },
    {
      "channel": 4,
      "note": 90,
      "start": 25.9306,
      "duration": 0.0222,
      "velocity": 109,
      "chip": "ym2612"
    },
    {
      "channel": 4,
      "note": 91,
      "start": 25.9534,
      "duration": 0.0242,
      "velocity": 109,
      "chip": "ym2612"
    },
    {
      "channel": 3,
      "note": 54,
      "start": 25.9772,
      "duration": 0.0238,
      "velocity": 95,
      "chip": "ym2612"
    },
    {
      "channel": 4,
      "note": 90,
      "start": 25.9783,
      "duration": 0.0229,
      "velocity": 109,
      "chip": "ym2612"
    },
    {
      "channel": 4,
      "note": 91,
      "start": 26.0019,
      "duration": 0.0224,
      "velocity": 109,
      "chip": "ym2612"
    },
    {
      "channel": 0,
      "note": 45,
      "start": 26.0228,
      "duration": 0.0485,
      "velocity": 95,
      "chip": "ym2612"
    },
    {
      "channel": 3,
      "note": 49,
      "start": 26.0237,
      "duration": 0.0239,
      "velocity": 95,
      "chip": "ym2612"
    },
    {
      "channel": 4,
      "note": 95,
      "start": 26.0249,
      "duration": 0.0229,
      "velocity": 109,
      "chip": "ym2612"
    },
    {
      "channel": 4,
      "note": 97,
      "start": 26.0486,
      "duration": 0.0243,
      "velocity": 109,
      "chip": "ym2612"
    },
    {
      "channel": 0,
      "note": 45,
      "start": 26.0718,
      "duration": 0.0675,
      "velocity": 95,
      "chip": "ym2612"
    },
    {
      "channel": 3,
      "note": 54,
      "start": 26.0727,
      "duration": 0.0461,
      "velocity": 95,
      "chip": "ym2612"
    },
    {
      "channel": 4,
      "note": 90,
      "start": 26.0735,
      "duration": 0.0232,
      "velocity": 109,
      "chip": "ym2612"
    },
    {
      "channel": 4,
      "note": 91,
      "start": 26.0973,
      "duration": 0.0222,
      "velocity": 109,
      "chip": "ym2612"
    },
    {
      "channel": 3,
      "note": 49,
      "start": 26.1194,
      "duration": 0.0208,
      "velocity": 95,
      "chip": "ym2612"
    },
    {
      "channel": 0,
      "note": 57,
      "start": 26.14,
      "duration": 0.1223,
      "velocity": 95,
      "chip": "ym2612"
    },
    {
      "channel": 3,
      "note": 54,
      "start": 26.1408,
      "duration": 0.1441,
      "velocity": 95,
      "chip": "ym2612"
    },
    {
      "channel": 4,
      "note": 90,
      "start": 26.1419,
      "duration": 0.1212,
      "velocity": 109,
      "chip": "ym2612"
    },
    {
      "channel": 4,
      "note": 91,
      "start": 26.2638,
      "duration": 0.0222,
      "velocity": 109,
      "chip": "ym2612"
    },
    {
      "channel": 3,
      "note": 49,
      "start": 26.2855,
      "duration": 0.0226,
      "velocity": 95,
      "chip": "ym2612"
    },
    {
      "channel": 1,
      "note": 64,
      "start": 26.3072,
      "duration": 0.0239,
      "velocity": 112,
      "chip": "ym2612"
    },
    {
      "channel": 2,
      "note": 61,
      "start": 26.3079,
      "duration": 0.0239,
      "velocity": 112,
      "chip": "ym2612"
    },
    {
      "channel": 3,
      "note": 54,
      "start": 26.3086,
      "duration": 0.024,
      "velocity": 95,
      "chip": "ym2612"
    },
    {
      "channel": 0,
      "note": 57,
      "start": 26.3309,
      "duration": 0.1046,
      "velocity": 95,
      "chip": "ym2612"
    },
    {
      "channel": 1,
      "note": 66,
      "start": 26.3317,
      "duration": 0.1046,
      "velocity": 112,
      "chip": "ym2612"
    },
    {
      "channel": 2,
      "note": 62,
      "start": 26.3324,
      "duration": 0.1047,
      "velocity": 112,
      "chip": "ym2612"
    },
    {
      "channel": 3,
      "note": 55,
      "start": 26.3332,
      "duration": 0.1048,
      "velocity": 95,
      "chip": "ym2612"
    },
    {
      "channel": 0,
      "note": 39,
      "start": 26.4361,
      "duration": 0.2638,
      "velocity": 95,
      "chip": "ym2612"
    },
    {
      "channel": 1,
      "note": 67,
      "start": 26.437,
      "duration": 0.702,
      "velocity": 112,
      "chip": "ym2612"
    },
    {
      "channel": 2,
      "note": 63,
      "start": 26.4378,
      "duration": 0.7021,
      "velocity": 112,
      "chip": "ym2612"
    },
    {
      "channel": 4,
      "note": 95,
      "start": 26.4392,
      "duration": 0.0244,
      "velocity": 109,
      "chip": "ym2612"
    },
    {
      "channel": 3,
      "note": 47,
      "start": 26.4634,
      "duration": 0.0268,
      "velocity": 95,
      "chip": "ym2612"
    },
    {
      "channel": 4,
      "note": 97,
      "start": 26.4643,
      "duration": 0.0266,
      "velocity": 109,
      "chip": "ym2612"
    },
    {
      "channel": 3,
      "note": 49,
      "start": 26.4908,
      "duration": 0.0263,
      "velocity": 95,
      "chip": "ym2612"
    },
    {
      "channel": 4,
      "note": 90,
      "start": 26.4915,
      "duration": 0.0258,
      "velocity": 109,
      "chip": "ym2612"
    },
    {
      "channel": 4,
      "note": 91,
      "start": 26.518,
      "duration": 0.1272,
      "velocity": 109,
      "chip": "ym2612"
    },
    {
      "channel": 3,
      "note": 54,
      "start": 26.6448,
      "duration": 0.0289,
      "velocity": 95,
      "chip": "ym2612"
    },
    {
      "channel": 4,
      "note": 90,
      "start": 26.6459,
      "duration": 0.028,
      "velocity": 109,
      "chip": "ym2612"
    },
    {
      "channel": 4,
      "note": 91,
      "start": 26.6746,
      "duration": 0.0279,
      "velocity": 109,
      "chip": "ym2612"
    },
    {
      "channel": 0,
      "note": 39,
      "start": 26.7004,
      "duration": 0.0568,
      "velocity": 95,
      "chip": "ym2612"
    },
    {
      "channel": 3,
      "note": 49,
      "start": 26.702,
      "duration": 0.0291,
      "velocity": 95,
      "chip": "ym2612"
    },
    {
      "channel": 4,
      "note": 95,
      "start": 26.7032,
      "duration": 0.0281,
      "velocity": 109,
      "chip": "ym2612"
    },
    {
      "channel": 4,
      "note": 97,
      "start": 26.732,
      "duration": 0.0274,
      "velocity": 109,
      "chip": "ym2612"
    },
    {
      "channel": 0,
      "note": 39,
      "start": 26.7578,
      "duration": 0.0865,
      "velocity": 95,
      "chip": "ym2612"
    },
    {
      "channel": 3,
      "note": 54,
      "start": 26.7593,
      "duration": 0.06,
      "velocity": 95,
      "chip": "ym2612"
    },
    {
      "channel": 4,
      "note": 90,
      "start": 26.7601,
      "duration": 0.0283,
      "velocity": 109,
      "chip": "ym2612"
    },
    {
      "channel": 4,
      "note": 91,
      "start": 26.789,
      "duration": 0.0309,
      "velocity": 109,
      "chip": "ym2612"
    },
    {
      "channel": 3,
      "note": 49,
      "start": 26.8198,
      "duration": 0.0261,
      "velocity": 95,
      "chip": "ym2612"
    },
    {
      "channel": 0,
      "note": 51,
      "start": 26.8449,
      "duration": 0.1201,
      "velocity": 95,
      "chip": "ym2612"
    },
    {
      "channel": 3,
      "note": 54,
      "start": 26.8464,
      "duration": 0.1467,
      "velocity": 95,
      "chip": "ym2612"
    },
    {
      "channel": 4,
      "note": 90,
      "start": 26.8476,
      "duration": 0.1189,
      "velocity": 109,
      "chip": "ym2612"
    },
    {
      "channel": 4,
      "note": 91,
      "start": 26.9672,
      "duration": 0.027,
      "velocity": 109,
      "chip": "ym2612"
    },
    {
      "channel": 3,
      "note": 49,
      "start": 26.9937,
      "duration": 0.0239,
      "velocity": 95,
      "chip": "ym2612"
    },
    {
      "channel": 3,
      "note": 54,
      "start": 27.0182,
      "duration": 0.0237,
      "velocity": 95,
      "chip": "ym2612"
    },
    {
      "channel": 3,
      "note": 55,
      "start": 27.0424,
      "duration": 0.0983,
      "velocity": 95,
      "chip": "ym2612"
    },
    {
      "channel": 0,
      "note": 45,
      "start": 27.1386,
      "duration": 0.0289,
      "velocity": 95,
      "chip": "ym2612"
    },
    {
      "channel": 1,
      "note": 64,
      "start": 27.1396,
      "duration": 0.0287,
      "velocity": 112,
      "chip": "ym2612"
    },
    {
      "channel": 2,
      "note": 61,
      "start": 27.1405,
      "duration": 0.0285,
      "velocity": 112,
      "chip": "ym2612"
    },
    {
      "channel": 4,
      "note": 95,
      "start": 27.1419,
      "duration": 0.0286,
      "velocity": 109,
      "chip": "ym2612"
    },
    {
      "channel": 0,
      "note": 45,
      "start": 27.1681,
      "duration": 0.0289,
      "velocity": 95,
      "chip": "ym2612"
    },
    {
      "channel": 1,
      "note": 64,
      "start": 27.1689,
      "duration": 0.0285,
      "velocity": 112,
      "chip": "ym2612"
    },
    {
      "channel": 2,
      "note": 61,
      "start": 27.1697,
      "duration": 0.028,
      "velocity": 112,
      "chip": "ym2612"
    },
    {
      "channel": 3,
      "note": 47,
      "start": 27.1704,
      "duration": 0.0276,
      "velocity": 95,
      "chip": "ym2612"
    },
    {
      "channel": 4,
      "note": 97,
      "start": 27.1711,
      "duration": 0.0276,
      "velocity": 109,
      "chip": "ym2612"
    },
    {
      "channel": 3,
      "note": 49,
      "start": 27.1986,
      "duration": 0.0227,
      "velocity": 95,
      "chip": "ym2612"
    },
    {
      "channel": 4,
      "note": 90,
      "start": 27.1993,
      "duration": 0.0223,
      "velocity": 109,
      "chip": "ym2612"
    },
    {
      "channel": 1,
      "note": 64,
      "start": 27.2199,
      "duration": 0.0122,
      "velocity": 112,
      "chip": "ym2612"
    },
    {
      "channel": 2,
      "note": 61,
      "start": 27.2212,
      "duration": 0.0112,
      "velocity": 112,
      "chip": "ym2612"
    },
    {
      "channel": 4,
      "note": 91,
      "start": 27.2222,
      "duration": 0.0239,
      "velocity": 109,
      "chip": "ym2612"
    },
    {
      "channel": 1,
      "note": 64,
      "start": 27.2442,
      "duration": 0.0136,
      "velocity": 112,
      "chip": "ym2612"
    },
    {
      "channel": 2,
      "note": 61,
      "start": 27.245,
      "duration": 0.0131,
      "velocity": 112,
      "chip": "ym2612"
    },
    {
      "channel": 3,
      "note": 54,
      "start": 27.2457,
      "duration": 0.0231,
      "velocity": 95,
      "chip": "ym2612"
    },
    {
      "channel": 4,
      "note": 90,
      "start": 27.2468,
      "duration": 0.0222,
      "velocity": 109,
      "chip": "ym2612"
    },
    {
      "channel": 4,
      "note": 91,
      "start": 27.2698,
      "duration": 0.0239,
      "velocity": 109,
      "chip": "ym2612"
    },
    {
      "channel": 0,
      "note": 47,
      "start": 27.29,
      "duration": 0.0289,
      "velocity": 95,
      "chip": "ym2612"
    },
    {
      "channel": 1,
      "note": 66,
      "start": 27.2913,
      "duration": 0.0284,
      "velocity": 112,
      "chip": "ym2612"
    },
    {
      "channel": 2,
      "note": 63,
      "start": 27.2925,
      "duration": 0.0279,
      "velocity": 112,
      "chip": "ym2612"
    },
    {
      "channel": 3,
      "note": 47,
      "start": 27.2932,
      "duration": 0.028,
      "velocity": 95,
      "chip": "ym2612"
    },
    {
      "channel": 0,
      "note": 47,
      "start": 27.3195,
      "duration": 0.0263,
      "velocity": 95,
      "chip": "ym2612"
    },
    {
      "channel": 1,
      "note": 66,
      "start": 27.3203,
      "duration": 0.0259,
      "velocity": 112,
      "chip": "ym2612"
    },
    {
      "channel": 2,
      "note": 63,
      "start": 27.321,
      "duration": 0.0254,
      "velocity": 112,
      "chip": "ym2612"
    },
    {
      "channel": 3,
      "note": 47,
      "start": 27.3217,
      "duration": 0.0251,
      "velocity": 95,
      "chip": "ym2612"
    },
    {
      "channel": 1,
      "note": 66,
      "start": 27.3641,
      "duration": 0.0105,
      "velocity": 112,
      "chip": "ym2612"
    },
    {
      "channel": 2,
      "note": 63,
      "start": 27.3654,
      "duration": 0.0096,
      "velocity": 112,
      "chip": "ym2612"
    },
    {
      "channel": 1,
      "note": 66,
      "start": 27.384,
      "duration": 0.0105,
      "velocity": 112,
      "chip": "ym2612"
    },
    {
      "channel": 2,
      "note": 63,
      "start": 27.3848,
      "duration": 0.01,
      "velocity": 112,
      "chip": "ym2612"
    },
    {
      "channel": 0,
      "note": 35,
      "start": 27.4222,
      "duration": 0.156,
      "velocity": 95,
      "chip": "ym2612"
    },
    {
      "channel": 3,
      "note": 47,
      "start": 27.4244,
      "duration": 0.0204,
      "velocity": 95,
      "chip": "ym2612"
    },
    {
      "channel": 3,
      "note": 45,
      "start": 27.4453,
      "duration": 0.0203,
      "velocity": 95,
      "chip": "ym2612"
    },
    {
      "channel": 3,
      "note": 48,
      "start": 27.4661,
      "duration": 0.0202,
      "velocity": 95,
      "chip": "ym2612"
    },
    {
      "channel": 3,
      "note": 49,
      "start": 27.4869,
      "duration": 0.0977,
      "velocity": 95,
      "chip": "ym2612"
    },
    {
      "channel": 0,
      "note": 37,
      "start": 27.5788,
      "duration": 68.8195,
      "velocity": 95,
      "chip": "ym2612"
    },
    {
      "channel": 4,
      "note": 97,
      "start": 27.588,
      "duration": 0.0254,
      "velocity": 109,
      "chip": "ym2612"
    },
    {
      "channel": 1,
      "note": 68,
      "start": 27.6114,
      "duration": 0.1746,
      "velocity": 105,
      "chip": "ym2612"
    },
    {
      "channel": 2,
      "note": 61,
      "start": 27.6122,
      "duration": 68.7862,
      "velocity": 105,
      "chip": "ym2612"
    },
    {
      "channel": 3,
      "note": 42,
      "start": 27.6128,
      "duration": 0.0278,
      "velocity": 95,
      "chip": "ym2612"
    },
    {
      "channel": 4,
      "note": 97,
      "start": 27.614,
      "duration": 0.0279,
      "velocity": 109,
      "chip": "ym2612"
    },
    {
      "channel": 3,
      "note": 44,
      "start": 27.6412,
      "duration": 0.0277,
      "velocity": 95,
      "chip": "ym2612"
    },
    {
      "channel": 4,
      "note": 92,
      "start": 27.6425,
      "duration": 0.0271,
      "velocity": 109,
      "chip": "ym2612"
    },
    {
      "channel": 4,
      "note": 92,
      "start": 27.6702,
      "duration": 68.7281,
      "velocity": 109,
      "chip": "ym2612"
    }
  ]
}