{
  "track_name": "06 - Course Theme 3",
  "duration_sec": 67.859,
  "sample_rate": 44100,
  "note_count": 698,
  "unique_pitches": 39,
  "pitch_range": 76,
  "avg_note_duration": 0.3275,
  "reconstruction_stats": {
    "notes_reconstructed": 698,
    "keyon_events": 698,
    "keyoff_events": 696,
    "orphan_keyons": 2,
    "unique_pitches": 39,
    "pitch_range": 76,
    "avg_duration_sec": 0.3275
  },
  "metadata": {
    "source": "D\\Devil's Course\\06 - Course Theme 3.vgm"
  },
  "notes": [
    {
      "channel": 0,
      "note": 77,
      "start": 0.0,
      "duration": 1.6618,
      "velocity": 84,
      "chip": "ym2612"
    },
    {
      "channel": 1,
      "note": 65,
      "start": 0.0051,
      "duration": 0.3757,
      "velocity": 92,
      "chip": "ym2612"
    },
    {
      "channel": 2,
      "note": 72,
      "start": 0.0098,
      "duration": 1.6525,
      "velocity": 84,
      "chip": "ym2612"
    },
    {
      "channel": 3,
      "note": 29,
      "start": 0.0156,
      "duration": 0.038,
      "velocity": 125,
      "chip": "ym2612"
    },
    {
      "channel": 4,
      "note": 84,
      "start": 0.0208,
      "duration": 0.3604,
      "velocity": 92,
      "chip": "ym2612"
    },
    {
      "channel": 5,
      "note": 81,
      "start": 0.026,
      "duration": 0.3554,
      "velocity": 92,
      "chip": "ym2612"
    },
    {
      "channel": 3,
      "note": 41,
      "start": 0.434,
      "duration": 0.0337,
      "velocity": 123,
      "chip": "ym2612"
    },
    {
      "channel": 1,
      "note": 70,
      "start": 0.8436,
      "duration": 0.5484,
      "velocity": 92,
      "chip": "ym2612"
    },
    {
      "channel": 3,
      "note": 29,
      "start": 0.8486,
      "duration": 0.0235,
      "velocity": 125,
      "chip": "ym2612"
    },
    {
      "channel": 4,
      "note": 86,
      "start": 0.8495,
      "duration": 0.3502,
      "velocity": 92,
      "chip": "ym2612"
    },
    {
      "channel": 5,
      "note": 82,
      "start": 0.8502,
      "duration": 0.3497,
      "velocity": 92,
      "chip": "ym2612"
    },
    {
      "channel": 3,
      "note": 41,
      "start": 1.2522,
      "duration": 0.0148,
      "velocity": 123,
      "chip": "ym2612"
    },
    {
      "channel": 1,
      "note": 72,
      "start": 1.4598,
      "duration": 0.5485,
      "velocity": 92,
      "chip": "ym2612"
    },
    {
      "channel": 3,
      "note": 29,
      "start": 1.4649,
      "duration": 0.0139,
      "velocity": 125,
      "chip": "ym2612"
    },
    {
      "channel": 4,
      "note": 88,
      "start": 1.4657,
      "duration": 0.5431,
      "velocity": 92,
      "chip": "ym2612"
    },
    {
      "channel": 5,
      "note": 84,
      "start": 1.4665,
      "duration": 0.5425,
      "velocity": 92,
      "chip": "ym2612"
    },
    {
      "channel": 0,
      "note": 77,
      "start": 2.0761,
      "duration": 0.2019,
      "velocity": 84,
      "chip": "ym2612"
    },
    {
      "channel": 2,
      "note": 72,
      "start": 2.0773,
      "duration": 0.2016,
      "velocity": 84,
      "chip": "ym2612"
    },
    {
      "channel": 3,
      "note": 41,
      "start": 2.0822,
      "duration": 0.0226,
      "velocity": 123,
      "chip": "ym2612"
    },
    {
      "channel": 0,
      "note": 74,
      "start": 2.2784,
      "duration": 0.202,
      "velocity": 84,
      "chip": "ym2612"
    },
    {
      "channel": 2,
      "note": 69,
      "start": 2.2793,
      "duration": 0.2027,
      "velocity": 84,
      "chip": "ym2612"
    },
    {
      "channel": 0,
      "note": 77,
      "start": 2.4808,
      "duration": 0.2113,
      "velocity": 84,
      "chip": "ym2612"
    },
    {
      "channel": 1,
      "note": 70,
      "start": 2.4815,
      "duration": 0.1913,
      "velocity": 92,
      "chip": "ym2612"
    },
    {
      "channel": 2,
      "note": 72,
      "start": 2.4823,
      "duration": 0.211,
      "velocity": 84,
      "chip": "ym2612"
    },
    {
      "channel": 3,
      "note": 29,
      "start": 2.4871,
      "duration": 0.0127,
      "velocity": 125,
      "chip": "ym2612"
    },
    {
      "channel": 4,
      "note": 86,
      "start": 2.4879,
      "duration": 0.1854,
      "velocity": 92,
      "chip": "ym2612"
    },
    {
      "channel": 5,
      "note": 82,
      "start": 2.4887,
      "duration": 0.1849,
      "velocity": 92,
      "chip": "ym2612"
    },
    {
      "channel": 1,
      "note": 70,
      "start": 2.6929,
      "duration": 0.5482,
      "velocity": 92,
      "chip": "ym2612"
    },
    {
      "channel": 3,
      "note": 29,
      "start": 2.6941,
      "duration": 0.0176,
      "velocity": 125,
      "chip": "ym2612"
    },
    {
      "channel": 4,
      "note": 86,
      "start": 2.6948,
      "duration": 0.3539,
      "velocity": 92,
      "chip": "ym2612"
    },
    {
      "channel": 5,
      "note": 82,
      "start": 2.6957,
      "duration": 0.3533,
      "velocity": 92,
      "chip": "ym2612"
    },
    {
      "channel": 0,
      "note": 79,
      "start": 2.8947,
      "duration": 0.202,
      "velocity": 84,
      "chip": "ym2612"
    },
    {
      "channel": 2,
      "note": 74,
      "start": 2.8956,
      "duration": 0.2016,
      "velocity": 84,
      "chip": "ym2612"
    },
    {
      "channel": 3,
      "note": 41,
      "start": 2.9006,
      "duration": 0.0326,
      "velocity": 123,
      "chip": "ym2612"
    },
    {
      "channel": 0,
      "note": 77,
      "start": 3.3088,
      "duration": 1.6368,
      "velocity": 84,
      "chip": "ym2612"
    },
    {
      "channel": 1,
      "note": 65,
      "start": 3.3097,
      "duration": 0.3551,
      "velocity": 92,
      "chip": "ym2612"
    },
    {
      "channel": 2,
      "note": 72,
      "start": 3.3105,
      "duration": 1.6356,
      "velocity": 84,
      "chip": "ym2612"
    },
    {
      "channel": 3,
      "note": 29,
      "start": 3.3154,
      "duration": 0.0221,
      "velocity": 125,
      "chip": "ym2612"
    },
    {
      "channel": 4,
      "note": 84,
      "start": 3.3164,
      "duration": 0.3488,
      "velocity": 92,
      "chip": "ym2612"
    },
    {
      "channel": 5,
      "note": 81,
      "start": 3.3173,
      "duration": 0.3482,
      "velocity": 92,
      "chip": "ym2612"
    },
    {
      "channel": 3,
      "note": 41,
      "start": 3.718,
      "duration": 0.0337,
      "velocity": 123,
      "chip": "ym2612"
    },
    {
      "channel": 1,
      "note": 70,
      "start": 4.1277,
      "duration": 0.5483,
      "velocity": 92,
      "chip": "ym2612"
    },
    {
      "channel": 3,
      "note": 29,
      "start": 4.1327,
      "duration": 0.0332,
      "velocity": 125,
      "chip": "ym2612"
    },
    {
      "channel": 4,
      "note": 86,
      "start": 4.1334,
      "duration": 0.3502,
      "velocity": 92,
      "chip": "ym2612"
    },
    {
      "channel": 5,
      "note": 82,
      "start": 4.1343,
      "duration": 0.3497,
      "velocity": 92,
      "chip": "ym2612"
    },
    {
      "channel": 3,
      "note": 41,
      "start": 4.5459,
      "duration": 0.0148,
      "velocity": 123,
      "chip": "ym2612"
    },
    {
      "channel": 1,
      "note": 60,
      "start": 4.744,
      "duration": 0.3558,
      "velocity": 92,
      "chip": "ym2612"
    },
    {
      "channel": 3,
      "note": 29,
      "start": 4.7491,
      "duration": 0.0138,
      "velocity": 125,
      "chip": "ym2612"
    },
    {
      "channel": 4,
      "note": 88,
      "start": 4.7499,
      "duration": 0.5428,
      "velocity": 92,
      "chip": "ym2612"
    },
    {
      "channel": 5,
      "note": 84,
      "start": 4.7507,
      "duration": 0.5422,
      "velocity": 92,
      "chip": "ym2612"
    },
    {
      "channel": 1,
      "note": 60,
      "start": 5.158,
      "duration": 0.1825,
      "velocity": 92,
      "chip": "ym2612"
    },
    {
      "channel": 1,
      "note": 67,
      "start": 5.3602,
      "duration": 0.1922,
      "velocity": 92,
      "chip": "ym2612"
    },
    {
      "channel": 3,
      "note": 41,
      "start": 5.3653,
      "duration": 0.014,
      "velocity": 123,
      "chip": "ym2612"
    },
    {
      "channel": 1,
      "note": 60,
      "start": 5.5624,
      "duration": 0.1922,
      "velocity": 92,
      "chip": "ym2612"
    },
    {
      "channel": 3,
      "note": 29,
      "start": 5.5675,
      "duration": 0.014,
      "velocity": 125,
      "chip": "ym2612"
    },
    {
      "channel": 1,
      "note": 70,
      "start": 5.7744,
      "duration": 0.1825,
      "velocity": 92,
      "chip": "ym2612"
    },
    {
      "channel": 3,
      "note": 29,
      "start": 5.7753,
      "duration": 0.0181,
      "velocity": 125,
      "chip": "ym2612"
    },
    {
      "channel": 4,
      "note": 86,
      "start": 5.7761,
      "duration": 0.1812,
      "velocity": 92,
      "chip": "ym2612"
    },
    {
      "channel": 5,
      "note": 82,
      "start": 5.777,
      "duration": 0.1805,
      "velocity": 92,
      "chip": "ym2612"
    },
    {
      "channel": 1,
      "note": 65,
      "start": 5.9767,
      "duration": 0.192,
      "velocity": 92,
      "chip": "ym2612"
    },
    {
      "channel": 3,
      "note": 29,
      "start": 5.9777,
      "duration": 0.0179,
      "velocity": 125,
      "chip": "ym2612"
    },
    {
      "channel": 4,
      "note": 86,
      "start": 5.9785,
      "duration": 0.3543,
      "velocity": 92,
      "chip": "ym2612"
    },
    {
      "channel": 5,
      "note": 82,
      "start": 5.9793,
      "duration": 0.3537,
      "velocity": 92,
      "chip": "ym2612"
    },
    {
      "channel": 1,
      "note": 64,
      "start": 6.1788,
      "duration": 0.3655,
      "velocity": 92,
      "chip": "ym2612"
    },
    {
      "channel": 3,
      "note": 41,
      "start": 6.1839,
      "duration": 0.0332,
      "velocity": 123,
      "chip": "ym2612"
    },
    {
      "channel": 0,
      "note": 77,
      "start": 6.5929,
      "duration": 1.6464,
      "velocity": 84,
      "chip": "ym2612"
    },
    {
      "channel": 1,
      "note": 65,
      "start": 6.5937,
      "duration": 0.3551,
      "velocity": 92,
      "chip": "ym2612"
    },
    {
      "channel": 2,
      "note": 72,
      "start": 6.5946,
      "duration": 1.6452,
      "velocity": 84,
      "chip": "ym2612"
    },
    {
      "channel": 3,
      "note": 29,
      "start": 6.5999,
      "duration": 0.0314,
      "velocity": 125,
      "chip": "ym2612"
    },
    {
      "channel": 4,
      "note": 84,
      "start": 6.6008,
      "duration": 0.3484,
      "velocity": 92,
      "chip": "ym2612"
    },
    {
      "channel": 5,
      "note": 81,
      "start": 6.6017,
      "duration": 0.3478,
      "velocity": 92,
      "chip": "ym2612"
    },
    {
      "channel": 3,
      "note": 41,
      "start": 7.0116,
      "duration": 0.0242,
      "velocity": 123,
      "chip": "ym2612"
    },
    {
      "channel": 1,
      "note": 70,
      "start": 7.4116,
      "duration": 0.5484,
      "velocity": 92,
      "chip": "ym2612"
    },
    {
      "channel": 3,
      "note": 29,
      "start": 7.4167,
      "duration": 0.0332,
      "velocity": 125,
      "chip": "ym2612"
    },
    {
      "channel": 4,
      "note": 86,
      "start": 7.4175,
      "duration": 0.3599,
      "velocity": 92,
      "chip": "ym2612"
    },
    {
      "channel": 5,
      "note": 82,
      "start": 7.4183,
      "duration": 0.3593,
      "velocity": 92,
      "chip": "ym2612"
    },
    {
      "channel": 3,
      "note": 41,
      "start": 7.83,
      "duration": 0.0147,
      "velocity": 123,
      "chip": "ym2612"
    },
    {
      "channel": 1,
      "note": 72,
      "start": 8.0279,
      "duration": 0.5485,
      "velocity": 92,
      "chip": "ym2612"
    },
    {
      "channel": 3,
      "note": 29,
      "start": 8.0329,
      "duration": 0.0141,
      "velocity": 125,
      "chip": "ym2612"
    },
    {
      "channel": 4,
      "note": 88,
      "start": 8.0338,
      "duration": 0.5431,
      "velocity": 92,
      "chip": "ym2612"
    },
    {
      "channel": 5,
      "note": 84,
      "start": 8.0345,
      "duration": 0.5425,
      "velocity": 92,
      "chip": "ym2612"
    },
    {
      "channel": 0,
      "note": 77,
      "start": 8.6441,
      "duration": 0.2115,
      "velocity": 84,
      "chip": "ym2612"
    },
    {
      "channel": 2,
      "note": 72,
      "start": 8.6454,
      "duration": 0.2112,
      "velocity": 84,
      "chip": "ym2612"
    },
    {
      "channel": 3,
      "note": 41,
      "start": 8.6502,
      "duration": 0.0323,
      "velocity": 123,
      "chip": "ym2612"
    },
    {
      "channel": 0,
      "note": 74,
      "start": 8.856,
      "duration": 0.2018,
      "velocity": 84,
      "chip": "ym2612"
    },
    {
      "channel": 2,
      "note": 70,
      "start": 8.8569,
      "duration": 0.2025,
      "velocity": 84,
      "chip": "ym2612"
    },
    {
      "channel": 0,
      "note": 77,
      "start": 9.0583,
      "duration": 0.2018,
      "velocity": 84,
      "chip": "ym2612"
    },
    {
      "channel": 1,
      "note": 70,
      "start": 9.059,
      "duration": 0.1915,
      "velocity": 92,
      "chip": "ym2612"
    },
    {
      "channel": 2,
      "note": 72,
      "start": 9.0598,
      "duration": 0.2015,
      "velocity": 84,
      "chip": "ym2612"
    },
    {
      "channel": 3,
      "note": 29,
      "start": 9.0647,
      "duration": 0.0127,
      "velocity": 125,
      "chip": "ym2612"
    },
    {
      "channel": 4,
      "note": 86,
      "start": 9.0656,
      "duration": 0.1854,
      "velocity": 92,
      "chip": "ym2612"
    },
    {
      "channel": 5,
      "note": 82,
      "start": 9.0663,
      "duration": 0.1848,
      "velocity": 92,
      "chip": "ym2612"
    },
    {
      "channel": 1,
      "note": 70,
      "start": 9.2609,
      "duration": 0.5482,
      "velocity": 92,
      "chip": "ym2612"
    },
    {
      "channel": 3,
      "note": 29,
      "start": 9.2621,
      "duration": 0.0176,
      "velocity": 125,
      "chip": "ym2612"
    },
    {
      "channel": 4,
      "note": 86,
      "start": 9.2628,
      "duration": 0.3636,
      "velocity": 92,
      "chip": "ym2612"
    },
    {
      "channel": 5,
      "note": 82,
      "start": 9.2638,
      "duration": 0.3629,
      "velocity": 92,
      "chip": "ym2612"
    },
    {
      "channel": 0,
      "note": 79,
      "start": 9.4724,
      "duration": 0.2018,
      "velocity": 84,
      "chip": "ym2612"
    },
    {
      "channel": 2,
      "note": 74,
      "start": 9.4733,
      "duration": 0.2015,
      "velocity": 84,
      "chip": "ym2612"
    },
    {
      "channel": 3,
      "note": 41,
      "start": 9.478,
      "duration": 0.0231,
      "velocity": 123,
      "chip": "ym2612"
    },
    {
      "channel": 0,
      "note": 81,
      "start": 9.877,
      "duration": 0.4137,
      "velocity": 84,
      "chip": "ym2612"
    },
    {
      "channel": 1,
      "note": 65,
      "start": 9.8778,
      "duration": 0.3646,
      "velocity": 92,
      "chip": "ym2612"
    },
    {
      "channel": 2,
      "note": 77,
      "start": 9.8786,
      "duration": 0.4133,
      "velocity": 84,
      "chip": "ym2612"
    },
    {
      "channel": 3,
      "note": 29,
      "start": 9.8836,
      "duration": 0.0317,
      "velocity": 125,
      "chip": "ym2612"
    },
    {
      "channel": 4,
      "note": 84,
      "start": 9.8845,
      "duration": 0.3584,
      "velocity": 92,
      "chip": "ym2612"
    },
    {
      "channel": 5,
      "note": 81,
      "start": 9.8854,
      "duration": 0.3577,
      "velocity": 92,
      "chip": "ym2612"
    },
    {
      "channel": 0,
      "note": 79,
      "start": 10.2911,
      "duration": 0.2018,
      "velocity": 84,
      "chip": "ym2612"
    },
    {
      "channel": 2,
      "note": 74,
      "start": 10.2923,
      "duration": 0.2015,
      "velocity": 84,
      "chip": "ym2612"
    },
    {
      "channel": 3,
      "note": 41,
      "start": 10.2972,
      "duration": 0.0322,
      "velocity": 123,
      "chip": "ym2612"
    },
    {
      "channel": 0,
      "note": 77,
      "start": 10.4932,
      "duration": 1.0301,
      "velocity": 84,
      "chip": "ym2612"
    },
    {
      "channel": 2,
      "note": 72,
      "start": 10.4941,
      "duration": 1.0297,
      "velocity": 84,
      "chip": "ym2612"
    },
    {
      "channel": 1,
      "note": 70,
      "start": 10.7053,
      "duration": 0.5483,
      "velocity": 92,
      "chip": "ym2612"
    },
    {
      "channel": 3,
      "note": 29,
      "start": 10.7102,
      "duration": 0.0236,
      "velocity": 125,
      "chip": "ym2612"
    },
    {
      "channel": 4,
      "note": 86,
      "start": 10.711,
      "duration": 0.3504,
      "velocity": 92,
      "chip": "ym2612"
    },
    {
      "channel": 5,
      "note": 82,
      "start": 10.7117,
      "duration": 0.3498,
      "velocity": 92,
      "chip": "ym2612"
    },
    {
      "channel": 3,
      "note": 41,
      "start": 11.114,
      "duration": 0.0147,
      "velocity": 123,
      "chip": "ym2612"
    },
    {
      "channel": 1,
      "note": 60,
      "start": 11.3217,
      "duration": 0.3558,
      "velocity": 92,
      "chip": "ym2612"
    },
    {
      "channel": 3,
      "note": 29,
      "start": 11.3266,
      "duration": 0.014,
      "velocity": 125,
      "chip": "ym2612"
    },
    {
      "channel": 4,
      "note": 88,
      "start": 11.3273,
      "duration": 0.543,
      "velocity": 92,
      "chip": "ym2612"
    },
    {
      "channel": 5,
      "note": 84,
      "start": 11.3282,
      "duration": 0.5424,
      "velocity": 92,
      "chip": "ym2612"
    },
    {
      "channel": 1,
      "note": 60,
      "start": 11.726,
      "duration": 0.1922,
      "velocity": 92,
      "chip": "ym2612"
    },
    {
      "channel": 1,
      "note": 67,
      "start": 11.9379,
      "duration": 0.1826,
      "velocity": 92,
      "chip": "ym2612"
    },
    {
      "channel": 3,
      "note": 41,
      "start": 11.9428,
      "duration": 0.0141,
      "velocity": 123,
      "chip": "ym2612"
    },
    {
      "channel": 1,
      "note": 60,
      "start": 12.1401,
      "duration": 0.1922,
      "velocity": 92,
      "chip": "ym2612"
    },
    {
      "channel": 3,
      "note": 29,
      "start": 12.145,
      "duration": 0.0142,
      "velocity": 125,
      "chip": "ym2612"
    },
    {
      "channel": 1,
      "note": 70,
      "start": 12.3425,
      "duration": 0.1921,
      "velocity": 92,
      "chip": "ym2612"
    },
    {
      "channel": 3,
      "note": 29,
      "start": 12.3434,
      "duration": 0.018,
      "velocity": 125,
      "chip": "ym2612"
    },
    {
      "channel": 4,
      "note": 86,
      "start": 12.3441,
      "duration": 0.1908,
      "velocity": 92,
      "chip": "ym2612"
    },
    {
      "channel": 5,
      "note": 82,
      "start": 12.345,
      "duration": 0.1902,
      "velocity": 92,
      "chip": "ym2612"
    },
    {
      "channel": 1,
      "note": 65,
      "start": 12.5544,
      "duration": 0.1824,
      "velocity": 92,
      "chip": "ym2612"
    },
    {
      "channel": 3,
      "note": 29,
      "start": 12.5554,
      "duration": 0.0179,
      "velocity": 125,
      "chip": "ym2612"
    },
    {
      "channel": 4,
      "note": 86,
      "start": 12.5562,
      "duration": 0.3542,
      "velocity": 92,
      "chip": "ym2612"
    },
    {
      "channel": 5,
      "note": 82,
      "start": 12.557,
      "duration": 0.3537,
      "velocity": 92,
      "chip": "ym2612"
    },
    {
      "channel": 1,
      "note": 64,
      "start": 12.7565,
      "duration": 0.3559,
      "velocity": 92,
      "chip": "ym2612"
    },
    {
      "channel": 3,
      "note": 41,
      "start": 12.7614,
      "duration": 0.0334,
      "velocity": 123,
      "chip": "ym2612"
    },
    {
      "channel": 0,
      "note": 89,
      "start": 13.1708,
      "duration": 1.6367,
      "velocity": 84,
      "chip": "ym2612"
    },
    {
      "channel": 1,
      "note": 65,
      "start": 13.1727,
      "duration": 0.3538,
      "velocity": 92,
      "chip": "ym2612"
    },
    {
      "channel": 2,
      "note": 84,
      "start": 13.1737,
      "duration": 1.6343,
      "velocity": 84,
      "chip": "ym2612"
    },
    {
      "channel": 3,
      "note": 29,
      "start": 13.1789,
      "duration": 0.0204,
      "velocity": 125,
      "chip": "ym2612"
    },
    {
      "channel": 4,
      "note": 84,
      "start": 13.1809,
      "duration": 0.346,
      "velocity": 92,
      "chip": "ym2612"
    },
    {
      "channel": 5,
      "note": 81,
      "start": 13.1828,
      "duration": 0.3443,
      "velocity": 92,
      "chip": "ym2612"
    },
    {
      "channel": 3,
      "note": 41,
      "start": 13.5796,
      "duration": 0.0339,
      "velocity": 123,
      "chip": "ym2612"
    },
    {
      "channel": 1,
      "note": 70,
      "start": 13.9893,
      "duration": 0.5484,
      "velocity": 92,
      "chip": "ym2612"
    },
    {
      "channel": 3,
      "note": 29,
      "start": 13.9942,
      "duration": 0.0333,
      "velocity": 125,
      "chip": "ym2612"
    },
    {
      "channel": 4,
      "note": 86,
      "start": 13.995,
      "duration": 0.3504,
      "velocity": 92,
      "chip": "ym2612"
    },
    {
      "channel": 5,
      "note": 82,
      "start": 13.9958,
      "duration": 0.3498,
      "velocity": 92,
      "chip": "ym2612"
    },
    {
      "channel": 3,
      "note": 41,
      "start": 14.4076,
      "duration": 0.0148,
      "velocity": 123,
      "chip": "ym2612"
    },
    {
      "channel": 1,
      "note": 72,
      "start": 14.6056,
      "duration": 0.5485,
      "velocity": 92,
      "chip": "ym2612"
    },
    {
      "channel": 3,
      "note": 29,
      "start": 14.6105,
      "duration": 0.0141,
      "velocity": 125,
      "chip": "ym2612"
    },
    {
      "channel": 4,
      "note": 88,
      "start": 14.6112,
      "duration": 0.5432,
      "velocity": 92,
      "chip": "ym2612"
    },
    {
      "channel": 5,
      "note": 84,
      "start": 14.6121,
      "duration": 0.5426,
      "velocity": 92,
      "chip": "ym2612"
    },
    {
      "channel": 0,
      "note": 89,
      "start": 15.2218,
      "duration": 0.2019,
      "velocity": 84,
      "chip": "ym2612"
    },
    {
      "channel": 2,
      "note": 84,
      "start": 15.223,
      "duration": 0.2016,
      "velocity": 84,
      "chip": "ym2612"
    },
    {
      "channel": 3,
      "note": 41,
      "start": 15.2278,
      "duration": 0.0324,
      "velocity": 123,
      "chip": "ym2612"
    },
    {
      "channel": 0,
      "note": 86,
      "start": 15.424,
      "duration": 0.2115,
      "velocity": 84,
      "chip": "ym2612"
    },
    {
      "channel": 2,
      "note": 81,
      "start": 15.4249,
      "duration": 0.2122,
      "velocity": 84,
      "chip": "ym2612"
    },
    {
      "channel": 0,
      "note": 89,
      "start": 15.6359,
      "duration": 0.2019,
      "velocity": 84,
      "chip": "ym2612"
    },
    {
      "channel": 1,
      "note": 70,
      "start": 15.6367,
      "duration": 0.1819,
      "velocity": 92,
      "chip": "ym2612"
    },
    {
      "channel": 2,
      "note": 84,
      "start": 15.6375,
      "duration": 0.2015,
      "velocity": 84,
      "chip": "ym2612"
    },
    {
      "channel": 3,
      "note": 29,
      "start": 15.6423,
      "duration": 0.0128,
      "velocity": 125,
      "chip": "ym2612"
    },
    {
      "channel": 4,
      "note": 86,
      "start": 15.6431,
      "duration": 0.1759,
      "velocity": 92,
      "chip": "ym2612"
    },
    {
      "channel": 5,
      "note": 82,
      "start": 15.6439,
      "duration": 0.1753,
      "velocity": 92,
      "chip": "ym2612"
    },
    {
      "channel": 1,
      "note": 70,
      "start": 15.8386,
      "duration": 0.5482,
      "velocity": 92,
      "chip": "ym2612"
    },
    {
      "channel": 3,
      "note": 29,
      "start": 15.8398,
      "duration": 0.0176,
      "velocity": 125,
      "chip": "ym2612"
    },
    {
      "channel": 4,
      "note": 86,
      "start": 15.8405,
      "duration": 0.3539,
      "velocity": 92,
      "chip": "ym2612"
    },
    {
      "channel": 5,
      "note": 82,
      "start": 15.8413,
      "duration": 0.3533,
      "velocity": 92,
      "chip": "ym2612"
    },
    {
      "channel": 0,
      "note": 91,
      "start": 16.0405,
      "duration": 0.2115,
      "velocity": 84,
      "chip": "ym2612"
    },
    {
      "channel": 2,
      "note": 86,
      "start": 16.0413,
      "duration": 0.2111,
      "velocity": 84,
      "chip": "ym2612"
    },
    {
      "channel": 3,
      "note": 41,
      "start": 16.0461,
      "duration": 0.0327,
      "velocity": 123,
      "chip": "ym2612"
    },
    {
      "channel": 0,
      "note": 89,
      "start": 16.4545,
      "duration": 1.6464,
      "velocity": 84,
      "chip": "ym2612"
    },
    {
      "channel": 1,
      "note": 65,
      "start": 16.4555,
      "duration": 0.3551,
      "velocity": 92,
      "chip": "ym2612"
    },
    {
      "channel": 2,
      "note": 84,
      "start": 16.4562,
      "duration": 1.6452,
      "velocity": 84,
      "chip": "ym2612"
    },
    {
      "channel": 3,
      "note": 29,
      "start": 16.461,
      "duration": 0.0319,
      "velocity": 125,
      "chip": "ym2612"
    },
    {
      "channel": 4,
      "note": 84,
      "start": 16.462,
      "duration": 0.349,
      "velocity": 92,
      "chip": "ym2612"
    },
    {
      "channel": 5,
      "note": 81,
      "start": 16.4628,
      "duration": 0.3483,
      "velocity": 92,
      "chip": "ym2612"
    },
    {
      "channel": 3,
      "note": 41,
      "start": 16.8733,
      "duration": 0.0241,
      "velocity": 123,
      "chip": "ym2612"
    },
    {
      "channel": 1,
      "note": 70,
      "start": 17.2733,
      "duration": 0.5484,
      "velocity": 92,
      "chip": "ym2612"
    },
    {
      "channel": 3,
      "note": 29,
      "start": 17.2782,
      "duration": 0.0333,
      "velocity": 125,
      "chip": "ym2612"
    },
    {
      "channel": 4,
      "note": 86,
      "start": 17.279,
      "duration": 0.36,
      "velocity": 92,
      "chip": "ym2612"
    },
    {
      "channel": 5,
      "note": 82,
      "start": 17.28,
      "duration": 0.3593,
      "velocity": 92,
      "chip": "ym2612"
    },
    {
      "channel": 3,
      "note": 41,
      "start": 17.6916,
      "duration": 0.0148,
      "velocity": 123,
      "chip": "ym2612"
    },
    {
      "channel": 1,
      "note": 60,
      "start": 17.8897,
      "duration": 0.3654,
      "velocity": 92,
      "chip": "ym2612"
    },
    {
      "channel": 3,
      "note": 29,
      "start": 17.8946,
      "duration": 0.0141,
      "velocity": 125,
      "chip": "ym2612"
    },
    {
      "channel": 4,
      "note": 88,
      "start": 17.8954,
      "duration": 0.5429,
      "velocity": 92,
      "chip": "ym2612"
    },
    {
      "channel": 5,
      "note": 84,
      "start": 17.8962,
      "duration": 0.5424,
      "velocity": 92,
      "chip": "ym2612"
    },
    {
      "channel": 1,
      "note": 60,
      "start": 18.3037,
      "duration": 0.1922,
      "velocity": 92,
      "chip": "ym2612"
    },
    {
      "channel": 1,
      "note": 67,
      "start": 18.5059,
      "duration": 0.1922,
      "velocity": 92,
      "chip": "ym2612"
    },
    {
      "channel": 3,
      "note": 41,
      "start": 18.5108,
      "duration": 0.0142,
      "velocity": 123,
      "chip": "ym2612"
    },
    {
      "channel": 1,
      "note": 60,
      "start": 18.7178,
      "duration": 0.1826,
      "velocity": 92,
      "chip": "ym2612"
    },
    {
      "channel": 3,
      "note": 29,
      "start": 18.7227,
      "duration": 0.0141,
      "velocity": 125,
      "chip": "ym2612"
    },
    {
      "channel": 1,
      "note": 70,
      "start": 18.9202,
      "duration": 0.192,
      "velocity": 92,
      "chip": "ym2612"
    },
    {
      "channel": 3,
      "note": 29,
      "start": 18.921,
      "duration": 0.018,
      "velocity": 125,
      "chip": "ym2612"
    },
    {
      "channel": 4,
      "note": 86,
      "start": 18.9218,
      "duration": 0.1908,
      "velocity": 92,
      "chip": "ym2612"
    },
    {
      "channel": 5,
      "note": 82,
      "start": 18.9226,
      "duration": 0.1902,
      "velocity": 92,
      "chip": "ym2612"
    },
    {
      "channel": 1,
      "note": 65,
      "start": 19.1224,
      "duration": 0.1921,
      "velocity": 92,
      "chip": "ym2612"
    },
    {
      "channel": 3,
      "note": 29,
      "start": 19.1234,
      "duration": 0.0179,
      "velocity": 125,
      "chip": "ym2612"
    },
    {
      "channel": 4,
      "note": 86,
      "start": 19.1242,
      "duration": 0.3639,
      "velocity": 92,
      "chip": "ym2612"
    },
    {
      "channel": 5,
      "note": 82,
      "start": 19.125,
      "duration": 0.3633,
      "velocity": 92,
      "chip": "ym2612"
    },
    {
      "channel": 1,
      "note": 64,
      "start": 19.3341,
      "duration": 0.3559,
      "velocity": 92,
      "chip": "ym2612"
    },
    {
      "channel": 3,
      "note": 41,
      "start": 19.339,
      "duration": 0.0238,
      "velocity": 123,
      "chip": "ym2612"
    },
    {
      "channel": 0,
      "note": 89,
      "start": 19.7385,
      "duration": 1.6464,
      "velocity": 84,
      "chip": "ym2612"
    },
    {
      "channel": 1,
      "note": 65,
      "start": 19.7395,
      "duration": 0.3647,
      "velocity": 92,
      "chip": "ym2612"
    },
    {
      "channel": 2,
      "note": 84,
      "start": 19.7402,
      "duration": 1.6452,
      "velocity": 84,
      "chip": "ym2612"
    },
    {
      "channel": 3,
      "note": 29,
      "start": 19.7455,
      "duration": 0.0315,
      "velocity": 125,
      "chip": "ym2612"
    },
    {
      "channel": 4,
      "note": 84,
      "start": 19.7466,
      "duration": 0.358,
      "velocity": 92,
      "chip": "ym2612"
    },
    {
      "channel": 5,
      "note": 81,
      "start": 19.7475,
      "duration": 0.3573,
      "velocity": 92,
      "chip": "ym2612"
    },
    {
      "channel": 3,
      "note": 41,
      "start": 20.1572,
      "duration": 0.0338,
      "velocity": 123,
      "chip": "ym2612"
    },
    {
      "channel": 1,
      "note": 70,
      "start": 20.567,
      "duration": 0.5484,
      "velocity": 92,
      "chip": "ym2612"
    },
    {
      "channel": 3,
      "note": 29,
      "start": 20.5719,
      "duration": 0.0237,
      "velocity": 125,
      "chip": "ym2612"
    },
    {
      "channel": 4,
      "note": 86,
      "start": 20.5726,
      "duration": 0.3504,
      "velocity": 92,
      "chip": "ym2612"
    },
    {
      "channel": 5,
      "note": 82,
      "start": 20.5735,
      "duration": 0.3498,
      "velocity": 92,
      "chip": "ym2612"
    },
    {
      "channel": 3,
      "note": 41,
      "start": 20.9756,
      "duration": 0.0148,
      "velocity": 123,
      "chip": "ym2612"
    },
    {
      "channel": 1,
      "note": 72,
      "start": 21.1833,
      "duration": 0.5485,
      "velocity": 92,
      "chip": "ym2612"
    },
    {
      "channel": 3,
      "note": 29,
      "start": 21.1882,
      "duration": 0.0141,
      "velocity": 125,
      "chip": "ym2612"
    },
    {
      "channel": 4,
      "note": 88,
      "start": 21.1889,
      "duration": 0.5432,
      "velocity": 92,
      "chip": "ym2612"
    },
    {
      "channel": 5,
      "note": 84,
      "start": 21.1898,
      "duration": 0.5426,
      "velocity": 92,
      "chip": "ym2612"
    },
    {
      "channel": 0,
      "note": 89,
      "start": 21.7995,
      "duration": 0.2018,
      "velocity": 84,
      "chip": "ym2612"
    },
    {
      "channel": 2,
      "note": 84,
      "start": 21.8007,
      "duration": 0.2015,
      "velocity": 84,
      "chip": "ym2612"
    },
    {
      "channel": 3,
      "note": 41,
      "start": 21.8055,
      "duration": 0.0228,
      "velocity": 123,
      "chip": "ym2612"
    },
    {
      "channel": 0,
      "note": 86,
      "start": 22.0017,
      "duration": 0.2019,
      "velocity": 84,
      "chip": "ym2612"
    },
    {
      "channel": 2,
      "note": 82,
      "start": 22.0026,
      "duration": 0.2026,
      "velocity": 84,
      "chip": "ym2612"
    },
    {
      "channel": 0,
      "note": 89,
      "start": 22.2039,
      "duration": 0.2115,
      "velocity": 84,
      "chip": "ym2612"
    },
    {
      "channel": 1,
      "note": 70,
      "start": 22.2048,
      "duration": 0.1915,
      "velocity": 92,
      "chip": "ym2612"
    },
    {
      "channel": 2,
      "note": 84,
      "start": 22.2055,
      "duration": 0.2111,
      "velocity": 84,
      "chip": "ym2612"
    },
    {
      "channel": 3,
      "note": 29,
      "start": 22.2103,
      "duration": 0.0128,
      "velocity": 125,
      "chip": "ym2612"
    },
    {
      "channel": 4,
      "note": 86,
      "start": 22.2111,
      "duration": 0.1857,
      "velocity": 92,
      "chip": "ym2612"
    },
    {
      "channel": 5,
      "note": 82,
      "start": 22.2119,
      "duration": 0.1851,
      "velocity": 92,
      "chip": "ym2612"
    },
    {
      "channel": 1,
      "note": 70,
      "start": 22.4162,
      "duration": 0.5482,
      "velocity": 92,
      "chip": "ym2612"
    },
    {
      "channel": 3,
      "note": 29,
      "start": 22.4174,
      "duration": 0.0176,
      "velocity": 125,
      "chip": "ym2612"
    },
    {
      "channel": 4,
      "note": 86,
      "start": 22.4182,
      "duration": 0.3539,
      "velocity": 92,
      "chip": "ym2612"
    },
    {
      "channel": 5,
      "note": 82,
      "start": 22.419,
      "duration": 0.3533,
      "velocity": 92,
      "chip": "ym2612"
    },
    {
      "channel": 0,
      "note": 91,
      "start": 22.618,
      "duration": 0.2019,
      "velocity": 84,
      "chip": "ym2612"
    },
    {
      "channel": 2,
      "note": 86,
      "start": 22.6189,
      "duration": 0.2015,
      "velocity": 84,
      "chip": "ym2612"
    },
    {
      "channel": 3,
      "note": 41,
      "start": 22.6237,
      "duration": 0.0328,
      "velocity": 123,
      "chip": "ym2612"
    },
    {
      "channel": 0,
      "note": 93,
      "start": 23.0323,
      "duration": 0.4041,
      "velocity": 84,
      "chip": "ym2612"
    },
    {
      "channel": 1,
      "note": 65,
      "start": 23.0332,
      "duration": 0.355,
      "velocity": 92,
      "chip": "ym2612"
    },
    {
      "channel": 2,
      "note": 89,
      "start": 23.0339,
      "duration": 0.4036,
      "velocity": 84,
      "chip": "ym2612"
    },
    {
      "channel": 3,
      "note": 29,
      "start": 23.0387,
      "duration": 0.0222,
      "velocity": 125,
      "chip": "ym2612"
    },
    {
      "channel": 4,
      "note": 84,
      "start": 23.0397,
      "duration": 0.3489,
      "velocity": 92,
      "chip": "ym2612"
    },
    {
      "channel": 5,
      "note": 81,
      "start": 23.0406,
      "duration": 0.3482,
      "velocity": 92,
      "chip": "ym2612"
    },
    {
      "channel": 0,
      "note": 91,
      "start": 23.4368,
      "duration": 0.2115,
      "velocity": 84,
      "chip": "ym2612"
    },
    {
      "channel": 2,
      "note": 86,
      "start": 23.438,
      "duration": 0.2111,
      "velocity": 84,
      "chip": "ym2612"
    },
    {
      "channel": 3,
      "note": 41,
      "start": 23.4427,
      "duration": 0.0323,
      "velocity": 123,
      "chip": "ym2612"
    },
    {
      "channel": 0,
      "note": 89,
      "start": 23.6485,
      "duration": 1.0205,
      "velocity": 84,
      "chip": "ym2612"
    },
    {
      "channel": 2,
      "note": 84,
      "start": 23.6495,
      "duration": 1.02,
      "velocity": 84,
      "chip": "ym2612"
    },
    {
      "channel": 1,
      "note": 70,
      "start": 23.851,
      "duration": 0.5484,
      "velocity": 92,
      "chip": "ym2612"
    },
    {
      "channel": 3,
      "note": 29,
      "start": 23.8559,
      "duration": 0.0333,
      "velocity": 125,
      "chip": "ym2612"
    },
    {
      "channel": 4,
      "note": 86,
      "start": 23.8567,
      "duration": 0.3504,
      "velocity": 92,
      "chip": "ym2612"
    },
    {
      "channel": 5,
      "note": 82,
      "start": 23.8575,
      "duration": 0.3498,
      "velocity": 92,
      "chip": "ym2612"
    },
    {
      "channel": 3,
      "note": 41,
      "start": 24.2693,
      "duration": 0.0148,
      "velocity": 123,
      "chip": "ym2612"
    },
    {
      "channel": 1,
      "note": 60,
      "start": 24.4673,
      "duration": 0.3558,
      "velocity": 92,
      "chip": "ym2612"
    },
    {
      "channel": 3,
      "note": 29,
      "start": 24.4722,
      "duration": 0.014,
      "velocity": 125,
      "chip": "ym2612"
    },
    {
      "channel": 4,
      "note": 88,
      "start": 24.4731,
      "duration": 0.5429,
      "velocity": 92,
      "chip": "ym2612"
    },
    {
      "channel": 5,
      "note": 84,
      "start": 24.4738,
      "duration": 0.5424,
      "velocity": 92,
      "chip": "ym2612"
    },
    {
      "channel": 1,
      "note": 60,
      "start": 24.8813,
      "duration": 0.1826,
      "velocity": 92,
      "chip": "ym2612"
    },
    {
      "channel": 1,
      "note": 67,
      "start": 25.0836,
      "duration": 0.1922,
      "velocity": 92,
      "chip": "ym2612"
    },
    {
      "channel": 3,
      "note": 41,
      "start": 25.0885,
      "duration": 0.0141,
      "velocity": 123,
      "chip": "ym2612"
    },
    {
      "channel": 1,
      "note": 60,
      "start": 25.2858,
      "duration": 0.1922,
      "velocity": 92,
      "chip": "ym2612"
    },
    {
      "channel": 3,
      "note": 29,
      "start": 25.2907,
      "duration": 0.0142,
      "velocity": 125,
      "chip": "ym2612"
    },
    {
      "channel": 1,
      "note": 70,
      "start": 25.4978,
      "duration": 0.1826,
      "velocity": 92,
      "chip": "ym2612"
    },
    {
      "channel": 3,
      "note": 29,
      "start": 25.4987,
      "duration": 0.018,
      "velocity": 125,
      "chip": "ym2612"
    },
    {
      "channel": 4,
      "note": 86,
      "start": 25.4995,
      "duration": 0.1813,
      "velocity": 92,
      "chip": "ym2612"
    },
    {
      "channel": 5,
      "note": 82,
      "start": 25.5003,
      "duration": 0.1807,
      "velocity": 92,
      "chip": "ym2612"
    },
    {
      "channel": 1,
      "note": 65,
      "start": 25.7,
      "duration": 0.1921,
      "velocity": 92,
      "chip": "ym2612"
    },
    {
      "channel": 3,
      "note": 46,
      "start": 25.7054,
      "duration": 0.0136,
      "velocity": 123,
      "chip": "ym2612"
    },
    {
      "channel": 4,
      "note": 86,
      "start": 25.7062,
      "duration": 0.3499,
      "velocity": 92,
      "chip": "ym2612"
    },
    {
      "channel": 5,
      "note": 82,
      "start": 25.7071,
      "duration": 0.3493,
      "velocity": 92,
      "chip": "ym2612"
    },
    {
      "channel": 3,
      "note": 46,
      "start": 25.7676,
      "duration": 0.0188,
      "velocity": 123,
      "chip": "ym2612"
    },
    {
      "channel": 3,
      "note": 46,
      "start": 25.835,
      "duration": 0.0188,
      "velocity": 123,
      "chip": "ym2612"
    },
    {
      "channel": 1,
      "note": 64,
      "start": 25.9022,
      "duration": 0.3655,
      "velocity": 92,
      "chip": "ym2612"
    },
    {
      "channel": 3,
      "note": 43,
      "start": 25.9032,
      "duration": 0.018,
      "velocity": 123,
      "chip": "ym2612"
    },
    {
      "channel": 3,
      "note": 43,
      "start": 26.0084,
      "duration": 0.0188,
      "velocity": 123,
      "chip": "ym2612"
    },
    {
      "channel": 3,
      "note": 39,
      "start": 26.1144,
      "duration": 0.0187,
      "velocity": 123,
      "chip": "ym2612"
    },
    {
      "channel": 1,
      "note": 68,
      "start": 26.321,
      "duration": 0.2837,
      "velocity": 92,
      "chip": "ym2612"
    },
    {
      "channel": 3,
      "note": 29,
      "start": 26.3273,
      "duration": 0.0369,
      "velocity": 125,
      "chip": "ym2612"
    },
    {
      "channel": 4,
      "note": 75,
      "start": 26.3327,
      "duration": 2.8781,
      "velocity": 103,
      "chip": "ym2612"
    },
    {
      "channel": 5,
      "note": 72,
      "start": 26.3378,
      "duration": 1.4231,
      "velocity": 103,
      "chip": "ym2612"
    },
    {
      "channel": 1,
      "note": 68,
      "start": 26.6341,
      "duration": 0.1062,
      "velocity": 92,
      "chip": "ym2612"
    },
    {
      "channel": 3,
      "note": 29,
      "start": 26.635,
      "duration": 0.0182,
      "velocity": 125,
      "chip": "ym2612"
    },
    {
      "channel": 0,
      "note": 99,
      "start": 26.7399,
      "duration": 0.4041,
      "velocity": 92,
      "chip": "ym2612"
    },
    {
      "channel": 3,
      "note": 41,
      "start": 26.7452,
      "duration": 0.0139,
      "velocity": 123,
      "chip": "ym2612"
    },
    {
      "channel": 1,
      "note": 68,
      "start": 26.9423,
      "duration": 0.3559,
      "velocity": 92,
      "chip": "ym2612"
    },
    {
      "channel": 3,
      "note": 29,
      "start": 26.9474,
      "duration": 0.0333,
      "velocity": 125,
      "chip": "ym2612"
    },
    {
      "channel": 0,
      "note": 99,
      "start": 27.1444,
      "duration": 0.4138,
      "velocity": 92,
      "chip": "ym2612"
    },
    {
      "channel": 1,
      "note": 68,
      "start": 27.3564,
      "duration": 0.1825,
      "velocity": 92,
      "chip": "ym2612"
    },
    {
      "channel": 3,
      "note": 29,
      "start": 27.3573,
      "duration": 0.0181,
      "velocity": 125,
      "chip": "ym2612"
    },
    {
      "channel": 0,
      "note": 99,
      "start": 27.5585,
      "duration": 0.4138,
      "velocity": 92,
      "chip": "ym2612"
    },
    {
      "channel": 1,
      "note": 68,
      "start": 27.5593,
      "duration": 0.3552,
      "velocity": 92,
      "chip": "ym2612"
    },
    {
      "channel": 3,
      "note": 41,
      "start": 27.5644,
      "duration": 0.0327,
      "velocity": 123,
      "chip": "ym2612"
    },
    {
      "channel": 0,
      "note": 97,
      "start": 27.9726,
      "duration": 0.4041,
      "velocity": 92,
      "chip": "ym2612"
    },
    {
      "channel": 1,
      "note": 68,
      "start": 27.9736,
      "duration": 0.2684,
      "velocity": 92,
      "chip": "ym2612"
    },
    {
      "channel": 3,
      "note": 29,
      "start": 27.9785,
      "duration": 0.023,
      "velocity": 125,
      "chip": "ym2612"
    },
    {
      "channel": 5,
      "note": 70,
      "start": 27.9794,
      "duration": 1.4283,
      "velocity": 103,
      "chip": "ym2612"
    },
    {
      "channel": 1,
      "note": 68,
      "start": 28.2809,
      "duration": 0.0966,
      "velocity": 92,
      "chip": "ym2612"
    },
    {
      "channel": 3,
      "note": 29,
      "start": 28.2818,
      "duration": 0.0182,
      "velocity": 125,
      "chip": "ym2612"
    },
    {
      "channel": 0,
      "note": 96,
      "start": 28.3771,
      "duration": 0.2115,
      "velocity": 92,
      "chip": "ym2612"
    },
    {
      "channel": 3,
      "note": 41,
      "start": 28.3826,
      "duration": 0.0137,
      "velocity": 123,
      "chip": "ym2612"
    },
    {
      "channel": 0,
      "note": 94,
      "start": 28.589,
      "duration": 1.0204,
      "velocity": 92,
      "chip": "ym2612"
    },
    {
      "channel": 1,
      "note": 68,
      "start": 28.5898,
      "duration": 0.3552,
      "velocity": 92,
      "chip": "ym2612"
    },
    {
      "channel": 3,
      "note": 29,
      "start": 28.5947,
      "duration": 0.0231,
      "velocity": 125,
      "chip": "ym2612"
    },
    {
      "channel": 1,
      "note": 68,
      "start": 28.9936,
      "duration": 0.1921,
      "velocity": 92,
      "chip": "ym2612"
    },
    {
      "channel": 3,
      "note": 29,
      "start": 28.9945,
      "duration": 0.0181,
      "velocity": 125,
      "chip": "ym2612"
    },
    {
      "channel": 1,
      "note": 68,
      "start": 29.2055,
      "duration": 0.3559,
      "velocity": 92,
      "chip": "ym2612"
    },
    {
      "channel": 3,
      "note": 41,
      "start": 29.2104,
      "duration": 0.0141,
      "velocity": 123,
      "chip": "ym2612"
    },
    {
      "channel": 3,
      "note": 29,
      "start": 29.306,
      "duration": 0.034,
      "velocity": 125,
      "chip": "ym2612"
    },
    {
      "channel": 1,
      "note": 68,
      "start": 29.6104,
      "duration": 0.2784,
      "velocity": 92,
      "chip": "ym2612"
    },
    {
      "channel": 3,
      "note": 29,
      "start": 29.6158,
      "duration": 0.0324,
      "velocity": 125,
      "chip": "ym2612"
    },
    {
      "channel": 4,
      "note": 73,
      "start": 29.6166,
      "duration": 2.8781,
      "velocity": 103,
      "chip": "ym2612"
    },
    {
      "channel": 5,
      "note": 70,
      "start": 29.6173,
      "duration": 1.4372,
      "velocity": 103,
      "chip": "ym2612"
    },
    {
      "channel": 1,
      "note": 68,
      "start": 29.9181,
      "duration": 0.1062,
      "velocity": 92,
      "chip": "ym2612"
    },
    {
      "channel": 3,
      "note": 29,
      "start": 29.919,
      "duration": 0.0181,
      "velocity": 125,
      "chip": "ym2612"
    },
    {
      "channel": 0,
      "note": 97,
      "start": 30.024,
      "duration": 0.4137,
      "velocity": 92,
      "chip": "ym2612"
    },
    {
      "channel": 3,
      "note": 41,
      "start": 30.0293,
      "duration": 0.0139,
      "velocity": 123,
      "chip": "ym2612"
    },
    {
      "channel": 1,
      "note": 68,
      "start": 30.2263,
      "duration": 0.3655,
      "velocity": 92,
      "chip": "ym2612"
    },
    {
      "channel": 3,
      "note": 29,
      "start": 30.2313,
      "duration": 0.0333,
      "velocity": 125,
      "chip": "ym2612"
    },
    {
      "channel": 0,
      "note": 97,
      "start": 30.4381,
      "duration": 0.4041,
      "velocity": 92,
      "chip": "ym2612"
    },
    {
      "channel": 1,
      "note": 68,
      "start": 30.6405,
      "duration": 0.1922,
      "velocity": 92,
      "chip": "ym2612"
    },
    {
      "channel": 3,
      "note": 29,
      "start": 30.6413,
      "duration": 0.0181,
      "velocity": 125,
      "chip": "ym2612"
    },
    {
      "channel": 0,
      "note": 97,
      "start": 30.8425,
      "duration": 0.4137,
      "velocity": 92,
      "chip": "ym2612"
    },
    {
      "channel": 1,
      "note": 68,
      "start": 30.8433,
      "duration": 0.3649,
      "velocity": 92,
      "chip": "ym2612"
    },
    {
      "channel": 3,
      "note": 41,
      "start": 30.8484,
      "duration": 0.0326,
      "velocity": 123,
      "chip": "ym2612"
    },
    {
      "channel": 0,
      "note": 96,
      "start": 31.2567,
      "duration": 0.4137,
      "velocity": 92,
      "chip": "ym2612"
    },
    {
      "channel": 1,
      "note": 68,
      "start": 31.2577,
      "duration": 0.2779,
      "velocity": 92,
      "chip": "ym2612"
    },
    {
      "channel": 3,
      "note": 29,
      "start": 31.2626,
      "duration": 0.0325,
      "velocity": 125,
      "chip": "ym2612"
    },
    {
      "channel": 5,
      "note": 68,
      "start": 31.2636,
      "duration": 1.428,
      "velocity": 103,
      "chip": "ym2612"
    },
    {
      "channel": 1,
      "note": 68,
      "start": 31.5649,
      "duration": 0.1062,
      "velocity": 92,
      "chip": "ym2612"
    },
    {
      "channel": 3,
      "note": 29,
      "start": 31.5659,
      "duration": 0.018,
      "velocity": 125,
      "chip": "ym2612"
    },
    {
      "channel": 0,
      "note": 94,
      "start": 31.6708,
      "duration": 0.2018,
      "velocity": 92,
      "chip": "ym2612"
    },
    {
      "channel": 3,
      "note": 41,
      "start": 31.6761,
      "duration": 0.0138,
      "velocity": 123,
      "chip": "ym2612"
    },
    {
      "channel": 0,
      "note": 92,
      "start": 31.873,
      "duration": 1.0301,
      "velocity": 92,
      "chip": "ym2612"
    },
    {
      "channel": 1,
      "note": 61,
      "start": 31.8739,
      "duration": 0.3551,
      "velocity": 92,
      "chip": "ym2612"
    },
    {
      "channel": 3,
      "note": 29,
      "start": 31.8788,
      "duration": 0.0326,
      "velocity": 125,
      "chip": "ym2612"
    },
    {
      "channel": 1,
      "note": 61,
      "start": 32.2873,
      "duration": 0.1825,
      "velocity": 92,
      "chip": "ym2612"
    },
    {
      "channel": 3,
      "note": 29,
      "start": 32.2882,
      "duration": 0.0181,
      "velocity": 125,
      "chip": "ym2612"
    },
    {
      "channel": 1,
      "note": 63,
      "start": 32.4895,
      "duration": 0.1056,
      "velocity": 92,
      "chip": "ym2612"
    },
    {
      "channel": 3,
      "note": 41,
      "start": 32.4944,
      "duration": 0.0141,
      "velocity": 123,
      "chip": "ym2612"
    },
    {
      "channel": 1,
      "note": 65,
      "start": 32.5954,
      "duration": 0.2692,
      "velocity": 92,
      "chip": "ym2612"
    },
    {
      "channel": 3,
      "note": 29,
      "start": 32.6005,
      "duration": 0.0236,
      "velocity": 125,
      "chip": "ym2612"
    },
    {
      "channel": 1,
      "note": 68,
      "start": 32.9044,
      "duration": 0.2685,
      "velocity": 92,
      "chip": "ym2612"
    },
    {
      "channel": 3,
      "note": 29,
      "start": 32.9097,
      "duration": 0.0226,
      "velocity": 125,
      "chip": "ym2612"
    },
    {
      "channel": 4,
      "note": 75,
      "start": 32.9105,
      "duration": 2.869,
      "velocity": 103,
      "chip": "ym2612"
    },
    {
      "channel": 5,
      "note": 72,
      "start": 32.9112,
      "duration": 1.4272,
      "velocity": 103,
      "chip": "ym2612"
    },
    {
      "channel": 1,
      "note": 68,
      "start": 33.2117,
      "duration": 0.0966,
      "velocity": 92,
      "chip": "ym2612"
    },
    {
      "channel": 3,
      "note": 29,
      "start": 33.2127,
      "duration": 0.0182,
      "velocity": 125,
      "chip": "ym2612"
    },
    {
      "channel": 0,
      "note": 99,
      "start": 33.3079,
      "duration": 0.4138,
      "velocity": 92,
      "chip": "ym2612"
    },
    {
      "channel": 3,
      "note": 41,
      "start": 33.3134,
      "duration": 0.0137,
      "velocity": 123,
      "chip": "ym2612"
    },
    {
      "channel": 1,
      "note": 68,
      "start": 33.52,
      "duration": 0.3559,
      "velocity": 92,
      "chip": "ym2612"
    },
    {
      "channel": 3,
      "note": 29,
      "start": 33.5249,
      "duration": 0.0238,
      "velocity": 125,
      "chip": "ym2612"
    },
    {
      "channel": 0,
      "note": 99,
      "start": 33.7221,
      "duration": 0.4138,
      "velocity": 92,
      "chip": "ym2612"
    },
    {
      "channel": 1,
      "note": 68,
      "start": 33.9245,
      "duration": 0.1921,
      "velocity": 92,
      "chip": "ym2612"
    },
    {
      "channel": 3,
      "note": 29,
      "start": 33.9254,
      "duration": 0.018,
      "velocity": 125,
      "chip": "ym2612"
    },
    {
      "channel": 0,
      "note": 99,
      "start": 34.1362,
      "duration": 0.4041,
      "velocity": 92,
      "chip": "ym2612"
    },
    {
      "channel": 1,
      "note": 68,
      "start": 34.137,
      "duration": 0.3552,
      "velocity": 92,
      "chip": "ym2612"
    },
    {
      "channel": 3,
      "note": 41,
      "start": 34.1419,
      "duration": 0.0231,
      "velocity": 123,
      "chip": "ym2612"
    },
    {
      "channel": 0,
      "note": 97,
      "start": 34.5407,
      "duration": 0.4137,
      "velocity": 92,
      "chip": "ym2612"
    },
    {
      "channel": 1,
      "note": 68,
      "start": 34.5416,
      "duration": 0.278,
      "velocity": 92,
      "chip": "ym2612"
    },
    {
      "channel": 3,
      "note": 29,
      "start": 34.5467,
      "duration": 0.0324,
      "velocity": 125,
      "chip": "ym2612"
    },
    {
      "channel": 5,
      "note": 70,
      "start": 34.5475,
      "duration": 1.4378,
      "velocity": 103,
      "chip": "ym2612"
    },
    {
      "channel": 1,
      "note": 68,
      "start": 34.849,
      "duration": 0.1062,
      "velocity": 92,
      "chip": "ym2612"
    },
    {
      "channel": 3,
      "note": 29,
      "start": 34.8499,
      "duration": 0.0181,
      "velocity": 125,
      "chip": "ym2612"
    },
    {
      "channel": 0,
      "note": 96,
      "start": 34.9548,
      "duration": 0.2018,
      "velocity": 92,
      "chip": "ym2612"
    },
    {
      "channel": 3,
      "note": 41,
      "start": 34.9601,
      "duration": 0.0138,
      "velocity": 123,
      "chip": "ym2612"
    },
    {
      "channel": 0,
      "note": 94,
      "start": 35.1571,
      "duration": 0.616,
      "velocity": 92,
      "chip": "ym2612"
    },
    {
      "channel": 1,
      "note": 68,
      "start": 35.1578,
      "duration": 0.3649,
      "velocity": 92,
      "chip": "ym2612"
    },
    {
      "channel": 3,
      "note": 29,
      "start": 35.1628,
      "duration": 0.0326,
      "velocity": 125,
      "chip": "ym2612"
    },
    {
      "channel": 1,
      "note": 68,
      "start": 35.5712,
      "duration": 0.1924,
      "velocity": 92,
      "chip": "ym2612"
    },
    {
      "channel": 3,
      "note": 29,
      "start": 35.5722,
      "duration": 0.0181,
      "velocity": 125,
      "chip": "ym2612"
    },
    {
      "channel": 0,
      "note": 96,
      "start": 35.7734,
      "duration": 0.4137,
      "velocity": 92,
      "chip": "ym2612"
    },
    {
      "channel": 1,
      "note": 68,
      "start": 35.7741,
      "duration": 0.3649,
      "velocity": 92,
      "chip": "ym2612"
    },
    {
      "channel": 3,
      "note": 41,
      "start": 35.779,
      "duration": 0.0135,
      "velocity": 123,
      "chip": "ym2612"
    },
    {
      "channel": 3,
      "note": 29,
      "start": 35.8838,
      "duration": 0.0339,
      "velocity": 125,
      "chip": "ym2612"
    },
    {
      "channel": 0,
      "note": 97,
      "start": 36.1875,
      "duration": 0.616,
      "velocity": 92,
      "chip": "ym2612"
    },
    {
      "channel": 1,
      "note": 68,
      "start": 36.1885,
      "duration": 0.278,
      "velocity": 92,
      "chip": "ym2612"
    },
    {
      "channel": 3,
      "note": 29,
      "start": 36.1938,
      "duration": 0.0321,
      "velocity": 125,
      "chip": "ym2612"
    },
    {
      "channel": 4,
      "note": 73,
      "start": 36.1946,
      "duration": 2.8779,
      "velocity": 103,
      "chip": "ym2612"
    },
    {
      "channel": 5,
      "note": 70,
      "start": 36.1954,
      "duration": 1.4271,
      "velocity": 103,
      "chip": "ym2612"
    },
    {
      "channel": 1,
      "note": 68,
      "start": 36.4958,
      "duration": 0.1055,
      "velocity": 92,
      "chip": "ym2612"
    },
    {
      "channel": 3,
      "note": 29,
      "start": 36.4968,
      "duration": 0.018,
      "velocity": 125,
      "chip": "ym2612"
    },
    {
      "channel": 3,
      "note": 41,
      "start": 36.6062,
      "duration": 0.0146,
      "velocity": 123,
      "chip": "ym2612"
    },
    {
      "channel": 0,
      "note": 99,
      "start": 36.8039,
      "duration": 0.616,
      "velocity": 92,
      "chip": "ym2612"
    },
    {
      "channel": 1,
      "note": 68,
      "start": 36.8046,
      "duration": 0.3552,
      "velocity": 92,
      "chip": "ym2612"
    },
    {
      "channel": 3,
      "note": 29,
      "start": 36.8096,
      "duration": 0.0326,
      "velocity": 125,
      "chip": "ym2612"
    },
    {
      "channel": 1,
      "note": 68,
      "start": 37.2181,
      "duration": 0.1825,
      "velocity": 92,
      "chip": "ym2612"
    },
    {
      "channel": 3,
      "note": 29,
      "start": 37.219,
      "duration": 0.0181,
      "velocity": 125,
      "chip": "ym2612"
    },
    {
      "channel": 0,
      "note": 101,
      "start": 37.4202,
      "duration": 0.4139,
      "velocity": 92,
      "chip": "ym2612"
    },
    {
      "channel": 1,
      "note": 68,
      "start": 37.421,
      "duration": 0.3552,
      "velocity": 92,
      "chip": "ym2612"
    },
    {
      "channel": 3,
      "note": 41,
      "start": 37.4259,
      "duration": 0.0327,
      "velocity": 123,
      "chip": "ym2612"
    },
    {
      "channel": 0,
      "note": 99,
      "start": 37.8345,
      "duration": 1.6369,
      "velocity": 92,
      "chip": "ym2612"
    },
    {
      "channel": 1,
      "note": 68,
      "start": 37.8355,
      "duration": 0.2682,
      "velocity": 92,
      "chip": "ym2612"
    },
    {
      "channel": 3,
      "note": 29,
      "start": 37.8404,
      "duration": 0.0228,
      "velocity": 125,
      "chip": "ym2612"
    },
    {
      "channel": 5,
      "note": 68,
      "start": 37.8413,
      "duration": 1.4288,
      "velocity": 103,
      "chip": "ym2612"
    },
    {
      "channel": 1,
      "note": 68,
      "start": 38.1426,
      "duration": 0.0959,
      "velocity": 92,
      "chip": "ym2612"
    },
    {
      "channel": 3,
      "note": 29,
      "start": 38.1436,
      "duration": 0.0181,
      "velocity": 125,
      "chip": "ym2612"
    },
    {
      "channel": 3,
      "note": 41,
      "start": 38.2434,
      "duration": 0.0145,
      "velocity": 123,
      "chip": "ym2612"
    },
    {
      "channel": 1,
      "note": 61,
      "start": 38.4509,
      "duration": 0.3557,
      "velocity": 92,
      "chip": "ym2612"
    },
    {
      "channel": 3,
      "note": 29,
      "start": 38.456,
      "duration": 0.0235,
      "velocity": 125,
      "chip": "ym2612"
    },
    {
      "channel": 1,
      "note": 61,
      "start": 38.8553,
      "duration": 0.1922,
      "velocity": 92,
      "chip": "ym2612"
    },
    {
      "channel": 3,
      "note": 29,
      "start": 38.8562,
      "duration": 0.0181,
      "velocity": 125,
      "chip": "ym2612"
    },
    {
      "channel": 1,
      "note": 63,
      "start": 39.0672,
      "duration": 0.0961,
      "velocity": 92,
      "chip": "ym2612"
    },
    {
      "channel": 3,
      "note": 41,
      "start": 39.0721,
      "duration": 0.0141,
      "velocity": 123,
      "chip": "ym2612"
    },
    {
      "channel": 1,
      "note": 65,
      "start": 39.1636,
      "duration": 0.2787,
      "velocity": 92,
      "chip": "ym2612"
    },
    {
      "channel": 3,
      "note": 41,
      "start": 39.2696,
      "duration": 0.0188,
      "velocity": 123,
      "chip": "ym2612"
    },
    {
      "channel": 3,
      "note": 41,
      "start": 39.3756,
      "duration": 0.0188,
      "velocity": 123,
      "chip": "ym2612"
    },
    {
      "channel": 1,
      "note": 68,
      "start": 39.4726,
      "duration": 0.2779,
      "velocity": 92,
      "chip": "ym2612"
    },
    {
      "channel": 3,
      "note": 29,
      "start": 39.4821,
      "duration": 0.0278,
      "velocity": 125,
      "chip": "ym2612"
    },
    {
      "channel": 4,
      "note": 75,
      "start": 39.4829,
      "duration": 2.8735,
      "velocity": 103,
      "chip": "ym2612"
    },
    {
      "channel": 5,
      "note": 72,
      "start": 39.4836,
      "duration": 1.4325,
      "velocity": 103,
      "chip": "ym2612"
    },
    {
      "channel": 1,
      "note": 68,
      "start": 39.78,
      "duration": 0.1061,
      "velocity": 92,
      "chip": "ym2612"
    },
    {
      "channel": 3,
      "note": 29,
      "start": 39.7808,
      "duration": 0.018,
      "velocity": 125,
      "chip": "ym2612"
    },
    {
      "channel": 0,
      "note": 99,
      "start": 39.8856,
      "duration": 0.4138,
      "velocity": 92,
      "chip": "ym2612"
    },
    {
      "channel": 2,
      "note": 68,
      "start": 39.8868,
      "duration": 0.3549,
      "velocity": 97,
      "chip": "ym2612"
    },
    {
      "channel": 3,
      "note": 41,
      "start": 39.8916,
      "duration": 0.0132,
      "velocity": 123,
      "chip": "ym2612"
    },
    {
      "channel": 1,
      "note": 68,
      "start": 40.088,
      "duration": 0.3655,
      "velocity": 92,
      "chip": "ym2612"
    },
    {
      "channel": 3,
      "note": 29,
      "start": 40.0929,
      "duration": 0.0333,
      "velocity": 125,
      "chip": "ym2612"
    },
    {
      "channel": 0,
      "note": 99,
      "start": 40.2997,
      "duration": 0.4041,
      "velocity": 92,
      "chip": "ym2612"
    },
    {
      "channel": 2,
      "note": 68,
      "start": 40.3006,
      "duration": 0.3552,
      "velocity": 97,
      "chip": "ym2612"
    },
    {
      "channel": 1,
      "note": 68,
      "start": 40.5021,
      "duration": 0.1922,
      "velocity": 92,
      "chip": "ym2612"
    },
    {
      "channel": 3,
      "note": 29,
      "start": 40.503,
      "duration": 0.0181,
      "velocity": 125,
      "chip": "ym2612"
    },
    {
      "channel": 0,
      "note": 99,
      "start": 40.7042,
      "duration": 0.4137,
      "velocity": 92,
      "chip": "ym2612"
    },
    {
      "channel": 1,
      "note": 68,
      "start": 40.705,
      "duration": 0.3649,
      "velocity": 92,
      "chip": "ym2612"
    },
    {
      "channel": 2,
      "note": 68,
      "start": 40.7058,
      "duration": 0.3643,
      "velocity": 97,
      "chip": "ym2612"
    },
    {
      "channel": 3,
      "note": 41,
      "start": 40.7106,
      "duration": 0.032,
      "velocity": 123,
      "chip": "ym2612"
    },
    {
      "channel": 0,
      "note": 97,
      "start": 41.1183,
      "duration": 0.4138,
      "velocity": 92,
      "chip": "ym2612"
    },
    {
      "channel": 1,
      "note": 68,
      "start": 41.1193,
      "duration": 0.2781,
      "velocity": 92,
      "chip": "ym2612"
    },
    {
      "channel": 2,
      "note": 67,
      "start": 41.1202,
      "duration": 0.3543,
      "velocity": 97,
      "chip": "ym2612"
    },
    {
      "channel": 3,
      "note": 29,
      "start": 41.1249,
      "duration": 0.0318,
      "velocity": 125,
      "chip": "ym2612"
    },
    {
      "channel": 5,
      "note": 70,
      "start": 41.1258,
      "duration": 1.4276,
      "velocity": 103,
      "chip": "ym2612"
    },
    {
      "channel": 1,
      "note": 68,
      "start": 41.4266,
      "duration": 0.1062,
      "velocity": 92,
      "chip": "ym2612"
    },
    {
      "channel": 3,
      "note": 29,
      "start": 41.4275,
      "duration": 0.0181,
      "velocity": 125,
      "chip": "ym2612"
    },
    {
      "channel": 0,
      "note": 96,
      "start": 41.5324,
      "duration": 0.2019,
      "velocity": 92,
      "chip": "ym2612"
    },
    {
      "channel": 2,
      "note": 65,
      "start": 41.5336,
      "duration": 0.1817,
      "velocity": 97,
      "chip": "ym2612"
    },
    {
      "channel": 3,
      "note": 41,
      "start": 41.5385,
      "duration": 0.0131,
      "velocity": 123,
      "chip": "ym2612"
    },
    {
      "channel": 0,
      "note": 94,
      "start": 41.7347,
      "duration": 1.0301,
      "velocity": 92,
      "chip": "ym2612"
    },
    {
      "channel": 1,
      "note": 68,
      "start": 41.7355,
      "duration": 0.3552,
      "velocity": 92,
      "chip": "ym2612"
    },
    {
      "channel": 2,
      "note": 63,
      "start": 41.7363,
      "duration": 0.9034,
      "velocity": 97,
      "chip": "ym2612"
    },
    {
      "channel": 3,
      "note": 29,
      "start": 41.7411,
      "duration": 0.032,
      "velocity": 125,
      "chip": "ym2612"
    },
    {
      "channel": 1,
      "note": 68,
      "start": 42.1489,
      "duration": 0.1826,
      "velocity": 92,
      "chip": "ym2612"
    },
    {
      "channel": 3,
      "note": 29,
      "start": 42.1499,
      "duration": 0.0181,
      "velocity": 125,
      "chip": "ym2612"
    },
    {
      "channel": 1,
      "note": 68,
      "start": 42.3511,
      "duration": 0.3559,
      "velocity": 92,
      "chip": "ym2612"
    },
    {
      "channel": 3,
      "note": 41,
      "start": 42.3561,
      "duration": 0.0141,
      "velocity": 123,
      "chip": "ym2612"
    },
    {
      "channel": 3,
      "note": 29,
      "start": 42.4613,
      "duration": 0.0245,
      "velocity": 125,
      "chip": "ym2612"
    },
    {
      "channel": 1,
      "note": 68,
      "start": 42.7657,
      "duration": 0.2688,
      "velocity": 92,
      "chip": "ym2612"
    },
    {
      "channel": 3,
      "note": 29,
      "start": 42.771,
      "duration": 0.0229,
      "velocity": 125,
      "chip": "ym2612"
    },
    {
      "channel": 4,
      "note": 73,
      "start": 42.7718,
      "duration": 2.8686,
      "velocity": 103,
      "chip": "ym2612"
    },
    {
      "channel": 5,
      "note": 70,
      "start": 42.7726,
      "duration": 1.4276,
      "velocity": 103,
      "chip": "ym2612"
    },
    {
      "channel": 1,
      "note": 68,
      "start": 43.0735,
      "duration": 0.0966,
      "velocity": 92,
      "chip": "ym2612"
    },
    {
      "channel": 3,
      "note": 29,
      "start": 43.0744,
      "duration": 0.0181,
      "velocity": 125,
      "chip": "ym2612"
    },
    {
      "channel": 0,
      "note": 97,
      "start": 43.1696,
      "duration": 0.4137,
      "velocity": 92,
      "chip": "ym2612"
    },
    {
      "channel": 2,
      "note": 66,
      "start": 43.1709,
      "duration": 0.3645,
      "velocity": 97,
      "chip": "ym2612"
    },
    {
      "channel": 3,
      "note": 41,
      "start": 43.1756,
      "duration": 0.0132,
      "velocity": 123,
      "chip": "ym2612"
    },
    {
      "channel": 1,
      "note": 68,
      "start": 43.3816,
      "duration": 0.3559,
      "velocity": 92,
      "chip": "ym2612"
    },
    {
      "channel": 3,
      "note": 29,
      "start": 43.3866,
      "duration": 0.0237,
      "velocity": 125,
      "chip": "ym2612"
    },
    {
      "channel": 0,
      "note": 97,
      "start": 43.5838,
      "duration": 0.4137,
      "velocity": 92,
      "chip": "ym2612"
    },
    {
      "channel": 2,
      "note": 66,
      "start": 43.5846,
      "duration": 0.3552,
      "velocity": 97,
      "chip": "ym2612"
    },
    {
      "channel": 1,
      "note": 68,
      "start": 43.7861,
      "duration": 0.1922,
      "velocity": 92,
      "chip": "ym2612"
    },
    {
      "channel": 3,
      "note": 29,
      "start": 43.787,
      "duration": 0.0181,
      "velocity": 125,
      "chip": "ym2612"
    },
    {
      "channel": 0,
      "note": 97,
      "start": 43.9979,
      "duration": 0.4041,
      "velocity": 92,
      "chip": "ym2612"
    },
    {
      "channel": 1,
      "note": 68,
      "start": 43.9986,
      "duration": 0.3552,
      "velocity": 92,
      "chip": "ym2612"
    },
    {
      "channel": 2,
      "note": 66,
      "start": 43.9995,
      "duration": 0.3546,
      "velocity": 97,
      "chip": "ym2612"
    },
    {
      "channel": 3,
      "note": 41,
      "start": 44.0042,
      "duration": 0.0224,
      "velocity": 123,
      "chip": "ym2612"
    },
    {
      "channel": 0,
      "note": 96,
      "start": 44.4023,
      "duration": 0.4138,
      "velocity": 92,
      "chip": "ym2612"
    },
    {
      "channel": 1,
      "note": 68,
      "start": 44.4034,
      "duration": 0.278,
      "velocity": 92,
      "chip": "ym2612"
    },
    {
      "channel": 2,
      "note": 65,
      "start": 44.4041,
      "duration": 0.364,
      "velocity": 97,
      "chip": "ym2612"
    },
    {
      "channel": 3,
      "note": 29,
      "start": 44.4089,
      "duration": 0.0319,
      "velocity": 125,
      "chip": "ym2612"
    },
    {
      "channel": 5,
      "note": 68,
      "start": 44.4098,
      "duration": 1.4373,
      "velocity": 103,
      "chip": "ym2612"
    },
    {
      "channel": 1,
      "note": 68,
      "start": 44.7107,
      "duration": 0.1062,
      "velocity": 92,
      "chip": "ym2612"
    },
    {
      "channel": 3,
      "note": 29,
      "start": 44.7116,
      "duration": 0.0181,
      "velocity": 125,
      "chip": "ym2612"
    },
    {
      "channel": 0,
      "note": 94,
      "start": 44.8165,
      "duration": 0.2019,
      "velocity": 92,
      "chip": "ym2612"
    },
    {
      "channel": 2,
      "note": 63,
      "start": 44.8177,
      "duration": 0.1913,
      "velocity": 97,
      "chip": "ym2612"
    },
    {
      "channel": 3,
      "note": 41,
      "start": 44.8225,
      "duration": 0.0131,
      "velocity": 123,
      "chip": "ym2612"
    },
    {
      "channel": 0,
      "note": 92,
      "start": 45.0188,
      "duration": 1.0301,
      "velocity": 92,
      "chip": "ym2612"
    },
    {
      "channel": 1,
      "note": 61,
      "start": 45.0196,
      "duration": 0.3647,
      "velocity": 92,
      "chip": "ym2612"
    },
    {
      "channel": 2,
      "note": 61,
      "start": 45.0204,
      "duration": 0.913,
      "velocity": 97,
      "chip": "ym2612"
    },
    {
      "channel": 3,
      "note": 29,
      "start": 45.0252,
      "duration": 0.0319,
      "velocity": 125,
      "chip": "ym2612"
    },
    {
      "channel": 1,
      "note": 61,
      "start": 45.4329,
      "duration": 0.1922,
      "velocity": 92,
      "chip": "ym2612"
    },
    {
      "channel": 3,
      "note": 29,
      "start": 45.4338,
      "duration": 0.0181,
      "velocity": 125,
      "chip": "ym2612"
    },
    {
      "channel": 1,
      "note": 63,
      "start": 45.6352,
      "duration": 0.1056,
      "velocity": 92,
      "chip": "ym2612"
    },
    {
      "channel": 3,
      "note": 41,
      "start": 45.6401,
      "duration": 0.0141,
      "velocity": 123,
      "chip": "ym2612"
    },
    {
      "channel": 1,
      "note": 65,
      "start": 45.7411,
      "duration": 0.2789,
      "velocity": 92,
      "chip": "ym2612"
    },
    {
      "channel": 3,
      "note": 29,
      "start": 45.746,
      "duration": 0.0333,
      "velocity": 125,
      "chip": "ym2612"
    },
    {
      "channel": 1,
      "note": 68,
      "start": 46.05,
      "duration": 0.2781,
      "velocity": 92,
      "chip": "ym2612"
    },
    {
      "channel": 3,
      "note": 29,
      "start": 46.0555,
      "duration": 0.032,
      "velocity": 125,
      "chip": "ym2612"
    },
    {
      "channel": 4,
      "note": 75,
      "start": 46.0563,
      "duration": 2.8793,
      "velocity": 103,
      "chip": "ym2612"
    },
    {
      "channel": 5,
      "note": 72,
      "start": 46.0571,
      "duration": 1.4272,
      "velocity": 103,
      "chip": "ym2612"
    },
    {
      "channel": 1,
      "note": 68,
      "start": 46.3574,
      "duration": 0.1064,
      "velocity": 92,
      "chip": "ym2612"
    },
    {
      "channel": 3,
      "note": 29,
      "start": 46.3583,
      "duration": 0.0181,
      "velocity": 125,
      "chip": "ym2612"
    },
    {
      "channel": 0,
      "note": 99,
      "start": 46.4635,
      "duration": 0.4039,
      "velocity": 92,
      "chip": "ym2612"
    },
    {
      "channel": 2,
      "note": 68,
      "start": 46.4646,
      "duration": 0.3548,
      "velocity": 97,
      "chip": "ym2612"
    },
    {
      "channel": 3,
      "note": 41,
      "start": 46.4695,
      "duration": 0.013,
      "velocity": 123,
      "chip": "ym2612"
    },
    {
      "channel": 1,
      "note": 68,
      "start": 46.6656,
      "duration": 0.3559,
      "velocity": 92,
      "chip": "ym2612"
    },
    {
      "channel": 3,
      "note": 29,
      "start": 46.6706,
      "duration": 0.0333,
      "velocity": 125,
      "chip": "ym2612"
    },
    {
      "channel": 0,
      "note": 99,
      "start": 46.8678,
      "duration": 0.4137,
      "velocity": 92,
      "chip": "ym2612"
    },
    {
      "channel": 2,
      "note": 68,
      "start": 46.8686,
      "duration": 0.3649,
      "velocity": 97,
      "chip": "ym2612"
    },
    {
      "channel": 1,
      "note": 68,
      "start": 47.0799,
      "duration": 0.1824,
      "velocity": 92,
      "chip": "ym2612"
    },
    {
      "channel": 3,
      "note": 29,
      "start": 47.0808,
      "duration": 0.018,
      "velocity": 125,
      "chip": "ym2612"
    },
    {
      "channel": 0,
      "note": 99,
      "start": 47.2819,
      "duration": 0.4137,
      "velocity": 92,
      "chip": "ym2612"
    },
    {
      "channel": 1,
      "note": 68,
      "start": 47.2827,
      "duration": 0.3552,
      "velocity": 92,
      "chip": "ym2612"
    },
    {
      "channel": 2,
      "note": 68,
      "start": 47.2834,
      "duration": 0.3547,
      "velocity": 97,
      "chip": "ym2612"
    },
    {
      "channel": 3,
      "note": 41,
      "start": 47.2883,
      "duration": 0.032,
      "velocity": 123,
      "chip": "ym2612"
    },
    {
      "channel": 0,
      "note": 97,
      "start": 47.696,
      "duration": 0.4041,
      "velocity": 92,
      "chip": "ym2612"
    },
    {
      "channel": 1,
      "note": 68,
      "start": 47.6971,
      "duration": 0.2683,
      "velocity": 92,
      "chip": "ym2612"
    },
    {
      "channel": 2,
      "note": 67,
      "start": 47.698,
      "duration": 0.3542,
      "velocity": 97,
      "chip": "ym2612"
    },
    {
      "channel": 3,
      "note": 29,
      "start": 47.7027,
      "duration": 0.0221,
      "velocity": 125,
      "chip": "ym2612"
    },
    {
      "channel": 5,
      "note": 70,
      "start": 47.7036,
      "duration": 1.4274,
      "velocity": 103,
      "chip": "ym2612"
    },
    {
      "channel": 1,
      "note": 68,
      "start": 48.0043,
      "duration": 0.0966,
      "velocity": 92,
      "chip": "ym2612"
    },
    {
      "channel": 3,
      "note": 29,
      "start": 48.0052,
      "duration": 0.0181,
      "velocity": 125,
      "chip": "ym2612"
    },
    {
      "channel": 0,
      "note": 96,
      "start": 48.1005,
      "duration": 0.2115,
      "velocity": 92,
      "chip": "ym2612"
    },
    {
      "channel": 2,
      "note": 65,
      "start": 48.1017,
      "duration": 0.1913,
      "velocity": 97,
      "chip": "ym2612"
    },
    {
      "channel": 3,
      "note": 41,
      "start": 48.1065,
      "duration": 0.0131,
      "velocity": 123,
      "chip": "ym2612"
    },
    {
      "channel": 0,
      "note": 94,
      "start": 48.3124,
      "duration": 0.616,
      "velocity": 92,
      "chip": "ym2612"
    },
    {
      "channel": 1,
      "note": 68,
      "start": 48.3133,
      "duration": 0.3551,
      "velocity": 92,
      "chip": "ym2612"
    },
    {
      "channel": 2,
      "note": 63,
      "start": 48.3141,
      "duration": 0.547,
      "velocity": 97,
      "chip": "ym2612"
    },
    {
      "channel": 3,
      "note": 29,
      "start": 48.3189,
      "duration": 0.0222,
      "velocity": 125,
      "chip": "ym2612"
    },
    {
      "channel": 1,
      "note": 68,
      "start": 48.717,
      "duration": 0.1922,
      "velocity": 92,
      "chip": "ym2612"
    },
    {
      "channel": 3,
      "note": 29,
      "start": 48.7179,
      "duration": 0.0181,
      "velocity": 125,
      "chip": "ym2612"
    },
    {
      "channel": 0,
      "note": 96,
      "start": 48.9287,
      "duration": 0.4041,
      "velocity": 92,
      "chip": "ym2612"
    },
    {
      "channel": 1,
      "note": 68,
      "start": 48.9295,
      "duration": 0.3552,
      "velocity": 92,
      "chip": "ym2612"
    },
    {
      "channel": 2,
      "note": 65,
      "start": 48.9304,
      "duration": 0.3546,
      "velocity": 97,
      "chip": "ym2612"
    },
    {
      "channel": 3,
      "note": 41,
      "start": 48.9352,
      "duration": 0.0126,
      "velocity": 123,
      "chip": "ym2612"
    },
    {
      "channel": 3,
      "note": 29,
      "start": 49.0294,
      "duration": 0.0342,
      "velocity": 125,
      "chip": "ym2612"
    },
    {
      "channel": 0,
      "note": 97,
      "start": 49.3332,
      "duration": 0.616,
      "velocity": 92,
      "chip": "ym2612"
    },
    {
      "channel": 1,
      "note": 68,
      "start": 49.3341,
      "duration": 0.278,
      "velocity": 92,
      "chip": "ym2612"
    },
    {
      "channel": 2,
      "note": 66,
      "start": 49.3349,
      "duration": 0.547,
      "velocity": 97,
      "chip": "ym2612"
    },
    {
      "channel": 3,
      "note": 29,
      "start": 49.3399,
      "duration": 0.0317,
      "velocity": 125,
      "chip": "ym2612"
    },
    {
      "channel": 4,
      "note": 73,
      "start": 49.3407,
      "duration": 2.8776,
      "velocity": 103,
      "chip": "ym2612"
    },
    {
      "channel": 5,
      "note": 70,
      "start": 49.3415,
      "duration": 1.4364,
      "velocity": 103,
      "chip": "ym2612"
    },
    {
      "channel": 1,
      "note": 68,
      "start": 49.6415,
      "duration": 0.1057,
      "velocity": 92,
      "chip": "ym2612"
    },
    {
      "channel": 3,
      "note": 29,
      "start": 49.6424,
      "duration": 0.0182,
      "velocity": 125,
      "chip": "ym2612"
    },
    {
      "channel": 3,
      "note": 41,
      "start": 49.7521,
      "duration": 0.0144,
      "velocity": 123,
      "chip": "ym2612"
    },
    {
      "channel": 0,
      "note": 99,
      "start": 49.9495,
      "duration": 0.616,
      "velocity": 92,
      "chip": "ym2612"
    },
    {
      "channel": 1,
      "note": 68,
      "start": 49.9504,
      "duration": 0.3648,
      "velocity": 92,
      "chip": "ym2612"
    },
    {
      "channel": 2,
      "note": 68,
      "start": 49.9513,
      "duration": 0.547,
      "velocity": 97,
      "chip": "ym2612"
    },
    {
      "channel": 3,
      "note": 29,
      "start": 49.9561,
      "duration": 0.0319,
      "velocity": 125,
      "chip": "ym2612"
    },
    {
      "channel": 1,
      "note": 68,
      "start": 50.3639,
      "duration": 0.192,
      "velocity": 92,
      "chip": "ym2612"
    },
    {
      "channel": 3,
      "note": 29,
      "start": 50.3648,
      "duration": 0.018,
      "velocity": 125,
      "chip": "ym2612"
    },
    {
      "channel": 0,
      "note": 101,
      "start": 50.5659,
      "duration": 0.4141,
      "velocity": 92,
      "chip": "ym2612"
    },
    {
      "channel": 1,
      "note": 68,
      "start": 50.5667,
      "duration": 0.3648,
      "velocity": 92,
      "chip": "ym2612"
    },
    {
      "channel": 2,
      "note": 70,
      "start": 50.5675,
      "duration": 0.3643,
      "velocity": 97,
      "chip": "ym2612"
    },
    {
      "channel": 3,
      "note": 41,
      "start": 50.5722,
      "duration": 0.0321,
      "velocity": 123,
      "chip": "ym2612"
    },
    {
      "channel": 0,
      "note": 101,
      "start": 50.9803,
      "duration": 1.6462,
      "velocity": 92,
      "chip": "ym2612"
    },
    {
      "channel": 1,
      "note": 68,
      "start": 50.9813,
      "duration": 0.2776,
      "velocity": 92,
      "chip": "ym2612"
    },
    {
      "channel": 2,
      "note": 70,
      "start": 50.9821,
      "duration": 1.4326,
      "velocity": 97,
      "chip": "ym2612"
    },
    {
      "channel": 3,
      "note": 29,
      "start": 50.9869,
      "duration": 0.0315,
      "velocity": 125,
      "chip": "ym2612"
    },
    {
      "channel": 5,
      "note": 68,
      "start": 50.9878,
      "duration": 1.4281,
      "velocity": 103,
      "chip": "ym2612"
    },
    {
      "channel": 1,
      "note": 68,
      "start": 51.2883,
      "duration": 0.1055,
      "velocity": 92,
      "chip": "ym2612"
    },
    {
      "channel": 3,
      "note": 29,
      "start": 51.2892,
      "duration": 0.0181,
      "velocity": 125,
      "chip": "ym2612"
    },
    {
      "channel": 3,
      "note": 41,
      "start": 51.3989,
      "duration": 0.0145,
      "velocity": 123,
      "chip": "ym2612"
    },
    {
      "channel": 1,
      "note": 61,
      "start": 51.5967,
      "duration": 0.3557,
      "velocity": 92,
      "chip": "ym2612"
    },
    {
      "channel": 3,
      "note": 29,
      "start": 51.6058,
      "duration": 0.0097,
      "velocity": 125,
      "chip": "ym2612"
    },
    {
      "channel": 3,
      "note": 41,
      "start": 51.803,
      "duration": 0.0148,
      "velocity": 123,
      "chip": "ym2612"
    },
    {
      "channel": 1,
      "note": 61,
      "start": 52.0106,
      "duration": 0.1826,
      "velocity": 92,
      "chip": "ym2612"
    },
    {
      "channel": 3,
      "note": 29,
      "start": 52.0156,
      "duration": 0.014,
      "velocity": 125,
      "chip": "ym2612"
    },
    {
      "channel": 1,
      "note": 63,
      "start": 52.2128,
      "duration": 0.1056,
      "velocity": 92,
      "chip": "ym2612"
    },
    {
      "channel": 3,
      "note": 41,
      "start": 52.2179,
      "duration": 0.014,
      "velocity": 123,
      "chip": "ym2612"
    },
    {
      "channel": 1,
      "note": 65,
      "start": 52.3188,
      "duration": 0.2693,
      "velocity": 92,
      "chip": "ym2612"
    },
    {
      "channel": 3,
      "note": 46,
      "start": 52.4155,
      "duration": 0.0186,
      "velocity": 123,
      "chip": "ym2612"
    },
    {
      "channel": 3,
      "note": 43,
      "start": 52.5213,
      "duration": 0.0188,
      "velocity": 123,
      "chip": "ym2612"
    },
    {
      "channel": 0,
      "note": 101,
      "start": 52.6269,
      "duration": 1.6464,
      "velocity": 92,
      "chip": "ym2612"
    },
    {
      "channel": 1,
      "note": 65,
      "start": 52.6285,
      "duration": 0.364,
      "velocity": 92,
      "chip": "ym2612"
    },
    {
      "channel": 3,
      "note": 29,
      "start": 52.6343,
      "duration": 0.031,
      "velocity": 125,
      "chip": "ym2612"
    },
    {
      "channel": 4,
      "note": 72,
      "start": 52.639,
      "duration": 0.4069,
      "velocity": 84,
      "chip": "ym2612"
    },
    {
      "channel": 5,
      "note": 69,
      "start": 52.6439,
      "duration": 0.4025,
      "velocity": 84,
      "chip": "ym2612"
    },
    {
      "channel": 3,
      "note": 41,
      "start": 53.0455,
      "duration": 0.0338,
      "velocity": 123,
      "chip": "ym2612"
    },
    {
      "channel": 1,
      "note": 70,
      "start": 53.4553,
      "duration": 0.5483,
      "velocity": 92,
      "chip": "ym2612"
    },
    {
      "channel": 3,
      "note": 29,
      "start": 53.4602,
      "duration": 0.0333,
      "velocity": 125,
      "chip": "ym2612"
    },
    {
      "channel": 4,
      "note": 74,
      "start": 53.461,
      "duration": 0.4129,
      "velocity": 84,
      "chip": "ym2612"
    },
    {
      "channel": 5,
      "note": 70,
      "start": 53.4617,
      "duration": 0.4125,
      "velocity": 84,
      "chip": "ym2612"
    },
    {
      "channel": 3,
      "note": 41,
      "start": 53.8735,
      "duration": 0.0148,
      "velocity": 123,
      "chip": "ym2612"
    },
    {
      "channel": 1,
      "note": 72,
      "start": 54.0715,
      "duration": 0.5485,
      "velocity": 92,
      "chip": "ym2612"
    },
    {
      "channel": 3,
      "note": 29,
      "start": 54.0764,
      "duration": 0.0141,
      "velocity": 125,
      "chip": "ym2612"
    },
    {
      "channel": 4,
      "note": 76,
      "start": 54.0772,
      "duration": 0.6163,
      "velocity": 84,
      "chip": "ym2612"
    },
    {
      "channel": 5,
      "note": 72,
      "start": 54.078,
      "duration": 0.6158,
      "velocity": 84,
      "chip": "ym2612"
    },
    {
      "channel": 0,
      "note": 101,
      "start": 54.6878,
      "duration": 0.2019,
      "velocity": 92,
      "chip": "ym2612"
    },
    {
      "channel": 3,
      "note": 41,
      "start": 54.6931,
      "duration": 0.0331,
      "velocity": 123,
      "chip": "ym2612"
    },
    {
      "channel": 0,
      "note": 100,
      "start": 54.8901,
      "duration": 0.2115,
      "velocity": 92,
      "chip": "ym2612"
    },
    {
      "channel": 0,
      "note": 101,
      "start": 55.1019,
      "duration": 0.4041,
      "velocity": 92,
      "chip": "ym2612"
    },
    {
      "channel": 1,
      "note": 70,
      "start": 55.1027,
      "duration": 0.182,
      "velocity": 92,
      "chip": "ym2612"
    },
    {
      "channel": 3,
      "note": 29,
      "start": 55.1076,
      "duration": 0.0134,
      "velocity": 125,
      "chip": "ym2612"
    },
    {
      "channel": 4,
      "note": 74,
      "start": 55.1083,
      "duration": 0.1972,
      "velocity": 84,
      "chip": "ym2612"
    },
    {
      "channel": 5,
      "note": 70,
      "start": 55.1091,
      "duration": 0.1972,
      "velocity": 84,
      "chip": "ym2612"
    },
    {
      "channel": 1,
      "note": 70,
      "start": 55.3042,
      "duration": 0.5485,
      "velocity": 92,
      "chip": "ym2612"
    },
    {
      "channel": 3,
      "note": 29,
      "start": 55.3051,
      "duration": 0.0181,
      "velocity": 125,
      "chip": "ym2612"
    },
    {
      "channel": 4,
      "note": 74,
      "start": 55.3059,
      "duration": 0.4124,
      "velocity": 84,
      "chip": "ym2612"
    },
    {
      "channel": 5,
      "note": 70,
      "start": 55.3067,
      "duration": 0.4119,
      "velocity": 84,
      "chip": "ym2612"
    },
    {
      "channel": 0,
      "note": 103,
      "start": 55.5063,
      "duration": 0.4138,
      "velocity": 92,
      "chip": "ym2612"
    },
    {
      "channel": 3,
      "note": 41,
      "start": 55.5113,
      "duration": 0.0334,
      "velocity": 123,
      "chip": "ym2612"
    },
    {
      "channel": 0,
      "note": 101,
      "start": 55.9205,
      "duration": 1.6464,
      "velocity": 92,
      "chip": "ym2612"
    },
    {
      "channel": 1,
      "note": 65,
      "start": 55.9214,
      "duration": 0.3551,
      "velocity": 92,
      "chip": "ym2612"
    },
    {
      "channel": 3,
      "note": 29,
      "start": 55.9266,
      "duration": 0.0323,
      "velocity": 125,
      "chip": "ym2612"
    },
    {
      "channel": 4,
      "note": 72,
      "start": 55.9275,
      "duration": 0.4122,
      "velocity": 84,
      "chip": "ym2612"
    },
    {
      "channel": 5,
      "note": 69,
      "start": 55.9284,
      "duration": 0.4116,
      "velocity": 84,
      "chip": "ym2612"
    },
    {
      "channel": 3,
      "note": 41,
      "start": 56.3392,
      "duration": 0.0243,
      "velocity": 123,
      "chip": "ym2612"
    },
    {
      "channel": 1,
      "note": 70,
      "start": 56.7393,
      "duration": 0.5484,
      "velocity": 92,
      "chip": "ym2612"
    },
    {
      "channel": 3,
      "note": 29,
      "start": 56.7442,
      "duration": 0.0333,
      "velocity": 125,
      "chip": "ym2612"
    },
    {
      "channel": 4,
      "note": 74,
      "start": 56.745,
      "duration": 0.4129,
      "velocity": 84,
      "chip": "ym2612"
    },
    {
      "channel": 5,
      "note": 70,
      "start": 56.7457,
      "duration": 0.4125,
      "velocity": 84,
      "chip": "ym2612"
    },
    {
      "channel": 3,
      "note": 41,
      "start": 57.1575,
      "duration": 0.0148,
      "velocity": 123,
      "chip": "ym2612"
    },
    {
      "channel": 1,
      "note": 60,
      "start": 57.3556,
      "duration": 0.3655,
      "velocity": 92,
      "chip": "ym2612"
    },
    {
      "channel": 3,
      "note": 29,
      "start": 57.3605,
      "duration": 0.014,
      "velocity": 125,
      "chip": "ym2612"
    },
    {
      "channel": 4,
      "note": 76,
      "start": 57.3614,
      "duration": 0.6158,
      "velocity": 84,
      "chip": "ym2612"
    },
    {
      "channel": 5,
      "note": 72,
      "start": 57.3621,
      "duration": 0.6154,
      "velocity": 84,
      "chip": "ym2612"
    },
    {
      "channel": 1,
      "note": 60,
      "start": 57.7696,
      "duration": 0.1922,
      "velocity": 92,
      "chip": "ym2612"
    },
    {
      "channel": 1,
      "note": 67,
      "start": 57.9719,
      "duration": 0.1922,
      "velocity": 92,
      "chip": "ym2612"
    },
    {
      "channel": 3,
      "note": 41,
      "start": 57.9768,
      "duration": 0.0141,
      "velocity": 123,
      "chip": "ym2612"
    },
    {
      "channel": 1,
      "note": 60,
      "start": 58.1838,
      "duration": 0.1826,
      "velocity": 92,
      "chip": "ym2612"
    },
    {
      "channel": 3,
      "note": 29,
      "start": 58.1887,
      "duration": 0.0141,
      "velocity": 125,
      "chip": "ym2612"
    },
    {
      "channel": 1,
      "note": 70,
      "start": 58.3861,
      "duration": 0.192,
      "velocity": 92,
      "chip": "ym2612"
    },
    {
      "channel": 3,
      "note": 29,
      "start": 58.387,
      "duration": 0.018,
      "velocity": 125,
      "chip": "ym2612"
    },
    {
      "channel": 4,
      "note": 74,
      "start": 58.3878,
      "duration": 0.202,
      "velocity": 84,
      "chip": "ym2612"
    },
    {
      "channel": 5,
      "note": 70,
      "start": 58.3886,
      "duration": 0.202,
      "velocity": 84,
      "chip": "ym2612"
    },
    {
      "channel": 1,
      "note": 65,
      "start": 58.5883,
      "duration": 0.1921,
      "velocity": 92,
      "chip": "ym2612"
    },
    {
      "channel": 3,
      "note": 29,
      "start": 58.5894,
      "duration": 0.0179,
      "velocity": 125,
      "chip": "ym2612"
    },
    {
      "channel": 4,
      "note": 74,
      "start": 58.5901,
      "duration": 0.4121,
      "velocity": 84,
      "chip": "ym2612"
    },
    {
      "channel": 5,
      "note": 70,
      "start": 58.591,
      "duration": 0.4117,
      "velocity": 84,
      "chip": "ym2612"
    },
    {
      "channel": 1,
      "note": 64,
      "start": 58.8001,
      "duration": 0.3559,
      "velocity": 92,
      "chip": "ym2612"
    },
    {
      "channel": 3,
      "note": 41,
      "start": 58.805,
      "duration": 0.0237,
      "velocity": 123,
      "chip": "ym2612"
    },
    {
      "channel": 0,
      "note": 101,
      "start": 59.2045,
      "duration": 1.6464,
      "velocity": 92,
      "chip": "ym2612"
    },
    {
      "channel": 1,
      "note": 65,
      "start": 59.2055,
      "duration": 0.3647,
      "velocity": 92,
      "chip": "ym2612"
    },
    {
      "channel": 3,
      "note": 29,
      "start": 59.2109,
      "duration": 0.032,
      "velocity": 125,
      "chip": "ym2612"
    },
    {
      "channel": 4,
      "note": 72,
      "start": 59.2117,
      "duration": 0.4119,
      "velocity": 84,
      "chip": "ym2612"
    },
    {
      "channel": 5,
      "note": 69,
      "start": 59.2127,
      "duration": 0.4113,
      "velocity": 84,
      "chip": "ym2612"
    },
    {
      "channel": 3,
      "note": 41,
      "start": 59.6232,
      "duration": 0.0338,
      "velocity": 123,
      "chip": "ym2612"
    },
    {
      "channel": 1,
      "note": 70,
      "start": 60.0329,
      "duration": 0.5484,
      "velocity": 92,
      "chip": "ym2612"
    },
    {
      "channel": 3,
      "note": 29,
      "start": 60.0378,
      "duration": 0.0237,
      "velocity": 125,
      "chip": "ym2612"
    },
    {
      "channel": 4,
      "note": 74,
      "start": 60.0386,
      "duration": 0.4033,
      "velocity": 84,
      "chip": "ym2612"
    },
    {
      "channel": 5,
      "note": 70,
      "start": 60.0394,
      "duration": 0.4029,
      "velocity": 84,
      "chip": "ym2612"
    },
    {
      "channel": 3,
      "note": 41,
      "start": 60.4415,
      "duration": 0.0148,
      "velocity": 123,
      "chip": "ym2612"
    },
    {
      "channel": 1,
      "note": 72,
      "start": 60.6492,
      "duration": 0.5485,
      "velocity": 92,
      "chip": "ym2612"
    },
    {
      "channel": 3,
      "note": 29,
      "start": 60.6541,
      "duration": 0.0141,
      "velocity": 125,
      "chip": "ym2612"
    },
    {
      "channel": 4,
      "note": 76,
      "start": 60.6549,
      "duration": 0.6163,
      "velocity": 84,
      "chip": "ym2612"
    },
    {
      "channel": 5,
      "note": 72,
      "start": 60.6557,
      "duration": 0.6158,
      "velocity": 84,
      "chip": "ym2612"
    },
    {
      "channel": 0,
      "note": 101,
      "start": 61.2654,
      "duration": 0.2019,
      "velocity": 92,
      "chip": "ym2612"
    },
    {
      "channel": 3,
      "note": 41,
      "start": 61.2707,
      "duration": 0.0235,
      "velocity": 123,
      "chip": "ym2612"
    },
    {
      "channel": 0,
      "note": 100,
      "start": 61.4677,
      "duration": 0.2019,
      "velocity": 92,
      "chip": "ym2612"
    },
    {
      "channel": 0,
      "note": 101,
      "start": 61.67,
      "duration": 0.4137,
      "velocity": 92,
      "chip": "ym2612"
    },
    {
      "channel": 1,
      "note": 70,
      "start": 61.6707,
      "duration": 0.1915,
      "velocity": 92,
      "chip": "ym2612"
    },
    {
      "channel": 3,
      "note": 29,
      "start": 61.6756,
      "duration": 0.0135,
      "velocity": 125,
      "chip": "ym2612"
    },
    {
      "channel": 4,
      "note": 74,
      "start": 61.6764,
      "duration": 0.2068,
      "velocity": 84,
      "chip": "ym2612"
    },
    {
      "channel": 5,
      "note": 70,
      "start": 61.6771,
      "duration": 0.2069,
      "velocity": 84,
      "chip": "ym2612"
    },
    {
      "channel": 1,
      "note": 70,
      "start": 61.8819,
      "duration": 0.5485,
      "velocity": 92,
      "chip": "ym2612"
    },
    {
      "channel": 3,
      "note": 29,
      "start": 61.8828,
      "duration": 0.0181,
      "velocity": 125,
      "chip": "ym2612"
    },
    {
      "channel": 4,
      "note": 74,
      "start": 61.8836,
      "duration": 0.4027,
      "velocity": 84,
      "chip": "ym2612"
    },
    {
      "channel": 5,
      "note": 70,
      "start": 61.8844,
      "duration": 0.4023,
      "velocity": 84,
      "chip": "ym2612"
    },
    {
      "channel": 0,
      "note": 103,
      "start": 62.084,
      "duration": 0.4139,
      "velocity": 92,
      "chip": "ym2612"
    },
    {
      "channel": 3,
      "note": 41,
      "start": 62.089,
      "duration": 0.0334,
      "velocity": 123,
      "chip": "ym2612"
    },
    {
      "channel": 0,
      "note": 105,
      "start": 62.4983,
      "duration": 0.4041,
      "velocity": 92,
      "chip": "ym2612"
    },
    {
      "channel": 1,
      "note": 65,
      "start": 62.4992,
      "duration": 0.355,
      "velocity": 92,
      "chip": "ym2612"
    },
    {
      "channel": 3,
      "note": 29,
      "start": 62.5043,
      "duration": 0.0226,
      "velocity": 125,
      "chip": "ym2612"
    },
    {
      "channel": 4,
      "note": 72,
      "start": 62.5053,
      "duration": 0.4032,
      "velocity": 84,
      "chip": "ym2612"
    },
    {
      "channel": 5,
      "note": 69,
      "start": 62.5062,
      "duration": 0.4027,
      "velocity": 84,
      "chip": "ym2612"
    },
    {
      "channel": 0,
      "note": 103,
      "start": 62.9028,
      "duration": 0.2114,
      "velocity": 92,
      "chip": "ym2612"
    },
    {
      "channel": 3,
      "note": 41,
      "start": 62.9081,
      "duration": 0.0329,
      "velocity": 123,
      "chip": "ym2612"
    },
    {
      "channel": 0,
      "note": 101,
      "start": 63.1146,
      "duration": 1.0204,
      "velocity": 92,
      "chip": "ym2612"
    },
    {
      "channel": 1,
      "note": 70,
      "start": 63.317,
      "duration": 0.5484,
      "velocity": 92,
      "chip": "ym2612"
    },
    {
      "channel": 3,
      "note": 29,
      "start": 63.3219,
      "duration": 0.0333,
      "velocity": 125,
      "chip": "ym2612"
    },
    {
      "channel": 4,
      "note": 74,
      "start": 63.3226,
      "duration": 0.4129,
      "velocity": 84,
      "chip": "ym2612"
    },
    {
      "channel": 5,
      "note": 70,
      "start": 63.3234,
      "duration": 0.4125,
      "velocity": 84,
      "chip": "ym2612"
    },
    {
      "channel": 3,
      "note": 41,
      "start": 63.7352,
      "duration": 0.0148,
      "velocity": 123,
      "chip": "ym2612"
    },
    {
      "channel": 1,
      "note": 60,
      "start": 63.9333,
      "duration": 0.3558,
      "velocity": 92,
      "chip": "ym2612"
    },
    {
      "channel": 3,
      "note": 29,
      "start": 63.9382,
      "duration": 0.014,
      "velocity": 125,
      "chip": "ym2612"
    },
    {
      "channel": 4,
      "note": 76,
      "start": 63.939,
      "duration": 0.6158,
      "velocity": 84,
      "chip": "ym2612"
    },
    {
      "channel": 5,
      "note": 72,
      "start": 63.9398,
      "duration": 0.6154,
      "velocity": 84,
      "chip": "ym2612"
    },
    {
      "channel": 1,
      "note": 60,
      "start": 64.3474,
      "duration": 0.1826,
      "velocity": 92,
      "chip": "ym2612"
    },
    {
      "channel": 1,
      "note": 67,
      "start": 64.5495,
      "duration": 0.1922,
      "velocity": 92,
      "chip": "ym2612"
    },
    {
      "channel": 3,
      "note": 41,
      "start": 64.5544,
      "duration": 0.0141,
      "velocity": 123,
      "chip": "ym2612"
    },
    {
      "channel": 1,
      "note": 60,
      "start": 64.7518,
      "duration": 0.1922,
      "velocity": 92,
      "chip": "ym2612"
    },
    {
      "channel": 3,
      "note": 29,
      "start": 64.7567,
      "duration": 0.0142,
      "velocity": 125,
      "chip": "ym2612"
    },
    {
      "channel": 1,
      "note": 70,
      "start": 64.9639,
      "duration": 0.1823,
      "velocity": 92,
      "chip": "ym2612"
    },
    {
      "channel": 3,
      "note": 29,
      "start": 64.9648,
      "duration": 0.0179,
      "velocity": 125,
      "chip": "ym2612"
    },
    {
      "channel": 4,
      "note": 74,
      "start": 64.9656,
      "duration": 0.2062,
      "velocity": 84,
      "chip": "ym2612"
    },
    {
      "channel": 5,
      "note": 70,
      "start": 64.9664,
      "duration": 0.2062,
      "velocity": 84,
      "chip": "ym2612"
    },
    {
      "channel": 1,
      "note": 65,
      "start": 65.166,
      "duration": 0.1921,
      "velocity": 92,
      "chip": "ym2612"
    },
    {
      "channel": 3,
      "note": 46,
      "start": 65.1714,
      "duration": 0.0136,
      "velocity": 123,
      "chip": "ym2612"
    },
    {
      "channel": 4,
      "note": 74,
      "start": 65.1722,
      "duration": 0.4086,
      "velocity": 84,
      "chip": "ym2612"
    },
    {
      "channel": 5,
      "note": 70,
      "start": 65.173,
      "duration": 0.4081,
      "velocity": 84,
      "chip": "ym2612"
    },
    {
      "channel": 3,
      "note": 46,
      "start": 65.2335,
      "duration": 0.0188,
      "velocity": 123,
      "chip": "ym2612"
    },
    {
      "channel": 3,
      "note": 46,
      "start": 65.3009,
      "duration": 0.0188,
      "velocity": 123,
      "chip": "ym2612"
    },
    {
      "channel": 1,
      "note": 64,
      "start": 65.3682,
      "duration": 0.3655,
      "velocity": 92,
      "chip": "ym2612"
    },
    {
      "channel": 3,
      "note": 43,
      "start": 65.3691,
      "duration": 0.018,
      "velocity": 123,
      "chip": "ym2612"
    },
    {
      "channel": 3,
      "note": 43,
      "start": 65.4743,
      "duration": 0.0188,
      "velocity": 123,
      "chip": "ym2612"
    },
    {
      "channel": 3,
      "note": 39,
      "start": 65.5804,
      "duration": 0.0186,
      "velocity": 123,
      "chip": "ym2612"
    },
    {
      "channel": 0,
      "note": 77,
      "start": 65.7859,
      "duration": 1.6622,
      "velocity": 84,
      "chip": "ym2612"
    },
    {
      "channel": 1,
      "note": 65,
      "start": 65.7913,
      "duration": 0.3662,
      "velocity": 92,
      "chip": "ym2612"
    },
    {
      "channel": 2,
      "note": 72,
      "start": 65.7959,
      "duration": 1.6527,
      "velocity": 84,
      "chip": "ym2612"
    },
    {
      "channel": 3,
      "note": 29,
      "start": 65.8016,
      "duration": 0.0382,
      "velocity": 125,
      "chip": "ym2612"
    },
    {
      "channel": 4,
      "note": 84,
      "start": 65.807,
      "duration": 0.3508,
      "velocity": 92,
      "chip": "ym2612"
    },
    {
      "channel": 5,
      "note": 81,
      "start": 65.8124,
      "duration": 0.3456,
      "velocity": 92,
      "chip": "ym2612"
    },
    {
      "channel": 3,
      "note": 41,
      "start": 66.2202,
      "duration": 0.0242,
      "velocity": 123,
      "chip": "ym2612"
    },
    {
      "channel": 1,
      "note": 70,
      "start": 66.6203,
      "duration": 0.5483,
      "velocity": 92,
      "chip": "ym2612"
    },
    {
      "channel": 3,
      "note": 29,
      "start": 66.6252,
      "duration": 0.0333,
      "velocity": 125,
      "chip": "ym2612"
    },
    {
      "channel": 4,
      "note": 86,
      "start": 66.6259,
      "duration": 0.36,
      "velocity": 92,
      "chip": "ym2612"
    },
    {
      "channel": 5,
      "note": 82,
      "start": 66.6267,
      "duration": 0.3595,
      "velocity": 92,
      "chip": "ym2612"
    },
    {
      "channel": 3,
      "note": 41,
      "start": 67.0385,
      "duration": 0.0148,
      "velocity": 123,
      "chip": "ym2612"
    },
    {
      "channel": 1,
      "note": 72,
      "start": 67.2365,
      "duration": 0.5485,
      "velocity": 92,
      "chip": "ym2612"
    },
    {
      "channel": 3,
      "note": 29,
      "start": 67.2415,
      "duration": 0.0141,
      "velocity": 125,
      "chip": "ym2612"
    },
    {
      "channel": 4,
      "note": 88,
      "start": 67.2422,
      "duration": 0.5432,
      "velocity": 92,
      "chip": "ym2612"
    },
    {
      "channel": 5,
      "note": 84,
      "start": 67.2431,
      "duration": 0.5425,
      "velocity": 92,
      "chip": "ym2612"
    },
    {
      "channel": 0,
      "note": 77,
      "start": 67.8527,
      "duration": 0.0059,
      "velocity": 84,
      "chip": "ym2612"
    },
    {
      "channel": 2,
      "note": 72,
      "start": 67.8539,
      "duration": 0.0047,
      "velocity": 84,
      "chip": "ym2612"
    }
  ]
}