{
  "track_name": "06 - Adventures of Iron",
  "duration_sec": 147.209,
  "sample_rate": 44100,
  "note_count": 3114,
  "unique_pitches": 29,
  "pitch_range": 77,
  "avg_note_duration": 0.2363,
  "reconstruction_stats": {
    "notes_reconstructed": 3114,
    "keyon_events": 3114,
    "keyoff_events": 3112,
    "orphan_keyons": 2,
    "unique_pitches": 29,
    "pitch_range": 77,
    "avg_duration_sec": 0.2363
  },
  "metadata": {
    "source": "G\\Gauntlet IV\\06 - Adventures of Iron.vgz"
  },
  "notes": [
    {
      "channel": 0,
      "note": 47,
      "start": 0.0,
      "duration": 0.1116,
      "velocity": 102,
      "chip": "ym2612"
    },
    {
      "channel": 1,
      "note": 100,
      "start": 0.0011,
      "duration": 0.1606,
      "velocity": 109,
      "chip": "ym2612"
    },
    {
      "channel": 2,
      "note": 35,
      "start": 0.0021,
      "duration": 2.9266,
      "velocity": 124,
      "chip": "ym2612"
    },
    {
      "channel": 3,
      "note": 71,
      "start": 0.0043,
      "duration": 0.1242,
      "velocity": 127,
      "chip": "ym2612"
    },
    {
      "channel": 4,
      "note": 66,
      "start": 0.0056,
      "duration": 0.123,
      "velocity": 127,
      "chip": "ym2612"
    },
    {
      "channel": 0,
      "note": 47,
      "start": 0.1783,
      "duration": 0.1164,
      "velocity": 102,
      "chip": "ym2612"
    },
    {
      "channel": 1,
      "note": 100,
      "start": 0.1786,
      "duration": 0.0662,
      "velocity": 109,
      "chip": "ym2612"
    },
    {
      "channel": 3,
      "note": 71,
      "start": 0.1793,
      "duration": 0.1327,
      "velocity": 127,
      "chip": "ym2612"
    },
    {
      "channel": 4,
      "note": 66,
      "start": 0.1797,
      "duration": 0.1326,
      "velocity": 127,
      "chip": "ym2612"
    },
    {
      "channel": 1,
      "note": 100,
      "start": 0.2618,
      "duration": 0.083,
      "velocity": 109,
      "chip": "ym2612"
    },
    {
      "channel": 5,
      "note": 35,
      "start": 0.2636,
      "duration": 2.9321,
      "velocity": 124,
      "chip": "ym2612"
    },
    {
      "channel": 0,
      "note": 47,
      "start": 0.3618,
      "duration": 0.1162,
      "velocity": 102,
      "chip": "ym2612"
    },
    {
      "channel": 1,
      "note": 100,
      "start": 0.3622,
      "duration": 0.1659,
      "velocity": 109,
      "chip": "ym2612"
    },
    {
      "channel": 3,
      "note": 71,
      "start": 0.3633,
      "duration": 0.1319,
      "velocity": 127,
      "chip": "ym2612"
    },
    {
      "channel": 4,
      "note": 66,
      "start": 0.3636,
      "duration": 0.1317,
      "velocity": 127,
      "chip": "ym2612"
    },
    {
      "channel": 0,
      "note": 47,
      "start": 0.5449,
      "duration": 0.1167,
      "velocity": 102,
      "chip": "ym2612"
    },
    {
      "channel": 1,
      "note": 100,
      "start": 0.5452,
      "duration": 0.1664,
      "velocity": 109,
      "chip": "ym2612"
    },
    {
      "channel": 3,
      "note": 71,
      "start": 0.5462,
      "duration": 0.1323,
      "velocity": 127,
      "chip": "ym2612"
    },
    {
      "channel": 4,
      "note": 66,
      "start": 0.5466,
      "duration": 0.1321,
      "velocity": 127,
      "chip": "ym2612"
    },
    {
      "channel": 0,
      "note": 47,
      "start": 0.7282,
      "duration": 0.1165,
      "velocity": 102,
      "chip": "ym2612"
    },
    {
      "channel": 3,
      "note": 71,
      "start": 0.7292,
      "duration": 0.1328,
      "velocity": 127,
      "chip": "ym2612"
    },
    {
      "channel": 4,
      "note": 66,
      "start": 0.7295,
      "duration": 0.1326,
      "velocity": 127,
      "chip": "ym2612"
    },
    {
      "channel": 0,
      "note": 47,
      "start": 0.9118,
      "duration": 0.1162,
      "velocity": 102,
      "chip": "ym2612"
    },
    {
      "channel": 1,
      "note": 100,
      "start": 0.912,
      "duration": 0.166,
      "velocity": 109,
      "chip": "ym2612"
    },
    {
      "channel": 3,
      "note": 71,
      "start": 0.9129,
      "duration": 0.1323,
      "velocity": 127,
      "chip": "ym2612"
    },
    {
      "channel": 4,
      "note": 66,
      "start": 0.9132,
      "duration": 0.1321,
      "velocity": 127,
      "chip": "ym2612"
    },
    {
      "channel": 0,
      "note": 47,
      "start": 1.0949,
      "duration": 0.1167,
      "velocity": 102,
      "chip": "ym2612"
    },
    {
      "channel": 3,
      "note": 69,
      "start": 1.0958,
      "duration": 0.1326,
      "velocity": 127,
      "chip": "ym2612"
    },
    {
      "channel": 4,
      "note": 64,
      "start": 1.0961,
      "duration": 0.1324,
      "velocity": 127,
      "chip": "ym2612"
    },
    {
      "channel": 0,
      "note": 47,
      "start": 1.2782,
      "duration": 0.1165,
      "velocity": 102,
      "chip": "ym2612"
    },
    {
      "channel": 1,
      "note": 100,
      "start": 1.2786,
      "duration": 0.0662,
      "velocity": 109,
      "chip": "ym2612"
    },
    {
      "channel": 3,
      "note": 69,
      "start": 1.2792,
      "duration": 0.1328,
      "velocity": 127,
      "chip": "ym2612"
    },
    {
      "channel": 4,
      "note": 64,
      "start": 1.2796,
      "duration": 0.1326,
      "velocity": 127,
      "chip": "ym2612"
    },
    {
      "channel": 1,
      "note": 100,
      "start": 1.3618,
      "duration": 0.083,
      "velocity": 109,
      "chip": "ym2612"
    },
    {
      "channel": 0,
      "note": 47,
      "start": 1.4618,
      "duration": 0.1162,
      "velocity": 102,
      "chip": "ym2612"
    },
    {
      "channel": 1,
      "note": 100,
      "start": 1.4622,
      "duration": 0.1659,
      "velocity": 109,
      "chip": "ym2612"
    },
    {
      "channel": 3,
      "note": 69,
      "start": 1.463,
      "duration": 0.1322,
      "velocity": 127,
      "chip": "ym2612"
    },
    {
      "channel": 4,
      "note": 64,
      "start": 1.4634,
      "duration": 0.1319,
      "velocity": 127,
      "chip": "ym2612"
    },
    {
      "channel": 0,
      "note": 47,
      "start": 1.6449,
      "duration": 0.1167,
      "velocity": 102,
      "chip": "ym2612"
    },
    {
      "channel": 1,
      "note": 100,
      "start": 1.6452,
      "duration": 0.1664,
      "velocity": 109,
      "chip": "ym2612"
    },
    {
      "channel": 3,
      "note": 71,
      "start": 1.646,
      "duration": 0.1325,
      "velocity": 127,
      "chip": "ym2612"
    },
    {
      "channel": 4,
      "note": 66,
      "start": 1.6464,
      "duration": 0.1322,
      "velocity": 127,
      "chip": "ym2612"
    },
    {
      "channel": 0,
      "note": 47,
      "start": 1.8283,
      "duration": 0.1164,
      "velocity": 102,
      "chip": "ym2612"
    },
    {
      "channel": 1,
      "note": 100,
      "start": 1.8284,
      "duration": 0.1663,
      "velocity": 109,
      "chip": "ym2612"
    },
    {
      "channel": 3,
      "note": 71,
      "start": 1.8295,
      "duration": 0.1326,
      "velocity": 127,
      "chip": "ym2612"
    },
    {
      "channel": 4,
      "note": 66,
      "start": 1.8298,
      "duration": 0.1324,
      "velocity": 127,
      "chip": "ym2612"
    },
    {
      "channel": 0,
      "note": 47,
      "start": 2.0118,
      "duration": 0.1162,
      "velocity": 102,
      "chip": "ym2612"
    },
    {
      "channel": 1,
      "note": 100,
      "start": 2.0122,
      "duration": 0.0659,
      "velocity": 109,
      "chip": "ym2612"
    },
    {
      "channel": 3,
      "note": 71,
      "start": 2.0131,
      "duration": 0.1321,
      "velocity": 127,
      "chip": "ym2612"
    },
    {
      "channel": 4,
      "note": 66,
      "start": 2.0134,
      "duration": 0.1319,
      "velocity": 127,
      "chip": "ym2612"
    },
    {
      "channel": 1,
      "note": 100,
      "start": 2.0949,
      "duration": 0.0832,
      "velocity": 109,
      "chip": "ym2612"
    },
    {
      "channel": 0,
      "note": 47,
      "start": 2.1949,
      "duration": 0.1167,
      "velocity": 102,
      "chip": "ym2612"
    },
    {
      "channel": 1,
      "note": 100,
      "start": 2.1952,
      "duration": 0.1664,
      "velocity": 109,
      "chip": "ym2612"
    },
    {
      "channel": 3,
      "note": 71,
      "start": 2.1961,
      "duration": 0.1324,
      "velocity": 127,
      "chip": "ym2612"
    },
    {
      "channel": 4,
      "note": 66,
      "start": 2.1964,
      "duration": 0.1322,
      "velocity": 127,
      "chip": "ym2612"
    },
    {
      "channel": 0,
      "note": 47,
      "start": 2.3783,
      "duration": 0.1164,
      "velocity": 102,
      "chip": "ym2612"
    },
    {
      "channel": 3,
      "note": 71,
      "start": 2.3792,
      "duration": 0.1328,
      "velocity": 127,
      "chip": "ym2612"
    },
    {
      "channel": 4,
      "note": 66,
      "start": 2.3795,
      "duration": 0.1326,
      "velocity": 127,
      "chip": "ym2612"
    },
    {
      "channel": 0,
      "note": 47,
      "start": 2.5618,
      "duration": 0.1162,
      "velocity": 102,
      "chip": "ym2612"
    },
    {
      "channel": 1,
      "note": 100,
      "start": 2.5622,
      "duration": 0.1659,
      "velocity": 109,
      "chip": "ym2612"
    },
    {
      "channel": 3,
      "note": 69,
      "start": 2.5629,
      "duration": 0.1322,
      "velocity": 127,
      "chip": "ym2612"
    },
    {
      "channel": 4,
      "note": 64,
      "start": 2.5632,
      "duration": 0.1321,
      "velocity": 127,
      "chip": "ym2612"
    },
    {
      "channel": 0,
      "note": 47,
      "start": 2.745,
      "duration": 0.1166,
      "velocity": 102,
      "chip": "ym2612"
    },
    {
      "channel": 1,
      "note": 100,
      "start": 2.7452,
      "duration": 0.1664,
      "velocity": 109,
      "chip": "ym2612"
    },
    {
      "channel": 3,
      "note": 69,
      "start": 2.7459,
      "duration": 0.1326,
      "velocity": 127,
      "chip": "ym2612"
    },
    {
      "channel": 4,
      "note": 64,
      "start": 2.7463,
      "duration": 0.1323,
      "velocity": 127,
      "chip": "ym2612"
    },
    {
      "channel": 0,
      "note": 49,
      "start": 2.9283,
      "duration": 0.1164,
      "velocity": 102,
      "chip": "ym2612"
    },
    {
      "channel": 1,
      "note": 100,
      "start": 2.9285,
      "duration": 0.1662,
      "velocity": 109,
      "chip": "ym2612"
    },
    {
      "channel": 2,
      "note": 37,
      "start": 2.9288,
      "duration": 2.9335,
      "velocity": 124,
      "chip": "ym2612"
    },
    {
      "channel": 3,
      "note": 71,
      "start": 2.9297,
      "duration": 0.1324,
      "velocity": 127,
      "chip": "ym2612"
    },
    {
      "channel": 4,
      "note": 66,
      "start": 2.9302,
      "duration": 0.132,
      "velocity": 127,
      "chip": "ym2612"
    },
    {
      "channel": 0,
      "note": 49,
      "start": 3.1118,
      "duration": 0.1162,
      "velocity": 102,
      "chip": "ym2612"
    },
    {
      "channel": 1,
      "note": 100,
      "start": 3.1122,
      "duration": 0.0659,
      "velocity": 109,
      "chip": "ym2612"
    },
    {
      "channel": 3,
      "note": 71,
      "start": 3.1129,
      "duration": 0.1322,
      "velocity": 127,
      "chip": "ym2612"
    },
    {
      "channel": 4,
      "note": 66,
      "start": 3.1132,
      "duration": 0.1321,
      "velocity": 127,
      "chip": "ym2612"
    },
    {
      "channel": 1,
      "note": 100,
      "start": 3.1949,
      "duration": 0.0832,
      "velocity": 109,
      "chip": "ym2612"
    },
    {
      "channel": 5,
      "note": 37,
      "start": 3.1959,
      "duration": 2.9332,
      "velocity": 124,
      "chip": "ym2612"
    },
    {
      "channel": 0,
      "note": 49,
      "start": 3.2949,
      "duration": 0.1167,
      "velocity": 102,
      "chip": "ym2612"
    },
    {
      "channel": 1,
      "note": 100,
      "start": 3.2952,
      "duration": 0.1664,
      "velocity": 109,
      "chip": "ym2612"
    },
    {
      "channel": 3,
      "note": 71,
      "start": 3.2963,
      "duration": 0.1322,
      "velocity": 127,
      "chip": "ym2612"
    },
    {
      "channel": 4,
      "note": 66,
      "start": 3.2966,
      "duration": 0.132,
      "velocity": 127,
      "chip": "ym2612"
    },
    {
      "channel": 0,
      "note": 49,
      "start": 3.4783,
      "duration": 0.1164,
      "velocity": 102,
      "chip": "ym2612"
    },
    {
      "channel": 1,
      "note": 100,
      "start": 3.4786,
      "duration": 0.1662,
      "velocity": 109,
      "chip": "ym2612"
    },
    {
      "channel": 3,
      "note": 71,
      "start": 3.4795,
      "duration": 0.1326,
      "velocity": 127,
      "chip": "ym2612"
    },
    {
      "channel": 4,
      "note": 66,
      "start": 3.4799,
      "duration": 0.1322,
      "velocity": 127,
      "chip": "ym2612"
    },
    {
      "channel": 0,
      "note": 49,
      "start": 3.6618,
      "duration": 0.1162,
      "velocity": 102,
      "chip": "ym2612"
    },
    {
      "channel": 3,
      "note": 71,
      "start": 3.6627,
      "duration": 0.1324,
      "velocity": 127,
      "chip": "ym2612"
    },
    {
      "channel": 4,
      "note": 66,
      "start": 3.6631,
      "duration": 0.1321,
      "velocity": 127,
      "chip": "ym2612"
    },
    {
      "channel": 0,
      "note": 49,
      "start": 3.8449,
      "duration": 0.1167,
      "velocity": 102,
      "chip": "ym2612"
    },
    {
      "channel": 1,
      "note": 100,
      "start": 3.8452,
      "duration": 0.0664,
      "velocity": 109,
      "chip": "ym2612"
    },
    {
      "channel": 3,
      "note": 71,
      "start": 3.8461,
      "duration": 0.1324,
      "velocity": 127,
      "chip": "ym2612"
    },
    {
      "channel": 4,
      "note": 66,
      "start": 3.8464,
      "duration": 0.1322,
      "velocity": 127,
      "chip": "ym2612"
    },
    {
      "channel": 1,
      "note": 100,
      "start": 3.9282,
      "duration": 0.0835,
      "velocity": 109,
      "chip": "ym2612"
    },
    {
      "channel": 0,
      "note": 49,
      "start": 4.0283,
      "duration": 0.1164,
      "velocity": 102,
      "chip": "ym2612"
    },
    {
      "channel": 1,
      "note": 100,
      "start": 4.0286,
      "duration": 0.1662,
      "velocity": 109,
      "chip": "ym2612"
    },
    {
      "channel": 3,
      "note": 69,
      "start": 4.0293,
      "duration": 0.1327,
      "velocity": 127,
      "chip": "ym2612"
    },
    {
      "channel": 4,
      "note": 64,
      "start": 4.0297,
      "duration": 0.1324,
      "velocity": 127,
      "chip": "ym2612"
    },
    {
      "channel": 0,
      "note": 49,
      "start": 4.2118,
      "duration": 0.1162,
      "velocity": 102,
      "chip": "ym2612"
    },
    {
      "channel": 1,
      "note": 100,
      "start": 4.2122,
      "duration": 0.0659,
      "velocity": 109,
      "chip": "ym2612"
    },
    {
      "channel": 3,
      "note": 69,
      "start": 4.2128,
      "duration": 0.1324,
      "velocity": 127,
      "chip": "ym2612"
    },
    {
      "channel": 4,
      "note": 64,
      "start": 4.2132,
      "duration": 0.1321,
      "velocity": 127,
      "chip": "ym2612"
    },
    {
      "channel": 1,
      "note": 100,
      "start": 4.2949,
      "duration": 0.0832,
      "velocity": 109,
      "chip": "ym2612"
    },
    {
      "channel": 0,
      "note": 49,
      "start": 4.3949,
      "duration": 0.1167,
      "velocity": 102,
      "chip": "ym2612"
    },
    {
      "channel": 1,
      "note": 100,
      "start": 4.3952,
      "duration": 0.1664,
      "velocity": 109,
      "chip": "ym2612"
    },
    {
      "channel": 3,
      "note": 69,
      "start": 4.3961,
      "duration": 0.1324,
      "velocity": 127,
      "chip": "ym2612"
    },
    {
      "channel": 4,
      "note": 64,
      "start": 4.3964,
      "duration": 0.1321,
      "velocity": 127,
      "chip": "ym2612"
    },
    {
      "channel": 0,
      "note": 49,
      "start": 4.5783,
      "duration": 0.1164,
      "velocity": 102,
      "chip": "ym2612"
    },
    {
      "channel": 1,
      "note": 100,
      "start": 4.5786,
      "duration": 0.1662,
      "velocity": 109,
      "chip": "ym2612"
    },
    {
      "channel": 3,
      "note": 71,
      "start": 4.5794,
      "duration": 0.1327,
      "velocity": 127,
      "chip": "ym2612"
    },
    {
      "channel": 4,
      "note": 66,
      "start": 4.5797,
      "duration": 0.1324,
      "velocity": 127,
      "chip": "ym2612"
    },
    {
      "channel": 0,
      "note": 49,
      "start": 4.7618,
      "duration": 0.1162,
      "velocity": 102,
      "chip": "ym2612"
    },
    {
      "channel": 1,
      "note": 100,
      "start": 4.7622,
      "duration": 0.0659,
      "velocity": 109,
      "chip": "ym2612"
    },
    {
      "channel": 3,
      "note": 71,
      "start": 4.7631,
      "duration": 0.1321,
      "velocity": 127,
      "chip": "ym2612"
    },
    {
      "channel": 4,
      "note": 66,
      "start": 4.7634,
      "duration": 0.1319,
      "velocity": 127,
      "chip": "ym2612"
    },
    {
      "channel": 1,
      "note": 100,
      "start": 4.8449,
      "duration": 0.0832,
      "velocity": 109,
      "chip": "ym2612"
    },
    {
      "channel": 0,
      "note": 49,
      "start": 4.9449,
      "duration": 0.1167,
      "velocity": 102,
      "chip": "ym2612"
    },
    {
      "channel": 1,
      "note": 100,
      "start": 4.9452,
      "duration": 0.1664,
      "velocity": 109,
      "chip": "ym2612"
    },
    {
      "channel": 3,
      "note": 71,
      "start": 4.9461,
      "duration": 0.1324,
      "velocity": 127,
      "chip": "ym2612"
    },
    {
      "channel": 4,
      "note": 66,
      "start": 4.9465,
      "duration": 0.1321,
      "velocity": 127,
      "chip": "ym2612"
    },
    {
      "channel": 0,
      "note": 49,
      "start": 5.1283,
      "duration": 0.1164,
      "velocity": 102,
      "chip": "ym2612"
    },
    {
      "channel": 1,
      "note": 100,
      "start": 5.1286,
      "duration": 0.1662,
      "velocity": 109,
      "chip": "ym2612"
    },
    {
      "channel": 3,
      "note": 71,
      "start": 5.1294,
      "duration": 0.1326,
      "velocity": 127,
      "chip": "ym2612"
    },
    {
      "channel": 4,
      "note": 66,
      "start": 5.1298,
      "duration": 0.1324,
      "velocity": 127,
      "chip": "ym2612"
    },
    {
      "channel": 0,
      "note": 49,
      "start": 5.3118,
      "duration": 0.1162,
      "velocity": 102,
      "chip": "ym2612"
    },
    {
      "channel": 1,
      "note": 100,
      "start": 5.312,
      "duration": 0.166,
      "velocity": 109,
      "chip": "ym2612"
    },
    {
      "channel": 3,
      "note": 71,
      "start": 5.3129,
      "duration": 0.1323,
      "velocity": 127,
      "chip": "ym2612"
    },
    {
      "channel": 4,
      "note": 66,
      "start": 5.3132,
      "duration": 0.1321,
      "velocity": 127,
      "chip": "ym2612"
    },
    {
      "channel": 0,
      "note": 49,
      "start": 5.4949,
      "duration": 0.1167,
      "velocity": 102,
      "chip": "ym2612"
    },
    {
      "channel": 1,
      "note": 100,
      "start": 5.4952,
      "duration": 0.0664,
      "velocity": 109,
      "chip": "ym2612"
    },
    {
      "channel": 3,
      "note": 69,
      "start": 5.4959,
      "duration": 0.1325,
      "velocity": 127,
      "chip": "ym2612"
    },
    {
      "channel": 4,
      "note": 64,
      "start": 5.4963,
      "duration": 0.1322,
      "velocity": 127,
      "chip": "ym2612"
    },
    {
      "channel": 1,
      "note": 100,
      "start": 5.5783,
      "duration": 0.0834,
      "velocity": 109,
      "chip": "ym2612"
    },
    {
      "channel": 0,
      "note": 49,
      "start": 5.6783,
      "duration": 0.1163,
      "velocity": 102,
      "chip": "ym2612"
    },
    {
      "channel": 1,
      "note": 100,
      "start": 5.6786,
      "duration": 0.0662,
      "velocity": 109,
      "chip": "ym2612"
    },
    {
      "channel": 3,
      "note": 69,
      "start": 5.6793,
      "duration": 0.1328,
      "velocity": 127,
      "chip": "ym2612"
    },
    {
      "channel": 4,
      "note": 64,
      "start": 5.6796,
      "duration": 0.1326,
      "velocity": 127,
      "chip": "ym2612"
    },
    {
      "channel": 1,
      "note": 100,
      "start": 5.7618,
      "duration": 0.0829,
      "velocity": 109,
      "chip": "ym2612"
    },
    {
      "channel": 0,
      "note": 50,
      "start": 5.8618,
      "duration": 0.1162,
      "velocity": 102,
      "chip": "ym2612"
    },
    {
      "channel": 1,
      "note": 100,
      "start": 5.8622,
      "duration": 0.1659,
      "velocity": 109,
      "chip": "ym2612"
    },
    {
      "channel": 2,
      "note": 38,
      "start": 5.8625,
      "duration": 2.9329,
      "velocity": 124,
      "chip": "ym2612"
    },
    {
      "channel": 3,
      "note": 71,
      "start": 5.8634,
      "duration": 0.1317,
      "velocity": 127,
      "chip": "ym2612"
    },
    {
      "channel": 4,
      "note": 66,
      "start": 5.8638,
      "duration": 0.1315,
      "velocity": 127,
      "chip": "ym2612"
    },
    {
      "channel": 0,
      "note": 50,
      "start": 6.0449,
      "duration": 0.1167,
      "velocity": 102,
      "chip": "ym2612"
    },
    {
      "channel": 1,
      "note": 100,
      "start": 6.0452,
      "duration": 0.0664,
      "velocity": 109,
      "chip": "ym2612"
    },
    {
      "channel": 3,
      "note": 71,
      "start": 6.046,
      "duration": 0.1325,
      "velocity": 127,
      "chip": "ym2612"
    },
    {
      "channel": 4,
      "note": 66,
      "start": 6.0463,
      "duration": 0.1323,
      "velocity": 127,
      "chip": "ym2612"
    },
    {
      "channel": 1,
      "note": 100,
      "start": 6.1282,
      "duration": 0.0835,
      "velocity": 109,
      "chip": "ym2612"
    },
    {
      "channel": 5,
      "note": 38,
      "start": 6.1292,
      "duration": 2.9335,
      "velocity": 124,
      "chip": "ym2612"
    },
    {
      "channel": 0,
      "note": 50,
      "start": 6.2282,
      "duration": 0.1165,
      "velocity": 102,
      "chip": "ym2612"
    },
    {
      "channel": 1,
      "note": 100,
      "start": 6.2286,
      "duration": 0.1662,
      "velocity": 109,
      "chip": "ym2612"
    },
    {
      "channel": 3,
      "note": 71,
      "start": 6.2296,
      "duration": 0.1325,
      "velocity": 127,
      "chip": "ym2612"
    },
    {
      "channel": 4,
      "note": 66,
      "start": 6.23,
      "duration": 0.1322,
      "velocity": 127,
      "chip": "ym2612"
    },
    {
      "channel": 0,
      "note": 50,
      "start": 6.4118,
      "duration": 0.1162,
      "velocity": 102,
      "chip": "ym2612"
    },
    {
      "channel": 1,
      "note": 100,
      "start": 6.4122,
      "duration": 0.1659,
      "velocity": 109,
      "chip": "ym2612"
    },
    {
      "channel": 3,
      "note": 71,
      "start": 6.4131,
      "duration": 0.1321,
      "velocity": 127,
      "chip": "ym2612"
    },
    {
      "channel": 4,
      "note": 66,
      "start": 6.4135,
      "duration": 0.1318,
      "velocity": 127,
      "chip": "ym2612"
    },
    {
      "channel": 0,
      "note": 50,
      "start": 6.5949,
      "duration": 0.1167,
      "velocity": 102,
      "chip": "ym2612"
    },
    {
      "channel": 3,
      "note": 71,
      "start": 6.5959,
      "duration": 0.1326,
      "velocity": 127,
      "chip": "ym2612"
    },
    {
      "channel": 4,
      "note": 66,
      "start": 6.5962,
      "duration": 0.1324,
      "velocity": 127,
      "chip": "ym2612"
    },
    {
      "channel": 0,
      "note": 50,
      "start": 6.7783,
      "duration": 0.1164,
      "velocity": 102,
      "chip": "ym2612"
    },
    {
      "channel": 1,
      "note": 100,
      "start": 6.7784,
      "duration": 0.1663,
      "velocity": 109,
      "chip": "ym2612"
    },
    {
      "channel": 3,
      "note": 71,
      "start": 6.7793,
      "duration": 0.1328,
      "velocity": 127,
      "chip": "ym2612"
    },
    {
      "channel": 4,
      "note": 66,
      "start": 6.7797,
      "duration": 0.1325,
      "velocity": 127,
      "chip": "ym2612"
    },
    {
      "channel": 0,
      "note": 50,
      "start": 6.9618,
      "duration": 0.1162,
      "velocity": 102,
      "chip": "ym2612"
    },
    {
      "channel": 3,
      "note": 69,
      "start": 6.9627,
      "duration": 0.1324,
      "velocity": 127,
      "chip": "ym2612"
    },
    {
      "channel": 4,
      "note": 64,
      "start": 6.9631,
      "duration": 0.1321,
      "velocity": 127,
      "chip": "ym2612"
    },
    {
      "channel": 0,
      "note": 50,
      "start": 7.1449,
      "duration": 0.1167,
      "velocity": 102,
      "chip": "ym2612"
    },
    {
      "channel": 1,
      "note": 100,
      "start": 7.1452,
      "duration": 0.0664,
      "velocity": 109,
      "chip": "ym2612"
    },
    {
      "channel": 3,
      "note": 69,
      "start": 7.1459,
      "duration": 0.1326,
      "velocity": 127,
      "chip": "ym2612"
    },
    {
      "channel": 4,
      "note": 64,
      "start": 7.1463,
      "duration": 0.1323,
      "velocity": 127,
      "chip": "ym2612"
    },
    {
      "channel": 1,
      "note": 100,
      "start": 7.2282,
      "duration": 0.0835,
      "velocity": 109,
      "chip": "ym2612"
    },
    {
      "channel": 0,
      "note": 50,
      "start": 7.3282,
      "duration": 0.1165,
      "velocity": 102,
      "chip": "ym2612"
    },
    {
      "channel": 1,
      "note": 100,
      "start": 7.3286,
      "duration": 0.1662,
      "velocity": 109,
      "chip": "ym2612"
    },
    {
      "channel": 3,
      "note": 69,
      "start": 7.3295,
      "duration": 0.1326,
      "velocity": 127,
      "chip": "ym2612"
    },
    {
      "channel": 4,
      "note": 64,
      "start": 7.3298,
      "duration": 0.1324,
      "velocity": 127,
      "chip": "ym2612"
    },
    {
      "channel": 0,
      "note": 50,
      "start": 7.5118,
      "duration": 0.1162,
      "velocity": 102,
      "chip": "ym2612"
    },
    {
      "channel": 1,
      "note": 100,
      "start": 7.5122,
      "duration": 0.1659,
      "velocity": 109,
      "chip": "ym2612"
    },
    {
      "channel": 3,
      "note": 71,
      "start": 7.5129,
      "duration": 0.1322,
      "velocity": 127,
      "chip": "ym2612"
    },
    {
      "channel": 4,
      "note": 66,
      "start": 7.5133,
      "duration": 0.132,
      "velocity": 127,
      "chip": "ym2612"
    },
    {
      "channel": 0,
      "note": 50,
      "start": 7.6949,
      "duration": 0.1167,
      "velocity": 102,
      "chip": "ym2612"
    },
    {
      "channel": 1,
      "note": 100,
      "start": 7.6951,
      "duration": 0.1666,
      "velocity": 109,
      "chip": "ym2612"
    },
    {
      "channel": 3,
      "note": 71,
      "start": 7.6961,
      "duration": 0.1324,
      "velocity": 127,
      "chip": "ym2612"
    },
    {
      "channel": 4,
      "note": 66,
      "start": 7.6964,
      "duration": 0.1322,
      "velocity": 127,
      "chip": "ym2612"
    },
    {
      "channel": 0,
      "note": 50,
      "start": 7.8782,
      "duration": 0.1165,
      "velocity": 102,
      "chip": "ym2612"
    },
    {
      "channel": 1,
      "note": 100,
      "start": 7.8786,
      "duration": 0.0662,
      "velocity": 109,
      "chip": "ym2612"
    },
    {
      "channel": 3,
      "note": 71,
      "start": 7.8795,
      "duration": 0.1326,
      "velocity": 127,
      "chip": "ym2612"
    },
    {
      "channel": 4,
      "note": 66,
      "start": 7.8798,
      "duration": 0.1323,
      "velocity": 127,
      "chip": "ym2612"
    },
    {
      "channel": 1,
      "note": 100,
      "start": 7.9618,
      "duration": 0.083,
      "velocity": 109,
      "chip": "ym2612"
    },
    {
      "channel": 0,
      "note": 50,
      "start": 8.0618,
      "duration": 0.1162,
      "velocity": 102,
      "chip": "ym2612"
    },
    {
      "channel": 1,
      "note": 100,
      "start": 8.0622,
      "duration": 0.1659,
      "velocity": 109,
      "chip": "ym2612"
    },
    {
      "channel": 3,
      "note": 71,
      "start": 8.063,
      "duration": 0.1322,
      "velocity": 127,
      "chip": "ym2612"
    },
    {
      "channel": 4,
      "note": 66,
      "start": 8.0633,
      "duration": 0.1319,
      "velocity": 127,
      "chip": "ym2612"
    },
    {
      "channel": 0,
      "note": 50,
      "start": 8.2449,
      "duration": 0.1167,
      "velocity": 102,
      "chip": "ym2612"
    },
    {
      "channel": 3,
      "note": 71,
      "start": 8.2459,
      "duration": 0.1326,
      "velocity": 127,
      "chip": "ym2612"
    },
    {
      "channel": 4,
      "note": 66,
      "start": 8.2462,
      "duration": 0.1324,
      "velocity": 127,
      "chip": "ym2612"
    },
    {
      "channel": 0,
      "note": 50,
      "start": 8.4282,
      "duration": 0.1165,
      "velocity": 102,
      "chip": "ym2612"
    },
    {
      "channel": 1,
      "note": 100,
      "start": 8.4286,
      "duration": 0.1662,
      "velocity": 109,
      "chip": "ym2612"
    },
    {
      "channel": 3,
      "note": 69,
      "start": 8.4293,
      "duration": 0.1328,
      "velocity": 127,
      "chip": "ym2612"
    },
    {
      "channel": 4,
      "note": 64,
      "start": 8.4297,
      "duration": 0.1324,
      "velocity": 127,
      "chip": "ym2612"
    },
    {
      "channel": 0,
      "note": 50,
      "start": 8.6119,
      "duration": 0.1161,
      "velocity": 102,
      "chip": "ym2612"
    },
    {
      "channel": 1,
      "note": 100,
      "start": 8.6122,
      "duration": 0.1659,
      "velocity": 109,
      "chip": "ym2612"
    },
    {
      "channel": 3,
      "note": 69,
      "start": 8.6129,
      "duration": 0.1323,
      "velocity": 127,
      "chip": "ym2612"
    },
    {
      "channel": 4,
      "note": 64,
      "start": 8.6132,
      "duration": 0.1321,
      "velocity": 127,
      "chip": "ym2612"
    },
    {
      "channel": 0,
      "note": 52,
      "start": 8.7949,
      "duration": 0.1167,
      "velocity": 102,
      "chip": "ym2612"
    },
    {
      "channel": 1,
      "note": 100,
      "start": 8.7952,
      "duration": 0.1665,
      "velocity": 109,
      "chip": "ym2612"
    },
    {
      "channel": 2,
      "note": 40,
      "start": 8.7955,
      "duration": 2.9333,
      "velocity": 124,
      "chip": "ym2612"
    },
    {
      "channel": 3,
      "note": 71,
      "start": 8.7964,
      "duration": 0.1321,
      "velocity": 127,
      "chip": "ym2612"
    },
    {
      "channel": 4,
      "note": 66,
      "start": 8.7968,
      "duration": 0.1317,
      "velocity": 127,
      "chip": "ym2612"
    },
    {
      "channel": 0,
      "note": 52,
      "start": 8.9782,
      "duration": 0.1165,
      "velocity": 102,
      "chip": "ym2612"
    },
    {
      "channel": 1,
      "note": 100,
      "start": 8.9786,
      "duration": 0.0662,
      "velocity": 109,
      "chip": "ym2612"
    },
    {
      "channel": 3,
      "note": 71,
      "start": 8.9793,
      "duration": 0.1327,
      "velocity": 127,
      "chip": "ym2612"
    },
    {
      "channel": 4,
      "note": 66,
      "start": 8.9797,
      "duration": 0.1325,
      "velocity": 127,
      "chip": "ym2612"
    },
    {
      "channel": 1,
      "note": 100,
      "start": 9.0618,
      "duration": 0.083,
      "velocity": 109,
      "chip": "ym2612"
    },
    {
      "channel": 5,
      "note": 40,
      "start": 9.0628,
      "duration": 2.933,
      "velocity": 124,
      "chip": "ym2612"
    },
    {
      "channel": 0,
      "note": 52,
      "start": 9.1618,
      "duration": 0.1162,
      "velocity": 102,
      "chip": "ym2612"
    },
    {
      "channel": 1,
      "note": 100,
      "start": 9.1622,
      "duration": 0.1659,
      "velocity": 109,
      "chip": "ym2612"
    },
    {
      "channel": 3,
      "note": 71,
      "start": 9.1632,
      "duration": 0.132,
      "velocity": 127,
      "chip": "ym2612"
    },
    {
      "channel": 4,
      "note": 66,
      "start": 9.1635,
      "duration": 0.1318,
      "velocity": 127,
      "chip": "ym2612"
    },
    {
      "channel": 0,
      "note": 52,
      "start": 9.3449,
      "duration": 0.1167,
      "velocity": 102,
      "chip": "ym2612"
    },
    {
      "channel": 1,
      "note": 100,
      "start": 9.3452,
      "duration": 0.1664,
      "velocity": 109,
      "chip": "ym2612"
    },
    {
      "channel": 3,
      "note": 71,
      "start": 9.3462,
      "duration": 0.1323,
      "velocity": 127,
      "chip": "ym2612"
    },
    {
      "channel": 4,
      "note": 66,
      "start": 9.3466,
      "duration": 0.132,
      "velocity": 127,
      "chip": "ym2612"
    },
    {
      "channel": 0,
      "note": 52,
      "start": 9.5283,
      "duration": 0.1164,
      "velocity": 102,
      "chip": "ym2612"
    },
    {
      "channel": 3,
      "note": 71,
      "start": 9.5292,
      "duration": 0.1328,
      "velocity": 127,
      "chip": "ym2612"
    },
    {
      "channel": 4,
      "note": 66,
      "start": 9.5295,
      "duration": 0.1326,
      "velocity": 127,
      "chip": "ym2612"
    },
    {
      "channel": 0,
      "note": 52,
      "start": 9.7118,
      "duration": 0.1162,
      "velocity": 102,
      "chip": "ym2612"
    },
    {
      "channel": 1,
      "note": 100,
      "start": 9.7122,
      "duration": 0.0659,
      "velocity": 109,
      "chip": "ym2612"
    },
    {
      "channel": 3,
      "note": 71,
      "start": 9.713,
      "duration": 0.1322,
      "velocity": 127,
      "chip": "ym2612"
    },
    {
      "channel": 4,
      "note": 66,
      "start": 9.7133,
      "duration": 0.1319,
      "velocity": 127,
      "chip": "ym2612"
    },
    {
      "channel": 1,
      "note": 100,
      "start": 9.7949,
      "duration": 0.0832,
      "velocity": 109,
      "chip": "ym2612"
    },
    {
      "channel": 0,
      "note": 52,
      "start": 9.8949,
      "duration": 0.1167,
      "velocity": 102,
      "chip": "ym2612"
    },
    {
      "channel": 1,
      "note": 100,
      "start": 9.8952,
      "duration": 0.1664,
      "velocity": 109,
      "chip": "ym2612"
    },
    {
      "channel": 3,
      "note": 69,
      "start": 9.896,
      "duration": 0.1324,
      "velocity": 127,
      "chip": "ym2612"
    },
    {
      "channel": 4,
      "note": 64,
      "start": 9.8964,
      "duration": 0.1321,
      "velocity": 127,
      "chip": "ym2612"
    },
    {
      "channel": 0,
      "note": 52,
      "start": 10.0783,
      "duration": 0.1164,
      "velocity": 102,
      "chip": "ym2612"
    },
    {
      "channel": 1,
      "note": 100,
      "start": 10.0786,
      "duration": 0.0662,
      "velocity": 109,
      "chip": "ym2612"
    },
    {
      "channel": 3,
      "note": 69,
      "start": 10.0792,
      "duration": 0.1328,
      "velocity": 127,
      "chip": "ym2612"
    },
    {
      "channel": 4,
      "note": 64,
      "start": 10.0796,
      "duration": 0.1326,
      "velocity": 127,
      "chip": "ym2612"
    },
    {
      "channel": 1,
      "note": 100,
      "start": 10.1618,
      "duration": 0.083,
      "velocity": 109,
      "chip": "ym2612"
    },
    {
      "channel": 0,
      "note": 52,
      "start": 10.2618,
      "duration": 0.1162,
      "velocity": 102,
      "chip": "ym2612"
    },
    {
      "channel": 1,
      "note": 100,
      "start": 10.2622,
      "duration": 0.1659,
      "velocity": 109,
      "chip": "ym2612"
    },
    {
      "channel": 3,
      "note": 69,
      "start": 10.263,
      "duration": 0.1322,
      "velocity": 127,
      "chip": "ym2612"
    },
    {
      "channel": 4,
      "note": 64,
      "start": 10.2634,
      "duration": 0.1319,
      "velocity": 127,
      "chip": "ym2612"
    },
    {
      "channel": 0,
      "note": 52,
      "start": 10.4449,
      "duration": 0.1167,
      "velocity": 102,
      "chip": "ym2612"
    },
    {
      "channel": 1,
      "note": 100,
      "start": 10.4452,
      "duration": 0.1664,
      "velocity": 109,
      "chip": "ym2612"
    },
    {
      "channel": 3,
      "note": 71,
      "start": 10.4461,
      "duration": 0.1324,
      "velocity": 127,
      "chip": "ym2612"
    },
    {
      "channel": 4,
      "note": 66,
      "start": 10.4464,
      "duration": 0.1322,
      "velocity": 127,
      "chip": "ym2612"
    },
    {
      "channel": 0,
      "note": 52,
      "start": 10.6283,
      "duration": 0.1164,
      "velocity": 102,
      "chip": "ym2612"
    },
    {
      "channel": 1,
      "note": 100,
      "start": 10.6286,
      "duration": 0.0662,
      "velocity": 109,
      "chip": "ym2612"
    },
    {
      "channel": 3,
      "note": 71,
      "start": 10.6295,
      "duration": 0.1326,
      "velocity": 127,
      "chip": "ym2612"
    },
    {
      "channel": 4,
      "note": 66,
      "start": 10.6299,
      "duration": 0.1322,
      "velocity": 127,
      "chip": "ym2612"
    },
    {
      "channel": 1,
      "note": 100,
      "start": 10.7118,
      "duration": 0.083,
      "velocity": 109,
      "chip": "ym2612"
    },
    {
      "channel": 0,
      "note": 52,
      "start": 10.8118,
      "duration": 0.1162,
      "velocity": 102,
      "chip": "ym2612"
    },
    {
      "channel": 1,
      "note": 100,
      "start": 10.8122,
      "duration": 0.166,
      "velocity": 109,
      "chip": "ym2612"
    },
    {
      "channel": 3,
      "note": 71,
      "start": 10.8131,
      "duration": 0.1321,
      "velocity": 127,
      "chip": "ym2612"
    },
    {
      "channel": 4,
      "note": 66,
      "start": 10.8134,
      "duration": 0.1319,
      "velocity": 127,
      "chip": "ym2612"
    },
    {
      "channel": 0,
      "note": 52,
      "start": 10.9949,
      "duration": 0.1167,
      "velocity": 102,
      "chip": "ym2612"
    },
    {
      "channel": 1,
      "note": 100,
      "start": 10.9952,
      "duration": 0.1664,
      "velocity": 109,
      "chip": "ym2612"
    },
    {
      "channel": 3,
      "note": 71,
      "start": 10.9961,
      "duration": 0.1324,
      "velocity": 127,
      "chip": "ym2612"
    },
    {
      "channel": 4,
      "note": 66,
      "start": 10.9964,
      "duration": 0.1321,
      "velocity": 127,
      "chip": "ym2612"
    },
    {
      "channel": 0,
      "note": 52,
      "start": 11.1782,
      "duration": 0.1165,
      "velocity": 102,
      "chip": "ym2612"
    },
    {
      "channel": 1,
      "note": 100,
      "start": 11.1784,
      "duration": 0.1663,
      "velocity": 109,
      "chip": "ym2612"
    },
    {
      "channel": 3,
      "note": 71,
      "start": 11.1793,
      "duration": 0.1328,
      "velocity": 127,
      "chip": "ym2612"
    },
    {
      "channel": 4,
      "note": 66,
      "start": 11.1797,
      "duration": 0.1325,
      "velocity": 127,
      "chip": "ym2612"
    },
    {
      "channel": 0,
      "note": 52,
      "start": 11.3618,
      "duration": 0.1162,
      "velocity": 102,
      "chip": "ym2612"
    },
    {
      "channel": 1,
      "note": 100,
      "start": 11.3622,
      "duration": 0.0659,
      "velocity": 109,
      "chip": "ym2612"
    },
    {
      "channel": 3,
      "note": 69,
      "start": 11.3629,
      "duration": 0.1322,
      "velocity": 127,
      "chip": "ym2612"
    },
    {
      "channel": 4,
      "note": 64,
      "start": 11.3632,
      "duration": 0.1321,
      "velocity": 127,
      "chip": "ym2612"
    },
    {
      "channel": 1,
      "note": 100,
      "start": 11.4449,
      "duration": 0.0832,
      "velocity": 109,
      "chip": "ym2612"
    },
    {
      "channel": 0,
      "note": 52,
      "start": 11.545,
      "duration": 0.1166,
      "velocity": 102,
      "chip": "ym2612"
    },
    {
      "channel": 1,
      "note": 100,
      "start": 11.5452,
      "duration": 0.0664,
      "velocity": 109,
      "chip": "ym2612"
    },
    {
      "channel": 3,
      "note": 69,
      "start": 11.5459,
      "duration": 0.1326,
      "velocity": 127,
      "chip": "ym2612"
    },
    {
      "channel": 4,
      "note": 64,
      "start": 11.5463,
      "duration": 0.1323,
      "velocity": 127,
      "chip": "ym2612"
    },
    {
      "channel": 1,
      "note": 100,
      "start": 11.6283,
      "duration": 0.0834,
      "velocity": 109,
      "chip": "ym2612"
    },
    {
      "channel": 0,
      "note": 47,
      "start": 11.7283,
      "duration": 0.1164,
      "velocity": 102,
      "chip": "ym2612"
    },
    {
      "channel": 1,
      "note": 100,
      "start": 11.7286,
      "duration": 0.1661,
      "velocity": 109,
      "chip": "ym2612"
    },
    {
      "channel": 2,
      "note": 47,
      "start": 11.7289,
      "duration": 2.9334,
      "velocity": 124,
      "chip": "ym2612"
    },
    {
      "channel": 3,
      "note": 71,
      "start": 11.7299,
      "duration": 0.1322,
      "velocity": 127,
      "chip": "ym2612"
    },
    {
      "channel": 4,
      "note": 66,
      "start": 11.7303,
      "duration": 0.1319,
      "velocity": 127,
      "chip": "ym2612"
    },
    {
      "channel": 0,
      "note": 47,
      "start": 11.9118,
      "duration": 0.1162,
      "velocity": 102,
      "chip": "ym2612"
    },
    {
      "channel": 1,
      "note": 100,
      "start": 11.9122,
      "duration": 0.0659,
      "velocity": 109,
      "chip": "ym2612"
    },
    {
      "channel": 3,
      "note": 71,
      "start": 11.9129,
      "duration": 0.1322,
      "velocity": 127,
      "chip": "ym2612"
    },
    {
      "channel": 4,
      "note": 66,
      "start": 11.9132,
      "duration": 0.1321,
      "velocity": 127,
      "chip": "ym2612"
    },
    {
      "channel": 1,
      "note": 100,
      "start": 11.9949,
      "duration": 0.0832,
      "velocity": 109,
      "chip": "ym2612"
    },
    {
      "channel": 5,
      "note": 47,
      "start": 11.9959,
      "duration": 2.9332,
      "velocity": 124,
      "chip": "ym2612"
    },
    {
      "channel": 0,
      "note": 47,
      "start": 12.0949,
      "duration": 0.1167,
      "velocity": 102,
      "chip": "ym2612"
    },
    {
      "channel": 1,
      "note": 100,
      "start": 12.0952,
      "duration": 0.1664,
      "velocity": 109,
      "chip": "ym2612"
    },
    {
      "channel": 3,
      "note": 71,
      "start": 12.0964,
      "duration": 0.1321,
      "velocity": 127,
      "chip": "ym2612"
    },
    {
      "channel": 4,
      "note": 66,
      "start": 12.0967,
      "duration": 0.1319,
      "velocity": 127,
      "chip": "ym2612"
    },
    {
      "channel": 0,
      "note": 47,
      "start": 12.2783,
      "duration": 0.1164,
      "velocity": 102,
      "chip": "ym2612"
    },
    {
      "channel": 1,
      "note": 100,
      "start": 12.2786,
      "duration": 0.1662,
      "velocity": 109,
      "chip": "ym2612"
    },
    {
      "channel": 3,
      "note": 71,
      "start": 12.2795,
      "duration": 0.1326,
      "velocity": 127,
      "chip": "ym2612"
    },
    {
      "channel": 4,
      "note": 66,
      "start": 12.2799,
      "duration": 0.1322,
      "velocity": 127,
      "chip": "ym2612"
    },
    {
      "channel": 0,
      "note": 47,
      "start": 12.4618,
      "duration": 0.1162,
      "velocity": 102,
      "chip": "ym2612"
    },
    {
      "channel": 3,
      "note": 71,
      "start": 12.4627,
      "duration": 0.1324,
      "velocity": 127,
      "chip": "ym2612"
    },
    {
      "channel": 4,
      "note": 66,
      "start": 12.4631,
      "duration": 0.1321,
      "velocity": 127,
      "chip": "ym2612"
    },
    {
      "channel": 0,
      "note": 47,
      "start": 12.6449,
      "duration": 0.1167,
      "velocity": 102,
      "chip": "ym2612"
    },
    {
      "channel": 1,
      "note": 100,
      "start": 12.6451,
      "duration": 0.1666,
      "velocity": 109,
      "chip": "ym2612"
    },
    {
      "channel": 3,
      "note": 71,
      "start": 12.6459,
      "duration": 0.1326,
      "velocity": 127,
      "chip": "ym2612"
    },
    {
      "channel": 4,
      "note": 66,
      "start": 12.6463,
      "duration": 0.1322,
      "velocity": 127,
      "chip": "ym2612"
    },
    {
      "channel": 0,
      "note": 47,
      "start": 12.8283,
      "duration": 0.1164,
      "velocity": 102,
      "chip": "ym2612"
    },
    {
      "channel": 3,
      "note": 69,
      "start": 12.8291,
      "duration": 0.1329,
      "velocity": 127,
      "chip": "ym2612"
    },
    {
      "channel": 4,
      "note": 64,
      "start": 12.8295,
      "duration": 0.1326,
      "velocity": 127,
      "chip": "ym2612"
    },
    {
      "channel": 0,
      "note": 47,
      "start": 13.0118,
      "duration": 0.1162,
      "velocity": 102,
      "chip": "ym2612"
    },
    {
      "channel": 1,
      "note": 100,
      "start": 13.0122,
      "duration": 0.0659,
      "velocity": 109,
      "chip": "ym2612"
    },
    {
      "channel": 3,
      "note": 69,
      "start": 13.0128,
      "duration": 0.1324,
      "velocity": 127,
      "chip": "ym2612"
    },
    {
      "channel": 4,
      "note": 64,
      "start": 13.0132,
      "duration": 0.1321,
      "velocity": 127,
      "chip": "ym2612"
    },
    {
      "channel": 1,
      "note": 100,
      "start": 13.0949,
      "duration": 0.0832,
      "velocity": 109,
      "chip": "ym2612"
    },
    {
      "channel": 0,
      "note": 47,
      "start": 13.1949,
      "duration": 0.1167,
      "velocity": 102,
      "chip": "ym2612"
    },
    {
      "channel": 1,
      "note": 100,
      "start": 13.1952,
      "duration": 0.1664,
      "velocity": 109,
      "chip": "ym2612"
    },
    {
      "channel": 3,
      "note": 69,
      "start": 13.1961,
      "duration": 0.1324,
      "velocity": 127,
      "chip": "ym2612"
    },
    {
      "channel": 4,
      "note": 64,
      "start": 13.1964,
      "duration": 0.1321,
      "velocity": 127,
      "chip": "ym2612"
    },
    {
      "channel": 0,
      "note": 47,
      "start": 13.3783,
      "duration": 0.1164,
      "velocity": 102,
      "chip": "ym2612"
    },
    {
      "channel": 1,
      "note": 100,
      "start": 13.3786,
      "duration": 0.1662,
      "velocity": 109,
      "chip": "ym2612"
    },
    {
      "channel": 3,
      "note": 71,
      "start": 13.3793,
      "duration": 0.1327,
      "velocity": 127,
      "chip": "ym2612"
    },
    {
      "channel": 4,
      "note": 66,
      "start": 13.3797,
      "duration": 0.1324,
      "velocity": 127,
      "chip": "ym2612"
    },
    {
      "channel": 0,
      "note": 47,
      "start": 13.5618,
      "duration": 0.1162,
      "velocity": 102,
      "chip": "ym2612"
    },
    {
      "channel": 1,
      "note": 100,
      "start": 13.562,
      "duration": 0.166,
      "velocity": 109,
      "chip": "ym2612"
    },
    {
      "channel": 3,
      "note": 71,
      "start": 13.563,
      "duration": 0.1322,
      "velocity": 127,
      "chip": "ym2612"
    },
    {
      "channel": 4,
      "note": 66,
      "start": 13.5634,
      "duration": 0.1319,
      "velocity": 127,
      "chip": "ym2612"
    },
    {
      "channel": 0,
      "note": 47,
      "start": 13.7449,
      "duration": 0.1167,
      "velocity": 102,
      "chip": "ym2612"
    },
    {
      "channel": 1,
      "note": 100,
      "start": 13.7452,
      "duration": 0.0664,
      "velocity": 109,
      "chip": "ym2612"
    },
    {
      "channel": 3,
      "note": 71,
      "start": 13.7461,
      "duration": 0.1324,
      "velocity": 127,
      "chip": "ym2612"
    },
    {
      "channel": 4,
      "note": 66,
      "start": 13.7465,
      "duration": 0.1321,
      "velocity": 127,
      "chip": "ym2612"
    },
    {
      "channel": 1,
      "note": 100,
      "start": 13.8282,
      "duration": 0.0835,
      "velocity": 109,
      "chip": "ym2612"
    },
    {
      "channel": 0,
      "note": 47,
      "start": 13.9283,
      "duration": 0.1164,
      "velocity": 102,
      "chip": "ym2612"
    },
    {
      "channel": 1,
      "note": 100,
      "start": 13.9286,
      "duration": 0.1662,
      "velocity": 109,
      "chip": "ym2612"
    },
    {
      "channel": 3,
      "note": 71,
      "start": 13.9294,
      "duration": 0.1326,
      "velocity": 127,
      "chip": "ym2612"
    },
    {
      "channel": 4,
      "note": 66,
      "start": 13.9297,
      "duration": 0.1324,
      "velocity": 127,
      "chip": "ym2612"
    },
    {
      "channel": 0,
      "note": 47,
      "start": 14.1118,
      "duration": 0.1162,
      "velocity": 102,
      "chip": "ym2612"
    },
    {
      "channel": 3,
      "note": 71,
      "start": 14.1127,
      "duration": 0.1324,
      "velocity": 127,
      "chip": "ym2612"
    },
    {
      "channel": 4,
      "note": 66,
      "start": 14.1131,
      "duration": 0.1321,
      "velocity": 127,
      "chip": "ym2612"
    },
    {
      "channel": 0,
      "note": 47,
      "start": 14.2949,
      "duration": 0.1167,
      "velocity": 102,
      "chip": "ym2612"
    },
    {
      "channel": 1,
      "note": 100,
      "start": 14.2952,
      "duration": 0.1664,
      "velocity": 109,
      "chip": "ym2612"
    },
    {
      "channel": 3,
      "note": 69,
      "start": 14.2959,
      "duration": 0.1325,
      "velocity": 127,
      "chip": "ym2612"
    },
    {
      "channel": 4,
      "note": 64,
      "start": 14.2963,
      "duration": 0.1322,
      "velocity": 127,
      "chip": "ym2612"
    },
    {
      "channel": 0,
      "note": 47,
      "start": 14.4783,
      "duration": 0.1163,
      "velocity": 102,
      "chip": "ym2612"
    },
    {
      "channel": 1,
      "note": 100,
      "start": 14.4786,
      "duration": 0.1662,
      "velocity": 109,
      "chip": "ym2612"
    },
    {
      "channel": 3,
      "note": 69,
      "start": 14.4793,
      "duration": 0.1328,
      "velocity": 127,
      "chip": "ym2612"
    },
    {
      "channel": 4,
      "note": 64,
      "start": 14.4796,
      "duration": 0.1326,
      "velocity": 127,
      "chip": "ym2612"
    },
    {
      "channel": 0,
      "note": 49,
      "start": 14.6618,
      "duration": 0.1162,
      "velocity": 102,
      "chip": "ym2612"
    },
    {
      "channel": 1,
      "note": 100,
      "start": 14.6621,
      "duration": 0.166,
      "velocity": 109,
      "chip": "ym2612"
    },
    {
      "channel": 2,
      "note": 49,
      "start": 14.6624,
      "duration": 2.9331,
      "velocity": 124,
      "chip": "ym2612"
    },
    {
      "channel": 3,
      "note": 71,
      "start": 14.6633,
      "duration": 0.1319,
      "velocity": 127,
      "chip": "ym2612"
    },
    {
      "channel": 4,
      "note": 66,
      "start": 14.6637,
      "duration": 0.1316,
      "velocity": 127,
      "chip": "ym2612"
    },
    {
      "channel": 0,
      "note": 49,
      "start": 14.8449,
      "duration": 0.1167,
      "velocity": 102,
      "chip": "ym2612"
    },
    {
      "channel": 1,
      "note": 100,
      "start": 14.8452,
      "duration": 0.0664,
      "velocity": 109,
      "chip": "ym2612"
    },
    {
      "channel": 3,
      "note": 71,
      "start": 14.846,
      "duration": 0.1325,
      "velocity": 127,
      "chip": "ym2612"
    },
    {
      "channel": 4,
      "note": 66,
      "start": 14.8464,
      "duration": 0.1322,
      "velocity": 127,
      "chip": "ym2612"
    },
    {
      "channel": 1,
      "note": 100,
      "start": 14.9282,
      "duration": 0.0835,
      "velocity": 109,
      "chip": "ym2612"
    },
    {
      "channel": 5,
      "note": 49,
      "start": 14.9292,
      "duration": 2.9335,
      "velocity": 124,
      "chip": "ym2612"
    },
    {
      "channel": 0,
      "note": 49,
      "start": 15.0283,
      "duration": 0.1164,
      "velocity": 102,
      "chip": "ym2612"
    },
    {
      "channel": 1,
      "note": 100,
      "start": 15.0286,
      "duration": 0.1662,
      "velocity": 109,
      "chip": "ym2612"
    },
    {
      "channel": 3,
      "note": 71,
      "start": 15.0296,
      "duration": 0.1325,
      "velocity": 127,
      "chip": "ym2612"
    },
    {
      "channel": 4,
      "note": 66,
      "start": 15.03,
      "duration": 0.1322,
      "velocity": 127,
      "chip": "ym2612"
    },
    {
      "channel": 0,
      "note": 49,
      "start": 15.2118,
      "duration": 0.1162,
      "velocity": 102,
      "chip": "ym2612"
    },
    {
      "channel": 1,
      "note": 100,
      "start": 15.2122,
      "duration": 0.1659,
      "velocity": 109,
      "chip": "ym2612"
    },
    {
      "channel": 3,
      "note": 71,
      "start": 15.2131,
      "duration": 0.1321,
      "velocity": 127,
      "chip": "ym2612"
    },
    {
      "channel": 4,
      "note": 66,
      "start": 15.2135,
      "duration": 0.1317,
      "velocity": 127,
      "chip": "ym2612"
    },
    {
      "channel": 0,
      "note": 49,
      "start": 15.3949,
      "duration": 0.1167,
      "velocity": 102,
      "chip": "ym2612"
    },
    {
      "channel": 3,
      "note": 71,
      "start": 15.3959,
      "duration": 0.1326,
      "velocity": 127,
      "chip": "ym2612"
    },
    {
      "channel": 4,
      "note": 66,
      "start": 15.3962,
      "duration": 0.1324,
      "velocity": 127,
      "chip": "ym2612"
    },
    {
      "channel": 0,
      "note": 49,
      "start": 15.5783,
      "duration": 0.1164,
      "velocity": 102,
      "chip": "ym2612"
    },
    {
      "channel": 1,
      "note": 100,
      "start": 15.5786,
      "duration": 0.0662,
      "velocity": 109,
      "chip": "ym2612"
    },
    {
      "channel": 3,
      "note": 71,
      "start": 15.5794,
      "duration": 0.1326,
      "velocity": 127,
      "chip": "ym2612"
    },
    {
      "channel": 4,
      "note": 66,
      "start": 15.5797,
      "duration": 0.1324,
      "velocity": 127,
      "chip": "ym2612"
    },
    {
      "channel": 1,
      "note": 100,
      "start": 15.6618,
      "duration": 0.083,
      "velocity": 109,
      "chip": "ym2612"
    },
    {
      "channel": 0,
      "note": 49,
      "start": 15.7618,
      "duration": 0.1162,
      "velocity": 102,
      "chip": "ym2612"
    },
    {
      "channel": 1,
      "note": 100,
      "start": 15.7622,
      "duration": 0.1659,
      "velocity": 109,
      "chip": "ym2612"
    },
    {
      "channel": 3,
      "note": 69,
      "start": 15.7629,
      "duration": 0.1322,
      "velocity": 127,
      "chip": "ym2612"
    },
    {
      "channel": 4,
      "note": 64,
      "start": 15.7633,
      "duration": 0.1319,
      "velocity": 127,
      "chip": "ym2612"
    },
    {
      "channel": 0,
      "note": 49,
      "start": 15.9449,
      "duration": 0.1167,
      "velocity": 102,
      "chip": "ym2612"
    },
    {
      "channel": 1,
      "note": 100,
      "start": 15.9452,
      "duration": 0.0664,
      "velocity": 109,
      "chip": "ym2612"
    },
    {
      "channel": 3,
      "note": 69,
      "start": 15.9459,
      "duration": 0.1326,
      "velocity": 127,
      "chip": "ym2612"
    },
    {
      "channel": 4,
      "note": 64,
      "start": 15.9463,
      "duration": 0.1323,
      "velocity": 127,
      "chip": "ym2612"
    },
    {
      "channel": 1,
      "note": 100,
      "start": 16.0282,
      "duration": 0.0835,
      "velocity": 109,
      "chip": "ym2612"
    },
    {
      "channel": 0,
      "note": 49,
      "start": 16.1283,
      "duration": 0.1164,
      "velocity": 102,
      "chip": "ym2612"
    },
    {
      "channel": 1,
      "note": 100,
      "start": 16.1286,
      "duration": 0.1662,
      "velocity": 109,
      "chip": "ym2612"
    },
    {
      "channel": 3,
      "note": 69,
      "start": 16.1295,
      "duration": 0.1326,
      "velocity": 127,
      "chip": "ym2612"
    },
    {
      "channel": 4,
      "note": 64,
      "start": 16.1298,
      "duration": 0.1324,
      "velocity": 127,
      "chip": "ym2612"
    },
    {
      "channel": 0,
      "note": 49,
      "start": 16.3118,
      "duration": 0.1162,
      "velocity": 102,
      "chip": "ym2612"
    },
    {
      "channel": 1,
      "note": 100,
      "start": 16.3122,
      "duration": 0.1659,
      "velocity": 109,
      "chip": "ym2612"
    },
    {
      "channel": 3,
      "note": 71,
      "start": 16.313,
      "duration": 0.1322,
      "velocity": 127,
      "chip": "ym2612"
    },
    {
      "channel": 4,
      "note": 66,
      "start": 16.3133,
      "duration": 0.132,
      "velocity": 127,
      "chip": "ym2612"
    },
    {
      "channel": 0,
      "note": 49,
      "start": 16.4949,
      "duration": 0.1167,
      "velocity": 102,
      "chip": "ym2612"
    },
    {
      "channel": 1,
      "note": 100,
      "start": 16.4952,
      "duration": 0.0664,
      "velocity": 109,
      "chip": "ym2612"
    },
    {
      "channel": 3,
      "note": 71,
      "start": 16.4962,
      "duration": 0.1323,
      "velocity": 127,
      "chip": "ym2612"
    },
    {
      "channel": 4,
      "note": 66,
      "start": 16.4965,
      "duration": 0.1321,
      "velocity": 127,
      "chip": "ym2612"
    },
    {
      "channel": 1,
      "note": 100,
      "start": 16.5782,
      "duration": 0.0835,
      "velocity": 109,
      "chip": "ym2612"
    },
    {
      "channel": 0,
      "note": 49,
      "start": 16.6783,
      "duration": 0.1164,
      "velocity": 102,
      "chip": "ym2612"
    },
    {
      "channel": 1,
      "note": 100,
      "start": 16.6786,
      "duration": 0.1662,
      "velocity": 109,
      "chip": "ym2612"
    },
    {
      "channel": 3,
      "note": 71,
      "start": 16.6795,
      "duration": 0.1326,
      "velocity": 127,
      "chip": "ym2612"
    },
    {
      "channel": 4,
      "note": 66,
      "start": 16.6798,
      "duration": 0.1323,
      "velocity": 127,
      "chip": "ym2612"
    },
    {
      "channel": 0,
      "note": 49,
      "start": 16.8618,
      "duration": 0.1162,
      "velocity": 102,
      "chip": "ym2612"
    },
    {
      "channel": 1,
      "note": 100,
      "start": 16.8622,
      "duration": 0.1659,
      "velocity": 109,
      "chip": "ym2612"
    },
    {
      "channel": 3,
      "note": 71,
      "start": 16.863,
      "duration": 0.1322,
      "velocity": 127,
      "chip": "ym2612"
    },
    {
      "channel": 4,
      "note": 66,
      "start": 16.8633,
      "duration": 0.132,
      "velocity": 127,
      "chip": "ym2612"
    },
    {
      "channel": 0,
      "note": 49,
      "start": 17.0449,
      "duration": 0.1167,
      "velocity": 102,
      "chip": "ym2612"
    },
    {
      "channel": 1,
      "note": 100,
      "start": 17.0451,
      "duration": 0.1666,
      "velocity": 109,
      "chip": "ym2612"
    },
    {
      "channel": 3,
      "note": 71,
      "start": 17.0459,
      "duration": 0.1326,
      "velocity": 127,
      "chip": "ym2612"
    },
    {
      "channel": 4,
      "note": 66,
      "start": 17.0463,
      "duration": 0.1322,
      "velocity": 127,
      "chip": "ym2612"
    },
    {
      "channel": 0,
      "note": 49,
      "start": 17.2283,
      "duration": 0.1164,
      "velocity": 102,
      "chip": "ym2612"
    },
    {
      "channel": 1,
      "note": 100,
      "start": 17.2286,
      "duration": 0.0662,
      "velocity": 109,
      "chip": "ym2612"
    },
    {
      "channel": 3,
      "note": 69,
      "start": 17.2293,
      "duration": 0.1328,
      "velocity": 127,
      "chip": "ym2612"
    },
    {
      "channel": 4,
      "note": 64,
      "start": 17.2297,
      "duration": 0.1324,
      "velocity": 127,
      "chip": "ym2612"
    },
    {
      "channel": 1,
      "note": 100,
      "start": 17.3118,
      "duration": 0.0829,
      "velocity": 109,
      "chip": "ym2612"
    },
    {
      "channel": 0,
      "note": 49,
      "start": 17.4119,
      "duration": 0.1161,
      "velocity": 102,
      "chip": "ym2612"
    },
    {
      "channel": 1,
      "note": 100,
      "start": 17.4122,
      "duration": 0.0659,
      "velocity": 109,
      "chip": "ym2612"
    },
    {
      "channel": 3,
      "note": 69,
      "start": 17.4129,
      "duration": 0.1323,
      "velocity": 127,
      "chip": "ym2612"
    },
    {
      "channel": 4,
      "note": 64,
      "start": 17.4132,
      "duration": 0.1321,
      "velocity": 127,
      "chip": "ym2612"
    },
    {
      "channel": 1,
      "note": 100,
      "start": 17.4949,
      "duration": 0.0832,
      "velocity": 109,
      "chip": "ym2612"
    },
    {
      "channel": 0,
      "note": 50,
      "start": 17.5949,
      "duration": 0.1167,
      "velocity": 102,
      "chip": "ym2612"
    },
    {
      "channel": 1,
      "note": 100,
      "start": 17.5952,
      "duration": 0.1664,
      "velocity": 109,
      "chip": "ym2612"
    },
    {
      "channel": 2,
      "note": 50,
      "start": 17.5956,
      "duration": 2.9332,
      "velocity": 124,
      "chip": "ym2612"
    },
    {
      "channel": 3,
      "note": 71,
      "start": 17.5965,
      "duration": 0.132,
      "velocity": 127,
      "chip": "ym2612"
    },
    {
      "channel": 4,
      "note": 66,
      "start": 17.5969,
      "duration": 0.1317,
      "velocity": 127,
      "chip": "ym2612"
    },
    {
      "channel": 0,
      "note": 50,
      "start": 17.7783,
      "duration": 0.1164,
      "velocity": 102,
      "chip": "ym2612"
    },
    {
      "channel": 1,
      "note": 100,
      "start": 17.7786,
      "duration": 0.0662,
      "velocity": 109,
      "chip": "ym2612"
    },
    {
      "channel": 3,
      "note": 71,
      "start": 17.7793,
      "duration": 0.1327,
      "velocity": 127,
      "chip": "ym2612"
    },
    {
      "channel": 4,
      "note": 66,
      "start": 17.7797,
      "duration": 0.1324,
      "velocity": 127,
      "chip": "ym2612"
    },
    {
      "channel": 1,
      "note": 100,
      "start": 17.8618,
      "duration": 0.083,
      "velocity": 109,
      "chip": "ym2612"
    },
    {
      "channel": 5,
      "note": 50,
      "start": 17.8628,
      "duration": 2.933,
      "velocity": 124,
      "chip": "ym2612"
    },
    {
      "channel": 0,
      "note": 50,
      "start": 17.9618,
      "duration": 0.1162,
      "velocity": 102,
      "chip": "ym2612"
    },
    {
      "channel": 1,
      "note": 100,
      "start": 17.9622,
      "duration": 0.1659,
      "velocity": 109,
      "chip": "ym2612"
    },
    {
      "channel": 3,
      "note": 71,
      "start": 17.9632,
      "duration": 0.132,
      "velocity": 127,
      "chip": "ym2612"
    },
    {
      "channel": 4,
      "note": 66,
      "start": 17.9635,
      "duration": 0.1318,
      "velocity": 127,
      "chip": "ym2612"
    },
    {
      "channel": 0,
      "note": 50,
      "start": 18.1449,
      "duration": 0.1167,
      "velocity": 102,
      "chip": "ym2612"
    },
    {
      "channel": 1,
      "note": 100,
      "start": 18.1452,
      "duration": 0.1664,
      "velocity": 109,
      "chip": "ym2612"
    },
    {
      "channel": 3,
      "note": 71,
      "start": 18.1462,
      "duration": 0.1323,
      "velocity": 127,
      "chip": "ym2612"
    },
    {
      "channel": 4,
      "note": 66,
      "start": 18.1466,
      "duration": 0.132,
      "velocity": 127,
      "chip": "ym2612"
    },
    {
      "channel": 0,
      "note": 50,
      "start": 18.3283,
      "duration": 0.1164,
      "velocity": 102,
      "chip": "ym2612"
    },
    {
      "channel": 3,
      "note": 71,
      "start": 18.3292,
      "duration": 0.1328,
      "velocity": 127,
      "chip": "ym2612"
    },
    {
      "channel": 4,
      "note": 66,
      "start": 18.3295,
      "duration": 0.1326,
      "velocity": 127,
      "chip": "ym2612"
    },
    {
      "channel": 0,
      "note": 50,
      "start": 18.5118,
      "duration": 0.1162,
      "velocity": 102,
      "chip": "ym2612"
    },
    {
      "channel": 1,
      "note": 100,
      "start": 18.512,
      "duration": 0.166,
      "velocity": 109,
      "chip": "ym2612"
    },
    {
      "channel": 3,
      "note": 71,
      "start": 18.5129,
      "duration": 0.1323,
      "velocity": 127,
      "chip": "ym2612"
    },
    {
      "channel": 4,
      "note": 66,
      "start": 18.5132,
      "duration": 0.1321,
      "velocity": 127,
      "chip": "ym2612"
    },
    {
      "channel": 0,
      "note": 50,
      "start": 18.6949,
      "duration": 0.1167,
      "velocity": 102,
      "chip": "ym2612"
    },
    {
      "channel": 3,
      "note": 69,
      "start": 18.6958,
      "duration": 0.1326,
      "velocity": 127,
      "chip": "ym2612"
    },
    {
      "channel": 4,
      "note": 64,
      "start": 18.6961,
      "duration": 0.1324,
      "velocity": 127,
      "chip": "ym2612"
    },
    {
      "channel": 0,
      "note": 50,
      "start": 18.8782,
      "duration": 0.1165,
      "velocity": 102,
      "chip": "ym2612"
    },
    {
      "channel": 1,
      "note": 100,
      "start": 18.8786,
      "duration": 0.0662,
      "velocity": 109,
      "chip": "ym2612"
    },
    {
      "channel": 3,
      "note": 69,
      "start": 18.8792,
      "duration": 0.1328,
      "velocity": 127,
      "chip": "ym2612"
    },
    {
      "channel": 4,
      "note": 64,
      "start": 18.8796,
      "duration": 0.1326,
      "velocity": 127,
      "chip": "ym2612"
    },
    {
      "channel": 1,
      "note": 100,
      "start": 18.9618,
      "duration": 0.083,
      "velocity": 109,
      "chip": "ym2612"
    },
    {
      "channel": 0,
      "note": 50,
      "start": 19.0618,
      "duration": 0.1162,
      "velocity": 102,
      "chip": "ym2612"
    },
    {
      "channel": 1,
      "note": 100,
      "start": 19.0622,
      "duration": 0.1659,
      "velocity": 109,
      "chip": "ym2612"
    },
    {
      "channel": 3,
      "note": 69,
      "start": 19.063,
      "duration": 0.1322,
      "velocity": 127,
      "chip": "ym2612"
    },
    {
      "channel": 4,
      "note": 64,
      "start": 19.0634,
      "duration": 0.1319,
      "velocity": 127,
      "chip": "ym2612"
    },
    {
      "channel": 0,
      "note": 50,
      "start": 19.2449,
      "duration": 0.1167,
      "velocity": 102,
      "chip": "ym2612"
    },
    {
      "channel": 1,
      "note": 100,
      "start": 19.2452,
      "duration": 0.1664,
      "velocity": 109,
      "chip": "ym2612"
    },
    {
      "channel": 3,
      "note": 71,
      "start": 19.246,
      "duration": 0.1325,
      "velocity": 127,
      "chip": "ym2612"
    },
    {
      "channel": 4,
      "note": 66,
      "start": 19.2464,
      "duration": 0.1322,
      "velocity": 127,
      "chip": "ym2612"
    },
    {
      "channel": 0,
      "note": 50,
      "start": 19.4283,
      "duration": 0.1164,
      "velocity": 102,
      "chip": "ym2612"
    },
    {
      "channel": 1,
      "note": 100,
      "start": 19.4284,
      "duration": 0.1663,
      "velocity": 109,
      "chip": "ym2612"
    },
    {
      "channel": 3,
      "note": 71,
      "start": 19.4295,
      "duration": 0.1326,
      "velocity": 127,
      "chip": "ym2612"
    },
    {
      "channel": 4,
      "note": 66,
      "start": 19.4298,
      "duration": 0.1324,
      "velocity": 127,
      "chip": "ym2612"
    },
    {
      "channel": 0,
      "note": 50,
      "start": 19.6118,
      "duration": 0.1162,
      "velocity": 102,
      "chip": "ym2612"
    },
    {
      "channel": 1,
      "note": 100,
      "start": 19.6122,
      "duration": 0.0659,
      "velocity": 109,
      "chip": "ym2612"
    },
    {
      "channel": 3,
      "note": 71,
      "start": 19.6131,
      "duration": 0.1321,
      "velocity": 127,
      "chip": "ym2612"
    },
    {
      "channel": 4,
      "note": 66,
      "start": 19.6134,
      "duration": 0.1319,
      "velocity": 127,
      "chip": "ym2612"
    },
    {
      "channel": 1,
      "note": 100,
      "start": 19.6949,
      "duration": 0.0832,
      "velocity": 109,
      "chip": "ym2612"
    },
    {
      "channel": 0,
      "note": 50,
      "start": 19.7949,
      "duration": 0.1167,
      "velocity": 102,
      "chip": "ym2612"
    },
    {
      "channel": 1,
      "note": 100,
      "start": 19.7952,
      "duration": 0.1664,
      "velocity": 109,
      "chip": "ym2612"
    },
    {
      "channel": 3,
      "note": 71,
      "start": 19.7961,
      "duration": 0.1324,
      "velocity": 127,
      "chip": "ym2612"
    },
    {
      "channel": 4,
      "note": 66,
      "start": 19.7964,
      "duration": 0.1322,
      "velocity": 127,
      "chip": "ym2612"
    },
    {
      "channel": 0,
      "note": 50,
      "start": 19.9783,
      "duration": 0.1164,
      "velocity": 102,
      "chip": "ym2612"
    },
    {
      "channel": 3,
      "note": 71,
      "start": 19.9792,
      "duration": 0.1328,
      "velocity": 127,
      "chip": "ym2612"
    },
    {
      "channel": 4,
      "note": 66,
      "start": 19.9795,
      "duration": 0.1326,
      "velocity": 127,
      "chip": "ym2612"
    },
    {
      "channel": 0,
      "note": 50,
      "start": 20.1618,
      "duration": 0.1162,
      "velocity": 102,
      "chip": "ym2612"
    },
    {
      "channel": 1,
      "note": 100,
      "start": 20.1622,
      "duration": 0.1659,
      "velocity": 109,
      "chip": "ym2612"
    },
    {
      "channel": 3,
      "note": 69,
      "start": 20.1629,
      "duration": 0.1322,
      "velocity": 127,
      "chip": "ym2612"
    },
    {
      "channel": 4,
      "note": 64,
      "start": 20.1632,
      "duration": 0.132,
      "velocity": 127,
      "chip": "ym2612"
    },
    {
      "channel": 0,
      "note": 50,
      "start": 20.345,
      "duration": 0.1166,
      "velocity": 102,
      "chip": "ym2612"
    },
    {
      "channel": 1,
      "note": 100,
      "start": 20.3452,
      "duration": 0.1664,
      "velocity": 109,
      "chip": "ym2612"
    },
    {
      "channel": 3,
      "note": 69,
      "start": 20.3459,
      "duration": 0.1326,
      "velocity": 127,
      "chip": "ym2612"
    },
    {
      "channel": 4,
      "note": 64,
      "start": 20.3463,
      "duration": 0.1323,
      "velocity": 127,
      "chip": "ym2612"
    },
    {
      "channel": 0,
      "note": 52,
      "start": 20.5283,
      "duration": 0.1164,
      "velocity": 102,
      "chip": "ym2612"
    },
    {
      "channel": 1,
      "note": 100,
      "start": 20.5285,
      "duration": 0.1662,
      "velocity": 109,
      "chip": "ym2612"
    },
    {
      "channel": 2,
      "note": 52,
      "start": 20.5288,
      "duration": 1.4494,
      "velocity": 124,
      "chip": "ym2612"
    },
    {
      "channel": 3,
      "note": 71,
      "start": 20.5297,
      "duration": 0.1324,
      "velocity": 127,
      "chip": "ym2612"
    },
    {
      "channel": 4,
      "note": 66,
      "start": 20.5302,
      "duration": 0.132,
      "velocity": 127,
      "chip": "ym2612"
    },
    {
      "channel": 0,
      "note": 52,
      "start": 20.7118,
      "duration": 0.1162,
      "velocity": 102,
      "chip": "ym2612"
    },
    {
      "channel": 1,
      "note": 100,
      "start": 20.7122,
      "duration": 0.0659,
      "velocity": 109,
      "chip": "ym2612"
    },
    {
      "channel": 3,
      "note": 71,
      "start": 20.7129,
      "duration": 0.1322,
      "velocity": 127,
      "chip": "ym2612"
    },
    {
      "channel": 4,
      "note": 66,
      "start": 20.7132,
      "duration": 0.1321,
      "velocity": 127,
      "chip": "ym2612"
    },
    {
      "channel": 1,
      "note": 100,
      "start": 20.7949,
      "duration": 0.0832,
      "velocity": 109,
      "chip": "ym2612"
    },
    {
      "channel": 5,
      "note": 52,
      "start": 20.7959,
      "duration": 1.4494,
      "velocity": 124,
      "chip": "ym2612"
    },
    {
      "channel": 0,
      "note": 52,
      "start": 20.8949,
      "duration": 0.1167,
      "velocity": 102,
      "chip": "ym2612"
    },
    {
      "channel": 1,
      "note": 100,
      "start": 20.8952,
      "duration": 0.1664,
      "velocity": 109,
      "chip": "ym2612"
    },
    {
      "channel": 3,
      "note": 71,
      "start": 20.8963,
      "duration": 0.1322,
      "velocity": 127,
      "chip": "ym2612"
    },
    {
      "channel": 4,
      "note": 66,
      "start": 20.8966,
      "duration": 0.132,
      "velocity": 127,
      "chip": "ym2612"
    },
    {
      "channel": 0,
      "note": 52,
      "start": 21.0783,
      "duration": 0.1164,
      "velocity": 102,
      "chip": "ym2612"
    },
    {
      "channel": 1,
      "note": 100,
      "start": 21.0786,
      "duration": 0.1662,
      "velocity": 109,
      "chip": "ym2612"
    },
    {
      "channel": 3,
      "note": 71,
      "start": 21.0795,
      "duration": 0.1326,
      "velocity": 127,
      "chip": "ym2612"
    },
    {
      "channel": 4,
      "note": 66,
      "start": 21.0799,
      "duration": 0.1322,
      "velocity": 127,
      "chip": "ym2612"
    },
    {
      "channel": 0,
      "note": 52,
      "start": 21.2618,
      "duration": 0.1162,
      "velocity": 102,
      "chip": "ym2612"
    },
    {
      "channel": 3,
      "note": 71,
      "start": 21.2627,
      "duration": 0.1324,
      "velocity": 127,
      "chip": "ym2612"
    },
    {
      "channel": 4,
      "note": 66,
      "start": 21.2631,
      "duration": 0.1321,
      "velocity": 127,
      "chip": "ym2612"
    },
    {
      "channel": 0,
      "note": 52,
      "start": 21.4449,
      "duration": 0.1167,
      "velocity": 102,
      "chip": "ym2612"
    },
    {
      "channel": 1,
      "note": 100,
      "start": 21.4452,
      "duration": 0.0664,
      "velocity": 109,
      "chip": "ym2612"
    },
    {
      "channel": 3,
      "note": 71,
      "start": 21.4461,
      "duration": 0.1324,
      "velocity": 127,
      "chip": "ym2612"
    },
    {
      "channel": 4,
      "note": 66,
      "start": 21.4464,
      "duration": 0.1322,
      "velocity": 127,
      "chip": "ym2612"
    },
    {
      "channel": 1,
      "note": 100,
      "start": 21.5282,
      "duration": 0.0835,
      "velocity": 109,
      "chip": "ym2612"
    },
    {
      "channel": 0,
      "note": 52,
      "start": 21.6283,
      "duration": 0.1164,
      "velocity": 102,
      "chip": "ym2612"
    },
    {
      "channel": 1,
      "note": 100,
      "start": 21.6286,
      "duration": 0.1662,
      "velocity": 109,
      "chip": "ym2612"
    },
    {
      "channel": 3,
      "note": 69,
      "start": 21.6293,
      "duration": 0.1327,
      "velocity": 127,
      "chip": "ym2612"
    },
    {
      "channel": 4,
      "note": 64,
      "start": 21.6297,
      "duration": 0.1324,
      "velocity": 127,
      "chip": "ym2612"
    },
    {
      "channel": 0,
      "note": 52,
      "start": 21.8118,
      "duration": 0.1162,
      "velocity": 102,
      "chip": "ym2612"
    },
    {
      "channel": 1,
      "note": 100,
      "start": 21.8122,
      "duration": 0.0659,
      "velocity": 109,
      "chip": "ym2612"
    },
    {
      "channel": 3,
      "note": 69,
      "start": 21.8128,
      "duration": 0.1324,
      "velocity": 127,
      "chip": "ym2612"
    },
    {
      "channel": 4,
      "note": 64,
      "start": 21.8132,
      "duration": 0.1321,
      "velocity": 127,
      "chip": "ym2612"
    },
    {
      "channel": 1,
      "note": 100,
      "start": 21.8949,
      "duration": 0.0832,
      "velocity": 109,
      "chip": "ym2612"
    },
    {
      "channel": 0,
      "note": 52,
      "start": 21.9949,
      "duration": 0.1167,
      "velocity": 102,
      "chip": "ym2612"
    },
    {
      "channel": 1,
      "note": 100,
      "start": 21.9952,
      "duration": 0.1664,
      "velocity": 109,
      "chip": "ym2612"
    },
    {
      "channel": 2,
      "note": 42,
      "start": 21.9962,
      "duration": 1.3819,
      "velocity": 105,
      "chip": "ym2612"
    },
    {
      "channel": 3,
      "note": 69,
      "start": 21.997,
      "duration": 0.1315,
      "velocity": 127,
      "chip": "ym2612"
    },
    {
      "channel": 4,
      "note": 64,
      "start": 21.9973,
      "duration": 0.1312,
      "velocity": 127,
      "chip": "ym2612"
    },
    {
      "channel": 0,
      "note": 52,
      "start": 22.1783,
      "duration": 0.1164,
      "velocity": 102,
      "chip": "ym2612"
    },
    {
      "channel": 1,
      "note": 100,
      "start": 22.1786,
      "duration": 0.1662,
      "velocity": 109,
      "chip": "ym2612"
    },
    {
      "channel": 3,
      "note": 71,
      "start": 22.1796,
      "duration": 0.1325,
      "velocity": 127,
      "chip": "ym2612"
    },
    {
      "channel": 4,
      "note": 66,
      "start": 22.1799,
      "duration": 0.1322,
      "velocity": 127,
      "chip": "ym2612"
    },
    {
      "channel": 5,
      "note": 42,
      "start": 22.2632,
      "duration": 1.3832,
      "velocity": 105,
      "chip": "ym2612"
    },
    {
      "channel": 0,
      "note": 52,
      "start": 22.3618,
      "duration": 0.1162,
      "velocity": 102,
      "chip": "ym2612"
    },
    {
      "channel": 1,
      "note": 100,
      "start": 22.3622,
      "duration": 0.0659,
      "velocity": 109,
      "chip": "ym2612"
    },
    {
      "channel": 3,
      "note": 71,
      "start": 22.3633,
      "duration": 0.1319,
      "velocity": 127,
      "chip": "ym2612"
    },
    {
      "channel": 4,
      "note": 66,
      "start": 22.3637,
      "duration": 0.1315,
      "velocity": 127,
      "chip": "ym2612"
    },
    {
      "channel": 1,
      "note": 100,
      "start": 22.4449,
      "duration": 0.0832,
      "velocity": 109,
      "chip": "ym2612"
    },
    {
      "channel": 0,
      "note": 52,
      "start": 22.5449,
      "duration": 0.1167,
      "velocity": 102,
      "chip": "ym2612"
    },
    {
      "channel": 1,
      "note": 100,
      "start": 22.5452,
      "duration": 0.1664,
      "velocity": 109,
      "chip": "ym2612"
    },
    {
      "channel": 3,
      "note": 71,
      "start": 22.5464,
      "duration": 0.1321,
      "velocity": 127,
      "chip": "ym2612"
    },
    {
      "channel": 4,
      "note": 66,
      "start": 22.5467,
      "duration": 0.1319,
      "velocity": 127,
      "chip": "ym2612"
    },
    {
      "channel": 0,
      "note": 52,
      "start": 22.7283,
      "duration": 0.1164,
      "velocity": 102,
      "chip": "ym2612"
    },
    {
      "channel": 1,
      "note": 100,
      "start": 22.7286,
      "duration": 0.1662,
      "velocity": 109,
      "chip": "ym2612"
    },
    {
      "channel": 3,
      "note": 71,
      "start": 22.7297,
      "duration": 0.1324,
      "velocity": 127,
      "chip": "ym2612"
    },
    {
      "channel": 4,
      "note": 66,
      "start": 22.73,
      "duration": 0.1322,
      "velocity": 127,
      "chip": "ym2612"
    },
    {
      "channel": 0,
      "note": 52,
      "start": 22.9118,
      "duration": 0.1162,
      "velocity": 102,
      "chip": "ym2612"
    },
    {
      "channel": 1,
      "note": 100,
      "start": 22.912,
      "duration": 0.166,
      "velocity": 109,
      "chip": "ym2612"
    },
    {
      "channel": 3,
      "note": 71,
      "start": 22.9131,
      "duration": 0.1321,
      "velocity": 127,
      "chip": "ym2612"
    },
    {
      "channel": 4,
      "note": 66,
      "start": 22.9134,
      "duration": 0.1318,
      "velocity": 127,
      "chip": "ym2612"
    },
    {
      "channel": 0,
      "note": 52,
      "start": 23.0949,
      "duration": 0.1167,
      "velocity": 102,
      "chip": "ym2612"
    },
    {
      "channel": 1,
      "note": 100,
      "start": 23.0952,
      "duration": 0.0664,
      "velocity": 109,
      "chip": "ym2612"
    },
    {
      "channel": 3,
      "note": 69,
      "start": 23.0962,
      "duration": 0.1322,
      "velocity": 127,
      "chip": "ym2612"
    },
    {
      "channel": 4,
      "note": 64,
      "start": 23.0965,
      "duration": 0.132,
      "velocity": 127,
      "chip": "ym2612"
    },
    {
      "channel": 1,
      "note": 100,
      "start": 23.1783,
      "duration": 0.0833,
      "velocity": 109,
      "chip": "ym2612"
    },
    {
      "channel": 0,
      "note": 52,
      "start": 23.2783,
      "duration": 0.1163,
      "velocity": 102,
      "chip": "ym2612"
    },
    {
      "channel": 1,
      "note": 100,
      "start": 23.2786,
      "duration": 0.0662,
      "velocity": 109,
      "chip": "ym2612"
    },
    {
      "channel": 3,
      "note": 69,
      "start": 23.2795,
      "duration": 0.1326,
      "velocity": 127,
      "chip": "ym2612"
    },
    {
      "channel": 4,
      "note": 64,
      "start": 23.2798,
      "duration": 0.1323,
      "velocity": 127,
      "chip": "ym2612"
    },
    {
      "channel": 1,
      "note": 100,
      "start": 23.3618,
      "duration": 0.0829,
      "velocity": 109,
      "chip": "ym2612"
    },
    {
      "channel": 0,
      "note": 47,
      "start": 23.4618,
      "duration": 0.1162,
      "velocity": 102,
      "chip": "ym2612"
    },
    {
      "channel": 1,
      "note": 100,
      "start": 23.4622,
      "duration": 0.1659,
      "velocity": 109,
      "chip": "ym2612"
    },
    {
      "channel": 2,
      "note": 47,
      "start": 23.4626,
      "duration": 1.7491,
      "velocity": 105,
      "chip": "ym2612"
    },
    {
      "channel": 3,
      "note": 71,
      "start": 23.4637,
      "duration": 0.1314,
      "velocity": 127,
      "chip": "ym2612"
    },
    {
      "channel": 4,
      "note": 66,
      "start": 23.4643,
      "duration": 0.131,
      "velocity": 127,
      "chip": "ym2612"
    },
    {
      "channel": 0,
      "note": 47,
      "start": 23.6449,
      "duration": 0.1167,
      "velocity": 102,
      "chip": "ym2612"
    },
    {
      "channel": 1,
      "note": 100,
      "start": 23.6452,
      "duration": 0.0664,
      "velocity": 109,
      "chip": "ym2612"
    },
    {
      "channel": 3,
      "note": 71,
      "start": 23.6459,
      "duration": 0.1326,
      "velocity": 127,
      "chip": "ym2612"
    },
    {
      "channel": 4,
      "note": 66,
      "start": 23.6463,
      "duration": 0.1323,
      "velocity": 127,
      "chip": "ym2612"
    },
    {
      "channel": 1,
      "note": 100,
      "start": 23.7282,
      "duration": 0.0835,
      "velocity": 109,
      "chip": "ym2612"
    },
    {
      "channel": 5,
      "note": 47,
      "start": 23.7293,
      "duration": 1.7507,
      "velocity": 105,
      "chip": "ym2612"
    },
    {
      "channel": 0,
      "note": 47,
      "start": 23.8282,
      "duration": 0.1165,
      "velocity": 102,
      "chip": "ym2612"
    },
    {
      "channel": 1,
      "note": 100,
      "start": 23.8286,
      "duration": 0.1662,
      "velocity": 109,
      "chip": "ym2612"
    },
    {
      "channel": 3,
      "note": 71,
      "start": 23.8297,
      "duration": 0.1324,
      "velocity": 127,
      "chip": "ym2612"
    },
    {
      "channel": 4,
      "note": 66,
      "start": 23.83,
      "duration": 0.1321,
      "velocity": 127,
      "chip": "ym2612"
    },
    {
      "channel": 0,
      "note": 47,
      "start": 24.0118,
      "duration": 0.1162,
      "velocity": 102,
      "chip": "ym2612"
    },
    {
      "channel": 1,
      "note": 100,
      "start": 24.0122,
      "duration": 0.1659,
      "velocity": 109,
      "chip": "ym2612"
    },
    {
      "channel": 3,
      "note": 71,
      "start": 24.0129,
      "duration": 0.1322,
      "velocity": 127,
      "chip": "ym2612"
    },
    {
      "channel": 4,
      "note": 66,
      "start": 24.0133,
      "duration": 0.1319,
      "velocity": 127,
      "chip": "ym2612"
    },
    {
      "channel": 0,
      "note": 47,
      "start": 24.1949,
      "duration": 0.1167,
      "velocity": 102,
      "chip": "ym2612"
    },
    {
      "channel": 3,
      "note": 71,
      "start": 24.1959,
      "duration": 0.1326,
      "velocity": 127,
      "chip": "ym2612"
    },
    {
      "channel": 4,
      "note": 66,
      "start": 24.1962,
      "duration": 0.1324,
      "velocity": 127,
      "chip": "ym2612"
    },
    {
      "channel": 0,
      "note": 47,
      "start": 24.3782,
      "duration": 0.1165,
      "velocity": 102,
      "chip": "ym2612"
    },
    {
      "channel": 1,
      "note": 100,
      "start": 24.3784,
      "duration": 0.1663,
      "velocity": 109,
      "chip": "ym2612"
    },
    {
      "channel": 3,
      "note": 71,
      "start": 24.3793,
      "duration": 0.1328,
      "velocity": 127,
      "chip": "ym2612"
    },
    {
      "channel": 4,
      "note": 66,
      "start": 24.3797,
      "duration": 0.1325,
      "velocity": 127,
      "chip": "ym2612"
    },
    {
      "channel": 0,
      "note": 47,
      "start": 24.5618,
      "duration": 0.1162,
      "velocity": 102,
      "chip": "ym2612"
    },
    {
      "channel": 3,
      "note": 69,
      "start": 24.5627,
      "duration": 0.1324,
      "velocity": 127,
      "chip": "ym2612"
    },
    {
      "channel": 4,
      "note": 64,
      "start": 24.5631,
      "duration": 0.1322,
      "velocity": 127,
      "chip": "ym2612"
    },
    {
      "channel": 0,
      "note": 47,
      "start": 24.7449,
      "duration": 0.1167,
      "velocity": 102,
      "chip": "ym2612"
    },
    {
      "channel": 1,
      "note": 100,
      "start": 24.7452,
      "duration": 0.0664,
      "velocity": 109,
      "chip": "ym2612"
    },
    {
      "channel": 3,
      "note": 69,
      "start": 24.7461,
      "duration": 0.1324,
      "velocity": 127,
      "chip": "ym2612"
    },
    {
      "channel": 4,
      "note": 64,
      "start": 24.7464,
      "duration": 0.1322,
      "velocity": 127,
      "chip": "ym2612"
    },
    {
      "channel": 1,
      "note": 100,
      "start": 24.8282,
      "duration": 0.0835,
      "velocity": 109,
      "chip": "ym2612"
    },
    {
      "channel": 0,
      "note": 47,
      "start": 24.9283,
      "duration": 0.1164,
      "velocity": 102,
      "chip": "ym2612"
    },
    {
      "channel": 1,
      "note": 100,
      "start": 24.9286,
      "duration": 0.1662,
      "velocity": 109,
      "chip": "ym2612"
    },
    {
      "channel": 3,
      "note": 69,
      "start": 24.9293,
      "duration": 0.1328,
      "velocity": 127,
      "chip": "ym2612"
    },
    {
      "channel": 4,
      "note": 64,
      "start": 24.9297,
      "duration": 0.1324,
      "velocity": 127,
      "chip": "ym2612"
    },
    {
      "channel": 0,
      "note": 47,
      "start": 25.1118,
      "duration": 0.1162,
      "velocity": 102,
      "chip": "ym2612"
    },
    {
      "channel": 1,
      "note": 100,
      "start": 25.1122,
      "duration": 0.1659,
      "velocity": 109,
      "chip": "ym2612"
    },
    {
      "channel": 3,
      "note": 71,
      "start": 25.1129,
      "duration": 0.1322,
      "velocity": 127,
      "chip": "ym2612"
    },
    {
      "channel": 4,
      "note": 66,
      "start": 25.1133,
      "duration": 0.132,
      "velocity": 127,
      "chip": "ym2612"
    },
    {
      "channel": 0,
      "note": 47,
      "start": 25.2949,
      "duration": 0.1167,
      "velocity": 102,
      "chip": "ym2612"
    },
    {
      "channel": 1,
      "note": 100,
      "start": 25.2951,
      "duration": 0.1666,
      "velocity": 109,
      "chip": "ym2612"
    },
    {
      "channel": 2,
      "note": 49,
      "start": 25.2954,
      "duration": 0.0994,
      "velocity": 105,
      "chip": "ym2612"
    },
    {
      "channel": 3,
      "note": 71,
      "start": 25.2961,
      "duration": 0.1324,
      "velocity": 127,
      "chip": "ym2612"
    },
    {
      "channel": 4,
      "note": 66,
      "start": 25.2964,
      "duration": 0.1322,
      "velocity": 127,
      "chip": "ym2612"
    },
    {
      "channel": 0,
      "note": 47,
      "start": 25.4782,
      "duration": 0.1165,
      "velocity": 102,
      "chip": "ym2612"
    },
    {
      "channel": 1,
      "note": 100,
      "start": 25.4786,
      "duration": 0.0662,
      "velocity": 109,
      "chip": "ym2612"
    },
    {
      "channel": 2,
      "note": 50,
      "start": 25.4788,
      "duration": 0.0993,
      "velocity": 105,
      "chip": "ym2612"
    },
    {
      "channel": 3,
      "note": 71,
      "start": 25.4796,
      "duration": 0.1325,
      "velocity": 127,
      "chip": "ym2612"
    },
    {
      "channel": 4,
      "note": 66,
      "start": 25.48,
      "duration": 0.1322,
      "velocity": 127,
      "chip": "ym2612"
    },
    {
      "channel": 1,
      "note": 100,
      "start": 25.5618,
      "duration": 0.083,
      "velocity": 109,
      "chip": "ym2612"
    },
    {
      "channel": 5,
      "note": 49,
      "start": 25.5625,
      "duration": 0.1012,
      "velocity": 105,
      "chip": "ym2612"
    },
    {
      "channel": 0,
      "note": 47,
      "start": 25.6618,
      "duration": 0.1162,
      "velocity": 102,
      "chip": "ym2612"
    },
    {
      "channel": 1,
      "note": 100,
      "start": 25.6622,
      "duration": 0.1659,
      "velocity": 109,
      "chip": "ym2612"
    },
    {
      "channel": 2,
      "note": 49,
      "start": 25.6624,
      "duration": 0.4657,
      "velocity": 105,
      "chip": "ym2612"
    },
    {
      "channel": 3,
      "note": 71,
      "start": 25.6632,
      "duration": 0.132,
      "velocity": 127,
      "chip": "ym2612"
    },
    {
      "channel": 4,
      "note": 66,
      "start": 25.6635,
      "duration": 0.1317,
      "velocity": 127,
      "chip": "ym2612"
    },
    {
      "channel": 5,
      "note": 50,
      "start": 25.7454,
      "duration": 0.1009,
      "velocity": 105,
      "chip": "ym2612"
    },
    {
      "channel": 0,
      "note": 47,
      "start": 25.8449,
      "duration": 0.1167,
      "velocity": 102,
      "chip": "ym2612"
    },
    {
      "channel": 3,
      "note": 71,
      "start": 25.8458,
      "duration": 0.1327,
      "velocity": 127,
      "chip": "ym2612"
    },
    {
      "channel": 4,
      "note": 66,
      "start": 25.8461,
      "duration": 0.1324,
      "velocity": 127,
      "chip": "ym2612"
    },
    {
      "channel": 5,
      "note": 49,
      "start": 25.9288,
      "duration": 0.468,
      "velocity": 105,
      "chip": "ym2612"
    },
    {
      "channel": 0,
      "note": 47,
      "start": 26.0282,
      "duration": 0.1165,
      "velocity": 102,
      "chip": "ym2612"
    },
    {
      "channel": 1,
      "note": 100,
      "start": 26.0286,
      "duration": 0.1662,
      "velocity": 109,
      "chip": "ym2612"
    },
    {
      "channel": 3,
      "note": 69,
      "start": 26.0295,
      "duration": 0.1326,
      "velocity": 127,
      "chip": "ym2612"
    },
    {
      "channel": 4,
      "note": 64,
      "start": 26.0298,
      "duration": 0.1324,
      "velocity": 127,
      "chip": "ym2612"
    },
    {
      "channel": 0,
      "note": 47,
      "start": 26.2119,
      "duration": 0.1161,
      "velocity": 102,
      "chip": "ym2612"
    },
    {
      "channel": 1,
      "note": 100,
      "start": 26.2122,
      "duration": 0.1659,
      "velocity": 109,
      "chip": "ym2612"
    },
    {
      "channel": 2,
      "note": 45,
      "start": 26.2124,
      "duration": 0.0993,
      "velocity": 105,
      "chip": "ym2612"
    },
    {
      "channel": 3,
      "note": 69,
      "start": 26.2131,
      "duration": 0.1321,
      "velocity": 127,
      "chip": "ym2612"
    },
    {
      "channel": 4,
      "note": 64,
      "start": 26.2134,
      "duration": 0.1318,
      "velocity": 127,
      "chip": "ym2612"
    },
    {
      "channel": 0,
      "note": 49,
      "start": 26.3949,
      "duration": 0.1167,
      "velocity": 102,
      "chip": "ym2612"
    },
    {
      "channel": 1,
      "note": 100,
      "start": 26.3952,
      "duration": 0.1665,
      "velocity": 109,
      "chip": "ym2612"
    },
    {
      "channel": 2,
      "note": 42,
      "start": 26.3954,
      "duration": 2.1163,
      "velocity": 105,
      "chip": "ym2612"
    },
    {
      "channel": 3,
      "note": 71,
      "start": 26.3963,
      "duration": 0.1322,
      "velocity": 127,
      "chip": "ym2612"
    },
    {
      "channel": 4,
      "note": 66,
      "start": 26.3967,
      "duration": 0.1319,
      "velocity": 127,
      "chip": "ym2612"
    },
    {
      "channel": 5,
      "note": 45,
      "start": 26.4787,
      "duration": 0.1011,
      "velocity": 105,
      "chip": "ym2612"
    },
    {
      "channel": 0,
      "note": 49,
      "start": 26.5783,
      "duration": 0.1164,
      "velocity": 102,
      "chip": "ym2612"
    },
    {
      "channel": 1,
      "note": 100,
      "start": 26.5786,
      "duration": 0.0662,
      "velocity": 109,
      "chip": "ym2612"
    },
    {
      "channel": 3,
      "note": 71,
      "start": 26.5793,
      "duration": 0.1327,
      "velocity": 127,
      "chip": "ym2612"
    },
    {
      "channel": 4,
      "note": 66,
      "start": 26.5797,
      "duration": 0.1325,
      "velocity": 127,
      "chip": "ym2612"
    },
    {
      "channel": 1,
      "note": 100,
      "start": 26.6618,
      "duration": 0.083,
      "velocity": 109,
      "chip": "ym2612"
    },
    {
      "channel": 5,
      "note": 42,
      "start": 26.6626,
      "duration": 2.1171,
      "velocity": 105,
      "chip": "ym2612"
    },
    {
      "channel": 0,
      "note": 49,
      "start": 26.7618,
      "duration": 0.1162,
      "velocity": 102,
      "chip": "ym2612"
    },
    {
      "channel": 1,
      "note": 100,
      "start": 26.7622,
      "duration": 0.1659,
      "velocity": 109,
      "chip": "ym2612"
    },
    {
      "channel": 3,
      "note": 71,
      "start": 26.7631,
      "duration": 0.1321,
      "velocity": 127,
      "chip": "ym2612"
    },
    {
      "channel": 4,
      "note": 66,
      "start": 26.7634,
      "duration": 0.1318,
      "velocity": 127,
      "chip": "ym2612"
    },
    {
      "channel": 0,
      "note": 49,
      "start": 26.9449,
      "duration": 0.1167,
      "velocity": 102,
      "chip": "ym2612"
    },
    {
      "channel": 1,
      "note": 100,
      "start": 26.9452,
      "duration": 0.1664,
      "velocity": 109,
      "chip": "ym2612"
    },
    {
      "channel": 3,
      "note": 71,
      "start": 26.946,
      "duration": 0.1325,
      "velocity": 127,
      "chip": "ym2612"
    },
    {
      "channel": 4,
      "note": 66,
      "start": 26.9464,
      "duration": 0.1322,
      "velocity": 127,
      "chip": "ym2612"
    },
    {
      "channel": 0,
      "note": 49,
      "start": 27.1282,
      "duration": 0.1165,
      "velocity": 102,
      "chip": "ym2612"
    },
    {
      "channel": 3,
      "note": 71,
      "start": 27.1292,
      "duration": 0.1328,
      "velocity": 127,
      "chip": "ym2612"
    },
    {
      "channel": 4,
      "note": 66,
      "start": 27.1295,
      "duration": 0.1326,
      "velocity": 127,
      "chip": "ym2612"
    },
    {
      "channel": 0,
      "note": 49,
      "start": 27.3118,
      "duration": 0.1162,
      "velocity": 102,
      "chip": "ym2612"
    },
    {
      "channel": 1,
      "note": 100,
      "start": 27.3122,
      "duration": 0.0659,
      "velocity": 109,
      "chip": "ym2612"
    },
    {
      "channel": 3,
      "note": 71,
      "start": 27.313,
      "duration": 0.1322,
      "velocity": 127,
      "chip": "ym2612"
    },
    {
      "channel": 4,
      "note": 66,
      "start": 27.3133,
      "duration": 0.1319,
      "velocity": 127,
      "chip": "ym2612"
    },
    {
      "channel": 1,
      "note": 100,
      "start": 27.3949,
      "duration": 0.0832,
      "velocity": 109,
      "chip": "ym2612"
    },
    {
      "channel": 0,
      "note": 49,
      "start": 27.4949,
      "duration": 0.1167,
      "velocity": 102,
      "chip": "ym2612"
    },
    {
      "channel": 1,
      "note": 100,
      "start": 27.4952,
      "duration": 0.1664,
      "velocity": 109,
      "chip": "ym2612"
    },
    {
      "channel": 3,
      "note": 69,
      "start": 27.4961,
      "duration": 0.1324,
      "velocity": 127,
      "chip": "ym2612"
    },
    {
      "channel": 4,
      "note": 64,
      "start": 27.4964,
      "duration": 0.1322,
      "velocity": 127,
      "chip": "ym2612"
    },
    {
      "channel": 0,
      "note": 49,
      "start": 27.6782,
      "duration": 0.1165,
      "velocity": 102,
      "chip": "ym2612"
    },
    {
      "channel": 1,
      "note": 100,
      "start": 27.6786,
      "duration": 0.0662,
      "velocity": 109,
      "chip": "ym2612"
    },
    {
      "channel": 3,
      "note": 69,
      "start": 27.6793,
      "duration": 0.1327,
      "velocity": 127,
      "chip": "ym2612"
    },
    {
      "channel": 4,
      "note": 64,
      "start": 27.6797,
      "duration": 0.1324,
      "velocity": 127,
      "chip": "ym2612"
    },
    {
      "channel": 1,
      "note": 100,
      "start": 27.7618,
      "duration": 0.083,
      "velocity": 109,
      "chip": "ym2612"
    },
    {
      "channel": 0,
      "note": 49,
      "start": 27.8618,
      "duration": 0.1162,
      "velocity": 102,
      "chip": "ym2612"
    },
    {
      "channel": 1,
      "note": 100,
      "start": 27.8622,
      "duration": 0.1659,
      "velocity": 109,
      "chip": "ym2612"
    },
    {
      "channel": 3,
      "note": 69,
      "start": 27.8629,
      "duration": 0.1322,
      "velocity": 127,
      "chip": "ym2612"
    },
    {
      "channel": 4,
      "note": 64,
      "start": 27.8632,
      "duration": 0.1321,
      "velocity": 127,
      "chip": "ym2612"
    },
    {
      "channel": 0,
      "note": 49,
      "start": 28.0449,
      "duration": 0.1167,
      "velocity": 102,
      "chip": "ym2612"
    },
    {
      "channel": 1,
      "note": 100,
      "start": 28.0453,
      "duration": 0.1663,
      "velocity": 109,
      "chip": "ym2612"
    },
    {
      "channel": 3,
      "note": 71,
      "start": 28.0461,
      "duration": 0.1324,
      "velocity": 127,
      "chip": "ym2612"
    },
    {
      "channel": 4,
      "note": 66,
      "start": 28.0464,
      "duration": 0.1322,
      "velocity": 127,
      "chip": "ym2612"
    },
    {
      "channel": 0,
      "note": 49,
      "start": 28.2282,
      "duration": 0.1165,
      "velocity": 102,
      "chip": "ym2612"
    },
    {
      "channel": 1,
      "note": 100,
      "start": 28.2286,
      "duration": 0.0662,
      "velocity": 109,
      "chip": "ym2612"
    },
    {
      "channel": 3,
      "note": 71,
      "start": 28.2293,
      "duration": 0.1328,
      "velocity": 127,
      "chip": "ym2612"
    },
    {
      "channel": 4,
      "note": 66,
      "start": 28.2297,
      "duration": 0.1325,
      "velocity": 127,
      "chip": "ym2612"
    },
    {
      "channel": 1,
      "note": 100,
      "start": 28.3118,
      "duration": 0.083,
      "velocity": 109,
      "chip": "ym2612"
    },
    {
      "channel": 0,
      "note": 49,
      "start": 28.4118,
      "duration": 0.1162,
      "velocity": 102,
      "chip": "ym2612"
    },
    {
      "channel": 1,
      "note": 100,
      "start": 28.4122,
      "duration": 0.1659,
      "velocity": 109,
      "chip": "ym2612"
    },
    {
      "channel": 3,
      "note": 71,
      "start": 28.413,
      "duration": 0.1322,
      "velocity": 127,
      "chip": "ym2612"
    },
    {
      "channel": 4,
      "note": 66,
      "start": 28.4133,
      "duration": 0.132,
      "velocity": 127,
      "chip": "ym2612"
    },
    {
      "channel": 0,
      "note": 49,
      "start": 28.5949,
      "duration": 0.1167,
      "velocity": 102,
      "chip": "ym2612"
    },
    {
      "channel": 1,
      "note": 100,
      "start": 28.5953,
      "duration": 0.1663,
      "velocity": 109,
      "chip": "ym2612"
    },
    {
      "channel": 2,
      "note": 42,
      "start": 28.5955,
      "duration": 0.2826,
      "velocity": 105,
      "chip": "ym2612"
    },
    {
      "channel": 3,
      "note": 71,
      "start": 28.5963,
      "duration": 0.1322,
      "velocity": 127,
      "chip": "ym2612"
    },
    {
      "channel": 4,
      "note": 66,
      "start": 28.5966,
      "duration": 0.1319,
      "velocity": 127,
      "chip": "ym2612"
    },
    {
      "channel": 0,
      "note": 49,
      "start": 28.7783,
      "duration": 0.1164,
      "velocity": 102,
      "chip": "ym2612"
    },
    {
      "channel": 1,
      "note": 100,
      "start": 28.7784,
      "duration": 0.1663,
      "velocity": 109,
      "chip": "ym2612"
    },
    {
      "channel": 3,
      "note": 71,
      "start": 28.7792,
      "duration": 0.1329,
      "velocity": 127,
      "chip": "ym2612"
    },
    {
      "channel": 4,
      "note": 66,
      "start": 28.7795,
      "duration": 0.1326,
      "velocity": 127,
      "chip": "ym2612"
    },
    {
      "channel": 5,
      "note": 42,
      "start": 28.8624,
      "duration": 0.2842,
      "velocity": 105,
      "chip": "ym2612"
    },
    {
      "channel": 0,
      "note": 49,
      "start": 28.9618,
      "duration": 0.1162,
      "velocity": 102,
      "chip": "ym2612"
    },
    {
      "channel": 1,
      "note": 100,
      "start": 28.9622,
      "duration": 0.0659,
      "velocity": 109,
      "chip": "ym2612"
    },
    {
      "channel": 2,
      "note": 45,
      "start": 28.9624,
      "duration": 0.0993,
      "velocity": 105,
      "chip": "ym2612"
    },
    {
      "channel": 3,
      "note": 69,
      "start": 28.9632,
      "duration": 0.1319,
      "velocity": 127,
      "chip": "ym2612"
    },
    {
      "channel": 4,
      "note": 64,
      "start": 28.9636,
      "duration": 0.1317,
      "velocity": 127,
      "chip": "ym2612"
    },
    {
      "channel": 1,
      "note": 100,
      "start": 29.0449,
      "duration": 0.0832,
      "velocity": 109,
      "chip": "ym2612"
    },
    {
      "channel": 0,
      "note": 49,
      "start": 29.145,
      "duration": 0.1166,
      "velocity": 102,
      "chip": "ym2612"
    },
    {
      "channel": 1,
      "note": 100,
      "start": 29.1452,
      "duration": 0.0664,
      "velocity": 109,
      "chip": "ym2612"
    },
    {
      "channel": 2,
      "note": 42,
      "start": 29.1455,
      "duration": 0.0993,
      "velocity": 105,
      "chip": "ym2612"
    },
    {
      "channel": 3,
      "note": 69,
      "start": 29.1462,
      "duration": 0.1323,
      "velocity": 127,
      "chip": "ym2612"
    },
    {
      "channel": 4,
      "note": 64,
      "start": 29.1465,
      "duration": 0.1321,
      "velocity": 127,
      "chip": "ym2612"
    },
    {
      "channel": 1,
      "note": 100,
      "start": 29.2283,
      "duration": 0.0834,
      "velocity": 109,
      "chip": "ym2612"
    },
    {
      "channel": 5,
      "note": 45,
      "start": 29.2291,
      "duration": 0.1012,
      "velocity": 105,
      "chip": "ym2612"
    },
    {
      "channel": 0,
      "note": 50,
      "start": 29.3283,
      "duration": 0.1164,
      "velocity": 102,
      "chip": "ym2612"
    },
    {
      "channel": 1,
      "note": 100,
      "start": 29.3286,
      "duration": 0.1662,
      "velocity": 109,
      "chip": "ym2612"
    },
    {
      "channel": 2,
      "note": 47,
      "start": 29.3289,
      "duration": 1.7492,
      "velocity": 105,
      "chip": "ym2612"
    },
    {
      "channel": 3,
      "note": 71,
      "start": 29.3298,
      "duration": 0.1323,
      "velocity": 127,
      "chip": "ym2612"
    },
    {
      "channel": 4,
      "note": 66,
      "start": 29.3302,
      "duration": 0.132,
      "velocity": 127,
      "chip": "ym2612"
    },
    {
      "channel": 5,
      "note": 42,
      "start": 29.4123,
      "duration": 0.1011,
      "velocity": 105,
      "chip": "ym2612"
    },
    {
      "channel": 0,
      "note": 50,
      "start": 29.5118,
      "duration": 0.1162,
      "velocity": 102,
      "chip": "ym2612"
    },
    {
      "channel": 1,
      "note": 100,
      "start": 29.5122,
      "duration": 0.0659,
      "velocity": 109,
      "chip": "ym2612"
    },
    {
      "channel": 3,
      "note": 71,
      "start": 29.5129,
      "duration": 0.1323,
      "velocity": 127,
      "chip": "ym2612"
    },
    {
      "channel": 4,
      "note": 66,
      "start": 29.5132,
      "duration": 0.132,
      "velocity": 127,
      "chip": "ym2612"
    },
    {
      "channel": 1,
      "note": 100,
      "start": 29.5949,
      "duration": 0.0832,
      "velocity": 109,
      "chip": "ym2612"
    },
    {
      "channel": 5,
      "note": 47,
      "start": 29.5958,
      "duration": 1.751,
      "velocity": 105,
      "chip": "ym2612"
    },
    {
      "channel": 0,
      "note": 50,
      "start": 29.6949,
      "duration": 0.1167,
      "velocity": 102,
      "chip": "ym2612"
    },
    {
      "channel": 1,
      "note": 100,
      "start": 29.6952,
      "duration": 0.1664,
      "velocity": 109,
      "chip": "ym2612"
    },
    {
      "channel": 3,
      "note": 71,
      "start": 29.6961,
      "duration": 0.1324,
      "velocity": 127,
      "chip": "ym2612"
    },
    {
      "channel": 4,
      "note": 66,
      "start": 29.6965,
      "duration": 0.1321,
      "velocity": 127,
      "chip": "ym2612"
    },
    {
      "channel": 0,
      "note": 50,
      "start": 29.8783,
      "duration": 0.1164,
      "velocity": 102,
      "chip": "ym2612"
    },
    {
      "channel": 1,
      "note": 100,
      "start": 29.8786,
      "duration": 0.1662,
      "velocity": 109,
      "chip": "ym2612"
    },
    {
      "channel": 3,
      "note": 71,
      "start": 29.8793,
      "duration": 0.1327,
      "velocity": 127,
      "chip": "ym2612"
    },
    {
      "channel": 4,
      "note": 66,
      "start": 29.8797,
      "duration": 0.1324,
      "velocity": 127,
      "chip": "ym2612"
    },
    {
      "channel": 0,
      "note": 50,
      "start": 30.0618,
      "duration": 0.1162,
      "velocity": 102,
      "chip": "ym2612"
    },
    {
      "channel": 3,
      "note": 71,
      "start": 30.0628,
      "duration": 0.1324,
      "velocity": 127,
      "chip": "ym2612"
    },
    {
      "channel": 4,
      "note": 66,
      "start": 30.0631,
      "duration": 0.1321,
      "velocity": 127,
      "chip": "ym2612"
    },
    {
      "channel": 0,
      "note": 50,
      "start": 30.2449,
      "duration": 0.1167,
      "velocity": 102,
      "chip": "ym2612"
    },
    {
      "channel": 1,
      "note": 100,
      "start": 30.2451,
      "duration": 0.1666,
      "velocity": 109,
      "chip": "ym2612"
    },
    {
      "channel": 3,
      "note": 71,
      "start": 30.2459,
      "duration": 0.1326,
      "velocity": 127,
      "chip": "ym2612"
    },
    {
      "channel": 4,
      "note": 66,
      "start": 30.2463,
      "duration": 0.1322,
      "velocity": 127,
      "chip": "ym2612"
    },
    {
      "channel": 0,
      "note": 50,
      "start": 30.4283,
      "duration": 0.1164,
      "velocity": 102,
      "chip": "ym2612"
    },
    {
      "channel": 3,
      "note": 69,
      "start": 30.4291,
      "duration": 0.1329,
      "velocity": 127,
      "chip": "ym2612"
    },
    {
      "channel": 4,
      "note": 64,
      "start": 30.4295,
      "duration": 0.1326,
      "velocity": 127,
      "chip": "ym2612"
    },
    {
      "channel": 0,
      "note": 50,
      "start": 30.6118,
      "duration": 0.1162,
      "velocity": 102,
      "chip": "ym2612"
    },
    {
      "channel": 1,
      "note": 100,
      "start": 30.6122,
      "duration": 0.0659,
      "velocity": 109,
      "chip": "ym2612"
    },
    {
      "channel": 3,
      "note": 69,
      "start": 30.6129,
      "duration": 0.1322,
      "velocity": 127,
      "chip": "ym2612"
    },
    {
      "channel": 4,
      "note": 64,
      "start": 30.6133,
      "duration": 0.1319,
      "velocity": 127,
      "chip": "ym2612"
    },
    {
      "channel": 1,
      "note": 100,
      "start": 30.6949,
      "duration": 0.0832,
      "velocity": 109,
      "chip": "ym2612"
    },
    {
      "channel": 0,
      "note": 50,
      "start": 30.7949,
      "duration": 0.1167,
      "velocity": 102,
      "chip": "ym2612"
    },
    {
      "channel": 1,
      "note": 100,
      "start": 30.7952,
      "duration": 0.1664,
      "velocity": 109,
      "chip": "ym2612"
    },
    {
      "channel": 3,
      "note": 69,
      "start": 30.7959,
      "duration": 0.1325,
      "velocity": 127,
      "chip": "ym2612"
    },
    {
      "channel": 4,
      "note": 64,
      "start": 30.7963,
      "duration": 0.1322,
      "velocity": 127,
      "chip": "ym2612"
    },
    {
      "channel": 0,
      "note": 50,
      "start": 30.9783,
      "duration": 0.1164,
      "velocity": 102,
      "chip": "ym2612"
    },
    {
      "channel": 1,
      "note": 100,
      "start": 30.9786,
      "duration": 0.1662,
      "velocity": 109,
      "chip": "ym2612"
    },
    {
      "channel": 3,
      "note": 71,
      "start": 30.9793,
      "duration": 0.1327,
      "velocity": 127,
      "chip": "ym2612"
    },
    {
      "channel": 4,
      "note": 66,
      "start": 30.9797,
      "duration": 0.1324,
      "velocity": 127,
      "chip": "ym2612"
    },
    {
      "channel": 0,
      "note": 50,
      "start": 31.1618,
      "duration": 0.1162,
      "velocity": 102,
      "chip": "ym2612"
    },
    {
      "channel": 1,
      "note": 100,
      "start": 31.162,
      "duration": 0.166,
      "velocity": 109,
      "chip": "ym2612"
    },
    {
      "channel": 2,
      "note": 49,
      "start": 31.1623,
      "duration": 0.0994,
      "velocity": 105,
      "chip": "ym2612"
    },
    {
      "channel": 3,
      "note": 71,
      "start": 31.1629,
      "duration": 0.1322,
      "velocity": 127,
      "chip": "ym2612"
    },
    {
      "channel": 4,
      "note": 66,
      "start": 31.1633,
      "duration": 0.1319,
      "velocity": 127,
      "chip": "ym2612"
    },
    {
      "channel": 0,
      "note": 50,
      "start": 31.3449,
      "duration": 0.1167,
      "velocity": 102,
      "chip": "ym2612"
    },
    {
      "channel": 1,
      "note": 100,
      "start": 31.3452,
      "duration": 0.0664,
      "velocity": 109,
      "chip": "ym2612"
    },
    {
      "channel": 2,
      "note": 50,
      "start": 31.3455,
      "duration": 0.0993,
      "velocity": 105,
      "chip": "ym2612"
    },
    {
      "channel": 3,
      "note": 71,
      "start": 31.3463,
      "duration": 0.1322,
      "velocity": 127,
      "chip": "ym2612"
    },
    {
      "channel": 4,
      "note": 66,
      "start": 31.3466,
      "duration": 0.1319,
      "velocity": 127,
      "chip": "ym2612"
    },
    {
      "channel": 1,
      "note": 100,
      "start": 31.4282,
      "duration": 0.0835,
      "velocity": 109,
      "chip": "ym2612"
    },
    {
      "channel": 5,
      "note": 49,
      "start": 31.4289,
      "duration": 0.1012,
      "velocity": 105,
      "chip": "ym2612"
    },
    {
      "channel": 0,
      "note": 50,
      "start": 31.5283,
      "duration": 0.1164,
      "velocity": 102,
      "chip": "ym2612"
    },
    {
      "channel": 1,
      "note": 100,
      "start": 31.5286,
      "duration": 0.1662,
      "velocity": 109,
      "chip": "ym2612"
    },
    {
      "channel": 2,
      "note": 52,
      "start": 31.5288,
      "duration": 0.2829,
      "velocity": 105,
      "chip": "ym2612"
    },
    {
      "channel": 3,
      "note": 71,
      "start": 31.5296,
      "duration": 0.1324,
      "velocity": 127,
      "chip": "ym2612"
    },
    {
      "channel": 4,
      "note": 66,
      "start": 31.53,
      "duration": 0.1322,
      "velocity": 127,
      "chip": "ym2612"
    },
    {
      "channel": 5,
      "note": 50,
      "start": 31.6123,
      "duration": 0.1008,
      "velocity": 105,
      "chip": "ym2612"
    },
    {
      "channel": 0,
      "note": 50,
      "start": 31.7118,
      "duration": 0.1162,
      "velocity": 102,
      "chip": "ym2612"
    },
    {
      "channel": 3,
      "note": 71,
      "start": 31.7127,
      "duration": 0.1325,
      "velocity": 127,
      "chip": "ym2612"
    },
    {
      "channel": 4,
      "note": 66,
      "start": 31.713,
      "duration": 0.1323,
      "velocity": 127,
      "chip": "ym2612"
    },
    {
      "channel": 5,
      "note": 52,
      "start": 31.7955,
      "duration": 0.2843,
      "velocity": 105,
      "chip": "ym2612"
    },
    {
      "channel": 0,
      "note": 50,
      "start": 31.8949,
      "duration": 0.1167,
      "velocity": 102,
      "chip": "ym2612"
    },
    {
      "channel": 1,
      "note": 100,
      "start": 31.8952,
      "duration": 0.1664,
      "velocity": 109,
      "chip": "ym2612"
    },
    {
      "channel": 2,
      "note": 45,
      "start": 31.8955,
      "duration": 0.2826,
      "velocity": 105,
      "chip": "ym2612"
    },
    {
      "channel": 3,
      "note": 69,
      "start": 31.8963,
      "duration": 0.1322,
      "velocity": 127,
      "chip": "ym2612"
    },
    {
      "channel": 4,
      "note": 64,
      "start": 31.8966,
      "duration": 0.1319,
      "velocity": 127,
      "chip": "ym2612"
    },
    {
      "channel": 0,
      "note": 50,
      "start": 32.0783,
      "duration": 0.1163,
      "velocity": 102,
      "chip": "ym2612"
    },
    {
      "channel": 1,
      "note": 100,
      "start": 32.0786,
      "duration": 0.1662,
      "velocity": 109,
      "chip": "ym2612"
    },
    {
      "channel": 3,
      "note": 69,
      "start": 32.0793,
      "duration": 0.1327,
      "velocity": 127,
      "chip": "ym2612"
    },
    {
      "channel": 4,
      "note": 64,
      "start": 32.0797,
      "duration": 0.1325,
      "velocity": 127,
      "chip": "ym2612"
    },
    {
      "channel": 5,
      "note": 45,
      "start": 32.1624,
      "duration": 0.284,
      "velocity": 105,
      "chip": "ym2612"
    },
    {
      "channel": 0,
      "note": 52,
      "start": 32.2618,
      "duration": 0.1162,
      "velocity": 102,
      "chip": "ym2612"
    },
    {
      "channel": 1,
      "note": 100,
      "start": 32.262,
      "duration": 0.166,
      "velocity": 109,
      "chip": "ym2612"
    },
    {
      "channel": 2,
      "note": 54,
      "start": 32.2623,
      "duration": 1.3825,
      "velocity": 105,
      "chip": "ym2612"
    },
    {
      "channel": 3,
      "note": 71,
      "start": 32.2632,
      "duration": 0.1319,
      "velocity": 127,
      "chip": "ym2612"
    },
    {
      "channel": 4,
      "note": 66,
      "start": 32.2636,
      "duration": 0.1316,
      "velocity": 127,
      "chip": "ym2612"
    },
    {
      "channel": 0,
      "note": 52,
      "start": 32.4449,
      "duration": 0.1167,
      "velocity": 102,
      "chip": "ym2612"
    },
    {
      "channel": 1,
      "note": 100,
      "start": 32.4452,
      "duration": 0.0664,
      "velocity": 109,
      "chip": "ym2612"
    },
    {
      "channel": 3,
      "note": 71,
      "start": 32.4459,
      "duration": 0.1326,
      "velocity": 127,
      "chip": "ym2612"
    },
    {
      "channel": 4,
      "note": 66,
      "start": 32.4463,
      "duration": 0.1322,
      "velocity": 127,
      "chip": "ym2612"
    },
    {
      "channel": 1,
      "note": 100,
      "start": 32.5282,
      "duration": 0.0835,
      "velocity": 109,
      "chip": "ym2612"
    },
    {
      "channel": 5,
      "note": 54,
      "start": 32.529,
      "duration": 1.3844,
      "velocity": 105,
      "chip": "ym2612"
    },
    {
      "channel": 0,
      "note": 52,
      "start": 32.6283,
      "duration": 0.1164,
      "velocity": 102,
      "chip": "ym2612"
    },
    {
      "channel": 1,
      "note": 100,
      "start": 32.6286,
      "duration": 0.1662,
      "velocity": 109,
      "chip": "ym2612"
    },
    {
      "channel": 3,
      "note": 71,
      "start": 32.6295,
      "duration": 0.1326,
      "velocity": 127,
      "chip": "ym2612"
    },
    {
      "channel": 4,
      "note": 66,
      "start": 32.6298,
      "duration": 0.1323,
      "velocity": 127,
      "chip": "ym2612"
    },
    {
      "channel": 0,
      "note": 52,
      "start": 32.8118,
      "duration": 0.1162,
      "velocity": 102,
      "chip": "ym2612"
    },
    {
      "channel": 1,
      "note": 100,
      "start": 32.8122,
      "duration": 0.1659,
      "velocity": 109,
      "chip": "ym2612"
    },
    {
      "channel": 3,
      "note": 71,
      "start": 32.8129,
      "duration": 0.1322,
      "velocity": 127,
      "chip": "ym2612"
    },
    {
      "channel": 4,
      "note": 66,
      "start": 32.8133,
      "duration": 0.1319,
      "velocity": 127,
      "chip": "ym2612"
    },
    {
      "channel": 0,
      "note": 52,
      "start": 32.9949,
      "duration": 0.1167,
      "velocity": 102,
      "chip": "ym2612"
    },
    {
      "channel": 3,
      "note": 71,
      "start": 32.9959,
      "duration": 0.1326,
      "velocity": 127,
      "chip": "ym2612"
    },
    {
      "channel": 4,
      "note": 66,
      "start": 32.9962,
      "duration": 0.1324,
      "velocity": 127,
      "chip": "ym2612"
    },
    {
      "channel": 0,
      "note": 52,
      "start": 33.1783,
      "duration": 0.1164,
      "velocity": 102,
      "chip": "ym2612"
    },
    {
      "channel": 1,
      "note": 100,
      "start": 33.1786,
      "duration": 0.0662,
      "velocity": 109,
      "chip": "ym2612"
    },
    {
      "channel": 3,
      "note": 71,
      "start": 33.1794,
      "duration": 0.1326,
      "velocity": 127,
      "chip": "ym2612"
    },
    {
      "channel": 4,
      "note": 66,
      "start": 33.1797,
      "duration": 0.1324,
      "velocity": 127,
      "chip": "ym2612"
    },
    {
      "channel": 1,
      "note": 100,
      "start": 33.2618,
      "duration": 0.083,
      "velocity": 109,
      "chip": "ym2612"
    },
    {
      "channel": 0,
      "note": 52,
      "start": 33.3618,
      "duration": 0.1162,
      "velocity": 102,
      "chip": "ym2612"
    },
    {
      "channel": 1,
      "note": 100,
      "start": 33.3622,
      "duration": 0.1659,
      "velocity": 109,
      "chip": "ym2612"
    },
    {
      "channel": 3,
      "note": 69,
      "start": 33.3629,
      "duration": 0.1322,
      "velocity": 127,
      "chip": "ym2612"
    },
    {
      "channel": 4,
      "note": 64,
      "start": 33.3633,
      "duration": 0.1319,
      "velocity": 127,
      "chip": "ym2612"
    },
    {
      "channel": 0,
      "note": 52,
      "start": 33.5449,
      "duration": 0.1167,
      "velocity": 102,
      "chip": "ym2612"
    },
    {
      "channel": 1,
      "note": 100,
      "start": 33.5452,
      "duration": 0.0664,
      "velocity": 109,
      "chip": "ym2612"
    },
    {
      "channel": 3,
      "note": 69,
      "start": 33.546,
      "duration": 0.1325,
      "velocity": 127,
      "chip": "ym2612"
    },
    {
      "channel": 4,
      "note": 64,
      "start": 33.5464,
      "duration": 0.1322,
      "velocity": 127,
      "chip": "ym2612"
    },
    {
      "channel": 1,
      "note": 100,
      "start": 33.6282,
      "duration": 0.0835,
      "velocity": 109,
      "chip": "ym2612"
    },
    {
      "channel": 0,
      "note": 52,
      "start": 33.7283,
      "duration": 0.1164,
      "velocity": 102,
      "chip": "ym2612"
    },
    {
      "channel": 1,
      "note": 100,
      "start": 33.7286,
      "duration": 0.1662,
      "velocity": 109,
      "chip": "ym2612"
    },
    {
      "channel": 2,
      "note": 52,
      "start": 33.7288,
      "duration": 1.016,
      "velocity": 105,
      "chip": "ym2612"
    },
    {
      "channel": 3,
      "note": 69,
      "start": 33.7295,
      "duration": 0.1326,
      "velocity": 127,
      "chip": "ym2612"
    },
    {
      "channel": 4,
      "note": 64,
      "start": 33.7298,
      "duration": 0.1322,
      "velocity": 127,
      "chip": "ym2612"
    },
    {
      "channel": 0,
      "note": 52,
      "start": 33.9118,
      "duration": 0.1162,
      "velocity": 102,
      "chip": "ym2612"
    },
    {
      "channel": 1,
      "note": 100,
      "start": 33.9122,
      "duration": 0.1659,
      "velocity": 109,
      "chip": "ym2612"
    },
    {
      "channel": 3,
      "note": 71,
      "start": 33.913,
      "duration": 0.1322,
      "velocity": 127,
      "chip": "ym2612"
    },
    {
      "channel": 4,
      "note": 66,
      "start": 33.9133,
      "duration": 0.1319,
      "velocity": 127,
      "chip": "ym2612"
    },
    {
      "channel": 5,
      "note": 52,
      "start": 33.9954,
      "duration": 1.018,
      "velocity": 105,
      "chip": "ym2612"
    },
    {
      "channel": 0,
      "note": 52,
      "start": 34.0949,
      "duration": 0.1167,
      "velocity": 102,
      "chip": "ym2612"
    },
    {
      "channel": 1,
      "note": 100,
      "start": 34.0952,
      "duration": 0.0664,
      "velocity": 109,
      "chip": "ym2612"
    },
    {
      "channel": 3,
      "note": 71,
      "start": 34.0959,
      "duration": 0.1326,
      "velocity": 127,
      "chip": "ym2612"
    },
    {
      "channel": 4,
      "note": 66,
      "start": 34.0963,
      "duration": 0.1322,
      "velocity": 127,
      "chip": "ym2612"
    },
    {
      "channel": 1,
      "note": 100,
      "start": 34.1782,
      "duration": 0.0835,
      "velocity": 109,
      "chip": "ym2612"
    },
    {
      "channel": 0,
      "note": 52,
      "start": 34.2782,
      "duration": 0.1165,
      "velocity": 102,
      "chip": "ym2612"
    },
    {
      "channel": 1,
      "note": 100,
      "start": 34.2786,
      "duration": 0.1662,
      "velocity": 109,
      "chip": "ym2612"
    },
    {
      "channel": 3,
      "note": 71,
      "start": 34.2794,
      "duration": 0.1326,
      "velocity": 127,
      "chip": "ym2612"
    },
    {
      "channel": 4,
      "note": 66,
      "start": 34.2798,
      "duration": 0.1324,
      "velocity": 127,
      "chip": "ym2612"
    },
    {
      "channel": 0,
      "note": 52,
      "start": 34.4618,
      "duration": 0.1162,
      "velocity": 102,
      "chip": "ym2612"
    },
    {
      "channel": 1,
      "note": 100,
      "start": 34.4622,
      "duration": 0.1659,
      "velocity": 109,
      "chip": "ym2612"
    },
    {
      "channel": 3,
      "note": 71,
      "start": 34.463,
      "duration": 0.1322,
      "velocity": 127,
      "chip": "ym2612"
    },
    {
      "channel": 4,
      "note": 66,
      "start": 34.4634,
      "duration": 0.1319,
      "velocity": 127,
      "chip": "ym2612"
    },
    {
      "channel": 0,
      "note": 52,
      "start": 34.6449,
      "duration": 0.1167,
      "velocity": 102,
      "chip": "ym2612"
    },
    {
      "channel": 1,
      "note": 100,
      "start": 34.6451,
      "duration": 0.1666,
      "velocity": 109,
      "chip": "ym2612"
    },
    {
      "channel": 3,
      "note": 71,
      "start": 34.6459,
      "duration": 0.1326,
      "velocity": 127,
      "chip": "ym2612"
    },
    {
      "channel": 4,
      "note": 66,
      "start": 34.6462,
      "duration": 0.1324,
      "velocity": 127,
      "chip": "ym2612"
    },
    {
      "channel": 0,
      "note": 52,
      "start": 34.8283,
      "duration": 0.1164,
      "velocity": 102,
      "chip": "ym2612"
    },
    {
      "channel": 1,
      "note": 100,
      "start": 34.8286,
      "duration": 0.0662,
      "velocity": 109,
      "chip": "ym2612"
    },
    {
      "channel": 2,
      "note": 42,
      "start": 34.8288,
      "duration": 0.2829,
      "velocity": 105,
      "chip": "ym2612"
    },
    {
      "channel": 3,
      "note": 69,
      "start": 34.8297,
      "duration": 0.1324,
      "velocity": 127,
      "chip": "ym2612"
    },
    {
      "channel": 4,
      "note": 64,
      "start": 34.83,
      "duration": 0.1321,
      "velocity": 127,
      "chip": "ym2612"
    },
    {
      "channel": 1,
      "note": 100,
      "start": 34.9118,
      "duration": 0.0829,
      "velocity": 109,
      "chip": "ym2612"
    },
    {
      "channel": 0,
      "note": 52,
      "start": 35.0119,
      "duration": 0.1161,
      "velocity": 102,
      "chip": "ym2612"
    },
    {
      "channel": 1,
      "note": 100,
      "start": 35.0122,
      "duration": 0.0659,
      "velocity": 109,
      "chip": "ym2612"
    },
    {
      "channel": 3,
      "note": 69,
      "start": 35.0129,
      "duration": 0.1322,
      "velocity": 127,
      "chip": "ym2612"
    },
    {
      "channel": 4,
      "note": 64,
      "start": 35.0132,
      "duration": 0.1321,
      "velocity": 127,
      "chip": "ym2612"
    },
    {
      "channel": 1,
      "note": 100,
      "start": 35.0949,
      "duration": 0.0832,
      "velocity": 109,
      "chip": "ym2612"
    },
    {
      "channel": 5,
      "note": 42,
      "start": 35.0958,
      "duration": 0.284,
      "velocity": 105,
      "chip": "ym2612"
    },
    {
      "channel": 0,
      "note": 47,
      "start": 35.1949,
      "duration": 0.1167,
      "velocity": 102,
      "chip": "ym2612"
    },
    {
      "channel": 1,
      "note": 100,
      "start": 35.1953,
      "duration": 0.1663,
      "velocity": 109,
      "chip": "ym2612"
    },
    {
      "channel": 2,
      "note": 47,
      "start": 35.1956,
      "duration": 1.7492,
      "velocity": 105,
      "chip": "ym2612"
    },
    {
      "channel": 3,
      "note": 71,
      "start": 35.1964,
      "duration": 0.1321,
      "velocity": 127,
      "chip": "ym2612"
    },
    {
      "channel": 4,
      "note": 66,
      "start": 35.1968,
      "duration": 0.1317,
      "velocity": 127,
      "chip": "ym2612"
    },
    {
      "channel": 0,
      "note": 47,
      "start": 35.3783,
      "duration": 0.1164,
      "velocity": 102,
      "chip": "ym2612"
    },
    {
      "channel": 1,
      "note": 100,
      "start": 35.3786,
      "duration": 0.0662,
      "velocity": 109,
      "chip": "ym2612"
    },
    {
      "channel": 3,
      "note": 71,
      "start": 35.3793,
      "duration": 0.1327,
      "velocity": 127,
      "chip": "ym2612"
    },
    {
      "channel": 4,
      "note": 66,
      "start": 35.3797,
      "duration": 0.1325,
      "velocity": 127,
      "chip": "ym2612"
    },
    {
      "channel": 1,
      "note": 100,
      "start": 35.4618,
      "duration": 0.083,
      "velocity": 109,
      "chip": "ym2612"
    },
    {
      "channel": 5,
      "note": 47,
      "start": 35.4627,
      "duration": 1.751,
      "velocity": 105,
      "chip": "ym2612"
    },
    {
      "channel": 0,
      "note": 47,
      "start": 35.5618,
      "duration": 0.1162,
      "velocity": 102,
      "chip": "ym2612"
    },
    {
      "channel": 1,
      "note": 100,
      "start": 35.5622,
      "duration": 0.1659,
      "velocity": 109,
      "chip": "ym2612"
    },
    {
      "channel": 3,
      "note": 71,
      "start": 35.5631,
      "duration": 0.1321,
      "velocity": 127,
      "chip": "ym2612"
    },
    {
      "channel": 4,
      "note": 66,
      "start": 35.5634,
      "duration": 0.1318,
      "velocity": 127,
      "chip": "ym2612"
    },
    {
      "channel": 0,
      "note": 47,
      "start": 35.7449,
      "duration": 0.1167,
      "velocity": 102,
      "chip": "ym2612"
    },
    {
      "channel": 1,
      "note": 100,
      "start": 35.7452,
      "duration": 0.1664,
      "velocity": 109,
      "chip": "ym2612"
    },
    {
      "channel": 3,
      "note": 71,
      "start": 35.746,
      "duration": 0.1325,
      "velocity": 127,
      "chip": "ym2612"
    },
    {
      "channel": 4,
      "note": 66,
      "start": 35.7464,
      "duration": 0.1322,
      "velocity": 127,
      "chip": "ym2612"
    },
    {
      "channel": 0,
      "note": 47,
      "start": 35.9283,
      "duration": 0.1164,
      "velocity": 102,
      "chip": "ym2612"
    },
    {
      "channel": 3,
      "note": 71,
      "start": 35.9292,
      "duration": 0.1328,
      "velocity": 127,
      "chip": "ym2612"
    },
    {
      "channel": 4,
      "note": 66,
      "start": 35.9295,
      "duration": 0.1326,
      "velocity": 127,
      "chip": "ym2612"
    },
    {
      "channel": 0,
      "note": 47,
      "start": 36.1118,
      "duration": 0.1162,
      "velocity": 102,
      "chip": "ym2612"
    },
    {
      "channel": 1,
      "note": 100,
      "start": 36.112,
      "duration": 0.166,
      "velocity": 109,
      "chip": "ym2612"
    },
    {
      "channel": 3,
      "note": 71,
      "start": 36.1129,
      "duration": 0.1323,
      "velocity": 127,
      "chip": "ym2612"
    },
    {
      "channel": 4,
      "note": 66,
      "start": 36.1132,
      "duration": 0.132,
      "velocity": 127,
      "chip": "ym2612"
    },
    {
      "channel": 0,
      "note": 47,
      "start": 36.2949,
      "duration": 0.1167,
      "velocity": 102,
      "chip": "ym2612"
    },
    {
      "channel": 3,
      "note": 69,
      "start": 36.2958,
      "duration": 0.1327,
      "velocity": 127,
      "chip": "ym2612"
    },
    {
      "channel": 4,
      "note": 64,
      "start": 36.2962,
      "duration": 0.1324,
      "velocity": 127,
      "chip": "ym2612"
    },
    {
      "channel": 0,
      "note": 47,
      "start": 36.4782,
      "duration": 0.1165,
      "velocity": 102,
      "chip": "ym2612"
    },
    {
      "channel": 1,
      "note": 100,
      "start": 36.4786,
      "duration": 0.0662,
      "velocity": 109,
      "chip": "ym2612"
    },
    {
      "channel": 3,
      "note": 69,
      "start": 36.4793,
      "duration": 0.1327,
      "velocity": 127,
      "chip": "ym2612"
    },
    {
      "channel": 4,
      "note": 64,
      "start": 36.4797,
      "duration": 0.1324,
      "velocity": 127,
      "chip": "ym2612"
    },
    {
      "channel": 1,
      "note": 100,
      "start": 36.5618,
      "duration": 0.083,
      "velocity": 109,
      "chip": "ym2612"
    },
    {
      "channel": 0,
      "note": 47,
      "start": 36.6618,
      "duration": 0.1162,
      "velocity": 102,
      "chip": "ym2612"
    },
    {
      "channel": 1,
      "note": 100,
      "start": 36.6622,
      "duration": 0.1659,
      "velocity": 109,
      "chip": "ym2612"
    },
    {
      "channel": 3,
      "note": 69,
      "start": 36.6629,
      "duration": 0.1322,
      "velocity": 127,
      "chip": "ym2612"
    },
    {
      "channel": 4,
      "note": 64,
      "start": 36.6632,
      "duration": 0.132,
      "velocity": 127,
      "chip": "ym2612"
    },
    {
      "channel": 0,
      "note": 47,
      "start": 36.8449,
      "duration": 0.1167,
      "velocity": 102,
      "chip": "ym2612"
    },
    {
      "channel": 1,
      "note": 100,
      "start": 36.8452,
      "duration": 0.1664,
      "velocity": 109,
      "chip": "ym2612"
    },
    {
      "channel": 3,
      "note": 71,
      "start": 36.846,
      "duration": 0.1325,
      "velocity": 127,
      "chip": "ym2612"
    },
    {
      "channel": 4,
      "note": 66,
      "start": 36.8464,
      "duration": 0.1322,
      "velocity": 127,
      "chip": "ym2612"
    },
    {
      "channel": 0,
      "note": 47,
      "start": 37.0283,
      "duration": 0.1164,
      "velocity": 102,
      "chip": "ym2612"
    },
    {
      "channel": 1,
      "note": 100,
      "start": 37.0284,
      "duration": 0.1663,
      "velocity": 109,
      "chip": "ym2612"
    },
    {
      "channel": 2,
      "note": 49,
      "start": 37.0287,
      "duration": 0.0994,
      "velocity": 105,
      "chip": "ym2612"
    },
    {
      "channel": 3,
      "note": 71,
      "start": 37.0294,
      "duration": 0.1327,
      "velocity": 127,
      "chip": "ym2612"
    },
    {
      "channel": 4,
      "note": 66,
      "start": 37.0297,
      "duration": 0.1324,
      "velocity": 127,
      "chip": "ym2612"
    },
    {
      "channel": 0,
      "note": 47,
      "start": 37.2118,
      "duration": 0.1162,
      "velocity": 102,
      "chip": "ym2612"
    },
    {
      "channel": 1,
      "note": 100,
      "start": 37.2122,
      "duration": 0.0659,
      "velocity": 109,
      "chip": "ym2612"
    },
    {
      "channel": 2,
      "note": 50,
      "start": 37.2124,
      "duration": 0.0994,
      "velocity": 105,
      "chip": "ym2612"
    },
    {
      "channel": 3,
      "note": 71,
      "start": 37.2132,
      "duration": 0.132,
      "velocity": 127,
      "chip": "ym2612"
    },
    {
      "channel": 4,
      "note": 66,
      "start": 37.2135,
      "duration": 0.1317,
      "velocity": 127,
      "chip": "ym2612"
    },
    {
      "channel": 1,
      "note": 100,
      "start": 37.2949,
      "duration": 0.0832,
      "velocity": 109,
      "chip": "ym2612"
    },
    {
      "channel": 5,
      "note": 49,
      "start": 37.2956,
      "duration": 0.1012,
      "velocity": 105,
      "chip": "ym2612"
    },
    {
      "channel": 0,
      "note": 47,
      "start": 37.3949,
      "duration": 0.1167,
      "velocity": 102,
      "chip": "ym2612"
    },
    {
      "channel": 1,
      "note": 100,
      "start": 37.3952,
      "duration": 0.1664,
      "velocity": 109,
      "chip": "ym2612"
    },
    {
      "channel": 2,
      "note": 49,
      "start": 37.3955,
      "duration": 0.4662,
      "velocity": 105,
      "chip": "ym2612"
    },
    {
      "channel": 3,
      "note": 71,
      "start": 37.3963,
      "duration": 0.1322,
      "velocity": 127,
      "chip": "ym2612"
    },
    {
      "channel": 4,
      "note": 66,
      "start": 37.3966,
      "duration": 0.1319,
      "velocity": 127,
      "chip": "ym2612"
    },
    {
      "channel": 5,
      "note": 50,
      "start": 37.4787,
      "duration": 0.1008,
      "velocity": 105,
      "chip": "ym2612"
    },
    {
      "channel": 0,
      "note": 47,
      "start": 37.5782,
      "duration": 0.1165,
      "velocity": 102,
      "chip": "ym2612"
    },
    {
      "channel": 3,
      "note": 71,
      "start": 37.5791,
      "duration": 0.1329,
      "velocity": 127,
      "chip": "ym2612"
    },
    {
      "channel": 4,
      "note": 66,
      "start": 37.5795,
      "duration": 0.1327,
      "velocity": 127,
      "chip": "ym2612"
    },
    {
      "channel": 5,
      "note": 49,
      "start": 37.6624,
      "duration": 0.4677,
      "velocity": 105,
      "chip": "ym2612"
    },
    {
      "channel": 0,
      "note": 47,
      "start": 37.7618,
      "duration": 0.1162,
      "velocity": 102,
      "chip": "ym2612"
    },
    {
      "channel": 1,
      "note": 100,
      "start": 37.7622,
      "duration": 0.1659,
      "velocity": 109,
      "chip": "ym2612"
    },
    {
      "channel": 3,
      "note": 69,
      "start": 37.7631,
      "duration": 0.1321,
      "velocity": 127,
      "chip": "ym2612"
    },
    {
      "channel": 4,
      "note": 64,
      "start": 37.7634,
      "duration": 0.1319,
      "velocity": 127,
      "chip": "ym2612"
    },
    {
      "channel": 0,
      "note": 47,
      "start": 37.945,
      "duration": 0.1166,
      "velocity": 102,
      "chip": "ym2612"
    },
    {
      "channel": 1,
      "note": 100,
      "start": 37.9452,
      "duration": 0.1664,
      "velocity": 109,
      "chip": "ym2612"
    },
    {
      "channel": 2,
      "note": 45,
      "start": 37.9455,
      "duration": 0.0993,
      "velocity": 105,
      "chip": "ym2612"
    },
    {
      "channel": 3,
      "note": 69,
      "start": 37.9462,
      "duration": 0.1323,
      "velocity": 127,
      "chip": "ym2612"
    },
    {
      "channel": 4,
      "note": 64,
      "start": 37.9465,
      "duration": 0.1321,
      "velocity": 127,
      "chip": "ym2612"
    },
    {
      "channel": 0,
      "note": 49,
      "start": 38.1283,
      "duration": 0.1164,
      "velocity": 102,
      "chip": "ym2612"
    },
    {
      "channel": 1,
      "note": 100,
      "start": 38.1285,
      "duration": 0.1662,
      "velocity": 109,
      "chip": "ym2612"
    },
    {
      "channel": 2,
      "note": 42,
      "start": 38.1288,
      "duration": 2.116,
      "velocity": 105,
      "chip": "ym2612"
    },
    {
      "channel": 3,
      "note": 71,
      "start": 38.1297,
      "duration": 0.1324,
      "velocity": 127,
      "chip": "ym2612"
    },
    {
      "channel": 4,
      "note": 66,
      "start": 38.13,
      "duration": 0.1321,
      "velocity": 127,
      "chip": "ym2612"
    },
    {
      "channel": 5,
      "note": 45,
      "start": 38.2123,
      "duration": 0.101,
      "velocity": 105,
      "chip": "ym2612"
    },
    {
      "channel": 0,
      "note": 49,
      "start": 38.3118,
      "duration": 0.1162,
      "velocity": 102,
      "chip": "ym2612"
    },
    {
      "channel": 1,
      "note": 100,
      "start": 38.3122,
      "duration": 0.0659,
      "velocity": 109,
      "chip": "ym2612"
    },
    {
      "channel": 3,
      "note": 71,
      "start": 38.3129,
      "duration": 0.1323,
      "velocity": 127,
      "chip": "ym2612"
    },
    {
      "channel": 4,
      "note": 66,
      "start": 38.3132,
      "duration": 0.132,
      "velocity": 127,
      "chip": "ym2612"
    },
    {
      "channel": 1,
      "note": 100,
      "start": 38.3949,
      "duration": 0.0832,
      "velocity": 109,
      "chip": "ym2612"
    },
    {
      "channel": 5,
      "note": 42,
      "start": 38.3958,
      "duration": 2.1175,
      "velocity": 105,
      "chip": "ym2612"
    },
    {
      "channel": 0,
      "note": 49,
      "start": 38.4949,
      "duration": 0.1167,
      "velocity": 102,
      "chip": "ym2612"
    },
    {
      "channel": 1,
      "note": 100,
      "start": 38.4952,
      "duration": 0.1664,
      "velocity": 109,
      "chip": "ym2612"
    },
    {
      "channel": 3,
      "note": 71,
      "start": 38.4961,
      "duration": 0.1324,
      "velocity": 127,
      "chip": "ym2612"
    },
    {
      "channel": 4,
      "note": 66,
      "start": 38.4965,
      "duration": 0.1321,
      "velocity": 127,
      "chip": "ym2612"
    },
    {
      "channel": 0,
      "note": 49,
      "start": 38.6783,
      "duration": 0.1164,
      "velocity": 102,
      "chip": "ym2612"
    },
    {
      "channel": 1,
      "note": 100,
      "start": 38.6786,
      "duration": 0.1662,
      "velocity": 109,
      "chip": "ym2612"
    },
    {
      "channel": 3,
      "note": 71,
      "start": 38.6793,
      "duration": 0.1327,
      "velocity": 127,
      "chip": "ym2612"
    },
    {
      "channel": 4,
      "note": 66,
      "start": 38.6797,
      "duration": 0.1324,
      "velocity": 127,
      "chip": "ym2612"
    },
    {
      "channel": 0,
      "note": 49,
      "start": 38.8618,
      "duration": 0.1162,
      "velocity": 102,
      "chip": "ym2612"
    },
    {
      "channel": 3,
      "note": 71,
      "start": 38.8628,
      "duration": 0.1324,
      "velocity": 127,
      "chip": "ym2612"
    },
    {
      "channel": 4,
      "note": 66,
      "start": 38.8631,
      "duration": 0.1321,
      "velocity": 127,
      "chip": "ym2612"
    },
    {
      "channel": 0,
      "note": 49,
      "start": 39.0449,
      "duration": 0.1167,
      "velocity": 102,
      "chip": "ym2612"
    },
    {
      "channel": 1,
      "note": 100,
      "start": 39.0452,
      "duration": 0.0664,
      "velocity": 109,
      "chip": "ym2612"
    },
    {
      "channel": 3,
      "note": 71,
      "start": 39.0461,
      "duration": 0.1324,
      "velocity": 127,
      "chip": "ym2612"
    },
    {
      "channel": 4,
      "note": 66,
      "start": 39.0464,
      "duration": 0.1322,
      "velocity": 127,
      "chip": "ym2612"
    },
    {
      "channel": 1,
      "note": 100,
      "start": 39.1282,
      "duration": 0.0835,
      "velocity": 109,
      "chip": "ym2612"
    },
    {
      "channel": 0,
      "note": 49,
      "start": 39.2283,
      "duration": 0.1164,
      "velocity": 102,
      "chip": "ym2612"
    },
    {
      "channel": 1,
      "note": 100,
      "start": 39.2286,
      "duration": 0.1662,
      "velocity": 109,
      "chip": "ym2612"
    },
    {
      "channel": 3,
      "note": 69,
      "start": 39.2294,
      "duration": 0.1326,
      "velocity": 127,
      "chip": "ym2612"
    },
    {
      "channel": 4,
      "note": 64,
      "start": 39.2297,
      "duration": 0.1324,
      "velocity": 127,
      "chip": "ym2612"
    },
    {
      "channel": 0,
      "note": 49,
      "start": 39.4118,
      "duration": 0.1162,
      "velocity": 102,
      "chip": "ym2612"
    },
    {
      "channel": 1,
      "note": 100,
      "start": 39.4122,
      "duration": 0.0659,
      "velocity": 109,
      "chip": "ym2612"
    },
    {
      "channel": 3,
      "note": 69,
      "start": 39.4129,
      "duration": 0.1322,
      "velocity": 127,
      "chip": "ym2612"
    },
    {
      "channel": 4,
      "note": 64,
      "start": 39.4133,
      "duration": 0.1319,
      "velocity": 127,
      "chip": "ym2612"
    },
    {
      "channel": 1,
      "note": 100,
      "start": 39.4949,
      "duration": 0.0832,
      "velocity": 109,
      "chip": "ym2612"
    },
    {
      "channel": 0,
      "note": 49,
      "start": 39.5949,
      "duration": 0.1167,
      "velocity": 102,
      "chip": "ym2612"
    },
    {
      "channel": 1,
      "note": 100,
      "start": 39.5952,
      "duration": 0.1664,
      "velocity": 109,
      "chip": "ym2612"
    },
    {
      "channel": 3,
      "note": 69,
      "start": 39.5959,
      "duration": 0.1325,
      "velocity": 127,
      "chip": "ym2612"
    },
    {
      "channel": 4,
      "note": 64,
      "start": 39.5963,
      "duration": 0.1322,
      "velocity": 127,
      "chip": "ym2612"
    },
    {
      "channel": 0,
      "note": 49,
      "start": 39.7783,
      "duration": 0.1164,
      "velocity": 102,
      "chip": "ym2612"
    },
    {
      "channel": 1,
      "note": 100,
      "start": 39.7786,
      "duration": 0.1662,
      "velocity": 109,
      "chip": "ym2612"
    },
    {
      "channel": 3,
      "note": 71,
      "start": 39.7794,
      "duration": 0.1326,
      "velocity": 127,
      "chip": "ym2612"
    },
    {
      "channel": 4,
      "note": 66,
      "start": 39.7797,
      "duration": 0.1324,
      "velocity": 127,
      "chip": "ym2612"
    },
    {
      "channel": 0,
      "note": 49,
      "start": 39.9618,
      "duration": 0.1162,
      "velocity": 102,
      "chip": "ym2612"
    },
    {
      "channel": 1,
      "note": 100,
      "start": 39.9622,
      "duration": 0.0659,
      "velocity": 109,
      "chip": "ym2612"
    },
    {
      "channel": 3,
      "note": 71,
      "start": 39.9629,
      "duration": 0.1323,
      "velocity": 127,
      "chip": "ym2612"
    },
    {
      "channel": 4,
      "note": 66,
      "start": 39.9632,
      "duration": 0.1321,
      "velocity": 127,
      "chip": "ym2612"
    },
    {
      "channel": 1,
      "note": 100,
      "start": 40.0449,
      "duration": 0.0832,
      "velocity": 109,
      "chip": "ym2612"
    },
    {
      "channel": 0,
      "note": 49,
      "start": 40.1449,
      "duration": 0.1167,
      "velocity": 102,
      "chip": "ym2612"
    },
    {
      "channel": 1,
      "note": 100,
      "start": 40.1452,
      "duration": 0.1664,
      "velocity": 109,
      "chip": "ym2612"
    },
    {
      "channel": 3,
      "note": 71,
      "start": 40.1461,
      "duration": 0.1324,
      "velocity": 127,
      "chip": "ym2612"
    },
    {
      "channel": 4,
      "note": 66,
      "start": 40.1464,
      "duration": 0.1322,
      "velocity": 127,
      "chip": "ym2612"
    },
    {
      "channel": 0,
      "note": 49,
      "start": 40.3283,
      "duration": 0.1164,
      "velocity": 102,
      "chip": "ym2612"
    },
    {
      "channel": 1,
      "note": 100,
      "start": 40.3286,
      "duration": 0.1662,
      "velocity": 109,
      "chip": "ym2612"
    },
    {
      "channel": 2,
      "note": 42,
      "start": 40.3288,
      "duration": 0.2829,
      "velocity": 105,
      "chip": "ym2612"
    },
    {
      "channel": 3,
      "note": 71,
      "start": 40.3296,
      "duration": 0.1324,
      "velocity": 127,
      "chip": "ym2612"
    },
    {
      "channel": 4,
      "note": 66,
      "start": 40.33,
      "duration": 0.1322,
      "velocity": 127,
      "chip": "ym2612"
    },
    {
      "channel": 0,
      "note": 49,
      "start": 40.5118,
      "duration": 0.1162,
      "velocity": 102,
      "chip": "ym2612"
    },
    {
      "channel": 1,
      "note": 100,
      "start": 40.512,
      "duration": 0.166,
      "velocity": 109,
      "chip": "ym2612"
    },
    {
      "channel": 3,
      "note": 71,
      "start": 40.5128,
      "duration": 0.1324,
      "velocity": 127,
      "chip": "ym2612"
    },
    {
      "channel": 4,
      "note": 66,
      "start": 40.5131,
      "duration": 0.1321,
      "velocity": 127,
      "chip": "ym2612"
    },
    {
      "channel": 5,
      "note": 42,
      "start": 40.5955,
      "duration": 0.2845,
      "velocity": 105,
      "chip": "ym2612"
    },
    {
      "channel": 0,
      "note": 49,
      "start": 40.6949,
      "duration": 0.1167,
      "velocity": 102,
      "chip": "ym2612"
    },
    {
      "channel": 1,
      "note": 100,
      "start": 40.6952,
      "duration": 0.0664,
      "velocity": 109,
      "chip": "ym2612"
    },
    {
      "channel": 2,
      "note": 45,
      "start": 40.6955,
      "duration": 0.0993,
      "velocity": 105,
      "chip": "ym2612"
    },
    {
      "channel": 3,
      "note": 69,
      "start": 40.6963,
      "duration": 0.1322,
      "velocity": 127,
      "chip": "ym2612"
    },
    {
      "channel": 4,
      "note": 64,
      "start": 40.6967,
      "duration": 0.1319,
      "velocity": 127,
      "chip": "ym2612"
    },
    {
      "channel": 1,
      "note": 100,
      "start": 40.7783,
      "duration": 0.0834,
      "velocity": 109,
      "chip": "ym2612"
    },
    {
      "channel": 0,
      "note": 49,
      "start": 40.8783,
      "duration": 0.1163,
      "velocity": 102,
      "chip": "ym2612"
    },
    {
      "channel": 1,
      "note": 100,
      "start": 40.8786,
      "duration": 0.0662,
      "velocity": 109,
      "chip": "ym2612"
    },
    {
      "channel": 2,
      "note": 42,
      "start": 40.8788,
      "duration": 0.0993,
      "velocity": 105,
      "chip": "ym2612"
    },
    {
      "channel": 3,
      "note": 69,
      "start": 40.8795,
      "duration": 0.1326,
      "velocity": 127,
      "chip": "ym2612"
    },
    {
      "channel": 4,
      "note": 64,
      "start": 40.8798,
      "duration": 0.1323,
      "velocity": 127,
      "chip": "ym2612"
    },
    {
      "channel": 1,
      "note": 100,
      "start": 40.9618,
      "duration": 0.0829,
      "velocity": 109,
      "chip": "ym2612"
    },
    {
      "channel": 5,
      "note": 45,
      "start": 40.9627,
      "duration": 0.1011,
      "velocity": 105,
      "chip": "ym2612"
    },
    {
      "channel": 0,
      "note": 50,
      "start": 41.0618,
      "duration": 0.1162,
      "velocity": 102,
      "chip": "ym2612"
    },
    {
      "channel": 1,
      "note": 100,
      "start": 41.0622,
      "duration": 0.1659,
      "velocity": 109,
      "chip": "ym2612"
    },
    {
      "channel": 2,
      "note": 47,
      "start": 41.0624,
      "duration": 1.7493,
      "velocity": 105,
      "chip": "ym2612"
    },
    {
      "channel": 3,
      "note": 71,
      "start": 41.0634,
      "duration": 0.1318,
      "velocity": 127,
      "chip": "ym2612"
    },
    {
      "channel": 4,
      "note": 66,
      "start": 41.0637,
      "duration": 0.1315,
      "velocity": 127,
      "chip": "ym2612"
    },
    {
      "channel": 5,
      "note": 42,
      "start": 41.1454,
      "duration": 0.101,
      "velocity": 105,
      "chip": "ym2612"
    },
    {
      "channel": 0,
      "note": 50,
      "start": 41.2449,
      "duration": 0.1167,
      "velocity": 102,
      "chip": "ym2612"
    },
    {
      "channel": 1,
      "note": 100,
      "start": 41.2452,
      "duration": 0.0664,
      "velocity": 109,
      "chip": "ym2612"
    },
    {
      "channel": 3,
      "note": 71,
      "start": 41.2459,
      "duration": 0.1326,
      "velocity": 127,
      "chip": "ym2612"
    },
    {
      "channel": 4,
      "note": 66,
      "start": 41.2463,
      "duration": 0.1322,
      "velocity": 127,
      "chip": "ym2612"
    },
    {
      "channel": 1,
      "note": 100,
      "start": 41.3282,
      "duration": 0.0835,
      "velocity": 109,
      "chip": "ym2612"
    },
    {
      "channel": 5,
      "note": 47,
      "start": 41.3291,
      "duration": 1.751,
      "velocity": 105,
      "chip": "ym2612"
    },
    {
      "channel": 0,
      "note": 50,
      "start": 41.4283,
      "duration": 0.1164,
      "velocity": 102,
      "chip": "ym2612"
    },
    {
      "channel": 1,
      "note": 100,
      "start": 41.4286,
      "duration": 0.1662,
      "velocity": 109,
      "chip": "ym2612"
    },
    {
      "channel": 3,
      "note": 71,
      "start": 41.4295,
      "duration": 0.1325,
      "velocity": 127,
      "chip": "ym2612"
    },
    {
      "channel": 4,
      "note": 66,
      "start": 41.4298,
      "duration": 0.1323,
      "velocity": 127,
      "chip": "ym2612"
    },
    {
      "channel": 0,
      "note": 50,
      "start": 41.6118,
      "duration": 0.1162,
      "velocity": 102,
      "chip": "ym2612"
    },
    {
      "channel": 1,
      "note": 100,
      "start": 41.6122,
      "duration": 0.1659,
      "velocity": 109,
      "chip": "ym2612"
    },
    {
      "channel": 3,
      "note": 71,
      "start": 41.6129,
      "duration": 0.1322,
      "velocity": 127,
      "chip": "ym2612"
    },
    {
      "channel": 4,
      "note": 66,
      "start": 41.6133,
      "duration": 0.1319,
      "velocity": 127,
      "chip": "ym2612"
    },
    {
      "channel": 0,
      "note": 50,
      "start": 41.7949,
      "duration": 0.1167,
      "velocity": 102,
      "chip": "ym2612"
    },
    {
      "channel": 3,
      "note": 71,
      "start": 41.7959,
      "duration": 0.1326,
      "velocity": 127,
      "chip": "ym2612"
    },
    {
      "channel": 4,
      "note": 66,
      "start": 41.7962,
      "duration": 0.1324,
      "velocity": 127,
      "chip": "ym2612"
    },
    {
      "channel": 0,
      "note": 50,
      "start": 41.9783,
      "duration": 0.1164,
      "velocity": 102,
      "chip": "ym2612"
    },
    {
      "channel": 1,
      "note": 100,
      "start": 41.9784,
      "duration": 0.1663,
      "velocity": 109,
      "chip": "ym2612"
    },
    {
      "channel": 3,
      "note": 71,
      "start": 41.9793,
      "duration": 0.1328,
      "velocity": 127,
      "chip": "ym2612"
    },
    {
      "channel": 4,
      "note": 66,
      "start": 41.9797,
      "duration": 0.1325,
      "velocity": 127,
      "chip": "ym2612"
    },
    {
      "channel": 0,
      "note": 50,
      "start": 42.1618,
      "duration": 0.1162,
      "velocity": 102,
      "chip": "ym2612"
    },
    {
      "channel": 3,
      "note": 69,
      "start": 42.1627,
      "duration": 0.1324,
      "velocity": 127,
      "chip": "ym2612"
    },
    {
      "channel": 4,
      "note": 64,
      "start": 42.1631,
      "duration": 0.1322,
      "velocity": 127,
      "chip": "ym2612"
    },
    {
      "channel": 0,
      "note": 50,
      "start": 42.3449,
      "duration": 0.1167,
      "velocity": 102,
      "chip": "ym2612"
    },
    {
      "channel": 1,
      "note": 100,
      "start": 42.3452,
      "duration": 0.0664,
      "velocity": 109,
      "chip": "ym2612"
    },
    {
      "channel": 3,
      "note": 69,
      "start": 42.346,
      "duration": 0.1325,
      "velocity": 127,
      "chip": "ym2612"
    },
    {
      "channel": 4,
      "note": 64,
      "start": 42.3464,
      "duration": 0.1322,
      "velocity": 127,
      "chip": "ym2612"
    },
    {
      "channel": 1,
      "note": 100,
      "start": 42.4282,
      "duration": 0.0835,
      "velocity": 109,
      "chip": "ym2612"
    },
    {
      "channel": 0,
      "note": 50,
      "start": 42.5283,
      "duration": 0.1164,
      "velocity": 102,
      "chip": "ym2612"
    },
    {
      "channel": 1,
      "note": 100,
      "start": 42.5286,
      "duration": 0.1662,
      "velocity": 109,
      "chip": "ym2612"
    },
    {
      "channel": 3,
      "note": 69,
      "start": 42.5293,
      "duration": 0.1328,
      "velocity": 127,
      "chip": "ym2612"
    },
    {
      "channel": 4,
      "note": 64,
      "start": 42.5297,
      "duration": 0.1324,
      "velocity": 127,
      "chip": "ym2612"
    },
    {
      "channel": 0,
      "note": 50,
      "start": 42.7118,
      "duration": 0.1162,
      "velocity": 102,
      "chip": "ym2612"
    },
    {
      "channel": 1,
      "note": 100,
      "start": 42.7122,
      "duration": 0.1659,
      "velocity": 109,
      "chip": "ym2612"
    },
    {
      "channel": 3,
      "note": 71,
      "start": 42.7129,
      "duration": 0.1322,
      "velocity": 127,
      "chip": "ym2612"
    },
    {
      "channel": 4,
      "note": 66,
      "start": 42.7133,
      "duration": 0.132,
      "velocity": 127,
      "chip": "ym2612"
    },
    {
      "channel": 0,
      "note": 50,
      "start": 42.8949,
      "duration": 0.1167,
      "velocity": 102,
      "chip": "ym2612"
    },
    {
      "channel": 1,
      "note": 100,
      "start": 42.8951,
      "duration": 0.1666,
      "velocity": 109,
      "chip": "ym2612"
    },
    {
      "channel": 2,
      "note": 49,
      "start": 42.8954,
      "duration": 0.0994,
      "velocity": 105,
      "chip": "ym2612"
    },
    {
      "channel": 3,
      "note": 71,
      "start": 42.8961,
      "duration": 0.1324,
      "velocity": 127,
      "chip": "ym2612"
    },
    {
      "channel": 4,
      "note": 66,
      "start": 42.8964,
      "duration": 0.1322,
      "velocity": 127,
      "chip": "ym2612"
    },
    {
      "channel": 0,
      "note": 50,
      "start": 43.0782,
      "duration": 0.1165,
      "velocity": 102,
      "chip": "ym2612"
    },
    {
      "channel": 1,
      "note": 100,
      "start": 43.0786,
      "duration": 0.0662,
      "velocity": 109,
      "chip": "ym2612"
    },
    {
      "channel": 2,
      "note": 50,
      "start": 43.0788,
      "duration": 0.0993,
      "velocity": 105,
      "chip": "ym2612"
    },
    {
      "channel": 3,
      "note": 71,
      "start": 43.0796,
      "duration": 0.1325,
      "velocity": 127,
      "chip": "ym2612"
    },
    {
      "channel": 4,
      "note": 66,
      "start": 43.08,
      "duration": 0.1322,
      "velocity": 127,
      "chip": "ym2612"
    },
    {
      "channel": 1,
      "note": 100,
      "start": 43.1618,
      "duration": 0.083,
      "velocity": 109,
      "chip": "ym2612"
    },
    {
      "channel": 5,
      "note": 49,
      "start": 43.1625,
      "duration": 0.1012,
      "velocity": 105,
      "chip": "ym2612"
    },
    {
      "channel": 0,
      "note": 50,
      "start": 43.2618,
      "duration": 0.1162,
      "velocity": 102,
      "chip": "ym2612"
    },
    {
      "channel": 1,
      "note": 100,
      "start": 43.2622,
      "duration": 0.1659,
      "velocity": 109,
      "chip": "ym2612"
    },
    {
      "channel": 2,
      "note": 52,
      "start": 43.2624,
      "duration": 0.2824,
      "velocity": 105,
      "chip": "ym2612"
    },
    {
      "channel": 3,
      "note": 71,
      "start": 43.2632,
      "duration": 0.132,
      "velocity": 127,
      "chip": "ym2612"
    },
    {
      "channel": 4,
      "note": 66,
      "start": 43.2635,
      "duration": 0.1317,
      "velocity": 127,
      "chip": "ym2612"
    },
    {
      "channel": 5,
      "note": 50,
      "start": 43.3454,
      "duration": 0.1008,
      "velocity": 105,
      "chip": "ym2612"
    },
    {
      "channel": 0,
      "note": 50,
      "start": 43.4449,
      "duration": 0.1167,
      "velocity": 102,
      "chip": "ym2612"
    },
    {
      "channel": 3,
      "note": 71,
      "start": 43.4458,
      "duration": 0.1327,
      "velocity": 127,
      "chip": "ym2612"
    },
    {
      "channel": 4,
      "note": 66,
      "start": 43.4461,
      "duration": 0.1325,
      "velocity": 127,
      "chip": "ym2612"
    },
    {
      "channel": 5,
      "note": 52,
      "start": 43.5288,
      "duration": 0.2846,
      "velocity": 105,
      "chip": "ym2612"
    },
    {
      "channel": 0,
      "note": 50,
      "start": 43.6283,
      "duration": 0.1164,
      "velocity": 102,
      "chip": "ym2612"
    },
    {
      "channel": 1,
      "note": 100,
      "start": 43.6286,
      "duration": 0.1662,
      "velocity": 109,
      "chip": "ym2612"
    },
    {
      "channel": 2,
      "note": 45,
      "start": 43.6288,
      "duration": 0.2829,
      "velocity": 105,
      "chip": "ym2612"
    },
    {
      "channel": 3,
      "note": 69,
      "start": 43.6297,
      "duration": 0.1324,
      "velocity": 127,
      "chip": "ym2612"
    },
    {
      "channel": 4,
      "note": 64,
      "start": 43.63,
      "duration": 0.1322,
      "velocity": 127,
      "chip": "ym2612"
    },
    {
      "channel": 0,
      "note": 50,
      "start": 43.8119,
      "duration": 0.1161,
      "velocity": 102,
      "chip": "ym2612"
    },
    {
      "channel": 1,
      "note": 100,
      "start": 43.8122,
      "duration": 0.1659,
      "velocity": 109,
      "chip": "ym2612"
    },
    {
      "channel": 3,
      "note": 69,
      "start": 43.8129,
      "duration": 0.1322,
      "velocity": 127,
      "chip": "ym2612"
    },
    {
      "channel": 4,
      "note": 64,
      "start": 43.8132,
      "duration": 0.1321,
      "velocity": 127,
      "chip": "ym2612"
    },
    {
      "channel": 5,
      "note": 45,
      "start": 43.8955,
      "duration": 0.2843,
      "velocity": 105,
      "chip": "ym2612"
    },
    {
      "channel": 0,
      "note": 52,
      "start": 43.9949,
      "duration": 0.1167,
      "velocity": 102,
      "chip": "ym2612"
    },
    {
      "channel": 1,
      "note": 100,
      "start": 43.9952,
      "duration": 0.1665,
      "velocity": 109,
      "chip": "ym2612"
    },
    {
      "channel": 2,
      "note": 54,
      "start": 43.9954,
      "duration": 1.3827,
      "velocity": 105,
      "chip": "ym2612"
    },
    {
      "channel": 3,
      "note": 71,
      "start": 43.9963,
      "duration": 0.1322,
      "velocity": 127,
      "chip": "ym2612"
    },
    {
      "channel": 4,
      "note": 66,
      "start": 43.9967,
      "duration": 0.1319,
      "velocity": 127,
      "chip": "ym2612"
    },
    {
      "channel": 0,
      "note": 52,
      "start": 44.1782,
      "duration": 0.1165,
      "velocity": 102,
      "chip": "ym2612"
    },
    {
      "channel": 1,
      "note": 100,
      "start": 44.1786,
      "duration": 0.0662,
      "velocity": 109,
      "chip": "ym2612"
    },
    {
      "channel": 3,
      "note": 71,
      "start": 44.1793,
      "duration": 0.1328,
      "velocity": 127,
      "chip": "ym2612"
    },
    {
      "channel": 4,
      "note": 66,
      "start": 44.1797,
      "duration": 0.1325,
      "velocity": 127,
      "chip": "ym2612"
    },
    {
      "channel": 1,
      "note": 100,
      "start": 44.2618,
      "duration": 0.083,
      "velocity": 109,
      "chip": "ym2612"
    },
    {
      "channel": 5,
      "note": 54,
      "start": 44.2626,
      "duration": 1.3839,
      "velocity": 105,
      "chip": "ym2612"
    },
    {
      "channel": 0,
      "note": 52,
      "start": 44.3618,
      "duration": 0.1162,
      "velocity": 102,
      "chip": "ym2612"
    },
    {
      "channel": 1,
      "note": 100,
      "start": 44.3622,
      "duration": 0.166,
      "velocity": 109,
      "chip": "ym2612"
    },
    {
      "channel": 3,
      "note": 71,
      "start": 44.3631,
      "duration": 0.1321,
      "velocity": 127,
      "chip": "ym2612"
    },
    {
      "channel": 4,
      "note": 66,
      "start": 44.3634,
      "duration": 0.1318,
      "velocity": 127,
      "chip": "ym2612"
    },
    {
      "channel": 0,
      "note": 52,
      "start": 44.5449,
      "duration": 0.1167,
      "velocity": 102,
      "chip": "ym2612"
    },
    {
      "channel": 1,
      "note": 100,
      "start": 44.5452,
      "duration": 0.1664,
      "velocity": 109,
      "chip": "ym2612"
    },
    {
      "channel": 3,
      "note": 71,
      "start": 44.546,
      "duration": 0.1325,
      "velocity": 127,
      "chip": "ym2612"
    },
    {
      "channel": 4,
      "note": 66,
      "start": 44.5464,
      "duration": 0.1322,
      "velocity": 127,
      "chip": "ym2612"
    },
    {
      "channel": 0,
      "note": 52,
      "start": 44.7282,
      "duration": 0.1165,
      "velocity": 102,
      "chip": "ym2612"
    },
    {
      "channel": 3,
      "note": 71,
      "start": 44.7292,
      "duration": 0.1328,
      "velocity": 127,
      "chip": "ym2612"
    },
    {
      "channel": 4,
      "note": 66,
      "start": 44.7295,
      "duration": 0.1326,
      "velocity": 127,
      "chip": "ym2612"
    },
    {
      "channel": 0,
      "note": 52,
      "start": 44.9118,
      "duration": 0.1162,
      "velocity": 102,
      "chip": "ym2612"
    },
    {
      "channel": 1,
      "note": 100,
      "start": 44.9122,
      "duration": 0.0659,
      "velocity": 109,
      "chip": "ym2612"
    },
    {
      "channel": 3,
      "note": 71,
      "start": 44.913,
      "duration": 0.1322,
      "velocity": 127,
      "chip": "ym2612"
    },
    {
      "channel": 4,
      "note": 66,
      "start": 44.9133,
      "duration": 0.1319,
      "velocity": 127,
      "chip": "ym2612"
    },
    {
      "channel": 1,
      "note": 100,
      "start": 44.9949,
      "duration": 0.0832,
      "velocity": 109,
      "chip": "ym2612"
    },
    {
      "channel": 0,
      "note": 52,
      "start": 45.0949,
      "duration": 0.1167,
      "velocity": 102,
      "chip": "ym2612"
    },
    {
      "channel": 1,
      "note": 100,
      "start": 45.0953,
      "duration": 0.1663,
      "velocity": 109,
      "chip": "ym2612"
    },
    {
      "channel": 3,
      "note": 69,
      "start": 45.0961,
      "duration": 0.1324,
      "velocity": 127,
      "chip": "ym2612"
    },
    {
      "channel": 4,
      "note": 64,
      "start": 45.0964,
      "duration": 0.1322,
      "velocity": 127,
      "chip": "ym2612"
    },
    {
      "channel": 0,
      "note": 52,
      "start": 45.2783,
      "duration": 0.1164,
      "velocity": 102,
      "chip": "ym2612"
    },
    {
      "channel": 1,
      "note": 100,
      "start": 45.2786,
      "duration": 0.0662,
      "velocity": 109,
      "chip": "ym2612"
    },
    {
      "channel": 3,
      "note": 69,
      "start": 45.2794,
      "duration": 0.1327,
      "velocity": 127,
      "chip": "ym2612"
    },
    {
      "channel": 4,
      "note": 64,
      "start": 45.2797,
      "duration": 0.1324,
      "velocity": 127,
      "chip": "ym2612"
    },
    {
      "channel": 1,
      "note": 100,
      "start": 45.3618,
      "duration": 0.083,
      "velocity": 109,
      "chip": "ym2612"
    },
    {
      "channel": 0,
      "note": 52,
      "start": 45.4618,
      "duration": 0.1162,
      "velocity": 102,
      "chip": "ym2612"
    },
    {
      "channel": 1,
      "note": 100,
      "start": 45.4622,
      "duration": 0.1659,
      "velocity": 109,
      "chip": "ym2612"
    },
    {
      "channel": 2,
      "note": 52,
      "start": 45.4624,
      "duration": 0.6494,
      "velocity": 105,
      "chip": "ym2612"
    },
    {
      "channel": 3,
      "note": 69,
      "start": 45.4631,
      "duration": 0.132,
      "velocity": 127,
      "chip": "ym2612"
    },
    {
      "channel": 4,
      "note": 64,
      "start": 45.4634,
      "duration": 0.1318,
      "velocity": 127,
      "chip": "ym2612"
    },
    {
      "channel": 0,
      "note": 52,
      "start": 45.6449,
      "duration": 0.1167,
      "velocity": 102,
      "chip": "ym2612"
    },
    {
      "channel": 1,
      "note": 100,
      "start": 45.6452,
      "duration": 0.1664,
      "velocity": 109,
      "chip": "ym2612"
    },
    {
      "channel": 3,
      "note": 71,
      "start": 45.6461,
      "duration": 0.1324,
      "velocity": 127,
      "chip": "ym2612"
    },
    {
      "channel": 4,
      "note": 66,
      "start": 45.6464,
      "duration": 0.1322,
      "velocity": 127,
      "chip": "ym2612"
    },
    {
      "channel": 5,
      "note": 52,
      "start": 45.7287,
      "duration": 0.651,
      "velocity": 105,
      "chip": "ym2612"
    },
    {
      "channel": 0,
      "note": 52,
      "start": 45.8283,
      "duration": 0.1164,
      "velocity": 102,
      "chip": "ym2612"
    },
    {
      "channel": 1,
      "note": 100,
      "start": 45.8286,
      "duration": 0.0662,
      "velocity": 109,
      "chip": "ym2612"
    },
    {
      "channel": 3,
      "note": 71,
      "start": 45.8293,
      "duration": 0.1328,
      "velocity": 127,
      "chip": "ym2612"
    },
    {
      "channel": 4,
      "note": 66,
      "start": 45.8297,
      "duration": 0.1325,
      "velocity": 127,
      "chip": "ym2612"
    },
    {
      "channel": 1,
      "note": 100,
      "start": 45.9118,
      "duration": 0.083,
      "velocity": 109,
      "chip": "ym2612"
    },
    {
      "channel": 0,
      "note": 52,
      "start": 46.0118,
      "duration": 0.1162,
      "velocity": 102,
      "chip": "ym2612"
    },
    {
      "channel": 1,
      "note": 100,
      "start": 46.0122,
      "duration": 0.1659,
      "velocity": 109,
      "chip": "ym2612"
    },
    {
      "channel": 3,
      "note": 71,
      "start": 46.013,
      "duration": 0.1322,
      "velocity": 127,
      "chip": "ym2612"
    },
    {
      "channel": 4,
      "note": 66,
      "start": 46.0133,
      "duration": 0.132,
      "velocity": 127,
      "chip": "ym2612"
    },
    {
      "channel": 0,
      "note": 52,
      "start": 46.1949,
      "duration": 0.1167,
      "velocity": 102,
      "chip": "ym2612"
    },
    {
      "channel": 1,
      "note": 100,
      "start": 46.1953,
      "duration": 0.1663,
      "velocity": 109,
      "chip": "ym2612"
    },
    {
      "channel": 2,
      "note": 42,
      "start": 46.1956,
      "duration": 0.6492,
      "velocity": 105,
      "chip": "ym2612"
    },
    {
      "channel": 3,
      "note": 71,
      "start": 46.1963,
      "duration": 0.1322,
      "velocity": 127,
      "chip": "ym2612"
    },
    {
      "channel": 4,
      "note": 66,
      "start": 46.1966,
      "duration": 0.1319,
      "velocity": 127,
      "chip": "ym2612"
    },
    {
      "channel": 0,
      "note": 52,
      "start": 46.3783,
      "duration": 0.1164,
      "velocity": 102,
      "chip": "ym2612"
    },
    {
      "channel": 1,
      "note": 100,
      "start": 46.3784,
      "duration": 0.1663,
      "velocity": 109,
      "chip": "ym2612"
    },
    {
      "channel": 3,
      "note": 71,
      "start": 46.3792,
      "duration": 0.1328,
      "velocity": 127,
      "chip": "ym2612"
    },
    {
      "channel": 4,
      "note": 66,
      "start": 46.3795,
      "duration": 0.1326,
      "velocity": 127,
      "chip": "ym2612"
    },
    {
      "channel": 5,
      "note": 42,
      "start": 46.4624,
      "duration": 0.651,
      "velocity": 105,
      "chip": "ym2612"
    },
    {
      "channel": 0,
      "note": 52,
      "start": 46.5618,
      "duration": 0.1162,
      "velocity": 102,
      "chip": "ym2612"
    },
    {
      "channel": 1,
      "note": 100,
      "start": 46.5622,
      "duration": 0.0659,
      "velocity": 109,
      "chip": "ym2612"
    },
    {
      "channel": 3,
      "note": 69,
      "start": 46.5631,
      "duration": 0.1321,
      "velocity": 127,
      "chip": "ym2612"
    },
    {
      "channel": 4,
      "note": 64,
      "start": 46.5634,
      "duration": 0.1319,
      "velocity": 127,
      "chip": "ym2612"
    },
    {
      "channel": 1,
      "note": 100,
      "start": 46.6449,
      "duration": 0.0832,
      "velocity": 109,
      "chip": "ym2612"
    },
    {
      "channel": 0,
      "note": 52,
      "start": 46.745,
      "duration": 0.1166,
      "velocity": 102,
      "chip": "ym2612"
    },
    {
      "channel": 1,
      "note": 100,
      "start": 46.7452,
      "duration": 0.0664,
      "velocity": 109,
      "chip": "ym2612"
    },
    {
      "channel": 3,
      "note": 69,
      "start": 46.7461,
      "duration": 0.1324,
      "velocity": 127,
      "chip": "ym2612"
    },
    {
      "channel": 4,
      "note": 64,
      "start": 46.7464,
      "duration": 0.1322,
      "velocity": 127,
      "chip": "ym2612"
    },
    {
      "channel": 1,
      "note": 100,
      "start": 46.8283,
      "duration": 0.0834,
      "velocity": 109,
      "chip": "ym2612"
    },
    {
      "channel": 0,
      "note": 47,
      "start": 46.9283,
      "duration": 0.1164,
      "velocity": 102,
      "chip": "ym2612"
    },
    {
      "channel": 1,
      "note": 100,
      "start": 46.9286,
      "duration": 0.1661,
      "velocity": 109,
      "chip": "ym2612"
    },
    {
      "channel": 2,
      "note": 47,
      "start": 46.9289,
      "duration": 8.7159,
      "velocity": 105,
      "chip": "ym2612"
    },
    {
      "channel": 3,
      "note": 71,
      "start": 46.9301,
      "duration": 0.132,
      "velocity": 127,
      "chip": "ym2612"
    },
    {
      "channel": 4,
      "note": 66,
      "start": 46.9307,
      "duration": 0.1315,
      "velocity": 127,
      "chip": "ym2612"
    },
    {
      "channel": 0,
      "note": 47,
      "start": 47.1118,
      "duration": 0.1162,
      "velocity": 102,
      "chip": "ym2612"
    },
    {
      "channel": 1,
      "note": 100,
      "start": 47.1122,
      "duration": 0.0659,
      "velocity": 109,
      "chip": "ym2612"
    },
    {
      "channel": 3,
      "note": 71,
      "start": 47.113,
      "duration": 0.1322,
      "velocity": 127,
      "chip": "ym2612"
    },
    {
      "channel": 4,
      "note": 66,
      "start": 47.1133,
      "duration": 0.1319,
      "velocity": 127,
      "chip": "ym2612"
    },
    {
      "channel": 1,
      "note": 100,
      "start": 47.1949,
      "duration": 0.0832,
      "velocity": 109,
      "chip": "ym2612"
    },
    {
      "channel": 5,
      "note": 47,
      "start": 47.1958,
      "duration": 8.717,
      "velocity": 105,
      "chip": "ym2612"
    },
    {
      "channel": 0,
      "note": 47,
      "start": 47.2949,
      "duration": 0.1167,
      "velocity": 102,
      "chip": "ym2612"
    },
    {
      "channel": 1,
      "note": 100,
      "start": 47.2952,
      "duration": 0.1664,
      "velocity": 109,
      "chip": "ym2612"
    },
    {
      "channel": 3,
      "note": 71,
      "start": 47.2963,
      "duration": 0.1322,
      "velocity": 127,
      "chip": "ym2612"
    },
    {
      "channel": 4,
      "note": 66,
      "start": 47.2966,
      "duration": 0.132,
      "velocity": 127,
      "chip": "ym2612"
    },
    {
      "channel": 0,
      "note": 47,
      "start": 47.4783,
      "duration": 0.1164,
      "velocity": 102,
      "chip": "ym2612"
    },
    {
      "channel": 1,
      "note": 100,
      "start": 47.4786,
      "duration": 0.1662,
      "velocity": 109,
      "chip": "ym2612"
    },
    {
      "channel": 3,
      "note": 71,
      "start": 47.4795,
      "duration": 0.1326,
      "velocity": 127,
      "chip": "ym2612"
    },
    {
      "channel": 4,
      "note": 66,
      "start": 47.4799,
      "duration": 0.1322,
      "velocity": 127,
      "chip": "ym2612"
    },
    {
      "channel": 0,
      "note": 47,
      "start": 47.6618,
      "duration": 0.1162,
      "velocity": 102,
      "chip": "ym2612"
    },
    {
      "channel": 3,
      "note": 71,
      "start": 47.6627,
      "duration": 0.1324,
      "velocity": 127,
      "chip": "ym2612"
    },
    {
      "channel": 4,
      "note": 66,
      "start": 47.6631,
      "duration": 0.1321,
      "velocity": 127,
      "chip": "ym2612"
    },
    {
      "channel": 0,
      "note": 47,
      "start": 47.8449,
      "duration": 0.1167,
      "velocity": 102,
      "chip": "ym2612"
    },
    {
      "channel": 1,
      "note": 100,
      "start": 47.8451,
      "duration": 0.1666,
      "velocity": 109,
      "chip": "ym2612"
    },
    {
      "channel": 3,
      "note": 71,
      "start": 47.8459,
      "duration": 0.1325,
      "velocity": 127,
      "chip": "ym2612"
    },
    {
      "channel": 4,
      "note": 66,
      "start": 47.8463,
      "duration": 0.1322,
      "velocity": 127,
      "chip": "ym2612"
    },
    {
      "channel": 0,
      "note": 47,
      "start": 48.0283,
      "duration": 0.1164,
      "velocity": 102,
      "chip": "ym2612"
    },
    {
      "channel": 3,
      "note": 69,
      "start": 48.0291,
      "duration": 0.1329,
      "velocity": 127,
      "chip": "ym2612"
    },
    {
      "channel": 4,
      "note": 64,
      "start": 48.0295,
      "duration": 0.1326,
      "velocity": 127,
      "chip": "ym2612"
    },
    {
      "channel": 0,
      "note": 47,
      "start": 48.2118,
      "duration": 0.1162,
      "velocity": 102,
      "chip": "ym2612"
    },
    {
      "channel": 1,
      "note": 100,
      "start": 48.2122,
      "duration": 0.0659,
      "velocity": 109,
      "chip": "ym2612"
    },
    {
      "channel": 3,
      "note": 69,
      "start": 48.2128,
      "duration": 0.1324,
      "velocity": 127,
      "chip": "ym2612"
    },
    {
      "channel": 4,
      "note": 64,
      "start": 48.2132,
      "duration": 0.1321,
      "velocity": 127,
      "chip": "ym2612"
    },
    {
      "channel": 1,
      "note": 100,
      "start": 48.2949,
      "duration": 0.0832,
      "velocity": 109,
      "chip": "ym2612"
    },
    {
      "channel": 0,
      "note": 47,
      "start": 48.3949,
      "duration": 0.1167,
      "velocity": 102,
      "chip": "ym2612"
    },
    {
      "channel": 1,
      "note": 100,
      "start": 48.3952,
      "duration": 0.1664,
      "velocity": 109,
      "chip": "ym2612"
    },
    {
      "channel": 3,
      "note": 69,
      "start": 48.3961,
      "duration": 0.1324,
      "velocity": 127,
      "chip": "ym2612"
    },
    {
      "channel": 4,
      "note": 64,
      "start": 48.3964,
      "duration": 0.1321,
      "velocity": 127,
      "chip": "ym2612"
    },
    {
      "channel": 0,
      "note": 47,
      "start": 48.5783,
      "duration": 0.1164,
      "velocity": 102,
      "chip": "ym2612"
    },
    {
      "channel": 1,
      "note": 100,
      "start": 48.5786,
      "duration": 0.1662,
      "velocity": 109,
      "chip": "ym2612"
    },
    {
      "channel": 3,
      "note": 71,
      "start": 48.5793,
      "duration": 0.1327,
      "velocity": 127,
      "chip": "ym2612"
    },
    {
      "channel": 4,
      "note": 66,
      "start": 48.5797,
      "duration": 0.1324,
      "velocity": 127,
      "chip": "ym2612"
    },
    {
      "channel": 0,
      "note": 47,
      "start": 48.7618,
      "duration": 0.1162,
      "velocity": 102,
      "chip": "ym2612"
    },
    {
      "channel": 1,
      "note": 100,
      "start": 48.762,
      "duration": 0.166,
      "velocity": 109,
      "chip": "ym2612"
    },
    {
      "channel": 3,
      "note": 71,
      "start": 48.763,
      "duration": 0.1322,
      "velocity": 127,
      "chip": "ym2612"
    },
    {
      "channel": 4,
      "note": 66,
      "start": 48.7634,
      "duration": 0.1319,
      "velocity": 127,
      "chip": "ym2612"
    },
    {
      "channel": 0,
      "note": 47,
      "start": 48.9449,
      "duration": 0.1167,
      "velocity": 102,
      "chip": "ym2612"
    },
    {
      "channel": 1,
      "note": 100,
      "start": 48.9452,
      "duration": 0.0664,
      "velocity": 109,
      "chip": "ym2612"
    },
    {
      "channel": 3,
      "note": 71,
      "start": 48.9461,
      "duration": 0.1324,
      "velocity": 127,
      "chip": "ym2612"
    },
    {
      "channel": 4,
      "note": 66,
      "start": 48.9465,
      "duration": 0.1321,
      "velocity": 127,
      "chip": "ym2612"
    },
    {
      "channel": 1,
      "note": 100,
      "start": 49.0282,
      "duration": 0.0835,
      "velocity": 109,
      "chip": "ym2612"
    },
    {
      "channel": 0,
      "note": 47,
      "start": 49.1283,
      "duration": 0.1164,
      "velocity": 102,
      "chip": "ym2612"
    },
    {
      "channel": 1,
      "note": 100,
      "start": 49.1286,
      "duration": 0.1662,
      "velocity": 109,
      "chip": "ym2612"
    },
    {
      "channel": 3,
      "note": 71,
      "start": 49.1294,
      "duration": 0.1326,
      "velocity": 127,
      "chip": "ym2612"
    },
    {
      "channel": 4,
      "note": 66,
      "start": 49.1297,
      "duration": 0.1324,
      "velocity": 127,
      "chip": "ym2612"
    },
    {
      "channel": 0,
      "note": 47,
      "start": 49.3118,
      "duration": 0.1162,
      "velocity": 102,
      "chip": "ym2612"
    },
    {
      "channel": 3,
      "note": 71,
      "start": 49.3127,
      "duration": 0.1324,
      "velocity": 127,
      "chip": "ym2612"
    },
    {
      "channel": 4,
      "note": 66,
      "start": 49.3131,
      "duration": 0.1321,
      "velocity": 127,
      "chip": "ym2612"
    },
    {
      "channel": 0,
      "note": 47,
      "start": 49.4949,
      "duration": 0.1167,
      "velocity": 102,
      "chip": "ym2612"
    },
    {
      "channel": 1,
      "note": 100,
      "start": 49.4952,
      "duration": 0.1664,
      "velocity": 109,
      "chip": "ym2612"
    },
    {
      "channel": 3,
      "note": 69,
      "start": 49.4959,
      "duration": 0.1325,
      "velocity": 127,
      "chip": "ym2612"
    },
    {
      "channel": 4,
      "note": 64,
      "start": 49.4963,
      "duration": 0.1322,
      "velocity": 127,
      "chip": "ym2612"
    },
    {
      "channel": 0,
      "note": 47,
      "start": 49.6783,
      "duration": 0.1163,
      "velocity": 102,
      "chip": "ym2612"
    },
    {
      "channel": 1,
      "note": 100,
      "start": 49.6786,
      "duration": 0.1662,
      "velocity": 109,
      "chip": "ym2612"
    },
    {
      "channel": 3,
      "note": 69,
      "start": 49.6793,
      "duration": 0.1328,
      "velocity": 127,
      "chip": "ym2612"
    },
    {
      "channel": 4,
      "note": 64,
      "start": 49.6796,
      "duration": 0.1326,
      "velocity": 127,
      "chip": "ym2612"
    },
    {
      "channel": 0,
      "note": 49,
      "start": 49.8618,
      "duration": 0.1162,
      "velocity": 102,
      "chip": "ym2612"
    },
    {
      "channel": 1,
      "note": 100,
      "start": 49.8621,
      "duration": 0.166,
      "velocity": 109,
      "chip": "ym2612"
    },
    {
      "channel": 3,
      "note": 71,
      "start": 49.8632,
      "duration": 0.1319,
      "velocity": 127,
      "chip": "ym2612"
    },
    {
      "channel": 4,
      "note": 66,
      "start": 49.8636,
      "duration": 0.1317,
      "velocity": 127,
      "chip": "ym2612"
    },
    {
      "channel": 0,
      "note": 49,
      "start": 50.0449,
      "duration": 0.1167,
      "velocity": 102,
      "chip": "ym2612"
    },
    {
      "channel": 1,
      "note": 100,
      "start": 50.0452,
      "duration": 0.0664,
      "velocity": 109,
      "chip": "ym2612"
    },
    {
      "channel": 3,
      "note": 71,
      "start": 50.046,
      "duration": 0.1325,
      "velocity": 127,
      "chip": "ym2612"
    },
    {
      "channel": 4,
      "note": 66,
      "start": 50.0463,
      "duration": 0.1323,
      "velocity": 127,
      "chip": "ym2612"
    },
    {
      "channel": 1,
      "note": 100,
      "start": 50.1282,
      "duration": 0.0835,
      "velocity": 109,
      "chip": "ym2612"
    },
    {
      "channel": 0,
      "note": 49,
      "start": 50.2283,
      "duration": 0.1164,
      "velocity": 102,
      "chip": "ym2612"
    },
    {
      "channel": 1,
      "note": 100,
      "start": 50.2286,
      "duration": 0.1662,
      "velocity": 109,
      "chip": "ym2612"
    },
    {
      "channel": 3,
      "note": 71,
      "start": 50.2296,
      "duration": 0.1325,
      "velocity": 127,
      "chip": "ym2612"
    },
    {
      "channel": 4,
      "note": 66,
      "start": 50.23,
      "duration": 0.1322,
      "velocity": 127,
      "chip": "ym2612"
    },
    {
      "channel": 0,
      "note": 49,
      "start": 50.4118,
      "duration": 0.1162,
      "velocity": 102,
      "chip": "ym2612"
    },
    {
      "channel": 1,
      "note": 100,
      "start": 50.4122,
      "duration": 0.1659,
      "velocity": 109,
      "chip": "ym2612"
    },
    {
      "channel": 3,
      "note": 71,
      "start": 50.4131,
      "duration": 0.1321,
      "velocity": 127,
      "chip": "ym2612"
    },
    {
      "channel": 4,
      "note": 66,
      "start": 50.4135,
      "duration": 0.1317,
      "velocity": 127,
      "chip": "ym2612"
    },
    {
      "channel": 0,
      "note": 49,
      "start": 50.5949,
      "duration": 0.1167,
      "velocity": 102,
      "chip": "ym2612"
    },
    {
      "channel": 3,
      "note": 71,
      "start": 50.5958,
      "duration": 0.1327,
      "velocity": 127,
      "chip": "ym2612"
    },
    {
      "channel": 4,
      "note": 66,
      "start": 50.5962,
      "duration": 0.1324,
      "velocity": 127,
      "chip": "ym2612"
    },
    {
      "channel": 0,
      "note": 49,
      "start": 50.7783,
      "duration": 0.1164,
      "velocity": 102,
      "chip": "ym2612"
    },
    {
      "channel": 1,
      "note": 100,
      "start": 50.7786,
      "duration": 0.0662,
      "velocity": 109,
      "chip": "ym2612"
    },
    {
      "channel": 3,
      "note": 71,
      "start": 50.7794,
      "duration": 0.1326,
      "velocity": 127,
      "chip": "ym2612"
    },
    {
      "channel": 4,
      "note": 66,
      "start": 50.7797,
      "duration": 0.1324,
      "velocity": 127,
      "chip": "ym2612"
    },
    {
      "channel": 1,
      "note": 100,
      "start": 50.8618,
      "duration": 0.083,
      "velocity": 109,
      "chip": "ym2612"
    },
    {
      "channel": 0,
      "note": 49,
      "start": 50.9618,
      "duration": 0.1162,
      "velocity": 102,
      "chip": "ym2612"
    },
    {
      "channel": 1,
      "note": 100,
      "start": 50.9622,
      "duration": 0.1659,
      "velocity": 109,
      "chip": "ym2612"
    },
    {
      "channel": 3,
      "note": 69,
      "start": 50.9629,
      "duration": 0.1322,
      "velocity": 127,
      "chip": "ym2612"
    },
    {
      "channel": 4,
      "note": 64,
      "start": 50.9633,
      "duration": 0.1319,
      "velocity": 127,
      "chip": "ym2612"
    },
    {
      "channel": 0,
      "note": 49,
      "start": 51.1449,
      "duration": 0.1167,
      "velocity": 102,
      "chip": "ym2612"
    },
    {
      "channel": 1,
      "note": 100,
      "start": 51.1452,
      "duration": 0.0664,
      "velocity": 109,
      "chip": "ym2612"
    },
    {
      "channel": 3,
      "note": 69,
      "start": 51.1459,
      "duration": 0.1326,
      "velocity": 127,
      "chip": "ym2612"
    },
    {
      "channel": 4,
      "note": 64,
      "start": 51.1463,
      "duration": 0.1323,
      "velocity": 127,
      "chip": "ym2612"
    },
    {
      "channel": 1,
      "note": 100,
      "start": 51.2282,
      "duration": 0.0835,
      "velocity": 109,
      "chip": "ym2612"
    },
    {
      "channel": 0,
      "note": 49,
      "start": 51.3282,
      "duration": 0.1165,
      "velocity": 102,
      "chip": "ym2612"
    },
    {
      "channel": 1,
      "note": 100,
      "start": 51.3286,
      "duration": 0.1662,
      "velocity": 109,
      "chip": "ym2612"
    },
    {
      "channel": 3,
      "note": 69,
      "start": 51.3297,
      "duration": 0.1324,
      "velocity": 127,
      "chip": "ym2612"
    },
    {
      "channel": 4,
      "note": 64,
      "start": 51.33,
      "duration": 0.1322,
      "velocity": 127,
      "chip": "ym2612"
    },
    {
      "channel": 0,
      "note": 49,
      "start": 51.5118,
      "duration": 0.1162,
      "velocity": 102,
      "chip": "ym2612"
    },
    {
      "channel": 1,
      "note": 100,
      "start": 51.5122,
      "duration": 0.1659,
      "velocity": 109,
      "chip": "ym2612"
    },
    {
      "channel": 3,
      "note": 71,
      "start": 51.5129,
      "duration": 0.1322,
      "velocity": 127,
      "chip": "ym2612"
    },
    {
      "channel": 4,
      "note": 66,
      "start": 51.5133,
      "duration": 0.132,
      "velocity": 127,
      "chip": "ym2612"
    },
    {
      "channel": 0,
      "note": 49,
      "start": 51.6949,
      "duration": 0.1167,
      "velocity": 102,
      "chip": "ym2612"
    },
    {
      "channel": 1,
      "note": 100,
      "start": 51.6952,
      "duration": 0.0664,
      "velocity": 109,
      "chip": "ym2612"
    },
    {
      "channel": 3,
      "note": 71,
      "start": 51.6962,
      "duration": 0.1323,
      "velocity": 127,
      "chip": "ym2612"
    },
    {
      "channel": 4,
      "note": 66,
      "start": 51.6965,
      "duration": 0.1321,
      "velocity": 127,
      "chip": "ym2612"
    },
    {
      "channel": 1,
      "note": 100,
      "start": 51.7782,
      "duration": 0.0835,
      "velocity": 109,
      "chip": "ym2612"
    },
    {
      "channel": 0,
      "note": 49,
      "start": 51.8782,
      "duration": 0.1165,
      "velocity": 102,
      "chip": "ym2612"
    },
    {
      "channel": 1,
      "note": 100,
      "start": 51.8786,
      "duration": 0.1662,
      "velocity": 109,
      "chip": "ym2612"
    },
    {
      "channel": 3,
      "note": 71,
      "start": 51.8795,
      "duration": 0.1326,
      "velocity": 127,
      "chip": "ym2612"
    },
    {
      "channel": 4,
      "note": 66,
      "start": 51.8798,
      "duration": 0.1323,
      "velocity": 127,
      "chip": "ym2612"
    },
    {
      "channel": 0,
      "note": 49,
      "start": 52.0618,
      "duration": 0.1162,
      "velocity": 102,
      "chip": "ym2612"
    },
    {
      "channel": 1,
      "note": 100,
      "start": 52.0622,
      "duration": 0.1659,
      "velocity": 109,
      "chip": "ym2612"
    },
    {
      "channel": 3,
      "note": 71,
      "start": 52.063,
      "duration": 0.1322,
      "velocity": 127,
      "chip": "ym2612"
    },
    {
      "channel": 4,
      "note": 66,
      "start": 52.0633,
      "duration": 0.1319,
      "velocity": 127,
      "chip": "ym2612"
    },
    {
      "channel": 0,
      "note": 49,
      "start": 52.2449,
      "duration": 0.1167,
      "velocity": 102,
      "chip": "ym2612"
    },
    {
      "channel": 1,
      "note": 100,
      "start": 52.2451,
      "duration": 0.1666,
      "velocity": 109,
      "chip": "ym2612"
    },
    {
      "channel": 3,
      "note": 71,
      "start": 52.2459,
      "duration": 0.1326,
      "velocity": 127,
      "chip": "ym2612"
    },
    {
      "channel": 4,
      "note": 66,
      "start": 52.2463,
      "duration": 0.1322,
      "velocity": 127,
      "chip": "ym2612"
    },
    {
      "channel": 0,
      "note": 49,
      "start": 52.4282,
      "duration": 0.1165,
      "velocity": 102,
      "chip": "ym2612"
    },
    {
      "channel": 1,
      "note": 100,
      "start": 52.4286,
      "duration": 0.0662,
      "velocity": 109,
      "chip": "ym2612"
    },
    {
      "channel": 3,
      "note": 69,
      "start": 52.4293,
      "duration": 0.1328,
      "velocity": 127,
      "chip": "ym2612"
    },
    {
      "channel": 4,
      "note": 64,
      "start": 52.4296,
      "duration": 0.1325,
      "velocity": 127,
      "chip": "ym2612"
    },
    {
      "channel": 1,
      "note": 100,
      "start": 52.5118,
      "duration": 0.0829,
      "velocity": 109,
      "chip": "ym2612"
    },
    {
      "channel": 0,
      "note": 49,
      "start": 52.6119,
      "duration": 0.1161,
      "velocity": 102,
      "chip": "ym2612"
    },
    {
      "channel": 1,
      "note": 100,
      "start": 52.6122,
      "duration": 0.0659,
      "velocity": 109,
      "chip": "ym2612"
    },
    {
      "channel": 3,
      "note": 69,
      "start": 52.6129,
      "duration": 0.1323,
      "velocity": 127,
      "chip": "ym2612"
    },
    {
      "channel": 4,
      "note": 64,
      "start": 52.6132,
      "duration": 0.1321,
      "velocity": 127,
      "chip": "ym2612"
    },
    {
      "channel": 1,
      "note": 100,
      "start": 52.6949,
      "duration": 0.0832,
      "velocity": 109,
      "chip": "ym2612"
    },
    {
      "channel": 0,
      "note": 50,
      "start": 52.7949,
      "duration": 0.1167,
      "velocity": 102,
      "chip": "ym2612"
    },
    {
      "channel": 1,
      "note": 100,
      "start": 52.7954,
      "duration": 0.1662,
      "velocity": 109,
      "chip": "ym2612"
    },
    {
      "channel": 3,
      "note": 38,
      "start": 52.7974,
      "duration": 2.9322,
      "velocity": 124,
      "chip": "ym2612"
    },
    {
      "channel": 0,
      "note": 50,
      "start": 52.9783,
      "duration": 0.1164,
      "velocity": 102,
      "chip": "ym2612"
    },
    {
      "channel": 1,
      "note": 100,
      "start": 52.9786,
      "duration": 0.0662,
      "velocity": 109,
      "chip": "ym2612"
    },
    {
      "channel": 1,
      "note": 100,
      "start": 53.0618,
      "duration": 0.083,
      "velocity": 109,
      "chip": "ym2612"
    },
    {
      "channel": 4,
      "note": 38,
      "start": 53.0634,
      "duration": 2.9322,
      "velocity": 124,
      "chip": "ym2612"
    },
    {
      "channel": 0,
      "note": 50,
      "start": 53.1618,
      "duration": 0.1162,
      "velocity": 102,
      "chip": "ym2612"
    },
    {
      "channel": 1,
      "note": 100,
      "start": 53.1622,
      "duration": 0.1659,
      "velocity": 109,
      "chip": "ym2612"
    },
    {
      "channel": 0,
      "note": 50,
      "start": 53.3449,
      "duration": 0.1167,
      "velocity": 102,
      "chip": "ym2612"
    },
    {
      "channel": 0,
      "note": 50,
      "start": 53.5283,
      "duration": 0.1164,
      "velocity": 102,
      "chip": "ym2612"
    },
    {
      "channel": 1,
      "note": 100,
      "start": 53.5286,
      "duration": 0.1662,
      "velocity": 109,
      "chip": "ym2612"
    },
    {
      "channel": 0,
      "note": 50,
      "start": 53.7118,
      "duration": 0.1162,
      "velocity": 102,
      "chip": "ym2612"
    },
    {
      "channel": 1,
      "note": 100,
      "start": 53.7122,
      "duration": 0.0659,
      "velocity": 109,
      "chip": "ym2612"
    },
    {
      "channel": 1,
      "note": 100,
      "start": 53.7949,
      "duration": 0.0832,
      "velocity": 109,
      "chip": "ym2612"
    },
    {
      "channel": 0,
      "note": 50,
      "start": 53.8949,
      "duration": 0.1167,
      "velocity": 102,
      "chip": "ym2612"
    },
    {
      "channel": 1,
      "note": 100,
      "start": 53.8952,
      "duration": 0.1664,
      "velocity": 109,
      "chip": "ym2612"
    },
    {
      "channel": 0,
      "note": 50,
      "start": 54.0782,
      "duration": 0.1165,
      "velocity": 102,
      "chip": "ym2612"
    },
    {
      "channel": 0,
      "note": 50,
      "start": 54.2618,
      "duration": 0.1162,
      "velocity": 102,
      "chip": "ym2612"
    },
    {
      "channel": 1,
      "note": 100,
      "start": 54.2622,
      "duration": 0.1659,
      "velocity": 109,
      "chip": "ym2612"
    },
    {
      "channel": 0,
      "note": 50,
      "start": 54.4449,
      "duration": 0.1167,
      "velocity": 102,
      "chip": "ym2612"
    },
    {
      "channel": 1,
      "note": 100,
      "start": 54.4452,
      "duration": 0.0664,
      "velocity": 109,
      "chip": "ym2612"
    },
    {
      "channel": 1,
      "note": 100,
      "start": 54.5282,
      "duration": 0.0835,
      "velocity": 109,
      "chip": "ym2612"
    },
    {
      "channel": 0,
      "note": 50,
      "start": 54.6282,
      "duration": 0.1165,
      "velocity": 102,
      "chip": "ym2612"
    },
    {
      "channel": 1,
      "note": 100,
      "start": 54.6286,
      "duration": 0.1662,
      "velocity": 109,
      "chip": "ym2612"
    },
    {
      "channel": 0,
      "note": 50,
      "start": 54.8118,
      "duration": 0.1162,
      "velocity": 102,
      "chip": "ym2612"
    },
    {
      "channel": 0,
      "note": 50,
      "start": 54.9949,
      "duration": 0.1167,
      "velocity": 102,
      "chip": "ym2612"
    },
    {
      "channel": 1,
      "note": 100,
      "start": 54.9952,
      "duration": 0.1664,
      "velocity": 109,
      "chip": "ym2612"
    },
    {
      "channel": 0,
      "note": 50,
      "start": 55.1782,
      "duration": 0.1165,
      "velocity": 102,
      "chip": "ym2612"
    },
    {
      "channel": 1,
      "note": 100,
      "start": 55.1786,
      "duration": 0.0662,
      "velocity": 109,
      "chip": "ym2612"
    },
    {
      "channel": 1,
      "note": 100,
      "start": 55.2618,
      "duration": 0.083,
      "velocity": 109,
      "chip": "ym2612"
    },
    {
      "channel": 0,
      "note": 50,
      "start": 55.3618,
      "duration": 0.1162,
      "velocity": 102,
      "chip": "ym2612"
    },
    {
      "channel": 1,
      "note": 100,
      "start": 55.3622,
      "duration": 0.1659,
      "velocity": 109,
      "chip": "ym2612"
    },
    {
      "channel": 0,
      "note": 50,
      "start": 55.545,
      "duration": 0.1166,
      "velocity": 102,
      "chip": "ym2612"
    },
    {
      "channel": 0,
      "note": 52,
      "start": 55.7283,
      "duration": 0.1164,
      "velocity": 102,
      "chip": "ym2612"
    },
    {
      "channel": 1,
      "note": 100,
      "start": 55.7288,
      "duration": 0.166,
      "velocity": 109,
      "chip": "ym2612"
    },
    {
      "channel": 3,
      "note": 40,
      "start": 55.7297,
      "duration": 2.9356,
      "velocity": 96,
      "chip": "ym2612"
    },
    {
      "channel": 0,
      "note": 52,
      "start": 55.9118,
      "duration": 0.1162,
      "velocity": 102,
      "chip": "ym2612"
    },
    {
      "channel": 1,
      "note": 100,
      "start": 55.9122,
      "duration": 0.0659,
      "velocity": 109,
      "chip": "ym2612"
    },
    {
      "channel": 1,
      "note": 100,
      "start": 55.9949,
      "duration": 0.0832,
      "velocity": 109,
      "chip": "ym2612"
    },
    {
      "channel": 4,
      "note": 40,
      "start": 55.9958,
      "duration": 2.6706,
      "velocity": 96,
      "chip": "ym2612"
    },
    {
      "channel": 0,
      "note": 52,
      "start": 56.0949,
      "duration": 0.1167,
      "velocity": 102,
      "chip": "ym2612"
    },
    {
      "channel": 1,
      "note": 100,
      "start": 56.0952,
      "duration": 0.1664,
      "velocity": 109,
      "chip": "ym2612"
    },
    {
      "channel": 0,
      "note": 52,
      "start": 56.2783,
      "duration": 0.1164,
      "velocity": 102,
      "chip": "ym2612"
    },
    {
      "channel": 0,
      "note": 52,
      "start": 56.4618,
      "duration": 0.1162,
      "velocity": 102,
      "chip": "ym2612"
    },
    {
      "channel": 1,
      "note": 100,
      "start": 56.4622,
      "duration": 0.1659,
      "velocity": 109,
      "chip": "ym2612"
    },
    {
      "channel": 0,
      "note": 52,
      "start": 56.6449,
      "duration": 0.1167,
      "velocity": 102,
      "chip": "ym2612"
    },
    {
      "channel": 1,
      "note": 100,
      "start": 56.6452,
      "duration": 0.0664,
      "velocity": 109,
      "chip": "ym2612"
    },
    {
      "channel": 1,
      "note": 100,
      "start": 56.7282,
      "duration": 0.0835,
      "velocity": 109,
      "chip": "ym2612"
    },
    {
      "channel": 0,
      "note": 52,
      "start": 56.8283,
      "duration": 0.1164,
      "velocity": 102,
      "chip": "ym2612"
    },
    {
      "channel": 1,
      "note": 100,
      "start": 56.8286,
      "duration": 0.1662,
      "velocity": 109,
      "chip": "ym2612"
    },
    {
      "channel": 0,
      "note": 52,
      "start": 57.0118,
      "duration": 0.1162,
      "velocity": 102,
      "chip": "ym2612"
    },
    {
      "channel": 0,
      "note": 52,
      "start": 57.1949,
      "duration": 0.1167,
      "velocity": 102,
      "chip": "ym2612"
    },
    {
      "channel": 1,
      "note": 100,
      "start": 57.1952,
      "duration": 0.1664,
      "velocity": 109,
      "chip": "ym2612"
    },
    {
      "channel": 2,
      "note": 54,
      "start": 57.1956,
      "duration": 1.3825,
      "velocity": 105,
      "chip": "ym2612"
    },
    {
      "channel": 0,
      "note": 52,
      "start": 57.3783,
      "duration": 0.1164,
      "velocity": 102,
      "chip": "ym2612"
    },
    {
      "channel": 1,
      "note": 100,
      "start": 57.3786,
      "duration": 0.0662,
      "velocity": 109,
      "chip": "ym2612"
    },
    {
      "channel": 1,
      "note": 100,
      "start": 57.4618,
      "duration": 0.083,
      "velocity": 109,
      "chip": "ym2612"
    },
    {
      "channel": 5,
      "note": 54,
      "start": 57.4627,
      "duration": 1.3832,
      "velocity": 105,
      "chip": "ym2612"
    },
    {
      "channel": 0,
      "note": 52,
      "start": 57.5618,
      "duration": 0.1162,
      "velocity": 102,
      "chip": "ym2612"
    },
    {
      "channel": 1,
      "note": 100,
      "start": 57.5622,
      "duration": 0.1659,
      "velocity": 109,
      "chip": "ym2612"
    },
    {
      "channel": 0,
      "note": 52,
      "start": 57.7449,
      "duration": 0.1167,
      "velocity": 102,
      "chip": "ym2612"
    },
    {
      "channel": 0,
      "note": 52,
      "start": 57.9283,
      "duration": 0.1164,
      "velocity": 102,
      "chip": "ym2612"
    },
    {
      "channel": 1,
      "note": 100,
      "start": 57.9286,
      "duration": 0.1662,
      "velocity": 109,
      "chip": "ym2612"
    },
    {
      "channel": 0,
      "note": 52,
      "start": 58.1118,
      "duration": 0.1162,
      "velocity": 102,
      "chip": "ym2612"
    },
    {
      "channel": 1,
      "note": 100,
      "start": 58.1122,
      "duration": 0.0659,
      "velocity": 109,
      "chip": "ym2612"
    },
    {
      "channel": 1,
      "note": 100,
      "start": 58.1949,
      "duration": 0.0832,
      "velocity": 109,
      "chip": "ym2612"
    },
    {
      "channel": 0,
      "note": 52,
      "start": 58.2949,
      "duration": 0.1167,
      "velocity": 102,
      "chip": "ym2612"
    },
    {
      "channel": 1,
      "note": 100,
      "start": 58.2952,
      "duration": 0.1664,
      "velocity": 109,
      "chip": "ym2612"
    },
    {
      "channel": 0,
      "note": 52,
      "start": 58.4783,
      "duration": 0.1163,
      "velocity": 102,
      "chip": "ym2612"
    },
    {
      "channel": 0,
      "note": 47,
      "start": 58.6618,
      "duration": 0.1162,
      "velocity": 102,
      "chip": "ym2612"
    },
    {
      "channel": 1,
      "note": 34,
      "start": 58.6631,
      "duration": 0.165,
      "velocity": 87,
      "chip": "ym2612"
    },
    {
      "channel": 2,
      "note": 47,
      "start": 58.6634,
      "duration": 1.7483,
      "velocity": 105,
      "chip": "ym2612"
    },
    {
      "channel": 3,
      "note": 50,
      "start": 58.6654,
      "duration": 2.1632,
      "velocity": 96,
      "chip": "ym2612"
    },
    {
      "channel": 4,
      "note": 38,
      "start": 58.6665,
      "duration": 4.3621,
      "velocity": 96,
      "chip": "ym2612"
    },
    {
      "channel": 0,
      "note": 47,
      "start": 58.8449,
      "duration": 0.1167,
      "velocity": 102,
      "chip": "ym2612"
    },
    {
      "channel": 1,
      "note": 34,
      "start": 58.8452,
      "duration": 0.0495,
      "velocity": 87,
      "chip": "ym2612"
    },
    {
      "channel": 1,
      "note": 30,
      "start": 58.9118,
      "duration": 0.0499,
      "velocity": 87,
      "chip": "ym2612"
    },
    {
      "channel": 5,
      "note": 47,
      "start": 58.9291,
      "duration": 1.7506,
      "velocity": 105,
      "chip": "ym2612"
    },
    {
      "channel": 1,
      "note": 34,
      "start": 58.9782,
      "duration": 0.0335,
      "velocity": 87,
      "chip": "ym2612"
    },
    {
      "channel": 0,
      "note": 47,
      "start": 59.0282,
      "duration": 0.1165,
      "velocity": 102,
      "chip": "ym2612"
    },
    {
      "channel": 1,
      "note": 34,
      "start": 59.0285,
      "duration": 0.0662,
      "velocity": 87,
      "chip": "ym2612"
    },
    {
      "channel": 1,
      "note": 34,
      "start": 59.1118,
      "duration": 0.083,
      "velocity": 87,
      "chip": "ym2612"
    },
    {
      "channel": 0,
      "note": 47,
      "start": 59.2118,
      "duration": 0.1162,
      "velocity": 102,
      "chip": "ym2612"
    },
    {
      "channel": 1,
      "note": 30,
      "start": 59.2122,
      "duration": 0.3495,
      "velocity": 87,
      "chip": "ym2612"
    },
    {
      "channel": 0,
      "note": 47,
      "start": 59.3949,
      "duration": 0.1167,
      "velocity": 102,
      "chip": "ym2612"
    },
    {
      "channel": 0,
      "note": 47,
      "start": 59.5783,
      "duration": 0.1164,
      "velocity": 102,
      "chip": "ym2612"
    },
    {
      "channel": 1,
      "note": 30,
      "start": 59.5784,
      "duration": 0.1663,
      "velocity": 87,
      "chip": "ym2612"
    },
    {
      "channel": 0,
      "note": 47,
      "start": 59.7618,
      "duration": 0.1162,
      "velocity": 102,
      "chip": "ym2612"
    },
    {
      "channel": 1,
      "note": 34,
      "start": 59.7621,
      "duration": 0.166,
      "velocity": 87,
      "chip": "ym2612"
    },
    {
      "channel": 0,
      "note": 47,
      "start": 59.9449,
      "duration": 0.1167,
      "velocity": 102,
      "chip": "ym2612"
    },
    {
      "channel": 1,
      "note": 34,
      "start": 59.9452,
      "duration": 0.0495,
      "velocity": 87,
      "chip": "ym2612"
    },
    {
      "channel": 1,
      "note": 34,
      "start": 60.0118,
      "duration": 0.0499,
      "velocity": 87,
      "chip": "ym2612"
    },
    {
      "channel": 1,
      "note": 34,
      "start": 60.0783,
      "duration": 0.0334,
      "velocity": 87,
      "chip": "ym2612"
    },
    {
      "channel": 0,
      "note": 47,
      "start": 60.1283,
      "duration": 0.1164,
      "velocity": 102,
      "chip": "ym2612"
    },
    {
      "channel": 1,
      "note": 34,
      "start": 60.1286,
      "duration": 0.1662,
      "velocity": 87,
      "chip": "ym2612"
    },
    {
      "channel": 0,
      "note": 47,
      "start": 60.3118,
      "duration": 0.1162,
      "velocity": 102,
      "chip": "ym2612"
    },
    {
      "channel": 1,
      "note": 34,
      "start": 60.3122,
      "duration": 0.0495,
      "velocity": 87,
      "chip": "ym2612"
    },
    {
      "channel": 1,
      "note": 34,
      "start": 60.3782,
      "duration": 0.0499,
      "velocity": 87,
      "chip": "ym2612"
    },
    {
      "channel": 1,
      "note": 34,
      "start": 60.4449,
      "duration": 0.0332,
      "velocity": 87,
      "chip": "ym2612"
    },
    {
      "channel": 0,
      "note": 47,
      "start": 60.4949,
      "duration": 0.1167,
      "velocity": 102,
      "chip": "ym2612"
    },
    {
      "channel": 1,
      "note": 34,
      "start": 60.4952,
      "duration": 0.1664,
      "velocity": 87,
      "chip": "ym2612"
    },
    {
      "channel": 2,
      "note": 49,
      "start": 60.4955,
      "duration": 0.0994,
      "velocity": 105,
      "chip": "ym2612"
    },
    {
      "channel": 0,
      "note": 47,
      "start": 60.6782,
      "duration": 0.1165,
      "velocity": 102,
      "chip": "ym2612"
    },
    {
      "channel": 1,
      "note": 34,
      "start": 60.6785,
      "duration": 0.0496,
      "velocity": 87,
      "chip": "ym2612"
    },
    {
      "channel": 2,
      "note": 50,
      "start": 60.6788,
      "duration": 0.0994,
      "velocity": 105,
      "chip": "ym2612"
    },
    {
      "channel": 1,
      "note": 34,
      "start": 60.7449,
      "duration": 0.0499,
      "velocity": 87,
      "chip": "ym2612"
    },
    {
      "channel": 5,
      "note": 49,
      "start": 60.7623,
      "duration": 0.101,
      "velocity": 105,
      "chip": "ym2612"
    },
    {
      "channel": 1,
      "note": 34,
      "start": 60.8118,
      "duration": 0.033,
      "velocity": 87,
      "chip": "ym2612"
    },
    {
      "channel": 0,
      "note": 47,
      "start": 60.8618,
      "duration": 0.1162,
      "velocity": 102,
      "chip": "ym2612"
    },
    {
      "channel": 1,
      "note": 34,
      "start": 60.8622,
      "duration": 0.0659,
      "velocity": 87,
      "chip": "ym2612"
    },
    {
      "channel": 2,
      "note": 49,
      "start": 60.8624,
      "duration": 0.4658,
      "velocity": 105,
      "chip": "ym2612"
    },
    {
      "channel": 3,
      "note": 49,
      "start": 60.8631,
      "duration": 0.6991,
      "velocity": 96,
      "chip": "ym2612"
    },
    {
      "channel": 1,
      "note": 34,
      "start": 60.9449,
      "duration": 0.0832,
      "velocity": 87,
      "chip": "ym2612"
    },
    {
      "channel": 5,
      "note": 50,
      "start": 60.9456,
      "duration": 0.1005,
      "velocity": 105,
      "chip": "ym2612"
    },
    {
      "channel": 0,
      "note": 47,
      "start": 61.0449,
      "duration": 0.1167,
      "velocity": 102,
      "chip": "ym2612"
    },
    {
      "channel": 1,
      "note": 37,
      "start": 61.0452,
      "duration": 0.1664,
      "velocity": 87,
      "chip": "ym2612"
    },
    {
      "channel": 5,
      "note": 49,
      "start": 61.1289,
      "duration": 0.4678,
      "velocity": 105,
      "chip": "ym2612"
    },
    {
      "channel": 0,
      "note": 47,
      "start": 61.2282,
      "duration": 0.1165,
      "velocity": 102,
      "chip": "ym2612"
    },
    {
      "channel": 1,
      "note": 37,
      "start": 61.2285,
      "duration": 0.0496,
      "velocity": 87,
      "chip": "ym2612"
    },
    {
      "channel": 1,
      "note": 37,
      "start": 61.2949,
      "duration": 0.0499,
      "velocity": 87,
      "chip": "ym2612"
    },
    {
      "channel": 1,
      "note": 37,
      "start": 61.3618,
      "duration": 0.033,
      "velocity": 87,
      "chip": "ym2612"
    },
    {
      "channel": 0,
      "note": 47,
      "start": 61.4119,
      "duration": 0.1161,
      "velocity": 102,
      "chip": "ym2612"
    },
    {
      "channel": 1,
      "note": 30,
      "start": 61.4123,
      "duration": 0.0658,
      "velocity": 87,
      "chip": "ym2612"
    },
    {
      "channel": 2,
      "note": 45,
      "start": 61.4125,
      "duration": 0.0992,
      "velocity": 105,
      "chip": "ym2612"
    },
    {
      "channel": 1,
      "note": 30,
      "start": 61.4949,
      "duration": 0.0832,
      "velocity": 87,
      "chip": "ym2612"
    },
    {
      "channel": 0,
      "note": 49,
      "start": 61.5949,
      "duration": 0.1167,
      "velocity": 102,
      "chip": "ym2612"
    },
    {
      "channel": 1,
      "note": 34,
      "start": 61.5953,
      "duration": 0.1663,
      "velocity": 87,
      "chip": "ym2612"
    },
    {
      "channel": 2,
      "note": 42,
      "start": 61.5956,
      "duration": 2.1162,
      "velocity": 105,
      "chip": "ym2612"
    },
    {
      "channel": 3,
      "note": 45,
      "start": 61.5964,
      "duration": 2.1657,
      "velocity": 96,
      "chip": "ym2612"
    },
    {
      "channel": 5,
      "note": 45,
      "start": 61.6788,
      "duration": 0.1006,
      "velocity": 105,
      "chip": "ym2612"
    },
    {
      "channel": 0,
      "note": 49,
      "start": 61.7782,
      "duration": 0.1165,
      "velocity": 102,
      "chip": "ym2612"
    },
    {
      "channel": 1,
      "note": 34,
      "start": 61.7785,
      "duration": 0.0496,
      "velocity": 87,
      "chip": "ym2612"
    },
    {
      "channel": 1,
      "note": 30,
      "start": 61.8449,
      "duration": 0.0499,
      "velocity": 87,
      "chip": "ym2612"
    },
    {
      "channel": 5,
      "note": 42,
      "start": 61.8625,
      "duration": 2.1169,
      "velocity": 105,
      "chip": "ym2612"
    },
    {
      "channel": 1,
      "note": 34,
      "start": 61.9118,
      "duration": 0.033,
      "velocity": 87,
      "chip": "ym2612"
    },
    {
      "channel": 0,
      "note": 49,
      "start": 61.9618,
      "duration": 0.1162,
      "velocity": 102,
      "chip": "ym2612"
    },
    {
      "channel": 1,
      "note": 34,
      "start": 61.9621,
      "duration": 0.066,
      "velocity": 87,
      "chip": "ym2612"
    },
    {
      "channel": 1,
      "note": 34,
      "start": 62.0449,
      "duration": 0.0832,
      "velocity": 87,
      "chip": "ym2612"
    },
    {
      "channel": 0,
      "note": 49,
      "start": 62.1449,
      "duration": 0.1167,
      "velocity": 102,
      "chip": "ym2612"
    },
    {
      "channel": 1,
      "note": 30,
      "start": 62.1453,
      "duration": 0.3494,
      "velocity": 87,
      "chip": "ym2612"
    },
    {
      "channel": 0,
      "note": 49,
      "start": 62.3283,
      "duration": 0.1164,
      "velocity": 102,
      "chip": "ym2612"
    },
    {
      "channel": 0,
      "note": 49,
      "start": 62.5118,
      "duration": 0.1162,
      "velocity": 102,
      "chip": "ym2612"
    },
    {
      "channel": 1,
      "note": 30,
      "start": 62.512,
      "duration": 0.166,
      "velocity": 87,
      "chip": "ym2612"
    },
    {
      "channel": 0,
      "note": 49,
      "start": 62.6949,
      "duration": 0.1167,
      "velocity": 102,
      "chip": "ym2612"
    },
    {
      "channel": 1,
      "note": 34,
      "start": 62.6952,
      "duration": 0.1664,
      "velocity": 87,
      "chip": "ym2612"
    },
    {
      "channel": 0,
      "note": 49,
      "start": 62.8782,
      "duration": 0.1165,
      "velocity": 102,
      "chip": "ym2612"
    },
    {
      "channel": 1,
      "note": 34,
      "start": 62.8785,
      "duration": 0.0496,
      "velocity": 87,
      "chip": "ym2612"
    },
    {
      "channel": 1,
      "note": 34,
      "start": 62.9449,
      "duration": 0.0499,
      "velocity": 87,
      "chip": "ym2612"
    },
    {
      "channel": 1,
      "note": 34,
      "start": 63.0118,
      "duration": 0.033,
      "velocity": 87,
      "chip": "ym2612"
    },
    {
      "channel": 0,
      "note": 49,
      "start": 63.0618,
      "duration": 0.1162,
      "velocity": 102,
      "chip": "ym2612"
    },
    {
      "channel": 1,
      "note": 34,
      "start": 63.0622,
      "duration": 0.1659,
      "velocity": 87,
      "chip": "ym2612"
    },
    {
      "channel": 4,
      "note": 37,
      "start": 63.0631,
      "duration": 0.6992,
      "velocity": 96,
      "chip": "ym2612"
    },
    {
      "channel": 0,
      "note": 49,
      "start": 63.2449,
      "duration": 0.1167,
      "velocity": 102,
      "chip": "ym2612"
    },
    {
      "channel": 1,
      "note": 34,
      "start": 63.2452,
      "duration": 0.0495,
      "velocity": 87,
      "chip": "ym2612"
    },
    {
      "channel": 1,
      "note": 34,
      "start": 63.3118,
      "duration": 0.0499,
      "velocity": 87,
      "chip": "ym2612"
    },
    {
      "channel": 1,
      "note": 34,
      "start": 63.3783,
      "duration": 0.0334,
      "velocity": 87,
      "chip": "ym2612"
    },
    {
      "channel": 0,
      "note": 49,
      "start": 63.4283,
      "duration": 0.1164,
      "velocity": 102,
      "chip": "ym2612"
    },
    {
      "channel": 1,
      "note": 34,
      "start": 63.4286,
      "duration": 0.1662,
      "velocity": 87,
      "chip": "ym2612"
    },
    {
      "channel": 0,
      "note": 49,
      "start": 63.6118,
      "duration": 0.1162,
      "velocity": 102,
      "chip": "ym2612"
    },
    {
      "channel": 1,
      "note": 34,
      "start": 63.6121,
      "duration": 0.0496,
      "velocity": 87,
      "chip": "ym2612"
    },
    {
      "channel": 1,
      "note": 34,
      "start": 63.6782,
      "duration": 0.0499,
      "velocity": 87,
      "chip": "ym2612"
    },
    {
      "channel": 1,
      "note": 34,
      "start": 63.7449,
      "duration": 0.0332,
      "velocity": 87,
      "chip": "ym2612"
    },
    {
      "channel": 0,
      "note": 49,
      "start": 63.7949,
      "duration": 0.1167,
      "velocity": 102,
      "chip": "ym2612"
    },
    {
      "channel": 1,
      "note": 34,
      "start": 63.7952,
      "duration": 0.0664,
      "velocity": 87,
      "chip": "ym2612"
    },
    {
      "channel": 2,
      "note": 42,
      "start": 63.7955,
      "duration": 0.2827,
      "velocity": 105,
      "chip": "ym2612"
    },
    {
      "channel": 3,
      "note": 49,
      "start": 63.7962,
      "duration": 0.6991,
      "velocity": 96,
      "chip": "ym2612"
    },
    {
      "channel": 4,
      "note": 33,
      "start": 63.7964,
      "duration": 0.6989,
      "velocity": 96,
      "chip": "ym2612"
    },
    {
      "channel": 1,
      "note": 34,
      "start": 63.8782,
      "duration": 0.0835,
      "velocity": 87,
      "chip": "ym2612"
    },
    {
      "channel": 0,
      "note": 49,
      "start": 63.9782,
      "duration": 0.1165,
      "velocity": 102,
      "chip": "ym2612"
    },
    {
      "channel": 1,
      "note": 37,
      "start": 63.9786,
      "duration": 0.1662,
      "velocity": 87,
      "chip": "ym2612"
    },
    {
      "channel": 5,
      "note": 42,
      "start": 64.0625,
      "duration": 0.2839,
      "velocity": 105,
      "chip": "ym2612"
    },
    {
      "channel": 0,
      "note": 49,
      "start": 64.1618,
      "duration": 0.1162,
      "velocity": 102,
      "chip": "ym2612"
    },
    {
      "channel": 1,
      "note": 37,
      "start": 64.1621,
      "duration": 0.0496,
      "velocity": 87,
      "chip": "ym2612"
    },
    {
      "channel": 2,
      "note": 45,
      "start": 64.1624,
      "duration": 0.0993,
      "velocity": 105,
      "chip": "ym2612"
    },
    {
      "channel": 1,
      "note": 37,
      "start": 64.2282,
      "duration": 0.0499,
      "velocity": 87,
      "chip": "ym2612"
    },
    {
      "channel": 1,
      "note": 37,
      "start": 64.2949,
      "duration": 0.0332,
      "velocity": 87,
      "chip": "ym2612"
    },
    {
      "channel": 0,
      "note": 49,
      "start": 64.345,
      "duration": 0.1166,
      "velocity": 102,
      "chip": "ym2612"
    },
    {
      "channel": 1,
      "note": 30,
      "start": 64.3454,
      "duration": 0.0663,
      "velocity": 87,
      "chip": "ym2612"
    },
    {
      "channel": 2,
      "note": 42,
      "start": 64.3456,
      "duration": 0.0992,
      "velocity": 105,
      "chip": "ym2612"
    },
    {
      "channel": 1,
      "note": 30,
      "start": 64.4283,
      "duration": 0.0834,
      "velocity": 87,
      "chip": "ym2612"
    },
    {
      "channel": 5,
      "note": 45,
      "start": 64.4291,
      "duration": 0.101,
      "velocity": 105,
      "chip": "ym2612"
    },
    {
      "channel": 0,
      "note": 50,
      "start": 64.5283,
      "duration": 0.1164,
      "velocity": 102,
      "chip": "ym2612"
    },
    {
      "channel": 1,
      "note": 34,
      "start": 64.5286,
      "duration": 0.1661,
      "velocity": 87,
      "chip": "ym2612"
    },
    {
      "channel": 2,
      "note": 47,
      "start": 64.5289,
      "duration": 1.7493,
      "velocity": 105,
      "chip": "ym2612"
    },
    {
      "channel": 3,
      "note": 50,
      "start": 64.5298,
      "duration": 1.7988,
      "velocity": 96,
      "chip": "ym2612"
    },
    {
      "channel": 4,
      "note": 30,
      "start": 64.53,
      "duration": 4.3653,
      "velocity": 96,
      "chip": "ym2612"
    },
    {
      "channel": 5,
      "note": 42,
      "start": 64.6124,
      "duration": 0.1006,
      "velocity": 105,
      "chip": "ym2612"
    },
    {
      "channel": 0,
      "note": 50,
      "start": 64.7118,
      "duration": 0.1162,
      "velocity": 102,
      "chip": "ym2612"
    },
    {
      "channel": 1,
      "note": 34,
      "start": 64.7121,
      "duration": 0.0496,
      "velocity": 87,
      "chip": "ym2612"
    },
    {
      "channel": 1,
      "note": 30,
      "start": 64.7782,
      "duration": 0.0499,
      "velocity": 87,
      "chip": "ym2612"
    },
    {
      "channel": 5,
      "note": 47,
      "start": 64.7956,
      "duration": 1.7508,
      "velocity": 105,
      "chip": "ym2612"
    },
    {
      "channel": 1,
      "note": 34,
      "start": 64.8449,
      "duration": 0.0332,
      "velocity": 87,
      "chip": "ym2612"
    },
    {
      "channel": 0,
      "note": 50,
      "start": 64.8949,
      "duration": 0.1167,
      "velocity": 102,
      "chip": "ym2612"
    },
    {
      "channel": 1,
      "note": 34,
      "start": 64.8952,
      "duration": 0.0665,
      "velocity": 87,
      "chip": "ym2612"
    },
    {
      "channel": 1,
      "note": 34,
      "start": 64.9782,
      "duration": 0.0835,
      "velocity": 87,
      "chip": "ym2612"
    },
    {
      "channel": 0,
      "note": 50,
      "start": 65.0783,
      "duration": 0.1164,
      "velocity": 102,
      "chip": "ym2612"
    },
    {
      "channel": 1,
      "note": 30,
      "start": 65.0786,
      "duration": 0.3494,
      "velocity": 87,
      "chip": "ym2612"
    },
    {
      "channel": 0,
      "note": 50,
      "start": 65.2618,
      "duration": 0.1162,
      "velocity": 102,
      "chip": "ym2612"
    },
    {
      "channel": 0,
      "note": 50,
      "start": 65.4449,
      "duration": 0.1167,
      "velocity": 102,
      "chip": "ym2612"
    },
    {
      "channel": 1,
      "note": 30,
      "start": 65.4451,
      "duration": 0.1666,
      "velocity": 87,
      "chip": "ym2612"
    },
    {
      "channel": 0,
      "note": 50,
      "start": 65.6283,
      "duration": 0.1164,
      "velocity": 102,
      "chip": "ym2612"
    },
    {
      "channel": 1,
      "note": 34,
      "start": 65.6286,
      "duration": 0.1662,
      "velocity": 87,
      "chip": "ym2612"
    },
    {
      "channel": 0,
      "note": 50,
      "start": 65.8118,
      "duration": 0.1162,
      "velocity": 102,
      "chip": "ym2612"
    },
    {
      "channel": 1,
      "note": 34,
      "start": 65.8121,
      "duration": 0.0496,
      "velocity": 87,
      "chip": "ym2612"
    },
    {
      "channel": 1,
      "note": 34,
      "start": 65.8782,
      "duration": 0.0499,
      "velocity": 87,
      "chip": "ym2612"
    },
    {
      "channel": 1,
      "note": 34,
      "start": 65.9449,
      "duration": 0.0332,
      "velocity": 87,
      "chip": "ym2612"
    },
    {
      "channel": 0,
      "note": 50,
      "start": 65.9949,
      "duration": 0.1167,
      "velocity": 102,
      "chip": "ym2612"
    },
    {
      "channel": 1,
      "note": 34,
      "start": 65.9952,
      "duration": 0.1664,
      "velocity": 87,
      "chip": "ym2612"
    },
    {
      "channel": 0,
      "note": 50,
      "start": 66.1783,
      "duration": 0.1164,
      "velocity": 102,
      "chip": "ym2612"
    },
    {
      "channel": 1,
      "note": 34,
      "start": 66.1786,
      "duration": 0.0495,
      "velocity": 87,
      "chip": "ym2612"
    },
    {
      "channel": 1,
      "note": 34,
      "start": 66.2449,
      "duration": 0.0499,
      "velocity": 87,
      "chip": "ym2612"
    },
    {
      "channel": 1,
      "note": 34,
      "start": 66.3118,
      "duration": 0.033,
      "velocity": 87,
      "chip": "ym2612"
    },
    {
      "channel": 0,
      "note": 50,
      "start": 66.3618,
      "duration": 0.1162,
      "velocity": 102,
      "chip": "ym2612"
    },
    {
      "channel": 1,
      "note": 34,
      "start": 66.3622,
      "duration": 0.1659,
      "velocity": 87,
      "chip": "ym2612"
    },
    {
      "channel": 2,
      "note": 49,
      "start": 66.3624,
      "duration": 0.0993,
      "velocity": 105,
      "chip": "ym2612"
    },
    {
      "channel": 3,
      "note": 47,
      "start": 66.363,
      "duration": 0.3322,
      "velocity": 96,
      "chip": "ym2612"
    },
    {
      "channel": 0,
      "note": 50,
      "start": 66.5449,
      "duration": 0.1167,
      "velocity": 102,
      "chip": "ym2612"
    },
    {
      "channel": 1,
      "note": 34,
      "start": 66.5452,
      "duration": 0.0496,
      "velocity": 87,
      "chip": "ym2612"
    },
    {
      "channel": 2,
      "note": 50,
      "start": 66.5455,
      "duration": 0.0994,
      "velocity": 105,
      "chip": "ym2612"
    },
    {
      "channel": 1,
      "note": 34,
      "start": 66.6118,
      "duration": 0.0499,
      "velocity": 87,
      "chip": "ym2612"
    },
    {
      "channel": 5,
      "note": 49,
      "start": 66.6287,
      "duration": 0.101,
      "velocity": 105,
      "chip": "ym2612"
    },
    {
      "channel": 1,
      "note": 34,
      "start": 66.6783,
      "duration": 0.0334,
      "velocity": 87,
      "chip": "ym2612"
    },
    {
      "channel": 0,
      "note": 50,
      "start": 66.7283,
      "duration": 0.1164,
      "velocity": 102,
      "chip": "ym2612"
    },
    {
      "channel": 1,
      "note": 34,
      "start": 66.7286,
      "duration": 0.0662,
      "velocity": 87,
      "chip": "ym2612"
    },
    {
      "channel": 2,
      "note": 52,
      "start": 66.7288,
      "duration": 0.2829,
      "velocity": 105,
      "chip": "ym2612"
    },
    {
      "channel": 3,
      "note": 49,
      "start": 66.7295,
      "duration": 0.3327,
      "velocity": 96,
      "chip": "ym2612"
    },
    {
      "channel": 1,
      "note": 34,
      "start": 66.8118,
      "duration": 0.083,
      "velocity": 87,
      "chip": "ym2612"
    },
    {
      "channel": 5,
      "note": 50,
      "start": 66.8125,
      "duration": 0.1005,
      "velocity": 105,
      "chip": "ym2612"
    },
    {
      "channel": 0,
      "note": 50,
      "start": 66.9118,
      "duration": 0.1162,
      "velocity": 102,
      "chip": "ym2612"
    },
    {
      "channel": 1,
      "note": 37,
      "start": 66.9122,
      "duration": 0.1659,
      "velocity": 87,
      "chip": "ym2612"
    },
    {
      "channel": 5,
      "note": 52,
      "start": 66.9956,
      "duration": 0.284,
      "velocity": 105,
      "chip": "ym2612"
    },
    {
      "channel": 0,
      "note": 50,
      "start": 67.0949,
      "duration": 0.1167,
      "velocity": 102,
      "chip": "ym2612"
    },
    {
      "channel": 1,
      "note": 37,
      "start": 67.0952,
      "duration": 0.0495,
      "velocity": 87,
      "chip": "ym2612"
    },
    {
      "channel": 2,
      "note": 45,
      "start": 67.0955,
      "duration": 0.2826,
      "velocity": 105,
      "chip": "ym2612"
    },
    {
      "channel": 3,
      "note": 52,
      "start": 67.0963,
      "duration": 0.3324,
      "velocity": 96,
      "chip": "ym2612"
    },
    {
      "channel": 1,
      "note": 37,
      "start": 67.1618,
      "duration": 0.0499,
      "velocity": 87,
      "chip": "ym2612"
    },
    {
      "channel": 1,
      "note": 37,
      "start": 67.2282,
      "duration": 0.0335,
      "velocity": 87,
      "chip": "ym2612"
    },
    {
      "channel": 0,
      "note": 50,
      "start": 67.2783,
      "duration": 0.1163,
      "velocity": 102,
      "chip": "ym2612"
    },
    {
      "channel": 1,
      "note": 30,
      "start": 67.2787,
      "duration": 0.066,
      "velocity": 87,
      "chip": "ym2612"
    },
    {
      "channel": 1,
      "note": 30,
      "start": 67.3618,
      "duration": 0.0829,
      "velocity": 87,
      "chip": "ym2612"
    },
    {
      "channel": 5,
      "note": 45,
      "start": 67.3627,
      "duration": 0.2833,
      "velocity": 105,
      "chip": "ym2612"
    },
    {
      "channel": 0,
      "note": 52,
      "start": 67.4618,
      "duration": 0.1162,
      "velocity": 102,
      "chip": "ym2612"
    },
    {
      "channel": 1,
      "note": 34,
      "start": 67.4622,
      "duration": 0.1659,
      "velocity": 87,
      "chip": "ym2612"
    },
    {
      "channel": 2,
      "note": 54,
      "start": 67.4625,
      "duration": 1.3824,
      "velocity": 105,
      "chip": "ym2612"
    },
    {
      "channel": 3,
      "note": 50,
      "start": 67.4633,
      "duration": 1.4319,
      "velocity": 96,
      "chip": "ym2612"
    },
    {
      "channel": 0,
      "note": 52,
      "start": 67.6449,
      "duration": 0.1167,
      "velocity": 102,
      "chip": "ym2612"
    },
    {
      "channel": 1,
      "note": 34,
      "start": 67.6452,
      "duration": 0.0495,
      "velocity": 87,
      "chip": "ym2612"
    },
    {
      "channel": 1,
      "note": 30,
      "start": 67.7118,
      "duration": 0.0499,
      "velocity": 87,
      "chip": "ym2612"
    },
    {
      "channel": 5,
      "note": 54,
      "start": 67.7288,
      "duration": 1.3842,
      "velocity": 105,
      "chip": "ym2612"
    },
    {
      "channel": 1,
      "note": 34,
      "start": 67.7782,
      "duration": 0.0335,
      "velocity": 87,
      "chip": "ym2612"
    },
    {
      "channel": 0,
      "note": 52,
      "start": 67.8283,
      "duration": 0.1164,
      "velocity": 102,
      "chip": "ym2612"
    },
    {
      "channel": 1,
      "note": 34,
      "start": 67.8286,
      "duration": 0.0662,
      "velocity": 87,
      "chip": "ym2612"
    },
    {
      "channel": 1,
      "note": 34,
      "start": 67.9118,
      "duration": 0.083,
      "velocity": 87,
      "chip": "ym2612"
    },
    {
      "channel": 0,
      "note": 52,
      "start": 68.0118,
      "duration": 0.1162,
      "velocity": 102,
      "chip": "ym2612"
    },
    {
      "channel": 1,
      "note": 30,
      "start": 68.0122,
      "duration": 0.3495,
      "velocity": 87,
      "chip": "ym2612"
    },
    {
      "channel": 0,
      "note": 52,
      "start": 68.1949,
      "duration": 0.1167,
      "velocity": 102,
      "chip": "ym2612"
    },
    {
      "channel": 0,
      "note": 52,
      "start": 68.3782,
      "duration": 0.1165,
      "velocity": 102,
      "chip": "ym2612"
    },
    {
      "channel": 1,
      "note": 30,
      "start": 68.3784,
      "duration": 0.1663,
      "velocity": 87,
      "chip": "ym2612"
    },
    {
      "channel": 0,
      "note": 52,
      "start": 68.5618,
      "duration": 0.1162,
      "velocity": 102,
      "chip": "ym2612"
    },
    {
      "channel": 1,
      "note": 34,
      "start": 68.5622,
      "duration": 0.1659,
      "velocity": 87,
      "chip": "ym2612"
    },
    {
      "channel": 0,
      "note": 52,
      "start": 68.7449,
      "duration": 0.1167,
      "velocity": 102,
      "chip": "ym2612"
    },
    {
      "channel": 1,
      "note": 34,
      "start": 68.7452,
      "duration": 0.0495,
      "velocity": 87,
      "chip": "ym2612"
    },
    {
      "channel": 1,
      "note": 34,
      "start": 68.8118,
      "duration": 0.0499,
      "velocity": 87,
      "chip": "ym2612"
    },
    {
      "channel": 1,
      "note": 34,
      "start": 68.8782,
      "duration": 0.0335,
      "velocity": 87,
      "chip": "ym2612"
    },
    {
      "channel": 0,
      "note": 52,
      "start": 68.9283,
      "duration": 0.1164,
      "velocity": 102,
      "chip": "ym2612"
    },
    {
      "channel": 1,
      "note": 34,
      "start": 68.9286,
      "duration": 0.1662,
      "velocity": 87,
      "chip": "ym2612"
    },
    {
      "channel": 2,
      "note": 52,
      "start": 68.9288,
      "duration": 1.016,
      "velocity": 105,
      "chip": "ym2612"
    },
    {
      "channel": 3,
      "note": 49,
      "start": 68.9295,
      "duration": 1.4328,
      "velocity": 96,
      "chip": "ym2612"
    },
    {
      "channel": 4,
      "note": 32,
      "start": 68.9297,
      "duration": 0.6988,
      "velocity": 96,
      "chip": "ym2612"
    },
    {
      "channel": 0,
      "note": 52,
      "start": 69.1118,
      "duration": 0.1162,
      "velocity": 102,
      "chip": "ym2612"
    },
    {
      "channel": 1,
      "note": 34,
      "start": 69.1122,
      "duration": 0.0495,
      "velocity": 87,
      "chip": "ym2612"
    },
    {
      "channel": 1,
      "note": 34,
      "start": 69.1782,
      "duration": 0.0499,
      "velocity": 87,
      "chip": "ym2612"
    },
    {
      "channel": 5,
      "note": 52,
      "start": 69.1954,
      "duration": 1.0177,
      "velocity": 105,
      "chip": "ym2612"
    },
    {
      "channel": 1,
      "note": 34,
      "start": 69.2449,
      "duration": 0.0332,
      "velocity": 87,
      "chip": "ym2612"
    },
    {
      "channel": 0,
      "note": 52,
      "start": 69.2949,
      "duration": 0.1167,
      "velocity": 102,
      "chip": "ym2612"
    },
    {
      "channel": 1,
      "note": 34,
      "start": 69.2952,
      "duration": 0.1664,
      "velocity": 87,
      "chip": "ym2612"
    },
    {
      "channel": 0,
      "note": 52,
      "start": 69.4782,
      "duration": 0.1165,
      "velocity": 102,
      "chip": "ym2612"
    },
    {
      "channel": 1,
      "note": 34,
      "start": 69.4785,
      "duration": 0.0496,
      "velocity": 87,
      "chip": "ym2612"
    },
    {
      "channel": 1,
      "note": 34,
      "start": 69.5449,
      "duration": 0.0499,
      "velocity": 87,
      "chip": "ym2612"
    },
    {
      "channel": 1,
      "note": 34,
      "start": 69.6118,
      "duration": 0.033,
      "velocity": 87,
      "chip": "ym2612"
    },
    {
      "channel": 0,
      "note": 52,
      "start": 69.6618,
      "duration": 0.1162,
      "velocity": 102,
      "chip": "ym2612"
    },
    {
      "channel": 1,
      "note": 34,
      "start": 69.6622,
      "duration": 0.0659,
      "velocity": 87,
      "chip": "ym2612"
    },
    {
      "channel": 4,
      "note": 33,
      "start": 69.6631,
      "duration": 0.6992,
      "velocity": 96,
      "chip": "ym2612"
    },
    {
      "channel": 1,
      "note": 34,
      "start": 69.7449,
      "duration": 0.0832,
      "velocity": 87,
      "chip": "ym2612"
    },
    {
      "channel": 0,
      "note": 52,
      "start": 69.8449,
      "duration": 0.1167,
      "velocity": 102,
      "chip": "ym2612"
    },
    {
      "channel": 1,
      "note": 37,
      "start": 69.8452,
      "duration": 0.1664,
      "velocity": 87,
      "chip": "ym2612"
    },
    {
      "channel": 0,
      "note": 52,
      "start": 70.0282,
      "duration": 0.1165,
      "velocity": 102,
      "chip": "ym2612"
    },
    {
      "channel": 1,
      "note": 37,
      "start": 70.0285,
      "duration": 0.0496,
      "velocity": 87,
      "chip": "ym2612"
    },
    {
      "channel": 2,
      "note": 42,
      "start": 70.0288,
      "duration": 0.2829,
      "velocity": 105,
      "chip": "ym2612"
    },
    {
      "channel": 1,
      "note": 37,
      "start": 70.0949,
      "duration": 0.0499,
      "velocity": 87,
      "chip": "ym2612"
    },
    {
      "channel": 1,
      "note": 37,
      "start": 70.1618,
      "duration": 0.033,
      "velocity": 87,
      "chip": "ym2612"
    },
    {
      "channel": 0,
      "note": 52,
      "start": 70.2119,
      "duration": 0.1161,
      "velocity": 102,
      "chip": "ym2612"
    },
    {
      "channel": 1,
      "note": 30,
      "start": 70.2123,
      "duration": 0.0658,
      "velocity": 87,
      "chip": "ym2612"
    },
    {
      "channel": 1,
      "note": 30,
      "start": 70.2949,
      "duration": 0.0832,
      "velocity": 87,
      "chip": "ym2612"
    },
    {
      "channel": 5,
      "note": 42,
      "start": 70.2958,
      "duration": 0.2835,
      "velocity": 105,
      "chip": "ym2612"
    },
    {
      "channel": 0,
      "note": 47,
      "start": 70.3949,
      "duration": 0.1167,
      "velocity": 102,
      "chip": "ym2612"
    },
    {
      "channel": 1,
      "note": 34,
      "start": 70.3953,
      "duration": 0.1663,
      "velocity": 87,
      "chip": "ym2612"
    },
    {
      "channel": 2,
      "note": 47,
      "start": 70.3956,
      "duration": 1.7492,
      "velocity": 105,
      "chip": "ym2612"
    },
    {
      "channel": 3,
      "note": 50,
      "start": 70.3964,
      "duration": 2.1656,
      "velocity": 96,
      "chip": "ym2612"
    },
    {
      "channel": 4,
      "note": 35,
      "start": 70.3967,
      "duration": 4.3654,
      "velocity": 96,
      "chip": "ym2612"
    },
    {
      "channel": 0,
      "note": 47,
      "start": 70.5782,
      "duration": 0.1165,
      "velocity": 102,
      "chip": "ym2612"
    },
    {
      "channel": 1,
      "note": 34,
      "start": 70.5785,
      "duration": 0.0496,
      "velocity": 87,
      "chip": "ym2612"
    },
    {
      "channel": 1,
      "note": 30,
      "start": 70.6449,
      "duration": 0.0499,
      "velocity": 87,
      "chip": "ym2612"
    },
    {
      "channel": 5,
      "note": 47,
      "start": 70.6624,
      "duration": 1.7508,
      "velocity": 105,
      "chip": "ym2612"
    },
    {
      "channel": 1,
      "note": 34,
      "start": 70.7118,
      "duration": 0.033,
      "velocity": 87,
      "chip": "ym2612"
    },
    {
      "channel": 0,
      "note": 47,
      "start": 70.7618,
      "duration": 0.1162,
      "velocity": 102,
      "chip": "ym2612"
    },
    {
      "channel": 1,
      "note": 34,
      "start": 70.7621,
      "duration": 0.066,
      "velocity": 87,
      "chip": "ym2612"
    },
    {
      "channel": 1,
      "note": 34,
      "start": 70.8449,
      "duration": 0.0832,
      "velocity": 87,
      "chip": "ym2612"
    },
    {
      "channel": 0,
      "note": 47,
      "start": 70.9449,
      "duration": 0.1167,
      "velocity": 102,
      "chip": "ym2612"
    },
    {
      "channel": 1,
      "note": 30,
      "start": 70.9453,
      "duration": 0.3494,
      "velocity": 87,
      "chip": "ym2612"
    },
    {
      "channel": 0,
      "note": 47,
      "start": 71.1282,
      "duration": 0.1165,
      "velocity": 102,
      "chip": "ym2612"
    },
    {
      "channel": 0,
      "note": 47,
      "start": 71.3118,
      "duration": 0.1162,
      "velocity": 102,
      "chip": "ym2612"
    },
    {
      "channel": 1,
      "note": 30,
      "start": 71.312,
      "duration": 0.166,
      "velocity": 87,
      "chip": "ym2612"
    },
    {
      "channel": 0,
      "note": 47,
      "start": 71.4949,
      "duration": 0.1167,
      "velocity": 102,
      "chip": "ym2612"
    },
    {
      "channel": 1,
      "note": 34,
      "start": 71.4952,
      "duration": 0.1664,
      "velocity": 87,
      "chip": "ym2612"
    },
    {
      "channel": 0,
      "note": 47,
      "start": 71.6782,
      "duration": 0.1165,
      "velocity": 102,
      "chip": "ym2612"
    },
    {
      "channel": 1,
      "note": 34,
      "start": 71.6785,
      "duration": 0.0496,
      "velocity": 87,
      "chip": "ym2612"
    },
    {
      "channel": 1,
      "note": 34,
      "start": 71.7449,
      "duration": 0.0499,
      "velocity": 87,
      "chip": "ym2612"
    },
    {
      "channel": 1,
      "note": 34,
      "start": 71.8118,
      "duration": 0.033,
      "velocity": 87,
      "chip": "ym2612"
    },
    {
      "channel": 0,
      "note": 47,
      "start": 71.8618,
      "duration": 0.1162,
      "velocity": 102,
      "chip": "ym2612"
    },
    {
      "channel": 1,
      "note": 34,
      "start": 71.8622,
      "duration": 0.1659,
      "velocity": 87,
      "chip": "ym2612"
    },
    {
      "channel": 0,
      "note": 47,
      "start": 72.0449,
      "duration": 0.1167,
      "velocity": 102,
      "chip": "ym2612"
    },
    {
      "channel": 1,
      "note": 34,
      "start": 72.0452,
      "duration": 0.0495,
      "velocity": 87,
      "chip": "ym2612"
    },
    {
      "channel": 1,
      "note": 34,
      "start": 72.1118,
      "duration": 0.0499,
      "velocity": 87,
      "chip": "ym2612"
    },
    {
      "channel": 1,
      "note": 34,
      "start": 72.1782,
      "duration": 0.0335,
      "velocity": 87,
      "chip": "ym2612"
    },
    {
      "channel": 0,
      "note": 47,
      "start": 72.2283,
      "duration": 0.1164,
      "velocity": 102,
      "chip": "ym2612"
    },
    {
      "channel": 1,
      "note": 34,
      "start": 72.2286,
      "duration": 0.1662,
      "velocity": 87,
      "chip": "ym2612"
    },
    {
      "channel": 2,
      "note": 49,
      "start": 72.2288,
      "duration": 0.0994,
      "velocity": 105,
      "chip": "ym2612"
    },
    {
      "channel": 0,
      "note": 47,
      "start": 72.4118,
      "duration": 0.1162,
      "velocity": 102,
      "chip": "ym2612"
    },
    {
      "channel": 1,
      "note": 34,
      "start": 72.4121,
      "duration": 0.0496,
      "velocity": 87,
      "chip": "ym2612"
    },
    {
      "channel": 2,
      "note": 50,
      "start": 72.4124,
      "duration": 0.0994,
      "velocity": 105,
      "chip": "ym2612"
    },
    {
      "channel": 1,
      "note": 34,
      "start": 72.4782,
      "duration": 0.0499,
      "velocity": 87,
      "chip": "ym2612"
    },
    {
      "channel": 5,
      "note": 49,
      "start": 72.4954,
      "duration": 0.101,
      "velocity": 105,
      "chip": "ym2612"
    },
    {
      "channel": 1,
      "note": 34,
      "start": 72.5449,
      "duration": 0.0332,
      "velocity": 87,
      "chip": "ym2612"
    },
    {
      "channel": 0,
      "note": 47,
      "start": 72.5949,
      "duration": 0.1167,
      "velocity": 102,
      "chip": "ym2612"
    },
    {
      "channel": 1,
      "note": 34,
      "start": 72.5952,
      "duration": 0.0664,
      "velocity": 87,
      "chip": "ym2612"
    },
    {
      "channel": 2,
      "note": 49,
      "start": 72.5955,
      "duration": 0.4663,
      "velocity": 105,
      "chip": "ym2612"
    },
    {
      "channel": 3,
      "note": 49,
      "start": 72.5962,
      "duration": 0.6991,
      "velocity": 96,
      "chip": "ym2612"
    },
    {
      "channel": 1,
      "note": 34,
      "start": 72.6782,
      "duration": 0.0835,
      "velocity": 87,
      "chip": "ym2612"
    },
    {
      "channel": 5,
      "note": 50,
      "start": 72.6789,
      "duration": 0.1005,
      "velocity": 105,
      "chip": "ym2612"
    },
    {
      "channel": 0,
      "note": 47,
      "start": 72.7782,
      "duration": 0.1165,
      "velocity": 102,
      "chip": "ym2612"
    },
    {
      "channel": 1,
      "note": 37,
      "start": 72.7786,
      "duration": 0.1662,
      "velocity": 87,
      "chip": "ym2612"
    },
    {
      "channel": 5,
      "note": 49,
      "start": 72.8625,
      "duration": 0.4676,
      "velocity": 105,
      "chip": "ym2612"
    },
    {
      "channel": 0,
      "note": 47,
      "start": 72.9618,
      "duration": 0.1162,
      "velocity": 102,
      "chip": "ym2612"
    },
    {
      "channel": 1,
      "note": 37,
      "start": 72.9621,
      "duration": 0.0496,
      "velocity": 87,
      "chip": "ym2612"
    },
    {
      "channel": 1,
      "note": 37,
      "start": 73.0282,
      "duration": 0.0499,
      "velocity": 87,
      "chip": "ym2612"
    },
    {
      "channel": 1,
      "note": 37,
      "start": 73.0949,
      "duration": 0.0332,
      "velocity": 87,
      "chip": "ym2612"
    },
    {
      "channel": 0,
      "note": 47,
      "start": 73.145,
      "duration": 0.1166,
      "velocity": 102,
      "chip": "ym2612"
    },
    {
      "channel": 1,
      "note": 30,
      "start": 73.1454,
      "duration": 0.0663,
      "velocity": 87,
      "chip": "ym2612"
    },
    {
      "channel": 2,
      "note": 45,
      "start": 73.1456,
      "duration": 0.0992,
      "velocity": 105,
      "chip": "ym2612"
    },
    {
      "channel": 1,
      "note": 30,
      "start": 73.2283,
      "duration": 0.0834,
      "velocity": 87,
      "chip": "ym2612"
    },
    {
      "channel": 0,
      "note": 49,
      "start": 73.3283,
      "duration": 0.1164,
      "velocity": 102,
      "chip": "ym2612"
    },
    {
      "channel": 1,
      "note": 34,
      "start": 73.3286,
      "duration": 0.1661,
      "velocity": 87,
      "chip": "ym2612"
    },
    {
      "channel": 2,
      "note": 42,
      "start": 73.3289,
      "duration": 2.116,
      "velocity": 105,
      "chip": "ym2612"
    },
    {
      "channel": 3,
      "note": 45,
      "start": 73.3298,
      "duration": 2.1655,
      "velocity": 96,
      "chip": "ym2612"
    },
    {
      "channel": 5,
      "note": 45,
      "start": 73.4124,
      "duration": 0.1006,
      "velocity": 105,
      "chip": "ym2612"
    },
    {
      "channel": 0,
      "note": 49,
      "start": 73.5118,
      "duration": 0.1162,
      "velocity": 102,
      "chip": "ym2612"
    },
    {
      "channel": 1,
      "note": 34,
      "start": 73.5121,
      "duration": 0.0496,
      "velocity": 87,
      "chip": "ym2612"
    },
    {
      "channel": 1,
      "note": 30,
      "start": 73.5782,
      "duration": 0.0499,
      "velocity": 87,
      "chip": "ym2612"
    },
    {
      "channel": 5,
      "note": 42,
      "start": 73.5956,
      "duration": 2.1174,
      "velocity": 105,
      "chip": "ym2612"
    },
    {
      "channel": 1,
      "note": 34,
      "start": 73.6449,
      "duration": 0.0332,
      "velocity": 87,
      "chip": "ym2612"
    },
    {
      "channel": 0,
      "note": 49,
      "start": 73.6949,
      "duration": 0.1167,
      "velocity": 102,
      "chip": "ym2612"
    },
    {
      "channel": 1,
      "note": 34,
      "start": 73.6952,
      "duration": 0.0665,
      "velocity": 87,
      "chip": "ym2612"
    },
    {
      "channel": 1,
      "note": 34,
      "start": 73.7782,
      "duration": 0.0835,
      "velocity": 87,
      "chip": "ym2612"
    },
    {
      "channel": 0,
      "note": 49,
      "start": 73.8783,
      "duration": 0.1164,
      "velocity": 102,
      "chip": "ym2612"
    },
    {
      "channel": 1,
      "note": 30,
      "start": 73.8786,
      "duration": 0.3494,
      "velocity": 87,
      "chip": "ym2612"
    },
    {
      "channel": 0,
      "note": 49,
      "start": 74.0618,
      "duration": 0.1162,
      "velocity": 102,
      "chip": "ym2612"
    },
    {
      "channel": 0,
      "note": 49,
      "start": 74.2449,
      "duration": 0.1167,
      "velocity": 102,
      "chip": "ym2612"
    },
    {
      "channel": 1,
      "note": 30,
      "start": 74.2451,
      "duration": 0.1666,
      "velocity": 87,
      "chip": "ym2612"
    },
    {
      "channel": 0,
      "note": 49,
      "start": 74.4283,
      "duration": 0.1164,
      "velocity": 102,
      "chip": "ym2612"
    },
    {
      "channel": 1,
      "note": 34,
      "start": 74.4286,
      "duration": 0.1662,
      "velocity": 87,
      "chip": "ym2612"
    },
    {
      "channel": 0,
      "note": 49,
      "start": 74.6118,
      "duration": 0.1162,
      "velocity": 102,
      "chip": "ym2612"
    },
    {
      "channel": 1,
      "note": 34,
      "start": 74.6121,
      "duration": 0.0496,
      "velocity": 87,
      "chip": "ym2612"
    },
    {
      "channel": 1,
      "note": 34,
      "start": 74.6782,
      "duration": 0.0499,
      "velocity": 87,
      "chip": "ym2612"
    },
    {
      "channel": 1,
      "note": 34,
      "start": 74.7449,
      "duration": 0.0332,
      "velocity": 87,
      "chip": "ym2612"
    },
    {
      "channel": 0,
      "note": 49,
      "start": 74.7949,
      "duration": 0.1167,
      "velocity": 102,
      "chip": "ym2612"
    },
    {
      "channel": 1,
      "note": 34,
      "start": 74.7952,
      "duration": 0.1664,
      "velocity": 87,
      "chip": "ym2612"
    },
    {
      "channel": 4,
      "note": 37,
      "start": 74.7961,
      "duration": 0.6992,
      "velocity": 96,
      "chip": "ym2612"
    },
    {
      "channel": 0,
      "note": 49,
      "start": 74.9783,
      "duration": 0.1164,
      "velocity": 102,
      "chip": "ym2612"
    },
    {
      "channel": 1,
      "note": 34,
      "start": 74.9786,
      "duration": 0.0495,
      "velocity": 87,
      "chip": "ym2612"
    },
    {
      "channel": 1,
      "note": 34,
      "start": 75.0449,
      "duration": 0.0499,
      "velocity": 87,
      "chip": "ym2612"
    },
    {
      "channel": 1,
      "note": 34,
      "start": 75.1118,
      "duration": 0.033,
      "velocity": 87,
      "chip": "ym2612"
    },
    {
      "channel": 0,
      "note": 49,
      "start": 75.1618,
      "duration": 0.1162,
      "velocity": 102,
      "chip": "ym2612"
    },
    {
      "channel": 1,
      "note": 34,
      "start": 75.1622,
      "duration": 0.1659,
      "velocity": 87,
      "chip": "ym2612"
    },
    {
      "channel": 0,
      "note": 49,
      "start": 75.3449,
      "duration": 0.1167,
      "velocity": 102,
      "chip": "ym2612"
    },
    {
      "channel": 1,
      "note": 34,
      "start": 75.3452,
      "duration": 0.0495,
      "velocity": 87,
      "chip": "ym2612"
    },
    {
      "channel": 1,
      "note": 34,
      "start": 75.4118,
      "duration": 0.0499,
      "velocity": 87,
      "chip": "ym2612"
    },
    {
      "channel": 1,
      "note": 34,
      "start": 75.4782,
      "duration": 0.0335,
      "velocity": 87,
      "chip": "ym2612"
    },
    {
      "channel": 0,
      "note": 49,
      "start": 75.5283,
      "duration": 0.1164,
      "velocity": 102,
      "chip": "ym2612"
    },
    {
      "channel": 1,
      "note": 34,
      "start": 75.5286,
      "duration": 0.0662,
      "velocity": 87,
      "chip": "ym2612"
    },
    {
      "channel": 2,
      "note": 42,
      "start": 75.5288,
      "duration": 0.2829,
      "velocity": 105,
      "chip": "ym2612"
    },
    {
      "channel": 3,
      "note": 49,
      "start": 75.5295,
      "duration": 0.6991,
      "velocity": 96,
      "chip": "ym2612"
    },
    {
      "channel": 4,
      "note": 33,
      "start": 75.5298,
      "duration": 0.6989,
      "velocity": 96,
      "chip": "ym2612"
    },
    {
      "channel": 1,
      "note": 34,
      "start": 75.6118,
      "duration": 0.083,
      "velocity": 87,
      "chip": "ym2612"
    },
    {
      "channel": 0,
      "note": 49,
      "start": 75.7118,
      "duration": 0.1162,
      "velocity": 102,
      "chip": "ym2612"
    },
    {
      "channel": 1,
      "note": 37,
      "start": 75.7122,
      "duration": 0.1659,
      "velocity": 87,
      "chip": "ym2612"
    },
    {
      "channel": 5,
      "note": 42,
      "start": 75.7956,
      "duration": 0.2842,
      "velocity": 105,
      "chip": "ym2612"
    },
    {
      "channel": 0,
      "note": 49,
      "start": 75.8949,
      "duration": 0.1167,
      "velocity": 102,
      "chip": "ym2612"
    },
    {
      "channel": 1,
      "note": 37,
      "start": 75.8952,
      "duration": 0.0495,
      "velocity": 87,
      "chip": "ym2612"
    },
    {
      "channel": 2,
      "note": 45,
      "start": 75.8955,
      "duration": 0.0994,
      "velocity": 105,
      "chip": "ym2612"
    },
    {
      "channel": 1,
      "note": 37,
      "start": 75.9618,
      "duration": 0.0499,
      "velocity": 87,
      "chip": "ym2612"
    },
    {
      "channel": 1,
      "note": 37,
      "start": 76.0283,
      "duration": 0.0334,
      "velocity": 87,
      "chip": "ym2612"
    },
    {
      "channel": 0,
      "note": 49,
      "start": 76.0783,
      "duration": 0.1163,
      "velocity": 102,
      "chip": "ym2612"
    },
    {
      "channel": 1,
      "note": 30,
      "start": 76.0787,
      "duration": 0.066,
      "velocity": 87,
      "chip": "ym2612"
    },
    {
      "channel": 2,
      "note": 42,
      "start": 76.079,
      "duration": 0.0992,
      "velocity": 105,
      "chip": "ym2612"
    },
    {
      "channel": 1,
      "note": 30,
      "start": 76.1618,
      "duration": 0.0829,
      "velocity": 87,
      "chip": "ym2612"
    },
    {
      "channel": 5,
      "note": 45,
      "start": 76.1627,
      "duration": 0.101,
      "velocity": 105,
      "chip": "ym2612"
    },
    {
      "channel": 0,
      "note": 50,
      "start": 76.2618,
      "duration": 0.1162,
      "velocity": 102,
      "chip": "ym2612"
    },
    {
      "channel": 1,
      "note": 34,
      "start": 76.2622,
      "duration": 0.1659,
      "velocity": 87,
      "chip": "ym2612"
    },
    {
      "channel": 2,
      "note": 47,
      "start": 76.2625,
      "duration": 1.7493,
      "velocity": 105,
      "chip": "ym2612"
    },
    {
      "channel": 3,
      "note": 50,
      "start": 76.2633,
      "duration": 1.7988,
      "velocity": 96,
      "chip": "ym2612"
    },
    {
      "channel": 4,
      "note": 35,
      "start": 76.2636,
      "duration": 2.8987,
      "velocity": 96,
      "chip": "ym2612"
    },
    {
      "channel": 5,
      "note": 42,
      "start": 76.3455,
      "duration": 0.1005,
      "velocity": 105,
      "chip": "ym2612"
    },
    {
      "channel": 0,
      "note": 50,
      "start": 76.4449,
      "duration": 0.1167,
      "velocity": 102,
      "chip": "ym2612"
    },
    {
      "channel": 1,
      "note": 34,
      "start": 76.4452,
      "duration": 0.0496,
      "velocity": 87,
      "chip": "ym2612"
    },
    {
      "channel": 1,
      "note": 30,
      "start": 76.5118,
      "duration": 0.0499,
      "velocity": 87,
      "chip": "ym2612"
    },
    {
      "channel": 5,
      "note": 47,
      "start": 76.5289,
      "duration": 1.7508,
      "velocity": 105,
      "chip": "ym2612"
    },
    {
      "channel": 1,
      "note": 34,
      "start": 76.5783,
      "duration": 0.0334,
      "velocity": 87,
      "chip": "ym2612"
    },
    {
      "channel": 0,
      "note": 50,
      "start": 76.6283,
      "duration": 0.1164,
      "velocity": 102,
      "chip": "ym2612"
    },
    {
      "channel": 1,
      "note": 34,
      "start": 76.6286,
      "duration": 0.0662,
      "velocity": 87,
      "chip": "ym2612"
    },
    {
      "channel": 1,
      "note": 34,
      "start": 76.7118,
      "duration": 0.083,
      "velocity": 87,
      "chip": "ym2612"
    },
    {
      "channel": 0,
      "note": 50,
      "start": 76.8118,
      "duration": 0.1162,
      "velocity": 102,
      "chip": "ym2612"
    },
    {
      "channel": 1,
      "note": 30,
      "start": 76.8122,
      "duration": 0.3495,
      "velocity": 87,
      "chip": "ym2612"
    },
    {
      "channel": 0,
      "note": 50,
      "start": 76.9949,
      "duration": 0.1167,
      "velocity": 102,
      "chip": "ym2612"
    },
    {
      "channel": 0,
      "note": 50,
      "start": 77.1782,
      "duration": 0.1165,
      "velocity": 102,
      "chip": "ym2612"
    },
    {
      "channel": 1,
      "note": 30,
      "start": 77.1784,
      "duration": 0.1663,
      "velocity": 87,
      "chip": "ym2612"
    },
    {
      "channel": 0,
      "note": 50,
      "start": 77.3618,
      "duration": 0.1162,
      "velocity": 102,
      "chip": "ym2612"
    },
    {
      "channel": 1,
      "note": 34,
      "start": 77.3622,
      "duration": 0.1659,
      "velocity": 87,
      "chip": "ym2612"
    },
    {
      "channel": 0,
      "note": 50,
      "start": 77.5449,
      "duration": 0.1167,
      "velocity": 102,
      "chip": "ym2612"
    },
    {
      "channel": 1,
      "note": 34,
      "start": 77.5452,
      "duration": 0.0496,
      "velocity": 87,
      "chip": "ym2612"
    },
    {
      "channel": 1,
      "note": 34,
      "start": 77.6118,
      "duration": 0.0499,
      "velocity": 87,
      "chip": "ym2612"
    },
    {
      "channel": 1,
      "note": 34,
      "start": 77.6783,
      "duration": 0.0334,
      "velocity": 87,
      "chip": "ym2612"
    },
    {
      "channel": 0,
      "note": 50,
      "start": 77.7283,
      "duration": 0.1164,
      "velocity": 102,
      "chip": "ym2612"
    },
    {
      "channel": 1,
      "note": 34,
      "start": 77.7286,
      "duration": 0.1662,
      "velocity": 87,
      "chip": "ym2612"
    },
    {
      "channel": 0,
      "note": 50,
      "start": 77.9118,
      "duration": 0.1162,
      "velocity": 102,
      "chip": "ym2612"
    },
    {
      "channel": 1,
      "note": 34,
      "start": 77.9122,
      "duration": 0.0495,
      "velocity": 87,
      "chip": "ym2612"
    },
    {
      "channel": 1,
      "note": 34,
      "start": 77.9782,
      "duration": 0.0499,
      "velocity": 87,
      "chip": "ym2612"
    },
    {
      "channel": 1,
      "note": 34,
      "start": 78.0449,
      "duration": 0.0332,
      "velocity": 87,
      "chip": "ym2612"
    },
    {
      "channel": 0,
      "note": 50,
      "start": 78.0949,
      "duration": 0.1167,
      "velocity": 102,
      "chip": "ym2612"
    },
    {
      "channel": 1,
      "note": 34,
      "start": 78.0952,
      "duration": 0.1664,
      "velocity": 87,
      "chip": "ym2612"
    },
    {
      "channel": 2,
      "note": 49,
      "start": 78.0955,
      "duration": 0.0994,
      "velocity": 105,
      "chip": "ym2612"
    },
    {
      "channel": 3,
      "note": 47,
      "start": 78.0961,
      "duration": 0.3324,
      "velocity": 96,
      "chip": "ym2612"
    },
    {
      "channel": 0,
      "note": 50,
      "start": 78.2782,
      "duration": 0.1165,
      "velocity": 102,
      "chip": "ym2612"
    },
    {
      "channel": 1,
      "note": 34,
      "start": 78.2785,
      "duration": 0.0496,
      "velocity": 87,
      "chip": "ym2612"
    },
    {
      "channel": 2,
      "note": 50,
      "start": 78.2788,
      "duration": 0.0994,
      "velocity": 105,
      "chip": "ym2612"
    },
    {
      "channel": 1,
      "note": 34,
      "start": 78.3449,
      "duration": 0.0499,
      "velocity": 87,
      "chip": "ym2612"
    },
    {
      "channel": 5,
      "note": 49,
      "start": 78.3623,
      "duration": 0.101,
      "velocity": 105,
      "chip": "ym2612"
    },
    {
      "channel": 1,
      "note": 34,
      "start": 78.4118,
      "duration": 0.033,
      "velocity": 87,
      "chip": "ym2612"
    },
    {
      "channel": 0,
      "note": 50,
      "start": 78.4618,
      "duration": 0.1162,
      "velocity": 102,
      "chip": "ym2612"
    },
    {
      "channel": 1,
      "note": 34,
      "start": 78.4622,
      "duration": 0.0659,
      "velocity": 87,
      "chip": "ym2612"
    },
    {
      "channel": 2,
      "note": 52,
      "start": 78.4624,
      "duration": 0.2824,
      "velocity": 105,
      "chip": "ym2612"
    },
    {
      "channel": 3,
      "note": 49,
      "start": 78.4631,
      "duration": 0.3322,
      "velocity": 96,
      "chip": "ym2612"
    },
    {
      "channel": 1,
      "note": 34,
      "start": 78.5449,
      "duration": 0.0832,
      "velocity": 87,
      "chip": "ym2612"
    },
    {
      "channel": 5,
      "note": 50,
      "start": 78.5456,
      "duration": 0.1005,
      "velocity": 105,
      "chip": "ym2612"
    },
    {
      "channel": 0,
      "note": 50,
      "start": 78.6449,
      "duration": 0.1167,
      "velocity": 102,
      "chip": "ym2612"
    },
    {
      "channel": 1,
      "note": 37,
      "start": 78.6452,
      "duration": 0.1664,
      "velocity": 87,
      "chip": "ym2612"
    },
    {
      "channel": 5,
      "note": 52,
      "start": 78.7289,
      "duration": 0.2842,
      "velocity": 105,
      "chip": "ym2612"
    },
    {
      "channel": 0,
      "note": 50,
      "start": 78.8282,
      "duration": 0.1165,
      "velocity": 102,
      "chip": "ym2612"
    },
    {
      "channel": 1,
      "note": 37,
      "start": 78.8285,
      "duration": 0.0496,
      "velocity": 87,
      "chip": "ym2612"
    },
    {
      "channel": 2,
      "note": 45,
      "start": 78.8288,
      "duration": 0.2829,
      "velocity": 105,
      "chip": "ym2612"
    },
    {
      "channel": 3,
      "note": 52,
      "start": 78.8296,
      "duration": 0.3326,
      "velocity": 96,
      "chip": "ym2612"
    },
    {
      "channel": 1,
      "note": 37,
      "start": 78.8949,
      "duration": 0.0499,
      "velocity": 87,
      "chip": "ym2612"
    },
    {
      "channel": 1,
      "note": 37,
      "start": 78.9618,
      "duration": 0.033,
      "velocity": 87,
      "chip": "ym2612"
    },
    {
      "channel": 0,
      "note": 50,
      "start": 79.0119,
      "duration": 0.1161,
      "velocity": 102,
      "chip": "ym2612"
    },
    {
      "channel": 1,
      "note": 30,
      "start": 79.0123,
      "duration": 0.0658,
      "velocity": 87,
      "chip": "ym2612"
    },
    {
      "channel": 1,
      "note": 30,
      "start": 79.0949,
      "duration": 0.0832,
      "velocity": 87,
      "chip": "ym2612"
    },
    {
      "channel": 5,
      "note": 45,
      "start": 79.0958,
      "duration": 0.2835,
      "velocity": 105,
      "chip": "ym2612"
    },
    {
      "channel": 0,
      "note": 52,
      "start": 79.1949,
      "duration": 0.1167,
      "velocity": 102,
      "chip": "ym2612"
    },
    {
      "channel": 1,
      "note": 34,
      "start": 79.1953,
      "duration": 0.1663,
      "velocity": 87,
      "chip": "ym2612"
    },
    {
      "channel": 2,
      "note": 54,
      "start": 79.1956,
      "duration": 1.3826,
      "velocity": 105,
      "chip": "ym2612"
    },
    {
      "channel": 3,
      "note": 50,
      "start": 79.1964,
      "duration": 1.4322,
      "velocity": 96,
      "chip": "ym2612"
    },
    {
      "channel": 4,
      "note": 33,
      "start": 79.1966,
      "duration": 1.432,
      "velocity": 96,
      "chip": "ym2612"
    },
    {
      "channel": 0,
      "note": 52,
      "start": 79.3783,
      "duration": 0.1164,
      "velocity": 102,
      "chip": "ym2612"
    },
    {
      "channel": 1,
      "note": 34,
      "start": 79.3786,
      "duration": 0.0495,
      "velocity": 87,
      "chip": "ym2612"
    },
    {
      "channel": 1,
      "note": 30,
      "start": 79.4449,
      "duration": 0.0499,
      "velocity": 87,
      "chip": "ym2612"
    },
    {
      "channel": 5,
      "note": 54,
      "start": 79.4624,
      "duration": 1.3837,
      "velocity": 105,
      "chip": "ym2612"
    },
    {
      "channel": 1,
      "note": 34,
      "start": 79.5118,
      "duration": 0.033,
      "velocity": 87,
      "chip": "ym2612"
    },
    {
      "channel": 0,
      "note": 52,
      "start": 79.5618,
      "duration": 0.1162,
      "velocity": 102,
      "chip": "ym2612"
    },
    {
      "channel": 1,
      "note": 34,
      "start": 79.5621,
      "duration": 0.066,
      "velocity": 87,
      "chip": "ym2612"
    },
    {
      "channel": 1,
      "note": 34,
      "start": 79.6449,
      "duration": 0.0832,
      "velocity": 87,
      "chip": "ym2612"
    },
    {
      "channel": 0,
      "note": 52,
      "start": 79.7449,
      "duration": 0.1167,
      "velocity": 102,
      "chip": "ym2612"
    },
    {
      "channel": 1,
      "note": 30,
      "start": 79.7453,
      "duration": 0.3494,
      "velocity": 87,
      "chip": "ym2612"
    },
    {
      "channel": 0,
      "note": 52,
      "start": 79.9283,
      "duration": 0.1164,
      "velocity": 102,
      "chip": "ym2612"
    },
    {
      "channel": 0,
      "note": 52,
      "start": 80.1118,
      "duration": 0.1162,
      "velocity": 102,
      "chip": "ym2612"
    },
    {
      "channel": 1,
      "note": 30,
      "start": 80.112,
      "duration": 0.166,
      "velocity": 87,
      "chip": "ym2612"
    },
    {
      "channel": 0,
      "note": 52,
      "start": 80.2949,
      "duration": 0.1167,
      "velocity": 102,
      "chip": "ym2612"
    },
    {
      "channel": 1,
      "note": 34,
      "start": 80.2952,
      "duration": 0.1664,
      "velocity": 87,
      "chip": "ym2612"
    },
    {
      "channel": 0,
      "note": 52,
      "start": 80.4782,
      "duration": 0.1165,
      "velocity": 102,
      "chip": "ym2612"
    },
    {
      "channel": 1,
      "note": 34,
      "start": 80.4785,
      "duration": 0.0496,
      "velocity": 87,
      "chip": "ym2612"
    },
    {
      "channel": 1,
      "note": 34,
      "start": 80.5449,
      "duration": 0.0499,
      "velocity": 87,
      "chip": "ym2612"
    },
    {
      "channel": 1,
      "note": 34,
      "start": 80.6118,
      "duration": 0.033,
      "velocity": 87,
      "chip": "ym2612"
    },
    {
      "channel": 0,
      "note": 52,
      "start": 80.6618,
      "duration": 0.1162,
      "velocity": 102,
      "chip": "ym2612"
    },
    {
      "channel": 1,
      "note": 34,
      "start": 80.6622,
      "duration": 0.1659,
      "velocity": 87,
      "chip": "ym2612"
    },
    {
      "channel": 2,
      "note": 52,
      "start": 80.6624,
      "duration": 0.6493,
      "velocity": 105,
      "chip": "ym2612"
    },
    {
      "channel": 3,
      "note": 49,
      "start": 80.663,
      "duration": 1.4323,
      "velocity": 96,
      "chip": "ym2612"
    },
    {
      "channel": 4,
      "note": 35,
      "start": 80.6632,
      "duration": 0.6989,
      "velocity": 96,
      "chip": "ym2612"
    },
    {
      "channel": 0,
      "note": 52,
      "start": 80.8449,
      "duration": 0.1167,
      "velocity": 102,
      "chip": "ym2612"
    },
    {
      "channel": 1,
      "note": 34,
      "start": 80.8452,
      "duration": 0.0495,
      "velocity": 87,
      "chip": "ym2612"
    },
    {
      "channel": 1,
      "note": 34,
      "start": 80.9118,
      "duration": 0.0499,
      "velocity": 87,
      "chip": "ym2612"
    },
    {
      "channel": 5,
      "note": 52,
      "start": 80.9287,
      "duration": 0.6507,
      "velocity": 105,
      "chip": "ym2612"
    },
    {
      "channel": 1,
      "note": 34,
      "start": 80.9782,
      "duration": 0.0335,
      "velocity": 87,
      "chip": "ym2612"
    },
    {
      "channel": 0,
      "note": 52,
      "start": 81.0283,
      "duration": 0.1164,
      "velocity": 102,
      "chip": "ym2612"
    },
    {
      "channel": 1,
      "note": 34,
      "start": 81.0286,
      "duration": 0.1662,
      "velocity": 87,
      "chip": "ym2612"
    },
    {
      "channel": 0,
      "note": 52,
      "start": 81.2118,
      "duration": 0.1162,
      "velocity": 102,
      "chip": "ym2612"
    },
    {
      "channel": 1,
      "note": 34,
      "start": 81.2121,
      "duration": 0.0496,
      "velocity": 87,
      "chip": "ym2612"
    },
    {
      "channel": 1,
      "note": 34,
      "start": 81.2782,
      "duration": 0.0499,
      "velocity": 87,
      "chip": "ym2612"
    },
    {
      "channel": 1,
      "note": 34,
      "start": 81.3449,
      "duration": 0.0332,
      "velocity": 87,
      "chip": "ym2612"
    },
    {
      "channel": 0,
      "note": 52,
      "start": 81.3949,
      "duration": 0.1167,
      "velocity": 102,
      "chip": "ym2612"
    },
    {
      "channel": 1,
      "note": 34,
      "start": 81.3952,
      "duration": 0.0664,
      "velocity": 87,
      "chip": "ym2612"
    },
    {
      "channel": 2,
      "note": 42,
      "start": 81.3955,
      "duration": 0.6493,
      "velocity": 105,
      "chip": "ym2612"
    },
    {
      "channel": 4,
      "note": 37,
      "start": 81.3964,
      "duration": 0.699,
      "velocity": 96,
      "chip": "ym2612"
    },
    {
      "channel": 1,
      "note": 34,
      "start": 81.4782,
      "duration": 0.0835,
      "velocity": 87,
      "chip": "ym2612"
    },
    {
      "channel": 0,
      "note": 52,
      "start": 81.5782,
      "duration": 0.1165,
      "velocity": 102,
      "chip": "ym2612"
    },
    {
      "channel": 1,
      "note": 37,
      "start": 81.5786,
      "duration": 0.1662,
      "velocity": 87,
      "chip": "ym2612"
    },
    {
      "channel": 5,
      "note": 42,
      "start": 81.6625,
      "duration": 0.6505,
      "velocity": 105,
      "chip": "ym2612"
    },
    {
      "channel": 0,
      "note": 52,
      "start": 81.7618,
      "duration": 0.1162,
      "velocity": 102,
      "chip": "ym2612"
    },
    {
      "channel": 1,
      "note": 37,
      "start": 81.7621,
      "duration": 0.0496,
      "velocity": 87,
      "chip": "ym2612"
    },
    {
      "channel": 1,
      "note": 37,
      "start": 81.8282,
      "duration": 0.0499,
      "velocity": 87,
      "chip": "ym2612"
    },
    {
      "channel": 1,
      "note": 37,
      "start": 81.8949,
      "duration": 0.0332,
      "velocity": 87,
      "chip": "ym2612"
    },
    {
      "channel": 0,
      "note": 52,
      "start": 81.945,
      "duration": 0.1166,
      "velocity": 102,
      "chip": "ym2612"
    },
    {
      "channel": 1,
      "note": 30,
      "start": 81.9454,
      "duration": 0.0663,
      "velocity": 87,
      "chip": "ym2612"
    },
    {
      "channel": 1,
      "note": 30,
      "start": 82.0283,
      "duration": 0.0834,
      "velocity": 87,
      "chip": "ym2612"
    },
    {
      "channel": 0,
      "note": 47,
      "start": 82.1283,
      "duration": 0.1164,
      "velocity": 102,
      "chip": "ym2612"
    },
    {
      "channel": 1,
      "note": 34,
      "start": 82.1286,
      "duration": 0.1661,
      "velocity": 87,
      "chip": "ym2612"
    },
    {
      "channel": 2,
      "note": 47,
      "start": 82.129,
      "duration": 5.0492,
      "velocity": 105,
      "chip": "ym2612"
    },
    {
      "channel": 3,
      "note": 50,
      "start": 82.1299,
      "duration": 4.3652,
      "velocity": 96,
      "chip": "ym2612"
    },
    {
      "channel": 4,
      "note": 35,
      "start": 82.1302,
      "duration": 4.3651,
      "velocity": 96,
      "chip": "ym2612"
    },
    {
      "channel": 0,
      "note": 47,
      "start": 82.3118,
      "duration": 0.1162,
      "velocity": 102,
      "chip": "ym2612"
    },
    {
      "channel": 1,
      "note": 34,
      "start": 82.3121,
      "duration": 0.0496,
      "velocity": 87,
      "chip": "ym2612"
    },
    {
      "channel": 1,
      "note": 30,
      "start": 82.3782,
      "duration": 0.0499,
      "velocity": 87,
      "chip": "ym2612"
    },
    {
      "channel": 5,
      "note": 47,
      "start": 82.3956,
      "duration": 5.0506,
      "velocity": 105,
      "chip": "ym2612"
    },
    {
      "channel": 1,
      "note": 34,
      "start": 82.4449,
      "duration": 0.0332,
      "velocity": 87,
      "chip": "ym2612"
    },
    {
      "channel": 0,
      "note": 47,
      "start": 82.4949,
      "duration": 0.1167,
      "velocity": 102,
      "chip": "ym2612"
    },
    {
      "channel": 1,
      "note": 34,
      "start": 82.4952,
      "duration": 0.0664,
      "velocity": 87,
      "chip": "ym2612"
    },
    {
      "channel": 1,
      "note": 34,
      "start": 82.5782,
      "duration": 0.0835,
      "velocity": 87,
      "chip": "ym2612"
    },
    {
      "channel": 0,
      "note": 47,
      "start": 82.6783,
      "duration": 0.1164,
      "velocity": 102,
      "chip": "ym2612"
    },
    {
      "channel": 1,
      "note": 30,
      "start": 82.6786,
      "duration": 0.3494,
      "velocity": 87,
      "chip": "ym2612"
    },
    {
      "channel": 0,
      "note": 47,
      "start": 82.8618,
      "duration": 0.1162,
      "velocity": 102,
      "chip": "ym2612"
    },
    {
      "channel": 0,
      "note": 47,
      "start": 83.0449,
      "duration": 0.1167,
      "velocity": 102,
      "chip": "ym2612"
    },
    {
      "channel": 1,
      "note": 30,
      "start": 83.0451,
      "duration": 0.1666,
      "velocity": 87,
      "chip": "ym2612"
    },
    {
      "channel": 0,
      "note": 47,
      "start": 83.2283,
      "duration": 0.1164,
      "velocity": 102,
      "chip": "ym2612"
    },
    {
      "channel": 1,
      "note": 34,
      "start": 83.2286,
      "duration": 0.1662,
      "velocity": 87,
      "chip": "ym2612"
    },
    {
      "channel": 0,
      "note": 47,
      "start": 83.4118,
      "duration": 0.1162,
      "velocity": 102,
      "chip": "ym2612"
    },
    {
      "channel": 1,
      "note": 34,
      "start": 83.4121,
      "duration": 0.0496,
      "velocity": 87,
      "chip": "ym2612"
    },
    {
      "channel": 1,
      "note": 34,
      "start": 83.4782,
      "duration": 0.0499,
      "velocity": 87,
      "chip": "ym2612"
    },
    {
      "channel": 1,
      "note": 34,
      "start": 83.5449,
      "duration": 0.0332,
      "velocity": 87,
      "chip": "ym2612"
    },
    {
      "channel": 0,
      "note": 47,
      "start": 83.5949,
      "duration": 0.1167,
      "velocity": 102,
      "chip": "ym2612"
    },
    {
      "channel": 1,
      "note": 34,
      "start": 83.5952,
      "duration": 0.1664,
      "velocity": 87,
      "chip": "ym2612"
    },
    {
      "channel": 0,
      "note": 47,
      "start": 83.7783,
      "duration": 0.1164,
      "velocity": 102,
      "chip": "ym2612"
    },
    {
      "channel": 1,
      "note": 34,
      "start": 83.7786,
      "duration": 0.0495,
      "velocity": 87,
      "chip": "ym2612"
    },
    {
      "channel": 1,
      "note": 34,
      "start": 83.8449,
      "duration": 0.0499,
      "velocity": 87,
      "chip": "ym2612"
    },
    {
      "channel": 1,
      "note": 34,
      "start": 83.9118,
      "duration": 0.033,
      "velocity": 87,
      "chip": "ym2612"
    },
    {
      "channel": 0,
      "note": 47,
      "start": 83.9618,
      "duration": 0.1162,
      "velocity": 102,
      "chip": "ym2612"
    },
    {
      "channel": 1,
      "note": 34,
      "start": 83.9622,
      "duration": 0.1659,
      "velocity": 87,
      "chip": "ym2612"
    },
    {
      "channel": 0,
      "note": 47,
      "start": 84.1449,
      "duration": 0.1167,
      "velocity": 102,
      "chip": "ym2612"
    },
    {
      "channel": 1,
      "note": 34,
      "start": 84.1452,
      "duration": 0.0495,
      "velocity": 87,
      "chip": "ym2612"
    },
    {
      "channel": 1,
      "note": 34,
      "start": 84.2118,
      "duration": 0.0499,
      "velocity": 87,
      "chip": "ym2612"
    },
    {
      "channel": 1,
      "note": 34,
      "start": 84.2782,
      "duration": 0.0335,
      "velocity": 87,
      "chip": "ym2612"
    },
    {
      "channel": 0,
      "note": 47,
      "start": 84.3283,
      "duration": 0.1164,
      "velocity": 102,
      "chip": "ym2612"
    },
    {
      "channel": 1,
      "note": 34,
      "start": 84.3286,
      "duration": 0.0662,
      "velocity": 87,
      "chip": "ym2612"
    },
    {
      "channel": 1,
      "note": 34,
      "start": 84.4118,
      "duration": 0.083,
      "velocity": 87,
      "chip": "ym2612"
    },
    {
      "channel": 0,
      "note": 47,
      "start": 84.5118,
      "duration": 0.1162,
      "velocity": 102,
      "chip": "ym2612"
    },
    {
      "channel": 1,
      "note": 37,
      "start": 84.5122,
      "duration": 0.1659,
      "velocity": 87,
      "chip": "ym2612"
    },
    {
      "channel": 0,
      "note": 47,
      "start": 84.6949,
      "duration": 0.1167,
      "velocity": 102,
      "chip": "ym2612"
    },
    {
      "channel": 1,
      "note": 37,
      "start": 84.6952,
      "duration": 0.0495,
      "velocity": 87,
      "chip": "ym2612"
    },
    {
      "channel": 1,
      "note": 37,
      "start": 84.7618,
      "duration": 0.0499,
      "velocity": 87,
      "chip": "ym2612"
    },
    {
      "channel": 1,
      "note": 37,
      "start": 84.8283,
      "duration": 0.0334,
      "velocity": 87,
      "chip": "ym2612"
    },
    {
      "channel": 0,
      "note": 47,
      "start": 84.8783,
      "duration": 0.1163,
      "velocity": 102,
      "chip": "ym2612"
    },
    {
      "channel": 1,
      "note": 30,
      "start": 84.8787,
      "duration": 0.066,
      "velocity": 87,
      "chip": "ym2612"
    },
    {
      "channel": 1,
      "note": 30,
      "start": 84.9618,
      "duration": 0.0829,
      "velocity": 87,
      "chip": "ym2612"
    },
    {
      "channel": 0,
      "note": 49,
      "start": 85.0618,
      "duration": 0.1162,
      "velocity": 102,
      "chip": "ym2612"
    },
    {
      "channel": 1,
      "note": 34,
      "start": 85.0622,
      "duration": 0.1659,
      "velocity": 87,
      "chip": "ym2612"
    },
    {
      "channel": 0,
      "note": 49,
      "start": 85.2449,
      "duration": 0.1167,
      "velocity": 102,
      "chip": "ym2612"
    },
    {
      "channel": 1,
      "note": 34,
      "start": 85.2452,
      "duration": 0.0495,
      "velocity": 87,
      "chip": "ym2612"
    },
    {
      "channel": 1,
      "note": 30,
      "start": 85.3118,
      "duration": 0.0499,
      "velocity": 87,
      "chip": "ym2612"
    },
    {
      "channel": 1,
      "note": 34,
      "start": 85.3782,
      "duration": 0.0335,
      "velocity": 87,
      "chip": "ym2612"
    },
    {
      "channel": 0,
      "note": 49,
      "start": 85.4282,
      "duration": 0.1165,
      "velocity": 102,
      "chip": "ym2612"
    },
    {
      "channel": 1,
      "note": 34,
      "start": 85.4285,
      "duration": 0.0662,
      "velocity": 87,
      "chip": "ym2612"
    },
    {
      "channel": 1,
      "note": 34,
      "start": 85.5118,
      "duration": 0.083,
      "velocity": 87,
      "chip": "ym2612"
    },
    {
      "channel": 0,
      "note": 49,
      "start": 85.6118,
      "duration": 0.1162,
      "velocity": 102,
      "chip": "ym2612"
    },
    {
      "channel": 1,
      "note": 30,
      "start": 85.6122,
      "duration": 0.3495,
      "velocity": 87,
      "chip": "ym2612"
    },
    {
      "channel": 0,
      "note": 49,
      "start": 85.7949,
      "duration": 0.1167,
      "velocity": 102,
      "chip": "ym2612"
    },
    {
      "channel": 0,
      "note": 49,
      "start": 85.9783,
      "duration": 0.1164,
      "velocity": 102,
      "chip": "ym2612"
    },
    {
      "channel": 1,
      "note": 30,
      "start": 85.9784,
      "duration": 0.1663,
      "velocity": 87,
      "chip": "ym2612"
    },
    {
      "channel": 0,
      "note": 49,
      "start": 86.1618,
      "duration": 0.1162,
      "velocity": 102,
      "chip": "ym2612"
    },
    {
      "channel": 1,
      "note": 34,
      "start": 86.1621,
      "duration": 0.166,
      "velocity": 87,
      "chip": "ym2612"
    },
    {
      "channel": 0,
      "note": 49,
      "start": 86.3449,
      "duration": 0.1167,
      "velocity": 102,
      "chip": "ym2612"
    },
    {
      "channel": 1,
      "note": 34,
      "start": 86.3452,
      "duration": 0.0496,
      "velocity": 87,
      "chip": "ym2612"
    },
    {
      "channel": 1,
      "note": 34,
      "start": 86.4118,
      "duration": 0.0499,
      "velocity": 87,
      "chip": "ym2612"
    },
    {
      "channel": 1,
      "note": 34,
      "start": 86.4782,
      "duration": 0.0335,
      "velocity": 87,
      "chip": "ym2612"
    },
    {
      "channel": 0,
      "note": 49,
      "start": 86.5283,
      "duration": 0.1164,
      "velocity": 102,
      "chip": "ym2612"
    },
    {
      "channel": 1,
      "note": 34,
      "start": 86.5286,
      "duration": 0.1662,
      "velocity": 87,
      "chip": "ym2612"
    },
    {
      "channel": 3,
      "note": 45,
      "start": 86.5305,
      "duration": 1.4317,
      "velocity": 96,
      "chip": "ym2612"
    },
    {
      "channel": 4,
      "note": 28,
      "start": 86.5318,
      "duration": 1.4304,
      "velocity": 96,
      "chip": "ym2612"
    },
    {
      "channel": 0,
      "note": 49,
      "start": 86.7118,
      "duration": 0.1162,
      "velocity": 102,
      "chip": "ym2612"
    },
    {
      "channel": 1,
      "note": 34,
      "start": 86.7122,
      "duration": 0.0495,
      "velocity": 87,
      "chip": "ym2612"
    },
    {
      "channel": 1,
      "note": 34,
      "start": 86.7782,
      "duration": 0.0499,
      "velocity": 87,
      "chip": "ym2612"
    },
    {
      "channel": 1,
      "note": 34,
      "start": 86.8449,
      "duration": 0.0332,
      "velocity": 87,
      "chip": "ym2612"
    },
    {
      "channel": 0,
      "note": 49,
      "start": 86.8949,
      "duration": 0.1167,
      "velocity": 102,
      "chip": "ym2612"
    },
    {
      "channel": 1,
      "note": 34,
      "start": 86.8952,
      "duration": 0.1664,
      "velocity": 87,
      "chip": "ym2612"
    },
    {
      "channel": 0,
      "note": 49,
      "start": 87.0782,
      "duration": 0.1165,
      "velocity": 102,
      "chip": "ym2612"
    },
    {
      "channel": 1,
      "note": 34,
      "start": 87.0785,
      "duration": 0.0496,
      "velocity": 87,
      "chip": "ym2612"
    },
    {
      "channel": 1,
      "note": 34,
      "start": 87.1449,
      "duration": 0.0499,
      "velocity": 87,
      "chip": "ym2612"
    },
    {
      "channel": 1,
      "note": 34,
      "start": 87.2118,
      "duration": 0.033,
      "velocity": 87,
      "chip": "ym2612"
    },
    {
      "channel": 0,
      "note": 49,
      "start": 87.2618,
      "duration": 0.1162,
      "velocity": 102,
      "chip": "ym2612"
    },
    {
      "channel": 1,
      "note": 34,
      "start": 87.2622,
      "duration": 0.0659,
      "velocity": 87,
      "chip": "ym2612"
    },
    {
      "channel": 2,
      "note": 49,
      "start": 87.2625,
      "duration": 0.6493,
      "velocity": 105,
      "chip": "ym2612"
    },
    {
      "channel": 1,
      "note": 34,
      "start": 87.3449,
      "duration": 0.0832,
      "velocity": 87,
      "chip": "ym2612"
    },
    {
      "channel": 0,
      "note": 49,
      "start": 87.4449,
      "duration": 0.1167,
      "velocity": 102,
      "chip": "ym2612"
    },
    {
      "channel": 1,
      "note": 37,
      "start": 87.4452,
      "duration": 0.1664,
      "velocity": 87,
      "chip": "ym2612"
    },
    {
      "channel": 5,
      "note": 49,
      "start": 87.5289,
      "duration": 0.6508,
      "velocity": 105,
      "chip": "ym2612"
    },
    {
      "channel": 0,
      "note": 49,
      "start": 87.6283,
      "duration": 0.1164,
      "velocity": 102,
      "chip": "ym2612"
    },
    {
      "channel": 1,
      "note": 37,
      "start": 87.6286,
      "duration": 0.0495,
      "velocity": 87,
      "chip": "ym2612"
    },
    {
      "channel": 1,
      "note": 37,
      "start": 87.6949,
      "duration": 0.0499,
      "velocity": 87,
      "chip": "ym2612"
    },
    {
      "channel": 1,
      "note": 37,
      "start": 87.7618,
      "duration": 0.033,
      "velocity": 87,
      "chip": "ym2612"
    },
    {
      "channel": 0,
      "note": 49,
      "start": 87.8119,
      "duration": 0.1161,
      "velocity": 102,
      "chip": "ym2612"
    },
    {
      "channel": 1,
      "note": 30,
      "start": 87.8123,
      "duration": 0.0658,
      "velocity": 87,
      "chip": "ym2612"
    },
    {
      "channel": 1,
      "note": 30,
      "start": 87.8949,
      "duration": 0.0832,
      "velocity": 87,
      "chip": "ym2612"
    },
    {
      "channel": 0,
      "note": 55,
      "start": 87.9949,
      "duration": 0.1167,
      "velocity": 102,
      "chip": "ym2612"
    },
    {
      "channel": 1,
      "note": 34,
      "start": 87.9953,
      "duration": 0.1663,
      "velocity": 87,
      "chip": "ym2612"
    },
    {
      "channel": 2,
      "note": 47,
      "start": 87.9957,
      "duration": 5.4161,
      "velocity": 105,
      "chip": "ym2612"
    },
    {
      "channel": 3,
      "note": 43,
      "start": 87.9975,
      "duration": 2.5311,
      "velocity": 96,
      "chip": "ym2612"
    },
    {
      "channel": 4,
      "note": 26,
      "start": 87.9987,
      "duration": 2.8967,
      "velocity": 96,
      "chip": "ym2612"
    },
    {
      "channel": 0,
      "note": 55,
      "start": 88.1783,
      "duration": 0.1164,
      "velocity": 102,
      "chip": "ym2612"
    },
    {
      "channel": 1,
      "note": 34,
      "start": 88.1786,
      "duration": 0.0495,
      "velocity": 87,
      "chip": "ym2612"
    },
    {
      "channel": 1,
      "note": 30,
      "start": 88.2449,
      "duration": 0.0499,
      "velocity": 87,
      "chip": "ym2612"
    },
    {
      "channel": 5,
      "note": 47,
      "start": 88.2627,
      "duration": 5.4168,
      "velocity": 105,
      "chip": "ym2612"
    },
    {
      "channel": 1,
      "note": 34,
      "start": 88.3118,
      "duration": 0.033,
      "velocity": 87,
      "chip": "ym2612"
    },
    {
      "channel": 0,
      "note": 55,
      "start": 88.3618,
      "duration": 0.1162,
      "velocity": 102,
      "chip": "ym2612"
    },
    {
      "channel": 1,
      "note": 34,
      "start": 88.3621,
      "duration": 0.066,
      "velocity": 87,
      "chip": "ym2612"
    },
    {
      "channel": 1,
      "note": 34,
      "start": 88.4449,
      "duration": 0.0832,
      "velocity": 87,
      "chip": "ym2612"
    },
    {
      "channel": 0,
      "note": 55,
      "start": 88.5449,
      "duration": 0.1167,
      "velocity": 102,
      "chip": "ym2612"
    },
    {
      "channel": 1,
      "note": 30,
      "start": 88.5453,
      "duration": 0.3494,
      "velocity": 87,
      "chip": "ym2612"
    },
    {
      "channel": 0,
      "note": 55,
      "start": 88.7282,
      "duration": 0.1165,
      "velocity": 102,
      "chip": "ym2612"
    },
    {
      "channel": 0,
      "note": 55,
      "start": 88.9118,
      "duration": 0.1162,
      "velocity": 102,
      "chip": "ym2612"
    },
    {
      "channel": 1,
      "note": 30,
      "start": 88.912,
      "duration": 0.166,
      "velocity": 87,
      "chip": "ym2612"
    },
    {
      "channel": 0,
      "note": 55,
      "start": 89.0949,
      "duration": 0.1167,
      "velocity": 102,
      "chip": "ym2612"
    },
    {
      "channel": 1,
      "note": 34,
      "start": 89.0952,
      "duration": 0.1664,
      "velocity": 87,
      "chip": "ym2612"
    },
    {
      "channel": 0,
      "note": 55,
      "start": 89.2783,
      "duration": 0.1164,
      "velocity": 102,
      "chip": "ym2612"
    },
    {
      "channel": 1,
      "note": 34,
      "start": 89.2786,
      "duration": 0.0495,
      "velocity": 87,
      "chip": "ym2612"
    },
    {
      "channel": 1,
      "note": 34,
      "start": 89.3449,
      "duration": 0.0499,
      "velocity": 87,
      "chip": "ym2612"
    },
    {
      "channel": 1,
      "note": 34,
      "start": 89.4118,
      "duration": 0.033,
      "velocity": 87,
      "chip": "ym2612"
    },
    {
      "channel": 0,
      "note": 55,
      "start": 89.4618,
      "duration": 0.1162,
      "velocity": 102,
      "chip": "ym2612"
    },
    {
      "channel": 1,
      "note": 34,
      "start": 89.4622,
      "duration": 0.1659,
      "velocity": 87,
      "chip": "ym2612"
    },
    {
      "channel": 0,
      "note": 55,
      "start": 89.6449,
      "duration": 0.1167,
      "velocity": 102,
      "chip": "ym2612"
    },
    {
      "channel": 1,
      "note": 34,
      "start": 89.6452,
      "duration": 0.0495,
      "velocity": 87,
      "chip": "ym2612"
    },
    {
      "channel": 1,
      "note": 34,
      "start": 89.7118,
      "duration": 0.0499,
      "velocity": 87,
      "chip": "ym2612"
    },
    {
      "channel": 1,
      "note": 34,
      "start": 89.7783,
      "duration": 0.0334,
      "velocity": 87,
      "chip": "ym2612"
    },
    {
      "channel": 0,
      "note": 55,
      "start": 89.8283,
      "duration": 0.1164,
      "velocity": 102,
      "chip": "ym2612"
    },
    {
      "channel": 1,
      "note": 34,
      "start": 89.8286,
      "duration": 0.1662,
      "velocity": 87,
      "chip": "ym2612"
    },
    {
      "channel": 0,
      "note": 55,
      "start": 90.0118,
      "duration": 0.1162,
      "velocity": 102,
      "chip": "ym2612"
    },
    {
      "channel": 1,
      "note": 34,
      "start": 90.0121,
      "duration": 0.0496,
      "velocity": 87,
      "chip": "ym2612"
    },
    {
      "channel": 1,
      "note": 34,
      "start": 90.0782,
      "duration": 0.0499,
      "velocity": 87,
      "chip": "ym2612"
    },
    {
      "channel": 1,
      "note": 34,
      "start": 90.1449,
      "duration": 0.0332,
      "velocity": 87,
      "chip": "ym2612"
    },
    {
      "channel": 0,
      "note": 55,
      "start": 90.1949,
      "duration": 0.1167,
      "velocity": 102,
      "chip": "ym2612"
    },
    {
      "channel": 1,
      "note": 34,
      "start": 90.1952,
      "duration": 0.0664,
      "velocity": 87,
      "chip": "ym2612"
    },
    {
      "channel": 1,
      "note": 34,
      "start": 90.2782,
      "duration": 0.0835,
      "velocity": 87,
      "chip": "ym2612"
    },
    {
      "channel": 0,
      "note": 55,
      "start": 90.3783,
      "duration": 0.1164,
      "velocity": 102,
      "chip": "ym2612"
    },
    {
      "channel": 1,
      "note": 37,
      "start": 90.3786,
      "duration": 0.1662,
      "velocity": 87,
      "chip": "ym2612"
    },
    {
      "channel": 0,
      "note": 55,
      "start": 90.5618,
      "duration": 0.1162,
      "velocity": 102,
      "chip": "ym2612"
    },
    {
      "channel": 1,
      "note": 37,
      "start": 90.5621,
      "duration": 0.0496,
      "velocity": 87,
      "chip": "ym2612"
    },
    {
      "channel": 3,
      "note": 42,
      "start": 90.5631,
      "duration": 0.3322,
      "velocity": 96,
      "chip": "ym2612"
    },
    {
      "channel": 1,
      "note": 37,
      "start": 90.6282,
      "duration": 0.0499,
      "velocity": 87,
      "chip": "ym2612"
    },
    {
      "channel": 1,
      "note": 37,
      "start": 90.6949,
      "duration": 0.0332,
      "velocity": 87,
      "chip": "ym2612"
    },
    {
      "channel": 0,
      "note": 55,
      "start": 90.745,
      "duration": 0.1166,
      "velocity": 102,
      "chip": "ym2612"
    },
    {
      "channel": 1,
      "note": 30,
      "start": 90.7454,
      "duration": 0.0663,
      "velocity": 87,
      "chip": "ym2612"
    },
    {
      "channel": 1,
      "note": 30,
      "start": 90.8283,
      "duration": 0.0834,
      "velocity": 87,
      "chip": "ym2612"
    },
    {
      "channel": 0,
      "note": 55,
      "start": 90.9283,
      "duration": 0.1164,
      "velocity": 102,
      "chip": "ym2612"
    },
    {
      "channel": 1,
      "note": 34,
      "start": 90.9286,
      "duration": 0.1661,
      "velocity": 87,
      "chip": "ym2612"
    },
    {
      "channel": 3,
      "note": 40,
      "start": 90.9297,
      "duration": 0.3324,
      "velocity": 96,
      "chip": "ym2612"
    },
    {
      "channel": 4,
      "note": 23,
      "start": 90.93,
      "duration": 1.4322,
      "velocity": 96,
      "chip": "ym2612"
    },
    {
      "channel": 0,
      "note": 55,
      "start": 91.1118,
      "duration": 0.1162,
      "velocity": 102,
      "chip": "ym2612"
    },
    {
      "channel": 1,
      "note": 34,
      "start": 91.1121,
      "duration": 0.0496,
      "velocity": 87,
      "chip": "ym2612"
    },
    {
      "channel": 1,
      "note": 30,
      "start": 91.1782,
      "duration": 0.0499,
      "velocity": 87,
      "chip": "ym2612"
    },
    {
      "channel": 1,
      "note": 34,
      "start": 91.2449,
      "duration": 0.0332,
      "velocity": 87,
      "chip": "ym2612"
    },
    {
      "channel": 0,
      "note": 55,
      "start": 91.2949,
      "duration": 0.1167,
      "velocity": 102,
      "chip": "ym2612"
    },
    {
      "channel": 1,
      "note": 34,
      "start": 91.2952,
      "duration": 0.0664,
      "velocity": 87,
      "chip": "ym2612"
    },
    {
      "channel": 3,
      "note": 38,
      "start": 91.2961,
      "duration": 2.5326,
      "velocity": 96,
      "chip": "ym2612"
    },
    {
      "channel": 1,
      "note": 34,
      "start": 91.3782,
      "duration": 0.0835,
      "velocity": 87,
      "chip": "ym2612"
    },
    {
      "channel": 0,
      "note": 55,
      "start": 91.4783,
      "duration": 0.1164,
      "velocity": 102,
      "chip": "ym2612"
    },
    {
      "channel": 1,
      "note": 30,
      "start": 91.4786,
      "duration": 0.3494,
      "velocity": 87,
      "chip": "ym2612"
    },
    {
      "channel": 0,
      "note": 55,
      "start": 91.6618,
      "duration": 0.1162,
      "velocity": 102,
      "chip": "ym2612"
    },
    {
      "channel": 0,
      "note": 55,
      "start": 91.8449,
      "duration": 0.1167,
      "velocity": 102,
      "chip": "ym2612"
    },
    {
      "channel": 1,
      "note": 30,
      "start": 91.8451,
      "duration": 0.1666,
      "velocity": 87,
      "chip": "ym2612"
    },
    {
      "channel": 0,
      "note": 55,
      "start": 92.0283,
      "duration": 0.1164,
      "velocity": 102,
      "chip": "ym2612"
    },
    {
      "channel": 1,
      "note": 34,
      "start": 92.0286,
      "duration": 0.1662,
      "velocity": 87,
      "chip": "ym2612"
    },
    {
      "channel": 0,
      "note": 55,
      "start": 92.2118,
      "duration": 0.1162,
      "velocity": 102,
      "chip": "ym2612"
    },
    {
      "channel": 1,
      "note": 34,
      "start": 92.2121,
      "duration": 0.0496,
      "velocity": 87,
      "chip": "ym2612"
    },
    {
      "channel": 1,
      "note": 34,
      "start": 92.2782,
      "duration": 0.0499,
      "velocity": 87,
      "chip": "ym2612"
    },
    {
      "channel": 1,
      "note": 34,
      "start": 92.3449,
      "duration": 0.0332,
      "velocity": 87,
      "chip": "ym2612"
    },
    {
      "channel": 0,
      "note": 55,
      "start": 92.3949,
      "duration": 0.1167,
      "velocity": 102,
      "chip": "ym2612"
    },
    {
      "channel": 1,
      "note": 34,
      "start": 92.3952,
      "duration": 0.1664,
      "velocity": 87,
      "chip": "ym2612"
    },
    {
      "channel": 4,
      "note": 26,
      "start": 92.3963,
      "duration": 1.066,
      "velocity": 96,
      "chip": "ym2612"
    },
    {
      "channel": 0,
      "note": 55,
      "start": 92.5783,
      "duration": 0.1164,
      "velocity": 102,
      "chip": "ym2612"
    },
    {
      "channel": 1,
      "note": 34,
      "start": 92.5786,
      "duration": 0.0495,
      "velocity": 87,
      "chip": "ym2612"
    },
    {
      "channel": 1,
      "note": 34,
      "start": 92.6449,
      "duration": 0.0499,
      "velocity": 87,
      "chip": "ym2612"
    },
    {
      "channel": 1,
      "note": 34,
      "start": 92.7118,
      "duration": 0.033,
      "velocity": 87,
      "chip": "ym2612"
    },
    {
      "channel": 0,
      "note": 55,
      "start": 92.7618,
      "duration": 0.1162,
      "velocity": 102,
      "chip": "ym2612"
    },
    {
      "channel": 1,
      "note": 34,
      "start": 92.7622,
      "duration": 0.1659,
      "velocity": 87,
      "chip": "ym2612"
    },
    {
      "channel": 0,
      "note": 55,
      "start": 92.9449,
      "duration": 0.1167,
      "velocity": 102,
      "chip": "ym2612"
    },
    {
      "channel": 1,
      "note": 34,
      "start": 92.9452,
      "duration": 0.0496,
      "velocity": 87,
      "chip": "ym2612"
    },
    {
      "channel": 1,
      "note": 34,
      "start": 93.0118,
      "duration": 0.0499,
      "velocity": 87,
      "chip": "ym2612"
    },
    {
      "channel": 1,
      "note": 34,
      "start": 93.0782,
      "duration": 0.0335,
      "velocity": 87,
      "chip": "ym2612"
    },
    {
      "channel": 0,
      "note": 55,
      "start": 93.1283,
      "duration": 0.1164,
      "velocity": 102,
      "chip": "ym2612"
    },
    {
      "channel": 1,
      "note": 34,
      "start": 93.1286,
      "duration": 0.0662,
      "velocity": 87,
      "chip": "ym2612"
    },
    {
      "channel": 1,
      "note": 34,
      "start": 93.2118,
      "duration": 0.083,
      "velocity": 87,
      "chip": "ym2612"
    },
    {
      "channel": 0,
      "note": 55,
      "start": 93.3118,
      "duration": 0.1162,
      "velocity": 102,
      "chip": "ym2612"
    },
    {
      "channel": 1,
      "note": 37,
      "start": 93.3122,
      "duration": 0.1659,
      "velocity": 87,
      "chip": "ym2612"
    },
    {
      "channel": 0,
      "note": 57,
      "start": 93.4949,
      "duration": 0.1167,
      "velocity": 102,
      "chip": "ym2612"
    },
    {
      "channel": 1,
      "note": 37,
      "start": 93.4952,
      "duration": 0.0495,
      "velocity": 87,
      "chip": "ym2612"
    },
    {
      "channel": 2,
      "note": 49,
      "start": 93.4955,
      "duration": 0.2826,
      "velocity": 105,
      "chip": "ym2612"
    },
    {
      "channel": 4,
      "note": 28,
      "start": 93.4966,
      "duration": 0.3322,
      "velocity": 96,
      "chip": "ym2612"
    },
    {
      "channel": 1,
      "note": 37,
      "start": 93.5618,
      "duration": 0.0499,
      "velocity": 87,
      "chip": "ym2612"
    },
    {
      "channel": 1,
      "note": 37,
      "start": 93.6282,
      "duration": 0.0335,
      "velocity": 87,
      "chip": "ym2612"
    },
    {
      "channel": 0,
      "note": 57,
      "start": 93.6783,
      "duration": 0.1164,
      "velocity": 102,
      "chip": "ym2612"
    },
    {
      "channel": 1,
      "note": 30,
      "start": 93.6786,
      "duration": 0.0662,
      "velocity": 87,
      "chip": "ym2612"
    },
    {
      "channel": 1,
      "note": 30,
      "start": 93.7618,
      "duration": 0.0829,
      "velocity": 87,
      "chip": "ym2612"
    },
    {
      "channel": 5,
      "note": 49,
      "start": 93.7629,
      "duration": 0.2833,
      "velocity": 105,
      "chip": "ym2612"
    },
    {
      "channel": 0,
      "note": 59,
      "start": 93.8618,
      "duration": 0.1162,
      "velocity": 102,
      "chip": "ym2612"
    },
    {
      "channel": 1,
      "note": 34,
      "start": 93.8622,
      "duration": 0.1659,
      "velocity": 87,
      "chip": "ym2612"
    },
    {
      "channel": 2,
      "note": 50,
      "start": 93.8625,
      "duration": 3.9493,
      "velocity": 105,
      "chip": "ym2612"
    },
    {
      "channel": 3,
      "note": 42,
      "start": 93.8634,
      "duration": 1.7988,
      "velocity": 96,
      "chip": "ym2612"
    },
    {
      "channel": 4,
      "note": 30,
      "start": 93.8636,
      "duration": 1.4317,
      "velocity": 96,
      "chip": "ym2612"
    },
    {
      "channel": 0,
      "note": 59,
      "start": 94.0449,
      "duration": 0.1167,
      "velocity": 102,
      "chip": "ym2612"
    },
    {
      "channel": 1,
      "note": 34,
      "start": 94.0452,
      "duration": 0.0496,
      "velocity": 87,
      "chip": "ym2612"
    },
    {
      "channel": 1,
      "note": 30,
      "start": 94.1118,
      "duration": 0.0499,
      "velocity": 87,
      "chip": "ym2612"
    },
    {
      "channel": 5,
      "note": 50,
      "start": 94.1291,
      "duration": 3.9507,
      "velocity": 105,
      "chip": "ym2612"
    },
    {
      "channel": 1,
      "note": 34,
      "start": 94.1782,
      "duration": 0.0335,
      "velocity": 87,
      "chip": "ym2612"
    },
    {
      "channel": 0,
      "note": 59,
      "start": 94.2282,
      "duration": 0.1165,
      "velocity": 102,
      "chip": "ym2612"
    },
    {
      "channel": 1,
      "note": 34,
      "start": 94.2285,
      "duration": 0.0662,
      "velocity": 87,
      "chip": "ym2612"
    },
    {
      "channel": 1,
      "note": 34,
      "start": 94.3118,
      "duration": 0.083,
      "velocity": 87,
      "chip": "ym2612"
    },
    {
      "channel": 0,
      "note": 59,
      "start": 94.4118,
      "duration": 0.1162,
      "velocity": 102,
      "chip": "ym2612"
    },
    {
      "channel": 1,
      "note": 30,
      "start": 94.4122,
      "duration": 0.3495,
      "velocity": 87,
      "chip": "ym2612"
    },
    {
      "channel": 0,
      "note": 59,
      "start": 94.5949,
      "duration": 0.1167,
      "velocity": 102,
      "chip": "ym2612"
    },
    {
      "channel": 0,
      "note": 59,
      "start": 94.7783,
      "duration": 0.1164,
      "velocity": 102,
      "chip": "ym2612"
    },
    {
      "channel": 1,
      "note": 30,
      "start": 94.7784,
      "duration": 0.1663,
      "velocity": 87,
      "chip": "ym2612"
    },
    {
      "channel": 0,
      "note": 59,
      "start": 94.9618,
      "duration": 0.1162,
      "velocity": 102,
      "chip": "ym2612"
    },
    {
      "channel": 1,
      "note": 34,
      "start": 94.9622,
      "duration": 0.1659,
      "velocity": 87,
      "chip": "ym2612"
    },
    {
      "channel": 0,
      "note": 59,
      "start": 95.1449,
      "duration": 0.1167,
      "velocity": 102,
      "chip": "ym2612"
    },
    {
      "channel": 1,
      "note": 34,
      "start": 95.1452,
      "duration": 0.0495,
      "velocity": 87,
      "chip": "ym2612"
    },
    {
      "channel": 1,
      "note": 34,
      "start": 95.2118,
      "duration": 0.0499,
      "velocity": 87,
      "chip": "ym2612"
    },
    {
      "channel": 1,
      "note": 34,
      "start": 95.2782,
      "duration": 0.0335,
      "velocity": 87,
      "chip": "ym2612"
    },
    {
      "channel": 0,
      "note": 59,
      "start": 95.3283,
      "duration": 0.1164,
      "velocity": 102,
      "chip": "ym2612"
    },
    {
      "channel": 1,
      "note": 34,
      "start": 95.3286,
      "duration": 0.1662,
      "velocity": 87,
      "chip": "ym2612"
    },
    {
      "channel": 4,
      "note": 28,
      "start": 95.3297,
      "duration": 1.4326,
      "velocity": 96,
      "chip": "ym2612"
    },
    {
      "channel": 0,
      "note": 59,
      "start": 95.5118,
      "duration": 0.1162,
      "velocity": 102,
      "chip": "ym2612"
    },
    {
      "channel": 1,
      "note": 34,
      "start": 95.5122,
      "duration": 0.0495,
      "velocity": 87,
      "chip": "ym2612"
    },
    {
      "channel": 1,
      "note": 34,
      "start": 95.5782,
      "duration": 0.0499,
      "velocity": 87,
      "chip": "ym2612"
    },
    {
      "channel": 1,
      "note": 34,
      "start": 95.6449,
      "duration": 0.0332,
      "velocity": 87,
      "chip": "ym2612"
    },
    {
      "channel": 0,
      "note": 59,
      "start": 95.6949,
      "duration": 0.1167,
      "velocity": 102,
      "chip": "ym2612"
    },
    {
      "channel": 1,
      "note": 34,
      "start": 95.6952,
      "duration": 0.1664,
      "velocity": 87,
      "chip": "ym2612"
    },
    {
      "channel": 3,
      "note": 35,
      "start": 95.6962,
      "duration": 0.3324,
      "velocity": 96,
      "chip": "ym2612"
    },
    {
      "channel": 0,
      "note": 59,
      "start": 95.8782,
      "duration": 0.1165,
      "velocity": 102,
      "chip": "ym2612"
    },
    {
      "channel": 1,
      "note": 34,
      "start": 95.8785,
      "duration": 0.0496,
      "velocity": 87,
      "chip": "ym2612"
    },
    {
      "channel": 1,
      "note": 34,
      "start": 95.9449,
      "duration": 0.0499,
      "velocity": 87,
      "chip": "ym2612"
    },
    {
      "channel": 1,
      "note": 34,
      "start": 96.0118,
      "duration": 0.033,
      "velocity": 87,
      "chip": "ym2612"
    },
    {
      "channel": 0,
      "note": 59,
      "start": 96.0618,
      "duration": 0.1162,
      "velocity": 102,
      "chip": "ym2612"
    },
    {
      "channel": 1,
      "note": 34,
      "start": 96.0622,
      "duration": 0.0659,
      "velocity": 87,
      "chip": "ym2612"
    },
    {
      "channel": 3,
      "note": 37,
      "start": 96.0631,
      "duration": 0.3322,
      "velocity": 96,
      "chip": "ym2612"
    },
    {
      "channel": 1,
      "note": 34,
      "start": 96.1449,
      "duration": 0.0832,
      "velocity": 87,
      "chip": "ym2612"
    },
    {
      "channel": 0,
      "note": 59,
      "start": 96.2449,
      "duration": 0.1167,
      "velocity": 102,
      "chip": "ym2612"
    },
    {
      "channel": 1,
      "note": 37,
      "start": 96.2452,
      "duration": 0.1664,
      "velocity": 87,
      "chip": "ym2612"
    },
    {
      "channel": 0,
      "note": 59,
      "start": 96.4283,
      "duration": 0.1164,
      "velocity": 102,
      "chip": "ym2612"
    },
    {
      "channel": 1,
      "note": 37,
      "start": 96.4286,
      "duration": 0.0495,
      "velocity": 87,
      "chip": "ym2612"
    },
    {
      "channel": 3,
      "note": 38,
      "start": 96.4295,
      "duration": 0.3328,
      "velocity": 96,
      "chip": "ym2612"
    },
    {
      "channel": 1,
      "note": 37,
      "start": 96.4949,
      "duration": 0.0499,
      "velocity": 87,
      "chip": "ym2612"
    },
    {
      "channel": 1,
      "note": 37,
      "start": 96.5618,
      "duration": 0.033,
      "velocity": 87,
      "chip": "ym2612"
    },
    {
      "channel": 0,
      "note": 59,
      "start": 96.6119,
      "duration": 0.1161,
      "velocity": 102,
      "chip": "ym2612"
    },
    {
      "channel": 1,
      "note": 30,
      "start": 96.6123,
      "duration": 0.0658,
      "velocity": 87,
      "chip": "ym2612"
    },
    {
      "channel": 1,
      "note": 30,
      "start": 96.6949,
      "duration": 0.0832,
      "velocity": 87,
      "chip": "ym2612"
    },
    {
      "channel": 0,
      "note": 59,
      "start": 96.7949,
      "duration": 0.1167,
      "velocity": 102,
      "chip": "ym2612"
    },
    {
      "channel": 1,
      "note": 34,
      "start": 96.7953,
      "duration": 0.1663,
      "velocity": 87,
      "chip": "ym2612"
    },
    {
      "channel": 3,
      "note": 42,
      "start": 96.7964,
      "duration": 1.4322,
      "velocity": 96,
      "chip": "ym2612"
    },
    {
      "channel": 4,
      "note": 26,
      "start": 96.7966,
      "duration": 1.4321,
      "velocity": 96,
      "chip": "ym2612"
    },
    {
      "channel": 0,
      "note": 59,
      "start": 96.9783,
      "duration": 0.1164,
      "velocity": 102,
      "chip": "ym2612"
    },
    {
      "channel": 1,
      "note": 34,
      "start": 96.9786,
      "duration": 0.0495,
      "velocity": 87,
      "chip": "ym2612"
    },
    {
      "channel": 1,
      "note": 30,
      "start": 97.0449,
      "duration": 0.0499,
      "velocity": 87,
      "chip": "ym2612"
    },
    {
      "channel": 1,
      "note": 34,
      "start": 97.1118,
      "duration": 0.033,
      "velocity": 87,
      "chip": "ym2612"
    },
    {
      "channel": 0,
      "note": 59,
      "start": 97.1618,
      "duration": 0.1162,
      "velocity": 102,
      "chip": "ym2612"
    },
    {
      "channel": 1,
      "note": 34,
      "start": 97.1621,
      "duration": 0.066,
      "velocity": 87,
      "chip": "ym2612"
    },
    {
      "channel": 1,
      "note": 34,
      "start": 97.2449,
      "duration": 0.0832,
      "velocity": 87,
      "chip": "ym2612"
    },
    {
      "channel": 0,
      "note": 59,
      "start": 97.3449,
      "duration": 0.1167,
      "velocity": 102,
      "chip": "ym2612"
    },
    {
      "channel": 1,
      "note": 30,
      "start": 97.3453,
      "duration": 0.3494,
      "velocity": 87,
      "chip": "ym2612"
    },
    {
      "channel": 0,
      "note": 59,
      "start": 97.5283,
      "duration": 0.1164,
      "velocity": 102,
      "chip": "ym2612"
    },
    {
      "channel": 0,
      "note": 59,
      "start": 97.7118,
      "duration": 0.1162,
      "velocity": 102,
      "chip": "ym2612"
    },
    {
      "channel": 1,
      "note": 30,
      "start": 97.712,
      "duration": 0.166,
      "velocity": 87,
      "chip": "ym2612"
    },
    {
      "channel": 0,
      "note": 59,
      "start": 97.8949,
      "duration": 0.1167,
      "velocity": 102,
      "chip": "ym2612"
    },
    {
      "channel": 1,
      "note": 34,
      "start": 97.8952,
      "duration": 0.1664,
      "velocity": 87,
      "chip": "ym2612"
    },
    {
      "channel": 2,
      "note": 50,
      "start": 97.8955,
      "duration": 0.0994,
      "velocity": 105,
      "chip": "ym2612"
    },
    {
      "channel": 0,
      "note": 59,
      "start": 98.0783,
      "duration": 0.1164,
      "velocity": 102,
      "chip": "ym2612"
    },
    {
      "channel": 1,
      "note": 34,
      "start": 98.0786,
      "duration": 0.0495,
      "velocity": 87,
      "chip": "ym2612"
    },
    {
      "channel": 2,
      "note": 52,
      "start": 98.0788,
      "duration": 0.0994,
      "velocity": 105,
      "chip": "ym2612"
    },
    {
      "channel": 1,
      "note": 34,
      "start": 98.1449,
      "duration": 0.0499,
      "velocity": 87,
      "chip": "ym2612"
    },
    {
      "channel": 5,
      "note": 50,
      "start": 98.1627,
      "duration": 0.101,
      "velocity": 105,
      "chip": "ym2612"
    },
    {
      "channel": 1,
      "note": 34,
      "start": 98.2118,
      "duration": 0.033,
      "velocity": 87,
      "chip": "ym2612"
    },
    {
      "channel": 0,
      "note": 59,
      "start": 98.2618,
      "duration": 0.1162,
      "velocity": 102,
      "chip": "ym2612"
    },
    {
      "channel": 1,
      "note": 34,
      "start": 98.2622,
      "duration": 0.1659,
      "velocity": 87,
      "chip": "ym2612"
    },
    {
      "channel": 2,
      "note": 50,
      "start": 98.2624,
      "duration": 0.6493,
      "velocity": 105,
      "chip": "ym2612"
    },
    {
      "channel": 3,
      "note": 47,
      "start": 98.2632,
      "duration": 0.6989,
      "velocity": 96,
      "chip": "ym2612"
    },
    {
      "channel": 4,
      "note": 25,
      "start": 98.2635,
      "duration": 1.4319,
      "velocity": 96,
      "chip": "ym2612"
    },
    {
      "channel": 5,
      "note": 52,
      "start": 98.3458,
      "duration": 0.1005,
      "velocity": 105,
      "chip": "ym2612"
    },
    {
      "channel": 0,
      "note": 59,
      "start": 98.4449,
      "duration": 0.1167,
      "velocity": 102,
      "chip": "ym2612"
    },
    {
      "channel": 1,
      "note": 34,
      "start": 98.4452,
      "duration": 0.0495,
      "velocity": 87,
      "chip": "ym2612"
    },
    {
      "channel": 1,
      "note": 34,
      "start": 98.5118,
      "duration": 0.0499,
      "velocity": 87,
      "chip": "ym2612"
    },
    {
      "channel": 5,
      "note": 50,
      "start": 98.5291,
      "duration": 0.6506,
      "velocity": 105,
      "chip": "ym2612"
    },
    {
      "channel": 1,
      "note": 34,
      "start": 98.5782,
      "duration": 0.0335,
      "velocity": 87,
      "chip": "ym2612"
    },
    {
      "channel": 0,
      "note": 59,
      "start": 98.6282,
      "duration": 0.1165,
      "velocity": 102,
      "chip": "ym2612"
    },
    {
      "channel": 1,
      "note": 34,
      "start": 98.6286,
      "duration": 0.1662,
      "velocity": 87,
      "chip": "ym2612"
    },
    {
      "channel": 0,
      "note": 59,
      "start": 98.8118,
      "duration": 0.1162,
      "velocity": 102,
      "chip": "ym2612"
    },
    {
      "channel": 1,
      "note": 34,
      "start": 98.8121,
      "duration": 0.0496,
      "velocity": 87,
      "chip": "ym2612"
    },
    {
      "channel": 1,
      "note": 34,
      "start": 98.8782,
      "duration": 0.0499,
      "velocity": 87,
      "chip": "ym2612"
    },
    {
      "channel": 1,
      "note": 34,
      "start": 98.9449,
      "duration": 0.0332,
      "velocity": 87,
      "chip": "ym2612"
    },
    {
      "channel": 0,
      "note": 57,
      "start": 98.9949,
      "duration": 0.1167,
      "velocity": 102,
      "chip": "ym2612"
    },
    {
      "channel": 1,
      "note": 34,
      "start": 98.9952,
      "duration": 0.0664,
      "velocity": 87,
      "chip": "ym2612"
    },
    {
      "channel": 2,
      "note": 49,
      "start": 98.9955,
      "duration": 0.6493,
      "velocity": 105,
      "chip": "ym2612"
    },
    {
      "channel": 3,
      "note": 49,
      "start": 98.9963,
      "duration": 0.699,
      "velocity": 96,
      "chip": "ym2612"
    },
    {
      "channel": 1,
      "note": 34,
      "start": 99.0782,
      "duration": 0.0835,
      "velocity": 87,
      "chip": "ym2612"
    },
    {
      "channel": 0,
      "note": 57,
      "start": 99.1782,
      "duration": 0.1165,
      "velocity": 102,
      "chip": "ym2612"
    },
    {
      "channel": 1,
      "note": 37,
      "start": 99.1786,
      "duration": 0.1662,
      "velocity": 87,
      "chip": "ym2612"
    },
    {
      "channel": 5,
      "note": 49,
      "start": 99.2627,
      "duration": 0.6504,
      "velocity": 105,
      "chip": "ym2612"
    },
    {
      "channel": 0,
      "note": 57,
      "start": 99.3618,
      "duration": 0.1162,
      "velocity": 102,
      "chip": "ym2612"
    },
    {
      "channel": 1,
      "note": 37,
      "start": 99.3621,
      "duration": 0.0496,
      "velocity": 87,
      "chip": "ym2612"
    },
    {
      "channel": 1,
      "note": 37,
      "start": 99.4282,
      "duration": 0.0499,
      "velocity": 87,
      "chip": "ym2612"
    },
    {
      "channel": 1,
      "note": 37,
      "start": 99.4949,
      "duration": 0.0332,
      "velocity": 87,
      "chip": "ym2612"
    },
    {
      "channel": 0,
      "note": 57,
      "start": 99.5449,
      "duration": 0.1167,
      "velocity": 102,
      "chip": "ym2612"
    },
    {
      "channel": 1,
      "note": 30,
      "start": 99.5452,
      "duration": 0.0664,
      "velocity": 87,
      "chip": "ym2612"
    },
    {
      "channel": 1,
      "note": 30,
      "start": 99.6283,
      "duration": 0.0834,
      "velocity": 87,
      "chip": "ym2612"
    },
    {
      "channel": 0,
      "note": 55,
      "start": 99.7283,
      "duration": 0.1164,
      "velocity": 102,
      "chip": "ym2612"
    },
    {
      "channel": 1,
      "note": 34,
      "start": 99.7287,
      "duration": 0.166,
      "velocity": 87,
      "chip": "ym2612"
    },
    {
      "channel": 2,
      "note": 47,
      "start": 99.729,
      "duration": 3.9492,
      "velocity": 105,
      "chip": "ym2612"
    },
    {
      "channel": 3,
      "note": 43,
      "start": 99.7298,
      "duration": 2.5324,
      "velocity": 96,
      "chip": "ym2612"
    },
    {
      "channel": 4,
      "note": 26,
      "start": 99.7301,
      "duration": 2.1652,
      "velocity": 96,
      "chip": "ym2612"
    },
    {
      "channel": 0,
      "note": 55,
      "start": 99.9118,
      "duration": 0.1162,
      "velocity": 102,
      "chip": "ym2612"
    },
    {
      "channel": 1,
      "note": 34,
      "start": 99.9121,
      "duration": 0.0496,
      "velocity": 87,
      "chip": "ym2612"
    },
    {
      "channel": 1,
      "note": 30,
      "start": 99.9782,
      "duration": 0.0499,
      "velocity": 87,
      "chip": "ym2612"
    },
    {
      "channel": 5,
      "note": 47,
      "start": 99.9958,
      "duration": 3.9507,
      "velocity": 105,
      "chip": "ym2612"
    },
    {
      "channel": 1,
      "note": 34,
      "start": 100.0449,
      "duration": 0.0332,
      "velocity": 87,
      "chip": "ym2612"
    },
    {
      "channel": 0,
      "note": 55,
      "start": 100.0949,
      "duration": 0.1167,
      "velocity": 102,
      "chip": "ym2612"
    },
    {
      "channel": 1,
      "note": 34,
      "start": 100.0952,
      "duration": 0.0665,
      "velocity": 87,
      "chip": "ym2612"
    },
    {
      "channel": 1,
      "note": 34,
      "start": 100.1782,
      "duration": 0.0835,
      "velocity": 87,
      "chip": "ym2612"
    },
    {
      "channel": 0,
      "note": 55,
      "start": 100.2783,
      "duration": 0.1164,
      "velocity": 102,
      "chip": "ym2612"
    },
    {
      "channel": 1,
      "note": 30,
      "start": 100.2786,
      "duration": 0.3494,
      "velocity": 87,
      "chip": "ym2612"
    },
    {
      "channel": 0,
      "note": 55,
      "start": 100.4618,
      "duration": 0.1162,
      "velocity": 102,
      "chip": "ym2612"
    },
    {
      "channel": 0,
      "note": 55,
      "start": 100.6449,
      "duration": 0.1167,
      "velocity": 102,
      "chip": "ym2612"
    },
    {
      "channel": 1,
      "note": 30,
      "start": 100.6451,
      "duration": 0.1666,
      "velocity": 87,
      "chip": "ym2612"
    },
    {
      "channel": 0,
      "note": 55,
      "start": 100.8283,
      "duration": 0.1164,
      "velocity": 102,
      "chip": "ym2612"
    },
    {
      "channel": 1,
      "note": 34,
      "start": 100.8286,
      "duration": 0.1662,
      "velocity": 87,
      "chip": "ym2612"
    },
    {
      "channel": 0,
      "note": 55,
      "start": 101.0118,
      "duration": 0.1162,
      "velocity": 102,
      "chip": "ym2612"
    },
    {
      "channel": 1,
      "note": 34,
      "start": 101.0121,
      "duration": 0.0496,
      "velocity": 87,
      "chip": "ym2612"
    },
    {
      "channel": 1,
      "note": 34,
      "start": 101.0782,
      "duration": 0.0499,
      "velocity": 87,
      "chip": "ym2612"
    },
    {
      "channel": 1,
      "note": 34,
      "start": 101.1449,
      "duration": 0.0332,
      "velocity": 87,
      "chip": "ym2612"
    },
    {
      "channel": 0,
      "note": 55,
      "start": 101.1949,
      "duration": 0.1167,
      "velocity": 102,
      "chip": "ym2612"
    },
    {
      "channel": 1,
      "note": 34,
      "start": 101.1952,
      "duration": 0.1664,
      "velocity": 87,
      "chip": "ym2612"
    },
    {
      "channel": 0,
      "note": 55,
      "start": 101.3783,
      "duration": 0.1164,
      "velocity": 102,
      "chip": "ym2612"
    },
    {
      "channel": 1,
      "note": 34,
      "start": 101.3786,
      "duration": 0.0495,
      "velocity": 87,
      "chip": "ym2612"
    },
    {
      "channel": 1,
      "note": 34,
      "start": 101.4449,
      "duration": 0.0499,
      "velocity": 87,
      "chip": "ym2612"
    },
    {
      "channel": 1,
      "note": 34,
      "start": 101.5118,
      "duration": 0.033,
      "velocity": 87,
      "chip": "ym2612"
    },
    {
      "channel": 0,
      "note": 55,
      "start": 101.5618,
      "duration": 0.1162,
      "velocity": 102,
      "chip": "ym2612"
    },
    {
      "channel": 1,
      "note": 34,
      "start": 101.5622,
      "duration": 0.1659,
      "velocity": 87,
      "chip": "ym2612"
    },
    {
      "channel": 0,
      "note": 55,
      "start": 101.7449,
      "duration": 0.1167,
      "velocity": 102,
      "chip": "ym2612"
    },
    {
      "channel": 1,
      "note": 34,
      "start": 101.7452,
      "duration": 0.0495,
      "velocity": 87,
      "chip": "ym2612"
    },
    {
      "channel": 1,
      "note": 34,
      "start": 101.8118,
      "duration": 0.0499,
      "velocity": 87,
      "chip": "ym2612"
    },
    {
      "channel": 1,
      "note": 34,
      "start": 101.8782,
      "duration": 0.0335,
      "velocity": 87,
      "chip": "ym2612"
    },
    {
      "channel": 0,
      "note": 55,
      "start": 101.9283,
      "duration": 0.1164,
      "velocity": 102,
      "chip": "ym2612"
    },
    {
      "channel": 1,
      "note": 34,
      "start": 101.9286,
      "duration": 0.0662,
      "velocity": 87,
      "chip": "ym2612"
    },
    {
      "channel": 4,
      "note": 28,
      "start": 101.9297,
      "duration": 0.699,
      "velocity": 96,
      "chip": "ym2612"
    },
    {
      "channel": 1,
      "note": 34,
      "start": 102.0118,
      "duration": 0.083,
      "velocity": 87,
      "chip": "ym2612"
    },
    {
      "channel": 0,
      "note": 55,
      "start": 102.1118,
      "duration": 0.1162,
      "velocity": 102,
      "chip": "ym2612"
    },
    {
      "channel": 1,
      "note": 37,
      "start": 102.1122,
      "duration": 0.1659,
      "velocity": 87,
      "chip": "ym2612"
    },
    {
      "channel": 0,
      "note": 55,
      "start": 102.2949,
      "duration": 0.1167,
      "velocity": 102,
      "chip": "ym2612"
    },
    {
      "channel": 1,
      "note": 37,
      "start": 102.2952,
      "duration": 0.0495,
      "velocity": 87,
      "chip": "ym2612"
    },
    {
      "channel": 3,
      "note": 42,
      "start": 102.2961,
      "duration": 0.3325,
      "velocity": 96,
      "chip": "ym2612"
    },
    {
      "channel": 1,
      "note": 37,
      "start": 102.3618,
      "duration": 0.0499,
      "velocity": 87,
      "chip": "ym2612"
    },
    {
      "channel": 1,
      "note": 37,
      "start": 102.4282,
      "duration": 0.0335,
      "velocity": 87,
      "chip": "ym2612"
    },
    {
      "channel": 0,
      "note": 55,
      "start": 102.4783,
      "duration": 0.1163,
      "velocity": 102,
      "chip": "ym2612"
    },
    {
      "channel": 1,
      "note": 30,
      "start": 102.4787,
      "duration": 0.066,
      "velocity": 87,
      "chip": "ym2612"
    },
    {
      "channel": 1,
      "note": 30,
      "start": 102.5618,
      "duration": 0.0829,
      "velocity": 87,
      "chip": "ym2612"
    },
    {
      "channel": 0,
      "note": 55,
      "start": 102.6618,
      "duration": 0.1162,
      "velocity": 102,
      "chip": "ym2612"
    },
    {
      "channel": 1,
      "note": 34,
      "start": 102.6622,
      "duration": 0.1659,
      "velocity": 87,
      "chip": "ym2612"
    },
    {
      "channel": 3,
      "note": 40,
      "start": 102.6633,
      "duration": 0.3319,
      "velocity": 96,
      "chip": "ym2612"
    },
    {
      "channel": 4,
      "note": 31,
      "start": 102.6635,
      "duration": 2.1651,
      "velocity": 96,
      "chip": "ym2612"
    },
    {
      "channel": 0,
      "note": 55,
      "start": 102.8449,
      "duration": 0.1167,
      "velocity": 102,
      "chip": "ym2612"
    },
    {
      "channel": 1,
      "note": 34,
      "start": 102.8452,
      "duration": 0.0495,
      "velocity": 87,
      "chip": "ym2612"
    },
    {
      "channel": 1,
      "note": 30,
      "start": 102.9118,
      "duration": 0.0499,
      "velocity": 87,
      "chip": "ym2612"
    },
    {
      "channel": 1,
      "note": 34,
      "start": 102.9783,
      "duration": 0.0334,
      "velocity": 87,
      "chip": "ym2612"
    },
    {
      "channel": 0,
      "note": 55,
      "start": 103.0282,
      "duration": 0.1165,
      "velocity": 102,
      "chip": "ym2612"
    },
    {
      "channel": 1,
      "note": 34,
      "start": 103.0285,
      "duration": 0.0662,
      "velocity": 87,
      "chip": "ym2612"
    },
    {
      "channel": 3,
      "note": 38,
      "start": 103.0295,
      "duration": 2.5328,
      "velocity": 96,
      "chip": "ym2612"
    },
    {
      "channel": 1,
      "note": 34,
      "start": 103.1118,
      "duration": 0.083,
      "velocity": 87,
      "chip": "ym2612"
    },
    {
      "channel": 0,
      "note": 55,
      "start": 103.2118,
      "duration": 0.1162,
      "velocity": 102,
      "chip": "ym2612"
    },
    {
      "channel": 1,
      "note": 30,
      "start": 103.2122,
      "duration": 0.3495,
      "velocity": 87,
      "chip": "ym2612"
    },
    {
      "channel": 0,
      "note": 55,
      "start": 103.3949,
      "duration": 0.1167,
      "velocity": 102,
      "chip": "ym2612"
    },
    {
      "channel": 0,
      "note": 55,
      "start": 103.5782,
      "duration": 0.1165,
      "velocity": 102,
      "chip": "ym2612"
    },
    {
      "channel": 1,
      "note": 30,
      "start": 103.5784,
      "duration": 0.1663,
      "velocity": 87,
      "chip": "ym2612"
    },
    {
      "channel": 0,
      "note": 55,
      "start": 103.7618,
      "duration": 0.1162,
      "velocity": 102,
      "chip": "ym2612"
    },
    {
      "channel": 1,
      "note": 34,
      "start": 103.7622,
      "duration": 0.1659,
      "velocity": 87,
      "chip": "ym2612"
    },
    {
      "channel": 2,
      "note": 47,
      "start": 103.7624,
      "duration": 0.0993,
      "velocity": 105,
      "chip": "ym2612"
    },
    {
      "channel": 0,
      "note": 55,
      "start": 103.9449,
      "duration": 0.1167,
      "velocity": 102,
      "chip": "ym2612"
    },
    {
      "channel": 1,
      "note": 34,
      "start": 103.9452,
      "duration": 0.0495,
      "velocity": 87,
      "chip": "ym2612"
    },
    {
      "channel": 2,
      "note": 49,
      "start": 103.9455,
      "duration": 0.0994,
      "velocity": 105,
      "chip": "ym2612"
    },
    {
      "channel": 1,
      "note": 34,
      "start": 104.0118,
      "duration": 0.0499,
      "velocity": 87,
      "chip": "ym2612"
    },
    {
      "channel": 5,
      "note": 47,
      "start": 104.0291,
      "duration": 0.1007,
      "velocity": 105,
      "chip": "ym2612"
    },
    {
      "channel": 1,
      "note": 34,
      "start": 104.0783,
      "duration": 0.0334,
      "velocity": 87,
      "chip": "ym2612"
    },
    {
      "channel": 0,
      "note": 55,
      "start": 104.1282,
      "duration": 0.1165,
      "velocity": 102,
      "chip": "ym2612"
    },
    {
      "channel": 1,
      "note": 34,
      "start": 104.1286,
      "duration": 0.1662,
      "velocity": 87,
      "chip": "ym2612"
    },
    {
      "channel": 2,
      "note": 50,
      "start": 104.1288,
      "duration": 0.2829,
      "velocity": 105,
      "chip": "ym2612"
    },
    {
      "channel": 5,
      "note": 49,
      "start": 104.2127,
      "duration": 0.1004,
      "velocity": 105,
      "chip": "ym2612"
    },
    {
      "channel": 0,
      "note": 55,
      "start": 104.3118,
      "duration": 0.1162,
      "velocity": 102,
      "chip": "ym2612"
    },
    {
      "channel": 1,
      "note": 34,
      "start": 104.3122,
      "duration": 0.0495,
      "velocity": 87,
      "chip": "ym2612"
    },
    {
      "channel": 1,
      "note": 34,
      "start": 104.3782,
      "duration": 0.0499,
      "velocity": 87,
      "chip": "ym2612"
    },
    {
      "channel": 5,
      "note": 50,
      "start": 104.3958,
      "duration": 0.2838,
      "velocity": 105,
      "chip": "ym2612"
    },
    {
      "channel": 1,
      "note": 34,
      "start": 104.4449,
      "duration": 0.0332,
      "velocity": 87,
      "chip": "ym2612"
    },
    {
      "channel": 0,
      "note": 55,
      "start": 104.4949,
      "duration": 0.1167,
      "velocity": 102,
      "chip": "ym2612"
    },
    {
      "channel": 1,
      "note": 34,
      "start": 104.4952,
      "duration": 0.1664,
      "velocity": 87,
      "chip": "ym2612"
    },
    {
      "channel": 2,
      "note": 49,
      "start": 104.4955,
      "duration": 0.2827,
      "velocity": 105,
      "chip": "ym2612"
    },
    {
      "channel": 0,
      "note": 55,
      "start": 104.6782,
      "duration": 0.1165,
      "velocity": 102,
      "chip": "ym2612"
    },
    {
      "channel": 1,
      "note": 34,
      "start": 104.6785,
      "duration": 0.0496,
      "velocity": 87,
      "chip": "ym2612"
    },
    {
      "channel": 1,
      "note": 34,
      "start": 104.7449,
      "duration": 0.0499,
      "velocity": 87,
      "chip": "ym2612"
    },
    {
      "channel": 5,
      "note": 49,
      "start": 104.7627,
      "duration": 0.2837,
      "velocity": 105,
      "chip": "ym2612"
    },
    {
      "channel": 1,
      "note": 34,
      "start": 104.8118,
      "duration": 0.033,
      "velocity": 87,
      "chip": "ym2612"
    },
    {
      "channel": 0,
      "note": 55,
      "start": 104.8618,
      "duration": 0.1162,
      "velocity": 102,
      "chip": "ym2612"
    },
    {
      "channel": 1,
      "note": 34,
      "start": 104.8622,
      "duration": 0.0659,
      "velocity": 87,
      "chip": "ym2612"
    },
    {
      "channel": 2,
      "note": 45,
      "start": 104.8624,
      "duration": 0.2824,
      "velocity": 105,
      "chip": "ym2612"
    },
    {
      "channel": 4,
      "note": 33,
      "start": 104.8634,
      "duration": 0.6989,
      "velocity": 96,
      "chip": "ym2612"
    },
    {
      "channel": 1,
      "note": 34,
      "start": 104.9449,
      "duration": 0.0832,
      "velocity": 87,
      "chip": "ym2612"
    },
    {
      "channel": 0,
      "note": 55,
      "start": 105.0449,
      "duration": 0.1167,
      "velocity": 102,
      "chip": "ym2612"
    },
    {
      "channel": 1,
      "note": 37,
      "start": 105.0452,
      "duration": 0.1664,
      "velocity": 87,
      "chip": "ym2612"
    },
    {
      "channel": 5,
      "note": 45,
      "start": 105.1291,
      "duration": 0.284,
      "velocity": 105,
      "chip": "ym2612"
    },
    {
      "channel": 0,
      "note": 57,
      "start": 105.2283,
      "duration": 0.1164,
      "velocity": 102,
      "chip": "ym2612"
    },
    {
      "channel": 1,
      "note": 37,
      "start": 105.2286,
      "duration": 0.0495,
      "velocity": 87,
      "chip": "ym2612"
    },
    {
      "channel": 2,
      "note": 52,
      "start": 105.2288,
      "duration": 0.2829,
      "velocity": 105,
      "chip": "ym2612"
    },
    {
      "channel": 1,
      "note": 37,
      "start": 105.2949,
      "duration": 0.0499,
      "velocity": 87,
      "chip": "ym2612"
    },
    {
      "channel": 1,
      "note": 37,
      "start": 105.3618,
      "duration": 0.033,
      "velocity": 87,
      "chip": "ym2612"
    },
    {
      "channel": 0,
      "note": 57,
      "start": 105.4118,
      "duration": 0.1162,
      "velocity": 102,
      "chip": "ym2612"
    },
    {
      "channel": 1,
      "note": 30,
      "start": 105.4122,
      "duration": 0.0659,
      "velocity": 87,
      "chip": "ym2612"
    },
    {
      "channel": 1,
      "note": 30,
      "start": 105.4949,
      "duration": 0.0832,
      "velocity": 87,
      "chip": "ym2612"
    },
    {
      "channel": 5,
      "note": 52,
      "start": 105.496,
      "duration": 0.2836,
      "velocity": 105,
      "chip": "ym2612"
    },
    {
      "channel": 0,
      "note": 59,
      "start": 105.5949,
      "duration": 0.1167,
      "velocity": 102,
      "chip": "ym2612"
    },
    {
      "channel": 1,
      "note": 34,
      "start": 105.5953,
      "duration": 0.1663,
      "velocity": 87,
      "chip": "ym2612"
    },
    {
      "channel": 2,
      "note": 54,
      "start": 105.5956,
      "duration": 3.9493,
      "velocity": 105,
      "chip": "ym2612"
    },
    {
      "channel": 3,
      "note": 42,
      "start": 105.5964,
      "duration": 1.7988,
      "velocity": 96,
      "chip": "ym2612"
    },
    {
      "channel": 4,
      "note": 35,
      "start": 105.5967,
      "duration": 1.4319,
      "velocity": 96,
      "chip": "ym2612"
    },
    {
      "channel": 0,
      "note": 59,
      "start": 105.7783,
      "duration": 0.1164,
      "velocity": 102,
      "chip": "ym2612"
    },
    {
      "channel": 1,
      "note": 34,
      "start": 105.7786,
      "duration": 0.0495,
      "velocity": 87,
      "chip": "ym2612"
    },
    {
      "channel": 1,
      "note": 30,
      "start": 105.8449,
      "duration": 0.0499,
      "velocity": 87,
      "chip": "ym2612"
    },
    {
      "channel": 5,
      "note": 54,
      "start": 105.8627,
      "duration": 3.9507,
      "velocity": 105,
      "chip": "ym2612"
    },
    {
      "channel": 1,
      "note": 34,
      "start": 105.9118,
      "duration": 0.033,
      "velocity": 87,
      "chip": "ym2612"
    },
    {
      "channel": 0,
      "note": 59,
      "start": 105.9618,
      "duration": 0.1162,
      "velocity": 102,
      "chip": "ym2612"
    },
    {
      "channel": 1,
      "note": 34,
      "start": 105.9621,
      "duration": 0.066,
      "velocity": 87,
      "chip": "ym2612"
    },
    {
      "channel": 1,
      "note": 34,
      "start": 106.0449,
      "duration": 0.0832,
      "velocity": 87,
      "chip": "ym2612"
    },
    {
      "channel": 0,
      "note": 59,
      "start": 106.1449,
      "duration": 0.1167,
      "velocity": 102,
      "chip": "ym2612"
    },
    {
      "channel": 1,
      "note": 30,
      "start": 106.1453,
      "duration": 0.3494,
      "velocity": 87,
      "chip": "ym2612"
    },
    {
      "channel": 0,
      "note": 59,
      "start": 106.3282,
      "duration": 0.1165,
      "velocity": 102,
      "chip": "ym2612"
    },
    {
      "channel": 0,
      "note": 59,
      "start": 106.5118,
      "duration": 0.1162,
      "velocity": 102,
      "chip": "ym2612"
    },
    {
      "channel": 1,
      "note": 30,
      "start": 106.512,
      "duration": 0.166,
      "velocity": 87,
      "chip": "ym2612"
    },
    {
      "channel": 0,
      "note": 59,
      "start": 106.6949,
      "duration": 0.1167,
      "velocity": 102,
      "chip": "ym2612"
    },
    {
      "channel": 1,
      "note": 34,
      "start": 106.6952,
      "duration": 0.1664,
      "velocity": 87,
      "chip": "ym2612"
    },
    {
      "channel": 0,
      "note": 59,
      "start": 106.8782,
      "duration": 0.1165,
      "velocity": 102,
      "chip": "ym2612"
    },
    {
      "channel": 1,
      "note": 34,
      "start": 106.8785,
      "duration": 0.0496,
      "velocity": 87,
      "chip": "ym2612"
    },
    {
      "channel": 1,
      "note": 34,
      "start": 106.9449,
      "duration": 0.0499,
      "velocity": 87,
      "chip": "ym2612"
    },
    {
      "channel": 1,
      "note": 34,
      "start": 107.0118,
      "duration": 0.033,
      "velocity": 87,
      "chip": "ym2612"
    },
    {
      "channel": 0,
      "note": 59,
      "start": 107.0618,
      "duration": 0.1162,
      "velocity": 102,
      "chip": "ym2612"
    },
    {
      "channel": 1,
      "note": 34,
      "start": 107.0622,
      "duration": 0.1659,
      "velocity": 87,
      "chip": "ym2612"
    },
    {
      "channel": 4,
      "note": 33,
      "start": 107.0632,
      "duration": 1.4322,
      "velocity": 96,
      "chip": "ym2612"
    },
    {
      "channel": 0,
      "note": 59,
      "start": 107.2449,
      "duration": 0.1167,
      "velocity": 102,
      "chip": "ym2612"
    },
    {
      "channel": 1,
      "note": 34,
      "start": 107.2452,
      "duration": 0.0495,
      "velocity": 87,
      "chip": "ym2612"
    },
    {
      "channel": 1,
      "note": 34,
      "start": 107.3118,
      "duration": 0.0499,
      "velocity": 87,
      "chip": "ym2612"
    },
    {
      "channel": 1,
      "note": 34,
      "start": 107.3782,
      "duration": 0.0335,
      "velocity": 87,
      "chip": "ym2612"
    },
    {
      "channel": 0,
      "note": 59,
      "start": 107.4283,
      "duration": 0.1164,
      "velocity": 102,
      "chip": "ym2612"
    },
    {
      "channel": 1,
      "note": 34,
      "start": 107.4286,
      "duration": 0.1662,
      "velocity": 87,
      "chip": "ym2612"
    },
    {
      "channel": 3,
      "note": 35,
      "start": 107.4295,
      "duration": 0.3326,
      "velocity": 96,
      "chip": "ym2612"
    },
    {
      "channel": 0,
      "note": 59,
      "start": 107.6118,
      "duration": 0.1162,
      "velocity": 102,
      "chip": "ym2612"
    },
    {
      "channel": 1,
      "note": 34,
      "start": 107.6121,
      "duration": 0.0496,
      "velocity": 87,
      "chip": "ym2612"
    },
    {
      "channel": 1,
      "note": 34,
      "start": 107.6782,
      "duration": 0.0499,
      "velocity": 87,
      "chip": "ym2612"
    },
    {
      "channel": 1,
      "note": 34,
      "start": 107.7449,
      "duration": 0.0332,
      "velocity": 87,
      "chip": "ym2612"
    },
    {
      "channel": 0,
      "note": 59,
      "start": 107.7949,
      "duration": 0.1167,
      "velocity": 102,
      "chip": "ym2612"
    },
    {
      "channel": 1,
      "note": 34,
      "start": 107.7952,
      "duration": 0.0664,
      "velocity": 87,
      "chip": "ym2612"
    },
    {
      "channel": 3,
      "note": 37,
      "start": 107.7962,
      "duration": 0.3324,
      "velocity": 96,
      "chip": "ym2612"
    },
    {
      "channel": 1,
      "note": 34,
      "start": 107.8782,
      "duration": 0.0835,
      "velocity": 87,
      "chip": "ym2612"
    },
    {
      "channel": 0,
      "note": 59,
      "start": 107.9782,
      "duration": 0.1165,
      "velocity": 102,
      "chip": "ym2612"
    },
    {
      "channel": 1,
      "note": 37,
      "start": 107.9786,
      "duration": 0.1662,
      "velocity": 87,
      "chip": "ym2612"
    },
    {
      "channel": 0,
      "note": 59,
      "start": 108.1618,
      "duration": 0.1162,
      "velocity": 102,
      "chip": "ym2612"
    },
    {
      "channel": 1,
      "note": 37,
      "start": 108.1621,
      "duration": 0.0496,
      "velocity": 87,
      "chip": "ym2612"
    },
    {
      "channel": 3,
      "note": 38,
      "start": 108.1631,
      "duration": 0.3322,
      "velocity": 96,
      "chip": "ym2612"
    },
    {
      "channel": 1,
      "note": 37,
      "start": 108.2282,
      "duration": 0.0499,
      "velocity": 87,
      "chip": "ym2612"
    },
    {
      "channel": 1,
      "note": 37,
      "start": 108.2949,
      "duration": 0.0332,
      "velocity": 87,
      "chip": "ym2612"
    },
    {
      "channel": 0,
      "note": 59,
      "start": 108.345,
      "duration": 0.1166,
      "velocity": 102,
      "chip": "ym2612"
    },
    {
      "channel": 1,
      "note": 30,
      "start": 108.3454,
      "duration": 0.0663,
      "velocity": 87,
      "chip": "ym2612"
    },
    {
      "channel": 1,
      "note": 30,
      "start": 108.4283,
      "duration": 0.0834,
      "velocity": 87,
      "chip": "ym2612"
    },
    {
      "channel": 0,
      "note": 59,
      "start": 108.5283,
      "duration": 0.1164,
      "velocity": 102,
      "chip": "ym2612"
    },
    {
      "channel": 1,
      "note": 34,
      "start": 108.5286,
      "duration": 0.1661,
      "velocity": 87,
      "chip": "ym2612"
    },
    {
      "channel": 3,
      "note": 42,
      "start": 108.5297,
      "duration": 1.4324,
      "velocity": 96,
      "chip": "ym2612"
    },
    {
      "channel": 4,
      "note": 35,
      "start": 108.53,
      "duration": 1.4323,
      "velocity": 96,
      "chip": "ym2612"
    },
    {
      "channel": 0,
      "note": 59,
      "start": 108.7118,
      "duration": 0.1162,
      "velocity": 102,
      "chip": "ym2612"
    },
    {
      "channel": 1,
      "note": 34,
      "start": 108.7121,
      "duration": 0.0496,
      "velocity": 87,
      "chip": "ym2612"
    },
    {
      "channel": 1,
      "note": 30,
      "start": 108.7782,
      "duration": 0.0499,
      "velocity": 87,
      "chip": "ym2612"
    },
    {
      "channel": 1,
      "note": 34,
      "start": 108.8449,
      "duration": 0.0332,
      "velocity": 87,
      "chip": "ym2612"
    },
    {
      "channel": 0,
      "note": 59,
      "start": 108.8949,
      "duration": 0.1167,
      "velocity": 102,
      "chip": "ym2612"
    },
    {
      "channel": 1,
      "note": 34,
      "start": 108.8952,
      "duration": 0.0665,
      "velocity": 87,
      "chip": "ym2612"
    },
    {
      "channel": 1,
      "note": 34,
      "start": 108.9782,
      "duration": 0.0835,
      "velocity": 87,
      "chip": "ym2612"
    },
    {
      "channel": 0,
      "note": 59,
      "start": 109.0783,
      "duration": 0.1164,
      "velocity": 102,
      "chip": "ym2612"
    },
    {
      "channel": 1,
      "note": 30,
      "start": 109.0786,
      "duration": 0.3494,
      "velocity": 87,
      "chip": "ym2612"
    },
    {
      "channel": 0,
      "note": 59,
      "start": 109.2618,
      "duration": 0.1162,
      "velocity": 102,
      "chip": "ym2612"
    },
    {
      "channel": 0,
      "note": 59,
      "start": 109.4449,
      "duration": 0.1167,
      "velocity": 102,
      "chip": "ym2612"
    },
    {
      "channel": 1,
      "note": 30,
      "start": 109.4451,
      "duration": 0.1666,
      "velocity": 87,
      "chip": "ym2612"
    },
    {
      "channel": 0,
      "note": 59,
      "start": 109.6283,
      "duration": 0.1164,
      "velocity": 102,
      "chip": "ym2612"
    },
    {
      "channel": 1,
      "note": 34,
      "start": 109.6286,
      "duration": 0.1662,
      "velocity": 87,
      "chip": "ym2612"
    },
    {
      "channel": 2,
      "note": 52,
      "start": 109.6288,
      "duration": 0.0994,
      "velocity": 105,
      "chip": "ym2612"
    },
    {
      "channel": 0,
      "note": 59,
      "start": 109.8118,
      "duration": 0.1162,
      "velocity": 102,
      "chip": "ym2612"
    },
    {
      "channel": 1,
      "note": 34,
      "start": 109.8121,
      "duration": 0.0496,
      "velocity": 87,
      "chip": "ym2612"
    },
    {
      "channel": 2,
      "note": 54,
      "start": 109.8124,
      "duration": 0.0994,
      "velocity": 105,
      "chip": "ym2612"
    },
    {
      "channel": 1,
      "note": 34,
      "start": 109.8782,
      "duration": 0.0499,
      "velocity": 87,
      "chip": "ym2612"
    },
    {
      "channel": 5,
      "note": 52,
      "start": 109.8958,
      "duration": 0.101,
      "velocity": 105,
      "chip": "ym2612"
    },
    {
      "channel": 1,
      "note": 34,
      "start": 109.9449,
      "duration": 0.0332,
      "velocity": 87,
      "chip": "ym2612"
    },
    {
      "channel": 0,
      "note": 59,
      "start": 109.9949,
      "duration": 0.1167,
      "velocity": 102,
      "chip": "ym2612"
    },
    {
      "channel": 1,
      "note": 34,
      "start": 109.9952,
      "duration": 0.1664,
      "velocity": 87,
      "chip": "ym2612"
    },
    {
      "channel": 2,
      "note": 54,
      "start": 109.9955,
      "duration": 0.6494,
      "velocity": 105,
      "chip": "ym2612"
    },
    {
      "channel": 3,
      "note": 47,
      "start": 109.9963,
      "duration": 0.699,
      "velocity": 96,
      "chip": "ym2612"
    },
    {
      "channel": 4,
      "note": 33,
      "start": 109.9966,
      "duration": 1.4322,
      "velocity": 96,
      "chip": "ym2612"
    },
    {
      "channel": 5,
      "note": 54,
      "start": 110.0791,
      "duration": 0.1005,
      "velocity": 105,
      "chip": "ym2612"
    },
    {
      "channel": 0,
      "note": 59,
      "start": 110.1783,
      "duration": 0.1164,
      "velocity": 102,
      "chip": "ym2612"
    },
    {
      "channel": 1,
      "note": 34,
      "start": 110.1786,
      "duration": 0.0495,
      "velocity": 87,
      "chip": "ym2612"
    },
    {
      "channel": 1,
      "note": 34,
      "start": 110.2449,
      "duration": 0.0499,
      "velocity": 87,
      "chip": "ym2612"
    },
    {
      "channel": 5,
      "note": 54,
      "start": 110.2627,
      "duration": 0.6505,
      "velocity": 105,
      "chip": "ym2612"
    },
    {
      "channel": 1,
      "note": 34,
      "start": 110.3118,
      "duration": 0.033,
      "velocity": 87,
      "chip": "ym2612"
    },
    {
      "channel": 0,
      "note": 59,
      "start": 110.3618,
      "duration": 0.1162,
      "velocity": 102,
      "chip": "ym2612"
    },
    {
      "channel": 1,
      "note": 34,
      "start": 110.3622,
      "duration": 0.1659,
      "velocity": 87,
      "chip": "ym2612"
    },
    {
      "channel": 0,
      "note": 59,
      "start": 110.5449,
      "duration": 0.1167,
      "velocity": 102,
      "chip": "ym2612"
    },
    {
      "channel": 1,
      "note": 34,
      "start": 110.5452,
      "duration": 0.0496,
      "velocity": 87,
      "chip": "ym2612"
    },
    {
      "channel": 1,
      "note": 34,
      "start": 110.6118,
      "duration": 0.0499,
      "velocity": 87,
      "chip": "ym2612"
    },
    {
      "channel": 1,
      "note": 34,
      "start": 110.6782,
      "duration": 0.0335,
      "velocity": 87,
      "chip": "ym2612"
    },
    {
      "channel": 0,
      "note": 57,
      "start": 110.7283,
      "duration": 0.1164,
      "velocity": 102,
      "chip": "ym2612"
    },
    {
      "channel": 1,
      "note": 34,
      "start": 110.7286,
      "duration": 0.0662,
      "velocity": 87,
      "chip": "ym2612"
    },
    {
      "channel": 2,
      "note": 52,
      "start": 110.7288,
      "duration": 0.6493,
      "velocity": 105,
      "chip": "ym2612"
    },
    {
      "channel": 3,
      "note": 49,
      "start": 110.7297,
      "duration": 0.699,
      "velocity": 96,
      "chip": "ym2612"
    },
    {
      "channel": 1,
      "note": 34,
      "start": 110.8118,
      "duration": 0.083,
      "velocity": 87,
      "chip": "ym2612"
    },
    {
      "channel": 0,
      "note": 57,
      "start": 110.9118,
      "duration": 0.1162,
      "velocity": 102,
      "chip": "ym2612"
    },
    {
      "channel": 1,
      "note": 37,
      "start": 110.9122,
      "duration": 0.1659,
      "velocity": 87,
      "chip": "ym2612"
    },
    {
      "channel": 5,
      "note": 52,
      "start": 110.9958,
      "duration": 0.6504,
      "velocity": 105,
      "chip": "ym2612"
    },
    {
      "channel": 0,
      "note": 57,
      "start": 111.0949,
      "duration": 0.1167,
      "velocity": 102,
      "chip": "ym2612"
    },
    {
      "channel": 1,
      "note": 37,
      "start": 111.0952,
      "duration": 0.0496,
      "velocity": 87,
      "chip": "ym2612"
    },
    {
      "channel": 1,
      "note": 37,
      "start": 111.1618,
      "duration": 0.0499,
      "velocity": 87,
      "chip": "ym2612"
    },
    {
      "channel": 1,
      "note": 37,
      "start": 111.2282,
      "duration": 0.0335,
      "velocity": 87,
      "chip": "ym2612"
    },
    {
      "channel": 0,
      "note": 57,
      "start": 111.2783,
      "duration": 0.1164,
      "velocity": 102,
      "chip": "ym2612"
    },
    {
      "channel": 1,
      "note": 30,
      "start": 111.2786,
      "duration": 0.0662,
      "velocity": 87,
      "chip": "ym2612"
    },
    {
      "channel": 1,
      "note": 30,
      "start": 111.3618,
      "duration": 0.0829,
      "velocity": 87,
      "chip": "ym2612"
    },
    {
      "channel": 0,
      "note": 55,
      "start": 111.4619,
      "duration": 0.1161,
      "velocity": 102,
      "chip": "ym2612"
    },
    {
      "channel": 1,
      "note": 34,
      "start": 111.4623,
      "duration": 0.1658,
      "velocity": 87,
      "chip": "ym2612"
    },
    {
      "channel": 2,
      "note": 47,
      "start": 111.4625,
      "duration": 1.7492,
      "velocity": 105,
      "chip": "ym2612"
    },
    {
      "channel": 3,
      "note": 50,
      "start": 111.4636,
      "duration": 0.6986,
      "velocity": 96,
      "chip": "ym2612"
    },
    {
      "channel": 4,
      "note": 31,
      "start": 111.4639,
      "duration": 2.1648,
      "velocity": 96,
      "chip": "ym2612"
    },
    {
      "channel": 0,
      "note": 55,
      "start": 111.6449,
      "duration": 0.1167,
      "velocity": 102,
      "chip": "ym2612"
    },
    {
      "channel": 1,
      "note": 34,
      "start": 111.6452,
      "duration": 0.0496,
      "velocity": 87,
      "chip": "ym2612"
    },
    {
      "channel": 1,
      "note": 30,
      "start": 111.7118,
      "duration": 0.0499,
      "velocity": 87,
      "chip": "ym2612"
    },
    {
      "channel": 5,
      "note": 47,
      "start": 111.729,
      "duration": 1.7509,
      "velocity": 105,
      "chip": "ym2612"
    },
    {
      "channel": 1,
      "note": 34,
      "start": 111.7783,
      "duration": 0.0334,
      "velocity": 87,
      "chip": "ym2612"
    },
    {
      "channel": 0,
      "note": 55,
      "start": 111.8282,
      "duration": 0.1165,
      "velocity": 102,
      "chip": "ym2612"
    },
    {
      "channel": 1,
      "note": 34,
      "start": 111.8285,
      "duration": 0.0662,
      "velocity": 87,
      "chip": "ym2612"
    },
    {
      "channel": 1,
      "note": 34,
      "start": 111.9118,
      "duration": 0.083,
      "velocity": 87,
      "chip": "ym2612"
    },
    {
      "channel": 0,
      "note": 55,
      "start": 112.0118,
      "duration": 0.1162,
      "velocity": 102,
      "chip": "ym2612"
    },
    {
      "channel": 1,
      "note": 30,
      "start": 112.0122,
      "duration": 0.3495,
      "velocity": 87,
      "chip": "ym2612"
    },
    {
      "channel": 0,
      "note": 55,
      "start": 112.1949,
      "duration": 0.1167,
      "velocity": 102,
      "chip": "ym2612"
    },
    {
      "channel": 3,
      "note": 43,
      "start": 112.1959,
      "duration": 2.1663,
      "velocity": 96,
      "chip": "ym2612"
    },
    {
      "channel": 0,
      "note": 55,
      "start": 112.3783,
      "duration": 0.1164,
      "velocity": 102,
      "chip": "ym2612"
    },
    {
      "channel": 1,
      "note": 30,
      "start": 112.3784,
      "duration": 0.1663,
      "velocity": 87,
      "chip": "ym2612"
    },
    {
      "channel": 0,
      "note": 55,
      "start": 112.5618,
      "duration": 0.1162,
      "velocity": 102,
      "chip": "ym2612"
    },
    {
      "channel": 1,
      "note": 34,
      "start": 112.5621,
      "duration": 0.166,
      "velocity": 87,
      "chip": "ym2612"
    },
    {
      "channel": 0,
      "note": 55,
      "start": 112.7449,
      "duration": 0.1167,
      "velocity": 102,
      "chip": "ym2612"
    },
    {
      "channel": 1,
      "note": 34,
      "start": 112.7452,
      "duration": 0.0496,
      "velocity": 87,
      "chip": "ym2612"
    },
    {
      "channel": 1,
      "note": 34,
      "start": 112.8118,
      "duration": 0.0499,
      "velocity": 87,
      "chip": "ym2612"
    },
    {
      "channel": 1,
      "note": 34,
      "start": 112.8782,
      "duration": 0.0335,
      "velocity": 87,
      "chip": "ym2612"
    },
    {
      "channel": 0,
      "note": 55,
      "start": 112.9282,
      "duration": 0.1165,
      "velocity": 102,
      "chip": "ym2612"
    },
    {
      "channel": 1,
      "note": 34,
      "start": 112.9286,
      "duration": 0.1662,
      "velocity": 87,
      "chip": "ym2612"
    },
    {
      "channel": 0,
      "note": 55,
      "start": 113.1118,
      "duration": 0.1162,
      "velocity": 102,
      "chip": "ym2612"
    },
    {
      "channel": 1,
      "note": 34,
      "start": 113.1122,
      "duration": 0.0495,
      "velocity": 87,
      "chip": "ym2612"
    },
    {
      "channel": 1,
      "note": 34,
      "start": 113.1782,
      "duration": 0.0499,
      "velocity": 87,
      "chip": "ym2612"
    },
    {
      "channel": 1,
      "note": 34,
      "start": 113.2449,
      "duration": 0.0332,
      "velocity": 87,
      "chip": "ym2612"
    },
    {
      "channel": 0,
      "note": 55,
      "start": 113.2949,
      "duration": 0.1167,
      "velocity": 102,
      "chip": "ym2612"
    },
    {
      "channel": 1,
      "note": 34,
      "start": 113.2952,
      "duration": 0.1664,
      "velocity": 87,
      "chip": "ym2612"
    },
    {
      "channel": 2,
      "note": 47,
      "start": 113.2955,
      "duration": 0.0994,
      "velocity": 105,
      "chip": "ym2612"
    },
    {
      "channel": 0,
      "note": 55,
      "start": 113.4783,
      "duration": 0.1164,
      "velocity": 102,
      "chip": "ym2612"
    },
    {
      "channel": 1,
      "note": 34,
      "start": 113.4786,
      "duration": 0.0495,
      "velocity": 87,
      "chip": "ym2612"
    },
    {
      "channel": 2,
      "note": 49,
      "start": 113.4788,
      "duration": 0.0994,
      "velocity": 105,
      "chip": "ym2612"
    },
    {
      "channel": 1,
      "note": 34,
      "start": 113.5449,
      "duration": 0.0499,
      "velocity": 87,
      "chip": "ym2612"
    },
    {
      "channel": 5,
      "note": 47,
      "start": 113.5624,
      "duration": 0.1012,
      "velocity": 105,
      "chip": "ym2612"
    },
    {
      "channel": 1,
      "note": 34,
      "start": 113.6118,
      "duration": 0.033,
      "velocity": 87,
      "chip": "ym2612"
    },
    {
      "channel": 0,
      "note": 55,
      "start": 113.6618,
      "duration": 0.1162,
      "velocity": 102,
      "chip": "ym2612"
    },
    {
      "channel": 1,
      "note": 34,
      "start": 113.6622,
      "duration": 0.0659,
      "velocity": 87,
      "chip": "ym2612"
    },
    {
      "channel": 2,
      "note": 50,
      "start": 113.6624,
      "duration": 0.0993,
      "velocity": 105,
      "chip": "ym2612"
    },
    {
      "channel": 4,
      "note": 33,
      "start": 113.6635,
      "duration": 0.6989,
      "velocity": 96,
      "chip": "ym2612"
    },
    {
      "channel": 1,
      "note": 34,
      "start": 113.7449,
      "duration": 0.0832,
      "velocity": 87,
      "chip": "ym2612"
    },
    {
      "channel": 5,
      "note": 49,
      "start": 113.7457,
      "duration": 0.1007,
      "velocity": 105,
      "chip": "ym2612"
    },
    {
      "channel": 0,
      "note": 55,
      "start": 113.8449,
      "duration": 0.1167,
      "velocity": 102,
      "chip": "ym2612"
    },
    {
      "channel": 1,
      "note": 37,
      "start": 113.8452,
      "duration": 0.1664,
      "velocity": 87,
      "chip": "ym2612"
    },
    {
      "channel": 2,
      "note": 49,
      "start": 113.8455,
      "duration": 0.0994,
      "velocity": 105,
      "chip": "ym2612"
    },
    {
      "channel": 5,
      "note": 50,
      "start": 113.929,
      "duration": 0.1008,
      "velocity": 105,
      "chip": "ym2612"
    },
    {
      "channel": 0,
      "note": 55,
      "start": 114.0282,
      "duration": 0.1165,
      "velocity": 102,
      "chip": "ym2612"
    },
    {
      "channel": 1,
      "note": 37,
      "start": 114.0285,
      "duration": 0.0496,
      "velocity": 87,
      "chip": "ym2612"
    },
    {
      "channel": 2,
      "note": 47,
      "start": 114.0288,
      "duration": 0.0994,
      "velocity": 105,
      "chip": "ym2612"
    },
    {
      "channel": 1,
      "note": 37,
      "start": 114.0949,
      "duration": 0.0499,
      "velocity": 87,
      "chip": "ym2612"
    },
    {
      "channel": 5,
      "note": 49,
      "start": 114.1124,
      "duration": 0.1011,
      "velocity": 105,
      "chip": "ym2612"
    },
    {
      "channel": 1,
      "note": 37,
      "start": 114.1618,
      "duration": 0.033,
      "velocity": 87,
      "chip": "ym2612"
    },
    {
      "channel": 0,
      "note": 55,
      "start": 114.2119,
      "duration": 0.1161,
      "velocity": 102,
      "chip": "ym2612"
    },
    {
      "channel": 1,
      "note": 30,
      "start": 114.2123,
      "duration": 0.0658,
      "velocity": 87,
      "chip": "ym2612"
    },
    {
      "channel": 2,
      "note": 50,
      "start": 114.2125,
      "duration": 0.0992,
      "velocity": 105,
      "chip": "ym2612"
    },
    {
      "channel": 1,
      "note": 30,
      "start": 114.2949,
      "duration": 0.0832,
      "velocity": 87,
      "chip": "ym2612"
    },
    {
      "channel": 5,
      "note": 47,
      "start": 114.2958,
      "duration": 0.1011,
      "velocity": 105,
      "chip": "ym2612"
    },
    {
      "channel": 0,
      "note": 57,
      "start": 114.3949,
      "duration": 0.1167,
      "velocity": 102,
      "chip": "ym2612"
    },
    {
      "channel": 1,
      "note": 34,
      "start": 114.3953,
      "duration": 0.1663,
      "velocity": 87,
      "chip": "ym2612"
    },
    {
      "channel": 2,
      "note": 49,
      "start": 114.3956,
      "duration": 2.2992,
      "velocity": 105,
      "chip": "ym2612"
    },
    {
      "channel": 3,
      "note": 52,
      "start": 114.3965,
      "duration": 0.6988,
      "velocity": 96,
      "chip": "ym2612"
    },
    {
      "channel": 4,
      "note": 33,
      "start": 114.3967,
      "duration": 2.1655,
      "velocity": 96,
      "chip": "ym2612"
    },
    {
      "channel": 5,
      "note": 50,
      "start": 114.479,
      "duration": 0.1006,
      "velocity": 105,
      "chip": "ym2612"
    },
    {
      "channel": 0,
      "note": 57,
      "start": 114.5782,
      "duration": 0.1165,
      "velocity": 102,
      "chip": "ym2612"
    },
    {
      "channel": 1,
      "note": 34,
      "start": 114.5785,
      "duration": 0.0496,
      "velocity": 87,
      "chip": "ym2612"
    },
    {
      "channel": 1,
      "note": 30,
      "start": 114.6449,
      "duration": 0.0499,
      "velocity": 87,
      "chip": "ym2612"
    },
    {
      "channel": 5,
      "note": 49,
      "start": 114.6624,
      "duration": 2.301,
      "velocity": 105,
      "chip": "ym2612"
    },
    {
      "channel": 1,
      "note": 34,
      "start": 114.7118,
      "duration": 0.033,
      "velocity": 87,
      "chip": "ym2612"
    },
    {
      "channel": 0,
      "note": 57,
      "start": 114.7618,
      "duration": 0.1162,
      "velocity": 102,
      "chip": "ym2612"
    },
    {
      "channel": 1,
      "note": 34,
      "start": 114.7621,
      "duration": 0.066,
      "velocity": 87,
      "chip": "ym2612"
    },
    {
      "channel": 1,
      "note": 34,
      "start": 114.8449,
      "duration": 0.0832,
      "velocity": 87,
      "chip": "ym2612"
    },
    {
      "channel": 0,
      "note": 57,
      "start": 114.9449,
      "duration": 0.1167,
      "velocity": 102,
      "chip": "ym2612"
    },
    {
      "channel": 1,
      "note": 30,
      "start": 114.9453,
      "duration": 0.3494,
      "velocity": 87,
      "chip": "ym2612"
    },
    {
      "channel": 0,
      "note": 57,
      "start": 115.1282,
      "duration": 0.1165,
      "velocity": 102,
      "chip": "ym2612"
    },
    {
      "channel": 3,
      "note": 45,
      "start": 115.1293,
      "duration": 2.1661,
      "velocity": 96,
      "chip": "ym2612"
    },
    {
      "channel": 0,
      "note": 57,
      "start": 115.3118,
      "duration": 0.1162,
      "velocity": 102,
      "chip": "ym2612"
    },
    {
      "channel": 1,
      "note": 30,
      "start": 115.312,
      "duration": 0.166,
      "velocity": 87,
      "chip": "ym2612"
    },
    {
      "channel": 0,
      "note": 57,
      "start": 115.4949,
      "duration": 0.1167,
      "velocity": 102,
      "chip": "ym2612"
    },
    {
      "channel": 1,
      "note": 34,
      "start": 115.4952,
      "duration": 0.1664,
      "velocity": 87,
      "chip": "ym2612"
    },
    {
      "channel": 0,
      "note": 57,
      "start": 115.6782,
      "duration": 0.1165,
      "velocity": 102,
      "chip": "ym2612"
    },
    {
      "channel": 1,
      "note": 34,
      "start": 115.6785,
      "duration": 0.0496,
      "velocity": 87,
      "chip": "ym2612"
    },
    {
      "channel": 1,
      "note": 34,
      "start": 115.7449,
      "duration": 0.0499,
      "velocity": 87,
      "chip": "ym2612"
    },
    {
      "channel": 1,
      "note": 34,
      "start": 115.8118,
      "duration": 0.033,
      "velocity": 87,
      "chip": "ym2612"
    },
    {
      "channel": 0,
      "note": 57,
      "start": 115.8618,
      "duration": 0.1162,
      "velocity": 102,
      "chip": "ym2612"
    },
    {
      "channel": 1,
      "note": 34,
      "start": 115.8622,
      "duration": 0.1659,
      "velocity": 87,
      "chip": "ym2612"
    },
    {
      "channel": 0,
      "note": 57,
      "start": 116.0449,
      "duration": 0.1167,
      "velocity": 102,
      "chip": "ym2612"
    },
    {
      "channel": 1,
      "note": 34,
      "start": 116.0452,
      "duration": 0.0495,
      "velocity": 87,
      "chip": "ym2612"
    },
    {
      "channel": 1,
      "note": 34,
      "start": 116.1118,
      "duration": 0.0499,
      "velocity": 87,
      "chip": "ym2612"
    },
    {
      "channel": 1,
      "note": 34,
      "start": 116.1782,
      "duration": 0.0335,
      "velocity": 87,
      "chip": "ym2612"
    },
    {
      "channel": 0,
      "note": 57,
      "start": 116.2282,
      "duration": 0.1165,
      "velocity": 102,
      "chip": "ym2612"
    },
    {
      "channel": 1,
      "note": 34,
      "start": 116.2286,
      "duration": 0.1662,
      "velocity": 87,
      "chip": "ym2612"
    },
    {
      "channel": 0,
      "note": 57,
      "start": 116.4118,
      "duration": 0.1162,
      "velocity": 102,
      "chip": "ym2612"
    },
    {
      "channel": 1,
      "note": 34,
      "start": 116.4121,
      "duration": 0.0496,
      "velocity": 87,
      "chip": "ym2612"
    },
    {
      "channel": 1,
      "note": 34,
      "start": 116.4782,
      "duration": 0.0499,
      "velocity": 87,
      "chip": "ym2612"
    },
    {
      "channel": 1,
      "note": 34,
      "start": 116.5449,
      "duration": 0.0332,
      "velocity": 87,
      "chip": "ym2612"
    },
    {
      "channel": 0,
      "note": 57,
      "start": 116.5949,
      "duration": 0.1167,
      "velocity": 102,
      "chip": "ym2612"
    },
    {
      "channel": 1,
      "note": 34,
      "start": 116.5952,
      "duration": 0.0664,
      "velocity": 87,
      "chip": "ym2612"
    },
    {
      "channel": 4,
      "note": 35,
      "start": 116.5964,
      "duration": 0.699,
      "velocity": 96,
      "chip": "ym2612"
    },
    {
      "channel": 1,
      "note": 34,
      "start": 116.6782,
      "duration": 0.0835,
      "velocity": 87,
      "chip": "ym2612"
    },
    {
      "channel": 0,
      "note": 57,
      "start": 116.7782,
      "duration": 0.1165,
      "velocity": 102,
      "chip": "ym2612"
    },
    {
      "channel": 1,
      "note": 37,
      "start": 116.7786,
      "duration": 0.1662,
      "velocity": 87,
      "chip": "ym2612"
    },
    {
      "channel": 2,
      "note": 40,
      "start": 116.7789,
      "duration": 0.0993,
      "velocity": 105,
      "chip": "ym2612"
    },
    {
      "channel": 0,
      "note": 57,
      "start": 116.9618,
      "duration": 0.1162,
      "velocity": 102,
      "chip": "ym2612"
    },
    {
      "channel": 1,
      "note": 37,
      "start": 116.9621,
      "duration": 0.0496,
      "velocity": 87,
      "chip": "ym2612"
    },
    {
      "channel": 2,
      "note": 45,
      "start": 116.9624,
      "duration": 0.0993,
      "velocity": 105,
      "chip": "ym2612"
    },
    {
      "channel": 1,
      "note": 37,
      "start": 117.0282,
      "duration": 0.0499,
      "velocity": 87,
      "chip": "ym2612"
    },
    {
      "channel": 5,
      "note": 40,
      "start": 117.0455,
      "duration": 0.1012,
      "velocity": 105,
      "chip": "ym2612"
    },
    {
      "channel": 1,
      "note": 37,
      "start": 117.0949,
      "duration": 0.0332,
      "velocity": 87,
      "chip": "ym2612"
    },
    {
      "channel": 0,
      "note": 57,
      "start": 117.145,
      "duration": 0.1166,
      "velocity": 102,
      "chip": "ym2612"
    },
    {
      "channel": 1,
      "note": 30,
      "start": 117.1454,
      "duration": 0.0663,
      "velocity": 87,
      "chip": "ym2612"
    },
    {
      "channel": 2,
      "note": 49,
      "start": 117.1456,
      "duration": 0.0992,
      "velocity": 105,
      "chip": "ym2612"
    },
    {
      "channel": 1,
      "note": 30,
      "start": 117.2283,
      "duration": 0.0834,
      "velocity": 87,
      "chip": "ym2612"
    },
    {
      "channel": 5,
      "note": 45,
      "start": 117.2291,
      "duration": 0.1011,
      "velocity": 105,
      "chip": "ym2612"
    },
    {
      "channel": 0,
      "note": 59,
      "start": 117.3283,
      "duration": 0.1164,
      "velocity": 102,
      "chip": "ym2612"
    },
    {
      "channel": 1,
      "note": 34,
      "start": 117.3286,
      "duration": 0.1661,
      "velocity": 87,
      "chip": "ym2612"
    },
    {
      "channel": 2,
      "note": 50,
      "start": 117.3289,
      "duration": 1.7493,
      "velocity": 105,
      "chip": "ym2612"
    },
    {
      "channel": 3,
      "note": 54,
      "start": 117.3298,
      "duration": 2.1655,
      "velocity": 96,
      "chip": "ym2612"
    },
    {
      "channel": 4,
      "note": 35,
      "start": 117.33,
      "duration": 2.1653,
      "velocity": 96,
      "chip": "ym2612"
    },
    {
      "channel": 5,
      "note": 49,
      "start": 117.4125,
      "duration": 0.1007,
      "velocity": 105,
      "chip": "ym2612"
    },
    {
      "channel": 0,
      "note": 59,
      "start": 117.5118,
      "duration": 0.1162,
      "velocity": 102,
      "chip": "ym2612"
    },
    {
      "channel": 1,
      "note": 34,
      "start": 117.5121,
      "duration": 0.0496,
      "velocity": 87,
      "chip": "ym2612"
    },
    {
      "channel": 1,
      "note": 30,
      "start": 117.5782,
      "duration": 0.0499,
      "velocity": 87,
      "chip": "ym2612"
    },
    {
      "channel": 5,
      "note": 50,
      "start": 117.5956,
      "duration": 1.7508,
      "velocity": 105,
      "chip": "ym2612"
    },
    {
      "channel": 1,
      "note": 34,
      "start": 117.6449,
      "duration": 0.0332,
      "velocity": 87,
      "chip": "ym2612"
    },
    {
      "channel": 0,
      "note": 59,
      "start": 117.6949,
      "duration": 0.1167,
      "velocity": 102,
      "chip": "ym2612"
    },
    {
      "channel": 1,
      "note": 34,
      "start": 117.6952,
      "duration": 0.0665,
      "velocity": 87,
      "chip": "ym2612"
    },
    {
      "channel": 1,
      "note": 34,
      "start": 117.7782,
      "duration": 0.0835,
      "velocity": 87,
      "chip": "ym2612"
    },
    {
      "channel": 0,
      "note": 59,
      "start": 117.8783,
      "duration": 0.1164,
      "velocity": 102,
      "chip": "ym2612"
    },
    {
      "channel": 1,
      "note": 30,
      "start": 117.8786,
      "duration": 0.3494,
      "velocity": 87,
      "chip": "ym2612"
    },
    {
      "channel": 0,
      "note": 59,
      "start": 118.0618,
      "duration": 0.1162,
      "velocity": 102,
      "chip": "ym2612"
    },
    {
      "channel": 0,
      "note": 59,
      "start": 118.2449,
      "duration": 0.1167,
      "velocity": 102,
      "chip": "ym2612"
    },
    {
      "channel": 1,
      "note": 30,
      "start": 118.2451,
      "duration": 0.1666,
      "velocity": 87,
      "chip": "ym2612"
    },
    {
      "channel": 0,
      "note": 59,
      "start": 118.4283,
      "duration": 0.1164,
      "velocity": 102,
      "chip": "ym2612"
    },
    {
      "channel": 1,
      "note": 34,
      "start": 118.4286,
      "duration": 0.1662,
      "velocity": 87,
      "chip": "ym2612"
    },
    {
      "channel": 0,
      "note": 59,
      "start": 118.6118,
      "duration": 0.1162,
      "velocity": 102,
      "chip": "ym2612"
    },
    {
      "channel": 1,
      "note": 34,
      "start": 118.6121,
      "duration": 0.0496,
      "velocity": 87,
      "chip": "ym2612"
    },
    {
      "channel": 1,
      "note": 34,
      "start": 118.6782,
      "duration": 0.0499,
      "velocity": 87,
      "chip": "ym2612"
    },
    {
      "channel": 1,
      "note": 34,
      "start": 118.7449,
      "duration": 0.0332,
      "velocity": 87,
      "chip": "ym2612"
    },
    {
      "channel": 0,
      "note": 59,
      "start": 118.7949,
      "duration": 0.1167,
      "velocity": 102,
      "chip": "ym2612"
    },
    {
      "channel": 1,
      "note": 34,
      "start": 118.7952,
      "duration": 0.1664,
      "velocity": 87,
      "chip": "ym2612"
    },
    {
      "channel": 0,
      "note": 59,
      "start": 118.9783,
      "duration": 0.1164,
      "velocity": 102,
      "chip": "ym2612"
    },
    {
      "channel": 1,
      "note": 34,
      "start": 118.9786,
      "duration": 0.0495,
      "velocity": 87,
      "chip": "ym2612"
    },
    {
      "channel": 1,
      "note": 34,
      "start": 119.0449,
      "duration": 0.0499,
      "velocity": 87,
      "chip": "ym2612"
    },
    {
      "channel": 1,
      "note": 34,
      "start": 119.1118,
      "duration": 0.033,
      "velocity": 87,
      "chip": "ym2612"
    },
    {
      "channel": 0,
      "note": 59,
      "start": 119.1618,
      "duration": 0.1162,
      "velocity": 102,
      "chip": "ym2612"
    },
    {
      "channel": 1,
      "note": 34,
      "start": 119.1622,
      "duration": 0.1659,
      "velocity": 87,
      "chip": "ym2612"
    },
    {
      "channel": 2,
      "note": 50,
      "start": 119.1624,
      "duration": 0.2824,
      "velocity": 105,
      "chip": "ym2612"
    },
    {
      "channel": 0,
      "note": 59,
      "start": 119.3449,
      "duration": 0.1167,
      "velocity": 102,
      "chip": "ym2612"
    },
    {
      "channel": 1,
      "note": 34,
      "start": 119.3452,
      "duration": 0.0495,
      "velocity": 87,
      "chip": "ym2612"
    },
    {
      "channel": 1,
      "note": 34,
      "start": 119.4118,
      "duration": 0.0499,
      "velocity": 87,
      "chip": "ym2612"
    },
    {
      "channel": 5,
      "note": 50,
      "start": 119.4288,
      "duration": 0.2844,
      "velocity": 105,
      "chip": "ym2612"
    },
    {
      "channel": 1,
      "note": 34,
      "start": 119.4783,
      "duration": 0.0334,
      "velocity": 87,
      "chip": "ym2612"
    },
    {
      "channel": 0,
      "note": 59,
      "start": 119.5283,
      "duration": 0.1164,
      "velocity": 102,
      "chip": "ym2612"
    },
    {
      "channel": 1,
      "note": 34,
      "start": 119.5286,
      "duration": 0.0662,
      "velocity": 87,
      "chip": "ym2612"
    },
    {
      "channel": 2,
      "note": 52,
      "start": 119.5288,
      "duration": 0.2829,
      "velocity": 105,
      "chip": "ym2612"
    },
    {
      "channel": 3,
      "note": 52,
      "start": 119.5297,
      "duration": 0.3325,
      "velocity": 96,
      "chip": "ym2612"
    },
    {
      "channel": 4,
      "note": 30,
      "start": 119.53,
      "duration": 0.6988,
      "velocity": 96,
      "chip": "ym2612"
    },
    {
      "channel": 1,
      "note": 34,
      "start": 119.6118,
      "duration": 0.083,
      "velocity": 87,
      "chip": "ym2612"
    },
    {
      "channel": 0,
      "note": 59,
      "start": 119.7118,
      "duration": 0.1162,
      "velocity": 102,
      "chip": "ym2612"
    },
    {
      "channel": 1,
      "note": 37,
      "start": 119.7122,
      "duration": 0.1659,
      "velocity": 87,
      "chip": "ym2612"
    },
    {
      "channel": 5,
      "note": 52,
      "start": 119.7956,
      "duration": 0.2841,
      "velocity": 105,
      "chip": "ym2612"
    },
    {
      "channel": 0,
      "note": 59,
      "start": 119.8949,
      "duration": 0.1167,
      "velocity": 102,
      "chip": "ym2612"
    },
    {
      "channel": 1,
      "note": 37,
      "start": 119.8952,
      "duration": 0.0496,
      "velocity": 87,
      "chip": "ym2612"
    },
    {
      "channel": 2,
      "note": 54,
      "start": 119.8955,
      "duration": 0.2826,
      "velocity": 105,
      "chip": "ym2612"
    },
    {
      "channel": 3,
      "note": 50,
      "start": 119.8964,
      "duration": 0.3323,
      "velocity": 96,
      "chip": "ym2612"
    },
    {
      "channel": 1,
      "note": 37,
      "start": 119.9618,
      "duration": 0.0499,
      "velocity": 87,
      "chip": "ym2612"
    },
    {
      "channel": 1,
      "note": 37,
      "start": 120.0283,
      "duration": 0.0334,
      "velocity": 87,
      "chip": "ym2612"
    },
    {
      "channel": 0,
      "note": 59,
      "start": 120.0783,
      "duration": 0.1163,
      "velocity": 102,
      "chip": "ym2612"
    },
    {
      "channel": 1,
      "note": 30,
      "start": 120.0787,
      "duration": 0.066,
      "velocity": 87,
      "chip": "ym2612"
    },
    {
      "channel": 1,
      "note": 30,
      "start": 120.1618,
      "duration": 0.0829,
      "velocity": 87,
      "chip": "ym2612"
    },
    {
      "channel": 5,
      "note": 54,
      "start": 120.1627,
      "duration": 0.2836,
      "velocity": 105,
      "chip": "ym2612"
    },
    {
      "channel": 0,
      "note": 57,
      "start": 120.2618,
      "duration": 0.1162,
      "velocity": 102,
      "chip": "ym2612"
    },
    {
      "channel": 1,
      "note": 34,
      "start": 120.2622,
      "duration": 0.1659,
      "velocity": 87,
      "chip": "ym2612"
    },
    {
      "channel": 2,
      "note": 52,
      "start": 120.2625,
      "duration": 1.0157,
      "velocity": 105,
      "chip": "ym2612"
    },
    {
      "channel": 3,
      "note": 49,
      "start": 120.2634,
      "duration": 1.0653,
      "velocity": 96,
      "chip": "ym2612"
    },
    {
      "channel": 4,
      "note": 33,
      "start": 120.2637,
      "duration": 2.1649,
      "velocity": 96,
      "chip": "ym2612"
    },
    {
      "channel": 0,
      "note": 57,
      "start": 120.4449,
      "duration": 0.1167,
      "velocity": 102,
      "chip": "ym2612"
    },
    {
      "channel": 1,
      "note": 34,
      "start": 120.4452,
      "duration": 0.0496,
      "velocity": 87,
      "chip": "ym2612"
    },
    {
      "channel": 1,
      "note": 30,
      "start": 120.5118,
      "duration": 0.0499,
      "velocity": 87,
      "chip": "ym2612"
    },
    {
      "channel": 5,
      "note": 52,
      "start": 120.5289,
      "duration": 1.0174,
      "velocity": 105,
      "chip": "ym2612"
    },
    {
      "channel": 1,
      "note": 34,
      "start": 120.5782,
      "duration": 0.0335,
      "velocity": 87,
      "chip": "ym2612"
    },
    {
      "channel": 0,
      "note": 57,
      "start": 120.6283,
      "duration": 0.1164,
      "velocity": 102,
      "chip": "ym2612"
    },
    {
      "channel": 1,
      "note": 34,
      "start": 120.6286,
      "duration": 0.0662,
      "velocity": 87,
      "chip": "ym2612"
    },
    {
      "channel": 1,
      "note": 34,
      "start": 120.7118,
      "duration": 0.083,
      "velocity": 87,
      "chip": "ym2612"
    },
    {
      "channel": 0,
      "note": 57,
      "start": 120.8118,
      "duration": 0.1162,
      "velocity": 102,
      "chip": "ym2612"
    },
    {
      "channel": 1,
      "note": 30,
      "start": 120.8122,
      "duration": 0.3495,
      "velocity": 87,
      "chip": "ym2612"
    },
    {
      "channel": 0,
      "note": 57,
      "start": 120.9949,
      "duration": 0.1167,
      "velocity": 102,
      "chip": "ym2612"
    },
    {
      "channel": 0,
      "note": 57,
      "start": 121.1782,
      "duration": 0.1165,
      "velocity": 102,
      "chip": "ym2612"
    },
    {
      "channel": 1,
      "note": 30,
      "start": 121.1784,
      "duration": 0.1663,
      "velocity": 87,
      "chip": "ym2612"
    },
    {
      "channel": 0,
      "note": 57,
      "start": 121.3618,
      "duration": 0.1162,
      "velocity": 102,
      "chip": "ym2612"
    },
    {
      "channel": 1,
      "note": 34,
      "start": 121.3621,
      "duration": 0.166,
      "velocity": 87,
      "chip": "ym2612"
    },
    {
      "channel": 2,
      "note": 50,
      "start": 121.3624,
      "duration": 0.2824,
      "velocity": 105,
      "chip": "ym2612"
    },
    {
      "channel": 3,
      "note": 45,
      "start": 121.3633,
      "duration": 1.7989,
      "velocity": 96,
      "chip": "ym2612"
    },
    {
      "channel": 0,
      "note": 57,
      "start": 121.5449,
      "duration": 0.1167,
      "velocity": 102,
      "chip": "ym2612"
    },
    {
      "channel": 1,
      "note": 34,
      "start": 121.5452,
      "duration": 0.0495,
      "velocity": 87,
      "chip": "ym2612"
    },
    {
      "channel": 1,
      "note": 34,
      "start": 121.6118,
      "duration": 0.0499,
      "velocity": 87,
      "chip": "ym2612"
    },
    {
      "channel": 5,
      "note": 50,
      "start": 121.6289,
      "duration": 0.2844,
      "velocity": 105,
      "chip": "ym2612"
    },
    {
      "channel": 1,
      "note": 34,
      "start": 121.6782,
      "duration": 0.0335,
      "velocity": 87,
      "chip": "ym2612"
    },
    {
      "channel": 0,
      "note": 57,
      "start": 121.7282,
      "duration": 0.1165,
      "velocity": 102,
      "chip": "ym2612"
    },
    {
      "channel": 1,
      "note": 34,
      "start": 121.7286,
      "duration": 0.1662,
      "velocity": 87,
      "chip": "ym2612"
    },
    {
      "channel": 2,
      "note": 49,
      "start": 121.7288,
      "duration": 1.016,
      "velocity": 105,
      "chip": "ym2612"
    },
    {
      "channel": 0,
      "note": 57,
      "start": 121.9118,
      "duration": 0.1162,
      "velocity": 102,
      "chip": "ym2612"
    },
    {
      "channel": 1,
      "note": 34,
      "start": 121.9122,
      "duration": 0.0495,
      "velocity": 87,
      "chip": "ym2612"
    },
    {
      "channel": 1,
      "note": 34,
      "start": 121.9782,
      "duration": 0.0499,
      "velocity": 87,
      "chip": "ym2612"
    },
    {
      "channel": 5,
      "note": 49,
      "start": 121.9955,
      "duration": 1.0179,
      "velocity": 105,
      "chip": "ym2612"
    },
    {
      "channel": 1,
      "note": 34,
      "start": 122.0449,
      "duration": 0.0332,
      "velocity": 87,
      "chip": "ym2612"
    },
    {
      "channel": 0,
      "note": 57,
      "start": 122.0949,
      "duration": 0.1167,
      "velocity": 102,
      "chip": "ym2612"
    },
    {
      "channel": 1,
      "note": 34,
      "start": 122.0952,
      "duration": 0.1664,
      "velocity": 87,
      "chip": "ym2612"
    },
    {
      "channel": 0,
      "note": 57,
      "start": 122.2783,
      "duration": 0.1164,
      "velocity": 102,
      "chip": "ym2612"
    },
    {
      "channel": 1,
      "note": 34,
      "start": 122.2786,
      "duration": 0.0495,
      "velocity": 87,
      "chip": "ym2612"
    },
    {
      "channel": 1,
      "note": 34,
      "start": 122.3449,
      "duration": 0.0499,
      "velocity": 87,
      "chip": "ym2612"
    },
    {
      "channel": 1,
      "note": 34,
      "start": 122.4118,
      "duration": 0.033,
      "velocity": 87,
      "chip": "ym2612"
    },
    {
      "channel": 0,
      "note": 57,
      "start": 122.4618,
      "duration": 0.1162,
      "velocity": 102,
      "chip": "ym2612"
    },
    {
      "channel": 1,
      "note": 34,
      "start": 122.4622,
      "duration": 0.0659,
      "velocity": 87,
      "chip": "ym2612"
    },
    {
      "channel": 4,
      "note": 28,
      "start": 122.4633,
      "duration": 0.699,
      "velocity": 96,
      "chip": "ym2612"
    },
    {
      "channel": 1,
      "note": 34,
      "start": 122.5449,
      "duration": 0.0832,
      "velocity": 87,
      "chip": "ym2612"
    },
    {
      "channel": 0,
      "note": 57,
      "start": 122.6449,
      "duration": 0.1167,
      "velocity": 102,
      "chip": "ym2612"
    },
    {
      "channel": 1,
      "note": 37,
      "start": 122.6452,
      "duration": 0.1664,
      "velocity": 87,
      "chip": "ym2612"
    },
    {
      "channel": 0,
      "note": 57,
      "start": 122.8283,
      "duration": 0.1164,
      "velocity": 102,
      "chip": "ym2612"
    },
    {
      "channel": 1,
      "note": 37,
      "start": 122.8286,
      "duration": 0.0495,
      "velocity": 87,
      "chip": "ym2612"
    },
    {
      "channel": 2,
      "note": 45,
      "start": 122.8288,
      "duration": 0.2829,
      "velocity": 105,
      "chip": "ym2612"
    },
    {
      "channel": 1,
      "note": 37,
      "start": 122.8949,
      "duration": 0.0499,
      "velocity": 87,
      "chip": "ym2612"
    },
    {
      "channel": 1,
      "note": 37,
      "start": 122.9618,
      "duration": 0.033,
      "velocity": 87,
      "chip": "ym2612"
    },
    {
      "channel": 0,
      "note": 57,
      "start": 123.0119,
      "duration": 0.1161,
      "velocity": 102,
      "chip": "ym2612"
    },
    {
      "channel": 1,
      "note": 30,
      "start": 123.0123,
      "duration": 0.0658,
      "velocity": 87,
      "chip": "ym2612"
    },
    {
      "channel": 1,
      "note": 30,
      "start": 123.0949,
      "duration": 0.0832,
      "velocity": 87,
      "chip": "ym2612"
    },
    {
      "channel": 5,
      "note": 45,
      "start": 123.0958,
      "duration": 0.2839,
      "velocity": 105,
      "chip": "ym2612"
    },
    {
      "channel": 0,
      "note": 55,
      "start": 123.195,
      "duration": 0.1166,
      "velocity": 102,
      "chip": "ym2612"
    },
    {
      "channel": 1,
      "note": 34,
      "start": 123.1954,
      "duration": 0.1663,
      "velocity": 87,
      "chip": "ym2612"
    },
    {
      "channel": 2,
      "note": 47,
      "start": 123.1956,
      "duration": 1.7492,
      "velocity": 105,
      "chip": "ym2612"
    },
    {
      "channel": 3,
      "note": 50,
      "start": 123.1966,
      "duration": 0.6987,
      "velocity": 96,
      "chip": "ym2612"
    },
    {
      "channel": 4,
      "note": 31,
      "start": 123.1968,
      "duration": 2.1654,
      "velocity": 96,
      "chip": "ym2612"
    },
    {
      "channel": 0,
      "note": 55,
      "start": 123.3782,
      "duration": 0.1165,
      "velocity": 102,
      "chip": "ym2612"
    },
    {
      "channel": 1,
      "note": 34,
      "start": 123.3785,
      "duration": 0.0496,
      "velocity": 87,
      "chip": "ym2612"
    },
    {
      "channel": 1,
      "note": 30,
      "start": 123.4449,
      "duration": 0.0499,
      "velocity": 87,
      "chip": "ym2612"
    },
    {
      "channel": 5,
      "note": 47,
      "start": 123.4625,
      "duration": 1.751,
      "velocity": 105,
      "chip": "ym2612"
    },
    {
      "channel": 1,
      "note": 34,
      "start": 123.5118,
      "duration": 0.033,
      "velocity": 87,
      "chip": "ym2612"
    },
    {
      "channel": 0,
      "note": 55,
      "start": 123.5618,
      "duration": 0.1162,
      "velocity": 102,
      "chip": "ym2612"
    },
    {
      "channel": 1,
      "note": 34,
      "start": 123.5621,
      "duration": 0.066,
      "velocity": 87,
      "chip": "ym2612"
    },
    {
      "channel": 1,
      "note": 34,
      "start": 123.6449,
      "duration": 0.0832,
      "velocity": 87,
      "chip": "ym2612"
    },
    {
      "channel": 0,
      "note": 55,
      "start": 123.7449,
      "duration": 0.1167,
      "velocity": 102,
      "chip": "ym2612"
    },
    {
      "channel": 1,
      "note": 30,
      "start": 123.7453,
      "duration": 0.3494,
      "velocity": 87,
      "chip": "ym2612"
    },
    {
      "channel": 0,
      "note": 55,
      "start": 123.9283,
      "duration": 0.1164,
      "velocity": 102,
      "chip": "ym2612"
    },
    {
      "channel": 3,
      "note": 43,
      "start": 123.9293,
      "duration": 2.1661,
      "velocity": 96,
      "chip": "ym2612"
    },
    {
      "channel": 0,
      "note": 55,
      "start": 124.1118,
      "duration": 0.1162,
      "velocity": 102,
      "chip": "ym2612"
    },
    {
      "channel": 1,
      "note": 30,
      "start": 124.112,
      "duration": 0.166,
      "velocity": 87,
      "chip": "ym2612"
    },
    {
      "channel": 0,
      "note": 55,
      "start": 124.2949,
      "duration": 0.1167,
      "velocity": 102,
      "chip": "ym2612"
    },
    {
      "channel": 1,
      "note": 34,
      "start": 124.2952,
      "duration": 0.1664,
      "velocity": 87,
      "chip": "ym2612"
    },
    {
      "channel": 0,
      "note": 55,
      "start": 124.4782,
      "duration": 0.1165,
      "velocity": 102,
      "chip": "ym2612"
    },
    {
      "channel": 1,
      "note": 34,
      "start": 124.4785,
      "duration": 0.0496,
      "velocity": 87,
      "chip": "ym2612"
    },
    {
      "channel": 1,
      "note": 34,
      "start": 124.5449,
      "duration": 0.0499,
      "velocity": 87,
      "chip": "ym2612"
    },
    {
      "channel": 1,
      "note": 34,
      "start": 124.6118,
      "duration": 0.033,
      "velocity": 87,
      "chip": "ym2612"
    },
    {
      "channel": 0,
      "note": 55,
      "start": 124.6618,
      "duration": 0.1162,
      "velocity": 102,
      "chip": "ym2612"
    },
    {
      "channel": 1,
      "note": 34,
      "start": 124.6622,
      "duration": 0.1659,
      "velocity": 87,
      "chip": "ym2612"
    },
    {
      "channel": 0,
      "note": 55,
      "start": 124.8449,
      "duration": 0.1167,
      "velocity": 102,
      "chip": "ym2612"
    },
    {
      "channel": 1,
      "note": 34,
      "start": 124.8452,
      "duration": 0.0495,
      "velocity": 87,
      "chip": "ym2612"
    },
    {
      "channel": 1,
      "note": 34,
      "start": 124.9118,
      "duration": 0.0499,
      "velocity": 87,
      "chip": "ym2612"
    },
    {
      "channel": 1,
      "note": 34,
      "start": 124.9782,
      "duration": 0.0335,
      "velocity": 87,
      "chip": "ym2612"
    },
    {
      "channel": 0,
      "note": 55,
      "start": 125.0282,
      "duration": 0.1165,
      "velocity": 102,
      "chip": "ym2612"
    },
    {
      "channel": 1,
      "note": 34,
      "start": 125.0286,
      "duration": 0.1662,
      "velocity": 87,
      "chip": "ym2612"
    },
    {
      "channel": 2,
      "note": 47,
      "start": 125.0288,
      "duration": 0.0994,
      "velocity": 105,
      "chip": "ym2612"
    },
    {
      "channel": 0,
      "note": 55,
      "start": 125.2118,
      "duration": 0.1162,
      "velocity": 102,
      "chip": "ym2612"
    },
    {
      "channel": 1,
      "note": 34,
      "start": 125.2121,
      "duration": 0.0496,
      "velocity": 87,
      "chip": "ym2612"
    },
    {
      "channel": 2,
      "note": 49,
      "start": 125.2124,
      "duration": 0.0994,
      "velocity": 105,
      "chip": "ym2612"
    },
    {
      "channel": 1,
      "note": 34,
      "start": 125.2782,
      "duration": 0.0499,
      "velocity": 87,
      "chip": "ym2612"
    },
    {
      "channel": 5,
      "note": 47,
      "start": 125.2955,
      "duration": 0.1012,
      "velocity": 105,
      "chip": "ym2612"
    },
    {
      "channel": 1,
      "note": 34,
      "start": 125.3449,
      "duration": 0.0332,
      "velocity": 87,
      "chip": "ym2612"
    },
    {
      "channel": 0,
      "note": 55,
      "start": 125.3949,
      "duration": 0.1167,
      "velocity": 102,
      "chip": "ym2612"
    },
    {
      "channel": 1,
      "note": 34,
      "start": 125.3952,
      "duration": 0.0664,
      "velocity": 87,
      "chip": "ym2612"
    },
    {
      "channel": 2,
      "note": 50,
      "start": 125.3955,
      "duration": 0.0993,
      "velocity": 105,
      "chip": "ym2612"
    },
    {
      "channel": 4,
      "note": 33,
      "start": 125.3966,
      "duration": 0.6988,
      "velocity": 96,
      "chip": "ym2612"
    },
    {
      "channel": 1,
      "note": 34,
      "start": 125.4782,
      "duration": 0.0835,
      "velocity": 87,
      "chip": "ym2612"
    },
    {
      "channel": 5,
      "note": 49,
      "start": 125.479,
      "duration": 0.1007,
      "velocity": 105,
      "chip": "ym2612"
    },
    {
      "channel": 0,
      "note": 55,
      "start": 125.5783,
      "duration": 0.1164,
      "velocity": 102,
      "chip": "ym2612"
    },
    {
      "channel": 1,
      "note": 37,
      "start": 125.5786,
      "duration": 0.1662,
      "velocity": 87,
      "chip": "ym2612"
    },
    {
      "channel": 2,
      "note": 52,
      "start": 125.5788,
      "duration": 0.0994,
      "velocity": 105,
      "chip": "ym2612"
    },
    {
      "channel": 5,
      "note": 50,
      "start": 125.6625,
      "duration": 0.1008,
      "velocity": 105,
      "chip": "ym2612"
    },
    {
      "channel": 0,
      "note": 55,
      "start": 125.7618,
      "duration": 0.1162,
      "velocity": 102,
      "chip": "ym2612"
    },
    {
      "channel": 1,
      "note": 37,
      "start": 125.7621,
      "duration": 0.0496,
      "velocity": 87,
      "chip": "ym2612"
    },
    {
      "channel": 2,
      "note": 54,
      "start": 125.7624,
      "duration": 0.0994,
      "velocity": 105,
      "chip": "ym2612"
    },
    {
      "channel": 1,
      "note": 37,
      "start": 125.8282,
      "duration": 0.0499,
      "velocity": 87,
      "chip": "ym2612"
    },
    {
      "channel": 5,
      "note": 52,
      "start": 125.8455,
      "duration": 0.1012,
      "velocity": 105,
      "chip": "ym2612"
    },
    {
      "channel": 1,
      "note": 37,
      "start": 125.8949,
      "duration": 0.0332,
      "velocity": 87,
      "chip": "ym2612"
    },
    {
      "channel": 0,
      "note": 55,
      "start": 125.945,
      "duration": 0.1166,
      "velocity": 102,
      "chip": "ym2612"
    },
    {
      "channel": 1,
      "note": 30,
      "start": 125.9454,
      "duration": 0.0663,
      "velocity": 87,
      "chip": "ym2612"
    },
    {
      "channel": 2,
      "note": 59,
      "start": 125.9456,
      "duration": 0.0992,
      "velocity": 105,
      "chip": "ym2612"
    },
    {
      "channel": 1,
      "note": 30,
      "start": 126.0283,
      "duration": 0.0834,
      "velocity": 87,
      "chip": "ym2612"
    },
    {
      "channel": 5,
      "note": 54,
      "start": 126.0291,
      "duration": 0.1011,
      "velocity": 105,
      "chip": "ym2612"
    },
    {
      "channel": 0,
      "note": 57,
      "start": 126.1283,
      "duration": 0.1164,
      "velocity": 102,
      "chip": "ym2612"
    },
    {
      "channel": 1,
      "note": 34,
      "start": 126.1286,
      "duration": 0.1661,
      "velocity": 87,
      "chip": "ym2612"
    },
    {
      "channel": 2,
      "note": 57,
      "start": 126.1289,
      "duration": 1.016,
      "velocity": 105,
      "chip": "ym2612"
    },
    {
      "channel": 3,
      "note": 52,
      "start": 126.1298,
      "duration": 0.6988,
      "velocity": 96,
      "chip": "ym2612"
    },
    {
      "channel": 4,
      "note": 33,
      "start": 126.13,
      "duration": 2.1653,
      "velocity": 96,
      "chip": "ym2612"
    },
    {
      "channel": 5,
      "note": 59,
      "start": 126.2125,
      "duration": 0.1006,
      "velocity": 105,
      "chip": "ym2612"
    },
    {
      "channel": 0,
      "note": 57,
      "start": 126.3118,
      "duration": 0.1162,
      "velocity": 102,
      "chip": "ym2612"
    },
    {
      "channel": 1,
      "note": 34,
      "start": 126.3121,
      "duration": 0.0496,
      "velocity": 87,
      "chip": "ym2612"
    },
    {
      "channel": 1,
      "note": 30,
      "start": 126.3782,
      "duration": 0.0499,
      "velocity": 87,
      "chip": "ym2612"
    },
    {
      "channel": 5,
      "note": 57,
      "start": 126.3956,
      "duration": 1.0176,
      "velocity": 105,
      "chip": "ym2612"
    },
    {
      "channel": 1,
      "note": 34,
      "start": 126.4449,
      "duration": 0.0332,
      "velocity": 87,
      "chip": "ym2612"
    },
    {
      "channel": 0,
      "note": 57,
      "start": 126.4949,
      "duration": 0.1167,
      "velocity": 102,
      "chip": "ym2612"
    },
    {
      "channel": 1,
      "note": 34,
      "start": 126.4952,
      "duration": 0.0665,
      "velocity": 87,
      "chip": "ym2612"
    },
    {
      "channel": 1,
      "note": 34,
      "start": 126.5782,
      "duration": 0.0835,
      "velocity": 87,
      "chip": "ym2612"
    },
    {
      "channel": 0,
      "note": 57,
      "start": 126.6783,
      "duration": 0.1164,
      "velocity": 102,
      "chip": "ym2612"
    },
    {
      "channel": 1,
      "note": 30,
      "start": 126.6786,
      "duration": 0.3494,
      "velocity": 87,
      "chip": "ym2612"
    },
    {
      "channel": 0,
      "note": 57,
      "start": 126.8618,
      "duration": 0.1162,
      "velocity": 102,
      "chip": "ym2612"
    },
    {
      "channel": 3,
      "note": 49,
      "start": 126.8629,
      "duration": 1.7994,
      "velocity": 96,
      "chip": "ym2612"
    },
    {
      "channel": 0,
      "note": 57,
      "start": 127.0449,
      "duration": 0.1167,
      "velocity": 102,
      "chip": "ym2612"
    },
    {
      "channel": 1,
      "note": 30,
      "start": 127.0451,
      "duration": 0.1666,
      "velocity": 87,
      "chip": "ym2612"
    },
    {
      "channel": 0,
      "note": 57,
      "start": 127.2283,
      "duration": 0.1164,
      "velocity": 102,
      "chip": "ym2612"
    },
    {
      "channel": 1,
      "note": 34,
      "start": 127.2286,
      "duration": 0.1662,
      "velocity": 87,
      "chip": "ym2612"
    },
    {
      "channel": 2,
      "note": 52,
      "start": 127.2288,
      "duration": 0.2829,
      "velocity": 105,
      "chip": "ym2612"
    },
    {
      "channel": 0,
      "note": 57,
      "start": 127.4118,
      "duration": 0.1162,
      "velocity": 102,
      "chip": "ym2612"
    },
    {
      "channel": 1,
      "note": 34,
      "start": 127.4121,
      "duration": 0.0496,
      "velocity": 87,
      "chip": "ym2612"
    },
    {
      "channel": 1,
      "note": 34,
      "start": 127.4782,
      "duration": 0.0499,
      "velocity": 87,
      "chip": "ym2612"
    },
    {
      "channel": 5,
      "note": 52,
      "start": 127.4956,
      "duration": 0.2841,
      "velocity": 105,
      "chip": "ym2612"
    },
    {
      "channel": 1,
      "note": 34,
      "start": 127.5449,
      "duration": 0.0332,
      "velocity": 87,
      "chip": "ym2612"
    },
    {
      "channel": 0,
      "note": 57,
      "start": 127.5949,
      "duration": 0.1167,
      "velocity": 102,
      "chip": "ym2612"
    },
    {
      "channel": 1,
      "note": 34,
      "start": 127.5952,
      "duration": 0.1664,
      "velocity": 87,
      "chip": "ym2612"
    },
    {
      "channel": 2,
      "note": 49,
      "start": 127.5955,
      "duration": 0.6494,
      "velocity": 105,
      "chip": "ym2612"
    },
    {
      "channel": 0,
      "note": 57,
      "start": 127.7783,
      "duration": 0.1164,
      "velocity": 102,
      "chip": "ym2612"
    },
    {
      "channel": 1,
      "note": 34,
      "start": 127.7786,
      "duration": 0.0495,
      "velocity": 87,
      "chip": "ym2612"
    },
    {
      "channel": 1,
      "note": 34,
      "start": 127.8449,
      "duration": 0.0499,
      "velocity": 87,
      "chip": "ym2612"
    },
    {
      "channel": 5,
      "note": 49,
      "start": 127.8624,
      "duration": 0.6507,
      "velocity": 105,
      "chip": "ym2612"
    },
    {
      "channel": 1,
      "note": 34,
      "start": 127.9118,
      "duration": 0.033,
      "velocity": 87,
      "chip": "ym2612"
    },
    {
      "channel": 0,
      "note": 57,
      "start": 127.9618,
      "duration": 0.1162,
      "velocity": 102,
      "chip": "ym2612"
    },
    {
      "channel": 1,
      "note": 34,
      "start": 127.9622,
      "duration": 0.1659,
      "velocity": 87,
      "chip": "ym2612"
    },
    {
      "channel": 0,
      "note": 57,
      "start": 128.1449,
      "duration": 0.1167,
      "velocity": 102,
      "chip": "ym2612"
    },
    {
      "channel": 1,
      "note": 34,
      "start": 128.1452,
      "duration": 0.0495,
      "velocity": 87,
      "chip": "ym2612"
    },
    {
      "channel": 1,
      "note": 34,
      "start": 128.2118,
      "duration": 0.0499,
      "velocity": 87,
      "chip": "ym2612"
    },
    {
      "channel": 1,
      "note": 34,
      "start": 128.2782,
      "duration": 0.0335,
      "velocity": 87,
      "chip": "ym2612"
    },
    {
      "channel": 0,
      "note": 57,
      "start": 128.3283,
      "duration": 0.1164,
      "velocity": 102,
      "chip": "ym2612"
    },
    {
      "channel": 1,
      "note": 34,
      "start": 128.3286,
      "duration": 0.0662,
      "velocity": 87,
      "chip": "ym2612"
    },
    {
      "channel": 2,
      "note": 45,
      "start": 128.3288,
      "duration": 0.6493,
      "velocity": 105,
      "chip": "ym2612"
    },
    {
      "channel": 4,
      "note": 35,
      "start": 128.3299,
      "duration": 0.6988,
      "velocity": 96,
      "chip": "ym2612"
    },
    {
      "channel": 1,
      "note": 34,
      "start": 128.4118,
      "duration": 0.083,
      "velocity": 87,
      "chip": "ym2612"
    },
    {
      "channel": 0,
      "note": 57,
      "start": 128.5118,
      "duration": 0.1162,
      "velocity": 102,
      "chip": "ym2612"
    },
    {
      "channel": 1,
      "note": 37,
      "start": 128.5122,
      "duration": 0.1659,
      "velocity": 87,
      "chip": "ym2612"
    },
    {
      "channel": 5,
      "note": 45,
      "start": 128.5956,
      "duration": 0.6506,
      "velocity": 105,
      "chip": "ym2612"
    },
    {
      "channel": 0,
      "note": 57,
      "start": 128.6949,
      "duration": 0.1167,
      "velocity": 102,
      "chip": "ym2612"
    },
    {
      "channel": 1,
      "note": 37,
      "start": 128.6952,
      "duration": 0.0495,
      "velocity": 87,
      "chip": "ym2612"
    },
    {
      "channel": 3,
      "note": 47,
      "start": 128.6962,
      "duration": 0.149,
      "velocity": 96,
      "chip": "ym2612"
    },
    {
      "channel": 1,
      "note": 37,
      "start": 128.7618,
      "duration": 0.0499,
      "velocity": 87,
      "chip": "ym2612"
    },
    {
      "channel": 1,
      "note": 37,
      "start": 128.8282,
      "duration": 0.0335,
      "velocity": 87,
      "chip": "ym2612"
    },
    {
      "channel": 0,
      "note": 57,
      "start": 128.8783,
      "duration": 0.1163,
      "velocity": 102,
      "chip": "ym2612"
    },
    {
      "channel": 1,
      "note": 30,
      "start": 128.8787,
      "duration": 0.066,
      "velocity": 87,
      "chip": "ym2612"
    },
    {
      "channel": 3,
      "note": 45,
      "start": 128.8796,
      "duration": 0.1491,
      "velocity": 96,
      "chip": "ym2612"
    },
    {
      "channel": 1,
      "note": 30,
      "start": 128.9618,
      "duration": 0.0829,
      "velocity": 87,
      "chip": "ym2612"
    },
    {
      "channel": 0,
      "note": 59,
      "start": 129.0618,
      "duration": 0.1162,
      "velocity": 102,
      "chip": "ym2612"
    },
    {
      "channel": 1,
      "note": 34,
      "start": 129.0622,
      "duration": 0.1659,
      "velocity": 87,
      "chip": "ym2612"
    },
    {
      "channel": 2,
      "note": 47,
      "start": 129.0625,
      "duration": 2.4824,
      "velocity": 105,
      "chip": "ym2612"
    },
    {
      "channel": 3,
      "note": 50,
      "start": 129.0634,
      "duration": 2.1652,
      "velocity": 96,
      "chip": "ym2612"
    },
    {
      "channel": 4,
      "note": 35,
      "start": 129.0636,
      "duration": 2.165,
      "velocity": 96,
      "chip": "ym2612"
    },
    {
      "channel": 0,
      "note": 59,
      "start": 129.2449,
      "duration": 0.1167,
      "velocity": 102,
      "chip": "ym2612"
    },
    {
      "channel": 1,
      "note": 34,
      "start": 129.2452,
      "duration": 0.0495,
      "velocity": 87,
      "chip": "ym2612"
    },
    {
      "channel": 1,
      "note": 30,
      "start": 129.3118,
      "duration": 0.0499,
      "velocity": 87,
      "chip": "ym2612"
    },
    {
      "channel": 5,
      "note": 47,
      "start": 129.3289,
      "duration": 2.4847,
      "velocity": 105,
      "chip": "ym2612"
    },
    {
      "channel": 1,
      "note": 34,
      "start": 129.3783,
      "duration": 0.0334,
      "velocity": 87,
      "chip": "ym2612"
    },
    {
      "channel": 0,
      "note": 59,
      "start": 129.4282,
      "duration": 0.1165,
      "velocity": 102,
      "chip": "ym2612"
    },
    {
      "channel": 1,
      "note": 34,
      "start": 129.4285,
      "duration": 0.0662,
      "velocity": 87,
      "chip": "ym2612"
    },
    {
      "channel": 1,
      "note": 34,
      "start": 129.5118,
      "duration": 0.083,
      "velocity": 87,
      "chip": "ym2612"
    },
    {
      "channel": 0,
      "note": 59,
      "start": 129.6118,
      "duration": 0.1162,
      "velocity": 102,
      "chip": "ym2612"
    },
    {
      "channel": 1,
      "note": 30,
      "start": 129.6122,
      "duration": 0.3495,
      "velocity": 87,
      "chip": "ym2612"
    },
    {
      "channel": 0,
      "note": 59,
      "start": 129.7949,
      "duration": 0.1167,
      "velocity": 102,
      "chip": "ym2612"
    },
    {
      "channel": 0,
      "note": 59,
      "start": 129.9783,
      "duration": 0.1164,
      "velocity": 102,
      "chip": "ym2612"
    },
    {
      "channel": 1,
      "note": 30,
      "start": 129.9784,
      "duration": 0.1663,
      "velocity": 87,
      "chip": "ym2612"
    },
    {
      "channel": 0,
      "note": 59,
      "start": 130.1618,
      "duration": 0.1162,
      "velocity": 102,
      "chip": "ym2612"
    },
    {
      "channel": 1,
      "note": 34,
      "start": 130.1622,
      "duration": 0.1659,
      "velocity": 87,
      "chip": "ym2612"
    },
    {
      "channel": 0,
      "note": 59,
      "start": 130.3449,
      "duration": 0.1167,
      "velocity": 102,
      "chip": "ym2612"
    },
    {
      "channel": 1,
      "note": 34,
      "start": 130.3452,
      "duration": 0.0495,
      "velocity": 87,
      "chip": "ym2612"
    },
    {
      "channel": 1,
      "note": 34,
      "start": 130.4118,
      "duration": 0.0499,
      "velocity": 87,
      "chip": "ym2612"
    },
    {
      "channel": 1,
      "note": 34,
      "start": 130.4782,
      "duration": 0.0335,
      "velocity": 87,
      "chip": "ym2612"
    },
    {
      "channel": 0,
      "note": 59,
      "start": 130.5282,
      "duration": 0.1165,
      "velocity": 102,
      "chip": "ym2612"
    },
    {
      "channel": 1,
      "note": 34,
      "start": 130.5286,
      "duration": 0.1662,
      "velocity": 87,
      "chip": "ym2612"
    },
    {
      "channel": 0,
      "note": 59,
      "start": 130.7118,
      "duration": 0.1162,
      "velocity": 102,
      "chip": "ym2612"
    },
    {
      "channel": 1,
      "note": 34,
      "start": 130.7122,
      "duration": 0.0495,
      "velocity": 87,
      "chip": "ym2612"
    },
    {
      "channel": 1,
      "note": 34,
      "start": 130.7782,
      "duration": 0.0499,
      "velocity": 87,
      "chip": "ym2612"
    },
    {
      "channel": 1,
      "note": 34,
      "start": 130.8449,
      "duration": 0.0332,
      "velocity": 87,
      "chip": "ym2612"
    },
    {
      "channel": 0,
      "note": 59,
      "start": 130.8949,
      "duration": 0.1167,
      "velocity": 102,
      "chip": "ym2612"
    },
    {
      "channel": 1,
      "note": 34,
      "start": 130.8952,
      "duration": 0.1664,
      "velocity": 87,
      "chip": "ym2612"
    },
    {
      "channel": 0,
      "note": 59,
      "start": 131.0782,
      "duration": 0.1165,
      "velocity": 102,
      "chip": "ym2612"
    },
    {
      "channel": 1,
      "note": 34,
      "start": 131.0785,
      "duration": 0.0496,
      "velocity": 87,
      "chip": "ym2612"
    },
    {
      "channel": 1,
      "note": 34,
      "start": 131.1449,
      "duration": 0.0499,
      "velocity": 87,
      "chip": "ym2612"
    },
    {
      "channel": 1,
      "note": 34,
      "start": 131.2118,
      "duration": 0.033,
      "velocity": 87,
      "chip": "ym2612"
    },
    {
      "channel": 0,
      "note": 59,
      "start": 131.2618,
      "duration": 0.1162,
      "velocity": 102,
      "chip": "ym2612"
    },
    {
      "channel": 1,
      "note": 34,
      "start": 131.2622,
      "duration": 0.0659,
      "velocity": 87,
      "chip": "ym2612"
    },
    {
      "channel": 3,
      "note": 52,
      "start": 131.2631,
      "duration": 0.3323,
      "velocity": 96,
      "chip": "ym2612"
    },
    {
      "channel": 4,
      "note": 30,
      "start": 131.2634,
      "duration": 0.699,
      "velocity": 96,
      "chip": "ym2612"
    },
    {
      "channel": 1,
      "note": 34,
      "start": 131.3449,
      "duration": 0.0832,
      "velocity": 87,
      "chip": "ym2612"
    },
    {
      "channel": 0,
      "note": 59,
      "start": 131.4449,
      "duration": 0.1167,
      "velocity": 102,
      "chip": "ym2612"
    },
    {
      "channel": 1,
      "note": 37,
      "start": 131.4452,
      "duration": 0.1664,
      "velocity": 87,
      "chip": "ym2612"
    },
    {
      "channel": 0,
      "note": 59,
      "start": 131.6282,
      "duration": 0.1165,
      "velocity": 102,
      "chip": "ym2612"
    },
    {
      "channel": 1,
      "note": 37,
      "start": 131.6285,
      "duration": 0.0496,
      "velocity": 87,
      "chip": "ym2612"
    },
    {
      "channel": 2,
      "note": 42,
      "start": 131.6288,
      "duration": 0.0994,
      "velocity": 105,
      "chip": "ym2612"
    },
    {
      "channel": 3,
      "note": 54,
      "start": 131.6297,
      "duration": 0.3325,
      "velocity": 96,
      "chip": "ym2612"
    },
    {
      "channel": 1,
      "note": 37,
      "start": 131.6949,
      "duration": 0.0499,
      "velocity": 87,
      "chip": "ym2612"
    },
    {
      "channel": 1,
      "note": 37,
      "start": 131.7618,
      "duration": 0.033,
      "velocity": 87,
      "chip": "ym2612"
    },
    {
      "channel": 0,
      "note": 59,
      "start": 131.8119,
      "duration": 0.1161,
      "velocity": 102,
      "chip": "ym2612"
    },
    {
      "channel": 1,
      "note": 30,
      "start": 131.8123,
      "duration": 0.0658,
      "velocity": 87,
      "chip": "ym2612"
    },
    {
      "channel": 2,
      "note": 47,
      "start": 131.8125,
      "duration": 0.0992,
      "velocity": 105,
      "chip": "ym2612"
    },
    {
      "channel": 1,
      "note": 30,
      "start": 131.8949,
      "duration": 0.0832,
      "velocity": 87,
      "chip": "ym2612"
    },
    {
      "channel": 5,
      "note": 42,
      "start": 131.8958,
      "duration": 0.1011,
      "velocity": 105,
      "chip": "ym2612"
    },
    {
      "channel": 0,
      "note": 57,
      "start": 131.9949,
      "duration": 0.1167,
      "velocity": 102,
      "chip": "ym2612"
    },
    {
      "channel": 1,
      "note": 34,
      "start": 131.9953,
      "duration": 0.1663,
      "velocity": 87,
      "chip": "ym2612"
    },
    {
      "channel": 2,
      "note": 49,
      "start": 131.9956,
      "duration": 2.1162,
      "velocity": 105,
      "chip": "ym2612"
    },
    {
      "channel": 3,
      "note": 52,
      "start": 131.9965,
      "duration": 1.0657,
      "velocity": 96,
      "chip": "ym2612"
    },
    {
      "channel": 4,
      "note": 33,
      "start": 131.9968,
      "duration": 1.4319,
      "velocity": 96,
      "chip": "ym2612"
    },
    {
      "channel": 5,
      "note": 47,
      "start": 132.079,
      "duration": 0.1006,
      "velocity": 105,
      "chip": "ym2612"
    },
    {
      "channel": 0,
      "note": 57,
      "start": 132.1782,
      "duration": 0.1165,
      "velocity": 102,
      "chip": "ym2612"
    },
    {
      "channel": 1,
      "note": 34,
      "start": 132.1785,
      "duration": 0.0496,
      "velocity": 87,
      "chip": "ym2612"
    },
    {
      "channel": 1,
      "note": 30,
      "start": 132.2449,
      "duration": 0.0499,
      "velocity": 87,
      "chip": "ym2612"
    },
    {
      "channel": 5,
      "note": 49,
      "start": 132.2625,
      "duration": 2.1172,
      "velocity": 105,
      "chip": "ym2612"
    },
    {
      "channel": 1,
      "note": 34,
      "start": 132.3118,
      "duration": 0.033,
      "velocity": 87,
      "chip": "ym2612"
    },
    {
      "channel": 0,
      "note": 57,
      "start": 132.3618,
      "duration": 0.1162,
      "velocity": 102,
      "chip": "ym2612"
    },
    {
      "channel": 1,
      "note": 34,
      "start": 132.3621,
      "duration": 0.066,
      "velocity": 87,
      "chip": "ym2612"
    },
    {
      "channel": 1,
      "note": 34,
      "start": 132.4449,
      "duration": 0.0832,
      "velocity": 87,
      "chip": "ym2612"
    },
    {
      "channel": 0,
      "note": 57,
      "start": 132.5449,
      "duration": 0.1167,
      "velocity": 102,
      "chip": "ym2612"
    },
    {
      "channel": 1,
      "note": 30,
      "start": 132.5453,
      "duration": 0.3494,
      "velocity": 87,
      "chip": "ym2612"
    },
    {
      "channel": 0,
      "note": 57,
      "start": 132.7282,
      "duration": 0.1165,
      "velocity": 102,
      "chip": "ym2612"
    },
    {
      "channel": 0,
      "note": 57,
      "start": 132.9118,
      "duration": 0.1162,
      "velocity": 102,
      "chip": "ym2612"
    },
    {
      "channel": 1,
      "note": 30,
      "start": 132.912,
      "duration": 0.166,
      "velocity": 87,
      "chip": "ym2612"
    },
    {
      "channel": 0,
      "note": 57,
      "start": 133.0949,
      "duration": 0.1167,
      "velocity": 102,
      "chip": "ym2612"
    },
    {
      "channel": 1,
      "note": 34,
      "start": 133.0952,
      "duration": 0.1664,
      "velocity": 87,
      "chip": "ym2612"
    },
    {
      "channel": 3,
      "note": 45,
      "start": 133.0962,
      "duration": 0.3324,
      "velocity": 96,
      "chip": "ym2612"
    },
    {
      "channel": 0,
      "note": 57,
      "start": 133.2783,
      "duration": 0.1164,
      "velocity": 102,
      "chip": "ym2612"
    },
    {
      "channel": 1,
      "note": 34,
      "start": 133.2786,
      "duration": 0.0495,
      "velocity": 87,
      "chip": "ym2612"
    },
    {
      "channel": 1,
      "note": 34,
      "start": 133.3449,
      "duration": 0.0499,
      "velocity": 87,
      "chip": "ym2612"
    },
    {
      "channel": 1,
      "note": 34,
      "start": 133.4118,
      "duration": 0.033,
      "velocity": 87,
      "chip": "ym2612"
    },
    {
      "channel": 0,
      "note": 54,
      "start": 133.4618,
      "duration": 0.1162,
      "velocity": 102,
      "chip": "ym2612"
    },
    {
      "channel": 1,
      "note": 34,
      "start": 133.4622,
      "duration": 0.1659,
      "velocity": 87,
      "chip": "ym2612"
    },
    {
      "channel": 3,
      "note": 54,
      "start": 133.4632,
      "duration": 1.4322,
      "velocity": 96,
      "chip": "ym2612"
    },
    {
      "channel": 4,
      "note": 30,
      "start": 133.4635,
      "duration": 1.4319,
      "velocity": 96,
      "chip": "ym2612"
    },
    {
      "channel": 0,
      "note": 54,
      "start": 133.6449,
      "duration": 0.1167,
      "velocity": 102,
      "chip": "ym2612"
    },
    {
      "channel": 1,
      "note": 34,
      "start": 133.6452,
      "duration": 0.0495,
      "velocity": 87,
      "chip": "ym2612"
    },
    {
      "channel": 1,
      "note": 34,
      "start": 133.7118,
      "duration": 0.0499,
      "velocity": 87,
      "chip": "ym2612"
    },
    {
      "channel": 1,
      "note": 34,
      "start": 133.7783,
      "duration": 0.0334,
      "velocity": 87,
      "chip": "ym2612"
    },
    {
      "channel": 0,
      "note": 54,
      "start": 133.8282,
      "duration": 0.1165,
      "velocity": 102,
      "chip": "ym2612"
    },
    {
      "channel": 1,
      "note": 34,
      "start": 133.8286,
      "duration": 0.1662,
      "velocity": 87,
      "chip": "ym2612"
    },
    {
      "channel": 0,
      "note": 54,
      "start": 134.0118,
      "duration": 0.1162,
      "velocity": 102,
      "chip": "ym2612"
    },
    {
      "channel": 1,
      "note": 34,
      "start": 134.0122,
      "duration": 0.0495,
      "velocity": 87,
      "chip": "ym2612"
    },
    {
      "channel": 1,
      "note": 34,
      "start": 134.0782,
      "duration": 0.0499,
      "velocity": 87,
      "chip": "ym2612"
    },
    {
      "channel": 1,
      "note": 34,
      "start": 134.1449,
      "duration": 0.0332,
      "velocity": 87,
      "chip": "ym2612"
    },
    {
      "channel": 0,
      "note": 54,
      "start": 134.1949,
      "duration": 0.1167,
      "velocity": 102,
      "chip": "ym2612"
    },
    {
      "channel": 1,
      "note": 34,
      "start": 134.1952,
      "duration": 0.0664,
      "velocity": 87,
      "chip": "ym2612"
    },
    {
      "channel": 2,
      "note": 47,
      "start": 134.1955,
      "duration": 0.2827,
      "velocity": 105,
      "chip": "ym2612"
    },
    {
      "channel": 1,
      "note": 34,
      "start": 134.2782,
      "duration": 0.0835,
      "velocity": 87,
      "chip": "ym2612"
    },
    {
      "channel": 0,
      "note": 54,
      "start": 134.3783,
      "duration": 0.1164,
      "velocity": 102,
      "chip": "ym2612"
    },
    {
      "channel": 1,
      "note": 37,
      "start": 134.3786,
      "duration": 0.1662,
      "velocity": 87,
      "chip": "ym2612"
    },
    {
      "channel": 5,
      "note": 47,
      "start": 134.4625,
      "duration": 0.2838,
      "velocity": 105,
      "chip": "ym2612"
    },
    {
      "channel": 0,
      "note": 54,
      "start": 134.5618,
      "duration": 0.1162,
      "velocity": 102,
      "chip": "ym2612"
    },
    {
      "channel": 1,
      "note": 37,
      "start": 134.5622,
      "duration": 0.0495,
      "velocity": 87,
      "chip": "ym2612"
    },
    {
      "channel": 2,
      "note": 45,
      "start": 134.5624,
      "duration": 0.2824,
      "velocity": 105,
      "chip": "ym2612"
    },
    {
      "channel": 1,
      "note": 37,
      "start": 134.6282,
      "duration": 0.0499,
      "velocity": 87,
      "chip": "ym2612"
    },
    {
      "channel": 1,
      "note": 37,
      "start": 134.6949,
      "duration": 0.0332,
      "velocity": 87,
      "chip": "ym2612"
    },
    {
      "channel": 0,
      "note": 54,
      "start": 134.7449,
      "duration": 0.1167,
      "velocity": 102,
      "chip": "ym2612"
    },
    {
      "channel": 1,
      "note": 30,
      "start": 134.7452,
      "duration": 0.0664,
      "velocity": 87,
      "chip": "ym2612"
    },
    {
      "channel": 1,
      "note": 30,
      "start": 134.8283,
      "duration": 0.0834,
      "velocity": 87,
      "chip": "ym2612"
    },
    {
      "channel": 5,
      "note": 45,
      "start": 134.8291,
      "duration": 0.2844,
      "velocity": 105,
      "chip": "ym2612"
    },
    {
      "channel": 0,
      "note": 47,
      "start": 134.9283,
      "duration": 0.1163,
      "velocity": 102,
      "chip": "ym2612"
    },
    {
      "channel": 1,
      "note": 34,
      "start": 134.9287,
      "duration": 0.166,
      "velocity": 87,
      "chip": "ym2612"
    },
    {
      "channel": 2,
      "note": 47,
      "start": 134.929,
      "duration": 11.6492,
      "velocity": 105,
      "chip": "ym2612"
    },
    {
      "channel": 3,
      "note": 71,
      "start": 134.931,
      "duration": 0.1311,
      "velocity": 127,
      "chip": "ym2612"
    },
    {
      "channel": 4,
      "note": 66,
      "start": 134.9324,
      "duration": 0.1298,
      "velocity": 127,
      "chip": "ym2612"
    },
    {
      "channel": 0,
      "note": 47,
      "start": 135.1118,
      "duration": 0.1162,
      "velocity": 102,
      "chip": "ym2612"
    },
    {
      "channel": 1,
      "note": 34,
      "start": 135.1121,
      "duration": 0.0496,
      "velocity": 87,
      "chip": "ym2612"
    },
    {
      "channel": 3,
      "note": 71,
      "start": 135.1131,
      "duration": 0.1323,
      "velocity": 127,
      "chip": "ym2612"
    },
    {
      "channel": 4,
      "note": 66,
      "start": 135.1134,
      "duration": 0.1321,
      "velocity": 127,
      "chip": "ym2612"
    },
    {
      "channel": 1,
      "note": 30,
      "start": 135.1782,
      "duration": 0.0499,
      "velocity": 87,
      "chip": "ym2612"
    },
    {
      "channel": 5,
      "note": 47,
      "start": 135.1957,
      "duration": 11.6507,
      "velocity": 105,
      "chip": "ym2612"
    },
    {
      "channel": 1,
      "note": 34,
      "start": 135.2449,
      "duration": 0.0332,
      "velocity": 87,
      "chip": "ym2612"
    },
    {
      "channel": 0,
      "note": 47,
      "start": 135.2949,
      "duration": 0.1167,
      "velocity": 102,
      "chip": "ym2612"
    },
    {
      "channel": 1,
      "note": 34,
      "start": 135.2952,
      "duration": 0.0664,
      "velocity": 87,
      "chip": "ym2612"
    },
    {
      "channel": 3,
      "note": 71,
      "start": 135.2963,
      "duration": 0.1322,
      "velocity": 127,
      "chip": "ym2612"
    },
    {
      "channel": 4,
      "note": 66,
      "start": 135.2967,
      "duration": 0.132,
      "velocity": 127,
      "chip": "ym2612"
    },
    {
      "channel": 1,
      "note": 34,
      "start": 135.3782,
      "duration": 0.0835,
      "velocity": 87,
      "chip": "ym2612"
    },
    {
      "channel": 0,
      "note": 47,
      "start": 135.4783,
      "duration": 0.1164,
      "velocity": 102,
      "chip": "ym2612"
    },
    {
      "channel": 1,
      "note": 30,
      "start": 135.4786,
      "duration": 0.3494,
      "velocity": 87,
      "chip": "ym2612"
    },
    {
      "channel": 3,
      "note": 71,
      "start": 135.4796,
      "duration": 0.1326,
      "velocity": 127,
      "chip": "ym2612"
    },
    {
      "channel": 4,
      "note": 66,
      "start": 135.4799,
      "duration": 0.1323,
      "velocity": 127,
      "chip": "ym2612"
    },
    {
      "channel": 0,
      "note": 47,
      "start": 135.6618,
      "duration": 0.1162,
      "velocity": 102,
      "chip": "ym2612"
    },
    {
      "channel": 3,
      "note": 71,
      "start": 135.6627,
      "duration": 0.1325,
      "velocity": 127,
      "chip": "ym2612"
    },
    {
      "channel": 4,
      "note": 66,
      "start": 135.6631,
      "duration": 0.1322,
      "velocity": 127,
      "chip": "ym2612"
    },
    {
      "channel": 0,
      "note": 47,
      "start": 135.8449,
      "duration": 0.1167,
      "velocity": 102,
      "chip": "ym2612"
    },
    {
      "channel": 1,
      "note": 30,
      "start": 135.8451,
      "duration": 0.1666,
      "velocity": 87,
      "chip": "ym2612"
    },
    {
      "channel": 3,
      "note": 71,
      "start": 135.8459,
      "duration": 0.1326,
      "velocity": 127,
      "chip": "ym2612"
    },
    {
      "channel": 4,
      "note": 66,
      "start": 135.8463,
      "duration": 0.1323,
      "velocity": 127,
      "chip": "ym2612"
    },
    {
      "channel": 0,
      "note": 47,
      "start": 136.0283,
      "duration": 0.1164,
      "velocity": 102,
      "chip": "ym2612"
    },
    {
      "channel": 1,
      "note": 34,
      "start": 136.0286,
      "duration": 0.1662,
      "velocity": 87,
      "chip": "ym2612"
    },
    {
      "channel": 3,
      "note": 69,
      "start": 136.0293,
      "duration": 0.1327,
      "velocity": 127,
      "chip": "ym2612"
    },
    {
      "channel": 4,
      "note": 64,
      "start": 136.0297,
      "duration": 0.1324,
      "velocity": 127,
      "chip": "ym2612"
    },
    {
      "channel": 0,
      "note": 47,
      "start": 136.2118,
      "duration": 0.1162,
      "velocity": 102,
      "chip": "ym2612"
    },
    {
      "channel": 1,
      "note": 34,
      "start": 136.2121,
      "duration": 0.0496,
      "velocity": 87,
      "chip": "ym2612"
    },
    {
      "channel": 3,
      "note": 69,
      "start": 136.2128,
      "duration": 0.1326,
      "velocity": 127,
      "chip": "ym2612"
    },
    {
      "channel": 4,
      "note": 64,
      "start": 136.2131,
      "duration": 0.1323,
      "velocity": 127,
      "chip": "ym2612"
    },
    {
      "channel": 1,
      "note": 34,
      "start": 136.2782,
      "duration": 0.0499,
      "velocity": 87,
      "chip": "ym2612"
    },
    {
      "channel": 1,
      "note": 34,
      "start": 136.3449,
      "duration": 0.0332,
      "velocity": 87,
      "chip": "ym2612"
    },
    {
      "channel": 0,
      "note": 47,
      "start": 136.3949,
      "duration": 0.1167,
      "velocity": 102,
      "chip": "ym2612"
    },
    {
      "channel": 1,
      "note": 34,
      "start": 136.3952,
      "duration": 0.1664,
      "velocity": 87,
      "chip": "ym2612"
    },
    {
      "channel": 3,
      "note": 69,
      "start": 136.3963,
      "duration": 0.1322,
      "velocity": 127,
      "chip": "ym2612"
    },
    {
      "channel": 4,
      "note": 64,
      "start": 136.3967,
      "duration": 0.132,
      "velocity": 127,
      "chip": "ym2612"
    },
    {
      "channel": 0,
      "note": 47,
      "start": 136.5783,
      "duration": 0.1164,
      "velocity": 102,
      "chip": "ym2612"
    },
    {
      "channel": 1,
      "note": 34,
      "start": 136.5786,
      "duration": 0.0495,
      "velocity": 87,
      "chip": "ym2612"
    },
    {
      "channel": 3,
      "note": 71,
      "start": 136.5793,
      "duration": 0.1329,
      "velocity": 127,
      "chip": "ym2612"
    },
    {
      "channel": 4,
      "note": 66,
      "start": 136.5797,
      "duration": 0.1326,
      "velocity": 127,
      "chip": "ym2612"
    },
    {
      "channel": 1,
      "note": 34,
      "start": 136.6449,
      "duration": 0.0499,
      "velocity": 87,
      "chip": "ym2612"
    },
    {
      "channel": 1,
      "note": 34,
      "start": 136.7118,
      "duration": 0.033,
      "velocity": 87,
      "chip": "ym2612"
    },
    {
      "channel": 0,
      "note": 47,
      "start": 136.7618,
      "duration": 0.1162,
      "velocity": 102,
      "chip": "ym2612"
    },
    {
      "channel": 1,
      "note": 34,
      "start": 136.7622,
      "duration": 0.1659,
      "velocity": 87,
      "chip": "ym2612"
    },
    {
      "channel": 3,
      "note": 71,
      "start": 136.7631,
      "duration": 0.1321,
      "velocity": 127,
      "chip": "ym2612"
    },
    {
      "channel": 4,
      "note": 66,
      "start": 136.7635,
      "duration": 0.1319,
      "velocity": 127,
      "chip": "ym2612"
    },
    {
      "channel": 0,
      "note": 47,
      "start": 136.9449,
      "duration": 0.1167,
      "velocity": 102,
      "chip": "ym2612"
    },
    {
      "channel": 1,
      "note": 34,
      "start": 136.9452,
      "duration": 0.0495,
      "velocity": 87,
      "chip": "ym2612"
    },
    {
      "channel": 3,
      "note": 71,
      "start": 136.9461,
      "duration": 0.1326,
      "velocity": 127,
      "chip": "ym2612"
    },
    {
      "channel": 4,
      "note": 66,
      "start": 136.9465,
      "duration": 0.1323,
      "velocity": 127,
      "chip": "ym2612"
    },
    {
      "channel": 1,
      "note": 34,
      "start": 137.0118,
      "duration": 0.0499,
      "velocity": 87,
      "chip": "ym2612"
    },
    {
      "channel": 1,
      "note": 34,
      "start": 137.0782,
      "duration": 0.0335,
      "velocity": 87,
      "chip": "ym2612"
    },
    {
      "channel": 0,
      "note": 47,
      "start": 137.1283,
      "duration": 0.1164,
      "velocity": 102,
      "chip": "ym2612"
    },
    {
      "channel": 1,
      "note": 34,
      "start": 137.1286,
      "duration": 0.0662,
      "velocity": 87,
      "chip": "ym2612"
    },
    {
      "channel": 3,
      "note": 71,
      "start": 137.1294,
      "duration": 0.1327,
      "velocity": 127,
      "chip": "ym2612"
    },
    {
      "channel": 4,
      "note": 66,
      "start": 137.1297,
      "duration": 0.1325,
      "velocity": 127,
      "chip": "ym2612"
    },
    {
      "channel": 1,
      "note": 34,
      "start": 137.2118,
      "duration": 0.083,
      "velocity": 87,
      "chip": "ym2612"
    },
    {
      "channel": 0,
      "note": 47,
      "start": 137.3118,
      "duration": 0.1162,
      "velocity": 102,
      "chip": "ym2612"
    },
    {
      "channel": 1,
      "note": 37,
      "start": 137.3122,
      "duration": 0.1659,
      "velocity": 87,
      "chip": "ym2612"
    },
    {
      "channel": 3,
      "note": 71,
      "start": 137.313,
      "duration": 0.1322,
      "velocity": 127,
      "chip": "ym2612"
    },
    {
      "channel": 4,
      "note": 66,
      "start": 137.3134,
      "duration": 0.1319,
      "velocity": 127,
      "chip": "ym2612"
    },
    {
      "channel": 0,
      "note": 47,
      "start": 137.4949,
      "duration": 0.1167,
      "velocity": 102,
      "chip": "ym2612"
    },
    {
      "channel": 1,
      "note": 37,
      "start": 137.4952,
      "duration": 0.0496,
      "velocity": 87,
      "chip": "ym2612"
    },
    {
      "channel": 3,
      "note": 69,
      "start": 137.4959,
      "duration": 0.1327,
      "velocity": 127,
      "chip": "ym2612"
    },
    {
      "channel": 4,
      "note": 64,
      "start": 137.4963,
      "duration": 0.1325,
      "velocity": 127,
      "chip": "ym2612"
    },
    {
      "channel": 1,
      "note": 37,
      "start": 137.5618,
      "duration": 0.0499,
      "velocity": 87,
      "chip": "ym2612"
    },
    {
      "channel": 1,
      "note": 37,
      "start": 137.6282,
      "duration": 0.0335,
      "velocity": 87,
      "chip": "ym2612"
    },
    {
      "channel": 0,
      "note": 47,
      "start": 137.6783,
      "duration": 0.1163,
      "velocity": 102,
      "chip": "ym2612"
    },
    {
      "channel": 1,
      "note": 30,
      "start": 137.6787,
      "duration": 0.066,
      "velocity": 87,
      "chip": "ym2612"
    },
    {
      "channel": 3,
      "note": 69,
      "start": 137.6794,
      "duration": 0.1327,
      "velocity": 127,
      "chip": "ym2612"
    },
    {
      "channel": 4,
      "note": 64,
      "start": 137.6797,
      "duration": 0.1325,
      "velocity": 127,
      "chip": "ym2612"
    },
    {
      "channel": 1,
      "note": 30,
      "start": 137.7618,
      "duration": 0.0829,
      "velocity": 87,
      "chip": "ym2612"
    },
    {
      "channel": 0,
      "note": 49,
      "start": 137.8618,
      "duration": 0.1162,
      "velocity": 102,
      "chip": "ym2612"
    },
    {
      "channel": 1,
      "note": 34,
      "start": 137.8622,
      "duration": 0.1659,
      "velocity": 87,
      "chip": "ym2612"
    },
    {
      "channel": 3,
      "note": 71,
      "start": 137.8634,
      "duration": 0.1319,
      "velocity": 127,
      "chip": "ym2612"
    },
    {
      "channel": 4,
      "note": 66,
      "start": 137.8637,
      "duration": 0.1316,
      "velocity": 127,
      "chip": "ym2612"
    },
    {
      "channel": 0,
      "note": 49,
      "start": 138.0449,
      "duration": 0.1167,
      "velocity": 102,
      "chip": "ym2612"
    },
    {
      "channel": 1,
      "note": 34,
      "start": 138.0452,
      "duration": 0.0495,
      "velocity": 87,
      "chip": "ym2612"
    },
    {
      "channel": 3,
      "note": 71,
      "start": 138.046,
      "duration": 0.1327,
      "velocity": 127,
      "chip": "ym2612"
    },
    {
      "channel": 4,
      "note": 66,
      "start": 138.0463,
      "duration": 0.1325,
      "velocity": 127,
      "chip": "ym2612"
    },
    {
      "channel": 1,
      "note": 30,
      "start": 138.1118,
      "duration": 0.0499,
      "velocity": 87,
      "chip": "ym2612"
    },
    {
      "channel": 1,
      "note": 34,
      "start": 138.1782,
      "duration": 0.0335,
      "velocity": 87,
      "chip": "ym2612"
    },
    {
      "channel": 0,
      "note": 49,
      "start": 138.2282,
      "duration": 0.1165,
      "velocity": 102,
      "chip": "ym2612"
    },
    {
      "channel": 1,
      "note": 34,
      "start": 138.2285,
      "duration": 0.0662,
      "velocity": 87,
      "chip": "ym2612"
    },
    {
      "channel": 3,
      "note": 71,
      "start": 138.2296,
      "duration": 0.1326,
      "velocity": 127,
      "chip": "ym2612"
    },
    {
      "channel": 4,
      "note": 66,
      "start": 138.23,
      "duration": 0.1322,
      "velocity": 127,
      "chip": "ym2612"
    },
    {
      "channel": 1,
      "note": 34,
      "start": 138.3118,
      "duration": 0.083,
      "velocity": 87,
      "chip": "ym2612"
    },
    {
      "channel": 0,
      "note": 49,
      "start": 138.4118,
      "duration": 0.1162,
      "velocity": 102,
      "chip": "ym2612"
    },
    {
      "channel": 1,
      "note": 30,
      "start": 138.4122,
      "duration": 0.3495,
      "velocity": 87,
      "chip": "ym2612"
    },
    {
      "channel": 3,
      "note": 71,
      "start": 138.4132,
      "duration": 0.1321,
      "velocity": 127,
      "chip": "ym2612"
    },
    {
      "channel": 4,
      "note": 66,
      "start": 138.4135,
      "duration": 0.1319,
      "velocity": 127,
      "chip": "ym2612"
    },
    {
      "channel": 0,
      "note": 49,
      "start": 138.5949,
      "duration": 0.1167,
      "velocity": 102,
      "chip": "ym2612"
    },
    {
      "channel": 3,
      "note": 71,
      "start": 138.5958,
      "duration": 0.1328,
      "velocity": 127,
      "chip": "ym2612"
    },
    {
      "channel": 4,
      "note": 66,
      "start": 138.5962,
      "duration": 0.1324,
      "velocity": 127,
      "chip": "ym2612"
    },
    {
      "channel": 0,
      "note": 49,
      "start": 138.7783,
      "duration": 0.1164,
      "velocity": 102,
      "chip": "ym2612"
    },
    {
      "channel": 1,
      "note": 30,
      "start": 138.7784,
      "duration": 0.1663,
      "velocity": 87,
      "chip": "ym2612"
    },
    {
      "channel": 3,
      "note": 71,
      "start": 138.7793,
      "duration": 0.1327,
      "velocity": 127,
      "chip": "ym2612"
    },
    {
      "channel": 4,
      "note": 66,
      "start": 138.7797,
      "duration": 0.1326,
      "velocity": 127,
      "chip": "ym2612"
    },
    {
      "channel": 0,
      "note": 49,
      "start": 138.9618,
      "duration": 0.1162,
      "velocity": 102,
      "chip": "ym2612"
    },
    {
      "channel": 1,
      "note": 34,
      "start": 138.9622,
      "duration": 0.1659,
      "velocity": 87,
      "chip": "ym2612"
    },
    {
      "channel": 3,
      "note": 69,
      "start": 138.9629,
      "duration": 0.1323,
      "velocity": 127,
      "chip": "ym2612"
    },
    {
      "channel": 4,
      "note": 64,
      "start": 138.9632,
      "duration": 0.1321,
      "velocity": 127,
      "chip": "ym2612"
    },
    {
      "channel": 0,
      "note": 49,
      "start": 139.1449,
      "duration": 0.1167,
      "velocity": 102,
      "chip": "ym2612"
    },
    {
      "channel": 1,
      "note": 34,
      "start": 139.1452,
      "duration": 0.0495,
      "velocity": 87,
      "chip": "ym2612"
    },
    {
      "channel": 3,
      "note": 69,
      "start": 139.1459,
      "duration": 0.1328,
      "velocity": 127,
      "chip": "ym2612"
    },
    {
      "channel": 4,
      "note": 64,
      "start": 139.1463,
      "duration": 0.1325,
      "velocity": 127,
      "chip": "ym2612"
    },
    {
      "channel": 1,
      "note": 34,
      "start": 139.2118,
      "duration": 0.0499,
      "velocity": 87,
      "chip": "ym2612"
    },
    {
      "channel": 1,
      "note": 34,
      "start": 139.2783,
      "duration": 0.0334,
      "velocity": 87,
      "chip": "ym2612"
    },
    {
      "channel": 0,
      "note": 49,
      "start": 139.3283,
      "duration": 0.1164,
      "velocity": 102,
      "chip": "ym2612"
    },
    {
      "channel": 1,
      "note": 34,
      "start": 139.3286,
      "duration": 0.1662,
      "velocity": 87,
      "chip": "ym2612"
    },
    {
      "channel": 3,
      "note": 69,
      "start": 139.3297,
      "duration": 0.1325,
      "velocity": 127,
      "chip": "ym2612"
    },
    {
      "channel": 4,
      "note": 64,
      "start": 139.33,
      "duration": 0.1322,
      "velocity": 127,
      "chip": "ym2612"
    },
    {
      "channel": 0,
      "note": 49,
      "start": 139.5118,
      "duration": 0.1162,
      "velocity": 102,
      "chip": "ym2612"
    },
    {
      "channel": 1,
      "note": 34,
      "start": 139.5122,
      "duration": 0.0495,
      "velocity": 87,
      "chip": "ym2612"
    },
    {
      "channel": 3,
      "note": 71,
      "start": 139.5129,
      "duration": 0.1324,
      "velocity": 127,
      "chip": "ym2612"
    },
    {
      "channel": 4,
      "note": 66,
      "start": 139.5132,
      "duration": 0.1322,
      "velocity": 127,
      "chip": "ym2612"
    },
    {
      "channel": 1,
      "note": 34,
      "start": 139.5782,
      "duration": 0.0499,
      "velocity": 87,
      "chip": "ym2612"
    },
    {
      "channel": 1,
      "note": 34,
      "start": 139.6449,
      "duration": 0.0332,
      "velocity": 87,
      "chip": "ym2612"
    },
    {
      "channel": 0,
      "note": 49,
      "start": 139.6949,
      "duration": 0.1167,
      "velocity": 102,
      "chip": "ym2612"
    },
    {
      "channel": 1,
      "note": 34,
      "start": 139.6952,
      "duration": 0.1664,
      "velocity": 87,
      "chip": "ym2612"
    },
    {
      "channel": 3,
      "note": 71,
      "start": 139.6962,
      "duration": 0.1324,
      "velocity": 127,
      "chip": "ym2612"
    },
    {
      "channel": 4,
      "note": 66,
      "start": 139.6966,
      "duration": 0.1321,
      "velocity": 127,
      "chip": "ym2612"
    },
    {
      "channel": 0,
      "note": 49,
      "start": 139.8782,
      "duration": 0.1165,
      "velocity": 102,
      "chip": "ym2612"
    },
    {
      "channel": 1,
      "note": 34,
      "start": 139.8785,
      "duration": 0.0496,
      "velocity": 87,
      "chip": "ym2612"
    },
    {
      "channel": 3,
      "note": 71,
      "start": 139.8795,
      "duration": 0.1328,
      "velocity": 127,
      "chip": "ym2612"
    },
    {
      "channel": 4,
      "note": 66,
      "start": 139.8798,
      "duration": 0.1325,
      "velocity": 127,
      "chip": "ym2612"
    },
    {
      "channel": 1,
      "note": 34,
      "start": 139.9449,
      "duration": 0.0499,
      "velocity": 87,
      "chip": "ym2612"
    },
    {
      "channel": 1,
      "note": 34,
      "start": 140.0118,
      "duration": 0.033,
      "velocity": 87,
      "chip": "ym2612"
    },
    {
      "channel": 0,
      "note": 49,
      "start": 140.0618,
      "duration": 0.1162,
      "velocity": 102,
      "chip": "ym2612"
    },
    {
      "channel": 1,
      "note": 34,
      "start": 140.0622,
      "duration": 0.0659,
      "velocity": 87,
      "chip": "ym2612"
    },
    {
      "channel": 3,
      "note": 71,
      "start": 140.063,
      "duration": 0.1322,
      "velocity": 127,
      "chip": "ym2612"
    },
    {
      "channel": 4,
      "note": 66,
      "start": 140.0633,
      "duration": 0.132,
      "velocity": 127,
      "chip": "ym2612"
    },
    {
      "channel": 1,
      "note": 34,
      "start": 140.1449,
      "duration": 0.0832,
      "velocity": 87,
      "chip": "ym2612"
    },
    {
      "channel": 0,
      "note": 49,
      "start": 140.2449,
      "duration": 0.1167,
      "velocity": 102,
      "chip": "ym2612"
    },
    {
      "channel": 1,
      "note": 37,
      "start": 140.2452,
      "duration": 0.1664,
      "velocity": 87,
      "chip": "ym2612"
    },
    {
      "channel": 3,
      "note": 71,
      "start": 140.2461,
      "duration": 0.1324,
      "velocity": 127,
      "chip": "ym2612"
    },
    {
      "channel": 4,
      "note": 66,
      "start": 140.2465,
      "duration": 0.1321,
      "velocity": 127,
      "chip": "ym2612"
    },
    {
      "channel": 0,
      "note": 49,
      "start": 140.4283,
      "duration": 0.1164,
      "velocity": 102,
      "chip": "ym2612"
    },
    {
      "channel": 1,
      "note": 37,
      "start": 140.4286,
      "duration": 0.0495,
      "velocity": 87,
      "chip": "ym2612"
    },
    {
      "channel": 3,
      "note": 69,
      "start": 140.4293,
      "duration": 0.1329,
      "velocity": 127,
      "chip": "ym2612"
    },
    {
      "channel": 4,
      "note": 64,
      "start": 140.4296,
      "duration": 0.1327,
      "velocity": 127,
      "chip": "ym2612"
    },
    {
      "channel": 1,
      "note": 37,
      "start": 140.4949,
      "duration": 0.0499,
      "velocity": 87,
      "chip": "ym2612"
    },
    {
      "channel": 1,
      "note": 37,
      "start": 140.5618,
      "duration": 0.033,
      "velocity": 87,
      "chip": "ym2612"
    },
    {
      "channel": 0,
      "note": 49,
      "start": 140.6119,
      "duration": 0.1161,
      "velocity": 102,
      "chip": "ym2612"
    },
    {
      "channel": 1,
      "note": 30,
      "start": 140.6123,
      "duration": 0.0658,
      "velocity": 87,
      "chip": "ym2612"
    },
    {
      "channel": 3,
      "note": 69,
      "start": 140.613,
      "duration": 0.1322,
      "velocity": 127,
      "chip": "ym2612"
    },
    {
      "channel": 4,
      "note": 64,
      "start": 140.6133,
      "duration": 0.132,
      "velocity": 127,
      "chip": "ym2612"
    },
    {
      "channel": 1,
      "note": 30,
      "start": 140.6949,
      "duration": 0.0832,
      "velocity": 87,
      "chip": "ym2612"
    },
    {
      "channel": 0,
      "note": 50,
      "start": 140.7949,
      "duration": 0.1167,
      "velocity": 102,
      "chip": "ym2612"
    },
    {
      "channel": 1,
      "note": 34,
      "start": 140.7952,
      "duration": 0.1664,
      "velocity": 87,
      "chip": "ym2612"
    },
    {
      "channel": 3,
      "note": 71,
      "start": 140.7964,
      "duration": 0.1321,
      "velocity": 127,
      "chip": "ym2612"
    },
    {
      "channel": 4,
      "note": 66,
      "start": 140.7968,
      "duration": 0.1319,
      "velocity": 127,
      "chip": "ym2612"
    },
    {
      "channel": 0,
      "note": 50,
      "start": 140.9782,
      "duration": 0.1165,
      "velocity": 102,
      "chip": "ym2612"
    },
    {
      "channel": 1,
      "note": 34,
      "start": 140.9785,
      "duration": 0.0496,
      "velocity": 87,
      "chip": "ym2612"
    },
    {
      "channel": 3,
      "note": 71,
      "start": 140.9793,
      "duration": 0.1329,
      "velocity": 127,
      "chip": "ym2612"
    },
    {
      "channel": 4,
      "note": 66,
      "start": 140.9797,
      "duration": 0.1328,
      "velocity": 127,
      "chip": "ym2612"
    },
    {
      "channel": 1,
      "note": 30,
      "start": 141.0449,
      "duration": 0.0499,
      "velocity": 87,
      "chip": "ym2612"
    },
    {
      "channel": 1,
      "note": 34,
      "start": 141.1118,
      "duration": 0.033,
      "velocity": 87,
      "chip": "ym2612"
    },
    {
      "channel": 0,
      "note": 50,
      "start": 141.1618,
      "duration": 0.1162,
      "velocity": 102,
      "chip": "ym2612"
    },
    {
      "channel": 1,
      "note": 34,
      "start": 141.1621,
      "duration": 0.066,
      "velocity": 87,
      "chip": "ym2612"
    },
    {
      "channel": 3,
      "note": 71,
      "start": 141.1632,
      "duration": 0.1321,
      "velocity": 127,
      "chip": "ym2612"
    },
    {
      "channel": 4,
      "note": 66,
      "start": 141.1635,
      "duration": 0.1319,
      "velocity": 127,
      "chip": "ym2612"
    },
    {
      "channel": 1,
      "note": 34,
      "start": 141.2449,
      "duration": 0.0832,
      "velocity": 87,
      "chip": "ym2612"
    },
    {
      "channel": 0,
      "note": 50,
      "start": 141.3449,
      "duration": 0.1167,
      "velocity": 102,
      "chip": "ym2612"
    },
    {
      "channel": 1,
      "note": 30,
      "start": 141.3453,
      "duration": 0.3494,
      "velocity": 87,
      "chip": "ym2612"
    },
    {
      "channel": 3,
      "note": 71,
      "start": 141.3463,
      "duration": 0.1323,
      "velocity": 127,
      "chip": "ym2612"
    },
    {
      "channel": 4,
      "note": 66,
      "start": 141.3466,
      "duration": 0.1321,
      "velocity": 127,
      "chip": "ym2612"
    },
    {
      "channel": 0,
      "note": 50,
      "start": 141.5283,
      "duration": 0.1164,
      "velocity": 102,
      "chip": "ym2612"
    },
    {
      "channel": 3,
      "note": 71,
      "start": 141.5292,
      "duration": 0.1329,
      "velocity": 127,
      "chip": "ym2612"
    },
    {
      "channel": 4,
      "note": 66,
      "start": 141.5295,
      "duration": 0.1327,
      "velocity": 127,
      "chip": "ym2612"
    },
    {
      "channel": 0,
      "note": 50,
      "start": 141.7118,
      "duration": 0.1162,
      "velocity": 102,
      "chip": "ym2612"
    },
    {
      "channel": 1,
      "note": 30,
      "start": 141.712,
      "duration": 0.166,
      "velocity": 87,
      "chip": "ym2612"
    },
    {
      "channel": 3,
      "note": 71,
      "start": 141.7129,
      "duration": 0.1324,
      "velocity": 127,
      "chip": "ym2612"
    },
    {
      "channel": 4,
      "note": 66,
      "start": 141.7132,
      "duration": 0.1321,
      "velocity": 127,
      "chip": "ym2612"
    },
    {
      "channel": 0,
      "note": 50,
      "start": 141.8949,
      "duration": 0.1167,
      "velocity": 102,
      "chip": "ym2612"
    },
    {
      "channel": 1,
      "note": 34,
      "start": 141.8952,
      "duration": 0.1664,
      "velocity": 87,
      "chip": "ym2612"
    },
    {
      "channel": 3,
      "note": 69,
      "start": 141.896,
      "duration": 0.1325,
      "velocity": 127,
      "chip": "ym2612"
    },
    {
      "channel": 4,
      "note": 64,
      "start": 141.8963,
      "duration": 0.1323,
      "velocity": 127,
      "chip": "ym2612"
    },
    {
      "channel": 0,
      "note": 50,
      "start": 142.0783,
      "duration": 0.1164,
      "velocity": 102,
      "chip": "ym2612"
    },
    {
      "channel": 1,
      "note": 34,
      "start": 142.0786,
      "duration": 0.0495,
      "velocity": 87,
      "chip": "ym2612"
    },
    {
      "channel": 3,
      "note": 69,
      "start": 142.0792,
      "duration": 0.1331,
      "velocity": 127,
      "chip": "ym2612"
    },
    {
      "channel": 4,
      "note": 64,
      "start": 142.0796,
      "duration": 0.1328,
      "velocity": 127,
      "chip": "ym2612"
    },
    {
      "channel": 1,
      "note": 34,
      "start": 142.1449,
      "duration": 0.0499,
      "velocity": 87,
      "chip": "ym2612"
    },
    {
      "channel": 1,
      "note": 34,
      "start": 142.2118,
      "duration": 0.033,
      "velocity": 87,
      "chip": "ym2612"
    },
    {
      "channel": 0,
      "note": 50,
      "start": 142.2618,
      "duration": 0.1162,
      "velocity": 102,
      "chip": "ym2612"
    },
    {
      "channel": 1,
      "note": 34,
      "start": 142.2622,
      "duration": 0.1659,
      "velocity": 87,
      "chip": "ym2612"
    },
    {
      "channel": 3,
      "note": 69,
      "start": 142.2632,
      "duration": 0.132,
      "velocity": 127,
      "chip": "ym2612"
    },
    {
      "channel": 4,
      "note": 64,
      "start": 142.2636,
      "duration": 0.1318,
      "velocity": 127,
      "chip": "ym2612"
    },
    {
      "channel": 0,
      "note": 50,
      "start": 142.4449,
      "duration": 0.1167,
      "velocity": 102,
      "chip": "ym2612"
    },
    {
      "channel": 1,
      "note": 34,
      "start": 142.4452,
      "duration": 0.0495,
      "velocity": 87,
      "chip": "ym2612"
    },
    {
      "channel": 3,
      "note": 71,
      "start": 142.446,
      "duration": 0.1327,
      "velocity": 127,
      "chip": "ym2612"
    },
    {
      "channel": 4,
      "note": 66,
      "start": 142.4464,
      "duration": 0.1324,
      "velocity": 127,
      "chip": "ym2612"
    },
    {
      "channel": 1,
      "note": 34,
      "start": 142.5118,
      "duration": 0.0499,
      "velocity": 87,
      "chip": "ym2612"
    },
    {
      "channel": 1,
      "note": 34,
      "start": 142.5782,
      "duration": 0.0335,
      "velocity": 87,
      "chip": "ym2612"
    },
    {
      "channel": 0,
      "note": 50,
      "start": 142.6283,
      "duration": 0.1164,
      "velocity": 102,
      "chip": "ym2612"
    },
    {
      "channel": 1,
      "note": 34,
      "start": 142.6286,
      "duration": 0.1662,
      "velocity": 87,
      "chip": "ym2612"
    },
    {
      "channel": 3,
      "note": 71,
      "start": 142.6295,
      "duration": 0.1326,
      "velocity": 127,
      "chip": "ym2612"
    },
    {
      "channel": 4,
      "note": 66,
      "start": 142.6299,
      "duration": 0.1323,
      "velocity": 127,
      "chip": "ym2612"
    },
    {
      "channel": 0,
      "note": 50,
      "start": 142.8118,
      "duration": 0.1162,
      "velocity": 102,
      "chip": "ym2612"
    },
    {
      "channel": 1,
      "note": 34,
      "start": 142.8121,
      "duration": 0.0496,
      "velocity": 87,
      "chip": "ym2612"
    },
    {
      "channel": 3,
      "note": 71,
      "start": 142.8131,
      "duration": 0.1323,
      "velocity": 127,
      "chip": "ym2612"
    },
    {
      "channel": 4,
      "note": 66,
      "start": 142.8134,
      "duration": 0.1321,
      "velocity": 127,
      "chip": "ym2612"
    },
    {
      "channel": 1,
      "note": 34,
      "start": 142.8782,
      "duration": 0.0499,
      "velocity": 87,
      "chip": "ym2612"
    },
    {
      "channel": 1,
      "note": 34,
      "start": 142.9449,
      "duration": 0.0332,
      "velocity": 87,
      "chip": "ym2612"
    },
    {
      "channel": 0,
      "note": 50,
      "start": 142.9949,
      "duration": 0.1167,
      "velocity": 102,
      "chip": "ym2612"
    },
    {
      "channel": 1,
      "note": 34,
      "start": 142.9952,
      "duration": 0.0664,
      "velocity": 87,
      "chip": "ym2612"
    },
    {
      "channel": 3,
      "note": 71,
      "start": 142.9961,
      "duration": 0.1325,
      "velocity": 127,
      "chip": "ym2612"
    },
    {
      "channel": 4,
      "note": 66,
      "start": 142.9964,
      "duration": 0.1322,
      "velocity": 127,
      "chip": "ym2612"
    },
    {
      "channel": 1,
      "note": 34,
      "start": 143.0782,
      "duration": 0.0835,
      "velocity": 87,
      "chip": "ym2612"
    },
    {
      "channel": 0,
      "note": 50,
      "start": 143.1782,
      "duration": 0.1165,
      "velocity": 102,
      "chip": "ym2612"
    },
    {
      "channel": 1,
      "note": 37,
      "start": 143.1786,
      "duration": 0.1662,
      "velocity": 87,
      "chip": "ym2612"
    },
    {
      "channel": 3,
      "note": 71,
      "start": 143.1794,
      "duration": 0.1327,
      "velocity": 127,
      "chip": "ym2612"
    },
    {
      "channel": 4,
      "note": 66,
      "start": 143.1798,
      "duration": 0.1324,
      "velocity": 127,
      "chip": "ym2612"
    },
    {
      "channel": 0,
      "note": 50,
      "start": 143.3618,
      "duration": 0.1162,
      "velocity": 102,
      "chip": "ym2612"
    },
    {
      "channel": 1,
      "note": 37,
      "start": 143.3621,
      "duration": 0.0496,
      "velocity": 87,
      "chip": "ym2612"
    },
    {
      "channel": 3,
      "note": 69,
      "start": 143.3629,
      "duration": 0.1324,
      "velocity": 127,
      "chip": "ym2612"
    },
    {
      "channel": 4,
      "note": 64,
      "start": 143.3632,
      "duration": 0.1322,
      "velocity": 127,
      "chip": "ym2612"
    },
    {
      "channel": 1,
      "note": 37,
      "start": 143.4282,
      "duration": 0.0499,
      "velocity": 87,
      "chip": "ym2612"
    },
    {
      "channel": 1,
      "note": 37,
      "start": 143.4949,
      "duration": 0.0332,
      "velocity": 87,
      "chip": "ym2612"
    },
    {
      "channel": 0,
      "note": 50,
      "start": 143.545,
      "duration": 0.1166,
      "velocity": 102,
      "chip": "ym2612"
    },
    {
      "channel": 1,
      "note": 30,
      "start": 143.5454,
      "duration": 0.0663,
      "velocity": 87,
      "chip": "ym2612"
    },
    {
      "channel": 3,
      "note": 69,
      "start": 143.5461,
      "duration": 0.1325,
      "velocity": 127,
      "chip": "ym2612"
    },
    {
      "channel": 4,
      "note": 64,
      "start": 143.5464,
      "duration": 0.1322,
      "velocity": 127,
      "chip": "ym2612"
    },
    {
      "channel": 1,
      "note": 30,
      "start": 143.6283,
      "duration": 0.0834,
      "velocity": 87,
      "chip": "ym2612"
    },
    {
      "channel": 0,
      "note": 52,
      "start": 143.7283,
      "duration": 0.1164,
      "velocity": 102,
      "chip": "ym2612"
    },
    {
      "channel": 1,
      "note": 34,
      "start": 143.7286,
      "duration": 0.1662,
      "velocity": 87,
      "chip": "ym2612"
    },
    {
      "channel": 3,
      "note": 71,
      "start": 143.7298,
      "duration": 0.1324,
      "velocity": 127,
      "chip": "ym2612"
    },
    {
      "channel": 4,
      "note": 66,
      "start": 143.7302,
      "duration": 0.1321,
      "velocity": 127,
      "chip": "ym2612"
    },
    {
      "channel": 0,
      "note": 52,
      "start": 143.9118,
      "duration": 0.1162,
      "velocity": 102,
      "chip": "ym2612"
    },
    {
      "channel": 1,
      "note": 34,
      "start": 143.9121,
      "duration": 0.0496,
      "velocity": 87,
      "chip": "ym2612"
    },
    {
      "channel": 3,
      "note": 71,
      "start": 143.9129,
      "duration": 0.1324,
      "velocity": 127,
      "chip": "ym2612"
    },
    {
      "channel": 4,
      "note": 66,
      "start": 143.9132,
      "duration": 0.1322,
      "velocity": 127,
      "chip": "ym2612"
    },
    {
      "channel": 1,
      "note": 30,
      "start": 143.9782,
      "duration": 0.0499,
      "velocity": 87,
      "chip": "ym2612"
    },
    {
      "channel": 1,
      "note": 34,
      "start": 144.0449,
      "duration": 0.0332,
      "velocity": 87,
      "chip": "ym2612"
    },
    {
      "channel": 0,
      "note": 52,
      "start": 144.0949,
      "duration": 0.1167,
      "velocity": 102,
      "chip": "ym2612"
    },
    {
      "channel": 1,
      "note": 34,
      "start": 144.0952,
      "duration": 0.0664,
      "velocity": 87,
      "chip": "ym2612"
    },
    {
      "channel": 3,
      "note": 71,
      "start": 144.0963,
      "duration": 0.1323,
      "velocity": 127,
      "chip": "ym2612"
    },
    {
      "channel": 4,
      "note": 66,
      "start": 144.0966,
      "duration": 0.1321,
      "velocity": 127,
      "chip": "ym2612"
    },
    {
      "channel": 1,
      "note": 34,
      "start": 144.1782,
      "duration": 0.0835,
      "velocity": 87,
      "chip": "ym2612"
    },
    {
      "channel": 0,
      "note": 52,
      "start": 144.2783,
      "duration": 0.1164,
      "velocity": 102,
      "chip": "ym2612"
    },
    {
      "channel": 1,
      "note": 30,
      "start": 144.2786,
      "duration": 0.3494,
      "velocity": 87,
      "chip": "ym2612"
    },
    {
      "channel": 3,
      "note": 71,
      "start": 144.2796,
      "duration": 0.1326,
      "velocity": 127,
      "chip": "ym2612"
    },
    {
      "channel": 4,
      "note": 66,
      "start": 144.2799,
      "duration": 0.1323,
      "velocity": 127,
      "chip": "ym2612"
    },
    {
      "channel": 0,
      "note": 52,
      "start": 144.4618,
      "duration": 0.1162,
      "velocity": 102,
      "chip": "ym2612"
    },
    {
      "channel": 3,
      "note": 71,
      "start": 144.4627,
      "duration": 0.1325,
      "velocity": 127,
      "chip": "ym2612"
    },
    {
      "channel": 4,
      "note": 66,
      "start": 144.4631,
      "duration": 0.1322,
      "velocity": 127,
      "chip": "ym2612"
    },
    {
      "channel": 0,
      "note": 52,
      "start": 144.6449,
      "duration": 0.1167,
      "velocity": 102,
      "chip": "ym2612"
    },
    {
      "channel": 1,
      "note": 30,
      "start": 144.6451,
      "duration": 0.1666,
      "velocity": 87,
      "chip": "ym2612"
    },
    {
      "channel": 3,
      "note": 71,
      "start": 144.6459,
      "duration": 0.1326,
      "velocity": 127,
      "chip": "ym2612"
    },
    {
      "channel": 4,
      "note": 66,
      "start": 144.6463,
      "duration": 0.1323,
      "velocity": 127,
      "chip": "ym2612"
    },
    {
      "channel": 0,
      "note": 52,
      "start": 144.8283,
      "duration": 0.1164,
      "velocity": 102,
      "chip": "ym2612"
    },
    {
      "channel": 1,
      "note": 34,
      "start": 144.8286,
      "duration": 0.1662,
      "velocity": 87,
      "chip": "ym2612"
    },
    {
      "channel": 3,
      "note": 69,
      "start": 144.8293,
      "duration": 0.1327,
      "velocity": 127,
      "chip": "ym2612"
    },
    {
      "channel": 4,
      "note": 64,
      "start": 144.8297,
      "duration": 0.1325,
      "velocity": 127,
      "chip": "ym2612"
    },
    {
      "channel": 0,
      "note": 52,
      "start": 145.0118,
      "duration": 0.1162,
      "velocity": 102,
      "chip": "ym2612"
    },
    {
      "channel": 1,
      "note": 34,
      "start": 145.0121,
      "duration": 0.0496,
      "velocity": 87,
      "chip": "ym2612"
    },
    {
      "channel": 3,
      "note": 69,
      "start": 145.0128,
      "duration": 0.1326,
      "velocity": 127,
      "chip": "ym2612"
    },
    {
      "channel": 4,
      "note": 64,
      "start": 145.0132,
      "duration": 0.1322,
      "velocity": 127,
      "chip": "ym2612"
    },
    {
      "channel": 1,
      "note": 34,
      "start": 145.0782,
      "duration": 0.0499,
      "velocity": 87,
      "chip": "ym2612"
    },
    {
      "channel": 1,
      "note": 34,
      "start": 145.1449,
      "duration": 0.0332,
      "velocity": 87,
      "chip": "ym2612"
    },
    {
      "channel": 0,
      "note": 52,
      "start": 145.1949,
      "duration": 0.1167,
      "velocity": 102,
      "chip": "ym2612"
    },
    {
      "channel": 1,
      "note": 34,
      "start": 145.1952,
      "duration": 0.1664,
      "velocity": 87,
      "chip": "ym2612"
    },
    {
      "channel": 3,
      "note": 69,
      "start": 145.1963,
      "duration": 0.1322,
      "velocity": 127,
      "chip": "ym2612"
    },
    {
      "channel": 4,
      "note": 64,
      "start": 145.1967,
      "duration": 0.132,
      "velocity": 127,
      "chip": "ym2612"
    },
    {
      "channel": 0,
      "note": 52,
      "start": 145.3783,
      "duration": 0.1164,
      "velocity": 102,
      "chip": "ym2612"
    },
    {
      "channel": 1,
      "note": 34,
      "start": 145.3786,
      "duration": 0.0495,
      "velocity": 87,
      "chip": "ym2612"
    },
    {
      "channel": 3,
      "note": 71,
      "start": 145.3793,
      "duration": 0.1329,
      "velocity": 127,
      "chip": "ym2612"
    },
    {
      "channel": 4,
      "note": 66,
      "start": 145.3797,
      "duration": 0.1326,
      "velocity": 127,
      "chip": "ym2612"
    },
    {
      "channel": 1,
      "note": 34,
      "start": 145.4449,
      "duration": 0.0499,
      "velocity": 87,
      "chip": "ym2612"
    },
    {
      "channel": 1,
      "note": 34,
      "start": 145.5118,
      "duration": 0.033,
      "velocity": 87,
      "chip": "ym2612"
    },
    {
      "channel": 0,
      "note": 52,
      "start": 145.5618,
      "duration": 0.1162,
      "velocity": 102,
      "chip": "ym2612"
    },
    {
      "channel": 1,
      "note": 34,
      "start": 145.5622,
      "duration": 0.1659,
      "velocity": 87,
      "chip": "ym2612"
    },
    {
      "channel": 3,
      "note": 71,
      "start": 145.5631,
      "duration": 0.1321,
      "velocity": 127,
      "chip": "ym2612"
    },
    {
      "channel": 4,
      "note": 66,
      "start": 145.5635,
      "duration": 0.1319,
      "velocity": 127,
      "chip": "ym2612"
    },
    {
      "channel": 0,
      "note": 52,
      "start": 145.7449,
      "duration": 0.1167,
      "velocity": 102,
      "chip": "ym2612"
    },
    {
      "channel": 1,
      "note": 34,
      "start": 145.7452,
      "duration": 0.0495,
      "velocity": 87,
      "chip": "ym2612"
    },
    {
      "channel": 3,
      "note": 71,
      "start": 145.7461,
      "duration": 0.1326,
      "velocity": 127,
      "chip": "ym2612"
    },
    {
      "channel": 4,
      "note": 66,
      "start": 145.7465,
      "duration": 0.1323,
      "velocity": 127,
      "chip": "ym2612"
    },
    {
      "channel": 1,
      "note": 34,
      "start": 145.8118,
      "duration": 0.0499,
      "velocity": 87,
      "chip": "ym2612"
    },
    {
      "channel": 1,
      "note": 34,
      "start": 145.8782,
      "duration": 0.0335,
      "velocity": 87,
      "chip": "ym2612"
    },
    {
      "channel": 0,
      "note": 52,
      "start": 145.9283,
      "duration": 0.1164,
      "velocity": 102,
      "chip": "ym2612"
    },
    {
      "channel": 1,
      "note": 34,
      "start": 145.9286,
      "duration": 0.0662,
      "velocity": 87,
      "chip": "ym2612"
    },
    {
      "channel": 3,
      "note": 71,
      "start": 145.9294,
      "duration": 0.1327,
      "velocity": 127,
      "chip": "ym2612"
    },
    {
      "channel": 4,
      "note": 66,
      "start": 145.9297,
      "duration": 0.1325,
      "velocity": 127,
      "chip": "ym2612"
    },
    {
      "channel": 1,
      "note": 34,
      "start": 146.0118,
      "duration": 0.083,
      "velocity": 87,
      "chip": "ym2612"
    },
    {
      "channel": 0,
      "note": 52,
      "start": 146.1118,
      "duration": 0.1162,
      "velocity": 102,
      "chip": "ym2612"
    },
    {
      "channel": 1,
      "note": 37,
      "start": 146.1122,
      "duration": 0.1659,
      "velocity": 87,
      "chip": "ym2612"
    },
    {
      "channel": 3,
      "note": 71,
      "start": 146.113,
      "duration": 0.1322,
      "velocity": 127,
      "chip": "ym2612"
    },
    {
      "channel": 4,
      "note": 66,
      "start": 146.1134,
      "duration": 0.1319,
      "velocity": 127,
      "chip": "ym2612"
    },
    {
      "channel": 0,
      "note": 52,
      "start": 146.2949,
      "duration": 0.1167,
      "velocity": 102,
      "chip": "ym2612"
    },
    {
      "channel": 1,
      "note": 37,
      "start": 146.2952,
      "duration": 0.0496,
      "velocity": 87,
      "chip": "ym2612"
    },
    {
      "channel": 3,
      "note": 69,
      "start": 146.2959,
      "duration": 0.1327,
      "velocity": 127,
      "chip": "ym2612"
    },
    {
      "channel": 4,
      "note": 64,
      "start": 146.2963,
      "duration": 0.1325,
      "velocity": 127,
      "chip": "ym2612"
    },
    {
      "channel": 1,
      "note": 37,
      "start": 146.3618,
      "duration": 0.0499,
      "velocity": 87,
      "chip": "ym2612"
    },
    {
      "channel": 1,
      "note": 37,
      "start": 146.4283,
      "duration": 0.0334,
      "velocity": 87,
      "chip": "ym2612"
    },
    {
      "channel": 0,
      "note": 52,
      "start": 146.4783,
      "duration": 0.1163,
      "velocity": 102,
      "chip": "ym2612"
    },
    {
      "channel": 1,
      "note": 30,
      "start": 146.4787,
      "duration": 0.066,
      "velocity": 87,
      "chip": "ym2612"
    },
    {
      "channel": 3,
      "note": 69,
      "start": 146.4794,
      "duration": 0.1327,
      "velocity": 127,
      "chip": "ym2612"
    },
    {
      "channel": 4,
      "note": 64,
      "start": 146.4797,
      "duration": 0.1326,
      "velocity": 127,
      "chip": "ym2612"
    },
    {
      "channel": 1,
      "note": 30,
      "start": 146.5618,
      "duration": 0.0829,
      "velocity": 87,
      "chip": "ym2612"
    },
    {
      "channel": 0,
      "note": 47,
      "start": 146.6618,
      "duration": 0.1162,
      "velocity": 102,
      "chip": "ym2612"
    },
    {
      "channel": 1,
      "note": 100,
      "start": 146.663,
      "duration": 0.1651,
      "velocity": 109,
      "chip": "ym2612"
    },
    {
      "channel": 2,
      "note": 47,
      "start": 146.6641,
      "duration": 0.5446,
      "velocity": 124,
      "chip": "ym2612"
    },
    {
      "channel": 3,
      "note": 71,
      "start": 146.6652,
      "duration": 0.13,
      "velocity": 127,
      "chip": "ym2612"
    },
    {
      "channel": 4,
      "note": 66,
      "start": 146.6656,
      "duration": 0.1296,
      "velocity": 127,
      "chip": "ym2612"
    },
    {
      "channel": 0,
      "note": 47,
      "start": 146.8449,
      "duration": 0.1167,
      "velocity": 102,
      "chip": "ym2612"
    },
    {
      "channel": 1,
      "note": 100,
      "start": 146.8452,
      "duration": 0.0664,
      "velocity": 109,
      "chip": "ym2612"
    },
    {
      "channel": 3,
      "note": 71,
      "start": 146.846,
      "duration": 0.1325,
      "velocity": 127,
      "chip": "ym2612"
    },
    {
      "channel": 4,
      "note": 66,
      "start": 146.8463,
      "duration": 0.1323,
      "velocity": 127,
      "chip": "ym2612"
    },
    {
      "channel": 1,
      "note": 100,
      "start": 146.9282,
      "duration": 0.0835,
      "velocity": 109,
      "chip": "ym2612"
    },
    {
      "channel": 5,
      "note": 47,
      "start": 146.93,
      "duration": 0.2786,
      "velocity": 124,
      "chip": "ym2612"
    },
    {
      "channel": 0,
      "note": 47,
      "start": 147.0283,
      "duration": 0.1164,
      "velocity": 102,
      "chip": "ym2612"
    },
    {
      "channel": 1,
      "note": 100,
      "start": 147.0286,
      "duration": 0.1662,
      "velocity": 109,
      "chip": "ym2612"
    },
    {
      "channel": 3,
      "note": 71,
      "start": 147.0297,
      "duration": 0.1324,
      "velocity": 127,
      "chip": "ym2612"
    },
    {
      "channel": 4,
      "note": 66,
      "start": 147.03,
      "duration": 0.1321,
      "velocity": 127,
      "chip": "ym2612"
    }
  ]
}