{
  "track_name": "06 Ending [Kazuya's Gloomy Day]",
  "duration_sec": 109.2,
  "sample_rate": 44100,
  "note_count": 1351,
  "unique_pitches": 35,
  "pitch_range": 69,
  "avg_note_duration": 0.3854,
  "reconstruction_stats": {
    "notes_reconstructed": 1351,
    "keyon_events": 1351,
    "keyoff_events": 1348,
    "orphan_keyons": 3,
    "unique_pitches": 35,
    "pitch_range": 69,
    "avg_duration_sec": 0.3854
  },
  "metadata": {
    "source": "I\\If\\06 Ending [Kazuya's Gloomy Day].vgz"
  },
  "notes": [
    {
      "channel": 3,
      "note": -1,
      "start": 0.1173,
      "duration": 109.083,
      "velocity": 98,
      "chip": "ym2612"
    },
    {
      "channel": 4,
      "note": -1,
      "start": 0.1173,
      "duration": 109.0829,
      "velocity": 98,
      "chip": "ym2612"
    },
    {
      "channel": 5,
      "note": -1,
      "start": 0.1173,
      "duration": 109.0829,
      "velocity": 127,
      "chip": "ym2612"
    },
    {
      "channel": 2,
      "note": 51,
      "start": 0.1395,
      "duration": 0.0755,
      "velocity": 115,
      "chip": "ym2612"
    },
    {
      "channel": 2,
      "note": 54,
      "start": 0.2531,
      "duration": 0.3041,
      "velocity": 115,
      "chip": "ym2612"
    },
    {
      "channel": 1,
      "note": 30,
      "start": 0.5956,
      "duration": 0.0757,
      "velocity": 123,
      "chip": "ym2612"
    },
    {
      "channel": 2,
      "note": 56,
      "start": 0.5957,
      "duration": 0.0756,
      "velocity": 115,
      "chip": "ym2612"
    },
    {
      "channel": 1,
      "note": 78,
      "start": 0.7097,
      "duration": 0.0758,
      "velocity": 117,
      "chip": "ym2612"
    },
    {
      "channel": 2,
      "note": 56,
      "start": 0.7097,
      "duration": 0.0757,
      "velocity": 115,
      "chip": "ym2612"
    },
    {
      "channel": 1,
      "note": 78,
      "start": 0.8237,
      "duration": 0.0758,
      "velocity": 117,
      "chip": "ym2612"
    },
    {
      "channel": 1,
      "note": 78,
      "start": 0.9378,
      "duration": 0.0757,
      "velocity": 117,
      "chip": "ym2612"
    },
    {
      "channel": 1,
      "note": 47,
      "start": 1.0519,
      "duration": 0.0758,
      "velocity": 120,
      "chip": "ym2612"
    },
    {
      "channel": 1,
      "note": 78,
      "start": 1.166,
      "duration": 0.0758,
      "velocity": 117,
      "chip": "ym2612"
    },
    {
      "channel": 2,
      "note": 56,
      "start": 1.166,
      "duration": 0.0757,
      "velocity": 115,
      "chip": "ym2612"
    },
    {
      "channel": 1,
      "note": 30,
      "start": 1.28,
      "duration": 0.0758,
      "velocity": 123,
      "chip": "ym2612"
    },
    {
      "channel": 2,
      "note": 61,
      "start": 1.2801,
      "duration": 0.0757,
      "velocity": 115,
      "chip": "ym2612"
    },
    {
      "channel": 1,
      "note": 30,
      "start": 1.3941,
      "duration": 0.0757,
      "velocity": 123,
      "chip": "ym2612"
    },
    {
      "channel": 2,
      "note": 61,
      "start": 1.3942,
      "duration": 0.0757,
      "velocity": 115,
      "chip": "ym2612"
    },
    {
      "channel": 1,
      "note": 78,
      "start": 1.6223,
      "duration": 0.0758,
      "velocity": 127,
      "chip": "ym2612"
    },
    {
      "channel": 1,
      "note": 30,
      "start": 1.7363,
      "duration": 0.1899,
      "velocity": 123,
      "chip": "ym2612"
    },
    {
      "channel": 1,
      "note": 47,
      "start": 1.9645,
      "duration": 0.3039,
      "velocity": 120,
      "chip": "ym2612"
    },
    {
      "channel": 2,
      "note": 59,
      "start": 2.1924,
      "duration": 0.1901,
      "velocity": 115,
      "chip": "ym2612"
    },
    {
      "channel": 1,
      "note": 30,
      "start": 2.3067,
      "duration": 0.0758,
      "velocity": 123,
      "chip": "ym2612"
    },
    {
      "channel": 1,
      "note": 30,
      "start": 2.4208,
      "duration": 0.0758,
      "velocity": 123,
      "chip": "ym2612"
    },
    {
      "channel": 2,
      "note": 58,
      "start": 2.4209,
      "duration": 0.0757,
      "velocity": 115,
      "chip": "ym2612"
    },
    {
      "channel": 1,
      "note": 78,
      "start": 2.5349,
      "duration": 0.0757,
      "velocity": 117,
      "chip": "ym2612"
    },
    {
      "channel": 2,
      "note": 58,
      "start": 2.535,
      "duration": 0.0757,
      "velocity": 115,
      "chip": "ym2612"
    },
    {
      "channel": 1,
      "note": 78,
      "start": 2.6489,
      "duration": 0.0758,
      "velocity": 117,
      "chip": "ym2612"
    },
    {
      "channel": 1,
      "note": 78,
      "start": 2.7631,
      "duration": 0.0757,
      "velocity": 117,
      "chip": "ym2612"
    },
    {
      "channel": 1,
      "note": 47,
      "start": 2.8771,
      "duration": 0.0757,
      "velocity": 120,
      "chip": "ym2612"
    },
    {
      "channel": 1,
      "note": 78,
      "start": 2.9912,
      "duration": 0.0758,
      "velocity": 117,
      "chip": "ym2612"
    },
    {
      "channel": 2,
      "note": 58,
      "start": 2.9912,
      "duration": 0.0757,
      "velocity": 115,
      "chip": "ym2612"
    },
    {
      "channel": 1,
      "note": 30,
      "start": 3.1052,
      "duration": 0.0758,
      "velocity": 123,
      "chip": "ym2612"
    },
    {
      "channel": 2,
      "note": 63,
      "start": 3.1053,
      "duration": 0.0757,
      "velocity": 115,
      "chip": "ym2612"
    },
    {
      "channel": 1,
      "note": 30,
      "start": 3.2193,
      "duration": 0.0758,
      "velocity": 123,
      "chip": "ym2612"
    },
    {
      "channel": 2,
      "note": 63,
      "start": 3.2194,
      "duration": 0.0757,
      "velocity": 115,
      "chip": "ym2612"
    },
    {
      "channel": 1,
      "note": 78,
      "start": 3.4475,
      "duration": 0.0758,
      "velocity": 127,
      "chip": "ym2612"
    },
    {
      "channel": 1,
      "note": 30,
      "start": 3.5615,
      "duration": 0.1898,
      "velocity": 123,
      "chip": "ym2612"
    },
    {
      "channel": 1,
      "note": 47,
      "start": 3.7897,
      "duration": 0.3039,
      "velocity": 120,
      "chip": "ym2612"
    },
    {
      "channel": 2,
      "note": 51,
      "start": 3.7898,
      "duration": 0.0757,
      "velocity": 115,
      "chip": "ym2612"
    },
    {
      "channel": 2,
      "note": 54,
      "start": 3.9035,
      "duration": 0.3042,
      "velocity": 115,
      "chip": "ym2612"
    },
    {
      "channel": 1,
      "note": 30,
      "start": 4.1319,
      "duration": 0.0758,
      "velocity": 123,
      "chip": "ym2612"
    },
    {
      "channel": 1,
      "note": 30,
      "start": 4.246,
      "duration": 0.0758,
      "velocity": 123,
      "chip": "ym2612"
    },
    {
      "channel": 2,
      "note": 56,
      "start": 4.2461,
      "duration": 0.0757,
      "velocity": 115,
      "chip": "ym2612"
    },
    {
      "channel": 1,
      "note": 78,
      "start": 4.36,
      "duration": 0.0758,
      "velocity": 117,
      "chip": "ym2612"
    },
    {
      "channel": 2,
      "note": 56,
      "start": 4.3601,
      "duration": 0.0757,
      "velocity": 115,
      "chip": "ym2612"
    },
    {
      "channel": 1,
      "note": 78,
      "start": 4.4741,
      "duration": 0.0757,
      "velocity": 117,
      "chip": "ym2612"
    },
    {
      "channel": 1,
      "note": 78,
      "start": 4.5882,
      "duration": 0.0758,
      "velocity": 117,
      "chip": "ym2612"
    },
    {
      "channel": 1,
      "note": 47,
      "start": 4.7023,
      "duration": 0.0757,
      "velocity": 120,
      "chip": "ym2612"
    },
    {
      "channel": 1,
      "note": 78,
      "start": 4.8163,
      "duration": 0.0758,
      "velocity": 117,
      "chip": "ym2612"
    },
    {
      "channel": 2,
      "note": 56,
      "start": 4.8164,
      "duration": 0.0757,
      "velocity": 115,
      "chip": "ym2612"
    },
    {
      "channel": 1,
      "note": 30,
      "start": 4.9304,
      "duration": 0.0757,
      "velocity": 123,
      "chip": "ym2612"
    },
    {
      "channel": 2,
      "note": 61,
      "start": 4.9305,
      "duration": 0.0757,
      "velocity": 115,
      "chip": "ym2612"
    },
    {
      "channel": 1,
      "note": 30,
      "start": 5.0445,
      "duration": 0.0758,
      "velocity": 123,
      "chip": "ym2612"
    },
    {
      "channel": 2,
      "note": 61,
      "start": 5.0446,
      "duration": 0.0757,
      "velocity": 115,
      "chip": "ym2612"
    },
    {
      "channel": 1,
      "note": 78,
      "start": 5.2726,
      "duration": 0.0758,
      "velocity": 127,
      "chip": "ym2612"
    },
    {
      "channel": 1,
      "note": 30,
      "start": 5.3867,
      "duration": 0.1899,
      "velocity": 123,
      "chip": "ym2612"
    },
    {
      "channel": 1,
      "note": 47,
      "start": 5.6149,
      "duration": 0.3039,
      "velocity": 120,
      "chip": "ym2612"
    },
    {
      "channel": 2,
      "note": 59,
      "start": 5.8428,
      "duration": 0.1901,
      "velocity": 115,
      "chip": "ym2612"
    },
    {
      "channel": 1,
      "note": 30,
      "start": 5.9572,
      "duration": 0.0757,
      "velocity": 123,
      "chip": "ym2612"
    },
    {
      "channel": 1,
      "note": 30,
      "start": 6.0712,
      "duration": 0.0757,
      "velocity": 123,
      "chip": "ym2612"
    },
    {
      "channel": 2,
      "note": 58,
      "start": 6.0712,
      "duration": 0.0757,
      "velocity": 115,
      "chip": "ym2612"
    },
    {
      "channel": 1,
      "note": 78,
      "start": 6.1853,
      "duration": 0.0757,
      "velocity": 117,
      "chip": "ym2612"
    },
    {
      "channel": 2,
      "note": 70,
      "start": 6.1853,
      "duration": 0.1898,
      "velocity": 115,
      "chip": "ym2612"
    },
    {
      "channel": 1,
      "note": 78,
      "start": 6.2993,
      "duration": 0.0758,
      "velocity": 117,
      "chip": "ym2612"
    },
    {
      "channel": 1,
      "note": 78,
      "start": 6.4134,
      "duration": 0.0758,
      "velocity": 117,
      "chip": "ym2612"
    },
    {
      "channel": 2,
      "note": 68,
      "start": 6.4134,
      "duration": 0.0757,
      "velocity": 115,
      "chip": "ym2612"
    },
    {
      "channel": 1,
      "note": 47,
      "start": 6.5275,
      "duration": 0.0757,
      "velocity": 120,
      "chip": "ym2612"
    },
    {
      "channel": 1,
      "note": 78,
      "start": 6.6415,
      "duration": 0.0757,
      "velocity": 117,
      "chip": "ym2612"
    },
    {
      "channel": 2,
      "note": 66,
      "start": 6.6415,
      "duration": 0.0757,
      "velocity": 115,
      "chip": "ym2612"
    },
    {
      "channel": 1,
      "note": 30,
      "start": 6.7556,
      "duration": 0.0758,
      "velocity": 123,
      "chip": "ym2612"
    },
    {
      "channel": 2,
      "note": 68,
      "start": 6.7557,
      "duration": 0.0757,
      "velocity": 115,
      "chip": "ym2612"
    },
    {
      "channel": 1,
      "note": 30,
      "start": 6.8697,
      "duration": 0.0757,
      "velocity": 123,
      "chip": "ym2612"
    },
    {
      "channel": 2,
      "note": 63,
      "start": 6.8697,
      "duration": 0.0757,
      "velocity": 115,
      "chip": "ym2612"
    },
    {
      "channel": 0,
      "note": 73,
      "start": 7.0975,
      "duration": 0.076,
      "velocity": 107,
      "chip": "ym2612"
    },
    {
      "channel": 1,
      "note": 78,
      "start": 7.0978,
      "duration": 0.0757,
      "velocity": 127,
      "chip": "ym2612"
    },
    {
      "channel": 2,
      "note": 63,
      "start": 7.0979,
      "duration": 0.0756,
      "velocity": 115,
      "chip": "ym2612"
    },
    {
      "channel": 0,
      "note": 75,
      "start": 7.2116,
      "duration": 0.076,
      "velocity": 107,
      "chip": "ym2612"
    },
    {
      "channel": 1,
      "note": 30,
      "start": 7.2119,
      "duration": 0.1898,
      "velocity": 123,
      "chip": "ym2612"
    },
    {
      "channel": 2,
      "note": 61,
      "start": 7.212,
      "duration": 0.0756,
      "velocity": 115,
      "chip": "ym2612"
    },
    {
      "channel": 0,
      "note": 78,
      "start": 7.3257,
      "duration": 0.076,
      "velocity": 107,
      "chip": "ym2612"
    },
    {
      "channel": 0,
      "note": 80,
      "start": 7.4398,
      "duration": 0.6464,
      "velocity": 107,
      "chip": "ym2612"
    },
    {
      "channel": 1,
      "note": 47,
      "start": 7.4401,
      "duration": 0.1898,
      "velocity": 120,
      "chip": "ym2612"
    },
    {
      "channel": 2,
      "note": 58,
      "start": 7.4402,
      "duration": 0.1897,
      "velocity": 115,
      "chip": "ym2612"
    },
    {
      "channel": 1,
      "note": 47,
      "start": 7.6682,
      "duration": 0.1899,
      "velocity": 120,
      "chip": "ym2612"
    },
    {
      "channel": 2,
      "note": 57,
      "start": 7.6683,
      "duration": 0.1898,
      "velocity": 115,
      "chip": "ym2612"
    },
    {
      "channel": 1,
      "note": 30,
      "start": 7.8964,
      "duration": 0.0757,
      "velocity": 123,
      "chip": "ym2612"
    },
    {
      "channel": 2,
      "note": 56,
      "start": 7.8964,
      "duration": 0.0757,
      "velocity": 115,
      "chip": "ym2612"
    },
    {
      "channel": 1,
      "note": 78,
      "start": 8.0104,
      "duration": 0.0757,
      "velocity": 117,
      "chip": "ym2612"
    },
    {
      "channel": 2,
      "note": 56,
      "start": 8.0105,
      "duration": 0.0757,
      "velocity": 115,
      "chip": "ym2612"
    },
    {
      "channel": 0,
      "note": 82,
      "start": 8.1242,
      "duration": 0.076,
      "velocity": 107,
      "chip": "ym2612"
    },
    {
      "channel": 1,
      "note": 78,
      "start": 8.1246,
      "duration": 0.0757,
      "velocity": 117,
      "chip": "ym2612"
    },
    {
      "channel": 1,
      "note": 78,
      "start": 8.2386,
      "duration": 0.0757,
      "velocity": 117,
      "chip": "ym2612"
    },
    {
      "channel": 0,
      "note": 78,
      "start": 8.3523,
      "duration": 0.0761,
      "velocity": 107,
      "chip": "ym2612"
    },
    {
      "channel": 1,
      "note": 47,
      "start": 8.3527,
      "duration": 0.0758,
      "velocity": 120,
      "chip": "ym2612"
    },
    {
      "channel": 0,
      "note": 80,
      "start": 8.4664,
      "duration": 0.076,
      "velocity": 107,
      "chip": "ym2612"
    },
    {
      "channel": 1,
      "note": 78,
      "start": 8.4667,
      "duration": 0.0757,
      "velocity": 117,
      "chip": "ym2612"
    },
    {
      "channel": 2,
      "note": 56,
      "start": 8.4668,
      "duration": 0.0756,
      "velocity": 115,
      "chip": "ym2612"
    },
    {
      "channel": 1,
      "note": 30,
      "start": 8.5808,
      "duration": 0.0758,
      "velocity": 123,
      "chip": "ym2612"
    },
    {
      "channel": 2,
      "note": 61,
      "start": 8.5808,
      "duration": 0.0757,
      "velocity": 115,
      "chip": "ym2612"
    },
    {
      "channel": 1,
      "note": 30,
      "start": 8.6948,
      "duration": 0.0757,
      "velocity": 123,
      "chip": "ym2612"
    },
    {
      "channel": 2,
      "note": 61,
      "start": 8.6949,
      "duration": 0.0757,
      "velocity": 115,
      "chip": "ym2612"
    },
    {
      "channel": 1,
      "note": 78,
      "start": 8.923,
      "duration": 0.0758,
      "velocity": 127,
      "chip": "ym2612"
    },
    {
      "channel": 0,
      "note": 82,
      "start": 9.0368,
      "duration": 0.0761,
      "velocity": 107,
      "chip": "ym2612"
    },
    {
      "channel": 1,
      "note": 30,
      "start": 9.0371,
      "duration": 0.1898,
      "velocity": 123,
      "chip": "ym2612"
    },
    {
      "channel": 0,
      "note": 83,
      "start": 9.1509,
      "duration": 0.076,
      "velocity": 107,
      "chip": "ym2612"
    },
    {
      "channel": 1,
      "note": 47,
      "start": 9.2652,
      "duration": 0.3039,
      "velocity": 120,
      "chip": "ym2612"
    },
    {
      "channel": 0,
      "note": 82,
      "start": 9.379,
      "duration": 0.076,
      "velocity": 107,
      "chip": "ym2612"
    },
    {
      "channel": 0,
      "note": 81,
      "start": 9.4931,
      "duration": 0.076,
      "velocity": 107,
      "chip": "ym2612"
    },
    {
      "channel": 2,
      "note": 59,
      "start": 9.4932,
      "duration": 0.1901,
      "velocity": 115,
      "chip": "ym2612"
    },
    {
      "channel": 0,
      "note": 80,
      "start": 9.6072,
      "duration": 0.076,
      "velocity": 107,
      "chip": "ym2612"
    },
    {
      "channel": 1,
      "note": 30,
      "start": 9.6076,
      "duration": 0.0756,
      "velocity": 123,
      "chip": "ym2612"
    },
    {
      "channel": 0,
      "note": 78,
      "start": 9.7213,
      "duration": 0.076,
      "velocity": 107,
      "chip": "ym2612"
    },
    {
      "channel": 1,
      "note": 30,
      "start": 9.7217,
      "duration": 0.0756,
      "velocity": 123,
      "chip": "ym2612"
    },
    {
      "channel": 2,
      "note": 58,
      "start": 9.7218,
      "duration": 0.0755,
      "velocity": 115,
      "chip": "ym2612"
    },
    {
      "channel": 0,
      "note": 77,
      "start": 9.8353,
      "duration": 0.076,
      "velocity": 107,
      "chip": "ym2612"
    },
    {
      "channel": 1,
      "note": 78,
      "start": 9.8357,
      "duration": 0.0757,
      "velocity": 117,
      "chip": "ym2612"
    },
    {
      "channel": 2,
      "note": 58,
      "start": 9.8357,
      "duration": 0.0756,
      "velocity": 115,
      "chip": "ym2612"
    },
    {
      "channel": 0,
      "note": 78,
      "start": 9.9494,
      "duration": 0.076,
      "velocity": 107,
      "chip": "ym2612"
    },
    {
      "channel": 1,
      "note": 78,
      "start": 9.9497,
      "duration": 0.0757,
      "velocity": 117,
      "chip": "ym2612"
    },
    {
      "channel": 0,
      "note": 80,
      "start": 10.0637,
      "duration": 0.0758,
      "velocity": 107,
      "chip": "ym2612"
    },
    {
      "channel": 1,
      "note": 78,
      "start": 10.064,
      "duration": 0.0755,
      "velocity": 117,
      "chip": "ym2612"
    },
    {
      "channel": 1,
      "note": 47,
      "start": 10.1783,
      "duration": 0.0753,
      "velocity": 120,
      "chip": "ym2612"
    },
    {
      "channel": 0,
      "note": 85,
      "start": 10.2916,
      "duration": 0.076,
      "velocity": 107,
      "chip": "ym2612"
    },
    {
      "channel": 1,
      "note": 78,
      "start": 10.292,
      "duration": 0.0757,
      "velocity": 117,
      "chip": "ym2612"
    },
    {
      "channel": 2,
      "note": 58,
      "start": 10.292,
      "duration": 0.0757,
      "velocity": 115,
      "chip": "ym2612"
    },
    {
      "channel": 1,
      "note": 30,
      "start": 10.406,
      "duration": 0.0757,
      "velocity": 123,
      "chip": "ym2612"
    },
    {
      "channel": 2,
      "note": 63,
      "start": 10.4061,
      "duration": 0.0756,
      "velocity": 115,
      "chip": "ym2612"
    },
    {
      "channel": 0,
      "note": 87,
      "start": 10.5198,
      "duration": 0.3044,
      "velocity": 107,
      "chip": "ym2612"
    },
    {
      "channel": 1,
      "note": 30,
      "start": 10.5201,
      "duration": 0.0759,
      "velocity": 123,
      "chip": "ym2612"
    },
    {
      "channel": 2,
      "note": 63,
      "start": 10.5202,
      "duration": 0.0759,
      "velocity": 115,
      "chip": "ym2612"
    },
    {
      "channel": 1,
      "note": 78,
      "start": 10.7483,
      "duration": 0.0759,
      "velocity": 127,
      "chip": "ym2612"
    },
    {
      "channel": 0,
      "note": 82,
      "start": 10.862,
      "duration": 0.076,
      "velocity": 107,
      "chip": "ym2612"
    },
    {
      "channel": 1,
      "note": 30,
      "start": 10.8624,
      "duration": 0.1897,
      "velocity": 123,
      "chip": "ym2612"
    },
    {
      "channel": 1,
      "note": 47,
      "start": 11.0904,
      "duration": 0.3041,
      "velocity": 120,
      "chip": "ym2612"
    },
    {
      "channel": 2,
      "note": 51,
      "start": 11.0905,
      "duration": 0.0758,
      "velocity": 115,
      "chip": "ym2612"
    },
    {
      "channel": 0,
      "note": 81,
      "start": 11.2042,
      "duration": 0.1902,
      "velocity": 107,
      "chip": "ym2612"
    },
    {
      "channel": 2,
      "note": 54,
      "start": 11.2043,
      "duration": 0.3041,
      "velocity": 115,
      "chip": "ym2612"
    },
    {
      "channel": 0,
      "note": 78,
      "start": 11.4324,
      "duration": 0.076,
      "velocity": 107,
      "chip": "ym2612"
    },
    {
      "channel": 1,
      "note": 30,
      "start": 11.4328,
      "duration": 0.0757,
      "velocity": 123,
      "chip": "ym2612"
    },
    {
      "channel": 0,
      "note": 77,
      "start": 11.5465,
      "duration": 0.6465,
      "velocity": 107,
      "chip": "ym2612"
    },
    {
      "channel": 1,
      "note": 30,
      "start": 11.5468,
      "duration": 0.0756,
      "velocity": 123,
      "chip": "ym2612"
    },
    {
      "channel": 2,
      "note": 56,
      "start": 11.5469,
      "duration": 0.0756,
      "velocity": 115,
      "chip": "ym2612"
    },
    {
      "channel": 1,
      "note": 78,
      "start": 11.6608,
      "duration": 0.0758,
      "velocity": 117,
      "chip": "ym2612"
    },
    {
      "channel": 2,
      "note": 56,
      "start": 11.6609,
      "duration": 0.0757,
      "velocity": 115,
      "chip": "ym2612"
    },
    {
      "channel": 1,
      "note": 78,
      "start": 11.7749,
      "duration": 0.0757,
      "velocity": 117,
      "chip": "ym2612"
    },
    {
      "channel": 1,
      "note": 78,
      "start": 11.8889,
      "duration": 0.0758,
      "velocity": 117,
      "chip": "ym2612"
    },
    {
      "channel": 1,
      "note": 47,
      "start": 12.0031,
      "duration": 0.0757,
      "velocity": 120,
      "chip": "ym2612"
    },
    {
      "channel": 1,
      "note": 78,
      "start": 12.1172,
      "duration": 0.0759,
      "velocity": 117,
      "chip": "ym2612"
    },
    {
      "channel": 2,
      "note": 56,
      "start": 12.1172,
      "duration": 0.0758,
      "velocity": 115,
      "chip": "ym2612"
    },
    {
      "channel": 0,
      "note": 75,
      "start": 12.2309,
      "duration": 0.1901,
      "velocity": 107,
      "chip": "ym2612"
    },
    {
      "channel": 1,
      "note": 30,
      "start": 12.2313,
      "duration": 0.0756,
      "velocity": 123,
      "chip": "ym2612"
    },
    {
      "channel": 2,
      "note": 61,
      "start": 12.2313,
      "duration": 0.0756,
      "velocity": 115,
      "chip": "ym2612"
    },
    {
      "channel": 1,
      "note": 30,
      "start": 12.3452,
      "duration": 0.0758,
      "velocity": 123,
      "chip": "ym2612"
    },
    {
      "channel": 2,
      "note": 61,
      "start": 12.3453,
      "duration": 0.0757,
      "velocity": 115,
      "chip": "ym2612"
    },
    {
      "channel": 1,
      "note": 78,
      "start": 12.5734,
      "duration": 0.0757,
      "velocity": 127,
      "chip": "ym2612"
    },
    {
      "channel": 1,
      "note": 30,
      "start": 12.6878,
      "duration": 0.1895,
      "velocity": 123,
      "chip": "ym2612"
    },
    {
      "channel": 1,
      "note": 47,
      "start": 12.916,
      "duration": 0.3035,
      "velocity": 120,
      "chip": "ym2612"
    },
    {
      "channel": 0,
      "note": 78,
      "start": 13.1436,
      "duration": 0.19,
      "velocity": 107,
      "chip": "ym2612"
    },
    {
      "channel": 2,
      "note": 59,
      "start": 13.1437,
      "duration": 0.19,
      "velocity": 115,
      "chip": "ym2612"
    },
    {
      "channel": 1,
      "note": 30,
      "start": 13.2579,
      "duration": 0.0757,
      "velocity": 123,
      "chip": "ym2612"
    },
    {
      "channel": 0,
      "note": 80,
      "start": 13.3717,
      "duration": 0.6464,
      "velocity": 107,
      "chip": "ym2612"
    },
    {
      "channel": 1,
      "note": 30,
      "start": 13.372,
      "duration": 0.0757,
      "velocity": 123,
      "chip": "ym2612"
    },
    {
      "channel": 2,
      "note": 58,
      "start": 13.3721,
      "duration": 0.0756,
      "velocity": 115,
      "chip": "ym2612"
    },
    {
      "channel": 1,
      "note": 78,
      "start": 13.486,
      "duration": 0.0758,
      "velocity": 117,
      "chip": "ym2612"
    },
    {
      "channel": 2,
      "note": 70,
      "start": 13.4861,
      "duration": 0.1898,
      "velocity": 115,
      "chip": "ym2612"
    },
    {
      "channel": 1,
      "note": 78,
      "start": 13.6001,
      "duration": 0.0758,
      "velocity": 117,
      "chip": "ym2612"
    },
    {
      "channel": 1,
      "note": 78,
      "start": 13.7142,
      "duration": 0.0758,
      "velocity": 117,
      "chip": "ym2612"
    },
    {
      "channel": 2,
      "note": 68,
      "start": 13.7142,
      "duration": 0.0757,
      "velocity": 115,
      "chip": "ym2612"
    },
    {
      "channel": 1,
      "note": 47,
      "start": 13.8283,
      "duration": 0.0757,
      "velocity": 120,
      "chip": "ym2612"
    },
    {
      "channel": 1,
      "note": 78,
      "start": 13.9424,
      "duration": 0.0757,
      "velocity": 117,
      "chip": "ym2612"
    },
    {
      "channel": 2,
      "note": 66,
      "start": 13.9424,
      "duration": 0.1899,
      "velocity": 115,
      "chip": "ym2612"
    },
    {
      "channel": 0,
      "note": 75,
      "start": 14.0561,
      "duration": 0.0762,
      "velocity": 107,
      "chip": "ym2612"
    },
    {
      "channel": 1,
      "note": 30,
      "start": 14.0565,
      "duration": 0.0758,
      "velocity": 123,
      "chip": "ym2612"
    },
    {
      "channel": 0,
      "note": 75,
      "start": 14.1702,
      "duration": 0.076,
      "velocity": 107,
      "chip": "ym2612"
    },
    {
      "channel": 1,
      "note": 30,
      "start": 14.1705,
      "duration": 0.0757,
      "velocity": 123,
      "chip": "ym2612"
    },
    {
      "channel": 2,
      "note": 63,
      "start": 14.1706,
      "duration": 0.532,
      "velocity": 115,
      "chip": "ym2612"
    },
    {
      "channel": 1,
      "note": 78,
      "start": 14.3986,
      "duration": 0.0757,
      "velocity": 127,
      "chip": "ym2612"
    },
    {
      "channel": 0,
      "note": 77,
      "start": 14.5124,
      "duration": 0.1901,
      "velocity": 107,
      "chip": "ym2612"
    },
    {
      "channel": 1,
      "note": 30,
      "start": 14.5128,
      "duration": 0.1898,
      "velocity": 123,
      "chip": "ym2612"
    },
    {
      "channel": 0,
      "note": 78,
      "start": 14.7406,
      "duration": 0.1901,
      "velocity": 107,
      "chip": "ym2612"
    },
    {
      "channel": 1,
      "note": 47,
      "start": 14.7409,
      "duration": 0.1898,
      "velocity": 120,
      "chip": "ym2612"
    },
    {
      "channel": 2,
      "note": 63,
      "start": 14.8547,
      "duration": 0.076,
      "velocity": 115,
      "chip": "ym2612"
    },
    {
      "channel": 0,
      "note": 80,
      "start": 14.9687,
      "duration": 0.1901,
      "velocity": 107,
      "chip": "ym2612"
    },
    {
      "channel": 1,
      "note": 47,
      "start": 14.969,
      "duration": 0.1898,
      "velocity": 120,
      "chip": "ym2612"
    },
    {
      "channel": 2,
      "note": 57,
      "start": 14.9691,
      "duration": 0.1897,
      "velocity": 115,
      "chip": "ym2612"
    },
    {
      "channel": 0,
      "note": 82,
      "start": 15.1968,
      "duration": 0.1901,
      "velocity": 107,
      "chip": "ym2612"
    },
    {
      "channel": 1,
      "note": 30,
      "start": 15.1972,
      "duration": 0.0758,
      "velocity": 123,
      "chip": "ym2612"
    },
    {
      "channel": 2,
      "note": 56,
      "start": 15.1973,
      "duration": 0.0758,
      "velocity": 115,
      "chip": "ym2612"
    },
    {
      "channel": 1,
      "note": 78,
      "start": 15.3112,
      "duration": 0.0758,
      "velocity": 117,
      "chip": "ym2612"
    },
    {
      "channel": 2,
      "note": 56,
      "start": 15.3112,
      "duration": 0.0757,
      "velocity": 115,
      "chip": "ym2612"
    },
    {
      "channel": 0,
      "note": 83,
      "start": 15.425,
      "duration": 0.076,
      "velocity": 107,
      "chip": "ym2612"
    },
    {
      "channel": 1,
      "note": 78,
      "start": 15.4253,
      "duration": 0.0757,
      "velocity": 117,
      "chip": "ym2612"
    },
    {
      "channel": 0,
      "note": 82,
      "start": 15.5391,
      "duration": 0.1901,
      "velocity": 107,
      "chip": "ym2612"
    },
    {
      "channel": 1,
      "note": 78,
      "start": 15.5394,
      "duration": 0.0757,
      "velocity": 117,
      "chip": "ym2612"
    },
    {
      "channel": 1,
      "note": 47,
      "start": 15.6534,
      "duration": 0.0757,
      "velocity": 120,
      "chip": "ym2612"
    },
    {
      "channel": 0,
      "note": 85,
      "start": 15.7672,
      "duration": 0.076,
      "velocity": 107,
      "chip": "ym2612"
    },
    {
      "channel": 1,
      "note": 78,
      "start": 15.7676,
      "duration": 0.0757,
      "velocity": 117,
      "chip": "ym2612"
    },
    {
      "channel": 2,
      "note": 56,
      "start": 15.7676,
      "duration": 0.0756,
      "velocity": 115,
      "chip": "ym2612"
    },
    {
      "channel": 1,
      "note": 30,
      "start": 15.8816,
      "duration": 0.0757,
      "velocity": 123,
      "chip": "ym2612"
    },
    {
      "channel": 2,
      "note": 61,
      "start": 15.8817,
      "duration": 0.0757,
      "velocity": 115,
      "chip": "ym2612"
    },
    {
      "channel": 0,
      "note": 82,
      "start": 15.9954,
      "duration": 0.076,
      "velocity": 107,
      "chip": "ym2612"
    },
    {
      "channel": 1,
      "note": 30,
      "start": 15.9957,
      "duration": 0.0757,
      "velocity": 123,
      "chip": "ym2612"
    },
    {
      "channel": 2,
      "note": 61,
      "start": 15.9958,
      "duration": 0.0756,
      "velocity": 115,
      "chip": "ym2612"
    },
    {
      "channel": 0,
      "note": 83,
      "start": 16.1095,
      "duration": 0.076,
      "velocity": 107,
      "chip": "ym2612"
    },
    {
      "channel": 0,
      "note": 82,
      "start": 16.2235,
      "duration": 0.0761,
      "velocity": 107,
      "chip": "ym2612"
    },
    {
      "channel": 1,
      "note": 78,
      "start": 16.2238,
      "duration": 0.0757,
      "velocity": 127,
      "chip": "ym2612"
    },
    {
      "channel": 0,
      "note": 80,
      "start": 16.3378,
      "duration": 0.0759,
      "velocity": 107,
      "chip": "ym2612"
    },
    {
      "channel": 1,
      "note": 30,
      "start": 16.3381,
      "duration": 0.1896,
      "velocity": 123,
      "chip": "ym2612"
    },
    {
      "channel": 0,
      "note": 78,
      "start": 16.4517,
      "duration": 0.076,
      "velocity": 107,
      "chip": "ym2612"
    },
    {
      "channel": 1,
      "note": 47,
      "start": 16.566,
      "duration": 0.3039,
      "velocity": 120,
      "chip": "ym2612"
    },
    {
      "channel": 0,
      "note": 80,
      "start": 16.7939,
      "duration": 0.1901,
      "velocity": 107,
      "chip": "ym2612"
    },
    {
      "channel": 2,
      "note": 59,
      "start": 16.794,
      "duration": 0.1901,
      "velocity": 115,
      "chip": "ym2612"
    },
    {
      "channel": 1,
      "note": 30,
      "start": 16.9082,
      "duration": 0.0758,
      "velocity": 123,
      "chip": "ym2612"
    },
    {
      "channel": 0,
      "note": 82,
      "start": 17.022,
      "duration": 0.1901,
      "velocity": 107,
      "chip": "ym2612"
    },
    {
      "channel": 1,
      "note": 30,
      "start": 17.0224,
      "duration": 0.0757,
      "velocity": 123,
      "chip": "ym2612"
    },
    {
      "channel": 2,
      "note": 58,
      "start": 17.0224,
      "duration": 0.0756,
      "velocity": 115,
      "chip": "ym2612"
    },
    {
      "channel": 1,
      "note": 78,
      "start": 17.1364,
      "duration": 0.0758,
      "velocity": 117,
      "chip": "ym2612"
    },
    {
      "channel": 2,
      "note": 58,
      "start": 17.1365,
      "duration": 0.0757,
      "velocity": 115,
      "chip": "ym2612"
    },
    {
      "channel": 0,
      "note": 83,
      "start": 17.2502,
      "duration": 0.076,
      "velocity": 107,
      "chip": "ym2612"
    },
    {
      "channel": 1,
      "note": 78,
      "start": 17.2505,
      "duration": 0.0757,
      "velocity": 117,
      "chip": "ym2612"
    },
    {
      "channel": 0,
      "note": 82,
      "start": 17.3643,
      "duration": 0.1901,
      "velocity": 107,
      "chip": "ym2612"
    },
    {
      "channel": 1,
      "note": 78,
      "start": 17.3646,
      "duration": 0.0756,
      "velocity": 117,
      "chip": "ym2612"
    },
    {
      "channel": 1,
      "note": 47,
      "start": 17.4787,
      "duration": 0.0757,
      "velocity": 120,
      "chip": "ym2612"
    },
    {
      "channel": 0,
      "note": 87,
      "start": 17.5924,
      "duration": 0.076,
      "velocity": 107,
      "chip": "ym2612"
    },
    {
      "channel": 1,
      "note": 78,
      "start": 17.5928,
      "duration": 0.0757,
      "velocity": 117,
      "chip": "ym2612"
    },
    {
      "channel": 2,
      "note": 58,
      "start": 17.5929,
      "duration": 0.0756,
      "velocity": 115,
      "chip": "ym2612"
    },
    {
      "channel": 1,
      "note": 30,
      "start": 17.7068,
      "duration": 0.0757,
      "velocity": 123,
      "chip": "ym2612"
    },
    {
      "channel": 2,
      "note": 63,
      "start": 17.7068,
      "duration": 0.0757,
      "velocity": 115,
      "chip": "ym2612"
    },
    {
      "channel": 0,
      "note": 82,
      "start": 17.8206,
      "duration": 0.076,
      "velocity": 107,
      "chip": "ym2612"
    },
    {
      "channel": 1,
      "note": 30,
      "start": 17.821,
      "duration": 0.0756,
      "velocity": 123,
      "chip": "ym2612"
    },
    {
      "channel": 2,
      "note": 63,
      "start": 17.821,
      "duration": 0.0756,
      "velocity": 115,
      "chip": "ym2612"
    },
    {
      "channel": 0,
      "note": 83,
      "start": 17.9347,
      "duration": 0.076,
      "velocity": 107,
      "chip": "ym2612"
    },
    {
      "channel": 0,
      "note": 82,
      "start": 18.0487,
      "duration": 0.076,
      "velocity": 107,
      "chip": "ym2612"
    },
    {
      "channel": 1,
      "note": 78,
      "start": 18.049,
      "duration": 0.0757,
      "velocity": 127,
      "chip": "ym2612"
    },
    {
      "channel": 0,
      "note": 80,
      "start": 18.1628,
      "duration": 0.076,
      "velocity": 107,
      "chip": "ym2612"
    },
    {
      "channel": 1,
      "note": 30,
      "start": 18.1631,
      "duration": 0.1898,
      "velocity": 123,
      "chip": "ym2612"
    },
    {
      "channel": 1,
      "note": 47,
      "start": 18.3912,
      "duration": 0.3039,
      "velocity": 120,
      "chip": "ym2612"
    },
    {
      "channel": 2,
      "note": 51,
      "start": 18.3913,
      "duration": 0.0757,
      "velocity": 115,
      "chip": "ym2612"
    },
    {
      "channel": 0,
      "note": 87,
      "start": 18.5051,
      "duration": 0.1901,
      "velocity": 107,
      "chip": "ym2612"
    },
    {
      "channel": 2,
      "note": 54,
      "start": 18.5051,
      "duration": 0.3041,
      "velocity": 115,
      "chip": "ym2612"
    },
    {
      "channel": 0,
      "note": 89,
      "start": 18.7333,
      "duration": 0.076,
      "velocity": 107,
      "chip": "ym2612"
    },
    {
      "channel": 1,
      "note": 30,
      "start": 18.7336,
      "duration": 0.0756,
      "velocity": 123,
      "chip": "ym2612"
    },
    {
      "channel": 0,
      "note": 90,
      "start": 18.8473,
      "duration": 0.1901,
      "velocity": 107,
      "chip": "ym2612"
    },
    {
      "channel": 1,
      "note": 30,
      "start": 18.8476,
      "duration": 0.0757,
      "velocity": 123,
      "chip": "ym2612"
    },
    {
      "channel": 2,
      "note": 56,
      "start": 18.8477,
      "duration": 0.0756,
      "velocity": 115,
      "chip": "ym2612"
    },
    {
      "channel": 1,
      "note": 78,
      "start": 18.9617,
      "duration": 0.0757,
      "velocity": 117,
      "chip": "ym2612"
    },
    {
      "channel": 2,
      "note": 56,
      "start": 18.9617,
      "duration": 0.0757,
      "velocity": 115,
      "chip": "ym2612"
    },
    {
      "channel": 0,
      "note": 89,
      "start": 19.0754,
      "duration": 0.0761,
      "velocity": 107,
      "chip": "ym2612"
    },
    {
      "channel": 1,
      "note": 78,
      "start": 19.0758,
      "duration": 0.0757,
      "velocity": 117,
      "chip": "ym2612"
    },
    {
      "channel": 0,
      "note": 87,
      "start": 19.1895,
      "duration": 0.1902,
      "velocity": 107,
      "chip": "ym2612"
    },
    {
      "channel": 1,
      "note": 78,
      "start": 19.1898,
      "duration": 0.0758,
      "velocity": 117,
      "chip": "ym2612"
    },
    {
      "channel": 1,
      "note": 47,
      "start": 19.304,
      "duration": 0.0757,
      "velocity": 120,
      "chip": "ym2612"
    },
    {
      "channel": 0,
      "note": 92,
      "start": 19.4177,
      "duration": 0.076,
      "velocity": 107,
      "chip": "ym2612"
    },
    {
      "channel": 1,
      "note": 78,
      "start": 19.418,
      "duration": 0.0757,
      "velocity": 117,
      "chip": "ym2612"
    },
    {
      "channel": 2,
      "note": 56,
      "start": 19.418,
      "duration": 0.0757,
      "velocity": 115,
      "chip": "ym2612"
    },
    {
      "channel": 1,
      "note": 30,
      "start": 19.532,
      "duration": 0.0757,
      "velocity": 123,
      "chip": "ym2612"
    },
    {
      "channel": 2,
      "note": 61,
      "start": 19.5321,
      "duration": 0.0756,
      "velocity": 115,
      "chip": "ym2612"
    },
    {
      "channel": 0,
      "note": 87,
      "start": 19.6458,
      "duration": 0.0761,
      "velocity": 107,
      "chip": "ym2612"
    },
    {
      "channel": 1,
      "note": 30,
      "start": 19.6462,
      "duration": 0.0757,
      "velocity": 123,
      "chip": "ym2612"
    },
    {
      "channel": 2,
      "note": 61,
      "start": 19.6462,
      "duration": 0.0757,
      "velocity": 115,
      "chip": "ym2612"
    },
    {
      "channel": 0,
      "note": 89,
      "start": 19.7599,
      "duration": 0.076,
      "velocity": 107,
      "chip": "ym2612"
    },
    {
      "channel": 0,
      "note": 87,
      "start": 19.874,
      "duration": 0.076,
      "velocity": 107,
      "chip": "ym2612"
    },
    {
      "channel": 1,
      "note": 78,
      "start": 19.8743,
      "duration": 0.0757,
      "velocity": 127,
      "chip": "ym2612"
    },
    {
      "channel": 1,
      "note": 30,
      "start": 19.9884,
      "duration": 0.1898,
      "velocity": 123,
      "chip": "ym2612"
    },
    {
      "channel": 0,
      "note": 85,
      "start": 20.1022,
      "duration": 0.076,
      "velocity": 107,
      "chip": "ym2612"
    },
    {
      "channel": 1,
      "note": 47,
      "start": 20.2165,
      "duration": 0.3039,
      "velocity": 120,
      "chip": "ym2612"
    },
    {
      "channel": 0,
      "note": 82,
      "start": 20.3303,
      "duration": 0.076,
      "velocity": 107,
      "chip": "ym2612"
    },
    {
      "channel": 2,
      "note": 59,
      "start": 20.4444,
      "duration": 0.1901,
      "velocity": 115,
      "chip": "ym2612"
    },
    {
      "channel": 0,
      "note": 85,
      "start": 20.5584,
      "duration": 0.7605,
      "velocity": 107,
      "chip": "ym2612"
    },
    {
      "channel": 1,
      "note": 30,
      "start": 20.5588,
      "duration": 0.0757,
      "velocity": 123,
      "chip": "ym2612"
    },
    {
      "channel": 1,
      "note": 30,
      "start": 20.6728,
      "duration": 0.0757,
      "velocity": 123,
      "chip": "ym2612"
    },
    {
      "channel": 2,
      "note": 58,
      "start": 20.6729,
      "duration": 0.0757,
      "velocity": 115,
      "chip": "ym2612"
    },
    {
      "channel": 1,
      "note": 78,
      "start": 20.7868,
      "duration": 0.0758,
      "velocity": 117,
      "chip": "ym2612"
    },
    {
      "channel": 2,
      "note": 70,
      "start": 20.7869,
      "duration": 0.1898,
      "velocity": 115,
      "chip": "ym2612"
    },
    {
      "channel": 1,
      "note": 78,
      "start": 20.901,
      "duration": 0.0757,
      "velocity": 117,
      "chip": "ym2612"
    },
    {
      "channel": 1,
      "note": 78,
      "start": 21.015,
      "duration": 0.0758,
      "velocity": 117,
      "chip": "ym2612"
    },
    {
      "channel": 2,
      "note": 68,
      "start": 21.0151,
      "duration": 0.0757,
      "velocity": 115,
      "chip": "ym2612"
    },
    {
      "channel": 1,
      "note": 47,
      "start": 21.1291,
      "duration": 0.0757,
      "velocity": 120,
      "chip": "ym2612"
    },
    {
      "channel": 1,
      "note": 78,
      "start": 21.2432,
      "duration": 0.0757,
      "velocity": 117,
      "chip": "ym2612"
    },
    {
      "channel": 2,
      "note": 66,
      "start": 21.2432,
      "duration": 0.0757,
      "velocity": 115,
      "chip": "ym2612"
    },
    {
      "channel": 0,
      "note": 87,
      "start": 21.357,
      "duration": 0.076,
      "velocity": 107,
      "chip": "ym2612"
    },
    {
      "channel": 1,
      "note": 30,
      "start": 21.3573,
      "duration": 0.0757,
      "velocity": 123,
      "chip": "ym2612"
    },
    {
      "channel": 2,
      "note": 68,
      "start": 21.3574,
      "duration": 0.0756,
      "velocity": 115,
      "chip": "ym2612"
    },
    {
      "channel": 0,
      "note": 87,
      "start": 21.471,
      "duration": 0.076,
      "velocity": 107,
      "chip": "ym2612"
    },
    {
      "channel": 1,
      "note": 30,
      "start": 21.4714,
      "duration": 0.0757,
      "velocity": 123,
      "chip": "ym2612"
    },
    {
      "channel": 2,
      "note": 63,
      "start": 21.4715,
      "duration": 0.0756,
      "velocity": 115,
      "chip": "ym2612"
    },
    {
      "channel": 1,
      "note": 78,
      "start": 21.6995,
      "duration": 0.0757,
      "velocity": 127,
      "chip": "ym2612"
    },
    {
      "channel": 2,
      "note": 63,
      "start": 21.6995,
      "duration": 0.0757,
      "velocity": 115,
      "chip": "ym2612"
    },
    {
      "channel": 1,
      "note": 30,
      "start": 21.8135,
      "duration": 0.1899,
      "velocity": 123,
      "chip": "ym2612"
    },
    {
      "channel": 2,
      "note": 61,
      "start": 21.8136,
      "duration": 0.0757,
      "velocity": 115,
      "chip": "ym2612"
    },
    {
      "channel": 1,
      "note": 47,
      "start": 22.0417,
      "duration": 0.1898,
      "velocity": 120,
      "chip": "ym2612"
    },
    {
      "channel": 2,
      "note": 56,
      "start": 22.0417,
      "duration": 0.0758,
      "velocity": 115,
      "chip": "ym2612"
    },
    {
      "channel": 0,
      "note": 89,
      "start": 22.1557,
      "duration": 0.0758,
      "velocity": 99,
      "chip": "ym2612"
    },
    {
      "channel": 2,
      "note": 58,
      "start": 22.1558,
      "duration": 0.3039,
      "velocity": 115,
      "chip": "ym2612"
    },
    {
      "channel": 0,
      "note": 90,
      "start": 22.2695,
      "duration": 0.076,
      "velocity": 99,
      "chip": "ym2612"
    },
    {
      "channel": 1,
      "note": 47,
      "start": 22.2699,
      "duration": 0.1898,
      "velocity": 120,
      "chip": "ym2612"
    },
    {
      "channel": 0,
      "note": 92,
      "start": 22.3836,
      "duration": 0.076,
      "velocity": 99,
      "chip": "ym2612"
    },
    {
      "channel": 0,
      "note": 94,
      "start": 22.4977,
      "duration": 0.8745,
      "velocity": 99,
      "chip": "ym2612"
    },
    {
      "channel": 1,
      "note": 30,
      "start": 22.4981,
      "duration": 0.0756,
      "velocity": 123,
      "chip": "ym2612"
    },
    {
      "channel": 2,
      "note": 59,
      "start": 22.4982,
      "duration": 0.1897,
      "velocity": 115,
      "chip": "ym2612"
    },
    {
      "channel": 1,
      "note": 78,
      "start": 22.6121,
      "duration": 0.0758,
      "velocity": 117,
      "chip": "ym2612"
    },
    {
      "channel": 1,
      "note": 78,
      "start": 22.7261,
      "duration": 0.0758,
      "velocity": 117,
      "chip": "ym2612"
    },
    {
      "channel": 1,
      "note": 78,
      "start": 22.8402,
      "duration": 0.0758,
      "velocity": 117,
      "chip": "ym2612"
    },
    {
      "channel": 1,
      "note": 47,
      "start": 22.9543,
      "duration": 0.0757,
      "velocity": 120,
      "chip": "ym2612"
    },
    {
      "channel": 2,
      "note": 59,
      "start": 22.9544,
      "duration": 0.0756,
      "velocity": 115,
      "chip": "ym2612"
    },
    {
      "channel": 1,
      "note": 78,
      "start": 23.0683,
      "duration": 0.0758,
      "velocity": 117,
      "chip": "ym2612"
    },
    {
      "channel": 2,
      "note": 59,
      "start": 23.0684,
      "duration": 0.0758,
      "velocity": 115,
      "chip": "ym2612"
    },
    {
      "channel": 1,
      "note": 30,
      "start": 23.1824,
      "duration": 0.0758,
      "velocity": 123,
      "chip": "ym2612"
    },
    {
      "channel": 1,
      "note": 30,
      "start": 23.2965,
      "duration": 0.0757,
      "velocity": 123,
      "chip": "ym2612"
    },
    {
      "channel": 2,
      "note": 59,
      "start": 23.2966,
      "duration": 0.1897,
      "velocity": 115,
      "chip": "ym2612"
    },
    {
      "channel": 1,
      "note": 78,
      "start": 23.5247,
      "duration": 0.0757,
      "velocity": 127,
      "chip": "ym2612"
    },
    {
      "channel": 2,
      "note": 71,
      "start": 23.5248,
      "duration": 0.0756,
      "velocity": 115,
      "chip": "ym2612"
    },
    {
      "channel": 0,
      "note": 94,
      "start": 23.6385,
      "duration": 0.1901,
      "velocity": 99,
      "chip": "ym2612"
    },
    {
      "channel": 1,
      "note": 30,
      "start": 23.6388,
      "duration": 0.1898,
      "velocity": 123,
      "chip": "ym2612"
    },
    {
      "channel": 2,
      "note": 61,
      "start": 23.6389,
      "duration": 0.1897,
      "velocity": 115,
      "chip": "ym2612"
    },
    {
      "channel": 0,
      "note": 95,
      "start": 23.8666,
      "duration": 0.1901,
      "velocity": 99,
      "chip": "ym2612"
    },
    {
      "channel": 1,
      "note": 47,
      "start": 23.867,
      "duration": 0.3038,
      "velocity": 120,
      "chip": "ym2612"
    },
    {
      "channel": 2,
      "note": 59,
      "start": 23.8671,
      "duration": 0.4178,
      "velocity": 115,
      "chip": "ym2612"
    },
    {
      "channel": 0,
      "note": 94,
      "start": 24.0948,
      "duration": 0.1901,
      "velocity": 99,
      "chip": "ym2612"
    },
    {
      "channel": 1,
      "note": 30,
      "start": 24.2092,
      "duration": 0.0757,
      "velocity": 123,
      "chip": "ym2612"
    },
    {
      "channel": 0,
      "note": 92,
      "start": 24.3229,
      "duration": 0.6463,
      "velocity": 99,
      "chip": "ym2612"
    },
    {
      "channel": 1,
      "note": 30,
      "start": 24.3233,
      "duration": 0.0756,
      "velocity": 123,
      "chip": "ym2612"
    },
    {
      "channel": 2,
      "note": 58,
      "start": 24.3234,
      "duration": 0.1896,
      "velocity": 115,
      "chip": "ym2612"
    },
    {
      "channel": 1,
      "note": 78,
      "start": 24.4376,
      "duration": 0.0754,
      "velocity": 117,
      "chip": "ym2612"
    },
    {
      "channel": 1,
      "note": 78,
      "start": 24.5513,
      "duration": 0.0758,
      "velocity": 117,
      "chip": "ym2612"
    },
    {
      "channel": 1,
      "note": 78,
      "start": 24.6654,
      "duration": 0.0758,
      "velocity": 117,
      "chip": "ym2612"
    },
    {
      "channel": 1,
      "note": 47,
      "start": 24.7795,
      "duration": 0.0758,
      "velocity": 120,
      "chip": "ym2612"
    },
    {
      "channel": 2,
      "note": 58,
      "start": 24.7795,
      "duration": 0.0757,
      "velocity": 115,
      "chip": "ym2612"
    },
    {
      "channel": 1,
      "note": 78,
      "start": 24.8936,
      "duration": 0.0757,
      "velocity": 117,
      "chip": "ym2612"
    },
    {
      "channel": 2,
      "note": 58,
      "start": 24.8936,
      "duration": 0.0757,
      "velocity": 115,
      "chip": "ym2612"
    },
    {
      "channel": 0,
      "note": 89,
      "start": 25.0073,
      "duration": 0.8745,
      "velocity": 99,
      "chip": "ym2612"
    },
    {
      "channel": 1,
      "note": 30,
      "start": 25.0079,
      "duration": 0.0755,
      "velocity": 123,
      "chip": "ym2612"
    },
    {
      "channel": 1,
      "note": 30,
      "start": 25.1217,
      "duration": 0.0758,
      "velocity": 123,
      "chip": "ym2612"
    },
    {
      "channel": 2,
      "note": 58,
      "start": 25.1218,
      "duration": 0.1898,
      "velocity": 115,
      "chip": "ym2612"
    },
    {
      "channel": 1,
      "note": 78,
      "start": 25.3498,
      "duration": 0.0758,
      "velocity": 127,
      "chip": "ym2612"
    },
    {
      "channel": 2,
      "note": 70,
      "start": 25.3499,
      "duration": 0.0758,
      "velocity": 115,
      "chip": "ym2612"
    },
    {
      "channel": 1,
      "note": 30,
      "start": 25.4639,
      "duration": 0.1898,
      "velocity": 123,
      "chip": "ym2612"
    },
    {
      "channel": 2,
      "note": 59,
      "start": 25.4641,
      "duration": 0.1897,
      "velocity": 115,
      "chip": "ym2612"
    },
    {
      "channel": 1,
      "note": 47,
      "start": 25.6922,
      "duration": 0.3038,
      "velocity": 120,
      "chip": "ym2612"
    },
    {
      "channel": 2,
      "note": 58,
      "start": 25.6922,
      "duration": 0.1897,
      "velocity": 115,
      "chip": "ym2612"
    },
    {
      "channel": 0,
      "note": 89,
      "start": 25.92,
      "duration": 0.1901,
      "velocity": 99,
      "chip": "ym2612"
    },
    {
      "channel": 2,
      "note": 57,
      "start": 25.92,
      "duration": 0.1901,
      "velocity": 115,
      "chip": "ym2612"
    },
    {
      "channel": 1,
      "note": 30,
      "start": 26.0343,
      "duration": 0.0758,
      "velocity": 123,
      "chip": "ym2612"
    },
    {
      "channel": 0,
      "note": 90,
      "start": 26.1481,
      "duration": 0.4183,
      "velocity": 99,
      "chip": "ym2612"
    },
    {
      "channel": 1,
      "note": 30,
      "start": 26.1485,
      "duration": 0.0757,
      "velocity": 123,
      "chip": "ym2612"
    },
    {
      "channel": 2,
      "note": 56,
      "start": 26.1485,
      "duration": 0.0756,
      "velocity": 115,
      "chip": "ym2612"
    },
    {
      "channel": 1,
      "note": 78,
      "start": 26.2625,
      "duration": 0.0756,
      "velocity": 117,
      "chip": "ym2612"
    },
    {
      "channel": 2,
      "note": 56,
      "start": 26.2626,
      "duration": 0.0756,
      "velocity": 115,
      "chip": "ym2612"
    },
    {
      "channel": 1,
      "note": 78,
      "start": 26.3765,
      "duration": 0.0758,
      "velocity": 117,
      "chip": "ym2612"
    },
    {
      "channel": 1,
      "note": 78,
      "start": 26.4906,
      "duration": 0.0757,
      "velocity": 117,
      "chip": "ym2612"
    },
    {
      "channel": 0,
      "note": 94,
      "start": 26.6044,
      "duration": 0.4183,
      "velocity": 99,
      "chip": "ym2612"
    },
    {
      "channel": 1,
      "note": 47,
      "start": 26.6047,
      "duration": 0.0757,
      "velocity": 120,
      "chip": "ym2612"
    },
    {
      "channel": 1,
      "note": 78,
      "start": 26.7187,
      "duration": 0.0758,
      "velocity": 117,
      "chip": "ym2612"
    },
    {
      "channel": 2,
      "note": 56,
      "start": 26.7188,
      "duration": 0.0757,
      "velocity": 115,
      "chip": "ym2612"
    },
    {
      "channel": 1,
      "note": 30,
      "start": 26.8328,
      "duration": 0.0758,
      "velocity": 123,
      "chip": "ym2612"
    },
    {
      "channel": 2,
      "note": 61,
      "start": 26.8329,
      "duration": 0.0757,
      "velocity": 115,
      "chip": "ym2612"
    },
    {
      "channel": 1,
      "note": 30,
      "start": 26.9469,
      "duration": 0.0758,
      "velocity": 123,
      "chip": "ym2612"
    },
    {
      "channel": 2,
      "note": 61,
      "start": 26.947,
      "duration": 0.0757,
      "velocity": 115,
      "chip": "ym2612"
    },
    {
      "channel": 0,
      "note": 92,
      "start": 27.0607,
      "duration": 0.6464,
      "velocity": 99,
      "chip": "ym2612"
    },
    {
      "channel": 1,
      "note": 78,
      "start": 27.1751,
      "duration": 0.0758,
      "velocity": 127,
      "chip": "ym2612"
    },
    {
      "channel": 1,
      "note": 30,
      "start": 27.2892,
      "duration": 0.1899,
      "velocity": 123,
      "chip": "ym2612"
    },
    {
      "channel": 1,
      "note": 47,
      "start": 27.5173,
      "duration": 0.3039,
      "velocity": 120,
      "chip": "ym2612"
    },
    {
      "channel": 0,
      "note": 85,
      "start": 27.7452,
      "duration": 0.076,
      "velocity": 99,
      "chip": "ym2612"
    },
    {
      "channel": 2,
      "note": 59,
      "start": 27.7453,
      "duration": 0.19,
      "velocity": 115,
      "chip": "ym2612"
    },
    {
      "channel": 1,
      "note": 30,
      "start": 27.8598,
      "duration": 0.0755,
      "velocity": 123,
      "chip": "ym2612"
    },
    {
      "channel": 0,
      "note": 85,
      "start": 27.9734,
      "duration": 0.1901,
      "velocity": 99,
      "chip": "ym2612"
    },
    {
      "channel": 1,
      "note": 30,
      "start": 27.9737,
      "duration": 0.0757,
      "velocity": 123,
      "chip": "ym2612"
    },
    {
      "channel": 2,
      "note": 58,
      "start": 27.9738,
      "duration": 0.0756,
      "velocity": 115,
      "chip": "ym2612"
    },
    {
      "channel": 1,
      "note": 78,
      "start": 28.0877,
      "duration": 0.0757,
      "velocity": 117,
      "chip": "ym2612"
    },
    {
      "channel": 2,
      "note": 70,
      "start": 28.0878,
      "duration": 0.1898,
      "velocity": 115,
      "chip": "ym2612"
    },
    {
      "channel": 0,
      "note": 87,
      "start": 28.2015,
      "duration": 0.076,
      "velocity": 99,
      "chip": "ym2612"
    },
    {
      "channel": 1,
      "note": 78,
      "start": 28.2018,
      "duration": 0.0757,
      "velocity": 117,
      "chip": "ym2612"
    },
    {
      "channel": 0,
      "note": 87,
      "start": 28.3156,
      "duration": 0.9886,
      "velocity": 99,
      "chip": "ym2612"
    },
    {
      "channel": 1,
      "note": 78,
      "start": 28.3159,
      "duration": 0.0757,
      "velocity": 117,
      "chip": "ym2612"
    },
    {
      "channel": 2,
      "note": 68,
      "start": 28.316,
      "duration": 0.0757,
      "velocity": 115,
      "chip": "ym2612"
    },
    {
      "channel": 1,
      "note": 47,
      "start": 28.43,
      "duration": 0.0758,
      "velocity": 120,
      "chip": "ym2612"
    },
    {
      "channel": 1,
      "note": 78,
      "start": 28.5441,
      "duration": 0.0757,
      "velocity": 117,
      "chip": "ym2612"
    },
    {
      "channel": 2,
      "note": 66,
      "start": 28.5441,
      "duration": 0.0756,
      "velocity": 115,
      "chip": "ym2612"
    },
    {
      "channel": 1,
      "note": 30,
      "start": 28.658,
      "duration": 0.0758,
      "velocity": 123,
      "chip": "ym2612"
    },
    {
      "channel": 2,
      "note": 68,
      "start": 28.6581,
      "duration": 0.0757,
      "velocity": 115,
      "chip": "ym2612"
    },
    {
      "channel": 1,
      "note": 30,
      "start": 28.7722,
      "duration": 0.0757,
      "velocity": 123,
      "chip": "ym2612"
    },
    {
      "channel": 2,
      "note": 63,
      "start": 28.7723,
      "duration": 0.0756,
      "velocity": 115,
      "chip": "ym2612"
    },
    {
      "channel": 1,
      "note": 78,
      "start": 29.0003,
      "duration": 0.0758,
      "velocity": 127,
      "chip": "ym2612"
    },
    {
      "channel": 2,
      "note": 63,
      "start": 29.0004,
      "duration": 0.0757,
      "velocity": 115,
      "chip": "ym2612"
    },
    {
      "channel": 1,
      "note": 47,
      "start": 29.1145,
      "duration": 0.0757,
      "velocity": 120,
      "chip": "ym2612"
    },
    {
      "channel": 2,
      "note": 61,
      "start": 29.1146,
      "duration": 0.0756,
      "velocity": 115,
      "chip": "ym2612"
    },
    {
      "channel": 1,
      "note": 47,
      "start": 29.2285,
      "duration": 0.1898,
      "velocity": 120,
      "chip": "ym2612"
    },
    {
      "channel": 2,
      "note": 59,
      "start": 29.3426,
      "duration": 0.1898,
      "velocity": 115,
      "chip": "ym2612"
    },
    {
      "channel": 0,
      "note": 89,
      "start": 29.4563,
      "duration": 0.076,
      "velocity": 99,
      "chip": "ym2612"
    },
    {
      "channel": 1,
      "note": 47,
      "start": 29.4567,
      "duration": 0.0757,
      "velocity": 120,
      "chip": "ym2612"
    },
    {
      "channel": 0,
      "note": 90,
      "start": 29.5705,
      "duration": 0.076,
      "velocity": 99,
      "chip": "ym2612"
    },
    {
      "channel": 1,
      "note": 47,
      "start": 29.5708,
      "duration": 0.1898,
      "velocity": 120,
      "chip": "ym2612"
    },
    {
      "channel": 2,
      "note": 58,
      "start": 29.5709,
      "duration": 0.1897,
      "velocity": 115,
      "chip": "ym2612"
    },
    {
      "channel": 0,
      "note": 92,
      "start": 29.6846,
      "duration": 0.0759,
      "velocity": 99,
      "chip": "ym2612"
    },
    {
      "channel": 0,
      "note": 94,
      "start": 29.7986,
      "duration": 0.8746,
      "velocity": 99,
      "chip": "ym2612"
    },
    {
      "channel": 1,
      "note": 30,
      "start": 29.7989,
      "duration": 0.0757,
      "velocity": 123,
      "chip": "ym2612"
    },
    {
      "channel": 2,
      "note": 59,
      "start": 29.799,
      "duration": 0.1897,
      "velocity": 115,
      "chip": "ym2612"
    },
    {
      "channel": 1,
      "note": 78,
      "start": 29.9129,
      "duration": 0.0758,
      "velocity": 117,
      "chip": "ym2612"
    },
    {
      "channel": 1,
      "note": 78,
      "start": 30.0271,
      "duration": 0.0758,
      "velocity": 117,
      "chip": "ym2612"
    },
    {
      "channel": 1,
      "note": 78,
      "start": 30.1411,
      "duration": 0.0758,
      "velocity": 117,
      "chip": "ym2612"
    },
    {
      "channel": 1,
      "note": 47,
      "start": 30.2554,
      "duration": 0.0756,
      "velocity": 120,
      "chip": "ym2612"
    },
    {
      "channel": 2,
      "note": 59,
      "start": 30.2554,
      "duration": 0.0756,
      "velocity": 115,
      "chip": "ym2612"
    },
    {
      "channel": 1,
      "note": 78,
      "start": 30.3693,
      "duration": 0.0759,
      "velocity": 117,
      "chip": "ym2612"
    },
    {
      "channel": 2,
      "note": 59,
      "start": 30.3694,
      "duration": 0.0758,
      "velocity": 115,
      "chip": "ym2612"
    },
    {
      "channel": 1,
      "note": 30,
      "start": 30.4834,
      "duration": 0.076,
      "velocity": 123,
      "chip": "ym2612"
    },
    {
      "channel": 1,
      "note": 30,
      "start": 30.5974,
      "duration": 0.0758,
      "velocity": 123,
      "chip": "ym2612"
    },
    {
      "channel": 2,
      "note": 59,
      "start": 30.5975,
      "duration": 0.1898,
      "velocity": 115,
      "chip": "ym2612"
    },
    {
      "channel": 1,
      "note": 78,
      "start": 30.8258,
      "duration": 0.0756,
      "velocity": 127,
      "chip": "ym2612"
    },
    {
      "channel": 2,
      "note": 71,
      "start": 30.8258,
      "duration": 0.0756,
      "velocity": 115,
      "chip": "ym2612"
    },
    {
      "channel": 0,
      "note": 94,
      "start": 30.9394,
      "duration": 0.1901,
      "velocity": 99,
      "chip": "ym2612"
    },
    {
      "channel": 1,
      "note": 30,
      "start": 30.9397,
      "duration": 0.1898,
      "velocity": 123,
      "chip": "ym2612"
    },
    {
      "channel": 2,
      "note": 61,
      "start": 30.9398,
      "duration": 0.1897,
      "velocity": 115,
      "chip": "ym2612"
    },
    {
      "channel": 0,
      "note": 95,
      "start": 31.1676,
      "duration": 0.1901,
      "velocity": 99,
      "chip": "ym2612"
    },
    {
      "channel": 1,
      "note": 47,
      "start": 31.1679,
      "duration": 0.3039,
      "velocity": 120,
      "chip": "ym2612"
    },
    {
      "channel": 2,
      "note": 59,
      "start": 31.168,
      "duration": 0.4179,
      "velocity": 115,
      "chip": "ym2612"
    },
    {
      "channel": 0,
      "note": 94,
      "start": 31.3959,
      "duration": 0.1899,
      "velocity": 99,
      "chip": "ym2612"
    },
    {
      "channel": 1,
      "note": 30,
      "start": 31.5101,
      "duration": 0.0758,
      "velocity": 123,
      "chip": "ym2612"
    },
    {
      "channel": 0,
      "note": 92,
      "start": 31.6239,
      "duration": 0.6464,
      "velocity": 99,
      "chip": "ym2612"
    },
    {
      "channel": 1,
      "note": 30,
      "start": 31.6242,
      "duration": 0.0756,
      "velocity": 123,
      "chip": "ym2612"
    },
    {
      "channel": 2,
      "note": 58,
      "start": 31.6243,
      "duration": 0.1897,
      "velocity": 115,
      "chip": "ym2612"
    },
    {
      "channel": 1,
      "note": 78,
      "start": 31.7383,
      "duration": 0.0757,
      "velocity": 117,
      "chip": "ym2612"
    },
    {
      "channel": 1,
      "note": 78,
      "start": 31.8523,
      "duration": 0.0757,
      "velocity": 117,
      "chip": "ym2612"
    },
    {
      "channel": 1,
      "note": 78,
      "start": 31.9665,
      "duration": 0.0757,
      "velocity": 117,
      "chip": "ym2612"
    },
    {
      "channel": 1,
      "note": 47,
      "start": 32.0805,
      "duration": 0.0757,
      "velocity": 120,
      "chip": "ym2612"
    },
    {
      "channel": 2,
      "note": 58,
      "start": 32.0806,
      "duration": 0.0757,
      "velocity": 115,
      "chip": "ym2612"
    },
    {
      "channel": 1,
      "note": 78,
      "start": 32.1946,
      "duration": 0.0758,
      "velocity": 117,
      "chip": "ym2612"
    },
    {
      "channel": 2,
      "note": 58,
      "start": 32.1946,
      "duration": 0.0757,
      "velocity": 115,
      "chip": "ym2612"
    },
    {
      "channel": 0,
      "note": 89,
      "start": 32.3083,
      "duration": 0.076,
      "velocity": 99,
      "chip": "ym2612"
    },
    {
      "channel": 1,
      "note": 30,
      "start": 32.3087,
      "duration": 0.0757,
      "velocity": 123,
      "chip": "ym2612"
    },
    {
      "channel": 0,
      "note": 89,
      "start": 32.4224,
      "duration": 0.7604,
      "velocity": 99,
      "chip": "ym2612"
    },
    {
      "channel": 1,
      "note": 30,
      "start": 32.4228,
      "duration": 0.0757,
      "velocity": 123,
      "chip": "ym2612"
    },
    {
      "channel": 2,
      "note": 58,
      "start": 32.4229,
      "duration": 0.1896,
      "velocity": 115,
      "chip": "ym2612"
    },
    {
      "channel": 1,
      "note": 78,
      "start": 32.6508,
      "duration": 0.0757,
      "velocity": 127,
      "chip": "ym2612"
    },
    {
      "channel": 2,
      "note": 70,
      "start": 32.6509,
      "duration": 0.0757,
      "velocity": 115,
      "chip": "ym2612"
    },
    {
      "channel": 1,
      "note": 30,
      "start": 32.7649,
      "duration": 0.1899,
      "velocity": 123,
      "chip": "ym2612"
    },
    {
      "channel": 2,
      "note": 59,
      "start": 32.7649,
      "duration": 0.1898,
      "velocity": 115,
      "chip": "ym2612"
    },
    {
      "channel": 1,
      "note": 47,
      "start": 32.9931,
      "duration": 0.3039,
      "velocity": 120,
      "chip": "ym2612"
    },
    {
      "channel": 2,
      "note": 58,
      "start": 32.9931,
      "duration": 0.1898,
      "velocity": 115,
      "chip": "ym2612"
    },
    {
      "channel": 0,
      "note": 89,
      "start": 33.2209,
      "duration": 0.1901,
      "velocity": 99,
      "chip": "ym2612"
    },
    {
      "channel": 2,
      "note": 57,
      "start": 33.221,
      "duration": 0.19,
      "velocity": 115,
      "chip": "ym2612"
    },
    {
      "channel": 1,
      "note": 30,
      "start": 33.3353,
      "duration": 0.0758,
      "velocity": 123,
      "chip": "ym2612"
    },
    {
      "channel": 0,
      "note": 90,
      "start": 33.4491,
      "duration": 0.4182,
      "velocity": 99,
      "chip": "ym2612"
    },
    {
      "channel": 1,
      "note": 30,
      "start": 33.4494,
      "duration": 0.0757,
      "velocity": 123,
      "chip": "ym2612"
    },
    {
      "channel": 2,
      "note": 56,
      "start": 33.4495,
      "duration": 0.0756,
      "velocity": 115,
      "chip": "ym2612"
    },
    {
      "channel": 1,
      "note": 78,
      "start": 33.5634,
      "duration": 0.0757,
      "velocity": 117,
      "chip": "ym2612"
    },
    {
      "channel": 2,
      "note": 56,
      "start": 33.5635,
      "duration": 0.0757,
      "velocity": 115,
      "chip": "ym2612"
    },
    {
      "channel": 1,
      "note": 78,
      "start": 33.6776,
      "duration": 0.0756,
      "velocity": 117,
      "chip": "ym2612"
    },
    {
      "channel": 1,
      "note": 78,
      "start": 33.7915,
      "duration": 0.0758,
      "velocity": 117,
      "chip": "ym2612"
    },
    {
      "channel": 0,
      "note": 94,
      "start": 33.9054,
      "duration": 0.4183,
      "velocity": 99,
      "chip": "ym2612"
    },
    {
      "channel": 1,
      "note": 47,
      "start": 33.9057,
      "duration": 0.0757,
      "velocity": 120,
      "chip": "ym2612"
    },
    {
      "channel": 1,
      "note": 78,
      "start": 34.0197,
      "duration": 0.0758,
      "velocity": 117,
      "chip": "ym2612"
    },
    {
      "channel": 2,
      "note": 56,
      "start": 34.0198,
      "duration": 0.0757,
      "velocity": 115,
      "chip": "ym2612"
    },
    {
      "channel": 1,
      "note": 30,
      "start": 34.1338,
      "duration": 0.0757,
      "velocity": 123,
      "chip": "ym2612"
    },
    {
      "channel": 2,
      "note": 58,
      "start": 34.1339,
      "duration": 0.0757,
      "velocity": 115,
      "chip": "ym2612"
    },
    {
      "channel": 1,
      "note": 30,
      "start": 34.248,
      "duration": 0.0756,
      "velocity": 123,
      "chip": "ym2612"
    },
    {
      "channel": 2,
      "note": 58,
      "start": 34.2481,
      "duration": 0.0756,
      "velocity": 115,
      "chip": "ym2612"
    },
    {
      "channel": 0,
      "note": 92,
      "start": 34.3617,
      "duration": 0.4182,
      "velocity": 99,
      "chip": "ym2612"
    },
    {
      "channel": 1,
      "note": 78,
      "start": 34.476,
      "duration": 0.0758,
      "velocity": 127,
      "chip": "ym2612"
    },
    {
      "channel": 1,
      "note": 30,
      "start": 34.5901,
      "duration": 0.1898,
      "velocity": 123,
      "chip": "ym2612"
    },
    {
      "channel": 0,
      "note": 97,
      "start": 34.818,
      "duration": 0.6464,
      "velocity": 99,
      "chip": "ym2612"
    },
    {
      "channel": 1,
      "note": 47,
      "start": 34.8185,
      "duration": 0.3037,
      "velocity": 120,
      "chip": "ym2612"
    },
    {
      "channel": 2,
      "note": 58,
      "start": 35.0461,
      "duration": 0.1901,
      "velocity": 115,
      "chip": "ym2612"
    },
    {
      "channel": 1,
      "note": 30,
      "start": 35.1605,
      "duration": 0.0758,
      "velocity": 123,
      "chip": "ym2612"
    },
    {
      "channel": 1,
      "note": 30,
      "start": 35.2746,
      "duration": 0.0757,
      "velocity": 123,
      "chip": "ym2612"
    },
    {
      "channel": 2,
      "note": 59,
      "start": 35.2747,
      "duration": 0.0757,
      "velocity": 115,
      "chip": "ym2612"
    },
    {
      "channel": 1,
      "note": 78,
      "start": 35.3887,
      "duration": 0.0757,
      "velocity": 117,
      "chip": "ym2612"
    },
    {
      "channel": 2,
      "note": 59,
      "start": 35.3889,
      "duration": 0.0755,
      "velocity": 115,
      "chip": "ym2612"
    },
    {
      "channel": 0,
      "note": 95,
      "start": 35.5024,
      "duration": 0.076,
      "velocity": 99,
      "chip": "ym2612"
    },
    {
      "channel": 1,
      "note": 78,
      "start": 35.5028,
      "duration": 0.0757,
      "velocity": 117,
      "chip": "ym2612"
    },
    {
      "channel": 1,
      "note": 78,
      "start": 35.6168,
      "duration": 0.0758,
      "velocity": 117,
      "chip": "ym2612"
    },
    {
      "channel": 0,
      "note": 94,
      "start": 35.7306,
      "duration": 0.0761,
      "velocity": 99,
      "chip": "ym2612"
    },
    {
      "channel": 1,
      "note": 47,
      "start": 35.7309,
      "duration": 0.0757,
      "velocity": 120,
      "chip": "ym2612"
    },
    {
      "channel": 1,
      "note": 78,
      "start": 35.845,
      "duration": 0.0757,
      "velocity": 117,
      "chip": "ym2612"
    },
    {
      "channel": 2,
      "note": 59,
      "start": 35.8451,
      "duration": 0.0756,
      "velocity": 115,
      "chip": "ym2612"
    },
    {
      "channel": 0,
      "note": 92,
      "start": 35.9588,
      "duration": 0.076,
      "velocity": 99,
      "chip": "ym2612"
    },
    {
      "channel": 1,
      "note": 30,
      "start": 35.9591,
      "duration": 0.0756,
      "velocity": 123,
      "chip": "ym2612"
    },
    {
      "channel": 2,
      "note": 61,
      "start": 35.9593,
      "duration": 0.0755,
      "velocity": 115,
      "chip": "ym2612"
    },
    {
      "channel": 0,
      "note": 92,
      "start": 36.0728,
      "duration": 0.9886,
      "velocity": 99,
      "chip": "ym2612"
    },
    {
      "channel": 1,
      "note": 30,
      "start": 36.0732,
      "duration": 0.0757,
      "velocity": 123,
      "chip": "ym2612"
    },
    {
      "channel": 2,
      "note": 61,
      "start": 36.0732,
      "duration": 0.0756,
      "velocity": 115,
      "chip": "ym2612"
    },
    {
      "channel": 1,
      "note": 78,
      "start": 36.3012,
      "duration": 0.0758,
      "velocity": 127,
      "chip": "ym2612"
    },
    {
      "channel": 1,
      "note": 47,
      "start": 36.4153,
      "duration": 0.0758,
      "velocity": 120,
      "chip": "ym2612"
    },
    {
      "channel": 1,
      "note": 47,
      "start": 36.5294,
      "duration": 0.1898,
      "velocity": 120,
      "chip": "ym2612"
    },
    {
      "channel": 1,
      "note": 47,
      "start": 36.7576,
      "duration": 0.0758,
      "velocity": 120,
      "chip": "ym2612"
    },
    {
      "channel": 1,
      "note": 47,
      "start": 36.8717,
      "duration": 0.1898,
      "velocity": 120,
      "chip": "ym2612"
    },
    {
      "channel": 2,
      "note": 62,
      "start": 36.8718,
      "duration": 0.1897,
      "velocity": 115,
      "chip": "ym2612"
    },
    {
      "channel": 0,
      "note": 87,
      "start": 37.0995,
      "duration": 0.1901,
      "velocity": 99,
      "chip": "ym2612"
    },
    {
      "channel": 1,
      "note": 30,
      "start": 37.0999,
      "duration": 0.0757,
      "velocity": 123,
      "chip": "ym2612"
    },
    {
      "channel": 2,
      "note": 63,
      "start": 37.0999,
      "duration": 0.0756,
      "velocity": 115,
      "chip": "ym2612"
    },
    {
      "channel": 1,
      "note": 78,
      "start": 37.2139,
      "duration": 0.0758,
      "velocity": 117,
      "chip": "ym2612"
    },
    {
      "channel": 2,
      "note": 63,
      "start": 37.2139,
      "duration": 0.0757,
      "velocity": 115,
      "chip": "ym2612"
    },
    {
      "channel": 0,
      "note": 89,
      "start": 37.3277,
      "duration": 0.1901,
      "velocity": 99,
      "chip": "ym2612"
    },
    {
      "channel": 1,
      "note": 78,
      "start": 37.328,
      "duration": 0.0757,
      "velocity": 117,
      "chip": "ym2612"
    },
    {
      "channel": 1,
      "note": 78,
      "start": 37.442,
      "duration": 0.0758,
      "velocity": 117,
      "chip": "ym2612"
    },
    {
      "channel": 0,
      "note": 90,
      "start": 37.5558,
      "duration": 0.1901,
      "velocity": 99,
      "chip": "ym2612"
    },
    {
      "channel": 1,
      "note": 47,
      "start": 37.5562,
      "duration": 0.0757,
      "velocity": 120,
      "chip": "ym2612"
    },
    {
      "channel": 1,
      "note": 78,
      "start": 37.6702,
      "duration": 0.0758,
      "velocity": 117,
      "chip": "ym2612"
    },
    {
      "channel": 2,
      "note": 65,
      "start": 37.6702,
      "duration": 0.0757,
      "velocity": 115,
      "chip": "ym2612"
    },
    {
      "channel": 0,
      "note": 94,
      "start": 37.784,
      "duration": 0.076,
      "velocity": 99,
      "chip": "ym2612"
    },
    {
      "channel": 1,
      "note": 30,
      "start": 37.7844,
      "duration": 0.0757,
      "velocity": 123,
      "chip": "ym2612"
    },
    {
      "channel": 2,
      "note": 66,
      "start": 37.7844,
      "duration": 0.0756,
      "velocity": 115,
      "chip": "ym2612"
    },
    {
      "channel": 0,
      "note": 94,
      "start": 37.8981,
      "duration": 0.7605,
      "velocity": 99,
      "chip": "ym2612"
    },
    {
      "channel": 1,
      "note": 30,
      "start": 37.8984,
      "duration": 0.0757,
      "velocity": 123,
      "chip": "ym2612"
    },
    {
      "channel": 2,
      "note": 66,
      "start": 37.8985,
      "duration": 0.0756,
      "velocity": 115,
      "chip": "ym2612"
    },
    {
      "channel": 1,
      "note": 78,
      "start": 38.1265,
      "duration": 0.0758,
      "velocity": 127,
      "chip": "ym2612"
    },
    {
      "channel": 1,
      "note": 30,
      "start": 38.2406,
      "duration": 0.1899,
      "velocity": 123,
      "chip": "ym2612"
    },
    {
      "channel": 1,
      "note": 47,
      "start": 38.4688,
      "duration": 0.3038,
      "velocity": 120,
      "chip": "ym2612"
    },
    {
      "channel": 0,
      "note": 87,
      "start": 38.6967,
      "duration": 0.19,
      "velocity": 99,
      "chip": "ym2612"
    },
    {
      "channel": 2,
      "note": 58,
      "start": 38.6968,
      "duration": 0.19,
      "velocity": 115,
      "chip": "ym2612"
    },
    {
      "channel": 1,
      "note": 30,
      "start": 38.811,
      "duration": 0.0757,
      "velocity": 123,
      "chip": "ym2612"
    },
    {
      "channel": 0,
      "note": 94,
      "start": 38.9251,
      "duration": 0.1898,
      "velocity": 99,
      "chip": "ym2612"
    },
    {
      "channel": 1,
      "note": 30,
      "start": 38.9254,
      "duration": 0.0754,
      "velocity": 123,
      "chip": "ym2612"
    },
    {
      "channel": 2,
      "note": 59,
      "start": 38.9255,
      "duration": 0.0753,
      "velocity": 115,
      "chip": "ym2612"
    },
    {
      "channel": 1,
      "note": 78,
      "start": 39.0391,
      "duration": 0.0758,
      "velocity": 117,
      "chip": "ym2612"
    },
    {
      "channel": 2,
      "note": 59,
      "start": 39.0392,
      "duration": 0.0758,
      "velocity": 115,
      "chip": "ym2612"
    },
    {
      "channel": 0,
      "note": 92,
      "start": 39.1529,
      "duration": 0.1901,
      "velocity": 99,
      "chip": "ym2612"
    },
    {
      "channel": 1,
      "note": 78,
      "start": 39.1533,
      "duration": 0.0757,
      "velocity": 117,
      "chip": "ym2612"
    },
    {
      "channel": 1,
      "note": 78,
      "start": 39.2673,
      "duration": 0.0758,
      "velocity": 117,
      "chip": "ym2612"
    },
    {
      "channel": 0,
      "note": 87,
      "start": 39.3811,
      "duration": 0.1901,
      "velocity": 99,
      "chip": "ym2612"
    },
    {
      "channel": 1,
      "note": 47,
      "start": 39.3814,
      "duration": 0.0757,
      "velocity": 120,
      "chip": "ym2612"
    },
    {
      "channel": 1,
      "note": 78,
      "start": 39.4955,
      "duration": 0.0757,
      "velocity": 117,
      "chip": "ym2612"
    },
    {
      "channel": 2,
      "note": 59,
      "start": 39.4955,
      "duration": 0.0757,
      "velocity": 115,
      "chip": "ym2612"
    },
    {
      "channel": 0,
      "note": 90,
      "start": 39.6093,
      "duration": 0.076,
      "velocity": 99,
      "chip": "ym2612"
    },
    {
      "channel": 1,
      "note": 30,
      "start": 39.6097,
      "duration": 0.0756,
      "velocity": 123,
      "chip": "ym2612"
    },
    {
      "channel": 2,
      "note": 61,
      "start": 39.6098,
      "duration": 0.0756,
      "velocity": 115,
      "chip": "ym2612"
    },
    {
      "channel": 0,
      "note": 89,
      "start": 39.7234,
      "duration": 0.9886,
      "velocity": 99,
      "chip": "ym2612"
    },
    {
      "channel": 1,
      "note": 30,
      "start": 39.7237,
      "duration": 0.0757,
      "velocity": 123,
      "chip": "ym2612"
    },
    {
      "channel": 2,
      "note": 61,
      "start": 39.7238,
      "duration": 0.0756,
      "velocity": 115,
      "chip": "ym2612"
    },
    {
      "channel": 1,
      "note": 78,
      "start": 39.9518,
      "duration": 0.0757,
      "velocity": 127,
      "chip": "ym2612"
    },
    {
      "channel": 1,
      "note": 30,
      "start": 40.0658,
      "duration": 0.1899,
      "velocity": 123,
      "chip": "ym2612"
    },
    {
      "channel": 1,
      "note": 47,
      "start": 40.294,
      "duration": 0.3039,
      "velocity": 120,
      "chip": "ym2612"
    },
    {
      "channel": 2,
      "note": 62,
      "start": 40.5219,
      "duration": 0.1901,
      "velocity": 115,
      "chip": "ym2612"
    },
    {
      "channel": 1,
      "note": 30,
      "start": 40.6363,
      "duration": 0.0758,
      "velocity": 123,
      "chip": "ym2612"
    },
    {
      "channel": 0,
      "note": 90,
      "start": 40.7501,
      "duration": 0.19,
      "velocity": 99,
      "chip": "ym2612"
    },
    {
      "channel": 1,
      "note": 30,
      "start": 40.7504,
      "duration": 0.0756,
      "velocity": 123,
      "chip": "ym2612"
    },
    {
      "channel": 2,
      "note": 63,
      "start": 40.7505,
      "duration": 0.0756,
      "velocity": 115,
      "chip": "ym2612"
    },
    {
      "channel": 1,
      "note": 78,
      "start": 40.8644,
      "duration": 0.0758,
      "velocity": 117,
      "chip": "ym2612"
    },
    {
      "channel": 2,
      "note": 63,
      "start": 40.8644,
      "duration": 0.0757,
      "velocity": 115,
      "chip": "ym2612"
    },
    {
      "channel": 0,
      "note": 92,
      "start": 40.9782,
      "duration": 0.1901,
      "velocity": 99,
      "chip": "ym2612"
    },
    {
      "channel": 1,
      "note": 78,
      "start": 40.9785,
      "duration": 0.0757,
      "velocity": 117,
      "chip": "ym2612"
    },
    {
      "channel": 1,
      "note": 78,
      "start": 41.0925,
      "duration": 0.0757,
      "velocity": 117,
      "chip": "ym2612"
    },
    {
      "channel": 0,
      "note": 94,
      "start": 41.2063,
      "duration": 0.1901,
      "velocity": 99,
      "chip": "ym2612"
    },
    {
      "channel": 1,
      "note": 47,
      "start": 41.2066,
      "duration": 0.0757,
      "velocity": 120,
      "chip": "ym2612"
    },
    {
      "channel": 1,
      "note": 78,
      "start": 41.3206,
      "duration": 0.0758,
      "velocity": 117,
      "chip": "ym2612"
    },
    {
      "channel": 2,
      "note": 65,
      "start": 41.3207,
      "duration": 0.0757,
      "velocity": 115,
      "chip": "ym2612"
    },
    {
      "channel": 0,
      "note": 97,
      "start": 41.4345,
      "duration": 0.076,
      "velocity": 99,
      "chip": "ym2612"
    },
    {
      "channel": 1,
      "note": 30,
      "start": 41.4348,
      "duration": 0.0756,
      "velocity": 123,
      "chip": "ym2612"
    },
    {
      "channel": 2,
      "note": 66,
      "start": 41.4349,
      "duration": 0.0756,
      "velocity": 115,
      "chip": "ym2612"
    },
    {
      "channel": 0,
      "note": 97,
      "start": 41.5485,
      "duration": 1.4449,
      "velocity": 99,
      "chip": "ym2612"
    },
    {
      "channel": 1,
      "note": 30,
      "start": 41.5489,
      "duration": 0.0756,
      "velocity": 123,
      "chip": "ym2612"
    },
    {
      "channel": 2,
      "note": 66,
      "start": 41.5489,
      "duration": 0.0756,
      "velocity": 115,
      "chip": "ym2612"
    },
    {
      "channel": 1,
      "note": 78,
      "start": 41.777,
      "duration": 0.0757,
      "velocity": 127,
      "chip": "ym2612"
    },
    {
      "channel": 1,
      "note": 30,
      "start": 41.891,
      "duration": 0.1899,
      "velocity": 123,
      "chip": "ym2612"
    },
    {
      "channel": 1,
      "note": 47,
      "start": 42.1192,
      "duration": 0.3039,
      "velocity": 120,
      "chip": "ym2612"
    },
    {
      "channel": 2,
      "note": 58,
      "start": 42.3471,
      "duration": 0.1901,
      "velocity": 115,
      "chip": "ym2612"
    },
    {
      "channel": 1,
      "note": 30,
      "start": 42.4614,
      "duration": 0.0757,
      "velocity": 123,
      "chip": "ym2612"
    },
    {
      "channel": 1,
      "note": 30,
      "start": 42.5755,
      "duration": 0.0757,
      "velocity": 123,
      "chip": "ym2612"
    },
    {
      "channel": 2,
      "note": 59,
      "start": 42.5756,
      "duration": 0.0757,
      "velocity": 115,
      "chip": "ym2612"
    },
    {
      "channel": 1,
      "note": 78,
      "start": 42.6895,
      "duration": 0.0758,
      "velocity": 117,
      "chip": "ym2612"
    },
    {
      "channel": 2,
      "note": 59,
      "start": 42.6896,
      "duration": 0.0757,
      "velocity": 115,
      "chip": "ym2612"
    },
    {
      "channel": 1,
      "note": 78,
      "start": 42.8037,
      "duration": 0.0757,
      "velocity": 117,
      "chip": "ym2612"
    },
    {
      "channel": 1,
      "note": 78,
      "start": 42.9177,
      "duration": 0.0758,
      "velocity": 117,
      "chip": "ym2612"
    },
    {
      "channel": 0,
      "note": 95,
      "start": 43.0315,
      "duration": 0.4182,
      "velocity": 99,
      "chip": "ym2612"
    },
    {
      "channel": 1,
      "note": 47,
      "start": 43.0318,
      "duration": 0.0757,
      "velocity": 120,
      "chip": "ym2612"
    },
    {
      "channel": 1,
      "note": 78,
      "start": 43.1459,
      "duration": 0.0757,
      "velocity": 117,
      "chip": "ym2612"
    },
    {
      "channel": 2,
      "note": 59,
      "start": 43.1459,
      "duration": 0.0757,
      "velocity": 115,
      "chip": "ym2612"
    },
    {
      "channel": 1,
      "note": 30,
      "start": 43.2599,
      "duration": 0.0757,
      "velocity": 123,
      "chip": "ym2612"
    },
    {
      "channel": 2,
      "note": 61,
      "start": 43.26,
      "duration": 0.0757,
      "velocity": 115,
      "chip": "ym2612"
    },
    {
      "channel": 1,
      "note": 30,
      "start": 43.374,
      "duration": 0.0757,
      "velocity": 123,
      "chip": "ym2612"
    },
    {
      "channel": 2,
      "note": 61,
      "start": 43.3741,
      "duration": 0.0756,
      "velocity": 115,
      "chip": "ym2612"
    },
    {
      "channel": 0,
      "note": 94,
      "start": 43.4878,
      "duration": 0.4182,
      "velocity": 99,
      "chip": "ym2612"
    },
    {
      "channel": 1,
      "note": 78,
      "start": 43.6021,
      "duration": 0.0758,
      "velocity": 127,
      "chip": "ym2612"
    },
    {
      "channel": 1,
      "note": 30,
      "start": 43.7162,
      "duration": 0.1898,
      "velocity": 123,
      "chip": "ym2612"
    },
    {
      "channel": 0,
      "note": 92,
      "start": 43.9441,
      "duration": 0.4183,
      "velocity": 99,
      "chip": "ym2612"
    },
    {
      "channel": 1,
      "note": 47,
      "start": 43.9445,
      "duration": 0.0757,
      "velocity": 120,
      "chip": "ym2612"
    },
    {
      "channel": 1,
      "note": 47,
      "start": 44.0585,
      "duration": 0.1898,
      "velocity": 120,
      "chip": "ym2612"
    },
    {
      "channel": 2,
      "note": 62,
      "start": 44.1723,
      "duration": 0.1901,
      "velocity": 115,
      "chip": "ym2612"
    },
    {
      "channel": 1,
      "note": 30,
      "start": 44.2866,
      "duration": 0.0758,
      "velocity": 123,
      "chip": "ym2612"
    },
    {
      "channel": 0,
      "note": 87,
      "start": 44.4007,
      "duration": 0.1898,
      "velocity": 107,
      "chip": "ym2612"
    },
    {
      "channel": 1,
      "note": 30,
      "start": 44.401,
      "duration": 0.0754,
      "velocity": 123,
      "chip": "ym2612"
    },
    {
      "channel": 2,
      "note": 63,
      "start": 44.4011,
      "duration": 0.0754,
      "velocity": 115,
      "chip": "ym2612"
    },
    {
      "channel": 1,
      "note": 78,
      "start": 44.5147,
      "duration": 0.0758,
      "velocity": 117,
      "chip": "ym2612"
    },
    {
      "channel": 2,
      "note": 63,
      "start": 44.5148,
      "duration": 0.0757,
      "velocity": 115,
      "chip": "ym2612"
    },
    {
      "channel": 0,
      "note": 89,
      "start": 44.6285,
      "duration": 0.1901,
      "velocity": 107,
      "chip": "ym2612"
    },
    {
      "channel": 1,
      "note": 78,
      "start": 44.6289,
      "duration": 0.0757,
      "velocity": 117,
      "chip": "ym2612"
    },
    {
      "channel": 1,
      "note": 78,
      "start": 44.7429,
      "duration": 0.0758,
      "velocity": 117,
      "chip": "ym2612"
    },
    {
      "channel": 0,
      "note": 90,
      "start": 44.8567,
      "duration": 0.1901,
      "velocity": 107,
      "chip": "ym2612"
    },
    {
      "channel": 1,
      "note": 47,
      "start": 44.857,
      "duration": 0.0757,
      "velocity": 120,
      "chip": "ym2612"
    },
    {
      "channel": 1,
      "note": 78,
      "start": 44.971,
      "duration": 0.0757,
      "velocity": 117,
      "chip": "ym2612"
    },
    {
      "channel": 2,
      "note": 65,
      "start": 44.9711,
      "duration": 0.0757,
      "velocity": 115,
      "chip": "ym2612"
    },
    {
      "channel": 0,
      "note": 94,
      "start": 45.0848,
      "duration": 0.076,
      "velocity": 107,
      "chip": "ym2612"
    },
    {
      "channel": 1,
      "note": 30,
      "start": 45.0852,
      "duration": 0.0757,
      "velocity": 123,
      "chip": "ym2612"
    },
    {
      "channel": 2,
      "note": 66,
      "start": 45.0852,
      "duration": 0.0756,
      "velocity": 115,
      "chip": "ym2612"
    },
    {
      "channel": 0,
      "note": 94,
      "start": 45.1989,
      "duration": 0.7604,
      "velocity": 107,
      "chip": "ym2612"
    },
    {
      "channel": 1,
      "note": 30,
      "start": 45.1993,
      "duration": 0.0757,
      "velocity": 123,
      "chip": "ym2612"
    },
    {
      "channel": 2,
      "note": 66,
      "start": 45.1993,
      "duration": 0.0756,
      "velocity": 115,
      "chip": "ym2612"
    },
    {
      "channel": 1,
      "note": 78,
      "start": 45.4273,
      "duration": 0.0757,
      "velocity": 127,
      "chip": "ym2612"
    },
    {
      "channel": 1,
      "note": 30,
      "start": 45.5414,
      "duration": 0.1899,
      "velocity": 123,
      "chip": "ym2612"
    },
    {
      "channel": 1,
      "note": 47,
      "start": 45.7695,
      "duration": 0.3039,
      "velocity": 120,
      "chip": "ym2612"
    },
    {
      "channel": 0,
      "note": 87,
      "start": 45.9974,
      "duration": 0.1902,
      "velocity": 107,
      "chip": "ym2612"
    },
    {
      "channel": 2,
      "note": 58,
      "start": 45.9975,
      "duration": 0.1901,
      "velocity": 115,
      "chip": "ym2612"
    },
    {
      "channel": 1,
      "note": 30,
      "start": 46.1117,
      "duration": 0.0759,
      "velocity": 123,
      "chip": "ym2612"
    },
    {
      "channel": 0,
      "note": 94,
      "start": 46.2256,
      "duration": 0.1901,
      "velocity": 107,
      "chip": "ym2612"
    },
    {
      "channel": 1,
      "note": 30,
      "start": 46.2259,
      "duration": 0.0757,
      "velocity": 123,
      "chip": "ym2612"
    },
    {
      "channel": 2,
      "note": 59,
      "start": 46.226,
      "duration": 0.0756,
      "velocity": 115,
      "chip": "ym2612"
    },
    {
      "channel": 1,
      "note": 78,
      "start": 46.3399,
      "duration": 0.0757,
      "velocity": 117,
      "chip": "ym2612"
    },
    {
      "channel": 2,
      "note": 59,
      "start": 46.34,
      "duration": 0.0757,
      "velocity": 115,
      "chip": "ym2612"
    },
    {
      "channel": 0,
      "note": 92,
      "start": 46.4537,
      "duration": 0.1901,
      "velocity": 107,
      "chip": "ym2612"
    },
    {
      "channel": 1,
      "note": 78,
      "start": 46.4541,
      "duration": 0.0757,
      "velocity": 117,
      "chip": "ym2612"
    },
    {
      "channel": 1,
      "note": 78,
      "start": 46.5681,
      "duration": 0.0757,
      "velocity": 117,
      "chip": "ym2612"
    },
    {
      "channel": 0,
      "note": 87,
      "start": 46.6819,
      "duration": 0.1901,
      "velocity": 107,
      "chip": "ym2612"
    },
    {
      "channel": 1,
      "note": 47,
      "start": 46.6822,
      "duration": 0.0757,
      "velocity": 120,
      "chip": "ym2612"
    },
    {
      "channel": 1,
      "note": 78,
      "start": 46.7962,
      "duration": 0.0757,
      "velocity": 117,
      "chip": "ym2612"
    },
    {
      "channel": 2,
      "note": 59,
      "start": 46.7963,
      "duration": 0.0757,
      "velocity": 115,
      "chip": "ym2612"
    },
    {
      "channel": 0,
      "note": 90,
      "start": 46.91,
      "duration": 0.076,
      "velocity": 107,
      "chip": "ym2612"
    },
    {
      "channel": 1,
      "note": 30,
      "start": 46.9103,
      "duration": 0.0757,
      "velocity": 123,
      "chip": "ym2612"
    },
    {
      "channel": 2,
      "note": 61,
      "start": 46.9104,
      "duration": 0.0756,
      "velocity": 115,
      "chip": "ym2612"
    },
    {
      "channel": 0,
      "note": 89,
      "start": 47.0241,
      "duration": 0.9886,
      "velocity": 107,
      "chip": "ym2612"
    },
    {
      "channel": 1,
      "note": 30,
      "start": 47.0244,
      "duration": 0.0757,
      "velocity": 123,
      "chip": "ym2612"
    },
    {
      "channel": 2,
      "note": 61,
      "start": 47.0245,
      "duration": 0.0756,
      "velocity": 115,
      "chip": "ym2612"
    },
    {
      "channel": 1,
      "note": 78,
      "start": 47.2525,
      "duration": 0.0758,
      "velocity": 127,
      "chip": "ym2612"
    },
    {
      "channel": 1,
      "note": 30,
      "start": 47.3666,
      "duration": 0.1899,
      "velocity": 123,
      "chip": "ym2612"
    },
    {
      "channel": 1,
      "note": 47,
      "start": 47.5947,
      "duration": 0.3039,
      "velocity": 120,
      "chip": "ym2612"
    },
    {
      "channel": 2,
      "note": 62,
      "start": 47.8226,
      "duration": 0.1901,
      "velocity": 115,
      "chip": "ym2612"
    },
    {
      "channel": 1,
      "note": 30,
      "start": 47.937,
      "duration": 0.0757,
      "velocity": 123,
      "chip": "ym2612"
    },
    {
      "channel": 0,
      "note": 90,
      "start": 48.0507,
      "duration": 0.1901,
      "velocity": 107,
      "chip": "ym2612"
    },
    {
      "channel": 1,
      "note": 30,
      "start": 48.0511,
      "duration": 0.0757,
      "velocity": 123,
      "chip": "ym2612"
    },
    {
      "channel": 2,
      "note": 63,
      "start": 48.0512,
      "duration": 0.0756,
      "velocity": 115,
      "chip": "ym2612"
    },
    {
      "channel": 1,
      "note": 78,
      "start": 48.1651,
      "duration": 0.0758,
      "velocity": 117,
      "chip": "ym2612"
    },
    {
      "channel": 2,
      "note": 63,
      "start": 48.1651,
      "duration": 0.0757,
      "velocity": 115,
      "chip": "ym2612"
    },
    {
      "channel": 0,
      "note": 92,
      "start": 48.2789,
      "duration": 0.1901,
      "velocity": 107,
      "chip": "ym2612"
    },
    {
      "channel": 1,
      "note": 78,
      "start": 48.2793,
      "duration": 0.0756,
      "velocity": 117,
      "chip": "ym2612"
    },
    {
      "channel": 1,
      "note": 78,
      "start": 48.3932,
      "duration": 0.0758,
      "velocity": 117,
      "chip": "ym2612"
    },
    {
      "channel": 0,
      "note": 94,
      "start": 48.5071,
      "duration": 0.1901,
      "velocity": 107,
      "chip": "ym2612"
    },
    {
      "channel": 1,
      "note": 47,
      "start": 48.5074,
      "duration": 0.0757,
      "velocity": 120,
      "chip": "ym2612"
    },
    {
      "channel": 1,
      "note": 78,
      "start": 48.6214,
      "duration": 0.0758,
      "velocity": 117,
      "chip": "ym2612"
    },
    {
      "channel": 2,
      "note": 65,
      "start": 48.6214,
      "duration": 0.0757,
      "velocity": 115,
      "chip": "ym2612"
    },
    {
      "channel": 0,
      "note": 97,
      "start": 48.7352,
      "duration": 0.0761,
      "velocity": 107,
      "chip": "ym2612"
    },
    {
      "channel": 1,
      "note": 30,
      "start": 48.7355,
      "duration": 0.0757,
      "velocity": 123,
      "chip": "ym2612"
    },
    {
      "channel": 2,
      "note": 66,
      "start": 48.7356,
      "duration": 0.0756,
      "velocity": 115,
      "chip": "ym2612"
    },
    {
      "channel": 0,
      "note": 97,
      "start": 48.8493,
      "duration": 1.4449,
      "velocity": 107,
      "chip": "ym2612"
    },
    {
      "channel": 1,
      "note": 30,
      "start": 48.8496,
      "duration": 0.0757,
      "velocity": 123,
      "chip": "ym2612"
    },
    {
      "channel": 2,
      "note": 66,
      "start": 48.8497,
      "duration": 0.0756,
      "velocity": 115,
      "chip": "ym2612"
    },
    {
      "channel": 1,
      "note": 78,
      "start": 49.0777,
      "duration": 0.0757,
      "velocity": 127,
      "chip": "ym2612"
    },
    {
      "channel": 1,
      "note": 30,
      "start": 49.1918,
      "duration": 0.1899,
      "velocity": 123,
      "chip": "ym2612"
    },
    {
      "channel": 1,
      "note": 47,
      "start": 49.4199,
      "duration": 0.3039,
      "velocity": 120,
      "chip": "ym2612"
    },
    {
      "channel": 2,
      "note": 58,
      "start": 49.6478,
      "duration": 0.1901,
      "velocity": 115,
      "chip": "ym2612"
    },
    {
      "channel": 1,
      "note": 30,
      "start": 49.7622,
      "duration": 0.0757,
      "velocity": 123,
      "chip": "ym2612"
    },
    {
      "channel": 1,
      "note": 30,
      "start": 49.8763,
      "duration": 0.0757,
      "velocity": 123,
      "chip": "ym2612"
    },
    {
      "channel": 2,
      "note": 59,
      "start": 49.8763,
      "duration": 0.0756,
      "velocity": 115,
      "chip": "ym2612"
    },
    {
      "channel": 1,
      "note": 78,
      "start": 49.9902,
      "duration": 0.0758,
      "velocity": 117,
      "chip": "ym2612"
    },
    {
      "channel": 2,
      "note": 59,
      "start": 49.9903,
      "duration": 0.0757,
      "velocity": 115,
      "chip": "ym2612"
    },
    {
      "channel": 1,
      "note": 47,
      "start": 50.1044,
      "duration": 0.0757,
      "velocity": 120,
      "chip": "ym2612"
    },
    {
      "channel": 1,
      "note": 78,
      "start": 50.2184,
      "duration": 0.0758,
      "velocity": 117,
      "chip": "ym2612"
    },
    {
      "channel": 1,
      "note": 47,
      "start": 50.3325,
      "duration": 0.0758,
      "velocity": 120,
      "chip": "ym2612"
    },
    {
      "channel": 1,
      "note": 78,
      "start": 50.4466,
      "duration": 0.0758,
      "velocity": 117,
      "chip": "ym2612"
    },
    {
      "channel": 2,
      "note": 59,
      "start": 50.4466,
      "duration": 0.0758,
      "velocity": 115,
      "chip": "ym2612"
    },
    {
      "channel": 1,
      "note": 30,
      "start": 50.5607,
      "duration": 0.0758,
      "velocity": 123,
      "chip": "ym2612"
    },
    {
      "channel": 2,
      "note": 61,
      "start": 50.5607,
      "duration": 0.0757,
      "velocity": 115,
      "chip": "ym2612"
    },
    {
      "channel": 1,
      "note": 30,
      "start": 50.6748,
      "duration": 0.0757,
      "velocity": 123,
      "chip": "ym2612"
    },
    {
      "channel": 2,
      "note": 61,
      "start": 50.6749,
      "duration": 0.0757,
      "velocity": 115,
      "chip": "ym2612"
    },
    {
      "channel": 0,
      "note": 73,
      "start": 50.9026,
      "duration": 0.076,
      "velocity": 107,
      "chip": "ym2612"
    },
    {
      "channel": 1,
      "note": 78,
      "start": 50.9029,
      "duration": 0.0757,
      "velocity": 127,
      "chip": "ym2612"
    },
    {
      "channel": 0,
      "note": 75,
      "start": 51.0166,
      "duration": 0.076,
      "velocity": 107,
      "chip": "ym2612"
    },
    {
      "channel": 1,
      "note": 47,
      "start": 51.017,
      "duration": 0.0757,
      "velocity": 120,
      "chip": "ym2612"
    },
    {
      "channel": 0,
      "note": 78,
      "start": 51.1307,
      "duration": 0.076,
      "velocity": 107,
      "chip": "ym2612"
    },
    {
      "channel": 1,
      "note": 47,
      "start": 51.1311,
      "duration": 0.1898,
      "velocity": 120,
      "chip": "ym2612"
    },
    {
      "channel": 0,
      "note": 80,
      "start": 51.2449,
      "duration": 0.6464,
      "velocity": 107,
      "chip": "ym2612"
    },
    {
      "channel": 1,
      "note": 78,
      "start": 51.3592,
      "duration": 0.0758,
      "velocity": 127,
      "chip": "ym2612"
    },
    {
      "channel": 1,
      "note": 47,
      "start": 51.4733,
      "duration": 0.0757,
      "velocity": 120,
      "chip": "ym2612"
    },
    {
      "channel": 2,
      "note": 58,
      "start": 51.4733,
      "duration": 0.1898,
      "velocity": 115,
      "chip": "ym2612"
    },
    {
      "channel": 1,
      "note": 47,
      "start": 51.5873,
      "duration": 0.0758,
      "velocity": 120,
      "chip": "ym2612"
    },
    {
      "channel": 1,
      "note": 30,
      "start": 51.7015,
      "duration": 0.0758,
      "velocity": 123,
      "chip": "ym2612"
    },
    {
      "channel": 2,
      "note": 56,
      "start": 51.7015,
      "duration": 0.0757,
      "velocity": 115,
      "chip": "ym2612"
    },
    {
      "channel": 1,
      "note": 78,
      "start": 51.8155,
      "duration": 0.0758,
      "velocity": 117,
      "chip": "ym2612"
    },
    {
      "channel": 2,
      "note": 56,
      "start": 51.8156,
      "duration": 0.0757,
      "velocity": 115,
      "chip": "ym2612"
    },
    {
      "channel": 0,
      "note": 82,
      "start": 51.9293,
      "duration": 0.076,
      "velocity": 107,
      "chip": "ym2612"
    },
    {
      "channel": 1,
      "note": 78,
      "start": 51.9297,
      "duration": 0.0757,
      "velocity": 117,
      "chip": "ym2612"
    },
    {
      "channel": 1,
      "note": 78,
      "start": 52.0437,
      "duration": 0.0758,
      "velocity": 117,
      "chip": "ym2612"
    },
    {
      "channel": 0,
      "note": 78,
      "start": 52.1575,
      "duration": 0.076,
      "velocity": 107,
      "chip": "ym2612"
    },
    {
      "channel": 1,
      "note": 47,
      "start": 52.1578,
      "duration": 0.0757,
      "velocity": 120,
      "chip": "ym2612"
    },
    {
      "channel": 0,
      "note": 80,
      "start": 52.2715,
      "duration": 0.076,
      "velocity": 107,
      "chip": "ym2612"
    },
    {
      "channel": 1,
      "note": 78,
      "start": 52.2719,
      "duration": 0.0757,
      "velocity": 117,
      "chip": "ym2612"
    },
    {
      "channel": 2,
      "note": 56,
      "start": 52.2719,
      "duration": 0.0756,
      "velocity": 115,
      "chip": "ym2612"
    },
    {
      "channel": 1,
      "note": 30,
      "start": 52.3859,
      "duration": 0.0757,
      "velocity": 123,
      "chip": "ym2612"
    },
    {
      "channel": 2,
      "note": 61,
      "start": 52.3859,
      "duration": 0.0757,
      "velocity": 115,
      "chip": "ym2612"
    },
    {
      "channel": 1,
      "note": 30,
      "start": 52.5,
      "duration": 0.0757,
      "velocity": 123,
      "chip": "ym2612"
    },
    {
      "channel": 2,
      "note": 61,
      "start": 52.5,
      "duration": 0.0757,
      "velocity": 115,
      "chip": "ym2612"
    },
    {
      "channel": 1,
      "note": 78,
      "start": 52.7281,
      "duration": 0.0758,
      "velocity": 127,
      "chip": "ym2612"
    },
    {
      "channel": 0,
      "note": 82,
      "start": 52.8419,
      "duration": 0.076,
      "velocity": 107,
      "chip": "ym2612"
    },
    {
      "channel": 1,
      "note": 30,
      "start": 52.8422,
      "duration": 0.1898,
      "velocity": 123,
      "chip": "ym2612"
    },
    {
      "channel": 0,
      "note": 83,
      "start": 52.956,
      "duration": 0.0759,
      "velocity": 107,
      "chip": "ym2612"
    },
    {
      "channel": 1,
      "note": 47,
      "start": 53.0703,
      "duration": 0.3039,
      "velocity": 120,
      "chip": "ym2612"
    },
    {
      "channel": 0,
      "note": 82,
      "start": 53.1841,
      "duration": 0.076,
      "velocity": 107,
      "chip": "ym2612"
    },
    {
      "channel": 0,
      "note": 81,
      "start": 53.2982,
      "duration": 0.076,
      "velocity": 107,
      "chip": "ym2612"
    },
    {
      "channel": 2,
      "note": 59,
      "start": 53.2982,
      "duration": 0.1901,
      "velocity": 115,
      "chip": "ym2612"
    },
    {
      "channel": 0,
      "note": 80,
      "start": 53.4123,
      "duration": 0.076,
      "velocity": 107,
      "chip": "ym2612"
    },
    {
      "channel": 1,
      "note": 30,
      "start": 53.4126,
      "duration": 0.0757,
      "velocity": 123,
      "chip": "ym2612"
    },
    {
      "channel": 0,
      "note": 78,
      "start": 53.5263,
      "duration": 0.076,
      "velocity": 107,
      "chip": "ym2612"
    },
    {
      "channel": 1,
      "note": 30,
      "start": 53.5267,
      "duration": 0.0756,
      "velocity": 123,
      "chip": "ym2612"
    },
    {
      "channel": 2,
      "note": 58,
      "start": 53.5268,
      "duration": 0.0756,
      "velocity": 115,
      "chip": "ym2612"
    },
    {
      "channel": 0,
      "note": 77,
      "start": 53.6404,
      "duration": 0.076,
      "velocity": 107,
      "chip": "ym2612"
    },
    {
      "channel": 1,
      "note": 78,
      "start": 53.6407,
      "duration": 0.0757,
      "velocity": 117,
      "chip": "ym2612"
    },
    {
      "channel": 2,
      "note": 58,
      "start": 53.6408,
      "duration": 0.0756,
      "velocity": 115,
      "chip": "ym2612"
    },
    {
      "channel": 0,
      "note": 78,
      "start": 53.7545,
      "duration": 0.0761,
      "velocity": 107,
      "chip": "ym2612"
    },
    {
      "channel": 1,
      "note": 78,
      "start": 53.7548,
      "duration": 0.0757,
      "velocity": 117,
      "chip": "ym2612"
    },
    {
      "channel": 0,
      "note": 80,
      "start": 53.8685,
      "duration": 0.076,
      "velocity": 107,
      "chip": "ym2612"
    },
    {
      "channel": 1,
      "note": 78,
      "start": 53.8689,
      "duration": 0.0757,
      "velocity": 117,
      "chip": "ym2612"
    },
    {
      "channel": 1,
      "note": 47,
      "start": 53.9829,
      "duration": 0.0758,
      "velocity": 120,
      "chip": "ym2612"
    },
    {
      "channel": 0,
      "note": 85,
      "start": 54.0967,
      "duration": 0.076,
      "velocity": 107,
      "chip": "ym2612"
    },
    {
      "channel": 1,
      "note": 78,
      "start": 54.0971,
      "duration": 0.0757,
      "velocity": 117,
      "chip": "ym2612"
    },
    {
      "channel": 2,
      "note": 58,
      "start": 54.0971,
      "duration": 0.0756,
      "velocity": 115,
      "chip": "ym2612"
    },
    {
      "channel": 1,
      "note": 30,
      "start": 54.2111,
      "duration": 0.0758,
      "velocity": 123,
      "chip": "ym2612"
    },
    {
      "channel": 2,
      "note": 63,
      "start": 54.2111,
      "duration": 0.0757,
      "velocity": 115,
      "chip": "ym2612"
    },
    {
      "channel": 0,
      "note": 87,
      "start": 54.3249,
      "duration": 0.3042,
      "velocity": 107,
      "chip": "ym2612"
    },
    {
      "channel": 1,
      "note": 30,
      "start": 54.3252,
      "duration": 0.0757,
      "velocity": 123,
      "chip": "ym2612"
    },
    {
      "channel": 2,
      "note": 63,
      "start": 54.3253,
      "duration": 0.0756,
      "velocity": 115,
      "chip": "ym2612"
    },
    {
      "channel": 1,
      "note": 78,
      "start": 54.5533,
      "duration": 0.0757,
      "velocity": 127,
      "chip": "ym2612"
    },
    {
      "channel": 0,
      "note": 82,
      "start": 54.6671,
      "duration": 0.076,
      "velocity": 107,
      "chip": "ym2612"
    },
    {
      "channel": 1,
      "note": 30,
      "start": 54.6674,
      "duration": 0.1898,
      "velocity": 123,
      "chip": "ym2612"
    },
    {
      "channel": 1,
      "note": 47,
      "start": 54.8955,
      "duration": 0.3039,
      "velocity": 120,
      "chip": "ym2612"
    },
    {
      "channel": 2,
      "note": 51,
      "start": 54.8956,
      "duration": 0.0757,
      "velocity": 115,
      "chip": "ym2612"
    },
    {
      "channel": 0,
      "note": 81,
      "start": 55.0093,
      "duration": 0.1901,
      "velocity": 107,
      "chip": "ym2612"
    },
    {
      "channel": 2,
      "note": 54,
      "start": 55.0094,
      "duration": 0.3041,
      "velocity": 115,
      "chip": "ym2612"
    },
    {
      "channel": 0,
      "note": 78,
      "start": 55.2375,
      "duration": 0.076,
      "velocity": 107,
      "chip": "ym2612"
    },
    {
      "channel": 1,
      "note": 30,
      "start": 55.2378,
      "duration": 0.0757,
      "velocity": 123,
      "chip": "ym2612"
    },
    {
      "channel": 0,
      "note": 77,
      "start": 55.3516,
      "duration": 0.6464,
      "velocity": 107,
      "chip": "ym2612"
    },
    {
      "channel": 1,
      "note": 30,
      "start": 55.3519,
      "duration": 0.0757,
      "velocity": 123,
      "chip": "ym2612"
    },
    {
      "channel": 2,
      "note": 56,
      "start": 55.352,
      "duration": 0.0756,
      "velocity": 115,
      "chip": "ym2612"
    },
    {
      "channel": 1,
      "note": 78,
      "start": 55.4659,
      "duration": 0.0758,
      "velocity": 117,
      "chip": "ym2612"
    },
    {
      "channel": 2,
      "note": 56,
      "start": 55.466,
      "duration": 0.0757,
      "velocity": 115,
      "chip": "ym2612"
    },
    {
      "channel": 1,
      "note": 78,
      "start": 55.58,
      "duration": 0.0757,
      "velocity": 117,
      "chip": "ym2612"
    },
    {
      "channel": 1,
      "note": 78,
      "start": 55.6941,
      "duration": 0.0757,
      "velocity": 117,
      "chip": "ym2612"
    },
    {
      "channel": 1,
      "note": 47,
      "start": 55.8081,
      "duration": 0.0758,
      "velocity": 120,
      "chip": "ym2612"
    },
    {
      "channel": 1,
      "note": 78,
      "start": 55.9222,
      "duration": 0.0757,
      "velocity": 117,
      "chip": "ym2612"
    },
    {
      "channel": 2,
      "note": 56,
      "start": 55.9223,
      "duration": 0.0757,
      "velocity": 115,
      "chip": "ym2612"
    },
    {
      "channel": 0,
      "note": 75,
      "start": 56.036,
      "duration": 0.1901,
      "velocity": 107,
      "chip": "ym2612"
    },
    {
      "channel": 1,
      "note": 30,
      "start": 56.0364,
      "duration": 0.0756,
      "velocity": 123,
      "chip": "ym2612"
    },
    {
      "channel": 2,
      "note": 61,
      "start": 56.0364,
      "duration": 0.0756,
      "velocity": 115,
      "chip": "ym2612"
    },
    {
      "channel": 1,
      "note": 30,
      "start": 56.1503,
      "duration": 0.0759,
      "velocity": 123,
      "chip": "ym2612"
    },
    {
      "channel": 2,
      "note": 61,
      "start": 56.1504,
      "duration": 0.0758,
      "velocity": 115,
      "chip": "ym2612"
    },
    {
      "channel": 1,
      "note": 78,
      "start": 56.3785,
      "duration": 0.0758,
      "velocity": 127,
      "chip": "ym2612"
    },
    {
      "channel": 1,
      "note": 30,
      "start": 56.4926,
      "duration": 0.1898,
      "velocity": 123,
      "chip": "ym2612"
    },
    {
      "channel": 1,
      "note": 47,
      "start": 56.7208,
      "duration": 0.3039,
      "velocity": 120,
      "chip": "ym2612"
    },
    {
      "channel": 0,
      "note": 78,
      "start": 56.9486,
      "duration": 0.19,
      "velocity": 107,
      "chip": "ym2612"
    },
    {
      "channel": 2,
      "note": 59,
      "start": 56.9487,
      "duration": 0.19,
      "velocity": 115,
      "chip": "ym2612"
    },
    {
      "channel": 1,
      "note": 30,
      "start": 57.0629,
      "duration": 0.0758,
      "velocity": 123,
      "chip": "ym2612"
    },
    {
      "channel": 0,
      "note": 80,
      "start": 57.1768,
      "duration": 0.6464,
      "velocity": 107,
      "chip": "ym2612"
    },
    {
      "channel": 1,
      "note": 30,
      "start": 57.1771,
      "duration": 0.0756,
      "velocity": 123,
      "chip": "ym2612"
    },
    {
      "channel": 2,
      "note": 58,
      "start": 57.1772,
      "duration": 0.0756,
      "velocity": 115,
      "chip": "ym2612"
    },
    {
      "channel": 1,
      "note": 78,
      "start": 57.2914,
      "duration": 0.0756,
      "velocity": 117,
      "chip": "ym2612"
    },
    {
      "channel": 2,
      "note": 70,
      "start": 57.2915,
      "duration": 0.1895,
      "velocity": 115,
      "chip": "ym2612"
    },
    {
      "channel": 1,
      "note": 78,
      "start": 57.4052,
      "duration": 0.0758,
      "velocity": 117,
      "chip": "ym2612"
    },
    {
      "channel": 1,
      "note": 78,
      "start": 57.5193,
      "duration": 0.0758,
      "velocity": 117,
      "chip": "ym2612"
    },
    {
      "channel": 2,
      "note": 68,
      "start": 57.5194,
      "duration": 0.0757,
      "velocity": 115,
      "chip": "ym2612"
    },
    {
      "channel": 1,
      "note": 47,
      "start": 57.6334,
      "duration": 0.0757,
      "velocity": 120,
      "chip": "ym2612"
    },
    {
      "channel": 1,
      "note": 78,
      "start": 57.7474,
      "duration": 0.0758,
      "velocity": 117,
      "chip": "ym2612"
    },
    {
      "channel": 2,
      "note": 66,
      "start": 57.7475,
      "duration": 0.1898,
      "velocity": 115,
      "chip": "ym2612"
    },
    {
      "channel": 0,
      "note": 75,
      "start": 57.8612,
      "duration": 0.076,
      "velocity": 107,
      "chip": "ym2612"
    },
    {
      "channel": 1,
      "note": 30,
      "start": 57.8621,
      "duration": 0.0752,
      "velocity": 123,
      "chip": "ym2612"
    },
    {
      "channel": 0,
      "note": 75,
      "start": 57.9753,
      "duration": 0.076,
      "velocity": 107,
      "chip": "ym2612"
    },
    {
      "channel": 1,
      "note": 30,
      "start": 57.9756,
      "duration": 0.0757,
      "velocity": 123,
      "chip": "ym2612"
    },
    {
      "channel": 2,
      "note": 63,
      "start": 57.9757,
      "duration": 0.532,
      "velocity": 115,
      "chip": "ym2612"
    },
    {
      "channel": 1,
      "note": 78,
      "start": 58.2037,
      "duration": 0.0758,
      "velocity": 127,
      "chip": "ym2612"
    },
    {
      "channel": 0,
      "note": 77,
      "start": 58.3175,
      "duration": 0.1901,
      "velocity": 107,
      "chip": "ym2612"
    },
    {
      "channel": 1,
      "note": 30,
      "start": 58.3179,
      "duration": 0.1898,
      "velocity": 123,
      "chip": "ym2612"
    },
    {
      "channel": 0,
      "note": 78,
      "start": 58.5457,
      "duration": 0.1901,
      "velocity": 107,
      "chip": "ym2612"
    },
    {
      "channel": 1,
      "note": 47,
      "start": 58.546,
      "duration": 0.1898,
      "velocity": 120,
      "chip": "ym2612"
    },
    {
      "channel": 2,
      "note": 63,
      "start": 58.6598,
      "duration": 0.0761,
      "velocity": 115,
      "chip": "ym2612"
    },
    {
      "channel": 0,
      "note": 80,
      "start": 58.7738,
      "duration": 0.1901,
      "velocity": 107,
      "chip": "ym2612"
    },
    {
      "channel": 1,
      "note": 47,
      "start": 58.7742,
      "duration": 0.1898,
      "velocity": 120,
      "chip": "ym2612"
    },
    {
      "channel": 2,
      "note": 57,
      "start": 58.7742,
      "duration": 0.1897,
      "velocity": 115,
      "chip": "ym2612"
    },
    {
      "channel": 0,
      "note": 82,
      "start": 59.002,
      "duration": 0.1901,
      "velocity": 107,
      "chip": "ym2612"
    },
    {
      "channel": 1,
      "note": 30,
      "start": 59.0024,
      "duration": 0.0756,
      "velocity": 123,
      "chip": "ym2612"
    },
    {
      "channel": 2,
      "note": 56,
      "start": 59.0024,
      "duration": 0.0756,
      "velocity": 115,
      "chip": "ym2612"
    },
    {
      "channel": 1,
      "note": 78,
      "start": 59.1163,
      "duration": 0.0758,
      "velocity": 117,
      "chip": "ym2612"
    },
    {
      "channel": 2,
      "note": 56,
      "start": 59.1164,
      "duration": 0.0758,
      "velocity": 115,
      "chip": "ym2612"
    },
    {
      "channel": 0,
      "note": 83,
      "start": 59.2301,
      "duration": 0.076,
      "velocity": 107,
      "chip": "ym2612"
    },
    {
      "channel": 1,
      "note": 78,
      "start": 59.2305,
      "duration": 0.0757,
      "velocity": 117,
      "chip": "ym2612"
    },
    {
      "channel": 0,
      "note": 82,
      "start": 59.3442,
      "duration": 0.1901,
      "velocity": 107,
      "chip": "ym2612"
    },
    {
      "channel": 1,
      "note": 78,
      "start": 59.3445,
      "duration": 0.0757,
      "velocity": 117,
      "chip": "ym2612"
    },
    {
      "channel": 1,
      "note": 47,
      "start": 59.4586,
      "duration": 0.0757,
      "velocity": 120,
      "chip": "ym2612"
    },
    {
      "channel": 0,
      "note": 85,
      "start": 59.5724,
      "duration": 0.076,
      "velocity": 107,
      "chip": "ym2612"
    },
    {
      "channel": 1,
      "note": 78,
      "start": 59.5727,
      "duration": 0.0757,
      "velocity": 117,
      "chip": "ym2612"
    },
    {
      "channel": 2,
      "note": 56,
      "start": 59.5727,
      "duration": 0.0757,
      "velocity": 115,
      "chip": "ym2612"
    },
    {
      "channel": 1,
      "note": 30,
      "start": 59.6867,
      "duration": 0.0758,
      "velocity": 123,
      "chip": "ym2612"
    },
    {
      "channel": 2,
      "note": 61,
      "start": 59.6868,
      "duration": 0.0757,
      "velocity": 115,
      "chip": "ym2612"
    },
    {
      "channel": 0,
      "note": 82,
      "start": 59.8005,
      "duration": 0.076,
      "velocity": 107,
      "chip": "ym2612"
    },
    {
      "channel": 1,
      "note": 30,
      "start": 59.8008,
      "duration": 0.0757,
      "velocity": 123,
      "chip": "ym2612"
    },
    {
      "channel": 2,
      "note": 61,
      "start": 59.8009,
      "duration": 0.0756,
      "velocity": 115,
      "chip": "ym2612"
    },
    {
      "channel": 0,
      "note": 83,
      "start": 59.9146,
      "duration": 0.076,
      "velocity": 107,
      "chip": "ym2612"
    },
    {
      "channel": 0,
      "note": 82,
      "start": 60.0287,
      "duration": 0.076,
      "velocity": 107,
      "chip": "ym2612"
    },
    {
      "channel": 1,
      "note": 78,
      "start": 60.029,
      "duration": 0.0757,
      "velocity": 127,
      "chip": "ym2612"
    },
    {
      "channel": 0,
      "note": 80,
      "start": 60.1427,
      "duration": 0.076,
      "velocity": 107,
      "chip": "ym2612"
    },
    {
      "channel": 1,
      "note": 30,
      "start": 60.1431,
      "duration": 0.1898,
      "velocity": 123,
      "chip": "ym2612"
    },
    {
      "channel": 0,
      "note": 78,
      "start": 60.2568,
      "duration": 0.076,
      "velocity": 107,
      "chip": "ym2612"
    },
    {
      "channel": 1,
      "note": 47,
      "start": 60.3712,
      "duration": 0.3039,
      "velocity": 120,
      "chip": "ym2612"
    },
    {
      "channel": 0,
      "note": 80,
      "start": 60.599,
      "duration": 0.1901,
      "velocity": 107,
      "chip": "ym2612"
    },
    {
      "channel": 2,
      "note": 59,
      "start": 60.5991,
      "duration": 0.19,
      "velocity": 115,
      "chip": "ym2612"
    },
    {
      "channel": 1,
      "note": 30,
      "start": 60.7134,
      "duration": 0.0758,
      "velocity": 123,
      "chip": "ym2612"
    },
    {
      "channel": 0,
      "note": 82,
      "start": 60.8272,
      "duration": 0.1901,
      "velocity": 107,
      "chip": "ym2612"
    },
    {
      "channel": 1,
      "note": 30,
      "start": 60.8275,
      "duration": 0.0757,
      "velocity": 123,
      "chip": "ym2612"
    },
    {
      "channel": 2,
      "note": 58,
      "start": 60.8276,
      "duration": 0.0756,
      "velocity": 115,
      "chip": "ym2612"
    },
    {
      "channel": 1,
      "note": 78,
      "start": 60.9415,
      "duration": 0.0758,
      "velocity": 117,
      "chip": "ym2612"
    },
    {
      "channel": 2,
      "note": 58,
      "start": 60.9416,
      "duration": 0.0757,
      "velocity": 115,
      "chip": "ym2612"
    },
    {
      "channel": 0,
      "note": 83,
      "start": 61.0553,
      "duration": 0.076,
      "velocity": 107,
      "chip": "ym2612"
    },
    {
      "channel": 1,
      "note": 78,
      "start": 61.0557,
      "duration": 0.0757,
      "velocity": 117,
      "chip": "ym2612"
    },
    {
      "channel": 0,
      "note": 82,
      "start": 61.1694,
      "duration": 0.1901,
      "velocity": 107,
      "chip": "ym2612"
    },
    {
      "channel": 1,
      "note": 78,
      "start": 61.1698,
      "duration": 0.0757,
      "velocity": 117,
      "chip": "ym2612"
    },
    {
      "channel": 1,
      "note": 47,
      "start": 61.2838,
      "duration": 0.0757,
      "velocity": 120,
      "chip": "ym2612"
    },
    {
      "channel": 0,
      "note": 87,
      "start": 61.3976,
      "duration": 0.0761,
      "velocity": 107,
      "chip": "ym2612"
    },
    {
      "channel": 1,
      "note": 78,
      "start": 61.3979,
      "duration": 0.0757,
      "velocity": 117,
      "chip": "ym2612"
    },
    {
      "channel": 2,
      "note": 58,
      "start": 61.398,
      "duration": 0.0757,
      "velocity": 115,
      "chip": "ym2612"
    },
    {
      "channel": 1,
      "note": 30,
      "start": 61.5119,
      "duration": 0.0757,
      "velocity": 123,
      "chip": "ym2612"
    },
    {
      "channel": 2,
      "note": 63,
      "start": 61.512,
      "duration": 0.0757,
      "velocity": 115,
      "chip": "ym2612"
    },
    {
      "channel": 0,
      "note": 82,
      "start": 61.6257,
      "duration": 0.076,
      "velocity": 107,
      "chip": "ym2612"
    },
    {
      "channel": 1,
      "note": 30,
      "start": 61.6261,
      "duration": 0.0757,
      "velocity": 123,
      "chip": "ym2612"
    },
    {
      "channel": 2,
      "note": 63,
      "start": 61.6261,
      "duration": 0.0756,
      "velocity": 115,
      "chip": "ym2612"
    },
    {
      "channel": 0,
      "note": 83,
      "start": 61.7398,
      "duration": 0.076,
      "velocity": 107,
      "chip": "ym2612"
    },
    {
      "channel": 0,
      "note": 82,
      "start": 61.8539,
      "duration": 0.0761,
      "velocity": 107,
      "chip": "ym2612"
    },
    {
      "channel": 1,
      "note": 78,
      "start": 61.8542,
      "duration": 0.0758,
      "velocity": 127,
      "chip": "ym2612"
    },
    {
      "channel": 0,
      "note": 80,
      "start": 61.9679,
      "duration": 0.0761,
      "velocity": 107,
      "chip": "ym2612"
    },
    {
      "channel": 1,
      "note": 30,
      "start": 61.9683,
      "duration": 0.1898,
      "velocity": 123,
      "chip": "ym2612"
    },
    {
      "channel": 1,
      "note": 47,
      "start": 62.1966,
      "duration": 0.3037,
      "velocity": 120,
      "chip": "ym2612"
    },
    {
      "channel": 2,
      "note": 51,
      "start": 62.1966,
      "duration": 0.0755,
      "velocity": 115,
      "chip": "ym2612"
    },
    {
      "channel": 0,
      "note": 87,
      "start": 62.3102,
      "duration": 0.1901,
      "velocity": 107,
      "chip": "ym2612"
    },
    {
      "channel": 2,
      "note": 54,
      "start": 62.3102,
      "duration": 0.3042,
      "velocity": 115,
      "chip": "ym2612"
    },
    {
      "channel": 0,
      "note": 89,
      "start": 62.5383,
      "duration": 0.0761,
      "velocity": 107,
      "chip": "ym2612"
    },
    {
      "channel": 1,
      "note": 30,
      "start": 62.5387,
      "duration": 0.0757,
      "velocity": 123,
      "chip": "ym2612"
    },
    {
      "channel": 0,
      "note": 90,
      "start": 62.6524,
      "duration": 0.1901,
      "velocity": 107,
      "chip": "ym2612"
    },
    {
      "channel": 1,
      "note": 30,
      "start": 62.6527,
      "duration": 0.0757,
      "velocity": 123,
      "chip": "ym2612"
    },
    {
      "channel": 2,
      "note": 56,
      "start": 62.6528,
      "duration": 0.0756,
      "velocity": 115,
      "chip": "ym2612"
    },
    {
      "channel": 1,
      "note": 78,
      "start": 62.7668,
      "duration": 0.0758,
      "velocity": 117,
      "chip": "ym2612"
    },
    {
      "channel": 2,
      "note": 56,
      "start": 62.7668,
      "duration": 0.0757,
      "velocity": 115,
      "chip": "ym2612"
    },
    {
      "channel": 0,
      "note": 89,
      "start": 62.8806,
      "duration": 0.076,
      "velocity": 107,
      "chip": "ym2612"
    },
    {
      "channel": 1,
      "note": 78,
      "start": 62.8809,
      "duration": 0.0757,
      "velocity": 117,
      "chip": "ym2612"
    },
    {
      "channel": 0,
      "note": 87,
      "start": 62.9946,
      "duration": 0.1901,
      "velocity": 107,
      "chip": "ym2612"
    },
    {
      "channel": 1,
      "note": 78,
      "start": 62.995,
      "duration": 0.0757,
      "velocity": 117,
      "chip": "ym2612"
    },
    {
      "channel": 1,
      "note": 47,
      "start": 63.109,
      "duration": 0.0757,
      "velocity": 120,
      "chip": "ym2612"
    },
    {
      "channel": 0,
      "note": 92,
      "start": 63.2228,
      "duration": 0.076,
      "velocity": 107,
      "chip": "ym2612"
    },
    {
      "channel": 1,
      "note": 78,
      "start": 63.2232,
      "duration": 0.0757,
      "velocity": 117,
      "chip": "ym2612"
    },
    {
      "channel": 2,
      "note": 56,
      "start": 63.2232,
      "duration": 0.0756,
      "velocity": 115,
      "chip": "ym2612"
    },
    {
      "channel": 1,
      "note": 30,
      "start": 63.3371,
      "duration": 0.0757,
      "velocity": 123,
      "chip": "ym2612"
    },
    {
      "channel": 2,
      "note": 61,
      "start": 63.3372,
      "duration": 0.0757,
      "velocity": 115,
      "chip": "ym2612"
    },
    {
      "channel": 0,
      "note": 87,
      "start": 63.451,
      "duration": 0.0761,
      "velocity": 107,
      "chip": "ym2612"
    },
    {
      "channel": 1,
      "note": 30,
      "start": 63.4513,
      "duration": 0.0757,
      "velocity": 123,
      "chip": "ym2612"
    },
    {
      "channel": 2,
      "note": 61,
      "start": 63.4514,
      "duration": 0.0756,
      "velocity": 115,
      "chip": "ym2612"
    },
    {
      "channel": 0,
      "note": 89,
      "start": 63.5651,
      "duration": 0.076,
      "velocity": 107,
      "chip": "ym2612"
    },
    {
      "channel": 0,
      "note": 87,
      "start": 63.6791,
      "duration": 0.076,
      "velocity": 107,
      "chip": "ym2612"
    },
    {
      "channel": 1,
      "note": 78,
      "start": 63.6795,
      "duration": 0.0756,
      "velocity": 127,
      "chip": "ym2612"
    },
    {
      "channel": 1,
      "note": 30,
      "start": 63.7935,
      "duration": 0.1898,
      "velocity": 123,
      "chip": "ym2612"
    },
    {
      "channel": 0,
      "note": 85,
      "start": 63.9073,
      "duration": 0.076,
      "velocity": 107,
      "chip": "ym2612"
    },
    {
      "channel": 1,
      "note": 47,
      "start": 64.0216,
      "duration": 0.3039,
      "velocity": 120,
      "chip": "ym2612"
    },
    {
      "channel": 0,
      "note": 82,
      "start": 64.1354,
      "duration": 0.0761,
      "velocity": 107,
      "chip": "ym2612"
    },
    {
      "channel": 2,
      "note": 59,
      "start": 64.2495,
      "duration": 0.1901,
      "velocity": 115,
      "chip": "ym2612"
    },
    {
      "channel": 0,
      "note": 85,
      "start": 64.3636,
      "duration": 0.7605,
      "velocity": 107,
      "chip": "ym2612"
    },
    {
      "channel": 1,
      "note": 30,
      "start": 64.3639,
      "duration": 0.0757,
      "velocity": 123,
      "chip": "ym2612"
    },
    {
      "channel": 1,
      "note": 30,
      "start": 64.478,
      "duration": 0.0757,
      "velocity": 123,
      "chip": "ym2612"
    },
    {
      "channel": 2,
      "note": 58,
      "start": 64.478,
      "duration": 0.0756,
      "velocity": 115,
      "chip": "ym2612"
    },
    {
      "channel": 1,
      "note": 78,
      "start": 64.592,
      "duration": 0.0758,
      "velocity": 117,
      "chip": "ym2612"
    },
    {
      "channel": 2,
      "note": 70,
      "start": 64.592,
      "duration": 0.1898,
      "velocity": 115,
      "chip": "ym2612"
    },
    {
      "channel": 1,
      "note": 78,
      "start": 64.7061,
      "duration": 0.0758,
      "velocity": 117,
      "chip": "ym2612"
    },
    {
      "channel": 1,
      "note": 78,
      "start": 64.8202,
      "duration": 0.0757,
      "velocity": 117,
      "chip": "ym2612"
    },
    {
      "channel": 2,
      "note": 68,
      "start": 64.8202,
      "duration": 0.0756,
      "velocity": 115,
      "chip": "ym2612"
    },
    {
      "channel": 1,
      "note": 47,
      "start": 64.9343,
      "duration": 0.0757,
      "velocity": 120,
      "chip": "ym2612"
    },
    {
      "channel": 1,
      "note": 78,
      "start": 65.0483,
      "duration": 0.0757,
      "velocity": 117,
      "chip": "ym2612"
    },
    {
      "channel": 2,
      "note": 66,
      "start": 65.0483,
      "duration": 0.0757,
      "velocity": 115,
      "chip": "ym2612"
    },
    {
      "channel": 0,
      "note": 87,
      "start": 65.1621,
      "duration": 0.076,
      "velocity": 107,
      "chip": "ym2612"
    },
    {
      "channel": 1,
      "note": 30,
      "start": 65.1624,
      "duration": 0.0757,
      "velocity": 123,
      "chip": "ym2612"
    },
    {
      "channel": 2,
      "note": 68,
      "start": 65.1625,
      "duration": 0.0756,
      "velocity": 115,
      "chip": "ym2612"
    },
    {
      "channel": 0,
      "note": 87,
      "start": 65.2762,
      "duration": 0.076,
      "velocity": 107,
      "chip": "ym2612"
    },
    {
      "channel": 1,
      "note": 30,
      "start": 65.2765,
      "duration": 0.0756,
      "velocity": 123,
      "chip": "ym2612"
    },
    {
      "channel": 2,
      "note": 63,
      "start": 65.2766,
      "duration": 0.0756,
      "velocity": 115,
      "chip": "ym2612"
    },
    {
      "channel": 1,
      "note": 78,
      "start": 65.5046,
      "duration": 0.0758,
      "velocity": 127,
      "chip": "ym2612"
    },
    {
      "channel": 2,
      "note": 63,
      "start": 65.5046,
      "duration": 0.0757,
      "velocity": 115,
      "chip": "ym2612"
    },
    {
      "channel": 1,
      "note": 30,
      "start": 65.6186,
      "duration": 0.1899,
      "velocity": 123,
      "chip": "ym2612"
    },
    {
      "channel": 2,
      "note": 61,
      "start": 65.6187,
      "duration": 0.0757,
      "velocity": 115,
      "chip": "ym2612"
    },
    {
      "channel": 1,
      "note": 47,
      "start": 65.8468,
      "duration": 0.1898,
      "velocity": 120,
      "chip": "ym2612"
    },
    {
      "channel": 2,
      "note": 56,
      "start": 65.8469,
      "duration": 0.0757,
      "velocity": 115,
      "chip": "ym2612"
    },
    {
      "channel": 0,
      "note": 89,
      "start": 65.9609,
      "duration": 0.0758,
      "velocity": 99,
      "chip": "ym2612"
    },
    {
      "channel": 2,
      "note": 58,
      "start": 65.961,
      "duration": 0.3039,
      "velocity": 115,
      "chip": "ym2612"
    },
    {
      "channel": 0,
      "note": 90,
      "start": 66.0747,
      "duration": 0.076,
      "velocity": 99,
      "chip": "ym2612"
    },
    {
      "channel": 1,
      "note": 47,
      "start": 66.075,
      "duration": 0.1898,
      "velocity": 120,
      "chip": "ym2612"
    },
    {
      "channel": 0,
      "note": 92,
      "start": 66.1888,
      "duration": 0.076,
      "velocity": 99,
      "chip": "ym2612"
    },
    {
      "channel": 0,
      "note": 94,
      "start": 66.3029,
      "duration": 0.8745,
      "velocity": 99,
      "chip": "ym2612"
    },
    {
      "channel": 1,
      "note": 30,
      "start": 66.3032,
      "duration": 0.0756,
      "velocity": 123,
      "chip": "ym2612"
    },
    {
      "channel": 2,
      "note": 59,
      "start": 66.3033,
      "duration": 0.1897,
      "velocity": 115,
      "chip": "ym2612"
    },
    {
      "channel": 1,
      "note": 78,
      "start": 66.4171,
      "duration": 0.0758,
      "velocity": 117,
      "chip": "ym2612"
    },
    {
      "channel": 1,
      "note": 78,
      "start": 66.5312,
      "duration": 0.0758,
      "velocity": 117,
      "chip": "ym2612"
    },
    {
      "channel": 1,
      "note": 78,
      "start": 66.6453,
      "duration": 0.0758,
      "velocity": 117,
      "chip": "ym2612"
    },
    {
      "channel": 1,
      "note": 47,
      "start": 66.7594,
      "duration": 0.0757,
      "velocity": 120,
      "chip": "ym2612"
    },
    {
      "channel": 2,
      "note": 59,
      "start": 66.7595,
      "duration": 0.0756,
      "velocity": 115,
      "chip": "ym2612"
    },
    {
      "channel": 1,
      "note": 78,
      "start": 66.8735,
      "duration": 0.0757,
      "velocity": 117,
      "chip": "ym2612"
    },
    {
      "channel": 2,
      "note": 59,
      "start": 66.8736,
      "duration": 0.0756,
      "velocity": 115,
      "chip": "ym2612"
    },
    {
      "channel": 1,
      "note": 30,
      "start": 66.9876,
      "duration": 0.0757,
      "velocity": 123,
      "chip": "ym2612"
    },
    {
      "channel": 1,
      "note": 30,
      "start": 67.1017,
      "duration": 0.0757,
      "velocity": 123,
      "chip": "ym2612"
    },
    {
      "channel": 2,
      "note": 59,
      "start": 67.1017,
      "duration": 0.1897,
      "velocity": 115,
      "chip": "ym2612"
    },
    {
      "channel": 1,
      "note": 78,
      "start": 67.3298,
      "duration": 0.0758,
      "velocity": 127,
      "chip": "ym2612"
    },
    {
      "channel": 2,
      "note": 71,
      "start": 67.3298,
      "duration": 0.0757,
      "velocity": 115,
      "chip": "ym2612"
    },
    {
      "channel": 0,
      "note": 94,
      "start": 67.4436,
      "duration": 0.19,
      "velocity": 99,
      "chip": "ym2612"
    },
    {
      "channel": 1,
      "note": 30,
      "start": 67.4439,
      "duration": 0.1897,
      "velocity": 123,
      "chip": "ym2612"
    },
    {
      "channel": 2,
      "note": 61,
      "start": 67.4441,
      "duration": 0.1896,
      "velocity": 115,
      "chip": "ym2612"
    },
    {
      "channel": 0,
      "note": 95,
      "start": 67.6717,
      "duration": 0.1901,
      "velocity": 99,
      "chip": "ym2612"
    },
    {
      "channel": 1,
      "note": 47,
      "start": 67.672,
      "duration": 0.3038,
      "velocity": 120,
      "chip": "ym2612"
    },
    {
      "channel": 2,
      "note": 59,
      "start": 67.6721,
      "duration": 0.4179,
      "velocity": 115,
      "chip": "ym2612"
    },
    {
      "channel": 0,
      "note": 94,
      "start": 67.8998,
      "duration": 0.1901,
      "velocity": 99,
      "chip": "ym2612"
    },
    {
      "channel": 1,
      "note": 30,
      "start": 68.0142,
      "duration": 0.0758,
      "velocity": 123,
      "chip": "ym2612"
    },
    {
      "channel": 0,
      "note": 92,
      "start": 68.128,
      "duration": 0.6464,
      "velocity": 99,
      "chip": "ym2612"
    },
    {
      "channel": 1,
      "note": 30,
      "start": 68.1283,
      "duration": 0.0757,
      "velocity": 123,
      "chip": "ym2612"
    },
    {
      "channel": 2,
      "note": 58,
      "start": 68.1284,
      "duration": 0.1897,
      "velocity": 115,
      "chip": "ym2612"
    },
    {
      "channel": 1,
      "note": 78,
      "start": 68.2423,
      "duration": 0.0758,
      "velocity": 117,
      "chip": "ym2612"
    },
    {
      "channel": 1,
      "note": 78,
      "start": 68.3564,
      "duration": 0.0758,
      "velocity": 117,
      "chip": "ym2612"
    },
    {
      "channel": 1,
      "note": 78,
      "start": 68.4705,
      "duration": 0.0758,
      "velocity": 117,
      "chip": "ym2612"
    },
    {
      "channel": 1,
      "note": 47,
      "start": 68.5846,
      "duration": 0.0758,
      "velocity": 120,
      "chip": "ym2612"
    },
    {
      "channel": 2,
      "note": 58,
      "start": 68.5846,
      "duration": 0.0757,
      "velocity": 115,
      "chip": "ym2612"
    },
    {
      "channel": 1,
      "note": 78,
      "start": 68.6987,
      "duration": 0.0757,
      "velocity": 117,
      "chip": "ym2612"
    },
    {
      "channel": 2,
      "note": 58,
      "start": 68.6987,
      "duration": 0.0757,
      "velocity": 115,
      "chip": "ym2612"
    },
    {
      "channel": 0,
      "note": 89,
      "start": 68.8125,
      "duration": 0.8745,
      "velocity": 99,
      "chip": "ym2612"
    },
    {
      "channel": 1,
      "note": 30,
      "start": 68.8128,
      "duration": 0.0757,
      "velocity": 123,
      "chip": "ym2612"
    },
    {
      "channel": 1,
      "note": 30,
      "start": 68.9268,
      "duration": 0.0757,
      "velocity": 123,
      "chip": "ym2612"
    },
    {
      "channel": 2,
      "note": 58,
      "start": 68.9269,
      "duration": 0.1898,
      "velocity": 115,
      "chip": "ym2612"
    },
    {
      "channel": 1,
      "note": 78,
      "start": 69.1549,
      "duration": 0.0758,
      "velocity": 127,
      "chip": "ym2612"
    },
    {
      "channel": 2,
      "note": 70,
      "start": 69.155,
      "duration": 0.0758,
      "velocity": 115,
      "chip": "ym2612"
    },
    {
      "channel": 1,
      "note": 30,
      "start": 69.269,
      "duration": 0.1898,
      "velocity": 123,
      "chip": "ym2612"
    },
    {
      "channel": 2,
      "note": 59,
      "start": 69.2691,
      "duration": 0.1898,
      "velocity": 115,
      "chip": "ym2612"
    },
    {
      "channel": 1,
      "note": 47,
      "start": 69.4974,
      "duration": 0.3037,
      "velocity": 120,
      "chip": "ym2612"
    },
    {
      "channel": 2,
      "note": 58,
      "start": 69.4975,
      "duration": 0.1895,
      "velocity": 115,
      "chip": "ym2612"
    },
    {
      "channel": 0,
      "note": 89,
      "start": 69.7251,
      "duration": 0.1901,
      "velocity": 99,
      "chip": "ym2612"
    },
    {
      "channel": 2,
      "note": 57,
      "start": 69.7251,
      "duration": 0.1901,
      "velocity": 115,
      "chip": "ym2612"
    },
    {
      "channel": 1,
      "note": 30,
      "start": 69.8395,
      "duration": 0.0758,
      "velocity": 123,
      "chip": "ym2612"
    },
    {
      "channel": 0,
      "note": 90,
      "start": 69.9532,
      "duration": 0.4183,
      "velocity": 99,
      "chip": "ym2612"
    },
    {
      "channel": 1,
      "note": 30,
      "start": 69.9536,
      "duration": 0.0757,
      "velocity": 123,
      "chip": "ym2612"
    },
    {
      "channel": 2,
      "note": 56,
      "start": 69.9537,
      "duration": 0.0756,
      "velocity": 115,
      "chip": "ym2612"
    },
    {
      "channel": 1,
      "note": 78,
      "start": 70.0677,
      "duration": 0.0757,
      "velocity": 117,
      "chip": "ym2612"
    },
    {
      "channel": 2,
      "note": 56,
      "start": 70.0678,
      "duration": 0.0756,
      "velocity": 115,
      "chip": "ym2612"
    },
    {
      "channel": 1,
      "note": 78,
      "start": 70.1817,
      "duration": 0.0757,
      "velocity": 117,
      "chip": "ym2612"
    },
    {
      "channel": 1,
      "note": 78,
      "start": 70.2958,
      "duration": 0.0758,
      "velocity": 117,
      "chip": "ym2612"
    },
    {
      "channel": 0,
      "note": 94,
      "start": 70.4095,
      "duration": 0.4183,
      "velocity": 99,
      "chip": "ym2612"
    },
    {
      "channel": 1,
      "note": 47,
      "start": 70.4099,
      "duration": 0.0757,
      "velocity": 120,
      "chip": "ym2612"
    },
    {
      "channel": 1,
      "note": 78,
      "start": 70.5239,
      "duration": 0.0758,
      "velocity": 117,
      "chip": "ym2612"
    },
    {
      "channel": 2,
      "note": 56,
      "start": 70.5239,
      "duration": 0.0758,
      "velocity": 115,
      "chip": "ym2612"
    },
    {
      "channel": 1,
      "note": 30,
      "start": 70.6382,
      "duration": 0.0756,
      "velocity": 123,
      "chip": "ym2612"
    },
    {
      "channel": 2,
      "note": 61,
      "start": 70.6382,
      "duration": 0.0755,
      "velocity": 115,
      "chip": "ym2612"
    },
    {
      "channel": 1,
      "note": 30,
      "start": 70.7521,
      "duration": 0.0758,
      "velocity": 123,
      "chip": "ym2612"
    },
    {
      "channel": 2,
      "note": 61,
      "start": 70.7522,
      "duration": 0.0757,
      "velocity": 115,
      "chip": "ym2612"
    },
    {
      "channel": 0,
      "note": 92,
      "start": 70.8659,
      "duration": 0.6464,
      "velocity": 99,
      "chip": "ym2612"
    },
    {
      "channel": 1,
      "note": 78,
      "start": 70.9803,
      "duration": 0.0758,
      "velocity": 127,
      "chip": "ym2612"
    },
    {
      "channel": 1,
      "note": 30,
      "start": 71.0944,
      "duration": 0.1898,
      "velocity": 123,
      "chip": "ym2612"
    },
    {
      "channel": 1,
      "note": 47,
      "start": 71.3225,
      "duration": 0.3039,
      "velocity": 120,
      "chip": "ym2612"
    },
    {
      "channel": 0,
      "note": 85,
      "start": 71.5504,
      "duration": 0.0761,
      "velocity": 99,
      "chip": "ym2612"
    },
    {
      "channel": 2,
      "note": 59,
      "start": 71.5505,
      "duration": 0.19,
      "velocity": 115,
      "chip": "ym2612"
    },
    {
      "channel": 1,
      "note": 30,
      "start": 71.6649,
      "duration": 0.0756,
      "velocity": 123,
      "chip": "ym2612"
    },
    {
      "channel": 0,
      "note": 85,
      "start": 71.7787,
      "duration": 0.19,
      "velocity": 99,
      "chip": "ym2612"
    },
    {
      "channel": 1,
      "note": 30,
      "start": 71.779,
      "duration": 0.0756,
      "velocity": 123,
      "chip": "ym2612"
    },
    {
      "channel": 2,
      "note": 58,
      "start": 71.7791,
      "duration": 0.0755,
      "velocity": 115,
      "chip": "ym2612"
    },
    {
      "channel": 1,
      "note": 78,
      "start": 71.8929,
      "duration": 0.0757,
      "velocity": 117,
      "chip": "ym2612"
    },
    {
      "channel": 2,
      "note": 70,
      "start": 71.8929,
      "duration": 0.1898,
      "velocity": 115,
      "chip": "ym2612"
    },
    {
      "channel": 0,
      "note": 87,
      "start": 72.0067,
      "duration": 0.076,
      "velocity": 99,
      "chip": "ym2612"
    },
    {
      "channel": 1,
      "note": 78,
      "start": 72.007,
      "duration": 0.0757,
      "velocity": 117,
      "chip": "ym2612"
    },
    {
      "channel": 0,
      "note": 87,
      "start": 72.1208,
      "duration": 0.9886,
      "velocity": 99,
      "chip": "ym2612"
    },
    {
      "channel": 1,
      "note": 78,
      "start": 72.1211,
      "duration": 0.0757,
      "velocity": 117,
      "chip": "ym2612"
    },
    {
      "channel": 2,
      "note": 68,
      "start": 72.1212,
      "duration": 0.0756,
      "velocity": 115,
      "chip": "ym2612"
    },
    {
      "channel": 1,
      "note": 47,
      "start": 72.2352,
      "duration": 0.0757,
      "velocity": 120,
      "chip": "ym2612"
    },
    {
      "channel": 1,
      "note": 78,
      "start": 72.3493,
      "duration": 0.0756,
      "velocity": 117,
      "chip": "ym2612"
    },
    {
      "channel": 2,
      "note": 66,
      "start": 72.3494,
      "duration": 0.0756,
      "velocity": 115,
      "chip": "ym2612"
    },
    {
      "channel": 1,
      "note": 30,
      "start": 72.4633,
      "duration": 0.0759,
      "velocity": 123,
      "chip": "ym2612"
    },
    {
      "channel": 2,
      "note": 68,
      "start": 72.4634,
      "duration": 0.0758,
      "velocity": 115,
      "chip": "ym2612"
    },
    {
      "channel": 1,
      "note": 30,
      "start": 72.5774,
      "duration": 0.0758,
      "velocity": 123,
      "chip": "ym2612"
    },
    {
      "channel": 2,
      "note": 63,
      "start": 72.5774,
      "duration": 0.0757,
      "velocity": 115,
      "chip": "ym2612"
    },
    {
      "channel": 1,
      "note": 78,
      "start": 72.8055,
      "duration": 0.0758,
      "velocity": 127,
      "chip": "ym2612"
    },
    {
      "channel": 2,
      "note": 63,
      "start": 72.8056,
      "duration": 0.0758,
      "velocity": 115,
      "chip": "ym2612"
    },
    {
      "channel": 1,
      "note": 47,
      "start": 72.9197,
      "duration": 0.0756,
      "velocity": 120,
      "chip": "ym2612"
    },
    {
      "channel": 2,
      "note": 61,
      "start": 72.9198,
      "duration": 0.0756,
      "velocity": 115,
      "chip": "ym2612"
    },
    {
      "channel": 1,
      "note": 47,
      "start": 73.0337,
      "duration": 0.1898,
      "velocity": 120,
      "chip": "ym2612"
    },
    {
      "channel": 2,
      "note": 59,
      "start": 73.1475,
      "duration": 0.1901,
      "velocity": 115,
      "chip": "ym2612"
    },
    {
      "channel": 0,
      "note": 89,
      "start": 73.2615,
      "duration": 0.076,
      "velocity": 99,
      "chip": "ym2612"
    },
    {
      "channel": 1,
      "note": 47,
      "start": 73.2618,
      "duration": 0.0757,
      "velocity": 120,
      "chip": "ym2612"
    },
    {
      "channel": 0,
      "note": 90,
      "start": 73.3756,
      "duration": 0.076,
      "velocity": 99,
      "chip": "ym2612"
    },
    {
      "channel": 1,
      "note": 47,
      "start": 73.376,
      "duration": 0.1897,
      "velocity": 120,
      "chip": "ym2612"
    },
    {
      "channel": 2,
      "note": 58,
      "start": 73.376,
      "duration": 0.1897,
      "velocity": 115,
      "chip": "ym2612"
    },
    {
      "channel": 0,
      "note": 92,
      "start": 73.4897,
      "duration": 0.076,
      "velocity": 99,
      "chip": "ym2612"
    },
    {
      "channel": 0,
      "note": 94,
      "start": 73.6037,
      "duration": 0.8745,
      "velocity": 99,
      "chip": "ym2612"
    },
    {
      "channel": 1,
      "note": 30,
      "start": 73.6041,
      "duration": 0.0756,
      "velocity": 123,
      "chip": "ym2612"
    },
    {
      "channel": 2,
      "note": 59,
      "start": 73.6041,
      "duration": 0.1897,
      "velocity": 115,
      "chip": "ym2612"
    },
    {
      "channel": 1,
      "note": 78,
      "start": 73.718,
      "duration": 0.0758,
      "velocity": 117,
      "chip": "ym2612"
    },
    {
      "channel": 1,
      "note": 78,
      "start": 73.8322,
      "duration": 0.0757,
      "velocity": 117,
      "chip": "ym2612"
    },
    {
      "channel": 1,
      "note": 78,
      "start": 73.9462,
      "duration": 0.0758,
      "velocity": 117,
      "chip": "ym2612"
    },
    {
      "channel": 1,
      "note": 47,
      "start": 74.0604,
      "duration": 0.0756,
      "velocity": 120,
      "chip": "ym2612"
    },
    {
      "channel": 2,
      "note": 59,
      "start": 74.0605,
      "duration": 0.0756,
      "velocity": 115,
      "chip": "ym2612"
    },
    {
      "channel": 1,
      "note": 78,
      "start": 74.1744,
      "duration": 0.0758,
      "velocity": 117,
      "chip": "ym2612"
    },
    {
      "channel": 2,
      "note": 59,
      "start": 74.1744,
      "duration": 0.0757,
      "velocity": 115,
      "chip": "ym2612"
    },
    {
      "channel": 1,
      "note": 30,
      "start": 74.2884,
      "duration": 0.0758,
      "velocity": 123,
      "chip": "ym2612"
    },
    {
      "channel": 1,
      "note": 30,
      "start": 74.4025,
      "duration": 0.0757,
      "velocity": 123,
      "chip": "ym2612"
    },
    {
      "channel": 2,
      "note": 59,
      "start": 74.4026,
      "duration": 0.1898,
      "velocity": 115,
      "chip": "ym2612"
    },
    {
      "channel": 1,
      "note": 78,
      "start": 74.6308,
      "duration": 0.0756,
      "velocity": 127,
      "chip": "ym2612"
    },
    {
      "channel": 2,
      "note": 71,
      "start": 74.6308,
      "duration": 0.0756,
      "velocity": 115,
      "chip": "ym2612"
    },
    {
      "channel": 0,
      "note": 94,
      "start": 74.7444,
      "duration": 0.1901,
      "velocity": 99,
      "chip": "ym2612"
    },
    {
      "channel": 1,
      "note": 30,
      "start": 74.7448,
      "duration": 0.1898,
      "velocity": 123,
      "chip": "ym2612"
    },
    {
      "channel": 2,
      "note": 61,
      "start": 74.7449,
      "duration": 0.1897,
      "velocity": 115,
      "chip": "ym2612"
    },
    {
      "channel": 0,
      "note": 95,
      "start": 74.9726,
      "duration": 0.1901,
      "velocity": 99,
      "chip": "ym2612"
    },
    {
      "channel": 1,
      "note": 47,
      "start": 74.9729,
      "duration": 0.3038,
      "velocity": 120,
      "chip": "ym2612"
    },
    {
      "channel": 2,
      "note": 59,
      "start": 74.973,
      "duration": 0.4179,
      "velocity": 115,
      "chip": "ym2612"
    },
    {
      "channel": 0,
      "note": 94,
      "start": 75.2013,
      "duration": 0.1895,
      "velocity": 99,
      "chip": "ym2612"
    },
    {
      "channel": 1,
      "note": 30,
      "start": 75.3151,
      "duration": 0.0758,
      "velocity": 123,
      "chip": "ym2612"
    },
    {
      "channel": 0,
      "note": 92,
      "start": 75.4289,
      "duration": 0.6464,
      "velocity": 99,
      "chip": "ym2612"
    },
    {
      "channel": 1,
      "note": 30,
      "start": 75.4293,
      "duration": 0.0757,
      "velocity": 123,
      "chip": "ym2612"
    },
    {
      "channel": 2,
      "note": 58,
      "start": 75.4293,
      "duration": 0.1897,
      "velocity": 115,
      "chip": "ym2612"
    },
    {
      "channel": 1,
      "note": 78,
      "start": 75.5433,
      "duration": 0.0757,
      "velocity": 117,
      "chip": "ym2612"
    },
    {
      "channel": 1,
      "note": 78,
      "start": 75.6574,
      "duration": 0.0757,
      "velocity": 117,
      "chip": "ym2612"
    },
    {
      "channel": 1,
      "note": 78,
      "start": 75.7714,
      "duration": 0.0758,
      "velocity": 117,
      "chip": "ym2612"
    },
    {
      "channel": 1,
      "note": 47,
      "start": 75.8855,
      "duration": 0.0758,
      "velocity": 120,
      "chip": "ym2612"
    },
    {
      "channel": 2,
      "note": 58,
      "start": 75.8856,
      "duration": 0.0757,
      "velocity": 115,
      "chip": "ym2612"
    },
    {
      "channel": 1,
      "note": 78,
      "start": 75.9996,
      "duration": 0.0758,
      "velocity": 117,
      "chip": "ym2612"
    },
    {
      "channel": 2,
      "note": 58,
      "start": 75.9996,
      "duration": 0.0757,
      "velocity": 115,
      "chip": "ym2612"
    },
    {
      "channel": 0,
      "note": 89,
      "start": 76.1134,
      "duration": 0.0761,
      "velocity": 99,
      "chip": "ym2612"
    },
    {
      "channel": 1,
      "note": 30,
      "start": 76.1137,
      "duration": 0.0758,
      "velocity": 123,
      "chip": "ym2612"
    },
    {
      "channel": 0,
      "note": 89,
      "start": 76.2275,
      "duration": 0.7605,
      "velocity": 99,
      "chip": "ym2612"
    },
    {
      "channel": 1,
      "note": 30,
      "start": 76.2278,
      "duration": 0.0757,
      "velocity": 123,
      "chip": "ym2612"
    },
    {
      "channel": 2,
      "note": 58,
      "start": 76.2279,
      "duration": 0.1897,
      "velocity": 115,
      "chip": "ym2612"
    },
    {
      "channel": 1,
      "note": 78,
      "start": 76.4559,
      "duration": 0.0757,
      "velocity": 127,
      "chip": "ym2612"
    },
    {
      "channel": 2,
      "note": 70,
      "start": 76.456,
      "duration": 0.0757,
      "velocity": 115,
      "chip": "ym2612"
    },
    {
      "channel": 1,
      "note": 30,
      "start": 76.57,
      "duration": 0.1898,
      "velocity": 123,
      "chip": "ym2612"
    },
    {
      "channel": 2,
      "note": 59,
      "start": 76.5701,
      "duration": 0.1898,
      "velocity": 115,
      "chip": "ym2612"
    },
    {
      "channel": 1,
      "note": 47,
      "start": 76.7982,
      "duration": 0.3039,
      "velocity": 120,
      "chip": "ym2612"
    },
    {
      "channel": 2,
      "note": 58,
      "start": 76.7982,
      "duration": 0.1898,
      "velocity": 115,
      "chip": "ym2612"
    },
    {
      "channel": 0,
      "note": 89,
      "start": 77.0261,
      "duration": 0.1901,
      "velocity": 99,
      "chip": "ym2612"
    },
    {
      "channel": 2,
      "note": 57,
      "start": 77.0261,
      "duration": 0.1901,
      "velocity": 115,
      "chip": "ym2612"
    },
    {
      "channel": 1,
      "note": 30,
      "start": 77.1404,
      "duration": 0.0759,
      "velocity": 123,
      "chip": "ym2612"
    },
    {
      "channel": 0,
      "note": 90,
      "start": 77.2542,
      "duration": 0.4182,
      "velocity": 99,
      "chip": "ym2612"
    },
    {
      "channel": 1,
      "note": 30,
      "start": 77.2545,
      "duration": 0.0757,
      "velocity": 123,
      "chip": "ym2612"
    },
    {
      "channel": 2,
      "note": 56,
      "start": 77.2546,
      "duration": 0.0756,
      "velocity": 115,
      "chip": "ym2612"
    },
    {
      "channel": 1,
      "note": 78,
      "start": 77.3685,
      "duration": 0.0758,
      "velocity": 117,
      "chip": "ym2612"
    },
    {
      "channel": 2,
      "note": 56,
      "start": 77.3686,
      "duration": 0.0757,
      "velocity": 115,
      "chip": "ym2612"
    },
    {
      "channel": 1,
      "note": 78,
      "start": 77.4826,
      "duration": 0.0758,
      "velocity": 117,
      "chip": "ym2612"
    },
    {
      "channel": 1,
      "note": 78,
      "start": 77.5967,
      "duration": 0.0757,
      "velocity": 117,
      "chip": "ym2612"
    },
    {
      "channel": 0,
      "note": 94,
      "start": 77.7105,
      "duration": 0.4182,
      "velocity": 99,
      "chip": "ym2612"
    },
    {
      "channel": 1,
      "note": 47,
      "start": 77.7108,
      "duration": 0.0757,
      "velocity": 120,
      "chip": "ym2612"
    },
    {
      "channel": 1,
      "note": 78,
      "start": 77.8248,
      "duration": 0.0758,
      "velocity": 117,
      "chip": "ym2612"
    },
    {
      "channel": 2,
      "note": 56,
      "start": 77.8249,
      "duration": 0.0757,
      "velocity": 115,
      "chip": "ym2612"
    },
    {
      "channel": 1,
      "note": 30,
      "start": 77.9389,
      "duration": 0.0757,
      "velocity": 123,
      "chip": "ym2612"
    },
    {
      "channel": 2,
      "note": 58,
      "start": 77.939,
      "duration": 0.0756,
      "velocity": 115,
      "chip": "ym2612"
    },
    {
      "channel": 1,
      "note": 30,
      "start": 78.053,
      "duration": 0.0758,
      "velocity": 123,
      "chip": "ym2612"
    },
    {
      "channel": 2,
      "note": 58,
      "start": 78.053,
      "duration": 0.0757,
      "velocity": 115,
      "chip": "ym2612"
    },
    {
      "channel": 0,
      "note": 92,
      "start": 78.1668,
      "duration": 0.4183,
      "velocity": 99,
      "chip": "ym2612"
    },
    {
      "channel": 1,
      "note": 78,
      "start": 78.2811,
      "duration": 0.0758,
      "velocity": 127,
      "chip": "ym2612"
    },
    {
      "channel": 1,
      "note": 30,
      "start": 78.3952,
      "duration": 0.1898,
      "velocity": 123,
      "chip": "ym2612"
    },
    {
      "channel": 0,
      "note": 97,
      "start": 78.6231,
      "duration": 0.6464,
      "velocity": 99,
      "chip": "ym2612"
    },
    {
      "channel": 1,
      "note": 47,
      "start": 78.6234,
      "duration": 0.3039,
      "velocity": 120,
      "chip": "ym2612"
    },
    {
      "channel": 2,
      "note": 58,
      "start": 78.8512,
      "duration": 0.1901,
      "velocity": 115,
      "chip": "ym2612"
    },
    {
      "channel": 1,
      "note": 30,
      "start": 78.9656,
      "duration": 0.0758,
      "velocity": 123,
      "chip": "ym2612"
    },
    {
      "channel": 1,
      "note": 30,
      "start": 79.0798,
      "duration": 0.0757,
      "velocity": 123,
      "chip": "ym2612"
    },
    {
      "channel": 2,
      "note": 59,
      "start": 79.0798,
      "duration": 0.0756,
      "velocity": 115,
      "chip": "ym2612"
    },
    {
      "channel": 1,
      "note": 78,
      "start": 79.1937,
      "duration": 0.0758,
      "velocity": 117,
      "chip": "ym2612"
    },
    {
      "channel": 2,
      "note": 59,
      "start": 79.1938,
      "duration": 0.0757,
      "velocity": 115,
      "chip": "ym2612"
    },
    {
      "channel": 0,
      "note": 95,
      "start": 79.3075,
      "duration": 0.0761,
      "velocity": 99,
      "chip": "ym2612"
    },
    {
      "channel": 1,
      "note": 78,
      "start": 79.3079,
      "duration": 0.0757,
      "velocity": 117,
      "chip": "ym2612"
    },
    {
      "channel": 1,
      "note": 78,
      "start": 79.4219,
      "duration": 0.0757,
      "velocity": 117,
      "chip": "ym2612"
    },
    {
      "channel": 0,
      "note": 94,
      "start": 79.5357,
      "duration": 0.076,
      "velocity": 99,
      "chip": "ym2612"
    },
    {
      "channel": 1,
      "note": 47,
      "start": 79.5361,
      "duration": 0.0757,
      "velocity": 120,
      "chip": "ym2612"
    },
    {
      "channel": 1,
      "note": 78,
      "start": 79.6501,
      "duration": 0.0758,
      "velocity": 117,
      "chip": "ym2612"
    },
    {
      "channel": 2,
      "note": 59,
      "start": 79.6501,
      "duration": 0.0757,
      "velocity": 115,
      "chip": "ym2612"
    },
    {
      "channel": 0,
      "note": 92,
      "start": 79.7638,
      "duration": 0.0761,
      "velocity": 99,
      "chip": "ym2612"
    },
    {
      "channel": 1,
      "note": 30,
      "start": 79.7642,
      "duration": 0.0757,
      "velocity": 123,
      "chip": "ym2612"
    },
    {
      "channel": 2,
      "note": 61,
      "start": 79.7642,
      "duration": 0.0757,
      "velocity": 115,
      "chip": "ym2612"
    },
    {
      "channel": 0,
      "note": 92,
      "start": 79.878,
      "duration": 0.9886,
      "velocity": 99,
      "chip": "ym2612"
    },
    {
      "channel": 1,
      "note": 30,
      "start": 79.8783,
      "duration": 0.0756,
      "velocity": 123,
      "chip": "ym2612"
    },
    {
      "channel": 2,
      "note": 61,
      "start": 79.8784,
      "duration": 0.0756,
      "velocity": 115,
      "chip": "ym2612"
    },
    {
      "channel": 1,
      "note": 78,
      "start": 80.1063,
      "duration": 0.0758,
      "velocity": 127,
      "chip": "ym2612"
    },
    {
      "channel": 1,
      "note": 47,
      "start": 80.2205,
      "duration": 0.0757,
      "velocity": 120,
      "chip": "ym2612"
    },
    {
      "channel": 1,
      "note": 47,
      "start": 80.3345,
      "duration": 0.1899,
      "velocity": 120,
      "chip": "ym2612"
    },
    {
      "channel": 1,
      "note": 47,
      "start": 80.5627,
      "duration": 0.0758,
      "velocity": 120,
      "chip": "ym2612"
    },
    {
      "channel": 1,
      "note": 47,
      "start": 80.6768,
      "duration": 0.1898,
      "velocity": 120,
      "chip": "ym2612"
    },
    {
      "channel": 2,
      "note": 62,
      "start": 80.6768,
      "duration": 0.1897,
      "velocity": 115,
      "chip": "ym2612"
    },
    {
      "channel": 0,
      "note": 87,
      "start": 80.9046,
      "duration": 0.1901,
      "velocity": 99,
      "chip": "ym2612"
    },
    {
      "channel": 1,
      "note": 30,
      "start": 80.9049,
      "duration": 0.0757,
      "velocity": 123,
      "chip": "ym2612"
    },
    {
      "channel": 2,
      "note": 63,
      "start": 80.905,
      "duration": 0.0756,
      "velocity": 115,
      "chip": "ym2612"
    },
    {
      "channel": 1,
      "note": 78,
      "start": 81.019,
      "duration": 0.0757,
      "velocity": 117,
      "chip": "ym2612"
    },
    {
      "channel": 2,
      "note": 63,
      "start": 81.019,
      "duration": 0.0757,
      "velocity": 115,
      "chip": "ym2612"
    },
    {
      "channel": 0,
      "note": 89,
      "start": 81.1328,
      "duration": 0.19,
      "velocity": 99,
      "chip": "ym2612"
    },
    {
      "channel": 1,
      "note": 78,
      "start": 81.1332,
      "duration": 0.0756,
      "velocity": 117,
      "chip": "ym2612"
    },
    {
      "channel": 1,
      "note": 78,
      "start": 81.2471,
      "duration": 0.0757,
      "velocity": 117,
      "chip": "ym2612"
    },
    {
      "channel": 0,
      "note": 90,
      "start": 81.3609,
      "duration": 0.1901,
      "velocity": 99,
      "chip": "ym2612"
    },
    {
      "channel": 1,
      "note": 47,
      "start": 81.3612,
      "duration": 0.0757,
      "velocity": 120,
      "chip": "ym2612"
    },
    {
      "channel": 1,
      "note": 78,
      "start": 81.4752,
      "duration": 0.0758,
      "velocity": 117,
      "chip": "ym2612"
    },
    {
      "channel": 2,
      "note": 65,
      "start": 81.4753,
      "duration": 0.0758,
      "velocity": 115,
      "chip": "ym2612"
    },
    {
      "channel": 0,
      "note": 94,
      "start": 81.5891,
      "duration": 0.076,
      "velocity": 99,
      "chip": "ym2612"
    },
    {
      "channel": 1,
      "note": 30,
      "start": 81.5894,
      "duration": 0.0757,
      "velocity": 123,
      "chip": "ym2612"
    },
    {
      "channel": 2,
      "note": 66,
      "start": 81.5895,
      "duration": 0.0756,
      "velocity": 115,
      "chip": "ym2612"
    },
    {
      "channel": 0,
      "note": 94,
      "start": 81.7031,
      "duration": 0.7605,
      "velocity": 99,
      "chip": "ym2612"
    },
    {
      "channel": 1,
      "note": 30,
      "start": 81.7035,
      "duration": 0.0757,
      "velocity": 123,
      "chip": "ym2612"
    },
    {
      "channel": 2,
      "note": 66,
      "start": 81.7036,
      "duration": 0.0756,
      "velocity": 115,
      "chip": "ym2612"
    },
    {
      "channel": 1,
      "note": 78,
      "start": 81.9316,
      "duration": 0.0757,
      "velocity": 127,
      "chip": "ym2612"
    },
    {
      "channel": 1,
      "note": 30,
      "start": 82.0456,
      "duration": 0.1899,
      "velocity": 123,
      "chip": "ym2612"
    },
    {
      "channel": 1,
      "note": 47,
      "start": 82.2738,
      "duration": 0.3039,
      "velocity": 120,
      "chip": "ym2612"
    },
    {
      "channel": 0,
      "note": 87,
      "start": 82.5017,
      "duration": 0.1901,
      "velocity": 99,
      "chip": "ym2612"
    },
    {
      "channel": 2,
      "note": 58,
      "start": 82.5017,
      "duration": 0.1901,
      "velocity": 115,
      "chip": "ym2612"
    },
    {
      "channel": 1,
      "note": 30,
      "start": 82.616,
      "duration": 0.0758,
      "velocity": 123,
      "chip": "ym2612"
    },
    {
      "channel": 0,
      "note": 94,
      "start": 82.7299,
      "duration": 0.1901,
      "velocity": 99,
      "chip": "ym2612"
    },
    {
      "channel": 1,
      "note": 30,
      "start": 82.7302,
      "duration": 0.0757,
      "velocity": 123,
      "chip": "ym2612"
    },
    {
      "channel": 2,
      "note": 59,
      "start": 82.7303,
      "duration": 0.0756,
      "velocity": 115,
      "chip": "ym2612"
    },
    {
      "channel": 1,
      "note": 78,
      "start": 82.8441,
      "duration": 0.0758,
      "velocity": 117,
      "chip": "ym2612"
    },
    {
      "channel": 2,
      "note": 59,
      "start": 82.8442,
      "duration": 0.0757,
      "velocity": 115,
      "chip": "ym2612"
    },
    {
      "channel": 0,
      "note": 92,
      "start": 82.958,
      "duration": 0.19,
      "velocity": 99,
      "chip": "ym2612"
    },
    {
      "channel": 1,
      "note": 78,
      "start": 82.9584,
      "duration": 0.0756,
      "velocity": 117,
      "chip": "ym2612"
    },
    {
      "channel": 1,
      "note": 78,
      "start": 83.0723,
      "duration": 0.0758,
      "velocity": 117,
      "chip": "ym2612"
    },
    {
      "channel": 0,
      "note": 87,
      "start": 83.1861,
      "duration": 0.1901,
      "velocity": 99,
      "chip": "ym2612"
    },
    {
      "channel": 1,
      "note": 47,
      "start": 83.1865,
      "duration": 0.0756,
      "velocity": 120,
      "chip": "ym2612"
    },
    {
      "channel": 1,
      "note": 78,
      "start": 83.3005,
      "duration": 0.0758,
      "velocity": 117,
      "chip": "ym2612"
    },
    {
      "channel": 2,
      "note": 59,
      "start": 83.3005,
      "duration": 0.0757,
      "velocity": 115,
      "chip": "ym2612"
    },
    {
      "channel": 0,
      "note": 90,
      "start": 83.4143,
      "duration": 0.076,
      "velocity": 99,
      "chip": "ym2612"
    },
    {
      "channel": 1,
      "note": 30,
      "start": 83.4146,
      "duration": 0.0757,
      "velocity": 123,
      "chip": "ym2612"
    },
    {
      "channel": 2,
      "note": 61,
      "start": 83.4147,
      "duration": 0.0756,
      "velocity": 115,
      "chip": "ym2612"
    },
    {
      "channel": 0,
      "note": 89,
      "start": 83.5284,
      "duration": 0.9886,
      "velocity": 99,
      "chip": "ym2612"
    },
    {
      "channel": 1,
      "note": 30,
      "start": 83.5287,
      "duration": 0.0757,
      "velocity": 123,
      "chip": "ym2612"
    },
    {
      "channel": 2,
      "note": 61,
      "start": 83.5288,
      "duration": 0.0756,
      "velocity": 115,
      "chip": "ym2612"
    },
    {
      "channel": 1,
      "note": 78,
      "start": 83.7568,
      "duration": 0.0757,
      "velocity": 127,
      "chip": "ym2612"
    },
    {
      "channel": 1,
      "note": 30,
      "start": 83.8708,
      "duration": 0.1899,
      "velocity": 123,
      "chip": "ym2612"
    },
    {
      "channel": 1,
      "note": 47,
      "start": 84.099,
      "duration": 0.3039,
      "velocity": 120,
      "chip": "ym2612"
    },
    {
      "channel": 2,
      "note": 62,
      "start": 84.3269,
      "duration": 0.1901,
      "velocity": 115,
      "chip": "ym2612"
    },
    {
      "channel": 1,
      "note": 30,
      "start": 84.4413,
      "duration": 0.0757,
      "velocity": 123,
      "chip": "ym2612"
    },
    {
      "channel": 0,
      "note": 90,
      "start": 84.555,
      "duration": 0.1901,
      "velocity": 99,
      "chip": "ym2612"
    },
    {
      "channel": 1,
      "note": 30,
      "start": 84.5554,
      "duration": 0.0756,
      "velocity": 123,
      "chip": "ym2612"
    },
    {
      "channel": 2,
      "note": 63,
      "start": 84.5555,
      "duration": 0.0756,
      "velocity": 115,
      "chip": "ym2612"
    },
    {
      "channel": 1,
      "note": 78,
      "start": 84.6694,
      "duration": 0.0758,
      "velocity": 117,
      "chip": "ym2612"
    },
    {
      "channel": 2,
      "note": 63,
      "start": 84.6694,
      "duration": 0.0758,
      "velocity": 115,
      "chip": "ym2612"
    },
    {
      "channel": 0,
      "note": 92,
      "start": 84.7832,
      "duration": 0.1901,
      "velocity": 99,
      "chip": "ym2612"
    },
    {
      "channel": 1,
      "note": 78,
      "start": 84.7836,
      "duration": 0.0756,
      "velocity": 117,
      "chip": "ym2612"
    },
    {
      "channel": 1,
      "note": 78,
      "start": 84.8975,
      "duration": 0.0758,
      "velocity": 117,
      "chip": "ym2612"
    },
    {
      "channel": 0,
      "note": 94,
      "start": 85.0113,
      "duration": 0.1901,
      "velocity": 99,
      "chip": "ym2612"
    },
    {
      "channel": 1,
      "note": 47,
      "start": 85.0117,
      "duration": 0.0757,
      "velocity": 120,
      "chip": "ym2612"
    },
    {
      "channel": 1,
      "note": 78,
      "start": 85.1257,
      "duration": 0.0758,
      "velocity": 117,
      "chip": "ym2612"
    },
    {
      "channel": 2,
      "note": 65,
      "start": 85.1257,
      "duration": 0.0757,
      "velocity": 115,
      "chip": "ym2612"
    },
    {
      "channel": 0,
      "note": 97,
      "start": 85.2395,
      "duration": 0.076,
      "velocity": 99,
      "chip": "ym2612"
    },
    {
      "channel": 1,
      "note": 30,
      "start": 85.2399,
      "duration": 0.0757,
      "velocity": 123,
      "chip": "ym2612"
    },
    {
      "channel": 2,
      "note": 66,
      "start": 85.2399,
      "duration": 0.0756,
      "velocity": 115,
      "chip": "ym2612"
    },
    {
      "channel": 0,
      "note": 97,
      "start": 85.3536,
      "duration": 1.4449,
      "velocity": 99,
      "chip": "ym2612"
    },
    {
      "channel": 1,
      "note": 30,
      "start": 85.3539,
      "duration": 0.0757,
      "velocity": 123,
      "chip": "ym2612"
    },
    {
      "channel": 2,
      "note": 66,
      "start": 85.354,
      "duration": 0.0756,
      "velocity": 115,
      "chip": "ym2612"
    },
    {
      "channel": 1,
      "note": 78,
      "start": 85.582,
      "duration": 0.0758,
      "velocity": 127,
      "chip": "ym2612"
    },
    {
      "channel": 1,
      "note": 30,
      "start": 85.6961,
      "duration": 0.1899,
      "velocity": 123,
      "chip": "ym2612"
    },
    {
      "channel": 1,
      "note": 47,
      "start": 85.9243,
      "duration": 0.3039,
      "velocity": 120,
      "chip": "ym2612"
    },
    {
      "channel": 2,
      "note": 58,
      "start": 86.1521,
      "duration": 0.1901,
      "velocity": 115,
      "chip": "ym2612"
    },
    {
      "channel": 1,
      "note": 30,
      "start": 86.2664,
      "duration": 0.0758,
      "velocity": 123,
      "chip": "ym2612"
    },
    {
      "channel": 1,
      "note": 30,
      "start": 86.3806,
      "duration": 0.0758,
      "velocity": 123,
      "chip": "ym2612"
    },
    {
      "channel": 2,
      "note": 59,
      "start": 86.3806,
      "duration": 0.0757,
      "velocity": 115,
      "chip": "ym2612"
    },
    {
      "channel": 1,
      "note": 78,
      "start": 86.4946,
      "duration": 0.0757,
      "velocity": 117,
      "chip": "ym2612"
    },
    {
      "channel": 2,
      "note": 59,
      "start": 86.4947,
      "duration": 0.0757,
      "velocity": 115,
      "chip": "ym2612"
    },
    {
      "channel": 1,
      "note": 78,
      "start": 86.6087,
      "duration": 0.0757,
      "velocity": 117,
      "chip": "ym2612"
    },
    {
      "channel": 1,
      "note": 78,
      "start": 86.7227,
      "duration": 0.0757,
      "velocity": 117,
      "chip": "ym2612"
    },
    {
      "channel": 0,
      "note": 95,
      "start": 86.8366,
      "duration": 0.4182,
      "velocity": 99,
      "chip": "ym2612"
    },
    {
      "channel": 1,
      "note": 47,
      "start": 86.8369,
      "duration": 0.0756,
      "velocity": 120,
      "chip": "ym2612"
    },
    {
      "channel": 1,
      "note": 78,
      "start": 86.9509,
      "duration": 0.0757,
      "velocity": 117,
      "chip": "ym2612"
    },
    {
      "channel": 2,
      "note": 59,
      "start": 86.9509,
      "duration": 0.0757,
      "velocity": 115,
      "chip": "ym2612"
    },
    {
      "channel": 1,
      "note": 30,
      "start": 87.065,
      "duration": 0.0757,
      "velocity": 123,
      "chip": "ym2612"
    },
    {
      "channel": 2,
      "note": 61,
      "start": 87.065,
      "duration": 0.0757,
      "velocity": 115,
      "chip": "ym2612"
    },
    {
      "channel": 1,
      "note": 30,
      "start": 87.179,
      "duration": 0.0757,
      "velocity": 123,
      "chip": "ym2612"
    },
    {
      "channel": 2,
      "note": 61,
      "start": 87.1791,
      "duration": 0.0756,
      "velocity": 115,
      "chip": "ym2612"
    },
    {
      "channel": 0,
      "note": 94,
      "start": 87.2928,
      "duration": 0.4183,
      "velocity": 99,
      "chip": "ym2612"
    },
    {
      "channel": 1,
      "note": 78,
      "start": 87.4072,
      "duration": 0.0758,
      "velocity": 127,
      "chip": "ym2612"
    },
    {
      "channel": 1,
      "note": 30,
      "start": 87.5213,
      "duration": 0.1898,
      "velocity": 123,
      "chip": "ym2612"
    },
    {
      "channel": 0,
      "note": 92,
      "start": 87.7491,
      "duration": 0.4183,
      "velocity": 99,
      "chip": "ym2612"
    },
    {
      "channel": 1,
      "note": 47,
      "start": 87.7495,
      "duration": 0.0756,
      "velocity": 120,
      "chip": "ym2612"
    },
    {
      "channel": 1,
      "note": 47,
      "start": 87.8635,
      "duration": 0.1899,
      "velocity": 120,
      "chip": "ym2612"
    },
    {
      "channel": 2,
      "note": 62,
      "start": 87.9773,
      "duration": 0.1901,
      "velocity": 115,
      "chip": "ym2612"
    },
    {
      "channel": 1,
      "note": 30,
      "start": 88.0916,
      "duration": 0.0758,
      "velocity": 123,
      "chip": "ym2612"
    },
    {
      "channel": 0,
      "note": 87,
      "start": 88.2057,
      "duration": 0.1898,
      "velocity": 107,
      "chip": "ym2612"
    },
    {
      "channel": 1,
      "note": 30,
      "start": 88.2061,
      "duration": 0.0754,
      "velocity": 123,
      "chip": "ym2612"
    },
    {
      "channel": 2,
      "note": 63,
      "start": 88.2061,
      "duration": 0.0754,
      "velocity": 115,
      "chip": "ym2612"
    },
    {
      "channel": 1,
      "note": 78,
      "start": 88.3198,
      "duration": 0.0758,
      "velocity": 117,
      "chip": "ym2612"
    },
    {
      "channel": 2,
      "note": 63,
      "start": 88.3198,
      "duration": 0.0757,
      "velocity": 115,
      "chip": "ym2612"
    },
    {
      "channel": 0,
      "note": 89,
      "start": 88.4336,
      "duration": 0.1901,
      "velocity": 107,
      "chip": "ym2612"
    },
    {
      "channel": 1,
      "note": 78,
      "start": 88.434,
      "duration": 0.0756,
      "velocity": 117,
      "chip": "ym2612"
    },
    {
      "channel": 1,
      "note": 78,
      "start": 88.5479,
      "duration": 0.0758,
      "velocity": 117,
      "chip": "ym2612"
    },
    {
      "channel": 0,
      "note": 90,
      "start": 88.6617,
      "duration": 0.1901,
      "velocity": 107,
      "chip": "ym2612"
    },
    {
      "channel": 1,
      "note": 47,
      "start": 88.6621,
      "duration": 0.0757,
      "velocity": 120,
      "chip": "ym2612"
    },
    {
      "channel": 1,
      "note": 78,
      "start": 88.7761,
      "duration": 0.0758,
      "velocity": 117,
      "chip": "ym2612"
    },
    {
      "channel": 2,
      "note": 65,
      "start": 88.7761,
      "duration": 0.0757,
      "velocity": 115,
      "chip": "ym2612"
    },
    {
      "channel": 0,
      "note": 94,
      "start": 88.8899,
      "duration": 0.076,
      "velocity": 107,
      "chip": "ym2612"
    },
    {
      "channel": 1,
      "note": 30,
      "start": 88.8902,
      "duration": 0.0757,
      "velocity": 123,
      "chip": "ym2612"
    },
    {
      "channel": 2,
      "note": 66,
      "start": 88.8903,
      "duration": 0.0756,
      "velocity": 115,
      "chip": "ym2612"
    },
    {
      "channel": 0,
      "note": 94,
      "start": 89.004,
      "duration": 0.7605,
      "velocity": 107,
      "chip": "ym2612"
    },
    {
      "channel": 1,
      "note": 30,
      "start": 89.0043,
      "duration": 0.0757,
      "velocity": 123,
      "chip": "ym2612"
    },
    {
      "channel": 2,
      "note": 66,
      "start": 89.0044,
      "duration": 0.0756,
      "velocity": 115,
      "chip": "ym2612"
    },
    {
      "channel": 1,
      "note": 78,
      "start": 89.2324,
      "duration": 0.0757,
      "velocity": 127,
      "chip": "ym2612"
    },
    {
      "channel": 1,
      "note": 30,
      "start": 89.3465,
      "duration": 0.1899,
      "velocity": 123,
      "chip": "ym2612"
    },
    {
      "channel": 1,
      "note": 47,
      "start": 89.5746,
      "duration": 0.3039,
      "velocity": 120,
      "chip": "ym2612"
    },
    {
      "channel": 0,
      "note": 87,
      "start": 89.8025,
      "duration": 0.1901,
      "velocity": 107,
      "chip": "ym2612"
    },
    {
      "channel": 2,
      "note": 58,
      "start": 89.8026,
      "duration": 0.19,
      "velocity": 115,
      "chip": "ym2612"
    },
    {
      "channel": 1,
      "note": 30,
      "start": 89.9168,
      "duration": 0.0758,
      "velocity": 123,
      "chip": "ym2612"
    },
    {
      "channel": 0,
      "note": 94,
      "start": 90.0307,
      "duration": 0.1901,
      "velocity": 107,
      "chip": "ym2612"
    },
    {
      "channel": 1,
      "note": 30,
      "start": 90.031,
      "duration": 0.0757,
      "velocity": 123,
      "chip": "ym2612"
    },
    {
      "channel": 2,
      "note": 59,
      "start": 90.0311,
      "duration": 0.0756,
      "velocity": 115,
      "chip": "ym2612"
    },
    {
      "channel": 1,
      "note": 78,
      "start": 90.145,
      "duration": 0.0758,
      "velocity": 117,
      "chip": "ym2612"
    },
    {
      "channel": 2,
      "note": 59,
      "start": 90.1451,
      "duration": 0.0757,
      "velocity": 115,
      "chip": "ym2612"
    },
    {
      "channel": 0,
      "note": 92,
      "start": 90.2588,
      "duration": 0.1901,
      "velocity": 107,
      "chip": "ym2612"
    },
    {
      "channel": 1,
      "note": 78,
      "start": 90.2591,
      "duration": 0.0757,
      "velocity": 117,
      "chip": "ym2612"
    },
    {
      "channel": 1,
      "note": 78,
      "start": 90.3732,
      "duration": 0.0758,
      "velocity": 117,
      "chip": "ym2612"
    },
    {
      "channel": 0,
      "note": 87,
      "start": 90.487,
      "duration": 0.1901,
      "velocity": 107,
      "chip": "ym2612"
    },
    {
      "channel": 1,
      "note": 47,
      "start": 90.4873,
      "duration": 0.0757,
      "velocity": 120,
      "chip": "ym2612"
    },
    {
      "channel": 1,
      "note": 78,
      "start": 90.6013,
      "duration": 0.0758,
      "velocity": 117,
      "chip": "ym2612"
    },
    {
      "channel": 2,
      "note": 59,
      "start": 90.6014,
      "duration": 0.0757,
      "velocity": 115,
      "chip": "ym2612"
    },
    {
      "channel": 0,
      "note": 90,
      "start": 90.7151,
      "duration": 0.0761,
      "velocity": 107,
      "chip": "ym2612"
    },
    {
      "channel": 1,
      "note": 30,
      "start": 90.7155,
      "duration": 0.0757,
      "velocity": 123,
      "chip": "ym2612"
    },
    {
      "channel": 2,
      "note": 61,
      "start": 90.7156,
      "duration": 0.0756,
      "velocity": 115,
      "chip": "ym2612"
    },
    {
      "channel": 0,
      "note": 89,
      "start": 90.8292,
      "duration": 0.9886,
      "velocity": 107,
      "chip": "ym2612"
    },
    {
      "channel": 1,
      "note": 30,
      "start": 90.8296,
      "duration": 0.0756,
      "velocity": 123,
      "chip": "ym2612"
    },
    {
      "channel": 2,
      "note": 61,
      "start": 90.8296,
      "duration": 0.0756,
      "velocity": 115,
      "chip": "ym2612"
    },
    {
      "channel": 1,
      "note": 78,
      "start": 91.0576,
      "duration": 0.0758,
      "velocity": 127,
      "chip": "ym2612"
    },
    {
      "channel": 1,
      "note": 30,
      "start": 91.1717,
      "duration": 0.1898,
      "velocity": 123,
      "chip": "ym2612"
    },
    {
      "channel": 1,
      "note": 47,
      "start": 91.3998,
      "duration": 0.3039,
      "velocity": 120,
      "chip": "ym2612"
    },
    {
      "channel": 2,
      "note": 62,
      "start": 91.6277,
      "duration": 0.1901,
      "velocity": 115,
      "chip": "ym2612"
    },
    {
      "channel": 1,
      "note": 30,
      "start": 91.7421,
      "duration": 0.0757,
      "velocity": 123,
      "chip": "ym2612"
    },
    {
      "channel": 0,
      "note": 90,
      "start": 91.8559,
      "duration": 0.1901,
      "velocity": 107,
      "chip": "ym2612"
    },
    {
      "channel": 1,
      "note": 30,
      "start": 91.8562,
      "duration": 0.0756,
      "velocity": 123,
      "chip": "ym2612"
    },
    {
      "channel": 2,
      "note": 63,
      "start": 91.8563,
      "duration": 0.0756,
      "velocity": 115,
      "chip": "ym2612"
    },
    {
      "channel": 1,
      "note": 78,
      "start": 91.9702,
      "duration": 0.0758,
      "velocity": 117,
      "chip": "ym2612"
    },
    {
      "channel": 2,
      "note": 63,
      "start": 91.9702,
      "duration": 0.0757,
      "velocity": 115,
      "chip": "ym2612"
    },
    {
      "channel": 0,
      "note": 92,
      "start": 92.084,
      "duration": 0.1901,
      "velocity": 107,
      "chip": "ym2612"
    },
    {
      "channel": 1,
      "note": 78,
      "start": 92.0843,
      "duration": 0.0757,
      "velocity": 117,
      "chip": "ym2612"
    },
    {
      "channel": 1,
      "note": 78,
      "start": 92.1983,
      "duration": 0.0758,
      "velocity": 117,
      "chip": "ym2612"
    },
    {
      "channel": 0,
      "note": 94,
      "start": 92.3121,
      "duration": 0.1901,
      "velocity": 107,
      "chip": "ym2612"
    },
    {
      "channel": 1,
      "note": 47,
      "start": 92.3125,
      "duration": 0.0757,
      "velocity": 120,
      "chip": "ym2612"
    },
    {
      "channel": 1,
      "note": 78,
      "start": 92.4265,
      "duration": 0.0758,
      "velocity": 117,
      "chip": "ym2612"
    },
    {
      "channel": 2,
      "note": 65,
      "start": 92.4266,
      "duration": 0.0757,
      "velocity": 115,
      "chip": "ym2612"
    },
    {
      "channel": 0,
      "note": 97,
      "start": 92.5403,
      "duration": 0.076,
      "velocity": 107,
      "chip": "ym2612"
    },
    {
      "channel": 1,
      "note": 30,
      "start": 92.5407,
      "duration": 0.0757,
      "velocity": 123,
      "chip": "ym2612"
    },
    {
      "channel": 2,
      "note": 66,
      "start": 92.5407,
      "duration": 0.0756,
      "velocity": 115,
      "chip": "ym2612"
    },
    {
      "channel": 0,
      "note": 97,
      "start": 92.6544,
      "duration": 1.4449,
      "velocity": 107,
      "chip": "ym2612"
    },
    {
      "channel": 1,
      "note": 30,
      "start": 92.6547,
      "duration": 0.0757,
      "velocity": 123,
      "chip": "ym2612"
    },
    {
      "channel": 2,
      "note": 66,
      "start": 92.6548,
      "duration": 0.0756,
      "velocity": 115,
      "chip": "ym2612"
    },
    {
      "channel": 1,
      "note": 78,
      "start": 92.8828,
      "duration": 0.0757,
      "velocity": 127,
      "chip": "ym2612"
    },
    {
      "channel": 1,
      "note": 30,
      "start": 92.9969,
      "duration": 0.1898,
      "velocity": 123,
      "chip": "ym2612"
    },
    {
      "channel": 1,
      "note": 47,
      "start": 93.2251,
      "duration": 0.3039,
      "velocity": 120,
      "chip": "ym2612"
    },
    {
      "channel": 2,
      "note": 58,
      "start": 93.453,
      "duration": 0.1901,
      "velocity": 115,
      "chip": "ym2612"
    },
    {
      "channel": 1,
      "note": 30,
      "start": 93.5673,
      "duration": 0.0758,
      "velocity": 123,
      "chip": "ym2612"
    },
    {
      "channel": 1,
      "note": 30,
      "start": 93.6814,
      "duration": 0.0757,
      "velocity": 123,
      "chip": "ym2612"
    },
    {
      "channel": 2,
      "note": 59,
      "start": 93.6815,
      "duration": 0.0757,
      "velocity": 115,
      "chip": "ym2612"
    },
    {
      "channel": 1,
      "note": 78,
      "start": 93.7955,
      "duration": 0.0758,
      "velocity": 117,
      "chip": "ym2612"
    },
    {
      "channel": 2,
      "note": 59,
      "start": 93.7955,
      "duration": 0.0757,
      "velocity": 115,
      "chip": "ym2612"
    },
    {
      "channel": 1,
      "note": 47,
      "start": 93.9096,
      "duration": 0.0757,
      "velocity": 120,
      "chip": "ym2612"
    },
    {
      "channel": 1,
      "note": 78,
      "start": 94.0236,
      "duration": 0.0757,
      "velocity": 117,
      "chip": "ym2612"
    },
    {
      "channel": 0,
      "note": 95,
      "start": 94.1374,
      "duration": 0.4183,
      "velocity": 107,
      "chip": "ym2612"
    },
    {
      "channel": 1,
      "note": 47,
      "start": 94.1377,
      "duration": 0.0757,
      "velocity": 120,
      "chip": "ym2612"
    },
    {
      "channel": 1,
      "note": 78,
      "start": 94.2517,
      "duration": 0.0758,
      "velocity": 117,
      "chip": "ym2612"
    },
    {
      "channel": 2,
      "note": 59,
      "start": 94.2518,
      "duration": 0.0757,
      "velocity": 115,
      "chip": "ym2612"
    },
    {
      "channel": 1,
      "note": 30,
      "start": 94.3658,
      "duration": 0.0758,
      "velocity": 123,
      "chip": "ym2612"
    },
    {
      "channel": 2,
      "note": 61,
      "start": 94.3659,
      "duration": 0.0757,
      "velocity": 115,
      "chip": "ym2612"
    },
    {
      "channel": 1,
      "note": 30,
      "start": 94.4799,
      "duration": 0.0758,
      "velocity": 123,
      "chip": "ym2612"
    },
    {
      "channel": 2,
      "note": 61,
      "start": 94.48,
      "duration": 0.0757,
      "velocity": 115,
      "chip": "ym2612"
    },
    {
      "channel": 0,
      "note": 94,
      "start": 94.5937,
      "duration": 0.4183,
      "velocity": 107,
      "chip": "ym2612"
    },
    {
      "channel": 1,
      "note": 78,
      "start": 94.7081,
      "duration": 0.0757,
      "velocity": 127,
      "chip": "ym2612"
    },
    {
      "channel": 1,
      "note": 47,
      "start": 94.8222,
      "duration": 0.0757,
      "velocity": 120,
      "chip": "ym2612"
    },
    {
      "channel": 1,
      "note": 47,
      "start": 94.9363,
      "duration": 0.1898,
      "velocity": 120,
      "chip": "ym2612"
    },
    {
      "channel": 0,
      "note": 92,
      "start": 95.0501,
      "duration": 0.4182,
      "velocity": 107,
      "chip": "ym2612"
    },
    {
      "channel": 1,
      "note": 78,
      "start": 95.1644,
      "duration": 0.0757,
      "velocity": 127,
      "chip": "ym2612"
    },
    {
      "channel": 1,
      "note": 47,
      "start": 95.2785,
      "duration": 0.0757,
      "velocity": 120,
      "chip": "ym2612"
    },
    {
      "channel": 2,
      "note": 58,
      "start": 95.2786,
      "duration": 0.1898,
      "velocity": 115,
      "chip": "ym2612"
    },
    {
      "channel": 1,
      "note": 47,
      "start": 95.3925,
      "duration": 0.0758,
      "velocity": 120,
      "chip": "ym2612"
    },
    {
      "channel": 0,
      "note": 87,
      "start": 95.5063,
      "duration": 1.7872,
      "velocity": 107,
      "chip": "ym2612"
    },
    {
      "channel": 1,
      "note": 30,
      "start": 95.5068,
      "duration": 0.0756,
      "velocity": 123,
      "chip": "ym2612"
    },
    {
      "channel": 2,
      "note": 63,
      "start": 95.5069,
      "duration": 0.1896,
      "velocity": 115,
      "chip": "ym2612"
    },
    {
      "channel": 1,
      "note": 78,
      "start": 95.6207,
      "duration": 0.0757,
      "velocity": 117,
      "chip": "ym2612"
    },
    {
      "channel": 1,
      "note": 78,
      "start": 95.7347,
      "duration": 0.0758,
      "velocity": 117,
      "chip": "ym2612"
    },
    {
      "channel": 1,
      "note": 78,
      "start": 95.8488,
      "duration": 0.0758,
      "velocity": 117,
      "chip": "ym2612"
    },
    {
      "channel": 1,
      "note": 47,
      "start": 95.963,
      "duration": 0.0757,
      "velocity": 120,
      "chip": "ym2612"
    },
    {
      "channel": 1,
      "note": 78,
      "start": 96.077,
      "duration": 0.0758,
      "velocity": 117,
      "chip": "ym2612"
    },
    {
      "channel": 1,
      "note": 30,
      "start": 96.1911,
      "duration": 0.0758,
      "velocity": 123,
      "chip": "ym2612"
    },
    {
      "channel": 2,
      "note": 63,
      "start": 96.1912,
      "duration": 0.1898,
      "velocity": 115,
      "chip": "ym2612"
    },
    {
      "channel": 1,
      "note": 30,
      "start": 96.3052,
      "duration": 0.0758,
      "velocity": 123,
      "chip": "ym2612"
    },
    {
      "channel": 1,
      "note": 78,
      "start": 96.5334,
      "duration": 0.0758,
      "velocity": 127,
      "chip": "ym2612"
    },
    {
      "channel": 1,
      "note": 30,
      "start": 96.6474,
      "duration": 0.1898,
      "velocity": 123,
      "chip": "ym2612"
    },
    {
      "channel": 2,
      "note": 63,
      "start": 96.6475,
      "duration": 0.1898,
      "velocity": 115,
      "chip": "ym2612"
    },
    {
      "channel": 1,
      "note": 47,
      "start": 96.8756,
      "duration": 0.3039,
      "velocity": 120,
      "chip": "ym2612"
    },
    {
      "channel": 2,
      "note": 63,
      "start": 96.8757,
      "duration": 0.0756,
      "velocity": 115,
      "chip": "ym2612"
    },
    {
      "channel": 2,
      "note": 61,
      "start": 96.9894,
      "duration": 0.3042,
      "velocity": 115,
      "chip": "ym2612"
    },
    {
      "channel": 1,
      "note": 30,
      "start": 97.2178,
      "duration": 0.0757,
      "velocity": 123,
      "chip": "ym2612"
    },
    {
      "channel": 1,
      "note": 30,
      "start": 97.3319,
      "duration": 0.0758,
      "velocity": 123,
      "chip": "ym2612"
    },
    {
      "channel": 2,
      "note": 63,
      "start": 97.332,
      "duration": 0.1898,
      "velocity": 115,
      "chip": "ym2612"
    },
    {
      "channel": 1,
      "note": 78,
      "start": 97.446,
      "duration": 0.0758,
      "velocity": 117,
      "chip": "ym2612"
    },
    {
      "channel": 1,
      "note": 78,
      "start": 97.5601,
      "duration": 0.0758,
      "velocity": 117,
      "chip": "ym2612"
    },
    {
      "channel": 1,
      "note": 78,
      "start": 97.6741,
      "duration": 0.0758,
      "velocity": 117,
      "chip": "ym2612"
    },
    {
      "channel": 1,
      "note": 47,
      "start": 97.7882,
      "duration": 0.0758,
      "velocity": 120,
      "chip": "ym2612"
    },
    {
      "channel": 1,
      "note": 78,
      "start": 97.9023,
      "duration": 0.0758,
      "velocity": 117,
      "chip": "ym2612"
    },
    {
      "channel": 1,
      "note": 30,
      "start": 98.0164,
      "duration": 0.0758,
      "velocity": 123,
      "chip": "ym2612"
    },
    {
      "channel": 2,
      "note": 63,
      "start": 98.0164,
      "duration": 0.0757,
      "velocity": 115,
      "chip": "ym2612"
    },
    {
      "channel": 1,
      "note": 30,
      "start": 98.1304,
      "duration": 0.0758,
      "velocity": 123,
      "chip": "ym2612"
    },
    {
      "channel": 2,
      "note": 63,
      "start": 98.1305,
      "duration": 0.0757,
      "velocity": 115,
      "chip": "ym2612"
    },
    {
      "channel": 1,
      "note": 78,
      "start": 98.3586,
      "duration": 0.0757,
      "velocity": 127,
      "chip": "ym2612"
    },
    {
      "channel": 1,
      "note": 30,
      "start": 98.4727,
      "duration": 0.1898,
      "velocity": 123,
      "chip": "ym2612"
    },
    {
      "channel": 2,
      "note": 63,
      "start": 98.4728,
      "duration": 0.1897,
      "velocity": 115,
      "chip": "ym2612"
    },
    {
      "channel": 1,
      "note": 47,
      "start": 98.7008,
      "duration": 0.3039,
      "velocity": 120,
      "chip": "ym2612"
    },
    {
      "channel": 2,
      "note": 63,
      "start": 98.8146,
      "duration": 0.0761,
      "velocity": 115,
      "chip": "ym2612"
    },
    {
      "channel": 2,
      "note": 61,
      "start": 98.9288,
      "duration": 0.19,
      "velocity": 115,
      "chip": "ym2612"
    },
    {
      "channel": 1,
      "note": 30,
      "start": 99.043,
      "duration": 0.0758,
      "velocity": 123,
      "chip": "ym2612"
    },
    {
      "channel": 1,
      "note": 30,
      "start": 99.1571,
      "duration": 0.076,
      "velocity": 123,
      "chip": "ym2612"
    },
    {
      "channel": 2,
      "note": 63,
      "start": 99.1572,
      "duration": 0.1898,
      "velocity": 115,
      "chip": "ym2612"
    },
    {
      "channel": 1,
      "note": 78,
      "start": 99.2712,
      "duration": 0.0757,
      "velocity": 117,
      "chip": "ym2612"
    },
    {
      "channel": 1,
      "note": 78,
      "start": 99.3853,
      "duration": 0.0758,
      "velocity": 117,
      "chip": "ym2612"
    },
    {
      "channel": 1,
      "note": 78,
      "start": 99.4993,
      "duration": 0.0757,
      "velocity": 117,
      "chip": "ym2612"
    },
    {
      "channel": 1,
      "note": 47,
      "start": 99.6134,
      "duration": 0.0758,
      "velocity": 120,
      "chip": "ym2612"
    },
    {
      "channel": 1,
      "note": 78,
      "start": 99.7275,
      "duration": 0.0758,
      "velocity": 117,
      "chip": "ym2612"
    },
    {
      "channel": 1,
      "note": 30,
      "start": 99.8416,
      "duration": 0.0758,
      "velocity": 123,
      "chip": "ym2612"
    },
    {
      "channel": 2,
      "note": 63,
      "start": 99.8416,
      "duration": 0.1899,
      "velocity": 115,
      "chip": "ym2612"
    },
    {
      "channel": 1,
      "note": 30,
      "start": 99.9556,
      "duration": 0.0759,
      "velocity": 123,
      "chip": "ym2612"
    },
    {
      "channel": 1,
      "note": 78,
      "start": 100.1838,
      "duration": 0.0757,
      "velocity": 127,
      "chip": "ym2612"
    },
    {
      "channel": 1,
      "note": 30,
      "start": 100.2979,
      "duration": 0.1898,
      "velocity": 123,
      "chip": "ym2612"
    },
    {
      "channel": 2,
      "note": 63,
      "start": 100.298,
      "duration": 0.1897,
      "velocity": 115,
      "chip": "ym2612"
    },
    {
      "channel": 1,
      "note": 47,
      "start": 100.5261,
      "duration": 0.3039,
      "velocity": 120,
      "chip": "ym2612"
    },
    {
      "channel": 2,
      "note": 63,
      "start": 100.5261,
      "duration": 0.0758,
      "velocity": 115,
      "chip": "ym2612"
    },
    {
      "channel": 2,
      "note": 61,
      "start": 100.6398,
      "duration": 0.1901,
      "velocity": 115,
      "chip": "ym2612"
    },
    {
      "channel": 1,
      "note": 30,
      "start": 100.8683,
      "duration": 0.0757,
      "velocity": 123,
      "chip": "ym2612"
    },
    {
      "channel": 2,
      "note": 60,
      "start": 100.8683,
      "duration": 0.0757,
      "velocity": 115,
      "chip": "ym2612"
    },
    {
      "channel": 1,
      "note": 30,
      "start": 100.9823,
      "duration": 0.0758,
      "velocity": 123,
      "chip": "ym2612"
    },
    {
      "channel": 2,
      "note": 59,
      "start": 100.9824,
      "duration": 0.0757,
      "velocity": 115,
      "chip": "ym2612"
    },
    {
      "channel": 1,
      "note": 78,
      "start": 101.0964,
      "duration": 0.0757,
      "velocity": 117,
      "chip": "ym2612"
    },
    {
      "channel": 2,
      "note": 59,
      "start": 101.0965,
      "duration": 0.0757,
      "velocity": 115,
      "chip": "ym2612"
    },
    {
      "channel": 1,
      "note": 47,
      "start": 101.2105,
      "duration": 0.0758,
      "velocity": 120,
      "chip": "ym2612"
    },
    {
      "channel": 1,
      "note": 78,
      "start": 101.3245,
      "duration": 0.0758,
      "velocity": 117,
      "chip": "ym2612"
    },
    {
      "channel": 1,
      "note": 47,
      "start": 101.4386,
      "duration": 0.0758,
      "velocity": 120,
      "chip": "ym2612"
    },
    {
      "channel": 1,
      "note": 78,
      "start": 101.5527,
      "duration": 0.0758,
      "velocity": 117,
      "chip": "ym2612"
    },
    {
      "channel": 2,
      "note": 59,
      "start": 101.5528,
      "duration": 0.0757,
      "velocity": 115,
      "chip": "ym2612"
    },
    {
      "channel": 1,
      "note": 30,
      "start": 101.6668,
      "duration": 0.0757,
      "velocity": 123,
      "chip": "ym2612"
    },
    {
      "channel": 2,
      "note": 61,
      "start": 101.6669,
      "duration": 0.0756,
      "velocity": 115,
      "chip": "ym2612"
    },
    {
      "channel": 1,
      "note": 30,
      "start": 101.7808,
      "duration": 0.0757,
      "velocity": 123,
      "chip": "ym2612"
    },
    {
      "channel": 2,
      "note": 61,
      "start": 101.7809,
      "duration": 0.0757,
      "velocity": 115,
      "chip": "ym2612"
    },
    {
      "channel": 1,
      "note": 78,
      "start": 102.009,
      "duration": 0.0758,
      "velocity": 127,
      "chip": "ym2612"
    },
    {
      "channel": 1,
      "note": 47,
      "start": 102.1231,
      "duration": 0.0758,
      "velocity": 120,
      "chip": "ym2612"
    },
    {
      "channel": 1,
      "note": 47,
      "start": 102.2372,
      "duration": 0.1898,
      "velocity": 120,
      "chip": "ym2612"
    },
    {
      "channel": 0,
      "note": 89,
      "start": 102.465,
      "duration": 0.076,
      "velocity": 107,
      "chip": "ym2612"
    },
    {
      "channel": 1,
      "note": 78,
      "start": 102.4653,
      "duration": 0.0757,
      "velocity": 127,
      "chip": "ym2612"
    },
    {
      "channel": 0,
      "note": 90,
      "start": 102.5791,
      "duration": 0.0761,
      "velocity": 107,
      "chip": "ym2612"
    },
    {
      "channel": 1,
      "note": 47,
      "start": 102.5794,
      "duration": 0.0757,
      "velocity": 120,
      "chip": "ym2612"
    },
    {
      "channel": 2,
      "note": 62,
      "start": 102.5795,
      "duration": 0.1897,
      "velocity": 115,
      "chip": "ym2612"
    },
    {
      "channel": 0,
      "note": 92,
      "start": 102.6932,
      "duration": 0.076,
      "velocity": 107,
      "chip": "ym2612"
    },
    {
      "channel": 1,
      "note": 47,
      "start": 102.6935,
      "duration": 0.0757,
      "velocity": 120,
      "chip": "ym2612"
    },
    {
      "channel": 0,
      "note": 94,
      "start": 102.8073,
      "duration": 0.076,
      "velocity": 107,
      "chip": "ym2612"
    },
    {
      "channel": 2,
      "note": 63,
      "start": 102.8073,
      "duration": 1.3308,
      "velocity": 115,
      "chip": "ym2612"
    },
    {
      "channel": 0,
      "note": 99,
      "start": 102.9213,
      "duration": 0.076,
      "velocity": 107,
      "chip": "ym2612"
    },
    {
      "channel": 0,
      "note": 97,
      "start": 103.0354,
      "duration": 0.076,
      "velocity": 107,
      "chip": "ym2612"
    },
    {
      "channel": 0,
      "note": 90,
      "start": 103.1495,
      "duration": 0.076,
      "velocity": 107,
      "chip": "ym2612"
    },
    {
      "channel": 0,
      "note": 89,
      "start": 103.2635,
      "duration": 0.1901,
      "velocity": 107,
      "chip": "ym2612"
    },
    {
      "channel": 0,
      "note": 95,
      "start": 103.4917,
      "duration": 0.0761,
      "velocity": 107,
      "chip": "ym2612"
    },
    {
      "channel": 0,
      "note": 89,
      "start": 103.6058,
      "duration": 0.1901,
      "velocity": 107,
      "chip": "ym2612"
    },
    {
      "channel": 0,
      "note": 92,
      "start": 103.8339,
      "duration": 0.076,
      "velocity": 107,
      "chip": "ym2612"
    },
    {
      "channel": 0,
      "note": 89,
      "start": 103.948,
      "duration": 0.1901,
      "velocity": 107,
      "chip": "ym2612"
    },
    {
      "channel": 0,
      "note": 85,
      "start": 104.1761,
      "duration": 0.1901,
      "velocity": 107,
      "chip": "ym2612"
    },
    {
      "channel": 2,
      "note": 49,
      "start": 104.2902,
      "duration": 0.3041,
      "velocity": 115,
      "chip": "ym2612"
    },
    {
      "channel": 0,
      "note": 82,
      "start": 104.4043,
      "duration": 0.19,
      "velocity": 107,
      "chip": "ym2612"
    },
    {
      "channel": 0,
      "note": 82,
      "start": 104.6324,
      "duration": 3.6124,
      "velocity": 107,
      "chip": "ym2612"
    },
    {
      "channel": 2,
      "note": 51,
      "start": 104.6325,
      "duration": 3.6123,
      "velocity": 115,
      "chip": "ym2612"
    }
  ]
}