{
  "track_name": "06 Stage 2",
  "duration_sec": 52.383,
  "sample_rate": 44100,
  "note_count": 1492,
  "unique_pitches": 36,
  "pitch_range": 69,
  "avg_note_duration": 0.1648,
  "reconstruction_stats": {
    "notes_reconstructed": 1492,
    "keyon_events": 1492,
    "keyoff_events": 1487,
    "orphan_keyons": 5,
    "unique_pitches": 36,
    "pitch_range": 69,
    "avg_duration_sec": 0.1648
  },
  "metadata": {
    "source": "G\\Gley Lancer\\06 Stage 2.vgz"
  },
  "notes": [
    {
      "channel": 0,
      "note": 52,
      "start": 0.0035,
      "duration": 0.016,
      "velocity": 74,
      "chip": "ym2612"
    },
    {
      "channel": 0,
      "note": 52,
      "start": 0.0236,
      "duration": 0.0152,
      "velocity": 74,
      "chip": "ym2612"
    },
    {
      "channel": 0,
      "note": 52,
      "start": 0.0435,
      "duration": 0.0149,
      "velocity": 74,
      "chip": "ym2612"
    },
    {
      "channel": 0,
      "note": 52,
      "start": 0.0614,
      "duration": 0.0154,
      "velocity": 74,
      "chip": "ym2612"
    },
    {
      "channel": 0,
      "note": 45,
      "start": 0.0849,
      "duration": 0.0479,
      "velocity": 74,
      "chip": "ym2612"
    },
    {
      "channel": 1,
      "note": 72,
      "start": 0.0902,
      "duration": 0.498,
      "velocity": 89,
      "chip": "ym2612"
    },
    {
      "channel": 2,
      "note": 69,
      "start": 0.0946,
      "duration": 0.494,
      "velocity": 89,
      "chip": "ym2612"
    },
    {
      "channel": 3,
      "note": 93,
      "start": 0.1007,
      "duration": 0.0155,
      "velocity": 78,
      "chip": "ym2612"
    },
    {
      "channel": 3,
      "note": 100,
      "start": 0.1193,
      "duration": 0.0143,
      "velocity": 78,
      "chip": "ym2612"
    },
    {
      "channel": 0,
      "note": 45,
      "start": 0.1441,
      "duration": 0.0334,
      "velocity": 74,
      "chip": "ym2612"
    },
    {
      "channel": 3,
      "note": 93,
      "start": 0.1453,
      "duration": 0.0835,
      "velocity": 78,
      "chip": "ym2612"
    },
    {
      "channel": 4,
      "note": 74,
      "start": 0.2188,
      "duration": 0.448,
      "velocity": 89,
      "chip": "ym2612"
    },
    {
      "channel": 0,
      "note": 40,
      "start": 0.245,
      "duration": 0.0549,
      "velocity": 74,
      "chip": "ym2612"
    },
    {
      "channel": 3,
      "note": 105,
      "start": 0.2461,
      "duration": 0.0156,
      "velocity": 78,
      "chip": "ym2612"
    },
    {
      "channel": 3,
      "note": 93,
      "start": 0.2652,
      "duration": 0.0159,
      "velocity": 78,
      "chip": "ym2612"
    },
    {
      "channel": 3,
      "note": 100,
      "start": 0.2846,
      "duration": 0.0161,
      "velocity": 78,
      "chip": "ym2612"
    },
    {
      "channel": 0,
      "note": 45,
      "start": 0.3044,
      "duration": 0.0486,
      "velocity": 74,
      "chip": "ym2612"
    },
    {
      "channel": 3,
      "note": 93,
      "start": 0.3068,
      "duration": 0.0168,
      "velocity": 78,
      "chip": "ym2612"
    },
    {
      "channel": 3,
      "note": 105,
      "start": 0.3271,
      "duration": 0.0268,
      "velocity": 78,
      "chip": "ym2612"
    },
    {
      "channel": 0,
      "note": 45,
      "start": 0.3699,
      "duration": 0.0168,
      "velocity": 74,
      "chip": "ym2612"
    },
    {
      "channel": 3,
      "note": 93,
      "start": 0.3713,
      "duration": 0.0163,
      "velocity": 78,
      "chip": "ym2612"
    },
    {
      "channel": 0,
      "note": 57,
      "start": 0.39,
      "duration": 0.0253,
      "velocity": 74,
      "chip": "ym2612"
    },
    {
      "channel": 3,
      "note": 100,
      "start": 0.3912,
      "duration": 0.025,
      "velocity": 78,
      "chip": "ym2612"
    },
    {
      "channel": 0,
      "note": 45,
      "start": 0.4323,
      "duration": 0.0334,
      "velocity": 74,
      "chip": "ym2612"
    },
    {
      "channel": 3,
      "note": 93,
      "start": 0.4336,
      "duration": 0.0834,
      "velocity": 78,
      "chip": "ym2612"
    },
    {
      "channel": 0,
      "note": 40,
      "start": 0.5332,
      "duration": 0.0547,
      "velocity": 74,
      "chip": "ym2612"
    },
    {
      "channel": 3,
      "note": 105,
      "start": 0.5344,
      "duration": 0.0157,
      "velocity": 78,
      "chip": "ym2612"
    },
    {
      "channel": 3,
      "note": 93,
      "start": 0.5549,
      "duration": 0.0154,
      "velocity": 78,
      "chip": "ym2612"
    },
    {
      "channel": 3,
      "note": 100,
      "start": 0.5737,
      "duration": 0.0153,
      "velocity": 78,
      "chip": "ym2612"
    },
    {
      "channel": 0,
      "note": 45,
      "start": 0.5917,
      "duration": 0.0458,
      "velocity": 74,
      "chip": "ym2612"
    },
    {
      "channel": 1,
      "note": 71,
      "start": 0.5924,
      "duration": 0.016,
      "velocity": 89,
      "chip": "ym2612"
    },
    {
      "channel": 2,
      "note": 67,
      "start": 0.5929,
      "duration": 0.0157,
      "velocity": 89,
      "chip": "ym2612"
    },
    {
      "channel": 3,
      "note": 93,
      "start": 0.5937,
      "duration": 0.0153,
      "velocity": 78,
      "chip": "ym2612"
    },
    {
      "channel": 1,
      "note": 72,
      "start": 0.6116,
      "duration": 0.0262,
      "velocity": 89,
      "chip": "ym2612"
    },
    {
      "channel": 2,
      "note": 69,
      "start": 0.6122,
      "duration": 0.0259,
      "velocity": 89,
      "chip": "ym2612"
    },
    {
      "channel": 3,
      "note": 105,
      "start": 0.6128,
      "duration": 0.0256,
      "velocity": 78,
      "chip": "ym2612"
    },
    {
      "channel": 0,
      "note": 43,
      "start": 0.6546,
      "duration": 0.0457,
      "velocity": 74,
      "chip": "ym2612"
    },
    {
      "channel": 1,
      "note": 74,
      "start": 0.6551,
      "duration": 0.2152,
      "velocity": 89,
      "chip": "ym2612"
    },
    {
      "channel": 2,
      "note": 71,
      "start": 0.6556,
      "duration": 0.2149,
      "velocity": 89,
      "chip": "ym2612"
    },
    {
      "channel": 3,
      "note": 93,
      "start": 0.6565,
      "duration": 0.0161,
      "velocity": 78,
      "chip": "ym2612"
    },
    {
      "channel": 4,
      "note": 72,
      "start": 0.67,
      "duration": 0.0146,
      "velocity": 89,
      "chip": "ym2612"
    },
    {
      "channel": 3,
      "note": 100,
      "start": 0.6758,
      "duration": 0.0253,
      "velocity": 78,
      "chip": "ym2612"
    },
    {
      "channel": 4,
      "note": 71,
      "start": 0.6877,
      "duration": 0.081,
      "velocity": 89,
      "chip": "ym2612"
    },
    {
      "channel": 0,
      "note": 43,
      "start": 0.7173,
      "duration": 0.0334,
      "velocity": 74,
      "chip": "ym2612"
    },
    {
      "channel": 3,
      "note": 93,
      "start": 0.7185,
      "duration": 0.0834,
      "velocity": 78,
      "chip": "ym2612"
    },
    {
      "channel": 4,
      "note": 72,
      "start": 0.7856,
      "duration": 0.1626,
      "velocity": 89,
      "chip": "ym2612"
    },
    {
      "channel": 0,
      "note": 38,
      "start": 0.8182,
      "duration": 0.0518,
      "velocity": 74,
      "chip": "ym2612"
    },
    {
      "channel": 3,
      "note": 105,
      "start": 0.8193,
      "duration": 0.015,
      "velocity": 78,
      "chip": "ym2612"
    },
    {
      "channel": 3,
      "note": 93,
      "start": 0.8381,
      "duration": 0.0149,
      "velocity": 78,
      "chip": "ym2612"
    },
    {
      "channel": 3,
      "note": 100,
      "start": 0.8562,
      "duration": 0.0148,
      "velocity": 78,
      "chip": "ym2612"
    },
    {
      "channel": 0,
      "note": 43,
      "start": 0.8742,
      "duration": 0.0454,
      "velocity": 74,
      "chip": "ym2612"
    },
    {
      "channel": 1,
      "note": 72,
      "start": 0.8747,
      "duration": 0.2448,
      "velocity": 89,
      "chip": "ym2612"
    },
    {
      "channel": 2,
      "note": 69,
      "start": 0.8753,
      "duration": 0.2445,
      "velocity": 89,
      "chip": "ym2612"
    },
    {
      "channel": 3,
      "note": 93,
      "start": 0.876,
      "duration": 0.015,
      "velocity": 78,
      "chip": "ym2612"
    },
    {
      "channel": 3,
      "note": 105,
      "start": 0.8942,
      "duration": 0.0261,
      "velocity": 78,
      "chip": "ym2612"
    },
    {
      "channel": 0,
      "note": 43,
      "start": 0.9366,
      "duration": 0.0168,
      "velocity": 74,
      "chip": "ym2612"
    },
    {
      "channel": 3,
      "note": 93,
      "start": 0.938,
      "duration": 0.0162,
      "velocity": 78,
      "chip": "ym2612"
    },
    {
      "channel": 4,
      "note": 74,
      "start": 0.9514,
      "duration": 0.2207,
      "velocity": 89,
      "chip": "ym2612"
    },
    {
      "channel": 0,
      "note": 55,
      "start": 0.9565,
      "duration": 0.0266,
      "velocity": 74,
      "chip": "ym2612"
    },
    {
      "channel": 3,
      "note": 100,
      "start": 0.9576,
      "duration": 0.0264,
      "velocity": 78,
      "chip": "ym2612"
    },
    {
      "channel": 0,
      "note": 43,
      "start": 1.0001,
      "duration": 0.0334,
      "velocity": 74,
      "chip": "ym2612"
    },
    {
      "channel": 3,
      "note": 93,
      "start": 1.0014,
      "duration": 0.0834,
      "velocity": 78,
      "chip": "ym2612"
    },
    {
      "channel": 0,
      "note": 38,
      "start": 1.101,
      "duration": 0.0573,
      "velocity": 74,
      "chip": "ym2612"
    },
    {
      "channel": 3,
      "note": 105,
      "start": 1.1032,
      "duration": 0.0169,
      "velocity": 78,
      "chip": "ym2612"
    },
    {
      "channel": 1,
      "note": 71,
      "start": 1.1243,
      "duration": 0.0825,
      "velocity": 89,
      "chip": "ym2612"
    },
    {
      "channel": 2,
      "note": 67,
      "start": 1.1249,
      "duration": 0.0823,
      "velocity": 89,
      "chip": "ym2612"
    },
    {
      "channel": 3,
      "note": 93,
      "start": 1.1258,
      "duration": 0.0154,
      "velocity": 78,
      "chip": "ym2612"
    },
    {
      "channel": 3,
      "note": 100,
      "start": 1.1446,
      "duration": 0.0144,
      "velocity": 78,
      "chip": "ym2612"
    },
    {
      "channel": 0,
      "note": 43,
      "start": 1.1615,
      "duration": 0.0451,
      "velocity": 74,
      "chip": "ym2612"
    },
    {
      "channel": 3,
      "note": 93,
      "start": 1.1627,
      "duration": 0.0152,
      "velocity": 78,
      "chip": "ym2612"
    },
    {
      "channel": 4,
      "note": 72,
      "start": 1.1752,
      "duration": 0.1631,
      "velocity": 89,
      "chip": "ym2612"
    },
    {
      "channel": 3,
      "note": 105,
      "start": 1.181,
      "duration": 0.0265,
      "velocity": 78,
      "chip": "ym2612"
    },
    {
      "channel": 0,
      "note": 45,
      "start": 1.2272,
      "duration": 0.0426,
      "velocity": 74,
      "chip": "ym2612"
    },
    {
      "channel": 1,
      "note": 72,
      "start": 1.2278,
      "duration": 0.212,
      "velocity": 89,
      "chip": "ym2612"
    },
    {
      "channel": 2,
      "note": 69,
      "start": 1.2283,
      "duration": 0.2117,
      "velocity": 89,
      "chip": "ym2612"
    },
    {
      "channel": 3,
      "note": 93,
      "start": 1.2292,
      "duration": 0.0155,
      "velocity": 78,
      "chip": "ym2612"
    },
    {
      "channel": 3,
      "note": 100,
      "start": 1.2479,
      "duration": 0.0227,
      "velocity": 78,
      "chip": "ym2612"
    },
    {
      "channel": 0,
      "note": 45,
      "start": 1.2868,
      "duration": 0.0334,
      "velocity": 74,
      "chip": "ym2612"
    },
    {
      "channel": 3,
      "note": 93,
      "start": 1.2881,
      "duration": 0.0834,
      "velocity": 78,
      "chip": "ym2612"
    },
    {
      "channel": 4,
      "note": 71,
      "start": 1.3552,
      "duration": 0.1631,
      "velocity": 89,
      "chip": "ym2612"
    },
    {
      "channel": 0,
      "note": 40,
      "start": 1.3878,
      "duration": 0.0517,
      "velocity": 74,
      "chip": "ym2612"
    },
    {
      "channel": 3,
      "note": 105,
      "start": 1.3889,
      "duration": 0.0152,
      "velocity": 78,
      "chip": "ym2612"
    },
    {
      "channel": 3,
      "note": 93,
      "start": 1.4076,
      "duration": 0.0148,
      "velocity": 78,
      "chip": "ym2612"
    },
    {
      "channel": 3,
      "note": 100,
      "start": 1.4256,
      "duration": 0.0148,
      "velocity": 78,
      "chip": "ym2612"
    },
    {
      "channel": 0,
      "note": 45,
      "start": 1.4436,
      "duration": 0.0457,
      "velocity": 74,
      "chip": "ym2612"
    },
    {
      "channel": 1,
      "note": 71,
      "start": 1.4441,
      "duration": 0.0159,
      "velocity": 89,
      "chip": "ym2612"
    },
    {
      "channel": 2,
      "note": 67,
      "start": 1.4446,
      "duration": 0.0156,
      "velocity": 89,
      "chip": "ym2612"
    },
    {
      "channel": 3,
      "note": 93,
      "start": 1.4454,
      "duration": 0.0152,
      "velocity": 78,
      "chip": "ym2612"
    },
    {
      "channel": 1,
      "note": 69,
      "start": 1.4632,
      "duration": 0.0264,
      "velocity": 89,
      "chip": "ym2612"
    },
    {
      "channel": 2,
      "note": 64,
      "start": 1.4637,
      "duration": 0.0261,
      "velocity": 89,
      "chip": "ym2612"
    },
    {
      "channel": 3,
      "note": 105,
      "start": 1.4643,
      "duration": 0.0258,
      "velocity": 78,
      "chip": "ym2612"
    },
    {
      "channel": 0,
      "note": 45,
      "start": 1.5063,
      "duration": 0.0172,
      "velocity": 74,
      "chip": "ym2612"
    },
    {
      "channel": 1,
      "note": 71,
      "start": 1.5068,
      "duration": 0.0169,
      "velocity": 89,
      "chip": "ym2612"
    },
    {
      "channel": 2,
      "note": 67,
      "start": 1.5073,
      "duration": 0.0166,
      "velocity": 89,
      "chip": "ym2612"
    },
    {
      "channel": 3,
      "note": 93,
      "start": 1.5083,
      "duration": 0.0161,
      "velocity": 78,
      "chip": "ym2612"
    },
    {
      "channel": 4,
      "note": 72,
      "start": 1.5215,
      "duration": 0.0157,
      "velocity": 89,
      "chip": "ym2612"
    },
    {
      "channel": 0,
      "note": 57,
      "start": 1.5266,
      "duration": 0.0251,
      "velocity": 74,
      "chip": "ym2612"
    },
    {
      "channel": 1,
      "note": 72,
      "start": 1.5272,
      "duration": 0.0248,
      "velocity": 89,
      "chip": "ym2612"
    },
    {
      "channel": 2,
      "note": 69,
      "start": 1.5277,
      "duration": 0.0245,
      "velocity": 89,
      "chip": "ym2612"
    },
    {
      "channel": 3,
      "note": 100,
      "start": 1.5283,
      "duration": 0.0242,
      "velocity": 78,
      "chip": "ym2612"
    },
    {
      "channel": 4,
      "note": 71,
      "start": 1.5402,
      "duration": 0.0799,
      "velocity": 89,
      "chip": "ym2612"
    },
    {
      "channel": 0,
      "note": 45,
      "start": 1.5687,
      "duration": 0.0334,
      "velocity": 74,
      "chip": "ym2612"
    },
    {
      "channel": 1,
      "note": 71,
      "start": 1.5693,
      "duration": 0.0836,
      "velocity": 89,
      "chip": "ym2612"
    },
    {
      "channel": 2,
      "note": 67,
      "start": 1.5698,
      "duration": 0.0833,
      "velocity": 89,
      "chip": "ym2612"
    },
    {
      "channel": 3,
      "note": 93,
      "start": 1.5705,
      "duration": 0.0829,
      "velocity": 78,
      "chip": "ym2612"
    },
    {
      "channel": 4,
      "note": 69,
      "start": 1.6371,
      "duration": 0.0439,
      "velocity": 89,
      "chip": "ym2612"
    },
    {
      "channel": 0,
      "note": 40,
      "start": 1.6696,
      "duration": 0.0541,
      "velocity": 74,
      "chip": "ym2612"
    },
    {
      "channel": 1,
      "note": 69,
      "start": 1.6702,
      "duration": 0.0161,
      "velocity": 89,
      "chip": "ym2612"
    },
    {
      "channel": 2,
      "note": 64,
      "start": 1.6707,
      "duration": 0.0159,
      "velocity": 89,
      "chip": "ym2612"
    },
    {
      "channel": 3,
      "note": 105,
      "start": 1.6713,
      "duration": 0.0156,
      "velocity": 78,
      "chip": "ym2612"
    },
    {
      "channel": 4,
      "note": 71,
      "start": 1.6841,
      "duration": 0.0167,
      "velocity": 89,
      "chip": "ym2612"
    },
    {
      "channel": 1,
      "note": 71,
      "start": 1.6902,
      "duration": 0.0338,
      "velocity": 89,
      "chip": "ym2612"
    },
    {
      "channel": 2,
      "note": 67,
      "start": 1.6907,
      "duration": 0.0335,
      "velocity": 89,
      "chip": "ym2612"
    },
    {
      "channel": 3,
      "note": 93,
      "start": 1.6917,
      "duration": 0.0149,
      "velocity": 78,
      "chip": "ym2612"
    },
    {
      "channel": 4,
      "note": 72,
      "start": 1.7039,
      "duration": 0.0146,
      "velocity": 89,
      "chip": "ym2612"
    },
    {
      "channel": 3,
      "note": 100,
      "start": 1.7097,
      "duration": 0.0149,
      "velocity": 78,
      "chip": "ym2612"
    },
    {
      "channel": 4,
      "note": 71,
      "start": 1.7217,
      "duration": 0.0176,
      "velocity": 89,
      "chip": "ym2612"
    },
    {
      "channel": 0,
      "note": 45,
      "start": 1.7273,
      "duration": 0.0482,
      "velocity": 74,
      "chip": "ym2612"
    },
    {
      "channel": 1,
      "note": 72,
      "start": 1.7278,
      "duration": 0.048,
      "velocity": 89,
      "chip": "ym2612"
    },
    {
      "channel": 2,
      "note": 69,
      "start": 1.7283,
      "duration": 0.0477,
      "velocity": 89,
      "chip": "ym2612"
    },
    {
      "channel": 3,
      "note": 93,
      "start": 1.7291,
      "duration": 0.0166,
      "velocity": 78,
      "chip": "ym2612"
    },
    {
      "channel": 4,
      "note": 69,
      "start": 1.7427,
      "duration": 0.0638,
      "velocity": 89,
      "chip": "ym2612"
    },
    {
      "channel": 3,
      "note": 105,
      "start": 1.7491,
      "duration": 0.0272,
      "velocity": 78,
      "chip": "ym2612"
    },
    {
      "channel": 0,
      "note": 43,
      "start": 1.7925,
      "duration": 0.0483,
      "velocity": 74,
      "chip": "ym2612"
    },
    {
      "channel": 1,
      "note": 74,
      "start": 1.793,
      "duration": 0.2175,
      "velocity": 89,
      "chip": "ym2612"
    },
    {
      "channel": 2,
      "note": 71,
      "start": 1.7946,
      "duration": 0.2162,
      "velocity": 89,
      "chip": "ym2612"
    },
    {
      "channel": 3,
      "note": 93,
      "start": 1.7956,
      "duration": 0.0173,
      "velocity": 78,
      "chip": "ym2612"
    },
    {
      "channel": 4,
      "note": 71,
      "start": 1.81,
      "duration": 0.0987,
      "velocity": 89,
      "chip": "ym2612"
    },
    {
      "channel": 3,
      "note": 100,
      "start": 1.8163,
      "duration": 0.0253,
      "velocity": 78,
      "chip": "ym2612"
    },
    {
      "channel": 0,
      "note": 43,
      "start": 1.8577,
      "duration": 0.0332,
      "velocity": 74,
      "chip": "ym2612"
    },
    {
      "channel": 3,
      "note": 93,
      "start": 1.8589,
      "duration": 0.0829,
      "velocity": 78,
      "chip": "ym2612"
    },
    {
      "channel": 4,
      "note": 72,
      "start": 1.9256,
      "duration": 0.1638,
      "velocity": 89,
      "chip": "ym2612"
    },
    {
      "channel": 0,
      "note": 38,
      "start": 1.9581,
      "duration": 0.0521,
      "velocity": 74,
      "chip": "ym2612"
    },
    {
      "channel": 3,
      "note": 105,
      "start": 1.9592,
      "duration": 0.015,
      "velocity": 78,
      "chip": "ym2612"
    },
    {
      "channel": 3,
      "note": 93,
      "start": 1.9781,
      "duration": 0.0149,
      "velocity": 78,
      "chip": "ym2612"
    },
    {
      "channel": 3,
      "note": 100,
      "start": 1.9961,
      "duration": 0.015,
      "velocity": 78,
      "chip": "ym2612"
    },
    {
      "channel": 0,
      "note": 43,
      "start": 2.0145,
      "duration": 0.0463,
      "velocity": 74,
      "chip": "ym2612"
    },
    {
      "channel": 1,
      "note": 79,
      "start": 2.015,
      "duration": 0.2426,
      "velocity": 89,
      "chip": "ym2612"
    },
    {
      "channel": 2,
      "note": 76,
      "start": 2.0156,
      "duration": 0.2424,
      "velocity": 89,
      "chip": "ym2612"
    },
    {
      "channel": 3,
      "note": 93,
      "start": 2.0164,
      "duration": 0.0153,
      "velocity": 78,
      "chip": "ym2612"
    },
    {
      "channel": 3,
      "note": 105,
      "start": 2.0349,
      "duration": 0.0267,
      "velocity": 78,
      "chip": "ym2612"
    },
    {
      "channel": 0,
      "note": 43,
      "start": 2.0779,
      "duration": 0.0166,
      "velocity": 74,
      "chip": "ym2612"
    },
    {
      "channel": 3,
      "note": 93,
      "start": 2.0792,
      "duration": 0.0161,
      "velocity": 78,
      "chip": "ym2612"
    },
    {
      "channel": 4,
      "note": 74,
      "start": 2.0925,
      "duration": 0.2177,
      "velocity": 89,
      "chip": "ym2612"
    },
    {
      "channel": 0,
      "note": 55,
      "start": 2.0977,
      "duration": 0.026,
      "velocity": 74,
      "chip": "ym2612"
    },
    {
      "channel": 3,
      "note": 100,
      "start": 2.0988,
      "duration": 0.0258,
      "velocity": 78,
      "chip": "ym2612"
    },
    {
      "channel": 0,
      "note": 43,
      "start": 2.1407,
      "duration": 0.0334,
      "velocity": 74,
      "chip": "ym2612"
    },
    {
      "channel": 3,
      "note": 93,
      "start": 2.142,
      "duration": 0.0834,
      "velocity": 78,
      "chip": "ym2612"
    },
    {
      "channel": 0,
      "note": 38,
      "start": 2.2416,
      "duration": 0.0534,
      "velocity": 74,
      "chip": "ym2612"
    },
    {
      "channel": 3,
      "note": 105,
      "start": 2.2428,
      "duration": 0.0155,
      "velocity": 78,
      "chip": "ym2612"
    },
    {
      "channel": 1,
      "note": 77,
      "start": 2.2622,
      "duration": 0.0829,
      "velocity": 89,
      "chip": "ym2612"
    },
    {
      "channel": 2,
      "note": 74,
      "start": 2.2627,
      "duration": 0.0827,
      "velocity": 89,
      "chip": "ym2612"
    },
    {
      "channel": 3,
      "note": 93,
      "start": 2.2637,
      "duration": 0.0146,
      "velocity": 78,
      "chip": "ym2612"
    },
    {
      "channel": 3,
      "note": 100,
      "start": 2.2814,
      "duration": 0.0144,
      "velocity": 78,
      "chip": "ym2612"
    },
    {
      "channel": 0,
      "note": 43,
      "start": 2.2992,
      "duration": 0.0457,
      "velocity": 74,
      "chip": "ym2612"
    },
    {
      "channel": 3,
      "note": 93,
      "start": 2.3004,
      "duration": 0.0156,
      "velocity": 78,
      "chip": "ym2612"
    },
    {
      "channel": 4,
      "note": 79,
      "start": 2.3134,
      "duration": 0.1626,
      "velocity": 89,
      "chip": "ym2612"
    },
    {
      "channel": 3,
      "note": 105,
      "start": 2.3192,
      "duration": 0.0266,
      "velocity": 78,
      "chip": "ym2612"
    },
    {
      "channel": 0,
      "note": 45,
      "start": 2.3654,
      "duration": 0.0421,
      "velocity": 74,
      "chip": "ym2612"
    },
    {
      "channel": 1,
      "note": 76,
      "start": 2.366,
      "duration": 0.5018,
      "velocity": 89,
      "chip": "ym2612"
    },
    {
      "channel": 2,
      "note": 72,
      "start": 2.3676,
      "duration": 0.5006,
      "velocity": 89,
      "chip": "ym2612"
    },
    {
      "channel": 3,
      "note": 93,
      "start": 2.3685,
      "duration": 0.0146,
      "velocity": 78,
      "chip": "ym2612"
    },
    {
      "channel": 3,
      "note": 100,
      "start": 2.3862,
      "duration": 0.0221,
      "velocity": 78,
      "chip": "ym2612"
    },
    {
      "channel": 0,
      "note": 45,
      "start": 2.4246,
      "duration": 0.0334,
      "velocity": 74,
      "chip": "ym2612"
    },
    {
      "channel": 3,
      "note": 93,
      "start": 2.4258,
      "duration": 0.0835,
      "velocity": 78,
      "chip": "ym2612"
    },
    {
      "channel": 4,
      "note": 77,
      "start": 2.4929,
      "duration": 0.4533,
      "velocity": 89,
      "chip": "ym2612"
    },
    {
      "channel": 0,
      "note": 40,
      "start": 2.5255,
      "duration": 0.0564,
      "velocity": 74,
      "chip": "ym2612"
    },
    {
      "channel": 3,
      "note": 105,
      "start": 2.5266,
      "duration": 0.0162,
      "velocity": 78,
      "chip": "ym2612"
    },
    {
      "channel": 3,
      "note": 93,
      "start": 2.5469,
      "duration": 0.0163,
      "velocity": 78,
      "chip": "ym2612"
    },
    {
      "channel": 3,
      "note": 100,
      "start": 2.5678,
      "duration": 0.0161,
      "velocity": 78,
      "chip": "ym2612"
    },
    {
      "channel": 0,
      "note": 45,
      "start": 2.5875,
      "duration": 0.0449,
      "velocity": 74,
      "chip": "ym2612"
    },
    {
      "channel": 3,
      "note": 93,
      "start": 2.5888,
      "duration": 0.0157,
      "velocity": 78,
      "chip": "ym2612"
    },
    {
      "channel": 3,
      "note": 105,
      "start": 2.6077,
      "duration": 0.0255,
      "velocity": 78,
      "chip": "ym2612"
    },
    {
      "channel": 0,
      "note": 45,
      "start": 2.6494,
      "duration": 0.0165,
      "velocity": 74,
      "chip": "ym2612"
    },
    {
      "channel": 3,
      "note": 93,
      "start": 2.6508,
      "duration": 0.016,
      "velocity": 78,
      "chip": "ym2612"
    },
    {
      "channel": 0,
      "note": 57,
      "start": 2.6692,
      "duration": 0.0259,
      "velocity": 74,
      "chip": "ym2612"
    },
    {
      "channel": 3,
      "note": 100,
      "start": 2.6704,
      "duration": 0.0256,
      "velocity": 78,
      "chip": "ym2612"
    },
    {
      "channel": 0,
      "note": 45,
      "start": 2.7122,
      "duration": 0.0334,
      "velocity": 74,
      "chip": "ym2612"
    },
    {
      "channel": 3,
      "note": 93,
      "start": 2.7134,
      "duration": 0.0835,
      "velocity": 78,
      "chip": "ym2612"
    },
    {
      "channel": 0,
      "note": 40,
      "start": 2.8131,
      "duration": 0.0545,
      "velocity": 74,
      "chip": "ym2612"
    },
    {
      "channel": 3,
      "note": 105,
      "start": 2.8142,
      "duration": 0.0158,
      "velocity": 78,
      "chip": "ym2612"
    },
    {
      "channel": 3,
      "note": 93,
      "start": 2.8349,
      "duration": 0.0154,
      "velocity": 78,
      "chip": "ym2612"
    },
    {
      "channel": 3,
      "note": 100,
      "start": 2.8535,
      "duration": 0.0151,
      "velocity": 78,
      "chip": "ym2612"
    },
    {
      "channel": 0,
      "note": 45,
      "start": 2.8713,
      "duration": 0.0457,
      "velocity": 74,
      "chip": "ym2612"
    },
    {
      "channel": 1,
      "note": 74,
      "start": 2.8718,
      "duration": 0.016,
      "velocity": 89,
      "chip": "ym2612"
    },
    {
      "channel": 2,
      "note": 71,
      "start": 2.8724,
      "duration": 0.0158,
      "velocity": 89,
      "chip": "ym2612"
    },
    {
      "channel": 3,
      "note": 93,
      "start": 2.8732,
      "duration": 0.0153,
      "velocity": 78,
      "chip": "ym2612"
    },
    {
      "channel": 1,
      "note": 76,
      "start": 2.8911,
      "duration": 0.0262,
      "velocity": 89,
      "chip": "ym2612"
    },
    {
      "channel": 2,
      "note": 72,
      "start": 2.8917,
      "duration": 0.0259,
      "velocity": 89,
      "chip": "ym2612"
    },
    {
      "channel": 3,
      "note": 105,
      "start": 2.8923,
      "duration": 0.0256,
      "velocity": 78,
      "chip": "ym2612"
    },
    {
      "channel": 0,
      "note": 43,
      "start": 2.9341,
      "duration": 0.0456,
      "velocity": 74,
      "chip": "ym2612"
    },
    {
      "channel": 1,
      "note": 77,
      "start": 2.9346,
      "duration": 0.2148,
      "velocity": 89,
      "chip": "ym2612"
    },
    {
      "channel": 2,
      "note": 74,
      "start": 2.9351,
      "duration": 0.2146,
      "velocity": 89,
      "chip": "ym2612"
    },
    {
      "channel": 3,
      "note": 93,
      "start": 2.9361,
      "duration": 0.0161,
      "velocity": 78,
      "chip": "ym2612"
    },
    {
      "channel": 4,
      "note": 76,
      "start": 2.9495,
      "duration": 0.0146,
      "velocity": 89,
      "chip": "ym2612"
    },
    {
      "channel": 3,
      "note": 100,
      "start": 2.9552,
      "duration": 0.0253,
      "velocity": 78,
      "chip": "ym2612"
    },
    {
      "channel": 4,
      "note": 74,
      "start": 2.9672,
      "duration": 0.0809,
      "velocity": 89,
      "chip": "ym2612"
    },
    {
      "channel": 0,
      "note": 43,
      "start": 2.9967,
      "duration": 0.0334,
      "velocity": 74,
      "chip": "ym2612"
    },
    {
      "channel": 3,
      "note": 93,
      "start": 2.998,
      "duration": 0.0834,
      "velocity": 78,
      "chip": "ym2612"
    },
    {
      "channel": 4,
      "note": 76,
      "start": 3.0651,
      "duration": 0.1633,
      "velocity": 89,
      "chip": "ym2612"
    },
    {
      "channel": 0,
      "note": 38,
      "start": 3.0976,
      "duration": 0.0515,
      "velocity": 74,
      "chip": "ym2612"
    },
    {
      "channel": 3,
      "note": 105,
      "start": 3.0988,
      "duration": 0.0151,
      "velocity": 78,
      "chip": "ym2612"
    },
    {
      "channel": 3,
      "note": 93,
      "start": 3.1173,
      "duration": 0.0148,
      "velocity": 78,
      "chip": "ym2612"
    },
    {
      "channel": 3,
      "note": 100,
      "start": 3.1353,
      "duration": 0.0148,
      "velocity": 78,
      "chip": "ym2612"
    },
    {
      "channel": 0,
      "note": 43,
      "start": 3.1534,
      "duration": 0.0457,
      "velocity": 74,
      "chip": "ym2612"
    },
    {
      "channel": 1,
      "note": 76,
      "start": 3.1539,
      "duration": 0.2466,
      "velocity": 89,
      "chip": "ym2612"
    },
    {
      "channel": 2,
      "note": 72,
      "start": 3.1544,
      "duration": 0.2464,
      "velocity": 89,
      "chip": "ym2612"
    },
    {
      "channel": 3,
      "note": 93,
      "start": 3.1552,
      "duration": 0.0153,
      "velocity": 78,
      "chip": "ym2612"
    },
    {
      "channel": 3,
      "note": 105,
      "start": 3.1737,
      "duration": 0.0261,
      "velocity": 78,
      "chip": "ym2612"
    },
    {
      "channel": 0,
      "note": 43,
      "start": 3.2161,
      "duration": 0.018,
      "velocity": 74,
      "chip": "ym2612"
    },
    {
      "channel": 3,
      "note": 93,
      "start": 3.2175,
      "duration": 0.0174,
      "velocity": 78,
      "chip": "ym2612"
    },
    {
      "channel": 4,
      "note": 77,
      "start": 3.2319,
      "duration": 0.2209,
      "velocity": 89,
      "chip": "ym2612"
    },
    {
      "channel": 0,
      "note": 55,
      "start": 3.2375,
      "duration": 0.0272,
      "velocity": 74,
      "chip": "ym2612"
    },
    {
      "channel": 3,
      "note": 100,
      "start": 3.2386,
      "duration": 0.028,
      "velocity": 78,
      "chip": "ym2612"
    },
    {
      "channel": 0,
      "note": 43,
      "start": 3.2817,
      "duration": 0.0334,
      "velocity": 74,
      "chip": "ym2612"
    },
    {
      "channel": 3,
      "note": 93,
      "start": 3.2841,
      "duration": 0.0834,
      "velocity": 78,
      "chip": "ym2612"
    },
    {
      "channel": 0,
      "note": 38,
      "start": 3.3837,
      "duration": 0.0542,
      "velocity": 74,
      "chip": "ym2612"
    },
    {
      "channel": 3,
      "note": 105,
      "start": 3.3849,
      "duration": 0.0163,
      "velocity": 78,
      "chip": "ym2612"
    },
    {
      "channel": 1,
      "note": 74,
      "start": 3.4048,
      "duration": 0.083,
      "velocity": 89,
      "chip": "ym2612"
    },
    {
      "channel": 2,
      "note": 71,
      "start": 3.4053,
      "duration": 0.0827,
      "velocity": 89,
      "chip": "ym2612"
    },
    {
      "channel": 3,
      "note": 93,
      "start": 3.4062,
      "duration": 0.0149,
      "velocity": 78,
      "chip": "ym2612"
    },
    {
      "channel": 3,
      "note": 100,
      "start": 3.4242,
      "duration": 0.0144,
      "velocity": 78,
      "chip": "ym2612"
    },
    {
      "channel": 0,
      "note": 43,
      "start": 3.4416,
      "duration": 0.0459,
      "velocity": 74,
      "chip": "ym2612"
    },
    {
      "channel": 3,
      "note": 93,
      "start": 3.4429,
      "duration": 0.0156,
      "velocity": 78,
      "chip": "ym2612"
    },
    {
      "channel": 4,
      "note": 76,
      "start": 3.4559,
      "duration": 0.1634,
      "velocity": 89,
      "chip": "ym2612"
    },
    {
      "channel": 3,
      "note": 105,
      "start": 3.4617,
      "duration": 0.0268,
      "velocity": 78,
      "chip": "ym2612"
    },
    {
      "channel": 0,
      "note": 41,
      "start": 3.5047,
      "duration": 0.0461,
      "velocity": 74,
      "chip": "ym2612"
    },
    {
      "channel": 1,
      "note": 76,
      "start": 3.5054,
      "duration": 0.5016,
      "velocity": 89,
      "chip": "ym2612"
    },
    {
      "channel": 2,
      "note": 72,
      "start": 3.5061,
      "duration": 0.5012,
      "velocity": 89,
      "chip": "ym2612"
    },
    {
      "channel": 3,
      "note": 93,
      "start": 3.507,
      "duration": 0.0156,
      "velocity": 78,
      "chip": "ym2612"
    },
    {
      "channel": 3,
      "note": 100,
      "start": 3.5259,
      "duration": 0.0257,
      "velocity": 78,
      "chip": "ym2612"
    },
    {
      "channel": 0,
      "note": 41,
      "start": 3.5679,
      "duration": 0.0334,
      "velocity": 74,
      "chip": "ym2612"
    },
    {
      "channel": 3,
      "note": 93,
      "start": 3.5691,
      "duration": 0.0834,
      "velocity": 78,
      "chip": "ym2612"
    },
    {
      "channel": 4,
      "note": 74,
      "start": 3.6363,
      "duration": 0.4532,
      "velocity": 89,
      "chip": "ym2612"
    },
    {
      "channel": 0,
      "note": 36,
      "start": 3.6688,
      "duration": 0.0518,
      "velocity": 74,
      "chip": "ym2612"
    },
    {
      "channel": 3,
      "note": 105,
      "start": 3.6699,
      "duration": 0.015,
      "velocity": 78,
      "chip": "ym2612"
    },
    {
      "channel": 3,
      "note": 93,
      "start": 3.6887,
      "duration": 0.0149,
      "velocity": 78,
      "chip": "ym2612"
    },
    {
      "channel": 3,
      "note": 100,
      "start": 3.7067,
      "duration": 0.0147,
      "velocity": 78,
      "chip": "ym2612"
    },
    {
      "channel": 0,
      "note": 41,
      "start": 3.7248,
      "duration": 0.0456,
      "velocity": 74,
      "chip": "ym2612"
    },
    {
      "channel": 3,
      "note": 93,
      "start": 3.7261,
      "duration": 0.0153,
      "velocity": 78,
      "chip": "ym2612"
    },
    {
      "channel": 3,
      "note": 105,
      "start": 3.7447,
      "duration": 0.0266,
      "velocity": 78,
      "chip": "ym2612"
    },
    {
      "channel": 0,
      "note": 41,
      "start": 3.7875,
      "duration": 0.0165,
      "velocity": 74,
      "chip": "ym2612"
    },
    {
      "channel": 3,
      "note": 93,
      "start": 3.7889,
      "duration": 0.016,
      "velocity": 78,
      "chip": "ym2612"
    },
    {
      "channel": 0,
      "note": 53,
      "start": 3.8072,
      "duration": 0.026,
      "velocity": 74,
      "chip": "ym2612"
    },
    {
      "channel": 3,
      "note": 100,
      "start": 3.8084,
      "duration": 0.0257,
      "velocity": 78,
      "chip": "ym2612"
    },
    {
      "channel": 0,
      "note": 41,
      "start": 3.8503,
      "duration": 0.0334,
      "velocity": 74,
      "chip": "ym2612"
    },
    {
      "channel": 3,
      "note": 93,
      "start": 3.8516,
      "duration": 0.0835,
      "velocity": 78,
      "chip": "ym2612"
    },
    {
      "channel": 0,
      "note": 36,
      "start": 3.9512,
      "duration": 0.0554,
      "velocity": 74,
      "chip": "ym2612"
    },
    {
      "channel": 3,
      "note": 105,
      "start": 3.9524,
      "duration": 0.0156,
      "velocity": 78,
      "chip": "ym2612"
    },
    {
      "channel": 3,
      "note": 93,
      "start": 3.9727,
      "duration": 0.0154,
      "velocity": 78,
      "chip": "ym2612"
    },
    {
      "channel": 3,
      "note": 100,
      "start": 3.9913,
      "duration": 0.0164,
      "velocity": 78,
      "chip": "ym2612"
    },
    {
      "channel": 0,
      "note": 41,
      "start": 4.0107,
      "duration": 0.0495,
      "velocity": 74,
      "chip": "ym2612"
    },
    {
      "channel": 1,
      "note": 74,
      "start": 4.0113,
      "duration": 0.0173,
      "velocity": 89,
      "chip": "ym2612"
    },
    {
      "channel": 2,
      "note": 71,
      "start": 4.0118,
      "duration": 0.0171,
      "velocity": 89,
      "chip": "ym2612"
    },
    {
      "channel": 3,
      "note": 93,
      "start": 4.0136,
      "duration": 0.0166,
      "velocity": 78,
      "chip": "ym2612"
    },
    {
      "channel": 1,
      "note": 72,
      "start": 4.0321,
      "duration": 0.0284,
      "velocity": 89,
      "chip": "ym2612"
    },
    {
      "channel": 2,
      "note": 69,
      "start": 4.0337,
      "duration": 0.0271,
      "velocity": 89,
      "chip": "ym2612"
    },
    {
      "channel": 3,
      "note": 105,
      "start": 4.0343,
      "duration": 0.0268,
      "velocity": 78,
      "chip": "ym2612"
    },
    {
      "channel": 0,
      "note": 43,
      "start": 4.0773,
      "duration": 0.0446,
      "velocity": 74,
      "chip": "ym2612"
    },
    {
      "channel": 1,
      "note": 74,
      "start": 4.0778,
      "duration": 0.0171,
      "velocity": 89,
      "chip": "ym2612"
    },
    {
      "channel": 2,
      "note": 71,
      "start": 4.0783,
      "duration": 0.0168,
      "velocity": 89,
      "chip": "ym2612"
    },
    {
      "channel": 3,
      "note": 93,
      "start": 4.0793,
      "duration": 0.0162,
      "velocity": 78,
      "chip": "ym2612"
    },
    {
      "channel": 4,
      "note": 76,
      "start": 4.0927,
      "duration": 0.0153,
      "velocity": 89,
      "chip": "ym2612"
    },
    {
      "channel": 1,
      "note": 76,
      "start": 4.098,
      "duration": 0.0242,
      "velocity": 89,
      "chip": "ym2612"
    },
    {
      "channel": 2,
      "note": 72,
      "start": 4.0985,
      "duration": 0.0239,
      "velocity": 89,
      "chip": "ym2612"
    },
    {
      "channel": 3,
      "note": 100,
      "start": 4.0992,
      "duration": 0.0236,
      "velocity": 78,
      "chip": "ym2612"
    },
    {
      "channel": 4,
      "note": 74,
      "start": 4.1112,
      "duration": 0.0792,
      "velocity": 89,
      "chip": "ym2612"
    },
    {
      "channel": 0,
      "note": 43,
      "start": 4.1389,
      "duration": 0.0335,
      "velocity": 74,
      "chip": "ym2612"
    },
    {
      "channel": 1,
      "note": 74,
      "start": 4.1395,
      "duration": 0.0837,
      "velocity": 89,
      "chip": "ym2612"
    },
    {
      "channel": 2,
      "note": 71,
      "start": 4.14,
      "duration": 0.0834,
      "velocity": 89,
      "chip": "ym2612"
    },
    {
      "channel": 3,
      "note": 93,
      "start": 4.1408,
      "duration": 0.0829,
      "velocity": 78,
      "chip": "ym2612"
    },
    {
      "channel": 4,
      "note": 72,
      "start": 4.2073,
      "duration": 0.044,
      "velocity": 89,
      "chip": "ym2612"
    },
    {
      "channel": 0,
      "note": 38,
      "start": 4.2399,
      "duration": 0.0548,
      "velocity": 74,
      "chip": "ym2612"
    },
    {
      "channel": 1,
      "note": 72,
      "start": 4.2404,
      "duration": 0.0162,
      "velocity": 89,
      "chip": "ym2612"
    },
    {
      "channel": 2,
      "note": 69,
      "start": 4.2409,
      "duration": 0.016,
      "velocity": 89,
      "chip": "ym2612"
    },
    {
      "channel": 3,
      "note": 105,
      "start": 4.2416,
      "duration": 0.0157,
      "velocity": 78,
      "chip": "ym2612"
    },
    {
      "channel": 4,
      "note": 74,
      "start": 4.2545,
      "duration": 0.0168,
      "velocity": 89,
      "chip": "ym2612"
    },
    {
      "channel": 1,
      "note": 71,
      "start": 4.2606,
      "duration": 0.0344,
      "velocity": 89,
      "chip": "ym2612"
    },
    {
      "channel": 2,
      "note": 67,
      "start": 4.2611,
      "duration": 0.0341,
      "velocity": 89,
      "chip": "ym2612"
    },
    {
      "channel": 3,
      "note": 93,
      "start": 4.262,
      "duration": 0.0152,
      "velocity": 78,
      "chip": "ym2612"
    },
    {
      "channel": 4,
      "note": 76,
      "start": 4.2745,
      "duration": 0.0149,
      "velocity": 89,
      "chip": "ym2612"
    },
    {
      "channel": 3,
      "note": 100,
      "start": 4.2804,
      "duration": 0.0152,
      "velocity": 78,
      "chip": "ym2612"
    },
    {
      "channel": 4,
      "note": 74,
      "start": 4.2927,
      "duration": 0.0173,
      "velocity": 89,
      "chip": "ym2612"
    },
    {
      "channel": 0,
      "note": 43,
      "start": 4.2983,
      "duration": 0.0461,
      "velocity": 74,
      "chip": "ym2612"
    },
    {
      "channel": 1,
      "note": 67,
      "start": 4.2989,
      "duration": 0.1085,
      "velocity": 89,
      "chip": "ym2612"
    },
    {
      "channel": 2,
      "note": 64,
      "start": 4.2994,
      "duration": 0.1083,
      "velocity": 89,
      "chip": "ym2612"
    },
    {
      "channel": 3,
      "note": 93,
      "start": 4.3002,
      "duration": 0.0158,
      "velocity": 78,
      "chip": "ym2612"
    },
    {
      "channel": 4,
      "note": 72,
      "start": 4.3132,
      "duration": 0.0593,
      "velocity": 89,
      "chip": "ym2612"
    },
    {
      "channel": 3,
      "note": 105,
      "start": 4.3191,
      "duration": 0.026,
      "velocity": 78,
      "chip": "ym2612"
    },
    {
      "channel": 0,
      "note": 43,
      "start": 4.3614,
      "duration": 0.0163,
      "velocity": 74,
      "chip": "ym2612"
    },
    {
      "channel": 3,
      "note": 93,
      "start": 4.3628,
      "duration": 0.0157,
      "velocity": 78,
      "chip": "ym2612"
    },
    {
      "channel": 4,
      "note": 71,
      "start": 4.3757,
      "duration": 0.0987,
      "velocity": 89,
      "chip": "ym2612"
    },
    {
      "channel": 0,
      "note": 55,
      "start": 4.3808,
      "duration": 0.0263,
      "velocity": 74,
      "chip": "ym2612"
    },
    {
      "channel": 3,
      "note": 100,
      "start": 4.3819,
      "duration": 0.0262,
      "velocity": 78,
      "chip": "ym2612"
    },
    {
      "channel": 0,
      "note": 43,
      "start": 4.4241,
      "duration": 0.0074,
      "velocity": 74,
      "chip": "ym2612"
    },
    {
      "channel": 1,
      "note": 69,
      "start": 4.4247,
      "duration": 0.01,
      "velocity": 89,
      "chip": "ym2612"
    },
    {
      "channel": 2,
      "note": 65,
      "start": 4.4252,
      "duration": 0.0098,
      "velocity": 89,
      "chip": "ym2612"
    },
    {
      "channel": 3,
      "note": 93,
      "start": 4.426,
      "duration": 0.0161,
      "velocity": 78,
      "chip": "ym2612"
    },
    {
      "channel": 1,
      "note": 68,
      "start": 4.4378,
      "duration": 0.0101,
      "velocity": 89,
      "chip": "ym2612"
    },
    {
      "channel": 2,
      "note": 64,
      "start": 4.4383,
      "duration": 0.0098,
      "velocity": 89,
      "chip": "ym2612"
    },
    {
      "channel": 0,
      "note": 38,
      "start": 4.4444,
      "duration": 0.0555,
      "velocity": 74,
      "chip": "ym2612"
    },
    {
      "channel": 3,
      "note": 105,
      "start": 4.4454,
      "duration": 0.0156,
      "velocity": 78,
      "chip": "ym2612"
    },
    {
      "channel": 1,
      "note": 69,
      "start": 4.451,
      "duration": 0.0095,
      "velocity": 89,
      "chip": "ym2612"
    },
    {
      "channel": 2,
      "note": 65,
      "start": 4.4515,
      "duration": 0.0092,
      "velocity": 89,
      "chip": "ym2612"
    },
    {
      "channel": 1,
      "note": 71,
      "start": 4.4636,
      "duration": 0.016,
      "velocity": 89,
      "chip": "ym2612"
    },
    {
      "channel": 2,
      "note": 67,
      "start": 4.4642,
      "duration": 0.0158,
      "velocity": 89,
      "chip": "ym2612"
    },
    {
      "channel": 3,
      "note": 93,
      "start": 4.4651,
      "duration": 0.0152,
      "velocity": 78,
      "chip": "ym2612"
    },
    {
      "channel": 4,
      "note": 67,
      "start": 4.4775,
      "duration": 0.0115,
      "velocity": 89,
      "chip": "ym2612"
    },
    {
      "channel": 1,
      "note": 71,
      "start": 4.4833,
      "duration": 0.0001,
      "velocity": 89,
      "chip": "ym2612"
    },
    {
      "channel": 2,
      "note": 68,
      "start": 4.4839,
      "duration": 0.0001,
      "velocity": 89,
      "chip": "ym2612"
    },
    {
      "channel": 3,
      "note": 100,
      "start": 4.4845,
      "duration": 0.0161,
      "velocity": 78,
      "chip": "ym2612"
    },
    {
      "channel": 4,
      "note": 69,
      "start": 4.4922,
      "duration": 0.0088,
      "velocity": 89,
      "chip": "ym2612"
    },
    {
      "channel": 0,
      "note": 43,
      "start": 4.5031,
      "duration": 0.0359,
      "velocity": 74,
      "chip": "ym2612"
    },
    {
      "channel": 1,
      "note": 64,
      "start": 4.5036,
      "duration": 0.0356,
      "velocity": 89,
      "chip": "ym2612"
    },
    {
      "channel": 2,
      "note": 59,
      "start": 4.5042,
      "duration": 0.0354,
      "velocity": 89,
      "chip": "ym2612"
    },
    {
      "channel": 3,
      "note": 93,
      "start": 4.5049,
      "duration": 0.0153,
      "velocity": 78,
      "chip": "ym2612"
    },
    {
      "channel": 4,
      "note": 68,
      "start": 4.5056,
      "duration": 0.0089,
      "velocity": 89,
      "chip": "ym2612"
    },
    {
      "channel": 4,
      "note": 69,
      "start": 4.5176,
      "duration": 0.0162,
      "velocity": 89,
      "chip": "ym2612"
    },
    {
      "channel": 3,
      "note": 105,
      "start": 4.5246,
      "duration": 0.0152,
      "velocity": 78,
      "chip": "ym2612"
    },
    {
      "channel": 4,
      "note": 71,
      "start": 4.5369,
      "duration": 0.0001,
      "velocity": 89,
      "chip": "ym2612"
    },
    {
      "channel": 0,
      "note": 45,
      "start": 4.5424,
      "duration": 0.045,
      "velocity": 74,
      "chip": "ym2612"
    },
    {
      "channel": 1,
      "note": 72,
      "start": 4.5432,
      "duration": 0.5031,
      "velocity": 89,
      "chip": "ym2612"
    },
    {
      "channel": 2,
      "note": 69,
      "start": 4.5439,
      "duration": 0.5028,
      "velocity": 89,
      "chip": "ym2612"
    },
    {
      "channel": 3,
      "note": 93,
      "start": 4.5452,
      "duration": 0.0157,
      "velocity": 78,
      "chip": "ym2612"
    },
    {
      "channel": 4,
      "note": 71,
      "start": 4.5583,
      "duration": 0.0976,
      "velocity": 89,
      "chip": "ym2612"
    },
    {
      "channel": 3,
      "note": 100,
      "start": 4.5641,
      "duration": 0.0242,
      "velocity": 78,
      "chip": "ym2612"
    },
    {
      "channel": 0,
      "note": 45,
      "start": 4.6045,
      "duration": 0.0334,
      "velocity": 74,
      "chip": "ym2612"
    },
    {
      "channel": 3,
      "note": 93,
      "start": 4.6058,
      "duration": 0.0834,
      "velocity": 78,
      "chip": "ym2612"
    },
    {
      "channel": 4,
      "note": 64,
      "start": 4.6731,
      "duration": 0.4512,
      "velocity": 89,
      "chip": "ym2612"
    },
    {
      "channel": 0,
      "note": 40,
      "start": 4.7054,
      "duration": 0.0566,
      "velocity": 74,
      "chip": "ym2612"
    },
    {
      "channel": 3,
      "note": 105,
      "start": 4.7065,
      "duration": 0.0175,
      "velocity": 78,
      "chip": "ym2612"
    },
    {
      "channel": 3,
      "note": 93,
      "start": 4.7282,
      "duration": 0.0162,
      "velocity": 78,
      "chip": "ym2612"
    },
    {
      "channel": 3,
      "note": 100,
      "start": 4.7479,
      "duration": 0.015,
      "velocity": 78,
      "chip": "ym2612"
    },
    {
      "channel": 0,
      "note": 45,
      "start": 4.7652,
      "duration": 0.0455,
      "velocity": 74,
      "chip": "ym2612"
    },
    {
      "channel": 3,
      "note": 93,
      "start": 4.7665,
      "duration": 0.0156,
      "velocity": 78,
      "chip": "ym2612"
    },
    {
      "channel": 3,
      "note": 105,
      "start": 4.7854,
      "duration": 0.0262,
      "velocity": 78,
      "chip": "ym2612"
    },
    {
      "channel": 0,
      "note": 45,
      "start": 4.8277,
      "duration": 0.0165,
      "velocity": 74,
      "chip": "ym2612"
    },
    {
      "channel": 3,
      "note": 93,
      "start": 4.8292,
      "duration": 0.016,
      "velocity": 78,
      "chip": "ym2612"
    },
    {
      "channel": 0,
      "note": 57,
      "start": 4.8477,
      "duration": 0.0261,
      "velocity": 74,
      "chip": "ym2612"
    },
    {
      "channel": 3,
      "note": 100,
      "start": 4.8488,
      "duration": 0.0258,
      "velocity": 78,
      "chip": "ym2612"
    },
    {
      "channel": 0,
      "note": 45,
      "start": 4.8908,
      "duration": 0.0334,
      "velocity": 74,
      "chip": "ym2612"
    },
    {
      "channel": 3,
      "note": 93,
      "start": 4.8922,
      "duration": 0.0835,
      "velocity": 78,
      "chip": "ym2612"
    },
    {
      "channel": 0,
      "note": 40,
      "start": 4.9918,
      "duration": 0.0543,
      "velocity": 74,
      "chip": "ym2612"
    },
    {
      "channel": 3,
      "note": 105,
      "start": 4.993,
      "duration": 0.0157,
      "velocity": 78,
      "chip": "ym2612"
    },
    {
      "channel": 3,
      "note": 93,
      "start": 5.0136,
      "duration": 0.0152,
      "velocity": 78,
      "chip": "ym2612"
    },
    {
      "channel": 3,
      "note": 100,
      "start": 5.032,
      "duration": 0.015,
      "velocity": 78,
      "chip": "ym2612"
    },
    {
      "channel": 0,
      "note": 45,
      "start": 5.0495,
      "duration": 0.0456,
      "velocity": 74,
      "chip": "ym2612"
    },
    {
      "channel": 1,
      "note": 71,
      "start": 5.05,
      "duration": 0.0159,
      "velocity": 89,
      "chip": "ym2612"
    },
    {
      "channel": 2,
      "note": 67,
      "start": 5.0506,
      "duration": 0.0156,
      "velocity": 89,
      "chip": "ym2612"
    },
    {
      "channel": 3,
      "note": 93,
      "start": 5.0513,
      "duration": 0.0152,
      "velocity": 78,
      "chip": "ym2612"
    },
    {
      "channel": 1,
      "note": 72,
      "start": 5.0692,
      "duration": 0.0262,
      "velocity": 89,
      "chip": "ym2612"
    },
    {
      "channel": 2,
      "note": 69,
      "start": 5.0698,
      "duration": 0.0259,
      "velocity": 89,
      "chip": "ym2612"
    },
    {
      "channel": 3,
      "note": 105,
      "start": 5.0704,
      "duration": 0.0256,
      "velocity": 78,
      "chip": "ym2612"
    },
    {
      "channel": 0,
      "note": 43,
      "start": 5.1122,
      "duration": 0.0457,
      "velocity": 74,
      "chip": "ym2612"
    },
    {
      "channel": 1,
      "note": 74,
      "start": 5.1127,
      "duration": 0.2152,
      "velocity": 89,
      "chip": "ym2612"
    },
    {
      "channel": 2,
      "note": 71,
      "start": 5.1133,
      "duration": 0.215,
      "velocity": 89,
      "chip": "ym2612"
    },
    {
      "channel": 3,
      "note": 93,
      "start": 5.1142,
      "duration": 0.0161,
      "velocity": 78,
      "chip": "ym2612"
    },
    {
      "channel": 4,
      "note": 72,
      "start": 5.1276,
      "duration": 0.0146,
      "velocity": 89,
      "chip": "ym2612"
    },
    {
      "channel": 3,
      "note": 100,
      "start": 5.1334,
      "duration": 0.0253,
      "velocity": 78,
      "chip": "ym2612"
    },
    {
      "channel": 4,
      "note": 71,
      "start": 5.1454,
      "duration": 0.0809,
      "velocity": 89,
      "chip": "ym2612"
    },
    {
      "channel": 0,
      "note": 43,
      "start": 5.1749,
      "duration": 0.0334,
      "velocity": 74,
      "chip": "ym2612"
    },
    {
      "channel": 3,
      "note": 93,
      "start": 5.1761,
      "duration": 0.0834,
      "velocity": 78,
      "chip": "ym2612"
    },
    {
      "channel": 4,
      "note": 72,
      "start": 5.2432,
      "duration": 0.166,
      "velocity": 89,
      "chip": "ym2612"
    },
    {
      "channel": 0,
      "note": 38,
      "start": 5.2758,
      "duration": 0.0519,
      "velocity": 74,
      "chip": "ym2612"
    },
    {
      "channel": 3,
      "note": 105,
      "start": 5.2769,
      "duration": 0.015,
      "velocity": 78,
      "chip": "ym2612"
    },
    {
      "channel": 3,
      "note": 93,
      "start": 5.2957,
      "duration": 0.0149,
      "velocity": 78,
      "chip": "ym2612"
    },
    {
      "channel": 3,
      "note": 100,
      "start": 5.3138,
      "duration": 0.0148,
      "velocity": 78,
      "chip": "ym2612"
    },
    {
      "channel": 0,
      "note": 43,
      "start": 5.3319,
      "duration": 0.047,
      "velocity": 74,
      "chip": "ym2612"
    },
    {
      "channel": 1,
      "note": 72,
      "start": 5.3324,
      "duration": 0.2464,
      "velocity": 89,
      "chip": "ym2612"
    },
    {
      "channel": 2,
      "note": 69,
      "start": 5.3329,
      "duration": 0.2462,
      "velocity": 89,
      "chip": "ym2612"
    },
    {
      "channel": 3,
      "note": 93,
      "start": 5.3337,
      "duration": 0.0154,
      "velocity": 78,
      "chip": "ym2612"
    },
    {
      "channel": 3,
      "note": 105,
      "start": 5.3522,
      "duration": 0.0275,
      "velocity": 78,
      "chip": "ym2612"
    },
    {
      "channel": 0,
      "note": 43,
      "start": 5.396,
      "duration": 0.0179,
      "velocity": 74,
      "chip": "ym2612"
    },
    {
      "channel": 3,
      "note": 93,
      "start": 5.3984,
      "duration": 0.0173,
      "velocity": 78,
      "chip": "ym2612"
    },
    {
      "channel": 4,
      "note": 74,
      "start": 5.4127,
      "duration": 0.2189,
      "velocity": 89,
      "chip": "ym2612"
    },
    {
      "channel": 0,
      "note": 55,
      "start": 5.4173,
      "duration": 0.0282,
      "velocity": 74,
      "chip": "ym2612"
    },
    {
      "channel": 3,
      "note": 100,
      "start": 5.4194,
      "duration": 0.0269,
      "velocity": 78,
      "chip": "ym2612"
    },
    {
      "channel": 0,
      "note": 43,
      "start": 5.4626,
      "duration": 0.0332,
      "velocity": 74,
      "chip": "ym2612"
    },
    {
      "channel": 3,
      "note": 93,
      "start": 5.4639,
      "duration": 0.0828,
      "velocity": 78,
      "chip": "ym2612"
    },
    {
      "channel": 0,
      "note": 38,
      "start": 5.5628,
      "duration": 0.0534,
      "velocity": 74,
      "chip": "ym2612"
    },
    {
      "channel": 3,
      "note": 105,
      "start": 5.5639,
      "duration": 0.0156,
      "velocity": 78,
      "chip": "ym2612"
    },
    {
      "channel": 1,
      "note": 71,
      "start": 5.5833,
      "duration": 0.0835,
      "velocity": 89,
      "chip": "ym2612"
    },
    {
      "channel": 2,
      "note": 67,
      "start": 5.5839,
      "duration": 0.0833,
      "velocity": 89,
      "chip": "ym2612"
    },
    {
      "channel": 3,
      "note": 93,
      "start": 5.5848,
      "duration": 0.0146,
      "velocity": 78,
      "chip": "ym2612"
    },
    {
      "channel": 3,
      "note": 100,
      "start": 5.6026,
      "duration": 0.0144,
      "velocity": 78,
      "chip": "ym2612"
    },
    {
      "channel": 0,
      "note": 43,
      "start": 5.6204,
      "duration": 0.0462,
      "velocity": 74,
      "chip": "ym2612"
    },
    {
      "channel": 3,
      "note": 93,
      "start": 5.6216,
      "duration": 0.0159,
      "velocity": 78,
      "chip": "ym2612"
    },
    {
      "channel": 4,
      "note": 72,
      "start": 5.6348,
      "duration": 0.1633,
      "velocity": 89,
      "chip": "ym2612"
    },
    {
      "channel": 3,
      "note": 105,
      "start": 5.6407,
      "duration": 0.0268,
      "velocity": 78,
      "chip": "ym2612"
    },
    {
      "channel": 0,
      "note": 45,
      "start": 5.6838,
      "duration": 0.0459,
      "velocity": 74,
      "chip": "ym2612"
    },
    {
      "channel": 1,
      "note": 72,
      "start": 5.6844,
      "duration": 0.2151,
      "velocity": 89,
      "chip": "ym2612"
    },
    {
      "channel": 2,
      "note": 69,
      "start": 5.6849,
      "duration": 0.2149,
      "velocity": 89,
      "chip": "ym2612"
    },
    {
      "channel": 3,
      "note": 93,
      "start": 5.6858,
      "duration": 0.0157,
      "velocity": 78,
      "chip": "ym2612"
    },
    {
      "channel": 3,
      "note": 100,
      "start": 5.7047,
      "duration": 0.0257,
      "velocity": 78,
      "chip": "ym2612"
    },
    {
      "channel": 0,
      "note": 45,
      "start": 5.7467,
      "duration": 0.0334,
      "velocity": 74,
      "chip": "ym2612"
    },
    {
      "channel": 3,
      "note": 93,
      "start": 5.7479,
      "duration": 0.0834,
      "velocity": 78,
      "chip": "ym2612"
    },
    {
      "channel": 4,
      "note": 71,
      "start": 5.815,
      "duration": 0.1631,
      "velocity": 89,
      "chip": "ym2612"
    },
    {
      "channel": 0,
      "note": 40,
      "start": 5.8476,
      "duration": 0.0516,
      "velocity": 74,
      "chip": "ym2612"
    },
    {
      "channel": 3,
      "note": 105,
      "start": 5.8487,
      "duration": 0.0151,
      "velocity": 78,
      "chip": "ym2612"
    },
    {
      "channel": 3,
      "note": 93,
      "start": 5.8673,
      "duration": 0.0148,
      "velocity": 78,
      "chip": "ym2612"
    },
    {
      "channel": 3,
      "note": 100,
      "start": 5.8853,
      "duration": 0.0149,
      "velocity": 78,
      "chip": "ym2612"
    },
    {
      "channel": 0,
      "note": 45,
      "start": 5.9034,
      "duration": 0.0457,
      "velocity": 74,
      "chip": "ym2612"
    },
    {
      "channel": 1,
      "note": 71,
      "start": 5.9039,
      "duration": 0.0158,
      "velocity": 89,
      "chip": "ym2612"
    },
    {
      "channel": 2,
      "note": 67,
      "start": 5.9045,
      "duration": 0.0156,
      "velocity": 89,
      "chip": "ym2612"
    },
    {
      "channel": 3,
      "note": 93,
      "start": 5.9052,
      "duration": 0.0151,
      "velocity": 78,
      "chip": "ym2612"
    },
    {
      "channel": 1,
      "note": 69,
      "start": 5.923,
      "duration": 0.0263,
      "velocity": 89,
      "chip": "ym2612"
    },
    {
      "channel": 2,
      "note": 64,
      "start": 5.9236,
      "duration": 0.0261,
      "velocity": 89,
      "chip": "ym2612"
    },
    {
      "channel": 3,
      "note": 105,
      "start": 5.9242,
      "duration": 0.0258,
      "velocity": 78,
      "chip": "ym2612"
    },
    {
      "channel": 0,
      "note": 45,
      "start": 5.9661,
      "duration": 0.0171,
      "velocity": 74,
      "chip": "ym2612"
    },
    {
      "channel": 1,
      "note": 71,
      "start": 5.9666,
      "duration": 0.0169,
      "velocity": 89,
      "chip": "ym2612"
    },
    {
      "channel": 2,
      "note": 67,
      "start": 5.9672,
      "duration": 0.0166,
      "velocity": 89,
      "chip": "ym2612"
    },
    {
      "channel": 3,
      "note": 93,
      "start": 5.9681,
      "duration": 0.016,
      "velocity": 78,
      "chip": "ym2612"
    },
    {
      "channel": 4,
      "note": 72,
      "start": 5.9813,
      "duration": 0.0157,
      "velocity": 89,
      "chip": "ym2612"
    },
    {
      "channel": 0,
      "note": 57,
      "start": 5.9864,
      "duration": 0.0251,
      "velocity": 74,
      "chip": "ym2612"
    },
    {
      "channel": 1,
      "note": 72,
      "start": 5.987,
      "duration": 0.0248,
      "velocity": 89,
      "chip": "ym2612"
    },
    {
      "channel": 2,
      "note": 69,
      "start": 5.9875,
      "duration": 0.0246,
      "velocity": 89,
      "chip": "ym2612"
    },
    {
      "channel": 3,
      "note": 100,
      "start": 5.9881,
      "duration": 0.0243,
      "velocity": 78,
      "chip": "ym2612"
    },
    {
      "channel": 4,
      "note": 71,
      "start": 6.0001,
      "duration": 0.0799,
      "velocity": 89,
      "chip": "ym2612"
    },
    {
      "channel": 0,
      "note": 45,
      "start": 6.0286,
      "duration": 0.0334,
      "velocity": 74,
      "chip": "ym2612"
    },
    {
      "channel": 1,
      "note": 71,
      "start": 6.0291,
      "duration": 0.0836,
      "velocity": 89,
      "chip": "ym2612"
    },
    {
      "channel": 2,
      "note": 67,
      "start": 6.0297,
      "duration": 0.0834,
      "velocity": 89,
      "chip": "ym2612"
    },
    {
      "channel": 3,
      "note": 93,
      "start": 6.0304,
      "duration": 0.0829,
      "velocity": 78,
      "chip": "ym2612"
    },
    {
      "channel": 4,
      "note": 69,
      "start": 6.0969,
      "duration": 0.0442,
      "velocity": 89,
      "chip": "ym2612"
    },
    {
      "channel": 0,
      "note": 40,
      "start": 6.1295,
      "duration": 0.058,
      "velocity": 74,
      "chip": "ym2612"
    },
    {
      "channel": 1,
      "note": 69,
      "start": 6.13,
      "duration": 0.0166,
      "velocity": 89,
      "chip": "ym2612"
    },
    {
      "channel": 2,
      "note": 64,
      "start": 6.1306,
      "duration": 0.0164,
      "velocity": 89,
      "chip": "ym2612"
    },
    {
      "channel": 3,
      "note": 105,
      "start": 6.1312,
      "duration": 0.0161,
      "velocity": 78,
      "chip": "ym2612"
    },
    {
      "channel": 4,
      "note": 71,
      "start": 6.1443,
      "duration": 0.0181,
      "velocity": 89,
      "chip": "ym2612"
    },
    {
      "channel": 1,
      "note": 71,
      "start": 6.1509,
      "duration": 0.0368,
      "velocity": 89,
      "chip": "ym2612"
    },
    {
      "channel": 2,
      "note": 67,
      "start": 6.1515,
      "duration": 0.0366,
      "velocity": 89,
      "chip": "ym2612"
    },
    {
      "channel": 3,
      "note": 93,
      "start": 6.1524,
      "duration": 0.0163,
      "velocity": 78,
      "chip": "ym2612"
    },
    {
      "channel": 4,
      "note": 72,
      "start": 6.1658,
      "duration": 0.017,
      "velocity": 89,
      "chip": "ym2612"
    },
    {
      "channel": 3,
      "note": 100,
      "start": 6.1721,
      "duration": 0.0173,
      "velocity": 78,
      "chip": "ym2612"
    },
    {
      "channel": 4,
      "note": 71,
      "start": 6.1863,
      "duration": 0.0184,
      "velocity": 89,
      "chip": "ym2612"
    },
    {
      "channel": 0,
      "note": 45,
      "start": 6.1913,
      "duration": 0.048,
      "velocity": 74,
      "chip": "ym2612"
    },
    {
      "channel": 1,
      "note": 72,
      "start": 6.1929,
      "duration": 0.0467,
      "velocity": 89,
      "chip": "ym2612"
    },
    {
      "channel": 2,
      "note": 69,
      "start": 6.1934,
      "duration": 0.0465,
      "velocity": 89,
      "chip": "ym2612"
    },
    {
      "channel": 3,
      "note": 93,
      "start": 6.1942,
      "duration": 0.0168,
      "velocity": 78,
      "chip": "ym2612"
    },
    {
      "channel": 4,
      "note": 69,
      "start": 6.2081,
      "duration": 0.0602,
      "velocity": 89,
      "chip": "ym2612"
    },
    {
      "channel": 3,
      "note": 105,
      "start": 6.2141,
      "duration": 0.0261,
      "velocity": 78,
      "chip": "ym2612"
    },
    {
      "channel": 0,
      "note": 43,
      "start": 6.2562,
      "duration": 0.0455,
      "velocity": 74,
      "chip": "ym2612"
    },
    {
      "channel": 1,
      "note": 74,
      "start": 6.2567,
      "duration": 0.2161,
      "velocity": 89,
      "chip": "ym2612"
    },
    {
      "channel": 2,
      "note": 71,
      "start": 6.2573,
      "duration": 0.2158,
      "velocity": 89,
      "chip": "ym2612"
    },
    {
      "channel": 3,
      "note": 93,
      "start": 6.2582,
      "duration": 0.0159,
      "velocity": 78,
      "chip": "ym2612"
    },
    {
      "channel": 4,
      "note": 71,
      "start": 6.2714,
      "duration": 0.0987,
      "velocity": 89,
      "chip": "ym2612"
    },
    {
      "channel": 3,
      "note": 100,
      "start": 6.2773,
      "duration": 0.0252,
      "velocity": 78,
      "chip": "ym2612"
    },
    {
      "channel": 0,
      "note": 43,
      "start": 6.3187,
      "duration": 0.0335,
      "velocity": 74,
      "chip": "ym2612"
    },
    {
      "channel": 3,
      "note": 93,
      "start": 6.3199,
      "duration": 0.0834,
      "velocity": 78,
      "chip": "ym2612"
    },
    {
      "channel": 4,
      "note": 72,
      "start": 6.387,
      "duration": 0.1638,
      "velocity": 89,
      "chip": "ym2612"
    },
    {
      "channel": 0,
      "note": 38,
      "start": 6.4196,
      "duration": 0.0529,
      "velocity": 74,
      "chip": "ym2612"
    },
    {
      "channel": 3,
      "note": 105,
      "start": 6.4207,
      "duration": 0.0153,
      "velocity": 78,
      "chip": "ym2612"
    },
    {
      "channel": 3,
      "note": 93,
      "start": 6.4399,
      "duration": 0.0152,
      "velocity": 78,
      "chip": "ym2612"
    },
    {
      "channel": 3,
      "note": 100,
      "start": 6.4584,
      "duration": 0.0151,
      "velocity": 78,
      "chip": "ym2612"
    },
    {
      "channel": 0,
      "note": 43,
      "start": 6.4767,
      "duration": 0.0457,
      "velocity": 74,
      "chip": "ym2612"
    },
    {
      "channel": 1,
      "note": 79,
      "start": 6.4773,
      "duration": 0.2419,
      "velocity": 89,
      "chip": "ym2612"
    },
    {
      "channel": 2,
      "note": 76,
      "start": 6.4778,
      "duration": 0.2417,
      "velocity": 89,
      "chip": "ym2612"
    },
    {
      "channel": 3,
      "note": 93,
      "start": 6.4786,
      "duration": 0.0151,
      "velocity": 78,
      "chip": "ym2612"
    },
    {
      "channel": 3,
      "note": 105,
      "start": 6.4968,
      "duration": 0.0264,
      "velocity": 78,
      "chip": "ym2612"
    },
    {
      "channel": 0,
      "note": 43,
      "start": 6.5394,
      "duration": 0.0166,
      "velocity": 74,
      "chip": "ym2612"
    },
    {
      "channel": 3,
      "note": 93,
      "start": 6.5408,
      "duration": 0.016,
      "velocity": 78,
      "chip": "ym2612"
    },
    {
      "channel": 4,
      "note": 74,
      "start": 6.554,
      "duration": 0.2179,
      "velocity": 89,
      "chip": "ym2612"
    },
    {
      "channel": 0,
      "note": 55,
      "start": 6.5591,
      "duration": 0.0261,
      "velocity": 74,
      "chip": "ym2612"
    },
    {
      "channel": 3,
      "note": 100,
      "start": 6.5602,
      "duration": 0.0259,
      "velocity": 78,
      "chip": "ym2612"
    },
    {
      "channel": 0,
      "note": 43,
      "start": 6.6023,
      "duration": 0.0334,
      "velocity": 74,
      "chip": "ym2612"
    },
    {
      "channel": 3,
      "note": 93,
      "start": 6.6036,
      "duration": 0.0835,
      "velocity": 78,
      "chip": "ym2612"
    },
    {
      "channel": 0,
      "note": 38,
      "start": 6.7032,
      "duration": 0.0534,
      "velocity": 74,
      "chip": "ym2612"
    },
    {
      "channel": 3,
      "note": 105,
      "start": 6.7044,
      "duration": 0.0155,
      "velocity": 78,
      "chip": "ym2612"
    },
    {
      "channel": 1,
      "note": 77,
      "start": 6.7238,
      "duration": 0.0827,
      "velocity": 89,
      "chip": "ym2612"
    },
    {
      "channel": 2,
      "note": 74,
      "start": 6.7243,
      "duration": 0.0824,
      "velocity": 89,
      "chip": "ym2612"
    },
    {
      "channel": 3,
      "note": 93,
      "start": 6.7252,
      "duration": 0.0146,
      "velocity": 78,
      "chip": "ym2612"
    },
    {
      "channel": 3,
      "note": 100,
      "start": 6.743,
      "duration": 0.0144,
      "velocity": 78,
      "chip": "ym2612"
    },
    {
      "channel": 0,
      "note": 43,
      "start": 6.7608,
      "duration": 0.0454,
      "velocity": 74,
      "chip": "ym2612"
    },
    {
      "channel": 3,
      "note": 93,
      "start": 6.762,
      "duration": 0.0157,
      "velocity": 78,
      "chip": "ym2612"
    },
    {
      "channel": 4,
      "note": 79,
      "start": 6.775,
      "duration": 0.1647,
      "velocity": 89,
      "chip": "ym2612"
    },
    {
      "channel": 3,
      "note": 105,
      "start": 6.7808,
      "duration": 0.0263,
      "velocity": 78,
      "chip": "ym2612"
    },
    {
      "channel": 0,
      "note": 45,
      "start": 6.8233,
      "duration": 0.0469,
      "velocity": 74,
      "chip": "ym2612"
    },
    {
      "channel": 1,
      "note": 76,
      "start": 6.8239,
      "duration": 0.5026,
      "velocity": 89,
      "chip": "ym2612"
    },
    {
      "channel": 2,
      "note": 72,
      "start": 6.8244,
      "duration": 0.5024,
      "velocity": 89,
      "chip": "ym2612"
    },
    {
      "channel": 3,
      "note": 93,
      "start": 6.8253,
      "duration": 0.0157,
      "velocity": 78,
      "chip": "ym2612"
    },
    {
      "channel": 3,
      "note": 100,
      "start": 6.8441,
      "duration": 0.0269,
      "velocity": 78,
      "chip": "ym2612"
    },
    {
      "channel": 0,
      "note": 45,
      "start": 6.8873,
      "duration": 0.0334,
      "velocity": 74,
      "chip": "ym2612"
    },
    {
      "channel": 3,
      "note": 93,
      "start": 6.8895,
      "duration": 0.0835,
      "velocity": 78,
      "chip": "ym2612"
    },
    {
      "channel": 4,
      "note": 77,
      "start": 6.9567,
      "duration": 0.4482,
      "velocity": 89,
      "chip": "ym2612"
    },
    {
      "channel": 0,
      "note": 40,
      "start": 6.9882,
      "duration": 0.0545,
      "velocity": 74,
      "chip": "ym2612"
    },
    {
      "channel": 3,
      "note": 105,
      "start": 6.9903,
      "duration": 0.0165,
      "velocity": 78,
      "chip": "ym2612"
    },
    {
      "channel": 3,
      "note": 93,
      "start": 7.0103,
      "duration": 0.0151,
      "velocity": 78,
      "chip": "ym2612"
    },
    {
      "channel": 3,
      "note": 100,
      "start": 7.0287,
      "duration": 0.0149,
      "velocity": 78,
      "chip": "ym2612"
    },
    {
      "channel": 0,
      "note": 45,
      "start": 7.0459,
      "duration": 0.0451,
      "velocity": 74,
      "chip": "ym2612"
    },
    {
      "channel": 3,
      "note": 93,
      "start": 7.0472,
      "duration": 0.0149,
      "velocity": 78,
      "chip": "ym2612"
    },
    {
      "channel": 3,
      "note": 105,
      "start": 7.0654,
      "duration": 0.0266,
      "velocity": 78,
      "chip": "ym2612"
    },
    {
      "channel": 0,
      "note": 45,
      "start": 7.1081,
      "duration": 0.0168,
      "velocity": 74,
      "chip": "ym2612"
    },
    {
      "channel": 3,
      "note": 93,
      "start": 7.1095,
      "duration": 0.0163,
      "velocity": 78,
      "chip": "ym2612"
    },
    {
      "channel": 0,
      "note": 57,
      "start": 7.1283,
      "duration": 0.0261,
      "velocity": 74,
      "chip": "ym2612"
    },
    {
      "channel": 3,
      "note": 100,
      "start": 7.1294,
      "duration": 0.0259,
      "velocity": 78,
      "chip": "ym2612"
    },
    {
      "channel": 0,
      "note": 45,
      "start": 7.1715,
      "duration": 0.0334,
      "velocity": 74,
      "chip": "ym2612"
    },
    {
      "channel": 3,
      "note": 93,
      "start": 7.1728,
      "duration": 0.0835,
      "velocity": 78,
      "chip": "ym2612"
    },
    {
      "channel": 0,
      "note": 40,
      "start": 7.2724,
      "duration": 0.0538,
      "velocity": 74,
      "chip": "ym2612"
    },
    {
      "channel": 3,
      "note": 105,
      "start": 7.2735,
      "duration": 0.0156,
      "velocity": 78,
      "chip": "ym2612"
    },
    {
      "channel": 3,
      "note": 93,
      "start": 7.2939,
      "duration": 0.0151,
      "velocity": 78,
      "chip": "ym2612"
    },
    {
      "channel": 3,
      "note": 100,
      "start": 7.3122,
      "duration": 0.015,
      "velocity": 78,
      "chip": "ym2612"
    },
    {
      "channel": 0,
      "note": 45,
      "start": 7.33,
      "duration": 0.0456,
      "velocity": 74,
      "chip": "ym2612"
    },
    {
      "channel": 1,
      "note": 74,
      "start": 7.3305,
      "duration": 0.0159,
      "velocity": 89,
      "chip": "ym2612"
    },
    {
      "channel": 2,
      "note": 71,
      "start": 7.3311,
      "duration": 0.0157,
      "velocity": 89,
      "chip": "ym2612"
    },
    {
      "channel": 3,
      "note": 93,
      "start": 7.3318,
      "duration": 0.0152,
      "velocity": 78,
      "chip": "ym2612"
    },
    {
      "channel": 1,
      "note": 76,
      "start": 7.3498,
      "duration": 0.0261,
      "velocity": 89,
      "chip": "ym2612"
    },
    {
      "channel": 2,
      "note": 72,
      "start": 7.3503,
      "duration": 0.0259,
      "velocity": 89,
      "chip": "ym2612"
    },
    {
      "channel": 3,
      "note": 105,
      "start": 7.3509,
      "duration": 0.0256,
      "velocity": 78,
      "chip": "ym2612"
    },
    {
      "channel": 0,
      "note": 43,
      "start": 7.3927,
      "duration": 0.0456,
      "velocity": 74,
      "chip": "ym2612"
    },
    {
      "channel": 1,
      "note": 77,
      "start": 7.3932,
      "duration": 0.2149,
      "velocity": 89,
      "chip": "ym2612"
    },
    {
      "channel": 2,
      "note": 74,
      "start": 7.3937,
      "duration": 0.2146,
      "velocity": 89,
      "chip": "ym2612"
    },
    {
      "channel": 3,
      "note": 93,
      "start": 7.3946,
      "duration": 0.0161,
      "velocity": 78,
      "chip": "ym2612"
    },
    {
      "channel": 4,
      "note": 76,
      "start": 7.4081,
      "duration": 0.0146,
      "velocity": 89,
      "chip": "ym2612"
    },
    {
      "channel": 3,
      "note": 100,
      "start": 7.4139,
      "duration": 0.0252,
      "velocity": 78,
      "chip": "ym2612"
    },
    {
      "channel": 4,
      "note": 74,
      "start": 7.4258,
      "duration": 0.081,
      "velocity": 89,
      "chip": "ym2612"
    },
    {
      "channel": 0,
      "note": 43,
      "start": 7.4554,
      "duration": 0.0334,
      "velocity": 74,
      "chip": "ym2612"
    },
    {
      "channel": 3,
      "note": 93,
      "start": 7.4566,
      "duration": 0.0835,
      "velocity": 78,
      "chip": "ym2612"
    },
    {
      "channel": 4,
      "note": 76,
      "start": 7.5237,
      "duration": 0.1674,
      "velocity": 89,
      "chip": "ym2612"
    },
    {
      "channel": 0,
      "note": 38,
      "start": 7.5563,
      "duration": 0.0515,
      "velocity": 74,
      "chip": "ym2612"
    },
    {
      "channel": 3,
      "note": 105,
      "start": 7.5574,
      "duration": 0.015,
      "velocity": 78,
      "chip": "ym2612"
    },
    {
      "channel": 3,
      "note": 93,
      "start": 7.5759,
      "duration": 0.0148,
      "velocity": 78,
      "chip": "ym2612"
    },
    {
      "channel": 3,
      "note": 100,
      "start": 7.5939,
      "duration": 0.0148,
      "velocity": 78,
      "chip": "ym2612"
    },
    {
      "channel": 0,
      "note": 43,
      "start": 7.6123,
      "duration": 0.0485,
      "velocity": 74,
      "chip": "ym2612"
    },
    {
      "channel": 1,
      "note": 76,
      "start": 7.6128,
      "duration": 0.246,
      "velocity": 89,
      "chip": "ym2612"
    },
    {
      "channel": 2,
      "note": 72,
      "start": 7.6134,
      "duration": 0.2458,
      "velocity": 89,
      "chip": "ym2612"
    },
    {
      "channel": 3,
      "note": 93,
      "start": 7.6141,
      "duration": 0.0164,
      "velocity": 78,
      "chip": "ym2612"
    },
    {
      "channel": 3,
      "note": 105,
      "start": 7.634,
      "duration": 0.0286,
      "velocity": 78,
      "chip": "ym2612"
    },
    {
      "channel": 0,
      "note": 43,
      "start": 7.6778,
      "duration": 0.0189,
      "velocity": 74,
      "chip": "ym2612"
    },
    {
      "channel": 3,
      "note": 93,
      "start": 7.6802,
      "duration": 0.0173,
      "velocity": 78,
      "chip": "ym2612"
    },
    {
      "channel": 4,
      "note": 77,
      "start": 7.6945,
      "duration": 0.2176,
      "velocity": 89,
      "chip": "ym2612"
    },
    {
      "channel": 0,
      "note": 55,
      "start": 7.6999,
      "duration": 0.0253,
      "velocity": 74,
      "chip": "ym2612"
    },
    {
      "channel": 3,
      "note": 100,
      "start": 7.701,
      "duration": 0.025,
      "velocity": 78,
      "chip": "ym2612"
    },
    {
      "channel": 0,
      "note": 43,
      "start": 7.742,
      "duration": 0.0332,
      "velocity": 74,
      "chip": "ym2612"
    },
    {
      "channel": 3,
      "note": 93,
      "start": 7.7433,
      "duration": 0.0833,
      "velocity": 78,
      "chip": "ym2612"
    },
    {
      "channel": 0,
      "note": 38,
      "start": 7.8428,
      "duration": 0.0538,
      "velocity": 74,
      "chip": "ym2612"
    },
    {
      "channel": 3,
      "note": 105,
      "start": 7.8439,
      "duration": 0.0156,
      "velocity": 78,
      "chip": "ym2612"
    },
    {
      "channel": 1,
      "note": 74,
      "start": 7.8634,
      "duration": 0.084,
      "velocity": 89,
      "chip": "ym2612"
    },
    {
      "channel": 2,
      "note": 71,
      "start": 7.8639,
      "duration": 0.0838,
      "velocity": 89,
      "chip": "ym2612"
    },
    {
      "channel": 3,
      "note": 93,
      "start": 7.8649,
      "duration": 0.0146,
      "velocity": 78,
      "chip": "ym2612"
    },
    {
      "channel": 3,
      "note": 100,
      "start": 7.8827,
      "duration": 0.0147,
      "velocity": 78,
      "chip": "ym2612"
    },
    {
      "channel": 0,
      "note": 43,
      "start": 7.9008,
      "duration": 0.0463,
      "velocity": 74,
      "chip": "ym2612"
    },
    {
      "channel": 3,
      "note": 93,
      "start": 7.9021,
      "duration": 0.0159,
      "velocity": 78,
      "chip": "ym2612"
    },
    {
      "channel": 4,
      "note": 76,
      "start": 7.9153,
      "duration": 0.163,
      "velocity": 89,
      "chip": "ym2612"
    },
    {
      "channel": 3,
      "note": 105,
      "start": 7.9212,
      "duration": 0.0269,
      "velocity": 78,
      "chip": "ym2612"
    },
    {
      "channel": 0,
      "note": 41,
      "start": 7.9643,
      "duration": 0.0455,
      "velocity": 74,
      "chip": "ym2612"
    },
    {
      "channel": 1,
      "note": 76,
      "start": 7.9656,
      "duration": 0.2144,
      "velocity": 89,
      "chip": "ym2612"
    },
    {
      "channel": 2,
      "note": 72,
      "start": 7.9668,
      "duration": 0.2134,
      "velocity": 89,
      "chip": "ym2612"
    },
    {
      "channel": 3,
      "note": 93,
      "start": 7.9677,
      "duration": 0.0154,
      "velocity": 78,
      "chip": "ym2612"
    },
    {
      "channel": 3,
      "note": 100,
      "start": 7.9863,
      "duration": 0.0243,
      "velocity": 78,
      "chip": "ym2612"
    },
    {
      "channel": 0,
      "note": 41,
      "start": 8.0268,
      "duration": 0.0334,
      "velocity": 74,
      "chip": "ym2612"
    },
    {
      "channel": 3,
      "note": 93,
      "start": 8.028,
      "duration": 0.0834,
      "velocity": 78,
      "chip": "ym2612"
    },
    {
      "channel": 4,
      "note": 74,
      "start": 8.0959,
      "duration": 0.1621,
      "velocity": 89,
      "chip": "ym2612"
    },
    {
      "channel": 0,
      "note": 36,
      "start": 8.1277,
      "duration": 0.052,
      "velocity": 74,
      "chip": "ym2612"
    },
    {
      "channel": 3,
      "note": 105,
      "start": 8.1288,
      "duration": 0.015,
      "velocity": 78,
      "chip": "ym2612"
    },
    {
      "channel": 3,
      "note": 93,
      "start": 8.1478,
      "duration": 0.0149,
      "velocity": 78,
      "chip": "ym2612"
    },
    {
      "channel": 3,
      "note": 100,
      "start": 8.1659,
      "duration": 0.0148,
      "velocity": 78,
      "chip": "ym2612"
    },
    {
      "channel": 0,
      "note": 41,
      "start": 8.1839,
      "duration": 0.0456,
      "velocity": 74,
      "chip": "ym2612"
    },
    {
      "channel": 1,
      "note": 81,
      "start": 8.1844,
      "duration": 0.243,
      "velocity": 89,
      "chip": "ym2612"
    },
    {
      "channel": 2,
      "note": 77,
      "start": 8.185,
      "duration": 0.2428,
      "velocity": 89,
      "chip": "ym2612"
    },
    {
      "channel": 3,
      "note": 93,
      "start": 8.1857,
      "duration": 0.0151,
      "velocity": 78,
      "chip": "ym2612"
    },
    {
      "channel": 3,
      "note": 105,
      "start": 8.204,
      "duration": 0.0263,
      "velocity": 78,
      "chip": "ym2612"
    },
    {
      "channel": 0,
      "note": 41,
      "start": 8.2466,
      "duration": 0.0165,
      "velocity": 74,
      "chip": "ym2612"
    },
    {
      "channel": 3,
      "note": 93,
      "start": 8.2479,
      "duration": 0.0159,
      "velocity": 78,
      "chip": "ym2612"
    },
    {
      "channel": 4,
      "note": 76,
      "start": 8.2611,
      "duration": 0.2235,
      "velocity": 89,
      "chip": "ym2612"
    },
    {
      "channel": 0,
      "note": 53,
      "start": 8.2662,
      "duration": 0.0258,
      "velocity": 74,
      "chip": "ym2612"
    },
    {
      "channel": 3,
      "note": 100,
      "start": 8.2673,
      "duration": 0.0256,
      "velocity": 78,
      "chip": "ym2612"
    },
    {
      "channel": 0,
      "note": 41,
      "start": 8.3091,
      "duration": 0.0334,
      "velocity": 74,
      "chip": "ym2612"
    },
    {
      "channel": 3,
      "note": 93,
      "start": 8.3104,
      "duration": 0.0834,
      "velocity": 78,
      "chip": "ym2612"
    },
    {
      "channel": 0,
      "note": 36,
      "start": 8.41,
      "duration": 0.0589,
      "velocity": 74,
      "chip": "ym2612"
    },
    {
      "channel": 3,
      "note": 105,
      "start": 8.4112,
      "duration": 0.0169,
      "velocity": 78,
      "chip": "ym2612"
    },
    {
      "channel": 1,
      "note": 83,
      "start": 8.4322,
      "duration": 0.0866,
      "velocity": 89,
      "chip": "ym2612"
    },
    {
      "channel": 2,
      "note": 79,
      "start": 8.4328,
      "duration": 0.0863,
      "velocity": 89,
      "chip": "ym2612"
    },
    {
      "channel": 3,
      "note": 93,
      "start": 8.4347,
      "duration": 0.0159,
      "velocity": 78,
      "chip": "ym2612"
    },
    {
      "channel": 3,
      "note": 100,
      "start": 8.4541,
      "duration": 0.0156,
      "velocity": 78,
      "chip": "ym2612"
    },
    {
      "channel": 0,
      "note": 41,
      "start": 8.4733,
      "duration": 0.0452,
      "velocity": 74,
      "chip": "ym2612"
    },
    {
      "channel": 3,
      "note": 93,
      "start": 8.4745,
      "duration": 0.0162,
      "velocity": 78,
      "chip": "ym2612"
    },
    {
      "channel": 4,
      "note": 81,
      "start": 8.4878,
      "duration": 0.0998,
      "velocity": 89,
      "chip": "ym2612"
    },
    {
      "channel": 3,
      "note": 105,
      "start": 8.4939,
      "duration": 0.0256,
      "velocity": 78,
      "chip": "ym2612"
    },
    {
      "channel": 0,
      "note": 43,
      "start": 8.5355,
      "duration": 0.0358,
      "velocity": 74,
      "chip": "ym2612"
    },
    {
      "channel": 1,
      "note": 84,
      "start": 8.5361,
      "duration": 0.008,
      "velocity": 89,
      "chip": "ym2612"
    },
    {
      "channel": 2,
      "note": 81,
      "start": 8.5366,
      "duration": 0.0077,
      "velocity": 89,
      "chip": "ym2612"
    },
    {
      "channel": 3,
      "note": 93,
      "start": 8.5375,
      "duration": 0.0162,
      "velocity": 78,
      "chip": "ym2612"
    },
    {
      "channel": 1,
      "note": 86,
      "start": 8.5471,
      "duration": 0.006,
      "velocity": 89,
      "chip": "ym2612"
    },
    {
      "channel": 2,
      "note": 83,
      "start": 8.5476,
      "duration": 0.0057,
      "velocity": 89,
      "chip": "ym2612"
    },
    {
      "channel": 1,
      "note": 84,
      "start": 8.5563,
      "duration": 0.0153,
      "velocity": 89,
      "chip": "ym2612"
    },
    {
      "channel": 2,
      "note": 81,
      "start": 8.5568,
      "duration": 0.0151,
      "velocity": 89,
      "chip": "ym2612"
    },
    {
      "channel": 3,
      "note": 100,
      "start": 8.5574,
      "duration": 0.0147,
      "velocity": 78,
      "chip": "ym2612"
    },
    {
      "channel": 0,
      "note": 43,
      "start": 8.5761,
      "duration": 0.0074,
      "velocity": 74,
      "chip": "ym2612"
    },
    {
      "channel": 1,
      "note": 83,
      "start": 8.5766,
      "duration": 0.0356,
      "velocity": 89,
      "chip": "ym2612"
    },
    {
      "channel": 2,
      "note": 79,
      "start": 8.5772,
      "duration": 0.0353,
      "velocity": 89,
      "chip": "ym2612"
    },
    {
      "channel": 3,
      "note": 93,
      "start": 8.578,
      "duration": 0.0155,
      "velocity": 78,
      "chip": "ym2612"
    },
    {
      "channel": 4,
      "note": 83,
      "start": 8.5908,
      "duration": 0.0067,
      "velocity": 89,
      "chip": "ym2612"
    },
    {
      "channel": 0,
      "note": 38,
      "start": 8.5959,
      "duration": 0.0537,
      "velocity": 74,
      "chip": "ym2612"
    },
    {
      "channel": 3,
      "note": 105,
      "start": 8.5971,
      "duration": 0.0158,
      "velocity": 78,
      "chip": "ym2612"
    },
    {
      "channel": 4,
      "note": 84,
      "start": 8.601,
      "duration": 0.0059,
      "velocity": 89,
      "chip": "ym2612"
    },
    {
      "channel": 4,
      "note": 86,
      "start": 8.6101,
      "duration": 0.0169,
      "velocity": 89,
      "chip": "ym2612"
    },
    {
      "channel": 1,
      "note": 84,
      "start": 8.6162,
      "duration": 0.0336,
      "velocity": 89,
      "chip": "ym2612"
    },
    {
      "channel": 2,
      "note": 81,
      "start": 8.6167,
      "duration": 0.0334,
      "velocity": 89,
      "chip": "ym2612"
    },
    {
      "channel": 3,
      "note": 93,
      "start": 8.6177,
      "duration": 0.0152,
      "velocity": 78,
      "chip": "ym2612"
    },
    {
      "channel": 4,
      "note": 84,
      "start": 8.6302,
      "duration": 0.0348,
      "velocity": 89,
      "chip": "ym2612"
    },
    {
      "channel": 3,
      "note": 100,
      "start": 8.636,
      "duration": 0.0144,
      "velocity": 78,
      "chip": "ym2612"
    },
    {
      "channel": 0,
      "note": 43,
      "start": 8.6535,
      "duration": 0.0456,
      "velocity": 74,
      "chip": "ym2612"
    },
    {
      "channel": 1,
      "note": 86,
      "start": 8.654,
      "duration": 0.2472,
      "velocity": 89,
      "chip": "ym2612"
    },
    {
      "channel": 2,
      "note": 83,
      "start": 8.6546,
      "duration": 0.247,
      "velocity": 89,
      "chip": "ym2612"
    },
    {
      "channel": 3,
      "note": 93,
      "start": 8.6553,
      "duration": 0.0154,
      "velocity": 78,
      "chip": "ym2612"
    },
    {
      "channel": 4,
      "note": 83,
      "start": 8.6681,
      "duration": 0.0994,
      "velocity": 89,
      "chip": "ym2612"
    },
    {
      "channel": 3,
      "note": 105,
      "start": 8.6739,
      "duration": 0.026,
      "velocity": 78,
      "chip": "ym2612"
    },
    {
      "channel": 0,
      "note": 43,
      "start": 8.7162,
      "duration": 0.0839,
      "velocity": 74,
      "chip": "ym2612"
    },
    {
      "channel": 3,
      "note": 93,
      "start": 8.7176,
      "duration": 0.0833,
      "velocity": 78,
      "chip": "ym2612"
    },
    {
      "channel": 4,
      "note": 84,
      "start": 8.7845,
      "duration": 0.2071,
      "velocity": 89,
      "chip": "ym2612"
    },
    {
      "channel": 0,
      "note": 55,
      "start": 8.8171,
      "duration": 0.0839,
      "velocity": 74,
      "chip": "ym2612"
    },
    {
      "channel": 3,
      "note": 100,
      "start": 8.8182,
      "duration": 0.0837,
      "velocity": 78,
      "chip": "ym2612"
    },
    {
      "channel": 0,
      "note": 43,
      "start": 8.918,
      "duration": 0.0078,
      "velocity": 74,
      "chip": "ym2612"
    },
    {
      "channel": 1,
      "note": 83,
      "start": 8.9185,
      "duration": 0.0455,
      "velocity": 89,
      "chip": "ym2612"
    },
    {
      "channel": 2,
      "note": 79,
      "start": 8.9191,
      "duration": 0.0452,
      "velocity": 89,
      "chip": "ym2612"
    },
    {
      "channel": 3,
      "note": 93,
      "start": 8.9198,
      "duration": 0.0153,
      "velocity": 78,
      "chip": "ym2612"
    },
    {
      "channel": 0,
      "note": 38,
      "start": 8.9375,
      "duration": 0.0766,
      "velocity": 74,
      "chip": "ym2612"
    },
    {
      "channel": 3,
      "note": 105,
      "start": 8.9386,
      "duration": 0.026,
      "velocity": 78,
      "chip": "ym2612"
    },
    {
      "channel": 1,
      "note": 84,
      "start": 8.9811,
      "duration": 0.0333,
      "velocity": 89,
      "chip": "ym2612"
    },
    {
      "channel": 2,
      "note": 81,
      "start": 8.9816,
      "duration": 0.0331,
      "velocity": 89,
      "chip": "ym2612"
    },
    {
      "channel": 3,
      "note": 93,
      "start": 8.9825,
      "duration": 0.0149,
      "velocity": 78,
      "chip": "ym2612"
    },
    {
      "channel": 4,
      "note": 86,
      "start": 8.9948,
      "duration": 0.0345,
      "velocity": 89,
      "chip": "ym2612"
    },
    {
      "channel": 3,
      "note": 100,
      "start": 9.0006,
      "duration": 0.0144,
      "velocity": 78,
      "chip": "ym2612"
    },
    {
      "channel": 0,
      "note": 43,
      "start": 9.0181,
      "duration": 0.0337,
      "velocity": 74,
      "chip": "ym2612"
    },
    {
      "channel": 1,
      "note": 86,
      "start": 9.0186,
      "duration": 0.0334,
      "velocity": 89,
      "chip": "ym2612"
    },
    {
      "channel": 2,
      "note": 83,
      "start": 9.0191,
      "duration": 0.0332,
      "velocity": 89,
      "chip": "ym2612"
    },
    {
      "channel": 3,
      "note": 93,
      "start": 9.0199,
      "duration": 0.0152,
      "velocity": 78,
      "chip": "ym2612"
    },
    {
      "channel": 4,
      "note": 83,
      "start": 9.0324,
      "duration": 0.0442,
      "velocity": 89,
      "chip": "ym2612"
    },
    {
      "channel": 3,
      "note": 105,
      "start": 9.0382,
      "duration": 0.0144,
      "velocity": 78,
      "chip": "ym2612"
    },
    {
      "channel": 0,
      "note": 41,
      "start": 9.056,
      "duration": 0.0484,
      "velocity": 74,
      "chip": "ym2612"
    },
    {
      "channel": 1,
      "note": 88,
      "start": 9.0612,
      "duration": 0.0212,
      "velocity": 97,
      "chip": "ym2612"
    },
    {
      "channel": 2,
      "note": 69,
      "start": 9.0654,
      "duration": 0.5453,
      "velocity": 94,
      "chip": "ym2612"
    },
    {
      "channel": 3,
      "note": 93,
      "start": 9.0667,
      "duration": 0.0163,
      "velocity": 78,
      "chip": "ym2612"
    },
    {
      "channel": 4,
      "note": 84,
      "start": 9.08,
      "duration": 0.0938,
      "velocity": 89,
      "chip": "ym2612"
    },
    {
      "channel": 1,
      "note": 93,
      "start": 9.0858,
      "duration": 0.0188,
      "velocity": 97,
      "chip": "ym2612"
    },
    {
      "channel": 3,
      "note": 100,
      "start": 9.0877,
      "duration": 0.0185,
      "velocity": 78,
      "chip": "ym2612"
    },
    {
      "channel": 0,
      "note": 41,
      "start": 9.1214,
      "duration": 0.0334,
      "velocity": 74,
      "chip": "ym2612"
    },
    {
      "channel": 1,
      "note": 88,
      "start": 9.1229,
      "duration": 0.0837,
      "velocity": 97,
      "chip": "ym2612"
    },
    {
      "channel": 3,
      "note": 93,
      "start": 9.1239,
      "duration": 0.0832,
      "velocity": 78,
      "chip": "ym2612"
    },
    {
      "channel": 4,
      "note": 86,
      "start": 9.1961,
      "duration": 0.0386,
      "velocity": 97,
      "chip": "ym2612"
    },
    {
      "channel": 0,
      "note": 36,
      "start": 9.2232,
      "duration": 0.0538,
      "velocity": 74,
      "chip": "ym2612"
    },
    {
      "channel": 1,
      "note": 86,
      "start": 9.2237,
      "duration": 0.0161,
      "velocity": 97,
      "chip": "ym2612"
    },
    {
      "channel": 3,
      "note": 105,
      "start": 9.2246,
      "duration": 0.0159,
      "velocity": 78,
      "chip": "ym2612"
    },
    {
      "channel": 4,
      "note": 88,
      "start": 9.2377,
      "duration": 0.0158,
      "velocity": 97,
      "chip": "ym2612"
    },
    {
      "channel": 1,
      "note": 84,
      "start": 9.243,
      "duration": 0.0158,
      "velocity": 97,
      "chip": "ym2612"
    },
    {
      "channel": 3,
      "note": 93,
      "start": 9.2442,
      "duration": 0.0152,
      "velocity": 78,
      "chip": "ym2612"
    },
    {
      "channel": 4,
      "note": 93,
      "start": 9.2566,
      "duration": 0.0152,
      "velocity": 97,
      "chip": "ym2612"
    },
    {
      "channel": 1,
      "note": 83,
      "start": 9.2619,
      "duration": 0.0154,
      "velocity": 97,
      "chip": "ym2612"
    },
    {
      "channel": 3,
      "note": 100,
      "start": 9.2628,
      "duration": 0.0151,
      "velocity": 78,
      "chip": "ym2612"
    },
    {
      "channel": 4,
      "note": 88,
      "start": 9.275,
      "duration": 0.0162,
      "velocity": 97,
      "chip": "ym2612"
    },
    {
      "channel": 0,
      "note": 41,
      "start": 9.2801,
      "duration": 0.0456,
      "velocity": 74,
      "chip": "ym2612"
    },
    {
      "channel": 1,
      "note": 84,
      "start": 9.2807,
      "duration": 0.0158,
      "velocity": 97,
      "chip": "ym2612"
    },
    {
      "channel": 3,
      "note": 93,
      "start": 9.2817,
      "duration": 0.0154,
      "velocity": 78,
      "chip": "ym2612"
    },
    {
      "channel": 4,
      "note": 86,
      "start": 9.2943,
      "duration": 0.0156,
      "velocity": 97,
      "chip": "ym2612"
    },
    {
      "channel": 1,
      "note": 81,
      "start": 9.2997,
      "duration": 0.0264,
      "velocity": 97,
      "chip": "ym2612"
    },
    {
      "channel": 3,
      "note": 105,
      "start": 9.3005,
      "duration": 0.0261,
      "velocity": 78,
      "chip": "ym2612"
    },
    {
      "channel": 4,
      "note": 84,
      "start": 9.313,
      "duration": 0.042,
      "velocity": 97,
      "chip": "ym2612"
    },
    {
      "channel": 0,
      "note": 41,
      "start": 9.3428,
      "duration": 0.0173,
      "velocity": 74,
      "chip": "ym2612"
    },
    {
      "channel": 1,
      "note": 76,
      "start": 9.3434,
      "duration": 0.017,
      "velocity": 97,
      "chip": "ym2612"
    },
    {
      "channel": 3,
      "note": 93,
      "start": 9.3446,
      "duration": 0.0165,
      "velocity": 78,
      "chip": "ym2612"
    },
    {
      "channel": 4,
      "note": 83,
      "start": 9.3581,
      "duration": 0.016,
      "velocity": 97,
      "chip": "ym2612"
    },
    {
      "channel": 0,
      "note": 53,
      "start": 9.3634,
      "duration": 0.0258,
      "velocity": 74,
      "chip": "ym2612"
    },
    {
      "channel": 1,
      "note": 81,
      "start": 9.364,
      "duration": 0.0255,
      "velocity": 97,
      "chip": "ym2612"
    },
    {
      "channel": 3,
      "note": 100,
      "start": 9.3649,
      "duration": 0.0252,
      "velocity": 78,
      "chip": "ym2612"
    },
    {
      "channel": 4,
      "note": 84,
      "start": 9.3772,
      "duration": 0.0804,
      "velocity": 97,
      "chip": "ym2612"
    },
    {
      "channel": 0,
      "note": 41,
      "start": 9.4061,
      "duration": 0.0334,
      "velocity": 74,
      "chip": "ym2612"
    },
    {
      "channel": 1,
      "note": 76,
      "start": 9.4067,
      "duration": 0.0837,
      "velocity": 97,
      "chip": "ym2612"
    },
    {
      "channel": 3,
      "note": 93,
      "start": 9.4077,
      "duration": 0.0832,
      "velocity": 78,
      "chip": "ym2612"
    },
    {
      "channel": 4,
      "note": 81,
      "start": 9.4746,
      "duration": 0.0438,
      "velocity": 97,
      "chip": "ym2612"
    },
    {
      "channel": 0,
      "note": 36,
      "start": 9.5071,
      "duration": 0.0546,
      "velocity": 74,
      "chip": "ym2612"
    },
    {
      "channel": 1,
      "note": 74,
      "start": 9.5076,
      "duration": 0.016,
      "velocity": 97,
      "chip": "ym2612"
    },
    {
      "channel": 3,
      "note": 105,
      "start": 9.5085,
      "duration": 0.0157,
      "velocity": 78,
      "chip": "ym2612"
    },
    {
      "channel": 4,
      "note": 76,
      "start": 9.5215,
      "duration": 0.0168,
      "velocity": 97,
      "chip": "ym2612"
    },
    {
      "channel": 1,
      "note": 72,
      "start": 9.5277,
      "duration": 0.0159,
      "velocity": 97,
      "chip": "ym2612"
    },
    {
      "channel": 3,
      "note": 93,
      "start": 9.5289,
      "duration": 0.0153,
      "velocity": 78,
      "chip": "ym2612"
    },
    {
      "channel": 4,
      "note": 81,
      "start": 9.5414,
      "duration": 0.0152,
      "velocity": 97,
      "chip": "ym2612"
    },
    {
      "channel": 1,
      "note": 71,
      "start": 9.5467,
      "duration": 0.0153,
      "velocity": 97,
      "chip": "ym2612"
    },
    {
      "channel": 3,
      "note": 100,
      "start": 9.5476,
      "duration": 0.0151,
      "velocity": 78,
      "chip": "ym2612"
    },
    {
      "channel": 4,
      "note": 76,
      "start": 9.5597,
      "duration": 0.0161,
      "velocity": 97,
      "chip": "ym2612"
    },
    {
      "channel": 0,
      "note": 41,
      "start": 9.5649,
      "duration": 0.0452,
      "velocity": 74,
      "chip": "ym2612"
    },
    {
      "channel": 1,
      "note": 72,
      "start": 9.5654,
      "duration": 0.0157,
      "velocity": 97,
      "chip": "ym2612"
    },
    {
      "channel": 3,
      "note": 93,
      "start": 9.5664,
      "duration": 0.0153,
      "velocity": 78,
      "chip": "ym2612"
    },
    {
      "channel": 4,
      "note": 74,
      "start": 9.5789,
      "duration": 0.0152,
      "velocity": 97,
      "chip": "ym2612"
    },
    {
      "channel": 1,
      "note": 69,
      "start": 9.5842,
      "duration": 0.0261,
      "velocity": 97,
      "chip": "ym2612"
    },
    {
      "channel": 3,
      "note": 105,
      "start": 9.5851,
      "duration": 0.0259,
      "velocity": 78,
      "chip": "ym2612"
    },
    {
      "channel": 4,
      "note": 72,
      "start": 9.5973,
      "duration": 0.0457,
      "velocity": 97,
      "chip": "ym2612"
    },
    {
      "channel": 0,
      "note": 43,
      "start": 9.6271,
      "duration": 0.0457,
      "velocity": 74,
      "chip": "ym2612"
    },
    {
      "channel": 1,
      "note": 88,
      "start": 9.6312,
      "duration": 0.0171,
      "velocity": 97,
      "chip": "ym2612"
    },
    {
      "channel": 2,
      "note": 71,
      "start": 9.6317,
      "duration": 0.5533,
      "velocity": 94,
      "chip": "ym2612"
    },
    {
      "channel": 3,
      "note": 93,
      "start": 9.6326,
      "duration": 0.0162,
      "velocity": 78,
      "chip": "ym2612"
    },
    {
      "channel": 4,
      "note": 71,
      "start": 9.6461,
      "duration": 0.015,
      "velocity": 97,
      "chip": "ym2612"
    },
    {
      "channel": 1,
      "note": 93,
      "start": 9.6513,
      "duration": 0.0218,
      "velocity": 97,
      "chip": "ym2612"
    },
    {
      "channel": 3,
      "note": 100,
      "start": 9.6522,
      "duration": 0.0215,
      "velocity": 78,
      "chip": "ym2612"
    },
    {
      "channel": 4,
      "note": 72,
      "start": 9.6642,
      "duration": 0.077,
      "velocity": 97,
      "chip": "ym2612"
    },
    {
      "channel": 0,
      "note": 43,
      "start": 9.6898,
      "duration": 0.0334,
      "velocity": 74,
      "chip": "ym2612"
    },
    {
      "channel": 1,
      "note": 88,
      "start": 9.6904,
      "duration": 0.0836,
      "velocity": 97,
      "chip": "ym2612"
    },
    {
      "channel": 3,
      "note": 93,
      "start": 9.6914,
      "duration": 0.0832,
      "velocity": 78,
      "chip": "ym2612"
    },
    {
      "channel": 4,
      "note": 69,
      "start": 9.7643,
      "duration": 0.0378,
      "velocity": 97,
      "chip": "ym2612"
    },
    {
      "channel": 0,
      "note": 38,
      "start": 9.7907,
      "duration": 0.0571,
      "velocity": 74,
      "chip": "ym2612"
    },
    {
      "channel": 1,
      "note": 86,
      "start": 9.7913,
      "duration": 0.0161,
      "velocity": 97,
      "chip": "ym2612"
    },
    {
      "channel": 3,
      "note": 105,
      "start": 9.7922,
      "duration": 0.0159,
      "velocity": 78,
      "chip": "ym2612"
    },
    {
      "channel": 4,
      "note": 88,
      "start": 9.8053,
      "duration": 0.0172,
      "velocity": 97,
      "chip": "ym2612"
    },
    {
      "channel": 1,
      "note": 84,
      "start": 9.8116,
      "duration": 0.0164,
      "velocity": 97,
      "chip": "ym2612"
    },
    {
      "channel": 3,
      "note": 93,
      "start": 9.8128,
      "duration": 0.0158,
      "velocity": 78,
      "chip": "ym2612"
    },
    {
      "channel": 4,
      "note": 93,
      "start": 9.8256,
      "duration": 0.0166,
      "velocity": 97,
      "chip": "ym2612"
    },
    {
      "channel": 1,
      "note": 83,
      "start": 9.8314,
      "duration": 0.0167,
      "velocity": 97,
      "chip": "ym2612"
    },
    {
      "channel": 3,
      "note": 100,
      "start": 9.8323,
      "duration": 0.0164,
      "velocity": 78,
      "chip": "ym2612"
    },
    {
      "channel": 4,
      "note": 88,
      "start": 9.8456,
      "duration": 0.0186,
      "velocity": 97,
      "chip": "ym2612"
    },
    {
      "channel": 0,
      "note": 43,
      "start": 9.8513,
      "duration": 0.049,
      "velocity": 74,
      "chip": "ym2612"
    },
    {
      "channel": 1,
      "note": 84,
      "start": 9.8519,
      "duration": 0.0171,
      "velocity": 97,
      "chip": "ym2612"
    },
    {
      "channel": 3,
      "note": 93,
      "start": 9.8539,
      "duration": 0.0166,
      "velocity": 78,
      "chip": "ym2612"
    },
    {
      "channel": 4,
      "note": 86,
      "start": 9.8676,
      "duration": 0.0166,
      "velocity": 97,
      "chip": "ym2612"
    },
    {
      "channel": 1,
      "note": 81,
      "start": 9.8734,
      "duration": 0.0272,
      "velocity": 97,
      "chip": "ym2612"
    },
    {
      "channel": 3,
      "note": 105,
      "start": 9.8743,
      "duration": 0.0269,
      "velocity": 78,
      "chip": "ym2612"
    },
    {
      "channel": 4,
      "note": 84,
      "start": 9.8876,
      "duration": 0.0418,
      "velocity": 97,
      "chip": "ym2612"
    },
    {
      "channel": 0,
      "note": 43,
      "start": 9.9172,
      "duration": 0.0173,
      "velocity": 74,
      "chip": "ym2612"
    },
    {
      "channel": 1,
      "note": 76,
      "start": 9.9177,
      "duration": 0.0171,
      "velocity": 97,
      "chip": "ym2612"
    },
    {
      "channel": 3,
      "note": 93,
      "start": 9.9189,
      "duration": 0.0166,
      "velocity": 78,
      "chip": "ym2612"
    },
    {
      "channel": 4,
      "note": 83,
      "start": 9.9325,
      "duration": 0.0157,
      "velocity": 97,
      "chip": "ym2612"
    },
    {
      "channel": 0,
      "note": 55,
      "start": 9.9377,
      "duration": 0.0246,
      "velocity": 74,
      "chip": "ym2612"
    },
    {
      "channel": 1,
      "note": 81,
      "start": 9.9383,
      "duration": 0.0244,
      "velocity": 97,
      "chip": "ym2612"
    },
    {
      "channel": 3,
      "note": 100,
      "start": 9.9391,
      "duration": 0.0241,
      "velocity": 78,
      "chip": "ym2612"
    },
    {
      "channel": 4,
      "note": 84,
      "start": 9.9513,
      "duration": 0.0795,
      "velocity": 97,
      "chip": "ym2612"
    },
    {
      "channel": 0,
      "note": 43,
      "start": 9.9794,
      "duration": 0.0334,
      "velocity": 74,
      "chip": "ym2612"
    },
    {
      "channel": 1,
      "note": 76,
      "start": 9.9799,
      "duration": 0.0837,
      "velocity": 97,
      "chip": "ym2612"
    },
    {
      "channel": 3,
      "note": 93,
      "start": 9.9809,
      "duration": 0.0832,
      "velocity": 78,
      "chip": "ym2612"
    },
    {
      "channel": 4,
      "note": 81,
      "start": 10.0478,
      "duration": 0.0439,
      "velocity": 97,
      "chip": "ym2612"
    },
    {
      "channel": 0,
      "note": 38,
      "start": 10.0803,
      "duration": 0.0554,
      "velocity": 74,
      "chip": "ym2612"
    },
    {
      "channel": 1,
      "note": 74,
      "start": 10.0808,
      "duration": 0.0161,
      "velocity": 97,
      "chip": "ym2612"
    },
    {
      "channel": 3,
      "note": 105,
      "start": 10.0817,
      "duration": 0.0158,
      "velocity": 78,
      "chip": "ym2612"
    },
    {
      "channel": 4,
      "note": 76,
      "start": 10.0947,
      "duration": 0.0171,
      "velocity": 97,
      "chip": "ym2612"
    },
    {
      "channel": 1,
      "note": 72,
      "start": 10.101,
      "duration": 0.0161,
      "velocity": 97,
      "chip": "ym2612"
    },
    {
      "channel": 3,
      "note": 93,
      "start": 10.1022,
      "duration": 0.0155,
      "velocity": 78,
      "chip": "ym2612"
    },
    {
      "channel": 4,
      "note": 81,
      "start": 10.1149,
      "duration": 0.0155,
      "velocity": 97,
      "chip": "ym2612"
    },
    {
      "channel": 1,
      "note": 71,
      "start": 10.1203,
      "duration": 0.0156,
      "velocity": 97,
      "chip": "ym2612"
    },
    {
      "channel": 3,
      "note": 100,
      "start": 10.1212,
      "duration": 0.0154,
      "velocity": 78,
      "chip": "ym2612"
    },
    {
      "channel": 4,
      "note": 76,
      "start": 10.1336,
      "duration": 0.0165,
      "velocity": 97,
      "chip": "ym2612"
    },
    {
      "channel": 0,
      "note": 43,
      "start": 10.1389,
      "duration": 0.0455,
      "velocity": 74,
      "chip": "ym2612"
    },
    {
      "channel": 1,
      "note": 72,
      "start": 10.1395,
      "duration": 0.0159,
      "velocity": 97,
      "chip": "ym2612"
    },
    {
      "channel": 3,
      "note": 93,
      "start": 10.1405,
      "duration": 0.0155,
      "velocity": 78,
      "chip": "ym2612"
    },
    {
      "channel": 4,
      "note": 74,
      "start": 10.1533,
      "duration": 0.0153,
      "velocity": 97,
      "chip": "ym2612"
    },
    {
      "channel": 1,
      "note": 69,
      "start": 10.1586,
      "duration": 0.0261,
      "velocity": 97,
      "chip": "ym2612"
    },
    {
      "channel": 3,
      "note": 105,
      "start": 10.1595,
      "duration": 0.0259,
      "velocity": 78,
      "chip": "ym2612"
    },
    {
      "channel": 4,
      "note": 72,
      "start": 10.1717,
      "duration": 0.0456,
      "velocity": 97,
      "chip": "ym2612"
    },
    {
      "channel": 0,
      "note": 41,
      "start": 10.2016,
      "duration": 0.0452,
      "velocity": 74,
      "chip": "ym2612"
    },
    {
      "channel": 1,
      "note": 88,
      "start": 10.2056,
      "duration": 0.0168,
      "velocity": 97,
      "chip": "ym2612"
    },
    {
      "channel": 2,
      "note": 72,
      "start": 10.2062,
      "duration": 0.551,
      "velocity": 94,
      "chip": "ym2612"
    },
    {
      "channel": 3,
      "note": 93,
      "start": 10.2071,
      "duration": 0.0159,
      "velocity": 78,
      "chip": "ym2612"
    },
    {
      "channel": 4,
      "note": 71,
      "start": 10.2203,
      "duration": 0.015,
      "velocity": 97,
      "chip": "ym2612"
    },
    {
      "channel": 1,
      "note": 93,
      "start": 10.2255,
      "duration": 0.0216,
      "velocity": 97,
      "chip": "ym2612"
    },
    {
      "channel": 3,
      "note": 100,
      "start": 10.2263,
      "duration": 0.0213,
      "velocity": 78,
      "chip": "ym2612"
    },
    {
      "channel": 4,
      "note": 72,
      "start": 10.2383,
      "duration": 0.0769,
      "velocity": 97,
      "chip": "ym2612"
    },
    {
      "channel": 0,
      "note": 41,
      "start": 10.2638,
      "duration": 0.0334,
      "velocity": 74,
      "chip": "ym2612"
    },
    {
      "channel": 1,
      "note": 88,
      "start": 10.2644,
      "duration": 0.0837,
      "velocity": 97,
      "chip": "ym2612"
    },
    {
      "channel": 3,
      "note": 93,
      "start": 10.2654,
      "duration": 0.0832,
      "velocity": 78,
      "chip": "ym2612"
    },
    {
      "channel": 4,
      "note": 69,
      "start": 10.3373,
      "duration": 0.0386,
      "velocity": 97,
      "chip": "ym2612"
    },
    {
      "channel": 0,
      "note": 36,
      "start": 10.3648,
      "duration": 0.0546,
      "velocity": 74,
      "chip": "ym2612"
    },
    {
      "channel": 1,
      "note": 86,
      "start": 10.3653,
      "duration": 0.0159,
      "velocity": 97,
      "chip": "ym2612"
    },
    {
      "channel": 3,
      "note": 105,
      "start": 10.3661,
      "duration": 0.0156,
      "velocity": 78,
      "chip": "ym2612"
    },
    {
      "channel": 4,
      "note": 88,
      "start": 10.379,
      "duration": 0.0169,
      "velocity": 97,
      "chip": "ym2612"
    },
    {
      "channel": 1,
      "note": 84,
      "start": 10.3854,
      "duration": 0.0158,
      "velocity": 97,
      "chip": "ym2612"
    },
    {
      "channel": 3,
      "note": 93,
      "start": 10.3865,
      "duration": 0.0152,
      "velocity": 78,
      "chip": "ym2612"
    },
    {
      "channel": 4,
      "note": 93,
      "start": 10.399,
      "duration": 0.0152,
      "velocity": 97,
      "chip": "ym2612"
    },
    {
      "channel": 1,
      "note": 83,
      "start": 10.4042,
      "duration": 0.0154,
      "velocity": 97,
      "chip": "ym2612"
    },
    {
      "channel": 3,
      "note": 100,
      "start": 10.4051,
      "duration": 0.0151,
      "velocity": 78,
      "chip": "ym2612"
    },
    {
      "channel": 4,
      "note": 88,
      "start": 10.4173,
      "duration": 0.0161,
      "velocity": 97,
      "chip": "ym2612"
    },
    {
      "channel": 0,
      "note": 41,
      "start": 10.4225,
      "duration": 0.0449,
      "velocity": 74,
      "chip": "ym2612"
    },
    {
      "channel": 1,
      "note": 84,
      "start": 10.423,
      "duration": 0.0157,
      "velocity": 97,
      "chip": "ym2612"
    },
    {
      "channel": 3,
      "note": 93,
      "start": 10.4241,
      "duration": 0.0152,
      "velocity": 78,
      "chip": "ym2612"
    },
    {
      "channel": 4,
      "note": 86,
      "start": 10.4366,
      "duration": 0.0152,
      "velocity": 97,
      "chip": "ym2612"
    },
    {
      "channel": 1,
      "note": 81,
      "start": 10.4418,
      "duration": 0.0259,
      "velocity": 97,
      "chip": "ym2612"
    },
    {
      "channel": 3,
      "note": 105,
      "start": 10.4427,
      "duration": 0.0256,
      "velocity": 78,
      "chip": "ym2612"
    },
    {
      "channel": 4,
      "note": 84,
      "start": 10.4549,
      "duration": 0.0417,
      "velocity": 97,
      "chip": "ym2612"
    },
    {
      "channel": 0,
      "note": 41,
      "start": 10.4845,
      "duration": 0.0173,
      "velocity": 74,
      "chip": "ym2612"
    },
    {
      "channel": 1,
      "note": 76,
      "start": 10.485,
      "duration": 0.017,
      "velocity": 97,
      "chip": "ym2612"
    },
    {
      "channel": 3,
      "note": 93,
      "start": 10.4862,
      "duration": 0.0165,
      "velocity": 78,
      "chip": "ym2612"
    },
    {
      "channel": 4,
      "note": 83,
      "start": 10.4998,
      "duration": 0.0159,
      "velocity": 97,
      "chip": "ym2612"
    },
    {
      "channel": 0,
      "note": 53,
      "start": 10.505,
      "duration": 0.0258,
      "velocity": 74,
      "chip": "ym2612"
    },
    {
      "channel": 1,
      "note": 81,
      "start": 10.5055,
      "duration": 0.0255,
      "velocity": 97,
      "chip": "ym2612"
    },
    {
      "channel": 3,
      "note": 100,
      "start": 10.5064,
      "duration": 0.0252,
      "velocity": 78,
      "chip": "ym2612"
    },
    {
      "channel": 4,
      "note": 84,
      "start": 10.5188,
      "duration": 0.0805,
      "velocity": 97,
      "chip": "ym2612"
    },
    {
      "channel": 0,
      "note": 41,
      "start": 10.5478,
      "duration": 0.0334,
      "velocity": 74,
      "chip": "ym2612"
    },
    {
      "channel": 1,
      "note": 76,
      "start": 10.5483,
      "duration": 0.0836,
      "velocity": 97,
      "chip": "ym2612"
    },
    {
      "channel": 3,
      "note": 93,
      "start": 10.5494,
      "duration": 0.0832,
      "velocity": 78,
      "chip": "ym2612"
    },
    {
      "channel": 4,
      "note": 81,
      "start": 10.6162,
      "duration": 0.0457,
      "velocity": 97,
      "chip": "ym2612"
    },
    {
      "channel": 0,
      "note": 36,
      "start": 10.6487,
      "duration": 0.059,
      "velocity": 74,
      "chip": "ym2612"
    },
    {
      "channel": 1,
      "note": 74,
      "start": 10.6493,
      "duration": 0.0174,
      "velocity": 97,
      "chip": "ym2612"
    },
    {
      "channel": 3,
      "note": 105,
      "start": 10.6512,
      "duration": 0.0171,
      "velocity": 78,
      "chip": "ym2612"
    },
    {
      "channel": 4,
      "note": 76,
      "start": 10.6653,
      "duration": 0.0182,
      "velocity": 97,
      "chip": "ym2612"
    },
    {
      "channel": 1,
      "note": 72,
      "start": 10.6721,
      "duration": 0.017,
      "velocity": 97,
      "chip": "ym2612"
    },
    {
      "channel": 3,
      "note": 93,
      "start": 10.6733,
      "duration": 0.0164,
      "velocity": 78,
      "chip": "ym2612"
    },
    {
      "channel": 4,
      "note": 81,
      "start": 10.6869,
      "duration": 0.0154,
      "velocity": 97,
      "chip": "ym2612"
    },
    {
      "channel": 1,
      "note": 71,
      "start": 10.6925,
      "duration": 0.0156,
      "velocity": 97,
      "chip": "ym2612"
    },
    {
      "channel": 3,
      "note": 100,
      "start": 10.6934,
      "duration": 0.0153,
      "velocity": 78,
      "chip": "ym2612"
    },
    {
      "channel": 4,
      "note": 76,
      "start": 10.7058,
      "duration": 0.0167,
      "velocity": 97,
      "chip": "ym2612"
    },
    {
      "channel": 0,
      "note": 41,
      "start": 10.711,
      "duration": 0.0456,
      "velocity": 74,
      "chip": "ym2612"
    },
    {
      "channel": 1,
      "note": 72,
      "start": 10.7115,
      "duration": 0.0162,
      "velocity": 97,
      "chip": "ym2612"
    },
    {
      "channel": 3,
      "note": 93,
      "start": 10.7125,
      "duration": 0.0158,
      "velocity": 78,
      "chip": "ym2612"
    },
    {
      "channel": 4,
      "note": 74,
      "start": 10.7256,
      "duration": 0.0152,
      "velocity": 97,
      "chip": "ym2612"
    },
    {
      "channel": 1,
      "note": 69,
      "start": 10.7308,
      "duration": 0.026,
      "velocity": 97,
      "chip": "ym2612"
    },
    {
      "channel": 3,
      "note": 105,
      "start": 10.7317,
      "duration": 0.0257,
      "velocity": 78,
      "chip": "ym2612"
    },
    {
      "channel": 4,
      "note": 72,
      "start": 10.7439,
      "duration": 0.042,
      "velocity": 97,
      "chip": "ym2612"
    },
    {
      "channel": 0,
      "note": 43,
      "start": 10.7736,
      "duration": 0.0461,
      "velocity": 74,
      "chip": "ym2612"
    },
    {
      "channel": 1,
      "note": 79,
      "start": 10.7744,
      "duration": 0.0169,
      "velocity": 97,
      "chip": "ym2612"
    },
    {
      "channel": 2,
      "note": 71,
      "start": 10.7749,
      "duration": 0.0166,
      "velocity": 94,
      "chip": "ym2612"
    },
    {
      "channel": 3,
      "note": 93,
      "start": 10.7759,
      "duration": 0.016,
      "velocity": 78,
      "chip": "ym2612"
    },
    {
      "channel": 4,
      "note": 71,
      "start": 10.7891,
      "duration": 0.0156,
      "velocity": 97,
      "chip": "ym2612"
    },
    {
      "channel": 1,
      "note": 81,
      "start": 10.7945,
      "duration": 0.0255,
      "velocity": 97,
      "chip": "ym2612"
    },
    {
      "channel": 2,
      "note": 72,
      "start": 10.795,
      "duration": 0.0253,
      "velocity": 94,
      "chip": "ym2612"
    },
    {
      "channel": 3,
      "note": 100,
      "start": 10.7956,
      "duration": 0.0249,
      "velocity": 78,
      "chip": "ym2612"
    },
    {
      "channel": 4,
      "note": 72,
      "start": 10.8079,
      "duration": 0.0803,
      "velocity": 97,
      "chip": "ym2612"
    },
    {
      "channel": 0,
      "note": 43,
      "start": 10.8367,
      "duration": 0.0334,
      "velocity": 74,
      "chip": "ym2612"
    },
    {
      "channel": 1,
      "note": 83,
      "start": 10.8373,
      "duration": 0.0837,
      "velocity": 97,
      "chip": "ym2612"
    },
    {
      "channel": 2,
      "note": 74,
      "start": 10.8378,
      "duration": 0.0834,
      "velocity": 94,
      "chip": "ym2612"
    },
    {
      "channel": 3,
      "note": 93,
      "start": 10.8386,
      "duration": 0.0829,
      "velocity": 78,
      "chip": "ym2612"
    },
    {
      "channel": 4,
      "note": 69,
      "start": 10.9054,
      "duration": 0.0439,
      "velocity": 97,
      "chip": "ym2612"
    },
    {
      "channel": 0,
      "note": 38,
      "start": 10.9377,
      "duration": 0.0551,
      "velocity": 74,
      "chip": "ym2612"
    },
    {
      "channel": 1,
      "note": 84,
      "start": 10.9383,
      "duration": 0.0164,
      "velocity": 97,
      "chip": "ym2612"
    },
    {
      "channel": 2,
      "note": 76,
      "start": 10.9388,
      "duration": 0.0161,
      "velocity": 94,
      "chip": "ym2612"
    },
    {
      "channel": 3,
      "note": 105,
      "start": 10.9394,
      "duration": 0.0158,
      "velocity": 78,
      "chip": "ym2612"
    },
    {
      "channel": 4,
      "note": 79,
      "start": 10.9525,
      "duration": 0.0168,
      "velocity": 97,
      "chip": "ym2612"
    },
    {
      "channel": 1,
      "note": 86,
      "start": 10.9585,
      "duration": 0.016,
      "velocity": 97,
      "chip": "ym2612"
    },
    {
      "channel": 2,
      "note": 79,
      "start": 10.9591,
      "duration": 0.0157,
      "velocity": 94,
      "chip": "ym2612"
    },
    {
      "channel": 3,
      "note": 93,
      "start": 10.96,
      "duration": 0.0151,
      "velocity": 78,
      "chip": "ym2612"
    },
    {
      "channel": 4,
      "note": 81,
      "start": 10.9724,
      "duration": 0.0154,
      "velocity": 97,
      "chip": "ym2612"
    },
    {
      "channel": 1,
      "note": 83,
      "start": 10.9776,
      "duration": 0.0155,
      "velocity": 97,
      "chip": "ym2612"
    },
    {
      "channel": 2,
      "note": 74,
      "start": 10.9782,
      "duration": 0.0152,
      "velocity": 94,
      "chip": "ym2612"
    },
    {
      "channel": 3,
      "note": 100,
      "start": 10.9788,
      "duration": 0.0149,
      "velocity": 78,
      "chip": "ym2612"
    },
    {
      "channel": 4,
      "note": 83,
      "start": 10.9908,
      "duration": 0.0178,
      "velocity": 97,
      "chip": "ym2612"
    },
    {
      "channel": 0,
      "note": 43,
      "start": 10.9971,
      "duration": 0.0456,
      "velocity": 74,
      "chip": "ym2612"
    },
    {
      "channel": 1,
      "note": 91,
      "start": 10.9976,
      "duration": 0.0163,
      "velocity": 97,
      "chip": "ym2612"
    },
    {
      "channel": 2,
      "note": 83,
      "start": 10.9981,
      "duration": 0.016,
      "velocity": 94,
      "chip": "ym2612"
    },
    {
      "channel": 3,
      "note": 93,
      "start": 10.9989,
      "duration": 0.0156,
      "velocity": 78,
      "chip": "ym2612"
    },
    {
      "channel": 4,
      "note": 84,
      "start": 11.0117,
      "duration": 0.0154,
      "velocity": 97,
      "chip": "ym2612"
    },
    {
      "channel": 1,
      "note": 83,
      "start": 11.017,
      "duration": 0.026,
      "velocity": 97,
      "chip": "ym2612"
    },
    {
      "channel": 2,
      "note": 79,
      "start": 11.0176,
      "duration": 0.0257,
      "velocity": 94,
      "chip": "ym2612"
    },
    {
      "channel": 3,
      "note": 105,
      "start": 11.0182,
      "duration": 0.0254,
      "velocity": 78,
      "chip": "ym2612"
    },
    {
      "channel": 4,
      "note": 86,
      "start": 11.0302,
      "duration": 0.0416,
      "velocity": 97,
      "chip": "ym2612"
    },
    {
      "channel": 0,
      "note": 43,
      "start": 11.0597,
      "duration": 0.0172,
      "velocity": 74,
      "chip": "ym2612"
    },
    {
      "channel": 1,
      "note": 95,
      "start": 11.0603,
      "duration": 0.2151,
      "velocity": 97,
      "chip": "ym2612"
    },
    {
      "channel": 2,
      "note": 91,
      "start": 11.0608,
      "duration": 0.2148,
      "velocity": 94,
      "chip": "ym2612"
    },
    {
      "channel": 3,
      "note": 93,
      "start": 11.0617,
      "duration": 0.016,
      "velocity": 78,
      "chip": "ym2612"
    },
    {
      "channel": 4,
      "note": 83,
      "start": 11.0749,
      "duration": 0.015,
      "velocity": 97,
      "chip": "ym2612"
    },
    {
      "channel": 0,
      "note": 55,
      "start": 11.0799,
      "duration": 0.0255,
      "velocity": 74,
      "chip": "ym2612"
    },
    {
      "channel": 3,
      "note": 100,
      "start": 11.081,
      "duration": 0.0252,
      "velocity": 78,
      "chip": "ym2612"
    },
    {
      "channel": 4,
      "note": 91,
      "start": 11.093,
      "duration": 0.0809,
      "velocity": 97,
      "chip": "ym2612"
    },
    {
      "channel": 0,
      "note": 43,
      "start": 11.1225,
      "duration": 0.0334,
      "velocity": 74,
      "chip": "ym2612"
    },
    {
      "channel": 3,
      "note": 93,
      "start": 11.1237,
      "duration": 0.0834,
      "velocity": 78,
      "chip": "ym2612"
    },
    {
      "channel": 4,
      "note": 83,
      "start": 11.1908,
      "duration": 0.171,
      "velocity": 97,
      "chip": "ym2612"
    },
    {
      "channel": 0,
      "note": 38,
      "start": 11.2234,
      "duration": 0.0517,
      "velocity": 74,
      "chip": "ym2612"
    },
    {
      "channel": 3,
      "note": 105,
      "start": 11.2245,
      "duration": 0.0151,
      "velocity": 78,
      "chip": "ym2612"
    },
    {
      "channel": 3,
      "note": 93,
      "start": 11.2431,
      "duration": 0.0149,
      "velocity": 78,
      "chip": "ym2612"
    },
    {
      "channel": 3,
      "note": 100,
      "start": 11.2611,
      "duration": 0.0149,
      "velocity": 78,
      "chip": "ym2612"
    },
    {
      "channel": 0,
      "note": 43,
      "start": 11.2792,
      "duration": 0.0477,
      "velocity": 74,
      "chip": "ym2612"
    },
    {
      "channel": 1,
      "note": 91,
      "start": 11.2797,
      "duration": 0.0474,
      "velocity": 97,
      "chip": "ym2612"
    },
    {
      "channel": 2,
      "note": 86,
      "start": 11.2802,
      "duration": 0.0471,
      "velocity": 94,
      "chip": "ym2612"
    },
    {
      "channel": 3,
      "note": 93,
      "start": 11.281,
      "duration": 0.0157,
      "velocity": 78,
      "chip": "ym2612"
    },
    {
      "channel": 3,
      "note": 105,
      "start": 11.3001,
      "duration": 0.0276,
      "velocity": 78,
      "chip": "ym2612"
    },
    {
      "channel": 0,
      "note": 41,
      "start": 11.344,
      "duration": 0.049,
      "velocity": 74,
      "chip": "ym2612"
    },
    {
      "channel": 1,
      "note": 88,
      "start": 11.3493,
      "duration": 0.0174,
      "velocity": 97,
      "chip": "ym2612"
    },
    {
      "channel": 2,
      "note": 69,
      "start": 11.3498,
      "duration": 0.5486,
      "velocity": 94,
      "chip": "ym2612"
    },
    {
      "channel": 3,
      "note": 93,
      "start": 11.3508,
      "duration": 0.0175,
      "velocity": 78,
      "chip": "ym2612"
    },
    {
      "channel": 4,
      "note": 95,
      "start": 11.3653,
      "duration": 0.0957,
      "velocity": 97,
      "chip": "ym2612"
    },
    {
      "channel": 1,
      "note": 93,
      "start": 11.3711,
      "duration": 0.0223,
      "velocity": 97,
      "chip": "ym2612"
    },
    {
      "channel": 3,
      "note": 100,
      "start": 11.3719,
      "duration": 0.022,
      "velocity": 78,
      "chip": "ym2612"
    },
    {
      "channel": 0,
      "note": 41,
      "start": 11.41,
      "duration": 0.0332,
      "velocity": 74,
      "chip": "ym2612"
    },
    {
      "channel": 1,
      "note": 88,
      "start": 11.4105,
      "duration": 0.083,
      "velocity": 97,
      "chip": "ym2612"
    },
    {
      "channel": 3,
      "note": 93,
      "start": 11.4115,
      "duration": 0.0825,
      "velocity": 78,
      "chip": "ym2612"
    },
    {
      "channel": 4,
      "note": 91,
      "start": 11.483,
      "duration": 0.0382,
      "velocity": 97,
      "chip": "ym2612"
    },
    {
      "channel": 0,
      "note": 36,
      "start": 11.5101,
      "duration": 0.0548,
      "velocity": 74,
      "chip": "ym2612"
    },
    {
      "channel": 1,
      "note": 86,
      "start": 11.5106,
      "duration": 0.0159,
      "velocity": 97,
      "chip": "ym2612"
    },
    {
      "channel": 3,
      "note": 105,
      "start": 11.5115,
      "duration": 0.0156,
      "velocity": 78,
      "chip": "ym2612"
    },
    {
      "channel": 4,
      "note": 88,
      "start": 11.5243,
      "duration": 0.017,
      "velocity": 97,
      "chip": "ym2612"
    },
    {
      "channel": 1,
      "note": 84,
      "start": 11.5307,
      "duration": 0.0159,
      "velocity": 97,
      "chip": "ym2612"
    },
    {
      "channel": 3,
      "note": 93,
      "start": 11.5319,
      "duration": 0.0153,
      "velocity": 78,
      "chip": "ym2612"
    },
    {
      "channel": 4,
      "note": 93,
      "start": 11.5444,
      "duration": 0.0153,
      "velocity": 97,
      "chip": "ym2612"
    },
    {
      "channel": 1,
      "note": 83,
      "start": 11.5497,
      "duration": 0.0155,
      "velocity": 97,
      "chip": "ym2612"
    },
    {
      "channel": 3,
      "note": 100,
      "start": 11.5506,
      "duration": 0.0151,
      "velocity": 78,
      "chip": "ym2612"
    },
    {
      "channel": 4,
      "note": 88,
      "start": 11.5628,
      "duration": 0.0164,
      "velocity": 97,
      "chip": "ym2612"
    },
    {
      "channel": 0,
      "note": 41,
      "start": 11.5681,
      "duration": 0.0458,
      "velocity": 74,
      "chip": "ym2612"
    },
    {
      "channel": 1,
      "note": 84,
      "start": 11.5686,
      "duration": 0.016,
      "velocity": 97,
      "chip": "ym2612"
    },
    {
      "channel": 3,
      "note": 93,
      "start": 11.5697,
      "duration": 0.0155,
      "velocity": 78,
      "chip": "ym2612"
    },
    {
      "channel": 4,
      "note": 86,
      "start": 11.5824,
      "duration": 0.0156,
      "velocity": 97,
      "chip": "ym2612"
    },
    {
      "channel": 1,
      "note": 81,
      "start": 11.5878,
      "duration": 0.0264,
      "velocity": 97,
      "chip": "ym2612"
    },
    {
      "channel": 3,
      "note": 105,
      "start": 11.5887,
      "duration": 0.0261,
      "velocity": 78,
      "chip": "ym2612"
    },
    {
      "channel": 4,
      "note": 84,
      "start": 11.6012,
      "duration": 0.0419,
      "velocity": 97,
      "chip": "ym2612"
    },
    {
      "channel": 0,
      "note": 41,
      "start": 11.6309,
      "duration": 0.0173,
      "velocity": 74,
      "chip": "ym2612"
    },
    {
      "channel": 1,
      "note": 76,
      "start": 11.6315,
      "duration": 0.017,
      "velocity": 97,
      "chip": "ym2612"
    },
    {
      "channel": 3,
      "note": 93,
      "start": 11.6327,
      "duration": 0.0165,
      "velocity": 78,
      "chip": "ym2612"
    },
    {
      "channel": 4,
      "note": 83,
      "start": 11.6463,
      "duration": 0.0157,
      "velocity": 97,
      "chip": "ym2612"
    },
    {
      "channel": 0,
      "note": 53,
      "start": 11.6515,
      "duration": 0.0255,
      "velocity": 74,
      "chip": "ym2612"
    },
    {
      "channel": 1,
      "note": 81,
      "start": 11.652,
      "duration": 0.0252,
      "velocity": 97,
      "chip": "ym2612"
    },
    {
      "channel": 3,
      "note": 100,
      "start": 11.6529,
      "duration": 0.0249,
      "velocity": 78,
      "chip": "ym2612"
    },
    {
      "channel": 4,
      "note": 84,
      "start": 11.6651,
      "duration": 0.0804,
      "velocity": 97,
      "chip": "ym2612"
    },
    {
      "channel": 0,
      "note": 41,
      "start": 11.694,
      "duration": 0.0334,
      "velocity": 74,
      "chip": "ym2612"
    },
    {
      "channel": 1,
      "note": 76,
      "start": 11.6945,
      "duration": 0.0837,
      "velocity": 97,
      "chip": "ym2612"
    },
    {
      "channel": 3,
      "note": 93,
      "start": 11.6956,
      "duration": 0.0832,
      "velocity": 78,
      "chip": "ym2612"
    },
    {
      "channel": 4,
      "note": 81,
      "start": 11.7624,
      "duration": 0.0438,
      "velocity": 97,
      "chip": "ym2612"
    },
    {
      "channel": 0,
      "note": 36,
      "start": 11.7949,
      "duration": 0.0546,
      "velocity": 74,
      "chip": "ym2612"
    },
    {
      "channel": 1,
      "note": 74,
      "start": 11.7955,
      "duration": 0.016,
      "velocity": 97,
      "chip": "ym2612"
    },
    {
      "channel": 3,
      "note": 105,
      "start": 11.7963,
      "duration": 0.0157,
      "velocity": 78,
      "chip": "ym2612"
    },
    {
      "channel": 4,
      "note": 76,
      "start": 11.8093,
      "duration": 0.0167,
      "velocity": 97,
      "chip": "ym2612"
    },
    {
      "channel": 1,
      "note": 72,
      "start": 11.8155,
      "duration": 0.0159,
      "velocity": 97,
      "chip": "ym2612"
    },
    {
      "channel": 3,
      "note": 93,
      "start": 11.8166,
      "duration": 0.0153,
      "velocity": 78,
      "chip": "ym2612"
    },
    {
      "channel": 4,
      "note": 81,
      "start": 11.8292,
      "duration": 0.0152,
      "velocity": 97,
      "chip": "ym2612"
    },
    {
      "channel": 1,
      "note": 71,
      "start": 11.8345,
      "duration": 0.0153,
      "velocity": 97,
      "chip": "ym2612"
    },
    {
      "channel": 3,
      "note": 100,
      "start": 11.8354,
      "duration": 0.015,
      "velocity": 78,
      "chip": "ym2612"
    },
    {
      "channel": 4,
      "note": 76,
      "start": 11.8475,
      "duration": 0.0162,
      "velocity": 97,
      "chip": "ym2612"
    },
    {
      "channel": 0,
      "note": 41,
      "start": 11.8527,
      "duration": 0.0452,
      "velocity": 74,
      "chip": "ym2612"
    },
    {
      "channel": 1,
      "note": 72,
      "start": 11.8532,
      "duration": 0.0157,
      "velocity": 97,
      "chip": "ym2612"
    },
    {
      "channel": 3,
      "note": 93,
      "start": 11.8543,
      "duration": 0.0153,
      "velocity": 78,
      "chip": "ym2612"
    },
    {
      "channel": 4,
      "note": 74,
      "start": 11.8668,
      "duration": 0.0152,
      "velocity": 97,
      "chip": "ym2612"
    },
    {
      "channel": 1,
      "note": 69,
      "start": 11.872,
      "duration": 0.0261,
      "velocity": 97,
      "chip": "ym2612"
    },
    {
      "channel": 3,
      "note": 105,
      "start": 11.8729,
      "duration": 0.0259,
      "velocity": 78,
      "chip": "ym2612"
    },
    {
      "channel": 4,
      "note": 72,
      "start": 11.8851,
      "duration": 0.0457,
      "velocity": 97,
      "chip": "ym2612"
    },
    {
      "channel": 0,
      "note": 43,
      "start": 11.9149,
      "duration": 0.0456,
      "velocity": 74,
      "chip": "ym2612"
    },
    {
      "channel": 1,
      "note": 88,
      "start": 11.919,
      "duration": 0.0171,
      "velocity": 97,
      "chip": "ym2612"
    },
    {
      "channel": 2,
      "note": 71,
      "start": 11.9195,
      "duration": 0.5522,
      "velocity": 94,
      "chip": "ym2612"
    },
    {
      "channel": 3,
      "note": 93,
      "start": 11.9215,
      "duration": 0.0151,
      "velocity": 78,
      "chip": "ym2612"
    },
    {
      "channel": 4,
      "note": 71,
      "start": 11.9339,
      "duration": 0.015,
      "velocity": 97,
      "chip": "ym2612"
    },
    {
      "channel": 1,
      "note": 93,
      "start": 11.9391,
      "duration": 0.0217,
      "velocity": 97,
      "chip": "ym2612"
    },
    {
      "channel": 3,
      "note": 100,
      "start": 11.94,
      "duration": 0.0214,
      "velocity": 78,
      "chip": "ym2612"
    },
    {
      "channel": 4,
      "note": 72,
      "start": 11.952,
      "duration": 0.077,
      "velocity": 97,
      "chip": "ym2612"
    },
    {
      "channel": 0,
      "note": 43,
      "start": 11.9776,
      "duration": 0.0334,
      "velocity": 74,
      "chip": "ym2612"
    },
    {
      "channel": 1,
      "note": 88,
      "start": 11.9781,
      "duration": 0.0836,
      "velocity": 97,
      "chip": "ym2612"
    },
    {
      "channel": 3,
      "note": 93,
      "start": 11.9791,
      "duration": 0.0832,
      "velocity": 78,
      "chip": "ym2612"
    },
    {
      "channel": 4,
      "note": 69,
      "start": 12.0521,
      "duration": 0.0378,
      "velocity": 97,
      "chip": "ym2612"
    },
    {
      "channel": 0,
      "note": 38,
      "start": 12.0785,
      "duration": 0.0585,
      "velocity": 74,
      "chip": "ym2612"
    },
    {
      "channel": 1,
      "note": 86,
      "start": 12.079,
      "duration": 0.0164,
      "velocity": 97,
      "chip": "ym2612"
    },
    {
      "channel": 3,
      "note": 105,
      "start": 12.0799,
      "duration": 0.0161,
      "velocity": 78,
      "chip": "ym2612"
    },
    {
      "channel": 4,
      "note": 88,
      "start": 12.093,
      "duration": 0.0183,
      "velocity": 97,
      "chip": "ym2612"
    },
    {
      "channel": 1,
      "note": 84,
      "start": 12.0999,
      "duration": 0.0172,
      "velocity": 97,
      "chip": "ym2612"
    },
    {
      "channel": 3,
      "note": 93,
      "start": 12.101,
      "duration": 0.0166,
      "velocity": 78,
      "chip": "ym2612"
    },
    {
      "channel": 4,
      "note": 93,
      "start": 12.1157,
      "duration": 0.0166,
      "velocity": 97,
      "chip": "ym2612"
    },
    {
      "channel": 1,
      "note": 83,
      "start": 12.1205,
      "duration": 0.0168,
      "velocity": 97,
      "chip": "ym2612"
    },
    {
      "channel": 3,
      "note": 100,
      "start": 12.1224,
      "duration": 0.0165,
      "velocity": 78,
      "chip": "ym2612"
    },
    {
      "channel": 4,
      "note": 88,
      "start": 12.1358,
      "duration": 0.0175,
      "velocity": 97,
      "chip": "ym2612"
    },
    {
      "channel": 0,
      "note": 43,
      "start": 12.1404,
      "duration": 0.0461,
      "velocity": 74,
      "chip": "ym2612"
    },
    {
      "channel": 1,
      "note": 84,
      "start": 12.142,
      "duration": 0.0165,
      "velocity": 97,
      "chip": "ym2612"
    },
    {
      "channel": 3,
      "note": 93,
      "start": 12.1431,
      "duration": 0.0161,
      "velocity": 78,
      "chip": "ym2612"
    },
    {
      "channel": 4,
      "note": 86,
      "start": 12.1564,
      "duration": 0.0152,
      "velocity": 97,
      "chip": "ym2612"
    },
    {
      "channel": 1,
      "note": 81,
      "start": 12.1617,
      "duration": 0.0251,
      "velocity": 97,
      "chip": "ym2612"
    },
    {
      "channel": 3,
      "note": 105,
      "start": 12.1625,
      "duration": 0.0248,
      "velocity": 78,
      "chip": "ym2612"
    },
    {
      "channel": 4,
      "note": 84,
      "start": 12.1747,
      "duration": 0.0407,
      "velocity": 97,
      "chip": "ym2612"
    },
    {
      "channel": 0,
      "note": 43,
      "start": 12.2034,
      "duration": 0.0171,
      "velocity": 74,
      "chip": "ym2612"
    },
    {
      "channel": 1,
      "note": 76,
      "start": 12.204,
      "duration": 0.0168,
      "velocity": 97,
      "chip": "ym2612"
    },
    {
      "channel": 3,
      "note": 93,
      "start": 12.2051,
      "duration": 0.0163,
      "velocity": 78,
      "chip": "ym2612"
    },
    {
      "channel": 4,
      "note": 83,
      "start": 12.2185,
      "duration": 0.0157,
      "velocity": 97,
      "chip": "ym2612"
    },
    {
      "channel": 0,
      "note": 55,
      "start": 12.2238,
      "duration": 0.0255,
      "velocity": 74,
      "chip": "ym2612"
    },
    {
      "channel": 1,
      "note": 81,
      "start": 12.2243,
      "duration": 0.0252,
      "velocity": 97,
      "chip": "ym2612"
    },
    {
      "channel": 3,
      "note": 100,
      "start": 12.2252,
      "duration": 0.0249,
      "velocity": 78,
      "chip": "ym2612"
    },
    {
      "channel": 4,
      "note": 84,
      "start": 12.2373,
      "duration": 0.0805,
      "velocity": 97,
      "chip": "ym2612"
    },
    {
      "channel": 0,
      "note": 43,
      "start": 12.2663,
      "duration": 0.0334,
      "velocity": 74,
      "chip": "ym2612"
    },
    {
      "channel": 1,
      "note": 76,
      "start": 12.2668,
      "duration": 0.0837,
      "velocity": 97,
      "chip": "ym2612"
    },
    {
      "channel": 3,
      "note": 93,
      "start": 12.2678,
      "duration": 0.0832,
      "velocity": 78,
      "chip": "ym2612"
    },
    {
      "channel": 4,
      "note": 81,
      "start": 12.3346,
      "duration": 0.044,
      "velocity": 97,
      "chip": "ym2612"
    },
    {
      "channel": 0,
      "note": 38,
      "start": 12.3672,
      "duration": 0.0556,
      "velocity": 74,
      "chip": "ym2612"
    },
    {
      "channel": 1,
      "note": 74,
      "start": 12.3677,
      "duration": 0.0163,
      "velocity": 97,
      "chip": "ym2612"
    },
    {
      "channel": 3,
      "note": 105,
      "start": 12.3686,
      "duration": 0.016,
      "velocity": 78,
      "chip": "ym2612"
    },
    {
      "channel": 4,
      "note": 76,
      "start": 12.3818,
      "duration": 0.0171,
      "velocity": 97,
      "chip": "ym2612"
    },
    {
      "channel": 1,
      "note": 72,
      "start": 12.3881,
      "duration": 0.0161,
      "velocity": 97,
      "chip": "ym2612"
    },
    {
      "channel": 3,
      "note": 93,
      "start": 12.3893,
      "duration": 0.0156,
      "velocity": 78,
      "chip": "ym2612"
    },
    {
      "channel": 4,
      "note": 81,
      "start": 12.4021,
      "duration": 0.0155,
      "velocity": 97,
      "chip": "ym2612"
    },
    {
      "channel": 1,
      "note": 71,
      "start": 12.4075,
      "duration": 0.0155,
      "velocity": 97,
      "chip": "ym2612"
    },
    {
      "channel": 3,
      "note": 100,
      "start": 12.4084,
      "duration": 0.0153,
      "velocity": 78,
      "chip": "ym2612"
    },
    {
      "channel": 4,
      "note": 76,
      "start": 12.4207,
      "duration": 0.0161,
      "velocity": 97,
      "chip": "ym2612"
    },
    {
      "channel": 0,
      "note": 43,
      "start": 12.4259,
      "duration": 0.0452,
      "velocity": 74,
      "chip": "ym2612"
    },
    {
      "channel": 1,
      "note": 72,
      "start": 12.4265,
      "duration": 0.0156,
      "velocity": 97,
      "chip": "ym2612"
    },
    {
      "channel": 3,
      "note": 93,
      "start": 12.4275,
      "duration": 0.0152,
      "velocity": 78,
      "chip": "ym2612"
    },
    {
      "channel": 4,
      "note": 74,
      "start": 12.44,
      "duration": 0.0152,
      "velocity": 97,
      "chip": "ym2612"
    },
    {
      "channel": 1,
      "note": 69,
      "start": 12.4453,
      "duration": 0.0262,
      "velocity": 97,
      "chip": "ym2612"
    },
    {
      "channel": 3,
      "note": 105,
      "start": 12.4462,
      "duration": 0.0259,
      "velocity": 78,
      "chip": "ym2612"
    },
    {
      "channel": 4,
      "note": 72,
      "start": 12.4584,
      "duration": 0.0456,
      "velocity": 97,
      "chip": "ym2612"
    },
    {
      "channel": 0,
      "note": 41,
      "start": 12.4883,
      "duration": 0.0453,
      "velocity": 74,
      "chip": "ym2612"
    },
    {
      "channel": 1,
      "note": 88,
      "start": 12.4924,
      "duration": 0.0168,
      "velocity": 97,
      "chip": "ym2612"
    },
    {
      "channel": 2,
      "note": 72,
      "start": 12.4929,
      "duration": 0.5508,
      "velocity": 94,
      "chip": "ym2612"
    },
    {
      "channel": 3,
      "note": 93,
      "start": 12.4938,
      "duration": 0.0159,
      "velocity": 78,
      "chip": "ym2612"
    },
    {
      "channel": 4,
      "note": 71,
      "start": 12.507,
      "duration": 0.015,
      "velocity": 97,
      "chip": "ym2612"
    },
    {
      "channel": 1,
      "note": 93,
      "start": 12.5123,
      "duration": 0.0216,
      "velocity": 97,
      "chip": "ym2612"
    },
    {
      "channel": 3,
      "note": 100,
      "start": 12.5131,
      "duration": 0.0213,
      "velocity": 78,
      "chip": "ym2612"
    },
    {
      "channel": 4,
      "note": 72,
      "start": 12.5251,
      "duration": 0.0769,
      "velocity": 97,
      "chip": "ym2612"
    },
    {
      "channel": 0,
      "note": 41,
      "start": 12.5506,
      "duration": 0.0334,
      "velocity": 74,
      "chip": "ym2612"
    },
    {
      "channel": 1,
      "note": 88,
      "start": 12.5512,
      "duration": 0.0836,
      "velocity": 97,
      "chip": "ym2612"
    },
    {
      "channel": 3,
      "note": 93,
      "start": 12.5522,
      "duration": 0.0832,
      "velocity": 78,
      "chip": "ym2612"
    },
    {
      "channel": 4,
      "note": 69,
      "start": 12.6241,
      "duration": 0.0386,
      "velocity": 97,
      "chip": "ym2612"
    },
    {
      "channel": 0,
      "note": 36,
      "start": 12.6515,
      "duration": 0.0546,
      "velocity": 74,
      "chip": "ym2612"
    },
    {
      "channel": 1,
      "note": 86,
      "start": 12.6521,
      "duration": 0.0158,
      "velocity": 97,
      "chip": "ym2612"
    },
    {
      "channel": 3,
      "note": 105,
      "start": 12.6529,
      "duration": 0.0155,
      "velocity": 78,
      "chip": "ym2612"
    },
    {
      "channel": 4,
      "note": 88,
      "start": 12.6658,
      "duration": 0.0169,
      "velocity": 97,
      "chip": "ym2612"
    },
    {
      "channel": 1,
      "note": 84,
      "start": 12.6721,
      "duration": 0.0159,
      "velocity": 97,
      "chip": "ym2612"
    },
    {
      "channel": 3,
      "note": 93,
      "start": 12.6733,
      "duration": 0.0152,
      "velocity": 78,
      "chip": "ym2612"
    },
    {
      "channel": 4,
      "note": 93,
      "start": 12.6858,
      "duration": 0.0152,
      "velocity": 97,
      "chip": "ym2612"
    },
    {
      "channel": 1,
      "note": 83,
      "start": 12.691,
      "duration": 0.0154,
      "velocity": 97,
      "chip": "ym2612"
    },
    {
      "channel": 3,
      "note": 100,
      "start": 12.6919,
      "duration": 0.0151,
      "velocity": 78,
      "chip": "ym2612"
    },
    {
      "channel": 4,
      "note": 88,
      "start": 12.7041,
      "duration": 0.0161,
      "velocity": 97,
      "chip": "ym2612"
    },
    {
      "channel": 0,
      "note": 41,
      "start": 12.7093,
      "duration": 0.0449,
      "velocity": 74,
      "chip": "ym2612"
    },
    {
      "channel": 1,
      "note": 84,
      "start": 12.7098,
      "duration": 0.0157,
      "velocity": 97,
      "chip": "ym2612"
    },
    {
      "channel": 3,
      "note": 93,
      "start": 12.7109,
      "duration": 0.0152,
      "velocity": 78,
      "chip": "ym2612"
    },
    {
      "channel": 4,
      "note": 86,
      "start": 12.7234,
      "duration": 0.0152,
      "velocity": 97,
      "chip": "ym2612"
    },
    {
      "channel": 1,
      "note": 81,
      "start": 12.7286,
      "duration": 0.0258,
      "velocity": 97,
      "chip": "ym2612"
    },
    {
      "channel": 3,
      "note": 105,
      "start": 12.7295,
      "duration": 0.0255,
      "velocity": 78,
      "chip": "ym2612"
    },
    {
      "channel": 4,
      "note": 84,
      "start": 12.7417,
      "duration": 0.0417,
      "velocity": 97,
      "chip": "ym2612"
    },
    {
      "channel": 0,
      "note": 41,
      "start": 12.7712,
      "duration": 0.0179,
      "velocity": 74,
      "chip": "ym2612"
    },
    {
      "channel": 1,
      "note": 76,
      "start": 12.7718,
      "duration": 0.0176,
      "velocity": 97,
      "chip": "ym2612"
    },
    {
      "channel": 3,
      "note": 93,
      "start": 12.7729,
      "duration": 0.0171,
      "velocity": 78,
      "chip": "ym2612"
    },
    {
      "channel": 4,
      "note": 83,
      "start": 12.7868,
      "duration": 0.0171,
      "velocity": 97,
      "chip": "ym2612"
    },
    {
      "channel": 0,
      "note": 53,
      "start": 12.7926,
      "duration": 0.0266,
      "velocity": 74,
      "chip": "ym2612"
    },
    {
      "channel": 1,
      "note": 81,
      "start": 12.7931,
      "duration": 0.0264,
      "velocity": 97,
      "chip": "ym2612"
    },
    {
      "channel": 3,
      "note": 100,
      "start": 12.794,
      "duration": 0.0261,
      "velocity": 78,
      "chip": "ym2612"
    },
    {
      "channel": 4,
      "note": 84,
      "start": 12.8083,
      "duration": 0.0805,
      "velocity": 97,
      "chip": "ym2612"
    },
    {
      "channel": 0,
      "note": 41,
      "start": 12.8362,
      "duration": 0.0334,
      "velocity": 74,
      "chip": "ym2612"
    },
    {
      "channel": 1,
      "note": 76,
      "start": 12.8368,
      "duration": 0.0836,
      "velocity": 97,
      "chip": "ym2612"
    },
    {
      "channel": 3,
      "note": 93,
      "start": 12.8389,
      "duration": 0.0832,
      "velocity": 78,
      "chip": "ym2612"
    },
    {
      "channel": 4,
      "note": 81,
      "start": 12.9057,
      "duration": 0.0446,
      "velocity": 97,
      "chip": "ym2612"
    },
    {
      "channel": 0,
      "note": 36,
      "start": 12.9382,
      "duration": 0.0554,
      "velocity": 74,
      "chip": "ym2612"
    },
    {
      "channel": 1,
      "note": 74,
      "start": 12.9388,
      "duration": 0.0168,
      "velocity": 97,
      "chip": "ym2612"
    },
    {
      "channel": 3,
      "note": 105,
      "start": 12.9396,
      "duration": 0.0166,
      "velocity": 78,
      "chip": "ym2612"
    },
    {
      "channel": 4,
      "note": 76,
      "start": 12.9534,
      "duration": 0.0167,
      "velocity": 97,
      "chip": "ym2612"
    },
    {
      "channel": 1,
      "note": 72,
      "start": 12.9595,
      "duration": 0.0159,
      "velocity": 97,
      "chip": "ym2612"
    },
    {
      "channel": 3,
      "note": 93,
      "start": 12.9607,
      "duration": 0.0153,
      "velocity": 78,
      "chip": "ym2612"
    },
    {
      "channel": 4,
      "note": 81,
      "start": 12.9733,
      "duration": 0.0152,
      "velocity": 97,
      "chip": "ym2612"
    },
    {
      "channel": 1,
      "note": 71,
      "start": 12.9785,
      "duration": 0.0153,
      "velocity": 97,
      "chip": "ym2612"
    },
    {
      "channel": 3,
      "note": 100,
      "start": 12.9794,
      "duration": 0.0151,
      "velocity": 78,
      "chip": "ym2612"
    },
    {
      "channel": 4,
      "note": 76,
      "start": 12.9916,
      "duration": 0.0172,
      "velocity": 97,
      "chip": "ym2612"
    },
    {
      "channel": 0,
      "note": 41,
      "start": 12.9974,
      "duration": 0.0458,
      "velocity": 74,
      "chip": "ym2612"
    },
    {
      "channel": 1,
      "note": 72,
      "start": 12.9979,
      "duration": 0.0162,
      "velocity": 97,
      "chip": "ym2612"
    },
    {
      "channel": 3,
      "note": 93,
      "start": 12.999,
      "duration": 0.0158,
      "velocity": 78,
      "chip": "ym2612"
    },
    {
      "channel": 4,
      "note": 74,
      "start": 13.012,
      "duration": 0.0153,
      "velocity": 97,
      "chip": "ym2612"
    },
    {
      "channel": 1,
      "note": 69,
      "start": 13.0173,
      "duration": 0.0262,
      "velocity": 97,
      "chip": "ym2612"
    },
    {
      "channel": 3,
      "note": 105,
      "start": 13.0181,
      "duration": 0.0259,
      "velocity": 78,
      "chip": "ym2612"
    },
    {
      "channel": 4,
      "note": 72,
      "start": 13.0304,
      "duration": 0.0428,
      "velocity": 97,
      "chip": "ym2612"
    },
    {
      "channel": 0,
      "note": 43,
      "start": 13.0602,
      "duration": 0.0462,
      "velocity": 74,
      "chip": "ym2612"
    },
    {
      "channel": 1,
      "note": 79,
      "start": 13.0615,
      "duration": 0.0171,
      "velocity": 97,
      "chip": "ym2612"
    },
    {
      "channel": 2,
      "note": 74,
      "start": 13.0621,
      "duration": 0.4234,
      "velocity": 94,
      "chip": "ym2612"
    },
    {
      "channel": 3,
      "note": 93,
      "start": 13.063,
      "duration": 0.0161,
      "velocity": 78,
      "chip": "ym2612"
    },
    {
      "channel": 4,
      "note": 71,
      "start": 13.0763,
      "duration": 0.0154,
      "velocity": 97,
      "chip": "ym2612"
    },
    {
      "channel": 1,
      "note": 81,
      "start": 13.0817,
      "duration": 0.025,
      "velocity": 97,
      "chip": "ym2612"
    },
    {
      "channel": 3,
      "note": 100,
      "start": 13.0826,
      "duration": 0.0247,
      "velocity": 78,
      "chip": "ym2612"
    },
    {
      "channel": 4,
      "note": 72,
      "start": 13.0948,
      "duration": 0.0801,
      "velocity": 97,
      "chip": "ym2612"
    },
    {
      "channel": 0,
      "note": 43,
      "start": 13.1235,
      "duration": 0.0334,
      "velocity": 74,
      "chip": "ym2612"
    },
    {
      "channel": 1,
      "note": 83,
      "start": 13.1241,
      "duration": 0.0836,
      "velocity": 97,
      "chip": "ym2612"
    },
    {
      "channel": 3,
      "note": 93,
      "start": 13.1251,
      "duration": 0.0831,
      "velocity": 78,
      "chip": "ym2612"
    },
    {
      "channel": 4,
      "note": 69,
      "start": 13.1926,
      "duration": 0.043,
      "velocity": 97,
      "chip": "ym2612"
    },
    {
      "channel": 0,
      "note": 38,
      "start": 13.2244,
      "duration": 0.0546,
      "velocity": 74,
      "chip": "ym2612"
    },
    {
      "channel": 1,
      "note": 84,
      "start": 13.225,
      "duration": 0.0159,
      "velocity": 97,
      "chip": "ym2612"
    },
    {
      "channel": 3,
      "note": 105,
      "start": 13.2258,
      "duration": 0.0156,
      "velocity": 78,
      "chip": "ym2612"
    },
    {
      "channel": 4,
      "note": 79,
      "start": 13.2386,
      "duration": 0.0169,
      "velocity": 97,
      "chip": "ym2612"
    },
    {
      "channel": 1,
      "note": 86,
      "start": 13.245,
      "duration": 0.0159,
      "velocity": 97,
      "chip": "ym2612"
    },
    {
      "channel": 3,
      "note": 93,
      "start": 13.2461,
      "duration": 0.0153,
      "velocity": 78,
      "chip": "ym2612"
    },
    {
      "channel": 4,
      "note": 81,
      "start": 13.2587,
      "duration": 0.0152,
      "velocity": 97,
      "chip": "ym2612"
    },
    {
      "channel": 1,
      "note": 83,
      "start": 13.2639,
      "duration": 0.0154,
      "velocity": 97,
      "chip": "ym2612"
    },
    {
      "channel": 3,
      "note": 100,
      "start": 13.2648,
      "duration": 0.0151,
      "velocity": 78,
      "chip": "ym2612"
    },
    {
      "channel": 4,
      "note": 83,
      "start": 13.277,
      "duration": 0.0175,
      "velocity": 97,
      "chip": "ym2612"
    },
    {
      "channel": 0,
      "note": 43,
      "start": 13.2835,
      "duration": 0.0349,
      "velocity": 74,
      "chip": "ym2612"
    },
    {
      "channel": 1,
      "note": 91,
      "start": 13.284,
      "duration": 0.0158,
      "velocity": 97,
      "chip": "ym2612"
    },
    {
      "channel": 3,
      "note": 93,
      "start": 13.2851,
      "duration": 0.0154,
      "velocity": 78,
      "chip": "ym2612"
    },
    {
      "channel": 4,
      "note": 84,
      "start": 13.2977,
      "duration": 0.0156,
      "velocity": 97,
      "chip": "ym2612"
    },
    {
      "channel": 1,
      "note": 93,
      "start": 13.3029,
      "duration": 0.0157,
      "velocity": 97,
      "chip": "ym2612"
    },
    {
      "channel": 3,
      "note": 105,
      "start": 13.3038,
      "duration": 0.0154,
      "velocity": 78,
      "chip": "ym2612"
    },
    {
      "channel": 4,
      "note": 86,
      "start": 13.3164,
      "duration": 0.0178,
      "velocity": 97,
      "chip": "ym2612"
    },
    {
      "channel": 0,
      "note": 43,
      "start": 13.3223,
      "duration": 0.017,
      "velocity": 74,
      "chip": "ym2612"
    },
    {
      "channel": 1,
      "note": 95,
      "start": 13.3229,
      "duration": 0.0167,
      "velocity": 97,
      "chip": "ym2612"
    },
    {
      "channel": 3,
      "note": 93,
      "start": 13.324,
      "duration": 0.0162,
      "velocity": 78,
      "chip": "ym2612"
    },
    {
      "channel": 4,
      "note": 83,
      "start": 13.3373,
      "duration": 0.0176,
      "velocity": 97,
      "chip": "ym2612"
    },
    {
      "channel": 0,
      "note": 55,
      "start": 13.3441,
      "duration": 0.0159,
      "velocity": 74,
      "chip": "ym2612"
    },
    {
      "channel": 1,
      "note": 96,
      "start": 13.3447,
      "duration": 0.0157,
      "velocity": 97,
      "chip": "ym2612"
    },
    {
      "channel": 3,
      "note": 100,
      "start": 13.3456,
      "duration": 0.0154,
      "velocity": 78,
      "chip": "ym2612"
    },
    {
      "channel": 4,
      "note": 91,
      "start": 13.3581,
      "duration": 0.0173,
      "velocity": 97,
      "chip": "ym2612"
    },
    {
      "channel": 0,
      "note": 43,
      "start": 13.3641,
      "duration": 0.0072,
      "velocity": 74,
      "chip": "ym2612"
    },
    {
      "channel": 1,
      "note": 95,
      "start": 13.3646,
      "duration": 0.0161,
      "velocity": 97,
      "chip": "ym2612"
    },
    {
      "channel": 3,
      "note": 93,
      "start": 13.3657,
      "duration": 0.0156,
      "velocity": 78,
      "chip": "ym2612"
    },
    {
      "channel": 4,
      "note": 93,
      "start": 13.3785,
      "duration": 0.0172,
      "velocity": 97,
      "chip": "ym2612"
    },
    {
      "channel": 0,
      "note": 38,
      "start": 13.3842,
      "duration": 0.0568,
      "velocity": 74,
      "chip": "ym2612"
    },
    {
      "channel": 1,
      "note": 93,
      "start": 13.3847,
      "duration": 0.0163,
      "velocity": 97,
      "chip": "ym2612"
    },
    {
      "channel": 3,
      "note": 105,
      "start": 13.3856,
      "duration": 0.016,
      "velocity": 78,
      "chip": "ym2612"
    },
    {
      "channel": 4,
      "note": 95,
      "start": 13.3988,
      "duration": 0.0172,
      "velocity": 97,
      "chip": "ym2612"
    },
    {
      "channel": 1,
      "note": 91,
      "start": 13.405,
      "duration": 0.0164,
      "velocity": 97,
      "chip": "ym2612"
    },
    {
      "channel": 3,
      "note": 93,
      "start": 13.4062,
      "duration": 0.0159,
      "velocity": 78,
      "chip": "ym2612"
    },
    {
      "channel": 4,
      "note": 96,
      "start": 13.4193,
      "duration": 0.016,
      "velocity": 97,
      "chip": "ym2612"
    },
    {
      "channel": 1,
      "note": 89,
      "start": 13.4246,
      "duration": 0.0166,
      "velocity": 97,
      "chip": "ym2612"
    },
    {
      "channel": 3,
      "note": 100,
      "start": 13.4255,
      "duration": 0.0163,
      "velocity": 78,
      "chip": "ym2612"
    },
    {
      "channel": 4,
      "note": 95,
      "start": 13.4386,
      "duration": 0.0187,
      "velocity": 97,
      "chip": "ym2612"
    },
    {
      "channel": 0,
      "note": 43,
      "start": 13.4449,
      "duration": 0.039,
      "velocity": 74,
      "chip": "ym2612"
    },
    {
      "channel": 1,
      "note": 88,
      "start": 13.4455,
      "duration": 0.0177,
      "velocity": 97,
      "chip": "ym2612"
    },
    {
      "channel": 3,
      "note": 93,
      "start": 13.4476,
      "duration": 0.0162,
      "velocity": 78,
      "chip": "ym2612"
    },
    {
      "channel": 4,
      "note": 93,
      "start": 13.4617,
      "duration": 0.0175,
      "velocity": 97,
      "chip": "ym2612"
    },
    {
      "channel": 1,
      "note": 86,
      "start": 13.4671,
      "duration": 0.0181,
      "velocity": 97,
      "chip": "ym2612"
    },
    {
      "channel": 3,
      "note": 105,
      "start": 13.469,
      "duration": 0.0168,
      "velocity": 78,
      "chip": "ym2612"
    },
    {
      "channel": 4,
      "note": 91,
      "start": 13.4827,
      "duration": 0.0313,
      "velocity": 97,
      "chip": "ym2612"
    },
    {
      "channel": 0,
      "note": 45,
      "start": 13.493,
      "duration": 0.026,
      "velocity": 74,
      "chip": "ym2612"
    },
    {
      "channel": 1,
      "note": 93,
      "start": 13.4972,
      "duration": 1.7751,
      "velocity": 101,
      "chip": "ym2612"
    },
    {
      "channel": 2,
      "note": 57,
      "start": 13.5014,
      "duration": 0.0181,
      "velocity": 98,
      "chip": "ym2612"
    },
    {
      "channel": 3,
      "note": 93,
      "start": 13.5027,
      "duration": 0.0171,
      "velocity": 78,
      "chip": "ym2612"
    },
    {
      "channel": 4,
      "note": 89,
      "start": 13.517,
      "duration": 0.0157,
      "velocity": 97,
      "chip": "ym2612"
    },
    {
      "channel": 0,
      "note": 45,
      "start": 13.5222,
      "duration": 0.0156,
      "velocity": 74,
      "chip": "ym2612"
    },
    {
      "channel": 2,
      "note": 57,
      "start": 13.5229,
      "duration": 0.0154,
      "velocity": 98,
      "chip": "ym2612"
    },
    {
      "channel": 3,
      "note": 100,
      "start": 13.5235,
      "duration": 0.0151,
      "velocity": 78,
      "chip": "ym2612"
    },
    {
      "channel": 4,
      "note": 88,
      "start": 13.5358,
      "duration": 0.0274,
      "velocity": 97,
      "chip": "ym2612"
    },
    {
      "channel": 0,
      "note": 45,
      "start": 13.5519,
      "duration": 0.0217,
      "velocity": 74,
      "chip": "ym2612"
    },
    {
      "channel": 2,
      "note": 57,
      "start": 13.5527,
      "duration": 0.0214,
      "velocity": 98,
      "chip": "ym2612"
    },
    {
      "channel": 3,
      "note": 93,
      "start": 13.5534,
      "duration": 0.021,
      "velocity": 78,
      "chip": "ym2612"
    },
    {
      "channel": 4,
      "note": 86,
      "start": 13.5715,
      "duration": 1.7617,
      "velocity": 101,
      "chip": "ym2612"
    },
    {
      "channel": 0,
      "note": 45,
      "start": 13.5767,
      "duration": 0.0211,
      "velocity": 74,
      "chip": "ym2612"
    },
    {
      "channel": 2,
      "note": 57,
      "start": 13.5774,
      "duration": 0.0209,
      "velocity": 98,
      "chip": "ym2612"
    },
    {
      "channel": 3,
      "note": 105,
      "start": 13.5781,
      "duration": 0.0206,
      "velocity": 78,
      "chip": "ym2612"
    },
    {
      "channel": 0,
      "note": 45,
      "start": 13.6148,
      "duration": 0.0164,
      "velocity": 74,
      "chip": "ym2612"
    },
    {
      "channel": 2,
      "note": 57,
      "start": 13.6156,
      "duration": 0.0162,
      "velocity": 98,
      "chip": "ym2612"
    },
    {
      "channel": 3,
      "note": 93,
      "start": 13.6165,
      "duration": 0.0156,
      "velocity": 78,
      "chip": "ym2612"
    },
    {
      "channel": 0,
      "note": 69,
      "start": 13.6354,
      "duration": 0.0158,
      "velocity": 74,
      "chip": "ym2612"
    },
    {
      "channel": 2,
      "note": 81,
      "start": 13.6362,
      "duration": 0.0155,
      "velocity": 98,
      "chip": "ym2612"
    },
    {
      "channel": 3,
      "note": 100,
      "start": 13.6368,
      "duration": 0.0152,
      "velocity": 78,
      "chip": "ym2612"
    },
    {
      "channel": 0,
      "note": 45,
      "start": 13.6555,
      "duration": 0.0166,
      "velocity": 74,
      "chip": "ym2612"
    },
    {
      "channel": 2,
      "note": 57,
      "start": 13.6563,
      "duration": 0.0164,
      "velocity": 98,
      "chip": "ym2612"
    },
    {
      "channel": 3,
      "note": 93,
      "start": 13.6571,
      "duration": 0.0159,
      "velocity": 78,
      "chip": "ym2612"
    },
    {
      "channel": 0,
      "note": 45,
      "start": 13.6754,
      "duration": 0.0264,
      "velocity": 74,
      "chip": "ym2612"
    },
    {
      "channel": 2,
      "note": 57,
      "start": 13.6762,
      "duration": 0.0261,
      "velocity": 98,
      "chip": "ym2612"
    },
    {
      "channel": 3,
      "note": 105,
      "start": 13.6768,
      "duration": 0.0258,
      "velocity": 78,
      "chip": "ym2612"
    },
    {
      "channel": 0,
      "note": 67,
      "start": 13.7205,
      "duration": 0.0167,
      "velocity": 74,
      "chip": "ym2612"
    },
    {
      "channel": 2,
      "note": 79,
      "start": 13.7213,
      "duration": 0.0164,
      "velocity": 98,
      "chip": "ym2612"
    },
    {
      "channel": 3,
      "note": 93,
      "start": 13.7222,
      "duration": 0.0158,
      "velocity": 78,
      "chip": "ym2612"
    },
    {
      "channel": 0,
      "note": 45,
      "start": 13.742,
      "duration": 0.0225,
      "velocity": 74,
      "chip": "ym2612"
    },
    {
      "channel": 2,
      "note": 57,
      "start": 13.7429,
      "duration": 0.0223,
      "velocity": 98,
      "chip": "ym2612"
    },
    {
      "channel": 3,
      "note": 100,
      "start": 13.7435,
      "duration": 0.022,
      "velocity": 78,
      "chip": "ym2612"
    },
    {
      "channel": 0,
      "note": 45,
      "start": 13.7816,
      "duration": 0.0163,
      "velocity": 74,
      "chip": "ym2612"
    },
    {
      "channel": 2,
      "note": 57,
      "start": 13.7824,
      "duration": 0.016,
      "velocity": 98,
      "chip": "ym2612"
    },
    {
      "channel": 3,
      "note": 93,
      "start": 13.7832,
      "duration": 0.0155,
      "velocity": 78,
      "chip": "ym2612"
    },
    {
      "channel": 0,
      "note": 67,
      "start": 13.8037,
      "duration": 0.0157,
      "velocity": 74,
      "chip": "ym2612"
    },
    {
      "channel": 2,
      "note": 79,
      "start": 13.8045,
      "duration": 0.0154,
      "velocity": 98,
      "chip": "ym2612"
    },
    {
      "channel": 3,
      "note": 105,
      "start": 13.8051,
      "duration": 0.0151,
      "velocity": 78,
      "chip": "ym2612"
    },
    {
      "channel": 0,
      "note": 45,
      "start": 13.8253,
      "duration": 0.0165,
      "velocity": 74,
      "chip": "ym2612"
    },
    {
      "channel": 2,
      "note": 57,
      "start": 13.8261,
      "duration": 0.0162,
      "velocity": 98,
      "chip": "ym2612"
    },
    {
      "channel": 3,
      "note": 93,
      "start": 13.827,
      "duration": 0.0156,
      "velocity": 78,
      "chip": "ym2612"
    },
    {
      "channel": 0,
      "note": 45,
      "start": 13.8449,
      "duration": 0.0241,
      "velocity": 74,
      "chip": "ym2612"
    },
    {
      "channel": 2,
      "note": 57,
      "start": 13.8457,
      "duration": 0.0239,
      "velocity": 98,
      "chip": "ym2612"
    },
    {
      "channel": 3,
      "note": 100,
      "start": 13.8464,
      "duration": 0.0236,
      "velocity": 78,
      "chip": "ym2612"
    },
    {
      "channel": 0,
      "note": 65,
      "start": 13.8878,
      "duration": 0.0158,
      "velocity": 74,
      "chip": "ym2612"
    },
    {
      "channel": 2,
      "note": 77,
      "start": 13.8886,
      "duration": 0.0156,
      "velocity": 98,
      "chip": "ym2612"
    },
    {
      "channel": 3,
      "note": 93,
      "start": 13.8894,
      "duration": 0.0151,
      "velocity": 78,
      "chip": "ym2612"
    },
    {
      "channel": 0,
      "note": 64,
      "start": 13.9077,
      "duration": 0.0156,
      "velocity": 74,
      "chip": "ym2612"
    },
    {
      "channel": 2,
      "note": 76,
      "start": 13.9085,
      "duration": 0.0154,
      "velocity": 98,
      "chip": "ym2612"
    },
    {
      "channel": 3,
      "note": 105,
      "start": 13.9091,
      "duration": 0.0151,
      "velocity": 78,
      "chip": "ym2612"
    },
    {
      "channel": 0,
      "note": 45,
      "start": 13.9309,
      "duration": 0.0207,
      "velocity": 74,
      "chip": "ym2612"
    },
    {
      "channel": 2,
      "note": 57,
      "start": 13.9364,
      "duration": 0.0158,
      "velocity": 98,
      "chip": "ym2612"
    },
    {
      "channel": 3,
      "note": 93,
      "start": 13.9374,
      "duration": 0.0151,
      "velocity": 78,
      "chip": "ym2612"
    },
    {
      "channel": 0,
      "note": 45,
      "start": 13.9549,
      "duration": 0.0186,
      "velocity": 74,
      "chip": "ym2612"
    },
    {
      "channel": 2,
      "note": 57,
      "start": 13.9557,
      "duration": 0.0183,
      "velocity": 98,
      "chip": "ym2612"
    },
    {
      "channel": 3,
      "note": 100,
      "start": 13.9563,
      "duration": 0.018,
      "velocity": 78,
      "chip": "ym2612"
    },
    {
      "channel": 0,
      "note": 45,
      "start": 13.9905,
      "duration": 0.0172,
      "velocity": 74,
      "chip": "ym2612"
    },
    {
      "channel": 2,
      "note": 57,
      "start": 13.9913,
      "duration": 0.0169,
      "velocity": 98,
      "chip": "ym2612"
    },
    {
      "channel": 3,
      "note": 93,
      "start": 13.992,
      "duration": 0.0165,
      "velocity": 78,
      "chip": "ym2612"
    },
    {
      "channel": 0,
      "note": 45,
      "start": 14.0111,
      "duration": 0.0274,
      "velocity": 74,
      "chip": "ym2612"
    },
    {
      "channel": 2,
      "note": 57,
      "start": 14.0119,
      "duration": 0.0272,
      "velocity": 98,
      "chip": "ym2612"
    },
    {
      "channel": 3,
      "note": 105,
      "start": 14.0125,
      "duration": 0.0268,
      "velocity": 78,
      "chip": "ym2612"
    },
    {
      "channel": 0,
      "note": 45,
      "start": 14.0555,
      "duration": 0.0178,
      "velocity": 74,
      "chip": "ym2612"
    },
    {
      "channel": 2,
      "note": 57,
      "start": 14.0573,
      "duration": 0.0176,
      "velocity": 98,
      "chip": "ym2612"
    },
    {
      "channel": 3,
      "note": 93,
      "start": 14.0582,
      "duration": 0.017,
      "velocity": 78,
      "chip": "ym2612"
    },
    {
      "channel": 0,
      "note": 69,
      "start": 14.0786,
      "duration": 0.0162,
      "velocity": 74,
      "chip": "ym2612"
    },
    {
      "channel": 2,
      "note": 81,
      "start": 14.0794,
      "duration": 0.016,
      "velocity": 98,
      "chip": "ym2612"
    },
    {
      "channel": 3,
      "note": 100,
      "start": 14.0801,
      "duration": 0.0156,
      "velocity": 78,
      "chip": "ym2612"
    },
    {
      "channel": 0,
      "note": 45,
      "start": 14.0988,
      "duration": 0.0166,
      "velocity": 74,
      "chip": "ym2612"
    },
    {
      "channel": 2,
      "note": 57,
      "start": 14.0996,
      "duration": 0.0164,
      "velocity": 98,
      "chip": "ym2612"
    },
    {
      "channel": 3,
      "note": 93,
      "start": 14.1004,
      "duration": 0.0159,
      "velocity": 78,
      "chip": "ym2612"
    },
    {
      "channel": 0,
      "note": 45,
      "start": 14.1186,
      "duration": 0.0255,
      "velocity": 74,
      "chip": "ym2612"
    },
    {
      "channel": 2,
      "note": 57,
      "start": 14.1194,
      "duration": 0.0252,
      "velocity": 98,
      "chip": "ym2612"
    },
    {
      "channel": 3,
      "note": 105,
      "start": 14.12,
      "duration": 0.0249,
      "velocity": 78,
      "chip": "ym2612"
    },
    {
      "channel": 0,
      "note": 67,
      "start": 14.1629,
      "duration": 0.0167,
      "velocity": 74,
      "chip": "ym2612"
    },
    {
      "channel": 2,
      "note": 79,
      "start": 14.1637,
      "duration": 0.0165,
      "velocity": 98,
      "chip": "ym2612"
    },
    {
      "channel": 3,
      "note": 93,
      "start": 14.1646,
      "duration": 0.0159,
      "velocity": 78,
      "chip": "ym2612"
    },
    {
      "channel": 0,
      "note": 45,
      "start": 14.1845,
      "duration": 0.0225,
      "velocity": 74,
      "chip": "ym2612"
    },
    {
      "channel": 2,
      "note": 57,
      "start": 14.1854,
      "duration": 0.0222,
      "velocity": 98,
      "chip": "ym2612"
    },
    {
      "channel": 3,
      "note": 100,
      "start": 14.186,
      "duration": 0.0219,
      "velocity": 78,
      "chip": "ym2612"
    },
    {
      "channel": 0,
      "note": 45,
      "start": 14.224,
      "duration": 0.0166,
      "velocity": 74,
      "chip": "ym2612"
    },
    {
      "channel": 2,
      "note": 57,
      "start": 14.2248,
      "duration": 0.0163,
      "velocity": 98,
      "chip": "ym2612"
    },
    {
      "channel": 3,
      "note": 93,
      "start": 14.2256,
      "duration": 0.0158,
      "velocity": 78,
      "chip": "ym2612"
    },
    {
      "channel": 0,
      "note": 67,
      "start": 14.2465,
      "duration": 0.016,
      "velocity": 74,
      "chip": "ym2612"
    },
    {
      "channel": 2,
      "note": 79,
      "start": 14.2473,
      "duration": 0.0158,
      "velocity": 98,
      "chip": "ym2612"
    },
    {
      "channel": 3,
      "note": 105,
      "start": 14.248,
      "duration": 0.0154,
      "velocity": 78,
      "chip": "ym2612"
    },
    {
      "channel": 0,
      "note": 45,
      "start": 14.2685,
      "duration": 0.0166,
      "velocity": 74,
      "chip": "ym2612"
    },
    {
      "channel": 2,
      "note": 57,
      "start": 14.2694,
      "duration": 0.0164,
      "velocity": 98,
      "chip": "ym2612"
    },
    {
      "channel": 3,
      "note": 93,
      "start": 14.2703,
      "duration": 0.0158,
      "velocity": 78,
      "chip": "ym2612"
    },
    {
      "channel": 0,
      "note": 45,
      "start": 14.2884,
      "duration": 0.0243,
      "velocity": 74,
      "chip": "ym2612"
    },
    {
      "channel": 2,
      "note": 57,
      "start": 14.2892,
      "duration": 0.0241,
      "velocity": 98,
      "chip": "ym2612"
    },
    {
      "channel": 3,
      "note": 100,
      "start": 14.2898,
      "duration": 0.0238,
      "velocity": 78,
      "chip": "ym2612"
    },
    {
      "channel": 0,
      "note": 65,
      "start": 14.3314,
      "duration": 0.0158,
      "velocity": 74,
      "chip": "ym2612"
    },
    {
      "channel": 2,
      "note": 77,
      "start": 14.3322,
      "duration": 0.0155,
      "velocity": 98,
      "chip": "ym2612"
    },
    {
      "channel": 3,
      "note": 93,
      "start": 14.333,
      "duration": 0.0151,
      "velocity": 78,
      "chip": "ym2612"
    },
    {
      "channel": 0,
      "note": 64,
      "start": 14.3514,
      "duration": 0.0157,
      "velocity": 74,
      "chip": "ym2612"
    },
    {
      "channel": 2,
      "note": 76,
      "start": 14.3522,
      "duration": 0.0154,
      "velocity": 98,
      "chip": "ym2612"
    },
    {
      "channel": 3,
      "note": 105,
      "start": 14.3528,
      "duration": 0.0151,
      "velocity": 78,
      "chip": "ym2612"
    },
    {
      "channel": 0,
      "note": 45,
      "start": 14.3746,
      "duration": 0.0217,
      "velocity": 74,
      "chip": "ym2612"
    },
    {
      "channel": 2,
      "note": 57,
      "start": 14.3807,
      "duration": 0.0163,
      "velocity": 98,
      "chip": "ym2612"
    },
    {
      "channel": 3,
      "note": 93,
      "start": 14.3816,
      "duration": 0.0157,
      "velocity": 78,
      "chip": "ym2612"
    },
    {
      "channel": 0,
      "note": 45,
      "start": 14.3996,
      "duration": 0.0171,
      "velocity": 74,
      "chip": "ym2612"
    },
    {
      "channel": 2,
      "note": 57,
      "start": 14.4005,
      "duration": 0.0169,
      "velocity": 98,
      "chip": "ym2612"
    },
    {
      "channel": 3,
      "note": 100,
      "start": 14.4011,
      "duration": 0.0166,
      "velocity": 78,
      "chip": "ym2612"
    },
    {
      "channel": 0,
      "note": 45,
      "start": 14.4338,
      "duration": 0.0175,
      "velocity": 74,
      "chip": "ym2612"
    },
    {
      "channel": 2,
      "note": 57,
      "start": 14.4347,
      "duration": 0.0172,
      "velocity": 98,
      "chip": "ym2612"
    },
    {
      "channel": 3,
      "note": 93,
      "start": 14.4355,
      "duration": 0.0168,
      "velocity": 78,
      "chip": "ym2612"
    },
    {
      "channel": 0,
      "note": 45,
      "start": 14.4547,
      "duration": 0.0246,
      "velocity": 74,
      "chip": "ym2612"
    },
    {
      "channel": 2,
      "note": 57,
      "start": 14.4556,
      "duration": 0.0244,
      "velocity": 98,
      "chip": "ym2612"
    },
    {
      "channel": 3,
      "note": 105,
      "start": 14.4562,
      "duration": 0.0241,
      "velocity": 78,
      "chip": "ym2612"
    },
    {
      "channel": 0,
      "note": 45,
      "start": 14.4963,
      "duration": 0.0176,
      "velocity": 74,
      "chip": "ym2612"
    },
    {
      "channel": 2,
      "note": 57,
      "start": 14.4973,
      "duration": 0.0173,
      "velocity": 98,
      "chip": "ym2612"
    },
    {
      "channel": 3,
      "note": 93,
      "start": 14.4982,
      "duration": 0.0168,
      "velocity": 78,
      "chip": "ym2612"
    },
    {
      "channel": 0,
      "note": 69,
      "start": 14.5182,
      "duration": 0.0168,
      "velocity": 74,
      "chip": "ym2612"
    },
    {
      "channel": 2,
      "note": 81,
      "start": 14.5191,
      "duration": 0.0166,
      "velocity": 98,
      "chip": "ym2612"
    },
    {
      "channel": 3,
      "note": 100,
      "start": 14.5198,
      "duration": 0.0162,
      "velocity": 78,
      "chip": "ym2612"
    },
    {
      "channel": 0,
      "note": 45,
      "start": 14.5385,
      "duration": 0.0175,
      "velocity": 74,
      "chip": "ym2612"
    },
    {
      "channel": 2,
      "note": 57,
      "start": 14.5394,
      "duration": 0.0172,
      "velocity": 98,
      "chip": "ym2612"
    },
    {
      "channel": 3,
      "note": 93,
      "start": 14.5401,
      "duration": 0.0168,
      "velocity": 78,
      "chip": "ym2612"
    },
    {
      "channel": 0,
      "note": 45,
      "start": 14.5594,
      "duration": 0.0256,
      "velocity": 74,
      "chip": "ym2612"
    },
    {
      "channel": 2,
      "note": 57,
      "start": 14.5603,
      "duration": 0.0254,
      "velocity": 98,
      "chip": "ym2612"
    },
    {
      "channel": 3,
      "note": 105,
      "start": 14.561,
      "duration": 0.0251,
      "velocity": 78,
      "chip": "ym2612"
    },
    {
      "channel": 0,
      "note": 67,
      "start": 14.6048,
      "duration": 0.0184,
      "velocity": 74,
      "chip": "ym2612"
    },
    {
      "channel": 2,
      "note": 79,
      "start": 14.6057,
      "duration": 0.0182,
      "velocity": 98,
      "chip": "ym2612"
    },
    {
      "channel": 3,
      "note": 93,
      "start": 14.6066,
      "duration": 0.0176,
      "velocity": 78,
      "chip": "ym2612"
    },
    {
      "channel": 0,
      "note": 45,
      "start": 14.6297,
      "duration": 0.021,
      "velocity": 74,
      "chip": "ym2612"
    },
    {
      "channel": 2,
      "note": 57,
      "start": 14.6306,
      "duration": 0.0218,
      "velocity": 98,
      "chip": "ym2612"
    },
    {
      "channel": 3,
      "note": 100,
      "start": 14.6312,
      "duration": 0.0215,
      "velocity": 78,
      "chip": "ym2612"
    },
    {
      "channel": 0,
      "note": 45,
      "start": 14.6687,
      "duration": 0.0182,
      "velocity": 74,
      "chip": "ym2612"
    },
    {
      "channel": 2,
      "note": 57,
      "start": 14.6696,
      "duration": 0.0179,
      "velocity": 98,
      "chip": "ym2612"
    },
    {
      "channel": 3,
      "note": 93,
      "start": 14.6704,
      "duration": 0.0174,
      "velocity": 78,
      "chip": "ym2612"
    },
    {
      "channel": 0,
      "note": 67,
      "start": 14.6924,
      "duration": 0.0171,
      "velocity": 74,
      "chip": "ym2612"
    },
    {
      "channel": 2,
      "note": 79,
      "start": 14.6933,
      "duration": 0.0168,
      "velocity": 98,
      "chip": "ym2612"
    },
    {
      "channel": 3,
      "note": 105,
      "start": 14.694,
      "duration": 0.0165,
      "velocity": 78,
      "chip": "ym2612"
    },
    {
      "channel": 0,
      "note": 45,
      "start": 14.7159,
      "duration": 0.0178,
      "velocity": 74,
      "chip": "ym2612"
    },
    {
      "channel": 2,
      "note": 57,
      "start": 14.7168,
      "duration": 0.0176,
      "velocity": 98,
      "chip": "ym2612"
    },
    {
      "channel": 3,
      "note": 93,
      "start": 14.7177,
      "duration": 0.017,
      "velocity": 78,
      "chip": "ym2612"
    },
    {
      "channel": 0,
      "note": 45,
      "start": 14.7371,
      "duration": 0.0228,
      "velocity": 74,
      "chip": "ym2612"
    },
    {
      "channel": 2,
      "note": 57,
      "start": 14.738,
      "duration": 0.0225,
      "velocity": 98,
      "chip": "ym2612"
    },
    {
      "channel": 3,
      "note": 100,
      "start": 14.7387,
      "duration": 0.0222,
      "velocity": 78,
      "chip": "ym2612"
    },
    {
      "channel": 0,
      "note": 65,
      "start": 14.7787,
      "duration": 0.0174,
      "velocity": 74,
      "chip": "ym2612"
    },
    {
      "channel": 2,
      "note": 77,
      "start": 14.7796,
      "duration": 0.0172,
      "velocity": 98,
      "chip": "ym2612"
    },
    {
      "channel": 3,
      "note": 93,
      "start": 14.7804,
      "duration": 0.0167,
      "velocity": 78,
      "chip": "ym2612"
    },
    {
      "channel": 0,
      "note": 64,
      "start": 14.801,
      "duration": 0.0173,
      "velocity": 74,
      "chip": "ym2612"
    },
    {
      "channel": 2,
      "note": 76,
      "start": 14.802,
      "duration": 0.017,
      "velocity": 98,
      "chip": "ym2612"
    },
    {
      "channel": 3,
      "note": 105,
      "start": 14.8026,
      "duration": 0.0166,
      "velocity": 78,
      "chip": "ym2612"
    },
    {
      "channel": 0,
      "note": 45,
      "start": 14.8265,
      "duration": 0.0223,
      "velocity": 74,
      "chip": "ym2612"
    },
    {
      "channel": 2,
      "note": 57,
      "start": 14.8311,
      "duration": 0.0184,
      "velocity": 98,
      "chip": "ym2612"
    },
    {
      "channel": 3,
      "note": 93,
      "start": 14.832,
      "duration": 0.0178,
      "velocity": 78,
      "chip": "ym2612"
    },
    {
      "channel": 0,
      "note": 45,
      "start": 14.8524,
      "duration": 0.0168,
      "velocity": 74,
      "chip": "ym2612"
    },
    {
      "channel": 2,
      "note": 57,
      "start": 14.8533,
      "duration": 0.0165,
      "velocity": 98,
      "chip": "ym2612"
    },
    {
      "channel": 3,
      "note": 100,
      "start": 14.8539,
      "duration": 0.0162,
      "velocity": 78,
      "chip": "ym2612"
    },
    {
      "channel": 0,
      "note": 45,
      "start": 14.8862,
      "duration": 0.0176,
      "velocity": 74,
      "chip": "ym2612"
    },
    {
      "channel": 2,
      "note": 57,
      "start": 14.8871,
      "duration": 0.0174,
      "velocity": 98,
      "chip": "ym2612"
    },
    {
      "channel": 3,
      "note": 93,
      "start": 14.8879,
      "duration": 0.0169,
      "velocity": 78,
      "chip": "ym2612"
    },
    {
      "channel": 0,
      "note": 45,
      "start": 14.9073,
      "duration": 0.0246,
      "velocity": 74,
      "chip": "ym2612"
    },
    {
      "channel": 2,
      "note": 57,
      "start": 14.9082,
      "duration": 0.0244,
      "velocity": 98,
      "chip": "ym2612"
    },
    {
      "channel": 3,
      "note": 105,
      "start": 14.9088,
      "duration": 0.0241,
      "velocity": 78,
      "chip": "ym2612"
    },
    {
      "channel": 0,
      "note": 45,
      "start": 14.949,
      "duration": 0.0178,
      "velocity": 74,
      "chip": "ym2612"
    },
    {
      "channel": 2,
      "note": 57,
      "start": 14.9499,
      "duration": 0.0175,
      "velocity": 98,
      "chip": "ym2612"
    },
    {
      "channel": 3,
      "note": 93,
      "start": 14.9508,
      "duration": 0.0169,
      "velocity": 78,
      "chip": "ym2612"
    },
    {
      "channel": 0,
      "note": 69,
      "start": 14.9708,
      "duration": 0.017,
      "velocity": 74,
      "chip": "ym2612"
    },
    {
      "channel": 2,
      "note": 81,
      "start": 14.9718,
      "duration": 0.0168,
      "velocity": 98,
      "chip": "ym2612"
    },
    {
      "channel": 3,
      "note": 100,
      "start": 14.9724,
      "duration": 0.0165,
      "velocity": 78,
      "chip": "ym2612"
    },
    {
      "channel": 0,
      "note": 45,
      "start": 14.9924,
      "duration": 0.0177,
      "velocity": 74,
      "chip": "ym2612"
    },
    {
      "channel": 2,
      "note": 57,
      "start": 14.9934,
      "duration": 0.0174,
      "velocity": 98,
      "chip": "ym2612"
    },
    {
      "channel": 3,
      "note": 93,
      "start": 14.9941,
      "duration": 0.017,
      "velocity": 78,
      "chip": "ym2612"
    },
    {
      "channel": 0,
      "note": 45,
      "start": 15.0136,
      "duration": 0.0244,
      "velocity": 74,
      "chip": "ym2612"
    },
    {
      "channel": 2,
      "note": 57,
      "start": 15.0145,
      "duration": 0.0241,
      "velocity": 98,
      "chip": "ym2612"
    },
    {
      "channel": 3,
      "note": 105,
      "start": 15.0151,
      "duration": 0.0238,
      "velocity": 78,
      "chip": "ym2612"
    },
    {
      "channel": 0,
      "note": 67,
      "start": 15.0567,
      "duration": 0.0183,
      "velocity": 74,
      "chip": "ym2612"
    },
    {
      "channel": 2,
      "note": 79,
      "start": 15.0576,
      "duration": 0.0181,
      "velocity": 98,
      "chip": "ym2612"
    },
    {
      "channel": 3,
      "note": 93,
      "start": 15.0585,
      "duration": 0.0175,
      "velocity": 78,
      "chip": "ym2612"
    },
    {
      "channel": 0,
      "note": 45,
      "start": 15.0802,
      "duration": 0.0208,
      "velocity": 74,
      "chip": "ym2612"
    },
    {
      "channel": 2,
      "note": 57,
      "start": 15.0811,
      "duration": 0.0205,
      "velocity": 98,
      "chip": "ym2612"
    },
    {
      "channel": 3,
      "note": 100,
      "start": 15.0817,
      "duration": 0.0202,
      "velocity": 78,
      "chip": "ym2612"
    },
    {
      "channel": 0,
      "note": 45,
      "start": 15.118,
      "duration": 0.018,
      "velocity": 74,
      "chip": "ym2612"
    },
    {
      "channel": 2,
      "note": 57,
      "start": 15.119,
      "duration": 0.0177,
      "velocity": 98,
      "chip": "ym2612"
    },
    {
      "channel": 3,
      "note": 93,
      "start": 15.1197,
      "duration": 0.0173,
      "velocity": 78,
      "chip": "ym2612"
    },
    {
      "channel": 0,
      "note": 67,
      "start": 15.1419,
      "duration": 0.0173,
      "velocity": 74,
      "chip": "ym2612"
    },
    {
      "channel": 2,
      "note": 79,
      "start": 15.1428,
      "duration": 0.017,
      "velocity": 98,
      "chip": "ym2612"
    },
    {
      "channel": 3,
      "note": 105,
      "start": 15.1445,
      "duration": 0.0157,
      "velocity": 78,
      "chip": "ym2612"
    },
    {
      "channel": 0,
      "note": 45,
      "start": 15.1646,
      "duration": 0.0187,
      "velocity": 74,
      "chip": "ym2612"
    },
    {
      "channel": 2,
      "note": 57,
      "start": 15.1666,
      "duration": 0.0174,
      "velocity": 98,
      "chip": "ym2612"
    },
    {
      "channel": 3,
      "note": 93,
      "start": 15.1675,
      "duration": 0.0168,
      "velocity": 78,
      "chip": "ym2612"
    },
    {
      "channel": 0,
      "note": 45,
      "start": 15.187,
      "duration": 0.0239,
      "velocity": 74,
      "chip": "ym2612"
    },
    {
      "channel": 2,
      "note": 57,
      "start": 15.1879,
      "duration": 0.0237,
      "velocity": 98,
      "chip": "ym2612"
    },
    {
      "channel": 3,
      "note": 100,
      "start": 15.1896,
      "duration": 0.0233,
      "velocity": 78,
      "chip": "ym2612"
    },
    {
      "channel": 0,
      "note": 65,
      "start": 15.2306,
      "duration": 0.0176,
      "velocity": 74,
      "chip": "ym2612"
    },
    {
      "channel": 2,
      "note": 77,
      "start": 15.2316,
      "duration": 0.0183,
      "velocity": 98,
      "chip": "ym2612"
    },
    {
      "channel": 3,
      "note": 93,
      "start": 15.2323,
      "duration": 0.0179,
      "velocity": 78,
      "chip": "ym2612"
    },
    {
      "channel": 0,
      "note": 64,
      "start": 15.2544,
      "duration": 0.0176,
      "velocity": 74,
      "chip": "ym2612"
    },
    {
      "channel": 2,
      "note": 76,
      "start": 15.2554,
      "duration": 0.0174,
      "velocity": 98,
      "chip": "ym2612"
    },
    {
      "channel": 3,
      "note": 105,
      "start": 15.256,
      "duration": 0.0171,
      "velocity": 78,
      "chip": "ym2612"
    },
    {
      "channel": 0,
      "note": 45,
      "start": 15.2793,
      "duration": 0.0189,
      "velocity": 74,
      "chip": "ym2612"
    },
    {
      "channel": 1,
      "note": 94,
      "start": 15.2801,
      "duration": 0.0594,
      "velocity": 101,
      "chip": "ym2612"
    },
    {
      "channel": 2,
      "note": 64,
      "start": 15.2814,
      "duration": 0.0175,
      "velocity": 98,
      "chip": "ym2612"
    },
    {
      "channel": 3,
      "note": 93,
      "start": 15.2823,
      "duration": 0.0168,
      "velocity": 78,
      "chip": "ym2612"
    },
    {
      "channel": 0,
      "note": 45,
      "start": 15.3016,
      "duration": 0.0161,
      "velocity": 74,
      "chip": "ym2612"
    },
    {
      "channel": 2,
      "note": 64,
      "start": 15.3024,
      "duration": 0.0158,
      "velocity": 98,
      "chip": "ym2612"
    },
    {
      "channel": 3,
      "note": 100,
      "start": 15.303,
      "duration": 0.0155,
      "velocity": 78,
      "chip": "ym2612"
    },
    {
      "channel": 0,
      "note": 45,
      "start": 15.3213,
      "duration": 0.0179,
      "velocity": 74,
      "chip": "ym2612"
    },
    {
      "channel": 2,
      "note": 64,
      "start": 15.3221,
      "duration": 0.0177,
      "velocity": 98,
      "chip": "ym2612"
    },
    {
      "channel": 3,
      "note": 93,
      "start": 15.3229,
      "duration": 0.0172,
      "velocity": 78,
      "chip": "ym2612"
    },
    {
      "channel": 4,
      "note": 82,
      "start": 15.3366,
      "duration": 0.0778,
      "velocity": 101,
      "chip": "ym2612"
    },
    {
      "channel": 0,
      "note": 45,
      "start": 15.3425,
      "duration": 0.0248,
      "velocity": 74,
      "chip": "ym2612"
    },
    {
      "channel": 1,
      "note": 94,
      "start": 15.3431,
      "duration": 0.0878,
      "velocity": 101,
      "chip": "ym2612"
    },
    {
      "channel": 2,
      "note": 64,
      "start": 15.3442,
      "duration": 0.0237,
      "velocity": 98,
      "chip": "ym2612"
    },
    {
      "channel": 3,
      "note": 105,
      "start": 15.3448,
      "duration": 0.0234,
      "velocity": 78,
      "chip": "ym2612"
    },
    {
      "channel": 0,
      "note": 45,
      "start": 15.3844,
      "duration": 0.0163,
      "velocity": 74,
      "chip": "ym2612"
    },
    {
      "channel": 2,
      "note": 64,
      "start": 15.3851,
      "duration": 0.0161,
      "velocity": 98,
      "chip": "ym2612"
    },
    {
      "channel": 3,
      "note": 93,
      "start": 15.3861,
      "duration": 0.0154,
      "velocity": 78,
      "chip": "ym2612"
    },
    {
      "channel": 0,
      "note": 69,
      "start": 15.4039,
      "duration": 0.0267,
      "velocity": 74,
      "chip": "ym2612"
    },
    {
      "channel": 2,
      "note": 88,
      "start": 15.4047,
      "duration": 0.0265,
      "velocity": 98,
      "chip": "ym2612"
    },
    {
      "channel": 3,
      "note": 100,
      "start": 15.4053,
      "duration": 0.0262,
      "velocity": 78,
      "chip": "ym2612"
    },
    {
      "channel": 4,
      "note": 96,
      "start": 15.4176,
      "duration": 0.1064,
      "velocity": 101,
      "chip": "ym2612"
    },
    {
      "channel": 0,
      "note": 45,
      "start": 15.4477,
      "duration": 0.0181,
      "velocity": 74,
      "chip": "ym2612"
    },
    {
      "channel": 1,
      "note": 94,
      "start": 15.4483,
      "duration": 1.4236,
      "velocity": 101,
      "chip": "ym2612"
    },
    {
      "channel": 2,
      "note": 64,
      "start": 15.4495,
      "duration": 0.0169,
      "velocity": 98,
      "chip": "ym2612"
    },
    {
      "channel": 3,
      "note": 93,
      "start": 15.4502,
      "duration": 0.0165,
      "velocity": 78,
      "chip": "ym2612"
    },
    {
      "channel": 0,
      "note": 45,
      "start": 15.469,
      "duration": 0.0246,
      "velocity": 74,
      "chip": "ym2612"
    },
    {
      "channel": 2,
      "note": 64,
      "start": 15.4698,
      "duration": 0.0243,
      "velocity": 98,
      "chip": "ym2612"
    },
    {
      "channel": 3,
      "note": 105,
      "start": 15.4704,
      "duration": 0.024,
      "velocity": 78,
      "chip": "ym2612"
    },
    {
      "channel": 0,
      "note": 67,
      "start": 15.5123,
      "duration": 0.0175,
      "velocity": 74,
      "chip": "ym2612"
    },
    {
      "channel": 2,
      "note": 86,
      "start": 15.5131,
      "duration": 0.0172,
      "velocity": 98,
      "chip": "ym2612"
    },
    {
      "channel": 3,
      "note": 93,
      "start": 15.514,
      "duration": 0.0166,
      "velocity": 78,
      "chip": "ym2612"
    },
    {
      "channel": 4,
      "note": 96,
      "start": 15.5271,
      "duration": 1.4624,
      "velocity": 101,
      "chip": "ym2612"
    },
    {
      "channel": 0,
      "note": 45,
      "start": 15.5347,
      "duration": 0.0214,
      "velocity": 74,
      "chip": "ym2612"
    },
    {
      "channel": 2,
      "note": 64,
      "start": 15.5355,
      "duration": 0.0211,
      "velocity": 98,
      "chip": "ym2612"
    },
    {
      "channel": 3,
      "note": 100,
      "start": 15.5361,
      "duration": 0.0208,
      "velocity": 78,
      "chip": "ym2612"
    },
    {
      "channel": 0,
      "note": 45,
      "start": 15.5731,
      "duration": 0.0164,
      "velocity": 74,
      "chip": "ym2612"
    },
    {
      "channel": 2,
      "note": 64,
      "start": 15.5739,
      "duration": 0.0161,
      "velocity": 98,
      "chip": "ym2612"
    },
    {
      "channel": 3,
      "note": 93,
      "start": 15.5746,
      "duration": 0.0157,
      "velocity": 78,
      "chip": "ym2612"
    },
    {
      "channel": 0,
      "note": 67,
      "start": 15.5951,
      "duration": 0.0153,
      "velocity": 74,
      "chip": "ym2612"
    },
    {
      "channel": 2,
      "note": 86,
      "start": 15.5959,
      "duration": 0.0151,
      "velocity": 98,
      "chip": "ym2612"
    },
    {
      "channel": 3,
      "note": 105,
      "start": 15.5965,
      "duration": 0.0147,
      "velocity": 78,
      "chip": "ym2612"
    },
    {
      "channel": 0,
      "note": 45,
      "start": 15.6153,
      "duration": 0.0158,
      "velocity": 74,
      "chip": "ym2612"
    },
    {
      "channel": 2,
      "note": 64,
      "start": 15.6161,
      "duration": 0.0155,
      "velocity": 98,
      "chip": "ym2612"
    },
    {
      "channel": 3,
      "note": 93,
      "start": 15.617,
      "duration": 0.0149,
      "velocity": 78,
      "chip": "ym2612"
    },
    {
      "channel": 0,
      "note": 45,
      "start": 15.6342,
      "duration": 0.0244,
      "velocity": 74,
      "chip": "ym2612"
    },
    {
      "channel": 2,
      "note": 64,
      "start": 15.6349,
      "duration": 0.0241,
      "velocity": 98,
      "chip": "ym2612"
    },
    {
      "channel": 3,
      "note": 100,
      "start": 15.6356,
      "duration": 0.0238,
      "velocity": 78,
      "chip": "ym2612"
    },
    {
      "channel": 0,
      "note": 65,
      "start": 15.6773,
      "duration": 0.0159,
      "velocity": 74,
      "chip": "ym2612"
    },
    {
      "channel": 2,
      "note": 84,
      "start": 15.6781,
      "duration": 0.0156,
      "velocity": 98,
      "chip": "ym2612"
    },
    {
      "channel": 3,
      "note": 93,
      "start": 15.6789,
      "duration": 0.0152,
      "velocity": 78,
      "chip": "ym2612"
    },
    {
      "channel": 0,
      "note": 64,
      "start": 15.6975,
      "duration": 0.0155,
      "velocity": 74,
      "chip": "ym2612"
    },
    {
      "channel": 2,
      "note": 83,
      "start": 15.6983,
      "duration": 0.0153,
      "velocity": 98,
      "chip": "ym2612"
    },
    {
      "channel": 3,
      "note": 105,
      "start": 15.6989,
      "duration": 0.0149,
      "velocity": 78,
      "chip": "ym2612"
    },
    {
      "channel": 0,
      "note": 45,
      "start": 15.7218,
      "duration": 0.0156,
      "velocity": 74,
      "chip": "ym2612"
    },
    {
      "channel": 2,
      "note": 64,
      "start": 15.7227,
      "duration": 0.0152,
      "velocity": 98,
      "chip": "ym2612"
    },
    {
      "channel": 3,
      "note": 93,
      "start": 15.7237,
      "duration": 0.0146,
      "velocity": 78,
      "chip": "ym2612"
    },
    {
      "channel": 0,
      "note": 45,
      "start": 15.7406,
      "duration": 0.0168,
      "velocity": 74,
      "chip": "ym2612"
    },
    {
      "channel": 2,
      "note": 64,
      "start": 15.7414,
      "duration": 0.0166,
      "velocity": 98,
      "chip": "ym2612"
    },
    {
      "channel": 3,
      "note": 100,
      "start": 15.742,
      "duration": 0.0162,
      "velocity": 78,
      "chip": "ym2612"
    },
    {
      "channel": 0,
      "note": 45,
      "start": 15.7616,
      "duration": 0.0172,
      "velocity": 74,
      "chip": "ym2612"
    },
    {
      "channel": 2,
      "note": 64,
      "start": 15.7624,
      "duration": 0.017,
      "velocity": 98,
      "chip": "ym2612"
    },
    {
      "channel": 3,
      "note": 93,
      "start": 15.7642,
      "duration": 0.0155,
      "velocity": 78,
      "chip": "ym2612"
    },
    {
      "channel": 0,
      "note": 45,
      "start": 15.7828,
      "duration": 0.0171,
      "velocity": 74,
      "chip": "ym2612"
    },
    {
      "channel": 2,
      "note": 64,
      "start": 15.7846,
      "duration": 0.0169,
      "velocity": 98,
      "chip": "ym2612"
    },
    {
      "channel": 3,
      "note": 105,
      "start": 15.7853,
      "duration": 0.0166,
      "velocity": 78,
      "chip": "ym2612"
    },
    {
      "channel": 0,
      "note": 45,
      "start": 15.8054,
      "duration": 0.0163,
      "velocity": 74,
      "chip": "ym2612"
    },
    {
      "channel": 2,
      "note": 64,
      "start": 15.8063,
      "duration": 0.016,
      "velocity": 98,
      "chip": "ym2612"
    },
    {
      "channel": 3,
      "note": 93,
      "start": 15.8072,
      "duration": 0.0154,
      "velocity": 78,
      "chip": "ym2612"
    },
    {
      "channel": 0,
      "note": 69,
      "start": 15.8249,
      "duration": 0.0166,
      "velocity": 74,
      "chip": "ym2612"
    },
    {
      "channel": 2,
      "note": 88,
      "start": 15.8258,
      "duration": 0.0163,
      "velocity": 98,
      "chip": "ym2612"
    },
    {
      "channel": 3,
      "note": 100,
      "start": 15.8264,
      "duration": 0.016,
      "velocity": 78,
      "chip": "ym2612"
    },
    {
      "channel": 0,
      "note": 45,
      "start": 15.8453,
      "duration": 0.0161,
      "velocity": 74,
      "chip": "ym2612"
    },
    {
      "channel": 2,
      "note": 64,
      "start": 15.8461,
      "duration": 0.0159,
      "velocity": 98,
      "chip": "ym2612"
    },
    {
      "channel": 3,
      "note": 93,
      "start": 15.8468,
      "duration": 0.0154,
      "velocity": 78,
      "chip": "ym2612"
    },
    {
      "channel": 0,
      "note": 45,
      "start": 15.8646,
      "duration": 0.016,
      "velocity": 74,
      "chip": "ym2612"
    },
    {
      "channel": 2,
      "note": 64,
      "start": 15.8654,
      "duration": 0.0158,
      "velocity": 98,
      "chip": "ym2612"
    },
    {
      "channel": 3,
      "note": 105,
      "start": 15.866,
      "duration": 0.0154,
      "velocity": 78,
      "chip": "ym2612"
    },
    {
      "channel": 0,
      "note": 67,
      "start": 15.886,
      "duration": 0.0169,
      "velocity": 74,
      "chip": "ym2612"
    },
    {
      "channel": 2,
      "note": 86,
      "start": 15.8868,
      "duration": 0.0166,
      "velocity": 98,
      "chip": "ym2612"
    },
    {
      "channel": 3,
      "note": 93,
      "start": 15.8877,
      "duration": 0.016,
      "velocity": 78,
      "chip": "ym2612"
    },
    {
      "channel": 0,
      "note": 45,
      "start": 15.9079,
      "duration": 0.0225,
      "velocity": 74,
      "chip": "ym2612"
    },
    {
      "channel": 2,
      "note": 64,
      "start": 15.9087,
      "duration": 0.0223,
      "velocity": 98,
      "chip": "ym2612"
    },
    {
      "channel": 3,
      "note": 100,
      "start": 15.9093,
      "duration": 0.022,
      "velocity": 78,
      "chip": "ym2612"
    },
    {
      "channel": 0,
      "note": 45,
      "start": 15.9475,
      "duration": 0.0166,
      "velocity": 74,
      "chip": "ym2612"
    },
    {
      "channel": 2,
      "note": 64,
      "start": 15.9483,
      "duration": 0.0163,
      "velocity": 98,
      "chip": "ym2612"
    },
    {
      "channel": 3,
      "note": 93,
      "start": 15.9491,
      "duration": 0.0159,
      "velocity": 78,
      "chip": "ym2612"
    },
    {
      "channel": 0,
      "note": 67,
      "start": 15.97,
      "duration": 0.0159,
      "velocity": 74,
      "chip": "ym2612"
    },
    {
      "channel": 2,
      "note": 86,
      "start": 15.9707,
      "duration": 0.0156,
      "velocity": 98,
      "chip": "ym2612"
    },
    {
      "channel": 3,
      "note": 105,
      "start": 15.9714,
      "duration": 0.0153,
      "velocity": 78,
      "chip": "ym2612"
    },
    {
      "channel": 0,
      "note": 45,
      "start": 15.9917,
      "duration": 0.0165,
      "velocity": 74,
      "chip": "ym2612"
    },
    {
      "channel": 2,
      "note": 64,
      "start": 15.9925,
      "duration": 0.0163,
      "velocity": 98,
      "chip": "ym2612"
    },
    {
      "channel": 3,
      "note": 93,
      "start": 15.9934,
      "duration": 0.0157,
      "velocity": 78,
      "chip": "ym2612"
    },
    {
      "channel": 0,
      "note": 45,
      "start": 16.0114,
      "duration": 0.0244,
      "velocity": 74,
      "chip": "ym2612"
    },
    {
      "channel": 2,
      "note": 64,
      "start": 16.0122,
      "duration": 0.0241,
      "velocity": 98,
      "chip": "ym2612"
    },
    {
      "channel": 3,
      "note": 100,
      "start": 16.0128,
      "duration": 0.0238,
      "velocity": 78,
      "chip": "ym2612"
    },
    {
      "channel": 0,
      "note": 65,
      "start": 16.0545,
      "duration": 0.0159,
      "velocity": 74,
      "chip": "ym2612"
    },
    {
      "channel": 2,
      "note": 84,
      "start": 16.0553,
      "duration": 0.0156,
      "velocity": 98,
      "chip": "ym2612"
    },
    {
      "channel": 3,
      "note": 93,
      "start": 16.0561,
      "duration": 0.0151,
      "velocity": 78,
      "chip": "ym2612"
    },
    {
      "channel": 0,
      "note": 64,
      "start": 16.0744,
      "duration": 0.0157,
      "velocity": 74,
      "chip": "ym2612"
    },
    {
      "channel": 2,
      "note": 83,
      "start": 16.0752,
      "duration": 0.0154,
      "velocity": 98,
      "chip": "ym2612"
    },
    {
      "channel": 3,
      "note": 105,
      "start": 16.0759,
      "duration": 0.0151,
      "velocity": 78,
      "chip": "ym2612"
    },
    {
      "channel": 0,
      "note": 45,
      "start": 16.0977,
      "duration": 0.0171,
      "velocity": 74,
      "chip": "ym2612"
    },
    {
      "channel": 2,
      "note": 64,
      "start": 16.0987,
      "duration": 0.0166,
      "velocity": 98,
      "chip": "ym2612"
    },
    {
      "channel": 3,
      "note": 93,
      "start": 16.0996,
      "duration": 0.016,
      "velocity": 78,
      "chip": "ym2612"
    },
    {
      "channel": 0,
      "note": 45,
      "start": 16.118,
      "duration": 0.022,
      "velocity": 74,
      "chip": "ym2612"
    },
    {
      "channel": 2,
      "note": 64,
      "start": 16.1188,
      "duration": 0.0217,
      "velocity": 98,
      "chip": "ym2612"
    },
    {
      "channel": 3,
      "note": 100,
      "start": 16.1194,
      "duration": 0.0214,
      "velocity": 78,
      "chip": "ym2612"
    },
    {
      "channel": 0,
      "note": 45,
      "start": 16.1569,
      "duration": 0.0163,
      "velocity": 74,
      "chip": "ym2612"
    },
    {
      "channel": 2,
      "note": 64,
      "start": 16.1578,
      "duration": 0.016,
      "velocity": 98,
      "chip": "ym2612"
    },
    {
      "channel": 3,
      "note": 93,
      "start": 16.1585,
      "duration": 0.0156,
      "velocity": 78,
      "chip": "ym2612"
    },
    {
      "channel": 0,
      "note": 45,
      "start": 16.1764,
      "duration": 0.026,
      "velocity": 74,
      "chip": "ym2612"
    },
    {
      "channel": 2,
      "note": 64,
      "start": 16.1773,
      "duration": 0.0257,
      "velocity": 98,
      "chip": "ym2612"
    },
    {
      "channel": 3,
      "note": 105,
      "start": 16.1779,
      "duration": 0.0254,
      "velocity": 78,
      "chip": "ym2612"
    },
    {
      "channel": 0,
      "note": 45,
      "start": 16.2194,
      "duration": 0.0167,
      "velocity": 74,
      "chip": "ym2612"
    },
    {
      "channel": 2,
      "note": 64,
      "start": 16.2202,
      "duration": 0.0165,
      "velocity": 98,
      "chip": "ym2612"
    },
    {
      "channel": 3,
      "note": 93,
      "start": 16.2211,
      "duration": 0.0159,
      "velocity": 78,
      "chip": "ym2612"
    },
    {
      "channel": 0,
      "note": 69,
      "start": 16.2401,
      "duration": 0.016,
      "velocity": 74,
      "chip": "ym2612"
    },
    {
      "channel": 2,
      "note": 88,
      "start": 16.2409,
      "duration": 0.0157,
      "velocity": 98,
      "chip": "ym2612"
    },
    {
      "channel": 3,
      "note": 100,
      "start": 16.2415,
      "duration": 0.0154,
      "velocity": 78,
      "chip": "ym2612"
    },
    {
      "channel": 0,
      "note": 45,
      "start": 16.2601,
      "duration": 0.0177,
      "velocity": 74,
      "chip": "ym2612"
    },
    {
      "channel": 2,
      "note": 64,
      "start": 16.2609,
      "duration": 0.0175,
      "velocity": 98,
      "chip": "ym2612"
    },
    {
      "channel": 3,
      "note": 93,
      "start": 16.2617,
      "duration": 0.0171,
      "velocity": 78,
      "chip": "ym2612"
    },
    {
      "channel": 0,
      "note": 45,
      "start": 16.2814,
      "duration": 0.0274,
      "velocity": 74,
      "chip": "ym2612"
    },
    {
      "channel": 2,
      "note": 64,
      "start": 16.2822,
      "duration": 0.0271,
      "velocity": 98,
      "chip": "ym2612"
    },
    {
      "channel": 3,
      "note": 105,
      "start": 16.2839,
      "duration": 0.0257,
      "velocity": 78,
      "chip": "ym2612"
    },
    {
      "channel": 0,
      "note": 67,
      "start": 16.3285,
      "duration": 0.0171,
      "velocity": 74,
      "chip": "ym2612"
    },
    {
      "channel": 2,
      "note": 86,
      "start": 16.3293,
      "duration": 0.0179,
      "velocity": 98,
      "chip": "ym2612"
    },
    {
      "channel": 3,
      "note": 93,
      "start": 16.3302,
      "duration": 0.0173,
      "velocity": 78,
      "chip": "ym2612"
    },
    {
      "channel": 0,
      "note": 45,
      "start": 16.3518,
      "duration": 0.0226,
      "velocity": 74,
      "chip": "ym2612"
    },
    {
      "channel": 2,
      "note": 64,
      "start": 16.3526,
      "duration": 0.0223,
      "velocity": 98,
      "chip": "ym2612"
    },
    {
      "channel": 3,
      "note": 100,
      "start": 16.3532,
      "duration": 0.022,
      "velocity": 78,
      "chip": "ym2612"
    },
    {
      "channel": 0,
      "note": 45,
      "start": 16.3913,
      "duration": 0.0163,
      "velocity": 74,
      "chip": "ym2612"
    },
    {
      "channel": 2,
      "note": 64,
      "start": 16.3921,
      "duration": 0.016,
      "velocity": 98,
      "chip": "ym2612"
    },
    {
      "channel": 3,
      "note": 93,
      "start": 16.3929,
      "duration": 0.0156,
      "velocity": 78,
      "chip": "ym2612"
    },
    {
      "channel": 0,
      "note": 67,
      "start": 16.413,
      "duration": 0.0157,
      "velocity": 74,
      "chip": "ym2612"
    },
    {
      "channel": 2,
      "note": 86,
      "start": 16.4138,
      "duration": 0.0155,
      "velocity": 98,
      "chip": "ym2612"
    },
    {
      "channel": 3,
      "note": 105,
      "start": 16.4144,
      "duration": 0.0152,
      "velocity": 78,
      "chip": "ym2612"
    },
    {
      "channel": 0,
      "note": 45,
      "start": 16.4346,
      "duration": 0.0165,
      "velocity": 74,
      "chip": "ym2612"
    },
    {
      "channel": 2,
      "note": 64,
      "start": 16.4354,
      "duration": 0.0162,
      "velocity": 98,
      "chip": "ym2612"
    },
    {
      "channel": 3,
      "note": 93,
      "start": 16.4364,
      "duration": 0.0156,
      "velocity": 78,
      "chip": "ym2612"
    },
    {
      "channel": 0,
      "note": 45,
      "start": 16.4544,
      "duration": 0.0246,
      "velocity": 74,
      "chip": "ym2612"
    },
    {
      "channel": 2,
      "note": 64,
      "start": 16.4551,
      "duration": 0.0244,
      "velocity": 98,
      "chip": "ym2612"
    },
    {
      "channel": 3,
      "note": 100,
      "start": 16.4558,
      "duration": 0.024,
      "velocity": 78,
      "chip": "ym2612"
    },
    {
      "channel": 0,
      "note": 65,
      "start": 16.4977,
      "duration": 0.016,
      "velocity": 74,
      "chip": "ym2612"
    },
    {
      "channel": 2,
      "note": 84,
      "start": 16.4985,
      "duration": 0.0157,
      "velocity": 98,
      "chip": "ym2612"
    },
    {
      "channel": 3,
      "note": 93,
      "start": 16.4993,
      "duration": 0.0153,
      "velocity": 78,
      "chip": "ym2612"
    },
    {
      "channel": 0,
      "note": 64,
      "start": 16.5179,
      "duration": 0.0159,
      "velocity": 74,
      "chip": "ym2612"
    },
    {
      "channel": 2,
      "note": 83,
      "start": 16.5188,
      "duration": 0.0157,
      "velocity": 98,
      "chip": "ym2612"
    },
    {
      "channel": 3,
      "note": 105,
      "start": 16.5194,
      "duration": 0.0154,
      "velocity": 78,
      "chip": "ym2612"
    },
    {
      "channel": 0,
      "note": 45,
      "start": 16.5415,
      "duration": 0.0168,
      "velocity": 74,
      "chip": "ym2612"
    },
    {
      "channel": 2,
      "note": 64,
      "start": 16.5429,
      "duration": 0.0159,
      "velocity": 98,
      "chip": "ym2612"
    },
    {
      "channel": 3,
      "note": 93,
      "start": 16.5439,
      "duration": 0.0153,
      "velocity": 78,
      "chip": "ym2612"
    },
    {
      "channel": 0,
      "note": 45,
      "start": 16.5615,
      "duration": 0.0161,
      "velocity": 74,
      "chip": "ym2612"
    },
    {
      "channel": 2,
      "note": 64,
      "start": 16.5623,
      "duration": 0.0158,
      "velocity": 98,
      "chip": "ym2612"
    },
    {
      "channel": 3,
      "note": 100,
      "start": 16.5629,
      "duration": 0.0155,
      "velocity": 78,
      "chip": "ym2612"
    },
    {
      "channel": 0,
      "note": 45,
      "start": 16.5818,
      "duration": 0.0169,
      "velocity": 74,
      "chip": "ym2612"
    },
    {
      "channel": 2,
      "note": 64,
      "start": 16.5826,
      "duration": 0.0166,
      "velocity": 98,
      "chip": "ym2612"
    },
    {
      "channel": 3,
      "note": 93,
      "start": 16.5834,
      "duration": 0.0162,
      "velocity": 78,
      "chip": "ym2612"
    },
    {
      "channel": 0,
      "note": 45,
      "start": 16.6023,
      "duration": 0.0156,
      "velocity": 74,
      "chip": "ym2612"
    },
    {
      "channel": 2,
      "note": 64,
      "start": 16.6031,
      "duration": 0.0153,
      "velocity": 98,
      "chip": "ym2612"
    },
    {
      "channel": 3,
      "note": 105,
      "start": 16.6037,
      "duration": 0.015,
      "velocity": 78,
      "chip": "ym2612"
    },
    {
      "channel": 0,
      "note": 45,
      "start": 16.622,
      "duration": 0.0165,
      "velocity": 74,
      "chip": "ym2612"
    },
    {
      "channel": 2,
      "note": 64,
      "start": 16.6228,
      "duration": 0.0162,
      "velocity": 98,
      "chip": "ym2612"
    },
    {
      "channel": 3,
      "note": 93,
      "start": 16.6237,
      "duration": 0.0156,
      "velocity": 78,
      "chip": "ym2612"
    },
    {
      "channel": 0,
      "note": 69,
      "start": 16.6425,
      "duration": 0.0162,
      "velocity": 74,
      "chip": "ym2612"
    },
    {
      "channel": 2,
      "note": 88,
      "start": 16.6433,
      "duration": 0.016,
      "velocity": 98,
      "chip": "ym2612"
    },
    {
      "channel": 3,
      "note": 100,
      "start": 16.6439,
      "duration": 0.0157,
      "velocity": 78,
      "chip": "ym2612"
    },
    {
      "channel": 0,
      "note": 45,
      "start": 16.6629,
      "duration": 0.0158,
      "velocity": 74,
      "chip": "ym2612"
    },
    {
      "channel": 2,
      "note": 64,
      "start": 16.6637,
      "duration": 0.0155,
      "velocity": 98,
      "chip": "ym2612"
    },
    {
      "channel": 3,
      "note": 93,
      "start": 16.6645,
      "duration": 0.0151,
      "velocity": 78,
      "chip": "ym2612"
    },
    {
      "channel": 0,
      "note": 45,
      "start": 16.6827,
      "duration": 0.0162,
      "velocity": 74,
      "chip": "ym2612"
    },
    {
      "channel": 2,
      "note": 64,
      "start": 16.6834,
      "duration": 0.0159,
      "velocity": 98,
      "chip": "ym2612"
    },
    {
      "channel": 3,
      "note": 105,
      "start": 16.6841,
      "duration": 0.0156,
      "velocity": 78,
      "chip": "ym2612"
    },
    {
      "channel": 0,
      "note": 67,
      "start": 16.7048,
      "duration": 0.0169,
      "velocity": 74,
      "chip": "ym2612"
    },
    {
      "channel": 2,
      "note": 86,
      "start": 16.7056,
      "duration": 0.0167,
      "velocity": 98,
      "chip": "ym2612"
    },
    {
      "channel": 3,
      "note": 93,
      "start": 16.7065,
      "duration": 0.0161,
      "velocity": 78,
      "chip": "ym2612"
    },
    {
      "channel": 0,
      "note": 45,
      "start": 16.7266,
      "duration": 0.0167,
      "velocity": 74,
      "chip": "ym2612"
    },
    {
      "channel": 2,
      "note": 64,
      "start": 16.7274,
      "duration": 0.0164,
      "velocity": 98,
      "chip": "ym2612"
    },
    {
      "channel": 3,
      "note": 100,
      "start": 16.728,
      "duration": 0.0161,
      "velocity": 78,
      "chip": "ym2612"
    },
    {
      "channel": 0,
      "note": 45,
      "start": 16.7465,
      "duration": 0.0161,
      "velocity": 74,
      "chip": "ym2612"
    },
    {
      "channel": 2,
      "note": 64,
      "start": 16.7473,
      "duration": 0.0159,
      "velocity": 98,
      "chip": "ym2612"
    },
    {
      "channel": 3,
      "note": 93,
      "start": 16.748,
      "duration": 0.0154,
      "velocity": 78,
      "chip": "ym2612"
    },
    {
      "channel": 0,
      "note": 67,
      "start": 16.7681,
      "duration": 0.0177,
      "velocity": 74,
      "chip": "ym2612"
    },
    {
      "channel": 2,
      "note": 86,
      "start": 16.77,
      "duration": 0.0164,
      "velocity": 98,
      "chip": "ym2612"
    },
    {
      "channel": 3,
      "note": 105,
      "start": 16.7706,
      "duration": 0.0161,
      "velocity": 78,
      "chip": "ym2612"
    },
    {
      "channel": 0,
      "note": 45,
      "start": 16.7921,
      "duration": 0.0163,
      "velocity": 74,
      "chip": "ym2612"
    },
    {
      "channel": 2,
      "note": 64,
      "start": 16.7929,
      "duration": 0.016,
      "velocity": 98,
      "chip": "ym2612"
    },
    {
      "channel": 3,
      "note": 93,
      "start": 16.7938,
      "duration": 0.0165,
      "velocity": 78,
      "chip": "ym2612"
    },
    {
      "channel": 0,
      "note": 45,
      "start": 16.8126,
      "duration": 0.0178,
      "velocity": 74,
      "chip": "ym2612"
    },
    {
      "channel": 2,
      "note": 64,
      "start": 16.8144,
      "duration": 0.0176,
      "velocity": 98,
      "chip": "ym2612"
    },
    {
      "channel": 3,
      "note": 100,
      "start": 16.8151,
      "duration": 0.0173,
      "velocity": 78,
      "chip": "ym2612"
    },
    {
      "channel": 0,
      "note": 65,
      "start": 16.8366,
      "duration": 0.0162,
      "velocity": 74,
      "chip": "ym2612"
    },
    {
      "channel": 2,
      "note": 84,
      "start": 16.8374,
      "duration": 0.0159,
      "velocity": 98,
      "chip": "ym2612"
    },
    {
      "channel": 3,
      "note": 93,
      "start": 16.8382,
      "duration": 0.0154,
      "velocity": 78,
      "chip": "ym2612"
    },
    {
      "channel": 0,
      "note": 64,
      "start": 16.856,
      "duration": 0.0156,
      "velocity": 74,
      "chip": "ym2612"
    },
    {
      "channel": 2,
      "note": 83,
      "start": 16.8568,
      "duration": 0.0155,
      "velocity": 98,
      "chip": "ym2612"
    },
    {
      "channel": 3,
      "note": 105,
      "start": 16.8574,
      "duration": 0.0152,
      "velocity": 78,
      "chip": "ym2612"
    },
    {
      "channel": 0,
      "note": 45,
      "start": 16.879,
      "duration": 0.0434,
      "velocity": 74,
      "chip": "ym2612"
    },
    {
      "channel": 1,
      "note": 72,
      "start": 16.8835,
      "duration": 35.4997,
      "velocity": 89,
      "chip": "ym2612"
    },
    {
      "channel": 2,
      "note": 69,
      "start": 16.888,
      "duration": 35.4953,
      "velocity": 89,
      "chip": "ym2612"
    },
    {
      "channel": 3,
      "note": 93,
      "start": 16.8893,
      "duration": 0.0164,
      "velocity": 78,
      "chip": "ym2612"
    },
    {
      "channel": 3,
      "note": 100,
      "start": 16.9089,
      "duration": 0.0143,
      "velocity": 78,
      "chip": "ym2612"
    },
    {
      "channel": 0,
      "note": 45,
      "start": 16.938,
      "duration": 0.0334,
      "velocity": 74,
      "chip": "ym2612"
    },
    {
      "channel": 3,
      "note": 93,
      "start": 16.9393,
      "duration": 0.0834,
      "velocity": 78,
      "chip": "ym2612"
    },
    {
      "channel": 4,
      "note": 96,
      "start": 17.0119,
      "duration": 35.3713,
      "velocity": 89,
      "chip": "ym2612"
    },
    {
      "channel": 0,
      "note": 40,
      "start": 17.039,
      "duration": 35.3442,
      "velocity": 74,
      "chip": "ym2612"
    },
    {
      "channel": 3,
      "note": 105,
      "start": 17.0401,
      "duration": 35.3432,
      "velocity": 78,
      "chip": "ym2612"
    }
  ]
}