{
  "track_name": "07 - Quickly Difficult",
  "duration_sec": 50.855,
  "sample_rate": 44100,
  "note_count": 1079,
  "unique_pitches": 62,
  "pitch_range": 80,
  "avg_note_duration": 0.2651,
  "reconstruction_stats": {
    "notes_reconstructed": 1079,
    "keyon_events": 1079,
    "keyoff_events": 1075,
    "orphan_keyons": 4,
    "unique_pitches": 62,
    "pitch_range": 80,
    "avg_duration_sec": 0.2651
  },
  "metadata": {
    "source": "P\\Puyo Puyo Tsuu\\07 - Quickly Difficult.vgz"
  },
  "notes": [
    {
      "channel": 4,
      "note": 27,
      "start": 0.0227,
      "duration": 0.1662,
      "velocity": 122,
      "chip": "ym2612"
    },
    {
      "channel": 0,
      "note": 47,
      "start": 0.0239,
      "duration": 0.0811,
      "velocity": 107,
      "chip": "ym2612"
    },
    {
      "channel": 0,
      "note": 52,
      "start": 0.1051,
      "duration": 0.0844,
      "velocity": 107,
      "chip": "ym2612"
    },
    {
      "channel": 5,
      "note": 47,
      "start": 0.1882,
      "duration": 0.0829,
      "velocity": 107,
      "chip": "ym2612"
    },
    {
      "channel": 4,
      "note": 48,
      "start": 0.1889,
      "duration": 0.1662,
      "velocity": 127,
      "chip": "ym2612"
    },
    {
      "channel": 0,
      "note": 54,
      "start": 0.1895,
      "duration": 0.0823,
      "velocity": 107,
      "chip": "ym2612"
    },
    {
      "channel": 5,
      "note": 52,
      "start": 0.2711,
      "duration": 0.0833,
      "velocity": 107,
      "chip": "ym2612"
    },
    {
      "channel": 0,
      "note": 59,
      "start": 0.2719,
      "duration": 0.0839,
      "velocity": 107,
      "chip": "ym2612"
    },
    {
      "channel": 5,
      "note": 54,
      "start": 0.3544,
      "duration": 0.0833,
      "velocity": 107,
      "chip": "ym2612"
    },
    {
      "channel": 4,
      "note": 27,
      "start": 0.3551,
      "duration": 0.1666,
      "velocity": 122,
      "chip": "ym2612"
    },
    {
      "channel": 0,
      "note": 64,
      "start": 0.3557,
      "duration": 0.0828,
      "velocity": 107,
      "chip": "ym2612"
    },
    {
      "channel": 5,
      "note": 59,
      "start": 0.4377,
      "duration": 0.0833,
      "velocity": 107,
      "chip": "ym2612"
    },
    {
      "channel": 0,
      "note": 66,
      "start": 0.4385,
      "duration": 0.0838,
      "velocity": 107,
      "chip": "ym2612"
    },
    {
      "channel": 5,
      "note": 64,
      "start": 0.5211,
      "duration": 0.0833,
      "velocity": 107,
      "chip": "ym2612"
    },
    {
      "channel": 4,
      "note": 48,
      "start": 0.5218,
      "duration": 0.1667,
      "velocity": 127,
      "chip": "ym2612"
    },
    {
      "channel": 0,
      "note": 71,
      "start": 0.5224,
      "duration": 0.0828,
      "velocity": 107,
      "chip": "ym2612"
    },
    {
      "channel": 5,
      "note": 66,
      "start": 0.6044,
      "duration": 0.0833,
      "velocity": 107,
      "chip": "ym2612"
    },
    {
      "channel": 0,
      "note": 76,
      "start": 0.6052,
      "duration": 0.0839,
      "velocity": 107,
      "chip": "ym2612"
    },
    {
      "channel": 5,
      "note": 71,
      "start": 0.6877,
      "duration": 0.1,
      "velocity": 107,
      "chip": "ym2612"
    },
    {
      "channel": 4,
      "note": 27,
      "start": 0.6885,
      "duration": 0.0996,
      "velocity": 127,
      "chip": "ym2612"
    },
    {
      "channel": 0,
      "note": 78,
      "start": 0.6891,
      "duration": 0.0995,
      "velocity": 107,
      "chip": "ym2612"
    },
    {
      "channel": 5,
      "note": 76,
      "start": 0.7877,
      "duration": 0.0834,
      "velocity": 107,
      "chip": "ym2612"
    },
    {
      "channel": 4,
      "note": 27,
      "start": 0.7881,
      "duration": 0.0834,
      "velocity": 127,
      "chip": "ym2612"
    },
    {
      "channel": 0,
      "note": 83,
      "start": 0.7887,
      "duration": 0.0834,
      "velocity": 107,
      "chip": "ym2612"
    },
    {
      "channel": 5,
      "note": 78,
      "start": 0.8711,
      "duration": 0.0833,
      "velocity": 107,
      "chip": "ym2612"
    },
    {
      "channel": 4,
      "note": 27,
      "start": 0.8715,
      "duration": 0.0833,
      "velocity": 127,
      "chip": "ym2612"
    },
    {
      "channel": 0,
      "note": 88,
      "start": 0.8721,
      "duration": 0.0833,
      "velocity": 107,
      "chip": "ym2612"
    },
    {
      "channel": 5,
      "note": 83,
      "start": 0.9544,
      "duration": 0.0833,
      "velocity": 107,
      "chip": "ym2612"
    },
    {
      "channel": 4,
      "note": 27,
      "start": 0.9547,
      "duration": 0.0834,
      "velocity": 127,
      "chip": "ym2612"
    },
    {
      "channel": 0,
      "note": 90,
      "start": 0.9554,
      "duration": 0.0833,
      "velocity": 107,
      "chip": "ym2612"
    },
    {
      "channel": 5,
      "note": 88,
      "start": 1.0377,
      "duration": 0.0833,
      "velocity": 107,
      "chip": "ym2612"
    },
    {
      "channel": 4,
      "note": 27,
      "start": 1.0381,
      "duration": 0.0833,
      "velocity": 127,
      "chip": "ym2612"
    },
    {
      "channel": 0,
      "note": 95,
      "start": 1.0387,
      "duration": 0.0833,
      "velocity": 107,
      "chip": "ym2612"
    },
    {
      "channel": 5,
      "note": 90,
      "start": 1.1211,
      "duration": 0.0834,
      "velocity": 107,
      "chip": "ym2612"
    },
    {
      "channel": 4,
      "note": 27,
      "start": 1.1214,
      "duration": 0.0834,
      "velocity": 127,
      "chip": "ym2612"
    },
    {
      "channel": 0,
      "note": 100,
      "start": 1.122,
      "duration": 0.0834,
      "velocity": 107,
      "chip": "ym2612"
    },
    {
      "channel": 5,
      "note": 95,
      "start": 1.2044,
      "duration": 0.0833,
      "velocity": 107,
      "chip": "ym2612"
    },
    {
      "channel": 4,
      "note": 27,
      "start": 1.2048,
      "duration": 0.0833,
      "velocity": 127,
      "chip": "ym2612"
    },
    {
      "channel": 0,
      "note": 102,
      "start": 1.2054,
      "duration": 0.0833,
      "velocity": 107,
      "chip": "ym2612"
    },
    {
      "channel": 5,
      "note": 100,
      "start": 1.2877,
      "duration": 0.0833,
      "velocity": 107,
      "chip": "ym2612"
    },
    {
      "channel": 4,
      "note": 27,
      "start": 1.2881,
      "duration": 0.0837,
      "velocity": 122,
      "chip": "ym2612"
    },
    {
      "channel": 0,
      "note": 107,
      "start": 1.2887,
      "duration": 0.0858,
      "velocity": 107,
      "chip": "ym2612"
    },
    {
      "channel": 5,
      "note": 102,
      "start": 1.3711,
      "duration": 0.1,
      "velocity": 107,
      "chip": "ym2612"
    },
    {
      "channel": 4,
      "note": 48,
      "start": 1.3718,
      "duration": 0.1833,
      "velocity": 127,
      "chip": "ym2612"
    },
    {
      "channel": 3,
      "note": 84,
      "start": 1.3726,
      "duration": 0.3494,
      "velocity": 115,
      "chip": "ym2612"
    },
    {
      "channel": 2,
      "note": 87,
      "start": 1.3734,
      "duration": 0.3489,
      "velocity": 115,
      "chip": "ym2612"
    },
    {
      "channel": 1,
      "note": 48,
      "start": 1.3741,
      "duration": 0.1818,
      "velocity": 88,
      "chip": "ym2612"
    },
    {
      "channel": 5,
      "note": 107,
      "start": 1.4711,
      "duration": 0.0851,
      "velocity": 107,
      "chip": "ym2612"
    },
    {
      "channel": 4,
      "note": 36,
      "start": 1.5551,
      "duration": 0.1665,
      "velocity": 127,
      "chip": "ym2612"
    },
    {
      "channel": 1,
      "note": 48,
      "start": 1.5559,
      "duration": 0.1667,
      "velocity": 88,
      "chip": "ym2612"
    },
    {
      "channel": 4,
      "note": 27,
      "start": 1.7216,
      "duration": 0.1672,
      "velocity": 127,
      "chip": "ym2612"
    },
    {
      "channel": 3,
      "note": 84,
      "start": 1.722,
      "duration": 0.1673,
      "velocity": 115,
      "chip": "ym2612"
    },
    {
      "channel": 2,
      "note": 87,
      "start": 1.7223,
      "duration": 0.1673,
      "velocity": 115,
      "chip": "ym2612"
    },
    {
      "channel": 1,
      "note": 48,
      "start": 1.7226,
      "duration": 0.1673,
      "velocity": 88,
      "chip": "ym2612"
    },
    {
      "channel": 0,
      "note": 79,
      "start": 1.7233,
      "duration": 0.1668,
      "velocity": 107,
      "chip": "ym2612"
    },
    {
      "channel": 5,
      "note": 79,
      "start": 1.8882,
      "duration": 0.1681,
      "velocity": 107,
      "chip": "ym2612"
    },
    {
      "channel": 4,
      "note": 36,
      "start": 1.8889,
      "duration": 0.1661,
      "velocity": 122,
      "chip": "ym2612"
    },
    {
      "channel": 3,
      "note": 84,
      "start": 1.8892,
      "duration": 0.3496,
      "velocity": 115,
      "chip": "ym2612"
    },
    {
      "channel": 2,
      "note": 87,
      "start": 1.8895,
      "duration": 0.3496,
      "velocity": 115,
      "chip": "ym2612"
    },
    {
      "channel": 1,
      "note": 48,
      "start": 1.8899,
      "duration": 0.1659,
      "velocity": 88,
      "chip": "ym2612"
    },
    {
      "channel": 4,
      "note": 48,
      "start": 2.055,
      "duration": 0.1835,
      "velocity": 127,
      "chip": "ym2612"
    },
    {
      "channel": 1,
      "note": 48,
      "start": 2.0558,
      "duration": 0.1837,
      "velocity": 88,
      "chip": "ym2612"
    },
    {
      "channel": 0,
      "note": 82,
      "start": 2.0561,
      "duration": 0.1837,
      "velocity": 107,
      "chip": "ym2612"
    },
    {
      "channel": 5,
      "note": 82,
      "start": 2.2378,
      "duration": 0.1667,
      "velocity": 107,
      "chip": "ym2612"
    },
    {
      "channel": 4,
      "note": 36,
      "start": 2.2385,
      "duration": 0.1667,
      "velocity": 127,
      "chip": "ym2612"
    },
    {
      "channel": 3,
      "note": 84,
      "start": 2.2388,
      "duration": 0.3332,
      "velocity": 115,
      "chip": "ym2612"
    },
    {
      "channel": 2,
      "note": 87,
      "start": 2.2391,
      "duration": 0.3332,
      "velocity": 115,
      "chip": "ym2612"
    },
    {
      "channel": 1,
      "note": 48,
      "start": 2.2395,
      "duration": 0.1665,
      "velocity": 88,
      "chip": "ym2612"
    },
    {
      "channel": 0,
      "note": 84,
      "start": 2.2398,
      "duration": 0.3332,
      "velocity": 107,
      "chip": "ym2612"
    },
    {
      "channel": 5,
      "note": 84,
      "start": 2.4045,
      "duration": 0.3333,
      "velocity": 107,
      "chip": "ym2612"
    },
    {
      "channel": 4,
      "note": 27,
      "start": 2.4052,
      "duration": 0.1665,
      "velocity": 122,
      "chip": "ym2612"
    },
    {
      "channel": 1,
      "note": 48,
      "start": 2.4059,
      "duration": 0.1668,
      "velocity": 88,
      "chip": "ym2612"
    },
    {
      "channel": 4,
      "note": 48,
      "start": 2.5717,
      "duration": 0.1668,
      "velocity": 127,
      "chip": "ym2612"
    },
    {
      "channel": 3,
      "note": 84,
      "start": 2.5721,
      "duration": 0.5167,
      "velocity": 115,
      "chip": "ym2612"
    },
    {
      "channel": 2,
      "note": 89,
      "start": 2.5724,
      "duration": 0.5167,
      "velocity": 115,
      "chip": "ym2612"
    },
    {
      "channel": 1,
      "note": 50,
      "start": 2.5727,
      "duration": 0.1666,
      "velocity": 88,
      "chip": "ym2612"
    },
    {
      "channel": 0,
      "note": 81,
      "start": 2.573,
      "duration": 0.5167,
      "velocity": 107,
      "chip": "ym2612"
    },
    {
      "channel": 5,
      "note": 81,
      "start": 2.7378,
      "duration": 0.5167,
      "velocity": 107,
      "chip": "ym2612"
    },
    {
      "channel": 4,
      "note": 36,
      "start": 2.7385,
      "duration": 0.1832,
      "velocity": 122,
      "chip": "ym2612"
    },
    {
      "channel": 1,
      "note": 50,
      "start": 2.7393,
      "duration": 0.1832,
      "velocity": 88,
      "chip": "ym2612"
    },
    {
      "channel": 4,
      "note": 48,
      "start": 2.9217,
      "duration": 0.1667,
      "velocity": 127,
      "chip": "ym2612"
    },
    {
      "channel": 1,
      "note": 50,
      "start": 2.9225,
      "duration": 0.1669,
      "velocity": 88,
      "chip": "ym2612"
    },
    {
      "channel": 4,
      "note": 27,
      "start": 3.0884,
      "duration": 0.1667,
      "velocity": 127,
      "chip": "ym2612"
    },
    {
      "channel": 3,
      "note": 84,
      "start": 3.0888,
      "duration": 0.1667,
      "velocity": 115,
      "chip": "ym2612"
    },
    {
      "channel": 2,
      "note": 89,
      "start": 3.0891,
      "duration": 0.1667,
      "velocity": 115,
      "chip": "ym2612"
    },
    {
      "channel": 1,
      "note": 50,
      "start": 3.0894,
      "duration": 0.1667,
      "velocity": 88,
      "chip": "ym2612"
    },
    {
      "channel": 0,
      "note": 77,
      "start": 3.0897,
      "duration": 0.5166,
      "velocity": 107,
      "chip": "ym2612"
    },
    {
      "channel": 5,
      "note": 77,
      "start": 3.2545,
      "duration": 0.5167,
      "velocity": 107,
      "chip": "ym2612"
    },
    {
      "channel": 4,
      "note": 36,
      "start": 3.2551,
      "duration": 0.1666,
      "velocity": 122,
      "chip": "ym2612"
    },
    {
      "channel": 3,
      "note": 84,
      "start": 3.2555,
      "duration": 0.3499,
      "velocity": 115,
      "chip": "ym2612"
    },
    {
      "channel": 2,
      "note": 89,
      "start": 3.2558,
      "duration": 0.3499,
      "velocity": 115,
      "chip": "ym2612"
    },
    {
      "channel": 1,
      "note": 50,
      "start": 3.2561,
      "duration": 0.1663,
      "velocity": 88,
      "chip": "ym2612"
    },
    {
      "channel": 4,
      "note": 48,
      "start": 3.4217,
      "duration": 0.1833,
      "velocity": 127,
      "chip": "ym2612"
    },
    {
      "channel": 1,
      "note": 50,
      "start": 3.4225,
      "duration": 0.1835,
      "velocity": 88,
      "chip": "ym2612"
    },
    {
      "channel": 4,
      "note": 36,
      "start": 3.605,
      "duration": 0.1668,
      "velocity": 127,
      "chip": "ym2612"
    },
    {
      "channel": 3,
      "note": 84,
      "start": 3.6054,
      "duration": 0.3333,
      "velocity": 115,
      "chip": "ym2612"
    },
    {
      "channel": 2,
      "note": 89,
      "start": 3.6057,
      "duration": 0.3333,
      "velocity": 115,
      "chip": "ym2612"
    },
    {
      "channel": 1,
      "note": 45,
      "start": 3.606,
      "duration": 0.1666,
      "velocity": 88,
      "chip": "ym2612"
    },
    {
      "channel": 0,
      "note": 79,
      "start": 3.6063,
      "duration": 0.1666,
      "velocity": 107,
      "chip": "ym2612"
    },
    {
      "channel": 5,
      "note": 79,
      "start": 3.7711,
      "duration": 0.1687,
      "velocity": 107,
      "chip": "ym2612"
    },
    {
      "channel": 4,
      "note": 27,
      "start": 3.7719,
      "duration": 0.1665,
      "velocity": 122,
      "chip": "ym2612"
    },
    {
      "channel": 1,
      "note": 45,
      "start": 3.7726,
      "duration": 0.1667,
      "velocity": 88,
      "chip": "ym2612"
    },
    {
      "channel": 4,
      "note": 48,
      "start": 3.9383,
      "duration": 0.1668,
      "velocity": 127,
      "chip": "ym2612"
    },
    {
      "channel": 3,
      "note": 84,
      "start": 3.9387,
      "duration": 0.5167,
      "velocity": 115,
      "chip": "ym2612"
    },
    {
      "channel": 2,
      "note": 87,
      "start": 3.939,
      "duration": 0.5167,
      "velocity": 115,
      "chip": "ym2612"
    },
    {
      "channel": 1,
      "note": 44,
      "start": 3.9393,
      "duration": 0.1666,
      "velocity": 88,
      "chip": "ym2612"
    },
    {
      "channel": 0,
      "note": 79,
      "start": 3.9396,
      "duration": 0.5167,
      "velocity": 107,
      "chip": "ym2612"
    },
    {
      "channel": 5,
      "note": 79,
      "start": 4.1045,
      "duration": 0.5166,
      "velocity": 107,
      "chip": "ym2612"
    },
    {
      "channel": 4,
      "note": 36,
      "start": 4.1051,
      "duration": 0.1833,
      "velocity": 122,
      "chip": "ym2612"
    },
    {
      "channel": 1,
      "note": 44,
      "start": 4.1059,
      "duration": 0.1832,
      "velocity": 88,
      "chip": "ym2612"
    },
    {
      "channel": 4,
      "note": 48,
      "start": 4.2884,
      "duration": 0.1667,
      "velocity": 127,
      "chip": "ym2612"
    },
    {
      "channel": 1,
      "note": 44,
      "start": 4.2892,
      "duration": 0.1669,
      "velocity": 88,
      "chip": "ym2612"
    },
    {
      "channel": 4,
      "note": 27,
      "start": 4.4551,
      "duration": 0.1667,
      "velocity": 127,
      "chip": "ym2612"
    },
    {
      "channel": 3,
      "note": 84,
      "start": 4.4554,
      "duration": 0.1668,
      "velocity": 115,
      "chip": "ym2612"
    },
    {
      "channel": 2,
      "note": 87,
      "start": 4.4557,
      "duration": 0.1667,
      "velocity": 115,
      "chip": "ym2612"
    },
    {
      "channel": 1,
      "note": 44,
      "start": 4.4561,
      "duration": 0.1667,
      "velocity": 88,
      "chip": "ym2612"
    },
    {
      "channel": 0,
      "note": 75,
      "start": 4.4564,
      "duration": 0.5,
      "velocity": 107,
      "chip": "ym2612"
    },
    {
      "channel": 5,
      "note": 75,
      "start": 4.6211,
      "duration": 0.5167,
      "velocity": 107,
      "chip": "ym2612"
    },
    {
      "channel": 4,
      "note": 36,
      "start": 4.6218,
      "duration": 0.1666,
      "velocity": 122,
      "chip": "ym2612"
    },
    {
      "channel": 3,
      "note": 84,
      "start": 4.6222,
      "duration": 0.3332,
      "velocity": 115,
      "chip": "ym2612"
    },
    {
      "channel": 2,
      "note": 87,
      "start": 4.6225,
      "duration": 0.3332,
      "velocity": 115,
      "chip": "ym2612"
    },
    {
      "channel": 1,
      "note": 44,
      "start": 4.6228,
      "duration": 0.1663,
      "velocity": 88,
      "chip": "ym2612"
    },
    {
      "channel": 4,
      "note": 48,
      "start": 4.7884,
      "duration": 0.1667,
      "velocity": 127,
      "chip": "ym2612"
    },
    {
      "channel": 1,
      "note": 44,
      "start": 4.7892,
      "duration": 0.1669,
      "velocity": 88,
      "chip": "ym2612"
    },
    {
      "channel": 4,
      "note": 36,
      "start": 4.9551,
      "duration": 0.1834,
      "velocity": 127,
      "chip": "ym2612"
    },
    {
      "channel": 3,
      "note": 84,
      "start": 4.9554,
      "duration": 0.3501,
      "velocity": 115,
      "chip": "ym2612"
    },
    {
      "channel": 2,
      "note": 87,
      "start": 4.9557,
      "duration": 0.3501,
      "velocity": 115,
      "chip": "ym2612"
    },
    {
      "channel": 1,
      "note": 44,
      "start": 4.956,
      "duration": 0.1833,
      "velocity": 88,
      "chip": "ym2612"
    },
    {
      "channel": 0,
      "note": 77,
      "start": 4.9564,
      "duration": 0.1833,
      "velocity": 107,
      "chip": "ym2612"
    },
    {
      "channel": 5,
      "note": 77,
      "start": 5.1378,
      "duration": 0.1667,
      "velocity": 107,
      "chip": "ym2612"
    },
    {
      "channel": 4,
      "note": 27,
      "start": 5.1385,
      "duration": 0.1666,
      "velocity": 122,
      "chip": "ym2612"
    },
    {
      "channel": 1,
      "note": 44,
      "start": 5.1393,
      "duration": 0.1668,
      "velocity": 88,
      "chip": "ym2612"
    },
    {
      "channel": 0,
      "note": 75,
      "start": 5.1397,
      "duration": 0.1668,
      "velocity": 107,
      "chip": "ym2612"
    },
    {
      "channel": 5,
      "note": 75,
      "start": 5.3045,
      "duration": 0.1667,
      "velocity": 107,
      "chip": "ym2612"
    },
    {
      "channel": 4,
      "note": 48,
      "start": 5.3052,
      "duration": 0.1666,
      "velocity": 127,
      "chip": "ym2612"
    },
    {
      "channel": 3,
      "note": 82,
      "start": 5.3055,
      "duration": 0.5166,
      "velocity": 115,
      "chip": "ym2612"
    },
    {
      "channel": 2,
      "note": 86,
      "start": 5.3058,
      "duration": 0.5166,
      "velocity": 115,
      "chip": "ym2612"
    },
    {
      "channel": 1,
      "note": 43,
      "start": 5.3061,
      "duration": 0.1664,
      "velocity": 88,
      "chip": "ym2612"
    },
    {
      "channel": 0,
      "note": 74,
      "start": 5.3065,
      "duration": 1.0166,
      "velocity": 107,
      "chip": "ym2612"
    },
    {
      "channel": 5,
      "note": 74,
      "start": 5.4711,
      "duration": 1.0333,
      "velocity": 107,
      "chip": "ym2612"
    },
    {
      "channel": 4,
      "note": 36,
      "start": 5.4718,
      "duration": 0.1666,
      "velocity": 122,
      "chip": "ym2612"
    },
    {
      "channel": 1,
      "note": 43,
      "start": 5.4726,
      "duration": 0.1666,
      "velocity": 88,
      "chip": "ym2612"
    },
    {
      "channel": 4,
      "note": 48,
      "start": 5.6384,
      "duration": 0.1834,
      "velocity": 127,
      "chip": "ym2612"
    },
    {
      "channel": 1,
      "note": 43,
      "start": 5.6392,
      "duration": 0.1835,
      "velocity": 88,
      "chip": "ym2612"
    },
    {
      "channel": 4,
      "note": 27,
      "start": 5.8217,
      "duration": 0.1666,
      "velocity": 127,
      "chip": "ym2612"
    },
    {
      "channel": 3,
      "note": 82,
      "start": 5.8221,
      "duration": 0.1666,
      "velocity": 115,
      "chip": "ym2612"
    },
    {
      "channel": 2,
      "note": 86,
      "start": 5.8224,
      "duration": 0.1667,
      "velocity": 115,
      "chip": "ym2612"
    },
    {
      "channel": 1,
      "note": 43,
      "start": 5.8227,
      "duration": 0.1667,
      "velocity": 88,
      "chip": "ym2612"
    },
    {
      "channel": 4,
      "note": 36,
      "start": 5.9884,
      "duration": 0.1667,
      "velocity": 122,
      "chip": "ym2612"
    },
    {
      "channel": 3,
      "note": 82,
      "start": 5.9887,
      "duration": 0.3333,
      "velocity": 115,
      "chip": "ym2612"
    },
    {
      "channel": 2,
      "note": 86,
      "start": 5.9891,
      "duration": 0.3333,
      "velocity": 115,
      "chip": "ym2612"
    },
    {
      "channel": 1,
      "note": 43,
      "start": 5.9894,
      "duration": 0.1664,
      "velocity": 88,
      "chip": "ym2612"
    },
    {
      "channel": 4,
      "note": 48,
      "start": 6.1551,
      "duration": 0.1666,
      "velocity": 127,
      "chip": "ym2612"
    },
    {
      "channel": 1,
      "note": 43,
      "start": 6.1559,
      "duration": 0.1668,
      "velocity": 88,
      "chip": "ym2612"
    },
    {
      "channel": 4,
      "note": 36,
      "start": 6.3217,
      "duration": 0.1834,
      "velocity": 127,
      "chip": "ym2612"
    },
    {
      "channel": 3,
      "note": 82,
      "start": 6.3221,
      "duration": 0.3499,
      "velocity": 115,
      "chip": "ym2612"
    },
    {
      "channel": 2,
      "note": 86,
      "start": 6.3224,
      "duration": 0.3499,
      "velocity": 115,
      "chip": "ym2612"
    },
    {
      "channel": 1,
      "note": 50,
      "start": 6.3227,
      "duration": 0.1833,
      "velocity": 88,
      "chip": "ym2612"
    },
    {
      "channel": 0,
      "note": 79,
      "start": 6.323,
      "duration": 0.1833,
      "velocity": 107,
      "chip": "ym2612"
    },
    {
      "channel": 5,
      "note": 79,
      "start": 6.5045,
      "duration": 0.1687,
      "velocity": 107,
      "chip": "ym2612"
    },
    {
      "channel": 4,
      "note": 27,
      "start": 6.5052,
      "duration": 0.1665,
      "velocity": 122,
      "chip": "ym2612"
    },
    {
      "channel": 1,
      "note": 50,
      "start": 6.506,
      "duration": 0.1667,
      "velocity": 88,
      "chip": "ym2612"
    },
    {
      "channel": 4,
      "note": 48,
      "start": 6.6717,
      "duration": 0.1668,
      "velocity": 127,
      "chip": "ym2612"
    },
    {
      "channel": 3,
      "note": 80,
      "start": 6.672,
      "duration": 0.5167,
      "velocity": 115,
      "chip": "ym2612"
    },
    {
      "channel": 2,
      "note": 84,
      "start": 6.6723,
      "duration": 0.5167,
      "velocity": 115,
      "chip": "ym2612"
    },
    {
      "channel": 1,
      "note": 49,
      "start": 6.6727,
      "duration": 0.1666,
      "velocity": 88,
      "chip": "ym2612"
    },
    {
      "channel": 0,
      "note": 77,
      "start": 6.673,
      "duration": 1.0167,
      "velocity": 107,
      "chip": "ym2612"
    },
    {
      "channel": 5,
      "note": 77,
      "start": 6.8378,
      "duration": 1.0333,
      "velocity": 107,
      "chip": "ym2612"
    },
    {
      "channel": 4,
      "note": 36,
      "start": 6.8385,
      "duration": 0.1666,
      "velocity": 122,
      "chip": "ym2612"
    },
    {
      "channel": 1,
      "note": 49,
      "start": 6.8393,
      "duration": 0.1666,
      "velocity": 88,
      "chip": "ym2612"
    },
    {
      "channel": 4,
      "note": 48,
      "start": 7.0051,
      "duration": 0.1834,
      "velocity": 127,
      "chip": "ym2612"
    },
    {
      "channel": 1,
      "note": 49,
      "start": 7.0059,
      "duration": 0.1835,
      "velocity": 88,
      "chip": "ym2612"
    },
    {
      "channel": 4,
      "note": 27,
      "start": 7.1884,
      "duration": 0.1666,
      "velocity": 127,
      "chip": "ym2612"
    },
    {
      "channel": 3,
      "note": 80,
      "start": 7.1888,
      "duration": 0.1666,
      "velocity": 115,
      "chip": "ym2612"
    },
    {
      "channel": 2,
      "note": 84,
      "start": 7.1891,
      "duration": 0.1666,
      "velocity": 115,
      "chip": "ym2612"
    },
    {
      "channel": 1,
      "note": 49,
      "start": 7.1894,
      "duration": 0.1666,
      "velocity": 88,
      "chip": "ym2612"
    },
    {
      "channel": 4,
      "note": 36,
      "start": 7.3551,
      "duration": 0.1667,
      "velocity": 122,
      "chip": "ym2612"
    },
    {
      "channel": 3,
      "note": 80,
      "start": 7.3554,
      "duration": 0.3333,
      "velocity": 115,
      "chip": "ym2612"
    },
    {
      "channel": 2,
      "note": 84,
      "start": 7.3557,
      "duration": 0.3333,
      "velocity": 115,
      "chip": "ym2612"
    },
    {
      "channel": 1,
      "note": 49,
      "start": 7.3561,
      "duration": 0.1664,
      "velocity": 88,
      "chip": "ym2612"
    },
    {
      "channel": 4,
      "note": 48,
      "start": 7.5217,
      "duration": 0.1666,
      "velocity": 127,
      "chip": "ym2612"
    },
    {
      "channel": 1,
      "note": 49,
      "start": 7.5225,
      "duration": 0.1669,
      "velocity": 88,
      "chip": "ym2612"
    },
    {
      "channel": 4,
      "note": 36,
      "start": 7.6884,
      "duration": 0.1834,
      "velocity": 127,
      "chip": "ym2612"
    },
    {
      "channel": 3,
      "note": 80,
      "start": 7.6887,
      "duration": 0.3501,
      "velocity": 115,
      "chip": "ym2612"
    },
    {
      "channel": 2,
      "note": 84,
      "start": 7.689,
      "duration": 0.3501,
      "velocity": 115,
      "chip": "ym2612"
    },
    {
      "channel": 1,
      "note": 49,
      "start": 7.6894,
      "duration": 0.1833,
      "velocity": 88,
      "chip": "ym2612"
    },
    {
      "channel": 0,
      "note": 80,
      "start": 7.6897,
      "duration": 0.1833,
      "velocity": 107,
      "chip": "ym2612"
    },
    {
      "channel": 5,
      "note": 80,
      "start": 7.8711,
      "duration": 0.1667,
      "velocity": 107,
      "chip": "ym2612"
    },
    {
      "channel": 4,
      "note": 27,
      "start": 7.8719,
      "duration": 0.1666,
      "velocity": 122,
      "chip": "ym2612"
    },
    {
      "channel": 1,
      "note": 49,
      "start": 7.8727,
      "duration": 0.1668,
      "velocity": 88,
      "chip": "ym2612"
    },
    {
      "channel": 0,
      "note": 82,
      "start": 7.873,
      "duration": 0.1668,
      "velocity": 107,
      "chip": "ym2612"
    },
    {
      "channel": 5,
      "note": 82,
      "start": 8.0378,
      "duration": 0.1667,
      "velocity": 107,
      "chip": "ym2612"
    },
    {
      "channel": 4,
      "note": 48,
      "start": 8.0385,
      "duration": 0.1666,
      "velocity": 127,
      "chip": "ym2612"
    },
    {
      "channel": 3,
      "note": 82,
      "start": 8.0388,
      "duration": 0.5166,
      "velocity": 115,
      "chip": "ym2612"
    },
    {
      "channel": 2,
      "note": 87,
      "start": 8.0392,
      "duration": 0.5166,
      "velocity": 115,
      "chip": "ym2612"
    },
    {
      "channel": 1,
      "note": 48,
      "start": 8.0395,
      "duration": 0.1664,
      "velocity": 88,
      "chip": "ym2612"
    },
    {
      "channel": 0,
      "note": 79,
      "start": 8.0398,
      "duration": 0.5166,
      "velocity": 107,
      "chip": "ym2612"
    },
    {
      "channel": 5,
      "note": 79,
      "start": 8.2045,
      "duration": 0.5166,
      "velocity": 107,
      "chip": "ym2612"
    },
    {
      "channel": 4,
      "note": 36,
      "start": 8.2051,
      "duration": 0.1666,
      "velocity": 122,
      "chip": "ym2612"
    },
    {
      "channel": 1,
      "note": 48,
      "start": 8.2059,
      "duration": 0.1666,
      "velocity": 88,
      "chip": "ym2612"
    },
    {
      "channel": 4,
      "note": 48,
      "start": 8.3717,
      "duration": 0.1834,
      "velocity": 127,
      "chip": "ym2612"
    },
    {
      "channel": 1,
      "note": 48,
      "start": 8.3725,
      "duration": 0.1835,
      "velocity": 88,
      "chip": "ym2612"
    },
    {
      "channel": 4,
      "note": 27,
      "start": 8.5551,
      "duration": 0.1667,
      "velocity": 127,
      "chip": "ym2612"
    },
    {
      "channel": 3,
      "note": 82,
      "start": 8.5554,
      "duration": 0.1667,
      "velocity": 115,
      "chip": "ym2612"
    },
    {
      "channel": 2,
      "note": 87,
      "start": 8.5557,
      "duration": 0.1667,
      "velocity": 115,
      "chip": "ym2612"
    },
    {
      "channel": 1,
      "note": 48,
      "start": 8.5561,
      "duration": 0.1667,
      "velocity": 88,
      "chip": "ym2612"
    },
    {
      "channel": 0,
      "note": 75,
      "start": 8.5564,
      "duration": 0.5,
      "velocity": 107,
      "chip": "ym2612"
    },
    {
      "channel": 5,
      "note": 75,
      "start": 8.7211,
      "duration": 0.5,
      "velocity": 107,
      "chip": "ym2612"
    },
    {
      "channel": 4,
      "note": 36,
      "start": 8.7218,
      "duration": 0.1666,
      "velocity": 122,
      "chip": "ym2612"
    },
    {
      "channel": 3,
      "note": 82,
      "start": 8.7222,
      "duration": 0.3332,
      "velocity": 115,
      "chip": "ym2612"
    },
    {
      "channel": 2,
      "note": 87,
      "start": 8.7225,
      "duration": 0.3332,
      "velocity": 115,
      "chip": "ym2612"
    },
    {
      "channel": 1,
      "note": 48,
      "start": 8.7228,
      "duration": 0.1663,
      "velocity": 88,
      "chip": "ym2612"
    },
    {
      "channel": 4,
      "note": 48,
      "start": 8.8884,
      "duration": 0.1667,
      "velocity": 127,
      "chip": "ym2612"
    },
    {
      "channel": 1,
      "note": 48,
      "start": 8.8892,
      "duration": 0.1669,
      "velocity": 88,
      "chip": "ym2612"
    },
    {
      "channel": 4,
      "note": 36,
      "start": 9.0551,
      "duration": 0.1668,
      "velocity": 127,
      "chip": "ym2612"
    },
    {
      "channel": 3,
      "note": 82,
      "start": 9.0554,
      "duration": 0.3499,
      "velocity": 115,
      "chip": "ym2612"
    },
    {
      "channel": 2,
      "note": 87,
      "start": 9.0557,
      "duration": 0.35,
      "velocity": 115,
      "chip": "ym2612"
    },
    {
      "channel": 1,
      "note": 48,
      "start": 9.056,
      "duration": 0.1666,
      "velocity": 88,
      "chip": "ym2612"
    },
    {
      "channel": 0,
      "note": 77,
      "start": 9.0564,
      "duration": 0.1666,
      "velocity": 107,
      "chip": "ym2612"
    },
    {
      "channel": 5,
      "note": 77,
      "start": 9.2211,
      "duration": 0.1854,
      "velocity": 107,
      "chip": "ym2612"
    },
    {
      "channel": 4,
      "note": 27,
      "start": 9.2219,
      "duration": 0.1831,
      "velocity": 122,
      "chip": "ym2612"
    },
    {
      "channel": 1,
      "note": 48,
      "start": 9.2226,
      "duration": 0.1834,
      "velocity": 88,
      "chip": "ym2612"
    },
    {
      "channel": 4,
      "note": 48,
      "start": 9.405,
      "duration": 0.1668,
      "velocity": 127,
      "chip": "ym2612"
    },
    {
      "channel": 3,
      "note": 82,
      "start": 9.4053,
      "duration": 0.5002,
      "velocity": 115,
      "chip": "ym2612"
    },
    {
      "channel": 2,
      "note": 86,
      "start": 9.4057,
      "duration": 0.5001,
      "velocity": 115,
      "chip": "ym2612"
    },
    {
      "channel": 1,
      "note": 46,
      "start": 9.406,
      "duration": 0.1666,
      "velocity": 88,
      "chip": "ym2612"
    },
    {
      "channel": 0,
      "note": 77,
      "start": 9.4063,
      "duration": 0.6831,
      "velocity": 107,
      "chip": "ym2612"
    },
    {
      "channel": 5,
      "note": 77,
      "start": 9.5711,
      "duration": 0.6844,
      "velocity": 107,
      "chip": "ym2612"
    },
    {
      "channel": 4,
      "note": 36,
      "start": 9.5718,
      "duration": 0.1666,
      "velocity": 122,
      "chip": "ym2612"
    },
    {
      "channel": 1,
      "note": 46,
      "start": 9.5726,
      "duration": 0.1668,
      "velocity": 88,
      "chip": "ym2612"
    },
    {
      "channel": 4,
      "note": 48,
      "start": 9.7384,
      "duration": 0.1668,
      "velocity": 127,
      "chip": "ym2612"
    },
    {
      "channel": 4,
      "note": 81,
      "start": 9.9051,
      "duration": 0.1829,
      "velocity": 127,
      "chip": "ym2612"
    },
    {
      "channel": 3,
      "note": 82,
      "start": 9.9055,
      "duration": 0.1829,
      "velocity": 115,
      "chip": "ym2612"
    },
    {
      "channel": 2,
      "note": 86,
      "start": 9.9058,
      "duration": 0.1829,
      "velocity": 115,
      "chip": "ym2612"
    },
    {
      "channel": 1,
      "note": 58,
      "start": 9.9061,
      "duration": 0.1829,
      "velocity": 88,
      "chip": "ym2612"
    },
    {
      "channel": 4,
      "note": 81,
      "start": 10.0881,
      "duration": 0.3337,
      "velocity": 127,
      "chip": "ym2612"
    },
    {
      "channel": 3,
      "note": 82,
      "start": 10.0884,
      "duration": 0.167,
      "velocity": 115,
      "chip": "ym2612"
    },
    {
      "channel": 2,
      "note": 86,
      "start": 10.0887,
      "duration": 0.1666,
      "velocity": 115,
      "chip": "ym2612"
    },
    {
      "channel": 1,
      "note": 46,
      "start": 10.089,
      "duration": 0.1663,
      "velocity": 88,
      "chip": "ym2612"
    },
    {
      "channel": 4,
      "note": 48,
      "start": 10.7716,
      "duration": 0.1669,
      "velocity": 122,
      "chip": "ym2612"
    },
    {
      "channel": 3,
      "note": 80,
      "start": 10.7719,
      "duration": 0.1669,
      "velocity": 115,
      "chip": "ym2612"
    },
    {
      "channel": 2,
      "note": 84,
      "start": 10.7723,
      "duration": 0.1669,
      "velocity": 115,
      "chip": "ym2612"
    },
    {
      "channel": 1,
      "note": 44,
      "start": 10.7726,
      "duration": 0.1669,
      "velocity": 88,
      "chip": "ym2612"
    },
    {
      "channel": 0,
      "note": 87,
      "start": 10.7734,
      "duration": 0.0821,
      "velocity": 51,
      "chip": "ym2612"
    },
    {
      "channel": 5,
      "note": 87,
      "start": 10.9382,
      "duration": 0.084,
      "velocity": 51,
      "chip": "ym2612"
    },
    {
      "channel": 4,
      "note": 48,
      "start": 10.9385,
      "duration": 0.1666,
      "velocity": 127,
      "chip": "ym2612"
    },
    {
      "channel": 3,
      "note": 82,
      "start": 10.9389,
      "duration": 0.3334,
      "velocity": 115,
      "chip": "ym2612"
    },
    {
      "channel": 2,
      "note": 86,
      "start": 10.9392,
      "duration": 0.3334,
      "velocity": 115,
      "chip": "ym2612"
    },
    {
      "channel": 1,
      "note": 46,
      "start": 10.9395,
      "duration": 0.1668,
      "velocity": 88,
      "chip": "ym2612"
    },
    {
      "channel": 0,
      "note": 89,
      "start": 10.9399,
      "duration": 0.0823,
      "velocity": 51,
      "chip": "ym2612"
    },
    {
      "channel": 5,
      "note": 89,
      "start": 11.1045,
      "duration": 0.0843,
      "velocity": 51,
      "chip": "ym2612"
    },
    {
      "channel": 4,
      "note": 36,
      "start": 11.1051,
      "duration": 0.1668,
      "velocity": 127,
      "chip": "ym2612"
    },
    {
      "channel": 0,
      "note": 89,
      "start": 11.1061,
      "duration": 0.0826,
      "velocity": 51,
      "chip": "ym2612"
    },
    {
      "channel": 5,
      "note": 89,
      "start": 11.2712,
      "duration": 0.0845,
      "velocity": 51,
      "chip": "ym2612"
    },
    {
      "channel": 4,
      "note": 81,
      "start": 11.2719,
      "duration": 0.1829,
      "velocity": 127,
      "chip": "ym2612"
    },
    {
      "channel": 3,
      "note": 82,
      "start": 11.2723,
      "duration": 0.1829,
      "velocity": 115,
      "chip": "ym2612"
    },
    {
      "channel": 2,
      "note": 86,
      "start": 11.2726,
      "duration": 0.1829,
      "velocity": 115,
      "chip": "ym2612"
    },
    {
      "channel": 1,
      "note": 58,
      "start": 11.2729,
      "duration": 0.1829,
      "velocity": 88,
      "chip": "ym2612"
    },
    {
      "channel": 0,
      "note": 89,
      "start": 11.2733,
      "duration": 0.0823,
      "velocity": 51,
      "chip": "ym2612"
    },
    {
      "channel": 5,
      "note": 89,
      "start": 11.4545,
      "duration": 0.0845,
      "velocity": 51,
      "chip": "ym2612"
    },
    {
      "channel": 4,
      "note": 81,
      "start": 11.4549,
      "duration": 0.3337,
      "velocity": 127,
      "chip": "ym2612"
    },
    {
      "channel": 3,
      "note": 82,
      "start": 11.4552,
      "duration": 0.1673,
      "velocity": 115,
      "chip": "ym2612"
    },
    {
      "channel": 2,
      "note": 86,
      "start": 11.4555,
      "duration": 0.167,
      "velocity": 115,
      "chip": "ym2612"
    },
    {
      "channel": 1,
      "note": 46,
      "start": 11.4558,
      "duration": 0.1666,
      "velocity": 88,
      "chip": "ym2612"
    },
    {
      "channel": 0,
      "note": 89,
      "start": 11.4562,
      "duration": 0.0827,
      "velocity": 51,
      "chip": "ym2612"
    },
    {
      "channel": 5,
      "note": 89,
      "start": 11.6212,
      "duration": 0.0841,
      "velocity": 51,
      "chip": "ym2612"
    },
    {
      "channel": 0,
      "note": 89,
      "start": 11.6222,
      "duration": 0.0829,
      "velocity": 51,
      "chip": "ym2612"
    },
    {
      "channel": 5,
      "note": 89,
      "start": 11.7878,
      "duration": 0.0845,
      "velocity": 51,
      "chip": "ym2612"
    },
    {
      "channel": 4,
      "note": 27,
      "start": 11.7885,
      "duration": 0.1667,
      "velocity": 127,
      "chip": "ym2612"
    },
    {
      "channel": 3,
      "note": 81,
      "start": 11.7893,
      "duration": 0.1663,
      "velocity": 85,
      "chip": "ym2612"
    },
    {
      "channel": 2,
      "note": 84,
      "start": 11.7901,
      "duration": 0.1659,
      "velocity": 85,
      "chip": "ym2612"
    },
    {
      "channel": 1,
      "note": 50,
      "start": 11.7904,
      "duration": 0.1659,
      "velocity": 88,
      "chip": "ym2612"
    },
    {
      "channel": 0,
      "note": 90,
      "start": 11.7912,
      "duration": 0.1654,
      "velocity": 85,
      "chip": "ym2612"
    },
    {
      "channel": 5,
      "note": 90,
      "start": 11.9549,
      "duration": 0.1829,
      "velocity": 85,
      "chip": "ym2612"
    },
    {
      "channel": 4,
      "note": 27,
      "start": 11.9553,
      "duration": 0.1829,
      "velocity": 127,
      "chip": "ym2612"
    },
    {
      "channel": 3,
      "note": 81,
      "start": 11.9556,
      "duration": 0.1829,
      "velocity": 85,
      "chip": "ym2612"
    },
    {
      "channel": 2,
      "note": 84,
      "start": 11.956,
      "duration": 0.1829,
      "velocity": 85,
      "chip": "ym2612"
    },
    {
      "channel": 1,
      "note": 62,
      "start": 11.9563,
      "duration": 0.1829,
      "velocity": 88,
      "chip": "ym2612"
    },
    {
      "channel": 0,
      "note": 90,
      "start": 11.9566,
      "duration": 0.1829,
      "velocity": 85,
      "chip": "ym2612"
    },
    {
      "channel": 5,
      "note": 90,
      "start": 12.1378,
      "duration": 0.1666,
      "velocity": 85,
      "chip": "ym2612"
    },
    {
      "channel": 4,
      "note": 27,
      "start": 12.1381,
      "duration": 0.1671,
      "velocity": 122,
      "chip": "ym2612"
    },
    {
      "channel": 3,
      "note": 81,
      "start": 12.1385,
      "duration": 0.1675,
      "velocity": 115,
      "chip": "ym2612"
    },
    {
      "channel": 2,
      "note": 84,
      "start": 12.1388,
      "duration": 0.1679,
      "velocity": 115,
      "chip": "ym2612"
    },
    {
      "channel": 1,
      "note": 50,
      "start": 12.1392,
      "duration": 0.1679,
      "velocity": 88,
      "chip": "ym2612"
    },
    {
      "channel": 0,
      "note": 90,
      "start": 12.1395,
      "duration": 0.168,
      "velocity": 85,
      "chip": "ym2612"
    },
    {
      "channel": 5,
      "note": 90,
      "start": 12.3045,
      "duration": 0.1683,
      "velocity": 85,
      "chip": "ym2612"
    },
    {
      "channel": 4,
      "note": 48,
      "start": 12.3052,
      "duration": 0.1666,
      "velocity": 127,
      "chip": "ym2612"
    },
    {
      "channel": 3,
      "note": 84,
      "start": 12.306,
      "duration": 0.3326,
      "velocity": 115,
      "chip": "ym2612"
    },
    {
      "channel": 2,
      "note": 87,
      "start": 12.3068,
      "duration": 0.3322,
      "velocity": 115,
      "chip": "ym2612"
    },
    {
      "channel": 1,
      "note": 48,
      "start": 12.3071,
      "duration": 0.1654,
      "velocity": 88,
      "chip": "ym2612"
    },
    {
      "channel": 4,
      "note": 36,
      "start": 12.4717,
      "duration": 0.1665,
      "velocity": 127,
      "chip": "ym2612"
    },
    {
      "channel": 1,
      "note": 48,
      "start": 12.4725,
      "duration": 0.1668,
      "velocity": 88,
      "chip": "ym2612"
    },
    {
      "channel": 4,
      "note": 27,
      "start": 12.6383,
      "duration": 0.1839,
      "velocity": 127,
      "chip": "ym2612"
    },
    {
      "channel": 3,
      "note": 84,
      "start": 12.6386,
      "duration": 0.1839,
      "velocity": 115,
      "chip": "ym2612"
    },
    {
      "channel": 2,
      "note": 87,
      "start": 12.639,
      "duration": 0.1839,
      "velocity": 115,
      "chip": "ym2612"
    },
    {
      "channel": 1,
      "note": 48,
      "start": 12.6393,
      "duration": 0.1839,
      "velocity": 88,
      "chip": "ym2612"
    },
    {
      "channel": 0,
      "note": 79,
      "start": 12.64,
      "duration": 0.1835,
      "velocity": 107,
      "chip": "ym2612"
    },
    {
      "channel": 5,
      "note": 79,
      "start": 12.8215,
      "duration": 0.1681,
      "velocity": 107,
      "chip": "ym2612"
    },
    {
      "channel": 4,
      "note": 36,
      "start": 12.8222,
      "duration": 0.1661,
      "velocity": 122,
      "chip": "ym2612"
    },
    {
      "channel": 3,
      "note": 84,
      "start": 12.8225,
      "duration": 0.3329,
      "velocity": 115,
      "chip": "ym2612"
    },
    {
      "channel": 2,
      "note": 87,
      "start": 12.8229,
      "duration": 0.3329,
      "velocity": 115,
      "chip": "ym2612"
    },
    {
      "channel": 1,
      "note": 48,
      "start": 12.8232,
      "duration": 0.1659,
      "velocity": 88,
      "chip": "ym2612"
    },
    {
      "channel": 4,
      "note": 48,
      "start": 12.9883,
      "duration": 0.1668,
      "velocity": 127,
      "chip": "ym2612"
    },
    {
      "channel": 1,
      "note": 48,
      "start": 12.9891,
      "duration": 0.167,
      "velocity": 88,
      "chip": "ym2612"
    },
    {
      "channel": 0,
      "note": 82,
      "start": 12.9894,
      "duration": 0.167,
      "velocity": 107,
      "chip": "ym2612"
    },
    {
      "channel": 5,
      "note": 82,
      "start": 13.1545,
      "duration": 0.1667,
      "velocity": 107,
      "chip": "ym2612"
    },
    {
      "channel": 4,
      "note": 36,
      "start": 13.1551,
      "duration": 0.1667,
      "velocity": 127,
      "chip": "ym2612"
    },
    {
      "channel": 3,
      "note": 84,
      "start": 13.1555,
      "duration": 0.3332,
      "velocity": 115,
      "chip": "ym2612"
    },
    {
      "channel": 2,
      "note": 87,
      "start": 13.1558,
      "duration": 0.3332,
      "velocity": 115,
      "chip": "ym2612"
    },
    {
      "channel": 1,
      "note": 48,
      "start": 13.1561,
      "duration": 0.1665,
      "velocity": 88,
      "chip": "ym2612"
    },
    {
      "channel": 0,
      "note": 84,
      "start": 13.1565,
      "duration": 0.3332,
      "velocity": 107,
      "chip": "ym2612"
    },
    {
      "channel": 5,
      "note": 84,
      "start": 13.3211,
      "duration": 0.35,
      "velocity": 107,
      "chip": "ym2612"
    },
    {
      "channel": 4,
      "note": 27,
      "start": 13.3219,
      "duration": 0.1665,
      "velocity": 122,
      "chip": "ym2612"
    },
    {
      "channel": 1,
      "note": 48,
      "start": 13.3226,
      "duration": 0.1668,
      "velocity": 88,
      "chip": "ym2612"
    },
    {
      "channel": 4,
      "note": 48,
      "start": 13.4884,
      "duration": 0.1834,
      "velocity": 127,
      "chip": "ym2612"
    },
    {
      "channel": 3,
      "note": 84,
      "start": 13.4887,
      "duration": 0.5167,
      "velocity": 115,
      "chip": "ym2612"
    },
    {
      "channel": 2,
      "note": 89,
      "start": 13.489,
      "duration": 0.5167,
      "velocity": 115,
      "chip": "ym2612"
    },
    {
      "channel": 1,
      "note": 50,
      "start": 13.4894,
      "duration": 0.1833,
      "velocity": 88,
      "chip": "ym2612"
    },
    {
      "channel": 0,
      "note": 81,
      "start": 13.4897,
      "duration": 0.5167,
      "velocity": 107,
      "chip": "ym2612"
    },
    {
      "channel": 5,
      "note": 81,
      "start": 13.6711,
      "duration": 0.5,
      "velocity": 107,
      "chip": "ym2612"
    },
    {
      "channel": 4,
      "note": 36,
      "start": 13.6718,
      "duration": 0.1666,
      "velocity": 122,
      "chip": "ym2612"
    },
    {
      "channel": 1,
      "note": 50,
      "start": 13.6726,
      "duration": 0.1665,
      "velocity": 88,
      "chip": "ym2612"
    },
    {
      "channel": 4,
      "note": 48,
      "start": 13.8384,
      "duration": 0.1667,
      "velocity": 127,
      "chip": "ym2612"
    },
    {
      "channel": 1,
      "note": 50,
      "start": 13.8392,
      "duration": 0.1669,
      "velocity": 88,
      "chip": "ym2612"
    },
    {
      "channel": 4,
      "note": 27,
      "start": 14.0051,
      "duration": 0.1667,
      "velocity": 127,
      "chip": "ym2612"
    },
    {
      "channel": 3,
      "note": 84,
      "start": 14.0054,
      "duration": 0.1667,
      "velocity": 115,
      "chip": "ym2612"
    },
    {
      "channel": 2,
      "note": 89,
      "start": 14.0058,
      "duration": 0.1667,
      "velocity": 115,
      "chip": "ym2612"
    },
    {
      "channel": 1,
      "note": 50,
      "start": 14.0061,
      "duration": 0.1667,
      "velocity": 88,
      "chip": "ym2612"
    },
    {
      "channel": 0,
      "note": 77,
      "start": 14.0064,
      "duration": 0.5166,
      "velocity": 107,
      "chip": "ym2612"
    },
    {
      "channel": 5,
      "note": 77,
      "start": 14.1711,
      "duration": 0.5167,
      "velocity": 107,
      "chip": "ym2612"
    },
    {
      "channel": 4,
      "note": 36,
      "start": 14.1718,
      "duration": 0.1832,
      "velocity": 122,
      "chip": "ym2612"
    },
    {
      "channel": 3,
      "note": 84,
      "start": 14.1722,
      "duration": 0.3499,
      "velocity": 115,
      "chip": "ym2612"
    },
    {
      "channel": 2,
      "note": 89,
      "start": 14.1725,
      "duration": 0.3499,
      "velocity": 115,
      "chip": "ym2612"
    },
    {
      "channel": 1,
      "note": 50,
      "start": 14.1728,
      "duration": 0.1831,
      "velocity": 88,
      "chip": "ym2612"
    },
    {
      "channel": 4,
      "note": 48,
      "start": 14.3551,
      "duration": 0.1666,
      "velocity": 127,
      "chip": "ym2612"
    },
    {
      "channel": 1,
      "note": 50,
      "start": 14.3559,
      "duration": 0.1668,
      "velocity": 88,
      "chip": "ym2612"
    },
    {
      "channel": 4,
      "note": 36,
      "start": 14.5217,
      "duration": 0.1668,
      "velocity": 127,
      "chip": "ym2612"
    },
    {
      "channel": 3,
      "note": 84,
      "start": 14.522,
      "duration": 0.3333,
      "velocity": 115,
      "chip": "ym2612"
    },
    {
      "channel": 2,
      "note": 89,
      "start": 14.5224,
      "duration": 0.3333,
      "velocity": 115,
      "chip": "ym2612"
    },
    {
      "channel": 1,
      "note": 45,
      "start": 14.5227,
      "duration": 0.1666,
      "velocity": 88,
      "chip": "ym2612"
    },
    {
      "channel": 0,
      "note": 79,
      "start": 14.523,
      "duration": 0.1666,
      "velocity": 107,
      "chip": "ym2612"
    },
    {
      "channel": 5,
      "note": 79,
      "start": 14.6878,
      "duration": 0.1687,
      "velocity": 107,
      "chip": "ym2612"
    },
    {
      "channel": 4,
      "note": 27,
      "start": 14.6885,
      "duration": 0.1665,
      "velocity": 122,
      "chip": "ym2612"
    },
    {
      "channel": 1,
      "note": 45,
      "start": 14.6893,
      "duration": 0.1667,
      "velocity": 88,
      "chip": "ym2612"
    },
    {
      "channel": 4,
      "note": 48,
      "start": 14.855,
      "duration": 0.1835,
      "velocity": 127,
      "chip": "ym2612"
    },
    {
      "channel": 3,
      "note": 84,
      "start": 14.8553,
      "duration": 0.5168,
      "velocity": 115,
      "chip": "ym2612"
    },
    {
      "channel": 2,
      "note": 87,
      "start": 14.8557,
      "duration": 0.5168,
      "velocity": 115,
      "chip": "ym2612"
    },
    {
      "channel": 1,
      "note": 44,
      "start": 14.856,
      "duration": 0.1833,
      "velocity": 88,
      "chip": "ym2612"
    },
    {
      "channel": 0,
      "note": 79,
      "start": 14.8563,
      "duration": 0.5168,
      "velocity": 107,
      "chip": "ym2612"
    },
    {
      "channel": 5,
      "note": 79,
      "start": 15.0378,
      "duration": 0.5,
      "velocity": 107,
      "chip": "ym2612"
    },
    {
      "channel": 4,
      "note": 36,
      "start": 15.0385,
      "duration": 0.1666,
      "velocity": 122,
      "chip": "ym2612"
    },
    {
      "channel": 1,
      "note": 44,
      "start": 15.0393,
      "duration": 0.1665,
      "velocity": 88,
      "chip": "ym2612"
    },
    {
      "channel": 4,
      "note": 48,
      "start": 15.2051,
      "duration": 0.1667,
      "velocity": 127,
      "chip": "ym2612"
    },
    {
      "channel": 1,
      "note": 44,
      "start": 15.2058,
      "duration": 0.1669,
      "velocity": 88,
      "chip": "ym2612"
    },
    {
      "channel": 4,
      "note": 27,
      "start": 15.3718,
      "duration": 0.1667,
      "velocity": 127,
      "chip": "ym2612"
    },
    {
      "channel": 3,
      "note": 84,
      "start": 15.3721,
      "duration": 0.1667,
      "velocity": 115,
      "chip": "ym2612"
    },
    {
      "channel": 2,
      "note": 87,
      "start": 15.3724,
      "duration": 0.1667,
      "velocity": 115,
      "chip": "ym2612"
    },
    {
      "channel": 1,
      "note": 44,
      "start": 15.3727,
      "duration": 0.1667,
      "velocity": 88,
      "chip": "ym2612"
    },
    {
      "channel": 0,
      "note": 75,
      "start": 15.3731,
      "duration": 0.5166,
      "velocity": 107,
      "chip": "ym2612"
    },
    {
      "channel": 5,
      "note": 75,
      "start": 15.5378,
      "duration": 0.5167,
      "velocity": 107,
      "chip": "ym2612"
    },
    {
      "channel": 4,
      "note": 36,
      "start": 15.5385,
      "duration": 0.1832,
      "velocity": 122,
      "chip": "ym2612"
    },
    {
      "channel": 3,
      "note": 84,
      "start": 15.5388,
      "duration": 0.3499,
      "velocity": 115,
      "chip": "ym2612"
    },
    {
      "channel": 2,
      "note": 87,
      "start": 15.5392,
      "duration": 0.3499,
      "velocity": 115,
      "chip": "ym2612"
    },
    {
      "channel": 1,
      "note": 44,
      "start": 15.5395,
      "duration": 0.1831,
      "velocity": 88,
      "chip": "ym2612"
    },
    {
      "channel": 4,
      "note": 48,
      "start": 15.7217,
      "duration": 0.1666,
      "velocity": 127,
      "chip": "ym2612"
    },
    {
      "channel": 1,
      "note": 44,
      "start": 15.7225,
      "duration": 0.1668,
      "velocity": 88,
      "chip": "ym2612"
    },
    {
      "channel": 4,
      "note": 36,
      "start": 15.8884,
      "duration": 0.1668,
      "velocity": 127,
      "chip": "ym2612"
    },
    {
      "channel": 3,
      "note": 84,
      "start": 15.8887,
      "duration": 0.3334,
      "velocity": 115,
      "chip": "ym2612"
    },
    {
      "channel": 2,
      "note": 87,
      "start": 15.889,
      "duration": 0.3334,
      "velocity": 115,
      "chip": "ym2612"
    },
    {
      "channel": 1,
      "note": 44,
      "start": 15.8894,
      "duration": 0.1666,
      "velocity": 88,
      "chip": "ym2612"
    },
    {
      "channel": 0,
      "note": 77,
      "start": 15.8897,
      "duration": 0.1666,
      "velocity": 107,
      "chip": "ym2612"
    },
    {
      "channel": 5,
      "note": 77,
      "start": 16.0545,
      "duration": 0.1666,
      "velocity": 107,
      "chip": "ym2612"
    },
    {
      "channel": 4,
      "note": 27,
      "start": 16.0552,
      "duration": 0.1666,
      "velocity": 122,
      "chip": "ym2612"
    },
    {
      "channel": 1,
      "note": 44,
      "start": 16.0559,
      "duration": 0.1669,
      "velocity": 88,
      "chip": "ym2612"
    },
    {
      "channel": 0,
      "note": 75,
      "start": 16.0563,
      "duration": 0.1669,
      "velocity": 107,
      "chip": "ym2612"
    },
    {
      "channel": 5,
      "note": 75,
      "start": 16.2211,
      "duration": 0.1833,
      "velocity": 107,
      "chip": "ym2612"
    },
    {
      "channel": 4,
      "note": 48,
      "start": 16.2218,
      "duration": 0.1833,
      "velocity": 127,
      "chip": "ym2612"
    },
    {
      "channel": 3,
      "note": 82,
      "start": 16.2222,
      "duration": 0.5166,
      "velocity": 115,
      "chip": "ym2612"
    },
    {
      "channel": 2,
      "note": 86,
      "start": 16.2225,
      "duration": 0.5166,
      "velocity": 115,
      "chip": "ym2612"
    },
    {
      "channel": 1,
      "note": 43,
      "start": 16.2228,
      "duration": 0.1832,
      "velocity": 88,
      "chip": "ym2612"
    },
    {
      "channel": 0,
      "note": 74,
      "start": 16.2232,
      "duration": 1.0332,
      "velocity": 107,
      "chip": "ym2612"
    },
    {
      "channel": 5,
      "note": 74,
      "start": 16.4045,
      "duration": 1.0167,
      "velocity": 107,
      "chip": "ym2612"
    },
    {
      "channel": 4,
      "note": 36,
      "start": 16.4051,
      "duration": 0.1666,
      "velocity": 122,
      "chip": "ym2612"
    },
    {
      "channel": 1,
      "note": 43,
      "start": 16.406,
      "duration": 0.1665,
      "velocity": 88,
      "chip": "ym2612"
    },
    {
      "channel": 4,
      "note": 48,
      "start": 16.5717,
      "duration": 0.1667,
      "velocity": 127,
      "chip": "ym2612"
    },
    {
      "channel": 1,
      "note": 43,
      "start": 16.5725,
      "duration": 0.1669,
      "velocity": 88,
      "chip": "ym2612"
    },
    {
      "channel": 4,
      "note": 27,
      "start": 16.7384,
      "duration": 0.1666,
      "velocity": 127,
      "chip": "ym2612"
    },
    {
      "channel": 3,
      "note": 82,
      "start": 16.7388,
      "duration": 0.1666,
      "velocity": 115,
      "chip": "ym2612"
    },
    {
      "channel": 2,
      "note": 86,
      "start": 16.7391,
      "duration": 0.1666,
      "velocity": 115,
      "chip": "ym2612"
    },
    {
      "channel": 1,
      "note": 43,
      "start": 16.7394,
      "duration": 0.1666,
      "velocity": 88,
      "chip": "ym2612"
    },
    {
      "channel": 4,
      "note": 36,
      "start": 16.905,
      "duration": 0.1834,
      "velocity": 122,
      "chip": "ym2612"
    },
    {
      "channel": 3,
      "note": 82,
      "start": 16.9054,
      "duration": 0.35,
      "velocity": 115,
      "chip": "ym2612"
    },
    {
      "channel": 2,
      "note": 86,
      "start": 16.9057,
      "duration": 0.35,
      "velocity": 115,
      "chip": "ym2612"
    },
    {
      "channel": 1,
      "note": 43,
      "start": 16.906,
      "duration": 0.1832,
      "velocity": 88,
      "chip": "ym2612"
    },
    {
      "channel": 4,
      "note": 48,
      "start": 17.0884,
      "duration": 0.1666,
      "velocity": 127,
      "chip": "ym2612"
    },
    {
      "channel": 1,
      "note": 43,
      "start": 17.0892,
      "duration": 0.1668,
      "velocity": 88,
      "chip": "ym2612"
    },
    {
      "channel": 4,
      "note": 36,
      "start": 17.2551,
      "duration": 0.1668,
      "velocity": 127,
      "chip": "ym2612"
    },
    {
      "channel": 3,
      "note": 82,
      "start": 17.2554,
      "duration": 0.3333,
      "velocity": 115,
      "chip": "ym2612"
    },
    {
      "channel": 2,
      "note": 86,
      "start": 17.2557,
      "duration": 0.3333,
      "velocity": 115,
      "chip": "ym2612"
    },
    {
      "channel": 1,
      "note": 50,
      "start": 17.256,
      "duration": 0.1666,
      "velocity": 88,
      "chip": "ym2612"
    },
    {
      "channel": 0,
      "note": 79,
      "start": 17.2564,
      "duration": 0.1666,
      "velocity": 107,
      "chip": "ym2612"
    },
    {
      "channel": 5,
      "note": 79,
      "start": 17.4211,
      "duration": 0.1687,
      "velocity": 107,
      "chip": "ym2612"
    },
    {
      "channel": 4,
      "note": 27,
      "start": 17.4219,
      "duration": 0.1665,
      "velocity": 122,
      "chip": "ym2612"
    },
    {
      "channel": 1,
      "note": 50,
      "start": 17.4226,
      "duration": 0.1667,
      "velocity": 88,
      "chip": "ym2612"
    },
    {
      "channel": 4,
      "note": 48,
      "start": 17.5883,
      "duration": 0.1668,
      "velocity": 127,
      "chip": "ym2612"
    },
    {
      "channel": 3,
      "note": 80,
      "start": 17.5887,
      "duration": 0.5167,
      "velocity": 115,
      "chip": "ym2612"
    },
    {
      "channel": 2,
      "note": 84,
      "start": 17.589,
      "duration": 0.5167,
      "velocity": 115,
      "chip": "ym2612"
    },
    {
      "channel": 1,
      "note": 49,
      "start": 17.5893,
      "duration": 0.1666,
      "velocity": 88,
      "chip": "ym2612"
    },
    {
      "channel": 0,
      "note": 77,
      "start": 17.5896,
      "duration": 1.0334,
      "velocity": 107,
      "chip": "ym2612"
    },
    {
      "channel": 5,
      "note": 77,
      "start": 17.7545,
      "duration": 1.0333,
      "velocity": 107,
      "chip": "ym2612"
    },
    {
      "channel": 4,
      "note": 36,
      "start": 17.7551,
      "duration": 0.1833,
      "velocity": 122,
      "chip": "ym2612"
    },
    {
      "channel": 1,
      "note": 49,
      "start": 17.7559,
      "duration": 0.1832,
      "velocity": 88,
      "chip": "ym2612"
    },
    {
      "channel": 4,
      "note": 48,
      "start": 17.9384,
      "duration": 0.1667,
      "velocity": 127,
      "chip": "ym2612"
    },
    {
      "channel": 1,
      "note": 49,
      "start": 17.9392,
      "duration": 0.1669,
      "velocity": 88,
      "chip": "ym2612"
    },
    {
      "channel": 4,
      "note": 27,
      "start": 18.1051,
      "duration": 0.1666,
      "velocity": 127,
      "chip": "ym2612"
    },
    {
      "channel": 3,
      "note": 80,
      "start": 18.1054,
      "duration": 0.1666,
      "velocity": 115,
      "chip": "ym2612"
    },
    {
      "channel": 2,
      "note": 84,
      "start": 18.1057,
      "duration": 0.1666,
      "velocity": 115,
      "chip": "ym2612"
    },
    {
      "channel": 1,
      "note": 49,
      "start": 18.1061,
      "duration": 0.1666,
      "velocity": 88,
      "chip": "ym2612"
    },
    {
      "channel": 4,
      "note": 36,
      "start": 18.2717,
      "duration": 0.1667,
      "velocity": 122,
      "chip": "ym2612"
    },
    {
      "channel": 3,
      "note": 80,
      "start": 18.2721,
      "duration": 0.35,
      "velocity": 115,
      "chip": "ym2612"
    },
    {
      "channel": 2,
      "note": 84,
      "start": 18.2724,
      "duration": 0.35,
      "velocity": 115,
      "chip": "ym2612"
    },
    {
      "channel": 1,
      "note": 49,
      "start": 18.2727,
      "duration": 0.1664,
      "velocity": 88,
      "chip": "ym2612"
    },
    {
      "channel": 4,
      "note": 48,
      "start": 18.4384,
      "duration": 0.1833,
      "velocity": 127,
      "chip": "ym2612"
    },
    {
      "channel": 1,
      "note": 49,
      "start": 18.4392,
      "duration": 0.1835,
      "velocity": 88,
      "chip": "ym2612"
    },
    {
      "channel": 4,
      "note": 36,
      "start": 18.6217,
      "duration": 0.1668,
      "velocity": 127,
      "chip": "ym2612"
    },
    {
      "channel": 3,
      "note": 80,
      "start": 18.622,
      "duration": 0.3334,
      "velocity": 115,
      "chip": "ym2612"
    },
    {
      "channel": 2,
      "note": 84,
      "start": 18.6224,
      "duration": 0.3334,
      "velocity": 115,
      "chip": "ym2612"
    },
    {
      "channel": 1,
      "note": 49,
      "start": 18.6227,
      "duration": 0.1666,
      "velocity": 88,
      "chip": "ym2612"
    },
    {
      "channel": 0,
      "note": 80,
      "start": 18.623,
      "duration": 0.1666,
      "velocity": 107,
      "chip": "ym2612"
    },
    {
      "channel": 5,
      "note": 80,
      "start": 18.7878,
      "duration": 0.1667,
      "velocity": 107,
      "chip": "ym2612"
    },
    {
      "channel": 4,
      "note": 27,
      "start": 18.7885,
      "duration": 0.1666,
      "velocity": 122,
      "chip": "ym2612"
    },
    {
      "channel": 1,
      "note": 49,
      "start": 18.7893,
      "duration": 0.1669,
      "velocity": 88,
      "chip": "ym2612"
    },
    {
      "channel": 0,
      "note": 82,
      "start": 18.7896,
      "duration": 0.1669,
      "velocity": 107,
      "chip": "ym2612"
    },
    {
      "channel": 5,
      "note": 82,
      "start": 18.9545,
      "duration": 0.1667,
      "velocity": 107,
      "chip": "ym2612"
    },
    {
      "channel": 4,
      "note": 48,
      "start": 18.9552,
      "duration": 0.1666,
      "velocity": 127,
      "chip": "ym2612"
    },
    {
      "channel": 3,
      "note": 82,
      "start": 18.9555,
      "duration": 0.5166,
      "velocity": 115,
      "chip": "ym2612"
    },
    {
      "channel": 2,
      "note": 87,
      "start": 18.9558,
      "duration": 0.5166,
      "velocity": 115,
      "chip": "ym2612"
    },
    {
      "channel": 1,
      "note": 48,
      "start": 18.9561,
      "duration": 0.1664,
      "velocity": 88,
      "chip": "ym2612"
    },
    {
      "channel": 0,
      "note": 79,
      "start": 18.9565,
      "duration": 0.5166,
      "velocity": 107,
      "chip": "ym2612"
    },
    {
      "channel": 5,
      "note": 79,
      "start": 19.1211,
      "duration": 0.5167,
      "velocity": 107,
      "chip": "ym2612"
    },
    {
      "channel": 4,
      "note": 36,
      "start": 19.1218,
      "duration": 0.1833,
      "velocity": 122,
      "chip": "ym2612"
    },
    {
      "channel": 1,
      "note": 48,
      "start": 19.1226,
      "duration": 0.1832,
      "velocity": 88,
      "chip": "ym2612"
    },
    {
      "channel": 4,
      "note": 48,
      "start": 19.3051,
      "duration": 0.1667,
      "velocity": 127,
      "chip": "ym2612"
    },
    {
      "channel": 1,
      "note": 48,
      "start": 19.3059,
      "duration": 0.1669,
      "velocity": 88,
      "chip": "ym2612"
    },
    {
      "channel": 4,
      "note": 27,
      "start": 19.4717,
      "duration": 0.1667,
      "velocity": 127,
      "chip": "ym2612"
    },
    {
      "channel": 3,
      "note": 82,
      "start": 19.4721,
      "duration": 0.1667,
      "velocity": 115,
      "chip": "ym2612"
    },
    {
      "channel": 2,
      "note": 87,
      "start": 19.4724,
      "duration": 0.1667,
      "velocity": 115,
      "chip": "ym2612"
    },
    {
      "channel": 1,
      "note": 48,
      "start": 19.4727,
      "duration": 0.1667,
      "velocity": 88,
      "chip": "ym2612"
    },
    {
      "channel": 0,
      "note": 75,
      "start": 19.4731,
      "duration": 0.5166,
      "velocity": 107,
      "chip": "ym2612"
    },
    {
      "channel": 5,
      "note": 75,
      "start": 19.6378,
      "duration": 0.5167,
      "velocity": 107,
      "chip": "ym2612"
    },
    {
      "channel": 4,
      "note": 36,
      "start": 19.6385,
      "duration": 0.1666,
      "velocity": 122,
      "chip": "ym2612"
    },
    {
      "channel": 3,
      "note": 82,
      "start": 19.6388,
      "duration": 0.3499,
      "velocity": 115,
      "chip": "ym2612"
    },
    {
      "channel": 2,
      "note": 87,
      "start": 19.6392,
      "duration": 0.3499,
      "velocity": 115,
      "chip": "ym2612"
    },
    {
      "channel": 1,
      "note": 48,
      "start": 19.6395,
      "duration": 0.1663,
      "velocity": 88,
      "chip": "ym2612"
    },
    {
      "channel": 4,
      "note": 48,
      "start": 19.8051,
      "duration": 0.1833,
      "velocity": 127,
      "chip": "ym2612"
    },
    {
      "channel": 1,
      "note": 48,
      "start": 19.8058,
      "duration": 0.1835,
      "velocity": 88,
      "chip": "ym2612"
    },
    {
      "channel": 4,
      "note": 36,
      "start": 19.9884,
      "duration": 0.1668,
      "velocity": 127,
      "chip": "ym2612"
    },
    {
      "channel": 3,
      "note": 82,
      "start": 19.9887,
      "duration": 0.3333,
      "velocity": 115,
      "chip": "ym2612"
    },
    {
      "channel": 2,
      "note": 87,
      "start": 19.989,
      "duration": 0.3333,
      "velocity": 115,
      "chip": "ym2612"
    },
    {
      "channel": 1,
      "note": 48,
      "start": 19.9894,
      "duration": 0.1666,
      "velocity": 88,
      "chip": "ym2612"
    },
    {
      "channel": 0,
      "note": 77,
      "start": 19.9897,
      "duration": 0.1666,
      "velocity": 107,
      "chip": "ym2612"
    },
    {
      "channel": 5,
      "note": 77,
      "start": 20.1545,
      "duration": 0.1687,
      "velocity": 107,
      "chip": "ym2612"
    },
    {
      "channel": 4,
      "note": 27,
      "start": 20.1552,
      "duration": 0.1665,
      "velocity": 122,
      "chip": "ym2612"
    },
    {
      "channel": 1,
      "note": 48,
      "start": 20.1559,
      "duration": 0.1667,
      "velocity": 88,
      "chip": "ym2612"
    },
    {
      "channel": 4,
      "note": 48,
      "start": 20.3217,
      "duration": 0.1668,
      "velocity": 127,
      "chip": "ym2612"
    },
    {
      "channel": 3,
      "note": 82,
      "start": 20.322,
      "duration": 0.5168,
      "velocity": 115,
      "chip": "ym2612"
    },
    {
      "channel": 2,
      "note": 86,
      "start": 20.3223,
      "duration": 0.5168,
      "velocity": 115,
      "chip": "ym2612"
    },
    {
      "channel": 1,
      "note": 46,
      "start": 20.3227,
      "duration": 0.1666,
      "velocity": 88,
      "chip": "ym2612"
    },
    {
      "channel": 0,
      "note": 77,
      "start": 20.323,
      "duration": 0.6831,
      "velocity": 107,
      "chip": "ym2612"
    },
    {
      "channel": 5,
      "note": 77,
      "start": 20.4878,
      "duration": 0.6844,
      "velocity": 107,
      "chip": "ym2612"
    },
    {
      "channel": 4,
      "note": 36,
      "start": 20.4885,
      "duration": 0.1833,
      "velocity": 122,
      "chip": "ym2612"
    },
    {
      "channel": 1,
      "note": 46,
      "start": 20.4893,
      "duration": 0.1835,
      "velocity": 88,
      "chip": "ym2612"
    },
    {
      "channel": 4,
      "note": 48,
      "start": 20.6717,
      "duration": 0.1667,
      "velocity": 127,
      "chip": "ym2612"
    },
    {
      "channel": 4,
      "note": 81,
      "start": 20.8385,
      "duration": 0.1663,
      "velocity": 127,
      "chip": "ym2612"
    },
    {
      "channel": 3,
      "note": 82,
      "start": 20.8388,
      "duration": 0.1663,
      "velocity": 115,
      "chip": "ym2612"
    },
    {
      "channel": 2,
      "note": 86,
      "start": 20.8391,
      "duration": 0.1663,
      "velocity": 115,
      "chip": "ym2612"
    },
    {
      "channel": 1,
      "note": 58,
      "start": 20.8395,
      "duration": 0.1663,
      "velocity": 88,
      "chip": "ym2612"
    },
    {
      "channel": 4,
      "note": 81,
      "start": 21.0047,
      "duration": 0.3503,
      "velocity": 127,
      "chip": "ym2612"
    },
    {
      "channel": 3,
      "note": 82,
      "start": 21.0051,
      "duration": 0.167,
      "velocity": 115,
      "chip": "ym2612"
    },
    {
      "channel": 2,
      "note": 86,
      "start": 21.0054,
      "duration": 0.1666,
      "velocity": 115,
      "chip": "ym2612"
    },
    {
      "channel": 1,
      "note": 46,
      "start": 21.0057,
      "duration": 0.1663,
      "velocity": 88,
      "chip": "ym2612"
    },
    {
      "channel": 4,
      "note": 48,
      "start": 21.6883,
      "duration": 0.1669,
      "velocity": 122,
      "chip": "ym2612"
    },
    {
      "channel": 3,
      "note": 80,
      "start": 21.6886,
      "duration": 0.1669,
      "velocity": 115,
      "chip": "ym2612"
    },
    {
      "channel": 2,
      "note": 84,
      "start": 21.6889,
      "duration": 0.1669,
      "velocity": 115,
      "chip": "ym2612"
    },
    {
      "channel": 1,
      "note": 44,
      "start": 21.6893,
      "duration": 0.1669,
      "velocity": 88,
      "chip": "ym2612"
    },
    {
      "channel": 0,
      "note": 87,
      "start": 21.69,
      "duration": 0.0821,
      "velocity": 51,
      "chip": "ym2612"
    },
    {
      "channel": 5,
      "note": 87,
      "start": 21.8549,
      "duration": 0.0841,
      "velocity": 51,
      "chip": "ym2612"
    },
    {
      "channel": 4,
      "note": 48,
      "start": 21.8552,
      "duration": 0.1666,
      "velocity": 127,
      "chip": "ym2612"
    },
    {
      "channel": 3,
      "note": 82,
      "start": 21.8555,
      "duration": 0.3501,
      "velocity": 115,
      "chip": "ym2612"
    },
    {
      "channel": 2,
      "note": 86,
      "start": 21.8559,
      "duration": 0.3501,
      "velocity": 115,
      "chip": "ym2612"
    },
    {
      "channel": 1,
      "note": 46,
      "start": 21.8562,
      "duration": 0.1667,
      "velocity": 88,
      "chip": "ym2612"
    },
    {
      "channel": 0,
      "note": 89,
      "start": 21.8565,
      "duration": 0.0824,
      "velocity": 51,
      "chip": "ym2612"
    },
    {
      "channel": 5,
      "note": 89,
      "start": 22.0211,
      "duration": 0.101,
      "velocity": 51,
      "chip": "ym2612"
    },
    {
      "channel": 4,
      "note": 36,
      "start": 22.0218,
      "duration": 0.1835,
      "velocity": 127,
      "chip": "ym2612"
    },
    {
      "channel": 0,
      "note": 89,
      "start": 22.0228,
      "duration": 0.0993,
      "velocity": 51,
      "chip": "ym2612"
    },
    {
      "channel": 5,
      "note": 89,
      "start": 22.2045,
      "duration": 0.0845,
      "velocity": 51,
      "chip": "ym2612"
    },
    {
      "channel": 4,
      "note": 81,
      "start": 22.2053,
      "duration": 0.1663,
      "velocity": 127,
      "chip": "ym2612"
    },
    {
      "channel": 3,
      "note": 82,
      "start": 22.2056,
      "duration": 0.1662,
      "velocity": 115,
      "chip": "ym2612"
    },
    {
      "channel": 2,
      "note": 86,
      "start": 22.2059,
      "duration": 0.1662,
      "velocity": 115,
      "chip": "ym2612"
    },
    {
      "channel": 1,
      "note": 58,
      "start": 22.2063,
      "duration": 0.1662,
      "velocity": 88,
      "chip": "ym2612"
    },
    {
      "channel": 0,
      "note": 89,
      "start": 22.2066,
      "duration": 0.0823,
      "velocity": 51,
      "chip": "ym2612"
    },
    {
      "channel": 5,
      "note": 89,
      "start": 22.3712,
      "duration": 0.0845,
      "velocity": 51,
      "chip": "ym2612"
    },
    {
      "channel": 4,
      "note": 81,
      "start": 22.3715,
      "duration": 0.3337,
      "velocity": 127,
      "chip": "ym2612"
    },
    {
      "channel": 3,
      "note": 82,
      "start": 22.3719,
      "duration": 0.1673,
      "velocity": 115,
      "chip": "ym2612"
    },
    {
      "channel": 2,
      "note": 86,
      "start": 22.3722,
      "duration": 0.167,
      "velocity": 115,
      "chip": "ym2612"
    },
    {
      "channel": 1,
      "note": 46,
      "start": 22.3725,
      "duration": 0.1666,
      "velocity": 88,
      "chip": "ym2612"
    },
    {
      "channel": 0,
      "note": 89,
      "start": 22.3729,
      "duration": 0.0827,
      "velocity": 51,
      "chip": "ym2612"
    },
    {
      "channel": 5,
      "note": 89,
      "start": 22.5378,
      "duration": 0.0841,
      "velocity": 51,
      "chip": "ym2612"
    },
    {
      "channel": 0,
      "note": 89,
      "start": 22.5389,
      "duration": 0.0829,
      "velocity": 51,
      "chip": "ym2612"
    },
    {
      "channel": 5,
      "note": 89,
      "start": 22.7045,
      "duration": 0.1012,
      "velocity": 51,
      "chip": "ym2612"
    },
    {
      "channel": 4,
      "note": 27,
      "start": 22.7052,
      "duration": 0.1834,
      "velocity": 127,
      "chip": "ym2612"
    },
    {
      "channel": 3,
      "note": 80,
      "start": 22.706,
      "duration": 0.183,
      "velocity": 104,
      "chip": "ym2612"
    },
    {
      "channel": 2,
      "note": 96,
      "start": 22.7068,
      "duration": 0.1825,
      "velocity": 104,
      "chip": "ym2612"
    },
    {
      "channel": 1,
      "note": 43,
      "start": 22.7072,
      "duration": 0.1825,
      "velocity": 88,
      "chip": "ym2612"
    },
    {
      "channel": 0,
      "note": 87,
      "start": 22.708,
      "duration": 0.182,
      "velocity": 104,
      "chip": "ym2612"
    },
    {
      "channel": 5,
      "note": 87,
      "start": 22.8883,
      "duration": 0.1661,
      "velocity": 104,
      "chip": "ym2612"
    },
    {
      "channel": 4,
      "note": 27,
      "start": 22.8886,
      "duration": 0.1662,
      "velocity": 127,
      "chip": "ym2612"
    },
    {
      "channel": 3,
      "note": 79,
      "start": 22.889,
      "duration": 0.3331,
      "velocity": 104,
      "chip": "ym2612"
    },
    {
      "channel": 2,
      "note": 94,
      "start": 22.8893,
      "duration": 0.3331,
      "velocity": 104,
      "chip": "ym2612"
    },
    {
      "channel": 1,
      "note": 55,
      "start": 22.8897,
      "duration": 0.1659,
      "velocity": 88,
      "chip": "ym2612"
    },
    {
      "channel": 0,
      "note": 86,
      "start": 22.89,
      "duration": 0.3331,
      "velocity": 104,
      "chip": "ym2612"
    },
    {
      "channel": 5,
      "note": 86,
      "start": 23.0545,
      "duration": 0.3333,
      "velocity": 104,
      "chip": "ym2612"
    },
    {
      "channel": 4,
      "note": 27,
      "start": 23.0548,
      "duration": 0.1669,
      "velocity": 122,
      "chip": "ym2612"
    },
    {
      "channel": 1,
      "note": 43,
      "start": 23.0556,
      "duration": 0.1672,
      "velocity": 88,
      "chip": "ym2612"
    },
    {
      "channel": 4,
      "note": 48,
      "start": 23.2217,
      "duration": 0.1668,
      "velocity": 127,
      "chip": "ym2612"
    },
    {
      "channel": 3,
      "note": 75,
      "start": 23.2221,
      "duration": 0.85,
      "velocity": 104,
      "chip": "ym2612"
    },
    {
      "channel": 2,
      "note": 92,
      "start": 23.2224,
      "duration": 0.85,
      "velocity": 104,
      "chip": "ym2612"
    },
    {
      "channel": 1,
      "note": 44,
      "start": 23.2228,
      "duration": 0.1665,
      "velocity": 88,
      "chip": "ym2612"
    },
    {
      "channel": 0,
      "note": 84,
      "start": 23.2231,
      "duration": 0.85,
      "velocity": 104,
      "chip": "ym2612"
    },
    {
      "channel": 5,
      "note": 84,
      "start": 23.3878,
      "duration": 0.8667,
      "velocity": 104,
      "chip": "ym2612"
    },
    {
      "channel": 4,
      "note": 36,
      "start": 23.3885,
      "duration": 0.1833,
      "velocity": 127,
      "chip": "ym2612"
    },
    {
      "channel": 1,
      "note": 56,
      "start": 23.3893,
      "duration": 0.1833,
      "velocity": 88,
      "chip": "ym2612"
    },
    {
      "channel": 4,
      "note": 81,
      "start": 23.5718,
      "duration": 0.1666,
      "velocity": 127,
      "chip": "ym2612"
    },
    {
      "channel": 1,
      "note": 46,
      "start": 23.5726,
      "duration": 0.1666,
      "velocity": 88,
      "chip": "ym2612"
    },
    {
      "channel": 4,
      "note": 36,
      "start": 23.7384,
      "duration": 0.1667,
      "velocity": 122,
      "chip": "ym2612"
    },
    {
      "channel": 1,
      "note": 58,
      "start": 23.7392,
      "duration": 0.1667,
      "velocity": 88,
      "chip": "ym2612"
    },
    {
      "channel": 4,
      "note": 48,
      "start": 23.9051,
      "duration": 0.1667,
      "velocity": 127,
      "chip": "ym2612"
    },
    {
      "channel": 1,
      "note": 48,
      "start": 23.9059,
      "duration": 0.1668,
      "velocity": 88,
      "chip": "ym2612"
    },
    {
      "channel": 4,
      "note": 36,
      "start": 24.0717,
      "duration": 0.1835,
      "velocity": 127,
      "chip": "ym2612"
    },
    {
      "channel": 3,
      "note": 77,
      "start": 24.0721,
      "duration": 0.1835,
      "velocity": 104,
      "chip": "ym2612"
    },
    {
      "channel": 2,
      "note": 94,
      "start": 24.0724,
      "duration": 0.1835,
      "velocity": 104,
      "chip": "ym2612"
    },
    {
      "channel": 1,
      "note": 60,
      "start": 24.0727,
      "duration": 0.1835,
      "velocity": 88,
      "chip": "ym2612"
    },
    {
      "channel": 0,
      "note": 86,
      "start": 24.0731,
      "duration": 0.1835,
      "velocity": 104,
      "chip": "ym2612"
    },
    {
      "channel": 5,
      "note": 86,
      "start": 24.2545,
      "duration": 0.1667,
      "velocity": 104,
      "chip": "ym2612"
    },
    {
      "channel": 4,
      "note": 81,
      "start": 24.2552,
      "duration": 0.1666,
      "velocity": 122,
      "chip": "ym2612"
    },
    {
      "channel": 3,
      "note": 79,
      "start": 24.2556,
      "duration": 0.1666,
      "velocity": 104,
      "chip": "ym2612"
    },
    {
      "channel": 2,
      "note": 96,
      "start": 24.2559,
      "duration": 0.1666,
      "velocity": 104,
      "chip": "ym2612"
    },
    {
      "channel": 1,
      "note": 51,
      "start": 24.2562,
      "duration": 0.1666,
      "velocity": 88,
      "chip": "ym2612"
    },
    {
      "channel": 0,
      "note": 87,
      "start": 24.2566,
      "duration": 0.1666,
      "velocity": 104,
      "chip": "ym2612"
    },
    {
      "channel": 5,
      "note": 87,
      "start": 24.4211,
      "duration": 0.1667,
      "velocity": 104,
      "chip": "ym2612"
    },
    {
      "channel": 4,
      "note": 48,
      "start": 24.4218,
      "duration": 0.1666,
      "velocity": 127,
      "chip": "ym2612"
    },
    {
      "channel": 3,
      "note": 77,
      "start": 24.4222,
      "duration": 1.5332,
      "velocity": 104,
      "chip": "ym2612"
    },
    {
      "channel": 2,
      "note": 94,
      "start": 24.4225,
      "duration": 1.5332,
      "velocity": 104,
      "chip": "ym2612"
    },
    {
      "channel": 1,
      "note": 46,
      "start": 24.4229,
      "duration": 0.333,
      "velocity": 88,
      "chip": "ym2612"
    },
    {
      "channel": 0,
      "note": 86,
      "start": 24.4232,
      "duration": 1.5332,
      "velocity": 104,
      "chip": "ym2612"
    },
    {
      "channel": 5,
      "note": 86,
      "start": 24.5878,
      "duration": 1.5333,
      "velocity": 104,
      "chip": "ym2612"
    },
    {
      "channel": 4,
      "note": 36,
      "start": 24.5885,
      "duration": 0.1666,
      "velocity": 122,
      "chip": "ym2612"
    },
    {
      "channel": 4,
      "note": 48,
      "start": 24.7551,
      "duration": 0.1834,
      "velocity": 127,
      "chip": "ym2612"
    },
    {
      "channel": 1,
      "note": 58,
      "start": 24.7559,
      "duration": 0.1834,
      "velocity": 88,
      "chip": "ym2612"
    },
    {
      "channel": 4,
      "note": 81,
      "start": 24.9385,
      "duration": 0.1666,
      "velocity": 127,
      "chip": "ym2612"
    },
    {
      "channel": 1,
      "note": 48,
      "start": 24.9393,
      "duration": 0.1666,
      "velocity": 88,
      "chip": "ym2612"
    },
    {
      "channel": 4,
      "note": 36,
      "start": 25.1051,
      "duration": 0.1667,
      "velocity": 122,
      "chip": "ym2612"
    },
    {
      "channel": 1,
      "note": 60,
      "start": 25.1059,
      "duration": 0.1667,
      "velocity": 88,
      "chip": "ym2612"
    },
    {
      "channel": 4,
      "note": 48,
      "start": 25.2717,
      "duration": 0.1667,
      "velocity": 127,
      "chip": "ym2612"
    },
    {
      "channel": 1,
      "note": 50,
      "start": 25.2726,
      "duration": 0.1666,
      "velocity": 88,
      "chip": "ym2612"
    },
    {
      "channel": 4,
      "note": 36,
      "start": 25.4384,
      "duration": 0.1834,
      "velocity": 127,
      "chip": "ym2612"
    },
    {
      "channel": 1,
      "note": 62,
      "start": 25.4392,
      "duration": 0.1834,
      "velocity": 88,
      "chip": "ym2612"
    },
    {
      "channel": 4,
      "note": 81,
      "start": 25.6218,
      "duration": 0.1666,
      "velocity": 127,
      "chip": "ym2612"
    },
    {
      "channel": 1,
      "note": 46,
      "start": 25.6226,
      "duration": 0.1666,
      "velocity": 88,
      "chip": "ym2612"
    },
    {
      "channel": 4,
      "note": 36,
      "start": 25.7884,
      "duration": 0.1667,
      "velocity": 122,
      "chip": "ym2612"
    },
    {
      "channel": 1,
      "note": 58,
      "start": 25.7892,
      "duration": 0.1669,
      "velocity": 88,
      "chip": "ym2612"
    },
    {
      "channel": 4,
      "note": 48,
      "start": 25.9551,
      "duration": 0.1668,
      "velocity": 127,
      "chip": "ym2612"
    },
    {
      "channel": 3,
      "note": 80,
      "start": 25.9554,
      "duration": 0.85,
      "velocity": 104,
      "chip": "ym2612"
    },
    {
      "channel": 2,
      "note": 96,
      "start": 25.9558,
      "duration": 0.85,
      "velocity": 104,
      "chip": "ym2612"
    },
    {
      "channel": 1,
      "note": 44,
      "start": 25.9561,
      "duration": 0.1665,
      "velocity": 88,
      "chip": "ym2612"
    },
    {
      "channel": 0,
      "note": 87,
      "start": 25.9564,
      "duration": 0.85,
      "velocity": 104,
      "chip": "ym2612"
    },
    {
      "channel": 5,
      "note": 87,
      "start": 26.1211,
      "duration": 0.85,
      "velocity": 104,
      "chip": "ym2612"
    },
    {
      "channel": 4,
      "note": 36,
      "start": 26.1218,
      "duration": 0.1666,
      "velocity": 127,
      "chip": "ym2612"
    },
    {
      "channel": 1,
      "note": 56,
      "start": 26.1226,
      "duration": 0.1667,
      "velocity": 88,
      "chip": "ym2612"
    },
    {
      "channel": 4,
      "note": 81,
      "start": 26.2885,
      "duration": 0.1833,
      "velocity": 127,
      "chip": "ym2612"
    },
    {
      "channel": 1,
      "note": 46,
      "start": 26.2893,
      "duration": 0.1833,
      "velocity": 88,
      "chip": "ym2612"
    },
    {
      "channel": 4,
      "note": 36,
      "start": 26.4717,
      "duration": 0.1667,
      "velocity": 122,
      "chip": "ym2612"
    },
    {
      "channel": 1,
      "note": 58,
      "start": 26.4725,
      "duration": 0.1667,
      "velocity": 88,
      "chip": "ym2612"
    },
    {
      "channel": 4,
      "note": 48,
      "start": 26.6384,
      "duration": 0.1667,
      "velocity": 127,
      "chip": "ym2612"
    },
    {
      "channel": 1,
      "note": 48,
      "start": 26.6393,
      "duration": 0.1668,
      "velocity": 88,
      "chip": "ym2612"
    },
    {
      "channel": 4,
      "note": 36,
      "start": 26.8051,
      "duration": 0.1668,
      "velocity": 127,
      "chip": "ym2612"
    },
    {
      "channel": 3,
      "note": 82,
      "start": 26.8054,
      "duration": 0.1668,
      "velocity": 104,
      "chip": "ym2612"
    },
    {
      "channel": 2,
      "note": 98,
      "start": 26.8058,
      "duration": 0.1668,
      "velocity": 104,
      "chip": "ym2612"
    },
    {
      "channel": 1,
      "note": 60,
      "start": 26.8061,
      "duration": 0.1668,
      "velocity": 88,
      "chip": "ym2612"
    },
    {
      "channel": 0,
      "note": 89,
      "start": 26.8064,
      "duration": 0.1668,
      "velocity": 104,
      "chip": "ym2612"
    },
    {
      "channel": 5,
      "note": 89,
      "start": 26.9711,
      "duration": 0.1833,
      "velocity": 104,
      "chip": "ym2612"
    },
    {
      "channel": 4,
      "note": 81,
      "start": 26.9719,
      "duration": 0.1833,
      "velocity": 122,
      "chip": "ym2612"
    },
    {
      "channel": 3,
      "note": 84,
      "start": 26.9722,
      "duration": 0.1833,
      "velocity": 104,
      "chip": "ym2612"
    },
    {
      "channel": 2,
      "note": 99,
      "start": 26.9726,
      "duration": 0.1833,
      "velocity": 104,
      "chip": "ym2612"
    },
    {
      "channel": 1,
      "note": 51,
      "start": 26.9729,
      "duration": 0.1833,
      "velocity": 88,
      "chip": "ym2612"
    },
    {
      "channel": 0,
      "note": 91,
      "start": 26.9732,
      "duration": 0.1833,
      "velocity": 104,
      "chip": "ym2612"
    },
    {
      "channel": 5,
      "note": 91,
      "start": 27.1545,
      "duration": 0.1667,
      "velocity": 104,
      "chip": "ym2612"
    },
    {
      "channel": 4,
      "note": 48,
      "start": 27.1552,
      "duration": 0.1667,
      "velocity": 127,
      "chip": "ym2612"
    },
    {
      "channel": 3,
      "note": 82,
      "start": 27.1555,
      "duration": 1.0166,
      "velocity": 104,
      "chip": "ym2612"
    },
    {
      "channel": 2,
      "note": 98,
      "start": 27.1559,
      "duration": 1.0166,
      "velocity": 104,
      "chip": "ym2612"
    },
    {
      "channel": 1,
      "note": 46,
      "start": 27.1562,
      "duration": 0.333,
      "velocity": 88,
      "chip": "ym2612"
    },
    {
      "channel": 0,
      "note": 89,
      "start": 27.1565,
      "duration": 1.0166,
      "velocity": 104,
      "chip": "ym2612"
    },
    {
      "channel": 5,
      "note": 89,
      "start": 27.3211,
      "duration": 1.0167,
      "velocity": 104,
      "chip": "ym2612"
    },
    {
      "channel": 4,
      "note": 36,
      "start": 27.3218,
      "duration": 0.1666,
      "velocity": 122,
      "chip": "ym2612"
    },
    {
      "channel": 4,
      "note": 48,
      "start": 27.4884,
      "duration": 0.1667,
      "velocity": 127,
      "chip": "ym2612"
    },
    {
      "channel": 1,
      "note": 58,
      "start": 27.4892,
      "duration": 0.1667,
      "velocity": 88,
      "chip": "ym2612"
    },
    {
      "channel": 4,
      "note": 81,
      "start": 27.6551,
      "duration": 0.1833,
      "velocity": 127,
      "chip": "ym2612"
    },
    {
      "channel": 1,
      "note": 46,
      "start": 27.6559,
      "duration": 0.1833,
      "velocity": 88,
      "chip": "ym2612"
    },
    {
      "channel": 4,
      "note": 36,
      "start": 27.8384,
      "duration": 0.1667,
      "velocity": 122,
      "chip": "ym2612"
    },
    {
      "channel": 1,
      "note": 58,
      "start": 27.8392,
      "duration": 0.1667,
      "velocity": 88,
      "chip": "ym2612"
    },
    {
      "channel": 4,
      "note": 48,
      "start": 28.0051,
      "duration": 0.1667,
      "velocity": 127,
      "chip": "ym2612"
    },
    {
      "channel": 1,
      "note": 43,
      "start": 28.0059,
      "duration": 0.1668,
      "velocity": 88,
      "chip": "ym2612"
    },
    {
      "channel": 4,
      "note": 36,
      "start": 28.1717,
      "duration": 0.1668,
      "velocity": 127,
      "chip": "ym2612"
    },
    {
      "channel": 3,
      "note": 80,
      "start": 28.1721,
      "duration": 0.1668,
      "velocity": 104,
      "chip": "ym2612"
    },
    {
      "channel": 2,
      "note": 96,
      "start": 28.1724,
      "duration": 0.1668,
      "velocity": 104,
      "chip": "ym2612"
    },
    {
      "channel": 1,
      "note": 55,
      "start": 28.1727,
      "duration": 0.1668,
      "velocity": 88,
      "chip": "ym2612"
    },
    {
      "channel": 0,
      "note": 87,
      "start": 28.1731,
      "duration": 0.1668,
      "velocity": 104,
      "chip": "ym2612"
    },
    {
      "channel": 5,
      "note": 87,
      "start": 28.3378,
      "duration": 0.1833,
      "velocity": 104,
      "chip": "ym2612"
    },
    {
      "channel": 4,
      "note": 81,
      "start": 28.3386,
      "duration": 0.1833,
      "velocity": 127,
      "chip": "ym2612"
    },
    {
      "channel": 3,
      "note": 79,
      "start": 28.3389,
      "duration": 0.3498,
      "velocity": 104,
      "chip": "ym2612"
    },
    {
      "channel": 2,
      "note": 94,
      "start": 28.3393,
      "duration": 0.3498,
      "velocity": 104,
      "chip": "ym2612"
    },
    {
      "channel": 1,
      "note": 43,
      "start": 28.3396,
      "duration": 0.1831,
      "velocity": 88,
      "chip": "ym2612"
    },
    {
      "channel": 0,
      "note": 86,
      "start": 28.3399,
      "duration": 0.3498,
      "velocity": 104,
      "chip": "ym2612"
    },
    {
      "channel": 5,
      "note": 86,
      "start": 28.5211,
      "duration": 0.3333,
      "velocity": 104,
      "chip": "ym2612"
    },
    {
      "channel": 4,
      "note": 36,
      "start": 28.5218,
      "duration": 0.1666,
      "velocity": 122,
      "chip": "ym2612"
    },
    {
      "channel": 1,
      "note": 55,
      "start": 28.5227,
      "duration": 0.1667,
      "velocity": 88,
      "chip": "ym2612"
    },
    {
      "channel": 4,
      "note": 48,
      "start": 28.6884,
      "duration": 0.1668,
      "velocity": 127,
      "chip": "ym2612"
    },
    {
      "channel": 3,
      "note": 75,
      "start": 28.6888,
      "duration": 0.85,
      "velocity": 104,
      "chip": "ym2612"
    },
    {
      "channel": 2,
      "note": 92,
      "start": 28.6891,
      "duration": 0.85,
      "velocity": 104,
      "chip": "ym2612"
    },
    {
      "channel": 1,
      "note": 44,
      "start": 28.6894,
      "duration": 0.1665,
      "velocity": 88,
      "chip": "ym2612"
    },
    {
      "channel": 0,
      "note": 84,
      "start": 28.6898,
      "duration": 0.85,
      "velocity": 104,
      "chip": "ym2612"
    },
    {
      "channel": 5,
      "note": 84,
      "start": 28.8545,
      "duration": 0.85,
      "velocity": 104,
      "chip": "ym2612"
    },
    {
      "channel": 4,
      "note": 36,
      "start": 28.8552,
      "duration": 0.1666,
      "velocity": 127,
      "chip": "ym2612"
    },
    {
      "channel": 1,
      "note": 56,
      "start": 28.8559,
      "duration": 0.1667,
      "velocity": 88,
      "chip": "ym2612"
    },
    {
      "channel": 4,
      "note": 81,
      "start": 29.0218,
      "duration": 0.1833,
      "velocity": 127,
      "chip": "ym2612"
    },
    {
      "channel": 1,
      "note": 46,
      "start": 29.0226,
      "duration": 0.1833,
      "velocity": 88,
      "chip": "ym2612"
    },
    {
      "channel": 4,
      "note": 36,
      "start": 29.2051,
      "duration": 0.1667,
      "velocity": 122,
      "chip": "ym2612"
    },
    {
      "channel": 1,
      "note": 58,
      "start": 29.2059,
      "duration": 0.1667,
      "velocity": 88,
      "chip": "ym2612"
    },
    {
      "channel": 4,
      "note": 48,
      "start": 29.3717,
      "duration": 0.1667,
      "velocity": 127,
      "chip": "ym2612"
    },
    {
      "channel": 1,
      "note": 48,
      "start": 29.3726,
      "duration": 0.1668,
      "velocity": 88,
      "chip": "ym2612"
    },
    {
      "channel": 4,
      "note": 36,
      "start": 29.5384,
      "duration": 0.1668,
      "velocity": 127,
      "chip": "ym2612"
    },
    {
      "channel": 3,
      "note": 77,
      "start": 29.5388,
      "duration": 0.1668,
      "velocity": 104,
      "chip": "ym2612"
    },
    {
      "channel": 2,
      "note": 94,
      "start": 29.5391,
      "duration": 0.1668,
      "velocity": 104,
      "chip": "ym2612"
    },
    {
      "channel": 1,
      "note": 60,
      "start": 29.5394,
      "duration": 0.1668,
      "velocity": 88,
      "chip": "ym2612"
    },
    {
      "channel": 0,
      "note": 86,
      "start": 29.5398,
      "duration": 0.1668,
      "velocity": 104,
      "chip": "ym2612"
    },
    {
      "channel": 5,
      "note": 86,
      "start": 29.7045,
      "duration": 0.1833,
      "velocity": 104,
      "chip": "ym2612"
    },
    {
      "channel": 4,
      "note": 81,
      "start": 29.7052,
      "duration": 0.1833,
      "velocity": 122,
      "chip": "ym2612"
    },
    {
      "channel": 3,
      "note": 79,
      "start": 29.7056,
      "duration": 0.1833,
      "velocity": 104,
      "chip": "ym2612"
    },
    {
      "channel": 2,
      "note": 96,
      "start": 29.7059,
      "duration": 0.1833,
      "velocity": 104,
      "chip": "ym2612"
    },
    {
      "channel": 1,
      "note": 51,
      "start": 29.7062,
      "duration": 0.1833,
      "velocity": 88,
      "chip": "ym2612"
    },
    {
      "channel": 0,
      "note": 87,
      "start": 29.7066,
      "duration": 0.1833,
      "velocity": 104,
      "chip": "ym2612"
    },
    {
      "channel": 5,
      "note": 87,
      "start": 29.8878,
      "duration": 0.1667,
      "velocity": 104,
      "chip": "ym2612"
    },
    {
      "channel": 4,
      "note": 48,
      "start": 29.8885,
      "duration": 0.1666,
      "velocity": 127,
      "chip": "ym2612"
    },
    {
      "channel": 3,
      "note": 77,
      "start": 29.8888,
      "duration": 1.5332,
      "velocity": 104,
      "chip": "ym2612"
    },
    {
      "channel": 2,
      "note": 94,
      "start": 29.8892,
      "duration": 1.5332,
      "velocity": 104,
      "chip": "ym2612"
    },
    {
      "channel": 1,
      "note": 46,
      "start": 29.8895,
      "duration": 0.333,
      "velocity": 88,
      "chip": "ym2612"
    },
    {
      "channel": 0,
      "note": 86,
      "start": 29.8899,
      "duration": 1.5332,
      "velocity": 104,
      "chip": "ym2612"
    },
    {
      "channel": 5,
      "note": 86,
      "start": 30.0545,
      "duration": 1.5333,
      "velocity": 104,
      "chip": "ym2612"
    },
    {
      "channel": 4,
      "note": 36,
      "start": 30.0552,
      "duration": 0.1666,
      "velocity": 122,
      "chip": "ym2612"
    },
    {
      "channel": 4,
      "note": 48,
      "start": 30.2217,
      "duration": 0.1667,
      "velocity": 127,
      "chip": "ym2612"
    },
    {
      "channel": 1,
      "note": 58,
      "start": 30.2226,
      "duration": 0.1667,
      "velocity": 88,
      "chip": "ym2612"
    },
    {
      "channel": 4,
      "note": 81,
      "start": 30.3885,
      "duration": 0.1666,
      "velocity": 127,
      "chip": "ym2612"
    },
    {
      "channel": 1,
      "note": 48,
      "start": 30.3893,
      "duration": 0.1666,
      "velocity": 88,
      "chip": "ym2612"
    },
    {
      "channel": 4,
      "note": 36,
      "start": 30.5551,
      "duration": 0.1834,
      "velocity": 122,
      "chip": "ym2612"
    },
    {
      "channel": 1,
      "note": 60,
      "start": 30.5559,
      "duration": 0.1834,
      "velocity": 88,
      "chip": "ym2612"
    },
    {
      "channel": 4,
      "note": 48,
      "start": 30.7384,
      "duration": 0.1667,
      "velocity": 127,
      "chip": "ym2612"
    },
    {
      "channel": 1,
      "note": 50,
      "start": 30.7393,
      "duration": 0.1666,
      "velocity": 88,
      "chip": "ym2612"
    },
    {
      "channel": 4,
      "note": 36,
      "start": 30.9051,
      "duration": 0.1667,
      "velocity": 127,
      "chip": "ym2612"
    },
    {
      "channel": 1,
      "note": 62,
      "start": 30.9059,
      "duration": 0.1667,
      "velocity": 88,
      "chip": "ym2612"
    },
    {
      "channel": 4,
      "note": 81,
      "start": 31.0718,
      "duration": 0.1666,
      "velocity": 127,
      "chip": "ym2612"
    },
    {
      "channel": 1,
      "note": 53,
      "start": 31.0726,
      "duration": 0.1666,
      "velocity": 88,
      "chip": "ym2612"
    },
    {
      "channel": 4,
      "note": 36,
      "start": 31.2384,
      "duration": 0.1833,
      "velocity": 122,
      "chip": "ym2612"
    },
    {
      "channel": 1,
      "note": 65,
      "start": 31.2392,
      "duration": 0.1835,
      "velocity": 88,
      "chip": "ym2612"
    },
    {
      "channel": 4,
      "note": 48,
      "start": 31.4217,
      "duration": 0.1668,
      "velocity": 127,
      "chip": "ym2612"
    },
    {
      "channel": 3,
      "note": 78,
      "start": 31.4221,
      "duration": 0.85,
      "velocity": 104,
      "chip": "ym2612"
    },
    {
      "channel": 2,
      "note": 95,
      "start": 31.4224,
      "duration": 0.85,
      "velocity": 104,
      "chip": "ym2612"
    },
    {
      "channel": 1,
      "note": 47,
      "start": 31.4227,
      "duration": 0.1665,
      "velocity": 88,
      "chip": "ym2612"
    },
    {
      "channel": 0,
      "note": 87,
      "start": 31.4231,
      "duration": 0.85,
      "velocity": 104,
      "chip": "ym2612"
    },
    {
      "channel": 5,
      "note": 87,
      "start": 31.5878,
      "duration": 0.85,
      "velocity": 104,
      "chip": "ym2612"
    },
    {
      "channel": 4,
      "note": 36,
      "start": 31.5885,
      "duration": 0.1666,
      "velocity": 127,
      "chip": "ym2612"
    },
    {
      "channel": 1,
      "note": 59,
      "start": 31.5893,
      "duration": 0.1667,
      "velocity": 88,
      "chip": "ym2612"
    },
    {
      "channel": 4,
      "note": 81,
      "start": 31.7551,
      "duration": 0.1666,
      "velocity": 127,
      "chip": "ym2612"
    },
    {
      "channel": 1,
      "note": 49,
      "start": 31.7559,
      "duration": 0.1666,
      "velocity": 88,
      "chip": "ym2612"
    },
    {
      "channel": 4,
      "note": 36,
      "start": 31.9217,
      "duration": 0.1833,
      "velocity": 122,
      "chip": "ym2612"
    },
    {
      "channel": 1,
      "note": 61,
      "start": 31.9225,
      "duration": 0.1834,
      "velocity": 88,
      "chip": "ym2612"
    },
    {
      "channel": 4,
      "note": 48,
      "start": 32.1051,
      "duration": 0.1667,
      "velocity": 127,
      "chip": "ym2612"
    },
    {
      "channel": 1,
      "note": 51,
      "start": 32.1059,
      "duration": 0.1668,
      "velocity": 88,
      "chip": "ym2612"
    },
    {
      "channel": 4,
      "note": 36,
      "start": 32.2717,
      "duration": 0.1668,
      "velocity": 127,
      "chip": "ym2612"
    },
    {
      "channel": 3,
      "note": 80,
      "start": 32.2721,
      "duration": 0.1668,
      "velocity": 104,
      "chip": "ym2612"
    },
    {
      "channel": 2,
      "note": 97,
      "start": 32.2724,
      "duration": 0.1668,
      "velocity": 104,
      "chip": "ym2612"
    },
    {
      "channel": 1,
      "note": 63,
      "start": 32.2727,
      "duration": 0.1668,
      "velocity": 88,
      "chip": "ym2612"
    },
    {
      "channel": 0,
      "note": 89,
      "start": 32.2731,
      "duration": 0.1668,
      "velocity": 104,
      "chip": "ym2612"
    },
    {
      "channel": 5,
      "note": 89,
      "start": 32.4378,
      "duration": 0.1667,
      "velocity": 104,
      "chip": "ym2612"
    },
    {
      "channel": 4,
      "note": 81,
      "start": 32.4386,
      "duration": 0.1666,
      "velocity": 122,
      "chip": "ym2612"
    },
    {
      "channel": 3,
      "note": 82,
      "start": 32.4389,
      "duration": 0.1666,
      "velocity": 104,
      "chip": "ym2612"
    },
    {
      "channel": 2,
      "note": 99,
      "start": 32.4393,
      "duration": 0.1666,
      "velocity": 104,
      "chip": "ym2612"
    },
    {
      "channel": 1,
      "note": 54,
      "start": 32.4396,
      "duration": 0.1666,
      "velocity": 88,
      "chip": "ym2612"
    },
    {
      "channel": 0,
      "note": 90,
      "start": 32.4399,
      "duration": 0.1666,
      "velocity": 104,
      "chip": "ym2612"
    },
    {
      "channel": 5,
      "note": 90,
      "start": 32.6045,
      "duration": 0.1833,
      "velocity": 104,
      "chip": "ym2612"
    },
    {
      "channel": 4,
      "note": 48,
      "start": 32.6052,
      "duration": 0.1833,
      "velocity": 127,
      "chip": "ym2612"
    },
    {
      "channel": 3,
      "note": 80,
      "start": 32.6055,
      "duration": 0.8667,
      "velocity": 104,
      "chip": "ym2612"
    },
    {
      "channel": 2,
      "note": 97,
      "start": 32.6059,
      "duration": 0.8667,
      "velocity": 104,
      "chip": "ym2612"
    },
    {
      "channel": 1,
      "note": 49,
      "start": 32.6062,
      "duration": 0.3497,
      "velocity": 88,
      "chip": "ym2612"
    },
    {
      "channel": 0,
      "note": 89,
      "start": 32.6065,
      "duration": 0.8666,
      "velocity": 104,
      "chip": "ym2612"
    },
    {
      "channel": 5,
      "note": 89,
      "start": 32.7878,
      "duration": 0.85,
      "velocity": 104,
      "chip": "ym2612"
    },
    {
      "channel": 4,
      "note": 36,
      "start": 32.7885,
      "duration": 0.1666,
      "velocity": 122,
      "chip": "ym2612"
    },
    {
      "channel": 4,
      "note": 48,
      "start": 32.9551,
      "duration": 0.1667,
      "velocity": 127,
      "chip": "ym2612"
    },
    {
      "channel": 1,
      "note": 61,
      "start": 32.9559,
      "duration": 0.1668,
      "velocity": 88,
      "chip": "ym2612"
    },
    {
      "channel": 4,
      "note": 81,
      "start": 33.1218,
      "duration": 0.1666,
      "velocity": 127,
      "chip": "ym2612"
    },
    {
      "channel": 1,
      "note": 51,
      "start": 33.1226,
      "duration": 0.1666,
      "velocity": 88,
      "chip": "ym2612"
    },
    {
      "channel": 4,
      "note": 36,
      "start": 33.2884,
      "duration": 0.1834,
      "velocity": 127,
      "chip": "ym2612"
    },
    {
      "channel": 1,
      "note": 63,
      "start": 33.2892,
      "duration": 0.1836,
      "velocity": 88,
      "chip": "ym2612"
    },
    {
      "channel": 4,
      "note": 81,
      "start": 33.4718,
      "duration": 0.0162,
      "velocity": 127,
      "chip": "ym2612"
    },
    {
      "channel": 3,
      "note": 85,
      "start": 33.4722,
      "duration": 0.6833,
      "velocity": 104,
      "chip": "ym2612"
    },
    {
      "channel": 2,
      "note": 101,
      "start": 33.4725,
      "duration": 0.6833,
      "velocity": 104,
      "chip": "ym2612"
    },
    {
      "channel": 1,
      "note": 53,
      "start": 33.4728,
      "duration": 0.166,
      "velocity": 88,
      "chip": "ym2612"
    },
    {
      "channel": 0,
      "note": 92,
      "start": 33.4732,
      "duration": 0.6838,
      "velocity": 99,
      "chip": "ym2612"
    },
    {
      "channel": 4,
      "note": 81,
      "start": 33.488,
      "duration": 0.0333,
      "velocity": 127,
      "chip": "ym2612"
    },
    {
      "channel": 4,
      "note": 81,
      "start": 33.5214,
      "duration": 0.0333,
      "velocity": 127,
      "chip": "ym2612"
    },
    {
      "channel": 4,
      "note": 81,
      "start": 33.5547,
      "duration": 0.1667,
      "velocity": 127,
      "chip": "ym2612"
    },
    {
      "channel": 5,
      "note": 92,
      "start": 33.6378,
      "duration": 0.6838,
      "velocity": 99,
      "chip": "ym2612"
    },
    {
      "channel": 1,
      "note": 65,
      "start": 33.6388,
      "duration": 0.1667,
      "velocity": 88,
      "chip": "ym2612"
    },
    {
      "channel": 4,
      "note": 81,
      "start": 33.7214,
      "duration": 0.0833,
      "velocity": 127,
      "chip": "ym2612"
    },
    {
      "channel": 4,
      "note": 81,
      "start": 33.8047,
      "duration": 0.1667,
      "velocity": 127,
      "chip": "ym2612"
    },
    {
      "channel": 1,
      "note": 56,
      "start": 33.8056,
      "duration": 0.1666,
      "velocity": 88,
      "chip": "ym2612"
    },
    {
      "channel": 4,
      "note": 81,
      "start": 33.9714,
      "duration": 0.0833,
      "velocity": 127,
      "chip": "ym2612"
    },
    {
      "channel": 1,
      "note": 68,
      "start": 33.9722,
      "duration": 0.184,
      "velocity": 88,
      "chip": "ym2612"
    },
    {
      "channel": 4,
      "note": 81,
      "start": 34.0547,
      "duration": 0.1004,
      "velocity": 122,
      "chip": "ym2612"
    },
    {
      "channel": 4,
      "note": 48,
      "start": 34.1551,
      "duration": 0.6663,
      "velocity": 122,
      "chip": "ym2612"
    },
    {
      "channel": 3,
      "note": 82,
      "start": 34.1555,
      "duration": 0.6663,
      "velocity": 104,
      "chip": "ym2612"
    },
    {
      "channel": 2,
      "note": 87,
      "start": 34.1559,
      "duration": 0.6663,
      "velocity": 104,
      "chip": "ym2612"
    },
    {
      "channel": 1,
      "note": 63,
      "start": 34.1562,
      "duration": 0.6663,
      "velocity": 88,
      "chip": "ym2612"
    },
    {
      "channel": 0,
      "note": 80,
      "start": 34.157,
      "duration": 0.1658,
      "velocity": 99,
      "chip": "ym2612"
    },
    {
      "channel": 5,
      "note": 80,
      "start": 34.3216,
      "duration": 0.1662,
      "velocity": 99,
      "chip": "ym2612"
    },
    {
      "channel": 0,
      "note": 71,
      "start": 34.3228,
      "duration": 0.1662,
      "velocity": 99,
      "chip": "ym2612"
    },
    {
      "channel": 5,
      "note": 71,
      "start": 34.4878,
      "duration": 0.1666,
      "velocity": 99,
      "chip": "ym2612"
    },
    {
      "channel": 0,
      "note": 76,
      "start": 34.489,
      "duration": 0.1666,
      "velocity": 99,
      "chip": "ym2612"
    },
    {
      "channel": 5,
      "note": 76,
      "start": 34.6545,
      "duration": 0.1666,
      "velocity": 99,
      "chip": "ym2612"
    },
    {
      "channel": 0,
      "note": 71,
      "start": 34.6556,
      "duration": 0.1671,
      "velocity": 99,
      "chip": "ym2612"
    },
    {
      "channel": 5,
      "note": 71,
      "start": 34.8211,
      "duration": 0.1833,
      "velocity": 99,
      "chip": "ym2612"
    },
    {
      "channel": 4,
      "note": 48,
      "start": 34.8214,
      "duration": 0.5167,
      "velocity": 122,
      "chip": "ym2612"
    },
    {
      "channel": 3,
      "note": 82,
      "start": 34.8218,
      "duration": 0.5166,
      "velocity": 104,
      "chip": "ym2612"
    },
    {
      "channel": 2,
      "note": 87,
      "start": 34.8221,
      "duration": 0.5166,
      "velocity": 104,
      "chip": "ym2612"
    },
    {
      "channel": 1,
      "note": 61,
      "start": 34.8224,
      "duration": 0.5167,
      "velocity": 88,
      "chip": "ym2612"
    },
    {
      "channel": 0,
      "note": 78,
      "start": 34.8228,
      "duration": 0.1829,
      "velocity": 99,
      "chip": "ym2612"
    },
    {
      "channel": 5,
      "note": 78,
      "start": 35.0045,
      "duration": 0.1666,
      "velocity": 99,
      "chip": "ym2612"
    },
    {
      "channel": 0,
      "note": 71,
      "start": 35.0057,
      "duration": 0.1666,
      "velocity": 99,
      "chip": "ym2612"
    },
    {
      "channel": 5,
      "note": 71,
      "start": 35.1711,
      "duration": 0.1666,
      "velocity": 99,
      "chip": "ym2612"
    },
    {
      "channel": 0,
      "note": 80,
      "start": 35.1723,
      "duration": 0.1671,
      "velocity": 99,
      "chip": "ym2612"
    },
    {
      "channel": 5,
      "note": 80,
      "start": 35.3378,
      "duration": 0.1667,
      "velocity": 99,
      "chip": "ym2612"
    },
    {
      "channel": 4,
      "note": 48,
      "start": 35.3381,
      "duration": 0.6833,
      "velocity": 122,
      "chip": "ym2612"
    },
    {
      "channel": 3,
      "note": 80,
      "start": 35.3385,
      "duration": 0.6833,
      "velocity": 104,
      "chip": "ym2612"
    },
    {
      "channel": 2,
      "note": 87,
      "start": 35.3388,
      "duration": 0.6833,
      "velocity": 104,
      "chip": "ym2612"
    },
    {
      "channel": 1,
      "note": 60,
      "start": 35.3391,
      "duration": 0.6833,
      "velocity": 88,
      "chip": "ym2612"
    },
    {
      "channel": 0,
      "note": 81,
      "start": 35.3394,
      "duration": 0.3495,
      "velocity": 99,
      "chip": "ym2612"
    },
    {
      "channel": 5,
      "note": 81,
      "start": 35.5045,
      "duration": 0.35,
      "velocity": 99,
      "chip": "ym2612"
    },
    {
      "channel": 0,
      "note": 80,
      "start": 35.6889,
      "duration": 0.1668,
      "velocity": 99,
      "chip": "ym2612"
    },
    {
      "channel": 5,
      "note": 80,
      "start": 35.8545,
      "duration": 0.1666,
      "velocity": 99,
      "chip": "ym2612"
    },
    {
      "channel": 0,
      "note": 78,
      "start": 35.8557,
      "duration": 0.1671,
      "velocity": 99,
      "chip": "ym2612"
    },
    {
      "channel": 5,
      "note": 78,
      "start": 36.0211,
      "duration": 0.1667,
      "velocity": 99,
      "chip": "ym2612"
    },
    {
      "channel": 4,
      "note": 48,
      "start": 36.0214,
      "duration": 0.5167,
      "velocity": 122,
      "chip": "ym2612"
    },
    {
      "channel": 3,
      "note": 80,
      "start": 36.0218,
      "duration": 0.5167,
      "velocity": 104,
      "chip": "ym2612"
    },
    {
      "channel": 2,
      "note": 85,
      "start": 36.0221,
      "duration": 0.5167,
      "velocity": 104,
      "chip": "ym2612"
    },
    {
      "channel": 1,
      "note": 61,
      "start": 36.0224,
      "duration": 0.5167,
      "velocity": 88,
      "chip": "ym2612"
    },
    {
      "channel": 0,
      "note": 76,
      "start": 36.0228,
      "duration": 0.3495,
      "velocity": 99,
      "chip": "ym2612"
    },
    {
      "channel": 5,
      "note": 76,
      "start": 36.1878,
      "duration": 0.35,
      "velocity": 99,
      "chip": "ym2612"
    },
    {
      "channel": 0,
      "note": 69,
      "start": 36.3722,
      "duration": 0.1672,
      "velocity": 99,
      "chip": "ym2612"
    },
    {
      "channel": 5,
      "note": 69,
      "start": 36.5378,
      "duration": 0.1666,
      "velocity": 99,
      "chip": "ym2612"
    },
    {
      "channel": 4,
      "note": 48,
      "start": 36.5381,
      "duration": 0.3333,
      "velocity": 122,
      "chip": "ym2612"
    },
    {
      "channel": 3,
      "note": 80,
      "start": 36.5385,
      "duration": 0.3333,
      "velocity": 104,
      "chip": "ym2612"
    },
    {
      "channel": 2,
      "note": 85,
      "start": 36.5388,
      "duration": 0.3333,
      "velocity": 104,
      "chip": "ym2612"
    },
    {
      "channel": 1,
      "note": 61,
      "start": 36.5391,
      "duration": 0.3333,
      "velocity": 88,
      "chip": "ym2612"
    },
    {
      "channel": 0,
      "note": 78,
      "start": 36.5394,
      "duration": 0.1662,
      "velocity": 99,
      "chip": "ym2612"
    },
    {
      "channel": 5,
      "note": 78,
      "start": 36.7045,
      "duration": 0.1666,
      "velocity": 99,
      "chip": "ym2612"
    },
    {
      "channel": 0,
      "note": 69,
      "start": 36.7056,
      "duration": 0.1671,
      "velocity": 99,
      "chip": "ym2612"
    },
    {
      "channel": 5,
      "note": 69,
      "start": 36.8711,
      "duration": 0.1833,
      "velocity": 99,
      "chip": "ym2612"
    },
    {
      "channel": 4,
      "note": 48,
      "start": 36.8714,
      "duration": 0.6833,
      "velocity": 122,
      "chip": "ym2612"
    },
    {
      "channel": 3,
      "note": 82,
      "start": 36.8718,
      "duration": 0.6833,
      "velocity": 104,
      "chip": "ym2612"
    },
    {
      "channel": 2,
      "note": 87,
      "start": 36.8721,
      "duration": 0.6833,
      "velocity": 104,
      "chip": "ym2612"
    },
    {
      "channel": 1,
      "note": 63,
      "start": 36.8724,
      "duration": 0.6833,
      "velocity": 88,
      "chip": "ym2612"
    },
    {
      "channel": 0,
      "note": 80,
      "start": 36.8728,
      "duration": 0.1829,
      "velocity": 99,
      "chip": "ym2612"
    },
    {
      "channel": 5,
      "note": 80,
      "start": 37.0545,
      "duration": 0.1666,
      "velocity": 99,
      "chip": "ym2612"
    },
    {
      "channel": 0,
      "note": 71,
      "start": 37.0557,
      "duration": 0.1666,
      "velocity": 99,
      "chip": "ym2612"
    },
    {
      "channel": 5,
      "note": 71,
      "start": 37.2211,
      "duration": 0.1666,
      "velocity": 99,
      "chip": "ym2612"
    },
    {
      "channel": 0,
      "note": 76,
      "start": 37.2223,
      "duration": 0.1667,
      "velocity": 99,
      "chip": "ym2612"
    },
    {
      "channel": 5,
      "note": 76,
      "start": 37.3878,
      "duration": 0.1666,
      "velocity": 99,
      "chip": "ym2612"
    },
    {
      "channel": 0,
      "note": 71,
      "start": 37.389,
      "duration": 0.1671,
      "velocity": 99,
      "chip": "ym2612"
    },
    {
      "channel": 5,
      "note": 71,
      "start": 37.5545,
      "duration": 0.1833,
      "velocity": 99,
      "chip": "ym2612"
    },
    {
      "channel": 4,
      "note": 48,
      "start": 37.5548,
      "duration": 0.5167,
      "velocity": 122,
      "chip": "ym2612"
    },
    {
      "channel": 3,
      "note": 82,
      "start": 37.5551,
      "duration": 0.5167,
      "velocity": 104,
      "chip": "ym2612"
    },
    {
      "channel": 2,
      "note": 87,
      "start": 37.5555,
      "duration": 0.5167,
      "velocity": 104,
      "chip": "ym2612"
    },
    {
      "channel": 1,
      "note": 61,
      "start": 37.5558,
      "duration": 0.5167,
      "velocity": 88,
      "chip": "ym2612"
    },
    {
      "channel": 0,
      "note": 78,
      "start": 37.5561,
      "duration": 0.1829,
      "velocity": 99,
      "chip": "ym2612"
    },
    {
      "channel": 5,
      "note": 78,
      "start": 37.7378,
      "duration": 0.1666,
      "velocity": 99,
      "chip": "ym2612"
    },
    {
      "channel": 0,
      "note": 71,
      "start": 37.739,
      "duration": 0.1666,
      "velocity": 99,
      "chip": "ym2612"
    },
    {
      "channel": 5,
      "note": 71,
      "start": 37.9045,
      "duration": 0.1666,
      "velocity": 99,
      "chip": "ym2612"
    },
    {
      "channel": 0,
      "note": 80,
      "start": 37.9056,
      "duration": 0.1671,
      "velocity": 99,
      "chip": "ym2612"
    },
    {
      "channel": 5,
      "note": 80,
      "start": 38.0711,
      "duration": 0.1667,
      "velocity": 99,
      "chip": "ym2612"
    },
    {
      "channel": 4,
      "note": 48,
      "start": 38.0714,
      "duration": 0.3499,
      "velocity": 122,
      "chip": "ym2612"
    },
    {
      "channel": 3,
      "note": 82,
      "start": 38.0718,
      "duration": 0.3499,
      "velocity": 104,
      "chip": "ym2612"
    },
    {
      "channel": 2,
      "note": 85,
      "start": 38.0721,
      "duration": 0.3499,
      "velocity": 104,
      "chip": "ym2612"
    },
    {
      "channel": 1,
      "note": 56,
      "start": 38.0724,
      "duration": 0.3499,
      "velocity": 88,
      "chip": "ym2612"
    },
    {
      "channel": 0,
      "note": 78,
      "start": 38.0728,
      "duration": 0.3499,
      "velocity": 99,
      "chip": "ym2612"
    },
    {
      "channel": 5,
      "note": 78,
      "start": 38.2378,
      "duration": 0.35,
      "velocity": 99,
      "chip": "ym2612"
    },
    {
      "channel": 4,
      "note": 48,
      "start": 38.4214,
      "duration": 0.1667,
      "velocity": 122,
      "chip": "ym2612"
    },
    {
      "channel": 3,
      "note": 80,
      "start": 38.4217,
      "duration": 0.1667,
      "velocity": 104,
      "chip": "ym2612"
    },
    {
      "channel": 2,
      "note": 84,
      "start": 38.422,
      "duration": 0.1668,
      "velocity": 104,
      "chip": "ym2612"
    },
    {
      "channel": 1,
      "note": 56,
      "start": 38.4224,
      "duration": 0.1668,
      "velocity": 88,
      "chip": "ym2612"
    },
    {
      "channel": 0,
      "note": 76,
      "start": 38.4227,
      "duration": 0.1667,
      "velocity": 99,
      "chip": "ym2612"
    },
    {
      "channel": 5,
      "note": 76,
      "start": 38.5878,
      "duration": 0.1666,
      "velocity": 99,
      "chip": "ym2612"
    },
    {
      "channel": 4,
      "note": 48,
      "start": 38.5881,
      "duration": 0.6838,
      "velocity": 127,
      "chip": "ym2612"
    },
    {
      "channel": 3,
      "note": 80,
      "start": 38.5885,
      "duration": 0.6838,
      "velocity": 104,
      "chip": "ym2612"
    },
    {
      "channel": 2,
      "note": 84,
      "start": 38.5888,
      "duration": 0.6838,
      "velocity": 104,
      "chip": "ym2612"
    },
    {
      "channel": 1,
      "note": 56,
      "start": 38.5891,
      "duration": 0.6838,
      "velocity": 88,
      "chip": "ym2612"
    },
    {
      "channel": 0,
      "note": 76,
      "start": 38.5894,
      "duration": 0.1662,
      "velocity": 99,
      "chip": "ym2612"
    },
    {
      "channel": 5,
      "note": 76,
      "start": 38.7545,
      "duration": 0.1666,
      "velocity": 99,
      "chip": "ym2612"
    },
    {
      "channel": 0,
      "note": 73,
      "start": 38.7556,
      "duration": 0.1667,
      "velocity": 99,
      "chip": "ym2612"
    },
    {
      "channel": 5,
      "note": 73,
      "start": 38.9211,
      "duration": 0.1666,
      "velocity": 99,
      "chip": "ym2612"
    },
    {
      "channel": 0,
      "note": 76,
      "start": 38.9224,
      "duration": 0.1666,
      "velocity": 99,
      "chip": "ym2612"
    },
    {
      "channel": 5,
      "note": 76,
      "start": 39.0878,
      "duration": 0.1833,
      "velocity": 99,
      "chip": "ym2612"
    },
    {
      "channel": 0,
      "note": 69,
      "start": 39.089,
      "duration": 0.1842,
      "velocity": 99,
      "chip": "ym2612"
    },
    {
      "channel": 5,
      "note": 69,
      "start": 39.2711,
      "duration": 0.1666,
      "velocity": 99,
      "chip": "ym2612"
    },
    {
      "channel": 4,
      "note": 81,
      "start": 39.2719,
      "duration": 0.3333,
      "velocity": 122,
      "chip": "ym2612"
    },
    {
      "channel": 3,
      "note": 80,
      "start": 39.2722,
      "duration": 0.3333,
      "velocity": 104,
      "chip": "ym2612"
    },
    {
      "channel": 2,
      "note": 85,
      "start": 39.2726,
      "duration": 0.3333,
      "velocity": 104,
      "chip": "ym2612"
    },
    {
      "channel": 1,
      "note": 49,
      "start": 39.2729,
      "duration": 0.3333,
      "velocity": 88,
      "chip": "ym2612"
    },
    {
      "channel": 0,
      "note": 78,
      "start": 39.2732,
      "duration": 0.1658,
      "velocity": 99,
      "chip": "ym2612"
    },
    {
      "channel": 5,
      "note": 78,
      "start": 39.4378,
      "duration": 0.1666,
      "velocity": 99,
      "chip": "ym2612"
    },
    {
      "channel": 0,
      "note": 69,
      "start": 39.439,
      "duration": 0.1675,
      "velocity": 99,
      "chip": "ym2612"
    },
    {
      "channel": 5,
      "note": 69,
      "start": 39.6045,
      "duration": 0.1666,
      "velocity": 99,
      "chip": "ym2612"
    },
    {
      "channel": 4,
      "note": 48,
      "start": 39.6052,
      "duration": 0.1666,
      "velocity": 127,
      "chip": "ym2612"
    },
    {
      "channel": 3,
      "note": 82,
      "start": 39.6055,
      "duration": 0.6833,
      "velocity": 104,
      "chip": "ym2612"
    },
    {
      "channel": 2,
      "note": 87,
      "start": 39.6059,
      "duration": 0.6833,
      "velocity": 104,
      "chip": "ym2612"
    },
    {
      "channel": 1,
      "note": 51,
      "start": 39.6062,
      "duration": 0.6833,
      "velocity": 88,
      "chip": "ym2612"
    },
    {
      "channel": 0,
      "note": 80,
      "start": 39.6065,
      "duration": 0.1663,
      "velocity": 99,
      "chip": "ym2612"
    },
    {
      "channel": 5,
      "note": 80,
      "start": 39.7711,
      "duration": 0.1833,
      "velocity": 99,
      "chip": "ym2612"
    },
    {
      "channel": 4,
      "note": 36,
      "start": 39.7718,
      "duration": 0.1834,
      "velocity": 127,
      "chip": "ym2612"
    },
    {
      "channel": 0,
      "note": 71,
      "start": 39.7728,
      "duration": 0.1834,
      "velocity": 99,
      "chip": "ym2612"
    },
    {
      "channel": 5,
      "note": 71,
      "start": 39.9545,
      "duration": 0.1666,
      "velocity": 99,
      "chip": "ym2612"
    },
    {
      "channel": 4,
      "note": 81,
      "start": 39.9552,
      "duration": 0.1666,
      "velocity": 127,
      "chip": "ym2612"
    },
    {
      "channel": 0,
      "note": 76,
      "start": 39.9562,
      "duration": 0.1667,
      "velocity": 99,
      "chip": "ym2612"
    },
    {
      "channel": 5,
      "note": 76,
      "start": 40.1211,
      "duration": 0.1666,
      "velocity": 99,
      "chip": "ym2612"
    },
    {
      "channel": 4,
      "note": 36,
      "start": 40.1218,
      "duration": 0.1667,
      "velocity": 122,
      "chip": "ym2612"
    },
    {
      "channel": 0,
      "note": 71,
      "start": 40.1229,
      "duration": 0.1669,
      "velocity": 99,
      "chip": "ym2612"
    },
    {
      "channel": 5,
      "note": 71,
      "start": 40.2878,
      "duration": 0.1666,
      "velocity": 99,
      "chip": "ym2612"
    },
    {
      "channel": 4,
      "note": 48,
      "start": 40.2885,
      "duration": 0.1666,
      "velocity": 127,
      "chip": "ym2612"
    },
    {
      "channel": 3,
      "note": 82,
      "start": 40.2888,
      "duration": 0.5167,
      "velocity": 104,
      "chip": "ym2612"
    },
    {
      "channel": 2,
      "note": 87,
      "start": 40.2892,
      "duration": 0.5167,
      "velocity": 104,
      "chip": "ym2612"
    },
    {
      "channel": 1,
      "note": 49,
      "start": 40.2895,
      "duration": 0.5167,
      "velocity": 88,
      "chip": "ym2612"
    },
    {
      "channel": 0,
      "note": 78,
      "start": 40.2898,
      "duration": 0.1663,
      "velocity": 99,
      "chip": "ym2612"
    },
    {
      "channel": 5,
      "note": 78,
      "start": 40.4545,
      "duration": 0.1833,
      "velocity": 99,
      "chip": "ym2612"
    },
    {
      "channel": 4,
      "note": 36,
      "start": 40.4551,
      "duration": 0.1834,
      "velocity": 127,
      "chip": "ym2612"
    },
    {
      "channel": 0,
      "note": 71,
      "start": 40.4562,
      "duration": 0.1834,
      "velocity": 99,
      "chip": "ym2612"
    },
    {
      "channel": 5,
      "note": 71,
      "start": 40.6378,
      "duration": 0.1666,
      "velocity": 99,
      "chip": "ym2612"
    },
    {
      "channel": 4,
      "note": 81,
      "start": 40.6385,
      "duration": 0.1666,
      "velocity": 122,
      "chip": "ym2612"
    },
    {
      "channel": 0,
      "note": 80,
      "start": 40.6395,
      "duration": 0.1669,
      "velocity": 99,
      "chip": "ym2612"
    },
    {
      "channel": 5,
      "note": 80,
      "start": 40.8045,
      "duration": 0.1667,
      "velocity": 99,
      "chip": "ym2612"
    },
    {
      "channel": 4,
      "note": 48,
      "start": 40.8052,
      "duration": 0.1666,
      "velocity": 127,
      "chip": "ym2612"
    },
    {
      "channel": 3,
      "note": 80,
      "start": 40.8055,
      "duration": 0.6833,
      "velocity": 104,
      "chip": "ym2612"
    },
    {
      "channel": 2,
      "note": 87,
      "start": 40.8059,
      "duration": 0.6833,
      "velocity": 104,
      "chip": "ym2612"
    },
    {
      "channel": 1,
      "note": 48,
      "start": 40.8062,
      "duration": 0.6833,
      "velocity": 88,
      "chip": "ym2612"
    },
    {
      "channel": 0,
      "note": 81,
      "start": 40.8065,
      "duration": 0.3329,
      "velocity": 99,
      "chip": "ym2612"
    },
    {
      "channel": 5,
      "note": 81,
      "start": 40.9711,
      "duration": 0.35,
      "velocity": 99,
      "chip": "ym2612"
    },
    {
      "channel": 4,
      "note": 36,
      "start": 40.9718,
      "duration": 0.1666,
      "velocity": 122,
      "chip": "ym2612"
    },
    {
      "channel": 4,
      "note": 48,
      "start": 41.1384,
      "duration": 0.1835,
      "velocity": 127,
      "chip": "ym2612"
    },
    {
      "channel": 0,
      "note": 80,
      "start": 41.1395,
      "duration": 0.1835,
      "velocity": 99,
      "chip": "ym2612"
    },
    {
      "channel": 5,
      "note": 80,
      "start": 41.3211,
      "duration": 0.1666,
      "velocity": 99,
      "chip": "ym2612"
    },
    {
      "channel": 4,
      "note": 81,
      "start": 41.3219,
      "duration": 0.1666,
      "velocity": 122,
      "chip": "ym2612"
    },
    {
      "channel": 0,
      "note": 78,
      "start": 41.3229,
      "duration": 0.1669,
      "velocity": 99,
      "chip": "ym2612"
    },
    {
      "channel": 5,
      "note": 78,
      "start": 41.4878,
      "duration": 0.1667,
      "velocity": 99,
      "chip": "ym2612"
    },
    {
      "channel": 4,
      "note": 48,
      "start": 41.4885,
      "duration": 0.1666,
      "velocity": 127,
      "chip": "ym2612"
    },
    {
      "channel": 3,
      "note": 80,
      "start": 41.4888,
      "duration": 0.5167,
      "velocity": 104,
      "chip": "ym2612"
    },
    {
      "channel": 2,
      "note": 85,
      "start": 41.4892,
      "duration": 0.5167,
      "velocity": 104,
      "chip": "ym2612"
    },
    {
      "channel": 1,
      "note": 49,
      "start": 41.4895,
      "duration": 0.5167,
      "velocity": 88,
      "chip": "ym2612"
    },
    {
      "channel": 0,
      "note": 76,
      "start": 41.4898,
      "duration": 0.3329,
      "velocity": 99,
      "chip": "ym2612"
    },
    {
      "channel": 5,
      "note": 76,
      "start": 41.6545,
      "duration": 0.35,
      "velocity": 99,
      "chip": "ym2612"
    },
    {
      "channel": 4,
      "note": 36,
      "start": 41.6551,
      "duration": 0.1666,
      "velocity": 122,
      "chip": "ym2612"
    },
    {
      "channel": 4,
      "note": 48,
      "start": 41.8217,
      "duration": 0.1835,
      "velocity": 127,
      "chip": "ym2612"
    },
    {
      "channel": 0,
      "note": 69,
      "start": 41.8228,
      "duration": 0.1838,
      "velocity": 99,
      "chip": "ym2612"
    },
    {
      "channel": 5,
      "note": 69,
      "start": 42.0045,
      "duration": 0.1666,
      "velocity": 99,
      "chip": "ym2612"
    },
    {
      "channel": 4,
      "note": 81,
      "start": 42.0052,
      "duration": 0.1666,
      "velocity": 127,
      "chip": "ym2612"
    },
    {
      "channel": 3,
      "note": 80,
      "start": 42.0056,
      "duration": 0.3333,
      "velocity": 104,
      "chip": "ym2612"
    },
    {
      "channel": 2,
      "note": 85,
      "start": 42.0059,
      "duration": 0.3333,
      "velocity": 104,
      "chip": "ym2612"
    },
    {
      "channel": 1,
      "note": 49,
      "start": 42.0062,
      "duration": 0.3333,
      "velocity": 88,
      "chip": "ym2612"
    },
    {
      "channel": 0,
      "note": 78,
      "start": 42.0066,
      "duration": 0.1663,
      "velocity": 99,
      "chip": "ym2612"
    },
    {
      "channel": 5,
      "note": 78,
      "start": 42.1711,
      "duration": 0.1666,
      "velocity": 99,
      "chip": "ym2612"
    },
    {
      "channel": 4,
      "note": 36,
      "start": 42.1718,
      "duration": 0.1667,
      "velocity": 122,
      "chip": "ym2612"
    },
    {
      "channel": 0,
      "note": 69,
      "start": 42.1728,
      "duration": 0.167,
      "velocity": 99,
      "chip": "ym2612"
    },
    {
      "channel": 5,
      "note": 69,
      "start": 42.3378,
      "duration": 0.1666,
      "velocity": 99,
      "chip": "ym2612"
    },
    {
      "channel": 4,
      "note": 48,
      "start": 42.3385,
      "duration": 0.1666,
      "velocity": 127,
      "chip": "ym2612"
    },
    {
      "channel": 3,
      "note": 82,
      "start": 42.3388,
      "duration": 0.6833,
      "velocity": 104,
      "chip": "ym2612"
    },
    {
      "channel": 2,
      "note": 87,
      "start": 42.3392,
      "duration": 0.6833,
      "velocity": 104,
      "chip": "ym2612"
    },
    {
      "channel": 1,
      "note": 51,
      "start": 42.3395,
      "duration": 0.6833,
      "velocity": 88,
      "chip": "ym2612"
    },
    {
      "channel": 0,
      "note": 80,
      "start": 42.3398,
      "duration": 0.1663,
      "velocity": 99,
      "chip": "ym2612"
    },
    {
      "channel": 5,
      "note": 80,
      "start": 42.5045,
      "duration": 0.1833,
      "velocity": 99,
      "chip": "ym2612"
    },
    {
      "channel": 4,
      "note": 36,
      "start": 42.5051,
      "duration": 0.1834,
      "velocity": 127,
      "chip": "ym2612"
    },
    {
      "channel": 0,
      "note": 71,
      "start": 42.5062,
      "duration": 0.1834,
      "velocity": 99,
      "chip": "ym2612"
    },
    {
      "channel": 5,
      "note": 71,
      "start": 42.6878,
      "duration": 0.1666,
      "velocity": 99,
      "chip": "ym2612"
    },
    {
      "channel": 4,
      "note": 81,
      "start": 42.6885,
      "duration": 0.1666,
      "velocity": 127,
      "chip": "ym2612"
    },
    {
      "channel": 0,
      "note": 76,
      "start": 42.6895,
      "duration": 0.1667,
      "velocity": 99,
      "chip": "ym2612"
    },
    {
      "channel": 5,
      "note": 76,
      "start": 42.8545,
      "duration": 0.1666,
      "velocity": 99,
      "chip": "ym2612"
    },
    {
      "channel": 4,
      "note": 36,
      "start": 42.8551,
      "duration": 0.1667,
      "velocity": 122,
      "chip": "ym2612"
    },
    {
      "channel": 0,
      "note": 71,
      "start": 42.8562,
      "duration": 0.1669,
      "velocity": 99,
      "chip": "ym2612"
    },
    {
      "channel": 5,
      "note": 71,
      "start": 43.0211,
      "duration": 0.1666,
      "velocity": 99,
      "chip": "ym2612"
    },
    {
      "channel": 4,
      "note": 48,
      "start": 43.0218,
      "duration": 0.1667,
      "velocity": 127,
      "chip": "ym2612"
    },
    {
      "channel": 3,
      "note": 82,
      "start": 43.0222,
      "duration": 0.5167,
      "velocity": 104,
      "chip": "ym2612"
    },
    {
      "channel": 2,
      "note": 87,
      "start": 43.0225,
      "duration": 0.5167,
      "velocity": 104,
      "chip": "ym2612"
    },
    {
      "channel": 1,
      "note": 49,
      "start": 43.0228,
      "duration": 0.5167,
      "velocity": 88,
      "chip": "ym2612"
    },
    {
      "channel": 0,
      "note": 78,
      "start": 43.0232,
      "duration": 0.1663,
      "velocity": 99,
      "chip": "ym2612"
    },
    {
      "channel": 5,
      "note": 78,
      "start": 43.1878,
      "duration": 0.1666,
      "velocity": 99,
      "chip": "ym2612"
    },
    {
      "channel": 4,
      "note": 36,
      "start": 43.1885,
      "duration": 0.1667,
      "velocity": 127,
      "chip": "ym2612"
    },
    {
      "channel": 0,
      "note": 71,
      "start": 43.1895,
      "duration": 0.1668,
      "velocity": 99,
      "chip": "ym2612"
    },
    {
      "channel": 5,
      "note": 71,
      "start": 43.3545,
      "duration": 0.1833,
      "velocity": 99,
      "chip": "ym2612"
    },
    {
      "channel": 4,
      "note": 81,
      "start": 43.3552,
      "duration": 0.1833,
      "velocity": 122,
      "chip": "ym2612"
    },
    {
      "channel": 0,
      "note": 80,
      "start": 43.3563,
      "duration": 0.1836,
      "velocity": 99,
      "chip": "ym2612"
    },
    {
      "channel": 5,
      "note": 80,
      "start": 43.5378,
      "duration": 0.1667,
      "velocity": 99,
      "chip": "ym2612"
    },
    {
      "channel": 4,
      "note": 48,
      "start": 43.5385,
      "duration": 0.1666,
      "velocity": 127,
      "chip": "ym2612"
    },
    {
      "channel": 3,
      "note": 82,
      "start": 43.5388,
      "duration": 0.3332,
      "velocity": 104,
      "chip": "ym2612"
    },
    {
      "channel": 2,
      "note": 87,
      "start": 43.5392,
      "duration": 0.3332,
      "velocity": 104,
      "chip": "ym2612"
    },
    {
      "channel": 1,
      "note": 47,
      "start": 43.5395,
      "duration": 0.3332,
      "velocity": 88,
      "chip": "ym2612"
    },
    {
      "channel": 0,
      "note": 78,
      "start": 43.5398,
      "duration": 0.3332,
      "velocity": 99,
      "chip": "ym2612"
    },
    {
      "channel": 5,
      "note": 78,
      "start": 43.7045,
      "duration": 0.3333,
      "velocity": 99,
      "chip": "ym2612"
    },
    {
      "channel": 4,
      "note": 36,
      "start": 43.7051,
      "duration": 0.1666,
      "velocity": 122,
      "chip": "ym2612"
    },
    {
      "channel": 4,
      "note": 48,
      "start": 43.8717,
      "duration": 0.1668,
      "velocity": 127,
      "chip": "ym2612"
    },
    {
      "channel": 3,
      "note": 82,
      "start": 43.8721,
      "duration": 0.1668,
      "velocity": 104,
      "chip": "ym2612"
    },
    {
      "channel": 2,
      "note": 87,
      "start": 43.8724,
      "duration": 0.1668,
      "velocity": 104,
      "chip": "ym2612"
    },
    {
      "channel": 1,
      "note": 47,
      "start": 43.8727,
      "duration": 0.1668,
      "velocity": 88,
      "chip": "ym2612"
    },
    {
      "channel": 0,
      "note": 76,
      "start": 43.8731,
      "duration": 0.1668,
      "velocity": 99,
      "chip": "ym2612"
    },
    {
      "channel": 5,
      "note": 76,
      "start": 44.0378,
      "duration": 0.1833,
      "velocity": 99,
      "chip": "ym2612"
    },
    {
      "channel": 4,
      "note": 81,
      "start": 44.0385,
      "duration": 0.1833,
      "velocity": 127,
      "chip": "ym2612"
    },
    {
      "channel": 3,
      "note": 82,
      "start": 44.0389,
      "duration": 5.1332,
      "velocity": 104,
      "chip": "ym2612"
    },
    {
      "channel": 2,
      "note": 87,
      "start": 44.0392,
      "duration": 5.1333,
      "velocity": 104,
      "chip": "ym2612"
    },
    {
      "channel": 1,
      "note": 47,
      "start": 44.0395,
      "duration": 0.1831,
      "velocity": 88,
      "chip": "ym2612"
    },
    {
      "channel": 0,
      "note": 76,
      "start": 44.0399,
      "duration": 0.8667,
      "velocity": 107,
      "chip": "ym2612"
    },
    {
      "channel": 5,
      "note": 76,
      "start": 44.2211,
      "duration": 0.8504,
      "velocity": 107,
      "chip": "ym2612"
    },
    {
      "channel": 4,
      "note": 36,
      "start": 44.2218,
      "duration": 0.1666,
      "velocity": 122,
      "chip": "ym2612"
    },
    {
      "channel": 1,
      "note": 47,
      "start": 44.2227,
      "duration": 0.1665,
      "velocity": 88,
      "chip": "ym2612"
    },
    {
      "channel": 4,
      "note": 48,
      "start": 44.3884,
      "duration": 0.1667,
      "velocity": 127,
      "chip": "ym2612"
    },
    {
      "channel": 1,
      "note": 47,
      "start": 44.3892,
      "duration": 0.1667,
      "velocity": 88,
      "chip": "ym2612"
    },
    {
      "channel": 4,
      "note": 36,
      "start": 44.5551,
      "duration": 0.1667,
      "velocity": 127,
      "chip": "ym2612"
    },
    {
      "channel": 1,
      "note": 47,
      "start": 44.5559,
      "duration": 0.1667,
      "velocity": 88,
      "chip": "ym2612"
    },
    {
      "channel": 4,
      "note": 81,
      "start": 44.7218,
      "duration": 0.1833,
      "velocity": 127,
      "chip": "ym2612"
    },
    {
      "channel": 1,
      "note": 47,
      "start": 44.7226,
      "duration": 0.1832,
      "velocity": 88,
      "chip": "ym2612"
    },
    {
      "channel": 4,
      "note": 36,
      "start": 44.9051,
      "duration": 0.1672,
      "velocity": 122,
      "chip": "ym2612"
    },
    {
      "channel": 1,
      "note": 47,
      "start": 44.9059,
      "duration": 0.1672,
      "velocity": 88,
      "chip": "ym2612"
    },
    {
      "channel": 0,
      "note": 75,
      "start": 44.9066,
      "duration": 0.0823,
      "velocity": 107,
      "chip": "ym2612"
    },
    {
      "channel": 0,
      "note": 77,
      "start": 44.9889,
      "duration": 0.0845,
      "velocity": 107,
      "chip": "ym2612"
    },
    {
      "channel": 5,
      "note": 75,
      "start": 45.0716,
      "duration": 0.0829,
      "velocity": 107,
      "chip": "ym2612"
    },
    {
      "channel": 4,
      "note": 48,
      "start": 45.0723,
      "duration": 0.1662,
      "velocity": 127,
      "chip": "ym2612"
    },
    {
      "channel": 1,
      "note": 47,
      "start": 45.0731,
      "duration": 0.1662,
      "velocity": 88,
      "chip": "ym2612"
    },
    {
      "channel": 0,
      "note": 82,
      "start": 45.0734,
      "duration": 0.5161,
      "velocity": 107,
      "chip": "ym2612"
    },
    {
      "channel": 5,
      "note": 77,
      "start": 45.1544,
      "duration": 0.0833,
      "velocity": 107,
      "chip": "ym2612"
    },
    {
      "channel": 5,
      "note": 82,
      "start": 45.2378,
      "duration": 0.5166,
      "velocity": 107,
      "chip": "ym2612"
    },
    {
      "channel": 4,
      "note": 36,
      "start": 45.2385,
      "duration": 0.1666,
      "velocity": 127,
      "chip": "ym2612"
    },
    {
      "channel": 1,
      "note": 47,
      "start": 45.2393,
      "duration": 0.1666,
      "velocity": 88,
      "chip": "ym2612"
    },
    {
      "channel": 4,
      "note": 81,
      "start": 45.4051,
      "duration": 0.1833,
      "velocity": 127,
      "chip": "ym2612"
    },
    {
      "channel": 1,
      "note": 47,
      "start": 45.4059,
      "duration": 0.1833,
      "velocity": 88,
      "chip": "ym2612"
    },
    {
      "channel": 4,
      "note": 36,
      "start": 45.5884,
      "duration": 0.1668,
      "velocity": 122,
      "chip": "ym2612"
    },
    {
      "channel": 1,
      "note": 47,
      "start": 45.5892,
      "duration": 0.1668,
      "velocity": 88,
      "chip": "ym2612"
    },
    {
      "channel": 0,
      "note": 77,
      "start": 45.5895,
      "duration": 0.5001,
      "velocity": 107,
      "chip": "ym2612"
    },
    {
      "channel": 5,
      "note": 77,
      "start": 45.7544,
      "duration": 0.5167,
      "velocity": 107,
      "chip": "ym2612"
    },
    {
      "channel": 4,
      "note": 48,
      "start": 45.7551,
      "duration": 0.1666,
      "velocity": 127,
      "chip": "ym2612"
    },
    {
      "channel": 1,
      "note": 47,
      "start": 45.756,
      "duration": 0.1666,
      "velocity": 88,
      "chip": "ym2612"
    },
    {
      "channel": 4,
      "note": 36,
      "start": 45.9217,
      "duration": 0.1667,
      "velocity": 127,
      "chip": "ym2612"
    },
    {
      "channel": 1,
      "note": 47,
      "start": 45.9225,
      "duration": 0.1668,
      "velocity": 88,
      "chip": "ym2612"
    },
    {
      "channel": 4,
      "note": 81,
      "start": 46.0885,
      "duration": 0.1834,
      "velocity": 127,
      "chip": "ym2612"
    },
    {
      "channel": 1,
      "note": 47,
      "start": 46.0893,
      "duration": 0.1833,
      "velocity": 88,
      "chip": "ym2612"
    },
    {
      "channel": 0,
      "note": 75,
      "start": 46.0896,
      "duration": 0.3499,
      "velocity": 107,
      "chip": "ym2612"
    },
    {
      "channel": 5,
      "note": 75,
      "start": 46.2711,
      "duration": 0.3333,
      "velocity": 107,
      "chip": "ym2612"
    },
    {
      "channel": 4,
      "note": 36,
      "start": 46.2718,
      "duration": 0.1666,
      "velocity": 122,
      "chip": "ym2612"
    },
    {
      "channel": 1,
      "note": 47,
      "start": 46.2726,
      "duration": 0.1666,
      "velocity": 88,
      "chip": "ym2612"
    },
    {
      "channel": 4,
      "note": 48,
      "start": 46.4384,
      "duration": 0.1668,
      "velocity": 127,
      "chip": "ym2612"
    },
    {
      "channel": 1,
      "note": 47,
      "start": 46.4392,
      "duration": 0.1668,
      "velocity": 88,
      "chip": "ym2612"
    },
    {
      "channel": 0,
      "note": 70,
      "start": 46.4395,
      "duration": 0.5167,
      "velocity": 107,
      "chip": "ym2612"
    },
    {
      "channel": 5,
      "note": 70,
      "start": 46.6045,
      "duration": 0.5166,
      "velocity": 107,
      "chip": "ym2612"
    },
    {
      "channel": 4,
      "note": 36,
      "start": 46.6051,
      "duration": 0.1666,
      "velocity": 127,
      "chip": "ym2612"
    },
    {
      "channel": 1,
      "note": 47,
      "start": 46.6059,
      "duration": 0.1666,
      "velocity": 88,
      "chip": "ym2612"
    },
    {
      "channel": 4,
      "note": 81,
      "start": 46.7718,
      "duration": 0.1833,
      "velocity": 127,
      "chip": "ym2612"
    },
    {
      "channel": 1,
      "note": 47,
      "start": 46.7726,
      "duration": 0.1833,
      "velocity": 88,
      "chip": "ym2612"
    },
    {
      "channel": 4,
      "note": 36,
      "start": 46.955,
      "duration": 0.1668,
      "velocity": 122,
      "chip": "ym2612"
    },
    {
      "channel": 1,
      "note": 47,
      "start": 46.9559,
      "duration": 0.1668,
      "velocity": 88,
      "chip": "ym2612"
    },
    {
      "channel": 0,
      "note": 65,
      "start": 46.9562,
      "duration": 0.5001,
      "velocity": 107,
      "chip": "ym2612"
    },
    {
      "channel": 5,
      "note": 65,
      "start": 47.1211,
      "duration": 0.5,
      "velocity": 107,
      "chip": "ym2612"
    },
    {
      "channel": 4,
      "note": 48,
      "start": 47.1218,
      "duration": 0.1666,
      "velocity": 127,
      "chip": "ym2612"
    },
    {
      "channel": 1,
      "note": 47,
      "start": 47.1227,
      "duration": 0.1665,
      "velocity": 88,
      "chip": "ym2612"
    },
    {
      "channel": 4,
      "note": 36,
      "start": 47.2884,
      "duration": 0.1667,
      "velocity": 127,
      "chip": "ym2612"
    },
    {
      "channel": 1,
      "note": 47,
      "start": 47.2892,
      "duration": 0.1668,
      "velocity": 88,
      "chip": "ym2612"
    },
    {
      "channel": 4,
      "note": 81,
      "start": 47.4551,
      "duration": 0.1667,
      "velocity": 127,
      "chip": "ym2612"
    },
    {
      "channel": 1,
      "note": 47,
      "start": 47.4559,
      "duration": 0.1667,
      "velocity": 88,
      "chip": "ym2612"
    },
    {
      "channel": 0,
      "note": 63,
      "start": 47.4563,
      "duration": 0.3499,
      "velocity": 107,
      "chip": "ym2612"
    },
    {
      "channel": 5,
      "note": 63,
      "start": 47.6211,
      "duration": 0.35,
      "velocity": 107,
      "chip": "ym2612"
    },
    {
      "channel": 4,
      "note": 36,
      "start": 47.6218,
      "duration": 0.1832,
      "velocity": 122,
      "chip": "ym2612"
    },
    {
      "channel": 1,
      "note": 47,
      "start": 47.6226,
      "duration": 0.1832,
      "velocity": 88,
      "chip": "ym2612"
    },
    {
      "channel": 4,
      "note": 48,
      "start": 47.8051,
      "duration": 0.1668,
      "velocity": 127,
      "chip": "ym2612"
    },
    {
      "channel": 1,
      "note": 47,
      "start": 47.8059,
      "duration": 0.1667,
      "velocity": 88,
      "chip": "ym2612"
    },
    {
      "channel": 0,
      "note": 58,
      "start": 47.8062,
      "duration": 0.5,
      "velocity": 107,
      "chip": "ym2612"
    },
    {
      "channel": 5,
      "note": 58,
      "start": 47.9711,
      "duration": 0.5166,
      "velocity": 107,
      "chip": "ym2612"
    },
    {
      "channel": 4,
      "note": 36,
      "start": 47.9718,
      "duration": 0.1666,
      "velocity": 127,
      "chip": "ym2612"
    },
    {
      "channel": 1,
      "note": 47,
      "start": 47.9726,
      "duration": 0.1666,
      "velocity": 88,
      "chip": "ym2612"
    },
    {
      "channel": 4,
      "note": 81,
      "start": 48.1384,
      "duration": 0.1666,
      "velocity": 127,
      "chip": "ym2612"
    },
    {
      "channel": 1,
      "note": 47,
      "start": 48.1392,
      "duration": 0.1666,
      "velocity": 88,
      "chip": "ym2612"
    },
    {
      "channel": 4,
      "note": 36,
      "start": 48.3051,
      "duration": 0.1834,
      "velocity": 122,
      "chip": "ym2612"
    },
    {
      "channel": 1,
      "note": 47,
      "start": 48.3059,
      "duration": 0.1834,
      "velocity": 88,
      "chip": "ym2612"
    },
    {
      "channel": 0,
      "note": 53,
      "start": 48.3062,
      "duration": 0.5168,
      "velocity": 107,
      "chip": "ym2612"
    },
    {
      "channel": 5,
      "note": 53,
      "start": 48.4878,
      "duration": 0.5,
      "velocity": 107,
      "chip": "ym2612"
    },
    {
      "channel": 4,
      "note": 48,
      "start": 48.4885,
      "duration": 0.1666,
      "velocity": 127,
      "chip": "ym2612"
    },
    {
      "channel": 1,
      "note": 47,
      "start": 48.4893,
      "duration": 0.1665,
      "velocity": 88,
      "chip": "ym2612"
    },
    {
      "channel": 4,
      "note": 36,
      "start": 48.655,
      "duration": 0.1667,
      "velocity": 127,
      "chip": "ym2612"
    },
    {
      "channel": 1,
      "note": 47,
      "start": 48.6559,
      "duration": 0.1668,
      "velocity": 88,
      "chip": "ym2612"
    },
    {
      "channel": 4,
      "note": 81,
      "start": 48.8218,
      "duration": 0.1667,
      "velocity": 127,
      "chip": "ym2612"
    },
    {
      "channel": 1,
      "note": 47,
      "start": 48.8226,
      "duration": 0.1667,
      "velocity": 88,
      "chip": "ym2612"
    },
    {
      "channel": 0,
      "note": 51,
      "start": 48.8229,
      "duration": 0.3502,
      "velocity": 107,
      "chip": "ym2612"
    },
    {
      "channel": 5,
      "note": 51,
      "start": 48.9878,
      "duration": 0.35,
      "velocity": 107,
      "chip": "ym2612"
    },
    {
      "channel": 4,
      "note": 36,
      "start": 48.9885,
      "duration": 0.1833,
      "velocity": 127,
      "chip": "ym2612"
    },
    {
      "channel": 1,
      "note": 47,
      "start": 48.9893,
      "duration": 0.1835,
      "velocity": 88,
      "chip": "ym2612"
    },
    {
      "channel": 4,
      "note": 81,
      "start": 49.1718,
      "duration": 0.1667,
      "velocity": 122,
      "chip": "ym2612"
    },
    {
      "channel": 3,
      "note": 87,
      "start": 49.1722,
      "duration": 1.3672,
      "velocity": 115,
      "chip": "ym2612"
    },
    {
      "channel": 2,
      "note": 94,
      "start": 49.1725,
      "duration": 1.3676,
      "velocity": 115,
      "chip": "ym2612"
    },
    {
      "channel": 1,
      "note": 47,
      "start": 49.1728,
      "duration": 0.1665,
      "velocity": 88,
      "chip": "ym2612"
    },
    {
      "channel": 0,
      "note": 35,
      "start": 49.1731,
      "duration": 0.0825,
      "velocity": 107,
      "chip": "ym2612"
    },
    {
      "channel": 0,
      "note": 40,
      "start": 49.2556,
      "duration": 0.0839,
      "velocity": 107,
      "chip": "ym2612"
    },
    {
      "channel": 5,
      "note": 35,
      "start": 49.3378,
      "duration": 0.0833,
      "velocity": 107,
      "chip": "ym2612"
    },
    {
      "channel": 4,
      "note": 48,
      "start": 49.3385,
      "duration": 0.1667,
      "velocity": 127,
      "chip": "ym2612"
    },
    {
      "channel": 1,
      "note": 59,
      "start": 49.3393,
      "duration": 0.1667,
      "velocity": 88,
      "chip": "ym2612"
    },
    {
      "channel": 0,
      "note": 42,
      "start": 49.3395,
      "duration": 0.0827,
      "velocity": 107,
      "chip": "ym2612"
    },
    {
      "channel": 5,
      "note": 40,
      "start": 49.4211,
      "duration": 0.0833,
      "velocity": 107,
      "chip": "ym2612"
    },
    {
      "channel": 0,
      "note": 47,
      "start": 49.4222,
      "duration": 0.0841,
      "velocity": 107,
      "chip": "ym2612"
    },
    {
      "channel": 5,
      "note": 42,
      "start": 49.5044,
      "duration": 0.0833,
      "velocity": 107,
      "chip": "ym2612"
    },
    {
      "channel": 4,
      "note": 81,
      "start": 49.5052,
      "duration": 0.1666,
      "velocity": 122,
      "chip": "ym2612"
    },
    {
      "channel": 1,
      "note": 47,
      "start": 49.506,
      "duration": 0.1666,
      "velocity": 88,
      "chip": "ym2612"
    },
    {
      "channel": 0,
      "note": 52,
      "start": 49.5063,
      "duration": 0.0827,
      "velocity": 107,
      "chip": "ym2612"
    },
    {
      "channel": 5,
      "note": 47,
      "start": 49.5877,
      "duration": 0.0833,
      "velocity": 107,
      "chip": "ym2612"
    },
    {
      "channel": 0,
      "note": 54,
      "start": 49.589,
      "duration": 0.0839,
      "velocity": 107,
      "chip": "ym2612"
    },
    {
      "channel": 5,
      "note": 52,
      "start": 49.6711,
      "duration": 0.0833,
      "velocity": 107,
      "chip": "ym2612"
    },
    {
      "channel": 4,
      "note": 48,
      "start": 49.6718,
      "duration": 0.1834,
      "velocity": 127,
      "chip": "ym2612"
    },
    {
      "channel": 1,
      "note": 47,
      "start": 49.6726,
      "duration": 0.1834,
      "velocity": 88,
      "chip": "ym2612"
    },
    {
      "channel": 0,
      "note": 59,
      "start": 49.6729,
      "duration": 0.0827,
      "velocity": 107,
      "chip": "ym2612"
    },
    {
      "channel": 5,
      "note": 54,
      "start": 49.7544,
      "duration": 0.1,
      "velocity": 107,
      "chip": "ym2612"
    },
    {
      "channel": 0,
      "note": 64,
      "start": 49.7556,
      "duration": 0.1007,
      "velocity": 107,
      "chip": "ym2612"
    },
    {
      "channel": 5,
      "note": 59,
      "start": 49.8544,
      "duration": 0.0833,
      "velocity": 107,
      "chip": "ym2612"
    },
    {
      "channel": 4,
      "note": 83,
      "start": 49.8552,
      "duration": 0.0161,
      "velocity": 127,
      "chip": "ym2612"
    },
    {
      "channel": 1,
      "note": 59,
      "start": 49.856,
      "duration": 0.1663,
      "velocity": 88,
      "chip": "ym2612"
    },
    {
      "channel": 0,
      "note": 66,
      "start": 49.8563,
      "duration": 0.0828,
      "velocity": 107,
      "chip": "ym2612"
    },
    {
      "channel": 4,
      "note": 83,
      "start": 49.8713,
      "duration": 0.0333,
      "velocity": 127,
      "chip": "ym2612"
    },
    {
      "channel": 4,
      "note": 83,
      "start": 49.9047,
      "duration": 0.0334,
      "velocity": 127,
      "chip": "ym2612"
    },
    {
      "channel": 5,
      "note": 64,
      "start": 49.9377,
      "duration": 0.0834,
      "velocity": 107,
      "chip": "ym2612"
    },
    {
      "channel": 4,
      "note": 83,
      "start": 49.9381,
      "duration": 0.0834,
      "velocity": 127,
      "chip": "ym2612"
    },
    {
      "channel": 0,
      "note": 71,
      "start": 49.9391,
      "duration": 0.0835,
      "velocity": 107,
      "chip": "ym2612"
    },
    {
      "channel": 5,
      "note": 66,
      "start": 50.0211,
      "duration": 0.0833,
      "velocity": 107,
      "chip": "ym2612"
    },
    {
      "channel": 4,
      "note": 83,
      "start": 50.0215,
      "duration": 0.0833,
      "velocity": 127,
      "chip": "ym2612"
    },
    {
      "channel": 1,
      "note": 47,
      "start": 50.0223,
      "duration": 0.1666,
      "velocity": 88,
      "chip": "ym2612"
    },
    {
      "channel": 0,
      "note": 76,
      "start": 50.0226,
      "duration": 0.0832,
      "velocity": 107,
      "chip": "ym2612"
    },
    {
      "channel": 5,
      "note": 71,
      "start": 50.1044,
      "duration": 0.0833,
      "velocity": 107,
      "chip": "ym2612"
    },
    {
      "channel": 4,
      "note": 83,
      "start": 50.1048,
      "duration": 0.0833,
      "velocity": 127,
      "chip": "ym2612"
    },
    {
      "channel": 0,
      "note": 78,
      "start": 50.1058,
      "duration": 0.0835,
      "velocity": 107,
      "chip": "ym2612"
    },
    {
      "channel": 5,
      "note": 76,
      "start": 50.1877,
      "duration": 0.0833,
      "velocity": 107,
      "chip": "ym2612"
    },
    {
      "channel": 4,
      "note": 71,
      "start": 50.1881,
      "duration": 0.0332,
      "velocity": 127,
      "chip": "ym2612"
    },
    {
      "channel": 1,
      "note": 47,
      "start": 50.1889,
      "duration": 0.1667,
      "velocity": 88,
      "chip": "ym2612"
    },
    {
      "channel": 0,
      "note": 83,
      "start": 50.1892,
      "duration": 0.0832,
      "velocity": 107,
      "chip": "ym2612"
    },
    {
      "channel": 4,
      "note": 71,
      "start": 50.2213,
      "duration": 0.0167,
      "velocity": 127,
      "chip": "ym2612"
    },
    {
      "channel": 4,
      "note": 71,
      "start": 50.238,
      "duration": 0.0334,
      "velocity": 127,
      "chip": "ym2612"
    },
    {
      "channel": 5,
      "note": 78,
      "start": 50.2711,
      "duration": 0.0833,
      "velocity": 107,
      "chip": "ym2612"
    },
    {
      "channel": 4,
      "note": 71,
      "start": 50.2714,
      "duration": 0.0834,
      "velocity": 127,
      "chip": "ym2612"
    },
    {
      "channel": 0,
      "note": 88,
      "start": 50.2724,
      "duration": 0.0835,
      "velocity": 107,
      "chip": "ym2612"
    },
    {
      "channel": 5,
      "note": 83,
      "start": 50.3544,
      "duration": 0.0833,
      "velocity": 107,
      "chip": "ym2612"
    },
    {
      "channel": 4,
      "note": 71,
      "start": 50.3548,
      "duration": 0.0833,
      "velocity": 127,
      "chip": "ym2612"
    },
    {
      "channel": 1,
      "note": 59,
      "start": 50.3556,
      "duration": 0.1849,
      "velocity": 88,
      "chip": "ym2612"
    },
    {
      "channel": 0,
      "note": 90,
      "start": 50.3559,
      "duration": 0.0832,
      "velocity": 107,
      "chip": "ym2612"
    },
    {
      "channel": 5,
      "note": 88,
      "start": 50.4378,
      "duration": 0.1,
      "velocity": 107,
      "chip": "ym2612"
    },
    {
      "channel": 4,
      "note": 71,
      "start": 50.4381,
      "duration": 0.1004,
      "velocity": 122,
      "chip": "ym2612"
    },
    {
      "channel": 0,
      "note": 95,
      "start": 50.4391,
      "duration": 0.1019,
      "velocity": 107,
      "chip": "ym2612"
    },
    {
      "channel": 5,
      "note": 90,
      "start": 50.5377,
      "duration": 0.0833,
      "velocity": 107,
      "chip": "ym2612"
    },
    {
      "channel": 4,
      "note": 48,
      "start": 50.5385,
      "duration": 0.1666,
      "velocity": 127,
      "chip": "ym2612"
    },
    {
      "channel": 3,
      "note": 84,
      "start": 50.5393,
      "duration": 0.3155,
      "velocity": 115,
      "chip": "ym2612"
    },
    {
      "channel": 2,
      "note": 87,
      "start": 50.5401,
      "duration": 0.3147,
      "velocity": 115,
      "chip": "ym2612"
    },
    {
      "channel": 1,
      "note": 48,
      "start": 50.5405,
      "duration": 0.1654,
      "velocity": 88,
      "chip": "ym2612"
    },
    {
      "channel": 5,
      "note": 95,
      "start": 50.6211,
      "duration": 0.0851,
      "velocity": 107,
      "chip": "ym2612"
    },
    {
      "channel": 4,
      "note": 36,
      "start": 50.7051,
      "duration": 0.1497,
      "velocity": 127,
      "chip": "ym2612"
    },
    {
      "channel": 1,
      "note": 48,
      "start": 50.7059,
      "duration": 0.1489,
      "velocity": 88,
      "chip": "ym2612"
    }
  ]
}