{
  "track_name": "07 - Jim Duggan",
  "duration_sec": 25.9,
  "sample_rate": 44100,
  "note_count": 393,
  "unique_pitches": 28,
  "pitch_range": 63,
  "avg_note_duration": 0.3236,
  "reconstruction_stats": {
    "notes_reconstructed": 393,
    "keyon_events": 393,
    "keyoff_events": 393,
    "orphan_keyons": 0,
    "unique_pitches": 28,
    "pitch_range": 63,
    "avg_duration_sec": 0.3236
  },
  "metadata": {
    "source": "W\\WWF Royal Rumble\\07 - Jim Duggan.vgz"
  },
  "notes": [
    {
      "channel": 0,
      "note": 50,
      "start": 0.0,
      "duration": 0.0,
      "velocity": 106,
      "chip": "ym2612"
    },
    {
      "channel": 0,
      "note": 50,
      "start": 0.0,
      "duration": 0.0,
      "velocity": 106,
      "chip": "ym2612"
    },
    {
      "channel": 0,
      "note": 50,
      "start": 0.0,
      "duration": 0.0,
      "velocity": 106,
      "chip": "ym2612"
    },
    {
      "channel": 0,
      "note": 50,
      "start": 0.0,
      "duration": 0.0,
      "velocity": 106,
      "chip": "ym2612"
    },
    {
      "channel": 0,
      "note": 50,
      "start": 0.0,
      "duration": 0.0,
      "velocity": 106,
      "chip": "ym2612"
    },
    {
      "channel": 0,
      "note": 50,
      "start": 0.0,
      "duration": 0.0,
      "velocity": 106,
      "chip": "ym2612"
    },
    {
      "channel": 0,
      "note": 50,
      "start": 0.0,
      "duration": 0.0,
      "velocity": 1,
      "chip": "ym2612"
    },
    {
      "channel": 1,
      "note": 50,
      "start": 0.0,
      "duration": 0.0,
      "velocity": 81,
      "chip": "ym2612"
    },
    {
      "channel": 1,
      "note": 50,
      "start": 0.0,
      "duration": 0.0,
      "velocity": 81,
      "chip": "ym2612"
    },
    {
      "channel": 1,
      "note": 50,
      "start": 0.0,
      "duration": 0.0,
      "velocity": 81,
      "chip": "ym2612"
    },
    {
      "channel": 1,
      "note": 50,
      "start": 0.0,
      "duration": 0.0,
      "velocity": 81,
      "chip": "ym2612"
    },
    {
      "channel": 1,
      "note": 50,
      "start": 0.0,
      "duration": 0.0,
      "velocity": 81,
      "chip": "ym2612"
    },
    {
      "channel": 1,
      "note": 50,
      "start": 0.0,
      "duration": 0.0,
      "velocity": 81,
      "chip": "ym2612"
    },
    {
      "channel": 1,
      "note": 50,
      "start": 0.0,
      "duration": 0.0,
      "velocity": 81,
      "chip": "ym2612"
    },
    {
      "channel": 1,
      "note": 50,
      "start": 0.0,
      "duration": 0.0,
      "velocity": 81,
      "chip": "ym2612"
    },
    {
      "channel": 1,
      "note": 50,
      "start": 0.0,
      "duration": 0.0,
      "velocity": 81,
      "chip": "ym2612"
    },
    {
      "channel": 1,
      "note": 50,
      "start": 0.0,
      "duration": 0.0,
      "velocity": 81,
      "chip": "ym2612"
    },
    {
      "channel": 1,
      "note": 50,
      "start": 0.0,
      "duration": 0.0,
      "velocity": 81,
      "chip": "ym2612"
    },
    {
      "channel": 1,
      "note": 50,
      "start": 0.0,
      "duration": 0.0,
      "velocity": 81,
      "chip": "ym2612"
    },
    {
      "channel": 1,
      "note": 50,
      "start": 0.0,
      "duration": 0.0,
      "velocity": 81,
      "chip": "ym2612"
    },
    {
      "channel": 1,
      "note": 50,
      "start": 0.0,
      "duration": 0.0,
      "velocity": 81,
      "chip": "ym2612"
    },
    {
      "channel": 1,
      "note": 50,
      "start": 0.0,
      "duration": 0.0,
      "velocity": 81,
      "chip": "ym2612"
    },
    {
      "channel": 1,
      "note": 50,
      "start": 0.0,
      "duration": 0.0,
      "velocity": 81,
      "chip": "ym2612"
    },
    {
      "channel": 1,
      "note": 50,
      "start": 0.0,
      "duration": 0.0,
      "velocity": 81,
      "chip": "ym2612"
    },
    {
      "channel": 1,
      "note": 50,
      "start": 0.0,
      "duration": 0.0,
      "velocity": 81,
      "chip": "ym2612"
    },
    {
      "channel": 1,
      "note": 50,
      "start": 0.0,
      "duration": 0.0,
      "velocity": 81,
      "chip": "ym2612"
    },
    {
      "channel": 1,
      "note": 50,
      "start": 0.0,
      "duration": 0.0,
      "velocity": 81,
      "chip": "ym2612"
    },
    {
      "channel": 1,
      "note": 50,
      "start": 0.0,
      "duration": 0.0,
      "velocity": 81,
      "chip": "ym2612"
    },
    {
      "channel": 1,
      "note": 50,
      "start": 0.0,
      "duration": 0.0,
      "velocity": 81,
      "chip": "ym2612"
    },
    {
      "channel": 1,
      "note": 50,
      "start": 0.0,
      "duration": 0.0,
      "velocity": 81,
      "chip": "ym2612"
    },
    {
      "channel": 1,
      "note": 50,
      "start": 0.0,
      "duration": 0.0,
      "velocity": 81,
      "chip": "ym2612"
    },
    {
      "channel": 1,
      "note": 50,
      "start": 0.0,
      "duration": 0.0,
      "velocity": 81,
      "chip": "ym2612"
    },
    {
      "channel": 1,
      "note": 50,
      "start": 0.0,
      "duration": 0.0,
      "velocity": 81,
      "chip": "ym2612"
    },
    {
      "channel": 1,
      "note": 50,
      "start": 0.0,
      "duration": 0.0,
      "velocity": 1,
      "chip": "ym2612"
    },
    {
      "channel": 2,
      "note": 101,
      "start": 0.0,
      "duration": 0.0,
      "velocity": 127,
      "chip": "ym2612"
    },
    {
      "channel": 2,
      "note": 101,
      "start": 0.0,
      "duration": 0.0,
      "velocity": 127,
      "chip": "ym2612"
    },
    {
      "channel": 2,
      "note": 101,
      "start": 0.0,
      "duration": 0.0,
      "velocity": 127,
      "chip": "ym2612"
    },
    {
      "channel": 2,
      "note": 101,
      "start": 0.0,
      "duration": 0.0,
      "velocity": 127,
      "chip": "ym2612"
    },
    {
      "channel": 2,
      "note": 101,
      "start": 0.0,
      "duration": 0.0,
      "velocity": 127,
      "chip": "ym2612"
    },
    {
      "channel": 2,
      "note": 101,
      "start": 0.0,
      "duration": 0.0,
      "velocity": 127,
      "chip": "ym2612"
    },
    {
      "channel": 2,
      "note": 62,
      "start": 0.0,
      "duration": 0.0,
      "velocity": 116,
      "chip": "ym2612"
    },
    {
      "channel": 2,
      "note": 101,
      "start": 0.0,
      "duration": 0.0,
      "velocity": 127,
      "chip": "ym2612"
    },
    {
      "channel": 2,
      "note": 101,
      "start": 0.0,
      "duration": 0.0,
      "velocity": 127,
      "chip": "ym2612"
    },
    {
      "channel": 2,
      "note": 101,
      "start": 0.0,
      "duration": 0.0,
      "velocity": 127,
      "chip": "ym2612"
    },
    {
      "channel": 2,
      "note": 101,
      "start": 0.0,
      "duration": 0.0,
      "velocity": 127,
      "chip": "ym2612"
    },
    {
      "channel": 2,
      "note": 101,
      "start": 0.0,
      "duration": 0.0,
      "velocity": 127,
      "chip": "ym2612"
    },
    {
      "channel": 2,
      "note": 101,
      "start": 0.0,
      "duration": 0.0,
      "velocity": 127,
      "chip": "ym2612"
    },
    {
      "channel": 2,
      "note": 101,
      "start": 0.0,
      "duration": 0.0,
      "velocity": 127,
      "chip": "ym2612"
    },
    {
      "channel": 2,
      "note": 62,
      "start": 0.0,
      "duration": 0.0,
      "velocity": 116,
      "chip": "ym2612"
    },
    {
      "channel": 2,
      "note": 101,
      "start": 0.0,
      "duration": 0.0,
      "velocity": 127,
      "chip": "ym2612"
    },
    {
      "channel": 2,
      "note": 101,
      "start": 0.0,
      "duration": 0.0,
      "velocity": 127,
      "chip": "ym2612"
    },
    {
      "channel": 2,
      "note": 101,
      "start": 0.0,
      "duration": 0.0,
      "velocity": 127,
      "chip": "ym2612"
    },
    {
      "channel": 2,
      "note": 101,
      "start": 0.0,
      "duration": 0.0,
      "velocity": 127,
      "chip": "ym2612"
    },
    {
      "channel": 2,
      "note": 101,
      "start": 0.0,
      "duration": 0.0,
      "velocity": 127,
      "chip": "ym2612"
    },
    {
      "channel": 2,
      "note": 101,
      "start": 0.0,
      "duration": 0.0,
      "velocity": 127,
      "chip": "ym2612"
    },
    {
      "channel": 2,
      "note": 101,
      "start": 0.0,
      "duration": 0.0,
      "velocity": 127,
      "chip": "ym2612"
    },
    {
      "channel": 2,
      "note": 62,
      "start": 0.0,
      "duration": 0.0,
      "velocity": 116,
      "chip": "ym2612"
    },
    {
      "channel": 2,
      "note": 38,
      "start": 0.0,
      "duration": 0.0,
      "velocity": 1,
      "chip": "ym2612"
    },
    {
      "channel": 3,
      "note": 57,
      "start": 0.0,
      "duration": 0.0,
      "velocity": 81,
      "chip": "ym2612"
    },
    {
      "channel": 3,
      "note": 57,
      "start": 0.0,
      "duration": 0.0,
      "velocity": 81,
      "chip": "ym2612"
    },
    {
      "channel": 3,
      "note": 59,
      "start": 0.0,
      "duration": 0.0,
      "velocity": 81,
      "chip": "ym2612"
    },
    {
      "channel": 3,
      "note": 59,
      "start": 0.0,
      "duration": 0.0,
      "velocity": 81,
      "chip": "ym2612"
    },
    {
      "channel": 3,
      "note": 59,
      "start": 0.0,
      "duration": 0.0,
      "velocity": 81,
      "chip": "ym2612"
    },
    {
      "channel": 3,
      "note": 59,
      "start": 0.0,
      "duration": 0.0,
      "velocity": 81,
      "chip": "ym2612"
    },
    {
      "channel": 3,
      "note": 59,
      "start": 0.0,
      "duration": 0.0,
      "velocity": 81,
      "chip": "ym2612"
    },
    {
      "channel": 3,
      "note": 59,
      "start": 0.0,
      "duration": 0.0,
      "velocity": 81,
      "chip": "ym2612"
    },
    {
      "channel": 3,
      "note": 59,
      "start": 0.0,
      "duration": 0.0,
      "velocity": 81,
      "chip": "ym2612"
    },
    {
      "channel": 3,
      "note": 59,
      "start": 0.0,
      "duration": 0.0,
      "velocity": 81,
      "chip": "ym2612"
    },
    {
      "channel": 3,
      "note": 60,
      "start": 0.0,
      "duration": 0.0,
      "velocity": 81,
      "chip": "ym2612"
    },
    {
      "channel": 3,
      "note": 60,
      "start": 0.0,
      "duration": 0.0,
      "velocity": 81,
      "chip": "ym2612"
    },
    {
      "channel": 3,
      "note": 60,
      "start": 0.0,
      "duration": 0.0,
      "velocity": 81,
      "chip": "ym2612"
    },
    {
      "channel": 3,
      "note": 60,
      "start": 0.0,
      "duration": 0.0,
      "velocity": 81,
      "chip": "ym2612"
    },
    {
      "channel": 3,
      "note": 60,
      "start": 0.0,
      "duration": 0.0,
      "velocity": 81,
      "chip": "ym2612"
    },
    {
      "channel": 3,
      "note": 60,
      "start": 0.0,
      "duration": 0.0,
      "velocity": 81,
      "chip": "ym2612"
    },
    {
      "channel": 3,
      "note": 60,
      "start": 0.0,
      "duration": 0.0,
      "velocity": 81,
      "chip": "ym2612"
    },
    {
      "channel": 3,
      "note": 60,
      "start": 0.0,
      "duration": 0.0,
      "velocity": 81,
      "chip": "ym2612"
    },
    {
      "channel": 3,
      "note": 62,
      "start": 0.0,
      "duration": 0.0,
      "velocity": 81,
      "chip": "ym2612"
    },
    {
      "channel": 3,
      "note": 62,
      "start": 0.0,
      "duration": 0.0,
      "velocity": 81,
      "chip": "ym2612"
    },
    {
      "channel": 3,
      "note": 62,
      "start": 0.0,
      "duration": 0.0,
      "velocity": 81,
      "chip": "ym2612"
    },
    {
      "channel": 3,
      "note": 62,
      "start": 0.0,
      "duration": 0.0,
      "velocity": 81,
      "chip": "ym2612"
    },
    {
      "channel": 3,
      "note": 62,
      "start": 0.0,
      "duration": 0.0,
      "velocity": 81,
      "chip": "ym2612"
    },
    {
      "channel": 3,
      "note": 62,
      "start": 0.0,
      "duration": 0.0,
      "velocity": 81,
      "chip": "ym2612"
    },
    {
      "channel": 3,
      "note": 62,
      "start": 0.0,
      "duration": 0.0,
      "velocity": 81,
      "chip": "ym2612"
    },
    {
      "channel": 3,
      "note": 62,
      "start": 0.0,
      "duration": 0.0,
      "velocity": 81,
      "chip": "ym2612"
    },
    {
      "channel": 3,
      "note": 57,
      "start": 0.0,
      "duration": 0.0,
      "velocity": 1,
      "chip": "ym2612"
    },
    {
      "channel": 4,
      "note": 62,
      "start": 0.0,
      "duration": 0.0,
      "velocity": 81,
      "chip": "ym2612"
    },
    {
      "channel": 4,
      "note": 62,
      "start": 0.0,
      "duration": 0.0,
      "velocity": 81,
      "chip": "ym2612"
    },
    {
      "channel": 4,
      "note": 64,
      "start": 0.0,
      "duration": 0.0,
      "velocity": 81,
      "chip": "ym2612"
    },
    {
      "channel": 4,
      "note": 64,
      "start": 0.0,
      "duration": 0.0,
      "velocity": 81,
      "chip": "ym2612"
    },
    {
      "channel": 4,
      "note": 64,
      "start": 0.0,
      "duration": 0.0,
      "velocity": 81,
      "chip": "ym2612"
    },
    {
      "channel": 4,
      "note": 64,
      "start": 0.0,
      "duration": 0.0,
      "velocity": 81,
      "chip": "ym2612"
    },
    {
      "channel": 4,
      "note": 64,
      "start": 0.0,
      "duration": 0.0,
      "velocity": 81,
      "chip": "ym2612"
    },
    {
      "channel": 4,
      "note": 64,
      "start": 0.0,
      "duration": 0.0,
      "velocity": 81,
      "chip": "ym2612"
    },
    {
      "channel": 4,
      "note": 65,
      "start": 0.0,
      "duration": 0.0,
      "velocity": 81,
      "chip": "ym2612"
    },
    {
      "channel": 4,
      "note": 65,
      "start": 0.0,
      "duration": 0.0,
      "velocity": 81,
      "chip": "ym2612"
    },
    {
      "channel": 4,
      "note": 65,
      "start": 0.0,
      "duration": 0.0,
      "velocity": 81,
      "chip": "ym2612"
    },
    {
      "channel": 4,
      "note": 65,
      "start": 0.0,
      "duration": 0.0,
      "velocity": 81,
      "chip": "ym2612"
    },
    {
      "channel": 4,
      "note": 65,
      "start": 0.0,
      "duration": 0.0,
      "velocity": 81,
      "chip": "ym2612"
    },
    {
      "channel": 4,
      "note": 65,
      "start": 0.0,
      "duration": 0.0,
      "velocity": 81,
      "chip": "ym2612"
    },
    {
      "channel": 4,
      "note": 67,
      "start": 0.0,
      "duration": 0.0,
      "velocity": 81,
      "chip": "ym2612"
    },
    {
      "channel": 4,
      "note": 67,
      "start": 0.0,
      "duration": 0.0,
      "velocity": 81,
      "chip": "ym2612"
    },
    {
      "channel": 4,
      "note": 67,
      "start": 0.0,
      "duration": 0.0,
      "velocity": 81,
      "chip": "ym2612"
    },
    {
      "channel": 4,
      "note": 67,
      "start": 0.0,
      "duration": 0.0,
      "velocity": 81,
      "chip": "ym2612"
    },
    {
      "channel": 4,
      "note": 67,
      "start": 0.0,
      "duration": 0.0,
      "velocity": 81,
      "chip": "ym2612"
    },
    {
      "channel": 4,
      "note": 67,
      "start": 0.0,
      "duration": 0.0,
      "velocity": 81,
      "chip": "ym2612"
    },
    {
      "channel": 4,
      "note": 67,
      "start": 0.0,
      "duration": 0.0,
      "velocity": 81,
      "chip": "ym2612"
    },
    {
      "channel": 4,
      "note": 62,
      "start": 0.0,
      "duration": 0.0,
      "velocity": 1,
      "chip": "ym2612"
    },
    {
      "channel": 5,
      "note": 38,
      "start": 0.0,
      "duration": 0.0,
      "velocity": 125,
      "chip": "ym2612"
    },
    {
      "channel": 5,
      "note": 38,
      "start": 0.0,
      "duration": 0.0,
      "velocity": 125,
      "chip": "ym2612"
    },
    {
      "channel": 5,
      "note": 38,
      "start": 0.0,
      "duration": 0.0,
      "velocity": 125,
      "chip": "ym2612"
    },
    {
      "channel": 5,
      "note": 38,
      "start": 0.0,
      "duration": 0.0,
      "velocity": 125,
      "chip": "ym2612"
    },
    {
      "channel": 5,
      "note": 38,
      "start": 0.0,
      "duration": 0.0,
      "velocity": 125,
      "chip": "ym2612"
    },
    {
      "channel": 5,
      "note": 38,
      "start": 0.0,
      "duration": 0.0,
      "velocity": 125,
      "chip": "ym2612"
    },
    {
      "channel": 5,
      "note": 101,
      "start": 0.0,
      "duration": 0.0,
      "velocity": 127,
      "chip": "ym2612"
    },
    {
      "channel": 5,
      "note": 101,
      "start": 0.0,
      "duration": 0.0,
      "velocity": 127,
      "chip": "ym2612"
    },
    {
      "channel": 5,
      "note": 101,
      "start": 0.0,
      "duration": 0.0,
      "velocity": 127,
      "chip": "ym2612"
    },
    {
      "channel": 5,
      "note": 101,
      "start": 0.0,
      "duration": 0.0,
      "velocity": 127,
      "chip": "ym2612"
    },
    {
      "channel": 0,
      "note": 84,
      "start": 0.0668,
      "duration": 0.4341,
      "velocity": 99,
      "chip": "ym2612"
    },
    {
      "channel": 5,
      "note": 72,
      "start": 0.0735,
      "duration": 0.0278,
      "velocity": 81,
      "chip": "ym2612"
    },
    {
      "channel": 1,
      "note": 62,
      "start": 0.0793,
      "duration": 0.4719,
      "velocity": 81,
      "chip": "ym2612"
    },
    {
      "channel": 3,
      "note": 42,
      "start": 0.1068,
      "duration": 0.111,
      "velocity": 125,
      "chip": "ym2612"
    },
    {
      "channel": 4,
      "note": 74,
      "start": 0.1129,
      "duration": 0.1716,
      "velocity": 127,
      "chip": "ym2612"
    },
    {
      "channel": 2,
      "note": 50,
      "start": 0.1183,
      "duration": 0.4332,
      "velocity": 103,
      "chip": "ym2612"
    },
    {
      "channel": 5,
      "note": 89,
      "start": 0.1213,
      "duration": 0.4301,
      "velocity": 99,
      "chip": "ym2612"
    },
    {
      "channel": 4,
      "note": 74,
      "start": 0.338,
      "duration": 0.0463,
      "velocity": 127,
      "chip": "ym2612"
    },
    {
      "channel": 3,
      "note": 69,
      "start": 0.5549,
      "duration": 0.1129,
      "velocity": 116,
      "chip": "ym2612"
    },
    {
      "channel": 4,
      "note": 74,
      "start": 0.5604,
      "duration": 0.1742,
      "velocity": 127,
      "chip": "ym2612"
    },
    {
      "channel": 4,
      "note": 74,
      "start": 0.788,
      "duration": 0.0464,
      "velocity": 127,
      "chip": "ym2612"
    },
    {
      "channel": 0,
      "note": 42,
      "start": 1.0211,
      "duration": 0.0964,
      "velocity": 125,
      "chip": "ym2612"
    },
    {
      "channel": 4,
      "note": 74,
      "start": 1.0252,
      "duration": 0.1592,
      "velocity": 127,
      "chip": "ym2612"
    },
    {
      "channel": 4,
      "note": 74,
      "start": 1.2378,
      "duration": 0.0632,
      "velocity": 127,
      "chip": "ym2612"
    },
    {
      "channel": 3,
      "note": 69,
      "start": 1.4707,
      "duration": 0.1136,
      "velocity": 116,
      "chip": "ym2612"
    },
    {
      "channel": 4,
      "note": 74,
      "start": 1.4755,
      "duration": 0.159,
      "velocity": 127,
      "chip": "ym2612"
    },
    {
      "channel": 4,
      "note": 74,
      "start": 1.6879,
      "duration": 0.0632,
      "velocity": 127,
      "chip": "ym2612"
    },
    {
      "channel": 5,
      "note": 84,
      "start": 1.8717,
      "duration": 0.446,
      "velocity": 99,
      "chip": "ym2612"
    },
    {
      "channel": 1,
      "note": 72,
      "start": 1.8746,
      "duration": 0.0433,
      "velocity": 81,
      "chip": "ym2612"
    },
    {
      "channel": 2,
      "note": 62,
      "start": 1.8773,
      "duration": 0.4908,
      "velocity": 81,
      "chip": "ym2612"
    },
    {
      "channel": 0,
      "note": 42,
      "start": 1.9207,
      "duration": 0.1137,
      "velocity": 125,
      "chip": "ym2612"
    },
    {
      "channel": 4,
      "note": 74,
      "start": 1.9249,
      "duration": 0.1597,
      "velocity": 127,
      "chip": "ym2612"
    },
    {
      "channel": 3,
      "note": 50,
      "start": 1.9279,
      "duration": 0.44,
      "velocity": 103,
      "chip": "ym2612"
    },
    {
      "channel": 1,
      "note": 89,
      "start": 1.9309,
      "duration": 0.4368,
      "velocity": 99,
      "chip": "ym2612"
    },
    {
      "channel": 4,
      "note": 74,
      "start": 2.1546,
      "duration": 0.0465,
      "velocity": 127,
      "chip": "ym2612"
    },
    {
      "channel": 0,
      "note": 69,
      "start": 2.3712,
      "duration": 0.1131,
      "velocity": 116,
      "chip": "ym2612"
    },
    {
      "channel": 4,
      "note": 74,
      "start": 2.376,
      "duration": 0.1585,
      "velocity": 127,
      "chip": "ym2612"
    },
    {
      "channel": 4,
      "note": 74,
      "start": 2.6048,
      "duration": 0.0464,
      "velocity": 127,
      "chip": "ym2612"
    },
    {
      "channel": 5,
      "note": 42,
      "start": 2.8207,
      "duration": 0.1137,
      "velocity": 125,
      "chip": "ym2612"
    },
    {
      "channel": 4,
      "note": 74,
      "start": 2.8248,
      "duration": 0.1763,
      "velocity": 127,
      "chip": "ym2612"
    },
    {
      "channel": 4,
      "note": 74,
      "start": 3.0544,
      "duration": 0.0466,
      "velocity": 127,
      "chip": "ym2612"
    },
    {
      "channel": 0,
      "note": 69,
      "start": 3.2877,
      "duration": 0.0965,
      "velocity": 116,
      "chip": "ym2612"
    },
    {
      "channel": 4,
      "note": 74,
      "start": 3.2926,
      "duration": 0.1585,
      "velocity": 127,
      "chip": "ym2612"
    },
    {
      "channel": 4,
      "note": 74,
      "start": 3.5046,
      "duration": 0.0632,
      "velocity": 127,
      "chip": "ym2612"
    },
    {
      "channel": 0,
      "note": 69,
      "start": 3.6207,
      "duration": 0.1138,
      "velocity": 116,
      "chip": "ym2612"
    },
    {
      "channel": 1,
      "note": 84,
      "start": 3.6712,
      "duration": 0.4632,
      "velocity": 99,
      "chip": "ym2612"
    },
    {
      "channel": 3,
      "note": 72,
      "start": 3.674,
      "duration": 0.0607,
      "velocity": 81,
      "chip": "ym2612"
    },
    {
      "channel": 2,
      "note": 62,
      "start": 3.6768,
      "duration": 0.5081,
      "velocity": 81,
      "chip": "ym2612"
    },
    {
      "channel": 5,
      "note": 42,
      "start": 3.7378,
      "duration": 0.1135,
      "velocity": 125,
      "chip": "ym2612"
    },
    {
      "channel": 4,
      "note": 74,
      "start": 3.742,
      "duration": 0.1592,
      "velocity": 127,
      "chip": "ym2612"
    },
    {
      "channel": 0,
      "note": 50,
      "start": 3.7446,
      "duration": 0.4398,
      "velocity": 103,
      "chip": "ym2612"
    },
    {
      "channel": 3,
      "note": 89,
      "start": 3.7476,
      "duration": 0.4371,
      "velocity": 99,
      "chip": "ym2612"
    },
    {
      "channel": 4,
      "note": 74,
      "start": 3.9546,
      "duration": 0.0632,
      "velocity": 127,
      "chip": "ym2612"
    },
    {
      "channel": 5,
      "note": 69,
      "start": 4.1882,
      "duration": 0.113,
      "velocity": 116,
      "chip": "ym2612"
    },
    {
      "channel": 4,
      "note": 74,
      "start": 4.1936,
      "duration": 0.1576,
      "velocity": 127,
      "chip": "ym2612"
    },
    {
      "channel": 4,
      "note": 74,
      "start": 4.4214,
      "duration": 0.0464,
      "velocity": 127,
      "chip": "ym2612"
    },
    {
      "channel": 1,
      "note": 42,
      "start": 4.6373,
      "duration": 0.1136,
      "velocity": 125,
      "chip": "ym2612"
    },
    {
      "channel": 4,
      "note": 74,
      "start": 4.6415,
      "duration": 0.1595,
      "velocity": 127,
      "chip": "ym2612"
    },
    {
      "channel": 4,
      "note": 74,
      "start": 4.8711,
      "duration": 0.0466,
      "velocity": 127,
      "chip": "ym2612"
    },
    {
      "channel": 5,
      "note": 69,
      "start": 5.0874,
      "duration": 0.1137,
      "velocity": 116,
      "chip": "ym2612"
    },
    {
      "channel": 4,
      "note": 74,
      "start": 5.0922,
      "duration": 0.1754,
      "velocity": 127,
      "chip": "ym2612"
    },
    {
      "channel": 4,
      "note": 74,
      "start": 5.3211,
      "duration": 0.0466,
      "velocity": 127,
      "chip": "ym2612"
    },
    {
      "channel": 3,
      "note": 84,
      "start": 5.488,
      "duration": 0.4464,
      "velocity": 99,
      "chip": "ym2612"
    },
    {
      "channel": 0,
      "note": 72,
      "start": 5.4915,
      "duration": 0.0595,
      "velocity": 81,
      "chip": "ym2612"
    },
    {
      "channel": 2,
      "note": 62,
      "start": 5.4949,
      "duration": 0.5066,
      "velocity": 81,
      "chip": "ym2612"
    },
    {
      "channel": 1,
      "note": 42,
      "start": 5.5541,
      "duration": 0.0971,
      "velocity": 125,
      "chip": "ym2612"
    },
    {
      "channel": 4,
      "note": 74,
      "start": 5.5579,
      "duration": 0.21,
      "velocity": 127,
      "chip": "ym2612"
    },
    {
      "channel": 5,
      "note": 50,
      "start": 5.5606,
      "duration": 0.4407,
      "velocity": 103,
      "chip": "ym2612"
    },
    {
      "channel": 0,
      "note": 89,
      "start": 5.5635,
      "duration": 0.4375,
      "velocity": 99,
      "chip": "ym2612"
    },
    {
      "channel": 1,
      "note": 69,
      "start": 6.0048,
      "duration": 0.113,
      "velocity": 116,
      "chip": "ym2612"
    },
    {
      "channel": 4,
      "note": 42,
      "start": 6.4542,
      "duration": 0.1136,
      "velocity": 125,
      "chip": "ym2612"
    },
    {
      "channel": 1,
      "note": 69,
      "start": 6.6874,
      "duration": 0.0969,
      "velocity": 116,
      "chip": "ym2612"
    },
    {
      "channel": 1,
      "note": 69,
      "start": 6.9042,
      "duration": 0.1134,
      "velocity": 116,
      "chip": "ym2612"
    },
    {
      "channel": 4,
      "note": 42,
      "start": 7.1374,
      "duration": 0.097,
      "velocity": 125,
      "chip": "ym2612"
    },
    {
      "channel": 3,
      "note": 57,
      "start": 7.1411,
      "duration": 0.2099,
      "velocity": 81,
      "chip": "ym2612"
    },
    {
      "channel": 2,
      "note": 50,
      "start": 7.1441,
      "duration": 0.2071,
      "velocity": 81,
      "chip": "ym2612"
    },
    {
      "channel": 4,
      "note": 42,
      "start": 7.3542,
      "duration": 0.1135,
      "velocity": 125,
      "chip": "ym2612"
    },
    {
      "channel": 5,
      "note": 50,
      "start": 7.3575,
      "duration": 0.3602,
      "velocity": 103,
      "chip": "ym2612"
    },
    {
      "channel": 3,
      "note": 57,
      "start": 7.3609,
      "duration": 1.3568,
      "velocity": 81,
      "chip": "ym2612"
    },
    {
      "channel": 2,
      "note": 50,
      "start": 7.3642,
      "duration": 1.3538,
      "velocity": 81,
      "chip": "ym2612"
    },
    {
      "channel": 1,
      "note": 69,
      "start": 7.8039,
      "duration": 0.1137,
      "velocity": 116,
      "chip": "ym2612"
    },
    {
      "channel": 0,
      "note": 74,
      "start": 7.8084,
      "duration": 0.3592,
      "velocity": 127,
      "chip": "ym2612"
    },
    {
      "channel": 5,
      "note": 50,
      "start": 7.8112,
      "duration": 0.2233,
      "velocity": 103,
      "chip": "ym2612"
    },
    {
      "channel": 5,
      "note": 50,
      "start": 8.0379,
      "duration": 0.23,
      "velocity": 103,
      "chip": "ym2612"
    },
    {
      "channel": 4,
      "note": 42,
      "start": 8.2708,
      "duration": 0.0969,
      "velocity": 125,
      "chip": "ym2612"
    },
    {
      "channel": 0,
      "note": 74,
      "start": 8.2735,
      "duration": 0.344,
      "velocity": 127,
      "chip": "ym2612"
    },
    {
      "channel": 5,
      "note": 50,
      "start": 8.2765,
      "duration": 0.4414,
      "velocity": 103,
      "chip": "ym2612"
    },
    {
      "channel": 1,
      "note": 69,
      "start": 8.7209,
      "duration": 0.1135,
      "velocity": 116,
      "chip": "ym2612"
    },
    {
      "channel": 0,
      "note": 74,
      "start": 8.7244,
      "duration": 0.3432,
      "velocity": 127,
      "chip": "ym2612"
    },
    {
      "channel": 5,
      "note": 50,
      "start": 8.727,
      "duration": 0.441,
      "velocity": 103,
      "chip": "ym2612"
    },
    {
      "channel": 3,
      "note": 57,
      "start": 8.9383,
      "duration": 0.2293,
      "velocity": 81,
      "chip": "ym2612"
    },
    {
      "channel": 4,
      "note": 62,
      "start": 8.9411,
      "duration": 0.2267,
      "velocity": 81,
      "chip": "ym2612"
    },
    {
      "channel": 2,
      "note": 50,
      "start": 8.9441,
      "duration": 0.224,
      "velocity": 81,
      "chip": "ym2612"
    },
    {
      "channel": 1,
      "note": 42,
      "start": 9.171,
      "duration": 0.1132,
      "velocity": 125,
      "chip": "ym2612"
    },
    {
      "channel": 0,
      "note": 74,
      "start": 9.1739,
      "duration": 0.3603,
      "velocity": 127,
      "chip": "ym2612"
    },
    {
      "channel": 5,
      "note": 50,
      "start": 9.1766,
      "duration": 0.3579,
      "velocity": 103,
      "chip": "ym2612"
    },
    {
      "channel": 3,
      "note": 62,
      "start": 9.1801,
      "duration": 0.6709,
      "velocity": 81,
      "chip": "ym2612"
    },
    {
      "channel": 4,
      "note": 57,
      "start": 9.183,
      "duration": 1.3515,
      "velocity": 81,
      "chip": "ym2612"
    },
    {
      "channel": 2,
      "note": 50,
      "start": 9.1867,
      "duration": 1.3481,
      "velocity": 81,
      "chip": "ym2612"
    },
    {
      "channel": 1,
      "note": 69,
      "start": 9.6209,
      "duration": 0.1134,
      "velocity": 116,
      "chip": "ym2612"
    },
    {
      "channel": 0,
      "note": 74,
      "start": 9.6243,
      "duration": 0.36,
      "velocity": 127,
      "chip": "ym2612"
    },
    {
      "channel": 5,
      "note": 50,
      "start": 9.6276,
      "duration": 0.2235,
      "velocity": 103,
      "chip": "ym2612"
    },
    {
      "channel": 5,
      "note": 50,
      "start": 9.8545,
      "duration": 0.2133,
      "velocity": 103,
      "chip": "ym2612"
    },
    {
      "channel": 3,
      "note": 62,
      "start": 9.8576,
      "duration": 0.21,
      "velocity": 81,
      "chip": "ym2612"
    },
    {
      "channel": 1,
      "note": 42,
      "start": 10.0709,
      "duration": 0.1134,
      "velocity": 125,
      "chip": "ym2612"
    },
    {
      "channel": 0,
      "note": 74,
      "start": 10.0737,
      "duration": 0.3606,
      "velocity": 127,
      "chip": "ym2612"
    },
    {
      "channel": 5,
      "note": 50,
      "start": 10.0765,
      "duration": 0.4581,
      "velocity": 103,
      "chip": "ym2612"
    },
    {
      "channel": 3,
      "note": 60,
      "start": 10.0796,
      "duration": 0.4548,
      "velocity": 81,
      "chip": "ym2612"
    },
    {
      "channel": 1,
      "note": 69,
      "start": 10.5385,
      "duration": 0.0959,
      "velocity": 116,
      "chip": "ym2612"
    },
    {
      "channel": 0,
      "note": 74,
      "start": 10.5422,
      "duration": 0.1587,
      "velocity": 127,
      "chip": "ym2612"
    },
    {
      "channel": 5,
      "note": 50,
      "start": 10.5448,
      "duration": 0.4399,
      "velocity": 103,
      "chip": "ym2612"
    },
    {
      "channel": 3,
      "note": 62,
      "start": 10.5478,
      "duration": 0.4367,
      "velocity": 81,
      "chip": "ym2612"
    },
    {
      "channel": 1,
      "note": 69,
      "start": 10.7541,
      "duration": 0.1135,
      "velocity": 116,
      "chip": "ym2612"
    },
    {
      "channel": 4,
      "note": 57,
      "start": 10.7588,
      "duration": 0.2258,
      "velocity": 81,
      "chip": "ym2612"
    },
    {
      "channel": 1,
      "note": 69,
      "start": 10.8709,
      "duration": 0.1134,
      "velocity": 116,
      "chip": "ym2612"
    },
    {
      "channel": 2,
      "note": 42,
      "start": 10.9879,
      "duration": 0.1134,
      "velocity": 125,
      "chip": "ym2612"
    },
    {
      "channel": 0,
      "note": 74,
      "start": 10.991,
      "duration": 0.21,
      "velocity": 127,
      "chip": "ym2612"
    },
    {
      "channel": 5,
      "note": 50,
      "start": 10.9938,
      "duration": 0.3407,
      "velocity": 103,
      "chip": "ym2612"
    },
    {
      "channel": 3,
      "note": 57,
      "start": 10.997,
      "duration": 1.3374,
      "velocity": 81,
      "chip": "ym2612"
    },
    {
      "channel": 4,
      "note": 62,
      "start": 10.9997,
      "duration": 1.3348,
      "velocity": 81,
      "chip": "ym2612"
    },
    {
      "channel": 1,
      "note": 50,
      "start": 11.0028,
      "duration": 1.3314,
      "velocity": 81,
      "chip": "ym2612"
    },
    {
      "channel": 0,
      "note": 74,
      "start": 11.2045,
      "duration": 0.1798,
      "velocity": 127,
      "chip": "ym2612"
    },
    {
      "channel": 2,
      "note": 69,
      "start": 11.4377,
      "duration": 0.1135,
      "velocity": 116,
      "chip": "ym2612"
    },
    {
      "channel": 0,
      "note": 74,
      "start": 11.4415,
      "duration": 0.2261,
      "velocity": 127,
      "chip": "ym2612"
    },
    {
      "channel": 5,
      "note": 50,
      "start": 11.4443,
      "duration": 0.2235,
      "velocity": 103,
      "chip": "ym2612"
    },
    {
      "channel": 0,
      "note": 74,
      "start": 11.6716,
      "duration": 0.1627,
      "velocity": 127,
      "chip": "ym2612"
    },
    {
      "channel": 5,
      "note": 50,
      "start": 11.6742,
      "duration": 0.2102,
      "velocity": 103,
      "chip": "ym2612"
    },
    {
      "channel": 2,
      "note": 42,
      "start": 11.8879,
      "duration": 0.1134,
      "velocity": 125,
      "chip": "ym2612"
    },
    {
      "channel": 0,
      "note": 74,
      "start": 11.8908,
      "duration": 0.2268,
      "velocity": 127,
      "chip": "ym2612"
    },
    {
      "channel": 5,
      "note": 50,
      "start": 11.8941,
      "duration": 0.4406,
      "velocity": 103,
      "chip": "ym2612"
    },
    {
      "channel": 0,
      "note": 74,
      "start": 12.1212,
      "duration": 0.163,
      "velocity": 127,
      "chip": "ym2612"
    },
    {
      "channel": 2,
      "note": 69,
      "start": 12.338,
      "duration": 0.1131,
      "velocity": 116,
      "chip": "ym2612"
    },
    {
      "channel": 0,
      "note": 74,
      "start": 12.3418,
      "duration": 0.2258,
      "velocity": 127,
      "chip": "ym2612"
    },
    {
      "channel": 5,
      "note": 50,
      "start": 12.3444,
      "duration": 0.4568,
      "velocity": 103,
      "chip": "ym2612"
    },
    {
      "channel": 0,
      "note": 74,
      "start": 12.5714,
      "duration": 0.1628,
      "velocity": 127,
      "chip": "ym2612"
    },
    {
      "channel": 3,
      "note": 60,
      "start": 12.5746,
      "duration": 0.6764,
      "velocity": 81,
      "chip": "ym2612"
    },
    {
      "channel": 4,
      "note": 55,
      "start": 12.5773,
      "duration": 0.6739,
      "velocity": 81,
      "chip": "ym2612"
    },
    {
      "channel": 1,
      "note": 50,
      "start": 12.58,
      "duration": 0.2209,
      "velocity": 81,
      "chip": "ym2612"
    },
    {
      "channel": 2,
      "note": 42,
      "start": 12.8044,
      "duration": 0.0967,
      "velocity": 125,
      "chip": "ym2612"
    },
    {
      "channel": 5,
      "note": 50,
      "start": 12.8077,
      "duration": 0.2101,
      "velocity": 103,
      "chip": "ym2612"
    },
    {
      "channel": 1,
      "note": 50,
      "start": 12.8111,
      "duration": 1.3398,
      "velocity": 81,
      "chip": "ym2612"
    },
    {
      "channel": 0,
      "note": 69,
      "start": 13.0211,
      "duration": 0.1132,
      "velocity": 116,
      "chip": "ym2612"
    },
    {
      "channel": 5,
      "note": 50,
      "start": 13.0249,
      "duration": 0.2265,
      "velocity": 103,
      "chip": "ym2612"
    },
    {
      "channel": 0,
      "note": 69,
      "start": 13.2544,
      "duration": 0.0966,
      "velocity": 116,
      "chip": "ym2612"
    },
    {
      "channel": 5,
      "note": 50,
      "start": 13.2581,
      "duration": 0.2097,
      "velocity": 103,
      "chip": "ym2612"
    },
    {
      "channel": 3,
      "note": 62,
      "start": 13.2611,
      "duration": 0.6566,
      "velocity": 81,
      "chip": "ym2612"
    },
    {
      "channel": 4,
      "note": 57,
      "start": 13.264,
      "duration": 0.6538,
      "velocity": 81,
      "chip": "ym2612"
    },
    {
      "channel": 2,
      "note": 42,
      "start": 13.471,
      "duration": 0.1136,
      "velocity": 125,
      "chip": "ym2612"
    },
    {
      "channel": 5,
      "note": 50,
      "start": 13.4739,
      "duration": 0.2272,
      "velocity": 103,
      "chip": "ym2612"
    },
    {
      "channel": 2,
      "note": 42,
      "start": 13.7041,
      "duration": 0.1137,
      "velocity": 125,
      "chip": "ym2612"
    },
    {
      "channel": 5,
      "note": 50,
      "start": 13.7071,
      "duration": 0.2109,
      "velocity": 103,
      "chip": "ym2612"
    },
    {
      "channel": 2,
      "note": 42,
      "start": 13.9211,
      "duration": 0.1133,
      "velocity": 125,
      "chip": "ym2612"
    },
    {
      "channel": 5,
      "note": 50,
      "start": 13.924,
      "duration": 0.2271,
      "velocity": 103,
      "chip": "ym2612"
    },
    {
      "channel": 3,
      "note": 55,
      "start": 13.927,
      "duration": 0.674,
      "velocity": 81,
      "chip": "ym2612"
    },
    {
      "channel": 4,
      "note": 60,
      "start": 13.9296,
      "duration": 0.6715,
      "velocity": 81,
      "chip": "ym2612"
    },
    {
      "channel": 0,
      "note": 69,
      "start": 14.1541,
      "duration": 0.1136,
      "velocity": 116,
      "chip": "ym2612"
    },
    {
      "channel": 5,
      "note": 53,
      "start": 14.1576,
      "duration": 0.2268,
      "velocity": 103,
      "chip": "ym2612"
    },
    {
      "channel": 2,
      "note": 42,
      "start": 14.3876,
      "duration": 0.097,
      "velocity": 125,
      "chip": "ym2612"
    },
    {
      "channel": 5,
      "note": 53,
      "start": 14.3905,
      "duration": 0.2107,
      "velocity": 103,
      "chip": "ym2612"
    },
    {
      "channel": 2,
      "note": 42,
      "start": 14.6045,
      "duration": 0.1136,
      "velocity": 125,
      "chip": "ym2612"
    },
    {
      "channel": 1,
      "note": 74,
      "start": 14.6079,
      "duration": 0.3598,
      "velocity": 127,
      "chip": "ym2612"
    },
    {
      "channel": 5,
      "note": 55,
      "start": 14.6105,
      "duration": 0.2243,
      "velocity": 103,
      "chip": "ym2612"
    },
    {
      "channel": 0,
      "note": 79,
      "start": 14.6142,
      "duration": 1.8034,
      "velocity": 99,
      "chip": "ym2612"
    },
    {
      "channel": 3,
      "note": 62,
      "start": 14.6212,
      "duration": 0.2134,
      "velocity": 81,
      "chip": "ym2612"
    },
    {
      "channel": 4,
      "note": 86,
      "start": 14.6268,
      "duration": 1.7911,
      "velocity": 101,
      "chip": "ym2612"
    },
    {
      "channel": 5,
      "note": 55,
      "start": 14.8382,
      "duration": 0.213,
      "velocity": 103,
      "chip": "ym2612"
    },
    {
      "channel": 3,
      "note": 62,
      "start": 14.8409,
      "duration": 0.2101,
      "velocity": 81,
      "chip": "ym2612"
    },
    {
      "channel": 2,
      "note": 69,
      "start": 15.0544,
      "duration": 0.1135,
      "velocity": 116,
      "chip": "ym2612"
    },
    {
      "channel": 1,
      "note": 74,
      "start": 15.0579,
      "duration": 0.3598,
      "velocity": 127,
      "chip": "ym2612"
    },
    {
      "channel": 5,
      "note": 55,
      "start": 15.0612,
      "duration": 0.4567,
      "velocity": 103,
      "chip": "ym2612"
    },
    {
      "channel": 3,
      "note": 64,
      "start": 15.0643,
      "duration": 0.4535,
      "velocity": 81,
      "chip": "ym2612"
    },
    {
      "channel": 2,
      "note": 42,
      "start": 15.521,
      "duration": 0.0969,
      "velocity": 125,
      "chip": "ym2612"
    },
    {
      "channel": 1,
      "note": 74,
      "start": 15.5239,
      "duration": 0.3437,
      "velocity": 127,
      "chip": "ym2612"
    },
    {
      "channel": 5,
      "note": 55,
      "start": 15.5265,
      "duration": 0.4414,
      "velocity": 103,
      "chip": "ym2612"
    },
    {
      "channel": 3,
      "note": 62,
      "start": 15.5293,
      "duration": 0.4385,
      "velocity": 81,
      "chip": "ym2612"
    },
    {
      "channel": 2,
      "note": 69,
      "start": 15.9716,
      "duration": 0.1131,
      "velocity": 116,
      "chip": "ym2612"
    },
    {
      "channel": 1,
      "note": 74,
      "start": 15.9755,
      "duration": 0.3422,
      "velocity": 127,
      "chip": "ym2612"
    },
    {
      "channel": 5,
      "note": 55,
      "start": 15.978,
      "duration": 0.4401,
      "velocity": 103,
      "chip": "ym2612"
    },
    {
      "channel": 3,
      "note": 64,
      "start": 15.981,
      "duration": 0.4368,
      "velocity": 81,
      "chip": "ym2612"
    },
    {
      "channel": 2,
      "note": 42,
      "start": 16.4214,
      "duration": 0.1133,
      "velocity": 125,
      "chip": "ym2612"
    },
    {
      "channel": 1,
      "note": 74,
      "start": 16.4244,
      "duration": 0.2267,
      "velocity": 127,
      "chip": "ym2612"
    },
    {
      "channel": 5,
      "note": 53,
      "start": 16.4271,
      "duration": 0.4406,
      "velocity": 103,
      "chip": "ym2612"
    },
    {
      "channel": 0,
      "note": 77,
      "start": 16.4295,
      "duration": 1.8048,
      "velocity": 99,
      "chip": "ym2612"
    },
    {
      "channel": 4,
      "note": 84,
      "start": 16.4349,
      "duration": 1.7998,
      "velocity": 101,
      "chip": "ym2612"
    },
    {
      "channel": 3,
      "note": 72,
      "start": 16.6555,
      "duration": 0.4457,
      "velocity": 81,
      "chip": "ym2612"
    },
    {
      "channel": 2,
      "note": 69,
      "start": 16.871,
      "duration": 0.1136,
      "velocity": 116,
      "chip": "ym2612"
    },
    {
      "channel": 1,
      "note": 74,
      "start": 16.8746,
      "duration": 0.2264,
      "velocity": 127,
      "chip": "ym2612"
    },
    {
      "channel": 1,
      "note": 74,
      "start": 17.1047,
      "duration": 0.163,
      "velocity": 127,
      "chip": "ym2612"
    },
    {
      "channel": 3,
      "note": 72,
      "start": 17.1076,
      "duration": 0.4435,
      "velocity": 81,
      "chip": "ym2612"
    },
    {
      "channel": 5,
      "note": 42,
      "start": 17.3209,
      "duration": 0.1136,
      "velocity": 125,
      "chip": "ym2612"
    },
    {
      "channel": 1,
      "note": 74,
      "start": 17.3239,
      "duration": 0.2271,
      "velocity": 127,
      "chip": "ym2612"
    },
    {
      "channel": 2,
      "note": 53,
      "start": 17.3268,
      "duration": 0.9081,
      "velocity": 103,
      "chip": "ym2612"
    },
    {
      "channel": 1,
      "note": 74,
      "start": 17.5546,
      "duration": 0.1631,
      "velocity": 127,
      "chip": "ym2612"
    },
    {
      "channel": 3,
      "note": 72,
      "start": 17.5575,
      "duration": 0.4437,
      "velocity": 81,
      "chip": "ym2612"
    },
    {
      "channel": 5,
      "note": 69,
      "start": 17.7876,
      "duration": 0.0969,
      "velocity": 116,
      "chip": "ym2612"
    },
    {
      "channel": 1,
      "note": 74,
      "start": 17.7913,
      "duration": 0.2098,
      "velocity": 127,
      "chip": "ym2612"
    },
    {
      "channel": 5,
      "note": 42,
      "start": 18.0049,
      "duration": 0.1129,
      "velocity": 125,
      "chip": "ym2612"
    },
    {
      "channel": 1,
      "note": 74,
      "start": 18.0079,
      "duration": 0.1598,
      "velocity": 127,
      "chip": "ym2612"
    },
    {
      "channel": 3,
      "note": 72,
      "start": 18.0111,
      "duration": 0.2235,
      "velocity": 81,
      "chip": "ym2612"
    },
    {
      "channel": 5,
      "note": 42,
      "start": 18.2381,
      "duration": 0.1132,
      "velocity": 125,
      "chip": "ym2612"
    },
    {
      "channel": 1,
      "note": 74,
      "start": 18.2415,
      "duration": 0.2097,
      "velocity": 127,
      "chip": "ym2612"
    },
    {
      "channel": 2,
      "note": 55,
      "start": 18.2444,
      "duration": 0.44,
      "velocity": 103,
      "chip": "ym2612"
    },
    {
      "channel": 0,
      "note": 79,
      "start": 18.2475,
      "duration": 1.3367,
      "velocity": 99,
      "chip": "ym2612"
    },
    {
      "channel": 3,
      "note": 62,
      "start": 18.2532,
      "duration": 0.198,
      "velocity": 81,
      "chip": "ym2612"
    },
    {
      "channel": 4,
      "note": 86,
      "start": 18.2567,
      "duration": 1.3278,
      "velocity": 101,
      "chip": "ym2612"
    },
    {
      "channel": 1,
      "note": 74,
      "start": 18.4548,
      "duration": 0.1796,
      "velocity": 127,
      "chip": "ym2612"
    },
    {
      "channel": 5,
      "note": 69,
      "start": 18.6876,
      "duration": 0.1135,
      "velocity": 116,
      "chip": "ym2612"
    },
    {
      "channel": 1,
      "note": 74,
      "start": 18.6913,
      "duration": 0.2264,
      "velocity": 127,
      "chip": "ym2612"
    },
    {
      "channel": 3,
      "note": 64,
      "start": 18.6944,
      "duration": 0.4401,
      "velocity": 81,
      "chip": "ym2612"
    },
    {
      "channel": 1,
      "note": 74,
      "start": 18.9213,
      "duration": 0.1631,
      "velocity": 127,
      "chip": "ym2612"
    },
    {
      "channel": 2,
      "note": 55,
      "start": 18.9243,
      "duration": 0.2104,
      "velocity": 103,
      "chip": "ym2612"
    },
    {
      "channel": 5,
      "note": 42,
      "start": 19.1378,
      "duration": 0.1134,
      "velocity": 125,
      "chip": "ym2612"
    },
    {
      "channel": 1,
      "note": 74,
      "start": 19.1408,
      "duration": 0.2268,
      "velocity": 127,
      "chip": "ym2612"
    },
    {
      "channel": 2,
      "note": 55,
      "start": 19.1438,
      "duration": 0.4409,
      "velocity": 103,
      "chip": "ym2612"
    },
    {
      "channel": 3,
      "note": 62,
      "start": 19.1466,
      "duration": 0.4378,
      "velocity": 81,
      "chip": "ym2612"
    },
    {
      "channel": 1,
      "note": 74,
      "start": 19.3712,
      "duration": 0.1631,
      "velocity": 127,
      "chip": "ym2612"
    },
    {
      "channel": 5,
      "note": 69,
      "start": 19.5883,
      "duration": 0.113,
      "velocity": 116,
      "chip": "ym2612"
    },
    {
      "channel": 1,
      "note": 74,
      "start": 19.5928,
      "duration": 0.225,
      "velocity": 127,
      "chip": "ym2612"
    },
    {
      "channel": 3,
      "note": 64,
      "start": 19.596,
      "duration": 0.222,
      "velocity": 81,
      "chip": "ym2612"
    },
    {
      "channel": 0,
      "note": 42,
      "start": 19.8212,
      "duration": 0.1132,
      "velocity": 125,
      "chip": "ym2612"
    },
    {
      "channel": 2,
      "note": 57,
      "start": 19.825,
      "duration": 0.2099,
      "velocity": 103,
      "chip": "ym2612"
    },
    {
      "channel": 4,
      "note": 81,
      "start": 19.828,
      "duration": 0.1566,
      "velocity": 99,
      "chip": "ym2612"
    },
    {
      "channel": 3,
      "note": 64,
      "start": 19.8337,
      "duration": 0.201,
      "velocity": 81,
      "chip": "ym2612"
    },
    {
      "channel": 5,
      "note": 57,
      "start": 19.8371,
      "duration": 0.1976,
      "velocity": 81,
      "chip": "ym2612"
    },
    {
      "channel": 1,
      "note": 93,
      "start": 19.8403,
      "duration": 0.1441,
      "velocity": 101,
      "chip": "ym2612"
    },
    {
      "channel": 0,
      "note": 42,
      "start": 20.0376,
      "duration": 0.1135,
      "velocity": 125,
      "chip": "ym2612"
    },
    {
      "channel": 2,
      "note": 57,
      "start": 20.0406,
      "duration": 0.2274,
      "velocity": 103,
      "chip": "ym2612"
    },
    {
      "channel": 4,
      "note": 81,
      "start": 20.0432,
      "duration": 0.1747,
      "velocity": 99,
      "chip": "ym2612"
    },
    {
      "channel": 3,
      "note": 64,
      "start": 20.0487,
      "duration": 0.219,
      "velocity": 81,
      "chip": "ym2612"
    },
    {
      "channel": 5,
      "note": 57,
      "start": 20.0513,
      "duration": 0.2166,
      "velocity": 81,
      "chip": "ym2612"
    },
    {
      "channel": 1,
      "note": 93,
      "start": 20.0541,
      "duration": 0.1637,
      "velocity": 101,
      "chip": "ym2612"
    },
    {
      "channel": 0,
      "note": 42,
      "start": 20.2708,
      "duration": 0.1137,
      "velocity": 125,
      "chip": "ym2612"
    },
    {
      "channel": 2,
      "note": 58,
      "start": 20.2739,
      "duration": 0.2276,
      "velocity": 103,
      "chip": "ym2612"
    },
    {
      "channel": 4,
      "note": 82,
      "start": 20.2764,
      "duration": 0.1583,
      "velocity": 99,
      "chip": "ym2612"
    },
    {
      "channel": 3,
      "note": 65,
      "start": 20.2827,
      "duration": 0.2185,
      "velocity": 81,
      "chip": "ym2612"
    },
    {
      "channel": 5,
      "note": 58,
      "start": 20.2853,
      "duration": 0.216,
      "velocity": 81,
      "chip": "ym2612"
    },
    {
      "channel": 1,
      "note": 94,
      "start": 20.288,
      "duration": 0.1464,
      "velocity": 101,
      "chip": "ym2612"
    },
    {
      "channel": 0,
      "note": 42,
      "start": 20.5043,
      "duration": 0.0968,
      "velocity": 125,
      "chip": "ym2612"
    },
    {
      "channel": 2,
      "note": 58,
      "start": 20.5073,
      "duration": 0.2107,
      "velocity": 103,
      "chip": "ym2612"
    },
    {
      "channel": 4,
      "note": 82,
      "start": 20.5099,
      "duration": 0.158,
      "velocity": 99,
      "chip": "ym2612"
    },
    {
      "channel": 3,
      "note": 65,
      "start": 20.5154,
      "duration": 0.2024,
      "velocity": 81,
      "chip": "ym2612"
    },
    {
      "channel": 5,
      "note": 58,
      "start": 20.518,
      "duration": 0.1999,
      "velocity": 81,
      "chip": "ym2612"
    },
    {
      "channel": 1,
      "note": 94,
      "start": 20.5207,
      "duration": 0.147,
      "velocity": 101,
      "chip": "ym2612"
    },
    {
      "channel": 0,
      "note": 69,
      "start": 20.7214,
      "duration": 0.1132,
      "velocity": 116,
      "chip": "ym2612"
    },
    {
      "channel": 2,
      "note": 60,
      "start": 20.7252,
      "duration": 0.2262,
      "velocity": 103,
      "chip": "ym2612"
    },
    {
      "channel": 4,
      "note": 84,
      "start": 20.7282,
      "duration": 0.1565,
      "velocity": 99,
      "chip": "ym2612"
    },
    {
      "channel": 3,
      "note": 67,
      "start": 20.7337,
      "duration": 0.2174,
      "velocity": 81,
      "chip": "ym2612"
    },
    {
      "channel": 5,
      "note": 60,
      "start": 20.7367,
      "duration": 0.2146,
      "velocity": 81,
      "chip": "ym2612"
    },
    {
      "channel": 1,
      "note": 96,
      "start": 20.7394,
      "duration": 0.1452,
      "velocity": 101,
      "chip": "ym2612"
    },
    {
      "channel": 0,
      "note": 42,
      "start": 20.9546,
      "duration": 0.1131,
      "velocity": 125,
      "chip": "ym2612"
    },
    {
      "channel": 1,
      "note": 74,
      "start": 20.9593,
      "duration": 0.3418,
      "velocity": 127,
      "chip": "ym2612"
    },
    {
      "channel": 2,
      "note": 48,
      "start": 20.9626,
      "duration": 2.7056,
      "velocity": 103,
      "chip": "ym2612"
    },
    {
      "channel": 4,
      "note": 84,
      "start": 20.9658,
      "duration": 2.7022,
      "velocity": 99,
      "chip": "ym2612"
    },
    {
      "channel": 3,
      "note": 67,
      "start": 20.9728,
      "duration": 2.695,
      "velocity": 81,
      "chip": "ym2612"
    },
    {
      "channel": 5,
      "note": 96,
      "start": 20.9768,
      "duration": 2.6913,
      "velocity": 101,
      "chip": "ym2612"
    },
    {
      "channel": 0,
      "note": 69,
      "start": 21.4045,
      "duration": 0.1132,
      "velocity": 116,
      "chip": "ym2612"
    },
    {
      "channel": 1,
      "note": 74,
      "start": 21.638,
      "duration": 0.063,
      "velocity": 127,
      "chip": "ym2612"
    },
    {
      "channel": 0,
      "note": 42,
      "start": 21.8541,
      "duration": 0.1135,
      "velocity": 125,
      "chip": "ym2612"
    },
    {
      "channel": 1,
      "note": 74,
      "start": 21.8577,
      "duration": 0.0766,
      "velocity": 127,
      "chip": "ym2612"
    },
    {
      "channel": 1,
      "note": 74,
      "start": 22.0877,
      "duration": 0.0634,
      "velocity": 127,
      "chip": "ym2612"
    },
    {
      "channel": 0,
      "note": 69,
      "start": 22.3042,
      "duration": 0.1134,
      "velocity": 116,
      "chip": "ym2612"
    },
    {
      "channel": 1,
      "note": 74,
      "start": 22.3079,
      "duration": 0.0765,
      "velocity": 127,
      "chip": "ym2612"
    },
    {
      "channel": 1,
      "note": 74,
      "start": 22.5377,
      "duration": 0.08,
      "velocity": 127,
      "chip": "ym2612"
    },
    {
      "channel": 0,
      "note": 42,
      "start": 22.7713,
      "duration": 0.0964,
      "velocity": 125,
      "chip": "ym2612"
    },
    {
      "channel": 1,
      "note": 74,
      "start": 22.7746,
      "duration": 0.4431,
      "velocity": 127,
      "chip": "ym2612"
    },
    {
      "channel": 0,
      "note": 69,
      "start": 23.2212,
      "duration": 0.1132,
      "velocity": 116,
      "chip": "ym2612"
    },
    {
      "channel": 0,
      "note": 69,
      "start": 23.6714,
      "duration": 0.113,
      "velocity": 116,
      "chip": "ym2612"
    },
    {
      "channel": 0,
      "note": 69,
      "start": 23.7882,
      "duration": 0.1129,
      "velocity": 116,
      "chip": "ym2612"
    },
    {
      "channel": 1,
      "note": 42,
      "start": 23.9046,
      "duration": 0.0964,
      "velocity": 125,
      "chip": "ym2612"
    },
    {
      "channel": 1,
      "note": 42,
      "start": 24.1205,
      "duration": 0.1139,
      "velocity": 125,
      "chip": "ym2612"
    },
    {
      "channel": 1,
      "note": 42,
      "start": 24.3539,
      "duration": 0.1137,
      "velocity": 125,
      "chip": "ym2612"
    },
    {
      "channel": 2,
      "note": 50,
      "start": 24.3572,
      "duration": 0.2108,
      "velocity": 103,
      "chip": "ym2612"
    },
    {
      "channel": 4,
      "note": 84,
      "start": 24.5225,
      "duration": 0.4451,
      "velocity": 99,
      "chip": "ym2612"
    },
    {
      "channel": 3,
      "note": 72,
      "start": 24.5267,
      "duration": 0.0411,
      "velocity": 81,
      "chip": "ym2612"
    },
    {
      "channel": 5,
      "note": 62,
      "start": 24.531,
      "duration": 0.5036,
      "velocity": 81,
      "chip": "ym2612"
    },
    {
      "channel": 1,
      "note": 42,
      "start": 24.5722,
      "duration": 0.1122,
      "velocity": 125,
      "chip": "ym2612"
    },
    {
      "channel": 0,
      "note": 74,
      "start": 24.58,
      "duration": 0.171,
      "velocity": 127,
      "chip": "ym2612"
    },
    {
      "channel": 2,
      "note": 50,
      "start": 24.5846,
      "duration": 0.4502,
      "velocity": 103,
      "chip": "ym2612"
    },
    {
      "channel": 3,
      "note": 89,
      "start": 24.5876,
      "duration": 0.4469,
      "velocity": 99,
      "chip": "ym2612"
    },
    {
      "channel": 0,
      "note": 74,
      "start": 24.8046,
      "duration": 0.0463,
      "velocity": 127,
      "chip": "ym2612"
    },
    {
      "channel": 1,
      "note": 69,
      "start": 25.0382,
      "duration": 0.0962,
      "velocity": 116,
      "chip": "ym2612"
    },
    {
      "channel": 0,
      "note": 74,
      "start": 25.0431,
      "duration": 0.1579,
      "velocity": 127,
      "chip": "ym2612"
    },
    {
      "channel": 0,
      "note": 74,
      "start": 25.2544,
      "duration": 0.0632,
      "velocity": 127,
      "chip": "ym2612"
    },
    {
      "channel": 4,
      "note": 42,
      "start": 25.4874,
      "duration": 0.1137,
      "velocity": 125,
      "chip": "ym2612"
    },
    {
      "channel": 0,
      "note": 74,
      "start": 25.4913,
      "duration": 0.1596,
      "velocity": 127,
      "chip": "ym2612"
    },
    {
      "channel": 0,
      "note": 74,
      "start": 25.7043,
      "duration": 0.0632,
      "velocity": 127,
      "chip": "ym2612"
    }
  ]
}