{
  "track_name": "07 - Huey Reane - Main Theme",
  "duration_sec": 34.086,
  "sample_rate": 44100,
  "note_count": 500,
  "unique_pitches": 14,
  "pitch_range": 31,
  "avg_note_duration": 0.3485,
  "reconstruction_stats": {
    "notes_reconstructed": 500,
    "keyon_events": 500,
    "keyoff_events": 496,
    "orphan_keyons": 4,
    "unique_pitches": 14,
    "pitch_range": 31,
    "avg_duration_sec": 0.3485
  },
  "metadata": {
    "source": "P\\Phantasy Star II Text Adventures\\07 - Huey Reane - Main Theme.vgz"
  },
  "notes": [
    {
      "channel": 1,
      "note": 54,
      "start": 0.0493,
      "duration": 0.1452,
      "velocity": 1,
      "chip": "ym2612"
    },
    {
      "channel": 3,
      "note": 75,
      "start": 0.0528,
      "duration": 0.1425,
      "velocity": 1,
      "chip": "ym2612"
    },
    {
      "channel": 5,
      "note": 66,
      "start": 0.0567,
      "duration": 2.3952,
      "velocity": 98,
      "chip": "ym2612"
    },
    {
      "channel": 2,
      "note": 68,
      "start": 0.0603,
      "duration": 2.3924,
      "velocity": 98,
      "chip": "ym2612"
    },
    {
      "channel": 1,
      "note": 57,
      "start": 0.1951,
      "duration": 0.1494,
      "velocity": 1,
      "chip": "ym2612"
    },
    {
      "channel": 3,
      "note": 76,
      "start": 0.1959,
      "duration": 0.1494,
      "velocity": 1,
      "chip": "ym2612"
    },
    {
      "channel": 1,
      "note": 54,
      "start": 0.3451,
      "duration": 0.1494,
      "velocity": 1,
      "chip": "ym2612"
    },
    {
      "channel": 3,
      "note": 77,
      "start": 0.3459,
      "duration": 0.1494,
      "velocity": 1,
      "chip": "ym2612"
    },
    {
      "channel": 1,
      "note": 59,
      "start": 0.4951,
      "duration": 0.1522,
      "velocity": 1,
      "chip": "ym2612"
    },
    {
      "channel": 3,
      "note": 78,
      "start": 0.4959,
      "duration": 0.1549,
      "velocity": 1,
      "chip": "ym2612"
    },
    {
      "channel": 1,
      "note": 54,
      "start": 0.648,
      "duration": 0.1465,
      "velocity": 1,
      "chip": "ym2612"
    },
    {
      "channel": 3,
      "note": 75,
      "start": 0.6514,
      "duration": 0.1438,
      "velocity": 1,
      "chip": "ym2612"
    },
    {
      "channel": 1,
      "note": 57,
      "start": 0.7951,
      "duration": 0.1494,
      "velocity": 1,
      "chip": "ym2612"
    },
    {
      "channel": 3,
      "note": 76,
      "start": 0.7959,
      "duration": 0.1494,
      "velocity": 1,
      "chip": "ym2612"
    },
    {
      "channel": 1,
      "note": 54,
      "start": 0.9451,
      "duration": 0.1494,
      "velocity": 1,
      "chip": "ym2612"
    },
    {
      "channel": 3,
      "note": 77,
      "start": 0.9459,
      "duration": 0.1494,
      "velocity": 1,
      "chip": "ym2612"
    },
    {
      "channel": 1,
      "note": 59,
      "start": 1.0951,
      "duration": 0.1522,
      "velocity": 1,
      "chip": "ym2612"
    },
    {
      "channel": 3,
      "note": 78,
      "start": 1.0959,
      "duration": 0.1549,
      "velocity": 1,
      "chip": "ym2612"
    },
    {
      "channel": 1,
      "note": 54,
      "start": 1.248,
      "duration": 0.1465,
      "velocity": 1,
      "chip": "ym2612"
    },
    {
      "channel": 3,
      "note": 75,
      "start": 1.2514,
      "duration": 0.1438,
      "velocity": 1,
      "chip": "ym2612"
    },
    {
      "channel": 1,
      "note": 57,
      "start": 1.3951,
      "duration": 0.1494,
      "velocity": 1,
      "chip": "ym2612"
    },
    {
      "channel": 3,
      "note": 76,
      "start": 1.3959,
      "duration": 0.1494,
      "velocity": 1,
      "chip": "ym2612"
    },
    {
      "channel": 1,
      "note": 54,
      "start": 1.5451,
      "duration": 0.1494,
      "velocity": 1,
      "chip": "ym2612"
    },
    {
      "channel": 3,
      "note": 77,
      "start": 1.5459,
      "duration": 0.1494,
      "velocity": 1,
      "chip": "ym2612"
    },
    {
      "channel": 1,
      "note": 59,
      "start": 1.6951,
      "duration": 0.1522,
      "velocity": 1,
      "chip": "ym2612"
    },
    {
      "channel": 3,
      "note": 78,
      "start": 1.6959,
      "duration": 0.1549,
      "velocity": 1,
      "chip": "ym2612"
    },
    {
      "channel": 1,
      "note": 54,
      "start": 1.848,
      "duration": 0.1465,
      "velocity": 1,
      "chip": "ym2612"
    },
    {
      "channel": 3,
      "note": 75,
      "start": 1.8514,
      "duration": 0.1438,
      "velocity": 1,
      "chip": "ym2612"
    },
    {
      "channel": 1,
      "note": 57,
      "start": 1.9951,
      "duration": 0.1494,
      "velocity": 1,
      "chip": "ym2612"
    },
    {
      "channel": 3,
      "note": 76,
      "start": 1.9959,
      "duration": 0.1494,
      "velocity": 1,
      "chip": "ym2612"
    },
    {
      "channel": 1,
      "note": 54,
      "start": 2.1451,
      "duration": 0.1494,
      "velocity": 1,
      "chip": "ym2612"
    },
    {
      "channel": 3,
      "note": 77,
      "start": 2.1459,
      "duration": 0.1494,
      "velocity": 1,
      "chip": "ym2612"
    },
    {
      "channel": 1,
      "note": 59,
      "start": 2.2951,
      "duration": 0.1525,
      "velocity": 1,
      "chip": "ym2612"
    },
    {
      "channel": 3,
      "note": 78,
      "start": 2.2959,
      "duration": 0.1552,
      "velocity": 1,
      "chip": "ym2612"
    },
    {
      "channel": 1,
      "note": 54,
      "start": 2.4483,
      "duration": 0.1463,
      "velocity": 1,
      "chip": "ym2612"
    },
    {
      "channel": 3,
      "note": 75,
      "start": 2.4517,
      "duration": 0.1436,
      "velocity": 1,
      "chip": "ym2612"
    },
    {
      "channel": 5,
      "note": 71,
      "start": 2.4526,
      "duration": 2.402,
      "velocity": 98,
      "chip": "ym2612"
    },
    {
      "channel": 2,
      "note": 69,
      "start": 2.4534,
      "duration": 2.4049,
      "velocity": 98,
      "chip": "ym2612"
    },
    {
      "channel": 1,
      "note": 57,
      "start": 2.5951,
      "duration": 0.1494,
      "velocity": 1,
      "chip": "ym2612"
    },
    {
      "channel": 3,
      "note": 76,
      "start": 2.5959,
      "duration": 0.1494,
      "velocity": 1,
      "chip": "ym2612"
    },
    {
      "channel": 1,
      "note": 54,
      "start": 2.7451,
      "duration": 0.1494,
      "velocity": 1,
      "chip": "ym2612"
    },
    {
      "channel": 3,
      "note": 77,
      "start": 2.7459,
      "duration": 0.1494,
      "velocity": 1,
      "chip": "ym2612"
    },
    {
      "channel": 1,
      "note": 59,
      "start": 2.8951,
      "duration": 0.1522,
      "velocity": 1,
      "chip": "ym2612"
    },
    {
      "channel": 3,
      "note": 78,
      "start": 2.8959,
      "duration": 0.1549,
      "velocity": 1,
      "chip": "ym2612"
    },
    {
      "channel": 1,
      "note": 54,
      "start": 3.048,
      "duration": 0.1465,
      "velocity": 1,
      "chip": "ym2612"
    },
    {
      "channel": 3,
      "note": 75,
      "start": 3.0514,
      "duration": 0.1438,
      "velocity": 1,
      "chip": "ym2612"
    },
    {
      "channel": 1,
      "note": 57,
      "start": 3.1951,
      "duration": 0.1494,
      "velocity": 1,
      "chip": "ym2612"
    },
    {
      "channel": 3,
      "note": 76,
      "start": 3.1959,
      "duration": 0.1494,
      "velocity": 1,
      "chip": "ym2612"
    },
    {
      "channel": 1,
      "note": 54,
      "start": 3.3451,
      "duration": 0.1494,
      "velocity": 1,
      "chip": "ym2612"
    },
    {
      "channel": 3,
      "note": 77,
      "start": 3.3459,
      "duration": 0.1494,
      "velocity": 1,
      "chip": "ym2612"
    },
    {
      "channel": 1,
      "note": 59,
      "start": 3.4951,
      "duration": 0.1522,
      "velocity": 1,
      "chip": "ym2612"
    },
    {
      "channel": 3,
      "note": 78,
      "start": 3.4959,
      "duration": 0.1549,
      "velocity": 1,
      "chip": "ym2612"
    },
    {
      "channel": 1,
      "note": 54,
      "start": 3.648,
      "duration": 0.1465,
      "velocity": 1,
      "chip": "ym2612"
    },
    {
      "channel": 3,
      "note": 75,
      "start": 3.6514,
      "duration": 0.1438,
      "velocity": 1,
      "chip": "ym2612"
    },
    {
      "channel": 1,
      "note": 57,
      "start": 3.7951,
      "duration": 0.1494,
      "velocity": 1,
      "chip": "ym2612"
    },
    {
      "channel": 3,
      "note": 76,
      "start": 3.7959,
      "duration": 0.1494,
      "velocity": 1,
      "chip": "ym2612"
    },
    {
      "channel": 1,
      "note": 54,
      "start": 3.9451,
      "duration": 0.1494,
      "velocity": 1,
      "chip": "ym2612"
    },
    {
      "channel": 3,
      "note": 77,
      "start": 3.9459,
      "duration": 0.1494,
      "velocity": 1,
      "chip": "ym2612"
    },
    {
      "channel": 1,
      "note": 59,
      "start": 4.0951,
      "duration": 0.1522,
      "velocity": 1,
      "chip": "ym2612"
    },
    {
      "channel": 3,
      "note": 78,
      "start": 4.0959,
      "duration": 0.1549,
      "velocity": 1,
      "chip": "ym2612"
    },
    {
      "channel": 1,
      "note": 54,
      "start": 4.248,
      "duration": 0.1465,
      "velocity": 1,
      "chip": "ym2612"
    },
    {
      "channel": 3,
      "note": 75,
      "start": 4.2514,
      "duration": 0.1438,
      "velocity": 1,
      "chip": "ym2612"
    },
    {
      "channel": 1,
      "note": 57,
      "start": 4.3951,
      "duration": 0.1494,
      "velocity": 1,
      "chip": "ym2612"
    },
    {
      "channel": 3,
      "note": 76,
      "start": 4.3959,
      "duration": 0.1494,
      "velocity": 1,
      "chip": "ym2612"
    },
    {
      "channel": 1,
      "note": 54,
      "start": 4.5451,
      "duration": 0.1494,
      "velocity": 1,
      "chip": "ym2612"
    },
    {
      "channel": 3,
      "note": 77,
      "start": 4.5459,
      "duration": 0.1494,
      "velocity": 1,
      "chip": "ym2612"
    },
    {
      "channel": 1,
      "note": 59,
      "start": 4.6951,
      "duration": 0.1525,
      "velocity": 1,
      "chip": "ym2612"
    },
    {
      "channel": 3,
      "note": 78,
      "start": 4.6959,
      "duration": 0.1552,
      "velocity": 1,
      "chip": "ym2612"
    },
    {
      "channel": 1,
      "note": 54,
      "start": 4.8483,
      "duration": 0.1463,
      "velocity": 1,
      "chip": "ym2612"
    },
    {
      "channel": 3,
      "note": 75,
      "start": 4.8517,
      "duration": 0.1436,
      "velocity": 1,
      "chip": "ym2612"
    },
    {
      "channel": 5,
      "note": 66,
      "start": 4.8553,
      "duration": 2.3967,
      "velocity": 98,
      "chip": "ym2612"
    },
    {
      "channel": 2,
      "note": 68,
      "start": 4.8589,
      "duration": 2.3938,
      "velocity": 98,
      "chip": "ym2612"
    },
    {
      "channel": 1,
      "note": 57,
      "start": 4.9951,
      "duration": 0.1494,
      "velocity": 1,
      "chip": "ym2612"
    },
    {
      "channel": 3,
      "note": 76,
      "start": 4.9959,
      "duration": 0.1494,
      "velocity": 1,
      "chip": "ym2612"
    },
    {
      "channel": 1,
      "note": 54,
      "start": 5.1451,
      "duration": 0.1494,
      "velocity": 1,
      "chip": "ym2612"
    },
    {
      "channel": 3,
      "note": 77,
      "start": 5.1459,
      "duration": 0.1494,
      "velocity": 1,
      "chip": "ym2612"
    },
    {
      "channel": 1,
      "note": 59,
      "start": 5.2951,
      "duration": 0.1522,
      "velocity": 1,
      "chip": "ym2612"
    },
    {
      "channel": 3,
      "note": 78,
      "start": 5.2959,
      "duration": 0.1549,
      "velocity": 1,
      "chip": "ym2612"
    },
    {
      "channel": 1,
      "note": 54,
      "start": 5.448,
      "duration": 0.1465,
      "velocity": 1,
      "chip": "ym2612"
    },
    {
      "channel": 3,
      "note": 75,
      "start": 5.4514,
      "duration": 0.1438,
      "velocity": 1,
      "chip": "ym2612"
    },
    {
      "channel": 1,
      "note": 57,
      "start": 5.5951,
      "duration": 0.1494,
      "velocity": 1,
      "chip": "ym2612"
    },
    {
      "channel": 3,
      "note": 76,
      "start": 5.5959,
      "duration": 0.1494,
      "velocity": 1,
      "chip": "ym2612"
    },
    {
      "channel": 1,
      "note": 54,
      "start": 5.7451,
      "duration": 0.1494,
      "velocity": 1,
      "chip": "ym2612"
    },
    {
      "channel": 3,
      "note": 77,
      "start": 5.7459,
      "duration": 0.1494,
      "velocity": 1,
      "chip": "ym2612"
    },
    {
      "channel": 1,
      "note": 59,
      "start": 5.8951,
      "duration": 0.1522,
      "velocity": 1,
      "chip": "ym2612"
    },
    {
      "channel": 3,
      "note": 78,
      "start": 5.8959,
      "duration": 0.1549,
      "velocity": 1,
      "chip": "ym2612"
    },
    {
      "channel": 1,
      "note": 54,
      "start": 6.048,
      "duration": 0.1465,
      "velocity": 1,
      "chip": "ym2612"
    },
    {
      "channel": 3,
      "note": 75,
      "start": 6.0514,
      "duration": 0.1438,
      "velocity": 1,
      "chip": "ym2612"
    },
    {
      "channel": 1,
      "note": 57,
      "start": 6.1951,
      "duration": 0.1494,
      "velocity": 1,
      "chip": "ym2612"
    },
    {
      "channel": 3,
      "note": 76,
      "start": 6.1959,
      "duration": 0.1494,
      "velocity": 1,
      "chip": "ym2612"
    },
    {
      "channel": 1,
      "note": 54,
      "start": 6.3451,
      "duration": 0.1494,
      "velocity": 1,
      "chip": "ym2612"
    },
    {
      "channel": 3,
      "note": 77,
      "start": 6.3459,
      "duration": 0.1494,
      "velocity": 1,
      "chip": "ym2612"
    },
    {
      "channel": 1,
      "note": 59,
      "start": 6.4951,
      "duration": 0.1522,
      "velocity": 1,
      "chip": "ym2612"
    },
    {
      "channel": 3,
      "note": 78,
      "start": 6.4959,
      "duration": 0.1549,
      "velocity": 1,
      "chip": "ym2612"
    },
    {
      "channel": 1,
      "note": 54,
      "start": 6.648,
      "duration": 0.1465,
      "velocity": 1,
      "chip": "ym2612"
    },
    {
      "channel": 3,
      "note": 75,
      "start": 6.6514,
      "duration": 0.1438,
      "velocity": 1,
      "chip": "ym2612"
    },
    {
      "channel": 1,
      "note": 57,
      "start": 6.7951,
      "duration": 0.1494,
      "velocity": 1,
      "chip": "ym2612"
    },
    {
      "channel": 3,
      "note": 76,
      "start": 6.7959,
      "duration": 0.1494,
      "velocity": 1,
      "chip": "ym2612"
    },
    {
      "channel": 1,
      "note": 54,
      "start": 6.9451,
      "duration": 0.1494,
      "velocity": 1,
      "chip": "ym2612"
    },
    {
      "channel": 3,
      "note": 77,
      "start": 6.9459,
      "duration": 0.1494,
      "velocity": 1,
      "chip": "ym2612"
    },
    {
      "channel": 1,
      "note": 59,
      "start": 7.0951,
      "duration": 0.1525,
      "velocity": 1,
      "chip": "ym2612"
    },
    {
      "channel": 3,
      "note": 78,
      "start": 7.0959,
      "duration": 0.1552,
      "velocity": 1,
      "chip": "ym2612"
    },
    {
      "channel": 1,
      "note": 54,
      "start": 7.2483,
      "duration": 0.1463,
      "velocity": 1,
      "chip": "ym2612"
    },
    {
      "channel": 3,
      "note": 75,
      "start": 7.2517,
      "duration": 0.1436,
      "velocity": 1,
      "chip": "ym2612"
    },
    {
      "channel": 5,
      "note": 71,
      "start": 7.2526,
      "duration": 2.4027,
      "velocity": 98,
      "chip": "ym2612"
    },
    {
      "channel": 2,
      "note": 69,
      "start": 7.2533,
      "duration": 2.4056,
      "velocity": 98,
      "chip": "ym2612"
    },
    {
      "channel": 1,
      "note": 57,
      "start": 7.3951,
      "duration": 0.1494,
      "velocity": 1,
      "chip": "ym2612"
    },
    {
      "channel": 3,
      "note": 76,
      "start": 7.3959,
      "duration": 0.1494,
      "velocity": 1,
      "chip": "ym2612"
    },
    {
      "channel": 1,
      "note": 54,
      "start": 7.5451,
      "duration": 0.1494,
      "velocity": 1,
      "chip": "ym2612"
    },
    {
      "channel": 3,
      "note": 77,
      "start": 7.5459,
      "duration": 0.1494,
      "velocity": 1,
      "chip": "ym2612"
    },
    {
      "channel": 1,
      "note": 59,
      "start": 7.6951,
      "duration": 0.1522,
      "velocity": 1,
      "chip": "ym2612"
    },
    {
      "channel": 3,
      "note": 78,
      "start": 7.6959,
      "duration": 0.1549,
      "velocity": 1,
      "chip": "ym2612"
    },
    {
      "channel": 1,
      "note": 54,
      "start": 7.848,
      "duration": 0.1465,
      "velocity": 1,
      "chip": "ym2612"
    },
    {
      "channel": 3,
      "note": 75,
      "start": 7.8514,
      "duration": 0.1438,
      "velocity": 1,
      "chip": "ym2612"
    },
    {
      "channel": 1,
      "note": 57,
      "start": 7.9951,
      "duration": 0.1494,
      "velocity": 1,
      "chip": "ym2612"
    },
    {
      "channel": 3,
      "note": 76,
      "start": 7.9959,
      "duration": 0.1494,
      "velocity": 1,
      "chip": "ym2612"
    },
    {
      "channel": 1,
      "note": 54,
      "start": 8.1451,
      "duration": 0.1494,
      "velocity": 1,
      "chip": "ym2612"
    },
    {
      "channel": 3,
      "note": 77,
      "start": 8.1459,
      "duration": 0.1494,
      "velocity": 1,
      "chip": "ym2612"
    },
    {
      "channel": 1,
      "note": 59,
      "start": 8.2951,
      "duration": 0.1522,
      "velocity": 1,
      "chip": "ym2612"
    },
    {
      "channel": 3,
      "note": 78,
      "start": 8.2959,
      "duration": 0.1549,
      "velocity": 1,
      "chip": "ym2612"
    },
    {
      "channel": 1,
      "note": 54,
      "start": 8.448,
      "duration": 0.1465,
      "velocity": 1,
      "chip": "ym2612"
    },
    {
      "channel": 3,
      "note": 75,
      "start": 8.4514,
      "duration": 0.1438,
      "velocity": 1,
      "chip": "ym2612"
    },
    {
      "channel": 1,
      "note": 57,
      "start": 8.5951,
      "duration": 0.1494,
      "velocity": 1,
      "chip": "ym2612"
    },
    {
      "channel": 3,
      "note": 76,
      "start": 8.5959,
      "duration": 0.1494,
      "velocity": 1,
      "chip": "ym2612"
    },
    {
      "channel": 1,
      "note": 54,
      "start": 8.7451,
      "duration": 0.1494,
      "velocity": 1,
      "chip": "ym2612"
    },
    {
      "channel": 3,
      "note": 77,
      "start": 8.7459,
      "duration": 0.1494,
      "velocity": 1,
      "chip": "ym2612"
    },
    {
      "channel": 1,
      "note": 59,
      "start": 8.8951,
      "duration": 0.1522,
      "velocity": 1,
      "chip": "ym2612"
    },
    {
      "channel": 3,
      "note": 78,
      "start": 8.8959,
      "duration": 0.1549,
      "velocity": 1,
      "chip": "ym2612"
    },
    {
      "channel": 1,
      "note": 54,
      "start": 9.048,
      "duration": 0.1465,
      "velocity": 1,
      "chip": "ym2612"
    },
    {
      "channel": 3,
      "note": 75,
      "start": 9.0514,
      "duration": 0.1438,
      "velocity": 1,
      "chip": "ym2612"
    },
    {
      "channel": 1,
      "note": 57,
      "start": 9.1951,
      "duration": 0.1494,
      "velocity": 1,
      "chip": "ym2612"
    },
    {
      "channel": 3,
      "note": 76,
      "start": 9.1959,
      "duration": 0.1494,
      "velocity": 1,
      "chip": "ym2612"
    },
    {
      "channel": 1,
      "note": 54,
      "start": 9.3451,
      "duration": 0.1494,
      "velocity": 1,
      "chip": "ym2612"
    },
    {
      "channel": 3,
      "note": 77,
      "start": 9.3459,
      "duration": 0.1494,
      "velocity": 1,
      "chip": "ym2612"
    },
    {
      "channel": 1,
      "note": 59,
      "start": 9.4951,
      "duration": 0.1531,
      "velocity": 1,
      "chip": "ym2612"
    },
    {
      "channel": 3,
      "note": 78,
      "start": 9.4959,
      "duration": 0.1558,
      "velocity": 1,
      "chip": "ym2612"
    },
    {
      "channel": 0,
      "note": 78,
      "start": 9.6452,
      "duration": 2.3993,
      "velocity": 98,
      "chip": "ym2612"
    },
    {
      "channel": 1,
      "note": 54,
      "start": 9.6488,
      "duration": 0.1461,
      "velocity": 1,
      "chip": "ym2612"
    },
    {
      "channel": 3,
      "note": 75,
      "start": 9.6523,
      "duration": 0.1434,
      "velocity": 1,
      "chip": "ym2612"
    },
    {
      "channel": 5,
      "note": 66,
      "start": 9.6559,
      "duration": 2.3971,
      "velocity": 98,
      "chip": "ym2612"
    },
    {
      "channel": 2,
      "note": 68,
      "start": 9.6595,
      "duration": 2.3942,
      "velocity": 98,
      "chip": "ym2612"
    },
    {
      "channel": 4,
      "note": 78,
      "start": 9.6965,
      "duration": 2.3992,
      "velocity": 98,
      "chip": "ym2612"
    },
    {
      "channel": 1,
      "note": 57,
      "start": 9.7955,
      "duration": 0.1494,
      "velocity": 1,
      "chip": "ym2612"
    },
    {
      "channel": 3,
      "note": 76,
      "start": 9.7963,
      "duration": 0.1494,
      "velocity": 1,
      "chip": "ym2612"
    },
    {
      "channel": 1,
      "note": 54,
      "start": 9.9455,
      "duration": 0.1494,
      "velocity": 1,
      "chip": "ym2612"
    },
    {
      "channel": 3,
      "note": 77,
      "start": 9.9463,
      "duration": 0.1494,
      "velocity": 1,
      "chip": "ym2612"
    },
    {
      "channel": 1,
      "note": 59,
      "start": 10.0955,
      "duration": 0.1522,
      "velocity": 1,
      "chip": "ym2612"
    },
    {
      "channel": 3,
      "note": 78,
      "start": 10.0963,
      "duration": 0.155,
      "velocity": 1,
      "chip": "ym2612"
    },
    {
      "channel": 1,
      "note": 54,
      "start": 10.2484,
      "duration": 0.1465,
      "velocity": 1,
      "chip": "ym2612"
    },
    {
      "channel": 3,
      "note": 75,
      "start": 10.2519,
      "duration": 0.1438,
      "velocity": 1,
      "chip": "ym2612"
    },
    {
      "channel": 1,
      "note": 57,
      "start": 10.3955,
      "duration": 0.1494,
      "velocity": 1,
      "chip": "ym2612"
    },
    {
      "channel": 3,
      "note": 76,
      "start": 10.3963,
      "duration": 0.1494,
      "velocity": 1,
      "chip": "ym2612"
    },
    {
      "channel": 1,
      "note": 54,
      "start": 10.5455,
      "duration": 0.1494,
      "velocity": 1,
      "chip": "ym2612"
    },
    {
      "channel": 3,
      "note": 77,
      "start": 10.5463,
      "duration": 0.1494,
      "velocity": 1,
      "chip": "ym2612"
    },
    {
      "channel": 1,
      "note": 59,
      "start": 10.6955,
      "duration": 0.1523,
      "velocity": 1,
      "chip": "ym2612"
    },
    {
      "channel": 3,
      "note": 78,
      "start": 10.6963,
      "duration": 0.155,
      "velocity": 1,
      "chip": "ym2612"
    },
    {
      "channel": 1,
      "note": 54,
      "start": 10.8484,
      "duration": 0.1465,
      "velocity": 1,
      "chip": "ym2612"
    },
    {
      "channel": 3,
      "note": 75,
      "start": 10.8519,
      "duration": 0.1438,
      "velocity": 1,
      "chip": "ym2612"
    },
    {
      "channel": 1,
      "note": 57,
      "start": 10.9955,
      "duration": 0.1494,
      "velocity": 1,
      "chip": "ym2612"
    },
    {
      "channel": 3,
      "note": 76,
      "start": 10.9963,
      "duration": 0.1494,
      "velocity": 1,
      "chip": "ym2612"
    },
    {
      "channel": 1,
      "note": 54,
      "start": 11.1455,
      "duration": 0.1494,
      "velocity": 1,
      "chip": "ym2612"
    },
    {
      "channel": 3,
      "note": 77,
      "start": 11.1463,
      "duration": 0.1494,
      "velocity": 1,
      "chip": "ym2612"
    },
    {
      "channel": 1,
      "note": 59,
      "start": 11.2955,
      "duration": 0.1522,
      "velocity": 1,
      "chip": "ym2612"
    },
    {
      "channel": 3,
      "note": 78,
      "start": 11.2963,
      "duration": 0.155,
      "velocity": 1,
      "chip": "ym2612"
    },
    {
      "channel": 1,
      "note": 54,
      "start": 11.4484,
      "duration": 0.1465,
      "velocity": 1,
      "chip": "ym2612"
    },
    {
      "channel": 3,
      "note": 75,
      "start": 11.4519,
      "duration": 0.1438,
      "velocity": 1,
      "chip": "ym2612"
    },
    {
      "channel": 1,
      "note": 57,
      "start": 11.5955,
      "duration": 0.1494,
      "velocity": 1,
      "chip": "ym2612"
    },
    {
      "channel": 3,
      "note": 76,
      "start": 11.5963,
      "duration": 0.1494,
      "velocity": 1,
      "chip": "ym2612"
    },
    {
      "channel": 1,
      "note": 54,
      "start": 11.7455,
      "duration": 0.1494,
      "velocity": 1,
      "chip": "ym2612"
    },
    {
      "channel": 3,
      "note": 77,
      "start": 11.7463,
      "duration": 0.1494,
      "velocity": 1,
      "chip": "ym2612"
    },
    {
      "channel": 1,
      "note": 59,
      "start": 11.8955,
      "duration": 0.1527,
      "velocity": 1,
      "chip": "ym2612"
    },
    {
      "channel": 3,
      "note": 78,
      "start": 11.8963,
      "duration": 0.1554,
      "velocity": 1,
      "chip": "ym2612"
    },
    {
      "channel": 0,
      "note": 76,
      "start": 12.0453,
      "duration": 2.3992,
      "velocity": 98,
      "chip": "ym2612"
    },
    {
      "channel": 1,
      "note": 54,
      "start": 12.0489,
      "duration": 0.1461,
      "velocity": 1,
      "chip": "ym2612"
    },
    {
      "channel": 3,
      "note": 75,
      "start": 12.0523,
      "duration": 0.1434,
      "velocity": 1,
      "chip": "ym2612"
    },
    {
      "channel": 5,
      "note": 71,
      "start": 12.0536,
      "duration": 2.402,
      "velocity": 98,
      "chip": "ym2612"
    },
    {
      "channel": 2,
      "note": 69,
      "start": 12.0544,
      "duration": 2.4048,
      "velocity": 98,
      "chip": "ym2612"
    },
    {
      "channel": 4,
      "note": 76,
      "start": 12.0965,
      "duration": 2.3992,
      "velocity": 98,
      "chip": "ym2612"
    },
    {
      "channel": 1,
      "note": 57,
      "start": 12.1955,
      "duration": 0.1494,
      "velocity": 1,
      "chip": "ym2612"
    },
    {
      "channel": 3,
      "note": 76,
      "start": 12.1963,
      "duration": 0.1494,
      "velocity": 1,
      "chip": "ym2612"
    },
    {
      "channel": 1,
      "note": 54,
      "start": 12.3455,
      "duration": 0.1494,
      "velocity": 1,
      "chip": "ym2612"
    },
    {
      "channel": 3,
      "note": 77,
      "start": 12.3463,
      "duration": 0.1494,
      "velocity": 1,
      "chip": "ym2612"
    },
    {
      "channel": 1,
      "note": 59,
      "start": 12.4955,
      "duration": 0.1522,
      "velocity": 1,
      "chip": "ym2612"
    },
    {
      "channel": 3,
      "note": 78,
      "start": 12.4963,
      "duration": 0.155,
      "velocity": 1,
      "chip": "ym2612"
    },
    {
      "channel": 1,
      "note": 54,
      "start": 12.6484,
      "duration": 0.1465,
      "velocity": 1,
      "chip": "ym2612"
    },
    {
      "channel": 3,
      "note": 75,
      "start": 12.6519,
      "duration": 0.1438,
      "velocity": 1,
      "chip": "ym2612"
    },
    {
      "channel": 1,
      "note": 57,
      "start": 12.7955,
      "duration": 0.1494,
      "velocity": 1,
      "chip": "ym2612"
    },
    {
      "channel": 3,
      "note": 76,
      "start": 12.7963,
      "duration": 0.1494,
      "velocity": 1,
      "chip": "ym2612"
    },
    {
      "channel": 1,
      "note": 54,
      "start": 12.9455,
      "duration": 0.1494,
      "velocity": 1,
      "chip": "ym2612"
    },
    {
      "channel": 3,
      "note": 77,
      "start": 12.9463,
      "duration": 0.1494,
      "velocity": 1,
      "chip": "ym2612"
    },
    {
      "channel": 1,
      "note": 59,
      "start": 13.0955,
      "duration": 0.1522,
      "velocity": 1,
      "chip": "ym2612"
    },
    {
      "channel": 3,
      "note": 78,
      "start": 13.0963,
      "duration": 0.155,
      "velocity": 1,
      "chip": "ym2612"
    },
    {
      "channel": 1,
      "note": 54,
      "start": 13.2484,
      "duration": 0.1465,
      "velocity": 1,
      "chip": "ym2612"
    },
    {
      "channel": 3,
      "note": 75,
      "start": 13.2519,
      "duration": 0.1438,
      "velocity": 1,
      "chip": "ym2612"
    },
    {
      "channel": 1,
      "note": 57,
      "start": 13.3955,
      "duration": 0.1494,
      "velocity": 1,
      "chip": "ym2612"
    },
    {
      "channel": 3,
      "note": 76,
      "start": 13.3963,
      "duration": 0.1494,
      "velocity": 1,
      "chip": "ym2612"
    },
    {
      "channel": 1,
      "note": 54,
      "start": 13.5455,
      "duration": 0.1494,
      "velocity": 1,
      "chip": "ym2612"
    },
    {
      "channel": 3,
      "note": 77,
      "start": 13.5463,
      "duration": 0.1494,
      "velocity": 1,
      "chip": "ym2612"
    },
    {
      "channel": 1,
      "note": 59,
      "start": 13.6955,
      "duration": 0.1522,
      "velocity": 1,
      "chip": "ym2612"
    },
    {
      "channel": 3,
      "note": 78,
      "start": 13.6963,
      "duration": 0.155,
      "velocity": 1,
      "chip": "ym2612"
    },
    {
      "channel": 1,
      "note": 54,
      "start": 13.8484,
      "duration": 0.1465,
      "velocity": 1,
      "chip": "ym2612"
    },
    {
      "channel": 3,
      "note": 75,
      "start": 13.8519,
      "duration": 0.1438,
      "velocity": 1,
      "chip": "ym2612"
    },
    {
      "channel": 1,
      "note": 57,
      "start": 13.9955,
      "duration": 0.1494,
      "velocity": 1,
      "chip": "ym2612"
    },
    {
      "channel": 3,
      "note": 76,
      "start": 13.9963,
      "duration": 0.1494,
      "velocity": 1,
      "chip": "ym2612"
    },
    {
      "channel": 1,
      "note": 54,
      "start": 14.1455,
      "duration": 0.1494,
      "velocity": 1,
      "chip": "ym2612"
    },
    {
      "channel": 3,
      "note": 77,
      "start": 14.1463,
      "duration": 0.1494,
      "velocity": 1,
      "chip": "ym2612"
    },
    {
      "channel": 1,
      "note": 59,
      "start": 14.2955,
      "duration": 0.1527,
      "velocity": 1,
      "chip": "ym2612"
    },
    {
      "channel": 3,
      "note": 78,
      "start": 14.2963,
      "duration": 0.1554,
      "velocity": 1,
      "chip": "ym2612"
    },
    {
      "channel": 0,
      "note": 73,
      "start": 14.4452,
      "duration": 1.1993,
      "velocity": 98,
      "chip": "ym2612"
    },
    {
      "channel": 1,
      "note": 54,
      "start": 14.4489,
      "duration": 0.1461,
      "velocity": 1,
      "chip": "ym2612"
    },
    {
      "channel": 3,
      "note": 75,
      "start": 14.4523,
      "duration": 0.1434,
      "velocity": 1,
      "chip": "ym2612"
    },
    {
      "channel": 5,
      "note": 66,
      "start": 14.4563,
      "duration": 2.3966,
      "velocity": 98,
      "chip": "ym2612"
    },
    {
      "channel": 2,
      "note": 68,
      "start": 14.4599,
      "duration": 2.3938,
      "velocity": 98,
      "chip": "ym2612"
    },
    {
      "channel": 4,
      "note": 73,
      "start": 14.4965,
      "duration": 1.1992,
      "velocity": 98,
      "chip": "ym2612"
    },
    {
      "channel": 1,
      "note": 57,
      "start": 14.5955,
      "duration": 0.1494,
      "velocity": 1,
      "chip": "ym2612"
    },
    {
      "channel": 3,
      "note": 76,
      "start": 14.5963,
      "duration": 0.1494,
      "velocity": 1,
      "chip": "ym2612"
    },
    {
      "channel": 1,
      "note": 54,
      "start": 14.7455,
      "duration": 0.1494,
      "velocity": 1,
      "chip": "ym2612"
    },
    {
      "channel": 3,
      "note": 77,
      "start": 14.7463,
      "duration": 0.1494,
      "velocity": 1,
      "chip": "ym2612"
    },
    {
      "channel": 1,
      "note": 59,
      "start": 14.8955,
      "duration": 0.1522,
      "velocity": 1,
      "chip": "ym2612"
    },
    {
      "channel": 3,
      "note": 78,
      "start": 14.8963,
      "duration": 0.155,
      "velocity": 1,
      "chip": "ym2612"
    },
    {
      "channel": 1,
      "note": 54,
      "start": 15.0484,
      "duration": 0.1465,
      "velocity": 1,
      "chip": "ym2612"
    },
    {
      "channel": 3,
      "note": 75,
      "start": 15.0519,
      "duration": 0.1438,
      "velocity": 1,
      "chip": "ym2612"
    },
    {
      "channel": 1,
      "note": 57,
      "start": 15.1955,
      "duration": 0.1494,
      "velocity": 1,
      "chip": "ym2612"
    },
    {
      "channel": 3,
      "note": 76,
      "start": 15.1963,
      "duration": 0.1494,
      "velocity": 1,
      "chip": "ym2612"
    },
    {
      "channel": 1,
      "note": 54,
      "start": 15.3455,
      "duration": 0.1494,
      "velocity": 1,
      "chip": "ym2612"
    },
    {
      "channel": 3,
      "note": 77,
      "start": 15.3463,
      "duration": 0.1494,
      "velocity": 1,
      "chip": "ym2612"
    },
    {
      "channel": 1,
      "note": 59,
      "start": 15.4955,
      "duration": 0.1527,
      "velocity": 1,
      "chip": "ym2612"
    },
    {
      "channel": 3,
      "note": 78,
      "start": 15.4963,
      "duration": 0.1554,
      "velocity": 1,
      "chip": "ym2612"
    },
    {
      "channel": 0,
      "note": 83,
      "start": 15.6453,
      "duration": 3.5992,
      "velocity": 98,
      "chip": "ym2612"
    },
    {
      "channel": 1,
      "note": 54,
      "start": 15.6489,
      "duration": 0.1461,
      "velocity": 1,
      "chip": "ym2612"
    },
    {
      "channel": 3,
      "note": 75,
      "start": 15.6523,
      "duration": 0.1434,
      "velocity": 1,
      "chip": "ym2612"
    },
    {
      "channel": 4,
      "note": 83,
      "start": 15.6965,
      "duration": 3.5992,
      "velocity": 98,
      "chip": "ym2612"
    },
    {
      "channel": 1,
      "note": 57,
      "start": 15.7955,
      "duration": 0.1494,
      "velocity": 1,
      "chip": "ym2612"
    },
    {
      "channel": 3,
      "note": 76,
      "start": 15.7963,
      "duration": 0.1494,
      "velocity": 1,
      "chip": "ym2612"
    },
    {
      "channel": 1,
      "note": 54,
      "start": 15.9455,
      "duration": 0.1494,
      "velocity": 1,
      "chip": "ym2612"
    },
    {
      "channel": 3,
      "note": 77,
      "start": 15.9463,
      "duration": 0.1494,
      "velocity": 1,
      "chip": "ym2612"
    },
    {
      "channel": 1,
      "note": 59,
      "start": 16.0955,
      "duration": 0.1522,
      "velocity": 1,
      "chip": "ym2612"
    },
    {
      "channel": 3,
      "note": 78,
      "start": 16.0963,
      "duration": 0.155,
      "velocity": 1,
      "chip": "ym2612"
    },
    {
      "channel": 1,
      "note": 54,
      "start": 16.2484,
      "duration": 0.1465,
      "velocity": 1,
      "chip": "ym2612"
    },
    {
      "channel": 3,
      "note": 75,
      "start": 16.2519,
      "duration": 0.1438,
      "velocity": 1,
      "chip": "ym2612"
    },
    {
      "channel": 1,
      "note": 57,
      "start": 16.3955,
      "duration": 0.1494,
      "velocity": 1,
      "chip": "ym2612"
    },
    {
      "channel": 3,
      "note": 76,
      "start": 16.3963,
      "duration": 0.1494,
      "velocity": 1,
      "chip": "ym2612"
    },
    {
      "channel": 1,
      "note": 54,
      "start": 16.5455,
      "duration": 0.1494,
      "velocity": 1,
      "chip": "ym2612"
    },
    {
      "channel": 3,
      "note": 77,
      "start": 16.5463,
      "duration": 0.1494,
      "velocity": 1,
      "chip": "ym2612"
    },
    {
      "channel": 1,
      "note": 59,
      "start": 16.6955,
      "duration": 0.1527,
      "velocity": 1,
      "chip": "ym2612"
    },
    {
      "channel": 3,
      "note": 78,
      "start": 16.6963,
      "duration": 0.1554,
      "velocity": 1,
      "chip": "ym2612"
    },
    {
      "channel": 1,
      "note": 54,
      "start": 16.8488,
      "duration": 0.1461,
      "velocity": 1,
      "chip": "ym2612"
    },
    {
      "channel": 3,
      "note": 75,
      "start": 16.8523,
      "duration": 0.1434,
      "velocity": 1,
      "chip": "ym2612"
    },
    {
      "channel": 5,
      "note": 71,
      "start": 16.8535,
      "duration": 2.4021,
      "velocity": 98,
      "chip": "ym2612"
    },
    {
      "channel": 2,
      "note": 69,
      "start": 16.8543,
      "duration": 2.4049,
      "velocity": 98,
      "chip": "ym2612"
    },
    {
      "channel": 1,
      "note": 57,
      "start": 16.9955,
      "duration": 0.1494,
      "velocity": 1,
      "chip": "ym2612"
    },
    {
      "channel": 3,
      "note": 76,
      "start": 16.9963,
      "duration": 0.1494,
      "velocity": 1,
      "chip": "ym2612"
    },
    {
      "channel": 1,
      "note": 54,
      "start": 17.1455,
      "duration": 0.1494,
      "velocity": 1,
      "chip": "ym2612"
    },
    {
      "channel": 3,
      "note": 77,
      "start": 17.1463,
      "duration": 0.1494,
      "velocity": 1,
      "chip": "ym2612"
    },
    {
      "channel": 1,
      "note": 59,
      "start": 17.2955,
      "duration": 0.1522,
      "velocity": 1,
      "chip": "ym2612"
    },
    {
      "channel": 3,
      "note": 78,
      "start": 17.2963,
      "duration": 0.155,
      "velocity": 1,
      "chip": "ym2612"
    },
    {
      "channel": 1,
      "note": 54,
      "start": 17.4484,
      "duration": 0.1465,
      "velocity": 1,
      "chip": "ym2612"
    },
    {
      "channel": 3,
      "note": 75,
      "start": 17.4519,
      "duration": 0.1438,
      "velocity": 1,
      "chip": "ym2612"
    },
    {
      "channel": 1,
      "note": 57,
      "start": 17.5955,
      "duration": 0.1494,
      "velocity": 1,
      "chip": "ym2612"
    },
    {
      "channel": 3,
      "note": 76,
      "start": 17.5963,
      "duration": 0.1494,
      "velocity": 1,
      "chip": "ym2612"
    },
    {
      "channel": 1,
      "note": 54,
      "start": 17.7455,
      "duration": 0.1494,
      "velocity": 1,
      "chip": "ym2612"
    },
    {
      "channel": 3,
      "note": 77,
      "start": 17.7463,
      "duration": 0.1494,
      "velocity": 1,
      "chip": "ym2612"
    },
    {
      "channel": 1,
      "note": 59,
      "start": 17.8955,
      "duration": 0.1522,
      "velocity": 1,
      "chip": "ym2612"
    },
    {
      "channel": 3,
      "note": 78,
      "start": 17.8963,
      "duration": 0.155,
      "velocity": 1,
      "chip": "ym2612"
    },
    {
      "channel": 1,
      "note": 54,
      "start": 18.0484,
      "duration": 0.1465,
      "velocity": 1,
      "chip": "ym2612"
    },
    {
      "channel": 3,
      "note": 75,
      "start": 18.0519,
      "duration": 0.1438,
      "velocity": 1,
      "chip": "ym2612"
    },
    {
      "channel": 1,
      "note": 57,
      "start": 18.1955,
      "duration": 0.1494,
      "velocity": 1,
      "chip": "ym2612"
    },
    {
      "channel": 3,
      "note": 76,
      "start": 18.1963,
      "duration": 0.1494,
      "velocity": 1,
      "chip": "ym2612"
    },
    {
      "channel": 1,
      "note": 54,
      "start": 18.3455,
      "duration": 0.1494,
      "velocity": 1,
      "chip": "ym2612"
    },
    {
      "channel": 3,
      "note": 77,
      "start": 18.3463,
      "duration": 0.1494,
      "velocity": 1,
      "chip": "ym2612"
    },
    {
      "channel": 1,
      "note": 59,
      "start": 18.4955,
      "duration": 0.1522,
      "velocity": 1,
      "chip": "ym2612"
    },
    {
      "channel": 3,
      "note": 78,
      "start": 18.4963,
      "duration": 0.155,
      "velocity": 1,
      "chip": "ym2612"
    },
    {
      "channel": 1,
      "note": 54,
      "start": 18.6484,
      "duration": 0.1465,
      "velocity": 1,
      "chip": "ym2612"
    },
    {
      "channel": 3,
      "note": 75,
      "start": 18.6519,
      "duration": 0.1438,
      "velocity": 1,
      "chip": "ym2612"
    },
    {
      "channel": 1,
      "note": 57,
      "start": 18.7955,
      "duration": 0.1494,
      "velocity": 1,
      "chip": "ym2612"
    },
    {
      "channel": 3,
      "note": 76,
      "start": 18.7963,
      "duration": 0.1494,
      "velocity": 1,
      "chip": "ym2612"
    },
    {
      "channel": 1,
      "note": 54,
      "start": 18.9455,
      "duration": 0.1494,
      "velocity": 1,
      "chip": "ym2612"
    },
    {
      "channel": 3,
      "note": 77,
      "start": 18.9463,
      "duration": 0.1494,
      "velocity": 1,
      "chip": "ym2612"
    },
    {
      "channel": 1,
      "note": 59,
      "start": 19.0955,
      "duration": 0.1527,
      "velocity": 1,
      "chip": "ym2612"
    },
    {
      "channel": 3,
      "note": 78,
      "start": 19.0963,
      "duration": 0.1554,
      "velocity": 1,
      "chip": "ym2612"
    },
    {
      "channel": 0,
      "note": 78,
      "start": 19.2453,
      "duration": 3.8992,
      "velocity": 98,
      "chip": "ym2612"
    },
    {
      "channel": 1,
      "note": 54,
      "start": 19.2489,
      "duration": 0.1461,
      "velocity": 1,
      "chip": "ym2612"
    },
    {
      "channel": 3,
      "note": 75,
      "start": 19.2523,
      "duration": 0.1434,
      "velocity": 1,
      "chip": "ym2612"
    },
    {
      "channel": 5,
      "note": 66,
      "start": 19.2563,
      "duration": 2.3962,
      "velocity": 98,
      "chip": "ym2612"
    },
    {
      "channel": 2,
      "note": 68,
      "start": 19.2599,
      "duration": 2.3934,
      "velocity": 98,
      "chip": "ym2612"
    },
    {
      "channel": 4,
      "note": 78,
      "start": 19.2964,
      "duration": 3.8992,
      "velocity": 98,
      "chip": "ym2612"
    },
    {
      "channel": 1,
      "note": 57,
      "start": 19.3955,
      "duration": 0.1494,
      "velocity": 1,
      "chip": "ym2612"
    },
    {
      "channel": 3,
      "note": 76,
      "start": 19.3963,
      "duration": 0.1494,
      "velocity": 1,
      "chip": "ym2612"
    },
    {
      "channel": 1,
      "note": 54,
      "start": 19.5455,
      "duration": 0.1494,
      "velocity": 1,
      "chip": "ym2612"
    },
    {
      "channel": 3,
      "note": 77,
      "start": 19.5463,
      "duration": 0.1494,
      "velocity": 1,
      "chip": "ym2612"
    },
    {
      "channel": 1,
      "note": 59,
      "start": 19.6955,
      "duration": 0.1522,
      "velocity": 1,
      "chip": "ym2612"
    },
    {
      "channel": 3,
      "note": 78,
      "start": 19.6963,
      "duration": 0.155,
      "velocity": 1,
      "chip": "ym2612"
    },
    {
      "channel": 1,
      "note": 54,
      "start": 19.8484,
      "duration": 0.1465,
      "velocity": 1,
      "chip": "ym2612"
    },
    {
      "channel": 3,
      "note": 75,
      "start": 19.8519,
      "duration": 0.1438,
      "velocity": 1,
      "chip": "ym2612"
    },
    {
      "channel": 1,
      "note": 57,
      "start": 19.9955,
      "duration": 0.1494,
      "velocity": 1,
      "chip": "ym2612"
    },
    {
      "channel": 3,
      "note": 76,
      "start": 19.9963,
      "duration": 0.1494,
      "velocity": 1,
      "chip": "ym2612"
    },
    {
      "channel": 1,
      "note": 54,
      "start": 20.1455,
      "duration": 0.1494,
      "velocity": 1,
      "chip": "ym2612"
    },
    {
      "channel": 3,
      "note": 77,
      "start": 20.1463,
      "duration": 0.1494,
      "velocity": 1,
      "chip": "ym2612"
    },
    {
      "channel": 1,
      "note": 59,
      "start": 20.2955,
      "duration": 0.1522,
      "velocity": 1,
      "chip": "ym2612"
    },
    {
      "channel": 3,
      "note": 78,
      "start": 20.2963,
      "duration": 0.155,
      "velocity": 1,
      "chip": "ym2612"
    },
    {
      "channel": 1,
      "note": 54,
      "start": 20.4484,
      "duration": 0.1465,
      "velocity": 1,
      "chip": "ym2612"
    },
    {
      "channel": 3,
      "note": 75,
      "start": 20.4519,
      "duration": 0.1438,
      "velocity": 1,
      "chip": "ym2612"
    },
    {
      "channel": 1,
      "note": 57,
      "start": 20.5955,
      "duration": 0.1494,
      "velocity": 1,
      "chip": "ym2612"
    },
    {
      "channel": 3,
      "note": 76,
      "start": 20.5963,
      "duration": 0.1494,
      "velocity": 1,
      "chip": "ym2612"
    },
    {
      "channel": 1,
      "note": 54,
      "start": 20.7455,
      "duration": 0.1494,
      "velocity": 1,
      "chip": "ym2612"
    },
    {
      "channel": 3,
      "note": 77,
      "start": 20.7463,
      "duration": 0.1494,
      "velocity": 1,
      "chip": "ym2612"
    },
    {
      "channel": 1,
      "note": 59,
      "start": 20.8955,
      "duration": 0.1522,
      "velocity": 1,
      "chip": "ym2612"
    },
    {
      "channel": 3,
      "note": 78,
      "start": 20.8963,
      "duration": 0.155,
      "velocity": 1,
      "chip": "ym2612"
    },
    {
      "channel": 1,
      "note": 54,
      "start": 21.0484,
      "duration": 0.1465,
      "velocity": 1,
      "chip": "ym2612"
    },
    {
      "channel": 3,
      "note": 75,
      "start": 21.0519,
      "duration": 0.1438,
      "velocity": 1,
      "chip": "ym2612"
    },
    {
      "channel": 1,
      "note": 57,
      "start": 21.1955,
      "duration": 0.1494,
      "velocity": 1,
      "chip": "ym2612"
    },
    {
      "channel": 3,
      "note": 76,
      "start": 21.1963,
      "duration": 0.1494,
      "velocity": 1,
      "chip": "ym2612"
    },
    {
      "channel": 1,
      "note": 54,
      "start": 21.3455,
      "duration": 0.1494,
      "velocity": 1,
      "chip": "ym2612"
    },
    {
      "channel": 3,
      "note": 77,
      "start": 21.3463,
      "duration": 0.1494,
      "velocity": 1,
      "chip": "ym2612"
    },
    {
      "channel": 1,
      "note": 59,
      "start": 21.4955,
      "duration": 0.1522,
      "velocity": 1,
      "chip": "ym2612"
    },
    {
      "channel": 3,
      "note": 78,
      "start": 21.4963,
      "duration": 0.155,
      "velocity": 1,
      "chip": "ym2612"
    },
    {
      "channel": 1,
      "note": 54,
      "start": 21.6484,
      "duration": 0.1465,
      "velocity": 1,
      "chip": "ym2612"
    },
    {
      "channel": 3,
      "note": 75,
      "start": 21.6519,
      "duration": 0.1438,
      "velocity": 1,
      "chip": "ym2612"
    },
    {
      "channel": 5,
      "note": 71,
      "start": 21.6531,
      "duration": 2.4021,
      "velocity": 98,
      "chip": "ym2612"
    },
    {
      "channel": 2,
      "note": 69,
      "start": 21.6539,
      "duration": 2.4048,
      "velocity": 98,
      "chip": "ym2612"
    },
    {
      "channel": 1,
      "note": 57,
      "start": 21.7955,
      "duration": 0.1494,
      "velocity": 1,
      "chip": "ym2612"
    },
    {
      "channel": 3,
      "note": 76,
      "start": 21.7963,
      "duration": 0.1494,
      "velocity": 1,
      "chip": "ym2612"
    },
    {
      "channel": 1,
      "note": 54,
      "start": 21.9455,
      "duration": 0.1494,
      "velocity": 1,
      "chip": "ym2612"
    },
    {
      "channel": 3,
      "note": 77,
      "start": 21.9463,
      "duration": 0.1494,
      "velocity": 1,
      "chip": "ym2612"
    },
    {
      "channel": 1,
      "note": 59,
      "start": 22.0955,
      "duration": 0.1522,
      "velocity": 1,
      "chip": "ym2612"
    },
    {
      "channel": 3,
      "note": 78,
      "start": 22.0963,
      "duration": 0.155,
      "velocity": 1,
      "chip": "ym2612"
    },
    {
      "channel": 1,
      "note": 54,
      "start": 22.2484,
      "duration": 0.1465,
      "velocity": 1,
      "chip": "ym2612"
    },
    {
      "channel": 3,
      "note": 75,
      "start": 22.2519,
      "duration": 0.1438,
      "velocity": 1,
      "chip": "ym2612"
    },
    {
      "channel": 1,
      "note": 57,
      "start": 22.3955,
      "duration": 0.1494,
      "velocity": 1,
      "chip": "ym2612"
    },
    {
      "channel": 3,
      "note": 76,
      "start": 22.3963,
      "duration": 0.1494,
      "velocity": 1,
      "chip": "ym2612"
    },
    {
      "channel": 1,
      "note": 54,
      "start": 22.5455,
      "duration": 0.1494,
      "velocity": 1,
      "chip": "ym2612"
    },
    {
      "channel": 3,
      "note": 77,
      "start": 22.5463,
      "duration": 0.1494,
      "velocity": 1,
      "chip": "ym2612"
    },
    {
      "channel": 1,
      "note": 59,
      "start": 22.6955,
      "duration": 0.1522,
      "velocity": 1,
      "chip": "ym2612"
    },
    {
      "channel": 3,
      "note": 78,
      "start": 22.6963,
      "duration": 0.155,
      "velocity": 1,
      "chip": "ym2612"
    },
    {
      "channel": 1,
      "note": 54,
      "start": 22.8484,
      "duration": 0.1465,
      "velocity": 1,
      "chip": "ym2612"
    },
    {
      "channel": 3,
      "note": 75,
      "start": 22.8519,
      "duration": 0.1438,
      "velocity": 1,
      "chip": "ym2612"
    },
    {
      "channel": 1,
      "note": 57,
      "start": 22.9955,
      "duration": 0.1499,
      "velocity": 1,
      "chip": "ym2612"
    },
    {
      "channel": 3,
      "note": 76,
      "start": 22.9963,
      "duration": 0.1499,
      "velocity": 1,
      "chip": "ym2612"
    },
    {
      "channel": 0,
      "note": 76,
      "start": 23.1453,
      "duration": 0.5992,
      "velocity": 98,
      "chip": "ym2612"
    },
    {
      "channel": 1,
      "note": 54,
      "start": 23.146,
      "duration": 0.149,
      "velocity": 1,
      "chip": "ym2612"
    },
    {
      "channel": 3,
      "note": 77,
      "start": 23.1468,
      "duration": 0.1489,
      "velocity": 1,
      "chip": "ym2612"
    },
    {
      "channel": 4,
      "note": 76,
      "start": 23.1965,
      "duration": 0.5992,
      "velocity": 98,
      "chip": "ym2612"
    },
    {
      "channel": 1,
      "note": 59,
      "start": 23.2955,
      "duration": 0.1522,
      "velocity": 1,
      "chip": "ym2612"
    },
    {
      "channel": 3,
      "note": 78,
      "start": 23.2963,
      "duration": 0.155,
      "velocity": 1,
      "chip": "ym2612"
    },
    {
      "channel": 1,
      "note": 54,
      "start": 23.4484,
      "duration": 0.1465,
      "velocity": 1,
      "chip": "ym2612"
    },
    {
      "channel": 3,
      "note": 75,
      "start": 23.4519,
      "duration": 0.1438,
      "velocity": 1,
      "chip": "ym2612"
    },
    {
      "channel": 1,
      "note": 57,
      "start": 23.5955,
      "duration": 0.1499,
      "velocity": 1,
      "chip": "ym2612"
    },
    {
      "channel": 3,
      "note": 76,
      "start": 23.5963,
      "duration": 0.1499,
      "velocity": 1,
      "chip": "ym2612"
    },
    {
      "channel": 0,
      "note": 85,
      "start": 23.7453,
      "duration": 0.4492,
      "velocity": 98,
      "chip": "ym2612"
    },
    {
      "channel": 1,
      "note": 54,
      "start": 23.746,
      "duration": 0.1489,
      "velocity": 1,
      "chip": "ym2612"
    },
    {
      "channel": 3,
      "note": 77,
      "start": 23.7468,
      "duration": 0.1489,
      "velocity": 1,
      "chip": "ym2612"
    },
    {
      "channel": 4,
      "note": 85,
      "start": 23.7965,
      "duration": 0.4492,
      "velocity": 98,
      "chip": "ym2612"
    },
    {
      "channel": 1,
      "note": 59,
      "start": 23.8955,
      "duration": 0.1522,
      "velocity": 1,
      "chip": "ym2612"
    },
    {
      "channel": 3,
      "note": 78,
      "start": 23.8963,
      "duration": 0.155,
      "velocity": 1,
      "chip": "ym2612"
    },
    {
      "channel": 1,
      "note": 54,
      "start": 24.0484,
      "duration": 0.147,
      "velocity": 1,
      "chip": "ym2612"
    },
    {
      "channel": 3,
      "note": 75,
      "start": 24.0519,
      "duration": 0.1443,
      "velocity": 1,
      "chip": "ym2612"
    },
    {
      "channel": 5,
      "note": 66,
      "start": 24.0558,
      "duration": 2.3971,
      "velocity": 98,
      "chip": "ym2612"
    },
    {
      "channel": 2,
      "note": 68,
      "start": 24.0594,
      "duration": 2.3943,
      "velocity": 98,
      "chip": "ym2612"
    },
    {
      "channel": 0,
      "note": 73,
      "start": 24.1953,
      "duration": 4.6521,
      "velocity": 98,
      "chip": "ym2612"
    },
    {
      "channel": 1,
      "note": 57,
      "start": 24.196,
      "duration": 0.1489,
      "velocity": 1,
      "chip": "ym2612"
    },
    {
      "channel": 3,
      "note": 76,
      "start": 24.1968,
      "duration": 0.1489,
      "velocity": 1,
      "chip": "ym2612"
    },
    {
      "channel": 4,
      "note": 73,
      "start": 24.2465,
      "duration": 4.6682,
      "velocity": 98,
      "chip": "ym2612"
    },
    {
      "channel": 1,
      "note": 54,
      "start": 24.3455,
      "duration": 0.1494,
      "velocity": 1,
      "chip": "ym2612"
    },
    {
      "channel": 3,
      "note": 77,
      "start": 24.3463,
      "duration": 0.1494,
      "velocity": 1,
      "chip": "ym2612"
    },
    {
      "channel": 1,
      "note": 59,
      "start": 24.4955,
      "duration": 0.1522,
      "velocity": 1,
      "chip": "ym2612"
    },
    {
      "channel": 3,
      "note": 78,
      "start": 24.4963,
      "duration": 0.155,
      "velocity": 1,
      "chip": "ym2612"
    },
    {
      "channel": 1,
      "note": 54,
      "start": 24.6484,
      "duration": 0.1465,
      "velocity": 1,
      "chip": "ym2612"
    },
    {
      "channel": 3,
      "note": 75,
      "start": 24.6519,
      "duration": 0.1438,
      "velocity": 1,
      "chip": "ym2612"
    },
    {
      "channel": 1,
      "note": 57,
      "start": 24.7955,
      "duration": 0.1494,
      "velocity": 1,
      "chip": "ym2612"
    },
    {
      "channel": 3,
      "note": 76,
      "start": 24.7963,
      "duration": 0.1494,
      "velocity": 1,
      "chip": "ym2612"
    },
    {
      "channel": 1,
      "note": 54,
      "start": 24.9455,
      "duration": 0.1494,
      "velocity": 1,
      "chip": "ym2612"
    },
    {
      "channel": 3,
      "note": 77,
      "start": 24.9463,
      "duration": 0.1494,
      "velocity": 1,
      "chip": "ym2612"
    },
    {
      "channel": 1,
      "note": 59,
      "start": 25.0955,
      "duration": 0.1522,
      "velocity": 1,
      "chip": "ym2612"
    },
    {
      "channel": 3,
      "note": 78,
      "start": 25.0963,
      "duration": 0.155,
      "velocity": 1,
      "chip": "ym2612"
    },
    {
      "channel": 1,
      "note": 54,
      "start": 25.2484,
      "duration": 0.1466,
      "velocity": 1,
      "chip": "ym2612"
    },
    {
      "channel": 3,
      "note": 75,
      "start": 25.2519,
      "duration": 0.1438,
      "velocity": 1,
      "chip": "ym2612"
    },
    {
      "channel": 1,
      "note": 57,
      "start": 25.3955,
      "duration": 0.1494,
      "velocity": 1,
      "chip": "ym2612"
    },
    {
      "channel": 3,
      "note": 76,
      "start": 25.3963,
      "duration": 0.1494,
      "velocity": 1,
      "chip": "ym2612"
    },
    {
      "channel": 1,
      "note": 54,
      "start": 25.5455,
      "duration": 0.1494,
      "velocity": 1,
      "chip": "ym2612"
    },
    {
      "channel": 3,
      "note": 77,
      "start": 25.5463,
      "duration": 0.1494,
      "velocity": 1,
      "chip": "ym2612"
    },
    {
      "channel": 1,
      "note": 59,
      "start": 25.6955,
      "duration": 0.1522,
      "velocity": 1,
      "chip": "ym2612"
    },
    {
      "channel": 3,
      "note": 78,
      "start": 25.6963,
      "duration": 0.155,
      "velocity": 1,
      "chip": "ym2612"
    },
    {
      "channel": 1,
      "note": 54,
      "start": 25.8484,
      "duration": 0.1465,
      "velocity": 1,
      "chip": "ym2612"
    },
    {
      "channel": 3,
      "note": 75,
      "start": 25.8519,
      "duration": 0.1438,
      "velocity": 1,
      "chip": "ym2612"
    },
    {
      "channel": 1,
      "note": 57,
      "start": 25.9955,
      "duration": 0.1494,
      "velocity": 1,
      "chip": "ym2612"
    },
    {
      "channel": 3,
      "note": 76,
      "start": 25.9963,
      "duration": 0.1494,
      "velocity": 1,
      "chip": "ym2612"
    },
    {
      "channel": 1,
      "note": 54,
      "start": 26.1455,
      "duration": 0.1494,
      "velocity": 1,
      "chip": "ym2612"
    },
    {
      "channel": 3,
      "note": 77,
      "start": 26.1463,
      "duration": 0.1494,
      "velocity": 1,
      "chip": "ym2612"
    },
    {
      "channel": 1,
      "note": 59,
      "start": 26.2955,
      "duration": 0.1526,
      "velocity": 1,
      "chip": "ym2612"
    },
    {
      "channel": 3,
      "note": 78,
      "start": 26.2963,
      "duration": 0.1554,
      "velocity": 1,
      "chip": "ym2612"
    },
    {
      "channel": 1,
      "note": 54,
      "start": 26.4488,
      "duration": 0.1461,
      "velocity": 1,
      "chip": "ym2612"
    },
    {
      "channel": 3,
      "note": 75,
      "start": 26.4523,
      "duration": 0.1434,
      "velocity": 1,
      "chip": "ym2612"
    },
    {
      "channel": 5,
      "note": 71,
      "start": 26.4535,
      "duration": 2.4044,
      "velocity": 98,
      "chip": "ym2612"
    },
    {
      "channel": 2,
      "note": 69,
      "start": 26.4543,
      "duration": 2.4073,
      "velocity": 98,
      "chip": "ym2612"
    },
    {
      "channel": 1,
      "note": 57,
      "start": 26.5955,
      "duration": 0.1494,
      "velocity": 1,
      "chip": "ym2612"
    },
    {
      "channel": 3,
      "note": 76,
      "start": 26.5963,
      "duration": 0.1494,
      "velocity": 1,
      "chip": "ym2612"
    },
    {
      "channel": 1,
      "note": 54,
      "start": 26.7455,
      "duration": 0.1494,
      "velocity": 1,
      "chip": "ym2612"
    },
    {
      "channel": 3,
      "note": 77,
      "start": 26.7463,
      "duration": 0.1494,
      "velocity": 1,
      "chip": "ym2612"
    },
    {
      "channel": 1,
      "note": 59,
      "start": 26.8955,
      "duration": 0.1522,
      "velocity": 1,
      "chip": "ym2612"
    },
    {
      "channel": 3,
      "note": 78,
      "start": 26.8963,
      "duration": 0.155,
      "velocity": 1,
      "chip": "ym2612"
    },
    {
      "channel": 1,
      "note": 54,
      "start": 27.0484,
      "duration": 0.1465,
      "velocity": 1,
      "chip": "ym2612"
    },
    {
      "channel": 3,
      "note": 75,
      "start": 27.0519,
      "duration": 0.1438,
      "velocity": 1,
      "chip": "ym2612"
    },
    {
      "channel": 1,
      "note": 57,
      "start": 27.1955,
      "duration": 0.1494,
      "velocity": 1,
      "chip": "ym2612"
    },
    {
      "channel": 3,
      "note": 76,
      "start": 27.1963,
      "duration": 0.1494,
      "velocity": 1,
      "chip": "ym2612"
    },
    {
      "channel": 1,
      "note": 54,
      "start": 27.3455,
      "duration": 0.1494,
      "velocity": 1,
      "chip": "ym2612"
    },
    {
      "channel": 3,
      "note": 77,
      "start": 27.3463,
      "duration": 0.1494,
      "velocity": 1,
      "chip": "ym2612"
    },
    {
      "channel": 1,
      "note": 59,
      "start": 27.4955,
      "duration": 0.1522,
      "velocity": 1,
      "chip": "ym2612"
    },
    {
      "channel": 3,
      "note": 78,
      "start": 27.4963,
      "duration": 0.155,
      "velocity": 1,
      "chip": "ym2612"
    },
    {
      "channel": 1,
      "note": 54,
      "start": 27.6484,
      "duration": 0.1465,
      "velocity": 1,
      "chip": "ym2612"
    },
    {
      "channel": 3,
      "note": 75,
      "start": 27.6519,
      "duration": 0.1438,
      "velocity": 1,
      "chip": "ym2612"
    },
    {
      "channel": 1,
      "note": 57,
      "start": 27.7955,
      "duration": 0.1494,
      "velocity": 1,
      "chip": "ym2612"
    },
    {
      "channel": 3,
      "note": 76,
      "start": 27.7963,
      "duration": 0.1494,
      "velocity": 1,
      "chip": "ym2612"
    },
    {
      "channel": 1,
      "note": 54,
      "start": 27.9455,
      "duration": 0.1494,
      "velocity": 1,
      "chip": "ym2612"
    },
    {
      "channel": 3,
      "note": 77,
      "start": 27.9463,
      "duration": 0.1494,
      "velocity": 1,
      "chip": "ym2612"
    },
    {
      "channel": 1,
      "note": 59,
      "start": 28.0955,
      "duration": 0.1522,
      "velocity": 1,
      "chip": "ym2612"
    },
    {
      "channel": 3,
      "note": 78,
      "start": 28.0963,
      "duration": 0.155,
      "velocity": 1,
      "chip": "ym2612"
    },
    {
      "channel": 1,
      "note": 54,
      "start": 28.2484,
      "duration": 0.1465,
      "velocity": 1,
      "chip": "ym2612"
    },
    {
      "channel": 3,
      "note": 75,
      "start": 28.2519,
      "duration": 0.1438,
      "velocity": 1,
      "chip": "ym2612"
    },
    {
      "channel": 1,
      "note": 57,
      "start": 28.3955,
      "duration": 0.1494,
      "velocity": 1,
      "chip": "ym2612"
    },
    {
      "channel": 3,
      "note": 76,
      "start": 28.3963,
      "duration": 0.1494,
      "velocity": 1,
      "chip": "ym2612"
    },
    {
      "channel": 1,
      "note": 54,
      "start": 28.5455,
      "duration": 0.1494,
      "velocity": 1,
      "chip": "ym2612"
    },
    {
      "channel": 3,
      "note": 77,
      "start": 28.5463,
      "duration": 0.1494,
      "velocity": 1,
      "chip": "ym2612"
    },
    {
      "channel": 1,
      "note": 59,
      "start": 28.6955,
      "duration": 0.155,
      "velocity": 1,
      "chip": "ym2612"
    },
    {
      "channel": 3,
      "note": 78,
      "start": 28.6963,
      "duration": 0.1577,
      "velocity": 1,
      "chip": "ym2612"
    },
    {
      "channel": 1,
      "note": 54,
      "start": 28.8511,
      "duration": 0.1601,
      "velocity": 1,
      "chip": "ym2612"
    },
    {
      "channel": 3,
      "note": 75,
      "start": 28.8546,
      "duration": 0.1573,
      "velocity": 1,
      "chip": "ym2612"
    },
    {
      "channel": 5,
      "note": 66,
      "start": 28.8586,
      "duration": 2.41,
      "velocity": 98,
      "chip": "ym2612"
    },
    {
      "channel": 2,
      "note": 68,
      "start": 28.8622,
      "duration": 2.4071,
      "velocity": 98,
      "chip": "ym2612"
    },
    {
      "channel": 1,
      "note": 57,
      "start": 29.0118,
      "duration": 0.1494,
      "velocity": 1,
      "chip": "ym2612"
    },
    {
      "channel": 3,
      "note": 76,
      "start": 29.0126,
      "duration": 0.1494,
      "velocity": 1,
      "chip": "ym2612"
    },
    {
      "channel": 1,
      "note": 54,
      "start": 29.1618,
      "duration": 0.1494,
      "velocity": 1,
      "chip": "ym2612"
    },
    {
      "channel": 3,
      "note": 77,
      "start": 29.1626,
      "duration": 0.1494,
      "velocity": 1,
      "chip": "ym2612"
    },
    {
      "channel": 1,
      "note": 59,
      "start": 29.3118,
      "duration": 0.1522,
      "velocity": 1,
      "chip": "ym2612"
    },
    {
      "channel": 3,
      "note": 78,
      "start": 29.3126,
      "duration": 0.1549,
      "velocity": 1,
      "chip": "ym2612"
    },
    {
      "channel": 1,
      "note": 54,
      "start": 29.4647,
      "duration": 0.1465,
      "velocity": 1,
      "chip": "ym2612"
    },
    {
      "channel": 3,
      "note": 75,
      "start": 29.4681,
      "duration": 0.1438,
      "velocity": 1,
      "chip": "ym2612"
    },
    {
      "channel": 1,
      "note": 57,
      "start": 29.6118,
      "duration": 0.1494,
      "velocity": 1,
      "chip": "ym2612"
    },
    {
      "channel": 3,
      "note": 76,
      "start": 29.6126,
      "duration": 0.1494,
      "velocity": 1,
      "chip": "ym2612"
    },
    {
      "channel": 1,
      "note": 54,
      "start": 29.7618,
      "duration": 0.1494,
      "velocity": 1,
      "chip": "ym2612"
    },
    {
      "channel": 3,
      "note": 77,
      "start": 29.7626,
      "duration": 0.1494,
      "velocity": 1,
      "chip": "ym2612"
    },
    {
      "channel": 1,
      "note": 59,
      "start": 29.9118,
      "duration": 0.1522,
      "velocity": 1,
      "chip": "ym2612"
    },
    {
      "channel": 3,
      "note": 78,
      "start": 29.9126,
      "duration": 0.1549,
      "velocity": 1,
      "chip": "ym2612"
    },
    {
      "channel": 1,
      "note": 54,
      "start": 30.0647,
      "duration": 0.1465,
      "velocity": 1,
      "chip": "ym2612"
    },
    {
      "channel": 3,
      "note": 75,
      "start": 30.0681,
      "duration": 0.1438,
      "velocity": 1,
      "chip": "ym2612"
    },
    {
      "channel": 1,
      "note": 57,
      "start": 30.2118,
      "duration": 0.1494,
      "velocity": 1,
      "chip": "ym2612"
    },
    {
      "channel": 3,
      "note": 76,
      "start": 30.2126,
      "duration": 0.1494,
      "velocity": 1,
      "chip": "ym2612"
    },
    {
      "channel": 1,
      "note": 54,
      "start": 30.3618,
      "duration": 0.1494,
      "velocity": 1,
      "chip": "ym2612"
    },
    {
      "channel": 3,
      "note": 77,
      "start": 30.3626,
      "duration": 0.1494,
      "velocity": 1,
      "chip": "ym2612"
    },
    {
      "channel": 1,
      "note": 59,
      "start": 30.5118,
      "duration": 0.1522,
      "velocity": 1,
      "chip": "ym2612"
    },
    {
      "channel": 3,
      "note": 78,
      "start": 30.5126,
      "duration": 0.1549,
      "velocity": 1,
      "chip": "ym2612"
    },
    {
      "channel": 1,
      "note": 54,
      "start": 30.6647,
      "duration": 0.1465,
      "velocity": 1,
      "chip": "ym2612"
    },
    {
      "channel": 3,
      "note": 75,
      "start": 30.6681,
      "duration": 0.1438,
      "velocity": 1,
      "chip": "ym2612"
    },
    {
      "channel": 1,
      "note": 57,
      "start": 30.8118,
      "duration": 0.1494,
      "velocity": 1,
      "chip": "ym2612"
    },
    {
      "channel": 3,
      "note": 76,
      "start": 30.8126,
      "duration": 0.1494,
      "velocity": 1,
      "chip": "ym2612"
    },
    {
      "channel": 1,
      "note": 54,
      "start": 30.9617,
      "duration": 0.1494,
      "velocity": 1,
      "chip": "ym2612"
    },
    {
      "channel": 3,
      "note": 77,
      "start": 30.9626,
      "duration": 0.1494,
      "velocity": 1,
      "chip": "ym2612"
    },
    {
      "channel": 1,
      "note": 59,
      "start": 31.1118,
      "duration": 0.1525,
      "velocity": 1,
      "chip": "ym2612"
    },
    {
      "channel": 3,
      "note": 78,
      "start": 31.1126,
      "duration": 0.1552,
      "velocity": 1,
      "chip": "ym2612"
    },
    {
      "channel": 1,
      "note": 54,
      "start": 31.2649,
      "duration": 0.1463,
      "velocity": 1,
      "chip": "ym2612"
    },
    {
      "channel": 3,
      "note": 75,
      "start": 31.2684,
      "duration": 0.1436,
      "velocity": 1,
      "chip": "ym2612"
    },
    {
      "channel": 5,
      "note": 71,
      "start": 31.2693,
      "duration": 2.402,
      "velocity": 98,
      "chip": "ym2612"
    },
    {
      "channel": 2,
      "note": 69,
      "start": 31.2701,
      "duration": 2.4049,
      "velocity": 98,
      "chip": "ym2612"
    },
    {
      "channel": 1,
      "note": 57,
      "start": 31.4118,
      "duration": 0.1494,
      "velocity": 1,
      "chip": "ym2612"
    },
    {
      "channel": 3,
      "note": 76,
      "start": 31.4126,
      "duration": 0.1494,
      "velocity": 1,
      "chip": "ym2612"
    },
    {
      "channel": 1,
      "note": 54,
      "start": 31.5618,
      "duration": 0.1494,
      "velocity": 1,
      "chip": "ym2612"
    },
    {
      "channel": 3,
      "note": 77,
      "start": 31.5626,
      "duration": 0.1494,
      "velocity": 1,
      "chip": "ym2612"
    },
    {
      "channel": 1,
      "note": 59,
      "start": 31.7118,
      "duration": 0.1522,
      "velocity": 1,
      "chip": "ym2612"
    },
    {
      "channel": 3,
      "note": 78,
      "start": 31.7126,
      "duration": 0.1549,
      "velocity": 1,
      "chip": "ym2612"
    },
    {
      "channel": 1,
      "note": 54,
      "start": 31.8647,
      "duration": 0.1465,
      "velocity": 1,
      "chip": "ym2612"
    },
    {
      "channel": 3,
      "note": 75,
      "start": 31.8681,
      "duration": 0.1438,
      "velocity": 1,
      "chip": "ym2612"
    },
    {
      "channel": 1,
      "note": 57,
      "start": 32.0118,
      "duration": 0.1494,
      "velocity": 1,
      "chip": "ym2612"
    },
    {
      "channel": 3,
      "note": 76,
      "start": 32.0126,
      "duration": 0.1494,
      "velocity": 1,
      "chip": "ym2612"
    },
    {
      "channel": 1,
      "note": 54,
      "start": 32.1618,
      "duration": 0.1494,
      "velocity": 1,
      "chip": "ym2612"
    },
    {
      "channel": 3,
      "note": 77,
      "start": 32.1626,
      "duration": 0.1494,
      "velocity": 1,
      "chip": "ym2612"
    },
    {
      "channel": 1,
      "note": 59,
      "start": 32.3118,
      "duration": 0.1522,
      "velocity": 1,
      "chip": "ym2612"
    },
    {
      "channel": 3,
      "note": 78,
      "start": 32.3126,
      "duration": 0.1549,
      "velocity": 1,
      "chip": "ym2612"
    },
    {
      "channel": 1,
      "note": 54,
      "start": 32.4647,
      "duration": 0.1465,
      "velocity": 1,
      "chip": "ym2612"
    },
    {
      "channel": 3,
      "note": 75,
      "start": 32.4681,
      "duration": 0.1438,
      "velocity": 1,
      "chip": "ym2612"
    },
    {
      "channel": 1,
      "note": 57,
      "start": 32.6118,
      "duration": 0.1494,
      "velocity": 1,
      "chip": "ym2612"
    },
    {
      "channel": 3,
      "note": 76,
      "start": 32.6126,
      "duration": 0.1494,
      "velocity": 1,
      "chip": "ym2612"
    },
    {
      "channel": 1,
      "note": 54,
      "start": 32.7618,
      "duration": 0.1494,
      "velocity": 1,
      "chip": "ym2612"
    },
    {
      "channel": 3,
      "note": 77,
      "start": 32.7626,
      "duration": 0.1494,
      "velocity": 1,
      "chip": "ym2612"
    },
    {
      "channel": 1,
      "note": 59,
      "start": 32.9118,
      "duration": 0.1522,
      "velocity": 1,
      "chip": "ym2612"
    },
    {
      "channel": 3,
      "note": 78,
      "start": 32.9126,
      "duration": 0.1549,
      "velocity": 1,
      "chip": "ym2612"
    },
    {
      "channel": 1,
      "note": 54,
      "start": 33.0647,
      "duration": 0.1465,
      "velocity": 1,
      "chip": "ym2612"
    },
    {
      "channel": 3,
      "note": 75,
      "start": 33.0681,
      "duration": 0.1438,
      "velocity": 1,
      "chip": "ym2612"
    },
    {
      "channel": 1,
      "note": 57,
      "start": 33.2118,
      "duration": 0.1494,
      "velocity": 1,
      "chip": "ym2612"
    },
    {
      "channel": 3,
      "note": 76,
      "start": 33.2126,
      "duration": 0.1494,
      "velocity": 1,
      "chip": "ym2612"
    },
    {
      "channel": 1,
      "note": 54,
      "start": 33.3618,
      "duration": 0.1494,
      "velocity": 1,
      "chip": "ym2612"
    },
    {
      "channel": 3,
      "note": 77,
      "start": 33.3626,
      "duration": 0.1494,
      "velocity": 1,
      "chip": "ym2612"
    },
    {
      "channel": 1,
      "note": 59,
      "start": 33.5118,
      "duration": 0.1525,
      "velocity": 1,
      "chip": "ym2612"
    },
    {
      "channel": 3,
      "note": 78,
      "start": 33.5126,
      "duration": 0.1552,
      "velocity": 1,
      "chip": "ym2612"
    },
    {
      "channel": 1,
      "note": 54,
      "start": 33.6649,
      "duration": 0.1463,
      "velocity": 1,
      "chip": "ym2612"
    },
    {
      "channel": 3,
      "note": 75,
      "start": 33.6684,
      "duration": 0.1436,
      "velocity": 1,
      "chip": "ym2612"
    },
    {
      "channel": 5,
      "note": 66,
      "start": 33.6719,
      "duration": 0.4142,
      "velocity": 98,
      "chip": "ym2612"
    },
    {
      "channel": 2,
      "note": 68,
      "start": 33.6756,
      "duration": 0.4106,
      "velocity": 98,
      "chip": "ym2612"
    },
    {
      "channel": 1,
      "note": 57,
      "start": 33.8118,
      "duration": 0.1494,
      "velocity": 1,
      "chip": "ym2612"
    },
    {
      "channel": 3,
      "note": 76,
      "start": 33.8126,
      "duration": 0.1494,
      "velocity": 1,
      "chip": "ym2612"
    },
    {
      "channel": 1,
      "note": 54,
      "start": 33.9617,
      "duration": 0.1244,
      "velocity": 1,
      "chip": "ym2612"
    },
    {
      "channel": 3,
      "note": 77,
      "start": 33.9626,
      "duration": 0.1236,
      "velocity": 1,
      "chip": "ym2612"
    }
  ]
}