{
  "track_name": "07 - Messenger from the Dark",
  "duration_sec": 44.806,
  "sample_rate": 44100,
  "note_count": 371,
  "unique_pitches": 20,
  "pitch_range": 41,
  "avg_note_duration": 0.5815,
  "reconstruction_stats": {
    "notes_reconstructed": 371,
    "keyon_events": 371,
    "keyoff_events": 366,
    "orphan_keyons": 5,
    "unique_pitches": 20,
    "pitch_range": 41,
    "avg_duration_sec": 0.5815
  },
  "metadata": {
    "source": "V\\Virtua Fighter 2\\07 - Messenger from the Dark.vgz"
  },
  "notes": [
    {
      "channel": 0,
      "note": 48,
      "start": 0.0,
      "duration": 0.0494,
      "velocity": 83,
      "chip": "ym2612"
    },
    {
      "channel": 1,
      "note": 60,
      "start": 0.0024,
      "duration": 0.8305,
      "velocity": 101,
      "chip": "ym2612"
    },
    {
      "channel": 2,
      "note": 60,
      "start": 0.0049,
      "duration": 0.0616,
      "velocity": 78,
      "chip": "ym2612"
    },
    {
      "channel": 3,
      "note": 72,
      "start": 0.0074,
      "duration": 0.8261,
      "velocity": 101,
      "chip": "ym2612"
    },
    {
      "channel": 4,
      "note": 60,
      "start": 0.0099,
      "duration": 0.8239,
      "velocity": 101,
      "chip": "ym2612"
    },
    {
      "channel": 0,
      "note": 48,
      "start": 0.0661,
      "duration": 0.0405,
      "velocity": 83,
      "chip": "ym2612"
    },
    {
      "channel": 2,
      "note": 60,
      "start": 0.0671,
      "duration": 0.0596,
      "velocity": 78,
      "chip": "ym2612"
    },
    {
      "channel": 2,
      "note": 72,
      "start": 0.1272,
      "duration": 0.0542,
      "velocity": 78,
      "chip": "ym2612"
    },
    {
      "channel": 2,
      "note": 60,
      "start": 0.1819,
      "duration": 0.0514,
      "velocity": 78,
      "chip": "ym2612"
    },
    {
      "channel": 0,
      "note": 48,
      "start": 0.233,
      "duration": 0.0427,
      "velocity": 83,
      "chip": "ym2612"
    },
    {
      "channel": 2,
      "note": 70,
      "start": 0.2339,
      "duration": 0.0585,
      "velocity": 78,
      "chip": "ym2612"
    },
    {
      "channel": 0,
      "note": 48,
      "start": 0.2921,
      "duration": 0.0377,
      "velocity": 83,
      "chip": "ym2612"
    },
    {
      "channel": 2,
      "note": 60,
      "start": 0.293,
      "duration": 0.0568,
      "velocity": 78,
      "chip": "ym2612"
    },
    {
      "channel": 2,
      "note": 68,
      "start": 0.3503,
      "duration": 0.0545,
      "velocity": 78,
      "chip": "ym2612"
    },
    {
      "channel": 2,
      "note": 60,
      "start": 0.4054,
      "duration": 0.0517,
      "velocity": 78,
      "chip": "ym2612"
    },
    {
      "channel": 0,
      "note": 48,
      "start": 0.4563,
      "duration": 0.0388,
      "velocity": 83,
      "chip": "ym2612"
    },
    {
      "channel": 2,
      "note": 67,
      "start": 0.4576,
      "duration": 0.0583,
      "velocity": 78,
      "chip": "ym2612"
    },
    {
      "channel": 0,
      "note": 48,
      "start": 0.5154,
      "duration": 0.0376,
      "velocity": 83,
      "chip": "ym2612"
    },
    {
      "channel": 2,
      "note": 60,
      "start": 0.5164,
      "duration": 0.0567,
      "velocity": 78,
      "chip": "ym2612"
    },
    {
      "channel": 2,
      "note": 68,
      "start": 0.5736,
      "duration": 0.0504,
      "velocity": 78,
      "chip": "ym2612"
    },
    {
      "channel": 2,
      "note": 60,
      "start": 0.6245,
      "duration": 0.0556,
      "velocity": 78,
      "chip": "ym2612"
    },
    {
      "channel": 0,
      "note": 48,
      "start": 0.6796,
      "duration": 0.0403,
      "velocity": 83,
      "chip": "ym2612"
    },
    {
      "channel": 2,
      "note": 70,
      "start": 0.6806,
      "duration": 0.0601,
      "velocity": 78,
      "chip": "ym2612"
    },
    {
      "channel": 0,
      "note": 48,
      "start": 0.7403,
      "duration": 0.0376,
      "velocity": 83,
      "chip": "ym2612"
    },
    {
      "channel": 2,
      "note": 60,
      "start": 0.7412,
      "duration": 0.0567,
      "velocity": 78,
      "chip": "ym2612"
    },
    {
      "channel": 2,
      "note": 72,
      "start": 0.7984,
      "duration": 0.0495,
      "velocity": 78,
      "chip": "ym2612"
    },
    {
      "channel": 1,
      "note": 60,
      "start": 0.8478,
      "duration": 0.0585,
      "velocity": 101,
      "chip": "ym2612"
    },
    {
      "channel": 2,
      "note": 60,
      "start": 0.8485,
      "duration": 0.0585,
      "velocity": 78,
      "chip": "ym2612"
    },
    {
      "channel": 3,
      "note": 72,
      "start": 0.8492,
      "duration": 0.0585,
      "velocity": 101,
      "chip": "ym2612"
    },
    {
      "channel": 4,
      "note": 60,
      "start": 0.8499,
      "duration": 0.0585,
      "velocity": 101,
      "chip": "ym2612"
    },
    {
      "channel": 0,
      "note": 48,
      "start": 0.9062,
      "duration": 0.0424,
      "velocity": 83,
      "chip": "ym2612"
    },
    {
      "channel": 1,
      "note": 63,
      "start": 0.9069,
      "duration": 0.0627,
      "velocity": 101,
      "chip": "ym2612"
    },
    {
      "channel": 2,
      "note": 60,
      "start": 0.9075,
      "duration": 0.0627,
      "velocity": 78,
      "chip": "ym2612"
    },
    {
      "channel": 3,
      "note": 75,
      "start": 0.9082,
      "duration": 0.0627,
      "velocity": 101,
      "chip": "ym2612"
    },
    {
      "channel": 4,
      "note": 63,
      "start": 0.9088,
      "duration": 0.0627,
      "velocity": 101,
      "chip": "ym2612"
    },
    {
      "channel": 0,
      "note": 48,
      "start": 0.9695,
      "duration": 0.0397,
      "velocity": 83,
      "chip": "ym2612"
    },
    {
      "channel": 1,
      "note": 65,
      "start": 0.9701,
      "duration": 0.7644,
      "velocity": 101,
      "chip": "ym2612"
    },
    {
      "channel": 2,
      "note": 60,
      "start": 0.9707,
      "duration": 0.055,
      "velocity": 78,
      "chip": "ym2612"
    },
    {
      "channel": 3,
      "note": 77,
      "start": 0.9715,
      "duration": 0.7636,
      "velocity": 101,
      "chip": "ym2612"
    },
    {
      "channel": 4,
      "note": 65,
      "start": 0.9722,
      "duration": 0.7632,
      "velocity": 101,
      "chip": "ym2612"
    },
    {
      "channel": 2,
      "note": 72,
      "start": 1.0263,
      "duration": 0.0545,
      "velocity": 78,
      "chip": "ym2612"
    },
    {
      "channel": 2,
      "note": 60,
      "start": 1.0814,
      "duration": 0.0559,
      "velocity": 78,
      "chip": "ym2612"
    },
    {
      "channel": 0,
      "note": 48,
      "start": 1.1368,
      "duration": 0.0402,
      "velocity": 83,
      "chip": "ym2612"
    },
    {
      "channel": 2,
      "note": 70,
      "start": 1.1377,
      "duration": 0.0602,
      "velocity": 78,
      "chip": "ym2612"
    },
    {
      "channel": 0,
      "note": 48,
      "start": 1.1975,
      "duration": 0.0375,
      "velocity": 83,
      "chip": "ym2612"
    },
    {
      "channel": 2,
      "note": 60,
      "start": 1.1984,
      "duration": 0.0527,
      "velocity": 78,
      "chip": "ym2612"
    },
    {
      "channel": 2,
      "note": 68,
      "start": 1.2517,
      "duration": 0.0544,
      "velocity": 78,
      "chip": "ym2612"
    },
    {
      "channel": 2,
      "note": 60,
      "start": 1.3065,
      "duration": 0.0559,
      "velocity": 78,
      "chip": "ym2612"
    },
    {
      "channel": 0,
      "note": 48,
      "start": 1.3617,
      "duration": 0.0388,
      "velocity": 83,
      "chip": "ym2612"
    },
    {
      "channel": 2,
      "note": 67,
      "start": 1.363,
      "duration": 0.0544,
      "velocity": 78,
      "chip": "ym2612"
    },
    {
      "channel": 0,
      "note": 48,
      "start": 1.4169,
      "duration": 0.0416,
      "velocity": 83,
      "chip": "ym2612"
    },
    {
      "channel": 2,
      "note": 60,
      "start": 1.4179,
      "duration": 0.0567,
      "velocity": 78,
      "chip": "ym2612"
    },
    {
      "channel": 2,
      "note": 68,
      "start": 1.4751,
      "duration": 0.0544,
      "velocity": 78,
      "chip": "ym2612"
    },
    {
      "channel": 2,
      "note": 60,
      "start": 1.53,
      "duration": 0.0556,
      "velocity": 78,
      "chip": "ym2612"
    },
    {
      "channel": 0,
      "note": 48,
      "start": 1.5852,
      "duration": 0.0401,
      "velocity": 83,
      "chip": "ym2612"
    },
    {
      "channel": 2,
      "note": 70,
      "start": 1.5862,
      "duration": 0.0559,
      "velocity": 78,
      "chip": "ym2612"
    },
    {
      "channel": 0,
      "note": 48,
      "start": 1.6417,
      "duration": 0.0377,
      "velocity": 83,
      "chip": "ym2612"
    },
    {
      "channel": 2,
      "note": 60,
      "start": 1.6427,
      "duration": 0.0568,
      "velocity": 78,
      "chip": "ym2612"
    },
    {
      "channel": 2,
      "note": 72,
      "start": 1.7,
      "duration": 0.0546,
      "velocity": 78,
      "chip": "ym2612"
    },
    {
      "channel": 1,
      "note": 65,
      "start": 1.7544,
      "duration": 0.0542,
      "velocity": 101,
      "chip": "ym2612"
    },
    {
      "channel": 2,
      "note": 60,
      "start": 1.7551,
      "duration": 0.0543,
      "velocity": 78,
      "chip": "ym2612"
    },
    {
      "channel": 3,
      "note": 77,
      "start": 1.7558,
      "duration": 0.0542,
      "velocity": 101,
      "chip": "ym2612"
    },
    {
      "channel": 4,
      "note": 65,
      "start": 1.7565,
      "duration": 0.0542,
      "velocity": 101,
      "chip": "ym2612"
    },
    {
      "channel": 0,
      "note": 48,
      "start": 1.8085,
      "duration": 0.0436,
      "velocity": 83,
      "chip": "ym2612"
    },
    {
      "channel": 1,
      "note": 60,
      "start": 1.8093,
      "duration": 0.8328,
      "velocity": 101,
      "chip": "ym2612"
    },
    {
      "channel": 2,
      "note": 60,
      "start": 1.8099,
      "duration": 0.0602,
      "velocity": 78,
      "chip": "ym2612"
    },
    {
      "channel": 3,
      "note": 72,
      "start": 1.8106,
      "duration": 0.832,
      "velocity": 101,
      "chip": "ym2612"
    },
    {
      "channel": 4,
      "note": 60,
      "start": 1.8112,
      "duration": 0.8317,
      "velocity": 101,
      "chip": "ym2612"
    },
    {
      "channel": 0,
      "note": 48,
      "start": 1.8697,
      "duration": 0.0407,
      "velocity": 83,
      "chip": "ym2612"
    },
    {
      "channel": 2,
      "note": 60,
      "start": 1.8706,
      "duration": 0.0598,
      "velocity": 78,
      "chip": "ym2612"
    },
    {
      "channel": 2,
      "note": 72,
      "start": 1.9309,
      "duration": 0.0544,
      "velocity": 78,
      "chip": "ym2612"
    },
    {
      "channel": 2,
      "note": 60,
      "start": 1.9859,
      "duration": 0.0515,
      "velocity": 78,
      "chip": "ym2612"
    },
    {
      "channel": 0,
      "note": 48,
      "start": 2.037,
      "duration": 0.0402,
      "velocity": 83,
      "chip": "ym2612"
    },
    {
      "channel": 2,
      "note": 70,
      "start": 2.038,
      "duration": 0.06,
      "velocity": 78,
      "chip": "ym2612"
    },
    {
      "channel": 0,
      "note": 48,
      "start": 2.0976,
      "duration": 0.0375,
      "velocity": 83,
      "chip": "ym2612"
    },
    {
      "channel": 2,
      "note": 60,
      "start": 2.0986,
      "duration": 0.0566,
      "velocity": 78,
      "chip": "ym2612"
    },
    {
      "channel": 2,
      "note": 68,
      "start": 2.1557,
      "duration": 0.0532,
      "velocity": 78,
      "chip": "ym2612"
    },
    {
      "channel": 2,
      "note": 60,
      "start": 2.2094,
      "duration": 0.0559,
      "velocity": 78,
      "chip": "ym2612"
    },
    {
      "channel": 0,
      "note": 48,
      "start": 2.2645,
      "duration": 0.0388,
      "velocity": 83,
      "chip": "ym2612"
    },
    {
      "channel": 2,
      "note": 67,
      "start": 2.2659,
      "duration": 0.0582,
      "velocity": 78,
      "chip": "ym2612"
    },
    {
      "channel": 0,
      "note": 48,
      "start": 2.3237,
      "duration": 0.0376,
      "velocity": 83,
      "chip": "ym2612"
    },
    {
      "channel": 2,
      "note": 60,
      "start": 2.3246,
      "duration": 0.0567,
      "velocity": 78,
      "chip": "ym2612"
    },
    {
      "channel": 2,
      "note": 68,
      "start": 2.3818,
      "duration": 0.0503,
      "velocity": 78,
      "chip": "ym2612"
    },
    {
      "channel": 2,
      "note": 60,
      "start": 2.4327,
      "duration": 0.0553,
      "velocity": 78,
      "chip": "ym2612"
    },
    {
      "channel": 0,
      "note": 48,
      "start": 2.4876,
      "duration": 0.0386,
      "velocity": 83,
      "chip": "ym2612"
    },
    {
      "channel": 2,
      "note": 70,
      "start": 2.4886,
      "duration": 0.0584,
      "velocity": 78,
      "chip": "ym2612"
    },
    {
      "channel": 0,
      "note": 48,
      "start": 2.5466,
      "duration": 0.0404,
      "velocity": 83,
      "chip": "ym2612"
    },
    {
      "channel": 2,
      "note": 60,
      "start": 2.5476,
      "duration": 0.0555,
      "velocity": 78,
      "chip": "ym2612"
    },
    {
      "channel": 2,
      "note": 72,
      "start": 2.6036,
      "duration": 0.0538,
      "velocity": 78,
      "chip": "ym2612"
    },
    {
      "channel": 1,
      "note": 60,
      "start": 2.6572,
      "duration": 0.0584,
      "velocity": 101,
      "chip": "ym2612"
    },
    {
      "channel": 2,
      "note": 60,
      "start": 2.6579,
      "duration": 0.0585,
      "velocity": 78,
      "chip": "ym2612"
    },
    {
      "channel": 3,
      "note": 72,
      "start": 2.6586,
      "duration": 0.0584,
      "velocity": 101,
      "chip": "ym2612"
    },
    {
      "channel": 4,
      "note": 60,
      "start": 2.6593,
      "duration": 0.0584,
      "velocity": 101,
      "chip": "ym2612"
    },
    {
      "channel": 0,
      "note": 48,
      "start": 2.7155,
      "duration": 0.0423,
      "velocity": 83,
      "chip": "ym2612"
    },
    {
      "channel": 1,
      "note": 63,
      "start": 2.7162,
      "duration": 0.0626,
      "velocity": 101,
      "chip": "ym2612"
    },
    {
      "channel": 2,
      "note": 60,
      "start": 2.7169,
      "duration": 0.0626,
      "velocity": 78,
      "chip": "ym2612"
    },
    {
      "channel": 3,
      "note": 75,
      "start": 2.7176,
      "duration": 0.0626,
      "velocity": 101,
      "chip": "ym2612"
    },
    {
      "channel": 4,
      "note": 63,
      "start": 2.7182,
      "duration": 0.0626,
      "velocity": 101,
      "chip": "ym2612"
    },
    {
      "channel": 0,
      "note": 48,
      "start": 2.7787,
      "duration": 0.0398,
      "velocity": 83,
      "chip": "ym2612"
    },
    {
      "channel": 1,
      "note": 65,
      "start": 2.7793,
      "duration": 0.8354,
      "velocity": 101,
      "chip": "ym2612"
    },
    {
      "channel": 2,
      "note": 60,
      "start": 2.7799,
      "duration": 0.055,
      "velocity": 78,
      "chip": "ym2612"
    },
    {
      "channel": 3,
      "note": 77,
      "start": 2.7806,
      "duration": 0.8346,
      "velocity": 101,
      "chip": "ym2612"
    },
    {
      "channel": 4,
      "note": 65,
      "start": 2.7813,
      "duration": 0.8342,
      "velocity": 101,
      "chip": "ym2612"
    },
    {
      "channel": 2,
      "note": 72,
      "start": 2.8356,
      "duration": 0.0545,
      "velocity": 78,
      "chip": "ym2612"
    },
    {
      "channel": 2,
      "note": 60,
      "start": 2.8906,
      "duration": 0.0559,
      "velocity": 78,
      "chip": "ym2612"
    },
    {
      "channel": 0,
      "note": 48,
      "start": 2.946,
      "duration": 0.0373,
      "velocity": 83,
      "chip": "ym2612"
    },
    {
      "channel": 2,
      "note": 70,
      "start": 2.9469,
      "duration": 0.0546,
      "velocity": 78,
      "chip": "ym2612"
    },
    {
      "channel": 0,
      "note": 48,
      "start": 3.001,
      "duration": 0.0418,
      "velocity": 83,
      "chip": "ym2612"
    },
    {
      "channel": 2,
      "note": 60,
      "start": 3.002,
      "duration": 0.0574,
      "velocity": 78,
      "chip": "ym2612"
    },
    {
      "channel": 2,
      "note": 68,
      "start": 3.0599,
      "duration": 0.0579,
      "velocity": 78,
      "chip": "ym2612"
    },
    {
      "channel": 2,
      "note": 60,
      "start": 3.1184,
      "duration": 0.0588,
      "velocity": 78,
      "chip": "ym2612"
    },
    {
      "channel": 0,
      "note": 48,
      "start": 3.1764,
      "duration": 0.0389,
      "velocity": 83,
      "chip": "ym2612"
    },
    {
      "channel": 2,
      "note": 67,
      "start": 3.1778,
      "duration": 0.0543,
      "velocity": 78,
      "chip": "ym2612"
    },
    {
      "channel": 0,
      "note": 48,
      "start": 3.2317,
      "duration": 0.0377,
      "velocity": 83,
      "chip": "ym2612"
    },
    {
      "channel": 2,
      "note": 60,
      "start": 3.2326,
      "duration": 0.0575,
      "velocity": 78,
      "chip": "ym2612"
    },
    {
      "channel": 2,
      "note": 68,
      "start": 3.2906,
      "duration": 0.0579,
      "velocity": 78,
      "chip": "ym2612"
    },
    {
      "channel": 2,
      "note": 60,
      "start": 3.349,
      "duration": 0.0551,
      "velocity": 78,
      "chip": "ym2612"
    },
    {
      "channel": 0,
      "note": 48,
      "start": 3.4038,
      "duration": 0.0415,
      "velocity": 83,
      "chip": "ym2612"
    },
    {
      "channel": 2,
      "note": 70,
      "start": 3.4047,
      "duration": 0.0579,
      "velocity": 78,
      "chip": "ym2612"
    },
    {
      "channel": 0,
      "note": 48,
      "start": 3.4622,
      "duration": 0.0379,
      "velocity": 83,
      "chip": "ym2612"
    },
    {
      "channel": 2,
      "note": 60,
      "start": 3.4632,
      "duration": 0.0575,
      "velocity": 78,
      "chip": "ym2612"
    },
    {
      "channel": 2,
      "note": 72,
      "start": 3.5212,
      "duration": 0.0579,
      "velocity": 78,
      "chip": "ym2612"
    },
    {
      "channel": 2,
      "note": 60,
      "start": 3.5796,
      "duration": 0.0502,
      "velocity": 78,
      "chip": "ym2612"
    },
    {
      "channel": 0,
      "note": 53,
      "start": 3.6291,
      "duration": 0.0674,
      "velocity": 83,
      "chip": "ym2612"
    },
    {
      "channel": 1,
      "note": 60,
      "start": 3.6297,
      "duration": 0.8653,
      "velocity": 101,
      "chip": "ym2612"
    },
    {
      "channel": 2,
      "note": 60,
      "start": 3.6303,
      "duration": 0.0671,
      "velocity": 78,
      "chip": "ym2612"
    },
    {
      "channel": 3,
      "note": 84,
      "start": 3.6329,
      "duration": 0.8627,
      "velocity": 91,
      "chip": "ym2612"
    },
    {
      "channel": 4,
      "note": 72,
      "start": 3.6355,
      "duration": 0.8605,
      "velocity": 103,
      "chip": "ym2612"
    },
    {
      "channel": 0,
      "note": 48,
      "start": 3.697,
      "duration": 0.0588,
      "velocity": 83,
      "chip": "ym2612"
    },
    {
      "channel": 2,
      "note": 60,
      "start": 3.698,
      "duration": 0.0588,
      "velocity": 78,
      "chip": "ym2612"
    },
    {
      "channel": 0,
      "note": 53,
      "start": 3.7563,
      "duration": 0.0545,
      "velocity": 83,
      "chip": "ym2612"
    },
    {
      "channel": 2,
      "note": 72,
      "start": 3.7572,
      "duration": 0.0545,
      "velocity": 78,
      "chip": "ym2612"
    },
    {
      "channel": 0,
      "note": 60,
      "start": 3.8113,
      "duration": 0.0611,
      "velocity": 83,
      "chip": "ym2612"
    },
    {
      "channel": 2,
      "note": 60,
      "start": 3.8123,
      "duration": 0.061,
      "velocity": 78,
      "chip": "ym2612"
    },
    {
      "channel": 0,
      "note": 53,
      "start": 3.8729,
      "duration": 0.0581,
      "velocity": 83,
      "chip": "ym2612"
    },
    {
      "channel": 2,
      "note": 70,
      "start": 3.8739,
      "duration": 0.0581,
      "velocity": 78,
      "chip": "ym2612"
    },
    {
      "channel": 0,
      "note": 48,
      "start": 3.9315,
      "duration": 0.0588,
      "velocity": 83,
      "chip": "ym2612"
    },
    {
      "channel": 2,
      "note": 60,
      "start": 3.9325,
      "duration": 0.0587,
      "velocity": 78,
      "chip": "ym2612"
    },
    {
      "channel": 0,
      "note": 53,
      "start": 3.9908,
      "duration": 0.0546,
      "velocity": 83,
      "chip": "ym2612"
    },
    {
      "channel": 2,
      "note": 68,
      "start": 3.9918,
      "duration": 0.0546,
      "velocity": 78,
      "chip": "ym2612"
    },
    {
      "channel": 0,
      "note": 60,
      "start": 4.046,
      "duration": 0.0611,
      "velocity": 83,
      "chip": "ym2612"
    },
    {
      "channel": 2,
      "note": 60,
      "start": 4.047,
      "duration": 0.0614,
      "velocity": 78,
      "chip": "ym2612"
    },
    {
      "channel": 0,
      "note": 53,
      "start": 4.1076,
      "duration": 0.0598,
      "velocity": 83,
      "chip": "ym2612"
    },
    {
      "channel": 2,
      "note": 67,
      "start": 4.109,
      "duration": 0.0594,
      "velocity": 78,
      "chip": "ym2612"
    },
    {
      "channel": 0,
      "note": 48,
      "start": 4.1679,
      "duration": 0.0548,
      "velocity": 83,
      "chip": "ym2612"
    },
    {
      "channel": 2,
      "note": 60,
      "start": 4.1689,
      "duration": 0.0548,
      "velocity": 78,
      "chip": "ym2612"
    },
    {
      "channel": 0,
      "note": 53,
      "start": 4.2232,
      "duration": 0.0585,
      "velocity": 83,
      "chip": "ym2612"
    },
    {
      "channel": 2,
      "note": 68,
      "start": 4.2242,
      "duration": 0.0585,
      "velocity": 78,
      "chip": "ym2612"
    },
    {
      "channel": 0,
      "note": 60,
      "start": 4.2823,
      "duration": 0.0609,
      "velocity": 83,
      "chip": "ym2612"
    },
    {
      "channel": 2,
      "note": 60,
      "start": 4.2832,
      "duration": 0.0609,
      "velocity": 78,
      "chip": "ym2612"
    },
    {
      "channel": 0,
      "note": 53,
      "start": 4.3437,
      "duration": 0.0581,
      "velocity": 83,
      "chip": "ym2612"
    },
    {
      "channel": 2,
      "note": 70,
      "start": 4.3446,
      "duration": 0.0581,
      "velocity": 78,
      "chip": "ym2612"
    },
    {
      "channel": 0,
      "note": 48,
      "start": 4.4023,
      "duration": 0.0541,
      "velocity": 83,
      "chip": "ym2612"
    },
    {
      "channel": 2,
      "note": 60,
      "start": 4.4033,
      "duration": 0.0541,
      "velocity": 78,
      "chip": "ym2612"
    },
    {
      "channel": 0,
      "note": 53,
      "start": 4.4569,
      "duration": 0.056,
      "velocity": 83,
      "chip": "ym2612"
    },
    {
      "channel": 2,
      "note": 72,
      "start": 4.4579,
      "duration": 0.0564,
      "velocity": 78,
      "chip": "ym2612"
    },
    {
      "channel": 0,
      "note": 60,
      "start": 4.5134,
      "duration": 0.0608,
      "velocity": 83,
      "chip": "ym2612"
    },
    {
      "channel": 1,
      "note": 60,
      "start": 4.514,
      "duration": 0.0608,
      "velocity": 101,
      "chip": "ym2612"
    },
    {
      "channel": 2,
      "note": 60,
      "start": 4.5147,
      "duration": 0.0608,
      "velocity": 78,
      "chip": "ym2612"
    },
    {
      "channel": 3,
      "note": 84,
      "start": 4.5154,
      "duration": 0.0608,
      "velocity": 91,
      "chip": "ym2612"
    },
    {
      "channel": 4,
      "note": 72,
      "start": 4.5161,
      "duration": 0.0608,
      "velocity": 103,
      "chip": "ym2612"
    },
    {
      "channel": 0,
      "note": 53,
      "start": 4.5747,
      "duration": 0.0593,
      "velocity": 83,
      "chip": "ym2612"
    },
    {
      "channel": 1,
      "note": 63,
      "start": 4.5754,
      "duration": 0.0593,
      "velocity": 101,
      "chip": "ym2612"
    },
    {
      "channel": 2,
      "note": 60,
      "start": 4.576,
      "duration": 0.0593,
      "velocity": 78,
      "chip": "ym2612"
    },
    {
      "channel": 3,
      "note": 87,
      "start": 4.5767,
      "duration": 0.0593,
      "velocity": 91,
      "chip": "ym2612"
    },
    {
      "channel": 4,
      "note": 75,
      "start": 4.5774,
      "duration": 0.0593,
      "velocity": 103,
      "chip": "ym2612"
    },
    {
      "channel": 0,
      "note": 48,
      "start": 4.6346,
      "duration": 0.062,
      "velocity": 83,
      "chip": "ym2612"
    },
    {
      "channel": 1,
      "note": 65,
      "start": 4.6352,
      "duration": 0.8063,
      "velocity": 101,
      "chip": "ym2612"
    },
    {
      "channel": 2,
      "note": 60,
      "start": 4.6359,
      "duration": 0.0616,
      "velocity": 78,
      "chip": "ym2612"
    },
    {
      "channel": 3,
      "note": 89,
      "start": 4.6366,
      "duration": 0.8056,
      "velocity": 91,
      "chip": "ym2612"
    },
    {
      "channel": 4,
      "note": 77,
      "start": 4.6373,
      "duration": 0.8052,
      "velocity": 103,
      "chip": "ym2612"
    },
    {
      "channel": 0,
      "note": 53,
      "start": 4.6971,
      "duration": 0.0585,
      "velocity": 83,
      "chip": "ym2612"
    },
    {
      "channel": 2,
      "note": 72,
      "start": 4.698,
      "duration": 0.0585,
      "velocity": 78,
      "chip": "ym2612"
    },
    {
      "channel": 0,
      "note": 60,
      "start": 4.7561,
      "duration": 0.061,
      "velocity": 83,
      "chip": "ym2612"
    },
    {
      "channel": 2,
      "note": 60,
      "start": 4.757,
      "duration": 0.0609,
      "velocity": 78,
      "chip": "ym2612"
    },
    {
      "channel": 0,
      "note": 53,
      "start": 4.8176,
      "duration": 0.0538,
      "velocity": 83,
      "chip": "ym2612"
    },
    {
      "channel": 2,
      "note": 70,
      "start": 4.8185,
      "duration": 0.0538,
      "velocity": 78,
      "chip": "ym2612"
    },
    {
      "channel": 0,
      "note": 48,
      "start": 4.8718,
      "duration": 0.0607,
      "velocity": 83,
      "chip": "ym2612"
    },
    {
      "channel": 2,
      "note": 60,
      "start": 4.8728,
      "duration": 0.0607,
      "velocity": 78,
      "chip": "ym2612"
    },
    {
      "channel": 0,
      "note": 53,
      "start": 4.9331,
      "duration": 0.0583,
      "velocity": 83,
      "chip": "ym2612"
    },
    {
      "channel": 2,
      "note": 68,
      "start": 4.934,
      "duration": 0.0583,
      "velocity": 78,
      "chip": "ym2612"
    },
    {
      "channel": 0,
      "note": 60,
      "start": 4.9919,
      "duration": 0.0569,
      "velocity": 83,
      "chip": "ym2612"
    },
    {
      "channel": 2,
      "note": 60,
      "start": 4.9928,
      "duration": 0.0572,
      "velocity": 78,
      "chip": "ym2612"
    },
    {
      "channel": 0,
      "note": 53,
      "start": 5.0493,
      "duration": 0.0596,
      "velocity": 83,
      "chip": "ym2612"
    },
    {
      "channel": 2,
      "note": 67,
      "start": 5.0506,
      "duration": 0.0592,
      "velocity": 78,
      "chip": "ym2612"
    },
    {
      "channel": 0,
      "note": 48,
      "start": 5.1094,
      "duration": 0.0598,
      "velocity": 83,
      "chip": "ym2612"
    },
    {
      "channel": 2,
      "note": 60,
      "start": 5.1104,
      "duration": 0.0597,
      "velocity": 78,
      "chip": "ym2612"
    },
    {
      "channel": 0,
      "note": 53,
      "start": 5.1697,
      "duration": 0.0583,
      "velocity": 83,
      "chip": "ym2612"
    },
    {
      "channel": 2,
      "note": 68,
      "start": 5.1706,
      "duration": 0.0583,
      "velocity": 78,
      "chip": "ym2612"
    },
    {
      "channel": 0,
      "note": 60,
      "start": 5.2285,
      "duration": 0.057,
      "velocity": 83,
      "chip": "ym2612"
    },
    {
      "channel": 2,
      "note": 60,
      "start": 5.2294,
      "duration": 0.0569,
      "velocity": 78,
      "chip": "ym2612"
    },
    {
      "channel": 0,
      "note": 53,
      "start": 5.2859,
      "duration": 0.0578,
      "velocity": 83,
      "chip": "ym2612"
    },
    {
      "channel": 2,
      "note": 70,
      "start": 5.2869,
      "duration": 0.0579,
      "velocity": 78,
      "chip": "ym2612"
    },
    {
      "channel": 0,
      "note": 48,
      "start": 5.3443,
      "duration": 0.0586,
      "velocity": 83,
      "chip": "ym2612"
    },
    {
      "channel": 2,
      "note": 60,
      "start": 5.3453,
      "duration": 0.0586,
      "velocity": 78,
      "chip": "ym2612"
    },
    {
      "channel": 0,
      "note": 53,
      "start": 5.4034,
      "duration": 0.0525,
      "velocity": 83,
      "chip": "ym2612"
    },
    {
      "channel": 2,
      "note": 72,
      "start": 5.4043,
      "duration": 0.0529,
      "velocity": 78,
      "chip": "ym2612"
    },
    {
      "channel": 0,
      "note": 60,
      "start": 5.4564,
      "duration": 0.061,
      "velocity": 83,
      "chip": "ym2612"
    },
    {
      "channel": 1,
      "note": 65,
      "start": 5.4571,
      "duration": 0.0609,
      "velocity": 101,
      "chip": "ym2612"
    },
    {
      "channel": 2,
      "note": 60,
      "start": 5.4578,
      "duration": 0.061,
      "velocity": 78,
      "chip": "ym2612"
    },
    {
      "channel": 3,
      "note": 89,
      "start": 5.4585,
      "duration": 0.0609,
      "velocity": 91,
      "chip": "ym2612"
    },
    {
      "channel": 4,
      "note": 77,
      "start": 5.4592,
      "duration": 0.0609,
      "velocity": 103,
      "chip": "ym2612"
    },
    {
      "channel": 0,
      "note": 53,
      "start": 5.5179,
      "duration": 0.0635,
      "velocity": 83,
      "chip": "ym2612"
    },
    {
      "channel": 1,
      "note": 60,
      "start": 5.5186,
      "duration": 0.8628,
      "velocity": 101,
      "chip": "ym2612"
    },
    {
      "channel": 2,
      "note": 60,
      "start": 5.5192,
      "duration": 0.0631,
      "velocity": 78,
      "chip": "ym2612"
    },
    {
      "channel": 3,
      "note": 84,
      "start": 5.5199,
      "duration": 0.8621,
      "velocity": 91,
      "chip": "ym2612"
    },
    {
      "channel": 4,
      "note": 72,
      "start": 5.5205,
      "duration": 0.8618,
      "velocity": 103,
      "chip": "ym2612"
    },
    {
      "channel": 0,
      "note": 48,
      "start": 5.5819,
      "duration": 0.0587,
      "velocity": 83,
      "chip": "ym2612"
    },
    {
      "channel": 2,
      "note": 60,
      "start": 5.5828,
      "duration": 0.0586,
      "velocity": 78,
      "chip": "ym2612"
    },
    {
      "channel": 0,
      "note": 53,
      "start": 5.6411,
      "duration": 0.0546,
      "velocity": 83,
      "chip": "ym2612"
    },
    {
      "channel": 2,
      "note": 72,
      "start": 5.642,
      "duration": 0.0546,
      "velocity": 78,
      "chip": "ym2612"
    },
    {
      "channel": 0,
      "note": 60,
      "start": 5.6961,
      "duration": 0.0613,
      "velocity": 83,
      "chip": "ym2612"
    },
    {
      "channel": 2,
      "note": 60,
      "start": 5.6971,
      "duration": 0.0612,
      "velocity": 78,
      "chip": "ym2612"
    },
    {
      "channel": 0,
      "note": 53,
      "start": 5.7579,
      "duration": 0.058,
      "velocity": 83,
      "chip": "ym2612"
    },
    {
      "channel": 2,
      "note": 70,
      "start": 5.7589,
      "duration": 0.058,
      "velocity": 78,
      "chip": "ym2612"
    },
    {
      "channel": 0,
      "note": 48,
      "start": 5.8165,
      "duration": 0.0567,
      "velocity": 83,
      "chip": "ym2612"
    },
    {
      "channel": 2,
      "note": 60,
      "start": 5.8174,
      "duration": 0.0566,
      "velocity": 78,
      "chip": "ym2612"
    },
    {
      "channel": 0,
      "note": 53,
      "start": 5.8737,
      "duration": 0.0583,
      "velocity": 83,
      "chip": "ym2612"
    },
    {
      "channel": 2,
      "note": 68,
      "start": 5.8746,
      "duration": 0.0583,
      "velocity": 78,
      "chip": "ym2612"
    },
    {
      "channel": 0,
      "note": 60,
      "start": 5.9324,
      "duration": 0.0611,
      "velocity": 83,
      "chip": "ym2612"
    },
    {
      "channel": 2,
      "note": 60,
      "start": 5.9334,
      "duration": 0.0614,
      "velocity": 78,
      "chip": "ym2612"
    },
    {
      "channel": 0,
      "note": 53,
      "start": 5.9941,
      "duration": 0.0596,
      "velocity": 83,
      "chip": "ym2612"
    },
    {
      "channel": 2,
      "note": 67,
      "start": 5.9953,
      "duration": 0.0592,
      "velocity": 78,
      "chip": "ym2612"
    },
    {
      "channel": 0,
      "note": 48,
      "start": 6.0541,
      "duration": 0.0552,
      "velocity": 83,
      "chip": "ym2612"
    },
    {
      "channel": 2,
      "note": 60,
      "start": 6.0551,
      "duration": 0.0551,
      "velocity": 78,
      "chip": "ym2612"
    },
    {
      "channel": 0,
      "note": 53,
      "start": 6.1098,
      "duration": 0.0583,
      "velocity": 83,
      "chip": "ym2612"
    },
    {
      "channel": 2,
      "note": 68,
      "start": 6.1108,
      "duration": 0.0583,
      "velocity": 78,
      "chip": "ym2612"
    },
    {
      "channel": 0,
      "note": 60,
      "start": 6.1686,
      "duration": 0.0611,
      "velocity": 83,
      "chip": "ym2612"
    },
    {
      "channel": 2,
      "note": 60,
      "start": 6.1696,
      "duration": 0.061,
      "velocity": 78,
      "chip": "ym2612"
    },
    {
      "channel": 0,
      "note": 53,
      "start": 6.2302,
      "duration": 0.0539,
      "velocity": 83,
      "chip": "ym2612"
    },
    {
      "channel": 2,
      "note": 70,
      "start": 6.2312,
      "duration": 0.0539,
      "velocity": 78,
      "chip": "ym2612"
    },
    {
      "channel": 0,
      "note": 48,
      "start": 6.2847,
      "duration": 0.0582,
      "velocity": 83,
      "chip": "ym2612"
    },
    {
      "channel": 2,
      "note": 60,
      "start": 6.2856,
      "duration": 0.0581,
      "velocity": 78,
      "chip": "ym2612"
    },
    {
      "channel": 0,
      "note": 53,
      "start": 6.3434,
      "duration": 0.0559,
      "velocity": 83,
      "chip": "ym2612"
    },
    {
      "channel": 2,
      "note": 72,
      "start": 6.3443,
      "duration": 0.0563,
      "velocity": 78,
      "chip": "ym2612"
    },
    {
      "channel": 0,
      "note": 60,
      "start": 6.3998,
      "duration": 0.0608,
      "velocity": 83,
      "chip": "ym2612"
    },
    {
      "channel": 1,
      "note": 60,
      "start": 6.4005,
      "duration": 0.0608,
      "velocity": 101,
      "chip": "ym2612"
    },
    {
      "channel": 2,
      "note": 60,
      "start": 6.4012,
      "duration": 0.0608,
      "velocity": 78,
      "chip": "ym2612"
    },
    {
      "channel": 3,
      "note": 84,
      "start": 6.4019,
      "duration": 0.0607,
      "velocity": 91,
      "chip": "ym2612"
    },
    {
      "channel": 4,
      "note": 72,
      "start": 6.4025,
      "duration": 0.0608,
      "velocity": 103,
      "chip": "ym2612"
    },
    {
      "channel": 0,
      "note": 53,
      "start": 6.4611,
      "duration": 0.0593,
      "velocity": 83,
      "chip": "ym2612"
    },
    {
      "channel": 1,
      "note": 63,
      "start": 6.4618,
      "duration": 0.0592,
      "velocity": 101,
      "chip": "ym2612"
    },
    {
      "channel": 2,
      "note": 60,
      "start": 6.4624,
      "duration": 0.0592,
      "velocity": 78,
      "chip": "ym2612"
    },
    {
      "channel": 3,
      "note": 87,
      "start": 6.4632,
      "duration": 0.0592,
      "velocity": 91,
      "chip": "ym2612"
    },
    {
      "channel": 4,
      "note": 75,
      "start": 6.4638,
      "duration": 0.0592,
      "velocity": 103,
      "chip": "ym2612"
    },
    {
      "channel": 0,
      "note": 48,
      "start": 6.5209,
      "duration": 0.0624,
      "velocity": 83,
      "chip": "ym2612"
    },
    {
      "channel": 1,
      "note": 65,
      "start": 6.5215,
      "duration": 0.8636,
      "velocity": 101,
      "chip": "ym2612"
    },
    {
      "channel": 2,
      "note": 60,
      "start": 6.5222,
      "duration": 0.0621,
      "velocity": 78,
      "chip": "ym2612"
    },
    {
      "channel": 3,
      "note": 89,
      "start": 6.5229,
      "duration": 0.8628,
      "velocity": 91,
      "chip": "ym2612"
    },
    {
      "channel": 4,
      "note": 77,
      "start": 6.5236,
      "duration": 0.8624,
      "velocity": 103,
      "chip": "ym2612"
    },
    {
      "channel": 0,
      "note": 53,
      "start": 6.5839,
      "duration": 0.0585,
      "velocity": 83,
      "chip": "ym2612"
    },
    {
      "channel": 2,
      "note": 72,
      "start": 6.5848,
      "duration": 0.0585,
      "velocity": 78,
      "chip": "ym2612"
    },
    {
      "channel": 0,
      "note": 60,
      "start": 6.6429,
      "duration": 0.0568,
      "velocity": 83,
      "chip": "ym2612"
    },
    {
      "channel": 2,
      "note": 60,
      "start": 6.6438,
      "duration": 0.0568,
      "velocity": 78,
      "chip": "ym2612"
    },
    {
      "channel": 0,
      "note": 53,
      "start": 6.7001,
      "duration": 0.0579,
      "velocity": 83,
      "chip": "ym2612"
    },
    {
      "channel": 2,
      "note": 70,
      "start": 6.7011,
      "duration": 0.0579,
      "velocity": 78,
      "chip": "ym2612"
    },
    {
      "channel": 0,
      "note": 48,
      "start": 6.7585,
      "duration": 0.0589,
      "velocity": 83,
      "chip": "ym2612"
    },
    {
      "channel": 2,
      "note": 60,
      "start": 6.7595,
      "duration": 0.0588,
      "velocity": 78,
      "chip": "ym2612"
    },
    {
      "channel": 0,
      "note": 53,
      "start": 6.8179,
      "duration": 0.0583,
      "velocity": 83,
      "chip": "ym2612"
    },
    {
      "channel": 2,
      "note": 68,
      "start": 6.8189,
      "duration": 0.0583,
      "velocity": 78,
      "chip": "ym2612"
    },
    {
      "channel": 0,
      "note": 60,
      "start": 6.8767,
      "duration": 0.0567,
      "velocity": 83,
      "chip": "ym2612"
    },
    {
      "channel": 2,
      "note": 60,
      "start": 6.8777,
      "duration": 0.0571,
      "velocity": 78,
      "chip": "ym2612"
    },
    {
      "channel": 0,
      "note": 53,
      "start": 6.9339,
      "duration": 0.0598,
      "velocity": 83,
      "chip": "ym2612"
    },
    {
      "channel": 2,
      "note": 67,
      "start": 6.9353,
      "duration": 0.0594,
      "velocity": 78,
      "chip": "ym2612"
    },
    {
      "channel": 0,
      "note": 48,
      "start": 6.9943,
      "duration": 0.06,
      "velocity": 83,
      "chip": "ym2612"
    },
    {
      "channel": 2,
      "note": 60,
      "start": 6.9952,
      "duration": 0.06,
      "velocity": 78,
      "chip": "ym2612"
    },
    {
      "channel": 0,
      "note": 53,
      "start": 7.0547,
      "duration": 0.0546,
      "velocity": 83,
      "chip": "ym2612"
    },
    {
      "channel": 2,
      "note": 68,
      "start": 7.0557,
      "duration": 0.0546,
      "velocity": 78,
      "chip": "ym2612"
    },
    {
      "channel": 0,
      "note": 60,
      "start": 7.1098,
      "duration": 0.0612,
      "velocity": 83,
      "chip": "ym2612"
    },
    {
      "channel": 2,
      "note": 60,
      "start": 7.1108,
      "duration": 0.0612,
      "velocity": 78,
      "chip": "ym2612"
    },
    {
      "channel": 0,
      "note": 53,
      "start": 7.1715,
      "duration": 0.0581,
      "velocity": 83,
      "chip": "ym2612"
    },
    {
      "channel": 2,
      "note": 70,
      "start": 7.1724,
      "duration": 0.0582,
      "velocity": 78,
      "chip": "ym2612"
    },
    {
      "channel": 0,
      "note": 48,
      "start": 7.2302,
      "duration": 0.059,
      "velocity": 83,
      "chip": "ym2612"
    },
    {
      "channel": 2,
      "note": 60,
      "start": 7.2311,
      "duration": 0.0589,
      "velocity": 78,
      "chip": "ym2612"
    },
    {
      "channel": 0,
      "note": 53,
      "start": 7.2896,
      "duration": 0.0545,
      "velocity": 83,
      "chip": "ym2612"
    },
    {
      "channel": 2,
      "note": 72,
      "start": 7.2906,
      "duration": 0.0545,
      "velocity": 78,
      "chip": "ym2612"
    },
    {
      "channel": 0,
      "note": 60,
      "start": 7.3446,
      "duration": 0.0323,
      "velocity": 83,
      "chip": "ym2612"
    },
    {
      "channel": 2,
      "note": 60,
      "start": 7.3456,
      "duration": 0.0575,
      "velocity": 78,
      "chip": "ym2612"
    },
    {
      "channel": 0,
      "note": 48,
      "start": 7.4026,
      "duration": 0.0294,
      "velocity": 83,
      "chip": "ym2612"
    },
    {
      "channel": 2,
      "note": 48,
      "start": 7.4036,
      "duration": 0.0364,
      "velocity": 78,
      "chip": "ym2612"
    },
    {
      "channel": 3,
      "note": 84,
      "start": 7.4042,
      "duration": 0.4325,
      "velocity": 91,
      "chip": "ym2612"
    },
    {
      "channel": 4,
      "note": 77,
      "start": 7.4049,
      "duration": 0.4325,
      "velocity": 103,
      "chip": "ym2612"
    },
    {
      "channel": 0,
      "note": 48,
      "start": 7.4583,
      "duration": 0.0511,
      "velocity": 83,
      "chip": "ym2612"
    },
    {
      "channel": 2,
      "note": 48,
      "start": 7.4591,
      "duration": 0.0433,
      "velocity": 78,
      "chip": "ym2612"
    },
    {
      "channel": 0,
      "note": 51,
      "start": 7.5619,
      "duration": 0.1112,
      "velocity": 83,
      "chip": "ym2612"
    },
    {
      "channel": 1,
      "note": 51,
      "start": 7.5626,
      "duration": 0.2732,
      "velocity": 101,
      "chip": "ym2612"
    },
    {
      "channel": 0,
      "note": 53,
      "start": 7.7226,
      "duration": 0.0275,
      "velocity": 83,
      "chip": "ym2612"
    },
    {
      "channel": 0,
      "note": 51,
      "start": 7.7506,
      "duration": 0.0273,
      "velocity": 83,
      "chip": "ym2612"
    },
    {
      "channel": 0,
      "note": 48,
      "start": 7.7784,
      "duration": 0.03,
      "velocity": 83,
      "chip": "ym2612"
    },
    {
      "channel": 0,
      "note": 48,
      "start": 7.8356,
      "duration": 0.0292,
      "velocity": 83,
      "chip": "ym2612"
    },
    {
      "channel": 2,
      "note": 48,
      "start": 7.8366,
      "duration": 0.0364,
      "velocity": 78,
      "chip": "ym2612"
    },
    {
      "channel": 3,
      "note": 82,
      "start": 7.8372,
      "duration": 0.4284,
      "velocity": 91,
      "chip": "ym2612"
    },
    {
      "channel": 4,
      "note": 77,
      "start": 7.8379,
      "duration": 0.4283,
      "velocity": 103,
      "chip": "ym2612"
    },
    {
      "channel": 0,
      "note": 48,
      "start": 7.8878,
      "duration": 0.0306,
      "velocity": 83,
      "chip": "ym2612"
    },
    {
      "channel": 2,
      "note": 48,
      "start": 7.8885,
      "duration": 0.0489,
      "velocity": 78,
      "chip": "ym2612"
    },
    {
      "channel": 0,
      "note": 53,
      "start": 7.9948,
      "duration": 0.2692,
      "velocity": 83,
      "chip": "ym2612"
    },
    {
      "channel": 1,
      "note": 53,
      "start": 7.9955,
      "duration": 0.2692,
      "velocity": 101,
      "chip": "ym2612"
    },
    {
      "channel": 0,
      "note": 48,
      "start": 8.2645,
      "duration": 0.0569,
      "velocity": 83,
      "chip": "ym2612"
    },
    {
      "channel": 2,
      "note": 48,
      "start": 8.2654,
      "duration": 0.0411,
      "velocity": 78,
      "chip": "ym2612"
    },
    {
      "channel": 3,
      "note": 80,
      "start": 8.2661,
      "duration": 0.4413,
      "velocity": 91,
      "chip": "ym2612"
    },
    {
      "channel": 4,
      "note": 77,
      "start": 8.2668,
      "duration": 0.4413,
      "velocity": 103,
      "chip": "ym2612"
    },
    {
      "channel": 0,
      "note": 48,
      "start": 8.3219,
      "duration": 0.0583,
      "velocity": 83,
      "chip": "ym2612"
    },
    {
      "channel": 2,
      "note": 48,
      "start": 8.3226,
      "duration": 0.0503,
      "velocity": 78,
      "chip": "ym2612"
    },
    {
      "channel": 0,
      "note": 51,
      "start": 8.4304,
      "duration": 0.1352,
      "velocity": 83,
      "chip": "ym2612"
    },
    {
      "channel": 1,
      "note": 51,
      "start": 8.4311,
      "duration": 0.2753,
      "velocity": 101,
      "chip": "ym2612"
    },
    {
      "channel": 0,
      "note": 56,
      "start": 8.5934,
      "duration": 0.0295,
      "velocity": 83,
      "chip": "ym2612"
    },
    {
      "channel": 0,
      "note": 55,
      "start": 8.6234,
      "duration": 0.0234,
      "velocity": 83,
      "chip": "ym2612"
    },
    {
      "channel": 0,
      "note": 53,
      "start": 8.6473,
      "duration": 0.0303,
      "velocity": 83,
      "chip": "ym2612"
    },
    {
      "channel": 0,
      "note": 51,
      "start": 8.6781,
      "duration": 0.0277,
      "velocity": 83,
      "chip": "ym2612"
    },
    {
      "channel": 0,
      "note": 48,
      "start": 8.7063,
      "duration": 0.0322,
      "velocity": 83,
      "chip": "ym2612"
    },
    {
      "channel": 2,
      "note": 48,
      "start": 8.7073,
      "duration": 0.0392,
      "velocity": 78,
      "chip": "ym2612"
    },
    {
      "channel": 3,
      "note": 82,
      "start": 8.7079,
      "duration": 0.4342,
      "velocity": 91,
      "chip": "ym2612"
    },
    {
      "channel": 4,
      "note": 77,
      "start": 8.7086,
      "duration": 0.4342,
      "velocity": 103,
      "chip": "ym2612"
    },
    {
      "channel": 0,
      "note": 48,
      "start": 8.7647,
      "duration": 0.0552,
      "velocity": 83,
      "chip": "ym2612"
    },
    {
      "channel": 2,
      "note": 48,
      "start": 8.7654,
      "duration": 0.0435,
      "velocity": 78,
      "chip": "ym2612"
    },
    {
      "channel": 0,
      "note": 56,
      "start": 8.8685,
      "duration": 0.0564,
      "velocity": 83,
      "chip": "ym2612"
    },
    {
      "channel": 1,
      "note": 56,
      "start": 8.8691,
      "duration": 0.056,
      "velocity": 101,
      "chip": "ym2612"
    },
    {
      "channel": 0,
      "note": 55,
      "start": 8.975,
      "duration": 0.1655,
      "velocity": 83,
      "chip": "ym2612"
    },
    {
      "channel": 1,
      "note": 55,
      "start": 8.9757,
      "duration": 0.1383,
      "velocity": 101,
      "chip": "ym2612"
    },
    {
      "channel": 0,
      "note": 48,
      "start": 9.1411,
      "duration": 0.0292,
      "velocity": 83,
      "chip": "ym2612"
    },
    {
      "channel": 2,
      "note": 48,
      "start": 9.142,
      "duration": 0.0364,
      "velocity": 78,
      "chip": "ym2612"
    },
    {
      "channel": 3,
      "note": 84,
      "start": 9.1427,
      "duration": 0.4359,
      "velocity": 91,
      "chip": "ym2612"
    },
    {
      "channel": 4,
      "note": 77,
      "start": 9.1434,
      "duration": 0.4359,
      "velocity": 103,
      "chip": "ym2612"
    },
    {
      "channel": 0,
      "note": 48,
      "start": 9.1966,
      "duration": 0.0515,
      "velocity": 83,
      "chip": "ym2612"
    },
    {
      "channel": 2,
      "note": 48,
      "start": 9.1974,
      "duration": 0.0435,
      "velocity": 78,
      "chip": "ym2612"
    },
    {
      "channel": 0,
      "note": 51,
      "start": 9.3005,
      "duration": 0.1073,
      "velocity": 83,
      "chip": "ym2612"
    },
    {
      "channel": 1,
      "note": 51,
      "start": 9.3012,
      "duration": 0.2763,
      "velocity": 101,
      "chip": "ym2612"
    },
    {
      "channel": 0,
      "note": 53,
      "start": 9.4627,
      "duration": 0.0294,
      "velocity": 83,
      "chip": "ym2612"
    },
    {
      "channel": 0,
      "note": 51,
      "start": 9.4926,
      "duration": 0.0273,
      "velocity": 83,
      "chip": "ym2612"
    },
    {
      "channel": 0,
      "note": 48,
      "start": 9.5205,
      "duration": 0.0298,
      "velocity": 83,
      "chip": "ym2612"
    },
    {
      "channel": 0,
      "note": 48,
      "start": 9.5774,
      "duration": 0.0253,
      "velocity": 83,
      "chip": "ym2612"
    },
    {
      "channel": 2,
      "note": 48,
      "start": 9.5784,
      "duration": 0.0363,
      "velocity": 78,
      "chip": "ym2612"
    },
    {
      "channel": 3,
      "note": 82,
      "start": 9.579,
      "duration": 0.4286,
      "velocity": 91,
      "chip": "ym2612"
    },
    {
      "channel": 4,
      "note": 77,
      "start": 9.5797,
      "duration": 0.4286,
      "velocity": 103,
      "chip": "ym2612"
    },
    {
      "channel": 0,
      "note": 48,
      "start": 9.6292,
      "duration": 0.0308,
      "velocity": 83,
      "chip": "ym2612"
    },
    {
      "channel": 2,
      "note": 48,
      "start": 9.63,
      "duration": 0.0492,
      "velocity": 78,
      "chip": "ym2612"
    },
    {
      "channel": 0,
      "note": 53,
      "start": 9.7367,
      "duration": 0.2694,
      "velocity": 83,
      "chip": "ym2612"
    },
    {
      "channel": 1,
      "note": 53,
      "start": 9.7373,
      "duration": 0.2694,
      "velocity": 101,
      "chip": "ym2612"
    },
    {
      "channel": 0,
      "note": 48,
      "start": 10.0066,
      "duration": 0.0597,
      "velocity": 83,
      "chip": "ym2612"
    },
    {
      "channel": 2,
      "note": 48,
      "start": 10.0075,
      "duration": 0.0399,
      "velocity": 78,
      "chip": "ym2612"
    },
    {
      "channel": 3,
      "note": 80,
      "start": 10.0082,
      "duration": 0.4452,
      "velocity": 91,
      "chip": "ym2612"
    },
    {
      "channel": 4,
      "note": 77,
      "start": 10.0089,
      "duration": 0.4452,
      "velocity": 103,
      "chip": "ym2612"
    },
    {
      "channel": 0,
      "note": 48,
      "start": 10.0667,
      "duration": 0.0579,
      "velocity": 83,
      "chip": "ym2612"
    },
    {
      "channel": 2,
      "note": 48,
      "start": 10.0674,
      "duration": 0.0463,
      "velocity": 78,
      "chip": "ym2612"
    },
    {
      "channel": 0,
      "note": 51,
      "start": 10.1732,
      "duration": 0.1388,
      "velocity": 83,
      "chip": "ym2612"
    },
    {
      "channel": 1,
      "note": 51,
      "start": 10.1739,
      "duration": 0.2785,
      "velocity": 101,
      "chip": "ym2612"
    },
    {
      "channel": 0,
      "note": 56,
      "start": 10.3399,
      "duration": 0.0254,
      "velocity": 83,
      "chip": "ym2612"
    },
    {
      "channel": 0,
      "note": 55,
      "start": 10.3659,
      "duration": 0.0272,
      "velocity": 83,
      "chip": "ym2612"
    },
    {
      "channel": 0,
      "note": 53,
      "start": 10.3936,
      "duration": 0.0301,
      "velocity": 83,
      "chip": "ym2612"
    },
    {
      "channel": 0,
      "note": 51,
      "start": 10.4241,
      "duration": 0.0276,
      "velocity": 83,
      "chip": "ym2612"
    },
    {
      "channel": 0,
      "note": 48,
      "start": 10.4523,
      "duration": 0.0322,
      "velocity": 83,
      "chip": "ym2612"
    },
    {
      "channel": 2,
      "note": 48,
      "start": 10.4532,
      "duration": 0.0392,
      "velocity": 78,
      "chip": "ym2612"
    },
    {
      "channel": 3,
      "note": 87,
      "start": 10.4539,
      "duration": 0.4347,
      "velocity": 91,
      "chip": "ym2612"
    },
    {
      "channel": 4,
      "note": 82,
      "start": 10.4546,
      "duration": 0.4347,
      "velocity": 103,
      "chip": "ym2612"
    },
    {
      "channel": 0,
      "note": 48,
      "start": 10.5106,
      "duration": 0.0515,
      "velocity": 83,
      "chip": "ym2612"
    },
    {
      "channel": 2,
      "note": 48,
      "start": 10.5114,
      "duration": 0.0435,
      "velocity": 78,
      "chip": "ym2612"
    },
    {
      "channel": 0,
      "note": 56,
      "start": 10.6145,
      "duration": 0.0563,
      "velocity": 83,
      "chip": "ym2612"
    },
    {
      "channel": 1,
      "note": 56,
      "start": 10.6152,
      "duration": 0.0558,
      "velocity": 101,
      "chip": "ym2612"
    },
    {
      "channel": 0,
      "note": 58,
      "start": 10.7208,
      "duration": 0.1656,
      "velocity": 83,
      "chip": "ym2612"
    },
    {
      "channel": 1,
      "note": 58,
      "start": 10.7214,
      "duration": 0.1385,
      "velocity": 101,
      "chip": "ym2612"
    },
    {
      "channel": 0,
      "note": 48,
      "start": 10.887,
      "duration": 0.0399,
      "velocity": 83,
      "chip": "ym2612"
    },
    {
      "channel": 1,
      "note": 60,
      "start": 10.8877,
      "duration": 33.9179,
      "velocity": 101,
      "chip": "ym2612"
    },
    {
      "channel": 2,
      "note": 60,
      "start": 10.8883,
      "duration": 0.0556,
      "velocity": 78,
      "chip": "ym2612"
    },
    {
      "channel": 3,
      "note": 72,
      "start": 10.8891,
      "duration": 33.9165,
      "velocity": 91,
      "chip": "ym2612"
    },
    {
      "channel": 4,
      "note": 60,
      "start": 10.8898,
      "duration": 33.9158,
      "velocity": 103,
      "chip": "ym2612"
    },
    {
      "channel": 0,
      "note": 48,
      "start": 10.9435,
      "duration": 0.0447,
      "velocity": 83,
      "chip": "ym2612"
    },
    {
      "channel": 2,
      "note": 60,
      "start": 10.9445,
      "duration": 0.0598,
      "velocity": 78,
      "chip": "ym2612"
    },
    {
      "channel": 2,
      "note": 72,
      "start": 11.0048,
      "duration": 0.0546,
      "velocity": 78,
      "chip": "ym2612"
    },
    {
      "channel": 2,
      "note": 60,
      "start": 11.0599,
      "duration": 0.0564,
      "velocity": 78,
      "chip": "ym2612"
    },
    {
      "channel": 0,
      "note": 48,
      "start": 11.1159,
      "duration": 33.6897,
      "velocity": 83,
      "chip": "ym2612"
    },
    {
      "channel": 2,
      "note": 70,
      "start": 11.1169,
      "duration": 33.6887,
      "velocity": 78,
      "chip": "ym2612"
    }
  ]
}