{
  "track_name": "07 - Track 07",
  "duration_sec": 70.045,
  "sample_rate": 44100,
  "note_count": 858,
  "unique_pitches": 42,
  "pitch_range": 64,
  "avg_note_duration": 0.367,
  "reconstruction_stats": {
    "notes_reconstructed": 858,
    "keyon_events": 858,
    "keyoff_events": 856,
    "orphan_keyons": 2,
    "unique_pitches": 42,
    "pitch_range": 64,
    "avg_duration_sec": 0.367
  },
  "metadata": {
    "source": "J\\Janou Touryuumon\\07 - Track 07.vgz"
  },
  "notes": [
    {
      "channel": 0,
      "note": -1,
      "start": 0.0014,
      "duration": 0.3104,
      "velocity": 92,
      "chip": "ym2612"
    },
    {
      "channel": 1,
      "note": -1,
      "start": 0.0056,
      "duration": 0.4615,
      "velocity": 81,
      "chip": "ym2612"
    },
    {
      "channel": 2,
      "note": -1,
      "start": 0.0102,
      "duration": 0.9392,
      "velocity": 127,
      "chip": "ym2612"
    },
    {
      "channel": 3,
      "note": -1,
      "start": 0.0144,
      "duration": 0.9354,
      "velocity": 91,
      "chip": "ym2612"
    },
    {
      "channel": 5,
      "note": -1,
      "start": 0.019,
      "duration": 1.2487,
      "velocity": 91,
      "chip": "ym2612"
    },
    {
      "channel": 0,
      "note": 73,
      "start": 0.3284,
      "duration": 0.1385,
      "velocity": 92,
      "chip": "ym2612"
    },
    {
      "channel": 4,
      "note": -1,
      "start": 0.3569,
      "duration": 0.2922,
      "velocity": 92,
      "chip": "ym2612"
    },
    {
      "channel": 0,
      "note": 72,
      "start": 0.4915,
      "duration": 0.2952,
      "velocity": 92,
      "chip": "ym2612"
    },
    {
      "channel": 1,
      "note": 45,
      "start": 0.4925,
      "duration": 0.4566,
      "velocity": 81,
      "chip": "ym2612"
    },
    {
      "channel": 4,
      "note": 73,
      "start": 0.6749,
      "duration": 0.137,
      "velocity": 92,
      "chip": "ym2612"
    },
    {
      "channel": 0,
      "note": 73,
      "start": 0.8114,
      "duration": 0.1373,
      "velocity": 92,
      "chip": "ym2612"
    },
    {
      "channel": 4,
      "note": 72,
      "start": 0.8277,
      "duration": 0.3033,
      "velocity": 92,
      "chip": "ym2612"
    },
    {
      "channel": 1,
      "note": 45,
      "start": 0.9658,
      "duration": 0.4564,
      "velocity": 81,
      "chip": "ym2612"
    },
    {
      "channel": 4,
      "note": 73,
      "start": 1.1477,
      "duration": 0.1375,
      "velocity": 92,
      "chip": "ym2612"
    },
    {
      "channel": 0,
      "note": 76,
      "start": 1.284,
      "duration": 0.1378,
      "velocity": 92,
      "chip": "ym2612"
    },
    {
      "channel": 3,
      "note": 73,
      "start": 1.2849,
      "duration": 0.52,
      "velocity": 91,
      "chip": "ym2612"
    },
    {
      "channel": 5,
      "note": 61,
      "start": 1.2857,
      "duration": 0.6164,
      "velocity": 91,
      "chip": "ym2612"
    },
    {
      "channel": 1,
      "note": 44,
      "start": 1.4468,
      "duration": 0.4549,
      "velocity": 81,
      "chip": "ym2612"
    },
    {
      "channel": 4,
      "note": 76,
      "start": 1.6252,
      "duration": 0.1387,
      "velocity": 92,
      "chip": "ym2612"
    },
    {
      "channel": 0,
      "note": 74,
      "start": 1.7626,
      "duration": 0.7759,
      "velocity": 92,
      "chip": "ym2612"
    },
    {
      "channel": 1,
      "note": 42,
      "start": 1.9188,
      "duration": 0.455,
      "velocity": 81,
      "chip": "ym2612"
    },
    {
      "channel": 3,
      "note": 76,
      "start": 1.9198,
      "duration": 0.9354,
      "velocity": 91,
      "chip": "ym2612"
    },
    {
      "channel": 5,
      "note": 68,
      "start": 1.9207,
      "duration": 0.7729,
      "velocity": 91,
      "chip": "ym2612"
    },
    {
      "channel": 4,
      "note": 74,
      "start": 2.0986,
      "duration": 0.7747,
      "velocity": 92,
      "chip": "ym2612"
    },
    {
      "channel": 1,
      "note": 40,
      "start": 2.3991,
      "duration": 0.4555,
      "velocity": 81,
      "chip": "ym2612"
    },
    {
      "channel": 0,
      "note": 73,
      "start": 2.7168,
      "duration": 0.1376,
      "velocity": 92,
      "chip": "ym2612"
    },
    {
      "channel": 5,
      "note": 64,
      "start": 2.7177,
      "duration": 0.1384,
      "velocity": 91,
      "chip": "ym2612"
    },
    {
      "channel": 0,
      "note": 69,
      "start": 2.871,
      "duration": 0.3019,
      "velocity": 92,
      "chip": "ym2612"
    },
    {
      "channel": 1,
      "note": 42,
      "start": 2.8719,
      "duration": 0.4572,
      "velocity": 81,
      "chip": "ym2612"
    },
    {
      "channel": 4,
      "note": 73,
      "start": 3.0527,
      "duration": 0.1414,
      "velocity": 92,
      "chip": "ym2612"
    },
    {
      "channel": 0,
      "note": 71,
      "start": 3.1898,
      "duration": 0.139,
      "velocity": 92,
      "chip": "ym2612"
    },
    {
      "channel": 2,
      "note": 68,
      "start": 3.1932,
      "duration": 0.452,
      "velocity": 111,
      "chip": "ym2612"
    },
    {
      "channel": 3,
      "note": 68,
      "start": 3.1939,
      "duration": 0.519,
      "velocity": 91,
      "chip": "ym2612"
    },
    {
      "channel": 5,
      "note": 59,
      "start": 3.1947,
      "duration": 0.6161,
      "velocity": 91,
      "chip": "ym2612"
    },
    {
      "channel": 4,
      "note": 69,
      "start": 3.2171,
      "duration": 0.291,
      "velocity": 92,
      "chip": "ym2612"
    },
    {
      "channel": 1,
      "note": 44,
      "start": 3.3537,
      "duration": 0.4567,
      "velocity": 81,
      "chip": "ym2612"
    },
    {
      "channel": 4,
      "note": 71,
      "start": 3.532,
      "duration": 0.1424,
      "velocity": 92,
      "chip": "ym2612"
    },
    {
      "channel": 0,
      "note": 69,
      "start": 3.6697,
      "duration": 0.1405,
      "velocity": 92,
      "chip": "ym2612"
    },
    {
      "channel": 2,
      "note": 45,
      "start": 3.6736,
      "duration": 0.1368,
      "velocity": 125,
      "chip": "ym2612"
    },
    {
      "channel": 0,
      "note": 65,
      "start": 3.8269,
      "duration": 0.7734,
      "velocity": 92,
      "chip": "ym2612"
    },
    {
      "channel": 1,
      "note": 40,
      "start": 3.8277,
      "duration": 0.4523,
      "velocity": 81,
      "chip": "ym2612"
    },
    {
      "channel": 5,
      "note": 59,
      "start": 3.8289,
      "duration": 0.4515,
      "velocity": 91,
      "chip": "ym2612"
    },
    {
      "channel": 4,
      "note": 69,
      "start": 4.0054,
      "duration": 0.1378,
      "velocity": 92,
      "chip": "ym2612"
    },
    {
      "channel": 4,
      "note": 65,
      "start": 4.1671,
      "duration": 0.7771,
      "velocity": 92,
      "chip": "ym2612"
    },
    {
      "channel": 1,
      "note": 45,
      "start": 4.3054,
      "duration": 0.4566,
      "velocity": 81,
      "chip": "ym2612"
    },
    {
      "channel": 3,
      "note": 68,
      "start": 4.307,
      "duration": 0.7742,
      "velocity": 91,
      "chip": "ym2612"
    },
    {
      "channel": 5,
      "note": 57,
      "start": 4.3082,
      "duration": 0.4549,
      "velocity": 91,
      "chip": "ym2612"
    },
    {
      "channel": 0,
      "note": 66,
      "start": 4.6249,
      "duration": 0.1368,
      "velocity": 92,
      "chip": "ym2612"
    },
    {
      "channel": 0,
      "note": 66,
      "start": 4.7782,
      "duration": 0.9372,
      "velocity": 92,
      "chip": "ym2612"
    },
    {
      "channel": 1,
      "note": 45,
      "start": 4.7792,
      "duration": 0.4573,
      "velocity": 81,
      "chip": "ym2612"
    },
    {
      "channel": 5,
      "note": 64,
      "start": 4.781,
      "duration": 0.4567,
      "velocity": 91,
      "chip": "ym2612"
    },
    {
      "channel": 4,
      "note": 66,
      "start": 4.9608,
      "duration": 0.0644,
      "velocity": 92,
      "chip": "ym2612"
    },
    {
      "channel": 4,
      "note": 67,
      "start": 5.0419,
      "duration": 0.0586,
      "velocity": 92,
      "chip": "ym2612"
    },
    {
      "channel": 2,
      "note": 21,
      "start": 5.1001,
      "duration": 0.6155,
      "velocity": 111,
      "chip": "ym2612"
    },
    {
      "channel": 4,
      "note": 66,
      "start": 5.1244,
      "duration": 0.9256,
      "velocity": 92,
      "chip": "ym2612"
    },
    {
      "channel": 1,
      "note": 46,
      "start": 5.261,
      "duration": 0.4544,
      "velocity": 81,
      "chip": "ym2612"
    },
    {
      "channel": 3,
      "note": 69,
      "start": 5.2619,
      "duration": 0.7716,
      "velocity": 91,
      "chip": "ym2612"
    },
    {
      "channel": 5,
      "note": 58,
      "start": 5.2626,
      "duration": 0.4532,
      "velocity": 91,
      "chip": "ym2612"
    },
    {
      "channel": 1,
      "note": 46,
      "start": 5.7324,
      "duration": 0.462,
      "velocity": 81,
      "chip": "ym2612"
    },
    {
      "channel": 5,
      "note": 66,
      "start": 5.7337,
      "duration": 0.4617,
      "velocity": 91,
      "chip": "ym2612"
    },
    {
      "channel": 0,
      "note": 64,
      "start": 6.2134,
      "duration": 0.4577,
      "velocity": 91,
      "chip": "ym2612"
    },
    {
      "channel": 1,
      "note": 47,
      "start": 6.2144,
      "duration": 0.4571,
      "velocity": 81,
      "chip": "ym2612"
    },
    {
      "channel": 3,
      "note": 70,
      "start": 6.2156,
      "duration": 0.6777,
      "velocity": 91,
      "chip": "ym2612"
    },
    {
      "channel": 5,
      "note": 59,
      "start": 6.2169,
      "duration": 0.7738,
      "velocity": 91,
      "chip": "ym2612"
    },
    {
      "channel": 4,
      "note": 64,
      "start": 6.5527,
      "duration": 0.4594,
      "velocity": 91,
      "chip": "ym2612"
    },
    {
      "channel": 0,
      "note": 68,
      "start": 6.6882,
      "duration": 0.1479,
      "velocity": 91,
      "chip": "ym2612"
    },
    {
      "channel": 1,
      "note": 54,
      "start": 6.6894,
      "duration": 0.147,
      "velocity": 81,
      "chip": "ym2612"
    },
    {
      "channel": 0,
      "note": 76,
      "start": 6.8528,
      "duration": 0.1374,
      "velocity": 91,
      "chip": "ym2612"
    },
    {
      "channel": 0,
      "note": 77,
      "start": 7.0073,
      "duration": 0.1487,
      "velocity": 91,
      "chip": "ym2612"
    },
    {
      "channel": 1,
      "note": 52,
      "start": 7.008,
      "duration": 0.1482,
      "velocity": 81,
      "chip": "ym2612"
    },
    {
      "channel": 2,
      "note": 45,
      "start": 7.0112,
      "duration": 0.2987,
      "velocity": 125,
      "chip": "ym2612"
    },
    {
      "channel": 3,
      "note": 68,
      "start": 7.0119,
      "duration": 0.5778,
      "velocity": 91,
      "chip": "ym2612"
    },
    {
      "channel": 5,
      "note": 64,
      "start": 7.0127,
      "duration": 0.6168,
      "velocity": 91,
      "chip": "ym2612"
    },
    {
      "channel": 4,
      "note": 68,
      "start": 7.0357,
      "duration": 0.1385,
      "velocity": 91,
      "chip": "ym2612"
    },
    {
      "channel": 0,
      "note": 78,
      "start": 7.1731,
      "duration": 0.1362,
      "velocity": 91,
      "chip": "ym2612"
    },
    {
      "channel": 1,
      "note": 47,
      "start": 7.1738,
      "duration": 0.4552,
      "velocity": 81,
      "chip": "ym2612"
    },
    {
      "channel": 4,
      "note": 76,
      "start": 7.1887,
      "duration": 0.1401,
      "velocity": 91,
      "chip": "ym2612"
    },
    {
      "channel": 0,
      "note": 79,
      "start": 7.3264,
      "duration": 0.1465,
      "velocity": 91,
      "chip": "ym2612"
    },
    {
      "channel": 2,
      "note": 21,
      "start": 7.328,
      "duration": 0.0233,
      "velocity": 125,
      "chip": "ym2612"
    },
    {
      "channel": 4,
      "note": 77,
      "start": 7.3523,
      "duration": 0.1399,
      "velocity": 91,
      "chip": "ym2612"
    },
    {
      "channel": 2,
      "note": 22,
      "start": 7.3684,
      "duration": 0.105,
      "velocity": 125,
      "chip": "ym2612"
    },
    {
      "channel": 0,
      "note": 78,
      "start": 7.4902,
      "duration": 0.1387,
      "velocity": 91,
      "chip": "ym2612"
    },
    {
      "channel": 2,
      "note": 21,
      "start": 7.4915,
      "duration": 0.1377,
      "velocity": 125,
      "chip": "ym2612"
    },
    {
      "channel": 4,
      "note": 78,
      "start": 7.509,
      "duration": 0.151,
      "velocity": 91,
      "chip": "ym2612"
    },
    {
      "channel": 0,
      "note": 77,
      "start": 7.6537,
      "duration": 0.144,
      "velocity": 91,
      "chip": "ym2612"
    },
    {
      "channel": 1,
      "note": 40,
      "start": 7.6547,
      "duration": 0.4589,
      "velocity": 81,
      "chip": "ym2612"
    },
    {
      "channel": 2,
      "note": 22,
      "start": 7.6584,
      "duration": 1.8871,
      "velocity": 111,
      "chip": "ym2612"
    },
    {
      "channel": 3,
      "note": 68,
      "start": 7.6595,
      "duration": 0.9321,
      "velocity": 91,
      "chip": "ym2612"
    },
    {
      "channel": 5,
      "note": 64,
      "start": 7.6609,
      "duration": 0.4539,
      "velocity": 91,
      "chip": "ym2612"
    },
    {
      "channel": 4,
      "note": 79,
      "start": 7.6779,
      "duration": 0.1363,
      "velocity": 91,
      "chip": "ym2612"
    },
    {
      "channel": 4,
      "note": 78,
      "start": 7.8311,
      "duration": 0.1451,
      "velocity": 91,
      "chip": "ym2612"
    },
    {
      "channel": 4,
      "note": 77,
      "start": 7.9928,
      "duration": 0.1422,
      "velocity": 91,
      "chip": "ym2612"
    },
    {
      "channel": 0,
      "note": 76,
      "start": 8.1331,
      "duration": 0.3023,
      "velocity": 92,
      "chip": "ym2612"
    },
    {
      "channel": 1,
      "note": 45,
      "start": 8.134,
      "duration": 0.4571,
      "velocity": 81,
      "chip": "ym2612"
    },
    {
      "channel": 5,
      "note": 61,
      "start": 8.1358,
      "duration": 0.4564,
      "velocity": 91,
      "chip": "ym2612"
    },
    {
      "channel": 0,
      "note": 73,
      "start": 8.4523,
      "duration": 0.1384,
      "velocity": 92,
      "chip": "ym2612"
    },
    {
      "channel": 4,
      "note": 76,
      "start": 8.4727,
      "duration": 0.2984,
      "velocity": 92,
      "chip": "ym2612"
    },
    {
      "channel": 0,
      "note": 72,
      "start": 8.6154,
      "duration": 0.2925,
      "velocity": 92,
      "chip": "ym2612"
    },
    {
      "channel": 1,
      "note": 45,
      "start": 8.6161,
      "duration": 0.4569,
      "velocity": 81,
      "chip": "ym2612"
    },
    {
      "channel": 5,
      "note": 68,
      "start": 8.6171,
      "duration": 0.2912,
      "velocity": 91,
      "chip": "ym2612"
    },
    {
      "channel": 4,
      "note": 73,
      "start": 8.7878,
      "duration": 0.147,
      "velocity": 92,
      "chip": "ym2612"
    },
    {
      "channel": 0,
      "note": 73,
      "start": 8.9327,
      "duration": 0.1402,
      "velocity": 92,
      "chip": "ym2612"
    },
    {
      "channel": 3,
      "note": 73,
      "start": 8.9342,
      "duration": 0.456,
      "velocity": 91,
      "chip": "ym2612"
    },
    {
      "channel": 5,
      "note": 68,
      "start": 8.9355,
      "duration": 0.4553,
      "velocity": 91,
      "chip": "ym2612"
    },
    {
      "channel": 4,
      "note": 72,
      "start": 8.9527,
      "duration": 0.2982,
      "velocity": 92,
      "chip": "ym2612"
    },
    {
      "channel": 1,
      "note": 44,
      "start": 9.09,
      "duration": 0.4554,
      "velocity": 81,
      "chip": "ym2612"
    },
    {
      "channel": 4,
      "note": 73,
      "start": 9.2673,
      "duration": 0.1406,
      "velocity": 92,
      "chip": "ym2612"
    },
    {
      "channel": 0,
      "note": 74,
      "start": 9.4056,
      "duration": 0.1396,
      "velocity": 92,
      "chip": "ym2612"
    },
    {
      "channel": 3,
      "note": 73,
      "start": 9.4075,
      "duration": 0.1382,
      "velocity": 91,
      "chip": "ym2612"
    },
    {
      "channel": 5,
      "note": 68,
      "start": 9.4088,
      "duration": 0.9369,
      "velocity": 91,
      "chip": "ym2612"
    },
    {
      "channel": 0,
      "note": 76,
      "start": 9.57,
      "duration": 0.2952,
      "velocity": 92,
      "chip": "ym2612"
    },
    {
      "channel": 1,
      "note": 42,
      "start": 9.571,
      "duration": 0.4563,
      "velocity": 81,
      "chip": "ym2612"
    },
    {
      "channel": 4,
      "note": 74,
      "start": 9.7533,
      "duration": 0.1372,
      "velocity": 92,
      "chip": "ym2612"
    },
    {
      "channel": 0,
      "note": 78,
      "start": 9.89,
      "duration": 0.1369,
      "velocity": 92,
      "chip": "ym2612"
    },
    {
      "channel": 4,
      "note": 76,
      "start": 9.9066,
      "duration": 0.3019,
      "velocity": 92,
      "chip": "ym2612"
    },
    {
      "channel": 1,
      "note": 40,
      "start": 10.0439,
      "duration": 0.4567,
      "velocity": 81,
      "chip": "ym2612"
    },
    {
      "channel": 4,
      "note": 78,
      "start": 10.2252,
      "duration": 0.1378,
      "velocity": 92,
      "chip": "ym2612"
    },
    {
      "channel": 0,
      "note": 76,
      "start": 10.3618,
      "duration": 0.1385,
      "velocity": 92,
      "chip": "ym2612"
    },
    {
      "channel": 3,
      "note": 68,
      "start": 10.3627,
      "duration": 0.9349,
      "velocity": 91,
      "chip": "ym2612"
    },
    {
      "channel": 5,
      "note": 64,
      "start": 10.3635,
      "duration": 0.6178,
      "velocity": 91,
      "chip": "ym2612"
    },
    {
      "channel": 1,
      "note": 40,
      "start": 10.5252,
      "duration": 0.4558,
      "velocity": 81,
      "chip": "ym2612"
    },
    {
      "channel": 4,
      "note": 76,
      "start": 10.7031,
      "duration": 0.1419,
      "velocity": 92,
      "chip": "ym2612"
    },
    {
      "channel": 0,
      "note": 74,
      "start": 10.8406,
      "duration": 0.1403,
      "velocity": 92,
      "chip": "ym2612"
    },
    {
      "channel": 2,
      "note": 45,
      "start": 10.8442,
      "duration": 0.453,
      "velocity": 111,
      "chip": "ym2612"
    },
    {
      "channel": 1,
      "note": 44,
      "start": 10.9977,
      "duration": 0.4562,
      "velocity": 81,
      "chip": "ym2612"
    },
    {
      "channel": 5,
      "note": 59,
      "start": 10.9986,
      "duration": 0.4557,
      "velocity": 91,
      "chip": "ym2612"
    },
    {
      "channel": 4,
      "note": 74,
      "start": 11.176,
      "duration": 0.1419,
      "velocity": 92,
      "chip": "ym2612"
    },
    {
      "channel": 0,
      "note": 73,
      "start": 11.3133,
      "duration": 0.1404,
      "velocity": 92,
      "chip": "ym2612"
    },
    {
      "channel": 2,
      "note": 45,
      "start": 11.317,
      "duration": 0.137,
      "velocity": 125,
      "chip": "ym2612"
    },
    {
      "channel": 0,
      "note": 71,
      "start": 11.4784,
      "duration": 0.9295,
      "velocity": 92,
      "chip": "ym2612"
    },
    {
      "channel": 1,
      "note": 47,
      "start": 11.4794,
      "duration": 0.4555,
      "velocity": 81,
      "chip": "ym2612"
    },
    {
      "channel": 3,
      "note": 68,
      "start": 11.4808,
      "duration": 0.4546,
      "velocity": 91,
      "chip": "ym2612"
    },
    {
      "channel": 5,
      "note": 60,
      "start": 11.482,
      "duration": 0.4541,
      "velocity": 91,
      "chip": "ym2612"
    },
    {
      "channel": 4,
      "note": 73,
      "start": 11.6602,
      "duration": 0.1366,
      "velocity": 92,
      "chip": "ym2612"
    },
    {
      "channel": 4,
      "note": 71,
      "start": 11.8134,
      "duration": 0.939,
      "velocity": 92,
      "chip": "ym2612"
    },
    {
      "channel": 1,
      "note": 49,
      "start": 11.9514,
      "duration": 0.4568,
      "velocity": 81,
      "chip": "ym2612"
    },
    {
      "channel": 3,
      "note": 68,
      "start": 11.9528,
      "duration": 0.4561,
      "velocity": 91,
      "chip": "ym2612"
    },
    {
      "channel": 5,
      "note": 61,
      "start": 11.954,
      "duration": 0.4554,
      "velocity": 91,
      "chip": "ym2612"
    },
    {
      "channel": 2,
      "note": 21,
      "start": 12.2733,
      "duration": 0.452,
      "velocity": 111,
      "chip": "ym2612"
    },
    {
      "channel": 1,
      "note": 49,
      "start": 12.4329,
      "duration": 0.4584,
      "velocity": 81,
      "chip": "ym2612"
    },
    {
      "channel": 3,
      "note": 85,
      "start": 12.4337,
      "duration": 0.2917,
      "velocity": 91,
      "chip": "ym2612"
    },
    {
      "channel": 5,
      "note": 73,
      "start": 12.4344,
      "duration": 0.2911,
      "velocity": 91,
      "chip": "ym2612"
    },
    {
      "channel": 0,
      "note": 73,
      "start": 12.7498,
      "duration": 0.2144,
      "velocity": 92,
      "chip": "ym2612"
    },
    {
      "channel": 2,
      "note": 45,
      "start": 12.7511,
      "duration": 0.6136,
      "velocity": 111,
      "chip": "ym2612"
    },
    {
      "channel": 3,
      "note": 84,
      "start": 12.752,
      "duration": 0.4557,
      "velocity": 91,
      "chip": "ym2612"
    },
    {
      "channel": 5,
      "note": 72,
      "start": 12.7534,
      "duration": 0.4549,
      "velocity": 91,
      "chip": "ym2612"
    },
    {
      "channel": 1,
      "note": 40,
      "start": 12.9079,
      "duration": 0.4567,
      "velocity": 81,
      "chip": "ym2612"
    },
    {
      "channel": 4,
      "note": 73,
      "start": 13.0862,
      "duration": 0.2225,
      "velocity": 92,
      "chip": "ym2612"
    },
    {
      "channel": 0,
      "note": 78,
      "start": 13.2235,
      "duration": 0.1409,
      "velocity": 92,
      "chip": "ym2612"
    },
    {
      "channel": 3,
      "note": 83,
      "start": 13.225,
      "duration": 0.6209,
      "velocity": 91,
      "chip": "ym2612"
    },
    {
      "channel": 5,
      "note": 71,
      "start": 13.2262,
      "duration": 0.6202,
      "velocity": 91,
      "chip": "ym2612"
    },
    {
      "channel": 0,
      "note": 77,
      "start": 13.3899,
      "duration": 0.2936,
      "velocity": 92,
      "chip": "ym2612"
    },
    {
      "channel": 1,
      "note": 41,
      "start": 13.3909,
      "duration": 0.4543,
      "velocity": 81,
      "chip": "ym2612"
    },
    {
      "channel": 4,
      "note": 78,
      "start": 13.5715,
      "duration": 0.1371,
      "velocity": 92,
      "chip": "ym2612"
    },
    {
      "channel": 0,
      "note": 76,
      "start": 13.7082,
      "duration": 0.1368,
      "velocity": 92,
      "chip": "ym2612"
    },
    {
      "channel": 4,
      "note": 77,
      "start": 13.7244,
      "duration": 0.3012,
      "velocity": 92,
      "chip": "ym2612"
    },
    {
      "channel": 1,
      "note": 42,
      "start": 13.8619,
      "duration": 0.4549,
      "velocity": 81,
      "chip": "ym2612"
    },
    {
      "channel": 5,
      "note": 66,
      "start": 13.8638,
      "duration": 0.4543,
      "velocity": 91,
      "chip": "ym2612"
    },
    {
      "channel": 4,
      "note": 76,
      "start": 14.0423,
      "duration": 0.1372,
      "velocity": 92,
      "chip": "ym2612"
    },
    {
      "channel": 0,
      "note": 75,
      "start": 14.179,
      "duration": 0.1375,
      "velocity": 92,
      "chip": "ym2612"
    },
    {
      "channel": 0,
      "note": 74,
      "start": 14.3411,
      "duration": 0.3359,
      "velocity": 92,
      "chip": "ym2612"
    },
    {
      "channel": 1,
      "note": 42,
      "start": 14.342,
      "duration": 0.4564,
      "velocity": 81,
      "chip": "ym2612"
    },
    {
      "channel": 2,
      "note": 45,
      "start": 14.3451,
      "duration": 0.4534,
      "velocity": 111,
      "chip": "ym2612"
    },
    {
      "channel": 5,
      "note": 54,
      "start": 14.3469,
      "duration": 0.1365,
      "velocity": 91,
      "chip": "ym2612"
    },
    {
      "channel": 3,
      "note": 82,
      "start": 14.4996,
      "duration": 0.7754,
      "velocity": 91,
      "chip": "ym2612"
    },
    {
      "channel": 5,
      "note": 78,
      "start": 14.5009,
      "duration": 0.1359,
      "velocity": 91,
      "chip": "ym2612"
    },
    {
      "channel": 4,
      "note": 75,
      "start": 14.5239,
      "duration": 0.1379,
      "velocity": 92,
      "chip": "ym2612"
    },
    {
      "channel": 5,
      "note": 76,
      "start": 14.663,
      "duration": 0.1358,
      "velocity": 91,
      "chip": "ym2612"
    },
    {
      "channel": 4,
      "note": 74,
      "start": 14.6785,
      "duration": 0.3434,
      "velocity": 92,
      "chip": "ym2612"
    },
    {
      "channel": 0,
      "note": 73,
      "start": 14.7016,
      "duration": 0.0966,
      "velocity": 92,
      "chip": "ym2612"
    },
    {
      "channel": 0,
      "note": 73,
      "start": 14.8149,
      "duration": 0.3035,
      "velocity": 92,
      "chip": "ym2612"
    },
    {
      "channel": 1,
      "note": 49,
      "start": 14.8157,
      "duration": 0.459,
      "velocity": 81,
      "chip": "ym2612"
    },
    {
      "channel": 2,
      "note": 45,
      "start": 14.8189,
      "duration": 0.1377,
      "velocity": 89,
      "chip": "ym2612"
    },
    {
      "channel": 5,
      "note": 75,
      "start": 14.8202,
      "duration": 0.1373,
      "velocity": 91,
      "chip": "ym2612"
    },
    {
      "channel": 2,
      "note": 50,
      "start": 14.983,
      "duration": 0.2919,
      "velocity": 125,
      "chip": "ym2612"
    },
    {
      "channel": 5,
      "note": 73,
      "start": 14.9838,
      "duration": 0.136,
      "velocity": 91,
      "chip": "ym2612"
    },
    {
      "channel": 4,
      "note": 73,
      "start": 15.0386,
      "duration": 0.0394,
      "velocity": 92,
      "chip": "ym2612"
    },
    {
      "channel": 4,
      "note": 74,
      "start": 15.0945,
      "duration": 0.0418,
      "velocity": 92,
      "chip": "ym2612"
    },
    {
      "channel": 0,
      "note": 71,
      "start": 15.135,
      "duration": 0.1395,
      "velocity": 92,
      "chip": "ym2612"
    },
    {
      "channel": 5,
      "note": 71,
      "start": 15.1375,
      "duration": 0.1377,
      "velocity": 91,
      "chip": "ym2612"
    },
    {
      "channel": 4,
      "note": 73,
      "start": 15.1617,
      "duration": 0.2987,
      "velocity": 92,
      "chip": "ym2612"
    },
    {
      "channel": 0,
      "note": 69,
      "start": 15.2995,
      "duration": 0.2984,
      "velocity": 92,
      "chip": "ym2612"
    },
    {
      "channel": 1,
      "note": 42,
      "start": 15.3004,
      "duration": 0.4602,
      "velocity": 81,
      "chip": "ym2612"
    },
    {
      "channel": 2,
      "note": 21,
      "start": 15.3038,
      "duration": 1.8804,
      "velocity": 111,
      "chip": "ym2612"
    },
    {
      "channel": 3,
      "note": 70,
      "start": 15.3047,
      "duration": 0.7508,
      "velocity": 91,
      "chip": "ym2612"
    },
    {
      "channel": 5,
      "note": 70,
      "start": 15.3072,
      "duration": 0.7723,
      "velocity": 91,
      "chip": "ym2612"
    },
    {
      "channel": 4,
      "note": 71,
      "start": 15.486,
      "duration": 0.1376,
      "velocity": 92,
      "chip": "ym2612"
    },
    {
      "channel": 0,
      "note": 66,
      "start": 15.6231,
      "duration": 0.1371,
      "velocity": 92,
      "chip": "ym2612"
    },
    {
      "channel": 4,
      "note": 69,
      "start": 15.6395,
      "duration": 0.3026,
      "velocity": 92,
      "chip": "ym2612"
    },
    {
      "channel": 0,
      "note": 62,
      "start": 15.7769,
      "duration": 0.3022,
      "velocity": 92,
      "chip": "ym2612"
    },
    {
      "channel": 1,
      "note": 47,
      "start": 15.7778,
      "duration": 0.4555,
      "velocity": 81,
      "chip": "ym2612"
    },
    {
      "channel": 4,
      "note": 66,
      "start": 15.9588,
      "duration": 0.1373,
      "velocity": 92,
      "chip": "ym2612"
    },
    {
      "channel": 0,
      "note": 64,
      "start": 16.0956,
      "duration": 0.1374,
      "velocity": 92,
      "chip": "ym2612"
    },
    {
      "channel": 5,
      "note": 66,
      "start": 16.0967,
      "duration": 0.4523,
      "velocity": 91,
      "chip": "ym2612"
    },
    {
      "channel": 4,
      "note": 62,
      "start": 16.1209,
      "duration": 0.2912,
      "velocity": 92,
      "chip": "ym2612"
    },
    {
      "channel": 0,
      "note": 61,
      "start": 16.2577,
      "duration": 0.2909,
      "velocity": 92,
      "chip": "ym2612"
    },
    {
      "channel": 1,
      "note": 49,
      "start": 16.2584,
      "duration": 0.4546,
      "velocity": 81,
      "chip": "ym2612"
    },
    {
      "channel": 4,
      "note": 64,
      "start": 16.436,
      "duration": 0.1387,
      "velocity": 92,
      "chip": "ym2612"
    },
    {
      "channel": 0,
      "note": 62,
      "start": 16.5734,
      "duration": 0.1395,
      "velocity": 92,
      "chip": "ym2612"
    },
    {
      "channel": 5,
      "note": 66,
      "start": 16.5755,
      "duration": 0.4544,
      "velocity": 91,
      "chip": "ym2612"
    },
    {
      "channel": 4,
      "note": 61,
      "start": 16.5928,
      "duration": 0.2987,
      "velocity": 92,
      "chip": "ym2612"
    },
    {
      "channel": 0,
      "note": 59,
      "start": 16.7295,
      "duration": 0.2989,
      "velocity": 92,
      "chip": "ym2612"
    },
    {
      "channel": 1,
      "note": 50,
      "start": 16.7302,
      "duration": 0.4539,
      "velocity": 81,
      "chip": "ym2612"
    },
    {
      "channel": 4,
      "note": 62,
      "start": 16.908,
      "duration": 0.1391,
      "velocity": 92,
      "chip": "ym2612"
    },
    {
      "channel": 0,
      "note": 62,
      "start": 17.0451,
      "duration": 0.1389,
      "velocity": 92,
      "chip": "ym2612"
    },
    {
      "channel": 3,
      "note": 71,
      "start": 17.0466,
      "duration": 1.4089,
      "velocity": 91,
      "chip": "ym2612"
    },
    {
      "channel": 5,
      "note": 69,
      "start": 17.0479,
      "duration": 1.0929,
      "velocity": 91,
      "chip": "ym2612"
    },
    {
      "channel": 4,
      "note": 59,
      "start": 17.0713,
      "duration": 0.2951,
      "velocity": 92,
      "chip": "ym2612"
    },
    {
      "channel": 0,
      "note": 66,
      "start": 17.2088,
      "duration": 0.141,
      "velocity": 92,
      "chip": "ym2612"
    },
    {
      "channel": 1,
      "note": 51,
      "start": 17.2097,
      "duration": 0.1402,
      "velocity": 81,
      "chip": "ym2612"
    },
    {
      "channel": 4,
      "note": 62,
      "start": 17.3916,
      "duration": 0.1383,
      "velocity": 92,
      "chip": "ym2612"
    },
    {
      "channel": 0,
      "note": 69,
      "start": 17.5288,
      "duration": 0.1372,
      "velocity": 92,
      "chip": "ym2612"
    },
    {
      "channel": 1,
      "note": 52,
      "start": 17.5295,
      "duration": 0.1368,
      "velocity": 81,
      "chip": "ym2612"
    },
    {
      "channel": 4,
      "note": 66,
      "start": 17.5451,
      "duration": 0.1396,
      "velocity": 92,
      "chip": "ym2612"
    },
    {
      "channel": 0,
      "note": 66,
      "start": 17.6828,
      "duration": 0.3023,
      "velocity": 92,
      "chip": "ym2612"
    },
    {
      "channel": 1,
      "note": 47,
      "start": 17.6837,
      "duration": 0.456,
      "velocity": 81,
      "chip": "ym2612"
    },
    {
      "channel": 4,
      "note": 69,
      "start": 17.8653,
      "duration": 0.1367,
      "velocity": 92,
      "chip": "ym2612"
    },
    {
      "channel": 0,
      "note": 69,
      "start": 18.0016,
      "duration": 0.1378,
      "velocity": 92,
      "chip": "ym2612"
    },
    {
      "channel": 4,
      "note": 66,
      "start": 18.0271,
      "duration": 0.2914,
      "velocity": 92,
      "chip": "ym2612"
    },
    {
      "channel": 0,
      "note": 71,
      "start": 18.1637,
      "duration": 0.2915,
      "velocity": 92,
      "chip": "ym2612"
    },
    {
      "channel": 1,
      "note": 40,
      "start": 18.1645,
      "duration": 0.457,
      "velocity": 81,
      "chip": "ym2612"
    },
    {
      "channel": 4,
      "note": 69,
      "start": 18.3423,
      "duration": 0.1431,
      "velocity": 92,
      "chip": "ym2612"
    },
    {
      "channel": 0,
      "note": 73,
      "start": 18.4803,
      "duration": 0.0198,
      "velocity": 92,
      "chip": "ym2612"
    },
    {
      "channel": 2,
      "note": 45,
      "start": 18.4839,
      "duration": 0.4544,
      "velocity": 111,
      "chip": "ym2612"
    },
    {
      "channel": 3,
      "note": 71,
      "start": 18.485,
      "duration": 0.4537,
      "velocity": 91,
      "chip": "ym2612"
    },
    {
      "channel": 5,
      "note": 68,
      "start": 18.4862,
      "duration": 0.4533,
      "velocity": 91,
      "chip": "ym2612"
    },
    {
      "channel": 4,
      "note": 71,
      "start": 18.5016,
      "duration": 0.2979,
      "velocity": 92,
      "chip": "ym2612"
    },
    {
      "channel": 0,
      "note": 75,
      "start": 18.5252,
      "duration": 0.0962,
      "velocity": 92,
      "chip": "ym2612"
    },
    {
      "channel": 0,
      "note": 76,
      "start": 18.638,
      "duration": 0.2748,
      "velocity": 92,
      "chip": "ym2612"
    },
    {
      "channel": 1,
      "note": 47,
      "start": 18.6388,
      "duration": 0.4573,
      "velocity": 81,
      "chip": "ym2612"
    },
    {
      "channel": 4,
      "note": 73,
      "start": 18.816,
      "duration": 0.0247,
      "velocity": 92,
      "chip": "ym2612"
    },
    {
      "channel": 4,
      "note": 75,
      "start": 18.8577,
      "duration": 0.1016,
      "velocity": 92,
      "chip": "ym2612"
    },
    {
      "channel": 0,
      "note": 74,
      "start": 18.9376,
      "duration": 0.0449,
      "velocity": 92,
      "chip": "ym2612"
    },
    {
      "channel": 2,
      "note": 45,
      "start": 18.9578,
      "duration": 0.1384,
      "velocity": 125,
      "chip": "ym2612"
    },
    {
      "channel": 3,
      "note": 68,
      "start": 18.9588,
      "duration": 1.0911,
      "velocity": 91,
      "chip": "ym2612"
    },
    {
      "channel": 5,
      "note": 64,
      "start": 18.96,
      "duration": 1.0904,
      "velocity": 91,
      "chip": "ym2612"
    },
    {
      "channel": 4,
      "note": 76,
      "start": 18.9832,
      "duration": 0.2774,
      "velocity": 92,
      "chip": "ym2612"
    },
    {
      "channel": 0,
      "note": 68,
      "start": 18.999,
      "duration": 0.0404,
      "velocity": 92,
      "chip": "ym2612"
    },
    {
      "channel": 0,
      "note": 69,
      "start": 19.0639,
      "duration": 0.032,
      "velocity": 92,
      "chip": "ym2612"
    },
    {
      "channel": 0,
      "note": 70,
      "start": 19.1207,
      "duration": 0.2931,
      "velocity": 92,
      "chip": "ym2612"
    },
    {
      "channel": 1,
      "note": 44,
      "start": 19.1216,
      "duration": 0.4548,
      "velocity": 81,
      "chip": "ym2612"
    },
    {
      "channel": 4,
      "note": 74,
      "start": 19.2771,
      "duration": 0.0408,
      "velocity": 92,
      "chip": "ym2612"
    },
    {
      "channel": 4,
      "note": 68,
      "start": 19.3418,
      "duration": 0.0407,
      "velocity": 92,
      "chip": "ym2612"
    },
    {
      "channel": 4,
      "note": 69,
      "start": 19.3992,
      "duration": 0.0397,
      "velocity": 92,
      "chip": "ym2612"
    },
    {
      "channel": 0,
      "note": 71,
      "start": 19.4385,
      "duration": 0.1376,
      "velocity": 92,
      "chip": "ym2612"
    },
    {
      "channel": 4,
      "note": 70,
      "start": 19.4548,
      "duration": 0.3033,
      "velocity": 92,
      "chip": "ym2612"
    },
    {
      "channel": 0,
      "note": 69,
      "start": 19.5927,
      "duration": 0.3021,
      "velocity": 92,
      "chip": "ym2612"
    },
    {
      "channel": 1,
      "note": 45,
      "start": 19.5937,
      "duration": 0.4556,
      "velocity": 81,
      "chip": "ym2612"
    },
    {
      "channel": 4,
      "note": 71,
      "start": 19.7748,
      "duration": 0.137,
      "velocity": 92,
      "chip": "ym2612"
    },
    {
      "channel": 0,
      "note": 68,
      "start": 19.9114,
      "duration": 0.1376,
      "velocity": 92,
      "chip": "ym2612"
    },
    {
      "channel": 4,
      "note": 69,
      "start": 19.9367,
      "duration": 0.2926,
      "velocity": 92,
      "chip": "ym2612"
    },
    {
      "channel": 0,
      "note": 65,
      "start": 20.0735,
      "duration": 0.2923,
      "velocity": 92,
      "chip": "ym2612"
    },
    {
      "channel": 1,
      "note": 45,
      "start": 20.0743,
      "duration": 0.455,
      "velocity": 81,
      "chip": "ym2612"
    },
    {
      "channel": 3,
      "note": 68,
      "start": 20.0751,
      "duration": 0.9284,
      "velocity": 91,
      "chip": "ym2612"
    },
    {
      "channel": 5,
      "note": 61,
      "start": 20.0759,
      "duration": 0.9278,
      "velocity": 91,
      "chip": "ym2612"
    },
    {
      "channel": 4,
      "note": 68,
      "start": 20.2532,
      "duration": 0.1385,
      "velocity": 92,
      "chip": "ym2612"
    },
    {
      "channel": 0,
      "note": 66,
      "start": 20.3904,
      "duration": 0.1387,
      "velocity": 92,
      "chip": "ym2612"
    },
    {
      "channel": 4,
      "note": 65,
      "start": 20.409,
      "duration": 0.2991,
      "velocity": 92,
      "chip": "ym2612"
    },
    {
      "channel": 0,
      "note": 68,
      "start": 20.5458,
      "duration": 0.3,
      "velocity": 92,
      "chip": "ym2612"
    },
    {
      "channel": 1,
      "note": 44,
      "start": 20.5465,
      "duration": 0.4568,
      "velocity": 81,
      "chip": "ym2612"
    },
    {
      "channel": 4,
      "note": 66,
      "start": 20.7248,
      "duration": 0.142,
      "velocity": 92,
      "chip": "ym2612"
    },
    {
      "channel": 0,
      "note": 66,
      "start": 20.8624,
      "duration": 0.1407,
      "velocity": 92,
      "chip": "ym2612"
    },
    {
      "channel": 2,
      "note": 21,
      "start": 20.8661,
      "duration": 0.1373,
      "velocity": 111,
      "chip": "ym2612"
    },
    {
      "channel": 4,
      "note": 68,
      "start": 20.8904,
      "duration": 0.295,
      "velocity": 92,
      "chip": "ym2612"
    },
    {
      "channel": 0,
      "note": 65,
      "start": 21.0279,
      "duration": 0.4739,
      "velocity": 92,
      "chip": "ym2612"
    },
    {
      "channel": 1,
      "note": 42,
      "start": 21.029,
      "duration": 0.4569,
      "velocity": 81,
      "chip": "ym2612"
    },
    {
      "channel": 3,
      "note": 70,
      "start": 21.0304,
      "duration": 0.9293,
      "velocity": 91,
      "chip": "ym2612"
    },
    {
      "channel": 5,
      "note": 66,
      "start": 21.0316,
      "duration": 0.9288,
      "velocity": 91,
      "chip": "ym2612"
    },
    {
      "channel": 4,
      "note": 66,
      "start": 21.2112,
      "duration": 0.137,
      "velocity": 92,
      "chip": "ym2612"
    },
    {
      "channel": 4,
      "note": 65,
      "start": 21.365,
      "duration": 0.4811,
      "velocity": 92,
      "chip": "ym2612"
    },
    {
      "channel": 1,
      "note": 40,
      "start": 21.5028,
      "duration": 0.4564,
      "velocity": 81,
      "chip": "ym2612"
    },
    {
      "channel": 0,
      "note": 62,
      "start": 21.8209,
      "duration": 0.1379,
      "velocity": 92,
      "chip": "ym2612"
    },
    {
      "channel": 1,
      "note": 52,
      "start": 21.9838,
      "duration": 0.1374,
      "velocity": 81,
      "chip": "ym2612"
    },
    {
      "channel": 5,
      "note": 59,
      "start": 21.985,
      "duration": 0.942,
      "velocity": 91,
      "chip": "ym2612"
    },
    {
      "channel": 4,
      "note": 62,
      "start": 22.1621,
      "duration": 0.143,
      "velocity": 92,
      "chip": "ym2612"
    },
    {
      "channel": 0,
      "note": 78,
      "start": 22.2993,
      "duration": 0.1415,
      "velocity": 92,
      "chip": "ym2612"
    },
    {
      "channel": 1,
      "note": 40,
      "start": 22.3002,
      "duration": 0.1408,
      "velocity": 81,
      "chip": "ym2612"
    },
    {
      "channel": 2,
      "note": 45,
      "start": 22.3035,
      "duration": 0.1375,
      "velocity": 111,
      "chip": "ym2612"
    },
    {
      "channel": 3,
      "note": 64,
      "start": 22.3046,
      "duration": 0.6219,
      "velocity": 91,
      "chip": "ym2612"
    },
    {
      "channel": 1,
      "note": 40,
      "start": 22.4577,
      "duration": 0.4681,
      "velocity": 81,
      "chip": "ym2612"
    },
    {
      "channel": 2,
      "note": 45,
      "start": 22.4613,
      "duration": 0.0231,
      "velocity": 125,
      "chip": "ym2612"
    },
    {
      "channel": 2,
      "note": 22,
      "start": 22.5014,
      "duration": 0.1039,
      "velocity": 125,
      "chip": "ym2612"
    },
    {
      "channel": 2,
      "note": 21,
      "start": 22.6219,
      "duration": 0.1375,
      "velocity": 125,
      "chip": "ym2612"
    },
    {
      "channel": 4,
      "note": 78,
      "start": 22.6381,
      "duration": 0.1421,
      "velocity": 92,
      "chip": "ym2612"
    },
    {
      "channel": 0,
      "note": 76,
      "start": 22.7757,
      "duration": 0.1498,
      "velocity": 92,
      "chip": "ym2612"
    },
    {
      "channel": 2,
      "note": 22,
      "start": 22.7794,
      "duration": 0.1467,
      "velocity": 89,
      "chip": "ym2612"
    },
    {
      "channel": 0,
      "note": 74,
      "start": 22.9451,
      "duration": 0.306,
      "velocity": 92,
      "chip": "ym2612"
    },
    {
      "channel": 1,
      "note": 44,
      "start": 22.9462,
      "duration": 0.4602,
      "velocity": 81,
      "chip": "ym2612"
    },
    {
      "channel": 2,
      "note": 50,
      "start": 22.9496,
      "duration": 1.8907,
      "velocity": 111,
      "chip": "ym2612"
    },
    {
      "channel": 3,
      "note": 71,
      "start": 22.9507,
      "duration": 0.936,
      "velocity": 91,
      "chip": "ym2612"
    },
    {
      "channel": 5,
      "note": 64,
      "start": 22.9521,
      "duration": 1.2524,
      "velocity": 91,
      "chip": "ym2612"
    },
    {
      "channel": 4,
      "note": 76,
      "start": 23.1315,
      "duration": 0.1366,
      "velocity": 92,
      "chip": "ym2612"
    },
    {
      "channel": 0,
      "note": 73,
      "start": 23.2677,
      "duration": 0.1384,
      "velocity": 92,
      "chip": "ym2612"
    },
    {
      "channel": 4,
      "note": 74,
      "start": 23.2874,
      "duration": 0.301,
      "velocity": 92,
      "chip": "ym2612"
    },
    {
      "channel": 0,
      "note": 72,
      "start": 23.4227,
      "duration": 0.3024,
      "velocity": 92,
      "chip": "ym2612"
    },
    {
      "channel": 1,
      "note": 45,
      "start": 23.4236,
      "duration": 0.4629,
      "velocity": 81,
      "chip": "ym2612"
    },
    {
      "channel": 4,
      "note": 73,
      "start": 23.6049,
      "duration": 0.1372,
      "velocity": 92,
      "chip": "ym2612"
    },
    {
      "channel": 0,
      "note": 73,
      "start": 23.7417,
      "duration": 0.1446,
      "velocity": 92,
      "chip": "ym2612"
    },
    {
      "channel": 4,
      "note": 72,
      "start": 23.767,
      "duration": 0.2912,
      "velocity": 92,
      "chip": "ym2612"
    },
    {
      "channel": 1,
      "note": 45,
      "start": 23.9032,
      "duration": 0.4573,
      "velocity": 81,
      "chip": "ym2612"
    },
    {
      "channel": 4,
      "note": 73,
      "start": 24.082,
      "duration": 0.1398,
      "velocity": 92,
      "chip": "ym2612"
    },
    {
      "channel": 0,
      "note": 76,
      "start": 24.2198,
      "duration": 0.1407,
      "velocity": 92,
      "chip": "ym2612"
    },
    {
      "channel": 3,
      "note": 73,
      "start": 24.2213,
      "duration": 0.5133,
      "velocity": 91,
      "chip": "ym2612"
    },
    {
      "channel": 5,
      "note": 61,
      "start": 24.2229,
      "duration": 0.6183,
      "velocity": 91,
      "chip": "ym2612"
    },
    {
      "channel": 1,
      "note": 44,
      "start": 24.3854,
      "duration": 0.4546,
      "velocity": 81,
      "chip": "ym2612"
    },
    {
      "channel": 4,
      "note": 76,
      "start": 24.5573,
      "duration": 0.1459,
      "velocity": 92,
      "chip": "ym2612"
    },
    {
      "channel": 0,
      "note": 74,
      "start": 24.7027,
      "duration": 0.7737,
      "velocity": 92,
      "chip": "ym2612"
    },
    {
      "channel": 1,
      "note": 42,
      "start": 24.8574,
      "duration": 0.4572,
      "velocity": 81,
      "chip": "ym2612"
    },
    {
      "channel": 3,
      "note": 76,
      "start": 24.8588,
      "duration": 0.9373,
      "velocity": 91,
      "chip": "ym2612"
    },
    {
      "channel": 5,
      "note": 68,
      "start": 24.86,
      "duration": 0.7709,
      "velocity": 91,
      "chip": "ym2612"
    },
    {
      "channel": 4,
      "note": 74,
      "start": 25.041,
      "duration": 0.7726,
      "velocity": 92,
      "chip": "ym2612"
    },
    {
      "channel": 1,
      "note": 40,
      "start": 25.3399,
      "duration": 0.4561,
      "velocity": 81,
      "chip": "ym2612"
    },
    {
      "channel": 0,
      "note": 73,
      "start": 25.6553,
      "duration": 0.1406,
      "velocity": 92,
      "chip": "ym2612"
    },
    {
      "channel": 5,
      "note": 64,
      "start": 25.6576,
      "duration": 0.1387,
      "velocity": 91,
      "chip": "ym2612"
    },
    {
      "channel": 0,
      "note": 69,
      "start": 25.8124,
      "duration": 0.2989,
      "velocity": 92,
      "chip": "ym2612"
    },
    {
      "channel": 1,
      "note": 42,
      "start": 25.8131,
      "duration": 0.4559,
      "velocity": 81,
      "chip": "ym2612"
    },
    {
      "channel": 4,
      "note": 73,
      "start": 25.9903,
      "duration": 0.1426,
      "velocity": 92,
      "chip": "ym2612"
    },
    {
      "channel": 0,
      "note": 71,
      "start": 26.1279,
      "duration": 0.1409,
      "velocity": 92,
      "chip": "ym2612"
    },
    {
      "channel": 2,
      "note": 45,
      "start": 26.1315,
      "duration": 0.4555,
      "velocity": 111,
      "chip": "ym2612"
    },
    {
      "channel": 3,
      "note": 68,
      "start": 26.1325,
      "duration": 0.5113,
      "velocity": 91,
      "chip": "ym2612"
    },
    {
      "channel": 5,
      "note": 59,
      "start": 26.1337,
      "duration": 0.6167,
      "velocity": 91,
      "chip": "ym2612"
    },
    {
      "channel": 4,
      "note": 69,
      "start": 26.1492,
      "duration": 0.2994,
      "velocity": 92,
      "chip": "ym2612"
    },
    {
      "channel": 1,
      "note": 44,
      "start": 26.294,
      "duration": 0.4553,
      "velocity": 81,
      "chip": "ym2612"
    },
    {
      "channel": 4,
      "note": 71,
      "start": 26.4744,
      "duration": 0.1403,
      "velocity": 92,
      "chip": "ym2612"
    },
    {
      "channel": 0,
      "note": 69,
      "start": 26.6112,
      "duration": 0.1378,
      "velocity": 92,
      "chip": "ym2612"
    },
    {
      "channel": 2,
      "note": 45,
      "start": 26.6144,
      "duration": 0.1352,
      "velocity": 125,
      "chip": "ym2612"
    },
    {
      "channel": 0,
      "note": 65,
      "start": 26.7658,
      "duration": 0.7728,
      "velocity": 92,
      "chip": "ym2612"
    },
    {
      "channel": 1,
      "note": 40,
      "start": 26.7667,
      "duration": 0.4545,
      "velocity": 81,
      "chip": "ym2612"
    },
    {
      "channel": 5,
      "note": 59,
      "start": 26.7687,
      "duration": 0.4539,
      "velocity": 91,
      "chip": "ym2612"
    },
    {
      "channel": 4,
      "note": 69,
      "start": 26.9471,
      "duration": 0.1363,
      "velocity": 92,
      "chip": "ym2612"
    },
    {
      "channel": 4,
      "note": 65,
      "start": 27.1089,
      "duration": 0.7709,
      "velocity": 92,
      "chip": "ym2612"
    },
    {
      "channel": 1,
      "note": 45,
      "start": 27.246,
      "duration": 0.4548,
      "velocity": 81,
      "chip": "ym2612"
    },
    {
      "channel": 3,
      "note": 68,
      "start": 27.2468,
      "duration": 0.7719,
      "velocity": 91,
      "chip": "ym2612"
    },
    {
      "channel": 5,
      "note": 57,
      "start": 27.2476,
      "duration": 0.4534,
      "velocity": 91,
      "chip": "ym2612"
    },
    {
      "channel": 0,
      "note": 66,
      "start": 27.5633,
      "duration": 0.1373,
      "velocity": 92,
      "chip": "ym2612"
    },
    {
      "channel": 0,
      "note": 66,
      "start": 27.7173,
      "duration": 0.9393,
      "velocity": 92,
      "chip": "ym2612"
    },
    {
      "channel": 1,
      "note": 45,
      "start": 27.718,
      "duration": 0.4585,
      "velocity": 81,
      "chip": "ym2612"
    },
    {
      "channel": 5,
      "note": 64,
      "start": 27.7189,
      "duration": 0.4579,
      "velocity": 91,
      "chip": "ym2612"
    },
    {
      "channel": 4,
      "note": 66,
      "start": 27.8964,
      "duration": 0.0571,
      "velocity": 92,
      "chip": "ym2612"
    },
    {
      "channel": 4,
      "note": 67,
      "start": 27.9777,
      "duration": 0.0607,
      "velocity": 92,
      "chip": "ym2612"
    },
    {
      "channel": 2,
      "note": 21,
      "start": 28.0375,
      "duration": 0.6198,
      "velocity": 111,
      "chip": "ym2612"
    },
    {
      "channel": 4,
      "note": 66,
      "start": 28.0633,
      "duration": 0.9296,
      "velocity": 92,
      "chip": "ym2612"
    },
    {
      "channel": 1,
      "note": 46,
      "start": 28.2014,
      "duration": 0.4555,
      "velocity": 81,
      "chip": "ym2612"
    },
    {
      "channel": 3,
      "note": 69,
      "start": 28.2027,
      "duration": 0.774,
      "velocity": 91,
      "chip": "ym2612"
    },
    {
      "channel": 5,
      "note": 58,
      "start": 28.2039,
      "duration": 0.4543,
      "velocity": 91,
      "chip": "ym2612"
    },
    {
      "channel": 1,
      "note": 46,
      "start": 28.6739,
      "duration": 0.4564,
      "velocity": 81,
      "chip": "ym2612"
    },
    {
      "channel": 5,
      "note": 66,
      "start": 28.6761,
      "duration": 0.4553,
      "velocity": 91,
      "chip": "ym2612"
    },
    {
      "channel": 0,
      "note": 64,
      "start": 29.1576,
      "duration": 0.4588,
      "velocity": 91,
      "chip": "ym2612"
    },
    {
      "channel": 1,
      "note": 47,
      "start": 29.1583,
      "duration": 0.4581,
      "velocity": 81,
      "chip": "ym2612"
    },
    {
      "channel": 3,
      "note": 70,
      "start": 29.1591,
      "duration": 0.677,
      "velocity": 91,
      "chip": "ym2612"
    },
    {
      "channel": 5,
      "note": 59,
      "start": 29.1599,
      "duration": 0.7744,
      "velocity": 91,
      "chip": "ym2612"
    },
    {
      "channel": 4,
      "note": 64,
      "start": 29.4968,
      "duration": 0.4587,
      "velocity": 91,
      "chip": "ym2612"
    },
    {
      "channel": 0,
      "note": 68,
      "start": 29.6334,
      "duration": 0.1373,
      "velocity": 91,
      "chip": "ym2612"
    },
    {
      "channel": 1,
      "note": 54,
      "start": 29.6341,
      "duration": 0.1369,
      "velocity": 81,
      "chip": "ym2612"
    },
    {
      "channel": 0,
      "note": 76,
      "start": 29.7955,
      "duration": 0.1373,
      "velocity": 91,
      "chip": "ym2612"
    },
    {
      "channel": 0,
      "note": 77,
      "start": 29.9498,
      "duration": 0.1423,
      "velocity": 91,
      "chip": "ym2612"
    },
    {
      "channel": 1,
      "note": 52,
      "start": 29.9508,
      "duration": 0.1415,
      "velocity": 81,
      "chip": "ym2612"
    },
    {
      "channel": 2,
      "note": 45,
      "start": 29.9541,
      "duration": 0.3029,
      "velocity": 125,
      "chip": "ym2612"
    },
    {
      "channel": 3,
      "note": 68,
      "start": 29.9551,
      "duration": 0.5771,
      "velocity": 91,
      "chip": "ym2612"
    },
    {
      "channel": 5,
      "note": 64,
      "start": 29.9566,
      "duration": 0.6176,
      "velocity": 91,
      "chip": "ym2612"
    },
    {
      "channel": 4,
      "note": 68,
      "start": 29.9798,
      "duration": 0.1395,
      "velocity": 91,
      "chip": "ym2612"
    },
    {
      "channel": 0,
      "note": 78,
      "start": 30.1172,
      "duration": 0.1396,
      "velocity": 91,
      "chip": "ym2612"
    },
    {
      "channel": 1,
      "note": 47,
      "start": 30.1182,
      "duration": 0.4548,
      "velocity": 81,
      "chip": "ym2612"
    },
    {
      "channel": 4,
      "note": 76,
      "start": 30.1367,
      "duration": 0.1388,
      "velocity": 91,
      "chip": "ym2612"
    },
    {
      "channel": 0,
      "note": 79,
      "start": 30.2739,
      "duration": 0.1365,
      "velocity": 91,
      "chip": "ym2612"
    },
    {
      "channel": 2,
      "note": 21,
      "start": 30.2752,
      "duration": 0.0226,
      "velocity": 125,
      "chip": "ym2612"
    },
    {
      "channel": 4,
      "note": 77,
      "start": 30.2992,
      "duration": 0.1378,
      "velocity": 91,
      "chip": "ym2612"
    },
    {
      "channel": 2,
      "note": 22,
      "start": 30.3148,
      "duration": 0.0963,
      "velocity": 125,
      "chip": "ym2612"
    },
    {
      "channel": 0,
      "note": 78,
      "start": 30.4359,
      "duration": 0.1368,
      "velocity": 91,
      "chip": "ym2612"
    },
    {
      "channel": 2,
      "note": 21,
      "start": 30.4367,
      "duration": 0.1367,
      "velocity": 125,
      "chip": "ym2612"
    },
    {
      "channel": 4,
      "note": 78,
      "start": 30.4523,
      "duration": 0.1431,
      "velocity": 91,
      "chip": "ym2612"
    },
    {
      "channel": 0,
      "note": 77,
      "start": 30.5895,
      "duration": 0.1432,
      "velocity": 91,
      "chip": "ym2612"
    },
    {
      "channel": 1,
      "note": 40,
      "start": 30.5905,
      "duration": 0.4592,
      "velocity": 81,
      "chip": "ym2612"
    },
    {
      "channel": 2,
      "note": 22,
      "start": 30.5939,
      "duration": 1.8944,
      "velocity": 111,
      "chip": "ym2612"
    },
    {
      "channel": 3,
      "note": 68,
      "start": 30.5949,
      "duration": 0.9394,
      "velocity": 91,
      "chip": "ym2612"
    },
    {
      "channel": 5,
      "note": 64,
      "start": 30.5962,
      "duration": 0.4547,
      "velocity": 91,
      "chip": "ym2612"
    },
    {
      "channel": 4,
      "note": 79,
      "start": 30.6205,
      "duration": 0.1375,
      "velocity": 91,
      "chip": "ym2612"
    },
    {
      "channel": 4,
      "note": 78,
      "start": 30.775,
      "duration": 0.1365,
      "velocity": 91,
      "chip": "ym2612"
    },
    {
      "channel": 4,
      "note": 77,
      "start": 30.9371,
      "duration": 0.1412,
      "velocity": 91,
      "chip": "ym2612"
    },
    {
      "channel": 0,
      "note": 76,
      "start": 31.0773,
      "duration": 0.2913,
      "velocity": 92,
      "chip": "ym2612"
    },
    {
      "channel": 1,
      "note": 45,
      "start": 31.078,
      "duration": 0.4562,
      "velocity": 81,
      "chip": "ym2612"
    },
    {
      "channel": 5,
      "note": 61,
      "start": 31.0789,
      "duration": 0.4556,
      "velocity": 91,
      "chip": "ym2612"
    },
    {
      "channel": 0,
      "note": 73,
      "start": 31.3935,
      "duration": 0.1405,
      "velocity": 92,
      "chip": "ym2612"
    },
    {
      "channel": 4,
      "note": 76,
      "start": 31.4146,
      "duration": 0.2989,
      "velocity": 92,
      "chip": "ym2612"
    },
    {
      "channel": 0,
      "note": 72,
      "start": 31.5507,
      "duration": 0.3011,
      "velocity": 92,
      "chip": "ym2612"
    },
    {
      "channel": 1,
      "note": 45,
      "start": 31.5514,
      "duration": 0.4575,
      "velocity": 81,
      "chip": "ym2612"
    },
    {
      "channel": 5,
      "note": 68,
      "start": 31.5524,
      "duration": 0.3007,
      "velocity": 91,
      "chip": "ym2612"
    },
    {
      "channel": 4,
      "note": 73,
      "start": 31.7301,
      "duration": 0.1402,
      "velocity": 92,
      "chip": "ym2612"
    },
    {
      "channel": 0,
      "note": 73,
      "start": 31.8684,
      "duration": 0.1405,
      "velocity": 92,
      "chip": "ym2612"
    },
    {
      "channel": 3,
      "note": 73,
      "start": 31.8698,
      "duration": 0.4566,
      "velocity": 91,
      "chip": "ym2612"
    },
    {
      "channel": 5,
      "note": 68,
      "start": 31.8711,
      "duration": 0.4559,
      "velocity": 91,
      "chip": "ym2612"
    },
    {
      "channel": 4,
      "note": 72,
      "start": 31.8959,
      "duration": 0.2922,
      "velocity": 92,
      "chip": "ym2612"
    },
    {
      "channel": 1,
      "note": 44,
      "start": 32.0339,
      "duration": 0.4541,
      "velocity": 81,
      "chip": "ym2612"
    },
    {
      "channel": 4,
      "note": 73,
      "start": 32.2136,
      "duration": 0.1378,
      "velocity": 92,
      "chip": "ym2612"
    },
    {
      "channel": 0,
      "note": 74,
      "start": 32.3502,
      "duration": 0.1375,
      "velocity": 92,
      "chip": "ym2612"
    },
    {
      "channel": 3,
      "note": 73,
      "start": 32.3511,
      "duration": 0.1375,
      "velocity": 91,
      "chip": "ym2612"
    },
    {
      "channel": 5,
      "note": 68,
      "start": 32.352,
      "duration": 0.9254,
      "velocity": 91,
      "chip": "ym2612"
    },
    {
      "channel": 0,
      "note": 76,
      "start": 32.5044,
      "duration": 0.3027,
      "velocity": 92,
      "chip": "ym2612"
    },
    {
      "channel": 1,
      "note": 42,
      "start": 32.5054,
      "duration": 0.4555,
      "velocity": 81,
      "chip": "ym2612"
    },
    {
      "channel": 4,
      "note": 74,
      "start": 32.6872,
      "duration": 0.1368,
      "velocity": 92,
      "chip": "ym2612"
    },
    {
      "channel": 0,
      "note": 78,
      "start": 32.8236,
      "duration": 0.1371,
      "velocity": 92,
      "chip": "ym2612"
    },
    {
      "channel": 4,
      "note": 76,
      "start": 32.8491,
      "duration": 0.2913,
      "velocity": 92,
      "chip": "ym2612"
    },
    {
      "channel": 1,
      "note": 40,
      "start": 32.9857,
      "duration": 0.4576,
      "velocity": 81,
      "chip": "ym2612"
    },
    {
      "channel": 4,
      "note": 78,
      "start": 33.164,
      "duration": 0.1398,
      "velocity": 92,
      "chip": "ym2612"
    },
    {
      "channel": 0,
      "note": 76,
      "start": 33.3017,
      "duration": 0.1414,
      "velocity": 92,
      "chip": "ym2612"
    },
    {
      "channel": 3,
      "note": 68,
      "start": 33.3032,
      "duration": 0.9317,
      "velocity": 91,
      "chip": "ym2612"
    },
    {
      "channel": 5,
      "note": 64,
      "start": 33.3045,
      "duration": 0.6112,
      "velocity": 91,
      "chip": "ym2612"
    },
    {
      "channel": 1,
      "note": 40,
      "start": 33.4599,
      "duration": 0.4556,
      "velocity": 81,
      "chip": "ym2612"
    },
    {
      "channel": 4,
      "note": 76,
      "start": 33.6381,
      "duration": 0.1417,
      "velocity": 92,
      "chip": "ym2612"
    },
    {
      "channel": 0,
      "note": 74,
      "start": 33.7755,
      "duration": 0.1398,
      "velocity": 92,
      "chip": "ym2612"
    },
    {
      "channel": 2,
      "note": 45,
      "start": 33.7791,
      "duration": 0.4555,
      "velocity": 111,
      "chip": "ym2612"
    },
    {
      "channel": 1,
      "note": 44,
      "start": 33.9405,
      "duration": 0.4565,
      "velocity": 81,
      "chip": "ym2612"
    },
    {
      "channel": 5,
      "note": 59,
      "start": 33.9422,
      "duration": 0.456,
      "velocity": 91,
      "chip": "ym2612"
    },
    {
      "channel": 4,
      "note": 74,
      "start": 34.122,
      "duration": 0.1404,
      "velocity": 92,
      "chip": "ym2612"
    },
    {
      "channel": 0,
      "note": 73,
      "start": 34.2588,
      "duration": 0.1378,
      "velocity": 92,
      "chip": "ym2612"
    },
    {
      "channel": 2,
      "note": 45,
      "start": 34.262,
      "duration": 0.1353,
      "velocity": 125,
      "chip": "ym2612"
    },
    {
      "channel": 0,
      "note": 71,
      "start": 34.4133,
      "duration": 0.9368,
      "velocity": 92,
      "chip": "ym2612"
    },
    {
      "channel": 1,
      "note": 47,
      "start": 34.4142,
      "duration": 0.4557,
      "velocity": 81,
      "chip": "ym2612"
    },
    {
      "channel": 3,
      "note": 68,
      "start": 34.4158,
      "duration": 0.4547,
      "velocity": 91,
      "chip": "ym2612"
    },
    {
      "channel": 5,
      "note": 60,
      "start": 34.417,
      "duration": 0.4541,
      "velocity": 91,
      "chip": "ym2612"
    },
    {
      "channel": 4,
      "note": 73,
      "start": 34.5955,
      "duration": 0.1365,
      "velocity": 92,
      "chip": "ym2612"
    },
    {
      "channel": 4,
      "note": 71,
      "start": 34.7577,
      "duration": 0.929,
      "velocity": 92,
      "chip": "ym2612"
    },
    {
      "channel": 1,
      "note": 49,
      "start": 34.8946,
      "duration": 0.4557,
      "velocity": 81,
      "chip": "ym2612"
    },
    {
      "channel": 3,
      "note": 68,
      "start": 34.8955,
      "duration": 0.4549,
      "velocity": 91,
      "chip": "ym2612"
    },
    {
      "channel": 5,
      "note": 61,
      "start": 34.8963,
      "duration": 0.4543,
      "velocity": 91,
      "chip": "ym2612"
    },
    {
      "channel": 2,
      "note": 21,
      "start": 35.2139,
      "duration": 0.4541,
      "velocity": 111,
      "chip": "ym2612"
    },
    {
      "channel": 1,
      "note": 49,
      "start": 35.367,
      "duration": 0.458,
      "velocity": 81,
      "chip": "ym2612"
    },
    {
      "channel": 3,
      "note": 85,
      "start": 35.3677,
      "duration": 0.3006,
      "velocity": 91,
      "chip": "ym2612"
    },
    {
      "channel": 5,
      "note": 73,
      "start": 35.3685,
      "duration": 0.3004,
      "velocity": 91,
      "chip": "ym2612"
    },
    {
      "channel": 0,
      "note": 73,
      "start": 35.6841,
      "duration": 0.2222,
      "velocity": 92,
      "chip": "ym2612"
    },
    {
      "channel": 2,
      "note": 45,
      "start": 35.6853,
      "duration": 0.6191,
      "velocity": 111,
      "chip": "ym2612"
    },
    {
      "channel": 3,
      "note": 84,
      "start": 35.6862,
      "duration": 0.4552,
      "velocity": 91,
      "chip": "ym2612"
    },
    {
      "channel": 5,
      "note": 72,
      "start": 35.6875,
      "duration": 0.4546,
      "velocity": 91,
      "chip": "ym2612"
    },
    {
      "channel": 1,
      "note": 40,
      "start": 35.8498,
      "duration": 0.4543,
      "velocity": 81,
      "chip": "ym2612"
    },
    {
      "channel": 4,
      "note": 73,
      "start": 36.0288,
      "duration": 0.2184,
      "velocity": 92,
      "chip": "ym2612"
    },
    {
      "channel": 0,
      "note": 78,
      "start": 36.1653,
      "duration": 0.1384,
      "velocity": 92,
      "chip": "ym2612"
    },
    {
      "channel": 3,
      "note": 83,
      "start": 36.1661,
      "duration": 0.6112,
      "velocity": 91,
      "chip": "ym2612"
    },
    {
      "channel": 5,
      "note": 71,
      "start": 36.167,
      "duration": 0.6109,
      "velocity": 91,
      "chip": "ym2612"
    },
    {
      "channel": 0,
      "note": 77,
      "start": 36.3203,
      "duration": 0.3026,
      "velocity": 92,
      "chip": "ym2612"
    },
    {
      "channel": 1,
      "note": 41,
      "start": 36.3214,
      "duration": 0.4554,
      "velocity": 81,
      "chip": "ym2612"
    },
    {
      "channel": 4,
      "note": 78,
      "start": 36.5028,
      "duration": 0.1375,
      "velocity": 92,
      "chip": "ym2612"
    },
    {
      "channel": 0,
      "note": 76,
      "start": 36.6398,
      "duration": 0.1366,
      "velocity": 92,
      "chip": "ym2612"
    },
    {
      "channel": 4,
      "note": 77,
      "start": 36.6647,
      "duration": 0.2914,
      "velocity": 92,
      "chip": "ym2612"
    },
    {
      "channel": 1,
      "note": 42,
      "start": 36.8013,
      "duration": 0.4548,
      "velocity": 81,
      "chip": "ym2612"
    },
    {
      "channel": 5,
      "note": 66,
      "start": 36.8024,
      "duration": 0.4541,
      "velocity": 91,
      "chip": "ym2612"
    },
    {
      "channel": 4,
      "note": 76,
      "start": 36.9797,
      "duration": 0.1393,
      "velocity": 92,
      "chip": "ym2612"
    },
    {
      "channel": 0,
      "note": 75,
      "start": 37.1177,
      "duration": 0.1383,
      "velocity": 92,
      "chip": "ym2612"
    },
    {
      "channel": 0,
      "note": 74,
      "start": 37.2722,
      "duration": 0.3436,
      "velocity": 92,
      "chip": "ym2612"
    },
    {
      "channel": 1,
      "note": 42,
      "start": 37.2733,
      "duration": 0.4559,
      "velocity": 81,
      "chip": "ym2612"
    },
    {
      "channel": 2,
      "note": 45,
      "start": 37.2765,
      "duration": 0.4528,
      "velocity": 111,
      "chip": "ym2612"
    },
    {
      "channel": 5,
      "note": 54,
      "start": 37.2783,
      "duration": 0.1362,
      "velocity": 91,
      "chip": "ym2612"
    },
    {
      "channel": 3,
      "note": 82,
      "start": 37.4381,
      "duration": 0.7762,
      "velocity": 91,
      "chip": "ym2612"
    },
    {
      "channel": 5,
      "note": 78,
      "start": 37.4389,
      "duration": 0.1376,
      "velocity": 91,
      "chip": "ym2612"
    },
    {
      "channel": 4,
      "note": 75,
      "start": 37.4543,
      "duration": 0.138,
      "velocity": 92,
      "chip": "ym2612"
    },
    {
      "channel": 5,
      "note": 76,
      "start": 37.5935,
      "duration": 0.136,
      "velocity": 91,
      "chip": "ym2612"
    },
    {
      "channel": 4,
      "note": 74,
      "start": 37.6166,
      "duration": 0.3384,
      "velocity": 92,
      "chip": "ym2612"
    },
    {
      "channel": 0,
      "note": 73,
      "start": 37.6325,
      "duration": 0.0966,
      "velocity": 92,
      "chip": "ym2612"
    },
    {
      "channel": 0,
      "note": 73,
      "start": 37.7537,
      "duration": 0.2975,
      "velocity": 92,
      "chip": "ym2612"
    },
    {
      "channel": 1,
      "note": 49,
      "start": 37.7547,
      "duration": 0.4589,
      "velocity": 81,
      "chip": "ym2612"
    },
    {
      "channel": 2,
      "note": 45,
      "start": 37.7585,
      "duration": 0.1383,
      "velocity": 89,
      "chip": "ym2612"
    },
    {
      "channel": 5,
      "note": 75,
      "start": 37.7604,
      "duration": 0.1366,
      "velocity": 91,
      "chip": "ym2612"
    },
    {
      "channel": 2,
      "note": 50,
      "start": 37.9159,
      "duration": 0.2981,
      "velocity": 125,
      "chip": "ym2612"
    },
    {
      "channel": 5,
      "note": 73,
      "start": 37.9167,
      "duration": 0.1359,
      "velocity": 91,
      "chip": "ym2612"
    },
    {
      "channel": 4,
      "note": 73,
      "start": 37.9788,
      "duration": 0.0407,
      "velocity": 92,
      "chip": "ym2612"
    },
    {
      "channel": 4,
      "note": 74,
      "start": 38.0366,
      "duration": 0.0398,
      "velocity": 92,
      "chip": "ym2612"
    },
    {
      "channel": 0,
      "note": 71,
      "start": 38.0759,
      "duration": 0.1374,
      "velocity": 92,
      "chip": "ym2612"
    },
    {
      "channel": 5,
      "note": 71,
      "start": 38.0774,
      "duration": 0.1375,
      "velocity": 91,
      "chip": "ym2612"
    },
    {
      "channel": 4,
      "note": 73,
      "start": 38.0922,
      "duration": 0.3082,
      "velocity": 92,
      "chip": "ym2612"
    },
    {
      "channel": 0,
      "note": 69,
      "start": 38.2299,
      "duration": 0.3071,
      "velocity": 92,
      "chip": "ym2612"
    },
    {
      "channel": 1,
      "note": 42,
      "start": 38.2309,
      "duration": 0.46,
      "velocity": 81,
      "chip": "ym2612"
    },
    {
      "channel": 2,
      "note": 21,
      "start": 38.2343,
      "duration": 1.8896,
      "velocity": 111,
      "chip": "ym2612"
    },
    {
      "channel": 3,
      "note": 70,
      "start": 38.2352,
      "duration": 0.7564,
      "velocity": 91,
      "chip": "ym2612"
    },
    {
      "channel": 5,
      "note": 70,
      "start": 38.2375,
      "duration": 0.7798,
      "velocity": 91,
      "chip": "ym2612"
    },
    {
      "channel": 4,
      "note": 71,
      "start": 38.417,
      "duration": 0.137,
      "velocity": 92,
      "chip": "ym2612"
    },
    {
      "channel": 0,
      "note": 66,
      "start": 38.5536,
      "duration": 0.137,
      "velocity": 92,
      "chip": "ym2612"
    },
    {
      "channel": 4,
      "note": 69,
      "start": 38.5789,
      "duration": 0.2919,
      "velocity": 92,
      "chip": "ym2612"
    },
    {
      "channel": 0,
      "note": 62,
      "start": 38.7154,
      "duration": 0.3002,
      "velocity": 92,
      "chip": "ym2612"
    },
    {
      "channel": 1,
      "note": 47,
      "start": 38.7161,
      "duration": 0.4536,
      "velocity": 81,
      "chip": "ym2612"
    },
    {
      "channel": 4,
      "note": 66,
      "start": 38.8948,
      "duration": 0.1388,
      "velocity": 92,
      "chip": "ym2612"
    },
    {
      "channel": 0,
      "note": 64,
      "start": 39.0323,
      "duration": 0.1373,
      "velocity": 92,
      "chip": "ym2612"
    },
    {
      "channel": 5,
      "note": 66,
      "start": 39.0343,
      "duration": 0.4533,
      "velocity": 91,
      "chip": "ym2612"
    },
    {
      "channel": 4,
      "note": 62,
      "start": 39.0497,
      "duration": 0.2987,
      "velocity": 92,
      "chip": "ym2612"
    },
    {
      "channel": 0,
      "note": 61,
      "start": 39.1862,
      "duration": 0.3001,
      "velocity": 92,
      "chip": "ym2612"
    },
    {
      "channel": 1,
      "note": 49,
      "start": 39.1869,
      "duration": 0.4643,
      "velocity": 81,
      "chip": "ym2612"
    },
    {
      "channel": 4,
      "note": 64,
      "start": 39.3651,
      "duration": 0.1392,
      "velocity": 92,
      "chip": "ym2612"
    },
    {
      "channel": 0,
      "note": 62,
      "start": 39.503,
      "duration": 0.148,
      "velocity": 92,
      "chip": "ym2612"
    },
    {
      "channel": 5,
      "note": 66,
      "start": 39.5051,
      "duration": 0.4644,
      "velocity": 91,
      "chip": "ym2612"
    },
    {
      "channel": 4,
      "note": 61,
      "start": 39.5299,
      "duration": 0.2936,
      "velocity": 92,
      "chip": "ym2612"
    },
    {
      "channel": 0,
      "note": 59,
      "start": 39.6676,
      "duration": 0.3015,
      "velocity": 92,
      "chip": "ym2612"
    },
    {
      "channel": 1,
      "note": 50,
      "start": 39.6685,
      "duration": 0.455,
      "velocity": 81,
      "chip": "ym2612"
    },
    {
      "channel": 4,
      "note": 62,
      "start": 39.8493,
      "duration": 0.1375,
      "velocity": 92,
      "chip": "ym2612"
    },
    {
      "channel": 0,
      "note": 62,
      "start": 39.9857,
      "duration": 0.1376,
      "velocity": 92,
      "chip": "ym2612"
    },
    {
      "channel": 3,
      "note": 71,
      "start": 39.9865,
      "duration": 1.4111,
      "velocity": 91,
      "chip": "ym2612"
    },
    {
      "channel": 5,
      "note": 69,
      "start": 39.9874,
      "duration": 1.0913,
      "velocity": 91,
      "chip": "ym2612"
    },
    {
      "channel": 4,
      "note": 59,
      "start": 40.0024,
      "duration": 0.3045,
      "velocity": 92,
      "chip": "ym2612"
    },
    {
      "channel": 0,
      "note": 66,
      "start": 40.1401,
      "duration": 0.1493,
      "velocity": 92,
      "chip": "ym2612"
    },
    {
      "channel": 1,
      "note": 51,
      "start": 40.141,
      "duration": 0.1487,
      "velocity": 81,
      "chip": "ym2612"
    },
    {
      "channel": 4,
      "note": 62,
      "start": 40.3232,
      "duration": 0.1372,
      "velocity": 92,
      "chip": "ym2612"
    },
    {
      "channel": 0,
      "note": 69,
      "start": 40.4593,
      "duration": 0.1454,
      "velocity": 92,
      "chip": "ym2612"
    },
    {
      "channel": 1,
      "note": 52,
      "start": 40.46,
      "duration": 0.1448,
      "velocity": 81,
      "chip": "ym2612"
    },
    {
      "channel": 4,
      "note": 66,
      "start": 40.4846,
      "duration": 0.1383,
      "velocity": 92,
      "chip": "ym2612"
    },
    {
      "channel": 0,
      "note": 66,
      "start": 40.6214,
      "duration": 0.3002,
      "velocity": 92,
      "chip": "ym2612"
    },
    {
      "channel": 1,
      "note": 47,
      "start": 40.6222,
      "duration": 0.4562,
      "velocity": 81,
      "chip": "ym2612"
    },
    {
      "channel": 4,
      "note": 69,
      "start": 40.8005,
      "duration": 0.1395,
      "velocity": 92,
      "chip": "ym2612"
    },
    {
      "channel": 0,
      "note": 69,
      "start": 40.9384,
      "duration": 0.1399,
      "velocity": 92,
      "chip": "ym2612"
    },
    {
      "channel": 4,
      "note": 66,
      "start": 40.9582,
      "duration": 0.3008,
      "velocity": 92,
      "chip": "ym2612"
    },
    {
      "channel": 0,
      "note": 71,
      "start": 41.103,
      "duration": 0.2937,
      "velocity": 92,
      "chip": "ym2612"
    },
    {
      "channel": 1,
      "note": 40,
      "start": 41.104,
      "duration": 0.4572,
      "velocity": 81,
      "chip": "ym2612"
    },
    {
      "channel": 4,
      "note": 69,
      "start": 41.2756,
      "duration": 0.1507,
      "velocity": 92,
      "chip": "ym2612"
    },
    {
      "channel": 0,
      "note": 73,
      "start": 41.4217,
      "duration": 0.018,
      "velocity": 92,
      "chip": "ym2612"
    },
    {
      "channel": 2,
      "note": 45,
      "start": 41.4252,
      "duration": 0.4542,
      "velocity": 111,
      "chip": "ym2612"
    },
    {
      "channel": 3,
      "note": 71,
      "start": 41.4259,
      "duration": 0.4536,
      "velocity": 91,
      "chip": "ym2612"
    },
    {
      "channel": 5,
      "note": 68,
      "start": 41.4268,
      "duration": 0.4528,
      "velocity": 91,
      "chip": "ym2612"
    },
    {
      "channel": 4,
      "note": 71,
      "start": 41.4404,
      "duration": 0.3015,
      "velocity": 92,
      "chip": "ym2612"
    },
    {
      "channel": 0,
      "note": 75,
      "start": 41.457,
      "duration": 0.1039,
      "velocity": 92,
      "chip": "ym2612"
    },
    {
      "channel": 0,
      "note": 76,
      "start": 41.5775,
      "duration": 0.2768,
      "velocity": 92,
      "chip": "ym2612"
    },
    {
      "channel": 1,
      "note": 47,
      "start": 41.5785,
      "duration": 0.4559,
      "velocity": 81,
      "chip": "ym2612"
    },
    {
      "channel": 4,
      "note": 73,
      "start": 41.7586,
      "duration": 0.0158,
      "velocity": 92,
      "chip": "ym2612"
    },
    {
      "channel": 4,
      "note": 75,
      "start": 41.7983,
      "duration": 0.1003,
      "velocity": 92,
      "chip": "ym2612"
    },
    {
      "channel": 0,
      "note": 74,
      "start": 41.879,
      "duration": 0.0335,
      "velocity": 92,
      "chip": "ym2612"
    },
    {
      "channel": 2,
      "note": 45,
      "start": 41.8976,
      "duration": 0.1371,
      "velocity": 125,
      "chip": "ym2612"
    },
    {
      "channel": 3,
      "note": 68,
      "start": 41.8983,
      "duration": 1.0836,
      "velocity": 91,
      "chip": "ym2612"
    },
    {
      "channel": 5,
      "note": 64,
      "start": 41.8991,
      "duration": 1.083,
      "velocity": 91,
      "chip": "ym2612"
    },
    {
      "channel": 4,
      "note": 76,
      "start": 41.9133,
      "duration": 0.2838,
      "velocity": 92,
      "chip": "ym2612"
    },
    {
      "channel": 0,
      "note": 68,
      "start": 41.9373,
      "duration": 0.0399,
      "velocity": 92,
      "chip": "ym2612"
    },
    {
      "channel": 0,
      "note": 69,
      "start": 41.9941,
      "duration": 0.0399,
      "velocity": 92,
      "chip": "ym2612"
    },
    {
      "channel": 0,
      "note": 70,
      "start": 42.0588,
      "duration": 0.2914,
      "velocity": 92,
      "chip": "ym2612"
    },
    {
      "channel": 1,
      "note": 44,
      "start": 42.0596,
      "duration": 0.4528,
      "velocity": 81,
      "chip": "ym2612"
    },
    {
      "channel": 4,
      "note": 74,
      "start": 42.2138,
      "duration": 0.039,
      "velocity": 92,
      "chip": "ym2612"
    },
    {
      "channel": 4,
      "note": 68,
      "start": 42.2694,
      "duration": 0.0414,
      "velocity": 92,
      "chip": "ym2612"
    },
    {
      "channel": 4,
      "note": 69,
      "start": 42.3346,
      "duration": 0.0415,
      "velocity": 92,
      "chip": "ym2612"
    },
    {
      "channel": 0,
      "note": 71,
      "start": 42.3749,
      "duration": 0.1374,
      "velocity": 92,
      "chip": "ym2612"
    },
    {
      "channel": 4,
      "note": 70,
      "start": 42.3921,
      "duration": 0.2985,
      "velocity": 92,
      "chip": "ym2612"
    },
    {
      "channel": 0,
      "note": 69,
      "start": 42.5288,
      "duration": 0.2991,
      "velocity": 92,
      "chip": "ym2612"
    },
    {
      "channel": 1,
      "note": 45,
      "start": 42.5295,
      "duration": 0.4522,
      "velocity": 81,
      "chip": "ym2612"
    },
    {
      "channel": 4,
      "note": 71,
      "start": 42.7071,
      "duration": 0.1387,
      "velocity": 92,
      "chip": "ym2612"
    },
    {
      "channel": 0,
      "note": 68,
      "start": 42.8446,
      "duration": 0.137,
      "velocity": 92,
      "chip": "ym2612"
    },
    {
      "channel": 4,
      "note": 69,
      "start": 42.8619,
      "duration": 0.3025,
      "velocity": 92,
      "chip": "ym2612"
    },
    {
      "channel": 0,
      "note": 65,
      "start": 43.0067,
      "duration": 0.2954,
      "velocity": 92,
      "chip": "ym2612"
    },
    {
      "channel": 1,
      "note": 45,
      "start": 43.0077,
      "duration": 0.457,
      "velocity": 81,
      "chip": "ym2612"
    },
    {
      "channel": 3,
      "note": 68,
      "start": 43.0089,
      "duration": 0.9289,
      "velocity": 91,
      "chip": "ym2612"
    },
    {
      "channel": 5,
      "note": 61,
      "start": 43.0102,
      "duration": 0.9282,
      "velocity": 91,
      "chip": "ym2612"
    },
    {
      "channel": 4,
      "note": 68,
      "start": 43.1904,
      "duration": 0.137,
      "velocity": 92,
      "chip": "ym2612"
    },
    {
      "channel": 0,
      "note": 66,
      "start": 43.3269,
      "duration": 0.1374,
      "velocity": 92,
      "chip": "ym2612"
    },
    {
      "channel": 4,
      "note": 65,
      "start": 43.3432,
      "duration": 0.3019,
      "velocity": 92,
      "chip": "ym2612"
    },
    {
      "channel": 0,
      "note": 68,
      "start": 43.4809,
      "duration": 0.3008,
      "velocity": 92,
      "chip": "ym2612"
    },
    {
      "channel": 1,
      "note": 44,
      "start": 43.4818,
      "duration": 0.4554,
      "velocity": 81,
      "chip": "ym2612"
    },
    {
      "channel": 4,
      "note": 66,
      "start": 43.6618,
      "duration": 0.1399,
      "velocity": 92,
      "chip": "ym2612"
    },
    {
      "channel": 0,
      "note": 66,
      "start": 43.7982,
      "duration": 0.1387,
      "velocity": 92,
      "chip": "ym2612"
    },
    {
      "channel": 2,
      "note": 21,
      "start": 43.8014,
      "duration": 0.1361,
      "velocity": 111,
      "chip": "ym2612"
    },
    {
      "channel": 4,
      "note": 68,
      "start": 43.8248,
      "duration": 0.2936,
      "velocity": 92,
      "chip": "ym2612"
    },
    {
      "channel": 0,
      "note": 65,
      "start": 43.9617,
      "duration": 0.4562,
      "velocity": 92,
      "chip": "ym2612"
    },
    {
      "channel": 1,
      "note": 42,
      "start": 43.9625,
      "duration": 0.4555,
      "velocity": 81,
      "chip": "ym2612"
    },
    {
      "channel": 3,
      "note": 70,
      "start": 43.9635,
      "duration": 0.9263,
      "velocity": 91,
      "chip": "ym2612"
    },
    {
      "channel": 5,
      "note": 66,
      "start": 43.9642,
      "duration": 0.9258,
      "velocity": 91,
      "chip": "ym2612"
    },
    {
      "channel": 4,
      "note": 66,
      "start": 44.1423,
      "duration": 0.1386,
      "velocity": 92,
      "chip": "ym2612"
    },
    {
      "channel": 4,
      "note": 65,
      "start": 44.2983,
      "duration": 0.4525,
      "velocity": 92,
      "chip": "ym2612"
    },
    {
      "channel": 1,
      "note": 40,
      "start": 44.4348,
      "duration": 0.4547,
      "velocity": 81,
      "chip": "ym2612"
    },
    {
      "channel": 1,
      "note": 52,
      "start": 44.9145,
      "duration": 0.1429,
      "velocity": 81,
      "chip": "ym2612"
    },
    {
      "channel": 2,
      "note": 45,
      "start": 44.9184,
      "duration": 0.0582,
      "velocity": 125,
      "chip": "ym2612"
    },
    {
      "channel": 5,
      "note": 59,
      "start": 44.92,
      "duration": 0.9298,
      "velocity": 91,
      "chip": "ym2612"
    },
    {
      "channel": 2,
      "note": 21,
      "start": 44.9932,
      "duration": 0.0644,
      "velocity": 125,
      "chip": "ym2612"
    },
    {
      "channel": 2,
      "note": 22,
      "start": 45.0746,
      "duration": 0.1371,
      "velocity": 125,
      "chip": "ym2612"
    },
    {
      "channel": 1,
      "note": 40,
      "start": 45.2359,
      "duration": 0.1375,
      "velocity": 81,
      "chip": "ym2612"
    },
    {
      "channel": 2,
      "note": 21,
      "start": 45.2371,
      "duration": 0.1366,
      "velocity": 125,
      "chip": "ym2612"
    },
    {
      "channel": 3,
      "note": 64,
      "start": 45.2378,
      "duration": 0.6114,
      "velocity": 91,
      "chip": "ym2612"
    },
    {
      "channel": 1,
      "note": 40,
      "start": 45.3902,
      "duration": 0.4583,
      "velocity": 81,
      "chip": "ym2612"
    },
    {
      "channel": 2,
      "note": 22,
      "start": 45.3916,
      "duration": 0.1389,
      "velocity": 125,
      "chip": "ym2612"
    },
    {
      "channel": 2,
      "note": 21,
      "start": 45.5564,
      "duration": 0.1381,
      "velocity": 125,
      "chip": "ym2612"
    },
    {
      "channel": 2,
      "note": 22,
      "start": 45.7115,
      "duration": 0.1373,
      "velocity": 125,
      "chip": "ym2612"
    },
    {
      "channel": 1,
      "note": 44,
      "start": 45.8738,
      "duration": 0.459,
      "velocity": 81,
      "chip": "ym2612"
    },
    {
      "channel": 2,
      "note": 21,
      "start": 45.8772,
      "duration": 0.9291,
      "velocity": 127,
      "chip": "ym2612"
    },
    {
      "channel": 3,
      "note": 71,
      "start": 45.878,
      "duration": 0.9284,
      "velocity": 91,
      "chip": "ym2612"
    },
    {
      "channel": 5,
      "note": 64,
      "start": 45.879,
      "duration": 1.2471,
      "velocity": 91,
      "chip": "ym2612"
    },
    {
      "channel": 0,
      "note": 64,
      "start": 46.3521,
      "duration": 0.2987,
      "velocity": 77,
      "chip": "ym2612"
    },
    {
      "channel": 1,
      "note": 45,
      "start": 46.3528,
      "duration": 0.4534,
      "velocity": 81,
      "chip": "ym2612"
    },
    {
      "channel": 0,
      "note": 81,
      "start": 46.6675,
      "duration": 0.1385,
      "velocity": 77,
      "chip": "ym2612"
    },
    {
      "channel": 4,
      "note": 64,
      "start": 46.6953,
      "duration": 0.2921,
      "velocity": 77,
      "chip": "ym2612"
    },
    {
      "channel": 0,
      "note": 78,
      "start": 46.8305,
      "duration": 0.2941,
      "velocity": 77,
      "chip": "ym2612"
    },
    {
      "channel": 1,
      "note": 45,
      "start": 46.8315,
      "duration": 0.4552,
      "velocity": 81,
      "chip": "ym2612"
    },
    {
      "channel": 4,
      "note": 81,
      "start": 47.0128,
      "duration": 0.1375,
      "velocity": 77,
      "chip": "ym2612"
    },
    {
      "channel": 0,
      "note": 81,
      "start": 47.1492,
      "duration": 0.1371,
      "velocity": 77,
      "chip": "ym2612"
    },
    {
      "channel": 3,
      "note": 73,
      "start": 47.1501,
      "duration": 0.5151,
      "velocity": 91,
      "chip": "ym2612"
    },
    {
      "channel": 5,
      "note": 61,
      "start": 47.1509,
      "duration": 0.6119,
      "velocity": 91,
      "chip": "ym2612"
    },
    {
      "channel": 4,
      "note": 78,
      "start": 47.1656,
      "duration": 0.302,
      "velocity": 77,
      "chip": "ym2612"
    },
    {
      "channel": 0,
      "note": 83,
      "start": 47.303,
      "duration": 0.3013,
      "velocity": 77,
      "chip": "ym2612"
    },
    {
      "channel": 1,
      "note": 44,
      "start": 47.3039,
      "duration": 0.4576,
      "velocity": 81,
      "chip": "ym2612"
    },
    {
      "channel": 4,
      "note": 81,
      "start": 47.4842,
      "duration": 0.1407,
      "velocity": 77,
      "chip": "ym2612"
    },
    {
      "channel": 0,
      "note": 81,
      "start": 47.6209,
      "duration": 0.1403,
      "velocity": 77,
      "chip": "ym2612"
    },
    {
      "channel": 2,
      "note": 68,
      "start": 47.6246,
      "duration": 0.1372,
      "velocity": 111,
      "chip": "ym2612"
    },
    {
      "channel": 4,
      "note": 83,
      "start": 47.6494,
      "duration": 0.2925,
      "velocity": 77,
      "chip": "ym2612"
    },
    {
      "channel": 0,
      "note": 78,
      "start": 47.7859,
      "duration": 0.1387,
      "velocity": 77,
      "chip": "ym2612"
    },
    {
      "channel": 1,
      "note": 42,
      "start": 47.7867,
      "duration": 0.4545,
      "velocity": 81,
      "chip": "ym2612"
    },
    {
      "channel": 3,
      "note": 76,
      "start": 47.7877,
      "duration": 0.9246,
      "velocity": 91,
      "chip": "ym2612"
    },
    {
      "channel": 5,
      "note": 68,
      "start": 47.7885,
      "duration": 0.7695,
      "velocity": 91,
      "chip": "ym2612"
    },
    {
      "channel": 4,
      "note": 81,
      "start": 47.9656,
      "duration": 0.1382,
      "velocity": 77,
      "chip": "ym2612"
    },
    {
      "channel": 4,
      "note": 78,
      "start": 48.1205,
      "duration": 0.1383,
      "velocity": 77,
      "chip": "ym2612"
    },
    {
      "channel": 0,
      "note": 81,
      "start": 48.2577,
      "duration": 0.2989,
      "velocity": 77,
      "chip": "ym2612"
    },
    {
      "channel": 1,
      "note": 40,
      "start": 48.2584,
      "duration": 0.4537,
      "velocity": 81,
      "chip": "ym2612"
    },
    {
      "channel": 0,
      "note": 81,
      "start": 48.5734,
      "duration": 0.1386,
      "velocity": 77,
      "chip": "ym2612"
    },
    {
      "channel": 5,
      "note": 64,
      "start": 48.5755,
      "duration": 0.137,
      "velocity": 91,
      "chip": "ym2612"
    },
    {
      "channel": 4,
      "note": 81,
      "start": 48.5988,
      "duration": 0.294,
      "velocity": 77,
      "chip": "ym2612"
    },
    {
      "channel": 0,
      "note": 78,
      "start": 48.7369,
      "duration": 0.2931,
      "velocity": 77,
      "chip": "ym2612"
    },
    {
      "channel": 1,
      "note": 42,
      "start": 48.7378,
      "duration": 0.4563,
      "velocity": 81,
      "chip": "ym2612"
    },
    {
      "channel": 4,
      "note": 81,
      "start": 48.9183,
      "duration": 0.1408,
      "velocity": 77,
      "chip": "ym2612"
    },
    {
      "channel": 0,
      "note": 81,
      "start": 49.0546,
      "duration": 0.1393,
      "velocity": 77,
      "chip": "ym2612"
    },
    {
      "channel": 2,
      "note": 45,
      "start": 49.058,
      "duration": 0.4536,
      "velocity": 111,
      "chip": "ym2612"
    },
    {
      "channel": 3,
      "note": 68,
      "start": 49.0588,
      "duration": 0.5106,
      "velocity": 91,
      "chip": "ym2612"
    },
    {
      "channel": 5,
      "note": 59,
      "start": 49.0596,
      "duration": 0.6077,
      "velocity": 91,
      "chip": "ym2612"
    },
    {
      "channel": 4,
      "note": 78,
      "start": 49.0736,
      "duration": 0.3014,
      "velocity": 77,
      "chip": "ym2612"
    },
    {
      "channel": 1,
      "note": 44,
      "start": 49.2112,
      "duration": 0.4549,
      "velocity": 81,
      "chip": "ym2612"
    },
    {
      "channel": 4,
      "note": 81,
      "start": 49.3915,
      "duration": 0.1394,
      "velocity": 77,
      "chip": "ym2612"
    },
    {
      "channel": 2,
      "note": 45,
      "start": 49.5306,
      "duration": 0.1359,
      "velocity": 125,
      "chip": "ym2612"
    },
    {
      "channel": 1,
      "note": 40,
      "start": 49.6908,
      "duration": 0.4536,
      "velocity": 81,
      "chip": "ym2612"
    },
    {
      "channel": 5,
      "note": 59,
      "start": 49.692,
      "duration": 0.4527,
      "velocity": 91,
      "chip": "ym2612"
    },
    {
      "channel": 0,
      "note": 85,
      "start": 50.1609,
      "duration": 0.2994,
      "velocity": 77,
      "chip": "ym2612"
    },
    {
      "channel": 1,
      "note": 45,
      "start": 50.1615,
      "duration": 0.4529,
      "velocity": 81,
      "chip": "ym2612"
    },
    {
      "channel": 3,
      "note": 68,
      "start": 50.1624,
      "duration": 0.7725,
      "velocity": 91,
      "chip": "ym2612"
    },
    {
      "channel": 5,
      "note": 57,
      "start": 50.1632,
      "duration": 0.4515,
      "velocity": 91,
      "chip": "ym2612"
    },
    {
      "channel": 0,
      "note": 81,
      "start": 50.4769,
      "duration": 0.1374,
      "velocity": 77,
      "chip": "ym2612"
    },
    {
      "channel": 4,
      "note": 85,
      "start": 50.5014,
      "duration": 0.2951,
      "velocity": 77,
      "chip": "ym2612"
    },
    {
      "channel": 0,
      "note": 78,
      "start": 50.6395,
      "duration": 0.2946,
      "velocity": 77,
      "chip": "ym2612"
    },
    {
      "channel": 1,
      "note": 45,
      "start": 50.6404,
      "duration": 0.4566,
      "velocity": 81,
      "chip": "ym2612"
    },
    {
      "channel": 5,
      "note": 64,
      "start": 50.6422,
      "duration": 0.456,
      "velocity": 91,
      "chip": "ym2612"
    },
    {
      "channel": 4,
      "note": 81,
      "start": 50.8221,
      "duration": 0.1403,
      "velocity": 77,
      "chip": "ym2612"
    },
    {
      "channel": 0,
      "note": 81,
      "start": 50.9588,
      "duration": 0.1378,
      "velocity": 77,
      "chip": "ym2612"
    },
    {
      "channel": 2,
      "note": 21,
      "start": 50.962,
      "duration": 0.6074,
      "velocity": 111,
      "chip": "ym2612"
    },
    {
      "channel": 4,
      "note": 78,
      "start": 50.9758,
      "duration": 0.3022,
      "velocity": 77,
      "chip": "ym2612"
    },
    {
      "channel": 0,
      "note": 83,
      "start": 51.1133,
      "duration": 0.3013,
      "velocity": 77,
      "chip": "ym2612"
    },
    {
      "channel": 1,
      "note": 46,
      "start": 51.1143,
      "duration": 0.4548,
      "velocity": 81,
      "chip": "ym2612"
    },
    {
      "channel": 3,
      "note": 69,
      "start": 51.1155,
      "duration": 0.7697,
      "velocity": 91,
      "chip": "ym2612"
    },
    {
      "channel": 5,
      "note": 58,
      "start": 51.1167,
      "duration": 0.4536,
      "velocity": 91,
      "chip": "ym2612"
    },
    {
      "channel": 4,
      "note": 81,
      "start": 51.2946,
      "duration": 0.1373,
      "velocity": 77,
      "chip": "ym2612"
    },
    {
      "channel": 0,
      "note": 81,
      "start": 51.4316,
      "duration": 0.1372,
      "velocity": 77,
      "chip": "ym2612"
    },
    {
      "channel": 4,
      "note": 83,
      "start": 51.4571,
      "duration": 0.2916,
      "velocity": 77,
      "chip": "ym2612"
    },
    {
      "channel": 0,
      "note": 78,
      "start": 51.5936,
      "duration": 0.2914,
      "velocity": 77,
      "chip": "ym2612"
    },
    {
      "channel": 1,
      "note": 46,
      "start": 51.5943,
      "duration": 0.4529,
      "velocity": 81,
      "chip": "ym2612"
    },
    {
      "channel": 5,
      "note": 66,
      "start": 51.5957,
      "duration": 0.4519,
      "velocity": 91,
      "chip": "ym2612"
    },
    {
      "channel": 4,
      "note": 81,
      "start": 51.7729,
      "duration": 0.1382,
      "velocity": 77,
      "chip": "ym2612"
    },
    {
      "channel": 0,
      "note": 81,
      "start": 51.9097,
      "duration": 0.1374,
      "velocity": 77,
      "chip": "ym2612"
    },
    {
      "channel": 4,
      "note": 78,
      "start": 51.9269,
      "duration": 0.2987,
      "velocity": 77,
      "chip": "ym2612"
    },
    {
      "channel": 1,
      "note": 47,
      "start": 52.0639,
      "duration": 0.4536,
      "velocity": 81,
      "chip": "ym2612"
    },
    {
      "channel": 3,
      "note": 70,
      "start": 52.0647,
      "duration": 0.6738,
      "velocity": 91,
      "chip": "ym2612"
    },
    {
      "channel": 5,
      "note": 59,
      "start": 52.0655,
      "duration": 0.7713,
      "velocity": 91,
      "chip": "ym2612"
    },
    {
      "channel": 4,
      "note": 81,
      "start": 52.2422,
      "duration": 0.139,
      "velocity": 77,
      "chip": "ym2612"
    },
    {
      "channel": 0,
      "note": 85,
      "start": 52.3799,
      "duration": 0.1374,
      "velocity": 77,
      "chip": "ym2612"
    },
    {
      "channel": 0,
      "note": 78,
      "start": 52.542,
      "duration": 0.2931,
      "velocity": 77,
      "chip": "ym2612"
    },
    {
      "channel": 1,
      "note": 54,
      "start": 52.543,
      "duration": 0.1382,
      "velocity": 81,
      "chip": "ym2612"
    },
    {
      "channel": 4,
      "note": 85,
      "start": 52.7234,
      "duration": 0.1417,
      "velocity": 77,
      "chip": "ym2612"
    },
    {
      "channel": 0,
      "note": 81,
      "start": 52.8602,
      "duration": 0.1397,
      "velocity": 77,
      "chip": "ym2612"
    },
    {
      "channel": 1,
      "note": 52,
      "start": 52.8609,
      "duration": 0.1393,
      "velocity": 81,
      "chip": "ym2612"
    },
    {
      "channel": 2,
      "note": 45,
      "start": 52.8641,
      "duration": 0.2913,
      "velocity": 125,
      "chip": "ym2612"
    },
    {
      "channel": 3,
      "note": 68,
      "start": 52.8648,
      "duration": 0.5749,
      "velocity": 91,
      "chip": "ym2612"
    },
    {
      "channel": 5,
      "note": 64,
      "start": 52.8657,
      "duration": 0.6072,
      "velocity": 91,
      "chip": "ym2612"
    },
    {
      "channel": 4,
      "note": 78,
      "start": 52.8793,
      "duration": 0.3023,
      "velocity": 77,
      "chip": "ym2612"
    },
    {
      "channel": 1,
      "note": 47,
      "start": 53.017,
      "duration": 0.4544,
      "velocity": 81,
      "chip": "ym2612"
    },
    {
      "channel": 2,
      "note": 21,
      "start": 53.1808,
      "duration": 0.0161,
      "velocity": 125,
      "chip": "ym2612"
    },
    {
      "channel": 4,
      "note": 81,
      "start": 53.198,
      "duration": 0.1364,
      "velocity": 77,
      "chip": "ym2612"
    },
    {
      "channel": 2,
      "note": 22,
      "start": 53.2215,
      "duration": 0.0959,
      "velocity": 125,
      "chip": "ym2612"
    },
    {
      "channel": 2,
      "note": 21,
      "start": 53.3341,
      "duration": 0.1376,
      "velocity": 125,
      "chip": "ym2612"
    },
    {
      "channel": 1,
      "note": 40,
      "start": 53.496,
      "duration": 0.4578,
      "velocity": 81,
      "chip": "ym2612"
    },
    {
      "channel": 2,
      "note": 22,
      "start": 53.4992,
      "duration": 1.8788,
      "velocity": 111,
      "chip": "ym2612"
    },
    {
      "channel": 3,
      "note": 68,
      "start": 53.5,
      "duration": 0.9244,
      "velocity": 91,
      "chip": "ym2612"
    },
    {
      "channel": 5,
      "note": 64,
      "start": 53.5008,
      "duration": 0.4533,
      "velocity": 91,
      "chip": "ym2612"
    },
    {
      "channel": 0,
      "note": 85,
      "start": 53.9703,
      "duration": 0.2999,
      "velocity": 77,
      "chip": "ym2612"
    },
    {
      "channel": 1,
      "note": 45,
      "start": 53.971,
      "duration": 0.4532,
      "velocity": 81,
      "chip": "ym2612"
    },
    {
      "channel": 5,
      "note": 61,
      "start": 53.9719,
      "duration": 0.4527,
      "velocity": 91,
      "chip": "ym2612"
    },
    {
      "channel": 0,
      "note": 81,
      "start": 54.2869,
      "duration": 0.1373,
      "velocity": 77,
      "chip": "ym2612"
    },
    {
      "channel": 4,
      "note": 85,
      "start": 54.3113,
      "duration": 0.295,
      "velocity": 77,
      "chip": "ym2612"
    },
    {
      "channel": 0,
      "note": 78,
      "start": 54.449,
      "duration": 0.2941,
      "velocity": 77,
      "chip": "ym2612"
    },
    {
      "channel": 1,
      "note": 45,
      "start": 54.45,
      "duration": 0.4552,
      "velocity": 81,
      "chip": "ym2612"
    },
    {
      "channel": 5,
      "note": 68,
      "start": 54.4519,
      "duration": 0.2927,
      "velocity": 91,
      "chip": "ym2612"
    },
    {
      "channel": 4,
      "note": 81,
      "start": 54.6316,
      "duration": 0.1373,
      "velocity": 77,
      "chip": "ym2612"
    },
    {
      "channel": 0,
      "note": 81,
      "start": 54.7678,
      "duration": 0.1371,
      "velocity": 77,
      "chip": "ym2612"
    },
    {
      "channel": 3,
      "note": 73,
      "start": 54.7686,
      "duration": 0.4544,
      "velocity": 91,
      "chip": "ym2612"
    },
    {
      "channel": 5,
      "note": 68,
      "start": 54.7694,
      "duration": 0.4537,
      "velocity": 91,
      "chip": "ym2612"
    },
    {
      "channel": 4,
      "note": 78,
      "start": 54.7841,
      "duration": 0.302,
      "velocity": 77,
      "chip": "ym2612"
    },
    {
      "channel": 0,
      "note": 83,
      "start": 54.9215,
      "duration": 0.3013,
      "velocity": 77,
      "chip": "ym2612"
    },
    {
      "channel": 1,
      "note": 44,
      "start": 54.9227,
      "duration": 0.4549,
      "velocity": 81,
      "chip": "ym2612"
    },
    {
      "channel": 4,
      "note": 81,
      "start": 55.1027,
      "duration": 0.1378,
      "velocity": 77,
      "chip": "ym2612"
    },
    {
      "channel": 0,
      "note": 81,
      "start": 55.2393,
      "duration": 0.138,
      "velocity": 77,
      "chip": "ym2612"
    },
    {
      "channel": 3,
      "note": 73,
      "start": 55.2402,
      "duration": 0.138,
      "velocity": 91,
      "chip": "ym2612"
    },
    {
      "channel": 5,
      "note": 68,
      "start": 55.2411,
      "duration": 0.9326,
      "velocity": 91,
      "chip": "ym2612"
    },
    {
      "channel": 4,
      "note": 83,
      "start": 55.2659,
      "duration": 0.2915,
      "velocity": 77,
      "chip": "ym2612"
    },
    {
      "channel": 0,
      "note": 78,
      "start": 55.4022,
      "duration": 0.1375,
      "velocity": 77,
      "chip": "ym2612"
    },
    {
      "channel": 1,
      "note": 42,
      "start": 55.403,
      "duration": 0.4534,
      "velocity": 81,
      "chip": "ym2612"
    },
    {
      "channel": 4,
      "note": 81,
      "start": 55.5813,
      "duration": 0.1382,
      "velocity": 77,
      "chip": "ym2612"
    },
    {
      "channel": 4,
      "note": 78,
      "start": 55.736,
      "duration": 0.1382,
      "velocity": 77,
      "chip": "ym2612"
    },
    {
      "channel": 0,
      "note": 81,
      "start": 55.8732,
      "duration": 0.2988,
      "velocity": 77,
      "chip": "ym2612"
    },
    {
      "channel": 1,
      "note": 40,
      "start": 55.8739,
      "duration": 0.4629,
      "velocity": 81,
      "chip": "ym2612"
    },
    {
      "channel": 0,
      "note": 81,
      "start": 56.1886,
      "duration": 0.1478,
      "velocity": 77,
      "chip": "ym2612"
    },
    {
      "channel": 3,
      "note": 68,
      "start": 56.1905,
      "duration": 0.9394,
      "velocity": 91,
      "chip": "ym2612"
    },
    {
      "channel": 5,
      "note": 64,
      "start": 56.1918,
      "duration": 0.6204,
      "velocity": 91,
      "chip": "ym2612"
    },
    {
      "channel": 4,
      "note": 81,
      "start": 56.2151,
      "duration": 0.2954,
      "velocity": 77,
      "chip": "ym2612"
    },
    {
      "channel": 0,
      "note": 78,
      "start": 56.3532,
      "duration": 0.3031,
      "velocity": 77,
      "chip": "ym2612"
    },
    {
      "channel": 1,
      "note": 40,
      "start": 56.3541,
      "duration": 0.4569,
      "velocity": 81,
      "chip": "ym2612"
    },
    {
      "channel": 4,
      "note": 81,
      "start": 56.536,
      "duration": 0.1406,
      "velocity": 77,
      "chip": "ym2612"
    },
    {
      "channel": 0,
      "note": 81,
      "start": 56.6731,
      "duration": 0.1375,
      "velocity": 77,
      "chip": "ym2612"
    },
    {
      "channel": 2,
      "note": 45,
      "start": 56.6763,
      "duration": 0.4535,
      "velocity": 111,
      "chip": "ym2612"
    },
    {
      "channel": 4,
      "note": 78,
      "start": 56.6904,
      "duration": 0.3022,
      "velocity": 77,
      "chip": "ym2612"
    },
    {
      "channel": 1,
      "note": 44,
      "start": 56.8278,
      "duration": 0.4644,
      "velocity": 81,
      "chip": "ym2612"
    },
    {
      "channel": 5,
      "note": 59,
      "start": 56.8295,
      "duration": 0.4632,
      "velocity": 91,
      "chip": "ym2612"
    },
    {
      "channel": 4,
      "note": 81,
      "start": 57.0092,
      "duration": 0.1407,
      "velocity": 77,
      "chip": "ym2612"
    },
    {
      "channel": 0,
      "note": 85,
      "start": 57.1463,
      "duration": 0.1459,
      "velocity": 77,
      "chip": "ym2612"
    },
    {
      "channel": 2,
      "note": 45,
      "start": 57.1495,
      "duration": 0.1429,
      "velocity": 125,
      "chip": "ym2612"
    },
    {
      "channel": 0,
      "note": 84,
      "start": 57.3088,
      "duration": 0.9353,
      "velocity": 77,
      "chip": "ym2612"
    },
    {
      "channel": 1,
      "note": 47,
      "start": 57.3095,
      "duration": 0.4544,
      "velocity": 81,
      "chip": "ym2612"
    },
    {
      "channel": 3,
      "note": 68,
      "start": 57.3105,
      "duration": 0.4536,
      "velocity": 91,
      "chip": "ym2612"
    },
    {
      "channel": 5,
      "note": 60,
      "start": 57.3113,
      "duration": 0.453,
      "velocity": 91,
      "chip": "ym2612"
    },
    {
      "channel": 4,
      "note": 85,
      "start": 57.4895,
      "duration": 0.1375,
      "velocity": 77,
      "chip": "ym2612"
    },
    {
      "channel": 4,
      "note": 84,
      "start": 57.6437,
      "duration": 0.9375,
      "velocity": 77,
      "chip": "ym2612"
    },
    {
      "channel": 1,
      "note": 49,
      "start": 57.7894,
      "duration": 0.455,
      "velocity": 81,
      "chip": "ym2612"
    },
    {
      "channel": 3,
      "note": 68,
      "start": 57.7907,
      "duration": 0.4542,
      "velocity": 91,
      "chip": "ym2612"
    },
    {
      "channel": 5,
      "note": 61,
      "start": 57.7922,
      "duration": 0.4536,
      "velocity": 91,
      "chip": "ym2612"
    },
    {
      "channel": 2,
      "note": 21,
      "start": 58.1096,
      "duration": 0.4539,
      "velocity": 111,
      "chip": "ym2612"
    },
    {
      "channel": 0,
      "note": 85,
      "start": 58.2607,
      "duration": 0.3026,
      "velocity": 77,
      "chip": "ym2612"
    },
    {
      "channel": 1,
      "note": 49,
      "start": 58.2617,
      "duration": 0.456,
      "velocity": 81,
      "chip": "ym2612"
    },
    {
      "channel": 3,
      "note": 85,
      "start": 58.2629,
      "duration": 0.3007,
      "velocity": 91,
      "chip": "ym2612"
    },
    {
      "channel": 5,
      "note": 73,
      "start": 58.2644,
      "duration": 0.2994,
      "velocity": 91,
      "chip": "ym2612"
    },
    {
      "channel": 2,
      "note": 45,
      "start": 58.5802,
      "duration": 0.6177,
      "velocity": 111,
      "chip": "ym2612"
    },
    {
      "channel": 3,
      "note": 84,
      "start": 58.581,
      "duration": 0.4527,
      "velocity": 91,
      "chip": "ym2612"
    },
    {
      "channel": 5,
      "note": 72,
      "start": 58.5818,
      "duration": 0.452,
      "velocity": 91,
      "chip": "ym2612"
    },
    {
      "channel": 4,
      "note": 85,
      "start": 58.5963,
      "duration": 0.3003,
      "velocity": 77,
      "chip": "ym2612"
    },
    {
      "channel": 0,
      "note": 85,
      "start": 58.7421,
      "duration": 0.2913,
      "velocity": 77,
      "chip": "ym2612"
    },
    {
      "channel": 1,
      "note": 40,
      "start": 58.7428,
      "duration": 0.455,
      "velocity": 81,
      "chip": "ym2612"
    },
    {
      "channel": 0,
      "note": 85,
      "start": 59.0583,
      "duration": 0.9277,
      "velocity": 77,
      "chip": "ym2612"
    },
    {
      "channel": 3,
      "note": 83,
      "start": 59.0597,
      "duration": 0.6084,
      "velocity": 91,
      "chip": "ym2612"
    },
    {
      "channel": 5,
      "note": 71,
      "start": 59.061,
      "duration": 0.6073,
      "velocity": 91,
      "chip": "ym2612"
    },
    {
      "channel": 4,
      "note": 85,
      "start": 59.078,
      "duration": 0.2986,
      "velocity": 77,
      "chip": "ym2612"
    },
    {
      "channel": 1,
      "note": 41,
      "start": 59.2149,
      "duration": 0.453,
      "velocity": 81,
      "chip": "ym2612"
    },
    {
      "channel": 4,
      "note": 85,
      "start": 59.3932,
      "duration": 0.9422,
      "velocity": 77,
      "chip": "ym2612"
    },
    {
      "channel": 1,
      "note": 42,
      "start": 59.6935,
      "duration": 0.4546,
      "velocity": 81,
      "chip": "ym2612"
    },
    {
      "channel": 5,
      "note": 66,
      "start": 59.6954,
      "duration": 0.4541,
      "velocity": 91,
      "chip": "ym2612"
    },
    {
      "channel": 0,
      "note": 78,
      "start": 60.0108,
      "duration": 0.137,
      "velocity": 77,
      "chip": "ym2612"
    },
    {
      "channel": 0,
      "note": 78,
      "start": 60.1647,
      "duration": 0.3071,
      "velocity": 77,
      "chip": "ym2612"
    },
    {
      "channel": 1,
      "note": 42,
      "start": 60.1658,
      "duration": 0.4605,
      "velocity": 81,
      "chip": "ym2612"
    },
    {
      "channel": 2,
      "note": 45,
      "start": 60.1691,
      "duration": 0.4576,
      "velocity": 111,
      "chip": "ym2612"
    },
    {
      "channel": 5,
      "note": 54,
      "start": 60.1718,
      "duration": 0.1378,
      "velocity": 91,
      "chip": "ym2612"
    },
    {
      "channel": 3,
      "note": 82,
      "start": 60.3349,
      "duration": 0.7776,
      "velocity": 91,
      "chip": "ym2612"
    },
    {
      "channel": 5,
      "note": 78,
      "start": 60.3362,
      "duration": 0.136,
      "velocity": 91,
      "chip": "ym2612"
    },
    {
      "channel": 4,
      "note": 78,
      "start": 60.352,
      "duration": 0.1369,
      "velocity": 77,
      "chip": "ym2612"
    },
    {
      "channel": 0,
      "note": 79,
      "start": 60.4885,
      "duration": 0.1375,
      "velocity": 77,
      "chip": "ym2612"
    },
    {
      "channel": 5,
      "note": 76,
      "start": 60.4902,
      "duration": 0.1373,
      "velocity": 91,
      "chip": "ym2612"
    },
    {
      "channel": 4,
      "note": 78,
      "start": 60.5141,
      "duration": 0.2978,
      "velocity": 77,
      "chip": "ym2612"
    },
    {
      "channel": 0,
      "note": 78,
      "start": 60.6508,
      "duration": 0.2974,
      "velocity": 77,
      "chip": "ym2612"
    },
    {
      "channel": 1,
      "note": 49,
      "start": 60.6516,
      "duration": 0.4607,
      "velocity": 81,
      "chip": "ym2612"
    },
    {
      "channel": 2,
      "note": 45,
      "start": 60.6548,
      "duration": 0.1375,
      "velocity": 89,
      "chip": "ym2612"
    },
    {
      "channel": 5,
      "note": 75,
      "start": 60.6564,
      "duration": 0.1368,
      "velocity": 91,
      "chip": "ym2612"
    },
    {
      "channel": 2,
      "note": 50,
      "start": 60.8112,
      "duration": 0.3012,
      "velocity": 125,
      "chip": "ym2612"
    },
    {
      "channel": 5,
      "note": 73,
      "start": 60.8128,
      "duration": 0.1357,
      "velocity": 91,
      "chip": "ym2612"
    },
    {
      "channel": 4,
      "note": 79,
      "start": 60.8357,
      "duration": 0.1388,
      "velocity": 77,
      "chip": "ym2612"
    },
    {
      "channel": 0,
      "note": 77,
      "start": 60.9732,
      "duration": 0.139,
      "velocity": 77,
      "chip": "ym2612"
    },
    {
      "channel": 5,
      "note": 71,
      "start": 60.9757,
      "duration": 0.137,
      "velocity": 91,
      "chip": "ym2612"
    },
    {
      "channel": 4,
      "note": 78,
      "start": 60.9919,
      "duration": 0.3033,
      "velocity": 77,
      "chip": "ym2612"
    },
    {
      "channel": 1,
      "note": 42,
      "start": 61.129,
      "duration": 0.458,
      "velocity": 81,
      "chip": "ym2612"
    },
    {
      "channel": 2,
      "note": 21,
      "start": 61.1322,
      "duration": 1.8885,
      "velocity": 111,
      "chip": "ym2612"
    },
    {
      "channel": 3,
      "note": 70,
      "start": 61.1329,
      "duration": 0.7574,
      "velocity": 91,
      "chip": "ym2612"
    },
    {
      "channel": 5,
      "note": 70,
      "start": 61.1346,
      "duration": 0.7729,
      "velocity": 91,
      "chip": "ym2612"
    },
    {
      "channel": 4,
      "note": 77,
      "start": 61.3117,
      "duration": 0.1387,
      "velocity": 77,
      "chip": "ym2612"
    },
    {
      "channel": 0,
      "note": 78,
      "start": 61.6115,
      "duration": 0.2945,
      "velocity": 77,
      "chip": "ym2612"
    },
    {
      "channel": 1,
      "note": 47,
      "start": 61.6125,
      "duration": 0.4557,
      "velocity": 81,
      "chip": "ym2612"
    },
    {
      "channel": 0,
      "note": 81,
      "start": 61.9305,
      "duration": 0.1375,
      "velocity": 77,
      "chip": "ym2612"
    },
    {
      "channel": 5,
      "note": 66,
      "start": 61.9314,
      "duration": 0.4552,
      "velocity": 91,
      "chip": "ym2612"
    },
    {
      "channel": 4,
      "note": 78,
      "start": 61.9467,
      "duration": 0.3031,
      "velocity": 77,
      "chip": "ym2612"
    },
    {
      "channel": 0,
      "note": 78,
      "start": 62.0845,
      "duration": 0.3018,
      "velocity": 77,
      "chip": "ym2612"
    },
    {
      "channel": 1,
      "note": 49,
      "start": 62.0855,
      "duration": 0.4553,
      "velocity": 81,
      "chip": "ym2612"
    },
    {
      "channel": 4,
      "note": 81,
      "start": 62.2665,
      "duration": 0.1368,
      "velocity": 77,
      "chip": "ym2612"
    },
    {
      "channel": 0,
      "note": 74,
      "start": 62.4029,
      "duration": 0.1375,
      "velocity": 77,
      "chip": "ym2612"
    },
    {
      "channel": 5,
      "note": 66,
      "start": 62.404,
      "duration": 0.4532,
      "velocity": 91,
      "chip": "ym2612"
    },
    {
      "channel": 4,
      "note": 78,
      "start": 62.4285,
      "duration": 0.2912,
      "velocity": 77,
      "chip": "ym2612"
    },
    {
      "channel": 1,
      "note": 50,
      "start": 62.5654,
      "duration": 0.4553,
      "velocity": 81,
      "chip": "ym2612"
    },
    {
      "channel": 4,
      "note": 74,
      "start": 62.7438,
      "duration": 0.1398,
      "velocity": 77,
      "chip": "ym2612"
    },
    {
      "channel": 0,
      "note": 71,
      "start": 62.8816,
      "duration": 0.4563,
      "velocity": 77,
      "chip": "ym2612"
    },
    {
      "channel": 3,
      "note": 71,
      "start": 62.8831,
      "duration": 1.4088,
      "velocity": 91,
      "chip": "ym2612"
    },
    {
      "channel": 5,
      "note": 69,
      "start": 62.8845,
      "duration": 1.0898,
      "velocity": 91,
      "chip": "ym2612"
    },
    {
      "channel": 1,
      "note": 51,
      "start": 63.0376,
      "duration": 0.1382,
      "velocity": 81,
      "chip": "ym2612"
    },
    {
      "channel": 4,
      "note": 71,
      "start": 63.2165,
      "duration": 0.4572,
      "velocity": 77,
      "chip": "ym2612"
    },
    {
      "channel": 0,
      "note": 71,
      "start": 63.3545,
      "duration": 0.1377,
      "velocity": 77,
      "chip": "ym2612"
    },
    {
      "channel": 1,
      "note": 52,
      "start": 63.3554,
      "duration": 0.1368,
      "velocity": 81,
      "chip": "ym2612"
    },
    {
      "channel": 0,
      "note": 71,
      "start": 63.5168,
      "duration": 0.2938,
      "velocity": 77,
      "chip": "ym2612"
    },
    {
      "channel": 1,
      "note": 47,
      "start": 63.5178,
      "duration": 0.4554,
      "velocity": 81,
      "chip": "ym2612"
    },
    {
      "channel": 4,
      "note": 71,
      "start": 63.6993,
      "duration": 0.1366,
      "velocity": 77,
      "chip": "ym2612"
    },
    {
      "channel": 0,
      "note": 74,
      "start": 63.8355,
      "duration": 0.1375,
      "velocity": 77,
      "chip": "ym2612"
    },
    {
      "channel": 4,
      "note": 71,
      "start": 63.8519,
      "duration": 0.3028,
      "velocity": 77,
      "chip": "ym2612"
    },
    {
      "channel": 0,
      "note": 71,
      "start": 63.9899,
      "duration": 0.3018,
      "velocity": 77,
      "chip": "ym2612"
    },
    {
      "channel": 1,
      "note": 40,
      "start": 63.9909,
      "duration": 0.4572,
      "velocity": 81,
      "chip": "ym2612"
    },
    {
      "channel": 4,
      "note": 74,
      "start": 64.1713,
      "duration": 0.1411,
      "velocity": 77,
      "chip": "ym2612"
    },
    {
      "channel": 0,
      "note": 74,
      "start": 64.3082,
      "duration": 0.1396,
      "velocity": 77,
      "chip": "ym2612"
    },
    {
      "channel": 2,
      "note": 45,
      "start": 64.3114,
      "duration": 0.4527,
      "velocity": 111,
      "chip": "ym2612"
    },
    {
      "channel": 3,
      "note": 71,
      "start": 64.3121,
      "duration": 0.4521,
      "velocity": 91,
      "chip": "ym2612"
    },
    {
      "channel": 5,
      "note": 68,
      "start": 64.313,
      "duration": 0.4514,
      "velocity": 91,
      "chip": "ym2612"
    },
    {
      "channel": 4,
      "note": 71,
      "start": 64.3354,
      "duration": 0.2916,
      "velocity": 77,
      "chip": "ym2612"
    },
    {
      "channel": 1,
      "note": 47,
      "start": 64.4734,
      "duration": 0.4578,
      "velocity": 81,
      "chip": "ym2612"
    },
    {
      "channel": 4,
      "note": 74,
      "start": 64.6509,
      "duration": 0.1432,
      "velocity": 77,
      "chip": "ym2612"
    },
    {
      "channel": 0,
      "note": 78,
      "start": 64.7886,
      "duration": 0.1424,
      "velocity": 77,
      "chip": "ym2612"
    },
    {
      "channel": 2,
      "note": 45,
      "start": 64.7926,
      "duration": 0.1388,
      "velocity": 125,
      "chip": "ym2612"
    },
    {
      "channel": 3,
      "note": 68,
      "start": 64.7935,
      "duration": 1.089,
      "velocity": 91,
      "chip": "ym2612"
    },
    {
      "channel": 5,
      "note": 64,
      "start": 64.7948,
      "duration": 1.0884,
      "velocity": 91,
      "chip": "ym2612"
    },
    {
      "channel": 1,
      "note": 44,
      "start": 64.9483,
      "duration": 0.453,
      "velocity": 81,
      "chip": "ym2612"
    },
    {
      "channel": 4,
      "note": 78,
      "start": 65.1266,
      "duration": 0.1389,
      "velocity": 77,
      "chip": "ym2612"
    },
    {
      "channel": 0,
      "note": 81,
      "start": 65.2643,
      "duration": 0.1369,
      "velocity": 77,
      "chip": "ym2612"
    },
    {
      "channel": 0,
      "note": 80,
      "start": 65.426,
      "duration": 0.2938,
      "velocity": 77,
      "chip": "ym2612"
    },
    {
      "channel": 1,
      "note": 45,
      "start": 65.4269,
      "duration": 0.455,
      "velocity": 81,
      "chip": "ym2612"
    },
    {
      "channel": 4,
      "note": 81,
      "start": 65.6077,
      "duration": 0.1366,
      "velocity": 77,
      "chip": "ym2612"
    },
    {
      "channel": 4,
      "note": 80,
      "start": 65.7611,
      "duration": 0.3037,
      "velocity": 77,
      "chip": "ym2612"
    },
    {
      "channel": 0,
      "note": 85,
      "start": 65.8983,
      "duration": 0.3029,
      "velocity": 77,
      "chip": "ym2612"
    },
    {
      "channel": 1,
      "note": 45,
      "start": 65.8993,
      "duration": 0.4559,
      "velocity": 81,
      "chip": "ym2612"
    },
    {
      "channel": 3,
      "note": 68,
      "start": 65.9005,
      "duration": 0.9356,
      "velocity": 91,
      "chip": "ym2612"
    },
    {
      "channel": 5,
      "note": 61,
      "start": 65.9017,
      "duration": 0.9346,
      "velocity": 91,
      "chip": "ym2612"
    },
    {
      "channel": 0,
      "note": 85,
      "start": 66.2177,
      "duration": 0.1371,
      "velocity": 77,
      "chip": "ym2612"
    },
    {
      "channel": 4,
      "note": 85,
      "start": 66.243,
      "duration": 0.2912,
      "velocity": 77,
      "chip": "ym2612"
    },
    {
      "channel": 1,
      "note": 44,
      "start": 66.3798,
      "duration": 0.4561,
      "velocity": 81,
      "chip": "ym2612"
    },
    {
      "channel": 4,
      "note": 85,
      "start": 66.558,
      "duration": 0.1419,
      "velocity": 77,
      "chip": "ym2612"
    },
    {
      "channel": 0,
      "note": 80,
      "start": 66.6955,
      "duration": 0.9329,
      "velocity": 77,
      "chip": "ym2612"
    },
    {
      "channel": 2,
      "note": 21,
      "start": 66.6991,
      "duration": 0.1368,
      "velocity": 111,
      "chip": "ym2612"
    },
    {
      "channel": 1,
      "note": 42,
      "start": 66.8529,
      "duration": 0.456,
      "velocity": 81,
      "chip": "ym2612"
    },
    {
      "channel": 3,
      "note": 70,
      "start": 66.8539,
      "duration": 0.9374,
      "velocity": 91,
      "chip": "ym2612"
    },
    {
      "channel": 5,
      "note": 66,
      "start": 66.8546,
      "duration": 0.9375,
      "velocity": 91,
      "chip": "ym2612"
    },
    {
      "channel": 4,
      "note": 80,
      "start": 67.0327,
      "duration": 0.941,
      "velocity": 77,
      "chip": "ym2612"
    },
    {
      "channel": 1,
      "note": 40,
      "start": 67.3346,
      "duration": 0.4561,
      "velocity": 81,
      "chip": "ym2612"
    },
    {
      "channel": 0,
      "note": 76,
      "start": 67.653,
      "duration": 0.1373,
      "velocity": 77,
      "chip": "ym2612"
    },
    {
      "channel": 0,
      "note": 76,
      "start": 67.807,
      "duration": 0.1402,
      "velocity": 77,
      "chip": "ym2612"
    },
    {
      "channel": 1,
      "note": 52,
      "start": 67.808,
      "duration": 0.1393,
      "velocity": 81,
      "chip": "ym2612"
    },
    {
      "channel": 5,
      "note": 59,
      "start": 67.8102,
      "duration": 0.9436,
      "velocity": 91,
      "chip": "ym2612"
    },
    {
      "channel": 0,
      "note": 78,
      "start": 67.972,
      "duration": 0.1382,
      "velocity": 77,
      "chip": "ym2612"
    },
    {
      "channel": 4,
      "note": 76,
      "start": 67.9897,
      "duration": 0.1421,
      "velocity": 77,
      "chip": "ym2612"
    },
    {
      "channel": 0,
      "note": 76,
      "start": 68.1268,
      "duration": 0.1397,
      "velocity": 77,
      "chip": "ym2612"
    },
    {
      "channel": 1,
      "note": 40,
      "start": 68.1275,
      "duration": 0.1393,
      "velocity": 81,
      "chip": "ym2612"
    },
    {
      "channel": 2,
      "note": 45,
      "start": 68.1307,
      "duration": 0.1364,
      "velocity": 111,
      "chip": "ym2612"
    },
    {
      "channel": 3,
      "note": 64,
      "start": 68.1315,
      "duration": 0.6222,
      "velocity": 91,
      "chip": "ym2612"
    },
    {
      "channel": 4,
      "note": 76,
      "start": 68.1541,
      "duration": 0.1419,
      "velocity": 77,
      "chip": "ym2612"
    },
    {
      "channel": 0,
      "note": 73,
      "start": 68.2912,
      "duration": 0.1402,
      "velocity": 77,
      "chip": "ym2612"
    },
    {
      "channel": 1,
      "note": 40,
      "start": 68.292,
      "duration": 0.4614,
      "velocity": 81,
      "chip": "ym2612"
    },
    {
      "channel": 2,
      "note": 45,
      "start": 68.2956,
      "duration": 0.0148,
      "velocity": 125,
      "chip": "ym2612"
    },
    {
      "channel": 4,
      "note": 78,
      "start": 68.3111,
      "duration": 0.1391,
      "velocity": 77,
      "chip": "ym2612"
    },
    {
      "channel": 2,
      "note": 22,
      "start": 68.336,
      "duration": 0.0961,
      "velocity": 125,
      "chip": "ym2612"
    },
    {
      "channel": 0,
      "note": 71,
      "start": 68.4483,
      "duration": 0.1382,
      "velocity": 77,
      "chip": "ym2612"
    },
    {
      "channel": 2,
      "note": 21,
      "start": 68.4495,
      "duration": 0.1372,
      "velocity": 125,
      "chip": "ym2612"
    },
    {
      "channel": 4,
      "note": 76,
      "start": 68.4737,
      "duration": 0.142,
      "velocity": 77,
      "chip": "ym2612"
    },
    {
      "channel": 0,
      "note": 73,
      "start": 68.6112,
      "duration": 0.142,
      "velocity": 77,
      "chip": "ym2612"
    },
    {
      "channel": 2,
      "note": 22,
      "start": 68.6149,
      "duration": 0.1385,
      "velocity": 89,
      "chip": "ym2612"
    },
    {
      "channel": 4,
      "note": 73,
      "start": 68.6331,
      "duration": 0.1458,
      "velocity": 77,
      "chip": "ym2612"
    },
    {
      "channel": 0,
      "note": 64,
      "start": 68.7733,
      "duration": 0.3055,
      "velocity": 92,
      "chip": "ym2612"
    },
    {
      "channel": 1,
      "note": 44,
      "start": 68.7742,
      "duration": 0.46,
      "velocity": 81,
      "chip": "ym2612"
    },
    {
      "channel": 2,
      "note": 50,
      "start": 68.7777,
      "duration": 0.9385,
      "velocity": 127,
      "chip": "ym2612"
    },
    {
      "channel": 3,
      "note": 71,
      "start": 68.7786,
      "duration": 0.938,
      "velocity": 91,
      "chip": "ym2612"
    },
    {
      "channel": 5,
      "note": 64,
      "start": 68.7795,
      "duration": 1.2554,
      "velocity": 91,
      "chip": "ym2612"
    },
    {
      "channel": 4,
      "note": 71,
      "start": 68.8046,
      "duration": 0.1369,
      "velocity": 77,
      "chip": "ym2612"
    },
    {
      "channel": 4,
      "note": 73,
      "start": 68.9581,
      "duration": 0.1388,
      "velocity": 77,
      "chip": "ym2612"
    },
    {
      "channel": 0,
      "note": 73,
      "start": 69.0955,
      "duration": 0.1385,
      "velocity": 92,
      "chip": "ym2612"
    },
    {
      "channel": 4,
      "note": 64,
      "start": 69.1239,
      "duration": 0.2918,
      "velocity": 92,
      "chip": "ym2612"
    },
    {
      "channel": 0,
      "note": 72,
      "start": 69.2588,
      "duration": 0.2946,
      "velocity": 92,
      "chip": "ym2612"
    },
    {
      "channel": 1,
      "note": 45,
      "start": 69.2598,
      "duration": 0.4562,
      "velocity": 81,
      "chip": "ym2612"
    },
    {
      "channel": 4,
      "note": 73,
      "start": 69.4415,
      "duration": 0.1371,
      "velocity": 92,
      "chip": "ym2612"
    },
    {
      "channel": 0,
      "note": 73,
      "start": 69.5782,
      "duration": 0.1374,
      "velocity": 92,
      "chip": "ym2612"
    },
    {
      "channel": 4,
      "note": 72,
      "start": 69.5945,
      "duration": 0.3032,
      "velocity": 92,
      "chip": "ym2612"
    },
    {
      "channel": 1,
      "note": 45,
      "start": 69.7327,
      "duration": 0.3122,
      "velocity": 81,
      "chip": "ym2612"
    },
    {
      "channel": 4,
      "note": 73,
      "start": 69.9142,
      "duration": 0.1307,
      "velocity": 92,
      "chip": "ym2612"
    }
  ]
}