{
  "track_name": "07 - The Destinies",
  "duration_sec": 46.174,
  "sample_rate": 44100,
  "note_count": 625,
  "unique_pitches": 29,
  "pitch_range": 45,
  "avg_note_duration": 0.2869,
  "reconstruction_stats": {
    "notes_reconstructed": 625,
    "keyon_events": 625,
    "keyoff_events": 624,
    "orphan_keyons": 1,
    "unique_pitches": 29,
    "pitch_range": 45,
    "avg_duration_sec": 0.2869
  },
  "metadata": {
    "source": "M\\Mirage 2\\07 - The Destinies.vgz"
  },
  "notes": [
    {
      "channel": 0,
      "note": 75,
      "start": 0.003,
      "duration": 0.6535,
      "velocity": 98,
      "chip": "ym2612"
    },
    {
      "channel": 2,
      "note": 44,
      "start": 0.0054,
      "duration": 1.1462,
      "velocity": 106,
      "chip": "ym2612"
    },
    {
      "channel": 3,
      "note": 48,
      "start": 0.0071,
      "duration": 0.4844,
      "velocity": 102,
      "chip": "ym2612"
    },
    {
      "channel": 4,
      "note": 44,
      "start": 0.0088,
      "duration": 0.4829,
      "velocity": 102,
      "chip": "ym2612"
    },
    {
      "channel": 5,
      "note": 39,
      "start": 0.0105,
      "duration": 0.2334,
      "velocity": 102,
      "chip": "ym2612"
    },
    {
      "channel": 1,
      "note": 75,
      "start": 0.2444,
      "duration": 0.6527,
      "velocity": 98,
      "chip": "ym2612"
    },
    {
      "channel": 5,
      "note": 39,
      "start": 0.3267,
      "duration": 0.2403,
      "velocity": 102,
      "chip": "ym2612"
    },
    {
      "channel": 0,
      "note": 75,
      "start": 0.6569,
      "duration": 0.3228,
      "velocity": 98,
      "chip": "ym2612"
    },
    {
      "channel": 3,
      "note": 51,
      "start": 0.6574,
      "duration": 0.4872,
      "velocity": 102,
      "chip": "ym2612"
    },
    {
      "channel": 4,
      "note": 48,
      "start": 0.6579,
      "duration": 0.4868,
      "velocity": 102,
      "chip": "ym2612"
    },
    {
      "channel": 5,
      "note": 44,
      "start": 0.6584,
      "duration": 0.2388,
      "velocity": 102,
      "chip": "ym2612"
    },
    {
      "channel": 1,
      "note": 75,
      "start": 0.9042,
      "duration": 0.3228,
      "velocity": 98,
      "chip": "ym2612"
    },
    {
      "channel": 0,
      "note": 73,
      "start": 0.9868,
      "duration": 0.3227,
      "velocity": 98,
      "chip": "ym2612"
    },
    {
      "channel": 5,
      "note": 39,
      "start": 0.9873,
      "duration": 0.2398,
      "velocity": 102,
      "chip": "ym2612"
    },
    {
      "channel": 1,
      "note": 73,
      "start": 1.2344,
      "duration": 0.3228,
      "velocity": 98,
      "chip": "ym2612"
    },
    {
      "channel": 0,
      "note": 72,
      "start": 1.3169,
      "duration": 0.6562,
      "velocity": 98,
      "chip": "ym2612"
    },
    {
      "channel": 2,
      "note": 41,
      "start": 1.3174,
      "duration": 1.1516,
      "velocity": 106,
      "chip": "ym2612"
    },
    {
      "channel": 3,
      "note": 48,
      "start": 1.3179,
      "duration": 0.4869,
      "velocity": 102,
      "chip": "ym2612"
    },
    {
      "channel": 4,
      "note": 44,
      "start": 1.3184,
      "duration": 0.4865,
      "velocity": 102,
      "chip": "ym2612"
    },
    {
      "channel": 5,
      "note": 41,
      "start": 1.319,
      "duration": 0.2384,
      "velocity": 102,
      "chip": "ym2612"
    },
    {
      "channel": 1,
      "note": 72,
      "start": 1.5644,
      "duration": 0.6563,
      "velocity": 98,
      "chip": "ym2612"
    },
    {
      "channel": 5,
      "note": 36,
      "start": 1.647,
      "duration": 0.2437,
      "velocity": 102,
      "chip": "ym2612"
    },
    {
      "channel": 0,
      "note": 68,
      "start": 1.9804,
      "duration": 0.3228,
      "velocity": 98,
      "chip": "ym2612"
    },
    {
      "channel": 3,
      "note": 48,
      "start": 1.9809,
      "duration": 0.4882,
      "velocity": 102,
      "chip": "ym2612"
    },
    {
      "channel": 4,
      "note": 44,
      "start": 1.9816,
      "duration": 0.4876,
      "velocity": 102,
      "chip": "ym2612"
    },
    {
      "channel": 5,
      "note": 41,
      "start": 1.9821,
      "duration": 0.2387,
      "velocity": 102,
      "chip": "ym2612"
    },
    {
      "channel": 1,
      "note": 68,
      "start": 2.2279,
      "duration": 0.3228,
      "velocity": 98,
      "chip": "ym2612"
    },
    {
      "channel": 0,
      "note": 70,
      "start": 2.3104,
      "duration": 0.3228,
      "velocity": 98,
      "chip": "ym2612"
    },
    {
      "channel": 5,
      "note": 36,
      "start": 2.3109,
      "duration": 0.2399,
      "velocity": 102,
      "chip": "ym2612"
    },
    {
      "channel": 1,
      "note": 70,
      "start": 2.558,
      "duration": 0.3227,
      "velocity": 98,
      "chip": "ym2612"
    },
    {
      "channel": 0,
      "note": 72,
      "start": 2.6407,
      "duration": 0.9827,
      "velocity": 98,
      "chip": "ym2612"
    },
    {
      "channel": 2,
      "note": 43,
      "start": 2.6414,
      "duration": 1.1472,
      "velocity": 106,
      "chip": "ym2612"
    },
    {
      "channel": 4,
      "note": 43,
      "start": 2.6419,
      "duration": 0.4864,
      "velocity": 102,
      "chip": "ym2612"
    },
    {
      "channel": 5,
      "note": 39,
      "start": 2.6424,
      "duration": 0.2384,
      "velocity": 102,
      "chip": "ym2612"
    },
    {
      "channel": 1,
      "note": 72,
      "start": 2.8881,
      "duration": 0.9862,
      "velocity": 98,
      "chip": "ym2612"
    },
    {
      "channel": 5,
      "note": 36,
      "start": 2.9705,
      "duration": 0.2404,
      "velocity": 102,
      "chip": "ym2612"
    },
    {
      "channel": 3,
      "note": 51,
      "start": 3.3006,
      "duration": 0.4882,
      "velocity": 102,
      "chip": "ym2612"
    },
    {
      "channel": 4,
      "note": 43,
      "start": 3.301,
      "duration": 0.4878,
      "velocity": 102,
      "chip": "ym2612"
    },
    {
      "channel": 5,
      "note": 39,
      "start": 3.3018,
      "duration": 0.2392,
      "velocity": 102,
      "chip": "ym2612"
    },
    {
      "channel": 0,
      "note": 73,
      "start": 3.6306,
      "duration": 0.158,
      "velocity": 98,
      "chip": "ym2612"
    },
    {
      "channel": 5,
      "note": 36,
      "start": 3.6311,
      "duration": 0.2434,
      "velocity": 102,
      "chip": "ym2612"
    },
    {
      "channel": 0,
      "note": 72,
      "start": 3.7957,
      "duration": 0.1613,
      "velocity": 98,
      "chip": "ym2612"
    },
    {
      "channel": 1,
      "note": 73,
      "start": 3.8819,
      "duration": 0.1574,
      "velocity": 98,
      "chip": "ym2612"
    },
    {
      "channel": 0,
      "note": 70,
      "start": 3.9641,
      "duration": 0.983,
      "velocity": 98,
      "chip": "ym2612"
    },
    {
      "channel": 2,
      "note": 39,
      "start": 3.9646,
      "duration": 1.1476,
      "velocity": 106,
      "chip": "ym2612"
    },
    {
      "channel": 3,
      "note": 49,
      "start": 3.965,
      "duration": 0.4869,
      "velocity": 102,
      "chip": "ym2612"
    },
    {
      "channel": 4,
      "note": 43,
      "start": 3.9655,
      "duration": 0.4865,
      "velocity": 102,
      "chip": "ym2612"
    },
    {
      "channel": 5,
      "note": 39,
      "start": 3.966,
      "duration": 0.2385,
      "velocity": 102,
      "chip": "ym2612"
    },
    {
      "channel": 1,
      "note": 72,
      "start": 4.0467,
      "duration": 0.1577,
      "velocity": 98,
      "chip": "ym2612"
    },
    {
      "channel": 1,
      "note": 70,
      "start": 4.212,
      "duration": 0.9825,
      "velocity": 98,
      "chip": "ym2612"
    },
    {
      "channel": 5,
      "note": 34,
      "start": 4.2942,
      "duration": 0.2404,
      "velocity": 102,
      "chip": "ym2612"
    },
    {
      "channel": 4,
      "note": 43,
      "start": 4.6242,
      "duration": 0.488,
      "velocity": 102,
      "chip": "ym2612"
    },
    {
      "channel": 5,
      "note": 39,
      "start": 4.6247,
      "duration": 0.2399,
      "velocity": 102,
      "chip": "ym2612"
    },
    {
      "channel": 0,
      "note": 72,
      "start": 4.9542,
      "duration": 0.1578,
      "velocity": 98,
      "chip": "ym2612"
    },
    {
      "channel": 5,
      "note": 34,
      "start": 4.9547,
      "duration": 0.2399,
      "velocity": 102,
      "chip": "ym2612"
    },
    {
      "channel": 0,
      "note": 70,
      "start": 5.1193,
      "duration": 0.1578,
      "velocity": 98,
      "chip": "ym2612"
    },
    {
      "channel": 1,
      "note": 72,
      "start": 5.2019,
      "duration": 0.1576,
      "velocity": 98,
      "chip": "ym2612"
    },
    {
      "channel": 0,
      "note": 68,
      "start": 5.2843,
      "duration": 0.1166,
      "velocity": 98,
      "chip": "ym2612"
    },
    {
      "channel": 2,
      "note": 41,
      "start": 5.2848,
      "duration": 1.151,
      "velocity": 106,
      "chip": "ym2612"
    },
    {
      "channel": 4,
      "note": 41,
      "start": 5.2853,
      "duration": 0.4903,
      "velocity": 102,
      "chip": "ym2612"
    },
    {
      "channel": 5,
      "note": 36,
      "start": 5.2857,
      "duration": 0.239,
      "velocity": 102,
      "chip": "ym2612"
    },
    {
      "channel": 1,
      "note": 70,
      "start": 5.3668,
      "duration": 0.1579,
      "velocity": 98,
      "chip": "ym2612"
    },
    {
      "channel": 1,
      "note": 68,
      "start": 5.5319,
      "duration": 0.1165,
      "velocity": 98,
      "chip": "ym2612"
    },
    {
      "channel": 0,
      "note": 65,
      "start": 5.6143,
      "duration": 0.1201,
      "velocity": 98,
      "chip": "ym2612"
    },
    {
      "channel": 5,
      "note": 32,
      "start": 5.6148,
      "duration": 0.2433,
      "velocity": 102,
      "chip": "ym2612"
    },
    {
      "channel": 1,
      "note": 65,
      "start": 5.8654,
      "duration": 0.1165,
      "velocity": 98,
      "chip": "ym2612"
    },
    {
      "channel": 0,
      "note": 67,
      "start": 5.9478,
      "duration": 0.1165,
      "velocity": 98,
      "chip": "ym2612"
    },
    {
      "channel": 4,
      "note": 41,
      "start": 5.9483,
      "duration": 0.4876,
      "velocity": 102,
      "chip": "ym2612"
    },
    {
      "channel": 5,
      "note": 36,
      "start": 5.9488,
      "duration": 0.2398,
      "velocity": 102,
      "chip": "ym2612"
    },
    {
      "channel": 1,
      "note": 67,
      "start": 6.1954,
      "duration": 0.1165,
      "velocity": 98,
      "chip": "ym2612"
    },
    {
      "channel": 0,
      "note": 68,
      "start": 6.2779,
      "duration": 0.1164,
      "velocity": 98,
      "chip": "ym2612"
    },
    {
      "channel": 5,
      "note": 32,
      "start": 6.2785,
      "duration": 0.2397,
      "velocity": 102,
      "chip": "ym2612"
    },
    {
      "channel": 1,
      "note": 68,
      "start": 6.5255,
      "duration": 0.1165,
      "velocity": 98,
      "chip": "ym2612"
    },
    {
      "channel": 0,
      "note": 70,
      "start": 6.608,
      "duration": 0.3227,
      "velocity": 98,
      "chip": "ym2612"
    },
    {
      "channel": 2,
      "note": 43,
      "start": 6.6085,
      "duration": 1.1475,
      "velocity": 106,
      "chip": "ym2612"
    },
    {
      "channel": 4,
      "note": 39,
      "start": 6.6089,
      "duration": 0.4868,
      "velocity": 102,
      "chip": "ym2612"
    },
    {
      "channel": 5,
      "note": 34,
      "start": 6.6094,
      "duration": 0.2388,
      "velocity": 102,
      "chip": "ym2612"
    },
    {
      "channel": 1,
      "note": 70,
      "start": 6.8554,
      "duration": 0.3228,
      "velocity": 98,
      "chip": "ym2612"
    },
    {
      "channel": 0,
      "note": 68,
      "start": 6.9379,
      "duration": 0.1165,
      "velocity": 98,
      "chip": "ym2612"
    },
    {
      "channel": 5,
      "note": 36,
      "start": 6.9384,
      "duration": 0.2399,
      "velocity": 102,
      "chip": "ym2612"
    },
    {
      "channel": 1,
      "note": 68,
      "start": 7.1857,
      "duration": 0.1163,
      "velocity": 98,
      "chip": "ym2612"
    },
    {
      "channel": 0,
      "note": 70,
      "start": 7.2681,
      "duration": 0.1165,
      "velocity": 98,
      "chip": "ym2612"
    },
    {
      "channel": 4,
      "note": 43,
      "start": 7.2686,
      "duration": 0.4875,
      "velocity": 102,
      "chip": "ym2612"
    },
    {
      "channel": 5,
      "note": 39,
      "start": 7.2691,
      "duration": 0.2399,
      "velocity": 102,
      "chip": "ym2612"
    },
    {
      "channel": 1,
      "note": 70,
      "start": 7.5156,
      "duration": 0.1166,
      "velocity": 98,
      "chip": "ym2612"
    },
    {
      "channel": 0,
      "note": 72,
      "start": 7.598,
      "duration": 0.1165,
      "velocity": 98,
      "chip": "ym2612"
    },
    {
      "channel": 5,
      "note": 39,
      "start": 7.5985,
      "duration": 0.2398,
      "velocity": 102,
      "chip": "ym2612"
    },
    {
      "channel": 1,
      "note": 72,
      "start": 7.8456,
      "duration": 0.1166,
      "velocity": 98,
      "chip": "ym2612"
    },
    {
      "channel": 0,
      "note": 72,
      "start": 7.9282,
      "duration": 0.6528,
      "velocity": 98,
      "chip": "ym2612"
    },
    {
      "channel": 2,
      "note": 44,
      "start": 7.9287,
      "duration": 0.5698,
      "velocity": 106,
      "chip": "ym2612"
    },
    {
      "channel": 4,
      "note": 44,
      "start": 7.9291,
      "duration": 0.4868,
      "velocity": 102,
      "chip": "ym2612"
    },
    {
      "channel": 5,
      "note": 39,
      "start": 7.9296,
      "duration": 0.2388,
      "velocity": 102,
      "chip": "ym2612"
    },
    {
      "channel": 1,
      "note": 72,
      "start": 8.1756,
      "duration": 0.653,
      "velocity": 98,
      "chip": "ym2612"
    },
    {
      "channel": 5,
      "note": 36,
      "start": 8.2583,
      "duration": 0.2402,
      "velocity": 102,
      "chip": "ym2612"
    },
    {
      "channel": 0,
      "note": 73,
      "start": 8.5882,
      "duration": 0.6532,
      "velocity": 98,
      "chip": "ym2612"
    },
    {
      "channel": 2,
      "note": 41,
      "start": 8.5887,
      "duration": 0.57,
      "velocity": 106,
      "chip": "ym2612"
    },
    {
      "channel": 4,
      "note": 41,
      "start": 8.5891,
      "duration": 0.4869,
      "velocity": 102,
      "chip": "ym2612"
    },
    {
      "channel": 5,
      "note": 37,
      "start": 8.5896,
      "duration": 0.2391,
      "velocity": 102,
      "chip": "ym2612"
    },
    {
      "channel": 1,
      "note": 73,
      "start": 8.8357,
      "duration": 0.6563,
      "velocity": 98,
      "chip": "ym2612"
    },
    {
      "channel": 5,
      "note": 36,
      "start": 8.9183,
      "duration": 0.2405,
      "velocity": 102,
      "chip": "ym2612"
    },
    {
      "channel": 0,
      "note": 72,
      "start": 9.2483,
      "duration": 0.6598,
      "velocity": 98,
      "chip": "ym2612"
    },
    {
      "channel": 2,
      "note": 39,
      "start": 9.2488,
      "duration": 0.5767,
      "velocity": 106,
      "chip": "ym2612"
    },
    {
      "channel": 4,
      "note": 39,
      "start": 9.2493,
      "duration": 0.4937,
      "velocity": 102,
      "chip": "ym2612"
    },
    {
      "channel": 5,
      "note": 34,
      "start": 9.2498,
      "duration": 0.2424,
      "velocity": 102,
      "chip": "ym2612"
    },
    {
      "channel": 1,
      "note": 72,
      "start": 9.4993,
      "duration": 0.6563,
      "velocity": 98,
      "chip": "ym2612"
    },
    {
      "channel": 5,
      "note": 34,
      "start": 9.5853,
      "duration": 0.2403,
      "velocity": 102,
      "chip": "ym2612"
    },
    {
      "channel": 0,
      "note": 70,
      "start": 9.9152,
      "duration": 0.6531,
      "velocity": 98,
      "chip": "ym2612"
    },
    {
      "channel": 2,
      "note": 43,
      "start": 9.9157,
      "duration": 0.57,
      "velocity": 106,
      "chip": "ym2612"
    },
    {
      "channel": 4,
      "note": 43,
      "start": 9.9162,
      "duration": 0.4869,
      "velocity": 102,
      "chip": "ym2612"
    },
    {
      "channel": 5,
      "note": 39,
      "start": 9.9167,
      "duration": 0.239,
      "velocity": 102,
      "chip": "ym2612"
    },
    {
      "channel": 1,
      "note": 70,
      "start": 10.1629,
      "duration": 0.4053,
      "velocity": 98,
      "chip": "ym2612"
    },
    {
      "channel": 5,
      "note": 34,
      "start": 10.2453,
      "duration": 0.2405,
      "velocity": 102,
      "chip": "ym2612"
    },
    {
      "channel": 0,
      "note": 75,
      "start": 10.5754,
      "duration": 0.6528,
      "velocity": 98,
      "chip": "ym2612"
    },
    {
      "channel": 2,
      "note": 44,
      "start": 10.5759,
      "duration": 1.1509,
      "velocity": 106,
      "chip": "ym2612"
    },
    {
      "channel": 3,
      "note": 48,
      "start": 10.5763,
      "duration": 0.4868,
      "velocity": 102,
      "chip": "ym2612"
    },
    {
      "channel": 4,
      "note": 44,
      "start": 10.5768,
      "duration": 0.4865,
      "velocity": 102,
      "chip": "ym2612"
    },
    {
      "channel": 5,
      "note": 39,
      "start": 10.5773,
      "duration": 0.2383,
      "velocity": 102,
      "chip": "ym2612"
    },
    {
      "channel": 1,
      "note": 75,
      "start": 10.823,
      "duration": 0.6528,
      "velocity": 98,
      "chip": "ym2612"
    },
    {
      "channel": 5,
      "note": 39,
      "start": 10.9056,
      "duration": 0.2402,
      "velocity": 102,
      "chip": "ym2612"
    },
    {
      "channel": 0,
      "note": 75,
      "start": 11.2355,
      "duration": 0.3262,
      "velocity": 98,
      "chip": "ym2612"
    },
    {
      "channel": 3,
      "note": 51,
      "start": 11.236,
      "duration": 0.4909,
      "velocity": 102,
      "chip": "ym2612"
    },
    {
      "channel": 4,
      "note": 48,
      "start": 11.2365,
      "duration": 0.4905,
      "velocity": 102,
      "chip": "ym2612"
    },
    {
      "channel": 5,
      "note": 44,
      "start": 11.237,
      "duration": 0.2389,
      "velocity": 102,
      "chip": "ym2612"
    },
    {
      "channel": 1,
      "note": 75,
      "start": 11.483,
      "duration": 0.3263,
      "velocity": 98,
      "chip": "ym2612"
    },
    {
      "channel": 0,
      "note": 73,
      "start": 11.569,
      "duration": 0.3227,
      "velocity": 98,
      "chip": "ym2612"
    },
    {
      "channel": 5,
      "note": 39,
      "start": 11.5695,
      "duration": 0.2399,
      "velocity": 102,
      "chip": "ym2612"
    },
    {
      "channel": 1,
      "note": 73,
      "start": 11.8165,
      "duration": 0.3229,
      "velocity": 98,
      "chip": "ym2612"
    },
    {
      "channel": 0,
      "note": 72,
      "start": 11.8991,
      "duration": 0.6529,
      "velocity": 98,
      "chip": "ym2612"
    },
    {
      "channel": 2,
      "note": 41,
      "start": 11.8995,
      "duration": 1.1509,
      "velocity": 106,
      "chip": "ym2612"
    },
    {
      "channel": 3,
      "note": 48,
      "start": 11.9,
      "duration": 0.4869,
      "velocity": 102,
      "chip": "ym2612"
    },
    {
      "channel": 4,
      "note": 44,
      "start": 11.9005,
      "duration": 0.4865,
      "velocity": 102,
      "chip": "ym2612"
    },
    {
      "channel": 5,
      "note": 41,
      "start": 11.901,
      "duration": 0.2385,
      "velocity": 102,
      "chip": "ym2612"
    },
    {
      "channel": 1,
      "note": 72,
      "start": 12.1465,
      "duration": 0.6529,
      "velocity": 98,
      "chip": "ym2612"
    },
    {
      "channel": 5,
      "note": 36,
      "start": 12.2291,
      "duration": 0.2402,
      "velocity": 102,
      "chip": "ym2612"
    },
    {
      "channel": 0,
      "note": 68,
      "start": 12.5591,
      "duration": 0.3229,
      "velocity": 98,
      "chip": "ym2612"
    },
    {
      "channel": 3,
      "note": 48,
      "start": 12.5595,
      "duration": 0.491,
      "velocity": 102,
      "chip": "ym2612"
    },
    {
      "channel": 4,
      "note": 44,
      "start": 12.56,
      "duration": 0.4906,
      "velocity": 102,
      "chip": "ym2612"
    },
    {
      "channel": 5,
      "note": 41,
      "start": 12.5605,
      "duration": 0.2391,
      "velocity": 102,
      "chip": "ym2612"
    },
    {
      "channel": 1,
      "note": 68,
      "start": 12.8066,
      "duration": 0.3262,
      "velocity": 98,
      "chip": "ym2612"
    },
    {
      "channel": 0,
      "note": 70,
      "start": 12.8892,
      "duration": 0.3261,
      "velocity": 98,
      "chip": "ym2612"
    },
    {
      "channel": 5,
      "note": 36,
      "start": 12.8897,
      "duration": 0.2433,
      "velocity": 102,
      "chip": "ym2612"
    },
    {
      "channel": 1,
      "note": 70,
      "start": 13.1402,
      "duration": 0.3229,
      "velocity": 98,
      "chip": "ym2612"
    },
    {
      "channel": 0,
      "note": 72,
      "start": 13.2226,
      "duration": 0.9829,
      "velocity": 98,
      "chip": "ym2612"
    },
    {
      "channel": 2,
      "note": 43,
      "start": 13.2231,
      "duration": 1.1477,
      "velocity": 106,
      "chip": "ym2612"
    },
    {
      "channel": 4,
      "note": 43,
      "start": 13.2237,
      "duration": 0.4868,
      "velocity": 102,
      "chip": "ym2612"
    },
    {
      "channel": 5,
      "note": 39,
      "start": 13.2242,
      "duration": 0.239,
      "velocity": 102,
      "chip": "ym2612"
    },
    {
      "channel": 1,
      "note": 72,
      "start": 13.4701,
      "duration": 0.983,
      "velocity": 98,
      "chip": "ym2612"
    },
    {
      "channel": 5,
      "note": 36,
      "start": 13.5528,
      "duration": 0.2402,
      "velocity": 102,
      "chip": "ym2612"
    },
    {
      "channel": 3,
      "note": 51,
      "start": 13.8828,
      "duration": 0.4881,
      "velocity": 102,
      "chip": "ym2612"
    },
    {
      "channel": 4,
      "note": 43,
      "start": 13.8832,
      "duration": 0.4877,
      "velocity": 102,
      "chip": "ym2612"
    },
    {
      "channel": 5,
      "note": 39,
      "start": 13.8837,
      "duration": 0.2393,
      "velocity": 102,
      "chip": "ym2612"
    },
    {
      "channel": 0,
      "note": 73,
      "start": 14.2127,
      "duration": 0.1579,
      "velocity": 98,
      "chip": "ym2612"
    },
    {
      "channel": 5,
      "note": 36,
      "start": 14.2132,
      "duration": 0.24,
      "velocity": 102,
      "chip": "ym2612"
    },
    {
      "channel": 0,
      "note": 72,
      "start": 14.3779,
      "duration": 0.1578,
      "velocity": 98,
      "chip": "ym2612"
    },
    {
      "channel": 1,
      "note": 73,
      "start": 14.4603,
      "duration": 0.1578,
      "velocity": 98,
      "chip": "ym2612"
    },
    {
      "channel": 0,
      "note": 70,
      "start": 14.5429,
      "duration": 0.9828,
      "velocity": 98,
      "chip": "ym2612"
    },
    {
      "channel": 2,
      "note": 39,
      "start": 14.5434,
      "duration": 1.1476,
      "velocity": 106,
      "chip": "ym2612"
    },
    {
      "channel": 3,
      "note": 49,
      "start": 14.544,
      "duration": 0.4867,
      "velocity": 102,
      "chip": "ym2612"
    },
    {
      "channel": 4,
      "note": 43,
      "start": 14.5444,
      "duration": 0.4863,
      "velocity": 102,
      "chip": "ym2612"
    },
    {
      "channel": 5,
      "note": 39,
      "start": 14.5449,
      "duration": 0.2383,
      "velocity": 102,
      "chip": "ym2612"
    },
    {
      "channel": 1,
      "note": 72,
      "start": 14.6258,
      "duration": 0.1573,
      "velocity": 98,
      "chip": "ym2612"
    },
    {
      "channel": 1,
      "note": 70,
      "start": 14.7904,
      "duration": 0.9829,
      "velocity": 98,
      "chip": "ym2612"
    },
    {
      "channel": 5,
      "note": 34,
      "start": 14.8729,
      "duration": 0.2403,
      "velocity": 102,
      "chip": "ym2612"
    },
    {
      "channel": 4,
      "note": 43,
      "start": 15.203,
      "duration": 0.488,
      "velocity": 102,
      "chip": "ym2612"
    },
    {
      "channel": 5,
      "note": 39,
      "start": 15.2034,
      "duration": 0.2398,
      "velocity": 102,
      "chip": "ym2612"
    },
    {
      "channel": 0,
      "note": 72,
      "start": 15.5329,
      "duration": 0.1579,
      "velocity": 98,
      "chip": "ym2612"
    },
    {
      "channel": 5,
      "note": 34,
      "start": 15.5334,
      "duration": 0.24,
      "velocity": 102,
      "chip": "ym2612"
    },
    {
      "channel": 0,
      "note": 70,
      "start": 15.698,
      "duration": 0.1579,
      "velocity": 98,
      "chip": "ym2612"
    },
    {
      "channel": 1,
      "note": 72,
      "start": 15.7805,
      "duration": 0.1579,
      "velocity": 98,
      "chip": "ym2612"
    },
    {
      "channel": 0,
      "note": 68,
      "start": 15.863,
      "duration": 0.1166,
      "velocity": 98,
      "chip": "ym2612"
    },
    {
      "channel": 2,
      "note": 41,
      "start": 15.8635,
      "duration": 1.151,
      "velocity": 106,
      "chip": "ym2612"
    },
    {
      "channel": 4,
      "note": 41,
      "start": 15.864,
      "duration": 0.4869,
      "velocity": 102,
      "chip": "ym2612"
    },
    {
      "channel": 5,
      "note": 36,
      "start": 15.8646,
      "duration": 0.2388,
      "velocity": 102,
      "chip": "ym2612"
    },
    {
      "channel": 1,
      "note": 70,
      "start": 15.9463,
      "duration": 0.157,
      "velocity": 98,
      "chip": "ym2612"
    },
    {
      "channel": 1,
      "note": 68,
      "start": 16.1105,
      "duration": 0.1165,
      "velocity": 98,
      "chip": "ym2612"
    },
    {
      "channel": 0,
      "note": 65,
      "start": 16.193,
      "duration": 0.1165,
      "velocity": 98,
      "chip": "ym2612"
    },
    {
      "channel": 5,
      "note": 32,
      "start": 16.1935,
      "duration": 0.2398,
      "velocity": 102,
      "chip": "ym2612"
    },
    {
      "channel": 1,
      "note": 65,
      "start": 16.4406,
      "duration": 0.1166,
      "velocity": 98,
      "chip": "ym2612"
    },
    {
      "channel": 0,
      "note": 67,
      "start": 16.5231,
      "duration": 0.1166,
      "velocity": 98,
      "chip": "ym2612"
    },
    {
      "channel": 4,
      "note": 41,
      "start": 16.5236,
      "duration": 0.491,
      "velocity": 102,
      "chip": "ym2612"
    },
    {
      "channel": 5,
      "note": 36,
      "start": 16.5241,
      "duration": 0.2393,
      "velocity": 102,
      "chip": "ym2612"
    },
    {
      "channel": 1,
      "note": 67,
      "start": 16.7706,
      "duration": 0.1166,
      "velocity": 98,
      "chip": "ym2612"
    },
    {
      "channel": 0,
      "note": 68,
      "start": 16.8531,
      "duration": 0.1166,
      "velocity": 98,
      "chip": "ym2612"
    },
    {
      "channel": 5,
      "note": 32,
      "start": 16.8536,
      "duration": 0.2434,
      "velocity": 102,
      "chip": "ym2612"
    },
    {
      "channel": 1,
      "note": 68,
      "start": 17.1042,
      "duration": 0.1164,
      "velocity": 98,
      "chip": "ym2612"
    },
    {
      "channel": 0,
      "note": 70,
      "start": 17.1866,
      "duration": 0.3229,
      "velocity": 98,
      "chip": "ym2612"
    },
    {
      "channel": 2,
      "note": 43,
      "start": 17.1871,
      "duration": 1.1478,
      "velocity": 106,
      "chip": "ym2612"
    },
    {
      "channel": 4,
      "note": 39,
      "start": 17.1876,
      "duration": 0.4869,
      "velocity": 102,
      "chip": "ym2612"
    },
    {
      "channel": 5,
      "note": 34,
      "start": 17.1881,
      "duration": 0.2396,
      "velocity": 102,
      "chip": "ym2612"
    },
    {
      "channel": 1,
      "note": 70,
      "start": 17.4341,
      "duration": 0.3229,
      "velocity": 98,
      "chip": "ym2612"
    },
    {
      "channel": 0,
      "note": 68,
      "start": 17.5167,
      "duration": 0.1165,
      "velocity": 98,
      "chip": "ym2612"
    },
    {
      "channel": 5,
      "note": 36,
      "start": 17.5172,
      "duration": 0.24,
      "velocity": 102,
      "chip": "ym2612"
    },
    {
      "channel": 1,
      "note": 68,
      "start": 17.7642,
      "duration": 0.1165,
      "velocity": 98,
      "chip": "ym2612"
    },
    {
      "channel": 0,
      "note": 67,
      "start": 17.8468,
      "duration": 0.1165,
      "velocity": 98,
      "chip": "ym2612"
    },
    {
      "channel": 4,
      "note": 43,
      "start": 17.8473,
      "duration": 0.4878,
      "velocity": 102,
      "chip": "ym2612"
    },
    {
      "channel": 5,
      "note": 39,
      "start": 17.8478,
      "duration": 0.2394,
      "velocity": 102,
      "chip": "ym2612"
    },
    {
      "channel": 1,
      "note": 67,
      "start": 18.0944,
      "duration": 0.1164,
      "velocity": 98,
      "chip": "ym2612"
    },
    {
      "channel": 0,
      "note": 70,
      "start": 18.1768,
      "duration": 0.1165,
      "velocity": 98,
      "chip": "ym2612"
    },
    {
      "channel": 5,
      "note": 39,
      "start": 18.1773,
      "duration": 0.2398,
      "velocity": 102,
      "chip": "ym2612"
    },
    {
      "channel": 1,
      "note": 70,
      "start": 18.4243,
      "duration": 0.1167,
      "velocity": 98,
      "chip": "ym2612"
    },
    {
      "channel": 0,
      "note": 70,
      "start": 18.5068,
      "duration": 1.313,
      "velocity": 98,
      "chip": "ym2612"
    },
    {
      "channel": 2,
      "note": 43,
      "start": 18.5073,
      "duration": 1.1481,
      "velocity": 106,
      "chip": "ym2612"
    },
    {
      "channel": 4,
      "note": 43,
      "start": 18.5078,
      "duration": 0.4869,
      "velocity": 102,
      "chip": "ym2612"
    },
    {
      "channel": 5,
      "note": 39,
      "start": 18.5083,
      "duration": 0.2389,
      "velocity": 102,
      "chip": "ym2612"
    },
    {
      "channel": 1,
      "note": 70,
      "start": 18.7544,
      "duration": 1.313,
      "velocity": 98,
      "chip": "ym2612"
    },
    {
      "channel": 5,
      "note": 34,
      "start": 18.8369,
      "duration": 0.2404,
      "velocity": 102,
      "chip": "ym2612"
    },
    {
      "channel": 4,
      "note": 43,
      "start": 19.167,
      "duration": 0.4886,
      "velocity": 102,
      "chip": "ym2612"
    },
    {
      "channel": 5,
      "note": 39,
      "start": 19.1675,
      "duration": 0.2398,
      "velocity": 102,
      "chip": "ym2612"
    },
    {
      "channel": 5,
      "note": 39,
      "start": 19.4971,
      "duration": 0.2402,
      "velocity": 102,
      "chip": "ym2612"
    },
    {
      "channel": 0,
      "note": 68,
      "start": 19.8272,
      "duration": 0.9828,
      "velocity": 98,
      "chip": "ym2612"
    },
    {
      "channel": 2,
      "note": 44,
      "start": 19.8277,
      "duration": 1.1474,
      "velocity": 106,
      "chip": "ym2612"
    },
    {
      "channel": 4,
      "note": 39,
      "start": 19.8282,
      "duration": 0.4868,
      "velocity": 102,
      "chip": "ym2612"
    },
    {
      "channel": 5,
      "note": 36,
      "start": 19.8286,
      "duration": 0.2389,
      "velocity": 102,
      "chip": "ym2612"
    },
    {
      "channel": 1,
      "note": 68,
      "start": 20.0745,
      "duration": 0.9829,
      "velocity": 98,
      "chip": "ym2612"
    },
    {
      "channel": 5,
      "note": 32,
      "start": 20.1571,
      "duration": 0.2402,
      "velocity": 102,
      "chip": "ym2612"
    },
    {
      "channel": 4,
      "note": 44,
      "start": 20.4872,
      "duration": 0.488,
      "velocity": 102,
      "chip": "ym2612"
    },
    {
      "channel": 5,
      "note": 39,
      "start": 20.4877,
      "duration": 0.2397,
      "velocity": 102,
      "chip": "ym2612"
    },
    {
      "channel": 0,
      "note": 73,
      "start": 20.8172,
      "duration": 0.1028,
      "velocity": 98,
      "chip": "ym2612"
    },
    {
      "channel": 5,
      "note": 36,
      "start": 20.8177,
      "duration": 0.2399,
      "velocity": 102,
      "chip": "ym2612"
    },
    {
      "channel": 0,
      "note": 74,
      "start": 20.9273,
      "duration": 0.1028,
      "velocity": 98,
      "chip": "ym2612"
    },
    {
      "channel": 0,
      "note": 75,
      "start": 21.0372,
      "duration": 0.1028,
      "velocity": 98,
      "chip": "ym2612"
    },
    {
      "channel": 0,
      "note": 77,
      "start": 21.1472,
      "duration": 0.1579,
      "velocity": 98,
      "chip": "ym2612"
    },
    {
      "channel": 2,
      "note": 46,
      "start": 21.1477,
      "duration": 0.2811,
      "velocity": 106,
      "chip": "ym2612"
    },
    {
      "channel": 3,
      "note": 53,
      "start": 21.1482,
      "duration": 0.0743,
      "velocity": 102,
      "chip": "ym2612"
    },
    {
      "channel": 4,
      "note": 49,
      "start": 21.1487,
      "duration": 0.0739,
      "velocity": 102,
      "chip": "ym2612"
    },
    {
      "channel": 5,
      "note": 46,
      "start": 21.1492,
      "duration": 0.0735,
      "velocity": 102,
      "chip": "ym2612"
    },
    {
      "channel": 1,
      "note": 77,
      "start": 21.3948,
      "duration": 0.1577,
      "velocity": 98,
      "chip": "ym2612"
    },
    {
      "channel": 0,
      "note": 73,
      "start": 21.4773,
      "duration": 0.1578,
      "velocity": 98,
      "chip": "ym2612"
    },
    {
      "channel": 2,
      "note": 46,
      "start": 21.4778,
      "duration": 0.281,
      "velocity": 106,
      "chip": "ym2612"
    },
    {
      "channel": 3,
      "note": 53,
      "start": 21.4783,
      "duration": 0.0744,
      "velocity": 102,
      "chip": "ym2612"
    },
    {
      "channel": 4,
      "note": 49,
      "start": 21.4788,
      "duration": 0.0739,
      "velocity": 102,
      "chip": "ym2612"
    },
    {
      "channel": 5,
      "note": 46,
      "start": 21.4794,
      "duration": 0.0734,
      "velocity": 102,
      "chip": "ym2612"
    },
    {
      "channel": 0,
      "note": 72,
      "start": 21.6423,
      "duration": 0.1579,
      "velocity": 98,
      "chip": "ym2612"
    },
    {
      "channel": 1,
      "note": 73,
      "start": 21.7248,
      "duration": 0.1583,
      "velocity": 98,
      "chip": "ym2612"
    },
    {
      "channel": 0,
      "note": 73,
      "start": 21.8074,
      "duration": 0.1577,
      "velocity": 98,
      "chip": "ym2612"
    },
    {
      "channel": 2,
      "note": 46,
      "start": 21.8079,
      "duration": 0.281,
      "velocity": 106,
      "chip": "ym2612"
    },
    {
      "channel": 3,
      "note": 53,
      "start": 21.8083,
      "duration": 0.0748,
      "velocity": 102,
      "chip": "ym2612"
    },
    {
      "channel": 4,
      "note": 49,
      "start": 21.8088,
      "duration": 0.0744,
      "velocity": 102,
      "chip": "ym2612"
    },
    {
      "channel": 5,
      "note": 46,
      "start": 21.8093,
      "duration": 0.074,
      "velocity": 102,
      "chip": "ym2612"
    },
    {
      "channel": 1,
      "note": 72,
      "start": 21.8899,
      "duration": 0.1578,
      "velocity": 98,
      "chip": "ym2612"
    },
    {
      "channel": 1,
      "note": 73,
      "start": 22.0549,
      "duration": 0.1578,
      "velocity": 98,
      "chip": "ym2612"
    },
    {
      "channel": 0,
      "note": 70,
      "start": 22.1373,
      "duration": 0.1578,
      "velocity": 98,
      "chip": "ym2612"
    },
    {
      "channel": 2,
      "note": 46,
      "start": 22.1378,
      "duration": 0.2811,
      "velocity": 106,
      "chip": "ym2612"
    },
    {
      "channel": 3,
      "note": 53,
      "start": 22.1383,
      "duration": 0.0744,
      "velocity": 102,
      "chip": "ym2612"
    },
    {
      "channel": 4,
      "note": 49,
      "start": 22.1388,
      "duration": 0.074,
      "velocity": 102,
      "chip": "ym2612"
    },
    {
      "channel": 5,
      "note": 46,
      "start": 22.1393,
      "duration": 0.0736,
      "velocity": 102,
      "chip": "ym2612"
    },
    {
      "channel": 0,
      "note": 68,
      "start": 22.3024,
      "duration": 0.1579,
      "velocity": 98,
      "chip": "ym2612"
    },
    {
      "channel": 1,
      "note": 70,
      "start": 22.3849,
      "duration": 0.1578,
      "velocity": 98,
      "chip": "ym2612"
    },
    {
      "channel": 0,
      "note": 70,
      "start": 22.4674,
      "duration": 0.1617,
      "velocity": 98,
      "chip": "ym2612"
    },
    {
      "channel": 2,
      "note": 43,
      "start": 22.4679,
      "duration": 0.2845,
      "velocity": 106,
      "chip": "ym2612"
    },
    {
      "channel": 3,
      "note": 53,
      "start": 22.4683,
      "duration": 0.0744,
      "velocity": 102,
      "chip": "ym2612"
    },
    {
      "channel": 4,
      "note": 49,
      "start": 22.4688,
      "duration": 0.074,
      "velocity": 102,
      "chip": "ym2612"
    },
    {
      "channel": 5,
      "note": 46,
      "start": 22.4693,
      "duration": 0.0736,
      "velocity": 102,
      "chip": "ym2612"
    },
    {
      "channel": 1,
      "note": 68,
      "start": 22.5499,
      "duration": 0.1615,
      "velocity": 98,
      "chip": "ym2612"
    },
    {
      "channel": 1,
      "note": 70,
      "start": 22.7183,
      "duration": 0.1578,
      "velocity": 98,
      "chip": "ym2612"
    },
    {
      "channel": 0,
      "note": 65,
      "start": 22.8009,
      "duration": 0.1578,
      "velocity": 98,
      "chip": "ym2612"
    },
    {
      "channel": 2,
      "note": 43,
      "start": 22.8016,
      "duration": 0.281,
      "velocity": 106,
      "chip": "ym2612"
    },
    {
      "channel": 3,
      "note": 53,
      "start": 22.8021,
      "duration": 0.0742,
      "velocity": 102,
      "chip": "ym2612"
    },
    {
      "channel": 4,
      "note": 49,
      "start": 22.8026,
      "duration": 0.0738,
      "velocity": 102,
      "chip": "ym2612"
    },
    {
      "channel": 5,
      "note": 46,
      "start": 22.8031,
      "duration": 0.0734,
      "velocity": 102,
      "chip": "ym2612"
    },
    {
      "channel": 1,
      "note": 65,
      "start": 23.0484,
      "duration": 0.1578,
      "velocity": 98,
      "chip": "ym2612"
    },
    {
      "channel": 0,
      "note": 67,
      "start": 23.131,
      "duration": 0.1578,
      "velocity": 98,
      "chip": "ym2612"
    },
    {
      "channel": 2,
      "note": 43,
      "start": 23.1317,
      "duration": 0.2808,
      "velocity": 106,
      "chip": "ym2612"
    },
    {
      "channel": 3,
      "note": 53,
      "start": 23.1323,
      "duration": 0.074,
      "velocity": 102,
      "chip": "ym2612"
    },
    {
      "channel": 4,
      "note": 49,
      "start": 23.1328,
      "duration": 0.0736,
      "velocity": 102,
      "chip": "ym2612"
    },
    {
      "channel": 5,
      "note": 46,
      "start": 23.1333,
      "duration": 0.0732,
      "velocity": 102,
      "chip": "ym2612"
    },
    {
      "channel": 1,
      "note": 67,
      "start": 23.3785,
      "duration": 0.1578,
      "velocity": 98,
      "chip": "ym2612"
    },
    {
      "channel": 0,
      "note": 65,
      "start": 23.4611,
      "duration": 0.1577,
      "velocity": 98,
      "chip": "ym2612"
    },
    {
      "channel": 2,
      "note": 43,
      "start": 23.4618,
      "duration": 0.2808,
      "velocity": 106,
      "chip": "ym2612"
    },
    {
      "channel": 3,
      "note": 53,
      "start": 23.4623,
      "duration": 0.0741,
      "velocity": 102,
      "chip": "ym2612"
    },
    {
      "channel": 4,
      "note": 49,
      "start": 23.4628,
      "duration": 0.0737,
      "velocity": 102,
      "chip": "ym2612"
    },
    {
      "channel": 5,
      "note": 46,
      "start": 23.4633,
      "duration": 0.0733,
      "velocity": 102,
      "chip": "ym2612"
    },
    {
      "channel": 1,
      "note": 65,
      "start": 23.7086,
      "duration": 0.1577,
      "velocity": 98,
      "chip": "ym2612"
    },
    {
      "channel": 0,
      "note": 75,
      "start": 23.7914,
      "duration": 0.158,
      "velocity": 98,
      "chip": "ym2612"
    },
    {
      "channel": 2,
      "note": 44,
      "start": 23.7919,
      "duration": 0.2808,
      "velocity": 106,
      "chip": "ym2612"
    },
    {
      "channel": 3,
      "note": 51,
      "start": 23.7924,
      "duration": 0.074,
      "velocity": 102,
      "chip": "ym2612"
    },
    {
      "channel": 4,
      "note": 48,
      "start": 23.7929,
      "duration": 0.0736,
      "velocity": 102,
      "chip": "ym2612"
    },
    {
      "channel": 5,
      "note": 44,
      "start": 23.7933,
      "duration": 0.0732,
      "velocity": 102,
      "chip": "ym2612"
    },
    {
      "channel": 1,
      "note": 75,
      "start": 24.0386,
      "duration": 0.1579,
      "velocity": 98,
      "chip": "ym2612"
    },
    {
      "channel": 0,
      "note": 70,
      "start": 24.1214,
      "duration": 0.1575,
      "velocity": 98,
      "chip": "ym2612"
    },
    {
      "channel": 2,
      "note": 44,
      "start": 24.1219,
      "duration": 0.2808,
      "velocity": 106,
      "chip": "ym2612"
    },
    {
      "channel": 3,
      "note": 51,
      "start": 24.1224,
      "duration": 0.0741,
      "velocity": 102,
      "chip": "ym2612"
    },
    {
      "channel": 4,
      "note": 48,
      "start": 24.1229,
      "duration": 0.0737,
      "velocity": 102,
      "chip": "ym2612"
    },
    {
      "channel": 5,
      "note": 44,
      "start": 24.1234,
      "duration": 0.0734,
      "velocity": 102,
      "chip": "ym2612"
    },
    {
      "channel": 0,
      "note": 68,
      "start": 24.2861,
      "duration": 0.1578,
      "velocity": 98,
      "chip": "ym2612"
    },
    {
      "channel": 1,
      "note": 70,
      "start": 24.3687,
      "duration": 0.1577,
      "velocity": 98,
      "chip": "ym2612"
    },
    {
      "channel": 0,
      "note": 70,
      "start": 24.4514,
      "duration": 0.1575,
      "velocity": 98,
      "chip": "ym2612"
    },
    {
      "channel": 2,
      "note": 44,
      "start": 24.4519,
      "duration": 0.2843,
      "velocity": 106,
      "chip": "ym2612"
    },
    {
      "channel": 3,
      "note": 51,
      "start": 24.4524,
      "duration": 0.0741,
      "velocity": 102,
      "chip": "ym2612"
    },
    {
      "channel": 4,
      "note": 48,
      "start": 24.4529,
      "duration": 0.0737,
      "velocity": 102,
      "chip": "ym2612"
    },
    {
      "channel": 5,
      "note": 44,
      "start": 24.4534,
      "duration": 0.0733,
      "velocity": 102,
      "chip": "ym2612"
    },
    {
      "channel": 1,
      "note": 68,
      "start": 24.5337,
      "duration": 0.1617,
      "velocity": 98,
      "chip": "ym2612"
    },
    {
      "channel": 1,
      "note": 70,
      "start": 24.7022,
      "duration": 0.1577,
      "velocity": 98,
      "chip": "ym2612"
    },
    {
      "channel": 0,
      "note": 68,
      "start": 24.7846,
      "duration": 0.1578,
      "velocity": 98,
      "chip": "ym2612"
    },
    {
      "channel": 2,
      "note": 44,
      "start": 24.7852,
      "duration": 0.2846,
      "velocity": 106,
      "chip": "ym2612"
    },
    {
      "channel": 3,
      "note": 51,
      "start": 24.7857,
      "duration": 0.0743,
      "velocity": 102,
      "chip": "ym2612"
    },
    {
      "channel": 4,
      "note": 48,
      "start": 24.7861,
      "duration": 0.0739,
      "velocity": 102,
      "chip": "ym2612"
    },
    {
      "channel": 5,
      "note": 44,
      "start": 24.7866,
      "duration": 0.0735,
      "velocity": 102,
      "chip": "ym2612"
    },
    {
      "channel": 0,
      "note": 70,
      "start": 24.9496,
      "duration": 0.1613,
      "velocity": 98,
      "chip": "ym2612"
    },
    {
      "channel": 1,
      "note": 68,
      "start": 25.0357,
      "duration": 0.1577,
      "velocity": 98,
      "chip": "ym2612"
    },
    {
      "channel": 0,
      "note": 72,
      "start": 25.1182,
      "duration": 0.1577,
      "velocity": 98,
      "chip": "ym2612"
    },
    {
      "channel": 2,
      "note": 41,
      "start": 25.1187,
      "duration": 0.2809,
      "velocity": 106,
      "chip": "ym2612"
    },
    {
      "channel": 3,
      "note": 53,
      "start": 25.1192,
      "duration": 0.0743,
      "velocity": 102,
      "chip": "ym2612"
    },
    {
      "channel": 4,
      "note": 48,
      "start": 25.1197,
      "duration": 0.0739,
      "velocity": 102,
      "chip": "ym2612"
    },
    {
      "channel": 5,
      "note": 44,
      "start": 25.1202,
      "duration": 0.0735,
      "velocity": 102,
      "chip": "ym2612"
    },
    {
      "channel": 1,
      "note": 70,
      "start": 25.2006,
      "duration": 0.1579,
      "velocity": 98,
      "chip": "ym2612"
    },
    {
      "channel": 1,
      "note": 72,
      "start": 25.3657,
      "duration": 0.1577,
      "velocity": 98,
      "chip": "ym2612"
    },
    {
      "channel": 0,
      "note": 70,
      "start": 25.4482,
      "duration": 0.1578,
      "velocity": 98,
      "chip": "ym2612"
    },
    {
      "channel": 2,
      "note": 41,
      "start": 25.4487,
      "duration": 0.281,
      "velocity": 106,
      "chip": "ym2612"
    },
    {
      "channel": 3,
      "note": 53,
      "start": 25.4492,
      "duration": 0.0743,
      "velocity": 102,
      "chip": "ym2612"
    },
    {
      "channel": 4,
      "note": 48,
      "start": 25.4497,
      "duration": 0.0739,
      "velocity": 102,
      "chip": "ym2612"
    },
    {
      "channel": 5,
      "note": 44,
      "start": 25.4502,
      "duration": 0.0735,
      "velocity": 102,
      "chip": "ym2612"
    },
    {
      "channel": 1,
      "note": 70,
      "start": 25.6957,
      "duration": 0.1578,
      "velocity": 98,
      "chip": "ym2612"
    },
    {
      "channel": 0,
      "note": 68,
      "start": 25.7783,
      "duration": 0.1577,
      "velocity": 98,
      "chip": "ym2612"
    },
    {
      "channel": 2,
      "note": 41,
      "start": 25.7788,
      "duration": 0.2811,
      "velocity": 106,
      "chip": "ym2612"
    },
    {
      "channel": 3,
      "note": 53,
      "start": 25.7792,
      "duration": 0.0744,
      "velocity": 102,
      "chip": "ym2612"
    },
    {
      "channel": 4,
      "note": 48,
      "start": 25.7797,
      "duration": 0.074,
      "velocity": 102,
      "chip": "ym2612"
    },
    {
      "channel": 5,
      "note": 44,
      "start": 25.7802,
      "duration": 0.0737,
      "velocity": 102,
      "chip": "ym2612"
    },
    {
      "channel": 1,
      "note": 68,
      "start": 26.0259,
      "duration": 0.1576,
      "velocity": 98,
      "chip": "ym2612"
    },
    {
      "channel": 0,
      "note": 67,
      "start": 26.1082,
      "duration": 0.1579,
      "velocity": 98,
      "chip": "ym2612"
    },
    {
      "channel": 2,
      "note": 41,
      "start": 26.1087,
      "duration": 0.2811,
      "velocity": 106,
      "chip": "ym2612"
    },
    {
      "channel": 3,
      "note": 53,
      "start": 26.1092,
      "duration": 0.0744,
      "velocity": 102,
      "chip": "ym2612"
    },
    {
      "channel": 4,
      "note": 48,
      "start": 26.1097,
      "duration": 0.074,
      "velocity": 102,
      "chip": "ym2612"
    },
    {
      "channel": 5,
      "note": 44,
      "start": 26.1102,
      "duration": 0.0737,
      "velocity": 102,
      "chip": "ym2612"
    },
    {
      "channel": 1,
      "note": 67,
      "start": 26.3558,
      "duration": 0.1578,
      "velocity": 98,
      "chip": "ym2612"
    },
    {
      "channel": 0,
      "note": 65,
      "start": 26.4384,
      "duration": 0.1577,
      "velocity": 98,
      "chip": "ym2612"
    },
    {
      "channel": 2,
      "note": 46,
      "start": 26.4389,
      "duration": 0.281,
      "velocity": 106,
      "chip": "ym2612"
    },
    {
      "channel": 3,
      "note": 49,
      "start": 26.4394,
      "duration": 0.0742,
      "velocity": 102,
      "chip": "ym2612"
    },
    {
      "channel": 4,
      "note": 46,
      "start": 26.4399,
      "duration": 0.0739,
      "velocity": 102,
      "chip": "ym2612"
    },
    {
      "channel": 5,
      "note": 41,
      "start": 26.4404,
      "duration": 0.0735,
      "velocity": 102,
      "chip": "ym2612"
    },
    {
      "channel": 1,
      "note": 65,
      "start": 26.6858,
      "duration": 0.1579,
      "velocity": 98,
      "chip": "ym2612"
    },
    {
      "channel": 0,
      "note": 64,
      "start": 26.7684,
      "duration": 0.3263,
      "velocity": 98,
      "chip": "ym2612"
    },
    {
      "channel": 2,
      "note": 46,
      "start": 26.7689,
      "duration": 0.2844,
      "velocity": 106,
      "chip": "ym2612"
    },
    {
      "channel": 3,
      "note": 49,
      "start": 26.7694,
      "duration": 0.0744,
      "velocity": 102,
      "chip": "ym2612"
    },
    {
      "channel": 4,
      "note": 46,
      "start": 26.7699,
      "duration": 0.074,
      "velocity": 102,
      "chip": "ym2612"
    },
    {
      "channel": 5,
      "note": 41,
      "start": 26.7704,
      "duration": 0.0736,
      "velocity": 102,
      "chip": "ym2612"
    },
    {
      "channel": 1,
      "note": 64,
      "start": 27.0193,
      "duration": 0.3228,
      "velocity": 98,
      "chip": "ym2612"
    },
    {
      "channel": 0,
      "note": 65,
      "start": 27.1019,
      "duration": 0.1578,
      "velocity": 98,
      "chip": "ym2612"
    },
    {
      "channel": 2,
      "note": 46,
      "start": 27.1024,
      "duration": 0.281,
      "velocity": 106,
      "chip": "ym2612"
    },
    {
      "channel": 3,
      "note": 49,
      "start": 27.1029,
      "duration": 0.0742,
      "velocity": 102,
      "chip": "ym2612"
    },
    {
      "channel": 4,
      "note": 46,
      "start": 27.1034,
      "duration": 0.0738,
      "velocity": 102,
      "chip": "ym2612"
    },
    {
      "channel": 5,
      "note": 41,
      "start": 27.1039,
      "duration": 0.0733,
      "velocity": 102,
      "chip": "ym2612"
    },
    {
      "channel": 1,
      "note": 65,
      "start": 27.3494,
      "duration": 0.1578,
      "velocity": 98,
      "chip": "ym2612"
    },
    {
      "channel": 0,
      "note": 60,
      "start": 27.4319,
      "duration": 0.1578,
      "velocity": 98,
      "chip": "ym2612"
    },
    {
      "channel": 2,
      "note": 46,
      "start": 27.4323,
      "duration": 0.2812,
      "velocity": 106,
      "chip": "ym2612"
    },
    {
      "channel": 3,
      "note": 49,
      "start": 27.4328,
      "duration": 0.0744,
      "velocity": 102,
      "chip": "ym2612"
    },
    {
      "channel": 4,
      "note": 46,
      "start": 27.4333,
      "duration": 0.074,
      "velocity": 102,
      "chip": "ym2612"
    },
    {
      "channel": 5,
      "note": 41,
      "start": 27.4338,
      "duration": 0.0737,
      "velocity": 102,
      "chip": "ym2612"
    },
    {
      "channel": 1,
      "note": 60,
      "start": 27.6794,
      "duration": 0.1578,
      "velocity": 98,
      "chip": "ym2612"
    },
    {
      "channel": 0,
      "note": 68,
      "start": 27.7619,
      "duration": 0.6529,
      "velocity": 98,
      "chip": "ym2612"
    },
    {
      "channel": 2,
      "note": 47,
      "start": 27.7624,
      "duration": 0.2811,
      "velocity": 106,
      "chip": "ym2612"
    },
    {
      "channel": 3,
      "note": 50,
      "start": 27.7629,
      "duration": 0.0744,
      "velocity": 102,
      "chip": "ym2612"
    },
    {
      "channel": 4,
      "note": 47,
      "start": 27.7634,
      "duration": 0.074,
      "velocity": 102,
      "chip": "ym2612"
    },
    {
      "channel": 5,
      "note": 42,
      "start": 27.7638,
      "duration": 0.0737,
      "velocity": 102,
      "chip": "ym2612"
    },
    {
      "channel": 1,
      "note": 68,
      "start": 28.0095,
      "duration": 0.6529,
      "velocity": 98,
      "chip": "ym2612"
    },
    {
      "channel": 2,
      "note": 47,
      "start": 28.092,
      "duration": 0.2816,
      "velocity": 106,
      "chip": "ym2612"
    },
    {
      "channel": 3,
      "note": 50,
      "start": 28.0925,
      "duration": 0.0749,
      "velocity": 102,
      "chip": "ym2612"
    },
    {
      "channel": 4,
      "note": 47,
      "start": 28.093,
      "duration": 0.0745,
      "velocity": 102,
      "chip": "ym2612"
    },
    {
      "channel": 5,
      "note": 42,
      "start": 28.0935,
      "duration": 0.0741,
      "velocity": 102,
      "chip": "ym2612"
    },
    {
      "channel": 0,
      "note": 67,
      "start": 28.422,
      "duration": 0.3228,
      "velocity": 98,
      "chip": "ym2612"
    },
    {
      "channel": 2,
      "note": 47,
      "start": 28.4225,
      "duration": 0.2812,
      "velocity": 106,
      "chip": "ym2612"
    },
    {
      "channel": 3,
      "note": 50,
      "start": 28.423,
      "duration": 0.0744,
      "velocity": 102,
      "chip": "ym2612"
    },
    {
      "channel": 4,
      "note": 47,
      "start": 28.4234,
      "duration": 0.074,
      "velocity": 102,
      "chip": "ym2612"
    },
    {
      "channel": 5,
      "note": 42,
      "start": 28.424,
      "duration": 0.0735,
      "velocity": 102,
      "chip": "ym2612"
    },
    {
      "channel": 1,
      "note": 67,
      "start": 28.6695,
      "duration": 0.3228,
      "velocity": 98,
      "chip": "ym2612"
    },
    {
      "channel": 0,
      "note": 68,
      "start": 28.7521,
      "duration": 0.3229,
      "velocity": 98,
      "chip": "ym2612"
    },
    {
      "channel": 2,
      "note": 47,
      "start": 28.7526,
      "duration": 0.2812,
      "velocity": 106,
      "chip": "ym2612"
    },
    {
      "channel": 3,
      "note": 50,
      "start": 28.753,
      "duration": 0.0743,
      "velocity": 102,
      "chip": "ym2612"
    },
    {
      "channel": 4,
      "note": 47,
      "start": 28.7535,
      "duration": 0.0739,
      "velocity": 102,
      "chip": "ym2612"
    },
    {
      "channel": 5,
      "note": 42,
      "start": 28.754,
      "duration": 0.0735,
      "velocity": 102,
      "chip": "ym2612"
    },
    {
      "channel": 1,
      "note": 68,
      "start": 28.9999,
      "duration": 0.3225,
      "velocity": 98,
      "chip": "ym2612"
    },
    {
      "channel": 0,
      "note": 67,
      "start": 29.0822,
      "duration": 1.3129,
      "velocity": 98,
      "chip": "ym2612"
    },
    {
      "channel": 2,
      "note": 48,
      "start": 29.0827,
      "duration": 0.281,
      "velocity": 106,
      "chip": "ym2612"
    },
    {
      "channel": 3,
      "note": 51,
      "start": 29.0832,
      "duration": 0.0743,
      "velocity": 102,
      "chip": "ym2612"
    },
    {
      "channel": 4,
      "note": 48,
      "start": 29.0837,
      "duration": 0.0739,
      "velocity": 102,
      "chip": "ym2612"
    },
    {
      "channel": 5,
      "note": 43,
      "start": 29.0841,
      "duration": 0.0735,
      "velocity": 102,
      "chip": "ym2612"
    },
    {
      "channel": 1,
      "note": 67,
      "start": 29.3297,
      "duration": 1.3129,
      "velocity": 98,
      "chip": "ym2612"
    },
    {
      "channel": 2,
      "note": 48,
      "start": 29.4124,
      "duration": 0.2814,
      "velocity": 106,
      "chip": "ym2612"
    },
    {
      "channel": 3,
      "note": 51,
      "start": 29.4129,
      "duration": 0.0747,
      "velocity": 102,
      "chip": "ym2612"
    },
    {
      "channel": 4,
      "note": 48,
      "start": 29.4133,
      "duration": 0.0743,
      "velocity": 102,
      "chip": "ym2612"
    },
    {
      "channel": 5,
      "note": 43,
      "start": 29.4138,
      "duration": 0.0739,
      "velocity": 102,
      "chip": "ym2612"
    },
    {
      "channel": 2,
      "note": 48,
      "start": 29.7422,
      "duration": 0.2815,
      "velocity": 106,
      "chip": "ym2612"
    },
    {
      "channel": 3,
      "note": 51,
      "start": 29.7427,
      "duration": 0.0748,
      "velocity": 102,
      "chip": "ym2612"
    },
    {
      "channel": 4,
      "note": 48,
      "start": 29.7432,
      "duration": 0.0744,
      "velocity": 102,
      "chip": "ym2612"
    },
    {
      "channel": 5,
      "note": 43,
      "start": 29.7437,
      "duration": 0.074,
      "velocity": 102,
      "chip": "ym2612"
    },
    {
      "channel": 2,
      "note": 48,
      "start": 30.0723,
      "duration": 0.2816,
      "velocity": 106,
      "chip": "ym2612"
    },
    {
      "channel": 3,
      "note": 51,
      "start": 30.0727,
      "duration": 0.075,
      "velocity": 102,
      "chip": "ym2612"
    },
    {
      "channel": 4,
      "note": 48,
      "start": 30.0732,
      "duration": 0.0746,
      "velocity": 102,
      "chip": "ym2612"
    },
    {
      "channel": 5,
      "note": 43,
      "start": 30.0737,
      "duration": 0.0742,
      "velocity": 102,
      "chip": "ym2612"
    },
    {
      "channel": 0,
      "note": 75,
      "start": 30.4023,
      "duration": 1.3165,
      "velocity": 98,
      "chip": "ym2612"
    },
    {
      "channel": 2,
      "note": 39,
      "start": 30.4028,
      "duration": 0.2811,
      "velocity": 106,
      "chip": "ym2612"
    },
    {
      "channel": 3,
      "note": 51,
      "start": 30.4033,
      "duration": 0.0743,
      "velocity": 102,
      "chip": "ym2612"
    },
    {
      "channel": 4,
      "note": 48,
      "start": 30.4038,
      "duration": 0.0739,
      "velocity": 102,
      "chip": "ym2612"
    },
    {
      "channel": 5,
      "note": 43,
      "start": 30.4043,
      "duration": 0.0735,
      "velocity": 102,
      "chip": "ym2612"
    },
    {
      "channel": 1,
      "note": 75,
      "start": 30.6499,
      "duration": 1.0689,
      "velocity": 98,
      "chip": "ym2612"
    },
    {
      "channel": 2,
      "note": 39,
      "start": 30.7325,
      "duration": 0.2849,
      "velocity": 106,
      "chip": "ym2612"
    },
    {
      "channel": 3,
      "note": 51,
      "start": 30.7329,
      "duration": 0.0785,
      "velocity": 102,
      "chip": "ym2612"
    },
    {
      "channel": 4,
      "note": 48,
      "start": 30.7334,
      "duration": 0.078,
      "velocity": 102,
      "chip": "ym2612"
    },
    {
      "channel": 5,
      "note": 43,
      "start": 30.7339,
      "duration": 0.0777,
      "velocity": 102,
      "chip": "ym2612"
    },
    {
      "channel": 2,
      "note": 39,
      "start": 31.0664,
      "duration": 0.2811,
      "velocity": 106,
      "chip": "ym2612"
    },
    {
      "channel": 3,
      "note": 51,
      "start": 31.0669,
      "duration": 0.0746,
      "velocity": 102,
      "chip": "ym2612"
    },
    {
      "channel": 4,
      "note": 48,
      "start": 31.0674,
      "duration": 0.0742,
      "velocity": 102,
      "chip": "ym2612"
    },
    {
      "channel": 5,
      "note": 43,
      "start": 31.0679,
      "duration": 0.0738,
      "velocity": 102,
      "chip": "ym2612"
    },
    {
      "channel": 2,
      "note": 39,
      "start": 31.396,
      "duration": 0.2815,
      "velocity": 106,
      "chip": "ym2612"
    },
    {
      "channel": 3,
      "note": 51,
      "start": 31.3965,
      "duration": 0.075,
      "velocity": 102,
      "chip": "ym2612"
    },
    {
      "channel": 4,
      "note": 48,
      "start": 31.397,
      "duration": 0.0746,
      "velocity": 102,
      "chip": "ym2612"
    },
    {
      "channel": 5,
      "note": 43,
      "start": 31.3974,
      "duration": 0.0743,
      "velocity": 102,
      "chip": "ym2612"
    },
    {
      "channel": 0,
      "note": 77,
      "start": 31.726,
      "duration": 0.1577,
      "velocity": 98,
      "chip": "ym2612"
    },
    {
      "channel": 2,
      "note": 46,
      "start": 31.7265,
      "duration": 0.281,
      "velocity": 106,
      "chip": "ym2612"
    },
    {
      "channel": 3,
      "note": 53,
      "start": 31.727,
      "duration": 0.1568,
      "velocity": 102,
      "chip": "ym2612"
    },
    {
      "channel": 4,
      "note": 49,
      "start": 31.7275,
      "duration": 0.1565,
      "velocity": 102,
      "chip": "ym2612"
    },
    {
      "channel": 5,
      "note": 46,
      "start": 31.728,
      "duration": 0.1561,
      "velocity": 102,
      "chip": "ym2612"
    },
    {
      "channel": 1,
      "note": 77,
      "start": 31.9736,
      "duration": 0.1579,
      "velocity": 98,
      "chip": "ym2612"
    },
    {
      "channel": 0,
      "note": 73,
      "start": 32.056,
      "duration": 0.1578,
      "velocity": 98,
      "chip": "ym2612"
    },
    {
      "channel": 2,
      "note": 46,
      "start": 32.0564,
      "duration": 0.2811,
      "velocity": 106,
      "chip": "ym2612"
    },
    {
      "channel": 3,
      "note": 53,
      "start": 32.0569,
      "duration": 0.1569,
      "velocity": 102,
      "chip": "ym2612"
    },
    {
      "channel": 4,
      "note": 49,
      "start": 32.0574,
      "duration": 0.1565,
      "velocity": 102,
      "chip": "ym2612"
    },
    {
      "channel": 5,
      "note": 46,
      "start": 32.0579,
      "duration": 0.1562,
      "velocity": 102,
      "chip": "ym2612"
    },
    {
      "channel": 0,
      "note": 72,
      "start": 32.2211,
      "duration": 0.1578,
      "velocity": 98,
      "chip": "ym2612"
    },
    {
      "channel": 1,
      "note": 73,
      "start": 32.3035,
      "duration": 0.158,
      "velocity": 98,
      "chip": "ym2612"
    },
    {
      "channel": 0,
      "note": 73,
      "start": 32.386,
      "duration": 0.1578,
      "velocity": 98,
      "chip": "ym2612"
    },
    {
      "channel": 2,
      "note": 46,
      "start": 32.3865,
      "duration": 0.2813,
      "velocity": 106,
      "chip": "ym2612"
    },
    {
      "channel": 3,
      "note": 53,
      "start": 32.387,
      "duration": 0.1569,
      "velocity": 102,
      "chip": "ym2612"
    },
    {
      "channel": 4,
      "note": 49,
      "start": 32.3875,
      "duration": 0.1565,
      "velocity": 102,
      "chip": "ym2612"
    },
    {
      "channel": 5,
      "note": 46,
      "start": 32.388,
      "duration": 0.1561,
      "velocity": 102,
      "chip": "ym2612"
    },
    {
      "channel": 1,
      "note": 72,
      "start": 32.4685,
      "duration": 0.1578,
      "velocity": 98,
      "chip": "ym2612"
    },
    {
      "channel": 1,
      "note": 73,
      "start": 32.6337,
      "duration": 0.1612,
      "velocity": 98,
      "chip": "ym2612"
    },
    {
      "channel": 0,
      "note": 70,
      "start": 32.7195,
      "duration": 0.1578,
      "velocity": 98,
      "chip": "ym2612"
    },
    {
      "channel": 2,
      "note": 46,
      "start": 32.72,
      "duration": 0.2815,
      "velocity": 106,
      "chip": "ym2612"
    },
    {
      "channel": 3,
      "note": 53,
      "start": 32.7205,
      "duration": 0.1569,
      "velocity": 102,
      "chip": "ym2612"
    },
    {
      "channel": 4,
      "note": 49,
      "start": 32.721,
      "duration": 0.1565,
      "velocity": 102,
      "chip": "ym2612"
    },
    {
      "channel": 5,
      "note": 46,
      "start": 32.7218,
      "duration": 0.1558,
      "velocity": 102,
      "chip": "ym2612"
    },
    {
      "channel": 0,
      "note": 68,
      "start": 32.8845,
      "duration": 0.1578,
      "velocity": 98,
      "chip": "ym2612"
    },
    {
      "channel": 1,
      "note": 70,
      "start": 32.9671,
      "duration": 0.1578,
      "velocity": 98,
      "chip": "ym2612"
    },
    {
      "channel": 0,
      "note": 70,
      "start": 33.0496,
      "duration": 0.1578,
      "velocity": 98,
      "chip": "ym2612"
    },
    {
      "channel": 2,
      "note": 43,
      "start": 33.0501,
      "duration": 0.2813,
      "velocity": 106,
      "chip": "ym2612"
    },
    {
      "channel": 3,
      "note": 53,
      "start": 33.0506,
      "duration": 0.1569,
      "velocity": 102,
      "chip": "ym2612"
    },
    {
      "channel": 4,
      "note": 49,
      "start": 33.0515,
      "duration": 0.1561,
      "velocity": 102,
      "chip": "ym2612"
    },
    {
      "channel": 5,
      "note": 46,
      "start": 33.0519,
      "duration": 0.1557,
      "velocity": 102,
      "chip": "ym2612"
    },
    {
      "channel": 1,
      "note": 68,
      "start": 33.1321,
      "duration": 0.1579,
      "velocity": 98,
      "chip": "ym2612"
    },
    {
      "channel": 1,
      "note": 70,
      "start": 33.2971,
      "duration": 0.1579,
      "velocity": 98,
      "chip": "ym2612"
    },
    {
      "channel": 0,
      "note": 65,
      "start": 33.3796,
      "duration": 0.1578,
      "velocity": 98,
      "chip": "ym2612"
    },
    {
      "channel": 2,
      "note": 43,
      "start": 33.3801,
      "duration": 0.2814,
      "velocity": 106,
      "chip": "ym2612"
    },
    {
      "channel": 3,
      "note": 53,
      "start": 33.3806,
      "duration": 0.157,
      "velocity": 102,
      "chip": "ym2612"
    },
    {
      "channel": 4,
      "note": 49,
      "start": 33.3811,
      "duration": 0.1566,
      "velocity": 102,
      "chip": "ym2612"
    },
    {
      "channel": 5,
      "note": 46,
      "start": 33.3818,
      "duration": 0.1559,
      "velocity": 102,
      "chip": "ym2612"
    },
    {
      "channel": 1,
      "note": 65,
      "start": 33.6271,
      "duration": 0.1579,
      "velocity": 98,
      "chip": "ym2612"
    },
    {
      "channel": 0,
      "note": 67,
      "start": 33.7096,
      "duration": 0.1578,
      "velocity": 98,
      "chip": "ym2612"
    },
    {
      "channel": 2,
      "note": 43,
      "start": 33.7101,
      "duration": 0.2814,
      "velocity": 106,
      "chip": "ym2612"
    },
    {
      "channel": 3,
      "note": 53,
      "start": 33.7106,
      "duration": 0.1569,
      "velocity": 102,
      "chip": "ym2612"
    },
    {
      "channel": 4,
      "note": 49,
      "start": 33.7111,
      "duration": 0.1566,
      "velocity": 102,
      "chip": "ym2612"
    },
    {
      "channel": 5,
      "note": 46,
      "start": 33.7118,
      "duration": 0.1559,
      "velocity": 102,
      "chip": "ym2612"
    },
    {
      "channel": 1,
      "note": 67,
      "start": 33.9573,
      "duration": 0.1577,
      "velocity": 98,
      "chip": "ym2612"
    },
    {
      "channel": 0,
      "note": 65,
      "start": 34.0397,
      "duration": 0.1579,
      "velocity": 98,
      "chip": "ym2612"
    },
    {
      "channel": 2,
      "note": 43,
      "start": 34.0402,
      "duration": 0.2814,
      "velocity": 106,
      "chip": "ym2612"
    },
    {
      "channel": 3,
      "note": 53,
      "start": 34.0407,
      "duration": 0.157,
      "velocity": 102,
      "chip": "ym2612"
    },
    {
      "channel": 4,
      "note": 49,
      "start": 34.0414,
      "duration": 0.1564,
      "velocity": 102,
      "chip": "ym2612"
    },
    {
      "channel": 5,
      "note": 46,
      "start": 34.0419,
      "duration": 0.156,
      "velocity": 102,
      "chip": "ym2612"
    },
    {
      "channel": 1,
      "note": 65,
      "start": 34.2873,
      "duration": 0.1578,
      "velocity": 98,
      "chip": "ym2612"
    },
    {
      "channel": 0,
      "note": 75,
      "start": 34.3699,
      "duration": 0.1577,
      "velocity": 98,
      "chip": "ym2612"
    },
    {
      "channel": 2,
      "note": 44,
      "start": 34.3703,
      "duration": 0.2812,
      "velocity": 106,
      "chip": "ym2612"
    },
    {
      "channel": 3,
      "note": 51,
      "start": 34.3708,
      "duration": 0.1568,
      "velocity": 102,
      "chip": "ym2612"
    },
    {
      "channel": 4,
      "note": 48,
      "start": 34.3717,
      "duration": 0.1561,
      "velocity": 102,
      "chip": "ym2612"
    },
    {
      "channel": 5,
      "note": 44,
      "start": 34.3722,
      "duration": 0.1557,
      "velocity": 102,
      "chip": "ym2612"
    },
    {
      "channel": 1,
      "note": 75,
      "start": 34.6174,
      "duration": 0.158,
      "velocity": 98,
      "chip": "ym2612"
    },
    {
      "channel": 0,
      "note": 70,
      "start": 34.6999,
      "duration": 0.1577,
      "velocity": 98,
      "chip": "ym2612"
    },
    {
      "channel": 2,
      "note": 44,
      "start": 34.7004,
      "duration": 0.2811,
      "velocity": 106,
      "chip": "ym2612"
    },
    {
      "channel": 3,
      "note": 51,
      "start": 34.7009,
      "duration": 0.1568,
      "velocity": 102,
      "chip": "ym2612"
    },
    {
      "channel": 4,
      "note": 48,
      "start": 34.7016,
      "duration": 0.1561,
      "velocity": 102,
      "chip": "ym2612"
    },
    {
      "channel": 5,
      "note": 44,
      "start": 34.7021,
      "duration": 0.1558,
      "velocity": 102,
      "chip": "ym2612"
    },
    {
      "channel": 0,
      "note": 68,
      "start": 34.8648,
      "duration": 0.1578,
      "velocity": 98,
      "chip": "ym2612"
    },
    {
      "channel": 1,
      "note": 70,
      "start": 34.9474,
      "duration": 0.1578,
      "velocity": 98,
      "chip": "ym2612"
    },
    {
      "channel": 0,
      "note": 70,
      "start": 35.0298,
      "duration": 0.1579,
      "velocity": 98,
      "chip": "ym2612"
    },
    {
      "channel": 2,
      "note": 44,
      "start": 35.0303,
      "duration": 0.2812,
      "velocity": 106,
      "chip": "ym2612"
    },
    {
      "channel": 3,
      "note": 51,
      "start": 35.0308,
      "duration": 0.157,
      "velocity": 102,
      "chip": "ym2612"
    },
    {
      "channel": 4,
      "note": 48,
      "start": 35.0316,
      "duration": 0.1564,
      "velocity": 102,
      "chip": "ym2612"
    },
    {
      "channel": 5,
      "note": 44,
      "start": 35.032,
      "duration": 0.156,
      "velocity": 102,
      "chip": "ym2612"
    },
    {
      "channel": 1,
      "note": 68,
      "start": 35.1124,
      "duration": 0.1579,
      "velocity": 98,
      "chip": "ym2612"
    },
    {
      "channel": 1,
      "note": 70,
      "start": 35.2775,
      "duration": 0.1577,
      "velocity": 98,
      "chip": "ym2612"
    },
    {
      "channel": 0,
      "note": 68,
      "start": 35.3599,
      "duration": 0.1579,
      "velocity": 98,
      "chip": "ym2612"
    },
    {
      "channel": 2,
      "note": 44,
      "start": 35.3604,
      "duration": 0.2812,
      "velocity": 106,
      "chip": "ym2612"
    },
    {
      "channel": 3,
      "note": 51,
      "start": 35.3608,
      "duration": 0.1571,
      "velocity": 102,
      "chip": "ym2612"
    },
    {
      "channel": 4,
      "note": 48,
      "start": 35.3616,
      "duration": 0.1564,
      "velocity": 102,
      "chip": "ym2612"
    },
    {
      "channel": 5,
      "note": 44,
      "start": 35.3621,
      "duration": 0.156,
      "velocity": 102,
      "chip": "ym2612"
    },
    {
      "channel": 0,
      "note": 70,
      "start": 35.525,
      "duration": 0.1577,
      "velocity": 98,
      "chip": "ym2612"
    },
    {
      "channel": 1,
      "note": 68,
      "start": 35.6075,
      "duration": 0.1577,
      "velocity": 98,
      "chip": "ym2612"
    },
    {
      "channel": 0,
      "note": 72,
      "start": 35.6899,
      "duration": 0.1579,
      "velocity": 98,
      "chip": "ym2612"
    },
    {
      "channel": 2,
      "note": 41,
      "start": 35.6904,
      "duration": 0.2811,
      "velocity": 106,
      "chip": "ym2612"
    },
    {
      "channel": 3,
      "note": 53,
      "start": 35.6909,
      "duration": 0.1571,
      "velocity": 102,
      "chip": "ym2612"
    },
    {
      "channel": 4,
      "note": 48,
      "start": 35.6917,
      "duration": 0.1563,
      "velocity": 102,
      "chip": "ym2612"
    },
    {
      "channel": 5,
      "note": 44,
      "start": 35.6922,
      "duration": 0.1559,
      "velocity": 102,
      "chip": "ym2612"
    },
    {
      "channel": 1,
      "note": 70,
      "start": 35.7727,
      "duration": 0.1576,
      "velocity": 98,
      "chip": "ym2612"
    },
    {
      "channel": 1,
      "note": 72,
      "start": 35.9376,
      "duration": 0.1579,
      "velocity": 98,
      "chip": "ym2612"
    },
    {
      "channel": 0,
      "note": 70,
      "start": 36.0201,
      "duration": 0.1577,
      "velocity": 98,
      "chip": "ym2612"
    },
    {
      "channel": 2,
      "note": 41,
      "start": 36.0205,
      "duration": 0.281,
      "velocity": 106,
      "chip": "ym2612"
    },
    {
      "channel": 3,
      "note": 53,
      "start": 36.021,
      "duration": 0.1568,
      "velocity": 102,
      "chip": "ym2612"
    },
    {
      "channel": 4,
      "note": 48,
      "start": 36.0218,
      "duration": 0.1562,
      "velocity": 102,
      "chip": "ym2612"
    },
    {
      "channel": 5,
      "note": 44,
      "start": 36.0223,
      "duration": 0.1558,
      "velocity": 102,
      "chip": "ym2612"
    },
    {
      "channel": 1,
      "note": 70,
      "start": 36.2675,
      "duration": 0.1578,
      "velocity": 98,
      "chip": "ym2612"
    },
    {
      "channel": 0,
      "note": 68,
      "start": 36.3501,
      "duration": 0.1578,
      "velocity": 98,
      "chip": "ym2612"
    },
    {
      "channel": 2,
      "note": 41,
      "start": 36.3505,
      "duration": 0.281,
      "velocity": 106,
      "chip": "ym2612"
    },
    {
      "channel": 3,
      "note": 53,
      "start": 36.351,
      "duration": 0.1569,
      "velocity": 102,
      "chip": "ym2612"
    },
    {
      "channel": 4,
      "note": 48,
      "start": 36.3518,
      "duration": 0.1563,
      "velocity": 102,
      "chip": "ym2612"
    },
    {
      "channel": 5,
      "note": 44,
      "start": 36.3523,
      "duration": 0.156,
      "velocity": 102,
      "chip": "ym2612"
    },
    {
      "channel": 1,
      "note": 68,
      "start": 36.5977,
      "duration": 0.1578,
      "velocity": 98,
      "chip": "ym2612"
    },
    {
      "channel": 0,
      "note": 67,
      "start": 36.6801,
      "duration": 0.1578,
      "velocity": 98,
      "chip": "ym2612"
    },
    {
      "channel": 2,
      "note": 41,
      "start": 36.6806,
      "duration": 0.281,
      "velocity": 106,
      "chip": "ym2612"
    },
    {
      "channel": 3,
      "note": 53,
      "start": 36.6811,
      "duration": 0.1569,
      "velocity": 102,
      "chip": "ym2612"
    },
    {
      "channel": 4,
      "note": 48,
      "start": 36.6818,
      "duration": 0.1562,
      "velocity": 102,
      "chip": "ym2612"
    },
    {
      "channel": 5,
      "note": 44,
      "start": 36.6823,
      "duration": 0.1559,
      "velocity": 102,
      "chip": "ym2612"
    },
    {
      "channel": 1,
      "note": 67,
      "start": 36.9277,
      "duration": 0.1578,
      "velocity": 98,
      "chip": "ym2612"
    },
    {
      "channel": 0,
      "note": 65,
      "start": 37.0101,
      "duration": 0.1578,
      "velocity": 98,
      "chip": "ym2612"
    },
    {
      "channel": 2,
      "note": 46,
      "start": 37.0106,
      "duration": 0.2812,
      "velocity": 106,
      "chip": "ym2612"
    },
    {
      "channel": 3,
      "note": 49,
      "start": 37.0114,
      "duration": 0.1567,
      "velocity": 102,
      "chip": "ym2612"
    },
    {
      "channel": 4,
      "note": 46,
      "start": 37.0118,
      "duration": 0.1563,
      "velocity": 102,
      "chip": "ym2612"
    },
    {
      "channel": 5,
      "note": 41,
      "start": 37.0124,
      "duration": 0.1558,
      "velocity": 102,
      "chip": "ym2612"
    },
    {
      "channel": 1,
      "note": 65,
      "start": 37.2577,
      "duration": 0.1579,
      "velocity": 98,
      "chip": "ym2612"
    },
    {
      "channel": 0,
      "note": 64,
      "start": 37.3402,
      "duration": 0.3229,
      "velocity": 98,
      "chip": "ym2612"
    },
    {
      "channel": 2,
      "note": 46,
      "start": 37.3407,
      "duration": 0.2812,
      "velocity": 106,
      "chip": "ym2612"
    },
    {
      "channel": 3,
      "note": 49,
      "start": 37.3414,
      "duration": 0.1567,
      "velocity": 102,
      "chip": "ym2612"
    },
    {
      "channel": 4,
      "note": 46,
      "start": 37.3419,
      "duration": 0.1563,
      "velocity": 102,
      "chip": "ym2612"
    },
    {
      "channel": 5,
      "note": 41,
      "start": 37.3424,
      "duration": 0.1559,
      "velocity": 102,
      "chip": "ym2612"
    },
    {
      "channel": 1,
      "note": 64,
      "start": 37.5882,
      "duration": 0.3223,
      "velocity": 98,
      "chip": "ym2612"
    },
    {
      "channel": 0,
      "note": 65,
      "start": 37.6702,
      "duration": 0.1578,
      "velocity": 98,
      "chip": "ym2612"
    },
    {
      "channel": 2,
      "note": 46,
      "start": 37.6707,
      "duration": 0.2812,
      "velocity": 106,
      "chip": "ym2612"
    },
    {
      "channel": 3,
      "note": 49,
      "start": 37.6715,
      "duration": 0.1567,
      "velocity": 102,
      "chip": "ym2612"
    },
    {
      "channel": 4,
      "note": 46,
      "start": 37.6719,
      "duration": 0.1563,
      "velocity": 102,
      "chip": "ym2612"
    },
    {
      "channel": 5,
      "note": 41,
      "start": 37.6724,
      "duration": 0.1559,
      "velocity": 102,
      "chip": "ym2612"
    },
    {
      "channel": 1,
      "note": 65,
      "start": 37.9178,
      "duration": 0.1613,
      "velocity": 98,
      "chip": "ym2612"
    },
    {
      "channel": 0,
      "note": 60,
      "start": 38.0004,
      "duration": 0.1612,
      "velocity": 98,
      "chip": "ym2612"
    },
    {
      "channel": 2,
      "note": 46,
      "start": 38.0009,
      "duration": 0.2844,
      "velocity": 106,
      "chip": "ym2612"
    },
    {
      "channel": 3,
      "note": 49,
      "start": 38.0016,
      "duration": 0.1601,
      "velocity": 102,
      "chip": "ym2612"
    },
    {
      "channel": 4,
      "note": 46,
      "start": 38.0021,
      "duration": 0.1597,
      "velocity": 102,
      "chip": "ym2612"
    },
    {
      "channel": 5,
      "note": 41,
      "start": 38.0026,
      "duration": 0.1593,
      "velocity": 102,
      "chip": "ym2612"
    },
    {
      "channel": 1,
      "note": 60,
      "start": 38.2515,
      "duration": 0.1575,
      "velocity": 98,
      "chip": "ym2612"
    },
    {
      "channel": 0,
      "note": 68,
      "start": 38.334,
      "duration": 0.6527,
      "velocity": 98,
      "chip": "ym2612"
    },
    {
      "channel": 2,
      "note": 47,
      "start": 38.3344,
      "duration": 0.2815,
      "velocity": 106,
      "chip": "ym2612"
    },
    {
      "channel": 3,
      "note": 50,
      "start": 38.3349,
      "duration": 0.1566,
      "velocity": 102,
      "chip": "ym2612"
    },
    {
      "channel": 4,
      "note": 47,
      "start": 38.3354,
      "duration": 0.1562,
      "velocity": 102,
      "chip": "ym2612"
    },
    {
      "channel": 5,
      "note": 42,
      "start": 38.3359,
      "duration": 0.1559,
      "velocity": 102,
      "chip": "ym2612"
    },
    {
      "channel": 1,
      "note": 68,
      "start": 38.5816,
      "duration": 0.6526,
      "velocity": 98,
      "chip": "ym2612"
    },
    {
      "channel": 2,
      "note": 47,
      "start": 38.6638,
      "duration": 0.2815,
      "velocity": 106,
      "chip": "ym2612"
    },
    {
      "channel": 3,
      "note": 50,
      "start": 38.6643,
      "duration": 0.1573,
      "velocity": 102,
      "chip": "ym2612"
    },
    {
      "channel": 4,
      "note": 47,
      "start": 38.6648,
      "duration": 0.1569,
      "velocity": 102,
      "chip": "ym2612"
    },
    {
      "channel": 5,
      "note": 42,
      "start": 38.6654,
      "duration": 0.1564,
      "velocity": 102,
      "chip": "ym2612"
    },
    {
      "channel": 0,
      "note": 71,
      "start": 38.9939,
      "duration": 0.3229,
      "velocity": 98,
      "chip": "ym2612"
    },
    {
      "channel": 2,
      "note": 47,
      "start": 38.9944,
      "duration": 0.2812,
      "velocity": 106,
      "chip": "ym2612"
    },
    {
      "channel": 3,
      "note": 50,
      "start": 38.9948,
      "duration": 0.1568,
      "velocity": 102,
      "chip": "ym2612"
    },
    {
      "channel": 4,
      "note": 47,
      "start": 38.9953,
      "duration": 0.1564,
      "velocity": 102,
      "chip": "ym2612"
    },
    {
      "channel": 5,
      "note": 42,
      "start": 38.9958,
      "duration": 0.1561,
      "velocity": 102,
      "chip": "ym2612"
    },
    {
      "channel": 1,
      "note": 71,
      "start": 39.2416,
      "duration": 0.3226,
      "velocity": 98,
      "chip": "ym2612"
    },
    {
      "channel": 0,
      "note": 70,
      "start": 39.324,
      "duration": 0.3227,
      "velocity": 98,
      "chip": "ym2612"
    },
    {
      "channel": 2,
      "note": 47,
      "start": 39.3245,
      "duration": 0.281,
      "velocity": 106,
      "chip": "ym2612"
    },
    {
      "channel": 3,
      "note": 50,
      "start": 39.325,
      "duration": 0.1568,
      "velocity": 102,
      "chip": "ym2612"
    },
    {
      "channel": 4,
      "note": 47,
      "start": 39.3254,
      "duration": 0.1565,
      "velocity": 102,
      "chip": "ym2612"
    },
    {
      "channel": 5,
      "note": 42,
      "start": 39.3259,
      "duration": 0.1561,
      "velocity": 102,
      "chip": "ym2612"
    },
    {
      "channel": 1,
      "note": 70,
      "start": 39.5718,
      "duration": 0.3224,
      "velocity": 98,
      "chip": "ym2612"
    },
    {
      "channel": 0,
      "note": 68,
      "start": 39.6545,
      "duration": 2.6327,
      "velocity": 98,
      "chip": "ym2612"
    },
    {
      "channel": 2,
      "note": 48,
      "start": 39.6549,
      "duration": 0.2807,
      "velocity": 106,
      "chip": "ym2612"
    },
    {
      "channel": 3,
      "note": 51,
      "start": 39.6554,
      "duration": 0.1564,
      "velocity": 102,
      "chip": "ym2612"
    },
    {
      "channel": 4,
      "note": 48,
      "start": 39.6559,
      "duration": 0.156,
      "velocity": 102,
      "chip": "ym2612"
    },
    {
      "channel": 5,
      "note": 44,
      "start": 39.6564,
      "duration": 0.1556,
      "velocity": 102,
      "chip": "ym2612"
    },
    {
      "channel": 1,
      "note": 68,
      "start": 39.9018,
      "duration": 2.6363,
      "velocity": 98,
      "chip": "ym2612"
    },
    {
      "channel": 2,
      "note": 48,
      "start": 39.9841,
      "duration": 0.2815,
      "velocity": 106,
      "chip": "ym2612"
    },
    {
      "channel": 3,
      "note": 51,
      "start": 39.9846,
      "duration": 0.1573,
      "velocity": 102,
      "chip": "ym2612"
    },
    {
      "channel": 4,
      "note": 48,
      "start": 39.9851,
      "duration": 0.1569,
      "velocity": 102,
      "chip": "ym2612"
    },
    {
      "channel": 5,
      "note": 44,
      "start": 39.9856,
      "duration": 0.1565,
      "velocity": 102,
      "chip": "ym2612"
    },
    {
      "channel": 2,
      "note": 48,
      "start": 40.3141,
      "duration": 0.2815,
      "velocity": 106,
      "chip": "ym2612"
    },
    {
      "channel": 3,
      "note": 51,
      "start": 40.3146,
      "duration": 0.1573,
      "velocity": 102,
      "chip": "ym2612"
    },
    {
      "channel": 4,
      "note": 48,
      "start": 40.3151,
      "duration": 0.1569,
      "velocity": 102,
      "chip": "ym2612"
    },
    {
      "channel": 5,
      "note": 44,
      "start": 40.3155,
      "duration": 0.1565,
      "velocity": 102,
      "chip": "ym2612"
    },
    {
      "channel": 2,
      "note": 48,
      "start": 40.6441,
      "duration": 0.2815,
      "velocity": 106,
      "chip": "ym2612"
    },
    {
      "channel": 3,
      "note": 51,
      "start": 40.6446,
      "duration": 0.1573,
      "velocity": 102,
      "chip": "ym2612"
    },
    {
      "channel": 4,
      "note": 48,
      "start": 40.6451,
      "duration": 0.1569,
      "velocity": 102,
      "chip": "ym2612"
    },
    {
      "channel": 5,
      "note": 44,
      "start": 40.6456,
      "duration": 0.1565,
      "velocity": 102,
      "chip": "ym2612"
    },
    {
      "channel": 2,
      "note": 48,
      "start": 40.9742,
      "duration": 0.2815,
      "velocity": 106,
      "chip": "ym2612"
    },
    {
      "channel": 3,
      "note": 51,
      "start": 40.9747,
      "duration": 0.1573,
      "velocity": 102,
      "chip": "ym2612"
    },
    {
      "channel": 4,
      "note": 48,
      "start": 40.9752,
      "duration": 0.1569,
      "velocity": 102,
      "chip": "ym2612"
    },
    {
      "channel": 5,
      "note": 44,
      "start": 40.9757,
      "duration": 0.1565,
      "velocity": 102,
      "chip": "ym2612"
    },
    {
      "channel": 2,
      "note": 48,
      "start": 41.3043,
      "duration": 0.2816,
      "velocity": 106,
      "chip": "ym2612"
    },
    {
      "channel": 3,
      "note": 51,
      "start": 41.3047,
      "duration": 0.1572,
      "velocity": 102,
      "chip": "ym2612"
    },
    {
      "channel": 4,
      "note": 48,
      "start": 41.3052,
      "duration": 0.1569,
      "velocity": 102,
      "chip": "ym2612"
    },
    {
      "channel": 5,
      "note": 44,
      "start": 41.3057,
      "duration": 0.1565,
      "velocity": 102,
      "chip": "ym2612"
    },
    {
      "channel": 2,
      "note": 48,
      "start": 41.6344,
      "duration": 0.2815,
      "velocity": 106,
      "chip": "ym2612"
    },
    {
      "channel": 3,
      "note": 51,
      "start": 41.6348,
      "duration": 0.1572,
      "velocity": 102,
      "chip": "ym2612"
    },
    {
      "channel": 4,
      "note": 48,
      "start": 41.6353,
      "duration": 0.1568,
      "velocity": 102,
      "chip": "ym2612"
    },
    {
      "channel": 5,
      "note": 44,
      "start": 41.6358,
      "duration": 0.1564,
      "velocity": 102,
      "chip": "ym2612"
    },
    {
      "channel": 2,
      "note": 48,
      "start": 41.9643,
      "duration": 0.2815,
      "velocity": 106,
      "chip": "ym2612"
    },
    {
      "channel": 3,
      "note": 51,
      "start": 41.9648,
      "duration": 0.1573,
      "velocity": 102,
      "chip": "ym2612"
    },
    {
      "channel": 4,
      "note": 48,
      "start": 41.9653,
      "duration": 0.1569,
      "velocity": 102,
      "chip": "ym2612"
    },
    {
      "channel": 5,
      "note": 44,
      "start": 41.9658,
      "duration": 0.1565,
      "velocity": 102,
      "chip": "ym2612"
    },
    {
      "channel": 0,
      "note": 67,
      "start": 42.2944,
      "duration": 2.6366,
      "velocity": 98,
      "chip": "ym2612"
    },
    {
      "channel": 2,
      "note": 48,
      "start": 42.2949,
      "duration": 1.1508,
      "velocity": 106,
      "chip": "ym2612"
    },
    {
      "channel": 3,
      "note": 52,
      "start": 42.2954,
      "duration": 0.3253,
      "velocity": 102,
      "chip": "ym2612"
    },
    {
      "channel": 4,
      "note": 48,
      "start": 42.2959,
      "duration": 0.3249,
      "velocity": 102,
      "chip": "ym2612"
    },
    {
      "channel": 5,
      "note": 43,
      "start": 42.2964,
      "duration": 0.1592,
      "velocity": 102,
      "chip": "ym2612"
    },
    {
      "channel": 1,
      "note": 67,
      "start": 42.5453,
      "duration": 2.3856,
      "velocity": 98,
      "chip": "ym2612"
    },
    {
      "channel": 5,
      "note": 43,
      "start": 42.6278,
      "duration": 0.1578,
      "velocity": 102,
      "chip": "ym2612"
    },
    {
      "channel": 3,
      "note": 52,
      "start": 42.958,
      "duration": 0.3227,
      "velocity": 102,
      "chip": "ym2612"
    },
    {
      "channel": 4,
      "note": 48,
      "start": 42.9585,
      "duration": 0.3223,
      "velocity": 102,
      "chip": "ym2612"
    },
    {
      "channel": 5,
      "note": 43,
      "start": 42.959,
      "duration": 0.1568,
      "velocity": 102,
      "chip": "ym2612"
    },
    {
      "channel": 5,
      "note": 43,
      "start": 43.288,
      "duration": 0.1578,
      "velocity": 102,
      "chip": "ym2612"
    },
    {
      "channel": 2,
      "note": 48,
      "start": 43.618,
      "duration": 1.1479,
      "velocity": 106,
      "chip": "ym2612"
    },
    {
      "channel": 3,
      "note": 52,
      "start": 43.6185,
      "duration": 0.3224,
      "velocity": 102,
      "chip": "ym2612"
    },
    {
      "channel": 4,
      "note": 48,
      "start": 43.619,
      "duration": 0.322,
      "velocity": 102,
      "chip": "ym2612"
    },
    {
      "channel": 5,
      "note": 43,
      "start": 43.6195,
      "duration": 0.1565,
      "velocity": 102,
      "chip": "ym2612"
    },
    {
      "channel": 5,
      "note": 43,
      "start": 43.9486,
      "duration": 0.1573,
      "velocity": 102,
      "chip": "ym2612"
    },
    {
      "channel": 3,
      "note": 52,
      "start": 44.2782,
      "duration": 0.3227,
      "velocity": 102,
      "chip": "ym2612"
    },
    {
      "channel": 4,
      "note": 48,
      "start": 44.2787,
      "duration": 0.3223,
      "velocity": 102,
      "chip": "ym2612"
    },
    {
      "channel": 5,
      "note": 43,
      "start": 44.2792,
      "duration": 0.1567,
      "velocity": 102,
      "chip": "ym2612"
    },
    {
      "channel": 5,
      "note": 43,
      "start": 44.6082,
      "duration": 0.1578,
      "velocity": 102,
      "chip": "ym2612"
    },
    {
      "channel": 0,
      "note": 75,
      "start": 44.9393,
      "duration": 0.6522,
      "velocity": 98,
      "chip": "ym2612"
    },
    {
      "channel": 2,
      "note": 44,
      "start": 44.9421,
      "duration": 1.1441,
      "velocity": 106,
      "chip": "ym2612"
    },
    {
      "channel": 3,
      "note": 48,
      "start": 44.9436,
      "duration": 0.4825,
      "velocity": 102,
      "chip": "ym2612"
    },
    {
      "channel": 4,
      "note": 44,
      "start": 44.9454,
      "duration": 0.4808,
      "velocity": 102,
      "chip": "ym2612"
    },
    {
      "channel": 5,
      "note": 39,
      "start": 44.947,
      "duration": 0.2315,
      "velocity": 102,
      "chip": "ym2612"
    },
    {
      "channel": 1,
      "note": 75,
      "start": 45.1857,
      "duration": 0.6529,
      "velocity": 98,
      "chip": "ym2612"
    },
    {
      "channel": 5,
      "note": 39,
      "start": 45.2683,
      "duration": 0.2402,
      "velocity": 102,
      "chip": "ym2612"
    },
    {
      "channel": 0,
      "note": 75,
      "start": 45.5983,
      "duration": 0.3232,
      "velocity": 98,
      "chip": "ym2612"
    },
    {
      "channel": 3,
      "note": 51,
      "start": 45.5988,
      "duration": 0.4875,
      "velocity": 102,
      "chip": "ym2612"
    },
    {
      "channel": 4,
      "note": 48,
      "start": 45.5992,
      "duration": 0.4871,
      "velocity": 102,
      "chip": "ym2612"
    },
    {
      "channel": 5,
      "note": 44,
      "start": 45.5997,
      "duration": 0.2389,
      "velocity": 102,
      "chip": "ym2612"
    },
    {
      "channel": 1,
      "note": 75,
      "start": 45.8459,
      "duration": 0.3227,
      "velocity": 98,
      "chip": "ym2612"
    },
    {
      "channel": 0,
      "note": 73,
      "start": 45.9284,
      "duration": 0.2459,
      "velocity": 98,
      "chip": "ym2612"
    },
    {
      "channel": 5,
      "note": 39,
      "start": 45.9289,
      "duration": 0.2398,
      "velocity": 102,
      "chip": "ym2612"
    }
  ]
}