{
  "track_name": "07 - Stage 3-1 - Stage 5-4",
  "duration_sec": 22.934,
  "sample_rate": 44100,
  "note_count": 505,
  "unique_pitches": 35,
  "pitch_range": 46,
  "avg_note_duration": 0.2111,
  "reconstruction_stats": {
    "notes_reconstructed": 505,
    "keyon_events": 505,
    "keyoff_events": 500,
    "orphan_keyons": 5,
    "unique_pitches": 35,
    "pitch_range": 46,
    "avg_duration_sec": 0.2111
  },
  "metadata": {
    "source": "S\\Splatterhouse 2\\07 - Stage 3-1 - Stage 5-4.vgz"
  },
  "notes": [
    {
      "channel": 0,
      "note": 85,
      "start": 0.0724,
      "duration": 0.2284,
      "velocity": 87,
      "chip": "ym2612"
    },
    {
      "channel": 0,
      "note": 82,
      "start": 0.3009,
      "duration": 0.2332,
      "velocity": 87,
      "chip": "ym2612"
    },
    {
      "channel": 4,
      "note": 85,
      "start": 0.3019,
      "duration": 0.2332,
      "velocity": 87,
      "chip": "ym2612"
    },
    {
      "channel": 0,
      "note": 81,
      "start": 0.5342,
      "duration": 0.2332,
      "velocity": 87,
      "chip": "ym2612"
    },
    {
      "channel": 4,
      "note": 82,
      "start": 0.5352,
      "duration": 0.2332,
      "velocity": 87,
      "chip": "ym2612"
    },
    {
      "channel": 0,
      "note": 78,
      "start": 0.7675,
      "duration": 0.2333,
      "velocity": 87,
      "chip": "ym2612"
    },
    {
      "channel": 4,
      "note": 81,
      "start": 0.7685,
      "duration": 0.2334,
      "velocity": 87,
      "chip": "ym2612"
    },
    {
      "channel": 0,
      "note": 85,
      "start": 1.001,
      "duration": 0.2332,
      "velocity": 87,
      "chip": "ym2612"
    },
    {
      "channel": 4,
      "note": 78,
      "start": 1.0019,
      "duration": 0.2332,
      "velocity": 87,
      "chip": "ym2612"
    },
    {
      "channel": 0,
      "note": 82,
      "start": 1.2342,
      "duration": 0.2335,
      "velocity": 87,
      "chip": "ym2612"
    },
    {
      "channel": 4,
      "note": 85,
      "start": 1.2351,
      "duration": 0.2341,
      "velocity": 87,
      "chip": "ym2612"
    },
    {
      "channel": 0,
      "note": 81,
      "start": 1.4678,
      "duration": 0.2331,
      "velocity": 87,
      "chip": "ym2612"
    },
    {
      "channel": 3,
      "note": 73,
      "start": 1.4686,
      "duration": 0.1156,
      "velocity": 75,
      "chip": "ym2612"
    },
    {
      "channel": 4,
      "note": 82,
      "start": 1.4693,
      "duration": 0.2332,
      "velocity": 87,
      "chip": "ym2612"
    },
    {
      "channel": 3,
      "note": 74,
      "start": 1.5844,
      "duration": 0.1174,
      "velocity": 75,
      "chip": "ym2612"
    },
    {
      "channel": 0,
      "note": 78,
      "start": 1.701,
      "duration": 0.2337,
      "velocity": 87,
      "chip": "ym2612"
    },
    {
      "channel": 3,
      "note": 73,
      "start": 1.7019,
      "duration": 0.2341,
      "velocity": 75,
      "chip": "ym2612"
    },
    {
      "channel": 4,
      "note": 81,
      "start": 1.7026,
      "duration": 0.234,
      "velocity": 87,
      "chip": "ym2612"
    },
    {
      "channel": 0,
      "note": 84,
      "start": 1.9349,
      "duration": 0.2326,
      "velocity": 87,
      "chip": "ym2612"
    },
    {
      "channel": 4,
      "note": 78,
      "start": 1.9367,
      "duration": 0.2317,
      "velocity": 87,
      "chip": "ym2612"
    },
    {
      "channel": 0,
      "note": 81,
      "start": 2.1675,
      "duration": 0.2333,
      "velocity": 87,
      "chip": "ym2612"
    },
    {
      "channel": 4,
      "note": 84,
      "start": 2.1685,
      "duration": 0.2333,
      "velocity": 87,
      "chip": "ym2612"
    },
    {
      "channel": 0,
      "note": 80,
      "start": 2.4009,
      "duration": 0.2332,
      "velocity": 87,
      "chip": "ym2612"
    },
    {
      "channel": 4,
      "note": 81,
      "start": 2.4019,
      "duration": 0.2332,
      "velocity": 87,
      "chip": "ym2612"
    },
    {
      "channel": 0,
      "note": 77,
      "start": 2.6342,
      "duration": 0.2333,
      "velocity": 87,
      "chip": "ym2612"
    },
    {
      "channel": 4,
      "note": 80,
      "start": 2.6351,
      "duration": 0.2333,
      "velocity": 87,
      "chip": "ym2612"
    },
    {
      "channel": 0,
      "note": 84,
      "start": 2.8676,
      "duration": 0.2332,
      "velocity": 87,
      "chip": "ym2612"
    },
    {
      "channel": 4,
      "note": 77,
      "start": 2.8685,
      "duration": 0.2332,
      "velocity": 87,
      "chip": "ym2612"
    },
    {
      "channel": 0,
      "note": 81,
      "start": 3.1008,
      "duration": 0.2335,
      "velocity": 87,
      "chip": "ym2612"
    },
    {
      "channel": 4,
      "note": 84,
      "start": 3.1018,
      "duration": 0.2341,
      "velocity": 87,
      "chip": "ym2612"
    },
    {
      "channel": 0,
      "note": 80,
      "start": 3.3344,
      "duration": 0.2332,
      "velocity": 87,
      "chip": "ym2612"
    },
    {
      "channel": 3,
      "note": 72,
      "start": 3.3353,
      "duration": 0.1157,
      "velocity": 75,
      "chip": "ym2612"
    },
    {
      "channel": 4,
      "note": 81,
      "start": 3.336,
      "duration": 0.2332,
      "velocity": 87,
      "chip": "ym2612"
    },
    {
      "channel": 3,
      "note": 73,
      "start": 3.4511,
      "duration": 0.1174,
      "velocity": 75,
      "chip": "ym2612"
    },
    {
      "channel": 0,
      "note": 77,
      "start": 3.5677,
      "duration": 0.2339,
      "velocity": 87,
      "chip": "ym2612"
    },
    {
      "channel": 3,
      "note": 72,
      "start": 3.5686,
      "duration": 0.2346,
      "velocity": 75,
      "chip": "ym2612"
    },
    {
      "channel": 4,
      "note": 80,
      "start": 3.5693,
      "duration": 0.2346,
      "velocity": 87,
      "chip": "ym2612"
    },
    {
      "channel": 0,
      "note": 85,
      "start": 3.8017,
      "duration": 0.2325,
      "velocity": 87,
      "chip": "ym2612"
    },
    {
      "channel": 2,
      "note": 86,
      "start": 3.8027,
      "duration": 0.1481,
      "velocity": 87,
      "chip": "ym2612"
    },
    {
      "channel": 4,
      "note": 77,
      "start": 3.8039,
      "duration": 0.2314,
      "velocity": 87,
      "chip": "ym2612"
    },
    {
      "channel": 2,
      "note": 85,
      "start": 3.951,
      "duration": 0.1499,
      "velocity": 87,
      "chip": "ym2612"
    },
    {
      "channel": 0,
      "note": 82,
      "start": 4.0343,
      "duration": 0.2334,
      "velocity": 87,
      "chip": "ym2612"
    },
    {
      "channel": 4,
      "note": 85,
      "start": 4.0354,
      "duration": 0.2339,
      "velocity": 87,
      "chip": "ym2612"
    },
    {
      "channel": 2,
      "note": 84,
      "start": 4.101,
      "duration": 0.1674,
      "velocity": 87,
      "chip": "ym2612"
    },
    {
      "channel": 0,
      "note": 81,
      "start": 4.2678,
      "duration": 0.233,
      "velocity": 87,
      "chip": "ym2612"
    },
    {
      "channel": 2,
      "note": 83,
      "start": 4.2685,
      "duration": 0.149,
      "velocity": 87,
      "chip": "ym2612"
    },
    {
      "channel": 4,
      "note": 82,
      "start": 4.2693,
      "duration": 0.2325,
      "velocity": 87,
      "chip": "ym2612"
    },
    {
      "channel": 2,
      "note": 82,
      "start": 4.4177,
      "duration": 0.1499,
      "velocity": 87,
      "chip": "ym2612"
    },
    {
      "channel": 0,
      "note": 78,
      "start": 4.5008,
      "duration": 0.2336,
      "velocity": 87,
      "chip": "ym2612"
    },
    {
      "channel": 4,
      "note": 81,
      "start": 4.502,
      "duration": 0.234,
      "velocity": 87,
      "chip": "ym2612"
    },
    {
      "channel": 2,
      "note": 81,
      "start": 4.5676,
      "duration": 0.1676,
      "velocity": 87,
      "chip": "ym2612"
    },
    {
      "channel": 0,
      "note": 85,
      "start": 4.7345,
      "duration": 0.2329,
      "velocity": 87,
      "chip": "ym2612"
    },
    {
      "channel": 2,
      "note": 86,
      "start": 4.7353,
      "duration": 0.1489,
      "velocity": 87,
      "chip": "ym2612"
    },
    {
      "channel": 4,
      "note": 78,
      "start": 4.7361,
      "duration": 0.2324,
      "velocity": 87,
      "chip": "ym2612"
    },
    {
      "channel": 2,
      "note": 85,
      "start": 4.8843,
      "duration": 0.1499,
      "velocity": 87,
      "chip": "ym2612"
    },
    {
      "channel": 0,
      "note": 82,
      "start": 4.9676,
      "duration": 0.2336,
      "velocity": 87,
      "chip": "ym2612"
    },
    {
      "channel": 4,
      "note": 85,
      "start": 4.9686,
      "duration": 0.2347,
      "velocity": 87,
      "chip": "ym2612"
    },
    {
      "channel": 2,
      "note": 84,
      "start": 5.0344,
      "duration": 0.1676,
      "velocity": 87,
      "chip": "ym2612"
    },
    {
      "channel": 0,
      "note": 81,
      "start": 5.2012,
      "duration": 0.2331,
      "velocity": 87,
      "chip": "ym2612"
    },
    {
      "channel": 2,
      "note": 83,
      "start": 5.202,
      "duration": 0.1489,
      "velocity": 87,
      "chip": "ym2612"
    },
    {
      "channel": 3,
      "note": 73,
      "start": 5.2027,
      "duration": 0.1151,
      "velocity": 75,
      "chip": "ym2612"
    },
    {
      "channel": 4,
      "note": 82,
      "start": 5.2035,
      "duration": 0.2325,
      "velocity": 87,
      "chip": "ym2612"
    },
    {
      "channel": 3,
      "note": 74,
      "start": 5.3179,
      "duration": 0.1174,
      "velocity": 75,
      "chip": "ym2612"
    },
    {
      "channel": 2,
      "note": 82,
      "start": 5.351,
      "duration": 0.1499,
      "velocity": 87,
      "chip": "ym2612"
    },
    {
      "channel": 0,
      "note": 78,
      "start": 5.4344,
      "duration": 0.2339,
      "velocity": 87,
      "chip": "ym2612"
    },
    {
      "channel": 3,
      "note": 73,
      "start": 5.4354,
      "duration": 0.2344,
      "velocity": 75,
      "chip": "ym2612"
    },
    {
      "channel": 4,
      "note": 81,
      "start": 5.4361,
      "duration": 0.2343,
      "velocity": 87,
      "chip": "ym2612"
    },
    {
      "channel": 2,
      "note": 81,
      "start": 5.501,
      "duration": 0.1683,
      "velocity": 87,
      "chip": "ym2612"
    },
    {
      "channel": 0,
      "note": 84,
      "start": 5.6683,
      "duration": 0.2326,
      "velocity": 87,
      "chip": "ym2612"
    },
    {
      "channel": 2,
      "note": 86,
      "start": 5.6694,
      "duration": 0.1481,
      "velocity": 87,
      "chip": "ym2612"
    },
    {
      "channel": 4,
      "note": 78,
      "start": 5.6705,
      "duration": 0.2315,
      "velocity": 87,
      "chip": "ym2612"
    },
    {
      "channel": 2,
      "note": 85,
      "start": 5.8176,
      "duration": 0.1499,
      "velocity": 87,
      "chip": "ym2612"
    },
    {
      "channel": 0,
      "note": 81,
      "start": 5.9009,
      "duration": 0.2335,
      "velocity": 87,
      "chip": "ym2612"
    },
    {
      "channel": 4,
      "note": 84,
      "start": 5.902,
      "duration": 0.2339,
      "velocity": 87,
      "chip": "ym2612"
    },
    {
      "channel": 2,
      "note": 84,
      "start": 5.9676,
      "duration": 0.1675,
      "velocity": 87,
      "chip": "ym2612"
    },
    {
      "channel": 0,
      "note": 80,
      "start": 6.1344,
      "duration": 0.233,
      "velocity": 87,
      "chip": "ym2612"
    },
    {
      "channel": 2,
      "note": 83,
      "start": 6.1352,
      "duration": 0.149,
      "velocity": 87,
      "chip": "ym2612"
    },
    {
      "channel": 4,
      "note": 81,
      "start": 6.136,
      "duration": 0.2326,
      "velocity": 87,
      "chip": "ym2612"
    },
    {
      "channel": 2,
      "note": 82,
      "start": 6.2843,
      "duration": 0.1499,
      "velocity": 87,
      "chip": "ym2612"
    },
    {
      "channel": 0,
      "note": 77,
      "start": 6.3676,
      "duration": 0.2335,
      "velocity": 87,
      "chip": "ym2612"
    },
    {
      "channel": 4,
      "note": 80,
      "start": 6.3686,
      "duration": 0.234,
      "velocity": 87,
      "chip": "ym2612"
    },
    {
      "channel": 2,
      "note": 81,
      "start": 6.4344,
      "duration": 0.1675,
      "velocity": 87,
      "chip": "ym2612"
    },
    {
      "channel": 0,
      "note": 84,
      "start": 6.6012,
      "duration": 0.233,
      "velocity": 87,
      "chip": "ym2612"
    },
    {
      "channel": 2,
      "note": 86,
      "start": 6.6019,
      "duration": 0.149,
      "velocity": 87,
      "chip": "ym2612"
    },
    {
      "channel": 4,
      "note": 77,
      "start": 6.6027,
      "duration": 0.2326,
      "velocity": 87,
      "chip": "ym2612"
    },
    {
      "channel": 2,
      "note": 85,
      "start": 6.751,
      "duration": 0.1499,
      "velocity": 87,
      "chip": "ym2612"
    },
    {
      "channel": 0,
      "note": 81,
      "start": 6.8342,
      "duration": 0.2336,
      "velocity": 87,
      "chip": "ym2612"
    },
    {
      "channel": 4,
      "note": 84,
      "start": 6.8354,
      "duration": 0.2347,
      "velocity": 87,
      "chip": "ym2612"
    },
    {
      "channel": 2,
      "note": 84,
      "start": 6.901,
      "duration": 0.1676,
      "velocity": 87,
      "chip": "ym2612"
    },
    {
      "channel": 0,
      "note": 80,
      "start": 7.0679,
      "duration": 0.233,
      "velocity": 87,
      "chip": "ym2612"
    },
    {
      "channel": 2,
      "note": 83,
      "start": 7.0687,
      "duration": 0.1489,
      "velocity": 87,
      "chip": "ym2612"
    },
    {
      "channel": 3,
      "note": 72,
      "start": 7.0694,
      "duration": 0.1151,
      "velocity": 75,
      "chip": "ym2612"
    },
    {
      "channel": 4,
      "note": 81,
      "start": 7.0702,
      "duration": 0.2326,
      "velocity": 87,
      "chip": "ym2612"
    },
    {
      "channel": 3,
      "note": 73,
      "start": 7.1845,
      "duration": 0.1175,
      "velocity": 75,
      "chip": "ym2612"
    },
    {
      "channel": 2,
      "note": 82,
      "start": 7.2177,
      "duration": 0.1499,
      "velocity": 87,
      "chip": "ym2612"
    },
    {
      "channel": 0,
      "note": 77,
      "start": 7.301,
      "duration": 0.2345,
      "velocity": 87,
      "chip": "ym2612"
    },
    {
      "channel": 3,
      "note": 72,
      "start": 7.3021,
      "duration": 0.2353,
      "velocity": 75,
      "chip": "ym2612"
    },
    {
      "channel": 4,
      "note": 80,
      "start": 7.3028,
      "duration": 0.2352,
      "velocity": 87,
      "chip": "ym2612"
    },
    {
      "channel": 2,
      "note": 81,
      "start": 7.3677,
      "duration": 0.1692,
      "velocity": 87,
      "chip": "ym2612"
    },
    {
      "channel": 0,
      "note": 85,
      "start": 7.5356,
      "duration": 0.2323,
      "velocity": 87,
      "chip": "ym2612"
    },
    {
      "channel": 1,
      "note": 49,
      "start": 7.5363,
      "duration": 0.2323,
      "velocity": 99,
      "chip": "ym2612"
    },
    {
      "channel": 2,
      "note": 86,
      "start": 7.537,
      "duration": 0.1475,
      "velocity": 87,
      "chip": "ym2612"
    },
    {
      "channel": 4,
      "note": 77,
      "start": 7.5381,
      "duration": 0.2315,
      "velocity": 87,
      "chip": "ym2612"
    },
    {
      "channel": 5,
      "note": 44,
      "start": 7.5408,
      "duration": 0.4658,
      "velocity": 127,
      "chip": "ym2612"
    },
    {
      "channel": 2,
      "note": 85,
      "start": 7.6845,
      "duration": 0.15,
      "velocity": 87,
      "chip": "ym2612"
    },
    {
      "channel": 0,
      "note": 82,
      "start": 7.7679,
      "duration": 0.2337,
      "velocity": 87,
      "chip": "ym2612"
    },
    {
      "channel": 1,
      "note": 48,
      "start": 7.7686,
      "duration": 0.2337,
      "velocity": 99,
      "chip": "ym2612"
    },
    {
      "channel": 4,
      "note": 85,
      "start": 7.7697,
      "duration": 0.2341,
      "velocity": 87,
      "chip": "ym2612"
    },
    {
      "channel": 2,
      "note": 84,
      "start": 7.8345,
      "duration": 0.1685,
      "velocity": 87,
      "chip": "ym2612"
    },
    {
      "channel": 0,
      "note": 81,
      "start": 8.0017,
      "duration": 0.2326,
      "velocity": 87,
      "chip": "ym2612"
    },
    {
      "channel": 1,
      "note": 54,
      "start": 8.0024,
      "duration": 0.2326,
      "velocity": 99,
      "chip": "ym2612"
    },
    {
      "channel": 2,
      "note": 83,
      "start": 8.0031,
      "duration": 0.148,
      "velocity": 87,
      "chip": "ym2612"
    },
    {
      "channel": 4,
      "note": 82,
      "start": 8.0039,
      "duration": 0.2321,
      "velocity": 87,
      "chip": "ym2612"
    },
    {
      "channel": 5,
      "note": 54,
      "start": 8.0067,
      "duration": 0.4667,
      "velocity": 103,
      "chip": "ym2612"
    },
    {
      "channel": 2,
      "note": 82,
      "start": 8.1512,
      "duration": 0.1499,
      "velocity": 87,
      "chip": "ym2612"
    },
    {
      "channel": 0,
      "note": 78,
      "start": 8.2344,
      "duration": 0.234,
      "velocity": 87,
      "chip": "ym2612"
    },
    {
      "channel": 1,
      "note": 53,
      "start": 8.2351,
      "duration": 0.234,
      "velocity": 99,
      "chip": "ym2612"
    },
    {
      "channel": 4,
      "note": 81,
      "start": 8.2362,
      "duration": 0.2344,
      "velocity": 87,
      "chip": "ym2612"
    },
    {
      "channel": 2,
      "note": 81,
      "start": 8.3012,
      "duration": 0.1686,
      "velocity": 87,
      "chip": "ym2612"
    },
    {
      "channel": 0,
      "note": 85,
      "start": 8.4685,
      "duration": 0.2326,
      "velocity": 87,
      "chip": "ym2612"
    },
    {
      "channel": 1,
      "note": 49,
      "start": 8.4692,
      "duration": 0.2326,
      "velocity": 99,
      "chip": "ym2612"
    },
    {
      "channel": 2,
      "note": 86,
      "start": 8.4698,
      "duration": 0.148,
      "velocity": 87,
      "chip": "ym2612"
    },
    {
      "channel": 4,
      "note": 78,
      "start": 8.4707,
      "duration": 0.2321,
      "velocity": 87,
      "chip": "ym2612"
    },
    {
      "channel": 5,
      "note": 44,
      "start": 8.4734,
      "duration": 0.4673,
      "velocity": 127,
      "chip": "ym2612"
    },
    {
      "channel": 2,
      "note": 85,
      "start": 8.6179,
      "duration": 0.15,
      "velocity": 87,
      "chip": "ym2612"
    },
    {
      "channel": 0,
      "note": 82,
      "start": 8.7011,
      "duration": 0.234,
      "velocity": 87,
      "chip": "ym2612"
    },
    {
      "channel": 1,
      "note": 48,
      "start": 8.7019,
      "duration": 0.234,
      "velocity": 99,
      "chip": "ym2612"
    },
    {
      "channel": 4,
      "note": 85,
      "start": 8.7029,
      "duration": 0.2351,
      "velocity": 87,
      "chip": "ym2612"
    },
    {
      "channel": 2,
      "note": 84,
      "start": 8.7679,
      "duration": 0.1686,
      "velocity": 87,
      "chip": "ym2612"
    },
    {
      "channel": 0,
      "note": 81,
      "start": 8.9352,
      "duration": 0.2331,
      "velocity": 87,
      "chip": "ym2612"
    },
    {
      "channel": 1,
      "note": 54,
      "start": 8.9359,
      "duration": 0.233,
      "velocity": 99,
      "chip": "ym2612"
    },
    {
      "channel": 2,
      "note": 83,
      "start": 8.9366,
      "duration": 0.1478,
      "velocity": 87,
      "chip": "ym2612"
    },
    {
      "channel": 3,
      "note": 69,
      "start": 8.9373,
      "duration": 0.1141,
      "velocity": 75,
      "chip": "ym2612"
    },
    {
      "channel": 4,
      "note": 82,
      "start": 8.938,
      "duration": 0.2326,
      "velocity": 87,
      "chip": "ym2612"
    },
    {
      "channel": 5,
      "note": 54,
      "start": 8.9408,
      "duration": 0.2327,
      "velocity": 84,
      "chip": "ym2612"
    },
    {
      "channel": 3,
      "note": 68,
      "start": 9.0515,
      "duration": 0.1184,
      "velocity": 75,
      "chip": "ym2612"
    },
    {
      "channel": 2,
      "note": 82,
      "start": 9.0846,
      "duration": 0.1499,
      "velocity": 87,
      "chip": "ym2612"
    },
    {
      "channel": 0,
      "note": 78,
      "start": 9.1683,
      "duration": 0.2336,
      "velocity": 87,
      "chip": "ym2612"
    },
    {
      "channel": 1,
      "note": 53,
      "start": 9.169,
      "duration": 0.2336,
      "velocity": 99,
      "chip": "ym2612"
    },
    {
      "channel": 3,
      "note": 72,
      "start": 9.17,
      "duration": 0.1151,
      "velocity": 75,
      "chip": "ym2612"
    },
    {
      "channel": 4,
      "note": 81,
      "start": 9.1707,
      "duration": 0.2337,
      "velocity": 87,
      "chip": "ym2612"
    },
    {
      "channel": 5,
      "note": 59,
      "start": 9.1735,
      "duration": 0.1146,
      "velocity": 84,
      "chip": "ym2612"
    },
    {
      "channel": 2,
      "note": 81,
      "start": 9.2346,
      "duration": 0.1687,
      "velocity": 87,
      "chip": "ym2612"
    },
    {
      "channel": 3,
      "note": 71,
      "start": 9.2852,
      "duration": 0.1185,
      "velocity": 75,
      "chip": "ym2612"
    },
    {
      "channel": 5,
      "note": 59,
      "start": 9.2882,
      "duration": 0.119,
      "velocity": 103,
      "chip": "ym2612"
    },
    {
      "channel": 0,
      "note": 84,
      "start": 9.402,
      "duration": 0.2324,
      "velocity": 87,
      "chip": "ym2612"
    },
    {
      "channel": 1,
      "note": 57,
      "start": 9.4027,
      "duration": 0.2324,
      "velocity": 99,
      "chip": "ym2612"
    },
    {
      "channel": 2,
      "note": 86,
      "start": 9.4034,
      "duration": 0.1478,
      "velocity": 87,
      "chip": "ym2612"
    },
    {
      "channel": 4,
      "note": 78,
      "start": 9.4045,
      "duration": 0.2316,
      "velocity": 87,
      "chip": "ym2612"
    },
    {
      "channel": 5,
      "note": 44,
      "start": 9.4073,
      "duration": 0.466,
      "velocity": 127,
      "chip": "ym2612"
    },
    {
      "channel": 2,
      "note": 85,
      "start": 9.5512,
      "duration": 0.15,
      "velocity": 87,
      "chip": "ym2612"
    },
    {
      "channel": 0,
      "note": 81,
      "start": 9.6345,
      "duration": 0.2338,
      "velocity": 87,
      "chip": "ym2612"
    },
    {
      "channel": 1,
      "note": 48,
      "start": 9.6352,
      "duration": 0.2338,
      "velocity": 99,
      "chip": "ym2612"
    },
    {
      "channel": 4,
      "note": 84,
      "start": 9.6362,
      "duration": 0.2343,
      "velocity": 87,
      "chip": "ym2612"
    },
    {
      "channel": 2,
      "note": 84,
      "start": 9.7012,
      "duration": 0.1685,
      "velocity": 87,
      "chip": "ym2612"
    },
    {
      "channel": 0,
      "note": 80,
      "start": 9.8684,
      "duration": 0.2326,
      "velocity": 87,
      "chip": "ym2612"
    },
    {
      "channel": 1,
      "note": 54,
      "start": 9.8691,
      "duration": 0.2326,
      "velocity": 99,
      "chip": "ym2612"
    },
    {
      "channel": 2,
      "note": 83,
      "start": 9.8698,
      "duration": 0.148,
      "velocity": 87,
      "chip": "ym2612"
    },
    {
      "channel": 4,
      "note": 81,
      "start": 9.8705,
      "duration": 0.2323,
      "velocity": 87,
      "chip": "ym2612"
    },
    {
      "channel": 5,
      "note": 54,
      "start": 9.8733,
      "duration": 0.4667,
      "velocity": 103,
      "chip": "ym2612"
    },
    {
      "channel": 2,
      "note": 82,
      "start": 10.0179,
      "duration": 0.15,
      "velocity": 87,
      "chip": "ym2612"
    },
    {
      "channel": 0,
      "note": 77,
      "start": 10.1011,
      "duration": 0.234,
      "velocity": 87,
      "chip": "ym2612"
    },
    {
      "channel": 1,
      "note": 53,
      "start": 10.1019,
      "duration": 0.2339,
      "velocity": 99,
      "chip": "ym2612"
    },
    {
      "channel": 4,
      "note": 80,
      "start": 10.1029,
      "duration": 0.2344,
      "velocity": 87,
      "chip": "ym2612"
    },
    {
      "channel": 2,
      "note": 81,
      "start": 10.1679,
      "duration": 0.1686,
      "velocity": 87,
      "chip": "ym2612"
    },
    {
      "channel": 0,
      "note": 84,
      "start": 10.3351,
      "duration": 0.2326,
      "velocity": 87,
      "chip": "ym2612"
    },
    {
      "channel": 1,
      "note": 57,
      "start": 10.3358,
      "duration": 0.2326,
      "velocity": 99,
      "chip": "ym2612"
    },
    {
      "channel": 2,
      "note": 86,
      "start": 10.3365,
      "duration": 0.148,
      "velocity": 87,
      "chip": "ym2612"
    },
    {
      "channel": 4,
      "note": 77,
      "start": 10.3373,
      "duration": 0.2321,
      "velocity": 87,
      "chip": "ym2612"
    },
    {
      "channel": 5,
      "note": 44,
      "start": 10.3401,
      "duration": 0.4673,
      "velocity": 127,
      "chip": "ym2612"
    },
    {
      "channel": 2,
      "note": 85,
      "start": 10.4845,
      "duration": 0.15,
      "velocity": 87,
      "chip": "ym2612"
    },
    {
      "channel": 0,
      "note": 81,
      "start": 10.5678,
      "duration": 0.234,
      "velocity": 87,
      "chip": "ym2612"
    },
    {
      "channel": 1,
      "note": 48,
      "start": 10.5685,
      "duration": 0.234,
      "velocity": 99,
      "chip": "ym2612"
    },
    {
      "channel": 4,
      "note": 84,
      "start": 10.5695,
      "duration": 0.2351,
      "velocity": 87,
      "chip": "ym2612"
    },
    {
      "channel": 2,
      "note": 84,
      "start": 10.6346,
      "duration": 0.1686,
      "velocity": 87,
      "chip": "ym2612"
    },
    {
      "channel": 0,
      "note": 80,
      "start": 10.8019,
      "duration": 0.2331,
      "velocity": 87,
      "chip": "ym2612"
    },
    {
      "channel": 1,
      "note": 54,
      "start": 10.8025,
      "duration": 0.2331,
      "velocity": 99,
      "chip": "ym2612"
    },
    {
      "channel": 2,
      "note": 83,
      "start": 10.8033,
      "duration": 0.1479,
      "velocity": 87,
      "chip": "ym2612"
    },
    {
      "channel": 3,
      "note": 74,
      "start": 10.804,
      "duration": 0.1141,
      "velocity": 75,
      "chip": "ym2612"
    },
    {
      "channel": 4,
      "note": 81,
      "start": 10.8047,
      "duration": 0.2326,
      "velocity": 87,
      "chip": "ym2612"
    },
    {
      "channel": 5,
      "note": 54,
      "start": 10.8074,
      "duration": 0.2326,
      "velocity": 84,
      "chip": "ym2612"
    },
    {
      "channel": 3,
      "note": 73,
      "start": 10.9181,
      "duration": 0.1184,
      "velocity": 75,
      "chip": "ym2612"
    },
    {
      "channel": 2,
      "note": 82,
      "start": 10.9513,
      "duration": 0.1499,
      "velocity": 87,
      "chip": "ym2612"
    },
    {
      "channel": 0,
      "note": 77,
      "start": 11.035,
      "duration": 0.2336,
      "velocity": 87,
      "chip": "ym2612"
    },
    {
      "channel": 1,
      "note": 53,
      "start": 11.0357,
      "duration": 0.2336,
      "velocity": 99,
      "chip": "ym2612"
    },
    {
      "channel": 3,
      "note": 72,
      "start": 11.0366,
      "duration": 0.1152,
      "velocity": 75,
      "chip": "ym2612"
    },
    {
      "channel": 4,
      "note": 80,
      "start": 11.0373,
      "duration": 0.2338,
      "velocity": 87,
      "chip": "ym2612"
    },
    {
      "channel": 5,
      "note": 59,
      "start": 11.0401,
      "duration": 0.1147,
      "velocity": 84,
      "chip": "ym2612"
    },
    {
      "channel": 2,
      "note": 81,
      "start": 11.1013,
      "duration": 0.1687,
      "velocity": 87,
      "chip": "ym2612"
    },
    {
      "channel": 3,
      "note": 74,
      "start": 11.1519,
      "duration": 0.1186,
      "velocity": 75,
      "chip": "ym2612"
    },
    {
      "channel": 5,
      "note": 59,
      "start": 11.1549,
      "duration": 0.119,
      "velocity": 103,
      "chip": "ym2612"
    },
    {
      "channel": 0,
      "note": 85,
      "start": 11.2686,
      "duration": 0.2324,
      "velocity": 87,
      "chip": "ym2612"
    },
    {
      "channel": 1,
      "note": 46,
      "start": 11.2693,
      "duration": 0.2325,
      "velocity": 99,
      "chip": "ym2612"
    },
    {
      "channel": 2,
      "note": 88,
      "start": 11.2701,
      "duration": 0.1476,
      "velocity": 87,
      "chip": "ym2612"
    },
    {
      "channel": 4,
      "note": 77,
      "start": 11.2712,
      "duration": 0.2317,
      "velocity": 87,
      "chip": "ym2612"
    },
    {
      "channel": 5,
      "note": 44,
      "start": 11.2739,
      "duration": 0.466,
      "velocity": 127,
      "chip": "ym2612"
    },
    {
      "channel": 2,
      "note": 87,
      "start": 11.4179,
      "duration": 0.15,
      "velocity": 87,
      "chip": "ym2612"
    },
    {
      "channel": 0,
      "note": 82,
      "start": 11.5012,
      "duration": 0.2338,
      "velocity": 87,
      "chip": "ym2612"
    },
    {
      "channel": 1,
      "note": 58,
      "start": 11.5019,
      "duration": 0.2337,
      "velocity": 99,
      "chip": "ym2612"
    },
    {
      "channel": 4,
      "note": 85,
      "start": 11.5029,
      "duration": 0.2342,
      "velocity": 87,
      "chip": "ym2612"
    },
    {
      "channel": 2,
      "note": 86,
      "start": 11.5679,
      "duration": 0.1685,
      "velocity": 87,
      "chip": "ym2612"
    },
    {
      "channel": 0,
      "note": 81,
      "start": 11.735,
      "duration": 0.2326,
      "velocity": 87,
      "chip": "ym2612"
    },
    {
      "channel": 1,
      "note": 54,
      "start": 11.7357,
      "duration": 0.2327,
      "velocity": 99,
      "chip": "ym2612"
    },
    {
      "channel": 2,
      "note": 85,
      "start": 11.7364,
      "duration": 0.1481,
      "velocity": 87,
      "chip": "ym2612"
    },
    {
      "channel": 4,
      "note": 82,
      "start": 11.7372,
      "duration": 0.2322,
      "velocity": 87,
      "chip": "ym2612"
    },
    {
      "channel": 5,
      "note": 54,
      "start": 11.74,
      "duration": 0.4667,
      "velocity": 103,
      "chip": "ym2612"
    },
    {
      "channel": 2,
      "note": 84,
      "start": 11.8845,
      "duration": 0.1499,
      "velocity": 87,
      "chip": "ym2612"
    },
    {
      "channel": 0,
      "note": 78,
      "start": 11.9678,
      "duration": 0.2339,
      "velocity": 87,
      "chip": "ym2612"
    },
    {
      "channel": 1,
      "note": 53,
      "start": 11.9685,
      "duration": 0.2339,
      "velocity": 99,
      "chip": "ym2612"
    },
    {
      "channel": 4,
      "note": 81,
      "start": 11.9695,
      "duration": 0.2344,
      "velocity": 87,
      "chip": "ym2612"
    },
    {
      "channel": 2,
      "note": 83,
      "start": 12.0345,
      "duration": 0.1686,
      "velocity": 87,
      "chip": "ym2612"
    },
    {
      "channel": 0,
      "note": 85,
      "start": 12.2018,
      "duration": 0.2326,
      "velocity": 87,
      "chip": "ym2612"
    },
    {
      "channel": 1,
      "note": 52,
      "start": 12.2025,
      "duration": 0.2326,
      "velocity": 99,
      "chip": "ym2612"
    },
    {
      "channel": 2,
      "note": 88,
      "start": 12.2032,
      "duration": 0.148,
      "velocity": 87,
      "chip": "ym2612"
    },
    {
      "channel": 4,
      "note": 78,
      "start": 12.204,
      "duration": 0.2321,
      "velocity": 87,
      "chip": "ym2612"
    },
    {
      "channel": 5,
      "note": 44,
      "start": 12.2068,
      "duration": 0.4673,
      "velocity": 127,
      "chip": "ym2612"
    },
    {
      "channel": 2,
      "note": 87,
      "start": 12.3512,
      "duration": 0.15,
      "velocity": 87,
      "chip": "ym2612"
    },
    {
      "channel": 0,
      "note": 82,
      "start": 12.4344,
      "duration": 0.2341,
      "velocity": 87,
      "chip": "ym2612"
    },
    {
      "channel": 1,
      "note": 51,
      "start": 12.4352,
      "duration": 0.234,
      "velocity": 99,
      "chip": "ym2612"
    },
    {
      "channel": 4,
      "note": 85,
      "start": 12.4362,
      "duration": 0.2352,
      "velocity": 87,
      "chip": "ym2612"
    },
    {
      "channel": 2,
      "note": 86,
      "start": 12.5012,
      "duration": 0.1687,
      "velocity": 87,
      "chip": "ym2612"
    },
    {
      "channel": 0,
      "note": 81,
      "start": 12.6686,
      "duration": 0.233,
      "velocity": 87,
      "chip": "ym2612"
    },
    {
      "channel": 1,
      "note": 57,
      "start": 12.6693,
      "duration": 0.233,
      "velocity": 99,
      "chip": "ym2612"
    },
    {
      "channel": 2,
      "note": 85,
      "start": 12.67,
      "duration": 0.1478,
      "velocity": 87,
      "chip": "ym2612"
    },
    {
      "channel": 3,
      "note": 69,
      "start": 12.6707,
      "duration": 0.114,
      "velocity": 75,
      "chip": "ym2612"
    },
    {
      "channel": 4,
      "note": 82,
      "start": 12.6715,
      "duration": 0.2326,
      "velocity": 87,
      "chip": "ym2612"
    },
    {
      "channel": 5,
      "note": 54,
      "start": 12.6742,
      "duration": 0.2326,
      "velocity": 84,
      "chip": "ym2612"
    },
    {
      "channel": 3,
      "note": 68,
      "start": 12.7849,
      "duration": 0.1184,
      "velocity": 75,
      "chip": "ym2612"
    },
    {
      "channel": 2,
      "note": 84,
      "start": 12.8179,
      "duration": 0.1499,
      "velocity": 87,
      "chip": "ym2612"
    },
    {
      "channel": 0,
      "note": 78,
      "start": 12.9017,
      "duration": 0.2335,
      "velocity": 87,
      "chip": "ym2612"
    },
    {
      "channel": 1,
      "note": 56,
      "start": 12.9024,
      "duration": 0.2335,
      "velocity": 99,
      "chip": "ym2612"
    },
    {
      "channel": 3,
      "note": 72,
      "start": 12.9034,
      "duration": 0.1151,
      "velocity": 75,
      "chip": "ym2612"
    },
    {
      "channel": 4,
      "note": 81,
      "start": 12.9041,
      "duration": 0.2337,
      "velocity": 87,
      "chip": "ym2612"
    },
    {
      "channel": 5,
      "note": 59,
      "start": 12.9068,
      "duration": 0.1146,
      "velocity": 84,
      "chip": "ym2612"
    },
    {
      "channel": 2,
      "note": 83,
      "start": 12.9679,
      "duration": 0.1687,
      "velocity": 87,
      "chip": "ym2612"
    },
    {
      "channel": 3,
      "note": 71,
      "start": 13.0186,
      "duration": 0.1185,
      "velocity": 75,
      "chip": "ym2612"
    },
    {
      "channel": 5,
      "note": 59,
      "start": 13.0216,
      "duration": 0.1189,
      "velocity": 103,
      "chip": "ym2612"
    },
    {
      "channel": 0,
      "note": 84,
      "start": 13.1352,
      "duration": 0.2324,
      "velocity": 87,
      "chip": "ym2612"
    },
    {
      "channel": 1,
      "note": 46,
      "start": 13.1359,
      "duration": 0.2325,
      "velocity": 99,
      "chip": "ym2612"
    },
    {
      "channel": 2,
      "note": 88,
      "start": 13.1367,
      "duration": 0.1478,
      "velocity": 87,
      "chip": "ym2612"
    },
    {
      "channel": 4,
      "note": 78,
      "start": 13.1378,
      "duration": 0.2316,
      "velocity": 87,
      "chip": "ym2612"
    },
    {
      "channel": 5,
      "note": 44,
      "start": 13.1406,
      "duration": 0.466,
      "velocity": 127,
      "chip": "ym2612"
    },
    {
      "channel": 2,
      "note": 87,
      "start": 13.2845,
      "duration": 0.15,
      "velocity": 87,
      "chip": "ym2612"
    },
    {
      "channel": 0,
      "note": 81,
      "start": 13.3678,
      "duration": 0.2338,
      "velocity": 87,
      "chip": "ym2612"
    },
    {
      "channel": 1,
      "note": 58,
      "start": 13.3685,
      "duration": 0.2338,
      "velocity": 99,
      "chip": "ym2612"
    },
    {
      "channel": 4,
      "note": 84,
      "start": 13.3695,
      "duration": 0.2343,
      "velocity": 87,
      "chip": "ym2612"
    },
    {
      "channel": 2,
      "note": 86,
      "start": 13.4345,
      "duration": 0.1685,
      "velocity": 87,
      "chip": "ym2612"
    },
    {
      "channel": 0,
      "note": 80,
      "start": 13.6017,
      "duration": 0.2326,
      "velocity": 87,
      "chip": "ym2612"
    },
    {
      "channel": 1,
      "note": 54,
      "start": 13.6024,
      "duration": 0.2326,
      "velocity": 99,
      "chip": "ym2612"
    },
    {
      "channel": 2,
      "note": 85,
      "start": 13.6031,
      "duration": 0.148,
      "velocity": 87,
      "chip": "ym2612"
    },
    {
      "channel": 4,
      "note": 81,
      "start": 13.6039,
      "duration": 0.2322,
      "velocity": 87,
      "chip": "ym2612"
    },
    {
      "channel": 5,
      "note": 54,
      "start": 13.6067,
      "duration": 0.4666,
      "velocity": 103,
      "chip": "ym2612"
    },
    {
      "channel": 2,
      "note": 84,
      "start": 13.7512,
      "duration": 0.15,
      "velocity": 87,
      "chip": "ym2612"
    },
    {
      "channel": 0,
      "note": 77,
      "start": 13.8344,
      "duration": 0.2339,
      "velocity": 87,
      "chip": "ym2612"
    },
    {
      "channel": 1,
      "note": 53,
      "start": 13.8352,
      "duration": 0.2338,
      "velocity": 99,
      "chip": "ym2612"
    },
    {
      "channel": 4,
      "note": 80,
      "start": 13.8362,
      "duration": 0.2344,
      "velocity": 87,
      "chip": "ym2612"
    },
    {
      "channel": 2,
      "note": 83,
      "start": 13.9012,
      "duration": 0.1685,
      "velocity": 87,
      "chip": "ym2612"
    },
    {
      "channel": 0,
      "note": 84,
      "start": 14.0684,
      "duration": 0.2326,
      "velocity": 87,
      "chip": "ym2612"
    },
    {
      "channel": 1,
      "note": 52,
      "start": 14.0691,
      "duration": 0.2326,
      "velocity": 99,
      "chip": "ym2612"
    },
    {
      "channel": 2,
      "note": 88,
      "start": 14.0698,
      "duration": 0.148,
      "velocity": 87,
      "chip": "ym2612"
    },
    {
      "channel": 4,
      "note": 77,
      "start": 14.0706,
      "duration": 0.2321,
      "velocity": 87,
      "chip": "ym2612"
    },
    {
      "channel": 5,
      "note": 44,
      "start": 14.0734,
      "duration": 0.4674,
      "velocity": 127,
      "chip": "ym2612"
    },
    {
      "channel": 2,
      "note": 87,
      "start": 14.2179,
      "duration": 0.15,
      "velocity": 87,
      "chip": "ym2612"
    },
    {
      "channel": 0,
      "note": 81,
      "start": 14.3011,
      "duration": 0.2341,
      "velocity": 87,
      "chip": "ym2612"
    },
    {
      "channel": 1,
      "note": 51,
      "start": 14.3018,
      "duration": 0.2341,
      "velocity": 99,
      "chip": "ym2612"
    },
    {
      "channel": 4,
      "note": 84,
      "start": 14.3029,
      "duration": 0.2351,
      "velocity": 87,
      "chip": "ym2612"
    },
    {
      "channel": 2,
      "note": 86,
      "start": 14.3679,
      "duration": 0.1686,
      "velocity": 87,
      "chip": "ym2612"
    },
    {
      "channel": 0,
      "note": 80,
      "start": 14.5352,
      "duration": 0.233,
      "velocity": 87,
      "chip": "ym2612"
    },
    {
      "channel": 1,
      "note": 56,
      "start": 14.5359,
      "duration": 0.233,
      "velocity": 99,
      "chip": "ym2612"
    },
    {
      "channel": 2,
      "note": 85,
      "start": 14.5366,
      "duration": 0.1479,
      "velocity": 87,
      "chip": "ym2612"
    },
    {
      "channel": 3,
      "note": 74,
      "start": 14.5373,
      "duration": 0.1141,
      "velocity": 75,
      "chip": "ym2612"
    },
    {
      "channel": 4,
      "note": 81,
      "start": 14.538,
      "duration": 0.2326,
      "velocity": 87,
      "chip": "ym2612"
    },
    {
      "channel": 5,
      "note": 54,
      "start": 14.5408,
      "duration": 0.2326,
      "velocity": 84,
      "chip": "ym2612"
    },
    {
      "channel": 3,
      "note": 73,
      "start": 14.6515,
      "duration": 0.1184,
      "velocity": 75,
      "chip": "ym2612"
    },
    {
      "channel": 2,
      "note": 84,
      "start": 14.6846,
      "duration": 0.1499,
      "velocity": 87,
      "chip": "ym2612"
    },
    {
      "channel": 0,
      "note": 77,
      "start": 14.7683,
      "duration": 0.2338,
      "velocity": 87,
      "chip": "ym2612"
    },
    {
      "channel": 1,
      "note": 55,
      "start": 14.769,
      "duration": 0.2338,
      "velocity": 99,
      "chip": "ym2612"
    },
    {
      "channel": 3,
      "note": 72,
      "start": 14.77,
      "duration": 0.1152,
      "velocity": 75,
      "chip": "ym2612"
    },
    {
      "channel": 4,
      "note": 80,
      "start": 14.7707,
      "duration": 0.2342,
      "velocity": 87,
      "chip": "ym2612"
    },
    {
      "channel": 5,
      "note": 59,
      "start": 14.7735,
      "duration": 0.1146,
      "velocity": 84,
      "chip": "ym2612"
    },
    {
      "channel": 2,
      "note": 83,
      "start": 14.8346,
      "duration": 0.1689,
      "velocity": 87,
      "chip": "ym2612"
    },
    {
      "channel": 3,
      "note": 74,
      "start": 14.8852,
      "duration": 0.119,
      "velocity": 75,
      "chip": "ym2612"
    },
    {
      "channel": 5,
      "note": 59,
      "start": 14.8882,
      "duration": 0.1195,
      "velocity": 103,
      "chip": "ym2612"
    },
    {
      "channel": 0,
      "note": 70,
      "start": 15.0022,
      "duration": 0.1487,
      "velocity": 87,
      "chip": "ym2612"
    },
    {
      "channel": 1,
      "note": 46,
      "start": 15.0029,
      "duration": 0.2318,
      "velocity": 99,
      "chip": "ym2612"
    },
    {
      "channel": 2,
      "note": 90,
      "start": 15.0036,
      "duration": 0.1482,
      "velocity": 87,
      "chip": "ym2612"
    },
    {
      "channel": 3,
      "note": 73,
      "start": 15.0043,
      "duration": 1.3996,
      "velocity": 75,
      "chip": "ym2612"
    },
    {
      "channel": 4,
      "note": 77,
      "start": 15.005,
      "duration": 0.2308,
      "velocity": 87,
      "chip": "ym2612"
    },
    {
      "channel": 5,
      "note": 44,
      "start": 15.0078,
      "duration": 0.4651,
      "velocity": 127,
      "chip": "ym2612"
    },
    {
      "channel": 0,
      "note": 78,
      "start": 15.1509,
      "duration": 0.15,
      "velocity": 87,
      "chip": "ym2612"
    },
    {
      "channel": 2,
      "note": 89,
      "start": 15.1519,
      "duration": 0.15,
      "velocity": 87,
      "chip": "ym2612"
    },
    {
      "channel": 1,
      "note": 58,
      "start": 15.2347,
      "duration": 0.2342,
      "velocity": 99,
      "chip": "ym2612"
    },
    {
      "channel": 4,
      "note": 70,
      "start": 15.2359,
      "duration": 0.1491,
      "velocity": 87,
      "chip": "ym2612"
    },
    {
      "channel": 0,
      "note": 77,
      "start": 15.301,
      "duration": 0.1673,
      "velocity": 87,
      "chip": "ym2612"
    },
    {
      "channel": 2,
      "note": 88,
      "start": 15.3019,
      "duration": 0.1678,
      "velocity": 87,
      "chip": "ym2612"
    },
    {
      "channel": 4,
      "note": 78,
      "start": 15.3851,
      "duration": 0.1499,
      "velocity": 87,
      "chip": "ym2612"
    },
    {
      "channel": 0,
      "note": 82,
      "start": 15.4683,
      "duration": 0.1492,
      "velocity": 87,
      "chip": "ym2612"
    },
    {
      "channel": 1,
      "note": 54,
      "start": 15.469,
      "duration": 0.2321,
      "velocity": 99,
      "chip": "ym2612"
    },
    {
      "channel": 2,
      "note": 87,
      "start": 15.4697,
      "duration": 0.1488,
      "velocity": 87,
      "chip": "ym2612"
    },
    {
      "channel": 5,
      "note": 54,
      "start": 15.473,
      "duration": 0.4665,
      "velocity": 103,
      "chip": "ym2612"
    },
    {
      "channel": 4,
      "note": 77,
      "start": 15.5351,
      "duration": 0.1672,
      "velocity": 87,
      "chip": "ym2612"
    },
    {
      "channel": 0,
      "note": 78,
      "start": 15.6176,
      "duration": 0.1499,
      "velocity": 87,
      "chip": "ym2612"
    },
    {
      "channel": 2,
      "note": 86,
      "start": 15.6186,
      "duration": 0.15,
      "velocity": 87,
      "chip": "ym2612"
    },
    {
      "channel": 1,
      "note": 53,
      "start": 15.7012,
      "duration": 0.2344,
      "velocity": 99,
      "chip": "ym2612"
    },
    {
      "channel": 4,
      "note": 82,
      "start": 15.7024,
      "duration": 0.1492,
      "velocity": 87,
      "chip": "ym2612"
    },
    {
      "channel": 0,
      "note": 77,
      "start": 15.7676,
      "duration": 0.1673,
      "velocity": 87,
      "chip": "ym2612"
    },
    {
      "channel": 2,
      "note": 85,
      "start": 15.7686,
      "duration": 0.1678,
      "velocity": 87,
      "chip": "ym2612"
    },
    {
      "channel": 4,
      "note": 78,
      "start": 15.8517,
      "duration": 0.1499,
      "velocity": 87,
      "chip": "ym2612"
    },
    {
      "channel": 0,
      "note": 70,
      "start": 15.935,
      "duration": 0.1492,
      "velocity": 87,
      "chip": "ym2612"
    },
    {
      "channel": 1,
      "note": 52,
      "start": 15.9357,
      "duration": 0.2321,
      "velocity": 99,
      "chip": "ym2612"
    },
    {
      "channel": 2,
      "note": 90,
      "start": 15.9364,
      "duration": 0.1487,
      "velocity": 87,
      "chip": "ym2612"
    },
    {
      "channel": 5,
      "note": 44,
      "start": 15.9395,
      "duration": 0.4674,
      "velocity": 127,
      "chip": "ym2612"
    },
    {
      "channel": 4,
      "note": 77,
      "start": 16.0017,
      "duration": 0.1673,
      "velocity": 87,
      "chip": "ym2612"
    },
    {
      "channel": 0,
      "note": 78,
      "start": 16.0842,
      "duration": 0.15,
      "velocity": 87,
      "chip": "ym2612"
    },
    {
      "channel": 2,
      "note": 89,
      "start": 16.0852,
      "duration": 0.1499,
      "velocity": 87,
      "chip": "ym2612"
    },
    {
      "channel": 1,
      "note": 51,
      "start": 16.1679,
      "duration": 0.2345,
      "velocity": 99,
      "chip": "ym2612"
    },
    {
      "channel": 4,
      "note": 70,
      "start": 16.169,
      "duration": 0.1492,
      "velocity": 87,
      "chip": "ym2612"
    },
    {
      "channel": 0,
      "note": 77,
      "start": 16.2342,
      "duration": 0.1675,
      "velocity": 87,
      "chip": "ym2612"
    },
    {
      "channel": 2,
      "note": 88,
      "start": 16.2352,
      "duration": 0.1679,
      "velocity": 87,
      "chip": "ym2612"
    },
    {
      "channel": 4,
      "note": 78,
      "start": 16.3183,
      "duration": 0.15,
      "velocity": 87,
      "chip": "ym2612"
    },
    {
      "channel": 0,
      "note": 82,
      "start": 16.4018,
      "duration": 0.1491,
      "velocity": 87,
      "chip": "ym2612"
    },
    {
      "channel": 1,
      "note": 57,
      "start": 16.4025,
      "duration": 0.2325,
      "velocity": 99,
      "chip": "ym2612"
    },
    {
      "channel": 2,
      "note": 87,
      "start": 16.4032,
      "duration": 0.1486,
      "velocity": 87,
      "chip": "ym2612"
    },
    {
      "channel": 3,
      "note": 73,
      "start": 16.4039,
      "duration": 0.1141,
      "velocity": 75,
      "chip": "ym2612"
    },
    {
      "channel": 5,
      "note": 54,
      "start": 16.4069,
      "duration": 0.2325,
      "velocity": 84,
      "chip": "ym2612"
    },
    {
      "channel": 4,
      "note": 77,
      "start": 16.4684,
      "duration": 0.1683,
      "velocity": 87,
      "chip": "ym2612"
    },
    {
      "channel": 3,
      "note": 74,
      "start": 16.5181,
      "duration": 0.1178,
      "velocity": 75,
      "chip": "ym2612"
    },
    {
      "channel": 0,
      "note": 78,
      "start": 16.551,
      "duration": 0.1499,
      "velocity": 87,
      "chip": "ym2612"
    },
    {
      "channel": 2,
      "note": 86,
      "start": 16.5519,
      "duration": 0.1499,
      "velocity": 87,
      "chip": "ym2612"
    },
    {
      "channel": 1,
      "note": 56,
      "start": 16.6351,
      "duration": 0.2341,
      "velocity": 99,
      "chip": "ym2612"
    },
    {
      "channel": 3,
      "note": 73,
      "start": 16.636,
      "duration": 0.1159,
      "velocity": 75,
      "chip": "ym2612"
    },
    {
      "channel": 4,
      "note": 82,
      "start": 16.6368,
      "duration": 0.1482,
      "velocity": 87,
      "chip": "ym2612"
    },
    {
      "channel": 5,
      "note": 59,
      "start": 16.6395,
      "duration": 0.1153,
      "velocity": 84,
      "chip": "ym2612"
    },
    {
      "channel": 0,
      "note": 77,
      "start": 16.701,
      "duration": 0.1676,
      "velocity": 87,
      "chip": "ym2612"
    },
    {
      "channel": 2,
      "note": 85,
      "start": 16.7019,
      "duration": 0.1679,
      "velocity": 87,
      "chip": "ym2612"
    },
    {
      "channel": 3,
      "note": 72,
      "start": 16.7519,
      "duration": 0.1187,
      "velocity": 75,
      "chip": "ym2612"
    },
    {
      "channel": 5,
      "note": 59,
      "start": 16.7549,
      "duration": 0.1187,
      "velocity": 103,
      "chip": "ym2612"
    },
    {
      "channel": 4,
      "note": 78,
      "start": 16.7851,
      "duration": 0.1499,
      "velocity": 87,
      "chip": "ym2612"
    },
    {
      "channel": 0,
      "note": 83,
      "start": 16.8686,
      "duration": 0.149,
      "velocity": 87,
      "chip": "ym2612"
    },
    {
      "channel": 1,
      "note": 46,
      "start": 16.8693,
      "duration": 0.2319,
      "velocity": 99,
      "chip": "ym2612"
    },
    {
      "channel": 2,
      "note": 90,
      "start": 16.87,
      "duration": 0.1485,
      "velocity": 87,
      "chip": "ym2612"
    },
    {
      "channel": 3,
      "note": 71,
      "start": 16.8707,
      "duration": 1.8666,
      "velocity": 75,
      "chip": "ym2612"
    },
    {
      "channel": 5,
      "note": 44,
      "start": 16.8737,
      "duration": 0.4658,
      "velocity": 127,
      "chip": "ym2612"
    },
    {
      "channel": 4,
      "note": 77,
      "start": 16.9351,
      "duration": 0.1674,
      "velocity": 87,
      "chip": "ym2612"
    },
    {
      "channel": 0,
      "note": 78,
      "start": 17.0176,
      "duration": 0.1499,
      "velocity": 87,
      "chip": "ym2612"
    },
    {
      "channel": 2,
      "note": 89,
      "start": 17.0186,
      "duration": 0.15,
      "velocity": 87,
      "chip": "ym2612"
    },
    {
      "channel": 1,
      "note": 58,
      "start": 17.1013,
      "duration": 0.2343,
      "velocity": 99,
      "chip": "ym2612"
    },
    {
      "channel": 4,
      "note": 83,
      "start": 17.1025,
      "duration": 0.1492,
      "velocity": 87,
      "chip": "ym2612"
    },
    {
      "channel": 0,
      "note": 77,
      "start": 17.1676,
      "duration": 0.1673,
      "velocity": 87,
      "chip": "ym2612"
    },
    {
      "channel": 2,
      "note": 88,
      "start": 17.1686,
      "duration": 0.1677,
      "velocity": 87,
      "chip": "ym2612"
    },
    {
      "channel": 4,
      "note": 78,
      "start": 17.2517,
      "duration": 0.1499,
      "velocity": 87,
      "chip": "ym2612"
    },
    {
      "channel": 0,
      "note": 76,
      "start": 17.3349,
      "duration": 0.1493,
      "velocity": 87,
      "chip": "ym2612"
    },
    {
      "channel": 1,
      "note": 54,
      "start": 17.3356,
      "duration": 0.2322,
      "velocity": 99,
      "chip": "ym2612"
    },
    {
      "channel": 2,
      "note": 87,
      "start": 17.3363,
      "duration": 0.1488,
      "velocity": 87,
      "chip": "ym2612"
    },
    {
      "channel": 5,
      "note": 54,
      "start": 17.3396,
      "duration": 0.4666,
      "velocity": 103,
      "chip": "ym2612"
    },
    {
      "channel": 4,
      "note": 77,
      "start": 17.4018,
      "duration": 0.1672,
      "velocity": 87,
      "chip": "ym2612"
    },
    {
      "channel": 0,
      "note": 75,
      "start": 17.4843,
      "duration": 0.1499,
      "velocity": 87,
      "chip": "ym2612"
    },
    {
      "channel": 2,
      "note": 86,
      "start": 17.4852,
      "duration": 0.1499,
      "velocity": 87,
      "chip": "ym2612"
    },
    {
      "channel": 1,
      "note": 53,
      "start": 17.5679,
      "duration": 0.2344,
      "velocity": 99,
      "chip": "ym2612"
    },
    {
      "channel": 4,
      "note": 76,
      "start": 17.5691,
      "duration": 0.1492,
      "velocity": 87,
      "chip": "ym2612"
    },
    {
      "channel": 0,
      "note": 81,
      "start": 17.6343,
      "duration": 0.1673,
      "velocity": 87,
      "chip": "ym2612"
    },
    {
      "channel": 2,
      "note": 85,
      "start": 17.6352,
      "duration": 0.1678,
      "velocity": 87,
      "chip": "ym2612"
    },
    {
      "channel": 4,
      "note": 75,
      "start": 17.7184,
      "duration": 0.1499,
      "velocity": 87,
      "chip": "ym2612"
    },
    {
      "channel": 0,
      "note": 83,
      "start": 17.8017,
      "duration": 0.1492,
      "velocity": 87,
      "chip": "ym2612"
    },
    {
      "channel": 1,
      "note": 52,
      "start": 17.8024,
      "duration": 0.2321,
      "velocity": 99,
      "chip": "ym2612"
    },
    {
      "channel": 2,
      "note": 90,
      "start": 17.8031,
      "duration": 0.1487,
      "velocity": 87,
      "chip": "ym2612"
    },
    {
      "channel": 5,
      "note": 44,
      "start": 17.8062,
      "duration": 0.4666,
      "velocity": 127,
      "chip": "ym2612"
    },
    {
      "channel": 4,
      "note": 81,
      "start": 17.8683,
      "duration": 0.1673,
      "velocity": 87,
      "chip": "ym2612"
    },
    {
      "channel": 0,
      "note": 78,
      "start": 17.951,
      "duration": 0.1499,
      "velocity": 87,
      "chip": "ym2612"
    },
    {
      "channel": 2,
      "note": 89,
      "start": 17.9519,
      "duration": 0.1499,
      "velocity": 87,
      "chip": "ym2612"
    },
    {
      "channel": 1,
      "note": 51,
      "start": 18.0345,
      "duration": 0.2344,
      "velocity": 99,
      "chip": "ym2612"
    },
    {
      "channel": 4,
      "note": 83,
      "start": 18.0357,
      "duration": 0.1492,
      "velocity": 87,
      "chip": "ym2612"
    },
    {
      "channel": 0,
      "note": 77,
      "start": 18.101,
      "duration": 0.1673,
      "velocity": 87,
      "chip": "ym2612"
    },
    {
      "channel": 2,
      "note": 88,
      "start": 18.1019,
      "duration": 0.1677,
      "velocity": 87,
      "chip": "ym2612"
    },
    {
      "channel": 4,
      "note": 78,
      "start": 18.185,
      "duration": 0.1499,
      "velocity": 87,
      "chip": "ym2612"
    },
    {
      "channel": 0,
      "note": 76,
      "start": 18.2683,
      "duration": 0.1493,
      "velocity": 87,
      "chip": "ym2612"
    },
    {
      "channel": 1,
      "note": 56,
      "start": 18.269,
      "duration": 0.2325,
      "velocity": 99,
      "chip": "ym2612"
    },
    {
      "channel": 2,
      "note": 87,
      "start": 18.2697,
      "duration": 0.1487,
      "velocity": 87,
      "chip": "ym2612"
    },
    {
      "channel": 5,
      "note": 54,
      "start": 18.2728,
      "duration": 0.2325,
      "velocity": 84,
      "chip": "ym2612"
    },
    {
      "channel": 4,
      "note": 77,
      "start": 18.3351,
      "duration": 0.1676,
      "velocity": 87,
      "chip": "ym2612"
    },
    {
      "channel": 0,
      "note": 75,
      "start": 18.4176,
      "duration": 0.15,
      "velocity": 87,
      "chip": "ym2612"
    },
    {
      "channel": 2,
      "note": 86,
      "start": 18.4185,
      "duration": 0.1499,
      "velocity": 87,
      "chip": "ym2612"
    },
    {
      "channel": 1,
      "note": 55,
      "start": 18.5016,
      "duration": 0.2343,
      "velocity": 99,
      "chip": "ym2612"
    },
    {
      "channel": 4,
      "note": 76,
      "start": 18.5027,
      "duration": 0.1489,
      "velocity": 87,
      "chip": "ym2612"
    },
    {
      "channel": 5,
      "note": 59,
      "start": 18.5054,
      "duration": 0.1153,
      "velocity": 84,
      "chip": "ym2612"
    },
    {
      "channel": 0,
      "note": 81,
      "start": 18.5676,
      "duration": 0.1676,
      "velocity": 87,
      "chip": "ym2612"
    },
    {
      "channel": 2,
      "note": 85,
      "start": 18.5686,
      "duration": 0.168,
      "velocity": 87,
      "chip": "ym2612"
    },
    {
      "channel": 5,
      "note": 59,
      "start": 18.6209,
      "duration": 0.1194,
      "velocity": 103,
      "chip": "ym2612"
    },
    {
      "channel": 4,
      "note": 75,
      "start": 18.6517,
      "duration": 0.15,
      "velocity": 87,
      "chip": "ym2612"
    },
    {
      "channel": 0,
      "note": 70,
      "start": 18.7352,
      "duration": 0.149,
      "velocity": 87,
      "chip": "ym2612"
    },
    {
      "channel": 1,
      "note": 46,
      "start": 18.7359,
      "duration": 0.232,
      "velocity": 99,
      "chip": "ym2612"
    },
    {
      "channel": 2,
      "note": 90,
      "start": 18.7366,
      "duration": 0.1485,
      "velocity": 87,
      "chip": "ym2612"
    },
    {
      "channel": 3,
      "note": 70,
      "start": 18.7374,
      "duration": 1.3998,
      "velocity": 75,
      "chip": "ym2612"
    },
    {
      "channel": 5,
      "note": 44,
      "start": 18.7403,
      "duration": 0.4658,
      "velocity": 127,
      "chip": "ym2612"
    },
    {
      "channel": 4,
      "note": 81,
      "start": 18.8018,
      "duration": 0.1674,
      "velocity": 87,
      "chip": "ym2612"
    },
    {
      "channel": 0,
      "note": 78,
      "start": 18.8843,
      "duration": 0.1499,
      "velocity": 87,
      "chip": "ym2612"
    },
    {
      "channel": 2,
      "note": 89,
      "start": 18.8852,
      "duration": 0.15,
      "velocity": 87,
      "chip": "ym2612"
    },
    {
      "channel": 1,
      "note": 58,
      "start": 18.968,
      "duration": 0.2342,
      "velocity": 99,
      "chip": "ym2612"
    },
    {
      "channel": 4,
      "note": 70,
      "start": 18.9692,
      "duration": 0.1491,
      "velocity": 87,
      "chip": "ym2612"
    },
    {
      "channel": 0,
      "note": 77,
      "start": 19.0343,
      "duration": 0.1673,
      "velocity": 87,
      "chip": "ym2612"
    },
    {
      "channel": 2,
      "note": 88,
      "start": 19.0352,
      "duration": 0.1678,
      "velocity": 87,
      "chip": "ym2612"
    },
    {
      "channel": 4,
      "note": 78,
      "start": 19.1185,
      "duration": 0.1499,
      "velocity": 87,
      "chip": "ym2612"
    },
    {
      "channel": 0,
      "note": 82,
      "start": 19.2016,
      "duration": 0.1493,
      "velocity": 87,
      "chip": "ym2612"
    },
    {
      "channel": 1,
      "note": 54,
      "start": 19.2024,
      "duration": 0.2321,
      "velocity": 99,
      "chip": "ym2612"
    },
    {
      "channel": 2,
      "note": 87,
      "start": 19.2031,
      "duration": 0.1487,
      "velocity": 87,
      "chip": "ym2612"
    },
    {
      "channel": 5,
      "note": 54,
      "start": 19.2063,
      "duration": 0.4665,
      "velocity": 103,
      "chip": "ym2612"
    },
    {
      "channel": 4,
      "note": 77,
      "start": 19.2684,
      "duration": 0.1673,
      "velocity": 87,
      "chip": "ym2612"
    },
    {
      "channel": 0,
      "note": 78,
      "start": 19.351,
      "duration": 0.1499,
      "velocity": 87,
      "chip": "ym2612"
    },
    {
      "channel": 2,
      "note": 86,
      "start": 19.3519,
      "duration": 0.15,
      "velocity": 87,
      "chip": "ym2612"
    },
    {
      "channel": 1,
      "note": 53,
      "start": 19.4346,
      "duration": 0.2343,
      "velocity": 99,
      "chip": "ym2612"
    },
    {
      "channel": 4,
      "note": 82,
      "start": 19.4358,
      "duration": 0.1492,
      "velocity": 87,
      "chip": "ym2612"
    },
    {
      "channel": 0,
      "note": 77,
      "start": 19.501,
      "duration": 0.1673,
      "velocity": 87,
      "chip": "ym2612"
    },
    {
      "channel": 2,
      "note": 85,
      "start": 19.5019,
      "duration": 0.1677,
      "velocity": 87,
      "chip": "ym2612"
    },
    {
      "channel": 4,
      "note": 78,
      "start": 19.585,
      "duration": 0.1499,
      "velocity": 87,
      "chip": "ym2612"
    },
    {
      "channel": 0,
      "note": 70,
      "start": 19.6683,
      "duration": 0.1492,
      "velocity": 87,
      "chip": "ym2612"
    },
    {
      "channel": 1,
      "note": 52,
      "start": 19.669,
      "duration": 0.2321,
      "velocity": 99,
      "chip": "ym2612"
    },
    {
      "channel": 2,
      "note": 90,
      "start": 19.6697,
      "duration": 0.1487,
      "velocity": 87,
      "chip": "ym2612"
    },
    {
      "channel": 5,
      "note": 44,
      "start": 19.6728,
      "duration": 0.4673,
      "velocity": 127,
      "chip": "ym2612"
    },
    {
      "channel": 4,
      "note": 77,
      "start": 19.7351,
      "duration": 0.1672,
      "velocity": 87,
      "chip": "ym2612"
    },
    {
      "channel": 0,
      "note": 78,
      "start": 19.8176,
      "duration": 0.15,
      "velocity": 87,
      "chip": "ym2612"
    },
    {
      "channel": 2,
      "note": 89,
      "start": 19.8185,
      "duration": 0.1499,
      "velocity": 87,
      "chip": "ym2612"
    },
    {
      "channel": 1,
      "note": 51,
      "start": 19.9012,
      "duration": 0.2346,
      "velocity": 99,
      "chip": "ym2612"
    },
    {
      "channel": 4,
      "note": 70,
      "start": 19.9024,
      "duration": 0.1492,
      "velocity": 87,
      "chip": "ym2612"
    },
    {
      "channel": 0,
      "note": 77,
      "start": 19.9676,
      "duration": 0.1674,
      "velocity": 87,
      "chip": "ym2612"
    },
    {
      "channel": 2,
      "note": 88,
      "start": 19.9686,
      "duration": 0.1679,
      "velocity": 87,
      "chip": "ym2612"
    },
    {
      "channel": 4,
      "note": 78,
      "start": 20.0517,
      "duration": 0.1499,
      "velocity": 87,
      "chip": "ym2612"
    },
    {
      "channel": 0,
      "note": 82,
      "start": 20.1351,
      "duration": 0.1491,
      "velocity": 87,
      "chip": "ym2612"
    },
    {
      "channel": 1,
      "note": 57,
      "start": 20.1358,
      "duration": 0.2325,
      "velocity": 99,
      "chip": "ym2612"
    },
    {
      "channel": 2,
      "note": 87,
      "start": 20.1365,
      "duration": 0.1487,
      "velocity": 87,
      "chip": "ym2612"
    },
    {
      "channel": 3,
      "note": 70,
      "start": 20.1373,
      "duration": 0.1141,
      "velocity": 75,
      "chip": "ym2612"
    },
    {
      "channel": 5,
      "note": 54,
      "start": 20.1403,
      "duration": 0.2325,
      "velocity": 84,
      "chip": "ym2612"
    },
    {
      "channel": 4,
      "note": 77,
      "start": 20.2017,
      "duration": 0.1683,
      "velocity": 87,
      "chip": "ym2612"
    },
    {
      "channel": 3,
      "note": 72,
      "start": 20.2515,
      "duration": 0.1177,
      "velocity": 75,
      "chip": "ym2612"
    },
    {
      "channel": 0,
      "note": 78,
      "start": 20.2843,
      "duration": 0.1499,
      "velocity": 87,
      "chip": "ym2612"
    },
    {
      "channel": 2,
      "note": 86,
      "start": 20.2852,
      "duration": 0.1499,
      "velocity": 87,
      "chip": "ym2612"
    },
    {
      "channel": 1,
      "note": 56,
      "start": 20.3684,
      "duration": 0.2341,
      "velocity": 99,
      "chip": "ym2612"
    },
    {
      "channel": 3,
      "note": 71,
      "start": 20.3693,
      "duration": 0.1159,
      "velocity": 75,
      "chip": "ym2612"
    },
    {
      "channel": 4,
      "note": 82,
      "start": 20.3701,
      "duration": 0.1482,
      "velocity": 87,
      "chip": "ym2612"
    },
    {
      "channel": 5,
      "note": 59,
      "start": 20.3728,
      "duration": 0.1153,
      "velocity": 84,
      "chip": "ym2612"
    },
    {
      "channel": 0,
      "note": 77,
      "start": 20.4343,
      "duration": 0.1676,
      "velocity": 87,
      "chip": "ym2612"
    },
    {
      "channel": 2,
      "note": 85,
      "start": 20.4352,
      "duration": 0.1679,
      "velocity": 87,
      "chip": "ym2612"
    },
    {
      "channel": 3,
      "note": 70,
      "start": 20.4852,
      "duration": 0.1187,
      "velocity": 75,
      "chip": "ym2612"
    },
    {
      "channel": 5,
      "note": 59,
      "start": 20.4882,
      "duration": 0.1187,
      "velocity": 103,
      "chip": "ym2612"
    },
    {
      "channel": 4,
      "note": 78,
      "start": 20.5185,
      "duration": 0.1499,
      "velocity": 87,
      "chip": "ym2612"
    },
    {
      "channel": 0,
      "note": 83,
      "start": 20.6019,
      "duration": 0.149,
      "velocity": 87,
      "chip": "ym2612"
    },
    {
      "channel": 1,
      "note": 46,
      "start": 20.6026,
      "duration": 0.2319,
      "velocity": 99,
      "chip": "ym2612"
    },
    {
      "channel": 2,
      "note": 90,
      "start": 20.6033,
      "duration": 0.1485,
      "velocity": 87,
      "chip": "ym2612"
    },
    {
      "channel": 3,
      "note": 69,
      "start": 20.604,
      "duration": 1.8667,
      "velocity": 75,
      "chip": "ym2612"
    },
    {
      "channel": 5,
      "note": 44,
      "start": 20.607,
      "duration": 0.4658,
      "velocity": 127,
      "chip": "ym2612"
    },
    {
      "channel": 4,
      "note": 77,
      "start": 20.6684,
      "duration": 0.1674,
      "velocity": 87,
      "chip": "ym2612"
    },
    {
      "channel": 0,
      "note": 78,
      "start": 20.751,
      "duration": 0.1499,
      "velocity": 87,
      "chip": "ym2612"
    },
    {
      "channel": 2,
      "note": 89,
      "start": 20.7519,
      "duration": 0.15,
      "velocity": 87,
      "chip": "ym2612"
    },
    {
      "channel": 1,
      "note": 58,
      "start": 20.8346,
      "duration": 0.2343,
      "velocity": 99,
      "chip": "ym2612"
    },
    {
      "channel": 4,
      "note": 83,
      "start": 20.8358,
      "duration": 0.1492,
      "velocity": 87,
      "chip": "ym2612"
    },
    {
      "channel": 0,
      "note": 77,
      "start": 20.901,
      "duration": 0.1673,
      "velocity": 87,
      "chip": "ym2612"
    },
    {
      "channel": 2,
      "note": 88,
      "start": 20.9019,
      "duration": 0.1677,
      "velocity": 87,
      "chip": "ym2612"
    },
    {
      "channel": 4,
      "note": 78,
      "start": 20.9851,
      "duration": 0.1499,
      "velocity": 87,
      "chip": "ym2612"
    },
    {
      "channel": 0,
      "note": 76,
      "start": 21.0683,
      "duration": 0.1493,
      "velocity": 87,
      "chip": "ym2612"
    },
    {
      "channel": 1,
      "note": 54,
      "start": 21.069,
      "duration": 0.2322,
      "velocity": 99,
      "chip": "ym2612"
    },
    {
      "channel": 2,
      "note": 87,
      "start": 21.0697,
      "duration": 0.1488,
      "velocity": 87,
      "chip": "ym2612"
    },
    {
      "channel": 5,
      "note": 54,
      "start": 21.0729,
      "duration": 0.4666,
      "velocity": 103,
      "chip": "ym2612"
    },
    {
      "channel": 4,
      "note": 77,
      "start": 21.1351,
      "duration": 0.1672,
      "velocity": 87,
      "chip": "ym2612"
    },
    {
      "channel": 0,
      "note": 75,
      "start": 21.2176,
      "duration": 0.1499,
      "velocity": 87,
      "chip": "ym2612"
    },
    {
      "channel": 2,
      "note": 86,
      "start": 21.2185,
      "duration": 0.1499,
      "velocity": 87,
      "chip": "ym2612"
    },
    {
      "channel": 1,
      "note": 53,
      "start": 21.3012,
      "duration": 0.2344,
      "velocity": 99,
      "chip": "ym2612"
    },
    {
      "channel": 4,
      "note": 76,
      "start": 21.3024,
      "duration": 0.1492,
      "velocity": 87,
      "chip": "ym2612"
    },
    {
      "channel": 0,
      "note": 81,
      "start": 21.3676,
      "duration": 0.1673,
      "velocity": 87,
      "chip": "ym2612"
    },
    {
      "channel": 2,
      "note": 85,
      "start": 21.3686,
      "duration": 0.1678,
      "velocity": 87,
      "chip": "ym2612"
    },
    {
      "channel": 4,
      "note": 75,
      "start": 21.4517,
      "duration": 0.1499,
      "velocity": 87,
      "chip": "ym2612"
    },
    {
      "channel": 0,
      "note": 83,
      "start": 21.535,
      "duration": 0.1492,
      "velocity": 87,
      "chip": "ym2612"
    },
    {
      "channel": 1,
      "note": 52,
      "start": 21.5357,
      "duration": 0.2321,
      "velocity": 99,
      "chip": "ym2612"
    },
    {
      "channel": 2,
      "note": 90,
      "start": 21.5364,
      "duration": 0.1487,
      "velocity": 87,
      "chip": "ym2612"
    },
    {
      "channel": 5,
      "note": 44,
      "start": 21.5396,
      "duration": 0.4666,
      "velocity": 127,
      "chip": "ym2612"
    },
    {
      "channel": 4,
      "note": 81,
      "start": 21.6017,
      "duration": 0.1673,
      "velocity": 87,
      "chip": "ym2612"
    },
    {
      "channel": 0,
      "note": 78,
      "start": 21.6842,
      "duration": 0.15,
      "velocity": 87,
      "chip": "ym2612"
    },
    {
      "channel": 2,
      "note": 89,
      "start": 21.6852,
      "duration": 0.1499,
      "velocity": 87,
      "chip": "ym2612"
    },
    {
      "channel": 1,
      "note": 51,
      "start": 21.7679,
      "duration": 0.2344,
      "velocity": 99,
      "chip": "ym2612"
    },
    {
      "channel": 4,
      "note": 83,
      "start": 21.769,
      "duration": 0.1492,
      "velocity": 87,
      "chip": "ym2612"
    },
    {
      "channel": 0,
      "note": 77,
      "start": 21.8343,
      "duration": 0.1673,
      "velocity": 87,
      "chip": "ym2612"
    },
    {
      "channel": 2,
      "note": 88,
      "start": 21.8352,
      "duration": 0.1677,
      "velocity": 87,
      "chip": "ym2612"
    },
    {
      "channel": 4,
      "note": 78,
      "start": 21.9183,
      "duration": 0.1499,
      "velocity": 87,
      "chip": "ym2612"
    },
    {
      "channel": 0,
      "note": 76,
      "start": 22.0016,
      "duration": 0.1493,
      "velocity": 87,
      "chip": "ym2612"
    },
    {
      "channel": 1,
      "note": 56,
      "start": 22.0023,
      "duration": 0.2326,
      "velocity": 99,
      "chip": "ym2612"
    },
    {
      "channel": 2,
      "note": 87,
      "start": 22.0031,
      "duration": 0.1487,
      "velocity": 87,
      "chip": "ym2612"
    },
    {
      "channel": 5,
      "note": 54,
      "start": 22.0062,
      "duration": 0.2326,
      "velocity": 84,
      "chip": "ym2612"
    },
    {
      "channel": 4,
      "note": 77,
      "start": 22.0684,
      "duration": 0.1676,
      "velocity": 87,
      "chip": "ym2612"
    },
    {
      "channel": 0,
      "note": 75,
      "start": 22.1509,
      "duration": 0.15,
      "velocity": 87,
      "chip": "ym2612"
    },
    {
      "channel": 2,
      "note": 86,
      "start": 22.1519,
      "duration": 0.1499,
      "velocity": 87,
      "chip": "ym2612"
    },
    {
      "channel": 1,
      "note": 55,
      "start": 22.2349,
      "duration": 0.2346,
      "velocity": 99,
      "chip": "ym2612"
    },
    {
      "channel": 4,
      "note": 76,
      "start": 22.2361,
      "duration": 0.1488,
      "velocity": 87,
      "chip": "ym2612"
    },
    {
      "channel": 5,
      "note": 59,
      "start": 22.2388,
      "duration": 0.1153,
      "velocity": 84,
      "chip": "ym2612"
    },
    {
      "channel": 0,
      "note": 81,
      "start": 22.3009,
      "duration": 0.1679,
      "velocity": 87,
      "chip": "ym2612"
    },
    {
      "channel": 2,
      "note": 85,
      "start": 22.3019,
      "duration": 0.1683,
      "velocity": 87,
      "chip": "ym2612"
    },
    {
      "channel": 5,
      "note": 59,
      "start": 22.3542,
      "duration": 0.1194,
      "velocity": 103,
      "chip": "ym2612"
    },
    {
      "channel": 4,
      "note": 75,
      "start": 22.385,
      "duration": 0.1498,
      "velocity": 87,
      "chip": "ym2612"
    },
    {
      "channel": 0,
      "note": 85,
      "start": 22.4688,
      "duration": 0.2323,
      "velocity": 87,
      "chip": "ym2612"
    },
    {
      "channel": 1,
      "note": 49,
      "start": 22.4696,
      "duration": 0.2323,
      "velocity": 99,
      "chip": "ym2612"
    },
    {
      "channel": 2,
      "note": 86,
      "start": 22.4703,
      "duration": 0.1475,
      "velocity": 87,
      "chip": "ym2612"
    },
    {
      "channel": 5,
      "note": 44,
      "start": 22.4737,
      "duration": 0.4606,
      "velocity": 103,
      "chip": "ym2612"
    },
    {
      "channel": 4,
      "note": 81,
      "start": 22.5349,
      "duration": 0.168,
      "velocity": 87,
      "chip": "ym2612"
    },
    {
      "channel": 2,
      "note": 85,
      "start": 22.6178,
      "duration": 0.15,
      "velocity": 87,
      "chip": "ym2612"
    },
    {
      "channel": 0,
      "note": 82,
      "start": 22.7013,
      "duration": 0.233,
      "velocity": 87,
      "chip": "ym2612"
    },
    {
      "channel": 1,
      "note": 48,
      "start": 22.702,
      "duration": 0.2323,
      "velocity": 99,
      "chip": "ym2612"
    },
    {
      "channel": 4,
      "note": 85,
      "start": 22.703,
      "duration": 0.2313,
      "velocity": 87,
      "chip": "ym2612"
    },
    {
      "channel": 2,
      "note": 84,
      "start": 22.7679,
      "duration": 0.1664,
      "velocity": 87,
      "chip": "ym2612"
    }
  ]
}