{
  "track_name": "07 - Round 3-1",
  "duration_sec": 69.222,
  "sample_rate": 44100,
  "note_count": 1614,
  "unique_pitches": 39,
  "pitch_range": 54,
  "avg_note_duration": 0.1646,
  "reconstruction_stats": {
    "notes_reconstructed": 1614,
    "keyon_events": 1614,
    "keyoff_events": 1613,
    "orphan_keyons": 1,
    "unique_pitches": 39,
    "pitch_range": 54,
    "avg_duration_sec": 0.1646
  },
  "metadata": {
    "source": "G\\Gynoug\\07 - Round 3-1.vgz"
  },
  "notes": [
    {
      "channel": 1,
      "note": 71,
      "start": 0.0,
      "duration": 0.146,
      "velocity": 103,
      "chip": "ym2612"
    },
    {
      "channel": 1,
      "note": 73,
      "start": 0.1597,
      "duration": 0.1487,
      "velocity": 103,
      "chip": "ym2612"
    },
    {
      "channel": 4,
      "note": 71,
      "start": 0.2178,
      "duration": 0.1456,
      "velocity": 79,
      "chip": "ym2612"
    },
    {
      "channel": 1,
      "note": 74,
      "start": 0.3222,
      "duration": 0.1488,
      "velocity": 103,
      "chip": "ym2612"
    },
    {
      "channel": 4,
      "note": 71,
      "start": 0.3772,
      "duration": 0.1489,
      "velocity": 79,
      "chip": "ym2612"
    },
    {
      "channel": 1,
      "note": 76,
      "start": 0.4846,
      "duration": 0.1489,
      "velocity": 103,
      "chip": "ym2612"
    },
    {
      "channel": 4,
      "note": 73,
      "start": 0.5397,
      "duration": 0.1488,
      "velocity": 79,
      "chip": "ym2612"
    },
    {
      "channel": 1,
      "note": 78,
      "start": 0.6472,
      "duration": 0.1489,
      "velocity": 103,
      "chip": "ym2612"
    },
    {
      "channel": 4,
      "note": 74,
      "start": 0.7022,
      "duration": 0.1487,
      "velocity": 79,
      "chip": "ym2612"
    },
    {
      "channel": 1,
      "note": 71,
      "start": 0.8098,
      "duration": 0.1488,
      "velocity": 103,
      "chip": "ym2612"
    },
    {
      "channel": 4,
      "note": 76,
      "start": 0.8651,
      "duration": 0.1485,
      "velocity": 79,
      "chip": "ym2612"
    },
    {
      "channel": 1,
      "note": 70,
      "start": 0.9722,
      "duration": 0.1488,
      "velocity": 103,
      "chip": "ym2612"
    },
    {
      "channel": 4,
      "note": 78,
      "start": 1.0273,
      "duration": 0.1487,
      "velocity": 79,
      "chip": "ym2612"
    },
    {
      "channel": 1,
      "note": 79,
      "start": 1.1347,
      "duration": 0.1489,
      "velocity": 103,
      "chip": "ym2612"
    },
    {
      "channel": 4,
      "note": 71,
      "start": 1.1898,
      "duration": 0.1487,
      "velocity": 79,
      "chip": "ym2612"
    },
    {
      "channel": 1,
      "note": 76,
      "start": 1.2978,
      "duration": 0.1482,
      "velocity": 103,
      "chip": "ym2612"
    },
    {
      "channel": 4,
      "note": 70,
      "start": 1.3522,
      "duration": 0.1487,
      "velocity": 79,
      "chip": "ym2612"
    },
    {
      "channel": 1,
      "note": 74,
      "start": 1.4597,
      "duration": 0.1488,
      "velocity": 103,
      "chip": "ym2612"
    },
    {
      "channel": 4,
      "note": 79,
      "start": 1.5151,
      "duration": 0.1485,
      "velocity": 79,
      "chip": "ym2612"
    },
    {
      "channel": 1,
      "note": 73,
      "start": 1.6223,
      "duration": 0.1489,
      "velocity": 103,
      "chip": "ym2612"
    },
    {
      "channel": 4,
      "note": 76,
      "start": 1.6773,
      "duration": 0.1489,
      "velocity": 79,
      "chip": "ym2612"
    },
    {
      "channel": 1,
      "note": 71,
      "start": 1.7849,
      "duration": 0.1488,
      "velocity": 103,
      "chip": "ym2612"
    },
    {
      "channel": 4,
      "note": 74,
      "start": 1.8398,
      "duration": 0.1487,
      "velocity": 79,
      "chip": "ym2612"
    },
    {
      "channel": 1,
      "note": 70,
      "start": 1.9476,
      "duration": 0.1485,
      "velocity": 103,
      "chip": "ym2612"
    },
    {
      "channel": 4,
      "note": 73,
      "start": 2.0023,
      "duration": 0.1488,
      "velocity": 79,
      "chip": "ym2612"
    },
    {
      "channel": 1,
      "note": 66,
      "start": 2.1098,
      "duration": 0.1489,
      "velocity": 103,
      "chip": "ym2612"
    },
    {
      "channel": 4,
      "note": 71,
      "start": 2.1653,
      "duration": 0.1484,
      "velocity": 79,
      "chip": "ym2612"
    },
    {
      "channel": 1,
      "note": 78,
      "start": 2.2724,
      "duration": 0.1487,
      "velocity": 103,
      "chip": "ym2612"
    },
    {
      "channel": 4,
      "note": 70,
      "start": 2.3273,
      "duration": 0.1489,
      "velocity": 79,
      "chip": "ym2612"
    },
    {
      "channel": 1,
      "note": 76,
      "start": 2.4348,
      "duration": 0.1489,
      "velocity": 103,
      "chip": "ym2612"
    },
    {
      "channel": 4,
      "note": 66,
      "start": 2.4899,
      "duration": 0.1487,
      "velocity": 79,
      "chip": "ym2612"
    },
    {
      "channel": 1,
      "note": 74,
      "start": 2.598,
      "duration": 0.1482,
      "velocity": 103,
      "chip": "ym2612"
    },
    {
      "channel": 4,
      "note": 78,
      "start": 2.6524,
      "duration": 0.1487,
      "velocity": 79,
      "chip": "ym2612"
    },
    {
      "channel": 1,
      "note": 73,
      "start": 2.7598,
      "duration": 0.1489,
      "velocity": 103,
      "chip": "ym2612"
    },
    {
      "channel": 4,
      "note": 76,
      "start": 2.8152,
      "duration": 0.1485,
      "velocity": 79,
      "chip": "ym2612"
    },
    {
      "channel": 1,
      "note": 71,
      "start": 2.9224,
      "duration": 0.1489,
      "velocity": 103,
      "chip": "ym2612"
    },
    {
      "channel": 4,
      "note": 74,
      "start": 2.9774,
      "duration": 0.1488,
      "velocity": 79,
      "chip": "ym2612"
    },
    {
      "channel": 1,
      "note": 69,
      "start": 3.085,
      "duration": 0.1487,
      "velocity": 103,
      "chip": "ym2612"
    },
    {
      "channel": 4,
      "note": 73,
      "start": 3.1399,
      "duration": 0.1488,
      "velocity": 79,
      "chip": "ym2612"
    },
    {
      "channel": 1,
      "note": 67,
      "start": 3.2477,
      "duration": 0.1485,
      "velocity": 103,
      "chip": "ym2612"
    },
    {
      "channel": 4,
      "note": 71,
      "start": 3.3025,
      "duration": 0.1487,
      "velocity": 79,
      "chip": "ym2612"
    },
    {
      "channel": 1,
      "note": 64,
      "start": 3.41,
      "duration": 0.1488,
      "velocity": 103,
      "chip": "ym2612"
    },
    {
      "channel": 4,
      "note": 69,
      "start": 3.4653,
      "duration": 0.1483,
      "velocity": 79,
      "chip": "ym2612"
    },
    {
      "channel": 1,
      "note": 76,
      "start": 3.5724,
      "duration": 0.1489,
      "velocity": 103,
      "chip": "ym2612"
    },
    {
      "channel": 4,
      "note": 67,
      "start": 3.6275,
      "duration": 0.1487,
      "velocity": 79,
      "chip": "ym2612"
    },
    {
      "channel": 1,
      "note": 74,
      "start": 3.735,
      "duration": 0.1488,
      "velocity": 103,
      "chip": "ym2612"
    },
    {
      "channel": 4,
      "note": 64,
      "start": 3.7899,
      "duration": 0.1487,
      "velocity": 79,
      "chip": "ym2612"
    },
    {
      "channel": 1,
      "note": 73,
      "start": 3.8981,
      "duration": 0.1481,
      "velocity": 103,
      "chip": "ym2612"
    },
    {
      "channel": 4,
      "note": 76,
      "start": 3.9525,
      "duration": 0.1487,
      "velocity": 79,
      "chip": "ym2612"
    },
    {
      "channel": 1,
      "note": 71,
      "start": 4.0599,
      "duration": 0.1489,
      "velocity": 103,
      "chip": "ym2612"
    },
    {
      "channel": 4,
      "note": 74,
      "start": 4.1154,
      "duration": 0.1484,
      "velocity": 79,
      "chip": "ym2612"
    },
    {
      "channel": 1,
      "note": 69,
      "start": 4.2226,
      "duration": 0.1488,
      "velocity": 103,
      "chip": "ym2612"
    },
    {
      "channel": 4,
      "note": 73,
      "start": 4.2775,
      "duration": 0.149,
      "velocity": 79,
      "chip": "ym2612"
    },
    {
      "channel": 1,
      "note": 67,
      "start": 4.385,
      "duration": 0.1488,
      "velocity": 103,
      "chip": "ym2612"
    },
    {
      "channel": 4,
      "note": 71,
      "start": 4.44,
      "duration": 0.1489,
      "velocity": 79,
      "chip": "ym2612"
    },
    {
      "channel": 1,
      "note": 66,
      "start": 4.548,
      "duration": 0.1485,
      "velocity": 103,
      "chip": "ym2612"
    },
    {
      "channel": 4,
      "note": 69,
      "start": 4.6026,
      "duration": 0.1487,
      "velocity": 79,
      "chip": "ym2612"
    },
    {
      "channel": 1,
      "note": 69,
      "start": 4.71,
      "duration": 0.1488,
      "velocity": 103,
      "chip": "ym2612"
    },
    {
      "channel": 4,
      "note": 67,
      "start": 4.7654,
      "duration": 0.1484,
      "velocity": 79,
      "chip": "ym2612"
    },
    {
      "channel": 1,
      "note": 70,
      "start": 4.8726,
      "duration": 0.1488,
      "velocity": 103,
      "chip": "ym2612"
    },
    {
      "channel": 4,
      "note": 66,
      "start": 4.9275,
      "duration": 0.1489,
      "velocity": 79,
      "chip": "ym2612"
    },
    {
      "channel": 1,
      "note": 66,
      "start": 5.035,
      "duration": 0.1489,
      "velocity": 103,
      "chip": "ym2612"
    },
    {
      "channel": 4,
      "note": 69,
      "start": 5.0901,
      "duration": 0.1486,
      "velocity": 79,
      "chip": "ym2612"
    },
    {
      "channel": 1,
      "note": 62,
      "start": 5.1981,
      "duration": 0.2295,
      "velocity": 103,
      "chip": "ym2612"
    },
    {
      "channel": 2,
      "note": 71,
      "start": 5.2005,
      "duration": 0.1462,
      "velocity": 103,
      "chip": "ym2612"
    },
    {
      "channel": 4,
      "note": 70,
      "start": 5.2525,
      "duration": 0.1488,
      "velocity": 79,
      "chip": "ym2612"
    },
    {
      "channel": 2,
      "note": 73,
      "start": 5.3602,
      "duration": 0.1489,
      "velocity": 103,
      "chip": "ym2612"
    },
    {
      "channel": 4,
      "note": 66,
      "start": 5.4154,
      "duration": 0.3112,
      "velocity": 79,
      "chip": "ym2612"
    },
    {
      "channel": 1,
      "note": 78,
      "start": 5.5226,
      "duration": 0.474,
      "velocity": 103,
      "chip": "ym2612"
    },
    {
      "channel": 2,
      "note": 74,
      "start": 5.5231,
      "duration": 0.1486,
      "velocity": 103,
      "chip": "ym2612"
    },
    {
      "channel": 2,
      "note": 76,
      "start": 5.6854,
      "duration": 0.1489,
      "velocity": 103,
      "chip": "ym2612"
    },
    {
      "channel": 4,
      "note": 62,
      "start": 5.7402,
      "duration": 0.4741,
      "velocity": 79,
      "chip": "ym2612"
    },
    {
      "channel": 2,
      "note": 78,
      "start": 5.8483,
      "duration": 0.1485,
      "velocity": 103,
      "chip": "ym2612"
    },
    {
      "channel": 1,
      "note": 79,
      "start": 6.0102,
      "duration": 0.0676,
      "velocity": 103,
      "chip": "ym2612"
    },
    {
      "channel": 2,
      "note": 71,
      "start": 6.0107,
      "duration": 0.1486,
      "velocity": 103,
      "chip": "ym2612"
    },
    {
      "channel": 1,
      "note": 78,
      "start": 6.0915,
      "duration": 0.0676,
      "velocity": 103,
      "chip": "ym2612"
    },
    {
      "channel": 1,
      "note": 76,
      "start": 6.1728,
      "duration": 0.1487,
      "velocity": 103,
      "chip": "ym2612"
    },
    {
      "channel": 2,
      "note": 70,
      "start": 6.1732,
      "duration": 0.1485,
      "velocity": 103,
      "chip": "ym2612"
    },
    {
      "channel": 4,
      "note": 78,
      "start": 6.2277,
      "duration": 0.0675,
      "velocity": 79,
      "chip": "ym2612"
    },
    {
      "channel": 4,
      "note": 79,
      "start": 6.309,
      "duration": 0.0674,
      "velocity": 79,
      "chip": "ym2612"
    },
    {
      "channel": 1,
      "note": 83,
      "start": 6.3352,
      "duration": 0.3113,
      "velocity": 103,
      "chip": "ym2612"
    },
    {
      "channel": 2,
      "note": 79,
      "start": 6.3356,
      "duration": 0.1487,
      "velocity": 103,
      "chip": "ym2612"
    },
    {
      "channel": 4,
      "note": 78,
      "start": 6.3903,
      "duration": 0.1487,
      "velocity": 79,
      "chip": "ym2612"
    },
    {
      "channel": 2,
      "note": 76,
      "start": 6.4985,
      "duration": 0.1482,
      "velocity": 103,
      "chip": "ym2612"
    },
    {
      "channel": 4,
      "note": 76,
      "start": 6.5527,
      "duration": 0.3116,
      "velocity": 79,
      "chip": "ym2612"
    },
    {
      "channel": 1,
      "note": 78,
      "start": 6.6602,
      "duration": 0.1488,
      "velocity": 103,
      "chip": "ym2612"
    },
    {
      "channel": 2,
      "note": 74,
      "start": 6.6607,
      "duration": 0.1485,
      "velocity": 103,
      "chip": "ym2612"
    },
    {
      "channel": 1,
      "note": 76,
      "start": 6.8227,
      "duration": 0.1489,
      "velocity": 103,
      "chip": "ym2612"
    },
    {
      "channel": 2,
      "note": 73,
      "start": 6.8232,
      "duration": 0.1487,
      "velocity": 103,
      "chip": "ym2612"
    },
    {
      "channel": 4,
      "note": 83,
      "start": 6.8777,
      "duration": 0.149,
      "velocity": 79,
      "chip": "ym2612"
    },
    {
      "channel": 1,
      "note": 74,
      "start": 6.9853,
      "duration": 0.1488,
      "velocity": 103,
      "chip": "ym2612"
    },
    {
      "channel": 2,
      "note": 71,
      "start": 6.9857,
      "duration": 0.1487,
      "velocity": 103,
      "chip": "ym2612"
    },
    {
      "channel": 4,
      "note": 78,
      "start": 7.0403,
      "duration": 0.1488,
      "velocity": 79,
      "chip": "ym2612"
    },
    {
      "channel": 1,
      "note": 73,
      "start": 7.1482,
      "duration": 0.1485,
      "velocity": 103,
      "chip": "ym2612"
    },
    {
      "channel": 2,
      "note": 70,
      "start": 7.1487,
      "duration": 0.1482,
      "velocity": 103,
      "chip": "ym2612"
    },
    {
      "channel": 4,
      "note": 76,
      "start": 7.2028,
      "duration": 0.1488,
      "velocity": 79,
      "chip": "ym2612"
    },
    {
      "channel": 1,
      "note": 74,
      "start": 7.3103,
      "duration": 0.0676,
      "velocity": 103,
      "chip": "ym2612"
    },
    {
      "channel": 2,
      "note": 66,
      "start": 7.3107,
      "duration": 0.1487,
      "velocity": 103,
      "chip": "ym2612"
    },
    {
      "channel": 4,
      "note": 74,
      "start": 7.3657,
      "duration": 0.1487,
      "velocity": 79,
      "chip": "ym2612"
    },
    {
      "channel": 1,
      "note": 76,
      "start": 7.3917,
      "duration": 0.0675,
      "velocity": 103,
      "chip": "ym2612"
    },
    {
      "channel": 1,
      "note": 82,
      "start": 7.4728,
      "duration": 0.3114,
      "velocity": 103,
      "chip": "ym2612"
    },
    {
      "channel": 2,
      "note": 78,
      "start": 7.4733,
      "duration": 0.1486,
      "velocity": 103,
      "chip": "ym2612"
    },
    {
      "channel": 4,
      "note": 73,
      "start": 7.5278,
      "duration": 0.0674,
      "velocity": 79,
      "chip": "ym2612"
    },
    {
      "channel": 4,
      "note": 74,
      "start": 7.609,
      "duration": 0.0676,
      "velocity": 79,
      "chip": "ym2612"
    },
    {
      "channel": 2,
      "note": 76,
      "start": 7.6355,
      "duration": 0.149,
      "velocity": 103,
      "chip": "ym2612"
    },
    {
      "channel": 4,
      "note": 76,
      "start": 7.6903,
      "duration": 0.3112,
      "velocity": 79,
      "chip": "ym2612"
    },
    {
      "channel": 1,
      "note": 83,
      "start": 7.7985,
      "duration": 0.1482,
      "velocity": 103,
      "chip": "ym2612"
    },
    {
      "channel": 2,
      "note": 74,
      "start": 7.7989,
      "duration": 0.148,
      "velocity": 103,
      "chip": "ym2612"
    },
    {
      "channel": 1,
      "note": 76,
      "start": 7.9604,
      "duration": 0.1489,
      "velocity": 103,
      "chip": "ym2612"
    },
    {
      "channel": 2,
      "note": 73,
      "start": 7.9608,
      "duration": 0.1487,
      "velocity": 103,
      "chip": "ym2612"
    },
    {
      "channel": 4,
      "note": 82,
      "start": 8.0156,
      "duration": 0.1488,
      "velocity": 79,
      "chip": "ym2612"
    },
    {
      "channel": 1,
      "note": 74,
      "start": 8.1229,
      "duration": 0.1487,
      "velocity": 103,
      "chip": "ym2612"
    },
    {
      "channel": 2,
      "note": 71,
      "start": 8.1234,
      "duration": 0.1485,
      "velocity": 103,
      "chip": "ym2612"
    },
    {
      "channel": 4,
      "note": 83,
      "start": 8.1779,
      "duration": 0.1488,
      "velocity": 79,
      "chip": "ym2612"
    },
    {
      "channel": 1,
      "note": 73,
      "start": 8.2855,
      "duration": 0.1488,
      "velocity": 103,
      "chip": "ym2612"
    },
    {
      "channel": 2,
      "note": 69,
      "start": 8.2859,
      "duration": 0.1486,
      "velocity": 103,
      "chip": "ym2612"
    },
    {
      "channel": 4,
      "note": 76,
      "start": 8.3405,
      "duration": 0.1487,
      "velocity": 79,
      "chip": "ym2612"
    },
    {
      "channel": 1,
      "note": 71,
      "start": 8.4484,
      "duration": 0.1483,
      "velocity": 103,
      "chip": "ym2612"
    },
    {
      "channel": 2,
      "note": 67,
      "start": 8.4488,
      "duration": 0.1482,
      "velocity": 103,
      "chip": "ym2612"
    },
    {
      "channel": 4,
      "note": 74,
      "start": 8.503,
      "duration": 0.1487,
      "velocity": 79,
      "chip": "ym2612"
    },
    {
      "channel": 1,
      "note": 73,
      "start": 8.6105,
      "duration": 0.0675,
      "velocity": 103,
      "chip": "ym2612"
    },
    {
      "channel": 2,
      "note": 64,
      "start": 8.6109,
      "duration": 0.1485,
      "velocity": 103,
      "chip": "ym2612"
    },
    {
      "channel": 4,
      "note": 73,
      "start": 8.6658,
      "duration": 0.1487,
      "velocity": 79,
      "chip": "ym2612"
    },
    {
      "channel": 1,
      "note": 74,
      "start": 8.6917,
      "duration": 0.0676,
      "velocity": 103,
      "chip": "ym2612"
    },
    {
      "channel": 1,
      "note": 79,
      "start": 8.773,
      "duration": 0.1487,
      "velocity": 103,
      "chip": "ym2612"
    },
    {
      "channel": 2,
      "note": 76,
      "start": 8.7735,
      "duration": 0.1485,
      "velocity": 103,
      "chip": "ym2612"
    },
    {
      "channel": 4,
      "note": 71,
      "start": 8.8279,
      "duration": 0.0674,
      "velocity": 79,
      "chip": "ym2612"
    },
    {
      "channel": 4,
      "note": 73,
      "start": 8.9092,
      "duration": 0.0675,
      "velocity": 79,
      "chip": "ym2612"
    },
    {
      "channel": 1,
      "note": 78,
      "start": 8.9354,
      "duration": 0.149,
      "velocity": 103,
      "chip": "ym2612"
    },
    {
      "channel": 2,
      "note": 74,
      "start": 8.9359,
      "duration": 0.1487,
      "velocity": 103,
      "chip": "ym2612"
    },
    {
      "channel": 4,
      "note": 74,
      "start": 8.9905,
      "duration": 0.1488,
      "velocity": 79,
      "chip": "ym2612"
    },
    {
      "channel": 1,
      "note": 76,
      "start": 9.0987,
      "duration": 0.3107,
      "velocity": 103,
      "chip": "ym2612"
    },
    {
      "channel": 2,
      "note": 73,
      "start": 9.0991,
      "duration": 0.1479,
      "velocity": 103,
      "chip": "ym2612"
    },
    {
      "channel": 4,
      "note": 79,
      "start": 9.1529,
      "duration": 0.1488,
      "velocity": 79,
      "chip": "ym2612"
    },
    {
      "channel": 2,
      "note": 71,
      "start": 9.2607,
      "duration": 0.149,
      "velocity": 103,
      "chip": "ym2612"
    },
    {
      "channel": 4,
      "note": 78,
      "start": 9.3158,
      "duration": 0.3111,
      "velocity": 79,
      "chip": "ym2612"
    },
    {
      "channel": 1,
      "note": 85,
      "start": 9.4229,
      "duration": 0.3114,
      "velocity": 103,
      "chip": "ym2612"
    },
    {
      "channel": 2,
      "note": 69,
      "start": 9.4234,
      "duration": 0.1486,
      "velocity": 103,
      "chip": "ym2612"
    },
    {
      "channel": 2,
      "note": 67,
      "start": 9.5857,
      "duration": 0.149,
      "velocity": 103,
      "chip": "ym2612"
    },
    {
      "channel": 4,
      "note": 76,
      "start": 9.6405,
      "duration": 0.3113,
      "velocity": 79,
      "chip": "ym2612"
    },
    {
      "channel": 1,
      "note": 86,
      "start": 9.7483,
      "duration": 0.3111,
      "velocity": 103,
      "chip": "ym2612"
    },
    {
      "channel": 2,
      "note": 66,
      "start": 9.7488,
      "duration": 0.1484,
      "velocity": 103,
      "chip": "ym2612"
    },
    {
      "channel": 2,
      "note": 69,
      "start": 9.9108,
      "duration": 0.1488,
      "velocity": 103,
      "chip": "ym2612"
    },
    {
      "channel": 4,
      "note": 85,
      "start": 9.9658,
      "duration": 0.311,
      "velocity": 79,
      "chip": "ym2612"
    },
    {
      "channel": 1,
      "note": 85,
      "start": 10.0731,
      "duration": 0.3114,
      "velocity": 103,
      "chip": "ym2612"
    },
    {
      "channel": 2,
      "note": 70,
      "start": 10.0735,
      "duration": 0.1486,
      "velocity": 103,
      "chip": "ym2612"
    },
    {
      "channel": 2,
      "note": 66,
      "start": 10.2358,
      "duration": 0.1489,
      "velocity": 103,
      "chip": "ym2612"
    },
    {
      "channel": 4,
      "note": 86,
      "start": 10.2905,
      "duration": 0.3113,
      "velocity": 79,
      "chip": "ym2612"
    },
    {
      "channel": 1,
      "note": 78,
      "start": 10.3985,
      "duration": 0.311,
      "velocity": 103,
      "chip": "ym2612"
    },
    {
      "channel": 2,
      "note": 62,
      "start": 10.399,
      "duration": 0.3107,
      "velocity": 103,
      "chip": "ym2612"
    },
    {
      "channel": 3,
      "note": 83,
      "start": 10.4022,
      "duration": 0.1456,
      "velocity": 73,
      "chip": "ym2612"
    },
    {
      "channel": 3,
      "note": 59,
      "start": 10.5611,
      "duration": 0.149,
      "velocity": 73,
      "chip": "ym2612"
    },
    {
      "channel": 4,
      "note": 85,
      "start": 10.6158,
      "duration": 0.311,
      "velocity": 79,
      "chip": "ym2612"
    },
    {
      "channel": 1,
      "note": 83,
      "start": 10.7231,
      "duration": 0.1489,
      "velocity": 103,
      "chip": "ym2612"
    },
    {
      "channel": 2,
      "note": 78,
      "start": 10.7235,
      "duration": 0.4741,
      "velocity": 103,
      "chip": "ym2612"
    },
    {
      "channel": 3,
      "note": 61,
      "start": 10.7241,
      "duration": 0.1484,
      "velocity": 73,
      "chip": "ym2612"
    },
    {
      "channel": 1,
      "note": 85,
      "start": 10.8856,
      "duration": 0.1489,
      "velocity": 103,
      "chip": "ym2612"
    },
    {
      "channel": 3,
      "note": 62,
      "start": 10.8863,
      "duration": 0.1487,
      "velocity": 73,
      "chip": "ym2612"
    },
    {
      "channel": 4,
      "note": 78,
      "start": 10.9406,
      "duration": 0.1489,
      "velocity": 79,
      "chip": "ym2612"
    },
    {
      "channel": 1,
      "note": 82,
      "start": 11.0483,
      "duration": 0.1487,
      "velocity": 103,
      "chip": "ym2612"
    },
    {
      "channel": 3,
      "note": 64,
      "start": 11.0491,
      "duration": 0.1489,
      "velocity": 73,
      "chip": "ym2612"
    },
    {
      "channel": 4,
      "note": 83,
      "start": 11.1032,
      "duration": 0.1487,
      "velocity": 79,
      "chip": "ym2612"
    },
    {
      "channel": 1,
      "note": 78,
      "start": 11.2107,
      "duration": 0.1489,
      "velocity": 103,
      "chip": "ym2612"
    },
    {
      "channel": 2,
      "note": 79,
      "start": 11.2111,
      "duration": 0.0673,
      "velocity": 103,
      "chip": "ym2612"
    },
    {
      "channel": 3,
      "note": 66,
      "start": 11.2116,
      "duration": 0.1484,
      "velocity": 73,
      "chip": "ym2612"
    },
    {
      "channel": 4,
      "note": 85,
      "start": 11.2658,
      "duration": 0.1491,
      "velocity": 79,
      "chip": "ym2612"
    },
    {
      "channel": 2,
      "note": 78,
      "start": 11.2921,
      "duration": 0.0677,
      "velocity": 103,
      "chip": "ym2612"
    },
    {
      "channel": 1,
      "note": 85,
      "start": 11.3733,
      "duration": 0.0674,
      "velocity": 103,
      "chip": "ym2612"
    },
    {
      "channel": 2,
      "note": 76,
      "start": 11.3737,
      "duration": 0.1486,
      "velocity": 103,
      "chip": "ym2612"
    },
    {
      "channel": 3,
      "note": 59,
      "start": 11.3742,
      "duration": 0.1483,
      "velocity": 73,
      "chip": "ym2612"
    },
    {
      "channel": 4,
      "note": 82,
      "start": 11.4282,
      "duration": 0.1487,
      "velocity": 79,
      "chip": "ym2612"
    },
    {
      "channel": 1,
      "note": 86,
      "start": 11.4544,
      "duration": 0.0676,
      "velocity": 103,
      "chip": "ym2612"
    },
    {
      "channel": 1,
      "note": 88,
      "start": 11.5357,
      "duration": 0.6364,
      "velocity": 103,
      "chip": "ym2612"
    },
    {
      "channel": 2,
      "note": 83,
      "start": 11.5363,
      "duration": 0.3114,
      "velocity": 103,
      "chip": "ym2612"
    },
    {
      "channel": 3,
      "note": 58,
      "start": 11.5368,
      "duration": 0.1483,
      "velocity": 73,
      "chip": "ym2612"
    },
    {
      "channel": 4,
      "note": 78,
      "start": 11.5907,
      "duration": 0.0675,
      "velocity": 79,
      "chip": "ym2612"
    },
    {
      "channel": 4,
      "note": 85,
      "start": 11.6719,
      "duration": 0.0676,
      "velocity": 79,
      "chip": "ym2612"
    },
    {
      "channel": 3,
      "note": 67,
      "start": 11.6991,
      "duration": 0.1489,
      "velocity": 73,
      "chip": "ym2612"
    },
    {
      "channel": 4,
      "note": 86,
      "start": 11.7531,
      "duration": 0.6364,
      "velocity": 79,
      "chip": "ym2612"
    },
    {
      "channel": 2,
      "note": 78,
      "start": 11.861,
      "duration": 0.1489,
      "velocity": 103,
      "chip": "ym2612"
    },
    {
      "channel": 3,
      "note": 64,
      "start": 11.8615,
      "duration": 0.1486,
      "velocity": 73,
      "chip": "ym2612"
    },
    {
      "channel": 2,
      "note": 76,
      "start": 12.0235,
      "duration": 0.1489,
      "velocity": 103,
      "chip": "ym2612"
    },
    {
      "channel": 3,
      "note": 62,
      "start": 12.024,
      "duration": 0.1487,
      "velocity": 73,
      "chip": "ym2612"
    },
    {
      "channel": 1,
      "note": 74,
      "start": 12.1858,
      "duration": 0.0676,
      "velocity": 103,
      "chip": "ym2612"
    },
    {
      "channel": 2,
      "note": 74,
      "start": 12.1863,
      "duration": 0.1486,
      "velocity": 103,
      "chip": "ym2612"
    },
    {
      "channel": 3,
      "note": 61,
      "start": 12.1868,
      "duration": 0.1483,
      "velocity": 73,
      "chip": "ym2612"
    },
    {
      "channel": 1,
      "note": 76,
      "start": 12.267,
      "duration": 0.0676,
      "velocity": 103,
      "chip": "ym2612"
    },
    {
      "channel": 1,
      "note": 78,
      "start": 12.3483,
      "duration": 0.1489,
      "velocity": 103,
      "chip": "ym2612"
    },
    {
      "channel": 2,
      "note": 73,
      "start": 12.3488,
      "duration": 0.149,
      "velocity": 103,
      "chip": "ym2612"
    },
    {
      "channel": 3,
      "note": 59,
      "start": 12.3494,
      "duration": 0.1488,
      "velocity": 73,
      "chip": "ym2612"
    },
    {
      "channel": 4,
      "note": 88,
      "start": 12.4032,
      "duration": 0.0676,
      "velocity": 79,
      "chip": "ym2612"
    },
    {
      "channel": 4,
      "note": 74,
      "start": 12.4845,
      "duration": 0.0676,
      "velocity": 79,
      "chip": "ym2612"
    },
    {
      "channel": 1,
      "note": 76,
      "start": 12.5108,
      "duration": 0.1488,
      "velocity": 103,
      "chip": "ym2612"
    },
    {
      "channel": 2,
      "note": 74,
      "start": 12.5112,
      "duration": 0.0673,
      "velocity": 103,
      "chip": "ym2612"
    },
    {
      "channel": 3,
      "note": 58,
      "start": 12.5118,
      "duration": 0.1483,
      "velocity": 73,
      "chip": "ym2612"
    },
    {
      "channel": 4,
      "note": 76,
      "start": 12.5658,
      "duration": 0.149,
      "velocity": 79,
      "chip": "ym2612"
    },
    {
      "channel": 2,
      "note": 76,
      "start": 12.5923,
      "duration": 0.0676,
      "velocity": 103,
      "chip": "ym2612"
    },
    {
      "channel": 1,
      "note": 78,
      "start": 12.6733,
      "duration": 0.1489,
      "velocity": 103,
      "chip": "ym2612"
    },
    {
      "channel": 2,
      "note": 82,
      "start": 12.6737,
      "duration": 0.3112,
      "velocity": 103,
      "chip": "ym2612"
    },
    {
      "channel": 3,
      "note": 54,
      "start": 12.6743,
      "duration": 0.1484,
      "velocity": 73,
      "chip": "ym2612"
    },
    {
      "channel": 4,
      "note": 78,
      "start": 12.7283,
      "duration": 0.1488,
      "velocity": 79,
      "chip": "ym2612"
    },
    {
      "channel": 1,
      "note": 85,
      "start": 12.8359,
      "duration": 0.1488,
      "velocity": 103,
      "chip": "ym2612"
    },
    {
      "channel": 3,
      "note": 66,
      "start": 12.8366,
      "duration": 0.1486,
      "velocity": 73,
      "chip": "ym2612"
    },
    {
      "channel": 4,
      "note": 76,
      "start": 12.8908,
      "duration": 0.1488,
      "velocity": 79,
      "chip": "ym2612"
    },
    {
      "channel": 1,
      "note": 79,
      "start": 12.9986,
      "duration": 0.1485,
      "velocity": 103,
      "chip": "ym2612"
    },
    {
      "channel": 2,
      "note": 83,
      "start": 12.999,
      "duration": 0.1487,
      "velocity": 103,
      "chip": "ym2612"
    },
    {
      "channel": 3,
      "note": 64,
      "start": 12.9996,
      "duration": 0.1483,
      "velocity": 73,
      "chip": "ym2612"
    },
    {
      "channel": 4,
      "note": 78,
      "start": 13.0532,
      "duration": 0.1488,
      "velocity": 79,
      "chip": "ym2612"
    },
    {
      "channel": 1,
      "note": 79,
      "start": 13.1608,
      "duration": 0.3114,
      "velocity": 103,
      "chip": "ym2612"
    },
    {
      "channel": 2,
      "note": 76,
      "start": 13.1612,
      "duration": 0.1486,
      "velocity": 103,
      "chip": "ym2612"
    },
    {
      "channel": 3,
      "note": 62,
      "start": 13.1618,
      "duration": 0.1483,
      "velocity": 73,
      "chip": "ym2612"
    },
    {
      "channel": 4,
      "note": 85,
      "start": 13.2159,
      "duration": 0.1491,
      "velocity": 79,
      "chip": "ym2612"
    },
    {
      "channel": 2,
      "note": 74,
      "start": 13.3237,
      "duration": 0.1488,
      "velocity": 103,
      "chip": "ym2612"
    },
    {
      "channel": 3,
      "note": 61,
      "start": 13.3242,
      "duration": 0.1485,
      "velocity": 73,
      "chip": "ym2612"
    },
    {
      "channel": 4,
      "note": 79,
      "start": 13.3783,
      "duration": 0.3114,
      "velocity": 79,
      "chip": "ym2612"
    },
    {
      "channel": 1,
      "note": 90,
      "start": 13.4859,
      "duration": 0.1488,
      "velocity": 103,
      "chip": "ym2612"
    },
    {
      "channel": 2,
      "note": 73,
      "start": 13.4864,
      "duration": 0.1486,
      "velocity": 103,
      "chip": "ym2612"
    },
    {
      "channel": 3,
      "note": 59,
      "start": 13.4869,
      "duration": 0.1483,
      "velocity": 73,
      "chip": "ym2612"
    },
    {
      "channel": 1,
      "note": 88,
      "start": 13.6485,
      "duration": 0.3113,
      "velocity": 103,
      "chip": "ym2612"
    },
    {
      "channel": 2,
      "note": 71,
      "start": 13.6489,
      "duration": 0.1489,
      "velocity": 103,
      "chip": "ym2612"
    },
    {
      "channel": 3,
      "note": 57,
      "start": 13.6495,
      "duration": 0.1487,
      "velocity": 73,
      "chip": "ym2612"
    },
    {
      "channel": 4,
      "note": 79,
      "start": 13.7034,
      "duration": 0.1488,
      "velocity": 79,
      "chip": "ym2612"
    },
    {
      "channel": 2,
      "note": 73,
      "start": 13.8111,
      "duration": 0.0676,
      "velocity": 103,
      "chip": "ym2612"
    },
    {
      "channel": 3,
      "note": 55,
      "start": 13.8117,
      "duration": 0.1487,
      "velocity": 73,
      "chip": "ym2612"
    },
    {
      "channel": 4,
      "note": 90,
      "start": 13.8659,
      "duration": 0.3113,
      "velocity": 79,
      "chip": "ym2612"
    },
    {
      "channel": 2,
      "note": 74,
      "start": 13.8924,
      "duration": 0.0676,
      "velocity": 103,
      "chip": "ym2612"
    },
    {
      "channel": 1,
      "note": 83,
      "start": 13.9734,
      "duration": 0.1489,
      "velocity": 103,
      "chip": "ym2612"
    },
    {
      "channel": 2,
      "note": 79,
      "start": 13.9739,
      "duration": 0.1487,
      "velocity": 103,
      "chip": "ym2612"
    },
    {
      "channel": 3,
      "note": 52,
      "start": 13.9744,
      "duration": 0.1485,
      "velocity": 73,
      "chip": "ym2612"
    },
    {
      "channel": 1,
      "note": 82,
      "start": 14.1359,
      "duration": 0.1489,
      "velocity": 103,
      "chip": "ym2612"
    },
    {
      "channel": 2,
      "note": 78,
      "start": 14.1364,
      "duration": 0.1487,
      "velocity": 103,
      "chip": "ym2612"
    },
    {
      "channel": 3,
      "note": 64,
      "start": 14.1369,
      "duration": 0.1485,
      "velocity": 73,
      "chip": "ym2612"
    },
    {
      "channel": 4,
      "note": 88,
      "start": 14.191,
      "duration": 0.1486,
      "velocity": 79,
      "chip": "ym2612"
    },
    {
      "channel": 1,
      "note": 81,
      "start": 14.2988,
      "duration": 0.311,
      "velocity": 103,
      "chip": "ym2612"
    },
    {
      "channel": 2,
      "note": 76,
      "start": 14.2993,
      "duration": 0.3109,
      "velocity": 103,
      "chip": "ym2612"
    },
    {
      "channel": 3,
      "note": 62,
      "start": 14.2998,
      "duration": 0.1484,
      "velocity": 73,
      "chip": "ym2612"
    },
    {
      "channel": 4,
      "note": 83,
      "start": 14.3534,
      "duration": 0.1489,
      "velocity": 79,
      "chip": "ym2612"
    },
    {
      "channel": 3,
      "note": 61,
      "start": 14.4615,
      "duration": 0.149,
      "velocity": 73,
      "chip": "ym2612"
    },
    {
      "channel": 4,
      "note": 82,
      "start": 14.516,
      "duration": 0.3112,
      "velocity": 79,
      "chip": "ym2612"
    },
    {
      "channel": 1,
      "note": 81,
      "start": 14.6235,
      "duration": 0.3113,
      "velocity": 103,
      "chip": "ym2612"
    },
    {
      "channel": 2,
      "note": 85,
      "start": 14.624,
      "duration": 0.3112,
      "velocity": 103,
      "chip": "ym2612"
    },
    {
      "channel": 3,
      "note": 59,
      "start": 14.6245,
      "duration": 0.1483,
      "velocity": 73,
      "chip": "ym2612"
    },
    {
      "channel": 3,
      "note": 57,
      "start": 14.7866,
      "duration": 0.1488,
      "velocity": 73,
      "chip": "ym2612"
    },
    {
      "channel": 4,
      "note": 81,
      "start": 14.841,
      "duration": 0.3113,
      "velocity": 79,
      "chip": "ym2612"
    },
    {
      "channel": 1,
      "note": 90,
      "start": 14.9487,
      "duration": 0.1492,
      "velocity": 103,
      "chip": "ym2612"
    },
    {
      "channel": 2,
      "note": 86,
      "start": 14.9491,
      "duration": 0.311,
      "velocity": 103,
      "chip": "ym2612"
    },
    {
      "channel": 3,
      "note": 55,
      "start": 14.9496,
      "duration": 0.1488,
      "velocity": 73,
      "chip": "ym2612"
    },
    {
      "channel": 1,
      "note": 78,
      "start": 15.1111,
      "duration": 0.3114,
      "velocity": 103,
      "chip": "ym2612"
    },
    {
      "channel": 3,
      "note": 54,
      "start": 15.1118,
      "duration": 0.1485,
      "velocity": 73,
      "chip": "ym2612"
    },
    {
      "channel": 4,
      "note": 85,
      "start": 15.1661,
      "duration": 0.3112,
      "velocity": 79,
      "chip": "ym2612"
    },
    {
      "channel": 2,
      "note": 85,
      "start": 15.2737,
      "duration": 0.3115,
      "velocity": 103,
      "chip": "ym2612"
    },
    {
      "channel": 3,
      "note": 57,
      "start": 15.2743,
      "duration": 0.1487,
      "velocity": 73,
      "chip": "ym2612"
    },
    {
      "channel": 1,
      "note": 82,
      "start": 15.4361,
      "duration": 0.149,
      "velocity": 103,
      "chip": "ym2612"
    },
    {
      "channel": 3,
      "note": 58,
      "start": 15.4368,
      "duration": 0.1487,
      "velocity": 73,
      "chip": "ym2612"
    },
    {
      "channel": 4,
      "note": 86,
      "start": 15.491,
      "duration": 0.3113,
      "velocity": 79,
      "chip": "ym2612"
    },
    {
      "channel": 0,
      "note": 47,
      "start": 15.6004,
      "duration": 0.1468,
      "velocity": 92,
      "chip": "ym2612"
    },
    {
      "channel": 1,
      "note": 83,
      "start": 15.6009,
      "duration": 0.1469,
      "velocity": 103,
      "chip": "ym2612"
    },
    {
      "channel": 2,
      "note": 78,
      "start": 15.6013,
      "duration": 0.3088,
      "velocity": 103,
      "chip": "ym2612"
    },
    {
      "channel": 3,
      "note": 54,
      "start": 15.6018,
      "duration": 0.3087,
      "velocity": 73,
      "chip": "ym2612"
    },
    {
      "channel": 0,
      "note": 49,
      "start": 15.7609,
      "duration": 0.1487,
      "velocity": 92,
      "chip": "ym2612"
    },
    {
      "channel": 1,
      "note": 85,
      "start": 15.7614,
      "duration": 0.1485,
      "velocity": 103,
      "chip": "ym2612"
    },
    {
      "channel": 4,
      "note": 85,
      "start": 15.8161,
      "duration": 0.1491,
      "velocity": 79,
      "chip": "ym2612"
    },
    {
      "channel": 0,
      "note": 50,
      "start": 15.9235,
      "duration": 0.1487,
      "velocity": 92,
      "chip": "ym2612"
    },
    {
      "channel": 1,
      "note": 86,
      "start": 15.9239,
      "duration": 0.1485,
      "velocity": 103,
      "chip": "ym2612"
    },
    {
      "channel": 2,
      "note": 83,
      "start": 15.9244,
      "duration": 0.1483,
      "velocity": 103,
      "chip": "ym2612"
    },
    {
      "channel": 3,
      "note": 50,
      "start": 15.9249,
      "duration": 0.4735,
      "velocity": 73,
      "chip": "ym2612"
    },
    {
      "channel": 4,
      "note": 83,
      "start": 15.9785,
      "duration": 0.1488,
      "velocity": 79,
      "chip": "ym2612"
    },
    {
      "channel": 0,
      "note": 52,
      "start": 16.0859,
      "duration": 0.1488,
      "velocity": 92,
      "chip": "ym2612"
    },
    {
      "channel": 1,
      "note": 88,
      "start": 16.0864,
      "duration": 0.1486,
      "velocity": 103,
      "chip": "ym2612"
    },
    {
      "channel": 2,
      "note": 85,
      "start": 16.0868,
      "duration": 0.1484,
      "velocity": 103,
      "chip": "ym2612"
    },
    {
      "channel": 4,
      "note": 85,
      "start": 16.1411,
      "duration": 0.1488,
      "velocity": 79,
      "chip": "ym2612"
    },
    {
      "channel": 0,
      "note": 54,
      "start": 16.2484,
      "duration": 0.1488,
      "velocity": 92,
      "chip": "ym2612"
    },
    {
      "channel": 1,
      "note": 90,
      "start": 16.2488,
      "duration": 0.149,
      "velocity": 103,
      "chip": "ym2612"
    },
    {
      "channel": 2,
      "note": 82,
      "start": 16.2493,
      "duration": 0.1488,
      "velocity": 103,
      "chip": "ym2612"
    },
    {
      "channel": 4,
      "note": 86,
      "start": 16.3036,
      "duration": 0.1487,
      "velocity": 79,
      "chip": "ym2612"
    },
    {
      "channel": 0,
      "note": 47,
      "start": 16.411,
      "duration": 0.1487,
      "velocity": 92,
      "chip": "ym2612"
    },
    {
      "channel": 1,
      "note": 83,
      "start": 16.4115,
      "duration": 0.1485,
      "velocity": 103,
      "chip": "ym2612"
    },
    {
      "channel": 2,
      "note": 78,
      "start": 16.4119,
      "duration": 0.1483,
      "velocity": 103,
      "chip": "ym2612"
    },
    {
      "channel": 3,
      "note": 78,
      "start": 16.4125,
      "duration": 0.0667,
      "velocity": 73,
      "chip": "ym2612"
    },
    {
      "channel": 4,
      "note": 88,
      "start": 16.4661,
      "duration": 0.1492,
      "velocity": 79,
      "chip": "ym2612"
    },
    {
      "channel": 3,
      "note": 79,
      "start": 16.493,
      "duration": 0.0675,
      "velocity": 73,
      "chip": "ym2612"
    },
    {
      "channel": 0,
      "note": 46,
      "start": 16.5735,
      "duration": 0.1488,
      "velocity": 92,
      "chip": "ym2612"
    },
    {
      "channel": 1,
      "note": 82,
      "start": 16.5739,
      "duration": 0.1487,
      "velocity": 103,
      "chip": "ym2612"
    },
    {
      "channel": 2,
      "note": 85,
      "start": 16.5744,
      "duration": 0.0671,
      "velocity": 103,
      "chip": "ym2612"
    },
    {
      "channel": 3,
      "note": 78,
      "start": 16.5749,
      "duration": 0.1482,
      "velocity": 73,
      "chip": "ym2612"
    },
    {
      "channel": 4,
      "note": 90,
      "start": 16.6286,
      "duration": 0.1488,
      "velocity": 79,
      "chip": "ym2612"
    },
    {
      "channel": 2,
      "note": 86,
      "start": 16.6551,
      "duration": 0.0676,
      "velocity": 103,
      "chip": "ym2612"
    },
    {
      "channel": 0,
      "note": 55,
      "start": 16.7361,
      "duration": 0.1488,
      "velocity": 92,
      "chip": "ym2612"
    },
    {
      "channel": 1,
      "note": 91,
      "start": 16.7365,
      "duration": 0.1486,
      "velocity": 103,
      "chip": "ym2612"
    },
    {
      "channel": 2,
      "note": 88,
      "start": 16.737,
      "duration": 0.6359,
      "velocity": 103,
      "chip": "ym2612"
    },
    {
      "channel": 3,
      "note": 76,
      "start": 16.7375,
      "duration": 0.311,
      "velocity": 73,
      "chip": "ym2612"
    },
    {
      "channel": 4,
      "note": 83,
      "start": 16.7911,
      "duration": 0.1488,
      "velocity": 79,
      "chip": "ym2612"
    },
    {
      "channel": 0,
      "note": 52,
      "start": 16.8985,
      "duration": 0.1491,
      "velocity": 92,
      "chip": "ym2612"
    },
    {
      "channel": 1,
      "note": 88,
      "start": 16.899,
      "duration": 0.1489,
      "velocity": 103,
      "chip": "ym2612"
    },
    {
      "channel": 4,
      "note": 82,
      "start": 16.9536,
      "duration": 0.149,
      "velocity": 79,
      "chip": "ym2612"
    },
    {
      "channel": 0,
      "note": 50,
      "start": 17.0611,
      "duration": 0.1488,
      "velocity": 92,
      "chip": "ym2612"
    },
    {
      "channel": 1,
      "note": 86,
      "start": 17.0615,
      "duration": 0.1486,
      "velocity": 103,
      "chip": "ym2612"
    },
    {
      "channel": 3,
      "note": 83,
      "start": 17.0623,
      "duration": 0.1483,
      "velocity": 73,
      "chip": "ym2612"
    },
    {
      "channel": 4,
      "note": 91,
      "start": 17.1162,
      "duration": 0.1491,
      "velocity": 79,
      "chip": "ym2612"
    },
    {
      "channel": 0,
      "note": 49,
      "start": 17.2236,
      "duration": 0.1488,
      "velocity": 92,
      "chip": "ym2612"
    },
    {
      "channel": 1,
      "note": 85,
      "start": 17.224,
      "duration": 0.1486,
      "velocity": 103,
      "chip": "ym2612"
    },
    {
      "channel": 3,
      "note": 78,
      "start": 17.2248,
      "duration": 0.1483,
      "velocity": 73,
      "chip": "ym2612"
    },
    {
      "channel": 4,
      "note": 88,
      "start": 17.2788,
      "duration": 0.1486,
      "velocity": 79,
      "chip": "ym2612"
    },
    {
      "channel": 0,
      "note": 47,
      "start": 17.386,
      "duration": 0.1488,
      "velocity": 92,
      "chip": "ym2612"
    },
    {
      "channel": 1,
      "note": 83,
      "start": 17.3864,
      "duration": 0.1487,
      "velocity": 103,
      "chip": "ym2612"
    },
    {
      "channel": 2,
      "note": 74,
      "start": 17.3869,
      "duration": 0.0671,
      "velocity": 103,
      "chip": "ym2612"
    },
    {
      "channel": 3,
      "note": 76,
      "start": 17.3874,
      "duration": 0.1482,
      "velocity": 73,
      "chip": "ym2612"
    },
    {
      "channel": 4,
      "note": 86,
      "start": 17.4412,
      "duration": 0.1487,
      "velocity": 79,
      "chip": "ym2612"
    },
    {
      "channel": 2,
      "note": 76,
      "start": 17.4677,
      "duration": 0.0676,
      "velocity": 103,
      "chip": "ym2612"
    },
    {
      "channel": 0,
      "note": 46,
      "start": 17.5486,
      "duration": 0.1492,
      "velocity": 92,
      "chip": "ym2612"
    },
    {
      "channel": 1,
      "note": 82,
      "start": 17.549,
      "duration": 0.149,
      "velocity": 103,
      "chip": "ym2612"
    },
    {
      "channel": 2,
      "note": 78,
      "start": 17.5495,
      "duration": 0.1488,
      "velocity": 103,
      "chip": "ym2612"
    },
    {
      "channel": 3,
      "note": 74,
      "start": 17.55,
      "duration": 0.1486,
      "velocity": 73,
      "chip": "ym2612"
    },
    {
      "channel": 4,
      "note": 85,
      "start": 17.6037,
      "duration": 0.1487,
      "velocity": 79,
      "chip": "ym2612"
    },
    {
      "channel": 0,
      "note": 42,
      "start": 17.7111,
      "duration": 0.1488,
      "velocity": 92,
      "chip": "ym2612"
    },
    {
      "channel": 1,
      "note": 78,
      "start": 17.7116,
      "duration": 0.1487,
      "velocity": 103,
      "chip": "ym2612"
    },
    {
      "channel": 2,
      "note": 76,
      "start": 17.712,
      "duration": 0.1484,
      "velocity": 103,
      "chip": "ym2612"
    },
    {
      "channel": 3,
      "note": 73,
      "start": 17.7126,
      "duration": 0.0667,
      "velocity": 73,
      "chip": "ym2612"
    },
    {
      "channel": 4,
      "note": 83,
      "start": 17.7662,
      "duration": 0.1492,
      "velocity": 79,
      "chip": "ym2612"
    },
    {
      "channel": 3,
      "note": 74,
      "start": 17.7931,
      "duration": 0.0677,
      "velocity": 73,
      "chip": "ym2612"
    },
    {
      "channel": 0,
      "note": 54,
      "start": 17.8735,
      "duration": 0.1488,
      "velocity": 92,
      "chip": "ym2612"
    },
    {
      "channel": 1,
      "note": 90,
      "start": 17.874,
      "duration": 0.1487,
      "velocity": 103,
      "chip": "ym2612"
    },
    {
      "channel": 2,
      "note": 78,
      "start": 17.8744,
      "duration": 0.1485,
      "velocity": 103,
      "chip": "ym2612"
    },
    {
      "channel": 3,
      "note": 76,
      "start": 17.875,
      "duration": 0.3106,
      "velocity": 73,
      "chip": "ym2612"
    },
    {
      "channel": 4,
      "note": 82,
      "start": 17.9288,
      "duration": 0.1488,
      "velocity": 79,
      "chip": "ym2612"
    },
    {
      "channel": 0,
      "note": 52,
      "start": 18.0361,
      "duration": 0.1488,
      "velocity": 92,
      "chip": "ym2612"
    },
    {
      "channel": 1,
      "note": 88,
      "start": 18.0365,
      "duration": 0.1486,
      "velocity": 103,
      "chip": "ym2612"
    },
    {
      "channel": 2,
      "note": 85,
      "start": 18.037,
      "duration": 0.1484,
      "velocity": 103,
      "chip": "ym2612"
    },
    {
      "channel": 4,
      "note": 78,
      "start": 18.0912,
      "duration": 0.1488,
      "velocity": 79,
      "chip": "ym2612"
    },
    {
      "channel": 0,
      "note": 50,
      "start": 18.1986,
      "duration": 0.1491,
      "velocity": 92,
      "chip": "ym2612"
    },
    {
      "channel": 1,
      "note": 86,
      "start": 18.199,
      "duration": 0.1489,
      "velocity": 103,
      "chip": "ym2612"
    },
    {
      "channel": 2,
      "note": 79,
      "start": 18.1995,
      "duration": 0.1488,
      "velocity": 103,
      "chip": "ym2612"
    },
    {
      "channel": 3,
      "note": 82,
      "start": 18.2001,
      "duration": 0.1485,
      "velocity": 73,
      "chip": "ym2612"
    },
    {
      "channel": 4,
      "note": 90,
      "start": 18.2538,
      "duration": 0.1487,
      "velocity": 79,
      "chip": "ym2612"
    },
    {
      "channel": 0,
      "note": 49,
      "start": 18.3611,
      "duration": 0.1488,
      "velocity": 92,
      "chip": "ym2612"
    },
    {
      "channel": 1,
      "note": 85,
      "start": 18.3616,
      "duration": 0.1486,
      "velocity": 103,
      "chip": "ym2612"
    },
    {
      "channel": 2,
      "note": 79,
      "start": 18.362,
      "duration": 0.3109,
      "velocity": 103,
      "chip": "ym2612"
    },
    {
      "channel": 3,
      "note": 83,
      "start": 18.3625,
      "duration": 0.1482,
      "velocity": 73,
      "chip": "ym2612"
    },
    {
      "channel": 4,
      "note": 88,
      "start": 18.4163,
      "duration": 0.1492,
      "velocity": 79,
      "chip": "ym2612"
    },
    {
      "channel": 0,
      "note": 47,
      "start": 18.5237,
      "duration": 0.1488,
      "velocity": 92,
      "chip": "ym2612"
    },
    {
      "channel": 1,
      "note": 83,
      "start": 18.5241,
      "duration": 0.1486,
      "velocity": 103,
      "chip": "ym2612"
    },
    {
      "channel": 3,
      "note": 76,
      "start": 18.5248,
      "duration": 0.1484,
      "velocity": 73,
      "chip": "ym2612"
    },
    {
      "channel": 4,
      "note": 86,
      "start": 18.5788,
      "duration": 0.1488,
      "velocity": 79,
      "chip": "ym2612"
    },
    {
      "channel": 0,
      "note": 45,
      "start": 18.6862,
      "duration": 0.1487,
      "velocity": 92,
      "chip": "ym2612"
    },
    {
      "channel": 1,
      "note": 81,
      "start": 18.6866,
      "duration": 0.1485,
      "velocity": 103,
      "chip": "ym2612"
    },
    {
      "channel": 2,
      "note": 90,
      "start": 18.6871,
      "duration": 0.1483,
      "velocity": 103,
      "chip": "ym2612"
    },
    {
      "channel": 3,
      "note": 74,
      "start": 18.6877,
      "duration": 0.148,
      "velocity": 73,
      "chip": "ym2612"
    },
    {
      "channel": 4,
      "note": 85,
      "start": 18.7413,
      "duration": 0.1489,
      "velocity": 79,
      "chip": "ym2612"
    },
    {
      "channel": 0,
      "note": 43,
      "start": 18.8487,
      "duration": 0.1492,
      "velocity": 92,
      "chip": "ym2612"
    },
    {
      "channel": 1,
      "note": 79,
      "start": 18.8491,
      "duration": 0.149,
      "velocity": 103,
      "chip": "ym2612"
    },
    {
      "channel": 2,
      "note": 88,
      "start": 18.8495,
      "duration": 0.311,
      "velocity": 103,
      "chip": "ym2612"
    },
    {
      "channel": 3,
      "note": 73,
      "start": 18.8501,
      "duration": 0.1485,
      "velocity": 73,
      "chip": "ym2612"
    },
    {
      "channel": 4,
      "note": 83,
      "start": 18.9038,
      "duration": 0.1488,
      "velocity": 79,
      "chip": "ym2612"
    },
    {
      "channel": 0,
      "note": 40,
      "start": 19.0112,
      "duration": 0.1489,
      "velocity": 92,
      "chip": "ym2612"
    },
    {
      "channel": 1,
      "note": 76,
      "start": 19.0117,
      "duration": 0.1486,
      "velocity": 103,
      "chip": "ym2612"
    },
    {
      "channel": 3,
      "note": 71,
      "start": 19.0125,
      "duration": 0.067,
      "velocity": 73,
      "chip": "ym2612"
    },
    {
      "channel": 4,
      "note": 81,
      "start": 19.0664,
      "duration": 0.1491,
      "velocity": 79,
      "chip": "ym2612"
    },
    {
      "channel": 3,
      "note": 73,
      "start": 19.0931,
      "duration": 0.0677,
      "velocity": 73,
      "chip": "ym2612"
    },
    {
      "channel": 0,
      "note": 52,
      "start": 19.1737,
      "duration": 0.1489,
      "velocity": 92,
      "chip": "ym2612"
    },
    {
      "channel": 1,
      "note": 88,
      "start": 19.1742,
      "duration": 0.1487,
      "velocity": 103,
      "chip": "ym2612"
    },
    {
      "channel": 2,
      "note": 83,
      "start": 19.1746,
      "duration": 0.1485,
      "velocity": 103,
      "chip": "ym2612"
    },
    {
      "channel": 3,
      "note": 74,
      "start": 19.1751,
      "duration": 0.1482,
      "velocity": 73,
      "chip": "ym2612"
    },
    {
      "channel": 4,
      "note": 79,
      "start": 19.2289,
      "duration": 0.1488,
      "velocity": 79,
      "chip": "ym2612"
    },
    {
      "channel": 0,
      "note": 50,
      "start": 19.3362,
      "duration": 0.1489,
      "velocity": 92,
      "chip": "ym2612"
    },
    {
      "channel": 1,
      "note": 86,
      "start": 19.3366,
      "duration": 0.1487,
      "velocity": 103,
      "chip": "ym2612"
    },
    {
      "channel": 2,
      "note": 82,
      "start": 19.3371,
      "duration": 0.1485,
      "velocity": 103,
      "chip": "ym2612"
    },
    {
      "channel": 3,
      "note": 79,
      "start": 19.3376,
      "duration": 0.1483,
      "velocity": 73,
      "chip": "ym2612"
    },
    {
      "channel": 4,
      "note": 76,
      "start": 19.3913,
      "duration": 0.1489,
      "velocity": 79,
      "chip": "ym2612"
    },
    {
      "channel": 0,
      "note": 49,
      "start": 19.4987,
      "duration": 0.1491,
      "velocity": 92,
      "chip": "ym2612"
    },
    {
      "channel": 1,
      "note": 85,
      "start": 19.4992,
      "duration": 0.149,
      "velocity": 103,
      "chip": "ym2612"
    },
    {
      "channel": 2,
      "note": 81,
      "start": 19.4996,
      "duration": 0.3109,
      "velocity": 103,
      "chip": "ym2612"
    },
    {
      "channel": 3,
      "note": 78,
      "start": 19.5001,
      "duration": 0.3107,
      "velocity": 73,
      "chip": "ym2612"
    },
    {
      "channel": 4,
      "note": 88,
      "start": 19.5539,
      "duration": 0.1487,
      "velocity": 79,
      "chip": "ym2612"
    },
    {
      "channel": 0,
      "note": 47,
      "start": 19.6612,
      "duration": 0.1488,
      "velocity": 92,
      "chip": "ym2612"
    },
    {
      "channel": 1,
      "note": 83,
      "start": 19.6617,
      "duration": 0.1486,
      "velocity": 103,
      "chip": "ym2612"
    },
    {
      "channel": 4,
      "note": 86,
      "start": 19.7164,
      "duration": 0.1491,
      "velocity": 79,
      "chip": "ym2612"
    },
    {
      "channel": 0,
      "note": 45,
      "start": 19.8239,
      "duration": 0.1487,
      "velocity": 92,
      "chip": "ym2612"
    },
    {
      "channel": 1,
      "note": 81,
      "start": 19.8243,
      "duration": 0.1485,
      "velocity": 103,
      "chip": "ym2612"
    },
    {
      "channel": 2,
      "note": 81,
      "start": 19.8247,
      "duration": 0.3109,
      "velocity": 103,
      "chip": "ym2612"
    },
    {
      "channel": 3,
      "note": 76,
      "start": 19.8252,
      "duration": 0.3107,
      "velocity": 73,
      "chip": "ym2612"
    },
    {
      "channel": 4,
      "note": 85,
      "start": 19.8789,
      "duration": 0.1488,
      "velocity": 79,
      "chip": "ym2612"
    },
    {
      "channel": 0,
      "note": 43,
      "start": 19.9863,
      "duration": 0.1488,
      "velocity": 92,
      "chip": "ym2612"
    },
    {
      "channel": 1,
      "note": 79,
      "start": 19.9868,
      "duration": 0.1487,
      "velocity": 103,
      "chip": "ym2612"
    },
    {
      "channel": 4,
      "note": 83,
      "start": 20.0415,
      "duration": 0.1487,
      "velocity": 79,
      "chip": "ym2612"
    },
    {
      "channel": 0,
      "note": 42,
      "start": 20.1488,
      "duration": 0.0947,
      "velocity": 92,
      "chip": "ym2612"
    },
    {
      "channel": 1,
      "note": 78,
      "start": 20.1492,
      "duration": 0.0945,
      "velocity": 103,
      "chip": "ym2612"
    },
    {
      "channel": 2,
      "note": 90,
      "start": 20.1497,
      "duration": 0.0943,
      "velocity": 103,
      "chip": "ym2612"
    },
    {
      "channel": 3,
      "note": 85,
      "start": 20.1502,
      "duration": 0.3106,
      "velocity": 73,
      "chip": "ym2612"
    },
    {
      "channel": 4,
      "note": 81,
      "start": 20.204,
      "duration": 0.1488,
      "velocity": 79,
      "chip": "ym2612"
    },
    {
      "channel": 0,
      "note": 54,
      "start": 20.2571,
      "duration": 0.0947,
      "velocity": 92,
      "chip": "ym2612"
    },
    {
      "channel": 1,
      "note": 90,
      "start": 20.2576,
      "duration": 0.0945,
      "velocity": 103,
      "chip": "ym2612"
    },
    {
      "channel": 2,
      "note": 78,
      "start": 20.258,
      "duration": 0.4193,
      "velocity": 103,
      "chip": "ym2612"
    },
    {
      "channel": 0,
      "note": 45,
      "start": 20.3654,
      "duration": 0.0947,
      "velocity": 92,
      "chip": "ym2612"
    },
    {
      "channel": 1,
      "note": 81,
      "start": 20.3659,
      "duration": 0.0945,
      "velocity": 103,
      "chip": "ym2612"
    },
    {
      "channel": 4,
      "note": 79,
      "start": 20.3669,
      "duration": 0.0943,
      "velocity": 79,
      "chip": "ym2612"
    },
    {
      "channel": 0,
      "note": 46,
      "start": 20.4738,
      "duration": 0.0946,
      "velocity": 92,
      "chip": "ym2612"
    },
    {
      "channel": 1,
      "note": 82,
      "start": 20.4742,
      "duration": 0.0945,
      "velocity": 103,
      "chip": "ym2612"
    },
    {
      "channel": 3,
      "note": 86,
      "start": 20.475,
      "duration": 0.311,
      "velocity": 73,
      "chip": "ym2612"
    },
    {
      "channel": 4,
      "note": 78,
      "start": 20.4756,
      "duration": 0.0939,
      "velocity": 79,
      "chip": "ym2612"
    },
    {
      "channel": 0,
      "note": 58,
      "start": 20.5822,
      "duration": 0.0946,
      "velocity": 92,
      "chip": "ym2612"
    },
    {
      "channel": 1,
      "note": 94,
      "start": 20.5826,
      "duration": 0.0944,
      "velocity": 103,
      "chip": "ym2612"
    },
    {
      "channel": 4,
      "note": 90,
      "start": 20.5837,
      "duration": 0.0942,
      "velocity": 79,
      "chip": "ym2612"
    },
    {
      "channel": 0,
      "note": 42,
      "start": 20.6905,
      "duration": 0.0946,
      "velocity": 92,
      "chip": "ym2612"
    },
    {
      "channel": 1,
      "note": 78,
      "start": 20.691,
      "duration": 0.0945,
      "velocity": 103,
      "chip": "ym2612"
    },
    {
      "channel": 2,
      "note": 82,
      "start": 20.6914,
      "duration": 0.0943,
      "velocity": 103,
      "chip": "ym2612"
    },
    {
      "channel": 4,
      "note": 81,
      "start": 20.6922,
      "duration": 0.0941,
      "velocity": 79,
      "chip": "ym2612"
    },
    {
      "channel": 0,
      "note": 50,
      "start": 20.7988,
      "duration": 0.1759,
      "velocity": 92,
      "chip": "ym2612"
    },
    {
      "channel": 1,
      "note": 86,
      "start": 20.801,
      "duration": 0.0927,
      "velocity": 107,
      "chip": "ym2612"
    },
    {
      "channel": 2,
      "note": 83,
      "start": 20.8031,
      "duration": 0.0908,
      "velocity": 107,
      "chip": "ym2612"
    },
    {
      "channel": 3,
      "note": 85,
      "start": 20.8037,
      "duration": 0.3073,
      "velocity": 73,
      "chip": "ym2612"
    },
    {
      "channel": 4,
      "note": 82,
      "start": 20.8043,
      "duration": 0.0902,
      "velocity": 79,
      "chip": "ym2612"
    },
    {
      "channel": 4,
      "note": 94,
      "start": 20.9085,
      "duration": 0.0944,
      "velocity": 79,
      "chip": "ym2612"
    },
    {
      "channel": 1,
      "note": 86,
      "start": 20.9616,
      "duration": 0.0947,
      "velocity": 107,
      "chip": "ym2612"
    },
    {
      "channel": 2,
      "note": 83,
      "start": 20.962,
      "duration": 0.0945,
      "velocity": 107,
      "chip": "ym2612"
    },
    {
      "channel": 4,
      "note": 78,
      "start": 21.0191,
      "duration": 0.3087,
      "velocity": 92,
      "chip": "ym2612"
    },
    {
      "channel": 0,
      "note": 66,
      "start": 21.1239,
      "duration": 0.474,
      "velocity": 92,
      "chip": "ym2612"
    },
    {
      "channel": 1,
      "note": 86,
      "start": 21.1244,
      "duration": 0.0944,
      "velocity": 107,
      "chip": "ym2612"
    },
    {
      "channel": 2,
      "note": 83,
      "start": 21.1249,
      "duration": 0.0941,
      "velocity": 107,
      "chip": "ym2612"
    },
    {
      "channel": 3,
      "note": 66,
      "start": 21.1254,
      "duration": 0.1482,
      "velocity": 73,
      "chip": "ym2612"
    },
    {
      "channel": 1,
      "note": 86,
      "start": 21.2866,
      "duration": 0.0949,
      "velocity": 107,
      "chip": "ym2612"
    },
    {
      "channel": 2,
      "note": 83,
      "start": 21.287,
      "duration": 0.0947,
      "velocity": 107,
      "chip": "ym2612"
    },
    {
      "channel": 3,
      "note": 71,
      "start": 21.2875,
      "duration": 0.1484,
      "velocity": 73,
      "chip": "ym2612"
    },
    {
      "channel": 4,
      "note": 50,
      "start": 21.3416,
      "duration": 0.474,
      "velocity": 92,
      "chip": "ym2612"
    },
    {
      "channel": 1,
      "note": 88,
      "start": 21.4492,
      "duration": 0.0947,
      "velocity": 107,
      "chip": "ym2612"
    },
    {
      "channel": 2,
      "note": 85,
      "start": 21.4496,
      "duration": 0.0945,
      "velocity": 107,
      "chip": "ym2612"
    },
    {
      "channel": 3,
      "note": 73,
      "start": 21.4501,
      "duration": 0.1487,
      "velocity": 73,
      "chip": "ym2612"
    },
    {
      "channel": 0,
      "note": 67,
      "start": 21.6115,
      "duration": 0.0676,
      "velocity": 92,
      "chip": "ym2612"
    },
    {
      "channel": 1,
      "note": 88,
      "start": 21.6119,
      "duration": 0.0945,
      "velocity": 107,
      "chip": "ym2612"
    },
    {
      "channel": 2,
      "note": 85,
      "start": 21.6123,
      "duration": 0.0942,
      "velocity": 107,
      "chip": "ym2612"
    },
    {
      "channel": 3,
      "note": 70,
      "start": 21.6129,
      "duration": 0.1482,
      "velocity": 73,
      "chip": "ym2612"
    },
    {
      "channel": 0,
      "note": 66,
      "start": 21.6927,
      "duration": 0.0677,
      "velocity": 92,
      "chip": "ym2612"
    },
    {
      "channel": 0,
      "note": 64,
      "start": 21.7739,
      "duration": 0.1488,
      "velocity": 92,
      "chip": "ym2612"
    },
    {
      "channel": 1,
      "note": 88,
      "start": 21.7744,
      "duration": 0.0944,
      "velocity": 107,
      "chip": "ym2612"
    },
    {
      "channel": 2,
      "note": 85,
      "start": 21.7748,
      "duration": 0.0942,
      "velocity": 107,
      "chip": "ym2612"
    },
    {
      "channel": 3,
      "note": 66,
      "start": 21.7754,
      "duration": 0.0668,
      "velocity": 73,
      "chip": "ym2612"
    },
    {
      "channel": 4,
      "note": 66,
      "start": 21.8291,
      "duration": 0.0676,
      "velocity": 92,
      "chip": "ym2612"
    },
    {
      "channel": 3,
      "note": 73,
      "start": 21.856,
      "duration": 0.0676,
      "velocity": 73,
      "chip": "ym2612"
    },
    {
      "channel": 4,
      "note": 67,
      "start": 21.9104,
      "duration": 0.0676,
      "velocity": 92,
      "chip": "ym2612"
    },
    {
      "channel": 0,
      "note": 59,
      "start": 21.9364,
      "duration": 0.3115,
      "velocity": 92,
      "chip": "ym2612"
    },
    {
      "channel": 1,
      "note": 88,
      "start": 21.9369,
      "duration": 0.0946,
      "velocity": 107,
      "chip": "ym2612"
    },
    {
      "channel": 2,
      "note": 85,
      "start": 21.9374,
      "duration": 0.0944,
      "velocity": 107,
      "chip": "ym2612"
    },
    {
      "channel": 3,
      "note": 74,
      "start": 21.9379,
      "duration": 0.6356,
      "velocity": 73,
      "chip": "ym2612"
    },
    {
      "channel": 4,
      "note": 66,
      "start": 21.9917,
      "duration": 0.1488,
      "velocity": 92,
      "chip": "ym2612"
    },
    {
      "channel": 1,
      "note": 86,
      "start": 22.0992,
      "duration": 0.0946,
      "velocity": 107,
      "chip": "ym2612"
    },
    {
      "channel": 2,
      "note": 83,
      "start": 22.0998,
      "duration": 0.0943,
      "velocity": 107,
      "chip": "ym2612"
    },
    {
      "channel": 4,
      "note": 64,
      "start": 22.1541,
      "duration": 0.3115,
      "velocity": 92,
      "chip": "ym2612"
    },
    {
      "channel": 0,
      "note": 66,
      "start": 22.2615,
      "duration": 0.1488,
      "velocity": 92,
      "chip": "ym2612"
    },
    {
      "channel": 1,
      "note": 86,
      "start": 22.262,
      "duration": 0.0943,
      "velocity": 107,
      "chip": "ym2612"
    },
    {
      "channel": 2,
      "note": 83,
      "start": 22.2624,
      "duration": 0.0941,
      "velocity": 107,
      "chip": "ym2612"
    },
    {
      "channel": 0,
      "note": 64,
      "start": 22.424,
      "duration": 0.1488,
      "velocity": 92,
      "chip": "ym2612"
    },
    {
      "channel": 1,
      "note": 86,
      "start": 22.4244,
      "duration": 0.0945,
      "velocity": 107,
      "chip": "ym2612"
    },
    {
      "channel": 2,
      "note": 83,
      "start": 22.4249,
      "duration": 0.0943,
      "velocity": 107,
      "chip": "ym2612"
    },
    {
      "channel": 4,
      "note": 59,
      "start": 22.4792,
      "duration": 0.1488,
      "velocity": 92,
      "chip": "ym2612"
    },
    {
      "channel": 0,
      "note": 62,
      "start": 22.5866,
      "duration": 0.1488,
      "velocity": 92,
      "chip": "ym2612"
    },
    {
      "channel": 1,
      "note": 86,
      "start": 22.587,
      "duration": 0.0945,
      "velocity": 107,
      "chip": "ym2612"
    },
    {
      "channel": 2,
      "note": 83,
      "start": 22.5875,
      "duration": 0.0943,
      "velocity": 107,
      "chip": "ym2612"
    },
    {
      "channel": 3,
      "note": 76,
      "start": 22.588,
      "duration": 0.0667,
      "velocity": 73,
      "chip": "ym2612"
    },
    {
      "channel": 4,
      "note": 66,
      "start": 22.6417,
      "duration": 0.1487,
      "velocity": 92,
      "chip": "ym2612"
    },
    {
      "channel": 3,
      "note": 62,
      "start": 22.6685,
      "duration": 0.0676,
      "velocity": 73,
      "chip": "ym2612"
    },
    {
      "channel": 0,
      "note": 61,
      "start": 22.7491,
      "duration": 0.1489,
      "velocity": 92,
      "chip": "ym2612"
    },
    {
      "channel": 1,
      "note": 88,
      "start": 22.7495,
      "duration": 0.0944,
      "velocity": 107,
      "chip": "ym2612"
    },
    {
      "channel": 2,
      "note": 85,
      "start": 22.75,
      "duration": 0.0942,
      "velocity": 107,
      "chip": "ym2612"
    },
    {
      "channel": 3,
      "note": 64,
      "start": 22.7505,
      "duration": 0.1483,
      "velocity": 73,
      "chip": "ym2612"
    },
    {
      "channel": 4,
      "note": 64,
      "start": 22.8042,
      "duration": 0.1488,
      "velocity": 92,
      "chip": "ym2612"
    },
    {
      "channel": 0,
      "note": 62,
      "start": 22.9115,
      "duration": 0.0677,
      "velocity": 92,
      "chip": "ym2612"
    },
    {
      "channel": 1,
      "note": 88,
      "start": 22.912,
      "duration": 0.0945,
      "velocity": 107,
      "chip": "ym2612"
    },
    {
      "channel": 2,
      "note": 85,
      "start": 22.9124,
      "duration": 0.0943,
      "velocity": 107,
      "chip": "ym2612"
    },
    {
      "channel": 3,
      "note": 66,
      "start": 22.913,
      "duration": 0.1482,
      "velocity": 73,
      "chip": "ym2612"
    },
    {
      "channel": 4,
      "note": 62,
      "start": 22.9668,
      "duration": 0.1489,
      "velocity": 92,
      "chip": "ym2612"
    },
    {
      "channel": 0,
      "note": 64,
      "start": 22.9928,
      "duration": 0.0676,
      "velocity": 92,
      "chip": "ym2612"
    },
    {
      "channel": 0,
      "note": 58,
      "start": 23.0741,
      "duration": 0.3114,
      "velocity": 92,
      "chip": "ym2612"
    },
    {
      "channel": 1,
      "note": 88,
      "start": 23.0746,
      "duration": 0.0944,
      "velocity": 107,
      "chip": "ym2612"
    },
    {
      "channel": 2,
      "note": 85,
      "start": 23.075,
      "duration": 0.0942,
      "velocity": 107,
      "chip": "ym2612"
    },
    {
      "channel": 3,
      "note": 64,
      "start": 23.0755,
      "duration": 0.1481,
      "velocity": 73,
      "chip": "ym2612"
    },
    {
      "channel": 4,
      "note": 61,
      "start": 23.1293,
      "duration": 0.0676,
      "velocity": 92,
      "chip": "ym2612"
    },
    {
      "channel": 4,
      "note": 62,
      "start": 23.2104,
      "duration": 0.0676,
      "velocity": 92,
      "chip": "ym2612"
    },
    {
      "channel": 1,
      "note": 88,
      "start": 23.2368,
      "duration": 0.0948,
      "velocity": 107,
      "chip": "ym2612"
    },
    {
      "channel": 2,
      "note": 85,
      "start": 23.2373,
      "duration": 0.0946,
      "velocity": 107,
      "chip": "ym2612"
    },
    {
      "channel": 3,
      "note": 66,
      "start": 23.2378,
      "duration": 0.1484,
      "velocity": 73,
      "chip": "ym2612"
    },
    {
      "channel": 4,
      "note": 64,
      "start": 23.2917,
      "duration": 0.3113,
      "velocity": 92,
      "chip": "ym2612"
    },
    {
      "channel": 0,
      "note": 59,
      "start": 23.3991,
      "duration": 0.1488,
      "velocity": 92,
      "chip": "ym2612"
    },
    {
      "channel": 1,
      "note": 86,
      "start": 23.3995,
      "duration": 0.0944,
      "velocity": 107,
      "chip": "ym2612"
    },
    {
      "channel": 2,
      "note": 83,
      "start": 23.4,
      "duration": 0.0942,
      "velocity": 107,
      "chip": "ym2612"
    },
    {
      "channel": 3,
      "note": 73,
      "start": 23.4005,
      "duration": 0.1482,
      "velocity": 73,
      "chip": "ym2612"
    },
    {
      "channel": 0,
      "note": 64,
      "start": 23.5616,
      "duration": 0.1489,
      "velocity": 92,
      "chip": "ym2612"
    },
    {
      "channel": 1,
      "note": 86,
      "start": 23.5621,
      "duration": 0.0945,
      "velocity": 107,
      "chip": "ym2612"
    },
    {
      "channel": 2,
      "note": 83,
      "start": 23.5626,
      "duration": 0.0941,
      "velocity": 107,
      "chip": "ym2612"
    },
    {
      "channel": 3,
      "note": 67,
      "start": 23.5631,
      "duration": 0.3105,
      "velocity": 73,
      "chip": "ym2612"
    },
    {
      "channel": 4,
      "note": 58,
      "start": 23.6168,
      "duration": 0.1488,
      "velocity": 92,
      "chip": "ym2612"
    },
    {
      "channel": 0,
      "note": 62,
      "start": 23.7241,
      "duration": 0.1488,
      "velocity": 92,
      "chip": "ym2612"
    },
    {
      "channel": 1,
      "note": 86,
      "start": 23.7246,
      "duration": 0.0945,
      "velocity": 107,
      "chip": "ym2612"
    },
    {
      "channel": 2,
      "note": 83,
      "start": 23.725,
      "duration": 0.0943,
      "velocity": 107,
      "chip": "ym2612"
    },
    {
      "channel": 4,
      "note": 59,
      "start": 23.7794,
      "duration": 0.1487,
      "velocity": 92,
      "chip": "ym2612"
    },
    {
      "channel": 0,
      "note": 61,
      "start": 23.8867,
      "duration": 0.1488,
      "velocity": 92,
      "chip": "ym2612"
    },
    {
      "channel": 1,
      "note": 86,
      "start": 23.8871,
      "duration": 0.0944,
      "velocity": 107,
      "chip": "ym2612"
    },
    {
      "channel": 2,
      "note": 83,
      "start": 23.8876,
      "duration": 0.0942,
      "velocity": 107,
      "chip": "ym2612"
    },
    {
      "channel": 3,
      "note": 67,
      "start": 23.8881,
      "duration": 0.1482,
      "velocity": 73,
      "chip": "ym2612"
    },
    {
      "channel": 4,
      "note": 64,
      "start": 23.9419,
      "duration": 0.1487,
      "velocity": 92,
      "chip": "ym2612"
    },
    {
      "channel": 0,
      "note": 59,
      "start": 24.0492,
      "duration": 0.1489,
      "velocity": 92,
      "chip": "ym2612"
    },
    {
      "channel": 1,
      "note": 86,
      "start": 24.0496,
      "duration": 0.0945,
      "velocity": 107,
      "chip": "ym2612"
    },
    {
      "channel": 2,
      "note": 83,
      "start": 24.0501,
      "duration": 0.0943,
      "velocity": 107,
      "chip": "ym2612"
    },
    {
      "channel": 3,
      "note": 78,
      "start": 24.0506,
      "duration": 0.3106,
      "velocity": 73,
      "chip": "ym2612"
    },
    {
      "channel": 4,
      "note": 62,
      "start": 24.1043,
      "duration": 0.1488,
      "velocity": 92,
      "chip": "ym2612"
    },
    {
      "channel": 0,
      "note": 61,
      "start": 24.2117,
      "duration": 0.0676,
      "velocity": 92,
      "chip": "ym2612"
    },
    {
      "channel": 1,
      "note": 86,
      "start": 24.2122,
      "duration": 0.0944,
      "velocity": 107,
      "chip": "ym2612"
    },
    {
      "channel": 2,
      "note": 83,
      "start": 24.2126,
      "duration": 0.0941,
      "velocity": 107,
      "chip": "ym2612"
    },
    {
      "channel": 4,
      "note": 61,
      "start": 24.2669,
      "duration": 0.1488,
      "velocity": 92,
      "chip": "ym2612"
    },
    {
      "channel": 0,
      "note": 62,
      "start": 24.2929,
      "duration": 0.0676,
      "velocity": 92,
      "chip": "ym2612"
    },
    {
      "channel": 0,
      "note": 67,
      "start": 24.3742,
      "duration": 0.1489,
      "velocity": 92,
      "chip": "ym2612"
    },
    {
      "channel": 1,
      "note": 86,
      "start": 24.3747,
      "duration": 0.0944,
      "velocity": 107,
      "chip": "ym2612"
    },
    {
      "channel": 2,
      "note": 83,
      "start": 24.3751,
      "duration": 0.0942,
      "velocity": 107,
      "chip": "ym2612"
    },
    {
      "channel": 3,
      "note": 76,
      "start": 24.3756,
      "duration": 0.1482,
      "velocity": 73,
      "chip": "ym2612"
    },
    {
      "channel": 4,
      "note": 59,
      "start": 24.4293,
      "duration": 0.0676,
      "velocity": 92,
      "chip": "ym2612"
    },
    {
      "channel": 4,
      "note": 61,
      "start": 24.5105,
      "duration": 0.0675,
      "velocity": 92,
      "chip": "ym2612"
    },
    {
      "channel": 0,
      "note": 66,
      "start": 24.5368,
      "duration": 0.1488,
      "velocity": 92,
      "chip": "ym2612"
    },
    {
      "channel": 1,
      "note": 86,
      "start": 24.5372,
      "duration": 0.0944,
      "velocity": 107,
      "chip": "ym2612"
    },
    {
      "channel": 2,
      "note": 83,
      "start": 24.5377,
      "duration": 0.0941,
      "velocity": 107,
      "chip": "ym2612"
    },
    {
      "channel": 3,
      "note": 71,
      "start": 24.5382,
      "duration": 0.1481,
      "velocity": 73,
      "chip": "ym2612"
    },
    {
      "channel": 4,
      "note": 62,
      "start": 24.5918,
      "duration": 0.1488,
      "velocity": 92,
      "chip": "ym2612"
    },
    {
      "channel": 0,
      "note": 64,
      "start": 24.6992,
      "duration": 0.3113,
      "velocity": 92,
      "chip": "ym2612"
    },
    {
      "channel": 1,
      "note": 88,
      "start": 24.6997,
      "duration": 0.0945,
      "velocity": 107,
      "chip": "ym2612"
    },
    {
      "channel": 2,
      "note": 85,
      "start": 24.7002,
      "duration": 0.0942,
      "velocity": 107,
      "chip": "ym2612"
    },
    {
      "channel": 3,
      "note": 70,
      "start": 24.7007,
      "duration": 0.3106,
      "velocity": 73,
      "chip": "ym2612"
    },
    {
      "channel": 4,
      "note": 67,
      "start": 24.7544,
      "duration": 0.1488,
      "velocity": 92,
      "chip": "ym2612"
    },
    {
      "channel": 1,
      "note": 88,
      "start": 24.862,
      "duration": 0.0946,
      "velocity": 107,
      "chip": "ym2612"
    },
    {
      "channel": 2,
      "note": 85,
      "start": 24.8624,
      "duration": 0.0945,
      "velocity": 107,
      "chip": "ym2612"
    },
    {
      "channel": 4,
      "note": 66,
      "start": 24.9169,
      "duration": 0.3113,
      "velocity": 92,
      "chip": "ym2612"
    },
    {
      "channel": 0,
      "note": 61,
      "start": 25.0243,
      "duration": 0.3113,
      "velocity": 92,
      "chip": "ym2612"
    },
    {
      "channel": 1,
      "note": 88,
      "start": 25.0247,
      "duration": 0.0943,
      "velocity": 107,
      "chip": "ym2612"
    },
    {
      "channel": 2,
      "note": 85,
      "start": 25.0252,
      "duration": 0.0941,
      "velocity": 107,
      "chip": "ym2612"
    },
    {
      "channel": 3,
      "note": 69,
      "start": 25.0257,
      "duration": 0.3107,
      "velocity": 73,
      "chip": "ym2612"
    },
    {
      "channel": 1,
      "note": 88,
      "start": 25.1871,
      "duration": 0.0947,
      "velocity": 107,
      "chip": "ym2612"
    },
    {
      "channel": 2,
      "note": 85,
      "start": 25.1875,
      "duration": 0.0944,
      "velocity": 107,
      "chip": "ym2612"
    },
    {
      "channel": 4,
      "note": 64,
      "start": 25.2419,
      "duration": 0.3114,
      "velocity": 92,
      "chip": "ym2612"
    },
    {
      "channel": 0,
      "note": 62,
      "start": 25.3494,
      "duration": 0.3113,
      "velocity": 92,
      "chip": "ym2612"
    },
    {
      "channel": 1,
      "note": 90,
      "start": 25.3498,
      "duration": 0.0944,
      "velocity": 107,
      "chip": "ym2612"
    },
    {
      "channel": 2,
      "note": 86,
      "start": 25.3503,
      "duration": 0.0941,
      "velocity": 107,
      "chip": "ym2612"
    },
    {
      "channel": 3,
      "note": 69,
      "start": 25.3508,
      "duration": 0.1481,
      "velocity": 73,
      "chip": "ym2612"
    },
    {
      "channel": 1,
      "note": 90,
      "start": 25.5121,
      "duration": 0.0946,
      "velocity": 107,
      "chip": "ym2612"
    },
    {
      "channel": 2,
      "note": 86,
      "start": 25.5125,
      "duration": 0.0944,
      "velocity": 107,
      "chip": "ym2612"
    },
    {
      "channel": 3,
      "note": 78,
      "start": 25.513,
      "duration": 0.3109,
      "velocity": 73,
      "chip": "ym2612"
    },
    {
      "channel": 4,
      "note": 61,
      "start": 25.5671,
      "duration": 0.3112,
      "velocity": 92,
      "chip": "ym2612"
    },
    {
      "channel": 0,
      "note": 61,
      "start": 25.6743,
      "duration": 0.3113,
      "velocity": 92,
      "chip": "ym2612"
    },
    {
      "channel": 1,
      "note": 88,
      "start": 25.6747,
      "duration": 0.0945,
      "velocity": 107,
      "chip": "ym2612"
    },
    {
      "channel": 2,
      "note": 85,
      "start": 25.6752,
      "duration": 0.0942,
      "velocity": 107,
      "chip": "ym2612"
    },
    {
      "channel": 1,
      "note": 88,
      "start": 25.8371,
      "duration": 0.0947,
      "velocity": 107,
      "chip": "ym2612"
    },
    {
      "channel": 2,
      "note": 85,
      "start": 25.8375,
      "duration": 0.0945,
      "velocity": 107,
      "chip": "ym2612"
    },
    {
      "channel": 3,
      "note": 66,
      "start": 25.838,
      "duration": 0.1484,
      "velocity": 73,
      "chip": "ym2612"
    },
    {
      "channel": 4,
      "note": 62,
      "start": 25.892,
      "duration": 0.3113,
      "velocity": 92,
      "chip": "ym2612"
    },
    {
      "channel": 0,
      "note": 59,
      "start": 25.9995,
      "duration": 0.1487,
      "velocity": 92,
      "chip": "ym2612"
    },
    {
      "channel": 1,
      "note": 90,
      "start": 26.0017,
      "duration": 1.2844,
      "velocity": 97,
      "chip": "ym2612"
    },
    {
      "channel": 2,
      "note": 86,
      "start": 26.0037,
      "duration": 0.6324,
      "velocity": 97,
      "chip": "ym2612"
    },
    {
      "channel": 3,
      "note": 70,
      "start": 26.0066,
      "duration": 0.1424,
      "velocity": 101,
      "chip": "ym2612"
    },
    {
      "channel": 0,
      "note": 61,
      "start": 26.1618,
      "duration": 0.1489,
      "velocity": 92,
      "chip": "ym2612"
    },
    {
      "channel": 4,
      "note": 61,
      "start": 26.2172,
      "duration": 0.1488,
      "velocity": 92,
      "chip": "ym2612"
    },
    {
      "channel": 0,
      "note": 62,
      "start": 26.3244,
      "duration": 0.1488,
      "velocity": 92,
      "chip": "ym2612"
    },
    {
      "channel": 3,
      "note": 83,
      "start": 26.3254,
      "duration": 0.1487,
      "velocity": 101,
      "chip": "ym2612"
    },
    {
      "channel": 4,
      "note": 59,
      "start": 26.3796,
      "duration": 0.1489,
      "velocity": 92,
      "chip": "ym2612"
    },
    {
      "channel": 0,
      "note": 64,
      "start": 26.4869,
      "duration": 0.1488,
      "velocity": 92,
      "chip": "ym2612"
    },
    {
      "channel": 4,
      "note": 61,
      "start": 26.5422,
      "duration": 0.1487,
      "velocity": 92,
      "chip": "ym2612"
    },
    {
      "channel": 0,
      "note": 66,
      "start": 26.6494,
      "duration": 0.1489,
      "velocity": 92,
      "chip": "ym2612"
    },
    {
      "channel": 2,
      "note": 85,
      "start": 26.6501,
      "duration": 0.6361,
      "velocity": 97,
      "chip": "ym2612"
    },
    {
      "channel": 3,
      "note": 86,
      "start": 26.6507,
      "duration": 0.1484,
      "velocity": 101,
      "chip": "ym2612"
    },
    {
      "channel": 4,
      "note": 62,
      "start": 26.7046,
      "duration": 0.1488,
      "velocity": 92,
      "chip": "ym2612"
    },
    {
      "channel": 0,
      "note": 59,
      "start": 26.812,
      "duration": 0.1488,
      "velocity": 92,
      "chip": "ym2612"
    },
    {
      "channel": 4,
      "note": 64,
      "start": 26.8671,
      "duration": 0.1489,
      "velocity": 92,
      "chip": "ym2612"
    },
    {
      "channel": 0,
      "note": 58,
      "start": 26.9745,
      "duration": 0.1488,
      "velocity": 92,
      "chip": "ym2612"
    },
    {
      "channel": 3,
      "note": 90,
      "start": 26.9754,
      "duration": 0.1486,
      "velocity": 101,
      "chip": "ym2612"
    },
    {
      "channel": 4,
      "note": 66,
      "start": 27.0297,
      "duration": 0.1487,
      "velocity": 92,
      "chip": "ym2612"
    },
    {
      "channel": 0,
      "note": 67,
      "start": 27.137,
      "duration": 0.1487,
      "velocity": 92,
      "chip": "ym2612"
    },
    {
      "channel": 4,
      "note": 59,
      "start": 27.1921,
      "duration": 0.1488,
      "velocity": 92,
      "chip": "ym2612"
    },
    {
      "channel": 0,
      "note": 64,
      "start": 27.2995,
      "duration": 0.1489,
      "velocity": 92,
      "chip": "ym2612"
    },
    {
      "channel": 1,
      "note": 88,
      "start": 27.2999,
      "duration": 1.2862,
      "velocity": 97,
      "chip": "ym2612"
    },
    {
      "channel": 2,
      "note": 83,
      "start": 27.3004,
      "duration": 0.636,
      "velocity": 97,
      "chip": "ym2612"
    },
    {
      "channel": 3,
      "note": 82,
      "start": 27.301,
      "duration": 0.1481,
      "velocity": 101,
      "chip": "ym2612"
    },
    {
      "channel": 4,
      "note": 58,
      "start": 27.3546,
      "duration": 0.1488,
      "velocity": 92,
      "chip": "ym2612"
    },
    {
      "channel": 0,
      "note": 62,
      "start": 27.462,
      "duration": 0.1489,
      "velocity": 92,
      "chip": "ym2612"
    },
    {
      "channel": 4,
      "note": 67,
      "start": 27.5172,
      "duration": 0.1489,
      "velocity": 92,
      "chip": "ym2612"
    },
    {
      "channel": 0,
      "note": 61,
      "start": 27.6246,
      "duration": 0.1488,
      "velocity": 92,
      "chip": "ym2612"
    },
    {
      "channel": 3,
      "note": 88,
      "start": 27.6255,
      "duration": 0.1486,
      "velocity": 101,
      "chip": "ym2612"
    },
    {
      "channel": 4,
      "note": 64,
      "start": 27.6797,
      "duration": 0.1488,
      "velocity": 92,
      "chip": "ym2612"
    },
    {
      "channel": 0,
      "note": 59,
      "start": 27.787,
      "duration": 0.1489,
      "velocity": 92,
      "chip": "ym2612"
    },
    {
      "channel": 4,
      "note": 62,
      "start": 27.8422,
      "duration": 0.1487,
      "velocity": 92,
      "chip": "ym2612"
    },
    {
      "channel": 0,
      "note": 58,
      "start": 27.9495,
      "duration": 0.1489,
      "velocity": 92,
      "chip": "ym2612"
    },
    {
      "channel": 2,
      "note": 82,
      "start": 27.9502,
      "duration": 0.6362,
      "velocity": 97,
      "chip": "ym2612"
    },
    {
      "channel": 3,
      "note": 85,
      "start": 27.9507,
      "duration": 0.1484,
      "velocity": 101,
      "chip": "ym2612"
    },
    {
      "channel": 4,
      "note": 61,
      "start": 28.0048,
      "duration": 0.1488,
      "velocity": 92,
      "chip": "ym2612"
    },
    {
      "channel": 0,
      "note": 54,
      "start": 28.1121,
      "duration": 0.1488,
      "velocity": 92,
      "chip": "ym2612"
    },
    {
      "channel": 4,
      "note": 59,
      "start": 28.1673,
      "duration": 0.1488,
      "velocity": 92,
      "chip": "ym2612"
    },
    {
      "channel": 0,
      "note": 66,
      "start": 28.2746,
      "duration": 0.1489,
      "velocity": 92,
      "chip": "ym2612"
    },
    {
      "channel": 3,
      "note": 82,
      "start": 28.2755,
      "duration": 0.1487,
      "velocity": 101,
      "chip": "ym2612"
    },
    {
      "channel": 4,
      "note": 58,
      "start": 28.3298,
      "duration": 0.1488,
      "velocity": 92,
      "chip": "ym2612"
    },
    {
      "channel": 0,
      "note": 64,
      "start": 28.4371,
      "duration": 0.1487,
      "velocity": 92,
      "chip": "ym2612"
    },
    {
      "channel": 4,
      "note": 54,
      "start": 28.4923,
      "duration": 0.1487,
      "velocity": 92,
      "chip": "ym2612"
    },
    {
      "channel": 0,
      "note": 62,
      "start": 28.5997,
      "duration": 0.1488,
      "velocity": 92,
      "chip": "ym2612"
    },
    {
      "channel": 1,
      "note": 86,
      "start": 28.6001,
      "duration": 1.2862,
      "velocity": 97,
      "chip": "ym2612"
    },
    {
      "channel": 2,
      "note": 83,
      "start": 28.6006,
      "duration": 1.286,
      "velocity": 97,
      "chip": "ym2612"
    },
    {
      "channel": 3,
      "note": 90,
      "start": 28.6011,
      "duration": 0.148,
      "velocity": 101,
      "chip": "ym2612"
    },
    {
      "channel": 4,
      "note": 66,
      "start": 28.6547,
      "duration": 0.1488,
      "velocity": 92,
      "chip": "ym2612"
    },
    {
      "channel": 0,
      "note": 61,
      "start": 28.7622,
      "duration": 0.1488,
      "velocity": 92,
      "chip": "ym2612"
    },
    {
      "channel": 4,
      "note": 64,
      "start": 28.8172,
      "duration": 0.1489,
      "velocity": 92,
      "chip": "ym2612"
    },
    {
      "channel": 0,
      "note": 59,
      "start": 28.9246,
      "duration": 0.1489,
      "velocity": 92,
      "chip": "ym2612"
    },
    {
      "channel": 3,
      "note": 86,
      "start": 28.9256,
      "duration": 0.1487,
      "velocity": 101,
      "chip": "ym2612"
    },
    {
      "channel": 4,
      "note": 62,
      "start": 28.9798,
      "duration": 0.1489,
      "velocity": 92,
      "chip": "ym2612"
    },
    {
      "channel": 0,
      "note": 57,
      "start": 29.0871,
      "duration": 0.1489,
      "velocity": 92,
      "chip": "ym2612"
    },
    {
      "channel": 4,
      "note": 61,
      "start": 29.1424,
      "duration": 0.1487,
      "velocity": 92,
      "chip": "ym2612"
    },
    {
      "channel": 0,
      "note": 55,
      "start": 29.2498,
      "duration": 0.1488,
      "velocity": 92,
      "chip": "ym2612"
    },
    {
      "channel": 3,
      "note": 83,
      "start": 29.2507,
      "duration": 0.1487,
      "velocity": 101,
      "chip": "ym2612"
    },
    {
      "channel": 4,
      "note": 59,
      "start": 29.305,
      "duration": 0.1487,
      "velocity": 92,
      "chip": "ym2612"
    },
    {
      "channel": 0,
      "note": 52,
      "start": 29.4123,
      "duration": 0.1488,
      "velocity": 92,
      "chip": "ym2612"
    },
    {
      "channel": 4,
      "note": 57,
      "start": 29.4674,
      "duration": 0.1488,
      "velocity": 92,
      "chip": "ym2612"
    },
    {
      "channel": 0,
      "note": 64,
      "start": 29.5747,
      "duration": 0.1488,
      "velocity": 92,
      "chip": "ym2612"
    },
    {
      "channel": 3,
      "note": 79,
      "start": 29.5757,
      "duration": 0.1486,
      "velocity": 101,
      "chip": "ym2612"
    },
    {
      "channel": 4,
      "note": 55,
      "start": 29.63,
      "duration": 0.1487,
      "velocity": 92,
      "chip": "ym2612"
    },
    {
      "channel": 0,
      "note": 62,
      "start": 29.7373,
      "duration": 0.1488,
      "velocity": 92,
      "chip": "ym2612"
    },
    {
      "channel": 4,
      "note": 52,
      "start": 29.7924,
      "duration": 0.1487,
      "velocity": 92,
      "chip": "ym2612"
    },
    {
      "channel": 0,
      "note": 61,
      "start": 29.8998,
      "duration": 0.1488,
      "velocity": 92,
      "chip": "ym2612"
    },
    {
      "channel": 1,
      "note": 85,
      "start": 29.9002,
      "duration": 0.6362,
      "velocity": 97,
      "chip": "ym2612"
    },
    {
      "channel": 2,
      "note": 81,
      "start": 29.9006,
      "duration": 0.961,
      "velocity": 97,
      "chip": "ym2612"
    },
    {
      "channel": 3,
      "note": 88,
      "start": 29.9011,
      "duration": 0.1481,
      "velocity": 101,
      "chip": "ym2612"
    },
    {
      "channel": 4,
      "note": 64,
      "start": 29.9549,
      "duration": 0.1487,
      "velocity": 92,
      "chip": "ym2612"
    },
    {
      "channel": 0,
      "note": 59,
      "start": 30.0623,
      "duration": 0.1488,
      "velocity": 92,
      "chip": "ym2612"
    },
    {
      "channel": 4,
      "note": 62,
      "start": 30.1174,
      "duration": 0.1488,
      "velocity": 92,
      "chip": "ym2612"
    },
    {
      "channel": 0,
      "note": 57,
      "start": 30.2247,
      "duration": 0.1489,
      "velocity": 92,
      "chip": "ym2612"
    },
    {
      "channel": 3,
      "note": 85,
      "start": 30.2258,
      "duration": 0.1486,
      "velocity": 101,
      "chip": "ym2612"
    },
    {
      "channel": 4,
      "note": 61,
      "start": 30.28,
      "duration": 0.1488,
      "velocity": 92,
      "chip": "ym2612"
    },
    {
      "channel": 0,
      "note": 55,
      "start": 30.3873,
      "duration": 0.1489,
      "velocity": 92,
      "chip": "ym2612"
    },
    {
      "channel": 4,
      "note": 59,
      "start": 30.4425,
      "duration": 0.1487,
      "velocity": 92,
      "chip": "ym2612"
    },
    {
      "channel": 0,
      "note": 54,
      "start": 30.5498,
      "duration": 0.1488,
      "velocity": 92,
      "chip": "ym2612"
    },
    {
      "channel": 1,
      "note": 86,
      "start": 30.5502,
      "duration": 0.3112,
      "velocity": 97,
      "chip": "ym2612"
    },
    {
      "channel": 3,
      "note": 81,
      "start": 30.551,
      "duration": 0.1483,
      "velocity": 101,
      "chip": "ym2612"
    },
    {
      "channel": 4,
      "note": 57,
      "start": 30.605,
      "duration": 0.1487,
      "velocity": 92,
      "chip": "ym2612"
    },
    {
      "channel": 0,
      "note": 57,
      "start": 30.7124,
      "duration": 0.1487,
      "velocity": 92,
      "chip": "ym2612"
    },
    {
      "channel": 4,
      "note": 55,
      "start": 30.7676,
      "duration": 0.1487,
      "velocity": 92,
      "chip": "ym2612"
    },
    {
      "channel": 0,
      "note": 58,
      "start": 30.8749,
      "duration": 0.1487,
      "velocity": 92,
      "chip": "ym2612"
    },
    {
      "channel": 1,
      "note": 85,
      "start": 30.8753,
      "duration": 0.3111,
      "velocity": 97,
      "chip": "ym2612"
    },
    {
      "channel": 2,
      "note": 82,
      "start": 30.8758,
      "duration": 0.3109,
      "velocity": 97,
      "chip": "ym2612"
    },
    {
      "channel": 3,
      "note": 78,
      "start": 30.8763,
      "duration": 0.148,
      "velocity": 101,
      "chip": "ym2612"
    },
    {
      "channel": 4,
      "note": 54,
      "start": 30.93,
      "duration": 0.1487,
      "velocity": 92,
      "chip": "ym2612"
    },
    {
      "channel": 0,
      "note": 54,
      "start": 31.0373,
      "duration": 0.1488,
      "velocity": 92,
      "chip": "ym2612"
    },
    {
      "channel": 4,
      "note": 57,
      "start": 31.0926,
      "duration": 0.1487,
      "velocity": 92,
      "chip": "ym2612"
    },
    {
      "channel": 0,
      "note": 62,
      "start": 31.2015,
      "duration": 0.2285,
      "velocity": 72,
      "chip": "ym2612"
    },
    {
      "channel": 1,
      "note": 83,
      "start": 31.2037,
      "duration": 0.1453,
      "velocity": 103,
      "chip": "ym2612"
    },
    {
      "channel": 2,
      "note": 71,
      "start": 31.2058,
      "duration": 0.1434,
      "velocity": 73,
      "chip": "ym2612"
    },
    {
      "channel": 3,
      "note": 82,
      "start": 31.2086,
      "duration": 0.1409,
      "velocity": 92,
      "chip": "ym2612"
    },
    {
      "channel": 4,
      "note": 58,
      "start": 31.255,
      "duration": 0.1488,
      "velocity": 92,
      "chip": "ym2612"
    },
    {
      "channel": 1,
      "note": 85,
      "start": 31.3626,
      "duration": 0.1489,
      "velocity": 103,
      "chip": "ym2612"
    },
    {
      "channel": 2,
      "note": 73,
      "start": 31.363,
      "duration": 0.1487,
      "velocity": 73,
      "chip": "ym2612"
    },
    {
      "channel": 3,
      "note": 59,
      "start": 31.3635,
      "duration": 0.1484,
      "velocity": 92,
      "chip": "ym2612"
    },
    {
      "channel": 4,
      "note": 54,
      "start": 31.4199,
      "duration": 0.3088,
      "velocity": 72,
      "chip": "ym2612"
    },
    {
      "channel": 0,
      "note": 78,
      "start": 31.5249,
      "duration": 0.4739,
      "velocity": 72,
      "chip": "ym2612"
    },
    {
      "channel": 1,
      "note": 86,
      "start": 31.5254,
      "duration": 0.1485,
      "velocity": 103,
      "chip": "ym2612"
    },
    {
      "channel": 2,
      "note": 74,
      "start": 31.5258,
      "duration": 0.1483,
      "velocity": 73,
      "chip": "ym2612"
    },
    {
      "channel": 3,
      "note": 61,
      "start": 31.5263,
      "duration": 0.1481,
      "velocity": 92,
      "chip": "ym2612"
    },
    {
      "channel": 1,
      "note": 88,
      "start": 31.6877,
      "duration": 0.1488,
      "velocity": 103,
      "chip": "ym2612"
    },
    {
      "channel": 2,
      "note": 76,
      "start": 31.6881,
      "duration": 0.1487,
      "velocity": 73,
      "chip": "ym2612"
    },
    {
      "channel": 3,
      "note": 62,
      "start": 31.6886,
      "duration": 0.1484,
      "velocity": 92,
      "chip": "ym2612"
    },
    {
      "channel": 4,
      "note": 50,
      "start": 31.7426,
      "duration": 0.4739,
      "velocity": 72,
      "chip": "ym2612"
    },
    {
      "channel": 1,
      "note": 90,
      "start": 31.8502,
      "duration": 0.1488,
      "velocity": 103,
      "chip": "ym2612"
    },
    {
      "channel": 2,
      "note": 78,
      "start": 31.8507,
      "duration": 0.1485,
      "velocity": 73,
      "chip": "ym2612"
    },
    {
      "channel": 3,
      "note": 64,
      "start": 31.8512,
      "duration": 0.1483,
      "velocity": 92,
      "chip": "ym2612"
    },
    {
      "channel": 0,
      "note": 79,
      "start": 32.0125,
      "duration": 0.0676,
      "velocity": 72,
      "chip": "ym2612"
    },
    {
      "channel": 1,
      "note": 83,
      "start": 32.0129,
      "duration": 0.1485,
      "velocity": 103,
      "chip": "ym2612"
    },
    {
      "channel": 2,
      "note": 71,
      "start": 32.0134,
      "duration": 0.1483,
      "velocity": 73,
      "chip": "ym2612"
    },
    {
      "channel": 3,
      "note": 66,
      "start": 32.0139,
      "duration": 0.148,
      "velocity": 92,
      "chip": "ym2612"
    },
    {
      "channel": 0,
      "note": 78,
      "start": 32.0937,
      "duration": 0.0675,
      "velocity": 72,
      "chip": "ym2612"
    },
    {
      "channel": 0,
      "note": 76,
      "start": 32.1749,
      "duration": 0.1488,
      "velocity": 72,
      "chip": "ym2612"
    },
    {
      "channel": 1,
      "note": 82,
      "start": 32.1754,
      "duration": 0.1486,
      "velocity": 103,
      "chip": "ym2612"
    },
    {
      "channel": 2,
      "note": 70,
      "start": 32.1758,
      "duration": 0.1484,
      "velocity": 73,
      "chip": "ym2612"
    },
    {
      "channel": 3,
      "note": 59,
      "start": 32.1763,
      "duration": 0.1482,
      "velocity": 92,
      "chip": "ym2612"
    },
    {
      "channel": 4,
      "note": 66,
      "start": 32.2301,
      "duration": 0.0678,
      "velocity": 72,
      "chip": "ym2612"
    },
    {
      "channel": 4,
      "note": 67,
      "start": 32.3114,
      "duration": 0.0675,
      "velocity": 72,
      "chip": "ym2612"
    },
    {
      "channel": 0,
      "note": 71,
      "start": 32.3375,
      "duration": 0.3113,
      "velocity": 72,
      "chip": "ym2612"
    },
    {
      "channel": 1,
      "note": 91,
      "start": 32.3379,
      "duration": 0.1485,
      "velocity": 103,
      "chip": "ym2612"
    },
    {
      "channel": 2,
      "note": 79,
      "start": 32.3383,
      "duration": 0.1483,
      "velocity": 73,
      "chip": "ym2612"
    },
    {
      "channel": 3,
      "note": 58,
      "start": 32.3389,
      "duration": 0.1481,
      "velocity": 92,
      "chip": "ym2612"
    },
    {
      "channel": 4,
      "note": 66,
      "start": 32.3926,
      "duration": 0.1487,
      "velocity": 72,
      "chip": "ym2612"
    },
    {
      "channel": 1,
      "note": 88,
      "start": 32.5001,
      "duration": 0.1489,
      "velocity": 103,
      "chip": "ym2612"
    },
    {
      "channel": 2,
      "note": 76,
      "start": 32.5006,
      "duration": 0.1487,
      "velocity": 73,
      "chip": "ym2612"
    },
    {
      "channel": 3,
      "note": 67,
      "start": 32.5011,
      "duration": 0.1484,
      "velocity": 92,
      "chip": "ym2612"
    },
    {
      "channel": 4,
      "note": 64,
      "start": 32.5551,
      "duration": 0.3113,
      "velocity": 72,
      "chip": "ym2612"
    },
    {
      "channel": 0,
      "note": 78,
      "start": 32.6626,
      "duration": 0.1487,
      "velocity": 72,
      "chip": "ym2612"
    },
    {
      "channel": 1,
      "note": 86,
      "start": 32.663,
      "duration": 0.1485,
      "velocity": 103,
      "chip": "ym2612"
    },
    {
      "channel": 2,
      "note": 74,
      "start": 32.6635,
      "duration": 0.1483,
      "velocity": 73,
      "chip": "ym2612"
    },
    {
      "channel": 3,
      "note": 64,
      "start": 32.6644,
      "duration": 0.1477,
      "velocity": 92,
      "chip": "ym2612"
    },
    {
      "channel": 0,
      "note": 76,
      "start": 32.8251,
      "duration": 0.1488,
      "velocity": 72,
      "chip": "ym2612"
    },
    {
      "channel": 1,
      "note": 85,
      "start": 32.8255,
      "duration": 0.1486,
      "velocity": 103,
      "chip": "ym2612"
    },
    {
      "channel": 2,
      "note": 73,
      "start": 32.8259,
      "duration": 0.1484,
      "velocity": 73,
      "chip": "ym2612"
    },
    {
      "channel": 3,
      "note": 62,
      "start": 32.8265,
      "duration": 0.1481,
      "velocity": 92,
      "chip": "ym2612"
    },
    {
      "channel": 4,
      "note": 59,
      "start": 32.8802,
      "duration": 0.1487,
      "velocity": 72,
      "chip": "ym2612"
    },
    {
      "channel": 0,
      "note": 74,
      "start": 32.9876,
      "duration": 0.1488,
      "velocity": 72,
      "chip": "ym2612"
    },
    {
      "channel": 1,
      "note": 83,
      "start": 32.988,
      "duration": 0.1486,
      "velocity": 103,
      "chip": "ym2612"
    },
    {
      "channel": 2,
      "note": 71,
      "start": 32.9885,
      "duration": 0.1484,
      "velocity": 73,
      "chip": "ym2612"
    },
    {
      "channel": 3,
      "note": 61,
      "start": 32.989,
      "duration": 0.1482,
      "velocity": 92,
      "chip": "ym2612"
    },
    {
      "channel": 4,
      "note": 66,
      "start": 33.0426,
      "duration": 0.1488,
      "velocity": 72,
      "chip": "ym2612"
    },
    {
      "channel": 0,
      "note": 73,
      "start": 33.1501,
      "duration": 0.1488,
      "velocity": 72,
      "chip": "ym2612"
    },
    {
      "channel": 1,
      "note": 82,
      "start": 33.1506,
      "duration": 0.1485,
      "velocity": 103,
      "chip": "ym2612"
    },
    {
      "channel": 2,
      "note": 70,
      "start": 33.151,
      "duration": 0.1483,
      "velocity": 73,
      "chip": "ym2612"
    },
    {
      "channel": 3,
      "note": 59,
      "start": 33.1515,
      "duration": 0.1482,
      "velocity": 92,
      "chip": "ym2612"
    },
    {
      "channel": 4,
      "note": 64,
      "start": 33.2051,
      "duration": 0.1488,
      "velocity": 72,
      "chip": "ym2612"
    },
    {
      "channel": 0,
      "note": 74,
      "start": 33.3125,
      "duration": 0.0676,
      "velocity": 72,
      "chip": "ym2612"
    },
    {
      "channel": 1,
      "note": 78,
      "start": 33.313,
      "duration": 0.1486,
      "velocity": 103,
      "chip": "ym2612"
    },
    {
      "channel": 2,
      "note": 66,
      "start": 33.3134,
      "duration": 0.1484,
      "velocity": 73,
      "chip": "ym2612"
    },
    {
      "channel": 3,
      "note": 58,
      "start": 33.3143,
      "duration": 0.1478,
      "velocity": 92,
      "chip": "ym2612"
    },
    {
      "channel": 4,
      "note": 62,
      "start": 33.3677,
      "duration": 0.1487,
      "velocity": 72,
      "chip": "ym2612"
    },
    {
      "channel": 0,
      "note": 76,
      "start": 33.3938,
      "duration": 0.0676,
      "velocity": 72,
      "chip": "ym2612"
    },
    {
      "channel": 0,
      "note": 70,
      "start": 33.4751,
      "duration": 0.3114,
      "velocity": 72,
      "chip": "ym2612"
    },
    {
      "channel": 1,
      "note": 90,
      "start": 33.4755,
      "duration": 0.1486,
      "velocity": 103,
      "chip": "ym2612"
    },
    {
      "channel": 2,
      "note": 78,
      "start": 33.4759,
      "duration": 0.1483,
      "velocity": 73,
      "chip": "ym2612"
    },
    {
      "channel": 3,
      "note": 54,
      "start": 33.4765,
      "duration": 0.1481,
      "velocity": 92,
      "chip": "ym2612"
    },
    {
      "channel": 4,
      "note": 61,
      "start": 33.5302,
      "duration": 0.0679,
      "velocity": 72,
      "chip": "ym2612"
    },
    {
      "channel": 4,
      "note": 62,
      "start": 33.6115,
      "duration": 0.0675,
      "velocity": 72,
      "chip": "ym2612"
    },
    {
      "channel": 1,
      "note": 88,
      "start": 33.6377,
      "duration": 0.149,
      "velocity": 103,
      "chip": "ym2612"
    },
    {
      "channel": 2,
      "note": 76,
      "start": 33.6382,
      "duration": 0.1488,
      "velocity": 73,
      "chip": "ym2612"
    },
    {
      "channel": 3,
      "note": 66,
      "start": 33.6387,
      "duration": 0.1485,
      "velocity": 92,
      "chip": "ym2612"
    },
    {
      "channel": 4,
      "note": 64,
      "start": 33.6927,
      "duration": 0.3112,
      "velocity": 72,
      "chip": "ym2612"
    },
    {
      "channel": 0,
      "note": 71,
      "start": 33.8001,
      "duration": 0.1489,
      "velocity": 72,
      "chip": "ym2612"
    },
    {
      "channel": 1,
      "note": 86,
      "start": 33.8005,
      "duration": 0.1487,
      "velocity": 103,
      "chip": "ym2612"
    },
    {
      "channel": 2,
      "note": 74,
      "start": 33.801,
      "duration": 0.1485,
      "velocity": 73,
      "chip": "ym2612"
    },
    {
      "channel": 3,
      "note": 64,
      "start": 33.8015,
      "duration": 0.1482,
      "velocity": 92,
      "chip": "ym2612"
    },
    {
      "channel": 0,
      "note": 76,
      "start": 33.9627,
      "duration": 0.1489,
      "velocity": 72,
      "chip": "ym2612"
    },
    {
      "channel": 1,
      "note": 85,
      "start": 33.9631,
      "duration": 0.1486,
      "velocity": 103,
      "chip": "ym2612"
    },
    {
      "channel": 2,
      "note": 73,
      "start": 33.9635,
      "duration": 0.1484,
      "velocity": 73,
      "chip": "ym2612"
    },
    {
      "channel": 3,
      "note": 62,
      "start": 33.9644,
      "duration": 0.1478,
      "velocity": 92,
      "chip": "ym2612"
    },
    {
      "channel": 4,
      "note": 58,
      "start": 34.0177,
      "duration": 0.1488,
      "velocity": 72,
      "chip": "ym2612"
    },
    {
      "channel": 0,
      "note": 74,
      "start": 34.1252,
      "duration": 0.1488,
      "velocity": 72,
      "chip": "ym2612"
    },
    {
      "channel": 1,
      "note": 83,
      "start": 34.1256,
      "duration": 0.1486,
      "velocity": 103,
      "chip": "ym2612"
    },
    {
      "channel": 2,
      "note": 71,
      "start": 34.1261,
      "duration": 0.1483,
      "velocity": 73,
      "chip": "ym2612"
    },
    {
      "channel": 3,
      "note": 61,
      "start": 34.1266,
      "duration": 0.1482,
      "velocity": 92,
      "chip": "ym2612"
    },
    {
      "channel": 4,
      "note": 59,
      "start": 34.1803,
      "duration": 0.1488,
      "velocity": 72,
      "chip": "ym2612"
    },
    {
      "channel": 0,
      "note": 73,
      "start": 34.2877,
      "duration": 0.1488,
      "velocity": 72,
      "chip": "ym2612"
    },
    {
      "channel": 1,
      "note": 81,
      "start": 34.2881,
      "duration": 0.1486,
      "velocity": 103,
      "chip": "ym2612"
    },
    {
      "channel": 2,
      "note": 69,
      "start": 34.2885,
      "duration": 0.1483,
      "velocity": 73,
      "chip": "ym2612"
    },
    {
      "channel": 3,
      "note": 59,
      "start": 34.2891,
      "duration": 0.1481,
      "velocity": 92,
      "chip": "ym2612"
    },
    {
      "channel": 4,
      "note": 64,
      "start": 34.3429,
      "duration": 0.1487,
      "velocity": 72,
      "chip": "ym2612"
    },
    {
      "channel": 0,
      "note": 71,
      "start": 34.4501,
      "duration": 0.1489,
      "velocity": 72,
      "chip": "ym2612"
    },
    {
      "channel": 1,
      "note": 79,
      "start": 34.4506,
      "duration": 0.1487,
      "velocity": 103,
      "chip": "ym2612"
    },
    {
      "channel": 2,
      "note": 67,
      "start": 34.451,
      "duration": 0.1485,
      "velocity": 73,
      "chip": "ym2612"
    },
    {
      "channel": 3,
      "note": 57,
      "start": 34.4516,
      "duration": 0.1482,
      "velocity": 92,
      "chip": "ym2612"
    },
    {
      "channel": 4,
      "note": 62,
      "start": 34.5053,
      "duration": 0.1488,
      "velocity": 72,
      "chip": "ym2612"
    },
    {
      "channel": 0,
      "note": 73,
      "start": 34.6127,
      "duration": 0.0677,
      "velocity": 72,
      "chip": "ym2612"
    },
    {
      "channel": 1,
      "note": 76,
      "start": 34.6131,
      "duration": 0.1487,
      "velocity": 103,
      "chip": "ym2612"
    },
    {
      "channel": 2,
      "note": 64,
      "start": 34.6135,
      "duration": 0.1485,
      "velocity": 73,
      "chip": "ym2612"
    },
    {
      "channel": 3,
      "note": 55,
      "start": 34.6144,
      "duration": 0.1478,
      "velocity": 92,
      "chip": "ym2612"
    },
    {
      "channel": 4,
      "note": 61,
      "start": 34.6678,
      "duration": 0.1488,
      "velocity": 72,
      "chip": "ym2612"
    },
    {
      "channel": 0,
      "note": 74,
      "start": 34.6939,
      "duration": 0.0676,
      "velocity": 72,
      "chip": "ym2612"
    },
    {
      "channel": 0,
      "note": 67,
      "start": 34.7752,
      "duration": 0.1488,
      "velocity": 72,
      "chip": "ym2612"
    },
    {
      "channel": 1,
      "note": 88,
      "start": 34.7756,
      "duration": 0.1486,
      "velocity": 103,
      "chip": "ym2612"
    },
    {
      "channel": 2,
      "note": 76,
      "start": 34.7761,
      "duration": 0.1484,
      "velocity": 73,
      "chip": "ym2612"
    },
    {
      "channel": 3,
      "note": 52,
      "start": 34.7766,
      "duration": 0.1481,
      "velocity": 92,
      "chip": "ym2612"
    },
    {
      "channel": 4,
      "note": 59,
      "start": 34.8304,
      "duration": 0.0679,
      "velocity": 72,
      "chip": "ym2612"
    },
    {
      "channel": 4,
      "note": 61,
      "start": 34.9116,
      "duration": 0.0676,
      "velocity": 72,
      "chip": "ym2612"
    },
    {
      "channel": 0,
      "note": 66,
      "start": 34.9377,
      "duration": 0.1489,
      "velocity": 72,
      "chip": "ym2612"
    },
    {
      "channel": 1,
      "note": 86,
      "start": 34.9382,
      "duration": 0.1487,
      "velocity": 103,
      "chip": "ym2612"
    },
    {
      "channel": 2,
      "note": 74,
      "start": 34.9386,
      "duration": 0.1485,
      "velocity": 73,
      "chip": "ym2612"
    },
    {
      "channel": 3,
      "note": 64,
      "start": 34.9392,
      "duration": 0.1482,
      "velocity": 92,
      "chip": "ym2612"
    },
    {
      "channel": 4,
      "note": 62,
      "start": 34.9929,
      "duration": 0.1487,
      "velocity": 72,
      "chip": "ym2612"
    },
    {
      "channel": 0,
      "note": 64,
      "start": 35.1002,
      "duration": 0.3114,
      "velocity": 72,
      "chip": "ym2612"
    },
    {
      "channel": 1,
      "note": 85,
      "start": 35.1006,
      "duration": 0.1487,
      "velocity": 103,
      "chip": "ym2612"
    },
    {
      "channel": 2,
      "note": 73,
      "start": 35.1011,
      "duration": 0.1485,
      "velocity": 73,
      "chip": "ym2612"
    },
    {
      "channel": 3,
      "note": 62,
      "start": 35.1017,
      "duration": 0.1481,
      "velocity": 92,
      "chip": "ym2612"
    },
    {
      "channel": 4,
      "note": 67,
      "start": 35.1553,
      "duration": 0.1488,
      "velocity": 72,
      "chip": "ym2612"
    },
    {
      "channel": 1,
      "note": 83,
      "start": 35.2629,
      "duration": 0.149,
      "velocity": 103,
      "chip": "ym2612"
    },
    {
      "channel": 2,
      "note": 71,
      "start": 35.2634,
      "duration": 0.1488,
      "velocity": 73,
      "chip": "ym2612"
    },
    {
      "channel": 3,
      "note": 61,
      "start": 35.2639,
      "duration": 0.1485,
      "velocity": 92,
      "chip": "ym2612"
    },
    {
      "channel": 4,
      "note": 66,
      "start": 35.3179,
      "duration": 0.3113,
      "velocity": 72,
      "chip": "ym2612"
    },
    {
      "channel": 0,
      "note": 61,
      "start": 35.4253,
      "duration": 0.3113,
      "velocity": 72,
      "chip": "ym2612"
    },
    {
      "channel": 1,
      "note": 81,
      "start": 35.4258,
      "duration": 0.1486,
      "velocity": 103,
      "chip": "ym2612"
    },
    {
      "channel": 2,
      "note": 69,
      "start": 35.4262,
      "duration": 0.1484,
      "velocity": 73,
      "chip": "ym2612"
    },
    {
      "channel": 3,
      "note": 59,
      "start": 35.4267,
      "duration": 0.1482,
      "velocity": 92,
      "chip": "ym2612"
    },
    {
      "channel": 1,
      "note": 79,
      "start": 35.5879,
      "duration": 0.149,
      "velocity": 103,
      "chip": "ym2612"
    },
    {
      "channel": 2,
      "note": 67,
      "start": 35.5883,
      "duration": 0.1488,
      "velocity": 73,
      "chip": "ym2612"
    },
    {
      "channel": 3,
      "note": 57,
      "start": 35.5889,
      "duration": 0.1485,
      "velocity": 92,
      "chip": "ym2612"
    },
    {
      "channel": 4,
      "note": 64,
      "start": 35.6429,
      "duration": 0.3112,
      "velocity": 72,
      "chip": "ym2612"
    },
    {
      "channel": 0,
      "note": 62,
      "start": 35.7502,
      "duration": 0.3114,
      "velocity": 72,
      "chip": "ym2612"
    },
    {
      "channel": 1,
      "note": 78,
      "start": 35.7507,
      "duration": 0.1486,
      "velocity": 103,
      "chip": "ym2612"
    },
    {
      "channel": 2,
      "note": 66,
      "start": 35.7511,
      "duration": 0.1483,
      "velocity": 73,
      "chip": "ym2612"
    },
    {
      "channel": 3,
      "note": 55,
      "start": 35.7517,
      "duration": 0.1481,
      "velocity": 92,
      "chip": "ym2612"
    },
    {
      "channel": 1,
      "note": 81,
      "start": 35.913,
      "duration": 0.1489,
      "velocity": 103,
      "chip": "ym2612"
    },
    {
      "channel": 2,
      "note": 69,
      "start": 35.9135,
      "duration": 0.1487,
      "velocity": 73,
      "chip": "ym2612"
    },
    {
      "channel": 3,
      "note": 54,
      "start": 35.9144,
      "duration": 0.1481,
      "velocity": 92,
      "chip": "ym2612"
    },
    {
      "channel": 4,
      "note": 61,
      "start": 35.9679,
      "duration": 0.3114,
      "velocity": 72,
      "chip": "ym2612"
    },
    {
      "channel": 0,
      "note": 61,
      "start": 36.0754,
      "duration": 0.3113,
      "velocity": 72,
      "chip": "ym2612"
    },
    {
      "channel": 1,
      "note": 82,
      "start": 36.0758,
      "duration": 0.1486,
      "velocity": 103,
      "chip": "ym2612"
    },
    {
      "channel": 2,
      "note": 70,
      "start": 36.0763,
      "duration": 0.1483,
      "velocity": 73,
      "chip": "ym2612"
    },
    {
      "channel": 3,
      "note": 57,
      "start": 36.0768,
      "duration": 0.1481,
      "velocity": 92,
      "chip": "ym2612"
    },
    {
      "channel": 1,
      "note": 78,
      "start": 36.238,
      "duration": 0.1489,
      "velocity": 103,
      "chip": "ym2612"
    },
    {
      "channel": 2,
      "note": 66,
      "start": 36.2385,
      "duration": 0.1487,
      "velocity": 73,
      "chip": "ym2612"
    },
    {
      "channel": 3,
      "note": 58,
      "start": 36.239,
      "duration": 0.1485,
      "velocity": 92,
      "chip": "ym2612"
    },
    {
      "channel": 4,
      "note": 62,
      "start": 36.293,
      "duration": 0.3113,
      "velocity": 72,
      "chip": "ym2612"
    },
    {
      "channel": 0,
      "note": 64,
      "start": 36.402,
      "duration": 0.1472,
      "velocity": 111,
      "chip": "ym2612"
    },
    {
      "channel": 1,
      "note": 83,
      "start": 36.4025,
      "duration": 0.147,
      "velocity": 103,
      "chip": "ym2612"
    },
    {
      "channel": 2,
      "note": 67,
      "start": 36.4029,
      "duration": 0.1468,
      "velocity": 73,
      "chip": "ym2612"
    },
    {
      "channel": 3,
      "note": 54,
      "start": 36.4034,
      "duration": 0.1466,
      "velocity": 92,
      "chip": "ym2612"
    },
    {
      "channel": 0,
      "note": 67,
      "start": 36.5629,
      "duration": 0.1487,
      "velocity": 111,
      "chip": "ym2612"
    },
    {
      "channel": 1,
      "note": 85,
      "start": 36.5634,
      "duration": 0.1485,
      "velocity": 103,
      "chip": "ym2612"
    },
    {
      "channel": 2,
      "note": 69,
      "start": 36.5639,
      "duration": 0.1483,
      "velocity": 73,
      "chip": "ym2612"
    },
    {
      "channel": 3,
      "note": 62,
      "start": 36.5648,
      "duration": 0.1476,
      "velocity": 92,
      "chip": "ym2612"
    },
    {
      "channel": 4,
      "note": 61,
      "start": 36.6219,
      "duration": 0.1449,
      "velocity": 85,
      "chip": "ym2612"
    },
    {
      "channel": 0,
      "note": 71,
      "start": 36.7254,
      "duration": 0.1487,
      "velocity": 111,
      "chip": "ym2612"
    },
    {
      "channel": 1,
      "note": 86,
      "start": 36.7259,
      "duration": 0.1485,
      "velocity": 103,
      "chip": "ym2612"
    },
    {
      "channel": 2,
      "note": 71,
      "start": 36.7263,
      "duration": 0.1483,
      "velocity": 73,
      "chip": "ym2612"
    },
    {
      "channel": 3,
      "note": 62,
      "start": 36.7269,
      "duration": 0.148,
      "velocity": 92,
      "chip": "ym2612"
    },
    {
      "channel": 4,
      "note": 83,
      "start": 36.7805,
      "duration": 0.1487,
      "velocity": 85,
      "chip": "ym2612"
    },
    {
      "channel": 0,
      "note": 76,
      "start": 36.8878,
      "duration": 0.1489,
      "velocity": 111,
      "chip": "ym2612"
    },
    {
      "channel": 1,
      "note": 88,
      "start": 36.8883,
      "duration": 0.1487,
      "velocity": 103,
      "chip": "ym2612"
    },
    {
      "channel": 2,
      "note": 73,
      "start": 36.8887,
      "duration": 0.1485,
      "velocity": 73,
      "chip": "ym2612"
    },
    {
      "channel": 3,
      "note": 62,
      "start": 36.8893,
      "duration": 0.1482,
      "velocity": 92,
      "chip": "ym2612"
    },
    {
      "channel": 4,
      "note": 85,
      "start": 36.943,
      "duration": 0.1489,
      "velocity": 85,
      "chip": "ym2612"
    },
    {
      "channel": 0,
      "note": 66,
      "start": 37.0505,
      "duration": 0.1487,
      "velocity": 111,
      "chip": "ym2612"
    },
    {
      "channel": 1,
      "note": 90,
      "start": 37.051,
      "duration": 0.3111,
      "velocity": 103,
      "chip": "ym2612"
    },
    {
      "channel": 2,
      "note": 74,
      "start": 37.0514,
      "duration": 0.311,
      "velocity": 73,
      "chip": "ym2612"
    },
    {
      "channel": 3,
      "note": 62,
      "start": 37.0519,
      "duration": 0.3107,
      "velocity": 92,
      "chip": "ym2612"
    },
    {
      "channel": 4,
      "note": 86,
      "start": 37.1056,
      "duration": 0.1488,
      "velocity": 85,
      "chip": "ym2612"
    },
    {
      "channel": 0,
      "note": 70,
      "start": 37.213,
      "duration": 0.1488,
      "velocity": 111,
      "chip": "ym2612"
    },
    {
      "channel": 4,
      "note": 88,
      "start": 37.2681,
      "duration": 0.3113,
      "velocity": 85,
      "chip": "ym2612"
    },
    {
      "channel": 0,
      "note": 73,
      "start": 37.3754,
      "duration": 0.1488,
      "velocity": 111,
      "chip": "ym2612"
    },
    {
      "channel": 1,
      "note": 90,
      "start": 37.3759,
      "duration": 0.3111,
      "velocity": 103,
      "chip": "ym2612"
    },
    {
      "channel": 2,
      "note": 73,
      "start": 37.3763,
      "duration": 0.311,
      "velocity": 73,
      "chip": "ym2612"
    },
    {
      "channel": 3,
      "note": 61,
      "start": 37.3768,
      "duration": 0.3107,
      "velocity": 92,
      "chip": "ym2612"
    },
    {
      "channel": 0,
      "note": 78,
      "start": 37.538,
      "duration": 0.1488,
      "velocity": 111,
      "chip": "ym2612"
    },
    {
      "channel": 4,
      "note": 90,
      "start": 37.5931,
      "duration": 0.3114,
      "velocity": 85,
      "chip": "ym2612"
    },
    {
      "channel": 0,
      "note": 74,
      "start": 37.7006,
      "duration": 0.1487,
      "velocity": 111,
      "chip": "ym2612"
    },
    {
      "channel": 1,
      "note": 74,
      "start": 37.701,
      "duration": 0.1485,
      "velocity": 103,
      "chip": "ym2612"
    },
    {
      "channel": 2,
      "note": 69,
      "start": 37.7015,
      "duration": 0.3108,
      "velocity": 73,
      "chip": "ym2612"
    },
    {
      "channel": 3,
      "note": 61,
      "start": 37.7043,
      "duration": 0.1457,
      "velocity": 87,
      "chip": "ym2612"
    },
    {
      "channel": 0,
      "note": 78,
      "start": 37.863,
      "duration": 0.1487,
      "velocity": 111,
      "chip": "ym2612"
    },
    {
      "channel": 1,
      "note": 76,
      "start": 37.8635,
      "duration": 0.1485,
      "velocity": 103,
      "chip": "ym2612"
    },
    {
      "channel": 3,
      "note": 69,
      "start": 37.8646,
      "duration": 0.148,
      "velocity": 87,
      "chip": "ym2612"
    },
    {
      "channel": 4,
      "note": 90,
      "start": 37.9208,
      "duration": 0.3087,
      "velocity": 101,
      "chip": "ym2612"
    },
    {
      "channel": 0,
      "note": 81,
      "start": 38.0255,
      "duration": 0.1488,
      "velocity": 111,
      "chip": "ym2612"
    },
    {
      "channel": 1,
      "note": 78,
      "start": 38.0259,
      "duration": 0.1487,
      "velocity": 103,
      "chip": "ym2612"
    },
    {
      "channel": 2,
      "note": 81,
      "start": 38.028,
      "duration": 0.4718,
      "velocity": 101,
      "chip": "ym2612"
    },
    {
      "channel": 3,
      "note": 73,
      "start": 38.0286,
      "duration": 0.1464,
      "velocity": 87,
      "chip": "ym2612"
    },
    {
      "channel": 0,
      "note": 86,
      "start": 38.188,
      "duration": 0.1488,
      "velocity": 111,
      "chip": "ym2612"
    },
    {
      "channel": 1,
      "note": 79,
      "start": 38.1885,
      "duration": 0.1486,
      "velocity": 103,
      "chip": "ym2612"
    },
    {
      "channel": 3,
      "note": 74,
      "start": 38.1893,
      "duration": 0.1483,
      "velocity": 87,
      "chip": "ym2612"
    },
    {
      "channel": 4,
      "note": 69,
      "start": 38.2431,
      "duration": 0.3113,
      "velocity": 101,
      "chip": "ym2612"
    },
    {
      "channel": 0,
      "note": 69,
      "start": 38.3505,
      "duration": 0.1489,
      "velocity": 111,
      "chip": "ym2612"
    },
    {
      "channel": 1,
      "note": 81,
      "start": 38.351,
      "duration": 0.1487,
      "velocity": 103,
      "chip": "ym2612"
    },
    {
      "channel": 3,
      "note": 76,
      "start": 38.3518,
      "duration": 0.1484,
      "velocity": 87,
      "chip": "ym2612"
    },
    {
      "channel": 0,
      "note": 73,
      "start": 38.513,
      "duration": 0.1489,
      "velocity": 111,
      "chip": "ym2612"
    },
    {
      "channel": 1,
      "note": 74,
      "start": 38.5134,
      "duration": 0.1487,
      "velocity": 103,
      "chip": "ym2612"
    },
    {
      "channel": 2,
      "note": 83,
      "start": 38.5145,
      "duration": 0.0669,
      "velocity": 101,
      "chip": "ym2612"
    },
    {
      "channel": 3,
      "note": 73,
      "start": 38.5151,
      "duration": 0.1475,
      "velocity": 87,
      "chip": "ym2612"
    },
    {
      "channel": 4,
      "note": 81,
      "start": 38.5682,
      "duration": 0.1487,
      "velocity": 101,
      "chip": "ym2612"
    },
    {
      "channel": 2,
      "note": 81,
      "start": 38.5948,
      "duration": 0.0675,
      "velocity": 101,
      "chip": "ym2612"
    },
    {
      "channel": 0,
      "note": 76,
      "start": 38.6756,
      "duration": 0.1487,
      "velocity": 111,
      "chip": "ym2612"
    },
    {
      "channel": 1,
      "note": 73,
      "start": 38.6761,
      "duration": 0.1485,
      "velocity": 103,
      "chip": "ym2612"
    },
    {
      "channel": 2,
      "note": 79,
      "start": 38.6765,
      "duration": 0.1483,
      "velocity": 101,
      "chip": "ym2612"
    },
    {
      "channel": 3,
      "note": 69,
      "start": 38.6771,
      "duration": 0.0667,
      "velocity": 87,
      "chip": "ym2612"
    },
    {
      "channel": 4,
      "note": 81,
      "start": 38.731,
      "duration": 0.0676,
      "velocity": 101,
      "chip": "ym2612"
    },
    {
      "channel": 3,
      "note": 76,
      "start": 38.7576,
      "duration": 0.0675,
      "velocity": 87,
      "chip": "ym2612"
    },
    {
      "channel": 4,
      "note": 83,
      "start": 38.812,
      "duration": 0.0676,
      "velocity": 101,
      "chip": "ym2612"
    },
    {
      "channel": 0,
      "note": 81,
      "start": 38.8381,
      "duration": 0.1489,
      "velocity": 111,
      "chip": "ym2612"
    },
    {
      "channel": 1,
      "note": 83,
      "start": 38.8385,
      "duration": 0.1487,
      "velocity": 103,
      "chip": "ym2612"
    },
    {
      "channel": 2,
      "note": 86,
      "start": 38.839,
      "duration": 0.311,
      "velocity": 101,
      "chip": "ym2612"
    },
    {
      "channel": 3,
      "note": 78,
      "start": 38.8395,
      "duration": 0.6357,
      "velocity": 87,
      "chip": "ym2612"
    },
    {
      "channel": 4,
      "note": 81,
      "start": 38.8932,
      "duration": 0.1487,
      "velocity": 101,
      "chip": "ym2612"
    },
    {
      "channel": 0,
      "note": 67,
      "start": 39.0006,
      "duration": 0.1488,
      "velocity": 111,
      "chip": "ym2612"
    },
    {
      "channel": 1,
      "note": 79,
      "start": 39.001,
      "duration": 0.1487,
      "velocity": 103,
      "chip": "ym2612"
    },
    {
      "channel": 4,
      "note": 79,
      "start": 39.0557,
      "duration": 0.3114,
      "velocity": 101,
      "chip": "ym2612"
    },
    {
      "channel": 0,
      "note": 71,
      "start": 39.1631,
      "duration": 0.1488,
      "velocity": 111,
      "chip": "ym2612"
    },
    {
      "channel": 1,
      "note": 78,
      "start": 39.1635,
      "duration": 0.1487,
      "velocity": 103,
      "chip": "ym2612"
    },
    {
      "channel": 2,
      "note": 81,
      "start": 39.1643,
      "duration": 0.1482,
      "velocity": 101,
      "chip": "ym2612"
    },
    {
      "channel": 0,
      "note": 74,
      "start": 39.3256,
      "duration": 0.1489,
      "velocity": 111,
      "chip": "ym2612"
    },
    {
      "channel": 1,
      "note": 76,
      "start": 39.3261,
      "duration": 0.1487,
      "velocity": 103,
      "chip": "ym2612"
    },
    {
      "channel": 2,
      "note": 79,
      "start": 39.3265,
      "duration": 0.1485,
      "velocity": 101,
      "chip": "ym2612"
    },
    {
      "channel": 4,
      "note": 86,
      "start": 39.3812,
      "duration": 0.1484,
      "velocity": 101,
      "chip": "ym2612"
    },
    {
      "channel": 0,
      "note": 79,
      "start": 39.4881,
      "duration": 0.1489,
      "velocity": 111,
      "chip": "ym2612"
    },
    {
      "channel": 1,
      "note": 74,
      "start": 39.4885,
      "duration": 0.1487,
      "velocity": 103,
      "chip": "ym2612"
    },
    {
      "channel": 2,
      "note": 78,
      "start": 39.489,
      "duration": 0.1485,
      "velocity": 101,
      "chip": "ym2612"
    },
    {
      "channel": 3,
      "note": 79,
      "start": 39.4896,
      "duration": 0.0668,
      "velocity": 87,
      "chip": "ym2612"
    },
    {
      "channel": 4,
      "note": 81,
      "start": 39.5433,
      "duration": 0.1488,
      "velocity": 101,
      "chip": "ym2612"
    },
    {
      "channel": 3,
      "note": 66,
      "start": 39.5701,
      "duration": 0.0677,
      "velocity": 87,
      "chip": "ym2612"
    },
    {
      "channel": 0,
      "note": 69,
      "start": 39.6506,
      "duration": 0.1488,
      "velocity": 111,
      "chip": "ym2612"
    },
    {
      "channel": 1,
      "note": 73,
      "start": 39.6511,
      "duration": 0.1486,
      "velocity": 103,
      "chip": "ym2612"
    },
    {
      "channel": 2,
      "note": 76,
      "start": 39.6515,
      "duration": 0.1484,
      "velocity": 101,
      "chip": "ym2612"
    },
    {
      "channel": 3,
      "note": 67,
      "start": 39.652,
      "duration": 0.1481,
      "velocity": 87,
      "chip": "ym2612"
    },
    {
      "channel": 4,
      "note": 79,
      "start": 39.7059,
      "duration": 0.1487,
      "velocity": 101,
      "chip": "ym2612"
    },
    {
      "channel": 0,
      "note": 73,
      "start": 39.8132,
      "duration": 0.1489,
      "velocity": 111,
      "chip": "ym2612"
    },
    {
      "channel": 1,
      "note": 69,
      "start": 39.8137,
      "duration": 0.1486,
      "velocity": 103,
      "chip": "ym2612"
    },
    {
      "channel": 2,
      "note": 78,
      "start": 39.8145,
      "duration": 0.0671,
      "velocity": 101,
      "chip": "ym2612"
    },
    {
      "channel": 3,
      "note": 69,
      "start": 39.8151,
      "duration": 0.1478,
      "velocity": 87,
      "chip": "ym2612"
    },
    {
      "channel": 4,
      "note": 78,
      "start": 39.8683,
      "duration": 0.1488,
      "velocity": 101,
      "chip": "ym2612"
    },
    {
      "channel": 2,
      "note": 79,
      "start": 39.8949,
      "duration": 0.0676,
      "velocity": 101,
      "chip": "ym2612"
    },
    {
      "channel": 0,
      "note": 76,
      "start": 39.9758,
      "duration": 0.1488,
      "velocity": 111,
      "chip": "ym2612"
    },
    {
      "channel": 1,
      "note": 81,
      "start": 39.9762,
      "duration": 0.1485,
      "velocity": 103,
      "chip": "ym2612"
    },
    {
      "channel": 2,
      "note": 85,
      "start": 39.9766,
      "duration": 0.3108,
      "velocity": 101,
      "chip": "ym2612"
    },
    {
      "channel": 3,
      "note": 67,
      "start": 39.9772,
      "duration": 0.1481,
      "velocity": 87,
      "chip": "ym2612"
    },
    {
      "channel": 4,
      "note": 76,
      "start": 40.0312,
      "duration": 0.0676,
      "velocity": 101,
      "chip": "ym2612"
    },
    {
      "channel": 4,
      "note": 78,
      "start": 40.1122,
      "duration": 0.0675,
      "velocity": 101,
      "chip": "ym2612"
    },
    {
      "channel": 0,
      "note": 81,
      "start": 40.1382,
      "duration": 0.1488,
      "velocity": 111,
      "chip": "ym2612"
    },
    {
      "channel": 1,
      "note": 79,
      "start": 40.1386,
      "duration": 0.1487,
      "velocity": 103,
      "chip": "ym2612"
    },
    {
      "channel": 3,
      "note": 69,
      "start": 40.1394,
      "duration": 0.1484,
      "velocity": 87,
      "chip": "ym2612"
    },
    {
      "channel": 4,
      "note": 79,
      "start": 40.1934,
      "duration": 0.3113,
      "velocity": 101,
      "chip": "ym2612"
    },
    {
      "channel": 0,
      "note": 71,
      "start": 40.3007,
      "duration": 0.1487,
      "velocity": 111,
      "chip": "ym2612"
    },
    {
      "channel": 1,
      "note": 78,
      "start": 40.3012,
      "duration": 0.1485,
      "velocity": 103,
      "chip": "ym2612"
    },
    {
      "channel": 2,
      "note": 86,
      "start": 40.3017,
      "duration": 0.1483,
      "velocity": 101,
      "chip": "ym2612"
    },
    {
      "channel": 3,
      "note": 76,
      "start": 40.3022,
      "duration": 0.148,
      "velocity": 87,
      "chip": "ym2612"
    },
    {
      "channel": 0,
      "note": 74,
      "start": 40.4632,
      "duration": 0.1488,
      "velocity": 111,
      "chip": "ym2612"
    },
    {
      "channel": 1,
      "note": 76,
      "start": 40.4637,
      "duration": 0.1486,
      "velocity": 103,
      "chip": "ym2612"
    },
    {
      "channel": 2,
      "note": 79,
      "start": 40.4644,
      "duration": 0.1481,
      "velocity": 101,
      "chip": "ym2612"
    },
    {
      "channel": 3,
      "note": 71,
      "start": 40.4651,
      "duration": 0.3102,
      "velocity": 87,
      "chip": "ym2612"
    },
    {
      "channel": 4,
      "note": 85,
      "start": 40.5184,
      "duration": 0.1487,
      "velocity": 101,
      "chip": "ym2612"
    },
    {
      "channel": 0,
      "note": 78,
      "start": 40.6258,
      "duration": 0.1488,
      "velocity": 111,
      "chip": "ym2612"
    },
    {
      "channel": 1,
      "note": 74,
      "start": 40.6262,
      "duration": 0.1486,
      "velocity": 103,
      "chip": "ym2612"
    },
    {
      "channel": 2,
      "note": 78,
      "start": 40.6266,
      "duration": 0.1484,
      "velocity": 101,
      "chip": "ym2612"
    },
    {
      "channel": 4,
      "note": 86,
      "start": 40.6812,
      "duration": 0.1484,
      "velocity": 101,
      "chip": "ym2612"
    },
    {
      "channel": 0,
      "note": 83,
      "start": 40.7883,
      "duration": 0.1488,
      "velocity": 111,
      "chip": "ym2612"
    },
    {
      "channel": 1,
      "note": 73,
      "start": 40.7887,
      "duration": 0.1487,
      "velocity": 103,
      "chip": "ym2612"
    },
    {
      "channel": 2,
      "note": 76,
      "start": 40.7892,
      "duration": 0.1485,
      "velocity": 101,
      "chip": "ym2612"
    },
    {
      "channel": 3,
      "note": 71,
      "start": 40.7898,
      "duration": 0.1482,
      "velocity": 87,
      "chip": "ym2612"
    },
    {
      "channel": 4,
      "note": 79,
      "start": 40.8434,
      "duration": 0.1488,
      "velocity": 101,
      "chip": "ym2612"
    },
    {
      "channel": 0,
      "note": 67,
      "start": 40.9507,
      "duration": 0.1488,
      "velocity": 111,
      "chip": "ym2612"
    },
    {
      "channel": 1,
      "note": 71,
      "start": 40.9512,
      "duration": 0.1486,
      "velocity": 103,
      "chip": "ym2612"
    },
    {
      "channel": 2,
      "note": 74,
      "start": 40.9517,
      "duration": 0.1484,
      "velocity": 101,
      "chip": "ym2612"
    },
    {
      "channel": 3,
      "note": 81,
      "start": 40.9522,
      "duration": 0.3107,
      "velocity": 87,
      "chip": "ym2612"
    },
    {
      "channel": 4,
      "note": 78,
      "start": 41.0059,
      "duration": 0.1489,
      "velocity": 101,
      "chip": "ym2612"
    },
    {
      "channel": 0,
      "note": 71,
      "start": 41.1133,
      "duration": 0.1488,
      "velocity": 111,
      "chip": "ym2612"
    },
    {
      "channel": 1,
      "note": 67,
      "start": 41.1137,
      "duration": 0.1486,
      "velocity": 103,
      "chip": "ym2612"
    },
    {
      "channel": 2,
      "note": 76,
      "start": 41.1146,
      "duration": 0.0671,
      "velocity": 101,
      "chip": "ym2612"
    },
    {
      "channel": 4,
      "note": 76,
      "start": 41.1685,
      "duration": 0.1487,
      "velocity": 101,
      "chip": "ym2612"
    },
    {
      "channel": 2,
      "note": 78,
      "start": 41.195,
      "duration": 0.0676,
      "velocity": 101,
      "chip": "ym2612"
    },
    {
      "channel": 0,
      "note": 74,
      "start": 41.2758,
      "duration": 0.1489,
      "velocity": 111,
      "chip": "ym2612"
    },
    {
      "channel": 1,
      "note": 79,
      "start": 41.2763,
      "duration": 0.1487,
      "velocity": 103,
      "chip": "ym2612"
    },
    {
      "channel": 2,
      "note": 83,
      "start": 41.2767,
      "duration": 0.1485,
      "velocity": 101,
      "chip": "ym2612"
    },
    {
      "channel": 3,
      "note": 79,
      "start": 41.2772,
      "duration": 0.1483,
      "velocity": 87,
      "chip": "ym2612"
    },
    {
      "channel": 4,
      "note": 74,
      "start": 41.3313,
      "duration": 0.0676,
      "velocity": 101,
      "chip": "ym2612"
    },
    {
      "channel": 4,
      "note": 76,
      "start": 41.4122,
      "duration": 0.0676,
      "velocity": 101,
      "chip": "ym2612"
    },
    {
      "channel": 0,
      "note": 79,
      "start": 41.4383,
      "duration": 0.1489,
      "velocity": 111,
      "chip": "ym2612"
    },
    {
      "channel": 1,
      "note": 78,
      "start": 41.4387,
      "duration": 0.1487,
      "velocity": 103,
      "chip": "ym2612"
    },
    {
      "channel": 2,
      "note": 81,
      "start": 41.4392,
      "duration": 0.1485,
      "velocity": 101,
      "chip": "ym2612"
    },
    {
      "channel": 3,
      "note": 74,
      "start": 41.4398,
      "duration": 0.1482,
      "velocity": 87,
      "chip": "ym2612"
    },
    {
      "channel": 4,
      "note": 78,
      "start": 41.4935,
      "duration": 0.1488,
      "velocity": 101,
      "chip": "ym2612"
    },
    {
      "channel": 0,
      "note": 73,
      "start": 41.6008,
      "duration": 0.1489,
      "velocity": 111,
      "chip": "ym2612"
    },
    {
      "channel": 1,
      "note": 76,
      "start": 41.6013,
      "duration": 0.1487,
      "velocity": 103,
      "chip": "ym2612"
    },
    {
      "channel": 2,
      "note": 79,
      "start": 41.6017,
      "duration": 0.3109,
      "velocity": 101,
      "chip": "ym2612"
    },
    {
      "channel": 3,
      "note": 73,
      "start": 41.6022,
      "duration": 0.3107,
      "velocity": 87,
      "chip": "ym2612"
    },
    {
      "channel": 4,
      "note": 83,
      "start": 41.6559,
      "duration": 0.1489,
      "velocity": 101,
      "chip": "ym2612"
    },
    {
      "channel": 0,
      "note": 76,
      "start": 41.7634,
      "duration": 0.1488,
      "velocity": 111,
      "chip": "ym2612"
    },
    {
      "channel": 1,
      "note": 74,
      "start": 41.7638,
      "duration": 0.1486,
      "velocity": 103,
      "chip": "ym2612"
    },
    {
      "channel": 4,
      "note": 81,
      "start": 41.8186,
      "duration": 0.3112,
      "velocity": 101,
      "chip": "ym2612"
    },
    {
      "channel": 0,
      "note": 79,
      "start": 41.9259,
      "duration": 0.1488,
      "velocity": 111,
      "chip": "ym2612"
    },
    {
      "channel": 1,
      "note": 73,
      "start": 41.9263,
      "duration": 0.1486,
      "velocity": 103,
      "chip": "ym2612"
    },
    {
      "channel": 2,
      "note": 76,
      "start": 41.9268,
      "duration": 0.3109,
      "velocity": 101,
      "chip": "ym2612"
    },
    {
      "channel": 3,
      "note": 74,
      "start": 41.9273,
      "duration": 0.3107,
      "velocity": 87,
      "chip": "ym2612"
    },
    {
      "channel": 0,
      "note": 85,
      "start": 42.0885,
      "duration": 0.1487,
      "velocity": 111,
      "chip": "ym2612"
    },
    {
      "channel": 1,
      "note": 71,
      "start": 42.0889,
      "duration": 0.1485,
      "velocity": 103,
      "chip": "ym2612"
    },
    {
      "channel": 4,
      "note": 79,
      "start": 42.1435,
      "duration": 0.3114,
      "velocity": 101,
      "chip": "ym2612"
    },
    {
      "channel": 0,
      "note": 78,
      "start": 42.251,
      "duration": 0.1487,
      "velocity": 111,
      "chip": "ym2612"
    },
    {
      "channel": 1,
      "note": 70,
      "start": 42.2514,
      "duration": 0.1485,
      "velocity": 103,
      "chip": "ym2612"
    },
    {
      "channel": 2,
      "note": 78,
      "start": 42.2518,
      "duration": 0.3108,
      "velocity": 101,
      "chip": "ym2612"
    },
    {
      "channel": 3,
      "note": 74,
      "start": 42.2524,
      "duration": 0.3106,
      "velocity": 87,
      "chip": "ym2612"
    },
    {
      "channel": 0,
      "note": 82,
      "start": 42.4134,
      "duration": 0.1488,
      "velocity": 111,
      "chip": "ym2612"
    },
    {
      "channel": 1,
      "note": 66,
      "start": 42.4139,
      "duration": 0.1486,
      "velocity": 103,
      "chip": "ym2612"
    },
    {
      "channel": 4,
      "note": 76,
      "start": 42.4685,
      "duration": 0.3114,
      "velocity": 101,
      "chip": "ym2612"
    },
    {
      "channel": 0,
      "note": 73,
      "start": 42.5759,
      "duration": 0.1489,
      "velocity": 111,
      "chip": "ym2612"
    },
    {
      "channel": 1,
      "note": 74,
      "start": 42.5764,
      "duration": 0.1487,
      "velocity": 103,
      "chip": "ym2612"
    },
    {
      "channel": 2,
      "note": 78,
      "start": 42.5768,
      "duration": 0.3109,
      "velocity": 101,
      "chip": "ym2612"
    },
    {
      "channel": 3,
      "note": 73,
      "start": 42.5774,
      "duration": 0.3107,
      "velocity": 87,
      "chip": "ym2612"
    },
    {
      "channel": 0,
      "note": 66,
      "start": 42.7385,
      "duration": 0.1488,
      "velocity": 111,
      "chip": "ym2612"
    },
    {
      "channel": 1,
      "note": 73,
      "start": 42.7389,
      "duration": 0.1487,
      "velocity": 103,
      "chip": "ym2612"
    },
    {
      "channel": 4,
      "note": 78,
      "start": 42.7936,
      "duration": 0.3113,
      "velocity": 101,
      "chip": "ym2612"
    },
    {
      "channel": 0,
      "note": 64,
      "start": 42.901,
      "duration": 0.3114,
      "velocity": 111,
      "chip": "ym2612"
    },
    {
      "channel": 1,
      "note": 71,
      "start": 42.9014,
      "duration": 0.1486,
      "velocity": 103,
      "chip": "ym2612"
    },
    {
      "channel": 2,
      "note": 74,
      "start": 42.9018,
      "duration": 0.1484,
      "velocity": 101,
      "chip": "ym2612"
    },
    {
      "channel": 3,
      "note": 78,
      "start": 42.9024,
      "duration": 0.3107,
      "velocity": 87,
      "chip": "ym2612"
    },
    {
      "channel": 1,
      "note": 79,
      "start": 43.0637,
      "duration": 0.1488,
      "velocity": 103,
      "chip": "ym2612"
    },
    {
      "channel": 2,
      "note": 76,
      "start": 43.0663,
      "duration": 0.1465,
      "velocity": 103,
      "chip": "ym2612"
    },
    {
      "channel": 4,
      "note": 78,
      "start": 43.1209,
      "duration": 0.1466,
      "velocity": 85,
      "chip": "ym2612"
    },
    {
      "channel": 1,
      "note": 81,
      "start": 43.2264,
      "duration": 0.1487,
      "velocity": 103,
      "chip": "ym2612"
    },
    {
      "channel": 2,
      "note": 78,
      "start": 43.2268,
      "duration": 0.1485,
      "velocity": 103,
      "chip": "ym2612"
    },
    {
      "channel": 4,
      "note": 71,
      "start": 43.2815,
      "duration": 0.1484,
      "velocity": 85,
      "chip": "ym2612"
    },
    {
      "channel": 1,
      "note": 78,
      "start": 43.3887,
      "duration": 0.1489,
      "velocity": 103,
      "chip": "ym2612"
    },
    {
      "channel": 2,
      "note": 74,
      "start": 43.3891,
      "duration": 0.1487,
      "velocity": 103,
      "chip": "ym2612"
    },
    {
      "channel": 4,
      "note": 79,
      "start": 43.4436,
      "duration": 0.1489,
      "velocity": 85,
      "chip": "ym2612"
    },
    {
      "channel": 1,
      "note": 79,
      "start": 43.5512,
      "duration": 0.1489,
      "velocity": 103,
      "chip": "ym2612"
    },
    {
      "channel": 2,
      "note": 76,
      "start": 43.5517,
      "duration": 0.1487,
      "velocity": 103,
      "chip": "ym2612"
    },
    {
      "channel": 4,
      "note": 81,
      "start": 43.6062,
      "duration": 0.1488,
      "velocity": 85,
      "chip": "ym2612"
    },
    {
      "channel": 1,
      "note": 76,
      "start": 43.7137,
      "duration": 0.1488,
      "velocity": 103,
      "chip": "ym2612"
    },
    {
      "channel": 2,
      "note": 73,
      "start": 43.7145,
      "duration": 0.1483,
      "velocity": 103,
      "chip": "ym2612"
    },
    {
      "channel": 4,
      "note": 78,
      "start": 43.7688,
      "duration": 0.1487,
      "velocity": 85,
      "chip": "ym2612"
    },
    {
      "channel": 1,
      "note": 78,
      "start": 43.8763,
      "duration": 0.1489,
      "velocity": 103,
      "chip": "ym2612"
    },
    {
      "channel": 2,
      "note": 74,
      "start": 43.8767,
      "duration": 0.1487,
      "velocity": 103,
      "chip": "ym2612"
    },
    {
      "channel": 4,
      "note": 79,
      "start": 43.9317,
      "duration": 0.1484,
      "velocity": 85,
      "chip": "ym2612"
    },
    {
      "channel": 1,
      "note": 74,
      "start": 44.0388,
      "duration": 0.1489,
      "velocity": 103,
      "chip": "ym2612"
    },
    {
      "channel": 2,
      "note": 71,
      "start": 44.0393,
      "duration": 0.1487,
      "velocity": 103,
      "chip": "ym2612"
    },
    {
      "channel": 4,
      "note": 76,
      "start": 44.0938,
      "duration": 0.1486,
      "velocity": 85,
      "chip": "ym2612"
    },
    {
      "channel": 0,
      "note": 66,
      "start": 44.2011,
      "duration": 0.3113,
      "velocity": 111,
      "chip": "ym2612"
    },
    {
      "channel": 1,
      "note": 76,
      "start": 44.2015,
      "duration": 0.1486,
      "velocity": 103,
      "chip": "ym2612"
    },
    {
      "channel": 2,
      "note": 73,
      "start": 44.202,
      "duration": 0.1483,
      "velocity": 103,
      "chip": "ym2612"
    },
    {
      "channel": 3,
      "note": 74,
      "start": 44.2025,
      "duration": 0.3107,
      "velocity": 87,
      "chip": "ym2612"
    },
    {
      "channel": 4,
      "note": 78,
      "start": 44.2562,
      "duration": 0.1488,
      "velocity": 85,
      "chip": "ym2612"
    },
    {
      "channel": 1,
      "note": 73,
      "start": 44.3638,
      "duration": 0.1489,
      "velocity": 103,
      "chip": "ym2612"
    },
    {
      "channel": 2,
      "note": 70,
      "start": 44.3646,
      "duration": 0.1483,
      "velocity": 103,
      "chip": "ym2612"
    },
    {
      "channel": 4,
      "note": 74,
      "start": 44.4188,
      "duration": 0.1487,
      "velocity": 85,
      "chip": "ym2612"
    },
    {
      "channel": 1,
      "note": 74,
      "start": 44.5265,
      "duration": 0.1486,
      "velocity": 103,
      "chip": "ym2612"
    },
    {
      "channel": 2,
      "note": 71,
      "start": 44.527,
      "duration": 0.1484,
      "velocity": 103,
      "chip": "ym2612"
    },
    {
      "channel": 4,
      "note": 76,
      "start": 44.5817,
      "duration": 0.1483,
      "velocity": 85,
      "chip": "ym2612"
    },
    {
      "channel": 1,
      "note": 71,
      "start": 44.6889,
      "duration": 0.1488,
      "velocity": 103,
      "chip": "ym2612"
    },
    {
      "channel": 2,
      "note": 67,
      "start": 44.6893,
      "duration": 0.1487,
      "velocity": 103,
      "chip": "ym2612"
    },
    {
      "channel": 4,
      "note": 73,
      "start": 44.7438,
      "duration": 0.1488,
      "velocity": 85,
      "chip": "ym2612"
    },
    {
      "channel": 1,
      "note": 73,
      "start": 44.8514,
      "duration": 0.1489,
      "velocity": 103,
      "chip": "ym2612"
    },
    {
      "channel": 2,
      "note": 69,
      "start": 44.8518,
      "duration": 0.1487,
      "velocity": 103,
      "chip": "ym2612"
    },
    {
      "channel": 4,
      "note": 74,
      "start": 44.9064,
      "duration": 0.1489,
      "velocity": 85,
      "chip": "ym2612"
    },
    {
      "channel": 1,
      "note": 66,
      "start": 45.0139,
      "duration": 0.1488,
      "velocity": 103,
      "chip": "ym2612"
    },
    {
      "channel": 2,
      "note": 66,
      "start": 45.0148,
      "duration": 0.1482,
      "velocity": 103,
      "chip": "ym2612"
    },
    {
      "channel": 4,
      "note": 71,
      "start": 45.0689,
      "duration": 0.1488,
      "velocity": 85,
      "chip": "ym2612"
    },
    {
      "channel": 1,
      "note": 71,
      "start": 45.1764,
      "duration": 0.1489,
      "velocity": 103,
      "chip": "ym2612"
    },
    {
      "channel": 2,
      "note": 64,
      "start": 45.1768,
      "duration": 0.1487,
      "velocity": 103,
      "chip": "ym2612"
    },
    {
      "channel": 4,
      "note": 73,
      "start": 45.2318,
      "duration": 0.1483,
      "velocity": 85,
      "chip": "ym2612"
    },
    {
      "channel": 1,
      "note": 70,
      "start": 45.3389,
      "duration": 0.1489,
      "velocity": 103,
      "chip": "ym2612"
    },
    {
      "channel": 2,
      "note": 66,
      "start": 45.3394,
      "duration": 0.1487,
      "velocity": 103,
      "chip": "ym2612"
    },
    {
      "channel": 4,
      "note": 66,
      "start": 45.3939,
      "duration": 0.1487,
      "velocity": 85,
      "chip": "ym2612"
    },
    {
      "channel": 0,
      "note": 59,
      "start": 45.5012,
      "duration": 0.0676,
      "velocity": 111,
      "chip": "ym2612"
    },
    {
      "channel": 1,
      "note": 71,
      "start": 45.5017,
      "duration": 0.0674,
      "velocity": 103,
      "chip": "ym2612"
    },
    {
      "channel": 2,
      "note": 63,
      "start": 45.5021,
      "duration": 0.0673,
      "velocity": 103,
      "chip": "ym2612"
    },
    {
      "channel": 4,
      "note": 71,
      "start": 45.5564,
      "duration": 0.1488,
      "velocity": 85,
      "chip": "ym2612"
    },
    {
      "channel": 0,
      "note": 75,
      "start": 45.5824,
      "duration": 0.0676,
      "velocity": 111,
      "chip": "ym2612"
    },
    {
      "channel": 1,
      "note": 70,
      "start": 45.5829,
      "duration": 0.0674,
      "velocity": 103,
      "chip": "ym2612"
    },
    {
      "channel": 2,
      "note": 62,
      "start": 45.5833,
      "duration": 0.0672,
      "velocity": 103,
      "chip": "ym2612"
    },
    {
      "channel": 0,
      "note": 71,
      "start": 45.6637,
      "duration": 0.0675,
      "velocity": 111,
      "chip": "ym2612"
    },
    {
      "channel": 1,
      "note": 71,
      "start": 45.6645,
      "duration": 1.1234,
      "velocity": 103,
      "chip": "ym2612"
    },
    {
      "channel": 2,
      "note": 63,
      "start": 45.665,
      "duration": 1.1232,
      "velocity": 103,
      "chip": "ym2612"
    },
    {
      "channel": 4,
      "note": 70,
      "start": 45.719,
      "duration": 0.0675,
      "velocity": 85,
      "chip": "ym2612"
    },
    {
      "channel": 0,
      "note": 66,
      "start": 45.745,
      "duration": 0.0676,
      "velocity": 111,
      "chip": "ym2612"
    },
    {
      "channel": 4,
      "note": 71,
      "start": 45.8001,
      "duration": 0.0675,
      "velocity": 85,
      "chip": "ym2612"
    },
    {
      "channel": 0,
      "note": 63,
      "start": 45.8263,
      "duration": 0.0676,
      "velocity": 111,
      "chip": "ym2612"
    },
    {
      "channel": 3,
      "note": 73,
      "start": 45.8297,
      "duration": 0.9588,
      "velocity": 101,
      "chip": "ym2612"
    },
    {
      "channel": 4,
      "note": 70,
      "start": 45.8818,
      "duration": 0.1485,
      "velocity": 85,
      "chip": "ym2612"
    },
    {
      "channel": 0,
      "note": 71,
      "start": 45.9076,
      "duration": 0.0676,
      "velocity": 111,
      "chip": "ym2612"
    },
    {
      "channel": 0,
      "note": 66,
      "start": 45.9887,
      "duration": 0.0676,
      "velocity": 111,
      "chip": "ym2612"
    },
    {
      "channel": 4,
      "note": 71,
      "start": 46.0461,
      "duration": 0.9592,
      "velocity": 101,
      "chip": "ym2612"
    },
    {
      "channel": 0,
      "note": 63,
      "start": 46.07,
      "duration": 0.0676,
      "velocity": 111,
      "chip": "ym2612"
    },
    {
      "channel": 0,
      "note": 59,
      "start": 46.1513,
      "duration": 0.0677,
      "velocity": 111,
      "chip": "ym2612"
    },
    {
      "channel": 0,
      "note": 66,
      "start": 46.2326,
      "duration": 0.0676,
      "velocity": 111,
      "chip": "ym2612"
    },
    {
      "channel": 0,
      "note": 63,
      "start": 46.3139,
      "duration": 0.0675,
      "velocity": 111,
      "chip": "ym2612"
    },
    {
      "channel": 0,
      "note": 59,
      "start": 46.395,
      "duration": 0.0676,
      "velocity": 111,
      "chip": "ym2612"
    },
    {
      "channel": 0,
      "note": 54,
      "start": 46.4763,
      "duration": 0.0676,
      "velocity": 111,
      "chip": "ym2612"
    },
    {
      "channel": 0,
      "note": 59,
      "start": 46.5576,
      "duration": 0.0676,
      "velocity": 111,
      "chip": "ym2612"
    },
    {
      "channel": 0,
      "note": 54,
      "start": 46.6389,
      "duration": 0.0675,
      "velocity": 111,
      "chip": "ym2612"
    },
    {
      "channel": 0,
      "note": 51,
      "start": 46.7201,
      "duration": 0.0676,
      "velocity": 111,
      "chip": "ym2612"
    },
    {
      "channel": 0,
      "note": 59,
      "start": 46.8013,
      "duration": 0.0946,
      "velocity": 111,
      "chip": "ym2612"
    },
    {
      "channel": 0,
      "note": 63,
      "start": 46.9097,
      "duration": 0.0946,
      "velocity": 111,
      "chip": "ym2612"
    },
    {
      "channel": 0,
      "note": 66,
      "start": 47.018,
      "duration": 0.0946,
      "velocity": 111,
      "chip": "ym2612"
    },
    {
      "channel": 0,
      "note": 71,
      "start": 47.1265,
      "duration": 0.0945,
      "velocity": 111,
      "chip": "ym2612"
    },
    {
      "channel": 0,
      "note": 66,
      "start": 47.2348,
      "duration": 0.0945,
      "velocity": 111,
      "chip": "ym2612"
    },
    {
      "channel": 0,
      "note": 63,
      "start": 47.343,
      "duration": 0.0948,
      "velocity": 111,
      "chip": "ym2612"
    },
    {
      "channel": 0,
      "note": 59,
      "start": 47.4513,
      "duration": 0.0947,
      "velocity": 111,
      "chip": "ym2612"
    },
    {
      "channel": 0,
      "note": 62,
      "start": 47.5597,
      "duration": 0.0947,
      "velocity": 111,
      "chip": "ym2612"
    },
    {
      "channel": 0,
      "note": 66,
      "start": 47.668,
      "duration": 0.0947,
      "velocity": 111,
      "chip": "ym2612"
    },
    {
      "channel": 0,
      "note": 71,
      "start": 47.7765,
      "duration": 0.0945,
      "velocity": 111,
      "chip": "ym2612"
    },
    {
      "channel": 0,
      "note": 66,
      "start": 47.8848,
      "duration": 0.0947,
      "velocity": 111,
      "chip": "ym2612"
    },
    {
      "channel": 0,
      "note": 62,
      "start": 47.9931,
      "duration": 0.0947,
      "velocity": 111,
      "chip": "ym2612"
    },
    {
      "channel": 0,
      "note": 59,
      "start": 48.1015,
      "duration": 0.0946,
      "velocity": 111,
      "chip": "ym2612"
    },
    {
      "channel": 1,
      "note": 71,
      "start": 48.1041,
      "duration": 0.1464,
      "velocity": 103,
      "chip": "ym2612"
    },
    {
      "channel": 0,
      "note": 62,
      "start": 48.2098,
      "duration": 0.0946,
      "velocity": 111,
      "chip": "ym2612"
    },
    {
      "channel": 1,
      "note": 73,
      "start": 48.2646,
      "duration": 0.1484,
      "velocity": 103,
      "chip": "ym2612"
    },
    {
      "channel": 0,
      "note": 66,
      "start": 48.3182,
      "duration": 0.0946,
      "velocity": 111,
      "chip": "ym2612"
    },
    {
      "channel": 4,
      "note": 83,
      "start": 48.3223,
      "duration": 0.1457,
      "velocity": 79,
      "chip": "ym2612"
    },
    {
      "channel": 0,
      "note": 71,
      "start": 48.4265,
      "duration": 0.0946,
      "velocity": 111,
      "chip": "ym2612"
    },
    {
      "channel": 1,
      "note": 74,
      "start": 48.427,
      "duration": 0.1486,
      "velocity": 103,
      "chip": "ym2612"
    },
    {
      "channel": 4,
      "note": 71,
      "start": 48.4821,
      "duration": 0.1485,
      "velocity": 79,
      "chip": "ym2612"
    },
    {
      "channel": 0,
      "note": 66,
      "start": 48.5348,
      "duration": 0.0947,
      "velocity": 111,
      "chip": "ym2612"
    },
    {
      "channel": 1,
      "note": 76,
      "start": 48.5892,
      "duration": 0.149,
      "velocity": 103,
      "chip": "ym2612"
    },
    {
      "channel": 0,
      "note": 62,
      "start": 48.6432,
      "duration": 0.0947,
      "velocity": 111,
      "chip": "ym2612"
    },
    {
      "channel": 4,
      "note": 73,
      "start": 48.6445,
      "duration": 0.1485,
      "velocity": 79,
      "chip": "ym2612"
    },
    {
      "channel": 0,
      "note": 58,
      "start": 48.7515,
      "duration": 0.0947,
      "velocity": 111,
      "chip": "ym2612"
    },
    {
      "channel": 1,
      "note": 78,
      "start": 48.7519,
      "duration": 0.1487,
      "velocity": 103,
      "chip": "ym2612"
    },
    {
      "channel": 4,
      "note": 74,
      "start": 48.8067,
      "duration": 0.1489,
      "velocity": 79,
      "chip": "ym2612"
    },
    {
      "channel": 0,
      "note": 61,
      "start": 48.8599,
      "duration": 0.0947,
      "velocity": 111,
      "chip": "ym2612"
    },
    {
      "channel": 1,
      "note": 71,
      "start": 48.9146,
      "duration": 0.1485,
      "velocity": 103,
      "chip": "ym2612"
    },
    {
      "channel": 0,
      "note": 66,
      "start": 48.9682,
      "duration": 0.0946,
      "velocity": 111,
      "chip": "ym2612"
    },
    {
      "channel": 4,
      "note": 76,
      "start": 48.9695,
      "duration": 0.1485,
      "velocity": 79,
      "chip": "ym2612"
    },
    {
      "channel": 0,
      "note": 70,
      "start": 49.0766,
      "duration": 0.0946,
      "velocity": 111,
      "chip": "ym2612"
    },
    {
      "channel": 1,
      "note": 70,
      "start": 49.0771,
      "duration": 0.1485,
      "velocity": 103,
      "chip": "ym2612"
    },
    {
      "channel": 4,
      "note": 78,
      "start": 49.1322,
      "duration": 0.1483,
      "velocity": 79,
      "chip": "ym2612"
    },
    {
      "channel": 0,
      "note": 66,
      "start": 49.1849,
      "duration": 0.0946,
      "velocity": 111,
      "chip": "ym2612"
    },
    {
      "channel": 1,
      "note": 79,
      "start": 49.2394,
      "duration": 0.1488,
      "velocity": 103,
      "chip": "ym2612"
    },
    {
      "channel": 0,
      "note": 61,
      "start": 49.2933,
      "duration": 0.0946,
      "velocity": 111,
      "chip": "ym2612"
    },
    {
      "channel": 4,
      "note": 71,
      "start": 49.2946,
      "duration": 0.1483,
      "velocity": 79,
      "chip": "ym2612"
    },
    {
      "channel": 0,
      "note": 55,
      "start": 49.4016,
      "duration": 0.0946,
      "velocity": 111,
      "chip": "ym2612"
    },
    {
      "channel": 1,
      "note": 76,
      "start": 49.402,
      "duration": 0.1487,
      "velocity": 103,
      "chip": "ym2612"
    },
    {
      "channel": 4,
      "note": 70,
      "start": 49.4567,
      "duration": 0.1488,
      "velocity": 79,
      "chip": "ym2612"
    },
    {
      "channel": 0,
      "note": 59,
      "start": 49.5099,
      "duration": 0.0947,
      "velocity": 111,
      "chip": "ym2612"
    },
    {
      "channel": 1,
      "note": 74,
      "start": 49.5647,
      "duration": 0.1485,
      "velocity": 103,
      "chip": "ym2612"
    },
    {
      "channel": 0,
      "note": 64,
      "start": 49.6183,
      "duration": 0.0946,
      "velocity": 111,
      "chip": "ym2612"
    },
    {
      "channel": 4,
      "note": 79,
      "start": 49.6195,
      "duration": 0.1485,
      "velocity": 79,
      "chip": "ym2612"
    },
    {
      "channel": 0,
      "note": 67,
      "start": 49.7266,
      "duration": 0.0947,
      "velocity": 111,
      "chip": "ym2612"
    },
    {
      "channel": 1,
      "note": 73,
      "start": 49.727,
      "duration": 0.1486,
      "velocity": 103,
      "chip": "ym2612"
    },
    {
      "channel": 4,
      "note": 76,
      "start": 49.7822,
      "duration": 0.1489,
      "velocity": 79,
      "chip": "ym2612"
    },
    {
      "channel": 0,
      "note": 64,
      "start": 49.835,
      "duration": 0.0945,
      "velocity": 111,
      "chip": "ym2612"
    },
    {
      "channel": 1,
      "note": 71,
      "start": 49.8894,
      "duration": 0.1488,
      "velocity": 103,
      "chip": "ym2612"
    },
    {
      "channel": 0,
      "note": 59,
      "start": 49.9433,
      "duration": 0.0946,
      "velocity": 111,
      "chip": "ym2612"
    },
    {
      "channel": 4,
      "note": 74,
      "start": 49.9446,
      "duration": 0.1485,
      "velocity": 79,
      "chip": "ym2612"
    },
    {
      "channel": 0,
      "note": 54,
      "start": 50.0517,
      "duration": 0.0947,
      "velocity": 111,
      "chip": "ym2612"
    },
    {
      "channel": 1,
      "note": 70,
      "start": 50.0522,
      "duration": 0.1485,
      "velocity": 103,
      "chip": "ym2612"
    },
    {
      "channel": 4,
      "note": 73,
      "start": 50.1068,
      "duration": 0.1488,
      "velocity": 79,
      "chip": "ym2612"
    },
    {
      "channel": 0,
      "note": 58,
      "start": 50.16,
      "duration": 0.0947,
      "velocity": 111,
      "chip": "ym2612"
    },
    {
      "channel": 1,
      "note": 66,
      "start": 50.2146,
      "duration": 0.1485,
      "velocity": 103,
      "chip": "ym2612"
    },
    {
      "channel": 0,
      "note": 61,
      "start": 50.2684,
      "duration": 0.0945,
      "velocity": 111,
      "chip": "ym2612"
    },
    {
      "channel": 4,
      "note": 71,
      "start": 50.2697,
      "duration": 0.1485,
      "velocity": 79,
      "chip": "ym2612"
    },
    {
      "channel": 0,
      "note": 66,
      "start": 50.3767,
      "duration": 0.0946,
      "velocity": 111,
      "chip": "ym2612"
    },
    {
      "channel": 1,
      "note": 78,
      "start": 50.3772,
      "duration": 0.1486,
      "velocity": 103,
      "chip": "ym2612"
    },
    {
      "channel": 4,
      "note": 70,
      "start": 50.4323,
      "duration": 0.1487,
      "velocity": 79,
      "chip": "ym2612"
    },
    {
      "channel": 0,
      "note": 61,
      "start": 50.485,
      "duration": 0.0947,
      "velocity": 111,
      "chip": "ym2612"
    },
    {
      "channel": 1,
      "note": 76,
      "start": 50.5394,
      "duration": 0.1489,
      "velocity": 103,
      "chip": "ym2612"
    },
    {
      "channel": 0,
      "note": 58,
      "start": 50.5934,
      "duration": 0.0946,
      "velocity": 111,
      "chip": "ym2612"
    },
    {
      "channel": 4,
      "note": 66,
      "start": 50.5946,
      "duration": 0.1485,
      "velocity": 79,
      "chip": "ym2612"
    },
    {
      "channel": 0,
      "note": 55,
      "start": 50.7017,
      "duration": 0.0947,
      "velocity": 111,
      "chip": "ym2612"
    },
    {
      "channel": 1,
      "note": 74,
      "start": 50.7022,
      "duration": 0.1486,
      "velocity": 103,
      "chip": "ym2612"
    },
    {
      "channel": 4,
      "note": 78,
      "start": 50.7569,
      "duration": 0.1488,
      "velocity": 79,
      "chip": "ym2612"
    },
    {
      "channel": 0,
      "note": 59,
      "start": 50.81,
      "duration": 0.0947,
      "velocity": 111,
      "chip": "ym2612"
    },
    {
      "channel": 1,
      "note": 73,
      "start": 50.8648,
      "duration": 0.1486,
      "velocity": 103,
      "chip": "ym2612"
    },
    {
      "channel": 0,
      "note": 62,
      "start": 50.9184,
      "duration": 0.0947,
      "velocity": 111,
      "chip": "ym2612"
    },
    {
      "channel": 4,
      "note": 76,
      "start": 50.9197,
      "duration": 0.1485,
      "velocity": 79,
      "chip": "ym2612"
    },
    {
      "channel": 0,
      "note": 67,
      "start": 51.0268,
      "duration": 0.0946,
      "velocity": 111,
      "chip": "ym2612"
    },
    {
      "channel": 1,
      "note": 71,
      "start": 51.0272,
      "duration": 0.1485,
      "velocity": 103,
      "chip": "ym2612"
    },
    {
      "channel": 4,
      "note": 74,
      "start": 51.0823,
      "duration": 0.1488,
      "velocity": 79,
      "chip": "ym2612"
    },
    {
      "channel": 0,
      "note": 62,
      "start": 51.1351,
      "duration": 0.0946,
      "velocity": 111,
      "chip": "ym2612"
    },
    {
      "channel": 1,
      "note": 69,
      "start": 51.1895,
      "duration": 0.1488,
      "velocity": 103,
      "chip": "ym2612"
    },
    {
      "channel": 0,
      "note": 59,
      "start": 51.2435,
      "duration": 0.0945,
      "velocity": 111,
      "chip": "ym2612"
    },
    {
      "channel": 4,
      "note": 73,
      "start": 51.2448,
      "duration": 0.1484,
      "velocity": 79,
      "chip": "ym2612"
    },
    {
      "channel": 0,
      "note": 55,
      "start": 51.3517,
      "duration": 0.0947,
      "velocity": 111,
      "chip": "ym2612"
    },
    {
      "channel": 1,
      "note": 67,
      "start": 51.3522,
      "duration": 0.1487,
      "velocity": 103,
      "chip": "ym2612"
    },
    {
      "channel": 4,
      "note": 71,
      "start": 51.407,
      "duration": 0.1489,
      "velocity": 79,
      "chip": "ym2612"
    },
    {
      "channel": 0,
      "note": 59,
      "start": 51.4602,
      "duration": 0.0946,
      "velocity": 111,
      "chip": "ym2612"
    },
    {
      "channel": 1,
      "note": 64,
      "start": 51.5149,
      "duration": 0.1485,
      "velocity": 103,
      "chip": "ym2612"
    },
    {
      "channel": 0,
      "note": 64,
      "start": 51.5684,
      "duration": 0.0947,
      "velocity": 111,
      "chip": "ym2612"
    },
    {
      "channel": 4,
      "note": 69,
      "start": 51.5697,
      "duration": 0.1485,
      "velocity": 79,
      "chip": "ym2612"
    },
    {
      "channel": 0,
      "note": 67,
      "start": 51.6768,
      "duration": 0.0946,
      "velocity": 111,
      "chip": "ym2612"
    },
    {
      "channel": 1,
      "note": 76,
      "start": 51.6772,
      "duration": 0.1487,
      "velocity": 103,
      "chip": "ym2612"
    },
    {
      "channel": 4,
      "note": 67,
      "start": 51.7324,
      "duration": 0.1487,
      "velocity": 79,
      "chip": "ym2612"
    },
    {
      "channel": 0,
      "note": 64,
      "start": 51.7852,
      "duration": 0.0946,
      "velocity": 111,
      "chip": "ym2612"
    },
    {
      "channel": 1,
      "note": 74,
      "start": 51.8395,
      "duration": 0.1488,
      "velocity": 103,
      "chip": "ym2612"
    },
    {
      "channel": 0,
      "note": 59,
      "start": 51.8936,
      "duration": 0.0945,
      "velocity": 111,
      "chip": "ym2612"
    },
    {
      "channel": 4,
      "note": 64,
      "start": 51.8949,
      "duration": 0.1484,
      "velocity": 79,
      "chip": "ym2612"
    },
    {
      "channel": 0,
      "note": 57,
      "start": 52.0018,
      "duration": 0.0947,
      "velocity": 111,
      "chip": "ym2612"
    },
    {
      "channel": 1,
      "note": 73,
      "start": 52.0022,
      "duration": 0.1487,
      "velocity": 103,
      "chip": "ym2612"
    },
    {
      "channel": 4,
      "note": 76,
      "start": 52.0571,
      "duration": 0.1487,
      "velocity": 79,
      "chip": "ym2612"
    },
    {
      "channel": 0,
      "note": 61,
      "start": 52.1102,
      "duration": 0.0946,
      "velocity": 111,
      "chip": "ym2612"
    },
    {
      "channel": 1,
      "note": 71,
      "start": 52.1649,
      "duration": 0.1485,
      "velocity": 103,
      "chip": "ym2612"
    },
    {
      "channel": 0,
      "note": 64,
      "start": 52.2186,
      "duration": 0.0946,
      "velocity": 111,
      "chip": "ym2612"
    },
    {
      "channel": 4,
      "note": 74,
      "start": 52.2198,
      "duration": 0.1485,
      "velocity": 79,
      "chip": "ym2612"
    },
    {
      "channel": 0,
      "note": 69,
      "start": 52.3268,
      "duration": 0.0946,
      "velocity": 111,
      "chip": "ym2612"
    },
    {
      "channel": 1,
      "note": 69,
      "start": 52.3273,
      "duration": 0.1487,
      "velocity": 103,
      "chip": "ym2612"
    },
    {
      "channel": 4,
      "note": 73,
      "start": 52.3824,
      "duration": 0.1489,
      "velocity": 79,
      "chip": "ym2612"
    },
    {
      "channel": 0,
      "note": 64,
      "start": 52.4352,
      "duration": 0.0946,
      "velocity": 111,
      "chip": "ym2612"
    },
    {
      "channel": 1,
      "note": 67,
      "start": 52.4896,
      "duration": 0.1489,
      "velocity": 103,
      "chip": "ym2612"
    },
    {
      "channel": 0,
      "note": 61,
      "start": 52.5436,
      "duration": 0.0947,
      "velocity": 111,
      "chip": "ym2612"
    },
    {
      "channel": 4,
      "note": 71,
      "start": 52.5449,
      "duration": 0.1485,
      "velocity": 79,
      "chip": "ym2612"
    },
    {
      "channel": 0,
      "note": 62,
      "start": 52.6519,
      "duration": 0.0947,
      "velocity": 111,
      "chip": "ym2612"
    },
    {
      "channel": 1,
      "note": 66,
      "start": 52.6524,
      "duration": 0.1486,
      "velocity": 103,
      "chip": "ym2612"
    },
    {
      "channel": 4,
      "note": 69,
      "start": 52.7071,
      "duration": 0.1489,
      "velocity": 79,
      "chip": "ym2612"
    },
    {
      "channel": 0,
      "note": 66,
      "start": 52.7602,
      "duration": 0.0947,
      "velocity": 111,
      "chip": "ym2612"
    },
    {
      "channel": 1,
      "note": 69,
      "start": 52.815,
      "duration": 0.1485,
      "velocity": 103,
      "chip": "ym2612"
    },
    {
      "channel": 0,
      "note": 74,
      "start": 52.8686,
      "duration": 0.0946,
      "velocity": 111,
      "chip": "ym2612"
    },
    {
      "channel": 4,
      "note": 67,
      "start": 52.8698,
      "duration": 0.1485,
      "velocity": 79,
      "chip": "ym2612"
    },
    {
      "channel": 0,
      "note": 73,
      "start": 52.9769,
      "duration": 0.0947,
      "velocity": 111,
      "chip": "ym2612"
    },
    {
      "channel": 1,
      "note": 70,
      "start": 52.9773,
      "duration": 0.1487,
      "velocity": 103,
      "chip": "ym2612"
    },
    {
      "channel": 4,
      "note": 66,
      "start": 53.0325,
      "duration": 0.1489,
      "velocity": 79,
      "chip": "ym2612"
    },
    {
      "channel": 0,
      "note": 70,
      "start": 53.0853,
      "duration": 0.0946,
      "velocity": 111,
      "chip": "ym2612"
    },
    {
      "channel": 1,
      "note": 66,
      "start": 53.1396,
      "duration": 0.149,
      "velocity": 103,
      "chip": "ym2612"
    },
    {
      "channel": 0,
      "note": 66,
      "start": 53.1936,
      "duration": 0.0947,
      "velocity": 111,
      "chip": "ym2612"
    },
    {
      "channel": 4,
      "note": 69,
      "start": 53.1949,
      "duration": 0.1485,
      "velocity": 79,
      "chip": "ym2612"
    },
    {
      "channel": 0,
      "note": 59,
      "start": 53.3019,
      "duration": 0.1488,
      "velocity": 111,
      "chip": "ym2612"
    },
    {
      "channel": 1,
      "note": 62,
      "start": 53.3024,
      "duration": 0.2299,
      "velocity": 103,
      "chip": "ym2612"
    },
    {
      "channel": 2,
      "note": 71,
      "start": 53.3047,
      "duration": 0.1465,
      "velocity": 103,
      "chip": "ym2612"
    },
    {
      "channel": 3,
      "note": 83,
      "start": 53.3075,
      "duration": 0.144,
      "velocity": 111,
      "chip": "ym2612"
    },
    {
      "channel": 4,
      "note": 70,
      "start": 53.3571,
      "duration": 0.1488,
      "velocity": 79,
      "chip": "ym2612"
    },
    {
      "channel": 0,
      "note": 62,
      "start": 53.4648,
      "duration": 0.1484,
      "velocity": 111,
      "chip": "ym2612"
    },
    {
      "channel": 2,
      "note": 73,
      "start": 53.4654,
      "duration": 0.1483,
      "velocity": 103,
      "chip": "ym2612"
    },
    {
      "channel": 3,
      "note": 62,
      "start": 53.466,
      "duration": 0.1484,
      "velocity": 111,
      "chip": "ym2612"
    },
    {
      "channel": 4,
      "note": 66,
      "start": 53.5197,
      "duration": 0.3116,
      "velocity": 79,
      "chip": "ym2612"
    },
    {
      "channel": 0,
      "note": 66,
      "start": 53.6271,
      "duration": 0.1487,
      "velocity": 111,
      "chip": "ym2612"
    },
    {
      "channel": 1,
      "note": 78,
      "start": 53.6275,
      "duration": 0.4736,
      "velocity": 103,
      "chip": "ym2612"
    },
    {
      "channel": 2,
      "note": 74,
      "start": 53.628,
      "duration": 0.1482,
      "velocity": 103,
      "chip": "ym2612"
    },
    {
      "channel": 3,
      "note": 66,
      "start": 53.6285,
      "duration": 0.148,
      "velocity": 111,
      "chip": "ym2612"
    },
    {
      "channel": 0,
      "note": 71,
      "start": 53.7895,
      "duration": 0.1488,
      "velocity": 111,
      "chip": "ym2612"
    },
    {
      "channel": 2,
      "note": 76,
      "start": 53.7901,
      "duration": 0.1486,
      "velocity": 103,
      "chip": "ym2612"
    },
    {
      "channel": 3,
      "note": 71,
      "start": 53.7907,
      "duration": 0.1483,
      "velocity": 111,
      "chip": "ym2612"
    },
    {
      "channel": 4,
      "note": 62,
      "start": 53.8447,
      "duration": 0.4737,
      "velocity": 79,
      "chip": "ym2612"
    },
    {
      "channel": 0,
      "note": 58,
      "start": 53.952,
      "duration": 0.1489,
      "velocity": 111,
      "chip": "ym2612"
    },
    {
      "channel": 2,
      "note": 78,
      "start": 53.9527,
      "duration": 0.1487,
      "velocity": 103,
      "chip": "ym2612"
    },
    {
      "channel": 3,
      "note": 74,
      "start": 53.9532,
      "duration": 0.1484,
      "velocity": 111,
      "chip": "ym2612"
    },
    {
      "channel": 0,
      "note": 61,
      "start": 54.1148,
      "duration": 0.1486,
      "velocity": 111,
      "chip": "ym2612"
    },
    {
      "channel": 1,
      "note": 79,
      "start": 54.1152,
      "duration": 0.0672,
      "velocity": 103,
      "chip": "ym2612"
    },
    {
      "channel": 2,
      "note": 71,
      "start": 54.1156,
      "duration": 0.1482,
      "velocity": 103,
      "chip": "ym2612"
    },
    {
      "channel": 3,
      "note": 61,
      "start": 54.1161,
      "duration": 0.1483,
      "velocity": 111,
      "chip": "ym2612"
    },
    {
      "channel": 1,
      "note": 78,
      "start": 54.1961,
      "duration": 0.0676,
      "velocity": 103,
      "chip": "ym2612"
    },
    {
      "channel": 0,
      "note": 66,
      "start": 54.2771,
      "duration": 0.1488,
      "velocity": 111,
      "chip": "ym2612"
    },
    {
      "channel": 1,
      "note": 76,
      "start": 54.2775,
      "duration": 0.1486,
      "velocity": 103,
      "chip": "ym2612"
    },
    {
      "channel": 2,
      "note": 70,
      "start": 54.278,
      "duration": 0.1484,
      "velocity": 103,
      "chip": "ym2612"
    },
    {
      "channel": 3,
      "note": 66,
      "start": 54.2785,
      "duration": 0.1481,
      "velocity": 111,
      "chip": "ym2612"
    },
    {
      "channel": 4,
      "note": 78,
      "start": 54.3324,
      "duration": 0.0674,
      "velocity": 79,
      "chip": "ym2612"
    },
    {
      "channel": 4,
      "note": 79,
      "start": 54.4134,
      "duration": 0.0679,
      "velocity": 79,
      "chip": "ym2612"
    },
    {
      "channel": 0,
      "note": 70,
      "start": 54.4396,
      "duration": 0.1488,
      "velocity": 111,
      "chip": "ym2612"
    },
    {
      "channel": 1,
      "note": 83,
      "start": 54.4401,
      "duration": 0.311,
      "velocity": 103,
      "chip": "ym2612"
    },
    {
      "channel": 2,
      "note": 79,
      "start": 54.4405,
      "duration": 0.1483,
      "velocity": 103,
      "chip": "ym2612"
    },
    {
      "channel": 3,
      "note": 70,
      "start": 54.4411,
      "duration": 0.1481,
      "velocity": 111,
      "chip": "ym2612"
    },
    {
      "channel": 4,
      "note": 78,
      "start": 54.4947,
      "duration": 0.1488,
      "velocity": 79,
      "chip": "ym2612"
    },
    {
      "channel": 0,
      "note": 55,
      "start": 54.6021,
      "duration": 0.1488,
      "velocity": 111,
      "chip": "ym2612"
    },
    {
      "channel": 2,
      "note": 76,
      "start": 54.6028,
      "duration": 0.1486,
      "velocity": 103,
      "chip": "ym2612"
    },
    {
      "channel": 3,
      "note": 73,
      "start": 54.6033,
      "duration": 0.1483,
      "velocity": 111,
      "chip": "ym2612"
    },
    {
      "channel": 4,
      "note": 76,
      "start": 54.6573,
      "duration": 0.3112,
      "velocity": 79,
      "chip": "ym2612"
    },
    {
      "channel": 0,
      "note": 59,
      "start": 54.7648,
      "duration": 0.1486,
      "velocity": 111,
      "chip": "ym2612"
    },
    {
      "channel": 1,
      "note": 78,
      "start": 54.7653,
      "duration": 0.1483,
      "velocity": 103,
      "chip": "ym2612"
    },
    {
      "channel": 2,
      "note": 74,
      "start": 54.7658,
      "duration": 0.1482,
      "velocity": 103,
      "chip": "ym2612"
    },
    {
      "channel": 3,
      "note": 59,
      "start": 54.7663,
      "duration": 0.1482,
      "velocity": 111,
      "chip": "ym2612"
    },
    {
      "channel": 0,
      "note": 64,
      "start": 54.9271,
      "duration": 0.1488,
      "velocity": 111,
      "chip": "ym2612"
    },
    {
      "channel": 1,
      "note": 76,
      "start": 54.9275,
      "duration": 0.1487,
      "velocity": 103,
      "chip": "ym2612"
    },
    {
      "channel": 2,
      "note": 73,
      "start": 54.928,
      "duration": 0.1485,
      "velocity": 103,
      "chip": "ym2612"
    },
    {
      "channel": 3,
      "note": 64,
      "start": 54.9285,
      "duration": 0.1482,
      "velocity": 111,
      "chip": "ym2612"
    },
    {
      "channel": 4,
      "note": 83,
      "start": 54.9824,
      "duration": 0.149,
      "velocity": 79,
      "chip": "ym2612"
    },
    {
      "channel": 0,
      "note": 67,
      "start": 55.0897,
      "duration": 0.1487,
      "velocity": 111,
      "chip": "ym2612"
    },
    {
      "channel": 1,
      "note": 74,
      "start": 55.0901,
      "duration": 0.1485,
      "velocity": 103,
      "chip": "ym2612"
    },
    {
      "channel": 2,
      "note": 71,
      "start": 55.0906,
      "duration": 0.1483,
      "velocity": 103,
      "chip": "ym2612"
    },
    {
      "channel": 3,
      "note": 67,
      "start": 55.0911,
      "duration": 0.1481,
      "velocity": 111,
      "chip": "ym2612"
    },
    {
      "channel": 4,
      "note": 78,
      "start": 55.1447,
      "duration": 0.1488,
      "velocity": 79,
      "chip": "ym2612"
    },
    {
      "channel": 0,
      "note": 54,
      "start": 55.2522,
      "duration": 0.1488,
      "velocity": 111,
      "chip": "ym2612"
    },
    {
      "channel": 1,
      "note": 73,
      "start": 55.2526,
      "duration": 0.1486,
      "velocity": 103,
      "chip": "ym2612"
    },
    {
      "channel": 2,
      "note": 70,
      "start": 55.253,
      "duration": 0.1484,
      "velocity": 103,
      "chip": "ym2612"
    },
    {
      "channel": 3,
      "note": 71,
      "start": 55.2536,
      "duration": 0.1481,
      "velocity": 111,
      "chip": "ym2612"
    },
    {
      "channel": 4,
      "note": 76,
      "start": 55.3073,
      "duration": 0.1487,
      "velocity": 79,
      "chip": "ym2612"
    },
    {
      "channel": 0,
      "note": 58,
      "start": 55.4148,
      "duration": 0.1488,
      "velocity": 111,
      "chip": "ym2612"
    },
    {
      "channel": 1,
      "note": 74,
      "start": 55.4152,
      "duration": 0.0673,
      "velocity": 103,
      "chip": "ym2612"
    },
    {
      "channel": 2,
      "note": 66,
      "start": 55.4157,
      "duration": 0.1487,
      "velocity": 103,
      "chip": "ym2612"
    },
    {
      "channel": 3,
      "note": 58,
      "start": 55.4162,
      "duration": 0.1484,
      "velocity": 111,
      "chip": "ym2612"
    },
    {
      "channel": 4,
      "note": 74,
      "start": 55.4698,
      "duration": 0.1488,
      "velocity": 79,
      "chip": "ym2612"
    },
    {
      "channel": 1,
      "note": 76,
      "start": 55.4962,
      "duration": 0.0676,
      "velocity": 103,
      "chip": "ym2612"
    },
    {
      "channel": 0,
      "note": 61,
      "start": 55.5772,
      "duration": 0.1488,
      "velocity": 111,
      "chip": "ym2612"
    },
    {
      "channel": 1,
      "note": 82,
      "start": 55.5777,
      "duration": 0.3111,
      "velocity": 103,
      "chip": "ym2612"
    },
    {
      "channel": 2,
      "note": 78,
      "start": 55.5781,
      "duration": 0.1483,
      "velocity": 103,
      "chip": "ym2612"
    },
    {
      "channel": 3,
      "note": 61,
      "start": 55.5786,
      "duration": 0.1482,
      "velocity": 111,
      "chip": "ym2612"
    },
    {
      "channel": 4,
      "note": 73,
      "start": 55.6325,
      "duration": 0.0674,
      "velocity": 79,
      "chip": "ym2612"
    },
    {
      "channel": 4,
      "note": 74,
      "start": 55.7135,
      "duration": 0.0679,
      "velocity": 79,
      "chip": "ym2612"
    },
    {
      "channel": 0,
      "note": 66,
      "start": 55.7397,
      "duration": 0.1488,
      "velocity": 111,
      "chip": "ym2612"
    },
    {
      "channel": 2,
      "note": 76,
      "start": 55.7404,
      "duration": 0.1486,
      "velocity": 103,
      "chip": "ym2612"
    },
    {
      "channel": 3,
      "note": 66,
      "start": 55.7409,
      "duration": 0.1484,
      "velocity": 111,
      "chip": "ym2612"
    },
    {
      "channel": 4,
      "note": 76,
      "start": 55.7948,
      "duration": 0.3113,
      "velocity": 79,
      "chip": "ym2612"
    },
    {
      "channel": 0,
      "note": 55,
      "start": 55.9022,
      "duration": 0.1488,
      "velocity": 111,
      "chip": "ym2612"
    },
    {
      "channel": 1,
      "note": 83,
      "start": 55.9027,
      "duration": 0.1487,
      "velocity": 103,
      "chip": "ym2612"
    },
    {
      "channel": 2,
      "note": 74,
      "start": 55.9032,
      "duration": 0.1484,
      "velocity": 103,
      "chip": "ym2612"
    },
    {
      "channel": 3,
      "note": 70,
      "start": 55.9037,
      "duration": 0.1482,
      "velocity": 111,
      "chip": "ym2612"
    },
    {
      "channel": 0,
      "note": 59,
      "start": 56.0648,
      "duration": 0.1488,
      "velocity": 111,
      "chip": "ym2612"
    },
    {
      "channel": 1,
      "note": 76,
      "start": 56.0652,
      "duration": 0.1487,
      "velocity": 103,
      "chip": "ym2612"
    },
    {
      "channel": 2,
      "note": 73,
      "start": 56.0656,
      "duration": 0.1488,
      "velocity": 103,
      "chip": "ym2612"
    },
    {
      "channel": 3,
      "note": 59,
      "start": 56.0662,
      "duration": 0.1485,
      "velocity": 111,
      "chip": "ym2612"
    },
    {
      "channel": 4,
      "note": 82,
      "start": 56.1199,
      "duration": 0.1487,
      "velocity": 79,
      "chip": "ym2612"
    },
    {
      "channel": 0,
      "note": 62,
      "start": 56.2273,
      "duration": 0.1488,
      "velocity": 111,
      "chip": "ym2612"
    },
    {
      "channel": 1,
      "note": 74,
      "start": 56.2277,
      "duration": 0.1486,
      "velocity": 103,
      "chip": "ym2612"
    },
    {
      "channel": 2,
      "note": 71,
      "start": 56.2282,
      "duration": 0.1483,
      "velocity": 103,
      "chip": "ym2612"
    },
    {
      "channel": 3,
      "note": 62,
      "start": 56.2287,
      "duration": 0.1482,
      "velocity": 111,
      "chip": "ym2612"
    },
    {
      "channel": 4,
      "note": 83,
      "start": 56.2824,
      "duration": 0.1492,
      "velocity": 79,
      "chip": "ym2612"
    },
    {
      "channel": 0,
      "note": 67,
      "start": 56.3898,
      "duration": 0.1489,
      "velocity": 111,
      "chip": "ym2612"
    },
    {
      "channel": 1,
      "note": 73,
      "start": 56.3902,
      "duration": 0.1487,
      "velocity": 103,
      "chip": "ym2612"
    },
    {
      "channel": 2,
      "note": 69,
      "start": 56.3906,
      "duration": 0.1485,
      "velocity": 103,
      "chip": "ym2612"
    },
    {
      "channel": 3,
      "note": 67,
      "start": 56.3912,
      "duration": 0.1482,
      "velocity": 111,
      "chip": "ym2612"
    },
    {
      "channel": 4,
      "note": 76,
      "start": 56.445,
      "duration": 0.1487,
      "velocity": 79,
      "chip": "ym2612"
    },
    {
      "channel": 0,
      "note": 55,
      "start": 56.5522,
      "duration": 0.1489,
      "velocity": 111,
      "chip": "ym2612"
    },
    {
      "channel": 1,
      "note": 71,
      "start": 56.5527,
      "duration": 0.1487,
      "velocity": 103,
      "chip": "ym2612"
    },
    {
      "channel": 2,
      "note": 67,
      "start": 56.5531,
      "duration": 0.1485,
      "velocity": 103,
      "chip": "ym2612"
    },
    {
      "channel": 3,
      "note": 71,
      "start": 56.5537,
      "duration": 0.1482,
      "velocity": 111,
      "chip": "ym2612"
    },
    {
      "channel": 4,
      "note": 74,
      "start": 56.6074,
      "duration": 0.1488,
      "velocity": 79,
      "chip": "ym2612"
    },
    {
      "channel": 0,
      "note": 59,
      "start": 56.7149,
      "duration": 0.1487,
      "velocity": 111,
      "chip": "ym2612"
    },
    {
      "channel": 1,
      "note": 73,
      "start": 56.7153,
      "duration": 0.0673,
      "velocity": 103,
      "chip": "ym2612"
    },
    {
      "channel": 2,
      "note": 64,
      "start": 56.7158,
      "duration": 0.1486,
      "velocity": 103,
      "chip": "ym2612"
    },
    {
      "channel": 3,
      "note": 59,
      "start": 56.7163,
      "duration": 0.1484,
      "velocity": 111,
      "chip": "ym2612"
    },
    {
      "channel": 4,
      "note": 73,
      "start": 56.7699,
      "duration": 0.1488,
      "velocity": 79,
      "chip": "ym2612"
    },
    {
      "channel": 1,
      "note": 74,
      "start": 56.7962,
      "duration": 0.0676,
      "velocity": 103,
      "chip": "ym2612"
    },
    {
      "channel": 0,
      "note": 64,
      "start": 56.8773,
      "duration": 0.1488,
      "velocity": 111,
      "chip": "ym2612"
    },
    {
      "channel": 1,
      "note": 79,
      "start": 56.8777,
      "duration": 0.1486,
      "velocity": 103,
      "chip": "ym2612"
    },
    {
      "channel": 2,
      "note": 76,
      "start": 56.8782,
      "duration": 0.1484,
      "velocity": 103,
      "chip": "ym2612"
    },
    {
      "channel": 3,
      "note": 64,
      "start": 56.8788,
      "duration": 0.1481,
      "velocity": 111,
      "chip": "ym2612"
    },
    {
      "channel": 4,
      "note": 71,
      "start": 56.9325,
      "duration": 0.0674,
      "velocity": 79,
      "chip": "ym2612"
    },
    {
      "channel": 4,
      "note": 73,
      "start": 57.0137,
      "duration": 0.0679,
      "velocity": 79,
      "chip": "ym2612"
    },
    {
      "channel": 0,
      "note": 67,
      "start": 57.0398,
      "duration": 0.1489,
      "velocity": 111,
      "chip": "ym2612"
    },
    {
      "channel": 1,
      "note": 78,
      "start": 57.0403,
      "duration": 0.1487,
      "velocity": 103,
      "chip": "ym2612"
    },
    {
      "channel": 2,
      "note": 74,
      "start": 57.0407,
      "duration": 0.1485,
      "velocity": 103,
      "chip": "ym2612"
    },
    {
      "channel": 3,
      "note": 67,
      "start": 57.0413,
      "duration": 0.1482,
      "velocity": 111,
      "chip": "ym2612"
    },
    {
      "channel": 4,
      "note": 74,
      "start": 57.095,
      "duration": 0.1487,
      "velocity": 79,
      "chip": "ym2612"
    },
    {
      "channel": 0,
      "note": 57,
      "start": 57.2023,
      "duration": 0.1489,
      "velocity": 111,
      "chip": "ym2612"
    },
    {
      "channel": 1,
      "note": 76,
      "start": 57.2027,
      "duration": 0.3116,
      "velocity": 103,
      "chip": "ym2612"
    },
    {
      "channel": 2,
      "note": 73,
      "start": 57.2032,
      "duration": 0.1485,
      "velocity": 103,
      "chip": "ym2612"
    },
    {
      "channel": 3,
      "note": 71,
      "start": 57.2037,
      "duration": 0.1482,
      "velocity": 111,
      "chip": "ym2612"
    },
    {
      "channel": 4,
      "note": 79,
      "start": 57.2574,
      "duration": 0.1488,
      "velocity": 79,
      "chip": "ym2612"
    },
    {
      "channel": 0,
      "note": 61,
      "start": 57.3649,
      "duration": 0.1489,
      "velocity": 111,
      "chip": "ym2612"
    },
    {
      "channel": 2,
      "note": 71,
      "start": 57.3656,
      "duration": 0.149,
      "velocity": 103,
      "chip": "ym2612"
    },
    {
      "channel": 3,
      "note": 61,
      "start": 57.3661,
      "duration": 0.1489,
      "velocity": 111,
      "chip": "ym2612"
    },
    {
      "channel": 4,
      "note": 78,
      "start": 57.42,
      "duration": 0.3117,
      "velocity": 79,
      "chip": "ym2612"
    },
    {
      "channel": 0,
      "note": 64,
      "start": 57.5273,
      "duration": 0.1489,
      "velocity": 111,
      "chip": "ym2612"
    },
    {
      "channel": 1,
      "note": 85,
      "start": 57.5278,
      "duration": 0.3111,
      "velocity": 103,
      "chip": "ym2612"
    },
    {
      "channel": 2,
      "note": 69,
      "start": 57.5282,
      "duration": 0.1484,
      "velocity": 103,
      "chip": "ym2612"
    },
    {
      "channel": 3,
      "note": 64,
      "start": 57.5288,
      "duration": 0.1481,
      "velocity": 111,
      "chip": "ym2612"
    },
    {
      "channel": 0,
      "note": 69,
      "start": 57.6899,
      "duration": 0.1488,
      "velocity": 111,
      "chip": "ym2612"
    },
    {
      "channel": 2,
      "note": 67,
      "start": 57.6906,
      "duration": 0.1486,
      "velocity": 103,
      "chip": "ym2612"
    },
    {
      "channel": 3,
      "note": 69,
      "start": 57.6911,
      "duration": 0.1483,
      "velocity": 111,
      "chip": "ym2612"
    },
    {
      "channel": 4,
      "note": 76,
      "start": 57.745,
      "duration": 0.3113,
      "velocity": 79,
      "chip": "ym2612"
    },
    {
      "channel": 0,
      "note": 62,
      "start": 57.8524,
      "duration": 0.1488,
      "velocity": 111,
      "chip": "ym2612"
    },
    {
      "channel": 1,
      "note": 86,
      "start": 57.8529,
      "duration": 0.3115,
      "velocity": 103,
      "chip": "ym2612"
    },
    {
      "channel": 2,
      "note": 66,
      "start": 57.8533,
      "duration": 0.1483,
      "velocity": 103,
      "chip": "ym2612"
    },
    {
      "channel": 3,
      "note": 73,
      "start": 57.8539,
      "duration": 0.1481,
      "velocity": 111,
      "chip": "ym2612"
    },
    {
      "channel": 0,
      "note": 66,
      "start": 58.015,
      "duration": 0.1488,
      "velocity": 111,
      "chip": "ym2612"
    },
    {
      "channel": 2,
      "note": 69,
      "start": 58.0156,
      "duration": 0.149,
      "velocity": 103,
      "chip": "ym2612"
    },
    {
      "channel": 3,
      "note": 66,
      "start": 58.0162,
      "duration": 0.1488,
      "velocity": 111,
      "chip": "ym2612"
    },
    {
      "channel": 4,
      "note": 85,
      "start": 58.07,
      "duration": 0.3118,
      "velocity": 79,
      "chip": "ym2612"
    },
    {
      "channel": 0,
      "note": 70,
      "start": 58.1775,
      "duration": 0.1488,
      "velocity": 111,
      "chip": "ym2612"
    },
    {
      "channel": 1,
      "note": 85,
      "start": 58.1779,
      "duration": 0.3111,
      "velocity": 103,
      "chip": "ym2612"
    },
    {
      "channel": 2,
      "note": 70,
      "start": 58.1784,
      "duration": 0.1483,
      "velocity": 103,
      "chip": "ym2612"
    },
    {
      "channel": 3,
      "note": 69,
      "start": 58.1789,
      "duration": 0.148,
      "velocity": 111,
      "chip": "ym2612"
    },
    {
      "channel": 0,
      "note": 61,
      "start": 58.34,
      "duration": 0.1487,
      "velocity": 111,
      "chip": "ym2612"
    },
    {
      "channel": 2,
      "note": 66,
      "start": 58.3406,
      "duration": 0.1486,
      "velocity": 103,
      "chip": "ym2612"
    },
    {
      "channel": 3,
      "note": 61,
      "start": 58.3412,
      "duration": 0.1483,
      "velocity": 111,
      "chip": "ym2612"
    },
    {
      "channel": 4,
      "note": 86,
      "start": 58.3952,
      "duration": 0.3112,
      "velocity": 79,
      "chip": "ym2612"
    },
    {
      "channel": 0,
      "note": 59,
      "start": 58.5024,
      "duration": 0.1489,
      "velocity": 111,
      "chip": "ym2612"
    },
    {
      "channel": 1,
      "note": 78,
      "start": 58.5029,
      "duration": 0.3116,
      "velocity": 103,
      "chip": "ym2612"
    },
    {
      "channel": 2,
      "note": 62,
      "start": 58.5033,
      "duration": 0.3115,
      "velocity": 103,
      "chip": "ym2612"
    },
    {
      "channel": 3,
      "note": 66,
      "start": 58.5063,
      "duration": 0.1457,
      "velocity": 73,
      "chip": "ym2612"
    },
    {
      "channel": 0,
      "note": 62,
      "start": 58.6651,
      "duration": 0.1487,
      "velocity": 111,
      "chip": "ym2612"
    },
    {
      "channel": 3,
      "note": 59,
      "start": 58.666,
      "duration": 0.149,
      "velocity": 73,
      "chip": "ym2612"
    },
    {
      "channel": 4,
      "note": 85,
      "start": 58.7202,
      "duration": 0.3117,
      "velocity": 79,
      "chip": "ym2612"
    },
    {
      "channel": 0,
      "note": 66,
      "start": 58.8275,
      "duration": 0.1488,
      "velocity": 111,
      "chip": "ym2612"
    },
    {
      "channel": 1,
      "note": 83,
      "start": 58.8279,
      "duration": 0.1486,
      "velocity": 103,
      "chip": "ym2612"
    },
    {
      "channel": 2,
      "note": 78,
      "start": 58.8284,
      "duration": 0.4735,
      "velocity": 103,
      "chip": "ym2612"
    },
    {
      "channel": 3,
      "note": 61,
      "start": 58.8289,
      "duration": 0.1482,
      "velocity": 73,
      "chip": "ym2612"
    },
    {
      "channel": 0,
      "note": 71,
      "start": 58.99,
      "duration": 0.1488,
      "velocity": 111,
      "chip": "ym2612"
    },
    {
      "channel": 1,
      "note": 85,
      "start": 58.9905,
      "duration": 0.1486,
      "velocity": 103,
      "chip": "ym2612"
    },
    {
      "channel": 3,
      "note": 62,
      "start": 58.9912,
      "duration": 0.1483,
      "velocity": 73,
      "chip": "ym2612"
    },
    {
      "channel": 4,
      "note": 78,
      "start": 59.0451,
      "duration": 0.1488,
      "velocity": 79,
      "chip": "ym2612"
    },
    {
      "channel": 0,
      "note": 58,
      "start": 59.1525,
      "duration": 0.1489,
      "velocity": 111,
      "chip": "ym2612"
    },
    {
      "channel": 1,
      "note": 82,
      "start": 59.1529,
      "duration": 0.1487,
      "velocity": 103,
      "chip": "ym2612"
    },
    {
      "channel": 3,
      "note": 64,
      "start": 59.1537,
      "duration": 0.1484,
      "velocity": 73,
      "chip": "ym2612"
    },
    {
      "channel": 4,
      "note": 83,
      "start": 59.2077,
      "duration": 0.1487,
      "velocity": 79,
      "chip": "ym2612"
    },
    {
      "channel": 0,
      "note": 61,
      "start": 59.3151,
      "duration": 0.1488,
      "velocity": 111,
      "chip": "ym2612"
    },
    {
      "channel": 1,
      "note": 78,
      "start": 59.3155,
      "duration": 0.1489,
      "velocity": 103,
      "chip": "ym2612"
    },
    {
      "channel": 2,
      "note": 79,
      "start": 59.316,
      "duration": 0.067,
      "velocity": 103,
      "chip": "ym2612"
    },
    {
      "channel": 3,
      "note": 66,
      "start": 59.3165,
      "duration": 0.1485,
      "velocity": 73,
      "chip": "ym2612"
    },
    {
      "channel": 4,
      "note": 85,
      "start": 59.3702,
      "duration": 0.1488,
      "velocity": 79,
      "chip": "ym2612"
    },
    {
      "channel": 2,
      "note": 78,
      "start": 59.3968,
      "duration": 0.068,
      "velocity": 103,
      "chip": "ym2612"
    },
    {
      "channel": 0,
      "note": 66,
      "start": 59.4775,
      "duration": 0.1489,
      "velocity": 111,
      "chip": "ym2612"
    },
    {
      "channel": 1,
      "note": 85,
      "start": 59.478,
      "duration": 0.0674,
      "velocity": 103,
      "chip": "ym2612"
    },
    {
      "channel": 2,
      "note": 76,
      "start": 59.4784,
      "duration": 0.1485,
      "velocity": 103,
      "chip": "ym2612"
    },
    {
      "channel": 3,
      "note": 59,
      "start": 59.479,
      "duration": 0.1482,
      "velocity": 73,
      "chip": "ym2612"
    },
    {
      "channel": 4,
      "note": 82,
      "start": 59.5327,
      "duration": 0.1492,
      "velocity": 79,
      "chip": "ym2612"
    },
    {
      "channel": 1,
      "note": 86,
      "start": 59.559,
      "duration": 0.0677,
      "velocity": 103,
      "chip": "ym2612"
    },
    {
      "channel": 0,
      "note": 70,
      "start": 59.64,
      "duration": 0.1489,
      "velocity": 111,
      "chip": "ym2612"
    },
    {
      "channel": 1,
      "note": 88,
      "start": 59.6405,
      "duration": 0.6363,
      "velocity": 103,
      "chip": "ym2612"
    },
    {
      "channel": 2,
      "note": 83,
      "start": 59.6409,
      "duration": 0.3109,
      "velocity": 103,
      "chip": "ym2612"
    },
    {
      "channel": 3,
      "note": 58,
      "start": 59.6415,
      "duration": 0.1481,
      "velocity": 73,
      "chip": "ym2612"
    },
    {
      "channel": 4,
      "note": 78,
      "start": 59.6952,
      "duration": 0.0676,
      "velocity": 79,
      "chip": "ym2612"
    },
    {
      "channel": 4,
      "note": 85,
      "start": 59.7765,
      "duration": 0.0676,
      "velocity": 79,
      "chip": "ym2612"
    },
    {
      "channel": 0,
      "note": 55,
      "start": 59.8025,
      "duration": 0.1488,
      "velocity": 111,
      "chip": "ym2612"
    },
    {
      "channel": 3,
      "note": 67,
      "start": 59.8035,
      "duration": 0.1487,
      "velocity": 73,
      "chip": "ym2612"
    },
    {
      "channel": 4,
      "note": 86,
      "start": 59.8578,
      "duration": 0.6363,
      "velocity": 79,
      "chip": "ym2612"
    },
    {
      "channel": 0,
      "note": 59,
      "start": 59.9651,
      "duration": 0.1488,
      "velocity": 111,
      "chip": "ym2612"
    },
    {
      "channel": 2,
      "note": 78,
      "start": 59.9658,
      "duration": 0.1489,
      "velocity": 103,
      "chip": "ym2612"
    },
    {
      "channel": 3,
      "note": 64,
      "start": 59.9664,
      "duration": 0.1487,
      "velocity": 73,
      "chip": "ym2612"
    },
    {
      "channel": 0,
      "note": 64,
      "start": 60.1276,
      "duration": 0.1489,
      "velocity": 111,
      "chip": "ym2612"
    },
    {
      "channel": 2,
      "note": 76,
      "start": 60.1283,
      "duration": 0.1487,
      "velocity": 103,
      "chip": "ym2612"
    },
    {
      "channel": 3,
      "note": 62,
      "start": 60.1288,
      "duration": 0.1484,
      "velocity": 73,
      "chip": "ym2612"
    },
    {
      "channel": 0,
      "note": 67,
      "start": 60.2901,
      "duration": 0.1489,
      "velocity": 111,
      "chip": "ym2612"
    },
    {
      "channel": 1,
      "note": 74,
      "start": 60.2905,
      "duration": 0.0674,
      "velocity": 103,
      "chip": "ym2612"
    },
    {
      "channel": 2,
      "note": 74,
      "start": 60.291,
      "duration": 0.1485,
      "velocity": 103,
      "chip": "ym2612"
    },
    {
      "channel": 3,
      "note": 61,
      "start": 60.2915,
      "duration": 0.1482,
      "velocity": 73,
      "chip": "ym2612"
    },
    {
      "channel": 1,
      "note": 76,
      "start": 60.3716,
      "duration": 0.0677,
      "velocity": 103,
      "chip": "ym2612"
    },
    {
      "channel": 0,
      "note": 54,
      "start": 60.4526,
      "duration": 0.1489,
      "velocity": 111,
      "chip": "ym2612"
    },
    {
      "channel": 1,
      "note": 78,
      "start": 60.453,
      "duration": 0.1487,
      "velocity": 103,
      "chip": "ym2612"
    },
    {
      "channel": 2,
      "note": 73,
      "start": 60.4535,
      "duration": 0.1485,
      "velocity": 103,
      "chip": "ym2612"
    },
    {
      "channel": 3,
      "note": 59,
      "start": 60.4541,
      "duration": 0.1482,
      "velocity": 73,
      "chip": "ym2612"
    },
    {
      "channel": 4,
      "note": 88,
      "start": 60.5078,
      "duration": 0.0674,
      "velocity": 79,
      "chip": "ym2612"
    },
    {
      "channel": 4,
      "note": 74,
      "start": 60.589,
      "duration": 0.0676,
      "velocity": 79,
      "chip": "ym2612"
    },
    {
      "channel": 0,
      "note": 58,
      "start": 60.6152,
      "duration": 0.1492,
      "velocity": 111,
      "chip": "ym2612"
    },
    {
      "channel": 1,
      "note": 76,
      "start": 60.6156,
      "duration": 0.149,
      "velocity": 103,
      "chip": "ym2612"
    },
    {
      "channel": 2,
      "note": 74,
      "start": 60.6161,
      "duration": 0.067,
      "velocity": 103,
      "chip": "ym2612"
    },
    {
      "channel": 3,
      "note": 58,
      "start": 60.6166,
      "duration": 0.1486,
      "velocity": 73,
      "chip": "ym2612"
    },
    {
      "channel": 4,
      "note": 76,
      "start": 60.6703,
      "duration": 0.1487,
      "velocity": 79,
      "chip": "ym2612"
    },
    {
      "channel": 2,
      "note": 76,
      "start": 60.6969,
      "duration": 0.0681,
      "velocity": 103,
      "chip": "ym2612"
    },
    {
      "channel": 0,
      "note": 61,
      "start": 60.7777,
      "duration": 0.1488,
      "velocity": 111,
      "chip": "ym2612"
    },
    {
      "channel": 1,
      "note": 78,
      "start": 60.7782,
      "duration": 0.1485,
      "velocity": 103,
      "chip": "ym2612"
    },
    {
      "channel": 2,
      "note": 82,
      "start": 60.7786,
      "duration": 0.3109,
      "velocity": 103,
      "chip": "ym2612"
    },
    {
      "channel": 3,
      "note": 54,
      "start": 60.7792,
      "duration": 0.148,
      "velocity": 73,
      "chip": "ym2612"
    },
    {
      "channel": 4,
      "note": 78,
      "start": 60.8328,
      "duration": 0.1492,
      "velocity": 79,
      "chip": "ym2612"
    },
    {
      "channel": 0,
      "note": 66,
      "start": 60.9402,
      "duration": 0.1488,
      "velocity": 111,
      "chip": "ym2612"
    },
    {
      "channel": 1,
      "note": 85,
      "start": 60.9406,
      "duration": 0.1487,
      "velocity": 103,
      "chip": "ym2612"
    },
    {
      "channel": 3,
      "note": 66,
      "start": 60.9413,
      "duration": 0.1485,
      "velocity": 73,
      "chip": "ym2612"
    },
    {
      "channel": 4,
      "note": 76,
      "start": 60.9954,
      "duration": 0.1487,
      "velocity": 79,
      "chip": "ym2612"
    },
    {
      "channel": 0,
      "note": 55,
      "start": 61.1027,
      "duration": 0.1489,
      "velocity": 111,
      "chip": "ym2612"
    },
    {
      "channel": 1,
      "note": 79,
      "start": 61.1031,
      "duration": 0.1487,
      "velocity": 103,
      "chip": "ym2612"
    },
    {
      "channel": 2,
      "note": 83,
      "start": 61.1036,
      "duration": 0.1485,
      "velocity": 103,
      "chip": "ym2612"
    },
    {
      "channel": 3,
      "note": 64,
      "start": 61.1041,
      "duration": 0.1482,
      "velocity": 73,
      "chip": "ym2612"
    },
    {
      "channel": 4,
      "note": 78,
      "start": 61.1579,
      "duration": 0.1487,
      "velocity": 79,
      "chip": "ym2612"
    },
    {
      "channel": 0,
      "note": 59,
      "start": 61.2652,
      "duration": 0.1492,
      "velocity": 111,
      "chip": "ym2612"
    },
    {
      "channel": 1,
      "note": 79,
      "start": 61.2656,
      "duration": 0.3112,
      "velocity": 103,
      "chip": "ym2612"
    },
    {
      "channel": 2,
      "note": 76,
      "start": 61.2661,
      "duration": 0.1487,
      "velocity": 103,
      "chip": "ym2612"
    },
    {
      "channel": 3,
      "note": 62,
      "start": 61.2667,
      "duration": 0.1485,
      "velocity": 73,
      "chip": "ym2612"
    },
    {
      "channel": 4,
      "note": 85,
      "start": 61.3203,
      "duration": 0.1488,
      "velocity": 79,
      "chip": "ym2612"
    },
    {
      "channel": 0,
      "note": 62,
      "start": 61.4277,
      "duration": 0.149,
      "velocity": 111,
      "chip": "ym2612"
    },
    {
      "channel": 2,
      "note": 74,
      "start": 61.4284,
      "duration": 0.1488,
      "velocity": 103,
      "chip": "ym2612"
    },
    {
      "channel": 3,
      "note": 61,
      "start": 61.4289,
      "duration": 0.1485,
      "velocity": 73,
      "chip": "ym2612"
    },
    {
      "channel": 4,
      "note": 79,
      "start": 61.4829,
      "duration": 0.3113,
      "velocity": 79,
      "chip": "ym2612"
    },
    {
      "channel": 0,
      "note": 67,
      "start": 61.5903,
      "duration": 0.1488,
      "velocity": 111,
      "chip": "ym2612"
    },
    {
      "channel": 1,
      "note": 90,
      "start": 61.5907,
      "duration": 0.1485,
      "velocity": 103,
      "chip": "ym2612"
    },
    {
      "channel": 2,
      "note": 73,
      "start": 61.5912,
      "duration": 0.1483,
      "velocity": 103,
      "chip": "ym2612"
    },
    {
      "channel": 3,
      "note": 59,
      "start": 61.5917,
      "duration": 0.1482,
      "velocity": 73,
      "chip": "ym2612"
    },
    {
      "channel": 0,
      "note": 55,
      "start": 61.7528,
      "duration": 0.1489,
      "velocity": 111,
      "chip": "ym2612"
    },
    {
      "channel": 1,
      "note": 88,
      "start": 61.7532,
      "duration": 0.3115,
      "velocity": 103,
      "chip": "ym2612"
    },
    {
      "channel": 2,
      "note": 71,
      "start": 61.7537,
      "duration": 0.1484,
      "velocity": 103,
      "chip": "ym2612"
    },
    {
      "channel": 3,
      "note": 57,
      "start": 61.7542,
      "duration": 0.1482,
      "velocity": 73,
      "chip": "ym2612"
    },
    {
      "channel": 4,
      "note": 79,
      "start": 61.8079,
      "duration": 0.1487,
      "velocity": 79,
      "chip": "ym2612"
    },
    {
      "channel": 0,
      "note": 59,
      "start": 61.9153,
      "duration": 0.1492,
      "velocity": 111,
      "chip": "ym2612"
    },
    {
      "channel": 2,
      "note": 73,
      "start": 61.9159,
      "duration": 0.0673,
      "velocity": 103,
      "chip": "ym2612"
    },
    {
      "channel": 3,
      "note": 55,
      "start": 61.9165,
      "duration": 0.1489,
      "velocity": 73,
      "chip": "ym2612"
    },
    {
      "channel": 4,
      "note": 90,
      "start": 61.9704,
      "duration": 0.3117,
      "velocity": 79,
      "chip": "ym2612"
    },
    {
      "channel": 2,
      "note": 74,
      "start": 61.997,
      "duration": 0.068,
      "velocity": 103,
      "chip": "ym2612"
    },
    {
      "channel": 0,
      "note": 64,
      "start": 62.0778,
      "duration": 0.1488,
      "velocity": 111,
      "chip": "ym2612"
    },
    {
      "channel": 1,
      "note": 83,
      "start": 62.0782,
      "duration": 0.1487,
      "velocity": 103,
      "chip": "ym2612"
    },
    {
      "channel": 2,
      "note": 79,
      "start": 62.0788,
      "duration": 0.1484,
      "velocity": 103,
      "chip": "ym2612"
    },
    {
      "channel": 3,
      "note": 52,
      "start": 62.0793,
      "duration": 0.1482,
      "velocity": 73,
      "chip": "ym2612"
    },
    {
      "channel": 0,
      "note": 67,
      "start": 62.2403,
      "duration": 0.1488,
      "velocity": 111,
      "chip": "ym2612"
    },
    {
      "channel": 1,
      "note": 82,
      "start": 62.2407,
      "duration": 0.1487,
      "velocity": 103,
      "chip": "ym2612"
    },
    {
      "channel": 2,
      "note": 78,
      "start": 62.2412,
      "duration": 0.1485,
      "velocity": 103,
      "chip": "ym2612"
    },
    {
      "channel": 3,
      "note": 64,
      "start": 62.2417,
      "duration": 0.1482,
      "velocity": 73,
      "chip": "ym2612"
    },
    {
      "channel": 4,
      "note": 88,
      "start": 62.2955,
      "duration": 0.1488,
      "velocity": 79,
      "chip": "ym2612"
    },
    {
      "channel": 0,
      "note": 57,
      "start": 62.4029,
      "duration": 0.1488,
      "velocity": 111,
      "chip": "ym2612"
    },
    {
      "channel": 1,
      "note": 81,
      "start": 62.4033,
      "duration": 0.3115,
      "velocity": 103,
      "chip": "ym2612"
    },
    {
      "channel": 2,
      "note": 76,
      "start": 62.4038,
      "duration": 0.3112,
      "velocity": 103,
      "chip": "ym2612"
    },
    {
      "channel": 3,
      "note": 62,
      "start": 62.4043,
      "duration": 0.148,
      "velocity": 73,
      "chip": "ym2612"
    },
    {
      "channel": 4,
      "note": 83,
      "start": 62.458,
      "duration": 0.1488,
      "velocity": 79,
      "chip": "ym2612"
    },
    {
      "channel": 0,
      "note": 61,
      "start": 62.5654,
      "duration": 0.149,
      "velocity": 111,
      "chip": "ym2612"
    },
    {
      "channel": 3,
      "note": 61,
      "start": 62.5663,
      "duration": 0.149,
      "velocity": 73,
      "chip": "ym2612"
    },
    {
      "channel": 4,
      "note": 82,
      "start": 62.6205,
      "duration": 0.3116,
      "velocity": 79,
      "chip": "ym2612"
    },
    {
      "channel": 0,
      "note": 64,
      "start": 62.7278,
      "duration": 0.1489,
      "velocity": 111,
      "chip": "ym2612"
    },
    {
      "channel": 1,
      "note": 81,
      "start": 62.7283,
      "duration": 0.3112,
      "velocity": 103,
      "chip": "ym2612"
    },
    {
      "channel": 2,
      "note": 85,
      "start": 62.7288,
      "duration": 0.311,
      "velocity": 103,
      "chip": "ym2612"
    },
    {
      "channel": 3,
      "note": 59,
      "start": 62.7293,
      "duration": 0.148,
      "velocity": 73,
      "chip": "ym2612"
    },
    {
      "channel": 0,
      "note": 69,
      "start": 62.8903,
      "duration": 0.1489,
      "velocity": 111,
      "chip": "ym2612"
    },
    {
      "channel": 3,
      "note": 57,
      "start": 62.8913,
      "duration": 0.1488,
      "velocity": 73,
      "chip": "ym2612"
    },
    {
      "channel": 4,
      "note": 81,
      "start": 62.9456,
      "duration": 0.3112,
      "velocity": 79,
      "chip": "ym2612"
    },
    {
      "channel": 0,
      "note": 62,
      "start": 63.0529,
      "duration": 0.1488,
      "velocity": 111,
      "chip": "ym2612"
    },
    {
      "channel": 1,
      "note": 90,
      "start": 63.0534,
      "duration": 0.1486,
      "velocity": 103,
      "chip": "ym2612"
    },
    {
      "channel": 2,
      "note": 86,
      "start": 63.0538,
      "duration": 0.3113,
      "velocity": 103,
      "chip": "ym2612"
    },
    {
      "channel": 3,
      "note": 55,
      "start": 63.0544,
      "duration": 0.1481,
      "velocity": 73,
      "chip": "ym2612"
    },
    {
      "channel": 0,
      "note": 66,
      "start": 63.2154,
      "duration": 0.1492,
      "velocity": 111,
      "chip": "ym2612"
    },
    {
      "channel": 1,
      "note": 78,
      "start": 63.2158,
      "duration": 0.3111,
      "velocity": 103,
      "chip": "ym2612"
    },
    {
      "channel": 3,
      "note": 54,
      "start": 63.2166,
      "duration": 0.1488,
      "velocity": 73,
      "chip": "ym2612"
    },
    {
      "channel": 4,
      "note": 85,
      "start": 63.2705,
      "duration": 0.3118,
      "velocity": 79,
      "chip": "ym2612"
    },
    {
      "channel": 0,
      "note": 70,
      "start": 63.3779,
      "duration": 0.1489,
      "velocity": 111,
      "chip": "ym2612"
    },
    {
      "channel": 2,
      "note": 85,
      "start": 63.3785,
      "duration": 0.3112,
      "velocity": 103,
      "chip": "ym2612"
    },
    {
      "channel": 3,
      "note": 57,
      "start": 63.3791,
      "duration": 0.1485,
      "velocity": 73,
      "chip": "ym2612"
    },
    {
      "channel": 0,
      "note": 61,
      "start": 63.5405,
      "duration": 0.1488,
      "velocity": 111,
      "chip": "ym2612"
    },
    {
      "channel": 1,
      "note": 82,
      "start": 63.5409,
      "duration": 0.1486,
      "velocity": 103,
      "chip": "ym2612"
    },
    {
      "channel": 3,
      "note": 58,
      "start": 63.5416,
      "duration": 0.1485,
      "velocity": 73,
      "chip": "ym2612"
    },
    {
      "channel": 4,
      "note": 86,
      "start": 63.5956,
      "duration": 0.3113,
      "velocity": 79,
      "chip": "ym2612"
    },
    {
      "channel": 0,
      "note": 47,
      "start": 63.7049,
      "duration": 0.1469,
      "velocity": 92,
      "chip": "ym2612"
    },
    {
      "channel": 1,
      "note": 83,
      "start": 63.7053,
      "duration": 0.1467,
      "velocity": 103,
      "chip": "ym2612"
    },
    {
      "channel": 2,
      "note": 78,
      "start": 63.7058,
      "duration": 0.3093,
      "velocity": 103,
      "chip": "ym2612"
    },
    {
      "channel": 3,
      "note": 54,
      "start": 63.7063,
      "duration": 0.3092,
      "velocity": 73,
      "chip": "ym2612"
    },
    {
      "channel": 0,
      "note": 49,
      "start": 63.8655,
      "duration": 0.1491,
      "velocity": 92,
      "chip": "ym2612"
    },
    {
      "channel": 1,
      "note": 85,
      "start": 63.866,
      "duration": 0.1489,
      "velocity": 103,
      "chip": "ym2612"
    },
    {
      "channel": 4,
      "note": 85,
      "start": 63.9206,
      "duration": 0.1488,
      "velocity": 79,
      "chip": "ym2612"
    },
    {
      "channel": 0,
      "note": 50,
      "start": 64.028,
      "duration": 0.1489,
      "velocity": 92,
      "chip": "ym2612"
    },
    {
      "channel": 1,
      "note": 86,
      "start": 64.0284,
      "duration": 0.1487,
      "velocity": 103,
      "chip": "ym2612"
    },
    {
      "channel": 2,
      "note": 83,
      "start": 64.0289,
      "duration": 0.1485,
      "velocity": 103,
      "chip": "ym2612"
    },
    {
      "channel": 3,
      "note": 50,
      "start": 64.0295,
      "duration": 0.4731,
      "velocity": 73,
      "chip": "ym2612"
    },
    {
      "channel": 4,
      "note": 83,
      "start": 64.0832,
      "duration": 0.149,
      "velocity": 79,
      "chip": "ym2612"
    },
    {
      "channel": 0,
      "note": 52,
      "start": 64.1905,
      "duration": 0.1487,
      "velocity": 92,
      "chip": "ym2612"
    },
    {
      "channel": 1,
      "note": 88,
      "start": 64.191,
      "duration": 0.1485,
      "velocity": 103,
      "chip": "ym2612"
    },
    {
      "channel": 2,
      "note": 85,
      "start": 64.1914,
      "duration": 0.1483,
      "velocity": 103,
      "chip": "ym2612"
    },
    {
      "channel": 4,
      "note": 85,
      "start": 64.2456,
      "duration": 0.1488,
      "velocity": 79,
      "chip": "ym2612"
    },
    {
      "channel": 0,
      "note": 54,
      "start": 64.3531,
      "duration": 0.1487,
      "velocity": 92,
      "chip": "ym2612"
    },
    {
      "channel": 1,
      "note": 90,
      "start": 64.3536,
      "duration": 0.1485,
      "velocity": 103,
      "chip": "ym2612"
    },
    {
      "channel": 2,
      "note": 82,
      "start": 64.354,
      "duration": 0.1483,
      "velocity": 103,
      "chip": "ym2612"
    },
    {
      "channel": 4,
      "note": 86,
      "start": 64.4082,
      "duration": 0.1488,
      "velocity": 79,
      "chip": "ym2612"
    },
    {
      "channel": 0,
      "note": 47,
      "start": 64.5154,
      "duration": 0.149,
      "velocity": 92,
      "chip": "ym2612"
    },
    {
      "channel": 1,
      "note": 83,
      "start": 64.5159,
      "duration": 0.1489,
      "velocity": 103,
      "chip": "ym2612"
    },
    {
      "channel": 2,
      "note": 78,
      "start": 64.5163,
      "duration": 0.1487,
      "velocity": 103,
      "chip": "ym2612"
    },
    {
      "channel": 3,
      "note": 78,
      "start": 64.5169,
      "duration": 0.0668,
      "velocity": 73,
      "chip": "ym2612"
    },
    {
      "channel": 4,
      "note": 88,
      "start": 64.5707,
      "duration": 0.1487,
      "velocity": 79,
      "chip": "ym2612"
    },
    {
      "channel": 3,
      "note": 79,
      "start": 64.5978,
      "duration": 0.0675,
      "velocity": 73,
      "chip": "ym2612"
    },
    {
      "channel": 0,
      "note": 46,
      "start": 64.678,
      "duration": 0.1489,
      "velocity": 92,
      "chip": "ym2612"
    },
    {
      "channel": 1,
      "note": 82,
      "start": 64.6784,
      "duration": 0.1487,
      "velocity": 103,
      "chip": "ym2612"
    },
    {
      "channel": 2,
      "note": 85,
      "start": 64.6789,
      "duration": 0.0671,
      "velocity": 103,
      "chip": "ym2612"
    },
    {
      "channel": 3,
      "note": 78,
      "start": 64.6795,
      "duration": 0.1481,
      "velocity": 73,
      "chip": "ym2612"
    },
    {
      "channel": 4,
      "note": 90,
      "start": 64.7332,
      "duration": 0.149,
      "velocity": 79,
      "chip": "ym2612"
    },
    {
      "channel": 2,
      "note": 86,
      "start": 64.7597,
      "duration": 0.0676,
      "velocity": 103,
      "chip": "ym2612"
    },
    {
      "channel": 0,
      "note": 55,
      "start": 64.8406,
      "duration": 0.1488,
      "velocity": 92,
      "chip": "ym2612"
    },
    {
      "channel": 1,
      "note": 91,
      "start": 64.841,
      "duration": 0.1487,
      "velocity": 103,
      "chip": "ym2612"
    },
    {
      "channel": 2,
      "note": 88,
      "start": 64.8415,
      "duration": 0.6359,
      "velocity": 103,
      "chip": "ym2612"
    },
    {
      "channel": 3,
      "note": 76,
      "start": 64.842,
      "duration": 0.3107,
      "velocity": 73,
      "chip": "ym2612"
    },
    {
      "channel": 4,
      "note": 83,
      "start": 64.8957,
      "duration": 0.1488,
      "velocity": 79,
      "chip": "ym2612"
    },
    {
      "channel": 0,
      "note": 52,
      "start": 65.003,
      "duration": 0.1489,
      "velocity": 92,
      "chip": "ym2612"
    },
    {
      "channel": 1,
      "note": 88,
      "start": 65.0035,
      "duration": 0.1487,
      "velocity": 103,
      "chip": "ym2612"
    },
    {
      "channel": 4,
      "note": 82,
      "start": 65.0583,
      "duration": 0.1488,
      "velocity": 79,
      "chip": "ym2612"
    },
    {
      "channel": 0,
      "note": 50,
      "start": 65.1656,
      "duration": 0.1488,
      "velocity": 92,
      "chip": "ym2612"
    },
    {
      "channel": 1,
      "note": 86,
      "start": 65.1661,
      "duration": 0.1487,
      "velocity": 103,
      "chip": "ym2612"
    },
    {
      "channel": 3,
      "note": 83,
      "start": 65.1669,
      "duration": 0.1484,
      "velocity": 73,
      "chip": "ym2612"
    },
    {
      "channel": 4,
      "note": 91,
      "start": 65.2209,
      "duration": 0.1487,
      "velocity": 79,
      "chip": "ym2612"
    },
    {
      "channel": 0,
      "note": 49,
      "start": 65.3281,
      "duration": 0.1488,
      "velocity": 92,
      "chip": "ym2612"
    },
    {
      "channel": 1,
      "note": 85,
      "start": 65.3285,
      "duration": 0.1486,
      "velocity": 103,
      "chip": "ym2612"
    },
    {
      "channel": 3,
      "note": 78,
      "start": 65.3293,
      "duration": 0.1484,
      "velocity": 73,
      "chip": "ym2612"
    },
    {
      "channel": 4,
      "note": 88,
      "start": 65.3833,
      "duration": 0.1489,
      "velocity": 79,
      "chip": "ym2612"
    },
    {
      "channel": 0,
      "note": 47,
      "start": 65.4907,
      "duration": 0.1487,
      "velocity": 92,
      "chip": "ym2612"
    },
    {
      "channel": 1,
      "note": 83,
      "start": 65.4912,
      "duration": 0.1485,
      "velocity": 103,
      "chip": "ym2612"
    },
    {
      "channel": 2,
      "note": 74,
      "start": 65.4916,
      "duration": 0.067,
      "velocity": 103,
      "chip": "ym2612"
    },
    {
      "channel": 3,
      "note": 76,
      "start": 65.4921,
      "duration": 0.1481,
      "velocity": 73,
      "chip": "ym2612"
    },
    {
      "channel": 4,
      "note": 86,
      "start": 65.5457,
      "duration": 0.1488,
      "velocity": 79,
      "chip": "ym2612"
    },
    {
      "channel": 2,
      "note": 76,
      "start": 65.5723,
      "duration": 0.0676,
      "velocity": 103,
      "chip": "ym2612"
    },
    {
      "channel": 0,
      "note": 46,
      "start": 65.6532,
      "duration": 0.1489,
      "velocity": 92,
      "chip": "ym2612"
    },
    {
      "channel": 1,
      "note": 82,
      "start": 65.6536,
      "duration": 0.1486,
      "velocity": 103,
      "chip": "ym2612"
    },
    {
      "channel": 2,
      "note": 78,
      "start": 65.6541,
      "duration": 0.1484,
      "velocity": 103,
      "chip": "ym2612"
    },
    {
      "channel": 3,
      "note": 74,
      "start": 65.6546,
      "duration": 0.1482,
      "velocity": 73,
      "chip": "ym2612"
    },
    {
      "channel": 4,
      "note": 85,
      "start": 65.7083,
      "duration": 0.1487,
      "velocity": 79,
      "chip": "ym2612"
    },
    {
      "channel": 0,
      "note": 42,
      "start": 65.8156,
      "duration": 0.1489,
      "velocity": 92,
      "chip": "ym2612"
    },
    {
      "channel": 1,
      "note": 78,
      "start": 65.8161,
      "duration": 0.1488,
      "velocity": 103,
      "chip": "ym2612"
    },
    {
      "channel": 2,
      "note": 76,
      "start": 65.8165,
      "duration": 0.1486,
      "velocity": 103,
      "chip": "ym2612"
    },
    {
      "channel": 3,
      "note": 73,
      "start": 65.8171,
      "duration": 0.0667,
      "velocity": 73,
      "chip": "ym2612"
    },
    {
      "channel": 4,
      "note": 83,
      "start": 65.8708,
      "duration": 0.1488,
      "velocity": 79,
      "chip": "ym2612"
    },
    {
      "channel": 3,
      "note": 74,
      "start": 65.8979,
      "duration": 0.0675,
      "velocity": 73,
      "chip": "ym2612"
    },
    {
      "channel": 0,
      "note": 54,
      "start": 65.9782,
      "duration": 0.1488,
      "velocity": 92,
      "chip": "ym2612"
    },
    {
      "channel": 1,
      "note": 90,
      "start": 65.9786,
      "duration": 0.1486,
      "velocity": 103,
      "chip": "ym2612"
    },
    {
      "channel": 2,
      "note": 78,
      "start": 65.9791,
      "duration": 0.1484,
      "velocity": 103,
      "chip": "ym2612"
    },
    {
      "channel": 3,
      "note": 76,
      "start": 65.9796,
      "duration": 0.3106,
      "velocity": 73,
      "chip": "ym2612"
    },
    {
      "channel": 4,
      "note": 82,
      "start": 66.0333,
      "duration": 0.1488,
      "velocity": 79,
      "chip": "ym2612"
    },
    {
      "channel": 0,
      "note": 52,
      "start": 66.1406,
      "duration": 0.1488,
      "velocity": 92,
      "chip": "ym2612"
    },
    {
      "channel": 1,
      "note": 88,
      "start": 66.1411,
      "duration": 0.1486,
      "velocity": 103,
      "chip": "ym2612"
    },
    {
      "channel": 2,
      "note": 85,
      "start": 66.1415,
      "duration": 0.1484,
      "velocity": 103,
      "chip": "ym2612"
    },
    {
      "channel": 4,
      "note": 78,
      "start": 66.1958,
      "duration": 0.1488,
      "velocity": 79,
      "chip": "ym2612"
    },
    {
      "channel": 0,
      "note": 50,
      "start": 66.3032,
      "duration": 0.1489,
      "velocity": 92,
      "chip": "ym2612"
    },
    {
      "channel": 1,
      "note": 86,
      "start": 66.3036,
      "duration": 0.1487,
      "velocity": 103,
      "chip": "ym2612"
    },
    {
      "channel": 2,
      "note": 79,
      "start": 66.3041,
      "duration": 0.1485,
      "velocity": 103,
      "chip": "ym2612"
    },
    {
      "channel": 3,
      "note": 82,
      "start": 66.3046,
      "duration": 0.1481,
      "velocity": 73,
      "chip": "ym2612"
    },
    {
      "channel": 4,
      "note": 90,
      "start": 66.3584,
      "duration": 0.1487,
      "velocity": 79,
      "chip": "ym2612"
    },
    {
      "channel": 0,
      "note": 49,
      "start": 66.4657,
      "duration": 0.1488,
      "velocity": 92,
      "chip": "ym2612"
    },
    {
      "channel": 1,
      "note": 85,
      "start": 66.4661,
      "duration": 0.1487,
      "velocity": 103,
      "chip": "ym2612"
    },
    {
      "channel": 2,
      "note": 79,
      "start": 66.4666,
      "duration": 0.3109,
      "velocity": 103,
      "chip": "ym2612"
    },
    {
      "channel": 3,
      "note": 83,
      "start": 66.4672,
      "duration": 0.1481,
      "velocity": 73,
      "chip": "ym2612"
    },
    {
      "channel": 4,
      "note": 88,
      "start": 66.5209,
      "duration": 0.1487,
      "velocity": 79,
      "chip": "ym2612"
    },
    {
      "channel": 0,
      "note": 47,
      "start": 66.6282,
      "duration": 0.1488,
      "velocity": 92,
      "chip": "ym2612"
    },
    {
      "channel": 1,
      "note": 83,
      "start": 66.6287,
      "duration": 0.1486,
      "velocity": 103,
      "chip": "ym2612"
    },
    {
      "channel": 3,
      "note": 76,
      "start": 66.6294,
      "duration": 0.1485,
      "velocity": 73,
      "chip": "ym2612"
    },
    {
      "channel": 4,
      "note": 86,
      "start": 66.6833,
      "duration": 0.1489,
      "velocity": 79,
      "chip": "ym2612"
    },
    {
      "channel": 0,
      "note": 45,
      "start": 66.7908,
      "duration": 0.1487,
      "velocity": 92,
      "chip": "ym2612"
    },
    {
      "channel": 1,
      "note": 81,
      "start": 66.7913,
      "duration": 0.1485,
      "velocity": 103,
      "chip": "ym2612"
    },
    {
      "channel": 2,
      "note": 90,
      "start": 66.7917,
      "duration": 0.1483,
      "velocity": 103,
      "chip": "ym2612"
    },
    {
      "channel": 3,
      "note": 74,
      "start": 66.7922,
      "duration": 0.1481,
      "velocity": 73,
      "chip": "ym2612"
    },
    {
      "channel": 4,
      "note": 85,
      "start": 66.8459,
      "duration": 0.1489,
      "velocity": 79,
      "chip": "ym2612"
    },
    {
      "channel": 0,
      "note": 43,
      "start": 66.9533,
      "duration": 0.1488,
      "velocity": 92,
      "chip": "ym2612"
    },
    {
      "channel": 1,
      "note": 79,
      "start": 66.9537,
      "duration": 0.1485,
      "velocity": 103,
      "chip": "ym2612"
    },
    {
      "channel": 2,
      "note": 88,
      "start": 66.9542,
      "duration": 0.311,
      "velocity": 103,
      "chip": "ym2612"
    },
    {
      "channel": 3,
      "note": 73,
      "start": 66.9548,
      "duration": 0.148,
      "velocity": 73,
      "chip": "ym2612"
    },
    {
      "channel": 4,
      "note": 83,
      "start": 67.0083,
      "duration": 0.1488,
      "velocity": 79,
      "chip": "ym2612"
    },
    {
      "channel": 0,
      "note": 40,
      "start": 67.1158,
      "duration": 0.1488,
      "velocity": 92,
      "chip": "ym2612"
    },
    {
      "channel": 1,
      "note": 76,
      "start": 67.1163,
      "duration": 0.1487,
      "velocity": 103,
      "chip": "ym2612"
    },
    {
      "channel": 3,
      "note": 71,
      "start": 67.1171,
      "duration": 0.067,
      "velocity": 73,
      "chip": "ym2612"
    },
    {
      "channel": 4,
      "note": 81,
      "start": 67.171,
      "duration": 0.1487,
      "velocity": 79,
      "chip": "ym2612"
    },
    {
      "channel": 3,
      "note": 73,
      "start": 67.1981,
      "duration": 0.0674,
      "velocity": 73,
      "chip": "ym2612"
    },
    {
      "channel": 0,
      "note": 52,
      "start": 67.2783,
      "duration": 0.1489,
      "velocity": 92,
      "chip": "ym2612"
    },
    {
      "channel": 1,
      "note": 88,
      "start": 67.2788,
      "duration": 0.1486,
      "velocity": 103,
      "chip": "ym2612"
    },
    {
      "channel": 2,
      "note": 83,
      "start": 67.2792,
      "duration": 0.1484,
      "velocity": 103,
      "chip": "ym2612"
    },
    {
      "channel": 3,
      "note": 74,
      "start": 67.2797,
      "duration": 0.1482,
      "velocity": 73,
      "chip": "ym2612"
    },
    {
      "channel": 4,
      "note": 79,
      "start": 67.3334,
      "duration": 0.1489,
      "velocity": 79,
      "chip": "ym2612"
    },
    {
      "channel": 0,
      "note": 50,
      "start": 67.4408,
      "duration": 0.1487,
      "velocity": 92,
      "chip": "ym2612"
    },
    {
      "channel": 1,
      "note": 86,
      "start": 67.4413,
      "duration": 0.1485,
      "velocity": 103,
      "chip": "ym2612"
    },
    {
      "channel": 2,
      "note": 82,
      "start": 67.4417,
      "duration": 0.1483,
      "velocity": 103,
      "chip": "ym2612"
    },
    {
      "channel": 3,
      "note": 79,
      "start": 67.4423,
      "duration": 0.148,
      "velocity": 73,
      "chip": "ym2612"
    },
    {
      "channel": 4,
      "note": 76,
      "start": 67.4959,
      "duration": 0.1488,
      "velocity": 79,
      "chip": "ym2612"
    },
    {
      "channel": 0,
      "note": 49,
      "start": 67.6033,
      "duration": 0.1489,
      "velocity": 92,
      "chip": "ym2612"
    },
    {
      "channel": 1,
      "note": 85,
      "start": 67.6037,
      "duration": 0.1487,
      "velocity": 103,
      "chip": "ym2612"
    },
    {
      "channel": 2,
      "note": 81,
      "start": 67.6042,
      "duration": 0.3111,
      "velocity": 103,
      "chip": "ym2612"
    },
    {
      "channel": 3,
      "note": 78,
      "start": 67.6048,
      "duration": 0.3108,
      "velocity": 73,
      "chip": "ym2612"
    },
    {
      "channel": 4,
      "note": 88,
      "start": 67.6585,
      "duration": 0.1487,
      "velocity": 79,
      "chip": "ym2612"
    },
    {
      "channel": 0,
      "note": 47,
      "start": 67.7659,
      "duration": 0.1489,
      "velocity": 92,
      "chip": "ym2612"
    },
    {
      "channel": 1,
      "note": 83,
      "start": 67.7663,
      "duration": 0.1487,
      "velocity": 103,
      "chip": "ym2612"
    },
    {
      "channel": 4,
      "note": 86,
      "start": 67.8209,
      "duration": 0.1488,
      "velocity": 79,
      "chip": "ym2612"
    },
    {
      "channel": 0,
      "note": 45,
      "start": 67.9284,
      "duration": 0.1488,
      "velocity": 92,
      "chip": "ym2612"
    },
    {
      "channel": 1,
      "note": 81,
      "start": 67.9289,
      "duration": 0.1486,
      "velocity": 103,
      "chip": "ym2612"
    },
    {
      "channel": 2,
      "note": 81,
      "start": 67.9293,
      "duration": 0.3108,
      "velocity": 103,
      "chip": "ym2612"
    },
    {
      "channel": 3,
      "note": 76,
      "start": 67.9298,
      "duration": 0.3106,
      "velocity": 73,
      "chip": "ym2612"
    },
    {
      "channel": 4,
      "note": 85,
      "start": 67.9835,
      "duration": 0.1489,
      "velocity": 79,
      "chip": "ym2612"
    },
    {
      "channel": 0,
      "note": 43,
      "start": 68.091,
      "duration": 0.1487,
      "velocity": 92,
      "chip": "ym2612"
    },
    {
      "channel": 1,
      "note": 79,
      "start": 68.0914,
      "duration": 0.1485,
      "velocity": 103,
      "chip": "ym2612"
    },
    {
      "channel": 4,
      "note": 83,
      "start": 68.146,
      "duration": 0.1489,
      "velocity": 79,
      "chip": "ym2612"
    },
    {
      "channel": 0,
      "note": 42,
      "start": 68.2534,
      "duration": 0.0947,
      "velocity": 92,
      "chip": "ym2612"
    },
    {
      "channel": 1,
      "note": 78,
      "start": 68.2539,
      "duration": 0.0945,
      "velocity": 103,
      "chip": "ym2612"
    },
    {
      "channel": 2,
      "note": 90,
      "start": 68.2543,
      "duration": 0.0943,
      "velocity": 103,
      "chip": "ym2612"
    },
    {
      "channel": 3,
      "note": 85,
      "start": 68.2549,
      "duration": 0.3105,
      "velocity": 73,
      "chip": "ym2612"
    },
    {
      "channel": 4,
      "note": 81,
      "start": 68.3085,
      "duration": 0.149,
      "velocity": 79,
      "chip": "ym2612"
    },
    {
      "channel": 0,
      "note": 54,
      "start": 68.3618,
      "duration": 0.0946,
      "velocity": 92,
      "chip": "ym2612"
    },
    {
      "channel": 1,
      "note": 90,
      "start": 68.3622,
      "duration": 0.0945,
      "velocity": 103,
      "chip": "ym2612"
    },
    {
      "channel": 2,
      "note": 78,
      "start": 68.3627,
      "duration": 0.4193,
      "velocity": 103,
      "chip": "ym2612"
    },
    {
      "channel": 0,
      "note": 45,
      "start": 68.4701,
      "duration": 0.0946,
      "velocity": 92,
      "chip": "ym2612"
    },
    {
      "channel": 1,
      "note": 81,
      "start": 68.4705,
      "duration": 0.0945,
      "velocity": 103,
      "chip": "ym2612"
    },
    {
      "channel": 4,
      "note": 79,
      "start": 68.4715,
      "duration": 0.0943,
      "velocity": 79,
      "chip": "ym2612"
    },
    {
      "channel": 0,
      "note": 46,
      "start": 68.5785,
      "duration": 0.0945,
      "velocity": 92,
      "chip": "ym2612"
    },
    {
      "channel": 1,
      "note": 82,
      "start": 68.5789,
      "duration": 0.0943,
      "velocity": 103,
      "chip": "ym2612"
    },
    {
      "channel": 3,
      "note": 86,
      "start": 68.5797,
      "duration": 0.3109,
      "velocity": 73,
      "chip": "ym2612"
    },
    {
      "channel": 4,
      "note": 78,
      "start": 68.5803,
      "duration": 0.0938,
      "velocity": 79,
      "chip": "ym2612"
    },
    {
      "channel": 0,
      "note": 58,
      "start": 68.6867,
      "duration": 0.0947,
      "velocity": 92,
      "chip": "ym2612"
    },
    {
      "channel": 1,
      "note": 94,
      "start": 68.6871,
      "duration": 0.0945,
      "velocity": 103,
      "chip": "ym2612"
    },
    {
      "channel": 4,
      "note": 90,
      "start": 68.6882,
      "duration": 0.0943,
      "velocity": 79,
      "chip": "ym2612"
    },
    {
      "channel": 0,
      "note": 42,
      "start": 68.7952,
      "duration": 0.0946,
      "velocity": 92,
      "chip": "ym2612"
    },
    {
      "channel": 1,
      "note": 78,
      "start": 68.7956,
      "duration": 0.0945,
      "velocity": 103,
      "chip": "ym2612"
    },
    {
      "channel": 2,
      "note": 82,
      "start": 68.7961,
      "duration": 0.0942,
      "velocity": 103,
      "chip": "ym2612"
    },
    {
      "channel": 4,
      "note": 81,
      "start": 68.7968,
      "duration": 0.0941,
      "velocity": 79,
      "chip": "ym2612"
    },
    {
      "channel": 0,
      "note": 50,
      "start": 68.9034,
      "duration": 0.1759,
      "velocity": 92,
      "chip": "ym2612"
    },
    {
      "channel": 1,
      "note": 86,
      "start": 68.9056,
      "duration": 0.0928,
      "velocity": 107,
      "chip": "ym2612"
    },
    {
      "channel": 2,
      "note": 83,
      "start": 68.9078,
      "duration": 0.0909,
      "velocity": 107,
      "chip": "ym2612"
    },
    {
      "channel": 3,
      "note": 85,
      "start": 68.9083,
      "duration": 0.3073,
      "velocity": 73,
      "chip": "ym2612"
    },
    {
      "channel": 4,
      "note": 82,
      "start": 68.9089,
      "duration": 0.0903,
      "velocity": 79,
      "chip": "ym2612"
    },
    {
      "channel": 4,
      "note": 94,
      "start": 69.013,
      "duration": 0.0944,
      "velocity": 79,
      "chip": "ym2612"
    },
    {
      "channel": 1,
      "note": 86,
      "start": 69.0662,
      "duration": 0.0946,
      "velocity": 107,
      "chip": "ym2612"
    },
    {
      "channel": 2,
      "note": 83,
      "start": 69.0667,
      "duration": 0.0944,
      "velocity": 107,
      "chip": "ym2612"
    },
    {
      "channel": 4,
      "note": 78,
      "start": 69.1237,
      "duration": 0.0983,
      "velocity": 92,
      "chip": "ym2612"
    }
  ]
}