{
  "track_name": "07 - Unknown (Sound Test 03)",
  "duration_sec": 87.875,
  "sample_rate": 44100,
  "note_count": 976,
  "unique_pitches": 33,
  "pitch_range": 49,
  "avg_note_duration": 0.2236,
  "reconstruction_stats": {
    "notes_reconstructed": 976,
    "keyon_events": 976,
    "keyoff_events": 974,
    "orphan_keyons": 2,
    "unique_pitches": 33,
    "pitch_range": 49,
    "avg_duration_sec": 0.2236
  },
  "metadata": {
    "source": "D\\Dinosaurs for Hire\\07 - Unknown (Sound Test 03).vgm"
  },
  "notes": [
    {
      "channel": 0,
      "note": 48,
      "start": 0.0079,
      "duration": 0.06,
      "velocity": 92,
      "chip": "ym2612"
    },
    {
      "channel": 1,
      "note": 67,
      "start": 0.0139,
      "duration": 1.1444,
      "velocity": 106,
      "chip": "ym2612"
    },
    {
      "channel": 3,
      "note": 60,
      "start": 0.0169,
      "duration": 1.1418,
      "velocity": 106,
      "chip": "ym2612"
    },
    {
      "channel": 0,
      "note": 48,
      "start": 0.2077,
      "duration": 0.0748,
      "velocity": 92,
      "chip": "ym2612"
    },
    {
      "channel": 0,
      "note": 48,
      "start": 0.4222,
      "duration": 0.0923,
      "velocity": 92,
      "chip": "ym2612"
    },
    {
      "channel": 0,
      "note": 48,
      "start": 0.6541,
      "duration": 0.0745,
      "velocity": 92,
      "chip": "ym2612"
    },
    {
      "channel": 0,
      "note": 48,
      "start": 0.8682,
      "duration": 0.0921,
      "velocity": 92,
      "chip": "ym2612"
    },
    {
      "channel": 0,
      "note": 48,
      "start": 1.1,
      "duration": 0.0583,
      "velocity": 92,
      "chip": "ym2612"
    },
    {
      "channel": 0,
      "note": 51,
      "start": 1.3155,
      "duration": 0.0925,
      "velocity": 92,
      "chip": "ym2612"
    },
    {
      "channel": 1,
      "note": 65,
      "start": 1.3181,
      "duration": 0.2131,
      "velocity": 106,
      "chip": "ym2612"
    },
    {
      "channel": 3,
      "note": 58,
      "start": 1.3207,
      "duration": 0.2106,
      "velocity": 106,
      "chip": "ym2612"
    },
    {
      "channel": 0,
      "note": 50,
      "start": 1.4145,
      "duration": 0.158,
      "velocity": 92,
      "chip": "ym2612"
    },
    {
      "channel": 0,
      "note": 46,
      "start": 1.5792,
      "duration": 0.2421,
      "velocity": 92,
      "chip": "ym2612"
    },
    {
      "channel": 1,
      "note": 58,
      "start": 1.5816,
      "duration": 0.1732,
      "velocity": 106,
      "chip": "ym2612"
    },
    {
      "channel": 3,
      "note": 65,
      "start": 1.5843,
      "duration": 0.1707,
      "velocity": 106,
      "chip": "ym2612"
    },
    {
      "channel": 0,
      "note": 48,
      "start": 1.828,
      "duration": 0.0923,
      "velocity": 92,
      "chip": "ym2612"
    },
    {
      "channel": 1,
      "note": 67,
      "start": 1.8307,
      "duration": 0.0229,
      "velocity": 106,
      "chip": "ym2612"
    },
    {
      "channel": 3,
      "note": 60,
      "start": 1.8332,
      "duration": 0.0204,
      "velocity": 106,
      "chip": "ym2612"
    },
    {
      "channel": 0,
      "note": 48,
      "start": 1.9269,
      "duration": 0.0584,
      "velocity": 92,
      "chip": "ym2612"
    },
    {
      "channel": 1,
      "note": 67,
      "start": 1.9299,
      "duration": 0.0556,
      "velocity": 106,
      "chip": "ym2612"
    },
    {
      "channel": 3,
      "note": 60,
      "start": 1.9324,
      "duration": 0.0533,
      "velocity": 106,
      "chip": "ym2612"
    },
    {
      "channel": 0,
      "note": 48,
      "start": 2.1251,
      "duration": 0.1088,
      "velocity": 92,
      "chip": "ym2612"
    },
    {
      "channel": 1,
      "note": 60,
      "start": 2.1274,
      "duration": 0.1066,
      "velocity": 106,
      "chip": "ym2612"
    },
    {
      "channel": 3,
      "note": 67,
      "start": 2.1298,
      "duration": 0.1044,
      "velocity": 106,
      "chip": "ym2612"
    },
    {
      "channel": 0,
      "note": 48,
      "start": 2.3735,
      "duration": 0.0586,
      "velocity": 92,
      "chip": "ym2612"
    },
    {
      "channel": 0,
      "note": 48,
      "start": 2.5718,
      "duration": 0.092,
      "velocity": 92,
      "chip": "ym2612"
    },
    {
      "channel": 0,
      "note": 48,
      "start": 2.8201,
      "duration": 0.0582,
      "velocity": 92,
      "chip": "ym2612"
    },
    {
      "channel": 0,
      "note": 48,
      "start": 3.0182,
      "duration": 0.0922,
      "velocity": 92,
      "chip": "ym2612"
    },
    {
      "channel": 0,
      "note": 43,
      "start": 3.1169,
      "duration": 0.0925,
      "velocity": 92,
      "chip": "ym2612"
    },
    {
      "channel": 1,
      "note": 60,
      "start": 3.1192,
      "duration": 0.0903,
      "velocity": 106,
      "chip": "ym2612"
    },
    {
      "channel": 3,
      "note": 63,
      "start": 3.1218,
      "duration": 0.088,
      "velocity": 106,
      "chip": "ym2612"
    },
    {
      "channel": 0,
      "note": 46,
      "start": 3.2994,
      "duration": 0.2254,
      "velocity": 92,
      "chip": "ym2612"
    },
    {
      "channel": 1,
      "note": 62,
      "start": 3.3023,
      "duration": 1.2798,
      "velocity": 106,
      "chip": "ym2612"
    },
    {
      "channel": 3,
      "note": 58,
      "start": 3.3051,
      "duration": 1.2773,
      "velocity": 106,
      "chip": "ym2612"
    },
    {
      "channel": 0,
      "note": 48,
      "start": 3.5316,
      "duration": 0.0921,
      "velocity": 92,
      "chip": "ym2612"
    },
    {
      "channel": 0,
      "note": 46,
      "start": 3.6304,
      "duration": 0.075,
      "velocity": 92,
      "chip": "ym2612"
    },
    {
      "channel": 0,
      "note": 46,
      "start": 3.845,
      "duration": 0.0924,
      "velocity": 92,
      "chip": "ym2612"
    },
    {
      "channel": 0,
      "note": 46,
      "start": 4.0772,
      "duration": 0.0582,
      "velocity": 92,
      "chip": "ym2612"
    },
    {
      "channel": 0,
      "note": 46,
      "start": 4.2918,
      "duration": 0.0922,
      "velocity": 92,
      "chip": "ym2612"
    },
    {
      "channel": 0,
      "note": 43,
      "start": 4.5238,
      "duration": 0.0582,
      "velocity": 92,
      "chip": "ym2612"
    },
    {
      "channel": 0,
      "note": 51,
      "start": 4.7219,
      "duration": 0.1094,
      "velocity": 92,
      "chip": "ym2612"
    },
    {
      "channel": 1,
      "note": 58,
      "start": 4.7246,
      "duration": 0.231,
      "velocity": 106,
      "chip": "ym2612"
    },
    {
      "channel": 3,
      "note": 62,
      "start": 4.7273,
      "duration": 0.2283,
      "velocity": 106,
      "chip": "ym2612"
    },
    {
      "channel": 0,
      "note": 50,
      "start": 4.8382,
      "duration": 0.1561,
      "velocity": 92,
      "chip": "ym2612"
    },
    {
      "channel": 0,
      "note": 46,
      "start": 5.0012,
      "duration": 0.2418,
      "velocity": 92,
      "chip": "ym2612"
    },
    {
      "channel": 1,
      "note": 58,
      "start": 5.0039,
      "duration": 0.1558,
      "velocity": 106,
      "chip": "ym2612"
    },
    {
      "channel": 3,
      "note": 62,
      "start": 5.0066,
      "duration": 0.1533,
      "velocity": 106,
      "chip": "ym2612"
    },
    {
      "channel": 0,
      "note": 48,
      "start": 5.2497,
      "duration": 0.0925,
      "velocity": 92,
      "chip": "ym2612"
    },
    {
      "channel": 1,
      "note": 60,
      "start": 5.2526,
      "duration": 0.0229,
      "velocity": 106,
      "chip": "ym2612"
    },
    {
      "channel": 3,
      "note": 63,
      "start": 5.2551,
      "duration": 0.0206,
      "velocity": 106,
      "chip": "ym2612"
    },
    {
      "channel": 0,
      "note": 48,
      "start": 5.3487,
      "duration": 0.0582,
      "velocity": 92,
      "chip": "ym2612"
    },
    {
      "channel": 1,
      "note": 60,
      "start": 5.3514,
      "duration": 0.0556,
      "velocity": 106,
      "chip": "ym2612"
    },
    {
      "channel": 3,
      "note": 63,
      "start": 5.3541,
      "duration": 0.0532,
      "velocity": 106,
      "chip": "ym2612"
    },
    {
      "channel": 0,
      "note": 48,
      "start": 5.5466,
      "duration": 0.0923,
      "velocity": 92,
      "chip": "ym2612"
    },
    {
      "channel": 1,
      "note": 60,
      "start": 5.549,
      "duration": 0.09,
      "velocity": 106,
      "chip": "ym2612"
    },
    {
      "channel": 3,
      "note": 63,
      "start": 5.5514,
      "duration": 0.0878,
      "velocity": 106,
      "chip": "ym2612"
    },
    {
      "channel": 0,
      "note": 48,
      "start": 5.7953,
      "duration": 0.0578,
      "velocity": 92,
      "chip": "ym2612"
    },
    {
      "channel": 0,
      "note": 55,
      "start": 5.9927,
      "duration": 0.092,
      "velocity": 92,
      "chip": "ym2612"
    },
    {
      "channel": 0,
      "note": 53,
      "start": 6.2244,
      "duration": 0.0749,
      "velocity": 92,
      "chip": "ym2612"
    },
    {
      "channel": 1,
      "note": 60,
      "start": 6.2267,
      "duration": 0.0727,
      "velocity": 106,
      "chip": "ym2612"
    },
    {
      "channel": 3,
      "note": 63,
      "start": 6.2291,
      "duration": 0.0705,
      "velocity": 106,
      "chip": "ym2612"
    },
    {
      "channel": 0,
      "note": 51,
      "start": 6.4391,
      "duration": 0.092,
      "velocity": 92,
      "chip": "ym2612"
    },
    {
      "channel": 0,
      "note": 50,
      "start": 6.5374,
      "duration": 0.0929,
      "velocity": 92,
      "chip": "ym2612"
    },
    {
      "channel": 1,
      "note": 58,
      "start": 6.5401,
      "duration": 0.0903,
      "velocity": 106,
      "chip": "ym2612"
    },
    {
      "channel": 3,
      "note": 62,
      "start": 6.5428,
      "duration": 0.0878,
      "velocity": 106,
      "chip": "ym2612"
    },
    {
      "channel": 0,
      "note": 46,
      "start": 6.6372,
      "duration": 0.0747,
      "velocity": 92,
      "chip": "ym2612"
    },
    {
      "channel": 0,
      "note": 46,
      "start": 6.7187,
      "duration": 0.2254,
      "velocity": 92,
      "chip": "ym2612"
    },
    {
      "channel": 1,
      "note": 60,
      "start": 6.7213,
      "duration": 1.2786,
      "velocity": 106,
      "chip": "ym2612"
    },
    {
      "channel": 3,
      "note": 63,
      "start": 6.7239,
      "duration": 1.2763,
      "velocity": 106,
      "chip": "ym2612"
    },
    {
      "channel": 0,
      "note": 48,
      "start": 6.9512,
      "duration": 0.0917,
      "velocity": 92,
      "chip": "ym2612"
    },
    {
      "channel": 0,
      "note": 48,
      "start": 7.0494,
      "duration": 0.0584,
      "velocity": 92,
      "chip": "ym2612"
    },
    {
      "channel": 0,
      "note": 48,
      "start": 7.2641,
      "duration": 0.0919,
      "velocity": 92,
      "chip": "ym2612"
    },
    {
      "channel": 0,
      "note": 48,
      "start": 7.4956,
      "duration": 0.0581,
      "velocity": 92,
      "chip": "ym2612"
    },
    {
      "channel": 0,
      "note": 48,
      "start": 7.6933,
      "duration": 0.109,
      "velocity": 92,
      "chip": "ym2612"
    },
    {
      "channel": 0,
      "note": 48,
      "start": 7.9419,
      "duration": 0.0579,
      "velocity": 92,
      "chip": "ym2612"
    },
    {
      "channel": 0,
      "note": 51,
      "start": 8.1396,
      "duration": 0.1092,
      "velocity": 92,
      "chip": "ym2612"
    },
    {
      "channel": 1,
      "note": 58,
      "start": 8.1423,
      "duration": 0.2308,
      "velocity": 106,
      "chip": "ym2612"
    },
    {
      "channel": 3,
      "note": 65,
      "start": 8.145,
      "duration": 0.2282,
      "velocity": 106,
      "chip": "ym2612"
    },
    {
      "channel": 0,
      "note": 50,
      "start": 8.2557,
      "duration": 0.1562,
      "velocity": 92,
      "chip": "ym2612"
    },
    {
      "channel": 0,
      "note": 46,
      "start": 8.4183,
      "duration": 0.226,
      "velocity": 92,
      "chip": "ym2612"
    },
    {
      "channel": 1,
      "note": 58,
      "start": 8.4212,
      "duration": 0.1566,
      "velocity": 106,
      "chip": "ym2612"
    },
    {
      "channel": 3,
      "note": 65,
      "start": 8.4238,
      "duration": 0.1541,
      "velocity": 106,
      "chip": "ym2612"
    },
    {
      "channel": 0,
      "note": 48,
      "start": 8.651,
      "duration": 0.1093,
      "velocity": 92,
      "chip": "ym2612"
    },
    {
      "channel": 1,
      "note": 60,
      "start": 8.6538,
      "duration": 0.0233,
      "velocity": 106,
      "chip": "ym2612"
    },
    {
      "channel": 3,
      "note": 67,
      "start": 8.6565,
      "duration": 0.0207,
      "velocity": 106,
      "chip": "ym2612"
    },
    {
      "channel": 0,
      "note": 48,
      "start": 8.7673,
      "duration": 0.0581,
      "velocity": 92,
      "chip": "ym2612"
    },
    {
      "channel": 1,
      "note": 67,
      "start": 8.7701,
      "duration": 0.0554,
      "velocity": 106,
      "chip": "ym2612"
    },
    {
      "channel": 3,
      "note": 60,
      "start": 8.7727,
      "duration": 0.0531,
      "velocity": 106,
      "chip": "ym2612"
    },
    {
      "channel": 0,
      "note": 48,
      "start": 8.9649,
      "duration": 0.0925,
      "velocity": 92,
      "chip": "ym2612"
    },
    {
      "channel": 1,
      "note": 60,
      "start": 8.9678,
      "duration": 0.1565,
      "velocity": 106,
      "chip": "ym2612"
    },
    {
      "channel": 3,
      "note": 67,
      "start": 8.9703,
      "duration": 0.1541,
      "velocity": 106,
      "chip": "ym2612"
    },
    {
      "channel": 0,
      "note": 48,
      "start": 9.1971,
      "duration": 0.0751,
      "velocity": 92,
      "chip": "ym2612"
    },
    {
      "channel": 0,
      "note": 48,
      "start": 9.412,
      "duration": 0.0923,
      "velocity": 92,
      "chip": "ym2612"
    },
    {
      "channel": 1,
      "note": 67,
      "start": 9.4142,
      "duration": 0.1566,
      "velocity": 106,
      "chip": "ym2612"
    },
    {
      "channel": 3,
      "note": 60,
      "start": 9.4167,
      "duration": 0.1545,
      "velocity": 106,
      "chip": "ym2612"
    },
    {
      "channel": 0,
      "note": 48,
      "start": 9.6436,
      "duration": 0.075,
      "velocity": 92,
      "chip": "ym2612"
    },
    {
      "channel": 1,
      "note": 62,
      "start": 9.7221,
      "duration": 0.1623,
      "velocity": 106,
      "chip": "ym2612"
    },
    {
      "channel": 3,
      "note": 65,
      "start": 9.7247,
      "duration": 0.1598,
      "velocity": 106,
      "chip": "ym2612"
    },
    {
      "channel": 0,
      "note": 48,
      "start": 9.8587,
      "duration": 0.0922,
      "velocity": 92,
      "chip": "ym2612"
    },
    {
      "channel": 0,
      "note": 43,
      "start": 9.9573,
      "duration": 0.092,
      "velocity": 92,
      "chip": "ym2612"
    },
    {
      "channel": 1,
      "note": 58,
      "start": 10.0561,
      "duration": 0.0587,
      "velocity": 106,
      "chip": "ym2612"
    },
    {
      "channel": 3,
      "note": 63,
      "start": 10.0588,
      "duration": 0.0563,
      "velocity": 106,
      "chip": "ym2612"
    },
    {
      "channel": 0,
      "note": 46,
      "start": 10.122,
      "duration": 0.2418,
      "velocity": 92,
      "chip": "ym2612"
    },
    {
      "channel": 1,
      "note": 58,
      "start": 10.2343,
      "duration": 1.5337,
      "velocity": 106,
      "chip": "ym2612"
    },
    {
      "channel": 3,
      "note": 63,
      "start": 10.237,
      "duration": 0.8705,
      "velocity": 106,
      "chip": "ym2612"
    },
    {
      "channel": 0,
      "note": 41,
      "start": 10.3706,
      "duration": 0.0922,
      "velocity": 92,
      "chip": "ym2612"
    },
    {
      "channel": 0,
      "note": 46,
      "start": 10.4694,
      "duration": 0.058,
      "velocity": 92,
      "chip": "ym2612"
    },
    {
      "channel": 0,
      "note": 46,
      "start": 10.6671,
      "duration": 0.1088,
      "velocity": 92,
      "chip": "ym2612"
    },
    {
      "channel": 0,
      "note": 46,
      "start": 10.9158,
      "duration": 0.0581,
      "velocity": 92,
      "chip": "ym2612"
    },
    {
      "channel": 0,
      "note": 46,
      "start": 11.1137,
      "duration": 0.1089,
      "velocity": 92,
      "chip": "ym2612"
    },
    {
      "channel": 3,
      "note": 62,
      "start": 11.1162,
      "duration": 0.6519,
      "velocity": 106,
      "chip": "ym2612"
    },
    {
      "channel": 0,
      "note": 43,
      "start": 11.3622,
      "duration": 0.0581,
      "velocity": 92,
      "chip": "ym2612"
    },
    {
      "channel": 0,
      "note": 51,
      "start": 11.5602,
      "duration": 0.0921,
      "velocity": 92,
      "chip": "ym2612"
    },
    {
      "channel": 0,
      "note": 50,
      "start": 11.659,
      "duration": 0.1755,
      "velocity": 92,
      "chip": "ym2612"
    },
    {
      "channel": 0,
      "note": 46,
      "start": 11.8414,
      "duration": 0.2257,
      "velocity": 92,
      "chip": "ym2612"
    },
    {
      "channel": 1,
      "note": 58,
      "start": 11.8441,
      "duration": 0.1564,
      "velocity": 106,
      "chip": "ym2612"
    },
    {
      "channel": 3,
      "note": 65,
      "start": 11.8466,
      "duration": 0.154,
      "velocity": 106,
      "chip": "ym2612"
    },
    {
      "channel": 0,
      "note": 48,
      "start": 12.0738,
      "duration": 0.0926,
      "velocity": 92,
      "chip": "ym2612"
    },
    {
      "channel": 1,
      "note": 60,
      "start": 12.0766,
      "duration": 0.023,
      "velocity": 106,
      "chip": "ym2612"
    },
    {
      "channel": 3,
      "note": 67,
      "start": 12.0792,
      "duration": 0.0207,
      "velocity": 106,
      "chip": "ym2612"
    },
    {
      "channel": 0,
      "note": 48,
      "start": 12.1729,
      "duration": 0.075,
      "velocity": 92,
      "chip": "ym2612"
    },
    {
      "channel": 1,
      "note": 60,
      "start": 12.1756,
      "duration": 0.0725,
      "velocity": 106,
      "chip": "ym2612"
    },
    {
      "channel": 3,
      "note": 67,
      "start": 12.1783,
      "duration": 0.07,
      "velocity": 106,
      "chip": "ym2612"
    },
    {
      "channel": 0,
      "note": 48,
      "start": 12.3875,
      "duration": 0.0927,
      "velocity": 92,
      "chip": "ym2612"
    },
    {
      "channel": 1,
      "note": 67,
      "start": 12.3899,
      "duration": 0.0903,
      "velocity": 106,
      "chip": "ym2612"
    },
    {
      "channel": 3,
      "note": 60,
      "start": 12.3923,
      "duration": 0.0882,
      "velocity": 106,
      "chip": "ym2612"
    },
    {
      "channel": 0,
      "note": 48,
      "start": 12.6198,
      "duration": 0.0748,
      "velocity": 92,
      "chip": "ym2612"
    },
    {
      "channel": 0,
      "note": 55,
      "start": 12.9329,
      "duration": 0.0583,
      "velocity": 92,
      "chip": "ym2612"
    },
    {
      "channel": 1,
      "note": 72,
      "start": 12.9353,
      "duration": 0.056,
      "velocity": 106,
      "chip": "ym2612"
    },
    {
      "channel": 0,
      "note": 53,
      "start": 12.9977,
      "duration": 0.0581,
      "velocity": 92,
      "chip": "ym2612"
    },
    {
      "channel": 1,
      "note": 70,
      "start": 13.0002,
      "duration": 0.0558,
      "velocity": 106,
      "chip": "ym2612"
    },
    {
      "channel": 0,
      "note": 51,
      "start": 13.0622,
      "duration": 0.0751,
      "velocity": 92,
      "chip": "ym2612"
    },
    {
      "channel": 1,
      "note": 68,
      "start": 13.0646,
      "duration": 0.0728,
      "velocity": 106,
      "chip": "ym2612"
    },
    {
      "channel": 0,
      "note": 50,
      "start": 13.1437,
      "duration": 0.0581,
      "velocity": 92,
      "chip": "ym2612"
    },
    {
      "channel": 1,
      "note": 67,
      "start": 13.146,
      "duration": 0.0559,
      "velocity": 106,
      "chip": "ym2612"
    },
    {
      "channel": 0,
      "note": 48,
      "start": 13.2083,
      "duration": 0.0583,
      "velocity": 92,
      "chip": "ym2612"
    },
    {
      "channel": 1,
      "note": 65,
      "start": 13.2106,
      "duration": 0.0561,
      "velocity": 106,
      "chip": "ym2612"
    },
    {
      "channel": 0,
      "note": 46,
      "start": 13.273,
      "duration": 0.0582,
      "velocity": 92,
      "chip": "ym2612"
    },
    {
      "channel": 1,
      "note": 63,
      "start": 13.2753,
      "duration": 0.0561,
      "velocity": 106,
      "chip": "ym2612"
    },
    {
      "channel": 0,
      "note": 43,
      "start": 13.3381,
      "duration": 0.0583,
      "velocity": 92,
      "chip": "ym2612"
    },
    {
      "channel": 1,
      "note": 62,
      "start": 13.3405,
      "duration": 0.0561,
      "velocity": 106,
      "chip": "ym2612"
    },
    {
      "channel": 4,
      "note": 48,
      "start": 13.4121,
      "duration": 0.0951,
      "velocity": 92,
      "chip": "ym2612"
    },
    {
      "channel": 2,
      "note": 67,
      "start": 13.4183,
      "duration": 1.181,
      "velocity": 106,
      "chip": "ym2612"
    },
    {
      "channel": 3,
      "note": 60,
      "start": 13.4214,
      "duration": 1.1775,
      "velocity": 106,
      "chip": "ym2612"
    },
    {
      "channel": 0,
      "note": 85,
      "start": 13.4338,
      "duration": 0.2065,
      "velocity": 106,
      "chip": "ym2612"
    },
    {
      "channel": 4,
      "note": 48,
      "start": 13.6469,
      "duration": 0.0587,
      "velocity": 92,
      "chip": "ym2612"
    },
    {
      "channel": 0,
      "note": 79,
      "start": 13.6497,
      "duration": 0.0557,
      "velocity": 106,
      "chip": "ym2612"
    },
    {
      "channel": 0,
      "note": 81,
      "start": 13.7107,
      "duration": 1.0215,
      "velocity": 106,
      "chip": "ym2612"
    },
    {
      "channel": 4,
      "note": 48,
      "start": 13.8452,
      "duration": 0.1092,
      "velocity": 92,
      "chip": "ym2612"
    },
    {
      "channel": 4,
      "note": 48,
      "start": 14.0939,
      "duration": 0.0584,
      "velocity": 92,
      "chip": "ym2612"
    },
    {
      "channel": 4,
      "note": 48,
      "start": 14.292,
      "duration": 0.0926,
      "velocity": 92,
      "chip": "ym2612"
    },
    {
      "channel": 4,
      "note": 48,
      "start": 14.5409,
      "duration": 0.0583,
      "velocity": 92,
      "chip": "ym2612"
    },
    {
      "channel": 4,
      "note": 51,
      "start": 14.7397,
      "duration": 0.0924,
      "velocity": 92,
      "chip": "ym2612"
    },
    {
      "channel": 3,
      "note": 65,
      "start": 14.7423,
      "duration": 0.2187,
      "velocity": 106,
      "chip": "ym2612"
    },
    {
      "channel": 2,
      "note": 58,
      "start": 14.745,
      "duration": 0.2161,
      "velocity": 106,
      "chip": "ym2612"
    },
    {
      "channel": 0,
      "note": 82,
      "start": 14.7475,
      "duration": 0.2668,
      "velocity": 106,
      "chip": "ym2612"
    },
    {
      "channel": 4,
      "note": 50,
      "start": 14.8387,
      "duration": 0.1759,
      "velocity": 92,
      "chip": "ym2612"
    },
    {
      "channel": 4,
      "note": 46,
      "start": 15.021,
      "duration": 0.2259,
      "velocity": 92,
      "chip": "ym2612"
    },
    {
      "channel": 3,
      "note": 58,
      "start": 15.0238,
      "duration": 0.1563,
      "velocity": 106,
      "chip": "ym2612"
    },
    {
      "channel": 2,
      "note": 65,
      "start": 15.0264,
      "duration": 0.154,
      "velocity": 106,
      "chip": "ym2612"
    },
    {
      "channel": 0,
      "note": 77,
      "start": 15.0291,
      "duration": 0.2175,
      "velocity": 106,
      "chip": "ym2612"
    },
    {
      "channel": 4,
      "note": 48,
      "start": 15.2537,
      "duration": 0.0929,
      "velocity": 92,
      "chip": "ym2612"
    },
    {
      "channel": 3,
      "note": 67,
      "start": 15.2562,
      "duration": 0.0234,
      "velocity": 106,
      "chip": "ym2612"
    },
    {
      "channel": 2,
      "note": 60,
      "start": 15.2589,
      "duration": 0.0211,
      "velocity": 106,
      "chip": "ym2612"
    },
    {
      "channel": 0,
      "note": 79,
      "start": 15.2619,
      "duration": 0.0843,
      "velocity": 106,
      "chip": "ym2612"
    },
    {
      "channel": 4,
      "note": 48,
      "start": 15.3531,
      "duration": 0.0593,
      "velocity": 92,
      "chip": "ym2612"
    },
    {
      "channel": 3,
      "note": 67,
      "start": 15.3561,
      "duration": 0.0561,
      "velocity": 106,
      "chip": "ym2612"
    },
    {
      "channel": 2,
      "note": 60,
      "start": 15.3589,
      "duration": 0.0537,
      "velocity": 106,
      "chip": "ym2612"
    },
    {
      "channel": 0,
      "note": 79,
      "start": 15.3613,
      "duration": 0.0507,
      "velocity": 106,
      "chip": "ym2612"
    },
    {
      "channel": 4,
      "note": 48,
      "start": 15.5683,
      "duration": 0.0931,
      "velocity": 92,
      "chip": "ym2612"
    },
    {
      "channel": 3,
      "note": 60,
      "start": 15.5709,
      "duration": 0.0903,
      "velocity": 106,
      "chip": "ym2612"
    },
    {
      "channel": 2,
      "note": 67,
      "start": 15.5738,
      "duration": 0.0878,
      "velocity": 106,
      "chip": "ym2612"
    },
    {
      "channel": 0,
      "note": 79,
      "start": 15.5764,
      "duration": 0.1513,
      "velocity": 106,
      "chip": "ym2612"
    },
    {
      "channel": 4,
      "note": 48,
      "start": 15.8007,
      "duration": 0.0588,
      "velocity": 92,
      "chip": "ym2612"
    },
    {
      "channel": 4,
      "note": 48,
      "start": 16.0157,
      "duration": 0.0925,
      "velocity": 92,
      "chip": "ym2612"
    },
    {
      "channel": 0,
      "note": 79,
      "start": 16.0193,
      "duration": 0.2868,
      "velocity": 106,
      "chip": "ym2612"
    },
    {
      "channel": 4,
      "note": 48,
      "start": 16.2478,
      "duration": 0.0586,
      "velocity": 92,
      "chip": "ym2612"
    },
    {
      "channel": 0,
      "note": 77,
      "start": 16.3104,
      "duration": 0.1289,
      "velocity": 106,
      "chip": "ym2612"
    },
    {
      "channel": 4,
      "note": 48,
      "start": 16.4465,
      "duration": 0.109,
      "velocity": 92,
      "chip": "ym2612"
    },
    {
      "channel": 4,
      "note": 43,
      "start": 16.5621,
      "duration": 0.0933,
      "velocity": 92,
      "chip": "ym2612"
    },
    {
      "channel": 3,
      "note": 60,
      "start": 16.5647,
      "duration": 0.0905,
      "velocity": 106,
      "chip": "ym2612"
    },
    {
      "channel": 2,
      "note": 63,
      "start": 16.5674,
      "duration": 0.088,
      "velocity": 106,
      "chip": "ym2612"
    },
    {
      "channel": 0,
      "note": 75,
      "start": 16.5698,
      "duration": 0.0851,
      "velocity": 106,
      "chip": "ym2612"
    },
    {
      "channel": 4,
      "note": 46,
      "start": 16.7258,
      "duration": 0.2262,
      "velocity": 92,
      "chip": "ym2612"
    },
    {
      "channel": 3,
      "note": 62,
      "start": 16.7289,
      "duration": 1.2977,
      "velocity": 106,
      "chip": "ym2612"
    },
    {
      "channel": 2,
      "note": 58,
      "start": 16.7316,
      "duration": 1.2954,
      "velocity": 106,
      "chip": "ym2612"
    },
    {
      "channel": 0,
      "note": 77,
      "start": 16.7341,
      "duration": 0.2176,
      "velocity": 106,
      "chip": "ym2612"
    },
    {
      "channel": 4,
      "note": 48,
      "start": 16.9588,
      "duration": 0.1093,
      "velocity": 92,
      "chip": "ym2612"
    },
    {
      "channel": 0,
      "note": 79,
      "start": 16.9612,
      "duration": 0.1064,
      "velocity": 106,
      "chip": "ym2612"
    },
    {
      "channel": 4,
      "note": 46,
      "start": 17.0746,
      "duration": 0.0579,
      "velocity": 92,
      "chip": "ym2612"
    },
    {
      "channel": 0,
      "note": 74,
      "start": 17.0772,
      "duration": 0.5683,
      "velocity": 106,
      "chip": "ym2612"
    },
    {
      "channel": 4,
      "note": 46,
      "start": 17.272,
      "duration": 0.0927,
      "velocity": 92,
      "chip": "ym2612"
    },
    {
      "channel": 4,
      "note": 46,
      "start": 17.521,
      "duration": 0.0581,
      "velocity": 92,
      "chip": "ym2612"
    },
    {
      "channel": 4,
      "note": 46,
      "start": 17.7187,
      "duration": 0.093,
      "velocity": 92,
      "chip": "ym2612"
    },
    {
      "channel": 0,
      "note": 74,
      "start": 17.7215,
      "duration": 0.0899,
      "velocity": 106,
      "chip": "ym2612"
    },
    {
      "channel": 0,
      "note": 75,
      "start": 17.815,
      "duration": 0.1296,
      "velocity": 106,
      "chip": "ym2612"
    },
    {
      "channel": 4,
      "note": 43,
      "start": 17.9512,
      "duration": 0.0756,
      "velocity": 92,
      "chip": "ym2612"
    },
    {
      "channel": 0,
      "note": 77,
      "start": 17.9536,
      "duration": 0.0728,
      "velocity": 106,
      "chip": "ym2612"
    },
    {
      "channel": 0,
      "note": 77,
      "start": 18.0321,
      "duration": 0.3266,
      "velocity": 106,
      "chip": "ym2612"
    },
    {
      "channel": 4,
      "note": 51,
      "start": 18.1665,
      "duration": 0.0932,
      "velocity": 92,
      "chip": "ym2612"
    },
    {
      "channel": 3,
      "note": 58,
      "start": 18.1691,
      "duration": 0.2156,
      "velocity": 106,
      "chip": "ym2612"
    },
    {
      "channel": 2,
      "note": 62,
      "start": 18.1718,
      "duration": 0.213,
      "velocity": 106,
      "chip": "ym2612"
    },
    {
      "channel": 4,
      "note": 50,
      "start": 18.2667,
      "duration": 0.1578,
      "velocity": 92,
      "chip": "ym2612"
    },
    {
      "channel": 0,
      "note": 75,
      "start": 18.3658,
      "duration": 0.0583,
      "velocity": 106,
      "chip": "ym2612"
    },
    {
      "channel": 4,
      "note": 46,
      "start": 18.4312,
      "duration": 0.2421,
      "velocity": 92,
      "chip": "ym2612"
    },
    {
      "channel": 3,
      "note": 58,
      "start": 18.4339,
      "duration": 0.1727,
      "velocity": 106,
      "chip": "ym2612"
    },
    {
      "channel": 2,
      "note": 62,
      "start": 18.4364,
      "duration": 0.1705,
      "velocity": 106,
      "chip": "ym2612"
    },
    {
      "channel": 0,
      "note": 74,
      "start": 18.4391,
      "duration": 0.1673,
      "velocity": 106,
      "chip": "ym2612"
    },
    {
      "channel": 4,
      "note": 48,
      "start": 18.6801,
      "duration": 0.0929,
      "velocity": 92,
      "chip": "ym2612"
    },
    {
      "channel": 3,
      "note": 60,
      "start": 18.6831,
      "duration": 0.0231,
      "velocity": 106,
      "chip": "ym2612"
    },
    {
      "channel": 2,
      "note": 63,
      "start": 18.6857,
      "duration": 0.0208,
      "velocity": 106,
      "chip": "ym2612"
    },
    {
      "channel": 0,
      "note": 75,
      "start": 18.6884,
      "duration": 0.0843,
      "velocity": 106,
      "chip": "ym2612"
    },
    {
      "channel": 4,
      "note": 48,
      "start": 18.7796,
      "duration": 0.0591,
      "velocity": 92,
      "chip": "ym2612"
    },
    {
      "channel": 3,
      "note": 60,
      "start": 18.7822,
      "duration": 0.0563,
      "velocity": 106,
      "chip": "ym2612"
    },
    {
      "channel": 2,
      "note": 63,
      "start": 18.7849,
      "duration": 0.054,
      "velocity": 106,
      "chip": "ym2612"
    },
    {
      "channel": 0,
      "note": 72,
      "start": 18.7874,
      "duration": 0.0508,
      "velocity": 106,
      "chip": "ym2612"
    },
    {
      "channel": 4,
      "note": 48,
      "start": 18.9947,
      "duration": 0.0935,
      "velocity": 92,
      "chip": "ym2612"
    },
    {
      "channel": 3,
      "note": 60,
      "start": 18.9972,
      "duration": 0.0909,
      "velocity": 106,
      "chip": "ym2612"
    },
    {
      "channel": 2,
      "note": 63,
      "start": 19.0002,
      "duration": 0.0883,
      "velocity": 106,
      "chip": "ym2612"
    },
    {
      "channel": 0,
      "note": 72,
      "start": 19.0028,
      "duration": 0.0849,
      "velocity": 106,
      "chip": "ym2612"
    },
    {
      "channel": 4,
      "note": 48,
      "start": 19.2274,
      "duration": 0.0587,
      "velocity": 92,
      "chip": "ym2612"
    },
    {
      "channel": 0,
      "note": 70,
      "start": 19.23,
      "duration": 0.056,
      "velocity": 106,
      "chip": "ym2612"
    },
    {
      "channel": 0,
      "note": 72,
      "start": 19.2899,
      "duration": 0.1783,
      "velocity": 106,
      "chip": "ym2612"
    },
    {
      "channel": 4,
      "note": 55,
      "start": 19.4256,
      "duration": 0.1093,
      "velocity": 92,
      "chip": "ym2612"
    },
    {
      "channel": 4,
      "note": 53,
      "start": 19.6747,
      "duration": 0.0591,
      "velocity": 92,
      "chip": "ym2612"
    },
    {
      "channel": 3,
      "note": 60,
      "start": 19.6772,
      "duration": 0.0563,
      "velocity": 106,
      "chip": "ym2612"
    },
    {
      "channel": 2,
      "note": 63,
      "start": 19.6801,
      "duration": 0.0538,
      "velocity": 106,
      "chip": "ym2612"
    },
    {
      "channel": 4,
      "note": 51,
      "start": 19.8734,
      "duration": 0.0924,
      "velocity": 92,
      "chip": "ym2612"
    },
    {
      "channel": 4,
      "note": 50,
      "start": 19.9722,
      "duration": 0.1096,
      "velocity": 92,
      "chip": "ym2612"
    },
    {
      "channel": 3,
      "note": 58,
      "start": 19.975,
      "duration": 0.1065,
      "velocity": 106,
      "chip": "ym2612"
    },
    {
      "channel": 2,
      "note": 62,
      "start": 19.9777,
      "duration": 0.1042,
      "velocity": 106,
      "chip": "ym2612"
    },
    {
      "channel": 4,
      "note": 46,
      "start": 20.0884,
      "duration": 0.0577,
      "velocity": 92,
      "chip": "ym2612"
    },
    {
      "channel": 4,
      "note": 46,
      "start": 20.1529,
      "duration": 0.2261,
      "velocity": 92,
      "chip": "ym2612"
    },
    {
      "channel": 3,
      "note": 60,
      "start": 20.1556,
      "duration": 1.2817,
      "velocity": 106,
      "chip": "ym2612"
    },
    {
      "channel": 2,
      "note": 63,
      "start": 20.1584,
      "duration": 1.2794,
      "velocity": 106,
      "chip": "ym2612"
    },
    {
      "channel": 4,
      "note": 48,
      "start": 20.3861,
      "duration": 0.1088,
      "velocity": 92,
      "chip": "ym2612"
    },
    {
      "channel": 0,
      "note": 70,
      "start": 20.3886,
      "duration": 0.1061,
      "velocity": 106,
      "chip": "ym2612"
    },
    {
      "channel": 4,
      "note": 48,
      "start": 20.5015,
      "duration": 0.0581,
      "velocity": 92,
      "chip": "ym2612"
    },
    {
      "channel": 0,
      "note": 72,
      "start": 20.504,
      "duration": 0.0555,
      "velocity": 106,
      "chip": "ym2612"
    },
    {
      "channel": 0,
      "note": 74,
      "start": 20.5631,
      "duration": 0.1298,
      "velocity": 106,
      "chip": "ym2612"
    },
    {
      "channel": 4,
      "note": 48,
      "start": 20.6995,
      "duration": 0.0929,
      "velocity": 92,
      "chip": "ym2612"
    },
    {
      "channel": 0,
      "note": 75,
      "start": 20.7019,
      "duration": 0.0901,
      "velocity": 106,
      "chip": "ym2612"
    },
    {
      "channel": 0,
      "note": 77,
      "start": 20.7959,
      "duration": 0.1294,
      "velocity": 106,
      "chip": "ym2612"
    },
    {
      "channel": 4,
      "note": 48,
      "start": 20.9319,
      "duration": 0.0753,
      "velocity": 92,
      "chip": "ym2612"
    },
    {
      "channel": 0,
      "note": 77,
      "start": 21.0125,
      "duration": 0.4247,
      "velocity": 106,
      "chip": "ym2612"
    },
    {
      "channel": 4,
      "note": 48,
      "start": 21.147,
      "duration": 0.0923,
      "velocity": 92,
      "chip": "ym2612"
    },
    {
      "channel": 4,
      "note": 48,
      "start": 21.3788,
      "duration": 0.0588,
      "velocity": 92,
      "chip": "ym2612"
    },
    {
      "channel": 0,
      "note": 75,
      "start": 21.4413,
      "duration": 0.2449,
      "velocity": 106,
      "chip": "ym2612"
    },
    {
      "channel": 4,
      "note": 51,
      "start": 21.5938,
      "duration": 0.0927,
      "velocity": 92,
      "chip": "ym2612"
    },
    {
      "channel": 3,
      "note": 58,
      "start": 21.5966,
      "duration": 0.214,
      "velocity": 106,
      "chip": "ym2612"
    },
    {
      "channel": 2,
      "note": 65,
      "start": 21.5992,
      "duration": 0.2115,
      "velocity": 106,
      "chip": "ym2612"
    },
    {
      "channel": 4,
      "note": 50,
      "start": 21.6936,
      "duration": 0.1588,
      "velocity": 92,
      "chip": "ym2612"
    },
    {
      "channel": 0,
      "note": 81,
      "start": 21.6973,
      "duration": 0.2705,
      "velocity": 106,
      "chip": "ym2612"
    },
    {
      "channel": 4,
      "note": 46,
      "start": 21.8589,
      "duration": 0.2424,
      "velocity": 92,
      "chip": "ym2612"
    },
    {
      "channel": 3,
      "note": 58,
      "start": 21.8618,
      "duration": 0.1728,
      "velocity": 106,
      "chip": "ym2612"
    },
    {
      "channel": 2,
      "note": 65,
      "start": 21.8645,
      "duration": 0.1705,
      "velocity": 106,
      "chip": "ym2612"
    },
    {
      "channel": 0,
      "note": 80,
      "start": 21.9717,
      "duration": 0.2285,
      "velocity": 106,
      "chip": "ym2612"
    },
    {
      "channel": 4,
      "note": 48,
      "start": 22.1082,
      "duration": 0.0922,
      "velocity": 92,
      "chip": "ym2612"
    },
    {
      "channel": 3,
      "note": 60,
      "start": 22.1108,
      "duration": 0.0229,
      "velocity": 106,
      "chip": "ym2612"
    },
    {
      "channel": 2,
      "note": 67,
      "start": 22.1133,
      "duration": 0.0207,
      "velocity": 106,
      "chip": "ym2612"
    },
    {
      "channel": 4,
      "note": 48,
      "start": 22.2073,
      "duration": 0.0584,
      "velocity": 92,
      "chip": "ym2612"
    },
    {
      "channel": 3,
      "note": 67,
      "start": 22.2099,
      "duration": 0.0556,
      "velocity": 106,
      "chip": "ym2612"
    },
    {
      "channel": 2,
      "note": 60,
      "start": 22.2125,
      "duration": 0.0533,
      "velocity": 106,
      "chip": "ym2612"
    },
    {
      "channel": 0,
      "note": 77,
      "start": 22.2155,
      "duration": 0.0498,
      "velocity": 106,
      "chip": "ym2612"
    },
    {
      "channel": 0,
      "note": 79,
      "start": 22.2694,
      "duration": 0.2448,
      "velocity": 106,
      "chip": "ym2612"
    },
    {
      "channel": 4,
      "note": 48,
      "start": 22.405,
      "duration": 0.1096,
      "velocity": 92,
      "chip": "ym2612"
    },
    {
      "channel": 3,
      "note": 60,
      "start": 22.4078,
      "duration": 0.1731,
      "velocity": 106,
      "chip": "ym2612"
    },
    {
      "channel": 2,
      "note": 67,
      "start": 22.4105,
      "duration": 0.1708,
      "velocity": 106,
      "chip": "ym2612"
    },
    {
      "channel": 0,
      "note": 80,
      "start": 22.5182,
      "duration": 0.1293,
      "velocity": 106,
      "chip": "ym2612"
    },
    {
      "channel": 4,
      "note": 48,
      "start": 22.654,
      "duration": 0.0585,
      "velocity": 92,
      "chip": "ym2612"
    },
    {
      "channel": 0,
      "note": 79,
      "start": 22.6567,
      "duration": 0.7346,
      "velocity": 106,
      "chip": "ym2612"
    },
    {
      "channel": 4,
      "note": 48,
      "start": 22.8521,
      "duration": 0.0929,
      "velocity": 92,
      "chip": "ym2612"
    },
    {
      "channel": 3,
      "note": 67,
      "start": 22.8546,
      "duration": 0.1737,
      "velocity": 106,
      "chip": "ym2612"
    },
    {
      "channel": 2,
      "note": 60,
      "start": 22.8575,
      "duration": 0.171,
      "velocity": 106,
      "chip": "ym2612"
    },
    {
      "channel": 4,
      "note": 48,
      "start": 23.1012,
      "duration": 0.0578,
      "velocity": 92,
      "chip": "ym2612"
    },
    {
      "channel": 3,
      "note": 62,
      "start": 23.1626,
      "duration": 0.1621,
      "velocity": 106,
      "chip": "ym2612"
    },
    {
      "channel": 2,
      "note": 65,
      "start": 23.1654,
      "duration": 0.1597,
      "velocity": 106,
      "chip": "ym2612"
    },
    {
      "channel": 4,
      "note": 48,
      "start": 23.299,
      "duration": 0.0926,
      "velocity": 92,
      "chip": "ym2612"
    },
    {
      "channel": 4,
      "note": 43,
      "start": 23.3979,
      "duration": 0.109,
      "velocity": 92,
      "chip": "ym2612"
    },
    {
      "channel": 3,
      "note": 58,
      "start": 23.5136,
      "duration": 0.0587,
      "velocity": 106,
      "chip": "ym2612"
    },
    {
      "channel": 2,
      "note": 63,
      "start": 23.5165,
      "duration": 0.0562,
      "velocity": 106,
      "chip": "ym2612"
    },
    {
      "channel": 4,
      "note": 46,
      "start": 23.5795,
      "duration": 0.2257,
      "velocity": 92,
      "chip": "ym2612"
    },
    {
      "channel": 3,
      "note": 58,
      "start": 23.6754,
      "duration": 1.5386,
      "velocity": 106,
      "chip": "ym2612"
    },
    {
      "channel": 2,
      "note": 63,
      "start": 23.6783,
      "duration": 0.8893,
      "velocity": 106,
      "chip": "ym2612"
    },
    {
      "channel": 0,
      "note": 82,
      "start": 23.681,
      "duration": 0.0572,
      "velocity": 106,
      "chip": "ym2612"
    },
    {
      "channel": 0,
      "note": 77,
      "start": 23.7418,
      "duration": 0.0631,
      "velocity": 106,
      "chip": "ym2612"
    },
    {
      "channel": 4,
      "note": 41,
      "start": 23.812,
      "duration": 0.0924,
      "velocity": 92,
      "chip": "ym2612"
    },
    {
      "channel": 0,
      "note": 74,
      "start": 23.8146,
      "duration": 0.0231,
      "velocity": 106,
      "chip": "ym2612"
    },
    {
      "channel": 0,
      "note": 82,
      "start": 23.8412,
      "duration": 0.063,
      "velocity": 106,
      "chip": "ym2612"
    },
    {
      "channel": 4,
      "note": 46,
      "start": 23.9111,
      "duration": 0.0755,
      "velocity": 92,
      "chip": "ym2612"
    },
    {
      "channel": 0,
      "note": 77,
      "start": 23.9136,
      "duration": 0.0225,
      "velocity": 106,
      "chip": "ym2612"
    },
    {
      "channel": 0,
      "note": 74,
      "start": 23.9403,
      "duration": 0.0461,
      "velocity": 106,
      "chip": "ym2612"
    },
    {
      "channel": 0,
      "note": 77,
      "start": 23.99,
      "duration": 0.0629,
      "velocity": 106,
      "chip": "ym2612"
    },
    {
      "channel": 0,
      "note": 74,
      "start": 24.0566,
      "duration": 0.063,
      "velocity": 106,
      "chip": "ym2612"
    },
    {
      "channel": 4,
      "note": 46,
      "start": 24.1261,
      "duration": 0.0929,
      "velocity": 92,
      "chip": "ym2612"
    },
    {
      "channel": 0,
      "note": 70,
      "start": 24.1285,
      "duration": 0.0235,
      "velocity": 106,
      "chip": "ym2612"
    },
    {
      "channel": 0,
      "note": 77,
      "start": 24.1556,
      "duration": 0.0631,
      "velocity": 106,
      "chip": "ym2612"
    },
    {
      "channel": 0,
      "note": 74,
      "start": 24.2223,
      "duration": 0.063,
      "velocity": 106,
      "chip": "ym2612"
    },
    {
      "channel": 0,
      "note": 70,
      "start": 24.2888,
      "duration": 0.0631,
      "velocity": 106,
      "chip": "ym2612"
    },
    {
      "channel": 4,
      "note": 46,
      "start": 24.3589,
      "duration": 0.0586,
      "velocity": 92,
      "chip": "ym2612"
    },
    {
      "channel": 0,
      "note": 82,
      "start": 24.3614,
      "duration": 0.0175,
      "velocity": 106,
      "chip": "ym2612"
    },
    {
      "channel": 0,
      "note": 77,
      "start": 24.3827,
      "duration": 0.0344,
      "velocity": 106,
      "chip": "ym2612"
    },
    {
      "channel": 0,
      "note": 74,
      "start": 24.4208,
      "duration": 0.0797,
      "velocity": 106,
      "chip": "ym2612"
    },
    {
      "channel": 0,
      "note": 77,
      "start": 24.5041,
      "duration": 0.063,
      "velocity": 106,
      "chip": "ym2612"
    },
    {
      "channel": 4,
      "note": 46,
      "start": 24.5739,
      "duration": 0.0927,
      "velocity": 92,
      "chip": "ym2612"
    },
    {
      "channel": 2,
      "note": 62,
      "start": 24.5768,
      "duration": 0.6375,
      "velocity": 106,
      "chip": "ym2612"
    },
    {
      "channel": 0,
      "note": 74,
      "start": 24.5793,
      "duration": 0.0204,
      "velocity": 106,
      "chip": "ym2612"
    },
    {
      "channel": 0,
      "note": 70,
      "start": 24.6033,
      "duration": 0.063,
      "velocity": 106,
      "chip": "ym2612"
    },
    {
      "channel": 0,
      "note": 82,
      "start": 24.6704,
      "duration": 0.0627,
      "velocity": 106,
      "chip": "ym2612"
    },
    {
      "channel": 0,
      "note": 77,
      "start": 24.7367,
      "duration": 0.063,
      "velocity": 106,
      "chip": "ym2612"
    },
    {
      "channel": 4,
      "note": 43,
      "start": 24.8063,
      "duration": 0.0589,
      "velocity": 92,
      "chip": "ym2612"
    },
    {
      "channel": 0,
      "note": 74,
      "start": 24.8087,
      "duration": 0.0177,
      "velocity": 106,
      "chip": "ym2612"
    },
    {
      "channel": 0,
      "note": 77,
      "start": 24.8303,
      "duration": 0.0347,
      "velocity": 106,
      "chip": "ym2612"
    },
    {
      "channel": 0,
      "note": 74,
      "start": 24.8688,
      "duration": 0.063,
      "velocity": 106,
      "chip": "ym2612"
    },
    {
      "channel": 0,
      "note": 70,
      "start": 24.9354,
      "duration": 0.0796,
      "velocity": 106,
      "chip": "ym2612"
    },
    {
      "channel": 4,
      "note": 51,
      "start": 25.0219,
      "duration": 0.0929,
      "velocity": 92,
      "chip": "ym2612"
    },
    {
      "channel": 0,
      "note": 82,
      "start": 25.0244,
      "duration": 0.0233,
      "velocity": 106,
      "chip": "ym2612"
    },
    {
      "channel": 0,
      "note": 77,
      "start": 25.0513,
      "duration": 0.0631,
      "velocity": 106,
      "chip": "ym2612"
    },
    {
      "channel": 4,
      "note": 50,
      "start": 25.1213,
      "duration": 0.1576,
      "velocity": 92,
      "chip": "ym2612"
    },
    {
      "channel": 0,
      "note": 74,
      "start": 25.1237,
      "duration": 0.0233,
      "velocity": 106,
      "chip": "ym2612"
    },
    {
      "channel": 0,
      "note": 77,
      "start": 25.1507,
      "duration": 0.0631,
      "velocity": 106,
      "chip": "ym2612"
    },
    {
      "channel": 0,
      "note": 82,
      "start": 25.2207,
      "duration": 0.0185,
      "velocity": 106,
      "chip": "ym2612"
    },
    {
      "channel": 4,
      "note": 46,
      "start": 25.2858,
      "duration": 0.2425,
      "velocity": 92,
      "chip": "ym2612"
    },
    {
      "channel": 3,
      "note": 58,
      "start": 25.2885,
      "duration": 0.1566,
      "velocity": 106,
      "chip": "ym2612"
    },
    {
      "channel": 2,
      "note": 65,
      "start": 25.291,
      "duration": 0.1543,
      "velocity": 106,
      "chip": "ym2612"
    },
    {
      "channel": 0,
      "note": 75,
      "start": 25.2937,
      "duration": 0.2672,
      "velocity": 106,
      "chip": "ym2612"
    },
    {
      "channel": 4,
      "note": 48,
      "start": 25.5352,
      "duration": 0.0924,
      "velocity": 92,
      "chip": "ym2612"
    },
    {
      "channel": 3,
      "note": 60,
      "start": 25.5381,
      "duration": 0.0229,
      "velocity": 106,
      "chip": "ym2612"
    },
    {
      "channel": 2,
      "note": 67,
      "start": 25.5407,
      "duration": 0.0206,
      "velocity": 106,
      "chip": "ym2612"
    },
    {
      "channel": 4,
      "note": 48,
      "start": 25.6343,
      "duration": 0.059,
      "velocity": 92,
      "chip": "ym2612"
    },
    {
      "channel": 3,
      "note": 60,
      "start": 25.637,
      "duration": 0.056,
      "velocity": 106,
      "chip": "ym2612"
    },
    {
      "channel": 2,
      "note": 67,
      "start": 25.6397,
      "duration": 0.0538,
      "velocity": 106,
      "chip": "ym2612"
    },
    {
      "channel": 0,
      "note": 74,
      "start": 25.6426,
      "duration": 0.0503,
      "velocity": 106,
      "chip": "ym2612"
    },
    {
      "channel": 4,
      "note": 48,
      "start": 25.8327,
      "duration": 0.0932,
      "velocity": 92,
      "chip": "ym2612"
    },
    {
      "channel": 3,
      "note": 67,
      "start": 25.8353,
      "duration": 0.0904,
      "velocity": 106,
      "chip": "ym2612"
    },
    {
      "channel": 2,
      "note": 60,
      "start": 25.8382,
      "duration": 0.088,
      "velocity": 106,
      "chip": "ym2612"
    },
    {
      "channel": 0,
      "note": 72,
      "start": 25.8405,
      "duration": 0.085,
      "velocity": 106,
      "chip": "ym2612"
    },
    {
      "channel": 4,
      "note": 48,
      "start": 26.0821,
      "duration": 0.0589,
      "velocity": 92,
      "chip": "ym2612"
    },
    {
      "channel": 0,
      "note": 70,
      "start": 26.0846,
      "duration": 0.0561,
      "velocity": 106,
      "chip": "ym2612"
    },
    {
      "channel": 0,
      "note": 72,
      "start": 26.1446,
      "duration": 0.1295,
      "velocity": 106,
      "chip": "ym2612"
    },
    {
      "channel": 4,
      "note": 55,
      "start": 26.3791,
      "duration": 0.0758,
      "velocity": 92,
      "chip": "ym2612"
    },
    {
      "channel": 3,
      "note": 72,
      "start": 26.3816,
      "duration": 0.073,
      "velocity": 106,
      "chip": "ym2612"
    },
    {
      "channel": 0,
      "note": 67,
      "start": 26.3843,
      "duration": 0.0701,
      "velocity": 106,
      "chip": "ym2612"
    },
    {
      "channel": 4,
      "note": 53,
      "start": 26.4611,
      "duration": 0.0591,
      "velocity": 92,
      "chip": "ym2612"
    },
    {
      "channel": 3,
      "note": 70,
      "start": 26.4639,
      "duration": 0.0562,
      "velocity": 106,
      "chip": "ym2612"
    },
    {
      "channel": 0,
      "note": 65,
      "start": 26.4664,
      "duration": 0.0533,
      "velocity": 106,
      "chip": "ym2612"
    },
    {
      "channel": 4,
      "note": 51,
      "start": 26.5264,
      "duration": 0.0584,
      "velocity": 92,
      "chip": "ym2612"
    },
    {
      "channel": 3,
      "note": 68,
      "start": 26.5288,
      "duration": 0.0557,
      "velocity": 106,
      "chip": "ym2612"
    },
    {
      "channel": 0,
      "note": 63,
      "start": 26.5312,
      "duration": 0.0532,
      "velocity": 106,
      "chip": "ym2612"
    },
    {
      "channel": 4,
      "note": 50,
      "start": 26.5911,
      "duration": 0.0584,
      "velocity": 92,
      "chip": "ym2612"
    },
    {
      "channel": 3,
      "note": 67,
      "start": 26.5935,
      "duration": 0.0558,
      "velocity": 106,
      "chip": "ym2612"
    },
    {
      "channel": 0,
      "note": 62,
      "start": 26.5958,
      "duration": 0.0533,
      "velocity": 106,
      "chip": "ym2612"
    },
    {
      "channel": 4,
      "note": 48,
      "start": 26.6557,
      "duration": 0.0587,
      "velocity": 92,
      "chip": "ym2612"
    },
    {
      "channel": 3,
      "note": 65,
      "start": 26.6581,
      "duration": 0.056,
      "velocity": 106,
      "chip": "ym2612"
    },
    {
      "channel": 0,
      "note": 60,
      "start": 26.6604,
      "duration": 0.0535,
      "velocity": 106,
      "chip": "ym2612"
    },
    {
      "channel": 4,
      "note": 46,
      "start": 26.7206,
      "duration": 0.0753,
      "velocity": 92,
      "chip": "ym2612"
    },
    {
      "channel": 3,
      "note": 63,
      "start": 26.723,
      "duration": 0.0726,
      "velocity": 106,
      "chip": "ym2612"
    },
    {
      "channel": 0,
      "note": 58,
      "start": 26.7253,
      "duration": 0.0701,
      "velocity": 106,
      "chip": "ym2612"
    },
    {
      "channel": 4,
      "note": 43,
      "start": 26.8028,
      "duration": 0.0585,
      "velocity": 92,
      "chip": "ym2612"
    },
    {
      "channel": 3,
      "note": 62,
      "start": 26.8052,
      "duration": 0.0557,
      "velocity": 106,
      "chip": "ym2612"
    },
    {
      "channel": 0,
      "note": 55,
      "start": 26.8077,
      "duration": 0.0531,
      "velocity": 106,
      "chip": "ym2612"
    },
    {
      "channel": 1,
      "note": 48,
      "start": 26.8741,
      "duration": 0.0888,
      "velocity": 92,
      "chip": "ym2612"
    },
    {
      "channel": 2,
      "note": 67,
      "start": 26.8804,
      "duration": 1.174,
      "velocity": 106,
      "chip": "ym2612"
    },
    {
      "channel": 0,
      "note": 60,
      "start": 26.8834,
      "duration": 1.1704,
      "velocity": 106,
      "chip": "ym2612"
    },
    {
      "channel": 3,
      "note": 45,
      "start": 26.8925,
      "duration": 3.2111,
      "velocity": 106,
      "chip": "ym2612"
    },
    {
      "channel": 4,
      "note": 40,
      "start": 26.8955,
      "duration": 3.2083,
      "velocity": 106,
      "chip": "ym2612"
    },
    {
      "channel": 1,
      "note": 48,
      "start": 27.1026,
      "duration": 0.058,
      "velocity": 92,
      "chip": "ym2612"
    },
    {
      "channel": 1,
      "note": 48,
      "start": 27.3171,
      "duration": 0.0923,
      "velocity": 92,
      "chip": "ym2612"
    },
    {
      "channel": 1,
      "note": 48,
      "start": 27.5491,
      "duration": 0.0581,
      "velocity": 92,
      "chip": "ym2612"
    },
    {
      "channel": 1,
      "note": 48,
      "start": 27.7637,
      "duration": 0.0923,
      "velocity": 92,
      "chip": "ym2612"
    },
    {
      "channel": 1,
      "note": 48,
      "start": 27.9956,
      "duration": 0.0585,
      "velocity": 92,
      "chip": "ym2612"
    },
    {
      "channel": 1,
      "note": 51,
      "start": 28.1945,
      "duration": 0.1094,
      "velocity": 92,
      "chip": "ym2612"
    },
    {
      "channel": 0,
      "note": 65,
      "start": 28.1969,
      "duration": 0.2308,
      "velocity": 106,
      "chip": "ym2612"
    },
    {
      "channel": 2,
      "note": 58,
      "start": 28.1995,
      "duration": 0.2284,
      "velocity": 106,
      "chip": "ym2612"
    },
    {
      "channel": 1,
      "note": 50,
      "start": 28.3105,
      "duration": 0.156,
      "velocity": 92,
      "chip": "ym2612"
    },
    {
      "channel": 1,
      "note": 46,
      "start": 28.4731,
      "duration": 0.2259,
      "velocity": 92,
      "chip": "ym2612"
    },
    {
      "channel": 0,
      "note": 58,
      "start": 28.4758,
      "duration": 0.1565,
      "velocity": 106,
      "chip": "ym2612"
    },
    {
      "channel": 2,
      "note": 65,
      "start": 28.4787,
      "duration": 0.1541,
      "velocity": 106,
      "chip": "ym2612"
    },
    {
      "channel": 1,
      "note": 48,
      "start": 28.7058,
      "duration": 0.1071,
      "velocity": 92,
      "chip": "ym2612"
    },
    {
      "channel": 0,
      "note": 67,
      "start": 28.7085,
      "duration": 0.0377,
      "velocity": 106,
      "chip": "ym2612"
    },
    {
      "channel": 2,
      "note": 60,
      "start": 28.7111,
      "duration": 0.0355,
      "velocity": 106,
      "chip": "ym2612"
    },
    {
      "channel": 1,
      "note": 48,
      "start": 28.8196,
      "duration": 0.0591,
      "velocity": 92,
      "chip": "ym2612"
    },
    {
      "channel": 0,
      "note": 67,
      "start": 28.8225,
      "duration": 0.056,
      "velocity": 106,
      "chip": "ym2612"
    },
    {
      "channel": 2,
      "note": 60,
      "start": 28.825,
      "duration": 0.054,
      "velocity": 106,
      "chip": "ym2612"
    },
    {
      "channel": 1,
      "note": 48,
      "start": 29.0181,
      "duration": 0.0929,
      "velocity": 92,
      "chip": "ym2612"
    },
    {
      "channel": 0,
      "note": 60,
      "start": 29.0205,
      "duration": 0.0903,
      "velocity": 106,
      "chip": "ym2612"
    },
    {
      "channel": 2,
      "note": 67,
      "start": 29.0233,
      "duration": 0.088,
      "velocity": 106,
      "chip": "ym2612"
    },
    {
      "channel": 1,
      "note": 48,
      "start": 29.2672,
      "duration": 0.0583,
      "velocity": 92,
      "chip": "ym2612"
    },
    {
      "channel": 1,
      "note": 48,
      "start": 29.4651,
      "duration": 0.0922,
      "velocity": 92,
      "chip": "ym2612"
    },
    {
      "channel": 1,
      "note": 48,
      "start": 29.6969,
      "duration": 0.0751,
      "velocity": 92,
      "chip": "ym2612"
    },
    {
      "channel": 1,
      "note": 48,
      "start": 29.9123,
      "duration": 0.092,
      "velocity": 92,
      "chip": "ym2612"
    },
    {
      "channel": 1,
      "note": 43,
      "start": 30.011,
      "duration": 0.0924,
      "velocity": 92,
      "chip": "ym2612"
    },
    {
      "channel": 0,
      "note": 60,
      "start": 30.0133,
      "duration": 0.09,
      "velocity": 106,
      "chip": "ym2612"
    },
    {
      "channel": 2,
      "note": 63,
      "start": 30.016,
      "duration": 0.0879,
      "velocity": 106,
      "chip": "ym2612"
    },
    {
      "channel": 3,
      "note": 86,
      "start": 30.1118,
      "duration": 1.4971,
      "velocity": 106,
      "chip": "ym2612"
    },
    {
      "channel": 1,
      "note": 46,
      "start": 30.1761,
      "duration": 0.2426,
      "velocity": 92,
      "chip": "ym2612"
    },
    {
      "channel": 0,
      "note": 62,
      "start": 30.179,
      "duration": 1.2964,
      "velocity": 106,
      "chip": "ym2612"
    },
    {
      "channel": 2,
      "note": 58,
      "start": 30.1818,
      "duration": 1.2941,
      "velocity": 106,
      "chip": "ym2612"
    },
    {
      "channel": 1,
      "note": 48,
      "start": 30.4254,
      "duration": 0.0923,
      "velocity": 92,
      "chip": "ym2612"
    },
    {
      "channel": 1,
      "note": 46,
      "start": 30.5243,
      "duration": 0.0581,
      "velocity": 92,
      "chip": "ym2612"
    },
    {
      "channel": 1,
      "note": 46,
      "start": 30.7388,
      "duration": 0.0924,
      "velocity": 92,
      "chip": "ym2612"
    },
    {
      "channel": 1,
      "note": 46,
      "start": 30.9708,
      "duration": 0.0581,
      "velocity": 92,
      "chip": "ym2612"
    },
    {
      "channel": 1,
      "note": 46,
      "start": 31.1686,
      "duration": 0.1088,
      "velocity": 92,
      "chip": "ym2612"
    },
    {
      "channel": 1,
      "note": 43,
      "start": 31.4172,
      "duration": 0.0583,
      "velocity": 92,
      "chip": "ym2612"
    },
    {
      "channel": 1,
      "note": 51,
      "start": 31.6156,
      "duration": 0.09,
      "velocity": 92,
      "chip": "ym2612"
    },
    {
      "channel": 0,
      "note": 58,
      "start": 31.6182,
      "duration": 0.2273,
      "velocity": 106,
      "chip": "ym2612"
    },
    {
      "channel": 2,
      "note": 62,
      "start": 31.621,
      "duration": 0.2248,
      "velocity": 106,
      "chip": "ym2612"
    },
    {
      "channel": 3,
      "note": 87,
      "start": 31.626,
      "duration": 2.0799,
      "velocity": 106,
      "chip": "ym2612"
    },
    {
      "channel": 1,
      "note": 50,
      "start": 31.7124,
      "duration": 0.1746,
      "velocity": 92,
      "chip": "ym2612"
    },
    {
      "channel": 1,
      "note": 46,
      "start": 31.8939,
      "duration": 0.2253,
      "velocity": 92,
      "chip": "ym2612"
    },
    {
      "channel": 0,
      "note": 58,
      "start": 31.8965,
      "duration": 0.156,
      "velocity": 106,
      "chip": "ym2612"
    },
    {
      "channel": 2,
      "note": 62,
      "start": 31.8992,
      "duration": 0.1537,
      "velocity": 106,
      "chip": "ym2612"
    },
    {
      "channel": 1,
      "note": 48,
      "start": 32.1259,
      "duration": 0.1074,
      "velocity": 92,
      "chip": "ym2612"
    },
    {
      "channel": 0,
      "note": 60,
      "start": 32.1288,
      "duration": 0.021,
      "velocity": 106,
      "chip": "ym2612"
    },
    {
      "channel": 2,
      "note": 63,
      "start": 32.1315,
      "duration": 0.0188,
      "velocity": 106,
      "chip": "ym2612"
    },
    {
      "channel": 1,
      "note": 48,
      "start": 32.2402,
      "duration": 0.0588,
      "velocity": 92,
      "chip": "ym2612"
    },
    {
      "channel": 0,
      "note": 60,
      "start": 32.2428,
      "duration": 0.056,
      "velocity": 106,
      "chip": "ym2612"
    },
    {
      "channel": 2,
      "note": 63,
      "start": 32.2455,
      "duration": 0.0538,
      "velocity": 106,
      "chip": "ym2612"
    },
    {
      "channel": 1,
      "note": 48,
      "start": 32.4386,
      "duration": 0.0932,
      "velocity": 92,
      "chip": "ym2612"
    },
    {
      "channel": 0,
      "note": 60,
      "start": 32.441,
      "duration": 0.0905,
      "velocity": 106,
      "chip": "ym2612"
    },
    {
      "channel": 2,
      "note": 63,
      "start": 32.4438,
      "duration": 0.0882,
      "velocity": 106,
      "chip": "ym2612"
    },
    {
      "channel": 1,
      "note": 48,
      "start": 32.6711,
      "duration": 0.0752,
      "velocity": 92,
      "chip": "ym2612"
    },
    {
      "channel": 1,
      "note": 55,
      "start": 32.8859,
      "duration": 0.0922,
      "velocity": 92,
      "chip": "ym2612"
    },
    {
      "channel": 1,
      "note": 53,
      "start": 33.1177,
      "duration": 0.0591,
      "velocity": 92,
      "chip": "ym2612"
    },
    {
      "channel": 0,
      "note": 60,
      "start": 33.1201,
      "duration": 0.0564,
      "velocity": 106,
      "chip": "ym2612"
    },
    {
      "channel": 2,
      "note": 63,
      "start": 33.1228,
      "duration": 0.0543,
      "velocity": 106,
      "chip": "ym2612"
    },
    {
      "channel": 1,
      "note": 51,
      "start": 33.3331,
      "duration": 0.0923,
      "velocity": 92,
      "chip": "ym2612"
    },
    {
      "channel": 1,
      "note": 50,
      "start": 33.4317,
      "duration": 0.0928,
      "velocity": 92,
      "chip": "ym2612"
    },
    {
      "channel": 0,
      "note": 58,
      "start": 33.4344,
      "duration": 0.0899,
      "velocity": 106,
      "chip": "ym2612"
    },
    {
      "channel": 2,
      "note": 62,
      "start": 33.4371,
      "duration": 0.0877,
      "velocity": 106,
      "chip": "ym2612"
    },
    {
      "channel": 1,
      "note": 46,
      "start": 33.5312,
      "duration": 0.0585,
      "velocity": 92,
      "chip": "ym2612"
    },
    {
      "channel": 1,
      "note": 46,
      "start": 33.5964,
      "duration": 0.2427,
      "velocity": 92,
      "chip": "ym2612"
    },
    {
      "channel": 0,
      "note": 60,
      "start": 33.599,
      "duration": 1.2983,
      "velocity": 106,
      "chip": "ym2612"
    },
    {
      "channel": 2,
      "note": 63,
      "start": 33.6018,
      "duration": 1.2961,
      "velocity": 106,
      "chip": "ym2612"
    },
    {
      "channel": 3,
      "note": 78,
      "start": 33.7124,
      "duration": 0.1268,
      "velocity": 106,
      "chip": "ym2612"
    },
    {
      "channel": 1,
      "note": 48,
      "start": 33.8463,
      "duration": 0.0918,
      "velocity": 92,
      "chip": "ym2612"
    },
    {
      "channel": 3,
      "note": 79,
      "start": 33.8487,
      "duration": 0.0895,
      "velocity": 106,
      "chip": "ym2612"
    },
    {
      "channel": 1,
      "note": 48,
      "start": 33.9447,
      "duration": 0.0582,
      "velocity": 92,
      "chip": "ym2612"
    },
    {
      "channel": 3,
      "note": 79,
      "start": 33.9473,
      "duration": 0.0557,
      "velocity": 106,
      "chip": "ym2612"
    },
    {
      "channel": 3,
      "note": 78,
      "start": 34.0078,
      "duration": 0.1284,
      "velocity": 106,
      "chip": "ym2612"
    },
    {
      "channel": 1,
      "note": 48,
      "start": 34.1427,
      "duration": 0.1089,
      "velocity": 92,
      "chip": "ym2612"
    },
    {
      "channel": 3,
      "note": 79,
      "start": 34.1455,
      "duration": 0.1064,
      "velocity": 106,
      "chip": "ym2612"
    },
    {
      "channel": 3,
      "note": 79,
      "start": 34.2551,
      "duration": 0.1298,
      "velocity": 106,
      "chip": "ym2612"
    },
    {
      "channel": 1,
      "note": 48,
      "start": 34.3914,
      "duration": 0.0587,
      "velocity": 92,
      "chip": "ym2612"
    },
    {
      "channel": 3,
      "note": 78,
      "start": 34.3949,
      "duration": 0.0554,
      "velocity": 106,
      "chip": "ym2612"
    },
    {
      "channel": 3,
      "note": 79,
      "start": 34.4537,
      "duration": 0.1297,
      "velocity": 106,
      "chip": "ym2612"
    },
    {
      "channel": 1,
      "note": 48,
      "start": 34.59,
      "duration": 0.0925,
      "velocity": 92,
      "chip": "ym2612"
    },
    {
      "channel": 3,
      "note": 79,
      "start": 34.5924,
      "duration": 0.0902,
      "velocity": 106,
      "chip": "ym2612"
    },
    {
      "channel": 3,
      "note": 78,
      "start": 34.6874,
      "duration": 0.1452,
      "velocity": 106,
      "chip": "ym2612"
    },
    {
      "channel": 1,
      "note": 48,
      "start": 34.839,
      "duration": 0.0585,
      "velocity": 92,
      "chip": "ym2612"
    },
    {
      "channel": 3,
      "note": 79,
      "start": 34.8415,
      "duration": 0.0563,
      "velocity": 106,
      "chip": "ym2612"
    },
    {
      "channel": 3,
      "note": 79,
      "start": 34.9011,
      "duration": 0.1297,
      "velocity": 106,
      "chip": "ym2612"
    },
    {
      "channel": 1,
      "note": 51,
      "start": 35.0372,
      "duration": 0.0924,
      "velocity": 92,
      "chip": "ym2612"
    },
    {
      "channel": 0,
      "note": 58,
      "start": 35.0398,
      "duration": 0.22,
      "velocity": 106,
      "chip": "ym2612"
    },
    {
      "channel": 2,
      "note": 65,
      "start": 35.0426,
      "duration": 0.2176,
      "velocity": 106,
      "chip": "ym2612"
    },
    {
      "channel": 3,
      "note": 78,
      "start": 35.0474,
      "duration": 0.0826,
      "velocity": 106,
      "chip": "ym2612"
    },
    {
      "channel": 1,
      "note": 50,
      "start": 35.1368,
      "duration": 0.1741,
      "velocity": 92,
      "chip": "ym2612"
    },
    {
      "channel": 3,
      "note": 79,
      "start": 35.1392,
      "duration": 0.09,
      "velocity": 106,
      "chip": "ym2612"
    },
    {
      "channel": 3,
      "note": 79,
      "start": 35.2359,
      "duration": 0.0752,
      "velocity": 106,
      "chip": "ym2612"
    },
    {
      "channel": 1,
      "note": 46,
      "start": 35.3176,
      "duration": 0.2259,
      "velocity": 92,
      "chip": "ym2612"
    },
    {
      "channel": 0,
      "note": 58,
      "start": 35.3204,
      "duration": 0.1563,
      "velocity": 106,
      "chip": "ym2612"
    },
    {
      "channel": 2,
      "note": 65,
      "start": 35.323,
      "duration": 0.1541,
      "velocity": 106,
      "chip": "ym2612"
    },
    {
      "channel": 3,
      "note": 79,
      "start": 35.3255,
      "duration": 0.0845,
      "velocity": 106,
      "chip": "ym2612"
    },
    {
      "channel": 3,
      "note": 83,
      "start": 35.4166,
      "duration": 0.1271,
      "velocity": 106,
      "chip": "ym2612"
    },
    {
      "channel": 4,
      "note": 78,
      "start": 35.4192,
      "duration": 0.1246,
      "velocity": 106,
      "chip": "ym2612"
    },
    {
      "channel": 1,
      "note": 48,
      "start": 35.5504,
      "duration": 0.0923,
      "velocity": 92,
      "chip": "ym2612"
    },
    {
      "channel": 0,
      "note": 60,
      "start": 35.5529,
      "duration": 0.023,
      "velocity": 106,
      "chip": "ym2612"
    },
    {
      "channel": 2,
      "note": 67,
      "start": 35.5555,
      "duration": 0.0209,
      "velocity": 106,
      "chip": "ym2612"
    },
    {
      "channel": 3,
      "note": 84,
      "start": 35.5581,
      "duration": 0.0847,
      "velocity": 106,
      "chip": "ym2612"
    },
    {
      "channel": 4,
      "note": 79,
      "start": 35.5615,
      "duration": 0.0815,
      "velocity": 106,
      "chip": "ym2612"
    },
    {
      "channel": 1,
      "note": 48,
      "start": 35.6499,
      "duration": 0.075,
      "velocity": 92,
      "chip": "ym2612"
    },
    {
      "channel": 0,
      "note": 67,
      "start": 35.6524,
      "duration": 0.0723,
      "velocity": 106,
      "chip": "ym2612"
    },
    {
      "channel": 2,
      "note": 60,
      "start": 35.655,
      "duration": 0.0705,
      "velocity": 106,
      "chip": "ym2612"
    },
    {
      "channel": 3,
      "note": 84,
      "start": 35.6576,
      "duration": 0.0675,
      "velocity": 106,
      "chip": "ym2612"
    },
    {
      "channel": 4,
      "note": 79,
      "start": 35.6601,
      "duration": 0.0652,
      "velocity": 106,
      "chip": "ym2612"
    },
    {
      "channel": 3,
      "note": 83,
      "start": 35.7299,
      "duration": 0.1285,
      "velocity": 106,
      "chip": "ym2612"
    },
    {
      "channel": 4,
      "note": 78,
      "start": 35.7329,
      "duration": 0.1256,
      "velocity": 106,
      "chip": "ym2612"
    },
    {
      "channel": 1,
      "note": 48,
      "start": 35.8646,
      "duration": 0.0925,
      "velocity": 92,
      "chip": "ym2612"
    },
    {
      "channel": 0,
      "note": 60,
      "start": 35.8674,
      "duration": 0.1563,
      "velocity": 106,
      "chip": "ym2612"
    },
    {
      "channel": 2,
      "note": 67,
      "start": 35.8701,
      "duration": 0.1541,
      "velocity": 106,
      "chip": "ym2612"
    },
    {
      "channel": 3,
      "note": 84,
      "start": 35.8728,
      "duration": 0.0845,
      "velocity": 106,
      "chip": "ym2612"
    },
    {
      "channel": 4,
      "note": 79,
      "start": 35.8762,
      "duration": 0.0814,
      "velocity": 106,
      "chip": "ym2612"
    },
    {
      "channel": 3,
      "note": 84,
      "start": 35.961,
      "duration": 0.1295,
      "velocity": 106,
      "chip": "ym2612"
    },
    {
      "channel": 4,
      "note": 79,
      "start": 35.9635,
      "duration": 0.1272,
      "velocity": 106,
      "chip": "ym2612"
    },
    {
      "channel": 1,
      "note": 48,
      "start": 36.097,
      "duration": 0.0592,
      "velocity": 92,
      "chip": "ym2612"
    },
    {
      "channel": 3,
      "note": 83,
      "start": 36.1004,
      "duration": 0.056,
      "velocity": 106,
      "chip": "ym2612"
    },
    {
      "channel": 4,
      "note": 78,
      "start": 36.1029,
      "duration": 0.0537,
      "velocity": 106,
      "chip": "ym2612"
    },
    {
      "channel": 3,
      "note": 84,
      "start": 36.1604,
      "duration": 0.1457,
      "velocity": 106,
      "chip": "ym2612"
    },
    {
      "channel": 4,
      "note": 79,
      "start": 36.1631,
      "duration": 0.1431,
      "velocity": 106,
      "chip": "ym2612"
    },
    {
      "channel": 1,
      "note": 48,
      "start": 36.3124,
      "duration": 0.0922,
      "velocity": 92,
      "chip": "ym2612"
    },
    {
      "channel": 0,
      "note": 67,
      "start": 36.3148,
      "duration": 0.1565,
      "velocity": 106,
      "chip": "ym2612"
    },
    {
      "channel": 2,
      "note": 60,
      "start": 36.3176,
      "duration": 0.1542,
      "velocity": 106,
      "chip": "ym2612"
    },
    {
      "channel": 3,
      "note": 84,
      "start": 36.32,
      "duration": 0.0846,
      "velocity": 106,
      "chip": "ym2612"
    },
    {
      "channel": 4,
      "note": 79,
      "start": 36.3224,
      "duration": 0.0825,
      "velocity": 106,
      "chip": "ym2612"
    },
    {
      "channel": 3,
      "note": 83,
      "start": 36.4095,
      "duration": 0.1285,
      "velocity": 106,
      "chip": "ym2612"
    },
    {
      "channel": 4,
      "note": 78,
      "start": 36.4122,
      "duration": 0.1261,
      "velocity": 106,
      "chip": "ym2612"
    },
    {
      "channel": 1,
      "note": 48,
      "start": 36.5445,
      "duration": 0.0583,
      "velocity": 92,
      "chip": "ym2612"
    },
    {
      "channel": 3,
      "note": 84,
      "start": 36.547,
      "duration": 0.0558,
      "velocity": 106,
      "chip": "ym2612"
    },
    {
      "channel": 4,
      "note": 79,
      "start": 36.55,
      "duration": 0.0531,
      "velocity": 106,
      "chip": "ym2612"
    },
    {
      "channel": 0,
      "note": 62,
      "start": 36.6063,
      "duration": 0.1786,
      "velocity": 106,
      "chip": "ym2612"
    },
    {
      "channel": 2,
      "note": 65,
      "start": 36.609,
      "duration": 0.1763,
      "velocity": 106,
      "chip": "ym2612"
    },
    {
      "channel": 3,
      "note": 84,
      "start": 36.6117,
      "duration": 0.1243,
      "velocity": 106,
      "chip": "ym2612"
    },
    {
      "channel": 4,
      "note": 79,
      "start": 36.6143,
      "duration": 0.1219,
      "velocity": 106,
      "chip": "ym2612"
    },
    {
      "channel": 1,
      "note": 48,
      "start": 36.7426,
      "duration": 0.1091,
      "velocity": 92,
      "chip": "ym2612"
    },
    {
      "channel": 3,
      "note": 83,
      "start": 36.7461,
      "duration": 0.1057,
      "velocity": 106,
      "chip": "ym2612"
    },
    {
      "channel": 4,
      "note": 78,
      "start": 36.7486,
      "duration": 0.1034,
      "velocity": 106,
      "chip": "ym2612"
    },
    {
      "channel": 1,
      "note": 43,
      "start": 36.8584,
      "duration": 0.0925,
      "velocity": 92,
      "chip": "ym2612"
    },
    {
      "channel": 3,
      "note": 84,
      "start": 36.861,
      "duration": 0.09,
      "velocity": 106,
      "chip": "ym2612"
    },
    {
      "channel": 4,
      "note": 79,
      "start": 36.8636,
      "duration": 0.0877,
      "velocity": 106,
      "chip": "ym2612"
    },
    {
      "channel": 0,
      "note": 58,
      "start": 36.9578,
      "duration": 0.0583,
      "velocity": 106,
      "chip": "ym2612"
    },
    {
      "channel": 2,
      "note": 63,
      "start": 36.9607,
      "duration": 0.0561,
      "velocity": 106,
      "chip": "ym2612"
    },
    {
      "channel": 3,
      "note": 84,
      "start": 36.9636,
      "duration": 0.0527,
      "velocity": 106,
      "chip": "ym2612"
    },
    {
      "channel": 4,
      "note": 79,
      "start": 36.966,
      "duration": 0.0505,
      "velocity": 106,
      "chip": "ym2612"
    },
    {
      "channel": 1,
      "note": 46,
      "start": 37.0233,
      "duration": 0.2422,
      "velocity": 92,
      "chip": "ym2612"
    },
    {
      "channel": 3,
      "note": 84,
      "start": 37.0259,
      "duration": 0.0896,
      "velocity": 106,
      "chip": "ym2612"
    },
    {
      "channel": 4,
      "note": 79,
      "start": 37.0284,
      "duration": 0.0872,
      "velocity": 106,
      "chip": "ym2612"
    },
    {
      "channel": 0,
      "note": 58,
      "start": 37.1191,
      "duration": 1.5357,
      "velocity": 106,
      "chip": "ym2612"
    },
    {
      "channel": 2,
      "note": 63,
      "start": 37.122,
      "duration": 0.8888,
      "velocity": 106,
      "chip": "ym2612"
    },
    {
      "channel": 3,
      "note": 84,
      "start": 37.1265,
      "duration": 1.3306,
      "velocity": 106,
      "chip": "ym2612"
    },
    {
      "channel": 1,
      "note": 41,
      "start": 37.2722,
      "duration": 0.0924,
      "velocity": 92,
      "chip": "ym2612"
    },
    {
      "channel": 1,
      "note": 46,
      "start": 37.3712,
      "duration": 0.0583,
      "velocity": 92,
      "chip": "ym2612"
    },
    {
      "channel": 1,
      "note": 46,
      "start": 37.5691,
      "duration": 0.0925,
      "velocity": 92,
      "chip": "ym2612"
    },
    {
      "channel": 1,
      "note": 46,
      "start": 37.8186,
      "duration": 0.0586,
      "velocity": 92,
      "chip": "ym2612"
    },
    {
      "channel": 1,
      "note": 46,
      "start": 38.0171,
      "duration": 0.0922,
      "velocity": 92,
      "chip": "ym2612"
    },
    {
      "channel": 2,
      "note": 62,
      "start": 38.0198,
      "duration": 0.6356,
      "velocity": 106,
      "chip": "ym2612"
    },
    {
      "channel": 1,
      "note": 43,
      "start": 38.2489,
      "duration": 0.0748,
      "velocity": 92,
      "chip": "ym2612"
    },
    {
      "channel": 1,
      "note": 51,
      "start": 38.4636,
      "duration": 0.0921,
      "velocity": 92,
      "chip": "ym2612"
    },
    {
      "channel": 3,
      "note": 89,
      "start": 38.4676,
      "duration": 1.5546,
      "velocity": 106,
      "chip": "ym2612"
    },
    {
      "channel": 4,
      "note": 86,
      "start": 38.4702,
      "duration": 1.5523,
      "velocity": 106,
      "chip": "ym2612"
    },
    {
      "channel": 1,
      "note": 50,
      "start": 38.5623,
      "duration": 0.1754,
      "velocity": 92,
      "chip": "ym2612"
    },
    {
      "channel": 1,
      "note": 46,
      "start": 38.7446,
      "duration": 0.2262,
      "velocity": 92,
      "chip": "ym2612"
    },
    {
      "channel": 0,
      "note": 58,
      "start": 38.7473,
      "duration": 0.1568,
      "velocity": 106,
      "chip": "ym2612"
    },
    {
      "channel": 2,
      "note": 65,
      "start": 38.7499,
      "duration": 0.1546,
      "velocity": 106,
      "chip": "ym2612"
    },
    {
      "channel": 1,
      "note": 48,
      "start": 38.9777,
      "duration": 0.0905,
      "velocity": 92,
      "chip": "ym2612"
    },
    {
      "channel": 0,
      "note": 60,
      "start": 38.9805,
      "duration": 0.0209,
      "velocity": 106,
      "chip": "ym2612"
    },
    {
      "channel": 2,
      "note": 67,
      "start": 38.9831,
      "duration": 0.0188,
      "velocity": 106,
      "chip": "ym2612"
    },
    {
      "channel": 1,
      "note": 48,
      "start": 39.075,
      "duration": 0.0583,
      "velocity": 92,
      "chip": "ym2612"
    },
    {
      "channel": 0,
      "note": 60,
      "start": 39.0776,
      "duration": 0.0556,
      "velocity": 106,
      "chip": "ym2612"
    },
    {
      "channel": 2,
      "note": 67,
      "start": 39.0803,
      "duration": 0.0534,
      "velocity": 106,
      "chip": "ym2612"
    },
    {
      "channel": 1,
      "note": 48,
      "start": 39.2895,
      "duration": 0.0925,
      "velocity": 92,
      "chip": "ym2612"
    },
    {
      "channel": 0,
      "note": 67,
      "start": 39.2919,
      "duration": 0.09,
      "velocity": 106,
      "chip": "ym2612"
    },
    {
      "channel": 2,
      "note": 60,
      "start": 39.2946,
      "duration": 0.0878,
      "velocity": 106,
      "chip": "ym2612"
    },
    {
      "channel": 1,
      "note": 48,
      "start": 39.5215,
      "duration": 0.058,
      "velocity": 92,
      "chip": "ym2612"
    },
    {
      "channel": 1,
      "note": 55,
      "start": 39.8347,
      "duration": 0.0582,
      "velocity": 92,
      "chip": "ym2612"
    },
    {
      "channel": 0,
      "note": 72,
      "start": 39.837,
      "duration": 0.0557,
      "velocity": 106,
      "chip": "ym2612"
    },
    {
      "channel": 1,
      "note": 53,
      "start": 39.8993,
      "duration": 0.0582,
      "velocity": 92,
      "chip": "ym2612"
    },
    {
      "channel": 0,
      "note": 70,
      "start": 39.9018,
      "duration": 0.0555,
      "velocity": 106,
      "chip": "ym2612"
    },
    {
      "channel": 1,
      "note": 51,
      "start": 39.9639,
      "duration": 0.0583,
      "velocity": 92,
      "chip": "ym2612"
    },
    {
      "channel": 0,
      "note": 68,
      "start": 39.9661,
      "duration": 0.0559,
      "velocity": 106,
      "chip": "ym2612"
    },
    {
      "channel": 1,
      "note": 50,
      "start": 40.0286,
      "duration": 0.075,
      "velocity": 92,
      "chip": "ym2612"
    },
    {
      "channel": 0,
      "note": 67,
      "start": 40.0309,
      "duration": 0.0726,
      "velocity": 106,
      "chip": "ym2612"
    },
    {
      "channel": 1,
      "note": 48,
      "start": 40.11,
      "duration": 0.0582,
      "velocity": 92,
      "chip": "ym2612"
    },
    {
      "channel": 0,
      "note": 65,
      "start": 40.1122,
      "duration": 0.0559,
      "velocity": 106,
      "chip": "ym2612"
    },
    {
      "channel": 1,
      "note": 46,
      "start": 40.1745,
      "duration": 0.0586,
      "velocity": 92,
      "chip": "ym2612"
    },
    {
      "channel": 0,
      "note": 63,
      "start": 40.1768,
      "duration": 0.0562,
      "velocity": 106,
      "chip": "ym2612"
    },
    {
      "channel": 1,
      "note": 43,
      "start": 40.2398,
      "duration": 0.0584,
      "velocity": 92,
      "chip": "ym2612"
    },
    {
      "channel": 0,
      "note": 62,
      "start": 40.2421,
      "duration": 0.0561,
      "velocity": 106,
      "chip": "ym2612"
    },
    {
      "channel": 3,
      "note": 48,
      "start": 40.3128,
      "duration": 0.0792,
      "velocity": 92,
      "chip": "ym2612"
    },
    {
      "channel": 2,
      "note": 67,
      "start": 40.319,
      "duration": 1.1816,
      "velocity": 106,
      "chip": "ym2612"
    },
    {
      "channel": 4,
      "note": 60,
      "start": 40.322,
      "duration": 1.1784,
      "velocity": 106,
      "chip": "ym2612"
    },
    {
      "channel": 0,
      "note": 85,
      "start": 40.3333,
      "duration": 0.2084,
      "velocity": 106,
      "chip": "ym2612"
    },
    {
      "channel": 3,
      "note": 48,
      "start": 40.5483,
      "duration": 0.0588,
      "velocity": 92,
      "chip": "ym2612"
    },
    {
      "channel": 0,
      "note": 79,
      "start": 40.551,
      "duration": 0.0558,
      "velocity": 106,
      "chip": "ym2612"
    },
    {
      "channel": 0,
      "note": 81,
      "start": 40.6121,
      "duration": 1.0215,
      "velocity": 106,
      "chip": "ym2612"
    },
    {
      "channel": 3,
      "note": 48,
      "start": 40.7467,
      "duration": 0.0922,
      "velocity": 92,
      "chip": "ym2612"
    },
    {
      "channel": 3,
      "note": 48,
      "start": 40.9784,
      "duration": 0.0754,
      "velocity": 92,
      "chip": "ym2612"
    },
    {
      "channel": 3,
      "note": 48,
      "start": 41.1934,
      "duration": 0.0923,
      "velocity": 92,
      "chip": "ym2612"
    },
    {
      "channel": 3,
      "note": 48,
      "start": 41.4252,
      "duration": 0.075,
      "velocity": 92,
      "chip": "ym2612"
    },
    {
      "channel": 3,
      "note": 51,
      "start": 41.6409,
      "duration": 0.0922,
      "velocity": 92,
      "chip": "ym2612"
    },
    {
      "channel": 4,
      "note": 65,
      "start": 41.6434,
      "duration": 0.2134,
      "velocity": 106,
      "chip": "ym2612"
    },
    {
      "channel": 2,
      "note": 58,
      "start": 41.6461,
      "duration": 0.2109,
      "velocity": 106,
      "chip": "ym2612"
    },
    {
      "channel": 0,
      "note": 82,
      "start": 41.6485,
      "duration": 0.2499,
      "velocity": 106,
      "chip": "ym2612"
    },
    {
      "channel": 3,
      "note": 50,
      "start": 41.7399,
      "duration": 0.1587,
      "velocity": 92,
      "chip": "ym2612"
    },
    {
      "channel": 3,
      "note": 46,
      "start": 41.9051,
      "duration": 0.2427,
      "velocity": 92,
      "chip": "ym2612"
    },
    {
      "channel": 4,
      "note": 58,
      "start": 41.9079,
      "duration": 0.1731,
      "velocity": 106,
      "chip": "ym2612"
    },
    {
      "channel": 2,
      "note": 65,
      "start": 41.9105,
      "duration": 0.1708,
      "velocity": 106,
      "chip": "ym2612"
    },
    {
      "channel": 0,
      "note": 77,
      "start": 41.9132,
      "duration": 0.2344,
      "velocity": 106,
      "chip": "ym2612"
    },
    {
      "channel": 3,
      "note": 48,
      "start": 42.1546,
      "duration": 0.0921,
      "velocity": 92,
      "chip": "ym2612"
    },
    {
      "channel": 4,
      "note": 67,
      "start": 42.1572,
      "duration": 0.0228,
      "velocity": 106,
      "chip": "ym2612"
    },
    {
      "channel": 2,
      "note": 60,
      "start": 42.1598,
      "duration": 0.0204,
      "velocity": 106,
      "chip": "ym2612"
    },
    {
      "channel": 0,
      "note": 79,
      "start": 42.1628,
      "duration": 0.0837,
      "velocity": 106,
      "chip": "ym2612"
    },
    {
      "channel": 3,
      "note": 48,
      "start": 42.2534,
      "duration": 0.0587,
      "velocity": 92,
      "chip": "ym2612"
    },
    {
      "channel": 4,
      "note": 67,
      "start": 42.2562,
      "duration": 0.0561,
      "velocity": 106,
      "chip": "ym2612"
    },
    {
      "channel": 2,
      "note": 60,
      "start": 42.2589,
      "duration": 0.0536,
      "velocity": 106,
      "chip": "ym2612"
    },
    {
      "channel": 0,
      "note": 79,
      "start": 42.2613,
      "duration": 0.0505,
      "velocity": 106,
      "chip": "ym2612"
    },
    {
      "channel": 3,
      "note": 48,
      "start": 42.4516,
      "duration": 0.1099,
      "velocity": 92,
      "chip": "ym2612"
    },
    {
      "channel": 4,
      "note": 60,
      "start": 42.454,
      "duration": 0.1077,
      "velocity": 106,
      "chip": "ym2612"
    },
    {
      "channel": 2,
      "note": 67,
      "start": 42.4569,
      "duration": 0.1049,
      "velocity": 106,
      "chip": "ym2612"
    },
    {
      "channel": 0,
      "note": 79,
      "start": 42.4595,
      "duration": 0.1685,
      "velocity": 106,
      "chip": "ym2612"
    },
    {
      "channel": 3,
      "note": 48,
      "start": 42.7012,
      "duration": 0.0583,
      "velocity": 92,
      "chip": "ym2612"
    },
    {
      "channel": 3,
      "note": 48,
      "start": 42.8993,
      "duration": 0.1096,
      "velocity": 92,
      "chip": "ym2612"
    },
    {
      "channel": 0,
      "note": 79,
      "start": 42.9029,
      "duration": 0.3034,
      "velocity": 106,
      "chip": "ym2612"
    },
    {
      "channel": 3,
      "note": 48,
      "start": 43.1482,
      "duration": 0.0584,
      "velocity": 92,
      "chip": "ym2612"
    },
    {
      "channel": 0,
      "note": 77,
      "start": 43.2107,
      "duration": 0.1291,
      "velocity": 106,
      "chip": "ym2612"
    },
    {
      "channel": 3,
      "note": 48,
      "start": 43.3468,
      "duration": 0.0921,
      "velocity": 92,
      "chip": "ym2612"
    },
    {
      "channel": 3,
      "note": 43,
      "start": 43.4454,
      "duration": 0.1095,
      "velocity": 92,
      "chip": "ym2612"
    },
    {
      "channel": 4,
      "note": 60,
      "start": 43.4479,
      "duration": 0.1073,
      "velocity": 106,
      "chip": "ym2612"
    },
    {
      "channel": 2,
      "note": 63,
      "start": 43.4506,
      "duration": 0.1047,
      "velocity": 106,
      "chip": "ym2612"
    },
    {
      "channel": 0,
      "note": 75,
      "start": 43.453,
      "duration": 0.1017,
      "velocity": 106,
      "chip": "ym2612"
    },
    {
      "channel": 3,
      "note": 46,
      "start": 43.6278,
      "duration": 0.2257,
      "velocity": 92,
      "chip": "ym2612"
    },
    {
      "channel": 4,
      "note": 62,
      "start": 43.6309,
      "duration": 1.2804,
      "velocity": 106,
      "chip": "ym2612"
    },
    {
      "channel": 2,
      "note": 58,
      "start": 43.6336,
      "duration": 1.2778,
      "velocity": 106,
      "chip": "ym2612"
    },
    {
      "channel": 0,
      "note": 77,
      "start": 43.6361,
      "duration": 0.2171,
      "velocity": 106,
      "chip": "ym2612"
    },
    {
      "channel": 3,
      "note": 48,
      "start": 43.8602,
      "duration": 0.0923,
      "velocity": 92,
      "chip": "ym2612"
    },
    {
      "channel": 0,
      "note": 79,
      "start": 43.8627,
      "duration": 0.0896,
      "velocity": 106,
      "chip": "ym2612"
    },
    {
      "channel": 3,
      "note": 46,
      "start": 43.9592,
      "duration": 0.0749,
      "velocity": 92,
      "chip": "ym2612"
    },
    {
      "channel": 0,
      "note": 74,
      "start": 43.9618,
      "duration": 0.5855,
      "velocity": 106,
      "chip": "ym2612"
    },
    {
      "channel": 3,
      "note": 46,
      "start": 44.1738,
      "duration": 0.0923,
      "velocity": 92,
      "chip": "ym2612"
    },
    {
      "channel": 3,
      "note": 46,
      "start": 44.4056,
      "duration": 0.0752,
      "velocity": 92,
      "chip": "ym2612"
    },
    {
      "channel": 3,
      "note": 46,
      "start": 44.6205,
      "duration": 0.0927,
      "velocity": 92,
      "chip": "ym2612"
    },
    {
      "channel": 0,
      "note": 74,
      "start": 44.6232,
      "duration": 0.0898,
      "velocity": 106,
      "chip": "ym2612"
    },
    {
      "channel": 0,
      "note": 75,
      "start": 44.7166,
      "duration": 0.1296,
      "velocity": 106,
      "chip": "ym2612"
    },
    {
      "channel": 3,
      "note": 43,
      "start": 44.8527,
      "duration": 0.0584,
      "velocity": 92,
      "chip": "ym2612"
    },
    {
      "channel": 0,
      "note": 77,
      "start": 44.855,
      "duration": 0.0559,
      "velocity": 106,
      "chip": "ym2612"
    },
    {
      "channel": 0,
      "note": 77,
      "start": 44.9166,
      "duration": 0.3433,
      "velocity": 106,
      "chip": "ym2612"
    },
    {
      "channel": 3,
      "note": 51,
      "start": 45.0677,
      "duration": 0.0929,
      "velocity": 92,
      "chip": "ym2612"
    },
    {
      "channel": 4,
      "note": 58,
      "start": 45.0704,
      "duration": 0.2153,
      "velocity": 106,
      "chip": "ym2612"
    },
    {
      "channel": 2,
      "note": 62,
      "start": 45.0731,
      "duration": 0.2127,
      "velocity": 106,
      "chip": "ym2612"
    },
    {
      "channel": 3,
      "note": 50,
      "start": 45.1678,
      "duration": 0.1575,
      "velocity": 92,
      "chip": "ym2612"
    },
    {
      "channel": 0,
      "note": 75,
      "start": 45.2669,
      "duration": 0.0583,
      "velocity": 106,
      "chip": "ym2612"
    },
    {
      "channel": 3,
      "note": 46,
      "start": 45.3322,
      "duration": 0.2422,
      "velocity": 92,
      "chip": "ym2612"
    },
    {
      "channel": 4,
      "note": 58,
      "start": 45.3349,
      "duration": 0.1731,
      "velocity": 106,
      "chip": "ym2612"
    },
    {
      "channel": 2,
      "note": 62,
      "start": 45.3376,
      "duration": 0.1706,
      "velocity": 106,
      "chip": "ym2612"
    },
    {
      "channel": 0,
      "note": 74,
      "start": 45.3402,
      "duration": 0.1675,
      "velocity": 106,
      "chip": "ym2612"
    },
    {
      "channel": 3,
      "note": 48,
      "start": 45.5811,
      "duration": 0.0926,
      "velocity": 92,
      "chip": "ym2612"
    },
    {
      "channel": 4,
      "note": 60,
      "start": 45.584,
      "duration": 0.023,
      "velocity": 106,
      "chip": "ym2612"
    },
    {
      "channel": 2,
      "note": 63,
      "start": 45.5866,
      "duration": 0.0206,
      "velocity": 106,
      "chip": "ym2612"
    },
    {
      "channel": 0,
      "note": 75,
      "start": 45.5893,
      "duration": 0.0841,
      "velocity": 106,
      "chip": "ym2612"
    },
    {
      "channel": 3,
      "note": 48,
      "start": 45.6803,
      "duration": 0.0583,
      "velocity": 92,
      "chip": "ym2612"
    },
    {
      "channel": 4,
      "note": 60,
      "start": 45.6829,
      "duration": 0.0559,
      "velocity": 106,
      "chip": "ym2612"
    },
    {
      "channel": 2,
      "note": 63,
      "start": 45.6856,
      "duration": 0.0534,
      "velocity": 106,
      "chip": "ym2612"
    },
    {
      "channel": 0,
      "note": 72,
      "start": 45.6882,
      "duration": 0.0502,
      "velocity": 106,
      "chip": "ym2612"
    },
    {
      "channel": 3,
      "note": 48,
      "start": 45.8781,
      "duration": 0.1098,
      "velocity": 92,
      "chip": "ym2612"
    },
    {
      "channel": 4,
      "note": 60,
      "start": 45.8806,
      "duration": 0.1074,
      "velocity": 106,
      "chip": "ym2612"
    },
    {
      "channel": 2,
      "note": 63,
      "start": 45.8835,
      "duration": 0.1047,
      "velocity": 106,
      "chip": "ym2612"
    },
    {
      "channel": 0,
      "note": 72,
      "start": 45.8862,
      "duration": 0.1015,
      "velocity": 106,
      "chip": "ym2612"
    },
    {
      "channel": 3,
      "note": 48,
      "start": 46.1274,
      "duration": 0.0584,
      "velocity": 92,
      "chip": "ym2612"
    },
    {
      "channel": 0,
      "note": 70,
      "start": 46.1299,
      "duration": 0.0557,
      "velocity": 106,
      "chip": "ym2612"
    },
    {
      "channel": 0,
      "note": 72,
      "start": 46.1895,
      "duration": 0.1615,
      "velocity": 106,
      "chip": "ym2612"
    },
    {
      "channel": 3,
      "note": 55,
      "start": 46.3253,
      "duration": 0.0924,
      "velocity": 92,
      "chip": "ym2612"
    },
    {
      "channel": 3,
      "note": 53,
      "start": 46.5742,
      "duration": 0.059,
      "velocity": 92,
      "chip": "ym2612"
    },
    {
      "channel": 4,
      "note": 60,
      "start": 46.5767,
      "duration": 0.0566,
      "velocity": 106,
      "chip": "ym2612"
    },
    {
      "channel": 2,
      "note": 63,
      "start": 46.5796,
      "duration": 0.0539,
      "velocity": 106,
      "chip": "ym2612"
    },
    {
      "channel": 3,
      "note": 51,
      "start": 46.7731,
      "duration": 0.0923,
      "velocity": 92,
      "chip": "ym2612"
    },
    {
      "channel": 3,
      "note": 50,
      "start": 46.8717,
      "duration": 0.0926,
      "velocity": 92,
      "chip": "ym2612"
    },
    {
      "channel": 4,
      "note": 58,
      "start": 46.8746,
      "duration": 0.0899,
      "velocity": 106,
      "chip": "ym2612"
    },
    {
      "channel": 2,
      "note": 62,
      "start": 46.8773,
      "duration": 0.0875,
      "velocity": 106,
      "chip": "ym2612"
    },
    {
      "channel": 3,
      "note": 46,
      "start": 46.9712,
      "duration": 0.0749,
      "velocity": 92,
      "chip": "ym2612"
    },
    {
      "channel": 3,
      "note": 46,
      "start": 47.0528,
      "duration": 0.2256,
      "velocity": 92,
      "chip": "ym2612"
    },
    {
      "channel": 4,
      "note": 60,
      "start": 47.0555,
      "duration": 1.2801,
      "velocity": 106,
      "chip": "ym2612"
    },
    {
      "channel": 2,
      "note": 63,
      "start": 47.0584,
      "duration": 1.2774,
      "velocity": 106,
      "chip": "ym2612"
    },
    {
      "channel": 3,
      "note": 48,
      "start": 47.2857,
      "duration": 0.0916,
      "velocity": 92,
      "chip": "ym2612"
    },
    {
      "channel": 0,
      "note": 70,
      "start": 47.2883,
      "duration": 0.0889,
      "velocity": 106,
      "chip": "ym2612"
    },
    {
      "channel": 3,
      "note": 48,
      "start": 47.384,
      "duration": 0.075,
      "velocity": 92,
      "chip": "ym2612"
    },
    {
      "channel": 0,
      "note": 72,
      "start": 47.3864,
      "duration": 0.0724,
      "velocity": 106,
      "chip": "ym2612"
    },
    {
      "channel": 0,
      "note": 74,
      "start": 47.4625,
      "duration": 0.1298,
      "velocity": 106,
      "chip": "ym2612"
    },
    {
      "channel": 3,
      "note": 48,
      "start": 47.5988,
      "duration": 0.0924,
      "velocity": 92,
      "chip": "ym2612"
    },
    {
      "channel": 0,
      "note": 75,
      "start": 47.6012,
      "duration": 0.0898,
      "velocity": 106,
      "chip": "ym2612"
    },
    {
      "channel": 0,
      "note": 77,
      "start": 47.6947,
      "duration": 0.1297,
      "velocity": 106,
      "chip": "ym2612"
    },
    {
      "channel": 3,
      "note": 48,
      "start": 47.8309,
      "duration": 0.0582,
      "velocity": 92,
      "chip": "ym2612"
    },
    {
      "channel": 0,
      "note": 77,
      "start": 47.8946,
      "duration": 0.4406,
      "velocity": 106,
      "chip": "ym2612"
    },
    {
      "channel": 3,
      "note": 48,
      "start": 48.0454,
      "duration": 0.0924,
      "velocity": 92,
      "chip": "ym2612"
    },
    {
      "channel": 3,
      "note": 48,
      "start": 48.2773,
      "duration": 0.058,
      "velocity": 92,
      "chip": "ym2612"
    },
    {
      "channel": 0,
      "note": 75,
      "start": 48.3393,
      "duration": 0.2452,
      "velocity": 106,
      "chip": "ym2612"
    },
    {
      "channel": 3,
      "note": 51,
      "start": 48.4751,
      "duration": 0.1096,
      "velocity": 92,
      "chip": "ym2612"
    },
    {
      "channel": 4,
      "note": 58,
      "start": 48.4779,
      "duration": 0.2304,
      "velocity": 106,
      "chip": "ym2612"
    },
    {
      "channel": 2,
      "note": 65,
      "start": 48.4805,
      "duration": 0.228,
      "velocity": 106,
      "chip": "ym2612"
    },
    {
      "channel": 3,
      "note": 50,
      "start": 48.5917,
      "duration": 0.1556,
      "velocity": 92,
      "chip": "ym2612"
    },
    {
      "channel": 0,
      "note": 81,
      "start": 48.5952,
      "duration": 0.2512,
      "velocity": 106,
      "chip": "ym2612"
    },
    {
      "channel": 3,
      "note": 46,
      "start": 48.7538,
      "duration": 0.2427,
      "velocity": 92,
      "chip": "ym2612"
    },
    {
      "channel": 4,
      "note": 58,
      "start": 48.7569,
      "duration": 0.1563,
      "velocity": 106,
      "chip": "ym2612"
    },
    {
      "channel": 2,
      "note": 65,
      "start": 48.7595,
      "duration": 0.154,
      "velocity": 106,
      "chip": "ym2612"
    },
    {
      "channel": 0,
      "note": 80,
      "start": 48.8503,
      "duration": 0.245,
      "velocity": 106,
      "chip": "ym2612"
    },
    {
      "channel": 3,
      "note": 48,
      "start": 49.0033,
      "duration": 0.0922,
      "velocity": 92,
      "chip": "ym2612"
    },
    {
      "channel": 4,
      "note": 60,
      "start": 49.0059,
      "duration": 0.0229,
      "velocity": 106,
      "chip": "ym2612"
    },
    {
      "channel": 2,
      "note": 67,
      "start": 49.0084,
      "duration": 0.0207,
      "velocity": 106,
      "chip": "ym2612"
    },
    {
      "channel": 3,
      "note": 48,
      "start": 49.1026,
      "duration": 0.0584,
      "velocity": 92,
      "chip": "ym2612"
    },
    {
      "channel": 4,
      "note": 67,
      "start": 49.1052,
      "duration": 0.0559,
      "velocity": 106,
      "chip": "ym2612"
    },
    {
      "channel": 2,
      "note": 60,
      "start": 49.1078,
      "duration": 0.0533,
      "velocity": 106,
      "chip": "ym2612"
    },
    {
      "channel": 0,
      "note": 77,
      "start": 49.1108,
      "duration": 0.0498,
      "velocity": 106,
      "chip": "ym2612"
    },
    {
      "channel": 0,
      "note": 79,
      "start": 49.1647,
      "duration": 0.228,
      "velocity": 106,
      "chip": "ym2612"
    },
    {
      "channel": 3,
      "note": 48,
      "start": 49.3003,
      "duration": 0.0925,
      "velocity": 92,
      "chip": "ym2612"
    },
    {
      "channel": 4,
      "note": 60,
      "start": 49.3033,
      "duration": 0.1561,
      "velocity": 106,
      "chip": "ym2612"
    },
    {
      "channel": 2,
      "note": 67,
      "start": 49.3059,
      "duration": 0.1538,
      "velocity": 106,
      "chip": "ym2612"
    },
    {
      "channel": 0,
      "note": 80,
      "start": 49.3966,
      "duration": 0.1461,
      "velocity": 106,
      "chip": "ym2612"
    },
    {
      "channel": 3,
      "note": 48,
      "start": 49.5491,
      "duration": 0.0584,
      "velocity": 92,
      "chip": "ym2612"
    },
    {
      "channel": 0,
      "note": 79,
      "start": 49.5518,
      "duration": 0.735,
      "velocity": 106,
      "chip": "ym2612"
    },
    {
      "channel": 3,
      "note": 48,
      "start": 49.7473,
      "duration": 0.0928,
      "velocity": 92,
      "chip": "ym2612"
    },
    {
      "channel": 4,
      "note": 67,
      "start": 49.7498,
      "duration": 0.157,
      "velocity": 106,
      "chip": "ym2612"
    },
    {
      "channel": 2,
      "note": 60,
      "start": 49.7527,
      "duration": 0.1544,
      "velocity": 106,
      "chip": "ym2612"
    },
    {
      "channel": 3,
      "note": 48,
      "start": 49.9796,
      "duration": 0.0751,
      "velocity": 92,
      "chip": "ym2612"
    },
    {
      "channel": 4,
      "note": 62,
      "start": 50.0584,
      "duration": 0.162,
      "velocity": 106,
      "chip": "ym2612"
    },
    {
      "channel": 2,
      "note": 65,
      "start": 50.0611,
      "duration": 0.1595,
      "velocity": 106,
      "chip": "ym2612"
    },
    {
      "channel": 3,
      "note": 48,
      "start": 50.1946,
      "duration": 0.0925,
      "velocity": 92,
      "chip": "ym2612"
    },
    {
      "channel": 3,
      "note": 43,
      "start": 50.2935,
      "duration": 0.0922,
      "velocity": 92,
      "chip": "ym2612"
    },
    {
      "channel": 4,
      "note": 58,
      "start": 50.3924,
      "duration": 0.0753,
      "velocity": 106,
      "chip": "ym2612"
    },
    {
      "channel": 2,
      "note": 63,
      "start": 50.3952,
      "duration": 0.0728,
      "velocity": 106,
      "chip": "ym2612"
    },
    {
      "channel": 3,
      "note": 46,
      "start": 50.4747,
      "duration": 0.2256,
      "velocity": 92,
      "chip": "ym2612"
    },
    {
      "channel": 4,
      "note": 58,
      "start": 50.5708,
      "duration": 1.5361,
      "velocity": 106,
      "chip": "ym2612"
    },
    {
      "channel": 2,
      "note": 63,
      "start": 50.5737,
      "duration": 0.8712,
      "velocity": 106,
      "chip": "ym2612"
    },
    {
      "channel": 0,
      "note": 82,
      "start": 50.5764,
      "duration": 0.0571,
      "velocity": 106,
      "chip": "ym2612"
    },
    {
      "channel": 0,
      "note": 77,
      "start": 50.637,
      "duration": 0.0632,
      "velocity": 106,
      "chip": "ym2612"
    },
    {
      "channel": 3,
      "note": 41,
      "start": 50.707,
      "duration": 0.0922,
      "velocity": 92,
      "chip": "ym2612"
    },
    {
      "channel": 0,
      "note": 74,
      "start": 50.7095,
      "duration": 0.0228,
      "velocity": 106,
      "chip": "ym2612"
    },
    {
      "channel": 0,
      "note": 82,
      "start": 50.7358,
      "duration": 0.0632,
      "velocity": 106,
      "chip": "ym2612"
    },
    {
      "channel": 3,
      "note": 46,
      "start": 50.8059,
      "duration": 0.0585,
      "velocity": 92,
      "chip": "ym2612"
    },
    {
      "channel": 0,
      "note": 77,
      "start": 50.8083,
      "duration": 0.0174,
      "velocity": 106,
      "chip": "ym2612"
    },
    {
      "channel": 0,
      "note": 74,
      "start": 50.8296,
      "duration": 0.0345,
      "velocity": 106,
      "chip": "ym2612"
    },
    {
      "channel": 0,
      "note": 77,
      "start": 50.8677,
      "duration": 0.063,
      "velocity": 106,
      "chip": "ym2612"
    },
    {
      "channel": 0,
      "note": 74,
      "start": 50.9342,
      "duration": 0.0798,
      "velocity": 106,
      "chip": "ym2612"
    },
    {
      "channel": 3,
      "note": 46,
      "start": 51.0206,
      "duration": 0.0924,
      "velocity": 92,
      "chip": "ym2612"
    },
    {
      "channel": 0,
      "note": 70,
      "start": 51.023,
      "duration": 0.0231,
      "velocity": 106,
      "chip": "ym2612"
    },
    {
      "channel": 0,
      "note": 77,
      "start": 51.0496,
      "duration": 0.0632,
      "velocity": 106,
      "chip": "ym2612"
    },
    {
      "channel": 0,
      "note": 74,
      "start": 51.1164,
      "duration": 0.063,
      "velocity": 106,
      "chip": "ym2612"
    },
    {
      "channel": 0,
      "note": 70,
      "start": 51.1829,
      "duration": 0.0632,
      "velocity": 106,
      "chip": "ym2612"
    },
    {
      "channel": 3,
      "note": 46,
      "start": 51.2531,
      "duration": 0.0582,
      "velocity": 92,
      "chip": "ym2612"
    },
    {
      "channel": 0,
      "note": 82,
      "start": 51.2555,
      "duration": 0.0175,
      "velocity": 106,
      "chip": "ym2612"
    },
    {
      "channel": 0,
      "note": 77,
      "start": 51.2769,
      "duration": 0.0342,
      "velocity": 106,
      "chip": "ym2612"
    },
    {
      "channel": 0,
      "note": 74,
      "start": 51.3148,
      "duration": 0.063,
      "velocity": 106,
      "chip": "ym2612"
    },
    {
      "channel": 0,
      "note": 77,
      "start": 51.3814,
      "duration": 0.0631,
      "velocity": 106,
      "chip": "ym2612"
    },
    {
      "channel": 3,
      "note": 46,
      "start": 51.451,
      "duration": 0.1095,
      "velocity": 92,
      "chip": "ym2612"
    },
    {
      "channel": 2,
      "note": 62,
      "start": 51.4538,
      "duration": 0.6533,
      "velocity": 106,
      "chip": "ym2612"
    },
    {
      "channel": 0,
      "note": 74,
      "start": 51.4563,
      "duration": 0.0372,
      "velocity": 106,
      "chip": "ym2612"
    },
    {
      "channel": 0,
      "note": 70,
      "start": 51.4971,
      "duration": 0.0632,
      "velocity": 106,
      "chip": "ym2612"
    },
    {
      "channel": 0,
      "note": 82,
      "start": 51.5642,
      "duration": 0.0626,
      "velocity": 106,
      "chip": "ym2612"
    },
    {
      "channel": 0,
      "note": 77,
      "start": 51.6303,
      "duration": 0.0631,
      "velocity": 106,
      "chip": "ym2612"
    },
    {
      "channel": 3,
      "note": 43,
      "start": 51.6999,
      "duration": 0.0586,
      "velocity": 92,
      "chip": "ym2612"
    },
    {
      "channel": 0,
      "note": 74,
      "start": 51.7022,
      "duration": 0.0176,
      "velocity": 106,
      "chip": "ym2612"
    },
    {
      "channel": 0,
      "note": 77,
      "start": 51.7237,
      "duration": 0.0346,
      "velocity": 106,
      "chip": "ym2612"
    },
    {
      "channel": 0,
      "note": 74,
      "start": 51.7619,
      "duration": 0.063,
      "velocity": 106,
      "chip": "ym2612"
    },
    {
      "channel": 0,
      "note": 70,
      "start": 51.8285,
      "duration": 0.0631,
      "velocity": 106,
      "chip": "ym2612"
    },
    {
      "channel": 3,
      "note": 51,
      "start": 51.8983,
      "duration": 0.1093,
      "velocity": 92,
      "chip": "ym2612"
    },
    {
      "channel": 0,
      "note": 82,
      "start": 51.9008,
      "duration": 0.0234,
      "velocity": 106,
      "chip": "ym2612"
    },
    {
      "channel": 0,
      "note": 77,
      "start": 51.9277,
      "duration": 0.0797,
      "velocity": 106,
      "chip": "ym2612"
    },
    {
      "channel": 3,
      "note": 50,
      "start": 52.0143,
      "duration": 0.1576,
      "velocity": 92,
      "chip": "ym2612"
    },
    {
      "channel": 0,
      "note": 74,
      "start": 52.0167,
      "duration": 0.0231,
      "velocity": 106,
      "chip": "ym2612"
    },
    {
      "channel": 0,
      "note": 77,
      "start": 52.0434,
      "duration": 0.0632,
      "velocity": 106,
      "chip": "ym2612"
    },
    {
      "channel": 0,
      "note": 82,
      "start": 52.1135,
      "duration": 0.0188,
      "velocity": 106,
      "chip": "ym2612"
    },
    {
      "channel": 3,
      "note": 46,
      "start": 52.1786,
      "duration": 0.2258,
      "velocity": 92,
      "chip": "ym2612"
    },
    {
      "channel": 4,
      "note": 58,
      "start": 52.1813,
      "duration": 0.1565,
      "velocity": 106,
      "chip": "ym2612"
    },
    {
      "channel": 2,
      "note": 65,
      "start": 52.1839,
      "duration": 0.1543,
      "velocity": 106,
      "chip": "ym2612"
    },
    {
      "channel": 0,
      "note": 75,
      "start": 52.1865,
      "duration": 0.2501,
      "velocity": 106,
      "chip": "ym2612"
    },
    {
      "channel": 3,
      "note": 48,
      "start": 52.4112,
      "duration": 0.1088,
      "velocity": 92,
      "chip": "ym2612"
    },
    {
      "channel": 4,
      "note": 60,
      "start": 52.4141,
      "duration": 0.0227,
      "velocity": 106,
      "chip": "ym2612"
    },
    {
      "channel": 2,
      "note": 67,
      "start": 52.4168,
      "duration": 0.0203,
      "velocity": 106,
      "chip": "ym2612"
    },
    {
      "channel": 3,
      "note": 48,
      "start": 52.5266,
      "duration": 0.0589,
      "velocity": 92,
      "chip": "ym2612"
    },
    {
      "channel": 4,
      "note": 60,
      "start": 52.5294,
      "duration": 0.0563,
      "velocity": 106,
      "chip": "ym2612"
    },
    {
      "channel": 2,
      "note": 67,
      "start": 52.532,
      "duration": 0.054,
      "velocity": 106,
      "chip": "ym2612"
    },
    {
      "channel": 0,
      "note": 74,
      "start": 52.5349,
      "duration": 0.0505,
      "velocity": 106,
      "chip": "ym2612"
    },
    {
      "channel": 3,
      "note": 48,
      "start": 52.725,
      "duration": 0.093,
      "velocity": 92,
      "chip": "ym2612"
    },
    {
      "channel": 4,
      "note": 67,
      "start": 52.7274,
      "duration": 0.0908,
      "velocity": 106,
      "chip": "ym2612"
    },
    {
      "channel": 2,
      "note": 60,
      "start": 52.7304,
      "duration": 0.088,
      "velocity": 106,
      "chip": "ym2612"
    },
    {
      "channel": 0,
      "note": 72,
      "start": 52.7327,
      "duration": 0.0851,
      "velocity": 106,
      "chip": "ym2612"
    },
    {
      "channel": 3,
      "note": 48,
      "start": 52.9576,
      "duration": 0.0755,
      "velocity": 92,
      "chip": "ym2612"
    },
    {
      "channel": 0,
      "note": 70,
      "start": 52.9603,
      "duration": 0.0727,
      "velocity": 106,
      "chip": "ym2612"
    },
    {
      "channel": 0,
      "note": 72,
      "start": 53.0367,
      "duration": 0.1295,
      "velocity": 106,
      "chip": "ym2612"
    },
    {
      "channel": 3,
      "note": 55,
      "start": 53.2714,
      "duration": 0.0588,
      "velocity": 92,
      "chip": "ym2612"
    },
    {
      "channel": 4,
      "note": 72,
      "start": 53.2739,
      "duration": 0.0565,
      "velocity": 106,
      "chip": "ym2612"
    },
    {
      "channel": 0,
      "note": 67,
      "start": 53.2766,
      "duration": 0.0534,
      "velocity": 106,
      "chip": "ym2612"
    },
    {
      "channel": 3,
      "note": 53,
      "start": 53.3367,
      "duration": 0.0753,
      "velocity": 92,
      "chip": "ym2612"
    },
    {
      "channel": 4,
      "note": 70,
      "start": 53.3396,
      "duration": 0.0727,
      "velocity": 106,
      "chip": "ym2612"
    },
    {
      "channel": 0,
      "note": 65,
      "start": 53.3422,
      "duration": 0.0695,
      "velocity": 106,
      "chip": "ym2612"
    },
    {
      "channel": 3,
      "note": 51,
      "start": 53.4185,
      "duration": 0.0581,
      "velocity": 92,
      "chip": "ym2612"
    },
    {
      "channel": 4,
      "note": 68,
      "start": 53.421,
      "duration": 0.0559,
      "velocity": 106,
      "chip": "ym2612"
    },
    {
      "channel": 0,
      "note": 63,
      "start": 53.4232,
      "duration": 0.0532,
      "velocity": 106,
      "chip": "ym2612"
    },
    {
      "channel": 3,
      "note": 50,
      "start": 53.483,
      "duration": 0.0582,
      "velocity": 92,
      "chip": "ym2612"
    },
    {
      "channel": 4,
      "note": 67,
      "start": 53.4854,
      "duration": 0.0561,
      "velocity": 106,
      "chip": "ym2612"
    },
    {
      "channel": 0,
      "note": 62,
      "start": 53.4877,
      "duration": 0.0533,
      "velocity": 106,
      "chip": "ym2612"
    },
    {
      "channel": 3,
      "note": 48,
      "start": 53.5478,
      "duration": 0.0584,
      "velocity": 92,
      "chip": "ym2612"
    },
    {
      "channel": 4,
      "note": 65,
      "start": 53.5503,
      "duration": 0.0562,
      "velocity": 106,
      "chip": "ym2612"
    },
    {
      "channel": 0,
      "note": 60,
      "start": 53.5526,
      "duration": 0.0535,
      "velocity": 106,
      "chip": "ym2612"
    },
    {
      "channel": 3,
      "note": 46,
      "start": 53.6126,
      "duration": 0.0587,
      "velocity": 92,
      "chip": "ym2612"
    },
    {
      "channel": 4,
      "note": 63,
      "start": 53.6151,
      "duration": 0.0565,
      "velocity": 106,
      "chip": "ym2612"
    },
    {
      "channel": 0,
      "note": 58,
      "start": 53.6174,
      "duration": 0.0537,
      "velocity": 106,
      "chip": "ym2612"
    },
    {
      "channel": 3,
      "note": 43,
      "start": 53.6781,
      "duration": 0.0749,
      "velocity": 92,
      "chip": "ym2612"
    },
    {
      "channel": 4,
      "note": 62,
      "start": 53.6806,
      "duration": 0.0725,
      "velocity": 106,
      "chip": "ym2612"
    },
    {
      "channel": 0,
      "note": 55,
      "start": 53.6832,
      "duration": 0.0695,
      "velocity": 106,
      "chip": "ym2612"
    },
    {
      "channel": 1,
      "note": 48,
      "start": 53.7659,
      "duration": 0.0886,
      "velocity": 92,
      "chip": "ym2612"
    },
    {
      "channel": 2,
      "note": 67,
      "start": 53.7722,
      "duration": 1.1746,
      "velocity": 106,
      "chip": "ym2612"
    },
    {
      "channel": 0,
      "note": 60,
      "start": 53.7753,
      "duration": 1.171,
      "velocity": 106,
      "chip": "ym2612"
    },
    {
      "channel": 3,
      "note": 45,
      "start": 53.786,
      "duration": 3.2167,
      "velocity": 106,
      "chip": "ym2612"
    },
    {
      "channel": 4,
      "note": 40,
      "start": 53.7891,
      "duration": 3.2137,
      "velocity": 106,
      "chip": "ym2612"
    },
    {
      "channel": 1,
      "note": 48,
      "start": 53.9942,
      "duration": 0.0589,
      "velocity": 92,
      "chip": "ym2612"
    },
    {
      "channel": 1,
      "note": 48,
      "start": 54.1929,
      "duration": 0.1088,
      "velocity": 92,
      "chip": "ym2612"
    },
    {
      "channel": 1,
      "note": 48,
      "start": 54.4414,
      "duration": 0.0583,
      "velocity": 92,
      "chip": "ym2612"
    },
    {
      "channel": 1,
      "note": 48,
      "start": 54.6395,
      "duration": 0.0921,
      "velocity": 92,
      "chip": "ym2612"
    },
    {
      "channel": 1,
      "note": 48,
      "start": 54.8881,
      "duration": 0.0584,
      "velocity": 92,
      "chip": "ym2612"
    },
    {
      "channel": 1,
      "note": 51,
      "start": 55.087,
      "duration": 0.0927,
      "velocity": 92,
      "chip": "ym2612"
    },
    {
      "channel": 0,
      "note": 65,
      "start": 55.0895,
      "duration": 0.2307,
      "velocity": 106,
      "chip": "ym2612"
    },
    {
      "channel": 2,
      "note": 58,
      "start": 55.092,
      "duration": 0.2283,
      "velocity": 106,
      "chip": "ym2612"
    },
    {
      "channel": 1,
      "note": 50,
      "start": 55.1864,
      "duration": 0.1755,
      "velocity": 92,
      "chip": "ym2612"
    },
    {
      "channel": 1,
      "note": 46,
      "start": 55.3684,
      "duration": 0.2257,
      "velocity": 92,
      "chip": "ym2612"
    },
    {
      "channel": 0,
      "note": 58,
      "start": 55.371,
      "duration": 0.1564,
      "velocity": 106,
      "chip": "ym2612"
    },
    {
      "channel": 2,
      "note": 65,
      "start": 55.3739,
      "duration": 0.1539,
      "velocity": 106,
      "chip": "ym2612"
    },
    {
      "channel": 1,
      "note": 48,
      "start": 55.6011,
      "duration": 0.0927,
      "velocity": 92,
      "chip": "ym2612"
    },
    {
      "channel": 0,
      "note": 67,
      "start": 55.6037,
      "duration": 0.0234,
      "velocity": 106,
      "chip": "ym2612"
    },
    {
      "channel": 2,
      "note": 60,
      "start": 55.6063,
      "duration": 0.0212,
      "velocity": 106,
      "chip": "ym2612"
    },
    {
      "channel": 1,
      "note": 48,
      "start": 55.7006,
      "duration": 0.0759,
      "velocity": 92,
      "chip": "ym2612"
    },
    {
      "channel": 0,
      "note": 67,
      "start": 55.7034,
      "duration": 0.0728,
      "velocity": 106,
      "chip": "ym2612"
    },
    {
      "channel": 2,
      "note": 60,
      "start": 55.706,
      "duration": 0.0708,
      "velocity": 106,
      "chip": "ym2612"
    },
    {
      "channel": 1,
      "note": 48,
      "start": 55.9159,
      "duration": 0.0929,
      "velocity": 92,
      "chip": "ym2612"
    },
    {
      "channel": 0,
      "note": 60,
      "start": 55.9183,
      "duration": 0.0904,
      "velocity": 106,
      "chip": "ym2612"
    },
    {
      "channel": 2,
      "note": 67,
      "start": 55.9211,
      "duration": 0.0881,
      "velocity": 106,
      "chip": "ym2612"
    },
    {
      "channel": 1,
      "note": 48,
      "start": 56.1483,
      "duration": 0.0586,
      "velocity": 92,
      "chip": "ym2612"
    },
    {
      "channel": 1,
      "note": 48,
      "start": 56.3634,
      "duration": 0.0925,
      "velocity": 92,
      "chip": "ym2612"
    },
    {
      "channel": 1,
      "note": 48,
      "start": 56.5956,
      "duration": 0.0582,
      "velocity": 92,
      "chip": "ym2612"
    },
    {
      "channel": 1,
      "note": 48,
      "start": 56.8107,
      "duration": 0.0923,
      "velocity": 92,
      "chip": "ym2612"
    },
    {
      "channel": 1,
      "note": 43,
      "start": 56.9096,
      "duration": 0.0928,
      "velocity": 92,
      "chip": "ym2612"
    },
    {
      "channel": 0,
      "note": 60,
      "start": 56.912,
      "duration": 0.0902,
      "velocity": 106,
      "chip": "ym2612"
    },
    {
      "channel": 2,
      "note": 63,
      "start": 56.9147,
      "duration": 0.0882,
      "velocity": 106,
      "chip": "ym2612"
    },
    {
      "channel": 3,
      "note": 86,
      "start": 57.0109,
      "duration": 1.499,
      "velocity": 106,
      "chip": "ym2612"
    },
    {
      "channel": 1,
      "note": 46,
      "start": 57.075,
      "duration": 0.2425,
      "velocity": 92,
      "chip": "ym2612"
    },
    {
      "channel": 0,
      "note": 62,
      "start": 57.0779,
      "duration": 1.2985,
      "velocity": 106,
      "chip": "ym2612"
    },
    {
      "channel": 2,
      "note": 58,
      "start": 57.0807,
      "duration": 1.2962,
      "velocity": 106,
      "chip": "ym2612"
    },
    {
      "channel": 1,
      "note": 48,
      "start": 57.3243,
      "duration": 0.0925,
      "velocity": 92,
      "chip": "ym2612"
    },
    {
      "channel": 1,
      "note": 46,
      "start": 57.4235,
      "duration": 0.0582,
      "velocity": 92,
      "chip": "ym2612"
    },
    {
      "channel": 1,
      "note": 46,
      "start": 57.6213,
      "duration": 0.0926,
      "velocity": 92,
      "chip": "ym2612"
    },
    {
      "channel": 1,
      "note": 46,
      "start": 57.8704,
      "duration": 0.0586,
      "velocity": 92,
      "chip": "ym2612"
    },
    {
      "channel": 1,
      "note": 46,
      "start": 58.0689,
      "duration": 0.0923,
      "velocity": 92,
      "chip": "ym2612"
    },
    {
      "channel": 1,
      "note": 43,
      "start": 58.3177,
      "duration": 0.0589,
      "velocity": 92,
      "chip": "ym2612"
    },
    {
      "channel": 1,
      "note": 51,
      "start": 58.5166,
      "duration": 0.09,
      "velocity": 92,
      "chip": "ym2612"
    },
    {
      "channel": 0,
      "note": 58,
      "start": 58.5192,
      "duration": 0.2167,
      "velocity": 106,
      "chip": "ym2612"
    },
    {
      "channel": 2,
      "note": 62,
      "start": 58.522,
      "duration": 0.2142,
      "velocity": 106,
      "chip": "ym2612"
    },
    {
      "channel": 3,
      "note": 87,
      "start": 58.527,
      "duration": 2.0671,
      "velocity": 106,
      "chip": "ym2612"
    },
    {
      "channel": 1,
      "note": 50,
      "start": 58.6136,
      "duration": 0.1758,
      "velocity": 92,
      "chip": "ym2612"
    },
    {
      "channel": 1,
      "note": 46,
      "start": 58.7962,
      "duration": 0.2257,
      "velocity": 92,
      "chip": "ym2612"
    },
    {
      "channel": 0,
      "note": 58,
      "start": 58.7989,
      "duration": 0.1563,
      "velocity": 106,
      "chip": "ym2612"
    },
    {
      "channel": 2,
      "note": 62,
      "start": 58.8016,
      "duration": 0.1542,
      "velocity": 106,
      "chip": "ym2612"
    },
    {
      "channel": 1,
      "note": 48,
      "start": 59.0287,
      "duration": 0.0925,
      "velocity": 92,
      "chip": "ym2612"
    },
    {
      "channel": 0,
      "note": 60,
      "start": 59.0314,
      "duration": 0.0231,
      "velocity": 106,
      "chip": "ym2612"
    },
    {
      "channel": 2,
      "note": 63,
      "start": 59.034,
      "duration": 0.0209,
      "velocity": 106,
      "chip": "ym2612"
    },
    {
      "channel": 1,
      "note": 48,
      "start": 59.1277,
      "duration": 0.0587,
      "velocity": 92,
      "chip": "ym2612"
    },
    {
      "channel": 0,
      "note": 60,
      "start": 59.1303,
      "duration": 0.0558,
      "velocity": 106,
      "chip": "ym2612"
    },
    {
      "channel": 2,
      "note": 63,
      "start": 59.133,
      "duration": 0.0536,
      "velocity": 106,
      "chip": "ym2612"
    },
    {
      "channel": 1,
      "note": 48,
      "start": 59.3424,
      "duration": 0.0935,
      "velocity": 92,
      "chip": "ym2612"
    },
    {
      "channel": 0,
      "note": 60,
      "start": 59.3448,
      "duration": 0.0909,
      "velocity": 106,
      "chip": "ym2612"
    },
    {
      "channel": 2,
      "note": 63,
      "start": 59.3476,
      "duration": 0.0886,
      "velocity": 106,
      "chip": "ym2612"
    },
    {
      "channel": 1,
      "note": 48,
      "start": 59.5753,
      "duration": 0.0582,
      "velocity": 92,
      "chip": "ym2612"
    },
    {
      "channel": 1,
      "note": 55,
      "start": 59.7898,
      "duration": 0.0924,
      "velocity": 92,
      "chip": "ym2612"
    },
    {
      "channel": 1,
      "note": 53,
      "start": 60.0218,
      "duration": 0.0593,
      "velocity": 92,
      "chip": "ym2612"
    },
    {
      "channel": 0,
      "note": 60,
      "start": 60.0242,
      "duration": 0.0566,
      "velocity": 106,
      "chip": "ym2612"
    },
    {
      "channel": 2,
      "note": 63,
      "start": 60.027,
      "duration": 0.0544,
      "velocity": 106,
      "chip": "ym2612"
    },
    {
      "channel": 1,
      "note": 51,
      "start": 60.2208,
      "duration": 0.109,
      "velocity": 92,
      "chip": "ym2612"
    },
    {
      "channel": 1,
      "note": 50,
      "start": 60.3363,
      "duration": 0.093,
      "velocity": 92,
      "chip": "ym2612"
    },
    {
      "channel": 0,
      "note": 58,
      "start": 60.3391,
      "duration": 0.09,
      "velocity": 106,
      "chip": "ym2612"
    },
    {
      "channel": 2,
      "note": 62,
      "start": 60.3417,
      "duration": 0.0878,
      "velocity": 106,
      "chip": "ym2612"
    },
    {
      "channel": 1,
      "note": 46,
      "start": 60.4359,
      "duration": 0.0584,
      "velocity": 92,
      "chip": "ym2612"
    },
    {
      "channel": 1,
      "note": 46,
      "start": 60.5012,
      "duration": 0.2259,
      "velocity": 92,
      "chip": "ym2612"
    },
    {
      "channel": 0,
      "note": 60,
      "start": 60.5038,
      "duration": 1.2967,
      "velocity": 106,
      "chip": "ym2612"
    },
    {
      "channel": 2,
      "note": 63,
      "start": 60.5066,
      "duration": 1.2945,
      "velocity": 106,
      "chip": "ym2612"
    },
    {
      "channel": 3,
      "note": 78,
      "start": 60.6008,
      "duration": 0.1266,
      "velocity": 106,
      "chip": "ym2612"
    },
    {
      "channel": 1,
      "note": 48,
      "start": 60.7343,
      "duration": 0.1086,
      "velocity": 92,
      "chip": "ym2612"
    },
    {
      "channel": 3,
      "note": 79,
      "start": 60.7369,
      "duration": 0.1062,
      "velocity": 106,
      "chip": "ym2612"
    },
    {
      "channel": 1,
      "note": 48,
      "start": 60.8496,
      "duration": 0.058,
      "velocity": 92,
      "chip": "ym2612"
    },
    {
      "channel": 3,
      "note": 79,
      "start": 60.8523,
      "duration": 0.0555,
      "velocity": 106,
      "chip": "ym2612"
    },
    {
      "channel": 3,
      "note": 78,
      "start": 60.9129,
      "duration": 0.1284,
      "velocity": 106,
      "chip": "ym2612"
    },
    {
      "channel": 1,
      "note": 48,
      "start": 61.0478,
      "duration": 0.0925,
      "velocity": 92,
      "chip": "ym2612"
    },
    {
      "channel": 3,
      "note": 79,
      "start": 61.0506,
      "duration": 0.0898,
      "velocity": 106,
      "chip": "ym2612"
    },
    {
      "channel": 3,
      "note": 79,
      "start": 61.144,
      "duration": 0.1464,
      "velocity": 106,
      "chip": "ym2612"
    },
    {
      "channel": 1,
      "note": 48,
      "start": 61.2968,
      "duration": 0.0561,
      "velocity": 92,
      "chip": "ym2612"
    },
    {
      "channel": 3,
      "note": 78,
      "start": 61.3005,
      "duration": 0.0527,
      "velocity": 106,
      "chip": "ym2612"
    },
    {
      "channel": 3,
      "note": 79,
      "start": 61.3568,
      "duration": 0.1295,
      "velocity": 106,
      "chip": "ym2612"
    },
    {
      "channel": 1,
      "note": 48,
      "start": 61.4927,
      "duration": 0.0927,
      "velocity": 92,
      "chip": "ym2612"
    },
    {
      "channel": 3,
      "note": 79,
      "start": 61.4952,
      "duration": 0.0904,
      "velocity": 106,
      "chip": "ym2612"
    },
    {
      "channel": 3,
      "note": 78,
      "start": 61.5906,
      "duration": 0.1282,
      "velocity": 106,
      "chip": "ym2612"
    },
    {
      "channel": 1,
      "note": 48,
      "start": 61.7252,
      "duration": 0.0754,
      "velocity": 92,
      "chip": "ym2612"
    },
    {
      "channel": 3,
      "note": 79,
      "start": 61.7278,
      "duration": 0.0731,
      "velocity": 106,
      "chip": "ym2612"
    },
    {
      "channel": 3,
      "note": 79,
      "start": 61.8045,
      "duration": 0.1295,
      "velocity": 106,
      "chip": "ym2612"
    },
    {
      "channel": 1,
      "note": 51,
      "start": 61.9406,
      "duration": 0.093,
      "velocity": 92,
      "chip": "ym2612"
    },
    {
      "channel": 0,
      "note": 58,
      "start": 61.9433,
      "duration": 0.2153,
      "velocity": 106,
      "chip": "ym2612"
    },
    {
      "channel": 2,
      "note": 65,
      "start": 61.9462,
      "duration": 0.2126,
      "velocity": 106,
      "chip": "ym2612"
    },
    {
      "channel": 3,
      "note": 78,
      "start": 61.9509,
      "duration": 0.083,
      "velocity": 106,
      "chip": "ym2612"
    },
    {
      "channel": 1,
      "note": 50,
      "start": 62.0406,
      "duration": 0.1576,
      "velocity": 92,
      "chip": "ym2612"
    },
    {
      "channel": 3,
      "note": 79,
      "start": 62.0431,
      "duration": 0.09,
      "velocity": 106,
      "chip": "ym2612"
    },
    {
      "channel": 3,
      "note": 79,
      "start": 62.1398,
      "duration": 0.0585,
      "velocity": 106,
      "chip": "ym2612"
    },
    {
      "channel": 1,
      "note": 46,
      "start": 62.2048,
      "duration": 0.2424,
      "velocity": 92,
      "chip": "ym2612"
    },
    {
      "channel": 0,
      "note": 58,
      "start": 62.2076,
      "duration": 0.1728,
      "velocity": 106,
      "chip": "ym2612"
    },
    {
      "channel": 2,
      "note": 65,
      "start": 62.2102,
      "duration": 0.1706,
      "velocity": 106,
      "chip": "ym2612"
    },
    {
      "channel": 3,
      "note": 79,
      "start": 62.2128,
      "duration": 0.1009,
      "velocity": 106,
      "chip": "ym2612"
    },
    {
      "channel": 3,
      "note": 83,
      "start": 62.3204,
      "duration": 0.127,
      "velocity": 106,
      "chip": "ym2612"
    },
    {
      "channel": 4,
      "note": 78,
      "start": 62.3231,
      "duration": 0.1245,
      "velocity": 106,
      "chip": "ym2612"
    },
    {
      "channel": 1,
      "note": 48,
      "start": 62.454,
      "duration": 0.0924,
      "velocity": 92,
      "chip": "ym2612"
    },
    {
      "channel": 0,
      "note": 60,
      "start": 62.4566,
      "duration": 0.0232,
      "velocity": 106,
      "chip": "ym2612"
    },
    {
      "channel": 2,
      "note": 67,
      "start": 62.4591,
      "duration": 0.021,
      "velocity": 106,
      "chip": "ym2612"
    },
    {
      "channel": 3,
      "note": 84,
      "start": 62.4618,
      "duration": 0.0847,
      "velocity": 106,
      "chip": "ym2612"
    },
    {
      "channel": 4,
      "note": 79,
      "start": 62.4653,
      "duration": 0.0815,
      "velocity": 106,
      "chip": "ym2612"
    },
    {
      "channel": 1,
      "note": 48,
      "start": 62.5535,
      "duration": 0.0582,
      "velocity": 92,
      "chip": "ym2612"
    },
    {
      "channel": 0,
      "note": 67,
      "start": 62.5561,
      "duration": 0.0555,
      "velocity": 106,
      "chip": "ym2612"
    },
    {
      "channel": 2,
      "note": 60,
      "start": 62.5587,
      "duration": 0.0536,
      "velocity": 106,
      "chip": "ym2612"
    },
    {
      "channel": 3,
      "note": 84,
      "start": 62.5615,
      "duration": 0.0505,
      "velocity": 106,
      "chip": "ym2612"
    },
    {
      "channel": 4,
      "note": 79,
      "start": 62.5649,
      "duration": 0.0472,
      "velocity": 106,
      "chip": "ym2612"
    },
    {
      "channel": 3,
      "note": 83,
      "start": 62.6169,
      "duration": 0.1451,
      "velocity": 106,
      "chip": "ym2612"
    },
    {
      "channel": 4,
      "note": 78,
      "start": 62.6199,
      "duration": 0.1422,
      "velocity": 106,
      "chip": "ym2612"
    },
    {
      "channel": 1,
      "note": 48,
      "start": 62.7682,
      "duration": 0.0925,
      "velocity": 92,
      "chip": "ym2612"
    },
    {
      "channel": 0,
      "note": 60,
      "start": 62.771,
      "duration": 0.1563,
      "velocity": 106,
      "chip": "ym2612"
    },
    {
      "channel": 2,
      "note": 67,
      "start": 62.7736,
      "duration": 0.1541,
      "velocity": 106,
      "chip": "ym2612"
    },
    {
      "channel": 3,
      "note": 84,
      "start": 62.7764,
      "duration": 0.0844,
      "velocity": 106,
      "chip": "ym2612"
    },
    {
      "channel": 4,
      "note": 79,
      "start": 62.7798,
      "duration": 0.0812,
      "velocity": 106,
      "chip": "ym2612"
    },
    {
      "channel": 3,
      "note": 84,
      "start": 62.8646,
      "duration": 0.1294,
      "velocity": 106,
      "chip": "ym2612"
    },
    {
      "channel": 4,
      "note": 79,
      "start": 62.8672,
      "duration": 0.1269,
      "velocity": 106,
      "chip": "ym2612"
    },
    {
      "channel": 1,
      "note": 48,
      "start": 63.0003,
      "duration": 0.0592,
      "velocity": 92,
      "chip": "ym2612"
    },
    {
      "channel": 3,
      "note": 83,
      "start": 63.004,
      "duration": 0.0559,
      "velocity": 106,
      "chip": "ym2612"
    },
    {
      "channel": 4,
      "note": 78,
      "start": 63.0065,
      "duration": 0.0534,
      "velocity": 106,
      "chip": "ym2612"
    },
    {
      "channel": 3,
      "note": 84,
      "start": 63.064,
      "duration": 0.1289,
      "velocity": 106,
      "chip": "ym2612"
    },
    {
      "channel": 4,
      "note": 79,
      "start": 63.0667,
      "duration": 0.1263,
      "velocity": 106,
      "chip": "ym2612"
    },
    {
      "channel": 1,
      "note": 48,
      "start": 63.1992,
      "duration": 0.1091,
      "velocity": 92,
      "chip": "ym2612"
    },
    {
      "channel": 0,
      "note": 67,
      "start": 63.2016,
      "duration": 0.1734,
      "velocity": 106,
      "chip": "ym2612"
    },
    {
      "channel": 2,
      "note": 60,
      "start": 63.2043,
      "duration": 0.1711,
      "velocity": 106,
      "chip": "ym2612"
    },
    {
      "channel": 3,
      "note": 84,
      "start": 63.207,
      "duration": 0.1016,
      "velocity": 106,
      "chip": "ym2612"
    },
    {
      "channel": 4,
      "note": 79,
      "start": 63.2094,
      "duration": 0.0994,
      "velocity": 106,
      "chip": "ym2612"
    },
    {
      "channel": 3,
      "note": 83,
      "start": 63.3134,
      "duration": 0.1283,
      "velocity": 106,
      "chip": "ym2612"
    },
    {
      "channel": 4,
      "note": 78,
      "start": 63.3161,
      "duration": 0.1259,
      "velocity": 106,
      "chip": "ym2612"
    },
    {
      "channel": 1,
      "note": 48,
      "start": 63.4481,
      "duration": 0.0582,
      "velocity": 92,
      "chip": "ym2612"
    },
    {
      "channel": 3,
      "note": 84,
      "start": 63.4507,
      "duration": 0.0556,
      "velocity": 106,
      "chip": "ym2612"
    },
    {
      "channel": 4,
      "note": 79,
      "start": 63.4535,
      "duration": 0.0531,
      "velocity": 106,
      "chip": "ym2612"
    },
    {
      "channel": 0,
      "note": 62,
      "start": 63.5098,
      "duration": 0.1621,
      "velocity": 106,
      "chip": "ym2612"
    },
    {
      "channel": 2,
      "note": 65,
      "start": 63.5125,
      "duration": 0.1599,
      "velocity": 106,
      "chip": "ym2612"
    },
    {
      "channel": 3,
      "note": 84,
      "start": 63.5154,
      "duration": 0.1242,
      "velocity": 106,
      "chip": "ym2612"
    },
    {
      "channel": 4,
      "note": 79,
      "start": 63.5179,
      "duration": 0.122,
      "velocity": 106,
      "chip": "ym2612"
    },
    {
      "channel": 1,
      "note": 48,
      "start": 63.6463,
      "duration": 0.0925,
      "velocity": 92,
      "chip": "ym2612"
    },
    {
      "channel": 3,
      "note": 83,
      "start": 63.6498,
      "duration": 0.0892,
      "velocity": 106,
      "chip": "ym2612"
    },
    {
      "channel": 4,
      "note": 78,
      "start": 63.6523,
      "duration": 0.0868,
      "velocity": 106,
      "chip": "ym2612"
    },
    {
      "channel": 1,
      "note": 43,
      "start": 63.7455,
      "duration": 0.1091,
      "velocity": 92,
      "chip": "ym2612"
    },
    {
      "channel": 3,
      "note": 84,
      "start": 63.7482,
      "duration": 0.1065,
      "velocity": 106,
      "chip": "ym2612"
    },
    {
      "channel": 4,
      "note": 79,
      "start": 63.7508,
      "duration": 0.1042,
      "velocity": 106,
      "chip": "ym2612"
    },
    {
      "channel": 0,
      "note": 58,
      "start": 63.8615,
      "duration": 0.059,
      "velocity": 106,
      "chip": "ym2612"
    },
    {
      "channel": 2,
      "note": 63,
      "start": 63.8644,
      "duration": 0.0568,
      "velocity": 106,
      "chip": "ym2612"
    },
    {
      "channel": 3,
      "note": 84,
      "start": 63.8675,
      "duration": 0.0533,
      "velocity": 106,
      "chip": "ym2612"
    },
    {
      "channel": 4,
      "note": 79,
      "start": 63.87,
      "duration": 0.051,
      "velocity": 106,
      "chip": "ym2612"
    },
    {
      "channel": 1,
      "note": 46,
      "start": 63.9277,
      "duration": 0.226,
      "velocity": 92,
      "chip": "ym2612"
    },
    {
      "channel": 3,
      "note": 84,
      "start": 63.9304,
      "duration": 0.0898,
      "velocity": 106,
      "chip": "ym2612"
    },
    {
      "channel": 4,
      "note": 79,
      "start": 63.9329,
      "duration": 0.0874,
      "velocity": 106,
      "chip": "ym2612"
    },
    {
      "channel": 0,
      "note": 58,
      "start": 64.024,
      "duration": 1.5363,
      "velocity": 106,
      "chip": "ym2612"
    },
    {
      "channel": 2,
      "note": 63,
      "start": 64.0268,
      "duration": 0.8888,
      "velocity": 106,
      "chip": "ym2612"
    },
    {
      "channel": 3,
      "note": 84,
      "start": 64.0315,
      "duration": 1.3304,
      "velocity": 106,
      "chip": "ym2612"
    },
    {
      "channel": 1,
      "note": 41,
      "start": 64.1606,
      "duration": 0.1088,
      "velocity": 92,
      "chip": "ym2612"
    },
    {
      "channel": 1,
      "note": 46,
      "start": 64.2759,
      "duration": 0.0587,
      "velocity": 92,
      "chip": "ym2612"
    },
    {
      "channel": 1,
      "note": 46,
      "start": 64.4744,
      "duration": 0.0924,
      "velocity": 92,
      "chip": "ym2612"
    },
    {
      "channel": 1,
      "note": 46,
      "start": 64.7069,
      "duration": 0.0751,
      "velocity": 92,
      "chip": "ym2612"
    },
    {
      "channel": 1,
      "note": 46,
      "start": 64.9218,
      "duration": 0.0921,
      "velocity": 92,
      "chip": "ym2612"
    },
    {
      "channel": 2,
      "note": 62,
      "start": 64.9246,
      "duration": 0.6361,
      "velocity": 106,
      "chip": "ym2612"
    },
    {
      "channel": 1,
      "note": 43,
      "start": 65.1536,
      "duration": 0.0582,
      "velocity": 92,
      "chip": "ym2612"
    },
    {
      "channel": 1,
      "note": 51,
      "start": 65.3683,
      "duration": 0.0927,
      "velocity": 92,
      "chip": "ym2612"
    },
    {
      "channel": 3,
      "note": 89,
      "start": 65.3727,
      "duration": 1.5585,
      "velocity": 106,
      "chip": "ym2612"
    },
    {
      "channel": 4,
      "note": 86,
      "start": 65.3754,
      "duration": 1.5559,
      "velocity": 106,
      "chip": "ym2612"
    },
    {
      "channel": 1,
      "note": 50,
      "start": 65.4677,
      "duration": 0.1582,
      "velocity": 92,
      "chip": "ym2612"
    },
    {
      "channel": 1,
      "note": 46,
      "start": 65.6327,
      "duration": 0.2429,
      "velocity": 92,
      "chip": "ym2612"
    },
    {
      "channel": 0,
      "note": 58,
      "start": 65.6352,
      "duration": 0.1736,
      "velocity": 106,
      "chip": "ym2612"
    },
    {
      "channel": 2,
      "note": 65,
      "start": 65.6378,
      "duration": 0.1715,
      "velocity": 106,
      "chip": "ym2612"
    },
    {
      "channel": 1,
      "note": 48,
      "start": 65.8824,
      "duration": 0.0934,
      "velocity": 92,
      "chip": "ym2612"
    },
    {
      "channel": 0,
      "note": 60,
      "start": 65.8852,
      "duration": 0.0238,
      "velocity": 106,
      "chip": "ym2612"
    },
    {
      "channel": 2,
      "note": 67,
      "start": 65.8878,
      "duration": 0.0216,
      "velocity": 106,
      "chip": "ym2612"
    },
    {
      "channel": 1,
      "note": 48,
      "start": 65.9823,
      "duration": 0.0583,
      "velocity": 92,
      "chip": "ym2612"
    },
    {
      "channel": 0,
      "note": 60,
      "start": 65.985,
      "duration": 0.0555,
      "velocity": 106,
      "chip": "ym2612"
    },
    {
      "channel": 2,
      "note": 67,
      "start": 65.9877,
      "duration": 0.0534,
      "velocity": 106,
      "chip": "ym2612"
    },
    {
      "channel": 1,
      "note": 48,
      "start": 66.1802,
      "duration": 0.1091,
      "velocity": 92,
      "chip": "ym2612"
    },
    {
      "channel": 0,
      "note": 67,
      "start": 66.1826,
      "duration": 0.1066,
      "velocity": 106,
      "chip": "ym2612"
    },
    {
      "channel": 2,
      "note": 60,
      "start": 66.1854,
      "duration": 0.1044,
      "velocity": 106,
      "chip": "ym2612"
    },
    {
      "channel": 1,
      "note": 48,
      "start": 66.4288,
      "duration": 0.0585,
      "velocity": 92,
      "chip": "ym2612"
    },
    {
      "channel": 1,
      "note": 55,
      "start": 66.7256,
      "duration": 0.0752,
      "velocity": 92,
      "chip": "ym2612"
    },
    {
      "channel": 0,
      "note": 72,
      "start": 66.728,
      "duration": 0.0728,
      "velocity": 106,
      "chip": "ym2612"
    },
    {
      "channel": 1,
      "note": 53,
      "start": 66.8074,
      "duration": 0.0587,
      "velocity": 92,
      "chip": "ym2612"
    },
    {
      "channel": 0,
      "note": 70,
      "start": 66.81,
      "duration": 0.0559,
      "velocity": 106,
      "chip": "ym2612"
    },
    {
      "channel": 1,
      "note": 51,
      "start": 66.8726,
      "duration": 0.0583,
      "velocity": 92,
      "chip": "ym2612"
    },
    {
      "channel": 0,
      "note": 68,
      "start": 66.8748,
      "duration": 0.056,
      "velocity": 106,
      "chip": "ym2612"
    },
    {
      "channel": 1,
      "note": 50,
      "start": 66.9375,
      "duration": 0.0586,
      "velocity": 92,
      "chip": "ym2612"
    },
    {
      "channel": 0,
      "note": 67,
      "start": 66.9398,
      "duration": 0.0561,
      "velocity": 106,
      "chip": "ym2612"
    },
    {
      "channel": 1,
      "note": 48,
      "start": 67.0025,
      "duration": 0.0749,
      "velocity": 92,
      "chip": "ym2612"
    },
    {
      "channel": 0,
      "note": 65,
      "start": 67.0048,
      "duration": 0.0725,
      "velocity": 106,
      "chip": "ym2612"
    },
    {
      "channel": 1,
      "note": 46,
      "start": 67.0838,
      "duration": 0.058,
      "velocity": 92,
      "chip": "ym2612"
    },
    {
      "channel": 0,
      "note": 63,
      "start": 67.0861,
      "duration": 0.0556,
      "velocity": 106,
      "chip": "ym2612"
    },
    {
      "channel": 1,
      "note": 43,
      "start": 67.1488,
      "duration": 0.0581,
      "velocity": 92,
      "chip": "ym2612"
    },
    {
      "channel": 0,
      "note": 62,
      "start": 67.151,
      "duration": 0.0558,
      "velocity": 106,
      "chip": "ym2612"
    },
    {
      "channel": 2,
      "note": 48,
      "start": 67.2222,
      "duration": 0.0619,
      "velocity": 92,
      "chip": "ym2612"
    },
    {
      "channel": 3,
      "note": 67,
      "start": 67.2283,
      "duration": 20.6468,
      "velocity": 106,
      "chip": "ym2612"
    },
    {
      "channel": 4,
      "note": 60,
      "start": 67.2313,
      "duration": 20.6438,
      "velocity": 106,
      "chip": "ym2612"
    }
  ]
}