{
  "track_name": "07 - Funhouse",
  "duration_sec": 79.535,
  "sample_rate": 44100,
  "note_count": 1572,
  "unique_pitches": 54,
  "pitch_range": 60,
  "avg_note_duration": 0.1519,
  "reconstruction_stats": {
    "notes_reconstructed": 1572,
    "keyon_events": 1572,
    "keyoff_events": 1572,
    "orphan_keyons": 0,
    "unique_pitches": 54,
    "pitch_range": 60,
    "avg_duration_sec": 0.1519
  },
  "metadata": {
    "source": "N\\Nightmare Circus\\07 - Funhouse.vgz"
  },
  "notes": [
    {
      "channel": 3,
      "note": 61,
      "start": 0.0067,
      "duration": 0.06,
      "velocity": 93,
      "chip": "ym2612"
    },
    {
      "channel": 0,
      "note": 61,
      "start": 0.07,
      "duration": 0.0466,
      "velocity": 93,
      "chip": "ym2612"
    },
    {
      "channel": 3,
      "note": 61,
      "start": 0.3198,
      "duration": 0.047,
      "velocity": 93,
      "chip": "ym2612"
    },
    {
      "channel": 0,
      "note": 61,
      "start": 0.3863,
      "duration": 0.0638,
      "velocity": 93,
      "chip": "ym2612"
    },
    {
      "channel": 3,
      "note": 61,
      "start": 0.6529,
      "duration": 0.0471,
      "velocity": 93,
      "chip": "ym2612"
    },
    {
      "channel": 0,
      "note": 61,
      "start": 0.7195,
      "duration": 0.0472,
      "velocity": 93,
      "chip": "ym2612"
    },
    {
      "channel": 3,
      "note": 56,
      "start": 0.9695,
      "duration": 0.0473,
      "velocity": 93,
      "chip": "ym2612"
    },
    {
      "channel": 0,
      "note": 56,
      "start": 1.0362,
      "duration": 0.0472,
      "velocity": 93,
      "chip": "ym2612"
    },
    {
      "channel": 3,
      "note": 59,
      "start": 1.2864,
      "duration": 0.0469,
      "velocity": 93,
      "chip": "ym2612"
    },
    {
      "channel": 0,
      "note": 59,
      "start": 1.37,
      "duration": 0.0466,
      "velocity": 93,
      "chip": "ym2612"
    },
    {
      "channel": 3,
      "note": 52,
      "start": 1.5028,
      "duration": 0.0472,
      "velocity": 93,
      "chip": "ym2612"
    },
    {
      "channel": 0,
      "note": 52,
      "start": 1.5695,
      "duration": 0.0639,
      "velocity": 93,
      "chip": "ym2612"
    },
    {
      "channel": 3,
      "note": 61,
      "start": 1.7197,
      "duration": 0.0469,
      "velocity": 93,
      "chip": "ym2612"
    },
    {
      "channel": 0,
      "note": 61,
      "start": 1.7863,
      "duration": 0.0637,
      "velocity": 93,
      "chip": "ym2612"
    },
    {
      "channel": 3,
      "note": 61,
      "start": 2.0362,
      "duration": 0.0639,
      "velocity": 93,
      "chip": "ym2612"
    },
    {
      "channel": 0,
      "note": 61,
      "start": 2.1195,
      "duration": 0.0471,
      "velocity": 93,
      "chip": "ym2612"
    },
    {
      "channel": 3,
      "note": 61,
      "start": 2.3696,
      "duration": 0.0471,
      "velocity": 93,
      "chip": "ym2612"
    },
    {
      "channel": 0,
      "note": 61,
      "start": 2.4361,
      "duration": 0.0472,
      "velocity": 93,
      "chip": "ym2612"
    },
    {
      "channel": 3,
      "note": 56,
      "start": 2.6862,
      "duration": 0.0472,
      "velocity": 93,
      "chip": "ym2612"
    },
    {
      "channel": 0,
      "note": 56,
      "start": 2.7528,
      "duration": 0.0639,
      "velocity": 93,
      "chip": "ym2612"
    },
    {
      "channel": 3,
      "note": 59,
      "start": 3.003,
      "duration": 0.0637,
      "velocity": 93,
      "chip": "ym2612"
    },
    {
      "channel": 0,
      "note": 59,
      "start": 3.0864,
      "duration": 0.0469,
      "velocity": 93,
      "chip": "ym2612"
    },
    {
      "channel": 3,
      "note": 61,
      "start": 3.4381,
      "duration": 0.0785,
      "velocity": 93,
      "chip": "ym2612"
    },
    {
      "channel": 0,
      "note": 61,
      "start": 3.5199,
      "duration": 0.0468,
      "velocity": 93,
      "chip": "ym2612"
    },
    {
      "channel": 3,
      "note": 61,
      "start": 3.7697,
      "duration": 0.0471,
      "velocity": 93,
      "chip": "ym2612"
    },
    {
      "channel": 0,
      "note": 61,
      "start": 3.8362,
      "duration": 0.0471,
      "velocity": 93,
      "chip": "ym2612"
    },
    {
      "channel": 3,
      "note": 61,
      "start": 4.0862,
      "duration": 0.0471,
      "velocity": 93,
      "chip": "ym2612"
    },
    {
      "channel": 0,
      "note": 61,
      "start": 4.1528,
      "duration": 0.0639,
      "velocity": 93,
      "chip": "ym2612"
    },
    {
      "channel": 3,
      "note": 56,
      "start": 4.4028,
      "duration": 0.0639,
      "velocity": 93,
      "chip": "ym2612"
    },
    {
      "channel": 0,
      "note": 56,
      "start": 4.4861,
      "duration": 0.0472,
      "velocity": 93,
      "chip": "ym2612"
    },
    {
      "channel": 3,
      "note": 59,
      "start": 4.7363,
      "duration": 0.0471,
      "velocity": 93,
      "chip": "ym2612"
    },
    {
      "channel": 0,
      "note": 59,
      "start": 4.803,
      "duration": 0.0469,
      "velocity": 93,
      "chip": "ym2612"
    },
    {
      "channel": 3,
      "note": 52,
      "start": 4.9529,
      "duration": 0.0471,
      "velocity": 93,
      "chip": "ym2612"
    },
    {
      "channel": 0,
      "note": 52,
      "start": 5.0195,
      "duration": 0.0472,
      "velocity": 93,
      "chip": "ym2612"
    },
    {
      "channel": 3,
      "note": 61,
      "start": 5.1696,
      "duration": 0.0471,
      "velocity": 93,
      "chip": "ym2612"
    },
    {
      "channel": 0,
      "note": 61,
      "start": 5.2364,
      "duration": 0.0469,
      "velocity": 93,
      "chip": "ym2612"
    },
    {
      "channel": 3,
      "note": 61,
      "start": 5.4862,
      "duration": 0.0471,
      "velocity": 93,
      "chip": "ym2612"
    },
    {
      "channel": 0,
      "note": 61,
      "start": 5.5529,
      "duration": 0.0471,
      "velocity": 93,
      "chip": "ym2612"
    },
    {
      "channel": 3,
      "note": 61,
      "start": 5.8029,
      "duration": 0.0637,
      "velocity": 93,
      "chip": "ym2612"
    },
    {
      "channel": 0,
      "note": 61,
      "start": 5.8862,
      "duration": 0.047,
      "velocity": 93,
      "chip": "ym2612"
    },
    {
      "channel": 3,
      "note": 56,
      "start": 6.1366,
      "duration": 0.0468,
      "velocity": 93,
      "chip": "ym2612"
    },
    {
      "channel": 0,
      "note": 56,
      "start": 6.2028,
      "duration": 0.0471,
      "velocity": 93,
      "chip": "ym2612"
    },
    {
      "channel": 3,
      "note": 59,
      "start": 6.453,
      "duration": 0.0469,
      "velocity": 93,
      "chip": "ym2612"
    },
    {
      "channel": 0,
      "note": 59,
      "start": 6.52,
      "duration": 0.0633,
      "velocity": 93,
      "chip": "ym2612"
    },
    {
      "channel": 3,
      "note": 61,
      "start": 6.8878,
      "duration": 0.0623,
      "velocity": 93,
      "chip": "ym2612"
    },
    {
      "channel": 1,
      "note": 33,
      "start": 6.8937,
      "duration": 0.073,
      "velocity": 124,
      "chip": "ym2612"
    },
    {
      "channel": 0,
      "note": 61,
      "start": 6.9533,
      "duration": 0.0466,
      "velocity": 93,
      "chip": "ym2612"
    },
    {
      "channel": 3,
      "note": 61,
      "start": 7.203,
      "duration": 0.0471,
      "velocity": 93,
      "chip": "ym2612"
    },
    {
      "channel": 0,
      "note": 61,
      "start": 7.2695,
      "duration": 0.0638,
      "velocity": 93,
      "chip": "ym2612"
    },
    {
      "channel": 1,
      "note": 33,
      "start": 7.3224,
      "duration": 0.0775,
      "velocity": 124,
      "chip": "ym2612"
    },
    {
      "channel": 3,
      "note": 61,
      "start": 7.5362,
      "duration": 0.0472,
      "velocity": 93,
      "chip": "ym2612"
    },
    {
      "channel": 0,
      "note": 61,
      "start": 7.6028,
      "duration": 0.0471,
      "velocity": 93,
      "chip": "ym2612"
    },
    {
      "channel": 1,
      "note": 33,
      "start": 7.7384,
      "duration": 0.0948,
      "velocity": 124,
      "chip": "ym2612"
    },
    {
      "channel": 3,
      "note": 56,
      "start": 7.8529,
      "duration": 0.0471,
      "velocity": 93,
      "chip": "ym2612"
    },
    {
      "channel": 0,
      "note": 56,
      "start": 7.9195,
      "duration": 0.0471,
      "velocity": 93,
      "chip": "ym2612"
    },
    {
      "channel": 3,
      "note": 59,
      "start": 8.1696,
      "duration": 0.0471,
      "velocity": 93,
      "chip": "ym2612"
    },
    {
      "channel": 1,
      "note": 33,
      "start": 8.1744,
      "duration": 0.0924,
      "velocity": 124,
      "chip": "ym2612"
    },
    {
      "channel": 0,
      "note": 59,
      "start": 8.253,
      "duration": 0.0469,
      "velocity": 93,
      "chip": "ym2612"
    },
    {
      "channel": 3,
      "note": 52,
      "start": 8.3862,
      "duration": 0.0471,
      "velocity": 93,
      "chip": "ym2612"
    },
    {
      "channel": 0,
      "note": 52,
      "start": 8.4528,
      "duration": 0.0637,
      "velocity": 93,
      "chip": "ym2612"
    },
    {
      "channel": 3,
      "note": 61,
      "start": 8.603,
      "duration": 0.0471,
      "velocity": 93,
      "chip": "ym2612"
    },
    {
      "channel": 1,
      "note": 33,
      "start": 8.6077,
      "duration": 0.0756,
      "velocity": 124,
      "chip": "ym2612"
    },
    {
      "channel": 0,
      "note": 61,
      "start": 8.6697,
      "duration": 0.0635,
      "velocity": 93,
      "chip": "ym2612"
    },
    {
      "channel": 3,
      "note": 61,
      "start": 8.9195,
      "duration": 0.0639,
      "velocity": 93,
      "chip": "ym2612"
    },
    {
      "channel": 0,
      "note": 61,
      "start": 9.0029,
      "duration": 0.047,
      "velocity": 93,
      "chip": "ym2612"
    },
    {
      "channel": 1,
      "note": 33,
      "start": 9.0384,
      "duration": 0.0782,
      "velocity": 124,
      "chip": "ym2612"
    },
    {
      "channel": 3,
      "note": 61,
      "start": 9.2528,
      "duration": 0.0473,
      "velocity": 93,
      "chip": "ym2612"
    },
    {
      "channel": 0,
      "note": 61,
      "start": 9.3195,
      "duration": 0.0473,
      "velocity": 93,
      "chip": "ym2612"
    },
    {
      "channel": 1,
      "note": 33,
      "start": 9.4717,
      "duration": 0.0782,
      "velocity": 124,
      "chip": "ym2612"
    },
    {
      "channel": 3,
      "note": 56,
      "start": 9.5699,
      "duration": 0.0468,
      "velocity": 93,
      "chip": "ym2612"
    },
    {
      "channel": 0,
      "note": 56,
      "start": 9.6362,
      "duration": 0.0637,
      "velocity": 93,
      "chip": "ym2612"
    },
    {
      "channel": 3,
      "note": 59,
      "start": 9.903,
      "duration": 0.047,
      "velocity": 93,
      "chip": "ym2612"
    },
    {
      "channel": 1,
      "note": 33,
      "start": 9.9077,
      "duration": 0.0757,
      "velocity": 124,
      "chip": "ym2612"
    },
    {
      "channel": 0,
      "note": 59,
      "start": 9.9701,
      "duration": 0.0466,
      "velocity": 93,
      "chip": "ym2612"
    },
    {
      "channel": 3,
      "note": 61,
      "start": 10.321,
      "duration": 0.0624,
      "velocity": 93,
      "chip": "ym2612"
    },
    {
      "channel": 1,
      "note": 33,
      "start": 10.3399,
      "duration": 0.0767,
      "velocity": 124,
      "chip": "ym2612"
    },
    {
      "channel": 0,
      "note": 61,
      "start": 10.4032,
      "duration": 0.0468,
      "velocity": 93,
      "chip": "ym2612"
    },
    {
      "channel": 3,
      "note": 61,
      "start": 10.6529,
      "duration": 0.0471,
      "velocity": 93,
      "chip": "ym2612"
    },
    {
      "channel": 0,
      "note": 61,
      "start": 10.7195,
      "duration": 0.0472,
      "velocity": 93,
      "chip": "ym2612"
    },
    {
      "channel": 1,
      "note": 33,
      "start": 10.7554,
      "duration": 0.0946,
      "velocity": 124,
      "chip": "ym2612"
    },
    {
      "channel": 3,
      "note": 61,
      "start": 10.9696,
      "duration": 0.0471,
      "velocity": 93,
      "chip": "ym2612"
    },
    {
      "channel": 0,
      "note": 61,
      "start": 11.0362,
      "duration": 0.0637,
      "velocity": 93,
      "chip": "ym2612"
    },
    {
      "channel": 1,
      "note": 33,
      "start": 11.1885,
      "duration": 0.0783,
      "velocity": 124,
      "chip": "ym2612"
    },
    {
      "channel": 3,
      "note": 56,
      "start": 11.2862,
      "duration": 0.0638,
      "velocity": 93,
      "chip": "ym2612"
    },
    {
      "channel": 0,
      "note": 56,
      "start": 11.3695,
      "duration": 0.0472,
      "velocity": 93,
      "chip": "ym2612"
    },
    {
      "channel": 3,
      "note": 59,
      "start": 11.6201,
      "duration": 0.0466,
      "velocity": 93,
      "chip": "ym2612"
    },
    {
      "channel": 1,
      "note": 33,
      "start": 11.6247,
      "duration": 0.0753,
      "velocity": 124,
      "chip": "ym2612"
    },
    {
      "channel": 0,
      "note": 59,
      "start": 11.6867,
      "duration": 0.0466,
      "velocity": 93,
      "chip": "ym2612"
    },
    {
      "channel": 3,
      "note": 52,
      "start": 11.8362,
      "duration": 0.0472,
      "velocity": 93,
      "chip": "ym2612"
    },
    {
      "channel": 0,
      "note": 52,
      "start": 11.9028,
      "duration": 0.0471,
      "velocity": 93,
      "chip": "ym2612"
    },
    {
      "channel": 3,
      "note": 61,
      "start": 12.0531,
      "duration": 0.0469,
      "velocity": 93,
      "chip": "ym2612"
    },
    {
      "channel": 1,
      "note": 33,
      "start": 12.0577,
      "duration": 0.0756,
      "velocity": 124,
      "chip": "ym2612"
    },
    {
      "channel": 0,
      "note": 61,
      "start": 12.1196,
      "duration": 0.0471,
      "velocity": 93,
      "chip": "ym2612"
    },
    {
      "channel": 3,
      "note": 61,
      "start": 12.3696,
      "duration": 0.0471,
      "velocity": 93,
      "chip": "ym2612"
    },
    {
      "channel": 0,
      "note": 61,
      "start": 12.4362,
      "duration": 0.0471,
      "velocity": 93,
      "chip": "ym2612"
    },
    {
      "channel": 1,
      "note": 33,
      "start": 12.4716,
      "duration": 0.095,
      "velocity": 124,
      "chip": "ym2612"
    },
    {
      "channel": 3,
      "note": 61,
      "start": 12.6862,
      "duration": 0.0639,
      "velocity": 93,
      "chip": "ym2612"
    },
    {
      "channel": 0,
      "note": 61,
      "start": 12.7695,
      "duration": 0.0471,
      "velocity": 93,
      "chip": "ym2612"
    },
    {
      "channel": 1,
      "note": 33,
      "start": 12.905,
      "duration": 0.0949,
      "velocity": 124,
      "chip": "ym2612"
    },
    {
      "channel": 3,
      "note": 56,
      "start": 13.0196,
      "duration": 0.0471,
      "velocity": 93,
      "chip": "ym2612"
    },
    {
      "channel": 0,
      "note": 56,
      "start": 13.0862,
      "duration": 0.0471,
      "velocity": 93,
      "chip": "ym2612"
    },
    {
      "channel": 3,
      "note": 59,
      "start": 13.3363,
      "duration": 0.0471,
      "velocity": 93,
      "chip": "ym2612"
    },
    {
      "channel": 1,
      "note": 33,
      "start": 13.341,
      "duration": 0.0758,
      "velocity": 124,
      "chip": "ym2612"
    },
    {
      "channel": 0,
      "note": 59,
      "start": 13.403,
      "duration": 0.0635,
      "velocity": 93,
      "chip": "ym2612"
    },
    {
      "channel": 3,
      "note": 61,
      "start": 13.7698,
      "duration": 0.0471,
      "velocity": 93,
      "chip": "ym2612"
    },
    {
      "channel": 4,
      "note": 88,
      "start": 13.7741,
      "duration": 5.1595,
      "velocity": 81,
      "chip": "ym2612"
    },
    {
      "channel": 5,
      "note": 80,
      "start": 13.7783,
      "duration": 5.2385,
      "velocity": 81,
      "chip": "ym2612"
    },
    {
      "channel": 2,
      "note": 73,
      "start": 13.7836,
      "duration": 5.0999,
      "velocity": 81,
      "chip": "ym2612"
    },
    {
      "channel": 1,
      "note": 40,
      "start": 13.7879,
      "duration": 0.0288,
      "velocity": 114,
      "chip": "ym2612"
    },
    {
      "channel": 0,
      "note": 33,
      "start": 13.7925,
      "duration": 0.0575,
      "velocity": 124,
      "chip": "ym2612"
    },
    {
      "channel": 1,
      "note": 40,
      "start": 13.8221,
      "duration": 0.0445,
      "velocity": 114,
      "chip": "ym2612"
    },
    {
      "channel": 3,
      "note": 61,
      "start": 13.8366,
      "duration": 0.0468,
      "velocity": 93,
      "chip": "ym2612"
    },
    {
      "channel": 0,
      "note": 44,
      "start": 13.8704,
      "duration": 0.0628,
      "velocity": 114,
      "chip": "ym2612"
    },
    {
      "channel": 1,
      "note": 44,
      "start": 13.937,
      "duration": 0.0464,
      "velocity": 114,
      "chip": "ym2612"
    },
    {
      "channel": 0,
      "note": 49,
      "start": 13.9869,
      "duration": 0.0464,
      "velocity": 114,
      "chip": "ym2612"
    },
    {
      "channel": 1,
      "note": 49,
      "start": 14.0371,
      "duration": 0.0463,
      "velocity": 114,
      "chip": "ym2612"
    },
    {
      "channel": 3,
      "note": 61,
      "start": 14.0866,
      "duration": 0.047,
      "velocity": 93,
      "chip": "ym2612"
    },
    {
      "channel": 0,
      "note": 52,
      "start": 14.0895,
      "duration": 0.0438,
      "velocity": 114,
      "chip": "ym2612"
    },
    {
      "channel": 1,
      "note": 52,
      "start": 14.1371,
      "duration": 0.0629,
      "velocity": 114,
      "chip": "ym2612"
    },
    {
      "channel": 0,
      "note": 61,
      "start": 14.1698,
      "duration": 0.0469,
      "velocity": 93,
      "chip": "ym2612"
    },
    {
      "channel": 3,
      "note": 40,
      "start": 14.2053,
      "duration": 0.0449,
      "velocity": 114,
      "chip": "ym2612"
    },
    {
      "channel": 1,
      "note": 53,
      "start": 14.2089,
      "duration": 0.1079,
      "velocity": 127,
      "chip": "ym2612"
    },
    {
      "channel": 0,
      "note": 40,
      "start": 14.2555,
      "duration": 0.0445,
      "velocity": 114,
      "chip": "ym2612"
    },
    {
      "channel": 3,
      "note": 44,
      "start": 14.3037,
      "duration": 0.0464,
      "velocity": 114,
      "chip": "ym2612"
    },
    {
      "channel": 0,
      "note": 44,
      "start": 14.3537,
      "duration": 0.063,
      "velocity": 114,
      "chip": "ym2612"
    },
    {
      "channel": 1,
      "note": 61,
      "start": 14.4198,
      "duration": 0.0469,
      "velocity": 93,
      "chip": "ym2612"
    },
    {
      "channel": 3,
      "note": 49,
      "start": 14.4229,
      "duration": 0.0439,
      "velocity": 114,
      "chip": "ym2612"
    },
    {
      "channel": 0,
      "note": 49,
      "start": 14.4705,
      "duration": 0.0462,
      "velocity": 114,
      "chip": "ym2612"
    },
    {
      "channel": 1,
      "note": 61,
      "start": 14.4866,
      "duration": 0.0468,
      "velocity": 93,
      "chip": "ym2612"
    },
    {
      "channel": 3,
      "note": 52,
      "start": 14.5203,
      "duration": 0.0464,
      "velocity": 114,
      "chip": "ym2612"
    },
    {
      "channel": 0,
      "note": 52,
      "start": 14.5703,
      "duration": 0.0464,
      "velocity": 114,
      "chip": "ym2612"
    },
    {
      "channel": 3,
      "note": 40,
      "start": 14.6222,
      "duration": 0.0612,
      "velocity": 114,
      "chip": "ym2612"
    },
    {
      "channel": 1,
      "note": 33,
      "start": 14.6272,
      "duration": 0.0895,
      "velocity": 124,
      "chip": "ym2612"
    },
    {
      "channel": 0,
      "note": 40,
      "start": 14.6888,
      "duration": 0.0445,
      "velocity": 114,
      "chip": "ym2612"
    },
    {
      "channel": 3,
      "note": 56,
      "start": 14.7365,
      "duration": 0.0471,
      "velocity": 93,
      "chip": "ym2612"
    },
    {
      "channel": 1,
      "note": 45,
      "start": 14.7398,
      "duration": 0.0436,
      "velocity": 114,
      "chip": "ym2612"
    },
    {
      "channel": 0,
      "note": 45,
      "start": 14.7871,
      "duration": 0.0462,
      "velocity": 114,
      "chip": "ym2612"
    },
    {
      "channel": 1,
      "note": 56,
      "start": 14.8032,
      "duration": 0.0468,
      "velocity": 93,
      "chip": "ym2612"
    },
    {
      "channel": 3,
      "note": 49,
      "start": 14.8373,
      "duration": 0.0628,
      "velocity": 114,
      "chip": "ym2612"
    },
    {
      "channel": 0,
      "note": 49,
      "start": 14.9037,
      "duration": 0.0464,
      "velocity": 114,
      "chip": "ym2612"
    },
    {
      "channel": 3,
      "note": 52,
      "start": 14.9537,
      "duration": 0.0463,
      "velocity": 114,
      "chip": "ym2612"
    },
    {
      "channel": 0,
      "note": 52,
      "start": 15.0037,
      "duration": 0.0462,
      "velocity": 114,
      "chip": "ym2612"
    },
    {
      "channel": 1,
      "note": 59,
      "start": 15.0537,
      "duration": 0.0631,
      "velocity": 93,
      "chip": "ym2612"
    },
    {
      "channel": 3,
      "note": 40,
      "start": 15.0582,
      "duration": 0.0587,
      "velocity": 114,
      "chip": "ym2612"
    },
    {
      "channel": 0,
      "note": 53,
      "start": 15.0611,
      "duration": 0.1223,
      "velocity": 127,
      "chip": "ym2612"
    },
    {
      "channel": 1,
      "note": 40,
      "start": 15.1222,
      "duration": 0.0445,
      "velocity": 114,
      "chip": "ym2612"
    },
    {
      "channel": 3,
      "note": 59,
      "start": 15.1368,
      "duration": 0.0468,
      "velocity": 93,
      "chip": "ym2612"
    },
    {
      "channel": 1,
      "note": 45,
      "start": 15.1705,
      "duration": 0.0463,
      "velocity": 114,
      "chip": "ym2612"
    },
    {
      "channel": 0,
      "note": 45,
      "start": 15.2207,
      "duration": 0.0459,
      "velocity": 114,
      "chip": "ym2612"
    },
    {
      "channel": 3,
      "note": 52,
      "start": 15.2698,
      "duration": 0.047,
      "velocity": 93,
      "chip": "ym2612"
    },
    {
      "channel": 1,
      "note": 49,
      "start": 15.2729,
      "duration": 0.0437,
      "velocity": 114,
      "chip": "ym2612"
    },
    {
      "channel": 0,
      "note": 49,
      "start": 15.3204,
      "duration": 0.0629,
      "velocity": 114,
      "chip": "ym2612"
    },
    {
      "channel": 1,
      "note": 52,
      "start": 15.3536,
      "duration": 0.0464,
      "velocity": 93,
      "chip": "ym2612"
    },
    {
      "channel": 3,
      "note": 52,
      "start": 15.3872,
      "duration": 0.0463,
      "velocity": 114,
      "chip": "ym2612"
    },
    {
      "channel": 0,
      "note": 52,
      "start": 15.437,
      "duration": 0.0464,
      "velocity": 114,
      "chip": "ym2612"
    },
    {
      "channel": 1,
      "note": 61,
      "start": 15.4868,
      "duration": 0.0467,
      "velocity": 93,
      "chip": "ym2612"
    },
    {
      "channel": 3,
      "note": 40,
      "start": 15.4923,
      "duration": 0.0413,
      "velocity": 114,
      "chip": "ym2612"
    },
    {
      "channel": 0,
      "note": 33,
      "start": 15.4966,
      "duration": 0.0868,
      "velocity": 124,
      "chip": "ym2612"
    },
    {
      "channel": 1,
      "note": 40,
      "start": 15.5399,
      "duration": 0.0602,
      "velocity": 114,
      "chip": "ym2612"
    },
    {
      "channel": 3,
      "note": 61,
      "start": 15.5534,
      "duration": 0.0633,
      "velocity": 93,
      "chip": "ym2612"
    },
    {
      "channel": 0,
      "note": 44,
      "start": 15.6039,
      "duration": 0.0462,
      "velocity": 114,
      "chip": "ym2612"
    },
    {
      "channel": 1,
      "note": 44,
      "start": 15.6538,
      "duration": 0.0462,
      "velocity": 114,
      "chip": "ym2612"
    },
    {
      "channel": 0,
      "note": 49,
      "start": 15.7036,
      "duration": 0.0464,
      "velocity": 114,
      "chip": "ym2612"
    },
    {
      "channel": 1,
      "note": 49,
      "start": 15.7537,
      "duration": 0.0462,
      "velocity": 114,
      "chip": "ym2612"
    },
    {
      "channel": 3,
      "note": 61,
      "start": 15.8032,
      "duration": 0.0636,
      "velocity": 93,
      "chip": "ym2612"
    },
    {
      "channel": 0,
      "note": 52,
      "start": 15.8061,
      "duration": 0.0604,
      "velocity": 114,
      "chip": "ym2612"
    },
    {
      "channel": 1,
      "note": 52,
      "start": 15.8704,
      "duration": 0.0462,
      "velocity": 114,
      "chip": "ym2612"
    },
    {
      "channel": 0,
      "note": 61,
      "start": 15.8864,
      "duration": 0.047,
      "velocity": 93,
      "chip": "ym2612"
    },
    {
      "channel": 3,
      "note": 40,
      "start": 15.9215,
      "duration": 0.0452,
      "velocity": 114,
      "chip": "ym2612"
    },
    {
      "channel": 1,
      "note": 53,
      "start": 15.9244,
      "duration": 0.109,
      "velocity": 127,
      "chip": "ym2612"
    },
    {
      "channel": 0,
      "note": 40,
      "start": 15.9717,
      "duration": 0.0449,
      "velocity": 114,
      "chip": "ym2612"
    },
    {
      "channel": 3,
      "note": 44,
      "start": 16.0204,
      "duration": 0.0631,
      "velocity": 114,
      "chip": "ym2612"
    },
    {
      "channel": 0,
      "note": 44,
      "start": 16.0871,
      "duration": 0.0462,
      "velocity": 114,
      "chip": "ym2612"
    },
    {
      "channel": 1,
      "note": 61,
      "start": 16.1365,
      "duration": 0.0468,
      "velocity": 93,
      "chip": "ym2612"
    },
    {
      "channel": 3,
      "note": 49,
      "start": 16.1396,
      "duration": 0.0439,
      "velocity": 114,
      "chip": "ym2612"
    },
    {
      "channel": 0,
      "note": 49,
      "start": 16.1871,
      "duration": 0.0462,
      "velocity": 114,
      "chip": "ym2612"
    },
    {
      "channel": 1,
      "note": 61,
      "start": 16.2032,
      "duration": 0.0469,
      "velocity": 93,
      "chip": "ym2612"
    },
    {
      "channel": 3,
      "note": 52,
      "start": 16.237,
      "duration": 0.0631,
      "velocity": 114,
      "chip": "ym2612"
    },
    {
      "channel": 0,
      "note": 52,
      "start": 16.3037,
      "duration": 0.0464,
      "velocity": 114,
      "chip": "ym2612"
    },
    {
      "channel": 3,
      "note": 40,
      "start": 16.3555,
      "duration": 0.0446,
      "velocity": 114,
      "chip": "ym2612"
    },
    {
      "channel": 1,
      "note": 33,
      "start": 16.3598,
      "duration": 0.0736,
      "velocity": 124,
      "chip": "ym2612"
    },
    {
      "channel": 0,
      "note": 40,
      "start": 16.4055,
      "duration": 0.0445,
      "velocity": 114,
      "chip": "ym2612"
    },
    {
      "channel": 3,
      "note": 56,
      "start": 16.4532,
      "duration": 0.0469,
      "velocity": 93,
      "chip": "ym2612"
    },
    {
      "channel": 1,
      "note": 43,
      "start": 16.4565,
      "duration": 0.0434,
      "velocity": 114,
      "chip": "ym2612"
    },
    {
      "channel": 0,
      "note": 43,
      "start": 16.5037,
      "duration": 0.063,
      "velocity": 114,
      "chip": "ym2612"
    },
    {
      "channel": 1,
      "note": 56,
      "start": 16.5366,
      "duration": 0.0468,
      "velocity": 93,
      "chip": "ym2612"
    },
    {
      "channel": 3,
      "note": 47,
      "start": 16.5706,
      "duration": 0.0462,
      "velocity": 114,
      "chip": "ym2612"
    },
    {
      "channel": 0,
      "note": 47,
      "start": 16.6204,
      "duration": 0.0462,
      "velocity": 114,
      "chip": "ym2612"
    },
    {
      "channel": 3,
      "note": 52,
      "start": 16.6703,
      "duration": 0.0464,
      "velocity": 114,
      "chip": "ym2612"
    },
    {
      "channel": 0,
      "note": 52,
      "start": 16.7204,
      "duration": 0.0629,
      "velocity": 114,
      "chip": "ym2612"
    },
    {
      "channel": 1,
      "note": 59,
      "start": 16.7867,
      "duration": 0.0468,
      "velocity": 93,
      "chip": "ym2612"
    },
    {
      "channel": 3,
      "note": 40,
      "start": 16.7913,
      "duration": 0.0423,
      "velocity": 114,
      "chip": "ym2612"
    },
    {
      "channel": 0,
      "note": 53,
      "start": 16.7941,
      "duration": 0.1059,
      "velocity": 127,
      "chip": "ym2612"
    },
    {
      "channel": 1,
      "note": 40,
      "start": 16.8389,
      "duration": 0.0445,
      "velocity": 114,
      "chip": "ym2612"
    },
    {
      "channel": 3,
      "note": 59,
      "start": 16.8534,
      "duration": 0.0468,
      "velocity": 93,
      "chip": "ym2612"
    },
    {
      "channel": 1,
      "note": 43,
      "start": 16.8873,
      "duration": 0.0461,
      "velocity": 114,
      "chip": "ym2612"
    },
    {
      "channel": 0,
      "note": 43,
      "start": 16.9373,
      "duration": 0.046,
      "velocity": 114,
      "chip": "ym2612"
    },
    {
      "channel": 1,
      "note": 47,
      "start": 16.9869,
      "duration": 0.0631,
      "velocity": 114,
      "chip": "ym2612"
    },
    {
      "channel": 0,
      "note": 47,
      "start": 17.0537,
      "duration": 0.0462,
      "velocity": 114,
      "chip": "ym2612"
    },
    {
      "channel": 1,
      "note": 52,
      "start": 17.1036,
      "duration": 0.0464,
      "velocity": 114,
      "chip": "ym2612"
    },
    {
      "channel": 0,
      "note": 52,
      "start": 17.1537,
      "duration": 0.0464,
      "velocity": 114,
      "chip": "ym2612"
    },
    {
      "channel": 3,
      "note": 61,
      "start": 17.2034,
      "duration": 0.0634,
      "velocity": 93,
      "chip": "ym2612"
    },
    {
      "channel": 1,
      "note": 40,
      "start": 17.2091,
      "duration": 0.0575,
      "velocity": 114,
      "chip": "ym2612"
    },
    {
      "channel": 0,
      "note": 33,
      "start": 17.2134,
      "duration": 0.0866,
      "velocity": 124,
      "chip": "ym2612"
    },
    {
      "channel": 1,
      "note": 40,
      "start": 17.2733,
      "duration": 0.0433,
      "velocity": 114,
      "chip": "ym2612"
    },
    {
      "channel": 3,
      "note": 61,
      "start": 17.2867,
      "duration": 0.0468,
      "velocity": 93,
      "chip": "ym2612"
    },
    {
      "channel": 0,
      "note": 44,
      "start": 17.3205,
      "duration": 0.0462,
      "velocity": 114,
      "chip": "ym2612"
    },
    {
      "channel": 1,
      "note": 44,
      "start": 17.3704,
      "duration": 0.0462,
      "velocity": 114,
      "chip": "ym2612"
    },
    {
      "channel": 0,
      "note": 49,
      "start": 17.4202,
      "duration": 0.0632,
      "velocity": 114,
      "chip": "ym2612"
    },
    {
      "channel": 1,
      "note": 49,
      "start": 17.4871,
      "duration": 0.0462,
      "velocity": 114,
      "chip": "ym2612"
    },
    {
      "channel": 3,
      "note": 61,
      "start": 17.5366,
      "duration": 0.047,
      "velocity": 93,
      "chip": "ym2612"
    },
    {
      "channel": 0,
      "note": 52,
      "start": 17.5395,
      "duration": 0.0438,
      "velocity": 114,
      "chip": "ym2612"
    },
    {
      "channel": 1,
      "note": 52,
      "start": 17.5871,
      "duration": 0.0462,
      "velocity": 114,
      "chip": "ym2612"
    },
    {
      "channel": 0,
      "note": 61,
      "start": 17.6033,
      "duration": 0.0468,
      "velocity": 93,
      "chip": "ym2612"
    },
    {
      "channel": 3,
      "note": 40,
      "start": 17.6382,
      "duration": 0.0452,
      "velocity": 114,
      "chip": "ym2612"
    },
    {
      "channel": 1,
      "note": 53,
      "start": 17.6411,
      "duration": 0.1256,
      "velocity": 127,
      "chip": "ym2612"
    },
    {
      "channel": 0,
      "note": 40,
      "start": 17.6884,
      "duration": 0.0616,
      "velocity": 114,
      "chip": "ym2612"
    },
    {
      "channel": 3,
      "note": 44,
      "start": 17.7538,
      "duration": 0.0463,
      "velocity": 114,
      "chip": "ym2612"
    },
    {
      "channel": 0,
      "note": 44,
      "start": 17.8037,
      "duration": 0.0462,
      "velocity": 114,
      "chip": "ym2612"
    },
    {
      "channel": 1,
      "note": 61,
      "start": 17.8532,
      "duration": 0.0468,
      "velocity": 93,
      "chip": "ym2612"
    },
    {
      "channel": 3,
      "note": 49,
      "start": 17.8563,
      "duration": 0.0439,
      "velocity": 114,
      "chip": "ym2612"
    },
    {
      "channel": 0,
      "note": 49,
      "start": 17.9037,
      "duration": 0.063,
      "velocity": 114,
      "chip": "ym2612"
    },
    {
      "channel": 1,
      "note": 61,
      "start": 17.9198,
      "duration": 0.0636,
      "velocity": 93,
      "chip": "ym2612"
    },
    {
      "channel": 3,
      "note": 52,
      "start": 17.9704,
      "duration": 0.0464,
      "velocity": 114,
      "chip": "ym2612"
    },
    {
      "channel": 0,
      "note": 52,
      "start": 18.0204,
      "duration": 0.0462,
      "velocity": 114,
      "chip": "ym2612"
    },
    {
      "channel": 3,
      "note": 40,
      "start": 18.0721,
      "duration": 0.0446,
      "velocity": 114,
      "chip": "ym2612"
    },
    {
      "channel": 1,
      "note": 33,
      "start": 18.0764,
      "duration": 0.0737,
      "velocity": 124,
      "chip": "ym2612"
    },
    {
      "channel": 0,
      "note": 40,
      "start": 18.1221,
      "duration": 0.0446,
      "velocity": 114,
      "chip": "ym2612"
    },
    {
      "channel": 3,
      "note": 56,
      "start": 18.17,
      "duration": 0.0636,
      "velocity": 93,
      "chip": "ym2612"
    },
    {
      "channel": 1,
      "note": 43,
      "start": 18.1733,
      "duration": 0.0601,
      "velocity": 114,
      "chip": "ym2612"
    },
    {
      "channel": 0,
      "note": 43,
      "start": 18.2371,
      "duration": 0.0462,
      "velocity": 114,
      "chip": "ym2612"
    },
    {
      "channel": 1,
      "note": 56,
      "start": 18.2532,
      "duration": 0.0468,
      "velocity": 93,
      "chip": "ym2612"
    },
    {
      "channel": 3,
      "note": 47,
      "start": 18.2873,
      "duration": 0.0463,
      "velocity": 114,
      "chip": "ym2612"
    },
    {
      "channel": 0,
      "note": 47,
      "start": 18.3371,
      "duration": 0.0462,
      "velocity": 114,
      "chip": "ym2612"
    },
    {
      "channel": 3,
      "note": 52,
      "start": 18.3871,
      "duration": 0.0629,
      "velocity": 114,
      "chip": "ym2612"
    },
    {
      "channel": 0,
      "note": 52,
      "start": 18.4536,
      "duration": 0.0463,
      "velocity": 114,
      "chip": "ym2612"
    },
    {
      "channel": 1,
      "note": 59,
      "start": 18.5033,
      "duration": 0.0468,
      "velocity": 93,
      "chip": "ym2612"
    },
    {
      "channel": 3,
      "note": 40,
      "start": 18.5075,
      "duration": 0.0427,
      "velocity": 114,
      "chip": "ym2612"
    },
    {
      "channel": 0,
      "note": 53,
      "start": 18.5103,
      "duration": 0.1063,
      "velocity": 127,
      "chip": "ym2612"
    },
    {
      "channel": 1,
      "note": 40,
      "start": 18.5551,
      "duration": 0.045,
      "velocity": 114,
      "chip": "ym2612"
    },
    {
      "channel": 3,
      "note": 59,
      "start": 18.57,
      "duration": 0.0468,
      "velocity": 93,
      "chip": "ym2612"
    },
    {
      "channel": 1,
      "note": 43,
      "start": 18.6039,
      "duration": 0.0629,
      "velocity": 114,
      "chip": "ym2612"
    },
    {
      "channel": 0,
      "note": 43,
      "start": 18.6707,
      "duration": 0.0459,
      "velocity": 114,
      "chip": "ym2612"
    },
    {
      "channel": 3,
      "note": 52,
      "start": 18.7202,
      "duration": 0.0467,
      "velocity": 93,
      "chip": "ym2612"
    },
    {
      "channel": 1,
      "note": 47,
      "start": 18.7233,
      "duration": 0.0435,
      "velocity": 114,
      "chip": "ym2612"
    },
    {
      "channel": 0,
      "note": 47,
      "start": 18.7705,
      "duration": 0.0462,
      "velocity": 114,
      "chip": "ym2612"
    },
    {
      "channel": 1,
      "note": 52,
      "start": 18.7866,
      "duration": 0.0467,
      "velocity": 93,
      "chip": "ym2612"
    },
    {
      "channel": 3,
      "note": 52,
      "start": 18.8206,
      "duration": 0.0463,
      "velocity": 114,
      "chip": "ym2612"
    },
    {
      "channel": 0,
      "note": 52,
      "start": 18.8704,
      "duration": 0.063,
      "velocity": 114,
      "chip": "ym2612"
    },
    {
      "channel": 1,
      "note": 61,
      "start": 18.9369,
      "duration": 0.0465,
      "velocity": 93,
      "chip": "ym2612"
    },
    {
      "channel": 3,
      "note": 40,
      "start": 18.9423,
      "duration": 0.0413,
      "velocity": 114,
      "chip": "ym2612"
    },
    {
      "channel": 2,
      "note": 33,
      "start": 18.9466,
      "duration": 0.0704,
      "velocity": 124,
      "chip": "ym2612"
    },
    {
      "channel": 0,
      "note": 40,
      "start": 18.9894,
      "duration": 0.044,
      "velocity": 114,
      "chip": "ym2612"
    },
    {
      "channel": 4,
      "note": 61,
      "start": 19.0039,
      "duration": 0.0463,
      "velocity": 93,
      "chip": "ym2612"
    },
    {
      "channel": 3,
      "note": 44,
      "start": 19.0371,
      "duration": 0.0463,
      "velocity": 114,
      "chip": "ym2612"
    },
    {
      "channel": 0,
      "note": 44,
      "start": 19.087,
      "duration": 0.063,
      "velocity": 114,
      "chip": "ym2612"
    },
    {
      "channel": 3,
      "note": 49,
      "start": 19.1537,
      "duration": 0.0464,
      "velocity": 114,
      "chip": "ym2612"
    },
    {
      "channel": 0,
      "note": 49,
      "start": 19.2037,
      "duration": 0.0464,
      "velocity": 114,
      "chip": "ym2612"
    },
    {
      "channel": 1,
      "note": 61,
      "start": 19.253,
      "duration": 0.0471,
      "velocity": 93,
      "chip": "ym2612"
    },
    {
      "channel": 3,
      "note": 52,
      "start": 19.2561,
      "duration": 0.0441,
      "velocity": 114,
      "chip": "ym2612"
    },
    {
      "channel": 0,
      "note": 52,
      "start": 19.3038,
      "duration": 0.0461,
      "velocity": 114,
      "chip": "ym2612"
    },
    {
      "channel": 4,
      "note": 61,
      "start": 19.3198,
      "duration": 0.0637,
      "velocity": 93,
      "chip": "ym2612"
    },
    {
      "channel": 3,
      "note": 40,
      "start": 19.3552,
      "duration": 0.0615,
      "velocity": 114,
      "chip": "ym2612"
    },
    {
      "channel": 5,
      "note": 53,
      "start": 19.3581,
      "duration": 0.1254,
      "velocity": 127,
      "chip": "ym2612"
    },
    {
      "channel": 0,
      "note": 40,
      "start": 19.4219,
      "duration": 0.0447,
      "velocity": 114,
      "chip": "ym2612"
    },
    {
      "channel": 3,
      "note": 44,
      "start": 19.4703,
      "duration": 0.0464,
      "velocity": 114,
      "chip": "ym2612"
    },
    {
      "channel": 0,
      "note": 44,
      "start": 19.5203,
      "duration": 0.0464,
      "velocity": 114,
      "chip": "ym2612"
    },
    {
      "channel": 1,
      "note": 61,
      "start": 19.5696,
      "duration": 0.0637,
      "velocity": 93,
      "chip": "ym2612"
    },
    {
      "channel": 3,
      "note": 49,
      "start": 19.5728,
      "duration": 0.0607,
      "velocity": 114,
      "chip": "ym2612"
    },
    {
      "channel": 0,
      "note": 49,
      "start": 19.637,
      "duration": 0.0464,
      "velocity": 114,
      "chip": "ym2612"
    },
    {
      "channel": 4,
      "note": 61,
      "start": 19.6532,
      "duration": 0.047,
      "velocity": 93,
      "chip": "ym2612"
    },
    {
      "channel": 3,
      "note": 52,
      "start": 19.6871,
      "duration": 0.0463,
      "velocity": 114,
      "chip": "ym2612"
    },
    {
      "channel": 0,
      "note": 52,
      "start": 19.7369,
      "duration": 0.0464,
      "velocity": 114,
      "chip": "ym2612"
    },
    {
      "channel": 3,
      "note": 40,
      "start": 19.7882,
      "duration": 0.0619,
      "velocity": 114,
      "chip": "ym2612"
    },
    {
      "channel": 2,
      "note": 33,
      "start": 19.7925,
      "duration": 0.0911,
      "velocity": 124,
      "chip": "ym2612"
    },
    {
      "channel": 0,
      "note": 40,
      "start": 19.8549,
      "duration": 0.045,
      "velocity": 114,
      "chip": "ym2612"
    },
    {
      "channel": 1,
      "note": 56,
      "start": 19.9029,
      "duration": 0.0471,
      "velocity": 93,
      "chip": "ym2612"
    },
    {
      "channel": 3,
      "note": 44,
      "start": 19.906,
      "duration": 0.0441,
      "velocity": 114,
      "chip": "ym2612"
    },
    {
      "channel": 0,
      "note": 44,
      "start": 19.9537,
      "duration": 0.0463,
      "velocity": 114,
      "chip": "ym2612"
    },
    {
      "channel": 4,
      "note": 56,
      "start": 19.9697,
      "duration": 0.0471,
      "velocity": 93,
      "chip": "ym2612"
    },
    {
      "channel": 3,
      "note": 49,
      "start": 20.0037,
      "duration": 0.0464,
      "velocity": 114,
      "chip": "ym2612"
    },
    {
      "channel": 0,
      "note": 49,
      "start": 20.0537,
      "duration": 0.063,
      "velocity": 114,
      "chip": "ym2612"
    },
    {
      "channel": 3,
      "note": 52,
      "start": 20.1204,
      "duration": 0.0463,
      "velocity": 114,
      "chip": "ym2612"
    },
    {
      "channel": 0,
      "note": 52,
      "start": 20.1703,
      "duration": 0.0463,
      "velocity": 114,
      "chip": "ym2612"
    },
    {
      "channel": 1,
      "note": 59,
      "start": 20.2197,
      "duration": 0.0471,
      "velocity": 93,
      "chip": "ym2612"
    },
    {
      "channel": 3,
      "note": 40,
      "start": 20.224,
      "duration": 0.0429,
      "velocity": 114,
      "chip": "ym2612"
    },
    {
      "channel": 5,
      "note": 53,
      "start": 20.2269,
      "duration": 0.1233,
      "velocity": 127,
      "chip": "ym2612"
    },
    {
      "channel": 0,
      "note": 40,
      "start": 20.2718,
      "duration": 0.0616,
      "velocity": 114,
      "chip": "ym2612"
    },
    {
      "channel": 4,
      "note": 59,
      "start": 20.2866,
      "duration": 0.0636,
      "velocity": 93,
      "chip": "ym2612"
    },
    {
      "channel": 3,
      "note": 44,
      "start": 20.3371,
      "duration": 0.0464,
      "velocity": 114,
      "chip": "ym2612"
    },
    {
      "channel": 0,
      "note": 44,
      "start": 20.3871,
      "duration": 0.0463,
      "velocity": 114,
      "chip": "ym2612"
    },
    {
      "channel": 3,
      "note": 49,
      "start": 20.4371,
      "duration": 0.0464,
      "velocity": 114,
      "chip": "ym2612"
    },
    {
      "channel": 0,
      "note": 49,
      "start": 20.487,
      "duration": 0.0464,
      "velocity": 114,
      "chip": "ym2612"
    },
    {
      "channel": 3,
      "note": 52,
      "start": 20.5371,
      "duration": 0.063,
      "velocity": 114,
      "chip": "ym2612"
    },
    {
      "channel": 0,
      "note": 52,
      "start": 20.6037,
      "duration": 0.0464,
      "velocity": 114,
      "chip": "ym2612"
    },
    {
      "channel": 1,
      "note": 61,
      "start": 20.6532,
      "duration": 0.0468,
      "velocity": 93,
      "chip": "ym2612"
    },
    {
      "channel": 2,
      "note": 88,
      "start": 20.6564,
      "duration": 5.1605,
      "velocity": 81,
      "chip": "ym2612"
    },
    {
      "channel": 4,
      "note": 80,
      "start": 20.6595,
      "duration": 5.0907,
      "velocity": 81,
      "chip": "ym2612"
    },
    {
      "channel": 5,
      "note": 73,
      "start": 20.6625,
      "duration": 5.1877,
      "velocity": 81,
      "chip": "ym2612"
    },
    {
      "channel": 3,
      "note": 33,
      "start": 20.6694,
      "duration": 0.0641,
      "velocity": 124,
      "chip": "ym2612"
    },
    {
      "channel": 0,
      "note": 61,
      "start": 20.7201,
      "duration": 0.0466,
      "velocity": 93,
      "chip": "ym2612"
    },
    {
      "channel": 1,
      "note": 61,
      "start": 20.9696,
      "duration": 0.0472,
      "velocity": 93,
      "chip": "ym2612"
    },
    {
      "channel": 0,
      "note": 61,
      "start": 21.0528,
      "duration": 0.0473,
      "velocity": 93,
      "chip": "ym2612"
    },
    {
      "channel": 3,
      "note": 53,
      "start": 21.0872,
      "duration": 0.1129,
      "velocity": 127,
      "chip": "ym2612"
    },
    {
      "channel": 1,
      "note": 61,
      "start": 21.3029,
      "duration": 0.0472,
      "velocity": 93,
      "chip": "ym2612"
    },
    {
      "channel": 0,
      "note": 61,
      "start": 21.3696,
      "duration": 0.0471,
      "velocity": 93,
      "chip": "ym2612"
    },
    {
      "channel": 3,
      "note": 33,
      "start": 21.522,
      "duration": 0.078,
      "velocity": 124,
      "chip": "ym2612"
    },
    {
      "channel": 1,
      "note": 56,
      "start": 21.6196,
      "duration": 0.047,
      "velocity": 93,
      "chip": "ym2612"
    },
    {
      "channel": 0,
      "note": 56,
      "start": 21.6863,
      "duration": 0.0638,
      "velocity": 93,
      "chip": "ym2612"
    },
    {
      "channel": 1,
      "note": 59,
      "start": 21.9363,
      "duration": 0.0637,
      "velocity": 93,
      "chip": "ym2612"
    },
    {
      "channel": 3,
      "note": 53,
      "start": 21.9398,
      "duration": 0.1271,
      "velocity": 127,
      "chip": "ym2612"
    },
    {
      "channel": 0,
      "note": 59,
      "start": 22.0198,
      "duration": 0.0469,
      "velocity": 93,
      "chip": "ym2612"
    },
    {
      "channel": 1,
      "note": 52,
      "start": 22.1528,
      "duration": 0.0472,
      "velocity": 93,
      "chip": "ym2612"
    },
    {
      "channel": 0,
      "note": 52,
      "start": 22.2362,
      "duration": 0.0471,
      "velocity": 93,
      "chip": "ym2612"
    },
    {
      "channel": 1,
      "note": 61,
      "start": 22.3702,
      "duration": 0.0466,
      "velocity": 93,
      "chip": "ym2612"
    },
    {
      "channel": 3,
      "note": 33,
      "start": 22.375,
      "duration": 0.0919,
      "velocity": 124,
      "chip": "ym2612"
    },
    {
      "channel": 0,
      "note": 61,
      "start": 22.4369,
      "duration": 0.0632,
      "velocity": 93,
      "chip": "ym2612"
    },
    {
      "channel": 1,
      "note": 61,
      "start": 22.703,
      "duration": 0.047,
      "velocity": 93,
      "chip": "ym2612"
    },
    {
      "channel": 0,
      "note": 61,
      "start": 22.7696,
      "duration": 0.0471,
      "velocity": 93,
      "chip": "ym2612"
    },
    {
      "channel": 3,
      "note": 53,
      "start": 22.8039,
      "duration": 0.1296,
      "velocity": 127,
      "chip": "ym2612"
    },
    {
      "channel": 1,
      "note": 61,
      "start": 23.0196,
      "duration": 0.0471,
      "velocity": 93,
      "chip": "ym2612"
    },
    {
      "channel": 0,
      "note": 61,
      "start": 23.0862,
      "duration": 0.0471,
      "velocity": 93,
      "chip": "ym2612"
    },
    {
      "channel": 3,
      "note": 33,
      "start": 23.2388,
      "duration": 0.0779,
      "velocity": 124,
      "chip": "ym2612"
    },
    {
      "channel": 1,
      "note": 56,
      "start": 23.3363,
      "duration": 0.047,
      "velocity": 93,
      "chip": "ym2612"
    },
    {
      "channel": 0,
      "note": 56,
      "start": 23.4196,
      "duration": 0.0471,
      "velocity": 93,
      "chip": "ym2612"
    },
    {
      "channel": 1,
      "note": 59,
      "start": 23.6697,
      "duration": 0.047,
      "velocity": 93,
      "chip": "ym2612"
    },
    {
      "channel": 3,
      "note": 53,
      "start": 23.6731,
      "duration": 0.1104,
      "velocity": 127,
      "chip": "ym2612"
    },
    {
      "channel": 0,
      "note": 59,
      "start": 23.7365,
      "duration": 0.0468,
      "velocity": 93,
      "chip": "ym2612"
    },
    {
      "channel": 1,
      "note": 61,
      "start": 24.0864,
      "duration": 0.0636,
      "velocity": 93,
      "chip": "ym2612"
    },
    {
      "channel": 0,
      "note": 33,
      "start": 24.0913,
      "duration": 0.092,
      "velocity": 124,
      "chip": "ym2612"
    },
    {
      "channel": 3,
      "note": 61,
      "start": 24.17,
      "duration": 0.0467,
      "velocity": 93,
      "chip": "ym2612"
    },
    {
      "channel": 1,
      "note": 61,
      "start": 24.4195,
      "duration": 0.0472,
      "velocity": 93,
      "chip": "ym2612"
    },
    {
      "channel": 3,
      "note": 61,
      "start": 24.4864,
      "duration": 0.0472,
      "velocity": 93,
      "chip": "ym2612"
    },
    {
      "channel": 0,
      "note": 53,
      "start": 24.5206,
      "duration": 0.1294,
      "velocity": 127,
      "chip": "ym2612"
    },
    {
      "channel": 1,
      "note": 61,
      "start": 24.7362,
      "duration": 0.0472,
      "velocity": 93,
      "chip": "ym2612"
    },
    {
      "channel": 3,
      "note": 61,
      "start": 24.8031,
      "duration": 0.0637,
      "velocity": 93,
      "chip": "ym2612"
    },
    {
      "channel": 0,
      "note": 33,
      "start": 24.9554,
      "duration": 0.078,
      "velocity": 124,
      "chip": "ym2612"
    },
    {
      "channel": 1,
      "note": 56,
      "start": 25.0696,
      "duration": 0.0472,
      "velocity": 93,
      "chip": "ym2612"
    },
    {
      "channel": 3,
      "note": 56,
      "start": 25.1364,
      "duration": 0.047,
      "velocity": 93,
      "chip": "ym2612"
    },
    {
      "channel": 1,
      "note": 59,
      "start": 25.3864,
      "duration": 0.047,
      "velocity": 93,
      "chip": "ym2612"
    },
    {
      "channel": 0,
      "note": 53,
      "start": 25.3899,
      "duration": 0.1101,
      "velocity": 127,
      "chip": "ym2612"
    },
    {
      "channel": 3,
      "note": 59,
      "start": 25.4532,
      "duration": 0.047,
      "velocity": 93,
      "chip": "ym2612"
    },
    {
      "channel": 1,
      "note": 52,
      "start": 25.6029,
      "duration": 0.0471,
      "velocity": 93,
      "chip": "ym2612"
    },
    {
      "channel": 3,
      "note": 52,
      "start": 25.6697,
      "duration": 0.047,
      "velocity": 93,
      "chip": "ym2612"
    },
    {
      "channel": 1,
      "note": 61,
      "start": 25.8202,
      "duration": 0.0466,
      "velocity": 93,
      "chip": "ym2612"
    },
    {
      "channel": 0,
      "note": 33,
      "start": 25.8274,
      "duration": 0.0726,
      "velocity": 124,
      "chip": "ym2612"
    },
    {
      "channel": 3,
      "note": 61,
      "start": 25.8866,
      "duration": 0.0469,
      "velocity": 93,
      "chip": "ym2612"
    },
    {
      "channel": 1,
      "note": 61,
      "start": 26.1365,
      "duration": 0.0469,
      "velocity": 93,
      "chip": "ym2612"
    },
    {
      "channel": 3,
      "note": 61,
      "start": 26.2037,
      "duration": 0.0631,
      "velocity": 93,
      "chip": "ym2612"
    },
    {
      "channel": 4,
      "note": 53,
      "start": 26.2545,
      "duration": 0.1123,
      "velocity": 127,
      "chip": "ym2612"
    },
    {
      "channel": 4,
      "note": 53,
      "start": 26.6708,
      "duration": 0.0793,
      "velocity": 127,
      "chip": "ym2612"
    },
    {
      "channel": 4,
      "note": 53,
      "start": 26.7871,
      "duration": 0.063,
      "velocity": 127,
      "chip": "ym2612"
    },
    {
      "channel": 4,
      "note": 53,
      "start": 26.8871,
      "duration": 0.0798,
      "velocity": 127,
      "chip": "ym2612"
    },
    {
      "channel": 4,
      "note": 53,
      "start": 27.0038,
      "duration": 0.063,
      "velocity": 127,
      "chip": "ym2612"
    },
    {
      "channel": 2,
      "note": 72,
      "start": 27.1038,
      "duration": 0.0298,
      "velocity": 86,
      "chip": "ym2612"
    },
    {
      "channel": 4,
      "note": 53,
      "start": 27.1069,
      "duration": 0.0599,
      "velocity": 127,
      "chip": "ym2612"
    },
    {
      "channel": 2,
      "note": 73,
      "start": 27.1535,
      "duration": 0.0468,
      "velocity": 86,
      "chip": "ym2612"
    },
    {
      "channel": 2,
      "note": 75,
      "start": 27.2201,
      "duration": 0.0302,
      "velocity": 86,
      "chip": "ym2612"
    },
    {
      "channel": 4,
      "note": 53,
      "start": 27.2234,
      "duration": 0.06,
      "velocity": 127,
      "chip": "ym2612"
    },
    {
      "channel": 2,
      "note": 76,
      "start": 27.2702,
      "duration": 0.0301,
      "velocity": 86,
      "chip": "ym2612"
    },
    {
      "channel": 2,
      "note": 78,
      "start": 27.32,
      "duration": 0.0303,
      "velocity": 86,
      "chip": "ym2612"
    },
    {
      "channel": 0,
      "note": 33,
      "start": 27.3234,
      "duration": 0.1265,
      "velocity": 124,
      "chip": "ym2612"
    },
    {
      "channel": 2,
      "note": 80,
      "start": 27.37,
      "duration": 0.0303,
      "velocity": 86,
      "chip": "ym2612"
    },
    {
      "channel": 2,
      "note": 82,
      "start": 27.4201,
      "duration": 0.0469,
      "velocity": 86,
      "chip": "ym2612"
    },
    {
      "channel": 2,
      "note": 84,
      "start": 27.4868,
      "duration": 0.0302,
      "velocity": 86,
      "chip": "ym2612"
    },
    {
      "channel": 2,
      "note": 85,
      "start": 27.5381,
      "duration": 0.1957,
      "velocity": 86,
      "chip": "ym2612"
    },
    {
      "channel": 5,
      "note": 76,
      "start": 27.5443,
      "duration": 0.1894,
      "velocity": 86,
      "chip": "ym2612"
    },
    {
      "channel": 1,
      "note": 80,
      "start": 27.551,
      "duration": 0.1824,
      "velocity": 86,
      "chip": "ym2612"
    },
    {
      "channel": 0,
      "note": 33,
      "start": 27.5576,
      "duration": 0.0591,
      "velocity": 124,
      "chip": "ym2612"
    },
    {
      "channel": 3,
      "note": 49,
      "start": 27.5615,
      "duration": 0.7221,
      "velocity": 94,
      "chip": "ym2612"
    },
    {
      "channel": 4,
      "note": 40,
      "start": 27.5888,
      "duration": 0.0448,
      "velocity": 114,
      "chip": "ym2612"
    },
    {
      "channel": 4,
      "note": 44,
      "start": 27.7039,
      "duration": 0.0464,
      "velocity": 114,
      "chip": "ym2612"
    },
    {
      "channel": 2,
      "note": 84,
      "start": 27.7537,
      "duration": 0.1968,
      "velocity": 86,
      "chip": "ym2612"
    },
    {
      "channel": 5,
      "note": 76,
      "start": 27.7566,
      "duration": 0.2104,
      "velocity": 86,
      "chip": "ym2612"
    },
    {
      "channel": 1,
      "note": 80,
      "start": 27.7592,
      "duration": 0.191,
      "velocity": 86,
      "chip": "ym2612"
    },
    {
      "channel": 4,
      "note": 49,
      "start": 27.804,
      "duration": 0.0462,
      "velocity": 114,
      "chip": "ym2612"
    },
    {
      "channel": 4,
      "note": 52,
      "start": 27.9205,
      "duration": 0.0464,
      "velocity": 114,
      "chip": "ym2612"
    },
    {
      "channel": 2,
      "note": 83,
      "start": 27.9703,
      "duration": 0.1968,
      "velocity": 86,
      "chip": "ym2612"
    },
    {
      "channel": 5,
      "note": 76,
      "start": 27.9733,
      "duration": 0.1938,
      "velocity": 86,
      "chip": "ym2612"
    },
    {
      "channel": 1,
      "note": 80,
      "start": 27.9759,
      "duration": 0.1909,
      "velocity": 86,
      "chip": "ym2612"
    },
    {
      "channel": 0,
      "note": 53,
      "start": 27.9812,
      "duration": 0.1024,
      "velocity": 127,
      "chip": "ym2612"
    },
    {
      "channel": 4,
      "note": 33,
      "start": 27.987,
      "duration": 0.0328,
      "velocity": 124,
      "chip": "ym2612"
    },
    {
      "channel": 4,
      "note": 40,
      "start": 28.0219,
      "duration": 0.045,
      "velocity": 114,
      "chip": "ym2612"
    },
    {
      "channel": 4,
      "note": 44,
      "start": 28.1207,
      "duration": 0.063,
      "velocity": 114,
      "chip": "ym2612"
    },
    {
      "channel": 2,
      "note": 82,
      "start": 28.187,
      "duration": 0.1968,
      "velocity": 86,
      "chip": "ym2612"
    },
    {
      "channel": 5,
      "note": 76,
      "start": 28.1898,
      "duration": 0.1939,
      "velocity": 86,
      "chip": "ym2612"
    },
    {
      "channel": 1,
      "note": 80,
      "start": 28.1924,
      "duration": 0.1911,
      "velocity": 86,
      "chip": "ym2612"
    },
    {
      "channel": 4,
      "note": 49,
      "start": 28.2373,
      "duration": 0.0464,
      "velocity": 114,
      "chip": "ym2612"
    },
    {
      "channel": 4,
      "note": 52,
      "start": 28.3373,
      "duration": 0.0629,
      "velocity": 114,
      "chip": "ym2612"
    },
    {
      "channel": 2,
      "note": 81,
      "start": 28.4038,
      "duration": 0.18,
      "velocity": 86,
      "chip": "ym2612"
    },
    {
      "channel": 5,
      "note": 73,
      "start": 28.4067,
      "duration": 0.1769,
      "velocity": 86,
      "chip": "ym2612"
    },
    {
      "channel": 1,
      "note": 76,
      "start": 28.4095,
      "duration": 0.1739,
      "velocity": 86,
      "chip": "ym2612"
    },
    {
      "channel": 0,
      "note": 33,
      "start": 28.417,
      "duration": 0.0664,
      "velocity": 124,
      "chip": "ym2612"
    },
    {
      "channel": 3,
      "note": 45,
      "start": 28.4198,
      "duration": 0.7471,
      "velocity": 94,
      "chip": "ym2612"
    },
    {
      "channel": 4,
      "note": 40,
      "start": 28.4558,
      "duration": 0.0445,
      "velocity": 114,
      "chip": "ym2612"
    },
    {
      "channel": 4,
      "note": 45,
      "start": 28.5539,
      "duration": 0.0463,
      "velocity": 114,
      "chip": "ym2612"
    },
    {
      "channel": 4,
      "note": 49,
      "start": 28.6705,
      "duration": 0.0464,
      "velocity": 114,
      "chip": "ym2612"
    },
    {
      "channel": 4,
      "note": 52,
      "start": 28.7705,
      "duration": 0.0463,
      "velocity": 114,
      "chip": "ym2612"
    },
    {
      "channel": 2,
      "note": 76,
      "start": 28.8202,
      "duration": 0.197,
      "velocity": 86,
      "chip": "ym2612"
    },
    {
      "channel": 5,
      "note": 69,
      "start": 28.8235,
      "duration": 0.2102,
      "velocity": 86,
      "chip": "ym2612"
    },
    {
      "channel": 1,
      "note": 73,
      "start": 28.8261,
      "duration": 0.1907,
      "velocity": 86,
      "chip": "ym2612"
    },
    {
      "channel": 0,
      "note": 53,
      "start": 28.8314,
      "duration": 0.1188,
      "velocity": 127,
      "chip": "ym2612"
    },
    {
      "channel": 4,
      "note": 33,
      "start": 28.8369,
      "duration": 0.0498,
      "velocity": 124,
      "chip": "ym2612"
    },
    {
      "channel": 4,
      "note": 40,
      "start": 28.8888,
      "duration": 0.0448,
      "velocity": 114,
      "chip": "ym2612"
    },
    {
      "channel": 4,
      "note": 45,
      "start": 28.9873,
      "duration": 0.0462,
      "velocity": 114,
      "chip": "ym2612"
    },
    {
      "channel": 4,
      "note": 49,
      "start": 29.1038,
      "duration": 0.0464,
      "velocity": 114,
      "chip": "ym2612"
    },
    {
      "channel": 4,
      "note": 52,
      "start": 29.2039,
      "duration": 0.0463,
      "velocity": 114,
      "chip": "ym2612"
    },
    {
      "channel": 2,
      "note": 80,
      "start": 29.2539,
      "duration": 0.63,
      "velocity": 86,
      "chip": "ym2612"
    },
    {
      "channel": 5,
      "note": 73,
      "start": 29.257,
      "duration": 0.6267,
      "velocity": 86,
      "chip": "ym2612"
    },
    {
      "channel": 1,
      "note": 76,
      "start": 29.2603,
      "duration": 0.6231,
      "velocity": 86,
      "chip": "ym2612"
    },
    {
      "channel": 0,
      "note": 33,
      "start": 29.2685,
      "duration": 0.0816,
      "velocity": 124,
      "chip": "ym2612"
    },
    {
      "channel": 3,
      "note": 37,
      "start": 29.2713,
      "duration": 0.6789,
      "velocity": 94,
      "chip": "ym2612"
    },
    {
      "channel": 4,
      "note": 40,
      "start": 29.3064,
      "duration": 0.0604,
      "velocity": 114,
      "chip": "ym2612"
    },
    {
      "channel": 4,
      "note": 44,
      "start": 29.4207,
      "duration": 0.0462,
      "velocity": 114,
      "chip": "ym2612"
    },
    {
      "channel": 4,
      "note": 49,
      "start": 29.5207,
      "duration": 0.063,
      "velocity": 114,
      "chip": "ym2612"
    },
    {
      "channel": 4,
      "note": 52,
      "start": 29.6373,
      "duration": 0.0463,
      "velocity": 114,
      "chip": "ym2612"
    },
    {
      "channel": 0,
      "note": 53,
      "start": 29.6893,
      "duration": 0.1275,
      "velocity": 127,
      "chip": "ym2612"
    },
    {
      "channel": 4,
      "note": 33,
      "start": 29.6943,
      "duration": 0.0421,
      "velocity": 124,
      "chip": "ym2612"
    },
    {
      "channel": 4,
      "note": 40,
      "start": 29.7384,
      "duration": 0.0452,
      "velocity": 114,
      "chip": "ym2612"
    },
    {
      "channel": 4,
      "note": 44,
      "start": 29.8539,
      "duration": 0.0464,
      "velocity": 114,
      "chip": "ym2612"
    },
    {
      "channel": 2,
      "note": 80,
      "start": 29.904,
      "duration": 0.0798,
      "velocity": 86,
      "chip": "ym2612"
    },
    {
      "channel": 5,
      "note": 73,
      "start": 29.9071,
      "duration": 0.0766,
      "velocity": 86,
      "chip": "ym2612"
    },
    {
      "channel": 1,
      "note": 76,
      "start": 29.91,
      "duration": 0.0734,
      "velocity": 86,
      "chip": "ym2612"
    },
    {
      "channel": 4,
      "note": 49,
      "start": 29.9541,
      "duration": 0.0462,
      "velocity": 114,
      "chip": "ym2612"
    },
    {
      "channel": 2,
      "note": 80,
      "start": 30.0036,
      "duration": 0.0969,
      "velocity": 86,
      "chip": "ym2612"
    },
    {
      "channel": 5,
      "note": 73,
      "start": 30.0064,
      "duration": 0.0939,
      "velocity": 86,
      "chip": "ym2612"
    },
    {
      "channel": 1,
      "note": 76,
      "start": 30.009,
      "duration": 0.0911,
      "velocity": 86,
      "chip": "ym2612"
    },
    {
      "channel": 4,
      "note": 52,
      "start": 30.0707,
      "duration": 0.0462,
      "velocity": 114,
      "chip": "ym2612"
    },
    {
      "channel": 2,
      "note": 79,
      "start": 30.121,
      "duration": 0.1961,
      "velocity": 86,
      "chip": "ym2612"
    },
    {
      "channel": 5,
      "note": 71,
      "start": 30.1241,
      "duration": 0.1928,
      "velocity": 86,
      "chip": "ym2612"
    },
    {
      "channel": 1,
      "note": 76,
      "start": 30.1271,
      "duration": 0.1896,
      "velocity": 86,
      "chip": "ym2612"
    },
    {
      "channel": 0,
      "note": 33,
      "start": 30.1346,
      "duration": 0.0653,
      "velocity": 124,
      "chip": "ym2612"
    },
    {
      "channel": 3,
      "note": 40,
      "start": 30.1374,
      "duration": 0.7628,
      "velocity": 94,
      "chip": "ym2612"
    },
    {
      "channel": 4,
      "note": 40,
      "start": 30.1724,
      "duration": 0.0445,
      "velocity": 114,
      "chip": "ym2612"
    },
    {
      "channel": 4,
      "note": 43,
      "start": 30.2873,
      "duration": 0.0463,
      "velocity": 114,
      "chip": "ym2612"
    },
    {
      "channel": 4,
      "note": 47,
      "start": 30.3873,
      "duration": 0.0463,
      "velocity": 114,
      "chip": "ym2612"
    },
    {
      "channel": 4,
      "note": 52,
      "start": 30.4872,
      "duration": 0.063,
      "velocity": 114,
      "chip": "ym2612"
    },
    {
      "channel": 2,
      "note": 76,
      "start": 30.5535,
      "duration": 0.1803,
      "velocity": 86,
      "chip": "ym2612"
    },
    {
      "channel": 5,
      "note": 67,
      "start": 30.5563,
      "duration": 0.1774,
      "velocity": 86,
      "chip": "ym2612"
    },
    {
      "channel": 1,
      "note": 71,
      "start": 30.559,
      "duration": 0.1746,
      "velocity": 86,
      "chip": "ym2612"
    },
    {
      "channel": 0,
      "note": 53,
      "start": 30.5642,
      "duration": 0.1026,
      "velocity": 127,
      "chip": "ym2612"
    },
    {
      "channel": 4,
      "note": 33,
      "start": 30.5697,
      "duration": 0.0337,
      "velocity": 124,
      "chip": "ym2612"
    },
    {
      "channel": 4,
      "note": 40,
      "start": 30.6055,
      "duration": 0.0447,
      "velocity": 114,
      "chip": "ym2612"
    },
    {
      "channel": 4,
      "note": 43,
      "start": 30.7041,
      "duration": 0.0628,
      "velocity": 114,
      "chip": "ym2612"
    },
    {
      "channel": 4,
      "note": 47,
      "start": 30.8205,
      "duration": 0.0463,
      "velocity": 114,
      "chip": "ym2612"
    },
    {
      "channel": 4,
      "note": 52,
      "start": 30.9207,
      "duration": 0.0462,
      "velocity": 114,
      "chip": "ym2612"
    },
    {
      "channel": 2,
      "note": 80,
      "start": 30.9707,
      "duration": 0.6298,
      "velocity": 86,
      "chip": "ym2612"
    },
    {
      "channel": 5,
      "note": 73,
      "start": 30.9738,
      "duration": 0.6265,
      "velocity": 86,
      "chip": "ym2612"
    },
    {
      "channel": 1,
      "note": 76,
      "start": 30.9767,
      "duration": 0.6234,
      "velocity": 86,
      "chip": "ym2612"
    },
    {
      "channel": 0,
      "note": 33,
      "start": 30.9852,
      "duration": 0.0815,
      "velocity": 124,
      "chip": "ym2612"
    },
    {
      "channel": 3,
      "note": 44,
      "start": 30.9879,
      "duration": 0.7624,
      "velocity": 94,
      "chip": "ym2612"
    },
    {
      "channel": 4,
      "note": 40,
      "start": 31.0398,
      "duration": 0.0438,
      "velocity": 114,
      "chip": "ym2612"
    },
    {
      "channel": 4,
      "note": 44,
      "start": 31.1373,
      "duration": 0.0463,
      "velocity": 114,
      "chip": "ym2612"
    },
    {
      "channel": 4,
      "note": 49,
      "start": 31.2539,
      "duration": 0.0463,
      "velocity": 114,
      "chip": "ym2612"
    },
    {
      "channel": 4,
      "note": 52,
      "start": 31.354,
      "duration": 0.0462,
      "velocity": 114,
      "chip": "ym2612"
    },
    {
      "channel": 0,
      "note": 53,
      "start": 31.4064,
      "duration": 0.127,
      "velocity": 127,
      "chip": "ym2612"
    },
    {
      "channel": 4,
      "note": 33,
      "start": 31.4113,
      "duration": 0.0585,
      "velocity": 124,
      "chip": "ym2612"
    },
    {
      "channel": 4,
      "note": 40,
      "start": 31.4718,
      "duration": 0.0451,
      "velocity": 114,
      "chip": "ym2612"
    },
    {
      "channel": 4,
      "note": 44,
      "start": 31.5706,
      "duration": 0.0463,
      "velocity": 114,
      "chip": "ym2612"
    },
    {
      "channel": 2,
      "note": 80,
      "start": 31.6206,
      "duration": 0.0966,
      "velocity": 86,
      "chip": "ym2612"
    },
    {
      "channel": 5,
      "note": 73,
      "start": 31.6241,
      "duration": 0.0929,
      "velocity": 86,
      "chip": "ym2612"
    },
    {
      "channel": 1,
      "note": 76,
      "start": 31.627,
      "duration": 0.0898,
      "velocity": 86,
      "chip": "ym2612"
    },
    {
      "channel": 4,
      "note": 49,
      "start": 31.6707,
      "duration": 0.063,
      "velocity": 114,
      "chip": "ym2612"
    },
    {
      "channel": 2,
      "note": 80,
      "start": 31.737,
      "duration": 0.0802,
      "velocity": 86,
      "chip": "ym2612"
    },
    {
      "channel": 5,
      "note": 73,
      "start": 31.7398,
      "duration": 0.0773,
      "velocity": 86,
      "chip": "ym2612"
    },
    {
      "channel": 1,
      "note": 76,
      "start": 31.7424,
      "duration": 0.0744,
      "velocity": 86,
      "chip": "ym2612"
    },
    {
      "channel": 4,
      "note": 52,
      "start": 31.7873,
      "duration": 0.0462,
      "velocity": 114,
      "chip": "ym2612"
    },
    {
      "channel": 2,
      "note": 79,
      "start": 31.8373,
      "duration": 0.4131,
      "velocity": 86,
      "chip": "ym2612"
    },
    {
      "channel": 5,
      "note": 71,
      "start": 31.8404,
      "duration": 0.4099,
      "velocity": 86,
      "chip": "ym2612"
    },
    {
      "channel": 1,
      "note": 76,
      "start": 31.8437,
      "duration": 0.4063,
      "velocity": 86,
      "chip": "ym2612"
    },
    {
      "channel": 0,
      "note": 33,
      "start": 31.8513,
      "duration": 0.0653,
      "velocity": 124,
      "chip": "ym2612"
    },
    {
      "channel": 3,
      "note": 43,
      "start": 31.8541,
      "duration": 0.8128,
      "velocity": 94,
      "chip": "ym2612"
    },
    {
      "channel": 4,
      "note": 40,
      "start": 31.889,
      "duration": 0.0612,
      "velocity": 114,
      "chip": "ym2612"
    },
    {
      "channel": 4,
      "note": 43,
      "start": 32.004,
      "duration": 0.0462,
      "velocity": 114,
      "chip": "ym2612"
    },
    {
      "channel": 4,
      "note": 47,
      "start": 32.104,
      "duration": 0.0462,
      "velocity": 114,
      "chip": "ym2612"
    },
    {
      "channel": 4,
      "note": 52,
      "start": 32.2205,
      "duration": 0.0463,
      "velocity": 114,
      "chip": "ym2612"
    },
    {
      "channel": 2,
      "note": 76,
      "start": 32.2702,
      "duration": 0.4137,
      "velocity": 86,
      "chip": "ym2612"
    },
    {
      "channel": 5,
      "note": 67,
      "start": 32.2729,
      "duration": 0.4107,
      "velocity": 86,
      "chip": "ym2612"
    },
    {
      "channel": 1,
      "note": 71,
      "start": 32.2756,
      "duration": 0.4079,
      "velocity": 86,
      "chip": "ym2612"
    },
    {
      "channel": 0,
      "note": 53,
      "start": 32.2805,
      "duration": 0.1031,
      "velocity": 127,
      "chip": "ym2612"
    },
    {
      "channel": 4,
      "note": 33,
      "start": 32.286,
      "duration": 0.0338,
      "velocity": 124,
      "chip": "ym2612"
    },
    {
      "channel": 4,
      "note": 40,
      "start": 32.3219,
      "duration": 0.045,
      "velocity": 114,
      "chip": "ym2612"
    },
    {
      "channel": 4,
      "note": 43,
      "start": 32.4372,
      "duration": 0.0464,
      "velocity": 114,
      "chip": "ym2612"
    },
    {
      "channel": 4,
      "note": 47,
      "start": 32.5373,
      "duration": 0.0463,
      "velocity": 114,
      "chip": "ym2612"
    },
    {
      "channel": 4,
      "note": 52,
      "start": 32.6539,
      "duration": 0.0464,
      "velocity": 114,
      "chip": "ym2612"
    },
    {
      "channel": 2,
      "note": 73,
      "start": 32.7046,
      "duration": 1.3293,
      "velocity": 86,
      "chip": "ym2612"
    },
    {
      "channel": 5,
      "note": 64,
      "start": 32.7079,
      "duration": 1.3258,
      "velocity": 86,
      "chip": "ym2612"
    },
    {
      "channel": 1,
      "note": 68,
      "start": 32.7112,
      "duration": 1.3223,
      "velocity": 86,
      "chip": "ym2612"
    },
    {
      "channel": 0,
      "note": 33,
      "start": 32.7193,
      "duration": 0.0641,
      "velocity": 124,
      "chip": "ym2612"
    },
    {
      "channel": 3,
      "note": 44,
      "start": 32.7226,
      "duration": 0.5277,
      "velocity": 94,
      "chip": "ym2612"
    },
    {
      "channel": 4,
      "note": 40,
      "start": 32.7561,
      "duration": 0.0441,
      "velocity": 114,
      "chip": "ym2612"
    },
    {
      "channel": 4,
      "note": 44,
      "start": 32.8539,
      "duration": 0.063,
      "velocity": 114,
      "chip": "ym2612"
    },
    {
      "channel": 4,
      "note": 49,
      "start": 32.9706,
      "duration": 0.0463,
      "velocity": 114,
      "chip": "ym2612"
    },
    {
      "channel": 4,
      "note": 52,
      "start": 33.0706,
      "duration": 0.0629,
      "velocity": 114,
      "chip": "ym2612"
    },
    {
      "channel": 0,
      "note": 53,
      "start": 33.1398,
      "duration": 0.1103,
      "velocity": 127,
      "chip": "ym2612"
    },
    {
      "channel": 4,
      "note": 33,
      "start": 33.1451,
      "duration": 0.0418,
      "velocity": 124,
      "chip": "ym2612"
    },
    {
      "channel": 4,
      "note": 40,
      "start": 33.189,
      "duration": 0.0446,
      "velocity": 114,
      "chip": "ym2612"
    },
    {
      "channel": 4,
      "note": 44,
      "start": 33.2873,
      "duration": 0.0462,
      "velocity": 114,
      "chip": "ym2612"
    },
    {
      "channel": 3,
      "note": 45,
      "start": 33.3387,
      "duration": 0.1282,
      "velocity": 94,
      "chip": "ym2612"
    },
    {
      "channel": 4,
      "note": 49,
      "start": 33.4039,
      "duration": 0.0463,
      "velocity": 114,
      "chip": "ym2612"
    },
    {
      "channel": 4,
      "note": 52,
      "start": 33.504,
      "duration": 0.0462,
      "velocity": 114,
      "chip": "ym2612"
    },
    {
      "channel": 0,
      "note": 33,
      "start": 33.5575,
      "duration": 0.0926,
      "velocity": 124,
      "chip": "ym2612"
    },
    {
      "channel": 3,
      "note": 44,
      "start": 33.5601,
      "duration": 0.1235,
      "velocity": 94,
      "chip": "ym2612"
    },
    {
      "channel": 4,
      "note": 40,
      "start": 33.6217,
      "duration": 0.0452,
      "velocity": 114,
      "chip": "ym2612"
    },
    {
      "channel": 4,
      "note": 44,
      "start": 33.7207,
      "duration": 0.0462,
      "velocity": 114,
      "chip": "ym2612"
    },
    {
      "channel": 3,
      "note": 42,
      "start": 33.7716,
      "duration": 0.1286,
      "velocity": 94,
      "chip": "ym2612"
    },
    {
      "channel": 4,
      "note": 49,
      "start": 33.8206,
      "duration": 0.063,
      "velocity": 114,
      "chip": "ym2612"
    },
    {
      "channel": 4,
      "note": 52,
      "start": 33.9373,
      "duration": 0.0462,
      "velocity": 114,
      "chip": "ym2612"
    },
    {
      "channel": 0,
      "note": 53,
      "start": 33.9895,
      "duration": 0.1274,
      "velocity": 127,
      "chip": "ym2612"
    },
    {
      "channel": 3,
      "note": 33,
      "start": 33.9944,
      "duration": 0.0891,
      "velocity": 124,
      "chip": "ym2612"
    },
    {
      "channel": 4,
      "note": 40,
      "start": 33.9973,
      "duration": 0.1031,
      "velocity": 94,
      "chip": "ym2612"
    },
    {
      "channel": 1,
      "note": 40,
      "start": 34.0389,
      "duration": 0.0613,
      "velocity": 114,
      "chip": "ym2612"
    },
    {
      "channel": 1,
      "note": 44,
      "start": 34.1538,
      "duration": 0.0462,
      "velocity": 114,
      "chip": "ym2612"
    },
    {
      "channel": 4,
      "note": 39,
      "start": 34.2051,
      "duration": 0.1284,
      "velocity": 94,
      "chip": "ym2612"
    },
    {
      "channel": 1,
      "note": 49,
      "start": 34.2538,
      "duration": 0.063,
      "velocity": 114,
      "chip": "ym2612"
    },
    {
      "channel": 1,
      "note": 52,
      "start": 34.3705,
      "duration": 0.0462,
      "velocity": 114,
      "chip": "ym2612"
    },
    {
      "channel": 2,
      "note": 85,
      "start": 34.4218,
      "duration": 0.1953,
      "velocity": 86,
      "chip": "ym2612"
    },
    {
      "channel": 5,
      "note": 76,
      "start": 34.4261,
      "duration": 0.1908,
      "velocity": 86,
      "chip": "ym2612"
    },
    {
      "channel": 3,
      "note": 80,
      "start": 34.4306,
      "duration": 0.1862,
      "velocity": 86,
      "chip": "ym2612"
    },
    {
      "channel": 0,
      "note": 33,
      "start": 34.4383,
      "duration": 0.0618,
      "velocity": 124,
      "chip": "ym2612"
    },
    {
      "channel": 4,
      "note": 37,
      "start": 34.4413,
      "duration": 0.7256,
      "velocity": 94,
      "chip": "ym2612"
    },
    {
      "channel": 1,
      "note": 40,
      "start": 34.4724,
      "duration": 0.0443,
      "velocity": 114,
      "chip": "ym2612"
    },
    {
      "channel": 1,
      "note": 44,
      "start": 34.5871,
      "duration": 0.0464,
      "velocity": 114,
      "chip": "ym2612"
    },
    {
      "channel": 2,
      "note": 84,
      "start": 34.6369,
      "duration": 0.1968,
      "velocity": 86,
      "chip": "ym2612"
    },
    {
      "channel": 5,
      "note": 76,
      "start": 34.6399,
      "duration": 0.2104,
      "velocity": 86,
      "chip": "ym2612"
    },
    {
      "channel": 3,
      "note": 80,
      "start": 34.6425,
      "duration": 0.191,
      "velocity": 86,
      "chip": "ym2612"
    },
    {
      "channel": 1,
      "note": 49,
      "start": 34.6872,
      "duration": 0.0463,
      "velocity": 114,
      "chip": "ym2612"
    },
    {
      "channel": 1,
      "note": 52,
      "start": 34.8038,
      "duration": 0.0462,
      "velocity": 114,
      "chip": "ym2612"
    },
    {
      "channel": 2,
      "note": 83,
      "start": 34.8536,
      "duration": 0.1968,
      "velocity": 86,
      "chip": "ym2612"
    },
    {
      "channel": 5,
      "note": 76,
      "start": 34.8565,
      "duration": 0.1938,
      "velocity": 86,
      "chip": "ym2612"
    },
    {
      "channel": 3,
      "note": 80,
      "start": 34.8592,
      "duration": 0.1909,
      "velocity": 86,
      "chip": "ym2612"
    },
    {
      "channel": 0,
      "note": 53,
      "start": 34.8645,
      "duration": 0.1024,
      "velocity": 127,
      "chip": "ym2612"
    },
    {
      "channel": 1,
      "note": 33,
      "start": 34.87,
      "duration": 0.0334,
      "velocity": 124,
      "chip": "ym2612"
    },
    {
      "channel": 1,
      "note": 40,
      "start": 34.9055,
      "duration": 0.0447,
      "velocity": 114,
      "chip": "ym2612"
    },
    {
      "channel": 1,
      "note": 44,
      "start": 35.0039,
      "duration": 0.0629,
      "velocity": 114,
      "chip": "ym2612"
    },
    {
      "channel": 2,
      "note": 82,
      "start": 35.0703,
      "duration": 0.1968,
      "velocity": 86,
      "chip": "ym2612"
    },
    {
      "channel": 5,
      "note": 76,
      "start": 35.073,
      "duration": 0.1939,
      "velocity": 86,
      "chip": "ym2612"
    },
    {
      "channel": 3,
      "note": 80,
      "start": 35.0757,
      "duration": 0.1911,
      "velocity": 86,
      "chip": "ym2612"
    },
    {
      "channel": 1,
      "note": 49,
      "start": 35.1205,
      "duration": 0.0462,
      "velocity": 114,
      "chip": "ym2612"
    },
    {
      "channel": 1,
      "note": 52,
      "start": 35.2205,
      "duration": 0.063,
      "velocity": 114,
      "chip": "ym2612"
    },
    {
      "channel": 2,
      "note": 81,
      "start": 35.2871,
      "duration": 0.1801,
      "velocity": 86,
      "chip": "ym2612"
    },
    {
      "channel": 5,
      "note": 73,
      "start": 35.29,
      "duration": 0.177,
      "velocity": 86,
      "chip": "ym2612"
    },
    {
      "channel": 3,
      "note": 76,
      "start": 35.2929,
      "duration": 0.174,
      "velocity": 86,
      "chip": "ym2612"
    },
    {
      "channel": 0,
      "note": 33,
      "start": 35.3004,
      "duration": 0.0663,
      "velocity": 124,
      "chip": "ym2612"
    },
    {
      "channel": 4,
      "note": 45,
      "start": 35.3032,
      "duration": 0.7471,
      "velocity": 94,
      "chip": "ym2612"
    },
    {
      "channel": 1,
      "note": 40,
      "start": 35.3389,
      "duration": 0.0445,
      "velocity": 114,
      "chip": "ym2612"
    },
    {
      "channel": 1,
      "note": 45,
      "start": 35.4371,
      "duration": 0.063,
      "velocity": 114,
      "chip": "ym2612"
    },
    {
      "channel": 1,
      "note": 49,
      "start": 35.5539,
      "duration": 0.0462,
      "velocity": 114,
      "chip": "ym2612"
    },
    {
      "channel": 1,
      "note": 52,
      "start": 35.6537,
      "duration": 0.0464,
      "velocity": 114,
      "chip": "ym2612"
    },
    {
      "channel": 2,
      "note": 76,
      "start": 35.7036,
      "duration": 0.1968,
      "velocity": 86,
      "chip": "ym2612"
    },
    {
      "channel": 5,
      "note": 69,
      "start": 35.7065,
      "duration": 0.2106,
      "velocity": 86,
      "chip": "ym2612"
    },
    {
      "channel": 3,
      "note": 73,
      "start": 35.7092,
      "duration": 0.191,
      "velocity": 86,
      "chip": "ym2612"
    },
    {
      "channel": 0,
      "note": 53,
      "start": 35.7145,
      "duration": 0.119,
      "velocity": 127,
      "chip": "ym2612"
    },
    {
      "channel": 1,
      "note": 33,
      "start": 35.72,
      "duration": 0.05,
      "velocity": 124,
      "chip": "ym2612"
    },
    {
      "channel": 1,
      "note": 40,
      "start": 35.7721,
      "duration": 0.0447,
      "velocity": 114,
      "chip": "ym2612"
    },
    {
      "channel": 1,
      "note": 45,
      "start": 35.8706,
      "duration": 0.0463,
      "velocity": 114,
      "chip": "ym2612"
    },
    {
      "channel": 1,
      "note": 49,
      "start": 35.9871,
      "duration": 0.0464,
      "velocity": 114,
      "chip": "ym2612"
    },
    {
      "channel": 1,
      "note": 52,
      "start": 36.0871,
      "duration": 0.0463,
      "velocity": 114,
      "chip": "ym2612"
    },
    {
      "channel": 2,
      "note": 80,
      "start": 36.1373,
      "duration": 0.6299,
      "velocity": 86,
      "chip": "ym2612"
    },
    {
      "channel": 5,
      "note": 73,
      "start": 36.1407,
      "duration": 0.6263,
      "velocity": 86,
      "chip": "ym2612"
    },
    {
      "channel": 3,
      "note": 76,
      "start": 36.1438,
      "duration": 0.623,
      "velocity": 86,
      "chip": "ym2612"
    },
    {
      "channel": 0,
      "note": 33,
      "start": 36.152,
      "duration": 0.0813,
      "velocity": 124,
      "chip": "ym2612"
    },
    {
      "channel": 4,
      "note": 37,
      "start": 36.1551,
      "duration": 0.6784,
      "velocity": 94,
      "chip": "ym2612"
    },
    {
      "channel": 1,
      "note": 40,
      "start": 36.1896,
      "duration": 0.0604,
      "velocity": 114,
      "chip": "ym2612"
    },
    {
      "channel": 1,
      "note": 44,
      "start": 36.3039,
      "duration": 0.0462,
      "velocity": 114,
      "chip": "ym2612"
    },
    {
      "channel": 1,
      "note": 49,
      "start": 36.4038,
      "duration": 0.063,
      "velocity": 114,
      "chip": "ym2612"
    },
    {
      "channel": 1,
      "note": 52,
      "start": 36.5205,
      "duration": 0.0462,
      "velocity": 114,
      "chip": "ym2612"
    },
    {
      "channel": 0,
      "note": 53,
      "start": 36.5726,
      "duration": 0.1276,
      "velocity": 127,
      "chip": "ym2612"
    },
    {
      "channel": 1,
      "note": 33,
      "start": 36.5775,
      "duration": 0.0423,
      "velocity": 124,
      "chip": "ym2612"
    },
    {
      "channel": 1,
      "note": 40,
      "start": 36.6218,
      "duration": 0.0617,
      "velocity": 114,
      "chip": "ym2612"
    },
    {
      "channel": 1,
      "note": 44,
      "start": 36.7371,
      "duration": 0.0464,
      "velocity": 114,
      "chip": "ym2612"
    },
    {
      "channel": 2,
      "note": 80,
      "start": 36.7877,
      "duration": 0.0795,
      "velocity": 86,
      "chip": "ym2612"
    },
    {
      "channel": 5,
      "note": 73,
      "start": 36.7908,
      "duration": 0.0762,
      "velocity": 86,
      "chip": "ym2612"
    },
    {
      "channel": 3,
      "note": 76,
      "start": 36.7942,
      "duration": 0.0727,
      "velocity": 86,
      "chip": "ym2612"
    },
    {
      "channel": 1,
      "note": 49,
      "start": 36.8373,
      "duration": 0.0463,
      "velocity": 114,
      "chip": "ym2612"
    },
    {
      "channel": 2,
      "note": 80,
      "start": 36.8869,
      "duration": 0.0969,
      "velocity": 86,
      "chip": "ym2612"
    },
    {
      "channel": 5,
      "note": 73,
      "start": 36.8898,
      "duration": 0.0939,
      "velocity": 86,
      "chip": "ym2612"
    },
    {
      "channel": 3,
      "note": 76,
      "start": 36.8924,
      "duration": 0.0911,
      "velocity": 86,
      "chip": "ym2612"
    },
    {
      "channel": 1,
      "note": 52,
      "start": 36.9538,
      "duration": 0.0464,
      "velocity": 114,
      "chip": "ym2612"
    },
    {
      "channel": 2,
      "note": 79,
      "start": 37.004,
      "duration": 0.1965,
      "velocity": 86,
      "chip": "ym2612"
    },
    {
      "channel": 5,
      "note": 71,
      "start": 37.0071,
      "duration": 0.1933,
      "velocity": 86,
      "chip": "ym2612"
    },
    {
      "channel": 3,
      "note": 76,
      "start": 37.0101,
      "duration": 0.1901,
      "velocity": 86,
      "chip": "ym2612"
    },
    {
      "channel": 0,
      "note": 33,
      "start": 37.0176,
      "duration": 0.0659,
      "velocity": 124,
      "chip": "ym2612"
    },
    {
      "channel": 4,
      "note": 40,
      "start": 37.0205,
      "duration": 0.763,
      "velocity": 94,
      "chip": "ym2612"
    },
    {
      "channel": 1,
      "note": 40,
      "start": 37.0556,
      "duration": 0.0444,
      "velocity": 114,
      "chip": "ym2612"
    },
    {
      "channel": 1,
      "note": 43,
      "start": 37.1705,
      "duration": 0.0464,
      "velocity": 114,
      "chip": "ym2612"
    },
    {
      "channel": 1,
      "note": 47,
      "start": 37.2704,
      "duration": 0.0463,
      "velocity": 114,
      "chip": "ym2612"
    },
    {
      "channel": 1,
      "note": 52,
      "start": 37.3705,
      "duration": 0.0629,
      "velocity": 114,
      "chip": "ym2612"
    },
    {
      "channel": 2,
      "note": 76,
      "start": 37.4368,
      "duration": 0.1971,
      "velocity": 86,
      "chip": "ym2612"
    },
    {
      "channel": 5,
      "note": 67,
      "start": 37.4396,
      "duration": 0.1941,
      "velocity": 86,
      "chip": "ym2612"
    },
    {
      "channel": 3,
      "note": 71,
      "start": 37.4423,
      "duration": 0.1913,
      "velocity": 86,
      "chip": "ym2612"
    },
    {
      "channel": 0,
      "note": 53,
      "start": 37.4476,
      "duration": 0.1026,
      "velocity": 127,
      "chip": "ym2612"
    },
    {
      "channel": 1,
      "note": 33,
      "start": 37.453,
      "duration": 0.0337,
      "velocity": 124,
      "chip": "ym2612"
    },
    {
      "channel": 1,
      "note": 40,
      "start": 37.4888,
      "duration": 0.0446,
      "velocity": 114,
      "chip": "ym2612"
    },
    {
      "channel": 1,
      "note": 43,
      "start": 37.5873,
      "duration": 0.0629,
      "velocity": 114,
      "chip": "ym2612"
    },
    {
      "channel": 1,
      "note": 47,
      "start": 37.7038,
      "duration": 0.0463,
      "velocity": 114,
      "chip": "ym2612"
    },
    {
      "channel": 1,
      "note": 52,
      "start": 37.8038,
      "duration": 0.063,
      "velocity": 114,
      "chip": "ym2612"
    },
    {
      "channel": 2,
      "note": 80,
      "start": 37.8706,
      "duration": 0.6132,
      "velocity": 86,
      "chip": "ym2612"
    },
    {
      "channel": 5,
      "note": 73,
      "start": 37.8737,
      "duration": 0.6099,
      "velocity": 86,
      "chip": "ym2612"
    },
    {
      "channel": 3,
      "note": 76,
      "start": 37.8767,
      "duration": 0.6068,
      "velocity": 86,
      "chip": "ym2612"
    },
    {
      "channel": 0,
      "note": 33,
      "start": 37.885,
      "duration": 0.0651,
      "velocity": 124,
      "chip": "ym2612"
    },
    {
      "channel": 4,
      "note": 44,
      "start": 37.8878,
      "duration": 0.7458,
      "velocity": 94,
      "chip": "ym2612"
    },
    {
      "channel": 1,
      "note": 40,
      "start": 37.9232,
      "duration": 0.0435,
      "velocity": 114,
      "chip": "ym2612"
    },
    {
      "channel": 1,
      "note": 44,
      "start": 38.0205,
      "duration": 0.0463,
      "velocity": 114,
      "chip": "ym2612"
    },
    {
      "channel": 1,
      "note": 49,
      "start": 38.1371,
      "duration": 0.0462,
      "velocity": 114,
      "chip": "ym2612"
    },
    {
      "channel": 1,
      "note": 52,
      "start": 38.2372,
      "duration": 0.0461,
      "velocity": 114,
      "chip": "ym2612"
    },
    {
      "channel": 0,
      "note": 53,
      "start": 38.2892,
      "duration": 0.1276,
      "velocity": 127,
      "chip": "ym2612"
    },
    {
      "channel": 1,
      "note": 33,
      "start": 38.2941,
      "duration": 0.0588,
      "velocity": 124,
      "chip": "ym2612"
    },
    {
      "channel": 1,
      "note": 40,
      "start": 38.355,
      "duration": 0.0451,
      "velocity": 114,
      "chip": "ym2612"
    },
    {
      "channel": 1,
      "note": 44,
      "start": 38.4539,
      "duration": 0.0462,
      "velocity": 114,
      "chip": "ym2612"
    },
    {
      "channel": 2,
      "note": 80,
      "start": 38.5039,
      "duration": 0.0966,
      "velocity": 86,
      "chip": "ym2612"
    },
    {
      "channel": 5,
      "note": 73,
      "start": 38.5071,
      "duration": 0.0933,
      "velocity": 86,
      "chip": "ym2612"
    },
    {
      "channel": 3,
      "note": 76,
      "start": 38.51,
      "duration": 0.0902,
      "velocity": 86,
      "chip": "ym2612"
    },
    {
      "channel": 1,
      "note": 49,
      "start": 38.5539,
      "duration": 0.063,
      "velocity": 114,
      "chip": "ym2612"
    },
    {
      "channel": 2,
      "note": 80,
      "start": 38.6203,
      "duration": 0.0802,
      "velocity": 86,
      "chip": "ym2612"
    },
    {
      "channel": 5,
      "note": 73,
      "start": 38.6231,
      "duration": 0.0773,
      "velocity": 86,
      "chip": "ym2612"
    },
    {
      "channel": 3,
      "note": 76,
      "start": 38.6257,
      "duration": 0.0744,
      "velocity": 86,
      "chip": "ym2612"
    },
    {
      "channel": 1,
      "note": 52,
      "start": 38.6705,
      "duration": 0.0464,
      "velocity": 114,
      "chip": "ym2612"
    },
    {
      "channel": 2,
      "note": 79,
      "start": 38.7207,
      "duration": 0.4132,
      "velocity": 86,
      "chip": "ym2612"
    },
    {
      "channel": 5,
      "note": 71,
      "start": 38.7241,
      "duration": 0.4095,
      "velocity": 86,
      "chip": "ym2612"
    },
    {
      "channel": 3,
      "note": 76,
      "start": 38.7271,
      "duration": 0.4064,
      "velocity": 86,
      "chip": "ym2612"
    },
    {
      "channel": 0,
      "note": 33,
      "start": 38.7346,
      "duration": 0.0821,
      "velocity": 124,
      "chip": "ym2612"
    },
    {
      "channel": 4,
      "note": 40,
      "start": 38.7375,
      "duration": 0.8128,
      "velocity": 94,
      "chip": "ym2612"
    },
    {
      "channel": 1,
      "note": 40,
      "start": 38.7722,
      "duration": 0.0611,
      "velocity": 114,
      "chip": "ym2612"
    },
    {
      "channel": 1,
      "note": 43,
      "start": 38.8872,
      "duration": 0.0463,
      "velocity": 114,
      "chip": "ym2612"
    },
    {
      "channel": 1,
      "note": 47,
      "start": 38.9872,
      "duration": 0.0629,
      "velocity": 114,
      "chip": "ym2612"
    },
    {
      "channel": 1,
      "note": 52,
      "start": 39.1038,
      "duration": 0.0463,
      "velocity": 114,
      "chip": "ym2612"
    },
    {
      "channel": 2,
      "note": 76,
      "start": 39.154,
      "duration": 0.4132,
      "velocity": 86,
      "chip": "ym2612"
    },
    {
      "channel": 5,
      "note": 67,
      "start": 39.1567,
      "duration": 0.4103,
      "velocity": 86,
      "chip": "ym2612"
    },
    {
      "channel": 3,
      "note": 71,
      "start": 39.1598,
      "duration": 0.4071,
      "velocity": 86,
      "chip": "ym2612"
    },
    {
      "channel": 0,
      "note": 53,
      "start": 39.1647,
      "duration": 0.1022,
      "velocity": 127,
      "chip": "ym2612"
    },
    {
      "channel": 1,
      "note": 33,
      "start": 39.1702,
      "duration": 0.0329,
      "velocity": 124,
      "chip": "ym2612"
    },
    {
      "channel": 1,
      "note": 40,
      "start": 39.2052,
      "duration": 0.045,
      "velocity": 114,
      "chip": "ym2612"
    },
    {
      "channel": 1,
      "note": 43,
      "start": 39.3205,
      "duration": 0.0463,
      "velocity": 114,
      "chip": "ym2612"
    },
    {
      "channel": 1,
      "note": 47,
      "start": 39.4206,
      "duration": 0.0462,
      "velocity": 114,
      "chip": "ym2612"
    },
    {
      "channel": 1,
      "note": 52,
      "start": 39.5372,
      "duration": 0.0463,
      "velocity": 114,
      "chip": "ym2612"
    },
    {
      "channel": 2,
      "note": 73,
      "start": 39.5875,
      "duration": 1.3297,
      "velocity": 86,
      "chip": "ym2612"
    },
    {
      "channel": 5,
      "note": 64,
      "start": 39.5909,
      "duration": 1.3262,
      "velocity": 86,
      "chip": "ym2612"
    },
    {
      "channel": 3,
      "note": 68,
      "start": 39.5942,
      "duration": 1.3227,
      "velocity": 86,
      "chip": "ym2612"
    },
    {
      "channel": 0,
      "note": 33,
      "start": 39.6022,
      "duration": 0.0646,
      "velocity": 124,
      "chip": "ym2612"
    },
    {
      "channel": 4,
      "note": 37,
      "start": 39.6053,
      "duration": 1.6784,
      "velocity": 94,
      "chip": "ym2612"
    },
    {
      "channel": 1,
      "note": 40,
      "start": 39.6394,
      "duration": 0.0439,
      "velocity": 114,
      "chip": "ym2612"
    },
    {
      "channel": 1,
      "note": 44,
      "start": 39.7372,
      "duration": 0.0629,
      "velocity": 114,
      "chip": "ym2612"
    },
    {
      "channel": 1,
      "note": 49,
      "start": 39.8539,
      "duration": 0.0462,
      "velocity": 114,
      "chip": "ym2612"
    },
    {
      "channel": 1,
      "note": 52,
      "start": 39.9538,
      "duration": 0.063,
      "velocity": 114,
      "chip": "ym2612"
    },
    {
      "channel": 0,
      "note": 53,
      "start": 40.0232,
      "duration": 0.1103,
      "velocity": 127,
      "chip": "ym2612"
    },
    {
      "channel": 1,
      "note": 33,
      "start": 40.0281,
      "duration": 0.0422,
      "velocity": 124,
      "chip": "ym2612"
    },
    {
      "channel": 1,
      "note": 40,
      "start": 40.0724,
      "duration": 0.0444,
      "velocity": 114,
      "chip": "ym2612"
    },
    {
      "channel": 1,
      "note": 44,
      "start": 40.1706,
      "duration": 0.0463,
      "velocity": 114,
      "chip": "ym2612"
    },
    {
      "channel": 1,
      "note": 49,
      "start": 40.2871,
      "duration": 0.0464,
      "velocity": 114,
      "chip": "ym2612"
    },
    {
      "channel": 1,
      "note": 52,
      "start": 40.3871,
      "duration": 0.0462,
      "velocity": 114,
      "chip": "ym2612"
    },
    {
      "channel": 0,
      "note": 33,
      "start": 40.4408,
      "duration": 0.0926,
      "velocity": 124,
      "chip": "ym2612"
    },
    {
      "channel": 1,
      "note": 40,
      "start": 40.5051,
      "duration": 0.045,
      "velocity": 114,
      "chip": "ym2612"
    },
    {
      "channel": 1,
      "note": 44,
      "start": 40.6038,
      "duration": 0.0462,
      "velocity": 114,
      "chip": "ym2612"
    },
    {
      "channel": 1,
      "note": 49,
      "start": 40.7205,
      "duration": 0.0464,
      "velocity": 114,
      "chip": "ym2612"
    },
    {
      "channel": 1,
      "note": 52,
      "start": 40.8205,
      "duration": 0.0461,
      "velocity": 114,
      "chip": "ym2612"
    },
    {
      "channel": 0,
      "note": 53,
      "start": 40.8728,
      "duration": 0.1274,
      "velocity": 127,
      "chip": "ym2612"
    },
    {
      "channel": 1,
      "note": 33,
      "start": 40.8777,
      "duration": 0.0891,
      "velocity": 124,
      "chip": "ym2612"
    },
    {
      "channel": 3,
      "note": 40,
      "start": 40.9223,
      "duration": 0.0612,
      "velocity": 114,
      "chip": "ym2612"
    },
    {
      "channel": 3,
      "note": 44,
      "start": 41.0373,
      "duration": 0.0463,
      "velocity": 114,
      "chip": "ym2612"
    },
    {
      "channel": 3,
      "note": 49,
      "start": 41.1372,
      "duration": 0.0629,
      "velocity": 114,
      "chip": "ym2612"
    },
    {
      "channel": 3,
      "note": 52,
      "start": 41.2539,
      "duration": 0.0465,
      "velocity": 114,
      "chip": "ym2612"
    },
    {
      "channel": 2,
      "note": 49,
      "start": 41.2726,
      "duration": 0.0112,
      "velocity": 106,
      "chip": "ym2612"
    },
    {
      "channel": 5,
      "note": 93,
      "start": 41.3076,
      "duration": 0.0596,
      "velocity": 86,
      "chip": "ym2612"
    },
    {
      "channel": 1,
      "note": 91,
      "start": 41.3105,
      "duration": 0.0564,
      "velocity": 86,
      "chip": "ym2612"
    },
    {
      "channel": 0,
      "note": 60,
      "start": 41.3185,
      "duration": 0.8315,
      "velocity": 81,
      "chip": "ym2612"
    },
    {
      "channel": 2,
      "note": 49,
      "start": 41.3272,
      "duration": 0.0232,
      "velocity": 106,
      "chip": "ym2612"
    },
    {
      "channel": 1,
      "note": 92,
      "start": 41.4048,
      "duration": 0.1786,
      "velocity": 86,
      "chip": "ym2612"
    },
    {
      "channel": 5,
      "note": 90,
      "start": 41.4077,
      "duration": 0.176,
      "velocity": 86,
      "chip": "ym2612"
    },
    {
      "channel": 2,
      "note": 49,
      "start": 41.412,
      "duration": 0.0716,
      "velocity": 106,
      "chip": "ym2612"
    },
    {
      "channel": 1,
      "note": 91,
      "start": 41.6205,
      "duration": 0.0796,
      "velocity": 86,
      "chip": "ym2612"
    },
    {
      "channel": 5,
      "note": 88,
      "start": 41.6233,
      "duration": 0.077,
      "velocity": 86,
      "chip": "ym2612"
    },
    {
      "channel": 2,
      "note": 49,
      "start": 41.628,
      "duration": 0.0556,
      "velocity": 106,
      "chip": "ym2612"
    },
    {
      "channel": 1,
      "note": 90,
      "start": 41.7371,
      "duration": 0.1798,
      "velocity": 86,
      "chip": "ym2612"
    },
    {
      "channel": 5,
      "note": 84,
      "start": 41.7402,
      "duration": 0.1768,
      "velocity": 86,
      "chip": "ym2612"
    },
    {
      "channel": 4,
      "note": 53,
      "start": 41.7435,
      "duration": 0.1069,
      "velocity": 127,
      "chip": "ym2612"
    },
    {
      "channel": 2,
      "note": 49,
      "start": 41.7478,
      "duration": 0.036,
      "velocity": 106,
      "chip": "ym2612"
    },
    {
      "channel": 2,
      "note": 49,
      "start": 41.8384,
      "duration": 0.062,
      "velocity": 106,
      "chip": "ym2612"
    },
    {
      "channel": 2,
      "note": 49,
      "start": 41.9221,
      "duration": 0.0118,
      "velocity": 106,
      "chip": "ym2612"
    },
    {
      "channel": 1,
      "note": 88,
      "start": 41.9539,
      "duration": 0.0629,
      "velocity": 86,
      "chip": "ym2612"
    },
    {
      "channel": 5,
      "note": 83,
      "start": 41.9567,
      "duration": 0.0603,
      "velocity": 86,
      "chip": "ym2612"
    },
    {
      "channel": 2,
      "note": 49,
      "start": 41.961,
      "duration": 0.0393,
      "velocity": 106,
      "chip": "ym2612"
    },
    {
      "channel": 1,
      "note": 84,
      "start": 42.0538,
      "duration": 0.1632,
      "velocity": 86,
      "chip": "ym2612"
    },
    {
      "channel": 5,
      "note": 79,
      "start": 42.0566,
      "duration": 0.1606,
      "velocity": 86,
      "chip": "ym2612"
    },
    {
      "channel": 2,
      "note": 49,
      "start": 42.0607,
      "duration": 0.073,
      "velocity": 106,
      "chip": "ym2612"
    },
    {
      "channel": 0,
      "note": 64,
      "start": 42.1702,
      "duration": 0.83,
      "velocity": 81,
      "chip": "ym2612"
    },
    {
      "channel": 2,
      "note": 49,
      "start": 42.1749,
      "duration": 0.0424,
      "velocity": 106,
      "chip": "ym2612"
    },
    {
      "channel": 1,
      "note": 83,
      "start": 42.2705,
      "duration": 0.063,
      "velocity": 86,
      "chip": "ym2612"
    },
    {
      "channel": 5,
      "note": 78,
      "start": 42.2737,
      "duration": 0.06,
      "velocity": 86,
      "chip": "ym2612"
    },
    {
      "channel": 2,
      "note": 49,
      "start": 42.2777,
      "duration": 0.0395,
      "velocity": 106,
      "chip": "ym2612"
    },
    {
      "channel": 1,
      "note": 81,
      "start": 42.3873,
      "duration": 0.1629,
      "velocity": 86,
      "chip": "ym2612"
    },
    {
      "channel": 5,
      "note": 75,
      "start": 42.3901,
      "duration": 0.1603,
      "velocity": 86,
      "chip": "ym2612"
    },
    {
      "channel": 2,
      "note": 49,
      "start": 42.3946,
      "duration": 0.0391,
      "velocity": 106,
      "chip": "ym2612"
    },
    {
      "channel": 2,
      "note": 49,
      "start": 42.5718,
      "duration": 0.0118,
      "velocity": 106,
      "chip": "ym2612"
    },
    {
      "channel": 1,
      "note": 80,
      "start": 42.5874,
      "duration": 0.0795,
      "velocity": 86,
      "chip": "ym2612"
    },
    {
      "channel": 5,
      "note": 76,
      "start": 42.5902,
      "duration": 0.077,
      "velocity": 86,
      "chip": "ym2612"
    },
    {
      "channel": 4,
      "note": 53,
      "start": 42.5933,
      "duration": 0.1237,
      "velocity": 127,
      "chip": "ym2612"
    },
    {
      "channel": 2,
      "note": 49,
      "start": 42.6219,
      "duration": 0.0454,
      "velocity": 106,
      "chip": "ym2612"
    },
    {
      "channel": 1,
      "note": 79,
      "start": 42.704,
      "duration": 0.1795,
      "velocity": 86,
      "chip": "ym2612"
    },
    {
      "channel": 5,
      "note": 72,
      "start": 42.7068,
      "duration": 0.177,
      "velocity": 86,
      "chip": "ym2612"
    },
    {
      "channel": 2,
      "note": 49,
      "start": 42.7111,
      "duration": 0.0559,
      "velocity": 106,
      "chip": "ym2612"
    },
    {
      "channel": 1,
      "note": 78,
      "start": 42.9209,
      "duration": 0.0626,
      "velocity": 86,
      "chip": "ym2612"
    },
    {
      "channel": 5,
      "note": 69,
      "start": 42.9237,
      "duration": 0.06,
      "velocity": 86,
      "chip": "ym2612"
    },
    {
      "channel": 2,
      "note": 49,
      "start": 42.9899,
      "duration": 0.0106,
      "velocity": 106,
      "chip": "ym2612"
    },
    {
      "channel": 1,
      "note": 76,
      "start": 43.0212,
      "duration": 0.1624,
      "velocity": 86,
      "chip": "ym2612"
    },
    {
      "channel": 5,
      "note": 72,
      "start": 43.024,
      "duration": 0.1597,
      "velocity": 86,
      "chip": "ym2612"
    },
    {
      "channel": 0,
      "note": 71,
      "start": 43.0266,
      "duration": 0.8403,
      "velocity": 81,
      "chip": "ym2612"
    },
    {
      "channel": 2,
      "note": 49,
      "start": 43.0315,
      "duration": 0.0522,
      "velocity": 106,
      "chip": "ym2612"
    },
    {
      "channel": 2,
      "note": 49,
      "start": 43.1394,
      "duration": 0.061,
      "velocity": 106,
      "chip": "ym2612"
    },
    {
      "channel": 1,
      "note": 75,
      "start": 43.237,
      "duration": 0.0798,
      "velocity": 86,
      "chip": "ym2612"
    },
    {
      "channel": 5,
      "note": 71,
      "start": 43.2399,
      "duration": 0.0772,
      "velocity": 86,
      "chip": "ym2612"
    },
    {
      "channel": 1,
      "note": 72,
      "start": 43.3542,
      "duration": 0.1459,
      "velocity": 86,
      "chip": "ym2612"
    },
    {
      "channel": 5,
      "note": 67,
      "start": 43.3571,
      "duration": 0.1433,
      "velocity": 86,
      "chip": "ym2612"
    },
    {
      "channel": 2,
      "note": 49,
      "start": 43.3614,
      "duration": 0.039,
      "velocity": 106,
      "chip": "ym2612"
    },
    {
      "channel": 4,
      "note": 53,
      "start": 43.4541,
      "duration": 0.1296,
      "velocity": 127,
      "chip": "ym2612"
    },
    {
      "channel": 2,
      "note": 49,
      "start": 43.4584,
      "duration": 0.0421,
      "velocity": 106,
      "chip": "ym2612"
    },
    {
      "channel": 1,
      "note": 71,
      "start": 43.5703,
      "duration": 0.0632,
      "velocity": 86,
      "chip": "ym2612"
    },
    {
      "channel": 5,
      "note": 66,
      "start": 43.5732,
      "duration": 0.0606,
      "velocity": 86,
      "chip": "ym2612"
    },
    {
      "channel": 2,
      "note": 49,
      "start": 43.5777,
      "duration": 0.0394,
      "velocity": 106,
      "chip": "ym2612"
    },
    {
      "channel": 2,
      "note": 49,
      "start": 43.6387,
      "duration": 0.0118,
      "velocity": 106,
      "chip": "ym2612"
    },
    {
      "channel": 1,
      "note": 69,
      "start": 43.6705,
      "duration": 0.1797,
      "velocity": 86,
      "chip": "ym2612"
    },
    {
      "channel": 5,
      "note": 64,
      "start": 43.6733,
      "duration": 0.1771,
      "velocity": 86,
      "chip": "ym2612"
    },
    {
      "channel": 2,
      "note": 49,
      "start": 43.6777,
      "duration": 0.0394,
      "velocity": 106,
      "chip": "ym2612"
    },
    {
      "channel": 2,
      "note": 49,
      "start": 43.7718,
      "duration": 0.0788,
      "velocity": 106,
      "chip": "ym2612"
    },
    {
      "channel": 1,
      "note": 67,
      "start": 43.8875,
      "duration": 0.0628,
      "velocity": 86,
      "chip": "ym2612"
    },
    {
      "channel": 5,
      "note": 60,
      "start": 43.8902,
      "duration": 0.0603,
      "velocity": 86,
      "chip": "ym2612"
    },
    {
      "channel": 0,
      "note": 69,
      "start": 43.8929,
      "duration": 0.824,
      "velocity": 81,
      "chip": "ym2612"
    },
    {
      "channel": 2,
      "note": 49,
      "start": 43.8976,
      "duration": 0.0361,
      "velocity": 106,
      "chip": "ym2612"
    },
    {
      "channel": 1,
      "note": 66,
      "start": 43.9873,
      "duration": 0.1629,
      "velocity": 86,
      "chip": "ym2612"
    },
    {
      "channel": 5,
      "note": 59,
      "start": 43.9901,
      "duration": 0.1604,
      "velocity": 86,
      "chip": "ym2612"
    },
    {
      "channel": 2,
      "note": 49,
      "start": 43.9941,
      "duration": 0.0563,
      "velocity": 106,
      "chip": "ym2612"
    },
    {
      "channel": 2,
      "note": 49,
      "start": 44.1051,
      "duration": 0.0454,
      "velocity": 106,
      "chip": "ym2612"
    },
    {
      "channel": 1,
      "note": 64,
      "start": 44.2037,
      "duration": 0.0798,
      "velocity": 86,
      "chip": "ym2612"
    },
    {
      "channel": 5,
      "note": 60,
      "start": 44.2065,
      "duration": 0.0773,
      "velocity": 86,
      "chip": "ym2612"
    },
    {
      "channel": 2,
      "note": 49,
      "start": 44.3054,
      "duration": 0.0116,
      "velocity": 106,
      "chip": "ym2612"
    },
    {
      "channel": 1,
      "note": 63,
      "start": 44.3207,
      "duration": 0.1628,
      "velocity": 86,
      "chip": "ym2612"
    },
    {
      "channel": 5,
      "note": 57,
      "start": 44.3239,
      "duration": 0.1599,
      "velocity": 86,
      "chip": "ym2612"
    },
    {
      "channel": 4,
      "note": 53,
      "start": 44.327,
      "duration": 0.1067,
      "velocity": 127,
      "chip": "ym2612"
    },
    {
      "channel": 2,
      "note": 49,
      "start": 44.3386,
      "duration": 0.045,
      "velocity": 106,
      "chip": "ym2612"
    },
    {
      "channel": 2,
      "note": 49,
      "start": 44.4221,
      "duration": 0.0618,
      "velocity": 106,
      "chip": "ym2612"
    },
    {
      "channel": 1,
      "note": 60,
      "start": 44.5375,
      "duration": 0.0626,
      "velocity": 86,
      "chip": "ym2612"
    },
    {
      "channel": 5,
      "note": 55,
      "start": 44.5403,
      "duration": 0.06,
      "velocity": 86,
      "chip": "ym2612"
    },
    {
      "channel": 1,
      "note": 60,
      "start": 44.6373,
      "duration": 0.0629,
      "velocity": 86,
      "chip": "ym2612"
    },
    {
      "channel": 5,
      "note": 54,
      "start": 44.6401,
      "duration": 0.0604,
      "velocity": 86,
      "chip": "ym2612"
    },
    {
      "channel": 2,
      "note": 49,
      "start": 44.7066,
      "duration": 0.0106,
      "velocity": 106,
      "chip": "ym2612"
    },
    {
      "channel": 1,
      "note": 73,
      "start": 44.7546,
      "duration": 0.1289,
      "velocity": 86,
      "chip": "ym2612"
    },
    {
      "channel": 5,
      "note": 64,
      "start": 44.7574,
      "duration": 0.1264,
      "velocity": 86,
      "chip": "ym2612"
    },
    {
      "channel": 3,
      "note": 68,
      "start": 44.7617,
      "duration": 0.0219,
      "velocity": 81,
      "chip": "ym2612"
    },
    {
      "channel": 0,
      "note": 64,
      "start": 44.7642,
      "duration": 0.8191,
      "velocity": 81,
      "chip": "ym2612"
    },
    {
      "channel": 2,
      "note": 49,
      "start": 44.7697,
      "duration": 0.0308,
      "velocity": 106,
      "chip": "ym2612"
    },
    {
      "channel": 3,
      "note": 80,
      "start": 44.7869,
      "duration": 0.0301,
      "velocity": 81,
      "chip": "ym2612"
    },
    {
      "channel": 3,
      "note": 68,
      "start": 44.8206,
      "duration": 0.0464,
      "velocity": 81,
      "chip": "ym2612"
    },
    {
      "channel": 2,
      "note": 49,
      "start": 44.8552,
      "duration": 0.0618,
      "velocity": 106,
      "chip": "ym2612"
    },
    {
      "channel": 3,
      "note": 80,
      "start": 44.8707,
      "duration": 0.0297,
      "velocity": 81,
      "chip": "ym2612"
    },
    {
      "channel": 3,
      "note": 68,
      "start": 44.9036,
      "duration": 0.03,
      "velocity": 81,
      "chip": "ym2612"
    },
    {
      "channel": 3,
      "note": 80,
      "start": 44.9374,
      "duration": 0.0462,
      "velocity": 81,
      "chip": "ym2612"
    },
    {
      "channel": 1,
      "note": 61,
      "start": 44.9537,
      "duration": 0.0798,
      "velocity": 86,
      "chip": "ym2612"
    },
    {
      "channel": 3,
      "note": 68,
      "start": 45.0036,
      "duration": 0.03,
      "velocity": 81,
      "chip": "ym2612"
    },
    {
      "channel": 3,
      "note": 80,
      "start": 45.0369,
      "duration": 0.03,
      "velocity": 81,
      "chip": "ym2612"
    },
    {
      "channel": 1,
      "note": 73,
      "start": 45.0703,
      "duration": 0.0799,
      "velocity": 86,
      "chip": "ym2612"
    },
    {
      "channel": 3,
      "note": 68,
      "start": 45.073,
      "duration": 0.0273,
      "velocity": 81,
      "chip": "ym2612"
    },
    {
      "channel": 2,
      "note": 49,
      "start": 45.0772,
      "duration": 0.0398,
      "velocity": 106,
      "chip": "ym2612"
    },
    {
      "channel": 3,
      "note": 80,
      "start": 45.1203,
      "duration": 0.03,
      "velocity": 81,
      "chip": "ym2612"
    },
    {
      "channel": 1,
      "note": 61,
      "start": 45.1703,
      "duration": 0.1467,
      "velocity": 86,
      "chip": "ym2612"
    },
    {
      "channel": 3,
      "note": 68,
      "start": 45.1734,
      "duration": 0.0436,
      "velocity": 81,
      "chip": "ym2612"
    },
    {
      "channel": 4,
      "note": 53,
      "start": 45.1768,
      "duration": 0.1237,
      "velocity": 127,
      "chip": "ym2612"
    },
    {
      "channel": 2,
      "note": 49,
      "start": 45.181,
      "duration": 0.0527,
      "velocity": 106,
      "chip": "ym2612"
    },
    {
      "channel": 3,
      "note": 80,
      "start": 45.2202,
      "duration": 0.03,
      "velocity": 81,
      "chip": "ym2612"
    },
    {
      "channel": 3,
      "note": 68,
      "start": 45.2538,
      "duration": 0.0465,
      "velocity": 81,
      "chip": "ym2612"
    },
    {
      "channel": 2,
      "note": 49,
      "start": 45.2888,
      "duration": 0.0451,
      "velocity": 106,
      "chip": "ym2612"
    },
    {
      "channel": 3,
      "note": 80,
      "start": 45.3041,
      "duration": 0.0296,
      "velocity": 81,
      "chip": "ym2612"
    },
    {
      "channel": 3,
      "note": 68,
      "start": 45.3369,
      "duration": 0.03,
      "velocity": 81,
      "chip": "ym2612"
    },
    {
      "channel": 2,
      "note": 49,
      "start": 45.3552,
      "duration": 0.012,
      "velocity": 106,
      "chip": "ym2612"
    },
    {
      "channel": 3,
      "note": 80,
      "start": 45.3705,
      "duration": 0.0298,
      "velocity": 81,
      "chip": "ym2612"
    },
    {
      "channel": 1,
      "note": 75,
      "start": 45.3869,
      "duration": 0.1467,
      "velocity": 86,
      "chip": "ym2612"
    },
    {
      "channel": 5,
      "note": 68,
      "start": 45.3897,
      "duration": 0.1442,
      "velocity": 86,
      "chip": "ym2612"
    },
    {
      "channel": 2,
      "note": 49,
      "start": 45.394,
      "duration": 0.0563,
      "velocity": 106,
      "chip": "ym2612"
    },
    {
      "channel": 3,
      "note": 68,
      "start": 45.4208,
      "duration": 0.0461,
      "velocity": 81,
      "chip": "ym2612"
    },
    {
      "channel": 3,
      "note": 80,
      "start": 45.4702,
      "duration": 0.0301,
      "velocity": 81,
      "chip": "ym2612"
    },
    {
      "channel": 3,
      "note": 68,
      "start": 45.5037,
      "duration": 0.03,
      "velocity": 81,
      "chip": "ym2612"
    },
    {
      "channel": 2,
      "note": 49,
      "start": 45.5078,
      "duration": 0.0592,
      "velocity": 106,
      "chip": "ym2612"
    },
    {
      "channel": 3,
      "note": 80,
      "start": 45.5536,
      "duration": 0.03,
      "velocity": 81,
      "chip": "ym2612"
    },
    {
      "channel": 1,
      "note": 64,
      "start": 45.6041,
      "duration": 0.0628,
      "velocity": 86,
      "chip": "ym2612"
    },
    {
      "channel": 3,
      "note": 69,
      "start": 45.6068,
      "duration": 0.0268,
      "velocity": 81,
      "chip": "ym2612"
    },
    {
      "channel": 0,
      "note": 68,
      "start": 45.6093,
      "duration": 0.8408,
      "velocity": 81,
      "chip": "ym2612"
    },
    {
      "channel": 2,
      "note": 49,
      "start": 45.614,
      "duration": 0.0365,
      "velocity": 106,
      "chip": "ym2612"
    },
    {
      "channel": 3,
      "note": 81,
      "start": 45.6369,
      "duration": 0.0302,
      "velocity": 81,
      "chip": "ym2612"
    },
    {
      "channel": 3,
      "note": 69,
      "start": 45.671,
      "duration": 0.0627,
      "velocity": 81,
      "chip": "ym2612"
    },
    {
      "channel": 1,
      "note": 75,
      "start": 45.7203,
      "duration": 0.0799,
      "velocity": 86,
      "chip": "ym2612"
    },
    {
      "channel": 2,
      "note": 49,
      "start": 45.7242,
      "duration": 0.0429,
      "velocity": 106,
      "chip": "ym2612"
    },
    {
      "channel": 3,
      "note": 81,
      "start": 45.7373,
      "duration": 0.0296,
      "velocity": 81,
      "chip": "ym2612"
    },
    {
      "channel": 3,
      "note": 69,
      "start": 45.7702,
      "duration": 0.0301,
      "velocity": 81,
      "chip": "ym2612"
    },
    {
      "channel": 3,
      "note": 81,
      "start": 45.8044,
      "duration": 0.0291,
      "velocity": 81,
      "chip": "ym2612"
    },
    {
      "channel": 1,
      "note": 61,
      "start": 45.8204,
      "duration": 0.1465,
      "velocity": 86,
      "chip": "ym2612"
    },
    {
      "channel": 2,
      "note": 49,
      "start": 45.8245,
      "duration": 0.0426,
      "velocity": 106,
      "chip": "ym2612"
    },
    {
      "channel": 3,
      "note": 69,
      "start": 45.8537,
      "duration": 0.0298,
      "velocity": 81,
      "chip": "ym2612"
    },
    {
      "channel": 3,
      "note": 81,
      "start": 45.8868,
      "duration": 0.0469,
      "velocity": 81,
      "chip": "ym2612"
    },
    {
      "channel": 3,
      "note": 69,
      "start": 45.937,
      "duration": 0.03,
      "velocity": 81,
      "chip": "ym2612"
    },
    {
      "channel": 3,
      "note": 81,
      "start": 45.9872,
      "duration": 0.0296,
      "velocity": 81,
      "chip": "ym2612"
    },
    {
      "channel": 2,
      "note": 49,
      "start": 46.0228,
      "duration": 0.0109,
      "velocity": 106,
      "chip": "ym2612"
    },
    {
      "channel": 1,
      "note": 76,
      "start": 46.0369,
      "duration": 0.1468,
      "velocity": 86,
      "chip": "ym2612"
    },
    {
      "channel": 5,
      "note": 68,
      "start": 46.0397,
      "duration": 0.1442,
      "velocity": 86,
      "chip": "ym2612"
    },
    {
      "channel": 3,
      "note": 69,
      "start": 46.0424,
      "duration": 0.0246,
      "velocity": 81,
      "chip": "ym2612"
    },
    {
      "channel": 4,
      "note": 53,
      "start": 46.0454,
      "duration": 0.1217,
      "velocity": 127,
      "chip": "ym2612"
    },
    {
      "channel": 2,
      "note": 49,
      "start": 46.0553,
      "duration": 0.0452,
      "velocity": 106,
      "chip": "ym2612"
    },
    {
      "channel": 3,
      "note": 81,
      "start": 46.0702,
      "duration": 0.03,
      "velocity": 81,
      "chip": "ym2612"
    },
    {
      "channel": 3,
      "note": 69,
      "start": 46.104,
      "duration": 0.063,
      "velocity": 81,
      "chip": "ym2612"
    },
    {
      "channel": 2,
      "note": 49,
      "start": 46.1385,
      "duration": 0.0786,
      "velocity": 106,
      "chip": "ym2612"
    },
    {
      "channel": 3,
      "note": 81,
      "start": 46.1707,
      "duration": 0.0295,
      "velocity": 81,
      "chip": "ym2612"
    },
    {
      "channel": 3,
      "note": 69,
      "start": 46.2034,
      "duration": 0.0302,
      "velocity": 81,
      "chip": "ym2612"
    },
    {
      "channel": 3,
      "note": 81,
      "start": 46.2381,
      "duration": 0.0289,
      "velocity": 81,
      "chip": "ym2612"
    },
    {
      "channel": 1,
      "note": 64,
      "start": 46.2536,
      "duration": 0.0632,
      "velocity": 86,
      "chip": "ym2612"
    },
    {
      "channel": 3,
      "note": 69,
      "start": 46.2869,
      "duration": 0.03,
      "velocity": 81,
      "chip": "ym2612"
    },
    {
      "channel": 3,
      "note": 81,
      "start": 46.3203,
      "duration": 0.03,
      "velocity": 81,
      "chip": "ym2612"
    },
    {
      "channel": 1,
      "note": 76,
      "start": 46.3536,
      "duration": 0.0966,
      "velocity": 86,
      "chip": "ym2612"
    },
    {
      "channel": 3,
      "note": 69,
      "start": 46.3563,
      "duration": 0.0439,
      "velocity": 81,
      "chip": "ym2612"
    },
    {
      "channel": 3,
      "note": 81,
      "start": 46.4202,
      "duration": 0.0303,
      "velocity": 81,
      "chip": "ym2612"
    },
    {
      "channel": 2,
      "note": 49,
      "start": 46.4398,
      "duration": 0.0109,
      "velocity": 106,
      "chip": "ym2612"
    },
    {
      "channel": 1,
      "note": 61,
      "start": 46.4709,
      "duration": 0.1294,
      "velocity": 86,
      "chip": "ym2612"
    },
    {
      "channel": 3,
      "note": 71,
      "start": 46.4737,
      "duration": 0.0267,
      "velocity": 81,
      "chip": "ym2612"
    },
    {
      "channel": 0,
      "note": 75,
      "start": 46.4761,
      "duration": 0.8239,
      "velocity": 81,
      "chip": "ym2612"
    },
    {
      "channel": 2,
      "note": 49,
      "start": 46.481,
      "duration": 0.0361,
      "velocity": 106,
      "chip": "ym2612"
    },
    {
      "channel": 3,
      "note": 83,
      "start": 46.5037,
      "duration": 0.03,
      "velocity": 81,
      "chip": "ym2612"
    },
    {
      "channel": 3,
      "note": 71,
      "start": 46.5372,
      "duration": 0.0464,
      "velocity": 81,
      "chip": "ym2612"
    },
    {
      "channel": 2,
      "note": 49,
      "start": 46.5719,
      "duration": 0.0784,
      "velocity": 106,
      "chip": "ym2612"
    },
    {
      "channel": 3,
      "note": 83,
      "start": 46.5873,
      "duration": 0.0297,
      "velocity": 81,
      "chip": "ym2612"
    },
    {
      "channel": 3,
      "note": 71,
      "start": 46.6203,
      "duration": 0.0466,
      "velocity": 81,
      "chip": "ym2612"
    },
    {
      "channel": 3,
      "note": 83,
      "start": 46.6714,
      "duration": 0.0289,
      "velocity": 81,
      "chip": "ym2612"
    },
    {
      "channel": 1,
      "note": 79,
      "start": 46.6869,
      "duration": 0.13,
      "velocity": 86,
      "chip": "ym2612"
    },
    {
      "channel": 5,
      "note": 71,
      "start": 46.6897,
      "duration": 0.1275,
      "velocity": 86,
      "chip": "ym2612"
    },
    {
      "channel": 3,
      "note": 71,
      "start": 46.7202,
      "duration": 0.03,
      "velocity": 81,
      "chip": "ym2612"
    },
    {
      "channel": 3,
      "note": 83,
      "start": 46.7535,
      "duration": 0.0301,
      "velocity": 81,
      "chip": "ym2612"
    },
    {
      "channel": 3,
      "note": 71,
      "start": 46.787,
      "duration": 0.03,
      "velocity": 81,
      "chip": "ym2612"
    },
    {
      "channel": 2,
      "note": 49,
      "start": 46.7913,
      "duration": 0.0425,
      "velocity": 106,
      "chip": "ym2612"
    },
    {
      "channel": 3,
      "note": 83,
      "start": 46.8371,
      "duration": 0.0464,
      "velocity": 81,
      "chip": "ym2612"
    },
    {
      "channel": 1,
      "note": 68,
      "start": 46.9035,
      "duration": 0.0633,
      "velocity": 86,
      "chip": "ym2612"
    },
    {
      "channel": 3,
      "note": 71,
      "start": 46.9063,
      "duration": 0.0273,
      "velocity": 81,
      "chip": "ym2612"
    },
    {
      "channel": 4,
      "note": 53,
      "start": 46.9093,
      "duration": 0.1078,
      "velocity": 127,
      "chip": "ym2612"
    },
    {
      "channel": 2,
      "note": 49,
      "start": 46.9139,
      "duration": 0.0365,
      "velocity": 106,
      "chip": "ym2612"
    },
    {
      "channel": 3,
      "note": 83,
      "start": 46.9369,
      "duration": 0.03,
      "velocity": 81,
      "chip": "ym2612"
    },
    {
      "channel": 3,
      "note": 71,
      "start": 46.971,
      "duration": 0.0459,
      "velocity": 81,
      "chip": "ym2612"
    },
    {
      "channel": 1,
      "note": 79,
      "start": 47.0035,
      "duration": 0.0801,
      "velocity": 86,
      "chip": "ym2612"
    },
    {
      "channel": 2,
      "note": 49,
      "start": 47.008,
      "duration": 0.0425,
      "velocity": 106,
      "chip": "ym2612"
    },
    {
      "channel": 3,
      "note": 83,
      "start": 47.0207,
      "duration": 0.0296,
      "velocity": 81,
      "chip": "ym2612"
    },
    {
      "channel": 3,
      "note": 71,
      "start": 47.0537,
      "duration": 0.03,
      "velocity": 81,
      "chip": "ym2612"
    },
    {
      "channel": 2,
      "note": 49,
      "start": 47.0719,
      "duration": 0.0121,
      "velocity": 106,
      "chip": "ym2612"
    },
    {
      "channel": 3,
      "note": 83,
      "start": 47.0879,
      "duration": 0.0457,
      "velocity": 81,
      "chip": "ym2612"
    },
    {
      "channel": 1,
      "note": 64,
      "start": 47.1205,
      "duration": 0.1297,
      "velocity": 86,
      "chip": "ym2612"
    },
    {
      "channel": 2,
      "note": 49,
      "start": 47.1248,
      "duration": 0.0422,
      "velocity": 106,
      "chip": "ym2612"
    },
    {
      "channel": 3,
      "note": 71,
      "start": 47.1536,
      "duration": 0.03,
      "velocity": 81,
      "chip": "ym2612"
    },
    {
      "channel": 3,
      "note": 83,
      "start": 47.1868,
      "duration": 0.0301,
      "velocity": 81,
      "chip": "ym2612"
    },
    {
      "channel": 3,
      "note": 71,
      "start": 47.2208,
      "duration": 0.0295,
      "velocity": 81,
      "chip": "ym2612"
    },
    {
      "channel": 2,
      "note": 49,
      "start": 47.2248,
      "duration": 0.059,
      "velocity": 106,
      "chip": "ym2612"
    },
    {
      "channel": 3,
      "note": 83,
      "start": 47.2702,
      "duration": 0.03,
      "velocity": 81,
      "chip": "ym2612"
    },
    {
      "channel": 1,
      "note": 80,
      "start": 47.3207,
      "duration": 0.1464,
      "velocity": 86,
      "chip": "ym2612"
    },
    {
      "channel": 5,
      "note": 73,
      "start": 47.3235,
      "duration": 0.1438,
      "velocity": 86,
      "chip": "ym2612"
    },
    {
      "channel": 3,
      "note": 73,
      "start": 47.3263,
      "duration": 0.0408,
      "velocity": 81,
      "chip": "ym2612"
    },
    {
      "channel": 0,
      "note": 73,
      "start": 47.3287,
      "duration": 0.838,
      "velocity": 81,
      "chip": "ym2612"
    },
    {
      "channel": 2,
      "note": 49,
      "start": 47.334,
      "duration": 0.0498,
      "velocity": 106,
      "chip": "ym2612"
    },
    {
      "channel": 3,
      "note": 85,
      "start": 47.3703,
      "duration": 0.0301,
      "velocity": 81,
      "chip": "ym2612"
    },
    {
      "channel": 3,
      "note": 73,
      "start": 47.4039,
      "duration": 0.0464,
      "velocity": 81,
      "chip": "ym2612"
    },
    {
      "channel": 2,
      "note": 49,
      "start": 47.4382,
      "duration": 0.0456,
      "velocity": 106,
      "chip": "ym2612"
    },
    {
      "channel": 3,
      "note": 85,
      "start": 47.4539,
      "duration": 0.0296,
      "velocity": 81,
      "chip": "ym2612"
    },
    {
      "channel": 3,
      "note": 73,
      "start": 47.4873,
      "duration": 0.0295,
      "velocity": 81,
      "chip": "ym2612"
    },
    {
      "channel": 3,
      "note": 85,
      "start": 47.521,
      "duration": 0.0293,
      "velocity": 81,
      "chip": "ym2612"
    },
    {
      "channel": 1,
      "note": 68,
      "start": 47.5371,
      "duration": 0.0798,
      "velocity": 86,
      "chip": "ym2612"
    },
    {
      "channel": 2,
      "note": 49,
      "start": 47.5412,
      "duration": 0.0591,
      "velocity": 106,
      "chip": "ym2612"
    },
    {
      "channel": 3,
      "note": 73,
      "start": 47.5869,
      "duration": 0.03,
      "velocity": 81,
      "chip": "ym2612"
    },
    {
      "channel": 3,
      "note": 85,
      "start": 47.6202,
      "duration": 0.03,
      "velocity": 81,
      "chip": "ym2612"
    },
    {
      "channel": 1,
      "note": 80,
      "start": 47.6535,
      "duration": 0.0799,
      "velocity": 86,
      "chip": "ym2612"
    },
    {
      "channel": 3,
      "note": 73,
      "start": 47.6563,
      "duration": 0.0273,
      "velocity": 81,
      "chip": "ym2612"
    },
    {
      "channel": 3,
      "note": 85,
      "start": 47.7035,
      "duration": 0.03,
      "velocity": 81,
      "chip": "ym2612"
    },
    {
      "channel": 2,
      "note": 49,
      "start": 47.7401,
      "duration": 0.0103,
      "velocity": 106,
      "chip": "ym2612"
    },
    {
      "channel": 1,
      "note": 76,
      "start": 47.7537,
      "duration": 0.1464,
      "velocity": 86,
      "chip": "ym2612"
    },
    {
      "channel": 3,
      "note": 73,
      "start": 47.7565,
      "duration": 0.0272,
      "velocity": 81,
      "chip": "ym2612"
    },
    {
      "channel": 4,
      "note": 53,
      "start": 47.7595,
      "duration": 0.1242,
      "velocity": 127,
      "chip": "ym2612"
    },
    {
      "channel": 2,
      "note": 49,
      "start": 47.772,
      "duration": 0.0618,
      "velocity": 106,
      "chip": "ym2612"
    },
    {
      "channel": 3,
      "note": 85,
      "start": 47.7869,
      "duration": 0.0466,
      "velocity": 81,
      "chip": "ym2612"
    },
    {
      "channel": 3,
      "note": 73,
      "start": 47.8373,
      "duration": 0.0463,
      "velocity": 81,
      "chip": "ym2612"
    },
    {
      "channel": 2,
      "note": 49,
      "start": 47.8718,
      "duration": 0.0619,
      "velocity": 106,
      "chip": "ym2612"
    },
    {
      "channel": 3,
      "note": 85,
      "start": 47.8873,
      "duration": 0.0296,
      "velocity": 81,
      "chip": "ym2612"
    },
    {
      "channel": 3,
      "note": 73,
      "start": 47.9202,
      "duration": 0.03,
      "velocity": 81,
      "chip": "ym2612"
    },
    {
      "channel": 3,
      "note": 85,
      "start": 47.9537,
      "duration": 0.03,
      "velocity": 81,
      "chip": "ym2612"
    },
    {
      "channel": 1,
      "note": 87,
      "start": 47.97,
      "duration": 0.1469,
      "velocity": 86,
      "chip": "ym2612"
    },
    {
      "channel": 3,
      "note": 73,
      "start": 48.0035,
      "duration": 0.03,
      "velocity": 81,
      "chip": "ym2612"
    },
    {
      "channel": 3,
      "note": 85,
      "start": 48.0371,
      "duration": 0.0464,
      "velocity": 81,
      "chip": "ym2612"
    },
    {
      "channel": 3,
      "note": 73,
      "start": 48.087,
      "duration": 0.03,
      "velocity": 81,
      "chip": "ym2612"
    },
    {
      "channel": 3,
      "note": 85,
      "start": 48.137,
      "duration": 0.03,
      "velocity": 81,
      "chip": "ym2612"
    },
    {
      "channel": 2,
      "note": 49,
      "start": 48.1564,
      "duration": 0.0108,
      "velocity": 106,
      "chip": "ym2612"
    },
    {
      "channel": 1,
      "note": 93,
      "start": 48.1883,
      "duration": 0.0618,
      "velocity": 86,
      "chip": "ym2612"
    },
    {
      "channel": 5,
      "note": 91,
      "start": 48.1912,
      "duration": 0.0592,
      "velocity": 86,
      "chip": "ym2612"
    },
    {
      "channel": 0,
      "note": 72,
      "start": 48.1937,
      "duration": 0.8397,
      "velocity": 81,
      "chip": "ym2612"
    },
    {
      "channel": 2,
      "note": 49,
      "start": 48.199,
      "duration": 0.0348,
      "velocity": 106,
      "chip": "ym2612"
    },
    {
      "channel": 1,
      "note": 92,
      "start": 48.3041,
      "duration": 0.1628,
      "velocity": 86,
      "chip": "ym2612"
    },
    {
      "channel": 5,
      "note": 90,
      "start": 48.3069,
      "duration": 0.1602,
      "velocity": 86,
      "chip": "ym2612"
    },
    {
      "channel": 2,
      "note": 49,
      "start": 48.3112,
      "duration": 0.0559,
      "velocity": 106,
      "chip": "ym2612"
    },
    {
      "channel": 1,
      "note": 91,
      "start": 48.5039,
      "duration": 0.0795,
      "velocity": 86,
      "chip": "ym2612"
    },
    {
      "channel": 5,
      "note": 88,
      "start": 48.5067,
      "duration": 0.077,
      "velocity": 86,
      "chip": "ym2612"
    },
    {
      "channel": 2,
      "note": 49,
      "start": 48.5111,
      "duration": 0.0559,
      "velocity": 106,
      "chip": "ym2612"
    },
    {
      "channel": 1,
      "note": 90,
      "start": 48.6208,
      "duration": 0.1793,
      "velocity": 86,
      "chip": "ym2612"
    },
    {
      "channel": 5,
      "note": 84,
      "start": 48.6237,
      "duration": 0.1768,
      "velocity": 86,
      "chip": "ym2612"
    },
    {
      "channel": 4,
      "note": 53,
      "start": 48.6268,
      "duration": 0.1069,
      "velocity": 127,
      "chip": "ym2612"
    },
    {
      "channel": 2,
      "note": 49,
      "start": 48.631,
      "duration": 0.036,
      "velocity": 106,
      "chip": "ym2612"
    },
    {
      "channel": 2,
      "note": 49,
      "start": 48.7221,
      "duration": 0.0617,
      "velocity": 106,
      "chip": "ym2612"
    },
    {
      "channel": 2,
      "note": 49,
      "start": 48.8053,
      "duration": 0.0118,
      "velocity": 106,
      "chip": "ym2612"
    },
    {
      "channel": 1,
      "note": 88,
      "start": 48.8372,
      "duration": 0.063,
      "velocity": 86,
      "chip": "ym2612"
    },
    {
      "channel": 5,
      "note": 83,
      "start": 48.84,
      "duration": 0.0604,
      "velocity": 86,
      "chip": "ym2612"
    },
    {
      "channel": 2,
      "note": 49,
      "start": 48.8443,
      "duration": 0.0394,
      "velocity": 106,
      "chip": "ym2612"
    },
    {
      "channel": 1,
      "note": 84,
      "start": 48.9372,
      "duration": 0.163,
      "velocity": 86,
      "chip": "ym2612"
    },
    {
      "channel": 5,
      "note": 79,
      "start": 48.94,
      "duration": 0.1604,
      "velocity": 86,
      "chip": "ym2612"
    },
    {
      "channel": 2,
      "note": 49,
      "start": 48.9441,
      "duration": 0.0729,
      "velocity": 106,
      "chip": "ym2612"
    },
    {
      "channel": 0,
      "note": 69,
      "start": 49.0534,
      "duration": 0.8301,
      "velocity": 81,
      "chip": "ym2612"
    },
    {
      "channel": 2,
      "note": 49,
      "start": 49.0581,
      "duration": 0.0424,
      "velocity": 106,
      "chip": "ym2612"
    },
    {
      "channel": 1,
      "note": 83,
      "start": 49.1539,
      "duration": 0.0629,
      "velocity": 86,
      "chip": "ym2612"
    },
    {
      "channel": 5,
      "note": 78,
      "start": 49.1571,
      "duration": 0.0599,
      "velocity": 86,
      "chip": "ym2612"
    },
    {
      "channel": 2,
      "note": 49,
      "start": 49.1611,
      "duration": 0.0393,
      "velocity": 106,
      "chip": "ym2612"
    },
    {
      "channel": 1,
      "note": 81,
      "start": 49.2705,
      "duration": 0.163,
      "velocity": 86,
      "chip": "ym2612"
    },
    {
      "channel": 5,
      "note": 75,
      "start": 49.2733,
      "duration": 0.1604,
      "velocity": 86,
      "chip": "ym2612"
    },
    {
      "channel": 2,
      "note": 49,
      "start": 49.2775,
      "duration": 0.0396,
      "velocity": 106,
      "chip": "ym2612"
    },
    {
      "channel": 2,
      "note": 49,
      "start": 49.4555,
      "duration": 0.0283,
      "velocity": 106,
      "chip": "ym2612"
    },
    {
      "channel": 1,
      "note": 80,
      "start": 49.4879,
      "duration": 0.0622,
      "velocity": 86,
      "chip": "ym2612"
    },
    {
      "channel": 5,
      "note": 76,
      "start": 49.4907,
      "duration": 0.0597,
      "velocity": 86,
      "chip": "ym2612"
    },
    {
      "channel": 4,
      "note": 53,
      "start": 49.4938,
      "duration": 0.1066,
      "velocity": 127,
      "chip": "ym2612"
    },
    {
      "channel": 2,
      "note": 49,
      "start": 49.5053,
      "duration": 0.0452,
      "velocity": 106,
      "chip": "ym2612"
    },
    {
      "channel": 1,
      "note": 79,
      "start": 49.5873,
      "duration": 0.1795,
      "velocity": 86,
      "chip": "ym2612"
    },
    {
      "channel": 5,
      "note": 72,
      "start": 49.5905,
      "duration": 0.1766,
      "velocity": 86,
      "chip": "ym2612"
    },
    {
      "channel": 2,
      "note": 49,
      "start": 49.5948,
      "duration": 0.0555,
      "velocity": 106,
      "chip": "ym2612"
    },
    {
      "channel": 1,
      "note": 78,
      "start": 49.8042,
      "duration": 0.0627,
      "velocity": 86,
      "chip": "ym2612"
    },
    {
      "channel": 5,
      "note": 69,
      "start": 49.8071,
      "duration": 0.0601,
      "velocity": 86,
      "chip": "ym2612"
    },
    {
      "channel": 2,
      "note": 49,
      "start": 49.8733,
      "duration": 0.0104,
      "velocity": 106,
      "chip": "ym2612"
    },
    {
      "channel": 1,
      "note": 76,
      "start": 49.9042,
      "duration": 0.1627,
      "velocity": 86,
      "chip": "ym2612"
    },
    {
      "channel": 5,
      "note": 72,
      "start": 49.9071,
      "duration": 0.16,
      "velocity": 86,
      "chip": "ym2612"
    },
    {
      "channel": 0,
      "note": 76,
      "start": 49.9096,
      "duration": 0.8405,
      "velocity": 81,
      "chip": "ym2612"
    },
    {
      "channel": 2,
      "note": 49,
      "start": 49.9146,
      "duration": 0.0525,
      "velocity": 106,
      "chip": "ym2612"
    },
    {
      "channel": 2,
      "note": 49,
      "start": 50.0223,
      "duration": 0.0614,
      "velocity": 106,
      "chip": "ym2612"
    },
    {
      "channel": 1,
      "note": 75,
      "start": 50.1203,
      "duration": 0.0799,
      "velocity": 86,
      "chip": "ym2612"
    },
    {
      "channel": 5,
      "note": 71,
      "start": 50.1232,
      "duration": 0.0772,
      "velocity": 86,
      "chip": "ym2612"
    },
    {
      "channel": 1,
      "note": 72,
      "start": 50.2376,
      "duration": 0.1459,
      "velocity": 86,
      "chip": "ym2612"
    },
    {
      "channel": 5,
      "note": 67,
      "start": 50.2404,
      "duration": 0.1433,
      "velocity": 86,
      "chip": "ym2612"
    },
    {
      "channel": 2,
      "note": 49,
      "start": 50.2448,
      "duration": 0.039,
      "velocity": 106,
      "chip": "ym2612"
    },
    {
      "channel": 4,
      "note": 53,
      "start": 50.3375,
      "duration": 0.1295,
      "velocity": 127,
      "chip": "ym2612"
    },
    {
      "channel": 2,
      "note": 49,
      "start": 50.3417,
      "duration": 0.0422,
      "velocity": 106,
      "chip": "ym2612"
    },
    {
      "channel": 1,
      "note": 71,
      "start": 50.4538,
      "duration": 0.0631,
      "velocity": 86,
      "chip": "ym2612"
    },
    {
      "channel": 5,
      "note": 66,
      "start": 50.4566,
      "duration": 0.0606,
      "velocity": 86,
      "chip": "ym2612"
    },
    {
      "channel": 2,
      "note": 49,
      "start": 50.4611,
      "duration": 0.0393,
      "velocity": 106,
      "chip": "ym2612"
    },
    {
      "channel": 2,
      "note": 49,
      "start": 50.5221,
      "duration": 0.0118,
      "velocity": 106,
      "chip": "ym2612"
    },
    {
      "channel": 1,
      "note": 69,
      "start": 50.5539,
      "duration": 0.1796,
      "velocity": 86,
      "chip": "ym2612"
    },
    {
      "channel": 5,
      "note": 64,
      "start": 50.5567,
      "duration": 0.1771,
      "velocity": 86,
      "chip": "ym2612"
    },
    {
      "channel": 2,
      "note": 49,
      "start": 50.561,
      "duration": 0.0393,
      "velocity": 106,
      "chip": "ym2612"
    },
    {
      "channel": 2,
      "note": 49,
      "start": 50.6718,
      "duration": 0.0622,
      "velocity": 106,
      "chip": "ym2612"
    },
    {
      "channel": 1,
      "note": 67,
      "start": 50.7708,
      "duration": 0.0627,
      "velocity": 86,
      "chip": "ym2612"
    },
    {
      "channel": 5,
      "note": 60,
      "start": 50.7737,
      "duration": 0.0601,
      "velocity": 86,
      "chip": "ym2612"
    },
    {
      "channel": 0,
      "note": 72,
      "start": 50.7762,
      "duration": 0.8407,
      "velocity": 81,
      "chip": "ym2612"
    },
    {
      "channel": 2,
      "note": 49,
      "start": 50.781,
      "duration": 0.0361,
      "velocity": 106,
      "chip": "ym2612"
    },
    {
      "channel": 1,
      "note": 66,
      "start": 50.8707,
      "duration": 0.1629,
      "velocity": 86,
      "chip": "ym2612"
    },
    {
      "channel": 5,
      "note": 59,
      "start": 50.8734,
      "duration": 0.1603,
      "velocity": 86,
      "chip": "ym2612"
    },
    {
      "channel": 2,
      "note": 49,
      "start": 50.8775,
      "duration": 0.0562,
      "velocity": 106,
      "chip": "ym2612"
    },
    {
      "channel": 2,
      "note": 49,
      "start": 50.9885,
      "duration": 0.0454,
      "velocity": 106,
      "chip": "ym2612"
    },
    {
      "channel": 1,
      "note": 64,
      "start": 51.087,
      "duration": 0.0798,
      "velocity": 86,
      "chip": "ym2612"
    },
    {
      "channel": 5,
      "note": 60,
      "start": 51.0898,
      "duration": 0.0773,
      "velocity": 86,
      "chip": "ym2612"
    },
    {
      "channel": 2,
      "note": 49,
      "start": 51.1887,
      "duration": 0.0117,
      "velocity": 106,
      "chip": "ym2612"
    },
    {
      "channel": 1,
      "note": 63,
      "start": 51.2046,
      "duration": 0.179,
      "velocity": 86,
      "chip": "ym2612"
    },
    {
      "channel": 5,
      "note": 57,
      "start": 51.2074,
      "duration": 0.1765,
      "velocity": 86,
      "chip": "ym2612"
    },
    {
      "channel": 4,
      "note": 53,
      "start": 51.2105,
      "duration": 0.1066,
      "velocity": 127,
      "chip": "ym2612"
    },
    {
      "channel": 2,
      "note": 49,
      "start": 51.2219,
      "duration": 0.0452,
      "velocity": 106,
      "chip": "ym2612"
    },
    {
      "channel": 2,
      "note": 49,
      "start": 51.3054,
      "duration": 0.0785,
      "velocity": 106,
      "chip": "ym2612"
    },
    {
      "channel": 1,
      "note": 60,
      "start": 51.4208,
      "duration": 0.0626,
      "velocity": 86,
      "chip": "ym2612"
    },
    {
      "channel": 5,
      "note": 55,
      "start": 51.4237,
      "duration": 0.06,
      "velocity": 86,
      "chip": "ym2612"
    },
    {
      "channel": 1,
      "note": 60,
      "start": 51.5206,
      "duration": 0.0629,
      "velocity": 86,
      "chip": "ym2612"
    },
    {
      "channel": 5,
      "note": 54,
      "start": 51.5234,
      "duration": 0.0604,
      "velocity": 86,
      "chip": "ym2612"
    },
    {
      "channel": 2,
      "note": 49,
      "start": 51.5899,
      "duration": 0.0273,
      "velocity": 106,
      "chip": "ym2612"
    },
    {
      "channel": 1,
      "note": 75,
      "start": 51.638,
      "duration": 0.1289,
      "velocity": 86,
      "chip": "ym2612"
    },
    {
      "channel": 5,
      "note": 68,
      "start": 51.6409,
      "duration": 0.1263,
      "velocity": 86,
      "chip": "ym2612"
    },
    {
      "channel": 3,
      "note": 73,
      "start": 51.6453,
      "duration": 0.0217,
      "velocity": 81,
      "chip": "ym2612"
    },
    {
      "channel": 0,
      "note": 73,
      "start": 51.6477,
      "duration": 0.8191,
      "velocity": 81,
      "chip": "ym2612"
    },
    {
      "channel": 2,
      "note": 49,
      "start": 51.6532,
      "duration": 0.0305,
      "velocity": 106,
      "chip": "ym2612"
    },
    {
      "channel": 3,
      "note": 85,
      "start": 51.6702,
      "duration": 0.0301,
      "velocity": 81,
      "chip": "ym2612"
    },
    {
      "channel": 3,
      "note": 73,
      "start": 51.7043,
      "duration": 0.0461,
      "velocity": 81,
      "chip": "ym2612"
    },
    {
      "channel": 2,
      "note": 49,
      "start": 51.7385,
      "duration": 0.0618,
      "velocity": 106,
      "chip": "ym2612"
    },
    {
      "channel": 3,
      "note": 85,
      "start": 51.754,
      "duration": 0.0297,
      "velocity": 81,
      "chip": "ym2612"
    },
    {
      "channel": 3,
      "note": 73,
      "start": 51.7869,
      "duration": 0.03,
      "velocity": 81,
      "chip": "ym2612"
    },
    {
      "channel": 3,
      "note": 85,
      "start": 51.8203,
      "duration": 0.0466,
      "velocity": 81,
      "chip": "ym2612"
    },
    {
      "channel": 1,
      "note": 64,
      "start": 51.8537,
      "duration": 0.0632,
      "velocity": 86,
      "chip": "ym2612"
    },
    {
      "channel": 3,
      "note": 73,
      "start": 51.8869,
      "duration": 0.0301,
      "velocity": 81,
      "chip": "ym2612"
    },
    {
      "channel": 3,
      "note": 85,
      "start": 51.9202,
      "duration": 0.03,
      "velocity": 81,
      "chip": "ym2612"
    },
    {
      "channel": 1,
      "note": 75,
      "start": 51.9535,
      "duration": 0.0798,
      "velocity": 86,
      "chip": "ym2612"
    },
    {
      "channel": 3,
      "note": 73,
      "start": 51.9567,
      "duration": 0.027,
      "velocity": 81,
      "chip": "ym2612"
    },
    {
      "channel": 2,
      "note": 49,
      "start": 51.9609,
      "duration": 0.0396,
      "velocity": 106,
      "chip": "ym2612"
    },
    {
      "channel": 3,
      "note": 85,
      "start": 52.0037,
      "duration": 0.0298,
      "velocity": 81,
      "chip": "ym2612"
    },
    {
      "channel": 1,
      "note": 61,
      "start": 52.0536,
      "duration": 0.1466,
      "velocity": 86,
      "chip": "ym2612"
    },
    {
      "channel": 3,
      "note": 73,
      "start": 52.0563,
      "duration": 0.044,
      "velocity": 81,
      "chip": "ym2612"
    },
    {
      "channel": 4,
      "note": 53,
      "start": 52.0593,
      "duration": 0.1245,
      "velocity": 127,
      "chip": "ym2612"
    },
    {
      "channel": 2,
      "note": 49,
      "start": 52.0636,
      "duration": 0.0534,
      "velocity": 106,
      "chip": "ym2612"
    },
    {
      "channel": 3,
      "note": 85,
      "start": 52.1037,
      "duration": 0.0299,
      "velocity": 81,
      "chip": "ym2612"
    },
    {
      "channel": 3,
      "note": 73,
      "start": 52.1372,
      "duration": 0.0465,
      "velocity": 81,
      "chip": "ym2612"
    },
    {
      "channel": 2,
      "note": 49,
      "start": 52.1721,
      "duration": 0.045,
      "velocity": 106,
      "chip": "ym2612"
    },
    {
      "channel": 3,
      "note": 85,
      "start": 52.1875,
      "duration": 0.0294,
      "velocity": 81,
      "chip": "ym2612"
    },
    {
      "channel": 3,
      "note": 73,
      "start": 52.2206,
      "duration": 0.0297,
      "velocity": 81,
      "chip": "ym2612"
    },
    {
      "channel": 2,
      "note": 49,
      "start": 52.2384,
      "duration": 0.0121,
      "velocity": 106,
      "chip": "ym2612"
    },
    {
      "channel": 3,
      "note": 85,
      "start": 52.2539,
      "duration": 0.0298,
      "velocity": 81,
      "chip": "ym2612"
    },
    {
      "channel": 1,
      "note": 75,
      "start": 52.2703,
      "duration": 0.1466,
      "velocity": 86,
      "chip": "ym2612"
    },
    {
      "channel": 5,
      "note": 68,
      "start": 52.2731,
      "duration": 0.1441,
      "velocity": 86,
      "chip": "ym2612"
    },
    {
      "channel": 2,
      "note": 49,
      "start": 52.2774,
      "duration": 0.0564,
      "velocity": 106,
      "chip": "ym2612"
    },
    {
      "channel": 3,
      "note": 73,
      "start": 52.3036,
      "duration": 0.0466,
      "velocity": 81,
      "chip": "ym2612"
    },
    {
      "channel": 3,
      "note": 85,
      "start": 52.3534,
      "duration": 0.0301,
      "velocity": 81,
      "chip": "ym2612"
    },
    {
      "channel": 3,
      "note": 73,
      "start": 52.387,
      "duration": 0.03,
      "velocity": 81,
      "chip": "ym2612"
    },
    {
      "channel": 2,
      "note": 49,
      "start": 52.3911,
      "duration": 0.0593,
      "velocity": 106,
      "chip": "ym2612"
    },
    {
      "channel": 3,
      "note": 85,
      "start": 52.437,
      "duration": 0.03,
      "velocity": 81,
      "chip": "ym2612"
    },
    {
      "channel": 1,
      "note": 64,
      "start": 52.4874,
      "duration": 0.0795,
      "velocity": 86,
      "chip": "ym2612"
    },
    {
      "channel": 3,
      "note": 75,
      "start": 52.4901,
      "duration": 0.0268,
      "velocity": 81,
      "chip": "ym2612"
    },
    {
      "channel": 0,
      "note": 68,
      "start": 52.4926,
      "duration": 0.8408,
      "velocity": 81,
      "chip": "ym2612"
    },
    {
      "channel": 2,
      "note": 49,
      "start": 52.4974,
      "duration": 0.0365,
      "velocity": 106,
      "chip": "ym2612"
    },
    {
      "channel": 3,
      "note": 87,
      "start": 52.5202,
      "duration": 0.0468,
      "velocity": 81,
      "chip": "ym2612"
    },
    {
      "channel": 3,
      "note": 75,
      "start": 52.5707,
      "duration": 0.0464,
      "velocity": 81,
      "chip": "ym2612"
    },
    {
      "channel": 1,
      "note": 75,
      "start": 52.6036,
      "duration": 0.0799,
      "velocity": 86,
      "chip": "ym2612"
    },
    {
      "channel": 2,
      "note": 49,
      "start": 52.6076,
      "duration": 0.0429,
      "velocity": 106,
      "chip": "ym2612"
    },
    {
      "channel": 3,
      "note": 87,
      "start": 52.6207,
      "duration": 0.0296,
      "velocity": 81,
      "chip": "ym2612"
    },
    {
      "channel": 3,
      "note": 75,
      "start": 52.6536,
      "duration": 0.03,
      "velocity": 81,
      "chip": "ym2612"
    },
    {
      "channel": 3,
      "note": 87,
      "start": 52.6881,
      "duration": 0.0289,
      "velocity": 81,
      "chip": "ym2612"
    },
    {
      "channel": 1,
      "note": 61,
      "start": 52.7037,
      "duration": 0.1465,
      "velocity": 86,
      "chip": "ym2612"
    },
    {
      "channel": 2,
      "note": 49,
      "start": 52.7078,
      "duration": 0.0426,
      "velocity": 106,
      "chip": "ym2612"
    },
    {
      "channel": 3,
      "note": 75,
      "start": 52.7369,
      "duration": 0.03,
      "velocity": 81,
      "chip": "ym2612"
    },
    {
      "channel": 3,
      "note": 87,
      "start": 52.7702,
      "duration": 0.0467,
      "velocity": 81,
      "chip": "ym2612"
    },
    {
      "channel": 3,
      "note": 75,
      "start": 52.8203,
      "duration": 0.03,
      "velocity": 81,
      "chip": "ym2612"
    },
    {
      "channel": 3,
      "note": 87,
      "start": 52.8702,
      "duration": 0.03,
      "velocity": 81,
      "chip": "ym2612"
    },
    {
      "channel": 2,
      "note": 49,
      "start": 52.9061,
      "duration": 0.0109,
      "velocity": 106,
      "chip": "ym2612"
    },
    {
      "channel": 1,
      "note": 75,
      "start": 52.9202,
      "duration": 0.1468,
      "velocity": 86,
      "chip": "ym2612"
    },
    {
      "channel": 5,
      "note": 68,
      "start": 52.923,
      "duration": 0.1442,
      "velocity": 86,
      "chip": "ym2612"
    },
    {
      "channel": 3,
      "note": 75,
      "start": 52.9257,
      "duration": 0.0246,
      "velocity": 81,
      "chip": "ym2612"
    },
    {
      "channel": 4,
      "note": 53,
      "start": 52.9287,
      "duration": 0.1217,
      "velocity": 127,
      "chip": "ym2612"
    },
    {
      "channel": 2,
      "note": 49,
      "start": 52.9387,
      "duration": 0.0452,
      "velocity": 106,
      "chip": "ym2612"
    },
    {
      "channel": 3,
      "note": 87,
      "start": 52.9535,
      "duration": 0.03,
      "velocity": 81,
      "chip": "ym2612"
    },
    {
      "channel": 3,
      "note": 75,
      "start": 52.9877,
      "duration": 0.0626,
      "velocity": 81,
      "chip": "ym2612"
    },
    {
      "channel": 2,
      "note": 49,
      "start": 53.0219,
      "duration": 0.0784,
      "velocity": 106,
      "chip": "ym2612"
    },
    {
      "channel": 3,
      "note": 87,
      "start": 53.0541,
      "duration": 0.0295,
      "velocity": 81,
      "chip": "ym2612"
    },
    {
      "channel": 3,
      "note": 75,
      "start": 53.0868,
      "duration": 0.03,
      "velocity": 81,
      "chip": "ym2612"
    },
    {
      "channel": 3,
      "note": 87,
      "start": 53.1209,
      "duration": 0.0293,
      "velocity": 81,
      "chip": "ym2612"
    },
    {
      "channel": 1,
      "note": 64,
      "start": 53.1371,
      "duration": 0.0631,
      "velocity": 86,
      "chip": "ym2612"
    },
    {
      "channel": 3,
      "note": 75,
      "start": 53.1702,
      "duration": 0.0301,
      "velocity": 81,
      "chip": "ym2612"
    },
    {
      "channel": 3,
      "note": 87,
      "start": 53.2036,
      "duration": 0.0299,
      "velocity": 81,
      "chip": "ym2612"
    },
    {
      "channel": 1,
      "note": 75,
      "start": 53.2373,
      "duration": 0.0963,
      "velocity": 86,
      "chip": "ym2612"
    },
    {
      "channel": 3,
      "note": 75,
      "start": 53.2404,
      "duration": 0.0432,
      "velocity": 81,
      "chip": "ym2612"
    },
    {
      "channel": 3,
      "note": 87,
      "start": 53.3035,
      "duration": 0.0303,
      "velocity": 81,
      "chip": "ym2612"
    },
    {
      "channel": 2,
      "note": 49,
      "start": 53.3231,
      "duration": 0.0109,
      "velocity": 106,
      "chip": "ym2612"
    },
    {
      "channel": 1,
      "note": 61,
      "start": 53.3537,
      "duration": 0.1299,
      "velocity": 86,
      "chip": "ym2612"
    },
    {
      "channel": 3,
      "note": 76,
      "start": 53.3565,
      "duration": 0.0272,
      "velocity": 81,
      "chip": "ym2612"
    },
    {
      "channel": 0,
      "note": 64,
      "start": 53.359,
      "duration": 0.8245,
      "velocity": 81,
      "chip": "ym2612"
    },
    {
      "channel": 2,
      "note": 49,
      "start": 53.3639,
      "duration": 0.0366,
      "velocity": 106,
      "chip": "ym2612"
    },
    {
      "channel": 3,
      "note": 88,
      "start": 53.3869,
      "duration": 0.0301,
      "velocity": 81,
      "chip": "ym2612"
    },
    {
      "channel": 3,
      "note": 76,
      "start": 53.4206,
      "duration": 0.0464,
      "velocity": 81,
      "chip": "ym2612"
    },
    {
      "channel": 2,
      "note": 49,
      "start": 53.4552,
      "duration": 0.0786,
      "velocity": 106,
      "chip": "ym2612"
    },
    {
      "channel": 3,
      "note": 88,
      "start": 53.471,
      "duration": 0.0459,
      "velocity": 81,
      "chip": "ym2612"
    },
    {
      "channel": 3,
      "note": 76,
      "start": 53.5202,
      "duration": 0.0301,
      "velocity": 81,
      "chip": "ym2612"
    },
    {
      "channel": 3,
      "note": 88,
      "start": 53.5544,
      "duration": 0.0291,
      "velocity": 81,
      "chip": "ym2612"
    },
    {
      "channel": 1,
      "note": 75,
      "start": 53.5702,
      "duration": 0.13,
      "velocity": 86,
      "chip": "ym2612"
    },
    {
      "channel": 5,
      "note": 68,
      "start": 53.5729,
      "duration": 0.1276,
      "velocity": 86,
      "chip": "ym2612"
    },
    {
      "channel": 3,
      "note": 76,
      "start": 53.6036,
      "duration": 0.03,
      "velocity": 81,
      "chip": "ym2612"
    },
    {
      "channel": 3,
      "note": 88,
      "start": 53.6369,
      "duration": 0.03,
      "velocity": 81,
      "chip": "ym2612"
    },
    {
      "channel": 3,
      "note": 76,
      "start": 53.6703,
      "duration": 0.03,
      "velocity": 81,
      "chip": "ym2612"
    },
    {
      "channel": 2,
      "note": 49,
      "start": 53.6745,
      "duration": 0.0425,
      "velocity": 106,
      "chip": "ym2612"
    },
    {
      "channel": 3,
      "note": 88,
      "start": 53.7203,
      "duration": 0.0464,
      "velocity": 81,
      "chip": "ym2612"
    },
    {
      "channel": 1,
      "note": 64,
      "start": 53.7869,
      "duration": 0.0633,
      "velocity": 86,
      "chip": "ym2612"
    },
    {
      "channel": 3,
      "note": 76,
      "start": 53.7897,
      "duration": 0.0273,
      "velocity": 81,
      "chip": "ym2612"
    },
    {
      "channel": 4,
      "note": 53,
      "start": 53.7927,
      "duration": 0.1077,
      "velocity": 127,
      "chip": "ym2612"
    },
    {
      "channel": 2,
      "note": 49,
      "start": 53.7969,
      "duration": 0.0368,
      "velocity": 106,
      "chip": "ym2612"
    },
    {
      "channel": 3,
      "note": 88,
      "start": 53.8202,
      "duration": 0.0302,
      "velocity": 81,
      "chip": "ym2612"
    },
    {
      "channel": 3,
      "note": 76,
      "start": 53.854,
      "duration": 0.0462,
      "velocity": 81,
      "chip": "ym2612"
    },
    {
      "channel": 1,
      "note": 75,
      "start": 53.8868,
      "duration": 0.0967,
      "velocity": 86,
      "chip": "ym2612"
    },
    {
      "channel": 2,
      "note": 49,
      "start": 53.8914,
      "duration": 0.0424,
      "velocity": 106,
      "chip": "ym2612"
    },
    {
      "channel": 3,
      "note": 88,
      "start": 53.9041,
      "duration": 0.0295,
      "velocity": 81,
      "chip": "ym2612"
    },
    {
      "channel": 3,
      "note": 76,
      "start": 53.9369,
      "duration": 0.0468,
      "velocity": 81,
      "chip": "ym2612"
    },
    {
      "channel": 2,
      "note": 49,
      "start": 53.9552,
      "duration": 0.0287,
      "velocity": 106,
      "chip": "ym2612"
    },
    {
      "channel": 3,
      "note": 88,
      "start": 53.9882,
      "duration": 0.0288,
      "velocity": 81,
      "chip": "ym2612"
    },
    {
      "channel": 1,
      "note": 61,
      "start": 54.0037,
      "duration": 0.1299,
      "velocity": 86,
      "chip": "ym2612"
    },
    {
      "channel": 2,
      "note": 49,
      "start": 54.008,
      "duration": 0.0423,
      "velocity": 106,
      "chip": "ym2612"
    },
    {
      "channel": 3,
      "note": 76,
      "start": 54.0369,
      "duration": 0.03,
      "velocity": 81,
      "chip": "ym2612"
    },
    {
      "channel": 3,
      "note": 88,
      "start": 54.0702,
      "duration": 0.0301,
      "velocity": 81,
      "chip": "ym2612"
    },
    {
      "channel": 3,
      "note": 76,
      "start": 54.1037,
      "duration": 0.0301,
      "velocity": 81,
      "chip": "ym2612"
    },
    {
      "channel": 2,
      "note": 49,
      "start": 54.1077,
      "duration": 0.0593,
      "velocity": 106,
      "chip": "ym2612"
    },
    {
      "channel": 3,
      "note": 88,
      "start": 54.1535,
      "duration": 0.0301,
      "velocity": 81,
      "chip": "ym2612"
    },
    {
      "channel": 1,
      "note": 75,
      "start": 54.2039,
      "duration": 0.1464,
      "velocity": 86,
      "chip": "ym2612"
    },
    {
      "channel": 5,
      "note": 68,
      "start": 54.2068,
      "duration": 0.1438,
      "velocity": 86,
      "chip": "ym2612"
    },
    {
      "channel": 3,
      "note": 78,
      "start": 54.2095,
      "duration": 0.0408,
      "velocity": 81,
      "chip": "ym2612"
    },
    {
      "channel": 0,
      "note": 61,
      "start": 54.2123,
      "duration": 0.8378,
      "velocity": 81,
      "chip": "ym2612"
    },
    {
      "channel": 2,
      "note": 49,
      "start": 54.2177,
      "duration": 0.0495,
      "velocity": 106,
      "chip": "ym2612"
    },
    {
      "channel": 3,
      "note": 90,
      "start": 54.254,
      "duration": 0.0296,
      "velocity": 81,
      "chip": "ym2612"
    },
    {
      "channel": 3,
      "note": 78,
      "start": 54.2873,
      "duration": 0.0464,
      "velocity": 81,
      "chip": "ym2612"
    },
    {
      "channel": 2,
      "note": 49,
      "start": 54.3215,
      "duration": 0.0456,
      "velocity": 106,
      "chip": "ym2612"
    },
    {
      "channel": 3,
      "note": 90,
      "start": 54.3373,
      "duration": 0.0296,
      "velocity": 81,
      "chip": "ym2612"
    },
    {
      "channel": 3,
      "note": 78,
      "start": 54.3702,
      "duration": 0.03,
      "velocity": 81,
      "chip": "ym2612"
    },
    {
      "channel": 3,
      "note": 90,
      "start": 54.4043,
      "duration": 0.0293,
      "velocity": 81,
      "chip": "ym2612"
    },
    {
      "channel": 1,
      "note": 64,
      "start": 54.4204,
      "duration": 0.0798,
      "velocity": 86,
      "chip": "ym2612"
    },
    {
      "channel": 2,
      "note": 49,
      "start": 54.4245,
      "duration": 0.0591,
      "velocity": 106,
      "chip": "ym2612"
    },
    {
      "channel": 3,
      "note": 78,
      "start": 54.4703,
      "duration": 0.03,
      "velocity": 81,
      "chip": "ym2612"
    },
    {
      "channel": 3,
      "note": 90,
      "start": 54.5039,
      "duration": 0.0297,
      "velocity": 81,
      "chip": "ym2612"
    },
    {
      "channel": 1,
      "note": 75,
      "start": 54.537,
      "duration": 0.0798,
      "velocity": 86,
      "chip": "ym2612"
    },
    {
      "channel": 3,
      "note": 78,
      "start": 54.5398,
      "duration": 0.0271,
      "velocity": 81,
      "chip": "ym2612"
    },
    {
      "channel": 3,
      "note": 90,
      "start": 54.5868,
      "duration": 0.0301,
      "velocity": 81,
      "chip": "ym2612"
    },
    {
      "channel": 2,
      "note": 49,
      "start": 54.6231,
      "duration": 0.0105,
      "velocity": 106,
      "chip": "ym2612"
    },
    {
      "channel": 1,
      "note": 61,
      "start": 54.6371,
      "duration": 0.1466,
      "velocity": 86,
      "chip": "ym2612"
    },
    {
      "channel": 3,
      "note": 78,
      "start": 54.6398,
      "duration": 0.0272,
      "velocity": 81,
      "chip": "ym2612"
    },
    {
      "channel": 4,
      "note": 53,
      "start": 54.6428,
      "duration": 0.1242,
      "velocity": 127,
      "chip": "ym2612"
    },
    {
      "channel": 2,
      "note": 49,
      "start": 54.6553,
      "duration": 0.0618,
      "velocity": 106,
      "chip": "ym2612"
    },
    {
      "channel": 3,
      "note": 90,
      "start": 54.6703,
      "duration": 0.0466,
      "velocity": 81,
      "chip": "ym2612"
    },
    {
      "channel": 3,
      "note": 78,
      "start": 54.7206,
      "duration": 0.0463,
      "velocity": 81,
      "chip": "ym2612"
    },
    {
      "channel": 2,
      "note": 49,
      "start": 54.7551,
      "duration": 0.0619,
      "velocity": 106,
      "chip": "ym2612"
    },
    {
      "channel": 3,
      "note": 90,
      "start": 54.771,
      "duration": 0.0292,
      "velocity": 81,
      "chip": "ym2612"
    },
    {
      "channel": 3,
      "note": 78,
      "start": 54.8035,
      "duration": 0.0301,
      "velocity": 81,
      "chip": "ym2612"
    },
    {
      "channel": 3,
      "note": 90,
      "start": 54.8369,
      "duration": 0.03,
      "velocity": 81,
      "chip": "ym2612"
    },
    {
      "channel": 1,
      "note": 85,
      "start": 54.8533,
      "duration": 0.1469,
      "velocity": 86,
      "chip": "ym2612"
    },
    {
      "channel": 3,
      "note": 78,
      "start": 54.8869,
      "duration": 0.0468,
      "velocity": 81,
      "chip": "ym2612"
    },
    {
      "channel": 3,
      "note": 90,
      "start": 54.9369,
      "duration": 0.0301,
      "velocity": 81,
      "chip": "ym2612"
    },
    {
      "channel": 3,
      "note": 78,
      "start": 54.9703,
      "duration": 0.03,
      "velocity": 81,
      "chip": "ym2612"
    },
    {
      "channel": 3,
      "note": 90,
      "start": 55.02,
      "duration": 0.0303,
      "velocity": 81,
      "chip": "ym2612"
    },
    {
      "channel": 2,
      "note": 49,
      "start": 55.0398,
      "duration": 0.0108,
      "velocity": 106,
      "chip": "ym2612"
    },
    {
      "channel": 1,
      "note": 93,
      "start": 55.0719,
      "duration": 0.0618,
      "velocity": 86,
      "chip": "ym2612"
    },
    {
      "channel": 5,
      "note": 91,
      "start": 55.0747,
      "duration": 0.0591,
      "velocity": 86,
      "chip": "ym2612"
    },
    {
      "channel": 0,
      "note": 60,
      "start": 55.0779,
      "duration": 0.8388,
      "velocity": 81,
      "chip": "ym2612"
    },
    {
      "channel": 4,
      "note": 33,
      "start": 55.0865,
      "duration": 0.0637,
      "velocity": 124,
      "chip": "ym2612"
    },
    {
      "channel": 3,
      "note": 45,
      "start": 55.0923,
      "duration": 3.3247,
      "velocity": 125,
      "chip": "ym2612"
    },
    {
      "channel": 2,
      "note": 49,
      "start": 55.0957,
      "duration": 0.0213,
      "velocity": 106,
      "chip": "ym2612"
    },
    {
      "channel": 1,
      "note": 92,
      "start": 55.1871,
      "duration": 0.163,
      "velocity": 86,
      "chip": "ym2612"
    },
    {
      "channel": 5,
      "note": 90,
      "start": 55.1899,
      "duration": 0.1605,
      "velocity": 86,
      "chip": "ym2612"
    },
    {
      "channel": 2,
      "note": 49,
      "start": 55.1951,
      "duration": 0.0554,
      "velocity": 106,
      "chip": "ym2612"
    },
    {
      "channel": 1,
      "note": 91,
      "start": 55.3869,
      "duration": 0.08,
      "velocity": 86,
      "chip": "ym2612"
    },
    {
      "channel": 5,
      "note": 88,
      "start": 55.3898,
      "duration": 0.0773,
      "velocity": 86,
      "chip": "ym2612"
    },
    {
      "channel": 2,
      "note": 49,
      "start": 55.395,
      "duration": 0.0554,
      "velocity": 106,
      "chip": "ym2612"
    },
    {
      "channel": 1,
      "note": 90,
      "start": 55.5041,
      "duration": 0.1794,
      "velocity": 86,
      "chip": "ym2612"
    },
    {
      "channel": 5,
      "note": 84,
      "start": 55.5069,
      "duration": 0.1769,
      "velocity": 86,
      "chip": "ym2612"
    },
    {
      "channel": 4,
      "note": 53,
      "start": 55.5123,
      "duration": 0.1048,
      "velocity": 127,
      "chip": "ym2612"
    },
    {
      "channel": 2,
      "note": 49,
      "start": 55.5171,
      "duration": 0.0333,
      "velocity": 106,
      "chip": "ym2612"
    },
    {
      "channel": 2,
      "note": 49,
      "start": 55.6063,
      "duration": 0.0607,
      "velocity": 106,
      "chip": "ym2612"
    },
    {
      "channel": 2,
      "note": 49,
      "start": 55.6887,
      "duration": 0.0118,
      "velocity": 106,
      "chip": "ym2612"
    },
    {
      "channel": 1,
      "note": 88,
      "start": 55.7204,
      "duration": 0.0631,
      "velocity": 86,
      "chip": "ym2612"
    },
    {
      "channel": 5,
      "note": 83,
      "start": 55.7232,
      "duration": 0.0606,
      "velocity": 86,
      "chip": "ym2612"
    },
    {
      "channel": 2,
      "note": 49,
      "start": 55.7284,
      "duration": 0.0386,
      "velocity": 106,
      "chip": "ym2612"
    },
    {
      "channel": 1,
      "note": 84,
      "start": 55.8203,
      "duration": 0.1632,
      "velocity": 86,
      "chip": "ym2612"
    },
    {
      "channel": 5,
      "note": 79,
      "start": 55.8231,
      "duration": 0.1606,
      "velocity": 86,
      "chip": "ym2612"
    },
    {
      "channel": 2,
      "note": 49,
      "start": 55.8281,
      "duration": 0.0722,
      "velocity": 106,
      "chip": "ym2612"
    },
    {
      "channel": 0,
      "note": 64,
      "start": 55.9368,
      "duration": 0.83,
      "velocity": 81,
      "chip": "ym2612"
    },
    {
      "channel": 4,
      "note": 33,
      "start": 55.9432,
      "duration": 0.0738,
      "velocity": 124,
      "chip": "ym2612"
    },
    {
      "channel": 2,
      "note": 49,
      "start": 55.9467,
      "duration": 0.0372,
      "velocity": 106,
      "chip": "ym2612"
    },
    {
      "channel": 1,
      "note": 83,
      "start": 56.037,
      "duration": 0.0798,
      "velocity": 86,
      "chip": "ym2612"
    },
    {
      "channel": 5,
      "note": 78,
      "start": 56.0402,
      "duration": 0.0769,
      "velocity": 86,
      "chip": "ym2612"
    },
    {
      "channel": 2,
      "note": 49,
      "start": 56.045,
      "duration": 0.0386,
      "velocity": 106,
      "chip": "ym2612"
    },
    {
      "channel": 1,
      "note": 81,
      "start": 56.1536,
      "duration": 0.1633,
      "velocity": 86,
      "chip": "ym2612"
    },
    {
      "channel": 5,
      "note": 75,
      "start": 56.1564,
      "duration": 0.1607,
      "velocity": 86,
      "chip": "ym2612"
    },
    {
      "channel": 2,
      "note": 49,
      "start": 56.1614,
      "duration": 0.0389,
      "velocity": 106,
      "chip": "ym2612"
    },
    {
      "channel": 2,
      "note": 49,
      "start": 56.339,
      "duration": 0.028,
      "velocity": 106,
      "chip": "ym2612"
    },
    {
      "channel": 1,
      "note": 80,
      "start": 56.3705,
      "duration": 0.063,
      "velocity": 86,
      "chip": "ym2612"
    },
    {
      "channel": 5,
      "note": 76,
      "start": 56.3733,
      "duration": 0.0604,
      "velocity": 86,
      "chip": "ym2612"
    },
    {
      "channel": 4,
      "note": 53,
      "start": 56.3786,
      "duration": 0.1051,
      "velocity": 127,
      "chip": "ym2612"
    },
    {
      "channel": 2,
      "note": 49,
      "start": 56.3887,
      "duration": 0.0452,
      "velocity": 106,
      "chip": "ym2612"
    },
    {
      "channel": 1,
      "note": 79,
      "start": 56.4704,
      "duration": 0.1798,
      "velocity": 86,
      "chip": "ym2612"
    },
    {
      "channel": 5,
      "note": 72,
      "start": 56.4736,
      "duration": 0.1769,
      "velocity": 86,
      "chip": "ym2612"
    },
    {
      "channel": 2,
      "note": 49,
      "start": 56.4788,
      "duration": 0.0549,
      "velocity": 106,
      "chip": "ym2612"
    },
    {
      "channel": 1,
      "note": 78,
      "start": 56.687,
      "duration": 0.0632,
      "velocity": 86,
      "chip": "ym2612"
    },
    {
      "channel": 5,
      "note": 69,
      "start": 56.6898,
      "duration": 0.0606,
      "velocity": 86,
      "chip": "ym2612"
    },
    {
      "channel": 2,
      "note": 49,
      "start": 56.7565,
      "duration": 0.0106,
      "velocity": 106,
      "chip": "ym2612"
    },
    {
      "channel": 1,
      "note": 76,
      "start": 56.787,
      "duration": 0.1631,
      "velocity": 86,
      "chip": "ym2612"
    },
    {
      "channel": 5,
      "note": 72,
      "start": 56.7899,
      "duration": 0.1605,
      "velocity": 86,
      "chip": "ym2612"
    },
    {
      "channel": 0,
      "note": 71,
      "start": 56.7924,
      "duration": 0.841,
      "velocity": 81,
      "chip": "ym2612"
    },
    {
      "channel": 4,
      "note": 33,
      "start": 56.7995,
      "duration": 0.0841,
      "velocity": 124,
      "chip": "ym2612"
    },
    {
      "channel": 2,
      "note": 49,
      "start": 56.803,
      "duration": 0.0473,
      "velocity": 106,
      "chip": "ym2612"
    },
    {
      "channel": 2,
      "note": 49,
      "start": 56.906,
      "duration": 0.0611,
      "velocity": 106,
      "chip": "ym2612"
    },
    {
      "channel": 1,
      "note": 75,
      "start": 57.0037,
      "duration": 0.0798,
      "velocity": 86,
      "chip": "ym2612"
    },
    {
      "channel": 5,
      "note": 71,
      "start": 57.0065,
      "duration": 0.0773,
      "velocity": 86,
      "chip": "ym2612"
    },
    {
      "channel": 1,
      "note": 72,
      "start": 57.1208,
      "duration": 0.1461,
      "velocity": 86,
      "chip": "ym2612"
    },
    {
      "channel": 5,
      "note": 67,
      "start": 57.1236,
      "duration": 0.1436,
      "velocity": 86,
      "chip": "ym2612"
    },
    {
      "channel": 2,
      "note": 49,
      "start": 57.1288,
      "duration": 0.0382,
      "velocity": 106,
      "chip": "ym2612"
    },
    {
      "channel": 4,
      "note": 53,
      "start": 57.2228,
      "duration": 0.1276,
      "velocity": 127,
      "chip": "ym2612"
    },
    {
      "channel": 2,
      "note": 49,
      "start": 57.2271,
      "duration": 0.0401,
      "velocity": 106,
      "chip": "ym2612"
    },
    {
      "channel": 1,
      "note": 71,
      "start": 57.3369,
      "duration": 0.0633,
      "velocity": 86,
      "chip": "ym2612"
    },
    {
      "channel": 5,
      "note": 66,
      "start": 57.3398,
      "duration": 0.0607,
      "velocity": 86,
      "chip": "ym2612"
    },
    {
      "channel": 2,
      "note": 49,
      "start": 57.3451,
      "duration": 0.0385,
      "velocity": 106,
      "chip": "ym2612"
    },
    {
      "channel": 2,
      "note": 49,
      "start": 57.4054,
      "duration": 0.0117,
      "velocity": 106,
      "chip": "ym2612"
    },
    {
      "channel": 1,
      "note": 69,
      "start": 57.4371,
      "duration": 0.1798,
      "velocity": 86,
      "chip": "ym2612"
    },
    {
      "channel": 5,
      "note": 64,
      "start": 57.4399,
      "duration": 0.1772,
      "velocity": 86,
      "chip": "ym2612"
    },
    {
      "channel": 2,
      "note": 49,
      "start": 57.4451,
      "duration": 0.0386,
      "velocity": 106,
      "chip": "ym2612"
    },
    {
      "channel": 2,
      "note": 49,
      "start": 57.5559,
      "duration": 0.0614,
      "velocity": 106,
      "chip": "ym2612"
    },
    {
      "channel": 1,
      "note": 67,
      "start": 57.6541,
      "duration": 0.0627,
      "velocity": 86,
      "chip": "ym2612"
    },
    {
      "channel": 5,
      "note": 60,
      "start": 57.6569,
      "duration": 0.0601,
      "velocity": 86,
      "chip": "ym2612"
    },
    {
      "channel": 0,
      "note": 69,
      "start": 57.6595,
      "duration": 0.8407,
      "velocity": 81,
      "chip": "ym2612"
    },
    {
      "channel": 4,
      "note": 33,
      "start": 57.6666,
      "duration": 0.0671,
      "velocity": 124,
      "chip": "ym2612"
    },
    {
      "channel": 2,
      "note": 49,
      "start": 57.67,
      "duration": 0.0304,
      "velocity": 106,
      "chip": "ym2612"
    },
    {
      "channel": 1,
      "note": 66,
      "start": 57.7537,
      "duration": 0.1632,
      "velocity": 86,
      "chip": "ym2612"
    },
    {
      "channel": 5,
      "note": 59,
      "start": 57.7565,
      "duration": 0.1606,
      "velocity": 86,
      "chip": "ym2612"
    },
    {
      "channel": 2,
      "note": 49,
      "start": 57.7613,
      "duration": 0.0557,
      "velocity": 106,
      "chip": "ym2612"
    },
    {
      "channel": 2,
      "note": 49,
      "start": 57.8726,
      "duration": 0.0446,
      "velocity": 106,
      "chip": "ym2612"
    },
    {
      "channel": 1,
      "note": 64,
      "start": 57.9704,
      "duration": 0.0798,
      "velocity": 86,
      "chip": "ym2612"
    },
    {
      "channel": 5,
      "note": 60,
      "start": 57.9732,
      "duration": 0.0773,
      "velocity": 86,
      "chip": "ym2612"
    },
    {
      "channel": 2,
      "note": 49,
      "start": 58.0723,
      "duration": 0.0115,
      "velocity": 106,
      "chip": "ym2612"
    },
    {
      "channel": 1,
      "note": 63,
      "start": 58.0876,
      "duration": 0.1793,
      "velocity": 86,
      "chip": "ym2612"
    },
    {
      "channel": 5,
      "note": 57,
      "start": 58.0904,
      "duration": 0.1768,
      "velocity": 86,
      "chip": "ym2612"
    },
    {
      "channel": 4,
      "note": 53,
      "start": 58.0957,
      "duration": 0.1047,
      "velocity": 127,
      "chip": "ym2612"
    },
    {
      "channel": 2,
      "note": 49,
      "start": 58.1054,
      "duration": 0.045,
      "velocity": 106,
      "chip": "ym2612"
    },
    {
      "channel": 2,
      "note": 49,
      "start": 58.1894,
      "duration": 0.0779,
      "velocity": 106,
      "chip": "ym2612"
    },
    {
      "channel": 1,
      "note": 60,
      "start": 58.3036,
      "duration": 0.0633,
      "velocity": 86,
      "chip": "ym2612"
    },
    {
      "channel": 5,
      "note": 55,
      "start": 58.3064,
      "duration": 0.0607,
      "velocity": 86,
      "chip": "ym2612"
    },
    {
      "channel": 1,
      "note": 60,
      "start": 58.4035,
      "duration": 0.0634,
      "velocity": 86,
      "chip": "ym2612"
    },
    {
      "channel": 5,
      "note": 54,
      "start": 58.4063,
      "duration": 0.0608,
      "velocity": 86,
      "chip": "ym2612"
    },
    {
      "channel": 2,
      "note": 49,
      "start": 58.4733,
      "duration": 0.0272,
      "velocity": 106,
      "chip": "ym2612"
    },
    {
      "channel": 1,
      "note": 73,
      "start": 58.5212,
      "duration": 0.129,
      "velocity": 86,
      "chip": "ym2612"
    },
    {
      "channel": 5,
      "note": 64,
      "start": 58.5241,
      "duration": 0.1264,
      "velocity": 86,
      "chip": "ym2612"
    },
    {
      "channel": 0,
      "note": 64,
      "start": 58.5266,
      "duration": 0.8235,
      "velocity": 81,
      "chip": "ym2612"
    },
    {
      "channel": 4,
      "note": 33,
      "start": 58.5343,
      "duration": 0.0659,
      "velocity": 124,
      "chip": "ym2612"
    },
    {
      "channel": 3,
      "note": 37,
      "start": 58.537,
      "duration": 3.33,
      "velocity": 125,
      "chip": "ym2612"
    },
    {
      "channel": 2,
      "note": 49,
      "start": 58.5405,
      "duration": 0.0265,
      "velocity": 106,
      "chip": "ym2612"
    },
    {
      "channel": 2,
      "note": 49,
      "start": 58.6226,
      "duration": 0.0611,
      "velocity": 106,
      "chip": "ym2612"
    },
    {
      "channel": 1,
      "note": 61,
      "start": 58.737,
      "duration": 0.0632,
      "velocity": 86,
      "chip": "ym2612"
    },
    {
      "channel": 1,
      "note": 73,
      "start": 58.8369,
      "duration": 0.08,
      "velocity": 86,
      "chip": "ym2612"
    },
    {
      "channel": 2,
      "note": 49,
      "start": 58.8421,
      "duration": 0.0415,
      "velocity": 106,
      "chip": "ym2612"
    },
    {
      "channel": 1,
      "note": 61,
      "start": 58.9369,
      "duration": 0.1466,
      "velocity": 86,
      "chip": "ym2612"
    },
    {
      "channel": 4,
      "note": 53,
      "start": 58.9427,
      "duration": 0.1243,
      "velocity": 127,
      "chip": "ym2612"
    },
    {
      "channel": 2,
      "note": 49,
      "start": 58.9471,
      "duration": 0.0534,
      "velocity": 106,
      "chip": "ym2612"
    },
    {
      "channel": 2,
      "note": 49,
      "start": 59.0563,
      "duration": 0.0441,
      "velocity": 106,
      "chip": "ym2612"
    },
    {
      "channel": 2,
      "note": 49,
      "start": 59.1219,
      "duration": 0.0119,
      "velocity": 106,
      "chip": "ym2612"
    },
    {
      "channel": 1,
      "note": 75,
      "start": 59.1536,
      "duration": 0.1466,
      "velocity": 86,
      "chip": "ym2612"
    },
    {
      "channel": 5,
      "note": 68,
      "start": 59.1563,
      "duration": 0.1441,
      "velocity": 86,
      "chip": "ym2612"
    },
    {
      "channel": 2,
      "note": 49,
      "start": 59.1616,
      "duration": 0.0555,
      "velocity": 106,
      "chip": "ym2612"
    },
    {
      "channel": 2,
      "note": 49,
      "start": 59.2725,
      "duration": 0.0612,
      "velocity": 106,
      "chip": "ym2612"
    },
    {
      "channel": 1,
      "note": 64,
      "start": 59.3708,
      "duration": 0.0794,
      "velocity": 86,
      "chip": "ym2612"
    },
    {
      "channel": 0,
      "note": 68,
      "start": 59.3733,
      "duration": 0.8435,
      "velocity": 81,
      "chip": "ym2612"
    },
    {
      "channel": 4,
      "note": 33,
      "start": 59.3799,
      "duration": 0.0871,
      "velocity": 124,
      "chip": "ym2612"
    },
    {
      "channel": 2,
      "note": 49,
      "start": 59.3838,
      "duration": 0.0332,
      "velocity": 106,
      "chip": "ym2612"
    },
    {
      "channel": 1,
      "note": 75,
      "start": 59.4869,
      "duration": 0.08,
      "velocity": 86,
      "chip": "ym2612"
    },
    {
      "channel": 2,
      "note": 49,
      "start": 59.4917,
      "duration": 0.042,
      "velocity": 106,
      "chip": "ym2612"
    },
    {
      "channel": 1,
      "note": 61,
      "start": 59.587,
      "duration": 0.1464,
      "velocity": 86,
      "chip": "ym2612"
    },
    {
      "channel": 2,
      "note": 49,
      "start": 59.592,
      "duration": 0.0417,
      "velocity": 106,
      "chip": "ym2612"
    },
    {
      "channel": 2,
      "note": 49,
      "start": 59.789,
      "duration": 0.0114,
      "velocity": 106,
      "chip": "ym2612"
    },
    {
      "channel": 1,
      "note": 76,
      "start": 59.8036,
      "duration": 0.1466,
      "velocity": 86,
      "chip": "ym2612"
    },
    {
      "channel": 5,
      "note": 68,
      "start": 59.8064,
      "duration": 0.1441,
      "velocity": 86,
      "chip": "ym2612"
    },
    {
      "channel": 4,
      "note": 53,
      "start": 59.8117,
      "duration": 0.122,
      "velocity": 127,
      "chip": "ym2612"
    },
    {
      "channel": 2,
      "note": 49,
      "start": 59.8219,
      "duration": 0.0452,
      "velocity": 106,
      "chip": "ym2612"
    },
    {
      "channel": 2,
      "note": 49,
      "start": 59.9228,
      "duration": 0.0609,
      "velocity": 106,
      "chip": "ym2612"
    },
    {
      "channel": 1,
      "note": 64,
      "start": 60.0204,
      "duration": 0.0631,
      "velocity": 86,
      "chip": "ym2612"
    },
    {
      "channel": 1,
      "note": 76,
      "start": 60.1205,
      "duration": 0.0966,
      "velocity": 86,
      "chip": "ym2612"
    },
    {
      "channel": 2,
      "note": 49,
      "start": 60.2063,
      "duration": 0.0109,
      "velocity": 106,
      "chip": "ym2612"
    },
    {
      "channel": 1,
      "note": 61,
      "start": 60.237,
      "duration": 0.1466,
      "velocity": 86,
      "chip": "ym2612"
    },
    {
      "channel": 0,
      "note": 75,
      "start": 60.2395,
      "duration": 0.8272,
      "velocity": 81,
      "chip": "ym2612"
    },
    {
      "channel": 4,
      "note": 33,
      "start": 60.2461,
      "duration": 0.0708,
      "velocity": 124,
      "chip": "ym2612"
    },
    {
      "channel": 2,
      "note": 49,
      "start": 60.2502,
      "duration": 0.0335,
      "velocity": 106,
      "chip": "ym2612"
    },
    {
      "channel": 2,
      "note": 49,
      "start": 60.3394,
      "duration": 0.0777,
      "velocity": 106,
      "chip": "ym2612"
    },
    {
      "channel": 1,
      "note": 79,
      "start": 60.4535,
      "duration": 0.13,
      "velocity": 86,
      "chip": "ym2612"
    },
    {
      "channel": 5,
      "note": 71,
      "start": 60.4563,
      "duration": 0.1275,
      "velocity": 86,
      "chip": "ym2612"
    },
    {
      "channel": 2,
      "note": 49,
      "start": 60.556,
      "duration": 0.0443,
      "velocity": 106,
      "chip": "ym2612"
    },
    {
      "channel": 1,
      "note": 68,
      "start": 60.6703,
      "duration": 0.0632,
      "velocity": 86,
      "chip": "ym2612"
    },
    {
      "channel": 4,
      "note": 53,
      "start": 60.6757,
      "duration": 0.108,
      "velocity": 127,
      "chip": "ym2612"
    },
    {
      "channel": 2,
      "note": 49,
      "start": 60.6804,
      "duration": 0.0366,
      "velocity": 106,
      "chip": "ym2612"
    },
    {
      "channel": 1,
      "note": 79,
      "start": 60.7701,
      "duration": 0.0968,
      "velocity": 86,
      "chip": "ym2612"
    },
    {
      "channel": 2,
      "note": 49,
      "start": 60.7756,
      "duration": 0.0415,
      "velocity": 106,
      "chip": "ym2612"
    },
    {
      "channel": 2,
      "note": 49,
      "start": 60.8385,
      "duration": 0.0286,
      "velocity": 106,
      "chip": "ym2612"
    },
    {
      "channel": 1,
      "note": 64,
      "start": 60.8871,
      "duration": 0.1299,
      "velocity": 86,
      "chip": "ym2612"
    },
    {
      "channel": 2,
      "note": 49,
      "start": 60.8923,
      "duration": 0.0413,
      "velocity": 106,
      "chip": "ym2612"
    },
    {
      "channel": 2,
      "note": 49,
      "start": 60.9892,
      "duration": 0.0612,
      "velocity": 106,
      "chip": "ym2612"
    },
    {
      "channel": 1,
      "note": 80,
      "start": 61.1039,
      "duration": 0.1297,
      "velocity": 86,
      "chip": "ym2612"
    },
    {
      "channel": 5,
      "note": 73,
      "start": 61.1067,
      "duration": 0.1272,
      "velocity": 86,
      "chip": "ym2612"
    },
    {
      "channel": 0,
      "note": 73,
      "start": 61.1092,
      "duration": 0.8243,
      "velocity": 81,
      "chip": "ym2612"
    },
    {
      "channel": 4,
      "note": 33,
      "start": 61.1163,
      "duration": 0.0674,
      "velocity": 124,
      "chip": "ym2612"
    },
    {
      "channel": 2,
      "note": 49,
      "start": 61.1197,
      "duration": 0.0307,
      "velocity": 106,
      "chip": "ym2612"
    },
    {
      "channel": 2,
      "note": 49,
      "start": 61.2056,
      "duration": 0.0448,
      "velocity": 106,
      "chip": "ym2612"
    },
    {
      "channel": 1,
      "note": 68,
      "start": 61.3036,
      "duration": 0.0799,
      "velocity": 86,
      "chip": "ym2612"
    },
    {
      "channel": 2,
      "note": 49,
      "start": 61.3086,
      "duration": 0.0584,
      "velocity": 106,
      "chip": "ym2612"
    },
    {
      "channel": 1,
      "note": 80,
      "start": 61.4201,
      "duration": 0.0801,
      "velocity": 86,
      "chip": "ym2612"
    },
    {
      "channel": 2,
      "note": 49,
      "start": 61.5056,
      "duration": 0.0114,
      "velocity": 106,
      "chip": "ym2612"
    },
    {
      "channel": 1,
      "note": 76,
      "start": 61.5204,
      "duration": 0.1465,
      "velocity": 86,
      "chip": "ym2612"
    },
    {
      "channel": 4,
      "note": 53,
      "start": 61.5258,
      "duration": 0.1246,
      "velocity": 127,
      "chip": "ym2612"
    },
    {
      "channel": 2,
      "note": 49,
      "start": 61.5386,
      "duration": 0.0618,
      "velocity": 106,
      "chip": "ym2612"
    },
    {
      "channel": 2,
      "note": 49,
      "start": 61.6394,
      "duration": 0.061,
      "velocity": 106,
      "chip": "ym2612"
    },
    {
      "channel": 1,
      "note": 87,
      "start": 61.7366,
      "duration": 0.147,
      "velocity": 86,
      "chip": "ym2612"
    },
    {
      "channel": 2,
      "note": 49,
      "start": 61.923,
      "duration": 0.0108,
      "velocity": 106,
      "chip": "ym2612"
    },
    {
      "channel": 1,
      "note": 93,
      "start": 61.9551,
      "duration": 0.0617,
      "velocity": 86,
      "chip": "ym2612"
    },
    {
      "channel": 5,
      "note": 91,
      "start": 61.9579,
      "duration": 0.0591,
      "velocity": 86,
      "chip": "ym2612"
    },
    {
      "channel": 0,
      "note": 72,
      "start": 61.9605,
      "duration": 0.8396,
      "velocity": 81,
      "chip": "ym2612"
    },
    {
      "channel": 4,
      "note": 33,
      "start": 61.9683,
      "duration": 0.0819,
      "velocity": 124,
      "chip": "ym2612"
    },
    {
      "channel": 3,
      "note": 45,
      "start": 61.9712,
      "duration": 3.3623,
      "velocity": 125,
      "chip": "ym2612"
    },
    {
      "channel": 2,
      "note": 49,
      "start": 61.9747,
      "duration": 0.0257,
      "velocity": 106,
      "chip": "ym2612"
    },
    {
      "channel": 1,
      "note": 92,
      "start": 62.0704,
      "duration": 0.1632,
      "velocity": 86,
      "chip": "ym2612"
    },
    {
      "channel": 5,
      "note": 90,
      "start": 62.0732,
      "duration": 0.1606,
      "velocity": 86,
      "chip": "ym2612"
    },
    {
      "channel": 2,
      "note": 49,
      "start": 62.0784,
      "duration": 0.0554,
      "velocity": 106,
      "chip": "ym2612"
    },
    {
      "channel": 1,
      "note": 91,
      "start": 62.2869,
      "duration": 0.0632,
      "velocity": 86,
      "chip": "ym2612"
    },
    {
      "channel": 5,
      "note": 88,
      "start": 62.2898,
      "duration": 0.0607,
      "velocity": 86,
      "chip": "ym2612"
    },
    {
      "channel": 2,
      "note": 49,
      "start": 62.295,
      "duration": 0.0388,
      "velocity": 106,
      "chip": "ym2612"
    },
    {
      "channel": 1,
      "note": 90,
      "start": 62.3874,
      "duration": 0.1795,
      "velocity": 86,
      "chip": "ym2612"
    },
    {
      "channel": 5,
      "note": 84,
      "start": 62.3902,
      "duration": 0.177,
      "velocity": 86,
      "chip": "ym2612"
    },
    {
      "channel": 4,
      "note": 53,
      "start": 62.3959,
      "duration": 0.1211,
      "velocity": 127,
      "chip": "ym2612"
    },
    {
      "channel": 2,
      "note": 49,
      "start": 62.4007,
      "duration": 0.033,
      "velocity": 106,
      "chip": "ym2612"
    },
    {
      "channel": 2,
      "note": 49,
      "start": 62.4896,
      "duration": 0.0607,
      "velocity": 106,
      "chip": "ym2612"
    },
    {
      "channel": 2,
      "note": 49,
      "start": 62.5721,
      "duration": 0.0118,
      "velocity": 106,
      "chip": "ym2612"
    },
    {
      "channel": 1,
      "note": 88,
      "start": 62.6037,
      "duration": 0.0631,
      "velocity": 86,
      "chip": "ym2612"
    },
    {
      "channel": 5,
      "note": 83,
      "start": 62.6065,
      "duration": 0.0606,
      "velocity": 86,
      "chip": "ym2612"
    },
    {
      "channel": 2,
      "note": 49,
      "start": 62.6117,
      "duration": 0.0388,
      "velocity": 106,
      "chip": "ym2612"
    },
    {
      "channel": 1,
      "note": 84,
      "start": 62.7037,
      "duration": 0.1632,
      "velocity": 86,
      "chip": "ym2612"
    },
    {
      "channel": 5,
      "note": 79,
      "start": 62.7065,
      "duration": 0.1606,
      "velocity": 86,
      "chip": "ym2612"
    },
    {
      "channel": 2,
      "note": 49,
      "start": 62.7115,
      "duration": 0.0722,
      "velocity": 106,
      "chip": "ym2612"
    },
    {
      "channel": 0,
      "note": 69,
      "start": 62.8202,
      "duration": 0.83,
      "velocity": 81,
      "chip": "ym2612"
    },
    {
      "channel": 4,
      "note": 33,
      "start": 62.8266,
      "duration": 0.0737,
      "velocity": 124,
      "chip": "ym2612"
    },
    {
      "channel": 2,
      "note": 49,
      "start": 62.83,
      "duration": 0.0372,
      "velocity": 106,
      "chip": "ym2612"
    },
    {
      "channel": 1,
      "note": 83,
      "start": 62.9203,
      "duration": 0.0798,
      "velocity": 86,
      "chip": "ym2612"
    },
    {
      "channel": 5,
      "note": 78,
      "start": 62.9235,
      "duration": 0.0769,
      "velocity": 86,
      "chip": "ym2612"
    },
    {
      "channel": 2,
      "note": 49,
      "start": 62.9283,
      "duration": 0.0386,
      "velocity": 106,
      "chip": "ym2612"
    },
    {
      "channel": 1,
      "note": 81,
      "start": 63.0369,
      "duration": 0.1633,
      "velocity": 86,
      "chip": "ym2612"
    },
    {
      "channel": 5,
      "note": 75,
      "start": 63.0398,
      "duration": 0.1607,
      "velocity": 86,
      "chip": "ym2612"
    },
    {
      "channel": 2,
      "note": 49,
      "start": 63.0448,
      "duration": 0.0389,
      "velocity": 106,
      "chip": "ym2612"
    },
    {
      "channel": 2,
      "note": 49,
      "start": 63.2389,
      "duration": 0.0115,
      "velocity": 106,
      "chip": "ym2612"
    },
    {
      "channel": 1,
      "note": 80,
      "start": 63.2538,
      "duration": 0.0631,
      "velocity": 86,
      "chip": "ym2612"
    },
    {
      "channel": 5,
      "note": 76,
      "start": 63.2566,
      "duration": 0.0605,
      "velocity": 86,
      "chip": "ym2612"
    },
    {
      "channel": 4,
      "note": 53,
      "start": 63.2619,
      "duration": 0.1052,
      "velocity": 127,
      "chip": "ym2612"
    },
    {
      "channel": 2,
      "note": 49,
      "start": 63.2719,
      "duration": 0.0454,
      "velocity": 106,
      "chip": "ym2612"
    },
    {
      "channel": 1,
      "note": 79,
      "start": 63.3537,
      "duration": 0.1798,
      "velocity": 86,
      "chip": "ym2612"
    },
    {
      "channel": 5,
      "note": 72,
      "start": 63.3569,
      "duration": 0.1769,
      "velocity": 86,
      "chip": "ym2612"
    },
    {
      "channel": 2,
      "note": 49,
      "start": 63.3621,
      "duration": 0.0549,
      "velocity": 106,
      "chip": "ym2612"
    },
    {
      "channel": 1,
      "note": 78,
      "start": 63.5703,
      "duration": 0.0631,
      "velocity": 86,
      "chip": "ym2612"
    },
    {
      "channel": 5,
      "note": 69,
      "start": 63.5731,
      "duration": 0.0606,
      "velocity": 86,
      "chip": "ym2612"
    },
    {
      "channel": 2,
      "note": 49,
      "start": 63.6399,
      "duration": 0.0106,
      "velocity": 106,
      "chip": "ym2612"
    },
    {
      "channel": 1,
      "note": 76,
      "start": 63.6703,
      "duration": 0.1631,
      "velocity": 86,
      "chip": "ym2612"
    },
    {
      "channel": 5,
      "note": 72,
      "start": 63.6732,
      "duration": 0.1605,
      "velocity": 86,
      "chip": "ym2612"
    },
    {
      "channel": 0,
      "note": 76,
      "start": 63.6757,
      "duration": 0.8411,
      "velocity": 81,
      "chip": "ym2612"
    },
    {
      "channel": 4,
      "note": 33,
      "start": 63.6834,
      "duration": 0.0836,
      "velocity": 124,
      "chip": "ym2612"
    },
    {
      "channel": 2,
      "note": 49,
      "start": 63.6871,
      "duration": 0.0466,
      "velocity": 106,
      "chip": "ym2612"
    },
    {
      "channel": 2,
      "note": 49,
      "start": 63.7894,
      "duration": 0.0611,
      "velocity": 106,
      "chip": "ym2612"
    },
    {
      "channel": 1,
      "note": 75,
      "start": 63.887,
      "duration": 0.0798,
      "velocity": 86,
      "chip": "ym2612"
    },
    {
      "channel": 5,
      "note": 71,
      "start": 63.8898,
      "duration": 0.0773,
      "velocity": 86,
      "chip": "ym2612"
    },
    {
      "channel": 1,
      "note": 72,
      "start": 64.0041,
      "duration": 0.146,
      "velocity": 86,
      "chip": "ym2612"
    },
    {
      "channel": 5,
      "note": 67,
      "start": 64.0069,
      "duration": 0.1434,
      "velocity": 86,
      "chip": "ym2612"
    },
    {
      "channel": 2,
      "note": 49,
      "start": 64.0121,
      "duration": 0.0382,
      "velocity": 106,
      "chip": "ym2612"
    },
    {
      "channel": 4,
      "note": 53,
      "start": 64.1065,
      "duration": 0.1272,
      "velocity": 127,
      "chip": "ym2612"
    },
    {
      "channel": 2,
      "note": 49,
      "start": 64.1108,
      "duration": 0.0397,
      "velocity": 106,
      "chip": "ym2612"
    },
    {
      "channel": 1,
      "note": 71,
      "start": 64.2204,
      "duration": 0.063,
      "velocity": 86,
      "chip": "ym2612"
    },
    {
      "channel": 5,
      "note": 66,
      "start": 64.2232,
      "duration": 0.0605,
      "velocity": 86,
      "chip": "ym2612"
    },
    {
      "channel": 2,
      "note": 49,
      "start": 64.2286,
      "duration": 0.0385,
      "velocity": 106,
      "chip": "ym2612"
    },
    {
      "channel": 2,
      "note": 49,
      "start": 64.2886,
      "duration": 0.0118,
      "velocity": 106,
      "chip": "ym2612"
    },
    {
      "channel": 1,
      "note": 69,
      "start": 64.3204,
      "duration": 0.1798,
      "velocity": 86,
      "chip": "ym2612"
    },
    {
      "channel": 5,
      "note": 64,
      "start": 64.3232,
      "duration": 0.1772,
      "velocity": 86,
      "chip": "ym2612"
    },
    {
      "channel": 2,
      "note": 49,
      "start": 64.3284,
      "duration": 0.0386,
      "velocity": 106,
      "chip": "ym2612"
    },
    {
      "channel": 2,
      "note": 49,
      "start": 64.4392,
      "duration": 0.0614,
      "velocity": 106,
      "chip": "ym2612"
    },
    {
      "channel": 1,
      "note": 67,
      "start": 64.5373,
      "duration": 0.0628,
      "velocity": 86,
      "chip": "ym2612"
    },
    {
      "channel": 5,
      "note": 60,
      "start": 64.5402,
      "duration": 0.0602,
      "velocity": 86,
      "chip": "ym2612"
    },
    {
      "channel": 0,
      "note": 72,
      "start": 64.5427,
      "duration": 0.8408,
      "velocity": 81,
      "chip": "ym2612"
    },
    {
      "channel": 4,
      "note": 33,
      "start": 64.5498,
      "duration": 0.0672,
      "velocity": 124,
      "chip": "ym2612"
    },
    {
      "channel": 2,
      "note": 49,
      "start": 64.5532,
      "duration": 0.0305,
      "velocity": 106,
      "chip": "ym2612"
    },
    {
      "channel": 1,
      "note": 66,
      "start": 64.6537,
      "duration": 0.1465,
      "velocity": 86,
      "chip": "ym2612"
    },
    {
      "channel": 5,
      "note": 59,
      "start": 64.6565,
      "duration": 0.1439,
      "velocity": 86,
      "chip": "ym2612"
    },
    {
      "channel": 2,
      "note": 49,
      "start": 64.6613,
      "duration": 0.039,
      "velocity": 106,
      "chip": "ym2612"
    },
    {
      "channel": 2,
      "note": 49,
      "start": 64.7559,
      "duration": 0.0446,
      "velocity": 106,
      "chip": "ym2612"
    },
    {
      "channel": 1,
      "note": 64,
      "start": 64.8537,
      "duration": 0.0798,
      "velocity": 86,
      "chip": "ym2612"
    },
    {
      "channel": 5,
      "note": 60,
      "start": 64.8565,
      "duration": 0.0773,
      "velocity": 86,
      "chip": "ym2612"
    },
    {
      "channel": 2,
      "note": 49,
      "start": 64.9556,
      "duration": 0.0115,
      "velocity": 106,
      "chip": "ym2612"
    },
    {
      "channel": 1,
      "note": 63,
      "start": 64.9709,
      "duration": 0.1793,
      "velocity": 86,
      "chip": "ym2612"
    },
    {
      "channel": 5,
      "note": 57,
      "start": 64.9737,
      "duration": 0.1767,
      "velocity": 86,
      "chip": "ym2612"
    },
    {
      "channel": 4,
      "note": 53,
      "start": 64.979,
      "duration": 0.1046,
      "velocity": 127,
      "chip": "ym2612"
    },
    {
      "channel": 2,
      "note": 49,
      "start": 64.9887,
      "duration": 0.045,
      "velocity": 106,
      "chip": "ym2612"
    },
    {
      "channel": 2,
      "note": 49,
      "start": 65.0728,
      "duration": 0.0777,
      "velocity": 106,
      "chip": "ym2612"
    },
    {
      "channel": 1,
      "note": 60,
      "start": 65.1871,
      "duration": 0.0631,
      "velocity": 86,
      "chip": "ym2612"
    },
    {
      "channel": 5,
      "note": 55,
      "start": 65.1899,
      "duration": 0.0606,
      "velocity": 86,
      "chip": "ym2612"
    },
    {
      "channel": 1,
      "note": 60,
      "start": 65.2868,
      "duration": 0.0801,
      "velocity": 86,
      "chip": "ym2612"
    },
    {
      "channel": 5,
      "note": 54,
      "start": 65.2895,
      "duration": 0.0775,
      "velocity": 86,
      "chip": "ym2612"
    },
    {
      "channel": 2,
      "note": 49,
      "start": 65.3733,
      "duration": 0.0106,
      "velocity": 106,
      "chip": "ym2612"
    },
    {
      "channel": 1,
      "note": 72,
      "start": 65.4045,
      "duration": 0.129,
      "velocity": 86,
      "chip": "ym2612"
    },
    {
      "channel": 5,
      "note": 69,
      "start": 65.4074,
      "duration": 0.1264,
      "velocity": 86,
      "chip": "ym2612"
    },
    {
      "channel": 0,
      "note": 68,
      "start": 65.41,
      "duration": 0.8235,
      "velocity": 81,
      "chip": "ym2612"
    },
    {
      "channel": 4,
      "note": 33,
      "start": 65.4165,
      "duration": 0.0672,
      "velocity": 124,
      "chip": "ym2612"
    },
    {
      "channel": 3,
      "note": 44,
      "start": 65.4202,
      "duration": 6.7803,
      "velocity": 125,
      "chip": "ym2612"
    },
    {
      "channel": 2,
      "note": 49,
      "start": 65.4237,
      "duration": 0.0266,
      "velocity": 106,
      "chip": "ym2612"
    },
    {
      "channel": 2,
      "note": 49,
      "start": 65.506,
      "duration": 0.061,
      "velocity": 106,
      "chip": "ym2612"
    },
    {
      "channel": 1,
      "note": 68,
      "start": 65.6204,
      "duration": 0.0631,
      "velocity": 86,
      "chip": "ym2612"
    },
    {
      "channel": 1,
      "note": 72,
      "start": 65.7202,
      "duration": 0.08,
      "velocity": 86,
      "chip": "ym2612"
    },
    {
      "channel": 2,
      "note": 49,
      "start": 65.7253,
      "duration": 0.0417,
      "velocity": 106,
      "chip": "ym2612"
    },
    {
      "channel": 1,
      "note": 66,
      "start": 65.8203,
      "duration": 0.1466,
      "velocity": 86,
      "chip": "ym2612"
    },
    {
      "channel": 4,
      "note": 53,
      "start": 65.8248,
      "duration": 0.1256,
      "velocity": 127,
      "chip": "ym2612"
    },
    {
      "channel": 2,
      "note": 49,
      "start": 65.8291,
      "duration": 0.0546,
      "velocity": 106,
      "chip": "ym2612"
    },
    {
      "channel": 2,
      "note": 49,
      "start": 65.9396,
      "duration": 0.0441,
      "velocity": 106,
      "chip": "ym2612"
    },
    {
      "channel": 2,
      "note": 49,
      "start": 66.0052,
      "duration": 0.0119,
      "velocity": 106,
      "chip": "ym2612"
    },
    {
      "channel": 1,
      "note": 74,
      "start": 66.0369,
      "duration": 0.1466,
      "velocity": 86,
      "chip": "ym2612"
    },
    {
      "channel": 5,
      "note": 64,
      "start": 66.0398,
      "duration": 0.144,
      "velocity": 86,
      "chip": "ym2612"
    },
    {
      "channel": 2,
      "note": 49,
      "start": 66.045,
      "duration": 0.0553,
      "velocity": 106,
      "chip": "ym2612"
    },
    {
      "channel": 2,
      "note": 49,
      "start": 66.1559,
      "duration": 0.0611,
      "velocity": 106,
      "chip": "ym2612"
    },
    {
      "channel": 1,
      "note": 62,
      "start": 66.2541,
      "duration": 0.0794,
      "velocity": 86,
      "chip": "ym2612"
    },
    {
      "channel": 0,
      "note": 72,
      "start": 66.2567,
      "duration": 0.8435,
      "velocity": 81,
      "chip": "ym2612"
    },
    {
      "channel": 4,
      "note": 33,
      "start": 66.262,
      "duration": 0.0883,
      "velocity": 124,
      "chip": "ym2612"
    },
    {
      "channel": 2,
      "note": 49,
      "start": 66.2656,
      "duration": 0.0515,
      "velocity": 106,
      "chip": "ym2612"
    },
    {
      "channel": 1,
      "note": 75,
      "start": 66.3702,
      "duration": 0.0801,
      "velocity": 86,
      "chip": "ym2612"
    },
    {
      "channel": 2,
      "note": 49,
      "start": 66.375,
      "duration": 0.042,
      "velocity": 106,
      "chip": "ym2612"
    },
    {
      "channel": 1,
      "note": 60,
      "start": 66.4703,
      "duration": 0.1464,
      "velocity": 86,
      "chip": "ym2612"
    },
    {
      "channel": 2,
      "note": 49,
      "start": 66.4754,
      "duration": 0.0417,
      "velocity": 106,
      "chip": "ym2612"
    },
    {
      "channel": 2,
      "note": 49,
      "start": 66.6723,
      "duration": 0.0114,
      "velocity": 106,
      "chip": "ym2612"
    },
    {
      "channel": 1,
      "note": 76,
      "start": 66.6869,
      "duration": 0.1466,
      "velocity": 86,
      "chip": "ym2612"
    },
    {
      "channel": 5,
      "note": 58,
      "start": 66.6898,
      "duration": 0.144,
      "velocity": 86,
      "chip": "ym2612"
    },
    {
      "channel": 4,
      "note": 53,
      "start": 66.6938,
      "duration": 0.1233,
      "velocity": 127,
      "chip": "ym2612"
    },
    {
      "channel": 2,
      "note": 49,
      "start": 66.7053,
      "duration": 0.0451,
      "velocity": 106,
      "chip": "ym2612"
    },
    {
      "channel": 2,
      "note": 49,
      "start": 66.806,
      "duration": 0.061,
      "velocity": 106,
      "chip": "ym2612"
    },
    {
      "channel": 1,
      "note": 56,
      "start": 66.9037,
      "duration": 0.0632,
      "velocity": 86,
      "chip": "ym2612"
    },
    {
      "channel": 1,
      "note": 77,
      "start": 67.0039,
      "duration": 0.0964,
      "velocity": 86,
      "chip": "ym2612"
    },
    {
      "channel": 2,
      "note": 49,
      "start": 67.0897,
      "duration": 0.0109,
      "velocity": 106,
      "chip": "ym2612"
    },
    {
      "channel": 1,
      "note": 54,
      "start": 67.1203,
      "duration": 0.1466,
      "velocity": 86,
      "chip": "ym2612"
    },
    {
      "channel": 0,
      "note": 69,
      "start": 67.1229,
      "duration": 0.8272,
      "velocity": 81,
      "chip": "ym2612"
    },
    {
      "channel": 4,
      "note": 33,
      "start": 67.1282,
      "duration": 0.072,
      "velocity": 124,
      "chip": "ym2612"
    },
    {
      "channel": 2,
      "note": 49,
      "start": 67.1318,
      "duration": 0.0353,
      "velocity": 106,
      "chip": "ym2612"
    },
    {
      "channel": 2,
      "note": 49,
      "start": 67.2228,
      "duration": 0.0777,
      "velocity": 106,
      "chip": "ym2612"
    },
    {
      "channel": 1,
      "note": 78,
      "start": 67.3369,
      "duration": 0.13,
      "velocity": 86,
      "chip": "ym2612"
    },
    {
      "channel": 5,
      "note": 52,
      "start": 67.3397,
      "duration": 0.1275,
      "velocity": 86,
      "chip": "ym2612"
    },
    {
      "channel": 2,
      "note": 49,
      "start": 67.4394,
      "duration": 0.0609,
      "velocity": 106,
      "chip": "ym2612"
    },
    {
      "channel": 1,
      "note": 51,
      "start": 67.5537,
      "duration": 0.0632,
      "velocity": 86,
      "chip": "ym2612"
    },
    {
      "channel": 4,
      "note": 53,
      "start": 67.5582,
      "duration": 0.1088,
      "velocity": 127,
      "chip": "ym2612"
    },
    {
      "channel": 2,
      "note": 49,
      "start": 67.5625,
      "duration": 0.0378,
      "velocity": 106,
      "chip": "ym2612"
    },
    {
      "channel": 1,
      "note": 79,
      "start": 67.6535,
      "duration": 0.0967,
      "velocity": 86,
      "chip": "ym2612"
    },
    {
      "channel": 2,
      "note": 49,
      "start": 67.6589,
      "duration": 0.0414,
      "velocity": 106,
      "chip": "ym2612"
    },
    {
      "channel": 2,
      "note": 49,
      "start": 67.7385,
      "duration": 0.012,
      "velocity": 106,
      "chip": "ym2612"
    },
    {
      "channel": 1,
      "note": 49,
      "start": 67.7704,
      "duration": 0.1298,
      "velocity": 86,
      "chip": "ym2612"
    },
    {
      "channel": 2,
      "note": 49,
      "start": 67.7756,
      "duration": 0.0415,
      "velocity": 106,
      "chip": "ym2612"
    },
    {
      "channel": 2,
      "note": 49,
      "start": 67.8724,
      "duration": 0.0612,
      "velocity": 106,
      "chip": "ym2612"
    },
    {
      "channel": 1,
      "note": 80,
      "start": 67.9871,
      "duration": 0.1298,
      "velocity": 86,
      "chip": "ym2612"
    },
    {
      "channel": 5,
      "note": 48,
      "start": 67.99,
      "duration": 0.1272,
      "velocity": 86,
      "chip": "ym2612"
    },
    {
      "channel": 0,
      "note": 68,
      "start": 67.9929,
      "duration": 0.8239,
      "velocity": 81,
      "chip": "ym2612"
    },
    {
      "channel": 4,
      "note": 33,
      "start": 67.9982,
      "duration": 0.0687,
      "velocity": 124,
      "chip": "ym2612"
    },
    {
      "channel": 2,
      "note": 49,
      "start": 68.0022,
      "duration": 0.0315,
      "velocity": 106,
      "chip": "ym2612"
    },
    {
      "channel": 2,
      "note": 49,
      "start": 68.0891,
      "duration": 0.0446,
      "velocity": 106,
      "chip": "ym2612"
    },
    {
      "channel": 1,
      "note": 47,
      "start": 68.1869,
      "duration": 0.0799,
      "velocity": 86,
      "chip": "ym2612"
    },
    {
      "channel": 2,
      "note": 49,
      "start": 68.192,
      "duration": 0.0584,
      "velocity": 106,
      "chip": "ym2612"
    },
    {
      "channel": 1,
      "note": 81,
      "start": 68.3034,
      "duration": 0.0801,
      "velocity": 86,
      "chip": "ym2612"
    },
    {
      "channel": 2,
      "note": 49,
      "start": 68.389,
      "duration": 0.0114,
      "velocity": 106,
      "chip": "ym2612"
    },
    {
      "channel": 1,
      "note": 46,
      "start": 68.4037,
      "duration": 0.1464,
      "velocity": 86,
      "chip": "ym2612"
    },
    {
      "channel": 4,
      "note": 53,
      "start": 68.4079,
      "duration": 0.1259,
      "velocity": 127,
      "chip": "ym2612"
    },
    {
      "channel": 2,
      "note": 49,
      "start": 68.4219,
      "duration": 0.0618,
      "velocity": 106,
      "chip": "ym2612"
    },
    {
      "channel": 2,
      "note": 49,
      "start": 68.5227,
      "duration": 0.0609,
      "velocity": 106,
      "chip": "ym2612"
    },
    {
      "channel": 1,
      "note": 83,
      "start": 68.6201,
      "duration": 0.1468,
      "velocity": 86,
      "chip": "ym2612"
    },
    {
      "channel": 2,
      "note": 49,
      "start": 68.8064,
      "duration": 0.0107,
      "velocity": 106,
      "chip": "ym2612"
    },
    {
      "channel": 1,
      "note": 84,
      "start": 68.8367,
      "duration": 0.1468,
      "velocity": 86,
      "chip": "ym2612"
    },
    {
      "channel": 0,
      "note": 67,
      "start": 68.8392,
      "duration": 0.8442,
      "velocity": 81,
      "chip": "ym2612"
    },
    {
      "channel": 5,
      "note": 33,
      "start": 68.8458,
      "duration": 0.0878,
      "velocity": 124,
      "chip": "ym2612"
    },
    {
      "channel": 2,
      "note": 49,
      "start": 68.8499,
      "duration": 0.0338,
      "velocity": 106,
      "chip": "ym2612"
    },
    {
      "channel": 2,
      "note": 49,
      "start": 68.9565,
      "duration": 0.0605,
      "velocity": 106,
      "chip": "ym2612"
    },
    {
      "channel": 1,
      "note": 47,
      "start": 69.0535,
      "duration": 0.1466,
      "velocity": 86,
      "chip": "ym2612"
    },
    {
      "channel": 4,
      "note": 82,
      "start": 69.1708,
      "duration": 0.0794,
      "velocity": 86,
      "chip": "ym2612"
    },
    {
      "channel": 2,
      "note": 49,
      "start": 69.176,
      "duration": 0.041,
      "velocity": 106,
      "chip": "ym2612"
    },
    {
      "channel": 1,
      "note": 48,
      "start": 69.2703,
      "duration": 0.0632,
      "velocity": 86,
      "chip": "ym2612"
    },
    {
      "channel": 5,
      "note": 53,
      "start": 69.2744,
      "duration": 0.126,
      "velocity": 127,
      "chip": "ym2612"
    },
    {
      "channel": 2,
      "note": 49,
      "start": 69.2787,
      "duration": 0.0383,
      "velocity": 106,
      "chip": "ym2612"
    },
    {
      "channel": 2,
      "note": 49,
      "start": 69.3729,
      "duration": 0.0609,
      "velocity": 106,
      "chip": "ym2612"
    },
    {
      "channel": 2,
      "note": 49,
      "start": 69.4551,
      "duration": 0.0121,
      "velocity": 106,
      "chip": "ym2612"
    },
    {
      "channel": 1,
      "note": 49,
      "start": 69.487,
      "duration": 0.1465,
      "velocity": 86,
      "chip": "ym2612"
    },
    {
      "channel": 4,
      "note": 81,
      "start": 69.4898,
      "duration": 0.1439,
      "velocity": 86,
      "chip": "ym2612"
    },
    {
      "channel": 2,
      "note": 49,
      "start": 69.495,
      "duration": 0.0387,
      "velocity": 106,
      "chip": "ym2612"
    },
    {
      "channel": 2,
      "note": 49,
      "start": 69.5892,
      "duration": 0.0779,
      "velocity": 106,
      "chip": "ym2612"
    },
    {
      "channel": 1,
      "note": 50,
      "start": 69.7035,
      "duration": 0.13,
      "velocity": 86,
      "chip": "ym2612"
    },
    {
      "channel": 0,
      "note": 68,
      "start": 69.7061,
      "duration": 0.8275,
      "velocity": 81,
      "chip": "ym2612"
    },
    {
      "channel": 5,
      "note": 33,
      "start": 69.7114,
      "duration": 0.0723,
      "velocity": 124,
      "chip": "ym2612"
    },
    {
      "channel": 2,
      "note": 49,
      "start": 69.7148,
      "duration": 0.0356,
      "velocity": 106,
      "chip": "ym2612"
    },
    {
      "channel": 4,
      "note": 80,
      "start": 69.8036,
      "duration": 0.0966,
      "velocity": 86,
      "chip": "ym2612"
    },
    {
      "channel": 2,
      "note": 49,
      "start": 69.8084,
      "duration": 0.0587,
      "velocity": 106,
      "chip": "ym2612"
    },
    {
      "channel": 1,
      "note": 52,
      "start": 69.9208,
      "duration": 0.0627,
      "velocity": 86,
      "chip": "ym2612"
    },
    {
      "channel": 2,
      "note": 49,
      "start": 69.9258,
      "duration": 0.0412,
      "velocity": 106,
      "chip": "ym2612"
    },
    {
      "channel": 2,
      "note": 49,
      "start": 70.1222,
      "duration": 0.0115,
      "velocity": 106,
      "chip": "ym2612"
    },
    {
      "channel": 1,
      "note": 53,
      "start": 70.1371,
      "duration": 0.1297,
      "velocity": 86,
      "chip": "ym2612"
    },
    {
      "channel": 4,
      "note": 79,
      "start": 70.1399,
      "duration": 0.1272,
      "velocity": 86,
      "chip": "ym2612"
    },
    {
      "channel": 5,
      "note": 53,
      "start": 70.1439,
      "duration": 0.1066,
      "velocity": 127,
      "chip": "ym2612"
    },
    {
      "channel": 2,
      "note": 49,
      "start": 70.1553,
      "duration": 0.0451,
      "velocity": 106,
      "chip": "ym2612"
    },
    {
      "channel": 2,
      "note": 49,
      "start": 70.2394,
      "duration": 0.061,
      "velocity": 106,
      "chip": "ym2612"
    },
    {
      "channel": 1,
      "note": 55,
      "start": 70.3535,
      "duration": 0.13,
      "velocity": 86,
      "chip": "ym2612"
    },
    {
      "channel": 4,
      "note": 78,
      "start": 70.4536,
      "duration": 0.0802,
      "velocity": 86,
      "chip": "ym2612"
    },
    {
      "channel": 2,
      "note": 49,
      "start": 70.523,
      "duration": 0.0109,
      "velocity": 106,
      "chip": "ym2612"
    },
    {
      "channel": 1,
      "note": 57,
      "start": 70.5537,
      "duration": 0.0798,
      "velocity": 86,
      "chip": "ym2612"
    },
    {
      "channel": 0,
      "note": 69,
      "start": 70.5563,
      "duration": 0.8438,
      "velocity": 81,
      "chip": "ym2612"
    },
    {
      "channel": 5,
      "note": 33,
      "start": 70.5616,
      "duration": 0.0887,
      "velocity": 124,
      "chip": "ym2612"
    },
    {
      "channel": 2,
      "note": 49,
      "start": 70.5651,
      "duration": 0.0519,
      "velocity": 106,
      "chip": "ym2612"
    },
    {
      "channel": 2,
      "note": 49,
      "start": 70.6731,
      "duration": 0.0606,
      "velocity": 106,
      "chip": "ym2612"
    },
    {
      "channel": 1,
      "note": 59,
      "start": 70.7703,
      "duration": 0.1465,
      "velocity": 86,
      "chip": "ym2612"
    },
    {
      "channel": 4,
      "note": 77,
      "start": 70.7734,
      "duration": 0.1436,
      "velocity": 86,
      "chip": "ym2612"
    },
    {
      "channel": 2,
      "note": 49,
      "start": 70.8894,
      "duration": 0.0443,
      "velocity": 106,
      "chip": "ym2612"
    },
    {
      "channel": 1,
      "note": 61,
      "start": 70.9869,
      "duration": 0.1468,
      "velocity": 86,
      "chip": "ym2612"
    },
    {
      "channel": 5,
      "note": 53,
      "start": 70.991,
      "duration": 0.1261,
      "velocity": 127,
      "chip": "ym2612"
    },
    {
      "channel": 2,
      "note": 49,
      "start": 70.9953,
      "duration": 0.055,
      "velocity": 106,
      "chip": "ym2612"
    },
    {
      "channel": 4,
      "note": 76,
      "start": 71.1036,
      "duration": 0.0801,
      "velocity": 86,
      "chip": "ym2612"
    },
    {
      "channel": 2,
      "note": 49,
      "start": 71.1091,
      "duration": 0.0413,
      "velocity": 106,
      "chip": "ym2612"
    },
    {
      "channel": 2,
      "note": 49,
      "start": 71.1719,
      "duration": 0.012,
      "velocity": 106,
      "chip": "ym2612"
    },
    {
      "channel": 1,
      "note": 63,
      "start": 71.2037,
      "duration": 0.063,
      "velocity": 86,
      "chip": "ym2612"
    },
    {
      "channel": 2,
      "note": 49,
      "start": 71.209,
      "duration": 0.0413,
      "velocity": 106,
      "chip": "ym2612"
    },
    {
      "channel": 2,
      "note": 49,
      "start": 71.3225,
      "duration": 0.0613,
      "velocity": 106,
      "chip": "ym2612"
    },
    {
      "channel": 1,
      "note": 65,
      "start": 71.4203,
      "duration": 0.1466,
      "velocity": 86,
      "chip": "ym2612"
    },
    {
      "channel": 4,
      "note": 75,
      "start": 71.4231,
      "duration": 0.144,
      "velocity": 86,
      "chip": "ym2612"
    },
    {
      "channel": 0,
      "note": 68,
      "start": 71.4257,
      "duration": 0.841,
      "velocity": 81,
      "chip": "ym2612"
    },
    {
      "channel": 5,
      "note": 33,
      "start": 71.4309,
      "duration": 0.0695,
      "velocity": 124,
      "chip": "ym2612"
    },
    {
      "channel": 2,
      "note": 49,
      "start": 71.4349,
      "duration": 0.0321,
      "velocity": 106,
      "chip": "ym2612"
    },
    {
      "channel": 2,
      "note": 49,
      "start": 71.539,
      "duration": 0.0448,
      "velocity": 106,
      "chip": "ym2612"
    },
    {
      "channel": 1,
      "note": 67,
      "start": 71.6368,
      "duration": 0.1468,
      "velocity": 86,
      "chip": "ym2612"
    },
    {
      "channel": 2,
      "note": 49,
      "start": 71.6418,
      "duration": 0.0419,
      "velocity": 106,
      "chip": "ym2612"
    },
    {
      "channel": 4,
      "note": 73,
      "start": 71.7373,
      "duration": 0.0964,
      "velocity": 86,
      "chip": "ym2612"
    },
    {
      "channel": 2,
      "note": 49,
      "start": 71.8391,
      "duration": 0.0113,
      "velocity": 106,
      "chip": "ym2612"
    },
    {
      "channel": 1,
      "note": 69,
      "start": 71.8539,
      "duration": 0.0629,
      "velocity": 86,
      "chip": "ym2612"
    },
    {
      "channel": 5,
      "note": 53,
      "start": 71.8579,
      "duration": 0.1092,
      "velocity": 127,
      "chip": "ym2612"
    },
    {
      "channel": 2,
      "note": 49,
      "start": 71.872,
      "duration": 0.0451,
      "velocity": 106,
      "chip": "ym2612"
    },
    {
      "channel": 2,
      "note": 49,
      "start": 71.956,
      "duration": 0.0777,
      "velocity": 106,
      "chip": "ym2612"
    },
    {
      "channel": 1,
      "note": 70,
      "start": 72.0703,
      "duration": 0.13,
      "velocity": 86,
      "chip": "ym2612"
    },
    {
      "channel": 4,
      "note": 73,
      "start": 72.0731,
      "duration": 0.1275,
      "velocity": 86,
      "chip": "ym2612"
    },
    {
      "channel": 5,
      "note": 61,
      "start": 72.2877,
      "duration": 0.0461,
      "velocity": 93,
      "chip": "ym2612"
    },
    {
      "channel": 1,
      "note": 68,
      "start": 72.2915,
      "duration": 1.6419,
      "velocity": 86,
      "chip": "ym2612"
    },
    {
      "channel": 4,
      "note": 61,
      "start": 72.2948,
      "duration": 1.6388,
      "velocity": 86,
      "chip": "ym2612"
    },
    {
      "channel": 0,
      "note": 68,
      "start": 72.298,
      "duration": 1.6852,
      "velocity": 81,
      "chip": "ym2612"
    },
    {
      "channel": 2,
      "note": 33,
      "start": 72.3048,
      "duration": 0.0622,
      "velocity": 124,
      "chip": "ym2612"
    },
    {
      "channel": 3,
      "note": 49,
      "start": 72.3078,
      "duration": 6.809,
      "velocity": 125,
      "chip": "ym2612"
    },
    {
      "channel": 5,
      "note": 61,
      "start": 72.3541,
      "duration": 0.0462,
      "velocity": 93,
      "chip": "ym2612"
    },
    {
      "channel": 2,
      "note": 61,
      "start": 72.6032,
      "duration": 0.047,
      "velocity": 93,
      "chip": "ym2612"
    },
    {
      "channel": 5,
      "note": 61,
      "start": 72.6698,
      "duration": 0.0639,
      "velocity": 93,
      "chip": "ym2612"
    },
    {
      "channel": 2,
      "note": 53,
      "start": 72.7211,
      "duration": 0.1124,
      "velocity": 127,
      "chip": "ym2612"
    },
    {
      "channel": 5,
      "note": 61,
      "start": 72.9198,
      "duration": 0.0638,
      "velocity": 93,
      "chip": "ym2612"
    },
    {
      "channel": 2,
      "note": 61,
      "start": 73.0033,
      "duration": 0.047,
      "velocity": 93,
      "chip": "ym2612"
    },
    {
      "channel": 5,
      "note": 33,
      "start": 73.1395,
      "duration": 0.094,
      "velocity": 124,
      "chip": "ym2612"
    },
    {
      "channel": 2,
      "note": 56,
      "start": 73.2532,
      "duration": 0.0471,
      "velocity": 93,
      "chip": "ym2612"
    },
    {
      "channel": 5,
      "note": 56,
      "start": 73.3199,
      "duration": 0.0471,
      "velocity": 93,
      "chip": "ym2612"
    },
    {
      "channel": 2,
      "note": 59,
      "start": 73.57,
      "duration": 0.047,
      "velocity": 93,
      "chip": "ym2612"
    },
    {
      "channel": 5,
      "note": 53,
      "start": 73.5734,
      "duration": 0.1269,
      "velocity": 127,
      "chip": "ym2612"
    },
    {
      "channel": 2,
      "note": 59,
      "start": 73.6368,
      "duration": 0.0637,
      "velocity": 93,
      "chip": "ym2612"
    },
    {
      "channel": 5,
      "note": 52,
      "start": 73.7864,
      "duration": 0.0471,
      "velocity": 93,
      "chip": "ym2612"
    },
    {
      "channel": 2,
      "note": 52,
      "start": 73.8533,
      "duration": 0.0636,
      "velocity": 93,
      "chip": "ym2612"
    },
    {
      "channel": 5,
      "note": 61,
      "start": 74.0032,
      "duration": 0.047,
      "velocity": 93,
      "chip": "ym2612"
    },
    {
      "channel": 1,
      "note": 73,
      "start": 74.0061,
      "duration": 1.644,
      "velocity": 86,
      "chip": "ym2612"
    },
    {
      "channel": 4,
      "note": 69,
      "start": 74.009,
      "duration": 1.6413,
      "velocity": 86,
      "chip": "ym2612"
    },
    {
      "channel": 0,
      "note": 69,
      "start": 74.0116,
      "duration": 1.6885,
      "velocity": 81,
      "chip": "ym2612"
    },
    {
      "channel": 2,
      "note": 33,
      "start": 74.0174,
      "duration": 0.0662,
      "velocity": 124,
      "chip": "ym2612"
    },
    {
      "channel": 5,
      "note": 61,
      "start": 74.0701,
      "duration": 0.0634,
      "velocity": 93,
      "chip": "ym2612"
    },
    {
      "channel": 2,
      "note": 61,
      "start": 74.3199,
      "duration": 0.0637,
      "velocity": 93,
      "chip": "ym2612"
    },
    {
      "channel": 5,
      "note": 61,
      "start": 74.4032,
      "duration": 0.0472,
      "velocity": 93,
      "chip": "ym2612"
    },
    {
      "channel": 2,
      "note": 53,
      "start": 74.4373,
      "duration": 0.113,
      "velocity": 127,
      "chip": "ym2612"
    },
    {
      "channel": 5,
      "note": 61,
      "start": 74.6532,
      "duration": 0.0471,
      "velocity": 93,
      "chip": "ym2612"
    },
    {
      "channel": 2,
      "note": 61,
      "start": 74.7199,
      "duration": 0.0471,
      "velocity": 93,
      "chip": "ym2612"
    },
    {
      "channel": 5,
      "note": 33,
      "start": 74.8729,
      "duration": 0.0773,
      "velocity": 124,
      "chip": "ym2612"
    },
    {
      "channel": 2,
      "note": 56,
      "start": 74.9699,
      "duration": 0.047,
      "velocity": 93,
      "chip": "ym2612"
    },
    {
      "channel": 5,
      "note": 56,
      "start": 75.0365,
      "duration": 0.0637,
      "velocity": 93,
      "chip": "ym2612"
    },
    {
      "channel": 2,
      "note": 59,
      "start": 75.2866,
      "duration": 0.0637,
      "velocity": 93,
      "chip": "ym2612"
    },
    {
      "channel": 5,
      "note": 53,
      "start": 75.2901,
      "duration": 0.1269,
      "velocity": 127,
      "chip": "ym2612"
    },
    {
      "channel": 2,
      "note": 59,
      "start": 75.3702,
      "duration": 0.0469,
      "velocity": 93,
      "chip": "ym2612"
    },
    {
      "channel": 5,
      "note": 61,
      "start": 75.7203,
      "duration": 0.0465,
      "velocity": 93,
      "chip": "ym2612"
    },
    {
      "channel": 1,
      "note": 71,
      "start": 75.7232,
      "duration": 1.6435,
      "velocity": 86,
      "chip": "ym2612"
    },
    {
      "channel": 4,
      "note": 67,
      "start": 75.7261,
      "duration": 1.6408,
      "velocity": 86,
      "chip": "ym2612"
    },
    {
      "channel": 0,
      "note": 67,
      "start": 75.7287,
      "duration": 1.688,
      "velocity": 81,
      "chip": "ym2612"
    },
    {
      "channel": 2,
      "note": 33,
      "start": 75.7345,
      "duration": 0.0824,
      "velocity": 124,
      "chip": "ym2612"
    },
    {
      "channel": 5,
      "note": 61,
      "start": 75.8034,
      "duration": 0.0469,
      "velocity": 93,
      "chip": "ym2612"
    },
    {
      "channel": 2,
      "note": 61,
      "start": 76.0532,
      "duration": 0.0471,
      "velocity": 93,
      "chip": "ym2612"
    },
    {
      "channel": 5,
      "note": 61,
      "start": 76.1202,
      "duration": 0.0468,
      "velocity": 93,
      "chip": "ym2612"
    },
    {
      "channel": 2,
      "note": 53,
      "start": 76.154,
      "duration": 0.1296,
      "velocity": 127,
      "chip": "ym2612"
    },
    {
      "channel": 5,
      "note": 61,
      "start": 76.3698,
      "duration": 0.0471,
      "velocity": 93,
      "chip": "ym2612"
    },
    {
      "channel": 2,
      "note": 61,
      "start": 76.4366,
      "duration": 0.047,
      "velocity": 93,
      "chip": "ym2612"
    },
    {
      "channel": 5,
      "note": 33,
      "start": 76.5895,
      "duration": 0.0773,
      "velocity": 124,
      "chip": "ym2612"
    },
    {
      "channel": 2,
      "note": 56,
      "start": 76.6866,
      "duration": 0.0637,
      "velocity": 93,
      "chip": "ym2612"
    },
    {
      "channel": 5,
      "note": 56,
      "start": 76.7699,
      "duration": 0.047,
      "velocity": 93,
      "chip": "ym2612"
    },
    {
      "channel": 2,
      "note": 59,
      "start": 77.02,
      "duration": 0.047,
      "velocity": 93,
      "chip": "ym2612"
    },
    {
      "channel": 5,
      "note": 53,
      "start": 77.0234,
      "duration": 0.1102,
      "velocity": 127,
      "chip": "ym2612"
    },
    {
      "channel": 2,
      "note": 59,
      "start": 77.0868,
      "duration": 0.0469,
      "velocity": 93,
      "chip": "ym2612"
    },
    {
      "channel": 5,
      "note": 52,
      "start": 77.2364,
      "duration": 0.0471,
      "velocity": 93,
      "chip": "ym2612"
    },
    {
      "channel": 2,
      "note": 52,
      "start": 77.3033,
      "duration": 0.047,
      "velocity": 93,
      "chip": "ym2612"
    },
    {
      "channel": 5,
      "note": 61,
      "start": 77.4532,
      "duration": 0.047,
      "velocity": 93,
      "chip": "ym2612"
    },
    {
      "channel": 1,
      "note": 71,
      "start": 77.4561,
      "duration": 1.6273,
      "velocity": 86,
      "chip": "ym2612"
    },
    {
      "channel": 4,
      "note": 68,
      "start": 77.4591,
      "duration": 0.7744,
      "velocity": 86,
      "chip": "ym2612"
    },
    {
      "channel": 0,
      "note": 68,
      "start": 77.462,
      "duration": 1.6214,
      "velocity": 81,
      "chip": "ym2612"
    },
    {
      "channel": 2,
      "note": 33,
      "start": 77.4678,
      "duration": 0.0658,
      "velocity": 124,
      "chip": "ym2612"
    },
    {
      "channel": 5,
      "note": 61,
      "start": 77.5202,
      "duration": 0.0467,
      "velocity": 93,
      "chip": "ym2612"
    },
    {
      "channel": 2,
      "note": 61,
      "start": 77.7698,
      "duration": 0.047,
      "velocity": 93,
      "chip": "ym2612"
    },
    {
      "channel": 5,
      "note": 61,
      "start": 77.8365,
      "duration": 0.0471,
      "velocity": 93,
      "chip": "ym2612"
    },
    {
      "channel": 2,
      "note": 53,
      "start": 77.8706,
      "duration": 0.1297,
      "velocity": 127,
      "chip": "ym2612"
    },
    {
      "channel": 5,
      "note": 61,
      "start": 78.0865,
      "duration": 0.0471,
      "velocity": 93,
      "chip": "ym2612"
    },
    {
      "channel": 2,
      "note": 61,
      "start": 78.17,
      "duration": 0.047,
      "velocity": 93,
      "chip": "ym2612"
    },
    {
      "channel": 4,
      "note": 64,
      "start": 78.3036,
      "duration": 0.78,
      "velocity": 86,
      "chip": "ym2612"
    },
    {
      "channel": 5,
      "note": 33,
      "start": 78.3091,
      "duration": 0.0912,
      "velocity": 124,
      "chip": "ym2612"
    },
    {
      "channel": 2,
      "note": 56,
      "start": 78.4198,
      "duration": 0.0471,
      "velocity": 93,
      "chip": "ym2612"
    },
    {
      "channel": 5,
      "note": 56,
      "start": 78.4866,
      "duration": 0.0469,
      "velocity": 93,
      "chip": "ym2612"
    },
    {
      "channel": 2,
      "note": 59,
      "start": 78.7366,
      "duration": 0.047,
      "velocity": 93,
      "chip": "ym2612"
    },
    {
      "channel": 5,
      "note": 53,
      "start": 78.7402,
      "duration": 0.1101,
      "velocity": 127,
      "chip": "ym2612"
    },
    {
      "channel": 2,
      "note": 59,
      "start": 78.8035,
      "duration": 0.0469,
      "velocity": 93,
      "chip": "ym2612"
    },
    {
      "channel": 5,
      "note": 61,
      "start": 79.1713,
      "duration": 0.0456,
      "velocity": 93,
      "chip": "ym2612"
    },
    {
      "channel": 2,
      "note": 33,
      "start": 79.1934,
      "duration": 0.0568,
      "velocity": 124,
      "chip": "ym2612"
    },
    {
      "channel": 0,
      "note": 61,
      "start": 79.2369,
      "duration": 0.0464,
      "velocity": 93,
      "chip": "ym2612"
    },
    {
      "channel": 5,
      "note": 61,
      "start": 79.4864,
      "duration": 0.0471,
      "velocity": 93,
      "chip": "ym2612"
    }
  ]
}