{
  "track_name": "07 - CL Architecture",
  "duration_sec": 85.331,
  "sample_rate": 44100,
  "note_count": 1356,
  "unique_pitches": 41,
  "pitch_range": 44,
  "avg_note_duration": 0.1898,
  "reconstruction_stats": {
    "notes_reconstructed": 1356,
    "keyon_events": 1356,
    "keyoff_events": 1347,
    "orphan_keyons": 3,
    "unique_pitches": 41,
    "pitch_range": 44,
    "avg_duration_sec": 0.1898
  },
  "metadata": {
    "source": "P\\Pulseman\\07 - CL Architecture.vgz"
  },
  "notes": [
    {
      "channel": 1,
      "note": 57,
      "start": 0.0,
      "duration": 1.3315,
      "velocity": 117,
      "chip": "ym2612"
    },
    {
      "channel": 2,
      "note": 69,
      "start": 0.0009,
      "duration": 1.3309,
      "velocity": 111,
      "chip": "ym2612"
    },
    {
      "channel": 3,
      "note": 64,
      "start": 0.0019,
      "duration": 1.3302,
      "velocity": 123,
      "chip": "ym2612"
    },
    {
      "channel": 1,
      "note": 58,
      "start": 1.3317,
      "duration": 1.0,
      "velocity": 117,
      "chip": "ym2612"
    },
    {
      "channel": 2,
      "note": 70,
      "start": 1.332,
      "duration": 1.0,
      "velocity": 111,
      "chip": "ym2612"
    },
    {
      "channel": 3,
      "note": 63,
      "start": 1.3323,
      "duration": 1.0,
      "velocity": 123,
      "chip": "ym2612"
    },
    {
      "channel": 0,
      "note": 44,
      "start": 2.3317,
      "duration": 0.3331,
      "velocity": 117,
      "chip": "ym2612"
    },
    {
      "channel": 1,
      "note": 56,
      "start": 2.332,
      "duration": 0.3331,
      "velocity": 117,
      "chip": "ym2612"
    },
    {
      "channel": 2,
      "note": 68,
      "start": 2.3322,
      "duration": 0.3331,
      "velocity": 111,
      "chip": "ym2612"
    },
    {
      "channel": 3,
      "note": 63,
      "start": 2.3326,
      "duration": 0.3331,
      "velocity": 123,
      "chip": "ym2612"
    },
    {
      "channel": 4,
      "note": 44,
      "start": 2.3329,
      "duration": 0.3331,
      "velocity": 118,
      "chip": "ym2612"
    },
    {
      "channel": 0,
      "note": 45,
      "start": 2.6651,
      "duration": 0.0028,
      "velocity": 117,
      "chip": "ym2612"
    },
    {
      "channel": 1,
      "note": 57,
      "start": 2.6653,
      "duration": 0.0018,
      "velocity": 117,
      "chip": "ym2612"
    },
    {
      "channel": 2,
      "note": 69,
      "start": 2.6656,
      "duration": 0.0017,
      "velocity": 111,
      "chip": "ym2612"
    },
    {
      "channel": 3,
      "note": 61,
      "start": 2.6659,
      "duration": 0.0015,
      "velocity": 123,
      "chip": "ym2612"
    },
    {
      "channel": 4,
      "note": 45,
      "start": 2.6662,
      "duration": 0.0033,
      "velocity": 118,
      "chip": "ym2612"
    },
    {
      "channel": 0,
      "note": 40,
      "start": 2.6681,
      "duration": 0.0026,
      "velocity": 117,
      "chip": "ym2612"
    },
    {
      "channel": 1,
      "note": 40,
      "start": 2.6691,
      "duration": 0.0019,
      "velocity": 114,
      "chip": "ym2612"
    },
    {
      "channel": 4,
      "note": 40,
      "start": 2.6698,
      "duration": 0.0015,
      "velocity": 118,
      "chip": "ym2612"
    },
    {
      "channel": 0,
      "note": 43,
      "start": 2.6709,
      "duration": 0.0012,
      "velocity": 117,
      "chip": "ym2612"
    },
    {
      "channel": 1,
      "note": 43,
      "start": 2.6712,
      "duration": 0.0011,
      "velocity": 114,
      "chip": "ym2612"
    },
    {
      "channel": 4,
      "note": 43,
      "start": 2.6714,
      "duration": 0.0011,
      "velocity": 118,
      "chip": "ym2612"
    },
    {
      "channel": 0,
      "note": 40,
      "start": 2.6722,
      "duration": 0.0007,
      "velocity": 117,
      "chip": "ym2612"
    },
    {
      "channel": 1,
      "note": 40,
      "start": 2.6724,
      "duration": 0.0007,
      "velocity": 114,
      "chip": "ym2612"
    },
    {
      "channel": 4,
      "note": 40,
      "start": 2.6727,
      "duration": 0.0009,
      "velocity": 118,
      "chip": "ym2612"
    },
    {
      "channel": 0,
      "note": 43,
      "start": 2.6731,
      "duration": 0.0013,
      "velocity": 117,
      "chip": "ym2612"
    },
    {
      "channel": 1,
      "note": 43,
      "start": 2.6734,
      "duration": 0.0012,
      "velocity": 114,
      "chip": "ym2612"
    },
    {
      "channel": 4,
      "note": 43,
      "start": 2.6737,
      "duration": 0.0011,
      "velocity": 118,
      "chip": "ym2612"
    },
    {
      "channel": 0,
      "note": 46,
      "start": 2.6746,
      "duration": 0.0011,
      "velocity": 117,
      "chip": "ym2612"
    },
    {
      "channel": 1,
      "note": 46,
      "start": 2.6748,
      "duration": 0.0012,
      "velocity": 114,
      "chip": "ym2612"
    },
    {
      "channel": 4,
      "note": 46,
      "start": 2.6749,
      "duration": 0.0013,
      "velocity": 118,
      "chip": "ym2612"
    },
    {
      "channel": 0,
      "note": 43,
      "start": 2.6759,
      "duration": 0.0012,
      "velocity": 117,
      "chip": "ym2612"
    },
    {
      "channel": 1,
      "note": 43,
      "start": 2.6761,
      "duration": 0.0013,
      "velocity": 114,
      "chip": "ym2612"
    },
    {
      "channel": 4,
      "note": 43,
      "start": 2.6764,
      "duration": 0.0013,
      "velocity": 118,
      "chip": "ym2612"
    },
    {
      "channel": 0,
      "note": 45,
      "start": 2.6773,
      "duration": 0.0023,
      "velocity": 117,
      "chip": "ym2612"
    },
    {
      "channel": 1,
      "note": 45,
      "start": 2.6776,
      "duration": 0.0024,
      "velocity": 114,
      "chip": "ym2612"
    },
    {
      "channel": 4,
      "note": 45,
      "start": 2.678,
      "duration": 0.0023,
      "velocity": 118,
      "chip": "ym2612"
    },
    {
      "channel": 0,
      "note": 40,
      "start": 2.6798,
      "duration": 0.0017,
      "velocity": 117,
      "chip": "ym2612"
    },
    {
      "channel": 1,
      "note": 40,
      "start": 2.6801,
      "duration": 0.0017,
      "velocity": 114,
      "chip": "ym2612"
    },
    {
      "channel": 4,
      "note": 40,
      "start": 2.6806,
      "duration": 0.0016,
      "velocity": 118,
      "chip": "ym2612"
    },
    {
      "channel": 0,
      "note": 43,
      "start": 2.6818,
      "duration": 0.0013,
      "velocity": 117,
      "chip": "ym2612"
    },
    {
      "channel": 1,
      "note": 43,
      "start": 2.6821,
      "duration": 0.0012,
      "velocity": 114,
      "chip": "ym2612"
    },
    {
      "channel": 4,
      "note": 43,
      "start": 2.6824,
      "duration": 0.0011,
      "velocity": 118,
      "chip": "ym2612"
    },
    {
      "channel": 0,
      "note": 46,
      "start": 2.6832,
      "duration": 0.0012,
      "velocity": 117,
      "chip": "ym2612"
    },
    {
      "channel": 1,
      "note": 46,
      "start": 2.6834,
      "duration": 0.0013,
      "velocity": 114,
      "chip": "ym2612"
    },
    {
      "channel": 4,
      "note": 46,
      "start": 2.6837,
      "duration": 0.0014,
      "velocity": 118,
      "chip": "ym2612"
    },
    {
      "channel": 0,
      "note": 43,
      "start": 2.6846,
      "duration": 0.0012,
      "velocity": 117,
      "chip": "ym2612"
    },
    {
      "channel": 1,
      "note": 43,
      "start": 2.6849,
      "duration": 0.0012,
      "velocity": 114,
      "chip": "ym2612"
    },
    {
      "channel": 4,
      "note": 43,
      "start": 2.6852,
      "duration": 0.0012,
      "velocity": 118,
      "chip": "ym2612"
    },
    {
      "channel": 0,
      "note": 42,
      "start": 2.6861,
      "duration": 0.0012,
      "velocity": 117,
      "chip": "ym2612"
    },
    {
      "channel": 1,
      "note": 42,
      "start": 2.6863,
      "duration": 0.0012,
      "velocity": 114,
      "chip": "ym2612"
    },
    {
      "channel": 4,
      "note": 42,
      "start": 2.6865,
      "duration": 0.0013,
      "velocity": 118,
      "chip": "ym2612"
    },
    {
      "channel": 0,
      "note": 43,
      "start": 2.6875,
      "duration": 0.0013,
      "velocity": 117,
      "chip": "ym2612"
    },
    {
      "channel": 1,
      "note": 43,
      "start": 2.6878,
      "duration": 0.0013,
      "velocity": 114,
      "chip": "ym2612"
    },
    {
      "channel": 4,
      "note": 43,
      "start": 2.688,
      "duration": 0.0013,
      "velocity": 118,
      "chip": "ym2612"
    },
    {
      "channel": 0,
      "note": 45,
      "start": 2.6889,
      "duration": 0.0022,
      "velocity": 117,
      "chip": "ym2612"
    },
    {
      "channel": 1,
      "note": 45,
      "start": 2.6892,
      "duration": 0.0023,
      "velocity": 114,
      "chip": "ym2612"
    },
    {
      "channel": 4,
      "note": 45,
      "start": 2.6896,
      "duration": 0.0022,
      "velocity": 118,
      "chip": "ym2612"
    },
    {
      "channel": 0,
      "note": 40,
      "start": 2.6914,
      "duration": 0.0016,
      "velocity": 117,
      "chip": "ym2612"
    },
    {
      "channel": 1,
      "note": 40,
      "start": 2.6917,
      "duration": 0.0015,
      "velocity": 114,
      "chip": "ym2612"
    },
    {
      "channel": 4,
      "note": 40,
      "start": 2.6921,
      "duration": 0.0015,
      "velocity": 118,
      "chip": "ym2612"
    },
    {
      "channel": 0,
      "note": 43,
      "start": 2.6931,
      "duration": 0.0012,
      "velocity": 117,
      "chip": "ym2612"
    },
    {
      "channel": 1,
      "note": 43,
      "start": 2.6934,
      "duration": 0.0011,
      "velocity": 114,
      "chip": "ym2612"
    },
    {
      "channel": 4,
      "note": 43,
      "start": 2.6937,
      "duration": 0.0011,
      "velocity": 118,
      "chip": "ym2612"
    },
    {
      "channel": 0,
      "note": 40,
      "start": 2.6945,
      "duration": 0.0012,
      "velocity": 117,
      "chip": "ym2612"
    },
    {
      "channel": 1,
      "note": 40,
      "start": 2.6947,
      "duration": 0.0013,
      "velocity": 114,
      "chip": "ym2612"
    },
    {
      "channel": 4,
      "note": 40,
      "start": 2.695,
      "duration": 0.0013,
      "velocity": 118,
      "chip": "ym2612"
    },
    {
      "channel": 0,
      "note": 43,
      "start": 2.6959,
      "duration": 0.0009,
      "velocity": 117,
      "chip": "ym2612"
    },
    {
      "channel": 1,
      "note": 43,
      "start": 2.6962,
      "duration": 0.0008,
      "velocity": 114,
      "chip": "ym2612"
    },
    {
      "channel": 4,
      "note": 43,
      "start": 2.6964,
      "duration": 0.0008,
      "velocity": 118,
      "chip": "ym2612"
    },
    {
      "channel": 0,
      "note": 46,
      "start": 2.6969,
      "duration": 0.0012,
      "velocity": 117,
      "chip": "ym2612"
    },
    {
      "channel": 1,
      "note": 46,
      "start": 2.6971,
      "duration": 0.0013,
      "velocity": 114,
      "chip": "ym2612"
    },
    {
      "channel": 4,
      "note": 46,
      "start": 2.6974,
      "duration": 0.0013,
      "velocity": 118,
      "chip": "ym2612"
    },
    {
      "channel": 0,
      "note": 43,
      "start": 2.6983,
      "duration": 0.0012,
      "velocity": 117,
      "chip": "ym2612"
    },
    {
      "channel": 1,
      "note": 43,
      "start": 2.6986,
      "duration": 0.0013,
      "velocity": 114,
      "chip": "ym2612"
    },
    {
      "channel": 4,
      "note": 43,
      "start": 2.6989,
      "duration": 0.0013,
      "velocity": 118,
      "chip": "ym2612"
    },
    {
      "channel": 0,
      "note": 45,
      "start": 2.6998,
      "duration": 0.0022,
      "velocity": 117,
      "chip": "ym2612"
    },
    {
      "channel": 1,
      "note": 45,
      "start": 2.7,
      "duration": 0.0023,
      "velocity": 114,
      "chip": "ym2612"
    },
    {
      "channel": 4,
      "note": 45,
      "start": 2.7003,
      "duration": 0.0024,
      "velocity": 118,
      "chip": "ym2612"
    },
    {
      "channel": 0,
      "note": 40,
      "start": 2.7022,
      "duration": 0.0016,
      "velocity": 117,
      "chip": "ym2612"
    },
    {
      "channel": 1,
      "note": 40,
      "start": 2.7025,
      "duration": 0.0016,
      "velocity": 114,
      "chip": "ym2612"
    },
    {
      "channel": 4,
      "note": 40,
      "start": 2.7029,
      "duration": 0.0015,
      "velocity": 118,
      "chip": "ym2612"
    },
    {
      "channel": 0,
      "note": 43,
      "start": 2.704,
      "duration": 0.0013,
      "velocity": 117,
      "chip": "ym2612"
    },
    {
      "channel": 1,
      "note": 43,
      "start": 2.7043,
      "duration": 0.0012,
      "velocity": 114,
      "chip": "ym2612"
    },
    {
      "channel": 4,
      "note": 43,
      "start": 2.7046,
      "duration": 0.0012,
      "velocity": 118,
      "chip": "ym2612"
    },
    {
      "channel": 0,
      "note": 46,
      "start": 2.7054,
      "duration": 0.0014,
      "velocity": 117,
      "chip": "ym2612"
    },
    {
      "channel": 1,
      "note": 46,
      "start": 2.7057,
      "duration": 0.0014,
      "velocity": 114,
      "chip": "ym2612"
    },
    {
      "channel": 4,
      "note": 46,
      "start": 2.706,
      "duration": 0.0014,
      "velocity": 118,
      "chip": "ym2612"
    },
    {
      "channel": 0,
      "note": 43,
      "start": 2.7069,
      "duration": 0.0012,
      "velocity": 117,
      "chip": "ym2612"
    },
    {
      "channel": 1,
      "note": 43,
      "start": 2.7072,
      "duration": 0.0011,
      "velocity": 114,
      "chip": "ym2612"
    },
    {
      "channel": 4,
      "note": 43,
      "start": 2.7075,
      "duration": 0.0011,
      "velocity": 118,
      "chip": "ym2612"
    },
    {
      "channel": 0,
      "note": 42,
      "start": 2.7083,
      "duration": 0.0016,
      "velocity": 117,
      "chip": "ym2612"
    },
    {
      "channel": 1,
      "note": 42,
      "start": 2.7085,
      "duration": 0.0017,
      "velocity": 114,
      "chip": "ym2612"
    },
    {
      "channel": 4,
      "note": 42,
      "start": 2.7088,
      "duration": 0.0017,
      "velocity": 118,
      "chip": "ym2612"
    },
    {
      "channel": 0,
      "note": 43,
      "start": 2.71,
      "duration": 0.0013,
      "velocity": 117,
      "chip": "ym2612"
    },
    {
      "channel": 1,
      "note": 43,
      "start": 2.7103,
      "duration": 0.0013,
      "velocity": 114,
      "chip": "ym2612"
    },
    {
      "channel": 4,
      "note": 43,
      "start": 2.7106,
      "duration": 0.0015,
      "velocity": 118,
      "chip": "ym2612"
    },
    {
      "channel": 0,
      "note": 45,
      "start": 2.7116,
      "duration": 0.0036,
      "velocity": 117,
      "chip": "ym2612"
    },
    {
      "channel": 1,
      "note": 45,
      "start": 2.7118,
      "duration": 0.0036,
      "velocity": 114,
      "chip": "ym2612"
    },
    {
      "channel": 4,
      "note": 45,
      "start": 2.7123,
      "duration": 0.0036,
      "velocity": 118,
      "chip": "ym2612"
    },
    {
      "channel": 0,
      "note": 40,
      "start": 2.7154,
      "duration": 0.0024,
      "velocity": 117,
      "chip": "ym2612"
    },
    {
      "channel": 1,
      "note": 40,
      "start": 2.7157,
      "duration": 0.0023,
      "velocity": 114,
      "chip": "ym2612"
    },
    {
      "channel": 4,
      "note": 40,
      "start": 2.7161,
      "duration": 0.0022,
      "velocity": 118,
      "chip": "ym2612"
    },
    {
      "channel": 0,
      "note": 43,
      "start": 2.7179,
      "duration": 0.0014,
      "velocity": 117,
      "chip": "ym2612"
    },
    {
      "channel": 1,
      "note": 43,
      "start": 2.7182,
      "duration": 0.0014,
      "velocity": 114,
      "chip": "ym2612"
    },
    {
      "channel": 4,
      "note": 43,
      "start": 2.7184,
      "duration": 0.0014,
      "velocity": 118,
      "chip": "ym2612"
    },
    {
      "channel": 0,
      "note": 40,
      "start": 2.7195,
      "duration": 0.002,
      "velocity": 117,
      "chip": "ym2612"
    },
    {
      "channel": 1,
      "note": 40,
      "start": 2.7198,
      "duration": 0.0021,
      "velocity": 114,
      "chip": "ym2612"
    },
    {
      "channel": 4,
      "note": 40,
      "start": 2.72,
      "duration": 0.0022,
      "velocity": 118,
      "chip": "ym2612"
    },
    {
      "channel": 0,
      "note": 43,
      "start": 2.7217,
      "duration": 0.0016,
      "velocity": 117,
      "chip": "ym2612"
    },
    {
      "channel": 1,
      "note": 43,
      "start": 2.722,
      "duration": 0.0015,
      "velocity": 114,
      "chip": "ym2612"
    },
    {
      "channel": 4,
      "note": 43,
      "start": 2.7224,
      "duration": 0.0014,
      "velocity": 118,
      "chip": "ym2612"
    },
    {
      "channel": 0,
      "note": 46,
      "start": 2.7234,
      "duration": 0.002,
      "velocity": 117,
      "chip": "ym2612"
    },
    {
      "channel": 1,
      "note": 46,
      "start": 2.7237,
      "duration": 0.002,
      "velocity": 114,
      "chip": "ym2612"
    },
    {
      "channel": 4,
      "note": 46,
      "start": 2.7239,
      "duration": 0.0021,
      "velocity": 118,
      "chip": "ym2612"
    },
    {
      "channel": 0,
      "note": 43,
      "start": 2.7256,
      "duration": 0.0015,
      "velocity": 117,
      "chip": "ym2612"
    },
    {
      "channel": 1,
      "note": 43,
      "start": 2.7259,
      "duration": 0.0014,
      "velocity": 114,
      "chip": "ym2612"
    },
    {
      "channel": 4,
      "note": 43,
      "start": 2.7262,
      "duration": 0.0015,
      "velocity": 118,
      "chip": "ym2612"
    },
    {
      "channel": 0,
      "note": 45,
      "start": 2.7273,
      "duration": 0.0031,
      "velocity": 117,
      "chip": "ym2612"
    },
    {
      "channel": 1,
      "note": 45,
      "start": 2.7275,
      "duration": 0.0032,
      "velocity": 114,
      "chip": "ym2612"
    },
    {
      "channel": 4,
      "note": 45,
      "start": 2.7279,
      "duration": 0.0031,
      "velocity": 118,
      "chip": "ym2612"
    },
    {
      "channel": 0,
      "note": 40,
      "start": 2.7306,
      "duration": 0.0023,
      "velocity": 117,
      "chip": "ym2612"
    },
    {
      "channel": 1,
      "note": 40,
      "start": 2.7309,
      "duration": 0.0023,
      "velocity": 114,
      "chip": "ym2612"
    },
    {
      "channel": 4,
      "note": 40,
      "start": 2.7313,
      "duration": 0.0022,
      "velocity": 118,
      "chip": "ym2612"
    },
    {
      "channel": 0,
      "note": 43,
      "start": 2.7331,
      "duration": 0.0015,
      "velocity": 117,
      "chip": "ym2612"
    },
    {
      "channel": 1,
      "note": 43,
      "start": 2.7334,
      "duration": 0.0014,
      "velocity": 114,
      "chip": "ym2612"
    },
    {
      "channel": 4,
      "note": 43,
      "start": 2.7337,
      "duration": 0.0013,
      "velocity": 118,
      "chip": "ym2612"
    },
    {
      "channel": 0,
      "note": 46,
      "start": 2.7347,
      "duration": 0.0018,
      "velocity": 117,
      "chip": "ym2612"
    },
    {
      "channel": 1,
      "note": 46,
      "start": 2.7349,
      "duration": 0.0019,
      "velocity": 114,
      "chip": "ym2612"
    },
    {
      "channel": 4,
      "note": 46,
      "start": 2.7352,
      "duration": 0.0019,
      "velocity": 118,
      "chip": "ym2612"
    },
    {
      "channel": 0,
      "note": 43,
      "start": 2.7367,
      "duration": 0.0015,
      "velocity": 117,
      "chip": "ym2612"
    },
    {
      "channel": 1,
      "note": 43,
      "start": 2.737,
      "duration": 0.0014,
      "velocity": 114,
      "chip": "ym2612"
    },
    {
      "channel": 4,
      "note": 43,
      "start": 2.7373,
      "duration": 0.0013,
      "velocity": 118,
      "chip": "ym2612"
    },
    {
      "channel": 0,
      "note": 42,
      "start": 2.7383,
      "duration": 0.0015,
      "velocity": 117,
      "chip": "ym2612"
    },
    {
      "channel": 1,
      "note": 42,
      "start": 2.7386,
      "duration": 0.0016,
      "velocity": 114,
      "chip": "ym2612"
    },
    {
      "channel": 4,
      "note": 42,
      "start": 2.7389,
      "duration": 0.0016,
      "velocity": 118,
      "chip": "ym2612"
    },
    {
      "channel": 0,
      "note": 43,
      "start": 2.74,
      "duration": 0.0016,
      "velocity": 117,
      "chip": "ym2612"
    },
    {
      "channel": 1,
      "note": 43,
      "start": 2.7403,
      "duration": 0.0016,
      "velocity": 114,
      "chip": "ym2612"
    },
    {
      "channel": 4,
      "note": 43,
      "start": 2.7406,
      "duration": 0.0017,
      "velocity": 118,
      "chip": "ym2612"
    },
    {
      "channel": 0,
      "note": 45,
      "start": 2.7419,
      "duration": 0.0036,
      "velocity": 117,
      "chip": "ym2612"
    },
    {
      "channel": 1,
      "note": 45,
      "start": 2.7421,
      "duration": 0.0037,
      "velocity": 114,
      "chip": "ym2612"
    },
    {
      "channel": 4,
      "note": 45,
      "start": 2.7425,
      "duration": 0.0037,
      "velocity": 118,
      "chip": "ym2612"
    },
    {
      "channel": 0,
      "note": 40,
      "start": 2.7456,
      "duration": 0.0023,
      "velocity": 117,
      "chip": "ym2612"
    },
    {
      "channel": 1,
      "note": 40,
      "start": 2.7459,
      "duration": 0.0023,
      "velocity": 114,
      "chip": "ym2612"
    },
    {
      "channel": 4,
      "note": 40,
      "start": 2.7463,
      "duration": 0.0022,
      "velocity": 118,
      "chip": "ym2612"
    },
    {
      "channel": 0,
      "note": 43,
      "start": 2.7482,
      "duration": 0.0014,
      "velocity": 117,
      "chip": "ym2612"
    },
    {
      "channel": 1,
      "note": 43,
      "start": 2.7485,
      "duration": 0.0013,
      "velocity": 114,
      "chip": "ym2612"
    },
    {
      "channel": 4,
      "note": 43,
      "start": 2.7487,
      "duration": 0.0013,
      "velocity": 118,
      "chip": "ym2612"
    },
    {
      "channel": 0,
      "note": 40,
      "start": 2.7497,
      "duration": 0.0018,
      "velocity": 117,
      "chip": "ym2612"
    },
    {
      "channel": 1,
      "note": 40,
      "start": 2.75,
      "duration": 0.002,
      "velocity": 114,
      "chip": "ym2612"
    },
    {
      "channel": 4,
      "note": 40,
      "start": 2.7502,
      "duration": 0.002,
      "velocity": 118,
      "chip": "ym2612"
    },
    {
      "channel": 0,
      "note": 43,
      "start": 2.7518,
      "duration": 0.0016,
      "velocity": 117,
      "chip": "ym2612"
    },
    {
      "channel": 1,
      "note": 43,
      "start": 2.7521,
      "duration": 0.0015,
      "velocity": 114,
      "chip": "ym2612"
    },
    {
      "channel": 4,
      "note": 43,
      "start": 2.7525,
      "duration": 0.0014,
      "velocity": 118,
      "chip": "ym2612"
    },
    {
      "channel": 0,
      "note": 46,
      "start": 2.7535,
      "duration": 0.002,
      "velocity": 117,
      "chip": "ym2612"
    },
    {
      "channel": 1,
      "note": 46,
      "start": 2.7537,
      "duration": 0.002,
      "velocity": 114,
      "chip": "ym2612"
    },
    {
      "channel": 4,
      "note": 46,
      "start": 2.754,
      "duration": 0.0021,
      "velocity": 118,
      "chip": "ym2612"
    },
    {
      "channel": 0,
      "note": 43,
      "start": 2.7557,
      "duration": 0.0015,
      "velocity": 117,
      "chip": "ym2612"
    },
    {
      "channel": 1,
      "note": 43,
      "start": 2.756,
      "duration": 0.0014,
      "velocity": 114,
      "chip": "ym2612"
    },
    {
      "channel": 4,
      "note": 43,
      "start": 2.7563,
      "duration": 0.0015,
      "velocity": 118,
      "chip": "ym2612"
    },
    {
      "channel": 0,
      "note": 45,
      "start": 2.7573,
      "duration": 0.0031,
      "velocity": 117,
      "chip": "ym2612"
    },
    {
      "channel": 1,
      "note": 45,
      "start": 2.7576,
      "duration": 0.0032,
      "velocity": 114,
      "chip": "ym2612"
    },
    {
      "channel": 4,
      "note": 45,
      "start": 2.758,
      "duration": 0.0031,
      "velocity": 118,
      "chip": "ym2612"
    },
    {
      "channel": 0,
      "note": 40,
      "start": 2.7606,
      "duration": 0.0023,
      "velocity": 117,
      "chip": "ym2612"
    },
    {
      "channel": 1,
      "note": 40,
      "start": 2.761,
      "duration": 0.0023,
      "velocity": 114,
      "chip": "ym2612"
    },
    {
      "channel": 4,
      "note": 40,
      "start": 2.7613,
      "duration": 0.0022,
      "velocity": 118,
      "chip": "ym2612"
    },
    {
      "channel": 0,
      "note": 43,
      "start": 2.7632,
      "duration": 0.0015,
      "velocity": 117,
      "chip": "ym2612"
    },
    {
      "channel": 1,
      "note": 43,
      "start": 2.7634,
      "duration": 0.0014,
      "velocity": 114,
      "chip": "ym2612"
    },
    {
      "channel": 4,
      "note": 43,
      "start": 2.7638,
      "duration": 0.0013,
      "velocity": 118,
      "chip": "ym2612"
    },
    {
      "channel": 0,
      "note": 46,
      "start": 2.7647,
      "duration": 0.0018,
      "velocity": 117,
      "chip": "ym2612"
    },
    {
      "channel": 1,
      "note": 46,
      "start": 2.765,
      "duration": 0.0019,
      "velocity": 114,
      "chip": "ym2612"
    },
    {
      "channel": 4,
      "note": 46,
      "start": 2.7653,
      "duration": 0.0019,
      "velocity": 118,
      "chip": "ym2612"
    },
    {
      "channel": 0,
      "note": 43,
      "start": 2.7668,
      "duration": 0.0015,
      "velocity": 117,
      "chip": "ym2612"
    },
    {
      "channel": 1,
      "note": 43,
      "start": 2.7671,
      "duration": 0.0014,
      "velocity": 114,
      "chip": "ym2612"
    },
    {
      "channel": 4,
      "note": 43,
      "start": 2.7674,
      "duration": 0.0013,
      "velocity": 118,
      "chip": "ym2612"
    },
    {
      "channel": 0,
      "note": 42,
      "start": 2.7684,
      "duration": 0.0015,
      "velocity": 117,
      "chip": "ym2612"
    },
    {
      "channel": 1,
      "note": 42,
      "start": 2.7686,
      "duration": 0.0016,
      "velocity": 114,
      "chip": "ym2612"
    },
    {
      "channel": 4,
      "note": 42,
      "start": 2.7689,
      "duration": 0.0016,
      "velocity": 118,
      "chip": "ym2612"
    },
    {
      "channel": 0,
      "note": 43,
      "start": 2.7701,
      "duration": 0.0016,
      "velocity": 117,
      "chip": "ym2612"
    },
    {
      "channel": 1,
      "note": 43,
      "start": 2.7704,
      "duration": 0.0022,
      "velocity": 117,
      "chip": "ym2612"
    },
    {
      "channel": 4,
      "note": 43,
      "start": 2.7707,
      "duration": 0.0025,
      "velocity": 118,
      "chip": "ym2612"
    },
    {
      "channel": 0,
      "note": 45,
      "start": 2.7719,
      "duration": 0.0041,
      "velocity": 117,
      "chip": "ym2612"
    },
    {
      "channel": 1,
      "note": 57,
      "start": 2.7728,
      "duration": 0.0149,
      "velocity": 117,
      "chip": "ym2612"
    },
    {
      "channel": 2,
      "note": 69,
      "start": 2.773,
      "duration": 0.0072,
      "velocity": 111,
      "chip": "ym2612"
    },
    {
      "channel": 4,
      "note": 45,
      "start": 2.7733,
      "duration": 0.0031,
      "velocity": 118,
      "chip": "ym2612"
    },
    {
      "channel": 0,
      "note": 40,
      "start": 2.7762,
      "duration": 0.0024,
      "velocity": 117,
      "chip": "ym2612"
    },
    {
      "channel": 4,
      "note": 40,
      "start": 2.7766,
      "duration": 0.0023,
      "velocity": 118,
      "chip": "ym2612"
    },
    {
      "channel": 0,
      "note": 43,
      "start": 2.7788,
      "duration": 0.0012,
      "velocity": 117,
      "chip": "ym2612"
    },
    {
      "channel": 4,
      "note": 43,
      "start": 2.7791,
      "duration": 0.0013,
      "velocity": 118,
      "chip": "ym2612"
    },
    {
      "channel": 0,
      "note": 40,
      "start": 2.7801,
      "duration": 0.0022,
      "velocity": 117,
      "chip": "ym2612"
    },
    {
      "channel": 2,
      "note": 76,
      "start": 2.7804,
      "duration": 0.0075,
      "velocity": 111,
      "chip": "ym2612"
    },
    {
      "channel": 4,
      "note": 40,
      "start": 2.7806,
      "duration": 0.002,
      "velocity": 118,
      "chip": "ym2612"
    },
    {
      "channel": 0,
      "note": 43,
      "start": 2.7825,
      "duration": 0.0012,
      "velocity": 117,
      "chip": "ym2612"
    },
    {
      "channel": 4,
      "note": 43,
      "start": 2.7829,
      "duration": 0.0011,
      "velocity": 118,
      "chip": "ym2612"
    },
    {
      "channel": 0,
      "note": 46,
      "start": 2.7839,
      "duration": 0.002,
      "velocity": 117,
      "chip": "ym2612"
    },
    {
      "channel": 4,
      "note": 46,
      "start": 2.7841,
      "duration": 0.0021,
      "velocity": 118,
      "chip": "ym2612"
    },
    {
      "channel": 0,
      "note": 43,
      "start": 2.7861,
      "duration": 0.0014,
      "velocity": 117,
      "chip": "ym2612"
    },
    {
      "channel": 4,
      "note": 43,
      "start": 2.7865,
      "duration": 0.0017,
      "velocity": 118,
      "chip": "ym2612"
    },
    {
      "channel": 0,
      "note": 45,
      "start": 2.7876,
      "duration": 0.0039,
      "velocity": 117,
      "chip": "ym2612"
    },
    {
      "channel": 1,
      "note": 58,
      "start": 2.7878,
      "duration": 0.0145,
      "velocity": 117,
      "chip": "ym2612"
    },
    {
      "channel": 2,
      "note": 77,
      "start": 2.788,
      "duration": 0.0023,
      "velocity": 111,
      "chip": "ym2612"
    },
    {
      "channel": 4,
      "note": 45,
      "start": 2.7883,
      "duration": 0.0037,
      "velocity": 118,
      "chip": "ym2612"
    },
    {
      "channel": 2,
      "note": 70,
      "start": 2.7905,
      "duration": 0.0013,
      "velocity": 111,
      "chip": "ym2612"
    },
    {
      "channel": 0,
      "note": 40,
      "start": 2.7917,
      "duration": 0.0022,
      "velocity": 117,
      "chip": "ym2612"
    },
    {
      "channel": 2,
      "note": 70,
      "start": 2.792,
      "duration": 0.0105,
      "velocity": 111,
      "chip": "ym2612"
    },
    {
      "channel": 4,
      "note": 40,
      "start": 2.7924,
      "duration": 0.0018,
      "velocity": 118,
      "chip": "ym2612"
    },
    {
      "channel": 0,
      "note": 43,
      "start": 2.7941,
      "duration": 0.0012,
      "velocity": 117,
      "chip": "ym2612"
    },
    {
      "channel": 4,
      "note": 43,
      "start": 2.7944,
      "duration": 0.0012,
      "velocity": 118,
      "chip": "ym2612"
    },
    {
      "channel": 0,
      "note": 46,
      "start": 2.7955,
      "duration": 0.002,
      "velocity": 117,
      "chip": "ym2612"
    },
    {
      "channel": 4,
      "note": 46,
      "start": 2.7958,
      "duration": 0.0019,
      "velocity": 118,
      "chip": "ym2612"
    },
    {
      "channel": 0,
      "note": 43,
      "start": 2.7976,
      "duration": 0.0012,
      "velocity": 117,
      "chip": "ym2612"
    },
    {
      "channel": 4,
      "note": 43,
      "start": 2.798,
      "duration": 0.0012,
      "velocity": 118,
      "chip": "ym2612"
    },
    {
      "channel": 0,
      "note": 42,
      "start": 2.799,
      "duration": 0.0014,
      "velocity": 117,
      "chip": "ym2612"
    },
    {
      "channel": 4,
      "note": 42,
      "start": 2.7993,
      "duration": 0.0013,
      "velocity": 118,
      "chip": "ym2612"
    },
    {
      "channel": 0,
      "note": 43,
      "start": 2.8006,
      "duration": 0.0015,
      "velocity": 117,
      "chip": "ym2612"
    },
    {
      "channel": 4,
      "note": 43,
      "start": 2.8009,
      "duration": 0.002,
      "velocity": 118,
      "chip": "ym2612"
    },
    {
      "channel": 0,
      "note": 45,
      "start": 2.8022,
      "duration": 0.0035,
      "velocity": 117,
      "chip": "ym2612"
    },
    {
      "channel": 1,
      "note": 60,
      "start": 2.8024,
      "duration": 0.0147,
      "velocity": 117,
      "chip": "ym2612"
    },
    {
      "channel": 2,
      "note": 69,
      "start": 2.8027,
      "duration": 0.0073,
      "velocity": 111,
      "chip": "ym2612"
    },
    {
      "channel": 4,
      "note": 45,
      "start": 2.8032,
      "duration": 0.0029,
      "velocity": 118,
      "chip": "ym2612"
    },
    {
      "channel": 0,
      "note": 40,
      "start": 2.8059,
      "duration": 0.0023,
      "velocity": 117,
      "chip": "ym2612"
    },
    {
      "channel": 4,
      "note": 40,
      "start": 2.8063,
      "duration": 0.0023,
      "velocity": 118,
      "chip": "ym2612"
    },
    {
      "channel": 0,
      "note": 43,
      "start": 2.8085,
      "duration": 0.0012,
      "velocity": 117,
      "chip": "ym2612"
    },
    {
      "channel": 4,
      "note": 43,
      "start": 2.8088,
      "duration": 0.0013,
      "velocity": 118,
      "chip": "ym2612"
    },
    {
      "channel": 0,
      "note": 40,
      "start": 2.8098,
      "duration": 0.0022,
      "velocity": 117,
      "chip": "ym2612"
    },
    {
      "channel": 2,
      "note": 76,
      "start": 2.8101,
      "duration": 0.0072,
      "velocity": 111,
      "chip": "ym2612"
    },
    {
      "channel": 4,
      "note": 40,
      "start": 2.8103,
      "duration": 0.002,
      "velocity": 118,
      "chip": "ym2612"
    },
    {
      "channel": 0,
      "note": 43,
      "start": 2.8122,
      "duration": 0.0012,
      "velocity": 117,
      "chip": "ym2612"
    },
    {
      "channel": 4,
      "note": 43,
      "start": 2.8126,
      "duration": 0.0011,
      "velocity": 118,
      "chip": "ym2612"
    },
    {
      "channel": 0,
      "note": 46,
      "start": 2.8136,
      "duration": 0.0019,
      "velocity": 117,
      "chip": "ym2612"
    },
    {
      "channel": 4,
      "note": 46,
      "start": 2.8138,
      "duration": 0.0019,
      "velocity": 118,
      "chip": "ym2612"
    },
    {
      "channel": 0,
      "note": 43,
      "start": 2.8156,
      "duration": 0.0012,
      "velocity": 117,
      "chip": "ym2612"
    },
    {
      "channel": 4,
      "note": 43,
      "start": 2.816,
      "duration": 0.0017,
      "velocity": 118,
      "chip": "ym2612"
    },
    {
      "channel": 0,
      "note": 45,
      "start": 2.8171,
      "duration": 0.0041,
      "velocity": 117,
      "chip": "ym2612"
    },
    {
      "channel": 1,
      "note": 58,
      "start": 2.8173,
      "duration": 0.0148,
      "velocity": 117,
      "chip": "ym2612"
    },
    {
      "channel": 2,
      "note": 74,
      "start": 2.8175,
      "duration": 0.0024,
      "velocity": 111,
      "chip": "ym2612"
    },
    {
      "channel": 4,
      "note": 45,
      "start": 2.818,
      "duration": 0.0038,
      "velocity": 118,
      "chip": "ym2612"
    },
    {
      "channel": 2,
      "note": 77,
      "start": 2.82,
      "duration": 0.0014,
      "velocity": 111,
      "chip": "ym2612"
    },
    {
      "channel": 0,
      "note": 40,
      "start": 2.8214,
      "duration": 0.0025,
      "velocity": 117,
      "chip": "ym2612"
    },
    {
      "channel": 2,
      "note": 77,
      "start": 2.8216,
      "duration": 0.0106,
      "velocity": 111,
      "chip": "ym2612"
    },
    {
      "channel": 4,
      "note": 40,
      "start": 2.822,
      "duration": 0.0021,
      "velocity": 118,
      "chip": "ym2612"
    },
    {
      "channel": 0,
      "note": 43,
      "start": 2.824,
      "duration": 0.0013,
      "velocity": 117,
      "chip": "ym2612"
    },
    {
      "channel": 4,
      "note": 43,
      "start": 2.8243,
      "duration": 0.0012,
      "velocity": 118,
      "chip": "ym2612"
    },
    {
      "channel": 0,
      "note": 46,
      "start": 2.8254,
      "duration": 0.0019,
      "velocity": 117,
      "chip": "ym2612"
    },
    {
      "channel": 4,
      "note": 46,
      "start": 2.8257,
      "duration": 0.002,
      "velocity": 118,
      "chip": "ym2612"
    },
    {
      "channel": 0,
      "note": 43,
      "start": 2.8275,
      "duration": 0.0012,
      "velocity": 117,
      "chip": "ym2612"
    },
    {
      "channel": 4,
      "note": 43,
      "start": 2.8278,
      "duration": 0.001,
      "velocity": 118,
      "chip": "ym2612"
    },
    {
      "channel": 0,
      "note": 42,
      "start": 2.8288,
      "duration": 0.0014,
      "velocity": 117,
      "chip": "ym2612"
    },
    {
      "channel": 4,
      "note": 42,
      "start": 2.8291,
      "duration": 0.0015,
      "velocity": 118,
      "chip": "ym2612"
    },
    {
      "channel": 0,
      "note": 43,
      "start": 2.8304,
      "duration": 0.0014,
      "velocity": 117,
      "chip": "ym2612"
    },
    {
      "channel": 4,
      "note": 43,
      "start": 2.8307,
      "duration": 0.0018,
      "velocity": 118,
      "chip": "ym2612"
    },
    {
      "channel": 0,
      "note": 45,
      "start": 2.832,
      "duration": 0.0039,
      "velocity": 117,
      "chip": "ym2612"
    },
    {
      "channel": 1,
      "note": 57,
      "start": 2.8322,
      "duration": 0.015,
      "velocity": 117,
      "chip": "ym2612"
    },
    {
      "channel": 2,
      "note": 69,
      "start": 2.8324,
      "duration": 0.0076,
      "velocity": 111,
      "chip": "ym2612"
    },
    {
      "channel": 4,
      "note": 45,
      "start": 2.8327,
      "duration": 0.0035,
      "velocity": 118,
      "chip": "ym2612"
    },
    {
      "channel": 0,
      "note": 40,
      "start": 2.836,
      "duration": 0.0023,
      "velocity": 117,
      "chip": "ym2612"
    },
    {
      "channel": 4,
      "note": 40,
      "start": 2.8365,
      "duration": 0.0021,
      "velocity": 118,
      "chip": "ym2612"
    },
    {
      "channel": 0,
      "note": 43,
      "start": 2.8385,
      "duration": 0.0012,
      "velocity": 117,
      "chip": "ym2612"
    },
    {
      "channel": 4,
      "note": 43,
      "start": 2.8388,
      "duration": 0.0014,
      "velocity": 118,
      "chip": "ym2612"
    },
    {
      "channel": 0,
      "note": 40,
      "start": 2.8399,
      "duration": 0.0021,
      "velocity": 117,
      "chip": "ym2612"
    },
    {
      "channel": 2,
      "note": 76,
      "start": 2.8401,
      "duration": 0.0072,
      "velocity": 111,
      "chip": "ym2612"
    },
    {
      "channel": 4,
      "note": 40,
      "start": 2.8403,
      "duration": 0.002,
      "velocity": 118,
      "chip": "ym2612"
    },
    {
      "channel": 0,
      "note": 43,
      "start": 2.8422,
      "duration": 0.0012,
      "velocity": 117,
      "chip": "ym2612"
    },
    {
      "channel": 4,
      "note": 43,
      "start": 2.8425,
      "duration": 0.0012,
      "velocity": 118,
      "chip": "ym2612"
    },
    {
      "channel": 0,
      "note": 46,
      "start": 2.8436,
      "duration": 0.002,
      "velocity": 117,
      "chip": "ym2612"
    },
    {
      "channel": 4,
      "note": 46,
      "start": 2.8439,
      "duration": 0.0019,
      "velocity": 118,
      "chip": "ym2612"
    },
    {
      "channel": 0,
      "note": 43,
      "start": 2.8457,
      "duration": 0.0012,
      "velocity": 117,
      "chip": "ym2612"
    },
    {
      "channel": 4,
      "note": 43,
      "start": 2.846,
      "duration": 0.0017,
      "velocity": 118,
      "chip": "ym2612"
    },
    {
      "channel": 0,
      "note": 45,
      "start": 2.8471,
      "duration": 0.0041,
      "velocity": 117,
      "chip": "ym2612"
    },
    {
      "channel": 1,
      "note": 58,
      "start": 2.8473,
      "duration": 0.0151,
      "velocity": 117,
      "chip": "ym2612"
    },
    {
      "channel": 2,
      "note": 77,
      "start": 2.8475,
      "duration": 0.0024,
      "velocity": 111,
      "chip": "ym2612"
    },
    {
      "channel": 4,
      "note": 45,
      "start": 2.848,
      "duration": 0.0038,
      "velocity": 118,
      "chip": "ym2612"
    },
    {
      "channel": 2,
      "note": 70,
      "start": 2.85,
      "duration": 0.0014,
      "velocity": 111,
      "chip": "ym2612"
    },
    {
      "channel": 0,
      "note": 40,
      "start": 2.8514,
      "duration": 0.0025,
      "velocity": 117,
      "chip": "ym2612"
    },
    {
      "channel": 2,
      "note": 70,
      "start": 2.8517,
      "duration": 0.0109,
      "velocity": 111,
      "chip": "ym2612"
    },
    {
      "channel": 4,
      "note": 40,
      "start": 2.8521,
      "duration": 0.0021,
      "velocity": 118,
      "chip": "ym2612"
    },
    {
      "channel": 0,
      "note": 43,
      "start": 2.854,
      "duration": 0.0013,
      "velocity": 117,
      "chip": "ym2612"
    },
    {
      "channel": 4,
      "note": 43,
      "start": 2.8544,
      "duration": 0.0012,
      "velocity": 118,
      "chip": "ym2612"
    },
    {
      "channel": 0,
      "note": 46,
      "start": 2.8555,
      "duration": 0.0019,
      "velocity": 117,
      "chip": "ym2612"
    },
    {
      "channel": 4,
      "note": 46,
      "start": 2.8557,
      "duration": 0.002,
      "velocity": 118,
      "chip": "ym2612"
    },
    {
      "channel": 0,
      "note": 43,
      "start": 2.8576,
      "duration": 0.0013,
      "velocity": 117,
      "chip": "ym2612"
    },
    {
      "channel": 4,
      "note": 43,
      "start": 2.8579,
      "duration": 0.0012,
      "velocity": 118,
      "chip": "ym2612"
    },
    {
      "channel": 0,
      "note": 42,
      "start": 2.859,
      "duration": 0.0014,
      "velocity": 117,
      "chip": "ym2612"
    },
    {
      "channel": 4,
      "note": 42,
      "start": 2.8593,
      "duration": 0.0014,
      "velocity": 118,
      "chip": "ym2612"
    },
    {
      "channel": 0,
      "note": 43,
      "start": 2.8605,
      "duration": 0.0016,
      "velocity": 117,
      "chip": "ym2612"
    },
    {
      "channel": 4,
      "note": 43,
      "start": 2.8608,
      "duration": 0.0022,
      "velocity": 118,
      "chip": "ym2612"
    },
    {
      "channel": 0,
      "note": 45,
      "start": 2.8623,
      "duration": 0.0038,
      "velocity": 117,
      "chip": "ym2612"
    },
    {
      "channel": 1,
      "note": 60,
      "start": 2.8625,
      "duration": 0.0147,
      "velocity": 117,
      "chip": "ym2612"
    },
    {
      "channel": 2,
      "note": 69,
      "start": 2.8627,
      "duration": 0.0073,
      "velocity": 111,
      "chip": "ym2612"
    },
    {
      "channel": 4,
      "note": 45,
      "start": 2.8632,
      "duration": 0.0031,
      "velocity": 118,
      "chip": "ym2612"
    },
    {
      "channel": 0,
      "note": 40,
      "start": 2.8663,
      "duration": 0.0021,
      "velocity": 117,
      "chip": "ym2612"
    },
    {
      "channel": 4,
      "note": 40,
      "start": 2.8666,
      "duration": 0.0021,
      "velocity": 118,
      "chip": "ym2612"
    },
    {
      "channel": 0,
      "note": 43,
      "start": 2.8686,
      "duration": 0.0012,
      "velocity": 117,
      "chip": "ym2612"
    },
    {
      "channel": 4,
      "note": 43,
      "start": 2.869,
      "duration": 0.0013,
      "velocity": 118,
      "chip": "ym2612"
    },
    {
      "channel": 0,
      "note": 40,
      "start": 2.87,
      "duration": 0.0022,
      "velocity": 117,
      "chip": "ym2612"
    },
    {
      "channel": 2,
      "note": 76,
      "start": 2.8702,
      "duration": 0.0072,
      "velocity": 111,
      "chip": "ym2612"
    },
    {
      "channel": 4,
      "note": 40,
      "start": 2.8705,
      "duration": 0.002,
      "velocity": 118,
      "chip": "ym2612"
    },
    {
      "channel": 0,
      "note": 43,
      "start": 2.8724,
      "duration": 0.0012,
      "velocity": 117,
      "chip": "ym2612"
    },
    {
      "channel": 4,
      "note": 43,
      "start": 2.8727,
      "duration": 0.0011,
      "velocity": 118,
      "chip": "ym2612"
    },
    {
      "channel": 0,
      "note": 46,
      "start": 2.8738,
      "duration": 0.0019,
      "velocity": 117,
      "chip": "ym2612"
    },
    {
      "channel": 4,
      "note": 46,
      "start": 2.874,
      "duration": 0.002,
      "velocity": 118,
      "chip": "ym2612"
    },
    {
      "channel": 0,
      "note": 43,
      "start": 2.8758,
      "duration": 0.0012,
      "velocity": 117,
      "chip": "ym2612"
    },
    {
      "channel": 4,
      "note": 43,
      "start": 2.8762,
      "duration": 0.0016,
      "velocity": 118,
      "chip": "ym2612"
    },
    {
      "channel": 0,
      "note": 45,
      "start": 2.8772,
      "duration": 0.004,
      "velocity": 117,
      "chip": "ym2612"
    },
    {
      "channel": 1,
      "note": 62,
      "start": 2.8774,
      "duration": 0.0145,
      "velocity": 117,
      "chip": "ym2612"
    },
    {
      "channel": 2,
      "note": 74,
      "start": 2.8776,
      "duration": 0.0024,
      "velocity": 111,
      "chip": "ym2612"
    },
    {
      "channel": 4,
      "note": 45,
      "start": 2.8781,
      "duration": 0.0037,
      "velocity": 118,
      "chip": "ym2612"
    },
    {
      "channel": 2,
      "note": 77,
      "start": 2.8801,
      "duration": 0.0013,
      "velocity": 111,
      "chip": "ym2612"
    },
    {
      "channel": 0,
      "note": 40,
      "start": 2.8814,
      "duration": 0.0023,
      "velocity": 117,
      "chip": "ym2612"
    },
    {
      "channel": 2,
      "note": 77,
      "start": 2.8815,
      "duration": 0.0105,
      "velocity": 111,
      "chip": "ym2612"
    },
    {
      "channel": 4,
      "note": 40,
      "start": 2.8819,
      "duration": 0.002,
      "velocity": 118,
      "chip": "ym2612"
    },
    {
      "channel": 0,
      "note": 43,
      "start": 2.8838,
      "duration": 0.0012,
      "velocity": 117,
      "chip": "ym2612"
    },
    {
      "channel": 4,
      "note": 43,
      "start": 2.8841,
      "duration": 0.0012,
      "velocity": 118,
      "chip": "ym2612"
    },
    {
      "channel": 0,
      "note": 46,
      "start": 2.8852,
      "duration": 0.002,
      "velocity": 117,
      "chip": "ym2612"
    },
    {
      "channel": 4,
      "note": 46,
      "start": 2.8855,
      "duration": 0.0019,
      "velocity": 118,
      "chip": "ym2612"
    },
    {
      "channel": 0,
      "note": 43,
      "start": 2.8873,
      "duration": 0.0012,
      "velocity": 117,
      "chip": "ym2612"
    },
    {
      "channel": 4,
      "note": 43,
      "start": 2.8877,
      "duration": 0.0011,
      "velocity": 118,
      "chip": "ym2612"
    },
    {
      "channel": 0,
      "note": 42,
      "start": 2.8887,
      "duration": 0.0014,
      "velocity": 117,
      "chip": "ym2612"
    },
    {
      "channel": 4,
      "note": 42,
      "start": 2.889,
      "duration": 0.0014,
      "velocity": 118,
      "chip": "ym2612"
    },
    {
      "channel": 0,
      "note": 43,
      "start": 2.8902,
      "duration": 0.0014,
      "velocity": 117,
      "chip": "ym2612"
    },
    {
      "channel": 4,
      "note": 43,
      "start": 2.8906,
      "duration": 0.0019,
      "velocity": 118,
      "chip": "ym2612"
    },
    {
      "channel": 0,
      "note": 45,
      "start": 2.8918,
      "duration": 0.0034,
      "velocity": 117,
      "chip": "ym2612"
    },
    {
      "channel": 1,
      "note": 60,
      "start": 2.892,
      "duration": 0.0141,
      "velocity": 117,
      "chip": "ym2612"
    },
    {
      "channel": 2,
      "note": 69,
      "start": 2.8922,
      "duration": 0.0067,
      "velocity": 111,
      "chip": "ym2612"
    },
    {
      "channel": 3,
      "note": 64,
      "start": 2.8925,
      "duration": 0.0141,
      "velocity": 123,
      "chip": "ym2612"
    },
    {
      "channel": 4,
      "note": 45,
      "start": 2.8928,
      "duration": 0.0027,
      "velocity": 118,
      "chip": "ym2612"
    },
    {
      "channel": 0,
      "note": 40,
      "start": 2.8955,
      "duration": 0.002,
      "velocity": 117,
      "chip": "ym2612"
    },
    {
      "channel": 4,
      "note": 40,
      "start": 2.8958,
      "duration": 0.0019,
      "velocity": 118,
      "chip": "ym2612"
    },
    {
      "channel": 0,
      "note": 43,
      "start": 2.8976,
      "duration": 0.001,
      "velocity": 117,
      "chip": "ym2612"
    },
    {
      "channel": 4,
      "note": 43,
      "start": 2.8979,
      "duration": 0.0013,
      "velocity": 118,
      "chip": "ym2612"
    },
    {
      "channel": 0,
      "note": 40,
      "start": 2.8988,
      "duration": 0.0024,
      "velocity": 117,
      "chip": "ym2612"
    },
    {
      "channel": 2,
      "note": 76,
      "start": 2.8991,
      "duration": 0.0073,
      "velocity": 111,
      "chip": "ym2612"
    },
    {
      "channel": 4,
      "note": 40,
      "start": 2.8994,
      "duration": 0.0022,
      "velocity": 118,
      "chip": "ym2612"
    },
    {
      "channel": 0,
      "note": 43,
      "start": 2.9014,
      "duration": 0.0012,
      "velocity": 117,
      "chip": "ym2612"
    },
    {
      "channel": 4,
      "note": 43,
      "start": 2.9017,
      "duration": 0.0012,
      "velocity": 118,
      "chip": "ym2612"
    },
    {
      "channel": 0,
      "note": 46,
      "start": 2.9028,
      "duration": 0.0019,
      "velocity": 117,
      "chip": "ym2612"
    },
    {
      "channel": 4,
      "note": 46,
      "start": 2.9031,
      "duration": 0.0018,
      "velocity": 118,
      "chip": "ym2612"
    },
    {
      "channel": 0,
      "note": 43,
      "start": 2.9048,
      "duration": 0.0011,
      "velocity": 117,
      "chip": "ym2612"
    },
    {
      "channel": 4,
      "note": 43,
      "start": 2.9051,
      "duration": 0.0017,
      "velocity": 118,
      "chip": "ym2612"
    },
    {
      "channel": 0,
      "note": 45,
      "start": 2.9061,
      "duration": 0.004,
      "velocity": 117,
      "chip": "ym2612"
    },
    {
      "channel": 1,
      "note": 58,
      "start": 2.9063,
      "duration": 0.0144,
      "velocity": 117,
      "chip": "ym2612"
    },
    {
      "channel": 2,
      "note": 77,
      "start": 2.9064,
      "duration": 0.0024,
      "velocity": 111,
      "chip": "ym2612"
    },
    {
      "channel": 3,
      "note": 65,
      "start": 2.9067,
      "duration": 0.0143,
      "velocity": 123,
      "chip": "ym2612"
    },
    {
      "channel": 4,
      "note": 45,
      "start": 2.9071,
      "duration": 0.0034,
      "velocity": 118,
      "chip": "ym2612"
    },
    {
      "channel": 2,
      "note": 70,
      "start": 2.909,
      "duration": 0.0013,
      "velocity": 111,
      "chip": "ym2612"
    },
    {
      "channel": 0,
      "note": 40,
      "start": 2.9102,
      "duration": 0.0021,
      "velocity": 117,
      "chip": "ym2612"
    },
    {
      "channel": 2,
      "note": 70,
      "start": 2.9104,
      "duration": 0.0104,
      "velocity": 111,
      "chip": "ym2612"
    },
    {
      "channel": 4,
      "note": 40,
      "start": 2.9107,
      "duration": 0.0019,
      "velocity": 118,
      "chip": "ym2612"
    },
    {
      "channel": 0,
      "note": 43,
      "start": 2.9125,
      "duration": 0.001,
      "velocity": 117,
      "chip": "ym2612"
    },
    {
      "channel": 4,
      "note": 43,
      "start": 2.9127,
      "duration": 0.001,
      "velocity": 118,
      "chip": "ym2612"
    },
    {
      "channel": 0,
      "note": 46,
      "start": 2.9137,
      "duration": 0.0022,
      "velocity": 117,
      "chip": "ym2612"
    },
    {
      "channel": 4,
      "note": 46,
      "start": 2.914,
      "duration": 0.0022,
      "velocity": 118,
      "chip": "ym2612"
    },
    {
      "channel": 0,
      "note": 43,
      "start": 2.9161,
      "duration": 0.0012,
      "velocity": 117,
      "chip": "ym2612"
    },
    {
      "channel": 4,
      "note": 43,
      "start": 2.9164,
      "duration": 0.0011,
      "velocity": 118,
      "chip": "ym2612"
    },
    {
      "channel": 0,
      "note": 42,
      "start": 2.9175,
      "duration": 0.0013,
      "velocity": 117,
      "chip": "ym2612"
    },
    {
      "channel": 4,
      "note": 42,
      "start": 2.9177,
      "duration": 0.0014,
      "velocity": 118,
      "chip": "ym2612"
    },
    {
      "channel": 0,
      "note": 43,
      "start": 2.919,
      "duration": 0.0014,
      "velocity": 117,
      "chip": "ym2612"
    },
    {
      "channel": 4,
      "note": 43,
      "start": 2.9193,
      "duration": 0.002,
      "velocity": 118,
      "chip": "ym2612"
    },
    {
      "channel": 0,
      "note": 45,
      "start": 2.9206,
      "duration": 0.0035,
      "velocity": 117,
      "chip": "ym2612"
    },
    {
      "channel": 1,
      "note": 57,
      "start": 2.9207,
      "duration": 0.0139,
      "velocity": 117,
      "chip": "ym2612"
    },
    {
      "channel": 2,
      "note": 69,
      "start": 2.921,
      "duration": 0.0068,
      "velocity": 111,
      "chip": "ym2612"
    },
    {
      "channel": 3,
      "note": 64,
      "start": 2.9212,
      "duration": 0.0139,
      "velocity": 123,
      "chip": "ym2612"
    },
    {
      "channel": 4,
      "note": 45,
      "start": 2.9216,
      "duration": 0.0027,
      "velocity": 118,
      "chip": "ym2612"
    },
    {
      "channel": 0,
      "note": 40,
      "start": 2.9242,
      "duration": 0.002,
      "velocity": 117,
      "chip": "ym2612"
    },
    {
      "channel": 4,
      "note": 40,
      "start": 2.9245,
      "duration": 0.002,
      "velocity": 118,
      "chip": "ym2612"
    },
    {
      "channel": 0,
      "note": 43,
      "start": 2.9264,
      "duration": 0.0012,
      "velocity": 117,
      "chip": "ym2612"
    },
    {
      "channel": 4,
      "note": 43,
      "start": 2.9267,
      "duration": 0.0014,
      "velocity": 118,
      "chip": "ym2612"
    },
    {
      "channel": 0,
      "note": 40,
      "start": 2.9277,
      "duration": 0.0022,
      "velocity": 117,
      "chip": "ym2612"
    },
    {
      "channel": 2,
      "note": 76,
      "start": 2.928,
      "duration": 0.007,
      "velocity": 111,
      "chip": "ym2612"
    },
    {
      "channel": 4,
      "note": 40,
      "start": 2.9282,
      "duration": 0.002,
      "velocity": 118,
      "chip": "ym2612"
    },
    {
      "channel": 0,
      "note": 43,
      "start": 2.9301,
      "duration": 0.0011,
      "velocity": 117,
      "chip": "ym2612"
    },
    {
      "channel": 4,
      "note": 43,
      "start": 2.9304,
      "duration": 0.001,
      "velocity": 118,
      "chip": "ym2612"
    },
    {
      "channel": 0,
      "note": 46,
      "start": 2.9313,
      "duration": 0.0018,
      "velocity": 117,
      "chip": "ym2612"
    },
    {
      "channel": 4,
      "note": 46,
      "start": 2.9315,
      "duration": 0.0019,
      "velocity": 118,
      "chip": "ym2612"
    },
    {
      "channel": 0,
      "note": 43,
      "start": 2.9333,
      "duration": 0.0011,
      "velocity": 117,
      "chip": "ym2612"
    },
    {
      "channel": 4,
      "note": 43,
      "start": 2.9336,
      "duration": 0.0018,
      "velocity": 118,
      "chip": "ym2612"
    },
    {
      "channel": 0,
      "note": 45,
      "start": 2.9346,
      "duration": 0.004,
      "velocity": 117,
      "chip": "ym2612"
    },
    {
      "channel": 1,
      "note": 58,
      "start": 2.9348,
      "duration": 0.0108,
      "velocity": 117,
      "chip": "ym2612"
    },
    {
      "channel": 2,
      "note": 74,
      "start": 2.9351,
      "duration": 0.0023,
      "velocity": 111,
      "chip": "ym2612"
    },
    {
      "channel": 3,
      "note": 62,
      "start": 2.9353,
      "duration": 0.0108,
      "velocity": 123,
      "chip": "ym2612"
    },
    {
      "channel": 4,
      "note": 45,
      "start": 2.9356,
      "duration": 0.0035,
      "velocity": 118,
      "chip": "ym2612"
    },
    {
      "channel": 2,
      "note": 77,
      "start": 2.9374,
      "duration": 0.0014,
      "velocity": 111,
      "chip": "ym2612"
    },
    {
      "channel": 0,
      "note": 40,
      "start": 2.9388,
      "duration": 0.0022,
      "velocity": 117,
      "chip": "ym2612"
    },
    {
      "channel": 2,
      "note": 77,
      "start": 2.939,
      "duration": 0.0068,
      "velocity": 111,
      "chip": "ym2612"
    },
    {
      "channel": 4,
      "note": 40,
      "start": 2.9393,
      "duration": 0.002,
      "velocity": 118,
      "chip": "ym2612"
    },
    {
      "channel": 0,
      "note": 43,
      "start": 2.9412,
      "duration": 0.001,
      "velocity": 117,
      "chip": "ym2612"
    },
    {
      "channel": 4,
      "note": 43,
      "start": 2.9415,
      "duration": 0.001,
      "velocity": 118,
      "chip": "ym2612"
    },
    {
      "channel": 0,
      "note": 46,
      "start": 2.9424,
      "duration": 0.0017,
      "velocity": 117,
      "chip": "ym2612"
    },
    {
      "channel": 4,
      "note": 46,
      "start": 2.9426,
      "duration": 0.0018,
      "velocity": 118,
      "chip": "ym2612"
    },
    {
      "channel": 0,
      "note": 43,
      "start": 2.9444,
      "duration": 0.001,
      "velocity": 117,
      "chip": "ym2612"
    },
    {
      "channel": 4,
      "note": 43,
      "start": 2.9446,
      "duration": 0.0017,
      "velocity": 118,
      "chip": "ym2612"
    },
    {
      "channel": 0,
      "note": 42,
      "start": 2.9456,
      "duration": 0.0025,
      "velocity": 117,
      "chip": "ym2612"
    },
    {
      "channel": 1,
      "note": 56,
      "start": 2.9458,
      "duration": 0.0041,
      "velocity": 117,
      "chip": "ym2612"
    },
    {
      "channel": 2,
      "note": 75,
      "start": 2.946,
      "duration": 0.0042,
      "velocity": 111,
      "chip": "ym2612"
    },
    {
      "channel": 3,
      "note": 63,
      "start": 2.9463,
      "duration": 0.0042,
      "velocity": 123,
      "chip": "ym2612"
    },
    {
      "channel": 4,
      "note": 42,
      "start": 2.9466,
      "duration": 0.0018,
      "velocity": 118,
      "chip": "ym2612"
    },
    {
      "channel": 0,
      "note": 43,
      "start": 2.9483,
      "duration": 0.0014,
      "velocity": 117,
      "chip": "ym2612"
    },
    {
      "channel": 4,
      "note": 43,
      "start": 2.9486,
      "duration": 0.0021,
      "velocity": 118,
      "chip": "ym2612"
    },
    {
      "channel": 0,
      "note": 45,
      "start": 2.9499,
      "duration": 0.0042,
      "velocity": 117,
      "chip": "ym2612"
    },
    {
      "channel": 1,
      "note": 57,
      "start": 2.9501,
      "duration": 0.0026,
      "velocity": 117,
      "chip": "ym2612"
    },
    {
      "channel": 2,
      "note": 76,
      "start": 2.9504,
      "duration": 0.0024,
      "velocity": 111,
      "chip": "ym2612"
    },
    {
      "channel": 3,
      "note": 60,
      "start": 2.9506,
      "duration": 0.0023,
      "velocity": 123,
      "chip": "ym2612"
    },
    {
      "channel": 4,
      "note": 45,
      "start": 2.9509,
      "duration": 0.0045,
      "velocity": 118,
      "chip": "ym2612"
    },
    {
      "channel": 0,
      "note": 40,
      "start": 2.9543,
      "duration": 0.003,
      "velocity": 117,
      "chip": "ym2612"
    },
    {
      "channel": 1,
      "note": 40,
      "start": 2.9551,
      "duration": 0.0024,
      "velocity": 114,
      "chip": "ym2612"
    },
    {
      "channel": 4,
      "note": 40,
      "start": 2.9557,
      "duration": 0.0021,
      "velocity": 118,
      "chip": "ym2612"
    },
    {
      "channel": 0,
      "note": 43,
      "start": 2.9574,
      "duration": 0.0014,
      "velocity": 117,
      "chip": "ym2612"
    },
    {
      "channel": 1,
      "note": 43,
      "start": 2.9577,
      "duration": 0.0013,
      "velocity": 114,
      "chip": "ym2612"
    },
    {
      "channel": 4,
      "note": 43,
      "start": 2.9579,
      "duration": 0.0014,
      "velocity": 118,
      "chip": "ym2612"
    },
    {
      "channel": 0,
      "note": 40,
      "start": 2.959,
      "duration": 0.0015,
      "velocity": 117,
      "chip": "ym2612"
    },
    {
      "channel": 1,
      "note": 40,
      "start": 2.9592,
      "duration": 0.0015,
      "velocity": 114,
      "chip": "ym2612"
    },
    {
      "channel": 4,
      "note": 40,
      "start": 2.9595,
      "duration": 0.0015,
      "velocity": 118,
      "chip": "ym2612"
    },
    {
      "channel": 0,
      "note": 43,
      "start": 2.9606,
      "duration": 0.0011,
      "velocity": 117,
      "chip": "ym2612"
    },
    {
      "channel": 1,
      "note": 43,
      "start": 2.961,
      "duration": 0.001,
      "velocity": 114,
      "chip": "ym2612"
    },
    {
      "channel": 4,
      "note": 43,
      "start": 2.9612,
      "duration": 0.001,
      "velocity": 118,
      "chip": "ym2612"
    },
    {
      "channel": 0,
      "note": 46,
      "start": 2.9619,
      "duration": 0.0017,
      "velocity": 117,
      "chip": "ym2612"
    },
    {
      "channel": 1,
      "note": 46,
      "start": 2.9622,
      "duration": 0.0017,
      "velocity": 114,
      "chip": "ym2612"
    },
    {
      "channel": 4,
      "note": 46,
      "start": 2.9624,
      "duration": 0.0018,
      "velocity": 118,
      "chip": "ym2612"
    },
    {
      "channel": 0,
      "note": 43,
      "start": 2.9638,
      "duration": 0.0015,
      "velocity": 117,
      "chip": "ym2612"
    },
    {
      "channel": 1,
      "note": 43,
      "start": 2.9641,
      "duration": 0.0014,
      "velocity": 114,
      "chip": "ym2612"
    },
    {
      "channel": 4,
      "note": 43,
      "start": 2.9643,
      "duration": 0.0016,
      "velocity": 118,
      "chip": "ym2612"
    },
    {
      "channel": 0,
      "note": 45,
      "start": 2.9654,
      "duration": 0.0032,
      "velocity": 117,
      "chip": "ym2612"
    },
    {
      "channel": 1,
      "note": 45,
      "start": 2.9656,
      "duration": 0.0033,
      "velocity": 114,
      "chip": "ym2612"
    },
    {
      "channel": 4,
      "note": 45,
      "start": 2.9661,
      "duration": 0.0033,
      "velocity": 118,
      "chip": "ym2612"
    },
    {
      "channel": 0,
      "note": 40,
      "start": 2.9689,
      "duration": 0.0025,
      "velocity": 117,
      "chip": "ym2612"
    },
    {
      "channel": 1,
      "note": 40,
      "start": 2.9692,
      "duration": 0.0025,
      "velocity": 114,
      "chip": "ym2612"
    },
    {
      "channel": 4,
      "note": 40,
      "start": 2.9696,
      "duration": 0.0024,
      "velocity": 118,
      "chip": "ym2612"
    },
    {
      "channel": 0,
      "note": 43,
      "start": 2.9716,
      "duration": 0.0014,
      "velocity": 117,
      "chip": "ym2612"
    },
    {
      "channel": 1,
      "note": 43,
      "start": 2.9719,
      "duration": 0.0013,
      "velocity": 114,
      "chip": "ym2612"
    },
    {
      "channel": 4,
      "note": 43,
      "start": 2.9721,
      "duration": 0.0013,
      "velocity": 118,
      "chip": "ym2612"
    },
    {
      "channel": 0,
      "note": 46,
      "start": 2.9731,
      "duration": 0.0021,
      "velocity": 117,
      "chip": "ym2612"
    },
    {
      "channel": 1,
      "note": 46,
      "start": 2.9734,
      "duration": 0.0021,
      "velocity": 114,
      "chip": "ym2612"
    },
    {
      "channel": 4,
      "note": 46,
      "start": 2.9737,
      "duration": 0.002,
      "velocity": 118,
      "chip": "ym2612"
    },
    {
      "channel": 0,
      "note": 43,
      "start": 2.9754,
      "duration": 0.0014,
      "velocity": 117,
      "chip": "ym2612"
    },
    {
      "channel": 1,
      "note": 43,
      "start": 2.9756,
      "duration": 0.0013,
      "velocity": 114,
      "chip": "ym2612"
    },
    {
      "channel": 4,
      "note": 43,
      "start": 2.9759,
      "duration": 0.0014,
      "velocity": 118,
      "chip": "ym2612"
    },
    {
      "channel": 0,
      "note": 42,
      "start": 2.9769,
      "duration": 0.0017,
      "velocity": 117,
      "chip": "ym2612"
    },
    {
      "channel": 1,
      "note": 42,
      "start": 2.9771,
      "duration": 0.0017,
      "velocity": 114,
      "chip": "ym2612"
    },
    {
      "channel": 4,
      "note": 42,
      "start": 2.9774,
      "duration": 0.0017,
      "velocity": 118,
      "chip": "ym2612"
    },
    {
      "channel": 0,
      "note": 43,
      "start": 2.9787,
      "duration": 0.0016,
      "velocity": 117,
      "chip": "ym2612"
    },
    {
      "channel": 1,
      "note": 43,
      "start": 2.979,
      "duration": 0.0016,
      "velocity": 114,
      "chip": "ym2612"
    },
    {
      "channel": 4,
      "note": 43,
      "start": 2.9793,
      "duration": 0.0017,
      "velocity": 118,
      "chip": "ym2612"
    },
    {
      "channel": 0,
      "note": 45,
      "start": 2.9805,
      "duration": 0.0034,
      "velocity": 117,
      "chip": "ym2612"
    },
    {
      "channel": 1,
      "note": 45,
      "start": 2.9808,
      "duration": 0.0034,
      "velocity": 114,
      "chip": "ym2612"
    },
    {
      "channel": 4,
      "note": 45,
      "start": 2.9812,
      "duration": 0.0034,
      "velocity": 118,
      "chip": "ym2612"
    },
    {
      "channel": 0,
      "note": 40,
      "start": 2.9841,
      "duration": 0.0023,
      "velocity": 117,
      "chip": "ym2612"
    },
    {
      "channel": 1,
      "note": 40,
      "start": 2.9844,
      "duration": 0.0023,
      "velocity": 114,
      "chip": "ym2612"
    },
    {
      "channel": 4,
      "note": 40,
      "start": 2.9849,
      "duration": 0.0021,
      "velocity": 118,
      "chip": "ym2612"
    },
    {
      "channel": 0,
      "note": 43,
      "start": 2.9866,
      "duration": 0.0014,
      "velocity": 117,
      "chip": "ym2612"
    },
    {
      "channel": 1,
      "note": 43,
      "start": 2.9869,
      "duration": 0.0013,
      "velocity": 114,
      "chip": "ym2612"
    },
    {
      "channel": 4,
      "note": 43,
      "start": 2.9871,
      "duration": 0.0014,
      "velocity": 118,
      "chip": "ym2612"
    },
    {
      "channel": 0,
      "note": 40,
      "start": 2.9881,
      "duration": 0.002,
      "velocity": 117,
      "chip": "ym2612"
    },
    {
      "channel": 1,
      "note": 40,
      "start": 2.9884,
      "duration": 0.0021,
      "velocity": 114,
      "chip": "ym2612"
    },
    {
      "channel": 4,
      "note": 40,
      "start": 2.9887,
      "duration": 0.0021,
      "velocity": 118,
      "chip": "ym2612"
    },
    {
      "channel": 0,
      "note": 43,
      "start": 2.9903,
      "duration": 0.0011,
      "velocity": 117,
      "chip": "ym2612"
    },
    {
      "channel": 1,
      "note": 43,
      "start": 2.9907,
      "duration": 0.001,
      "velocity": 114,
      "chip": "ym2612"
    },
    {
      "channel": 4,
      "note": 43,
      "start": 2.9909,
      "duration": 0.001,
      "velocity": 118,
      "chip": "ym2612"
    },
    {
      "channel": 0,
      "note": 46,
      "start": 2.9916,
      "duration": 0.0017,
      "velocity": 117,
      "chip": "ym2612"
    },
    {
      "channel": 1,
      "note": 46,
      "start": 2.9919,
      "duration": 0.0017,
      "velocity": 114,
      "chip": "ym2612"
    },
    {
      "channel": 4,
      "note": 46,
      "start": 2.9921,
      "duration": 0.0018,
      "velocity": 118,
      "chip": "ym2612"
    },
    {
      "channel": 0,
      "note": 43,
      "start": 2.9935,
      "duration": 0.0015,
      "velocity": 117,
      "chip": "ym2612"
    },
    {
      "channel": 1,
      "note": 43,
      "start": 2.9938,
      "duration": 0.0014,
      "velocity": 114,
      "chip": "ym2612"
    },
    {
      "channel": 4,
      "note": 43,
      "start": 2.994,
      "duration": 0.0016,
      "velocity": 118,
      "chip": "ym2612"
    },
    {
      "channel": 0,
      "note": 45,
      "start": 2.9951,
      "duration": 0.0032,
      "velocity": 117,
      "chip": "ym2612"
    },
    {
      "channel": 1,
      "note": 45,
      "start": 2.9954,
      "duration": 0.0032,
      "velocity": 114,
      "chip": "ym2612"
    },
    {
      "channel": 4,
      "note": 45,
      "start": 2.9958,
      "duration": 0.0032,
      "velocity": 118,
      "chip": "ym2612"
    },
    {
      "channel": 0,
      "note": 40,
      "start": 2.9985,
      "duration": 0.0024,
      "velocity": 117,
      "chip": "ym2612"
    },
    {
      "channel": 1,
      "note": 40,
      "start": 2.9988,
      "duration": 0.0024,
      "velocity": 114,
      "chip": "ym2612"
    },
    {
      "channel": 4,
      "note": 40,
      "start": 2.9992,
      "duration": 0.0024,
      "velocity": 118,
      "chip": "ym2612"
    },
    {
      "channel": 0,
      "note": 43,
      "start": 3.0011,
      "duration": 0.0015,
      "velocity": 117,
      "chip": "ym2612"
    },
    {
      "channel": 1,
      "note": 43,
      "start": 3.0015,
      "duration": 0.0013,
      "velocity": 114,
      "chip": "ym2612"
    },
    {
      "channel": 4,
      "note": 43,
      "start": 3.0018,
      "duration": 0.0013,
      "velocity": 118,
      "chip": "ym2612"
    },
    {
      "channel": 0,
      "note": 46,
      "start": 3.0028,
      "duration": 0.0014,
      "velocity": 117,
      "chip": "ym2612"
    },
    {
      "channel": 1,
      "note": 46,
      "start": 3.003,
      "duration": 0.0014,
      "velocity": 114,
      "chip": "ym2612"
    },
    {
      "channel": 4,
      "note": 46,
      "start": 3.0033,
      "duration": 0.0014,
      "velocity": 118,
      "chip": "ym2612"
    },
    {
      "channel": 0,
      "note": 43,
      "start": 3.0043,
      "duration": 0.0015,
      "velocity": 117,
      "chip": "ym2612"
    },
    {
      "channel": 1,
      "note": 43,
      "start": 3.0046,
      "duration": 0.0014,
      "velocity": 114,
      "chip": "ym2612"
    },
    {
      "channel": 4,
      "note": 43,
      "start": 3.0049,
      "duration": 0.0013,
      "velocity": 118,
      "chip": "ym2612"
    },
    {
      "channel": 0,
      "note": 42,
      "start": 3.0059,
      "duration": 0.0015,
      "velocity": 117,
      "chip": "ym2612"
    },
    {
      "channel": 1,
      "note": 42,
      "start": 3.0062,
      "duration": 0.0016,
      "velocity": 114,
      "chip": "ym2612"
    },
    {
      "channel": 4,
      "note": 42,
      "start": 3.0064,
      "duration": 0.0016,
      "velocity": 118,
      "chip": "ym2612"
    },
    {
      "channel": 0,
      "note": 43,
      "start": 3.0077,
      "duration": 0.0016,
      "velocity": 117,
      "chip": "ym2612"
    },
    {
      "channel": 1,
      "note": 43,
      "start": 3.0079,
      "duration": 0.0022,
      "velocity": 117,
      "chip": "ym2612"
    },
    {
      "channel": 4,
      "note": 43,
      "start": 3.0083,
      "duration": 0.0024,
      "velocity": 118,
      "chip": "ym2612"
    },
    {
      "channel": 0,
      "note": 45,
      "start": 3.0095,
      "duration": 0.0041,
      "velocity": 117,
      "chip": "ym2612"
    },
    {
      "channel": 1,
      "note": 57,
      "start": 3.0103,
      "duration": 0.0147,
      "velocity": 117,
      "chip": "ym2612"
    },
    {
      "channel": 2,
      "note": 69,
      "start": 3.0105,
      "duration": 0.0073,
      "velocity": 111,
      "chip": "ym2612"
    },
    {
      "channel": 4,
      "note": 45,
      "start": 3.0108,
      "duration": 0.0032,
      "velocity": 118,
      "chip": "ym2612"
    },
    {
      "channel": 0,
      "note": 40,
      "start": 3.0138,
      "duration": 0.0024,
      "velocity": 117,
      "chip": "ym2612"
    },
    {
      "channel": 4,
      "note": 40,
      "start": 3.0142,
      "duration": 0.0023,
      "velocity": 118,
      "chip": "ym2612"
    },
    {
      "channel": 0,
      "note": 43,
      "start": 3.0163,
      "duration": 0.0012,
      "velocity": 117,
      "chip": "ym2612"
    },
    {
      "channel": 4,
      "note": 43,
      "start": 3.0167,
      "duration": 0.0013,
      "velocity": 118,
      "chip": "ym2612"
    },
    {
      "channel": 0,
      "note": 40,
      "start": 3.0177,
      "duration": 0.0022,
      "velocity": 117,
      "chip": "ym2612"
    },
    {
      "channel": 2,
      "note": 76,
      "start": 3.018,
      "duration": 0.0072,
      "velocity": 111,
      "chip": "ym2612"
    },
    {
      "channel": 4,
      "note": 40,
      "start": 3.0182,
      "duration": 0.002,
      "velocity": 118,
      "chip": "ym2612"
    },
    {
      "channel": 0,
      "note": 43,
      "start": 3.0201,
      "duration": 0.0012,
      "velocity": 117,
      "chip": "ym2612"
    },
    {
      "channel": 4,
      "note": 43,
      "start": 3.0205,
      "duration": 0.0011,
      "velocity": 118,
      "chip": "ym2612"
    },
    {
      "channel": 0,
      "note": 46,
      "start": 3.0215,
      "duration": 0.0019,
      "velocity": 117,
      "chip": "ym2612"
    },
    {
      "channel": 4,
      "note": 46,
      "start": 3.0217,
      "duration": 0.002,
      "velocity": 118,
      "chip": "ym2612"
    },
    {
      "channel": 0,
      "note": 43,
      "start": 3.0236,
      "duration": 0.0012,
      "velocity": 117,
      "chip": "ym2612"
    },
    {
      "channel": 4,
      "note": 43,
      "start": 3.0239,
      "duration": 0.0016,
      "velocity": 118,
      "chip": "ym2612"
    },
    {
      "channel": 0,
      "note": 45,
      "start": 3.0249,
      "duration": 0.004,
      "velocity": 117,
      "chip": "ym2612"
    },
    {
      "channel": 1,
      "note": 58,
      "start": 3.0251,
      "duration": 0.0145,
      "velocity": 117,
      "chip": "ym2612"
    },
    {
      "channel": 2,
      "note": 77,
      "start": 3.0253,
      "duration": 0.0024,
      "velocity": 111,
      "chip": "ym2612"
    },
    {
      "channel": 4,
      "note": 45,
      "start": 3.0259,
      "duration": 0.0037,
      "velocity": 118,
      "chip": "ym2612"
    },
    {
      "channel": 2,
      "note": 70,
      "start": 3.0278,
      "duration": 0.0013,
      "velocity": 111,
      "chip": "ym2612"
    },
    {
      "channel": 0,
      "note": 40,
      "start": 3.0291,
      "duration": 0.0023,
      "velocity": 117,
      "chip": "ym2612"
    },
    {
      "channel": 2,
      "note": 70,
      "start": 3.0293,
      "duration": 0.0105,
      "velocity": 111,
      "chip": "ym2612"
    },
    {
      "channel": 4,
      "note": 40,
      "start": 3.0297,
      "duration": 0.002,
      "velocity": 118,
      "chip": "ym2612"
    },
    {
      "channel": 0,
      "note": 43,
      "start": 3.0316,
      "duration": 0.0012,
      "velocity": 117,
      "chip": "ym2612"
    },
    {
      "channel": 4,
      "note": 43,
      "start": 3.0319,
      "duration": 0.0012,
      "velocity": 118,
      "chip": "ym2612"
    },
    {
      "channel": 0,
      "note": 46,
      "start": 3.033,
      "duration": 0.002,
      "velocity": 117,
      "chip": "ym2612"
    },
    {
      "channel": 4,
      "note": 46,
      "start": 3.0333,
      "duration": 0.0019,
      "velocity": 118,
      "chip": "ym2612"
    },
    {
      "channel": 0,
      "note": 43,
      "start": 3.0351,
      "duration": 0.0012,
      "velocity": 117,
      "chip": "ym2612"
    },
    {
      "channel": 4,
      "note": 43,
      "start": 3.0354,
      "duration": 0.0011,
      "velocity": 118,
      "chip": "ym2612"
    },
    {
      "channel": 0,
      "note": 42,
      "start": 3.0364,
      "duration": 0.0014,
      "velocity": 117,
      "chip": "ym2612"
    },
    {
      "channel": 4,
      "note": 42,
      "start": 3.0368,
      "duration": 0.0014,
      "velocity": 118,
      "chip": "ym2612"
    },
    {
      "channel": 0,
      "note": 43,
      "start": 3.038,
      "duration": 0.0014,
      "velocity": 117,
      "chip": "ym2612"
    },
    {
      "channel": 4,
      "note": 43,
      "start": 3.0383,
      "duration": 0.0017,
      "velocity": 118,
      "chip": "ym2612"
    },
    {
      "channel": 0,
      "note": 45,
      "start": 3.0396,
      "duration": 0.0033,
      "velocity": 117,
      "chip": "ym2612"
    },
    {
      "channel": 1,
      "note": 60,
      "start": 3.0398,
      "duration": 0.0136,
      "velocity": 117,
      "chip": "ym2612"
    },
    {
      "channel": 2,
      "note": 69,
      "start": 3.04,
      "duration": 0.0066,
      "velocity": 111,
      "chip": "ym2612"
    },
    {
      "channel": 4,
      "note": 45,
      "start": 3.0403,
      "duration": 0.0029,
      "velocity": 118,
      "chip": "ym2612"
    },
    {
      "channel": 0,
      "note": 40,
      "start": 3.0431,
      "duration": 0.0023,
      "velocity": 117,
      "chip": "ym2612"
    },
    {
      "channel": 4,
      "note": 40,
      "start": 3.0435,
      "duration": 0.0022,
      "velocity": 118,
      "chip": "ym2612"
    },
    {
      "channel": 0,
      "note": 43,
      "start": 3.0455,
      "duration": 0.0008,
      "velocity": 117,
      "chip": "ym2612"
    },
    {
      "channel": 4,
      "note": 43,
      "start": 3.0459,
      "duration": 0.0009,
      "velocity": 118,
      "chip": "ym2612"
    },
    {
      "channel": 0,
      "note": 40,
      "start": 3.0465,
      "duration": 0.0019,
      "velocity": 117,
      "chip": "ym2612"
    },
    {
      "channel": 2,
      "note": 76,
      "start": 3.0467,
      "duration": 0.0068,
      "velocity": 111,
      "chip": "ym2612"
    },
    {
      "channel": 4,
      "note": 40,
      "start": 3.047,
      "duration": 0.0017,
      "velocity": 118,
      "chip": "ym2612"
    },
    {
      "channel": 0,
      "note": 43,
      "start": 3.0486,
      "duration": 0.0012,
      "velocity": 117,
      "chip": "ym2612"
    },
    {
      "channel": 4,
      "note": 43,
      "start": 3.0489,
      "duration": 0.0012,
      "velocity": 118,
      "chip": "ym2612"
    },
    {
      "channel": 0,
      "note": 46,
      "start": 3.05,
      "duration": 0.0017,
      "velocity": 117,
      "chip": "ym2612"
    },
    {
      "channel": 4,
      "note": 46,
      "start": 3.0502,
      "duration": 0.0018,
      "velocity": 118,
      "chip": "ym2612"
    },
    {
      "channel": 0,
      "note": 43,
      "start": 3.0519,
      "duration": 0.0012,
      "velocity": 117,
      "chip": "ym2612"
    },
    {
      "channel": 4,
      "note": 43,
      "start": 3.0522,
      "duration": 0.0017,
      "velocity": 118,
      "chip": "ym2612"
    },
    {
      "channel": 0,
      "note": 45,
      "start": 3.0533,
      "duration": 0.0041,
      "velocity": 117,
      "chip": "ym2612"
    },
    {
      "channel": 1,
      "note": 62,
      "start": 3.0535,
      "duration": 0.0146,
      "velocity": 117,
      "chip": "ym2612"
    },
    {
      "channel": 2,
      "note": 74,
      "start": 3.0537,
      "duration": 0.0024,
      "velocity": 111,
      "chip": "ym2612"
    },
    {
      "channel": 4,
      "note": 45,
      "start": 3.0542,
      "duration": 0.0038,
      "velocity": 118,
      "chip": "ym2612"
    },
    {
      "channel": 2,
      "note": 77,
      "start": 3.0563,
      "duration": 0.0014,
      "velocity": 111,
      "chip": "ym2612"
    },
    {
      "channel": 0,
      "note": 40,
      "start": 3.0576,
      "duration": 0.0025,
      "velocity": 117,
      "chip": "ym2612"
    },
    {
      "channel": 2,
      "note": 77,
      "start": 3.0579,
      "duration": 0.0105,
      "velocity": 111,
      "chip": "ym2612"
    },
    {
      "channel": 4,
      "note": 40,
      "start": 3.0583,
      "duration": 0.0022,
      "velocity": 118,
      "chip": "ym2612"
    },
    {
      "channel": 0,
      "note": 43,
      "start": 3.0603,
      "duration": 0.0009,
      "velocity": 117,
      "chip": "ym2612"
    },
    {
      "channel": 4,
      "note": 43,
      "start": 3.0607,
      "duration": 0.0007,
      "velocity": 118,
      "chip": "ym2612"
    },
    {
      "channel": 0,
      "note": 46,
      "start": 3.0613,
      "duration": 0.0018,
      "velocity": 117,
      "chip": "ym2612"
    },
    {
      "channel": 4,
      "note": 46,
      "start": 3.0616,
      "duration": 0.0018,
      "velocity": 118,
      "chip": "ym2612"
    },
    {
      "channel": 0,
      "note": 43,
      "start": 3.0633,
      "duration": 0.0013,
      "velocity": 117,
      "chip": "ym2612"
    },
    {
      "channel": 4,
      "note": 43,
      "start": 3.0636,
      "duration": 0.0012,
      "velocity": 118,
      "chip": "ym2612"
    },
    {
      "channel": 0,
      "note": 42,
      "start": 3.0647,
      "duration": 0.0014,
      "velocity": 117,
      "chip": "ym2612"
    },
    {
      "channel": 4,
      "note": 42,
      "start": 3.0651,
      "duration": 0.0014,
      "velocity": 118,
      "chip": "ym2612"
    },
    {
      "channel": 0,
      "note": 43,
      "start": 3.0663,
      "duration": 0.0016,
      "velocity": 117,
      "chip": "ym2612"
    },
    {
      "channel": 4,
      "note": 43,
      "start": 3.0666,
      "duration": 0.0022,
      "velocity": 118,
      "chip": "ym2612"
    },
    {
      "channel": 0,
      "note": 45,
      "start": 3.0681,
      "duration": 0.0039,
      "velocity": 117,
      "chip": "ym2612"
    },
    {
      "channel": 1,
      "note": 64,
      "start": 3.0683,
      "duration": 0.0076,
      "velocity": 117,
      "chip": "ym2612"
    },
    {
      "channel": 2,
      "note": 69,
      "start": 3.0685,
      "duration": 0.0076,
      "velocity": 111,
      "chip": "ym2612"
    },
    {
      "channel": 4,
      "note": 45,
      "start": 3.0691,
      "duration": 0.0032,
      "velocity": 118,
      "chip": "ym2612"
    },
    {
      "channel": 0,
      "note": 40,
      "start": 3.0722,
      "duration": 0.0022,
      "velocity": 117,
      "chip": "ym2612"
    },
    {
      "channel": 4,
      "note": 40,
      "start": 3.0725,
      "duration": 0.0022,
      "velocity": 118,
      "chip": "ym2612"
    },
    {
      "channel": 0,
      "note": 43,
      "start": 3.0745,
      "duration": 0.0012,
      "velocity": 117,
      "chip": "ym2612"
    },
    {
      "channel": 4,
      "note": 43,
      "start": 3.0749,
      "duration": 0.0014,
      "velocity": 118,
      "chip": "ym2612"
    },
    {
      "channel": 0,
      "note": 40,
      "start": 3.0759,
      "duration": 0.0024,
      "velocity": 117,
      "chip": "ym2612"
    },
    {
      "channel": 1,
      "note": 64,
      "start": 3.0761,
      "duration": 0.0076,
      "velocity": 117,
      "chip": "ym2612"
    },
    {
      "channel": 2,
      "note": 76,
      "start": 3.0763,
      "duration": 0.0077,
      "velocity": 111,
      "chip": "ym2612"
    },
    {
      "channel": 4,
      "note": 40,
      "start": 3.0765,
      "duration": 0.0021,
      "velocity": 118,
      "chip": "ym2612"
    },
    {
      "channel": 0,
      "note": 43,
      "start": 3.0785,
      "duration": 0.0013,
      "velocity": 117,
      "chip": "ym2612"
    },
    {
      "channel": 4,
      "note": 43,
      "start": 3.0788,
      "duration": 0.0014,
      "velocity": 118,
      "chip": "ym2612"
    },
    {
      "channel": 0,
      "note": 46,
      "start": 3.0799,
      "duration": 0.0022,
      "velocity": 117,
      "chip": "ym2612"
    },
    {
      "channel": 4,
      "note": 46,
      "start": 3.0805,
      "duration": 0.0019,
      "velocity": 118,
      "chip": "ym2612"
    },
    {
      "channel": 0,
      "note": 43,
      "start": 3.0823,
      "duration": 0.0012,
      "velocity": 117,
      "chip": "ym2612"
    },
    {
      "channel": 4,
      "note": 43,
      "start": 3.0826,
      "duration": 0.0017,
      "velocity": 118,
      "chip": "ym2612"
    },
    {
      "channel": 0,
      "note": 45,
      "start": 3.0837,
      "duration": 0.0041,
      "velocity": 117,
      "chip": "ym2612"
    },
    {
      "channel": 1,
      "note": 65,
      "start": 3.0839,
      "duration": 0.008,
      "velocity": 117,
      "chip": "ym2612"
    },
    {
      "channel": 2,
      "note": 77,
      "start": 3.0841,
      "duration": 0.0024,
      "velocity": 111,
      "chip": "ym2612"
    },
    {
      "channel": 4,
      "note": 45,
      "start": 3.0846,
      "duration": 0.0039,
      "velocity": 118,
      "chip": "ym2612"
    },
    {
      "channel": 2,
      "note": 70,
      "start": 3.0866,
      "duration": 0.0015,
      "velocity": 111,
      "chip": "ym2612"
    },
    {
      "channel": 0,
      "note": 40,
      "start": 3.088,
      "duration": 0.0025,
      "velocity": 117,
      "chip": "ym2612"
    },
    {
      "channel": 2,
      "note": 70,
      "start": 3.0883,
      "duration": 0.0104,
      "velocity": 111,
      "chip": "ym2612"
    },
    {
      "channel": 4,
      "note": 40,
      "start": 3.0887,
      "duration": 0.0021,
      "velocity": 118,
      "chip": "ym2612"
    },
    {
      "channel": 0,
      "note": 43,
      "start": 3.0907,
      "duration": 0.001,
      "velocity": 117,
      "chip": "ym2612"
    },
    {
      "channel": 4,
      "note": 43,
      "start": 3.091,
      "duration": 0.0012,
      "velocity": 118,
      "chip": "ym2612"
    },
    {
      "channel": 0,
      "note": 46,
      "start": 3.0919,
      "duration": 0.002,
      "velocity": 117,
      "chip": "ym2612"
    },
    {
      "channel": 1,
      "note": 62,
      "start": 3.0921,
      "duration": 0.0065,
      "velocity": 117,
      "chip": "ym2612"
    },
    {
      "channel": 4,
      "note": 46,
      "start": 3.0923,
      "duration": 0.0018,
      "velocity": 118,
      "chip": "ym2612"
    },
    {
      "channel": 0,
      "note": 43,
      "start": 3.0941,
      "duration": 0.0012,
      "velocity": 117,
      "chip": "ym2612"
    },
    {
      "channel": 4,
      "note": 43,
      "start": 3.0944,
      "duration": 0.0011,
      "velocity": 118,
      "chip": "ym2612"
    },
    {
      "channel": 0,
      "note": 42,
      "start": 3.0954,
      "duration": 0.0014,
      "velocity": 117,
      "chip": "ym2612"
    },
    {
      "channel": 4,
      "note": 42,
      "start": 3.0957,
      "duration": 0.0014,
      "velocity": 118,
      "chip": "ym2612"
    },
    {
      "channel": 0,
      "note": 43,
      "start": 3.097,
      "duration": 0.0014,
      "velocity": 117,
      "chip": "ym2612"
    },
    {
      "channel": 4,
      "note": 43,
      "start": 3.0973,
      "duration": 0.0017,
      "velocity": 118,
      "chip": "ym2612"
    },
    {
      "channel": 0,
      "note": 45,
      "start": 3.0985,
      "duration": 0.0033,
      "velocity": 117,
      "chip": "ym2612"
    },
    {
      "channel": 1,
      "note": 64,
      "start": 3.0987,
      "duration": 0.0068,
      "velocity": 117,
      "chip": "ym2612"
    },
    {
      "channel": 2,
      "note": 69,
      "start": 3.0989,
      "duration": 0.0069,
      "velocity": 111,
      "chip": "ym2612"
    },
    {
      "channel": 4,
      "note": 45,
      "start": 3.0993,
      "duration": 0.0029,
      "velocity": 118,
      "chip": "ym2612"
    },
    {
      "channel": 0,
      "note": 40,
      "start": 3.1021,
      "duration": 0.0023,
      "velocity": 117,
      "chip": "ym2612"
    },
    {
      "channel": 4,
      "note": 40,
      "start": 3.1024,
      "duration": 0.0022,
      "velocity": 118,
      "chip": "ym2612"
    },
    {
      "channel": 0,
      "note": 43,
      "start": 3.1045,
      "duration": 0.0008,
      "velocity": 117,
      "chip": "ym2612"
    },
    {
      "channel": 4,
      "note": 43,
      "start": 3.1048,
      "duration": 0.0012,
      "velocity": 118,
      "chip": "ym2612"
    },
    {
      "channel": 0,
      "note": 40,
      "start": 3.1055,
      "duration": 0.0023,
      "velocity": 117,
      "chip": "ym2612"
    },
    {
      "channel": 1,
      "note": 67,
      "start": 3.1057,
      "duration": 0.0071,
      "velocity": 117,
      "chip": "ym2612"
    },
    {
      "channel": 2,
      "note": 76,
      "start": 3.1059,
      "duration": 0.0071,
      "velocity": 111,
      "chip": "ym2612"
    },
    {
      "channel": 4,
      "note": 40,
      "start": 3.1062,
      "duration": 0.0018,
      "velocity": 118,
      "chip": "ym2612"
    },
    {
      "channel": 0,
      "note": 43,
      "start": 3.1079,
      "duration": 0.0012,
      "velocity": 117,
      "chip": "ym2612"
    },
    {
      "channel": 4,
      "note": 43,
      "start": 3.1082,
      "duration": 0.0012,
      "velocity": 118,
      "chip": "ym2612"
    },
    {
      "channel": 0,
      "note": 46,
      "start": 3.1093,
      "duration": 0.0019,
      "velocity": 117,
      "chip": "ym2612"
    },
    {
      "channel": 4,
      "note": 46,
      "start": 3.1096,
      "duration": 0.0018,
      "velocity": 118,
      "chip": "ym2612"
    },
    {
      "channel": 0,
      "note": 43,
      "start": 3.1113,
      "duration": 0.0012,
      "velocity": 117,
      "chip": "ym2612"
    },
    {
      "channel": 4,
      "note": 43,
      "start": 3.1117,
      "duration": 0.0017,
      "velocity": 118,
      "chip": "ym2612"
    },
    {
      "channel": 0,
      "note": 45,
      "start": 3.1128,
      "duration": 0.0041,
      "velocity": 117,
      "chip": "ym2612"
    },
    {
      "channel": 1,
      "note": 62,
      "start": 3.1129,
      "duration": 0.0083,
      "velocity": 117,
      "chip": "ym2612"
    },
    {
      "channel": 2,
      "note": 74,
      "start": 3.1131,
      "duration": 0.0024,
      "velocity": 111,
      "chip": "ym2612"
    },
    {
      "channel": 4,
      "note": 45,
      "start": 3.1136,
      "duration": 0.0039,
      "velocity": 118,
      "chip": "ym2612"
    },
    {
      "channel": 2,
      "note": 77,
      "start": 3.1156,
      "duration": 0.0015,
      "velocity": 111,
      "chip": "ym2612"
    },
    {
      "channel": 0,
      "note": 40,
      "start": 3.1171,
      "duration": 0.0025,
      "velocity": 117,
      "chip": "ym2612"
    },
    {
      "channel": 2,
      "note": 77,
      "start": 3.1174,
      "duration": 0.0109,
      "velocity": 111,
      "chip": "ym2612"
    },
    {
      "channel": 4,
      "note": 40,
      "start": 3.1177,
      "duration": 0.0021,
      "velocity": 118,
      "chip": "ym2612"
    },
    {
      "channel": 0,
      "note": 43,
      "start": 3.1197,
      "duration": 0.0013,
      "velocity": 117,
      "chip": "ym2612"
    },
    {
      "channel": 4,
      "note": 43,
      "start": 3.12,
      "duration": 0.0014,
      "velocity": 118,
      "chip": "ym2612"
    },
    {
      "channel": 0,
      "note": 46,
      "start": 3.1211,
      "duration": 0.002,
      "velocity": 117,
      "chip": "ym2612"
    },
    {
      "channel": 1,
      "note": 65,
      "start": 3.1213,
      "duration": 0.0067,
      "velocity": 117,
      "chip": "ym2612"
    },
    {
      "channel": 4,
      "note": 46,
      "start": 3.1215,
      "duration": 0.002,
      "velocity": 118,
      "chip": "ym2612"
    },
    {
      "channel": 0,
      "note": 43,
      "start": 3.1233,
      "duration": 0.0012,
      "velocity": 117,
      "chip": "ym2612"
    },
    {
      "channel": 4,
      "note": 43,
      "start": 3.1237,
      "duration": 0.0011,
      "velocity": 118,
      "chip": "ym2612"
    },
    {
      "channel": 0,
      "note": 42,
      "start": 3.1247,
      "duration": 0.0012,
      "velocity": 117,
      "chip": "ym2612"
    },
    {
      "channel": 4,
      "note": 42,
      "start": 3.1249,
      "duration": 0.0013,
      "velocity": 118,
      "chip": "ym2612"
    },
    {
      "channel": 0,
      "note": 43,
      "start": 3.1261,
      "duration": 0.0017,
      "velocity": 117,
      "chip": "ym2612"
    },
    {
      "channel": 4,
      "note": 43,
      "start": 3.1264,
      "duration": 0.0024,
      "velocity": 118,
      "chip": "ym2612"
    },
    {
      "channel": 0,
      "note": 45,
      "start": 3.128,
      "duration": 0.0038,
      "velocity": 117,
      "chip": "ym2612"
    },
    {
      "channel": 1,
      "note": 60,
      "start": 3.1283,
      "duration": 0.0073,
      "velocity": 117,
      "chip": "ym2612"
    },
    {
      "channel": 2,
      "note": 69,
      "start": 3.1284,
      "duration": 0.0073,
      "velocity": 111,
      "chip": "ym2612"
    },
    {
      "channel": 3,
      "note": 64,
      "start": 3.1287,
      "duration": 0.0149,
      "velocity": 123,
      "chip": "ym2612"
    },
    {
      "channel": 4,
      "note": 45,
      "start": 3.129,
      "duration": 0.003,
      "velocity": 118,
      "chip": "ym2612"
    },
    {
      "channel": 0,
      "note": 40,
      "start": 3.132,
      "duration": 0.002,
      "velocity": 117,
      "chip": "ym2612"
    },
    {
      "channel": 4,
      "note": 40,
      "start": 3.1323,
      "duration": 0.002,
      "velocity": 118,
      "chip": "ym2612"
    },
    {
      "channel": 0,
      "note": 43,
      "start": 3.1341,
      "duration": 0.0012,
      "velocity": 117,
      "chip": "ym2612"
    },
    {
      "channel": 4,
      "note": 43,
      "start": 3.1344,
      "duration": 0.0015,
      "velocity": 118,
      "chip": "ym2612"
    },
    {
      "channel": 0,
      "note": 40,
      "start": 3.1355,
      "duration": 0.0025,
      "velocity": 117,
      "chip": "ym2612"
    },
    {
      "channel": 1,
      "note": 57,
      "start": 3.1357,
      "duration": 0.0074,
      "velocity": 117,
      "chip": "ym2612"
    },
    {
      "channel": 2,
      "note": 76,
      "start": 3.1359,
      "duration": 0.0076,
      "velocity": 111,
      "chip": "ym2612"
    },
    {
      "channel": 4,
      "note": 40,
      "start": 3.1361,
      "duration": 0.0022,
      "velocity": 118,
      "chip": "ym2612"
    },
    {
      "channel": 0,
      "note": 43,
      "start": 3.1382,
      "duration": 0.0012,
      "velocity": 117,
      "chip": "ym2612"
    },
    {
      "channel": 4,
      "note": 43,
      "start": 3.1385,
      "duration": 0.0011,
      "velocity": 118,
      "chip": "ym2612"
    },
    {
      "channel": 0,
      "note": 46,
      "start": 3.1395,
      "duration": 0.0022,
      "velocity": 117,
      "chip": "ym2612"
    },
    {
      "channel": 4,
      "note": 46,
      "start": 3.1399,
      "duration": 0.002,
      "velocity": 118,
      "chip": "ym2612"
    },
    {
      "channel": 0,
      "note": 43,
      "start": 3.1418,
      "duration": 0.0011,
      "velocity": 117,
      "chip": "ym2612"
    },
    {
      "channel": 4,
      "note": 43,
      "start": 3.1421,
      "duration": 0.0018,
      "velocity": 118,
      "chip": "ym2612"
    },
    {
      "channel": 0,
      "note": 45,
      "start": 3.1431,
      "duration": 0.0041,
      "velocity": 117,
      "chip": "ym2612"
    },
    {
      "channel": 1,
      "note": 62,
      "start": 3.1433,
      "duration": 0.0082,
      "velocity": 117,
      "chip": "ym2612"
    },
    {
      "channel": 2,
      "note": 77,
      "start": 3.1436,
      "duration": 0.0024,
      "velocity": 111,
      "chip": "ym2612"
    },
    {
      "channel": 3,
      "note": 65,
      "start": 3.1438,
      "duration": 0.0154,
      "velocity": 123,
      "chip": "ym2612"
    },
    {
      "channel": 4,
      "note": 45,
      "start": 3.1441,
      "duration": 0.0036,
      "velocity": 118,
      "chip": "ym2612"
    },
    {
      "channel": 2,
      "note": 70,
      "start": 3.1461,
      "duration": 0.0013,
      "velocity": 111,
      "chip": "ym2612"
    },
    {
      "channel": 0,
      "note": 40,
      "start": 3.1474,
      "duration": 0.0023,
      "velocity": 117,
      "chip": "ym2612"
    },
    {
      "channel": 2,
      "note": 70,
      "start": 3.1476,
      "duration": 0.0112,
      "velocity": 111,
      "chip": "ym2612"
    },
    {
      "channel": 4,
      "note": 40,
      "start": 3.1479,
      "duration": 0.0021,
      "velocity": 118,
      "chip": "ym2612"
    },
    {
      "channel": 0,
      "note": 43,
      "start": 3.1499,
      "duration": 0.0014,
      "velocity": 117,
      "chip": "ym2612"
    },
    {
      "channel": 4,
      "note": 43,
      "start": 3.1502,
      "duration": 0.0014,
      "velocity": 118,
      "chip": "ym2612"
    },
    {
      "channel": 0,
      "note": 46,
      "start": 3.1514,
      "duration": 0.0022,
      "velocity": 117,
      "chip": "ym2612"
    },
    {
      "channel": 1,
      "note": 58,
      "start": 3.1516,
      "duration": 0.0071,
      "velocity": 117,
      "chip": "ym2612"
    },
    {
      "channel": 4,
      "note": 46,
      "start": 3.1518,
      "duration": 0.0021,
      "velocity": 118,
      "chip": "ym2612"
    },
    {
      "channel": 0,
      "note": 43,
      "start": 3.1538,
      "duration": 0.0013,
      "velocity": 117,
      "chip": "ym2612"
    },
    {
      "channel": 4,
      "note": 43,
      "start": 3.1541,
      "duration": 0.0012,
      "velocity": 118,
      "chip": "ym2612"
    },
    {
      "channel": 0,
      "note": 42,
      "start": 3.1553,
      "duration": 0.0013,
      "velocity": 117,
      "chip": "ym2612"
    },
    {
      "channel": 4,
      "note": 42,
      "start": 3.1555,
      "duration": 0.0014,
      "velocity": 118,
      "chip": "ym2612"
    },
    {
      "channel": 0,
      "note": 43,
      "start": 3.1568,
      "duration": 0.0017,
      "velocity": 117,
      "chip": "ym2612"
    },
    {
      "channel": 4,
      "note": 43,
      "start": 3.1571,
      "duration": 0.0023,
      "velocity": 118,
      "chip": "ym2612"
    },
    {
      "channel": 0,
      "note": 45,
      "start": 3.1587,
      "duration": 0.0039,
      "velocity": 117,
      "chip": "ym2612"
    },
    {
      "channel": 1,
      "note": 60,
      "start": 3.1588,
      "duration": 0.0074,
      "velocity": 117,
      "chip": "ym2612"
    },
    {
      "channel": 2,
      "note": 69,
      "start": 3.159,
      "duration": 0.0074,
      "velocity": 111,
      "chip": "ym2612"
    },
    {
      "channel": 3,
      "note": 64,
      "start": 3.1593,
      "duration": 0.0153,
      "velocity": 123,
      "chip": "ym2612"
    },
    {
      "channel": 4,
      "note": 45,
      "start": 3.1597,
      "duration": 0.0031,
      "velocity": 118,
      "chip": "ym2612"
    },
    {
      "channel": 0,
      "note": 40,
      "start": 3.1627,
      "duration": 0.002,
      "velocity": 117,
      "chip": "ym2612"
    },
    {
      "channel": 4,
      "note": 40,
      "start": 3.1629,
      "duration": 0.0021,
      "velocity": 118,
      "chip": "ym2612"
    },
    {
      "channel": 0,
      "note": 43,
      "start": 3.1649,
      "duration": 0.0012,
      "velocity": 117,
      "chip": "ym2612"
    },
    {
      "channel": 4,
      "note": 43,
      "start": 3.1652,
      "duration": 0.0015,
      "velocity": 118,
      "chip": "ym2612"
    },
    {
      "channel": 0,
      "note": 40,
      "start": 3.1662,
      "duration": 0.0025,
      "velocity": 117,
      "chip": "ym2612"
    },
    {
      "channel": 1,
      "note": 57,
      "start": 3.1664,
      "duration": 0.0078,
      "velocity": 117,
      "chip": "ym2612"
    },
    {
      "channel": 2,
      "note": 76,
      "start": 3.1666,
      "duration": 0.0078,
      "velocity": 111,
      "chip": "ym2612"
    },
    {
      "channel": 4,
      "note": 40,
      "start": 3.1668,
      "duration": 0.0022,
      "velocity": 118,
      "chip": "ym2612"
    },
    {
      "channel": 0,
      "note": 43,
      "start": 3.1689,
      "duration": 0.0013,
      "velocity": 117,
      "chip": "ym2612"
    },
    {
      "channel": 4,
      "note": 43,
      "start": 3.1692,
      "duration": 0.0013,
      "velocity": 118,
      "chip": "ym2612"
    },
    {
      "channel": 0,
      "note": 46,
      "start": 3.1703,
      "duration": 0.0022,
      "velocity": 117,
      "chip": "ym2612"
    },
    {
      "channel": 4,
      "note": 46,
      "start": 3.1707,
      "duration": 0.0021,
      "velocity": 118,
      "chip": "ym2612"
    },
    {
      "channel": 0,
      "note": 43,
      "start": 3.1727,
      "duration": 0.0012,
      "velocity": 117,
      "chip": "ym2612"
    },
    {
      "channel": 4,
      "note": 43,
      "start": 3.173,
      "duration": 0.0019,
      "velocity": 118,
      "chip": "ym2612"
    },
    {
      "channel": 0,
      "note": 45,
      "start": 3.1741,
      "duration": 0.0041,
      "velocity": 117,
      "chip": "ym2612"
    },
    {
      "channel": 1,
      "note": 58,
      "start": 3.1744,
      "duration": 0.0081,
      "velocity": 117,
      "chip": "ym2612"
    },
    {
      "channel": 2,
      "note": 74,
      "start": 3.1746,
      "duration": 0.0023,
      "velocity": 111,
      "chip": "ym2612"
    },
    {
      "channel": 3,
      "note": 70,
      "start": 3.1748,
      "duration": 0.0118,
      "velocity": 123,
      "chip": "ym2612"
    },
    {
      "channel": 4,
      "note": 45,
      "start": 3.1752,
      "duration": 0.0035,
      "velocity": 118,
      "chip": "ym2612"
    },
    {
      "channel": 2,
      "note": 77,
      "start": 3.177,
      "duration": 0.0015,
      "velocity": 111,
      "chip": "ym2612"
    },
    {
      "channel": 0,
      "note": 40,
      "start": 3.1784,
      "duration": 0.0023,
      "velocity": 117,
      "chip": "ym2612"
    },
    {
      "channel": 2,
      "note": 77,
      "start": 3.1786,
      "duration": 0.0078,
      "velocity": 111,
      "chip": "ym2612"
    },
    {
      "channel": 4,
      "note": 40,
      "start": 3.1789,
      "duration": 0.0022,
      "velocity": 118,
      "chip": "ym2612"
    },
    {
      "channel": 0,
      "note": 43,
      "start": 3.181,
      "duration": 0.0013,
      "velocity": 117,
      "chip": "ym2612"
    },
    {
      "channel": 4,
      "note": 43,
      "start": 3.1812,
      "duration": 0.0015,
      "velocity": 118,
      "chip": "ym2612"
    },
    {
      "channel": 0,
      "note": 46,
      "start": 3.1824,
      "duration": 0.0022,
      "velocity": 117,
      "chip": "ym2612"
    },
    {
      "channel": 1,
      "note": 60,
      "start": 3.1827,
      "duration": 0.0036,
      "velocity": 117,
      "chip": "ym2612"
    },
    {
      "channel": 4,
      "note": 46,
      "start": 3.1829,
      "duration": 0.0021,
      "velocity": 118,
      "chip": "ym2612"
    },
    {
      "channel": 0,
      "note": 43,
      "start": 3.1848,
      "duration": 0.0012,
      "velocity": 117,
      "chip": "ym2612"
    },
    {
      "channel": 4,
      "note": 43,
      "start": 3.1852,
      "duration": 0.0016,
      "velocity": 118,
      "chip": "ym2612"
    },
    {
      "channel": 0,
      "note": 42,
      "start": 3.1861,
      "duration": 0.0022,
      "velocity": 117,
      "chip": "ym2612"
    },
    {
      "channel": 1,
      "note": 56,
      "start": 3.1863,
      "duration": 0.0038,
      "velocity": 117,
      "chip": "ym2612"
    },
    {
      "channel": 2,
      "note": 80,
      "start": 3.1866,
      "duration": 0.0038,
      "velocity": 111,
      "chip": "ym2612"
    },
    {
      "channel": 3,
      "note": 72,
      "start": 3.1868,
      "duration": 0.0039,
      "velocity": 123,
      "chip": "ym2612"
    },
    {
      "channel": 4,
      "note": 42,
      "start": 3.1871,
      "duration": 0.0016,
      "velocity": 118,
      "chip": "ym2612"
    },
    {
      "channel": 0,
      "note": 43,
      "start": 3.1885,
      "duration": 0.0014,
      "velocity": 117,
      "chip": "ym2612"
    },
    {
      "channel": 4,
      "note": 43,
      "start": 3.1889,
      "duration": 0.002,
      "velocity": 118,
      "chip": "ym2612"
    },
    {
      "channel": 0,
      "note": 45,
      "start": 3.1901,
      "duration": 0.0042,
      "velocity": 117,
      "chip": "ym2612"
    },
    {
      "channel": 1,
      "note": 57,
      "start": 3.1903,
      "duration": 0.0027,
      "velocity": 117,
      "chip": "ym2612"
    },
    {
      "channel": 2,
      "note": 81,
      "start": 3.1906,
      "duration": 0.0026,
      "velocity": 111,
      "chip": "ym2612"
    },
    {
      "channel": 3,
      "note": 69,
      "start": 3.1908,
      "duration": 0.0025,
      "velocity": 123,
      "chip": "ym2612"
    },
    {
      "channel": 4,
      "note": 45,
      "start": 3.1912,
      "duration": 0.0044,
      "velocity": 118,
      "chip": "ym2612"
    },
    {
      "channel": 0,
      "note": 40,
      "start": 3.1945,
      "duration": 0.0029,
      "velocity": 117,
      "chip": "ym2612"
    },
    {
      "channel": 1,
      "note": 40,
      "start": 3.1953,
      "duration": 0.0025,
      "velocity": 114,
      "chip": "ym2612"
    },
    {
      "channel": 4,
      "note": 40,
      "start": 3.1958,
      "duration": 0.0023,
      "velocity": 118,
      "chip": "ym2612"
    },
    {
      "channel": 0,
      "note": 43,
      "start": 3.1977,
      "duration": 0.0015,
      "velocity": 117,
      "chip": "ym2612"
    },
    {
      "channel": 1,
      "note": 43,
      "start": 3.198,
      "duration": 0.0014,
      "velocity": 114,
      "chip": "ym2612"
    },
    {
      "channel": 4,
      "note": 43,
      "start": 3.1983,
      "duration": 0.0012,
      "velocity": 118,
      "chip": "ym2612"
    },
    {
      "channel": 0,
      "note": 40,
      "start": 3.1993,
      "duration": 0.0019,
      "velocity": 117,
      "chip": "ym2612"
    },
    {
      "channel": 1,
      "note": 40,
      "start": 3.1995,
      "duration": 0.002,
      "velocity": 114,
      "chip": "ym2612"
    },
    {
      "channel": 4,
      "note": 40,
      "start": 3.1997,
      "duration": 0.0021,
      "velocity": 118,
      "chip": "ym2612"
    },
    {
      "channel": 0,
      "note": 43,
      "start": 3.2014,
      "duration": 0.0014,
      "velocity": 117,
      "chip": "ym2612"
    },
    {
      "channel": 1,
      "note": 43,
      "start": 3.2017,
      "duration": 0.0013,
      "velocity": 114,
      "chip": "ym2612"
    },
    {
      "channel": 4,
      "note": 43,
      "start": 3.2019,
      "duration": 0.0013,
      "velocity": 118,
      "chip": "ym2612"
    },
    {
      "channel": 0,
      "note": 46,
      "start": 3.2029,
      "duration": 0.0018,
      "velocity": 117,
      "chip": "ym2612"
    },
    {
      "channel": 1,
      "note": 46,
      "start": 3.2032,
      "duration": 0.0019,
      "velocity": 114,
      "chip": "ym2612"
    },
    {
      "channel": 4,
      "note": 46,
      "start": 3.2034,
      "duration": 0.0019,
      "velocity": 118,
      "chip": "ym2612"
    },
    {
      "channel": 0,
      "note": 43,
      "start": 3.2049,
      "duration": 0.0014,
      "velocity": 117,
      "chip": "ym2612"
    },
    {
      "channel": 1,
      "note": 43,
      "start": 3.2052,
      "duration": 0.0014,
      "velocity": 114,
      "chip": "ym2612"
    },
    {
      "channel": 4,
      "note": 43,
      "start": 3.2055,
      "duration": 0.0018,
      "velocity": 118,
      "chip": "ym2612"
    },
    {
      "channel": 0,
      "note": 45,
      "start": 3.2065,
      "duration": 0.0035,
      "velocity": 117,
      "chip": "ym2612"
    },
    {
      "channel": 1,
      "note": 45,
      "start": 3.2068,
      "duration": 0.0035,
      "velocity": 114,
      "chip": "ym2612"
    },
    {
      "channel": 2,
      "note": 57,
      "start": 3.207,
      "duration": 0.0149,
      "velocity": 111,
      "chip": "ym2612"
    },
    {
      "channel": 3,
      "note": 57,
      "start": 3.2073,
      "duration": 0.0148,
      "velocity": 123,
      "chip": "ym2612"
    },
    {
      "channel": 4,
      "note": 45,
      "start": 3.2075,
      "duration": 0.0031,
      "velocity": 118,
      "chip": "ym2612"
    },
    {
      "channel": 0,
      "note": 40,
      "start": 3.2102,
      "duration": 0.0022,
      "velocity": 117,
      "chip": "ym2612"
    },
    {
      "channel": 1,
      "note": 40,
      "start": 3.2105,
      "duration": 0.0022,
      "velocity": 114,
      "chip": "ym2612"
    },
    {
      "channel": 4,
      "note": 40,
      "start": 3.2108,
      "duration": 0.0021,
      "velocity": 118,
      "chip": "ym2612"
    },
    {
      "channel": 0,
      "note": 43,
      "start": 3.2126,
      "duration": 0.0015,
      "velocity": 117,
      "chip": "ym2612"
    },
    {
      "channel": 1,
      "note": 43,
      "start": 3.2129,
      "duration": 0.0014,
      "velocity": 114,
      "chip": "ym2612"
    },
    {
      "channel": 4,
      "note": 43,
      "start": 3.2132,
      "duration": 0.0013,
      "velocity": 118,
      "chip": "ym2612"
    },
    {
      "channel": 0,
      "note": 46,
      "start": 3.2142,
      "duration": 0.0021,
      "velocity": 117,
      "chip": "ym2612"
    },
    {
      "channel": 1,
      "note": 46,
      "start": 3.2144,
      "duration": 0.0021,
      "velocity": 114,
      "chip": "ym2612"
    },
    {
      "channel": 4,
      "note": 46,
      "start": 3.2147,
      "duration": 0.0021,
      "velocity": 118,
      "chip": "ym2612"
    },
    {
      "channel": 0,
      "note": 43,
      "start": 3.2164,
      "duration": 0.0014,
      "velocity": 117,
      "chip": "ym2612"
    },
    {
      "channel": 1,
      "note": 43,
      "start": 3.2167,
      "duration": 0.0014,
      "velocity": 114,
      "chip": "ym2612"
    },
    {
      "channel": 4,
      "note": 43,
      "start": 3.217,
      "duration": 0.0014,
      "velocity": 118,
      "chip": "ym2612"
    },
    {
      "channel": 0,
      "note": 42,
      "start": 3.218,
      "duration": 0.0017,
      "velocity": 117,
      "chip": "ym2612"
    },
    {
      "channel": 1,
      "note": 42,
      "start": 3.2183,
      "duration": 0.0016,
      "velocity": 114,
      "chip": "ym2612"
    },
    {
      "channel": 4,
      "note": 42,
      "start": 3.2186,
      "duration": 0.0016,
      "velocity": 118,
      "chip": "ym2612"
    },
    {
      "channel": 0,
      "note": 43,
      "start": 3.2198,
      "duration": 0.0016,
      "velocity": 117,
      "chip": "ym2612"
    },
    {
      "channel": 1,
      "note": 43,
      "start": 3.2201,
      "duration": 0.0017,
      "velocity": 114,
      "chip": "ym2612"
    },
    {
      "channel": 4,
      "note": 43,
      "start": 3.2204,
      "duration": 0.0017,
      "velocity": 118,
      "chip": "ym2612"
    },
    {
      "channel": 0,
      "note": 45,
      "start": 3.2217,
      "duration": 0.0033,
      "velocity": 117,
      "chip": "ym2612"
    },
    {
      "channel": 1,
      "note": 45,
      "start": 3.2219,
      "duration": 0.0033,
      "velocity": 114,
      "chip": "ym2612"
    },
    {
      "channel": 4,
      "note": 45,
      "start": 3.2223,
      "duration": 0.0034,
      "velocity": 118,
      "chip": "ym2612"
    },
    {
      "channel": 0,
      "note": 40,
      "start": 3.2251,
      "duration": 0.0023,
      "velocity": 117,
      "chip": "ym2612"
    },
    {
      "channel": 1,
      "note": 40,
      "start": 3.2255,
      "duration": 0.0022,
      "velocity": 114,
      "chip": "ym2612"
    },
    {
      "channel": 4,
      "note": 40,
      "start": 3.2259,
      "duration": 0.0022,
      "velocity": 118,
      "chip": "ym2612"
    },
    {
      "channel": 0,
      "note": 43,
      "start": 3.2276,
      "duration": 0.0015,
      "velocity": 117,
      "chip": "ym2612"
    },
    {
      "channel": 1,
      "note": 43,
      "start": 3.2279,
      "duration": 0.0014,
      "velocity": 114,
      "chip": "ym2612"
    },
    {
      "channel": 4,
      "note": 43,
      "start": 3.2283,
      "duration": 0.0013,
      "velocity": 118,
      "chip": "ym2612"
    },
    {
      "channel": 0,
      "note": 40,
      "start": 3.2292,
      "duration": 0.0021,
      "velocity": 117,
      "chip": "ym2612"
    },
    {
      "channel": 1,
      "note": 40,
      "start": 3.2295,
      "duration": 0.0021,
      "velocity": 114,
      "chip": "ym2612"
    },
    {
      "channel": 4,
      "note": 40,
      "start": 3.2298,
      "duration": 0.0021,
      "velocity": 118,
      "chip": "ym2612"
    },
    {
      "channel": 0,
      "note": 43,
      "start": 3.2315,
      "duration": 0.0014,
      "velocity": 117,
      "chip": "ym2612"
    },
    {
      "channel": 1,
      "note": 43,
      "start": 3.2318,
      "duration": 0.0013,
      "velocity": 114,
      "chip": "ym2612"
    },
    {
      "channel": 4,
      "note": 43,
      "start": 3.232,
      "duration": 0.0013,
      "velocity": 118,
      "chip": "ym2612"
    },
    {
      "channel": 0,
      "note": 46,
      "start": 3.233,
      "duration": 0.0021,
      "velocity": 117,
      "chip": "ym2612"
    },
    {
      "channel": 1,
      "note": 46,
      "start": 3.2333,
      "duration": 0.0021,
      "velocity": 114,
      "chip": "ym2612"
    },
    {
      "channel": 4,
      "note": 46,
      "start": 3.2335,
      "duration": 0.0021,
      "velocity": 118,
      "chip": "ym2612"
    },
    {
      "channel": 0,
      "note": 43,
      "start": 3.2353,
      "duration": 0.0014,
      "velocity": 117,
      "chip": "ym2612"
    },
    {
      "channel": 1,
      "note": 43,
      "start": 3.2356,
      "duration": 0.0014,
      "velocity": 114,
      "chip": "ym2612"
    },
    {
      "channel": 4,
      "note": 43,
      "start": 3.2358,
      "duration": 0.0018,
      "velocity": 118,
      "chip": "ym2612"
    },
    {
      "channel": 0,
      "note": 45,
      "start": 3.2369,
      "duration": 0.0038,
      "velocity": 117,
      "chip": "ym2612"
    },
    {
      "channel": 1,
      "note": 45,
      "start": 3.2371,
      "duration": 0.0038,
      "velocity": 114,
      "chip": "ym2612"
    },
    {
      "channel": 2,
      "note": 57,
      "start": 3.2373,
      "duration": 0.0163,
      "velocity": 111,
      "chip": "ym2612"
    },
    {
      "channel": 3,
      "note": 57,
      "start": 3.2376,
      "duration": 0.0162,
      "velocity": 123,
      "chip": "ym2612"
    },
    {
      "channel": 4,
      "note": 45,
      "start": 3.2378,
      "duration": 0.0035,
      "velocity": 118,
      "chip": "ym2612"
    },
    {
      "channel": 0,
      "note": 40,
      "start": 3.2409,
      "duration": 0.0024,
      "velocity": 117,
      "chip": "ym2612"
    },
    {
      "channel": 1,
      "note": 40,
      "start": 3.2411,
      "duration": 0.0024,
      "velocity": 114,
      "chip": "ym2612"
    },
    {
      "channel": 4,
      "note": 40,
      "start": 3.2415,
      "duration": 0.0023,
      "velocity": 118,
      "chip": "ym2612"
    },
    {
      "channel": 0,
      "note": 43,
      "start": 3.2434,
      "duration": 0.0014,
      "velocity": 117,
      "chip": "ym2612"
    },
    {
      "channel": 1,
      "note": 43,
      "start": 3.2437,
      "duration": 0.0014,
      "velocity": 114,
      "chip": "ym2612"
    },
    {
      "channel": 4,
      "note": 43,
      "start": 3.244,
      "duration": 0.0014,
      "velocity": 118,
      "chip": "ym2612"
    },
    {
      "channel": 0,
      "note": 46,
      "start": 3.245,
      "duration": 0.0021,
      "velocity": 117,
      "chip": "ym2612"
    },
    {
      "channel": 1,
      "note": 46,
      "start": 3.2452,
      "duration": 0.0021,
      "velocity": 114,
      "chip": "ym2612"
    },
    {
      "channel": 4,
      "note": 46,
      "start": 3.2455,
      "duration": 0.0021,
      "velocity": 118,
      "chip": "ym2612"
    },
    {
      "channel": 0,
      "note": 43,
      "start": 3.2473,
      "duration": 0.0014,
      "velocity": 117,
      "chip": "ym2612"
    },
    {
      "channel": 1,
      "note": 43,
      "start": 3.2475,
      "duration": 0.0014,
      "velocity": 114,
      "chip": "ym2612"
    },
    {
      "channel": 4,
      "note": 43,
      "start": 3.2478,
      "duration": 0.0014,
      "velocity": 118,
      "chip": "ym2612"
    },
    {
      "channel": 0,
      "note": 42,
      "start": 3.2488,
      "duration": 0.0016,
      "velocity": 117,
      "chip": "ym2612"
    },
    {
      "channel": 1,
      "note": 42,
      "start": 3.2491,
      "duration": 0.0017,
      "velocity": 114,
      "chip": "ym2612"
    },
    {
      "channel": 4,
      "note": 42,
      "start": 3.2493,
      "duration": 0.0017,
      "velocity": 118,
      "chip": "ym2612"
    },
    {
      "channel": 0,
      "note": 43,
      "start": 3.2507,
      "duration": 0.0017,
      "velocity": 117,
      "chip": "ym2612"
    },
    {
      "channel": 1,
      "note": 43,
      "start": 3.251,
      "duration": 0.0024,
      "velocity": 117,
      "chip": "ym2612"
    },
    {
      "channel": 4,
      "note": 43,
      "start": 3.2513,
      "duration": 0.0027,
      "velocity": 118,
      "chip": "ym2612"
    },
    {
      "channel": 0,
      "note": 45,
      "start": 3.2526,
      "duration": 0.0046,
      "velocity": 117,
      "chip": "ym2612"
    },
    {
      "channel": 1,
      "note": 57,
      "start": 3.2535,
      "duration": 0.0138,
      "velocity": 117,
      "chip": "ym2612"
    },
    {
      "channel": 2,
      "note": 81,
      "start": 3.2537,
      "duration": 0.0138,
      "velocity": 111,
      "chip": "ym2612"
    },
    {
      "channel": 3,
      "note": 64,
      "start": 3.254,
      "duration": 0.0138,
      "velocity": 123,
      "chip": "ym2612"
    },
    {
      "channel": 4,
      "note": 45,
      "start": 3.2542,
      "duration": 0.0034,
      "velocity": 118,
      "chip": "ym2612"
    },
    {
      "channel": 0,
      "note": 40,
      "start": 3.2574,
      "duration": 0.0021,
      "velocity": 117,
      "chip": "ym2612"
    },
    {
      "channel": 4,
      "note": 40,
      "start": 3.2578,
      "duration": 0.0019,
      "velocity": 118,
      "chip": "ym2612"
    },
    {
      "channel": 0,
      "note": 43,
      "start": 3.2597,
      "duration": 0.001,
      "velocity": 117,
      "chip": "ym2612"
    },
    {
      "channel": 4,
      "note": 43,
      "start": 3.2599,
      "duration": 0.001,
      "velocity": 118,
      "chip": "ym2612"
    },
    {
      "channel": 0,
      "note": 40,
      "start": 3.2609,
      "duration": 0.0017,
      "velocity": 117,
      "chip": "ym2612"
    },
    {
      "channel": 4,
      "note": 40,
      "start": 3.261,
      "duration": 0.0018,
      "velocity": 118,
      "chip": "ym2612"
    },
    {
      "channel": 0,
      "note": 43,
      "start": 3.2628,
      "duration": 0.0011,
      "velocity": 117,
      "chip": "ym2612"
    },
    {
      "channel": 4,
      "note": 43,
      "start": 3.263,
      "duration": 0.001,
      "velocity": 118,
      "chip": "ym2612"
    },
    {
      "channel": 0,
      "note": 46,
      "start": 3.264,
      "duration": 0.0018,
      "velocity": 117,
      "chip": "ym2612"
    },
    {
      "channel": 4,
      "note": 46,
      "start": 3.2642,
      "duration": 0.0019,
      "velocity": 118,
      "chip": "ym2612"
    },
    {
      "channel": 0,
      "note": 43,
      "start": 3.266,
      "duration": 0.0011,
      "velocity": 117,
      "chip": "ym2612"
    },
    {
      "channel": 4,
      "note": 43,
      "start": 3.2662,
      "duration": 0.0018,
      "velocity": 118,
      "chip": "ym2612"
    },
    {
      "channel": 0,
      "note": 45,
      "start": 3.2672,
      "duration": 0.0037,
      "velocity": 117,
      "chip": "ym2612"
    },
    {
      "channel": 1,
      "note": 58,
      "start": 3.2675,
      "duration": 0.0115,
      "velocity": 117,
      "chip": "ym2612"
    },
    {
      "channel": 2,
      "note": 82,
      "start": 3.2677,
      "duration": 0.0116,
      "velocity": 111,
      "chip": "ym2612"
    },
    {
      "channel": 3,
      "note": 63,
      "start": 3.268,
      "duration": 0.0117,
      "velocity": 123,
      "chip": "ym2612"
    },
    {
      "channel": 4,
      "note": 45,
      "start": 3.2683,
      "duration": 0.0032,
      "velocity": 118,
      "chip": "ym2612"
    },
    {
      "channel": 0,
      "note": 40,
      "start": 3.2712,
      "duration": 0.0021,
      "velocity": 117,
      "chip": "ym2612"
    },
    {
      "channel": 4,
      "note": 40,
      "start": 3.2717,
      "duration": 0.0019,
      "velocity": 118,
      "chip": "ym2612"
    },
    {
      "channel": 0,
      "note": 43,
      "start": 3.2735,
      "duration": 0.0011,
      "velocity": 117,
      "chip": "ym2612"
    },
    {
      "channel": 4,
      "note": 43,
      "start": 3.2737,
      "duration": 0.0011,
      "velocity": 118,
      "chip": "ym2612"
    },
    {
      "channel": 0,
      "note": 46,
      "start": 3.2747,
      "duration": 0.0026,
      "velocity": 117,
      "chip": "ym2612"
    },
    {
      "channel": 4,
      "note": 46,
      "start": 3.2749,
      "duration": 0.0025,
      "velocity": 118,
      "chip": "ym2612"
    },
    {
      "channel": 0,
      "note": 43,
      "start": 3.2774,
      "duration": 0.0013,
      "velocity": 117,
      "chip": "ym2612"
    },
    {
      "channel": 4,
      "note": 43,
      "start": 3.2776,
      "duration": 0.0024,
      "velocity": 118,
      "chip": "ym2612"
    },
    {
      "channel": 0,
      "note": 48,
      "start": 3.279,
      "duration": 0.0059,
      "velocity": 117,
      "chip": "ym2612"
    },
    {
      "channel": 1,
      "note": 56,
      "start": 3.2793,
      "duration": 0.0058,
      "velocity": 117,
      "chip": "ym2612"
    },
    {
      "channel": 2,
      "note": 84,
      "start": 3.2796,
      "duration": 0.0057,
      "velocity": 111,
      "chip": "ym2612"
    },
    {
      "channel": 3,
      "note": 63,
      "start": 3.2799,
      "duration": 0.0055,
      "velocity": 123,
      "chip": "ym2612"
    },
    {
      "channel": 4,
      "note": 48,
      "start": 3.2803,
      "duration": 0.0055,
      "velocity": 118,
      "chip": "ym2612"
    },
    {
      "channel": 0,
      "note": 45,
      "start": 3.285,
      "duration": 0.0029,
      "velocity": 117,
      "chip": "ym2612"
    },
    {
      "channel": 1,
      "note": 57,
      "start": 3.2852,
      "duration": 0.003,
      "velocity": 117,
      "chip": "ym2612"
    },
    {
      "channel": 2,
      "note": 81,
      "start": 3.2854,
      "duration": 0.0029,
      "velocity": 111,
      "chip": "ym2612"
    },
    {
      "channel": 3,
      "note": 61,
      "start": 3.2857,
      "duration": 0.0027,
      "velocity": 123,
      "chip": "ym2612"
    },
    {
      "channel": 4,
      "note": 45,
      "start": 3.286,
      "duration": 0.0024,
      "velocity": 118,
      "chip": "ym2612"
    },
    {
      "channel": 0,
      "note": 53,
      "start": 3.2881,
      "duration": 0.0016,
      "velocity": 117,
      "chip": "ym2612"
    },
    {
      "channel": 4,
      "note": 53,
      "start": 3.2887,
      "duration": 0.0022,
      "velocity": 118,
      "chip": "ym2612"
    },
    {
      "channel": 0,
      "note": 47,
      "start": 3.2899,
      "duration": 0.0036,
      "velocity": 117,
      "chip": "ym2612"
    },
    {
      "channel": 1,
      "note": 69,
      "start": 3.2901,
      "duration": 0.0022,
      "velocity": 117,
      "chip": "ym2612"
    },
    {
      "channel": 2,
      "note": 81,
      "start": 3.2904,
      "duration": 0.0022,
      "velocity": 111,
      "chip": "ym2612"
    },
    {
      "channel": 3,
      "note": 81,
      "start": 3.2907,
      "duration": 0.002,
      "velocity": 123,
      "chip": "ym2612"
    },
    {
      "channel": 4,
      "note": 47,
      "start": 3.2911,
      "duration": 0.0034,
      "velocity": 118,
      "chip": "ym2612"
    },
    {
      "channel": 1,
      "note": 66,
      "start": 3.2925,
      "duration": 0.0012,
      "velocity": 117,
      "chip": "ym2612"
    },
    {
      "channel": 2,
      "note": 78,
      "start": 3.2927,
      "duration": 0.0013,
      "velocity": 111,
      "chip": "ym2612"
    },
    {
      "channel": 3,
      "note": 78,
      "start": 3.2929,
      "duration": 0.0013,
      "velocity": 123,
      "chip": "ym2612"
    },
    {
      "channel": 0,
      "note": 51,
      "start": 3.2936,
      "duration": 0.0028,
      "velocity": 117,
      "chip": "ym2612"
    },
    {
      "channel": 1,
      "note": 61,
      "start": 3.2939,
      "duration": 0.0017,
      "velocity": 117,
      "chip": "ym2612"
    },
    {
      "channel": 2,
      "note": 73,
      "start": 3.2942,
      "duration": 0.0017,
      "velocity": 111,
      "chip": "ym2612"
    },
    {
      "channel": 3,
      "note": 73,
      "start": 3.2944,
      "duration": 0.0017,
      "velocity": 123,
      "chip": "ym2612"
    },
    {
      "channel": 4,
      "note": 51,
      "start": 3.2948,
      "duration": 0.0027,
      "velocity": 118,
      "chip": "ym2612"
    },
    {
      "channel": 1,
      "note": 58,
      "start": 3.2958,
      "duration": 0.0008,
      "velocity": 117,
      "chip": "ym2612"
    },
    {
      "channel": 2,
      "note": 70,
      "start": 3.296,
      "duration": 0.0009,
      "velocity": 111,
      "chip": "ym2612"
    },
    {
      "channel": 3,
      "note": 70,
      "start": 3.2962,
      "duration": 0.001,
      "velocity": 123,
      "chip": "ym2612"
    },
    {
      "channel": 0,
      "note": 45,
      "start": 3.2965,
      "duration": 0.0038,
      "velocity": 117,
      "chip": "ym2612"
    },
    {
      "channel": 1,
      "note": 66,
      "start": 3.2969,
      "duration": 0.0023,
      "velocity": 117,
      "chip": "ym2612"
    },
    {
      "channel": 2,
      "note": 78,
      "start": 3.2971,
      "duration": 0.0024,
      "velocity": 111,
      "chip": "ym2612"
    },
    {
      "channel": 3,
      "note": 78,
      "start": 3.2975,
      "duration": 0.0022,
      "velocity": 123,
      "chip": "ym2612"
    },
    {
      "channel": 4,
      "note": 45,
      "start": 3.2978,
      "duration": 0.0035,
      "velocity": 118,
      "chip": "ym2612"
    },
    {
      "channel": 1,
      "note": 68,
      "start": 3.2994,
      "duration": 0.0012,
      "velocity": 117,
      "chip": "ym2612"
    },
    {
      "channel": 2,
      "note": 80,
      "start": 3.2996,
      "duration": 0.0012,
      "velocity": 111,
      "chip": "ym2612"
    },
    {
      "channel": 3,
      "note": 80,
      "start": 3.2999,
      "duration": 0.0012,
      "velocity": 123,
      "chip": "ym2612"
    },
    {
      "channel": 0,
      "note": 48,
      "start": 3.3005,
      "duration": 0.0026,
      "velocity": 117,
      "chip": "ym2612"
    },
    {
      "channel": 1,
      "note": 63,
      "start": 3.3007,
      "duration": 0.0015,
      "velocity": 117,
      "chip": "ym2612"
    },
    {
      "channel": 2,
      "note": 75,
      "start": 3.301,
      "duration": 0.0015,
      "velocity": 111,
      "chip": "ym2612"
    },
    {
      "channel": 3,
      "note": 75,
      "start": 3.3012,
      "duration": 0.0015,
      "velocity": 123,
      "chip": "ym2612"
    },
    {
      "channel": 4,
      "note": 48,
      "start": 3.3015,
      "duration": 0.0025,
      "velocity": 118,
      "chip": "ym2612"
    },
    {
      "channel": 1,
      "note": 66,
      "start": 3.3024,
      "duration": 0.001,
      "velocity": 117,
      "chip": "ym2612"
    },
    {
      "channel": 2,
      "note": 78,
      "start": 3.3027,
      "duration": 0.0009,
      "velocity": 111,
      "chip": "ym2612"
    },
    {
      "channel": 3,
      "note": 78,
      "start": 3.3029,
      "duration": 0.0008,
      "velocity": 123,
      "chip": "ym2612"
    },
    {
      "channel": 0,
      "note": 43,
      "start": 3.3033,
      "duration": 0.0026,
      "velocity": 117,
      "chip": "ym2612"
    },
    {
      "channel": 1,
      "note": 57,
      "start": 3.3035,
      "duration": 0.0012,
      "velocity": 117,
      "chip": "ym2612"
    },
    {
      "channel": 2,
      "note": 69,
      "start": 3.3037,
      "duration": 0.0013,
      "velocity": 111,
      "chip": "ym2612"
    },
    {
      "channel": 3,
      "note": 69,
      "start": 3.3039,
      "duration": 0.0013,
      "velocity": 123,
      "chip": "ym2612"
    },
    {
      "channel": 4,
      "note": 43,
      "start": 3.3042,
      "duration": 0.0027,
      "velocity": 118,
      "chip": "ym2612"
    },
    {
      "channel": 1,
      "note": 62,
      "start": 3.3049,
      "duration": 0.0013,
      "velocity": 117,
      "chip": "ym2612"
    },
    {
      "channel": 2,
      "note": 74,
      "start": 3.3051,
      "duration": 0.0013,
      "velocity": 111,
      "chip": "ym2612"
    },
    {
      "channel": 3,
      "note": 74,
      "start": 3.3054,
      "duration": 0.0013,
      "velocity": 123,
      "chip": "ym2612"
    },
    {
      "channel": 0,
      "note": 47,
      "start": 3.3061,
      "duration": 0.0022,
      "velocity": 117,
      "chip": "ym2612"
    },
    {
      "channel": 1,
      "note": 60,
      "start": 3.3064,
      "duration": 0.0011,
      "velocity": 117,
      "chip": "ym2612"
    },
    {
      "channel": 2,
      "note": 72,
      "start": 3.3066,
      "duration": 0.0011,
      "velocity": 111,
      "chip": "ym2612"
    },
    {
      "channel": 3,
      "note": 72,
      "start": 3.3068,
      "duration": 0.001,
      "velocity": 123,
      "chip": "ym2612"
    },
    {
      "channel": 4,
      "note": 47,
      "start": 3.3071,
      "duration": 0.0022,
      "velocity": 118,
      "chip": "ym2612"
    },
    {
      "channel": 1,
      "note": 65,
      "start": 3.3076,
      "duration": 0.0009,
      "velocity": 117,
      "chip": "ym2612"
    },
    {
      "channel": 2,
      "note": 77,
      "start": 3.3078,
      "duration": 0.0009,
      "velocity": 111,
      "chip": "ym2612"
    },
    {
      "channel": 3,
      "note": 77,
      "start": 3.308,
      "duration": 0.001,
      "velocity": 123,
      "chip": "ym2612"
    },
    {
      "channel": 0,
      "note": 45,
      "start": 3.3084,
      "duration": 0.0034,
      "velocity": 117,
      "chip": "ym2612"
    },
    {
      "channel": 1,
      "note": 59,
      "start": 3.3087,
      "duration": 0.0021,
      "velocity": 117,
      "chip": "ym2612"
    },
    {
      "channel": 2,
      "note": 71,
      "start": 3.309,
      "duration": 0.002,
      "velocity": 111,
      "chip": "ym2612"
    },
    {
      "channel": 3,
      "note": 71,
      "start": 3.3092,
      "duration": 0.0019,
      "velocity": 123,
      "chip": "ym2612"
    },
    {
      "channel": 4,
      "note": 45,
      "start": 3.3095,
      "duration": 0.0033,
      "velocity": 118,
      "chip": "ym2612"
    },
    {
      "channel": 1,
      "note": 62,
      "start": 3.3109,
      "duration": 0.0011,
      "velocity": 117,
      "chip": "ym2612"
    },
    {
      "channel": 2,
      "note": 74,
      "start": 3.3111,
      "duration": 0.0013,
      "velocity": 111,
      "chip": "ym2612"
    },
    {
      "channel": 3,
      "note": 74,
      "start": 3.3113,
      "duration": 0.0013,
      "velocity": 123,
      "chip": "ym2612"
    },
    {
      "channel": 0,
      "note": 53,
      "start": 3.3119,
      "duration": 0.0029,
      "velocity": 117,
      "chip": "ym2612"
    },
    {
      "channel": 1,
      "note": 58,
      "start": 3.3122,
      "duration": 0.0017,
      "velocity": 117,
      "chip": "ym2612"
    },
    {
      "channel": 2,
      "note": 70,
      "start": 3.3125,
      "duration": 0.0016,
      "velocity": 111,
      "chip": "ym2612"
    },
    {
      "channel": 3,
      "note": 70,
      "start": 3.3128,
      "duration": 0.0016,
      "velocity": 123,
      "chip": "ym2612"
    },
    {
      "channel": 4,
      "note": 53,
      "start": 3.313,
      "duration": 0.0029,
      "velocity": 118,
      "chip": "ym2612"
    },
    {
      "channel": 1,
      "note": 55,
      "start": 3.3141,
      "duration": 0.001,
      "velocity": 117,
      "chip": "ym2612"
    },
    {
      "channel": 2,
      "note": 67,
      "start": 3.3143,
      "duration": 0.0011,
      "velocity": 111,
      "chip": "ym2612"
    },
    {
      "channel": 3,
      "note": 67,
      "start": 3.3145,
      "duration": 0.0012,
      "velocity": 123,
      "chip": "ym2612"
    },
    {
      "channel": 0,
      "note": 47,
      "start": 3.315,
      "duration": 0.0038,
      "velocity": 117,
      "chip": "ym2612"
    },
    {
      "channel": 1,
      "note": 60,
      "start": 3.3153,
      "duration": 0.0023,
      "velocity": 117,
      "chip": "ym2612"
    },
    {
      "channel": 2,
      "note": 72,
      "start": 3.3156,
      "duration": 0.0022,
      "velocity": 111,
      "chip": "ym2612"
    },
    {
      "channel": 3,
      "note": 72,
      "start": 3.3159,
      "duration": 0.0022,
      "velocity": 123,
      "chip": "ym2612"
    },
    {
      "channel": 4,
      "note": 47,
      "start": 3.3163,
      "duration": 0.0035,
      "velocity": 118,
      "chip": "ym2612"
    },
    {
      "channel": 1,
      "note": 54,
      "start": 3.3178,
      "duration": 0.0012,
      "velocity": 117,
      "chip": "ym2612"
    },
    {
      "channel": 2,
      "note": 66,
      "start": 3.318,
      "duration": 0.0012,
      "velocity": 111,
      "chip": "ym2612"
    },
    {
      "channel": 3,
      "note": 66,
      "start": 3.3183,
      "duration": 0.0013,
      "velocity": 123,
      "chip": "ym2612"
    },
    {
      "channel": 0,
      "note": 51,
      "start": 3.3189,
      "duration": 0.0027,
      "velocity": 117,
      "chip": "ym2612"
    },
    {
      "channel": 1,
      "note": 57,
      "start": 3.3192,
      "duration": 0.0016,
      "velocity": 117,
      "chip": "ym2612"
    },
    {
      "channel": 2,
      "note": 69,
      "start": 3.3195,
      "duration": 0.0015,
      "velocity": 111,
      "chip": "ym2612"
    },
    {
      "channel": 3,
      "note": 69,
      "start": 3.3197,
      "duration": 0.0015,
      "velocity": 123,
      "chip": "ym2612"
    },
    {
      "channel": 4,
      "note": 51,
      "start": 3.32,
      "duration": 0.0041,
      "velocity": 118,
      "chip": "ym2612"
    },
    {
      "channel": 1,
      "note": 51,
      "start": 3.3209,
      "duration": 0.0016,
      "velocity": 115,
      "chip": "ym2612"
    },
    {
      "channel": 2,
      "note": 63,
      "start": 3.3212,
      "duration": 0.0023,
      "velocity": 113,
      "chip": "ym2612"
    },
    {
      "channel": 3,
      "note": 63,
      "start": 3.3214,
      "duration": 0.0024,
      "velocity": 123,
      "chip": "ym2612"
    },
    {
      "channel": 0,
      "note": 45,
      "start": 3.3217,
      "duration": 0.0044,
      "velocity": 117,
      "chip": "ym2612"
    },
    {
      "channel": 1,
      "note": 69,
      "start": 3.3227,
      "duration": 0.006,
      "velocity": 115,
      "chip": "ym2612"
    },
    {
      "channel": 2,
      "note": 57,
      "start": 3.3237,
      "duration": 0.0053,
      "velocity": 113,
      "chip": "ym2612"
    },
    {
      "channel": 3,
      "note": 66,
      "start": 3.3241,
      "duration": 0.0017,
      "velocity": 123,
      "chip": "ym2612"
    },
    {
      "channel": 4,
      "note": 45,
      "start": 3.3243,
      "duration": 0.002,
      "velocity": 118,
      "chip": "ym2612"
    },
    {
      "channel": 0,
      "note": 48,
      "start": 3.3263,
      "duration": 0.0022,
      "velocity": 117,
      "chip": "ym2612"
    },
    {
      "channel": 4,
      "note": 48,
      "start": 3.3265,
      "duration": 0.0027,
      "velocity": 118,
      "chip": "ym2612"
    },
    {
      "channel": 0,
      "note": 43,
      "start": 3.3287,
      "duration": 0.0021,
      "velocity": 117,
      "chip": "ym2612"
    },
    {
      "channel": 1,
      "note": 69,
      "start": 3.3289,
      "duration": 0.0045,
      "velocity": 117,
      "chip": "ym2612"
    },
    {
      "channel": 2,
      "note": 57,
      "start": 3.3291,
      "duration": 0.005,
      "velocity": 111,
      "chip": "ym2612"
    },
    {
      "channel": 4,
      "note": 43,
      "start": 3.3294,
      "duration": 0.0017,
      "velocity": 118,
      "chip": "ym2612"
    },
    {
      "channel": 0,
      "note": 50,
      "start": 3.3309,
      "duration": 0.0016,
      "velocity": 117,
      "chip": "ym2612"
    },
    {
      "channel": 4,
      "note": 50,
      "start": 3.3314,
      "duration": 0.0029,
      "velocity": 118,
      "chip": "ym2612"
    },
    {
      "channel": 0,
      "note": 45,
      "start": 3.3327,
      "duration": 0.0033,
      "velocity": 117,
      "chip": "ym2612"
    },
    {
      "channel": 4,
      "note": 45,
      "start": 3.3344,
      "duration": 0.0019,
      "velocity": 118,
      "chip": "ym2612"
    },
    {
      "channel": 0,
      "note": 53,
      "start": 3.3361,
      "duration": 0.0015,
      "velocity": 117,
      "chip": "ym2612"
    },
    {
      "channel": 4,
      "note": 53,
      "start": 3.3365,
      "duration": 0.0021,
      "velocity": 118,
      "chip": "ym2612"
    },
    {
      "channel": 0,
      "note": 47,
      "start": 3.3378,
      "duration": 0.0036,
      "velocity": 117,
      "chip": "ym2612"
    },
    {
      "channel": 1,
      "note": 69,
      "start": 3.338,
      "duration": 0.0022,
      "velocity": 117,
      "chip": "ym2612"
    },
    {
      "channel": 2,
      "note": 81,
      "start": 3.3381,
      "duration": 0.0023,
      "velocity": 111,
      "chip": "ym2612"
    },
    {
      "channel": 3,
      "note": 81,
      "start": 3.3385,
      "duration": 0.0021,
      "velocity": 123,
      "chip": "ym2612"
    },
    {
      "channel": 4,
      "note": 47,
      "start": 3.3388,
      "duration": 0.0035,
      "velocity": 118,
      "chip": "ym2612"
    },
    {
      "channel": 1,
      "note": 66,
      "start": 3.3403,
      "duration": 0.0013,
      "velocity": 117,
      "chip": "ym2612"
    },
    {
      "channel": 2,
      "note": 78,
      "start": 3.3405,
      "duration": 0.0013,
      "velocity": 111,
      "chip": "ym2612"
    },
    {
      "channel": 3,
      "note": 78,
      "start": 3.3408,
      "duration": 0.0013,
      "velocity": 123,
      "chip": "ym2612"
    },
    {
      "channel": 0,
      "note": 51,
      "start": 3.3416,
      "duration": 0.0026,
      "velocity": 117,
      "chip": "ym2612"
    },
    {
      "channel": 1,
      "note": 61,
      "start": 3.3418,
      "duration": 0.0015,
      "velocity": 117,
      "chip": "ym2612"
    },
    {
      "channel": 2,
      "note": 73,
      "start": 3.342,
      "duration": 0.0015,
      "velocity": 111,
      "chip": "ym2612"
    },
    {
      "channel": 3,
      "note": 73,
      "start": 3.3423,
      "duration": 0.0014,
      "velocity": 123,
      "chip": "ym2612"
    },
    {
      "channel": 4,
      "note": 51,
      "start": 3.3426,
      "duration": 0.0025,
      "velocity": 118,
      "chip": "ym2612"
    },
    {
      "channel": 1,
      "note": 58,
      "start": 3.3435,
      "duration": 0.0009,
      "velocity": 117,
      "chip": "ym2612"
    },
    {
      "channel": 2,
      "note": 70,
      "start": 3.3437,
      "duration": 0.001,
      "velocity": 111,
      "chip": "ym2612"
    },
    {
      "channel": 3,
      "note": 70,
      "start": 3.3439,
      "duration": 0.0009,
      "velocity": 123,
      "chip": "ym2612"
    },
    {
      "channel": 0,
      "note": 45,
      "start": 3.3443,
      "duration": 0.0029,
      "velocity": 117,
      "chip": "ym2612"
    },
    {
      "channel": 1,
      "note": 66,
      "start": 3.3446,
      "duration": 0.0016,
      "velocity": 117,
      "chip": "ym2612"
    },
    {
      "channel": 2,
      "note": 78,
      "start": 3.3447,
      "duration": 0.0018,
      "velocity": 111,
      "chip": "ym2612"
    },
    {
      "channel": 3,
      "note": 78,
      "start": 3.345,
      "duration": 0.0018,
      "velocity": 123,
      "chip": "ym2612"
    },
    {
      "channel": 4,
      "note": 45,
      "start": 3.3453,
      "duration": 0.0029,
      "velocity": 118,
      "chip": "ym2612"
    },
    {
      "channel": 1,
      "note": 68,
      "start": 3.3464,
      "duration": 0.0011,
      "velocity": 117,
      "chip": "ym2612"
    },
    {
      "channel": 2,
      "note": 80,
      "start": 3.3467,
      "duration": 0.001,
      "velocity": 111,
      "chip": "ym2612"
    },
    {
      "channel": 3,
      "note": 80,
      "start": 3.3469,
      "duration": 0.0011,
      "velocity": 123,
      "chip": "ym2612"
    },
    {
      "channel": 0,
      "note": 48,
      "start": 3.3474,
      "duration": 0.0025,
      "velocity": 117,
      "chip": "ym2612"
    },
    {
      "channel": 1,
      "note": 63,
      "start": 3.3477,
      "duration": 0.0015,
      "velocity": 117,
      "chip": "ym2612"
    },
    {
      "channel": 2,
      "note": 75,
      "start": 3.3479,
      "duration": 0.0014,
      "velocity": 111,
      "chip": "ym2612"
    },
    {
      "channel": 3,
      "note": 75,
      "start": 3.3481,
      "duration": 0.0015,
      "velocity": 123,
      "chip": "ym2612"
    },
    {
      "channel": 4,
      "note": 48,
      "start": 3.3484,
      "duration": 0.0027,
      "velocity": 118,
      "chip": "ym2612"
    },
    {
      "channel": 1,
      "note": 66,
      "start": 3.3493,
      "duration": 0.0008,
      "velocity": 117,
      "chip": "ym2612"
    },
    {
      "channel": 2,
      "note": 78,
      "start": 3.3495,
      "duration": 0.0009,
      "velocity": 111,
      "chip": "ym2612"
    },
    {
      "channel": 3,
      "note": 78,
      "start": 3.3497,
      "duration": 0.001,
      "velocity": 123,
      "chip": "ym2612"
    },
    {
      "channel": 0,
      "note": 43,
      "start": 3.3501,
      "duration": 0.0037,
      "velocity": 117,
      "chip": "ym2612"
    },
    {
      "channel": 1,
      "note": 57,
      "start": 3.3504,
      "duration": 0.0024,
      "velocity": 117,
      "chip": "ym2612"
    },
    {
      "channel": 2,
      "note": 69,
      "start": 3.3507,
      "duration": 0.0023,
      "velocity": 111,
      "chip": "ym2612"
    },
    {
      "channel": 3,
      "note": 69,
      "start": 3.351,
      "duration": 0.0022,
      "velocity": 123,
      "chip": "ym2612"
    },
    {
      "channel": 4,
      "note": 43,
      "start": 3.3513,
      "duration": 0.0034,
      "velocity": 118,
      "chip": "ym2612"
    },
    {
      "channel": 1,
      "note": 62,
      "start": 3.3529,
      "duration": 0.0012,
      "velocity": 117,
      "chip": "ym2612"
    },
    {
      "channel": 2,
      "note": 74,
      "start": 3.3531,
      "duration": 0.0012,
      "velocity": 111,
      "chip": "ym2612"
    },
    {
      "channel": 3,
      "note": 74,
      "start": 3.3533,
      "duration": 0.0011,
      "velocity": 123,
      "chip": "ym2612"
    },
    {
      "channel": 0,
      "note": 47,
      "start": 3.3539,
      "duration": 0.0025,
      "velocity": 117,
      "chip": "ym2612"
    },
    {
      "channel": 1,
      "note": 60,
      "start": 3.3542,
      "duration": 0.0015,
      "velocity": 117,
      "chip": "ym2612"
    },
    {
      "channel": 2,
      "note": 72,
      "start": 3.3544,
      "duration": 0.0015,
      "velocity": 111,
      "chip": "ym2612"
    },
    {
      "channel": 3,
      "note": 72,
      "start": 3.3547,
      "duration": 0.0014,
      "velocity": 123,
      "chip": "ym2612"
    },
    {
      "channel": 4,
      "note": 47,
      "start": 3.3549,
      "duration": 0.0025,
      "velocity": 118,
      "chip": "ym2612"
    },
    {
      "channel": 1,
      "note": 65,
      "start": 3.3559,
      "duration": 0.001,
      "velocity": 117,
      "chip": "ym2612"
    },
    {
      "channel": 2,
      "note": 77,
      "start": 3.3561,
      "duration": 0.0009,
      "velocity": 111,
      "chip": "ym2612"
    },
    {
      "channel": 3,
      "note": 77,
      "start": 3.3563,
      "duration": 0.0009,
      "velocity": 123,
      "chip": "ym2612"
    },
    {
      "channel": 0,
      "note": 45,
      "start": 3.3566,
      "duration": 0.0033,
      "velocity": 117,
      "chip": "ym2612"
    },
    {
      "channel": 1,
      "note": 59,
      "start": 3.357,
      "duration": 0.0018,
      "velocity": 117,
      "chip": "ym2612"
    },
    {
      "channel": 2,
      "note": 71,
      "start": 3.3571,
      "duration": 0.002,
      "velocity": 111,
      "chip": "ym2612"
    },
    {
      "channel": 3,
      "note": 71,
      "start": 3.3573,
      "duration": 0.0019,
      "velocity": 123,
      "chip": "ym2612"
    },
    {
      "channel": 4,
      "note": 45,
      "start": 3.3576,
      "duration": 0.0034,
      "velocity": 118,
      "chip": "ym2612"
    },
    {
      "channel": 1,
      "note": 62,
      "start": 3.359,
      "duration": 0.0013,
      "velocity": 117,
      "chip": "ym2612"
    },
    {
      "channel": 2,
      "note": 74,
      "start": 3.3592,
      "duration": 0.0013,
      "velocity": 111,
      "chip": "ym2612"
    },
    {
      "channel": 3,
      "note": 74,
      "start": 3.3594,
      "duration": 0.0013,
      "velocity": 123,
      "chip": "ym2612"
    },
    {
      "channel": 0,
      "note": 53,
      "start": 3.3601,
      "duration": 0.0026,
      "velocity": 117,
      "chip": "ym2612"
    },
    {
      "channel": 1,
      "note": 58,
      "start": 3.3604,
      "duration": 0.0013,
      "velocity": 117,
      "chip": "ym2612"
    },
    {
      "channel": 2,
      "note": 70,
      "start": 3.3606,
      "duration": 0.0013,
      "velocity": 111,
      "chip": "ym2612"
    },
    {
      "channel": 3,
      "note": 70,
      "start": 3.361,
      "duration": 0.0012,
      "velocity": 123,
      "chip": "ym2612"
    },
    {
      "channel": 4,
      "note": 53,
      "start": 3.3612,
      "duration": 0.0028,
      "velocity": 118,
      "chip": "ym2612"
    },
    {
      "channel": 1,
      "note": 55,
      "start": 3.3619,
      "duration": 0.0012,
      "velocity": 117,
      "chip": "ym2612"
    },
    {
      "channel": 2,
      "note": 67,
      "start": 3.3621,
      "duration": 0.0012,
      "velocity": 111,
      "chip": "ym2612"
    },
    {
      "channel": 3,
      "note": 67,
      "start": 3.3624,
      "duration": 0.0012,
      "velocity": 123,
      "chip": "ym2612"
    },
    {
      "channel": 0,
      "note": 47,
      "start": 3.3629,
      "duration": 0.0039,
      "velocity": 117,
      "chip": "ym2612"
    },
    {
      "channel": 1,
      "note": 60,
      "start": 3.3632,
      "duration": 0.0022,
      "velocity": 117,
      "chip": "ym2612"
    },
    {
      "channel": 2,
      "note": 72,
      "start": 3.3636,
      "duration": 0.0022,
      "velocity": 111,
      "chip": "ym2612"
    },
    {
      "channel": 3,
      "note": 72,
      "start": 3.3639,
      "duration": 0.002,
      "velocity": 123,
      "chip": "ym2612"
    },
    {
      "channel": 4,
      "note": 47,
      "start": 3.3641,
      "duration": 0.0037,
      "velocity": 118,
      "chip": "ym2612"
    },
    {
      "channel": 1,
      "note": 54,
      "start": 3.3656,
      "duration": 0.0015,
      "velocity": 117,
      "chip": "ym2612"
    },
    {
      "channel": 2,
      "note": 66,
      "start": 3.3659,
      "duration": 0.0015,
      "velocity": 111,
      "chip": "ym2612"
    },
    {
      "channel": 3,
      "note": 66,
      "start": 3.3662,
      "duration": 0.0014,
      "velocity": 123,
      "chip": "ym2612"
    },
    {
      "channel": 0,
      "note": 51,
      "start": 3.367,
      "duration": 0.0027,
      "velocity": 117,
      "chip": "ym2612"
    },
    {
      "channel": 1,
      "note": 57,
      "start": 3.3673,
      "duration": 0.0015,
      "velocity": 117,
      "chip": "ym2612"
    },
    {
      "channel": 2,
      "note": 69,
      "start": 3.3675,
      "duration": 0.0016,
      "velocity": 111,
      "chip": "ym2612"
    },
    {
      "channel": 3,
      "note": 69,
      "start": 3.3678,
      "duration": 0.0015,
      "velocity": 123,
      "chip": "ym2612"
    },
    {
      "channel": 4,
      "note": 51,
      "start": 3.368,
      "duration": 0.0038,
      "velocity": 118,
      "chip": "ym2612"
    },
    {
      "channel": 1,
      "note": 51,
      "start": 3.369,
      "duration": 0.0016,
      "velocity": 115,
      "chip": "ym2612"
    },
    {
      "channel": 2,
      "note": 63,
      "start": 3.3692,
      "duration": 0.0021,
      "velocity": 113,
      "chip": "ym2612"
    },
    {
      "channel": 3,
      "note": 63,
      "start": 3.3695,
      "duration": 0.0021,
      "velocity": 123,
      "chip": "ym2612"
    },
    {
      "channel": 0,
      "note": 45,
      "start": 3.3698,
      "duration": 0.0037,
      "velocity": 117,
      "chip": "ym2612"
    },
    {
      "channel": 1,
      "note": 69,
      "start": 3.3707,
      "duration": 0.0056,
      "velocity": 115,
      "chip": "ym2612"
    },
    {
      "channel": 2,
      "note": 57,
      "start": 3.3715,
      "duration": 0.0051,
      "velocity": 113,
      "chip": "ym2612"
    },
    {
      "channel": 3,
      "note": 66,
      "start": 3.3718,
      "duration": 0.0013,
      "velocity": 123,
      "chip": "ym2612"
    },
    {
      "channel": 4,
      "note": 45,
      "start": 3.3719,
      "duration": 0.0019,
      "velocity": 118,
      "chip": "ym2612"
    },
    {
      "channel": 0,
      "note": 48,
      "start": 3.3737,
      "duration": 0.0023,
      "velocity": 117,
      "chip": "ym2612"
    },
    {
      "channel": 4,
      "note": 48,
      "start": 3.374,
      "duration": 0.0028,
      "velocity": 118,
      "chip": "ym2612"
    },
    {
      "channel": 0,
      "note": 46,
      "start": 3.3762,
      "duration": 0.0031,
      "velocity": 117,
      "chip": "ym2612"
    },
    {
      "channel": 1,
      "note": 69,
      "start": 3.3765,
      "duration": 0.0038,
      "velocity": 117,
      "chip": "ym2612"
    },
    {
      "channel": 2,
      "note": 57,
      "start": 3.3767,
      "duration": 0.0044,
      "velocity": 111,
      "chip": "ym2612"
    },
    {
      "channel": 4,
      "note": 46,
      "start": 3.3771,
      "duration": 0.0044,
      "velocity": 118,
      "chip": "ym2612"
    },
    {
      "channel": 0,
      "note": 45,
      "start": 3.3795,
      "duration": 0.0042,
      "velocity": 117,
      "chip": "ym2612"
    },
    {
      "channel": 1,
      "note": 81,
      "start": 3.3804,
      "duration": 0.0146,
      "velocity": 117,
      "chip": "ym2612"
    },
    {
      "channel": 2,
      "note": 81,
      "start": 3.3814,
      "duration": 0.0138,
      "velocity": 111,
      "chip": "ym2612"
    },
    {
      "channel": 4,
      "note": 45,
      "start": 3.3817,
      "duration": 0.0023,
      "velocity": 118,
      "chip": "ym2612"
    },
    {
      "channel": 0,
      "note": 53,
      "start": 3.3838,
      "duration": 0.0012,
      "velocity": 117,
      "chip": "ym2612"
    },
    {
      "channel": 4,
      "note": 53,
      "start": 3.3842,
      "duration": 0.001,
      "velocity": 118,
      "chip": "ym2612"
    },
    {
      "channel": 0,
      "note": 47,
      "start": 3.3852,
      "duration": 0.0018,
      "velocity": 117,
      "chip": "ym2612"
    },
    {
      "channel": 4,
      "note": 47,
      "start": 3.3854,
      "duration": 0.0019,
      "velocity": 118,
      "chip": "ym2612"
    },
    {
      "channel": 0,
      "note": 51,
      "start": 3.3872,
      "duration": 0.0013,
      "velocity": 117,
      "chip": "ym2612"
    },
    {
      "channel": 4,
      "note": 51,
      "start": 3.3875,
      "duration": 0.0013,
      "velocity": 118,
      "chip": "ym2612"
    },
    {
      "channel": 0,
      "note": 45,
      "start": 3.3886,
      "duration": 0.002,
      "velocity": 117,
      "chip": "ym2612"
    },
    {
      "channel": 4,
      "note": 45,
      "start": 3.389,
      "duration": 0.0019,
      "velocity": 118,
      "chip": "ym2612"
    },
    {
      "channel": 0,
      "note": 48,
      "start": 3.3908,
      "duration": 0.0008,
      "velocity": 117,
      "chip": "ym2612"
    },
    {
      "channel": 4,
      "note": 48,
      "start": 3.3911,
      "duration": 0.0007,
      "velocity": 118,
      "chip": "ym2612"
    },
    {
      "channel": 0,
      "note": 43,
      "start": 3.3917,
      "duration": 0.0016,
      "velocity": 117,
      "chip": "ym2612"
    },
    {
      "channel": 4,
      "note": 43,
      "start": 3.392,
      "duration": 0.0017,
      "velocity": 118,
      "chip": "ym2612"
    },
    {
      "channel": 0,
      "note": 47,
      "start": 3.3935,
      "duration": 0.0012,
      "velocity": 117,
      "chip": "ym2612"
    },
    {
      "channel": 4,
      "note": 47,
      "start": 3.3939,
      "duration": 0.0014,
      "velocity": 118,
      "chip": "ym2612"
    },
    {
      "channel": 0,
      "note": 45,
      "start": 3.3949,
      "duration": 0.0025,
      "velocity": 117,
      "chip": "ym2612"
    },
    {
      "channel": 1,
      "note": 81,
      "start": 3.395,
      "duration": 0.0078,
      "velocity": 115,
      "chip": "ym2612"
    },
    {
      "channel": 2,
      "note": 81,
      "start": 3.3952,
      "duration": 0.0161,
      "velocity": 111,
      "chip": "ym2612"
    },
    {
      "channel": 4,
      "note": 45,
      "start": 3.3956,
      "duration": 0.0022,
      "velocity": 118,
      "chip": "ym2612"
    },
    {
      "channel": 0,
      "note": 53,
      "start": 3.3976,
      "duration": 0.0015,
      "velocity": 117,
      "chip": "ym2612"
    },
    {
      "channel": 4,
      "note": 53,
      "start": 3.3979,
      "duration": 0.0014,
      "velocity": 118,
      "chip": "ym2612"
    },
    {
      "channel": 0,
      "note": 47,
      "start": 3.3992,
      "duration": 0.0018,
      "velocity": 117,
      "chip": "ym2612"
    },
    {
      "channel": 4,
      "note": 47,
      "start": 3.3995,
      "duration": 0.0018,
      "velocity": 118,
      "chip": "ym2612"
    },
    {
      "channel": 0,
      "note": 51,
      "start": 3.4012,
      "duration": 0.0008,
      "velocity": 117,
      "chip": "ym2612"
    },
    {
      "channel": 4,
      "note": 51,
      "start": 3.4015,
      "duration": 0.0018,
      "velocity": 118,
      "chip": "ym2612"
    },
    {
      "channel": 0,
      "note": 45,
      "start": 3.4021,
      "duration": 0.0031,
      "velocity": 117,
      "chip": "ym2612"
    },
    {
      "channel": 1,
      "note": 81,
      "start": 3.403,
      "duration": 0.0037,
      "velocity": 115,
      "chip": "ym2612"
    },
    {
      "channel": 3,
      "note": 69,
      "start": 3.4033,
      "duration": 0.0038,
      "velocity": 123,
      "chip": "ym2612"
    },
    {
      "channel": 4,
      "note": 45,
      "start": 3.4035,
      "duration": 0.0021,
      "velocity": 118,
      "chip": "ym2612"
    },
    {
      "channel": 0,
      "note": 48,
      "start": 3.4055,
      "duration": 0.0011,
      "velocity": 117,
      "chip": "ym2612"
    },
    {
      "channel": 4,
      "note": 48,
      "start": 3.4057,
      "duration": 0.0016,
      "velocity": 118,
      "chip": "ym2612"
    },
    {
      "channel": 0,
      "note": 43,
      "start": 3.4067,
      "duration": 0.0019,
      "velocity": 117,
      "chip": "ym2612"
    },
    {
      "channel": 1,
      "note": 81,
      "start": 3.4069,
      "duration": 0.0041,
      "velocity": 117,
      "chip": "ym2612"
    },
    {
      "channel": 3,
      "note": 69,
      "start": 3.4072,
      "duration": 0.0043,
      "velocity": 123,
      "chip": "ym2612"
    },
    {
      "channel": 4,
      "note": 43,
      "start": 3.4074,
      "duration": 0.0015,
      "velocity": 118,
      "chip": "ym2612"
    },
    {
      "channel": 0,
      "note": 50,
      "start": 3.4088,
      "duration": 0.0014,
      "velocity": 117,
      "chip": "ym2612"
    },
    {
      "channel": 4,
      "note": 50,
      "start": 3.4091,
      "duration": 0.0025,
      "velocity": 118,
      "chip": "ym2612"
    },
    {
      "channel": 0,
      "note": 45,
      "start": 3.4104,
      "duration": 0.0032,
      "velocity": 117,
      "chip": "ym2612"
    },
    {
      "channel": 1,
      "note": 57,
      "start": 3.4112,
      "duration": 0.0145,
      "velocity": 117,
      "chip": "ym2612"
    },
    {
      "channel": 2,
      "note": 57,
      "start": 3.4114,
      "duration": 0.0145,
      "velocity": 111,
      "chip": "ym2612"
    },
    {
      "channel": 4,
      "note": 45,
      "start": 3.4118,
      "duration": 0.002,
      "velocity": 118,
      "chip": "ym2612"
    },
    {
      "channel": 0,
      "note": 53,
      "start": 3.4137,
      "duration": 0.0014,
      "velocity": 117,
      "chip": "ym2612"
    },
    {
      "channel": 4,
      "note": 53,
      "start": 3.4141,
      "duration": 0.0014,
      "velocity": 118,
      "chip": "ym2612"
    },
    {
      "channel": 0,
      "note": 47,
      "start": 3.4153,
      "duration": 0.002,
      "velocity": 117,
      "chip": "ym2612"
    },
    {
      "channel": 4,
      "note": 47,
      "start": 3.4156,
      "duration": 0.0021,
      "velocity": 118,
      "chip": "ym2612"
    },
    {
      "channel": 0,
      "note": 51,
      "start": 3.4176,
      "duration": 0.0012,
      "velocity": 117,
      "chip": "ym2612"
    },
    {
      "channel": 4,
      "note": 51,
      "start": 3.418,
      "duration": 0.0011,
      "velocity": 118,
      "chip": "ym2612"
    },
    {
      "channel": 0,
      "note": 45,
      "start": 3.419,
      "duration": 0.0018,
      "velocity": 117,
      "chip": "ym2612"
    },
    {
      "channel": 4,
      "note": 45,
      "start": 3.4193,
      "duration": 0.0018,
      "velocity": 118,
      "chip": "ym2612"
    },
    {
      "channel": 0,
      "note": 48,
      "start": 3.421,
      "duration": 0.0012,
      "velocity": 117,
      "chip": "ym2612"
    },
    {
      "channel": 4,
      "note": 48,
      "start": 3.4213,
      "duration": 0.0011,
      "velocity": 118,
      "chip": "ym2612"
    },
    {
      "channel": 0,
      "note": 43,
      "start": 3.4223,
      "duration": 0.0017,
      "velocity": 117,
      "chip": "ym2612"
    },
    {
      "channel": 4,
      "note": 43,
      "start": 3.4225,
      "duration": 0.0018,
      "velocity": 118,
      "chip": "ym2612"
    },
    {
      "channel": 0,
      "note": 47,
      "start": 3.4242,
      "duration": 0.0012,
      "velocity": 117,
      "chip": "ym2612"
    },
    {
      "channel": 4,
      "note": 47,
      "start": 3.4246,
      "duration": 0.0014,
      "velocity": 118,
      "chip": "ym2612"
    },
    {
      "channel": 0,
      "note": 45,
      "start": 3.4256,
      "duration": 0.0025,
      "velocity": 117,
      "chip": "ym2612"
    },
    {
      "channel": 1,
      "note": 57,
      "start": 3.4258,
      "duration": 0.0078,
      "velocity": 115,
      "chip": "ym2612"
    },
    {
      "channel": 2,
      "note": 57,
      "start": 3.4259,
      "duration": 0.0156,
      "velocity": 111,
      "chip": "ym2612"
    },
    {
      "channel": 4,
      "note": 45,
      "start": 3.4263,
      "duration": 0.0022,
      "velocity": 118,
      "chip": "ym2612"
    },
    {
      "channel": 0,
      "note": 53,
      "start": 3.4283,
      "duration": 0.0015,
      "velocity": 117,
      "chip": "ym2612"
    },
    {
      "channel": 4,
      "note": 53,
      "start": 3.4287,
      "duration": 0.0014,
      "velocity": 118,
      "chip": "ym2612"
    },
    {
      "channel": 0,
      "note": 47,
      "start": 3.4299,
      "duration": 0.0018,
      "velocity": 117,
      "chip": "ym2612"
    },
    {
      "channel": 4,
      "note": 47,
      "start": 3.4302,
      "duration": 0.0018,
      "velocity": 118,
      "chip": "ym2612"
    },
    {
      "channel": 0,
      "note": 51,
      "start": 3.4319,
      "duration": 0.0008,
      "velocity": 117,
      "chip": "ym2612"
    },
    {
      "channel": 4,
      "note": 51,
      "start": 3.4322,
      "duration": 0.0018,
      "velocity": 118,
      "chip": "ym2612"
    },
    {
      "channel": 0,
      "note": 45,
      "start": 3.4329,
      "duration": 0.0031,
      "velocity": 117,
      "chip": "ym2612"
    },
    {
      "channel": 1,
      "note": 57,
      "start": 3.4338,
      "duration": 0.0038,
      "velocity": 115,
      "chip": "ym2612"
    },
    {
      "channel": 3,
      "note": 69,
      "start": 3.434,
      "duration": 0.0039,
      "velocity": 123,
      "chip": "ym2612"
    },
    {
      "channel": 4,
      "note": 45,
      "start": 3.4342,
      "duration": 0.0021,
      "velocity": 118,
      "chip": "ym2612"
    },
    {
      "channel": 0,
      "note": 48,
      "start": 3.4362,
      "duration": 0.0011,
      "velocity": 117,
      "chip": "ym2612"
    },
    {
      "channel": 4,
      "note": 48,
      "start": 3.4364,
      "duration": 0.0017,
      "velocity": 118,
      "chip": "ym2612"
    },
    {
      "channel": 0,
      "note": 43,
      "start": 3.4375,
      "duration": 0.0029,
      "velocity": 117,
      "chip": "ym2612"
    },
    {
      "channel": 1,
      "note": 57,
      "start": 3.4378,
      "duration": 0.0034,
      "velocity": 117,
      "chip": "ym2612"
    },
    {
      "channel": 3,
      "note": 69,
      "start": 3.438,
      "duration": 0.0038,
      "velocity": 123,
      "chip": "ym2612"
    },
    {
      "channel": 4,
      "note": 43,
      "start": 3.4383,
      "duration": 0.0039,
      "velocity": 118,
      "chip": "ym2612"
    },
    {
      "channel": 0,
      "note": 45,
      "start": 3.4405,
      "duration": 0.0038,
      "velocity": 117,
      "chip": "ym2612"
    },
    {
      "channel": 1,
      "note": 81,
      "start": 3.4415,
      "duration": 0.0157,
      "velocity": 117,
      "chip": "ym2612"
    },
    {
      "channel": 2,
      "note": 81,
      "start": 3.4418,
      "duration": 0.0155,
      "velocity": 111,
      "chip": "ym2612"
    },
    {
      "channel": 3,
      "note": 69,
      "start": 3.4421,
      "duration": 0.0153,
      "velocity": 123,
      "chip": "ym2612"
    },
    {
      "channel": 4,
      "note": 45,
      "start": 3.4425,
      "duration": 0.0022,
      "velocity": 118,
      "chip": "ym2612"
    },
    {
      "channel": 0,
      "note": 53,
      "start": 3.4445,
      "duration": 0.0028,
      "velocity": 117,
      "chip": "ym2612"
    },
    {
      "channel": 4,
      "note": 53,
      "start": 3.4449,
      "duration": 0.0026,
      "velocity": 118,
      "chip": "ym2612"
    },
    {
      "channel": 0,
      "note": 47,
      "start": 3.4474,
      "duration": 0.0018,
      "velocity": 117,
      "chip": "ym2612"
    },
    {
      "channel": 4,
      "note": 47,
      "start": 3.4477,
      "duration": 0.0017,
      "velocity": 118,
      "chip": "ym2612"
    },
    {
      "channel": 0,
      "note": 51,
      "start": 3.4493,
      "duration": 0.0011,
      "velocity": 117,
      "chip": "ym2612"
    },
    {
      "channel": 4,
      "note": 51,
      "start": 3.4496,
      "duration": 0.0011,
      "velocity": 118,
      "chip": "ym2612"
    },
    {
      "channel": 0,
      "note": 45,
      "start": 3.4505,
      "duration": 0.0018,
      "velocity": 117,
      "chip": "ym2612"
    },
    {
      "channel": 4,
      "note": 45,
      "start": 3.4508,
      "duration": 0.0018,
      "velocity": 118,
      "chip": "ym2612"
    },
    {
      "channel": 0,
      "note": 48,
      "start": 3.4525,
      "duration": 0.0011,
      "velocity": 117,
      "chip": "ym2612"
    },
    {
      "channel": 4,
      "note": 48,
      "start": 3.4528,
      "duration": 0.0011,
      "velocity": 118,
      "chip": "ym2612"
    },
    {
      "channel": 0,
      "note": 43,
      "start": 3.4538,
      "duration": 0.0018,
      "velocity": 117,
      "chip": "ym2612"
    },
    {
      "channel": 4,
      "note": 43,
      "start": 3.4541,
      "duration": 0.0019,
      "velocity": 118,
      "chip": "ym2612"
    },
    {
      "channel": 0,
      "note": 47,
      "start": 3.4558,
      "duration": 0.001,
      "velocity": 117,
      "chip": "ym2612"
    },
    {
      "channel": 4,
      "note": 47,
      "start": 3.4561,
      "duration": 0.0015,
      "velocity": 118,
      "chip": "ym2612"
    },
    {
      "channel": 0,
      "note": 45,
      "start": 3.457,
      "duration": 0.0025,
      "velocity": 117,
      "chip": "ym2612"
    },
    {
      "channel": 1,
      "note": 81,
      "start": 3.4572,
      "duration": 0.0191,
      "velocity": 114,
      "chip": "ym2612"
    },
    {
      "channel": 2,
      "note": 81,
      "start": 3.4573,
      "duration": 0.0192,
      "velocity": 111,
      "chip": "ym2612"
    },
    {
      "channel": 3,
      "note": 69,
      "start": 3.4576,
      "duration": 0.0191,
      "velocity": 123,
      "chip": "ym2612"
    },
    {
      "channel": 4,
      "note": 45,
      "start": 3.4578,
      "duration": 0.002,
      "velocity": 118,
      "chip": "ym2612"
    },
    {
      "channel": 0,
      "note": 53,
      "start": 3.4597,
      "duration": 0.0013,
      "velocity": 117,
      "chip": "ym2612"
    },
    {
      "channel": 4,
      "note": 53,
      "start": 3.46,
      "duration": 0.0013,
      "velocity": 118,
      "chip": "ym2612"
    },
    {
      "channel": 0,
      "note": 47,
      "start": 3.4612,
      "duration": 0.0023,
      "velocity": 117,
      "chip": "ym2612"
    },
    {
      "channel": 4,
      "note": 47,
      "start": 3.4615,
      "duration": 0.0023,
      "velocity": 118,
      "chip": "ym2612"
    },
    {
      "channel": 0,
      "note": 51,
      "start": 3.4637,
      "duration": 0.0012,
      "velocity": 117,
      "chip": "ym2612"
    },
    {
      "channel": 4,
      "note": 51,
      "start": 3.4639,
      "duration": 0.0011,
      "velocity": 118,
      "chip": "ym2612"
    },
    {
      "channel": 0,
      "note": 45,
      "start": 3.465,
      "duration": 0.0024,
      "velocity": 117,
      "chip": "ym2612"
    },
    {
      "channel": 4,
      "note": 45,
      "start": 3.4652,
      "duration": 0.0024,
      "velocity": 118,
      "chip": "ym2612"
    },
    {
      "channel": 0,
      "note": 48,
      "start": 3.4675,
      "duration": 0.0027,
      "velocity": 117,
      "chip": "ym2612"
    },
    {
      "channel": 4,
      "note": 48,
      "start": 3.4678,
      "duration": 0.003,
      "velocity": 118,
      "chip": "ym2612"
    },
    {
      "channel": 0,
      "note": 44,
      "start": 3.4705,
      "duration": 0.0049,
      "velocity": 117,
      "chip": "ym2612"
    },
    {
      "channel": 4,
      "note": 44,
      "start": 3.4709,
      "duration": 0.0058,
      "velocity": 118,
      "chip": "ym2612"
    },
    {
      "channel": 0,
      "note": 45,
      "start": 3.4756,
      "duration": 0.0056,
      "velocity": 117,
      "chip": "ym2612"
    },
    {
      "channel": 1,
      "note": 45,
      "start": 3.4765,
      "duration": 0.005,
      "velocity": 114,
      "chip": "ym2612"
    },
    {
      "channel": 4,
      "note": 45,
      "start": 3.4769,
      "duration": 0.005,
      "velocity": 118,
      "chip": "ym2612"
    },
    {
      "channel": 0,
      "note": 40,
      "start": 3.4814,
      "duration": 0.0023,
      "velocity": 117,
      "chip": "ym2612"
    },
    {
      "channel": 1,
      "note": 40,
      "start": 3.4817,
      "duration": 0.0022,
      "velocity": 114,
      "chip": "ym2612"
    },
    {
      "channel": 4,
      "note": 40,
      "start": 3.4821,
      "duration": 0.0022,
      "velocity": 118,
      "chip": "ym2612"
    },
    {
      "channel": 0,
      "note": 43,
      "start": 3.4839,
      "duration": 0.0015,
      "velocity": 117,
      "chip": "ym2612"
    },
    {
      "channel": 1,
      "note": 43,
      "start": 3.4842,
      "duration": 0.0014,
      "velocity": 114,
      "chip": "ym2612"
    },
    {
      "channel": 4,
      "note": 43,
      "start": 3.4845,
      "duration": 0.0013,
      "velocity": 118,
      "chip": "ym2612"
    },
    {
      "channel": 0,
      "note": 40,
      "start": 3.4855,
      "duration": 0.0021,
      "velocity": 117,
      "chip": "ym2612"
    },
    {
      "channel": 1,
      "note": 40,
      "start": 3.4857,
      "duration": 0.0021,
      "velocity": 114,
      "chip": "ym2612"
    },
    {
      "channel": 4,
      "note": 40,
      "start": 3.486,
      "duration": 0.0021,
      "velocity": 118,
      "chip": "ym2612"
    },
    {
      "channel": 0,
      "note": 43,
      "start": 3.4878,
      "duration": 0.0014,
      "velocity": 117,
      "chip": "ym2612"
    },
    {
      "channel": 1,
      "note": 43,
      "start": 3.488,
      "duration": 0.0013,
      "velocity": 114,
      "chip": "ym2612"
    },
    {
      "channel": 4,
      "note": 43,
      "start": 3.4883,
      "duration": 0.0013,
      "velocity": 118,
      "chip": "ym2612"
    },
    {
      "channel": 0,
      "note": 46,
      "start": 3.4893,
      "duration": 0.0021,
      "velocity": 117,
      "chip": "ym2612"
    },
    {
      "channel": 1,
      "note": 46,
      "start": 3.4895,
      "duration": 0.0021,
      "velocity": 114,
      "chip": "ym2612"
    },
    {
      "channel": 4,
      "note": 46,
      "start": 3.4898,
      "duration": 0.0021,
      "velocity": 118,
      "chip": "ym2612"
    },
    {
      "channel": 0,
      "note": 43,
      "start": 3.4915,
      "duration": 0.0014,
      "velocity": 117,
      "chip": "ym2612"
    },
    {
      "channel": 1,
      "note": 43,
      "start": 3.4918,
      "duration": 0.0014,
      "velocity": 114,
      "chip": "ym2612"
    },
    {
      "channel": 4,
      "note": 43,
      "start": 3.4921,
      "duration": 0.0015,
      "velocity": 118,
      "chip": "ym2612"
    },
    {
      "channel": 0,
      "note": 45,
      "start": 3.4931,
      "duration": 0.0036,
      "velocity": 117,
      "chip": "ym2612"
    },
    {
      "channel": 1,
      "note": 45,
      "start": 3.4933,
      "duration": 0.0036,
      "velocity": 114,
      "chip": "ym2612"
    },
    {
      "channel": 4,
      "note": 45,
      "start": 3.4938,
      "duration": 0.0035,
      "velocity": 118,
      "chip": "ym2612"
    },
    {
      "channel": 0,
      "note": 40,
      "start": 3.4969,
      "duration": 0.0023,
      "velocity": 117,
      "chip": "ym2612"
    },
    {
      "channel": 1,
      "note": 40,
      "start": 3.4972,
      "duration": 0.0023,
      "velocity": 114,
      "chip": "ym2612"
    },
    {
      "channel": 4,
      "note": 40,
      "start": 3.4976,
      "duration": 0.0022,
      "velocity": 118,
      "chip": "ym2612"
    },
    {
      "channel": 0,
      "note": 43,
      "start": 3.4994,
      "duration": 0.0011,
      "velocity": 117,
      "chip": "ym2612"
    },
    {
      "channel": 1,
      "note": 43,
      "start": 3.4997,
      "duration": 0.001,
      "velocity": 114,
      "chip": "ym2612"
    },
    {
      "channel": 4,
      "note": 43,
      "start": 3.5,
      "duration": 0.001,
      "velocity": 118,
      "chip": "ym2612"
    },
    {
      "channel": 0,
      "note": 46,
      "start": 3.5006,
      "duration": 0.0017,
      "velocity": 117,
      "chip": "ym2612"
    },
    {
      "channel": 1,
      "note": 46,
      "start": 3.5009,
      "duration": 0.0018,
      "velocity": 114,
      "chip": "ym2612"
    },
    {
      "channel": 4,
      "note": 46,
      "start": 3.5012,
      "duration": 0.0018,
      "velocity": 118,
      "chip": "ym2612"
    },
    {
      "channel": 0,
      "note": 43,
      "start": 3.5026,
      "duration": 0.0015,
      "velocity": 117,
      "chip": "ym2612"
    },
    {
      "channel": 1,
      "note": 43,
      "start": 3.5029,
      "duration": 0.0014,
      "velocity": 114,
      "chip": "ym2612"
    },
    {
      "channel": 4,
      "note": 43,
      "start": 3.5032,
      "duration": 0.0013,
      "velocity": 118,
      "chip": "ym2612"
    },
    {
      "channel": 0,
      "note": 42,
      "start": 3.5042,
      "duration": 0.0015,
      "velocity": 117,
      "chip": "ym2612"
    },
    {
      "channel": 1,
      "note": 42,
      "start": 3.5044,
      "duration": 0.0015,
      "velocity": 114,
      "chip": "ym2612"
    },
    {
      "channel": 4,
      "note": 42,
      "start": 3.5047,
      "duration": 0.0015,
      "velocity": 118,
      "chip": "ym2612"
    },
    {
      "channel": 0,
      "note": 43,
      "start": 3.5058,
      "duration": 0.0016,
      "velocity": 117,
      "chip": "ym2612"
    },
    {
      "channel": 1,
      "note": 43,
      "start": 3.5061,
      "duration": 0.0017,
      "velocity": 114,
      "chip": "ym2612"
    },
    {
      "channel": 4,
      "note": 43,
      "start": 3.5063,
      "duration": 0.0018,
      "velocity": 118,
      "chip": "ym2612"
    },
    {
      "channel": 0,
      "note": 45,
      "start": 3.5076,
      "duration": 0.0037,
      "velocity": 117,
      "chip": "ym2612"
    },
    {
      "channel": 1,
      "note": 45,
      "start": 3.5079,
      "duration": 0.0038,
      "velocity": 114,
      "chip": "ym2612"
    },
    {
      "channel": 4,
      "note": 45,
      "start": 3.5083,
      "duration": 0.0038,
      "velocity": 118,
      "chip": "ym2612"
    },
    {
      "channel": 0,
      "note": 40,
      "start": 3.5115,
      "duration": 0.0023,
      "velocity": 117,
      "chip": "ym2612"
    },
    {
      "channel": 1,
      "note": 40,
      "start": 3.5118,
      "duration": 0.0023,
      "velocity": 114,
      "chip": "ym2612"
    },
    {
      "channel": 4,
      "note": 40,
      "start": 3.5122,
      "duration": 0.0022,
      "velocity": 118,
      "chip": "ym2612"
    },
    {
      "channel": 0,
      "note": 43,
      "start": 3.514,
      "duration": 0.0014,
      "velocity": 117,
      "chip": "ym2612"
    },
    {
      "channel": 1,
      "note": 43,
      "start": 3.5143,
      "duration": 0.0013,
      "velocity": 114,
      "chip": "ym2612"
    },
    {
      "channel": 4,
      "note": 43,
      "start": 3.5146,
      "duration": 0.0013,
      "velocity": 118,
      "chip": "ym2612"
    },
    {
      "channel": 0,
      "note": 40,
      "start": 3.5156,
      "duration": 0.0018,
      "velocity": 117,
      "chip": "ym2612"
    },
    {
      "channel": 1,
      "note": 40,
      "start": 3.5158,
      "duration": 0.002,
      "velocity": 114,
      "chip": "ym2612"
    },
    {
      "channel": 4,
      "note": 40,
      "start": 3.5161,
      "duration": 0.002,
      "velocity": 118,
      "chip": "ym2612"
    },
    {
      "channel": 0,
      "note": 43,
      "start": 3.5177,
      "duration": 0.0016,
      "velocity": 117,
      "chip": "ym2612"
    },
    {
      "channel": 1,
      "note": 43,
      "start": 3.518,
      "duration": 0.0015,
      "velocity": 114,
      "chip": "ym2612"
    },
    {
      "channel": 4,
      "note": 43,
      "start": 3.5183,
      "duration": 0.0014,
      "velocity": 118,
      "chip": "ym2612"
    },
    {
      "channel": 0,
      "note": 46,
      "start": 3.5194,
      "duration": 0.002,
      "velocity": 117,
      "chip": "ym2612"
    },
    {
      "channel": 1,
      "note": 46,
      "start": 3.5196,
      "duration": 0.002,
      "velocity": 114,
      "chip": "ym2612"
    },
    {
      "channel": 4,
      "note": 46,
      "start": 3.5199,
      "duration": 0.0021,
      "velocity": 118,
      "chip": "ym2612"
    },
    {
      "channel": 0,
      "note": 43,
      "start": 3.5216,
      "duration": 0.0015,
      "velocity": 117,
      "chip": "ym2612"
    },
    {
      "channel": 1,
      "note": 43,
      "start": 3.5219,
      "duration": 0.0014,
      "velocity": 114,
      "chip": "ym2612"
    },
    {
      "channel": 4,
      "note": 43,
      "start": 3.5222,
      "duration": 0.0015,
      "velocity": 118,
      "chip": "ym2612"
    },
    {
      "channel": 0,
      "note": 45,
      "start": 3.5232,
      "duration": 0.0031,
      "velocity": 117,
      "chip": "ym2612"
    },
    {
      "channel": 1,
      "note": 45,
      "start": 3.5234,
      "duration": 0.0032,
      "velocity": 114,
      "chip": "ym2612"
    },
    {
      "channel": 4,
      "note": 45,
      "start": 3.5238,
      "duration": 0.0031,
      "velocity": 118,
      "chip": "ym2612"
    },
    {
      "channel": 0,
      "note": 40,
      "start": 3.5265,
      "duration": 0.0023,
      "velocity": 117,
      "chip": "ym2612"
    },
    {
      "channel": 1,
      "note": 40,
      "start": 3.5268,
      "duration": 0.0023,
      "velocity": 114,
      "chip": "ym2612"
    },
    {
      "channel": 4,
      "note": 40,
      "start": 3.5272,
      "duration": 0.0022,
      "velocity": 118,
      "chip": "ym2612"
    },
    {
      "channel": 0,
      "note": 43,
      "start": 3.529,
      "duration": 0.0015,
      "velocity": 117,
      "chip": "ym2612"
    },
    {
      "channel": 1,
      "note": 43,
      "start": 3.5293,
      "duration": 0.0014,
      "velocity": 114,
      "chip": "ym2612"
    },
    {
      "channel": 4,
      "note": 43,
      "start": 3.5296,
      "duration": 0.0013,
      "velocity": 118,
      "chip": "ym2612"
    },
    {
      "channel": 0,
      "note": 46,
      "start": 3.5306,
      "duration": 0.0018,
      "velocity": 117,
      "chip": "ym2612"
    },
    {
      "channel": 1,
      "note": 46,
      "start": 3.5309,
      "duration": 0.0019,
      "velocity": 114,
      "chip": "ym2612"
    },
    {
      "channel": 4,
      "note": 46,
      "start": 3.5311,
      "duration": 0.0019,
      "velocity": 118,
      "chip": "ym2612"
    },
    {
      "channel": 0,
      "note": 43,
      "start": 3.5326,
      "duration": 0.0015,
      "velocity": 117,
      "chip": "ym2612"
    },
    {
      "channel": 1,
      "note": 43,
      "start": 3.5329,
      "duration": 0.0014,
      "velocity": 114,
      "chip": "ym2612"
    },
    {
      "channel": 4,
      "note": 43,
      "start": 3.5333,
      "duration": 0.0013,
      "velocity": 118,
      "chip": "ym2612"
    },
    {
      "channel": 0,
      "note": 42,
      "start": 3.5343,
      "duration": 0.0025,
      "velocity": 117,
      "chip": "ym2612"
    },
    {
      "channel": 1,
      "note": 42,
      "start": 3.5345,
      "duration": 0.0026,
      "velocity": 114,
      "chip": "ym2612"
    },
    {
      "channel": 4,
      "note": 42,
      "start": 3.5348,
      "duration": 0.0027,
      "velocity": 118,
      "chip": "ym2612"
    },
    {
      "channel": 0,
      "note": 43,
      "start": 3.537,
      "duration": 0.0036,
      "velocity": 117,
      "chip": "ym2612"
    },
    {
      "channel": 1,
      "note": 43,
      "start": 3.5373,
      "duration": 0.0037,
      "velocity": 114,
      "chip": "ym2612"
    },
    {
      "channel": 4,
      "note": 43,
      "start": 3.5377,
      "duration": 0.0039,
      "velocity": 118,
      "chip": "ym2612"
    },
    {
      "channel": 0,
      "note": 43,
      "start": 3.5409,
      "duration": 0.0029,
      "velocity": 117,
      "chip": "ym2612"
    },
    {
      "channel": 1,
      "note": 43,
      "start": 3.5412,
      "duration": 0.0028,
      "velocity": 114,
      "chip": "ym2612"
    },
    {
      "channel": 4,
      "note": 43,
      "start": 3.5419,
      "duration": 0.0025,
      "velocity": 118,
      "chip": "ym2612"
    },
    {
      "channel": 0,
      "note": 47,
      "start": 3.5439,
      "duration": 0.0017,
      "velocity": 117,
      "chip": "ym2612"
    },
    {
      "channel": 1,
      "note": 47,
      "start": 3.5442,
      "duration": 0.0017,
      "velocity": 114,
      "chip": "ym2612"
    },
    {
      "channel": 4,
      "note": 47,
      "start": 3.5446,
      "duration": 0.0016,
      "velocity": 118,
      "chip": "ym2612"
    },
    {
      "channel": 0,
      "note": 49,
      "start": 3.5458,
      "duration": 0.0019,
      "velocity": 117,
      "chip": "ym2612"
    },
    {
      "channel": 1,
      "note": 49,
      "start": 3.5461,
      "duration": 0.0019,
      "velocity": 114,
      "chip": "ym2612"
    },
    {
      "channel": 4,
      "note": 49,
      "start": 3.5463,
      "duration": 0.0019,
      "velocity": 118,
      "chip": "ym2612"
    },
    {
      "channel": 0,
      "note": 47,
      "start": 3.5479,
      "duration": 0.0015,
      "velocity": 117,
      "chip": "ym2612"
    },
    {
      "channel": 1,
      "note": 47,
      "start": 3.5482,
      "duration": 0.0014,
      "velocity": 114,
      "chip": "ym2612"
    },
    {
      "channel": 4,
      "note": 47,
      "start": 3.5485,
      "duration": 0.0013,
      "velocity": 118,
      "chip": "ym2612"
    },
    {
      "channel": 0,
      "note": 43,
      "start": 3.5495,
      "duration": 0.0021,
      "velocity": 117,
      "chip": "ym2612"
    },
    {
      "channel": 1,
      "note": 43,
      "start": 3.5497,
      "duration": 0.0021,
      "velocity": 114,
      "chip": "ym2612"
    },
    {
      "channel": 4,
      "note": 43,
      "start": 3.55,
      "duration": 0.0021,
      "velocity": 118,
      "chip": "ym2612"
    },
    {
      "channel": 0,
      "note": 47,
      "start": 3.5517,
      "duration": 0.0014,
      "velocity": 117,
      "chip": "ym2612"
    },
    {
      "channel": 1,
      "note": 47,
      "start": 3.552,
      "duration": 0.0013,
      "velocity": 114,
      "chip": "ym2612"
    },
    {
      "channel": 4,
      "note": 47,
      "start": 3.5523,
      "duration": 0.0013,
      "velocity": 118,
      "chip": "ym2612"
    },
    {
      "channel": 0,
      "note": 43,
      "start": 3.5533,
      "duration": 0.0021,
      "velocity": 117,
      "chip": "ym2612"
    },
    {
      "channel": 1,
      "note": 43,
      "start": 3.5535,
      "duration": 0.0021,
      "velocity": 114,
      "chip": "ym2612"
    },
    {
      "channel": 4,
      "note": 43,
      "start": 3.5538,
      "duration": 0.0021,
      "velocity": 118,
      "chip": "ym2612"
    },
    {
      "channel": 0,
      "note": 46,
      "start": 3.5555,
      "duration": 0.0014,
      "velocity": 117,
      "chip": "ym2612"
    },
    {
      "channel": 1,
      "note": 46,
      "start": 3.5558,
      "duration": 0.0013,
      "velocity": 114,
      "chip": "ym2612"
    },
    {
      "channel": 4,
      "note": 46,
      "start": 3.5561,
      "duration": 0.0014,
      "velocity": 118,
      "chip": "ym2612"
    },
    {
      "channel": 0,
      "note": 43,
      "start": 3.5571,
      "duration": 0.0022,
      "velocity": 117,
      "chip": "ym2612"
    },
    {
      "channel": 1,
      "note": 43,
      "start": 3.5573,
      "duration": 0.0022,
      "velocity": 114,
      "chip": "ym2612"
    },
    {
      "channel": 4,
      "note": 43,
      "start": 3.5576,
      "duration": 0.0022,
      "velocity": 118,
      "chip": "ym2612"
    },
    {
      "channel": 0,
      "note": 47,
      "start": 3.5594,
      "duration": 0.0016,
      "velocity": 117,
      "chip": "ym2612"
    },
    {
      "channel": 1,
      "note": 47,
      "start": 3.5597,
      "duration": 0.0015,
      "velocity": 114,
      "chip": "ym2612"
    },
    {
      "channel": 4,
      "note": 47,
      "start": 3.56,
      "duration": 0.0015,
      "velocity": 118,
      "chip": "ym2612"
    },
    {
      "channel": 0,
      "note": 49,
      "start": 3.5612,
      "duration": 0.0017,
      "velocity": 117,
      "chip": "ym2612"
    },
    {
      "channel": 1,
      "note": 49,
      "start": 3.5615,
      "duration": 0.0017,
      "velocity": 114,
      "chip": "ym2612"
    },
    {
      "channel": 4,
      "note": 49,
      "start": 3.5617,
      "duration": 0.0018,
      "velocity": 118,
      "chip": "ym2612"
    },
    {
      "channel": 0,
      "note": 47,
      "start": 3.563,
      "duration": 0.0015,
      "velocity": 117,
      "chip": "ym2612"
    },
    {
      "channel": 1,
      "note": 47,
      "start": 3.5633,
      "duration": 0.0014,
      "velocity": 114,
      "chip": "ym2612"
    },
    {
      "channel": 4,
      "note": 47,
      "start": 3.5636,
      "duration": 0.0014,
      "velocity": 118,
      "chip": "ym2612"
    },
    {
      "channel": 0,
      "note": 43,
      "start": 3.5646,
      "duration": 0.0019,
      "velocity": 117,
      "chip": "ym2612"
    },
    {
      "channel": 1,
      "note": 43,
      "start": 3.5649,
      "duration": 0.0019,
      "velocity": 114,
      "chip": "ym2612"
    },
    {
      "channel": 4,
      "note": 43,
      "start": 3.5651,
      "duration": 0.002,
      "velocity": 118,
      "chip": "ym2612"
    },
    {
      "channel": 0,
      "note": 47,
      "start": 3.5667,
      "duration": 0.0014,
      "velocity": 117,
      "chip": "ym2612"
    },
    {
      "channel": 1,
      "note": 47,
      "start": 3.567,
      "duration": 0.0014,
      "velocity": 114,
      "chip": "ym2612"
    },
    {
      "channel": 4,
      "note": 47,
      "start": 3.5672,
      "duration": 0.0015,
      "velocity": 118,
      "chip": "ym2612"
    },
    {
      "channel": 0,
      "note": 43,
      "start": 3.5683,
      "duration": 0.0025,
      "velocity": 117,
      "chip": "ym2612"
    },
    {
      "channel": 1,
      "note": 43,
      "start": 3.5685,
      "duration": 0.0026,
      "velocity": 114,
      "chip": "ym2612"
    },
    {
      "channel": 4,
      "note": 43,
      "start": 3.5688,
      "duration": 0.003,
      "velocity": 118,
      "chip": "ym2612"
    },
    {
      "channel": 0,
      "note": 45,
      "start": 3.571,
      "duration": 0.0043,
      "velocity": 117,
      "chip": "ym2612"
    },
    {
      "channel": 1,
      "note": 45,
      "start": 3.5714,
      "duration": 0.0041,
      "velocity": 114,
      "chip": "ym2612"
    },
    {
      "channel": 4,
      "note": 45,
      "start": 3.5721,
      "duration": 0.0036,
      "velocity": 118,
      "chip": "ym2612"
    },
    {
      "channel": 0,
      "note": 40,
      "start": 3.5754,
      "duration": 0.0022,
      "velocity": 117,
      "chip": "ym2612"
    },
    {
      "channel": 1,
      "note": 40,
      "start": 3.5756,
      "duration": 0.0022,
      "velocity": 114,
      "chip": "ym2612"
    },
    {
      "channel": 4,
      "note": 40,
      "start": 3.576,
      "duration": 0.0022,
      "velocity": 118,
      "chip": "ym2612"
    },
    {
      "channel": 0,
      "note": 43,
      "start": 3.5778,
      "duration": 0.0015,
      "velocity": 117,
      "chip": "ym2612"
    },
    {
      "channel": 1,
      "note": 43,
      "start": 3.5781,
      "duration": 0.0014,
      "velocity": 114,
      "chip": "ym2612"
    },
    {
      "channel": 4,
      "note": 43,
      "start": 3.5783,
      "duration": 0.0015,
      "velocity": 118,
      "chip": "ym2612"
    },
    {
      "channel": 0,
      "note": 40,
      "start": 3.5794,
      "duration": 0.0019,
      "velocity": 117,
      "chip": "ym2612"
    },
    {
      "channel": 1,
      "note": 40,
      "start": 3.5797,
      "duration": 0.0019,
      "velocity": 114,
      "chip": "ym2612"
    },
    {
      "channel": 4,
      "note": 40,
      "start": 3.5799,
      "duration": 0.002,
      "velocity": 118,
      "chip": "ym2612"
    },
    {
      "channel": 0,
      "note": 43,
      "start": 3.5815,
      "duration": 0.0015,
      "velocity": 117,
      "chip": "ym2612"
    },
    {
      "channel": 1,
      "note": 43,
      "start": 3.5817,
      "duration": 0.0014,
      "velocity": 114,
      "chip": "ym2612"
    },
    {
      "channel": 4,
      "note": 43,
      "start": 3.582,
      "duration": 0.0014,
      "velocity": 118,
      "chip": "ym2612"
    },
    {
      "channel": 0,
      "note": 46,
      "start": 3.5831,
      "duration": 0.0019,
      "velocity": 117,
      "chip": "ym2612"
    },
    {
      "channel": 1,
      "note": 46,
      "start": 3.5833,
      "duration": 0.002,
      "velocity": 114,
      "chip": "ym2612"
    },
    {
      "channel": 4,
      "note": 46,
      "start": 3.5834,
      "duration": 0.0021,
      "velocity": 118,
      "chip": "ym2612"
    },
    {
      "channel": 0,
      "note": 43,
      "start": 3.5852,
      "duration": 0.0014,
      "velocity": 117,
      "chip": "ym2612"
    },
    {
      "channel": 1,
      "note": 43,
      "start": 3.5855,
      "duration": 0.0014,
      "velocity": 114,
      "chip": "ym2612"
    },
    {
      "channel": 4,
      "note": 43,
      "start": 3.5857,
      "duration": 0.0015,
      "velocity": 118,
      "chip": "ym2612"
    },
    {
      "channel": 0,
      "note": 45,
      "start": 3.5868,
      "duration": 0.0031,
      "velocity": 117,
      "chip": "ym2612"
    },
    {
      "channel": 1,
      "note": 45,
      "start": 3.587,
      "duration": 0.0032,
      "velocity": 114,
      "chip": "ym2612"
    },
    {
      "channel": 4,
      "note": 45,
      "start": 3.5874,
      "duration": 0.0031,
      "velocity": 118,
      "chip": "ym2612"
    },
    {
      "channel": 0,
      "note": 40,
      "start": 3.5901,
      "duration": 0.0026,
      "velocity": 117,
      "chip": "ym2612"
    },
    {
      "channel": 1,
      "note": 40,
      "start": 3.5904,
      "duration": 0.0027,
      "velocity": 114,
      "chip": "ym2612"
    },
    {
      "channel": 4,
      "note": 40,
      "start": 3.5909,
      "duration": 0.0025,
      "velocity": 118,
      "chip": "ym2612"
    },
    {
      "channel": 0,
      "note": 43,
      "start": 3.5929,
      "duration": 0.0015,
      "velocity": 117,
      "chip": "ym2612"
    },
    {
      "channel": 1,
      "note": 43,
      "start": 3.5933,
      "duration": 0.0013,
      "velocity": 114,
      "chip": "ym2612"
    },
    {
      "channel": 4,
      "note": 43,
      "start": 3.5937,
      "duration": 0.0013,
      "velocity": 118,
      "chip": "ym2612"
    },
    {
      "channel": 0,
      "note": 46,
      "start": 3.5946,
      "duration": 0.0015,
      "velocity": 117,
      "chip": "ym2612"
    },
    {
      "channel": 1,
      "note": 46,
      "start": 3.5948,
      "duration": 0.0016,
      "velocity": 114,
      "chip": "ym2612"
    },
    {
      "channel": 4,
      "note": 46,
      "start": 3.5951,
      "duration": 0.0016,
      "velocity": 118,
      "chip": "ym2612"
    },
    {
      "channel": 0,
      "note": 43,
      "start": 3.5963,
      "duration": 0.0015,
      "velocity": 117,
      "chip": "ym2612"
    },
    {
      "channel": 1,
      "note": 43,
      "start": 3.5966,
      "duration": 0.0014,
      "velocity": 114,
      "chip": "ym2612"
    },
    {
      "channel": 4,
      "note": 43,
      "start": 3.597,
      "duration": 0.0013,
      "velocity": 118,
      "chip": "ym2612"
    },
    {
      "channel": 0,
      "note": 42,
      "start": 3.5979,
      "duration": 0.001,
      "velocity": 117,
      "chip": "ym2612"
    },
    {
      "channel": 1,
      "note": 42,
      "start": 3.5982,
      "duration": 0.001,
      "velocity": 114,
      "chip": "ym2612"
    },
    {
      "channel": 4,
      "note": 42,
      "start": 3.5984,
      "duration": 0.0011,
      "velocity": 118,
      "chip": "ym2612"
    },
    {
      "channel": 0,
      "note": 43,
      "start": 3.5991,
      "duration": 0.0016,
      "velocity": 117,
      "chip": "ym2612"
    },
    {
      "channel": 1,
      "note": 43,
      "start": 3.5993,
      "duration": 0.0016,
      "velocity": 114,
      "chip": "ym2612"
    },
    {
      "channel": 4,
      "note": 43,
      "start": 3.5996,
      "duration": 0.0017,
      "velocity": 118,
      "chip": "ym2612"
    },
    {
      "channel": 0,
      "note": 45,
      "start": 3.6009,
      "duration": 0.0032,
      "velocity": 117,
      "chip": "ym2612"
    },
    {
      "channel": 1,
      "note": 45,
      "start": 3.6011,
      "duration": 0.0033,
      "velocity": 114,
      "chip": "ym2612"
    },
    {
      "channel": 4,
      "note": 45,
      "start": 3.6015,
      "duration": 0.0034,
      "velocity": 118,
      "chip": "ym2612"
    },
    {
      "channel": 0,
      "note": 40,
      "start": 3.6044,
      "duration": 0.0023,
      "velocity": 117,
      "chip": "ym2612"
    },
    {
      "channel": 1,
      "note": 40,
      "start": 3.6047,
      "duration": 0.0022,
      "velocity": 114,
      "chip": "ym2612"
    },
    {
      "channel": 4,
      "note": 40,
      "start": 3.6051,
      "duration": 0.0022,
      "velocity": 118,
      "chip": "ym2612"
    },
    {
      "channel": 0,
      "note": 43,
      "start": 3.6068,
      "duration": 0.0015,
      "velocity": 117,
      "chip": "ym2612"
    },
    {
      "channel": 1,
      "note": 43,
      "start": 3.6071,
      "duration": 0.0014,
      "velocity": 114,
      "chip": "ym2612"
    },
    {
      "channel": 4,
      "note": 43,
      "start": 3.6075,
      "duration": 0.0013,
      "velocity": 118,
      "chip": "ym2612"
    },
    {
      "channel": 0,
      "note": 40,
      "start": 3.6084,
      "duration": 0.0021,
      "velocity": 117,
      "chip": "ym2612"
    },
    {
      "channel": 1,
      "note": 40,
      "start": 3.6087,
      "duration": 0.0021,
      "velocity": 114,
      "chip": "ym2612"
    },
    {
      "channel": 4,
      "note": 40,
      "start": 3.609,
      "duration": 0.0021,
      "velocity": 118,
      "chip": "ym2612"
    },
    {
      "channel": 0,
      "note": 43,
      "start": 3.6107,
      "duration": 0.0014,
      "velocity": 117,
      "chip": "ym2612"
    },
    {
      "channel": 1,
      "note": 43,
      "start": 3.611,
      "duration": 0.0013,
      "velocity": 114,
      "chip": "ym2612"
    },
    {
      "channel": 4,
      "note": 43,
      "start": 3.6112,
      "duration": 0.0013,
      "velocity": 118,
      "chip": "ym2612"
    },
    {
      "channel": 0,
      "note": 46,
      "start": 3.6122,
      "duration": 0.0021,
      "velocity": 117,
      "chip": "ym2612"
    },
    {
      "channel": 1,
      "note": 46,
      "start": 3.6125,
      "duration": 0.0021,
      "velocity": 114,
      "chip": "ym2612"
    },
    {
      "channel": 4,
      "note": 46,
      "start": 3.6127,
      "duration": 0.0021,
      "velocity": 118,
      "chip": "ym2612"
    },
    {
      "channel": 0,
      "note": 43,
      "start": 3.6145,
      "duration": 0.0014,
      "velocity": 117,
      "chip": "ym2612"
    },
    {
      "channel": 1,
      "note": 43,
      "start": 3.6148,
      "duration": 0.0014,
      "velocity": 114,
      "chip": "ym2612"
    },
    {
      "channel": 4,
      "note": 43,
      "start": 3.615,
      "duration": 0.0015,
      "velocity": 118,
      "chip": "ym2612"
    },
    {
      "channel": 0,
      "note": 45,
      "start": 3.6161,
      "duration": 0.0031,
      "velocity": 117,
      "chip": "ym2612"
    },
    {
      "channel": 1,
      "note": 45,
      "start": 3.6163,
      "duration": 0.0031,
      "velocity": 114,
      "chip": "ym2612"
    },
    {
      "channel": 4,
      "note": 45,
      "start": 3.6167,
      "duration": 0.0031,
      "velocity": 118,
      "chip": "ym2612"
    },
    {
      "channel": 0,
      "note": 40,
      "start": 3.6193,
      "duration": 0.0023,
      "velocity": 117,
      "chip": "ym2612"
    },
    {
      "channel": 1,
      "note": 40,
      "start": 3.6196,
      "duration": 0.0023,
      "velocity": 114,
      "chip": "ym2612"
    },
    {
      "channel": 4,
      "note": 40,
      "start": 3.62,
      "duration": 0.0022,
      "velocity": 118,
      "chip": "ym2612"
    },
    {
      "channel": 0,
      "note": 43,
      "start": 3.6218,
      "duration": 0.0014,
      "velocity": 117,
      "chip": "ym2612"
    },
    {
      "channel": 1,
      "note": 43,
      "start": 3.6221,
      "duration": 0.0013,
      "velocity": 114,
      "chip": "ym2612"
    },
    {
      "channel": 4,
      "note": 43,
      "start": 3.6224,
      "duration": 0.0013,
      "velocity": 118,
      "chip": "ym2612"
    },
    {
      "channel": 0,
      "note": 46,
      "start": 3.6234,
      "duration": 0.002,
      "velocity": 117,
      "chip": "ym2612"
    },
    {
      "channel": 1,
      "note": 46,
      "start": 3.6236,
      "duration": 0.002,
      "velocity": 114,
      "chip": "ym2612"
    },
    {
      "channel": 4,
      "note": 46,
      "start": 3.6239,
      "duration": 0.002,
      "velocity": 118,
      "chip": "ym2612"
    },
    {
      "channel": 0,
      "note": 43,
      "start": 3.6255,
      "duration": 0.0011,
      "velocity": 117,
      "chip": "ym2612"
    },
    {
      "channel": 1,
      "note": 43,
      "start": 3.6257,
      "duration": 0.0011,
      "velocity": 114,
      "chip": "ym2612"
    },
    {
      "channel": 4,
      "note": 43,
      "start": 3.6261,
      "duration": 0.001,
      "velocity": 118,
      "chip": "ym2612"
    },
    {
      "channel": 0,
      "note": 42,
      "start": 3.6267,
      "duration": 0.0012,
      "velocity": 117,
      "chip": "ym2612"
    },
    {
      "channel": 1,
      "note": 42,
      "start": 3.627,
      "duration": 0.0012,
      "velocity": 114,
      "chip": "ym2612"
    },
    {
      "channel": 4,
      "note": 42,
      "start": 3.6273,
      "duration": 0.0012,
      "velocity": 118,
      "chip": "ym2612"
    },
    {
      "channel": 0,
      "note": 43,
      "start": 3.6281,
      "duration": 81.7029,
      "velocity": 117,
      "chip": "ym2612"
    },
    {
      "channel": 1,
      "note": 43,
      "start": 3.6284,
      "duration": 81.7026,
      "velocity": 114,
      "chip": "ym2612"
    },
    {
      "channel": 4,
      "note": 43,
      "start": 3.6287,
      "duration": 81.7023,
      "velocity": 118,
      "chip": "ym2612"
    }
  ]
}