{
  "track_name": "07 - Underground Stronghold",
  "duration_sec": 47.421,
  "sample_rate": 44100,
  "note_count": 699,
  "unique_pitches": 22,
  "pitch_range": 53,
  "avg_note_duration": 0.2438,
  "reconstruction_stats": {
    "notes_reconstructed": 699,
    "keyon_events": 699,
    "keyoff_events": 698,
    "orphan_keyons": 1,
    "unique_pitches": 22,
    "pitch_range": 53,
    "avg_duration_sec": 0.2438
  },
  "metadata": {
    "source": "W\\Whip Rush\\07 - Underground Stronghold.vgz"
  },
  "notes": [
    {
      "channel": 1,
      "note": 66,
      "start": 0.0,
      "duration": 0.1273,
      "velocity": 95,
      "chip": "ym2612"
    },
    {
      "channel": 3,
      "note": 54,
      "start": 0.0034,
      "duration": 0.2713,
      "velocity": 91,
      "chip": "ym2612"
    },
    {
      "channel": 2,
      "note": 37,
      "start": 0.0045,
      "duration": 0.1054,
      "velocity": 120,
      "chip": "ym2612"
    },
    {
      "channel": 1,
      "note": 66,
      "start": 0.1281,
      "duration": 0.1457,
      "velocity": 95,
      "chip": "ym2612"
    },
    {
      "channel": 1,
      "note": 78,
      "start": 0.2746,
      "duration": 0.1456,
      "velocity": 95,
      "chip": "ym2612"
    },
    {
      "channel": 1,
      "note": 66,
      "start": 0.421,
      "duration": 0.1484,
      "velocity": 95,
      "chip": "ym2612"
    },
    {
      "channel": 1,
      "note": 80,
      "start": 0.5701,
      "duration": 0.1428,
      "velocity": 95,
      "chip": "ym2612"
    },
    {
      "channel": 3,
      "note": 54,
      "start": 0.5708,
      "duration": 0.2896,
      "velocity": 91,
      "chip": "ym2612"
    },
    {
      "channel": 2,
      "note": 37,
      "start": 0.5717,
      "duration": 0.1239,
      "velocity": 120,
      "chip": "ym2612"
    },
    {
      "channel": 1,
      "note": 66,
      "start": 0.7138,
      "duration": 0.1457,
      "velocity": 95,
      "chip": "ym2612"
    },
    {
      "channel": 1,
      "note": 81,
      "start": 0.8603,
      "duration": 0.1456,
      "velocity": 95,
      "chip": "ym2612"
    },
    {
      "channel": 1,
      "note": 66,
      "start": 1.0066,
      "duration": 0.1485,
      "velocity": 95,
      "chip": "ym2612"
    },
    {
      "channel": 1,
      "note": 80,
      "start": 1.1558,
      "duration": 0.1428,
      "velocity": 95,
      "chip": "ym2612"
    },
    {
      "channel": 3,
      "note": 54,
      "start": 1.1566,
      "duration": 0.2895,
      "velocity": 91,
      "chip": "ym2612"
    },
    {
      "channel": 2,
      "note": 37,
      "start": 1.1574,
      "duration": 0.1239,
      "velocity": 120,
      "chip": "ym2612"
    },
    {
      "channel": 1,
      "note": 66,
      "start": 1.2994,
      "duration": 0.1457,
      "velocity": 95,
      "chip": "ym2612"
    },
    {
      "channel": 1,
      "note": 78,
      "start": 1.4459,
      "duration": 0.1457,
      "velocity": 95,
      "chip": "ym2612"
    },
    {
      "channel": 1,
      "note": 66,
      "start": 1.5923,
      "duration": 0.1484,
      "velocity": 95,
      "chip": "ym2612"
    },
    {
      "channel": 1,
      "note": 76,
      "start": 1.7415,
      "duration": 0.1428,
      "velocity": 95,
      "chip": "ym2612"
    },
    {
      "channel": 3,
      "note": 54,
      "start": 1.7422,
      "duration": 0.2895,
      "velocity": 91,
      "chip": "ym2612"
    },
    {
      "channel": 2,
      "note": 37,
      "start": 1.743,
      "duration": 0.1238,
      "velocity": 120,
      "chip": "ym2612"
    },
    {
      "channel": 1,
      "note": 66,
      "start": 1.8851,
      "duration": 0.1457,
      "velocity": 95,
      "chip": "ym2612"
    },
    {
      "channel": 1,
      "note": 78,
      "start": 2.0316,
      "duration": 0.1456,
      "velocity": 95,
      "chip": "ym2612"
    },
    {
      "channel": 3,
      "note": 66,
      "start": 2.0323,
      "duration": 0.2955,
      "velocity": 91,
      "chip": "ym2612"
    },
    {
      "channel": 1,
      "note": 73,
      "start": 2.178,
      "duration": 0.149,
      "velocity": 95,
      "chip": "ym2612"
    },
    {
      "channel": 1,
      "note": 66,
      "start": 2.3277,
      "duration": 0.1423,
      "velocity": 95,
      "chip": "ym2612"
    },
    {
      "channel": 3,
      "note": 54,
      "start": 2.3284,
      "duration": 0.2889,
      "velocity": 91,
      "chip": "ym2612"
    },
    {
      "channel": 2,
      "note": 37,
      "start": 2.3292,
      "duration": 0.1233,
      "velocity": 120,
      "chip": "ym2612"
    },
    {
      "channel": 1,
      "note": 78,
      "start": 2.4708,
      "duration": 0.1455,
      "velocity": 95,
      "chip": "ym2612"
    },
    {
      "channel": 1,
      "note": 66,
      "start": 2.6171,
      "duration": 0.1458,
      "velocity": 95,
      "chip": "ym2612"
    },
    {
      "channel": 1,
      "note": 80,
      "start": 2.7637,
      "duration": 0.1483,
      "velocity": 95,
      "chip": "ym2612"
    },
    {
      "channel": 1,
      "note": 66,
      "start": 2.9127,
      "duration": 0.1429,
      "velocity": 95,
      "chip": "ym2612"
    },
    {
      "channel": 3,
      "note": 54,
      "start": 2.9134,
      "duration": 0.2895,
      "velocity": 91,
      "chip": "ym2612"
    },
    {
      "channel": 2,
      "note": 37,
      "start": 2.9143,
      "duration": 0.124,
      "velocity": 120,
      "chip": "ym2612"
    },
    {
      "channel": 1,
      "note": 81,
      "start": 3.0564,
      "duration": 0.1457,
      "velocity": 95,
      "chip": "ym2612"
    },
    {
      "channel": 1,
      "note": 66,
      "start": 3.2028,
      "duration": 0.1456,
      "velocity": 95,
      "chip": "ym2612"
    },
    {
      "channel": 1,
      "note": 83,
      "start": 3.3493,
      "duration": 0.1483,
      "velocity": 95,
      "chip": "ym2612"
    },
    {
      "channel": 1,
      "note": 66,
      "start": 3.4984,
      "duration": 0.1429,
      "velocity": 95,
      "chip": "ym2612"
    },
    {
      "channel": 3,
      "note": 54,
      "start": 3.4991,
      "duration": 0.2898,
      "velocity": 91,
      "chip": "ym2612"
    },
    {
      "channel": 2,
      "note": 37,
      "start": 3.5,
      "duration": 0.1239,
      "velocity": 120,
      "chip": "ym2612"
    },
    {
      "channel": 1,
      "note": 85,
      "start": 3.6421,
      "duration": 0.146,
      "velocity": 95,
      "chip": "ym2612"
    },
    {
      "channel": 1,
      "note": 66,
      "start": 3.7888,
      "duration": 0.1453,
      "velocity": 95,
      "chip": "ym2612"
    },
    {
      "channel": 3,
      "note": 66,
      "start": 3.7896,
      "duration": 0.2946,
      "velocity": 91,
      "chip": "ym2612"
    },
    {
      "channel": 1,
      "note": 83,
      "start": 3.935,
      "duration": 0.1483,
      "velocity": 95,
      "chip": "ym2612"
    },
    {
      "channel": 1,
      "note": 66,
      "start": 4.0841,
      "duration": 0.1429,
      "velocity": 95,
      "chip": "ym2612"
    },
    {
      "channel": 3,
      "note": 54,
      "start": 4.0848,
      "duration": 0.2895,
      "velocity": 91,
      "chip": "ym2612"
    },
    {
      "channel": 2,
      "note": 37,
      "start": 4.0856,
      "duration": 0.1239,
      "velocity": 120,
      "chip": "ym2612"
    },
    {
      "channel": 1,
      "note": 81,
      "start": 4.2278,
      "duration": 0.1455,
      "velocity": 95,
      "chip": "ym2612"
    },
    {
      "channel": 1,
      "note": 66,
      "start": 4.3741,
      "duration": 0.1457,
      "velocity": 95,
      "chip": "ym2612"
    },
    {
      "channel": 3,
      "note": 66,
      "start": 4.3748,
      "duration": 0.3013,
      "velocity": 91,
      "chip": "ym2612"
    },
    {
      "channel": 1,
      "note": 80,
      "start": 4.5206,
      "duration": 0.1518,
      "velocity": 95,
      "chip": "ym2612"
    },
    {
      "channel": 1,
      "note": 66,
      "start": 4.6731,
      "duration": 0.1399,
      "velocity": 95,
      "chip": "ym2612"
    },
    {
      "channel": 3,
      "note": 54,
      "start": 4.6767,
      "duration": 0.2833,
      "velocity": 91,
      "chip": "ym2612"
    },
    {
      "channel": 2,
      "note": 37,
      "start": 4.6775,
      "duration": 0.1176,
      "velocity": 120,
      "chip": "ym2612"
    },
    {
      "channel": 1,
      "note": 66,
      "start": 4.8138,
      "duration": 0.1452,
      "velocity": 95,
      "chip": "ym2612"
    },
    {
      "channel": 1,
      "note": 78,
      "start": 4.9598,
      "duration": 0.1456,
      "velocity": 95,
      "chip": "ym2612"
    },
    {
      "channel": 1,
      "note": 66,
      "start": 5.1062,
      "duration": 0.1485,
      "velocity": 95,
      "chip": "ym2612"
    },
    {
      "channel": 1,
      "note": 80,
      "start": 5.2555,
      "duration": 0.1428,
      "velocity": 95,
      "chip": "ym2612"
    },
    {
      "channel": 3,
      "note": 54,
      "start": 5.2562,
      "duration": 0.2894,
      "velocity": 91,
      "chip": "ym2612"
    },
    {
      "channel": 2,
      "note": 37,
      "start": 5.257,
      "duration": 0.1238,
      "velocity": 120,
      "chip": "ym2612"
    },
    {
      "channel": 1,
      "note": 66,
      "start": 5.3991,
      "duration": 0.1456,
      "velocity": 95,
      "chip": "ym2612"
    },
    {
      "channel": 1,
      "note": 81,
      "start": 5.5454,
      "duration": 0.1456,
      "velocity": 95,
      "chip": "ym2612"
    },
    {
      "channel": 1,
      "note": 66,
      "start": 5.6918,
      "duration": 0.1485,
      "velocity": 95,
      "chip": "ym2612"
    },
    {
      "channel": 1,
      "note": 80,
      "start": 5.8411,
      "duration": 0.1428,
      "velocity": 95,
      "chip": "ym2612"
    },
    {
      "channel": 3,
      "note": 54,
      "start": 5.8419,
      "duration": 0.2894,
      "velocity": 91,
      "chip": "ym2612"
    },
    {
      "channel": 2,
      "note": 37,
      "start": 5.8427,
      "duration": 0.1237,
      "velocity": 120,
      "chip": "ym2612"
    },
    {
      "channel": 1,
      "note": 66,
      "start": 5.9847,
      "duration": 0.1456,
      "velocity": 95,
      "chip": "ym2612"
    },
    {
      "channel": 1,
      "note": 78,
      "start": 6.1311,
      "duration": 0.1457,
      "velocity": 95,
      "chip": "ym2612"
    },
    {
      "channel": 1,
      "note": 66,
      "start": 6.2776,
      "duration": 0.1484,
      "velocity": 95,
      "chip": "ym2612"
    },
    {
      "channel": 1,
      "note": 76,
      "start": 6.4268,
      "duration": 0.1428,
      "velocity": 95,
      "chip": "ym2612"
    },
    {
      "channel": 3,
      "note": 54,
      "start": 6.4275,
      "duration": 0.2895,
      "velocity": 91,
      "chip": "ym2612"
    },
    {
      "channel": 2,
      "note": 37,
      "start": 6.4283,
      "duration": 0.1237,
      "velocity": 120,
      "chip": "ym2612"
    },
    {
      "channel": 1,
      "note": 66,
      "start": 6.5703,
      "duration": 0.1457,
      "velocity": 95,
      "chip": "ym2612"
    },
    {
      "channel": 1,
      "note": 78,
      "start": 6.7168,
      "duration": 0.1456,
      "velocity": 95,
      "chip": "ym2612"
    },
    {
      "channel": 3,
      "note": 66,
      "start": 6.7175,
      "duration": 0.2955,
      "velocity": 91,
      "chip": "ym2612"
    },
    {
      "channel": 1,
      "note": 73,
      "start": 6.8632,
      "duration": 0.149,
      "velocity": 95,
      "chip": "ym2612"
    },
    {
      "channel": 1,
      "note": 66,
      "start": 7.0129,
      "duration": 0.1423,
      "velocity": 95,
      "chip": "ym2612"
    },
    {
      "channel": 3,
      "note": 54,
      "start": 7.0137,
      "duration": 0.289,
      "velocity": 91,
      "chip": "ym2612"
    },
    {
      "channel": 2,
      "note": 37,
      "start": 7.0145,
      "duration": 0.1234,
      "velocity": 120,
      "chip": "ym2612"
    },
    {
      "channel": 1,
      "note": 78,
      "start": 7.1561,
      "duration": 0.1456,
      "velocity": 95,
      "chip": "ym2612"
    },
    {
      "channel": 1,
      "note": 66,
      "start": 7.3024,
      "duration": 0.1456,
      "velocity": 95,
      "chip": "ym2612"
    },
    {
      "channel": 1,
      "note": 80,
      "start": 7.4488,
      "duration": 0.1484,
      "velocity": 95,
      "chip": "ym2612"
    },
    {
      "channel": 1,
      "note": 66,
      "start": 7.598,
      "duration": 0.1429,
      "velocity": 95,
      "chip": "ym2612"
    },
    {
      "channel": 3,
      "note": 54,
      "start": 7.5987,
      "duration": 0.2896,
      "velocity": 91,
      "chip": "ym2612"
    },
    {
      "channel": 2,
      "note": 37,
      "start": 7.5995,
      "duration": 0.1239,
      "velocity": 120,
      "chip": "ym2612"
    },
    {
      "channel": 1,
      "note": 81,
      "start": 7.7418,
      "duration": 0.1455,
      "velocity": 95,
      "chip": "ym2612"
    },
    {
      "channel": 1,
      "note": 66,
      "start": 7.8881,
      "duration": 0.1456,
      "velocity": 95,
      "chip": "ym2612"
    },
    {
      "channel": 1,
      "note": 83,
      "start": 8.0346,
      "duration": 0.1483,
      "velocity": 95,
      "chip": "ym2612"
    },
    {
      "channel": 1,
      "note": 66,
      "start": 8.1837,
      "duration": 0.1457,
      "velocity": 95,
      "chip": "ym2612"
    },
    {
      "channel": 3,
      "note": 54,
      "start": 8.1844,
      "duration": 0.2896,
      "velocity": 91,
      "chip": "ym2612"
    },
    {
      "channel": 2,
      "note": 41,
      "start": 8.1853,
      "duration": 0.0679,
      "velocity": 127,
      "chip": "ym2612"
    },
    {
      "channel": 2,
      "note": 41,
      "start": 8.2575,
      "duration": 0.0689,
      "velocity": 127,
      "chip": "ym2612"
    },
    {
      "channel": 1,
      "note": 85,
      "start": 8.3301,
      "duration": 0.1429,
      "velocity": 95,
      "chip": "ym2612"
    },
    {
      "channel": 2,
      "note": 41,
      "start": 8.3314,
      "duration": 0.2706,
      "velocity": 127,
      "chip": "ym2612"
    },
    {
      "channel": 1,
      "note": 66,
      "start": 8.4738,
      "duration": 0.1483,
      "velocity": 95,
      "chip": "ym2612"
    },
    {
      "channel": 3,
      "note": 66,
      "start": 8.4746,
      "duration": 0.2949,
      "velocity": 91,
      "chip": "ym2612"
    },
    {
      "channel": 1,
      "note": 83,
      "start": 8.6229,
      "duration": 0.1456,
      "velocity": 95,
      "chip": "ym2612"
    },
    {
      "channel": 2,
      "note": 41,
      "start": 8.6242,
      "duration": 0.1415,
      "velocity": 127,
      "chip": "ym2612"
    },
    {
      "channel": 1,
      "note": 66,
      "start": 8.7693,
      "duration": 0.1457,
      "velocity": 95,
      "chip": "ym2612"
    },
    {
      "channel": 3,
      "note": 54,
      "start": 8.77,
      "duration": 0.2923,
      "velocity": 91,
      "chip": "ym2612"
    },
    {
      "channel": 2,
      "note": 37,
      "start": 8.7708,
      "duration": 0.1239,
      "velocity": 120,
      "chip": "ym2612"
    },
    {
      "channel": 1,
      "note": 81,
      "start": 8.9158,
      "duration": 0.1456,
      "velocity": 95,
      "chip": "ym2612"
    },
    {
      "channel": 2,
      "note": 41,
      "start": 8.917,
      "duration": 0.1415,
      "velocity": 127,
      "chip": "ym2612"
    },
    {
      "channel": 1,
      "note": 66,
      "start": 9.0622,
      "duration": 0.1457,
      "velocity": 95,
      "chip": "ym2612"
    },
    {
      "channel": 3,
      "note": 66,
      "start": 9.0629,
      "duration": 0.299,
      "velocity": 91,
      "chip": "ym2612"
    },
    {
      "channel": 2,
      "note": 41,
      "start": 9.0638,
      "duration": 0.1411,
      "velocity": 127,
      "chip": "ym2612"
    },
    {
      "channel": 1,
      "note": 80,
      "start": 9.2086,
      "duration": 0.1495,
      "velocity": 95,
      "chip": "ym2612"
    },
    {
      "channel": 2,
      "note": 41,
      "start": 9.2098,
      "duration": 0.1417,
      "velocity": 127,
      "chip": "ym2612"
    },
    {
      "channel": 0,
      "note": 81,
      "start": 9.3551,
      "duration": 2.0463,
      "velocity": 91,
      "chip": "ym2612"
    },
    {
      "channel": 1,
      "note": 66,
      "start": 9.3589,
      "duration": 0.1393,
      "velocity": 95,
      "chip": "ym2612"
    },
    {
      "channel": 3,
      "note": 54,
      "start": 9.3624,
      "duration": 0.2832,
      "velocity": 91,
      "chip": "ym2612"
    },
    {
      "channel": 2,
      "note": 37,
      "start": 9.3633,
      "duration": 0.1178,
      "velocity": 120,
      "chip": "ym2612"
    },
    {
      "channel": 4,
      "note": 81,
      "start": 9.463,
      "duration": 2.049,
      "velocity": 91,
      "chip": "ym2612"
    },
    {
      "channel": 1,
      "note": 66,
      "start": 9.4989,
      "duration": 0.1457,
      "velocity": 95,
      "chip": "ym2612"
    },
    {
      "channel": 1,
      "note": 78,
      "start": 9.6454,
      "duration": 0.1456,
      "velocity": 95,
      "chip": "ym2612"
    },
    {
      "channel": 1,
      "note": 66,
      "start": 9.7918,
      "duration": 0.1484,
      "velocity": 95,
      "chip": "ym2612"
    },
    {
      "channel": 1,
      "note": 80,
      "start": 9.941,
      "duration": 0.1428,
      "velocity": 95,
      "chip": "ym2612"
    },
    {
      "channel": 3,
      "note": 54,
      "start": 9.9417,
      "duration": 0.2895,
      "velocity": 91,
      "chip": "ym2612"
    },
    {
      "channel": 2,
      "note": 41,
      "start": 9.9429,
      "duration": 0.2702,
      "velocity": 127,
      "chip": "ym2612"
    },
    {
      "channel": 1,
      "note": 66,
      "start": 10.0846,
      "duration": 0.1457,
      "velocity": 95,
      "chip": "ym2612"
    },
    {
      "channel": 1,
      "note": 81,
      "start": 10.2311,
      "duration": 0.1456,
      "velocity": 95,
      "chip": "ym2612"
    },
    {
      "channel": 1,
      "note": 66,
      "start": 10.3774,
      "duration": 0.1484,
      "velocity": 95,
      "chip": "ym2612"
    },
    {
      "channel": 1,
      "note": 80,
      "start": 10.5266,
      "duration": 0.1429,
      "velocity": 95,
      "chip": "ym2612"
    },
    {
      "channel": 3,
      "note": 54,
      "start": 10.5274,
      "duration": 0.2894,
      "velocity": 91,
      "chip": "ym2612"
    },
    {
      "channel": 2,
      "note": 37,
      "start": 10.5285,
      "duration": 0.1239,
      "velocity": 120,
      "chip": "ym2612"
    },
    {
      "channel": 1,
      "note": 66,
      "start": 10.6702,
      "duration": 0.1456,
      "velocity": 95,
      "chip": "ym2612"
    },
    {
      "channel": 1,
      "note": 78,
      "start": 10.8166,
      "duration": 0.1457,
      "velocity": 95,
      "chip": "ym2612"
    },
    {
      "channel": 1,
      "note": 66,
      "start": 10.9631,
      "duration": 0.1483,
      "velocity": 95,
      "chip": "ym2612"
    },
    {
      "channel": 1,
      "note": 76,
      "start": 11.1122,
      "duration": 0.1429,
      "velocity": 95,
      "chip": "ym2612"
    },
    {
      "channel": 3,
      "note": 54,
      "start": 11.1129,
      "duration": 0.2902,
      "velocity": 91,
      "chip": "ym2612"
    },
    {
      "channel": 2,
      "note": 37,
      "start": 11.114,
      "duration": 0.1239,
      "velocity": 120,
      "chip": "ym2612"
    },
    {
      "channel": 1,
      "note": 66,
      "start": 11.2559,
      "duration": 0.1463,
      "velocity": 95,
      "chip": "ym2612"
    },
    {
      "channel": 0,
      "note": 80,
      "start": 11.4021,
      "duration": 0.1455,
      "velocity": 91,
      "chip": "ym2612"
    },
    {
      "channel": 1,
      "note": 78,
      "start": 11.403,
      "duration": 0.1453,
      "velocity": 95,
      "chip": "ym2612"
    },
    {
      "channel": 3,
      "note": 66,
      "start": 11.4037,
      "duration": 0.2951,
      "velocity": 91,
      "chip": "ym2612"
    },
    {
      "channel": 4,
      "note": 80,
      "start": 11.5127,
      "duration": 0.1457,
      "velocity": 91,
      "chip": "ym2612"
    },
    {
      "channel": 0,
      "note": 81,
      "start": 11.5482,
      "duration": 0.149,
      "velocity": 91,
      "chip": "ym2612"
    },
    {
      "channel": 1,
      "note": 73,
      "start": 11.5491,
      "duration": 0.1489,
      "velocity": 95,
      "chip": "ym2612"
    },
    {
      "channel": 4,
      "note": 81,
      "start": 11.6591,
      "duration": 0.1458,
      "velocity": 91,
      "chip": "ym2612"
    },
    {
      "channel": 0,
      "note": 83,
      "start": 11.6977,
      "duration": 2.0461,
      "velocity": 91,
      "chip": "ym2612"
    },
    {
      "channel": 1,
      "note": 66,
      "start": 11.6987,
      "duration": 0.1421,
      "velocity": 95,
      "chip": "ym2612"
    },
    {
      "channel": 3,
      "note": 54,
      "start": 11.6994,
      "duration": 0.2888,
      "velocity": 91,
      "chip": "ym2612"
    },
    {
      "channel": 2,
      "note": 37,
      "start": 11.7005,
      "duration": 0.1232,
      "velocity": 120,
      "chip": "ym2612"
    },
    {
      "channel": 4,
      "note": 83,
      "start": 11.8055,
      "duration": 2.0492,
      "velocity": 91,
      "chip": "ym2612"
    },
    {
      "channel": 1,
      "note": 78,
      "start": 11.8416,
      "duration": 0.1456,
      "velocity": 95,
      "chip": "ym2612"
    },
    {
      "channel": 1,
      "note": 66,
      "start": 11.988,
      "duration": 0.1456,
      "velocity": 95,
      "chip": "ym2612"
    },
    {
      "channel": 1,
      "note": 80,
      "start": 12.1343,
      "duration": 0.1484,
      "velocity": 95,
      "chip": "ym2612"
    },
    {
      "channel": 1,
      "note": 66,
      "start": 12.2835,
      "duration": 0.1434,
      "velocity": 95,
      "chip": "ym2612"
    },
    {
      "channel": 3,
      "note": 54,
      "start": 12.2843,
      "duration": 0.2896,
      "velocity": 91,
      "chip": "ym2612"
    },
    {
      "channel": 2,
      "note": 41,
      "start": 12.2854,
      "duration": 0.2704,
      "velocity": 127,
      "chip": "ym2612"
    },
    {
      "channel": 1,
      "note": 81,
      "start": 12.4276,
      "duration": 0.1452,
      "velocity": 95,
      "chip": "ym2612"
    },
    {
      "channel": 1,
      "note": 66,
      "start": 12.5736,
      "duration": 0.1456,
      "velocity": 95,
      "chip": "ym2612"
    },
    {
      "channel": 1,
      "note": 83,
      "start": 12.7201,
      "duration": 0.1484,
      "velocity": 95,
      "chip": "ym2612"
    },
    {
      "channel": 1,
      "note": 66,
      "start": 12.8693,
      "duration": 0.1428,
      "velocity": 95,
      "chip": "ym2612"
    },
    {
      "channel": 3,
      "note": 54,
      "start": 12.8699,
      "duration": 0.2896,
      "velocity": 91,
      "chip": "ym2612"
    },
    {
      "channel": 2,
      "note": 37,
      "start": 12.871,
      "duration": 0.1239,
      "velocity": 120,
      "chip": "ym2612"
    },
    {
      "channel": 1,
      "note": 85,
      "start": 13.0129,
      "duration": 0.1457,
      "velocity": 95,
      "chip": "ym2612"
    },
    {
      "channel": 1,
      "note": 66,
      "start": 13.1593,
      "duration": 0.1457,
      "velocity": 95,
      "chip": "ym2612"
    },
    {
      "channel": 3,
      "note": 66,
      "start": 13.1601,
      "duration": 0.2949,
      "velocity": 91,
      "chip": "ym2612"
    },
    {
      "channel": 1,
      "note": 83,
      "start": 13.3058,
      "duration": 0.1482,
      "velocity": 95,
      "chip": "ym2612"
    },
    {
      "channel": 1,
      "note": 66,
      "start": 13.4549,
      "duration": 0.1428,
      "velocity": 95,
      "chip": "ym2612"
    },
    {
      "channel": 3,
      "note": 54,
      "start": 13.4556,
      "duration": 0.29,
      "velocity": 91,
      "chip": "ym2612"
    },
    {
      "channel": 2,
      "note": 37,
      "start": 13.4566,
      "duration": 0.1239,
      "velocity": 120,
      "chip": "ym2612"
    },
    {
      "channel": 1,
      "note": 81,
      "start": 13.5985,
      "duration": 0.1461,
      "velocity": 95,
      "chip": "ym2612"
    },
    {
      "channel": 0,
      "note": 81,
      "start": 13.7445,
      "duration": 0.1457,
      "velocity": 91,
      "chip": "ym2612"
    },
    {
      "channel": 1,
      "note": 66,
      "start": 13.7454,
      "duration": 0.1456,
      "velocity": 95,
      "chip": "ym2612"
    },
    {
      "channel": 3,
      "note": 66,
      "start": 13.7461,
      "duration": 0.3012,
      "velocity": 91,
      "chip": "ym2612"
    },
    {
      "channel": 4,
      "note": 81,
      "start": 13.8553,
      "duration": 0.1457,
      "velocity": 91,
      "chip": "ym2612"
    },
    {
      "channel": 0,
      "note": 83,
      "start": 13.8908,
      "duration": 0.149,
      "velocity": 91,
      "chip": "ym2612"
    },
    {
      "channel": 1,
      "note": 80,
      "start": 13.8918,
      "duration": 0.1517,
      "velocity": 95,
      "chip": "ym2612"
    },
    {
      "channel": 4,
      "note": 83,
      "start": 14.0017,
      "duration": 0.1459,
      "velocity": 91,
      "chip": "ym2612"
    },
    {
      "channel": 0,
      "note": 85,
      "start": 14.0405,
      "duration": 0.8747,
      "velocity": 91,
      "chip": "ym2612"
    },
    {
      "channel": 1,
      "note": 66,
      "start": 14.0442,
      "duration": 0.1391,
      "velocity": 95,
      "chip": "ym2612"
    },
    {
      "channel": 3,
      "note": 54,
      "start": 14.0478,
      "duration": 0.283,
      "velocity": 91,
      "chip": "ym2612"
    },
    {
      "channel": 2,
      "note": 37,
      "start": 14.0489,
      "duration": 0.1174,
      "velocity": 120,
      "chip": "ym2612"
    },
    {
      "channel": 4,
      "note": 85,
      "start": 14.1482,
      "duration": 0.8775,
      "velocity": 91,
      "chip": "ym2612"
    },
    {
      "channel": 1,
      "note": 66,
      "start": 14.1841,
      "duration": 0.1457,
      "velocity": 95,
      "chip": "ym2612"
    },
    {
      "channel": 1,
      "note": 78,
      "start": 14.3306,
      "duration": 0.1457,
      "velocity": 95,
      "chip": "ym2612"
    },
    {
      "channel": 1,
      "note": 66,
      "start": 14.4771,
      "duration": 0.1484,
      "velocity": 95,
      "chip": "ym2612"
    },
    {
      "channel": 1,
      "note": 80,
      "start": 14.6262,
      "duration": 0.1427,
      "velocity": 95,
      "chip": "ym2612"
    },
    {
      "channel": 3,
      "note": 54,
      "start": 14.6269,
      "duration": 0.29,
      "velocity": 91,
      "chip": "ym2612"
    },
    {
      "channel": 2,
      "note": 41,
      "start": 14.6281,
      "duration": 0.2702,
      "velocity": 127,
      "chip": "ym2612"
    },
    {
      "channel": 1,
      "note": 66,
      "start": 14.7698,
      "duration": 0.1462,
      "velocity": 95,
      "chip": "ym2612"
    },
    {
      "channel": 0,
      "note": 83,
      "start": 14.9158,
      "duration": 0.1457,
      "velocity": 91,
      "chip": "ym2612"
    },
    {
      "channel": 1,
      "note": 81,
      "start": 14.9168,
      "duration": 0.1455,
      "velocity": 95,
      "chip": "ym2612"
    },
    {
      "channel": 4,
      "note": 83,
      "start": 15.0263,
      "duration": 0.1459,
      "velocity": 91,
      "chip": "ym2612"
    },
    {
      "channel": 0,
      "note": 85,
      "start": 15.0621,
      "duration": 0.1486,
      "velocity": 91,
      "chip": "ym2612"
    },
    {
      "channel": 1,
      "note": 66,
      "start": 15.063,
      "duration": 0.1485,
      "velocity": 95,
      "chip": "ym2612"
    },
    {
      "channel": 4,
      "note": 85,
      "start": 15.1728,
      "duration": 0.1459,
      "velocity": 91,
      "chip": "ym2612"
    },
    {
      "channel": 0,
      "note": 86,
      "start": 15.2114,
      "duration": 0.8752,
      "velocity": 91,
      "chip": "ym2612"
    },
    {
      "channel": 1,
      "note": 80,
      "start": 15.2123,
      "duration": 0.1426,
      "velocity": 95,
      "chip": "ym2612"
    },
    {
      "channel": 3,
      "note": 54,
      "start": 15.213,
      "duration": 0.289,
      "velocity": 91,
      "chip": "ym2612"
    },
    {
      "channel": 2,
      "note": 37,
      "start": 15.2141,
      "duration": 0.1234,
      "velocity": 120,
      "chip": "ym2612"
    },
    {
      "channel": 4,
      "note": 86,
      "start": 15.3194,
      "duration": 0.8779,
      "velocity": 91,
      "chip": "ym2612"
    },
    {
      "channel": 1,
      "note": 66,
      "start": 15.3556,
      "duration": 0.1455,
      "velocity": 95,
      "chip": "ym2612"
    },
    {
      "channel": 1,
      "note": 78,
      "start": 15.5019,
      "duration": 0.1456,
      "velocity": 95,
      "chip": "ym2612"
    },
    {
      "channel": 1,
      "note": 66,
      "start": 15.6483,
      "duration": 0.1484,
      "velocity": 95,
      "chip": "ym2612"
    },
    {
      "channel": 1,
      "note": 76,
      "start": 15.7975,
      "duration": 0.1429,
      "velocity": 95,
      "chip": "ym2612"
    },
    {
      "channel": 3,
      "note": 54,
      "start": 15.7982,
      "duration": 0.2901,
      "velocity": 91,
      "chip": "ym2612"
    },
    {
      "channel": 2,
      "note": 37,
      "start": 15.7993,
      "duration": 0.1239,
      "velocity": 120,
      "chip": "ym2612"
    },
    {
      "channel": 1,
      "note": 66,
      "start": 15.9411,
      "duration": 0.1462,
      "velocity": 95,
      "chip": "ym2612"
    },
    {
      "channel": 0,
      "note": 85,
      "start": 16.0871,
      "duration": 0.1457,
      "velocity": 91,
      "chip": "ym2612"
    },
    {
      "channel": 1,
      "note": 78,
      "start": 16.0881,
      "duration": 0.1454,
      "velocity": 95,
      "chip": "ym2612"
    },
    {
      "channel": 3,
      "note": 66,
      "start": 16.0888,
      "duration": 0.2951,
      "velocity": 91,
      "chip": "ym2612"
    },
    {
      "channel": 4,
      "note": 85,
      "start": 16.1979,
      "duration": 0.1457,
      "velocity": 91,
      "chip": "ym2612"
    },
    {
      "channel": 0,
      "note": 83,
      "start": 16.2334,
      "duration": 0.1489,
      "velocity": 91,
      "chip": "ym2612"
    },
    {
      "channel": 1,
      "note": 73,
      "start": 16.2344,
      "duration": 0.1487,
      "velocity": 95,
      "chip": "ym2612"
    },
    {
      "channel": 4,
      "note": 83,
      "start": 16.3443,
      "duration": 0.1458,
      "velocity": 91,
      "chip": "ym2612"
    },
    {
      "channel": 0,
      "note": 85,
      "start": 16.383,
      "duration": 1.8997,
      "velocity": 91,
      "chip": "ym2612"
    },
    {
      "channel": 1,
      "note": 66,
      "start": 16.3839,
      "duration": 0.1421,
      "velocity": 95,
      "chip": "ym2612"
    },
    {
      "channel": 3,
      "note": 54,
      "start": 16.3846,
      "duration": 0.2888,
      "velocity": 91,
      "chip": "ym2612"
    },
    {
      "channel": 2,
      "note": 37,
      "start": 16.3856,
      "duration": 0.1232,
      "velocity": 120,
      "chip": "ym2612"
    },
    {
      "channel": 4,
      "note": 85,
      "start": 16.4907,
      "duration": 1.9027,
      "velocity": 91,
      "chip": "ym2612"
    },
    {
      "channel": 1,
      "note": 78,
      "start": 16.5268,
      "duration": 0.1457,
      "velocity": 95,
      "chip": "ym2612"
    },
    {
      "channel": 1,
      "note": 66,
      "start": 16.6732,
      "duration": 0.1456,
      "velocity": 95,
      "chip": "ym2612"
    },
    {
      "channel": 1,
      "note": 80,
      "start": 16.8196,
      "duration": 0.1483,
      "velocity": 95,
      "chip": "ym2612"
    },
    {
      "channel": 1,
      "note": 66,
      "start": 16.9688,
      "duration": 0.1429,
      "velocity": 95,
      "chip": "ym2612"
    },
    {
      "channel": 3,
      "note": 54,
      "start": 16.9695,
      "duration": 0.2895,
      "velocity": 91,
      "chip": "ym2612"
    },
    {
      "channel": 2,
      "note": 41,
      "start": 16.9707,
      "duration": 0.2703,
      "velocity": 127,
      "chip": "ym2612"
    },
    {
      "channel": 1,
      "note": 81,
      "start": 17.1125,
      "duration": 0.1456,
      "velocity": 95,
      "chip": "ym2612"
    },
    {
      "channel": 1,
      "note": 66,
      "start": 17.2588,
      "duration": 0.1458,
      "velocity": 95,
      "chip": "ym2612"
    },
    {
      "channel": 1,
      "note": 83,
      "start": 17.4054,
      "duration": 0.1483,
      "velocity": 95,
      "chip": "ym2612"
    },
    {
      "channel": 1,
      "note": 66,
      "start": 17.5546,
      "duration": 0.1428,
      "velocity": 95,
      "chip": "ym2612"
    },
    {
      "channel": 3,
      "note": 54,
      "start": 17.5553,
      "duration": 0.2894,
      "velocity": 91,
      "chip": "ym2612"
    },
    {
      "channel": 2,
      "note": 37,
      "start": 17.5564,
      "duration": 0.1239,
      "velocity": 120,
      "chip": "ym2612"
    },
    {
      "channel": 1,
      "note": 85,
      "start": 17.6982,
      "duration": 0.1456,
      "velocity": 95,
      "chip": "ym2612"
    },
    {
      "channel": 1,
      "note": 66,
      "start": 17.8446,
      "duration": 0.1457,
      "velocity": 95,
      "chip": "ym2612"
    },
    {
      "channel": 3,
      "note": 66,
      "start": 17.8453,
      "duration": 0.2951,
      "velocity": 91,
      "chip": "ym2612"
    },
    {
      "channel": 1,
      "note": 83,
      "start": 17.9911,
      "duration": 0.1484,
      "velocity": 95,
      "chip": "ym2612"
    },
    {
      "channel": 1,
      "note": 66,
      "start": 18.1402,
      "duration": 0.1433,
      "velocity": 95,
      "chip": "ym2612"
    },
    {
      "channel": 3,
      "note": 54,
      "start": 18.1409,
      "duration": 0.2898,
      "velocity": 91,
      "chip": "ym2612"
    },
    {
      "channel": 2,
      "note": 37,
      "start": 18.142,
      "duration": 0.1238,
      "velocity": 120,
      "chip": "ym2612"
    },
    {
      "channel": 0,
      "note": 83,
      "start": 18.2833,
      "duration": 0.1457,
      "velocity": 91,
      "chip": "ym2612"
    },
    {
      "channel": 1,
      "note": 81,
      "start": 18.2843,
      "duration": 0.1455,
      "velocity": 95,
      "chip": "ym2612"
    },
    {
      "channel": 4,
      "note": 83,
      "start": 18.3941,
      "duration": 0.1459,
      "velocity": 91,
      "chip": "ym2612"
    },
    {
      "channel": 0,
      "note": 81,
      "start": 18.4297,
      "duration": 0.1459,
      "velocity": 91,
      "chip": "ym2612"
    },
    {
      "channel": 1,
      "note": 66,
      "start": 18.4306,
      "duration": 0.1457,
      "velocity": 95,
      "chip": "ym2612"
    },
    {
      "channel": 3,
      "note": 66,
      "start": 18.4313,
      "duration": 0.3013,
      "velocity": 91,
      "chip": "ym2612"
    },
    {
      "channel": 4,
      "note": 81,
      "start": 18.5406,
      "duration": 0.1457,
      "velocity": 91,
      "chip": "ym2612"
    },
    {
      "channel": 0,
      "note": 80,
      "start": 18.5761,
      "duration": 0.149,
      "velocity": 91,
      "chip": "ym2612"
    },
    {
      "channel": 1,
      "note": 80,
      "start": 18.5771,
      "duration": 0.1517,
      "velocity": 95,
      "chip": "ym2612"
    },
    {
      "channel": 4,
      "note": 80,
      "start": 18.6869,
      "duration": 0.1459,
      "velocity": 91,
      "chip": "ym2612"
    },
    {
      "channel": 0,
      "note": 81,
      "start": 18.7257,
      "duration": 2.046,
      "velocity": 91,
      "chip": "ym2612"
    },
    {
      "channel": 1,
      "note": 66,
      "start": 18.7295,
      "duration": 0.1391,
      "velocity": 95,
      "chip": "ym2612"
    },
    {
      "channel": 3,
      "note": 54,
      "start": 18.7331,
      "duration": 0.2832,
      "velocity": 91,
      "chip": "ym2612"
    },
    {
      "channel": 2,
      "note": 37,
      "start": 18.7342,
      "duration": 0.1173,
      "velocity": 120,
      "chip": "ym2612"
    },
    {
      "channel": 4,
      "note": 81,
      "start": 18.8335,
      "duration": 2.049,
      "velocity": 91,
      "chip": "ym2612"
    },
    {
      "channel": 1,
      "note": 66,
      "start": 18.8694,
      "duration": 0.1459,
      "velocity": 95,
      "chip": "ym2612"
    },
    {
      "channel": 1,
      "note": 78,
      "start": 19.0161,
      "duration": 0.1454,
      "velocity": 95,
      "chip": "ym2612"
    },
    {
      "channel": 1,
      "note": 66,
      "start": 19.1622,
      "duration": 0.1484,
      "velocity": 95,
      "chip": "ym2612"
    },
    {
      "channel": 1,
      "note": 80,
      "start": 19.3114,
      "duration": 0.1429,
      "velocity": 95,
      "chip": "ym2612"
    },
    {
      "channel": 3,
      "note": 54,
      "start": 19.3121,
      "duration": 0.2896,
      "velocity": 91,
      "chip": "ym2612"
    },
    {
      "channel": 2,
      "note": 41,
      "start": 19.3133,
      "duration": 0.2702,
      "velocity": 127,
      "chip": "ym2612"
    },
    {
      "channel": 1,
      "note": 66,
      "start": 19.4552,
      "duration": 0.1456,
      "velocity": 95,
      "chip": "ym2612"
    },
    {
      "channel": 1,
      "note": 81,
      "start": 19.6016,
      "duration": 0.1457,
      "velocity": 95,
      "chip": "ym2612"
    },
    {
      "channel": 1,
      "note": 66,
      "start": 19.748,
      "duration": 0.1483,
      "velocity": 95,
      "chip": "ym2612"
    },
    {
      "channel": 1,
      "note": 80,
      "start": 19.8971,
      "duration": 0.1433,
      "velocity": 95,
      "chip": "ym2612"
    },
    {
      "channel": 3,
      "note": 54,
      "start": 19.8979,
      "duration": 0.2894,
      "velocity": 91,
      "chip": "ym2612"
    },
    {
      "channel": 2,
      "note": 37,
      "start": 19.899,
      "duration": 0.1239,
      "velocity": 120,
      "chip": "ym2612"
    },
    {
      "channel": 1,
      "note": 66,
      "start": 20.0412,
      "duration": 0.1452,
      "velocity": 95,
      "chip": "ym2612"
    },
    {
      "channel": 1,
      "note": 78,
      "start": 20.1872,
      "duration": 0.1456,
      "velocity": 95,
      "chip": "ym2612"
    },
    {
      "channel": 1,
      "note": 66,
      "start": 20.3336,
      "duration": 0.1485,
      "velocity": 95,
      "chip": "ym2612"
    },
    {
      "channel": 1,
      "note": 76,
      "start": 20.4828,
      "duration": 0.1429,
      "velocity": 95,
      "chip": "ym2612"
    },
    {
      "channel": 3,
      "note": 54,
      "start": 20.4835,
      "duration": 0.29,
      "velocity": 91,
      "chip": "ym2612"
    },
    {
      "channel": 2,
      "note": 37,
      "start": 20.4846,
      "duration": 0.1239,
      "velocity": 120,
      "chip": "ym2612"
    },
    {
      "channel": 1,
      "note": 66,
      "start": 20.6264,
      "duration": 0.1461,
      "velocity": 95,
      "chip": "ym2612"
    },
    {
      "channel": 0,
      "note": 80,
      "start": 20.7724,
      "duration": 0.1457,
      "velocity": 91,
      "chip": "ym2612"
    },
    {
      "channel": 1,
      "note": 78,
      "start": 20.7732,
      "duration": 0.1456,
      "velocity": 95,
      "chip": "ym2612"
    },
    {
      "channel": 3,
      "note": 66,
      "start": 20.774,
      "duration": 0.2952,
      "velocity": 91,
      "chip": "ym2612"
    },
    {
      "channel": 4,
      "note": 80,
      "start": 20.8831,
      "duration": 0.1458,
      "velocity": 91,
      "chip": "ym2612"
    },
    {
      "channel": 0,
      "note": 81,
      "start": 20.9187,
      "duration": 0.1489,
      "velocity": 91,
      "chip": "ym2612"
    },
    {
      "channel": 1,
      "note": 73,
      "start": 20.9196,
      "duration": 0.1487,
      "velocity": 95,
      "chip": "ym2612"
    },
    {
      "channel": 4,
      "note": 81,
      "start": 21.0295,
      "duration": 0.1461,
      "velocity": 91,
      "chip": "ym2612"
    },
    {
      "channel": 0,
      "note": 83,
      "start": 21.0682,
      "duration": 2.0462,
      "velocity": 91,
      "chip": "ym2612"
    },
    {
      "channel": 1,
      "note": 66,
      "start": 21.0691,
      "duration": 0.1422,
      "velocity": 95,
      "chip": "ym2612"
    },
    {
      "channel": 3,
      "note": 54,
      "start": 21.0698,
      "duration": 0.2888,
      "velocity": 91,
      "chip": "ym2612"
    },
    {
      "channel": 2,
      "note": 37,
      "start": 21.0709,
      "duration": 0.1232,
      "velocity": 120,
      "chip": "ym2612"
    },
    {
      "channel": 4,
      "note": 83,
      "start": 21.1763,
      "duration": 2.0488,
      "velocity": 91,
      "chip": "ym2612"
    },
    {
      "channel": 1,
      "note": 78,
      "start": 21.2121,
      "duration": 0.1456,
      "velocity": 95,
      "chip": "ym2612"
    },
    {
      "channel": 1,
      "note": 66,
      "start": 21.3584,
      "duration": 0.1457,
      "velocity": 95,
      "chip": "ym2612"
    },
    {
      "channel": 1,
      "note": 80,
      "start": 21.505,
      "duration": 0.1483,
      "velocity": 95,
      "chip": "ym2612"
    },
    {
      "channel": 1,
      "note": 66,
      "start": 21.6541,
      "duration": 0.1429,
      "velocity": 95,
      "chip": "ym2612"
    },
    {
      "channel": 3,
      "note": 54,
      "start": 21.6549,
      "duration": 0.2893,
      "velocity": 91,
      "chip": "ym2612"
    },
    {
      "channel": 2,
      "note": 41,
      "start": 21.6561,
      "duration": 0.2701,
      "velocity": 127,
      "chip": "ym2612"
    },
    {
      "channel": 1,
      "note": 81,
      "start": 21.7978,
      "duration": 0.1456,
      "velocity": 95,
      "chip": "ym2612"
    },
    {
      "channel": 1,
      "note": 66,
      "start": 21.9441,
      "duration": 0.1457,
      "velocity": 95,
      "chip": "ym2612"
    },
    {
      "channel": 1,
      "note": 83,
      "start": 22.0906,
      "duration": 0.1484,
      "velocity": 95,
      "chip": "ym2612"
    },
    {
      "channel": 1,
      "note": 66,
      "start": 22.2398,
      "duration": 0.1428,
      "velocity": 95,
      "chip": "ym2612"
    },
    {
      "channel": 3,
      "note": 54,
      "start": 22.2405,
      "duration": 0.2895,
      "velocity": 91,
      "chip": "ym2612"
    },
    {
      "channel": 2,
      "note": 37,
      "start": 22.2416,
      "duration": 0.1239,
      "velocity": 120,
      "chip": "ym2612"
    },
    {
      "channel": 1,
      "note": 85,
      "start": 22.3834,
      "duration": 0.1456,
      "velocity": 95,
      "chip": "ym2612"
    },
    {
      "channel": 1,
      "note": 66,
      "start": 22.5298,
      "duration": 0.1457,
      "velocity": 95,
      "chip": "ym2612"
    },
    {
      "channel": 3,
      "note": 66,
      "start": 22.5306,
      "duration": 0.2951,
      "velocity": 91,
      "chip": "ym2612"
    },
    {
      "channel": 1,
      "note": 83,
      "start": 22.6762,
      "duration": 0.1485,
      "velocity": 95,
      "chip": "ym2612"
    },
    {
      "channel": 1,
      "note": 66,
      "start": 22.8255,
      "duration": 0.1428,
      "velocity": 95,
      "chip": "ym2612"
    },
    {
      "channel": 3,
      "note": 54,
      "start": 22.8262,
      "duration": 0.2898,
      "velocity": 91,
      "chip": "ym2612"
    },
    {
      "channel": 2,
      "note": 37,
      "start": 22.8273,
      "duration": 0.1238,
      "velocity": 120,
      "chip": "ym2612"
    },
    {
      "channel": 1,
      "note": 81,
      "start": 22.9691,
      "duration": 0.1461,
      "velocity": 95,
      "chip": "ym2612"
    },
    {
      "channel": 0,
      "note": 81,
      "start": 23.115,
      "duration": 0.1457,
      "velocity": 91,
      "chip": "ym2612"
    },
    {
      "channel": 1,
      "note": 66,
      "start": 23.1159,
      "duration": 0.1456,
      "velocity": 95,
      "chip": "ym2612"
    },
    {
      "channel": 3,
      "note": 66,
      "start": 23.1166,
      "duration": 0.301,
      "velocity": 91,
      "chip": "ym2612"
    },
    {
      "channel": 4,
      "note": 81,
      "start": 23.2258,
      "duration": 0.1459,
      "velocity": 91,
      "chip": "ym2612"
    },
    {
      "channel": 0,
      "note": 83,
      "start": 23.2614,
      "duration": 0.1488,
      "velocity": 91,
      "chip": "ym2612"
    },
    {
      "channel": 1,
      "note": 80,
      "start": 23.2623,
      "duration": 0.1516,
      "velocity": 95,
      "chip": "ym2612"
    },
    {
      "channel": 4,
      "note": 83,
      "start": 23.3722,
      "duration": 0.1459,
      "velocity": 91,
      "chip": "ym2612"
    },
    {
      "channel": 0,
      "note": 85,
      "start": 23.4109,
      "duration": 0.1427,
      "velocity": 91,
      "chip": "ym2612"
    },
    {
      "channel": 1,
      "note": 66,
      "start": 23.4147,
      "duration": 0.1397,
      "velocity": 95,
      "chip": "ym2612"
    },
    {
      "channel": 3,
      "note": 54,
      "start": 23.4182,
      "duration": 0.2835,
      "velocity": 91,
      "chip": "ym2612"
    },
    {
      "channel": 2,
      "note": 37,
      "start": 23.4193,
      "duration": 0.1175,
      "velocity": 120,
      "chip": "ym2612"
    },
    {
      "channel": 4,
      "note": 85,
      "start": 23.5187,
      "duration": 0.1458,
      "velocity": 91,
      "chip": "ym2612"
    },
    {
      "channel": 0,
      "note": 86,
      "start": 23.5542,
      "duration": 0.1458,
      "velocity": 91,
      "chip": "ym2612"
    },
    {
      "channel": 1,
      "note": 66,
      "start": 23.5552,
      "duration": 0.1456,
      "velocity": 95,
      "chip": "ym2612"
    },
    {
      "channel": 4,
      "note": 86,
      "start": 23.6651,
      "duration": 0.1454,
      "velocity": 91,
      "chip": "ym2612"
    },
    {
      "channel": 0,
      "note": 85,
      "start": 23.7007,
      "duration": 0.1457,
      "velocity": 91,
      "chip": "ym2612"
    },
    {
      "channel": 1,
      "note": 78,
      "start": 23.7016,
      "duration": 0.1455,
      "velocity": 95,
      "chip": "ym2612"
    },
    {
      "channel": 4,
      "note": 85,
      "start": 23.8112,
      "duration": 0.1458,
      "velocity": 91,
      "chip": "ym2612"
    },
    {
      "channel": 0,
      "note": 83,
      "start": 23.8471,
      "duration": 0.1485,
      "velocity": 91,
      "chip": "ym2612"
    },
    {
      "channel": 1,
      "note": 66,
      "start": 23.8479,
      "duration": 0.1484,
      "velocity": 95,
      "chip": "ym2612"
    },
    {
      "channel": 4,
      "note": 83,
      "start": 23.9576,
      "duration": 0.1461,
      "velocity": 91,
      "chip": "ym2612"
    },
    {
      "channel": 0,
      "note": 85,
      "start": 23.9962,
      "duration": 0.7288,
      "velocity": 91,
      "chip": "ym2612"
    },
    {
      "channel": 1,
      "note": 80,
      "start": 23.9971,
      "duration": 0.1424,
      "velocity": 95,
      "chip": "ym2612"
    },
    {
      "channel": 3,
      "note": 54,
      "start": 23.9979,
      "duration": 0.289,
      "velocity": 91,
      "chip": "ym2612"
    },
    {
      "channel": 2,
      "note": 41,
      "start": 23.999,
      "duration": 0.2698,
      "velocity": 127,
      "chip": "ym2612"
    },
    {
      "channel": 4,
      "note": 85,
      "start": 24.1043,
      "duration": 0.7314,
      "velocity": 91,
      "chip": "ym2612"
    },
    {
      "channel": 1,
      "note": 66,
      "start": 24.1404,
      "duration": 0.1456,
      "velocity": 95,
      "chip": "ym2612"
    },
    {
      "channel": 1,
      "note": 81,
      "start": 24.2867,
      "duration": 0.1457,
      "velocity": 95,
      "chip": "ym2612"
    },
    {
      "channel": 1,
      "note": 66,
      "start": 24.4332,
      "duration": 0.1484,
      "velocity": 95,
      "chip": "ym2612"
    },
    {
      "channel": 1,
      "note": 80,
      "start": 24.5824,
      "duration": 0.1433,
      "velocity": 95,
      "chip": "ym2612"
    },
    {
      "channel": 3,
      "note": 54,
      "start": 24.5832,
      "duration": 0.2898,
      "velocity": 91,
      "chip": "ym2612"
    },
    {
      "channel": 2,
      "note": 37,
      "start": 24.5843,
      "duration": 0.1238,
      "velocity": 120,
      "chip": "ym2612"
    },
    {
      "channel": 0,
      "note": 86,
      "start": 24.7256,
      "duration": 0.1457,
      "velocity": 91,
      "chip": "ym2612"
    },
    {
      "channel": 1,
      "note": 66,
      "start": 24.7265,
      "duration": 0.1456,
      "velocity": 95,
      "chip": "ym2612"
    },
    {
      "channel": 4,
      "note": 86,
      "start": 24.8363,
      "duration": 0.1455,
      "velocity": 91,
      "chip": "ym2612"
    },
    {
      "channel": 0,
      "note": 85,
      "start": 24.8719,
      "duration": 0.1458,
      "velocity": 91,
      "chip": "ym2612"
    },
    {
      "channel": 1,
      "note": 78,
      "start": 24.8729,
      "duration": 0.1456,
      "velocity": 95,
      "chip": "ym2612"
    },
    {
      "channel": 4,
      "note": 85,
      "start": 24.9825,
      "duration": 0.1458,
      "velocity": 91,
      "chip": "ym2612"
    },
    {
      "channel": 0,
      "note": 83,
      "start": 25.0183,
      "duration": 0.1487,
      "velocity": 91,
      "chip": "ym2612"
    },
    {
      "channel": 1,
      "note": 66,
      "start": 25.0193,
      "duration": 0.1485,
      "velocity": 95,
      "chip": "ym2612"
    },
    {
      "channel": 4,
      "note": 83,
      "start": 25.1289,
      "duration": 0.1461,
      "velocity": 91,
      "chip": "ym2612"
    },
    {
      "channel": 0,
      "note": 85,
      "start": 25.1676,
      "duration": 0.7285,
      "velocity": 91,
      "chip": "ym2612"
    },
    {
      "channel": 1,
      "note": 76,
      "start": 25.1685,
      "duration": 0.1424,
      "velocity": 95,
      "chip": "ym2612"
    },
    {
      "channel": 3,
      "note": 54,
      "start": 25.1693,
      "duration": 0.289,
      "velocity": 91,
      "chip": "ym2612"
    },
    {
      "channel": 2,
      "note": 37,
      "start": 25.1703,
      "duration": 0.1234,
      "velocity": 120,
      "chip": "ym2612"
    },
    {
      "channel": 4,
      "note": 85,
      "start": 25.2756,
      "duration": 0.7315,
      "velocity": 91,
      "chip": "ym2612"
    },
    {
      "channel": 1,
      "note": 66,
      "start": 25.3117,
      "duration": 0.1457,
      "velocity": 95,
      "chip": "ym2612"
    },
    {
      "channel": 1,
      "note": 78,
      "start": 25.4582,
      "duration": 0.1456,
      "velocity": 95,
      "chip": "ym2612"
    },
    {
      "channel": 3,
      "note": 66,
      "start": 25.4589,
      "duration": 0.2952,
      "velocity": 91,
      "chip": "ym2612"
    },
    {
      "channel": 1,
      "note": 73,
      "start": 25.6046,
      "duration": 0.1486,
      "velocity": 95,
      "chip": "ym2612"
    },
    {
      "channel": 1,
      "note": 66,
      "start": 25.754,
      "duration": 0.1429,
      "velocity": 95,
      "chip": "ym2612"
    },
    {
      "channel": 3,
      "note": 54,
      "start": 25.7547,
      "duration": 0.2895,
      "velocity": 91,
      "chip": "ym2612"
    },
    {
      "channel": 2,
      "note": 37,
      "start": 25.7558,
      "duration": 0.1235,
      "velocity": 120,
      "chip": "ym2612"
    },
    {
      "channel": 0,
      "note": 86,
      "start": 25.8968,
      "duration": 0.1458,
      "velocity": 91,
      "chip": "ym2612"
    },
    {
      "channel": 1,
      "note": 78,
      "start": 25.8977,
      "duration": 0.1456,
      "velocity": 95,
      "chip": "ym2612"
    },
    {
      "channel": 4,
      "note": 86,
      "start": 26.0077,
      "duration": 0.1455,
      "velocity": 91,
      "chip": "ym2612"
    },
    {
      "channel": 0,
      "note": 85,
      "start": 26.0432,
      "duration": 0.1458,
      "velocity": 91,
      "chip": "ym2612"
    },
    {
      "channel": 1,
      "note": 66,
      "start": 26.0441,
      "duration": 0.1457,
      "velocity": 95,
      "chip": "ym2612"
    },
    {
      "channel": 4,
      "note": 85,
      "start": 26.1539,
      "duration": 0.1457,
      "velocity": 91,
      "chip": "ym2612"
    },
    {
      "channel": 0,
      "note": 83,
      "start": 26.1897,
      "duration": 0.1486,
      "velocity": 91,
      "chip": "ym2612"
    },
    {
      "channel": 1,
      "note": 80,
      "start": 26.1905,
      "duration": 0.1485,
      "velocity": 95,
      "chip": "ym2612"
    },
    {
      "channel": 4,
      "note": 83,
      "start": 26.3002,
      "duration": 0.1461,
      "velocity": 91,
      "chip": "ym2612"
    },
    {
      "channel": 0,
      "note": 85,
      "start": 26.3388,
      "duration": 0.1431,
      "velocity": 91,
      "chip": "ym2612"
    },
    {
      "channel": 1,
      "note": 66,
      "start": 26.3398,
      "duration": 0.1429,
      "velocity": 95,
      "chip": "ym2612"
    },
    {
      "channel": 3,
      "note": 54,
      "start": 26.3405,
      "duration": 0.2896,
      "velocity": 91,
      "chip": "ym2612"
    },
    {
      "channel": 2,
      "note": 37,
      "start": 26.3416,
      "duration": 0.1234,
      "velocity": 120,
      "chip": "ym2612"
    },
    {
      "channel": 4,
      "note": 85,
      "start": 26.447,
      "duration": 0.1457,
      "velocity": 91,
      "chip": "ym2612"
    },
    {
      "channel": 0,
      "note": 83,
      "start": 26.4825,
      "duration": 0.146,
      "velocity": 91,
      "chip": "ym2612"
    },
    {
      "channel": 1,
      "note": 81,
      "start": 26.4834,
      "duration": 0.1459,
      "velocity": 95,
      "chip": "ym2612"
    },
    {
      "channel": 4,
      "note": 83,
      "start": 26.5933,
      "duration": 0.1457,
      "velocity": 91,
      "chip": "ym2612"
    },
    {
      "channel": 0,
      "note": 81,
      "start": 26.6291,
      "duration": 0.1457,
      "velocity": 91,
      "chip": "ym2612"
    },
    {
      "channel": 1,
      "note": 66,
      "start": 26.63,
      "duration": 0.1455,
      "velocity": 95,
      "chip": "ym2612"
    },
    {
      "channel": 4,
      "note": 81,
      "start": 26.7395,
      "duration": 0.1458,
      "velocity": 91,
      "chip": "ym2612"
    },
    {
      "channel": 0,
      "note": 83,
      "start": 26.7754,
      "duration": 0.1485,
      "velocity": 91,
      "chip": "ym2612"
    },
    {
      "channel": 1,
      "note": 83,
      "start": 26.7763,
      "duration": 0.1483,
      "velocity": 95,
      "chip": "ym2612"
    },
    {
      "channel": 4,
      "note": 83,
      "start": 26.8859,
      "duration": 0.1461,
      "velocity": 91,
      "chip": "ym2612"
    },
    {
      "channel": 0,
      "note": 85,
      "start": 26.9245,
      "duration": 0.1459,
      "velocity": 91,
      "chip": "ym2612"
    },
    {
      "channel": 1,
      "note": 66,
      "start": 26.9254,
      "duration": 0.1456,
      "velocity": 95,
      "chip": "ym2612"
    },
    {
      "channel": 3,
      "note": 54,
      "start": 26.9261,
      "duration": 0.2896,
      "velocity": 91,
      "chip": "ym2612"
    },
    {
      "channel": 2,
      "note": 41,
      "start": 26.9273,
      "duration": 0.0669,
      "velocity": 127,
      "chip": "ym2612"
    },
    {
      "channel": 2,
      "note": 41,
      "start": 26.9991,
      "duration": 0.0683,
      "velocity": 127,
      "chip": "ym2612"
    },
    {
      "channel": 4,
      "note": 85,
      "start": 27.0326,
      "duration": 0.1457,
      "velocity": 91,
      "chip": "ym2612"
    },
    {
      "channel": 0,
      "note": 83,
      "start": 27.0709,
      "duration": 0.1432,
      "velocity": 91,
      "chip": "ym2612"
    },
    {
      "channel": 1,
      "note": 85,
      "start": 27.0719,
      "duration": 0.1429,
      "velocity": 95,
      "chip": "ym2612"
    },
    {
      "channel": 2,
      "note": 41,
      "start": 27.0734,
      "duration": 0.2701,
      "velocity": 127,
      "chip": "ym2612"
    },
    {
      "channel": 4,
      "note": 83,
      "start": 27.179,
      "duration": 0.1459,
      "velocity": 91,
      "chip": "ym2612"
    },
    {
      "channel": 0,
      "note": 81,
      "start": 27.2147,
      "duration": 0.1485,
      "velocity": 91,
      "chip": "ym2612"
    },
    {
      "channel": 1,
      "note": 66,
      "start": 27.2156,
      "duration": 0.1483,
      "velocity": 95,
      "chip": "ym2612"
    },
    {
      "channel": 3,
      "note": 66,
      "start": 27.2164,
      "duration": 0.2949,
      "velocity": 91,
      "chip": "ym2612"
    },
    {
      "channel": 4,
      "note": 81,
      "start": 27.3255,
      "duration": 0.1458,
      "velocity": 91,
      "chip": "ym2612"
    },
    {
      "channel": 0,
      "note": 80,
      "start": 27.3638,
      "duration": 0.1458,
      "velocity": 91,
      "chip": "ym2612"
    },
    {
      "channel": 1,
      "note": 83,
      "start": 27.3647,
      "duration": 0.1456,
      "velocity": 95,
      "chip": "ym2612"
    },
    {
      "channel": 2,
      "note": 41,
      "start": 27.3662,
      "duration": 0.1406,
      "velocity": 127,
      "chip": "ym2612"
    },
    {
      "channel": 4,
      "note": 80,
      "start": 27.4719,
      "duration": 0.1457,
      "velocity": 91,
      "chip": "ym2612"
    },
    {
      "channel": 0,
      "note": 81,
      "start": 27.5102,
      "duration": 0.1462,
      "velocity": 91,
      "chip": "ym2612"
    },
    {
      "channel": 1,
      "note": 66,
      "start": 27.5111,
      "duration": 0.1461,
      "velocity": 95,
      "chip": "ym2612"
    },
    {
      "channel": 3,
      "note": 54,
      "start": 27.5119,
      "duration": 0.2921,
      "velocity": 91,
      "chip": "ym2612"
    },
    {
      "channel": 2,
      "note": 37,
      "start": 27.5129,
      "duration": 0.1234,
      "velocity": 120,
      "chip": "ym2612"
    },
    {
      "channel": 4,
      "note": 81,
      "start": 27.6182,
      "duration": 0.1459,
      "velocity": 91,
      "chip": "ym2612"
    },
    {
      "channel": 0,
      "note": 80,
      "start": 27.657,
      "duration": 0.1454,
      "velocity": 91,
      "chip": "ym2612"
    },
    {
      "channel": 1,
      "note": 81,
      "start": 27.6579,
      "duration": 0.1452,
      "velocity": 95,
      "chip": "ym2612"
    },
    {
      "channel": 2,
      "note": 41,
      "start": 27.6595,
      "duration": 0.1401,
      "velocity": 127,
      "chip": "ym2612"
    },
    {
      "channel": 4,
      "note": 80,
      "start": 27.7647,
      "duration": 0.1457,
      "velocity": 91,
      "chip": "ym2612"
    },
    {
      "channel": 0,
      "note": 78,
      "start": 27.8029,
      "duration": 0.1459,
      "velocity": 91,
      "chip": "ym2612"
    },
    {
      "channel": 1,
      "note": 66,
      "start": 27.8039,
      "duration": 0.1457,
      "velocity": 95,
      "chip": "ym2612"
    },
    {
      "channel": 3,
      "note": 66,
      "start": 27.8046,
      "duration": 0.2929,
      "velocity": 91,
      "chip": "ym2612"
    },
    {
      "channel": 2,
      "note": 41,
      "start": 27.8058,
      "duration": 0.1402,
      "velocity": 127,
      "chip": "ym2612"
    },
    {
      "channel": 4,
      "note": 78,
      "start": 27.911,
      "duration": 0.1459,
      "velocity": 91,
      "chip": "ym2612"
    },
    {
      "channel": 0,
      "note": 76,
      "start": 27.9494,
      "duration": 0.1461,
      "velocity": 91,
      "chip": "ym2612"
    },
    {
      "channel": 1,
      "note": 80,
      "start": 27.9503,
      "duration": 0.1461,
      "velocity": 95,
      "chip": "ym2612"
    },
    {
      "channel": 2,
      "note": 41,
      "start": 27.9518,
      "duration": 0.1408,
      "velocity": 127,
      "chip": "ym2612"
    },
    {
      "channel": 4,
      "note": 76,
      "start": 28.0575,
      "duration": 0.1457,
      "velocity": 91,
      "chip": "ym2612"
    },
    {
      "channel": 0,
      "note": 85,
      "start": 28.096,
      "duration": 2.0464,
      "velocity": 91,
      "chip": "ym2612"
    },
    {
      "channel": 1,
      "note": 62,
      "start": 28.0972,
      "duration": 0.142,
      "velocity": 95,
      "chip": "ym2612"
    },
    {
      "channel": 3,
      "note": 50,
      "start": 28.098,
      "duration": 0.2885,
      "velocity": 91,
      "chip": "ym2612"
    },
    {
      "channel": 2,
      "note": 37,
      "start": 28.0991,
      "duration": 0.1228,
      "velocity": 120,
      "chip": "ym2612"
    },
    {
      "channel": 4,
      "note": 85,
      "start": 28.2039,
      "duration": 2.0492,
      "velocity": 91,
      "chip": "ym2612"
    },
    {
      "channel": 1,
      "note": 74,
      "start": 28.2399,
      "duration": 0.1457,
      "velocity": 95,
      "chip": "ym2612"
    },
    {
      "channel": 1,
      "note": 62,
      "start": 28.3863,
      "duration": 0.1457,
      "velocity": 95,
      "chip": "ym2612"
    },
    {
      "channel": 1,
      "note": 73,
      "start": 28.5329,
      "duration": 0.1483,
      "velocity": 95,
      "chip": "ym2612"
    },
    {
      "channel": 1,
      "note": 74,
      "start": 28.682,
      "duration": 0.1429,
      "velocity": 95,
      "chip": "ym2612"
    },
    {
      "channel": 3,
      "note": 50,
      "start": 28.6827,
      "duration": 0.2896,
      "velocity": 91,
      "chip": "ym2612"
    },
    {
      "channel": 2,
      "note": 41,
      "start": 28.6839,
      "duration": 0.2702,
      "velocity": 127,
      "chip": "ym2612"
    },
    {
      "channel": 1,
      "note": 62,
      "start": 28.8256,
      "duration": 0.1457,
      "velocity": 95,
      "chip": "ym2612"
    },
    {
      "channel": 1,
      "note": 74,
      "start": 28.9721,
      "duration": 0.1456,
      "velocity": 95,
      "chip": "ym2612"
    },
    {
      "channel": 1,
      "note": 62,
      "start": 29.1185,
      "duration": 0.1483,
      "velocity": 95,
      "chip": "ym2612"
    },
    {
      "channel": 1,
      "note": 73,
      "start": 29.2676,
      "duration": 0.1429,
      "velocity": 95,
      "chip": "ym2612"
    },
    {
      "channel": 3,
      "note": 50,
      "start": 29.2683,
      "duration": 0.2895,
      "velocity": 91,
      "chip": "ym2612"
    },
    {
      "channel": 2,
      "note": 37,
      "start": 29.2694,
      "duration": 0.1239,
      "velocity": 120,
      "chip": "ym2612"
    },
    {
      "channel": 1,
      "note": 74,
      "start": 29.4113,
      "duration": 0.1456,
      "velocity": 95,
      "chip": "ym2612"
    },
    {
      "channel": 1,
      "note": 62,
      "start": 29.5577,
      "duration": 0.1457,
      "velocity": 95,
      "chip": "ym2612"
    },
    {
      "channel": 1,
      "note": 74,
      "start": 29.7042,
      "duration": 0.1483,
      "velocity": 95,
      "chip": "ym2612"
    },
    {
      "channel": 1,
      "note": 73,
      "start": 29.8533,
      "duration": 0.1456,
      "velocity": 95,
      "chip": "ym2612"
    },
    {
      "channel": 3,
      "note": 50,
      "start": 29.854,
      "duration": 0.29,
      "velocity": 91,
      "chip": "ym2612"
    },
    {
      "channel": 2,
      "note": 41,
      "start": 29.8552,
      "duration": 0.1405,
      "velocity": 127,
      "chip": "ym2612"
    },
    {
      "channel": 1,
      "note": 74,
      "start": 29.9997,
      "duration": 0.1434,
      "velocity": 95,
      "chip": "ym2612"
    },
    {
      "channel": 2,
      "note": 41,
      "start": 30.0012,
      "duration": 0.2706,
      "velocity": 127,
      "chip": "ym2612"
    },
    {
      "channel": 0,
      "note": 83,
      "start": 30.143,
      "duration": 0.1457,
      "velocity": 91,
      "chip": "ym2612"
    },
    {
      "channel": 1,
      "note": 62,
      "start": 30.1439,
      "duration": 0.1455,
      "velocity": 95,
      "chip": "ym2612"
    },
    {
      "channel": 3,
      "note": 62,
      "start": 30.1446,
      "duration": 0.2953,
      "velocity": 91,
      "chip": "ym2612"
    },
    {
      "channel": 4,
      "note": 83,
      "start": 30.2537,
      "duration": 0.1458,
      "velocity": 91,
      "chip": "ym2612"
    },
    {
      "channel": 0,
      "note": 81,
      "start": 30.2892,
      "duration": 0.1489,
      "velocity": 91,
      "chip": "ym2612"
    },
    {
      "channel": 1,
      "note": 74,
      "start": 30.2902,
      "duration": 0.1488,
      "velocity": 95,
      "chip": "ym2612"
    },
    {
      "channel": 4,
      "note": 81,
      "start": 30.4002,
      "duration": 0.1457,
      "velocity": 91,
      "chip": "ym2612"
    },
    {
      "channel": 0,
      "note": 83,
      "start": 30.4388,
      "duration": 2.0463,
      "velocity": 91,
      "chip": "ym2612"
    },
    {
      "channel": 1,
      "note": 62,
      "start": 30.4398,
      "duration": 0.142,
      "velocity": 95,
      "chip": "ym2612"
    },
    {
      "channel": 3,
      "note": 50,
      "start": 30.4405,
      "duration": 0.2887,
      "velocity": 91,
      "chip": "ym2612"
    },
    {
      "channel": 2,
      "note": 37,
      "start": 30.4416,
      "duration": 0.123,
      "velocity": 120,
      "chip": "ym2612"
    },
    {
      "channel": 4,
      "note": 83,
      "start": 30.5465,
      "duration": 2.0492,
      "velocity": 91,
      "chip": "ym2612"
    },
    {
      "channel": 1,
      "note": 74,
      "start": 30.5825,
      "duration": 0.1457,
      "velocity": 95,
      "chip": "ym2612"
    },
    {
      "channel": 1,
      "note": 62,
      "start": 30.729,
      "duration": 0.1455,
      "velocity": 95,
      "chip": "ym2612"
    },
    {
      "channel": 1,
      "note": 73,
      "start": 30.8754,
      "duration": 0.1484,
      "velocity": 95,
      "chip": "ym2612"
    },
    {
      "channel": 1,
      "note": 74,
      "start": 31.0246,
      "duration": 0.1429,
      "velocity": 95,
      "chip": "ym2612"
    },
    {
      "channel": 3,
      "note": 50,
      "start": 31.0254,
      "duration": 0.2894,
      "velocity": 91,
      "chip": "ym2612"
    },
    {
      "channel": 2,
      "note": 41,
      "start": 31.0266,
      "duration": 0.2702,
      "velocity": 127,
      "chip": "ym2612"
    },
    {
      "channel": 1,
      "note": 62,
      "start": 31.1683,
      "duration": 0.1455,
      "velocity": 95,
      "chip": "ym2612"
    },
    {
      "channel": 1,
      "note": 74,
      "start": 31.3146,
      "duration": 0.1457,
      "velocity": 95,
      "chip": "ym2612"
    },
    {
      "channel": 1,
      "note": 62,
      "start": 31.4611,
      "duration": 0.1484,
      "velocity": 95,
      "chip": "ym2612"
    },
    {
      "channel": 1,
      "note": 73,
      "start": 31.6103,
      "duration": 0.1427,
      "velocity": 95,
      "chip": "ym2612"
    },
    {
      "channel": 3,
      "note": 50,
      "start": 31.611,
      "duration": 0.2894,
      "velocity": 91,
      "chip": "ym2612"
    },
    {
      "channel": 2,
      "note": 37,
      "start": 31.6121,
      "duration": 0.1239,
      "velocity": 120,
      "chip": "ym2612"
    },
    {
      "channel": 1,
      "note": 74,
      "start": 31.7539,
      "duration": 0.1457,
      "velocity": 95,
      "chip": "ym2612"
    },
    {
      "channel": 1,
      "note": 62,
      "start": 31.9003,
      "duration": 0.1456,
      "velocity": 95,
      "chip": "ym2612"
    },
    {
      "channel": 3,
      "note": 62,
      "start": 31.901,
      "duration": 0.295,
      "velocity": 91,
      "chip": "ym2612"
    },
    {
      "channel": 1,
      "note": 74,
      "start": 32.0467,
      "duration": 0.1485,
      "velocity": 95,
      "chip": "ym2612"
    },
    {
      "channel": 1,
      "note": 73,
      "start": 32.196,
      "duration": 0.1455,
      "velocity": 95,
      "chip": "ym2612"
    },
    {
      "channel": 3,
      "note": 50,
      "start": 32.1967,
      "duration": 0.29,
      "velocity": 91,
      "chip": "ym2612"
    },
    {
      "channel": 2,
      "note": 41,
      "start": 32.1979,
      "duration": 0.1405,
      "velocity": 127,
      "chip": "ym2612"
    },
    {
      "channel": 1,
      "note": 74,
      "start": 32.3423,
      "duration": 0.1435,
      "velocity": 95,
      "chip": "ym2612"
    },
    {
      "channel": 2,
      "note": 41,
      "start": 32.3438,
      "duration": 0.2706,
      "velocity": 127,
      "chip": "ym2612"
    },
    {
      "channel": 0,
      "note": 81,
      "start": 32.4856,
      "duration": 0.1456,
      "velocity": 91,
      "chip": "ym2612"
    },
    {
      "channel": 1,
      "note": 62,
      "start": 32.4866,
      "duration": 0.1454,
      "velocity": 95,
      "chip": "ym2612"
    },
    {
      "channel": 3,
      "note": 62,
      "start": 32.4873,
      "duration": 0.2953,
      "velocity": 91,
      "chip": "ym2612"
    },
    {
      "channel": 4,
      "note": 81,
      "start": 32.5963,
      "duration": 0.1459,
      "velocity": 91,
      "chip": "ym2612"
    },
    {
      "channel": 0,
      "note": 80,
      "start": 32.6318,
      "duration": 0.1489,
      "velocity": 91,
      "chip": "ym2612"
    },
    {
      "channel": 1,
      "note": 74,
      "start": 32.6327,
      "duration": 0.1489,
      "velocity": 95,
      "chip": "ym2612"
    },
    {
      "channel": 4,
      "note": 80,
      "start": 32.7428,
      "duration": 0.1458,
      "velocity": 91,
      "chip": "ym2612"
    },
    {
      "channel": 0,
      "note": 81,
      "start": 32.7814,
      "duration": 0.8748,
      "velocity": 91,
      "chip": "ym2612"
    },
    {
      "channel": 1,
      "note": 62,
      "start": 32.7823,
      "duration": 0.1421,
      "velocity": 95,
      "chip": "ym2612"
    },
    {
      "channel": 3,
      "note": 50,
      "start": 32.7832,
      "duration": 0.2887,
      "velocity": 91,
      "chip": "ym2612"
    },
    {
      "channel": 2,
      "note": 37,
      "start": 32.7843,
      "duration": 0.123,
      "velocity": 120,
      "chip": "ym2612"
    },
    {
      "channel": 4,
      "note": 81,
      "start": 32.8892,
      "duration": 0.8776,
      "velocity": 91,
      "chip": "ym2612"
    },
    {
      "channel": 1,
      "note": 74,
      "start": 32.9252,
      "duration": 0.1457,
      "velocity": 95,
      "chip": "ym2612"
    },
    {
      "channel": 1,
      "note": 62,
      "start": 33.0717,
      "duration": 0.1457,
      "velocity": 95,
      "chip": "ym2612"
    },
    {
      "channel": 1,
      "note": 73,
      "start": 33.2182,
      "duration": 0.1483,
      "velocity": 95,
      "chip": "ym2612"
    },
    {
      "channel": 1,
      "note": 74,
      "start": 33.3673,
      "duration": 0.1428,
      "velocity": 95,
      "chip": "ym2612"
    },
    {
      "channel": 3,
      "note": 50,
      "start": 33.368,
      "duration": 0.2898,
      "velocity": 91,
      "chip": "ym2612"
    },
    {
      "channel": 2,
      "note": 41,
      "start": 33.3692,
      "duration": 0.2702,
      "velocity": 127,
      "chip": "ym2612"
    },
    {
      "channel": 1,
      "note": 62,
      "start": 33.5108,
      "duration": 0.1461,
      "velocity": 95,
      "chip": "ym2612"
    },
    {
      "channel": 0,
      "note": 80,
      "start": 33.6568,
      "duration": 0.1458,
      "velocity": 91,
      "chip": "ym2612"
    },
    {
      "channel": 1,
      "note": 74,
      "start": 33.6577,
      "duration": 0.1457,
      "velocity": 95,
      "chip": "ym2612"
    },
    {
      "channel": 4,
      "note": 80,
      "start": 33.7674,
      "duration": 0.1458,
      "velocity": 91,
      "chip": "ym2612"
    },
    {
      "channel": 0,
      "note": 78,
      "start": 33.8032,
      "duration": 0.1487,
      "velocity": 91,
      "chip": "ym2612"
    },
    {
      "channel": 1,
      "note": 62,
      "start": 33.8041,
      "duration": 0.1484,
      "velocity": 95,
      "chip": "ym2612"
    },
    {
      "channel": 4,
      "note": 78,
      "start": 33.9138,
      "duration": 0.146,
      "velocity": 91,
      "chip": "ym2612"
    },
    {
      "channel": 0,
      "note": 80,
      "start": 33.9524,
      "duration": 0.8753,
      "velocity": 91,
      "chip": "ym2612"
    },
    {
      "channel": 1,
      "note": 73,
      "start": 33.9533,
      "duration": 0.1424,
      "velocity": 95,
      "chip": "ym2612"
    },
    {
      "channel": 3,
      "note": 50,
      "start": 33.954,
      "duration": 0.2894,
      "velocity": 91,
      "chip": "ym2612"
    },
    {
      "channel": 2,
      "note": 37,
      "start": 33.9552,
      "duration": 0.1233,
      "velocity": 120,
      "chip": "ym2612"
    },
    {
      "channel": 4,
      "note": 80,
      "start": 34.0605,
      "duration": 0.8779,
      "velocity": 91,
      "chip": "ym2612"
    },
    {
      "channel": 1,
      "note": 74,
      "start": 34.0965,
      "duration": 0.1459,
      "velocity": 95,
      "chip": "ym2612"
    },
    {
      "channel": 1,
      "note": 62,
      "start": 34.2432,
      "duration": 0.1454,
      "velocity": 95,
      "chip": "ym2612"
    },
    {
      "channel": 1,
      "note": 74,
      "start": 34.3893,
      "duration": 0.1485,
      "velocity": 95,
      "chip": "ym2612"
    },
    {
      "channel": 1,
      "note": 73,
      "start": 34.5386,
      "duration": 0.1456,
      "velocity": 95,
      "chip": "ym2612"
    },
    {
      "channel": 3,
      "note": 50,
      "start": 34.5393,
      "duration": 0.29,
      "velocity": 91,
      "chip": "ym2612"
    },
    {
      "channel": 2,
      "note": 41,
      "start": 34.5405,
      "duration": 0.1405,
      "velocity": 127,
      "chip": "ym2612"
    },
    {
      "channel": 1,
      "note": 74,
      "start": 34.685,
      "duration": 0.1434,
      "velocity": 95,
      "chip": "ym2612"
    },
    {
      "channel": 2,
      "note": 41,
      "start": 34.6865,
      "duration": 0.2706,
      "velocity": 127,
      "chip": "ym2612"
    },
    {
      "channel": 0,
      "note": 78,
      "start": 34.8283,
      "duration": 0.1456,
      "velocity": 91,
      "chip": "ym2612"
    },
    {
      "channel": 1,
      "note": 62,
      "start": 34.8292,
      "duration": 0.1455,
      "velocity": 95,
      "chip": "ym2612"
    },
    {
      "channel": 3,
      "note": 62,
      "start": 34.8299,
      "duration": 0.2954,
      "velocity": 91,
      "chip": "ym2612"
    },
    {
      "channel": 4,
      "note": 78,
      "start": 34.939,
      "duration": 0.1457,
      "velocity": 91,
      "chip": "ym2612"
    },
    {
      "channel": 0,
      "note": 76,
      "start": 34.9745,
      "duration": 0.1489,
      "velocity": 91,
      "chip": "ym2612"
    },
    {
      "channel": 1,
      "note": 74,
      "start": 34.9754,
      "duration": 0.1488,
      "velocity": 95,
      "chip": "ym2612"
    },
    {
      "channel": 4,
      "note": 76,
      "start": 35.0853,
      "duration": 0.1458,
      "velocity": 91,
      "chip": "ym2612"
    },
    {
      "channel": 0,
      "note": 74,
      "start": 35.1241,
      "duration": 1.3168,
      "velocity": 91,
      "chip": "ym2612"
    },
    {
      "channel": 1,
      "note": 62,
      "start": 35.1251,
      "duration": 0.1423,
      "velocity": 95,
      "chip": "ym2612"
    },
    {
      "channel": 3,
      "note": 50,
      "start": 35.1258,
      "duration": 0.2886,
      "velocity": 91,
      "chip": "ym2612"
    },
    {
      "channel": 2,
      "note": 37,
      "start": 35.1269,
      "duration": 0.123,
      "velocity": 120,
      "chip": "ym2612"
    },
    {
      "channel": 4,
      "note": 74,
      "start": 35.2318,
      "duration": 1.3171,
      "velocity": 91,
      "chip": "ym2612"
    },
    {
      "channel": 1,
      "note": 74,
      "start": 35.2682,
      "duration": 0.1453,
      "velocity": 95,
      "chip": "ym2612"
    },
    {
      "channel": 1,
      "note": 62,
      "start": 35.4142,
      "duration": 0.1457,
      "velocity": 95,
      "chip": "ym2612"
    },
    {
      "channel": 1,
      "note": 73,
      "start": 35.5607,
      "duration": 0.1484,
      "velocity": 95,
      "chip": "ym2612"
    },
    {
      "channel": 1,
      "note": 74,
      "start": 35.7099,
      "duration": 0.1428,
      "velocity": 95,
      "chip": "ym2612"
    },
    {
      "channel": 3,
      "note": 50,
      "start": 35.7106,
      "duration": 0.2894,
      "velocity": 91,
      "chip": "ym2612"
    },
    {
      "channel": 2,
      "note": 37,
      "start": 35.7117,
      "duration": 0.1239,
      "velocity": 120,
      "chip": "ym2612"
    },
    {
      "channel": 1,
      "note": 62,
      "start": 35.8535,
      "duration": 0.1456,
      "velocity": 95,
      "chip": "ym2612"
    },
    {
      "channel": 1,
      "note": 74,
      "start": 35.9999,
      "duration": 0.1456,
      "velocity": 95,
      "chip": "ym2612"
    },
    {
      "channel": 1,
      "note": 62,
      "start": 36.1463,
      "duration": 0.1484,
      "velocity": 95,
      "chip": "ym2612"
    },
    {
      "channel": 1,
      "note": 73,
      "start": 36.2954,
      "duration": 0.1462,
      "velocity": 95,
      "chip": "ym2612"
    },
    {
      "channel": 3,
      "note": 50,
      "start": 36.2962,
      "duration": 0.29,
      "velocity": 91,
      "chip": "ym2612"
    },
    {
      "channel": 2,
      "note": 41,
      "start": 36.2974,
      "duration": 0.0674,
      "velocity": 127,
      "chip": "ym2612"
    },
    {
      "channel": 2,
      "note": 41,
      "start": 36.3697,
      "duration": 0.0684,
      "velocity": 127,
      "chip": "ym2612"
    },
    {
      "channel": 0,
      "note": 76,
      "start": 36.4415,
      "duration": 0.1431,
      "velocity": 91,
      "chip": "ym2612"
    },
    {
      "channel": 1,
      "note": 74,
      "start": 36.4425,
      "duration": 0.1429,
      "velocity": 95,
      "chip": "ym2612"
    },
    {
      "channel": 2,
      "note": 41,
      "start": 36.444,
      "duration": 0.27,
      "velocity": 127,
      "chip": "ym2612"
    },
    {
      "channel": 4,
      "note": 76,
      "start": 36.5495,
      "duration": 0.1457,
      "velocity": 91,
      "chip": "ym2612"
    },
    {
      "channel": 0,
      "note": 78,
      "start": 36.5851,
      "duration": 0.1485,
      "velocity": 91,
      "chip": "ym2612"
    },
    {
      "channel": 1,
      "note": 62,
      "start": 36.5861,
      "duration": 0.1483,
      "velocity": 95,
      "chip": "ym2612"
    },
    {
      "channel": 3,
      "note": 62,
      "start": 36.5868,
      "duration": 0.295,
      "velocity": 91,
      "chip": "ym2612"
    },
    {
      "channel": 4,
      "note": 78,
      "start": 36.6959,
      "duration": 0.1459,
      "velocity": 91,
      "chip": "ym2612"
    },
    {
      "channel": 0,
      "note": 80,
      "start": 36.7342,
      "duration": 0.1459,
      "velocity": 91,
      "chip": "ym2612"
    },
    {
      "channel": 1,
      "note": 74,
      "start": 36.7351,
      "duration": 0.1457,
      "velocity": 95,
      "chip": "ym2612"
    },
    {
      "channel": 2,
      "note": 41,
      "start": 36.7366,
      "duration": 0.1407,
      "velocity": 127,
      "chip": "ym2612"
    },
    {
      "channel": 4,
      "note": 80,
      "start": 36.8424,
      "duration": 0.1458,
      "velocity": 91,
      "chip": "ym2612"
    },
    {
      "channel": 0,
      "note": 81,
      "start": 36.8807,
      "duration": 0.1458,
      "velocity": 91,
      "chip": "ym2612"
    },
    {
      "channel": 1,
      "note": 73,
      "start": 36.8817,
      "duration": 0.1456,
      "velocity": 95,
      "chip": "ym2612"
    },
    {
      "channel": 3,
      "note": 50,
      "start": 36.8823,
      "duration": 0.2922,
      "velocity": 91,
      "chip": "ym2612"
    },
    {
      "channel": 2,
      "note": 37,
      "start": 36.8834,
      "duration": 0.1234,
      "velocity": 120,
      "chip": "ym2612"
    },
    {
      "channel": 4,
      "note": 81,
      "start": 36.9888,
      "duration": 0.1458,
      "velocity": 91,
      "chip": "ym2612"
    },
    {
      "channel": 0,
      "note": 83,
      "start": 37.0271,
      "duration": 0.1457,
      "velocity": 91,
      "chip": "ym2612"
    },
    {
      "channel": 1,
      "note": 74,
      "start": 37.028,
      "duration": 0.1456,
      "velocity": 95,
      "chip": "ym2612"
    },
    {
      "channel": 2,
      "note": 41,
      "start": 37.0295,
      "duration": 0.1405,
      "velocity": 127,
      "chip": "ym2612"
    },
    {
      "channel": 4,
      "note": 83,
      "start": 37.1352,
      "duration": 0.1457,
      "velocity": 91,
      "chip": "ym2612"
    },
    {
      "channel": 0,
      "note": 85,
      "start": 37.1735,
      "duration": 0.1459,
      "velocity": 91,
      "chip": "ym2612"
    },
    {
      "channel": 1,
      "note": 62,
      "start": 37.1744,
      "duration": 0.1457,
      "velocity": 95,
      "chip": "ym2612"
    },
    {
      "channel": 3,
      "note": 62,
      "start": 37.1751,
      "duration": 0.2928,
      "velocity": 91,
      "chip": "ym2612"
    },
    {
      "channel": 2,
      "note": 41,
      "start": 37.1763,
      "duration": 0.1403,
      "velocity": 127,
      "chip": "ym2612"
    },
    {
      "channel": 4,
      "note": 85,
      "start": 37.2816,
      "duration": 0.1462,
      "velocity": 91,
      "chip": "ym2612"
    },
    {
      "channel": 0,
      "note": 86,
      "start": 37.3199,
      "duration": 0.146,
      "velocity": 91,
      "chip": "ym2612"
    },
    {
      "channel": 1,
      "note": 74,
      "start": 37.3209,
      "duration": 0.1459,
      "velocity": 95,
      "chip": "ym2612"
    },
    {
      "channel": 2,
      "note": 41,
      "start": 37.3224,
      "duration": 0.1406,
      "velocity": 127,
      "chip": "ym2612"
    },
    {
      "channel": 4,
      "note": 86,
      "start": 37.4284,
      "duration": 0.1454,
      "velocity": 91,
      "chip": "ym2612"
    },
    {
      "channel": 0,
      "note": 90,
      "start": 37.4665,
      "duration": 0.875,
      "velocity": 91,
      "chip": "ym2612"
    },
    {
      "channel": 1,
      "note": 66,
      "start": 37.4676,
      "duration": 0.1421,
      "velocity": 95,
      "chip": "ym2612"
    },
    {
      "channel": 3,
      "note": 54,
      "start": 37.4685,
      "duration": 0.2885,
      "velocity": 91,
      "chip": "ym2612"
    },
    {
      "channel": 2,
      "note": 37,
      "start": 37.4696,
      "duration": 0.123,
      "velocity": 120,
      "chip": "ym2612"
    },
    {
      "channel": 4,
      "note": 90,
      "start": 37.5745,
      "duration": 0.8775,
      "velocity": 91,
      "chip": "ym2612"
    },
    {
      "channel": 1,
      "note": 66,
      "start": 37.6105,
      "duration": 0.1456,
      "velocity": 95,
      "chip": "ym2612"
    },
    {
      "channel": 1,
      "note": 78,
      "start": 37.7569,
      "duration": 0.1457,
      "velocity": 95,
      "chip": "ym2612"
    },
    {
      "channel": 1,
      "note": 66,
      "start": 37.9033,
      "duration": 0.1484,
      "velocity": 95,
      "chip": "ym2612"
    },
    {
      "channel": 1,
      "note": 80,
      "start": 38.0525,
      "duration": 0.1428,
      "velocity": 95,
      "chip": "ym2612"
    },
    {
      "channel": 3,
      "note": 54,
      "start": 38.0532,
      "duration": 0.2899,
      "velocity": 91,
      "chip": "ym2612"
    },
    {
      "channel": 2,
      "note": 41,
      "start": 38.0544,
      "duration": 0.2702,
      "velocity": 127,
      "chip": "ym2612"
    },
    {
      "channel": 1,
      "note": 66,
      "start": 38.1961,
      "duration": 0.1462,
      "velocity": 95,
      "chip": "ym2612"
    },
    {
      "channel": 0,
      "note": 89,
      "start": 38.3421,
      "duration": 0.8807,
      "velocity": 91,
      "chip": "ym2612"
    },
    {
      "channel": 1,
      "note": 81,
      "start": 38.343,
      "duration": 0.1452,
      "velocity": 95,
      "chip": "ym2612"
    },
    {
      "channel": 4,
      "note": 89,
      "start": 38.4526,
      "duration": 0.8781,
      "velocity": 91,
      "chip": "ym2612"
    },
    {
      "channel": 1,
      "note": 66,
      "start": 38.489,
      "duration": 0.1483,
      "velocity": 95,
      "chip": "ym2612"
    },
    {
      "channel": 1,
      "note": 80,
      "start": 38.6382,
      "duration": 0.1428,
      "velocity": 95,
      "chip": "ym2612"
    },
    {
      "channel": 3,
      "note": 54,
      "start": 38.6389,
      "duration": 0.2895,
      "velocity": 91,
      "chip": "ym2612"
    },
    {
      "channel": 2,
      "note": 37,
      "start": 38.64,
      "duration": 0.1239,
      "velocity": 120,
      "chip": "ym2612"
    },
    {
      "channel": 1,
      "note": 66,
      "start": 38.7818,
      "duration": 0.1457,
      "velocity": 95,
      "chip": "ym2612"
    },
    {
      "channel": 1,
      "note": 78,
      "start": 38.9283,
      "duration": 0.1456,
      "velocity": 95,
      "chip": "ym2612"
    },
    {
      "channel": 1,
      "note": 66,
      "start": 39.0747,
      "duration": 0.1488,
      "velocity": 95,
      "chip": "ym2612"
    },
    {
      "channel": 0,
      "note": 88,
      "start": 39.2234,
      "duration": 0.8751,
      "velocity": 91,
      "chip": "ym2612"
    },
    {
      "channel": 1,
      "note": 76,
      "start": 39.2243,
      "duration": 0.1424,
      "velocity": 95,
      "chip": "ym2612"
    },
    {
      "channel": 3,
      "note": 54,
      "start": 39.225,
      "duration": 0.289,
      "velocity": 91,
      "chip": "ym2612"
    },
    {
      "channel": 2,
      "note": 37,
      "start": 39.2261,
      "duration": 0.1233,
      "velocity": 120,
      "chip": "ym2612"
    },
    {
      "channel": 4,
      "note": 88,
      "start": 39.3314,
      "duration": 0.8776,
      "velocity": 91,
      "chip": "ym2612"
    },
    {
      "channel": 1,
      "note": 66,
      "start": 39.3675,
      "duration": 0.1456,
      "velocity": 95,
      "chip": "ym2612"
    },
    {
      "channel": 1,
      "note": 78,
      "start": 39.5139,
      "duration": 0.1456,
      "velocity": 95,
      "chip": "ym2612"
    },
    {
      "channel": 3,
      "note": 66,
      "start": 39.5147,
      "duration": 0.2952,
      "velocity": 91,
      "chip": "ym2612"
    },
    {
      "channel": 1,
      "note": 73,
      "start": 39.6603,
      "duration": 0.1487,
      "velocity": 95,
      "chip": "ym2612"
    },
    {
      "channel": 1,
      "note": 66,
      "start": 39.8098,
      "duration": 0.1426,
      "velocity": 95,
      "chip": "ym2612"
    },
    {
      "channel": 3,
      "note": 54,
      "start": 39.8105,
      "duration": 0.2896,
      "velocity": 91,
      "chip": "ym2612"
    },
    {
      "channel": 2,
      "note": 37,
      "start": 39.8116,
      "duration": 0.1235,
      "velocity": 120,
      "chip": "ym2612"
    },
    {
      "channel": 1,
      "note": 78,
      "start": 39.9532,
      "duration": 0.146,
      "velocity": 95,
      "chip": "ym2612"
    },
    {
      "channel": 0,
      "note": 87,
      "start": 40.099,
      "duration": 0.8806,
      "velocity": 91,
      "chip": "ym2612"
    },
    {
      "channel": 1,
      "note": 66,
      "start": 40.1,
      "duration": 0.1451,
      "velocity": 95,
      "chip": "ym2612"
    },
    {
      "channel": 4,
      "note": 87,
      "start": 40.2096,
      "duration": 0.8783,
      "velocity": 91,
      "chip": "ym2612"
    },
    {
      "channel": 1,
      "note": 80,
      "start": 40.2459,
      "duration": 0.1485,
      "velocity": 95,
      "chip": "ym2612"
    },
    {
      "channel": 1,
      "note": 66,
      "start": 40.3952,
      "duration": 0.1429,
      "velocity": 95,
      "chip": "ym2612"
    },
    {
      "channel": 3,
      "note": 54,
      "start": 40.3959,
      "duration": 0.2894,
      "velocity": 91,
      "chip": "ym2612"
    },
    {
      "channel": 2,
      "note": 41,
      "start": 40.3971,
      "duration": 0.2701,
      "velocity": 127,
      "chip": "ym2612"
    },
    {
      "channel": 1,
      "note": 81,
      "start": 40.5389,
      "duration": 0.1455,
      "velocity": 95,
      "chip": "ym2612"
    },
    {
      "channel": 1,
      "note": 66,
      "start": 40.6851,
      "duration": 0.1457,
      "velocity": 95,
      "chip": "ym2612"
    },
    {
      "channel": 1,
      "note": 83,
      "start": 40.8317,
      "duration": 0.1487,
      "velocity": 95,
      "chip": "ym2612"
    },
    {
      "channel": 0,
      "note": 86,
      "start": 40.9802,
      "duration": 0.5851,
      "velocity": 91,
      "chip": "ym2612"
    },
    {
      "channel": 1,
      "note": 66,
      "start": 40.9811,
      "duration": 0.1426,
      "velocity": 95,
      "chip": "ym2612"
    },
    {
      "channel": 3,
      "note": 54,
      "start": 40.9819,
      "duration": 0.2891,
      "velocity": 91,
      "chip": "ym2612"
    },
    {
      "channel": 2,
      "note": 37,
      "start": 40.983,
      "duration": 0.1235,
      "velocity": 120,
      "chip": "ym2612"
    },
    {
      "channel": 4,
      "note": 86,
      "start": 41.0885,
      "duration": 0.5849,
      "velocity": 91,
      "chip": "ym2612"
    },
    {
      "channel": 1,
      "note": 85,
      "start": 41.1245,
      "duration": 0.1456,
      "velocity": 95,
      "chip": "ym2612"
    },
    {
      "channel": 1,
      "note": 66,
      "start": 41.2708,
      "duration": 0.1456,
      "velocity": 95,
      "chip": "ym2612"
    },
    {
      "channel": 3,
      "note": 66,
      "start": 41.2717,
      "duration": 0.2953,
      "velocity": 91,
      "chip": "ym2612"
    },
    {
      "channel": 1,
      "note": 83,
      "start": 41.4173,
      "duration": 0.1488,
      "velocity": 95,
      "chip": "ym2612"
    },
    {
      "channel": 0,
      "note": 85,
      "start": 41.5659,
      "duration": 0.5854,
      "velocity": 91,
      "chip": "ym2612"
    },
    {
      "channel": 1,
      "note": 66,
      "start": 41.5668,
      "duration": 0.1425,
      "velocity": 95,
      "chip": "ym2612"
    },
    {
      "channel": 3,
      "note": 54,
      "start": 41.5675,
      "duration": 0.2893,
      "velocity": 91,
      "chip": "ym2612"
    },
    {
      "channel": 2,
      "note": 37,
      "start": 41.5686,
      "duration": 0.1235,
      "velocity": 120,
      "chip": "ym2612"
    },
    {
      "channel": 4,
      "note": 85,
      "start": 41.674,
      "duration": 0.5851,
      "velocity": 91,
      "chip": "ym2612"
    },
    {
      "channel": 1,
      "note": 81,
      "start": 41.7101,
      "duration": 0.1459,
      "velocity": 95,
      "chip": "ym2612"
    },
    {
      "channel": 1,
      "note": 66,
      "start": 41.8567,
      "duration": 0.1454,
      "velocity": 95,
      "chip": "ym2612"
    },
    {
      "channel": 3,
      "note": 66,
      "start": 41.8575,
      "duration": 0.2961,
      "velocity": 91,
      "chip": "ym2612"
    },
    {
      "channel": 1,
      "note": 80,
      "start": 42.0029,
      "duration": 0.1494,
      "velocity": 95,
      "chip": "ym2612"
    },
    {
      "channel": 0,
      "note": 84,
      "start": 42.1519,
      "duration": 0.8748,
      "velocity": 91,
      "chip": "ym2612"
    },
    {
      "channel": 1,
      "note": 66,
      "start": 42.1532,
      "duration": 0.1419,
      "velocity": 95,
      "chip": "ym2612"
    },
    {
      "channel": 3,
      "note": 54,
      "start": 42.1542,
      "duration": 0.2882,
      "velocity": 91,
      "chip": "ym2612"
    },
    {
      "channel": 2,
      "note": 37,
      "start": 42.1553,
      "duration": 0.1225,
      "velocity": 120,
      "chip": "ym2612"
    },
    {
      "channel": 4,
      "note": 84,
      "start": 42.2597,
      "duration": 0.8776,
      "velocity": 91,
      "chip": "ym2612"
    },
    {
      "channel": 1,
      "note": 66,
      "start": 42.2958,
      "duration": 0.1457,
      "velocity": 95,
      "chip": "ym2612"
    },
    {
      "channel": 1,
      "note": 78,
      "start": 42.4422,
      "duration": 0.1457,
      "velocity": 95,
      "chip": "ym2612"
    },
    {
      "channel": 1,
      "note": 66,
      "start": 42.5886,
      "duration": 0.1484,
      "velocity": 95,
      "chip": "ym2612"
    },
    {
      "channel": 1,
      "note": 80,
      "start": 42.7379,
      "duration": 0.1431,
      "velocity": 95,
      "chip": "ym2612"
    },
    {
      "channel": 3,
      "note": 54,
      "start": 42.7386,
      "duration": 0.2898,
      "velocity": 91,
      "chip": "ym2612"
    },
    {
      "channel": 2,
      "note": 41,
      "start": 42.7397,
      "duration": 0.2702,
      "velocity": 127,
      "chip": "ym2612"
    },
    {
      "channel": 1,
      "note": 66,
      "start": 42.8817,
      "duration": 0.1457,
      "velocity": 95,
      "chip": "ym2612"
    },
    {
      "channel": 0,
      "note": 83,
      "start": 43.0273,
      "duration": 0.8807,
      "velocity": 91,
      "chip": "ym2612"
    },
    {
      "channel": 1,
      "note": 81,
      "start": 43.0283,
      "duration": 0.1452,
      "velocity": 95,
      "chip": "ym2612"
    },
    {
      "channel": 4,
      "note": 83,
      "start": 43.1379,
      "duration": 0.8784,
      "velocity": 91,
      "chip": "ym2612"
    },
    {
      "channel": 1,
      "note": 66,
      "start": 43.1743,
      "duration": 0.1485,
      "velocity": 95,
      "chip": "ym2612"
    },
    {
      "channel": 1,
      "note": 80,
      "start": 43.3235,
      "duration": 0.1428,
      "velocity": 95,
      "chip": "ym2612"
    },
    {
      "channel": 3,
      "note": 54,
      "start": 43.3243,
      "duration": 0.2894,
      "velocity": 91,
      "chip": "ym2612"
    },
    {
      "channel": 2,
      "note": 37,
      "start": 43.3254,
      "duration": 0.1238,
      "velocity": 120,
      "chip": "ym2612"
    },
    {
      "channel": 1,
      "note": 66,
      "start": 43.4671,
      "duration": 0.1456,
      "velocity": 95,
      "chip": "ym2612"
    },
    {
      "channel": 1,
      "note": 78,
      "start": 43.6134,
      "duration": 0.1457,
      "velocity": 95,
      "chip": "ym2612"
    },
    {
      "channel": 1,
      "note": 66,
      "start": 43.76,
      "duration": 0.1488,
      "velocity": 95,
      "chip": "ym2612"
    },
    {
      "channel": 0,
      "note": 82,
      "start": 43.9086,
      "duration": 0.8751,
      "velocity": 91,
      "chip": "ym2612"
    },
    {
      "channel": 1,
      "note": 76,
      "start": 43.9096,
      "duration": 0.1424,
      "velocity": 95,
      "chip": "ym2612"
    },
    {
      "channel": 3,
      "note": 54,
      "start": 43.9103,
      "duration": 0.2891,
      "velocity": 91,
      "chip": "ym2612"
    },
    {
      "channel": 2,
      "note": 37,
      "start": 43.9114,
      "duration": 0.1235,
      "velocity": 120,
      "chip": "ym2612"
    },
    {
      "channel": 4,
      "note": 82,
      "start": 44.017,
      "duration": 0.8773,
      "velocity": 91,
      "chip": "ym2612"
    },
    {
      "channel": 1,
      "note": 66,
      "start": 44.0527,
      "duration": 0.1457,
      "velocity": 95,
      "chip": "ym2612"
    },
    {
      "channel": 1,
      "note": 78,
      "start": 44.1991,
      "duration": 0.1457,
      "velocity": 95,
      "chip": "ym2612"
    },
    {
      "channel": 3,
      "note": 66,
      "start": 44.1999,
      "duration": 0.2952,
      "velocity": 91,
      "chip": "ym2612"
    },
    {
      "channel": 1,
      "note": 73,
      "start": 44.3456,
      "duration": 0.1486,
      "velocity": 95,
      "chip": "ym2612"
    },
    {
      "channel": 1,
      "note": 66,
      "start": 44.495,
      "duration": 0.1426,
      "velocity": 95,
      "chip": "ym2612"
    },
    {
      "channel": 3,
      "note": 54,
      "start": 44.4957,
      "duration": 0.2896,
      "velocity": 91,
      "chip": "ym2612"
    },
    {
      "channel": 2,
      "note": 37,
      "start": 44.4968,
      "duration": 0.1236,
      "velocity": 120,
      "chip": "ym2612"
    },
    {
      "channel": 1,
      "note": 78,
      "start": 44.6385,
      "duration": 0.146,
      "velocity": 95,
      "chip": "ym2612"
    },
    {
      "channel": 0,
      "note": 81,
      "start": 44.7843,
      "duration": 0.8807,
      "velocity": 91,
      "chip": "ym2612"
    },
    {
      "channel": 1,
      "note": 66,
      "start": 44.7852,
      "duration": 0.1452,
      "velocity": 95,
      "chip": "ym2612"
    },
    {
      "channel": 4,
      "note": 81,
      "start": 44.8949,
      "duration": 0.878,
      "velocity": 91,
      "chip": "ym2612"
    },
    {
      "channel": 1,
      "note": 80,
      "start": 44.9312,
      "duration": 0.1484,
      "velocity": 95,
      "chip": "ym2612"
    },
    {
      "channel": 1,
      "note": 66,
      "start": 45.0804,
      "duration": 0.1429,
      "velocity": 95,
      "chip": "ym2612"
    },
    {
      "channel": 3,
      "note": 54,
      "start": 45.0811,
      "duration": 0.2895,
      "velocity": 91,
      "chip": "ym2612"
    },
    {
      "channel": 2,
      "note": 37,
      "start": 45.0822,
      "duration": 0.1239,
      "velocity": 120,
      "chip": "ym2612"
    },
    {
      "channel": 1,
      "note": 81,
      "start": 45.2241,
      "duration": 0.1456,
      "velocity": 95,
      "chip": "ym2612"
    },
    {
      "channel": 1,
      "note": 66,
      "start": 45.3705,
      "duration": 0.1457,
      "velocity": 95,
      "chip": "ym2612"
    },
    {
      "channel": 1,
      "note": 83,
      "start": 45.517,
      "duration": 0.1487,
      "velocity": 95,
      "chip": "ym2612"
    },
    {
      "channel": 0,
      "note": 80,
      "start": 45.6655,
      "duration": 0.5851,
      "velocity": 91,
      "chip": "ym2612"
    },
    {
      "channel": 1,
      "note": 66,
      "start": 45.6664,
      "duration": 0.1453,
      "velocity": 95,
      "chip": "ym2612"
    },
    {
      "channel": 3,
      "note": 54,
      "start": 45.6671,
      "duration": 0.2893,
      "velocity": 91,
      "chip": "ym2612"
    },
    {
      "channel": 2,
      "note": 41,
      "start": 45.6683,
      "duration": 0.0671,
      "velocity": 127,
      "chip": "ym2612"
    },
    {
      "channel": 2,
      "note": 41,
      "start": 45.7403,
      "duration": 0.0683,
      "velocity": 127,
      "chip": "ym2612"
    },
    {
      "channel": 4,
      "note": 80,
      "start": 45.7736,
      "duration": 0.5851,
      "velocity": 91,
      "chip": "ym2612"
    },
    {
      "channel": 1,
      "note": 85,
      "start": 45.8125,
      "duration": 0.143,
      "velocity": 95,
      "chip": "ym2612"
    },
    {
      "channel": 2,
      "note": 41,
      "start": 45.814,
      "duration": 0.2706,
      "velocity": 127,
      "chip": "ym2612"
    },
    {
      "channel": 1,
      "note": 66,
      "start": 45.9563,
      "duration": 0.1483,
      "velocity": 95,
      "chip": "ym2612"
    },
    {
      "channel": 3,
      "note": 66,
      "start": 45.957,
      "duration": 0.2952,
      "velocity": 91,
      "chip": "ym2612"
    },
    {
      "channel": 1,
      "note": 83,
      "start": 46.1054,
      "duration": 0.1459,
      "velocity": 95,
      "chip": "ym2612"
    },
    {
      "channel": 2,
      "note": 41,
      "start": 46.1068,
      "duration": 0.1409,
      "velocity": 127,
      "chip": "ym2612"
    },
    {
      "channel": 0,
      "note": 79,
      "start": 46.2511,
      "duration": 0.588,
      "velocity": 91,
      "chip": "ym2612"
    },
    {
      "channel": 1,
      "note": 66,
      "start": 46.2521,
      "duration": 0.1453,
      "velocity": 95,
      "chip": "ym2612"
    },
    {
      "channel": 3,
      "note": 54,
      "start": 46.2528,
      "duration": 0.2919,
      "velocity": 91,
      "chip": "ym2612"
    },
    {
      "channel": 2,
      "note": 37,
      "start": 46.2539,
      "duration": 0.1235,
      "velocity": 120,
      "chip": "ym2612"
    },
    {
      "channel": 4,
      "note": 79,
      "start": 46.3593,
      "duration": 0.5874,
      "velocity": 91,
      "chip": "ym2612"
    },
    {
      "channel": 1,
      "note": 81,
      "start": 46.3981,
      "duration": 0.1456,
      "velocity": 95,
      "chip": "ym2612"
    },
    {
      "channel": 2,
      "note": 41,
      "start": 46.3997,
      "duration": 0.1409,
      "velocity": 127,
      "chip": "ym2612"
    },
    {
      "channel": 1,
      "note": 66,
      "start": 46.5445,
      "duration": 0.1457,
      "velocity": 95,
      "chip": "ym2612"
    },
    {
      "channel": 3,
      "note": 66,
      "start": 46.5452,
      "duration": 0.301,
      "velocity": 91,
      "chip": "ym2612"
    },
    {
      "channel": 2,
      "note": 41,
      "start": 46.5464,
      "duration": 0.1406,
      "velocity": 127,
      "chip": "ym2612"
    },
    {
      "channel": 1,
      "note": 80,
      "start": 46.6909,
      "duration": 0.1515,
      "velocity": 95,
      "chip": "ym2612"
    },
    {
      "channel": 2,
      "note": 41,
      "start": 46.6925,
      "duration": 0.1413,
      "velocity": 127,
      "chip": "ym2612"
    },
    {
      "channel": 1,
      "note": 66,
      "start": 46.8432,
      "duration": 0.1368,
      "velocity": 95,
      "chip": "ym2612"
    },
    {
      "channel": 3,
      "note": 54,
      "start": 46.8468,
      "duration": 0.2806,
      "velocity": 91,
      "chip": "ym2612"
    },
    {
      "channel": 2,
      "note": 37,
      "start": 46.8479,
      "duration": 0.1147,
      "velocity": 120,
      "chip": "ym2612"
    },
    {
      "channel": 1,
      "note": 66,
      "start": 46.9807,
      "duration": 0.1457,
      "velocity": 95,
      "chip": "ym2612"
    },
    {
      "channel": 1,
      "note": 78,
      "start": 47.1273,
      "duration": 0.1456,
      "velocity": 95,
      "chip": "ym2612"
    },
    {
      "channel": 1,
      "note": 66,
      "start": 47.2736,
      "duration": 0.147,
      "velocity": 95,
      "chip": "ym2612"
    }
  ]
}