{
  "track_name": "07 - Battle Theme 4",
  "duration_sec": 33.28,
  "sample_rate": 44100,
  "note_count": 910,
  "unique_pitches": 37,
  "pitch_range": 46,
  "avg_note_duration": 0.184,
  "reconstruction_stats": {
    "notes_reconstructed": 910,
    "keyon_events": 910,
    "keyoff_events": 906,
    "orphan_keyons": 4,
    "unique_pitches": 37,
    "pitch_range": 46,
    "avg_duration_sec": 0.184
  },
  "metadata": {
    "source": "D\\Dragon Ball Z - Bu Yuu Retsuden\\07 - Battle Theme 4.vgm"
  },
  "notes": [
    {
      "channel": 0,
      "note": 52,
      "start": 0.0049,
      "duration": 0.1642,
      "velocity": 99,
      "chip": "ym2612"
    },
    {
      "channel": 1,
      "note": 37,
      "start": 0.0082,
      "duration": 0.1801,
      "velocity": 127,
      "chip": "ym2612"
    },
    {
      "channel": 2,
      "note": 58,
      "start": 0.0105,
      "duration": 0.0263,
      "velocity": 92,
      "chip": "ym2612"
    },
    {
      "channel": 3,
      "note": 71,
      "start": 0.0126,
      "duration": 0.2403,
      "velocity": 102,
      "chip": "ym2612"
    },
    {
      "channel": 4,
      "note": 64,
      "start": 0.0148,
      "duration": 0.1218,
      "velocity": 102,
      "chip": "ym2612"
    },
    {
      "channel": 2,
      "note": 59,
      "start": 0.0368,
      "duration": 0.6158,
      "velocity": 92,
      "chip": "ym2612"
    },
    {
      "channel": 0,
      "note": 52,
      "start": 0.1863,
      "duration": 0.1665,
      "velocity": 99,
      "chip": "ym2612"
    },
    {
      "channel": 1,
      "note": 64,
      "start": 0.1884,
      "duration": 0.1666,
      "velocity": 120,
      "chip": "ym2612"
    },
    {
      "channel": 4,
      "note": 64,
      "start": 0.1896,
      "duration": 0.1303,
      "velocity": 102,
      "chip": "ym2612"
    },
    {
      "channel": 5,
      "note": 58,
      "start": 0.2727,
      "duration": 0.0315,
      "velocity": 92,
      "chip": "ym2612"
    },
    {
      "channel": 5,
      "note": 59,
      "start": 0.3042,
      "duration": 0.6157,
      "velocity": 92,
      "chip": "ym2612"
    },
    {
      "channel": 0,
      "note": 52,
      "start": 0.3528,
      "duration": 0.1666,
      "velocity": 99,
      "chip": "ym2612"
    },
    {
      "channel": 1,
      "note": 76,
      "start": 0.355,
      "duration": 0.1665,
      "velocity": 127,
      "chip": "ym2612"
    },
    {
      "channel": 3,
      "note": 71,
      "start": 0.3561,
      "duration": 0.3635,
      "velocity": 102,
      "chip": "ym2612"
    },
    {
      "channel": 4,
      "note": 64,
      "start": 0.3569,
      "duration": 0.1296,
      "velocity": 102,
      "chip": "ym2612"
    },
    {
      "channel": 0,
      "note": 52,
      "start": 0.5195,
      "duration": 0.1661,
      "velocity": 99,
      "chip": "ym2612"
    },
    {
      "channel": 1,
      "note": 64,
      "start": 0.5215,
      "duration": 0.1835,
      "velocity": 127,
      "chip": "ym2612"
    },
    {
      "channel": 4,
      "note": 64,
      "start": 0.5228,
      "duration": 0.1304,
      "velocity": 102,
      "chip": "ym2612"
    },
    {
      "channel": 0,
      "note": 52,
      "start": 0.7029,
      "duration": 0.1666,
      "velocity": 99,
      "chip": "ym2612"
    },
    {
      "channel": 1,
      "note": 37,
      "start": 0.7051,
      "duration": 0.1666,
      "velocity": 127,
      "chip": "ym2612"
    },
    {
      "channel": 2,
      "note": 64,
      "start": 0.7059,
      "duration": 0.1666,
      "velocity": 92,
      "chip": "ym2612"
    },
    {
      "channel": 4,
      "note": 64,
      "start": 0.7069,
      "duration": 0.1296,
      "velocity": 102,
      "chip": "ym2612"
    },
    {
      "channel": 0,
      "note": 52,
      "start": 0.8695,
      "duration": 0.1666,
      "velocity": 99,
      "chip": "ym2612"
    },
    {
      "channel": 1,
      "note": 37,
      "start": 0.8717,
      "duration": 0.1666,
      "velocity": 120,
      "chip": "ym2612"
    },
    {
      "channel": 2,
      "note": 66,
      "start": 0.8725,
      "duration": 0.1666,
      "velocity": 92,
      "chip": "ym2612"
    },
    {
      "channel": 3,
      "note": 71,
      "start": 0.8734,
      "duration": 0.2463,
      "velocity": 102,
      "chip": "ym2612"
    },
    {
      "channel": 4,
      "note": 64,
      "start": 0.8742,
      "duration": 0.1288,
      "velocity": 102,
      "chip": "ym2612"
    },
    {
      "channel": 5,
      "note": 64,
      "start": 0.954,
      "duration": 0.1668,
      "velocity": 92,
      "chip": "ym2612"
    },
    {
      "channel": 0,
      "note": 52,
      "start": 1.0362,
      "duration": 0.1659,
      "velocity": 99,
      "chip": "ym2612"
    },
    {
      "channel": 1,
      "note": 76,
      "start": 1.0383,
      "duration": 0.1832,
      "velocity": 127,
      "chip": "ym2612"
    },
    {
      "channel": 2,
      "note": 67,
      "start": 1.0391,
      "duration": 0.1636,
      "velocity": 92,
      "chip": "ym2612"
    },
    {
      "channel": 4,
      "note": 64,
      "start": 1.0402,
      "duration": 0.1296,
      "velocity": 102,
      "chip": "ym2612"
    },
    {
      "channel": 5,
      "note": 66,
      "start": 1.1207,
      "duration": 0.1657,
      "velocity": 92,
      "chip": "ym2612"
    },
    {
      "channel": 0,
      "note": 52,
      "start": 1.2195,
      "duration": 0.1664,
      "velocity": 99,
      "chip": "ym2612"
    },
    {
      "channel": 1,
      "note": 37,
      "start": 1.2216,
      "duration": 0.1664,
      "velocity": 127,
      "chip": "ym2612"
    },
    {
      "channel": 2,
      "note": 64,
      "start": 1.2224,
      "duration": 0.3332,
      "velocity": 92,
      "chip": "ym2612"
    },
    {
      "channel": 3,
      "note": 71,
      "start": 1.2233,
      "duration": 0.1294,
      "velocity": 102,
      "chip": "ym2612"
    },
    {
      "channel": 4,
      "note": 64,
      "start": 1.2241,
      "duration": 0.1289,
      "velocity": 102,
      "chip": "ym2612"
    },
    {
      "channel": 5,
      "note": 67,
      "start": 1.3037,
      "duration": 0.1667,
      "velocity": 92,
      "chip": "ym2612"
    },
    {
      "channel": 0,
      "note": 48,
      "start": 1.3859,
      "duration": 0.1666,
      "velocity": 99,
      "chip": "ym2612"
    },
    {
      "channel": 1,
      "note": 37,
      "start": 1.388,
      "duration": 0.1667,
      "velocity": 127,
      "chip": "ym2612"
    },
    {
      "channel": 3,
      "note": 67,
      "start": 1.389,
      "duration": 0.3637,
      "velocity": 102,
      "chip": "ym2612"
    },
    {
      "channel": 4,
      "note": 60,
      "start": 1.3899,
      "duration": 0.1296,
      "velocity": 102,
      "chip": "ym2612"
    },
    {
      "channel": 5,
      "note": 64,
      "start": 1.4705,
      "duration": 0.3327,
      "velocity": 92,
      "chip": "ym2612"
    },
    {
      "channel": 0,
      "note": 48,
      "start": 1.5527,
      "duration": 0.1665,
      "velocity": 99,
      "chip": "ym2612"
    },
    {
      "channel": 1,
      "note": 64,
      "start": 1.5548,
      "duration": 0.1665,
      "velocity": 120,
      "chip": "ym2612"
    },
    {
      "channel": 2,
      "note": 70,
      "start": 1.5556,
      "duration": 0.0308,
      "velocity": 92,
      "chip": "ym2612"
    },
    {
      "channel": 4,
      "note": 60,
      "start": 1.5566,
      "duration": 0.1295,
      "velocity": 102,
      "chip": "ym2612"
    },
    {
      "channel": 2,
      "note": 71,
      "start": 1.5864,
      "duration": 0.2993,
      "velocity": 92,
      "chip": "ym2612"
    },
    {
      "channel": 0,
      "note": 48,
      "start": 1.7192,
      "duration": 0.1659,
      "velocity": 99,
      "chip": "ym2612"
    },
    {
      "channel": 1,
      "note": 76,
      "start": 1.7214,
      "duration": 0.1832,
      "velocity": 127,
      "chip": "ym2612"
    },
    {
      "channel": 4,
      "note": 60,
      "start": 1.7226,
      "duration": 0.1303,
      "velocity": 102,
      "chip": "ym2612"
    },
    {
      "channel": 5,
      "note": 70,
      "start": 1.8207,
      "duration": 0.0165,
      "velocity": 92,
      "chip": "ym2612"
    },
    {
      "channel": 5,
      "note": 71,
      "start": 1.8372,
      "duration": 0.2989,
      "velocity": 92,
      "chip": "ym2612"
    },
    {
      "channel": 0,
      "note": 50,
      "start": 1.9025,
      "duration": 0.1665,
      "velocity": 99,
      "chip": "ym2612"
    },
    {
      "channel": 1,
      "note": 37,
      "start": 1.9046,
      "duration": 0.1665,
      "velocity": 127,
      "chip": "ym2612"
    },
    {
      "channel": 2,
      "note": 69,
      "start": 1.9054,
      "duration": 0.3332,
      "velocity": 92,
      "chip": "ym2612"
    },
    {
      "channel": 3,
      "note": 69,
      "start": 1.9063,
      "duration": 0.3627,
      "velocity": 102,
      "chip": "ym2612"
    },
    {
      "channel": 4,
      "note": 62,
      "start": 1.9071,
      "duration": 0.1289,
      "velocity": 102,
      "chip": "ym2612"
    },
    {
      "channel": 0,
      "note": 50,
      "start": 2.0691,
      "duration": 0.1666,
      "velocity": 99,
      "chip": "ym2612"
    },
    {
      "channel": 1,
      "note": 64,
      "start": 2.0711,
      "duration": 0.1667,
      "velocity": 127,
      "chip": "ym2612"
    },
    {
      "channel": 4,
      "note": 62,
      "start": 2.0723,
      "duration": 0.1302,
      "velocity": 102,
      "chip": "ym2612"
    },
    {
      "channel": 5,
      "note": 69,
      "start": 2.1535,
      "duration": 0.3327,
      "velocity": 92,
      "chip": "ym2612"
    },
    {
      "channel": 0,
      "note": 50,
      "start": 2.2358,
      "duration": 0.166,
      "velocity": 99,
      "chip": "ym2612"
    },
    {
      "channel": 1,
      "note": 37,
      "start": 2.2378,
      "duration": 0.1833,
      "velocity": 120,
      "chip": "ym2612"
    },
    {
      "channel": 2,
      "note": 71,
      "start": 2.2386,
      "duration": 0.3303,
      "velocity": 92,
      "chip": "ym2612"
    },
    {
      "channel": 4,
      "note": 62,
      "start": 2.2397,
      "duration": 0.1296,
      "velocity": 102,
      "chip": "ym2612"
    },
    {
      "channel": 0,
      "note": 50,
      "start": 2.419,
      "duration": 0.1667,
      "velocity": 99,
      "chip": "ym2612"
    },
    {
      "channel": 1,
      "note": 76,
      "start": 2.4211,
      "duration": 0.1666,
      "velocity": 127,
      "chip": "ym2612"
    },
    {
      "channel": 3,
      "note": 69,
      "start": 2.4222,
      "duration": 0.2468,
      "velocity": 102,
      "chip": "ym2612"
    },
    {
      "channel": 4,
      "note": 62,
      "start": 2.423,
      "duration": 0.1296,
      "velocity": 102,
      "chip": "ym2612"
    },
    {
      "channel": 5,
      "note": 71,
      "start": 2.5036,
      "duration": 0.3332,
      "velocity": 92,
      "chip": "ym2612"
    },
    {
      "channel": 0,
      "note": 50,
      "start": 2.5857,
      "duration": 0.1667,
      "velocity": 99,
      "chip": "ym2612"
    },
    {
      "channel": 1,
      "note": 64,
      "start": 2.5878,
      "duration": 0.1667,
      "velocity": 127,
      "chip": "ym2612"
    },
    {
      "channel": 2,
      "note": 74,
      "start": 2.5886,
      "duration": 0.1667,
      "velocity": 92,
      "chip": "ym2612"
    },
    {
      "channel": 4,
      "note": 62,
      "start": 2.5897,
      "duration": 0.1296,
      "velocity": 102,
      "chip": "ym2612"
    },
    {
      "channel": 0,
      "note": 52,
      "start": 2.7524,
      "duration": 0.1663,
      "velocity": 99,
      "chip": "ym2612"
    },
    {
      "channel": 1,
      "note": 37,
      "start": 2.7545,
      "duration": 0.1663,
      "velocity": 127,
      "chip": "ym2612"
    },
    {
      "channel": 2,
      "note": 75,
      "start": 2.7554,
      "duration": 0.0308,
      "velocity": 92,
      "chip": "ym2612"
    },
    {
      "channel": 4,
      "note": 64,
      "start": 2.7568,
      "duration": 0.1289,
      "velocity": 102,
      "chip": "ym2612"
    },
    {
      "channel": 2,
      "note": 76,
      "start": 2.7863,
      "duration": 1.2658,
      "velocity": 92,
      "chip": "ym2612"
    },
    {
      "channel": 5,
      "note": 74,
      "start": 2.8368,
      "duration": 0.1659,
      "velocity": 92,
      "chip": "ym2612"
    },
    {
      "channel": 0,
      "note": 52,
      "start": 2.9188,
      "duration": 0.166,
      "velocity": 99,
      "chip": "ym2612"
    },
    {
      "channel": 1,
      "note": 64,
      "start": 2.9208,
      "duration": 0.1832,
      "velocity": 120,
      "chip": "ym2612"
    },
    {
      "channel": 4,
      "note": 64,
      "start": 2.9221,
      "duration": 0.1303,
      "velocity": 102,
      "chip": "ym2612"
    },
    {
      "channel": 5,
      "note": 75,
      "start": 3.0202,
      "duration": 0.0166,
      "velocity": 92,
      "chip": "ym2612"
    },
    {
      "channel": 5,
      "note": 76,
      "start": 3.0369,
      "duration": 1.2697,
      "velocity": 92,
      "chip": "ym2612"
    },
    {
      "channel": 0,
      "note": 52,
      "start": 3.102,
      "duration": 0.1666,
      "velocity": 99,
      "chip": "ym2612"
    },
    {
      "channel": 1,
      "note": 76,
      "start": 3.1041,
      "duration": 0.1665,
      "velocity": 127,
      "chip": "ym2612"
    },
    {
      "channel": 3,
      "note": 71,
      "start": 3.1052,
      "duration": 0.3635,
      "velocity": 102,
      "chip": "ym2612"
    },
    {
      "channel": 4,
      "note": 64,
      "start": 3.1061,
      "duration": 0.1297,
      "velocity": 102,
      "chip": "ym2612"
    },
    {
      "channel": 0,
      "note": 52,
      "start": 3.2687,
      "duration": 0.1666,
      "velocity": 99,
      "chip": "ym2612"
    },
    {
      "channel": 1,
      "note": 64,
      "start": 3.2707,
      "duration": 0.1666,
      "velocity": 127,
      "chip": "ym2612"
    },
    {
      "channel": 4,
      "note": 64,
      "start": 3.272,
      "duration": 0.1304,
      "velocity": 102,
      "chip": "ym2612"
    },
    {
      "channel": 0,
      "note": 52,
      "start": 3.4353,
      "duration": 0.1662,
      "velocity": 99,
      "chip": "ym2612"
    },
    {
      "channel": 1,
      "note": 37,
      "start": 3.4374,
      "duration": 0.1833,
      "velocity": 127,
      "chip": "ym2612"
    },
    {
      "channel": 4,
      "note": 64,
      "start": 3.4386,
      "duration": 0.1306,
      "velocity": 102,
      "chip": "ym2612"
    },
    {
      "channel": 0,
      "note": 52,
      "start": 3.6187,
      "duration": 0.1666,
      "velocity": 99,
      "chip": "ym2612"
    },
    {
      "channel": 1,
      "note": 37,
      "start": 3.6207,
      "duration": 0.1667,
      "velocity": 120,
      "chip": "ym2612"
    },
    {
      "channel": 3,
      "note": 71,
      "start": 3.622,
      "duration": 0.2471,
      "velocity": 102,
      "chip": "ym2612"
    },
    {
      "channel": 4,
      "note": 64,
      "start": 3.6228,
      "duration": 0.1297,
      "velocity": 102,
      "chip": "ym2612"
    },
    {
      "channel": 0,
      "note": 52,
      "start": 3.7854,
      "duration": 0.1666,
      "velocity": 99,
      "chip": "ym2612"
    },
    {
      "channel": 1,
      "note": 76,
      "start": 3.7876,
      "duration": 0.1665,
      "velocity": 127,
      "chip": "ym2612"
    },
    {
      "channel": 4,
      "note": 64,
      "start": 3.7889,
      "duration": 0.1305,
      "velocity": 102,
      "chip": "ym2612"
    },
    {
      "channel": 0,
      "note": 52,
      "start": 3.952,
      "duration": 0.1668,
      "velocity": 99,
      "chip": "ym2612"
    },
    {
      "channel": 1,
      "note": 37,
      "start": 3.9541,
      "duration": 0.1667,
      "velocity": 127,
      "chip": "ym2612"
    },
    {
      "channel": 3,
      "note": 71,
      "start": 3.9554,
      "duration": 0.1303,
      "velocity": 102,
      "chip": "ym2612"
    },
    {
      "channel": 4,
      "note": 64,
      "start": 3.9562,
      "duration": 0.1298,
      "velocity": 102,
      "chip": "ym2612"
    },
    {
      "channel": 0,
      "note": 55,
      "start": 4.1188,
      "duration": 0.166,
      "velocity": 99,
      "chip": "ym2612"
    },
    {
      "channel": 1,
      "note": 37,
      "start": 4.121,
      "duration": 0.1832,
      "velocity": 127,
      "chip": "ym2612"
    },
    {
      "channel": 2,
      "note": 75,
      "start": 4.1218,
      "duration": 0.0307,
      "velocity": 92,
      "chip": "ym2612"
    },
    {
      "channel": 3,
      "note": 74,
      "start": 4.1227,
      "duration": 0.3627,
      "velocity": 102,
      "chip": "ym2612"
    },
    {
      "channel": 4,
      "note": 67,
      "start": 4.1236,
      "duration": 0.1288,
      "velocity": 102,
      "chip": "ym2612"
    },
    {
      "channel": 2,
      "note": 76,
      "start": 4.1526,
      "duration": 0.0992,
      "velocity": 92,
      "chip": "ym2612"
    },
    {
      "channel": 0,
      "note": 55,
      "start": 4.3021,
      "duration": 0.1665,
      "velocity": 99,
      "chip": "ym2612"
    },
    {
      "channel": 1,
      "note": 64,
      "start": 4.3042,
      "duration": 0.1666,
      "velocity": 120,
      "chip": "ym2612"
    },
    {
      "channel": 2,
      "note": 75,
      "start": 4.305,
      "duration": 0.0308,
      "velocity": 92,
      "chip": "ym2612"
    },
    {
      "channel": 4,
      "note": 67,
      "start": 4.3061,
      "duration": 0.1295,
      "velocity": 102,
      "chip": "ym2612"
    },
    {
      "channel": 2,
      "note": 76,
      "start": 4.3359,
      "duration": 0.0991,
      "velocity": 92,
      "chip": "ym2612"
    },
    {
      "channel": 5,
      "note": 75,
      "start": 4.3866,
      "duration": 0.0332,
      "velocity": 92,
      "chip": "ym2612"
    },
    {
      "channel": 5,
      "note": 76,
      "start": 4.4198,
      "duration": 0.0994,
      "velocity": 92,
      "chip": "ym2612"
    },
    {
      "channel": 0,
      "note": 55,
      "start": 4.4687,
      "duration": 0.1664,
      "velocity": 99,
      "chip": "ym2612"
    },
    {
      "channel": 1,
      "note": 76,
      "start": 4.4709,
      "duration": 0.1663,
      "velocity": 127,
      "chip": "ym2612"
    },
    {
      "channel": 2,
      "note": 75,
      "start": 4.4717,
      "duration": 0.0308,
      "velocity": 92,
      "chip": "ym2612"
    },
    {
      "channel": 4,
      "note": 67,
      "start": 4.4728,
      "duration": 0.1296,
      "velocity": 102,
      "chip": "ym2612"
    },
    {
      "channel": 2,
      "note": 76,
      "start": 4.5026,
      "duration": 0.0991,
      "velocity": 92,
      "chip": "ym2612"
    },
    {
      "channel": 5,
      "note": 75,
      "start": 4.5534,
      "duration": 0.0332,
      "velocity": 92,
      "chip": "ym2612"
    },
    {
      "channel": 5,
      "note": 76,
      "start": 4.5866,
      "duration": 0.0989,
      "velocity": 92,
      "chip": "ym2612"
    },
    {
      "channel": 0,
      "note": 57,
      "start": 4.6352,
      "duration": 0.1659,
      "velocity": 99,
      "chip": "ym2612"
    },
    {
      "channel": 1,
      "note": 37,
      "start": 4.6373,
      "duration": 0.1832,
      "velocity": 127,
      "chip": "ym2612"
    },
    {
      "channel": 2,
      "note": 75,
      "start": 4.6381,
      "duration": 0.0308,
      "velocity": 92,
      "chip": "ym2612"
    },
    {
      "channel": 3,
      "note": 76,
      "start": 4.639,
      "duration": 0.3626,
      "velocity": 102,
      "chip": "ym2612"
    },
    {
      "channel": 4,
      "note": 69,
      "start": 4.6398,
      "duration": 0.1288,
      "velocity": 102,
      "chip": "ym2612"
    },
    {
      "channel": 2,
      "note": 76,
      "start": 4.669,
      "duration": 0.0991,
      "velocity": 92,
      "chip": "ym2612"
    },
    {
      "channel": 5,
      "note": 75,
      "start": 4.7363,
      "duration": 0.0166,
      "velocity": 92,
      "chip": "ym2612"
    },
    {
      "channel": 5,
      "note": 76,
      "start": 4.7529,
      "duration": 0.0992,
      "velocity": 92,
      "chip": "ym2612"
    },
    {
      "channel": 0,
      "note": 57,
      "start": 4.8184,
      "duration": 0.1665,
      "velocity": 99,
      "chip": "ym2612"
    },
    {
      "channel": 1,
      "note": 64,
      "start": 4.8205,
      "duration": 0.1666,
      "velocity": 127,
      "chip": "ym2612"
    },
    {
      "channel": 2,
      "note": 76,
      "start": 4.8213,
      "duration": 0.1665,
      "velocity": 92,
      "chip": "ym2612"
    },
    {
      "channel": 4,
      "note": 69,
      "start": 4.8224,
      "duration": 0.1294,
      "velocity": 102,
      "chip": "ym2612"
    },
    {
      "channel": 5,
      "note": 75,
      "start": 4.9028,
      "duration": 0.0332,
      "velocity": 92,
      "chip": "ym2612"
    },
    {
      "channel": 5,
      "note": 76,
      "start": 4.9361,
      "duration": 0.0993,
      "velocity": 92,
      "chip": "ym2612"
    },
    {
      "channel": 0,
      "note": 57,
      "start": 4.9849,
      "duration": 0.1666,
      "velocity": 99,
      "chip": "ym2612"
    },
    {
      "channel": 1,
      "note": 37,
      "start": 4.9871,
      "duration": 0.1666,
      "velocity": 120,
      "chip": "ym2612"
    },
    {
      "channel": 2,
      "note": 74,
      "start": 4.9879,
      "duration": 0.1666,
      "velocity": 92,
      "chip": "ym2612"
    },
    {
      "channel": 4,
      "note": 69,
      "start": 4.9889,
      "duration": 0.1296,
      "velocity": 102,
      "chip": "ym2612"
    },
    {
      "channel": 5,
      "note": 76,
      "start": 5.0695,
      "duration": 0.1665,
      "velocity": 92,
      "chip": "ym2612"
    },
    {
      "channel": 0,
      "note": 55,
      "start": 5.1516,
      "duration": 0.1659,
      "velocity": 99,
      "chip": "ym2612"
    },
    {
      "channel": 1,
      "note": 76,
      "start": 5.1538,
      "duration": 0.1831,
      "velocity": 127,
      "chip": "ym2612"
    },
    {
      "channel": 2,
      "note": 71,
      "start": 5.1546,
      "duration": 0.1635,
      "velocity": 92,
      "chip": "ym2612"
    },
    {
      "channel": 3,
      "note": 74,
      "start": 5.1555,
      "duration": 0.246,
      "velocity": 102,
      "chip": "ym2612"
    },
    {
      "channel": 4,
      "note": 67,
      "start": 5.1563,
      "duration": 0.1288,
      "velocity": 102,
      "chip": "ym2612"
    },
    {
      "channel": 5,
      "note": 74,
      "start": 5.236,
      "duration": 0.166,
      "velocity": 92,
      "chip": "ym2612"
    },
    {
      "channel": 0,
      "note": 55,
      "start": 5.3349,
      "duration": 0.1665,
      "velocity": 99,
      "chip": "ym2612"
    },
    {
      "channel": 1,
      "note": 64,
      "start": 5.337,
      "duration": 0.1665,
      "velocity": 127,
      "chip": "ym2612"
    },
    {
      "channel": 2,
      "note": 68,
      "start": 5.3378,
      "duration": 0.0141,
      "velocity": 92,
      "chip": "ym2612"
    },
    {
      "channel": 4,
      "note": 67,
      "start": 5.3389,
      "duration": 0.1295,
      "velocity": 102,
      "chip": "ym2612"
    },
    {
      "channel": 2,
      "note": 69,
      "start": 5.352,
      "duration": 0.2991,
      "velocity": 92,
      "chip": "ym2612"
    },
    {
      "channel": 5,
      "note": 71,
      "start": 5.4193,
      "duration": 0.1665,
      "velocity": 92,
      "chip": "ym2612"
    },
    {
      "channel": 0,
      "note": 52,
      "start": 5.5014,
      "duration": 0.1666,
      "velocity": 99,
      "chip": "ym2612"
    },
    {
      "channel": 1,
      "note": 37,
      "start": 5.5035,
      "duration": 0.1665,
      "velocity": 127,
      "chip": "ym2612"
    },
    {
      "channel": 3,
      "note": 71,
      "start": 5.5046,
      "duration": 0.2467,
      "velocity": 102,
      "chip": "ym2612"
    },
    {
      "channel": 4,
      "note": 64,
      "start": 5.5056,
      "duration": 0.1293,
      "velocity": 102,
      "chip": "ym2612"
    },
    {
      "channel": 5,
      "note": 68,
      "start": 5.5859,
      "duration": 0.0332,
      "velocity": 92,
      "chip": "ym2612"
    },
    {
      "channel": 5,
      "note": 69,
      "start": 5.6192,
      "duration": 0.2993,
      "velocity": 92,
      "chip": "ym2612"
    },
    {
      "channel": 0,
      "note": 52,
      "start": 5.668,
      "duration": 0.1666,
      "velocity": 99,
      "chip": "ym2612"
    },
    {
      "channel": 1,
      "note": 64,
      "start": 5.6701,
      "duration": 0.1667,
      "velocity": 120,
      "chip": "ym2612"
    },
    {
      "channel": 2,
      "note": 71,
      "start": 5.671,
      "duration": 0.1667,
      "velocity": 92,
      "chip": "ym2612"
    },
    {
      "channel": 4,
      "note": 64,
      "start": 5.672,
      "duration": 0.1296,
      "velocity": 102,
      "chip": "ym2612"
    },
    {
      "channel": 0,
      "note": 52,
      "start": 5.8346,
      "duration": 0.166,
      "velocity": 99,
      "chip": "ym2612"
    },
    {
      "channel": 1,
      "note": 76,
      "start": 5.8368,
      "duration": 0.1831,
      "velocity": 127,
      "chip": "ym2612"
    },
    {
      "channel": 2,
      "note": 69,
      "start": 5.8376,
      "duration": 0.1636,
      "velocity": 92,
      "chip": "ym2612"
    },
    {
      "channel": 3,
      "note": 71,
      "start": 5.8385,
      "duration": 0.3627,
      "velocity": 102,
      "chip": "ym2612"
    },
    {
      "channel": 4,
      "note": 64,
      "start": 5.8393,
      "duration": 0.1289,
      "velocity": 102,
      "chip": "ym2612"
    },
    {
      "channel": 5,
      "note": 71,
      "start": 5.9359,
      "duration": 0.1663,
      "velocity": 92,
      "chip": "ym2612"
    },
    {
      "channel": 0,
      "note": 52,
      "start": 6.018,
      "duration": 0.1665,
      "velocity": 99,
      "chip": "ym2612"
    },
    {
      "channel": 1,
      "note": 64,
      "start": 6.02,
      "duration": 0.1666,
      "velocity": 127,
      "chip": "ym2612"
    },
    {
      "channel": 2,
      "note": 67,
      "start": 6.0208,
      "duration": 0.1666,
      "velocity": 92,
      "chip": "ym2612"
    },
    {
      "channel": 4,
      "note": 64,
      "start": 6.0218,
      "duration": 0.1295,
      "velocity": 102,
      "chip": "ym2612"
    },
    {
      "channel": 5,
      "note": 69,
      "start": 6.1022,
      "duration": 0.1667,
      "velocity": 92,
      "chip": "ym2612"
    },
    {
      "channel": 0,
      "note": 52,
      "start": 6.1846,
      "duration": 0.1664,
      "velocity": 99,
      "chip": "ym2612"
    },
    {
      "channel": 1,
      "note": 37,
      "start": 6.1866,
      "duration": 0.1665,
      "velocity": 127,
      "chip": "ym2612"
    },
    {
      "channel": 2,
      "note": 66,
      "start": 6.1875,
      "duration": 0.3302,
      "velocity": 92,
      "chip": "ym2612"
    },
    {
      "channel": 4,
      "note": 64,
      "start": 6.1885,
      "duration": 0.1296,
      "velocity": 102,
      "chip": "ym2612"
    },
    {
      "channel": 5,
      "note": 67,
      "start": 6.269,
      "duration": 0.1665,
      "velocity": 92,
      "chip": "ym2612"
    },
    {
      "channel": 0,
      "note": 52,
      "start": 6.351,
      "duration": 0.166,
      "velocity": 99,
      "chip": "ym2612"
    },
    {
      "channel": 1,
      "note": 37,
      "start": 6.3531,
      "duration": 0.1834,
      "velocity": 120,
      "chip": "ym2612"
    },
    {
      "channel": 3,
      "note": 71,
      "start": 6.3542,
      "duration": 0.2469,
      "velocity": 102,
      "chip": "ym2612"
    },
    {
      "channel": 4,
      "note": 64,
      "start": 6.355,
      "duration": 0.1295,
      "velocity": 102,
      "chip": "ym2612"
    },
    {
      "channel": 5,
      "note": 66,
      "start": 6.4355,
      "duration": 0.3326,
      "velocity": 92,
      "chip": "ym2612"
    },
    {
      "channel": 0,
      "note": 52,
      "start": 6.5344,
      "duration": 0.1666,
      "velocity": 99,
      "chip": "ym2612"
    },
    {
      "channel": 1,
      "note": 76,
      "start": 6.5366,
      "duration": 0.1665,
      "velocity": 127,
      "chip": "ym2612"
    },
    {
      "channel": 2,
      "note": 67,
      "start": 6.5375,
      "duration": 0.1665,
      "velocity": 92,
      "chip": "ym2612"
    },
    {
      "channel": 4,
      "note": 64,
      "start": 6.5385,
      "duration": 0.1296,
      "velocity": 102,
      "chip": "ym2612"
    },
    {
      "channel": 0,
      "note": 52,
      "start": 6.7011,
      "duration": 0.1664,
      "velocity": 99,
      "chip": "ym2612"
    },
    {
      "channel": 1,
      "note": 37,
      "start": 6.7032,
      "duration": 0.1664,
      "velocity": 127,
      "chip": "ym2612"
    },
    {
      "channel": 2,
      "note": 66,
      "start": 6.704,
      "duration": 0.3331,
      "velocity": 92,
      "chip": "ym2612"
    },
    {
      "channel": 3,
      "note": 71,
      "start": 6.7049,
      "duration": 0.1294,
      "velocity": 102,
      "chip": "ym2612"
    },
    {
      "channel": 4,
      "note": 64,
      "start": 6.7057,
      "duration": 0.1289,
      "velocity": 102,
      "chip": "ym2612"
    },
    {
      "channel": 5,
      "note": 67,
      "start": 6.7854,
      "duration": 0.1666,
      "velocity": 92,
      "chip": "ym2612"
    },
    {
      "channel": 0,
      "note": 48,
      "start": 6.8676,
      "duration": 0.1666,
      "velocity": 99,
      "chip": "ym2612"
    },
    {
      "channel": 1,
      "note": 37,
      "start": 6.8697,
      "duration": 0.1667,
      "velocity": 127,
      "chip": "ym2612"
    },
    {
      "channel": 3,
      "note": 67,
      "start": 6.8707,
      "duration": 0.3636,
      "velocity": 102,
      "chip": "ym2612"
    },
    {
      "channel": 4,
      "note": 60,
      "start": 6.8716,
      "duration": 0.1295,
      "velocity": 102,
      "chip": "ym2612"
    },
    {
      "channel": 5,
      "note": 66,
      "start": 6.952,
      "duration": 0.3328,
      "velocity": 92,
      "chip": "ym2612"
    },
    {
      "channel": 0,
      "note": 48,
      "start": 7.0343,
      "duration": 0.166,
      "velocity": 99,
      "chip": "ym2612"
    },
    {
      "channel": 1,
      "note": 64,
      "start": 7.0364,
      "duration": 0.1833,
      "velocity": 120,
      "chip": "ym2612"
    },
    {
      "channel": 2,
      "note": 64,
      "start": 7.0372,
      "duration": 0.1636,
      "velocity": 92,
      "chip": "ym2612"
    },
    {
      "channel": 4,
      "note": 60,
      "start": 7.0382,
      "duration": 0.1295,
      "velocity": 102,
      "chip": "ym2612"
    },
    {
      "channel": 0,
      "note": 48,
      "start": 7.2176,
      "duration": 0.1666,
      "velocity": 99,
      "chip": "ym2612"
    },
    {
      "channel": 1,
      "note": 76,
      "start": 7.2198,
      "duration": 0.1664,
      "velocity": 127,
      "chip": "ym2612"
    },
    {
      "channel": 2,
      "note": 66,
      "start": 7.2206,
      "duration": 0.1665,
      "velocity": 92,
      "chip": "ym2612"
    },
    {
      "channel": 4,
      "note": 60,
      "start": 7.2216,
      "duration": 0.1296,
      "velocity": 102,
      "chip": "ym2612"
    },
    {
      "channel": 5,
      "note": 64,
      "start": 7.3022,
      "duration": 0.1662,
      "velocity": 92,
      "chip": "ym2612"
    },
    {
      "channel": 0,
      "note": 50,
      "start": 7.3842,
      "duration": 0.1665,
      "velocity": 99,
      "chip": "ym2612"
    },
    {
      "channel": 1,
      "note": 37,
      "start": 7.3863,
      "duration": 0.1666,
      "velocity": 127,
      "chip": "ym2612"
    },
    {
      "channel": 2,
      "note": 67,
      "start": 7.3871,
      "duration": 0.1666,
      "velocity": 92,
      "chip": "ym2612"
    },
    {
      "channel": 3,
      "note": 69,
      "start": 7.388,
      "duration": 0.3627,
      "velocity": 102,
      "chip": "ym2612"
    },
    {
      "channel": 4,
      "note": 62,
      "start": 7.3888,
      "duration": 0.1288,
      "velocity": 102,
      "chip": "ym2612"
    },
    {
      "channel": 5,
      "note": 66,
      "start": 7.4685,
      "duration": 0.1666,
      "velocity": 92,
      "chip": "ym2612"
    },
    {
      "channel": 0,
      "note": 50,
      "start": 7.5508,
      "duration": 0.166,
      "velocity": 99,
      "chip": "ym2612"
    },
    {
      "channel": 1,
      "note": 64,
      "start": 7.5529,
      "duration": 0.1832,
      "velocity": 127,
      "chip": "ym2612"
    },
    {
      "channel": 2,
      "note": 68,
      "start": 7.5537,
      "duration": 0.0308,
      "velocity": 92,
      "chip": "ym2612"
    },
    {
      "channel": 4,
      "note": 62,
      "start": 7.5548,
      "duration": 0.1295,
      "velocity": 102,
      "chip": "ym2612"
    },
    {
      "channel": 2,
      "note": 69,
      "start": 7.5846,
      "duration": 0.2991,
      "velocity": 92,
      "chip": "ym2612"
    },
    {
      "channel": 5,
      "note": 67,
      "start": 7.6352,
      "duration": 0.1661,
      "velocity": 92,
      "chip": "ym2612"
    },
    {
      "channel": 0,
      "note": 50,
      "start": 7.734,
      "duration": 0.1666,
      "velocity": 99,
      "chip": "ym2612"
    },
    {
      "channel": 1,
      "note": 37,
      "start": 7.7361,
      "duration": 0.1667,
      "velocity": 120,
      "chip": "ym2612"
    },
    {
      "channel": 4,
      "note": 62,
      "start": 7.7373,
      "duration": 0.1303,
      "velocity": 102,
      "chip": "ym2612"
    },
    {
      "channel": 5,
      "note": 68,
      "start": 7.8186,
      "duration": 0.0166,
      "velocity": 92,
      "chip": "ym2612"
    },
    {
      "channel": 5,
      "note": 69,
      "start": 7.8353,
      "duration": 0.299,
      "velocity": 92,
      "chip": "ym2612"
    },
    {
      "channel": 0,
      "note": 50,
      "start": 7.9007,
      "duration": 0.1666,
      "velocity": 99,
      "chip": "ym2612"
    },
    {
      "channel": 1,
      "note": 76,
      "start": 7.9028,
      "duration": 0.1665,
      "velocity": 127,
      "chip": "ym2612"
    },
    {
      "channel": 2,
      "note": 67,
      "start": 7.9037,
      "duration": 0.1665,
      "velocity": 92,
      "chip": "ym2612"
    },
    {
      "channel": 3,
      "note": 69,
      "start": 7.9045,
      "duration": 0.2462,
      "velocity": 102,
      "chip": "ym2612"
    },
    {
      "channel": 4,
      "note": 62,
      "start": 7.9054,
      "duration": 0.1289,
      "velocity": 102,
      "chip": "ym2612"
    },
    {
      "channel": 0,
      "note": 50,
      "start": 8.0673,
      "duration": 0.1664,
      "velocity": 99,
      "chip": "ym2612"
    },
    {
      "channel": 1,
      "note": 64,
      "start": 8.0694,
      "duration": 0.1665,
      "velocity": 127,
      "chip": "ym2612"
    },
    {
      "channel": 2,
      "note": 62,
      "start": 8.0702,
      "duration": 0.3302,
      "velocity": 92,
      "chip": "ym2612"
    },
    {
      "channel": 4,
      "note": 62,
      "start": 8.0713,
      "duration": 0.1296,
      "velocity": 102,
      "chip": "ym2612"
    },
    {
      "channel": 5,
      "note": 67,
      "start": 8.1518,
      "duration": 0.1658,
      "velocity": 92,
      "chip": "ym2612"
    },
    {
      "channel": 0,
      "note": 52,
      "start": 8.2338,
      "duration": 0.166,
      "velocity": 99,
      "chip": "ym2612"
    },
    {
      "channel": 1,
      "note": 37,
      "start": 8.2358,
      "duration": 0.1833,
      "velocity": 127,
      "chip": "ym2612"
    },
    {
      "channel": 4,
      "note": 64,
      "start": 8.2375,
      "duration": 0.1298,
      "velocity": 102,
      "chip": "ym2612"
    },
    {
      "channel": 5,
      "note": 62,
      "start": 8.3349,
      "duration": 0.3333,
      "velocity": 92,
      "chip": "ym2612"
    },
    {
      "channel": 0,
      "note": 52,
      "start": 8.4172,
      "duration": 0.1665,
      "velocity": 99,
      "chip": "ym2612"
    },
    {
      "channel": 1,
      "note": 64,
      "start": 8.4192,
      "duration": 0.1666,
      "velocity": 120,
      "chip": "ym2612"
    },
    {
      "channel": 2,
      "note": 63,
      "start": 8.42,
      "duration": 0.3335,
      "velocity": 92,
      "chip": "ym2612"
    },
    {
      "channel": 4,
      "note": 64,
      "start": 8.421,
      "duration": 0.1297,
      "velocity": 102,
      "chip": "ym2612"
    },
    {
      "channel": 0,
      "note": 52,
      "start": 8.5837,
      "duration": 0.1667,
      "velocity": 99,
      "chip": "ym2612"
    },
    {
      "channel": 1,
      "note": 76,
      "start": 8.5859,
      "duration": 0.1667,
      "velocity": 127,
      "chip": "ym2612"
    },
    {
      "channel": 3,
      "note": 71,
      "start": 8.587,
      "duration": 0.3634,
      "velocity": 102,
      "chip": "ym2612"
    },
    {
      "channel": 4,
      "note": 64,
      "start": 8.5878,
      "duration": 0.1295,
      "velocity": 102,
      "chip": "ym2612"
    },
    {
      "channel": 5,
      "note": 63,
      "start": 8.6683,
      "duration": 0.3325,
      "velocity": 92,
      "chip": "ym2612"
    },
    {
      "channel": 0,
      "note": 52,
      "start": 8.7505,
      "duration": 0.1659,
      "velocity": 99,
      "chip": "ym2612"
    },
    {
      "channel": 1,
      "note": 64,
      "start": 8.7526,
      "duration": 0.183,
      "velocity": 127,
      "chip": "ym2612"
    },
    {
      "channel": 2,
      "note": 64,
      "start": 8.7536,
      "duration": 2.2345,
      "velocity": 1,
      "chip": "ym2612"
    },
    {
      "channel": 4,
      "note": 64,
      "start": 8.7546,
      "duration": 0.1293,
      "velocity": 102,
      "chip": "ym2612"
    },
    {
      "channel": 0,
      "note": 52,
      "start": 8.9336,
      "duration": 0.1666,
      "velocity": 99,
      "chip": "ym2612"
    },
    {
      "channel": 1,
      "note": 37,
      "start": 8.9357,
      "duration": 0.1666,
      "velocity": 127,
      "chip": "ym2612"
    },
    {
      "channel": 4,
      "note": 64,
      "start": 8.9369,
      "duration": 0.1304,
      "velocity": 102,
      "chip": "ym2612"
    },
    {
      "channel": 5,
      "note": 64,
      "start": 9.0186,
      "duration": 2.2344,
      "velocity": 1,
      "chip": "ym2612"
    },
    {
      "channel": 0,
      "note": 52,
      "start": 9.1003,
      "duration": 0.1666,
      "velocity": 99,
      "chip": "ym2612"
    },
    {
      "channel": 1,
      "note": 37,
      "start": 9.1024,
      "duration": 0.1666,
      "velocity": 120,
      "chip": "ym2612"
    },
    {
      "channel": 3,
      "note": 71,
      "start": 9.1035,
      "duration": 0.247,
      "velocity": 102,
      "chip": "ym2612"
    },
    {
      "channel": 4,
      "note": 64,
      "start": 9.1043,
      "duration": 0.1296,
      "velocity": 102,
      "chip": "ym2612"
    },
    {
      "channel": 0,
      "note": 52,
      "start": 9.2669,
      "duration": 0.1662,
      "velocity": 99,
      "chip": "ym2612"
    },
    {
      "channel": 1,
      "note": 76,
      "start": 9.269,
      "duration": 0.1832,
      "velocity": 127,
      "chip": "ym2612"
    },
    {
      "channel": 4,
      "note": 64,
      "start": 9.2703,
      "duration": 0.1305,
      "velocity": 102,
      "chip": "ym2612"
    },
    {
      "channel": 0,
      "note": 52,
      "start": 9.4503,
      "duration": 0.1667,
      "velocity": 99,
      "chip": "ym2612"
    },
    {
      "channel": 1,
      "note": 37,
      "start": 9.4523,
      "duration": 0.1667,
      "velocity": 127,
      "chip": "ym2612"
    },
    {
      "channel": 3,
      "note": 71,
      "start": 9.4534,
      "duration": 0.1303,
      "velocity": 102,
      "chip": "ym2612"
    },
    {
      "channel": 4,
      "note": 64,
      "start": 9.4542,
      "duration": 0.1298,
      "velocity": 102,
      "chip": "ym2612"
    },
    {
      "channel": 0,
      "note": 55,
      "start": 9.617,
      "duration": 0.1666,
      "velocity": 99,
      "chip": "ym2612"
    },
    {
      "channel": 1,
      "note": 37,
      "start": 9.6191,
      "duration": 0.1665,
      "velocity": 127,
      "chip": "ym2612"
    },
    {
      "channel": 3,
      "note": 74,
      "start": 9.6208,
      "duration": 0.3632,
      "velocity": 102,
      "chip": "ym2612"
    },
    {
      "channel": 4,
      "note": 67,
      "start": 9.6216,
      "duration": 0.129,
      "velocity": 102,
      "chip": "ym2612"
    },
    {
      "channel": 0,
      "note": 55,
      "start": 9.7836,
      "duration": 0.1666,
      "velocity": 99,
      "chip": "ym2612"
    },
    {
      "channel": 1,
      "note": 64,
      "start": 9.7856,
      "duration": 0.1667,
      "velocity": 120,
      "chip": "ym2612"
    },
    {
      "channel": 4,
      "note": 67,
      "start": 9.7869,
      "duration": 0.1304,
      "velocity": 102,
      "chip": "ym2612"
    },
    {
      "channel": 0,
      "note": 55,
      "start": 9.9503,
      "duration": 0.1662,
      "velocity": 99,
      "chip": "ym2612"
    },
    {
      "channel": 1,
      "note": 76,
      "start": 9.9524,
      "duration": 0.1833,
      "velocity": 127,
      "chip": "ym2612"
    },
    {
      "channel": 4,
      "note": 67,
      "start": 9.9537,
      "duration": 0.1307,
      "velocity": 102,
      "chip": "ym2612"
    },
    {
      "channel": 0,
      "note": 57,
      "start": 10.1336,
      "duration": 0.1667,
      "velocity": 99,
      "chip": "ym2612"
    },
    {
      "channel": 1,
      "note": 37,
      "start": 10.1356,
      "duration": 0.1667,
      "velocity": 127,
      "chip": "ym2612"
    },
    {
      "channel": 3,
      "note": 76,
      "start": 10.1367,
      "duration": 0.3639,
      "velocity": 102,
      "chip": "ym2612"
    },
    {
      "channel": 4,
      "note": 69,
      "start": 10.1376,
      "duration": 0.1298,
      "velocity": 102,
      "chip": "ym2612"
    },
    {
      "channel": 0,
      "note": 57,
      "start": 10.3003,
      "duration": 0.1667,
      "velocity": 99,
      "chip": "ym2612"
    },
    {
      "channel": 1,
      "note": 37,
      "start": 10.3024,
      "duration": 0.0826,
      "velocity": 127,
      "chip": "ym2612"
    },
    {
      "channel": 4,
      "note": 69,
      "start": 10.3038,
      "duration": 0.1303,
      "velocity": 102,
      "chip": "ym2612"
    },
    {
      "channel": 1,
      "note": 37,
      "start": 10.3851,
      "duration": 0.084,
      "velocity": 120,
      "chip": "ym2612"
    },
    {
      "channel": 0,
      "note": 57,
      "start": 10.4669,
      "duration": 0.1662,
      "velocity": 99,
      "chip": "ym2612"
    },
    {
      "channel": 1,
      "note": 76,
      "start": 10.4692,
      "duration": 0.1831,
      "velocity": 127,
      "chip": "ym2612"
    },
    {
      "channel": 4,
      "note": 69,
      "start": 10.4705,
      "duration": 0.1305,
      "velocity": 102,
      "chip": "ym2612"
    },
    {
      "channel": 0,
      "note": 55,
      "start": 10.6503,
      "duration": 0.1667,
      "velocity": 99,
      "chip": "ym2612"
    },
    {
      "channel": 1,
      "note": 37,
      "start": 10.6524,
      "duration": 0.0826,
      "velocity": 127,
      "chip": "ym2612"
    },
    {
      "channel": 3,
      "note": 74,
      "start": 10.6536,
      "duration": 0.2471,
      "velocity": 102,
      "chip": "ym2612"
    },
    {
      "channel": 4,
      "note": 67,
      "start": 10.6544,
      "duration": 0.1296,
      "velocity": 102,
      "chip": "ym2612"
    },
    {
      "channel": 1,
      "note": 37,
      "start": 10.7351,
      "duration": 0.084,
      "velocity": 120,
      "chip": "ym2612"
    },
    {
      "channel": 0,
      "note": 55,
      "start": 10.8169,
      "duration": 0.1669,
      "velocity": 99,
      "chip": "ym2612"
    },
    {
      "channel": 1,
      "note": 76,
      "start": 10.8191,
      "duration": 0.1669,
      "velocity": 127,
      "chip": "ym2612"
    },
    {
      "channel": 4,
      "note": 67,
      "start": 10.8205,
      "duration": 0.1305,
      "velocity": 102,
      "chip": "ym2612"
    },
    {
      "channel": 0,
      "note": 52,
      "start": 10.9839,
      "duration": 0.1662,
      "velocity": 99,
      "chip": "ym2612"
    },
    {
      "channel": 1,
      "note": 37,
      "start": 10.9861,
      "duration": 0.1661,
      "velocity": 127,
      "chip": "ym2612"
    },
    {
      "channel": 3,
      "note": 71,
      "start": 10.989,
      "duration": 0.2447,
      "velocity": 102,
      "chip": "ym2612"
    },
    {
      "channel": 4,
      "note": 64,
      "start": 10.99,
      "duration": 0.1272,
      "velocity": 102,
      "chip": "ym2612"
    },
    {
      "channel": 0,
      "note": 52,
      "start": 11.1502,
      "duration": 0.166,
      "velocity": 99,
      "chip": "ym2612"
    },
    {
      "channel": 1,
      "note": 64,
      "start": 11.1522,
      "duration": 0.1835,
      "velocity": 120,
      "chip": "ym2612"
    },
    {
      "channel": 4,
      "note": 64,
      "start": 11.1535,
      "duration": 0.1305,
      "velocity": 102,
      "chip": "ym2612"
    },
    {
      "channel": 0,
      "note": 52,
      "start": 11.3336,
      "duration": 0.1665,
      "velocity": 99,
      "chip": "ym2612"
    },
    {
      "channel": 1,
      "note": 76,
      "start": 11.3358,
      "duration": 0.1663,
      "velocity": 127,
      "chip": "ym2612"
    },
    {
      "channel": 2,
      "note": 79,
      "start": 11.3367,
      "duration": 0.3328,
      "velocity": 86,
      "chip": "ym2612"
    },
    {
      "channel": 3,
      "note": 71,
      "start": 11.3376,
      "duration": 0.3631,
      "velocity": 102,
      "chip": "ym2612"
    },
    {
      "channel": 4,
      "note": 64,
      "start": 11.3384,
      "duration": 0.1291,
      "velocity": 102,
      "chip": "ym2612"
    },
    {
      "channel": 0,
      "note": 52,
      "start": 11.5002,
      "duration": 0.1666,
      "velocity": 99,
      "chip": "ym2612"
    },
    {
      "channel": 1,
      "note": 64,
      "start": 11.5022,
      "duration": 0.1666,
      "velocity": 127,
      "chip": "ym2612"
    },
    {
      "channel": 4,
      "note": 64,
      "start": 11.5037,
      "duration": 0.1304,
      "velocity": 102,
      "chip": "ym2612"
    },
    {
      "channel": 5,
      "note": 79,
      "start": 11.5851,
      "duration": 0.3328,
      "velocity": 82,
      "chip": "ym2612"
    },
    {
      "channel": 0,
      "note": 52,
      "start": 11.6668,
      "duration": 0.1661,
      "velocity": 99,
      "chip": "ym2612"
    },
    {
      "channel": 1,
      "note": 37,
      "start": 11.6688,
      "duration": 0.1835,
      "velocity": 127,
      "chip": "ym2612"
    },
    {
      "channel": 4,
      "note": 64,
      "start": 11.6705,
      "duration": 0.1305,
      "velocity": 102,
      "chip": "ym2612"
    },
    {
      "channel": 0,
      "note": 52,
      "start": 11.8503,
      "duration": 0.1665,
      "velocity": 99,
      "chip": "ym2612"
    },
    {
      "channel": 1,
      "note": 37,
      "start": 11.8524,
      "duration": 0.1665,
      "velocity": 120,
      "chip": "ym2612"
    },
    {
      "channel": 2,
      "note": 79,
      "start": 11.8533,
      "duration": 0.2138,
      "velocity": 86,
      "chip": "ym2612"
    },
    {
      "channel": 3,
      "note": 71,
      "start": 11.8541,
      "duration": 0.2468,
      "velocity": 102,
      "chip": "ym2612"
    },
    {
      "channel": 4,
      "note": 64,
      "start": 11.855,
      "duration": 0.1291,
      "velocity": 102,
      "chip": "ym2612"
    },
    {
      "channel": 0,
      "note": 52,
      "start": 12.0168,
      "duration": 0.1667,
      "velocity": 99,
      "chip": "ym2612"
    },
    {
      "channel": 1,
      "note": 76,
      "start": 12.019,
      "duration": 0.1666,
      "velocity": 127,
      "chip": "ym2612"
    },
    {
      "channel": 4,
      "note": 64,
      "start": 12.0205,
      "duration": 0.1306,
      "velocity": 102,
      "chip": "ym2612"
    },
    {
      "channel": 5,
      "note": 79,
      "start": 12.1021,
      "duration": 0.2161,
      "velocity": 82,
      "chip": "ym2612"
    },
    {
      "channel": 0,
      "note": 52,
      "start": 12.1835,
      "duration": 0.1666,
      "velocity": 99,
      "chip": "ym2612"
    },
    {
      "channel": 1,
      "note": 37,
      "start": 12.1856,
      "duration": 0.1666,
      "velocity": 127,
      "chip": "ym2612"
    },
    {
      "channel": 2,
      "note": 79,
      "start": 12.1865,
      "duration": 0.1137,
      "velocity": 86,
      "chip": "ym2612"
    },
    {
      "channel": 3,
      "note": 71,
      "start": 12.1874,
      "duration": 0.1298,
      "velocity": 102,
      "chip": "ym2612"
    },
    {
      "channel": 4,
      "note": 64,
      "start": 12.1883,
      "duration": 0.1293,
      "velocity": 102,
      "chip": "ym2612"
    },
    {
      "channel": 0,
      "note": 48,
      "start": 12.3502,
      "duration": 0.166,
      "velocity": 99,
      "chip": "ym2612"
    },
    {
      "channel": 1,
      "note": 37,
      "start": 12.3523,
      "duration": 0.1831,
      "velocity": 127,
      "chip": "ym2612"
    },
    {
      "channel": 2,
      "note": 76,
      "start": 12.3532,
      "duration": 0.2137,
      "velocity": 86,
      "chip": "ym2612"
    },
    {
      "channel": 3,
      "note": 67,
      "start": 12.3541,
      "duration": 0.3631,
      "velocity": 102,
      "chip": "ym2612"
    },
    {
      "channel": 4,
      "note": 60,
      "start": 12.3549,
      "duration": 0.1291,
      "velocity": 102,
      "chip": "ym2612"
    },
    {
      "channel": 5,
      "note": 79,
      "start": 12.4517,
      "duration": 0.1162,
      "velocity": 82,
      "chip": "ym2612"
    },
    {
      "channel": 0,
      "note": 48,
      "start": 12.5334,
      "duration": 0.1666,
      "velocity": 99,
      "chip": "ym2612"
    },
    {
      "channel": 1,
      "note": 64,
      "start": 12.5354,
      "duration": 0.1667,
      "velocity": 120,
      "chip": "ym2612"
    },
    {
      "channel": 4,
      "note": 60,
      "start": 12.537,
      "duration": 0.1303,
      "velocity": 102,
      "chip": "ym2612"
    },
    {
      "channel": 5,
      "note": 76,
      "start": 12.6183,
      "duration": 0.2165,
      "velocity": 82,
      "chip": "ym2612"
    },
    {
      "channel": 0,
      "note": 48,
      "start": 12.7,
      "duration": 0.1666,
      "velocity": 99,
      "chip": "ym2612"
    },
    {
      "channel": 1,
      "note": 76,
      "start": 12.7022,
      "duration": 0.1665,
      "velocity": 127,
      "chip": "ym2612"
    },
    {
      "channel": 2,
      "note": 76,
      "start": 12.7031,
      "duration": 0.1139,
      "velocity": 86,
      "chip": "ym2612"
    },
    {
      "channel": 4,
      "note": 60,
      "start": 12.7041,
      "duration": 0.1301,
      "velocity": 102,
      "chip": "ym2612"
    },
    {
      "channel": 0,
      "note": 50,
      "start": 12.8667,
      "duration": 0.166,
      "velocity": 99,
      "chip": "ym2612"
    },
    {
      "channel": 1,
      "note": 37,
      "start": 12.8688,
      "duration": 0.1831,
      "velocity": 127,
      "chip": "ym2612"
    },
    {
      "channel": 2,
      "note": 74,
      "start": 12.8696,
      "duration": 0.2137,
      "velocity": 86,
      "chip": "ym2612"
    },
    {
      "channel": 3,
      "note": 69,
      "start": 12.8705,
      "duration": 0.3631,
      "velocity": 102,
      "chip": "ym2612"
    },
    {
      "channel": 4,
      "note": 62,
      "start": 12.8714,
      "duration": 0.1291,
      "velocity": 102,
      "chip": "ym2612"
    },
    {
      "channel": 5,
      "note": 76,
      "start": 12.9682,
      "duration": 0.1162,
      "velocity": 82,
      "chip": "ym2612"
    },
    {
      "channel": 0,
      "note": 50,
      "start": 13.0499,
      "duration": 0.1666,
      "velocity": 99,
      "chip": "ym2612"
    },
    {
      "channel": 1,
      "note": 64,
      "start": 13.052,
      "duration": 0.1666,
      "velocity": 127,
      "chip": "ym2612"
    },
    {
      "channel": 4,
      "note": 62,
      "start": 13.0535,
      "duration": 0.1304,
      "velocity": 102,
      "chip": "ym2612"
    },
    {
      "channel": 5,
      "note": 74,
      "start": 13.1348,
      "duration": 0.2164,
      "velocity": 82,
      "chip": "ym2612"
    },
    {
      "channel": 0,
      "note": 50,
      "start": 13.2166,
      "duration": 0.1665,
      "velocity": 99,
      "chip": "ym2612"
    },
    {
      "channel": 1,
      "note": 37,
      "start": 13.2186,
      "duration": 0.1666,
      "velocity": 120,
      "chip": "ym2612"
    },
    {
      "channel": 2,
      "note": 75,
      "start": 13.2195,
      "duration": 0.2139,
      "velocity": 86,
      "chip": "ym2612"
    },
    {
      "channel": 4,
      "note": 62,
      "start": 13.2205,
      "duration": 0.13,
      "velocity": 102,
      "chip": "ym2612"
    },
    {
      "channel": 0,
      "note": 50,
      "start": 13.3832,
      "duration": 0.1661,
      "velocity": 99,
      "chip": "ym2612"
    },
    {
      "channel": 1,
      "note": 76,
      "start": 13.3853,
      "duration": 0.1833,
      "velocity": 127,
      "chip": "ym2612"
    },
    {
      "channel": 3,
      "note": 69,
      "start": 13.3867,
      "duration": 0.2468,
      "velocity": 102,
      "chip": "ym2612"
    },
    {
      "channel": 4,
      "note": 62,
      "start": 13.3875,
      "duration": 0.1298,
      "velocity": 102,
      "chip": "ym2612"
    },
    {
      "channel": 5,
      "note": 75,
      "start": 13.4683,
      "duration": 0.2161,
      "velocity": 82,
      "chip": "ym2612"
    },
    {
      "channel": 0,
      "note": 50,
      "start": 13.5665,
      "duration": 0.1665,
      "velocity": 99,
      "chip": "ym2612"
    },
    {
      "channel": 1,
      "note": 64,
      "start": 13.5686,
      "duration": 0.1665,
      "velocity": 127,
      "chip": "ym2612"
    },
    {
      "channel": 2,
      "note": 76,
      "start": 13.5695,
      "duration": 0.3329,
      "velocity": 86,
      "chip": "ym2612"
    },
    {
      "channel": 4,
      "note": 62,
      "start": 13.5705,
      "duration": 0.1299,
      "velocity": 102,
      "chip": "ym2612"
    },
    {
      "channel": 0,
      "note": 52,
      "start": 13.7331,
      "duration": 0.1665,
      "velocity": 99,
      "chip": "ym2612"
    },
    {
      "channel": 1,
      "note": 37,
      "start": 13.7352,
      "duration": 0.1665,
      "velocity": 127,
      "chip": "ym2612"
    },
    {
      "channel": 4,
      "note": 64,
      "start": 13.7371,
      "duration": 0.1298,
      "velocity": 102,
      "chip": "ym2612"
    },
    {
      "channel": 5,
      "note": 76,
      "start": 13.818,
      "duration": 0.3329,
      "velocity": 82,
      "chip": "ym2612"
    },
    {
      "channel": 0,
      "note": 52,
      "start": 13.8997,
      "duration": 0.1668,
      "velocity": 99,
      "chip": "ym2612"
    },
    {
      "channel": 1,
      "note": 64,
      "start": 13.9018,
      "duration": 0.1668,
      "velocity": 120,
      "chip": "ym2612"
    },
    {
      "channel": 4,
      "note": 64,
      "start": 13.9034,
      "duration": 0.1304,
      "velocity": 102,
      "chip": "ym2612"
    },
    {
      "channel": 0,
      "note": 52,
      "start": 14.0665,
      "duration": 0.166,
      "velocity": 99,
      "chip": "ym2612"
    },
    {
      "channel": 1,
      "note": 76,
      "start": 14.0686,
      "duration": 0.183,
      "velocity": 127,
      "chip": "ym2612"
    },
    {
      "channel": 2,
      "note": 79,
      "start": 14.0696,
      "duration": 0.3302,
      "velocity": 86,
      "chip": "ym2612"
    },
    {
      "channel": 3,
      "note": 71,
      "start": 14.0704,
      "duration": 0.363,
      "velocity": 102,
      "chip": "ym2612"
    },
    {
      "channel": 4,
      "note": 64,
      "start": 14.0712,
      "duration": 0.1292,
      "velocity": 102,
      "chip": "ym2612"
    },
    {
      "channel": 0,
      "note": 52,
      "start": 14.2497,
      "duration": 0.1665,
      "velocity": 99,
      "chip": "ym2612"
    },
    {
      "channel": 1,
      "note": 64,
      "start": 14.2517,
      "duration": 0.1666,
      "velocity": 127,
      "chip": "ym2612"
    },
    {
      "channel": 4,
      "note": 64,
      "start": 14.2532,
      "duration": 0.1303,
      "velocity": 102,
      "chip": "ym2612"
    },
    {
      "channel": 5,
      "note": 79,
      "start": 14.3346,
      "duration": 0.3328,
      "velocity": 82,
      "chip": "ym2612"
    },
    {
      "channel": 0,
      "note": 52,
      "start": 14.4163,
      "duration": 0.1668,
      "velocity": 99,
      "chip": "ym2612"
    },
    {
      "channel": 1,
      "note": 37,
      "start": 14.4184,
      "duration": 0.1668,
      "velocity": 127,
      "chip": "ym2612"
    },
    {
      "channel": 4,
      "note": 64,
      "start": 14.42,
      "duration": 0.1304,
      "velocity": 102,
      "chip": "ym2612"
    },
    {
      "channel": 0,
      "note": 52,
      "start": 14.5831,
      "duration": 0.166,
      "velocity": 99,
      "chip": "ym2612"
    },
    {
      "channel": 1,
      "note": 37,
      "start": 14.5852,
      "duration": 0.1832,
      "velocity": 120,
      "chip": "ym2612"
    },
    {
      "channel": 2,
      "note": 79,
      "start": 14.5861,
      "duration": 0.2138,
      "velocity": 86,
      "chip": "ym2612"
    },
    {
      "channel": 3,
      "note": 71,
      "start": 14.5869,
      "duration": 0.2466,
      "velocity": 102,
      "chip": "ym2612"
    },
    {
      "channel": 4,
      "note": 64,
      "start": 14.5878,
      "duration": 0.129,
      "velocity": 102,
      "chip": "ym2612"
    },
    {
      "channel": 0,
      "note": 52,
      "start": 14.7663,
      "duration": 0.1667,
      "velocity": 99,
      "chip": "ym2612"
    },
    {
      "channel": 1,
      "note": 76,
      "start": 14.7684,
      "duration": 0.1666,
      "velocity": 127,
      "chip": "ym2612"
    },
    {
      "channel": 4,
      "note": 64,
      "start": 14.77,
      "duration": 0.1306,
      "velocity": 102,
      "chip": "ym2612"
    },
    {
      "channel": 5,
      "note": 79,
      "start": 14.8516,
      "duration": 0.2161,
      "velocity": 82,
      "chip": "ym2612"
    },
    {
      "channel": 0,
      "note": 52,
      "start": 14.933,
      "duration": 0.1666,
      "velocity": 99,
      "chip": "ym2612"
    },
    {
      "channel": 1,
      "note": 37,
      "start": 14.9351,
      "duration": 0.1666,
      "velocity": 127,
      "chip": "ym2612"
    },
    {
      "channel": 2,
      "note": 79,
      "start": 14.936,
      "duration": 0.1137,
      "velocity": 86,
      "chip": "ym2612"
    },
    {
      "channel": 3,
      "note": 71,
      "start": 14.9369,
      "duration": 0.1298,
      "velocity": 102,
      "chip": "ym2612"
    },
    {
      "channel": 4,
      "note": 64,
      "start": 14.9377,
      "duration": 0.1293,
      "velocity": 102,
      "chip": "ym2612"
    },
    {
      "channel": 0,
      "note": 55,
      "start": 15.0997,
      "duration": 0.1665,
      "velocity": 99,
      "chip": "ym2612"
    },
    {
      "channel": 1,
      "note": 37,
      "start": 15.1018,
      "duration": 0.1664,
      "velocity": 127,
      "chip": "ym2612"
    },
    {
      "channel": 2,
      "note": 83,
      "start": 15.1027,
      "duration": 0.2137,
      "velocity": 86,
      "chip": "ym2612"
    },
    {
      "channel": 3,
      "note": 74,
      "start": 15.1035,
      "duration": 0.3631,
      "velocity": 102,
      "chip": "ym2612"
    },
    {
      "channel": 4,
      "note": 67,
      "start": 15.1044,
      "duration": 0.1291,
      "velocity": 102,
      "chip": "ym2612"
    },
    {
      "channel": 5,
      "note": 79,
      "start": 15.1845,
      "duration": 0.1161,
      "velocity": 82,
      "chip": "ym2612"
    },
    {
      "channel": 0,
      "note": 55,
      "start": 15.2662,
      "duration": 0.166,
      "velocity": 99,
      "chip": "ym2612"
    },
    {
      "channel": 1,
      "note": 64,
      "start": 15.2682,
      "duration": 0.1834,
      "velocity": 120,
      "chip": "ym2612"
    },
    {
      "channel": 4,
      "note": 67,
      "start": 15.2698,
      "duration": 0.1303,
      "velocity": 102,
      "chip": "ym2612"
    },
    {
      "channel": 5,
      "note": 83,
      "start": 15.3678,
      "duration": 0.2165,
      "velocity": 82,
      "chip": "ym2612"
    },
    {
      "channel": 0,
      "note": 55,
      "start": 15.4495,
      "duration": 0.1666,
      "velocity": 99,
      "chip": "ym2612"
    },
    {
      "channel": 1,
      "note": 76,
      "start": 15.4517,
      "duration": 0.1665,
      "velocity": 127,
      "chip": "ym2612"
    },
    {
      "channel": 2,
      "note": 83,
      "start": 15.4526,
      "duration": 0.1139,
      "velocity": 86,
      "chip": "ym2612"
    },
    {
      "channel": 4,
      "note": 67,
      "start": 15.4536,
      "duration": 0.1301,
      "velocity": 102,
      "chip": "ym2612"
    },
    {
      "channel": 0,
      "note": 57,
      "start": 15.6162,
      "duration": 0.1665,
      "velocity": 99,
      "chip": "ym2612"
    },
    {
      "channel": 1,
      "note": 37,
      "start": 15.6182,
      "duration": 0.1665,
      "velocity": 127,
      "chip": "ym2612"
    },
    {
      "channel": 2,
      "note": 81,
      "start": 15.6191,
      "duration": 0.2137,
      "velocity": 86,
      "chip": "ym2612"
    },
    {
      "channel": 3,
      "note": 76,
      "start": 15.62,
      "duration": 0.363,
      "velocity": 102,
      "chip": "ym2612"
    },
    {
      "channel": 4,
      "note": 69,
      "start": 15.6208,
      "duration": 0.1291,
      "velocity": 102,
      "chip": "ym2612"
    },
    {
      "channel": 5,
      "note": 83,
      "start": 15.701,
      "duration": 0.1161,
      "velocity": 82,
      "chip": "ym2612"
    },
    {
      "channel": 0,
      "note": 57,
      "start": 15.7827,
      "duration": 0.166,
      "velocity": 99,
      "chip": "ym2612"
    },
    {
      "channel": 1,
      "note": 64,
      "start": 15.7847,
      "duration": 0.1834,
      "velocity": 127,
      "chip": "ym2612"
    },
    {
      "channel": 4,
      "note": 69,
      "start": 15.7863,
      "duration": 0.1303,
      "velocity": 102,
      "chip": "ym2612"
    },
    {
      "channel": 5,
      "note": 81,
      "start": 15.8676,
      "duration": 0.2162,
      "velocity": 82,
      "chip": "ym2612"
    },
    {
      "channel": 0,
      "note": 57,
      "start": 15.966,
      "duration": 0.1665,
      "velocity": 99,
      "chip": "ym2612"
    },
    {
      "channel": 1,
      "note": 37,
      "start": 15.9681,
      "duration": 0.1666,
      "velocity": 120,
      "chip": "ym2612"
    },
    {
      "channel": 2,
      "note": 81,
      "start": 15.969,
      "duration": 0.3329,
      "velocity": 86,
      "chip": "ym2612"
    },
    {
      "channel": 4,
      "note": 69,
      "start": 15.97,
      "duration": 0.1299,
      "velocity": 102,
      "chip": "ym2612"
    },
    {
      "channel": 0,
      "note": 55,
      "start": 16.1326,
      "duration": 0.1666,
      "velocity": 99,
      "chip": "ym2612"
    },
    {
      "channel": 1,
      "note": 76,
      "start": 16.1347,
      "duration": 0.1665,
      "velocity": 127,
      "chip": "ym2612"
    },
    {
      "channel": 3,
      "note": 74,
      "start": 16.1361,
      "duration": 0.2469,
      "velocity": 102,
      "chip": "ym2612"
    },
    {
      "channel": 4,
      "note": 67,
      "start": 16.1369,
      "duration": 0.1297,
      "velocity": 102,
      "chip": "ym2612"
    },
    {
      "channel": 5,
      "note": 81,
      "start": 16.2176,
      "duration": 0.3323,
      "velocity": 82,
      "chip": "ym2612"
    },
    {
      "channel": 0,
      "note": 55,
      "start": 16.2992,
      "duration": 0.1667,
      "velocity": 99,
      "chip": "ym2612"
    },
    {
      "channel": 1,
      "note": 64,
      "start": 16.3013,
      "duration": 0.1667,
      "velocity": 127,
      "chip": "ym2612"
    },
    {
      "channel": 4,
      "note": 67,
      "start": 16.3029,
      "duration": 0.1304,
      "velocity": 102,
      "chip": "ym2612"
    },
    {
      "channel": 0,
      "note": 52,
      "start": 16.4659,
      "duration": 0.166,
      "velocity": 99,
      "chip": "ym2612"
    },
    {
      "channel": 1,
      "note": 37,
      "start": 16.468,
      "duration": 0.1831,
      "velocity": 127,
      "chip": "ym2612"
    },
    {
      "channel": 3,
      "note": 71,
      "start": 16.4695,
      "duration": 0.2464,
      "velocity": 102,
      "chip": "ym2612"
    },
    {
      "channel": 4,
      "note": 64,
      "start": 16.4704,
      "duration": 0.1289,
      "velocity": 102,
      "chip": "ym2612"
    },
    {
      "channel": 0,
      "note": 52,
      "start": 16.649,
      "duration": 0.1668,
      "velocity": 99,
      "chip": "ym2612"
    },
    {
      "channel": 1,
      "note": 64,
      "start": 16.6512,
      "duration": 0.1668,
      "velocity": 120,
      "chip": "ym2612"
    },
    {
      "channel": 4,
      "note": 64,
      "start": 16.6524,
      "duration": 0.1305,
      "velocity": 102,
      "chip": "ym2612"
    },
    {
      "channel": 0,
      "note": 52,
      "start": 16.8159,
      "duration": 0.1665,
      "velocity": 99,
      "chip": "ym2612"
    },
    {
      "channel": 1,
      "note": 76,
      "start": 16.8181,
      "duration": 0.1663,
      "velocity": 127,
      "chip": "ym2612"
    },
    {
      "channel": 2,
      "note": 79,
      "start": 16.819,
      "duration": 0.3305,
      "velocity": 86,
      "chip": "ym2612"
    },
    {
      "channel": 3,
      "note": 71,
      "start": 16.8198,
      "duration": 0.3631,
      "velocity": 102,
      "chip": "ym2612"
    },
    {
      "channel": 4,
      "note": 64,
      "start": 16.8207,
      "duration": 0.1291,
      "velocity": 102,
      "chip": "ym2612"
    },
    {
      "channel": 0,
      "note": 52,
      "start": 16.9824,
      "duration": 0.1661,
      "velocity": 99,
      "chip": "ym2612"
    },
    {
      "channel": 1,
      "note": 64,
      "start": 16.9845,
      "duration": 0.1833,
      "velocity": 127,
      "chip": "ym2612"
    },
    {
      "channel": 4,
      "note": 64,
      "start": 16.986,
      "duration": 0.1304,
      "velocity": 102,
      "chip": "ym2612"
    },
    {
      "channel": 5,
      "note": 79,
      "start": 17.0841,
      "duration": 0.3327,
      "velocity": 82,
      "chip": "ym2612"
    },
    {
      "channel": 0,
      "note": 52,
      "start": 17.1658,
      "duration": 0.1668,
      "velocity": 99,
      "chip": "ym2612"
    },
    {
      "channel": 1,
      "note": 37,
      "start": 17.1678,
      "duration": 0.1668,
      "velocity": 127,
      "chip": "ym2612"
    },
    {
      "channel": 4,
      "note": 64,
      "start": 17.1695,
      "duration": 0.1304,
      "velocity": 102,
      "chip": "ym2612"
    },
    {
      "channel": 0,
      "note": 52,
      "start": 17.3326,
      "duration": 0.1665,
      "velocity": 99,
      "chip": "ym2612"
    },
    {
      "channel": 1,
      "note": 37,
      "start": 17.3347,
      "duration": 0.1665,
      "velocity": 120,
      "chip": "ym2612"
    },
    {
      "channel": 2,
      "note": 79,
      "start": 17.3356,
      "duration": 0.2139,
      "velocity": 86,
      "chip": "ym2612"
    },
    {
      "channel": 3,
      "note": 71,
      "start": 17.3364,
      "duration": 0.2468,
      "velocity": 102,
      "chip": "ym2612"
    },
    {
      "channel": 4,
      "note": 64,
      "start": 17.3373,
      "duration": 0.1291,
      "velocity": 102,
      "chip": "ym2612"
    },
    {
      "channel": 0,
      "note": 52,
      "start": 17.4991,
      "duration": 0.1661,
      "velocity": 99,
      "chip": "ym2612"
    },
    {
      "channel": 1,
      "note": 76,
      "start": 17.5012,
      "duration": 0.1833,
      "velocity": 127,
      "chip": "ym2612"
    },
    {
      "channel": 4,
      "note": 64,
      "start": 17.5027,
      "duration": 0.1307,
      "velocity": 102,
      "chip": "ym2612"
    },
    {
      "channel": 5,
      "note": 79,
      "start": 17.5844,
      "duration": 0.2159,
      "velocity": 82,
      "chip": "ym2612"
    },
    {
      "channel": 0,
      "note": 52,
      "start": 17.6825,
      "duration": 0.1666,
      "velocity": 99,
      "chip": "ym2612"
    },
    {
      "channel": 1,
      "note": 37,
      "start": 17.6846,
      "duration": 0.1666,
      "velocity": 127,
      "chip": "ym2612"
    },
    {
      "channel": 2,
      "note": 79,
      "start": 17.6855,
      "duration": 0.1137,
      "velocity": 86,
      "chip": "ym2612"
    },
    {
      "channel": 3,
      "note": 71,
      "start": 17.6864,
      "duration": 0.1298,
      "velocity": 102,
      "chip": "ym2612"
    },
    {
      "channel": 4,
      "note": 64,
      "start": 17.6872,
      "duration": 0.1293,
      "velocity": 102,
      "chip": "ym2612"
    },
    {
      "channel": 0,
      "note": 48,
      "start": 17.8492,
      "duration": 0.1665,
      "velocity": 99,
      "chip": "ym2612"
    },
    {
      "channel": 1,
      "note": 37,
      "start": 17.8512,
      "duration": 0.1665,
      "velocity": 127,
      "chip": "ym2612"
    },
    {
      "channel": 2,
      "note": 76,
      "start": 17.8522,
      "duration": 0.2137,
      "velocity": 86,
      "chip": "ym2612"
    },
    {
      "channel": 3,
      "note": 67,
      "start": 17.853,
      "duration": 0.3632,
      "velocity": 102,
      "chip": "ym2612"
    },
    {
      "channel": 4,
      "note": 60,
      "start": 17.8538,
      "duration": 0.1291,
      "velocity": 102,
      "chip": "ym2612"
    },
    {
      "channel": 5,
      "note": 79,
      "start": 17.934,
      "duration": 0.1161,
      "velocity": 82,
      "chip": "ym2612"
    },
    {
      "channel": 0,
      "note": 48,
      "start": 18.0157,
      "duration": 0.1666,
      "velocity": 99,
      "chip": "ym2612"
    },
    {
      "channel": 1,
      "note": 64,
      "start": 18.0177,
      "duration": 0.1667,
      "velocity": 120,
      "chip": "ym2612"
    },
    {
      "channel": 4,
      "note": 60,
      "start": 18.0193,
      "duration": 0.1303,
      "velocity": 102,
      "chip": "ym2612"
    },
    {
      "channel": 5,
      "note": 76,
      "start": 18.1006,
      "duration": 0.2165,
      "velocity": 82,
      "chip": "ym2612"
    },
    {
      "channel": 0,
      "note": 48,
      "start": 18.1823,
      "duration": 0.166,
      "velocity": 99,
      "chip": "ym2612"
    },
    {
      "channel": 1,
      "note": 76,
      "start": 18.1845,
      "duration": 0.1831,
      "velocity": 127,
      "chip": "ym2612"
    },
    {
      "channel": 2,
      "note": 76,
      "start": 18.1854,
      "duration": 0.1139,
      "velocity": 86,
      "chip": "ym2612"
    },
    {
      "channel": 4,
      "note": 60,
      "start": 18.1864,
      "duration": 0.1301,
      "velocity": 102,
      "chip": "ym2612"
    },
    {
      "channel": 0,
      "note": 50,
      "start": 18.3657,
      "duration": 0.1665,
      "velocity": 99,
      "chip": "ym2612"
    },
    {
      "channel": 1,
      "note": 37,
      "start": 18.3677,
      "duration": 0.1665,
      "velocity": 127,
      "chip": "ym2612"
    },
    {
      "channel": 2,
      "note": 74,
      "start": 18.3686,
      "duration": 0.2137,
      "velocity": 86,
      "chip": "ym2612"
    },
    {
      "channel": 3,
      "note": 69,
      "start": 18.3694,
      "duration": 0.3631,
      "velocity": 102,
      "chip": "ym2612"
    },
    {
      "channel": 4,
      "note": 62,
      "start": 18.3702,
      "duration": 0.1292,
      "velocity": 102,
      "chip": "ym2612"
    },
    {
      "channel": 5,
      "note": 76,
      "start": 18.4505,
      "duration": 0.1161,
      "velocity": 82,
      "chip": "ym2612"
    },
    {
      "channel": 0,
      "note": 50,
      "start": 18.5322,
      "duration": 0.1666,
      "velocity": 99,
      "chip": "ym2612"
    },
    {
      "channel": 1,
      "note": 64,
      "start": 18.5342,
      "duration": 0.1667,
      "velocity": 127,
      "chip": "ym2612"
    },
    {
      "channel": 4,
      "note": 62,
      "start": 18.5358,
      "duration": 0.1304,
      "velocity": 102,
      "chip": "ym2612"
    },
    {
      "channel": 5,
      "note": 74,
      "start": 18.6171,
      "duration": 0.2164,
      "velocity": 82,
      "chip": "ym2612"
    },
    {
      "channel": 0,
      "note": 50,
      "start": 18.6989,
      "duration": 0.166,
      "velocity": 99,
      "chip": "ym2612"
    },
    {
      "channel": 1,
      "note": 37,
      "start": 18.7009,
      "duration": 0.1833,
      "velocity": 120,
      "chip": "ym2612"
    },
    {
      "channel": 2,
      "note": 75,
      "start": 18.7018,
      "duration": 0.2139,
      "velocity": 86,
      "chip": "ym2612"
    },
    {
      "channel": 4,
      "note": 62,
      "start": 18.7028,
      "duration": 0.13,
      "velocity": 102,
      "chip": "ym2612"
    },
    {
      "channel": 0,
      "note": 50,
      "start": 18.8821,
      "duration": 0.1667,
      "velocity": 99,
      "chip": "ym2612"
    },
    {
      "channel": 1,
      "note": 76,
      "start": 18.8843,
      "duration": 0.1666,
      "velocity": 127,
      "chip": "ym2612"
    },
    {
      "channel": 3,
      "note": 69,
      "start": 18.8856,
      "duration": 0.2469,
      "velocity": 102,
      "chip": "ym2612"
    },
    {
      "channel": 4,
      "note": 62,
      "start": 18.8864,
      "duration": 0.1298,
      "velocity": 102,
      "chip": "ym2612"
    },
    {
      "channel": 5,
      "note": 75,
      "start": 18.9672,
      "duration": 0.2162,
      "velocity": 82,
      "chip": "ym2612"
    },
    {
      "channel": 0,
      "note": 50,
      "start": 19.0488,
      "duration": 0.1665,
      "velocity": 99,
      "chip": "ym2612"
    },
    {
      "channel": 1,
      "note": 64,
      "start": 19.0509,
      "duration": 0.1665,
      "velocity": 127,
      "chip": "ym2612"
    },
    {
      "channel": 2,
      "note": 76,
      "start": 19.0518,
      "duration": 0.3328,
      "velocity": 86,
      "chip": "ym2612"
    },
    {
      "channel": 4,
      "note": 62,
      "start": 19.0528,
      "duration": 0.1299,
      "velocity": 102,
      "chip": "ym2612"
    },
    {
      "channel": 0,
      "note": 52,
      "start": 19.2154,
      "duration": 0.1665,
      "velocity": 99,
      "chip": "ym2612"
    },
    {
      "channel": 1,
      "note": 37,
      "start": 19.2175,
      "duration": 0.1665,
      "velocity": 127,
      "chip": "ym2612"
    },
    {
      "channel": 4,
      "note": 64,
      "start": 19.2194,
      "duration": 0.1299,
      "velocity": 102,
      "chip": "ym2612"
    },
    {
      "channel": 5,
      "note": 76,
      "start": 19.3003,
      "duration": 0.3329,
      "velocity": 82,
      "chip": "ym2612"
    },
    {
      "channel": 0,
      "note": 52,
      "start": 19.382,
      "duration": 0.1661,
      "velocity": 99,
      "chip": "ym2612"
    },
    {
      "channel": 1,
      "note": 64,
      "start": 19.384,
      "duration": 0.1835,
      "velocity": 120,
      "chip": "ym2612"
    },
    {
      "channel": 4,
      "note": 64,
      "start": 19.3856,
      "duration": 0.1305,
      "velocity": 102,
      "chip": "ym2612"
    },
    {
      "channel": 0,
      "note": 52,
      "start": 19.5654,
      "duration": 0.1665,
      "velocity": 99,
      "chip": "ym2612"
    },
    {
      "channel": 1,
      "note": 76,
      "start": 19.5676,
      "duration": 0.1663,
      "velocity": 127,
      "chip": "ym2612"
    },
    {
      "channel": 2,
      "note": 79,
      "start": 19.5685,
      "duration": 0.3327,
      "velocity": 86,
      "chip": "ym2612"
    },
    {
      "channel": 3,
      "note": 71,
      "start": 19.5694,
      "duration": 0.363,
      "velocity": 102,
      "chip": "ym2612"
    },
    {
      "channel": 4,
      "note": 64,
      "start": 19.5702,
      "duration": 0.1292,
      "velocity": 102,
      "chip": "ym2612"
    },
    {
      "channel": 0,
      "note": 52,
      "start": 19.732,
      "duration": 0.1665,
      "velocity": 99,
      "chip": "ym2612"
    },
    {
      "channel": 1,
      "note": 64,
      "start": 19.734,
      "duration": 0.1666,
      "velocity": 127,
      "chip": "ym2612"
    },
    {
      "channel": 4,
      "note": 64,
      "start": 19.7355,
      "duration": 0.1303,
      "velocity": 102,
      "chip": "ym2612"
    },
    {
      "channel": 5,
      "note": 79,
      "start": 19.8169,
      "duration": 0.3327,
      "velocity": 82,
      "chip": "ym2612"
    },
    {
      "channel": 0,
      "note": 52,
      "start": 19.8986,
      "duration": 0.1661,
      "velocity": 99,
      "chip": "ym2612"
    },
    {
      "channel": 1,
      "note": 37,
      "start": 19.9006,
      "duration": 0.1835,
      "velocity": 127,
      "chip": "ym2612"
    },
    {
      "channel": 4,
      "note": 64,
      "start": 19.9022,
      "duration": 0.1305,
      "velocity": 102,
      "chip": "ym2612"
    },
    {
      "channel": 0,
      "note": 52,
      "start": 20.082,
      "duration": 0.1665,
      "velocity": 99,
      "chip": "ym2612"
    },
    {
      "channel": 1,
      "note": 37,
      "start": 20.0841,
      "duration": 0.1665,
      "velocity": 120,
      "chip": "ym2612"
    },
    {
      "channel": 2,
      "note": 79,
      "start": 20.085,
      "duration": 0.2139,
      "velocity": 86,
      "chip": "ym2612"
    },
    {
      "channel": 3,
      "note": 71,
      "start": 20.0859,
      "duration": 0.2468,
      "velocity": 102,
      "chip": "ym2612"
    },
    {
      "channel": 4,
      "note": 64,
      "start": 20.0867,
      "duration": 0.1291,
      "velocity": 102,
      "chip": "ym2612"
    },
    {
      "channel": 0,
      "note": 52,
      "start": 20.2486,
      "duration": 0.1667,
      "velocity": 99,
      "chip": "ym2612"
    },
    {
      "channel": 1,
      "note": 76,
      "start": 20.2507,
      "duration": 0.1667,
      "velocity": 127,
      "chip": "ym2612"
    },
    {
      "channel": 4,
      "note": 64,
      "start": 20.2522,
      "duration": 0.1306,
      "velocity": 102,
      "chip": "ym2612"
    },
    {
      "channel": 5,
      "note": 79,
      "start": 20.3338,
      "duration": 0.2161,
      "velocity": 82,
      "chip": "ym2612"
    },
    {
      "channel": 0,
      "note": 52,
      "start": 20.4153,
      "duration": 0.1666,
      "velocity": 99,
      "chip": "ym2612"
    },
    {
      "channel": 1,
      "note": 37,
      "start": 20.4173,
      "duration": 0.1667,
      "velocity": 127,
      "chip": "ym2612"
    },
    {
      "channel": 2,
      "note": 79,
      "start": 20.4183,
      "duration": 0.1137,
      "velocity": 86,
      "chip": "ym2612"
    },
    {
      "channel": 3,
      "note": 71,
      "start": 20.4191,
      "duration": 0.1299,
      "velocity": 102,
      "chip": "ym2612"
    },
    {
      "channel": 4,
      "note": 64,
      "start": 20.4199,
      "duration": 0.1294,
      "velocity": 102,
      "chip": "ym2612"
    },
    {
      "channel": 0,
      "note": 55,
      "start": 20.582,
      "duration": 0.166,
      "velocity": 99,
      "chip": "ym2612"
    },
    {
      "channel": 1,
      "note": 37,
      "start": 20.5841,
      "duration": 0.1831,
      "velocity": 127,
      "chip": "ym2612"
    },
    {
      "channel": 2,
      "note": 83,
      "start": 20.5849,
      "duration": 0.2137,
      "velocity": 86,
      "chip": "ym2612"
    },
    {
      "channel": 3,
      "note": 74,
      "start": 20.5858,
      "duration": 0.3632,
      "velocity": 102,
      "chip": "ym2612"
    },
    {
      "channel": 4,
      "note": 67,
      "start": 20.5867,
      "duration": 0.1291,
      "velocity": 102,
      "chip": "ym2612"
    },
    {
      "channel": 5,
      "note": 79,
      "start": 20.6834,
      "duration": 0.1162,
      "velocity": 82,
      "chip": "ym2612"
    },
    {
      "channel": 0,
      "note": 55,
      "start": 20.7651,
      "duration": 0.1666,
      "velocity": 99,
      "chip": "ym2612"
    },
    {
      "channel": 1,
      "note": 64,
      "start": 20.7672,
      "duration": 0.1667,
      "velocity": 120,
      "chip": "ym2612"
    },
    {
      "channel": 4,
      "note": 67,
      "start": 20.7687,
      "duration": 0.1303,
      "velocity": 102,
      "chip": "ym2612"
    },
    {
      "channel": 5,
      "note": 83,
      "start": 20.8501,
      "duration": 0.2165,
      "velocity": 82,
      "chip": "ym2612"
    },
    {
      "channel": 0,
      "note": 55,
      "start": 20.9318,
      "duration": 0.1666,
      "velocity": 99,
      "chip": "ym2612"
    },
    {
      "channel": 1,
      "note": 76,
      "start": 20.934,
      "duration": 0.1665,
      "velocity": 127,
      "chip": "ym2612"
    },
    {
      "channel": 2,
      "note": 83,
      "start": 20.9349,
      "duration": 0.1139,
      "velocity": 86,
      "chip": "ym2612"
    },
    {
      "channel": 4,
      "note": 67,
      "start": 20.9359,
      "duration": 0.1301,
      "velocity": 102,
      "chip": "ym2612"
    },
    {
      "channel": 0,
      "note": 57,
      "start": 21.0985,
      "duration": 0.166,
      "velocity": 99,
      "chip": "ym2612"
    },
    {
      "channel": 1,
      "note": 37,
      "start": 21.1005,
      "duration": 0.1833,
      "velocity": 120,
      "chip": "ym2612"
    },
    {
      "channel": 2,
      "note": 81,
      "start": 21.1015,
      "duration": 0.2138,
      "velocity": 86,
      "chip": "ym2612"
    },
    {
      "channel": 3,
      "note": 76,
      "start": 21.1023,
      "duration": 0.363,
      "velocity": 102,
      "chip": "ym2612"
    },
    {
      "channel": 4,
      "note": 69,
      "start": 21.1031,
      "duration": 0.1291,
      "velocity": 102,
      "chip": "ym2612"
    },
    {
      "channel": 5,
      "note": 83,
      "start": 21.1833,
      "duration": 0.1163,
      "velocity": 82,
      "chip": "ym2612"
    },
    {
      "channel": 0,
      "note": 57,
      "start": 21.2817,
      "duration": 0.1667,
      "velocity": 99,
      "chip": "ym2612"
    },
    {
      "channel": 1,
      "note": 76,
      "start": 21.2838,
      "duration": 0.2492,
      "velocity": 120,
      "chip": "ym2612"
    },
    {
      "channel": 4,
      "note": 69,
      "start": 21.2854,
      "duration": 0.1304,
      "velocity": 102,
      "chip": "ym2612"
    },
    {
      "channel": 5,
      "note": 81,
      "start": 21.3667,
      "duration": 0.2163,
      "velocity": 82,
      "chip": "ym2612"
    },
    {
      "channel": 0,
      "note": 57,
      "start": 21.4483,
      "duration": 0.1665,
      "velocity": 99,
      "chip": "ym2612"
    },
    {
      "channel": 2,
      "note": 81,
      "start": 21.4495,
      "duration": 0.3323,
      "velocity": 86,
      "chip": "ym2612"
    },
    {
      "channel": 4,
      "note": 69,
      "start": 21.4505,
      "duration": 0.1319,
      "velocity": 102,
      "chip": "ym2612"
    },
    {
      "channel": 1,
      "note": 76,
      "start": 21.5331,
      "duration": 0.2672,
      "velocity": 120,
      "chip": "ym2612"
    },
    {
      "channel": 0,
      "note": 55,
      "start": 21.6149,
      "duration": 0.1661,
      "velocity": 99,
      "chip": "ym2612"
    },
    {
      "channel": 3,
      "note": 74,
      "start": 21.6166,
      "duration": 0.2489,
      "velocity": 102,
      "chip": "ym2612"
    },
    {
      "channel": 4,
      "note": 67,
      "start": 21.6174,
      "duration": 0.1314,
      "velocity": 102,
      "chip": "ym2612"
    },
    {
      "channel": 5,
      "note": 81,
      "start": 21.6998,
      "duration": 0.3323,
      "velocity": 82,
      "chip": "ym2612"
    },
    {
      "channel": 0,
      "note": 55,
      "start": 21.7981,
      "duration": 0.1669,
      "velocity": 99,
      "chip": "ym2612"
    },
    {
      "channel": 1,
      "note": 76,
      "start": 21.8002,
      "duration": 0.1671,
      "velocity": 127,
      "chip": "ym2612"
    },
    {
      "channel": 4,
      "note": 67,
      "start": 21.802,
      "duration": 0.1305,
      "velocity": 102,
      "chip": "ym2612"
    },
    {
      "channel": 0,
      "note": 51,
      "start": 21.9651,
      "duration": 0.1664,
      "velocity": 99,
      "chip": "ym2612"
    },
    {
      "channel": 1,
      "note": 37,
      "start": 21.9673,
      "duration": 0.1663,
      "velocity": 127,
      "chip": "ym2612"
    },
    {
      "channel": 3,
      "note": 70,
      "start": 21.9703,
      "duration": 0.3613,
      "velocity": 102,
      "chip": "ym2612"
    },
    {
      "channel": 4,
      "note": 63,
      "start": 21.9712,
      "duration": 0.1271,
      "velocity": 102,
      "chip": "ym2612"
    },
    {
      "channel": 0,
      "note": 51,
      "start": 22.1316,
      "duration": 0.1665,
      "velocity": 99,
      "chip": "ym2612"
    },
    {
      "channel": 1,
      "note": 64,
      "start": 22.1336,
      "duration": 0.1666,
      "velocity": 120,
      "chip": "ym2612"
    },
    {
      "channel": 2,
      "note": 62,
      "start": 22.1345,
      "duration": 0.0308,
      "velocity": 92,
      "chip": "ym2612"
    },
    {
      "channel": 4,
      "note": 63,
      "start": 22.1355,
      "duration": 0.1294,
      "velocity": 102,
      "chip": "ym2612"
    },
    {
      "channel": 2,
      "note": 63,
      "start": 22.1654,
      "duration": 0.1357,
      "velocity": 92,
      "chip": "ym2612"
    },
    {
      "channel": 0,
      "note": 51,
      "start": 22.2981,
      "duration": 0.1659,
      "velocity": 99,
      "chip": "ym2612"
    },
    {
      "channel": 1,
      "note": 76,
      "start": 22.3003,
      "duration": 0.1831,
      "velocity": 127,
      "chip": "ym2612"
    },
    {
      "channel": 2,
      "note": 61,
      "start": 22.3011,
      "duration": 0.1636,
      "velocity": 92,
      "chip": "ym2612"
    },
    {
      "channel": 4,
      "note": 63,
      "start": 22.3021,
      "duration": 0.1298,
      "velocity": 102,
      "chip": "ym2612"
    },
    {
      "channel": 5,
      "note": 62,
      "start": 22.3996,
      "duration": 0.0165,
      "velocity": 92,
      "chip": "ym2612"
    },
    {
      "channel": 5,
      "note": 63,
      "start": 22.4162,
      "duration": 0.1496,
      "velocity": 92,
      "chip": "ym2612"
    },
    {
      "channel": 0,
      "note": 51,
      "start": 22.4815,
      "duration": 0.1665,
      "velocity": 99,
      "chip": "ym2612"
    },
    {
      "channel": 1,
      "note": 64,
      "start": 22.4835,
      "duration": 0.1665,
      "velocity": 127,
      "chip": "ym2612"
    },
    {
      "channel": 2,
      "note": 58,
      "start": 22.4843,
      "duration": 0.1666,
      "velocity": 92,
      "chip": "ym2612"
    },
    {
      "channel": 3,
      "note": 70,
      "start": 22.4852,
      "duration": 0.2462,
      "velocity": 102,
      "chip": "ym2612"
    },
    {
      "channel": 4,
      "note": 63,
      "start": 22.486,
      "duration": 0.1288,
      "velocity": 102,
      "chip": "ym2612"
    },
    {
      "channel": 5,
      "note": 61,
      "start": 22.5658,
      "duration": 0.1666,
      "velocity": 92,
      "chip": "ym2612"
    },
    {
      "channel": 0,
      "note": 51,
      "start": 22.648,
      "duration": 0.1666,
      "velocity": 99,
      "chip": "ym2612"
    },
    {
      "channel": 1,
      "note": 37,
      "start": 22.6501,
      "duration": 0.1666,
      "velocity": 127,
      "chip": "ym2612"
    },
    {
      "channel": 2,
      "note": 62,
      "start": 22.651,
      "duration": 0.0308,
      "velocity": 92,
      "chip": "ym2612"
    },
    {
      "channel": 4,
      "note": 63,
      "start": 22.652,
      "duration": 0.1296,
      "velocity": 102,
      "chip": "ym2612"
    },
    {
      "channel": 2,
      "note": 63,
      "start": 22.6818,
      "duration": 0.1357,
      "velocity": 92,
      "chip": "ym2612"
    },
    {
      "channel": 5,
      "note": 58,
      "start": 22.7325,
      "duration": 0.1665,
      "velocity": 92,
      "chip": "ym2612"
    },
    {
      "channel": 0,
      "note": 51,
      "start": 22.8146,
      "duration": 0.1659,
      "velocity": 99,
      "chip": "ym2612"
    },
    {
      "channel": 1,
      "note": 37,
      "start": 22.8168,
      "duration": 0.1832,
      "velocity": 120,
      "chip": "ym2612"
    },
    {
      "channel": 2,
      "note": 61,
      "start": 22.8176,
      "duration": 0.1635,
      "velocity": 92,
      "chip": "ym2612"
    },
    {
      "channel": 3,
      "note": 70,
      "start": 22.8184,
      "duration": 0.2462,
      "velocity": 102,
      "chip": "ym2612"
    },
    {
      "channel": 4,
      "note": 63,
      "start": 22.8192,
      "duration": 0.1288,
      "velocity": 102,
      "chip": "ym2612"
    },
    {
      "channel": 5,
      "note": 62,
      "start": 22.8991,
      "duration": 0.0332,
      "velocity": 92,
      "chip": "ym2612"
    },
    {
      "channel": 5,
      "note": 63,
      "start": 22.9324,
      "duration": 0.1501,
      "velocity": 92,
      "chip": "ym2612"
    },
    {
      "channel": 0,
      "note": 51,
      "start": 22.9979,
      "duration": 0.1665,
      "velocity": 99,
      "chip": "ym2612"
    },
    {
      "channel": 1,
      "note": 76,
      "start": 23.0,
      "duration": 0.1665,
      "velocity": 127,
      "chip": "ym2612"
    },
    {
      "channel": 2,
      "note": 58,
      "start": 23.0008,
      "duration": 0.1665,
      "velocity": 92,
      "chip": "ym2612"
    },
    {
      "channel": 4,
      "note": 63,
      "start": 23.0019,
      "duration": 0.1296,
      "velocity": 102,
      "chip": "ym2612"
    },
    {
      "channel": 5,
      "note": 61,
      "start": 23.0825,
      "duration": 0.1663,
      "velocity": 92,
      "chip": "ym2612"
    },
    {
      "channel": 0,
      "note": 47,
      "start": 23.1645,
      "duration": 0.1664,
      "velocity": 99,
      "chip": "ym2612"
    },
    {
      "channel": 1,
      "note": 37,
      "start": 23.1665,
      "duration": 0.1665,
      "velocity": 127,
      "chip": "ym2612"
    },
    {
      "channel": 2,
      "note": 62,
      "start": 23.1674,
      "duration": 0.0308,
      "velocity": 92,
      "chip": "ym2612"
    },
    {
      "channel": 3,
      "note": 66,
      "start": 23.1683,
      "duration": 0.2463,
      "velocity": 102,
      "chip": "ym2612"
    },
    {
      "channel": 4,
      "note": 59,
      "start": 23.1691,
      "duration": 0.2622,
      "velocity": 102,
      "chip": "ym2612"
    },
    {
      "channel": 2,
      "note": 63,
      "start": 23.1983,
      "duration": 0.3022,
      "velocity": 92,
      "chip": "ym2612"
    },
    {
      "channel": 5,
      "note": 58,
      "start": 23.2488,
      "duration": 0.1668,
      "velocity": 92,
      "chip": "ym2612"
    },
    {
      "channel": 0,
      "note": 47,
      "start": 23.331,
      "duration": 0.1666,
      "velocity": 99,
      "chip": "ym2612"
    },
    {
      "channel": 1,
      "note": 37,
      "start": 23.3331,
      "duration": 0.1666,
      "velocity": 127,
      "chip": "ym2612"
    },
    {
      "channel": 5,
      "note": 62,
      "start": 23.4156,
      "duration": 0.0334,
      "velocity": 92,
      "chip": "ym2612"
    },
    {
      "channel": 5,
      "note": 63,
      "start": 23.4491,
      "duration": 0.2992,
      "velocity": 92,
      "chip": "ym2612"
    },
    {
      "channel": 0,
      "note": 47,
      "start": 23.4977,
      "duration": 0.166,
      "velocity": 99,
      "chip": "ym2612"
    },
    {
      "channel": 1,
      "note": 64,
      "start": 23.4997,
      "duration": 0.1832,
      "velocity": 120,
      "chip": "ym2612"
    },
    {
      "channel": 2,
      "note": 65,
      "start": 23.5006,
      "duration": 0.3302,
      "velocity": 92,
      "chip": "ym2612"
    },
    {
      "channel": 4,
      "note": 59,
      "start": 23.502,
      "duration": 0.1291,
      "velocity": 102,
      "chip": "ym2612"
    },
    {
      "channel": 0,
      "note": 47,
      "start": 23.6809,
      "duration": 0.1666,
      "velocity": 99,
      "chip": "ym2612"
    },
    {
      "channel": 1,
      "note": 76,
      "start": 23.683,
      "duration": 0.1666,
      "velocity": 127,
      "chip": "ym2612"
    },
    {
      "channel": 4,
      "note": 59,
      "start": 23.6842,
      "duration": 0.1305,
      "velocity": 102,
      "chip": "ym2612"
    },
    {
      "channel": 5,
      "note": 65,
      "start": 23.7656,
      "duration": 0.3331,
      "velocity": 92,
      "chip": "ym2612"
    },
    {
      "channel": 0,
      "note": 47,
      "start": 23.8475,
      "duration": 0.1666,
      "velocity": 99,
      "chip": "ym2612"
    },
    {
      "channel": 1,
      "note": 37,
      "start": 23.8496,
      "duration": 0.1665,
      "velocity": 127,
      "chip": "ym2612"
    },
    {
      "channel": 2,
      "note": 66,
      "start": 23.8505,
      "duration": 0.3303,
      "velocity": 92,
      "chip": "ym2612"
    },
    {
      "channel": 3,
      "note": 66,
      "start": 23.8513,
      "duration": 0.2464,
      "velocity": 102,
      "chip": "ym2612"
    },
    {
      "channel": 4,
      "note": 59,
      "start": 23.8521,
      "duration": 0.129,
      "velocity": 102,
      "chip": "ym2612"
    },
    {
      "channel": 0,
      "note": 47,
      "start": 24.0141,
      "duration": 0.166,
      "velocity": 99,
      "chip": "ym2612"
    },
    {
      "channel": 1,
      "note": 64,
      "start": 24.0162,
      "duration": 0.1833,
      "velocity": 127,
      "chip": "ym2612"
    },
    {
      "channel": 4,
      "note": 59,
      "start": 24.0174,
      "duration": 0.1304,
      "velocity": 102,
      "chip": "ym2612"
    },
    {
      "channel": 5,
      "note": 66,
      "start": 24.0987,
      "duration": 0.3326,
      "velocity": 92,
      "chip": "ym2612"
    },
    {
      "channel": 0,
      "note": 47,
      "start": 24.1975,
      "duration": 0.1665,
      "velocity": 99,
      "chip": "ym2612"
    },
    {
      "channel": 1,
      "note": 37,
      "start": 24.1995,
      "duration": 0.1666,
      "velocity": 120,
      "chip": "ym2612"
    },
    {
      "channel": 2,
      "note": 68,
      "start": 24.2004,
      "duration": 0.3333,
      "velocity": 92,
      "chip": "ym2612"
    },
    {
      "channel": 3,
      "note": 66,
      "start": 24.2012,
      "duration": 0.2465,
      "velocity": 102,
      "chip": "ym2612"
    },
    {
      "channel": 4,
      "note": 59,
      "start": 24.202,
      "duration": 0.129,
      "velocity": 102,
      "chip": "ym2612"
    },
    {
      "channel": 0,
      "note": 47,
      "start": 24.3641,
      "duration": 0.1666,
      "velocity": 99,
      "chip": "ym2612"
    },
    {
      "channel": 1,
      "note": 76,
      "start": 24.3662,
      "duration": 0.1666,
      "velocity": 127,
      "chip": "ym2612"
    },
    {
      "channel": 4,
      "note": 59,
      "start": 24.3674,
      "duration": 0.1305,
      "velocity": 102,
      "chip": "ym2612"
    },
    {
      "channel": 5,
      "note": 68,
      "start": 24.4488,
      "duration": 0.3324,
      "velocity": 92,
      "chip": "ym2612"
    },
    {
      "channel": 0,
      "note": 49,
      "start": 24.5308,
      "duration": 0.1665,
      "velocity": 99,
      "chip": "ym2612"
    },
    {
      "channel": 1,
      "note": 64,
      "start": 24.5328,
      "duration": 0.1665,
      "velocity": 127,
      "chip": "ym2612"
    },
    {
      "channel": 2,
      "note": 69,
      "start": 24.5337,
      "duration": 0.0309,
      "velocity": 92,
      "chip": "ym2612"
    },
    {
      "channel": 3,
      "note": 68,
      "start": 24.5345,
      "duration": 0.2462,
      "velocity": 102,
      "chip": "ym2612"
    },
    {
      "channel": 4,
      "note": 61,
      "start": 24.5354,
      "duration": 0.2625,
      "velocity": 102,
      "chip": "ym2612"
    },
    {
      "channel": 2,
      "note": 70,
      "start": 24.5646,
      "duration": 0.2992,
      "velocity": 92,
      "chip": "ym2612"
    },
    {
      "channel": 0,
      "note": 49,
      "start": 24.6973,
      "duration": 0.1659,
      "velocity": 99,
      "chip": "ym2612"
    },
    {
      "channel": 1,
      "note": 37,
      "start": 24.6993,
      "duration": 0.1833,
      "velocity": 127,
      "chip": "ym2612"
    },
    {
      "channel": 5,
      "note": 69,
      "start": 24.7988,
      "duration": 0.0166,
      "velocity": 92,
      "chip": "ym2612"
    },
    {
      "channel": 5,
      "note": 70,
      "start": 24.8153,
      "duration": 0.299,
      "velocity": 92,
      "chip": "ym2612"
    },
    {
      "channel": 0,
      "note": 49,
      "start": 24.8806,
      "duration": 0.1664,
      "velocity": 99,
      "chip": "ym2612"
    },
    {
      "channel": 1,
      "note": 64,
      "start": 24.8827,
      "duration": 0.1665,
      "velocity": 120,
      "chip": "ym2612"
    },
    {
      "channel": 2,
      "note": 68,
      "start": 24.8836,
      "duration": 0.9637,
      "velocity": 92,
      "chip": "ym2612"
    },
    {
      "channel": 4,
      "note": 61,
      "start": 24.885,
      "duration": 0.129,
      "velocity": 102,
      "chip": "ym2612"
    },
    {
      "channel": 0,
      "note": 49,
      "start": 25.0471,
      "duration": 0.1666,
      "velocity": 99,
      "chip": "ym2612"
    },
    {
      "channel": 1,
      "note": 76,
      "start": 25.0492,
      "duration": 0.1665,
      "velocity": 127,
      "chip": "ym2612"
    },
    {
      "channel": 4,
      "note": 61,
      "start": 25.0505,
      "duration": 0.1305,
      "velocity": 102,
      "chip": "ym2612"
    },
    {
      "channel": 5,
      "note": 68,
      "start": 25.132,
      "duration": 0.9657,
      "velocity": 92,
      "chip": "ym2612"
    },
    {
      "channel": 0,
      "note": 49,
      "start": 25.2137,
      "duration": 0.1661,
      "velocity": 99,
      "chip": "ym2612"
    },
    {
      "channel": 1,
      "note": 64,
      "start": 25.2158,
      "duration": 0.1833,
      "velocity": 127,
      "chip": "ym2612"
    },
    {
      "channel": 3,
      "note": 68,
      "start": 25.2168,
      "duration": 0.2472,
      "velocity": 102,
      "chip": "ym2612"
    },
    {
      "channel": 4,
      "note": 61,
      "start": 25.2176,
      "duration": 0.1298,
      "velocity": 102,
      "chip": "ym2612"
    },
    {
      "channel": 0,
      "note": 49,
      "start": 25.3971,
      "duration": 0.1666,
      "velocity": 99,
      "chip": "ym2612"
    },
    {
      "channel": 1,
      "note": 37,
      "start": 25.3992,
      "duration": 0.1666,
      "velocity": 127,
      "chip": "ym2612"
    },
    {
      "channel": 4,
      "note": 61,
      "start": 25.4006,
      "duration": 0.1304,
      "velocity": 102,
      "chip": "ym2612"
    },
    {
      "channel": 0,
      "note": 49,
      "start": 25.5638,
      "duration": 0.1666,
      "velocity": 99,
      "chip": "ym2612"
    },
    {
      "channel": 1,
      "note": 37,
      "start": 25.5658,
      "duration": 0.1667,
      "velocity": 120,
      "chip": "ym2612"
    },
    {
      "channel": 3,
      "note": 68,
      "start": 25.567,
      "duration": 0.2472,
      "velocity": 102,
      "chip": "ym2612"
    },
    {
      "channel": 4,
      "note": 61,
      "start": 25.5678,
      "duration": 0.1298,
      "velocity": 102,
      "chip": "ym2612"
    },
    {
      "channel": 0,
      "note": 49,
      "start": 25.7305,
      "duration": 0.1662,
      "velocity": 99,
      "chip": "ym2612"
    },
    {
      "channel": 1,
      "note": 76,
      "start": 25.7326,
      "duration": 0.1833,
      "velocity": 127,
      "chip": "ym2612"
    },
    {
      "channel": 4,
      "note": 61,
      "start": 25.734,
      "duration": 0.1306,
      "velocity": 102,
      "chip": "ym2612"
    },
    {
      "channel": 0,
      "note": 54,
      "start": 25.9139,
      "duration": 0.1665,
      "velocity": 99,
      "chip": "ym2612"
    },
    {
      "channel": 1,
      "note": 37,
      "start": 25.916,
      "duration": 0.1665,
      "velocity": 127,
      "chip": "ym2612"
    },
    {
      "channel": 2,
      "note": 72,
      "start": 25.9168,
      "duration": 0.0141,
      "velocity": 92,
      "chip": "ym2612"
    },
    {
      "channel": 3,
      "note": 73,
      "start": 25.9177,
      "duration": 0.2463,
      "velocity": 102,
      "chip": "ym2612"
    },
    {
      "channel": 4,
      "note": 66,
      "start": 25.9185,
      "duration": 0.2622,
      "velocity": 102,
      "chip": "ym2612"
    },
    {
      "channel": 2,
      "note": 73,
      "start": 25.931,
      "duration": 0.2992,
      "velocity": 92,
      "chip": "ym2612"
    },
    {
      "channel": 0,
      "note": 54,
      "start": 26.0805,
      "duration": 0.1666,
      "velocity": 99,
      "chip": "ym2612"
    },
    {
      "channel": 1,
      "note": 37,
      "start": 26.0825,
      "duration": 0.1666,
      "velocity": 127,
      "chip": "ym2612"
    },
    {
      "channel": 5,
      "note": 72,
      "start": 26.1651,
      "duration": 0.0334,
      "velocity": 92,
      "chip": "ym2612"
    },
    {
      "channel": 5,
      "note": 73,
      "start": 26.1985,
      "duration": 0.2992,
      "velocity": 92,
      "chip": "ym2612"
    },
    {
      "channel": 0,
      "note": 54,
      "start": 26.2471,
      "duration": 0.1666,
      "velocity": 99,
      "chip": "ym2612"
    },
    {
      "channel": 1,
      "note": 64,
      "start": 26.2491,
      "duration": 0.1667,
      "velocity": 120,
      "chip": "ym2612"
    },
    {
      "channel": 2,
      "note": 71,
      "start": 26.2499,
      "duration": 0.1667,
      "velocity": 92,
      "chip": "ym2612"
    },
    {
      "channel": 4,
      "note": 66,
      "start": 26.2514,
      "duration": 0.1291,
      "velocity": 102,
      "chip": "ym2612"
    },
    {
      "channel": 0,
      "note": 54,
      "start": 26.4137,
      "duration": 0.1659,
      "velocity": 99,
      "chip": "ym2612"
    },
    {
      "channel": 1,
      "note": 76,
      "start": 26.4159,
      "duration": 0.1832,
      "velocity": 127,
      "chip": "ym2612"
    },
    {
      "channel": 2,
      "note": 70,
      "start": 26.4167,
      "duration": 0.1636,
      "velocity": 92,
      "chip": "ym2612"
    },
    {
      "channel": 4,
      "note": 66,
      "start": 26.4177,
      "duration": 0.1297,
      "velocity": 102,
      "chip": "ym2612"
    },
    {
      "channel": 5,
      "note": 71,
      "start": 26.515,
      "duration": 0.1663,
      "velocity": 92,
      "chip": "ym2612"
    },
    {
      "channel": 0,
      "note": 53,
      "start": 26.597,
      "duration": 0.1664,
      "velocity": 99,
      "chip": "ym2612"
    },
    {
      "channel": 1,
      "note": 37,
      "start": 26.599,
      "duration": 0.1664,
      "velocity": 127,
      "chip": "ym2612"
    },
    {
      "channel": 2,
      "note": 68,
      "start": 26.5999,
      "duration": 0.3331,
      "velocity": 92,
      "chip": "ym2612"
    },
    {
      "channel": 3,
      "note": 72,
      "start": 26.6008,
      "duration": 0.3627,
      "velocity": 102,
      "chip": "ym2612"
    },
    {
      "channel": 4,
      "note": 65,
      "start": 26.6017,
      "duration": 0.262,
      "velocity": 102,
      "chip": "ym2612"
    },
    {
      "channel": 5,
      "note": 70,
      "start": 26.6814,
      "duration": 0.1666,
      "velocity": 92,
      "chip": "ym2612"
    },
    {
      "channel": 0,
      "note": 53,
      "start": 26.7635,
      "duration": 0.1666,
      "velocity": 99,
      "chip": "ym2612"
    },
    {
      "channel": 1,
      "note": 64,
      "start": 26.7655,
      "duration": 0.1667,
      "velocity": 127,
      "chip": "ym2612"
    },
    {
      "channel": 5,
      "note": 68,
      "start": 26.848,
      "duration": 0.3327,
      "velocity": 92,
      "chip": "ym2612"
    },
    {
      "channel": 0,
      "note": 53,
      "start": 26.9302,
      "duration": 0.166,
      "velocity": 99,
      "chip": "ym2612"
    },
    {
      "channel": 1,
      "note": 37,
      "start": 26.9322,
      "duration": 0.1833,
      "velocity": 120,
      "chip": "ym2612"
    },
    {
      "channel": 2,
      "note": 70,
      "start": 26.9331,
      "duration": 0.4801,
      "velocity": 92,
      "chip": "ym2612"
    },
    {
      "channel": 4,
      "note": 65,
      "start": 26.9341,
      "duration": 0.1296,
      "velocity": 102,
      "chip": "ym2612"
    },
    {
      "channel": 0,
      "note": 53,
      "start": 27.1134,
      "duration": 0.1666,
      "velocity": 99,
      "chip": "ym2612"
    },
    {
      "channel": 1,
      "note": 76,
      "start": 27.1155,
      "duration": 0.1665,
      "velocity": 127,
      "chip": "ym2612"
    },
    {
      "channel": 3,
      "note": 72,
      "start": 27.1166,
      "duration": 0.2468,
      "velocity": 102,
      "chip": "ym2612"
    },
    {
      "channel": 4,
      "note": 65,
      "start": 27.1175,
      "duration": 0.2629,
      "velocity": 102,
      "chip": "ym2612"
    },
    {
      "channel": 5,
      "note": 70,
      "start": 27.1981,
      "duration": 0.4831,
      "velocity": 92,
      "chip": "ym2612"
    },
    {
      "channel": 0,
      "note": 53,
      "start": 27.28,
      "duration": 0.1667,
      "velocity": 99,
      "chip": "ym2612"
    },
    {
      "channel": 1,
      "note": 64,
      "start": 27.2821,
      "duration": 0.1667,
      "velocity": 127,
      "chip": "ym2612"
    },
    {
      "channel": 0,
      "note": 51,
      "start": 27.4468,
      "duration": 0.1665,
      "velocity": 99,
      "chip": "ym2612"
    },
    {
      "channel": 1,
      "note": 37,
      "start": 27.4489,
      "duration": 0.1665,
      "velocity": 127,
      "chip": "ym2612"
    },
    {
      "channel": 2,
      "note": 66,
      "start": 27.4497,
      "duration": 0.1141,
      "velocity": 92,
      "chip": "ym2612"
    },
    {
      "channel": 3,
      "note": 70,
      "start": 27.4506,
      "duration": 0.363,
      "velocity": 102,
      "chip": "ym2612"
    },
    {
      "channel": 4,
      "note": 63,
      "start": 27.4515,
      "duration": 0.1288,
      "velocity": 102,
      "chip": "ym2612"
    },
    {
      "channel": 2,
      "note": 68,
      "start": 27.5638,
      "duration": 0.1166,
      "velocity": 92,
      "chip": "ym2612"
    },
    {
      "channel": 0,
      "note": 51,
      "start": 27.6134,
      "duration": 0.1661,
      "velocity": 99,
      "chip": "ym2612"
    },
    {
      "channel": 1,
      "note": 64,
      "start": 27.6154,
      "duration": 0.1834,
      "velocity": 120,
      "chip": "ym2612"
    },
    {
      "channel": 4,
      "note": 63,
      "start": 27.6166,
      "duration": 0.1302,
      "velocity": 102,
      "chip": "ym2612"
    },
    {
      "channel": 2,
      "note": 70,
      "start": 27.6805,
      "duration": 0.1192,
      "velocity": 92,
      "chip": "ym2612"
    },
    {
      "channel": 5,
      "note": 66,
      "start": 27.7145,
      "duration": 0.1001,
      "velocity": 92,
      "chip": "ym2612"
    },
    {
      "channel": 0,
      "note": 51,
      "start": 27.7967,
      "duration": 0.1665,
      "velocity": 99,
      "chip": "ym2612"
    },
    {
      "channel": 1,
      "note": 76,
      "start": 27.7989,
      "duration": 0.1663,
      "velocity": 127,
      "chip": "ym2612"
    },
    {
      "channel": 2,
      "note": 68,
      "start": 27.7997,
      "duration": 0.0807,
      "velocity": 92,
      "chip": "ym2612"
    },
    {
      "channel": 4,
      "note": 63,
      "start": 27.8007,
      "duration": 0.1298,
      "velocity": 102,
      "chip": "ym2612"
    },
    {
      "channel": 5,
      "note": 68,
      "start": 27.8147,
      "duration": 0.1167,
      "velocity": 92,
      "chip": "ym2612"
    },
    {
      "channel": 2,
      "note": 70,
      "start": 27.8805,
      "duration": 0.0856,
      "velocity": 92,
      "chip": "ym2612"
    },
    {
      "channel": 5,
      "note": 70,
      "start": 27.9314,
      "duration": 0.1169,
      "velocity": 92,
      "chip": "ym2612"
    },
    {
      "channel": 0,
      "note": 51,
      "start": 27.9632,
      "duration": 0.1668,
      "velocity": 99,
      "chip": "ym2612"
    },
    {
      "channel": 1,
      "note": 64,
      "start": 27.9653,
      "duration": 0.1667,
      "velocity": 127,
      "chip": "ym2612"
    },
    {
      "channel": 2,
      "note": 71,
      "start": 27.9661,
      "duration": 0.081,
      "velocity": 92,
      "chip": "ym2612"
    },
    {
      "channel": 3,
      "note": 70,
      "start": 27.967,
      "duration": 0.2463,
      "velocity": 102,
      "chip": "ym2612"
    },
    {
      "channel": 4,
      "note": 63,
      "start": 27.9678,
      "duration": 0.1289,
      "velocity": 102,
      "chip": "ym2612"
    },
    {
      "channel": 2,
      "note": 70,
      "start": 28.0471,
      "duration": 0.0857,
      "velocity": 92,
      "chip": "ym2612"
    },
    {
      "channel": 5,
      "note": 68,
      "start": 28.0484,
      "duration": 0.0863,
      "velocity": 92,
      "chip": "ym2612"
    },
    {
      "channel": 0,
      "note": 51,
      "start": 28.13,
      "duration": 0.1658,
      "velocity": 99,
      "chip": "ym2612"
    },
    {
      "channel": 1,
      "note": 37,
      "start": 28.132,
      "duration": 0.1831,
      "velocity": 127,
      "chip": "ym2612"
    },
    {
      "channel": 2,
      "note": 68,
      "start": 28.1329,
      "duration": 0.1139,
      "velocity": 92,
      "chip": "ym2612"
    },
    {
      "channel": 4,
      "note": 63,
      "start": 28.1339,
      "duration": 0.1294,
      "velocity": 102,
      "chip": "ym2612"
    },
    {
      "channel": 5,
      "note": 70,
      "start": 28.1347,
      "duration": 0.0795,
      "velocity": 92,
      "chip": "ym2612"
    },
    {
      "channel": 5,
      "note": 71,
      "start": 28.2143,
      "duration": 0.0829,
      "velocity": 92,
      "chip": "ym2612"
    },
    {
      "channel": 2,
      "note": 70,
      "start": 28.2468,
      "duration": 0.1166,
      "velocity": 92,
      "chip": "ym2612"
    },
    {
      "channel": 0,
      "note": 51,
      "start": 28.3131,
      "duration": 0.1664,
      "velocity": 99,
      "chip": "ym2612"
    },
    {
      "channel": 1,
      "note": 37,
      "start": 28.3151,
      "duration": 0.1666,
      "velocity": 120,
      "chip": "ym2612"
    },
    {
      "channel": 3,
      "note": 70,
      "start": 28.3162,
      "duration": 0.2468,
      "velocity": 102,
      "chip": "ym2612"
    },
    {
      "channel": 4,
      "note": 63,
      "start": 28.317,
      "duration": 0.1294,
      "velocity": 102,
      "chip": "ym2612"
    },
    {
      "channel": 5,
      "note": 70,
      "start": 28.3178,
      "duration": 0.0795,
      "velocity": 92,
      "chip": "ym2612"
    },
    {
      "channel": 2,
      "note": 71,
      "start": 28.3634,
      "duration": 0.1191,
      "velocity": 92,
      "chip": "ym2612"
    },
    {
      "channel": 5,
      "note": 68,
      "start": 28.3974,
      "duration": 0.1166,
      "velocity": 92,
      "chip": "ym2612"
    },
    {
      "channel": 0,
      "note": 51,
      "start": 28.4795,
      "duration": 0.1664,
      "velocity": 99,
      "chip": "ym2612"
    },
    {
      "channel": 1,
      "note": 76,
      "start": 28.4817,
      "duration": 0.1663,
      "velocity": 127,
      "chip": "ym2612"
    },
    {
      "channel": 2,
      "note": 71,
      "start": 28.4825,
      "duration": 0.1141,
      "velocity": 92,
      "chip": "ym2612"
    },
    {
      "channel": 4,
      "note": 63,
      "start": 28.4836,
      "duration": 0.1298,
      "velocity": 102,
      "chip": "ym2612"
    },
    {
      "channel": 5,
      "note": 70,
      "start": 28.5141,
      "duration": 0.1001,
      "velocity": 92,
      "chip": "ym2612"
    },
    {
      "channel": 2,
      "note": 73,
      "start": 28.5967,
      "duration": 0.1164,
      "velocity": 92,
      "chip": "ym2612"
    },
    {
      "channel": 5,
      "note": 71,
      "start": 28.6143,
      "duration": 0.1161,
      "velocity": 92,
      "chip": "ym2612"
    },
    {
      "channel": 0,
      "note": 47,
      "start": 28.646,
      "duration": 0.1667,
      "velocity": 99,
      "chip": "ym2612"
    },
    {
      "channel": 1,
      "note": 37,
      "start": 28.648,
      "duration": 0.1667,
      "velocity": 127,
      "chip": "ym2612"
    },
    {
      "channel": 3,
      "note": 66,
      "start": 28.6491,
      "duration": 0.2469,
      "velocity": 102,
      "chip": "ym2612"
    },
    {
      "channel": 4,
      "note": 59,
      "start": 28.65,
      "duration": 0.2637,
      "velocity": 102,
      "chip": "ym2612"
    },
    {
      "channel": 2,
      "note": 75,
      "start": 28.7132,
      "duration": 0.1025,
      "velocity": 92,
      "chip": "ym2612"
    },
    {
      "channel": 5,
      "note": 71,
      "start": 28.7304,
      "duration": 0.1166,
      "velocity": 92,
      "chip": "ym2612"
    },
    {
      "channel": 0,
      "note": 47,
      "start": 28.8127,
      "duration": 0.1659,
      "velocity": 99,
      "chip": "ym2612"
    },
    {
      "channel": 1,
      "note": 37,
      "start": 28.8149,
      "duration": 0.1831,
      "velocity": 127,
      "chip": "ym2612"
    },
    {
      "channel": 2,
      "note": 73,
      "start": 28.8157,
      "duration": 0.0973,
      "velocity": 92,
      "chip": "ym2612"
    },
    {
      "channel": 5,
      "note": 73,
      "start": 28.847,
      "duration": 0.1168,
      "velocity": 92,
      "chip": "ym2612"
    },
    {
      "channel": 2,
      "note": 71,
      "start": 28.913,
      "duration": 0.0858,
      "velocity": 92,
      "chip": "ym2612"
    },
    {
      "channel": 5,
      "note": 75,
      "start": 28.9639,
      "duration": 0.1172,
      "velocity": 92,
      "chip": "ym2612"
    },
    {
      "channel": 0,
      "note": 47,
      "start": 28.9959,
      "duration": 0.1667,
      "velocity": 99,
      "chip": "ym2612"
    },
    {
      "channel": 1,
      "note": 64,
      "start": 28.998,
      "duration": 0.1667,
      "velocity": 120,
      "chip": "ym2612"
    },
    {
      "channel": 2,
      "note": 73,
      "start": 28.9988,
      "duration": 0.081,
      "velocity": 92,
      "chip": "ym2612"
    },
    {
      "channel": 4,
      "note": 59,
      "start": 29.0002,
      "duration": 0.1291,
      "velocity": 102,
      "chip": "ym2612"
    },
    {
      "channel": 2,
      "note": 75,
      "start": 29.0798,
      "duration": 0.0857,
      "velocity": 92,
      "chip": "ym2612"
    },
    {
      "channel": 5,
      "note": 73,
      "start": 29.0812,
      "duration": 0.0862,
      "velocity": 92,
      "chip": "ym2612"
    },
    {
      "channel": 0,
      "note": 47,
      "start": 29.1627,
      "duration": 0.1666,
      "velocity": 99,
      "chip": "ym2612"
    },
    {
      "channel": 1,
      "note": 76,
      "start": 29.1648,
      "duration": 0.1665,
      "velocity": 127,
      "chip": "ym2612"
    },
    {
      "channel": 2,
      "note": 73,
      "start": 29.1656,
      "duration": 0.0808,
      "velocity": 92,
      "chip": "ym2612"
    },
    {
      "channel": 4,
      "note": 59,
      "start": 29.1666,
      "duration": 0.1297,
      "velocity": 102,
      "chip": "ym2612"
    },
    {
      "channel": 5,
      "note": 71,
      "start": 29.1675,
      "duration": 0.0803,
      "velocity": 92,
      "chip": "ym2612"
    },
    {
      "channel": 2,
      "note": 75,
      "start": 29.2465,
      "duration": 0.0856,
      "velocity": 92,
      "chip": "ym2612"
    },
    {
      "channel": 5,
      "note": 73,
      "start": 29.2479,
      "duration": 0.0868,
      "velocity": 92,
      "chip": "ym2612"
    },
    {
      "channel": 0,
      "note": 47,
      "start": 29.3293,
      "duration": 0.1659,
      "velocity": 99,
      "chip": "ym2612"
    },
    {
      "channel": 1,
      "note": 37,
      "start": 29.3313,
      "duration": 0.1832,
      "velocity": 127,
      "chip": "ym2612"
    },
    {
      "channel": 2,
      "note": 77,
      "start": 29.3321,
      "duration": 0.0808,
      "velocity": 92,
      "chip": "ym2612"
    },
    {
      "channel": 3,
      "note": 66,
      "start": 29.333,
      "duration": 0.246,
      "velocity": 102,
      "chip": "ym2612"
    },
    {
      "channel": 4,
      "note": 59,
      "start": 29.3338,
      "duration": 0.1288,
      "velocity": 102,
      "chip": "ym2612"
    },
    {
      "channel": 5,
      "note": 75,
      "start": 29.3347,
      "duration": 0.0795,
      "velocity": 92,
      "chip": "ym2612"
    },
    {
      "channel": 2,
      "note": 75,
      "start": 29.4129,
      "duration": 0.1024,
      "velocity": 92,
      "chip": "ym2612"
    },
    {
      "channel": 5,
      "note": 73,
      "start": 29.4142,
      "duration": 0.1031,
      "velocity": 92,
      "chip": "ym2612"
    },
    {
      "channel": 0,
      "note": 47,
      "start": 29.5125,
      "duration": 0.1664,
      "velocity": 99,
      "chip": "ym2612"
    },
    {
      "channel": 1,
      "note": 64,
      "start": 29.5146,
      "duration": 0.1664,
      "velocity": 127,
      "chip": "ym2612"
    },
    {
      "channel": 2,
      "note": 73,
      "start": 29.5154,
      "duration": 0.0972,
      "velocity": 92,
      "chip": "ym2612"
    },
    {
      "channel": 4,
      "note": 59,
      "start": 29.5165,
      "duration": 0.1294,
      "velocity": 102,
      "chip": "ym2612"
    },
    {
      "channel": 5,
      "note": 75,
      "start": 29.5173,
      "duration": 0.0795,
      "velocity": 92,
      "chip": "ym2612"
    },
    {
      "channel": 5,
      "note": 77,
      "start": 29.5968,
      "duration": 0.0869,
      "velocity": 92,
      "chip": "ym2612"
    },
    {
      "channel": 2,
      "note": 75,
      "start": 29.6126,
      "duration": 0.1166,
      "velocity": 92,
      "chip": "ym2612"
    },
    {
      "channel": 0,
      "note": 47,
      "start": 29.679,
      "duration": 0.1665,
      "velocity": 99,
      "chip": "ym2612"
    },
    {
      "channel": 1,
      "note": 37,
      "start": 29.681,
      "duration": 0.1666,
      "velocity": 120,
      "chip": "ym2612"
    },
    {
      "channel": 3,
      "note": 66,
      "start": 29.682,
      "duration": 0.2468,
      "velocity": 102,
      "chip": "ym2612"
    },
    {
      "channel": 4,
      "note": 59,
      "start": 29.6829,
      "duration": 0.1294,
      "velocity": 102,
      "chip": "ym2612"
    },
    {
      "channel": 5,
      "note": 75,
      "start": 29.6837,
      "duration": 0.0795,
      "velocity": 92,
      "chip": "ym2612"
    },
    {
      "channel": 2,
      "note": 77,
      "start": 29.7293,
      "duration": 0.1192,
      "velocity": 92,
      "chip": "ym2612"
    },
    {
      "channel": 5,
      "note": 73,
      "start": 29.7633,
      "duration": 0.1166,
      "velocity": 92,
      "chip": "ym2612"
    },
    {
      "channel": 0,
      "note": 47,
      "start": 29.8455,
      "duration": 0.1658,
      "velocity": 99,
      "chip": "ym2612"
    },
    {
      "channel": 1,
      "note": 76,
      "start": 29.8477,
      "duration": 0.183,
      "velocity": 127,
      "chip": "ym2612"
    },
    {
      "channel": 2,
      "note": 78,
      "start": 29.8485,
      "duration": 0.1634,
      "velocity": 92,
      "chip": "ym2612"
    },
    {
      "channel": 4,
      "note": 59,
      "start": 29.8496,
      "duration": 0.1296,
      "velocity": 102,
      "chip": "ym2612"
    },
    {
      "channel": 5,
      "note": 75,
      "start": 29.88,
      "duration": 0.1168,
      "velocity": 92,
      "chip": "ym2612"
    },
    {
      "channel": 5,
      "note": 77,
      "start": 29.9968,
      "duration": 0.1163,
      "velocity": 92,
      "chip": "ym2612"
    },
    {
      "channel": 0,
      "note": 49,
      "start": 30.0287,
      "duration": 0.1664,
      "velocity": 99,
      "chip": "ym2612"
    },
    {
      "channel": 1,
      "note": 64,
      "start": 30.0307,
      "duration": 0.1664,
      "velocity": 127,
      "chip": "ym2612"
    },
    {
      "channel": 2,
      "note": 80,
      "start": 30.0316,
      "duration": 0.3332,
      "velocity": 92,
      "chip": "ym2612"
    },
    {
      "channel": 3,
      "note": 68,
      "start": 30.0324,
      "duration": 0.2462,
      "velocity": 102,
      "chip": "ym2612"
    },
    {
      "channel": 4,
      "note": 61,
      "start": 30.0333,
      "duration": 0.2622,
      "velocity": 102,
      "chip": "ym2612"
    },
    {
      "channel": 5,
      "note": 78,
      "start": 30.1131,
      "duration": 0.1667,
      "velocity": 92,
      "chip": "ym2612"
    },
    {
      "channel": 0,
      "note": 49,
      "start": 30.1952,
      "duration": 0.1667,
      "velocity": 99,
      "chip": "ym2612"
    },
    {
      "channel": 1,
      "note": 37,
      "start": 30.1972,
      "duration": 0.1667,
      "velocity": 127,
      "chip": "ym2612"
    },
    {
      "channel": 5,
      "note": 80,
      "start": 30.2798,
      "duration": 0.3327,
      "velocity": 92,
      "chip": "ym2612"
    },
    {
      "channel": 0,
      "note": 49,
      "start": 30.3619,
      "duration": 0.1665,
      "velocity": 99,
      "chip": "ym2612"
    },
    {
      "channel": 1,
      "note": 64,
      "start": 30.3639,
      "duration": 0.1666,
      "velocity": 120,
      "chip": "ym2612"
    },
    {
      "channel": 2,
      "note": 81,
      "start": 30.3648,
      "duration": 0.0308,
      "velocity": 92,
      "chip": "ym2612"
    },
    {
      "channel": 4,
      "note": 61,
      "start": 30.3662,
      "duration": 0.1291,
      "velocity": 102,
      "chip": "ym2612"
    },
    {
      "channel": 2,
      "note": 82,
      "start": 30.3957,
      "duration": 0.2993,
      "velocity": 92,
      "chip": "ym2612"
    },
    {
      "channel": 0,
      "note": 49,
      "start": 30.5285,
      "duration": 0.166,
      "velocity": 99,
      "chip": "ym2612"
    },
    {
      "channel": 1,
      "note": 76,
      "start": 30.5305,
      "duration": 0.1832,
      "velocity": 127,
      "chip": "ym2612"
    },
    {
      "channel": 4,
      "note": 61,
      "start": 30.5318,
      "duration": 0.1305,
      "velocity": 102,
      "chip": "ym2612"
    },
    {
      "channel": 5,
      "note": 81,
      "start": 30.6299,
      "duration": 0.0165,
      "velocity": 92,
      "chip": "ym2612"
    },
    {
      "channel": 5,
      "note": 82,
      "start": 30.6465,
      "duration": 0.299,
      "velocity": 92,
      "chip": "ym2612"
    },
    {
      "channel": 0,
      "note": 49,
      "start": 30.7118,
      "duration": 0.1665,
      "velocity": 99,
      "chip": "ym2612"
    },
    {
      "channel": 1,
      "note": 64,
      "start": 30.7139,
      "duration": 0.1665,
      "velocity": 127,
      "chip": "ym2612"
    },
    {
      "channel": 2,
      "note": 80,
      "start": 30.7147,
      "duration": 0.647,
      "velocity": 92,
      "chip": "ym2612"
    },
    {
      "channel": 3,
      "note": 68,
      "start": 30.7156,
      "duration": 0.2463,
      "velocity": 102,
      "chip": "ym2612"
    },
    {
      "channel": 4,
      "note": 61,
      "start": 30.7164,
      "duration": 0.1289,
      "velocity": 102,
      "chip": "ym2612"
    },
    {
      "channel": 0,
      "note": 49,
      "start": 30.8784,
      "duration": 0.1666,
      "velocity": 99,
      "chip": "ym2612"
    },
    {
      "channel": 1,
      "note": 37,
      "start": 30.8804,
      "duration": 0.1666,
      "velocity": 127,
      "chip": "ym2612"
    },
    {
      "channel": 4,
      "note": 61,
      "start": 30.8816,
      "duration": 0.1305,
      "velocity": 102,
      "chip": "ym2612"
    },
    {
      "channel": 5,
      "note": 80,
      "start": 30.963,
      "duration": 0.6491,
      "velocity": 92,
      "chip": "ym2612"
    },
    {
      "channel": 0,
      "note": 49,
      "start": 31.045,
      "duration": 0.1661,
      "velocity": 99,
      "chip": "ym2612"
    },
    {
      "channel": 1,
      "note": 37,
      "start": 31.0471,
      "duration": 0.1833,
      "velocity": 120,
      "chip": "ym2612"
    },
    {
      "channel": 3,
      "note": 68,
      "start": 31.0481,
      "duration": 0.2471,
      "velocity": 102,
      "chip": "ym2612"
    },
    {
      "channel": 4,
      "note": 61,
      "start": 31.0489,
      "duration": 0.1297,
      "velocity": 102,
      "chip": "ym2612"
    },
    {
      "channel": 0,
      "note": 49,
      "start": 31.2284,
      "duration": 0.1667,
      "velocity": 99,
      "chip": "ym2612"
    },
    {
      "channel": 1,
      "note": 76,
      "start": 31.2305,
      "duration": 0.1667,
      "velocity": 127,
      "chip": "ym2612"
    },
    {
      "channel": 4,
      "note": 61,
      "start": 31.2317,
      "duration": 0.1307,
      "velocity": 102,
      "chip": "ym2612"
    },
    {
      "channel": 0,
      "note": 54,
      "start": 31.3951,
      "duration": 0.1665,
      "velocity": 99,
      "chip": "ym2612"
    },
    {
      "channel": 1,
      "note": 37,
      "start": 31.3972,
      "duration": 0.1665,
      "velocity": 127,
      "chip": "ym2612"
    },
    {
      "channel": 2,
      "note": 77,
      "start": 31.3981,
      "duration": 0.0308,
      "velocity": 92,
      "chip": "ym2612"
    },
    {
      "channel": 3,
      "note": 73,
      "start": 31.3989,
      "duration": 0.2463,
      "velocity": 102,
      "chip": "ym2612"
    },
    {
      "channel": 4,
      "note": 66,
      "start": 31.3998,
      "duration": 0.2623,
      "velocity": 102,
      "chip": "ym2612"
    },
    {
      "channel": 2,
      "note": 78,
      "start": 31.4289,
      "duration": 0.3024,
      "velocity": 92,
      "chip": "ym2612"
    },
    {
      "channel": 0,
      "note": 54,
      "start": 31.5617,
      "duration": 0.1667,
      "velocity": 99,
      "chip": "ym2612"
    },
    {
      "channel": 1,
      "note": 37,
      "start": 31.5637,
      "duration": 0.1667,
      "velocity": 127,
      "chip": "ym2612"
    },
    {
      "channel": 5,
      "note": 77,
      "start": 31.6463,
      "duration": 0.0334,
      "velocity": 92,
      "chip": "ym2612"
    },
    {
      "channel": 5,
      "note": 78,
      "start": 31.6798,
      "duration": 0.2992,
      "velocity": 92,
      "chip": "ym2612"
    },
    {
      "channel": 0,
      "note": 54,
      "start": 31.7285,
      "duration": 0.166,
      "velocity": 99,
      "chip": "ym2612"
    },
    {
      "channel": 1,
      "note": 64,
      "start": 31.7305,
      "duration": 0.1833,
      "velocity": 120,
      "chip": "ym2612"
    },
    {
      "channel": 2,
      "note": 77,
      "start": 31.7313,
      "duration": 0.1637,
      "velocity": 92,
      "chip": "ym2612"
    },
    {
      "channel": 4,
      "note": 66,
      "start": 31.7328,
      "duration": 0.1291,
      "velocity": 102,
      "chip": "ym2612"
    },
    {
      "channel": 0,
      "note": 54,
      "start": 31.9118,
      "duration": 0.1666,
      "velocity": 99,
      "chip": "ym2612"
    },
    {
      "channel": 1,
      "note": 76,
      "start": 31.9139,
      "duration": 0.1665,
      "velocity": 127,
      "chip": "ym2612"
    },
    {
      "channel": 2,
      "note": 75,
      "start": 31.9147,
      "duration": 0.1666,
      "velocity": 92,
      "chip": "ym2612"
    },
    {
      "channel": 4,
      "note": 66,
      "start": 31.9158,
      "duration": 0.1298,
      "velocity": 102,
      "chip": "ym2612"
    },
    {
      "channel": 5,
      "note": 77,
      "start": 31.9964,
      "duration": 0.1663,
      "velocity": 92,
      "chip": "ym2612"
    },
    {
      "channel": 0,
      "note": 53,
      "start": 32.0785,
      "duration": 0.1665,
      "velocity": 99,
      "chip": "ym2612"
    },
    {
      "channel": 1,
      "note": 37,
      "start": 32.0805,
      "duration": 0.1666,
      "velocity": 120,
      "chip": "ym2612"
    },
    {
      "channel": 2,
      "note": 76,
      "start": 32.0814,
      "duration": 0.0308,
      "velocity": 92,
      "chip": "ym2612"
    },
    {
      "channel": 3,
      "note": 72,
      "start": 32.0823,
      "duration": 0.3629,
      "velocity": 102,
      "chip": "ym2612"
    },
    {
      "channel": 4,
      "note": 65,
      "start": 32.0831,
      "duration": 0.2623,
      "velocity": 102,
      "chip": "ym2612"
    },
    {
      "channel": 2,
      "note": 77,
      "start": 32.1123,
      "duration": 0.7828,
      "velocity": 92,
      "chip": "ym2612"
    },
    {
      "channel": 5,
      "note": 75,
      "start": 32.1628,
      "duration": 0.1668,
      "velocity": 92,
      "chip": "ym2612"
    },
    {
      "channel": 0,
      "note": 53,
      "start": 32.245,
      "duration": 0.1661,
      "velocity": 99,
      "chip": "ym2612"
    },
    {
      "channel": 1,
      "note": 76,
      "start": 32.2471,
      "duration": 0.1833,
      "velocity": 120,
      "chip": "ym2612"
    },
    {
      "channel": 5,
      "note": 76,
      "start": 32.3297,
      "duration": 0.0334,
      "velocity": 92,
      "chip": "ym2612"
    },
    {
      "channel": 5,
      "note": 77,
      "start": 32.3632,
      "duration": 0.7823,
      "velocity": 92,
      "chip": "ym2612"
    },
    {
      "channel": 0,
      "note": 53,
      "start": 32.4284,
      "duration": 0.1666,
      "velocity": 99,
      "chip": "ym2612"
    },
    {
      "channel": 1,
      "note": 76,
      "start": 32.4305,
      "duration": 0.1666,
      "velocity": 120,
      "chip": "ym2612"
    },
    {
      "channel": 4,
      "note": 65,
      "start": 32.4317,
      "duration": 0.1305,
      "velocity": 102,
      "chip": "ym2612"
    },
    {
      "channel": 0,
      "note": 53,
      "start": 32.595,
      "duration": 0.1666,
      "velocity": 99,
      "chip": "ym2612"
    },
    {
      "channel": 1,
      "note": 76,
      "start": 32.5971,
      "duration": 0.1666,
      "velocity": 120,
      "chip": "ym2612"
    },
    {
      "channel": 3,
      "note": 72,
      "start": 32.5982,
      "duration": 0.247,
      "velocity": 102,
      "chip": "ym2612"
    },
    {
      "channel": 4,
      "note": 65,
      "start": 32.599,
      "duration": 0.2632,
      "velocity": 102,
      "chip": "ym2612"
    },
    {
      "channel": 0,
      "note": 53,
      "start": 32.7617,
      "duration": 0.167,
      "velocity": 99,
      "chip": "ym2612"
    },
    {
      "channel": 1,
      "note": 76,
      "start": 32.7638,
      "duration": 0.1672,
      "velocity": 127,
      "chip": "ym2612"
    },
    {
      "channel": 0,
      "note": 52,
      "start": 32.9288,
      "duration": 0.1657,
      "velocity": 99,
      "chip": "ym2612"
    },
    {
      "channel": 1,
      "note": 37,
      "start": 32.931,
      "duration": 0.1827,
      "velocity": 127,
      "chip": "ym2612"
    },
    {
      "channel": 2,
      "note": 58,
      "start": 32.932,
      "duration": 0.0302,
      "velocity": 92,
      "chip": "ym2612"
    },
    {
      "channel": 3,
      "note": 71,
      "start": 32.9329,
      "duration": 0.2455,
      "velocity": 102,
      "chip": "ym2612"
    },
    {
      "channel": 4,
      "note": 64,
      "start": 32.9338,
      "duration": 0.1281,
      "velocity": 102,
      "chip": "ym2612"
    },
    {
      "channel": 2,
      "note": 59,
      "start": 32.9623,
      "duration": 0.3174,
      "velocity": 92,
      "chip": "ym2612"
    },
    {
      "channel": 0,
      "note": 52,
      "start": 33.1117,
      "duration": 0.1679,
      "velocity": 99,
      "chip": "ym2612"
    },
    {
      "channel": 1,
      "note": 64,
      "start": 33.1138,
      "duration": 0.1659,
      "velocity": 127,
      "chip": "ym2612"
    },
    {
      "channel": 4,
      "note": 64,
      "start": 33.115,
      "duration": 0.1304,
      "velocity": 102,
      "chip": "ym2612"
    },
    {
      "channel": 5,
      "note": 58,
      "start": 33.1967,
      "duration": 0.033,
      "velocity": 92,
      "chip": "ym2612"
    },
    {
      "channel": 5,
      "note": 59,
      "start": 33.2297,
      "duration": 0.05,
      "velocity": 92,
      "chip": "ym2612"
    }
  ]
}