{
  "track_name": "07 - Stage 1 Boss",
  "duration_sec": 84.2,
  "sample_rate": 44100,
  "note_count": 1523,
  "unique_pitches": 28,
  "pitch_range": 41,
  "avg_note_duration": 0.1208,
  "reconstruction_stats": {
    "notes_reconstructed": 1523,
    "keyon_events": 1523,
    "keyoff_events": 1511,
    "orphan_keyons": 2,
    "unique_pitches": 28,
    "pitch_range": 41,
    "avg_duration_sec": 0.1208
  },
  "metadata": {
    "source": "M\\Metal Head\\07 - Stage 1 Boss.vgz"
  },
  "notes": [
    {
      "channel": 0,
      "note": 65,
      "start": 0.0,
      "duration": 0.0223,
      "velocity": 107,
      "chip": "ym2612"
    },
    {
      "channel": 4,
      "note": 48,
      "start": 0.0013,
      "duration": 0.0217,
      "velocity": 91,
      "chip": "ym2612"
    },
    {
      "channel": 1,
      "note": 60,
      "start": 0.0058,
      "duration": 0.0211,
      "velocity": 112,
      "chip": "ym2612"
    },
    {
      "channel": 3,
      "note": 48,
      "start": 0.0071,
      "duration": 0.0201,
      "velocity": 113,
      "chip": "ym2612"
    },
    {
      "channel": 0,
      "note": 62,
      "start": 0.0225,
      "duration": 0.0171,
      "velocity": 107,
      "chip": "ym2612"
    },
    {
      "channel": 4,
      "note": 50,
      "start": 0.0231,
      "duration": 0.0168,
      "velocity": 91,
      "chip": "ym2612"
    },
    {
      "channel": 1,
      "note": 57,
      "start": 0.0271,
      "duration": 0.0165,
      "velocity": 112,
      "chip": "ym2612"
    },
    {
      "channel": 3,
      "note": 50,
      "start": 0.0275,
      "duration": 0.0163,
      "velocity": 113,
      "chip": "ym2612"
    },
    {
      "channel": 0,
      "note": 62,
      "start": 0.0595,
      "duration": 0.0157,
      "velocity": 107,
      "chip": "ym2612"
    },
    {
      "channel": 4,
      "note": 50,
      "start": 0.0599,
      "duration": 0.0157,
      "velocity": 91,
      "chip": "ym2612"
    },
    {
      "channel": 1,
      "note": 57,
      "start": 0.0631,
      "duration": 0.0155,
      "velocity": 112,
      "chip": "ym2612"
    },
    {
      "channel": 3,
      "note": 50,
      "start": 0.0634,
      "duration": 0.0152,
      "velocity": 113,
      "chip": "ym2612"
    },
    {
      "channel": 0,
      "note": 62,
      "start": 0.0983,
      "duration": 0.0163,
      "velocity": 107,
      "chip": "ym2612"
    },
    {
      "channel": 4,
      "note": 50,
      "start": 0.0987,
      "duration": 0.0162,
      "velocity": 91,
      "chip": "ym2612"
    },
    {
      "channel": 1,
      "note": 57,
      "start": 0.1006,
      "duration": 0.016,
      "velocity": 112,
      "chip": "ym2612"
    },
    {
      "channel": 3,
      "note": 50,
      "start": 0.101,
      "duration": 0.0158,
      "velocity": 113,
      "chip": "ym2612"
    },
    {
      "channel": 0,
      "note": 62,
      "start": 0.1342,
      "duration": 0.0199,
      "velocity": 107,
      "chip": "ym2612"
    },
    {
      "channel": 4,
      "note": 50,
      "start": 0.1346,
      "duration": 0.0201,
      "velocity": 91,
      "chip": "ym2612"
    },
    {
      "channel": 1,
      "note": 57,
      "start": 0.1381,
      "duration": 0.0201,
      "velocity": 112,
      "chip": "ym2612"
    },
    {
      "channel": 3,
      "note": 50,
      "start": 0.1385,
      "duration": 0.0202,
      "velocity": 113,
      "chip": "ym2612"
    },
    {
      "channel": 0,
      "note": 60,
      "start": 0.1543,
      "duration": 0.02,
      "velocity": 107,
      "chip": "ym2612"
    },
    {
      "channel": 4,
      "note": 48,
      "start": 0.1548,
      "duration": 0.0202,
      "velocity": 91,
      "chip": "ym2612"
    },
    {
      "channel": 1,
      "note": 55,
      "start": 0.1584,
      "duration": 0.0203,
      "velocity": 112,
      "chip": "ym2612"
    },
    {
      "channel": 3,
      "note": 48,
      "start": 0.1588,
      "duration": 0.0203,
      "velocity": 113,
      "chip": "ym2612"
    },
    {
      "channel": 0,
      "note": 62,
      "start": 0.1746,
      "duration": 0.0151,
      "velocity": 107,
      "chip": "ym2612"
    },
    {
      "channel": 4,
      "note": 50,
      "start": 0.1752,
      "duration": 0.0147,
      "velocity": 91,
      "chip": "ym2612"
    },
    {
      "channel": 1,
      "note": 57,
      "start": 0.1789,
      "duration": 0.0148,
      "velocity": 112,
      "chip": "ym2612"
    },
    {
      "channel": 3,
      "note": 50,
      "start": 0.1792,
      "duration": 0.0146,
      "velocity": 113,
      "chip": "ym2612"
    },
    {
      "channel": 0,
      "note": 62,
      "start": 0.2094,
      "duration": 0.0154,
      "velocity": 107,
      "chip": "ym2612"
    },
    {
      "channel": 4,
      "note": 50,
      "start": 0.2097,
      "duration": 0.0154,
      "velocity": 91,
      "chip": "ym2612"
    },
    {
      "channel": 1,
      "note": 57,
      "start": 0.213,
      "duration": 0.0153,
      "velocity": 112,
      "chip": "ym2612"
    },
    {
      "channel": 3,
      "note": 50,
      "start": 0.2134,
      "duration": 0.0149,
      "velocity": 113,
      "chip": "ym2612"
    },
    {
      "channel": 0,
      "note": 62,
      "start": 0.2464,
      "duration": 0.0157,
      "velocity": 107,
      "chip": "ym2612"
    },
    {
      "channel": 4,
      "note": 50,
      "start": 0.2469,
      "duration": 0.0156,
      "velocity": 91,
      "chip": "ym2612"
    },
    {
      "channel": 1,
      "note": 57,
      "start": 0.2501,
      "duration": 0.0157,
      "velocity": 112,
      "chip": "ym2612"
    },
    {
      "channel": 3,
      "note": 50,
      "start": 0.2503,
      "duration": 0.0156,
      "velocity": 113,
      "chip": "ym2612"
    },
    {
      "channel": 0,
      "note": 62,
      "start": 0.2816,
      "duration": 0.0203,
      "velocity": 107,
      "chip": "ym2612"
    },
    {
      "channel": 4,
      "note": 50,
      "start": 0.282,
      "duration": 0.0206,
      "velocity": 91,
      "chip": "ym2612"
    },
    {
      "channel": 1,
      "note": 57,
      "start": 0.2854,
      "duration": 0.0208,
      "velocity": 112,
      "chip": "ym2612"
    },
    {
      "channel": 3,
      "note": 50,
      "start": 0.2857,
      "duration": 0.0209,
      "velocity": 113,
      "chip": "ym2612"
    },
    {
      "channel": 0,
      "note": 65,
      "start": 0.3021,
      "duration": 0.0202,
      "velocity": 107,
      "chip": "ym2612"
    },
    {
      "channel": 4,
      "note": 48,
      "start": 0.3027,
      "duration": 0.0203,
      "velocity": 91,
      "chip": "ym2612"
    },
    {
      "channel": 1,
      "note": 60,
      "start": 0.3064,
      "duration": 0.0206,
      "velocity": 112,
      "chip": "ym2612"
    },
    {
      "channel": 3,
      "note": 48,
      "start": 0.3068,
      "duration": 0.0205,
      "velocity": 113,
      "chip": "ym2612"
    },
    {
      "channel": 0,
      "note": 62,
      "start": 0.3226,
      "duration": 0.0207,
      "velocity": 107,
      "chip": "ym2612"
    },
    {
      "channel": 4,
      "note": 50,
      "start": 0.3233,
      "duration": 0.0207,
      "velocity": 91,
      "chip": "ym2612"
    },
    {
      "channel": 1,
      "note": 57,
      "start": 0.3272,
      "duration": 0.0203,
      "velocity": 112,
      "chip": "ym2612"
    },
    {
      "channel": 3,
      "note": 50,
      "start": 0.3276,
      "duration": 0.0203,
      "velocity": 113,
      "chip": "ym2612"
    },
    {
      "channel": 0,
      "note": 60,
      "start": 0.3436,
      "duration": 0.0213,
      "velocity": 107,
      "chip": "ym2612"
    },
    {
      "channel": 4,
      "note": 48,
      "start": 0.3442,
      "duration": 0.0213,
      "velocity": 91,
      "chip": "ym2612"
    },
    {
      "channel": 1,
      "note": 55,
      "start": 0.3478,
      "duration": 0.022,
      "velocity": 112,
      "chip": "ym2612"
    },
    {
      "channel": 3,
      "note": 48,
      "start": 0.3479,
      "duration": 0.0222,
      "velocity": 113,
      "chip": "ym2612"
    },
    {
      "channel": 0,
      "note": 62,
      "start": 0.3651,
      "duration": 0.0201,
      "velocity": 107,
      "chip": "ym2612"
    },
    {
      "channel": 4,
      "note": 50,
      "start": 0.3658,
      "duration": 0.0199,
      "velocity": 91,
      "chip": "ym2612"
    },
    {
      "channel": 1,
      "note": 57,
      "start": 0.3701,
      "duration": 0.0188,
      "velocity": 112,
      "chip": "ym2612"
    },
    {
      "channel": 3,
      "note": 50,
      "start": 0.3705,
      "duration": 0.0185,
      "velocity": 113,
      "chip": "ym2612"
    },
    {
      "channel": 0,
      "note": 62,
      "start": 0.404,
      "duration": 0.0195,
      "velocity": 107,
      "chip": "ym2612"
    },
    {
      "channel": 4,
      "note": 50,
      "start": 0.4044,
      "duration": 0.0415,
      "velocity": 91,
      "chip": "ym2612"
    },
    {
      "channel": 1,
      "note": 57,
      "start": 0.4074,
      "duration": 0.02,
      "velocity": 112,
      "chip": "ym2612"
    },
    {
      "channel": 3,
      "note": 50,
      "start": 0.4077,
      "duration": 0.02,
      "velocity": 113,
      "chip": "ym2612"
    },
    {
      "channel": 0,
      "note": 60,
      "start": 0.4237,
      "duration": 0.0215,
      "velocity": 107,
      "chip": "ym2612"
    },
    {
      "channel": 1,
      "note": 55,
      "start": 0.4276,
      "duration": 0.0207,
      "velocity": 112,
      "chip": "ym2612"
    },
    {
      "channel": 3,
      "note": 48,
      "start": 0.4279,
      "duration": 0.0208,
      "velocity": 113,
      "chip": "ym2612"
    },
    {
      "channel": 0,
      "note": 62,
      "start": 0.4454,
      "duration": 0.0205,
      "velocity": 107,
      "chip": "ym2612"
    },
    {
      "channel": 4,
      "note": 50,
      "start": 0.4461,
      "duration": 0.0204,
      "velocity": 91,
      "chip": "ym2612"
    },
    {
      "channel": 1,
      "note": 57,
      "start": 0.4486,
      "duration": 0.0195,
      "velocity": 112,
      "chip": "ym2612"
    },
    {
      "channel": 3,
      "note": 50,
      "start": 0.4488,
      "duration": 0.0195,
      "velocity": 113,
      "chip": "ym2612"
    },
    {
      "channel": 0,
      "note": 65,
      "start": 0.4662,
      "duration": 0.02,
      "velocity": 107,
      "chip": "ym2612"
    },
    {
      "channel": 4,
      "note": 53,
      "start": 0.4668,
      "duration": 0.02,
      "velocity": 91,
      "chip": "ym2612"
    },
    {
      "channel": 1,
      "note": 60,
      "start": 0.4683,
      "duration": 0.0203,
      "velocity": 112,
      "chip": "ym2612"
    },
    {
      "channel": 3,
      "note": 48,
      "start": 0.4685,
      "duration": 0.0202,
      "velocity": 113,
      "chip": "ym2612"
    },
    {
      "channel": 0,
      "note": 62,
      "start": 0.4863,
      "duration": 0.0194,
      "velocity": 107,
      "chip": "ym2612"
    },
    {
      "channel": 4,
      "note": 50,
      "start": 0.4871,
      "duration": 0.0192,
      "velocity": 91,
      "chip": "ym2612"
    },
    {
      "channel": 1,
      "note": 57,
      "start": 0.4888,
      "duration": 0.0194,
      "velocity": 112,
      "chip": "ym2612"
    },
    {
      "channel": 3,
      "note": 50,
      "start": 0.489,
      "duration": 0.0194,
      "velocity": 113,
      "chip": "ym2612"
    },
    {
      "channel": 0,
      "note": 67,
      "start": 0.506,
      "duration": 0.0092,
      "velocity": 107,
      "chip": "ym2612"
    },
    {
      "channel": 4,
      "note": 55,
      "start": 0.5065,
      "duration": 0.0093,
      "velocity": 91,
      "chip": "ym2612"
    },
    {
      "channel": 1,
      "note": 62,
      "start": 0.5083,
      "duration": 0.0112,
      "velocity": 112,
      "chip": "ym2612"
    },
    {
      "channel": 3,
      "note": 55,
      "start": 0.5086,
      "duration": 0.0112,
      "velocity": 113,
      "chip": "ym2612"
    },
    {
      "channel": 0,
      "note": 68,
      "start": 0.5155,
      "duration": 0.0123,
      "velocity": 107,
      "chip": "ym2612"
    },
    {
      "channel": 4,
      "note": 56,
      "start": 0.5161,
      "duration": 0.0124,
      "velocity": 91,
      "chip": "ym2612"
    },
    {
      "channel": 1,
      "note": 75,
      "start": 0.5198,
      "duration": 0.0127,
      "velocity": 112,
      "chip": "ym2612"
    },
    {
      "channel": 3,
      "note": 56,
      "start": 0.52,
      "duration": 0.013,
      "velocity": 113,
      "chip": "ym2612"
    },
    {
      "channel": 0,
      "note": 67,
      "start": 0.528,
      "duration": 0.1032,
      "velocity": 107,
      "chip": "ym2612"
    },
    {
      "channel": 4,
      "note": 55,
      "start": 0.5287,
      "duration": 0.103,
      "velocity": 91,
      "chip": "ym2612"
    },
    {
      "channel": 1,
      "note": 62,
      "start": 0.5327,
      "duration": 0.1028,
      "velocity": 112,
      "chip": "ym2612"
    },
    {
      "channel": 3,
      "note": 55,
      "start": 0.5332,
      "duration": 0.1029,
      "velocity": 113,
      "chip": "ym2612"
    },
    {
      "channel": 0,
      "note": 65,
      "start": 0.6315,
      "duration": 0.0193,
      "velocity": 107,
      "chip": "ym2612"
    },
    {
      "channel": 4,
      "note": 48,
      "start": 0.632,
      "duration": 0.0194,
      "velocity": 91,
      "chip": "ym2612"
    },
    {
      "channel": 1,
      "note": 60,
      "start": 0.6358,
      "duration": 0.0191,
      "velocity": 112,
      "chip": "ym2612"
    },
    {
      "channel": 3,
      "note": 48,
      "start": 0.6363,
      "duration": 0.0189,
      "velocity": 113,
      "chip": "ym2612"
    },
    {
      "channel": 0,
      "note": 62,
      "start": 0.6509,
      "duration": 0.02,
      "velocity": 107,
      "chip": "ym2612"
    },
    {
      "channel": 4,
      "note": 50,
      "start": 0.6515,
      "duration": 0.0201,
      "velocity": 91,
      "chip": "ym2612"
    },
    {
      "channel": 1,
      "note": 57,
      "start": 0.655,
      "duration": 0.0202,
      "velocity": 112,
      "chip": "ym2612"
    },
    {
      "channel": 3,
      "note": 50,
      "start": 0.6555,
      "duration": 0.02,
      "velocity": 113,
      "chip": "ym2612"
    },
    {
      "channel": 0,
      "note": 60,
      "start": 0.6712,
      "duration": 0.0217,
      "velocity": 107,
      "chip": "ym2612"
    },
    {
      "channel": 4,
      "note": 48,
      "start": 0.6718,
      "duration": 0.0218,
      "velocity": 91,
      "chip": "ym2612"
    },
    {
      "channel": 1,
      "note": 55,
      "start": 0.6754,
      "duration": 0.0221,
      "velocity": 112,
      "chip": "ym2612"
    },
    {
      "channel": 3,
      "note": 48,
      "start": 0.6757,
      "duration": 0.0221,
      "velocity": 113,
      "chip": "ym2612"
    },
    {
      "channel": 0,
      "note": 62,
      "start": 0.6932,
      "duration": 0.0198,
      "velocity": 107,
      "chip": "ym2612"
    },
    {
      "channel": 4,
      "note": 50,
      "start": 0.6938,
      "duration": 0.0195,
      "velocity": 91,
      "chip": "ym2612"
    },
    {
      "channel": 1,
      "note": 57,
      "start": 0.6977,
      "duration": 0.0185,
      "velocity": 112,
      "chip": "ym2612"
    },
    {
      "channel": 3,
      "note": 50,
      "start": 0.698,
      "duration": 0.0183,
      "velocity": 113,
      "chip": "ym2612"
    },
    {
      "channel": 0,
      "note": 62,
      "start": 0.7307,
      "duration": 0.0154,
      "velocity": 107,
      "chip": "ym2612"
    },
    {
      "channel": 4,
      "note": 50,
      "start": 0.7312,
      "duration": 0.0152,
      "velocity": 91,
      "chip": "ym2612"
    },
    {
      "channel": 1,
      "note": 57,
      "start": 0.7343,
      "duration": 0.0159,
      "velocity": 112,
      "chip": "ym2612"
    },
    {
      "channel": 3,
      "note": 50,
      "start": 0.7348,
      "duration": 0.0154,
      "velocity": 113,
      "chip": "ym2612"
    },
    {
      "channel": 0,
      "note": 62,
      "start": 0.7659,
      "duration": 0.0202,
      "velocity": 107,
      "chip": "ym2612"
    },
    {
      "channel": 4,
      "note": 50,
      "start": 0.7662,
      "duration": 0.0204,
      "velocity": 91,
      "chip": "ym2612"
    },
    {
      "channel": 1,
      "note": 57,
      "start": 0.7696,
      "duration": 0.021,
      "velocity": 112,
      "chip": "ym2612"
    },
    {
      "channel": 3,
      "note": 50,
      "start": 0.77,
      "duration": 0.021,
      "velocity": 113,
      "chip": "ym2612"
    },
    {
      "channel": 0,
      "note": 60,
      "start": 0.7863,
      "duration": 0.0204,
      "velocity": 107,
      "chip": "ym2612"
    },
    {
      "channel": 4,
      "note": 48,
      "start": 0.7868,
      "duration": 0.0206,
      "velocity": 91,
      "chip": "ym2612"
    },
    {
      "channel": 1,
      "note": 55,
      "start": 0.7908,
      "duration": 0.0202,
      "velocity": 112,
      "chip": "ym2612"
    },
    {
      "channel": 3,
      "note": 48,
      "start": 0.7912,
      "duration": 0.0202,
      "velocity": 113,
      "chip": "ym2612"
    },
    {
      "channel": 0,
      "note": 62,
      "start": 0.8071,
      "duration": 0.0163,
      "velocity": 107,
      "chip": "ym2612"
    },
    {
      "channel": 4,
      "note": 50,
      "start": 0.8076,
      "duration": 0.0162,
      "velocity": 91,
      "chip": "ym2612"
    },
    {
      "channel": 1,
      "note": 57,
      "start": 0.8112,
      "duration": 0.0161,
      "velocity": 112,
      "chip": "ym2612"
    },
    {
      "channel": 3,
      "note": 50,
      "start": 0.8115,
      "duration": 0.0159,
      "velocity": 113,
      "chip": "ym2612"
    },
    {
      "channel": 0,
      "note": 62,
      "start": 0.8469,
      "duration": 0.0166,
      "velocity": 107,
      "chip": "ym2612"
    },
    {
      "channel": 4,
      "note": 50,
      "start": 0.8473,
      "duration": 0.0165,
      "velocity": 91,
      "chip": "ym2612"
    },
    {
      "channel": 1,
      "note": 57,
      "start": 0.8495,
      "duration": 0.0157,
      "velocity": 112,
      "chip": "ym2612"
    },
    {
      "channel": 3,
      "note": 50,
      "start": 0.85,
      "duration": 0.0154,
      "velocity": 113,
      "chip": "ym2612"
    },
    {
      "channel": 0,
      "note": 62,
      "start": 0.8848,
      "duration": 0.0161,
      "velocity": 107,
      "chip": "ym2612"
    },
    {
      "channel": 4,
      "note": 50,
      "start": 0.8852,
      "duration": 0.016,
      "velocity": 91,
      "chip": "ym2612"
    },
    {
      "channel": 1,
      "note": 57,
      "start": 0.8871,
      "duration": 0.0154,
      "velocity": 112,
      "chip": "ym2612"
    },
    {
      "channel": 3,
      "note": 50,
      "start": 0.8876,
      "duration": 0.0151,
      "velocity": 113,
      "chip": "ym2612"
    },
    {
      "channel": 0,
      "note": 62,
      "start": 0.9192,
      "duration": 0.0197,
      "velocity": 107,
      "chip": "ym2612"
    },
    {
      "channel": 4,
      "note": 50,
      "start": 0.9196,
      "duration": 0.02,
      "velocity": 91,
      "chip": "ym2612"
    },
    {
      "channel": 1,
      "note": 57,
      "start": 0.923,
      "duration": 0.0202,
      "velocity": 112,
      "chip": "ym2612"
    },
    {
      "channel": 3,
      "note": 50,
      "start": 0.9233,
      "duration": 0.0202,
      "velocity": 113,
      "chip": "ym2612"
    },
    {
      "channel": 0,
      "note": 65,
      "start": 0.9391,
      "duration": 0.0206,
      "velocity": 107,
      "chip": "ym2612"
    },
    {
      "channel": 4,
      "note": 48,
      "start": 0.9397,
      "duration": 0.0206,
      "velocity": 91,
      "chip": "ym2612"
    },
    {
      "channel": 1,
      "note": 60,
      "start": 0.9434,
      "duration": 0.0204,
      "velocity": 112,
      "chip": "ym2612"
    },
    {
      "channel": 3,
      "note": 48,
      "start": 0.9438,
      "duration": 0.0204,
      "velocity": 113,
      "chip": "ym2612"
    },
    {
      "channel": 0,
      "note": 62,
      "start": 0.96,
      "duration": 0.02,
      "velocity": 107,
      "chip": "ym2612"
    },
    {
      "channel": 4,
      "note": 50,
      "start": 0.9605,
      "duration": 0.02,
      "velocity": 91,
      "chip": "ym2612"
    },
    {
      "channel": 1,
      "note": 57,
      "start": 0.964,
      "duration": 0.0202,
      "velocity": 112,
      "chip": "ym2612"
    },
    {
      "channel": 3,
      "note": 50,
      "start": 0.9643,
      "duration": 0.0201,
      "velocity": 113,
      "chip": "ym2612"
    },
    {
      "channel": 0,
      "note": 60,
      "start": 0.9801,
      "duration": 0.0205,
      "velocity": 107,
      "chip": "ym2612"
    },
    {
      "channel": 4,
      "note": 48,
      "start": 0.9808,
      "duration": 0.0205,
      "velocity": 91,
      "chip": "ym2612"
    },
    {
      "channel": 1,
      "note": 55,
      "start": 0.9844,
      "duration": 0.0209,
      "velocity": 112,
      "chip": "ym2612"
    },
    {
      "channel": 3,
      "note": 48,
      "start": 0.9846,
      "duration": 0.0209,
      "velocity": 113,
      "chip": "ym2612"
    },
    {
      "channel": 0,
      "note": 62,
      "start": 1.0009,
      "duration": 0.0197,
      "velocity": 107,
      "chip": "ym2612"
    },
    {
      "channel": 4,
      "note": 50,
      "start": 1.0015,
      "duration": 0.0195,
      "velocity": 91,
      "chip": "ym2612"
    },
    {
      "channel": 1,
      "note": 57,
      "start": 1.0054,
      "duration": 0.0189,
      "velocity": 112,
      "chip": "ym2612"
    },
    {
      "channel": 3,
      "note": 50,
      "start": 1.0057,
      "duration": 0.0187,
      "velocity": 113,
      "chip": "ym2612"
    },
    {
      "channel": 0,
      "note": 62,
      "start": 1.0393,
      "duration": 0.0188,
      "velocity": 107,
      "chip": "ym2612"
    },
    {
      "channel": 4,
      "note": 50,
      "start": 1.0398,
      "duration": 0.0405,
      "velocity": 91,
      "chip": "ym2612"
    },
    {
      "channel": 1,
      "note": 57,
      "start": 1.043,
      "duration": 0.0193,
      "velocity": 112,
      "chip": "ym2612"
    },
    {
      "channel": 3,
      "note": 50,
      "start": 1.0433,
      "duration": 0.0193,
      "velocity": 113,
      "chip": "ym2612"
    },
    {
      "channel": 0,
      "note": 60,
      "start": 1.0584,
      "duration": 0.0213,
      "velocity": 107,
      "chip": "ym2612"
    },
    {
      "channel": 1,
      "note": 55,
      "start": 1.0625,
      "duration": 0.0219,
      "velocity": 112,
      "chip": "ym2612"
    },
    {
      "channel": 3,
      "note": 48,
      "start": 1.0627,
      "duration": 0.022,
      "velocity": 113,
      "chip": "ym2612"
    },
    {
      "channel": 0,
      "note": 62,
      "start": 1.0799,
      "duration": 0.0209,
      "velocity": 107,
      "chip": "ym2612"
    },
    {
      "channel": 4,
      "note": 50,
      "start": 1.0805,
      "duration": 0.0209,
      "velocity": 91,
      "chip": "ym2612"
    },
    {
      "channel": 1,
      "note": 57,
      "start": 1.0846,
      "duration": 0.0195,
      "velocity": 112,
      "chip": "ym2612"
    },
    {
      "channel": 3,
      "note": 50,
      "start": 1.0849,
      "duration": 0.0195,
      "velocity": 113,
      "chip": "ym2612"
    },
    {
      "channel": 0,
      "note": 65,
      "start": 1.101,
      "duration": 0.0209,
      "velocity": 107,
      "chip": "ym2612"
    },
    {
      "channel": 4,
      "note": 53,
      "start": 1.1017,
      "duration": 0.0208,
      "velocity": 91,
      "chip": "ym2612"
    },
    {
      "channel": 1,
      "note": 60,
      "start": 1.1044,
      "duration": 0.0259,
      "velocity": 112,
      "chip": "ym2612"
    },
    {
      "channel": 3,
      "note": 53,
      "start": 1.1046,
      "duration": 0.0261,
      "velocity": 113,
      "chip": "ym2612"
    },
    {
      "channel": 0,
      "note": 66,
      "start": 1.1221,
      "duration": 0.0294,
      "velocity": 107,
      "chip": "ym2612"
    },
    {
      "channel": 4,
      "note": 54,
      "start": 1.1228,
      "duration": 0.0293,
      "velocity": 91,
      "chip": "ym2612"
    },
    {
      "channel": 1,
      "note": 61,
      "start": 1.1305,
      "duration": 0.0254,
      "velocity": 112,
      "chip": "ym2612"
    },
    {
      "channel": 3,
      "note": 54,
      "start": 1.1308,
      "duration": 0.0255,
      "velocity": 113,
      "chip": "ym2612"
    },
    {
      "channel": 0,
      "note": 67,
      "start": 1.1517,
      "duration": 0.0209,
      "velocity": 107,
      "chip": "ym2612"
    },
    {
      "channel": 4,
      "note": 55,
      "start": 1.1523,
      "duration": 0.0208,
      "velocity": 91,
      "chip": "ym2612"
    },
    {
      "channel": 1,
      "note": 62,
      "start": 1.1561,
      "duration": 0.0205,
      "velocity": 112,
      "chip": "ym2612"
    },
    {
      "channel": 3,
      "note": 55,
      "start": 1.1566,
      "duration": 0.0203,
      "velocity": 113,
      "chip": "ym2612"
    },
    {
      "channel": 0,
      "note": 60,
      "start": 1.1728,
      "duration": 0.0201,
      "velocity": 107,
      "chip": "ym2612"
    },
    {
      "channel": 4,
      "note": 48,
      "start": 1.1734,
      "duration": 0.0201,
      "velocity": 91,
      "chip": "ym2612"
    },
    {
      "channel": 1,
      "note": 55,
      "start": 1.1767,
      "duration": 0.0202,
      "velocity": 112,
      "chip": "ym2612"
    },
    {
      "channel": 3,
      "note": 48,
      "start": 1.1772,
      "duration": 0.0201,
      "velocity": 113,
      "chip": "ym2612"
    },
    {
      "channel": 0,
      "note": 61,
      "start": 1.1931,
      "duration": 0.0209,
      "velocity": 107,
      "chip": "ym2612"
    },
    {
      "channel": 4,
      "note": 49,
      "start": 1.1937,
      "duration": 0.0208,
      "velocity": 91,
      "chip": "ym2612"
    },
    {
      "channel": 1,
      "note": 56,
      "start": 1.1971,
      "duration": 0.021,
      "velocity": 112,
      "chip": "ym2612"
    },
    {
      "channel": 3,
      "note": 49,
      "start": 1.1975,
      "duration": 0.021,
      "velocity": 113,
      "chip": "ym2612"
    },
    {
      "channel": 0,
      "note": 62,
      "start": 1.2142,
      "duration": 0.0202,
      "velocity": 107,
      "chip": "ym2612"
    },
    {
      "channel": 4,
      "note": 50,
      "start": 1.2147,
      "duration": 0.0203,
      "velocity": 91,
      "chip": "ym2612"
    },
    {
      "channel": 1,
      "note": 57,
      "start": 1.2183,
      "duration": 0.021,
      "velocity": 112,
      "chip": "ym2612"
    },
    {
      "channel": 3,
      "note": 50,
      "start": 1.2187,
      "duration": 0.0211,
      "velocity": 113,
      "chip": "ym2612"
    },
    {
      "channel": 0,
      "note": 65,
      "start": 1.2346,
      "duration": 0.0228,
      "velocity": 107,
      "chip": "ym2612"
    },
    {
      "channel": 4,
      "note": 48,
      "start": 1.2353,
      "duration": 0.0228,
      "velocity": 91,
      "chip": "ym2612"
    },
    {
      "channel": 1,
      "note": 60,
      "start": 1.2395,
      "duration": 0.0203,
      "velocity": 112,
      "chip": "ym2612"
    },
    {
      "channel": 3,
      "note": 48,
      "start": 1.24,
      "duration": 0.0201,
      "velocity": 113,
      "chip": "ym2612"
    },
    {
      "channel": 0,
      "note": 62,
      "start": 1.2577,
      "duration": 0.0159,
      "velocity": 107,
      "chip": "ym2612"
    },
    {
      "channel": 4,
      "note": 50,
      "start": 1.2582,
      "duration": 0.0157,
      "velocity": 91,
      "chip": "ym2612"
    },
    {
      "channel": 1,
      "note": 57,
      "start": 1.2599,
      "duration": 0.0157,
      "velocity": 112,
      "chip": "ym2612"
    },
    {
      "channel": 3,
      "note": 50,
      "start": 1.2603,
      "duration": 0.0154,
      "velocity": 113,
      "chip": "ym2612"
    },
    {
      "channel": 0,
      "note": 62,
      "start": 1.2931,
      "duration": 0.0204,
      "velocity": 107,
      "chip": "ym2612"
    },
    {
      "channel": 4,
      "note": 50,
      "start": 1.2934,
      "duration": 0.0204,
      "velocity": 91,
      "chip": "ym2612"
    },
    {
      "channel": 1,
      "note": 57,
      "start": 1.2952,
      "duration": 0.0206,
      "velocity": 112,
      "chip": "ym2612"
    },
    {
      "channel": 3,
      "note": 50,
      "start": 1.2956,
      "duration": 0.0204,
      "velocity": 113,
      "chip": "ym2612"
    },
    {
      "channel": 0,
      "note": 62,
      "start": 1.3351,
      "duration": 0.0151,
      "velocity": 107,
      "chip": "ym2612"
    },
    {
      "channel": 4,
      "note": 50,
      "start": 1.3355,
      "duration": 0.015,
      "velocity": 91,
      "chip": "ym2612"
    },
    {
      "channel": 1,
      "note": 57,
      "start": 1.3388,
      "duration": 0.0155,
      "velocity": 112,
      "chip": "ym2612"
    },
    {
      "channel": 3,
      "note": 50,
      "start": 1.3391,
      "duration": 0.0151,
      "velocity": 113,
      "chip": "ym2612"
    },
    {
      "channel": 0,
      "note": 62,
      "start": 1.3702,
      "duration": 0.0203,
      "velocity": 107,
      "chip": "ym2612"
    },
    {
      "channel": 4,
      "note": 50,
      "start": 1.3704,
      "duration": 0.0207,
      "velocity": 91,
      "chip": "ym2612"
    },
    {
      "channel": 1,
      "note": 57,
      "start": 1.3738,
      "duration": 0.021,
      "velocity": 112,
      "chip": "ym2612"
    },
    {
      "channel": 3,
      "note": 50,
      "start": 1.3741,
      "duration": 0.0211,
      "velocity": 113,
      "chip": "ym2612"
    },
    {
      "channel": 0,
      "note": 60,
      "start": 1.3907,
      "duration": 0.0198,
      "velocity": 107,
      "chip": "ym2612"
    },
    {
      "channel": 4,
      "note": 48,
      "start": 1.3912,
      "duration": 0.02,
      "velocity": 91,
      "chip": "ym2612"
    },
    {
      "channel": 1,
      "note": 55,
      "start": 1.3951,
      "duration": 0.0199,
      "velocity": 112,
      "chip": "ym2612"
    },
    {
      "channel": 3,
      "note": 48,
      "start": 1.3955,
      "duration": 0.0198,
      "velocity": 113,
      "chip": "ym2612"
    },
    {
      "channel": 0,
      "note": 62,
      "start": 1.4108,
      "duration": 0.0166,
      "velocity": 107,
      "chip": "ym2612"
    },
    {
      "channel": 4,
      "note": 50,
      "start": 1.4115,
      "duration": 0.0163,
      "velocity": 91,
      "chip": "ym2612"
    },
    {
      "channel": 1,
      "note": 57,
      "start": 1.4152,
      "duration": 0.0159,
      "velocity": 112,
      "chip": "ym2612"
    },
    {
      "channel": 3,
      "note": 50,
      "start": 1.4156,
      "duration": 0.0156,
      "velocity": 113,
      "chip": "ym2612"
    },
    {
      "channel": 0,
      "note": 62,
      "start": 1.447,
      "duration": 0.0149,
      "velocity": 107,
      "chip": "ym2612"
    },
    {
      "channel": 4,
      "note": 50,
      "start": 1.4472,
      "duration": 0.015,
      "velocity": 91,
      "chip": "ym2612"
    },
    {
      "channel": 1,
      "note": 57,
      "start": 1.4504,
      "duration": 0.0154,
      "velocity": 112,
      "chip": "ym2612"
    },
    {
      "channel": 3,
      "note": 50,
      "start": 1.4508,
      "duration": 0.0151,
      "velocity": 113,
      "chip": "ym2612"
    },
    {
      "channel": 0,
      "note": 62,
      "start": 1.484,
      "duration": 0.0163,
      "velocity": 107,
      "chip": "ym2612"
    },
    {
      "channel": 4,
      "note": 50,
      "start": 1.4844,
      "duration": 0.0162,
      "velocity": 91,
      "chip": "ym2612"
    },
    {
      "channel": 1,
      "note": 57,
      "start": 1.488,
      "duration": 0.0157,
      "velocity": 112,
      "chip": "ym2612"
    },
    {
      "channel": 3,
      "note": 50,
      "start": 1.4882,
      "duration": 0.0156,
      "velocity": 113,
      "chip": "ym2612"
    },
    {
      "channel": 0,
      "note": 62,
      "start": 1.5194,
      "duration": 0.0192,
      "velocity": 107,
      "chip": "ym2612"
    },
    {
      "channel": 4,
      "note": 50,
      "start": 1.5198,
      "duration": 0.0195,
      "velocity": 91,
      "chip": "ym2612"
    },
    {
      "channel": 1,
      "note": 57,
      "start": 1.5232,
      "duration": 0.0199,
      "velocity": 112,
      "chip": "ym2612"
    },
    {
      "channel": 3,
      "note": 50,
      "start": 1.5237,
      "duration": 0.0198,
      "velocity": 113,
      "chip": "ym2612"
    },
    {
      "channel": 0,
      "note": 65,
      "start": 1.5389,
      "duration": 0.0202,
      "velocity": 107,
      "chip": "ym2612"
    },
    {
      "channel": 4,
      "note": 48,
      "start": 1.5394,
      "duration": 0.0203,
      "velocity": 91,
      "chip": "ym2612"
    },
    {
      "channel": 1,
      "note": 60,
      "start": 1.5433,
      "duration": 0.0202,
      "velocity": 112,
      "chip": "ym2612"
    },
    {
      "channel": 3,
      "note": 48,
      "start": 1.5436,
      "duration": 0.0203,
      "velocity": 113,
      "chip": "ym2612"
    },
    {
      "channel": 0,
      "note": 62,
      "start": 1.5593,
      "duration": 0.0191,
      "velocity": 107,
      "chip": "ym2612"
    },
    {
      "channel": 4,
      "note": 50,
      "start": 1.5599,
      "duration": 0.0191,
      "velocity": 91,
      "chip": "ym2612"
    },
    {
      "channel": 1,
      "note": 57,
      "start": 1.5637,
      "duration": 0.0189,
      "velocity": 112,
      "chip": "ym2612"
    },
    {
      "channel": 3,
      "note": 50,
      "start": 1.5641,
      "duration": 0.0189,
      "velocity": 113,
      "chip": "ym2612"
    },
    {
      "channel": 0,
      "note": 60,
      "start": 1.5787,
      "duration": 0.0213,
      "velocity": 107,
      "chip": "ym2612"
    },
    {
      "channel": 4,
      "note": 48,
      "start": 1.5793,
      "duration": 0.0214,
      "velocity": 91,
      "chip": "ym2612"
    },
    {
      "channel": 1,
      "note": 55,
      "start": 1.5828,
      "duration": 0.0217,
      "velocity": 112,
      "chip": "ym2612"
    },
    {
      "channel": 3,
      "note": 48,
      "start": 1.5832,
      "duration": 0.0216,
      "velocity": 113,
      "chip": "ym2612"
    },
    {
      "channel": 0,
      "note": 62,
      "start": 1.6002,
      "duration": 0.0199,
      "velocity": 107,
      "chip": "ym2612"
    },
    {
      "channel": 4,
      "note": 50,
      "start": 1.6009,
      "duration": 0.0196,
      "velocity": 91,
      "chip": "ym2612"
    },
    {
      "channel": 1,
      "note": 57,
      "start": 1.6046,
      "duration": 0.0188,
      "velocity": 112,
      "chip": "ym2612"
    },
    {
      "channel": 3,
      "note": 50,
      "start": 1.605,
      "duration": 0.0186,
      "velocity": 113,
      "chip": "ym2612"
    },
    {
      "channel": 0,
      "note": 62,
      "start": 1.6395,
      "duration": 0.0198,
      "velocity": 107,
      "chip": "ym2612"
    },
    {
      "channel": 4,
      "note": 50,
      "start": 1.64,
      "duration": 0.0417,
      "velocity": 91,
      "chip": "ym2612"
    },
    {
      "channel": 1,
      "note": 57,
      "start": 1.6416,
      "duration": 0.0198,
      "velocity": 112,
      "chip": "ym2612"
    },
    {
      "channel": 3,
      "note": 50,
      "start": 1.6419,
      "duration": 0.0198,
      "velocity": 113,
      "chip": "ym2612"
    },
    {
      "channel": 0,
      "note": 60,
      "start": 1.6596,
      "duration": 0.0214,
      "velocity": 107,
      "chip": "ym2612"
    },
    {
      "channel": 1,
      "note": 55,
      "start": 1.6617,
      "duration": 0.0222,
      "velocity": 112,
      "chip": "ym2612"
    },
    {
      "channel": 3,
      "note": 48,
      "start": 1.6619,
      "duration": 0.0222,
      "velocity": 113,
      "chip": "ym2612"
    },
    {
      "channel": 0,
      "note": 62,
      "start": 1.6813,
      "duration": 0.0211,
      "velocity": 107,
      "chip": "ym2612"
    },
    {
      "channel": 4,
      "note": 50,
      "start": 1.6818,
      "duration": 0.0211,
      "velocity": 91,
      "chip": "ym2612"
    },
    {
      "channel": 1,
      "note": 57,
      "start": 1.6841,
      "duration": 0.0225,
      "velocity": 112,
      "chip": "ym2612"
    },
    {
      "channel": 3,
      "note": 50,
      "start": 1.6844,
      "duration": 0.0225,
      "velocity": 113,
      "chip": "ym2612"
    },
    {
      "channel": 0,
      "note": 65,
      "start": 1.7025,
      "duration": 0.0204,
      "velocity": 107,
      "chip": "ym2612"
    },
    {
      "channel": 4,
      "note": 53,
      "start": 1.7031,
      "duration": 0.0204,
      "velocity": 91,
      "chip": "ym2612"
    },
    {
      "channel": 1,
      "note": 60,
      "start": 1.7068,
      "duration": 0.0204,
      "velocity": 112,
      "chip": "ym2612"
    },
    {
      "channel": 3,
      "note": 48,
      "start": 1.7072,
      "duration": 0.0202,
      "velocity": 113,
      "chip": "ym2612"
    },
    {
      "channel": 0,
      "note": 62,
      "start": 1.723,
      "duration": 0.0199,
      "velocity": 107,
      "chip": "ym2612"
    },
    {
      "channel": 4,
      "note": 50,
      "start": 1.7237,
      "duration": 0.0198,
      "velocity": 91,
      "chip": "ym2612"
    },
    {
      "channel": 1,
      "note": 57,
      "start": 1.7274,
      "duration": 0.0198,
      "velocity": 112,
      "chip": "ym2612"
    },
    {
      "channel": 3,
      "note": 50,
      "start": 1.7277,
      "duration": 0.0198,
      "velocity": 113,
      "chip": "ym2612"
    },
    {
      "channel": 0,
      "note": 67,
      "start": 1.7431,
      "duration": 0.0098,
      "velocity": 107,
      "chip": "ym2612"
    },
    {
      "channel": 4,
      "note": 55,
      "start": 1.7436,
      "duration": 0.0099,
      "velocity": 91,
      "chip": "ym2612"
    },
    {
      "channel": 1,
      "note": 62,
      "start": 1.7474,
      "duration": 0.0095,
      "velocity": 112,
      "chip": "ym2612"
    },
    {
      "channel": 3,
      "note": 55,
      "start": 1.7477,
      "duration": 0.0095,
      "velocity": 113,
      "chip": "ym2612"
    },
    {
      "channel": 0,
      "note": 68,
      "start": 1.7532,
      "duration": 0.0121,
      "velocity": 107,
      "chip": "ym2612"
    },
    {
      "channel": 4,
      "note": 56,
      "start": 1.7537,
      "duration": 0.0121,
      "velocity": 91,
      "chip": "ym2612"
    },
    {
      "channel": 1,
      "note": 75,
      "start": 1.7571,
      "duration": 0.0128,
      "velocity": 112,
      "chip": "ym2612"
    },
    {
      "channel": 3,
      "note": 56,
      "start": 1.7574,
      "duration": 0.0129,
      "velocity": 113,
      "chip": "ym2612"
    },
    {
      "channel": 0,
      "note": 67,
      "start": 1.7655,
      "duration": 0.1038,
      "velocity": 107,
      "chip": "ym2612"
    },
    {
      "channel": 4,
      "note": 55,
      "start": 1.7661,
      "duration": 0.1039,
      "velocity": 91,
      "chip": "ym2612"
    },
    {
      "channel": 1,
      "note": 62,
      "start": 1.7701,
      "duration": 0.1036,
      "velocity": 112,
      "chip": "ym2612"
    },
    {
      "channel": 3,
      "note": 55,
      "start": 1.7705,
      "duration": 0.1035,
      "velocity": 113,
      "chip": "ym2612"
    },
    {
      "channel": 0,
      "note": 65,
      "start": 1.8696,
      "duration": 0.0202,
      "velocity": 107,
      "chip": "ym2612"
    },
    {
      "channel": 4,
      "note": 48,
      "start": 1.8701,
      "duration": 0.0203,
      "velocity": 91,
      "chip": "ym2612"
    },
    {
      "channel": 1,
      "note": 60,
      "start": 1.8739,
      "duration": 0.0199,
      "velocity": 112,
      "chip": "ym2612"
    },
    {
      "channel": 3,
      "note": 48,
      "start": 1.8743,
      "duration": 0.0198,
      "velocity": 113,
      "chip": "ym2612"
    },
    {
      "channel": 0,
      "note": 62,
      "start": 1.89,
      "duration": 0.0193,
      "velocity": 107,
      "chip": "ym2612"
    },
    {
      "channel": 4,
      "note": 50,
      "start": 1.8906,
      "duration": 0.0193,
      "velocity": 91,
      "chip": "ym2612"
    },
    {
      "channel": 1,
      "note": 57,
      "start": 1.894,
      "duration": 0.0193,
      "velocity": 112,
      "chip": "ym2612"
    },
    {
      "channel": 3,
      "note": 50,
      "start": 1.8943,
      "duration": 0.0193,
      "velocity": 113,
      "chip": "ym2612"
    },
    {
      "channel": 0,
      "note": 60,
      "start": 1.9095,
      "duration": 0.0211,
      "velocity": 107,
      "chip": "ym2612"
    },
    {
      "channel": 4,
      "note": 48,
      "start": 1.9101,
      "duration": 0.0212,
      "velocity": 91,
      "chip": "ym2612"
    },
    {
      "channel": 1,
      "note": 55,
      "start": 1.9135,
      "duration": 0.0221,
      "velocity": 112,
      "chip": "ym2612"
    },
    {
      "channel": 3,
      "note": 48,
      "start": 1.9137,
      "duration": 0.0221,
      "velocity": 113,
      "chip": "ym2612"
    },
    {
      "channel": 0,
      "note": 62,
      "start": 1.9309,
      "duration": 0.0206,
      "velocity": 107,
      "chip": "ym2612"
    },
    {
      "channel": 4,
      "note": 50,
      "start": 1.9316,
      "duration": 0.0203,
      "velocity": 91,
      "chip": "ym2612"
    },
    {
      "channel": 1,
      "note": 57,
      "start": 1.9358,
      "duration": 0.0194,
      "velocity": 112,
      "chip": "ym2612"
    },
    {
      "channel": 3,
      "note": 50,
      "start": 1.936,
      "duration": 0.0193,
      "velocity": 113,
      "chip": "ym2612"
    },
    {
      "channel": 0,
      "note": 62,
      "start": 1.9701,
      "duration": 0.015,
      "velocity": 107,
      "chip": "ym2612"
    },
    {
      "channel": 4,
      "note": 50,
      "start": 1.9706,
      "duration": 0.0149,
      "velocity": 91,
      "chip": "ym2612"
    },
    {
      "channel": 1,
      "note": 57,
      "start": 1.9736,
      "duration": 0.015,
      "velocity": 112,
      "chip": "ym2612"
    },
    {
      "channel": 3,
      "note": 50,
      "start": 1.974,
      "duration": 0.0148,
      "velocity": 113,
      "chip": "ym2612"
    },
    {
      "channel": 0,
      "note": 62,
      "start": 2.0045,
      "duration": 0.019,
      "velocity": 107,
      "chip": "ym2612"
    },
    {
      "channel": 4,
      "note": 50,
      "start": 2.0048,
      "duration": 0.0192,
      "velocity": 91,
      "chip": "ym2612"
    },
    {
      "channel": 1,
      "note": 57,
      "start": 2.0081,
      "duration": 0.0194,
      "velocity": 112,
      "chip": "ym2612"
    },
    {
      "channel": 3,
      "note": 50,
      "start": 2.0084,
      "duration": 0.0194,
      "velocity": 113,
      "chip": "ym2612"
    },
    {
      "channel": 0,
      "note": 60,
      "start": 2.0236,
      "duration": 0.0204,
      "velocity": 107,
      "chip": "ym2612"
    },
    {
      "channel": 4,
      "note": 48,
      "start": 2.0241,
      "duration": 0.0206,
      "velocity": 91,
      "chip": "ym2612"
    },
    {
      "channel": 1,
      "note": 55,
      "start": 2.0276,
      "duration": 0.0191,
      "velocity": 112,
      "chip": "ym2612"
    },
    {
      "channel": 3,
      "note": 48,
      "start": 2.0281,
      "duration": 0.019,
      "velocity": 113,
      "chip": "ym2612"
    },
    {
      "channel": 0,
      "note": 62,
      "start": 2.0443,
      "duration": 0.0166,
      "velocity": 107,
      "chip": "ym2612"
    },
    {
      "channel": 4,
      "note": 50,
      "start": 2.0449,
      "duration": 0.0162,
      "velocity": 91,
      "chip": "ym2612"
    },
    {
      "channel": 1,
      "note": 57,
      "start": 2.047,
      "duration": 0.0157,
      "velocity": 112,
      "chip": "ym2612"
    },
    {
      "channel": 3,
      "note": 50,
      "start": 2.0473,
      "duration": 0.0155,
      "velocity": 113,
      "chip": "ym2612"
    },
    {
      "channel": 0,
      "note": 62,
      "start": 2.0799,
      "duration": 0.0195,
      "velocity": 107,
      "chip": "ym2612"
    },
    {
      "channel": 4,
      "note": 50,
      "start": 2.0802,
      "duration": 0.0196,
      "velocity": 91,
      "chip": "ym2612"
    },
    {
      "channel": 1,
      "note": 57,
      "start": 2.0819,
      "duration": 0.0202,
      "velocity": 112,
      "chip": "ym2612"
    },
    {
      "channel": 3,
      "note": 50,
      "start": 2.0823,
      "duration": 0.0199,
      "velocity": 113,
      "chip": "ym2612"
    },
    {
      "channel": 0,
      "note": 62,
      "start": 2.121,
      "duration": 0.0158,
      "velocity": 107,
      "chip": "ym2612"
    },
    {
      "channel": 4,
      "note": 50,
      "start": 2.1214,
      "duration": 0.0158,
      "velocity": 91,
      "chip": "ym2612"
    },
    {
      "channel": 1,
      "note": 57,
      "start": 2.1245,
      "duration": 0.0159,
      "velocity": 112,
      "chip": "ym2612"
    },
    {
      "channel": 3,
      "note": 50,
      "start": 2.1249,
      "duration": 0.0155,
      "velocity": 113,
      "chip": "ym2612"
    },
    {
      "channel": 0,
      "note": 62,
      "start": 2.1561,
      "duration": 0.0196,
      "velocity": 107,
      "chip": "ym2612"
    },
    {
      "channel": 4,
      "note": 50,
      "start": 2.1565,
      "duration": 0.0198,
      "velocity": 91,
      "chip": "ym2612"
    },
    {
      "channel": 1,
      "note": 57,
      "start": 2.1597,
      "duration": 0.0202,
      "velocity": 112,
      "chip": "ym2612"
    },
    {
      "channel": 3,
      "note": 50,
      "start": 2.16,
      "duration": 0.0202,
      "velocity": 113,
      "chip": "ym2612"
    },
    {
      "channel": 0,
      "note": 65,
      "start": 2.176,
      "duration": 0.0199,
      "velocity": 107,
      "chip": "ym2612"
    },
    {
      "channel": 4,
      "note": 48,
      "start": 2.1765,
      "duration": 0.02,
      "velocity": 91,
      "chip": "ym2612"
    },
    {
      "channel": 1,
      "note": 60,
      "start": 2.1801,
      "duration": 0.0198,
      "velocity": 112,
      "chip": "ym2612"
    },
    {
      "channel": 3,
      "note": 48,
      "start": 2.1804,
      "duration": 0.0199,
      "velocity": 113,
      "chip": "ym2612"
    },
    {
      "channel": 0,
      "note": 62,
      "start": 2.1961,
      "duration": 0.0204,
      "velocity": 107,
      "chip": "ym2612"
    },
    {
      "channel": 4,
      "note": 50,
      "start": 2.1967,
      "duration": 0.0204,
      "velocity": 91,
      "chip": "ym2612"
    },
    {
      "channel": 1,
      "note": 57,
      "start": 2.2001,
      "duration": 0.0203,
      "velocity": 112,
      "chip": "ym2612"
    },
    {
      "channel": 3,
      "note": 50,
      "start": 2.2005,
      "duration": 0.0202,
      "velocity": 113,
      "chip": "ym2612"
    },
    {
      "channel": 0,
      "note": 60,
      "start": 2.2168,
      "duration": 0.0213,
      "velocity": 107,
      "chip": "ym2612"
    },
    {
      "channel": 4,
      "note": 48,
      "start": 2.2173,
      "duration": 0.0215,
      "velocity": 91,
      "chip": "ym2612"
    },
    {
      "channel": 1,
      "note": 55,
      "start": 2.2206,
      "duration": 0.0221,
      "velocity": 112,
      "chip": "ym2612"
    },
    {
      "channel": 3,
      "note": 48,
      "start": 2.2209,
      "duration": 0.022,
      "velocity": 113,
      "chip": "ym2612"
    },
    {
      "channel": 0,
      "note": 62,
      "start": 2.2384,
      "duration": 0.0199,
      "velocity": 107,
      "chip": "ym2612"
    },
    {
      "channel": 4,
      "note": 50,
      "start": 2.239,
      "duration": 0.0196,
      "velocity": 91,
      "chip": "ym2612"
    },
    {
      "channel": 1,
      "note": 57,
      "start": 2.2428,
      "duration": 0.019,
      "velocity": 112,
      "chip": "ym2612"
    },
    {
      "channel": 3,
      "note": 50,
      "start": 2.2432,
      "duration": 0.0189,
      "velocity": 113,
      "chip": "ym2612"
    },
    {
      "channel": 0,
      "note": 62,
      "start": 2.2766,
      "duration": 0.0189,
      "velocity": 107,
      "chip": "ym2612"
    },
    {
      "channel": 4,
      "note": 50,
      "start": 2.2771,
      "duration": 0.0405,
      "velocity": 91,
      "chip": "ym2612"
    },
    {
      "channel": 1,
      "note": 57,
      "start": 2.2802,
      "duration": 0.0193,
      "velocity": 112,
      "chip": "ym2612"
    },
    {
      "channel": 3,
      "note": 50,
      "start": 2.2805,
      "duration": 0.0193,
      "velocity": 113,
      "chip": "ym2612"
    },
    {
      "channel": 0,
      "note": 60,
      "start": 2.2957,
      "duration": 0.0213,
      "velocity": 107,
      "chip": "ym2612"
    },
    {
      "channel": 1,
      "note": 55,
      "start": 2.2998,
      "duration": 0.0218,
      "velocity": 112,
      "chip": "ym2612"
    },
    {
      "channel": 3,
      "note": 48,
      "start": 2.3,
      "duration": 0.0219,
      "velocity": 113,
      "chip": "ym2612"
    },
    {
      "channel": 0,
      "note": 62,
      "start": 2.3173,
      "duration": 0.0202,
      "velocity": 107,
      "chip": "ym2612"
    },
    {
      "channel": 4,
      "note": 50,
      "start": 2.3179,
      "duration": 0.0201,
      "velocity": 91,
      "chip": "ym2612"
    },
    {
      "channel": 1,
      "note": 57,
      "start": 2.3218,
      "duration": 0.02,
      "velocity": 112,
      "chip": "ym2612"
    },
    {
      "channel": 3,
      "note": 50,
      "start": 2.3221,
      "duration": 0.02,
      "velocity": 113,
      "chip": "ym2612"
    },
    {
      "channel": 0,
      "note": 65,
      "start": 2.3376,
      "duration": 0.0224,
      "velocity": 107,
      "chip": "ym2612"
    },
    {
      "channel": 4,
      "note": 53,
      "start": 2.3383,
      "duration": 0.0224,
      "velocity": 91,
      "chip": "ym2612"
    },
    {
      "channel": 1,
      "note": 60,
      "start": 2.3421,
      "duration": 0.0259,
      "velocity": 112,
      "chip": "ym2612"
    },
    {
      "channel": 3,
      "note": 53,
      "start": 2.3424,
      "duration": 0.026,
      "velocity": 113,
      "chip": "ym2612"
    },
    {
      "channel": 0,
      "note": 66,
      "start": 2.3603,
      "duration": 0.0296,
      "velocity": 107,
      "chip": "ym2612"
    },
    {
      "channel": 4,
      "note": 54,
      "start": 2.3609,
      "duration": 0.0296,
      "velocity": 91,
      "chip": "ym2612"
    },
    {
      "channel": 1,
      "note": 61,
      "start": 2.3682,
      "duration": 0.026,
      "velocity": 112,
      "chip": "ym2612"
    },
    {
      "channel": 3,
      "note": 54,
      "start": 2.3685,
      "duration": 0.026,
      "velocity": 113,
      "chip": "ym2612"
    },
    {
      "channel": 0,
      "note": 67,
      "start": 2.39,
      "duration": 0.0203,
      "velocity": 107,
      "chip": "ym2612"
    },
    {
      "channel": 4,
      "note": 55,
      "start": 2.3907,
      "duration": 0.0203,
      "velocity": 91,
      "chip": "ym2612"
    },
    {
      "channel": 1,
      "note": 62,
      "start": 2.3944,
      "duration": 0.0203,
      "velocity": 112,
      "chip": "ym2612"
    },
    {
      "channel": 3,
      "note": 55,
      "start": 2.3947,
      "duration": 0.0203,
      "velocity": 113,
      "chip": "ym2612"
    },
    {
      "channel": 0,
      "note": 60,
      "start": 2.4105,
      "duration": 0.0194,
      "velocity": 107,
      "chip": "ym2612"
    },
    {
      "channel": 4,
      "note": 48,
      "start": 2.4112,
      "duration": 0.0193,
      "velocity": 91,
      "chip": "ym2612"
    },
    {
      "channel": 1,
      "note": 55,
      "start": 2.4149,
      "duration": 0.0191,
      "velocity": 112,
      "chip": "ym2612"
    },
    {
      "channel": 3,
      "note": 48,
      "start": 2.4152,
      "duration": 0.0191,
      "velocity": 113,
      "chip": "ym2612"
    },
    {
      "channel": 0,
      "note": 61,
      "start": 2.4301,
      "duration": 0.0213,
      "velocity": 107,
      "chip": "ym2612"
    },
    {
      "channel": 4,
      "note": 49,
      "start": 2.4307,
      "duration": 0.0212,
      "velocity": 91,
      "chip": "ym2612"
    },
    {
      "channel": 1,
      "note": 56,
      "start": 2.4341,
      "duration": 0.0199,
      "velocity": 112,
      "chip": "ym2612"
    },
    {
      "channel": 3,
      "note": 49,
      "start": 2.4345,
      "duration": 0.02,
      "velocity": 113,
      "chip": "ym2612"
    },
    {
      "channel": 0,
      "note": 62,
      "start": 2.4516,
      "duration": 0.021,
      "velocity": 107,
      "chip": "ym2612"
    },
    {
      "channel": 4,
      "note": 50,
      "start": 2.4522,
      "duration": 0.0209,
      "velocity": 91,
      "chip": "ym2612"
    },
    {
      "channel": 1,
      "note": 57,
      "start": 2.4543,
      "duration": 0.0211,
      "velocity": 112,
      "chip": "ym2612"
    },
    {
      "channel": 3,
      "note": 50,
      "start": 2.4548,
      "duration": 0.0212,
      "velocity": 113,
      "chip": "ym2612"
    },
    {
      "channel": 0,
      "note": 36,
      "start": 2.4727,
      "duration": 0.0396,
      "velocity": 107,
      "chip": "ym2612"
    },
    {
      "channel": 4,
      "note": 48,
      "start": 2.4733,
      "duration": 0.0395,
      "velocity": 91,
      "chip": "ym2612"
    },
    {
      "channel": 1,
      "note": 60,
      "start": 2.4756,
      "duration": 0.0408,
      "velocity": 112,
      "chip": "ym2612"
    },
    {
      "channel": 3,
      "note": 55,
      "start": 2.4763,
      "duration": 0.0405,
      "velocity": 113,
      "chip": "ym2612"
    },
    {
      "channel": 0,
      "note": 38,
      "start": 2.5126,
      "duration": 0.0208,
      "velocity": 107,
      "chip": "ym2612"
    },
    {
      "channel": 4,
      "note": 50,
      "start": 2.5131,
      "duration": 0.0209,
      "velocity": 91,
      "chip": "ym2612"
    },
    {
      "channel": 1,
      "note": 62,
      "start": 2.5167,
      "duration": 0.0207,
      "velocity": 112,
      "chip": "ym2612"
    },
    {
      "channel": 3,
      "note": 57,
      "start": 2.5171,
      "duration": 0.0207,
      "velocity": 113,
      "chip": "ym2612"
    },
    {
      "channel": 0,
      "note": 38,
      "start": 2.5336,
      "duration": 0.0091,
      "velocity": 107,
      "chip": "ym2612"
    },
    {
      "channel": 4,
      "note": 50,
      "start": 2.5341,
      "duration": 0.0418,
      "velocity": 91,
      "chip": "ym2612"
    },
    {
      "channel": 1,
      "note": 62,
      "start": 2.5377,
      "duration": 0.0223,
      "velocity": 107,
      "chip": "ym2612"
    },
    {
      "channel": 3,
      "note": 57,
      "start": 2.538,
      "duration": 0.0232,
      "velocity": 107,
      "chip": "ym2612"
    },
    {
      "channel": 0,
      "note": 38,
      "start": 2.5555,
      "duration": 0.0109,
      "velocity": 107,
      "chip": "ym2612"
    },
    {
      "channel": 1,
      "note": 50,
      "start": 2.5602,
      "duration": 0.0098,
      "velocity": 107,
      "chip": "ym2612"
    },
    {
      "channel": 3,
      "note": 50,
      "start": 2.5615,
      "duration": 0.0085,
      "velocity": 107,
      "chip": "ym2612"
    },
    {
      "channel": 0,
      "note": 38,
      "start": 2.5758,
      "duration": 0.0106,
      "velocity": 107,
      "chip": "ym2612"
    },
    {
      "channel": 4,
      "note": 50,
      "start": 2.5762,
      "duration": 0.0205,
      "velocity": 91,
      "chip": "ym2612"
    },
    {
      "channel": 1,
      "note": 62,
      "start": 2.5802,
      "duration": 0.0209,
      "velocity": 107,
      "chip": "ym2612"
    },
    {
      "channel": 3,
      "note": 57,
      "start": 2.5815,
      "duration": 0.0208,
      "velocity": 107,
      "chip": "ym2612"
    },
    {
      "channel": 0,
      "note": 38,
      "start": 2.5963,
      "duration": 0.0112,
      "velocity": 107,
      "chip": "ym2612"
    },
    {
      "channel": 4,
      "note": 50,
      "start": 2.5968,
      "duration": 0.0205,
      "velocity": 91,
      "chip": "ym2612"
    },
    {
      "channel": 1,
      "note": 50,
      "start": 2.6013,
      "duration": 0.01,
      "velocity": 107,
      "chip": "ym2612"
    },
    {
      "channel": 3,
      "note": 50,
      "start": 2.6024,
      "duration": 0.009,
      "velocity": 107,
      "chip": "ym2612"
    },
    {
      "channel": 0,
      "note": 38,
      "start": 2.6171,
      "duration": 0.009,
      "velocity": 107,
      "chip": "ym2612"
    },
    {
      "channel": 4,
      "note": 50,
      "start": 2.6176,
      "duration": 0.0194,
      "velocity": 91,
      "chip": "ym2612"
    },
    {
      "channel": 1,
      "note": 50,
      "start": 2.6209,
      "duration": 0.0086,
      "velocity": 107,
      "chip": "ym2612"
    },
    {
      "channel": 3,
      "note": 50,
      "start": 2.6213,
      "duration": 0.0084,
      "velocity": 107,
      "chip": "ym2612"
    },
    {
      "channel": 0,
      "note": 38,
      "start": 2.6369,
      "duration": 0.0106,
      "velocity": 107,
      "chip": "ym2612"
    },
    {
      "channel": 4,
      "note": 50,
      "start": 2.6373,
      "duration": 0.021,
      "velocity": 91,
      "chip": "ym2612"
    },
    {
      "channel": 1,
      "note": 62,
      "start": 2.6414,
      "duration": 0.0211,
      "velocity": 107,
      "chip": "ym2612"
    },
    {
      "channel": 3,
      "note": 57,
      "start": 2.6427,
      "duration": 0.0211,
      "velocity": 107,
      "chip": "ym2612"
    },
    {
      "channel": 0,
      "note": 38,
      "start": 2.6578,
      "duration": 0.0112,
      "velocity": 107,
      "chip": "ym2612"
    },
    {
      "channel": 4,
      "note": 50,
      "start": 2.6585,
      "duration": 0.02,
      "velocity": 91,
      "chip": "ym2612"
    },
    {
      "channel": 1,
      "note": 50,
      "start": 2.6628,
      "duration": 0.0093,
      "velocity": 107,
      "chip": "ym2612"
    },
    {
      "channel": 3,
      "note": 50,
      "start": 2.6639,
      "duration": 0.0083,
      "velocity": 107,
      "chip": "ym2612"
    },
    {
      "channel": 0,
      "note": 38,
      "start": 2.6785,
      "duration": 0.009,
      "velocity": 107,
      "chip": "ym2612"
    },
    {
      "channel": 4,
      "note": 50,
      "start": 2.6787,
      "duration": 0.018,
      "velocity": 91,
      "chip": "ym2612"
    },
    {
      "channel": 1,
      "note": 50,
      "start": 2.6818,
      "duration": 0.009,
      "velocity": 107,
      "chip": "ym2612"
    },
    {
      "channel": 3,
      "note": 50,
      "start": 2.6822,
      "duration": 0.0087,
      "velocity": 107,
      "chip": "ym2612"
    },
    {
      "channel": 0,
      "note": 38,
      "start": 2.6967,
      "duration": 0.0104,
      "velocity": 107,
      "chip": "ym2612"
    },
    {
      "channel": 4,
      "note": 50,
      "start": 2.697,
      "duration": 0.0225,
      "velocity": 91,
      "chip": "ym2612"
    },
    {
      "channel": 1,
      "note": 62,
      "start": 2.7012,
      "duration": 0.0228,
      "velocity": 107,
      "chip": "ym2612"
    },
    {
      "channel": 3,
      "note": 57,
      "start": 2.7024,
      "duration": 0.0229,
      "velocity": 107,
      "chip": "ym2612"
    },
    {
      "channel": 0,
      "note": 38,
      "start": 2.7191,
      "duration": 0.0115,
      "velocity": 107,
      "chip": "ym2612"
    },
    {
      "channel": 4,
      "note": 50,
      "start": 2.7198,
      "duration": 0.0204,
      "velocity": 91,
      "chip": "ym2612"
    },
    {
      "channel": 1,
      "note": 50,
      "start": 2.7242,
      "duration": 0.0099,
      "velocity": 107,
      "chip": "ym2612"
    },
    {
      "channel": 3,
      "note": 50,
      "start": 2.7255,
      "duration": 0.0087,
      "velocity": 107,
      "chip": "ym2612"
    },
    {
      "channel": 0,
      "note": 38,
      "start": 2.74,
      "duration": 0.0104,
      "velocity": 107,
      "chip": "ym2612"
    },
    {
      "channel": 4,
      "note": 50,
      "start": 2.7404,
      "duration": 0.02,
      "velocity": 91,
      "chip": "ym2612"
    },
    {
      "channel": 1,
      "note": 62,
      "start": 2.7446,
      "duration": 0.02,
      "velocity": 107,
      "chip": "ym2612"
    },
    {
      "channel": 3,
      "note": 57,
      "start": 2.7459,
      "duration": 0.02,
      "velocity": 107,
      "chip": "ym2612"
    },
    {
      "channel": 0,
      "note": 38,
      "start": 2.7601,
      "duration": 0.011,
      "velocity": 107,
      "chip": "ym2612"
    },
    {
      "channel": 4,
      "note": 50,
      "start": 2.7606,
      "duration": 0.0222,
      "velocity": 91,
      "chip": "ym2612"
    },
    {
      "channel": 1,
      "note": 50,
      "start": 2.7649,
      "duration": 0.0096,
      "velocity": 107,
      "chip": "ym2612"
    },
    {
      "channel": 3,
      "note": 50,
      "start": 2.7661,
      "duration": 0.0084,
      "velocity": 107,
      "chip": "ym2612"
    },
    {
      "channel": 0,
      "note": 36,
      "start": 2.7826,
      "duration": 0.0417,
      "velocity": 107,
      "chip": "ym2612"
    },
    {
      "channel": 4,
      "note": 48,
      "start": 2.7831,
      "duration": 0.0417,
      "velocity": 91,
      "chip": "ym2612"
    },
    {
      "channel": 1,
      "note": 60,
      "start": 2.7869,
      "duration": 0.0415,
      "velocity": 112,
      "chip": "ym2612"
    },
    {
      "channel": 3,
      "note": 55,
      "start": 2.7881,
      "duration": 0.0407,
      "velocity": 113,
      "chip": "ym2612"
    },
    {
      "channel": 0,
      "note": 38,
      "start": 2.8245,
      "duration": 0.0199,
      "velocity": 107,
      "chip": "ym2612"
    },
    {
      "channel": 4,
      "note": 50,
      "start": 2.8249,
      "duration": 0.0201,
      "velocity": 91,
      "chip": "ym2612"
    },
    {
      "channel": 1,
      "note": 62,
      "start": 2.8287,
      "duration": 0.02,
      "velocity": 112,
      "chip": "ym2612"
    },
    {
      "channel": 3,
      "note": 57,
      "start": 2.8289,
      "duration": 0.0202,
      "velocity": 113,
      "chip": "ym2612"
    },
    {
      "channel": 0,
      "note": 38,
      "start": 2.8446,
      "duration": 0.0099,
      "velocity": 107,
      "chip": "ym2612"
    },
    {
      "channel": 4,
      "note": 50,
      "start": 2.8453,
      "duration": 0.0441,
      "velocity": 91,
      "chip": "ym2612"
    },
    {
      "channel": 1,
      "note": 62,
      "start": 2.849,
      "duration": 0.0206,
      "velocity": 107,
      "chip": "ym2612"
    },
    {
      "channel": 3,
      "note": 57,
      "start": 2.8493,
      "duration": 0.0215,
      "velocity": 107,
      "chip": "ym2612"
    },
    {
      "channel": 0,
      "note": 38,
      "start": 2.8669,
      "duration": 0.0105,
      "velocity": 107,
      "chip": "ym2612"
    },
    {
      "channel": 1,
      "note": 50,
      "start": 2.8697,
      "duration": 0.0102,
      "velocity": 107,
      "chip": "ym2612"
    },
    {
      "channel": 3,
      "note": 50,
      "start": 2.8708,
      "duration": 0.0091,
      "velocity": 107,
      "chip": "ym2612"
    },
    {
      "channel": 0,
      "note": 38,
      "start": 2.8893,
      "duration": 0.0111,
      "velocity": 107,
      "chip": "ym2612"
    },
    {
      "channel": 4,
      "note": 50,
      "start": 2.8896,
      "duration": 0.0209,
      "velocity": 91,
      "chip": "ym2612"
    },
    {
      "channel": 1,
      "note": 62,
      "start": 2.8923,
      "duration": 0.0205,
      "velocity": 107,
      "chip": "ym2612"
    },
    {
      "channel": 3,
      "note": 57,
      "start": 2.8936,
      "duration": 0.0204,
      "velocity": 107,
      "chip": "ym2612"
    },
    {
      "channel": 0,
      "note": 38,
      "start": 2.9101,
      "duration": 0.0106,
      "velocity": 107,
      "chip": "ym2612"
    },
    {
      "channel": 4,
      "note": 50,
      "start": 2.9107,
      "duration": 0.0191,
      "velocity": 91,
      "chip": "ym2612"
    },
    {
      "channel": 1,
      "note": 50,
      "start": 2.913,
      "duration": 0.0094,
      "velocity": 107,
      "chip": "ym2612"
    },
    {
      "channel": 3,
      "note": 50,
      "start": 2.9143,
      "duration": 0.0083,
      "velocity": 107,
      "chip": "ym2612"
    },
    {
      "channel": 0,
      "note": 38,
      "start": 2.9297,
      "duration": 0.0088,
      "velocity": 107,
      "chip": "ym2612"
    },
    {
      "channel": 4,
      "note": 50,
      "start": 2.93,
      "duration": 0.0176,
      "velocity": 91,
      "chip": "ym2612"
    },
    {
      "channel": 1,
      "note": 50,
      "start": 2.9333,
      "duration": 0.0084,
      "velocity": 107,
      "chip": "ym2612"
    },
    {
      "channel": 3,
      "note": 50,
      "start": 2.9336,
      "duration": 0.0082,
      "velocity": 107,
      "chip": "ym2612"
    },
    {
      "channel": 0,
      "note": 38,
      "start": 2.9475,
      "duration": 0.0133,
      "velocity": 107,
      "chip": "ym2612"
    },
    {
      "channel": 4,
      "note": 50,
      "start": 2.9478,
      "duration": 0.0241,
      "velocity": 91,
      "chip": "ym2612"
    },
    {
      "channel": 1,
      "note": 50,
      "start": 2.9554,
      "duration": 0.0085,
      "velocity": 107,
      "chip": "ym2612"
    },
    {
      "channel": 3,
      "note": 50,
      "start": 2.9557,
      "duration": 0.0083,
      "velocity": 107,
      "chip": "ym2612"
    },
    {
      "channel": 0,
      "note": 38,
      "start": 2.9716,
      "duration": 0.0114,
      "velocity": 107,
      "chip": "ym2612"
    },
    {
      "channel": 4,
      "note": 50,
      "start": 2.9721,
      "duration": 0.0217,
      "velocity": 91,
      "chip": "ym2612"
    },
    {
      "channel": 1,
      "note": 62,
      "start": 2.9764,
      "duration": 0.0205,
      "velocity": 107,
      "chip": "ym2612"
    },
    {
      "channel": 3,
      "note": 57,
      "start": 2.9775,
      "duration": 0.0207,
      "velocity": 107,
      "chip": "ym2612"
    },
    {
      "channel": 0,
      "note": 38,
      "start": 2.9934,
      "duration": 0.0098,
      "velocity": 107,
      "chip": "ym2612"
    },
    {
      "channel": 4,
      "note": 50,
      "start": 2.9941,
      "duration": 0.019,
      "velocity": 91,
      "chip": "ym2612"
    },
    {
      "channel": 1,
      "note": 50,
      "start": 2.9971,
      "duration": 0.0094,
      "velocity": 107,
      "chip": "ym2612"
    },
    {
      "channel": 3,
      "note": 50,
      "start": 2.9985,
      "duration": 0.0081,
      "velocity": 107,
      "chip": "ym2612"
    },
    {
      "channel": 0,
      "note": 38,
      "start": 3.0129,
      "duration": 0.0102,
      "velocity": 107,
      "chip": "ym2612"
    },
    {
      "channel": 4,
      "note": 50,
      "start": 3.0134,
      "duration": 0.0209,
      "velocity": 91,
      "chip": "ym2612"
    },
    {
      "channel": 1,
      "note": 50,
      "start": 3.0169,
      "duration": 0.0095,
      "velocity": 107,
      "chip": "ym2612"
    },
    {
      "channel": 3,
      "note": 50,
      "start": 3.0173,
      "duration": 0.0092,
      "velocity": 107,
      "chip": "ym2612"
    },
    {
      "channel": 0,
      "note": 38,
      "start": 3.0341,
      "duration": 0.0102,
      "velocity": 107,
      "chip": "ym2612"
    },
    {
      "channel": 4,
      "note": 50,
      "start": 3.0345,
      "duration": 0.0219,
      "velocity": 91,
      "chip": "ym2612"
    },
    {
      "channel": 1,
      "note": 62,
      "start": 3.0385,
      "duration": 0.0222,
      "velocity": 107,
      "chip": "ym2612"
    },
    {
      "channel": 3,
      "note": 57,
      "start": 3.0397,
      "duration": 0.0222,
      "velocity": 107,
      "chip": "ym2612"
    },
    {
      "channel": 0,
      "note": 38,
      "start": 3.056,
      "duration": 0.0113,
      "velocity": 107,
      "chip": "ym2612"
    },
    {
      "channel": 4,
      "note": 50,
      "start": 3.0567,
      "duration": 0.0198,
      "velocity": 91,
      "chip": "ym2612"
    },
    {
      "channel": 1,
      "note": 50,
      "start": 3.061,
      "duration": 0.0095,
      "velocity": 107,
      "chip": "ym2612"
    },
    {
      "channel": 3,
      "note": 50,
      "start": 3.0622,
      "duration": 0.0084,
      "velocity": 107,
      "chip": "ym2612"
    },
    {
      "channel": 0,
      "note": 38,
      "start": 3.0764,
      "duration": 0.0103,
      "velocity": 107,
      "chip": "ym2612"
    },
    {
      "channel": 4,
      "note": 50,
      "start": 3.0766,
      "duration": 0.0198,
      "velocity": 91,
      "chip": "ym2612"
    },
    {
      "channel": 1,
      "note": 62,
      "start": 3.0805,
      "duration": 0.02,
      "velocity": 107,
      "chip": "ym2612"
    },
    {
      "channel": 3,
      "note": 57,
      "start": 3.0817,
      "duration": 0.0201,
      "velocity": 107,
      "chip": "ym2612"
    },
    {
      "channel": 0,
      "note": 38,
      "start": 3.096,
      "duration": 0.0107,
      "velocity": 107,
      "chip": "ym2612"
    },
    {
      "channel": 4,
      "note": 50,
      "start": 3.0966,
      "duration": 0.0221,
      "velocity": 91,
      "chip": "ym2612"
    },
    {
      "channel": 1,
      "note": 50,
      "start": 3.1007,
      "duration": 0.0093,
      "velocity": 107,
      "chip": "ym2612"
    },
    {
      "channel": 3,
      "note": 50,
      "start": 3.1019,
      "duration": 0.0082,
      "velocity": 107,
      "chip": "ym2612"
    },
    {
      "channel": 0,
      "note": 36,
      "start": 3.1186,
      "duration": 0.0415,
      "velocity": 107,
      "chip": "ym2612"
    },
    {
      "channel": 4,
      "note": 48,
      "start": 3.119,
      "duration": 0.0416,
      "velocity": 91,
      "chip": "ym2612"
    },
    {
      "channel": 1,
      "note": 60,
      "start": 3.1231,
      "duration": 0.041,
      "velocity": 112,
      "chip": "ym2612"
    },
    {
      "channel": 3,
      "note": 55,
      "start": 3.1244,
      "duration": 0.0401,
      "velocity": 113,
      "chip": "ym2612"
    },
    {
      "channel": 0,
      "note": 38,
      "start": 3.1602,
      "duration": 0.02,
      "velocity": 107,
      "chip": "ym2612"
    },
    {
      "channel": 4,
      "note": 50,
      "start": 3.1608,
      "duration": 0.0202,
      "velocity": 91,
      "chip": "ym2612"
    },
    {
      "channel": 1,
      "note": 62,
      "start": 3.1644,
      "duration": 0.0203,
      "velocity": 112,
      "chip": "ym2612"
    },
    {
      "channel": 3,
      "note": 57,
      "start": 3.1646,
      "duration": 0.0204,
      "velocity": 113,
      "chip": "ym2612"
    },
    {
      "channel": 0,
      "note": 38,
      "start": 3.1806,
      "duration": 0.0097,
      "velocity": 107,
      "chip": "ym2612"
    },
    {
      "channel": 4,
      "note": 50,
      "start": 3.1811,
      "duration": 0.0427,
      "velocity": 91,
      "chip": "ym2612"
    },
    {
      "channel": 1,
      "note": 62,
      "start": 3.185,
      "duration": 0.0217,
      "velocity": 107,
      "chip": "ym2612"
    },
    {
      "channel": 3,
      "note": 57,
      "start": 3.1851,
      "duration": 0.0227,
      "velocity": 107,
      "chip": "ym2612"
    },
    {
      "channel": 0,
      "note": 38,
      "start": 3.2021,
      "duration": 0.011,
      "velocity": 107,
      "chip": "ym2612"
    },
    {
      "channel": 1,
      "note": 50,
      "start": 3.2068,
      "duration": 0.0093,
      "velocity": 107,
      "chip": "ym2612"
    },
    {
      "channel": 3,
      "note": 50,
      "start": 3.2081,
      "duration": 0.0082,
      "velocity": 107,
      "chip": "ym2612"
    },
    {
      "channel": 0,
      "note": 38,
      "start": 3.2236,
      "duration": 0.011,
      "velocity": 107,
      "chip": "ym2612"
    },
    {
      "channel": 4,
      "note": 50,
      "start": 3.2241,
      "duration": 0.0208,
      "velocity": 91,
      "chip": "ym2612"
    },
    {
      "channel": 1,
      "note": 62,
      "start": 3.228,
      "duration": 0.0214,
      "velocity": 107,
      "chip": "ym2612"
    },
    {
      "channel": 3,
      "note": 57,
      "start": 3.2293,
      "duration": 0.0214,
      "velocity": 107,
      "chip": "ym2612"
    },
    {
      "channel": 0,
      "note": 38,
      "start": 3.2445,
      "duration": 0.0115,
      "velocity": 107,
      "chip": "ym2612"
    },
    {
      "channel": 4,
      "note": 50,
      "start": 3.2451,
      "duration": 0.0212,
      "velocity": 91,
      "chip": "ym2612"
    },
    {
      "channel": 1,
      "note": 50,
      "start": 3.2496,
      "duration": 0.0095,
      "velocity": 107,
      "chip": "ym2612"
    },
    {
      "channel": 3,
      "note": 50,
      "start": 3.2509,
      "duration": 0.0083,
      "velocity": 107,
      "chip": "ym2612"
    },
    {
      "channel": 0,
      "note": 38,
      "start": 3.2661,
      "duration": 0.0101,
      "velocity": 107,
      "chip": "ym2612"
    },
    {
      "channel": 4,
      "note": 50,
      "start": 3.2666,
      "duration": 0.019,
      "velocity": 91,
      "chip": "ym2612"
    },
    {
      "channel": 1,
      "note": 50,
      "start": 3.2687,
      "duration": 0.0092,
      "velocity": 107,
      "chip": "ym2612"
    },
    {
      "channel": 3,
      "note": 50,
      "start": 3.2689,
      "duration": 0.009,
      "velocity": 107,
      "chip": "ym2612"
    },
    {
      "channel": 0,
      "note": 38,
      "start": 3.2855,
      "duration": 0.009,
      "velocity": 107,
      "chip": "ym2612"
    },
    {
      "channel": 4,
      "note": 50,
      "start": 3.2858,
      "duration": 0.0193,
      "velocity": 91,
      "chip": "ym2612"
    },
    {
      "channel": 1,
      "note": 50,
      "start": 3.2876,
      "duration": 0.0088,
      "velocity": 107,
      "chip": "ym2612"
    },
    {
      "channel": 3,
      "note": 50,
      "start": 3.2879,
      "duration": 0.0086,
      "velocity": 107,
      "chip": "ym2612"
    },
    {
      "channel": 0,
      "note": 38,
      "start": 3.3048,
      "duration": 0.0108,
      "velocity": 107,
      "chip": "ym2612"
    },
    {
      "channel": 4,
      "note": 50,
      "start": 3.3051,
      "duration": 0.0213,
      "velocity": 91,
      "chip": "ym2612"
    },
    {
      "channel": 1,
      "note": 62,
      "start": 3.308,
      "duration": 0.0211,
      "velocity": 107,
      "chip": "ym2612"
    },
    {
      "channel": 3,
      "note": 57,
      "start": 3.3092,
      "duration": 0.021,
      "velocity": 107,
      "chip": "ym2612"
    },
    {
      "channel": 0,
      "note": 38,
      "start": 3.3262,
      "duration": 0.0106,
      "velocity": 107,
      "chip": "ym2612"
    },
    {
      "channel": 4,
      "note": 50,
      "start": 3.3266,
      "duration": 0.0195,
      "velocity": 91,
      "chip": "ym2612"
    },
    {
      "channel": 1,
      "note": 50,
      "start": 3.3293,
      "duration": 0.0093,
      "velocity": 107,
      "chip": "ym2612"
    },
    {
      "channel": 3,
      "note": 50,
      "start": 3.3304,
      "duration": 0.0083,
      "velocity": 107,
      "chip": "ym2612"
    },
    {
      "channel": 0,
      "note": 38,
      "start": 3.346,
      "duration": 0.0088,
      "velocity": 107,
      "chip": "ym2612"
    },
    {
      "channel": 4,
      "note": 50,
      "start": 3.3464,
      "duration": 0.0179,
      "velocity": 91,
      "chip": "ym2612"
    },
    {
      "channel": 1,
      "note": 50,
      "start": 3.3496,
      "duration": 0.0086,
      "velocity": 107,
      "chip": "ym2612"
    },
    {
      "channel": 3,
      "note": 50,
      "start": 3.3499,
      "duration": 0.0083,
      "velocity": 107,
      "chip": "ym2612"
    },
    {
      "channel": 0,
      "note": 38,
      "start": 3.3641,
      "duration": 0.0104,
      "velocity": 107,
      "chip": "ym2612"
    },
    {
      "channel": 4,
      "note": 50,
      "start": 3.3645,
      "duration": 0.0227,
      "velocity": 91,
      "chip": "ym2612"
    },
    {
      "channel": 1,
      "note": 62,
      "start": 3.3682,
      "duration": 0.0234,
      "velocity": 107,
      "chip": "ym2612"
    },
    {
      "channel": 3,
      "note": 57,
      "start": 3.3694,
      "duration": 0.0236,
      "velocity": 107,
      "chip": "ym2612"
    },
    {
      "channel": 0,
      "note": 38,
      "start": 3.3868,
      "duration": 0.0115,
      "velocity": 107,
      "chip": "ym2612"
    },
    {
      "channel": 4,
      "note": 50,
      "start": 3.3874,
      "duration": 0.0203,
      "velocity": 91,
      "chip": "ym2612"
    },
    {
      "channel": 1,
      "note": 50,
      "start": 3.392,
      "duration": 0.0098,
      "velocity": 107,
      "chip": "ym2612"
    },
    {
      "channel": 3,
      "note": 50,
      "start": 3.3932,
      "duration": 0.0087,
      "velocity": 107,
      "chip": "ym2612"
    },
    {
      "channel": 0,
      "note": 38,
      "start": 3.4076,
      "duration": 0.0101,
      "velocity": 107,
      "chip": "ym2612"
    },
    {
      "channel": 4,
      "note": 50,
      "start": 3.408,
      "duration": 0.0201,
      "velocity": 91,
      "chip": "ym2612"
    },
    {
      "channel": 1,
      "note": 62,
      "start": 3.4117,
      "duration": 0.0205,
      "velocity": 107,
      "chip": "ym2612"
    },
    {
      "channel": 3,
      "note": 57,
      "start": 3.4129,
      "duration": 0.0205,
      "velocity": 107,
      "chip": "ym2612"
    },
    {
      "channel": 0,
      "note": 38,
      "start": 3.4276,
      "duration": 0.0114,
      "velocity": 107,
      "chip": "ym2612"
    },
    {
      "channel": 4,
      "note": 50,
      "start": 3.4283,
      "duration": 0.0222,
      "velocity": 91,
      "chip": "ym2612"
    },
    {
      "channel": 1,
      "note": 50,
      "start": 3.4324,
      "duration": 0.0099,
      "velocity": 107,
      "chip": "ym2612"
    },
    {
      "channel": 3,
      "note": 50,
      "start": 3.4336,
      "duration": 0.0088,
      "velocity": 107,
      "chip": "ym2612"
    },
    {
      "channel": 0,
      "note": 36,
      "start": 3.4503,
      "duration": 0.041,
      "velocity": 107,
      "chip": "ym2612"
    },
    {
      "channel": 4,
      "note": 48,
      "start": 3.4507,
      "duration": 0.0411,
      "velocity": 91,
      "chip": "ym2612"
    },
    {
      "channel": 1,
      "note": 60,
      "start": 3.455,
      "duration": 0.0405,
      "velocity": 112,
      "chip": "ym2612"
    },
    {
      "channel": 3,
      "note": 55,
      "start": 3.4562,
      "duration": 0.0397,
      "velocity": 113,
      "chip": "ym2612"
    },
    {
      "channel": 0,
      "note": 38,
      "start": 3.4915,
      "duration": 0.0206,
      "velocity": 107,
      "chip": "ym2612"
    },
    {
      "channel": 4,
      "note": 50,
      "start": 3.492,
      "duration": 0.0207,
      "velocity": 91,
      "chip": "ym2612"
    },
    {
      "channel": 1,
      "note": 62,
      "start": 3.4958,
      "duration": 0.0202,
      "velocity": 112,
      "chip": "ym2612"
    },
    {
      "channel": 3,
      "note": 57,
      "start": 3.496,
      "duration": 0.0202,
      "velocity": 113,
      "chip": "ym2612"
    },
    {
      "channel": 0,
      "note": 38,
      "start": 3.5123,
      "duration": 0.0091,
      "velocity": 107,
      "chip": "ym2612"
    },
    {
      "channel": 4,
      "note": 50,
      "start": 3.5129,
      "duration": 0.042,
      "velocity": 91,
      "chip": "ym2612"
    },
    {
      "channel": 1,
      "note": 62,
      "start": 3.5161,
      "duration": 0.0212,
      "velocity": 107,
      "chip": "ym2612"
    },
    {
      "channel": 3,
      "note": 57,
      "start": 3.5164,
      "duration": 0.0222,
      "velocity": 107,
      "chip": "ym2612"
    },
    {
      "channel": 0,
      "note": 38,
      "start": 3.5329,
      "duration": 0.0106,
      "velocity": 107,
      "chip": "ym2612"
    },
    {
      "channel": 1,
      "note": 50,
      "start": 3.5375,
      "duration": 0.0093,
      "velocity": 107,
      "chip": "ym2612"
    },
    {
      "channel": 3,
      "note": 50,
      "start": 3.5388,
      "duration": 0.0081,
      "velocity": 107,
      "chip": "ym2612"
    },
    {
      "channel": 0,
      "note": 38,
      "start": 3.5548,
      "duration": 0.0108,
      "velocity": 107,
      "chip": "ym2612"
    },
    {
      "channel": 4,
      "note": 50,
      "start": 3.5551,
      "duration": 0.0211,
      "velocity": 91,
      "chip": "ym2612"
    },
    {
      "channel": 1,
      "note": 62,
      "start": 3.5593,
      "duration": 0.0212,
      "velocity": 107,
      "chip": "ym2612"
    },
    {
      "channel": 3,
      "note": 57,
      "start": 3.5604,
      "duration": 0.0213,
      "velocity": 107,
      "chip": "ym2612"
    },
    {
      "channel": 0,
      "note": 38,
      "start": 3.5757,
      "duration": 0.0113,
      "velocity": 107,
      "chip": "ym2612"
    },
    {
      "channel": 4,
      "note": 50,
      "start": 3.5763,
      "duration": 0.0204,
      "velocity": 91,
      "chip": "ym2612"
    },
    {
      "channel": 1,
      "note": 50,
      "start": 3.5807,
      "duration": 0.01,
      "velocity": 107,
      "chip": "ym2612"
    },
    {
      "channel": 3,
      "note": 50,
      "start": 3.5818,
      "duration": 0.0089,
      "velocity": 107,
      "chip": "ym2612"
    },
    {
      "channel": 0,
      "note": 38,
      "start": 3.5965,
      "duration": 0.009,
      "velocity": 107,
      "chip": "ym2612"
    },
    {
      "channel": 4,
      "note": 50,
      "start": 3.5968,
      "duration": 0.0183,
      "velocity": 91,
      "chip": "ym2612"
    },
    {
      "channel": 1,
      "note": 50,
      "start": 3.6002,
      "duration": 0.0088,
      "velocity": 107,
      "chip": "ym2612"
    },
    {
      "channel": 3,
      "note": 50,
      "start": 3.6004,
      "duration": 0.0086,
      "velocity": 107,
      "chip": "ym2612"
    },
    {
      "channel": 0,
      "note": 38,
      "start": 3.6151,
      "duration": 0.0125,
      "velocity": 107,
      "chip": "ym2612"
    },
    {
      "channel": 4,
      "note": 50,
      "start": 3.6155,
      "duration": 0.0239,
      "velocity": 91,
      "chip": "ym2612"
    },
    {
      "channel": 1,
      "note": 50,
      "start": 3.6228,
      "duration": 0.0083,
      "velocity": 107,
      "chip": "ym2612"
    },
    {
      "channel": 3,
      "note": 50,
      "start": 3.6231,
      "duration": 0.0082,
      "velocity": 107,
      "chip": "ym2612"
    },
    {
      "channel": 0,
      "note": 38,
      "start": 3.6393,
      "duration": 0.022,
      "velocity": 107,
      "chip": "ym2612"
    },
    {
      "channel": 4,
      "note": 50,
      "start": 3.6396,
      "duration": 0.0223,
      "velocity": 91,
      "chip": "ym2612"
    },
    {
      "channel": 1,
      "note": 62,
      "start": 3.6437,
      "duration": 0.0217,
      "velocity": 112,
      "chip": "ym2612"
    },
    {
      "channel": 3,
      "note": 57,
      "start": 3.6448,
      "duration": 0.0208,
      "velocity": 113,
      "chip": "ym2612"
    },
    {
      "channel": 0,
      "note": 36,
      "start": 3.6615,
      "duration": 0.0207,
      "velocity": 107,
      "chip": "ym2612"
    },
    {
      "channel": 4,
      "note": 48,
      "start": 3.6621,
      "duration": 0.0207,
      "velocity": 91,
      "chip": "ym2612"
    },
    {
      "channel": 1,
      "note": 60,
      "start": 3.6656,
      "duration": 0.019,
      "velocity": 112,
      "chip": "ym2612"
    },
    {
      "channel": 3,
      "note": 55,
      "start": 3.6658,
      "duration": 0.019,
      "velocity": 113,
      "chip": "ym2612"
    },
    {
      "channel": 0,
      "note": 43,
      "start": 3.6825,
      "duration": 0.0196,
      "velocity": 107,
      "chip": "ym2612"
    },
    {
      "channel": 4,
      "note": 67,
      "start": 3.6831,
      "duration": 0.0194,
      "velocity": 91,
      "chip": "ym2612"
    },
    {
      "channel": 1,
      "note": 67,
      "start": 3.6848,
      "duration": 0.0192,
      "velocity": 112,
      "chip": "ym2612"
    },
    {
      "channel": 3,
      "note": 62,
      "start": 3.6851,
      "duration": 0.0191,
      "velocity": 113,
      "chip": "ym2612"
    },
    {
      "channel": 0,
      "note": 65,
      "start": 3.778,
      "duration": 0.0227,
      "velocity": 107,
      "chip": "ym2612"
    },
    {
      "channel": 4,
      "note": 48,
      "start": 3.7785,
      "duration": 0.0229,
      "velocity": 91,
      "chip": "ym2612"
    },
    {
      "channel": 1,
      "note": 60,
      "start": 3.782,
      "duration": 0.023,
      "velocity": 112,
      "chip": "ym2612"
    },
    {
      "channel": 3,
      "note": 55,
      "start": 3.7825,
      "duration": 0.023,
      "velocity": 113,
      "chip": "ym2612"
    },
    {
      "channel": 0,
      "note": 62,
      "start": 3.801,
      "duration": 0.0095,
      "velocity": 107,
      "chip": "ym2612"
    },
    {
      "channel": 4,
      "note": 50,
      "start": 3.8016,
      "duration": 0.0429,
      "velocity": 91,
      "chip": "ym2612"
    },
    {
      "channel": 1,
      "note": 57,
      "start": 3.8053,
      "duration": 0.0089,
      "velocity": 112,
      "chip": "ym2612"
    },
    {
      "channel": 3,
      "note": 50,
      "start": 3.8058,
      "duration": 0.0088,
      "velocity": 113,
      "chip": "ym2612"
    },
    {
      "channel": 0,
      "note": 62,
      "start": 3.8107,
      "duration": 0.0116,
      "velocity": 107,
      "chip": "ym2612"
    },
    {
      "channel": 1,
      "note": 57,
      "start": 3.8145,
      "duration": 0.0117,
      "velocity": 112,
      "chip": "ym2612"
    },
    {
      "channel": 3,
      "note": 50,
      "start": 3.8147,
      "duration": 0.0117,
      "velocity": 113,
      "chip": "ym2612"
    },
    {
      "channel": 0,
      "note": 62,
      "start": 3.8225,
      "duration": 0.01,
      "velocity": 107,
      "chip": "ym2612"
    },
    {
      "channel": 1,
      "note": 57,
      "start": 3.8263,
      "duration": 0.01,
      "velocity": 112,
      "chip": "ym2612"
    },
    {
      "channel": 3,
      "note": 50,
      "start": 3.8266,
      "duration": 0.01,
      "velocity": 113,
      "chip": "ym2612"
    },
    {
      "channel": 0,
      "note": 62,
      "start": 3.8328,
      "duration": 0.0113,
      "velocity": 107,
      "chip": "ym2612"
    },
    {
      "channel": 1,
      "note": 57,
      "start": 3.8365,
      "duration": 0.0119,
      "velocity": 112,
      "chip": "ym2612"
    },
    {
      "channel": 3,
      "note": 50,
      "start": 3.8368,
      "duration": 0.0119,
      "velocity": 113,
      "chip": "ym2612"
    },
    {
      "channel": 0,
      "note": 62,
      "start": 3.8442,
      "duration": 0.01,
      "velocity": 107,
      "chip": "ym2612"
    },
    {
      "channel": 4,
      "note": 50,
      "start": 3.8447,
      "duration": 0.0218,
      "velocity": 91,
      "chip": "ym2612"
    },
    {
      "channel": 1,
      "note": 57,
      "start": 3.8486,
      "duration": 0.0094,
      "velocity": 112,
      "chip": "ym2612"
    },
    {
      "channel": 3,
      "note": 50,
      "start": 3.849,
      "duration": 0.0093,
      "velocity": 113,
      "chip": "ym2612"
    },
    {
      "channel": 0,
      "note": 62,
      "start": 3.8545,
      "duration": 0.0113,
      "velocity": 107,
      "chip": "ym2612"
    },
    {
      "channel": 1,
      "note": 57,
      "start": 3.8582,
      "duration": 0.0119,
      "velocity": 112,
      "chip": "ym2612"
    },
    {
      "channel": 3,
      "note": 50,
      "start": 3.8585,
      "duration": 0.012,
      "velocity": 113,
      "chip": "ym2612"
    },
    {
      "channel": 0,
      "note": 67,
      "start": 3.866,
      "duration": 0.0218,
      "velocity": 107,
      "chip": "ym2612"
    },
    {
      "channel": 4,
      "note": 50,
      "start": 3.8666,
      "duration": 0.0217,
      "velocity": 91,
      "chip": "ym2612"
    },
    {
      "channel": 1,
      "note": 62,
      "start": 3.8703,
      "duration": 0.0218,
      "velocity": 112,
      "chip": "ym2612"
    },
    {
      "channel": 3,
      "note": 55,
      "start": 3.8707,
      "duration": 0.0217,
      "velocity": 113,
      "chip": "ym2612"
    },
    {
      "channel": 0,
      "note": 62,
      "start": 3.8881,
      "duration": 0.0119,
      "velocity": 107,
      "chip": "ym2612"
    },
    {
      "channel": 4,
      "note": 50,
      "start": 3.8885,
      "duration": 0.022,
      "velocity": 91,
      "chip": "ym2612"
    },
    {
      "channel": 1,
      "note": 57,
      "start": 3.8923,
      "duration": 0.0098,
      "velocity": 112,
      "chip": "ym2612"
    },
    {
      "channel": 3,
      "note": 50,
      "start": 3.8927,
      "duration": 0.0097,
      "velocity": 113,
      "chip": "ym2612"
    },
    {
      "channel": 0,
      "note": 62,
      "start": 3.9002,
      "duration": 0.0098,
      "velocity": 107,
      "chip": "ym2612"
    },
    {
      "channel": 1,
      "note": 57,
      "start": 3.9024,
      "duration": 0.0117,
      "velocity": 112,
      "chip": "ym2612"
    },
    {
      "channel": 3,
      "note": 50,
      "start": 3.9026,
      "duration": 0.0118,
      "velocity": 113,
      "chip": "ym2612"
    },
    {
      "channel": 0,
      "note": 62,
      "start": 3.9102,
      "duration": 0.0116,
      "velocity": 107,
      "chip": "ym2612"
    },
    {
      "channel": 4,
      "note": 50,
      "start": 3.9107,
      "duration": 0.0216,
      "velocity": 91,
      "chip": "ym2612"
    },
    {
      "channel": 1,
      "note": 57,
      "start": 3.9143,
      "duration": 0.0099,
      "velocity": 112,
      "chip": "ym2612"
    },
    {
      "channel": 3,
      "note": 50,
      "start": 3.9146,
      "duration": 0.0099,
      "velocity": 113,
      "chip": "ym2612"
    },
    {
      "channel": 0,
      "note": 62,
      "start": 3.922,
      "duration": 0.0098,
      "velocity": 107,
      "chip": "ym2612"
    },
    {
      "channel": 1,
      "note": 57,
      "start": 3.9243,
      "duration": 0.0119,
      "velocity": 112,
      "chip": "ym2612"
    },
    {
      "channel": 3,
      "note": 50,
      "start": 3.9247,
      "duration": 0.0118,
      "velocity": 113,
      "chip": "ym2612"
    },
    {
      "channel": 0,
      "note": 62,
      "start": 3.9321,
      "duration": 0.0112,
      "velocity": 107,
      "chip": "ym2612"
    },
    {
      "channel": 4,
      "note": 50,
      "start": 3.9326,
      "duration": 0.0194,
      "velocity": 91,
      "chip": "ym2612"
    },
    {
      "channel": 1,
      "note": 57,
      "start": 3.9363,
      "duration": 0.0094,
      "velocity": 112,
      "chip": "ym2612"
    },
    {
      "channel": 3,
      "note": 50,
      "start": 3.9366,
      "duration": 0.0094,
      "velocity": 113,
      "chip": "ym2612"
    },
    {
      "channel": 0,
      "note": 62,
      "start": 3.9434,
      "duration": 0.008,
      "velocity": 107,
      "chip": "ym2612"
    },
    {
      "channel": 1,
      "note": 57,
      "start": 3.9459,
      "duration": 0.0098,
      "velocity": 112,
      "chip": "ym2612"
    },
    {
      "channel": 3,
      "note": 50,
      "start": 3.9462,
      "duration": 0.01,
      "velocity": 113,
      "chip": "ym2612"
    },
    {
      "channel": 0,
      "note": 65,
      "start": 3.9516,
      "duration": 0.0232,
      "velocity": 107,
      "chip": "ym2612"
    },
    {
      "channel": 4,
      "note": 48,
      "start": 3.9521,
      "duration": 0.0231,
      "velocity": 91,
      "chip": "ym2612"
    },
    {
      "channel": 1,
      "note": 60,
      "start": 3.956,
      "duration": 0.0228,
      "velocity": 112,
      "chip": "ym2612"
    },
    {
      "channel": 3,
      "note": 48,
      "start": 3.9565,
      "duration": 0.0227,
      "velocity": 113,
      "chip": "ym2612"
    },
    {
      "channel": 0,
      "note": 62,
      "start": 3.9749,
      "duration": 0.0112,
      "velocity": 107,
      "chip": "ym2612"
    },
    {
      "channel": 4,
      "note": 50,
      "start": 3.9754,
      "duration": 0.0426,
      "velocity": 91,
      "chip": "ym2612"
    },
    {
      "channel": 1,
      "note": 57,
      "start": 3.979,
      "duration": 0.0111,
      "velocity": 112,
      "chip": "ym2612"
    },
    {
      "channel": 3,
      "note": 50,
      "start": 3.9795,
      "duration": 0.0109,
      "velocity": 113,
      "chip": "ym2612"
    },
    {
      "channel": 0,
      "note": 62,
      "start": 3.9864,
      "duration": 0.0102,
      "velocity": 107,
      "chip": "ym2612"
    },
    {
      "channel": 1,
      "note": 57,
      "start": 3.9904,
      "duration": 0.01,
      "velocity": 112,
      "chip": "ym2612"
    },
    {
      "channel": 3,
      "note": 50,
      "start": 3.9906,
      "duration": 0.0102,
      "velocity": 113,
      "chip": "ym2612"
    },
    {
      "channel": 0,
      "note": 65,
      "start": 3.9968,
      "duration": 0.0205,
      "velocity": 107,
      "chip": "ym2612"
    },
    {
      "channel": 1,
      "note": 60,
      "start": 4.0005,
      "duration": 0.021,
      "velocity": 112,
      "chip": "ym2612"
    },
    {
      "channel": 3,
      "note": 65,
      "start": 4.0009,
      "duration": 0.021,
      "velocity": 113,
      "chip": "ym2612"
    },
    {
      "channel": 0,
      "note": 67,
      "start": 4.0177,
      "duration": 0.0421,
      "velocity": 107,
      "chip": "ym2612"
    },
    {
      "channel": 4,
      "note": 50,
      "start": 4.0182,
      "duration": 0.0206,
      "velocity": 91,
      "chip": "ym2612"
    },
    {
      "channel": 1,
      "note": 62,
      "start": 4.0218,
      "duration": 0.0423,
      "velocity": 112,
      "chip": "ym2612"
    },
    {
      "channel": 3,
      "note": 55,
      "start": 4.0221,
      "duration": 0.0423,
      "velocity": 113,
      "chip": "ym2612"
    },
    {
      "channel": 4,
      "note": 50,
      "start": 4.039,
      "duration": 0.0215,
      "velocity": 91,
      "chip": "ym2612"
    },
    {
      "channel": 0,
      "note": 67,
      "start": 4.06,
      "duration": 0.0232,
      "velocity": 107,
      "chip": "ym2612"
    },
    {
      "channel": 4,
      "note": 50,
      "start": 4.0606,
      "duration": 0.0232,
      "velocity": 91,
      "chip": "ym2612"
    },
    {
      "channel": 1,
      "note": 62,
      "start": 4.0644,
      "duration": 0.0214,
      "velocity": 112,
      "chip": "ym2612"
    },
    {
      "channel": 3,
      "note": 55,
      "start": 4.0646,
      "duration": 0.0214,
      "velocity": 113,
      "chip": "ym2612"
    },
    {
      "channel": 0,
      "note": 65,
      "start": 4.0835,
      "duration": 0.0215,
      "velocity": 107,
      "chip": "ym2612"
    },
    {
      "channel": 4,
      "note": 50,
      "start": 4.0842,
      "duration": 0.0214,
      "velocity": 91,
      "chip": "ym2612"
    },
    {
      "channel": 1,
      "note": 60,
      "start": 4.0859,
      "duration": 0.0217,
      "velocity": 112,
      "chip": "ym2612"
    },
    {
      "channel": 3,
      "note": 48,
      "start": 4.0862,
      "duration": 0.0216,
      "velocity": 113,
      "chip": "ym2612"
    },
    {
      "channel": 0,
      "note": 62,
      "start": 4.1052,
      "duration": 0.0219,
      "velocity": 107,
      "chip": "ym2612"
    },
    {
      "channel": 4,
      "note": 50,
      "start": 4.1058,
      "duration": 0.022,
      "velocity": 91,
      "chip": "ym2612"
    },
    {
      "channel": 1,
      "note": 57,
      "start": 4.1077,
      "duration": 0.0223,
      "velocity": 112,
      "chip": "ym2612"
    },
    {
      "channel": 3,
      "note": 50,
      "start": 4.108,
      "duration": 0.0225,
      "velocity": 113,
      "chip": "ym2612"
    },
    {
      "channel": 0,
      "note": 65,
      "start": 4.1273,
      "duration": 0.0239,
      "velocity": 107,
      "chip": "ym2612"
    },
    {
      "channel": 4,
      "note": 48,
      "start": 4.1281,
      "duration": 0.0237,
      "velocity": 91,
      "chip": "ym2612"
    },
    {
      "channel": 1,
      "note": 60,
      "start": 4.1302,
      "duration": 0.0254,
      "velocity": 112,
      "chip": "ym2612"
    },
    {
      "channel": 3,
      "note": 55,
      "start": 4.1307,
      "duration": 0.0252,
      "velocity": 113,
      "chip": "ym2612"
    },
    {
      "channel": 0,
      "note": 62,
      "start": 4.1514,
      "duration": 0.01,
      "velocity": 107,
      "chip": "ym2612"
    },
    {
      "channel": 4,
      "note": 50,
      "start": 4.152,
      "duration": 0.0439,
      "velocity": 91,
      "chip": "ym2612"
    },
    {
      "channel": 1,
      "note": 57,
      "start": 4.1558,
      "duration": 0.0092,
      "velocity": 112,
      "chip": "ym2612"
    },
    {
      "channel": 3,
      "note": 50,
      "start": 4.1562,
      "duration": 0.0091,
      "velocity": 113,
      "chip": "ym2612"
    },
    {
      "channel": 0,
      "note": 62,
      "start": 4.1615,
      "duration": 0.0118,
      "velocity": 107,
      "chip": "ym2612"
    },
    {
      "channel": 1,
      "note": 57,
      "start": 4.1652,
      "duration": 0.0117,
      "velocity": 112,
      "chip": "ym2612"
    },
    {
      "channel": 3,
      "note": 50,
      "start": 4.1655,
      "duration": 0.0116,
      "velocity": 113,
      "chip": "ym2612"
    },
    {
      "channel": 0,
      "note": 62,
      "start": 4.1736,
      "duration": 0.0096,
      "velocity": 107,
      "chip": "ym2612"
    },
    {
      "channel": 1,
      "note": 57,
      "start": 4.1771,
      "duration": 0.0102,
      "velocity": 112,
      "chip": "ym2612"
    },
    {
      "channel": 3,
      "note": 50,
      "start": 4.1774,
      "duration": 0.0102,
      "velocity": 113,
      "chip": "ym2612"
    },
    {
      "channel": 0,
      "note": 62,
      "start": 4.1834,
      "duration": 0.0119,
      "velocity": 107,
      "chip": "ym2612"
    },
    {
      "channel": 1,
      "note": 57,
      "start": 4.1875,
      "duration": 0.0119,
      "velocity": 112,
      "chip": "ym2612"
    },
    {
      "channel": 3,
      "note": 50,
      "start": 4.1879,
      "duration": 0.0119,
      "velocity": 113,
      "chip": "ym2612"
    },
    {
      "channel": 0,
      "note": 62,
      "start": 4.1955,
      "duration": 0.0099,
      "velocity": 107,
      "chip": "ym2612"
    },
    {
      "channel": 4,
      "note": 50,
      "start": 4.196,
      "duration": 0.0215,
      "velocity": 91,
      "chip": "ym2612"
    },
    {
      "channel": 1,
      "note": 57,
      "start": 4.1997,
      "duration": 0.0097,
      "velocity": 112,
      "chip": "ym2612"
    },
    {
      "channel": 3,
      "note": 50,
      "start": 4.2,
      "duration": 0.0097,
      "velocity": 113,
      "chip": "ym2612"
    },
    {
      "channel": 0,
      "note": 62,
      "start": 4.2056,
      "duration": 0.0112,
      "velocity": 107,
      "chip": "ym2612"
    },
    {
      "channel": 1,
      "note": 57,
      "start": 4.2095,
      "duration": 0.0114,
      "velocity": 112,
      "chip": "ym2612"
    },
    {
      "channel": 3,
      "note": 50,
      "start": 4.2099,
      "duration": 0.0113,
      "velocity": 113,
      "chip": "ym2612"
    },
    {
      "channel": 0,
      "note": 67,
      "start": 4.2171,
      "duration": 0.0216,
      "velocity": 107,
      "chip": "ym2612"
    },
    {
      "channel": 4,
      "note": 50,
      "start": 4.2177,
      "duration": 0.0215,
      "velocity": 91,
      "chip": "ym2612"
    },
    {
      "channel": 1,
      "note": 62,
      "start": 4.221,
      "duration": 0.0217,
      "velocity": 112,
      "chip": "ym2612"
    },
    {
      "channel": 3,
      "note": 55,
      "start": 4.2214,
      "duration": 0.0216,
      "velocity": 113,
      "chip": "ym2612"
    },
    {
      "channel": 0,
      "note": 62,
      "start": 4.239,
      "duration": 0.0096,
      "velocity": 107,
      "chip": "ym2612"
    },
    {
      "channel": 4,
      "note": 50,
      "start": 4.2394,
      "duration": 0.0216,
      "velocity": 91,
      "chip": "ym2612"
    },
    {
      "channel": 1,
      "note": 57,
      "start": 4.2429,
      "duration": 0.0095,
      "velocity": 112,
      "chip": "ym2612"
    },
    {
      "channel": 3,
      "note": 50,
      "start": 4.2432,
      "duration": 0.0094,
      "velocity": 113,
      "chip": "ym2612"
    },
    {
      "channel": 0,
      "note": 62,
      "start": 4.2488,
      "duration": 0.0116,
      "velocity": 107,
      "chip": "ym2612"
    },
    {
      "channel": 1,
      "note": 57,
      "start": 4.2525,
      "duration": 0.0122,
      "velocity": 112,
      "chip": "ym2612"
    },
    {
      "channel": 3,
      "note": 50,
      "start": 4.2528,
      "duration": 0.0123,
      "velocity": 113,
      "chip": "ym2612"
    },
    {
      "channel": 0,
      "note": 62,
      "start": 4.2606,
      "duration": 0.0103,
      "velocity": 107,
      "chip": "ym2612"
    },
    {
      "channel": 4,
      "note": 50,
      "start": 4.2612,
      "duration": 0.0226,
      "velocity": 91,
      "chip": "ym2612"
    },
    {
      "channel": 1,
      "note": 57,
      "start": 4.2649,
      "duration": 0.0102,
      "velocity": 112,
      "chip": "ym2612"
    },
    {
      "channel": 3,
      "note": 50,
      "start": 4.2652,
      "duration": 0.0102,
      "velocity": 113,
      "chip": "ym2612"
    },
    {
      "channel": 0,
      "note": 62,
      "start": 4.2712,
      "duration": 0.012,
      "velocity": 107,
      "chip": "ym2612"
    },
    {
      "channel": 1,
      "note": 57,
      "start": 4.2754,
      "duration": 0.0123,
      "velocity": 112,
      "chip": "ym2612"
    },
    {
      "channel": 3,
      "note": 50,
      "start": 4.2757,
      "duration": 0.0121,
      "velocity": 113,
      "chip": "ym2612"
    },
    {
      "channel": 0,
      "note": 62,
      "start": 4.2833,
      "duration": 0.0098,
      "velocity": 107,
      "chip": "ym2612"
    },
    {
      "channel": 4,
      "note": 50,
      "start": 4.284,
      "duration": 0.0222,
      "velocity": 91,
      "chip": "ym2612"
    },
    {
      "channel": 1,
      "note": 57,
      "start": 4.2878,
      "duration": 0.0089,
      "velocity": 112,
      "chip": "ym2612"
    },
    {
      "channel": 3,
      "note": 50,
      "start": 4.2881,
      "duration": 0.0089,
      "velocity": 113,
      "chip": "ym2612"
    },
    {
      "channel": 0,
      "note": 62,
      "start": 4.2934,
      "duration": 0.012,
      "velocity": 107,
      "chip": "ym2612"
    },
    {
      "channel": 1,
      "note": 57,
      "start": 4.2969,
      "duration": 0.0131,
      "velocity": 112,
      "chip": "ym2612"
    },
    {
      "channel": 3,
      "note": 50,
      "start": 4.2972,
      "duration": 0.0132,
      "velocity": 113,
      "chip": "ym2612"
    },
    {
      "channel": 0,
      "note": 65,
      "start": 4.3056,
      "duration": 0.0256,
      "velocity": 107,
      "chip": "ym2612"
    },
    {
      "channel": 4,
      "note": 53,
      "start": 4.3064,
      "duration": 0.0254,
      "velocity": 91,
      "chip": "ym2612"
    },
    {
      "channel": 1,
      "note": 60,
      "start": 4.3103,
      "duration": 0.0256,
      "velocity": 112,
      "chip": "ym2612"
    },
    {
      "channel": 3,
      "note": 53,
      "start": 4.3106,
      "duration": 0.0256,
      "velocity": 113,
      "chip": "ym2612"
    },
    {
      "channel": 0,
      "note": 66,
      "start": 4.3315,
      "duration": 0.0216,
      "velocity": 107,
      "chip": "ym2612"
    },
    {
      "channel": 4,
      "note": 54,
      "start": 4.3321,
      "duration": 0.0214,
      "velocity": 91,
      "chip": "ym2612"
    },
    {
      "channel": 1,
      "note": 61,
      "start": 4.3361,
      "duration": 0.021,
      "velocity": 112,
      "chip": "ym2612"
    },
    {
      "channel": 3,
      "note": 54,
      "start": 4.3365,
      "duration": 0.021,
      "velocity": 113,
      "chip": "ym2612"
    },
    {
      "channel": 0,
      "note": 67,
      "start": 4.3532,
      "duration": 0.0204,
      "velocity": 107,
      "chip": "ym2612"
    },
    {
      "channel": 4,
      "note": 55,
      "start": 4.3537,
      "duration": 0.0205,
      "velocity": 91,
      "chip": "ym2612"
    },
    {
      "channel": 1,
      "note": 62,
      "start": 4.3573,
      "duration": 0.0204,
      "velocity": 112,
      "chip": "ym2612"
    },
    {
      "channel": 3,
      "note": 55,
      "start": 4.3576,
      "duration": 0.0204,
      "velocity": 113,
      "chip": "ym2612"
    },
    {
      "channel": 0,
      "note": 60,
      "start": 4.3738,
      "duration": 0.0212,
      "velocity": 107,
      "chip": "ym2612"
    },
    {
      "channel": 4,
      "note": 48,
      "start": 4.3745,
      "duration": 0.0212,
      "velocity": 91,
      "chip": "ym2612"
    },
    {
      "channel": 1,
      "note": 55,
      "start": 4.3778,
      "duration": 0.0215,
      "velocity": 112,
      "chip": "ym2612"
    },
    {
      "channel": 3,
      "note": 48,
      "start": 4.3782,
      "duration": 0.0215,
      "velocity": 113,
      "chip": "ym2612"
    },
    {
      "channel": 0,
      "note": 61,
      "start": 4.3954,
      "duration": 0.0206,
      "velocity": 107,
      "chip": "ym2612"
    },
    {
      "channel": 4,
      "note": 49,
      "start": 4.3959,
      "duration": 0.0207,
      "velocity": 91,
      "chip": "ym2612"
    },
    {
      "channel": 1,
      "note": 56,
      "start": 4.3995,
      "duration": 0.0205,
      "velocity": 112,
      "chip": "ym2612"
    },
    {
      "channel": 3,
      "note": 49,
      "start": 4.3999,
      "duration": 0.0204,
      "velocity": 113,
      "chip": "ym2612"
    },
    {
      "channel": 0,
      "note": 62,
      "start": 4.4162,
      "duration": 0.0215,
      "velocity": 107,
      "chip": "ym2612"
    },
    {
      "channel": 4,
      "note": 50,
      "start": 4.4168,
      "duration": 0.0214,
      "velocity": 91,
      "chip": "ym2612"
    },
    {
      "channel": 1,
      "note": 57,
      "start": 4.4201,
      "duration": 0.0218,
      "velocity": 112,
      "chip": "ym2612"
    },
    {
      "channel": 3,
      "note": 50,
      "start": 4.4205,
      "duration": 0.0219,
      "velocity": 113,
      "chip": "ym2612"
    },
    {
      "channel": 0,
      "note": 65,
      "start": 4.4379,
      "duration": 0.0204,
      "velocity": 107,
      "chip": "ym2612"
    },
    {
      "channel": 4,
      "note": 48,
      "start": 4.4384,
      "duration": 0.0205,
      "velocity": 91,
      "chip": "ym2612"
    },
    {
      "channel": 1,
      "note": 60,
      "start": 4.4422,
      "duration": 0.0207,
      "velocity": 112,
      "chip": "ym2612"
    },
    {
      "channel": 3,
      "note": 55,
      "start": 4.4426,
      "duration": 0.0207,
      "velocity": 113,
      "chip": "ym2612"
    },
    {
      "channel": 0,
      "note": 62,
      "start": 4.4586,
      "duration": 0.0122,
      "velocity": 107,
      "chip": "ym2612"
    },
    {
      "channel": 4,
      "note": 50,
      "start": 4.4592,
      "duration": 0.0434,
      "velocity": 91,
      "chip": "ym2612"
    },
    {
      "channel": 1,
      "note": 57,
      "start": 4.463,
      "duration": 0.0117,
      "velocity": 112,
      "chip": "ym2612"
    },
    {
      "channel": 3,
      "note": 50,
      "start": 4.4635,
      "duration": 0.0115,
      "velocity": 113,
      "chip": "ym2612"
    },
    {
      "channel": 0,
      "note": 62,
      "start": 4.471,
      "duration": 0.0094,
      "velocity": 107,
      "chip": "ym2612"
    },
    {
      "channel": 1,
      "note": 57,
      "start": 4.4749,
      "duration": 0.0095,
      "velocity": 112,
      "chip": "ym2612"
    },
    {
      "channel": 3,
      "note": 50,
      "start": 4.4753,
      "duration": 0.0094,
      "velocity": 113,
      "chip": "ym2612"
    },
    {
      "channel": 0,
      "note": 62,
      "start": 4.4807,
      "duration": 0.011,
      "velocity": 107,
      "chip": "ym2612"
    },
    {
      "channel": 1,
      "note": 57,
      "start": 4.4846,
      "duration": 0.0112,
      "velocity": 112,
      "chip": "ym2612"
    },
    {
      "channel": 3,
      "note": 50,
      "start": 4.4849,
      "duration": 0.0111,
      "velocity": 113,
      "chip": "ym2612"
    },
    {
      "channel": 0,
      "note": 62,
      "start": 4.4919,
      "duration": 0.01,
      "velocity": 107,
      "chip": "ym2612"
    },
    {
      "channel": 1,
      "note": 57,
      "start": 4.496,
      "duration": 0.0102,
      "velocity": 112,
      "chip": "ym2612"
    },
    {
      "channel": 3,
      "note": 50,
      "start": 4.4963,
      "duration": 0.0102,
      "velocity": 113,
      "chip": "ym2612"
    },
    {
      "channel": 0,
      "note": 62,
      "start": 4.5022,
      "duration": 0.0113,
      "velocity": 107,
      "chip": "ym2612"
    },
    {
      "channel": 4,
      "note": 50,
      "start": 4.5028,
      "duration": 0.0239,
      "velocity": 91,
      "chip": "ym2612"
    },
    {
      "channel": 1,
      "note": 57,
      "start": 4.5063,
      "duration": 0.0111,
      "velocity": 112,
      "chip": "ym2612"
    },
    {
      "channel": 3,
      "note": 50,
      "start": 4.5067,
      "duration": 0.011,
      "velocity": 113,
      "chip": "ym2612"
    },
    {
      "channel": 0,
      "note": 62,
      "start": 4.5138,
      "duration": 0.0124,
      "velocity": 107,
      "chip": "ym2612"
    },
    {
      "channel": 1,
      "note": 57,
      "start": 4.5177,
      "duration": 0.0112,
      "velocity": 112,
      "chip": "ym2612"
    },
    {
      "channel": 3,
      "note": 50,
      "start": 4.518,
      "duration": 0.0112,
      "velocity": 113,
      "chip": "ym2612"
    },
    {
      "channel": 0,
      "note": 67,
      "start": 4.5264,
      "duration": 0.0222,
      "velocity": 107,
      "chip": "ym2612"
    },
    {
      "channel": 4,
      "note": 50,
      "start": 4.5269,
      "duration": 0.0223,
      "velocity": 91,
      "chip": "ym2612"
    },
    {
      "channel": 1,
      "note": 62,
      "start": 4.529,
      "duration": 0.0224,
      "velocity": 112,
      "chip": "ym2612"
    },
    {
      "channel": 3,
      "note": 55,
      "start": 4.5294,
      "duration": 0.0224,
      "velocity": 113,
      "chip": "ym2612"
    },
    {
      "channel": 0,
      "note": 62,
      "start": 4.5489,
      "duration": 0.0097,
      "velocity": 107,
      "chip": "ym2612"
    },
    {
      "channel": 4,
      "note": 50,
      "start": 4.5495,
      "duration": 0.022,
      "velocity": 91,
      "chip": "ym2612"
    },
    {
      "channel": 1,
      "note": 57,
      "start": 4.5516,
      "duration": 0.0112,
      "velocity": 112,
      "chip": "ym2612"
    },
    {
      "channel": 3,
      "note": 50,
      "start": 4.552,
      "duration": 0.0111,
      "velocity": 113,
      "chip": "ym2612"
    },
    {
      "channel": 0,
      "note": 62,
      "start": 4.5589,
      "duration": 0.0119,
      "velocity": 107,
      "chip": "ym2612"
    },
    {
      "channel": 1,
      "note": 57,
      "start": 4.563,
      "duration": 0.0103,
      "velocity": 112,
      "chip": "ym2612"
    },
    {
      "channel": 3,
      "note": 50,
      "start": 4.5634,
      "duration": 0.0101,
      "velocity": 113,
      "chip": "ym2612"
    },
    {
      "channel": 0,
      "note": 62,
      "start": 4.5711,
      "duration": 0.0098,
      "velocity": 107,
      "chip": "ym2612"
    },
    {
      "channel": 4,
      "note": 50,
      "start": 4.5717,
      "duration": 0.0213,
      "velocity": 91,
      "chip": "ym2612"
    },
    {
      "channel": 1,
      "note": 57,
      "start": 4.5735,
      "duration": 0.0112,
      "velocity": 112,
      "chip": "ym2612"
    },
    {
      "channel": 3,
      "note": 50,
      "start": 4.5738,
      "duration": 0.0113,
      "velocity": 113,
      "chip": "ym2612"
    },
    {
      "channel": 0,
      "note": 62,
      "start": 4.5811,
      "duration": 0.0113,
      "velocity": 107,
      "chip": "ym2612"
    },
    {
      "channel": 1,
      "note": 57,
      "start": 4.585,
      "duration": 0.0115,
      "velocity": 112,
      "chip": "ym2612"
    },
    {
      "channel": 3,
      "note": 50,
      "start": 4.5852,
      "duration": 0.0117,
      "velocity": 113,
      "chip": "ym2612"
    },
    {
      "channel": 0,
      "note": 62,
      "start": 4.5926,
      "duration": 0.0094,
      "velocity": 107,
      "chip": "ym2612"
    },
    {
      "channel": 4,
      "note": 50,
      "start": 4.5932,
      "duration": 0.0223,
      "velocity": 91,
      "chip": "ym2612"
    },
    {
      "channel": 1,
      "note": 57,
      "start": 4.5967,
      "duration": 0.0091,
      "velocity": 112,
      "chip": "ym2612"
    },
    {
      "channel": 3,
      "note": 50,
      "start": 4.5971,
      "duration": 0.009,
      "velocity": 113,
      "chip": "ym2612"
    },
    {
      "channel": 0,
      "note": 62,
      "start": 4.6022,
      "duration": 0.0125,
      "velocity": 107,
      "chip": "ym2612"
    },
    {
      "channel": 1,
      "note": 57,
      "start": 4.6061,
      "duration": 0.0132,
      "velocity": 112,
      "chip": "ym2612"
    },
    {
      "channel": 3,
      "note": 50,
      "start": 4.6065,
      "duration": 0.0134,
      "velocity": 113,
      "chip": "ym2612"
    },
    {
      "channel": 0,
      "note": 65,
      "start": 4.615,
      "duration": 0.0239,
      "velocity": 107,
      "chip": "ym2612"
    },
    {
      "channel": 4,
      "note": 48,
      "start": 4.6157,
      "duration": 0.0237,
      "velocity": 91,
      "chip": "ym2612"
    },
    {
      "channel": 1,
      "note": 60,
      "start": 4.6196,
      "duration": 0.0234,
      "velocity": 112,
      "chip": "ym2612"
    },
    {
      "channel": 3,
      "note": 48,
      "start": 4.6202,
      "duration": 0.0233,
      "velocity": 113,
      "chip": "ym2612"
    },
    {
      "channel": 0,
      "note": 62,
      "start": 4.6391,
      "duration": 0.0099,
      "velocity": 107,
      "chip": "ym2612"
    },
    {
      "channel": 4,
      "note": 50,
      "start": 4.6396,
      "duration": 0.0434,
      "velocity": 91,
      "chip": "ym2612"
    },
    {
      "channel": 1,
      "note": 57,
      "start": 4.6433,
      "duration": 0.0095,
      "velocity": 112,
      "chip": "ym2612"
    },
    {
      "channel": 3,
      "note": 50,
      "start": 4.6437,
      "duration": 0.0093,
      "velocity": 113,
      "chip": "ym2612"
    },
    {
      "channel": 0,
      "note": 62,
      "start": 4.6494,
      "duration": 0.0119,
      "velocity": 107,
      "chip": "ym2612"
    },
    {
      "channel": 1,
      "note": 57,
      "start": 4.653,
      "duration": 0.0123,
      "velocity": 112,
      "chip": "ym2612"
    },
    {
      "channel": 3,
      "note": 50,
      "start": 4.6533,
      "duration": 0.0124,
      "velocity": 113,
      "chip": "ym2612"
    },
    {
      "channel": 0,
      "note": 65,
      "start": 4.6615,
      "duration": 0.0208,
      "velocity": 107,
      "chip": "ym2612"
    },
    {
      "channel": 1,
      "note": 60,
      "start": 4.6654,
      "duration": 0.021,
      "velocity": 112,
      "chip": "ym2612"
    },
    {
      "channel": 3,
      "note": 65,
      "start": 4.6659,
      "duration": 0.0209,
      "velocity": 113,
      "chip": "ym2612"
    },
    {
      "channel": 0,
      "note": 67,
      "start": 4.6826,
      "duration": 0.0429,
      "velocity": 107,
      "chip": "ym2612"
    },
    {
      "channel": 4,
      "note": 50,
      "start": 4.6831,
      "duration": 0.0208,
      "velocity": 91,
      "chip": "ym2612"
    },
    {
      "channel": 1,
      "note": 62,
      "start": 4.6867,
      "duration": 0.0429,
      "velocity": 112,
      "chip": "ym2612"
    },
    {
      "channel": 3,
      "note": 55,
      "start": 4.687,
      "duration": 0.0429,
      "velocity": 113,
      "chip": "ym2612"
    },
    {
      "channel": 4,
      "note": 50,
      "start": 4.7043,
      "duration": 0.0219,
      "velocity": 91,
      "chip": "ym2612"
    },
    {
      "channel": 0,
      "note": 67,
      "start": 4.7257,
      "duration": 0.0206,
      "velocity": 107,
      "chip": "ym2612"
    },
    {
      "channel": 4,
      "note": 50,
      "start": 4.7263,
      "duration": 0.0206,
      "velocity": 91,
      "chip": "ym2612"
    },
    {
      "channel": 1,
      "note": 62,
      "start": 4.7298,
      "duration": 0.0208,
      "velocity": 112,
      "chip": "ym2612"
    },
    {
      "channel": 3,
      "note": 55,
      "start": 4.73,
      "duration": 0.0209,
      "velocity": 113,
      "chip": "ym2612"
    },
    {
      "channel": 0,
      "note": 65,
      "start": 4.7465,
      "duration": 0.0211,
      "velocity": 107,
      "chip": "ym2612"
    },
    {
      "channel": 4,
      "note": 50,
      "start": 4.7471,
      "duration": 0.021,
      "velocity": 91,
      "chip": "ym2612"
    },
    {
      "channel": 1,
      "note": 60,
      "start": 4.7508,
      "duration": 0.0209,
      "velocity": 112,
      "chip": "ym2612"
    },
    {
      "channel": 3,
      "note": 48,
      "start": 4.7512,
      "duration": 0.0208,
      "velocity": 113,
      "chip": "ym2612"
    },
    {
      "channel": 0,
      "note": 62,
      "start": 4.7678,
      "duration": 0.0218,
      "velocity": 107,
      "chip": "ym2612"
    },
    {
      "channel": 4,
      "note": 50,
      "start": 4.7683,
      "duration": 0.022,
      "velocity": 91,
      "chip": "ym2612"
    },
    {
      "channel": 1,
      "note": 57,
      "start": 4.7719,
      "duration": 0.022,
      "velocity": 112,
      "chip": "ym2612"
    },
    {
      "channel": 3,
      "note": 50,
      "start": 4.7722,
      "duration": 0.0222,
      "velocity": 113,
      "chip": "ym2612"
    },
    {
      "channel": 0,
      "note": 65,
      "start": 4.79,
      "duration": 0.0232,
      "velocity": 107,
      "chip": "ym2612"
    },
    {
      "channel": 4,
      "note": 48,
      "start": 4.7905,
      "duration": 0.0234,
      "velocity": 91,
      "chip": "ym2612"
    },
    {
      "channel": 1,
      "note": 60,
      "start": 4.7941,
      "duration": 0.0237,
      "velocity": 112,
      "chip": "ym2612"
    },
    {
      "channel": 3,
      "note": 55,
      "start": 4.7946,
      "duration": 0.0235,
      "velocity": 113,
      "chip": "ym2612"
    },
    {
      "channel": 0,
      "note": 62,
      "start": 4.8134,
      "duration": 0.0119,
      "velocity": 107,
      "chip": "ym2612"
    },
    {
      "channel": 4,
      "note": 50,
      "start": 4.814,
      "duration": 0.0439,
      "velocity": 91,
      "chip": "ym2612"
    },
    {
      "channel": 1,
      "note": 57,
      "start": 4.818,
      "duration": 0.0113,
      "velocity": 112,
      "chip": "ym2612"
    },
    {
      "channel": 3,
      "note": 50,
      "start": 4.8184,
      "duration": 0.0112,
      "velocity": 113,
      "chip": "ym2612"
    },
    {
      "channel": 0,
      "note": 62,
      "start": 4.8255,
      "duration": 0.0101,
      "velocity": 107,
      "chip": "ym2612"
    },
    {
      "channel": 1,
      "note": 57,
      "start": 4.8295,
      "duration": 0.0102,
      "velocity": 112,
      "chip": "ym2612"
    },
    {
      "channel": 3,
      "note": 50,
      "start": 4.8298,
      "duration": 0.0102,
      "velocity": 113,
      "chip": "ym2612"
    },
    {
      "channel": 0,
      "note": 62,
      "start": 4.8359,
      "duration": 0.0114,
      "velocity": 107,
      "chip": "ym2612"
    },
    {
      "channel": 1,
      "note": 57,
      "start": 4.8398,
      "duration": 0.012,
      "velocity": 112,
      "chip": "ym2612"
    },
    {
      "channel": 3,
      "note": 50,
      "start": 4.8402,
      "duration": 0.0118,
      "velocity": 113,
      "chip": "ym2612"
    },
    {
      "channel": 0,
      "note": 62,
      "start": 4.8476,
      "duration": 0.0098,
      "velocity": 107,
      "chip": "ym2612"
    },
    {
      "channel": 1,
      "note": 57,
      "start": 4.8519,
      "duration": 0.0097,
      "velocity": 112,
      "chip": "ym2612"
    },
    {
      "channel": 3,
      "note": 50,
      "start": 4.8522,
      "duration": 0.0097,
      "velocity": 113,
      "chip": "ym2612"
    },
    {
      "channel": 0,
      "note": 62,
      "start": 4.8576,
      "duration": 0.0111,
      "velocity": 107,
      "chip": "ym2612"
    },
    {
      "channel": 4,
      "note": 50,
      "start": 4.8581,
      "duration": 0.021,
      "velocity": 91,
      "chip": "ym2612"
    },
    {
      "channel": 1,
      "note": 57,
      "start": 4.8618,
      "duration": 0.0111,
      "velocity": 112,
      "chip": "ym2612"
    },
    {
      "channel": 3,
      "note": 50,
      "start": 4.862,
      "duration": 0.0112,
      "velocity": 113,
      "chip": "ym2612"
    },
    {
      "channel": 0,
      "note": 62,
      "start": 4.8689,
      "duration": 0.0097,
      "velocity": 107,
      "chip": "ym2612"
    },
    {
      "channel": 1,
      "note": 57,
      "start": 4.8731,
      "duration": 0.0102,
      "velocity": 112,
      "chip": "ym2612"
    },
    {
      "channel": 3,
      "note": 50,
      "start": 4.8735,
      "duration": 0.0102,
      "velocity": 113,
      "chip": "ym2612"
    },
    {
      "channel": 0,
      "note": 67,
      "start": 4.8788,
      "duration": 0.0223,
      "velocity": 107,
      "chip": "ym2612"
    },
    {
      "channel": 4,
      "note": 50,
      "start": 4.8794,
      "duration": 0.0222,
      "velocity": 91,
      "chip": "ym2612"
    },
    {
      "channel": 1,
      "note": 62,
      "start": 4.8835,
      "duration": 0.0216,
      "velocity": 112,
      "chip": "ym2612"
    },
    {
      "channel": 3,
      "note": 55,
      "start": 4.8839,
      "duration": 0.0216,
      "velocity": 113,
      "chip": "ym2612"
    },
    {
      "channel": 0,
      "note": 62,
      "start": 4.9013,
      "duration": 0.011,
      "velocity": 107,
      "chip": "ym2612"
    },
    {
      "channel": 4,
      "note": 50,
      "start": 4.9018,
      "duration": 0.021,
      "velocity": 91,
      "chip": "ym2612"
    },
    {
      "channel": 1,
      "note": 57,
      "start": 4.9053,
      "duration": 0.0111,
      "velocity": 112,
      "chip": "ym2612"
    },
    {
      "channel": 3,
      "note": 50,
      "start": 4.9057,
      "duration": 0.011,
      "velocity": 113,
      "chip": "ym2612"
    },
    {
      "channel": 0,
      "note": 62,
      "start": 4.9126,
      "duration": 0.0096,
      "velocity": 107,
      "chip": "ym2612"
    },
    {
      "channel": 1,
      "note": 57,
      "start": 4.9166,
      "duration": 0.01,
      "velocity": 112,
      "chip": "ym2612"
    },
    {
      "channel": 3,
      "note": 50,
      "start": 4.9169,
      "duration": 0.0098,
      "velocity": 113,
      "chip": "ym2612"
    },
    {
      "channel": 0,
      "note": 62,
      "start": 4.9225,
      "duration": 0.0118,
      "velocity": 107,
      "chip": "ym2612"
    },
    {
      "channel": 4,
      "note": 50,
      "start": 4.9231,
      "duration": 0.0219,
      "velocity": 91,
      "chip": "ym2612"
    },
    {
      "channel": 1,
      "note": 57,
      "start": 4.9267,
      "duration": 0.0117,
      "velocity": 112,
      "chip": "ym2612"
    },
    {
      "channel": 3,
      "note": 50,
      "start": 4.9269,
      "duration": 0.0117,
      "velocity": 113,
      "chip": "ym2612"
    },
    {
      "channel": 0,
      "note": 62,
      "start": 4.9346,
      "duration": 0.0098,
      "velocity": 107,
      "chip": "ym2612"
    },
    {
      "channel": 1,
      "note": 57,
      "start": 4.9385,
      "duration": 0.0102,
      "velocity": 112,
      "chip": "ym2612"
    },
    {
      "channel": 3,
      "note": 50,
      "start": 4.9389,
      "duration": 0.0101,
      "velocity": 113,
      "chip": "ym2612"
    },
    {
      "channel": 0,
      "note": 62,
      "start": 4.9446,
      "duration": 0.0114,
      "velocity": 107,
      "chip": "ym2612"
    },
    {
      "channel": 4,
      "note": 50,
      "start": 4.9451,
      "duration": 0.0233,
      "velocity": 91,
      "chip": "ym2612"
    },
    {
      "channel": 1,
      "note": 57,
      "start": 4.9489,
      "duration": 0.0113,
      "velocity": 112,
      "chip": "ym2612"
    },
    {
      "channel": 3,
      "note": 50,
      "start": 4.9492,
      "duration": 0.0113,
      "velocity": 113,
      "chip": "ym2612"
    },
    {
      "channel": 0,
      "note": 62,
      "start": 4.9562,
      "duration": 0.0115,
      "velocity": 107,
      "chip": "ym2612"
    },
    {
      "channel": 1,
      "note": 57,
      "start": 4.9604,
      "duration": 0.0103,
      "velocity": 112,
      "chip": "ym2612"
    },
    {
      "channel": 3,
      "note": 50,
      "start": 4.9608,
      "duration": 0.0104,
      "velocity": 113,
      "chip": "ym2612"
    },
    {
      "channel": 0,
      "note": 65,
      "start": 4.9679,
      "duration": 0.0235,
      "velocity": 107,
      "chip": "ym2612"
    },
    {
      "channel": 4,
      "note": 53,
      "start": 4.9686,
      "duration": 0.0234,
      "velocity": 91,
      "chip": "ym2612"
    },
    {
      "channel": 1,
      "note": 60,
      "start": 4.971,
      "duration": 0.0226,
      "velocity": 112,
      "chip": "ym2612"
    },
    {
      "channel": 3,
      "note": 53,
      "start": 4.9713,
      "duration": 0.0224,
      "velocity": 113,
      "chip": "ym2612"
    },
    {
      "channel": 0,
      "note": 66,
      "start": 4.9916,
      "duration": 0.0213,
      "velocity": 107,
      "chip": "ym2612"
    },
    {
      "channel": 4,
      "note": 54,
      "start": 4.9922,
      "duration": 0.0213,
      "velocity": 91,
      "chip": "ym2612"
    },
    {
      "channel": 1,
      "note": 61,
      "start": 4.9937,
      "duration": 0.025,
      "velocity": 112,
      "chip": "ym2612"
    },
    {
      "channel": 3,
      "note": 54,
      "start": 4.994,
      "duration": 0.025,
      "velocity": 113,
      "chip": "ym2612"
    },
    {
      "channel": 0,
      "note": 67,
      "start": 5.0131,
      "duration": 0.0237,
      "velocity": 107,
      "chip": "ym2612"
    },
    {
      "channel": 4,
      "note": 55,
      "start": 5.0138,
      "duration": 0.0235,
      "velocity": 91,
      "chip": "ym2612"
    },
    {
      "channel": 1,
      "note": 62,
      "start": 5.019,
      "duration": 0.0218,
      "velocity": 112,
      "chip": "ym2612"
    },
    {
      "channel": 3,
      "note": 55,
      "start": 5.0192,
      "duration": 0.022,
      "velocity": 113,
      "chip": "ym2612"
    },
    {
      "channel": 0,
      "note": 68,
      "start": 5.037,
      "duration": 0.0214,
      "velocity": 107,
      "chip": "ym2612"
    },
    {
      "channel": 4,
      "note": 56,
      "start": 5.0376,
      "duration": 0.0215,
      "velocity": 91,
      "chip": "ym2612"
    },
    {
      "channel": 1,
      "note": 75,
      "start": 5.041,
      "duration": 0.0221,
      "velocity": 112,
      "chip": "ym2612"
    },
    {
      "channel": 3,
      "note": 56,
      "start": 5.0414,
      "duration": 0.0221,
      "velocity": 113,
      "chip": "ym2612"
    },
    {
      "channel": 0,
      "note": 60,
      "start": 5.0586,
      "duration": 0.0224,
      "velocity": 107,
      "chip": "ym2612"
    },
    {
      "channel": 4,
      "note": 48,
      "start": 5.0593,
      "duration": 0.0223,
      "velocity": 91,
      "chip": "ym2612"
    },
    {
      "channel": 1,
      "note": 55,
      "start": 5.0633,
      "duration": 0.0221,
      "velocity": 112,
      "chip": "ym2612"
    },
    {
      "channel": 3,
      "note": 48,
      "start": 5.0636,
      "duration": 0.0222,
      "velocity": 113,
      "chip": "ym2612"
    },
    {
      "channel": 0,
      "note": 61,
      "start": 5.0811,
      "duration": 0.0255,
      "velocity": 107,
      "chip": "ym2612"
    },
    {
      "channel": 4,
      "note": 49,
      "start": 5.0819,
      "duration": 0.0254,
      "velocity": 91,
      "chip": "ym2612"
    },
    {
      "channel": 1,
      "note": 56,
      "start": 5.0856,
      "duration": 0.0256,
      "velocity": 112,
      "chip": "ym2612"
    },
    {
      "channel": 3,
      "note": 49,
      "start": 5.0859,
      "duration": 0.0257,
      "velocity": 113,
      "chip": "ym2612"
    },
    {
      "channel": 0,
      "note": 62,
      "start": 5.1069,
      "duration": 0.0211,
      "velocity": 107,
      "chip": "ym2612"
    },
    {
      "channel": 4,
      "note": 50,
      "start": 5.1075,
      "duration": 0.0211,
      "velocity": 91,
      "chip": "ym2612"
    },
    {
      "channel": 1,
      "note": 57,
      "start": 5.1114,
      "duration": 0.0207,
      "velocity": 112,
      "chip": "ym2612"
    },
    {
      "channel": 3,
      "note": 50,
      "start": 5.1119,
      "duration": 0.0206,
      "velocity": 113,
      "chip": "ym2612"
    },
    {
      "channel": 0,
      "note": 64,
      "start": 5.1282,
      "duration": 0.0209,
      "velocity": 107,
      "chip": "ym2612"
    },
    {
      "channel": 4,
      "note": 52,
      "start": 5.1288,
      "duration": 0.021,
      "velocity": 91,
      "chip": "ym2612"
    },
    {
      "channel": 1,
      "note": 59,
      "start": 5.1322,
      "duration": 0.0212,
      "velocity": 112,
      "chip": "ym2612"
    },
    {
      "channel": 3,
      "note": 52,
      "start": 5.1326,
      "duration": 0.0214,
      "velocity": 113,
      "chip": "ym2612"
    },
    {
      "channel": 0,
      "note": 67,
      "start": 5.1495,
      "duration": 0.0232,
      "velocity": 107,
      "chip": "ym2612"
    },
    {
      "channel": 4,
      "note": 50,
      "start": 5.1501,
      "duration": 0.0233,
      "velocity": 91,
      "chip": "ym2612"
    },
    {
      "channel": 1,
      "note": 62,
      "start": 5.1537,
      "duration": 0.0234,
      "velocity": 112,
      "chip": "ym2612"
    },
    {
      "channel": 3,
      "note": 57,
      "start": 5.1542,
      "duration": 0.0232,
      "velocity": 113,
      "chip": "ym2612"
    },
    {
      "channel": 0,
      "note": 64,
      "start": 5.173,
      "duration": 0.0114,
      "velocity": 107,
      "chip": "ym2612"
    },
    {
      "channel": 4,
      "note": 52,
      "start": 5.1736,
      "duration": 0.0429,
      "velocity": 91,
      "chip": "ym2612"
    },
    {
      "channel": 1,
      "note": 59,
      "start": 5.1773,
      "duration": 0.0093,
      "velocity": 112,
      "chip": "ym2612"
    },
    {
      "channel": 3,
      "note": 52,
      "start": 5.1777,
      "duration": 0.0092,
      "velocity": 113,
      "chip": "ym2612"
    },
    {
      "channel": 0,
      "note": 64,
      "start": 5.1847,
      "duration": 0.01,
      "velocity": 107,
      "chip": "ym2612"
    },
    {
      "channel": 1,
      "note": 59,
      "start": 5.1867,
      "duration": 0.0119,
      "velocity": 112,
      "chip": "ym2612"
    },
    {
      "channel": 3,
      "note": 52,
      "start": 5.1871,
      "duration": 0.0119,
      "velocity": 113,
      "chip": "ym2612"
    },
    {
      "channel": 0,
      "note": 64,
      "start": 5.195,
      "duration": 0.0112,
      "velocity": 107,
      "chip": "ym2612"
    },
    {
      "channel": 1,
      "note": 59,
      "start": 5.1989,
      "duration": 0.0095,
      "velocity": 112,
      "chip": "ym2612"
    },
    {
      "channel": 3,
      "note": 52,
      "start": 5.1991,
      "duration": 0.0096,
      "velocity": 113,
      "chip": "ym2612"
    },
    {
      "channel": 0,
      "note": 64,
      "start": 5.2065,
      "duration": 0.0093,
      "velocity": 107,
      "chip": "ym2612"
    },
    {
      "channel": 1,
      "note": 59,
      "start": 5.2085,
      "duration": 0.0116,
      "velocity": 112,
      "chip": "ym2612"
    },
    {
      "channel": 3,
      "note": 52,
      "start": 5.2089,
      "duration": 0.0115,
      "velocity": 113,
      "chip": "ym2612"
    },
    {
      "channel": 0,
      "note": 64,
      "start": 5.2161,
      "duration": 0.0113,
      "velocity": 107,
      "chip": "ym2612"
    },
    {
      "channel": 4,
      "note": 52,
      "start": 5.2167,
      "duration": 0.0216,
      "velocity": 91,
      "chip": "ym2612"
    },
    {
      "channel": 1,
      "note": 59,
      "start": 5.2203,
      "duration": 0.0091,
      "velocity": 112,
      "chip": "ym2612"
    },
    {
      "channel": 3,
      "note": 52,
      "start": 5.2207,
      "duration": 0.0091,
      "velocity": 113,
      "chip": "ym2612"
    },
    {
      "channel": 0,
      "note": 64,
      "start": 5.2276,
      "duration": 0.01,
      "velocity": 107,
      "chip": "ym2612"
    },
    {
      "channel": 1,
      "note": 59,
      "start": 5.2296,
      "duration": 0.0122,
      "velocity": 112,
      "chip": "ym2612"
    },
    {
      "channel": 3,
      "note": 52,
      "start": 5.23,
      "duration": 0.0122,
      "velocity": 113,
      "chip": "ym2612"
    },
    {
      "channel": 0,
      "note": 69,
      "start": 5.2378,
      "duration": 0.0209,
      "velocity": 107,
      "chip": "ym2612"
    },
    {
      "channel": 4,
      "note": 52,
      "start": 5.2383,
      "duration": 0.021,
      "velocity": 91,
      "chip": "ym2612"
    },
    {
      "channel": 1,
      "note": 64,
      "start": 5.242,
      "duration": 0.0212,
      "velocity": 112,
      "chip": "ym2612"
    },
    {
      "channel": 3,
      "note": 57,
      "start": 5.2424,
      "duration": 0.0212,
      "velocity": 113,
      "chip": "ym2612"
    },
    {
      "channel": 0,
      "note": 64,
      "start": 5.259,
      "duration": 0.0114,
      "velocity": 107,
      "chip": "ym2612"
    },
    {
      "channel": 4,
      "note": 52,
      "start": 5.2595,
      "duration": 0.0219,
      "velocity": 91,
      "chip": "ym2612"
    },
    {
      "channel": 1,
      "note": 59,
      "start": 5.2633,
      "duration": 0.0114,
      "velocity": 112,
      "chip": "ym2612"
    },
    {
      "channel": 3,
      "note": 52,
      "start": 5.2638,
      "duration": 0.0113,
      "velocity": 113,
      "chip": "ym2612"
    },
    {
      "channel": 0,
      "note": 64,
      "start": 5.2705,
      "duration": 0.0102,
      "velocity": 107,
      "chip": "ym2612"
    },
    {
      "channel": 1,
      "note": 59,
      "start": 5.275,
      "duration": 0.0095,
      "velocity": 112,
      "chip": "ym2612"
    },
    {
      "channel": 3,
      "note": 52,
      "start": 5.2753,
      "duration": 0.0095,
      "velocity": 113,
      "chip": "ym2612"
    },
    {
      "channel": 0,
      "note": 64,
      "start": 5.281,
      "duration": 0.0108,
      "velocity": 107,
      "chip": "ym2612"
    },
    {
      "channel": 4,
      "note": 52,
      "start": 5.2816,
      "duration": 0.0203,
      "velocity": 91,
      "chip": "ym2612"
    },
    {
      "channel": 1,
      "note": 59,
      "start": 5.2846,
      "duration": 0.0109,
      "velocity": 112,
      "chip": "ym2612"
    },
    {
      "channel": 3,
      "note": 52,
      "start": 5.2851,
      "duration": 0.0107,
      "velocity": 113,
      "chip": "ym2612"
    },
    {
      "channel": 0,
      "note": 64,
      "start": 5.292,
      "duration": 0.0094,
      "velocity": 107,
      "chip": "ym2612"
    },
    {
      "channel": 1,
      "note": 59,
      "start": 5.2957,
      "duration": 0.0099,
      "velocity": 112,
      "chip": "ym2612"
    },
    {
      "channel": 3,
      "note": 52,
      "start": 5.2961,
      "duration": 0.0098,
      "velocity": 113,
      "chip": "ym2612"
    },
    {
      "channel": 0,
      "note": 64,
      "start": 5.3017,
      "duration": 0.0111,
      "velocity": 107,
      "chip": "ym2612"
    },
    {
      "channel": 4,
      "note": 52,
      "start": 5.3022,
      "duration": 0.0219,
      "velocity": 91,
      "chip": "ym2612"
    },
    {
      "channel": 1,
      "note": 59,
      "start": 5.3058,
      "duration": 0.0108,
      "velocity": 112,
      "chip": "ym2612"
    },
    {
      "channel": 3,
      "note": 52,
      "start": 5.3061,
      "duration": 0.0108,
      "velocity": 113,
      "chip": "ym2612"
    },
    {
      "channel": 0,
      "note": 64,
      "start": 5.313,
      "duration": 0.0105,
      "velocity": 107,
      "chip": "ym2612"
    },
    {
      "channel": 1,
      "note": 59,
      "start": 5.3168,
      "duration": 0.0111,
      "velocity": 112,
      "chip": "ym2612"
    },
    {
      "channel": 3,
      "note": 52,
      "start": 5.3171,
      "duration": 0.0113,
      "velocity": 113,
      "chip": "ym2612"
    },
    {
      "channel": 0,
      "note": 67,
      "start": 5.3237,
      "duration": 0.0241,
      "velocity": 107,
      "chip": "ym2612"
    },
    {
      "channel": 4,
      "note": 50,
      "start": 5.3243,
      "duration": 0.0241,
      "velocity": 91,
      "chip": "ym2612"
    },
    {
      "channel": 1,
      "note": 62,
      "start": 5.328,
      "duration": 0.0237,
      "velocity": 112,
      "chip": "ym2612"
    },
    {
      "channel": 3,
      "note": 50,
      "start": 5.3286,
      "duration": 0.0235,
      "velocity": 113,
      "chip": "ym2612"
    },
    {
      "channel": 0,
      "note": 64,
      "start": 5.3481,
      "duration": 0.0111,
      "velocity": 107,
      "chip": "ym2612"
    },
    {
      "channel": 4,
      "note": 52,
      "start": 5.3486,
      "duration": 0.0424,
      "velocity": 91,
      "chip": "ym2612"
    },
    {
      "channel": 1,
      "note": 59,
      "start": 5.352,
      "duration": 0.0112,
      "velocity": 112,
      "chip": "ym2612"
    },
    {
      "channel": 3,
      "note": 52,
      "start": 5.3524,
      "duration": 0.0109,
      "velocity": 113,
      "chip": "ym2612"
    },
    {
      "channel": 0,
      "note": 64,
      "start": 5.3595,
      "duration": 0.0098,
      "velocity": 107,
      "chip": "ym2612"
    },
    {
      "channel": 1,
      "note": 59,
      "start": 5.3633,
      "duration": 0.01,
      "velocity": 112,
      "chip": "ym2612"
    },
    {
      "channel": 3,
      "note": 52,
      "start": 5.3635,
      "duration": 0.0101,
      "velocity": 113,
      "chip": "ym2612"
    },
    {
      "channel": 0,
      "note": 67,
      "start": 5.3696,
      "duration": 0.0207,
      "velocity": 107,
      "chip": "ym2612"
    },
    {
      "channel": 1,
      "note": 62,
      "start": 5.3734,
      "duration": 0.0209,
      "velocity": 112,
      "chip": "ym2612"
    },
    {
      "channel": 3,
      "note": 67,
      "start": 5.3738,
      "duration": 0.0208,
      "velocity": 113,
      "chip": "ym2612"
    },
    {
      "channel": 0,
      "note": 69,
      "start": 5.3905,
      "duration": 0.0433,
      "velocity": 107,
      "chip": "ym2612"
    },
    {
      "channel": 4,
      "note": 52,
      "start": 5.3911,
      "duration": 0.0223,
      "velocity": 91,
      "chip": "ym2612"
    },
    {
      "channel": 1,
      "note": 64,
      "start": 5.3945,
      "duration": 0.0417,
      "velocity": 112,
      "chip": "ym2612"
    },
    {
      "channel": 3,
      "note": 57,
      "start": 5.3948,
      "duration": 0.0417,
      "velocity": 113,
      "chip": "ym2612"
    },
    {
      "channel": 4,
      "note": 52,
      "start": 5.4136,
      "duration": 0.0209,
      "velocity": 91,
      "chip": "ym2612"
    },
    {
      "channel": 0,
      "note": 69,
      "start": 5.434,
      "duration": 0.0214,
      "velocity": 107,
      "chip": "ym2612"
    },
    {
      "channel": 4,
      "note": 52,
      "start": 5.4347,
      "duration": 0.0213,
      "velocity": 91,
      "chip": "ym2612"
    },
    {
      "channel": 1,
      "note": 64,
      "start": 5.4364,
      "duration": 0.0212,
      "velocity": 112,
      "chip": "ym2612"
    },
    {
      "channel": 3,
      "note": 57,
      "start": 5.4367,
      "duration": 0.0212,
      "velocity": 113,
      "chip": "ym2612"
    },
    {
      "channel": 0,
      "note": 67,
      "start": 5.4556,
      "duration": 0.0207,
      "velocity": 107,
      "chip": "ym2612"
    },
    {
      "channel": 4,
      "note": 52,
      "start": 5.4562,
      "duration": 0.0209,
      "velocity": 91,
      "chip": "ym2612"
    },
    {
      "channel": 1,
      "note": 62,
      "start": 5.4578,
      "duration": 0.0224,
      "velocity": 112,
      "chip": "ym2612"
    },
    {
      "channel": 3,
      "note": 50,
      "start": 5.4581,
      "duration": 0.0224,
      "velocity": 113,
      "chip": "ym2612"
    },
    {
      "channel": 0,
      "note": 64,
      "start": 5.4766,
      "duration": 0.0181,
      "velocity": 107,
      "chip": "ym2612"
    },
    {
      "channel": 4,
      "note": 52,
      "start": 5.4772,
      "duration": 0.0182,
      "velocity": 91,
      "chip": "ym2612"
    },
    {
      "channel": 1,
      "note": 59,
      "start": 5.4804,
      "duration": 0.0185,
      "velocity": 112,
      "chip": "ym2612"
    },
    {
      "channel": 3,
      "note": 52,
      "start": 5.4806,
      "duration": 0.0186,
      "velocity": 113,
      "chip": "ym2612"
    },
    {
      "channel": 0,
      "note": 67,
      "start": 5.495,
      "duration": 0.0223,
      "velocity": 107,
      "chip": "ym2612"
    },
    {
      "channel": 4,
      "note": 50,
      "start": 5.4955,
      "duration": 0.0224,
      "velocity": 91,
      "chip": "ym2612"
    },
    {
      "channel": 1,
      "note": 62,
      "start": 5.499,
      "duration": 0.0227,
      "velocity": 112,
      "chip": "ym2612"
    },
    {
      "channel": 3,
      "note": 57,
      "start": 5.4995,
      "duration": 0.0227,
      "velocity": 113,
      "chip": "ym2612"
    },
    {
      "channel": 0,
      "note": 64,
      "start": 5.5176,
      "duration": 0.0098,
      "velocity": 107,
      "chip": "ym2612"
    },
    {
      "channel": 4,
      "note": 52,
      "start": 5.5181,
      "duration": 0.0437,
      "velocity": 91,
      "chip": "ym2612"
    },
    {
      "channel": 1,
      "note": 59,
      "start": 5.522,
      "duration": 0.0093,
      "velocity": 112,
      "chip": "ym2612"
    },
    {
      "channel": 3,
      "note": 52,
      "start": 5.5224,
      "duration": 0.0093,
      "velocity": 113,
      "chip": "ym2612"
    },
    {
      "channel": 0,
      "note": 64,
      "start": 5.5276,
      "duration": 0.012,
      "velocity": 107,
      "chip": "ym2612"
    },
    {
      "channel": 1,
      "note": 59,
      "start": 5.5316,
      "duration": 0.0118,
      "velocity": 112,
      "chip": "ym2612"
    },
    {
      "channel": 3,
      "note": 52,
      "start": 5.532,
      "duration": 0.0117,
      "velocity": 113,
      "chip": "ym2612"
    },
    {
      "channel": 0,
      "note": 64,
      "start": 5.5398,
      "duration": 0.0097,
      "velocity": 107,
      "chip": "ym2612"
    },
    {
      "channel": 1,
      "note": 59,
      "start": 5.5436,
      "duration": 0.0102,
      "velocity": 112,
      "chip": "ym2612"
    },
    {
      "channel": 3,
      "note": 52,
      "start": 5.5439,
      "duration": 0.0102,
      "velocity": 113,
      "chip": "ym2612"
    },
    {
      "channel": 0,
      "note": 64,
      "start": 5.5497,
      "duration": 0.0115,
      "velocity": 107,
      "chip": "ym2612"
    },
    {
      "channel": 1,
      "note": 59,
      "start": 5.5541,
      "duration": 0.0114,
      "velocity": 112,
      "chip": "ym2612"
    },
    {
      "channel": 3,
      "note": 52,
      "start": 5.5544,
      "duration": 0.0114,
      "velocity": 113,
      "chip": "ym2612"
    },
    {
      "channel": 0,
      "note": 64,
      "start": 5.5615,
      "duration": 0.0097,
      "velocity": 107,
      "chip": "ym2612"
    },
    {
      "channel": 4,
      "note": 52,
      "start": 5.5619,
      "duration": 0.0221,
      "velocity": 91,
      "chip": "ym2612"
    },
    {
      "channel": 1,
      "note": 59,
      "start": 5.5657,
      "duration": 0.0095,
      "velocity": 112,
      "chip": "ym2612"
    },
    {
      "channel": 3,
      "note": 52,
      "start": 5.566,
      "duration": 0.0096,
      "velocity": 113,
      "chip": "ym2612"
    },
    {
      "channel": 0,
      "note": 64,
      "start": 5.5715,
      "duration": 0.012,
      "velocity": 107,
      "chip": "ym2612"
    },
    {
      "channel": 1,
      "note": 59,
      "start": 5.5754,
      "duration": 0.0119,
      "velocity": 112,
      "chip": "ym2612"
    },
    {
      "channel": 3,
      "note": 52,
      "start": 5.5758,
      "duration": 0.012,
      "velocity": 113,
      "chip": "ym2612"
    },
    {
      "channel": 0,
      "note": 69,
      "start": 5.5836,
      "duration": 0.0209,
      "velocity": 107,
      "chip": "ym2612"
    },
    {
      "channel": 4,
      "note": 52,
      "start": 5.5842,
      "duration": 0.0209,
      "velocity": 91,
      "chip": "ym2612"
    },
    {
      "channel": 1,
      "note": 64,
      "start": 5.5875,
      "duration": 0.0209,
      "velocity": 112,
      "chip": "ym2612"
    },
    {
      "channel": 3,
      "note": 57,
      "start": 5.588,
      "duration": 0.0208,
      "velocity": 113,
      "chip": "ym2612"
    },
    {
      "channel": 0,
      "note": 64,
      "start": 5.6047,
      "duration": 0.011,
      "velocity": 107,
      "chip": "ym2612"
    },
    {
      "channel": 4,
      "note": 52,
      "start": 5.6052,
      "duration": 0.0215,
      "velocity": 91,
      "chip": "ym2612"
    },
    {
      "channel": 1,
      "note": 59,
      "start": 5.6085,
      "duration": 0.0095,
      "velocity": 112,
      "chip": "ym2612"
    },
    {
      "channel": 3,
      "note": 52,
      "start": 5.609,
      "duration": 0.0094,
      "velocity": 113,
      "chip": "ym2612"
    },
    {
      "channel": 0,
      "note": 64,
      "start": 5.616,
      "duration": 0.0101,
      "velocity": 107,
      "chip": "ym2612"
    },
    {
      "channel": 1,
      "note": 59,
      "start": 5.6183,
      "duration": 0.0116,
      "velocity": 112,
      "chip": "ym2612"
    },
    {
      "channel": 3,
      "note": 52,
      "start": 5.6185,
      "duration": 0.0116,
      "velocity": 113,
      "chip": "ym2612"
    },
    {
      "channel": 0,
      "note": 64,
      "start": 5.6263,
      "duration": 0.0108,
      "velocity": 107,
      "chip": "ym2612"
    },
    {
      "channel": 4,
      "note": 52,
      "start": 5.6269,
      "duration": 0.0207,
      "velocity": 91,
      "chip": "ym2612"
    },
    {
      "channel": 1,
      "note": 59,
      "start": 5.63,
      "duration": 0.0094,
      "velocity": 112,
      "chip": "ym2612"
    },
    {
      "channel": 3,
      "note": 52,
      "start": 5.6304,
      "duration": 0.0094,
      "velocity": 113,
      "chip": "ym2612"
    },
    {
      "channel": 0,
      "note": 64,
      "start": 5.6373,
      "duration": 0.0098,
      "velocity": 107,
      "chip": "ym2612"
    },
    {
      "channel": 1,
      "note": 59,
      "start": 5.6396,
      "duration": 0.0118,
      "velocity": 112,
      "chip": "ym2612"
    },
    {
      "channel": 3,
      "note": 52,
      "start": 5.64,
      "duration": 0.0117,
      "velocity": 113,
      "chip": "ym2612"
    },
    {
      "channel": 0,
      "note": 64,
      "start": 5.6473,
      "duration": 0.0115,
      "velocity": 107,
      "chip": "ym2612"
    },
    {
      "channel": 4,
      "note": 52,
      "start": 5.6479,
      "duration": 0.0225,
      "velocity": 91,
      "chip": "ym2612"
    },
    {
      "channel": 1,
      "note": 59,
      "start": 5.6516,
      "duration": 0.0095,
      "velocity": 112,
      "chip": "ym2612"
    },
    {
      "channel": 3,
      "note": 52,
      "start": 5.6519,
      "duration": 0.0095,
      "velocity": 113,
      "chip": "ym2612"
    },
    {
      "channel": 0,
      "note": 64,
      "start": 5.659,
      "duration": 0.0107,
      "velocity": 107,
      "chip": "ym2612"
    },
    {
      "channel": 1,
      "note": 59,
      "start": 5.6613,
      "duration": 0.0134,
      "velocity": 112,
      "chip": "ym2612"
    },
    {
      "channel": 3,
      "note": 52,
      "start": 5.6616,
      "duration": 0.0135,
      "velocity": 113,
      "chip": "ym2612"
    },
    {
      "channel": 0,
      "note": 67,
      "start": 5.67,
      "duration": 0.0256,
      "velocity": 107,
      "chip": "ym2612"
    },
    {
      "channel": 4,
      "note": 55,
      "start": 5.6707,
      "duration": 0.0256,
      "velocity": 91,
      "chip": "ym2612"
    },
    {
      "channel": 1,
      "note": 62,
      "start": 5.6749,
      "duration": 0.0248,
      "velocity": 112,
      "chip": "ym2612"
    },
    {
      "channel": 3,
      "note": 55,
      "start": 5.6754,
      "duration": 0.0247,
      "velocity": 113,
      "chip": "ym2612"
    },
    {
      "channel": 0,
      "note": 68,
      "start": 5.6959,
      "duration": 0.0205,
      "velocity": 107,
      "chip": "ym2612"
    },
    {
      "channel": 4,
      "note": 56,
      "start": 5.6965,
      "duration": 0.0206,
      "velocity": 91,
      "chip": "ym2612"
    },
    {
      "channel": 1,
      "note": 63,
      "start": 5.7,
      "duration": 0.0211,
      "velocity": 112,
      "chip": "ym2612"
    },
    {
      "channel": 3,
      "note": 56,
      "start": 5.7002,
      "duration": 0.0212,
      "velocity": 113,
      "chip": "ym2612"
    },
    {
      "channel": 0,
      "note": 69,
      "start": 5.7166,
      "duration": 0.0214,
      "velocity": 107,
      "chip": "ym2612"
    },
    {
      "channel": 4,
      "note": 57,
      "start": 5.7171,
      "duration": 0.0215,
      "velocity": 91,
      "chip": "ym2612"
    },
    {
      "channel": 1,
      "note": 64,
      "start": 5.7212,
      "duration": 0.021,
      "velocity": 112,
      "chip": "ym2612"
    },
    {
      "channel": 3,
      "note": 57,
      "start": 5.7216,
      "duration": 0.021,
      "velocity": 113,
      "chip": "ym2612"
    },
    {
      "channel": 0,
      "note": 62,
      "start": 5.7382,
      "duration": 0.0216,
      "velocity": 107,
      "chip": "ym2612"
    },
    {
      "channel": 4,
      "note": 50,
      "start": 5.7389,
      "duration": 0.0215,
      "velocity": 91,
      "chip": "ym2612"
    },
    {
      "channel": 1,
      "note": 57,
      "start": 5.7425,
      "duration": 0.0215,
      "velocity": 112,
      "chip": "ym2612"
    },
    {
      "channel": 3,
      "note": 50,
      "start": 5.7428,
      "duration": 0.0217,
      "velocity": 113,
      "chip": "ym2612"
    },
    {
      "channel": 0,
      "note": 63,
      "start": 5.76,
      "duration": 0.0207,
      "velocity": 107,
      "chip": "ym2612"
    },
    {
      "channel": 4,
      "note": 51,
      "start": 5.7606,
      "duration": 0.0207,
      "velocity": 91,
      "chip": "ym2612"
    },
    {
      "channel": 1,
      "note": 58,
      "start": 5.7643,
      "duration": 0.0205,
      "velocity": 112,
      "chip": "ym2612"
    },
    {
      "channel": 3,
      "note": 51,
      "start": 5.7645,
      "duration": 0.0206,
      "velocity": 113,
      "chip": "ym2612"
    },
    {
      "channel": 0,
      "note": 64,
      "start": 5.7809,
      "duration": 0.0213,
      "velocity": 107,
      "chip": "ym2612"
    },
    {
      "channel": 4,
      "note": 52,
      "start": 5.7815,
      "duration": 0.0214,
      "velocity": 91,
      "chip": "ym2612"
    },
    {
      "channel": 1,
      "note": 59,
      "start": 5.7849,
      "duration": 0.0217,
      "velocity": 112,
      "chip": "ym2612"
    },
    {
      "channel": 3,
      "note": 52,
      "start": 5.7854,
      "duration": 0.022,
      "velocity": 113,
      "chip": "ym2612"
    },
    {
      "channel": 0,
      "note": 67,
      "start": 5.8024,
      "duration": 0.0234,
      "velocity": 107,
      "chip": "ym2612"
    },
    {
      "channel": 4,
      "note": 50,
      "start": 5.803,
      "duration": 0.0235,
      "velocity": 91,
      "chip": "ym2612"
    },
    {
      "channel": 1,
      "note": 62,
      "start": 5.8069,
      "duration": 0.0233,
      "velocity": 112,
      "chip": "ym2612"
    },
    {
      "channel": 3,
      "note": 57,
      "start": 5.8075,
      "duration": 0.0232,
      "velocity": 113,
      "chip": "ym2612"
    },
    {
      "channel": 0,
      "note": 64,
      "start": 5.8261,
      "duration": 0.0119,
      "velocity": 107,
      "chip": "ym2612"
    },
    {
      "channel": 4,
      "note": 52,
      "start": 5.8266,
      "duration": 0.0443,
      "velocity": 91,
      "chip": "ym2612"
    },
    {
      "channel": 1,
      "note": 59,
      "start": 5.8304,
      "duration": 0.0115,
      "velocity": 112,
      "chip": "ym2612"
    },
    {
      "channel": 3,
      "note": 52,
      "start": 5.8308,
      "duration": 0.0114,
      "velocity": 113,
      "chip": "ym2612"
    },
    {
      "channel": 0,
      "note": 64,
      "start": 5.8382,
      "duration": 0.0108,
      "velocity": 107,
      "chip": "ym2612"
    },
    {
      "channel": 1,
      "note": 59,
      "start": 5.8422,
      "duration": 0.0088,
      "velocity": 112,
      "chip": "ym2612"
    },
    {
      "channel": 3,
      "note": 52,
      "start": 5.8424,
      "duration": 0.0087,
      "velocity": 113,
      "chip": "ym2612"
    },
    {
      "channel": 0,
      "note": 64,
      "start": 5.8491,
      "duration": 0.0097,
      "velocity": 107,
      "chip": "ym2612"
    },
    {
      "channel": 1,
      "note": 59,
      "start": 5.8511,
      "duration": 0.0114,
      "velocity": 112,
      "chip": "ym2612"
    },
    {
      "channel": 3,
      "note": 52,
      "start": 5.8514,
      "duration": 0.0114,
      "velocity": 113,
      "chip": "ym2612"
    },
    {
      "channel": 0,
      "note": 64,
      "start": 5.859,
      "duration": 0.0112,
      "velocity": 107,
      "chip": "ym2612"
    },
    {
      "channel": 1,
      "note": 59,
      "start": 5.8627,
      "duration": 0.01,
      "velocity": 112,
      "chip": "ym2612"
    },
    {
      "channel": 3,
      "note": 52,
      "start": 5.863,
      "duration": 0.0099,
      "velocity": 113,
      "chip": "ym2612"
    },
    {
      "channel": 0,
      "note": 64,
      "start": 5.8704,
      "duration": 0.0094,
      "velocity": 107,
      "chip": "ym2612"
    },
    {
      "channel": 4,
      "note": 52,
      "start": 5.8711,
      "duration": 0.0219,
      "velocity": 91,
      "chip": "ym2612"
    },
    {
      "channel": 1,
      "note": 59,
      "start": 5.8728,
      "duration": 0.011,
      "velocity": 112,
      "chip": "ym2612"
    },
    {
      "channel": 3,
      "note": 52,
      "start": 5.8731,
      "duration": 0.0111,
      "velocity": 113,
      "chip": "ym2612"
    },
    {
      "channel": 0,
      "note": 64,
      "start": 5.8802,
      "duration": 0.0121,
      "velocity": 107,
      "chip": "ym2612"
    },
    {
      "channel": 1,
      "note": 59,
      "start": 5.8841,
      "duration": 0.0107,
      "velocity": 112,
      "chip": "ym2612"
    },
    {
      "channel": 3,
      "note": 52,
      "start": 5.8844,
      "duration": 0.0107,
      "velocity": 113,
      "chip": "ym2612"
    },
    {
      "channel": 0,
      "note": 69,
      "start": 5.8925,
      "duration": 0.0216,
      "velocity": 107,
      "chip": "ym2612"
    },
    {
      "channel": 4,
      "note": 52,
      "start": 5.8931,
      "duration": 0.0215,
      "velocity": 91,
      "chip": "ym2612"
    },
    {
      "channel": 1,
      "note": 64,
      "start": 5.895,
      "duration": 0.0233,
      "velocity": 112,
      "chip": "ym2612"
    },
    {
      "channel": 3,
      "note": 57,
      "start": 5.8954,
      "duration": 0.0233,
      "velocity": 113,
      "chip": "ym2612"
    },
    {
      "channel": 0,
      "note": 64,
      "start": 5.9144,
      "duration": 0.0098,
      "velocity": 107,
      "chip": "ym2612"
    },
    {
      "channel": 4,
      "note": 52,
      "start": 5.9148,
      "duration": 0.0218,
      "velocity": 91,
      "chip": "ym2612"
    },
    {
      "channel": 1,
      "note": 59,
      "start": 5.9185,
      "duration": 0.0097,
      "velocity": 112,
      "chip": "ym2612"
    },
    {
      "channel": 3,
      "note": 52,
      "start": 5.9188,
      "duration": 0.0096,
      "velocity": 113,
      "chip": "ym2612"
    },
    {
      "channel": 0,
      "note": 64,
      "start": 5.9244,
      "duration": 0.0116,
      "velocity": 107,
      "chip": "ym2612"
    },
    {
      "channel": 1,
      "note": 59,
      "start": 5.9284,
      "duration": 0.0118,
      "velocity": 112,
      "chip": "ym2612"
    },
    {
      "channel": 3,
      "note": 52,
      "start": 5.9286,
      "duration": 0.0119,
      "velocity": 113,
      "chip": "ym2612"
    },
    {
      "channel": 0,
      "note": 64,
      "start": 5.9362,
      "duration": 0.01,
      "velocity": 107,
      "chip": "ym2612"
    },
    {
      "channel": 4,
      "note": 52,
      "start": 5.9368,
      "duration": 0.0215,
      "velocity": 91,
      "chip": "ym2612"
    },
    {
      "channel": 1,
      "note": 59,
      "start": 5.9405,
      "duration": 0.0092,
      "velocity": 112,
      "chip": "ym2612"
    },
    {
      "channel": 3,
      "note": 52,
      "start": 5.9407,
      "duration": 0.0093,
      "velocity": 113,
      "chip": "ym2612"
    },
    {
      "channel": 0,
      "note": 64,
      "start": 5.9464,
      "duration": 0.0113,
      "velocity": 107,
      "chip": "ym2612"
    },
    {
      "channel": 1,
      "note": 59,
      "start": 5.9499,
      "duration": 0.0121,
      "velocity": 112,
      "chip": "ym2612"
    },
    {
      "channel": 3,
      "note": 52,
      "start": 5.9502,
      "duration": 0.0121,
      "velocity": 113,
      "chip": "ym2612"
    },
    {
      "channel": 0,
      "note": 64,
      "start": 5.958,
      "duration": 0.0096,
      "velocity": 107,
      "chip": "ym2612"
    },
    {
      "channel": 4,
      "note": 52,
      "start": 5.9585,
      "duration": 0.0228,
      "velocity": 91,
      "chip": "ym2612"
    },
    {
      "channel": 1,
      "note": 59,
      "start": 5.9623,
      "duration": 0.0095,
      "velocity": 112,
      "chip": "ym2612"
    },
    {
      "channel": 3,
      "note": 52,
      "start": 5.9626,
      "duration": 0.0095,
      "velocity": 113,
      "chip": "ym2612"
    },
    {
      "channel": 0,
      "note": 64,
      "start": 5.9678,
      "duration": 0.0128,
      "velocity": 107,
      "chip": "ym2612"
    },
    {
      "channel": 1,
      "note": 59,
      "start": 5.972,
      "duration": 0.013,
      "velocity": 112,
      "chip": "ym2612"
    },
    {
      "channel": 3,
      "note": 52,
      "start": 5.9724,
      "duration": 0.0133,
      "velocity": 113,
      "chip": "ym2612"
    },
    {
      "channel": 0,
      "note": 67,
      "start": 5.981,
      "duration": 0.0204,
      "velocity": 107,
      "chip": "ym2612"
    },
    {
      "channel": 4,
      "note": 50,
      "start": 5.9816,
      "duration": 0.0204,
      "velocity": 91,
      "chip": "ym2612"
    },
    {
      "channel": 1,
      "note": 62,
      "start": 5.9853,
      "duration": 0.0206,
      "velocity": 112,
      "chip": "ym2612"
    },
    {
      "channel": 3,
      "note": 50,
      "start": 5.9859,
      "duration": 0.0203,
      "velocity": 113,
      "chip": "ym2612"
    },
    {
      "channel": 0,
      "note": 64,
      "start": 6.0016,
      "duration": 0.0097,
      "velocity": 107,
      "chip": "ym2612"
    },
    {
      "channel": 4,
      "note": 52,
      "start": 6.0022,
      "duration": 0.0427,
      "velocity": 91,
      "chip": "ym2612"
    },
    {
      "channel": 1,
      "note": 59,
      "start": 6.0061,
      "duration": 0.0091,
      "velocity": 112,
      "chip": "ym2612"
    },
    {
      "channel": 3,
      "note": 52,
      "start": 6.0063,
      "duration": 0.009,
      "velocity": 113,
      "chip": "ym2612"
    },
    {
      "channel": 0,
      "note": 64,
      "start": 6.0116,
      "duration": 0.012,
      "velocity": 107,
      "chip": "ym2612"
    },
    {
      "channel": 1,
      "note": 59,
      "start": 6.0153,
      "duration": 0.0123,
      "velocity": 112,
      "chip": "ym2612"
    },
    {
      "channel": 3,
      "note": 52,
      "start": 6.0156,
      "duration": 0.0125,
      "velocity": 113,
      "chip": "ym2612"
    },
    {
      "channel": 0,
      "note": 67,
      "start": 6.0238,
      "duration": 0.0204,
      "velocity": 107,
      "chip": "ym2612"
    },
    {
      "channel": 1,
      "note": 62,
      "start": 6.0278,
      "duration": 0.0208,
      "velocity": 112,
      "chip": "ym2612"
    },
    {
      "channel": 3,
      "note": 67,
      "start": 6.0283,
      "duration": 0.0207,
      "velocity": 113,
      "chip": "ym2612"
    },
    {
      "channel": 0,
      "note": 69,
      "start": 6.0445,
      "duration": 0.0414,
      "velocity": 107,
      "chip": "ym2612"
    },
    {
      "channel": 4,
      "note": 52,
      "start": 6.0451,
      "duration": 0.0206,
      "velocity": 91,
      "chip": "ym2612"
    },
    {
      "channel": 1,
      "note": 64,
      "start": 6.0488,
      "duration": 0.0411,
      "velocity": 112,
      "chip": "ym2612"
    },
    {
      "channel": 3,
      "note": 57,
      "start": 6.0491,
      "duration": 0.0412,
      "velocity": 113,
      "chip": "ym2612"
    },
    {
      "channel": 4,
      "note": 52,
      "start": 6.0658,
      "duration": 0.0207,
      "velocity": 91,
      "chip": "ym2612"
    },
    {
      "channel": 0,
      "note": 69,
      "start": 6.0861,
      "duration": 0.0198,
      "velocity": 107,
      "chip": "ym2612"
    },
    {
      "channel": 4,
      "note": 52,
      "start": 6.0867,
      "duration": 0.0199,
      "velocity": 91,
      "chip": "ym2612"
    },
    {
      "channel": 1,
      "note": 64,
      "start": 6.0902,
      "duration": 0.0199,
      "velocity": 112,
      "chip": "ym2612"
    },
    {
      "channel": 3,
      "note": 57,
      "start": 6.0905,
      "duration": 0.0197,
      "velocity": 113,
      "chip": "ym2612"
    },
    {
      "channel": 0,
      "note": 67,
      "start": 6.1062,
      "duration": 0.0203,
      "velocity": 107,
      "chip": "ym2612"
    },
    {
      "channel": 4,
      "note": 52,
      "start": 6.1068,
      "duration": 0.0205,
      "velocity": 91,
      "chip": "ym2612"
    },
    {
      "channel": 1,
      "note": 62,
      "start": 6.1102,
      "duration": 0.0205,
      "velocity": 112,
      "chip": "ym2612"
    },
    {
      "channel": 3,
      "note": 50,
      "start": 6.1104,
      "duration": 0.0204,
      "velocity": 113,
      "chip": "ym2612"
    },
    {
      "channel": 0,
      "note": 64,
      "start": 6.1268,
      "duration": 0.0217,
      "velocity": 107,
      "chip": "ym2612"
    },
    {
      "channel": 4,
      "note": 52,
      "start": 6.1274,
      "duration": 0.0219,
      "velocity": 91,
      "chip": "ym2612"
    },
    {
      "channel": 1,
      "note": 59,
      "start": 6.1308,
      "duration": 0.0226,
      "velocity": 112,
      "chip": "ym2612"
    },
    {
      "channel": 3,
      "note": 52,
      "start": 6.1311,
      "duration": 0.0227,
      "velocity": 113,
      "chip": "ym2612"
    },
    {
      "channel": 0,
      "note": 67,
      "start": 6.1488,
      "duration": 0.0232,
      "velocity": 107,
      "chip": "ym2612"
    },
    {
      "channel": 4,
      "note": 50,
      "start": 6.1495,
      "duration": 0.0232,
      "velocity": 91,
      "chip": "ym2612"
    },
    {
      "channel": 1,
      "note": 62,
      "start": 6.1535,
      "duration": 0.0226,
      "velocity": 112,
      "chip": "ym2612"
    },
    {
      "channel": 3,
      "note": 57,
      "start": 6.1539,
      "duration": 0.0225,
      "velocity": 113,
      "chip": "ym2612"
    },
    {
      "channel": 0,
      "note": 64,
      "start": 6.1723,
      "duration": 0.011,
      "velocity": 107,
      "chip": "ym2612"
    },
    {
      "channel": 4,
      "note": 52,
      "start": 6.1729,
      "duration": 0.0429,
      "velocity": 91,
      "chip": "ym2612"
    },
    {
      "channel": 1,
      "note": 59,
      "start": 6.1763,
      "duration": 0.0109,
      "velocity": 112,
      "chip": "ym2612"
    },
    {
      "channel": 3,
      "note": 52,
      "start": 6.1766,
      "duration": 0.0108,
      "velocity": 113,
      "chip": "ym2612"
    },
    {
      "channel": 0,
      "note": 64,
      "start": 6.1835,
      "duration": 0.0107,
      "velocity": 107,
      "chip": "ym2612"
    },
    {
      "channel": 1,
      "note": 59,
      "start": 6.1873,
      "duration": 0.0106,
      "velocity": 112,
      "chip": "ym2612"
    },
    {
      "channel": 3,
      "note": 52,
      "start": 6.1877,
      "duration": 0.0106,
      "velocity": 113,
      "chip": "ym2612"
    },
    {
      "channel": 0,
      "note": 64,
      "start": 6.1944,
      "duration": 0.0112,
      "velocity": 107,
      "chip": "ym2612"
    },
    {
      "channel": 1,
      "note": 59,
      "start": 6.1982,
      "duration": 0.0112,
      "velocity": 112,
      "chip": "ym2612"
    },
    {
      "channel": 3,
      "note": 52,
      "start": 6.1985,
      "duration": 0.0112,
      "velocity": 113,
      "chip": "ym2612"
    },
    {
      "channel": 0,
      "note": 64,
      "start": 6.2059,
      "duration": 0.0094,
      "velocity": 107,
      "chip": "ym2612"
    },
    {
      "channel": 1,
      "note": 59,
      "start": 6.2095,
      "duration": 0.0098,
      "velocity": 112,
      "chip": "ym2612"
    },
    {
      "channel": 3,
      "note": 52,
      "start": 6.2099,
      "duration": 0.0098,
      "velocity": 113,
      "chip": "ym2612"
    },
    {
      "channel": 0,
      "note": 64,
      "start": 6.2155,
      "duration": 0.0111,
      "velocity": 107,
      "chip": "ym2612"
    },
    {
      "channel": 4,
      "note": 52,
      "start": 6.2159,
      "duration": 0.0206,
      "velocity": 91,
      "chip": "ym2612"
    },
    {
      "channel": 1,
      "note": 59,
      "start": 6.2195,
      "duration": 0.011,
      "velocity": 112,
      "chip": "ym2612"
    },
    {
      "channel": 3,
      "note": 52,
      "start": 6.2197,
      "duration": 0.0111,
      "velocity": 113,
      "chip": "ym2612"
    },
    {
      "channel": 0,
      "note": 64,
      "start": 6.2268,
      "duration": 0.0092,
      "velocity": 107,
      "chip": "ym2612"
    },
    {
      "channel": 1,
      "note": 59,
      "start": 6.2307,
      "duration": 0.0095,
      "velocity": 112,
      "chip": "ym2612"
    },
    {
      "channel": 3,
      "note": 52,
      "start": 6.231,
      "duration": 0.0097,
      "velocity": 113,
      "chip": "ym2612"
    },
    {
      "channel": 0,
      "note": 69,
      "start": 6.2362,
      "duration": 0.0226,
      "velocity": 107,
      "chip": "ym2612"
    },
    {
      "channel": 4,
      "note": 52,
      "start": 6.2367,
      "duration": 0.0225,
      "velocity": 91,
      "chip": "ym2612"
    },
    {
      "channel": 1,
      "note": 64,
      "start": 6.2405,
      "duration": 0.0206,
      "velocity": 112,
      "chip": "ym2612"
    },
    {
      "channel": 3,
      "note": 57,
      "start": 6.2409,
      "duration": 0.0206,
      "velocity": 113,
      "chip": "ym2612"
    },
    {
      "channel": 0,
      "note": 64,
      "start": 6.259,
      "duration": 0.0098,
      "velocity": 107,
      "chip": "ym2612"
    },
    {
      "channel": 4,
      "note": 52,
      "start": 6.2595,
      "duration": 0.0223,
      "velocity": 91,
      "chip": "ym2612"
    },
    {
      "channel": 1,
      "note": 59,
      "start": 6.2613,
      "duration": 0.0117,
      "velocity": 112,
      "chip": "ym2612"
    },
    {
      "channel": 3,
      "note": 52,
      "start": 6.2616,
      "duration": 0.0117,
      "velocity": 113,
      "chip": "ym2612"
    },
    {
      "channel": 0,
      "note": 64,
      "start": 6.269,
      "duration": 0.012,
      "velocity": 107,
      "chip": "ym2612"
    },
    {
      "channel": 1,
      "note": 59,
      "start": 6.2732,
      "duration": 0.0102,
      "velocity": 112,
      "chip": "ym2612"
    },
    {
      "channel": 3,
      "note": 52,
      "start": 6.2736,
      "duration": 0.0102,
      "velocity": 113,
      "chip": "ym2612"
    },
    {
      "channel": 0,
      "note": 64,
      "start": 6.2813,
      "duration": 0.0092,
      "velocity": 107,
      "chip": "ym2612"
    },
    {
      "channel": 4,
      "note": 52,
      "start": 6.2819,
      "duration": 0.0206,
      "velocity": 91,
      "chip": "ym2612"
    },
    {
      "channel": 1,
      "note": 59,
      "start": 6.2837,
      "duration": 0.0107,
      "velocity": 112,
      "chip": "ym2612"
    },
    {
      "channel": 3,
      "note": 52,
      "start": 6.284,
      "duration": 0.0107,
      "velocity": 113,
      "chip": "ym2612"
    },
    {
      "channel": 0,
      "note": 64,
      "start": 6.2907,
      "duration": 0.0113,
      "velocity": 107,
      "chip": "ym2612"
    },
    {
      "channel": 1,
      "note": 59,
      "start": 6.2946,
      "duration": 0.0099,
      "velocity": 112,
      "chip": "ym2612"
    },
    {
      "channel": 3,
      "note": 52,
      "start": 6.2948,
      "duration": 0.0099,
      "velocity": 113,
      "chip": "ym2612"
    },
    {
      "channel": 0,
      "note": 64,
      "start": 6.3022,
      "duration": 0.0093,
      "velocity": 107,
      "chip": "ym2612"
    },
    {
      "channel": 4,
      "note": 52,
      "start": 6.3027,
      "duration": 0.0219,
      "velocity": 91,
      "chip": "ym2612"
    },
    {
      "channel": 1,
      "note": 59,
      "start": 6.3046,
      "duration": 0.0107,
      "velocity": 112,
      "chip": "ym2612"
    },
    {
      "channel": 3,
      "note": 52,
      "start": 6.305,
      "duration": 0.0107,
      "velocity": 113,
      "chip": "ym2612"
    },
    {
      "channel": 0,
      "note": 64,
      "start": 6.3117,
      "duration": 0.0122,
      "velocity": 107,
      "chip": "ym2612"
    },
    {
      "channel": 1,
      "note": 59,
      "start": 6.3156,
      "duration": 0.0112,
      "velocity": 112,
      "chip": "ym2612"
    },
    {
      "channel": 3,
      "note": 52,
      "start": 6.3159,
      "duration": 0.0114,
      "velocity": 113,
      "chip": "ym2612"
    },
    {
      "channel": 0,
      "note": 67,
      "start": 6.3242,
      "duration": 0.0248,
      "velocity": 107,
      "chip": "ym2612"
    },
    {
      "channel": 4,
      "note": 55,
      "start": 6.3249,
      "duration": 0.0248,
      "velocity": 91,
      "chip": "ym2612"
    },
    {
      "channel": 1,
      "note": 62,
      "start": 6.3271,
      "duration": 0.0263,
      "velocity": 112,
      "chip": "ym2612"
    },
    {
      "channel": 3,
      "note": 55,
      "start": 6.3274,
      "duration": 0.0263,
      "velocity": 113,
      "chip": "ym2612"
    },
    {
      "channel": 0,
      "note": 68,
      "start": 6.3492,
      "duration": 0.0211,
      "velocity": 107,
      "chip": "ym2612"
    },
    {
      "channel": 4,
      "note": 56,
      "start": 6.3499,
      "duration": 0.021,
      "velocity": 91,
      "chip": "ym2612"
    },
    {
      "channel": 1,
      "note": 63,
      "start": 6.3535,
      "duration": 0.021,
      "velocity": 112,
      "chip": "ym2612"
    },
    {
      "channel": 3,
      "note": 56,
      "start": 6.3538,
      "duration": 0.021,
      "velocity": 113,
      "chip": "ym2612"
    },
    {
      "channel": 0,
      "note": 69,
      "start": 6.3705,
      "duration": 0.0205,
      "velocity": 107,
      "chip": "ym2612"
    },
    {
      "channel": 4,
      "note": 57,
      "start": 6.3711,
      "duration": 0.0206,
      "velocity": 91,
      "chip": "ym2612"
    },
    {
      "channel": 1,
      "note": 64,
      "start": 6.3748,
      "duration": 0.0208,
      "velocity": 112,
      "chip": "ym2612"
    },
    {
      "channel": 3,
      "note": 57,
      "start": 6.375,
      "duration": 0.021,
      "velocity": 113,
      "chip": "ym2612"
    },
    {
      "channel": 0,
      "note": 70,
      "start": 6.3914,
      "duration": 0.0213,
      "velocity": 107,
      "chip": "ym2612"
    },
    {
      "channel": 4,
      "note": 58,
      "start": 6.392,
      "duration": 0.0214,
      "velocity": 91,
      "chip": "ym2612"
    },
    {
      "channel": 1,
      "note": 77,
      "start": 6.3958,
      "duration": 0.0217,
      "velocity": 112,
      "chip": "ym2612"
    },
    {
      "channel": 3,
      "note": 58,
      "start": 6.3963,
      "duration": 0.0216,
      "velocity": 113,
      "chip": "ym2612"
    },
    {
      "channel": 0,
      "note": 62,
      "start": 6.4129,
      "duration": 0.0227,
      "velocity": 107,
      "chip": "ym2612"
    },
    {
      "channel": 4,
      "note": 50,
      "start": 6.4136,
      "duration": 0.0226,
      "velocity": 91,
      "chip": "ym2612"
    },
    {
      "channel": 1,
      "note": 57,
      "start": 6.4177,
      "duration": 0.0219,
      "velocity": 112,
      "chip": "ym2612"
    },
    {
      "channel": 3,
      "note": 50,
      "start": 6.4182,
      "duration": 0.0218,
      "velocity": 113,
      "chip": "ym2612"
    },
    {
      "channel": 0,
      "note": 63,
      "start": 6.4359,
      "duration": 0.0207,
      "velocity": 107,
      "chip": "ym2612"
    },
    {
      "channel": 4,
      "note": 51,
      "start": 6.4365,
      "duration": 0.0208,
      "velocity": 91,
      "chip": "ym2612"
    },
    {
      "channel": 1,
      "note": 58,
      "start": 6.4398,
      "duration": 0.0211,
      "velocity": 112,
      "chip": "ym2612"
    },
    {
      "channel": 3,
      "note": 51,
      "start": 6.4402,
      "duration": 0.0211,
      "velocity": 113,
      "chip": "ym2612"
    },
    {
      "channel": 0,
      "note": 64,
      "start": 6.4569,
      "duration": 0.0211,
      "velocity": 107,
      "chip": "ym2612"
    },
    {
      "channel": 4,
      "note": 52,
      "start": 6.4575,
      "duration": 0.0211,
      "velocity": 91,
      "chip": "ym2612"
    },
    {
      "channel": 1,
      "note": 59,
      "start": 6.4611,
      "duration": 0.0209,
      "velocity": 112,
      "chip": "ym2612"
    },
    {
      "channel": 3,
      "note": 52,
      "start": 6.4616,
      "duration": 0.0207,
      "velocity": 113,
      "chip": "ym2612"
    },
    {
      "channel": 0,
      "note": 66,
      "start": 6.4782,
      "duration": 0.0201,
      "velocity": 107,
      "chip": "ym2612"
    },
    {
      "channel": 4,
      "note": 54,
      "start": 6.4788,
      "duration": 0.0201,
      "velocity": 91,
      "chip": "ym2612"
    },
    {
      "channel": 1,
      "note": 61,
      "start": 6.4822,
      "duration": 0.0202,
      "velocity": 112,
      "chip": "ym2612"
    },
    {
      "channel": 3,
      "note": 54,
      "start": 6.4825,
      "duration": 0.0204,
      "velocity": 113,
      "chip": "ym2612"
    },
    {
      "channel": 0,
      "note": 67,
      "start": 6.4985,
      "duration": 0.1333,
      "velocity": 107,
      "chip": "ym2612"
    },
    {
      "channel": 4,
      "note": 55,
      "start": 6.499,
      "duration": 0.0229,
      "velocity": 91,
      "chip": "ym2612"
    },
    {
      "channel": 1,
      "note": 62,
      "start": 6.5027,
      "duration": 0.1334,
      "velocity": 112,
      "chip": "ym2612"
    },
    {
      "channel": 3,
      "note": 55,
      "start": 6.5032,
      "duration": 0.1332,
      "velocity": 113,
      "chip": "ym2612"
    },
    {
      "channel": 4,
      "note": 55,
      "start": 6.5221,
      "duration": 0.0218,
      "velocity": 91,
      "chip": "ym2612"
    },
    {
      "channel": 4,
      "note": 55,
      "start": 6.5441,
      "duration": 0.0215,
      "velocity": 91,
      "chip": "ym2612"
    },
    {
      "channel": 4,
      "note": 55,
      "start": 6.5657,
      "duration": 0.022,
      "velocity": 91,
      "chip": "ym2612"
    },
    {
      "channel": 4,
      "note": 55,
      "start": 6.5879,
      "duration": 0.0222,
      "velocity": 91,
      "chip": "ym2612"
    },
    {
      "channel": 4,
      "note": 55,
      "start": 6.6103,
      "duration": 0.0222,
      "velocity": 91,
      "chip": "ym2612"
    },
    {
      "channel": 0,
      "note": 67,
      "start": 6.632,
      "duration": 0.0448,
      "velocity": 107,
      "chip": "ym2612"
    },
    {
      "channel": 4,
      "note": 55,
      "start": 6.6327,
      "duration": 0.0212,
      "velocity": 91,
      "chip": "ym2612"
    },
    {
      "channel": 1,
      "note": 62,
      "start": 6.6362,
      "duration": 0.0453,
      "velocity": 112,
      "chip": "ym2612"
    },
    {
      "channel": 3,
      "note": 55,
      "start": 6.6365,
      "duration": 0.0453,
      "velocity": 113,
      "chip": "ym2612"
    },
    {
      "channel": 4,
      "note": 55,
      "start": 6.6541,
      "duration": 0.0234,
      "velocity": 91,
      "chip": "ym2612"
    },
    {
      "channel": 0,
      "note": 60,
      "start": 6.6771,
      "duration": 0.1367,
      "velocity": 107,
      "chip": "ym2612"
    },
    {
      "channel": 4,
      "note": 48,
      "start": 6.6776,
      "duration": 0.0233,
      "velocity": 91,
      "chip": "ym2612"
    },
    {
      "channel": 1,
      "note": 55,
      "start": 6.6817,
      "duration": 0.1363,
      "velocity": 112,
      "chip": "ym2612"
    },
    {
      "channel": 3,
      "note": 48,
      "start": 6.682,
      "duration": 0.1363,
      "velocity": 113,
      "chip": "ym2612"
    },
    {
      "channel": 4,
      "note": 48,
      "start": 6.7012,
      "duration": 0.023,
      "velocity": 91,
      "chip": "ym2612"
    },
    {
      "channel": 4,
      "note": 48,
      "start": 6.7244,
      "duration": 0.0218,
      "velocity": 91,
      "chip": "ym2612"
    },
    {
      "channel": 4,
      "note": 48,
      "start": 6.7464,
      "duration": 0.0229,
      "velocity": 91,
      "chip": "ym2612"
    },
    {
      "channel": 4,
      "note": 48,
      "start": 6.7696,
      "duration": 0.0226,
      "velocity": 91,
      "chip": "ym2612"
    },
    {
      "channel": 4,
      "note": 48,
      "start": 6.7924,
      "duration": 0.022,
      "velocity": 91,
      "chip": "ym2612"
    },
    {
      "channel": 0,
      "note": 60,
      "start": 6.814,
      "duration": 0.0444,
      "velocity": 107,
      "chip": "ym2612"
    },
    {
      "channel": 4,
      "note": 48,
      "start": 6.8146,
      "duration": 0.0217,
      "velocity": 91,
      "chip": "ym2612"
    },
    {
      "channel": 1,
      "note": 55,
      "start": 6.8182,
      "duration": 0.0447,
      "velocity": 112,
      "chip": "ym2612"
    },
    {
      "channel": 3,
      "note": 48,
      "start": 6.8186,
      "duration": 0.0447,
      "velocity": 113,
      "chip": "ym2612"
    },
    {
      "channel": 4,
      "note": 48,
      "start": 6.8367,
      "duration": 0.0224,
      "velocity": 91,
      "chip": "ym2612"
    },
    {
      "channel": 0,
      "note": 62,
      "start": 6.8587,
      "duration": 0.1773,
      "velocity": 107,
      "chip": "ym2612"
    },
    {
      "channel": 4,
      "note": 50,
      "start": 6.8593,
      "duration": 0.0243,
      "velocity": 91,
      "chip": "ym2612"
    },
    {
      "channel": 1,
      "note": 57,
      "start": 6.8631,
      "duration": 0.1775,
      "velocity": 112,
      "chip": "ym2612"
    },
    {
      "channel": 3,
      "note": 50,
      "start": 6.8634,
      "duration": 0.1773,
      "velocity": 113,
      "chip": "ym2612"
    },
    {
      "channel": 4,
      "note": 50,
      "start": 6.8837,
      "duration": 0.0231,
      "velocity": 91,
      "chip": "ym2612"
    },
    {
      "channel": 4,
      "note": 50,
      "start": 6.9071,
      "duration": 0.0217,
      "velocity": 91,
      "chip": "ym2612"
    },
    {
      "channel": 4,
      "note": 50,
      "start": 6.9289,
      "duration": 0.0225,
      "velocity": 91,
      "chip": "ym2612"
    },
    {
      "channel": 4,
      "note": 50,
      "start": 6.9516,
      "duration": 0.0207,
      "velocity": 91,
      "chip": "ym2612"
    },
    {
      "channel": 4,
      "note": 50,
      "start": 6.9725,
      "duration": 0.0218,
      "velocity": 91,
      "chip": "ym2612"
    },
    {
      "channel": 4,
      "note": 50,
      "start": 6.9946,
      "duration": 0.0213,
      "velocity": 91,
      "chip": "ym2612"
    },
    {
      "channel": 4,
      "note": 50,
      "start": 7.0161,
      "duration": 0.0204,
      "velocity": 91,
      "chip": "ym2612"
    },
    {
      "channel": 0,
      "note": 61,
      "start": 7.036,
      "duration": 0.1866,
      "velocity": 107,
      "chip": "ym2612"
    },
    {
      "channel": 4,
      "note": 50,
      "start": 7.0367,
      "duration": 0.0253,
      "velocity": 91,
      "chip": "ym2612"
    },
    {
      "channel": 1,
      "note": 56,
      "start": 7.0406,
      "duration": 0.1866,
      "velocity": 112,
      "chip": "ym2612"
    },
    {
      "channel": 3,
      "note": 50,
      "start": 7.041,
      "duration": 0.0249,
      "velocity": 113,
      "chip": "ym2612"
    },
    {
      "channel": 4,
      "note": 50,
      "start": 7.0621,
      "duration": 0.023,
      "velocity": 91,
      "chip": "ym2612"
    },
    {
      "channel": 3,
      "note": 50,
      "start": 7.0661,
      "duration": 0.0115,
      "velocity": 113,
      "chip": "ym2612"
    },
    {
      "channel": 3,
      "note": 50,
      "start": 7.0778,
      "duration": 0.0116,
      "velocity": 113,
      "chip": "ym2612"
    },
    {
      "channel": 4,
      "note": 50,
      "start": 7.0853,
      "duration": 0.0231,
      "velocity": 91,
      "chip": "ym2612"
    },
    {
      "channel": 3,
      "note": 50,
      "start": 7.0897,
      "duration": 0.0113,
      "velocity": 113,
      "chip": "ym2612"
    },
    {
      "channel": 3,
      "note": 50,
      "start": 7.1013,
      "duration": 0.0109,
      "velocity": 113,
      "chip": "ym2612"
    },
    {
      "channel": 4,
      "note": 50,
      "start": 7.1086,
      "duration": 0.0215,
      "velocity": 91,
      "chip": "ym2612"
    },
    {
      "channel": 3,
      "note": 50,
      "start": 7.1123,
      "duration": 0.0113,
      "velocity": 113,
      "chip": "ym2612"
    },
    {
      "channel": 3,
      "note": 50,
      "start": 7.1238,
      "duration": 0.0108,
      "velocity": 113,
      "chip": "ym2612"
    },
    {
      "channel": 4,
      "note": 50,
      "start": 7.1304,
      "duration": 0.0258,
      "velocity": 91,
      "chip": "ym2612"
    },
    {
      "channel": 3,
      "note": 50,
      "start": 7.1347,
      "duration": 0.0131,
      "velocity": 113,
      "chip": "ym2612"
    },
    {
      "channel": 3,
      "note": 50,
      "start": 7.148,
      "duration": 0.0104,
      "velocity": 113,
      "chip": "ym2612"
    },
    {
      "channel": 4,
      "note": 50,
      "start": 7.1563,
      "duration": 0.0218,
      "velocity": 91,
      "chip": "ym2612"
    },
    {
      "channel": 3,
      "note": 50,
      "start": 7.1586,
      "duration": 0.0115,
      "velocity": 113,
      "chip": "ym2612"
    },
    {
      "channel": 3,
      "note": 50,
      "start": 7.1702,
      "duration": 0.0105,
      "velocity": 113,
      "chip": "ym2612"
    },
    {
      "channel": 4,
      "note": 50,
      "start": 7.1783,
      "duration": 0.022,
      "velocity": 91,
      "chip": "ym2612"
    },
    {
      "channel": 3,
      "note": 50,
      "start": 7.1809,
      "duration": 0.0118,
      "velocity": 113,
      "chip": "ym2612"
    },
    {
      "channel": 3,
      "note": 50,
      "start": 7.1929,
      "duration": 0.0097,
      "velocity": 113,
      "chip": "ym2612"
    },
    {
      "channel": 4,
      "note": 50,
      "start": 7.2006,
      "duration": 0.0228,
      "velocity": 91,
      "chip": "ym2612"
    },
    {
      "channel": 3,
      "note": 50,
      "start": 7.2028,
      "duration": 0.012,
      "velocity": 113,
      "chip": "ym2612"
    },
    {
      "channel": 3,
      "note": 50,
      "start": 7.215,
      "duration": 0.0125,
      "velocity": 113,
      "chip": "ym2612"
    },
    {
      "channel": 0,
      "note": 67,
      "start": 7.2229,
      "duration": 0.1338,
      "velocity": 107,
      "chip": "ym2612"
    },
    {
      "channel": 4,
      "note": 55,
      "start": 7.2237,
      "duration": 0.0237,
      "velocity": 91,
      "chip": "ym2612"
    },
    {
      "channel": 1,
      "note": 62,
      "start": 7.2274,
      "duration": 0.1337,
      "velocity": 112,
      "chip": "ym2612"
    },
    {
      "channel": 3,
      "note": 55,
      "start": 7.2278,
      "duration": 0.1336,
      "velocity": 113,
      "chip": "ym2612"
    },
    {
      "channel": 4,
      "note": 55,
      "start": 7.2477,
      "duration": 0.0219,
      "velocity": 91,
      "chip": "ym2612"
    },
    {
      "channel": 4,
      "note": 55,
      "start": 7.2698,
      "duration": 0.0214,
      "velocity": 91,
      "chip": "ym2612"
    },
    {
      "channel": 4,
      "note": 55,
      "start": 7.2914,
      "duration": 0.022,
      "velocity": 91,
      "chip": "ym2612"
    },
    {
      "channel": 4,
      "note": 55,
      "start": 7.3135,
      "duration": 0.022,
      "velocity": 91,
      "chip": "ym2612"
    },
    {
      "channel": 4,
      "note": 55,
      "start": 7.3357,
      "duration": 0.0217,
      "velocity": 91,
      "chip": "ym2612"
    },
    {
      "channel": 0,
      "note": 67,
      "start": 7.3569,
      "duration": 0.0449,
      "velocity": 107,
      "chip": "ym2612"
    },
    {
      "channel": 4,
      "note": 55,
      "start": 7.3576,
      "duration": 0.0218,
      "velocity": 91,
      "chip": "ym2612"
    },
    {
      "channel": 1,
      "note": 62,
      "start": 7.3612,
      "duration": 0.0454,
      "velocity": 112,
      "chip": "ym2612"
    },
    {
      "channel": 3,
      "note": 55,
      "start": 7.3615,
      "duration": 0.0454,
      "velocity": 113,
      "chip": "ym2612"
    },
    {
      "channel": 4,
      "note": 55,
      "start": 7.3797,
      "duration": 0.0229,
      "velocity": 91,
      "chip": "ym2612"
    },
    {
      "channel": 0,
      "note": 60,
      "start": 7.4022,
      "duration": 0.0934,
      "velocity": 107,
      "chip": "ym2612"
    },
    {
      "channel": 4,
      "note": 48,
      "start": 7.4027,
      "duration": 0.0244,
      "velocity": 91,
      "chip": "ym2612"
    },
    {
      "channel": 1,
      "note": 55,
      "start": 7.4067,
      "duration": 0.0929,
      "velocity": 112,
      "chip": "ym2612"
    },
    {
      "channel": 3,
      "note": 48,
      "start": 7.407,
      "duration": 0.093,
      "velocity": 113,
      "chip": "ym2612"
    },
    {
      "channel": 4,
      "note": 48,
      "start": 7.4272,
      "duration": 0.0232,
      "velocity": 91,
      "chip": "ym2612"
    },
    {
      "channel": 4,
      "note": 48,
      "start": 7.4506,
      "duration": 0.0225,
      "velocity": 91,
      "chip": "ym2612"
    },
    {
      "channel": 4,
      "note": 48,
      "start": 7.4734,
      "duration": 0.0227,
      "velocity": 91,
      "chip": "ym2612"
    },
    {
      "channel": 0,
      "note": 60,
      "start": 7.4957,
      "duration": 0.0445,
      "velocity": 107,
      "chip": "ym2612"
    },
    {
      "channel": 4,
      "note": 48,
      "start": 7.4963,
      "duration": 0.0216,
      "velocity": 91,
      "chip": "ym2612"
    },
    {
      "channel": 1,
      "note": 55,
      "start": 7.4999,
      "duration": 0.0447,
      "velocity": 112,
      "chip": "ym2612"
    },
    {
      "channel": 3,
      "note": 48,
      "start": 7.5002,
      "duration": 0.0448,
      "velocity": 113,
      "chip": "ym2612"
    },
    {
      "channel": 4,
      "note": 48,
      "start": 7.5182,
      "duration": 0.0227,
      "velocity": 91,
      "chip": "ym2612"
    },
    {
      "channel": 0,
      "note": 63,
      "start": 7.5405,
      "duration": 0.0424,
      "velocity": 107,
      "chip": "ym2612"
    },
    {
      "channel": 4,
      "note": 51,
      "start": 7.5411,
      "duration": 0.0202,
      "velocity": 91,
      "chip": "ym2612"
    },
    {
      "channel": 1,
      "note": 58,
      "start": 7.5449,
      "duration": 0.0425,
      "velocity": 112,
      "chip": "ym2612"
    },
    {
      "channel": 3,
      "note": 51,
      "start": 7.5451,
      "duration": 0.0426,
      "velocity": 113,
      "chip": "ym2612"
    },
    {
      "channel": 4,
      "note": 51,
      "start": 7.5615,
      "duration": 0.0222,
      "velocity": 91,
      "chip": "ym2612"
    },
    {
      "channel": 0,
      "note": 62,
      "start": 7.5832,
      "duration": 0.1828,
      "velocity": 107,
      "chip": "ym2612"
    },
    {
      "channel": 4,
      "note": 50,
      "start": 7.5838,
      "duration": 0.0229,
      "velocity": 91,
      "chip": "ym2612"
    },
    {
      "channel": 1,
      "note": 57,
      "start": 7.5876,
      "duration": 0.1828,
      "velocity": 112,
      "chip": "ym2612"
    },
    {
      "channel": 3,
      "note": 50,
      "start": 7.5879,
      "duration": 0.1825,
      "velocity": 113,
      "chip": "ym2612"
    },
    {
      "channel": 4,
      "note": 50,
      "start": 7.6068,
      "duration": 0.0224,
      "velocity": 91,
      "chip": "ym2612"
    },
    {
      "channel": 4,
      "note": 50,
      "start": 7.6295,
      "duration": 0.0227,
      "velocity": 91,
      "chip": "ym2612"
    },
    {
      "channel": 4,
      "note": 50,
      "start": 7.6523,
      "duration": 0.0225,
      "velocity": 91,
      "chip": "ym2612"
    },
    {
      "channel": 4,
      "note": 50,
      "start": 7.6751,
      "duration": 0.0222,
      "velocity": 91,
      "chip": "ym2612"
    },
    {
      "channel": 4,
      "note": 50,
      "start": 7.6975,
      "duration": 0.0224,
      "velocity": 91,
      "chip": "ym2612"
    },
    {
      "channel": 4,
      "note": 50,
      "start": 7.7201,
      "duration": 0.0227,
      "velocity": 91,
      "chip": "ym2612"
    },
    {
      "channel": 4,
      "note": 50,
      "start": 7.743,
      "duration": 0.0234,
      "velocity": 91,
      "chip": "ym2612"
    },
    {
      "channel": 0,
      "note": 61,
      "start": 7.766,
      "duration": 0.1894,
      "velocity": 107,
      "chip": "ym2612"
    },
    {
      "channel": 4,
      "note": 50,
      "start": 7.7666,
      "duration": 0.0245,
      "velocity": 91,
      "chip": "ym2612"
    },
    {
      "channel": 1,
      "note": 56,
      "start": 7.7704,
      "duration": 0.1899,
      "velocity": 112,
      "chip": "ym2612"
    },
    {
      "channel": 3,
      "note": 50,
      "start": 7.7707,
      "duration": 0.0241,
      "velocity": 113,
      "chip": "ym2612"
    },
    {
      "channel": 4,
      "note": 50,
      "start": 7.7913,
      "duration": 0.0225,
      "velocity": 91,
      "chip": "ym2612"
    },
    {
      "channel": 3,
      "note": 50,
      "start": 7.795,
      "duration": 0.0093,
      "velocity": 113,
      "chip": "ym2612"
    },
    {
      "channel": 3,
      "note": 50,
      "start": 7.8046,
      "duration": 0.013,
      "velocity": 113,
      "chip": "ym2612"
    },
    {
      "channel": 4,
      "note": 50,
      "start": 7.814,
      "duration": 0.0224,
      "velocity": 91,
      "chip": "ym2612"
    },
    {
      "channel": 3,
      "note": 50,
      "start": 7.8177,
      "duration": 0.0105,
      "velocity": 113,
      "chip": "ym2612"
    },
    {
      "channel": 3,
      "note": 50,
      "start": 7.8284,
      "duration": 0.0119,
      "velocity": 113,
      "chip": "ym2612"
    },
    {
      "channel": 4,
      "note": 50,
      "start": 7.8366,
      "duration": 0.0214,
      "velocity": 91,
      "chip": "ym2612"
    },
    {
      "channel": 3,
      "note": 50,
      "start": 7.8405,
      "duration": 0.0097,
      "velocity": 113,
      "chip": "ym2612"
    },
    {
      "channel": 3,
      "note": 50,
      "start": 7.8503,
      "duration": 0.0116,
      "velocity": 113,
      "chip": "ym2612"
    },
    {
      "channel": 4,
      "note": 50,
      "start": 7.8582,
      "duration": 0.0215,
      "velocity": 91,
      "chip": "ym2612"
    },
    {
      "channel": 3,
      "note": 50,
      "start": 7.8621,
      "duration": 0.0095,
      "velocity": 113,
      "chip": "ym2612"
    },
    {
      "channel": 3,
      "note": 50,
      "start": 7.8718,
      "duration": 0.012,
      "velocity": 113,
      "chip": "ym2612"
    },
    {
      "channel": 4,
      "note": 50,
      "start": 7.8798,
      "duration": 0.0224,
      "velocity": 91,
      "chip": "ym2612"
    },
    {
      "channel": 3,
      "note": 50,
      "start": 7.884,
      "duration": 0.0099,
      "velocity": 113,
      "chip": "ym2612"
    },
    {
      "channel": 3,
      "note": 50,
      "start": 7.8942,
      "duration": 0.0152,
      "velocity": 113,
      "chip": "ym2612"
    },
    {
      "channel": 4,
      "note": 50,
      "start": 7.9024,
      "duration": 0.0299,
      "velocity": 91,
      "chip": "ym2612"
    },
    {
      "channel": 3,
      "note": 50,
      "start": 7.9096,
      "duration": 0.016,
      "velocity": 113,
      "chip": "ym2612"
    },
    {
      "channel": 3,
      "note": 50,
      "start": 7.9257,
      "duration": 0.0112,
      "velocity": 113,
      "chip": "ym2612"
    },
    {
      "channel": 4,
      "note": 50,
      "start": 7.9326,
      "duration": 0.0236,
      "velocity": 91,
      "chip": "ym2612"
    },
    {
      "channel": 3,
      "note": 50,
      "start": 7.937,
      "duration": 0.0124,
      "velocity": 113,
      "chip": "ym2612"
    },
    {
      "channel": 3,
      "note": 50,
      "start": 7.9496,
      "duration": 0.011,
      "velocity": 113,
      "chip": "ym2612"
    },
    {
      "channel": 0,
      "note": 67,
      "start": 7.9556,
      "duration": 0.1375,
      "velocity": 107,
      "chip": "ym2612"
    },
    {
      "channel": 4,
      "note": 55,
      "start": 7.9563,
      "duration": 0.0245,
      "velocity": 91,
      "chip": "ym2612"
    },
    {
      "channel": 1,
      "note": 62,
      "start": 7.9605,
      "duration": 0.1351,
      "velocity": 112,
      "chip": "ym2612"
    },
    {
      "channel": 3,
      "note": 55,
      "start": 7.9608,
      "duration": 0.1352,
      "velocity": 113,
      "chip": "ym2612"
    },
    {
      "channel": 4,
      "note": 55,
      "start": 7.981,
      "duration": 0.0226,
      "velocity": 91,
      "chip": "ym2612"
    },
    {
      "channel": 4,
      "note": 55,
      "start": 8.0038,
      "duration": 0.0218,
      "velocity": 91,
      "chip": "ym2612"
    },
    {
      "channel": 4,
      "note": 55,
      "start": 8.0258,
      "duration": 0.0228,
      "velocity": 91,
      "chip": "ym2612"
    },
    {
      "channel": 4,
      "note": 55,
      "start": 8.0487,
      "duration": 0.0239,
      "velocity": 91,
      "chip": "ym2612"
    },
    {
      "channel": 4,
      "note": 55,
      "start": 8.0729,
      "duration": 0.0209,
      "velocity": 91,
      "chip": "ym2612"
    },
    {
      "channel": 0,
      "note": 67,
      "start": 8.0934,
      "duration": 0.0445,
      "velocity": 107,
      "chip": "ym2612"
    },
    {
      "channel": 4,
      "note": 55,
      "start": 8.094,
      "duration": 0.0211,
      "velocity": 91,
      "chip": "ym2612"
    },
    {
      "channel": 1,
      "note": 62,
      "start": 8.0958,
      "duration": 0.0464,
      "velocity": 112,
      "chip": "ym2612"
    },
    {
      "channel": 3,
      "note": 55,
      "start": 8.0962,
      "duration": 0.0463,
      "velocity": 113,
      "chip": "ym2612"
    },
    {
      "channel": 4,
      "note": 55,
      "start": 8.1153,
      "duration": 0.0232,
      "velocity": 91,
      "chip": "ym2612"
    },
    {
      "channel": 0,
      "note": 60,
      "start": 8.138,
      "duration": 0.1379,
      "velocity": 107,
      "chip": "ym2612"
    },
    {
      "channel": 4,
      "note": 48,
      "start": 8.1386,
      "duration": 0.0246,
      "velocity": 91,
      "chip": "ym2612"
    },
    {
      "channel": 1,
      "note": 55,
      "start": 8.1424,
      "duration": 0.138,
      "velocity": 112,
      "chip": "ym2612"
    },
    {
      "channel": 3,
      "note": 48,
      "start": 8.1427,
      "duration": 0.1381,
      "velocity": 113,
      "chip": "ym2612"
    },
    {
      "channel": 4,
      "note": 48,
      "start": 8.1634,
      "duration": 0.0232,
      "velocity": 91,
      "chip": "ym2612"
    },
    {
      "channel": 4,
      "note": 48,
      "start": 8.1868,
      "duration": 0.0224,
      "velocity": 91,
      "chip": "ym2612"
    },
    {
      "channel": 4,
      "note": 48,
      "start": 8.2096,
      "duration": 0.0226,
      "velocity": 91,
      "chip": "ym2612"
    },
    {
      "channel": 4,
      "note": 48,
      "start": 8.2324,
      "duration": 0.022,
      "velocity": 91,
      "chip": "ym2612"
    },
    {
      "channel": 4,
      "note": 48,
      "start": 8.2545,
      "duration": 0.0222,
      "velocity": 91,
      "chip": "ym2612"
    },
    {
      "channel": 0,
      "note": 60,
      "start": 8.2762,
      "duration": 0.0446,
      "velocity": 107,
      "chip": "ym2612"
    },
    {
      "channel": 4,
      "note": 48,
      "start": 8.2769,
      "duration": 0.0222,
      "velocity": 91,
      "chip": "ym2612"
    },
    {
      "channel": 1,
      "note": 55,
      "start": 8.2806,
      "duration": 0.0445,
      "velocity": 112,
      "chip": "ym2612"
    },
    {
      "channel": 3,
      "note": 48,
      "start": 8.281,
      "duration": 0.0445,
      "velocity": 113,
      "chip": "ym2612"
    },
    {
      "channel": 4,
      "note": 48,
      "start": 8.2993,
      "duration": 0.0221,
      "velocity": 91,
      "chip": "ym2612"
    },
    {
      "channel": 0,
      "note": 62,
      "start": 8.321,
      "duration": 0.1368,
      "velocity": 107,
      "chip": "ym2612"
    },
    {
      "channel": 4,
      "note": 50,
      "start": 8.3215,
      "duration": 0.0242,
      "velocity": 91,
      "chip": "ym2612"
    },
    {
      "channel": 1,
      "note": 57,
      "start": 8.3254,
      "duration": 0.1367,
      "velocity": 112,
      "chip": "ym2612"
    },
    {
      "channel": 3,
      "note": 50,
      "start": 8.3256,
      "duration": 0.1368,
      "velocity": 113,
      "chip": "ym2612"
    },
    {
      "channel": 4,
      "note": 50,
      "start": 8.346,
      "duration": 0.0232,
      "velocity": 91,
      "chip": "ym2612"
    },
    {
      "channel": 4,
      "note": 50,
      "start": 8.3694,
      "duration": 0.0222,
      "velocity": 91,
      "chip": "ym2612"
    },
    {
      "channel": 4,
      "note": 50,
      "start": 8.3919,
      "duration": 0.0227,
      "velocity": 91,
      "chip": "ym2612"
    },
    {
      "channel": 4,
      "note": 50,
      "start": 8.4149,
      "duration": 0.0217,
      "velocity": 91,
      "chip": "ym2612"
    },
    {
      "channel": 4,
      "note": 50,
      "start": 8.4367,
      "duration": 0.0217,
      "velocity": 91,
      "chip": "ym2612"
    },
    {
      "channel": 0,
      "note": 62,
      "start": 8.458,
      "duration": 0.0449,
      "velocity": 107,
      "chip": "ym2612"
    },
    {
      "channel": 4,
      "note": 50,
      "start": 8.4586,
      "duration": 0.0217,
      "velocity": 91,
      "chip": "ym2612"
    },
    {
      "channel": 1,
      "note": 57,
      "start": 8.4623,
      "duration": 0.0451,
      "velocity": 112,
      "chip": "ym2612"
    },
    {
      "channel": 3,
      "note": 50,
      "start": 8.4625,
      "duration": 0.0453,
      "velocity": 113,
      "chip": "ym2612"
    },
    {
      "channel": 4,
      "note": 50,
      "start": 8.4807,
      "duration": 0.0229,
      "velocity": 91,
      "chip": "ym2612"
    },
    {
      "channel": 0,
      "note": 63,
      "start": 8.5031,
      "duration": 0.1403,
      "velocity": 107,
      "chip": "ym2612"
    },
    {
      "channel": 4,
      "note": 51,
      "start": 8.5038,
      "duration": 0.0241,
      "velocity": 91,
      "chip": "ym2612"
    },
    {
      "channel": 1,
      "note": 58,
      "start": 8.5077,
      "duration": 0.1403,
      "velocity": 112,
      "chip": "ym2612"
    },
    {
      "channel": 3,
      "note": 51,
      "start": 8.5081,
      "duration": 0.1402,
      "velocity": 113,
      "chip": "ym2612"
    },
    {
      "channel": 4,
      "note": 51,
      "start": 8.5281,
      "duration": 0.0224,
      "velocity": 91,
      "chip": "ym2612"
    },
    {
      "channel": 4,
      "note": 51,
      "start": 8.5508,
      "duration": 0.0227,
      "velocity": 91,
      "chip": "ym2612"
    },
    {
      "channel": 4,
      "note": 51,
      "start": 8.5736,
      "duration": 0.0229,
      "velocity": 91,
      "chip": "ym2612"
    },
    {
      "channel": 4,
      "note": 51,
      "start": 8.5967,
      "duration": 0.0217,
      "velocity": 91,
      "chip": "ym2612"
    },
    {
      "channel": 4,
      "note": 51,
      "start": 8.6185,
      "duration": 0.0256,
      "velocity": 91,
      "chip": "ym2612"
    },
    {
      "channel": 0,
      "note": 63,
      "start": 8.6436,
      "duration": 0.0436,
      "velocity": 107,
      "chip": "ym2612"
    },
    {
      "channel": 4,
      "note": 51,
      "start": 8.6443,
      "duration": 0.021,
      "velocity": 91,
      "chip": "ym2612"
    },
    {
      "channel": 1,
      "note": 58,
      "start": 8.6482,
      "duration": 0.0439,
      "velocity": 112,
      "chip": "ym2612"
    },
    {
      "channel": 3,
      "note": 51,
      "start": 8.6485,
      "duration": 0.0439,
      "velocity": 113,
      "chip": "ym2612"
    },
    {
      "channel": 4,
      "note": 51,
      "start": 8.6655,
      "duration": 0.0225,
      "velocity": 91,
      "chip": "ym2612"
    },
    {
      "channel": 0,
      "note": 65,
      "start": 8.6874,
      "duration": 0.1359,
      "velocity": 107,
      "chip": "ym2612"
    },
    {
      "channel": 4,
      "note": 53,
      "start": 8.6882,
      "duration": 0.0248,
      "velocity": 91,
      "chip": "ym2612"
    },
    {
      "channel": 1,
      "note": 60,
      "start": 8.6923,
      "duration": 0.1354,
      "velocity": 112,
      "chip": "ym2612"
    },
    {
      "channel": 3,
      "note": 53,
      "start": 8.6926,
      "duration": 0.1354,
      "velocity": 113,
      "chip": "ym2612"
    },
    {
      "channel": 4,
      "note": 53,
      "start": 8.7132,
      "duration": 0.023,
      "velocity": 91,
      "chip": "ym2612"
    },
    {
      "channel": 4,
      "note": 53,
      "start": 8.7364,
      "duration": 0.0217,
      "velocity": 91,
      "chip": "ym2612"
    },
    {
      "channel": 4,
      "note": 53,
      "start": 8.7583,
      "duration": 0.0222,
      "velocity": 91,
      "chip": "ym2612"
    },
    {
      "channel": 4,
      "note": 53,
      "start": 8.7807,
      "duration": 0.0216,
      "velocity": 91,
      "chip": "ym2612"
    },
    {
      "channel": 4,
      "note": 53,
      "start": 8.8025,
      "duration": 0.0215,
      "velocity": 91,
      "chip": "ym2612"
    },
    {
      "channel": 0,
      "note": 65,
      "start": 8.8235,
      "duration": 0.0449,
      "velocity": 107,
      "chip": "ym2612"
    },
    {
      "channel": 4,
      "note": 53,
      "start": 8.8241,
      "duration": 0.0216,
      "velocity": 91,
      "chip": "ym2612"
    },
    {
      "channel": 1,
      "note": 60,
      "start": 8.8279,
      "duration": 0.0448,
      "velocity": 112,
      "chip": "ym2612"
    },
    {
      "channel": 3,
      "note": 53,
      "start": 8.8283,
      "duration": 0.0448,
      "velocity": 113,
      "chip": "ym2612"
    },
    {
      "channel": 4,
      "note": 53,
      "start": 8.8459,
      "duration": 0.0232,
      "velocity": 91,
      "chip": "ym2612"
    },
    {
      "channel": 0,
      "note": 66,
      "start": 8.8686,
      "duration": 0.1396,
      "velocity": 107,
      "chip": "ym2612"
    },
    {
      "channel": 4,
      "note": 54,
      "start": 8.8692,
      "duration": 0.0244,
      "velocity": 91,
      "chip": "ym2612"
    },
    {
      "channel": 1,
      "note": 61,
      "start": 8.8729,
      "duration": 0.138,
      "velocity": 112,
      "chip": "ym2612"
    },
    {
      "channel": 3,
      "note": 54,
      "start": 8.8733,
      "duration": 0.1379,
      "velocity": 113,
      "chip": "ym2612"
    },
    {
      "channel": 4,
      "note": 54,
      "start": 8.8938,
      "duration": 0.0228,
      "velocity": 91,
      "chip": "ym2612"
    },
    {
      "channel": 4,
      "note": 54,
      "start": 8.9168,
      "duration": 0.0215,
      "velocity": 91,
      "chip": "ym2612"
    },
    {
      "channel": 4,
      "note": 54,
      "start": 8.9385,
      "duration": 0.0236,
      "velocity": 91,
      "chip": "ym2612"
    },
    {
      "channel": 4,
      "note": 54,
      "start": 8.9623,
      "duration": 0.0237,
      "velocity": 91,
      "chip": "ym2612"
    },
    {
      "channel": 4,
      "note": 54,
      "start": 8.9862,
      "duration": 0.0227,
      "velocity": 91,
      "chip": "ym2612"
    },
    {
      "channel": 0,
      "note": 66,
      "start": 9.0084,
      "duration": 0.0448,
      "velocity": 107,
      "chip": "ym2612"
    },
    {
      "channel": 4,
      "note": 54,
      "start": 9.0091,
      "duration": 0.022,
      "velocity": 91,
      "chip": "ym2612"
    },
    {
      "channel": 1,
      "note": 61,
      "start": 9.0111,
      "duration": 0.047,
      "velocity": 112,
      "chip": "ym2612"
    },
    {
      "channel": 3,
      "note": 54,
      "start": 9.0114,
      "duration": 0.0469,
      "velocity": 113,
      "chip": "ym2612"
    },
    {
      "channel": 4,
      "note": 54,
      "start": 9.0312,
      "duration": 0.0227,
      "velocity": 91,
      "chip": "ym2612"
    },
    {
      "channel": 0,
      "note": 67,
      "start": 9.0534,
      "duration": 0.1791,
      "velocity": 107,
      "chip": "ym2612"
    },
    {
      "channel": 4,
      "note": 55,
      "start": 9.0542,
      "duration": 0.0246,
      "velocity": 91,
      "chip": "ym2612"
    },
    {
      "channel": 1,
      "note": 62,
      "start": 9.0583,
      "duration": 0.1788,
      "velocity": 112,
      "chip": "ym2612"
    },
    {
      "channel": 3,
      "note": 55,
      "start": 9.0586,
      "duration": 0.024,
      "velocity": 113,
      "chip": "ym2612"
    },
    {
      "channel": 4,
      "note": 55,
      "start": 9.079,
      "duration": 0.022,
      "velocity": 91,
      "chip": "ym2612"
    },
    {
      "channel": 3,
      "note": 55,
      "start": 9.0828,
      "duration": 0.0093,
      "velocity": 113,
      "chip": "ym2612"
    },
    {
      "channel": 3,
      "note": 55,
      "start": 9.0924,
      "duration": 0.0124,
      "velocity": 113,
      "chip": "ym2612"
    },
    {
      "channel": 4,
      "note": 55,
      "start": 9.1012,
      "duration": 0.0212,
      "velocity": 91,
      "chip": "ym2612"
    },
    {
      "channel": 3,
      "note": 55,
      "start": 9.1049,
      "duration": 0.0093,
      "velocity": 113,
      "chip": "ym2612"
    },
    {
      "channel": 3,
      "note": 55,
      "start": 9.1144,
      "duration": 0.0119,
      "velocity": 113,
      "chip": "ym2612"
    },
    {
      "channel": 4,
      "note": 55,
      "start": 9.1225,
      "duration": 0.021,
      "velocity": 91,
      "chip": "ym2612"
    },
    {
      "channel": 3,
      "note": 55,
      "start": 9.1265,
      "duration": 0.0095,
      "velocity": 113,
      "chip": "ym2612"
    },
    {
      "channel": 3,
      "note": 55,
      "start": 9.1362,
      "duration": 0.0112,
      "velocity": 113,
      "chip": "ym2612"
    },
    {
      "channel": 4,
      "note": 55,
      "start": 9.1437,
      "duration": 0.0204,
      "velocity": 91,
      "chip": "ym2612"
    },
    {
      "channel": 3,
      "note": 55,
      "start": 9.1477,
      "duration": 0.008,
      "velocity": 113,
      "chip": "ym2612"
    },
    {
      "channel": 3,
      "note": 55,
      "start": 9.1558,
      "duration": 0.0124,
      "velocity": 113,
      "chip": "ym2612"
    },
    {
      "channel": 4,
      "note": 55,
      "start": 9.1644,
      "duration": 0.0226,
      "velocity": 91,
      "chip": "ym2612"
    },
    {
      "channel": 3,
      "note": 55,
      "start": 9.1684,
      "duration": 0.0098,
      "velocity": 113,
      "chip": "ym2612"
    },
    {
      "channel": 3,
      "note": 55,
      "start": 9.1783,
      "duration": 0.0128,
      "velocity": 113,
      "chip": "ym2612"
    },
    {
      "channel": 4,
      "note": 55,
      "start": 9.1872,
      "duration": 0.0225,
      "velocity": 91,
      "chip": "ym2612"
    },
    {
      "channel": 3,
      "note": 55,
      "start": 9.1914,
      "duration": 0.0099,
      "velocity": 113,
      "chip": "ym2612"
    },
    {
      "channel": 3,
      "note": 55,
      "start": 9.2015,
      "duration": 0.0123,
      "velocity": 113,
      "chip": "ym2612"
    },
    {
      "channel": 4,
      "note": 55,
      "start": 9.2099,
      "duration": 0.0229,
      "velocity": 91,
      "chip": "ym2612"
    },
    {
      "channel": 3,
      "note": 55,
      "start": 9.214,
      "duration": 0.0093,
      "velocity": 113,
      "chip": "ym2612"
    },
    {
      "channel": 3,
      "note": 55,
      "start": 9.2234,
      "duration": 0.0137,
      "velocity": 113,
      "chip": "ym2612"
    },
    {
      "channel": 0,
      "note": 66,
      "start": 9.2324,
      "duration": 0.1844,
      "velocity": 107,
      "chip": "ym2612"
    },
    {
      "channel": 4,
      "note": 55,
      "start": 9.2331,
      "duration": 0.0248,
      "velocity": 91,
      "chip": "ym2612"
    },
    {
      "channel": 1,
      "note": 61,
      "start": 9.237,
      "duration": 0.1824,
      "velocity": 112,
      "chip": "ym2612"
    },
    {
      "channel": 3,
      "note": 55,
      "start": 9.2374,
      "duration": 0.0247,
      "velocity": 113,
      "chip": "ym2612"
    },
    {
      "channel": 4,
      "note": 55,
      "start": 9.2581,
      "duration": 0.0232,
      "velocity": 91,
      "chip": "ym2612"
    },
    {
      "channel": 3,
      "note": 55,
      "start": 9.2623,
      "duration": 0.0116,
      "velocity": 113,
      "chip": "ym2612"
    },
    {
      "channel": 3,
      "note": 55,
      "start": 9.274,
      "duration": 0.0112,
      "velocity": 113,
      "chip": "ym2612"
    },
    {
      "channel": 4,
      "note": 55,
      "start": 9.2815,
      "duration": 0.0225,
      "velocity": 91,
      "chip": "ym2612"
    },
    {
      "channel": 3,
      "note": 55,
      "start": 9.2854,
      "duration": 0.0118,
      "velocity": 113,
      "chip": "ym2612"
    },
    {
      "channel": 3,
      "note": 55,
      "start": 9.2975,
      "duration": 0.0104,
      "velocity": 113,
      "chip": "ym2612"
    },
    {
      "channel": 4,
      "note": 55,
      "start": 9.3041,
      "duration": 0.023,
      "velocity": 91,
      "chip": "ym2612"
    },
    {
      "channel": 3,
      "note": 55,
      "start": 9.3081,
      "duration": 0.0115,
      "velocity": 113,
      "chip": "ym2612"
    },
    {
      "channel": 3,
      "note": 55,
      "start": 9.3199,
      "duration": 0.0112,
      "velocity": 113,
      "chip": "ym2612"
    },
    {
      "channel": 4,
      "note": 55,
      "start": 9.3273,
      "duration": 0.0217,
      "velocity": 91,
      "chip": "ym2612"
    },
    {
      "channel": 3,
      "note": 55,
      "start": 9.3312,
      "duration": 0.0114,
      "velocity": 113,
      "chip": "ym2612"
    },
    {
      "channel": 3,
      "note": 55,
      "start": 9.3427,
      "duration": 0.0104,
      "velocity": 113,
      "chip": "ym2612"
    },
    {
      "channel": 4,
      "note": 55,
      "start": 9.3492,
      "duration": 0.022,
      "velocity": 91,
      "chip": "ym2612"
    },
    {
      "channel": 3,
      "note": 55,
      "start": 9.3533,
      "duration": 0.0116,
      "velocity": 113,
      "chip": "ym2612"
    },
    {
      "channel": 3,
      "note": 55,
      "start": 9.365,
      "duration": 0.0101,
      "velocity": 113,
      "chip": "ym2612"
    },
    {
      "channel": 4,
      "note": 55,
      "start": 9.3715,
      "duration": 0.0214,
      "velocity": 91,
      "chip": "ym2612"
    },
    {
      "channel": 3,
      "note": 55,
      "start": 9.3753,
      "duration": 0.0112,
      "velocity": 113,
      "chip": "ym2612"
    },
    {
      "channel": 3,
      "note": 55,
      "start": 9.3868,
      "duration": 0.0103,
      "velocity": 113,
      "chip": "ym2612"
    },
    {
      "channel": 4,
      "note": 55,
      "start": 9.3932,
      "duration": 0.0241,
      "velocity": 91,
      "chip": "ym2612"
    },
    {
      "channel": 3,
      "note": 55,
      "start": 9.3974,
      "duration": 0.0117,
      "velocity": 113,
      "chip": "ym2612"
    },
    {
      "channel": 3,
      "note": 55,
      "start": 9.4092,
      "duration": 0.0104,
      "velocity": 113,
      "chip": "ym2612"
    },
    {
      "channel": 0,
      "note": 67,
      "start": 9.4168,
      "duration": 0.1814,
      "velocity": 107,
      "chip": "ym2612"
    },
    {
      "channel": 4,
      "note": 55,
      "start": 9.4175,
      "duration": 0.0242,
      "velocity": 91,
      "chip": "ym2612"
    },
    {
      "channel": 1,
      "note": 62,
      "start": 9.4195,
      "duration": 0.1833,
      "velocity": 112,
      "chip": "ym2612"
    },
    {
      "channel": 3,
      "note": 55,
      "start": 9.4198,
      "duration": 0.0238,
      "velocity": 113,
      "chip": "ym2612"
    },
    {
      "channel": 4,
      "note": 55,
      "start": 9.4419,
      "duration": 0.0226,
      "velocity": 91,
      "chip": "ym2612"
    },
    {
      "channel": 3,
      "note": 55,
      "start": 9.4437,
      "duration": 0.0116,
      "velocity": 113,
      "chip": "ym2612"
    },
    {
      "channel": 3,
      "note": 55,
      "start": 9.4555,
      "duration": 0.0113,
      "velocity": 113,
      "chip": "ym2612"
    },
    {
      "channel": 4,
      "note": 55,
      "start": 9.4646,
      "duration": 0.0224,
      "velocity": 91,
      "chip": "ym2612"
    },
    {
      "channel": 3,
      "note": 55,
      "start": 9.4669,
      "duration": 0.0117,
      "velocity": 113,
      "chip": "ym2612"
    },
    {
      "channel": 3,
      "note": 55,
      "start": 9.4788,
      "duration": 0.0104,
      "velocity": 113,
      "chip": "ym2612"
    },
    {
      "channel": 4,
      "note": 55,
      "start": 9.4873,
      "duration": 0.0224,
      "velocity": 91,
      "chip": "ym2612"
    },
    {
      "channel": 3,
      "note": 55,
      "start": 9.4893,
      "duration": 0.011,
      "velocity": 113,
      "chip": "ym2612"
    },
    {
      "channel": 3,
      "note": 55,
      "start": 9.5006,
      "duration": 0.013,
      "velocity": 113,
      "chip": "ym2612"
    },
    {
      "channel": 4,
      "note": 55,
      "start": 9.5098,
      "duration": 0.0223,
      "velocity": 91,
      "chip": "ym2612"
    },
    {
      "channel": 3,
      "note": 55,
      "start": 9.5138,
      "duration": 0.0103,
      "velocity": 113,
      "chip": "ym2612"
    },
    {
      "channel": 3,
      "note": 55,
      "start": 9.5243,
      "duration": 0.0118,
      "velocity": 113,
      "chip": "ym2612"
    },
    {
      "channel": 4,
      "note": 55,
      "start": 9.5324,
      "duration": 0.0222,
      "velocity": 91,
      "chip": "ym2612"
    },
    {
      "channel": 3,
      "note": 55,
      "start": 9.5363,
      "duration": 0.01,
      "velocity": 113,
      "chip": "ym2612"
    },
    {
      "channel": 3,
      "note": 55,
      "start": 9.5466,
      "duration": 0.012,
      "velocity": 113,
      "chip": "ym2612"
    },
    {
      "channel": 4,
      "note": 55,
      "start": 9.555,
      "duration": 0.0219,
      "velocity": 91,
      "chip": "ym2612"
    },
    {
      "channel": 3,
      "note": 55,
      "start": 9.5588,
      "duration": 0.0101,
      "velocity": 113,
      "chip": "ym2612"
    },
    {
      "channel": 3,
      "note": 55,
      "start": 9.5691,
      "duration": 0.012,
      "velocity": 113,
      "chip": "ym2612"
    },
    {
      "channel": 4,
      "note": 55,
      "start": 9.5771,
      "duration": 0.0215,
      "velocity": 91,
      "chip": "ym2612"
    },
    {
      "channel": 3,
      "note": 55,
      "start": 9.5812,
      "duration": 0.0095,
      "velocity": 113,
      "chip": "ym2612"
    },
    {
      "channel": 3,
      "note": 55,
      "start": 9.5908,
      "duration": 0.0121,
      "velocity": 113,
      "chip": "ym2612"
    },
    {
      "channel": 0,
      "note": 67,
      "start": 9.5981,
      "duration": 0.0969,
      "velocity": 107,
      "chip": "ym2612"
    },
    {
      "channel": 4,
      "note": 55,
      "start": 9.5988,
      "duration": 0.0208,
      "velocity": 91,
      "chip": "ym2612"
    },
    {
      "channel": 1,
      "note": 62,
      "start": 9.6028,
      "duration": 0.0944,
      "velocity": 112,
      "chip": "ym2612"
    },
    {
      "channel": 3,
      "note": 55,
      "start": 9.603,
      "duration": 0.0208,
      "velocity": 113,
      "chip": "ym2612"
    },
    {
      "channel": 4,
      "note": 55,
      "start": 9.6197,
      "duration": 0.0205,
      "velocity": 91,
      "chip": "ym2612"
    },
    {
      "channel": 3,
      "note": 55,
      "start": 9.624,
      "duration": 0.0088,
      "velocity": 113,
      "chip": "ym2612"
    },
    {
      "channel": 3,
      "note": 55,
      "start": 9.633,
      "duration": 0.0134,
      "velocity": 113,
      "chip": "ym2612"
    },
    {
      "channel": 4,
      "note": 55,
      "start": 9.6406,
      "duration": 0.0235,
      "velocity": 91,
      "chip": "ym2612"
    },
    {
      "channel": 3,
      "note": 55,
      "start": 9.6466,
      "duration": 0.0095,
      "velocity": 113,
      "chip": "ym2612"
    },
    {
      "channel": 3,
      "note": 55,
      "start": 9.6563,
      "duration": 0.0117,
      "velocity": 113,
      "chip": "ym2612"
    },
    {
      "channel": 4,
      "note": 55,
      "start": 9.6644,
      "duration": 0.0196,
      "velocity": 91,
      "chip": "ym2612"
    },
    {
      "channel": 3,
      "note": 55,
      "start": 9.6682,
      "duration": 0.0084,
      "velocity": 113,
      "chip": "ym2612"
    },
    {
      "channel": 3,
      "note": 55,
      "start": 9.6768,
      "duration": 0.0111,
      "velocity": 113,
      "chip": "ym2612"
    },
    {
      "channel": 4,
      "note": 55,
      "start": 9.6841,
      "duration": 0.0114,
      "velocity": 91,
      "chip": "ym2612"
    },
    {
      "channel": 3,
      "note": 55,
      "start": 9.688,
      "duration": 0.0092,
      "velocity": 113,
      "chip": "ym2612"
    },
    {
      "channel": 0,
      "note": 65,
      "start": 9.75,
      "duration": 0.0218,
      "velocity": 107,
      "chip": "ym2612"
    },
    {
      "channel": 4,
      "note": 48,
      "start": 9.7504,
      "duration": 0.0221,
      "velocity": 91,
      "chip": "ym2612"
    },
    {
      "channel": 1,
      "note": 60,
      "start": 9.7538,
      "duration": 0.0221,
      "velocity": 112,
      "chip": "ym2612"
    },
    {
      "channel": 3,
      "note": 48,
      "start": 9.7543,
      "duration": 0.022,
      "velocity": 113,
      "chip": "ym2612"
    },
    {
      "channel": 0,
      "note": 62,
      "start": 9.7721,
      "duration": 0.0162,
      "velocity": 107,
      "chip": "ym2612"
    },
    {
      "channel": 4,
      "note": 50,
      "start": 9.7727,
      "duration": 0.016,
      "velocity": 91,
      "chip": "ym2612"
    },
    {
      "channel": 1,
      "note": 57,
      "start": 9.7761,
      "duration": 0.0156,
      "velocity": 112,
      "chip": "ym2612"
    },
    {
      "channel": 3,
      "note": 50,
      "start": 9.7765,
      "duration": 0.0154,
      "velocity": 113,
      "chip": "ym2612"
    },
    {
      "channel": 0,
      "note": 62,
      "start": 9.8077,
      "duration": 74.3922,
      "velocity": 107,
      "chip": "ym2612"
    },
    {
      "channel": 4,
      "note": 50,
      "start": 9.8081,
      "duration": 74.3918,
      "velocity": 91,
      "chip": "ym2612"
    }
  ]
}