{
  "track_name": "07 - Carnival Night Zone Act 1",
  "duration_sec": 67.519,
  "sample_rate": 44100,
  "note_count": 777,
  "unique_pitches": 40,
  "pitch_range": 52,
  "avg_note_duration": 0.1203,
  "reconstruction_stats": {
    "notes_reconstructed": 777,
    "keyon_events": 777,
    "keyoff_events": 776,
    "orphan_keyons": 1,
    "unique_pitches": 40,
    "pitch_range": 52,
    "avg_duration_sec": 0.1203
  },
  "metadata": {
    "source": "S\\Sonic 3 & Knuckles\\07 - Carnival Night Zone Act 1.vgz"
  },
  "notes": [
    {
      "channel": 1,
      "note": 45,
      "start": 0.0,
      "duration": 0.0,
      "velocity": 1,
      "chip": "ym2612"
    },
    {
      "channel": 1,
      "note": 45,
      "start": 0.0,
      "duration": 0.1045,
      "velocity": 116,
      "chip": "ym2612"
    },
    {
      "channel": 2,
      "note": 76,
      "start": 0.0,
      "duration": 0.0,
      "velocity": 127,
      "chip": "ym2612"
    },
    {
      "channel": 3,
      "note": 73,
      "start": 0.0,
      "duration": 0.0,
      "velocity": 127,
      "chip": "ym2612"
    },
    {
      "channel": 3,
      "note": 69,
      "start": 0.0056,
      "duration": 0.0208,
      "velocity": 127,
      "chip": "ym2612"
    },
    {
      "channel": 2,
      "note": 76,
      "start": 0.1053,
      "duration": 0.0192,
      "velocity": 127,
      "chip": "ym2612"
    },
    {
      "channel": 3,
      "note": 73,
      "start": 0.106,
      "duration": 0.0186,
      "velocity": 127,
      "chip": "ym2612"
    },
    {
      "channel": 3,
      "note": 64,
      "start": 0.2525,
      "duration": 0.0178,
      "velocity": 127,
      "chip": "ym2612"
    },
    {
      "channel": 1,
      "note": 45,
      "start": 0.3796,
      "duration": 0.2662,
      "velocity": 116,
      "chip": "ym2612"
    },
    {
      "channel": 2,
      "note": 76,
      "start": 0.3802,
      "duration": 0.0991,
      "velocity": 127,
      "chip": "ym2612"
    },
    {
      "channel": 3,
      "note": 73,
      "start": 0.3809,
      "duration": 0.0986,
      "velocity": 127,
      "chip": "ym2612"
    },
    {
      "channel": 3,
      "note": 69,
      "start": 0.6468,
      "duration": 0.0993,
      "velocity": 127,
      "chip": "ym2612"
    },
    {
      "channel": 2,
      "note": 76,
      "start": 0.9132,
      "duration": 0.0194,
      "velocity": 127,
      "chip": "ym2612"
    },
    {
      "channel": 3,
      "note": 73,
      "start": 0.9139,
      "duration": 0.0189,
      "velocity": 127,
      "chip": "ym2612"
    },
    {
      "channel": 3,
      "note": 64,
      "start": 1.0546,
      "duration": 0.0178,
      "velocity": 127,
      "chip": "ym2612"
    },
    {
      "channel": 2,
      "note": 76,
      "start": 1.1654,
      "duration": 0.0193,
      "velocity": 127,
      "chip": "ym2612"
    },
    {
      "channel": 3,
      "note": 73,
      "start": 1.166,
      "duration": 0.0188,
      "velocity": 127,
      "chip": "ym2612"
    },
    {
      "channel": 1,
      "note": 45,
      "start": 1.277,
      "duration": 0.1403,
      "velocity": 116,
      "chip": "ym2612"
    },
    {
      "channel": 3,
      "note": 69,
      "start": 1.2827,
      "duration": 0.021,
      "velocity": 127,
      "chip": "ym2612"
    },
    {
      "channel": 2,
      "note": 76,
      "start": 1.4181,
      "duration": 0.0205,
      "velocity": 127,
      "chip": "ym2612"
    },
    {
      "channel": 3,
      "note": 73,
      "start": 1.4188,
      "duration": 0.02,
      "velocity": 127,
      "chip": "ym2612"
    },
    {
      "channel": 3,
      "note": 64,
      "start": 1.5654,
      "duration": 0.0192,
      "velocity": 127,
      "chip": "ym2612"
    },
    {
      "channel": 1,
      "note": 45,
      "start": 1.6759,
      "duration": 0.2828,
      "velocity": 116,
      "chip": "ym2612"
    },
    {
      "channel": 2,
      "note": 76,
      "start": 1.6766,
      "duration": 0.0991,
      "velocity": 127,
      "chip": "ym2612"
    },
    {
      "channel": 3,
      "note": 73,
      "start": 1.6773,
      "duration": 0.0986,
      "velocity": 127,
      "chip": "ym2612"
    },
    {
      "channel": 3,
      "note": 69,
      "start": 1.9598,
      "duration": 0.0992,
      "velocity": 127,
      "chip": "ym2612"
    },
    {
      "channel": 2,
      "note": 76,
      "start": 2.2263,
      "duration": 0.0206,
      "velocity": 127,
      "chip": "ym2612"
    },
    {
      "channel": 3,
      "note": 73,
      "start": 2.2269,
      "duration": 0.0202,
      "velocity": 127,
      "chip": "ym2612"
    },
    {
      "channel": 3,
      "note": 64,
      "start": 2.351,
      "duration": 0.0192,
      "velocity": 127,
      "chip": "ym2612"
    },
    {
      "channel": 2,
      "note": 76,
      "start": 2.4785,
      "duration": 0.0206,
      "velocity": 127,
      "chip": "ym2612"
    },
    {
      "channel": 3,
      "note": 73,
      "start": 2.4791,
      "duration": 0.0201,
      "velocity": 127,
      "chip": "ym2612"
    },
    {
      "channel": 0,
      "note": 85,
      "start": 2.5895,
      "duration": 0.0317,
      "velocity": 79,
      "chip": "ym2612"
    },
    {
      "channel": 1,
      "note": 45,
      "start": 2.5903,
      "duration": 0.1237,
      "velocity": 116,
      "chip": "ym2612"
    },
    {
      "channel": 3,
      "note": 69,
      "start": 2.596,
      "duration": 0.0232,
      "velocity": 127,
      "chip": "ym2612"
    },
    {
      "channel": 4,
      "note": 93,
      "start": 2.5966,
      "duration": 0.0287,
      "velocity": 79,
      "chip": "ym2612"
    },
    {
      "channel": 0,
      "note": 84,
      "start": 2.7139,
      "duration": 0.0261,
      "velocity": 79,
      "chip": "ym2612"
    },
    {
      "channel": 2,
      "note": 76,
      "start": 2.7149,
      "duration": 0.0229,
      "velocity": 127,
      "chip": "ym2612"
    },
    {
      "channel": 3,
      "note": 73,
      "start": 2.7155,
      "duration": 0.0224,
      "velocity": 127,
      "chip": "ym2612"
    },
    {
      "channel": 4,
      "note": 92,
      "start": 2.7162,
      "duration": 0.0278,
      "velocity": 79,
      "chip": "ym2612"
    },
    {
      "channel": 0,
      "note": 83,
      "start": 2.8778,
      "duration": 0.0313,
      "velocity": 79,
      "chip": "ym2612"
    },
    {
      "channel": 3,
      "note": 64,
      "start": 2.8787,
      "duration": 0.0213,
      "velocity": 127,
      "chip": "ym2612"
    },
    {
      "channel": 4,
      "note": 91,
      "start": 2.8794,
      "duration": 0.031,
      "velocity": 79,
      "chip": "ym2612"
    },
    {
      "channel": 0,
      "note": 84,
      "start": 2.9096,
      "duration": 0.0783,
      "velocity": 79,
      "chip": "ym2612"
    },
    {
      "channel": 4,
      "note": 92,
      "start": 2.9109,
      "duration": 0.0797,
      "velocity": 79,
      "chip": "ym2612"
    },
    {
      "channel": 0,
      "note": 83,
      "start": 2.9885,
      "duration": 0.1661,
      "velocity": 79,
      "chip": "ym2612"
    },
    {
      "channel": 1,
      "note": 45,
      "start": 2.9891,
      "duration": 0.2662,
      "velocity": 116,
      "chip": "ym2612"
    },
    {
      "channel": 2,
      "note": 76,
      "start": 2.9898,
      "duration": 0.0989,
      "velocity": 127,
      "chip": "ym2612"
    },
    {
      "channel": 3,
      "note": 73,
      "start": 2.9905,
      "duration": 0.0983,
      "velocity": 127,
      "chip": "ym2612"
    },
    {
      "channel": 4,
      "note": 91,
      "start": 2.9912,
      "duration": 0.165,
      "velocity": 79,
      "chip": "ym2612"
    },
    {
      "channel": 0,
      "note": 82,
      "start": 3.1551,
      "duration": 0.0994,
      "velocity": 79,
      "chip": "ym2612"
    },
    {
      "channel": 4,
      "note": 90,
      "start": 3.1567,
      "duration": 0.0999,
      "velocity": 79,
      "chip": "ym2612"
    },
    {
      "channel": 0,
      "note": 81,
      "start": 3.2551,
      "duration": 0.1161,
      "velocity": 79,
      "chip": "ym2612"
    },
    {
      "channel": 3,
      "note": 69,
      "start": 3.2564,
      "duration": 0.0989,
      "velocity": 127,
      "chip": "ym2612"
    },
    {
      "channel": 4,
      "note": 89,
      "start": 3.2571,
      "duration": 0.1151,
      "velocity": 79,
      "chip": "ym2612"
    },
    {
      "channel": 0,
      "note": 80,
      "start": 3.5388,
      "duration": 0.023,
      "velocity": 79,
      "chip": "ym2612"
    },
    {
      "channel": 2,
      "note": 76,
      "start": 3.5395,
      "duration": 0.0227,
      "velocity": 127,
      "chip": "ym2612"
    },
    {
      "channel": 3,
      "note": 73,
      "start": 3.5401,
      "duration": 0.0222,
      "velocity": 127,
      "chip": "ym2612"
    },
    {
      "channel": 4,
      "note": 88,
      "start": 3.5408,
      "duration": 0.0216,
      "velocity": 79,
      "chip": "ym2612"
    },
    {
      "channel": 0,
      "note": 79,
      "start": 3.6633,
      "duration": 0.1105,
      "velocity": 79,
      "chip": "ym2612"
    },
    {
      "channel": 3,
      "note": 64,
      "start": 3.6642,
      "duration": 0.0216,
      "velocity": 127,
      "chip": "ym2612"
    },
    {
      "channel": 4,
      "note": 87,
      "start": 3.6649,
      "duration": 0.111,
      "velocity": 79,
      "chip": "ym2612"
    },
    {
      "channel": 0,
      "note": 78,
      "start": 3.7744,
      "duration": 0.0259,
      "velocity": 79,
      "chip": "ym2612"
    },
    {
      "channel": 2,
      "note": 76,
      "start": 3.7751,
      "duration": 0.0228,
      "velocity": 127,
      "chip": "ym2612"
    },
    {
      "channel": 3,
      "note": 73,
      "start": 3.7757,
      "duration": 0.0223,
      "velocity": 127,
      "chip": "ym2612"
    },
    {
      "channel": 4,
      "note": 86,
      "start": 3.7764,
      "duration": 0.0247,
      "velocity": 79,
      "chip": "ym2612"
    },
    {
      "channel": 0,
      "note": 81,
      "start": 5.1016,
      "duration": 0.0729,
      "velocity": 89,
      "chip": "ym2612"
    },
    {
      "channel": 4,
      "note": 93,
      "start": 5.1075,
      "duration": 0.0734,
      "velocity": 79,
      "chip": "ym2612"
    },
    {
      "channel": 0,
      "note": 80,
      "start": 5.175,
      "duration": 0.0192,
      "velocity": 89,
      "chip": "ym2612"
    },
    {
      "channel": 4,
      "note": 92,
      "start": 5.1816,
      "duration": 0.0215,
      "velocity": 89,
      "chip": "ym2612"
    },
    {
      "channel": 0,
      "note": 83,
      "start": 5.1948,
      "duration": 0.0404,
      "velocity": 89,
      "chip": "ym2612"
    },
    {
      "channel": 1,
      "note": 45,
      "start": 5.1955,
      "duration": 0.1384,
      "velocity": 116,
      "chip": "ym2612"
    },
    {
      "channel": 3,
      "note": 69,
      "start": 5.2007,
      "duration": 0.025,
      "velocity": 127,
      "chip": "ym2612"
    },
    {
      "channel": 4,
      "note": 95,
      "start": 5.215,
      "duration": 0.028,
      "velocity": 89,
      "chip": "ym2612"
    },
    {
      "channel": 0,
      "note": 81,
      "start": 5.3337,
      "duration": 0.0297,
      "velocity": 89,
      "chip": "ym2612"
    },
    {
      "channel": 2,
      "note": 76,
      "start": 5.3347,
      "duration": 0.0228,
      "velocity": 127,
      "chip": "ym2612"
    },
    {
      "channel": 3,
      "note": 73,
      "start": 5.3353,
      "duration": 0.0223,
      "velocity": 127,
      "chip": "ym2612"
    },
    {
      "channel": 4,
      "note": 93,
      "start": 5.3436,
      "duration": 0.0539,
      "velocity": 89,
      "chip": "ym2612"
    },
    {
      "channel": 0,
      "note": 80,
      "start": 5.4809,
      "duration": 0.0281,
      "velocity": 89,
      "chip": "ym2612"
    },
    {
      "channel": 3,
      "note": 64,
      "start": 5.4819,
      "duration": 0.0213,
      "velocity": 127,
      "chip": "ym2612"
    },
    {
      "channel": 4,
      "note": 92,
      "start": 5.493,
      "duration": 0.0264,
      "velocity": 89,
      "chip": "ym2612"
    },
    {
      "channel": 0,
      "note": 81,
      "start": 5.5917,
      "duration": 0.1494,
      "velocity": 89,
      "chip": "ym2612"
    },
    {
      "channel": 1,
      "note": 45,
      "start": 5.5923,
      "duration": 0.2828,
      "velocity": 116,
      "chip": "ym2612"
    },
    {
      "channel": 2,
      "note": 76,
      "start": 5.593,
      "duration": 0.0988,
      "velocity": 127,
      "chip": "ym2612"
    },
    {
      "channel": 3,
      "note": 73,
      "start": 5.5937,
      "duration": 0.0983,
      "velocity": 127,
      "chip": "ym2612"
    },
    {
      "channel": 4,
      "note": 93,
      "start": 5.643,
      "duration": 0.1324,
      "velocity": 89,
      "chip": "ym2612"
    },
    {
      "channel": 0,
      "note": 76,
      "start": 5.875,
      "duration": 0.1328,
      "velocity": 89,
      "chip": "ym2612"
    },
    {
      "channel": 3,
      "note": 69,
      "start": 5.8762,
      "duration": 0.099,
      "velocity": 127,
      "chip": "ym2612"
    },
    {
      "channel": 4,
      "note": 88,
      "start": 5.9094,
      "duration": 0.1491,
      "velocity": 89,
      "chip": "ym2612"
    },
    {
      "channel": 0,
      "note": 78,
      "start": 6.142,
      "duration": 0.0258,
      "velocity": 89,
      "chip": "ym2612"
    },
    {
      "channel": 2,
      "note": 76,
      "start": 6.1427,
      "duration": 0.0227,
      "velocity": 127,
      "chip": "ym2612"
    },
    {
      "channel": 3,
      "note": 73,
      "start": 6.1433,
      "duration": 0.0222,
      "velocity": 127,
      "chip": "ym2612"
    },
    {
      "channel": 4,
      "note": 90,
      "start": 6.155,
      "duration": 0.0236,
      "velocity": 89,
      "chip": "ym2612"
    },
    {
      "channel": 0,
      "note": 81,
      "start": 6.2664,
      "duration": 0.1271,
      "velocity": 89,
      "chip": "ym2612"
    },
    {
      "channel": 3,
      "note": 64,
      "start": 6.2673,
      "duration": 0.0212,
      "velocity": 127,
      "chip": "ym2612"
    },
    {
      "channel": 4,
      "note": 93,
      "start": 6.2784,
      "duration": 0.129,
      "velocity": 89,
      "chip": "ym2612"
    },
    {
      "channel": 0,
      "note": 80,
      "start": 6.3941,
      "duration": 0.1106,
      "velocity": 89,
      "chip": "ym2612"
    },
    {
      "channel": 2,
      "note": 76,
      "start": 6.3948,
      "duration": 0.0237,
      "velocity": 127,
      "chip": "ym2612"
    },
    {
      "channel": 3,
      "note": 73,
      "start": 6.3954,
      "duration": 0.0232,
      "velocity": 127,
      "chip": "ym2612"
    },
    {
      "channel": 4,
      "note": 92,
      "start": 6.408,
      "duration": 0.1161,
      "velocity": 89,
      "chip": "ym2612"
    },
    {
      "channel": 0,
      "note": 76,
      "start": 6.5053,
      "duration": 0.1239,
      "velocity": 89,
      "chip": "ym2612"
    },
    {
      "channel": 1,
      "note": 45,
      "start": 6.5061,
      "duration": 0.1234,
      "velocity": 116,
      "chip": "ym2612"
    },
    {
      "channel": 3,
      "note": 69,
      "start": 6.5115,
      "duration": 0.0238,
      "velocity": 127,
      "chip": "ym2612"
    },
    {
      "channel": 4,
      "note": 88,
      "start": 6.5247,
      "duration": 0.1173,
      "velocity": 89,
      "chip": "ym2612"
    },
    {
      "channel": 2,
      "note": 76,
      "start": 6.6303,
      "duration": 0.0205,
      "velocity": 127,
      "chip": "ym2612"
    },
    {
      "channel": 3,
      "note": 73,
      "start": 6.631,
      "duration": 0.02,
      "velocity": 127,
      "chip": "ym2612"
    },
    {
      "channel": 0,
      "note": 76,
      "start": 6.7937,
      "duration": 0.7849,
      "velocity": 89,
      "chip": "ym2612"
    },
    {
      "channel": 3,
      "note": 64,
      "start": 6.7947,
      "duration": 0.0206,
      "velocity": 127,
      "chip": "ym2612"
    },
    {
      "channel": 4,
      "note": 88,
      "start": 6.8055,
      "duration": 0.7848,
      "velocity": 89,
      "chip": "ym2612"
    },
    {
      "channel": 1,
      "note": 45,
      "start": 6.9046,
      "duration": 0.2662,
      "velocity": 116,
      "chip": "ym2612"
    },
    {
      "channel": 2,
      "note": 76,
      "start": 6.9053,
      "duration": 0.0991,
      "velocity": 127,
      "chip": "ym2612"
    },
    {
      "channel": 3,
      "note": 73,
      "start": 6.9059,
      "duration": 0.0987,
      "velocity": 127,
      "chip": "ym2612"
    },
    {
      "channel": 3,
      "note": 69,
      "start": 7.1719,
      "duration": 0.0992,
      "velocity": 127,
      "chip": "ym2612"
    },
    {
      "channel": 2,
      "note": 76,
      "start": 7.4549,
      "duration": 0.0234,
      "velocity": 127,
      "chip": "ym2612"
    },
    {
      "channel": 3,
      "note": 73,
      "start": 7.4556,
      "duration": 0.0229,
      "velocity": 127,
      "chip": "ym2612"
    },
    {
      "channel": 3,
      "note": 64,
      "start": 7.5797,
      "duration": 0.0191,
      "velocity": 127,
      "chip": "ym2612"
    },
    {
      "channel": 2,
      "note": 76,
      "start": 7.707,
      "duration": 0.0192,
      "velocity": 127,
      "chip": "ym2612"
    },
    {
      "channel": 3,
      "note": 73,
      "start": 7.7076,
      "duration": 0.0187,
      "velocity": 127,
      "chip": "ym2612"
    },
    {
      "channel": 0,
      "note": 85,
      "start": 7.8203,
      "duration": 0.0335,
      "velocity": 79,
      "chip": "ym2612"
    },
    {
      "channel": 1,
      "note": 45,
      "start": 7.821,
      "duration": 0.1217,
      "velocity": 116,
      "chip": "ym2612"
    },
    {
      "channel": 3,
      "note": 69,
      "start": 7.8265,
      "duration": 0.0253,
      "velocity": 127,
      "chip": "ym2612"
    },
    {
      "channel": 4,
      "note": 93,
      "start": 7.8294,
      "duration": 0.0286,
      "velocity": 79,
      "chip": "ym2612"
    },
    {
      "channel": 0,
      "note": 84,
      "start": 7.9426,
      "duration": 0.0262,
      "velocity": 79,
      "chip": "ym2612"
    },
    {
      "channel": 2,
      "note": 76,
      "start": 7.9435,
      "duration": 0.0231,
      "velocity": 127,
      "chip": "ym2612"
    },
    {
      "channel": 3,
      "note": 73,
      "start": 7.9441,
      "duration": 0.0226,
      "velocity": 127,
      "chip": "ym2612"
    },
    {
      "channel": 4,
      "note": 92,
      "start": 7.9449,
      "duration": 0.028,
      "velocity": 79,
      "chip": "ym2612"
    },
    {
      "channel": 0,
      "note": 83,
      "start": 8.1065,
      "duration": 0.0315,
      "velocity": 79,
      "chip": "ym2612"
    },
    {
      "channel": 3,
      "note": 64,
      "start": 8.1074,
      "duration": 0.0215,
      "velocity": 127,
      "chip": "ym2612"
    },
    {
      "channel": 4,
      "note": 91,
      "start": 8.1082,
      "duration": 0.0311,
      "velocity": 79,
      "chip": "ym2612"
    },
    {
      "channel": 0,
      "note": 84,
      "start": 8.1385,
      "duration": 0.0782,
      "velocity": 79,
      "chip": "ym2612"
    },
    {
      "channel": 4,
      "note": 92,
      "start": 8.1399,
      "duration": 0.0795,
      "velocity": 79,
      "chip": "ym2612"
    },
    {
      "channel": 0,
      "note": 83,
      "start": 8.2173,
      "duration": 0.1494,
      "velocity": 79,
      "chip": "ym2612"
    },
    {
      "channel": 1,
      "note": 45,
      "start": 8.2179,
      "duration": 0.2662,
      "velocity": 116,
      "chip": "ym2612"
    },
    {
      "channel": 2,
      "note": 76,
      "start": 8.2186,
      "duration": 0.0989,
      "velocity": 127,
      "chip": "ym2612"
    },
    {
      "channel": 3,
      "note": 73,
      "start": 8.2193,
      "duration": 0.0983,
      "velocity": 127,
      "chip": "ym2612"
    },
    {
      "channel": 4,
      "note": 91,
      "start": 8.22,
      "duration": 0.1482,
      "velocity": 79,
      "chip": "ym2612"
    },
    {
      "channel": 0,
      "note": 82,
      "start": 8.3673,
      "duration": 0.1161,
      "velocity": 79,
      "chip": "ym2612"
    },
    {
      "channel": 4,
      "note": 90,
      "start": 8.3689,
      "duration": 0.1165,
      "velocity": 79,
      "chip": "ym2612"
    },
    {
      "channel": 0,
      "note": 81,
      "start": 8.484,
      "duration": 0.1161,
      "velocity": 79,
      "chip": "ym2612"
    },
    {
      "channel": 3,
      "note": 69,
      "start": 8.4852,
      "duration": 0.0989,
      "velocity": 127,
      "chip": "ym2612"
    },
    {
      "channel": 4,
      "note": 89,
      "start": 8.4859,
      "duration": 0.115,
      "velocity": 79,
      "chip": "ym2612"
    },
    {
      "channel": 0,
      "note": 80,
      "start": 8.7676,
      "duration": 0.0232,
      "velocity": 79,
      "chip": "ym2612"
    },
    {
      "channel": 2,
      "note": 76,
      "start": 8.7683,
      "duration": 0.0229,
      "velocity": 127,
      "chip": "ym2612"
    },
    {
      "channel": 3,
      "note": 73,
      "start": 8.7689,
      "duration": 0.0224,
      "velocity": 127,
      "chip": "ym2612"
    },
    {
      "channel": 4,
      "note": 88,
      "start": 8.7697,
      "duration": 0.0217,
      "velocity": 79,
      "chip": "ym2612"
    },
    {
      "channel": 0,
      "note": 79,
      "start": 8.892,
      "duration": 0.1104,
      "velocity": 79,
      "chip": "ym2612"
    },
    {
      "channel": 3,
      "note": 64,
      "start": 8.8929,
      "duration": 0.0217,
      "velocity": 127,
      "chip": "ym2612"
    },
    {
      "channel": 4,
      "note": 87,
      "start": 8.8937,
      "duration": 0.1109,
      "velocity": 79,
      "chip": "ym2612"
    },
    {
      "channel": 0,
      "note": 78,
      "start": 9.0031,
      "duration": 0.0261,
      "velocity": 79,
      "chip": "ym2612"
    },
    {
      "channel": 2,
      "note": 76,
      "start": 9.0038,
      "duration": 0.023,
      "velocity": 127,
      "chip": "ym2612"
    },
    {
      "channel": 3,
      "note": 73,
      "start": 9.0044,
      "duration": 0.0225,
      "velocity": 127,
      "chip": "ym2612"
    },
    {
      "channel": 4,
      "note": 86,
      "start": 9.0051,
      "duration": 0.0249,
      "velocity": 79,
      "chip": "ym2612"
    },
    {
      "channel": 1,
      "note": 45,
      "start": 9.1312,
      "duration": 0.1241,
      "velocity": 116,
      "chip": "ym2612"
    },
    {
      "channel": 3,
      "note": 69,
      "start": 9.1367,
      "duration": 0.0195,
      "velocity": 127,
      "chip": "ym2612"
    },
    {
      "channel": 0,
      "note": 72,
      "start": 9.2552,
      "duration": 0.0263,
      "velocity": 79,
      "chip": "ym2612"
    },
    {
      "channel": 2,
      "note": 76,
      "start": 9.2561,
      "duration": 0.0231,
      "velocity": 127,
      "chip": "ym2612"
    },
    {
      "channel": 3,
      "note": 73,
      "start": 9.2568,
      "duration": 0.0226,
      "velocity": 127,
      "chip": "ym2612"
    },
    {
      "channel": 4,
      "note": 79,
      "start": 9.2575,
      "duration": 0.0248,
      "velocity": 79,
      "chip": "ym2612"
    },
    {
      "channel": 3,
      "note": 64,
      "start": 9.4028,
      "duration": 0.0197,
      "velocity": 127,
      "chip": "ym2612"
    },
    {
      "channel": 4,
      "note": 74,
      "start": 9.4035,
      "duration": 0.0312,
      "velocity": 79,
      "chip": "ym2612"
    },
    {
      "channel": 4,
      "note": 76,
      "start": 9.4353,
      "duration": 0.096,
      "velocity": 79,
      "chip": "ym2612"
    },
    {
      "channel": 1,
      "note": 45,
      "start": 9.5299,
      "duration": 0.2668,
      "velocity": 116,
      "chip": "ym2612"
    },
    {
      "channel": 2,
      "note": 76,
      "start": 9.5305,
      "duration": 0.0991,
      "velocity": 127,
      "chip": "ym2612"
    },
    {
      "channel": 3,
      "note": 73,
      "start": 9.5312,
      "duration": 0.0986,
      "velocity": 127,
      "chip": "ym2612"
    },
    {
      "channel": 4,
      "note": 74,
      "start": 9.5319,
      "duration": 0.098,
      "velocity": 79,
      "chip": "ym2612"
    },
    {
      "channel": 0,
      "note": 69,
      "start": 9.7965,
      "duration": 0.1161,
      "velocity": 79,
      "chip": "ym2612"
    },
    {
      "channel": 3,
      "note": 69,
      "start": 9.7978,
      "duration": 0.099,
      "velocity": 127,
      "chip": "ym2612"
    },
    {
      "channel": 4,
      "note": 76,
      "start": 9.7985,
      "duration": 0.115,
      "velocity": 79,
      "chip": "ym2612"
    },
    {
      "channel": 2,
      "note": 76,
      "start": 10.0635,
      "duration": 0.0212,
      "velocity": 127,
      "chip": "ym2612"
    },
    {
      "channel": 3,
      "note": 73,
      "start": 10.0642,
      "duration": 0.0206,
      "velocity": 127,
      "chip": "ym2612"
    },
    {
      "channel": 4,
      "note": 74,
      "start": 10.0649,
      "duration": 0.0227,
      "velocity": 79,
      "chip": "ym2612"
    },
    {
      "channel": 0,
      "note": 81,
      "start": 10.2067,
      "duration": 0.1424,
      "velocity": 89,
      "chip": "ym2612"
    },
    {
      "channel": 3,
      "note": 64,
      "start": 10.2077,
      "duration": 0.0229,
      "velocity": 127,
      "chip": "ym2612"
    },
    {
      "channel": 4,
      "note": 93,
      "start": 10.2178,
      "duration": 0.1434,
      "velocity": 89,
      "chip": "ym2612"
    },
    {
      "channel": 2,
      "note": 76,
      "start": 10.3159,
      "duration": 0.0235,
      "velocity": 127,
      "chip": "ym2612"
    },
    {
      "channel": 3,
      "note": 73,
      "start": 10.3166,
      "duration": 0.0229,
      "velocity": 127,
      "chip": "ym2612"
    },
    {
      "channel": 0,
      "note": 80,
      "start": 10.3497,
      "duration": 0.0787,
      "velocity": 89,
      "chip": "ym2612"
    },
    {
      "channel": 4,
      "note": 92,
      "start": 10.3618,
      "duration": 0.0878,
      "velocity": 89,
      "chip": "ym2612"
    },
    {
      "channel": 0,
      "note": 83,
      "start": 10.429,
      "duration": 0.0375,
      "velocity": 89,
      "chip": "ym2612"
    },
    {
      "channel": 1,
      "note": 45,
      "start": 10.4298,
      "duration": 0.1382,
      "velocity": 116,
      "chip": "ym2612"
    },
    {
      "channel": 3,
      "note": 69,
      "start": 10.4352,
      "duration": 0.0254,
      "velocity": 127,
      "chip": "ym2612"
    },
    {
      "channel": 4,
      "note": 95,
      "start": 10.4502,
      "duration": 0.0273,
      "velocity": 89,
      "chip": "ym2612"
    },
    {
      "channel": 0,
      "note": 81,
      "start": 10.5679,
      "duration": 0.0296,
      "velocity": 89,
      "chip": "ym2612"
    },
    {
      "channel": 2,
      "note": 76,
      "start": 10.5688,
      "duration": 0.0228,
      "velocity": 127,
      "chip": "ym2612"
    },
    {
      "channel": 3,
      "note": 73,
      "start": 10.5695,
      "duration": 0.0223,
      "velocity": 127,
      "chip": "ym2612"
    },
    {
      "channel": 4,
      "note": 93,
      "start": 10.5777,
      "duration": 0.0538,
      "velocity": 89,
      "chip": "ym2612"
    },
    {
      "channel": 0,
      "note": 80,
      "start": 10.715,
      "duration": 0.028,
      "velocity": 89,
      "chip": "ym2612"
    },
    {
      "channel": 3,
      "note": 64,
      "start": 10.7159,
      "duration": 0.0214,
      "velocity": 127,
      "chip": "ym2612"
    },
    {
      "channel": 4,
      "note": 92,
      "start": 10.7271,
      "duration": 0.0264,
      "velocity": 89,
      "chip": "ym2612"
    },
    {
      "channel": 0,
      "note": 81,
      "start": 10.8257,
      "duration": 0.1328,
      "velocity": 89,
      "chip": "ym2612"
    },
    {
      "channel": 1,
      "note": 45,
      "start": 10.8264,
      "duration": 0.2828,
      "velocity": 116,
      "chip": "ym2612"
    },
    {
      "channel": 2,
      "note": 76,
      "start": 10.827,
      "duration": 0.0988,
      "velocity": 127,
      "chip": "ym2612"
    },
    {
      "channel": 3,
      "note": 73,
      "start": 10.8277,
      "duration": 0.0983,
      "velocity": 127,
      "chip": "ym2612"
    },
    {
      "channel": 4,
      "note": 93,
      "start": 10.877,
      "duration": 0.1324,
      "velocity": 89,
      "chip": "ym2612"
    },
    {
      "channel": 0,
      "note": 76,
      "start": 11.1091,
      "duration": 0.1328,
      "velocity": 89,
      "chip": "ym2612"
    },
    {
      "channel": 3,
      "note": 69,
      "start": 11.1103,
      "duration": 0.0989,
      "velocity": 127,
      "chip": "ym2612"
    },
    {
      "channel": 4,
      "note": 88,
      "start": 11.1434,
      "duration": 0.1491,
      "velocity": 89,
      "chip": "ym2612"
    },
    {
      "channel": 0,
      "note": 78,
      "start": 11.376,
      "duration": 0.0259,
      "velocity": 89,
      "chip": "ym2612"
    },
    {
      "channel": 2,
      "note": 76,
      "start": 11.3767,
      "duration": 0.0227,
      "velocity": 127,
      "chip": "ym2612"
    },
    {
      "channel": 3,
      "note": 73,
      "start": 11.3773,
      "duration": 0.0222,
      "velocity": 127,
      "chip": "ym2612"
    },
    {
      "channel": 4,
      "note": 90,
      "start": 11.389,
      "duration": 0.0238,
      "velocity": 89,
      "chip": "ym2612"
    },
    {
      "channel": 0,
      "note": 81,
      "start": 11.5005,
      "duration": 0.127,
      "velocity": 89,
      "chip": "ym2612"
    },
    {
      "channel": 3,
      "note": 64,
      "start": 11.5014,
      "duration": 0.0213,
      "velocity": 127,
      "chip": "ym2612"
    },
    {
      "channel": 4,
      "note": 93,
      "start": 11.5125,
      "duration": 0.1252,
      "velocity": 89,
      "chip": "ym2612"
    },
    {
      "channel": 0,
      "note": 80,
      "start": 11.6281,
      "duration": 0.1105,
      "velocity": 89,
      "chip": "ym2612"
    },
    {
      "channel": 2,
      "note": 76,
      "start": 11.6288,
      "duration": 0.0236,
      "velocity": 127,
      "chip": "ym2612"
    },
    {
      "channel": 3,
      "note": 73,
      "start": 11.6295,
      "duration": 0.0231,
      "velocity": 127,
      "chip": "ym2612"
    },
    {
      "channel": 4,
      "note": 92,
      "start": 11.6383,
      "duration": 0.1195,
      "velocity": 89,
      "chip": "ym2612"
    },
    {
      "channel": 0,
      "note": 76,
      "start": 11.7391,
      "duration": 0.1239,
      "velocity": 89,
      "chip": "ym2612"
    },
    {
      "channel": 1,
      "note": 45,
      "start": 11.7399,
      "duration": 0.1234,
      "velocity": 116,
      "chip": "ym2612"
    },
    {
      "channel": 3,
      "note": 69,
      "start": 11.7454,
      "duration": 0.0236,
      "velocity": 127,
      "chip": "ym2612"
    },
    {
      "channel": 4,
      "note": 88,
      "start": 11.7584,
      "duration": 0.1174,
      "velocity": 89,
      "chip": "ym2612"
    },
    {
      "channel": 2,
      "note": 76,
      "start": 11.8641,
      "duration": 0.0206,
      "velocity": 127,
      "chip": "ym2612"
    },
    {
      "channel": 3,
      "note": 73,
      "start": 11.8648,
      "duration": 0.02,
      "velocity": 127,
      "chip": "ym2612"
    },
    {
      "channel": 0,
      "note": 76,
      "start": 12.0276,
      "duration": 0.7849,
      "velocity": 89,
      "chip": "ym2612"
    },
    {
      "channel": 3,
      "note": 64,
      "start": 12.0286,
      "duration": 0.0207,
      "velocity": 127,
      "chip": "ym2612"
    },
    {
      "channel": 4,
      "note": 88,
      "start": 12.0364,
      "duration": 0.7879,
      "velocity": 89,
      "chip": "ym2612"
    },
    {
      "channel": 1,
      "note": 45,
      "start": 12.1387,
      "duration": 0.2662,
      "velocity": 116,
      "chip": "ym2612"
    },
    {
      "channel": 2,
      "note": 76,
      "start": 12.1393,
      "duration": 0.0992,
      "velocity": 127,
      "chip": "ym2612"
    },
    {
      "channel": 3,
      "note": 73,
      "start": 12.14,
      "duration": 0.0987,
      "velocity": 127,
      "chip": "ym2612"
    },
    {
      "channel": 3,
      "note": 69,
      "start": 12.4059,
      "duration": 0.0992,
      "velocity": 127,
      "chip": "ym2612"
    },
    {
      "channel": 2,
      "note": 76,
      "start": 12.689,
      "duration": 0.0233,
      "velocity": 127,
      "chip": "ym2612"
    },
    {
      "channel": 3,
      "note": 73,
      "start": 12.6897,
      "duration": 0.0228,
      "velocity": 127,
      "chip": "ym2612"
    },
    {
      "channel": 3,
      "note": 64,
      "start": 12.8137,
      "duration": 0.019,
      "velocity": 127,
      "chip": "ym2612"
    },
    {
      "channel": 2,
      "note": 76,
      "start": 12.9242,
      "duration": 0.0194,
      "velocity": 127,
      "chip": "ym2612"
    },
    {
      "channel": 3,
      "note": 73,
      "start": 12.9249,
      "duration": 0.0188,
      "velocity": 127,
      "chip": "ym2612"
    },
    {
      "channel": 0,
      "note": 85,
      "start": 13.0543,
      "duration": 0.0335,
      "velocity": 79,
      "chip": "ym2612"
    },
    {
      "channel": 1,
      "note": 45,
      "start": 13.055,
      "duration": 0.1216,
      "velocity": 116,
      "chip": "ym2612"
    },
    {
      "channel": 3,
      "note": 69,
      "start": 13.0605,
      "duration": 0.0252,
      "velocity": 127,
      "chip": "ym2612"
    },
    {
      "channel": 4,
      "note": 93,
      "start": 13.0633,
      "duration": 0.0253,
      "velocity": 79,
      "chip": "ym2612"
    },
    {
      "channel": 0,
      "note": 84,
      "start": 13.1764,
      "duration": 0.0262,
      "velocity": 79,
      "chip": "ym2612"
    },
    {
      "channel": 2,
      "note": 76,
      "start": 13.1774,
      "duration": 0.0231,
      "velocity": 127,
      "chip": "ym2612"
    },
    {
      "channel": 3,
      "note": 73,
      "start": 13.178,
      "duration": 0.0226,
      "velocity": 127,
      "chip": "ym2612"
    },
    {
      "channel": 4,
      "note": 92,
      "start": 13.1788,
      "duration": 0.0248,
      "velocity": 79,
      "chip": "ym2612"
    },
    {
      "channel": 0,
      "note": 83,
      "start": 13.3237,
      "duration": 0.0349,
      "velocity": 79,
      "chip": "ym2612"
    },
    {
      "channel": 3,
      "note": 64,
      "start": 13.3246,
      "duration": 0.0216,
      "velocity": 127,
      "chip": "ym2612"
    },
    {
      "channel": 4,
      "note": 91,
      "start": 13.3254,
      "duration": 0.0346,
      "velocity": 79,
      "chip": "ym2612"
    },
    {
      "channel": 0,
      "note": 84,
      "start": 13.3592,
      "duration": 0.0914,
      "velocity": 79,
      "chip": "ym2612"
    },
    {
      "channel": 4,
      "note": 92,
      "start": 13.3605,
      "duration": 0.0927,
      "velocity": 79,
      "chip": "ym2612"
    },
    {
      "channel": 0,
      "note": 83,
      "start": 13.4511,
      "duration": 0.1494,
      "velocity": 79,
      "chip": "ym2612"
    },
    {
      "channel": 1,
      "note": 45,
      "start": 13.4517,
      "duration": 0.2662,
      "velocity": 116,
      "chip": "ym2612"
    },
    {
      "channel": 2,
      "note": 76,
      "start": 13.4524,
      "duration": 0.0989,
      "velocity": 127,
      "chip": "ym2612"
    },
    {
      "channel": 3,
      "note": 73,
      "start": 13.4531,
      "duration": 0.0983,
      "velocity": 127,
      "chip": "ym2612"
    },
    {
      "channel": 4,
      "note": 91,
      "start": 13.4538,
      "duration": 0.1482,
      "velocity": 79,
      "chip": "ym2612"
    },
    {
      "channel": 0,
      "note": 82,
      "start": 13.6011,
      "duration": 0.1161,
      "velocity": 79,
      "chip": "ym2612"
    },
    {
      "channel": 4,
      "note": 90,
      "start": 13.6027,
      "duration": 0.1165,
      "velocity": 79,
      "chip": "ym2612"
    },
    {
      "channel": 0,
      "note": 81,
      "start": 13.7178,
      "duration": 0.1161,
      "velocity": 79,
      "chip": "ym2612"
    },
    {
      "channel": 3,
      "note": 69,
      "start": 13.719,
      "duration": 0.0989,
      "velocity": 127,
      "chip": "ym2612"
    },
    {
      "channel": 4,
      "note": 89,
      "start": 13.7197,
      "duration": 0.115,
      "velocity": 79,
      "chip": "ym2612"
    },
    {
      "channel": 0,
      "note": 80,
      "start": 13.9847,
      "duration": 0.0261,
      "velocity": 79,
      "chip": "ym2612"
    },
    {
      "channel": 2,
      "note": 76,
      "start": 13.9854,
      "duration": 0.0231,
      "velocity": 127,
      "chip": "ym2612"
    },
    {
      "channel": 3,
      "note": 73,
      "start": 13.986,
      "duration": 0.0226,
      "velocity": 127,
      "chip": "ym2612"
    },
    {
      "channel": 4,
      "note": 88,
      "start": 13.9868,
      "duration": 0.0249,
      "velocity": 79,
      "chip": "ym2612"
    },
    {
      "channel": 0,
      "note": 79,
      "start": 14.1258,
      "duration": 0.1104,
      "velocity": 79,
      "chip": "ym2612"
    },
    {
      "channel": 3,
      "note": 64,
      "start": 14.1268,
      "duration": 0.0217,
      "velocity": 127,
      "chip": "ym2612"
    },
    {
      "channel": 4,
      "note": 87,
      "start": 14.1275,
      "duration": 0.1109,
      "velocity": 79,
      "chip": "ym2612"
    },
    {
      "channel": 0,
      "note": 78,
      "start": 14.2369,
      "duration": 0.026,
      "velocity": 79,
      "chip": "ym2612"
    },
    {
      "channel": 2,
      "note": 76,
      "start": 14.2376,
      "duration": 0.023,
      "velocity": 127,
      "chip": "ym2612"
    },
    {
      "channel": 3,
      "note": 73,
      "start": 14.2382,
      "duration": 0.0224,
      "velocity": 127,
      "chip": "ym2612"
    },
    {
      "channel": 4,
      "note": 86,
      "start": 14.239,
      "duration": 0.0248,
      "velocity": 79,
      "chip": "ym2612"
    },
    {
      "channel": 1,
      "note": 45,
      "start": 14.3483,
      "duration": 0.1407,
      "velocity": 116,
      "chip": "ym2612"
    },
    {
      "channel": 3,
      "note": 69,
      "start": 14.3538,
      "duration": 0.0196,
      "velocity": 127,
      "chip": "ym2612"
    },
    {
      "channel": 0,
      "note": 72,
      "start": 14.4889,
      "duration": 0.0263,
      "velocity": 79,
      "chip": "ym2612"
    },
    {
      "channel": 2,
      "note": 76,
      "start": 14.4898,
      "duration": 0.0231,
      "velocity": 127,
      "chip": "ym2612"
    },
    {
      "channel": 3,
      "note": 73,
      "start": 14.4905,
      "duration": 0.0226,
      "velocity": 127,
      "chip": "ym2612"
    },
    {
      "channel": 4,
      "note": 79,
      "start": 14.4912,
      "duration": 0.0248,
      "velocity": 79,
      "chip": "ym2612"
    },
    {
      "channel": 3,
      "note": 64,
      "start": 14.6365,
      "duration": 0.0196,
      "velocity": 127,
      "chip": "ym2612"
    },
    {
      "channel": 4,
      "note": 74,
      "start": 14.6372,
      "duration": 0.031,
      "velocity": 79,
      "chip": "ym2612"
    },
    {
      "channel": 4,
      "note": 76,
      "start": 14.6688,
      "duration": 0.0796,
      "velocity": 79,
      "chip": "ym2612"
    },
    {
      "channel": 1,
      "note": 45,
      "start": 14.7469,
      "duration": 0.2835,
      "velocity": 116,
      "chip": "ym2612"
    },
    {
      "channel": 2,
      "note": 76,
      "start": 14.7476,
      "duration": 0.0991,
      "velocity": 127,
      "chip": "ym2612"
    },
    {
      "channel": 3,
      "note": 73,
      "start": 14.7482,
      "duration": 0.0986,
      "velocity": 127,
      "chip": "ym2612"
    },
    {
      "channel": 4,
      "note": 74,
      "start": 14.749,
      "duration": 0.1149,
      "velocity": 79,
      "chip": "ym2612"
    },
    {
      "channel": 0,
      "note": 69,
      "start": 15.0303,
      "duration": 0.1161,
      "velocity": 79,
      "chip": "ym2612"
    },
    {
      "channel": 3,
      "note": 69,
      "start": 15.0315,
      "duration": 0.099,
      "velocity": 127,
      "chip": "ym2612"
    },
    {
      "channel": 4,
      "note": 76,
      "start": 15.0322,
      "duration": 0.115,
      "velocity": 79,
      "chip": "ym2612"
    },
    {
      "channel": 2,
      "note": 76,
      "start": 15.2973,
      "duration": 0.0212,
      "velocity": 127,
      "chip": "ym2612"
    },
    {
      "channel": 3,
      "note": 73,
      "start": 15.2979,
      "duration": 0.0206,
      "velocity": 127,
      "chip": "ym2612"
    },
    {
      "channel": 4,
      "note": 74,
      "start": 15.2986,
      "duration": 0.0324,
      "velocity": 79,
      "chip": "ym2612"
    },
    {
      "channel": 4,
      "note": 76,
      "start": 15.3316,
      "duration": 0.1074,
      "velocity": 79,
      "chip": "ym2612"
    },
    {
      "channel": 3,
      "note": 64,
      "start": 15.4389,
      "duration": 0.0195,
      "velocity": 127,
      "chip": "ym2612"
    },
    {
      "channel": 4,
      "note": 74,
      "start": 15.4396,
      "duration": 0.0279,
      "velocity": 79,
      "chip": "ym2612"
    },
    {
      "channel": 4,
      "note": 79,
      "start": 15.468,
      "duration": 0.082,
      "velocity": 79,
      "chip": "ym2612"
    },
    {
      "channel": 2,
      "note": 76,
      "start": 15.5493,
      "duration": 0.0211,
      "velocity": 127,
      "chip": "ym2612"
    },
    {
      "channel": 3,
      "note": 73,
      "start": 15.5499,
      "duration": 0.0206,
      "velocity": 127,
      "chip": "ym2612"
    },
    {
      "channel": 4,
      "note": 76,
      "start": 15.5507,
      "duration": 0.0226,
      "velocity": 79,
      "chip": "ym2612"
    },
    {
      "channel": 0,
      "note": 88,
      "start": 15.6624,
      "duration": 0.0284,
      "velocity": 85,
      "chip": "ym2612"
    },
    {
      "channel": 1,
      "note": 52,
      "start": 15.6633,
      "duration": 0.0307,
      "velocity": 116,
      "chip": "ym2612"
    },
    {
      "channel": 0,
      "note": 87,
      "start": 15.8013,
      "duration": 0.0247,
      "velocity": 85,
      "chip": "ym2612"
    },
    {
      "channel": 1,
      "note": 52,
      "start": 15.802,
      "duration": 0.0314,
      "velocity": 116,
      "chip": "ym2612"
    },
    {
      "channel": 2,
      "note": 71,
      "start": 15.8026,
      "duration": 0.1461,
      "velocity": 79,
      "chip": "ym2612"
    },
    {
      "channel": 3,
      "note": 62,
      "start": 15.8032,
      "duration": 0.1458,
      "velocity": 79,
      "chip": "ym2612"
    },
    {
      "channel": 4,
      "note": 78,
      "start": 15.804,
      "duration": 0.1457,
      "velocity": 79,
      "chip": "ym2612"
    },
    {
      "channel": 0,
      "note": 86,
      "start": 15.9486,
      "duration": 0.0295,
      "velocity": 85,
      "chip": "ym2612"
    },
    {
      "channel": 3,
      "note": 52,
      "start": 15.9496,
      "duration": 0.0299,
      "velocity": 79,
      "chip": "ym2612"
    },
    {
      "channel": 0,
      "note": 87,
      "start": 15.9786,
      "duration": 0.0803,
      "velocity": 85,
      "chip": "ym2612"
    },
    {
      "channel": 2,
      "note": 71,
      "start": 15.9794,
      "duration": 0.0803,
      "velocity": 79,
      "chip": "ym2612"
    },
    {
      "channel": 3,
      "note": 62,
      "start": 15.98,
      "duration": 0.08,
      "velocity": 79,
      "chip": "ym2612"
    },
    {
      "channel": 4,
      "note": 78,
      "start": 15.9808,
      "duration": 0.0796,
      "velocity": 79,
      "chip": "ym2612"
    },
    {
      "channel": 0,
      "note": 86,
      "start": 16.0595,
      "duration": 0.166,
      "velocity": 85,
      "chip": "ym2612"
    },
    {
      "channel": 0,
      "note": 85,
      "start": 16.2261,
      "duration": 0.1161,
      "velocity": 85,
      "chip": "ym2612"
    },
    {
      "channel": 3,
      "note": 52,
      "start": 16.2269,
      "duration": 0.1167,
      "velocity": 79,
      "chip": "ym2612"
    },
    {
      "channel": 0,
      "note": 84,
      "start": 16.3427,
      "duration": 0.0994,
      "velocity": 85,
      "chip": "ym2612"
    },
    {
      "channel": 2,
      "note": 71,
      "start": 16.3434,
      "duration": 0.099,
      "velocity": 79,
      "chip": "ym2612"
    },
    {
      "channel": 3,
      "note": 62,
      "start": 16.3441,
      "duration": 0.0987,
      "velocity": 79,
      "chip": "ym2612"
    },
    {
      "channel": 0,
      "note": 83,
      "start": 16.6097,
      "duration": 0.0216,
      "velocity": 85,
      "chip": "ym2612"
    },
    {
      "channel": 1,
      "note": 52,
      "start": 16.6103,
      "duration": 0.2779,
      "velocity": 116,
      "chip": "ym2612"
    },
    {
      "channel": 0,
      "note": 82,
      "start": 16.7341,
      "duration": 0.0328,
      "velocity": 85,
      "chip": "ym2612"
    },
    {
      "channel": 3,
      "note": 62,
      "start": 16.7351,
      "duration": 0.0329,
      "velocity": 79,
      "chip": "ym2612"
    },
    {
      "channel": 0,
      "note": 83,
      "start": 16.7675,
      "duration": 0.0938,
      "velocity": 85,
      "chip": "ym2612"
    },
    {
      "channel": 3,
      "note": 64,
      "start": 16.7685,
      "duration": 0.0939,
      "velocity": 79,
      "chip": "ym2612"
    },
    {
      "channel": 0,
      "note": 82,
      "start": 16.8619,
      "duration": 0.0291,
      "velocity": 85,
      "chip": "ym2612"
    },
    {
      "channel": 3,
      "note": 62,
      "start": 16.8629,
      "duration": 0.029,
      "velocity": 79,
      "chip": "ym2612"
    },
    {
      "channel": 0,
      "note": 81,
      "start": 16.8916,
      "duration": 0.081,
      "velocity": 85,
      "chip": "ym2612"
    },
    {
      "channel": 3,
      "note": 57,
      "start": 16.8924,
      "duration": 0.0818,
      "velocity": 79,
      "chip": "ym2612"
    },
    {
      "channel": 0,
      "note": 80,
      "start": 16.9732,
      "duration": 0.0251,
      "velocity": 85,
      "chip": "ym2612"
    },
    {
      "channel": 1,
      "note": 52,
      "start": 16.9738,
      "duration": 0.0278,
      "velocity": 116,
      "chip": "ym2612"
    },
    {
      "channel": 3,
      "note": 45,
      "start": 16.9747,
      "duration": 0.0242,
      "velocity": 79,
      "chip": "ym2612"
    },
    {
      "channel": 0,
      "note": 79,
      "start": 17.0975,
      "duration": 0.0258,
      "velocity": 85,
      "chip": "ym2612"
    },
    {
      "channel": 1,
      "note": 52,
      "start": 17.0982,
      "duration": 0.6738,
      "velocity": 116,
      "chip": "ym2612"
    },
    {
      "channel": 2,
      "note": 64,
      "start": 17.0988,
      "duration": 0.163,
      "velocity": 79,
      "chip": "ym2612"
    },
    {
      "channel": 4,
      "note": 74,
      "start": 17.0996,
      "duration": 0.1632,
      "velocity": 79,
      "chip": "ym2612"
    },
    {
      "channel": 0,
      "note": 78,
      "start": 17.2615,
      "duration": 0.0306,
      "velocity": 85,
      "chip": "ym2612"
    },
    {
      "channel": 3,
      "note": 57,
      "start": 17.2627,
      "duration": 0.0208,
      "velocity": 79,
      "chip": "ym2612"
    },
    {
      "channel": 0,
      "note": 79,
      "start": 17.2926,
      "duration": 0.079,
      "velocity": 85,
      "chip": "ym2612"
    },
    {
      "channel": 2,
      "note": 64,
      "start": 17.2936,
      "duration": 0.079,
      "velocity": 79,
      "chip": "ym2612"
    },
    {
      "channel": 4,
      "note": 74,
      "start": 17.2943,
      "duration": 0.0789,
      "velocity": 79,
      "chip": "ym2612"
    },
    {
      "channel": 0,
      "note": 78,
      "start": 17.3722,
      "duration": 0.1494,
      "velocity": 85,
      "chip": "ym2612"
    },
    {
      "channel": 0,
      "note": 77,
      "start": 17.5222,
      "duration": 0.1161,
      "velocity": 85,
      "chip": "ym2612"
    },
    {
      "channel": 3,
      "note": 57,
      "start": 17.5232,
      "duration": 0.1167,
      "velocity": 79,
      "chip": "ym2612"
    },
    {
      "channel": 0,
      "note": 76,
      "start": 17.6388,
      "duration": 0.5186,
      "velocity": 85,
      "chip": "ym2612"
    },
    {
      "channel": 2,
      "note": 64,
      "start": 17.6398,
      "duration": 0.1158,
      "velocity": 79,
      "chip": "ym2612"
    },
    {
      "channel": 4,
      "note": 73,
      "start": 17.6408,
      "duration": 0.1151,
      "velocity": 79,
      "chip": "ym2612"
    },
    {
      "channel": 1,
      "note": 52,
      "start": 17.9227,
      "duration": 0.1239,
      "velocity": 116,
      "chip": "ym2612"
    },
    {
      "channel": 3,
      "note": 52,
      "start": 17.949,
      "duration": 0.0983,
      "velocity": 79,
      "chip": "ym2612"
    },
    {
      "channel": 1,
      "note": 50,
      "start": 18.0471,
      "duration": 0.1106,
      "velocity": 116,
      "chip": "ym2612"
    },
    {
      "channel": 3,
      "note": 55,
      "start": 18.0478,
      "duration": 0.0297,
      "velocity": 79,
      "chip": "ym2612"
    },
    {
      "channel": 3,
      "note": 57,
      "start": 18.078,
      "duration": 0.0805,
      "velocity": 79,
      "chip": "ym2612"
    },
    {
      "channel": 1,
      "note": 51,
      "start": 18.1583,
      "duration": 0.128,
      "velocity": 116,
      "chip": "ym2612"
    },
    {
      "channel": 3,
      "note": 55,
      "start": 18.159,
      "duration": 0.0305,
      "velocity": 79,
      "chip": "ym2612"
    },
    {
      "channel": 0,
      "note": 83,
      "start": 18.1793,
      "duration": 0.1061,
      "velocity": 85,
      "chip": "ym2612"
    },
    {
      "channel": 3,
      "note": 52,
      "start": 18.19,
      "duration": 0.0974,
      "velocity": 79,
      "chip": "ym2612"
    },
    {
      "channel": 0,
      "note": 88,
      "start": 18.286,
      "duration": 0.0297,
      "velocity": 85,
      "chip": "ym2612"
    },
    {
      "channel": 1,
      "note": 52,
      "start": 18.2867,
      "duration": 0.0263,
      "velocity": 116,
      "chip": "ym2612"
    },
    {
      "channel": 0,
      "note": 87,
      "start": 18.4103,
      "duration": 0.0464,
      "velocity": 85,
      "chip": "ym2612"
    },
    {
      "channel": 1,
      "note": 52,
      "start": 18.411,
      "duration": 0.0318,
      "velocity": 116,
      "chip": "ym2612"
    },
    {
      "channel": 2,
      "note": 71,
      "start": 18.4116,
      "duration": 0.1461,
      "velocity": 79,
      "chip": "ym2612"
    },
    {
      "channel": 3,
      "note": 62,
      "start": 18.4122,
      "duration": 0.1458,
      "velocity": 79,
      "chip": "ym2612"
    },
    {
      "channel": 4,
      "note": 78,
      "start": 18.413,
      "duration": 0.1457,
      "velocity": 79,
      "chip": "ym2612"
    },
    {
      "channel": 0,
      "note": 86,
      "start": 18.5576,
      "duration": 0.0325,
      "velocity": 85,
      "chip": "ym2612"
    },
    {
      "channel": 3,
      "note": 52,
      "start": 18.5586,
      "duration": 0.0329,
      "velocity": 79,
      "chip": "ym2612"
    },
    {
      "channel": 0,
      "note": 87,
      "start": 18.5906,
      "duration": 0.0938,
      "velocity": 85,
      "chip": "ym2612"
    },
    {
      "channel": 2,
      "note": 71,
      "start": 18.5914,
      "duration": 0.0939,
      "velocity": 79,
      "chip": "ym2612"
    },
    {
      "channel": 3,
      "note": 62,
      "start": 18.592,
      "duration": 0.0936,
      "velocity": 79,
      "chip": "ym2612"
    },
    {
      "channel": 4,
      "note": 78,
      "start": 18.5928,
      "duration": 0.0931,
      "velocity": 79,
      "chip": "ym2612"
    },
    {
      "channel": 0,
      "note": 86,
      "start": 18.6851,
      "duration": 0.1493,
      "velocity": 85,
      "chip": "ym2612"
    },
    {
      "channel": 0,
      "note": 85,
      "start": 18.8349,
      "duration": 0.1161,
      "velocity": 85,
      "chip": "ym2612"
    },
    {
      "channel": 3,
      "note": 52,
      "start": 18.8358,
      "duration": 0.1167,
      "velocity": 79,
      "chip": "ym2612"
    },
    {
      "channel": 0,
      "note": 84,
      "start": 18.9516,
      "duration": 0.1161,
      "velocity": 85,
      "chip": "ym2612"
    },
    {
      "channel": 2,
      "note": 71,
      "start": 18.9523,
      "duration": 0.1157,
      "velocity": 79,
      "chip": "ym2612"
    },
    {
      "channel": 3,
      "note": 62,
      "start": 18.9529,
      "duration": 0.1154,
      "velocity": 79,
      "chip": "ym2612"
    },
    {
      "channel": 4,
      "note": 78,
      "start": 18.9537,
      "duration": 0.1149,
      "velocity": 79,
      "chip": "ym2612"
    },
    {
      "channel": 0,
      "note": 83,
      "start": 19.2185,
      "duration": 0.0217,
      "velocity": 85,
      "chip": "ym2612"
    },
    {
      "channel": 1,
      "note": 52,
      "start": 19.2192,
      "duration": 0.278,
      "velocity": 116,
      "chip": "ym2612"
    },
    {
      "channel": 0,
      "note": 82,
      "start": 19.3596,
      "duration": 0.0295,
      "velocity": 85,
      "chip": "ym2612"
    },
    {
      "channel": 3,
      "note": 62,
      "start": 19.3606,
      "duration": 0.0297,
      "velocity": 79,
      "chip": "ym2612"
    },
    {
      "channel": 0,
      "note": 83,
      "start": 19.3897,
      "duration": 0.0804,
      "velocity": 85,
      "chip": "ym2612"
    },
    {
      "channel": 3,
      "note": 64,
      "start": 19.3907,
      "duration": 0.0804,
      "velocity": 79,
      "chip": "ym2612"
    },
    {
      "channel": 0,
      "note": 82,
      "start": 19.4707,
      "duration": 0.0323,
      "velocity": 85,
      "chip": "ym2612"
    },
    {
      "channel": 3,
      "note": 62,
      "start": 19.4717,
      "duration": 0.0322,
      "velocity": 79,
      "chip": "ym2612"
    },
    {
      "channel": 0,
      "note": 81,
      "start": 19.5036,
      "duration": 0.0778,
      "velocity": 85,
      "chip": "ym2612"
    },
    {
      "channel": 3,
      "note": 57,
      "start": 19.5044,
      "duration": 0.0779,
      "velocity": 79,
      "chip": "ym2612"
    },
    {
      "channel": 0,
      "note": 81,
      "start": 20.7813,
      "duration": 0.0654,
      "velocity": 89,
      "chip": "ym2612"
    },
    {
      "channel": 0,
      "note": 80,
      "start": 20.8473,
      "duration": 0.0194,
      "velocity": 89,
      "chip": "ym2612"
    },
    {
      "channel": 0,
      "note": 83,
      "start": 20.8673,
      "duration": 0.0366,
      "velocity": 89,
      "chip": "ym2612"
    },
    {
      "channel": 1,
      "note": 45,
      "start": 20.868,
      "duration": 0.1217,
      "velocity": 116,
      "chip": "ym2612"
    },
    {
      "channel": 3,
      "note": 69,
      "start": 20.8733,
      "duration": 0.0249,
      "velocity": 127,
      "chip": "ym2612"
    },
    {
      "channel": 4,
      "note": 95,
      "start": 20.8875,
      "duration": 0.0274,
      "velocity": 89,
      "chip": "ym2612"
    },
    {
      "channel": 0,
      "note": 81,
      "start": 20.9895,
      "duration": 0.0331,
      "velocity": 89,
      "chip": "ym2612"
    },
    {
      "channel": 2,
      "note": 76,
      "start": 20.9905,
      "duration": 0.0227,
      "velocity": 127,
      "chip": "ym2612"
    },
    {
      "channel": 3,
      "note": 73,
      "start": 20.9911,
      "duration": 0.0221,
      "velocity": 127,
      "chip": "ym2612"
    },
    {
      "channel": 4,
      "note": 93,
      "start": 21.0028,
      "duration": 0.0504,
      "velocity": 89,
      "chip": "ym2612"
    },
    {
      "channel": 0,
      "note": 80,
      "start": 21.1534,
      "duration": 0.0283,
      "velocity": 89,
      "chip": "ym2612"
    },
    {
      "channel": 3,
      "note": 64,
      "start": 21.1543,
      "duration": 0.0216,
      "velocity": 127,
      "chip": "ym2612"
    },
    {
      "channel": 4,
      "note": 92,
      "start": 21.1622,
      "duration": 0.0299,
      "velocity": 89,
      "chip": "ym2612"
    },
    {
      "channel": 0,
      "note": 81,
      "start": 21.2641,
      "duration": 0.1328,
      "velocity": 89,
      "chip": "ym2612"
    },
    {
      "channel": 1,
      "note": 45,
      "start": 21.2647,
      "duration": 0.2662,
      "velocity": 116,
      "chip": "ym2612"
    },
    {
      "channel": 2,
      "note": 76,
      "start": 21.2654,
      "duration": 0.0988,
      "velocity": 127,
      "chip": "ym2612"
    },
    {
      "channel": 3,
      "note": 73,
      "start": 21.266,
      "duration": 0.0983,
      "velocity": 127,
      "chip": "ym2612"
    },
    {
      "channel": 4,
      "note": 93,
      "start": 21.3154,
      "duration": 0.1324,
      "velocity": 89,
      "chip": "ym2612"
    },
    {
      "channel": 0,
      "note": 76,
      "start": 21.5307,
      "duration": 0.1494,
      "velocity": 89,
      "chip": "ym2612"
    },
    {
      "channel": 3,
      "note": 69,
      "start": 21.532,
      "duration": 0.0989,
      "velocity": 127,
      "chip": "ym2612"
    },
    {
      "channel": 4,
      "note": 88,
      "start": 21.5817,
      "duration": 0.1324,
      "velocity": 89,
      "chip": "ym2612"
    },
    {
      "channel": 0,
      "note": 78,
      "start": 21.8143,
      "duration": 0.0259,
      "velocity": 89,
      "chip": "ym2612"
    },
    {
      "channel": 2,
      "note": 76,
      "start": 21.815,
      "duration": 0.0227,
      "velocity": 127,
      "chip": "ym2612"
    },
    {
      "channel": 3,
      "note": 73,
      "start": 21.8157,
      "duration": 0.0222,
      "velocity": 127,
      "chip": "ym2612"
    },
    {
      "channel": 4,
      "note": 90,
      "start": 21.8274,
      "duration": 0.0204,
      "velocity": 89,
      "chip": "ym2612"
    },
    {
      "channel": 0,
      "note": 81,
      "start": 21.9388,
      "duration": 0.1105,
      "velocity": 89,
      "chip": "ym2612"
    },
    {
      "channel": 3,
      "note": 64,
      "start": 21.9398,
      "duration": 0.0214,
      "velocity": 127,
      "chip": "ym2612"
    },
    {
      "channel": 4,
      "note": 93,
      "start": 21.9509,
      "duration": 0.1122,
      "velocity": 89,
      "chip": "ym2612"
    },
    {
      "channel": 0,
      "note": 80,
      "start": 22.0499,
      "duration": 0.1272,
      "velocity": 89,
      "chip": "ym2612"
    },
    {
      "channel": 2,
      "note": 76,
      "start": 22.0506,
      "duration": 0.0236,
      "velocity": 127,
      "chip": "ym2612"
    },
    {
      "channel": 3,
      "note": 73,
      "start": 22.0512,
      "duration": 0.0231,
      "velocity": 127,
      "chip": "ym2612"
    },
    {
      "channel": 4,
      "note": 92,
      "start": 22.0637,
      "duration": 0.1329,
      "velocity": 89,
      "chip": "ym2612"
    },
    {
      "channel": 0,
      "note": 76,
      "start": 22.1776,
      "duration": 0.1237,
      "velocity": 89,
      "chip": "ym2612"
    },
    {
      "channel": 1,
      "note": 45,
      "start": 22.1784,
      "duration": 0.1233,
      "velocity": 116,
      "chip": "ym2612"
    },
    {
      "channel": 3,
      "note": 69,
      "start": 22.1839,
      "duration": 0.0238,
      "velocity": 127,
      "chip": "ym2612"
    },
    {
      "channel": 4,
      "note": 88,
      "start": 22.1971,
      "duration": 0.1171,
      "velocity": 89,
      "chip": "ym2612"
    },
    {
      "channel": 2,
      "note": 76,
      "start": 22.3025,
      "duration": 0.0206,
      "velocity": 127,
      "chip": "ym2612"
    },
    {
      "channel": 3,
      "note": 73,
      "start": 22.3031,
      "duration": 0.02,
      "velocity": 127,
      "chip": "ym2612"
    },
    {
      "channel": 0,
      "note": 76,
      "start": 22.4494,
      "duration": 0.8014,
      "velocity": 89,
      "chip": "ym2612"
    },
    {
      "channel": 3,
      "note": 64,
      "start": 22.4504,
      "duration": 0.0204,
      "velocity": 127,
      "chip": "ym2612"
    },
    {
      "channel": 4,
      "note": 88,
      "start": 22.4613,
      "duration": 0.8011,
      "velocity": 89,
      "chip": "ym2612"
    },
    {
      "channel": 1,
      "note": 45,
      "start": 22.5769,
      "duration": 0.2662,
      "velocity": 116,
      "chip": "ym2612"
    },
    {
      "channel": 2,
      "note": 76,
      "start": 22.5776,
      "duration": 0.0992,
      "velocity": 127,
      "chip": "ym2612"
    },
    {
      "channel": 3,
      "note": 73,
      "start": 22.5783,
      "duration": 0.0987,
      "velocity": 127,
      "chip": "ym2612"
    },
    {
      "channel": 3,
      "note": 69,
      "start": 22.8442,
      "duration": 0.0992,
      "velocity": 127,
      "chip": "ym2612"
    },
    {
      "channel": 2,
      "note": 76,
      "start": 23.1273,
      "duration": 0.0232,
      "velocity": 127,
      "chip": "ym2612"
    },
    {
      "channel": 3,
      "note": 73,
      "start": 23.1279,
      "duration": 0.0227,
      "velocity": 127,
      "chip": "ym2612"
    },
    {
      "channel": 3,
      "note": 64,
      "start": 23.2519,
      "duration": 0.0191,
      "velocity": 127,
      "chip": "ym2612"
    },
    {
      "channel": 2,
      "note": 76,
      "start": 23.3624,
      "duration": 0.0194,
      "velocity": 127,
      "chip": "ym2612"
    },
    {
      "channel": 3,
      "note": 73,
      "start": 23.3631,
      "duration": 0.0188,
      "velocity": 127,
      "chip": "ym2612"
    },
    {
      "channel": 0,
      "note": 85,
      "start": 23.4925,
      "duration": 0.0305,
      "velocity": 79,
      "chip": "ym2612"
    },
    {
      "channel": 1,
      "note": 45,
      "start": 23.4932,
      "duration": 0.1215,
      "velocity": 116,
      "chip": "ym2612"
    },
    {
      "channel": 3,
      "note": 69,
      "start": 23.4987,
      "duration": 0.025,
      "velocity": 127,
      "chip": "ym2612"
    },
    {
      "channel": 4,
      "note": 93,
      "start": 23.5015,
      "duration": 0.0281,
      "velocity": 79,
      "chip": "ym2612"
    },
    {
      "channel": 0,
      "note": 84,
      "start": 23.6146,
      "duration": 0.0263,
      "velocity": 79,
      "chip": "ym2612"
    },
    {
      "channel": 2,
      "note": 76,
      "start": 23.6156,
      "duration": 0.0231,
      "velocity": 127,
      "chip": "ym2612"
    },
    {
      "channel": 3,
      "note": 73,
      "start": 23.6162,
      "duration": 0.0226,
      "velocity": 127,
      "chip": "ym2612"
    },
    {
      "channel": 4,
      "note": 92,
      "start": 23.6169,
      "duration": 0.028,
      "velocity": 79,
      "chip": "ym2612"
    },
    {
      "channel": 0,
      "note": 83,
      "start": 23.7619,
      "duration": 0.035,
      "velocity": 79,
      "chip": "ym2612"
    },
    {
      "channel": 3,
      "note": 64,
      "start": 23.7628,
      "duration": 0.0217,
      "velocity": 127,
      "chip": "ym2612"
    },
    {
      "channel": 4,
      "note": 91,
      "start": 23.7636,
      "duration": 0.0346,
      "velocity": 79,
      "chip": "ym2612"
    },
    {
      "channel": 0,
      "note": 84,
      "start": 23.7974,
      "duration": 0.0913,
      "velocity": 79,
      "chip": "ym2612"
    },
    {
      "channel": 4,
      "note": 92,
      "start": 23.7988,
      "duration": 0.0926,
      "velocity": 79,
      "chip": "ym2612"
    },
    {
      "channel": 0,
      "note": 83,
      "start": 23.8893,
      "duration": 0.1494,
      "velocity": 79,
      "chip": "ym2612"
    },
    {
      "channel": 1,
      "note": 45,
      "start": 23.8899,
      "duration": 0.2662,
      "velocity": 116,
      "chip": "ym2612"
    },
    {
      "channel": 2,
      "note": 76,
      "start": 23.8906,
      "duration": 0.0987,
      "velocity": 127,
      "chip": "ym2612"
    },
    {
      "channel": 3,
      "note": 73,
      "start": 23.8913,
      "duration": 0.0983,
      "velocity": 127,
      "chip": "ym2612"
    },
    {
      "channel": 4,
      "note": 91,
      "start": 23.892,
      "duration": 0.1482,
      "velocity": 79,
      "chip": "ym2612"
    },
    {
      "channel": 0,
      "note": 82,
      "start": 24.0393,
      "duration": 0.1161,
      "velocity": 79,
      "chip": "ym2612"
    },
    {
      "channel": 4,
      "note": 90,
      "start": 24.0409,
      "duration": 0.1165,
      "velocity": 79,
      "chip": "ym2612"
    },
    {
      "channel": 0,
      "note": 81,
      "start": 24.156,
      "duration": 0.1161,
      "velocity": 79,
      "chip": "ym2612"
    },
    {
      "channel": 3,
      "note": 69,
      "start": 24.1572,
      "duration": 0.099,
      "velocity": 127,
      "chip": "ym2612"
    },
    {
      "channel": 4,
      "note": 89,
      "start": 24.1579,
      "duration": 0.115,
      "velocity": 79,
      "chip": "ym2612"
    },
    {
      "channel": 0,
      "note": 80,
      "start": 24.4229,
      "duration": 0.0261,
      "velocity": 79,
      "chip": "ym2612"
    },
    {
      "channel": 2,
      "note": 76,
      "start": 24.4236,
      "duration": 0.023,
      "velocity": 127,
      "chip": "ym2612"
    },
    {
      "channel": 3,
      "note": 73,
      "start": 24.4242,
      "duration": 0.0225,
      "velocity": 127,
      "chip": "ym2612"
    },
    {
      "channel": 4,
      "note": 88,
      "start": 24.425,
      "duration": 0.025,
      "velocity": 79,
      "chip": "ym2612"
    },
    {
      "channel": 0,
      "note": 79,
      "start": 24.5639,
      "duration": 0.1104,
      "velocity": 79,
      "chip": "ym2612"
    },
    {
      "channel": 3,
      "note": 64,
      "start": 24.5649,
      "duration": 0.0215,
      "velocity": 127,
      "chip": "ym2612"
    },
    {
      "channel": 4,
      "note": 87,
      "start": 24.5656,
      "duration": 0.1108,
      "velocity": 79,
      "chip": "ym2612"
    },
    {
      "channel": 0,
      "note": 78,
      "start": 24.6749,
      "duration": 0.0261,
      "velocity": 79,
      "chip": "ym2612"
    },
    {
      "channel": 2,
      "note": 76,
      "start": 24.6756,
      "duration": 0.0231,
      "velocity": 127,
      "chip": "ym2612"
    },
    {
      "channel": 3,
      "note": 73,
      "start": 24.6763,
      "duration": 0.0226,
      "velocity": 127,
      "chip": "ym2612"
    },
    {
      "channel": 4,
      "note": 86,
      "start": 24.677,
      "duration": 0.0249,
      "velocity": 79,
      "chip": "ym2612"
    },
    {
      "channel": 1,
      "note": 45,
      "start": 24.7864,
      "duration": 0.1408,
      "velocity": 116,
      "chip": "ym2612"
    },
    {
      "channel": 3,
      "note": 69,
      "start": 24.7919,
      "duration": 0.0196,
      "velocity": 127,
      "chip": "ym2612"
    },
    {
      "channel": 0,
      "note": 72,
      "start": 24.9271,
      "duration": 0.0235,
      "velocity": 79,
      "chip": "ym2612"
    },
    {
      "channel": 2,
      "note": 76,
      "start": 24.928,
      "duration": 0.0229,
      "velocity": 127,
      "chip": "ym2612"
    },
    {
      "channel": 3,
      "note": 73,
      "start": 24.9286,
      "duration": 0.0224,
      "velocity": 127,
      "chip": "ym2612"
    },
    {
      "channel": 4,
      "note": 79,
      "start": 24.9294,
      "duration": 0.0218,
      "velocity": 79,
      "chip": "ym2612"
    },
    {
      "channel": 3,
      "note": 64,
      "start": 25.0746,
      "duration": 0.0197,
      "velocity": 127,
      "chip": "ym2612"
    },
    {
      "channel": 4,
      "note": 74,
      "start": 25.0753,
      "duration": 0.028,
      "velocity": 79,
      "chip": "ym2612"
    },
    {
      "channel": 4,
      "note": 76,
      "start": 25.1039,
      "duration": 0.0826,
      "velocity": 79,
      "chip": "ym2612"
    },
    {
      "channel": 1,
      "note": 45,
      "start": 25.1851,
      "duration": 0.2835,
      "velocity": 116,
      "chip": "ym2612"
    },
    {
      "channel": 2,
      "note": 76,
      "start": 25.1857,
      "duration": 0.0991,
      "velocity": 127,
      "chip": "ym2612"
    },
    {
      "channel": 3,
      "note": 73,
      "start": 25.1864,
      "duration": 0.0986,
      "velocity": 127,
      "chip": "ym2612"
    },
    {
      "channel": 4,
      "note": 74,
      "start": 25.1871,
      "duration": 0.1149,
      "velocity": 79,
      "chip": "ym2612"
    },
    {
      "channel": 0,
      "note": 69,
      "start": 25.4684,
      "duration": 0.0994,
      "velocity": 79,
      "chip": "ym2612"
    },
    {
      "channel": 3,
      "note": 69,
      "start": 25.4696,
      "duration": 0.0988,
      "velocity": 127,
      "chip": "ym2612"
    },
    {
      "channel": 4,
      "note": 76,
      "start": 25.4704,
      "duration": 0.0982,
      "velocity": 79,
      "chip": "ym2612"
    },
    {
      "channel": 2,
      "note": 76,
      "start": 25.7354,
      "duration": 0.0211,
      "velocity": 127,
      "chip": "ym2612"
    },
    {
      "channel": 3,
      "note": 73,
      "start": 25.7361,
      "duration": 0.0206,
      "velocity": 127,
      "chip": "ym2612"
    },
    {
      "channel": 4,
      "note": 74,
      "start": 25.7367,
      "duration": 0.0227,
      "velocity": 79,
      "chip": "ym2612"
    },
    {
      "channel": 0,
      "note": 81,
      "start": 25.862,
      "duration": 0.1591,
      "velocity": 89,
      "chip": "ym2612"
    },
    {
      "channel": 3,
      "note": 64,
      "start": 25.8629,
      "duration": 0.0228,
      "velocity": 127,
      "chip": "ym2612"
    },
    {
      "channel": 4,
      "note": 93,
      "start": 25.8762,
      "duration": 0.1568,
      "velocity": 89,
      "chip": "ym2612"
    },
    {
      "channel": 2,
      "note": 76,
      "start": 25.9879,
      "duration": 0.0234,
      "velocity": 127,
      "chip": "ym2612"
    },
    {
      "channel": 3,
      "note": 73,
      "start": 25.9886,
      "duration": 0.0229,
      "velocity": 127,
      "chip": "ym2612"
    },
    {
      "channel": 0,
      "note": 80,
      "start": 26.0216,
      "duration": 0.0789,
      "velocity": 89,
      "chip": "ym2612"
    },
    {
      "channel": 4,
      "note": 92,
      "start": 26.0337,
      "duration": 0.0882,
      "velocity": 89,
      "chip": "ym2612"
    },
    {
      "channel": 0,
      "note": 83,
      "start": 26.1011,
      "duration": 0.0377,
      "velocity": 89,
      "chip": "ym2612"
    },
    {
      "channel": 1,
      "note": 45,
      "start": 26.1018,
      "duration": 0.1216,
      "velocity": 116,
      "chip": "ym2612"
    },
    {
      "channel": 3,
      "note": 69,
      "start": 26.1073,
      "duration": 0.0256,
      "velocity": 127,
      "chip": "ym2612"
    },
    {
      "channel": 4,
      "note": 95,
      "start": 26.1224,
      "duration": 0.0272,
      "velocity": 89,
      "chip": "ym2612"
    },
    {
      "channel": 0,
      "note": 81,
      "start": 26.2233,
      "duration": 0.0293,
      "velocity": 89,
      "chip": "ym2612"
    },
    {
      "channel": 2,
      "note": 76,
      "start": 26.2242,
      "duration": 0.0226,
      "velocity": 127,
      "chip": "ym2612"
    },
    {
      "channel": 3,
      "note": 73,
      "start": 26.2249,
      "duration": 0.022,
      "velocity": 127,
      "chip": "ym2612"
    },
    {
      "channel": 4,
      "note": 93,
      "start": 26.2365,
      "duration": 0.0504,
      "velocity": 89,
      "chip": "ym2612"
    },
    {
      "channel": 0,
      "note": 80,
      "start": 26.3871,
      "duration": 0.0284,
      "velocity": 89,
      "chip": "ym2612"
    },
    {
      "channel": 3,
      "note": 64,
      "start": 26.3881,
      "duration": 0.0217,
      "velocity": 127,
      "chip": "ym2612"
    },
    {
      "channel": 4,
      "note": 92,
      "start": 26.396,
      "duration": 0.03,
      "velocity": 89,
      "chip": "ym2612"
    },
    {
      "channel": 0,
      "note": 81,
      "start": 26.4978,
      "duration": 0.1328,
      "velocity": 89,
      "chip": "ym2612"
    },
    {
      "channel": 1,
      "note": 45,
      "start": 26.4984,
      "duration": 0.2662,
      "velocity": 116,
      "chip": "ym2612"
    },
    {
      "channel": 2,
      "note": 76,
      "start": 26.4991,
      "duration": 0.0989,
      "velocity": 127,
      "chip": "ym2612"
    },
    {
      "channel": 3,
      "note": 73,
      "start": 26.4998,
      "duration": 0.0983,
      "velocity": 127,
      "chip": "ym2612"
    },
    {
      "channel": 4,
      "note": 93,
      "start": 26.5491,
      "duration": 0.1324,
      "velocity": 89,
      "chip": "ym2612"
    },
    {
      "channel": 0,
      "note": 76,
      "start": 26.7644,
      "duration": 0.1494,
      "velocity": 89,
      "chip": "ym2612"
    },
    {
      "channel": 3,
      "note": 69,
      "start": 26.7657,
      "duration": 0.0989,
      "velocity": 127,
      "chip": "ym2612"
    },
    {
      "channel": 4,
      "note": 88,
      "start": 26.8155,
      "duration": 0.1324,
      "velocity": 89,
      "chip": "ym2612"
    },
    {
      "channel": 0,
      "note": 78,
      "start": 27.048,
      "duration": 0.0231,
      "velocity": 89,
      "chip": "ym2612"
    },
    {
      "channel": 2,
      "note": 76,
      "start": 27.0488,
      "duration": 0.0227,
      "velocity": 127,
      "chip": "ym2612"
    },
    {
      "channel": 3,
      "note": 73,
      "start": 27.0494,
      "duration": 0.0222,
      "velocity": 127,
      "chip": "ym2612"
    },
    {
      "channel": 4,
      "note": 90,
      "start": 27.0576,
      "duration": 0.0237,
      "velocity": 89,
      "chip": "ym2612"
    },
    {
      "channel": 0,
      "note": 81,
      "start": 27.1724,
      "duration": 0.1104,
      "velocity": 89,
      "chip": "ym2612"
    },
    {
      "channel": 3,
      "note": 64,
      "start": 27.1734,
      "duration": 0.0214,
      "velocity": 127,
      "chip": "ym2612"
    },
    {
      "channel": 4,
      "note": 93,
      "start": 27.1845,
      "duration": 0.1122,
      "velocity": 89,
      "chip": "ym2612"
    },
    {
      "channel": 0,
      "note": 80,
      "start": 27.2835,
      "duration": 0.1272,
      "velocity": 89,
      "chip": "ym2612"
    },
    {
      "channel": 2,
      "note": 76,
      "start": 27.2842,
      "duration": 0.0237,
      "velocity": 127,
      "chip": "ym2612"
    },
    {
      "channel": 3,
      "note": 73,
      "start": 27.2849,
      "duration": 0.0231,
      "velocity": 127,
      "chip": "ym2612"
    },
    {
      "channel": 4,
      "note": 92,
      "start": 27.2973,
      "duration": 0.1291,
      "velocity": 89,
      "chip": "ym2612"
    },
    {
      "channel": 0,
      "note": 76,
      "start": 27.4113,
      "duration": 0.1239,
      "velocity": 89,
      "chip": "ym2612"
    },
    {
      "channel": 1,
      "note": 45,
      "start": 27.4121,
      "duration": 0.1234,
      "velocity": 116,
      "chip": "ym2612"
    },
    {
      "channel": 3,
      "note": 69,
      "start": 27.4176,
      "duration": 0.0237,
      "velocity": 127,
      "chip": "ym2612"
    },
    {
      "channel": 4,
      "note": 88,
      "start": 27.427,
      "duration": 0.121,
      "velocity": 89,
      "chip": "ym2612"
    },
    {
      "channel": 2,
      "note": 76,
      "start": 27.5363,
      "duration": 0.0205,
      "velocity": 127,
      "chip": "ym2612"
    },
    {
      "channel": 3,
      "note": 73,
      "start": 27.5369,
      "duration": 0.02,
      "velocity": 127,
      "chip": "ym2612"
    },
    {
      "channel": 0,
      "note": 76,
      "start": 27.6831,
      "duration": 0.8014,
      "velocity": 89,
      "chip": "ym2612"
    },
    {
      "channel": 3,
      "note": 64,
      "start": 27.6841,
      "duration": 0.0205,
      "velocity": 127,
      "chip": "ym2612"
    },
    {
      "channel": 4,
      "note": 88,
      "start": 27.6951,
      "duration": 0.7979,
      "velocity": 89,
      "chip": "ym2612"
    },
    {
      "channel": 1,
      "note": 45,
      "start": 27.8107,
      "duration": 0.2662,
      "velocity": 116,
      "chip": "ym2612"
    },
    {
      "channel": 2,
      "note": 76,
      "start": 27.8114,
      "duration": 0.0992,
      "velocity": 127,
      "chip": "ym2612"
    },
    {
      "channel": 3,
      "note": 73,
      "start": 27.812,
      "duration": 0.0987,
      "velocity": 127,
      "chip": "ym2612"
    },
    {
      "channel": 3,
      "note": 69,
      "start": 28.078,
      "duration": 0.0992,
      "velocity": 127,
      "chip": "ym2612"
    },
    {
      "channel": 2,
      "note": 76,
      "start": 28.3444,
      "duration": 0.0233,
      "velocity": 127,
      "chip": "ym2612"
    },
    {
      "channel": 3,
      "note": 73,
      "start": 28.345,
      "duration": 0.0227,
      "velocity": 127,
      "chip": "ym2612"
    },
    {
      "channel": 3,
      "note": 64,
      "start": 28.4857,
      "duration": 0.0187,
      "velocity": 127,
      "chip": "ym2612"
    },
    {
      "channel": 2,
      "note": 76,
      "start": 28.5963,
      "duration": 0.0196,
      "velocity": 127,
      "chip": "ym2612"
    },
    {
      "channel": 3,
      "note": 73,
      "start": 28.5971,
      "duration": 0.019,
      "velocity": 127,
      "chip": "ym2612"
    },
    {
      "channel": 0,
      "note": 85,
      "start": 28.7097,
      "duration": 0.0335,
      "velocity": 79,
      "chip": "ym2612"
    },
    {
      "channel": 1,
      "note": 45,
      "start": 28.7104,
      "duration": 0.1383,
      "velocity": 116,
      "chip": "ym2612"
    },
    {
      "channel": 3,
      "note": 69,
      "start": 28.7159,
      "duration": 0.0253,
      "velocity": 127,
      "chip": "ym2612"
    },
    {
      "channel": 4,
      "note": 93,
      "start": 28.7187,
      "duration": 0.0253,
      "velocity": 79,
      "chip": "ym2612"
    },
    {
      "channel": 0,
      "note": 84,
      "start": 28.8486,
      "duration": 0.0263,
      "velocity": 79,
      "chip": "ym2612"
    },
    {
      "channel": 2,
      "note": 76,
      "start": 28.8496,
      "duration": 0.0232,
      "velocity": 127,
      "chip": "ym2612"
    },
    {
      "channel": 3,
      "note": 73,
      "start": 28.8502,
      "duration": 0.0227,
      "velocity": 127,
      "chip": "ym2612"
    },
    {
      "channel": 4,
      "note": 92,
      "start": 28.851,
      "duration": 0.0249,
      "velocity": 79,
      "chip": "ym2612"
    },
    {
      "channel": 0,
      "note": 83,
      "start": 28.9959,
      "duration": 0.035,
      "velocity": 79,
      "chip": "ym2612"
    },
    {
      "channel": 3,
      "note": 64,
      "start": 28.9969,
      "duration": 0.0216,
      "velocity": 127,
      "chip": "ym2612"
    },
    {
      "channel": 4,
      "note": 91,
      "start": 28.9976,
      "duration": 0.0346,
      "velocity": 79,
      "chip": "ym2612"
    },
    {
      "channel": 0,
      "note": 84,
      "start": 29.0315,
      "duration": 0.0746,
      "velocity": 79,
      "chip": "ym2612"
    },
    {
      "channel": 4,
      "note": 92,
      "start": 29.0329,
      "duration": 0.0759,
      "velocity": 79,
      "chip": "ym2612"
    },
    {
      "channel": 0,
      "note": 83,
      "start": 29.1067,
      "duration": 0.1661,
      "velocity": 79,
      "chip": "ym2612"
    },
    {
      "channel": 1,
      "note": 45,
      "start": 29.1073,
      "duration": 0.2828,
      "velocity": 116,
      "chip": "ym2612"
    },
    {
      "channel": 2,
      "note": 76,
      "start": 29.108,
      "duration": 0.0987,
      "velocity": 127,
      "chip": "ym2612"
    },
    {
      "channel": 3,
      "note": 73,
      "start": 29.1087,
      "duration": 0.0983,
      "velocity": 127,
      "chip": "ym2612"
    },
    {
      "channel": 4,
      "note": 91,
      "start": 29.1094,
      "duration": 0.1649,
      "velocity": 79,
      "chip": "ym2612"
    },
    {
      "channel": 0,
      "note": 82,
      "start": 29.2734,
      "duration": 0.1161,
      "velocity": 79,
      "chip": "ym2612"
    },
    {
      "channel": 4,
      "note": 90,
      "start": 29.275,
      "duration": 0.1165,
      "velocity": 79,
      "chip": "ym2612"
    },
    {
      "channel": 0,
      "note": 81,
      "start": 29.39,
      "duration": 0.1161,
      "velocity": 79,
      "chip": "ym2612"
    },
    {
      "channel": 3,
      "note": 69,
      "start": 29.3912,
      "duration": 0.099,
      "velocity": 127,
      "chip": "ym2612"
    },
    {
      "channel": 4,
      "note": 89,
      "start": 29.392,
      "duration": 0.115,
      "velocity": 79,
      "chip": "ym2612"
    },
    {
      "channel": 0,
      "note": 80,
      "start": 29.657,
      "duration": 0.0261,
      "velocity": 79,
      "chip": "ym2612"
    },
    {
      "channel": 2,
      "note": 76,
      "start": 29.6577,
      "duration": 0.023,
      "velocity": 127,
      "chip": "ym2612"
    },
    {
      "channel": 3,
      "note": 73,
      "start": 29.6583,
      "duration": 0.0225,
      "velocity": 127,
      "chip": "ym2612"
    },
    {
      "channel": 4,
      "note": 88,
      "start": 29.659,
      "duration": 0.0249,
      "velocity": 79,
      "chip": "ym2612"
    },
    {
      "channel": 0,
      "note": 79,
      "start": 29.7813,
      "duration": 0.1271,
      "velocity": 79,
      "chip": "ym2612"
    },
    {
      "channel": 3,
      "note": 64,
      "start": 29.7823,
      "duration": 0.0216,
      "velocity": 127,
      "chip": "ym2612"
    },
    {
      "channel": 4,
      "note": 87,
      "start": 29.783,
      "duration": 0.1275,
      "velocity": 79,
      "chip": "ym2612"
    },
    {
      "channel": 0,
      "note": 78,
      "start": 29.909,
      "duration": 0.0261,
      "velocity": 79,
      "chip": "ym2612"
    },
    {
      "channel": 2,
      "note": 76,
      "start": 29.9097,
      "duration": 0.0231,
      "velocity": 127,
      "chip": "ym2612"
    },
    {
      "channel": 3,
      "note": 73,
      "start": 29.9104,
      "duration": 0.0226,
      "velocity": 127,
      "chip": "ym2612"
    },
    {
      "channel": 4,
      "note": 86,
      "start": 29.9111,
      "duration": 0.0249,
      "velocity": 79,
      "chip": "ym2612"
    },
    {
      "channel": 1,
      "note": 45,
      "start": 30.0205,
      "duration": 0.1241,
      "velocity": 116,
      "chip": "ym2612"
    },
    {
      "channel": 3,
      "note": 69,
      "start": 30.0259,
      "duration": 0.0196,
      "velocity": 127,
      "chip": "ym2612"
    },
    {
      "channel": 0,
      "note": 72,
      "start": 30.1445,
      "duration": 0.0262,
      "velocity": 79,
      "chip": "ym2612"
    },
    {
      "channel": 2,
      "note": 76,
      "start": 30.1454,
      "duration": 0.023,
      "velocity": 127,
      "chip": "ym2612"
    },
    {
      "channel": 3,
      "note": 73,
      "start": 30.1461,
      "duration": 0.0225,
      "velocity": 127,
      "chip": "ym2612"
    },
    {
      "channel": 4,
      "note": 79,
      "start": 30.1468,
      "duration": 0.0247,
      "velocity": 79,
      "chip": "ym2612"
    },
    {
      "channel": 3,
      "note": 64,
      "start": 30.3088,
      "duration": 0.0196,
      "velocity": 127,
      "chip": "ym2612"
    },
    {
      "channel": 4,
      "note": 74,
      "start": 30.3095,
      "duration": 0.028,
      "velocity": 79,
      "chip": "ym2612"
    },
    {
      "channel": 4,
      "note": 76,
      "start": 30.338,
      "duration": 0.0826,
      "velocity": 79,
      "chip": "ym2612"
    },
    {
      "channel": 1,
      "note": 45,
      "start": 30.4192,
      "duration": 0.2835,
      "velocity": 116,
      "chip": "ym2612"
    },
    {
      "channel": 2,
      "note": 76,
      "start": 30.4198,
      "duration": 0.0991,
      "velocity": 127,
      "chip": "ym2612"
    },
    {
      "channel": 3,
      "note": 73,
      "start": 30.4205,
      "duration": 0.0986,
      "velocity": 127,
      "chip": "ym2612"
    },
    {
      "channel": 4,
      "note": 74,
      "start": 30.4212,
      "duration": 0.1149,
      "velocity": 79,
      "chip": "ym2612"
    },
    {
      "channel": 0,
      "note": 69,
      "start": 30.7025,
      "duration": 0.0994,
      "velocity": 79,
      "chip": "ym2612"
    },
    {
      "channel": 3,
      "note": 69,
      "start": 30.7038,
      "duration": 0.0988,
      "velocity": 127,
      "chip": "ym2612"
    },
    {
      "channel": 4,
      "note": 76,
      "start": 30.7045,
      "duration": 0.0982,
      "velocity": 79,
      "chip": "ym2612"
    },
    {
      "channel": 2,
      "note": 76,
      "start": 30.9695,
      "duration": 0.0211,
      "velocity": 127,
      "chip": "ym2612"
    },
    {
      "channel": 3,
      "note": 73,
      "start": 30.9702,
      "duration": 0.0206,
      "velocity": 127,
      "chip": "ym2612"
    },
    {
      "channel": 4,
      "note": 74,
      "start": 30.9709,
      "duration": 0.029,
      "velocity": 79,
      "chip": "ym2612"
    },
    {
      "channel": 4,
      "note": 76,
      "start": 31.0004,
      "duration": 0.0941,
      "velocity": 79,
      "chip": "ym2612"
    },
    {
      "channel": 3,
      "note": 64,
      "start": 31.0945,
      "duration": 0.0195,
      "velocity": 127,
      "chip": "ym2612"
    },
    {
      "channel": 4,
      "note": 74,
      "start": 31.0952,
      "duration": 0.0309,
      "velocity": 79,
      "chip": "ym2612"
    },
    {
      "channel": 4,
      "note": 79,
      "start": 31.1267,
      "duration": 0.0957,
      "velocity": 79,
      "chip": "ym2612"
    },
    {
      "channel": 2,
      "note": 76,
      "start": 31.2216,
      "duration": 0.0211,
      "velocity": 127,
      "chip": "ym2612"
    },
    {
      "channel": 3,
      "note": 73,
      "start": 31.2222,
      "duration": 0.0205,
      "velocity": 127,
      "chip": "ym2612"
    },
    {
      "channel": 4,
      "note": 76,
      "start": 31.223,
      "duration": 0.0199,
      "velocity": 79,
      "chip": "ym2612"
    },
    {
      "channel": 0,
      "note": 88,
      "start": 31.3348,
      "duration": 0.0287,
      "velocity": 85,
      "chip": "ym2612"
    },
    {
      "channel": 1,
      "note": 52,
      "start": 31.3356,
      "duration": 0.0309,
      "velocity": 116,
      "chip": "ym2612"
    },
    {
      "channel": 0,
      "note": 87,
      "start": 31.4571,
      "duration": 0.0283,
      "velocity": 85,
      "chip": "ym2612"
    },
    {
      "channel": 1,
      "note": 52,
      "start": 31.4578,
      "duration": 0.0314,
      "velocity": 116,
      "chip": "ym2612"
    },
    {
      "channel": 2,
      "note": 71,
      "start": 31.4584,
      "duration": 0.1627,
      "velocity": 79,
      "chip": "ym2612"
    },
    {
      "channel": 3,
      "note": 62,
      "start": 31.459,
      "duration": 0.1624,
      "velocity": 79,
      "chip": "ym2612"
    },
    {
      "channel": 4,
      "note": 78,
      "start": 31.4598,
      "duration": 0.1623,
      "velocity": 79,
      "chip": "ym2612"
    },
    {
      "channel": 0,
      "note": 86,
      "start": 31.621,
      "duration": 0.0294,
      "velocity": 85,
      "chip": "ym2612"
    },
    {
      "channel": 3,
      "note": 52,
      "start": 31.622,
      "duration": 0.0298,
      "velocity": 79,
      "chip": "ym2612"
    },
    {
      "channel": 0,
      "note": 87,
      "start": 31.6509,
      "duration": 0.0803,
      "velocity": 85,
      "chip": "ym2612"
    },
    {
      "channel": 2,
      "note": 71,
      "start": 31.6517,
      "duration": 0.0804,
      "velocity": 79,
      "chip": "ym2612"
    },
    {
      "channel": 3,
      "note": 62,
      "start": 31.6523,
      "duration": 0.08,
      "velocity": 79,
      "chip": "ym2612"
    },
    {
      "channel": 4,
      "note": 78,
      "start": 31.6531,
      "duration": 0.0795,
      "velocity": 79,
      "chip": "ym2612"
    },
    {
      "channel": 0,
      "note": 86,
      "start": 31.7318,
      "duration": 0.1494,
      "velocity": 85,
      "chip": "ym2612"
    },
    {
      "channel": 0,
      "note": 85,
      "start": 31.8818,
      "duration": 0.1161,
      "velocity": 85,
      "chip": "ym2612"
    },
    {
      "channel": 3,
      "note": 52,
      "start": 31.8826,
      "duration": 0.1167,
      "velocity": 79,
      "chip": "ym2612"
    },
    {
      "channel": 0,
      "note": 84,
      "start": 31.9984,
      "duration": 0.1161,
      "velocity": 85,
      "chip": "ym2612"
    },
    {
      "channel": 2,
      "note": 71,
      "start": 31.9991,
      "duration": 0.1157,
      "velocity": 79,
      "chip": "ym2612"
    },
    {
      "channel": 3,
      "note": 62,
      "start": 31.9998,
      "duration": 0.1154,
      "velocity": 79,
      "chip": "ym2612"
    },
    {
      "channel": 0,
      "note": 83,
      "start": 32.282,
      "duration": 0.0185,
      "velocity": 85,
      "chip": "ym2612"
    },
    {
      "channel": 1,
      "note": 52,
      "start": 32.2827,
      "duration": 0.2614,
      "velocity": 116,
      "chip": "ym2612"
    },
    {
      "channel": 0,
      "note": 82,
      "start": 32.4065,
      "duration": 0.0296,
      "velocity": 85,
      "chip": "ym2612"
    },
    {
      "channel": 3,
      "note": 62,
      "start": 32.4074,
      "duration": 0.0297,
      "velocity": 79,
      "chip": "ym2612"
    },
    {
      "channel": 0,
      "note": 83,
      "start": 32.4367,
      "duration": 0.0803,
      "velocity": 85,
      "chip": "ym2612"
    },
    {
      "channel": 3,
      "note": 64,
      "start": 32.4376,
      "duration": 0.0804,
      "velocity": 79,
      "chip": "ym2612"
    },
    {
      "channel": 0,
      "note": 82,
      "start": 32.5176,
      "duration": 0.0322,
      "velocity": 85,
      "chip": "ym2612"
    },
    {
      "channel": 3,
      "note": 62,
      "start": 32.5185,
      "duration": 0.0321,
      "velocity": 79,
      "chip": "ym2612"
    },
    {
      "channel": 0,
      "note": 81,
      "start": 32.5504,
      "duration": 0.0945,
      "velocity": 85,
      "chip": "ym2612"
    },
    {
      "channel": 3,
      "note": 57,
      "start": 32.5512,
      "duration": 0.0954,
      "velocity": 79,
      "chip": "ym2612"
    },
    {
      "channel": 0,
      "note": 80,
      "start": 32.6455,
      "duration": 0.0217,
      "velocity": 85,
      "chip": "ym2612"
    },
    {
      "channel": 1,
      "note": 52,
      "start": 32.6462,
      "duration": 0.0271,
      "velocity": 116,
      "chip": "ym2612"
    },
    {
      "channel": 3,
      "note": 45,
      "start": 32.6471,
      "duration": 0.0207,
      "velocity": 79,
      "chip": "ym2612"
    },
    {
      "channel": 0,
      "note": 79,
      "start": 32.7699,
      "duration": 0.0256,
      "velocity": 85,
      "chip": "ym2612"
    },
    {
      "channel": 1,
      "note": 52,
      "start": 32.7705,
      "duration": 0.6739,
      "velocity": 116,
      "chip": "ym2612"
    },
    {
      "channel": 2,
      "note": 64,
      "start": 32.7712,
      "duration": 0.1463,
      "velocity": 79,
      "chip": "ym2612"
    },
    {
      "channel": 4,
      "note": 74,
      "start": 32.772,
      "duration": 0.1465,
      "velocity": 79,
      "chip": "ym2612"
    },
    {
      "channel": 0,
      "note": 79,
      "start": 32.9171,
      "duration": 0.034,
      "velocity": 85,
      "chip": "ym2612"
    },
    {
      "channel": 3,
      "note": 57,
      "start": 32.9183,
      "duration": 0.0242,
      "velocity": 79,
      "chip": "ym2612"
    },
    {
      "channel": 0,
      "note": 80,
      "start": 32.9517,
      "duration": 0.0923,
      "velocity": 85,
      "chip": "ym2612"
    },
    {
      "channel": 2,
      "note": 64,
      "start": 32.9527,
      "duration": 0.0924,
      "velocity": 79,
      "chip": "ym2612"
    },
    {
      "channel": 4,
      "note": 74,
      "start": 32.9534,
      "duration": 0.0922,
      "velocity": 79,
      "chip": "ym2612"
    },
    {
      "channel": 0,
      "note": 81,
      "start": 33.0446,
      "duration": 0.1494,
      "velocity": 85,
      "chip": "ym2612"
    },
    {
      "channel": 0,
      "note": 82,
      "start": 33.1946,
      "duration": 0.1161,
      "velocity": 85,
      "chip": "ym2612"
    },
    {
      "channel": 3,
      "note": 57,
      "start": 33.1956,
      "duration": 0.1167,
      "velocity": 79,
      "chip": "ym2612"
    },
    {
      "channel": 0,
      "note": 83,
      "start": 33.3113,
      "duration": 0.5184,
      "velocity": 85,
      "chip": "ym2612"
    },
    {
      "channel": 2,
      "note": 64,
      "start": 33.3123,
      "duration": 0.1158,
      "velocity": 79,
      "chip": "ym2612"
    },
    {
      "channel": 4,
      "note": 73,
      "start": 33.3133,
      "duration": 0.1151,
      "velocity": 79,
      "chip": "ym2612"
    },
    {
      "channel": 1,
      "note": 52,
      "start": 33.5785,
      "duration": 0.1406,
      "velocity": 116,
      "chip": "ym2612"
    },
    {
      "channel": 3,
      "note": 52,
      "start": 33.608,
      "duration": 0.1117,
      "velocity": 79,
      "chip": "ym2612"
    },
    {
      "channel": 1,
      "note": 50,
      "start": 33.7196,
      "duration": 0.1105,
      "velocity": 116,
      "chip": "ym2612"
    },
    {
      "channel": 3,
      "note": 55,
      "start": 33.7203,
      "duration": 0.0293,
      "velocity": 79,
      "chip": "ym2612"
    },
    {
      "channel": 3,
      "note": 57,
      "start": 33.7501,
      "duration": 0.0806,
      "velocity": 79,
      "chip": "ym2612"
    },
    {
      "channel": 1,
      "note": 51,
      "start": 33.8305,
      "duration": 0.1115,
      "velocity": 116,
      "chip": "ym2612"
    },
    {
      "channel": 3,
      "note": 55,
      "start": 33.8312,
      "duration": 0.0305,
      "velocity": 79,
      "chip": "ym2612"
    },
    {
      "channel": 0,
      "note": 83,
      "start": 33.8516,
      "duration": 0.0893,
      "velocity": 85,
      "chip": "ym2612"
    },
    {
      "channel": 3,
      "note": 52,
      "start": 33.8622,
      "duration": 0.0856,
      "velocity": 79,
      "chip": "ym2612"
    },
    {
      "channel": 0,
      "note": 88,
      "start": 33.9416,
      "duration": 0.0293,
      "velocity": 85,
      "chip": "ym2612"
    },
    {
      "channel": 1,
      "note": 52,
      "start": 33.9425,
      "duration": 0.0315,
      "velocity": 116,
      "chip": "ym2612"
    },
    {
      "channel": 0,
      "note": 87,
      "start": 34.0826,
      "duration": 0.0245,
      "velocity": 85,
      "chip": "ym2612"
    },
    {
      "channel": 1,
      "note": 52,
      "start": 34.0833,
      "duration": 0.031,
      "velocity": 116,
      "chip": "ym2612"
    },
    {
      "channel": 2,
      "note": 71,
      "start": 34.0839,
      "duration": 0.1461,
      "velocity": 79,
      "chip": "ym2612"
    },
    {
      "channel": 3,
      "note": 62,
      "start": 34.0845,
      "duration": 0.1457,
      "velocity": 79,
      "chip": "ym2612"
    },
    {
      "channel": 4,
      "note": 78,
      "start": 34.0853,
      "duration": 0.1456,
      "velocity": 79,
      "chip": "ym2612"
    },
    {
      "channel": 0,
      "note": 86,
      "start": 34.2298,
      "duration": 0.0324,
      "velocity": 85,
      "chip": "ym2612"
    },
    {
      "channel": 3,
      "note": 52,
      "start": 34.2308,
      "duration": 0.0329,
      "velocity": 79,
      "chip": "ym2612"
    },
    {
      "channel": 0,
      "note": 87,
      "start": 34.2628,
      "duration": 0.0772,
      "velocity": 85,
      "chip": "ym2612"
    },
    {
      "channel": 2,
      "note": 71,
      "start": 34.2636,
      "duration": 0.0773,
      "velocity": 79,
      "chip": "ym2612"
    },
    {
      "channel": 3,
      "note": 62,
      "start": 34.2642,
      "duration": 0.0769,
      "velocity": 79,
      "chip": "ym2612"
    },
    {
      "channel": 4,
      "note": 78,
      "start": 34.265,
      "duration": 0.0764,
      "velocity": 79,
      "chip": "ym2612"
    },
    {
      "channel": 0,
      "note": 86,
      "start": 34.3406,
      "duration": 0.1661,
      "velocity": 85,
      "chip": "ym2612"
    },
    {
      "channel": 0,
      "note": 85,
      "start": 34.5072,
      "duration": 0.1161,
      "velocity": 85,
      "chip": "ym2612"
    },
    {
      "channel": 3,
      "note": 52,
      "start": 34.5081,
      "duration": 0.1167,
      "velocity": 79,
      "chip": "ym2612"
    },
    {
      "channel": 0,
      "note": 84,
      "start": 34.6239,
      "duration": 0.0994,
      "velocity": 85,
      "chip": "ym2612"
    },
    {
      "channel": 2,
      "note": 71,
      "start": 34.6246,
      "duration": 0.099,
      "velocity": 79,
      "chip": "ym2612"
    },
    {
      "channel": 3,
      "note": 62,
      "start": 34.6252,
      "duration": 0.0987,
      "velocity": 79,
      "chip": "ym2612"
    },
    {
      "channel": 0,
      "note": 83,
      "start": 34.8908,
      "duration": 0.0216,
      "velocity": 85,
      "chip": "ym2612"
    },
    {
      "channel": 1,
      "note": 52,
      "start": 34.8915,
      "duration": 0.278,
      "velocity": 116,
      "chip": "ym2612"
    },
    {
      "channel": 0,
      "note": 82,
      "start": 35.0152,
      "duration": 0.0329,
      "velocity": 85,
      "chip": "ym2612"
    },
    {
      "channel": 3,
      "note": 62,
      "start": 35.0163,
      "duration": 0.0329,
      "velocity": 79,
      "chip": "ym2612"
    },
    {
      "channel": 0,
      "note": 83,
      "start": 35.0488,
      "duration": 0.0937,
      "velocity": 85,
      "chip": "ym2612"
    },
    {
      "channel": 3,
      "note": 64,
      "start": 35.0497,
      "duration": 0.0938,
      "velocity": 79,
      "chip": "ym2612"
    },
    {
      "channel": 0,
      "note": 82,
      "start": 35.143,
      "duration": 0.0292,
      "velocity": 85,
      "chip": "ym2612"
    },
    {
      "channel": 3,
      "note": 62,
      "start": 35.144,
      "duration": 0.0291,
      "velocity": 79,
      "chip": "ym2612"
    },
    {
      "channel": 0,
      "note": 81,
      "start": 35.1728,
      "duration": 0.0808,
      "velocity": 85,
      "chip": "ym2612"
    },
    {
      "channel": 3,
      "note": 57,
      "start": 35.1736,
      "duration": 0.0817,
      "velocity": 79,
      "chip": "ym2612"
    },
    {
      "channel": 0,
      "note": 80,
      "start": 35.2542,
      "duration": 0.0251,
      "velocity": 85,
      "chip": "ym2612"
    },
    {
      "channel": 1,
      "note": 52,
      "start": 35.2549,
      "duration": 0.0275,
      "velocity": 116,
      "chip": "ym2612"
    },
    {
      "channel": 3,
      "note": 45,
      "start": 35.2558,
      "duration": 0.0241,
      "velocity": 79,
      "chip": "ym2612"
    },
    {
      "channel": 0,
      "note": 79,
      "start": 35.3785,
      "duration": 0.0259,
      "velocity": 85,
      "chip": "ym2612"
    },
    {
      "channel": 1,
      "note": 52,
      "start": 35.3792,
      "duration": 0.6904,
      "velocity": 116,
      "chip": "ym2612"
    },
    {
      "channel": 2,
      "note": 64,
      "start": 35.3798,
      "duration": 0.163,
      "velocity": 79,
      "chip": "ym2612"
    },
    {
      "channel": 4,
      "note": 74,
      "start": 35.3806,
      "duration": 0.1632,
      "velocity": 79,
      "chip": "ym2612"
    },
    {
      "channel": 0,
      "note": 78,
      "start": 35.5424,
      "duration": 0.0308,
      "velocity": 85,
      "chip": "ym2612"
    },
    {
      "channel": 3,
      "note": 57,
      "start": 35.5437,
      "duration": 0.024,
      "velocity": 79,
      "chip": "ym2612"
    },
    {
      "channel": 0,
      "note": 79,
      "start": 35.5738,
      "duration": 0.0787,
      "velocity": 85,
      "chip": "ym2612"
    },
    {
      "channel": 2,
      "note": 64,
      "start": 35.5748,
      "duration": 0.0788,
      "velocity": 79,
      "chip": "ym2612"
    },
    {
      "channel": 4,
      "note": 74,
      "start": 35.5755,
      "duration": 0.0786,
      "velocity": 79,
      "chip": "ym2612"
    },
    {
      "channel": 0,
      "note": 78,
      "start": 35.6531,
      "duration": 0.1661,
      "velocity": 85,
      "chip": "ym2612"
    },
    {
      "channel": 0,
      "note": 77,
      "start": 35.8198,
      "duration": 0.0994,
      "velocity": 85,
      "chip": "ym2612"
    },
    {
      "channel": 3,
      "note": 57,
      "start": 35.8208,
      "duration": 0.1001,
      "velocity": 79,
      "chip": "ym2612"
    },
    {
      "channel": 0,
      "note": 76,
      "start": 35.9198,
      "duration": 0.5185,
      "velocity": 85,
      "chip": "ym2612"
    },
    {
      "channel": 2,
      "note": 64,
      "start": 35.9207,
      "duration": 0.1158,
      "velocity": 79,
      "chip": "ym2612"
    },
    {
      "channel": 4,
      "note": 73,
      "start": 35.9217,
      "duration": 0.1151,
      "velocity": 79,
      "chip": "ym2612"
    },
    {
      "channel": 1,
      "note": 52,
      "start": 36.2036,
      "duration": 0.1239,
      "velocity": 116,
      "chip": "ym2612"
    },
    {
      "channel": 3,
      "note": 52,
      "start": 36.23,
      "duration": 0.0983,
      "velocity": 79,
      "chip": "ym2612"
    },
    {
      "channel": 1,
      "note": 50,
      "start": 36.3281,
      "duration": 0.1105,
      "velocity": 116,
      "chip": "ym2612"
    },
    {
      "channel": 3,
      "note": 55,
      "start": 36.3288,
      "duration": 0.0326,
      "velocity": 79,
      "chip": "ym2612"
    },
    {
      "channel": 3,
      "note": 57,
      "start": 36.3619,
      "duration": 0.0774,
      "velocity": 79,
      "chip": "ym2612"
    },
    {
      "channel": 1,
      "note": 51,
      "start": 36.4391,
      "duration": 0.128,
      "velocity": 116,
      "chip": "ym2612"
    },
    {
      "channel": 3,
      "note": 55,
      "start": 36.4398,
      "duration": 0.0305,
      "velocity": 79,
      "chip": "ym2612"
    },
    {
      "channel": 0,
      "note": 83,
      "start": 36.4601,
      "duration": 0.1061,
      "velocity": 85,
      "chip": "ym2612"
    },
    {
      "channel": 3,
      "note": 52,
      "start": 36.4708,
      "duration": 0.0976,
      "velocity": 79,
      "chip": "ym2612"
    },
    {
      "channel": 0,
      "note": 88,
      "start": 36.5668,
      "duration": 0.03,
      "velocity": 85,
      "chip": "ym2612"
    },
    {
      "channel": 1,
      "note": 52,
      "start": 36.5676,
      "duration": 0.0265,
      "velocity": 116,
      "chip": "ym2612"
    },
    {
      "channel": 0,
      "note": 87,
      "start": 36.6911,
      "duration": 0.0463,
      "velocity": 85,
      "chip": "ym2612"
    },
    {
      "channel": 1,
      "note": 52,
      "start": 36.6917,
      "duration": 0.0318,
      "velocity": 116,
      "chip": "ym2612"
    },
    {
      "channel": 2,
      "note": 71,
      "start": 36.6924,
      "duration": 0.1461,
      "velocity": 79,
      "chip": "ym2612"
    },
    {
      "channel": 3,
      "note": 62,
      "start": 36.693,
      "duration": 0.1458,
      "velocity": 79,
      "chip": "ym2612"
    },
    {
      "channel": 4,
      "note": 78,
      "start": 36.6937,
      "duration": 0.1457,
      "velocity": 79,
      "chip": "ym2612"
    },
    {
      "channel": 0,
      "note": 86,
      "start": 36.8383,
      "duration": 0.0328,
      "velocity": 85,
      "chip": "ym2612"
    },
    {
      "channel": 3,
      "note": 52,
      "start": 36.8393,
      "duration": 0.0333,
      "velocity": 79,
      "chip": "ym2612"
    },
    {
      "channel": 0,
      "note": 87,
      "start": 36.8717,
      "duration": 0.0936,
      "velocity": 85,
      "chip": "ym2612"
    },
    {
      "channel": 2,
      "note": 71,
      "start": 36.8724,
      "duration": 0.0936,
      "velocity": 79,
      "chip": "ym2612"
    },
    {
      "channel": 3,
      "note": 62,
      "start": 36.8731,
      "duration": 0.0932,
      "velocity": 79,
      "chip": "ym2612"
    },
    {
      "channel": 4,
      "note": 78,
      "start": 36.8739,
      "duration": 0.0928,
      "velocity": 79,
      "chip": "ym2612"
    },
    {
      "channel": 0,
      "note": 86,
      "start": 36.9658,
      "duration": 0.1494,
      "velocity": 85,
      "chip": "ym2612"
    },
    {
      "channel": 0,
      "note": 85,
      "start": 37.1158,
      "duration": 0.1161,
      "velocity": 85,
      "chip": "ym2612"
    },
    {
      "channel": 3,
      "note": 52,
      "start": 37.1166,
      "duration": 0.1167,
      "velocity": 79,
      "chip": "ym2612"
    },
    {
      "channel": 0,
      "note": 84,
      "start": 37.2325,
      "duration": 0.1661,
      "velocity": 85,
      "chip": "ym2612"
    },
    {
      "channel": 2,
      "note": 71,
      "start": 37.2332,
      "duration": 0.1158,
      "velocity": 79,
      "chip": "ym2612"
    },
    {
      "channel": 3,
      "note": 62,
      "start": 37.2339,
      "duration": 0.1155,
      "velocity": 79,
      "chip": "ym2612"
    },
    {
      "channel": 4,
      "note": 78,
      "start": 37.2346,
      "duration": 0.115,
      "velocity": 79,
      "chip": "ym2612"
    },
    {
      "channel": 0,
      "note": 83,
      "start": 37.4994,
      "duration": 0.0304,
      "velocity": 85,
      "chip": "ym2612"
    },
    {
      "channel": 1,
      "note": 52,
      "start": 37.5,
      "duration": 0.2781,
      "velocity": 116,
      "chip": "ym2612"
    },
    {
      "channel": 0,
      "note": 82,
      "start": 37.6406,
      "duration": 0.0296,
      "velocity": 85,
      "chip": "ym2612"
    },
    {
      "channel": 3,
      "note": 62,
      "start": 37.6415,
      "duration": 0.0297,
      "velocity": 79,
      "chip": "ym2612"
    },
    {
      "channel": 0,
      "note": 83,
      "start": 37.6708,
      "duration": 0.0803,
      "velocity": 85,
      "chip": "ym2612"
    },
    {
      "channel": 3,
      "note": 64,
      "start": 37.6717,
      "duration": 0.0804,
      "velocity": 79,
      "chip": "ym2612"
    },
    {
      "channel": 0,
      "note": 82,
      "start": 37.7517,
      "duration": 0.0322,
      "velocity": 85,
      "chip": "ym2612"
    },
    {
      "channel": 3,
      "note": 62,
      "start": 37.7527,
      "duration": 0.0321,
      "velocity": 79,
      "chip": "ym2612"
    },
    {
      "channel": 0,
      "note": 81,
      "start": 37.7845,
      "duration": 0.0801,
      "velocity": 112,
      "chip": "ym2612"
    },
    {
      "channel": 3,
      "note": 57,
      "start": 37.7853,
      "duration": 0.088,
      "velocity": 112,
      "chip": "ym2612"
    },
    {
      "channel": 0,
      "note": 69,
      "start": 37.8653,
      "duration": 0.1285,
      "velocity": 112,
      "chip": "ym2612"
    },
    {
      "channel": 1,
      "note": 81,
      "start": 37.8681,
      "duration": 0.1264,
      "velocity": 112,
      "chip": "ym2612"
    },
    {
      "channel": 2,
      "note": 81,
      "start": 37.871,
      "duration": 0.1243,
      "velocity": 112,
      "chip": "ym2612"
    },
    {
      "channel": 3,
      "note": 81,
      "start": 37.8739,
      "duration": 0.1222,
      "velocity": 112,
      "chip": "ym2612"
    },
    {
      "channel": 4,
      "note": 93,
      "start": 37.8769,
      "duration": 0.1198,
      "velocity": 112,
      "chip": "ym2612"
    },
    {
      "channel": 0,
      "note": 63,
      "start": 37.9943,
      "duration": 0.0223,
      "velocity": 112,
      "chip": "ym2612"
    },
    {
      "channel": 1,
      "note": 75,
      "start": 37.9951,
      "duration": 0.0217,
      "velocity": 112,
      "chip": "ym2612"
    },
    {
      "channel": 2,
      "note": 75,
      "start": 37.9958,
      "duration": 0.0211,
      "velocity": 112,
      "chip": "ym2612"
    },
    {
      "channel": 3,
      "note": 75,
      "start": 37.9966,
      "duration": 0.0205,
      "velocity": 112,
      "chip": "ym2612"
    },
    {
      "channel": 4,
      "note": 87,
      "start": 37.9974,
      "duration": 0.0198,
      "velocity": 112,
      "chip": "ym2612"
    },
    {
      "channel": 0,
      "note": 68,
      "start": 38.0332,
      "duration": 0.022,
      "velocity": 112,
      "chip": "ym2612"
    },
    {
      "channel": 1,
      "note": 80,
      "start": 38.0339,
      "duration": 0.0215,
      "velocity": 112,
      "chip": "ym2612"
    },
    {
      "channel": 2,
      "note": 80,
      "start": 38.0345,
      "duration": 0.0209,
      "velocity": 112,
      "chip": "ym2612"
    },
    {
      "channel": 3,
      "note": 80,
      "start": 38.0352,
      "duration": 0.0204,
      "velocity": 112,
      "chip": "ym2612"
    },
    {
      "channel": 4,
      "note": 92,
      "start": 38.0359,
      "duration": 0.0198,
      "velocity": 112,
      "chip": "ym2612"
    },
    {
      "channel": 0,
      "note": 73,
      "start": 38.0718,
      "duration": 0.051,
      "velocity": 112,
      "chip": "ym2612"
    },
    {
      "channel": 1,
      "note": 85,
      "start": 38.0724,
      "duration": 0.0505,
      "velocity": 112,
      "chip": "ym2612"
    },
    {
      "channel": 2,
      "note": 85,
      "start": 38.0732,
      "duration": 0.05,
      "velocity": 112,
      "chip": "ym2612"
    },
    {
      "channel": 3,
      "note": 85,
      "start": 38.0738,
      "duration": 0.0495,
      "velocity": 112,
      "chip": "ym2612"
    },
    {
      "channel": 4,
      "note": 97,
      "start": 38.0746,
      "duration": 0.0489,
      "velocity": 112,
      "chip": "ym2612"
    },
    {
      "channel": 0,
      "note": 72,
      "start": 38.2067,
      "duration": 0.0995,
      "velocity": 112,
      "chip": "ym2612"
    },
    {
      "channel": 1,
      "note": 84,
      "start": 38.2073,
      "duration": 0.099,
      "velocity": 112,
      "chip": "ym2612"
    },
    {
      "channel": 2,
      "note": 84,
      "start": 38.208,
      "duration": 0.0984,
      "velocity": 112,
      "chip": "ym2612"
    },
    {
      "channel": 3,
      "note": 84,
      "start": 38.2087,
      "duration": 0.0979,
      "velocity": 112,
      "chip": "ym2612"
    },
    {
      "channel": 4,
      "note": 96,
      "start": 38.2094,
      "duration": 0.0973,
      "velocity": 112,
      "chip": "ym2612"
    },
    {
      "channel": 0,
      "note": 66,
      "start": 38.39,
      "duration": 0.0995,
      "velocity": 112,
      "chip": "ym2612"
    },
    {
      "channel": 1,
      "note": 78,
      "start": 38.3907,
      "duration": 0.099,
      "velocity": 112,
      "chip": "ym2612"
    },
    {
      "channel": 2,
      "note": 78,
      "start": 38.3913,
      "duration": 0.0985,
      "velocity": 112,
      "chip": "ym2612"
    },
    {
      "channel": 3,
      "note": 78,
      "start": 38.392,
      "duration": 0.0979,
      "velocity": 112,
      "chip": "ym2612"
    },
    {
      "channel": 4,
      "note": 90,
      "start": 38.3927,
      "duration": 0.0974,
      "velocity": 112,
      "chip": "ym2612"
    },
    {
      "channel": 0,
      "note": 71,
      "start": 38.5734,
      "duration": 0.0994,
      "velocity": 112,
      "chip": "ym2612"
    },
    {
      "channel": 1,
      "note": 83,
      "start": 38.574,
      "duration": 0.0989,
      "velocity": 112,
      "chip": "ym2612"
    },
    {
      "channel": 2,
      "note": 83,
      "start": 38.5747,
      "duration": 0.0983,
      "velocity": 112,
      "chip": "ym2612"
    },
    {
      "channel": 3,
      "note": 83,
      "start": 38.5753,
      "duration": 0.0978,
      "velocity": 112,
      "chip": "ym2612"
    },
    {
      "channel": 4,
      "note": 95,
      "start": 38.5761,
      "duration": 0.0972,
      "velocity": 112,
      "chip": "ym2612"
    },
    {
      "channel": 0,
      "note": 70,
      "start": 38.7567,
      "duration": 0.0994,
      "velocity": 112,
      "chip": "ym2612"
    },
    {
      "channel": 1,
      "note": 82,
      "start": 38.7574,
      "duration": 0.0989,
      "velocity": 112,
      "chip": "ym2612"
    },
    {
      "channel": 2,
      "note": 82,
      "start": 38.758,
      "duration": 0.0983,
      "velocity": 112,
      "chip": "ym2612"
    },
    {
      "channel": 3,
      "note": 82,
      "start": 38.7587,
      "duration": 0.0978,
      "velocity": 112,
      "chip": "ym2612"
    },
    {
      "channel": 4,
      "note": 94,
      "start": 38.7594,
      "duration": 0.0972,
      "velocity": 112,
      "chip": "ym2612"
    },
    {
      "channel": 0,
      "note": 69,
      "start": 39.2903,
      "duration": 0.1196,
      "velocity": 112,
      "chip": "ym2612"
    },
    {
      "channel": 1,
      "note": 81,
      "start": 39.2911,
      "duration": 0.1191,
      "velocity": 112,
      "chip": "ym2612"
    },
    {
      "channel": 2,
      "note": 81,
      "start": 39.2919,
      "duration": 0.1186,
      "velocity": 112,
      "chip": "ym2612"
    },
    {
      "channel": 3,
      "note": 81,
      "start": 39.2926,
      "duration": 0.1183,
      "velocity": 112,
      "chip": "ym2612"
    },
    {
      "channel": 4,
      "note": 93,
      "start": 39.2935,
      "duration": 0.1177,
      "velocity": 112,
      "chip": "ym2612"
    },
    {
      "channel": 1,
      "note": 45,
      "start": 40.9239,
      "duration": 26.595,
      "velocity": 116,
      "chip": "ym2612"
    }
  ]
}