{
  "track_name": "07 - Battle with The Leader",
  "duration_sec": 40.677,
  "sample_rate": 44100,
  "note_count": 1296,
  "unique_pitches": 34,
  "pitch_range": 74,
  "avg_note_duration": 0.1523,
  "reconstruction_stats": {
    "notes_reconstructed": 1296,
    "keyon_events": 1296,
    "keyoff_events": 1208,
    "orphan_keyons": 5,
    "unique_pitches": 34,
    "pitch_range": 74,
    "avg_duration_sec": 0.1523
  },
  "metadata": {
    "source": "T\\The Incredible Hulk\\07 - Battle with The Leader.vgz"
  },
  "notes": [
    {
      "channel": 0,
      "note": 69,
      "start": 0.0022,
      "duration": 0.1148,
      "velocity": 104,
      "chip": "ym2612"
    },
    {
      "channel": 2,
      "note": 67,
      "start": 0.0045,
      "duration": 0.2293,
      "velocity": 104,
      "chip": "ym2612"
    },
    {
      "channel": 0,
      "note": 81,
      "start": 0.1172,
      "duration": 0.2498,
      "velocity": 104,
      "chip": "ym2612"
    },
    {
      "channel": 2,
      "note": 69,
      "start": 0.2339,
      "duration": 0.1337,
      "velocity": 104,
      "chip": "ym2612"
    },
    {
      "channel": 0,
      "note": 69,
      "start": 0.3672,
      "duration": 0.1165,
      "velocity": 104,
      "chip": "ym2612"
    },
    {
      "channel": 2,
      "note": 81,
      "start": 0.3678,
      "duration": 0.2326,
      "velocity": 104,
      "chip": "ym2612"
    },
    {
      "channel": 0,
      "note": 70,
      "start": 0.4838,
      "duration": 0.2332,
      "velocity": 104,
      "chip": "ym2612"
    },
    {
      "channel": 2,
      "note": 69,
      "start": 0.6006,
      "duration": 0.1171,
      "velocity": 104,
      "chip": "ym2612"
    },
    {
      "channel": 0,
      "note": 82,
      "start": 0.7172,
      "duration": 0.1165,
      "velocity": 104,
      "chip": "ym2612"
    },
    {
      "channel": 2,
      "note": 70,
      "start": 0.7178,
      "duration": 0.2494,
      "velocity": 104,
      "chip": "ym2612"
    },
    {
      "channel": 0,
      "note": 67,
      "start": 0.8338,
      "duration": 0.2499,
      "velocity": 104,
      "chip": "ym2612"
    },
    {
      "channel": 2,
      "note": 82,
      "start": 0.9673,
      "duration": 0.1171,
      "velocity": 104,
      "chip": "ym2612"
    },
    {
      "channel": 0,
      "note": 79,
      "start": 1.0839,
      "duration": 0.1165,
      "velocity": 104,
      "chip": "ym2612"
    },
    {
      "channel": 2,
      "note": 67,
      "start": 1.0845,
      "duration": 0.2326,
      "velocity": 104,
      "chip": "ym2612"
    },
    {
      "channel": 0,
      "note": 67,
      "start": 1.2005,
      "duration": 0.2332,
      "velocity": 104,
      "chip": "ym2612"
    },
    {
      "channel": 2,
      "note": 79,
      "start": 1.3173,
      "duration": 0.1171,
      "velocity": 104,
      "chip": "ym2612"
    },
    {
      "channel": 0,
      "note": 79,
      "start": 1.4339,
      "duration": 0.2498,
      "velocity": 104,
      "chip": "ym2612"
    },
    {
      "channel": 2,
      "note": 67,
      "start": 1.4344,
      "duration": 0.2499,
      "velocity": 104,
      "chip": "ym2612"
    },
    {
      "channel": 0,
      "note": 67,
      "start": 1.6839,
      "duration": 0.2333,
      "velocity": 104,
      "chip": "ym2612"
    },
    {
      "channel": 2,
      "note": 79,
      "start": 1.6844,
      "duration": 0.2355,
      "velocity": 104,
      "chip": "ym2612"
    },
    {
      "channel": 0,
      "note": 69,
      "start": 1.9174,
      "duration": 0.0877,
      "velocity": 104,
      "chip": "ym2612"
    },
    {
      "channel": 1,
      "note": 64,
      "start": 1.9195,
      "duration": 0.0862,
      "velocity": 104,
      "chip": "ym2612"
    },
    {
      "channel": 2,
      "note": 67,
      "start": 1.9201,
      "duration": 0.1984,
      "velocity": 104,
      "chip": "ym2612"
    },
    {
      "channel": 3,
      "note": 62,
      "start": 1.9222,
      "duration": 0.1968,
      "velocity": 104,
      "chip": "ym2612"
    },
    {
      "channel": 4,
      "note": 98,
      "start": 1.9244,
      "duration": 0.082,
      "velocity": 127,
      "chip": "ym2612"
    },
    {
      "channel": 0,
      "note": 81,
      "start": 2.0053,
      "duration": 0.2298,
      "velocity": 104,
      "chip": "ym2612"
    },
    {
      "channel": 1,
      "note": 76,
      "start": 2.0058,
      "duration": 0.2298,
      "velocity": 104,
      "chip": "ym2612"
    },
    {
      "channel": 4,
      "note": 98,
      "start": 2.0065,
      "duration": 0.1131,
      "velocity": 127,
      "chip": "ym2612"
    },
    {
      "channel": 2,
      "note": 69,
      "start": 2.1187,
      "duration": 0.1176,
      "velocity": 104,
      "chip": "ym2612"
    },
    {
      "channel": 3,
      "note": 64,
      "start": 2.1192,
      "duration": 0.1176,
      "velocity": 104,
      "chip": "ym2612"
    },
    {
      "channel": 4,
      "note": 98,
      "start": 2.1198,
      "duration": 0.1176,
      "velocity": 127,
      "chip": "ym2612"
    },
    {
      "channel": 0,
      "note": 69,
      "start": 2.2353,
      "duration": 0.1165,
      "velocity": 104,
      "chip": "ym2612"
    },
    {
      "channel": 1,
      "note": 64,
      "start": 2.2358,
      "duration": 0.1165,
      "velocity": 104,
      "chip": "ym2612"
    },
    {
      "channel": 2,
      "note": 81,
      "start": 2.2364,
      "duration": 0.2022,
      "velocity": 104,
      "chip": "ym2612"
    },
    {
      "channel": 3,
      "note": 76,
      "start": 2.237,
      "duration": 0.2022,
      "velocity": 104,
      "chip": "ym2612"
    },
    {
      "channel": 4,
      "note": 98,
      "start": 2.2375,
      "duration": 0.1171,
      "velocity": 119,
      "chip": "ym2612"
    },
    {
      "channel": 0,
      "note": 70,
      "start": 2.3519,
      "duration": 0.1834,
      "velocity": 104,
      "chip": "ym2612"
    },
    {
      "channel": 1,
      "note": 65,
      "start": 2.3525,
      "duration": 0.1834,
      "velocity": 104,
      "chip": "ym2612"
    },
    {
      "channel": 4,
      "note": 31,
      "start": 2.3547,
      "duration": 0.0866,
      "velocity": 127,
      "chip": "ym2612"
    },
    {
      "channel": 2,
      "note": 69,
      "start": 2.4389,
      "duration": 0.0976,
      "velocity": 104,
      "chip": "ym2612"
    },
    {
      "channel": 3,
      "note": 64,
      "start": 2.4394,
      "duration": 0.0976,
      "velocity": 104,
      "chip": "ym2612"
    },
    {
      "channel": 4,
      "note": 98,
      "start": 2.4415,
      "duration": 0.0961,
      "velocity": 127,
      "chip": "ym2612"
    },
    {
      "channel": 0,
      "note": 82,
      "start": 2.5355,
      "duration": 0.1332,
      "velocity": 104,
      "chip": "ym2612"
    },
    {
      "channel": 1,
      "note": 77,
      "start": 2.5361,
      "duration": 0.1331,
      "velocity": 104,
      "chip": "ym2612"
    },
    {
      "channel": 2,
      "note": 70,
      "start": 2.5367,
      "duration": 0.2488,
      "velocity": 104,
      "chip": "ym2612"
    },
    {
      "channel": 3,
      "note": 65,
      "start": 2.5372,
      "duration": 0.2488,
      "velocity": 104,
      "chip": "ym2612"
    },
    {
      "channel": 4,
      "note": 98,
      "start": 2.5377,
      "duration": 0.1321,
      "velocity": 127,
      "chip": "ym2612"
    },
    {
      "channel": 0,
      "note": 67,
      "start": 2.6688,
      "duration": 0.2042,
      "velocity": 104,
      "chip": "ym2612"
    },
    {
      "channel": 1,
      "note": 62,
      "start": 2.6693,
      "duration": 0.2042,
      "velocity": 104,
      "chip": "ym2612"
    },
    {
      "channel": 4,
      "note": 98,
      "start": 2.67,
      "duration": 0.1166,
      "velocity": 127,
      "chip": "ym2612"
    },
    {
      "channel": 2,
      "note": 82,
      "start": 2.7856,
      "duration": 0.0885,
      "velocity": 104,
      "chip": "ym2612"
    },
    {
      "channel": 3,
      "note": 77,
      "start": 2.7862,
      "duration": 0.0885,
      "velocity": 104,
      "chip": "ym2612"
    },
    {
      "channel": 4,
      "note": 98,
      "start": 2.7867,
      "duration": 0.0885,
      "velocity": 127,
      "chip": "ym2612"
    },
    {
      "channel": 0,
      "note": 79,
      "start": 2.8732,
      "duration": 0.0986,
      "velocity": 104,
      "chip": "ym2612"
    },
    {
      "channel": 1,
      "note": 74,
      "start": 2.8737,
      "duration": 0.0985,
      "velocity": 104,
      "chip": "ym2612"
    },
    {
      "channel": 2,
      "note": 67,
      "start": 2.8743,
      "duration": 0.2142,
      "velocity": 104,
      "chip": "ym2612"
    },
    {
      "channel": 3,
      "note": 62,
      "start": 2.8748,
      "duration": 0.2143,
      "velocity": 104,
      "chip": "ym2612"
    },
    {
      "channel": 4,
      "note": 98,
      "start": 2.8754,
      "duration": 0.0976,
      "velocity": 127,
      "chip": "ym2612"
    },
    {
      "channel": 0,
      "note": 67,
      "start": 2.9719,
      "duration": 0.2499,
      "velocity": 104,
      "chip": "ym2612"
    },
    {
      "channel": 1,
      "note": 62,
      "start": 2.9724,
      "duration": 0.25,
      "velocity": 104,
      "chip": "ym2612"
    },
    {
      "channel": 4,
      "note": 98,
      "start": 2.9732,
      "duration": 0.1165,
      "velocity": 127,
      "chip": "ym2612"
    },
    {
      "channel": 2,
      "note": 79,
      "start": 3.0887,
      "duration": 0.1342,
      "velocity": 104,
      "chip": "ym2612"
    },
    {
      "channel": 3,
      "note": 74,
      "start": 3.0893,
      "duration": 0.1342,
      "velocity": 104,
      "chip": "ym2612"
    },
    {
      "channel": 4,
      "note": 98,
      "start": 3.0898,
      "duration": 0.1358,
      "velocity": 119,
      "chip": "ym2612"
    },
    {
      "channel": 0,
      "note": 79,
      "start": 3.222,
      "duration": 0.1831,
      "velocity": 104,
      "chip": "ym2612"
    },
    {
      "channel": 1,
      "note": 74,
      "start": 3.2225,
      "duration": 0.1832,
      "velocity": 104,
      "chip": "ym2612"
    },
    {
      "channel": 2,
      "note": 67,
      "start": 3.2231,
      "duration": 0.1831,
      "velocity": 104,
      "chip": "ym2612"
    },
    {
      "channel": 3,
      "note": 62,
      "start": 3.2237,
      "duration": 0.1831,
      "velocity": 104,
      "chip": "ym2612"
    },
    {
      "channel": 4,
      "note": 31,
      "start": 3.2258,
      "duration": 0.0843,
      "velocity": 127,
      "chip": "ym2612"
    },
    {
      "channel": 4,
      "note": 98,
      "start": 3.3104,
      "duration": 0.097,
      "velocity": 127,
      "chip": "ym2612"
    },
    {
      "channel": 0,
      "note": 67,
      "start": 3.4053,
      "duration": 0.2332,
      "velocity": 104,
      "chip": "ym2612"
    },
    {
      "channel": 1,
      "note": 62,
      "start": 3.4059,
      "duration": 0.2332,
      "velocity": 104,
      "chip": "ym2612"
    },
    {
      "channel": 2,
      "note": 79,
      "start": 3.4064,
      "duration": 0.2332,
      "velocity": 104,
      "chip": "ym2612"
    },
    {
      "channel": 3,
      "note": 74,
      "start": 3.4069,
      "duration": 0.2332,
      "velocity": 104,
      "chip": "ym2612"
    },
    {
      "channel": 4,
      "note": 98,
      "start": 3.4075,
      "duration": 0.1144,
      "velocity": 127,
      "chip": "ym2612"
    },
    {
      "channel": 4,
      "note": 98,
      "start": 3.5221,
      "duration": 0.1186,
      "velocity": 127,
      "chip": "ym2612"
    },
    {
      "channel": 0,
      "note": 69,
      "start": 3.6387,
      "duration": 0.0986,
      "velocity": 104,
      "chip": "ym2612"
    },
    {
      "channel": 1,
      "note": 64,
      "start": 3.6392,
      "duration": 0.0986,
      "velocity": 104,
      "chip": "ym2612"
    },
    {
      "channel": 2,
      "note": 67,
      "start": 3.6398,
      "duration": 0.2016,
      "velocity": 104,
      "chip": "ym2612"
    },
    {
      "channel": 3,
      "note": 62,
      "start": 3.6403,
      "duration": 0.2015,
      "velocity": 104,
      "chip": "ym2612"
    },
    {
      "channel": 4,
      "note": 98,
      "start": 3.6409,
      "duration": 0.0976,
      "velocity": 127,
      "chip": "ym2612"
    },
    {
      "channel": 0,
      "note": 81,
      "start": 3.7374,
      "duration": 0.2205,
      "velocity": 104,
      "chip": "ym2612"
    },
    {
      "channel": 1,
      "note": 76,
      "start": 3.7379,
      "duration": 0.2205,
      "velocity": 104,
      "chip": "ym2612"
    },
    {
      "channel": 4,
      "note": 98,
      "start": 3.7386,
      "duration": 0.1038,
      "velocity": 127,
      "chip": "ym2612"
    },
    {
      "channel": 2,
      "note": 69,
      "start": 3.8415,
      "duration": 0.1176,
      "velocity": 104,
      "chip": "ym2612"
    },
    {
      "channel": 3,
      "note": 64,
      "start": 3.8421,
      "duration": 0.1176,
      "velocity": 104,
      "chip": "ym2612"
    },
    {
      "channel": 4,
      "note": 98,
      "start": 3.8426,
      "duration": 0.1175,
      "velocity": 127,
      "chip": "ym2612"
    },
    {
      "channel": 0,
      "note": 69,
      "start": 3.9581,
      "duration": 0.1165,
      "velocity": 104,
      "chip": "ym2612"
    },
    {
      "channel": 1,
      "note": 64,
      "start": 3.9587,
      "duration": 0.1165,
      "velocity": 104,
      "chip": "ym2612"
    },
    {
      "channel": 2,
      "note": 81,
      "start": 3.9592,
      "duration": 0.2022,
      "velocity": 104,
      "chip": "ym2612"
    },
    {
      "channel": 3,
      "note": 76,
      "start": 3.9598,
      "duration": 0.2022,
      "velocity": 104,
      "chip": "ym2612"
    },
    {
      "channel": 4,
      "note": 98,
      "start": 3.9603,
      "duration": 0.1171,
      "velocity": 119,
      "chip": "ym2612"
    },
    {
      "channel": 0,
      "note": 70,
      "start": 4.0748,
      "duration": 0.1999,
      "velocity": 104,
      "chip": "ym2612"
    },
    {
      "channel": 1,
      "note": 65,
      "start": 4.0753,
      "duration": 0.1999,
      "velocity": 104,
      "chip": "ym2612"
    },
    {
      "channel": 4,
      "note": 31,
      "start": 4.0776,
      "duration": 0.0865,
      "velocity": 127,
      "chip": "ym2612"
    },
    {
      "channel": 2,
      "note": 69,
      "start": 4.1615,
      "duration": 0.1142,
      "velocity": 104,
      "chip": "ym2612"
    },
    {
      "channel": 3,
      "note": 64,
      "start": 4.1621,
      "duration": 0.1142,
      "velocity": 104,
      "chip": "ym2612"
    },
    {
      "channel": 4,
      "note": 98,
      "start": 4.1642,
      "duration": 0.1127,
      "velocity": 127,
      "chip": "ym2612"
    },
    {
      "channel": 0,
      "note": 82,
      "start": 4.2748,
      "duration": 0.1165,
      "velocity": 104,
      "chip": "ym2612"
    },
    {
      "channel": 1,
      "note": 77,
      "start": 4.2754,
      "duration": 0.1164,
      "velocity": 104,
      "chip": "ym2612"
    },
    {
      "channel": 2,
      "note": 70,
      "start": 4.2759,
      "duration": 0.2321,
      "velocity": 104,
      "chip": "ym2612"
    },
    {
      "channel": 3,
      "note": 65,
      "start": 4.2765,
      "duration": 0.2321,
      "velocity": 104,
      "chip": "ym2612"
    },
    {
      "channel": 4,
      "note": 98,
      "start": 4.277,
      "duration": 0.1155,
      "velocity": 127,
      "chip": "ym2612"
    },
    {
      "channel": 0,
      "note": 67,
      "start": 4.3914,
      "duration": 0.2043,
      "velocity": 104,
      "chip": "ym2612"
    },
    {
      "channel": 1,
      "note": 62,
      "start": 4.392,
      "duration": 0.2043,
      "velocity": 104,
      "chip": "ym2612"
    },
    {
      "channel": 4,
      "note": 98,
      "start": 4.3927,
      "duration": 0.1165,
      "velocity": 127,
      "chip": "ym2612"
    },
    {
      "channel": 2,
      "note": 82,
      "start": 4.5083,
      "duration": 0.0886,
      "velocity": 104,
      "chip": "ym2612"
    },
    {
      "channel": 3,
      "note": 77,
      "start": 4.5088,
      "duration": 0.0886,
      "velocity": 104,
      "chip": "ym2612"
    },
    {
      "channel": 4,
      "note": 98,
      "start": 4.5093,
      "duration": 0.0886,
      "velocity": 127,
      "chip": "ym2612"
    },
    {
      "channel": 0,
      "note": 79,
      "start": 4.5959,
      "duration": 0.0993,
      "velocity": 104,
      "chip": "ym2612"
    },
    {
      "channel": 1,
      "note": 74,
      "start": 4.5964,
      "duration": 0.0992,
      "velocity": 104,
      "chip": "ym2612"
    },
    {
      "channel": 2,
      "note": 67,
      "start": 4.597,
      "duration": 0.2316,
      "velocity": 104,
      "chip": "ym2612"
    },
    {
      "channel": 3,
      "note": 62,
      "start": 4.5975,
      "duration": 0.2316,
      "velocity": 104,
      "chip": "ym2612"
    },
    {
      "channel": 4,
      "note": 98,
      "start": 4.5981,
      "duration": 0.0983,
      "velocity": 127,
      "chip": "ym2612"
    },
    {
      "channel": 0,
      "note": 67,
      "start": 4.6953,
      "duration": 0.2499,
      "velocity": 104,
      "chip": "ym2612"
    },
    {
      "channel": 1,
      "note": 62,
      "start": 4.6958,
      "duration": 0.25,
      "velocity": 104,
      "chip": "ym2612"
    },
    {
      "channel": 4,
      "note": 98,
      "start": 4.6965,
      "duration": 0.1332,
      "velocity": 127,
      "chip": "ym2612"
    },
    {
      "channel": 2,
      "note": 79,
      "start": 4.8287,
      "duration": 0.1176,
      "velocity": 104,
      "chip": "ym2612"
    },
    {
      "channel": 3,
      "note": 74,
      "start": 4.8293,
      "duration": 0.1176,
      "velocity": 104,
      "chip": "ym2612"
    },
    {
      "channel": 4,
      "note": 98,
      "start": 4.8299,
      "duration": 0.1192,
      "velocity": 119,
      "chip": "ym2612"
    },
    {
      "channel": 0,
      "note": 79,
      "start": 4.9454,
      "duration": 0.1835,
      "velocity": 104,
      "chip": "ym2612"
    },
    {
      "channel": 1,
      "note": 74,
      "start": 4.946,
      "duration": 0.1834,
      "velocity": 104,
      "chip": "ym2612"
    },
    {
      "channel": 2,
      "note": 67,
      "start": 4.9465,
      "duration": 0.1835,
      "velocity": 104,
      "chip": "ym2612"
    },
    {
      "channel": 3,
      "note": 62,
      "start": 4.9471,
      "duration": 0.1835,
      "velocity": 104,
      "chip": "ym2612"
    },
    {
      "channel": 4,
      "note": 31,
      "start": 4.9492,
      "duration": 0.0851,
      "velocity": 127,
      "chip": "ym2612"
    },
    {
      "channel": 4,
      "note": 98,
      "start": 5.0345,
      "duration": 0.0966,
      "velocity": 127,
      "chip": "ym2612"
    },
    {
      "channel": 0,
      "note": 67,
      "start": 5.129,
      "duration": 0.2499,
      "velocity": 104,
      "chip": "ym2612"
    },
    {
      "channel": 1,
      "note": 62,
      "start": 5.1296,
      "duration": 0.25,
      "velocity": 104,
      "chip": "ym2612"
    },
    {
      "channel": 2,
      "note": 79,
      "start": 5.1302,
      "duration": 0.25,
      "velocity": 104,
      "chip": "ym2612"
    },
    {
      "channel": 3,
      "note": 74,
      "start": 5.1307,
      "duration": 0.2501,
      "velocity": 104,
      "chip": "ym2612"
    },
    {
      "channel": 4,
      "note": 98,
      "start": 5.1312,
      "duration": 0.1144,
      "velocity": 127,
      "chip": "ym2612"
    },
    {
      "channel": 4,
      "note": 98,
      "start": 5.2458,
      "duration": 0.1356,
      "velocity": 127,
      "chip": "ym2612"
    },
    {
      "channel": 0,
      "note": 69,
      "start": 5.3791,
      "duration": 0.0861,
      "velocity": 104,
      "chip": "ym2612"
    },
    {
      "channel": 1,
      "note": 64,
      "start": 5.3798,
      "duration": 0.0861,
      "velocity": 104,
      "chip": "ym2612"
    },
    {
      "channel": 2,
      "note": 67,
      "start": 5.3803,
      "duration": 0.183,
      "velocity": 104,
      "chip": "ym2612"
    },
    {
      "channel": 3,
      "note": 62,
      "start": 5.381,
      "duration": 0.1829,
      "velocity": 104,
      "chip": "ym2612"
    },
    {
      "channel": 4,
      "note": 98,
      "start": 5.3816,
      "duration": 0.0849,
      "velocity": 127,
      "chip": "ym2612"
    },
    {
      "channel": 0,
      "note": 81,
      "start": 5.4654,
      "duration": 0.1853,
      "velocity": 104,
      "chip": "ym2612"
    },
    {
      "channel": 1,
      "note": 76,
      "start": 5.466,
      "duration": 0.1853,
      "velocity": 104,
      "chip": "ym2612"
    },
    {
      "channel": 4,
      "note": 98,
      "start": 5.4666,
      "duration": 0.0978,
      "velocity": 127,
      "chip": "ym2612"
    },
    {
      "channel": 2,
      "note": 69,
      "start": 5.5635,
      "duration": 0.0884,
      "velocity": 104,
      "chip": "ym2612"
    },
    {
      "channel": 3,
      "note": 64,
      "start": 5.5641,
      "duration": 0.0884,
      "velocity": 104,
      "chip": "ym2612"
    },
    {
      "channel": 4,
      "note": 98,
      "start": 5.5646,
      "duration": 0.0884,
      "velocity": 127,
      "chip": "ym2612"
    },
    {
      "channel": 0,
      "note": 69,
      "start": 5.651,
      "duration": 0.0848,
      "velocity": 104,
      "chip": "ym2612"
    },
    {
      "channel": 1,
      "note": 64,
      "start": 5.6515,
      "duration": 0.0847,
      "velocity": 104,
      "chip": "ym2612"
    },
    {
      "channel": 2,
      "note": 81,
      "start": 5.652,
      "duration": 0.183,
      "velocity": 104,
      "chip": "ym2612"
    },
    {
      "channel": 3,
      "note": 76,
      "start": 5.6526,
      "duration": 0.183,
      "velocity": 104,
      "chip": "ym2612"
    },
    {
      "channel": 4,
      "note": 98,
      "start": 5.6532,
      "duration": 0.0854,
      "velocity": 119,
      "chip": "ym2612"
    },
    {
      "channel": 0,
      "note": 70,
      "start": 5.7359,
      "duration": 0.1854,
      "velocity": 104,
      "chip": "ym2612"
    },
    {
      "channel": 1,
      "note": 65,
      "start": 5.7364,
      "duration": 0.1854,
      "velocity": 104,
      "chip": "ym2612"
    },
    {
      "channel": 4,
      "note": 31,
      "start": 5.7387,
      "duration": 0.099,
      "velocity": 127,
      "chip": "ym2612"
    },
    {
      "channel": 2,
      "note": 69,
      "start": 5.8353,
      "duration": 0.0871,
      "velocity": 104,
      "chip": "ym2612"
    },
    {
      "channel": 3,
      "note": 64,
      "start": 5.8358,
      "duration": 0.0871,
      "velocity": 104,
      "chip": "ym2612"
    },
    {
      "channel": 4,
      "note": 98,
      "start": 5.8379,
      "duration": 0.0856,
      "velocity": 127,
      "chip": "ym2612"
    },
    {
      "channel": 0,
      "note": 82,
      "start": 5.9215,
      "duration": 0.0859,
      "velocity": 104,
      "chip": "ym2612"
    },
    {
      "channel": 1,
      "note": 77,
      "start": 5.922,
      "duration": 0.0859,
      "velocity": 104,
      "chip": "ym2612"
    },
    {
      "channel": 2,
      "note": 70,
      "start": 5.9225,
      "duration": 0.1729,
      "velocity": 104,
      "chip": "ym2612"
    },
    {
      "channel": 3,
      "note": 65,
      "start": 5.9231,
      "duration": 0.1729,
      "velocity": 104,
      "chip": "ym2612"
    },
    {
      "channel": 4,
      "note": 98,
      "start": 5.9237,
      "duration": 0.085,
      "velocity": 127,
      "chip": "ym2612"
    },
    {
      "channel": 0,
      "note": 67,
      "start": 6.0076,
      "duration": 0.1728,
      "velocity": 104,
      "chip": "ym2612"
    },
    {
      "channel": 1,
      "note": 62,
      "start": 6.0081,
      "duration": 0.1728,
      "velocity": 104,
      "chip": "ym2612"
    },
    {
      "channel": 4,
      "note": 98,
      "start": 6.0088,
      "duration": 0.0878,
      "velocity": 127,
      "chip": "ym2612"
    },
    {
      "channel": 2,
      "note": 82,
      "start": 6.0956,
      "duration": 0.0858,
      "velocity": 104,
      "chip": "ym2612"
    },
    {
      "channel": 3,
      "note": 77,
      "start": 6.0962,
      "duration": 0.0858,
      "velocity": 104,
      "chip": "ym2612"
    },
    {
      "channel": 4,
      "note": 98,
      "start": 6.0968,
      "duration": 0.0858,
      "velocity": 127,
      "chip": "ym2612"
    },
    {
      "channel": 0,
      "note": 79,
      "start": 6.1805,
      "duration": 0.1159,
      "velocity": 104,
      "chip": "ym2612"
    },
    {
      "channel": 1,
      "note": 74,
      "start": 6.181,
      "duration": 0.1159,
      "velocity": 104,
      "chip": "ym2612"
    },
    {
      "channel": 2,
      "note": 67,
      "start": 6.1816,
      "duration": 0.2006,
      "velocity": 104,
      "chip": "ym2612"
    },
    {
      "channel": 3,
      "note": 62,
      "start": 6.1822,
      "duration": 0.2006,
      "velocity": 104,
      "chip": "ym2612"
    },
    {
      "channel": 4,
      "note": 98,
      "start": 6.1828,
      "duration": 0.1149,
      "velocity": 127,
      "chip": "ym2612"
    },
    {
      "channel": 0,
      "note": 67,
      "start": 6.2966,
      "duration": 0.1729,
      "velocity": 104,
      "chip": "ym2612"
    },
    {
      "channel": 1,
      "note": 62,
      "start": 6.2971,
      "duration": 0.1729,
      "velocity": 104,
      "chip": "ym2612"
    },
    {
      "channel": 4,
      "note": 98,
      "start": 6.2978,
      "duration": 0.0855,
      "velocity": 127,
      "chip": "ym2612"
    },
    {
      "channel": 2,
      "note": 79,
      "start": 6.3824,
      "duration": 0.0881,
      "velocity": 104,
      "chip": "ym2612"
    },
    {
      "channel": 3,
      "note": 74,
      "start": 6.3829,
      "duration": 0.0882,
      "velocity": 104,
      "chip": "ym2612"
    },
    {
      "channel": 4,
      "note": 98,
      "start": 6.3835,
      "duration": 0.0898,
      "velocity": 119,
      "chip": "ym2612"
    },
    {
      "channel": 0,
      "note": 79,
      "start": 6.4696,
      "duration": 0.1739,
      "velocity": 104,
      "chip": "ym2612"
    },
    {
      "channel": 1,
      "note": 74,
      "start": 6.4702,
      "duration": 0.1739,
      "velocity": 104,
      "chip": "ym2612"
    },
    {
      "channel": 2,
      "note": 67,
      "start": 6.4708,
      "duration": 0.1738,
      "velocity": 104,
      "chip": "ym2612"
    },
    {
      "channel": 3,
      "note": 62,
      "start": 6.4714,
      "duration": 0.1738,
      "velocity": 104,
      "chip": "ym2612"
    },
    {
      "channel": 4,
      "note": 31,
      "start": 6.4734,
      "duration": 0.0843,
      "velocity": 127,
      "chip": "ym2612"
    },
    {
      "channel": 4,
      "note": 98,
      "start": 6.5579,
      "duration": 0.0878,
      "velocity": 127,
      "chip": "ym2612"
    },
    {
      "channel": 0,
      "note": 67,
      "start": 6.6437,
      "duration": 0.1864,
      "velocity": 104,
      "chip": "ym2612"
    },
    {
      "channel": 1,
      "note": 62,
      "start": 6.6442,
      "duration": 0.1865,
      "velocity": 104,
      "chip": "ym2612"
    },
    {
      "channel": 2,
      "note": 79,
      "start": 6.6448,
      "duration": 0.1864,
      "velocity": 104,
      "chip": "ym2612"
    },
    {
      "channel": 3,
      "note": 74,
      "start": 6.6454,
      "duration": 0.1864,
      "velocity": 104,
      "chip": "ym2612"
    },
    {
      "channel": 4,
      "note": 98,
      "start": 6.6459,
      "duration": 0.098,
      "velocity": 127,
      "chip": "ym2612"
    },
    {
      "channel": 4,
      "note": 98,
      "start": 6.7441,
      "duration": 0.0883,
      "velocity": 127,
      "chip": "ym2612"
    },
    {
      "channel": 0,
      "note": 69,
      "start": 6.8303,
      "duration": 0.0866,
      "velocity": 104,
      "chip": "ym2612"
    },
    {
      "channel": 1,
      "note": 64,
      "start": 6.8308,
      "duration": 0.0866,
      "velocity": 104,
      "chip": "ym2612"
    },
    {
      "channel": 2,
      "note": 67,
      "start": 6.8314,
      "duration": 0.1852,
      "velocity": 104,
      "chip": "ym2612"
    },
    {
      "channel": 3,
      "note": 62,
      "start": 6.832,
      "duration": 0.1852,
      "velocity": 104,
      "chip": "ym2612"
    },
    {
      "channel": 4,
      "note": 98,
      "start": 6.8326,
      "duration": 0.0856,
      "velocity": 127,
      "chip": "ym2612"
    },
    {
      "channel": 0,
      "note": 81,
      "start": 6.9171,
      "duration": 0.187,
      "velocity": 104,
      "chip": "ym2612"
    },
    {
      "channel": 1,
      "note": 76,
      "start": 6.9177,
      "duration": 0.1871,
      "velocity": 104,
      "chip": "ym2612"
    },
    {
      "channel": 4,
      "note": 98,
      "start": 6.9183,
      "duration": 0.0994,
      "velocity": 127,
      "chip": "ym2612"
    },
    {
      "channel": 2,
      "note": 69,
      "start": 7.0168,
      "duration": 0.0885,
      "velocity": 104,
      "chip": "ym2612"
    },
    {
      "channel": 3,
      "note": 64,
      "start": 7.0173,
      "duration": 0.0885,
      "velocity": 104,
      "chip": "ym2612"
    },
    {
      "channel": 4,
      "note": 98,
      "start": 7.0179,
      "duration": 0.0885,
      "velocity": 127,
      "chip": "ym2612"
    },
    {
      "channel": 0,
      "note": 69,
      "start": 7.1043,
      "duration": 0.0974,
      "velocity": 104,
      "chip": "ym2612"
    },
    {
      "channel": 1,
      "note": 64,
      "start": 7.1049,
      "duration": 0.0974,
      "velocity": 104,
      "chip": "ym2612"
    },
    {
      "channel": 2,
      "note": 81,
      "start": 7.1054,
      "duration": 0.1833,
      "velocity": 104,
      "chip": "ym2612"
    },
    {
      "channel": 3,
      "note": 76,
      "start": 7.106,
      "duration": 0.1833,
      "velocity": 104,
      "chip": "ym2612"
    },
    {
      "channel": 4,
      "note": 98,
      "start": 7.1066,
      "duration": 0.0979,
      "velocity": 119,
      "chip": "ym2612"
    },
    {
      "channel": 0,
      "note": 70,
      "start": 7.2019,
      "duration": 0.1747,
      "velocity": 104,
      "chip": "ym2612"
    },
    {
      "channel": 1,
      "note": 65,
      "start": 7.2024,
      "duration": 0.1748,
      "velocity": 104,
      "chip": "ym2612"
    },
    {
      "channel": 4,
      "note": 31,
      "start": 7.2047,
      "duration": 0.0868,
      "velocity": 127,
      "chip": "ym2612"
    },
    {
      "channel": 2,
      "note": 69,
      "start": 7.2889,
      "duration": 0.0889,
      "velocity": 104,
      "chip": "ym2612"
    },
    {
      "channel": 3,
      "note": 64,
      "start": 7.2895,
      "duration": 0.0889,
      "velocity": 104,
      "chip": "ym2612"
    },
    {
      "channel": 4,
      "note": 98,
      "start": 7.2915,
      "duration": 0.0873,
      "velocity": 127,
      "chip": "ym2612"
    },
    {
      "channel": 0,
      "note": 82,
      "start": 7.3768,
      "duration": 0.0855,
      "velocity": 104,
      "chip": "ym2612"
    },
    {
      "channel": 1,
      "note": 77,
      "start": 7.3774,
      "duration": 0.0856,
      "velocity": 104,
      "chip": "ym2612"
    },
    {
      "channel": 2,
      "note": 70,
      "start": 7.3779,
      "duration": 0.17,
      "velocity": 104,
      "chip": "ym2612"
    },
    {
      "channel": 3,
      "note": 65,
      "start": 7.3785,
      "duration": 0.17,
      "velocity": 104,
      "chip": "ym2612"
    },
    {
      "channel": 4,
      "note": 98,
      "start": 7.379,
      "duration": 0.0845,
      "velocity": 127,
      "chip": "ym2612"
    },
    {
      "channel": 0,
      "note": 67,
      "start": 7.4626,
      "duration": 0.1826,
      "velocity": 104,
      "chip": "ym2612"
    },
    {
      "channel": 1,
      "note": 62,
      "start": 7.4631,
      "duration": 0.1827,
      "velocity": 104,
      "chip": "ym2612"
    },
    {
      "channel": 4,
      "note": 98,
      "start": 7.4638,
      "duration": 0.0852,
      "velocity": 127,
      "chip": "ym2612"
    },
    {
      "channel": 2,
      "note": 82,
      "start": 7.5481,
      "duration": 0.0982,
      "velocity": 104,
      "chip": "ym2612"
    },
    {
      "channel": 3,
      "note": 77,
      "start": 7.5486,
      "duration": 0.0983,
      "velocity": 104,
      "chip": "ym2612"
    },
    {
      "channel": 4,
      "note": 98,
      "start": 7.5491,
      "duration": 0.0983,
      "velocity": 127,
      "chip": "ym2612"
    },
    {
      "channel": 0,
      "note": 79,
      "start": 7.6454,
      "duration": 0.104,
      "velocity": 104,
      "chip": "ym2612"
    },
    {
      "channel": 1,
      "note": 74,
      "start": 7.6459,
      "duration": 0.104,
      "velocity": 104,
      "chip": "ym2612"
    },
    {
      "channel": 2,
      "note": 67,
      "start": 7.6464,
      "duration": 0.1895,
      "velocity": 104,
      "chip": "ym2612"
    },
    {
      "channel": 3,
      "note": 62,
      "start": 7.647,
      "duration": 0.1895,
      "velocity": 104,
      "chip": "ym2612"
    },
    {
      "channel": 4,
      "note": 98,
      "start": 7.6476,
      "duration": 0.103,
      "velocity": 127,
      "chip": "ym2612"
    },
    {
      "channel": 0,
      "note": 67,
      "start": 7.7495,
      "duration": 0.1723,
      "velocity": 104,
      "chip": "ym2612"
    },
    {
      "channel": 1,
      "note": 62,
      "start": 7.75,
      "duration": 0.1724,
      "velocity": 104,
      "chip": "ym2612"
    },
    {
      "channel": 4,
      "note": 98,
      "start": 7.7507,
      "duration": 0.0863,
      "velocity": 127,
      "chip": "ym2612"
    },
    {
      "channel": 2,
      "note": 79,
      "start": 7.8361,
      "duration": 0.0868,
      "velocity": 104,
      "chip": "ym2612"
    },
    {
      "channel": 3,
      "note": 74,
      "start": 7.8367,
      "duration": 0.0868,
      "velocity": 104,
      "chip": "ym2612"
    },
    {
      "channel": 4,
      "note": 98,
      "start": 7.8373,
      "duration": 0.0884,
      "velocity": 119,
      "chip": "ym2612"
    },
    {
      "channel": 0,
      "note": 79,
      "start": 7.922,
      "duration": 0.1862,
      "velocity": 104,
      "chip": "ym2612"
    },
    {
      "channel": 1,
      "note": 74,
      "start": 7.9226,
      "duration": 0.1862,
      "velocity": 104,
      "chip": "ym2612"
    },
    {
      "channel": 2,
      "note": 67,
      "start": 7.9232,
      "duration": 0.1862,
      "velocity": 104,
      "chip": "ym2612"
    },
    {
      "channel": 3,
      "note": 62,
      "start": 7.9237,
      "duration": 0.1862,
      "velocity": 104,
      "chip": "ym2612"
    },
    {
      "channel": 4,
      "note": 31,
      "start": 7.9258,
      "duration": 0.0841,
      "velocity": 127,
      "chip": "ym2612"
    },
    {
      "channel": 4,
      "note": 98,
      "start": 8.0101,
      "duration": 0.1004,
      "velocity": 127,
      "chip": "ym2612"
    },
    {
      "channel": 0,
      "note": 67,
      "start": 8.1084,
      "duration": 0.172,
      "velocity": 104,
      "chip": "ym2612"
    },
    {
      "channel": 1,
      "note": 62,
      "start": 8.109,
      "duration": 0.1721,
      "velocity": 104,
      "chip": "ym2612"
    },
    {
      "channel": 2,
      "note": 79,
      "start": 8.1095,
      "duration": 0.1721,
      "velocity": 104,
      "chip": "ym2612"
    },
    {
      "channel": 3,
      "note": 74,
      "start": 8.1101,
      "duration": 0.1722,
      "velocity": 104,
      "chip": "ym2612"
    },
    {
      "channel": 4,
      "note": 98,
      "start": 8.1107,
      "duration": 0.0839,
      "velocity": 127,
      "chip": "ym2612"
    },
    {
      "channel": 4,
      "note": 98,
      "start": 8.1947,
      "duration": 0.0882,
      "velocity": 127,
      "chip": "ym2612"
    },
    {
      "channel": 0,
      "note": 69,
      "start": 8.2806,
      "duration": 0.0872,
      "velocity": 104,
      "chip": "ym2612"
    },
    {
      "channel": 1,
      "note": 64,
      "start": 8.2812,
      "duration": 0.0873,
      "velocity": 104,
      "chip": "ym2612"
    },
    {
      "channel": 2,
      "note": 67,
      "start": 8.2818,
      "duration": 0.1844,
      "velocity": 104,
      "chip": "ym2612"
    },
    {
      "channel": 3,
      "note": 62,
      "start": 8.2825,
      "duration": 0.1843,
      "velocity": 104,
      "chip": "ym2612"
    },
    {
      "channel": 4,
      "note": 98,
      "start": 8.283,
      "duration": 0.0861,
      "velocity": 127,
      "chip": "ym2612"
    },
    {
      "channel": 0,
      "note": 81,
      "start": 8.3681,
      "duration": 0.1971,
      "velocity": 104,
      "chip": "ym2612"
    },
    {
      "channel": 1,
      "note": 76,
      "start": 8.3686,
      "duration": 0.1972,
      "velocity": 104,
      "chip": "ym2612"
    },
    {
      "channel": 4,
      "note": 98,
      "start": 8.3693,
      "duration": 0.0981,
      "velocity": 127,
      "chip": "ym2612"
    },
    {
      "channel": 2,
      "note": 69,
      "start": 8.4664,
      "duration": 0.0999,
      "velocity": 104,
      "chip": "ym2612"
    },
    {
      "channel": 3,
      "note": 64,
      "start": 8.467,
      "duration": 0.0999,
      "velocity": 104,
      "chip": "ym2612"
    },
    {
      "channel": 4,
      "note": 98,
      "start": 8.4676,
      "duration": 0.0999,
      "velocity": 127,
      "chip": "ym2612"
    },
    {
      "channel": 0,
      "note": 69,
      "start": 8.5654,
      "duration": 0.0861,
      "velocity": 104,
      "chip": "ym2612"
    },
    {
      "channel": 1,
      "note": 64,
      "start": 8.5659,
      "duration": 0.0861,
      "velocity": 104,
      "chip": "ym2612"
    },
    {
      "channel": 2,
      "note": 81,
      "start": 8.5665,
      "duration": 0.1724,
      "velocity": 104,
      "chip": "ym2612"
    },
    {
      "channel": 3,
      "note": 76,
      "start": 8.5671,
      "duration": 0.1724,
      "velocity": 104,
      "chip": "ym2612"
    },
    {
      "channel": 4,
      "note": 98,
      "start": 8.5676,
      "duration": 0.0866,
      "velocity": 119,
      "chip": "ym2612"
    },
    {
      "channel": 0,
      "note": 70,
      "start": 8.6517,
      "duration": 0.1752,
      "velocity": 104,
      "chip": "ym2612"
    },
    {
      "channel": 1,
      "note": 65,
      "start": 8.6522,
      "duration": 0.1751,
      "velocity": 104,
      "chip": "ym2612"
    },
    {
      "channel": 4,
      "note": 31,
      "start": 8.6544,
      "duration": 0.0872,
      "velocity": 127,
      "chip": "ym2612"
    },
    {
      "channel": 2,
      "note": 69,
      "start": 8.7391,
      "duration": 0.0888,
      "velocity": 104,
      "chip": "ym2612"
    },
    {
      "channel": 3,
      "note": 64,
      "start": 8.7397,
      "duration": 0.0888,
      "velocity": 104,
      "chip": "ym2612"
    },
    {
      "channel": 4,
      "note": 98,
      "start": 8.7418,
      "duration": 0.0872,
      "velocity": 127,
      "chip": "ym2612"
    },
    {
      "channel": 0,
      "note": 82,
      "start": 8.827,
      "duration": 0.0876,
      "velocity": 104,
      "chip": "ym2612"
    },
    {
      "channel": 1,
      "note": 77,
      "start": 8.8275,
      "duration": 0.0876,
      "velocity": 104,
      "chip": "ym2612"
    },
    {
      "channel": 2,
      "note": 70,
      "start": 8.8281,
      "duration": 0.1866,
      "velocity": 104,
      "chip": "ym2612"
    },
    {
      "channel": 3,
      "note": 65,
      "start": 8.8286,
      "duration": 0.1867,
      "velocity": 104,
      "chip": "ym2612"
    },
    {
      "channel": 4,
      "note": 98,
      "start": 8.8292,
      "duration": 0.0866,
      "velocity": 127,
      "chip": "ym2612"
    },
    {
      "channel": 0,
      "note": 67,
      "start": 8.9147,
      "duration": 0.1876,
      "velocity": 104,
      "chip": "ym2612"
    },
    {
      "channel": 1,
      "note": 62,
      "start": 8.9153,
      "duration": 0.1876,
      "velocity": 104,
      "chip": "ym2612"
    },
    {
      "channel": 4,
      "note": 98,
      "start": 8.9159,
      "duration": 0.0999,
      "velocity": 127,
      "chip": "ym2612"
    },
    {
      "channel": 2,
      "note": 82,
      "start": 9.0149,
      "duration": 0.0885,
      "velocity": 104,
      "chip": "ym2612"
    },
    {
      "channel": 3,
      "note": 77,
      "start": 9.0154,
      "duration": 0.0885,
      "velocity": 104,
      "chip": "ym2612"
    },
    {
      "channel": 4,
      "note": 98,
      "start": 9.016,
      "duration": 0.0886,
      "velocity": 127,
      "chip": "ym2612"
    },
    {
      "channel": 0,
      "note": 79,
      "start": 9.1025,
      "duration": 0.0985,
      "velocity": 104,
      "chip": "ym2612"
    },
    {
      "channel": 1,
      "note": 74,
      "start": 9.103,
      "duration": 0.0985,
      "velocity": 104,
      "chip": "ym2612"
    },
    {
      "channel": 2,
      "note": 67,
      "start": 9.1036,
      "duration": 0.1854,
      "velocity": 104,
      "chip": "ym2612"
    },
    {
      "channel": 3,
      "note": 62,
      "start": 9.1042,
      "duration": 0.1854,
      "velocity": 104,
      "chip": "ym2612"
    },
    {
      "channel": 4,
      "note": 98,
      "start": 9.1047,
      "duration": 0.0976,
      "velocity": 127,
      "chip": "ym2612"
    },
    {
      "channel": 0,
      "note": 67,
      "start": 9.2012,
      "duration": 0.1733,
      "velocity": 104,
      "chip": "ym2612"
    },
    {
      "channel": 1,
      "note": 62,
      "start": 9.2017,
      "duration": 0.1733,
      "velocity": 104,
      "chip": "ym2612"
    },
    {
      "channel": 4,
      "note": 98,
      "start": 9.2024,
      "duration": 0.0878,
      "velocity": 127,
      "chip": "ym2612"
    },
    {
      "channel": 2,
      "note": 79,
      "start": 9.2892,
      "duration": 0.0864,
      "velocity": 104,
      "chip": "ym2612"
    },
    {
      "channel": 3,
      "note": 74,
      "start": 9.2898,
      "duration": 0.0864,
      "velocity": 104,
      "chip": "ym2612"
    },
    {
      "channel": 4,
      "note": 98,
      "start": 9.2903,
      "duration": 0.0879,
      "velocity": 119,
      "chip": "ym2612"
    },
    {
      "channel": 0,
      "note": 79,
      "start": 9.3746,
      "duration": 0.1849,
      "velocity": 104,
      "chip": "ym2612"
    },
    {
      "channel": 1,
      "note": 74,
      "start": 9.3752,
      "duration": 0.1849,
      "velocity": 104,
      "chip": "ym2612"
    },
    {
      "channel": 2,
      "note": 67,
      "start": 9.3758,
      "duration": 0.1849,
      "velocity": 104,
      "chip": "ym2612"
    },
    {
      "channel": 3,
      "note": 62,
      "start": 9.3763,
      "duration": 0.1849,
      "velocity": 104,
      "chip": "ym2612"
    },
    {
      "channel": 4,
      "note": 31,
      "start": 9.3784,
      "duration": 0.0965,
      "velocity": 127,
      "chip": "ym2612"
    },
    {
      "channel": 4,
      "note": 98,
      "start": 9.4751,
      "duration": 0.0866,
      "velocity": 127,
      "chip": "ym2612"
    },
    {
      "channel": 0,
      "note": 67,
      "start": 9.5598,
      "duration": 0.1727,
      "velocity": 104,
      "chip": "ym2612"
    },
    {
      "channel": 1,
      "note": 62,
      "start": 9.5602,
      "duration": 0.1728,
      "velocity": 104,
      "chip": "ym2612"
    },
    {
      "channel": 2,
      "note": 79,
      "start": 9.5608,
      "duration": 0.1728,
      "velocity": 104,
      "chip": "ym2612"
    },
    {
      "channel": 3,
      "note": 74,
      "start": 9.5614,
      "duration": 0.1727,
      "velocity": 104,
      "chip": "ym2612"
    },
    {
      "channel": 4,
      "note": 98,
      "start": 9.562,
      "duration": 0.0849,
      "velocity": 127,
      "chip": "ym2612"
    },
    {
      "channel": 4,
      "note": 98,
      "start": 9.6471,
      "duration": 0.0876,
      "velocity": 127,
      "chip": "ym2612"
    },
    {
      "channel": 0,
      "note": 69,
      "start": 9.7327,
      "duration": 0.0852,
      "velocity": 104,
      "chip": "ym2612"
    },
    {
      "channel": 1,
      "note": 64,
      "start": 9.7332,
      "duration": 0.0852,
      "velocity": 104,
      "chip": "ym2612"
    },
    {
      "channel": 2,
      "note": 67,
      "start": 9.7338,
      "duration": 0.2004,
      "velocity": 104,
      "chip": "ym2612"
    },
    {
      "channel": 3,
      "note": 62,
      "start": 9.7343,
      "duration": 0.2004,
      "velocity": 104,
      "chip": "ym2612"
    },
    {
      "channel": 4,
      "note": 98,
      "start": 9.7349,
      "duration": 0.0843,
      "velocity": 127,
      "chip": "ym2612"
    },
    {
      "channel": 0,
      "note": 81,
      "start": 9.8181,
      "duration": 0.203,
      "velocity": 104,
      "chip": "ym2612"
    },
    {
      "channel": 1,
      "note": 76,
      "start": 9.8187,
      "duration": 0.2031,
      "velocity": 104,
      "chip": "ym2612"
    },
    {
      "channel": 4,
      "note": 98,
      "start": 9.8193,
      "duration": 0.116,
      "velocity": 127,
      "chip": "ym2612"
    },
    {
      "channel": 2,
      "note": 69,
      "start": 9.9343,
      "duration": 0.088,
      "velocity": 104,
      "chip": "ym2612"
    },
    {
      "channel": 3,
      "note": 64,
      "start": 9.9349,
      "duration": 0.088,
      "velocity": 104,
      "chip": "ym2612"
    },
    {
      "channel": 4,
      "note": 98,
      "start": 9.9354,
      "duration": 0.088,
      "velocity": 127,
      "chip": "ym2612"
    },
    {
      "channel": 0,
      "note": 69,
      "start": 10.0213,
      "duration": 0.086,
      "velocity": 104,
      "chip": "ym2612"
    },
    {
      "channel": 1,
      "note": 64,
      "start": 10.0219,
      "duration": 0.086,
      "velocity": 104,
      "chip": "ym2612"
    },
    {
      "channel": 2,
      "note": 81,
      "start": 10.0224,
      "duration": 0.1715,
      "velocity": 104,
      "chip": "ym2612"
    },
    {
      "channel": 3,
      "note": 76,
      "start": 10.023,
      "duration": 0.1714,
      "velocity": 104,
      "chip": "ym2612"
    },
    {
      "channel": 4,
      "note": 98,
      "start": 10.0236,
      "duration": 0.0866,
      "velocity": 119,
      "chip": "ym2612"
    },
    {
      "channel": 0,
      "note": 70,
      "start": 10.1076,
      "duration": 0.1723,
      "velocity": 104,
      "chip": "ym2612"
    },
    {
      "channel": 1,
      "note": 65,
      "start": 10.108,
      "duration": 0.1723,
      "velocity": 104,
      "chip": "ym2612"
    },
    {
      "channel": 4,
      "note": 31,
      "start": 10.1103,
      "duration": 0.0862,
      "velocity": 127,
      "chip": "ym2612"
    },
    {
      "channel": 2,
      "note": 69,
      "start": 10.194,
      "duration": 0.0869,
      "velocity": 104,
      "chip": "ym2612"
    },
    {
      "channel": 3,
      "note": 64,
      "start": 10.1946,
      "duration": 0.0869,
      "velocity": 104,
      "chip": "ym2612"
    },
    {
      "channel": 4,
      "note": 98,
      "start": 10.1968,
      "duration": 0.0853,
      "velocity": 127,
      "chip": "ym2612"
    },
    {
      "channel": 0,
      "note": 82,
      "start": 10.28,
      "duration": 0.1,
      "velocity": 104,
      "chip": "ym2612"
    },
    {
      "channel": 1,
      "note": 77,
      "start": 10.2806,
      "duration": 0.1,
      "velocity": 104,
      "chip": "ym2612"
    },
    {
      "channel": 2,
      "note": 70,
      "start": 10.2811,
      "duration": 0.1866,
      "velocity": 104,
      "chip": "ym2612"
    },
    {
      "channel": 3,
      "note": 65,
      "start": 10.2817,
      "duration": 0.1867,
      "velocity": 104,
      "chip": "ym2612"
    },
    {
      "channel": 4,
      "note": 98,
      "start": 10.2822,
      "duration": 0.0991,
      "velocity": 127,
      "chip": "ym2612"
    },
    {
      "channel": 0,
      "note": 67,
      "start": 10.3802,
      "duration": 0.1733,
      "velocity": 104,
      "chip": "ym2612"
    },
    {
      "channel": 1,
      "note": 62,
      "start": 10.3808,
      "duration": 0.1733,
      "velocity": 104,
      "chip": "ym2612"
    },
    {
      "channel": 4,
      "note": 98,
      "start": 10.3814,
      "duration": 0.0875,
      "velocity": 127,
      "chip": "ym2612"
    },
    {
      "channel": 2,
      "note": 82,
      "start": 10.468,
      "duration": 0.0867,
      "velocity": 104,
      "chip": "ym2612"
    },
    {
      "channel": 3,
      "note": 77,
      "start": 10.4685,
      "duration": 0.0867,
      "velocity": 104,
      "chip": "ym2612"
    },
    {
      "channel": 4,
      "note": 98,
      "start": 10.4691,
      "duration": 0.0867,
      "velocity": 127,
      "chip": "ym2612"
    },
    {
      "channel": 0,
      "note": 79,
      "start": 10.5537,
      "duration": 0.0986,
      "velocity": 104,
      "chip": "ym2612"
    },
    {
      "channel": 1,
      "note": 74,
      "start": 10.5543,
      "duration": 0.0986,
      "velocity": 104,
      "chip": "ym2612"
    },
    {
      "channel": 2,
      "note": 67,
      "start": 10.5549,
      "duration": 0.1853,
      "velocity": 104,
      "chip": "ym2612"
    },
    {
      "channel": 3,
      "note": 62,
      "start": 10.5554,
      "duration": 0.1853,
      "velocity": 104,
      "chip": "ym2612"
    },
    {
      "channel": 4,
      "note": 98,
      "start": 10.5559,
      "duration": 0.0976,
      "velocity": 127,
      "chip": "ym2612"
    },
    {
      "channel": 0,
      "note": 67,
      "start": 10.6525,
      "duration": 0.1864,
      "velocity": 104,
      "chip": "ym2612"
    },
    {
      "channel": 1,
      "note": 62,
      "start": 10.653,
      "duration": 0.1864,
      "velocity": 104,
      "chip": "ym2612"
    },
    {
      "channel": 4,
      "note": 98,
      "start": 10.6537,
      "duration": 0.0876,
      "velocity": 127,
      "chip": "ym2612"
    },
    {
      "channel": 2,
      "note": 79,
      "start": 10.7404,
      "duration": 0.0996,
      "velocity": 104,
      "chip": "ym2612"
    },
    {
      "channel": 3,
      "note": 74,
      "start": 10.7409,
      "duration": 0.0996,
      "velocity": 104,
      "chip": "ym2612"
    },
    {
      "channel": 4,
      "note": 98,
      "start": 10.7415,
      "duration": 0.1012,
      "velocity": 119,
      "chip": "ym2612"
    },
    {
      "channel": 0,
      "note": 79,
      "start": 10.8391,
      "duration": 0.1729,
      "velocity": 104,
      "chip": "ym2612"
    },
    {
      "channel": 1,
      "note": 74,
      "start": 10.8396,
      "duration": 0.1729,
      "velocity": 104,
      "chip": "ym2612"
    },
    {
      "channel": 2,
      "note": 67,
      "start": 10.8402,
      "duration": 0.1729,
      "velocity": 104,
      "chip": "ym2612"
    },
    {
      "channel": 3,
      "note": 62,
      "start": 10.8407,
      "duration": 0.1729,
      "velocity": 104,
      "chip": "ym2612"
    },
    {
      "channel": 4,
      "note": 31,
      "start": 10.8429,
      "duration": 0.0846,
      "velocity": 127,
      "chip": "ym2612"
    },
    {
      "channel": 4,
      "note": 98,
      "start": 10.9277,
      "duration": 0.0864,
      "velocity": 127,
      "chip": "ym2612"
    },
    {
      "channel": 0,
      "note": 67,
      "start": 11.0121,
      "duration": 0.1734,
      "velocity": 104,
      "chip": "ym2612"
    },
    {
      "channel": 1,
      "note": 62,
      "start": 11.0127,
      "duration": 0.1734,
      "velocity": 104,
      "chip": "ym2612"
    },
    {
      "channel": 2,
      "note": 79,
      "start": 11.0132,
      "duration": 0.1735,
      "velocity": 104,
      "chip": "ym2612"
    },
    {
      "channel": 3,
      "note": 74,
      "start": 11.0138,
      "duration": 0.175,
      "velocity": 103,
      "chip": "ym2612"
    },
    {
      "channel": 4,
      "note": 98,
      "start": 11.0143,
      "duration": 0.0853,
      "velocity": 127,
      "chip": "ym2612"
    },
    {
      "channel": 4,
      "note": 98,
      "start": 11.0998,
      "duration": 0.0897,
      "velocity": 127,
      "chip": "ym2612"
    },
    {
      "channel": 0,
      "note": 69,
      "start": 11.1857,
      "duration": 0.1002,
      "velocity": 104,
      "chip": "ym2612"
    },
    {
      "channel": 1,
      "note": 64,
      "start": 11.1862,
      "duration": 0.1002,
      "velocity": 104,
      "chip": "ym2612"
    },
    {
      "channel": 2,
      "note": 67,
      "start": 11.1869,
      "duration": 0.2017,
      "velocity": 104,
      "chip": "ym2612"
    },
    {
      "channel": 3,
      "note": 105,
      "start": 11.189,
      "duration": 0.098,
      "velocity": 103,
      "chip": "ym2612"
    },
    {
      "channel": 4,
      "note": 98,
      "start": 11.1897,
      "duration": 0.098,
      "velocity": 127,
      "chip": "ym2612"
    },
    {
      "channel": 0,
      "note": 81,
      "start": 11.286,
      "duration": 0.1896,
      "velocity": 104,
      "chip": "ym2612"
    },
    {
      "channel": 1,
      "note": 76,
      "start": 11.2866,
      "duration": 0.1896,
      "velocity": 104,
      "chip": "ym2612"
    },
    {
      "channel": 3,
      "note": 105,
      "start": 11.2872,
      "duration": 0.0385,
      "velocity": 103,
      "chip": "ym2612"
    },
    {
      "channel": 4,
      "note": 98,
      "start": 11.2878,
      "duration": 0.1015,
      "velocity": 127,
      "chip": "ym2612"
    },
    {
      "channel": 3,
      "note": 105,
      "start": 11.3259,
      "duration": 0.1005,
      "velocity": 103,
      "chip": "ym2612"
    },
    {
      "channel": 2,
      "note": 69,
      "start": 11.3888,
      "duration": 0.088,
      "velocity": 104,
      "chip": "ym2612"
    },
    {
      "channel": 4,
      "note": 98,
      "start": 11.3894,
      "duration": 0.0901,
      "velocity": 127,
      "chip": "ym2612"
    },
    {
      "channel": 3,
      "note": 105,
      "start": 11.4266,
      "duration": 0.0522,
      "velocity": 103,
      "chip": "ym2612"
    },
    {
      "channel": 0,
      "note": 69,
      "start": 11.4759,
      "duration": 0.0871,
      "velocity": 104,
      "chip": "ym2612"
    },
    {
      "channel": 1,
      "note": 64,
      "start": 11.4764,
      "duration": 0.0871,
      "velocity": 104,
      "chip": "ym2612"
    },
    {
      "channel": 2,
      "note": 81,
      "start": 11.4769,
      "duration": 0.1739,
      "velocity": 104,
      "chip": "ym2612"
    },
    {
      "channel": 3,
      "note": 105,
      "start": 11.4791,
      "duration": 0.136,
      "velocity": 103,
      "chip": "ym2612"
    },
    {
      "channel": 4,
      "note": 98,
      "start": 11.4797,
      "duration": 0.0861,
      "velocity": 119,
      "chip": "ym2612"
    },
    {
      "channel": 0,
      "note": 70,
      "start": 11.5631,
      "duration": 0.1869,
      "velocity": 104,
      "chip": "ym2612"
    },
    {
      "channel": 1,
      "note": 65,
      "start": 11.5637,
      "duration": 0.1869,
      "velocity": 104,
      "chip": "ym2612"
    },
    {
      "channel": 4,
      "note": 31,
      "start": 11.5659,
      "duration": 0.0893,
      "velocity": 127,
      "chip": "ym2612"
    },
    {
      "channel": 3,
      "note": 105,
      "start": 11.6153,
      "duration": 0.0377,
      "velocity": 103,
      "chip": "ym2612"
    },
    {
      "channel": 2,
      "note": 69,
      "start": 11.651,
      "duration": 0.1001,
      "velocity": 104,
      "chip": "ym2612"
    },
    {
      "channel": 3,
      "note": 93,
      "start": 11.6532,
      "duration": 0.1358,
      "velocity": 103,
      "chip": "ym2612"
    },
    {
      "channel": 4,
      "note": 98,
      "start": 11.6553,
      "duration": 0.0964,
      "velocity": 127,
      "chip": "ym2612"
    },
    {
      "channel": 0,
      "note": 82,
      "start": 11.7502,
      "duration": 0.0863,
      "velocity": 104,
      "chip": "ym2612"
    },
    {
      "channel": 1,
      "note": 77,
      "start": 11.7507,
      "duration": 0.0864,
      "velocity": 104,
      "chip": "ym2612"
    },
    {
      "channel": 2,
      "note": 70,
      "start": 11.7513,
      "duration": 0.1722,
      "velocity": 104,
      "chip": "ym2612"
    },
    {
      "channel": 4,
      "note": 98,
      "start": 11.7519,
      "duration": 0.0879,
      "velocity": 127,
      "chip": "ym2612"
    },
    {
      "channel": 3,
      "note": 93,
      "start": 11.7892,
      "duration": 0.0501,
      "velocity": 103,
      "chip": "ym2612"
    },
    {
      "channel": 0,
      "note": 67,
      "start": 11.8367,
      "duration": 0.1743,
      "velocity": 104,
      "chip": "ym2612"
    },
    {
      "channel": 1,
      "note": 62,
      "start": 11.8373,
      "duration": 0.1743,
      "velocity": 104,
      "chip": "ym2612"
    },
    {
      "channel": 3,
      "note": 93,
      "start": 11.8394,
      "duration": 0.0848,
      "velocity": 103,
      "chip": "ym2612"
    },
    {
      "channel": 4,
      "note": 98,
      "start": 11.84,
      "duration": 0.0847,
      "velocity": 127,
      "chip": "ym2612"
    },
    {
      "channel": 2,
      "note": 82,
      "start": 11.9237,
      "duration": 0.0883,
      "velocity": 104,
      "chip": "ym2612"
    },
    {
      "channel": 3,
      "note": 105,
      "start": 11.9243,
      "duration": 0.0507,
      "velocity": 103,
      "chip": "ym2612"
    },
    {
      "channel": 4,
      "note": 98,
      "start": 11.9249,
      "duration": 0.0899,
      "velocity": 127,
      "chip": "ym2612"
    },
    {
      "channel": 3,
      "note": 93,
      "start": 11.9752,
      "duration": 0.039,
      "velocity": 103,
      "chip": "ym2612"
    },
    {
      "channel": 0,
      "note": 79,
      "start": 12.0111,
      "duration": 0.099,
      "velocity": 104,
      "chip": "ym2612"
    },
    {
      "channel": 1,
      "note": 74,
      "start": 12.0117,
      "duration": 0.0989,
      "velocity": 104,
      "chip": "ym2612"
    },
    {
      "channel": 2,
      "note": 67,
      "start": 12.0123,
      "duration": 0.1965,
      "velocity": 104,
      "chip": "ym2612"
    },
    {
      "channel": 3,
      "note": 105,
      "start": 12.0144,
      "duration": 0.0491,
      "velocity": 103,
      "chip": "ym2612"
    },
    {
      "channel": 4,
      "note": 98,
      "start": 12.0149,
      "duration": 0.0964,
      "velocity": 127,
      "chip": "ym2612"
    },
    {
      "channel": 3,
      "note": 105,
      "start": 12.0637,
      "duration": 0.096,
      "velocity": 103,
      "chip": "ym2612"
    },
    {
      "channel": 0,
      "note": 67,
      "start": 12.1102,
      "duration": 0.1865,
      "velocity": 104,
      "chip": "ym2612"
    },
    {
      "channel": 1,
      "note": 62,
      "start": 12.1108,
      "duration": 0.1865,
      "velocity": 104,
      "chip": "ym2612"
    },
    {
      "channel": 4,
      "note": 98,
      "start": 12.1115,
      "duration": 0.1001,
      "velocity": 127,
      "chip": "ym2612"
    },
    {
      "channel": 3,
      "note": 105,
      "start": 12.1599,
      "duration": 0.0511,
      "velocity": 103,
      "chip": "ym2612"
    },
    {
      "channel": 2,
      "note": 79,
      "start": 12.209,
      "duration": 0.0888,
      "velocity": 104,
      "chip": "ym2612"
    },
    {
      "channel": 3,
      "note": 105,
      "start": 12.2112,
      "duration": 0.1255,
      "velocity": 103,
      "chip": "ym2612"
    },
    {
      "channel": 4,
      "note": 98,
      "start": 12.2117,
      "duration": 0.0883,
      "velocity": 119,
      "chip": "ym2612"
    },
    {
      "channel": 0,
      "note": 79,
      "start": 12.2969,
      "duration": 0.1749,
      "velocity": 104,
      "chip": "ym2612"
    },
    {
      "channel": 1,
      "note": 74,
      "start": 12.2975,
      "duration": 0.1749,
      "velocity": 104,
      "chip": "ym2612"
    },
    {
      "channel": 2,
      "note": 67,
      "start": 12.298,
      "duration": 0.1749,
      "velocity": 104,
      "chip": "ym2612"
    },
    {
      "channel": 4,
      "note": 31,
      "start": 12.3002,
      "duration": 0.0884,
      "velocity": 127,
      "chip": "ym2612"
    },
    {
      "channel": 3,
      "note": 105,
      "start": 12.3369,
      "duration": 0.0496,
      "velocity": 103,
      "chip": "ym2612"
    },
    {
      "channel": 3,
      "note": 93,
      "start": 12.3866,
      "duration": 0.0868,
      "velocity": 103,
      "chip": "ym2612"
    },
    {
      "channel": 4,
      "note": 98,
      "start": 12.3888,
      "duration": 0.0853,
      "velocity": 127,
      "chip": "ym2612"
    },
    {
      "channel": 0,
      "note": 67,
      "start": 12.472,
      "duration": 0.1859,
      "velocity": 104,
      "chip": "ym2612"
    },
    {
      "channel": 1,
      "note": 62,
      "start": 12.4724,
      "duration": 0.186,
      "velocity": 104,
      "chip": "ym2612"
    },
    {
      "channel": 2,
      "note": 79,
      "start": 12.473,
      "duration": 0.1859,
      "velocity": 104,
      "chip": "ym2612"
    },
    {
      "channel": 3,
      "note": 91,
      "start": 12.4737,
      "duration": 0.0499,
      "velocity": 103,
      "chip": "ym2612"
    },
    {
      "channel": 4,
      "note": 98,
      "start": 12.4742,
      "duration": 0.0871,
      "velocity": 127,
      "chip": "ym2612"
    },
    {
      "channel": 3,
      "note": 93,
      "start": 12.5237,
      "duration": 0.0371,
      "velocity": 103,
      "chip": "ym2612"
    },
    {
      "channel": 3,
      "note": 88,
      "start": 12.561,
      "duration": 0.0493,
      "velocity": 103,
      "chip": "ym2612"
    },
    {
      "channel": 4,
      "note": 98,
      "start": 12.5615,
      "duration": 0.1002,
      "velocity": 127,
      "chip": "ym2612"
    },
    {
      "channel": 3,
      "note": 91,
      "start": 12.6104,
      "duration": 0.0507,
      "velocity": 103,
      "chip": "ym2612"
    },
    {
      "channel": 0,
      "note": 69,
      "start": 12.6581,
      "duration": 0.0866,
      "velocity": 104,
      "chip": "ym2612"
    },
    {
      "channel": 1,
      "note": 64,
      "start": 12.6586,
      "duration": 0.0866,
      "velocity": 104,
      "chip": "ym2612"
    },
    {
      "channel": 2,
      "note": 67,
      "start": 12.6592,
      "duration": 0.1846,
      "velocity": 104,
      "chip": "ym2612"
    },
    {
      "channel": 3,
      "note": 105,
      "start": 12.6613,
      "duration": 0.0845,
      "velocity": 103,
      "chip": "ym2612"
    },
    {
      "channel": 4,
      "note": 98,
      "start": 12.6619,
      "duration": 0.0845,
      "velocity": 127,
      "chip": "ym2612"
    },
    {
      "channel": 0,
      "note": 81,
      "start": 12.7448,
      "duration": 0.1863,
      "velocity": 104,
      "chip": "ym2612"
    },
    {
      "channel": 1,
      "note": 76,
      "start": 12.7454,
      "duration": 0.1863,
      "velocity": 104,
      "chip": "ym2612"
    },
    {
      "channel": 3,
      "note": 105,
      "start": 12.746,
      "duration": 0.0383,
      "velocity": 103,
      "chip": "ym2612"
    },
    {
      "channel": 4,
      "note": 98,
      "start": 12.7466,
      "duration": 0.0978,
      "velocity": 127,
      "chip": "ym2612"
    },
    {
      "channel": 3,
      "note": 105,
      "start": 12.7845,
      "duration": 0.1095,
      "velocity": 103,
      "chip": "ym2612"
    },
    {
      "channel": 2,
      "note": 69,
      "start": 12.844,
      "duration": 0.0883,
      "velocity": 104,
      "chip": "ym2612"
    },
    {
      "channel": 4,
      "note": 98,
      "start": 12.8445,
      "duration": 0.0905,
      "velocity": 127,
      "chip": "ym2612"
    },
    {
      "channel": 3,
      "note": 105,
      "start": 12.8941,
      "duration": 0.0402,
      "velocity": 103,
      "chip": "ym2612"
    },
    {
      "channel": 0,
      "note": 69,
      "start": 12.9314,
      "duration": 0.0877,
      "velocity": 104,
      "chip": "ym2612"
    },
    {
      "channel": 1,
      "note": 64,
      "start": 12.9319,
      "duration": 0.0877,
      "velocity": 104,
      "chip": "ym2612"
    },
    {
      "channel": 2,
      "note": 81,
      "start": 12.9324,
      "duration": 0.1881,
      "velocity": 104,
      "chip": "ym2612"
    },
    {
      "channel": 3,
      "note": 105,
      "start": 12.9346,
      "duration": 0.137,
      "velocity": 103,
      "chip": "ym2612"
    },
    {
      "channel": 4,
      "note": 98,
      "start": 12.9352,
      "duration": 0.0867,
      "velocity": 119,
      "chip": "ym2612"
    },
    {
      "channel": 0,
      "note": 70,
      "start": 13.0193,
      "duration": 0.1871,
      "velocity": 104,
      "chip": "ym2612"
    },
    {
      "channel": 1,
      "note": 65,
      "start": 13.0198,
      "duration": 0.1871,
      "velocity": 104,
      "chip": "ym2612"
    },
    {
      "channel": 4,
      "note": 31,
      "start": 13.0221,
      "duration": 0.1027,
      "velocity": 127,
      "chip": "ym2612"
    },
    {
      "channel": 3,
      "note": 105,
      "start": 13.0717,
      "duration": 0.0509,
      "velocity": 103,
      "chip": "ym2612"
    },
    {
      "channel": 2,
      "note": 69,
      "start": 13.1207,
      "duration": 0.0867,
      "velocity": 104,
      "chip": "ym2612"
    },
    {
      "channel": 3,
      "note": 93,
      "start": 13.1228,
      "duration": 0.1225,
      "velocity": 103,
      "chip": "ym2612"
    },
    {
      "channel": 4,
      "note": 98,
      "start": 13.125,
      "duration": 0.0831,
      "velocity": 127,
      "chip": "ym2612"
    },
    {
      "channel": 0,
      "note": 82,
      "start": 13.2066,
      "duration": 0.0865,
      "velocity": 104,
      "chip": "ym2612"
    },
    {
      "channel": 1,
      "note": 77,
      "start": 13.2071,
      "duration": 0.0866,
      "velocity": 104,
      "chip": "ym2612"
    },
    {
      "channel": 2,
      "note": 70,
      "start": 13.2077,
      "duration": 0.1721,
      "velocity": 104,
      "chip": "ym2612"
    },
    {
      "channel": 4,
      "note": 98,
      "start": 13.2083,
      "duration": 0.0881,
      "velocity": 127,
      "chip": "ym2612"
    },
    {
      "channel": 3,
      "note": 93,
      "start": 13.2455,
      "duration": 0.0503,
      "velocity": 103,
      "chip": "ym2612"
    },
    {
      "channel": 0,
      "note": 67,
      "start": 13.2933,
      "duration": 0.1741,
      "velocity": 104,
      "chip": "ym2612"
    },
    {
      "channel": 1,
      "note": 62,
      "start": 13.2938,
      "duration": 0.174,
      "velocity": 104,
      "chip": "ym2612"
    },
    {
      "channel": 3,
      "note": 93,
      "start": 13.296,
      "duration": 0.0844,
      "velocity": 103,
      "chip": "ym2612"
    },
    {
      "channel": 4,
      "note": 98,
      "start": 13.2966,
      "duration": 0.0843,
      "velocity": 127,
      "chip": "ym2612"
    },
    {
      "channel": 2,
      "note": 82,
      "start": 13.38,
      "duration": 0.0885,
      "velocity": 104,
      "chip": "ym2612"
    },
    {
      "channel": 3,
      "note": 105,
      "start": 13.3805,
      "duration": 0.051,
      "velocity": 103,
      "chip": "ym2612"
    },
    {
      "channel": 4,
      "note": 98,
      "start": 13.3811,
      "duration": 0.09,
      "velocity": 127,
      "chip": "ym2612"
    },
    {
      "channel": 3,
      "note": 93,
      "start": 13.4317,
      "duration": 0.0389,
      "velocity": 103,
      "chip": "ym2612"
    },
    {
      "channel": 0,
      "note": 79,
      "start": 13.4675,
      "duration": 0.1144,
      "velocity": 104,
      "chip": "ym2612"
    },
    {
      "channel": 1,
      "note": 74,
      "start": 13.468,
      "duration": 0.1143,
      "velocity": 104,
      "chip": "ym2612"
    },
    {
      "channel": 2,
      "note": 67,
      "start": 13.4686,
      "duration": 0.1996,
      "velocity": 104,
      "chip": "ym2612"
    },
    {
      "channel": 3,
      "note": 105,
      "start": 13.4707,
      "duration": 0.0479,
      "velocity": 103,
      "chip": "ym2612"
    },
    {
      "channel": 4,
      "note": 98,
      "start": 13.4713,
      "duration": 0.1118,
      "velocity": 127,
      "chip": "ym2612"
    },
    {
      "channel": 3,
      "note": 105,
      "start": 13.5188,
      "duration": 0.0999,
      "velocity": 103,
      "chip": "ym2612"
    },
    {
      "channel": 0,
      "note": 67,
      "start": 13.582,
      "duration": 0.1726,
      "velocity": 104,
      "chip": "ym2612"
    },
    {
      "channel": 1,
      "note": 62,
      "start": 13.5825,
      "duration": 0.1726,
      "velocity": 104,
      "chip": "ym2612"
    },
    {
      "channel": 4,
      "note": 98,
      "start": 13.5832,
      "duration": 0.0877,
      "velocity": 127,
      "chip": "ym2612"
    },
    {
      "channel": 3,
      "note": 105,
      "start": 13.6189,
      "duration": 0.0515,
      "velocity": 103,
      "chip": "ym2612"
    },
    {
      "channel": 2,
      "note": 79,
      "start": 13.6684,
      "duration": 0.0872,
      "velocity": 104,
      "chip": "ym2612"
    },
    {
      "channel": 3,
      "note": 105,
      "start": 13.6705,
      "duration": 0.1355,
      "velocity": 103,
      "chip": "ym2612"
    },
    {
      "channel": 4,
      "note": 98,
      "start": 13.6711,
      "duration": 0.0868,
      "velocity": 119,
      "chip": "ym2612"
    },
    {
      "channel": 0,
      "note": 79,
      "start": 13.7547,
      "duration": 0.1732,
      "velocity": 104,
      "chip": "ym2612"
    },
    {
      "channel": 1,
      "note": 74,
      "start": 13.7552,
      "duration": 0.1733,
      "velocity": 104,
      "chip": "ym2612"
    },
    {
      "channel": 2,
      "note": 67,
      "start": 13.7558,
      "duration": 0.1732,
      "velocity": 104,
      "chip": "ym2612"
    },
    {
      "channel": 4,
      "note": 31,
      "start": 13.758,
      "duration": 0.0874,
      "velocity": 127,
      "chip": "ym2612"
    },
    {
      "channel": 3,
      "note": 105,
      "start": 13.8062,
      "duration": 0.0371,
      "velocity": 103,
      "chip": "ym2612"
    },
    {
      "channel": 3,
      "note": 93,
      "start": 13.8435,
      "duration": 0.0862,
      "velocity": 103,
      "chip": "ym2612"
    },
    {
      "channel": 4,
      "note": 98,
      "start": 13.8456,
      "duration": 0.0846,
      "velocity": 127,
      "chip": "ym2612"
    },
    {
      "channel": 0,
      "note": 67,
      "start": 13.9282,
      "duration": 0.1862,
      "velocity": 104,
      "chip": "ym2612"
    },
    {
      "channel": 1,
      "note": 62,
      "start": 13.9287,
      "duration": 0.1864,
      "velocity": 104,
      "chip": "ym2612"
    },
    {
      "channel": 2,
      "note": 79,
      "start": 13.9293,
      "duration": 0.1864,
      "velocity": 104,
      "chip": "ym2612"
    },
    {
      "channel": 3,
      "note": 91,
      "start": 13.9299,
      "duration": 0.0493,
      "velocity": 103,
      "chip": "ym2612"
    },
    {
      "channel": 4,
      "note": 98,
      "start": 13.9305,
      "duration": 0.0983,
      "velocity": 127,
      "chip": "ym2612"
    },
    {
      "channel": 3,
      "note": 93,
      "start": 13.9793,
      "duration": 0.0488,
      "velocity": 103,
      "chip": "ym2612"
    },
    {
      "channel": 3,
      "note": 88,
      "start": 14.0283,
      "duration": 0.0373,
      "velocity": 103,
      "chip": "ym2612"
    },
    {
      "channel": 4,
      "note": 98,
      "start": 14.0289,
      "duration": 0.0895,
      "velocity": 127,
      "chip": "ym2612"
    },
    {
      "channel": 3,
      "note": 91,
      "start": 14.0659,
      "duration": 0.0519,
      "velocity": 103,
      "chip": "ym2612"
    },
    {
      "channel": 0,
      "note": 69,
      "start": 14.1146,
      "duration": 0.089,
      "velocity": 104,
      "chip": "ym2612"
    },
    {
      "channel": 1,
      "note": 64,
      "start": 14.1152,
      "duration": 0.089,
      "velocity": 104,
      "chip": "ym2612"
    },
    {
      "channel": 2,
      "note": 67,
      "start": 14.1158,
      "duration": 0.1851,
      "velocity": 104,
      "chip": "ym2612"
    },
    {
      "channel": 3,
      "note": 105,
      "start": 14.118,
      "duration": 0.0868,
      "velocity": 103,
      "chip": "ym2612"
    },
    {
      "channel": 4,
      "note": 98,
      "start": 14.1185,
      "duration": 0.0868,
      "velocity": 127,
      "chip": "ym2612"
    },
    {
      "channel": 0,
      "note": 81,
      "start": 14.2038,
      "duration": 0.1848,
      "velocity": 104,
      "chip": "ym2612"
    },
    {
      "channel": 1,
      "note": 76,
      "start": 14.2044,
      "duration": 0.1848,
      "velocity": 104,
      "chip": "ym2612"
    },
    {
      "channel": 3,
      "note": 105,
      "start": 14.205,
      "duration": 0.0498,
      "velocity": 103,
      "chip": "ym2612"
    },
    {
      "channel": 4,
      "note": 98,
      "start": 14.2056,
      "duration": 0.096,
      "velocity": 127,
      "chip": "ym2612"
    },
    {
      "channel": 3,
      "note": 105,
      "start": 14.255,
      "duration": 0.0964,
      "velocity": 103,
      "chip": "ym2612"
    },
    {
      "channel": 2,
      "note": 69,
      "start": 14.3011,
      "duration": 0.0886,
      "velocity": 104,
      "chip": "ym2612"
    },
    {
      "channel": 4,
      "note": 98,
      "start": 14.3017,
      "duration": 0.0907,
      "velocity": 127,
      "chip": "ym2612"
    },
    {
      "channel": 3,
      "note": 105,
      "start": 14.3516,
      "duration": 0.0402,
      "velocity": 103,
      "chip": "ym2612"
    },
    {
      "channel": 0,
      "note": 69,
      "start": 14.3888,
      "duration": 0.0994,
      "velocity": 104,
      "chip": "ym2612"
    },
    {
      "channel": 1,
      "note": 64,
      "start": 14.3893,
      "duration": 0.0993,
      "velocity": 104,
      "chip": "ym2612"
    },
    {
      "channel": 2,
      "note": 81,
      "start": 14.3899,
      "duration": 0.1859,
      "velocity": 104,
      "chip": "ym2612"
    },
    {
      "channel": 3,
      "note": 105,
      "start": 14.392,
      "duration": 0.1354,
      "velocity": 103,
      "chip": "ym2612"
    },
    {
      "channel": 4,
      "note": 98,
      "start": 14.3926,
      "duration": 0.0984,
      "velocity": 119,
      "chip": "ym2612"
    },
    {
      "channel": 0,
      "note": 70,
      "start": 14.4883,
      "duration": 0.1756,
      "velocity": 104,
      "chip": "ym2612"
    },
    {
      "channel": 1,
      "note": 65,
      "start": 14.4888,
      "duration": 0.1756,
      "velocity": 104,
      "chip": "ym2612"
    },
    {
      "channel": 4,
      "note": 31,
      "start": 14.4911,
      "duration": 0.0888,
      "velocity": 127,
      "chip": "ym2612"
    },
    {
      "channel": 3,
      "note": 105,
      "start": 14.5276,
      "duration": 0.0502,
      "velocity": 103,
      "chip": "ym2612"
    },
    {
      "channel": 2,
      "note": 69,
      "start": 14.5759,
      "duration": 0.0891,
      "velocity": 104,
      "chip": "ym2612"
    },
    {
      "channel": 3,
      "note": 93,
      "start": 14.578,
      "duration": 0.1382,
      "velocity": 103,
      "chip": "ym2612"
    },
    {
      "channel": 4,
      "note": 98,
      "start": 14.5801,
      "duration": 0.0855,
      "velocity": 127,
      "chip": "ym2612"
    },
    {
      "channel": 0,
      "note": 82,
      "start": 14.664,
      "duration": 0.0879,
      "velocity": 104,
      "chip": "ym2612"
    },
    {
      "channel": 1,
      "note": 77,
      "start": 14.6646,
      "duration": 0.0879,
      "velocity": 104,
      "chip": "ym2612"
    },
    {
      "channel": 2,
      "note": 70,
      "start": 14.6652,
      "duration": 0.1739,
      "velocity": 104,
      "chip": "ym2612"
    },
    {
      "channel": 4,
      "note": 98,
      "start": 14.6658,
      "duration": 0.0895,
      "velocity": 127,
      "chip": "ym2612"
    },
    {
      "channel": 3,
      "note": 93,
      "start": 14.7164,
      "duration": 0.0383,
      "velocity": 103,
      "chip": "ym2612"
    },
    {
      "channel": 0,
      "note": 67,
      "start": 14.7521,
      "duration": 0.1864,
      "velocity": 104,
      "chip": "ym2612"
    },
    {
      "channel": 1,
      "note": 62,
      "start": 14.7526,
      "duration": 0.1864,
      "velocity": 104,
      "chip": "ym2612"
    },
    {
      "channel": 3,
      "note": 93,
      "start": 14.7549,
      "duration": 0.0849,
      "velocity": 103,
      "chip": "ym2612"
    },
    {
      "channel": 4,
      "note": 98,
      "start": 14.7554,
      "duration": 0.0848,
      "velocity": 127,
      "chip": "ym2612"
    },
    {
      "channel": 2,
      "note": 82,
      "start": 14.8393,
      "duration": 0.1003,
      "velocity": 104,
      "chip": "ym2612"
    },
    {
      "channel": 3,
      "note": 105,
      "start": 14.8399,
      "duration": 0.0503,
      "velocity": 103,
      "chip": "ym2612"
    },
    {
      "channel": 4,
      "note": 98,
      "start": 14.8404,
      "duration": 0.1019,
      "velocity": 127,
      "chip": "ym2612"
    },
    {
      "channel": 3,
      "note": 93,
      "start": 14.8904,
      "duration": 0.0514,
      "velocity": 103,
      "chip": "ym2612"
    },
    {
      "channel": 0,
      "note": 79,
      "start": 14.9387,
      "duration": 0.1028,
      "velocity": 104,
      "chip": "ym2612"
    },
    {
      "channel": 1,
      "note": 74,
      "start": 14.9393,
      "duration": 0.1028,
      "velocity": 104,
      "chip": "ym2612"
    },
    {
      "channel": 2,
      "note": 67,
      "start": 14.9398,
      "duration": 0.1886,
      "velocity": 104,
      "chip": "ym2612"
    },
    {
      "channel": 3,
      "note": 105,
      "start": 14.9419,
      "duration": 0.0363,
      "velocity": 103,
      "chip": "ym2612"
    },
    {
      "channel": 4,
      "note": 98,
      "start": 14.9425,
      "duration": 0.1002,
      "velocity": 127,
      "chip": "ym2612"
    },
    {
      "channel": 3,
      "note": 105,
      "start": 14.9785,
      "duration": 0.1009,
      "velocity": 103,
      "chip": "ym2612"
    },
    {
      "channel": 0,
      "note": 67,
      "start": 15.0417,
      "duration": 0.1736,
      "velocity": 104,
      "chip": "ym2612"
    },
    {
      "channel": 1,
      "note": 62,
      "start": 15.0422,
      "duration": 0.1736,
      "velocity": 104,
      "chip": "ym2612"
    },
    {
      "channel": 4,
      "note": 98,
      "start": 15.0429,
      "duration": 0.0883,
      "velocity": 127,
      "chip": "ym2612"
    },
    {
      "channel": 3,
      "note": 105,
      "start": 15.0795,
      "duration": 0.0511,
      "velocity": 103,
      "chip": "ym2612"
    },
    {
      "channel": 2,
      "note": 79,
      "start": 15.1286,
      "duration": 0.0877,
      "velocity": 104,
      "chip": "ym2612"
    },
    {
      "channel": 3,
      "note": 105,
      "start": 15.1308,
      "duration": 0.1365,
      "velocity": 103,
      "chip": "ym2612"
    },
    {
      "channel": 4,
      "note": 98,
      "start": 15.1314,
      "duration": 0.0872,
      "velocity": 119,
      "chip": "ym2612"
    },
    {
      "channel": 0,
      "note": 79,
      "start": 15.2155,
      "duration": 0.1853,
      "velocity": 104,
      "chip": "ym2612"
    },
    {
      "channel": 1,
      "note": 74,
      "start": 15.216,
      "duration": 0.1854,
      "velocity": 104,
      "chip": "ym2612"
    },
    {
      "channel": 2,
      "note": 67,
      "start": 15.2166,
      "duration": 0.1853,
      "velocity": 104,
      "chip": "ym2612"
    },
    {
      "channel": 4,
      "note": 31,
      "start": 15.2188,
      "duration": 0.0871,
      "velocity": 127,
      "chip": "ym2612"
    },
    {
      "channel": 3,
      "note": 105,
      "start": 15.2674,
      "duration": 0.0363,
      "velocity": 103,
      "chip": "ym2612"
    },
    {
      "channel": 3,
      "note": 93,
      "start": 15.304,
      "duration": 0.0985,
      "velocity": 103,
      "chip": "ym2612"
    },
    {
      "channel": 4,
      "note": 98,
      "start": 15.3061,
      "duration": 0.097,
      "velocity": 127,
      "chip": "ym2612"
    },
    {
      "channel": 0,
      "note": 67,
      "start": 15.4009,
      "duration": 0.1734,
      "velocity": 104,
      "chip": "ym2612"
    },
    {
      "channel": 1,
      "note": 62,
      "start": 15.4014,
      "duration": 0.1734,
      "velocity": 104,
      "chip": "ym2612"
    },
    {
      "channel": 2,
      "note": 79,
      "start": 15.402,
      "duration": 0.1734,
      "velocity": 104,
      "chip": "ym2612"
    },
    {
      "channel": 3,
      "note": 91,
      "start": 15.4027,
      "duration": 0.0378,
      "velocity": 103,
      "chip": "ym2612"
    },
    {
      "channel": 4,
      "note": 98,
      "start": 15.4032,
      "duration": 0.0867,
      "velocity": 127,
      "chip": "ym2612"
    },
    {
      "channel": 3,
      "note": 93,
      "start": 15.4407,
      "duration": 0.0487,
      "velocity": 103,
      "chip": "ym2612"
    },
    {
      "channel": 3,
      "note": 88,
      "start": 15.4895,
      "duration": 0.0373,
      "velocity": 103,
      "chip": "ym2612"
    },
    {
      "channel": 4,
      "note": 98,
      "start": 15.4901,
      "duration": 0.088,
      "velocity": 127,
      "chip": "ym2612"
    },
    {
      "channel": 3,
      "note": 91,
      "start": 15.5271,
      "duration": 0.0505,
      "velocity": 103,
      "chip": "ym2612"
    },
    {
      "channel": 0,
      "note": 69,
      "start": 15.5745,
      "duration": 0.0865,
      "velocity": 104,
      "chip": "ym2612"
    },
    {
      "channel": 1,
      "note": 64,
      "start": 15.5751,
      "duration": 0.0865,
      "velocity": 104,
      "chip": "ym2612"
    },
    {
      "channel": 2,
      "note": 67,
      "start": 15.5756,
      "duration": 0.1837,
      "velocity": 104,
      "chip": "ym2612"
    },
    {
      "channel": 3,
      "note": 105,
      "start": 15.5777,
      "duration": 0.0844,
      "velocity": 103,
      "chip": "ym2612"
    },
    {
      "channel": 4,
      "note": 98,
      "start": 15.5783,
      "duration": 0.0844,
      "velocity": 127,
      "chip": "ym2612"
    },
    {
      "channel": 0,
      "note": 81,
      "start": 15.6611,
      "duration": 0.1961,
      "velocity": 104,
      "chip": "ym2612"
    },
    {
      "channel": 1,
      "note": 76,
      "start": 15.6617,
      "duration": 0.1961,
      "velocity": 104,
      "chip": "ym2612"
    },
    {
      "channel": 3,
      "note": 105,
      "start": 15.6623,
      "duration": 0.0498,
      "velocity": 103,
      "chip": "ym2612"
    },
    {
      "channel": 4,
      "note": 98,
      "start": 15.6629,
      "duration": 0.0971,
      "velocity": 127,
      "chip": "ym2612"
    },
    {
      "channel": 3,
      "note": 105,
      "start": 15.7123,
      "duration": 0.0963,
      "velocity": 103,
      "chip": "ym2612"
    },
    {
      "channel": 2,
      "note": 69,
      "start": 15.7595,
      "duration": 0.0988,
      "velocity": 104,
      "chip": "ym2612"
    },
    {
      "channel": 4,
      "note": 98,
      "start": 15.7602,
      "duration": 0.1009,
      "velocity": 127,
      "chip": "ym2612"
    },
    {
      "channel": 3,
      "note": 105,
      "start": 15.8088,
      "duration": 0.0517,
      "velocity": 103,
      "chip": "ym2612"
    },
    {
      "channel": 0,
      "note": 69,
      "start": 15.8575,
      "duration": 0.0869,
      "velocity": 104,
      "chip": "ym2612"
    },
    {
      "channel": 1,
      "note": 64,
      "start": 15.858,
      "duration": 0.0869,
      "velocity": 104,
      "chip": "ym2612"
    },
    {
      "channel": 2,
      "note": 81,
      "start": 15.8585,
      "duration": 0.1729,
      "velocity": 104,
      "chip": "ym2612"
    },
    {
      "channel": 3,
      "note": 105,
      "start": 15.8607,
      "duration": 0.1229,
      "velocity": 103,
      "chip": "ym2612"
    },
    {
      "channel": 4,
      "note": 98,
      "start": 15.8613,
      "duration": 0.0859,
      "velocity": 119,
      "chip": "ym2612"
    },
    {
      "channel": 0,
      "note": 70,
      "start": 15.9445,
      "duration": 0.1737,
      "velocity": 104,
      "chip": "ym2612"
    },
    {
      "channel": 1,
      "note": 65,
      "start": 15.945,
      "duration": 0.1738,
      "velocity": 104,
      "chip": "ym2612"
    },
    {
      "channel": 4,
      "note": 31,
      "start": 15.9473,
      "duration": 0.0884,
      "velocity": 127,
      "chip": "ym2612"
    },
    {
      "channel": 3,
      "note": 105,
      "start": 15.9838,
      "duration": 0.0498,
      "velocity": 103,
      "chip": "ym2612"
    },
    {
      "channel": 2,
      "note": 69,
      "start": 16.0316,
      "duration": 0.0877,
      "velocity": 104,
      "chip": "ym2612"
    },
    {
      "channel": 3,
      "note": 93,
      "start": 16.0338,
      "duration": 0.1361,
      "velocity": 103,
      "chip": "ym2612"
    },
    {
      "channel": 4,
      "note": 98,
      "start": 16.0359,
      "duration": 0.084,
      "velocity": 127,
      "chip": "ym2612"
    },
    {
      "channel": 0,
      "note": 82,
      "start": 16.1184,
      "duration": 0.0869,
      "velocity": 104,
      "chip": "ym2612"
    },
    {
      "channel": 1,
      "note": 77,
      "start": 16.1189,
      "duration": 0.087,
      "velocity": 104,
      "chip": "ym2612"
    },
    {
      "channel": 2,
      "note": 70,
      "start": 16.1195,
      "duration": 0.186,
      "velocity": 104,
      "chip": "ym2612"
    },
    {
      "channel": 4,
      "note": 98,
      "start": 16.1201,
      "duration": 0.0885,
      "velocity": 127,
      "chip": "ym2612"
    },
    {
      "channel": 3,
      "note": 93,
      "start": 16.1701,
      "duration": 0.038,
      "velocity": 103,
      "chip": "ym2612"
    },
    {
      "channel": 0,
      "note": 67,
      "start": 16.2055,
      "duration": 0.1866,
      "velocity": 104,
      "chip": "ym2612"
    },
    {
      "channel": 1,
      "note": 62,
      "start": 16.206,
      "duration": 0.1866,
      "velocity": 104,
      "chip": "ym2612"
    },
    {
      "channel": 3,
      "note": 93,
      "start": 16.2082,
      "duration": 0.0979,
      "velocity": 103,
      "chip": "ym2612"
    },
    {
      "channel": 4,
      "note": 98,
      "start": 16.2088,
      "duration": 0.0979,
      "velocity": 127,
      "chip": "ym2612"
    },
    {
      "channel": 2,
      "note": 82,
      "start": 16.3057,
      "duration": 0.0875,
      "velocity": 104,
      "chip": "ym2612"
    },
    {
      "channel": 3,
      "note": 105,
      "start": 16.3063,
      "duration": 0.0377,
      "velocity": 103,
      "chip": "ym2612"
    },
    {
      "channel": 4,
      "note": 98,
      "start": 16.3069,
      "duration": 0.089,
      "velocity": 127,
      "chip": "ym2612"
    },
    {
      "channel": 3,
      "note": 93,
      "start": 16.3442,
      "duration": 0.0511,
      "velocity": 103,
      "chip": "ym2612"
    },
    {
      "channel": 0,
      "note": 79,
      "start": 16.3922,
      "duration": 0.098,
      "velocity": 104,
      "chip": "ym2612"
    },
    {
      "channel": 1,
      "note": 74,
      "start": 16.3928,
      "duration": 0.098,
      "velocity": 104,
      "chip": "ym2612"
    },
    {
      "channel": 2,
      "note": 67,
      "start": 16.3934,
      "duration": 0.1832,
      "velocity": 104,
      "chip": "ym2612"
    },
    {
      "channel": 3,
      "note": 105,
      "start": 16.3955,
      "duration": 0.0364,
      "velocity": 103,
      "chip": "ym2612"
    },
    {
      "channel": 4,
      "note": 98,
      "start": 16.3961,
      "duration": 0.0955,
      "velocity": 127,
      "chip": "ym2612"
    },
    {
      "channel": 3,
      "note": 105,
      "start": 16.4321,
      "duration": 0.1077,
      "velocity": 103,
      "chip": "ym2612"
    },
    {
      "channel": 0,
      "note": 67,
      "start": 16.4904,
      "duration": 0.1729,
      "velocity": 104,
      "chip": "ym2612"
    },
    {
      "channel": 1,
      "note": 62,
      "start": 16.491,
      "duration": 0.1729,
      "velocity": 104,
      "chip": "ym2612"
    },
    {
      "channel": 4,
      "note": 98,
      "start": 16.4917,
      "duration": 0.0876,
      "velocity": 127,
      "chip": "ym2612"
    },
    {
      "channel": 3,
      "note": 105,
      "start": 16.5399,
      "duration": 0.0388,
      "velocity": 103,
      "chip": "ym2612"
    },
    {
      "channel": 2,
      "note": 79,
      "start": 16.5768,
      "duration": 0.0876,
      "velocity": 104,
      "chip": "ym2612"
    },
    {
      "channel": 3,
      "note": 105,
      "start": 16.5789,
      "duration": 0.1365,
      "velocity": 103,
      "chip": "ym2612"
    },
    {
      "channel": 4,
      "note": 98,
      "start": 16.5795,
      "duration": 0.0872,
      "velocity": 119,
      "chip": "ym2612"
    },
    {
      "channel": 0,
      "note": 79,
      "start": 16.6636,
      "duration": 0.1862,
      "velocity": 104,
      "chip": "ym2612"
    },
    {
      "channel": 1,
      "note": 74,
      "start": 16.6641,
      "duration": 0.1862,
      "velocity": 104,
      "chip": "ym2612"
    },
    {
      "channel": 2,
      "note": 67,
      "start": 16.6646,
      "duration": 0.1862,
      "velocity": 104,
      "chip": "ym2612"
    },
    {
      "channel": 4,
      "note": 31,
      "start": 16.6669,
      "duration": 0.0996,
      "velocity": 127,
      "chip": "ym2612"
    },
    {
      "channel": 3,
      "note": 105,
      "start": 16.7156,
      "duration": 0.0487,
      "velocity": 103,
      "chip": "ym2612"
    },
    {
      "channel": 3,
      "note": 93,
      "start": 16.7645,
      "duration": 0.087,
      "velocity": 103,
      "chip": "ym2612"
    },
    {
      "channel": 4,
      "note": 98,
      "start": 16.7666,
      "duration": 0.0853,
      "velocity": 127,
      "chip": "ym2612"
    },
    {
      "channel": 0,
      "note": 67,
      "start": 16.8499,
      "duration": 0.1764,
      "velocity": 117,
      "chip": "ym2612"
    },
    {
      "channel": 1,
      "note": 62,
      "start": 16.8504,
      "duration": 0.1765,
      "velocity": 104,
      "chip": "ym2612"
    },
    {
      "channel": 2,
      "note": 79,
      "start": 16.851,
      "duration": 0.178,
      "velocity": 104,
      "chip": "ym2612"
    },
    {
      "channel": 3,
      "note": 91,
      "start": 16.8516,
      "duration": 0.0376,
      "velocity": 103,
      "chip": "ym2612"
    },
    {
      "channel": 4,
      "note": 98,
      "start": 16.8522,
      "duration": 0.087,
      "velocity": 127,
      "chip": "ym2612"
    },
    {
      "channel": 3,
      "note": 93,
      "start": 16.8893,
      "duration": 0.0493,
      "velocity": 103,
      "chip": "ym2612"
    },
    {
      "channel": 3,
      "note": 88,
      "start": 16.9388,
      "duration": 0.0504,
      "velocity": 103,
      "chip": "ym2612"
    },
    {
      "channel": 4,
      "note": 98,
      "start": 16.9393,
      "duration": 0.0903,
      "velocity": 127,
      "chip": "ym2612"
    },
    {
      "channel": 3,
      "note": 91,
      "start": 16.9894,
      "duration": 0.2409,
      "velocity": 104,
      "chip": "ym2612"
    },
    {
      "channel": 0,
      "note": 48,
      "start": 17.0264,
      "duration": 0.0871,
      "velocity": 117,
      "chip": "ym2612"
    },
    {
      "channel": 1,
      "note": 72,
      "start": 17.027,
      "duration": 0.2007,
      "velocity": 104,
      "chip": "ym2612"
    },
    {
      "channel": 2,
      "note": 67,
      "start": 17.0292,
      "duration": 0.199,
      "velocity": 104,
      "chip": "ym2612"
    },
    {
      "channel": 4,
      "note": 98,
      "start": 17.0299,
      "duration": 0.0831,
      "velocity": 127,
      "chip": "ym2612"
    },
    {
      "channel": 4,
      "note": 98,
      "start": 17.1132,
      "duration": 0.1177,
      "velocity": 127,
      "chip": "ym2612"
    },
    {
      "channel": 0,
      "note": 47,
      "start": 17.1135,
      "duration": 0.0239,
      "velocity": 117,
      "chip": "ym2612"
    },
    {
      "channel": 0,
      "note": 46,
      "start": 17.1374,
      "duration": 0.0122,
      "velocity": 117,
      "chip": "ym2612"
    },
    {
      "channel": 0,
      "note": 45,
      "start": 17.1496,
      "duration": 0.0145,
      "velocity": 117,
      "chip": "ym2612"
    },
    {
      "channel": 0,
      "note": 44,
      "start": 17.164,
      "duration": 0.0125,
      "velocity": 117,
      "chip": "ym2612"
    },
    {
      "channel": 0,
      "note": 43,
      "start": 17.1766,
      "duration": 0.0167,
      "velocity": 117,
      "chip": "ym2612"
    },
    {
      "channel": 0,
      "note": 43,
      "start": 17.1932,
      "duration": 0.0338,
      "velocity": 117,
      "chip": "ym2612"
    },
    {
      "channel": 0,
      "note": 48,
      "start": 17.2273,
      "duration": 0.0868,
      "velocity": 117,
      "chip": "ym2612"
    },
    {
      "channel": 1,
      "note": 72,
      "start": 17.2278,
      "duration": 0.0868,
      "velocity": 104,
      "chip": "ym2612"
    },
    {
      "channel": 2,
      "note": 67,
      "start": 17.2284,
      "duration": 0.0868,
      "velocity": 104,
      "chip": "ym2612"
    },
    {
      "channel": 3,
      "note": 72,
      "start": 17.2305,
      "duration": 0.1709,
      "velocity": 104,
      "chip": "ym2612"
    },
    {
      "channel": 4,
      "note": 98,
      "start": 17.2311,
      "duration": 0.0847,
      "velocity": 127,
      "chip": "ym2612"
    },
    {
      "channel": 0,
      "note": 58,
      "start": 17.3142,
      "duration": 0.0865,
      "velocity": 117,
      "chip": "ym2612"
    },
    {
      "channel": 1,
      "note": 84,
      "start": 17.3147,
      "duration": 0.1731,
      "velocity": 104,
      "chip": "ym2612"
    },
    {
      "channel": 2,
      "note": 79,
      "start": 17.3153,
      "duration": 0.1731,
      "velocity": 104,
      "chip": "ym2612"
    },
    {
      "channel": 4,
      "note": 98,
      "start": 17.316,
      "duration": 0.0875,
      "velocity": 119,
      "chip": "ym2612"
    },
    {
      "channel": 0,
      "note": 48,
      "start": 17.4009,
      "duration": 0.0864,
      "velocity": 117,
      "chip": "ym2612"
    },
    {
      "channel": 3,
      "note": 72,
      "start": 17.4015,
      "duration": 0.0874,
      "velocity": 104,
      "chip": "ym2612"
    },
    {
      "channel": 4,
      "note": 31,
      "start": 17.4037,
      "duration": 0.0875,
      "velocity": 127,
      "chip": "ym2612"
    },
    {
      "channel": 0,
      "note": 55,
      "start": 17.4874,
      "duration": 0.0873,
      "velocity": 117,
      "chip": "ym2612"
    },
    {
      "channel": 1,
      "note": 84,
      "start": 17.488,
      "duration": 0.1867,
      "velocity": 104,
      "chip": "ym2612"
    },
    {
      "channel": 2,
      "note": 79,
      "start": 17.4886,
      "duration": 0.1867,
      "velocity": 104,
      "chip": "ym2612"
    },
    {
      "channel": 3,
      "note": 84,
      "start": 17.4892,
      "duration": 0.1866,
      "velocity": 104,
      "chip": "ym2612"
    },
    {
      "channel": 4,
      "note": 98,
      "start": 17.4912,
      "duration": 0.0842,
      "velocity": 127,
      "chip": "ym2612"
    },
    {
      "channel": 0,
      "note": 58,
      "start": 17.5749,
      "duration": 0.0992,
      "velocity": 117,
      "chip": "ym2612"
    },
    {
      "channel": 4,
      "note": 98,
      "start": 17.5757,
      "duration": 0.1007,
      "velocity": 127,
      "chip": "ym2612"
    },
    {
      "channel": 0,
      "note": 60,
      "start": 17.6744,
      "duration": 0.0867,
      "velocity": 117,
      "chip": "ym2612"
    },
    {
      "channel": 1,
      "note": 72,
      "start": 17.6749,
      "duration": 0.1717,
      "velocity": 104,
      "chip": "ym2612"
    },
    {
      "channel": 2,
      "note": 67,
      "start": 17.6754,
      "duration": 0.1717,
      "velocity": 104,
      "chip": "ym2612"
    },
    {
      "channel": 3,
      "note": 84,
      "start": 17.676,
      "duration": 0.1717,
      "velocity": 104,
      "chip": "ym2612"
    },
    {
      "channel": 4,
      "note": 98,
      "start": 17.6766,
      "duration": 0.0852,
      "velocity": 127,
      "chip": "ym2612"
    },
    {
      "channel": 0,
      "note": 48,
      "start": 17.7612,
      "duration": 0.0876,
      "velocity": 117,
      "chip": "ym2612"
    },
    {
      "channel": 4,
      "note": 98,
      "start": 17.762,
      "duration": 0.0863,
      "velocity": 127,
      "chip": "ym2612"
    },
    {
      "channel": 1,
      "note": 72,
      "start": 17.8468,
      "duration": 0.1853,
      "velocity": 104,
      "chip": "ym2612"
    },
    {
      "channel": 2,
      "note": 67,
      "start": 17.8473,
      "duration": 0.1853,
      "velocity": 104,
      "chip": "ym2612"
    },
    {
      "channel": 3,
      "note": 72,
      "start": 17.8479,
      "duration": 0.1853,
      "velocity": 104,
      "chip": "ym2612"
    },
    {
      "channel": 4,
      "note": 98,
      "start": 17.8484,
      "duration": 0.0982,
      "velocity": 127,
      "chip": "ym2612"
    },
    {
      "channel": 0,
      "note": 47,
      "start": 17.8488,
      "duration": 0.0101,
      "velocity": 117,
      "chip": "ym2612"
    },
    {
      "channel": 0,
      "note": 46,
      "start": 17.8589,
      "duration": 0.0122,
      "velocity": 117,
      "chip": "ym2612"
    },
    {
      "channel": 0,
      "note": 45,
      "start": 17.8711,
      "duration": 0.0411,
      "velocity": 117,
      "chip": "ym2612"
    },
    {
      "channel": 0,
      "note": 44,
      "start": 17.9122,
      "duration": 0.0167,
      "velocity": 117,
      "chip": "ym2612"
    },
    {
      "channel": 0,
      "note": 43,
      "start": 17.9289,
      "duration": 0.0171,
      "velocity": 117,
      "chip": "ym2612"
    },
    {
      "channel": 0,
      "note": 48,
      "start": 17.946,
      "duration": 0.0854,
      "velocity": 117,
      "chip": "ym2612"
    },
    {
      "channel": 4,
      "note": 98,
      "start": 17.9468,
      "duration": 0.0869,
      "velocity": 127,
      "chip": "ym2612"
    },
    {
      "channel": 0,
      "note": 58,
      "start": 18.0317,
      "duration": 0.0973,
      "velocity": 117,
      "chip": "ym2612"
    },
    {
      "channel": 1,
      "note": 72,
      "start": 18.0322,
      "duration": 0.0973,
      "velocity": 104,
      "chip": "ym2612"
    },
    {
      "channel": 2,
      "note": 67,
      "start": 18.0328,
      "duration": 0.0973,
      "velocity": 104,
      "chip": "ym2612"
    },
    {
      "channel": 3,
      "note": 72,
      "start": 18.0333,
      "duration": 0.1843,
      "velocity": 104,
      "chip": "ym2612"
    },
    {
      "channel": 4,
      "note": 98,
      "start": 18.0339,
      "duration": 0.0984,
      "velocity": 119,
      "chip": "ym2612"
    },
    {
      "channel": 0,
      "note": 48,
      "start": 18.1292,
      "duration": 0.0868,
      "velocity": 117,
      "chip": "ym2612"
    },
    {
      "channel": 1,
      "note": 84,
      "start": 18.1297,
      "duration": 0.0869,
      "velocity": 104,
      "chip": "ym2612"
    },
    {
      "channel": 2,
      "note": 79,
      "start": 18.1302,
      "duration": 0.0868,
      "velocity": 104,
      "chip": "ym2612"
    },
    {
      "channel": 4,
      "note": 31,
      "start": 18.1325,
      "duration": 0.0873,
      "velocity": 127,
      "chip": "ym2612"
    },
    {
      "channel": 0,
      "note": 55,
      "start": 18.2161,
      "duration": 0.087,
      "velocity": 117,
      "chip": "ym2612"
    },
    {
      "channel": 1,
      "note": 84,
      "start": 18.2166,
      "duration": 0.0871,
      "velocity": 104,
      "chip": "ym2612"
    },
    {
      "channel": 2,
      "note": 79,
      "start": 18.2172,
      "duration": 0.0871,
      "velocity": 104,
      "chip": "ym2612"
    },
    {
      "channel": 3,
      "note": 72,
      "start": 18.2178,
      "duration": 0.0871,
      "velocity": 104,
      "chip": "ym2612"
    },
    {
      "channel": 4,
      "note": 98,
      "start": 18.22,
      "duration": 0.0854,
      "velocity": 127,
      "chip": "ym2612"
    },
    {
      "channel": 0,
      "note": 58,
      "start": 18.3033,
      "duration": 0.0851,
      "velocity": 117,
      "chip": "ym2612"
    },
    {
      "channel": 1,
      "note": 72,
      "start": 18.3039,
      "duration": 0.1718,
      "velocity": 104,
      "chip": "ym2612"
    },
    {
      "channel": 2,
      "note": 67,
      "start": 18.3044,
      "duration": 0.1719,
      "velocity": 104,
      "chip": "ym2612"
    },
    {
      "channel": 3,
      "note": 84,
      "start": 18.305,
      "duration": 0.0841,
      "velocity": 104,
      "chip": "ym2612"
    },
    {
      "channel": 4,
      "note": 98,
      "start": 18.3056,
      "duration": 0.0841,
      "velocity": 127,
      "chip": "ym2612"
    },
    {
      "channel": 0,
      "note": 60,
      "start": 18.3886,
      "duration": 0.0866,
      "velocity": 117,
      "chip": "ym2612"
    },
    {
      "channel": 3,
      "note": 84,
      "start": 18.3893,
      "duration": 0.0876,
      "velocity": 104,
      "chip": "ym2612"
    },
    {
      "channel": 4,
      "note": 98,
      "start": 18.3899,
      "duration": 0.0876,
      "velocity": 127,
      "chip": "ym2612"
    },
    {
      "channel": 0,
      "note": 50,
      "start": 18.4753,
      "duration": 0.1006,
      "velocity": 117,
      "chip": "ym2612"
    },
    {
      "channel": 1,
      "note": 74,
      "start": 18.4759,
      "duration": 0.2027,
      "velocity": 104,
      "chip": "ym2612"
    },
    {
      "channel": 2,
      "note": 69,
      "start": 18.4765,
      "duration": 0.2027,
      "velocity": 104,
      "chip": "ym2612"
    },
    {
      "channel": 3,
      "note": 72,
      "start": 18.4771,
      "duration": 0.2026,
      "velocity": 104,
      "chip": "ym2612"
    },
    {
      "channel": 4,
      "note": 98,
      "start": 18.4776,
      "duration": 0.0978,
      "velocity": 127,
      "chip": "ym2612"
    },
    {
      "channel": 4,
      "note": 98,
      "start": 18.5756,
      "duration": 0.1046,
      "velocity": 127,
      "chip": "ym2612"
    },
    {
      "channel": 0,
      "note": 49,
      "start": 18.5759,
      "duration": 0.0112,
      "velocity": 117,
      "chip": "ym2612"
    },
    {
      "channel": 0,
      "note": 48,
      "start": 18.5871,
      "duration": 0.012,
      "velocity": 117,
      "chip": "ym2612"
    },
    {
      "channel": 0,
      "note": 47,
      "start": 18.5992,
      "duration": 0.0284,
      "velocity": 117,
      "chip": "ym2612"
    },
    {
      "channel": 0,
      "note": 46,
      "start": 18.6276,
      "duration": 0.0333,
      "velocity": 117,
      "chip": "ym2612"
    },
    {
      "channel": 0,
      "note": 45,
      "start": 18.6608,
      "duration": 0.0172,
      "velocity": 117,
      "chip": "ym2612"
    },
    {
      "channel": 0,
      "note": 50,
      "start": 18.6782,
      "duration": 0.0856,
      "velocity": 117,
      "chip": "ym2612"
    },
    {
      "channel": 1,
      "note": 74,
      "start": 18.6788,
      "duration": 0.0856,
      "velocity": 104,
      "chip": "ym2612"
    },
    {
      "channel": 2,
      "note": 69,
      "start": 18.6793,
      "duration": 0.0856,
      "velocity": 104,
      "chip": "ym2612"
    },
    {
      "channel": 3,
      "note": 74,
      "start": 18.6798,
      "duration": 0.1717,
      "velocity": 104,
      "chip": "ym2612"
    },
    {
      "channel": 4,
      "note": 98,
      "start": 18.6804,
      "duration": 0.0851,
      "velocity": 127,
      "chip": "ym2612"
    },
    {
      "channel": 0,
      "note": 60,
      "start": 18.7639,
      "duration": 0.0869,
      "velocity": 117,
      "chip": "ym2612"
    },
    {
      "channel": 1,
      "note": 86,
      "start": 18.7645,
      "duration": 0.1735,
      "velocity": 104,
      "chip": "ym2612"
    },
    {
      "channel": 2,
      "note": 81,
      "start": 18.765,
      "duration": 0.1735,
      "velocity": 104,
      "chip": "ym2612"
    },
    {
      "channel": 4,
      "note": 98,
      "start": 18.7657,
      "duration": 0.088,
      "velocity": 119,
      "chip": "ym2612"
    },
    {
      "channel": 0,
      "note": 50,
      "start": 18.851,
      "duration": 0.0865,
      "velocity": 117,
      "chip": "ym2612"
    },
    {
      "channel": 3,
      "note": 74,
      "start": 18.8517,
      "duration": 0.0874,
      "velocity": 104,
      "chip": "ym2612"
    },
    {
      "channel": 4,
      "note": 31,
      "start": 18.8539,
      "duration": 0.0874,
      "velocity": 127,
      "chip": "ym2612"
    },
    {
      "channel": 0,
      "note": 57,
      "start": 18.9376,
      "duration": 0.0987,
      "velocity": 117,
      "chip": "ym2612"
    },
    {
      "channel": 1,
      "note": 86,
      "start": 18.9382,
      "duration": 0.1851,
      "velocity": 104,
      "chip": "ym2612"
    },
    {
      "channel": 2,
      "note": 81,
      "start": 18.9387,
      "duration": 0.1851,
      "velocity": 104,
      "chip": "ym2612"
    },
    {
      "channel": 3,
      "note": 86,
      "start": 18.9393,
      "duration": 0.1851,
      "velocity": 104,
      "chip": "ym2612"
    },
    {
      "channel": 4,
      "note": 98,
      "start": 18.9414,
      "duration": 0.0956,
      "velocity": 127,
      "chip": "ym2612"
    },
    {
      "channel": 0,
      "note": 60,
      "start": 19.0365,
      "duration": 0.0862,
      "velocity": 117,
      "chip": "ym2612"
    },
    {
      "channel": 4,
      "note": 98,
      "start": 19.0373,
      "duration": 0.0876,
      "velocity": 127,
      "chip": "ym2612"
    },
    {
      "channel": 0,
      "note": 62,
      "start": 19.1229,
      "duration": 0.0875,
      "velocity": 117,
      "chip": "ym2612"
    },
    {
      "channel": 1,
      "note": 74,
      "start": 19.1234,
      "duration": 0.1729,
      "velocity": 104,
      "chip": "ym2612"
    },
    {
      "channel": 2,
      "note": 69,
      "start": 19.124,
      "duration": 0.1729,
      "velocity": 104,
      "chip": "ym2612"
    },
    {
      "channel": 3,
      "note": 86,
      "start": 19.1245,
      "duration": 0.1729,
      "velocity": 104,
      "chip": "ym2612"
    },
    {
      "channel": 4,
      "note": 98,
      "start": 19.1251,
      "duration": 0.086,
      "velocity": 127,
      "chip": "ym2612"
    },
    {
      "channel": 0,
      "note": 50,
      "start": 19.2105,
      "duration": 0.088,
      "velocity": 117,
      "chip": "ym2612"
    },
    {
      "channel": 4,
      "note": 98,
      "start": 19.2113,
      "duration": 0.0866,
      "velocity": 127,
      "chip": "ym2612"
    },
    {
      "channel": 1,
      "note": 74,
      "start": 19.2965,
      "duration": 0.1977,
      "velocity": 104,
      "chip": "ym2612"
    },
    {
      "channel": 2,
      "note": 69,
      "start": 19.297,
      "duration": 0.1978,
      "velocity": 104,
      "chip": "ym2612"
    },
    {
      "channel": 3,
      "note": 74,
      "start": 19.2976,
      "duration": 0.1977,
      "velocity": 104,
      "chip": "ym2612"
    },
    {
      "channel": 4,
      "note": 98,
      "start": 19.2981,
      "duration": 0.0975,
      "velocity": 127,
      "chip": "ym2612"
    },
    {
      "channel": 0,
      "note": 49,
      "start": 19.2985,
      "duration": 0.01,
      "velocity": 117,
      "chip": "ym2612"
    },
    {
      "channel": 0,
      "note": 48,
      "start": 19.3085,
      "duration": 0.0243,
      "velocity": 117,
      "chip": "ym2612"
    },
    {
      "channel": 0,
      "note": 47,
      "start": 19.3328,
      "duration": 0.0284,
      "velocity": 117,
      "chip": "ym2612"
    },
    {
      "channel": 0,
      "note": 46,
      "start": 19.3612,
      "duration": 0.0167,
      "velocity": 117,
      "chip": "ym2612"
    },
    {
      "channel": 0,
      "note": 45,
      "start": 19.3779,
      "duration": 0.0171,
      "velocity": 117,
      "chip": "ym2612"
    },
    {
      "channel": 0,
      "note": 50,
      "start": 19.3951,
      "duration": 0.0985,
      "velocity": 117,
      "chip": "ym2612"
    },
    {
      "channel": 4,
      "note": 98,
      "start": 19.3958,
      "duration": 0.1,
      "velocity": 127,
      "chip": "ym2612"
    },
    {
      "channel": 0,
      "note": 60,
      "start": 19.4938,
      "duration": 0.0851,
      "velocity": 117,
      "chip": "ym2612"
    },
    {
      "channel": 1,
      "note": 74,
      "start": 19.4944,
      "duration": 0.085,
      "velocity": 104,
      "chip": "ym2612"
    },
    {
      "channel": 2,
      "note": 69,
      "start": 19.4949,
      "duration": 0.0851,
      "velocity": 104,
      "chip": "ym2612"
    },
    {
      "channel": 3,
      "note": 74,
      "start": 19.4955,
      "duration": 0.1727,
      "velocity": 104,
      "chip": "ym2612"
    },
    {
      "channel": 4,
      "note": 98,
      "start": 19.496,
      "duration": 0.0861,
      "velocity": 119,
      "chip": "ym2612"
    },
    {
      "channel": 0,
      "note": 50,
      "start": 19.579,
      "duration": 0.0875,
      "velocity": 117,
      "chip": "ym2612"
    },
    {
      "channel": 1,
      "note": 86,
      "start": 19.5796,
      "duration": 0.0874,
      "velocity": 104,
      "chip": "ym2612"
    },
    {
      "channel": 2,
      "note": 81,
      "start": 19.5802,
      "duration": 0.0874,
      "velocity": 104,
      "chip": "ym2612"
    },
    {
      "channel": 4,
      "note": 31,
      "start": 19.5823,
      "duration": 0.0879,
      "velocity": 127,
      "chip": "ym2612"
    },
    {
      "channel": 0,
      "note": 57,
      "start": 19.6666,
      "duration": 0.0872,
      "velocity": 117,
      "chip": "ym2612"
    },
    {
      "channel": 1,
      "note": 86,
      "start": 19.6672,
      "duration": 0.0872,
      "velocity": 104,
      "chip": "ym2612"
    },
    {
      "channel": 2,
      "note": 81,
      "start": 19.6677,
      "duration": 0.0872,
      "velocity": 104,
      "chip": "ym2612"
    },
    {
      "channel": 3,
      "note": 74,
      "start": 19.6683,
      "duration": 0.0871,
      "velocity": 104,
      "chip": "ym2612"
    },
    {
      "channel": 4,
      "note": 98,
      "start": 19.6704,
      "duration": 0.0856,
      "velocity": 127,
      "chip": "ym2612"
    },
    {
      "channel": 0,
      "note": 60,
      "start": 19.754,
      "duration": 0.0854,
      "velocity": 117,
      "chip": "ym2612"
    },
    {
      "channel": 1,
      "note": 74,
      "start": 19.7546,
      "duration": 0.1841,
      "velocity": 104,
      "chip": "ym2612"
    },
    {
      "channel": 2,
      "note": 69,
      "start": 19.7551,
      "duration": 0.1842,
      "velocity": 104,
      "chip": "ym2612"
    },
    {
      "channel": 3,
      "note": 86,
      "start": 19.7556,
      "duration": 0.0844,
      "velocity": 104,
      "chip": "ym2612"
    },
    {
      "channel": 4,
      "note": 98,
      "start": 19.7562,
      "duration": 0.0844,
      "velocity": 127,
      "chip": "ym2612"
    },
    {
      "channel": 0,
      "note": 62,
      "start": 19.8395,
      "duration": 0.0985,
      "velocity": 117,
      "chip": "ym2612"
    },
    {
      "channel": 3,
      "note": 86,
      "start": 19.8402,
      "duration": 0.2848,
      "velocity": 104,
      "chip": "ym2612"
    },
    {
      "channel": 4,
      "note": 98,
      "start": 19.8408,
      "duration": 0.0991,
      "velocity": 127,
      "chip": "ym2612"
    },
    {
      "channel": 0,
      "note": 48,
      "start": 19.9382,
      "duration": 0.0872,
      "velocity": 117,
      "chip": "ym2612"
    },
    {
      "channel": 1,
      "note": 72,
      "start": 19.9388,
      "duration": 0.185,
      "velocity": 104,
      "chip": "ym2612"
    },
    {
      "channel": 2,
      "note": 67,
      "start": 19.9394,
      "duration": 0.185,
      "velocity": 104,
      "chip": "ym2612"
    },
    {
      "channel": 4,
      "note": 98,
      "start": 19.9401,
      "duration": 0.0847,
      "velocity": 127,
      "chip": "ym2612"
    },
    {
      "channel": 4,
      "note": 98,
      "start": 20.025,
      "duration": 0.1006,
      "velocity": 127,
      "chip": "ym2612"
    },
    {
      "channel": 0,
      "note": 47,
      "start": 20.0254,
      "duration": 0.0114,
      "velocity": 117,
      "chip": "ym2612"
    },
    {
      "channel": 0,
      "note": 46,
      "start": 20.0368,
      "duration": 0.0125,
      "velocity": 117,
      "chip": "ym2612"
    },
    {
      "channel": 0,
      "note": 45,
      "start": 20.0493,
      "duration": 0.0145,
      "velocity": 117,
      "chip": "ym2612"
    },
    {
      "channel": 0,
      "note": 44,
      "start": 20.0637,
      "duration": 0.0257,
      "velocity": 117,
      "chip": "ym2612"
    },
    {
      "channel": 0,
      "note": 43,
      "start": 20.0894,
      "duration": 0.0167,
      "velocity": 117,
      "chip": "ym2612"
    },
    {
      "channel": 0,
      "note": 43,
      "start": 20.1062,
      "duration": 0.0171,
      "velocity": 117,
      "chip": "ym2612"
    },
    {
      "channel": 0,
      "note": 48,
      "start": 20.1235,
      "duration": 0.0864,
      "velocity": 117,
      "chip": "ym2612"
    },
    {
      "channel": 1,
      "note": 72,
      "start": 20.124,
      "duration": 0.0863,
      "velocity": 104,
      "chip": "ym2612"
    },
    {
      "channel": 2,
      "note": 67,
      "start": 20.1246,
      "duration": 0.0864,
      "velocity": 104,
      "chip": "ym2612"
    },
    {
      "channel": 3,
      "note": 72,
      "start": 20.1252,
      "duration": 0.1728,
      "velocity": 104,
      "chip": "ym2612"
    },
    {
      "channel": 4,
      "note": 98,
      "start": 20.1258,
      "duration": 0.0858,
      "velocity": 127,
      "chip": "ym2612"
    },
    {
      "channel": 0,
      "note": 58,
      "start": 20.21,
      "duration": 0.0874,
      "velocity": 117,
      "chip": "ym2612"
    },
    {
      "channel": 1,
      "note": 84,
      "start": 20.2105,
      "duration": 0.1866,
      "velocity": 104,
      "chip": "ym2612"
    },
    {
      "channel": 2,
      "note": 79,
      "start": 20.2111,
      "duration": 0.1865,
      "velocity": 104,
      "chip": "ym2612"
    },
    {
      "channel": 4,
      "note": 98,
      "start": 20.2117,
      "duration": 0.0885,
      "velocity": 119,
      "chip": "ym2612"
    },
    {
      "channel": 0,
      "note": 48,
      "start": 20.2975,
      "duration": 0.099,
      "velocity": 117,
      "chip": "ym2612"
    },
    {
      "channel": 3,
      "note": 72,
      "start": 20.2982,
      "duration": 0.1,
      "velocity": 104,
      "chip": "ym2612"
    },
    {
      "channel": 4,
      "note": 31,
      "start": 20.3004,
      "duration": 0.1,
      "velocity": 127,
      "chip": "ym2612"
    },
    {
      "channel": 0,
      "note": 55,
      "start": 20.3967,
      "duration": 0.0868,
      "velocity": 117,
      "chip": "ym2612"
    },
    {
      "channel": 1,
      "note": 84,
      "start": 20.3972,
      "duration": 0.1734,
      "velocity": 104,
      "chip": "ym2612"
    },
    {
      "channel": 2,
      "note": 79,
      "start": 20.3978,
      "duration": 0.1734,
      "velocity": 104,
      "chip": "ym2612"
    },
    {
      "channel": 3,
      "note": 84,
      "start": 20.3984,
      "duration": 0.1734,
      "velocity": 104,
      "chip": "ym2612"
    },
    {
      "channel": 4,
      "note": 98,
      "start": 20.4005,
      "duration": 0.0836,
      "velocity": 127,
      "chip": "ym2612"
    },
    {
      "channel": 0,
      "note": 58,
      "start": 20.4836,
      "duration": 0.0865,
      "velocity": 117,
      "chip": "ym2612"
    },
    {
      "channel": 4,
      "note": 98,
      "start": 20.4844,
      "duration": 0.0879,
      "velocity": 127,
      "chip": "ym2612"
    },
    {
      "channel": 0,
      "note": 60,
      "start": 20.5702,
      "duration": 0.0873,
      "velocity": 117,
      "chip": "ym2612"
    },
    {
      "channel": 1,
      "note": 72,
      "start": 20.5708,
      "duration": 0.1728,
      "velocity": 104,
      "chip": "ym2612"
    },
    {
      "channel": 2,
      "note": 67,
      "start": 20.5714,
      "duration": 0.1728,
      "velocity": 104,
      "chip": "ym2612"
    },
    {
      "channel": 3,
      "note": 84,
      "start": 20.5719,
      "duration": 0.1728,
      "velocity": 104,
      "chip": "ym2612"
    },
    {
      "channel": 4,
      "note": 98,
      "start": 20.5724,
      "duration": 0.0858,
      "velocity": 127,
      "chip": "ym2612"
    },
    {
      "channel": 0,
      "note": 48,
      "start": 20.6577,
      "duration": 0.0881,
      "velocity": 117,
      "chip": "ym2612"
    },
    {
      "channel": 4,
      "note": 98,
      "start": 20.6585,
      "duration": 0.0868,
      "velocity": 127,
      "chip": "ym2612"
    },
    {
      "channel": 1,
      "note": 72,
      "start": 20.7438,
      "duration": 0.2018,
      "velocity": 104,
      "chip": "ym2612"
    },
    {
      "channel": 2,
      "note": 67,
      "start": 20.7443,
      "duration": 0.2019,
      "velocity": 104,
      "chip": "ym2612"
    },
    {
      "channel": 3,
      "note": 72,
      "start": 20.7449,
      "duration": 0.2019,
      "velocity": 104,
      "chip": "ym2612"
    },
    {
      "channel": 4,
      "note": 98,
      "start": 20.7454,
      "duration": 0.1149,
      "velocity": 127,
      "chip": "ym2612"
    },
    {
      "channel": 0,
      "note": 47,
      "start": 20.7458,
      "duration": 0.0225,
      "velocity": 117,
      "chip": "ym2612"
    },
    {
      "channel": 0,
      "note": 46,
      "start": 20.7683,
      "duration": 0.0125,
      "velocity": 117,
      "chip": "ym2612"
    },
    {
      "channel": 0,
      "note": 45,
      "start": 20.7808,
      "duration": 0.0284,
      "velocity": 117,
      "chip": "ym2612"
    },
    {
      "channel": 0,
      "note": 44,
      "start": 20.8092,
      "duration": 0.0167,
      "velocity": 117,
      "chip": "ym2612"
    },
    {
      "channel": 0,
      "note": 43,
      "start": 20.8259,
      "duration": 0.0337,
      "velocity": 117,
      "chip": "ym2612"
    },
    {
      "channel": 0,
      "note": 48,
      "start": 20.8598,
      "duration": 0.0853,
      "velocity": 117,
      "chip": "ym2612"
    },
    {
      "channel": 4,
      "note": 98,
      "start": 20.8605,
      "duration": 0.0868,
      "velocity": 127,
      "chip": "ym2612"
    },
    {
      "channel": 0,
      "note": 58,
      "start": 20.9452,
      "duration": 0.0875,
      "velocity": 117,
      "chip": "ym2612"
    },
    {
      "channel": 1,
      "note": 72,
      "start": 20.9458,
      "duration": 0.0875,
      "velocity": 104,
      "chip": "ym2612"
    },
    {
      "channel": 2,
      "note": 67,
      "start": 20.9463,
      "duration": 0.0875,
      "velocity": 104,
      "chip": "ym2612"
    },
    {
      "channel": 3,
      "note": 72,
      "start": 20.9469,
      "duration": 0.1742,
      "velocity": 104,
      "chip": "ym2612"
    },
    {
      "channel": 4,
      "note": 98,
      "start": 20.9474,
      "duration": 0.0886,
      "velocity": 119,
      "chip": "ym2612"
    },
    {
      "channel": 0,
      "note": 48,
      "start": 21.0329,
      "duration": 0.0865,
      "velocity": 117,
      "chip": "ym2612"
    },
    {
      "channel": 1,
      "note": 84,
      "start": 21.0335,
      "duration": 0.0866,
      "velocity": 104,
      "chip": "ym2612"
    },
    {
      "channel": 2,
      "note": 79,
      "start": 21.034,
      "duration": 0.0865,
      "velocity": 104,
      "chip": "ym2612"
    },
    {
      "channel": 4,
      "note": 31,
      "start": 21.0362,
      "duration": 0.0871,
      "velocity": 127,
      "chip": "ym2612"
    },
    {
      "channel": 0,
      "note": 55,
      "start": 21.1196,
      "duration": 0.0877,
      "velocity": 117,
      "chip": "ym2612"
    },
    {
      "channel": 1,
      "note": 84,
      "start": 21.1201,
      "duration": 0.0878,
      "velocity": 104,
      "chip": "ym2612"
    },
    {
      "channel": 2,
      "note": 79,
      "start": 21.1207,
      "duration": 0.0878,
      "velocity": 104,
      "chip": "ym2612"
    },
    {
      "channel": 3,
      "note": 72,
      "start": 21.1213,
      "duration": 0.0878,
      "velocity": 104,
      "chip": "ym2612"
    },
    {
      "channel": 4,
      "note": 98,
      "start": 21.1234,
      "duration": 0.0862,
      "velocity": 127,
      "chip": "ym2612"
    },
    {
      "channel": 0,
      "note": 58,
      "start": 21.2076,
      "duration": 0.0983,
      "velocity": 117,
      "chip": "ym2612"
    },
    {
      "channel": 1,
      "note": 72,
      "start": 21.2081,
      "duration": 0.1862,
      "velocity": 104,
      "chip": "ym2612"
    },
    {
      "channel": 2,
      "note": 67,
      "start": 21.2087,
      "duration": 0.1862,
      "velocity": 104,
      "chip": "ym2612"
    },
    {
      "channel": 3,
      "note": 84,
      "start": 21.2092,
      "duration": 0.0974,
      "velocity": 104,
      "chip": "ym2612"
    },
    {
      "channel": 4,
      "note": 98,
      "start": 21.2098,
      "duration": 0.0974,
      "velocity": 127,
      "chip": "ym2612"
    },
    {
      "channel": 0,
      "note": 60,
      "start": 21.3061,
      "duration": 0.0877,
      "velocity": 117,
      "chip": "ym2612"
    },
    {
      "channel": 3,
      "note": 84,
      "start": 21.3068,
      "duration": 0.0886,
      "velocity": 104,
      "chip": "ym2612"
    },
    {
      "channel": 4,
      "note": 98,
      "start": 21.3073,
      "duration": 0.0887,
      "velocity": 127,
      "chip": "ym2612"
    },
    {
      "channel": 0,
      "note": 50,
      "start": 21.3939,
      "duration": 0.0886,
      "velocity": 117,
      "chip": "ym2612"
    },
    {
      "channel": 1,
      "note": 74,
      "start": 21.3945,
      "duration": 0.1739,
      "velocity": 104,
      "chip": "ym2612"
    },
    {
      "channel": 2,
      "note": 69,
      "start": 21.3951,
      "duration": 0.1739,
      "velocity": 104,
      "chip": "ym2612"
    },
    {
      "channel": 3,
      "note": 72,
      "start": 21.3956,
      "duration": 0.1738,
      "velocity": 104,
      "chip": "ym2612"
    },
    {
      "channel": 4,
      "note": 98,
      "start": 21.3961,
      "duration": 0.0856,
      "velocity": 127,
      "chip": "ym2612"
    },
    {
      "channel": 4,
      "note": 98,
      "start": 21.4818,
      "duration": 0.0882,
      "velocity": 127,
      "chip": "ym2612"
    },
    {
      "channel": 0,
      "note": 49,
      "start": 21.4825,
      "duration": 0.0112,
      "velocity": 117,
      "chip": "ym2612"
    },
    {
      "channel": 0,
      "note": 48,
      "start": 21.4938,
      "duration": 0.0121,
      "velocity": 117,
      "chip": "ym2612"
    },
    {
      "channel": 0,
      "note": 47,
      "start": 21.5058,
      "duration": 0.0364,
      "velocity": 117,
      "chip": "ym2612"
    },
    {
      "channel": 0,
      "note": 46,
      "start": 21.5422,
      "duration": 0.0122,
      "velocity": 117,
      "chip": "ym2612"
    },
    {
      "channel": 0,
      "note": 45,
      "start": 21.5544,
      "duration": 0.0134,
      "velocity": 117,
      "chip": "ym2612"
    },
    {
      "channel": 0,
      "note": 50,
      "start": 21.568,
      "duration": 0.088,
      "velocity": 117,
      "chip": "ym2612"
    },
    {
      "channel": 1,
      "note": 74,
      "start": 21.5685,
      "duration": 0.088,
      "velocity": 104,
      "chip": "ym2612"
    },
    {
      "channel": 2,
      "note": 69,
      "start": 21.5691,
      "duration": 0.088,
      "velocity": 104,
      "chip": "ym2612"
    },
    {
      "channel": 3,
      "note": 74,
      "start": 21.5697,
      "duration": 0.1846,
      "velocity": 104,
      "chip": "ym2612"
    },
    {
      "channel": 4,
      "note": 98,
      "start": 21.5702,
      "duration": 0.0875,
      "velocity": 127,
      "chip": "ym2612"
    },
    {
      "channel": 0,
      "note": 60,
      "start": 21.6561,
      "duration": 0.0976,
      "velocity": 117,
      "chip": "ym2612"
    },
    {
      "channel": 1,
      "note": 86,
      "start": 21.6567,
      "duration": 0.1848,
      "velocity": 104,
      "chip": "ym2612"
    },
    {
      "channel": 2,
      "note": 81,
      "start": 21.6572,
      "duration": 0.1848,
      "velocity": 104,
      "chip": "ym2612"
    },
    {
      "channel": 4,
      "note": 98,
      "start": 21.6578,
      "duration": 0.0987,
      "velocity": 119,
      "chip": "ym2612"
    },
    {
      "channel": 0,
      "note": 50,
      "start": 21.7538,
      "duration": 0.0871,
      "velocity": 117,
      "chip": "ym2612"
    },
    {
      "channel": 3,
      "note": 74,
      "start": 21.7545,
      "duration": 0.0881,
      "velocity": 104,
      "chip": "ym2612"
    },
    {
      "channel": 4,
      "note": 31,
      "start": 21.7567,
      "duration": 0.088,
      "velocity": 127,
      "chip": "ym2612"
    },
    {
      "channel": 0,
      "note": 57,
      "start": 21.8411,
      "duration": 0.0871,
      "velocity": 117,
      "chip": "ym2612"
    },
    {
      "channel": 1,
      "note": 86,
      "start": 21.8417,
      "duration": 0.1733,
      "velocity": 104,
      "chip": "ym2612"
    },
    {
      "channel": 2,
      "note": 81,
      "start": 21.8422,
      "duration": 0.1733,
      "velocity": 104,
      "chip": "ym2612"
    },
    {
      "channel": 3,
      "note": 86,
      "start": 21.8428,
      "duration": 0.1733,
      "velocity": 104,
      "chip": "ym2612"
    },
    {
      "channel": 4,
      "note": 98,
      "start": 21.8449,
      "duration": 0.084,
      "velocity": 127,
      "chip": "ym2612"
    },
    {
      "channel": 0,
      "note": 60,
      "start": 21.9283,
      "duration": 0.086,
      "velocity": 117,
      "chip": "ym2612"
    },
    {
      "channel": 4,
      "note": 98,
      "start": 21.9291,
      "duration": 0.0875,
      "velocity": 127,
      "chip": "ym2612"
    },
    {
      "channel": 0,
      "note": 62,
      "start": 22.0146,
      "duration": 0.0854,
      "velocity": 117,
      "chip": "ym2612"
    },
    {
      "channel": 1,
      "note": 74,
      "start": 22.0151,
      "duration": 0.1839,
      "velocity": 104,
      "chip": "ym2612"
    },
    {
      "channel": 2,
      "note": 69,
      "start": 22.0156,
      "duration": 0.184,
      "velocity": 104,
      "chip": "ym2612"
    },
    {
      "channel": 3,
      "note": 86,
      "start": 22.0162,
      "duration": 0.1839,
      "velocity": 104,
      "chip": "ym2612"
    },
    {
      "channel": 4,
      "note": 98,
      "start": 22.0168,
      "duration": 0.0839,
      "velocity": 127,
      "chip": "ym2612"
    },
    {
      "channel": 0,
      "note": 50,
      "start": 22.1002,
      "duration": 0.1014,
      "velocity": 117,
      "chip": "ym2612"
    },
    {
      "channel": 4,
      "note": 98,
      "start": 22.1009,
      "duration": 0.0998,
      "velocity": 127,
      "chip": "ym2612"
    },
    {
      "channel": 1,
      "note": 74,
      "start": 22.1993,
      "duration": 0.1729,
      "velocity": 104,
      "chip": "ym2612"
    },
    {
      "channel": 2,
      "note": 69,
      "start": 22.1998,
      "duration": 0.1729,
      "velocity": 104,
      "chip": "ym2612"
    },
    {
      "channel": 3,
      "note": 74,
      "start": 22.2003,
      "duration": 0.1729,
      "velocity": 104,
      "chip": "ym2612"
    },
    {
      "channel": 4,
      "note": 98,
      "start": 22.2009,
      "duration": 0.0855,
      "velocity": 127,
      "chip": "ym2612"
    },
    {
      "channel": 0,
      "note": 49,
      "start": 22.2015,
      "duration": 0.01,
      "velocity": 117,
      "chip": "ym2612"
    },
    {
      "channel": 0,
      "note": 48,
      "start": 22.2115,
      "duration": 0.0123,
      "velocity": 117,
      "chip": "ym2612"
    },
    {
      "channel": 0,
      "note": 47,
      "start": 22.2238,
      "duration": 0.0133,
      "velocity": 117,
      "chip": "ym2612"
    },
    {
      "channel": 0,
      "note": 46,
      "start": 22.2372,
      "duration": 0.0115,
      "velocity": 117,
      "chip": "ym2612"
    },
    {
      "channel": 0,
      "note": 45,
      "start": 22.2486,
      "duration": 0.0246,
      "velocity": 117,
      "chip": "ym2612"
    },
    {
      "channel": 0,
      "note": 44,
      "start": 22.2732,
      "duration": 0.0124,
      "velocity": 117,
      "chip": "ym2612"
    },
    {
      "channel": 0,
      "note": 50,
      "start": 22.2859,
      "duration": 0.0857,
      "velocity": 117,
      "chip": "ym2612"
    },
    {
      "channel": 4,
      "note": 98,
      "start": 22.2866,
      "duration": 0.0871,
      "velocity": 127,
      "chip": "ym2612"
    },
    {
      "channel": 0,
      "note": 60,
      "start": 22.3717,
      "duration": 0.0854,
      "velocity": 117,
      "chip": "ym2612"
    },
    {
      "channel": 1,
      "note": 74,
      "start": 22.3723,
      "duration": 0.0854,
      "velocity": 104,
      "chip": "ym2612"
    },
    {
      "channel": 2,
      "note": 69,
      "start": 22.3728,
      "duration": 0.0854,
      "velocity": 104,
      "chip": "ym2612"
    },
    {
      "channel": 3,
      "note": 74,
      "start": 22.3734,
      "duration": 0.1723,
      "velocity": 104,
      "chip": "ym2612"
    },
    {
      "channel": 4,
      "note": 98,
      "start": 22.374,
      "duration": 0.0864,
      "velocity": 119,
      "chip": "ym2612"
    },
    {
      "channel": 0,
      "note": 50,
      "start": 22.4573,
      "duration": 0.0867,
      "velocity": 117,
      "chip": "ym2612"
    },
    {
      "channel": 1,
      "note": 86,
      "start": 22.4579,
      "duration": 0.0868,
      "velocity": 104,
      "chip": "ym2612"
    },
    {
      "channel": 2,
      "note": 81,
      "start": 22.4585,
      "duration": 0.0867,
      "velocity": 104,
      "chip": "ym2612"
    },
    {
      "channel": 4,
      "note": 31,
      "start": 22.4606,
      "duration": 0.0873,
      "velocity": 127,
      "chip": "ym2612"
    },
    {
      "channel": 0,
      "note": 57,
      "start": 22.5442,
      "duration": 0.0992,
      "velocity": 117,
      "chip": "ym2612"
    },
    {
      "channel": 1,
      "note": 86,
      "start": 22.5447,
      "duration": 0.0993,
      "velocity": 104,
      "chip": "ym2612"
    },
    {
      "channel": 2,
      "note": 81,
      "start": 22.5453,
      "duration": 0.0992,
      "velocity": 104,
      "chip": "ym2612"
    },
    {
      "channel": 3,
      "note": 74,
      "start": 22.5459,
      "duration": 0.0992,
      "velocity": 104,
      "chip": "ym2612"
    },
    {
      "channel": 4,
      "note": 98,
      "start": 22.548,
      "duration": 0.0976,
      "velocity": 127,
      "chip": "ym2612"
    },
    {
      "channel": 0,
      "note": 60,
      "start": 22.6436,
      "duration": 0.0872,
      "velocity": 117,
      "chip": "ym2612"
    },
    {
      "channel": 1,
      "note": 74,
      "start": 22.6442,
      "duration": 0.1764,
      "velocity": 103,
      "chip": "ym2612"
    },
    {
      "channel": 2,
      "note": 69,
      "start": 22.6447,
      "duration": 0.1779,
      "velocity": 103,
      "chip": "ym2612"
    },
    {
      "channel": 3,
      "note": 86,
      "start": 22.6453,
      "duration": 0.0862,
      "velocity": 104,
      "chip": "ym2612"
    },
    {
      "channel": 4,
      "note": 98,
      "start": 22.6458,
      "duration": 0.0863,
      "velocity": 127,
      "chip": "ym2612"
    },
    {
      "channel": 0,
      "note": 62,
      "start": 22.731,
      "duration": 0.0874,
      "velocity": 117,
      "chip": "ym2612"
    },
    {
      "channel": 3,
      "note": 86,
      "start": 22.7317,
      "duration": 0.0931,
      "velocity": 118,
      "chip": "ym2612"
    },
    {
      "channel": 4,
      "note": 98,
      "start": 22.7322,
      "duration": 0.0932,
      "velocity": 127,
      "chip": "ym2612"
    },
    {
      "channel": 0,
      "note": 48,
      "start": 22.8186,
      "duration": 0.0918,
      "velocity": 117,
      "chip": "ym2612"
    },
    {
      "channel": 1,
      "note": 84,
      "start": 22.8207,
      "duration": 0.0859,
      "velocity": 103,
      "chip": "ym2612"
    },
    {
      "channel": 2,
      "note": 79,
      "start": 22.8228,
      "duration": 0.0843,
      "velocity": 103,
      "chip": "ym2612"
    },
    {
      "channel": 3,
      "note": 86,
      "start": 22.825,
      "duration": 0.0843,
      "velocity": 118,
      "chip": "ym2612"
    },
    {
      "channel": 4,
      "note": 98,
      "start": 22.8256,
      "duration": 0.0842,
      "velocity": 127,
      "chip": "ym2612"
    },
    {
      "channel": 1,
      "note": 96,
      "start": 22.9067,
      "duration": 0.0975,
      "velocity": 103,
      "chip": "ym2612"
    },
    {
      "channel": 2,
      "note": 91,
      "start": 22.9073,
      "duration": 0.0974,
      "velocity": 103,
      "chip": "ym2612"
    },
    {
      "channel": 3,
      "note": 86,
      "start": 22.9095,
      "duration": 0.0959,
      "velocity": 118,
      "chip": "ym2612"
    },
    {
      "channel": 4,
      "note": 98,
      "start": 22.91,
      "duration": 0.0959,
      "velocity": 127,
      "chip": "ym2612"
    },
    {
      "channel": 0,
      "note": 47,
      "start": 22.9104,
      "duration": 0.0086,
      "velocity": 117,
      "chip": "ym2612"
    },
    {
      "channel": 0,
      "note": 46,
      "start": 22.919,
      "duration": 0.0245,
      "velocity": 117,
      "chip": "ym2612"
    },
    {
      "channel": 0,
      "note": 45,
      "start": 22.9436,
      "duration": 0.0263,
      "velocity": 117,
      "chip": "ym2612"
    },
    {
      "channel": 0,
      "note": 44,
      "start": 22.9699,
      "duration": 0.0167,
      "velocity": 117,
      "chip": "ym2612"
    },
    {
      "channel": 0,
      "note": 43,
      "start": 22.9866,
      "duration": 0.0171,
      "velocity": 117,
      "chip": "ym2612"
    },
    {
      "channel": 0,
      "note": 48,
      "start": 23.0039,
      "duration": 0.0989,
      "velocity": 117,
      "chip": "ym2612"
    },
    {
      "channel": 1,
      "note": 84,
      "start": 23.0044,
      "duration": 0.099,
      "velocity": 103,
      "chip": "ym2612"
    },
    {
      "channel": 2,
      "note": 79,
      "start": 23.0049,
      "duration": 0.0989,
      "velocity": 103,
      "chip": "ym2612"
    },
    {
      "channel": 3,
      "note": 86,
      "start": 23.0055,
      "duration": 0.0989,
      "velocity": 118,
      "chip": "ym2612"
    },
    {
      "channel": 4,
      "note": 98,
      "start": 23.0061,
      "duration": 0.0989,
      "velocity": 127,
      "chip": "ym2612"
    },
    {
      "channel": 0,
      "note": 58,
      "start": 23.1029,
      "duration": 0.0876,
      "velocity": 117,
      "chip": "ym2612"
    },
    {
      "channel": 1,
      "note": 96,
      "start": 23.1035,
      "duration": 0.1754,
      "velocity": 103,
      "chip": "ym2612"
    },
    {
      "channel": 2,
      "note": 91,
      "start": 23.1041,
      "duration": 0.1754,
      "velocity": 103,
      "chip": "ym2612"
    },
    {
      "channel": 3,
      "note": 86,
      "start": 23.1046,
      "duration": 0.0881,
      "velocity": 118,
      "chip": "ym2612"
    },
    {
      "channel": 4,
      "note": 98,
      "start": 23.1051,
      "duration": 0.0898,
      "velocity": 119,
      "chip": "ym2612"
    },
    {
      "channel": 0,
      "note": 48,
      "start": 23.1907,
      "duration": 0.0877,
      "velocity": 117,
      "chip": "ym2612"
    },
    {
      "channel": 3,
      "note": 86,
      "start": 23.1929,
      "duration": 0.0886,
      "velocity": 118,
      "chip": "ym2612"
    },
    {
      "channel": 4,
      "note": 31,
      "start": 23.1951,
      "duration": 0.0887,
      "velocity": 127,
      "chip": "ym2612"
    },
    {
      "channel": 0,
      "note": 55,
      "start": 23.2785,
      "duration": 0.0872,
      "velocity": 117,
      "chip": "ym2612"
    },
    {
      "channel": 1,
      "note": 96,
      "start": 23.279,
      "duration": 0.1739,
      "velocity": 103,
      "chip": "ym2612"
    },
    {
      "channel": 2,
      "note": 91,
      "start": 23.2796,
      "duration": 0.1739,
      "velocity": 103,
      "chip": "ym2612"
    },
    {
      "channel": 3,
      "note": 86,
      "start": 23.2818,
      "duration": 0.0846,
      "velocity": 118,
      "chip": "ym2612"
    },
    {
      "channel": 4,
      "note": 98,
      "start": 23.2839,
      "duration": 0.083,
      "velocity": 127,
      "chip": "ym2612"
    },
    {
      "channel": 0,
      "note": 58,
      "start": 23.3659,
      "duration": 0.0866,
      "velocity": 117,
      "chip": "ym2612"
    },
    {
      "channel": 3,
      "note": 86,
      "start": 23.3666,
      "duration": 0.0875,
      "velocity": 118,
      "chip": "ym2612"
    },
    {
      "channel": 4,
      "note": 98,
      "start": 23.3671,
      "duration": 0.0875,
      "velocity": 127,
      "chip": "ym2612"
    },
    {
      "channel": 0,
      "note": 60,
      "start": 23.4526,
      "duration": 0.0997,
      "velocity": 117,
      "chip": "ym2612"
    },
    {
      "channel": 1,
      "note": 84,
      "start": 23.4532,
      "duration": 0.0996,
      "velocity": 103,
      "chip": "ym2612"
    },
    {
      "channel": 2,
      "note": 79,
      "start": 23.4537,
      "duration": 0.0996,
      "velocity": 103,
      "chip": "ym2612"
    },
    {
      "channel": 3,
      "note": 86,
      "start": 23.4543,
      "duration": 0.1012,
      "velocity": 118,
      "chip": "ym2612"
    },
    {
      "channel": 4,
      "note": 98,
      "start": 23.4548,
      "duration": 0.1013,
      "velocity": 127,
      "chip": "ym2612"
    },
    {
      "channel": 0,
      "note": 48,
      "start": 23.5524,
      "duration": 0.0904,
      "velocity": 117,
      "chip": "ym2612"
    },
    {
      "channel": 1,
      "note": 96,
      "start": 23.553,
      "duration": 0.0861,
      "velocity": 103,
      "chip": "ym2612"
    },
    {
      "channel": 2,
      "note": 91,
      "start": 23.5535,
      "duration": 0.0861,
      "velocity": 103,
      "chip": "ym2612"
    },
    {
      "channel": 3,
      "note": 86,
      "start": 23.5557,
      "duration": 0.0861,
      "velocity": 118,
      "chip": "ym2612"
    },
    {
      "channel": 4,
      "note": 98,
      "start": 23.5563,
      "duration": 0.086,
      "velocity": 127,
      "chip": "ym2612"
    },
    {
      "channel": 1,
      "note": 84,
      "start": 23.6392,
      "duration": 0.0988,
      "velocity": 103,
      "chip": "ym2612"
    },
    {
      "channel": 2,
      "note": 79,
      "start": 23.6397,
      "duration": 0.0988,
      "velocity": 103,
      "chip": "ym2612"
    },
    {
      "channel": 3,
      "note": 86,
      "start": 23.6419,
      "duration": 0.0972,
      "velocity": 118,
      "chip": "ym2612"
    },
    {
      "channel": 4,
      "note": 98,
      "start": 23.6425,
      "duration": 0.0972,
      "velocity": 127,
      "chip": "ym2612"
    },
    {
      "channel": 0,
      "note": 47,
      "start": 23.6428,
      "duration": 0.009,
      "velocity": 117,
      "chip": "ym2612"
    },
    {
      "channel": 0,
      "note": 46,
      "start": 23.6518,
      "duration": 0.0123,
      "velocity": 117,
      "chip": "ym2612"
    },
    {
      "channel": 0,
      "note": 45,
      "start": 23.6642,
      "duration": 0.0395,
      "velocity": 117,
      "chip": "ym2612"
    },
    {
      "channel": 0,
      "note": 44,
      "start": 23.7036,
      "duration": 0.0167,
      "velocity": 117,
      "chip": "ym2612"
    },
    {
      "channel": 0,
      "note": 43,
      "start": 23.7203,
      "duration": 0.0171,
      "velocity": 117,
      "chip": "ym2612"
    },
    {
      "channel": 0,
      "note": 48,
      "start": 23.7376,
      "duration": 0.0868,
      "velocity": 117,
      "chip": "ym2612"
    },
    {
      "channel": 1,
      "note": 96,
      "start": 23.7381,
      "duration": 0.174,
      "velocity": 103,
      "chip": "ym2612"
    },
    {
      "channel": 2,
      "note": 91,
      "start": 23.7387,
      "duration": 0.174,
      "velocity": 103,
      "chip": "ym2612"
    },
    {
      "channel": 3,
      "note": 86,
      "start": 23.7393,
      "duration": 0.0858,
      "velocity": 118,
      "chip": "ym2612"
    },
    {
      "channel": 4,
      "note": 98,
      "start": 23.7398,
      "duration": 0.0859,
      "velocity": 127,
      "chip": "ym2612"
    },
    {
      "channel": 0,
      "note": 58,
      "start": 23.8246,
      "duration": 0.087,
      "velocity": 117,
      "chip": "ym2612"
    },
    {
      "channel": 3,
      "note": 86,
      "start": 23.8253,
      "duration": 0.0895,
      "velocity": 118,
      "chip": "ym2612"
    },
    {
      "channel": 4,
      "note": 98,
      "start": 23.8258,
      "duration": 0.0912,
      "velocity": 119,
      "chip": "ym2612"
    },
    {
      "channel": 0,
      "note": 48,
      "start": 23.9117,
      "duration": 0.1009,
      "velocity": 117,
      "chip": "ym2612"
    },
    {
      "channel": 1,
      "note": 96,
      "start": 23.9123,
      "duration": 0.1878,
      "velocity": 103,
      "chip": "ym2612"
    },
    {
      "channel": 2,
      "note": 91,
      "start": 23.9129,
      "duration": 0.1878,
      "velocity": 103,
      "chip": "ym2612"
    },
    {
      "channel": 3,
      "note": 86,
      "start": 23.915,
      "duration": 0.0998,
      "velocity": 118,
      "chip": "ym2612"
    },
    {
      "channel": 4,
      "note": 31,
      "start": 23.9171,
      "duration": 0.0999,
      "velocity": 127,
      "chip": "ym2612"
    },
    {
      "channel": 0,
      "note": 55,
      "start": 24.0127,
      "duration": 0.0868,
      "velocity": 117,
      "chip": "ym2612"
    },
    {
      "channel": 3,
      "note": 86,
      "start": 24.015,
      "duration": 0.0862,
      "velocity": 118,
      "chip": "ym2612"
    },
    {
      "channel": 4,
      "note": 98,
      "start": 24.0172,
      "duration": 0.0846,
      "velocity": 127,
      "chip": "ym2612"
    },
    {
      "channel": 0,
      "note": 58,
      "start": 24.0997,
      "duration": 0.0859,
      "velocity": 117,
      "chip": "ym2612"
    },
    {
      "channel": 1,
      "note": 84,
      "start": 24.1003,
      "duration": 0.0859,
      "velocity": 103,
      "chip": "ym2612"
    },
    {
      "channel": 2,
      "note": 79,
      "start": 24.1008,
      "duration": 0.0859,
      "velocity": 103,
      "chip": "ym2612"
    },
    {
      "channel": 3,
      "note": 86,
      "start": 24.1014,
      "duration": 0.0859,
      "velocity": 118,
      "chip": "ym2612"
    },
    {
      "channel": 4,
      "note": 98,
      "start": 24.1019,
      "duration": 0.0859,
      "velocity": 127,
      "chip": "ym2612"
    },
    {
      "channel": 0,
      "note": 60,
      "start": 24.1858,
      "duration": 0.0867,
      "velocity": 117,
      "chip": "ym2612"
    },
    {
      "channel": 1,
      "note": 96,
      "start": 24.1863,
      "duration": 0.0868,
      "velocity": 103,
      "chip": "ym2612"
    },
    {
      "channel": 2,
      "note": 91,
      "start": 24.1869,
      "duration": 0.0868,
      "velocity": 103,
      "chip": "ym2612"
    },
    {
      "channel": 3,
      "note": 86,
      "start": 24.1875,
      "duration": 0.0884,
      "velocity": 118,
      "chip": "ym2612"
    },
    {
      "channel": 4,
      "note": 98,
      "start": 24.188,
      "duration": 0.0883,
      "velocity": 127,
      "chip": "ym2612"
    },
    {
      "channel": 0,
      "note": 50,
      "start": 24.2727,
      "duration": 0.0896,
      "velocity": 117,
      "chip": "ym2612"
    },
    {
      "channel": 1,
      "note": 84,
      "start": 24.2733,
      "duration": 0.0853,
      "velocity": 103,
      "chip": "ym2612"
    },
    {
      "channel": 2,
      "note": 79,
      "start": 24.2738,
      "duration": 0.0852,
      "velocity": 103,
      "chip": "ym2612"
    },
    {
      "channel": 3,
      "note": 86,
      "start": 24.276,
      "duration": 0.0853,
      "velocity": 118,
      "chip": "ym2612"
    },
    {
      "channel": 4,
      "note": 98,
      "start": 24.2766,
      "duration": 0.0853,
      "velocity": 127,
      "chip": "ym2612"
    },
    {
      "channel": 1,
      "note": 96,
      "start": 24.3587,
      "duration": 0.2017,
      "velocity": 103,
      "chip": "ym2612"
    },
    {
      "channel": 2,
      "note": 91,
      "start": 24.3593,
      "duration": 0.2017,
      "velocity": 103,
      "chip": "ym2612"
    },
    {
      "channel": 3,
      "note": 86,
      "start": 24.3614,
      "duration": 0.1129,
      "velocity": 118,
      "chip": "ym2612"
    },
    {
      "channel": 4,
      "note": 98,
      "start": 24.362,
      "duration": 0.1128,
      "velocity": 127,
      "chip": "ym2612"
    },
    {
      "channel": 0,
      "note": 49,
      "start": 24.3624,
      "duration": 0.0214,
      "velocity": 117,
      "chip": "ym2612"
    },
    {
      "channel": 0,
      "note": 48,
      "start": 24.3838,
      "duration": 0.0123,
      "velocity": 117,
      "chip": "ym2612"
    },
    {
      "channel": 0,
      "note": 47,
      "start": 24.3961,
      "duration": 0.0271,
      "velocity": 117,
      "chip": "ym2612"
    },
    {
      "channel": 0,
      "note": 46,
      "start": 24.4232,
      "duration": 0.0167,
      "velocity": 117,
      "chip": "ym2612"
    },
    {
      "channel": 0,
      "note": 45,
      "start": 24.4399,
      "duration": 0.0337,
      "velocity": 117,
      "chip": "ym2612"
    },
    {
      "channel": 0,
      "note": 50,
      "start": 24.4738,
      "duration": 0.086,
      "velocity": 117,
      "chip": "ym2612"
    },
    {
      "channel": 3,
      "note": 86,
      "start": 24.4744,
      "duration": 0.087,
      "velocity": 118,
      "chip": "ym2612"
    },
    {
      "channel": 4,
      "note": 98,
      "start": 24.475,
      "duration": 0.087,
      "velocity": 127,
      "chip": "ym2612"
    },
    {
      "channel": 0,
      "note": 60,
      "start": 24.56,
      "duration": 0.0859,
      "velocity": 117,
      "chip": "ym2612"
    },
    {
      "channel": 1,
      "note": 96,
      "start": 24.5606,
      "duration": 0.1732,
      "velocity": 103,
      "chip": "ym2612"
    },
    {
      "channel": 2,
      "note": 91,
      "start": 24.5611,
      "duration": 0.1732,
      "velocity": 103,
      "chip": "ym2612"
    },
    {
      "channel": 3,
      "note": 86,
      "start": 24.5617,
      "duration": 0.0866,
      "velocity": 118,
      "chip": "ym2612"
    },
    {
      "channel": 4,
      "note": 98,
      "start": 24.5622,
      "duration": 0.0882,
      "velocity": 119,
      "chip": "ym2612"
    },
    {
      "channel": 0,
      "note": 50,
      "start": 24.6461,
      "duration": 0.0871,
      "velocity": 117,
      "chip": "ym2612"
    },
    {
      "channel": 3,
      "note": 86,
      "start": 24.6484,
      "duration": 0.088,
      "velocity": 118,
      "chip": "ym2612"
    },
    {
      "channel": 4,
      "note": 31,
      "start": 24.6506,
      "duration": 0.088,
      "velocity": 127,
      "chip": "ym2612"
    },
    {
      "channel": 0,
      "note": 57,
      "start": 24.7333,
      "duration": 0.088,
      "velocity": 117,
      "chip": "ym2612"
    },
    {
      "channel": 1,
      "note": 84,
      "start": 24.7339,
      "duration": 0.0879,
      "velocity": 103,
      "chip": "ym2612"
    },
    {
      "channel": 2,
      "note": 79,
      "start": 24.7345,
      "duration": 0.0879,
      "velocity": 103,
      "chip": "ym2612"
    },
    {
      "channel": 3,
      "note": 86,
      "start": 24.7366,
      "duration": 0.0863,
      "velocity": 118,
      "chip": "ym2612"
    },
    {
      "channel": 4,
      "note": 98,
      "start": 24.7388,
      "duration": 0.0847,
      "velocity": 127,
      "chip": "ym2612"
    },
    {
      "channel": 0,
      "note": 60,
      "start": 24.8214,
      "duration": 0.1005,
      "velocity": 117,
      "chip": "ym2612"
    },
    {
      "channel": 1,
      "note": 96,
      "start": 24.822,
      "duration": 0.1006,
      "velocity": 103,
      "chip": "ym2612"
    },
    {
      "channel": 2,
      "note": 91,
      "start": 24.8226,
      "duration": 0.1005,
      "velocity": 103,
      "chip": "ym2612"
    },
    {
      "channel": 3,
      "note": 86,
      "start": 24.8231,
      "duration": 0.1005,
      "velocity": 118,
      "chip": "ym2612"
    },
    {
      "channel": 4,
      "note": 98,
      "start": 24.8237,
      "duration": 0.1006,
      "velocity": 127,
      "chip": "ym2612"
    },
    {
      "channel": 0,
      "note": 62,
      "start": 24.9222,
      "duration": 0.0864,
      "velocity": 117,
      "chip": "ym2612"
    },
    {
      "channel": 1,
      "note": 84,
      "start": 24.9227,
      "duration": 0.0865,
      "velocity": 103,
      "chip": "ym2612"
    },
    {
      "channel": 2,
      "note": 79,
      "start": 24.9233,
      "duration": 0.0865,
      "velocity": 103,
      "chip": "ym2612"
    },
    {
      "channel": 3,
      "note": 86,
      "start": 24.9238,
      "duration": 0.0881,
      "velocity": 118,
      "chip": "ym2612"
    },
    {
      "channel": 4,
      "note": 98,
      "start": 24.9244,
      "duration": 0.0881,
      "velocity": 127,
      "chip": "ym2612"
    },
    {
      "channel": 0,
      "note": 50,
      "start": 25.0088,
      "duration": 0.0907,
      "velocity": 117,
      "chip": "ym2612"
    },
    {
      "channel": 1,
      "note": 96,
      "start": 25.0094,
      "duration": 0.1862,
      "velocity": 103,
      "chip": "ym2612"
    },
    {
      "channel": 2,
      "note": 91,
      "start": 25.0099,
      "duration": 0.1863,
      "velocity": 103,
      "chip": "ym2612"
    },
    {
      "channel": 3,
      "note": 86,
      "start": 25.0121,
      "duration": 0.0863,
      "velocity": 118,
      "chip": "ym2612"
    },
    {
      "channel": 4,
      "note": 98,
      "start": 25.0126,
      "duration": 0.0863,
      "velocity": 127,
      "chip": "ym2612"
    },
    {
      "channel": 3,
      "note": 86,
      "start": 25.0986,
      "duration": 0.0981,
      "velocity": 118,
      "chip": "ym2612"
    },
    {
      "channel": 4,
      "note": 98,
      "start": 25.0992,
      "duration": 0.0981,
      "velocity": 127,
      "chip": "ym2612"
    },
    {
      "channel": 0,
      "note": 49,
      "start": 25.0995,
      "duration": 0.0097,
      "velocity": 117,
      "chip": "ym2612"
    },
    {
      "channel": 0,
      "note": 48,
      "start": 25.1092,
      "duration": 0.012,
      "velocity": 117,
      "chip": "ym2612"
    },
    {
      "channel": 0,
      "note": 47,
      "start": 25.1212,
      "duration": 0.04,
      "velocity": 117,
      "chip": "ym2612"
    },
    {
      "channel": 0,
      "note": 46,
      "start": 25.1612,
      "duration": 0.0167,
      "velocity": 117,
      "chip": "ym2612"
    },
    {
      "channel": 0,
      "note": 45,
      "start": 25.1779,
      "duration": 0.0172,
      "velocity": 117,
      "chip": "ym2612"
    },
    {
      "channel": 0,
      "note": 50,
      "start": 25.1952,
      "duration": 0.0857,
      "velocity": 117,
      "chip": "ym2612"
    },
    {
      "channel": 1,
      "note": 96,
      "start": 25.1958,
      "duration": 0.1847,
      "velocity": 103,
      "chip": "ym2612"
    },
    {
      "channel": 2,
      "note": 91,
      "start": 25.1963,
      "duration": 0.1847,
      "velocity": 103,
      "chip": "ym2612"
    },
    {
      "channel": 3,
      "note": 86,
      "start": 25.1969,
      "duration": 0.0846,
      "velocity": 118,
      "chip": "ym2612"
    },
    {
      "channel": 4,
      "note": 98,
      "start": 25.1975,
      "duration": 0.0847,
      "velocity": 127,
      "chip": "ym2612"
    },
    {
      "channel": 0,
      "note": 60,
      "start": 25.281,
      "duration": 0.0989,
      "velocity": 117,
      "chip": "ym2612"
    },
    {
      "channel": 3,
      "note": 86,
      "start": 25.2817,
      "duration": 0.1015,
      "velocity": 118,
      "chip": "ym2612"
    },
    {
      "channel": 4,
      "note": 98,
      "start": 25.2823,
      "duration": 0.1031,
      "velocity": 119,
      "chip": "ym2612"
    },
    {
      "channel": 0,
      "note": 50,
      "start": 25.3802,
      "duration": 0.0868,
      "velocity": 117,
      "chip": "ym2612"
    },
    {
      "channel": 1,
      "note": 84,
      "start": 25.3807,
      "duration": 0.0869,
      "velocity": 103,
      "chip": "ym2612"
    },
    {
      "channel": 2,
      "note": 79,
      "start": 25.3812,
      "duration": 0.0868,
      "velocity": 103,
      "chip": "ym2612"
    },
    {
      "channel": 3,
      "note": 86,
      "start": 25.3834,
      "duration": 0.0868,
      "velocity": 118,
      "chip": "ym2612"
    },
    {
      "channel": 4,
      "note": 31,
      "start": 25.3856,
      "duration": 0.0869,
      "velocity": 127,
      "chip": "ym2612"
    },
    {
      "channel": 0,
      "note": 57,
      "start": 25.4671,
      "duration": 0.0875,
      "velocity": 117,
      "chip": "ym2612"
    },
    {
      "channel": 1,
      "note": 96,
      "start": 25.4677,
      "duration": 0.0875,
      "velocity": 103,
      "chip": "ym2612"
    },
    {
      "channel": 2,
      "note": 91,
      "start": 25.4683,
      "duration": 0.0874,
      "velocity": 103,
      "chip": "ym2612"
    },
    {
      "channel": 3,
      "note": 86,
      "start": 25.4705,
      "duration": 0.0858,
      "velocity": 118,
      "chip": "ym2612"
    },
    {
      "channel": 4,
      "note": 98,
      "start": 25.4725,
      "duration": 0.0843,
      "velocity": 127,
      "chip": "ym2612"
    },
    {
      "channel": 0,
      "note": 60,
      "start": 25.5548,
      "duration": 0.0866,
      "velocity": 117,
      "chip": "ym2612"
    },
    {
      "channel": 1,
      "note": 84,
      "start": 25.5553,
      "duration": 0.0866,
      "velocity": 103,
      "chip": "ym2612"
    },
    {
      "channel": 2,
      "note": 79,
      "start": 25.5559,
      "duration": 0.0866,
      "velocity": 103,
      "chip": "ym2612"
    },
    {
      "channel": 3,
      "note": 86,
      "start": 25.5565,
      "duration": 0.0866,
      "velocity": 118,
      "chip": "ym2612"
    },
    {
      "channel": 4,
      "note": 98,
      "start": 25.5571,
      "duration": 0.0866,
      "velocity": 127,
      "chip": "ym2612"
    },
    {
      "channel": 0,
      "note": 62,
      "start": 25.6416,
      "duration": 0.0877,
      "velocity": 117,
      "chip": "ym2612"
    },
    {
      "channel": 1,
      "note": 96,
      "start": 25.6422,
      "duration": 0.0878,
      "velocity": 103,
      "chip": "ym2612"
    },
    {
      "channel": 2,
      "note": 91,
      "start": 25.6427,
      "duration": 0.0878,
      "velocity": 103,
      "chip": "ym2612"
    },
    {
      "channel": 3,
      "note": 86,
      "start": 25.6432,
      "duration": 0.0894,
      "velocity": 118,
      "chip": "ym2612"
    },
    {
      "channel": 4,
      "note": 98,
      "start": 25.6438,
      "duration": 0.0895,
      "velocity": 127,
      "chip": "ym2612"
    },
    {
      "channel": 0,
      "note": 48,
      "start": 25.7295,
      "duration": 0.1024,
      "velocity": 117,
      "chip": "ym2612"
    },
    {
      "channel": 1,
      "note": 84,
      "start": 25.7301,
      "duration": 0.098,
      "velocity": 103,
      "chip": "ym2612"
    },
    {
      "channel": 2,
      "note": 79,
      "start": 25.7307,
      "duration": 0.098,
      "velocity": 103,
      "chip": "ym2612"
    },
    {
      "channel": 3,
      "note": 86,
      "start": 25.7328,
      "duration": 0.098,
      "velocity": 118,
      "chip": "ym2612"
    },
    {
      "channel": 4,
      "note": 98,
      "start": 25.7335,
      "duration": 0.098,
      "velocity": 127,
      "chip": "ym2612"
    },
    {
      "channel": 1,
      "note": 96,
      "start": 25.8283,
      "duration": 0.1034,
      "velocity": 103,
      "chip": "ym2612"
    },
    {
      "channel": 2,
      "note": 91,
      "start": 25.8289,
      "duration": 0.1033,
      "velocity": 103,
      "chip": "ym2612"
    },
    {
      "channel": 3,
      "note": 86,
      "start": 25.831,
      "duration": 0.1017,
      "velocity": 118,
      "chip": "ym2612"
    },
    {
      "channel": 4,
      "note": 98,
      "start": 25.8316,
      "duration": 0.1017,
      "velocity": 127,
      "chip": "ym2612"
    },
    {
      "channel": 0,
      "note": 47,
      "start": 25.8319,
      "duration": 0.0089,
      "velocity": 117,
      "chip": "ym2612"
    },
    {
      "channel": 0,
      "note": 46,
      "start": 25.8408,
      "duration": 0.0123,
      "velocity": 117,
      "chip": "ym2612"
    },
    {
      "channel": 0,
      "note": 45,
      "start": 25.8532,
      "duration": 0.0274,
      "velocity": 117,
      "chip": "ym2612"
    },
    {
      "channel": 0,
      "note": 44,
      "start": 25.8806,
      "duration": 0.0334,
      "velocity": 117,
      "chip": "ym2612"
    },
    {
      "channel": 0,
      "note": 43,
      "start": 25.914,
      "duration": 0.0171,
      "velocity": 117,
      "chip": "ym2612"
    },
    {
      "channel": 0,
      "note": 48,
      "start": 25.9313,
      "duration": 0.0869,
      "velocity": 117,
      "chip": "ym2612"
    },
    {
      "channel": 1,
      "note": 84,
      "start": 25.9318,
      "duration": 0.087,
      "velocity": 103,
      "chip": "ym2612"
    },
    {
      "channel": 2,
      "note": 79,
      "start": 25.9324,
      "duration": 0.087,
      "velocity": 103,
      "chip": "ym2612"
    },
    {
      "channel": 3,
      "note": 86,
      "start": 25.9329,
      "duration": 0.0869,
      "velocity": 118,
      "chip": "ym2612"
    },
    {
      "channel": 4,
      "note": 98,
      "start": 25.9335,
      "duration": 0.0869,
      "velocity": 127,
      "chip": "ym2612"
    },
    {
      "channel": 0,
      "note": 58,
      "start": 26.0184,
      "duration": 0.0854,
      "velocity": 117,
      "chip": "ym2612"
    },
    {
      "channel": 1,
      "note": 96,
      "start": 26.0189,
      "duration": 0.1722,
      "velocity": 103,
      "chip": "ym2612"
    },
    {
      "channel": 2,
      "note": 91,
      "start": 26.0195,
      "duration": 0.1722,
      "velocity": 103,
      "chip": "ym2612"
    },
    {
      "channel": 3,
      "note": 86,
      "start": 26.02,
      "duration": 0.086,
      "velocity": 118,
      "chip": "ym2612"
    },
    {
      "channel": 4,
      "note": 98,
      "start": 26.0206,
      "duration": 0.0876,
      "velocity": 119,
      "chip": "ym2612"
    },
    {
      "channel": 0,
      "note": 48,
      "start": 26.1039,
      "duration": 0.0866,
      "velocity": 117,
      "chip": "ym2612"
    },
    {
      "channel": 3,
      "note": 86,
      "start": 26.1062,
      "duration": 0.0875,
      "velocity": 118,
      "chip": "ym2612"
    },
    {
      "channel": 4,
      "note": 31,
      "start": 26.1084,
      "duration": 0.0876,
      "velocity": 127,
      "chip": "ym2612"
    },
    {
      "channel": 0,
      "note": 55,
      "start": 26.1907,
      "duration": 0.0997,
      "velocity": 117,
      "chip": "ym2612"
    },
    {
      "channel": 1,
      "note": 96,
      "start": 26.1912,
      "duration": 0.1861,
      "velocity": 103,
      "chip": "ym2612"
    },
    {
      "channel": 2,
      "note": 91,
      "start": 26.1918,
      "duration": 0.1861,
      "velocity": 103,
      "chip": "ym2612"
    },
    {
      "channel": 3,
      "note": 86,
      "start": 26.194,
      "duration": 0.0971,
      "velocity": 118,
      "chip": "ym2612"
    },
    {
      "channel": 4,
      "note": 98,
      "start": 26.1961,
      "duration": 0.0955,
      "velocity": 127,
      "chip": "ym2612"
    },
    {
      "channel": 0,
      "note": 58,
      "start": 26.2906,
      "duration": 0.0861,
      "velocity": 117,
      "chip": "ym2612"
    },
    {
      "channel": 3,
      "note": 86,
      "start": 26.2912,
      "duration": 0.0871,
      "velocity": 118,
      "chip": "ym2612"
    },
    {
      "channel": 4,
      "note": 98,
      "start": 26.2918,
      "duration": 0.0872,
      "velocity": 127,
      "chip": "ym2612"
    },
    {
      "channel": 0,
      "note": 60,
      "start": 26.3769,
      "duration": 0.0853,
      "velocity": 117,
      "chip": "ym2612"
    },
    {
      "channel": 1,
      "note": 84,
      "start": 26.3775,
      "duration": 0.0852,
      "velocity": 103,
      "chip": "ym2612"
    },
    {
      "channel": 2,
      "note": 79,
      "start": 26.378,
      "duration": 0.0853,
      "velocity": 103,
      "chip": "ym2612"
    },
    {
      "channel": 3,
      "note": 86,
      "start": 26.3785,
      "duration": 0.0868,
      "velocity": 118,
      "chip": "ym2612"
    },
    {
      "channel": 4,
      "note": 98,
      "start": 26.3791,
      "duration": 0.0869,
      "velocity": 127,
      "chip": "ym2612"
    },
    {
      "channel": 0,
      "note": 48,
      "start": 26.4623,
      "duration": 0.0907,
      "velocity": 117,
      "chip": "ym2612"
    },
    {
      "channel": 1,
      "note": 96,
      "start": 26.4629,
      "duration": 0.0863,
      "velocity": 103,
      "chip": "ym2612"
    },
    {
      "channel": 2,
      "note": 91,
      "start": 26.4634,
      "duration": 0.0863,
      "velocity": 103,
      "chip": "ym2612"
    },
    {
      "channel": 3,
      "note": 86,
      "start": 26.4656,
      "duration": 0.0863,
      "velocity": 118,
      "chip": "ym2612"
    },
    {
      "channel": 4,
      "note": 98,
      "start": 26.4661,
      "duration": 0.0863,
      "velocity": 127,
      "chip": "ym2612"
    },
    {
      "channel": 1,
      "note": 84,
      "start": 26.5493,
      "duration": 0.0983,
      "velocity": 103,
      "chip": "ym2612"
    },
    {
      "channel": 2,
      "note": 79,
      "start": 26.5499,
      "duration": 0.0983,
      "velocity": 103,
      "chip": "ym2612"
    },
    {
      "channel": 3,
      "note": 86,
      "start": 26.5521,
      "duration": 0.0967,
      "velocity": 118,
      "chip": "ym2612"
    },
    {
      "channel": 4,
      "note": 98,
      "start": 26.5526,
      "duration": 0.0967,
      "velocity": 127,
      "chip": "ym2612"
    },
    {
      "channel": 0,
      "note": 47,
      "start": 26.5529,
      "duration": 0.009,
      "velocity": 117,
      "chip": "ym2612"
    },
    {
      "channel": 0,
      "note": 46,
      "start": 26.5619,
      "duration": 0.0242,
      "velocity": 117,
      "chip": "ym2612"
    },
    {
      "channel": 0,
      "note": 45,
      "start": 26.5861,
      "duration": 0.0272,
      "velocity": 117,
      "chip": "ym2612"
    },
    {
      "channel": 0,
      "note": 44,
      "start": 26.6133,
      "duration": 0.0167,
      "velocity": 117,
      "chip": "ym2612"
    },
    {
      "channel": 0,
      "note": 43,
      "start": 26.63,
      "duration": 0.0171,
      "velocity": 117,
      "chip": "ym2612"
    },
    {
      "channel": 0,
      "note": 48,
      "start": 26.6473,
      "duration": 0.0988,
      "velocity": 117,
      "chip": "ym2612"
    },
    {
      "channel": 1,
      "note": 96,
      "start": 26.6478,
      "duration": 0.1845,
      "velocity": 103,
      "chip": "ym2612"
    },
    {
      "channel": 2,
      "note": 91,
      "start": 26.6484,
      "duration": 0.1845,
      "velocity": 103,
      "chip": "ym2612"
    },
    {
      "channel": 3,
      "note": 86,
      "start": 26.6489,
      "duration": 0.0978,
      "velocity": 118,
      "chip": "ym2612"
    },
    {
      "channel": 4,
      "note": 98,
      "start": 26.6495,
      "duration": 0.0978,
      "velocity": 127,
      "chip": "ym2612"
    },
    {
      "channel": 0,
      "note": 58,
      "start": 26.7462,
      "duration": 0.0856,
      "velocity": 117,
      "chip": "ym2612"
    },
    {
      "channel": 3,
      "note": 86,
      "start": 26.7469,
      "duration": 0.0881,
      "velocity": 118,
      "chip": "ym2612"
    },
    {
      "channel": 4,
      "note": 98,
      "start": 26.7475,
      "duration": 0.0897,
      "velocity": 119,
      "chip": "ym2612"
    },
    {
      "channel": 0,
      "note": 48,
      "start": 26.8319,
      "duration": 0.0879,
      "velocity": 117,
      "chip": "ym2612"
    },
    {
      "channel": 1,
      "note": 96,
      "start": 26.8325,
      "duration": 0.1751,
      "velocity": 103,
      "chip": "ym2612"
    },
    {
      "channel": 2,
      "note": 91,
      "start": 26.8331,
      "duration": 0.1751,
      "velocity": 103,
      "chip": "ym2612"
    },
    {
      "channel": 3,
      "note": 86,
      "start": 26.8352,
      "duration": 0.0869,
      "velocity": 118,
      "chip": "ym2612"
    },
    {
      "channel": 4,
      "note": 31,
      "start": 26.8373,
      "duration": 0.087,
      "velocity": 127,
      "chip": "ym2612"
    },
    {
      "channel": 0,
      "note": 55,
      "start": 26.92,
      "duration": 0.0871,
      "velocity": 117,
      "chip": "ym2612"
    },
    {
      "channel": 3,
      "note": 86,
      "start": 26.9223,
      "duration": 0.0864,
      "velocity": 118,
      "chip": "ym2612"
    },
    {
      "channel": 4,
      "note": 98,
      "start": 26.9245,
      "duration": 0.0849,
      "velocity": 127,
      "chip": "ym2612"
    },
    {
      "channel": 0,
      "note": 58,
      "start": 27.0073,
      "duration": 0.0874,
      "velocity": 117,
      "chip": "ym2612"
    },
    {
      "channel": 1,
      "note": 84,
      "start": 27.0078,
      "duration": 0.0874,
      "velocity": 103,
      "chip": "ym2612"
    },
    {
      "channel": 2,
      "note": 79,
      "start": 27.0084,
      "duration": 0.0874,
      "velocity": 103,
      "chip": "ym2612"
    },
    {
      "channel": 3,
      "note": 86,
      "start": 27.009,
      "duration": 0.0873,
      "velocity": 118,
      "chip": "ym2612"
    },
    {
      "channel": 4,
      "note": 98,
      "start": 27.0095,
      "duration": 0.0874,
      "velocity": 127,
      "chip": "ym2612"
    },
    {
      "channel": 0,
      "note": 60,
      "start": 27.0949,
      "duration": 0.0972,
      "velocity": 117,
      "chip": "ym2612"
    },
    {
      "channel": 1,
      "note": 96,
      "start": 27.0954,
      "duration": 0.0972,
      "velocity": 103,
      "chip": "ym2612"
    },
    {
      "channel": 2,
      "note": 91,
      "start": 27.096,
      "duration": 0.0972,
      "velocity": 103,
      "chip": "ym2612"
    },
    {
      "channel": 3,
      "note": 86,
      "start": 27.0965,
      "duration": 0.0988,
      "velocity": 118,
      "chip": "ym2612"
    },
    {
      "channel": 4,
      "note": 98,
      "start": 27.0971,
      "duration": 0.0988,
      "velocity": 127,
      "chip": "ym2612"
    },
    {
      "channel": 0,
      "note": 50,
      "start": 27.1923,
      "duration": 0.0902,
      "velocity": 117,
      "chip": "ym2612"
    },
    {
      "channel": 1,
      "note": 84,
      "start": 27.1928,
      "duration": 0.0859,
      "velocity": 103,
      "chip": "ym2612"
    },
    {
      "channel": 2,
      "note": 79,
      "start": 27.1934,
      "duration": 0.0859,
      "velocity": 103,
      "chip": "ym2612"
    },
    {
      "channel": 3,
      "note": 86,
      "start": 27.1955,
      "duration": 0.0859,
      "velocity": 118,
      "chip": "ym2612"
    },
    {
      "channel": 4,
      "note": 98,
      "start": 27.1961,
      "duration": 0.0859,
      "velocity": 127,
      "chip": "ym2612"
    },
    {
      "channel": 1,
      "note": 96,
      "start": 27.2789,
      "duration": 0.1845,
      "velocity": 103,
      "chip": "ym2612"
    },
    {
      "channel": 2,
      "note": 91,
      "start": 27.2794,
      "duration": 0.1845,
      "velocity": 103,
      "chip": "ym2612"
    },
    {
      "channel": 3,
      "note": 86,
      "start": 27.2816,
      "duration": 0.096,
      "velocity": 118,
      "chip": "ym2612"
    },
    {
      "channel": 4,
      "note": 98,
      "start": 27.2822,
      "duration": 0.0959,
      "velocity": 127,
      "chip": "ym2612"
    },
    {
      "channel": 0,
      "note": 49,
      "start": 27.2825,
      "duration": 0.009,
      "velocity": 117,
      "chip": "ym2612"
    },
    {
      "channel": 0,
      "note": 48,
      "start": 27.2915,
      "duration": 0.0123,
      "velocity": 117,
      "chip": "ym2612"
    },
    {
      "channel": 0,
      "note": 47,
      "start": 27.3038,
      "duration": 0.0393,
      "velocity": 117,
      "chip": "ym2612"
    },
    {
      "channel": 0,
      "note": 46,
      "start": 27.3431,
      "duration": 0.0167,
      "velocity": 117,
      "chip": "ym2612"
    },
    {
      "channel": 0,
      "note": 45,
      "start": 27.3598,
      "duration": 0.0171,
      "velocity": 117,
      "chip": "ym2612"
    },
    {
      "channel": 0,
      "note": 50,
      "start": 27.3771,
      "duration": 0.0857,
      "velocity": 117,
      "chip": "ym2612"
    },
    {
      "channel": 3,
      "note": 86,
      "start": 27.3777,
      "duration": 0.0868,
      "velocity": 118,
      "chip": "ym2612"
    },
    {
      "channel": 4,
      "note": 98,
      "start": 27.3783,
      "duration": 0.0868,
      "velocity": 127,
      "chip": "ym2612"
    },
    {
      "channel": 0,
      "note": 60,
      "start": 27.463,
      "duration": 0.0851,
      "velocity": 117,
      "chip": "ym2612"
    },
    {
      "channel": 1,
      "note": 96,
      "start": 27.4636,
      "duration": 0.1847,
      "velocity": 103,
      "chip": "ym2612"
    },
    {
      "channel": 2,
      "note": 91,
      "start": 27.4641,
      "duration": 0.1848,
      "velocity": 103,
      "chip": "ym2612"
    },
    {
      "channel": 3,
      "note": 86,
      "start": 27.4646,
      "duration": 0.0857,
      "velocity": 118,
      "chip": "ym2612"
    },
    {
      "channel": 4,
      "note": 98,
      "start": 27.4652,
      "duration": 0.0873,
      "velocity": 119,
      "chip": "ym2612"
    },
    {
      "channel": 0,
      "note": 50,
      "start": 27.5483,
      "duration": 0.0995,
      "velocity": 117,
      "chip": "ym2612"
    },
    {
      "channel": 3,
      "note": 86,
      "start": 27.5505,
      "duration": 0.1005,
      "velocity": 118,
      "chip": "ym2612"
    },
    {
      "channel": 4,
      "note": 31,
      "start": 27.5527,
      "duration": 0.1005,
      "velocity": 127,
      "chip": "ym2612"
    },
    {
      "channel": 0,
      "note": 57,
      "start": 27.6479,
      "duration": 0.0876,
      "velocity": 117,
      "chip": "ym2612"
    },
    {
      "channel": 1,
      "note": 84,
      "start": 27.6485,
      "duration": 0.0876,
      "velocity": 103,
      "chip": "ym2612"
    },
    {
      "channel": 2,
      "note": 79,
      "start": 27.649,
      "duration": 0.0876,
      "velocity": 103,
      "chip": "ym2612"
    },
    {
      "channel": 3,
      "note": 86,
      "start": 27.6512,
      "duration": 0.086,
      "velocity": 118,
      "chip": "ym2612"
    },
    {
      "channel": 4,
      "note": 98,
      "start": 27.6534,
      "duration": 0.0844,
      "velocity": 127,
      "chip": "ym2612"
    },
    {
      "channel": 0,
      "note": 60,
      "start": 27.7357,
      "duration": 0.086,
      "velocity": 117,
      "chip": "ym2612"
    },
    {
      "channel": 1,
      "note": 96,
      "start": 27.7363,
      "duration": 0.086,
      "velocity": 103,
      "chip": "ym2612"
    },
    {
      "channel": 2,
      "note": 91,
      "start": 27.7368,
      "duration": 0.086,
      "velocity": 103,
      "chip": "ym2612"
    },
    {
      "channel": 3,
      "note": 86,
      "start": 27.7374,
      "duration": 0.086,
      "velocity": 118,
      "chip": "ym2612"
    },
    {
      "channel": 4,
      "note": 98,
      "start": 27.7379,
      "duration": 0.086,
      "velocity": 127,
      "chip": "ym2612"
    },
    {
      "channel": 0,
      "note": 62,
      "start": 27.8219,
      "duration": 0.0867,
      "velocity": 117,
      "chip": "ym2612"
    },
    {
      "channel": 1,
      "note": 84,
      "start": 27.8224,
      "duration": 0.0868,
      "velocity": 103,
      "chip": "ym2612"
    },
    {
      "channel": 2,
      "note": 79,
      "start": 27.823,
      "duration": 0.0868,
      "velocity": 103,
      "chip": "ym2612"
    },
    {
      "channel": 3,
      "note": 86,
      "start": 27.8236,
      "duration": 0.0883,
      "velocity": 118,
      "chip": "ym2612"
    },
    {
      "channel": 4,
      "note": 98,
      "start": 27.8241,
      "duration": 0.0883,
      "velocity": 127,
      "chip": "ym2612"
    },
    {
      "channel": 0,
      "note": 50,
      "start": 27.9088,
      "duration": 0.0897,
      "velocity": 117,
      "chip": "ym2612"
    },
    {
      "channel": 1,
      "note": 96,
      "start": 27.9094,
      "duration": 0.2018,
      "velocity": 103,
      "chip": "ym2612"
    },
    {
      "channel": 2,
      "note": 91,
      "start": 27.9099,
      "duration": 0.2018,
      "velocity": 103,
      "chip": "ym2612"
    },
    {
      "channel": 3,
      "note": 86,
      "start": 27.9121,
      "duration": 0.0854,
      "velocity": 118,
      "chip": "ym2612"
    },
    {
      "channel": 4,
      "note": 98,
      "start": 27.9126,
      "duration": 0.0854,
      "velocity": 127,
      "chip": "ym2612"
    },
    {
      "channel": 3,
      "note": 86,
      "start": 27.9976,
      "duration": 0.1147,
      "velocity": 118,
      "chip": "ym2612"
    },
    {
      "channel": 4,
      "note": 98,
      "start": 27.9982,
      "duration": 0.1147,
      "velocity": 127,
      "chip": "ym2612"
    },
    {
      "channel": 0,
      "note": 49,
      "start": 27.9985,
      "duration": 0.022,
      "velocity": 117,
      "chip": "ym2612"
    },
    {
      "channel": 0,
      "note": 48,
      "start": 28.0205,
      "duration": 0.0121,
      "velocity": 117,
      "chip": "ym2612"
    },
    {
      "channel": 0,
      "note": 47,
      "start": 28.0326,
      "duration": 0.0275,
      "velocity": 117,
      "chip": "ym2612"
    },
    {
      "channel": 0,
      "note": 46,
      "start": 28.0601,
      "duration": 0.0167,
      "velocity": 117,
      "chip": "ym2612"
    },
    {
      "channel": 0,
      "note": 45,
      "start": 28.0768,
      "duration": 0.0338,
      "velocity": 117,
      "chip": "ym2612"
    },
    {
      "channel": 0,
      "note": 50,
      "start": 28.1108,
      "duration": 0.087,
      "velocity": 117,
      "chip": "ym2612"
    },
    {
      "channel": 1,
      "note": 96,
      "start": 28.1113,
      "duration": 0.1741,
      "velocity": 103,
      "chip": "ym2612"
    },
    {
      "channel": 2,
      "note": 91,
      "start": 28.1119,
      "duration": 0.1741,
      "velocity": 103,
      "chip": "ym2612"
    },
    {
      "channel": 3,
      "note": 86,
      "start": 28.1125,
      "duration": 0.086,
      "velocity": 118,
      "chip": "ym2612"
    },
    {
      "channel": 4,
      "note": 98,
      "start": 28.113,
      "duration": 0.086,
      "velocity": 127,
      "chip": "ym2612"
    },
    {
      "channel": 0,
      "note": 60,
      "start": 28.198,
      "duration": 0.0869,
      "velocity": 117,
      "chip": "ym2612"
    },
    {
      "channel": 3,
      "note": 86,
      "start": 28.1987,
      "duration": 0.0895,
      "velocity": 118,
      "chip": "ym2612"
    },
    {
      "channel": 4,
      "note": 98,
      "start": 28.1992,
      "duration": 0.0912,
      "velocity": 119,
      "chip": "ym2612"
    },
    {
      "channel": 0,
      "note": 50,
      "start": 28.2851,
      "duration": 0.0888,
      "velocity": 117,
      "chip": "ym2612"
    },
    {
      "channel": 1,
      "note": 84,
      "start": 28.2856,
      "duration": 0.0889,
      "velocity": 103,
      "chip": "ym2612"
    },
    {
      "channel": 2,
      "note": 79,
      "start": 28.2861,
      "duration": 0.0889,
      "velocity": 103,
      "chip": "ym2612"
    },
    {
      "channel": 3,
      "note": 86,
      "start": 28.2884,
      "duration": 0.0888,
      "velocity": 118,
      "chip": "ym2612"
    },
    {
      "channel": 4,
      "note": 31,
      "start": 28.2905,
      "duration": 0.0889,
      "velocity": 127,
      "chip": "ym2612"
    },
    {
      "channel": 0,
      "note": 57,
      "start": 28.3741,
      "duration": 0.0869,
      "velocity": 117,
      "chip": "ym2612"
    },
    {
      "channel": 1,
      "note": 96,
      "start": 28.3747,
      "duration": 0.0869,
      "velocity": 103,
      "chip": "ym2612"
    },
    {
      "channel": 2,
      "note": 91,
      "start": 28.3752,
      "duration": 0.0869,
      "velocity": 103,
      "chip": "ym2612"
    },
    {
      "channel": 3,
      "note": 86,
      "start": 28.3773,
      "duration": 0.0854,
      "velocity": 118,
      "chip": "ym2612"
    },
    {
      "channel": 4,
      "note": 98,
      "start": 28.3795,
      "duration": 0.0838,
      "velocity": 127,
      "chip": "ym2612"
    },
    {
      "channel": 0,
      "note": 60,
      "start": 28.4612,
      "duration": 0.1007,
      "velocity": 117,
      "chip": "ym2612"
    },
    {
      "channel": 1,
      "note": 84,
      "start": 28.4617,
      "duration": 0.1007,
      "velocity": 103,
      "chip": "ym2612"
    },
    {
      "channel": 2,
      "note": 79,
      "start": 28.4623,
      "duration": 0.1006,
      "velocity": 103,
      "chip": "ym2612"
    },
    {
      "channel": 3,
      "note": 86,
      "start": 28.4629,
      "duration": 0.1006,
      "velocity": 118,
      "chip": "ym2612"
    },
    {
      "channel": 4,
      "note": 98,
      "start": 28.4634,
      "duration": 0.1007,
      "velocity": 127,
      "chip": "ym2612"
    },
    {
      "channel": 0,
      "note": 62,
      "start": 28.5621,
      "duration": 0.0883,
      "velocity": 1,
      "chip": "ym2612"
    },
    {
      "channel": 1,
      "note": 96,
      "start": 28.5626,
      "duration": 0.0898,
      "velocity": 1,
      "chip": "ym2612"
    },
    {
      "channel": 2,
      "note": 91,
      "start": 28.5632,
      "duration": 0.0914,
      "velocity": 127,
      "chip": "ym2612"
    },
    {
      "channel": 3,
      "note": 86,
      "start": 28.5637,
      "duration": 0.093,
      "velocity": 118,
      "chip": "ym2612"
    },
    {
      "channel": 4,
      "note": 98,
      "start": 28.5643,
      "duration": 0.0945,
      "velocity": 1,
      "chip": "ym2612"
    },
    {
      "channel": 0,
      "note": 67,
      "start": 28.6505,
      "duration": 2.8752,
      "velocity": 104,
      "chip": "ym2612"
    },
    {
      "channel": 1,
      "note": 67,
      "start": 28.6526,
      "duration": 12.0245,
      "velocity": 1,
      "chip": "ym2612"
    },
    {
      "channel": 2,
      "note": 98,
      "start": 28.6547,
      "duration": 0.0844,
      "velocity": 127,
      "chip": "ym2612"
    },
    {
      "channel": 3,
      "note": 86,
      "start": 28.6568,
      "duration": 0.0844,
      "velocity": 118,
      "chip": "ym2612"
    },
    {
      "channel": 4,
      "note": 67,
      "start": 28.659,
      "duration": 12.0181,
      "velocity": 1,
      "chip": "ym2612"
    },
    {
      "channel": 2,
      "note": 98,
      "start": 28.7393,
      "duration": 0.0951,
      "velocity": 127,
      "chip": "ym2612"
    },
    {
      "channel": 3,
      "note": 86,
      "start": 28.7415,
      "duration": 0.0934,
      "velocity": 118,
      "chip": "ym2612"
    },
    {
      "channel": 2,
      "note": 98,
      "start": 28.8345,
      "duration": 0.0856,
      "velocity": 127,
      "chip": "ym2612"
    },
    {
      "channel": 3,
      "note": 86,
      "start": 28.8351,
      "duration": 0.0856,
      "velocity": 118,
      "chip": "ym2612"
    },
    {
      "channel": 2,
      "note": 98,
      "start": 28.9203,
      "duration": 0.1009,
      "velocity": 119,
      "chip": "ym2612"
    },
    {
      "channel": 3,
      "note": 86,
      "start": 28.9208,
      "duration": 0.1025,
      "velocity": 118,
      "chip": "ym2612"
    },
    {
      "channel": 2,
      "note": 31,
      "start": 29.0213,
      "duration": 0.0869,
      "velocity": 127,
      "chip": "ym2612"
    },
    {
      "channel": 3,
      "note": 86,
      "start": 29.0235,
      "duration": 0.0869,
      "velocity": 118,
      "chip": "ym2612"
    },
    {
      "channel": 2,
      "note": 98,
      "start": 29.1084,
      "duration": 0.0843,
      "velocity": 127,
      "chip": "ym2612"
    },
    {
      "channel": 3,
      "note": 86,
      "start": 29.1106,
      "duration": 0.0827,
      "velocity": 118,
      "chip": "ym2612"
    },
    {
      "channel": 2,
      "note": 98,
      "start": 29.1929,
      "duration": 0.0875,
      "velocity": 127,
      "chip": "ym2612"
    },
    {
      "channel": 3,
      "note": 86,
      "start": 29.1934,
      "duration": 0.0875,
      "velocity": 118,
      "chip": "ym2612"
    },
    {
      "channel": 2,
      "note": 98,
      "start": 29.2805,
      "duration": 0.0856,
      "velocity": 127,
      "chip": "ym2612"
    },
    {
      "channel": 3,
      "note": 86,
      "start": 29.2811,
      "duration": 0.0872,
      "velocity": 118,
      "chip": "ym2612"
    },
    {
      "channel": 2,
      "note": 98,
      "start": 29.3664,
      "duration": 0.0977,
      "velocity": 127,
      "chip": "ym2612"
    },
    {
      "channel": 3,
      "note": 86,
      "start": 29.3685,
      "duration": 0.0977,
      "velocity": 118,
      "chip": "ym2612"
    },
    {
      "channel": 2,
      "note": 98,
      "start": 29.4643,
      "duration": 0.1027,
      "velocity": 127,
      "chip": "ym2612"
    },
    {
      "channel": 3,
      "note": 86,
      "start": 29.4664,
      "duration": 0.1011,
      "velocity": 118,
      "chip": "ym2612"
    },
    {
      "channel": 2,
      "note": 98,
      "start": 29.5671,
      "duration": 0.0851,
      "velocity": 127,
      "chip": "ym2612"
    },
    {
      "channel": 3,
      "note": 86,
      "start": 29.5677,
      "duration": 0.0851,
      "velocity": 118,
      "chip": "ym2612"
    },
    {
      "channel": 2,
      "note": 98,
      "start": 29.6524,
      "duration": 0.0868,
      "velocity": 119,
      "chip": "ym2612"
    },
    {
      "channel": 3,
      "note": 86,
      "start": 29.6529,
      "duration": 0.0884,
      "velocity": 118,
      "chip": "ym2612"
    },
    {
      "channel": 2,
      "note": 31,
      "start": 29.7394,
      "duration": 0.0867,
      "velocity": 127,
      "chip": "ym2612"
    },
    {
      "channel": 3,
      "note": 86,
      "start": 29.7416,
      "duration": 0.0867,
      "velocity": 118,
      "chip": "ym2612"
    },
    {
      "channel": 2,
      "note": 98,
      "start": 29.8263,
      "duration": 0.0963,
      "velocity": 127,
      "chip": "ym2612"
    },
    {
      "channel": 3,
      "note": 86,
      "start": 29.8284,
      "duration": 0.0947,
      "velocity": 118,
      "chip": "ym2612"
    },
    {
      "channel": 2,
      "note": 98,
      "start": 29.9227,
      "duration": 0.0868,
      "velocity": 127,
      "chip": "ym2612"
    },
    {
      "channel": 3,
      "note": 86,
      "start": 29.9232,
      "duration": 0.0869,
      "velocity": 118,
      "chip": "ym2612"
    },
    {
      "channel": 2,
      "note": 98,
      "start": 30.0098,
      "duration": 0.0852,
      "velocity": 127,
      "chip": "ym2612"
    },
    {
      "channel": 3,
      "note": 86,
      "start": 30.0104,
      "duration": 0.0868,
      "velocity": 118,
      "chip": "ym2612"
    },
    {
      "channel": 2,
      "note": 98,
      "start": 30.0952,
      "duration": 0.0868,
      "velocity": 127,
      "chip": "ym2612"
    },
    {
      "channel": 3,
      "note": 86,
      "start": 30.0973,
      "duration": 0.0868,
      "velocity": 118,
      "chip": "ym2612"
    },
    {
      "channel": 2,
      "note": 98,
      "start": 30.1822,
      "duration": 0.086,
      "velocity": 127,
      "chip": "ym2612"
    },
    {
      "channel": 3,
      "note": 86,
      "start": 30.1843,
      "duration": 0.0844,
      "velocity": 118,
      "chip": "ym2612"
    },
    {
      "channel": 2,
      "note": 98,
      "start": 30.2683,
      "duration": 0.0976,
      "velocity": 127,
      "chip": "ym2612"
    },
    {
      "channel": 3,
      "note": 86,
      "start": 30.2689,
      "duration": 0.0976,
      "velocity": 118,
      "chip": "ym2612"
    },
    {
      "channel": 2,
      "note": 98,
      "start": 30.3661,
      "duration": 0.0882,
      "velocity": 119,
      "chip": "ym2612"
    },
    {
      "channel": 3,
      "note": 86,
      "start": 30.3666,
      "duration": 0.0898,
      "velocity": 118,
      "chip": "ym2612"
    },
    {
      "channel": 2,
      "note": 31,
      "start": 30.4544,
      "duration": 0.0876,
      "velocity": 127,
      "chip": "ym2612"
    },
    {
      "channel": 3,
      "note": 86,
      "start": 30.4566,
      "duration": 0.0876,
      "velocity": 118,
      "chip": "ym2612"
    },
    {
      "channel": 2,
      "note": 98,
      "start": 30.5422,
      "duration": 0.0855,
      "velocity": 127,
      "chip": "ym2612"
    },
    {
      "channel": 3,
      "note": 86,
      "start": 30.5444,
      "duration": 0.084,
      "velocity": 118,
      "chip": "ym2612"
    },
    {
      "channel": 2,
      "note": 98,
      "start": 30.628,
      "duration": 0.0854,
      "velocity": 127,
      "chip": "ym2612"
    },
    {
      "channel": 3,
      "note": 86,
      "start": 30.6285,
      "duration": 0.0854,
      "velocity": 118,
      "chip": "ym2612"
    },
    {
      "channel": 2,
      "note": 98,
      "start": 30.7135,
      "duration": 0.0994,
      "velocity": 127,
      "chip": "ym2612"
    },
    {
      "channel": 3,
      "note": 86,
      "start": 30.7141,
      "duration": 0.101,
      "velocity": 118,
      "chip": "ym2612"
    },
    {
      "channel": 2,
      "note": 98,
      "start": 30.813,
      "duration": 0.0869,
      "velocity": 127,
      "chip": "ym2612"
    },
    {
      "channel": 3,
      "note": 86,
      "start": 30.8151,
      "duration": 0.0869,
      "velocity": 118,
      "chip": "ym2612"
    },
    {
      "channel": 2,
      "note": 98,
      "start": 30.9001,
      "duration": 0.0881,
      "velocity": 127,
      "chip": "ym2612"
    },
    {
      "channel": 3,
      "note": 86,
      "start": 30.9022,
      "duration": 0.0865,
      "velocity": 118,
      "chip": "ym2612"
    },
    {
      "channel": 2,
      "note": 98,
      "start": 30.9884,
      "duration": 0.0853,
      "velocity": 127,
      "chip": "ym2612"
    },
    {
      "channel": 3,
      "note": 86,
      "start": 30.9889,
      "duration": 0.0853,
      "velocity": 118,
      "chip": "ym2612"
    },
    {
      "channel": 2,
      "note": 98,
      "start": 31.0738,
      "duration": 0.089,
      "velocity": 119,
      "chip": "ym2612"
    },
    {
      "channel": 3,
      "note": 86,
      "start": 31.0744,
      "duration": 0.0906,
      "velocity": 118,
      "chip": "ym2612"
    },
    {
      "channel": 2,
      "note": 31,
      "start": 31.1629,
      "duration": 0.1007,
      "velocity": 127,
      "chip": "ym2612"
    },
    {
      "channel": 3,
      "note": 86,
      "start": 31.1651,
      "duration": 0.1007,
      "velocity": 118,
      "chip": "ym2612"
    },
    {
      "channel": 2,
      "note": 98,
      "start": 31.2638,
      "duration": 0.087,
      "velocity": 127,
      "chip": "ym2612"
    },
    {
      "channel": 3,
      "note": 86,
      "start": 31.266,
      "duration": 0.0854,
      "velocity": 118,
      "chip": "ym2612"
    },
    {
      "channel": 2,
      "note": 98,
      "start": 31.351,
      "duration": 0.087,
      "velocity": 127,
      "chip": "ym2612"
    },
    {
      "channel": 3,
      "note": 86,
      "start": 31.3515,
      "duration": 0.087,
      "velocity": 118,
      "chip": "ym2612"
    },
    {
      "channel": 2,
      "note": 98,
      "start": 31.4382,
      "duration": 0.0897,
      "velocity": 104,
      "chip": "ym2612"
    },
    {
      "channel": 3,
      "note": 86,
      "start": 31.4388,
      "duration": 9.2383,
      "velocity": 118,
      "chip": "ym2612"
    },
    {
      "channel": 0,
      "note": 69,
      "start": 31.5259,
      "duration": 0.1036,
      "velocity": 104,
      "chip": "ym2612"
    },
    {
      "channel": 2,
      "note": 67,
      "start": 31.528,
      "duration": 0.2349,
      "velocity": 104,
      "chip": "ym2612"
    },
    {
      "channel": 0,
      "note": 81,
      "start": 31.6297,
      "duration": 9.0474,
      "velocity": 104,
      "chip": "ym2612"
    },
    {
      "channel": 2,
      "note": 69,
      "start": 31.7631,
      "duration": 8.914,
      "velocity": 104,
      "chip": "ym2612"
    }
  ]
}