{
  "track_name": "07 - Armoury",
  "duration_sec": 93.157,
  "sample_rate": 44100,
  "note_count": 959,
  "unique_pitches": 36,
  "pitch_range": 73,
  "avg_note_duration": 0.5531,
  "reconstruction_stats": {
    "notes_reconstructed": 959,
    "keyon_events": 959,
    "keyoff_events": 839,
    "orphan_keyons": 6,
    "unique_pitches": 36,
    "pitch_range": 73,
    "avg_duration_sec": 0.5531
  },
  "metadata": {
    "source": "M\\Mortal Kombat II\\07 - Armoury.vgz"
  },
  "notes": [
    {
      "channel": 0,
      "note": 45,
      "start": 0.0022,
      "duration": 3.3737,
      "velocity": 95,
      "chip": "ym2612"
    },
    {
      "channel": 3,
      "note": 85,
      "start": 0.0045,
      "duration": 0.4325,
      "velocity": 127,
      "chip": "ym2612"
    },
    {
      "channel": 4,
      "note": 21,
      "start": 0.2033,
      "duration": 0.795,
      "velocity": 97,
      "chip": "ym2612"
    },
    {
      "channel": 1,
      "note": 60,
      "start": 0.4365,
      "duration": 0.206,
      "velocity": 124,
      "chip": "ym2612"
    },
    {
      "channel": 3,
      "note": 85,
      "start": 0.4371,
      "duration": 0.3911,
      "velocity": 127,
      "chip": "ym2612"
    },
    {
      "channel": 1,
      "note": 66,
      "start": 0.6427,
      "duration": 0.1849,
      "velocity": 124,
      "chip": "ym2612"
    },
    {
      "channel": 2,
      "note": 60,
      "start": 0.7296,
      "duration": 0.1836,
      "velocity": 124,
      "chip": "ym2612"
    },
    {
      "channel": 1,
      "note": 59,
      "start": 0.8278,
      "duration": 0.8333,
      "velocity": 124,
      "chip": "ym2612"
    },
    {
      "channel": 3,
      "note": 85,
      "start": 0.8283,
      "duration": 0.4095,
      "velocity": 127,
      "chip": "ym2612"
    },
    {
      "channel": 2,
      "note": 66,
      "start": 0.9134,
      "duration": 0.2077,
      "velocity": 124,
      "chip": "ym2612"
    },
    {
      "channel": 4,
      "note": 28,
      "start": 0.9984,
      "duration": 0.8477,
      "velocity": 97,
      "chip": "ym2612"
    },
    {
      "channel": 2,
      "note": 59,
      "start": 1.1213,
      "duration": 0.8409,
      "velocity": 124,
      "chip": "ym2612"
    },
    {
      "channel": 3,
      "note": 85,
      "start": 1.238,
      "duration": 0.4237,
      "velocity": 127,
      "chip": "ym2612"
    },
    {
      "channel": 1,
      "note": 57,
      "start": 1.6613,
      "duration": 0.1841,
      "velocity": 124,
      "chip": "ym2612"
    },
    {
      "channel": 3,
      "note": 85,
      "start": 1.6619,
      "duration": 0.417,
      "velocity": 127,
      "chip": "ym2612"
    },
    {
      "channel": 1,
      "note": 67,
      "start": 1.8456,
      "duration": 0.4351,
      "velocity": 124,
      "chip": "ym2612"
    },
    {
      "channel": 4,
      "note": 27,
      "start": 1.8463,
      "duration": 0.2332,
      "velocity": 97,
      "chip": "ym2612"
    },
    {
      "channel": 2,
      "note": 57,
      "start": 1.9623,
      "duration": 0.2139,
      "velocity": 124,
      "chip": "ym2612"
    },
    {
      "channel": 3,
      "note": 85,
      "start": 2.0791,
      "duration": 0.4355,
      "velocity": 127,
      "chip": "ym2612"
    },
    {
      "channel": 4,
      "note": 28,
      "start": 2.0797,
      "duration": 0.2017,
      "velocity": 97,
      "chip": "ym2612"
    },
    {
      "channel": 2,
      "note": 67,
      "start": 2.1763,
      "duration": 0.4544,
      "velocity": 124,
      "chip": "ym2612"
    },
    {
      "channel": 1,
      "note": 59,
      "start": 2.2808,
      "duration": 0.2331,
      "velocity": 124,
      "chip": "ym2612"
    },
    {
      "channel": 4,
      "note": 21,
      "start": 2.2815,
      "duration": 1.2973,
      "velocity": 97,
      "chip": "ym2612"
    },
    {
      "channel": 1,
      "note": 63,
      "start": 2.5141,
      "duration": 1.2825,
      "velocity": 124,
      "chip": "ym2612"
    },
    {
      "channel": 3,
      "note": 85,
      "start": 2.5148,
      "duration": 0.4201,
      "velocity": 127,
      "chip": "ym2612"
    },
    {
      "channel": 2,
      "note": 59,
      "start": 2.6309,
      "duration": 0.218,
      "velocity": 124,
      "chip": "ym2612"
    },
    {
      "channel": 2,
      "note": 63,
      "start": 2.8491,
      "duration": 1.2398,
      "velocity": 124,
      "chip": "ym2612"
    },
    {
      "channel": 3,
      "note": 85,
      "start": 2.9351,
      "duration": 0.4415,
      "velocity": 127,
      "chip": "ym2612"
    },
    {
      "channel": 0,
      "note": 45,
      "start": 3.3761,
      "duration": 0.0011,
      "velocity": 95,
      "chip": "ym2612"
    },
    {
      "channel": 3,
      "note": 85,
      "start": 3.3768,
      "duration": 0.4205,
      "velocity": 127,
      "chip": "ym2612"
    },
    {
      "channel": 0,
      "note": 46,
      "start": 3.3772,
      "duration": 0.013,
      "velocity": 95,
      "chip": "ym2612"
    },
    {
      "channel": 0,
      "note": 47,
      "start": 3.3902,
      "duration": 0.0144,
      "velocity": 95,
      "chip": "ym2612"
    },
    {
      "channel": 0,
      "note": 47,
      "start": 3.4046,
      "duration": 0.0145,
      "velocity": 95,
      "chip": "ym2612"
    },
    {
      "channel": 0,
      "note": 48,
      "start": 3.4191,
      "duration": 0.0291,
      "velocity": 95,
      "chip": "ym2612"
    },
    {
      "channel": 0,
      "note": 49,
      "start": 3.4482,
      "duration": 0.0144,
      "velocity": 95,
      "chip": "ym2612"
    },
    {
      "channel": 0,
      "note": 49,
      "start": 3.4626,
      "duration": 0.0291,
      "velocity": 95,
      "chip": "ym2612"
    },
    {
      "channel": 0,
      "note": 50,
      "start": 3.4917,
      "duration": 0.0145,
      "velocity": 95,
      "chip": "ym2612"
    },
    {
      "channel": 0,
      "note": 51,
      "start": 3.5062,
      "duration": 0.029,
      "velocity": 95,
      "chip": "ym2612"
    },
    {
      "channel": 0,
      "note": 51,
      "start": 3.5352,
      "duration": 3.1583,
      "velocity": 95,
      "chip": "ym2612"
    },
    {
      "channel": 4,
      "note": 21,
      "start": 3.579,
      "duration": 0.7766,
      "velocity": 97,
      "chip": "ym2612"
    },
    {
      "channel": 1,
      "note": 60,
      "start": 3.7969,
      "duration": 0.2061,
      "velocity": 124,
      "chip": "ym2612"
    },
    {
      "channel": 3,
      "note": 85,
      "start": 3.7975,
      "duration": 0.3772,
      "velocity": 127,
      "chip": "ym2612"
    },
    {
      "channel": 1,
      "note": 66,
      "start": 4.0031,
      "duration": 0.171,
      "velocity": 124,
      "chip": "ym2612"
    },
    {
      "channel": 2,
      "note": 60,
      "start": 4.0891,
      "duration": 0.1818,
      "velocity": 124,
      "chip": "ym2612"
    },
    {
      "channel": 1,
      "note": 59,
      "start": 4.1743,
      "duration": 0.8922,
      "velocity": 124,
      "chip": "ym2612"
    },
    {
      "channel": 3,
      "note": 85,
      "start": 4.1749,
      "duration": 0.4083,
      "velocity": 127,
      "chip": "ym2612"
    },
    {
      "channel": 2,
      "note": 66,
      "start": 4.2711,
      "duration": 0.1955,
      "velocity": 124,
      "chip": "ym2612"
    },
    {
      "channel": 4,
      "note": 28,
      "start": 4.3558,
      "duration": 0.9447,
      "velocity": 97,
      "chip": "ym2612"
    },
    {
      "channel": 2,
      "note": 59,
      "start": 4.4667,
      "duration": 0.9319,
      "velocity": 124,
      "chip": "ym2612"
    },
    {
      "channel": 3,
      "note": 85,
      "start": 4.5834,
      "duration": 0.4837,
      "velocity": 127,
      "chip": "ym2612"
    },
    {
      "channel": 1,
      "note": 63,
      "start": 5.0667,
      "duration": 0.2332,
      "velocity": 124,
      "chip": "ym2612"
    },
    {
      "channel": 3,
      "note": 85,
      "start": 5.0673,
      "duration": 0.4164,
      "velocity": 127,
      "chip": "ym2612"
    },
    {
      "channel": 1,
      "note": 54,
      "start": 5.3,
      "duration": 0.1831,
      "velocity": 124,
      "chip": "ym2612"
    },
    {
      "channel": 4,
      "note": 27,
      "start": 5.3007,
      "duration": 0.1836,
      "velocity": 97,
      "chip": "ym2612"
    },
    {
      "channel": 2,
      "note": 63,
      "start": 5.3988,
      "duration": 0.1949,
      "velocity": 124,
      "chip": "ym2612"
    },
    {
      "channel": 1,
      "note": 57,
      "start": 5.4833,
      "duration": 0.5891,
      "velocity": 124,
      "chip": "ym2612"
    },
    {
      "channel": 3,
      "note": 85,
      "start": 5.4839,
      "duration": 0.4082,
      "velocity": 127,
      "chip": "ym2612"
    },
    {
      "channel": 4,
      "note": 28,
      "start": 5.4845,
      "duration": 0.2261,
      "velocity": 97,
      "chip": "ym2612"
    },
    {
      "channel": 2,
      "note": 54,
      "start": 5.5939,
      "duration": 0.2006,
      "velocity": 124,
      "chip": "ym2612"
    },
    {
      "channel": 4,
      "note": 20,
      "start": 5.7107,
      "duration": 1.1835,
      "velocity": 97,
      "chip": "ym2612"
    },
    {
      "channel": 2,
      "note": 57,
      "start": 5.7947,
      "duration": 0.5922,
      "velocity": 124,
      "chip": "ym2612"
    },
    {
      "channel": 3,
      "note": 85,
      "start": 5.8924,
      "duration": 0.3786,
      "velocity": 127,
      "chip": "ym2612"
    },
    {
      "channel": 1,
      "note": 51,
      "start": 6.0726,
      "duration": 0.1977,
      "velocity": 124,
      "chip": "ym2612"
    },
    {
      "channel": 1,
      "note": 54,
      "start": 6.2705,
      "duration": 0.8568,
      "velocity": 124,
      "chip": "ym2612"
    },
    {
      "channel": 3,
      "note": 85,
      "start": 6.2712,
      "duration": 0.4231,
      "velocity": 127,
      "chip": "ym2612"
    },
    {
      "channel": 2,
      "note": 51,
      "start": 6.3871,
      "duration": 0.2033,
      "velocity": 124,
      "chip": "ym2612"
    },
    {
      "channel": 2,
      "note": 54,
      "start": 6.5906,
      "duration": 0.8291,
      "velocity": 124,
      "chip": "ym2612"
    },
    {
      "channel": 0,
      "note": 45,
      "start": 6.6937,
      "duration": 3.3866,
      "velocity": 95,
      "chip": "ym2612"
    },
    {
      "channel": 3,
      "note": 85,
      "start": 6.6944,
      "duration": 0.4335,
      "velocity": 127,
      "chip": "ym2612"
    },
    {
      "channel": 4,
      "note": 21,
      "start": 6.8943,
      "duration": 0.8005,
      "velocity": 97,
      "chip": "ym2612"
    },
    {
      "channel": 1,
      "note": 60,
      "start": 7.1275,
      "duration": 0.1941,
      "velocity": 124,
      "chip": "ym2612"
    },
    {
      "channel": 3,
      "note": 85,
      "start": 7.1281,
      "duration": 0.3967,
      "velocity": 127,
      "chip": "ym2612"
    },
    {
      "channel": 1,
      "note": 66,
      "start": 7.3217,
      "duration": 0.2024,
      "velocity": 124,
      "chip": "ym2612"
    },
    {
      "channel": 2,
      "note": 60,
      "start": 7.4199,
      "duration": 0.1894,
      "velocity": 124,
      "chip": "ym2612"
    },
    {
      "channel": 1,
      "note": 59,
      "start": 7.5244,
      "duration": 0.8226,
      "velocity": 124,
      "chip": "ym2612"
    },
    {
      "channel": 3,
      "note": 85,
      "start": 7.525,
      "duration": 0.4096,
      "velocity": 127,
      "chip": "ym2612"
    },
    {
      "channel": 2,
      "note": 66,
      "start": 7.6094,
      "duration": 0.1917,
      "velocity": 124,
      "chip": "ym2612"
    },
    {
      "channel": 4,
      "note": 28,
      "start": 7.6949,
      "duration": 0.8545,
      "velocity": 97,
      "chip": "ym2612"
    },
    {
      "channel": 2,
      "note": 59,
      "start": 7.8014,
      "duration": 0.8642,
      "velocity": 124,
      "chip": "ym2612"
    },
    {
      "channel": 3,
      "note": 85,
      "start": 7.9347,
      "duration": 0.4128,
      "velocity": 127,
      "chip": "ym2612"
    },
    {
      "channel": 1,
      "note": 57,
      "start": 8.3471,
      "duration": 0.2016,
      "velocity": 124,
      "chip": "ym2612"
    },
    {
      "channel": 3,
      "note": 85,
      "start": 8.3478,
      "duration": 0.4345,
      "velocity": 127,
      "chip": "ym2612"
    },
    {
      "channel": 1,
      "note": 67,
      "start": 8.5489,
      "duration": 0.4353,
      "velocity": 124,
      "chip": "ym2612"
    },
    {
      "channel": 4,
      "note": 27,
      "start": 8.5496,
      "duration": 0.2332,
      "velocity": 97,
      "chip": "ym2612"
    },
    {
      "channel": 2,
      "note": 57,
      "start": 8.6657,
      "duration": 0.2019,
      "velocity": 124,
      "chip": "ym2612"
    },
    {
      "channel": 3,
      "note": 85,
      "start": 8.7824,
      "duration": 0.4357,
      "velocity": 127,
      "chip": "ym2612"
    },
    {
      "channel": 4,
      "note": 28,
      "start": 8.783,
      "duration": 0.2019,
      "velocity": 97,
      "chip": "ym2612"
    },
    {
      "channel": 2,
      "note": 67,
      "start": 8.8676,
      "duration": 0.4667,
      "velocity": 124,
      "chip": "ym2612"
    },
    {
      "channel": 1,
      "note": 59,
      "start": 8.9844,
      "duration": 0.2331,
      "velocity": 124,
      "chip": "ym2612"
    },
    {
      "channel": 4,
      "note": 21,
      "start": 8.9851,
      "duration": 1.2994,
      "velocity": 97,
      "chip": "ym2612"
    },
    {
      "channel": 1,
      "note": 63,
      "start": 9.2177,
      "duration": 1.2702,
      "velocity": 124,
      "chip": "ym2612"
    },
    {
      "channel": 3,
      "note": 85,
      "start": 9.2184,
      "duration": 0.4166,
      "velocity": 127,
      "chip": "ym2612"
    },
    {
      "channel": 2,
      "note": 59,
      "start": 9.3345,
      "duration": 0.2145,
      "velocity": 124,
      "chip": "ym2612"
    },
    {
      "channel": 2,
      "note": 63,
      "start": 9.5491,
      "duration": 1.2453,
      "velocity": 124,
      "chip": "ym2612"
    },
    {
      "channel": 3,
      "note": 85,
      "start": 9.6352,
      "duration": 0.4458,
      "velocity": 127,
      "chip": "ym2612"
    },
    {
      "channel": 0,
      "note": 45,
      "start": 10.0805,
      "duration": 0.0011,
      "velocity": 95,
      "chip": "ym2612"
    },
    {
      "channel": 3,
      "note": 85,
      "start": 10.0812,
      "duration": 0.4073,
      "velocity": 127,
      "chip": "ym2612"
    },
    {
      "channel": 0,
      "note": 46,
      "start": 10.0816,
      "duration": 0.0134,
      "velocity": 95,
      "chip": "ym2612"
    },
    {
      "channel": 0,
      "note": 47,
      "start": 10.095,
      "duration": 0.0147,
      "velocity": 95,
      "chip": "ym2612"
    },
    {
      "channel": 0,
      "note": 47,
      "start": 10.1097,
      "duration": 0.0145,
      "velocity": 95,
      "chip": "ym2612"
    },
    {
      "channel": 0,
      "note": 48,
      "start": 10.1242,
      "duration": 0.0144,
      "velocity": 95,
      "chip": "ym2612"
    },
    {
      "channel": 0,
      "note": 49,
      "start": 10.1386,
      "duration": 0.0293,
      "velocity": 95,
      "chip": "ym2612"
    },
    {
      "channel": 0,
      "note": 49,
      "start": 10.1679,
      "duration": 0.0289,
      "velocity": 95,
      "chip": "ym2612"
    },
    {
      "channel": 0,
      "note": 50,
      "start": 10.1968,
      "duration": 0.0144,
      "velocity": 95,
      "chip": "ym2612"
    },
    {
      "channel": 0,
      "note": 51,
      "start": 10.2112,
      "duration": 0.0147,
      "velocity": 95,
      "chip": "ym2612"
    },
    {
      "channel": 0,
      "note": 51,
      "start": 10.2259,
      "duration": 3.1767,
      "velocity": 95,
      "chip": "ym2612"
    },
    {
      "channel": 4,
      "note": 21,
      "start": 10.2847,
      "duration": 0.7778,
      "velocity": 97,
      "chip": "ym2612"
    },
    {
      "channel": 1,
      "note": 60,
      "start": 10.488,
      "duration": 0.2213,
      "velocity": 124,
      "chip": "ym2612"
    },
    {
      "channel": 3,
      "note": 85,
      "start": 10.4887,
      "duration": 0.3918,
      "velocity": 127,
      "chip": "ym2612"
    },
    {
      "channel": 1,
      "note": 66,
      "start": 10.7095,
      "duration": 0.1704,
      "velocity": 124,
      "chip": "ym2612"
    },
    {
      "channel": 2,
      "note": 60,
      "start": 10.7946,
      "duration": 0.1704,
      "velocity": 124,
      "chip": "ym2612"
    },
    {
      "channel": 1,
      "note": 59,
      "start": 10.88,
      "duration": 0.8932,
      "velocity": 124,
      "chip": "ym2612"
    },
    {
      "channel": 3,
      "note": 85,
      "start": 10.8807,
      "duration": 0.4094,
      "velocity": 127,
      "chip": "ym2612"
    },
    {
      "channel": 2,
      "note": 66,
      "start": 10.9651,
      "duration": 0.2082,
      "velocity": 124,
      "chip": "ym2612"
    },
    {
      "channel": 4,
      "note": 28,
      "start": 11.0627,
      "duration": 0.9447,
      "velocity": 97,
      "chip": "ym2612"
    },
    {
      "channel": 2,
      "note": 59,
      "start": 11.1735,
      "duration": 0.9186,
      "velocity": 124,
      "chip": "ym2612"
    },
    {
      "channel": 3,
      "note": 85,
      "start": 11.2902,
      "duration": 0.4837,
      "velocity": 127,
      "chip": "ym2612"
    },
    {
      "channel": 1,
      "note": 63,
      "start": 11.7734,
      "duration": 0.2332,
      "velocity": 124,
      "chip": "ym2612"
    },
    {
      "channel": 3,
      "note": 85,
      "start": 11.7741,
      "duration": 0.4159,
      "velocity": 127,
      "chip": "ym2612"
    },
    {
      "channel": 1,
      "note": 54,
      "start": 12.0068,
      "duration": 0.1825,
      "velocity": 124,
      "chip": "ym2612"
    },
    {
      "channel": 4,
      "note": 27,
      "start": 12.0075,
      "duration": 0.183,
      "velocity": 97,
      "chip": "ym2612"
    },
    {
      "channel": 2,
      "note": 63,
      "start": 12.0923,
      "duration": 0.2082,
      "velocity": 124,
      "chip": "ym2612"
    },
    {
      "channel": 1,
      "note": 57,
      "start": 12.1895,
      "duration": 0.5908,
      "velocity": 124,
      "chip": "ym2612"
    },
    {
      "channel": 3,
      "note": 85,
      "start": 12.1901,
      "duration": 0.3975,
      "velocity": 127,
      "chip": "ym2612"
    },
    {
      "channel": 4,
      "note": 28,
      "start": 12.1907,
      "duration": 0.2265,
      "velocity": 97,
      "chip": "ym2612"
    },
    {
      "channel": 2,
      "note": 54,
      "start": 12.3007,
      "duration": 0.202,
      "velocity": 124,
      "chip": "ym2612"
    },
    {
      "channel": 4,
      "note": 20,
      "start": 12.4174,
      "duration": 1.1707,
      "velocity": 97,
      "chip": "ym2612"
    },
    {
      "channel": 2,
      "note": 57,
      "start": 12.5028,
      "duration": 0.5785,
      "velocity": 124,
      "chip": "ym2612"
    },
    {
      "channel": 3,
      "note": 85,
      "start": 12.5878,
      "duration": 0.3923,
      "velocity": 127,
      "chip": "ym2612"
    },
    {
      "channel": 1,
      "note": 51,
      "start": 12.7805,
      "duration": 0.199,
      "velocity": 124,
      "chip": "ym2612"
    },
    {
      "channel": 1,
      "note": 54,
      "start": 12.9796,
      "duration": 0.4236,
      "velocity": 124,
      "chip": "ym2612"
    },
    {
      "channel": 3,
      "note": 85,
      "start": 12.9802,
      "duration": 0.4237,
      "velocity": 127,
      "chip": "ym2612"
    },
    {
      "channel": 2,
      "note": 51,
      "start": 13.0815,
      "duration": 0.2173,
      "velocity": 124,
      "chip": "ym2612"
    },
    {
      "channel": 2,
      "note": 54,
      "start": 13.299,
      "duration": 0.4203,
      "velocity": 124,
      "chip": "ym2612"
    },
    {
      "channel": 0,
      "note": 45,
      "start": 13.4028,
      "duration": 0.8277,
      "velocity": 95,
      "chip": "ym2612"
    },
    {
      "channel": 1,
      "note": 57,
      "start": 13.4034,
      "duration": 0.1824,
      "velocity": 124,
      "chip": "ym2612"
    },
    {
      "channel": 3,
      "note": 85,
      "start": 13.4041,
      "duration": 0.4324,
      "velocity": 127,
      "chip": "ym2612"
    },
    {
      "channel": 1,
      "note": 61,
      "start": 13.586,
      "duration": 0.2498,
      "velocity": 124,
      "chip": "ym2612"
    },
    {
      "channel": 4,
      "note": 21,
      "start": 13.5883,
      "duration": 0.813,
      "velocity": 97,
      "chip": "ym2612"
    },
    {
      "channel": 2,
      "note": 57,
      "start": 13.7194,
      "duration": 0.2137,
      "velocity": 124,
      "chip": "ym2612"
    },
    {
      "channel": 1,
      "note": 55,
      "start": 13.836,
      "duration": 0.5646,
      "velocity": 124,
      "chip": "ym2612"
    },
    {
      "channel": 3,
      "note": 85,
      "start": 13.8367,
      "duration": 0.3945,
      "velocity": 127,
      "chip": "ym2612"
    },
    {
      "channel": 2,
      "note": 61,
      "start": 13.9333,
      "duration": 0.1807,
      "velocity": 124,
      "chip": "ym2612"
    },
    {
      "channel": 2,
      "note": 55,
      "start": 14.1141,
      "duration": 0.6436,
      "velocity": 124,
      "chip": "ym2612"
    },
    {
      "channel": 0,
      "note": 49,
      "start": 14.2307,
      "duration": 0.6436,
      "velocity": 95,
      "chip": "ym2612"
    },
    {
      "channel": 3,
      "note": 85,
      "start": 14.2314,
      "duration": 0.3935,
      "velocity": 127,
      "chip": "ym2612"
    },
    {
      "channel": 1,
      "note": 64,
      "start": 14.4008,
      "duration": 0.2234,
      "velocity": 124,
      "chip": "ym2612"
    },
    {
      "channel": 4,
      "note": 28,
      "start": 14.4015,
      "duration": 0.8549,
      "velocity": 97,
      "chip": "ym2612"
    },
    {
      "channel": 1,
      "note": 67,
      "start": 14.6244,
      "duration": 0.2504,
      "velocity": 124,
      "chip": "ym2612"
    },
    {
      "channel": 3,
      "note": 85,
      "start": 14.6251,
      "duration": 0.4289,
      "velocity": 127,
      "chip": "ym2612"
    },
    {
      "channel": 2,
      "note": 64,
      "start": 14.7578,
      "duration": 0.2026,
      "velocity": 124,
      "chip": "ym2612"
    },
    {
      "channel": 0,
      "note": 46,
      "start": 14.8744,
      "duration": 1.8951,
      "velocity": 95,
      "chip": "ym2612"
    },
    {
      "channel": 1,
      "note": 60,
      "start": 14.875,
      "duration": 0.1783,
      "velocity": 124,
      "chip": "ym2612"
    },
    {
      "channel": 2,
      "note": 67,
      "start": 14.9607,
      "duration": 0.1782,
      "velocity": 124,
      "chip": "ym2612"
    },
    {
      "channel": 1,
      "note": 66,
      "start": 15.0535,
      "duration": 0.6212,
      "velocity": 124,
      "chip": "ym2612"
    },
    {
      "channel": 3,
      "note": 85,
      "start": 15.0541,
      "duration": 0.4356,
      "velocity": 127,
      "chip": "ym2612"
    },
    {
      "channel": 2,
      "note": 60,
      "start": 15.1391,
      "duration": 0.2338,
      "velocity": 124,
      "chip": "ym2612"
    },
    {
      "channel": 4,
      "note": 27,
      "start": 15.2565,
      "duration": 0.2337,
      "velocity": 97,
      "chip": "ym2612"
    },
    {
      "channel": 2,
      "note": 66,
      "start": 15.3731,
      "duration": 0.6683,
      "velocity": 124,
      "chip": "ym2612"
    },
    {
      "channel": 3,
      "note": 85,
      "start": 15.4899,
      "duration": 0.4349,
      "velocity": 127,
      "chip": "ym2612"
    },
    {
      "channel": 4,
      "note": 28,
      "start": 15.4904,
      "duration": 0.1849,
      "velocity": 97,
      "chip": "ym2612"
    },
    {
      "channel": 1,
      "note": 64,
      "start": 15.6749,
      "duration": 1.0953,
      "velocity": 124,
      "chip": "ym2612"
    },
    {
      "channel": 4,
      "note": 21,
      "start": 15.6756,
      "duration": 1.3123,
      "velocity": 97,
      "chip": "ym2612"
    },
    {
      "channel": 3,
      "note": 85,
      "start": 15.925,
      "duration": 0.4139,
      "velocity": 127,
      "chip": "ym2612"
    },
    {
      "channel": 2,
      "note": 64,
      "start": 16.0416,
      "duration": 1.0474,
      "velocity": 124,
      "chip": "ym2612"
    },
    {
      "channel": 3,
      "note": 85,
      "start": 16.3391,
      "duration": 0.4316,
      "velocity": 127,
      "chip": "ym2612"
    },
    {
      "channel": 0,
      "note": 45,
      "start": 16.7698,
      "duration": 0.8123,
      "velocity": 95,
      "chip": "ym2612"
    },
    {
      "channel": 1,
      "note": 57,
      "start": 16.7703,
      "duration": 0.217,
      "velocity": 124,
      "chip": "ym2612"
    },
    {
      "channel": 3,
      "note": 85,
      "start": 16.7709,
      "duration": 0.4198,
      "velocity": 127,
      "chip": "ym2612"
    },
    {
      "channel": 1,
      "note": 61,
      "start": 16.9874,
      "duration": 0.2027,
      "velocity": 124,
      "chip": "ym2612"
    },
    {
      "channel": 4,
      "note": 21,
      "start": 16.9881,
      "duration": 0.7648,
      "velocity": 97,
      "chip": "ym2612"
    },
    {
      "channel": 2,
      "note": 57,
      "start": 17.0892,
      "duration": 0.2024,
      "velocity": 124,
      "chip": "ym2612"
    },
    {
      "channel": 1,
      "note": 55,
      "start": 17.1902,
      "duration": 0.562,
      "velocity": 124,
      "chip": "ym2612"
    },
    {
      "channel": 3,
      "note": 85,
      "start": 17.1909,
      "duration": 0.3918,
      "velocity": 127,
      "chip": "ym2612"
    },
    {
      "channel": 2,
      "note": 61,
      "start": 17.2917,
      "duration": 0.2049,
      "velocity": 124,
      "chip": "ym2612"
    },
    {
      "channel": 2,
      "note": 55,
      "start": 17.4968,
      "duration": 0.6124,
      "velocity": 124,
      "chip": "ym2612"
    },
    {
      "channel": 0,
      "note": 49,
      "start": 17.5822,
      "duration": 0.6436,
      "velocity": 95,
      "chip": "ym2612"
    },
    {
      "channel": 3,
      "note": 85,
      "start": 17.5829,
      "duration": 0.4102,
      "velocity": 127,
      "chip": "ym2612"
    },
    {
      "channel": 1,
      "note": 64,
      "start": 17.7524,
      "duration": 0.2401,
      "velocity": 124,
      "chip": "ym2612"
    },
    {
      "channel": 4,
      "note": 28,
      "start": 17.7531,
      "duration": 0.9563,
      "velocity": 97,
      "chip": "ym2612"
    },
    {
      "channel": 1,
      "note": 67,
      "start": 17.9927,
      "duration": 0.2337,
      "velocity": 124,
      "chip": "ym2612"
    },
    {
      "channel": 3,
      "note": 85,
      "start": 17.9933,
      "duration": 0.4831,
      "velocity": 127,
      "chip": "ym2612"
    },
    {
      "channel": 2,
      "note": 64,
      "start": 18.1094,
      "duration": 0.2332,
      "velocity": 124,
      "chip": "ym2612"
    },
    {
      "channel": 0,
      "note": 43,
      "start": 18.226,
      "duration": 1.878,
      "velocity": 95,
      "chip": "ym2612"
    },
    {
      "channel": 1,
      "note": 60,
      "start": 18.2265,
      "duration": 0.2494,
      "velocity": 124,
      "chip": "ym2612"
    },
    {
      "channel": 2,
      "note": 67,
      "start": 18.3428,
      "duration": 0.2499,
      "velocity": 124,
      "chip": "ym2612"
    },
    {
      "channel": 1,
      "note": 66,
      "start": 18.476,
      "duration": 0.6434,
      "velocity": 124,
      "chip": "ym2612"
    },
    {
      "channel": 3,
      "note": 85,
      "start": 18.4767,
      "duration": 0.4029,
      "velocity": 127,
      "chip": "ym2612"
    },
    {
      "channel": 2,
      "note": 60,
      "start": 18.5928,
      "duration": 0.2012,
      "velocity": 124,
      "chip": "ym2612"
    },
    {
      "channel": 4,
      "note": 27,
      "start": 18.7095,
      "duration": 0.1706,
      "velocity": 97,
      "chip": "ym2612"
    },
    {
      "channel": 2,
      "note": 66,
      "start": 18.7941,
      "duration": 0.5821,
      "velocity": 124,
      "chip": "ym2612"
    },
    {
      "channel": 3,
      "note": 85,
      "start": 18.8798,
      "duration": 0.4112,
      "velocity": 127,
      "chip": "ym2612"
    },
    {
      "channel": 4,
      "note": 28,
      "start": 18.8803,
      "duration": 0.2398,
      "velocity": 97,
      "chip": "ym2612"
    },
    {
      "channel": 1,
      "note": 63,
      "start": 19.1196,
      "duration": 0.5645,
      "velocity": 124,
      "chip": "ym2612"
    },
    {
      "channel": 4,
      "note": 20,
      "start": 19.1203,
      "duration": 1.1715,
      "velocity": 97,
      "chip": "ym2612"
    },
    {
      "channel": 3,
      "note": 85,
      "start": 19.291,
      "duration": 0.3936,
      "velocity": 127,
      "chip": "ym2612"
    },
    {
      "channel": 2,
      "note": 63,
      "start": 19.3764,
      "duration": 0.6251,
      "velocity": 124,
      "chip": "ym2612"
    },
    {
      "channel": 1,
      "note": 64,
      "start": 19.6842,
      "duration": 0.4205,
      "velocity": 124,
      "chip": "ym2612"
    },
    {
      "channel": 3,
      "note": 85,
      "start": 19.6849,
      "duration": 0.4205,
      "velocity": 127,
      "chip": "ym2612"
    },
    {
      "channel": 2,
      "note": 64,
      "start": 20.0017,
      "duration": 0.4046,
      "velocity": 124,
      "chip": "ym2612"
    },
    {
      "channel": 0,
      "note": 45,
      "start": 20.1042,
      "duration": 0.8147,
      "velocity": 95,
      "chip": "ym2612"
    },
    {
      "channel": 1,
      "note": 57,
      "start": 20.1049,
      "duration": 0.1846,
      "velocity": 124,
      "chip": "ym2612"
    },
    {
      "channel": 3,
      "note": 85,
      "start": 20.1055,
      "duration": 0.4346,
      "velocity": 127,
      "chip": "ym2612"
    },
    {
      "channel": 1,
      "note": 61,
      "start": 20.2896,
      "duration": 0.2499,
      "velocity": 124,
      "chip": "ym2612"
    },
    {
      "channel": 4,
      "note": 21,
      "start": 20.292,
      "duration": 0.8099,
      "velocity": 97,
      "chip": "ym2612"
    },
    {
      "channel": 2,
      "note": 57,
      "start": 20.4064,
      "duration": 0.2304,
      "velocity": 124,
      "chip": "ym2612"
    },
    {
      "channel": 1,
      "note": 55,
      "start": 20.5397,
      "duration": 0.5615,
      "velocity": 124,
      "chip": "ym2612"
    },
    {
      "channel": 3,
      "note": 85,
      "start": 20.5403,
      "duration": 0.3793,
      "velocity": 127,
      "chip": "ym2612"
    },
    {
      "channel": 2,
      "note": 61,
      "start": 20.637,
      "duration": 0.1814,
      "velocity": 124,
      "chip": "ym2612"
    },
    {
      "channel": 2,
      "note": 55,
      "start": 20.8186,
      "duration": 0.6273,
      "velocity": 124,
      "chip": "ym2612"
    },
    {
      "channel": 0,
      "note": 49,
      "start": 20.9191,
      "duration": 0.6599,
      "velocity": 95,
      "chip": "ym2612"
    },
    {
      "channel": 3,
      "note": 85,
      "start": 20.9198,
      "duration": 0.4099,
      "velocity": 127,
      "chip": "ym2612"
    },
    {
      "channel": 1,
      "note": 64,
      "start": 21.1014,
      "duration": 0.2277,
      "velocity": 124,
      "chip": "ym2612"
    },
    {
      "channel": 4,
      "note": 28,
      "start": 21.1021,
      "duration": 0.8406,
      "velocity": 97,
      "chip": "ym2612"
    },
    {
      "channel": 1,
      "note": 67,
      "start": 21.3293,
      "duration": 0.2504,
      "velocity": 124,
      "chip": "ym2612"
    },
    {
      "channel": 3,
      "note": 85,
      "start": 21.3299,
      "duration": 0.4275,
      "velocity": 127,
      "chip": "ym2612"
    },
    {
      "channel": 2,
      "note": 64,
      "start": 21.446,
      "duration": 0.2182,
      "velocity": 124,
      "chip": "ym2612"
    },
    {
      "channel": 0,
      "note": 46,
      "start": 21.5793,
      "duration": 1.8941,
      "velocity": 95,
      "chip": "ym2612"
    },
    {
      "channel": 1,
      "note": 60,
      "start": 21.5798,
      "duration": 0.1769,
      "velocity": 124,
      "chip": "ym2612"
    },
    {
      "channel": 2,
      "note": 67,
      "start": 21.6644,
      "duration": 0.1776,
      "velocity": 124,
      "chip": "ym2612"
    },
    {
      "channel": 1,
      "note": 66,
      "start": 21.757,
      "duration": 0.6204,
      "velocity": 124,
      "chip": "ym2612"
    },
    {
      "channel": 3,
      "note": 85,
      "start": 21.7576,
      "duration": 0.4351,
      "velocity": 127,
      "chip": "ym2612"
    },
    {
      "channel": 2,
      "note": 60,
      "start": 21.8422,
      "duration": 0.2337,
      "velocity": 124,
      "chip": "ym2612"
    },
    {
      "channel": 4,
      "note": 27,
      "start": 21.9429,
      "duration": 0.2504,
      "velocity": 97,
      "chip": "ym2612"
    },
    {
      "channel": 2,
      "note": 66,
      "start": 22.0761,
      "duration": 0.668,
      "velocity": 124,
      "chip": "ym2612"
    },
    {
      "channel": 3,
      "note": 85,
      "start": 22.1929,
      "duration": 0.4346,
      "velocity": 127,
      "chip": "ym2612"
    },
    {
      "channel": 4,
      "note": 28,
      "start": 22.1934,
      "duration": 0.1846,
      "velocity": 97,
      "chip": "ym2612"
    },
    {
      "channel": 1,
      "note": 64,
      "start": 22.3776,
      "duration": 1.0963,
      "velocity": 124,
      "chip": "ym2612"
    },
    {
      "channel": 4,
      "note": 21,
      "start": 22.3783,
      "duration": 1.3137,
      "velocity": 97,
      "chip": "ym2612"
    },
    {
      "channel": 3,
      "note": 85,
      "start": 22.6277,
      "duration": 0.4022,
      "velocity": 127,
      "chip": "ym2612"
    },
    {
      "channel": 2,
      "note": 64,
      "start": 22.7443,
      "duration": 1.0496,
      "velocity": 124,
      "chip": "ym2612"
    },
    {
      "channel": 3,
      "note": 85,
      "start": 23.0301,
      "duration": 0.4444,
      "velocity": 127,
      "chip": "ym2612"
    },
    {
      "channel": 0,
      "note": 45,
      "start": 23.4735,
      "duration": 0.8084,
      "velocity": 95,
      "chip": "ym2612"
    },
    {
      "channel": 1,
      "note": 57,
      "start": 23.4741,
      "duration": 0.2172,
      "velocity": 124,
      "chip": "ym2612"
    },
    {
      "channel": 3,
      "note": 85,
      "start": 23.4747,
      "duration": 0.4212,
      "velocity": 127,
      "chip": "ym2612"
    },
    {
      "channel": 1,
      "note": 61,
      "start": 23.6915,
      "duration": 0.2039,
      "velocity": 124,
      "chip": "ym2612"
    },
    {
      "channel": 4,
      "note": 21,
      "start": 23.6922,
      "duration": 0.7608,
      "velocity": 97,
      "chip": "ym2612"
    },
    {
      "channel": 2,
      "note": 57,
      "start": 23.794,
      "duration": 0.2032,
      "velocity": 124,
      "chip": "ym2612"
    },
    {
      "channel": 1,
      "note": 55,
      "start": 23.8954,
      "duration": 0.5568,
      "velocity": 124,
      "chip": "ym2612"
    },
    {
      "channel": 3,
      "note": 85,
      "start": 23.8961,
      "duration": 0.3865,
      "velocity": 127,
      "chip": "ym2612"
    },
    {
      "channel": 2,
      "note": 61,
      "start": 23.9974,
      "duration": 0.1998,
      "velocity": 124,
      "chip": "ym2612"
    },
    {
      "channel": 2,
      "note": 55,
      "start": 24.1973,
      "duration": 0.6119,
      "velocity": 124,
      "chip": "ym2612"
    },
    {
      "channel": 0,
      "note": 49,
      "start": 24.282,
      "duration": 0.6437,
      "velocity": 95,
      "chip": "ym2612"
    },
    {
      "channel": 3,
      "note": 85,
      "start": 24.2827,
      "duration": 0.4103,
      "velocity": 127,
      "chip": "ym2612"
    },
    {
      "channel": 1,
      "note": 64,
      "start": 24.4525,
      "duration": 0.2399,
      "velocity": 124,
      "chip": "ym2612"
    },
    {
      "channel": 4,
      "note": 28,
      "start": 24.4531,
      "duration": 0.9562,
      "velocity": 97,
      "chip": "ym2612"
    },
    {
      "channel": 1,
      "note": 67,
      "start": 24.6926,
      "duration": 0.2337,
      "velocity": 124,
      "chip": "ym2612"
    },
    {
      "channel": 3,
      "note": 85,
      "start": 24.6933,
      "duration": 0.4665,
      "velocity": 127,
      "chip": "ym2612"
    },
    {
      "channel": 2,
      "note": 64,
      "start": 24.8094,
      "duration": 0.2332,
      "velocity": 124,
      "chip": "ym2612"
    },
    {
      "channel": 0,
      "note": 43,
      "start": 24.9259,
      "duration": 1.8809,
      "velocity": 95,
      "chip": "ym2612"
    },
    {
      "channel": 1,
      "note": 60,
      "start": 24.9265,
      "duration": 0.2327,
      "velocity": 124,
      "chip": "ym2612"
    },
    {
      "channel": 2,
      "note": 67,
      "start": 25.0427,
      "duration": 0.2499,
      "velocity": 124,
      "chip": "ym2612"
    },
    {
      "channel": 1,
      "note": 66,
      "start": 25.1593,
      "duration": 0.6612,
      "velocity": 124,
      "chip": "ym2612"
    },
    {
      "channel": 3,
      "note": 85,
      "start": 25.1599,
      "duration": 0.4201,
      "velocity": 127,
      "chip": "ym2612"
    },
    {
      "channel": 2,
      "note": 60,
      "start": 25.2927,
      "duration": 0.2014,
      "velocity": 124,
      "chip": "ym2612"
    },
    {
      "channel": 4,
      "note": 27,
      "start": 25.4095,
      "duration": 0.1711,
      "velocity": 97,
      "chip": "ym2612"
    },
    {
      "channel": 2,
      "note": 66,
      "start": 25.4942,
      "duration": 0.5829,
      "velocity": 124,
      "chip": "ym2612"
    },
    {
      "channel": 3,
      "note": 85,
      "start": 25.5802,
      "duration": 0.4105,
      "velocity": 127,
      "chip": "ym2612"
    },
    {
      "channel": 4,
      "note": 28,
      "start": 25.5807,
      "duration": 0.2403,
      "velocity": 97,
      "chip": "ym2612"
    },
    {
      "channel": 1,
      "note": 63,
      "start": 25.8206,
      "duration": 0.565,
      "velocity": 124,
      "chip": "ym2612"
    },
    {
      "channel": 4,
      "note": 20,
      "start": 25.8213,
      "duration": 0.9899,
      "velocity": 127,
      "chip": "ym2612"
    },
    {
      "channel": 3,
      "note": 85,
      "start": 25.9908,
      "duration": 0.3954,
      "velocity": 127,
      "chip": "ym2612"
    },
    {
      "channel": 2,
      "note": 63,
      "start": 26.0773,
      "duration": 0.613,
      "velocity": 124,
      "chip": "ym2612"
    },
    {
      "channel": 1,
      "note": 64,
      "start": 26.3858,
      "duration": 0.8402,
      "velocity": 124,
      "chip": "ym2612"
    },
    {
      "channel": 3,
      "note": 85,
      "start": 26.3863,
      "duration": 0.4227,
      "velocity": 72,
      "chip": "ym2612"
    },
    {
      "channel": 2,
      "note": 64,
      "start": 26.6905,
      "duration": 0.8289,
      "velocity": 124,
      "chip": "ym2612"
    },
    {
      "channel": 0,
      "note": 45,
      "start": 26.807,
      "duration": 3.3959,
      "velocity": 95,
      "chip": "ym2612"
    },
    {
      "channel": 3,
      "note": 81,
      "start": 26.8093,
      "duration": 3.396,
      "velocity": 72,
      "chip": "ym2612"
    },
    {
      "channel": 4,
      "note": 85,
      "start": 26.8114,
      "duration": 0.4152,
      "velocity": 127,
      "chip": "ym2612"
    },
    {
      "channel": 5,
      "note": 21,
      "start": 26.9945,
      "duration": 0.115,
      "velocity": 97,
      "chip": "ym2612"
    },
    {
      "channel": 5,
      "note": 21,
      "start": 27.1096,
      "duration": 0.6916,
      "velocity": 97,
      "chip": "ym2612"
    },
    {
      "channel": 1,
      "note": 60,
      "start": 27.2261,
      "duration": 0.2082,
      "velocity": 124,
      "chip": "ym2612"
    },
    {
      "channel": 4,
      "note": 85,
      "start": 27.2268,
      "duration": 0.3922,
      "velocity": 127,
      "chip": "ym2612"
    },
    {
      "channel": 1,
      "note": 66,
      "start": 27.4345,
      "duration": 0.1837,
      "velocity": 124,
      "chip": "ym2612"
    },
    {
      "channel": 2,
      "note": 60,
      "start": 27.5196,
      "duration": 0.1844,
      "velocity": 124,
      "chip": "ym2612"
    },
    {
      "channel": 1,
      "note": 59,
      "start": 27.6184,
      "duration": 0.8394,
      "velocity": 124,
      "chip": "ym2612"
    },
    {
      "channel": 4,
      "note": 85,
      "start": 27.6191,
      "duration": 0.4154,
      "velocity": 127,
      "chip": "ym2612"
    },
    {
      "channel": 2,
      "note": 66,
      "start": 27.7041,
      "duration": 0.2135,
      "velocity": 124,
      "chip": "ym2612"
    },
    {
      "channel": 5,
      "note": 33,
      "start": 27.8014,
      "duration": 0.1169,
      "velocity": 97,
      "chip": "ym2612"
    },
    {
      "channel": 2,
      "note": 59,
      "start": 27.9178,
      "duration": 0.8429,
      "velocity": 124,
      "chip": "ym2612"
    },
    {
      "channel": 5,
      "note": 33,
      "start": 27.9185,
      "duration": 0.1166,
      "velocity": 97,
      "chip": "ym2612"
    },
    {
      "channel": 4,
      "note": 85,
      "start": 28.0347,
      "duration": 0.4238,
      "velocity": 127,
      "chip": "ym2612"
    },
    {
      "channel": 5,
      "note": 21,
      "start": 28.0353,
      "duration": 0.6095,
      "velocity": 97,
      "chip": "ym2612"
    },
    {
      "channel": 1,
      "note": 57,
      "start": 28.458,
      "duration": 0.1859,
      "velocity": 124,
      "chip": "ym2612"
    },
    {
      "channel": 4,
      "note": 85,
      "start": 28.4587,
      "duration": 0.4354,
      "velocity": 127,
      "chip": "ym2612"
    },
    {
      "channel": 1,
      "note": 67,
      "start": 28.6441,
      "duration": 0.4357,
      "velocity": 124,
      "chip": "ym2612"
    },
    {
      "channel": 5,
      "note": 21,
      "start": 28.6449,
      "duration": 0.4357,
      "velocity": 97,
      "chip": "ym2612"
    },
    {
      "channel": 2,
      "note": 57,
      "start": 28.7609,
      "duration": 0.2185,
      "velocity": 124,
      "chip": "ym2612"
    },
    {
      "channel": 4,
      "note": 85,
      "start": 28.8943,
      "duration": 0.4195,
      "velocity": 127,
      "chip": "ym2612"
    },
    {
      "channel": 2,
      "note": 67,
      "start": 28.9795,
      "duration": 0.4671,
      "velocity": 124,
      "chip": "ym2612"
    },
    {
      "channel": 1,
      "note": 59,
      "start": 29.08,
      "duration": 0.2332,
      "velocity": 124,
      "chip": "ym2612"
    },
    {
      "channel": 5,
      "note": 21,
      "start": 29.0807,
      "duration": 0.116,
      "velocity": 97,
      "chip": "ym2612"
    },
    {
      "channel": 5,
      "note": 21,
      "start": 29.1969,
      "duration": 0.1175,
      "velocity": 97,
      "chip": "ym2612"
    },
    {
      "channel": 1,
      "note": 63,
      "start": 29.3133,
      "duration": 1.3731,
      "velocity": 124,
      "chip": "ym2612"
    },
    {
      "channel": 4,
      "note": 85,
      "start": 29.314,
      "duration": 0.4205,
      "velocity": 127,
      "chip": "ym2612"
    },
    {
      "channel": 5,
      "note": 33,
      "start": 29.3146,
      "duration": 0.4205,
      "velocity": 97,
      "chip": "ym2612"
    },
    {
      "channel": 2,
      "note": 59,
      "start": 29.4468,
      "duration": 0.2027,
      "velocity": 124,
      "chip": "ym2612"
    },
    {
      "channel": 2,
      "note": 63,
      "start": 29.6497,
      "duration": 1.3556,
      "velocity": 124,
      "chip": "ym2612"
    },
    {
      "channel": 4,
      "note": 85,
      "start": 29.7347,
      "duration": 0.4711,
      "velocity": 127,
      "chip": "ym2612"
    },
    {
      "channel": 5,
      "note": 33,
      "start": 29.7353,
      "duration": 0.116,
      "velocity": 97,
      "chip": "ym2612"
    },
    {
      "channel": 5,
      "note": 21,
      "start": 29.8514,
      "duration": 0.2352,
      "velocity": 97,
      "chip": "ym2612"
    },
    {
      "channel": 5,
      "note": 21,
      "start": 30.0868,
      "duration": 0.3498,
      "velocity": 97,
      "chip": "ym2612"
    },
    {
      "channel": 0,
      "note": 45,
      "start": 30.2031,
      "duration": 0.0032,
      "velocity": 95,
      "chip": "ym2612"
    },
    {
      "channel": 3,
      "note": 69,
      "start": 30.2054,
      "duration": 3.4539,
      "velocity": 72,
      "chip": "ym2612"
    },
    {
      "channel": 4,
      "note": 85,
      "start": 30.2059,
      "duration": 0.4811,
      "velocity": 127,
      "chip": "ym2612"
    },
    {
      "channel": 0,
      "note": 46,
      "start": 30.2064,
      "duration": 0.0129,
      "velocity": 95,
      "chip": "ym2612"
    },
    {
      "channel": 0,
      "note": 47,
      "start": 30.2192,
      "duration": 0.0167,
      "velocity": 95,
      "chip": "ym2612"
    },
    {
      "channel": 0,
      "note": 47,
      "start": 30.2359,
      "duration": 0.0333,
      "velocity": 95,
      "chip": "ym2612"
    },
    {
      "channel": 0,
      "note": 48,
      "start": 30.2692,
      "duration": 0.0167,
      "velocity": 95,
      "chip": "ym2612"
    },
    {
      "channel": 0,
      "note": 49,
      "start": 30.2859,
      "duration": 0.0167,
      "velocity": 95,
      "chip": "ym2612"
    },
    {
      "channel": 0,
      "note": 49,
      "start": 30.3026,
      "duration": 0.0333,
      "velocity": 95,
      "chip": "ym2612"
    },
    {
      "channel": 0,
      "note": 50,
      "start": 30.3359,
      "duration": 0.0333,
      "velocity": 95,
      "chip": "ym2612"
    },
    {
      "channel": 0,
      "note": 51,
      "start": 30.3692,
      "duration": 0.0167,
      "velocity": 95,
      "chip": "ym2612"
    },
    {
      "channel": 0,
      "note": 51,
      "start": 30.3859,
      "duration": 3.2711,
      "velocity": 95,
      "chip": "ym2612"
    },
    {
      "channel": 5,
      "note": 21,
      "start": 30.4367,
      "duration": 0.1332,
      "velocity": 97,
      "chip": "ym2612"
    },
    {
      "channel": 5,
      "note": 21,
      "start": 30.57,
      "duration": 0.1176,
      "velocity": 97,
      "chip": "ym2612"
    },
    {
      "channel": 1,
      "note": 60,
      "start": 30.6865,
      "duration": 0.2331,
      "velocity": 124,
      "chip": "ym2612"
    },
    {
      "channel": 4,
      "note": 85,
      "start": 30.6872,
      "duration": 0.417,
      "velocity": 127,
      "chip": "ym2612"
    },
    {
      "channel": 5,
      "note": 33,
      "start": 30.6878,
      "duration": 0.5852,
      "velocity": 97,
      "chip": "ym2612"
    },
    {
      "channel": 1,
      "note": 66,
      "start": 30.9199,
      "duration": 0.1837,
      "velocity": 124,
      "chip": "ym2612"
    },
    {
      "channel": 2,
      "note": 60,
      "start": 31.0055,
      "duration": 0.1826,
      "velocity": 124,
      "chip": "ym2612"
    },
    {
      "channel": 1,
      "note": 59,
      "start": 31.1037,
      "duration": 0.8857,
      "velocity": 124,
      "chip": "ym2612"
    },
    {
      "channel": 4,
      "note": 85,
      "start": 31.1044,
      "duration": 0.4018,
      "velocity": 127,
      "chip": "ym2612"
    },
    {
      "channel": 2,
      "note": 66,
      "start": 31.1882,
      "duration": 0.2012,
      "velocity": 124,
      "chip": "ym2612"
    },
    {
      "channel": 5,
      "note": 33,
      "start": 31.2732,
      "duration": 0.117,
      "velocity": 97,
      "chip": "ym2612"
    },
    {
      "channel": 2,
      "note": 59,
      "start": 31.3896,
      "duration": 0.9351,
      "velocity": 124,
      "chip": "ym2612"
    },
    {
      "channel": 5,
      "note": 33,
      "start": 31.3903,
      "duration": 0.1166,
      "velocity": 97,
      "chip": "ym2612"
    },
    {
      "channel": 4,
      "note": 85,
      "start": 31.5064,
      "duration": 0.4837,
      "velocity": 127,
      "chip": "ym2612"
    },
    {
      "channel": 5,
      "note": 21,
      "start": 31.507,
      "duration": 0.2493,
      "velocity": 97,
      "chip": "ym2612"
    },
    {
      "channel": 5,
      "note": 21,
      "start": 31.7565,
      "duration": 0.2341,
      "velocity": 97,
      "chip": "ym2612"
    },
    {
      "channel": 1,
      "note": 63,
      "start": 31.9896,
      "duration": 0.2498,
      "velocity": 124,
      "chip": "ym2612"
    },
    {
      "channel": 4,
      "note": 85,
      "start": 31.9903,
      "duration": 0.421,
      "velocity": 127,
      "chip": "ym2612"
    },
    {
      "channel": 5,
      "note": 33,
      "start": 31.9908,
      "duration": 0.421,
      "velocity": 97,
      "chip": "ym2612"
    },
    {
      "channel": 1,
      "note": 54,
      "start": 32.2396,
      "duration": 0.171,
      "velocity": 124,
      "chip": "ym2612"
    },
    {
      "channel": 2,
      "note": 63,
      "start": 32.3249,
      "duration": 0.2024,
      "velocity": 124,
      "chip": "ym2612"
    },
    {
      "channel": 1,
      "note": 57,
      "start": 32.4107,
      "duration": 0.5952,
      "velocity": 124,
      "chip": "ym2612"
    },
    {
      "channel": 4,
      "note": 85,
      "start": 32.4114,
      "duration": 0.4143,
      "velocity": 127,
      "chip": "ym2612"
    },
    {
      "channel": 5,
      "note": 21,
      "start": 32.412,
      "duration": 0.116,
      "velocity": 97,
      "chip": "ym2612"
    },
    {
      "channel": 2,
      "note": 54,
      "start": 32.5275,
      "duration": 0.2137,
      "velocity": 124,
      "chip": "ym2612"
    },
    {
      "channel": 5,
      "note": 21,
      "start": 32.5282,
      "duration": 0.8942,
      "velocity": 97,
      "chip": "ym2612"
    },
    {
      "channel": 2,
      "note": 57,
      "start": 32.7413,
      "duration": 0.5795,
      "velocity": 124,
      "chip": "ym2612"
    },
    {
      "channel": 4,
      "note": 85,
      "start": 32.8259,
      "duration": 0.3934,
      "velocity": 127,
      "chip": "ym2612"
    },
    {
      "channel": 1,
      "note": 51,
      "start": 33.0062,
      "duration": 0.2125,
      "velocity": 124,
      "chip": "ym2612"
    },
    {
      "channel": 1,
      "note": 54,
      "start": 33.2189,
      "duration": 0.8717,
      "velocity": 124,
      "chip": "ym2612"
    },
    {
      "channel": 4,
      "note": 85,
      "start": 33.2195,
      "duration": 0.4404,
      "velocity": 127,
      "chip": "ym2612"
    },
    {
      "channel": 2,
      "note": 51,
      "start": 33.321,
      "duration": 0.2178,
      "velocity": 124,
      "chip": "ym2612"
    },
    {
      "channel": 5,
      "note": 33,
      "start": 33.4225,
      "duration": 0.117,
      "velocity": 97,
      "chip": "ym2612"
    },
    {
      "channel": 2,
      "note": 54,
      "start": 33.539,
      "duration": 0.8462,
      "velocity": 124,
      "chip": "ym2612"
    },
    {
      "channel": 5,
      "note": 33,
      "start": 33.5396,
      "duration": 0.3178,
      "velocity": 97,
      "chip": "ym2612"
    },
    {
      "channel": 0,
      "note": 45,
      "start": 33.6572,
      "duration": 3.4135,
      "velocity": 95,
      "chip": "ym2612"
    },
    {
      "channel": 3,
      "note": 86,
      "start": 33.6595,
      "duration": 0.0015,
      "velocity": 72,
      "chip": "ym2612"
    },
    {
      "channel": 4,
      "note": 85,
      "start": 33.6601,
      "duration": 0.4311,
      "velocity": 127,
      "chip": "ym2612"
    },
    {
      "channel": 3,
      "note": 86,
      "start": 33.661,
      "duration": 0.0201,
      "velocity": 72,
      "chip": "ym2612"
    },
    {
      "channel": 3,
      "note": 87,
      "start": 33.681,
      "duration": 0.0127,
      "velocity": 72,
      "chip": "ym2612"
    },
    {
      "channel": 3,
      "note": 87,
      "start": 33.6937,
      "duration": 0.012,
      "velocity": 72,
      "chip": "ym2612"
    },
    {
      "channel": 3,
      "note": 87,
      "start": 33.7057,
      "duration": 0.0119,
      "velocity": 72,
      "chip": "ym2612"
    },
    {
      "channel": 3,
      "note": 88,
      "start": 33.7176,
      "duration": 0.0118,
      "velocity": 72,
      "chip": "ym2612"
    },
    {
      "channel": 3,
      "note": 88,
      "start": 33.7294,
      "duration": 0.0251,
      "velocity": 72,
      "chip": "ym2612"
    },
    {
      "channel": 3,
      "note": 88,
      "start": 33.7547,
      "duration": 3.0842,
      "velocity": 72,
      "chip": "ym2612"
    },
    {
      "channel": 5,
      "note": 21,
      "start": 33.8577,
      "duration": 0.1164,
      "velocity": 97,
      "chip": "ym2612"
    },
    {
      "channel": 5,
      "note": 21,
      "start": 33.9743,
      "duration": 0.6795,
      "velocity": 97,
      "chip": "ym2612"
    },
    {
      "channel": 1,
      "note": 60,
      "start": 34.0908,
      "duration": 0.2083,
      "velocity": 124,
      "chip": "ym2612"
    },
    {
      "channel": 4,
      "note": 85,
      "start": 34.0915,
      "duration": 0.3933,
      "velocity": 127,
      "chip": "ym2612"
    },
    {
      "channel": 1,
      "note": 66,
      "start": 34.2993,
      "duration": 0.1848,
      "velocity": 124,
      "chip": "ym2612"
    },
    {
      "channel": 2,
      "note": 60,
      "start": 34.3853,
      "duration": 0.1831,
      "velocity": 124,
      "chip": "ym2612"
    },
    {
      "channel": 1,
      "note": 59,
      "start": 34.4843,
      "duration": 0.845,
      "velocity": 124,
      "chip": "ym2612"
    },
    {
      "channel": 4,
      "note": 85,
      "start": 34.4849,
      "duration": 0.4188,
      "velocity": 127,
      "chip": "ym2612"
    },
    {
      "channel": 2,
      "note": 66,
      "start": 34.5686,
      "duration": 0.2183,
      "velocity": 124,
      "chip": "ym2612"
    },
    {
      "channel": 5,
      "note": 33,
      "start": 34.654,
      "duration": 0.1336,
      "velocity": 97,
      "chip": "ym2612"
    },
    {
      "channel": 2,
      "note": 59,
      "start": 34.7871,
      "duration": 0.8439,
      "velocity": 124,
      "chip": "ym2612"
    },
    {
      "channel": 5,
      "note": 33,
      "start": 34.7877,
      "duration": 0.1166,
      "velocity": 97,
      "chip": "ym2612"
    },
    {
      "channel": 4,
      "note": 85,
      "start": 34.9039,
      "duration": 0.4261,
      "velocity": 127,
      "chip": "ym2612"
    },
    {
      "channel": 5,
      "note": 21,
      "start": 34.9045,
      "duration": 0.6104,
      "velocity": 97,
      "chip": "ym2612"
    },
    {
      "channel": 1,
      "note": 57,
      "start": 35.3295,
      "duration": 0.1847,
      "velocity": 124,
      "chip": "ym2612"
    },
    {
      "channel": 4,
      "note": 85,
      "start": 35.3301,
      "duration": 0.4176,
      "velocity": 127,
      "chip": "ym2612"
    },
    {
      "channel": 1,
      "note": 67,
      "start": 35.5143,
      "duration": 0.4365,
      "velocity": 124,
      "chip": "ym2612"
    },
    {
      "channel": 5,
      "note": 21,
      "start": 35.5151,
      "duration": 0.4365,
      "velocity": 97,
      "chip": "ym2612"
    },
    {
      "channel": 2,
      "note": 57,
      "start": 35.6311,
      "duration": 0.2144,
      "velocity": 124,
      "chip": "ym2612"
    },
    {
      "channel": 4,
      "note": 85,
      "start": 35.7478,
      "duration": 0.437,
      "velocity": 127,
      "chip": "ym2612"
    },
    {
      "channel": 2,
      "note": 67,
      "start": 35.8456,
      "duration": 0.4553,
      "velocity": 124,
      "chip": "ym2612"
    },
    {
      "channel": 1,
      "note": 59,
      "start": 35.951,
      "duration": 0.2332,
      "velocity": 124,
      "chip": "ym2612"
    },
    {
      "channel": 5,
      "note": 21,
      "start": 35.9517,
      "duration": 0.116,
      "velocity": 97,
      "chip": "ym2612"
    },
    {
      "channel": 5,
      "note": 21,
      "start": 36.0679,
      "duration": 0.1175,
      "velocity": 97,
      "chip": "ym2612"
    },
    {
      "channel": 1,
      "note": 63,
      "start": 36.1843,
      "duration": 1.3698,
      "velocity": 124,
      "chip": "ym2612"
    },
    {
      "channel": 4,
      "note": 85,
      "start": 36.185,
      "duration": 0.4191,
      "velocity": 127,
      "chip": "ym2612"
    },
    {
      "channel": 5,
      "note": 33,
      "start": 36.1856,
      "duration": 0.4191,
      "velocity": 97,
      "chip": "ym2612"
    },
    {
      "channel": 2,
      "note": 59,
      "start": 36.3011,
      "duration": 0.2178,
      "velocity": 124,
      "chip": "ym2612"
    },
    {
      "channel": 2,
      "note": 63,
      "start": 36.5191,
      "duration": 1.3539,
      "velocity": 124,
      "chip": "ym2612"
    },
    {
      "channel": 4,
      "note": 85,
      "start": 36.6043,
      "duration": 0.4676,
      "velocity": 127,
      "chip": "ym2612"
    },
    {
      "channel": 5,
      "note": 33,
      "start": 36.6049,
      "duration": 0.116,
      "velocity": 97,
      "chip": "ym2612"
    },
    {
      "channel": 5,
      "note": 21,
      "start": 36.721,
      "duration": 0.2334,
      "velocity": 97,
      "chip": "ym2612"
    },
    {
      "channel": 3,
      "note": 79,
      "start": 36.8391,
      "duration": 0.2323,
      "velocity": 72,
      "chip": "ym2612"
    },
    {
      "channel": 5,
      "note": 21,
      "start": 36.9546,
      "duration": 0.3497,
      "velocity": 97,
      "chip": "ym2612"
    },
    {
      "channel": 0,
      "note": 45,
      "start": 37.0709,
      "duration": 0.0016,
      "velocity": 95,
      "chip": "ym2612"
    },
    {
      "channel": 3,
      "note": 78,
      "start": 37.0715,
      "duration": 3.4534,
      "velocity": 72,
      "chip": "ym2612"
    },
    {
      "channel": 4,
      "note": 85,
      "start": 37.0721,
      "duration": 0.4827,
      "velocity": 127,
      "chip": "ym2612"
    },
    {
      "channel": 0,
      "note": 46,
      "start": 37.0725,
      "duration": 0.0145,
      "velocity": 95,
      "chip": "ym2612"
    },
    {
      "channel": 0,
      "note": 47,
      "start": 37.087,
      "duration": 0.0167,
      "velocity": 95,
      "chip": "ym2612"
    },
    {
      "channel": 0,
      "note": 47,
      "start": 37.1037,
      "duration": 0.0167,
      "velocity": 95,
      "chip": "ym2612"
    },
    {
      "channel": 0,
      "note": 48,
      "start": 37.1203,
      "duration": 0.0333,
      "velocity": 95,
      "chip": "ym2612"
    },
    {
      "channel": 0,
      "note": 49,
      "start": 37.1537,
      "duration": 0.0167,
      "velocity": 95,
      "chip": "ym2612"
    },
    {
      "channel": 0,
      "note": 49,
      "start": 37.1703,
      "duration": 0.0333,
      "velocity": 95,
      "chip": "ym2612"
    },
    {
      "channel": 0,
      "note": 50,
      "start": 37.2037,
      "duration": 0.0167,
      "velocity": 95,
      "chip": "ym2612"
    },
    {
      "channel": 0,
      "note": 51,
      "start": 37.2203,
      "duration": 0.0333,
      "velocity": 95,
      "chip": "ym2612"
    },
    {
      "channel": 0,
      "note": 51,
      "start": 37.2537,
      "duration": 3.269,
      "velocity": 95,
      "chip": "ym2612"
    },
    {
      "channel": 5,
      "note": 21,
      "start": 37.3044,
      "duration": 0.1166,
      "velocity": 97,
      "chip": "ym2612"
    },
    {
      "channel": 5,
      "note": 21,
      "start": 37.4211,
      "duration": 0.1343,
      "velocity": 97,
      "chip": "ym2612"
    },
    {
      "channel": 1,
      "note": 60,
      "start": 37.5543,
      "duration": 0.2331,
      "velocity": 124,
      "chip": "ym2612"
    },
    {
      "channel": 4,
      "note": 85,
      "start": 37.555,
      "duration": 0.4032,
      "velocity": 127,
      "chip": "ym2612"
    },
    {
      "channel": 5,
      "note": 33,
      "start": 37.5556,
      "duration": 0.5859,
      "velocity": 97,
      "chip": "ym2612"
    },
    {
      "channel": 1,
      "note": 66,
      "start": 37.7876,
      "duration": 0.17,
      "velocity": 124,
      "chip": "ym2612"
    },
    {
      "channel": 2,
      "note": 60,
      "start": 37.8732,
      "duration": 0.1824,
      "velocity": 124,
      "chip": "ym2612"
    },
    {
      "channel": 1,
      "note": 59,
      "start": 37.9577,
      "duration": 0.9002,
      "velocity": 124,
      "chip": "ym2612"
    },
    {
      "channel": 4,
      "note": 85,
      "start": 37.9584,
      "duration": 0.4163,
      "velocity": 127,
      "chip": "ym2612"
    },
    {
      "channel": 2,
      "note": 66,
      "start": 38.0559,
      "duration": 0.202,
      "velocity": 124,
      "chip": "ym2612"
    },
    {
      "channel": 5,
      "note": 33,
      "start": 38.1417,
      "duration": 0.1169,
      "velocity": 97,
      "chip": "ym2612"
    },
    {
      "channel": 2,
      "note": 59,
      "start": 38.2581,
      "duration": 0.9316,
      "velocity": 124,
      "chip": "ym2612"
    },
    {
      "channel": 5,
      "note": 33,
      "start": 38.2588,
      "duration": 0.1166,
      "velocity": 97,
      "chip": "ym2612"
    },
    {
      "channel": 4,
      "note": 85,
      "start": 38.3749,
      "duration": 0.4837,
      "velocity": 127,
      "chip": "ym2612"
    },
    {
      "channel": 5,
      "note": 21,
      "start": 38.3754,
      "duration": 0.2493,
      "velocity": 97,
      "chip": "ym2612"
    },
    {
      "channel": 5,
      "note": 21,
      "start": 38.6249,
      "duration": 0.2342,
      "velocity": 97,
      "chip": "ym2612"
    },
    {
      "channel": 1,
      "note": 63,
      "start": 38.858,
      "duration": 0.2331,
      "velocity": 124,
      "chip": "ym2612"
    },
    {
      "channel": 4,
      "note": 85,
      "start": 38.8587,
      "duration": 0.4168,
      "velocity": 127,
      "chip": "ym2612"
    },
    {
      "channel": 5,
      "note": 33,
      "start": 38.8593,
      "duration": 0.4168,
      "velocity": 97,
      "chip": "ym2612"
    },
    {
      "channel": 1,
      "note": 54,
      "start": 39.0914,
      "duration": 0.1835,
      "velocity": 124,
      "chip": "ym2612"
    },
    {
      "channel": 2,
      "note": 63,
      "start": 39.1899,
      "duration": 0.2017,
      "velocity": 124,
      "chip": "ym2612"
    },
    {
      "channel": 1,
      "note": 57,
      "start": 39.275,
      "duration": 0.5972,
      "velocity": 124,
      "chip": "ym2612"
    },
    {
      "channel": 4,
      "note": 85,
      "start": 39.2757,
      "duration": 0.418,
      "velocity": 127,
      "chip": "ym2612"
    },
    {
      "channel": 5,
      "note": 21,
      "start": 39.2763,
      "duration": 0.116,
      "velocity": 97,
      "chip": "ym2612"
    },
    {
      "channel": 2,
      "note": 54,
      "start": 39.3917,
      "duration": 0.2021,
      "velocity": 124,
      "chip": "ym2612"
    },
    {
      "channel": 5,
      "note": 21,
      "start": 39.3924,
      "duration": 0.8956,
      "velocity": 97,
      "chip": "ym2612"
    },
    {
      "channel": 2,
      "note": 57,
      "start": 39.5939,
      "duration": 0.5925,
      "velocity": 124,
      "chip": "ym2612"
    },
    {
      "channel": 4,
      "note": 85,
      "start": 39.6939,
      "duration": 0.377,
      "velocity": 127,
      "chip": "ym2612"
    },
    {
      "channel": 1,
      "note": 51,
      "start": 39.8724,
      "duration": 0.1978,
      "velocity": 124,
      "chip": "ym2612"
    },
    {
      "channel": 1,
      "note": 54,
      "start": 40.0704,
      "duration": 0.8862,
      "velocity": 124,
      "chip": "ym2612"
    },
    {
      "channel": 4,
      "note": 85,
      "start": 40.071,
      "duration": 0.4546,
      "velocity": 127,
      "chip": "ym2612"
    },
    {
      "channel": 2,
      "note": 51,
      "start": 40.1865,
      "duration": 0.218,
      "velocity": 124,
      "chip": "ym2612"
    },
    {
      "channel": 5,
      "note": 33,
      "start": 40.2882,
      "duration": 0.117,
      "velocity": 97,
      "chip": "ym2612"
    },
    {
      "channel": 2,
      "note": 54,
      "start": 40.4046,
      "duration": 0.8448,
      "velocity": 124,
      "chip": "ym2612"
    },
    {
      "channel": 5,
      "note": 33,
      "start": 40.4053,
      "duration": 0.3182,
      "velocity": 97,
      "chip": "ym2612"
    },
    {
      "channel": 0,
      "note": 45,
      "start": 40.5229,
      "duration": 3.4169,
      "velocity": 95,
      "chip": "ym2612"
    },
    {
      "channel": 3,
      "note": 81,
      "start": 40.5252,
      "duration": 3.4169,
      "velocity": 72,
      "chip": "ym2612"
    },
    {
      "channel": 4,
      "note": 85,
      "start": 40.5257,
      "duration": 0.4315,
      "velocity": 127,
      "chip": "ym2612"
    },
    {
      "channel": 5,
      "note": 21,
      "start": 40.7237,
      "duration": 0.1164,
      "velocity": 97,
      "chip": "ym2612"
    },
    {
      "channel": 5,
      "note": 21,
      "start": 40.8403,
      "duration": 0.6826,
      "velocity": 97,
      "chip": "ym2612"
    },
    {
      "channel": 1,
      "note": 60,
      "start": 40.9568,
      "duration": 0.1941,
      "velocity": 124,
      "chip": "ym2612"
    },
    {
      "channel": 4,
      "note": 85,
      "start": 40.9574,
      "duration": 0.3961,
      "velocity": 127,
      "chip": "ym2612"
    },
    {
      "channel": 1,
      "note": 66,
      "start": 41.1511,
      "duration": 0.2018,
      "velocity": 124,
      "chip": "ym2612"
    },
    {
      "channel": 2,
      "note": 60,
      "start": 41.2495,
      "duration": 0.1878,
      "velocity": 124,
      "chip": "ym2612"
    },
    {
      "channel": 1,
      "note": 59,
      "start": 41.353,
      "duration": 0.8312,
      "velocity": 124,
      "chip": "ym2612"
    },
    {
      "channel": 4,
      "note": 85,
      "start": 41.3537,
      "duration": 0.4191,
      "velocity": 127,
      "chip": "ym2612"
    },
    {
      "channel": 2,
      "note": 66,
      "start": 41.4376,
      "duration": 0.2017,
      "velocity": 124,
      "chip": "ym2612"
    },
    {
      "channel": 5,
      "note": 33,
      "start": 41.523,
      "duration": 0.1169,
      "velocity": 97,
      "chip": "ym2612"
    },
    {
      "channel": 2,
      "note": 59,
      "start": 41.6395,
      "duration": 0.8636,
      "velocity": 124,
      "chip": "ym2612"
    },
    {
      "channel": 5,
      "note": 33,
      "start": 41.6401,
      "duration": 0.1332,
      "velocity": 97,
      "chip": "ym2612"
    },
    {
      "channel": 4,
      "note": 85,
      "start": 41.7729,
      "duration": 0.4121,
      "velocity": 127,
      "chip": "ym2612"
    },
    {
      "channel": 5,
      "note": 21,
      "start": 41.7735,
      "duration": 0.6136,
      "velocity": 97,
      "chip": "ym2612"
    },
    {
      "channel": 1,
      "note": 57,
      "start": 42.1845,
      "duration": 0.2018,
      "velocity": 124,
      "chip": "ym2612"
    },
    {
      "channel": 4,
      "note": 85,
      "start": 42.1852,
      "duration": 0.4346,
      "velocity": 127,
      "chip": "ym2612"
    },
    {
      "channel": 1,
      "note": 67,
      "start": 42.3865,
      "duration": 0.4348,
      "velocity": 124,
      "chip": "ym2612"
    },
    {
      "channel": 5,
      "note": 21,
      "start": 42.3872,
      "duration": 0.4348,
      "velocity": 97,
      "chip": "ym2612"
    },
    {
      "channel": 2,
      "note": 57,
      "start": 42.5032,
      "duration": 0.2008,
      "velocity": 124,
      "chip": "ym2612"
    },
    {
      "channel": 4,
      "note": 85,
      "start": 42.62,
      "duration": 0.4353,
      "velocity": 127,
      "chip": "ym2612"
    },
    {
      "channel": 2,
      "note": 67,
      "start": 42.7041,
      "duration": 0.4672,
      "velocity": 124,
      "chip": "ym2612"
    },
    {
      "channel": 1,
      "note": 59,
      "start": 42.8214,
      "duration": 0.2332,
      "velocity": 124,
      "chip": "ym2612"
    },
    {
      "channel": 5,
      "note": 21,
      "start": 42.8222,
      "duration": 0.116,
      "velocity": 97,
      "chip": "ym2612"
    },
    {
      "channel": 5,
      "note": 21,
      "start": 42.9383,
      "duration": 0.1175,
      "velocity": 97,
      "chip": "ym2612"
    },
    {
      "channel": 1,
      "note": 63,
      "start": 43.0548,
      "duration": 1.3518,
      "velocity": 124,
      "chip": "ym2612"
    },
    {
      "channel": 4,
      "note": 85,
      "start": 43.0555,
      "duration": 0.4162,
      "velocity": 127,
      "chip": "ym2612"
    },
    {
      "channel": 5,
      "note": 33,
      "start": 43.056,
      "duration": 0.4162,
      "velocity": 97,
      "chip": "ym2612"
    },
    {
      "channel": 2,
      "note": 59,
      "start": 43.1715,
      "duration": 0.214,
      "velocity": 124,
      "chip": "ym2612"
    },
    {
      "channel": 2,
      "note": 63,
      "start": 43.3858,
      "duration": 1.3556,
      "velocity": 124,
      "chip": "ym2612"
    },
    {
      "channel": 4,
      "note": 85,
      "start": 43.4717,
      "duration": 0.4709,
      "velocity": 127,
      "chip": "ym2612"
    },
    {
      "channel": 5,
      "note": 33,
      "start": 43.4723,
      "duration": 0.116,
      "velocity": 97,
      "chip": "ym2612"
    },
    {
      "channel": 5,
      "note": 21,
      "start": 43.5885,
      "duration": 0.2183,
      "velocity": 97,
      "chip": "ym2612"
    },
    {
      "channel": 5,
      "note": 21,
      "start": 43.8069,
      "duration": 0.3664,
      "velocity": 97,
      "chip": "ym2612"
    },
    {
      "channel": 0,
      "note": 45,
      "start": 43.94,
      "duration": 0.0032,
      "velocity": 95,
      "chip": "ym2612"
    },
    {
      "channel": 3,
      "note": 69,
      "start": 43.9422,
      "duration": 3.4492,
      "velocity": 72,
      "chip": "ym2612"
    },
    {
      "channel": 4,
      "note": 85,
      "start": 43.9427,
      "duration": 0.4644,
      "velocity": 127,
      "chip": "ym2612"
    },
    {
      "channel": 0,
      "note": 46,
      "start": 43.9432,
      "duration": 0.0129,
      "velocity": 95,
      "chip": "ym2612"
    },
    {
      "channel": 0,
      "note": 47,
      "start": 43.9561,
      "duration": 0.0167,
      "velocity": 95,
      "chip": "ym2612"
    },
    {
      "channel": 0,
      "note": 47,
      "start": 43.9727,
      "duration": 0.0167,
      "velocity": 95,
      "chip": "ym2612"
    },
    {
      "channel": 0,
      "note": 48,
      "start": 43.9894,
      "duration": 0.0167,
      "velocity": 95,
      "chip": "ym2612"
    },
    {
      "channel": 0,
      "note": 49,
      "start": 44.0061,
      "duration": 0.0333,
      "velocity": 95,
      "chip": "ym2612"
    },
    {
      "channel": 0,
      "note": 49,
      "start": 44.0394,
      "duration": 0.0333,
      "velocity": 95,
      "chip": "ym2612"
    },
    {
      "channel": 0,
      "note": 50,
      "start": 44.0727,
      "duration": 0.0167,
      "velocity": 95,
      "chip": "ym2612"
    },
    {
      "channel": 0,
      "note": 51,
      "start": 44.0894,
      "duration": 0.0167,
      "velocity": 95,
      "chip": "ym2612"
    },
    {
      "channel": 0,
      "note": 51,
      "start": 44.1061,
      "duration": 3.2831,
      "velocity": 95,
      "chip": "ym2612"
    },
    {
      "channel": 5,
      "note": 21,
      "start": 44.1735,
      "duration": 0.1165,
      "velocity": 97,
      "chip": "ym2612"
    },
    {
      "channel": 5,
      "note": 21,
      "start": 44.2902,
      "duration": 0.1176,
      "velocity": 97,
      "chip": "ym2612"
    },
    {
      "channel": 1,
      "note": 60,
      "start": 44.4067,
      "duration": 0.2498,
      "velocity": 124,
      "chip": "ym2612"
    },
    {
      "channel": 4,
      "note": 85,
      "start": 44.4074,
      "duration": 0.4195,
      "velocity": 127,
      "chip": "ym2612"
    },
    {
      "channel": 5,
      "note": 33,
      "start": 44.408,
      "duration": 0.6014,
      "velocity": 97,
      "chip": "ym2612"
    },
    {
      "channel": 1,
      "note": 66,
      "start": 44.6567,
      "duration": 0.1695,
      "velocity": 124,
      "chip": "ym2612"
    },
    {
      "channel": 2,
      "note": 60,
      "start": 44.7415,
      "duration": 0.1707,
      "velocity": 124,
      "chip": "ym2612"
    },
    {
      "channel": 1,
      "note": 59,
      "start": 44.8264,
      "duration": 0.8994,
      "velocity": 124,
      "chip": "ym2612"
    },
    {
      "channel": 4,
      "note": 85,
      "start": 44.827,
      "duration": 0.4156,
      "velocity": 127,
      "chip": "ym2612"
    },
    {
      "channel": 2,
      "note": 66,
      "start": 44.9124,
      "duration": 0.2134,
      "velocity": 124,
      "chip": "ym2612"
    },
    {
      "channel": 5,
      "note": 33,
      "start": 45.0095,
      "duration": 0.117,
      "velocity": 97,
      "chip": "ym2612"
    },
    {
      "channel": 2,
      "note": 59,
      "start": 45.126,
      "duration": 0.9183,
      "velocity": 124,
      "chip": "ym2612"
    },
    {
      "channel": 5,
      "note": 33,
      "start": 45.1267,
      "duration": 0.1166,
      "velocity": 97,
      "chip": "ym2612"
    },
    {
      "channel": 4,
      "note": 85,
      "start": 45.2429,
      "duration": 0.4836,
      "velocity": 127,
      "chip": "ym2612"
    },
    {
      "channel": 5,
      "note": 21,
      "start": 45.2434,
      "duration": 0.2326,
      "velocity": 97,
      "chip": "ym2612"
    },
    {
      "channel": 5,
      "note": 21,
      "start": 45.4762,
      "duration": 0.2508,
      "velocity": 97,
      "chip": "ym2612"
    },
    {
      "channel": 1,
      "note": 63,
      "start": 45.7259,
      "duration": 0.2331,
      "velocity": 124,
      "chip": "ym2612"
    },
    {
      "channel": 4,
      "note": 85,
      "start": 45.7266,
      "duration": 0.4152,
      "velocity": 127,
      "chip": "ym2612"
    },
    {
      "channel": 5,
      "note": 33,
      "start": 45.7272,
      "duration": 0.4152,
      "velocity": 97,
      "chip": "ym2612"
    },
    {
      "channel": 1,
      "note": 54,
      "start": 45.9593,
      "duration": 0.182,
      "velocity": 124,
      "chip": "ym2612"
    },
    {
      "channel": 2,
      "note": 63,
      "start": 46.0444,
      "duration": 0.2135,
      "velocity": 124,
      "chip": "ym2612"
    },
    {
      "channel": 1,
      "note": 57,
      "start": 46.1414,
      "duration": 0.5968,
      "velocity": 124,
      "chip": "ym2612"
    },
    {
      "channel": 4,
      "note": 85,
      "start": 46.1421,
      "duration": 0.4039,
      "velocity": 127,
      "chip": "ym2612"
    },
    {
      "channel": 5,
      "note": 21,
      "start": 46.1427,
      "duration": 0.116,
      "velocity": 97,
      "chip": "ym2612"
    },
    {
      "channel": 2,
      "note": 54,
      "start": 46.2581,
      "duration": 0.2016,
      "velocity": 124,
      "chip": "ym2612"
    },
    {
      "channel": 5,
      "note": 21,
      "start": 46.2588,
      "duration": 0.8956,
      "velocity": 97,
      "chip": "ym2612"
    },
    {
      "channel": 2,
      "note": 57,
      "start": 46.4599,
      "duration": 0.5787,
      "velocity": 124,
      "chip": "ym2612"
    },
    {
      "channel": 4,
      "note": 85,
      "start": 46.5461,
      "duration": 0.392,
      "velocity": 127,
      "chip": "ym2612"
    },
    {
      "channel": 1,
      "note": 51,
      "start": 46.7384,
      "duration": 0.1991,
      "velocity": 124,
      "chip": "ym2612"
    },
    {
      "channel": 1,
      "note": 54,
      "start": 46.9377,
      "duration": 0.8843,
      "velocity": 124,
      "chip": "ym2612"
    },
    {
      "channel": 4,
      "note": 85,
      "start": 46.9384,
      "duration": 0.4536,
      "velocity": 127,
      "chip": "ym2612"
    },
    {
      "channel": 2,
      "note": 51,
      "start": 47.0387,
      "duration": 0.2322,
      "velocity": 124,
      "chip": "ym2612"
    },
    {
      "channel": 5,
      "note": 33,
      "start": 47.1545,
      "duration": 0.1171,
      "velocity": 97,
      "chip": "ym2612"
    },
    {
      "channel": 2,
      "note": 54,
      "start": 47.271,
      "duration": 0.8322,
      "velocity": 124,
      "chip": "ym2612"
    },
    {
      "channel": 5,
      "note": 33,
      "start": 47.2717,
      "duration": 0.3004,
      "velocity": 97,
      "chip": "ym2612"
    },
    {
      "channel": 0,
      "note": 45,
      "start": 47.3893,
      "duration": 3.3994,
      "velocity": 95,
      "chip": "ym2612"
    },
    {
      "channel": 3,
      "note": 86,
      "start": 47.3916,
      "duration": 0.0015,
      "velocity": 72,
      "chip": "ym2612"
    },
    {
      "channel": 4,
      "note": 85,
      "start": 47.3922,
      "duration": 0.4304,
      "velocity": 127,
      "chip": "ym2612"
    },
    {
      "channel": 3,
      "note": 86,
      "start": 47.393,
      "duration": 0.0079,
      "velocity": 72,
      "chip": "ym2612"
    },
    {
      "channel": 3,
      "note": 87,
      "start": 47.401,
      "duration": 0.0117,
      "velocity": 72,
      "chip": "ym2612"
    },
    {
      "channel": 3,
      "note": 87,
      "start": 47.4127,
      "duration": 0.0247,
      "velocity": 72,
      "chip": "ym2612"
    },
    {
      "channel": 3,
      "note": 87,
      "start": 47.4374,
      "duration": 0.0121,
      "velocity": 72,
      "chip": "ym2612"
    },
    {
      "channel": 3,
      "note": 88,
      "start": 47.4495,
      "duration": 0.0127,
      "velocity": 72,
      "chip": "ym2612"
    },
    {
      "channel": 3,
      "note": 88,
      "start": 47.4622,
      "duration": 0.0125,
      "velocity": 72,
      "chip": "ym2612"
    },
    {
      "channel": 3,
      "note": 88,
      "start": 47.4748,
      "duration": 3.0976,
      "velocity": 72,
      "chip": "ym2612"
    },
    {
      "channel": 5,
      "note": 21,
      "start": 47.5723,
      "duration": 0.1331,
      "velocity": 97,
      "chip": "ym2612"
    },
    {
      "channel": 5,
      "note": 21,
      "start": 47.7056,
      "duration": 0.6849,
      "velocity": 97,
      "chip": "ym2612"
    },
    {
      "channel": 1,
      "note": 60,
      "start": 47.8221,
      "duration": 0.1941,
      "velocity": 124,
      "chip": "ym2612"
    },
    {
      "channel": 4,
      "note": 85,
      "start": 47.8227,
      "duration": 0.3973,
      "velocity": 127,
      "chip": "ym2612"
    },
    {
      "channel": 1,
      "note": 66,
      "start": 48.0164,
      "duration": 0.203,
      "velocity": 124,
      "chip": "ym2612"
    },
    {
      "channel": 2,
      "note": 60,
      "start": 48.1034,
      "duration": 0.2018,
      "velocity": 124,
      "chip": "ym2612"
    },
    {
      "channel": 1,
      "note": 59,
      "start": 48.2195,
      "duration": 0.8325,
      "velocity": 124,
      "chip": "ym2612"
    },
    {
      "channel": 4,
      "note": 85,
      "start": 48.2202,
      "duration": 0.4036,
      "velocity": 127,
      "chip": "ym2612"
    },
    {
      "channel": 2,
      "note": 66,
      "start": 48.3053,
      "duration": 0.2016,
      "velocity": 124,
      "chip": "ym2612"
    },
    {
      "channel": 5,
      "note": 33,
      "start": 48.3907,
      "duration": 0.1169,
      "velocity": 97,
      "chip": "ym2612"
    },
    {
      "channel": 2,
      "note": 59,
      "start": 48.5071,
      "duration": 0.8632,
      "velocity": 124,
      "chip": "ym2612"
    },
    {
      "channel": 5,
      "note": 33,
      "start": 48.5078,
      "duration": 0.1166,
      "velocity": 97,
      "chip": "ym2612"
    },
    {
      "channel": 4,
      "note": 85,
      "start": 48.6239,
      "duration": 0.4289,
      "velocity": 127,
      "chip": "ym2612"
    },
    {
      "channel": 5,
      "note": 21,
      "start": 48.6245,
      "duration": 0.6299,
      "velocity": 97,
      "chip": "ym2612"
    },
    {
      "channel": 1,
      "note": 57,
      "start": 49.0523,
      "duration": 0.2013,
      "velocity": 124,
      "chip": "ym2612"
    },
    {
      "channel": 4,
      "note": 85,
      "start": 49.0529,
      "duration": 0.4341,
      "velocity": 127,
      "chip": "ym2612"
    },
    {
      "channel": 1,
      "note": 67,
      "start": 49.2538,
      "duration": 0.4182,
      "velocity": 124,
      "chip": "ym2612"
    },
    {
      "channel": 5,
      "note": 21,
      "start": 49.2545,
      "duration": 0.4182,
      "velocity": 97,
      "chip": "ym2612"
    },
    {
      "channel": 2,
      "note": 57,
      "start": 49.3705,
      "duration": 0.2015,
      "velocity": 124,
      "chip": "ym2612"
    },
    {
      "channel": 4,
      "note": 85,
      "start": 49.4873,
      "duration": 0.4353,
      "velocity": 127,
      "chip": "ym2612"
    },
    {
      "channel": 2,
      "note": 67,
      "start": 49.5722,
      "duration": 0.4665,
      "velocity": 124,
      "chip": "ym2612"
    },
    {
      "channel": 1,
      "note": 59,
      "start": 49.6721,
      "duration": 0.2498,
      "velocity": 124,
      "chip": "ym2612"
    },
    {
      "channel": 5,
      "note": 21,
      "start": 49.6728,
      "duration": 0.1327,
      "velocity": 97,
      "chip": "ym2612"
    },
    {
      "channel": 5,
      "note": 21,
      "start": 49.8056,
      "duration": 0.1175,
      "velocity": 97,
      "chip": "ym2612"
    },
    {
      "channel": 1,
      "note": 63,
      "start": 49.9221,
      "duration": 1.35,
      "velocity": 124,
      "chip": "ym2612"
    },
    {
      "channel": 4,
      "note": 85,
      "start": 49.9228,
      "duration": 0.4148,
      "velocity": 127,
      "chip": "ym2612"
    },
    {
      "channel": 5,
      "note": 33,
      "start": 49.9233,
      "duration": 0.4148,
      "velocity": 97,
      "chip": "ym2612"
    },
    {
      "channel": 2,
      "note": 59,
      "start": 50.0388,
      "duration": 0.2003,
      "velocity": 124,
      "chip": "ym2612"
    },
    {
      "channel": 2,
      "note": 63,
      "start": 50.2393,
      "duration": 1.3678,
      "velocity": 124,
      "chip": "ym2612"
    },
    {
      "channel": 4,
      "note": 85,
      "start": 50.3377,
      "duration": 0.4522,
      "velocity": 127,
      "chip": "ym2612"
    },
    {
      "channel": 5,
      "note": 33,
      "start": 50.3382,
      "duration": 0.116,
      "velocity": 97,
      "chip": "ym2612"
    },
    {
      "channel": 5,
      "note": 21,
      "start": 50.4544,
      "duration": 0.2179,
      "velocity": 97,
      "chip": "ym2612"
    },
    {
      "channel": 3,
      "note": 79,
      "start": 50.5725,
      "duration": 0.2168,
      "velocity": 72,
      "chip": "ym2612"
    },
    {
      "channel": 5,
      "note": 21,
      "start": 50.6725,
      "duration": 0.3664,
      "velocity": 97,
      "chip": "ym2612"
    },
    {
      "channel": 0,
      "note": 45,
      "start": 50.7888,
      "duration": 0.0017,
      "velocity": 95,
      "chip": "ym2612"
    },
    {
      "channel": 3,
      "note": 78,
      "start": 50.7895,
      "duration": 3.4815,
      "velocity": 72,
      "chip": "ym2612"
    },
    {
      "channel": 4,
      "note": 85,
      "start": 50.79,
      "duration": 0.4827,
      "velocity": 127,
      "chip": "ym2612"
    },
    {
      "channel": 0,
      "note": 46,
      "start": 50.7905,
      "duration": 0.0311,
      "velocity": 95,
      "chip": "ym2612"
    },
    {
      "channel": 0,
      "note": 47,
      "start": 50.8216,
      "duration": 0.0167,
      "velocity": 95,
      "chip": "ym2612"
    },
    {
      "channel": 0,
      "note": 47,
      "start": 50.8383,
      "duration": 0.0167,
      "velocity": 95,
      "chip": "ym2612"
    },
    {
      "channel": 0,
      "note": 48,
      "start": 50.8549,
      "duration": 0.0167,
      "velocity": 95,
      "chip": "ym2612"
    },
    {
      "channel": 0,
      "note": 49,
      "start": 50.8716,
      "duration": 0.0167,
      "velocity": 95,
      "chip": "ym2612"
    },
    {
      "channel": 0,
      "note": 49,
      "start": 50.8883,
      "duration": 0.05,
      "velocity": 95,
      "chip": "ym2612"
    },
    {
      "channel": 0,
      "note": 50,
      "start": 50.9383,
      "duration": 0.0167,
      "velocity": 95,
      "chip": "ym2612"
    },
    {
      "channel": 0,
      "note": 51,
      "start": 50.9549,
      "duration": 0.0167,
      "velocity": 95,
      "chip": "ym2612"
    },
    {
      "channel": 0,
      "note": 51,
      "start": 50.9716,
      "duration": 3.2966,
      "velocity": 95,
      "chip": "ym2612"
    },
    {
      "channel": 5,
      "note": 21,
      "start": 51.039,
      "duration": 0.1166,
      "velocity": 97,
      "chip": "ym2612"
    },
    {
      "channel": 5,
      "note": 21,
      "start": 51.1558,
      "duration": 0.1176,
      "velocity": 97,
      "chip": "ym2612"
    },
    {
      "channel": 1,
      "note": 60,
      "start": 51.2722,
      "duration": 0.2498,
      "velocity": 124,
      "chip": "ym2612"
    },
    {
      "channel": 4,
      "note": 85,
      "start": 51.2729,
      "duration": 0.4202,
      "velocity": 127,
      "chip": "ym2612"
    },
    {
      "channel": 5,
      "note": 33,
      "start": 51.2735,
      "duration": 0.5898,
      "velocity": 97,
      "chip": "ym2612"
    },
    {
      "channel": 1,
      "note": 66,
      "start": 51.5222,
      "duration": 0.1701,
      "velocity": 124,
      "chip": "ym2612"
    },
    {
      "channel": 2,
      "note": 60,
      "start": 51.6073,
      "duration": 0.17,
      "velocity": 124,
      "chip": "ym2612"
    },
    {
      "channel": 1,
      "note": 59,
      "start": 51.6926,
      "duration": 0.9039,
      "velocity": 124,
      "chip": "ym2612"
    },
    {
      "channel": 4,
      "note": 85,
      "start": 51.6933,
      "duration": 0.4201,
      "velocity": 127,
      "chip": "ym2612"
    },
    {
      "channel": 2,
      "note": 66,
      "start": 51.7774,
      "duration": 0.2191,
      "velocity": 124,
      "chip": "ym2612"
    },
    {
      "channel": 5,
      "note": 33,
      "start": 51.8635,
      "duration": 0.1337,
      "velocity": 97,
      "chip": "ym2612"
    },
    {
      "channel": 2,
      "note": 59,
      "start": 51.9967,
      "duration": 0.9186,
      "velocity": 124,
      "chip": "ym2612"
    },
    {
      "channel": 5,
      "note": 33,
      "start": 51.9974,
      "duration": 0.1166,
      "velocity": 97,
      "chip": "ym2612"
    },
    {
      "channel": 4,
      "note": 85,
      "start": 52.1135,
      "duration": 0.4837,
      "velocity": 127,
      "chip": "ym2612"
    },
    {
      "channel": 5,
      "note": 21,
      "start": 52.114,
      "duration": 0.2327,
      "velocity": 97,
      "chip": "ym2612"
    },
    {
      "channel": 5,
      "note": 21,
      "start": 52.3468,
      "duration": 0.2509,
      "velocity": 97,
      "chip": "ym2612"
    },
    {
      "channel": 1,
      "note": 63,
      "start": 52.5966,
      "duration": 0.2331,
      "velocity": 124,
      "chip": "ym2612"
    },
    {
      "channel": 4,
      "note": 85,
      "start": 52.5973,
      "duration": 0.4029,
      "velocity": 127,
      "chip": "ym2612"
    },
    {
      "channel": 5,
      "note": 33,
      "start": 52.5979,
      "duration": 0.4029,
      "velocity": 97,
      "chip": "ym2612"
    },
    {
      "channel": 1,
      "note": 54,
      "start": 52.83,
      "duration": 0.1696,
      "velocity": 124,
      "chip": "ym2612"
    },
    {
      "channel": 2,
      "note": 63,
      "start": 52.9155,
      "duration": 0.2174,
      "velocity": 124,
      "chip": "ym2612"
    },
    {
      "channel": 1,
      "note": 57,
      "start": 52.9998,
      "duration": 0.6146,
      "velocity": 124,
      "chip": "ym2612"
    },
    {
      "channel": 4,
      "note": 85,
      "start": 53.0004,
      "duration": 0.4208,
      "velocity": 127,
      "chip": "ym2612"
    },
    {
      "channel": 5,
      "note": 21,
      "start": 53.001,
      "duration": 0.1326,
      "velocity": 97,
      "chip": "ym2612"
    },
    {
      "channel": 2,
      "note": 54,
      "start": 53.1331,
      "duration": 0.2016,
      "velocity": 124,
      "chip": "ym2612"
    },
    {
      "channel": 5,
      "note": 21,
      "start": 53.1338,
      "duration": 0.8831,
      "velocity": 97,
      "chip": "ym2612"
    },
    {
      "channel": 2,
      "note": 57,
      "start": 53.3349,
      "duration": 0.5797,
      "velocity": 124,
      "chip": "ym2612"
    },
    {
      "channel": 4,
      "note": 85,
      "start": 53.4214,
      "duration": 0.3917,
      "velocity": 127,
      "chip": "ym2612"
    },
    {
      "channel": 1,
      "note": 51,
      "start": 53.6146,
      "duration": 0.1978,
      "velocity": 124,
      "chip": "ym2612"
    },
    {
      "channel": 1,
      "note": 54,
      "start": 53.8126,
      "duration": 0.4563,
      "velocity": 124,
      "chip": "ym2612"
    },
    {
      "channel": 4,
      "note": 85,
      "start": 53.8132,
      "duration": 0.4585,
      "velocity": 127,
      "chip": "ym2612"
    },
    {
      "channel": 2,
      "note": 51,
      "start": 53.9148,
      "duration": 0.2352,
      "velocity": 124,
      "chip": "ym2612"
    },
    {
      "channel": 5,
      "note": 33,
      "start": 54.0171,
      "duration": 0.1336,
      "velocity": 97,
      "chip": "ym2612"
    },
    {
      "channel": 2,
      "note": 54,
      "start": 54.1501,
      "duration": 0.4188,
      "velocity": 124,
      "chip": "ym2612"
    },
    {
      "channel": 5,
      "note": 33,
      "start": 54.1508,
      "duration": 0.3037,
      "velocity": 97,
      "chip": "ym2612"
    },
    {
      "channel": 0,
      "note": 45,
      "start": 54.2684,
      "duration": 0.8128,
      "velocity": 95,
      "chip": "ym2612"
    },
    {
      "channel": 1,
      "note": 57,
      "start": 54.269,
      "duration": 0.1831,
      "velocity": 124,
      "chip": "ym2612"
    },
    {
      "channel": 3,
      "note": 79,
      "start": 54.2712,
      "duration": 0.0014,
      "velocity": 72,
      "chip": "ym2612"
    },
    {
      "channel": 4,
      "note": 85,
      "start": 54.2719,
      "duration": 0.4309,
      "velocity": 127,
      "chip": "ym2612"
    },
    {
      "channel": 3,
      "note": 79,
      "start": 54.2727,
      "duration": 0.0072,
      "velocity": 72,
      "chip": "ym2612"
    },
    {
      "channel": 3,
      "note": 79,
      "start": 54.2798,
      "duration": 0.0119,
      "velocity": 72,
      "chip": "ym2612"
    },
    {
      "channel": 3,
      "note": 79,
      "start": 54.2917,
      "duration": 0.012,
      "velocity": 72,
      "chip": "ym2612"
    },
    {
      "channel": 3,
      "note": 79,
      "start": 54.3038,
      "duration": 0.0248,
      "velocity": 72,
      "chip": "ym2612"
    },
    {
      "channel": 3,
      "note": 80,
      "start": 54.3286,
      "duration": 0.0121,
      "velocity": 72,
      "chip": "ym2612"
    },
    {
      "channel": 3,
      "note": 80,
      "start": 54.3407,
      "duration": 0.0126,
      "velocity": 72,
      "chip": "ym2612"
    },
    {
      "channel": 3,
      "note": 81,
      "start": 54.3535,
      "duration": 3.318,
      "velocity": 72,
      "chip": "ym2612"
    },
    {
      "channel": 1,
      "note": 61,
      "start": 54.4523,
      "duration": 0.2498,
      "velocity": 124,
      "chip": "ym2612"
    },
    {
      "channel": 5,
      "note": 21,
      "start": 54.4546,
      "duration": 0.1149,
      "velocity": 97,
      "chip": "ym2612"
    },
    {
      "channel": 2,
      "note": 57,
      "start": 54.569,
      "duration": 0.2301,
      "velocity": 124,
      "chip": "ym2612"
    },
    {
      "channel": 5,
      "note": 21,
      "start": 54.5697,
      "duration": 0.6951,
      "velocity": 97,
      "chip": "ym2612"
    },
    {
      "channel": 1,
      "note": 55,
      "start": 54.7023,
      "duration": 0.5619,
      "velocity": 124,
      "chip": "ym2612"
    },
    {
      "channel": 4,
      "note": 85,
      "start": 54.703,
      "duration": 0.379,
      "velocity": 127,
      "chip": "ym2612"
    },
    {
      "channel": 2,
      "note": 61,
      "start": 54.7993,
      "duration": 0.1822,
      "velocity": 124,
      "chip": "ym2612"
    },
    {
      "channel": 2,
      "note": 55,
      "start": 54.9817,
      "duration": 0.6325,
      "velocity": 124,
      "chip": "ym2612"
    },
    {
      "channel": 0,
      "note": 49,
      "start": 55.0814,
      "duration": 0.666,
      "velocity": 95,
      "chip": "ym2612"
    },
    {
      "channel": 4,
      "note": 85,
      "start": 55.0821,
      "duration": 0.416,
      "velocity": 127,
      "chip": "ym2612"
    },
    {
      "channel": 1,
      "note": 64,
      "start": 55.2643,
      "duration": 0.2332,
      "velocity": 124,
      "chip": "ym2612"
    },
    {
      "channel": 5,
      "note": 33,
      "start": 55.265,
      "duration": 0.116,
      "velocity": 97,
      "chip": "ym2612"
    },
    {
      "channel": 5,
      "note": 33,
      "start": 55.3812,
      "duration": 0.1176,
      "velocity": 97,
      "chip": "ym2612"
    },
    {
      "channel": 1,
      "note": 67,
      "start": 55.4977,
      "duration": 0.2503,
      "velocity": 124,
      "chip": "ym2612"
    },
    {
      "channel": 4,
      "note": 85,
      "start": 55.4983,
      "duration": 0.4272,
      "velocity": 127,
      "chip": "ym2612"
    },
    {
      "channel": 5,
      "note": 21,
      "start": 55.4989,
      "duration": 0.6117,
      "velocity": 97,
      "chip": "ym2612"
    },
    {
      "channel": 2,
      "note": 64,
      "start": 55.6144,
      "duration": 0.2179,
      "velocity": 124,
      "chip": "ym2612"
    },
    {
      "channel": 0,
      "note": 46,
      "start": 55.7476,
      "duration": 1.9211,
      "velocity": 95,
      "chip": "ym2612"
    },
    {
      "channel": 1,
      "note": 60,
      "start": 55.7481,
      "duration": 0.1768,
      "velocity": 124,
      "chip": "ym2612"
    },
    {
      "channel": 2,
      "note": 67,
      "start": 55.8325,
      "duration": 0.1775,
      "velocity": 124,
      "chip": "ym2612"
    },
    {
      "channel": 1,
      "note": 66,
      "start": 55.9251,
      "duration": 0.6215,
      "velocity": 124,
      "chip": "ym2612"
    },
    {
      "channel": 4,
      "note": 85,
      "start": 55.9257,
      "duration": 0.4349,
      "velocity": 127,
      "chip": "ym2612"
    },
    {
      "channel": 2,
      "note": 60,
      "start": 56.0101,
      "duration": 0.2336,
      "velocity": 124,
      "chip": "ym2612"
    },
    {
      "channel": 5,
      "note": 21,
      "start": 56.1108,
      "duration": 0.4365,
      "velocity": 97,
      "chip": "ym2612"
    },
    {
      "channel": 2,
      "note": 66,
      "start": 56.2439,
      "duration": 0.6694,
      "velocity": 124,
      "chip": "ym2612"
    },
    {
      "channel": 4,
      "note": 85,
      "start": 56.3608,
      "duration": 0.436,
      "velocity": 127,
      "chip": "ym2612"
    },
    {
      "channel": 1,
      "note": 64,
      "start": 56.5468,
      "duration": 1.1225,
      "velocity": 124,
      "chip": "ym2612"
    },
    {
      "channel": 5,
      "note": 21,
      "start": 56.5475,
      "duration": 0.116,
      "velocity": 97,
      "chip": "ym2612"
    },
    {
      "channel": 5,
      "note": 21,
      "start": 56.6637,
      "duration": 0.1337,
      "velocity": 97,
      "chip": "ym2612"
    },
    {
      "channel": 4,
      "note": 85,
      "start": 56.7969,
      "duration": 0.4037,
      "velocity": 127,
      "chip": "ym2612"
    },
    {
      "channel": 5,
      "note": 33,
      "start": 56.7975,
      "duration": 0.4037,
      "velocity": 97,
      "chip": "ym2612"
    },
    {
      "channel": 2,
      "note": 64,
      "start": 56.9135,
      "duration": 1.122,
      "velocity": 124,
      "chip": "ym2612"
    },
    {
      "channel": 4,
      "note": 85,
      "start": 57.2008,
      "duration": 0.4712,
      "velocity": 127,
      "chip": "ym2612"
    },
    {
      "channel": 5,
      "note": 33,
      "start": 57.2014,
      "duration": 0.1326,
      "velocity": 97,
      "chip": "ym2612"
    },
    {
      "channel": 5,
      "note": 21,
      "start": 57.3342,
      "duration": 0.2181,
      "velocity": 97,
      "chip": "ym2612"
    },
    {
      "channel": 5,
      "note": 21,
      "start": 57.5524,
      "duration": 0.367,
      "velocity": 97,
      "chip": "ym2612"
    },
    {
      "channel": 0,
      "note": 45,
      "start": 57.6688,
      "duration": 0.9003,
      "velocity": 95,
      "chip": "ym2612"
    },
    {
      "channel": 1,
      "note": 57,
      "start": 57.6694,
      "duration": 0.2493,
      "velocity": 124,
      "chip": "ym2612"
    },
    {
      "channel": 3,
      "note": 67,
      "start": 57.6716,
      "duration": 0.0011,
      "velocity": 72,
      "chip": "ym2612"
    },
    {
      "channel": 4,
      "note": 85,
      "start": 57.6722,
      "duration": 0.4805,
      "velocity": 127,
      "chip": "ym2612"
    },
    {
      "channel": 3,
      "note": 67,
      "start": 57.6727,
      "duration": 0.0123,
      "velocity": 72,
      "chip": "ym2612"
    },
    {
      "channel": 3,
      "note": 67,
      "start": 57.6851,
      "duration": 0.0333,
      "velocity": 72,
      "chip": "ym2612"
    },
    {
      "channel": 3,
      "note": 68,
      "start": 57.7184,
      "duration": 0.0167,
      "velocity": 72,
      "chip": "ym2612"
    },
    {
      "channel": 3,
      "note": 68,
      "start": 57.7351,
      "duration": 0.0167,
      "velocity": 72,
      "chip": "ym2612"
    },
    {
      "channel": 3,
      "note": 68,
      "start": 57.7517,
      "duration": 0.0167,
      "velocity": 72,
      "chip": "ym2612"
    },
    {
      "channel": 3,
      "note": 69,
      "start": 57.7684,
      "duration": 0.0171,
      "velocity": 72,
      "chip": "ym2612"
    },
    {
      "channel": 3,
      "note": 69,
      "start": 57.7857,
      "duration": 3.36,
      "velocity": 72,
      "chip": "ym2612"
    },
    {
      "channel": 1,
      "note": 61,
      "start": 57.9188,
      "duration": 0.2332,
      "velocity": 124,
      "chip": "ym2612"
    },
    {
      "channel": 5,
      "note": 21,
      "start": 57.9196,
      "duration": 0.1166,
      "velocity": 97,
      "chip": "ym2612"
    },
    {
      "channel": 2,
      "note": 57,
      "start": 58.0356,
      "duration": 0.2332,
      "velocity": 124,
      "chip": "ym2612"
    },
    {
      "channel": 5,
      "note": 21,
      "start": 58.0363,
      "duration": 0.1171,
      "velocity": 97,
      "chip": "ym2612"
    },
    {
      "channel": 1,
      "note": 55,
      "start": 58.1522,
      "duration": 0.5863,
      "velocity": 124,
      "chip": "ym2612"
    },
    {
      "channel": 4,
      "note": 85,
      "start": 58.1529,
      "duration": 0.417,
      "velocity": 127,
      "chip": "ym2612"
    },
    {
      "channel": 5,
      "note": 33,
      "start": 58.1534,
      "duration": 0.5859,
      "velocity": 97,
      "chip": "ym2612"
    },
    {
      "channel": 2,
      "note": 61,
      "start": 58.269,
      "duration": 0.2153,
      "velocity": 124,
      "chip": "ym2612"
    },
    {
      "channel": 2,
      "note": 55,
      "start": 58.4844,
      "duration": 0.621,
      "velocity": 124,
      "chip": "ym2612"
    },
    {
      "channel": 0,
      "note": 49,
      "start": 58.5694,
      "duration": 0.6525,
      "velocity": 95,
      "chip": "ym2612"
    },
    {
      "channel": 4,
      "note": 85,
      "start": 58.57,
      "duration": 0.4192,
      "velocity": 127,
      "chip": "ym2612"
    },
    {
      "channel": 1,
      "note": 64,
      "start": 58.7388,
      "duration": 0.2499,
      "velocity": 124,
      "chip": "ym2612"
    },
    {
      "channel": 5,
      "note": 33,
      "start": 58.7395,
      "duration": 0.116,
      "velocity": 97,
      "chip": "ym2612"
    },
    {
      "channel": 5,
      "note": 33,
      "start": 58.8557,
      "duration": 0.1341,
      "velocity": 97,
      "chip": "ym2612"
    },
    {
      "channel": 1,
      "note": 67,
      "start": 58.9888,
      "duration": 0.2337,
      "velocity": 124,
      "chip": "ym2612"
    },
    {
      "channel": 4,
      "note": 85,
      "start": 58.9895,
      "duration": 0.4665,
      "velocity": 127,
      "chip": "ym2612"
    },
    {
      "channel": 5,
      "note": 21,
      "start": 58.99,
      "duration": 0.2332,
      "velocity": 97,
      "chip": "ym2612"
    },
    {
      "channel": 2,
      "note": 64,
      "start": 59.1056,
      "duration": 0.2332,
      "velocity": 124,
      "chip": "ym2612"
    },
    {
      "channel": 0,
      "note": 43,
      "start": 59.2221,
      "duration": 1.9207,
      "velocity": 95,
      "chip": "ym2612"
    },
    {
      "channel": 1,
      "note": 60,
      "start": 59.2227,
      "duration": 0.2326,
      "velocity": 124,
      "chip": "ym2612"
    },
    {
      "channel": 5,
      "note": 21,
      "start": 59.2234,
      "duration": 0.2332,
      "velocity": 97,
      "chip": "ym2612"
    },
    {
      "channel": 2,
      "note": 67,
      "start": 59.3389,
      "duration": 0.2498,
      "velocity": 124,
      "chip": "ym2612"
    },
    {
      "channel": 1,
      "note": 66,
      "start": 59.4555,
      "duration": 0.6704,
      "velocity": 124,
      "chip": "ym2612"
    },
    {
      "channel": 4,
      "note": 85,
      "start": 59.4561,
      "duration": 0.42,
      "velocity": 127,
      "chip": "ym2612"
    },
    {
      "channel": 5,
      "note": 33,
      "start": 59.4567,
      "duration": 0.42,
      "velocity": 97,
      "chip": "ym2612"
    },
    {
      "channel": 2,
      "note": 60,
      "start": 59.5889,
      "duration": 0.2017,
      "velocity": 124,
      "chip": "ym2612"
    },
    {
      "channel": 2,
      "note": 66,
      "start": 59.7908,
      "duration": 0.5911,
      "velocity": 124,
      "chip": "ym2612"
    },
    {
      "channel": 4,
      "note": 85,
      "start": 59.8763,
      "duration": 0.4197,
      "velocity": 127,
      "chip": "ym2612"
    },
    {
      "channel": 5,
      "note": 21,
      "start": 59.8769,
      "duration": 0.1159,
      "velocity": 97,
      "chip": "ym2612"
    },
    {
      "channel": 5,
      "note": 21,
      "start": 59.993,
      "duration": 0.9,
      "velocity": 97,
      "chip": "ym2612"
    },
    {
      "channel": 1,
      "note": 63,
      "start": 60.1261,
      "duration": 0.5636,
      "velocity": 124,
      "chip": "ym2612"
    },
    {
      "channel": 4,
      "note": 85,
      "start": 60.2962,
      "duration": 0.3942,
      "velocity": 127,
      "chip": "ym2612"
    },
    {
      "channel": 2,
      "note": 63,
      "start": 60.3821,
      "duration": 0.6274,
      "velocity": 124,
      "chip": "ym2612"
    },
    {
      "channel": 1,
      "note": 64,
      "start": 60.6899,
      "duration": 0.4536,
      "velocity": 124,
      "chip": "ym2612"
    },
    {
      "channel": 4,
      "note": 85,
      "start": 60.6905,
      "duration": 0.4558,
      "velocity": 127,
      "chip": "ym2612"
    },
    {
      "channel": 5,
      "note": 33,
      "start": 60.8931,
      "duration": 0.1171,
      "velocity": 97,
      "chip": "ym2612"
    },
    {
      "channel": 2,
      "note": 64,
      "start": 61.0096,
      "duration": 0.436,
      "velocity": 124,
      "chip": "ym2612"
    },
    {
      "channel": 5,
      "note": 33,
      "start": 61.0103,
      "duration": 0.3209,
      "velocity": 97,
      "chip": "ym2612"
    },
    {
      "channel": 0,
      "note": 45,
      "start": 61.143,
      "duration": 0.8126,
      "velocity": 95,
      "chip": "ym2612"
    },
    {
      "channel": 1,
      "note": 57,
      "start": 61.1436,
      "duration": 0.1852,
      "velocity": 124,
      "chip": "ym2612"
    },
    {
      "channel": 3,
      "note": 79,
      "start": 61.1459,
      "duration": 0.0014,
      "velocity": 72,
      "chip": "ym2612"
    },
    {
      "channel": 4,
      "note": 85,
      "start": 61.1464,
      "duration": 0.4164,
      "velocity": 127,
      "chip": "ym2612"
    },
    {
      "channel": 3,
      "note": 79,
      "start": 61.1473,
      "duration": 0.0087,
      "velocity": 72,
      "chip": "ym2612"
    },
    {
      "channel": 3,
      "note": 79,
      "start": 61.156,
      "duration": 0.0124,
      "velocity": 72,
      "chip": "ym2612"
    },
    {
      "channel": 3,
      "note": 79,
      "start": 61.1684,
      "duration": 0.0118,
      "velocity": 72,
      "chip": "ym2612"
    },
    {
      "channel": 3,
      "note": 79,
      "start": 61.1802,
      "duration": 0.0122,
      "velocity": 72,
      "chip": "ym2612"
    },
    {
      "channel": 3,
      "note": 80,
      "start": 61.1924,
      "duration": 0.0246,
      "velocity": 72,
      "chip": "ym2612"
    },
    {
      "channel": 3,
      "note": 80,
      "start": 61.217,
      "duration": 0.0126,
      "velocity": 72,
      "chip": "ym2612"
    },
    {
      "channel": 3,
      "note": 81,
      "start": 61.2298,
      "duration": 3.309,
      "velocity": 72,
      "chip": "ym2612"
    },
    {
      "channel": 1,
      "note": 61,
      "start": 61.329,
      "duration": 0.2331,
      "velocity": 124,
      "chip": "ym2612"
    },
    {
      "channel": 5,
      "note": 21,
      "start": 61.3313,
      "duration": 0.1149,
      "velocity": 97,
      "chip": "ym2612"
    },
    {
      "channel": 2,
      "note": 57,
      "start": 61.4457,
      "duration": 0.2272,
      "velocity": 124,
      "chip": "ym2612"
    },
    {
      "channel": 5,
      "note": 21,
      "start": 61.4464,
      "duration": 0.6932,
      "velocity": 97,
      "chip": "ym2612"
    },
    {
      "channel": 1,
      "note": 55,
      "start": 61.5623,
      "duration": 0.5766,
      "velocity": 124,
      "chip": "ym2612"
    },
    {
      "channel": 4,
      "note": 85,
      "start": 61.563,
      "duration": 0.3934,
      "velocity": 127,
      "chip": "ym2612"
    },
    {
      "channel": 2,
      "note": 61,
      "start": 61.6731,
      "duration": 0.1825,
      "velocity": 124,
      "chip": "ym2612"
    },
    {
      "channel": 2,
      "note": 55,
      "start": 61.8558,
      "duration": 0.6332,
      "velocity": 124,
      "chip": "ym2612"
    },
    {
      "channel": 0,
      "note": 49,
      "start": 61.9558,
      "duration": 0.6497,
      "velocity": 95,
      "chip": "ym2612"
    },
    {
      "channel": 4,
      "note": 85,
      "start": 61.9566,
      "duration": 0.4163,
      "velocity": 127,
      "chip": "ym2612"
    },
    {
      "channel": 1,
      "note": 64,
      "start": 62.139,
      "duration": 0.2332,
      "velocity": 124,
      "chip": "ym2612"
    },
    {
      "channel": 5,
      "note": 33,
      "start": 62.1398,
      "duration": 0.116,
      "velocity": 97,
      "chip": "ym2612"
    },
    {
      "channel": 5,
      "note": 33,
      "start": 62.2559,
      "duration": 0.1175,
      "velocity": 97,
      "chip": "ym2612"
    },
    {
      "channel": 1,
      "note": 67,
      "start": 62.3724,
      "duration": 0.2337,
      "velocity": 124,
      "chip": "ym2612"
    },
    {
      "channel": 4,
      "note": 85,
      "start": 62.3731,
      "duration": 0.4225,
      "velocity": 127,
      "chip": "ym2612"
    },
    {
      "channel": 5,
      "note": 21,
      "start": 62.3736,
      "duration": 0.6064,
      "velocity": 97,
      "chip": "ym2612"
    },
    {
      "channel": 2,
      "note": 64,
      "start": 62.4891,
      "duration": 0.2144,
      "velocity": 124,
      "chip": "ym2612"
    },
    {
      "channel": 0,
      "note": 46,
      "start": 62.6057,
      "duration": 1.9302,
      "velocity": 95,
      "chip": "ym2612"
    },
    {
      "channel": 1,
      "note": 60,
      "start": 62.6063,
      "duration": 0.1886,
      "velocity": 124,
      "chip": "ym2612"
    },
    {
      "channel": 2,
      "note": 67,
      "start": 62.7037,
      "duration": 0.1761,
      "velocity": 124,
      "chip": "ym2612"
    },
    {
      "channel": 1,
      "note": 66,
      "start": 62.795,
      "duration": 0.6195,
      "velocity": 124,
      "chip": "ym2612"
    },
    {
      "channel": 4,
      "note": 85,
      "start": 62.7957,
      "duration": 0.4343,
      "velocity": 127,
      "chip": "ym2612"
    },
    {
      "channel": 2,
      "note": 60,
      "start": 62.88,
      "duration": 0.2165,
      "velocity": 124,
      "chip": "ym2612"
    },
    {
      "channel": 5,
      "note": 21,
      "start": 62.9802,
      "duration": 0.4351,
      "velocity": 97,
      "chip": "ym2612"
    },
    {
      "channel": 2,
      "note": 66,
      "start": 63.0967,
      "duration": 0.6847,
      "velocity": 124,
      "chip": "ym2612"
    },
    {
      "channel": 4,
      "note": 85,
      "start": 63.2301,
      "duration": 0.418,
      "velocity": 127,
      "chip": "ym2612"
    },
    {
      "channel": 1,
      "note": 64,
      "start": 63.4147,
      "duration": 1.1217,
      "velocity": 124,
      "chip": "ym2612"
    },
    {
      "channel": 5,
      "note": 21,
      "start": 63.4155,
      "duration": 0.116,
      "velocity": 97,
      "chip": "ym2612"
    },
    {
      "channel": 5,
      "note": 21,
      "start": 63.5317,
      "duration": 0.117,
      "velocity": 97,
      "chip": "ym2612"
    },
    {
      "channel": 4,
      "note": 85,
      "start": 63.6483,
      "duration": 0.4196,
      "velocity": 127,
      "chip": "ym2612"
    },
    {
      "channel": 5,
      "note": 33,
      "start": 63.6488,
      "duration": 0.4196,
      "velocity": 97,
      "chip": "ym2612"
    },
    {
      "channel": 2,
      "note": 64,
      "start": 63.7815,
      "duration": 1.1212,
      "velocity": 124,
      "chip": "ym2612"
    },
    {
      "channel": 4,
      "note": 85,
      "start": 64.068,
      "duration": 0.4712,
      "velocity": 127,
      "chip": "ym2612"
    },
    {
      "channel": 5,
      "note": 33,
      "start": 64.0686,
      "duration": 0.116,
      "velocity": 97,
      "chip": "ym2612"
    },
    {
      "channel": 5,
      "note": 21,
      "start": 64.1847,
      "duration": 0.2347,
      "velocity": 97,
      "chip": "ym2612"
    },
    {
      "channel": 5,
      "note": 21,
      "start": 64.4196,
      "duration": 0.3504,
      "velocity": 97,
      "chip": "ym2612"
    },
    {
      "channel": 0,
      "note": 45,
      "start": 64.5361,
      "duration": 0.8997,
      "velocity": 95,
      "chip": "ym2612"
    },
    {
      "channel": 1,
      "note": 57,
      "start": 64.5366,
      "duration": 0.2326,
      "velocity": 124,
      "chip": "ym2612"
    },
    {
      "channel": 3,
      "note": 86,
      "start": 64.5389,
      "duration": 0.001,
      "velocity": 72,
      "chip": "ym2612"
    },
    {
      "channel": 4,
      "note": 85,
      "start": 64.5394,
      "duration": 0.4805,
      "velocity": 127,
      "chip": "ym2612"
    },
    {
      "channel": 3,
      "note": 86,
      "start": 64.5399,
      "duration": 0.0123,
      "velocity": 72,
      "chip": "ym2612"
    },
    {
      "channel": 3,
      "note": 86,
      "start": 64.5523,
      "duration": 0.0167,
      "velocity": 72,
      "chip": "ym2612"
    },
    {
      "channel": 3,
      "note": 86,
      "start": 64.5689,
      "duration": 0.0333,
      "velocity": 72,
      "chip": "ym2612"
    },
    {
      "channel": 3,
      "note": 87,
      "start": 64.6022,
      "duration": 0.0167,
      "velocity": 72,
      "chip": "ym2612"
    },
    {
      "channel": 3,
      "note": 87,
      "start": 64.6189,
      "duration": 0.0167,
      "velocity": 72,
      "chip": "ym2612"
    },
    {
      "channel": 3,
      "note": 87,
      "start": 64.6356,
      "duration": 0.0171,
      "velocity": 72,
      "chip": "ym2612"
    },
    {
      "channel": 3,
      "note": 88,
      "start": 64.6529,
      "duration": 3.3401,
      "velocity": 72,
      "chip": "ym2612"
    },
    {
      "channel": 1,
      "note": 61,
      "start": 64.7695,
      "duration": 0.2498,
      "velocity": 124,
      "chip": "ym2612"
    },
    {
      "channel": 5,
      "note": 21,
      "start": 64.7701,
      "duration": 0.1332,
      "velocity": 97,
      "chip": "ym2612"
    },
    {
      "channel": 2,
      "note": 57,
      "start": 64.9028,
      "duration": 0.2332,
      "velocity": 124,
      "chip": "ym2612"
    },
    {
      "channel": 5,
      "note": 21,
      "start": 64.9035,
      "duration": 0.1171,
      "velocity": 97,
      "chip": "ym2612"
    },
    {
      "channel": 1,
      "note": 55,
      "start": 65.0195,
      "duration": 0.5855,
      "velocity": 124,
      "chip": "ym2612"
    },
    {
      "channel": 4,
      "note": 85,
      "start": 65.0201,
      "duration": 0.4164,
      "velocity": 127,
      "chip": "ym2612"
    },
    {
      "channel": 5,
      "note": 33,
      "start": 65.0207,
      "duration": 0.5851,
      "velocity": 97,
      "chip": "ym2612"
    },
    {
      "channel": 2,
      "note": 61,
      "start": 65.1362,
      "duration": 0.2024,
      "velocity": 124,
      "chip": "ym2612"
    },
    {
      "channel": 2,
      "note": 55,
      "start": 65.3388,
      "duration": 0.6329,
      "velocity": 124,
      "chip": "ym2612"
    },
    {
      "channel": 0,
      "note": 49,
      "start": 65.4359,
      "duration": 0.6523,
      "velocity": 95,
      "chip": "ym2612"
    },
    {
      "channel": 4,
      "note": 85,
      "start": 65.4367,
      "duration": 0.4022,
      "velocity": 127,
      "chip": "ym2612"
    },
    {
      "channel": 1,
      "note": 64,
      "start": 65.6052,
      "duration": 0.2331,
      "velocity": 124,
      "chip": "ym2612"
    },
    {
      "channel": 5,
      "note": 33,
      "start": 65.6059,
      "duration": 0.1159,
      "velocity": 97,
      "chip": "ym2612"
    },
    {
      "channel": 5,
      "note": 33,
      "start": 65.722,
      "duration": 0.1175,
      "velocity": 97,
      "chip": "ym2612"
    },
    {
      "channel": 1,
      "note": 67,
      "start": 65.8384,
      "duration": 0.2504,
      "velocity": 124,
      "chip": "ym2612"
    },
    {
      "channel": 4,
      "note": 85,
      "start": 65.8391,
      "duration": 0.4832,
      "velocity": 127,
      "chip": "ym2612"
    },
    {
      "channel": 5,
      "note": 21,
      "start": 65.8397,
      "duration": 0.2499,
      "velocity": 97,
      "chip": "ym2612"
    },
    {
      "channel": 2,
      "note": 64,
      "start": 65.9719,
      "duration": 0.2332,
      "velocity": 124,
      "chip": "ym2612"
    },
    {
      "channel": 0,
      "note": 43,
      "start": 66.0884,
      "duration": 1.9017,
      "velocity": 95,
      "chip": "ym2612"
    },
    {
      "channel": 1,
      "note": 60,
      "start": 66.089,
      "duration": 0.2326,
      "velocity": 124,
      "chip": "ym2612"
    },
    {
      "channel": 5,
      "note": 21,
      "start": 66.0897,
      "duration": 0.2332,
      "velocity": 97,
      "chip": "ym2612"
    },
    {
      "channel": 2,
      "note": 67,
      "start": 66.2052,
      "duration": 0.2332,
      "velocity": 124,
      "chip": "ym2612"
    },
    {
      "channel": 1,
      "note": 66,
      "start": 66.3218,
      "duration": 0.6538,
      "velocity": 124,
      "chip": "ym2612"
    },
    {
      "channel": 4,
      "note": 85,
      "start": 66.3225,
      "duration": 0.4201,
      "velocity": 127,
      "chip": "ym2612"
    },
    {
      "channel": 5,
      "note": 33,
      "start": 66.323,
      "duration": 0.4201,
      "velocity": 97,
      "chip": "ym2612"
    },
    {
      "channel": 2,
      "note": 60,
      "start": 66.4385,
      "duration": 0.2182,
      "velocity": 124,
      "chip": "ym2612"
    },
    {
      "channel": 2,
      "note": 66,
      "start": 66.6569,
      "duration": 0.5892,
      "velocity": 124,
      "chip": "ym2612"
    },
    {
      "channel": 4,
      "note": 85,
      "start": 66.7428,
      "duration": 0.4169,
      "velocity": 127,
      "chip": "ym2612"
    },
    {
      "channel": 5,
      "note": 21,
      "start": 66.7434,
      "duration": 0.116,
      "velocity": 97,
      "chip": "ym2612"
    },
    {
      "channel": 5,
      "note": 21,
      "start": 66.8595,
      "duration": 0.8976,
      "velocity": 97,
      "chip": "ym2612"
    },
    {
      "channel": 1,
      "note": 63,
      "start": 66.9759,
      "duration": 0.5777,
      "velocity": 124,
      "chip": "ym2612"
    },
    {
      "channel": 4,
      "note": 85,
      "start": 67.1598,
      "duration": 0.3945,
      "velocity": 127,
      "chip": "ym2612"
    },
    {
      "channel": 2,
      "note": 63,
      "start": 67.2463,
      "duration": 0.6272,
      "velocity": 124,
      "chip": "ym2612"
    },
    {
      "channel": 1,
      "note": 64,
      "start": 67.5538,
      "duration": 0.437,
      "velocity": 124,
      "chip": "ym2612"
    },
    {
      "channel": 4,
      "note": 85,
      "start": 67.5544,
      "duration": 0.4392,
      "velocity": 127,
      "chip": "ym2612"
    },
    {
      "channel": 5,
      "note": 33,
      "start": 67.7571,
      "duration": 0.1171,
      "velocity": 97,
      "chip": "ym2612"
    },
    {
      "channel": 2,
      "note": 64,
      "start": 67.8736,
      "duration": 0.4061,
      "velocity": 124,
      "chip": "ym2612"
    },
    {
      "channel": 5,
      "note": 33,
      "start": 67.8743,
      "duration": 25.2823,
      "velocity": 97,
      "chip": "ym2612"
    },
    {
      "channel": 0,
      "note": 45,
      "start": 67.9903,
      "duration": 0.7666,
      "velocity": 95,
      "chip": "ym2612"
    },
    {
      "channel": 1,
      "note": 57,
      "start": 67.9909,
      "duration": 0.2027,
      "velocity": 124,
      "chip": "ym2612"
    },
    {
      "channel": 3,
      "note": 79,
      "start": 67.9932,
      "duration": 0.0014,
      "velocity": 72,
      "chip": "ym2612"
    },
    {
      "channel": 4,
      "note": 85,
      "start": 67.9938,
      "duration": 0.3804,
      "velocity": 127,
      "chip": "ym2612"
    },
    {
      "channel": 3,
      "note": 79,
      "start": 67.9946,
      "duration": 0.0215,
      "velocity": 72,
      "chip": "ym2612"
    },
    {
      "channel": 3,
      "note": 79,
      "start": 68.0161,
      "duration": 0.0122,
      "velocity": 72,
      "chip": "ym2612"
    },
    {
      "channel": 3,
      "note": 79,
      "start": 68.0284,
      "duration": 0.0126,
      "velocity": 72,
      "chip": "ym2612"
    },
    {
      "channel": 3,
      "note": 79,
      "start": 68.041,
      "duration": 0.012,
      "velocity": 72,
      "chip": "ym2612"
    },
    {
      "channel": 3,
      "note": 80,
      "start": 68.053,
      "duration": 0.0125,
      "velocity": 72,
      "chip": "ym2612"
    },
    {
      "channel": 3,
      "note": 80,
      "start": 68.0655,
      "duration": 0.0254,
      "velocity": 72,
      "chip": "ym2612"
    },
    {
      "channel": 3,
      "note": 81,
      "start": 68.091,
      "duration": 2.8846,
      "velocity": 72,
      "chip": "ym2612"
    },
    {
      "channel": 1,
      "note": 61,
      "start": 68.1939,
      "duration": 0.1796,
      "velocity": 124,
      "chip": "ym2612"
    },
    {
      "channel": 2,
      "note": 57,
      "start": 68.2798,
      "duration": 0.1932,
      "velocity": 124,
      "chip": "ym2612"
    },
    {
      "channel": 1,
      "note": 55,
      "start": 68.3737,
      "duration": 0.5543,
      "velocity": 124,
      "chip": "ym2612"
    },
    {
      "channel": 4,
      "note": 85,
      "start": 68.3744,
      "duration": 0.3833,
      "velocity": 127,
      "chip": "ym2612"
    },
    {
      "channel": 2,
      "note": 61,
      "start": 68.4733,
      "duration": 0.1989,
      "velocity": 124,
      "chip": "ym2612"
    },
    {
      "channel": 2,
      "note": 55,
      "start": 68.6724,
      "duration": 0.5433,
      "velocity": 124,
      "chip": "ym2612"
    },
    {
      "channel": 0,
      "note": 49,
      "start": 68.7571,
      "duration": 0.5437,
      "velocity": 95,
      "chip": "ym2612"
    },
    {
      "channel": 4,
      "note": 85,
      "start": 68.7578,
      "duration": 0.3731,
      "velocity": 127,
      "chip": "ym2612"
    },
    {
      "channel": 1,
      "note": 64,
      "start": 68.9281,
      "duration": 0.2021,
      "velocity": 124,
      "chip": "ym2612"
    },
    {
      "channel": 1,
      "note": 67,
      "start": 69.1304,
      "duration": 0.1709,
      "velocity": 124,
      "chip": "ym2612"
    },
    {
      "channel": 4,
      "note": 85,
      "start": 69.1311,
      "duration": 0.3831,
      "velocity": 127,
      "chip": "ym2612"
    },
    {
      "channel": 2,
      "note": 64,
      "start": 69.2159,
      "duration": 0.1843,
      "velocity": 124,
      "chip": "ym2612"
    },
    {
      "channel": 0,
      "note": 46,
      "start": 69.3009,
      "duration": 1.672,
      "velocity": 95,
      "chip": "ym2612"
    },
    {
      "channel": 1,
      "note": 60,
      "start": 69.3015,
      "duration": 0.212,
      "velocity": 124,
      "chip": "ym2612"
    },
    {
      "channel": 2,
      "note": 67,
      "start": 69.4003,
      "duration": 0.2123,
      "velocity": 124,
      "chip": "ym2612"
    },
    {
      "channel": 1,
      "note": 66,
      "start": 69.5137,
      "duration": 0.5781,
      "velocity": 124,
      "chip": "ym2612"
    },
    {
      "channel": 4,
      "note": 85,
      "start": 69.5143,
      "duration": 0.3755,
      "velocity": 127,
      "chip": "ym2612"
    },
    {
      "channel": 2,
      "note": 60,
      "start": 69.6128,
      "duration": 0.1837,
      "velocity": 124,
      "chip": "ym2612"
    },
    {
      "channel": 2,
      "note": 66,
      "start": 69.7966,
      "duration": 0.5513,
      "velocity": 124,
      "chip": "ym2612"
    },
    {
      "channel": 4,
      "note": 85,
      "start": 69.8899,
      "duration": 0.3734,
      "velocity": 127,
      "chip": "ym2612"
    },
    {
      "channel": 1,
      "note": 64,
      "start": 70.092,
      "duration": 0.8814,
      "velocity": 124,
      "chip": "ym2612"
    },
    {
      "channel": 4,
      "note": 85,
      "start": 70.2635,
      "duration": 0.3507,
      "velocity": 127,
      "chip": "ym2612"
    },
    {
      "channel": 2,
      "note": 64,
      "start": 70.3481,
      "duration": 0.8948,
      "velocity": 124,
      "chip": "ym2612"
    },
    {
      "channel": 4,
      "note": 85,
      "start": 70.6144,
      "duration": 0.3617,
      "velocity": 127,
      "chip": "ym2612"
    },
    {
      "channel": 0,
      "note": 45,
      "start": 70.973,
      "duration": 0.748,
      "velocity": 95,
      "chip": "ym2612"
    },
    {
      "channel": 1,
      "note": 57,
      "start": 70.9736,
      "duration": 0.1848,
      "velocity": 124,
      "chip": "ym2612"
    },
    {
      "channel": 3,
      "note": 67,
      "start": 70.9758,
      "duration": 0.0014,
      "velocity": 72,
      "chip": "ym2612"
    },
    {
      "channel": 4,
      "note": 85,
      "start": 70.9763,
      "duration": 0.3715,
      "velocity": 127,
      "chip": "ym2612"
    },
    {
      "channel": 3,
      "note": 67,
      "start": 70.9772,
      "duration": 0.0088,
      "velocity": 72,
      "chip": "ym2612"
    },
    {
      "channel": 3,
      "note": 67,
      "start": 70.986,
      "duration": 0.0118,
      "velocity": 72,
      "chip": "ym2612"
    },
    {
      "channel": 3,
      "note": 68,
      "start": 70.9977,
      "duration": 0.0122,
      "velocity": 72,
      "chip": "ym2612"
    },
    {
      "channel": 3,
      "note": 68,
      "start": 71.01,
      "duration": 0.0241,
      "velocity": 72,
      "chip": "ym2612"
    },
    {
      "channel": 3,
      "note": 68,
      "start": 71.0341,
      "duration": 0.0124,
      "velocity": 72,
      "chip": "ym2612"
    },
    {
      "channel": 3,
      "note": 69,
      "start": 71.0465,
      "duration": 0.0132,
      "velocity": 72,
      "chip": "ym2612"
    },
    {
      "channel": 3,
      "note": 69,
      "start": 71.0599,
      "duration": 2.8359,
      "velocity": 72,
      "chip": "ym2612"
    },
    {
      "channel": 1,
      "note": 61,
      "start": 71.1585,
      "duration": 0.1887,
      "velocity": 124,
      "chip": "ym2612"
    },
    {
      "channel": 2,
      "note": 57,
      "start": 71.243,
      "duration": 0.2035,
      "velocity": 124,
      "chip": "ym2612"
    },
    {
      "channel": 1,
      "note": 55,
      "start": 71.3474,
      "duration": 0.5617,
      "velocity": 124,
      "chip": "ym2612"
    },
    {
      "channel": 4,
      "note": 85,
      "start": 71.348,
      "duration": 0.3737,
      "velocity": 127,
      "chip": "ym2612"
    },
    {
      "channel": 2,
      "note": 61,
      "start": 71.4467,
      "duration": 0.19,
      "velocity": 124,
      "chip": "ym2612"
    },
    {
      "channel": 2,
      "note": 55,
      "start": 71.6368,
      "duration": 0.5351,
      "velocity": 124,
      "chip": "ym2612"
    },
    {
      "channel": 0,
      "note": 49,
      "start": 71.7212,
      "duration": 0.5477,
      "velocity": 95,
      "chip": "ym2612"
    },
    {
      "channel": 4,
      "note": 85,
      "start": 71.7219,
      "duration": 0.3645,
      "velocity": 127,
      "chip": "ym2612"
    },
    {
      "channel": 1,
      "note": 64,
      "start": 71.9092,
      "duration": 0.1766,
      "velocity": 124,
      "chip": "ym2612"
    },
    {
      "channel": 1,
      "note": 67,
      "start": 72.0859,
      "duration": 0.1835,
      "velocity": 124,
      "chip": "ym2612"
    },
    {
      "channel": 4,
      "note": 85,
      "start": 72.0866,
      "duration": 0.352,
      "velocity": 127,
      "chip": "ym2612"
    },
    {
      "channel": 2,
      "note": 64,
      "start": 72.1722,
      "duration": 0.1812,
      "velocity": 124,
      "chip": "ym2612"
    },
    {
      "channel": 0,
      "note": 43,
      "start": 72.269,
      "duration": 1.6239,
      "velocity": 95,
      "chip": "ym2612"
    },
    {
      "channel": 1,
      "note": 60,
      "start": 72.2695,
      "duration": 0.1685,
      "velocity": 124,
      "chip": "ym2612"
    },
    {
      "channel": 2,
      "note": 67,
      "start": 72.3536,
      "duration": 0.1705,
      "velocity": 124,
      "chip": "ym2612"
    },
    {
      "channel": 1,
      "note": 66,
      "start": 72.4381,
      "duration": 0.5448,
      "velocity": 124,
      "chip": "ym2612"
    },
    {
      "channel": 4,
      "note": 85,
      "start": 72.4388,
      "duration": 0.3741,
      "velocity": 127,
      "chip": "ym2612"
    },
    {
      "channel": 2,
      "note": 60,
      "start": 72.5243,
      "duration": 0.1976,
      "velocity": 124,
      "chip": "ym2612"
    },
    {
      "channel": 2,
      "note": 66,
      "start": 72.7221,
      "duration": 0.548,
      "velocity": 124,
      "chip": "ym2612"
    },
    {
      "channel": 4,
      "note": 85,
      "start": 72.813,
      "duration": 0.3717,
      "velocity": 127,
      "chip": "ym2612"
    },
    {
      "channel": 1,
      "note": 63,
      "start": 72.9831,
      "duration": 0.5491,
      "velocity": 124,
      "chip": "ym2612"
    },
    {
      "channel": 4,
      "note": 85,
      "start": 73.1849,
      "duration": 0.348,
      "velocity": 127,
      "chip": "ym2612"
    },
    {
      "channel": 2,
      "note": 63,
      "start": 73.2703,
      "duration": 0.5373,
      "velocity": 124,
      "chip": "ym2612"
    },
    {
      "channel": 1,
      "note": 64,
      "start": 73.5324,
      "duration": 0.3612,
      "velocity": 124,
      "chip": "ym2612"
    },
    {
      "channel": 4,
      "note": 85,
      "start": 73.533,
      "duration": 0.3634,
      "velocity": 127,
      "chip": "ym2612"
    },
    {
      "channel": 2,
      "note": 64,
      "start": 73.8078,
      "duration": 0.3719,
      "velocity": 124,
      "chip": "ym2612"
    },
    {
      "channel": 0,
      "note": 45,
      "start": 73.8931,
      "duration": 0.7617,
      "velocity": 95,
      "chip": "ym2612"
    },
    {
      "channel": 1,
      "note": 57,
      "start": 73.8937,
      "duration": 0.2008,
      "velocity": 124,
      "chip": "ym2612"
    },
    {
      "channel": 3,
      "note": 86,
      "start": 73.896,
      "duration": 0.0014,
      "velocity": 72,
      "chip": "ym2612"
    },
    {
      "channel": 4,
      "note": 85,
      "start": 73.8966,
      "duration": 0.3773,
      "velocity": 127,
      "chip": "ym2612"
    },
    {
      "channel": 3,
      "note": 86,
      "start": 73.8974,
      "duration": 0.0088,
      "velocity": 72,
      "chip": "ym2612"
    },
    {
      "channel": 3,
      "note": 86,
      "start": 73.9062,
      "duration": 0.0243,
      "velocity": 72,
      "chip": "ym2612"
    },
    {
      "channel": 3,
      "note": 86,
      "start": 73.9305,
      "duration": 0.012,
      "velocity": 72,
      "chip": "ym2612"
    },
    {
      "channel": 3,
      "note": 87,
      "start": 73.9425,
      "duration": 0.0119,
      "velocity": 72,
      "chip": "ym2612"
    },
    {
      "channel": 3,
      "note": 87,
      "start": 73.9544,
      "duration": 0.0122,
      "velocity": 72,
      "chip": "ym2612"
    },
    {
      "channel": 3,
      "note": 87,
      "start": 73.9666,
      "duration": 0.0127,
      "velocity": 72,
      "chip": "ym2612"
    },
    {
      "channel": 3,
      "note": 88,
      "start": 73.9795,
      "duration": 2.8934,
      "velocity": 72,
      "chip": "ym2612"
    },
    {
      "channel": 1,
      "note": 61,
      "start": 74.0947,
      "duration": 0.1785,
      "velocity": 124,
      "chip": "ym2612"
    },
    {
      "channel": 2,
      "note": 57,
      "start": 74.1799,
      "duration": 0.192,
      "velocity": 124,
      "chip": "ym2612"
    },
    {
      "channel": 1,
      "note": 55,
      "start": 74.2734,
      "duration": 0.5508,
      "velocity": 124,
      "chip": "ym2612"
    },
    {
      "channel": 4,
      "note": 85,
      "start": 74.2741,
      "duration": 0.3815,
      "velocity": 127,
      "chip": "ym2612"
    },
    {
      "channel": 2,
      "note": 61,
      "start": 74.3721,
      "duration": 0.1961,
      "velocity": 124,
      "chip": "ym2612"
    },
    {
      "channel": 2,
      "note": 55,
      "start": 74.5684,
      "duration": 0.5439,
      "velocity": 124,
      "chip": "ym2612"
    },
    {
      "channel": 0,
      "note": 49,
      "start": 74.655,
      "duration": 0.5416,
      "velocity": 95,
      "chip": "ym2612"
    },
    {
      "channel": 4,
      "note": 85,
      "start": 74.6558,
      "duration": 0.3715,
      "velocity": 127,
      "chip": "ym2612"
    },
    {
      "channel": 1,
      "note": 64,
      "start": 74.8243,
      "duration": 0.2023,
      "velocity": 124,
      "chip": "ym2612"
    },
    {
      "channel": 1,
      "note": 67,
      "start": 75.0267,
      "duration": 0.1704,
      "velocity": 124,
      "chip": "ym2612"
    },
    {
      "channel": 4,
      "note": 85,
      "start": 75.0274,
      "duration": 0.3685,
      "velocity": 127,
      "chip": "ym2612"
    },
    {
      "channel": 2,
      "note": 64,
      "start": 75.1124,
      "duration": 0.1838,
      "velocity": 124,
      "chip": "ym2612"
    },
    {
      "channel": 0,
      "note": 46,
      "start": 75.1968,
      "duration": 1.6732,
      "velocity": 95,
      "chip": "ym2612"
    },
    {
      "channel": 1,
      "note": 60,
      "start": 75.1973,
      "duration": 0.1979,
      "velocity": 124,
      "chip": "ym2612"
    },
    {
      "channel": 2,
      "note": 67,
      "start": 75.2964,
      "duration": 0.2127,
      "velocity": 124,
      "chip": "ym2612"
    },
    {
      "channel": 1,
      "note": 66,
      "start": 75.3955,
      "duration": 0.5922,
      "velocity": 124,
      "chip": "ym2612"
    },
    {
      "channel": 4,
      "note": 85,
      "start": 75.3961,
      "duration": 0.3892,
      "velocity": 127,
      "chip": "ym2612"
    },
    {
      "channel": 2,
      "note": 60,
      "start": 75.5093,
      "duration": 0.1838,
      "velocity": 124,
      "chip": "ym2612"
    },
    {
      "channel": 2,
      "note": 66,
      "start": 75.6933,
      "duration": 0.5505,
      "velocity": 124,
      "chip": "ym2612"
    },
    {
      "channel": 4,
      "note": 85,
      "start": 75.7855,
      "duration": 0.3724,
      "velocity": 127,
      "chip": "ym2612"
    },
    {
      "channel": 1,
      "note": 64,
      "start": 75.9879,
      "duration": 0.8827,
      "velocity": 124,
      "chip": "ym2612"
    },
    {
      "channel": 4,
      "note": 85,
      "start": 76.158,
      "duration": 0.3522,
      "velocity": 127,
      "chip": "ym2612"
    },
    {
      "channel": 2,
      "note": 64,
      "start": 76.2439,
      "duration": 0.8958,
      "velocity": 124,
      "chip": "ym2612"
    },
    {
      "channel": 4,
      "note": 85,
      "start": 76.5103,
      "duration": 0.3631,
      "velocity": 127,
      "chip": "ym2612"
    },
    {
      "channel": 0,
      "note": 45,
      "start": 76.8702,
      "duration": 0.7523,
      "velocity": 95,
      "chip": "ym2612"
    },
    {
      "channel": 1,
      "note": 57,
      "start": 76.8707,
      "duration": 0.1839,
      "velocity": 124,
      "chip": "ym2612"
    },
    {
      "channel": 3,
      "note": 91,
      "start": 76.873,
      "duration": 0.0013,
      "velocity": 72,
      "chip": "ym2612"
    },
    {
      "channel": 4,
      "note": 85,
      "start": 76.8736,
      "duration": 0.3587,
      "velocity": 127,
      "chip": "ym2612"
    },
    {
      "channel": 3,
      "note": 91,
      "start": 76.8744,
      "duration": 0.0084,
      "velocity": 72,
      "chip": "ym2612"
    },
    {
      "channel": 3,
      "note": 91,
      "start": 76.8828,
      "duration": 0.0124,
      "velocity": 72,
      "chip": "ym2612"
    },
    {
      "channel": 3,
      "note": 91,
      "start": 76.8952,
      "duration": 0.0117,
      "velocity": 72,
      "chip": "ym2612"
    },
    {
      "channel": 3,
      "note": 91,
      "start": 76.9069,
      "duration": 0.0119,
      "velocity": 72,
      "chip": "ym2612"
    },
    {
      "channel": 3,
      "note": 92,
      "start": 76.9188,
      "duration": 0.0246,
      "velocity": 72,
      "chip": "ym2612"
    },
    {
      "channel": 3,
      "note": 92,
      "start": 76.9434,
      "duration": 0.0129,
      "velocity": 72,
      "chip": "ym2612"
    },
    {
      "channel": 3,
      "note": 93,
      "start": 76.9565,
      "duration": 2.8469,
      "velocity": 127,
      "chip": "ym2612"
    },
    {
      "channel": 1,
      "note": 61,
      "start": 77.0549,
      "duration": 0.1768,
      "velocity": 124,
      "chip": "ym2612"
    },
    {
      "channel": 2,
      "note": 57,
      "start": 77.1399,
      "duration": 0.2058,
      "velocity": 124,
      "chip": "ym2612"
    },
    {
      "channel": 1,
      "note": 55,
      "start": 77.2318,
      "duration": 0.5842,
      "velocity": 124,
      "chip": "ym2612"
    },
    {
      "channel": 4,
      "note": 85,
      "start": 77.2325,
      "duration": 0.3908,
      "velocity": 127,
      "chip": "ym2612"
    },
    {
      "channel": 2,
      "note": 61,
      "start": 77.3458,
      "duration": 0.191,
      "velocity": 124,
      "chip": "ym2612"
    },
    {
      "channel": 2,
      "note": 55,
      "start": 77.5369,
      "duration": 0.5421,
      "velocity": 124,
      "chip": "ym2612"
    },
    {
      "channel": 0,
      "note": 49,
      "start": 77.6227,
      "duration": 0.5419,
      "velocity": 95,
      "chip": "ym2612"
    },
    {
      "channel": 4,
      "note": 85,
      "start": 77.6235,
      "duration": 0.3707,
      "velocity": 127,
      "chip": "ym2612"
    },
    {
      "channel": 1,
      "note": 64,
      "start": 77.8162,
      "duration": 0.1773,
      "velocity": 124,
      "chip": "ym2612"
    },
    {
      "channel": 1,
      "note": 67,
      "start": 77.9937,
      "duration": 0.1715,
      "velocity": 124,
      "chip": "ym2612"
    },
    {
      "channel": 4,
      "note": 85,
      "start": 77.9944,
      "duration": 0.355,
      "velocity": 127,
      "chip": "ym2612"
    },
    {
      "channel": 2,
      "note": 64,
      "start": 78.0791,
      "duration": 0.1845,
      "velocity": 124,
      "chip": "ym2612"
    },
    {
      "channel": 0,
      "note": 43,
      "start": 78.1649,
      "duration": 1.6363,
      "velocity": 95,
      "chip": "ym2612"
    },
    {
      "channel": 1,
      "note": 60,
      "start": 78.1654,
      "duration": 0.1833,
      "velocity": 124,
      "chip": "ym2612"
    },
    {
      "channel": 2,
      "note": 67,
      "start": 78.2638,
      "duration": 0.1696,
      "velocity": 124,
      "chip": "ym2612"
    },
    {
      "channel": 1,
      "note": 66,
      "start": 78.3488,
      "duration": 0.5454,
      "velocity": 124,
      "chip": "ym2612"
    },
    {
      "channel": 4,
      "note": 85,
      "start": 78.3495,
      "duration": 0.374,
      "velocity": 127,
      "chip": "ym2612"
    },
    {
      "channel": 2,
      "note": 60,
      "start": 78.4335,
      "duration": 0.1848,
      "velocity": 124,
      "chip": "ym2612"
    },
    {
      "channel": 2,
      "note": 66,
      "start": 78.6185,
      "duration": 0.5603,
      "velocity": 124,
      "chip": "ym2612"
    },
    {
      "channel": 4,
      "note": 85,
      "start": 78.7237,
      "duration": 0.3565,
      "velocity": 127,
      "chip": "ym2612"
    },
    {
      "channel": 1,
      "note": 63,
      "start": 78.8945,
      "duration": 0.5459,
      "velocity": 124,
      "chip": "ym2612"
    },
    {
      "channel": 4,
      "note": 85,
      "start": 79.0803,
      "duration": 0.3608,
      "velocity": 127,
      "chip": "ym2612"
    },
    {
      "channel": 2,
      "note": 63,
      "start": 79.179,
      "duration": 0.5372,
      "velocity": 124,
      "chip": "ym2612"
    },
    {
      "channel": 1,
      "note": 64,
      "start": 79.4406,
      "duration": 0.797,
      "velocity": 124,
      "chip": "ym2612"
    },
    {
      "channel": 4,
      "note": 85,
      "start": 79.4413,
      "duration": 0.548,
      "velocity": 97,
      "chip": "ym2612"
    },
    {
      "channel": 2,
      "note": 64,
      "start": 79.7163,
      "duration": 0.8006,
      "velocity": 124,
      "chip": "ym2612"
    },
    {
      "channel": 0,
      "note": 45,
      "start": 79.8013,
      "duration": 13.3553,
      "velocity": 95,
      "chip": "ym2612"
    },
    {
      "channel": 3,
      "note": 85,
      "start": 79.8036,
      "duration": 0.4346,
      "velocity": 127,
      "chip": "ym2612"
    },
    {
      "channel": 4,
      "note": 21,
      "start": 79.9894,
      "duration": 13.1672,
      "velocity": 97,
      "chip": "ym2612"
    },
    {
      "channel": 1,
      "note": 60,
      "start": 80.2378,
      "duration": 0.194,
      "velocity": 124,
      "chip": "ym2612"
    },
    {
      "channel": 3,
      "note": 85,
      "start": 80.2384,
      "duration": 0.3957,
      "velocity": 127,
      "chip": "ym2612"
    },
    {
      "channel": 1,
      "note": 66,
      "start": 80.4319,
      "duration": 0.2016,
      "velocity": 124,
      "chip": "ym2612"
    },
    {
      "channel": 2,
      "note": 60,
      "start": 80.517,
      "duration": 12.6396,
      "velocity": 124,
      "chip": "ym2612"
    },
    {
      "channel": 1,
      "note": 59,
      "start": 80.6337,
      "duration": 12.5229,
      "velocity": 124,
      "chip": "ym2612"
    },
    {
      "channel": 3,
      "note": 85,
      "start": 80.6343,
      "duration": 12.5223,
      "velocity": 127,
      "chip": "ym2612"
    }
  ]
}