{
  "track_name": "07 - Waste Plant (Parts I & II)",
  "duration_sec": 58.599,
  "sample_rate": 44100,
  "note_count": 779,
  "unique_pitches": 21,
  "pitch_range": 27,
  "avg_note_duration": 0.1344,
  "reconstruction_stats": {
    "notes_reconstructed": 779,
    "keyon_events": 779,
    "keyoff_events": 779,
    "orphan_keyons": 0,
    "unique_pitches": 21,
    "pitch_range": 27,
    "avg_duration_sec": 0.1344
  },
  "metadata": {
    "source": "T\\The Ooze\\07 - Waste Plant (Parts I & II).vgz"
  },
  "notes": [
    {
      "channel": 1,
      "note": 45,
      "start": 0.0041,
      "duration": 0.2184,
      "velocity": 111,
      "chip": "ym2612"
    },
    {
      "channel": 3,
      "note": 57,
      "start": 0.0068,
      "duration": 0.2159,
      "velocity": 122,
      "chip": "ym2612"
    },
    {
      "channel": 2,
      "note": 64,
      "start": 0.0115,
      "duration": 0.2114,
      "velocity": 127,
      "chip": "ym2612"
    },
    {
      "channel": 0,
      "note": 45,
      "start": 0.0142,
      "duration": 0.2082,
      "velocity": 127,
      "chip": "ym2612"
    },
    {
      "channel": 4,
      "note": 45,
      "start": 0.019,
      "duration": 0.1702,
      "velocity": 121,
      "chip": "ym2612"
    },
    {
      "channel": 1,
      "note": 45,
      "start": 0.3625,
      "duration": 0.0536,
      "velocity": 111,
      "chip": "ym2612"
    },
    {
      "channel": 1,
      "note": 57,
      "start": 0.4562,
      "duration": 0.0723,
      "velocity": 111,
      "chip": "ym2612"
    },
    {
      "channel": 4,
      "note": 45,
      "start": 0.459,
      "duration": 0.0556,
      "velocity": 121,
      "chip": "ym2612"
    },
    {
      "channel": 1,
      "note": 56,
      "start": 0.5318,
      "duration": 0.08,
      "velocity": 111,
      "chip": "ym2612"
    },
    {
      "channel": 1,
      "note": 51,
      "start": 0.785,
      "duration": 0.2211,
      "velocity": 111,
      "chip": "ym2612"
    },
    {
      "channel": 4,
      "note": 45,
      "start": 0.7878,
      "duration": 0.1851,
      "velocity": 121,
      "chip": "ym2612"
    },
    {
      "channel": 1,
      "note": 52,
      "start": 1.0124,
      "duration": 0.1208,
      "velocity": 111,
      "chip": "ym2612"
    },
    {
      "channel": 3,
      "note": 59,
      "start": 1.0149,
      "duration": 0.2184,
      "velocity": 122,
      "chip": "ym2612"
    },
    {
      "channel": 0,
      "note": 64,
      "start": 1.0172,
      "duration": 0.2159,
      "velocity": 127,
      "chip": "ym2612"
    },
    {
      "channel": 2,
      "note": 59,
      "start": 1.0197,
      "duration": 0.2138,
      "velocity": 127,
      "chip": "ym2612"
    },
    {
      "channel": 3,
      "note": 60,
      "start": 1.2395,
      "duration": 0.0327,
      "velocity": 122,
      "chip": "ym2612"
    },
    {
      "channel": 0,
      "note": 64,
      "start": 1.242,
      "duration": 0.0301,
      "velocity": 127,
      "chip": "ym2612"
    },
    {
      "channel": 2,
      "note": 60,
      "start": 1.2443,
      "duration": 0.0281,
      "velocity": 127,
      "chip": "ym2612"
    },
    {
      "channel": 4,
      "note": 45,
      "start": 1.2468,
      "duration": 0.0533,
      "velocity": 121,
      "chip": "ym2612"
    },
    {
      "channel": 3,
      "note": 56,
      "start": 1.3183,
      "duration": 0.2378,
      "velocity": 122,
      "chip": "ym2612"
    },
    {
      "channel": 0,
      "note": 59,
      "start": 1.3206,
      "duration": 0.2353,
      "velocity": 127,
      "chip": "ym2612"
    },
    {
      "channel": 2,
      "note": 56,
      "start": 1.323,
      "duration": 0.2333,
      "velocity": 127,
      "chip": "ym2612"
    },
    {
      "channel": 1,
      "note": 45,
      "start": 1.5634,
      "duration": 0.3367,
      "velocity": 111,
      "chip": "ym2612"
    },
    {
      "channel": 3,
      "note": 57,
      "start": 1.5657,
      "duration": 0.1013,
      "velocity": 122,
      "chip": "ym2612"
    },
    {
      "channel": 0,
      "note": 60,
      "start": 1.5684,
      "duration": 0.0984,
      "velocity": 127,
      "chip": "ym2612"
    },
    {
      "channel": 2,
      "note": 57,
      "start": 1.571,
      "duration": 0.0962,
      "velocity": 127,
      "chip": "ym2612"
    },
    {
      "channel": 4,
      "note": 45,
      "start": 1.5743,
      "duration": 0.1593,
      "velocity": 121,
      "chip": "ym2612"
    },
    {
      "channel": 1,
      "note": 45,
      "start": 1.9073,
      "duration": 0.0534,
      "velocity": 111,
      "chip": "ym2612"
    },
    {
      "channel": 1,
      "note": 57,
      "start": 2.0175,
      "duration": 0.0722,
      "velocity": 111,
      "chip": "ym2612"
    },
    {
      "channel": 4,
      "note": 45,
      "start": 2.02,
      "duration": 0.051,
      "velocity": 121,
      "chip": "ym2612"
    },
    {
      "channel": 1,
      "note": 56,
      "start": 2.0929,
      "duration": 0.0967,
      "velocity": 111,
      "chip": "ym2612"
    },
    {
      "channel": 1,
      "note": 52,
      "start": 2.3461,
      "duration": 0.2213,
      "velocity": 111,
      "chip": "ym2612"
    },
    {
      "channel": 3,
      "note": 64,
      "start": 2.3483,
      "duration": 0.2191,
      "velocity": 122,
      "chip": "ym2612"
    },
    {
      "channel": 0,
      "note": 56,
      "start": 2.3511,
      "duration": 0.2161,
      "velocity": 127,
      "chip": "ym2612"
    },
    {
      "channel": 2,
      "note": 64,
      "start": 2.3535,
      "duration": 0.2142,
      "velocity": 127,
      "chip": "ym2612"
    },
    {
      "channel": 4,
      "note": 45,
      "start": 2.3569,
      "duration": 0.1604,
      "velocity": 121,
      "chip": "ym2612"
    },
    {
      "channel": 1,
      "note": 53,
      "start": 2.5741,
      "duration": 0.137,
      "velocity": 111,
      "chip": "ym2612"
    },
    {
      "channel": 3,
      "note": 65,
      "start": 2.5762,
      "duration": 0.0683,
      "velocity": 122,
      "chip": "ym2612"
    },
    {
      "channel": 0,
      "note": 57,
      "start": 2.5789,
      "duration": 0.0654,
      "velocity": 127,
      "chip": "ym2612"
    },
    {
      "channel": 2,
      "note": 65,
      "start": 2.5812,
      "duration": 0.0635,
      "velocity": 127,
      "chip": "ym2612"
    },
    {
      "channel": 3,
      "note": 59,
      "start": 2.8002,
      "duration": 0.0735,
      "velocity": 122,
      "chip": "ym2612"
    },
    {
      "channel": 0,
      "note": 64,
      "start": 2.8029,
      "duration": 0.0706,
      "velocity": 127,
      "chip": "ym2612"
    },
    {
      "channel": 2,
      "note": 59,
      "start": 2.8053,
      "duration": 0.0686,
      "velocity": 127,
      "chip": "ym2612"
    },
    {
      "channel": 4,
      "note": 45,
      "start": 2.8078,
      "duration": 0.049,
      "velocity": 121,
      "chip": "ym2612"
    },
    {
      "channel": 3,
      "note": 60,
      "start": 2.8802,
      "duration": 0.0704,
      "velocity": 122,
      "chip": "ym2612"
    },
    {
      "channel": 0,
      "note": 64,
      "start": 2.8826,
      "duration": 0.0678,
      "velocity": 127,
      "chip": "ym2612"
    },
    {
      "channel": 2,
      "note": 60,
      "start": 2.885,
      "duration": 0.0658,
      "velocity": 127,
      "chip": "ym2612"
    },
    {
      "channel": 1,
      "note": 45,
      "start": 3.1068,
      "duration": 0.2202,
      "velocity": 111,
      "chip": "ym2612"
    },
    {
      "channel": 3,
      "note": 57,
      "start": 3.1092,
      "duration": 0.118,
      "velocity": 122,
      "chip": "ym2612"
    },
    {
      "channel": 0,
      "note": 64,
      "start": 3.1115,
      "duration": 0.1156,
      "velocity": 127,
      "chip": "ym2612"
    },
    {
      "channel": 2,
      "note": 57,
      "start": 3.1139,
      "duration": 0.1136,
      "velocity": 127,
      "chip": "ym2612"
    },
    {
      "channel": 4,
      "note": 45,
      "start": 3.1173,
      "duration": 0.1765,
      "velocity": 121,
      "chip": "ym2612"
    },
    {
      "channel": 1,
      "note": 45,
      "start": 3.4675,
      "duration": 0.053,
      "velocity": 111,
      "chip": "ym2612"
    },
    {
      "channel": 1,
      "note": 57,
      "start": 3.5606,
      "duration": 0.072,
      "velocity": 111,
      "chip": "ym2612"
    },
    {
      "channel": 4,
      "note": 45,
      "start": 3.5631,
      "duration": 0.0558,
      "velocity": 121,
      "chip": "ym2612"
    },
    {
      "channel": 1,
      "note": 56,
      "start": 3.6359,
      "duration": 0.08,
      "velocity": 111,
      "chip": "ym2612"
    },
    {
      "channel": 1,
      "note": 51,
      "start": 3.8891,
      "duration": 0.221,
      "velocity": 111,
      "chip": "ym2612"
    },
    {
      "channel": 4,
      "note": 45,
      "start": 3.8918,
      "duration": 0.185,
      "velocity": 121,
      "chip": "ym2612"
    },
    {
      "channel": 1,
      "note": 52,
      "start": 4.1164,
      "duration": 0.1209,
      "velocity": 111,
      "chip": "ym2612"
    },
    {
      "channel": 3,
      "note": 59,
      "start": 4.1188,
      "duration": 0.2186,
      "velocity": 122,
      "chip": "ym2612"
    },
    {
      "channel": 0,
      "note": 64,
      "start": 4.1211,
      "duration": 0.2161,
      "velocity": 127,
      "chip": "ym2612"
    },
    {
      "channel": 2,
      "note": 59,
      "start": 4.1236,
      "duration": 0.214,
      "velocity": 127,
      "chip": "ym2612"
    },
    {
      "channel": 3,
      "note": 60,
      "start": 4.3436,
      "duration": 0.0329,
      "velocity": 122,
      "chip": "ym2612"
    },
    {
      "channel": 0,
      "note": 64,
      "start": 4.3461,
      "duration": 0.0302,
      "velocity": 127,
      "chip": "ym2612"
    },
    {
      "channel": 2,
      "note": 60,
      "start": 4.3484,
      "duration": 0.0283,
      "velocity": 127,
      "chip": "ym2612"
    },
    {
      "channel": 4,
      "note": 45,
      "start": 4.351,
      "duration": 0.0534,
      "velocity": 121,
      "chip": "ym2612"
    },
    {
      "channel": 3,
      "note": 57,
      "start": 4.4229,
      "duration": 0.2207,
      "velocity": 122,
      "chip": "ym2612"
    },
    {
      "channel": 0,
      "note": 60,
      "start": 4.4253,
      "duration": 0.2181,
      "velocity": 127,
      "chip": "ym2612"
    },
    {
      "channel": 2,
      "note": 57,
      "start": 4.4278,
      "duration": 0.216,
      "velocity": 127,
      "chip": "ym2612"
    },
    {
      "channel": 1,
      "note": 51,
      "start": 4.6508,
      "duration": 1.066,
      "velocity": 111,
      "chip": "ym2612"
    },
    {
      "channel": 4,
      "note": 51,
      "start": 4.6542,
      "duration": 0.6839,
      "velocity": 101,
      "chip": "ym2612"
    },
    {
      "channel": 0,
      "note": 58,
      "start": 4.8919,
      "duration": 0.2461,
      "velocity": 92,
      "chip": "ym2612"
    },
    {
      "channel": 0,
      "note": 63,
      "start": 5.1411,
      "duration": 0.2468,
      "velocity": 92,
      "chip": "ym2612"
    },
    {
      "channel": 0,
      "note": 63,
      "start": 5.3948,
      "duration": 0.1887,
      "velocity": 92,
      "chip": "ym2612"
    },
    {
      "channel": 3,
      "note": 69,
      "start": 5.3972,
      "duration": 0.1697,
      "velocity": 92,
      "chip": "ym2612"
    },
    {
      "channel": 4,
      "note": 61,
      "start": 5.4001,
      "duration": 0.0264,
      "velocity": 101,
      "chip": "ym2612"
    },
    {
      "channel": 4,
      "note": 63,
      "start": 5.4307,
      "duration": 0.2863,
      "velocity": 101,
      "chip": "ym2612"
    },
    {
      "channel": 2,
      "note": 54,
      "start": 5.7233,
      "duration": 0.073,
      "velocity": 122,
      "chip": "ym2612"
    },
    {
      "channel": 0,
      "note": 67,
      "start": 5.7257,
      "duration": 0.07,
      "velocity": 92,
      "chip": "ym2612"
    },
    {
      "channel": 3,
      "note": 63,
      "start": 5.7278,
      "duration": 0.0682,
      "velocity": 92,
      "chip": "ym2612"
    },
    {
      "channel": 1,
      "note": 54,
      "start": 5.7304,
      "duration": 0.0654,
      "velocity": 127,
      "chip": "ym2612"
    },
    {
      "channel": 4,
      "note": 54,
      "start": 5.7341,
      "duration": 0.062,
      "velocity": 101,
      "chip": "ym2612"
    },
    {
      "channel": 2,
      "note": 55,
      "start": 5.8027,
      "duration": 0.2207,
      "velocity": 122,
      "chip": "ym2612"
    },
    {
      "channel": 1,
      "note": 55,
      "start": 5.8049,
      "duration": 0.2182,
      "velocity": 127,
      "chip": "ym2612"
    },
    {
      "channel": 4,
      "note": 55,
      "start": 5.8075,
      "duration": 0.2157,
      "velocity": 101,
      "chip": "ym2612"
    },
    {
      "channel": 2,
      "note": 56,
      "start": 6.0298,
      "duration": 0.129,
      "velocity": 122,
      "chip": "ym2612"
    },
    {
      "channel": 1,
      "note": 56,
      "start": 6.0324,
      "duration": 0.1258,
      "velocity": 127,
      "chip": "ym2612"
    },
    {
      "channel": 4,
      "note": 56,
      "start": 6.0354,
      "duration": 0.1231,
      "velocity": 101,
      "chip": "ym2612"
    },
    {
      "channel": 0,
      "note": 45,
      "start": 6.1658,
      "duration": 0.217,
      "velocity": 111,
      "chip": "ym2612"
    },
    {
      "channel": 2,
      "note": 57,
      "start": 6.1682,
      "duration": 0.1149,
      "velocity": 122,
      "chip": "ym2612"
    },
    {
      "channel": 1,
      "note": 57,
      "start": 6.1707,
      "duration": 0.1122,
      "velocity": 127,
      "chip": "ym2612"
    },
    {
      "channel": 3,
      "note": 57,
      "start": 6.3871,
      "duration": 0.2232,
      "velocity": 127,
      "chip": "ym2612"
    },
    {
      "channel": 0,
      "note": 45,
      "start": 6.5228,
      "duration": 0.0541,
      "velocity": 111,
      "chip": "ym2612"
    },
    {
      "channel": 0,
      "note": 57,
      "start": 6.6175,
      "duration": 0.0718,
      "velocity": 111,
      "chip": "ym2612"
    },
    {
      "channel": 3,
      "note": 60,
      "start": 6.6198,
      "duration": 0.0697,
      "velocity": 127,
      "chip": "ym2612"
    },
    {
      "channel": 0,
      "note": 56,
      "start": 6.6927,
      "duration": 0.08,
      "velocity": 111,
      "chip": "ym2612"
    },
    {
      "channel": 3,
      "note": 63,
      "start": 6.6959,
      "duration": 0.4713,
      "velocity": 127,
      "chip": "ym2612"
    },
    {
      "channel": 0,
      "note": 51,
      "start": 6.9459,
      "duration": 0.2212,
      "velocity": 111,
      "chip": "ym2612"
    },
    {
      "channel": 0,
      "note": 52,
      "start": 7.1739,
      "duration": 0.1204,
      "velocity": 111,
      "chip": "ym2612"
    },
    {
      "channel": 2,
      "note": 59,
      "start": 7.1764,
      "duration": 0.2183,
      "velocity": 122,
      "chip": "ym2612"
    },
    {
      "channel": 1,
      "note": 64,
      "start": 7.179,
      "duration": 0.2154,
      "velocity": 127,
      "chip": "ym2612"
    },
    {
      "channel": 4,
      "note": 59,
      "start": 7.1815,
      "duration": 0.2131,
      "velocity": 127,
      "chip": "ym2612"
    },
    {
      "channel": 2,
      "note": 60,
      "start": 7.4009,
      "duration": 0.0315,
      "velocity": 122,
      "chip": "ym2612"
    },
    {
      "channel": 1,
      "note": 64,
      "start": 7.4033,
      "duration": 0.0289,
      "velocity": 127,
      "chip": "ym2612"
    },
    {
      "channel": 4,
      "note": 60,
      "start": 7.4056,
      "duration": 0.0267,
      "velocity": 127,
      "chip": "ym2612"
    },
    {
      "channel": 2,
      "note": 56,
      "start": 7.4791,
      "duration": 0.2205,
      "velocity": 122,
      "chip": "ym2612"
    },
    {
      "channel": 1,
      "note": 59,
      "start": 7.4817,
      "duration": 0.2176,
      "velocity": 127,
      "chip": "ym2612"
    },
    {
      "channel": 4,
      "note": 56,
      "start": 7.4839,
      "duration": 0.2156,
      "velocity": 127,
      "chip": "ym2612"
    },
    {
      "channel": 0,
      "note": 45,
      "start": 7.7061,
      "duration": 0.3538,
      "velocity": 111,
      "chip": "ym2612"
    },
    {
      "channel": 2,
      "note": 57,
      "start": 7.7085,
      "duration": 0.1184,
      "velocity": 122,
      "chip": "ym2612"
    },
    {
      "channel": 1,
      "note": 60,
      "start": 7.7111,
      "duration": 0.1154,
      "velocity": 127,
      "chip": "ym2612"
    },
    {
      "channel": 4,
      "note": 57,
      "start": 7.7135,
      "duration": 0.1132,
      "velocity": 127,
      "chip": "ym2612"
    },
    {
      "channel": 3,
      "note": 57,
      "start": 7.9301,
      "duration": 0.2631,
      "velocity": 127,
      "chip": "ym2612"
    },
    {
      "channel": 0,
      "note": 45,
      "start": 8.0632,
      "duration": 0.0799,
      "velocity": 111,
      "chip": "ym2612"
    },
    {
      "channel": 0,
      "note": 57,
      "start": 8.1996,
      "duration": 0.073,
      "velocity": 111,
      "chip": "ym2612"
    },
    {
      "channel": 3,
      "note": 60,
      "start": 8.202,
      "duration": 0.0708,
      "velocity": 127,
      "chip": "ym2612"
    },
    {
      "channel": 0,
      "note": 56,
      "start": 8.276,
      "duration": 0.0967,
      "velocity": 111,
      "chip": "ym2612"
    },
    {
      "channel": 3,
      "note": 64,
      "start": 8.2792,
      "duration": 0.4711,
      "velocity": 127,
      "chip": "ym2612"
    },
    {
      "channel": 0,
      "note": 52,
      "start": 8.5293,
      "duration": 0.2208,
      "velocity": 111,
      "chip": "ym2612"
    },
    {
      "channel": 2,
      "note": 64,
      "start": 8.5321,
      "duration": 0.2186,
      "velocity": 122,
      "chip": "ym2612"
    },
    {
      "channel": 1,
      "note": 56,
      "start": 8.5347,
      "duration": 0.2155,
      "velocity": 127,
      "chip": "ym2612"
    },
    {
      "channel": 4,
      "note": 64,
      "start": 8.537,
      "duration": 0.2135,
      "velocity": 127,
      "chip": "ym2612"
    },
    {
      "channel": 0,
      "note": 53,
      "start": 8.7571,
      "duration": 0.1368,
      "velocity": 111,
      "chip": "ym2612"
    },
    {
      "channel": 2,
      "note": 65,
      "start": 8.7596,
      "duration": 0.0679,
      "velocity": 122,
      "chip": "ym2612"
    },
    {
      "channel": 1,
      "note": 57,
      "start": 8.7622,
      "duration": 0.065,
      "velocity": 127,
      "chip": "ym2612"
    },
    {
      "channel": 4,
      "note": 65,
      "start": 8.765,
      "duration": 0.0623,
      "velocity": 127,
      "chip": "ym2612"
    },
    {
      "channel": 2,
      "note": 59,
      "start": 8.9839,
      "duration": 0.0729,
      "velocity": 122,
      "chip": "ym2612"
    },
    {
      "channel": 1,
      "note": 64,
      "start": 8.9863,
      "duration": 0.0701,
      "velocity": 127,
      "chip": "ym2612"
    },
    {
      "channel": 4,
      "note": 59,
      "start": 8.9885,
      "duration": 0.0682,
      "velocity": 127,
      "chip": "ym2612"
    },
    {
      "channel": 2,
      "note": 60,
      "start": 9.063,
      "duration": 0.0707,
      "velocity": 122,
      "chip": "ym2612"
    },
    {
      "channel": 1,
      "note": 64,
      "start": 9.0653,
      "duration": 0.068,
      "velocity": 127,
      "chip": "ym2612"
    },
    {
      "channel": 4,
      "note": 60,
      "start": 9.0676,
      "duration": 0.0659,
      "velocity": 127,
      "chip": "ym2612"
    },
    {
      "channel": 0,
      "note": 45,
      "start": 9.2899,
      "duration": 0.2206,
      "velocity": 111,
      "chip": "ym2612"
    },
    {
      "channel": 2,
      "note": 57,
      "start": 9.2925,
      "duration": 0.1185,
      "velocity": 122,
      "chip": "ym2612"
    },
    {
      "channel": 1,
      "note": 64,
      "start": 9.295,
      "duration": 0.1156,
      "velocity": 127,
      "chip": "ym2612"
    },
    {
      "channel": 4,
      "note": 57,
      "start": 9.2978,
      "duration": 0.113,
      "velocity": 127,
      "chip": "ym2612"
    },
    {
      "channel": 3,
      "note": 57,
      "start": 9.5146,
      "duration": 0.2232,
      "velocity": 127,
      "chip": "ym2612"
    },
    {
      "channel": 0,
      "note": 45,
      "start": 9.634,
      "duration": 0.0538,
      "velocity": 111,
      "chip": "ym2612"
    },
    {
      "channel": 0,
      "note": 57,
      "start": 9.7444,
      "duration": 0.0723,
      "velocity": 111,
      "chip": "ym2612"
    },
    {
      "channel": 3,
      "note": 60,
      "start": 9.7468,
      "duration": 0.0701,
      "velocity": 127,
      "chip": "ym2612"
    },
    {
      "channel": 0,
      "note": 56,
      "start": 9.82,
      "duration": 0.08,
      "velocity": 111,
      "chip": "ym2612"
    },
    {
      "channel": 3,
      "note": 63,
      "start": 9.8234,
      "duration": 0.4708,
      "velocity": 127,
      "chip": "ym2612"
    },
    {
      "channel": 0,
      "note": 51,
      "start": 10.0733,
      "duration": 0.2207,
      "velocity": 111,
      "chip": "ym2612"
    },
    {
      "channel": 0,
      "note": 52,
      "start": 10.3008,
      "duration": 0.1204,
      "velocity": 111,
      "chip": "ym2612"
    },
    {
      "channel": 2,
      "note": 59,
      "start": 10.3033,
      "duration": 0.2184,
      "velocity": 122,
      "chip": "ym2612"
    },
    {
      "channel": 1,
      "note": 64,
      "start": 10.3059,
      "duration": 0.2155,
      "velocity": 127,
      "chip": "ym2612"
    },
    {
      "channel": 4,
      "note": 59,
      "start": 10.3082,
      "duration": 0.2133,
      "velocity": 127,
      "chip": "ym2612"
    },
    {
      "channel": 2,
      "note": 60,
      "start": 10.5278,
      "duration": 0.027,
      "velocity": 122,
      "chip": "ym2612"
    },
    {
      "channel": 1,
      "note": 64,
      "start": 10.5302,
      "duration": 0.0244,
      "velocity": 127,
      "chip": "ym2612"
    },
    {
      "channel": 4,
      "note": 60,
      "start": 10.5325,
      "duration": 0.0223,
      "velocity": 127,
      "chip": "ym2612"
    },
    {
      "channel": 2,
      "note": 57,
      "start": 10.6071,
      "duration": 0.2199,
      "velocity": 122,
      "chip": "ym2612"
    },
    {
      "channel": 1,
      "note": 60,
      "start": 10.6095,
      "duration": 0.2171,
      "velocity": 127,
      "chip": "ym2612"
    },
    {
      "channel": 4,
      "note": 57,
      "start": 10.6121,
      "duration": 0.2147,
      "velocity": 127,
      "chip": "ym2612"
    },
    {
      "channel": 0,
      "note": 51,
      "start": 10.834,
      "duration": 1.0659,
      "velocity": 111,
      "chip": "ym2612"
    },
    {
      "channel": 3,
      "note": 51,
      "start": 10.8375,
      "duration": 0.6834,
      "velocity": 101,
      "chip": "ym2612"
    },
    {
      "channel": 1,
      "note": 58,
      "start": 11.0576,
      "duration": 0.2466,
      "velocity": 92,
      "chip": "ym2612"
    },
    {
      "channel": 1,
      "note": 63,
      "start": 11.3078,
      "duration": 0.1296,
      "velocity": 92,
      "chip": "ym2612"
    },
    {
      "channel": 1,
      "note": 63,
      "start": 11.5773,
      "duration": 0.1893,
      "velocity": 92,
      "chip": "ym2612"
    },
    {
      "channel": 4,
      "note": 69,
      "start": 11.5798,
      "duration": 0.1702,
      "velocity": 92,
      "chip": "ym2612"
    },
    {
      "channel": 3,
      "note": 61,
      "start": 11.5826,
      "duration": 0.0267,
      "velocity": 101,
      "chip": "ym2612"
    },
    {
      "channel": 3,
      "note": 63,
      "start": 11.6136,
      "duration": 0.6152,
      "velocity": 101,
      "chip": "ym2612"
    },
    {
      "channel": 1,
      "note": 67,
      "start": 11.9064,
      "duration": 0.4828,
      "velocity": 92,
      "chip": "ym2612"
    },
    {
      "channel": 4,
      "note": 63,
      "start": 11.9089,
      "duration": 0.4971,
      "velocity": 92,
      "chip": "ym2612"
    },
    {
      "channel": 3,
      "note": 58,
      "start": 12.236,
      "duration": 0.22,
      "velocity": 101,
      "chip": "ym2612"
    },
    {
      "channel": 1,
      "note": 51,
      "start": 12.463,
      "duration": 1.0337,
      "velocity": 92,
      "chip": "ym2612"
    },
    {
      "channel": 3,
      "note": 51,
      "start": 12.4657,
      "duration": 0.6348,
      "velocity": 101,
      "chip": "ym2612"
    },
    {
      "channel": 4,
      "note": 58,
      "start": 12.6871,
      "duration": 0.743,
      "velocity": 92,
      "chip": "ym2612"
    },
    {
      "channel": 2,
      "note": 63,
      "start": 12.9373,
      "duration": 0.0969,
      "velocity": 92,
      "chip": "ym2612"
    },
    {
      "channel": 2,
      "note": 63,
      "start": 13.1906,
      "duration": 0.1731,
      "velocity": 92,
      "chip": "ym2612"
    },
    {
      "channel": 0,
      "note": 69,
      "start": 13.193,
      "duration": 0.1537,
      "velocity": 92,
      "chip": "ym2612"
    },
    {
      "channel": 3,
      "note": 61,
      "start": 13.1958,
      "duration": 0.0316,
      "velocity": 101,
      "chip": "ym2612"
    },
    {
      "channel": 3,
      "note": 63,
      "start": 13.2322,
      "duration": 0.2813,
      "velocity": 101,
      "chip": "ym2612"
    },
    {
      "channel": 0,
      "note": 63,
      "start": 13.5203,
      "duration": 0.1567,
      "velocity": 92,
      "chip": "ym2612"
    },
    {
      "channel": 1,
      "note": 67,
      "start": 13.523,
      "duration": 0.145,
      "velocity": 92,
      "chip": "ym2612"
    },
    {
      "channel": 3,
      "note": 61,
      "start": 13.5261,
      "duration": 0.0311,
      "velocity": 101,
      "chip": "ym2612"
    },
    {
      "channel": 3,
      "note": 63,
      "start": 13.5641,
      "duration": 0.1041,
      "velocity": 101,
      "chip": "ym2612"
    },
    {
      "channel": 3,
      "note": 53,
      "start": 13.6758,
      "duration": 0.0331,
      "velocity": 101,
      "chip": "ym2612"
    },
    {
      "channel": 3,
      "note": 54,
      "start": 13.7153,
      "duration": 0.0288,
      "velocity": 101,
      "chip": "ym2612"
    },
    {
      "channel": 2,
      "note": 45,
      "start": 13.7512,
      "duration": 0.2168,
      "velocity": 121,
      "chip": "ym2612"
    },
    {
      "channel": 3,
      "note": 55,
      "start": 13.7535,
      "duration": 0.0977,
      "velocity": 101,
      "chip": "ym2612"
    },
    {
      "channel": 4,
      "note": 67,
      "start": 13.7566,
      "duration": 0.0447,
      "velocity": 115,
      "chip": "ym2612"
    },
    {
      "channel": 3,
      "note": 57,
      "start": 13.8551,
      "duration": 0.0793,
      "velocity": 101,
      "chip": "ym2612"
    },
    {
      "channel": 4,
      "note": 69,
      "start": 13.858,
      "duration": 0.1099,
      "velocity": 115,
      "chip": "ym2612"
    },
    {
      "channel": 3,
      "note": 57,
      "start": 13.975,
      "duration": 0.0536,
      "velocity": 101,
      "chip": "ym2612"
    },
    {
      "channel": 3,
      "note": 57,
      "start": 14.0824,
      "duration": 0.0629,
      "velocity": 101,
      "chip": "ym2612"
    },
    {
      "channel": 4,
      "note": 69,
      "start": 14.0852,
      "duration": 0.0267,
      "velocity": 115,
      "chip": "ym2612"
    },
    {
      "channel": 2,
      "note": 45,
      "start": 14.2022,
      "duration": 0.0802,
      "velocity": 121,
      "chip": "ym2612"
    },
    {
      "channel": 3,
      "note": 57,
      "start": 14.2046,
      "duration": 0.0838,
      "velocity": 101,
      "chip": "ym2612"
    },
    {
      "channel": 4,
      "note": 69,
      "start": 14.2069,
      "duration": 0.0441,
      "velocity": 115,
      "chip": "ym2612"
    },
    {
      "channel": 4,
      "note": 69,
      "start": 14.3018,
      "duration": 0.0335,
      "velocity": 115,
      "chip": "ym2612"
    },
    {
      "channel": 4,
      "note": 69,
      "start": 14.4093,
      "duration": 0.0458,
      "velocity": 115,
      "chip": "ym2612"
    },
    {
      "channel": 2,
      "note": 45,
      "start": 14.4589,
      "duration": 0.0803,
      "velocity": 121,
      "chip": "ym2612"
    },
    {
      "channel": 4,
      "note": 69,
      "start": 14.5066,
      "duration": 0.0203,
      "velocity": 115,
      "chip": "ym2612"
    },
    {
      "channel": 4,
      "note": 69,
      "start": 14.5602,
      "duration": 0.0848,
      "velocity": 115,
      "chip": "ym2612"
    },
    {
      "channel": 2,
      "note": 45,
      "start": 14.7857,
      "duration": 0.082,
      "velocity": 121,
      "chip": "ym2612"
    },
    {
      "channel": 4,
      "note": 69,
      "start": 14.7881,
      "duration": 0.0144,
      "velocity": 115,
      "chip": "ym2612"
    },
    {
      "channel": 4,
      "note": 69,
      "start": 14.8325,
      "duration": 0.035,
      "velocity": 115,
      "chip": "ym2612"
    },
    {
      "channel": 3,
      "note": 55,
      "start": 14.8874,
      "duration": 0.1385,
      "velocity": 101,
      "chip": "ym2612"
    },
    {
      "channel": 4,
      "note": 69,
      "start": 14.9785,
      "duration": 0.0217,
      "velocity": 115,
      "chip": "ym2612"
    },
    {
      "channel": 2,
      "note": 45,
      "start": 15.0339,
      "duration": 0.2176,
      "velocity": 121,
      "chip": "ym2612"
    },
    {
      "channel": 3,
      "note": 55,
      "start": 15.0365,
      "duration": 0.0815,
      "velocity": 101,
      "chip": "ym2612"
    },
    {
      "channel": 4,
      "note": 69,
      "start": 15.0393,
      "duration": 0.0621,
      "velocity": 115,
      "chip": "ym2612"
    },
    {
      "channel": 3,
      "note": 57,
      "start": 15.1221,
      "duration": 0.0793,
      "velocity": 101,
      "chip": "ym2612"
    },
    {
      "channel": 4,
      "note": 69,
      "start": 15.2586,
      "duration": 0.037,
      "velocity": 115,
      "chip": "ym2612"
    },
    {
      "channel": 3,
      "note": 57,
      "start": 15.3499,
      "duration": 0.0623,
      "velocity": 101,
      "chip": "ym2612"
    },
    {
      "channel": 4,
      "note": 69,
      "start": 15.3528,
      "duration": 0.1261,
      "velocity": 115,
      "chip": "ym2612"
    },
    {
      "channel": 2,
      "note": 45,
      "start": 15.4864,
      "duration": 0.0763,
      "velocity": 121,
      "chip": "ym2612"
    },
    {
      "channel": 3,
      "note": 57,
      "start": 15.489,
      "duration": 0.0852,
      "velocity": 101,
      "chip": "ym2612"
    },
    {
      "channel": 4,
      "note": 69,
      "start": 15.5331,
      "duration": 0.0221,
      "velocity": 115,
      "chip": "ym2612"
    },
    {
      "channel": 4,
      "note": 69,
      "start": 15.5881,
      "duration": 0.067,
      "velocity": 115,
      "chip": "ym2612"
    },
    {
      "channel": 2,
      "note": 45,
      "start": 15.7305,
      "duration": 0.0883,
      "velocity": 121,
      "chip": "ym2612"
    },
    {
      "channel": 4,
      "note": 69,
      "start": 15.7331,
      "duration": 0.0265,
      "velocity": 115,
      "chip": "ym2612"
    },
    {
      "channel": 4,
      "note": 69,
      "start": 15.7852,
      "duration": 0.0271,
      "velocity": 115,
      "chip": "ym2612"
    },
    {
      "channel": 3,
      "note": 60,
      "start": 15.8325,
      "duration": 0.2926,
      "velocity": 101,
      "chip": "ym2612"
    },
    {
      "channel": 4,
      "note": 69,
      "start": 15.9388,
      "duration": 0.0699,
      "velocity": 115,
      "chip": "ym2612"
    },
    {
      "channel": 2,
      "note": 45,
      "start": 16.0329,
      "duration": 0.0864,
      "velocity": 121,
      "chip": "ym2612"
    },
    {
      "channel": 4,
      "note": 72,
      "start": 16.0353,
      "duration": 0.0539,
      "velocity": 115,
      "chip": "ym2612"
    },
    {
      "channel": 3,
      "note": 55,
      "start": 16.1316,
      "duration": 0.0952,
      "velocity": 101,
      "chip": "ym2612"
    },
    {
      "channel": 4,
      "note": 72,
      "start": 16.134,
      "duration": 0.0322,
      "velocity": 115,
      "chip": "ym2612"
    },
    {
      "channel": 4,
      "note": 69,
      "start": 16.1872,
      "duration": 0.0396,
      "velocity": 115,
      "chip": "ym2612"
    },
    {
      "channel": 2,
      "note": 45,
      "start": 16.2341,
      "duration": 0.2165,
      "velocity": 121,
      "chip": "ym2612"
    },
    {
      "channel": 3,
      "note": 55,
      "start": 16.2366,
      "duration": 0.0972,
      "velocity": 101,
      "chip": "ym2612"
    },
    {
      "channel": 3,
      "note": 57,
      "start": 16.3377,
      "duration": 0.0794,
      "velocity": 101,
      "chip": "ym2612"
    },
    {
      "channel": 4,
      "note": 69,
      "start": 16.3409,
      "duration": 0.093,
      "velocity": 115,
      "chip": "ym2612"
    },
    {
      "channel": 3,
      "note": 57,
      "start": 16.4575,
      "duration": 0.0534,
      "velocity": 101,
      "chip": "ym2612"
    },
    {
      "channel": 4,
      "note": 72,
      "start": 16.46,
      "duration": 0.1343,
      "velocity": 115,
      "chip": "ym2612"
    },
    {
      "channel": 3,
      "note": 57,
      "start": 16.5648,
      "duration": 0.0627,
      "velocity": 101,
      "chip": "ym2612"
    },
    {
      "channel": 2,
      "note": 45,
      "start": 16.6842,
      "duration": 0.0808,
      "velocity": 121,
      "chip": "ym2612"
    },
    {
      "channel": 3,
      "note": 57,
      "start": 16.6866,
      "duration": 0.0846,
      "velocity": 101,
      "chip": "ym2612"
    },
    {
      "channel": 4,
      "note": 72,
      "start": 16.689,
      "duration": 0.019,
      "velocity": 115,
      "chip": "ym2612"
    },
    {
      "channel": 4,
      "note": 69,
      "start": 16.7359,
      "duration": 0.064,
      "velocity": 115,
      "chip": "ym2612"
    },
    {
      "channel": 4,
      "note": 69,
      "start": 16.8902,
      "duration": 0.0338,
      "velocity": 115,
      "chip": "ym2612"
    },
    {
      "channel": 2,
      "note": 45,
      "start": 16.9336,
      "duration": 0.0871,
      "velocity": 121,
      "chip": "ym2612"
    },
    {
      "channel": 4,
      "note": 72,
      "start": 16.9376,
      "duration": 0.0441,
      "velocity": 115,
      "chip": "ym2612"
    },
    {
      "channel": 4,
      "note": 69,
      "start": 17.0413,
      "duration": 0.0671,
      "velocity": 115,
      "chip": "ym2612"
    },
    {
      "channel": 4,
      "note": 69,
      "start": 17.129,
      "duration": 0.1407,
      "velocity": 115,
      "chip": "ym2612"
    },
    {
      "channel": 2,
      "note": 45,
      "start": 17.2658,
      "duration": 0.0789,
      "velocity": 121,
      "chip": "ym2612"
    },
    {
      "channel": 4,
      "note": 69,
      "start": 17.3105,
      "duration": 0.0465,
      "velocity": 115,
      "chip": "ym2612"
    },
    {
      "channel": 3,
      "note": 55,
      "start": 17.3647,
      "duration": 0.1388,
      "velocity": 101,
      "chip": "ym2612"
    },
    {
      "channel": 4,
      "note": 67,
      "start": 17.3671,
      "duration": 0.1038,
      "velocity": 115,
      "chip": "ym2612"
    },
    {
      "channel": 2,
      "note": 45,
      "start": 17.5104,
      "duration": 0.2185,
      "velocity": 121,
      "chip": "ym2612"
    },
    {
      "channel": 3,
      "note": 55,
      "start": 17.5129,
      "duration": 0.0826,
      "velocity": 101,
      "chip": "ym2612"
    },
    {
      "channel": 4,
      "note": 67,
      "start": 17.5155,
      "duration": 0.0134,
      "velocity": 115,
      "chip": "ym2612"
    },
    {
      "channel": 3,
      "note": 57,
      "start": 17.5995,
      "duration": 0.0792,
      "velocity": 101,
      "chip": "ym2612"
    },
    {
      "channel": 4,
      "note": 67,
      "start": 17.6028,
      "duration": 0.126,
      "velocity": 115,
      "chip": "ym2612"
    },
    {
      "channel": 3,
      "note": 57,
      "start": 17.8279,
      "duration": 0.0623,
      "velocity": 101,
      "chip": "ym2612"
    },
    {
      "channel": 4,
      "note": 67,
      "start": 17.8307,
      "duration": 0.0595,
      "velocity": 115,
      "chip": "ym2612"
    },
    {
      "channel": 2,
      "note": 45,
      "start": 17.9635,
      "duration": 0.074,
      "velocity": 121,
      "chip": "ym2612"
    },
    {
      "channel": 3,
      "note": 57,
      "start": 17.9661,
      "duration": 0.0827,
      "velocity": 101,
      "chip": "ym2612"
    },
    {
      "channel": 4,
      "note": 67,
      "start": 17.9685,
      "duration": 0.0559,
      "velocity": 115,
      "chip": "ym2612"
    },
    {
      "channel": 4,
      "note": 67,
      "start": 18.0621,
      "duration": 0.0331,
      "velocity": 115,
      "chip": "ym2612"
    },
    {
      "channel": 4,
      "note": 67,
      "start": 18.1535,
      "duration": 0.0596,
      "velocity": 115,
      "chip": "ym2612"
    },
    {
      "channel": 2,
      "note": 45,
      "start": 18.2039,
      "duration": 0.088,
      "velocity": 121,
      "chip": "ym2612"
    },
    {
      "channel": 4,
      "note": 67,
      "start": 18.2517,
      "duration": 0.0204,
      "velocity": 115,
      "chip": "ym2612"
    },
    {
      "channel": 3,
      "note": 60,
      "start": 18.3057,
      "duration": 0.2992,
      "velocity": 101,
      "chip": "ym2612"
    },
    {
      "channel": 4,
      "note": 67,
      "start": 18.3082,
      "duration": 0.1141,
      "velocity": 115,
      "chip": "ym2612"
    },
    {
      "channel": 2,
      "note": 45,
      "start": 18.5091,
      "duration": 0.0893,
      "velocity": 121,
      "chip": "ym2612"
    },
    {
      "channel": 4,
      "note": 67,
      "start": 18.5116,
      "duration": 0.0218,
      "velocity": 115,
      "chip": "ym2612"
    },
    {
      "channel": 4,
      "note": 67,
      "start": 18.5657,
      "duration": 0.0538,
      "velocity": 115,
      "chip": "ym2612"
    },
    {
      "channel": 0,
      "note": 57,
      "start": 18.6119,
      "duration": 0.0171,
      "velocity": 122,
      "chip": "ym2612"
    },
    {
      "channel": 1,
      "note": 57,
      "start": 18.6146,
      "duration": 0.0049,
      "velocity": 127,
      "chip": "ym2612"
    },
    {
      "channel": 3,
      "note": 55,
      "start": 18.6173,
      "duration": 0.0919,
      "velocity": 101,
      "chip": "ym2612"
    },
    {
      "channel": 0,
      "note": 57,
      "start": 18.6672,
      "duration": 0.0111,
      "velocity": 122,
      "chip": "ym2612"
    },
    {
      "channel": 1,
      "note": 57,
      "start": 18.6697,
      "duration": 0.0038,
      "velocity": 127,
      "chip": "ym2612"
    },
    {
      "channel": 4,
      "note": 67,
      "start": 18.6724,
      "duration": 0.0371,
      "velocity": 115,
      "chip": "ym2612"
    },
    {
      "channel": 0,
      "note": 55,
      "start": 18.7161,
      "duration": 0.1018,
      "velocity": 122,
      "chip": "ym2612"
    },
    {
      "channel": 1,
      "note": 62,
      "start": 18.7186,
      "duration": 0.0994,
      "velocity": 127,
      "chip": "ym2612"
    },
    {
      "channel": 2,
      "note": 55,
      "start": 18.721,
      "duration": 0.0972,
      "velocity": 127,
      "chip": "ym2612"
    },
    {
      "channel": 3,
      "note": 57,
      "start": 18.7254,
      "duration": 1.1373,
      "velocity": 127,
      "chip": "ym2612"
    },
    {
      "channel": 4,
      "note": 55,
      "start": 18.7279,
      "duration": 0.0568,
      "velocity": 101,
      "chip": "ym2612"
    },
    {
      "channel": 0,
      "note": 57,
      "start": 18.821,
      "duration": 0.1136,
      "velocity": 122,
      "chip": "ym2612"
    },
    {
      "channel": 1,
      "note": 64,
      "start": 18.8238,
      "duration": 0.1109,
      "velocity": 127,
      "chip": "ym2612"
    },
    {
      "channel": 2,
      "note": 57,
      "start": 18.8265,
      "duration": 0.1085,
      "velocity": 127,
      "chip": "ym2612"
    },
    {
      "channel": 4,
      "note": 57,
      "start": 18.8296,
      "duration": 0.0218,
      "velocity": 101,
      "chip": "ym2612"
    },
    {
      "channel": 0,
      "note": 57,
      "start": 18.9408,
      "duration": 0.1043,
      "velocity": 122,
      "chip": "ym2612"
    },
    {
      "channel": 1,
      "note": 64,
      "start": 18.9432,
      "duration": 0.102,
      "velocity": 127,
      "chip": "ym2612"
    },
    {
      "channel": 2,
      "note": 57,
      "start": 18.9457,
      "duration": 0.0998,
      "velocity": 127,
      "chip": "ym2612"
    },
    {
      "channel": 4,
      "note": 57,
      "start": 18.9488,
      "duration": 0.0465,
      "velocity": 101,
      "chip": "ym2612"
    },
    {
      "channel": 0,
      "note": 57,
      "start": 19.0483,
      "duration": 0.1136,
      "velocity": 122,
      "chip": "ym2612"
    },
    {
      "channel": 1,
      "note": 64,
      "start": 19.051,
      "duration": 0.111,
      "velocity": 127,
      "chip": "ym2612"
    },
    {
      "channel": 2,
      "note": 57,
      "start": 19.0537,
      "duration": 0.1085,
      "velocity": 127,
      "chip": "ym2612"
    },
    {
      "channel": 4,
      "note": 57,
      "start": 19.0568,
      "duration": 0.0552,
      "velocity": 101,
      "chip": "ym2612"
    },
    {
      "channel": 0,
      "note": 57,
      "start": 19.1692,
      "duration": 0.0951,
      "velocity": 122,
      "chip": "ym2612"
    },
    {
      "channel": 1,
      "note": 64,
      "start": 19.1717,
      "duration": 0.0927,
      "velocity": 127,
      "chip": "ym2612"
    },
    {
      "channel": 2,
      "note": 57,
      "start": 19.1742,
      "duration": 0.0905,
      "velocity": 127,
      "chip": "ym2612"
    },
    {
      "channel": 4,
      "note": 57,
      "start": 19.1771,
      "duration": 0.0566,
      "velocity": 101,
      "chip": "ym2612"
    },
    {
      "channel": 0,
      "note": 57,
      "start": 19.2715,
      "duration": 0.0103,
      "velocity": 122,
      "chip": "ym2612"
    },
    {
      "channel": 1,
      "note": 57,
      "start": 19.274,
      "duration": 0.0079,
      "velocity": 127,
      "chip": "ym2612"
    },
    {
      "channel": 4,
      "note": 57,
      "start": 19.2769,
      "duration": 0.0791,
      "velocity": 101,
      "chip": "ym2612"
    },
    {
      "channel": 0,
      "note": 57,
      "start": 19.3796,
      "duration": 0.0064,
      "velocity": 122,
      "chip": "ym2612"
    },
    {
      "channel": 1,
      "note": 57,
      "start": 19.382,
      "duration": 0.0041,
      "velocity": 127,
      "chip": "ym2612"
    },
    {
      "channel": 4,
      "note": 60,
      "start": 19.3848,
      "duration": 0.0843,
      "velocity": 101,
      "chip": "ym2612"
    },
    {
      "channel": 0,
      "note": 57,
      "start": 19.427,
      "duration": 0.0111,
      "velocity": 122,
      "chip": "ym2612"
    },
    {
      "channel": 1,
      "note": 57,
      "start": 19.4295,
      "duration": 0.0087,
      "velocity": 127,
      "chip": "ym2612"
    },
    {
      "channel": 0,
      "note": 57,
      "start": 19.4814,
      "duration": 0.0062,
      "velocity": 122,
      "chip": "ym2612"
    },
    {
      "channel": 1,
      "note": 57,
      "start": 19.484,
      "duration": 0.0036,
      "velocity": 127,
      "chip": "ym2612"
    },
    {
      "channel": 4,
      "note": 50,
      "start": 19.4865,
      "duration": 0.1291,
      "velocity": 101,
      "chip": "ym2612"
    },
    {
      "channel": 0,
      "note": 58,
      "start": 19.5302,
      "duration": 0.102,
      "velocity": 122,
      "chip": "ym2612"
    },
    {
      "channel": 1,
      "note": 67,
      "start": 19.5327,
      "duration": 0.3299,
      "velocity": 127,
      "chip": "ym2612"
    },
    {
      "channel": 2,
      "note": 60,
      "start": 19.5351,
      "duration": 0.3277,
      "velocity": 127,
      "chip": "ym2612"
    },
    {
      "channel": 0,
      "note": 60,
      "start": 19.6354,
      "duration": 0.2271,
      "velocity": 122,
      "chip": "ym2612"
    },
    {
      "channel": 4,
      "note": 51,
      "start": 19.6388,
      "duration": 0.1728,
      "velocity": 101,
      "chip": "ym2612"
    },
    {
      "channel": 4,
      "note": 52,
      "start": 19.8152,
      "duration": 0.0476,
      "velocity": 101,
      "chip": "ym2612"
    },
    {
      "channel": 0,
      "note": 55,
      "start": 19.869,
      "duration": 0.1401,
      "velocity": 122,
      "chip": "ym2612"
    },
    {
      "channel": 1,
      "note": 62,
      "start": 19.8715,
      "duration": 0.1378,
      "velocity": 127,
      "chip": "ym2612"
    },
    {
      "channel": 2,
      "note": 55,
      "start": 19.874,
      "duration": 0.1356,
      "velocity": 127,
      "chip": "ym2612"
    },
    {
      "channel": 4,
      "note": 53,
      "start": 19.8765,
      "duration": 0.0769,
      "velocity": 101,
      "chip": "ym2612"
    },
    {
      "channel": 4,
      "note": 54,
      "start": 19.9612,
      "duration": 0.0482,
      "velocity": 101,
      "chip": "ym2612"
    },
    {
      "channel": 0,
      "note": 55,
      "start": 20.0168,
      "duration": 0.0845,
      "velocity": 122,
      "chip": "ym2612"
    },
    {
      "channel": 1,
      "note": 62,
      "start": 20.0195,
      "duration": 0.082,
      "velocity": 127,
      "chip": "ym2612"
    },
    {
      "channel": 2,
      "note": 55,
      "start": 20.022,
      "duration": 0.0798,
      "velocity": 127,
      "chip": "ym2612"
    },
    {
      "channel": 4,
      "note": 55,
      "start": 20.0246,
      "duration": 0.0771,
      "velocity": 101,
      "chip": "ym2612"
    },
    {
      "channel": 0,
      "note": 57,
      "start": 20.1046,
      "duration": 0.13,
      "velocity": 122,
      "chip": "ym2612"
    },
    {
      "channel": 1,
      "note": 57,
      "start": 20.1077,
      "duration": 0.1271,
      "velocity": 127,
      "chip": "ym2612"
    },
    {
      "channel": 2,
      "note": 64,
      "start": 20.1104,
      "duration": 0.1246,
      "velocity": 127,
      "chip": "ym2612"
    },
    {
      "channel": 4,
      "note": 57,
      "start": 20.1135,
      "duration": 0.0546,
      "velocity": 101,
      "chip": "ym2612"
    },
    {
      "channel": 0,
      "note": 57,
      "start": 20.2408,
      "duration": 0.0876,
      "velocity": 122,
      "chip": "ym2612"
    },
    {
      "channel": 1,
      "note": 64,
      "start": 20.2433,
      "duration": 0.0853,
      "velocity": 127,
      "chip": "ym2612"
    },
    {
      "channel": 2,
      "note": 57,
      "start": 20.2458,
      "duration": 0.083,
      "velocity": 127,
      "chip": "ym2612"
    },
    {
      "channel": 4,
      "note": 57,
      "start": 20.2484,
      "duration": 0.0135,
      "velocity": 101,
      "chip": "ym2612"
    },
    {
      "channel": 0,
      "note": 57,
      "start": 20.3316,
      "duration": 0.1301,
      "velocity": 122,
      "chip": "ym2612"
    },
    {
      "channel": 1,
      "note": 64,
      "start": 20.3343,
      "duration": 0.1276,
      "velocity": 127,
      "chip": "ym2612"
    },
    {
      "channel": 2,
      "note": 57,
      "start": 20.337,
      "duration": 0.1251,
      "velocity": 127,
      "chip": "ym2612"
    },
    {
      "channel": 4,
      "note": 57,
      "start": 20.34,
      "duration": 0.0553,
      "velocity": 101,
      "chip": "ym2612"
    },
    {
      "channel": 0,
      "note": 57,
      "start": 20.4689,
      "duration": 0.095,
      "velocity": 122,
      "chip": "ym2612"
    },
    {
      "channel": 1,
      "note": 57,
      "start": 20.4714,
      "duration": 0.0926,
      "velocity": 127,
      "chip": "ym2612"
    },
    {
      "channel": 2,
      "note": 64,
      "start": 20.4741,
      "duration": 0.09,
      "velocity": 127,
      "chip": "ym2612"
    },
    {
      "channel": 4,
      "note": 57,
      "start": 20.477,
      "duration": 0.0619,
      "velocity": 101,
      "chip": "ym2612"
    },
    {
      "channel": 0,
      "note": 57,
      "start": 20.5705,
      "duration": 0.0063,
      "velocity": 122,
      "chip": "ym2612"
    },
    {
      "channel": 1,
      "note": 57,
      "start": 20.5731,
      "duration": 0.0038,
      "velocity": 127,
      "chip": "ym2612"
    },
    {
      "channel": 4,
      "note": 57,
      "start": 20.5758,
      "duration": 0.0796,
      "velocity": 101,
      "chip": "ym2612"
    },
    {
      "channel": 0,
      "note": 57,
      "start": 20.6616,
      "duration": 0.0127,
      "velocity": 122,
      "chip": "ym2612"
    },
    {
      "channel": 1,
      "note": 57,
      "start": 20.6638,
      "duration": 0.0105,
      "velocity": 127,
      "chip": "ym2612"
    },
    {
      "channel": 4,
      "note": 60,
      "start": 20.6671,
      "duration": 0.0895,
      "velocity": 101,
      "chip": "ym2612"
    },
    {
      "channel": 0,
      "note": 57,
      "start": 20.7139,
      "duration": 0.0058,
      "velocity": 122,
      "chip": "ym2612"
    },
    {
      "channel": 1,
      "note": 57,
      "start": 20.7161,
      "duration": 0.0037,
      "velocity": 127,
      "chip": "ym2612"
    },
    {
      "channel": 0,
      "note": 57,
      "start": 20.7627,
      "duration": 0.011,
      "velocity": 122,
      "chip": "ym2612"
    },
    {
      "channel": 1,
      "note": 57,
      "start": 20.7651,
      "duration": 0.0087,
      "velocity": 127,
      "chip": "ym2612"
    },
    {
      "channel": 4,
      "note": 50,
      "start": 20.7677,
      "duration": 0.1345,
      "velocity": 101,
      "chip": "ym2612"
    },
    {
      "channel": 0,
      "note": 58,
      "start": 20.8175,
      "duration": 0.0845,
      "velocity": 122,
      "chip": "ym2612"
    },
    {
      "channel": 1,
      "note": 67,
      "start": 20.8198,
      "duration": 0.2944,
      "velocity": 127,
      "chip": "ym2612"
    },
    {
      "channel": 2,
      "note": 60,
      "start": 20.8223,
      "duration": 0.2921,
      "velocity": 127,
      "chip": "ym2612"
    },
    {
      "channel": 0,
      "note": 60,
      "start": 20.909,
      "duration": 0.2051,
      "velocity": 122,
      "chip": "ym2612"
    },
    {
      "channel": 4,
      "note": 51,
      "start": 20.9118,
      "duration": 0.1561,
      "velocity": 101,
      "chip": "ym2612"
    },
    {
      "channel": 4,
      "note": 52,
      "start": 21.0754,
      "duration": 0.0389,
      "velocity": 101,
      "chip": "ym2612"
    },
    {
      "channel": 0,
      "note": 55,
      "start": 21.1205,
      "duration": 0.1469,
      "velocity": 122,
      "chip": "ym2612"
    },
    {
      "channel": 1,
      "note": 62,
      "start": 21.123,
      "duration": 0.1444,
      "velocity": 127,
      "chip": "ym2612"
    },
    {
      "channel": 2,
      "note": 55,
      "start": 21.1257,
      "duration": 0.1419,
      "velocity": 127,
      "chip": "ym2612"
    },
    {
      "channel": 4,
      "note": 53,
      "start": 21.1283,
      "duration": 0.0932,
      "velocity": 101,
      "chip": "ym2612"
    },
    {
      "channel": 4,
      "note": 56,
      "start": 21.2283,
      "duration": 0.0393,
      "velocity": 101,
      "chip": "ym2612"
    },
    {
      "channel": 0,
      "note": 55,
      "start": 21.2738,
      "duration": 0.1017,
      "velocity": 122,
      "chip": "ym2612"
    },
    {
      "channel": 1,
      "note": 62,
      "start": 21.2764,
      "duration": 0.0993,
      "velocity": 127,
      "chip": "ym2612"
    },
    {
      "channel": 2,
      "note": 55,
      "start": 21.2789,
      "duration": 0.097,
      "velocity": 127,
      "chip": "ym2612"
    },
    {
      "channel": 3,
      "note": 57,
      "start": 21.2816,
      "duration": 1.1288,
      "velocity": 127,
      "chip": "ym2612"
    },
    {
      "channel": 4,
      "note": 56,
      "start": 21.2849,
      "duration": 0.0575,
      "velocity": 101,
      "chip": "ym2612"
    },
    {
      "channel": 0,
      "note": 57,
      "start": 21.3787,
      "duration": 0.1134,
      "velocity": 122,
      "chip": "ym2612"
    },
    {
      "channel": 1,
      "note": 57,
      "start": 21.3814,
      "duration": 0.1108,
      "velocity": 127,
      "chip": "ym2612"
    },
    {
      "channel": 2,
      "note": 64,
      "start": 21.3841,
      "duration": 0.1084,
      "velocity": 127,
      "chip": "ym2612"
    },
    {
      "channel": 4,
      "note": 57,
      "start": 21.3872,
      "duration": 0.0718,
      "velocity": 101,
      "chip": "ym2612"
    },
    {
      "channel": 0,
      "note": 57,
      "start": 21.4983,
      "duration": 0.1044,
      "velocity": 122,
      "chip": "ym2612"
    },
    {
      "channel": 1,
      "note": 64,
      "start": 21.5008,
      "duration": 0.102,
      "velocity": 127,
      "chip": "ym2612"
    },
    {
      "channel": 2,
      "note": 60,
      "start": 21.5034,
      "duration": 0.0998,
      "velocity": 127,
      "chip": "ym2612"
    },
    {
      "channel": 4,
      "note": 57,
      "start": 21.5061,
      "duration": 0.0301,
      "velocity": 101,
      "chip": "ym2612"
    },
    {
      "channel": 0,
      "note": 57,
      "start": 21.6059,
      "duration": 0.1135,
      "velocity": 122,
      "chip": "ym2612"
    },
    {
      "channel": 1,
      "note": 64,
      "start": 21.6086,
      "duration": 0.1109,
      "velocity": 127,
      "chip": "ym2612"
    },
    {
      "channel": 2,
      "note": 60,
      "start": 21.6117,
      "duration": 0.1081,
      "velocity": 127,
      "chip": "ym2612"
    },
    {
      "channel": 4,
      "note": 57,
      "start": 21.6152,
      "duration": 0.071,
      "velocity": 101,
      "chip": "ym2612"
    },
    {
      "channel": 0,
      "note": 57,
      "start": 21.7259,
      "duration": 0.0941,
      "velocity": 122,
      "chip": "ym2612"
    },
    {
      "channel": 1,
      "note": 57,
      "start": 21.7284,
      "duration": 0.0917,
      "velocity": 127,
      "chip": "ym2612"
    },
    {
      "channel": 2,
      "note": 64,
      "start": 21.7308,
      "duration": 0.0895,
      "velocity": 127,
      "chip": "ym2612"
    },
    {
      "channel": 4,
      "note": 57,
      "start": 21.7337,
      "duration": 0.08,
      "velocity": 101,
      "chip": "ym2612"
    },
    {
      "channel": 0,
      "note": 57,
      "start": 21.8269,
      "duration": 0.0118,
      "velocity": 122,
      "chip": "ym2612"
    },
    {
      "channel": 1,
      "note": 57,
      "start": 21.8294,
      "duration": 0.0094,
      "velocity": 127,
      "chip": "ym2612"
    },
    {
      "channel": 4,
      "note": 52,
      "start": 21.8323,
      "duration": 0.0801,
      "velocity": 101,
      "chip": "ym2612"
    },
    {
      "channel": 0,
      "note": 57,
      "start": 21.9359,
      "duration": 0.0061,
      "velocity": 122,
      "chip": "ym2612"
    },
    {
      "channel": 1,
      "note": 57,
      "start": 21.9382,
      "duration": 0.0039,
      "velocity": 127,
      "chip": "ym2612"
    },
    {
      "channel": 4,
      "note": 60,
      "start": 21.941,
      "duration": 0.0903,
      "velocity": 101,
      "chip": "ym2612"
    },
    {
      "channel": 0,
      "note": 57,
      "start": 21.9829,
      "duration": 0.0115,
      "velocity": 122,
      "chip": "ym2612"
    },
    {
      "channel": 1,
      "note": 57,
      "start": 21.9858,
      "duration": 0.0087,
      "velocity": 127,
      "chip": "ym2612"
    },
    {
      "channel": 0,
      "note": 57,
      "start": 22.0378,
      "duration": 0.0062,
      "velocity": 122,
      "chip": "ym2612"
    },
    {
      "channel": 1,
      "note": 57,
      "start": 22.0402,
      "duration": 0.0039,
      "velocity": 127,
      "chip": "ym2612"
    },
    {
      "channel": 4,
      "note": 50,
      "start": 22.0428,
      "duration": 0.1465,
      "velocity": 101,
      "chip": "ym2612"
    },
    {
      "channel": 0,
      "note": 58,
      "start": 22.0864,
      "duration": 0.1026,
      "velocity": 122,
      "chip": "ym2612"
    },
    {
      "channel": 1,
      "note": 67,
      "start": 22.089,
      "duration": 0.3213,
      "velocity": 127,
      "chip": "ym2612"
    },
    {
      "channel": 2,
      "note": 60,
      "start": 22.0915,
      "duration": 0.3193,
      "velocity": 127,
      "chip": "ym2612"
    },
    {
      "channel": 0,
      "note": 60,
      "start": 22.1926,
      "duration": 0.2178,
      "velocity": 122,
      "chip": "ym2612"
    },
    {
      "channel": 4,
      "note": 51,
      "start": 22.1957,
      "duration": 0.1634,
      "velocity": 101,
      "chip": "ym2612"
    },
    {
      "channel": 4,
      "note": 52,
      "start": 22.3636,
      "duration": 0.0468,
      "velocity": 101,
      "chip": "ym2612"
    },
    {
      "channel": 0,
      "note": 55,
      "start": 22.4175,
      "duration": 0.138,
      "velocity": 122,
      "chip": "ym2612"
    },
    {
      "channel": 1,
      "note": 62,
      "start": 22.42,
      "duration": 0.1355,
      "velocity": 127,
      "chip": "ym2612"
    },
    {
      "channel": 2,
      "note": 55,
      "start": 22.4225,
      "duration": 0.1334,
      "velocity": 127,
      "chip": "ym2612"
    },
    {
      "channel": 4,
      "note": 53,
      "start": 22.4254,
      "duration": 0.0612,
      "velocity": 101,
      "chip": "ym2612"
    },
    {
      "channel": 4,
      "note": 55,
      "start": 22.51,
      "duration": 0.1372,
      "velocity": 101,
      "chip": "ym2612"
    },
    {
      "channel": 0,
      "note": 55,
      "start": 22.5629,
      "duration": 0.084,
      "velocity": 122,
      "chip": "ym2612"
    },
    {
      "channel": 1,
      "note": 62,
      "start": 22.5652,
      "duration": 0.0817,
      "velocity": 127,
      "chip": "ym2612"
    },
    {
      "channel": 2,
      "note": 55,
      "start": 22.5678,
      "duration": 0.0795,
      "velocity": 127,
      "chip": "ym2612"
    },
    {
      "channel": 0,
      "note": 57,
      "start": 22.6501,
      "duration": 0.1301,
      "velocity": 122,
      "chip": "ym2612"
    },
    {
      "channel": 1,
      "note": 64,
      "start": 22.6528,
      "duration": 0.1275,
      "velocity": 127,
      "chip": "ym2612"
    },
    {
      "channel": 2,
      "note": 57,
      "start": 22.6555,
      "duration": 0.1251,
      "velocity": 127,
      "chip": "ym2612"
    },
    {
      "channel": 4,
      "note": 57,
      "start": 22.6587,
      "duration": 0.0549,
      "velocity": 101,
      "chip": "ym2612"
    },
    {
      "channel": 0,
      "note": 57,
      "start": 22.7866,
      "duration": 0.0873,
      "velocity": 122,
      "chip": "ym2612"
    },
    {
      "channel": 1,
      "note": 64,
      "start": 22.7892,
      "duration": 0.0849,
      "velocity": 127,
      "chip": "ym2612"
    },
    {
      "channel": 2,
      "note": 57,
      "start": 22.7917,
      "duration": 0.0827,
      "velocity": 127,
      "chip": "ym2612"
    },
    {
      "channel": 4,
      "note": 57,
      "start": 22.7943,
      "duration": 0.0131,
      "velocity": 101,
      "chip": "ym2612"
    },
    {
      "channel": 0,
      "note": 57,
      "start": 22.8771,
      "duration": 0.1302,
      "velocity": 122,
      "chip": "ym2612"
    },
    {
      "channel": 1,
      "note": 64,
      "start": 22.8798,
      "duration": 0.1276,
      "velocity": 127,
      "chip": "ym2612"
    },
    {
      "channel": 2,
      "note": 57,
      "start": 22.8825,
      "duration": 0.1252,
      "velocity": 127,
      "chip": "ym2612"
    },
    {
      "channel": 4,
      "note": 57,
      "start": 22.8855,
      "duration": 0.0553,
      "velocity": 101,
      "chip": "ym2612"
    },
    {
      "channel": 0,
      "note": 57,
      "start": 23.0144,
      "duration": 0.0957,
      "velocity": 122,
      "chip": "ym2612"
    },
    {
      "channel": 1,
      "note": 64,
      "start": 23.0169,
      "duration": 0.0932,
      "velocity": 127,
      "chip": "ym2612"
    },
    {
      "channel": 2,
      "note": 57,
      "start": 23.0193,
      "duration": 0.091,
      "velocity": 127,
      "chip": "ym2612"
    },
    {
      "channel": 4,
      "note": 57,
      "start": 23.022,
      "duration": 0.0747,
      "velocity": 101,
      "chip": "ym2612"
    },
    {
      "channel": 0,
      "note": 57,
      "start": 23.1171,
      "duration": 0.0064,
      "velocity": 122,
      "chip": "ym2612"
    },
    {
      "channel": 1,
      "note": 57,
      "start": 23.1197,
      "duration": 0.0039,
      "velocity": 127,
      "chip": "ym2612"
    },
    {
      "channel": 4,
      "note": 53,
      "start": 23.1224,
      "duration": 0.0758,
      "velocity": 101,
      "chip": "ym2612"
    },
    {
      "channel": 0,
      "note": 57,
      "start": 23.2053,
      "duration": 0.0123,
      "velocity": 122,
      "chip": "ym2612"
    },
    {
      "channel": 1,
      "note": 57,
      "start": 23.2079,
      "duration": 0.0098,
      "velocity": 127,
      "chip": "ym2612"
    },
    {
      "channel": 4,
      "note": 60,
      "start": 23.2109,
      "duration": 0.0903,
      "velocity": 101,
      "chip": "ym2612"
    },
    {
      "channel": 0,
      "note": 57,
      "start": 23.2579,
      "duration": 0.0059,
      "velocity": 122,
      "chip": "ym2612"
    },
    {
      "channel": 1,
      "note": 57,
      "start": 23.2602,
      "duration": 0.0037,
      "velocity": 127,
      "chip": "ym2612"
    },
    {
      "channel": 0,
      "note": 57,
      "start": 23.3074,
      "duration": 0.0124,
      "velocity": 122,
      "chip": "ym2612"
    },
    {
      "channel": 1,
      "note": 57,
      "start": 23.3098,
      "duration": 0.0101,
      "velocity": 127,
      "chip": "ym2612"
    },
    {
      "channel": 4,
      "note": 50,
      "start": 23.3124,
      "duration": 0.1365,
      "velocity": 101,
      "chip": "ym2612"
    },
    {
      "channel": 0,
      "note": 58,
      "start": 23.3631,
      "duration": 0.0856,
      "velocity": 122,
      "chip": "ym2612"
    },
    {
      "channel": 1,
      "note": 67,
      "start": 23.3654,
      "duration": 0.2939,
      "velocity": 127,
      "chip": "ym2612"
    },
    {
      "channel": 2,
      "note": 60,
      "start": 23.3679,
      "duration": 0.2916,
      "velocity": 127,
      "chip": "ym2612"
    },
    {
      "channel": 0,
      "note": 60,
      "start": 23.4551,
      "duration": 0.2041,
      "velocity": 122,
      "chip": "ym2612"
    },
    {
      "channel": 4,
      "note": 51,
      "start": 23.4577,
      "duration": 0.1473,
      "velocity": 101,
      "chip": "ym2612"
    },
    {
      "channel": 4,
      "note": 52,
      "start": 23.6119,
      "duration": 0.0474,
      "velocity": 101,
      "chip": "ym2612"
    },
    {
      "channel": 0,
      "note": 55,
      "start": 23.6654,
      "duration": 0.0978,
      "velocity": 122,
      "chip": "ym2612"
    },
    {
      "channel": 1,
      "note": 62,
      "start": 23.6679,
      "duration": 0.0954,
      "velocity": 127,
      "chip": "ym2612"
    },
    {
      "channel": 2,
      "note": 55,
      "start": 23.6705,
      "duration": 0.093,
      "velocity": 127,
      "chip": "ym2612"
    },
    {
      "channel": 4,
      "note": 53,
      "start": 23.673,
      "duration": 0.0428,
      "velocity": 101,
      "chip": "ym2612"
    },
    {
      "channel": 4,
      "note": 54,
      "start": 23.7233,
      "duration": 0.0401,
      "velocity": 101,
      "chip": "ym2612"
    },
    {
      "channel": 3,
      "note": 45,
      "start": 23.7711,
      "duration": 0.0983,
      "velocity": 111,
      "chip": "ym2612"
    },
    {
      "channel": 0,
      "note": 57,
      "start": 23.7732,
      "duration": 0.2127,
      "velocity": 122,
      "chip": "ym2612"
    },
    {
      "channel": 1,
      "note": 57,
      "start": 23.7759,
      "duration": 0.0934,
      "velocity": 92,
      "chip": "ym2612"
    },
    {
      "channel": 4,
      "note": 57,
      "start": 23.7783,
      "duration": 0.0912,
      "velocity": 127,
      "chip": "ym2612"
    },
    {
      "channel": 2,
      "note": 45,
      "start": 23.7819,
      "duration": 0.2044,
      "velocity": 121,
      "chip": "ym2612"
    },
    {
      "channel": 3,
      "note": 48,
      "start": 23.8726,
      "duration": 0.1135,
      "velocity": 111,
      "chip": "ym2612"
    },
    {
      "channel": 1,
      "note": 60,
      "start": 23.8751,
      "duration": 0.1109,
      "velocity": 92,
      "chip": "ym2612"
    },
    {
      "channel": 4,
      "note": 60,
      "start": 23.8777,
      "duration": 0.1085,
      "velocity": 127,
      "chip": "ym2612"
    },
    {
      "channel": 3,
      "note": 51,
      "start": 23.9924,
      "duration": 0.1035,
      "velocity": 111,
      "chip": "ym2612"
    },
    {
      "channel": 1,
      "note": 63,
      "start": 23.9947,
      "duration": 0.1012,
      "velocity": 92,
      "chip": "ym2612"
    },
    {
      "channel": 4,
      "note": 63,
      "start": 23.997,
      "duration": 0.0991,
      "velocity": 127,
      "chip": "ym2612"
    },
    {
      "channel": 3,
      "note": 50,
      "start": 24.0992,
      "duration": 0.1135,
      "velocity": 111,
      "chip": "ym2612"
    },
    {
      "channel": 1,
      "note": 62,
      "start": 24.1017,
      "duration": 0.1109,
      "velocity": 92,
      "chip": "ym2612"
    },
    {
      "channel": 4,
      "note": 62,
      "start": 24.1043,
      "duration": 0.1085,
      "velocity": 127,
      "chip": "ym2612"
    },
    {
      "channel": 3,
      "note": 48,
      "start": 24.2198,
      "duration": 0.0524,
      "velocity": 111,
      "chip": "ym2612"
    },
    {
      "channel": 0,
      "note": 57,
      "start": 24.2221,
      "duration": 0.0953,
      "velocity": 122,
      "chip": "ym2612"
    },
    {
      "channel": 1,
      "note": 60,
      "start": 24.2242,
      "duration": 0.0478,
      "velocity": 92,
      "chip": "ym2612"
    },
    {
      "channel": 4,
      "note": 60,
      "start": 24.2265,
      "duration": 0.0457,
      "velocity": 127,
      "chip": "ym2612"
    },
    {
      "channel": 2,
      "note": 45,
      "start": 24.2293,
      "duration": 0.0764,
      "velocity": 121,
      "chip": "ym2612"
    },
    {
      "channel": 3,
      "note": 45,
      "start": 24.2749,
      "duration": 0.0427,
      "velocity": 111,
      "chip": "ym2612"
    },
    {
      "channel": 1,
      "note": 57,
      "start": 24.2772,
      "duration": 0.0404,
      "velocity": 92,
      "chip": "ym2612"
    },
    {
      "channel": 4,
      "note": 57,
      "start": 24.2796,
      "duration": 0.0381,
      "velocity": 127,
      "chip": "ym2612"
    },
    {
      "channel": 3,
      "note": 53,
      "start": 24.3239,
      "duration": 0.1011,
      "velocity": 111,
      "chip": "ym2612"
    },
    {
      "channel": 0,
      "note": 57,
      "start": 24.326,
      "duration": 0.0059,
      "velocity": 122,
      "chip": "ym2612"
    },
    {
      "channel": 1,
      "note": 65,
      "start": 24.3281,
      "duration": 0.0967,
      "velocity": 92,
      "chip": "ym2612"
    },
    {
      "channel": 4,
      "note": 65,
      "start": 24.3305,
      "duration": 0.0946,
      "velocity": 127,
      "chip": "ym2612"
    },
    {
      "channel": 3,
      "note": 52,
      "start": 24.4321,
      "duration": 0.0421,
      "velocity": 111,
      "chip": "ym2612"
    },
    {
      "channel": 0,
      "note": 57,
      "start": 24.4341,
      "duration": 0.0072,
      "velocity": 122,
      "chip": "ym2612"
    },
    {
      "channel": 1,
      "note": 64,
      "start": 24.4363,
      "duration": 0.0378,
      "velocity": 92,
      "chip": "ym2612"
    },
    {
      "channel": 4,
      "note": 64,
      "start": 24.4393,
      "duration": 0.035,
      "velocity": 127,
      "chip": "ym2612"
    },
    {
      "channel": 0,
      "note": 57,
      "start": 24.4778,
      "duration": 0.012,
      "velocity": 122,
      "chip": "ym2612"
    },
    {
      "channel": 2,
      "note": 45,
      "start": 24.4818,
      "duration": 0.086,
      "velocity": 121,
      "chip": "ym2612"
    },
    {
      "channel": 0,
      "note": 57,
      "start": 24.5335,
      "duration": 0.0032,
      "velocity": 122,
      "chip": "ym2612"
    },
    {
      "channel": 0,
      "note": 57,
      "start": 24.5812,
      "duration": 0.1833,
      "velocity": 122,
      "chip": "ym2612"
    },
    {
      "channel": 0,
      "note": 57,
      "start": 24.8054,
      "duration": 0.092,
      "velocity": 122,
      "chip": "ym2612"
    },
    {
      "channel": 2,
      "note": 45,
      "start": 24.8079,
      "duration": 0.0835,
      "velocity": 121,
      "chip": "ym2612"
    },
    {
      "channel": 0,
      "note": 57,
      "start": 24.9038,
      "duration": 0.0092,
      "velocity": 122,
      "chip": "ym2612"
    },
    {
      "channel": 0,
      "note": 57,
      "start": 25.0115,
      "duration": 0.0044,
      "velocity": 122,
      "chip": "ym2612"
    },
    {
      "channel": 0,
      "note": 51,
      "start": 25.0656,
      "duration": 1.0913,
      "velocity": 122,
      "chip": "ym2612"
    },
    {
      "channel": 1,
      "note": 51,
      "start": 25.0679,
      "duration": 0.5416,
      "velocity": 92,
      "chip": "ym2612"
    },
    {
      "channel": 2,
      "note": 45,
      "start": 25.0706,
      "duration": 0.2134,
      "velocity": 121,
      "chip": "ym2612"
    },
    {
      "channel": 3,
      "note": 63,
      "start": 25.0734,
      "duration": 0.4451,
      "velocity": 127,
      "chip": "ym2612"
    },
    {
      "channel": 4,
      "note": 51,
      "start": 25.077,
      "duration": 0.5152,
      "velocity": 101,
      "chip": "ym2612"
    },
    {
      "channel": 2,
      "note": 57,
      "start": 25.2906,
      "duration": 0.2208,
      "velocity": 92,
      "chip": "ym2612"
    },
    {
      "channel": 2,
      "note": 63,
      "start": 25.5177,
      "duration": 0.092,
      "velocity": 92,
      "chip": "ym2612"
    },
    {
      "channel": 3,
      "note": 45,
      "start": 25.5204,
      "duration": 0.0717,
      "velocity": 121,
      "chip": "ym2612"
    },
    {
      "channel": 1,
      "note": 63,
      "start": 25.6162,
      "duration": 0.1839,
      "velocity": 92,
      "chip": "ym2612"
    },
    {
      "channel": 2,
      "note": 69,
      "start": 25.6187,
      "duration": 0.1753,
      "velocity": 92,
      "chip": "ym2612"
    },
    {
      "channel": 4,
      "note": 61,
      "start": 25.6218,
      "duration": 0.0793,
      "velocity": 101,
      "chip": "ym2612"
    },
    {
      "channel": 4,
      "note": 63,
      "start": 25.709,
      "duration": 0.4482,
      "velocity": 101,
      "chip": "ym2612"
    },
    {
      "channel": 3,
      "note": 45,
      "start": 25.7606,
      "duration": 0.0852,
      "velocity": 121,
      "chip": "ym2612"
    },
    {
      "channel": 1,
      "note": 67,
      "start": 25.8605,
      "duration": 0.4411,
      "velocity": 92,
      "chip": "ym2612"
    },
    {
      "channel": 2,
      "note": 63,
      "start": 25.8629,
      "duration": 0.4389,
      "velocity": 92,
      "chip": "ym2612"
    },
    {
      "channel": 3,
      "note": 45,
      "start": 26.0639,
      "duration": 0.0856,
      "velocity": 121,
      "chip": "ym2612"
    },
    {
      "channel": 0,
      "note": 57,
      "start": 26.1636,
      "duration": 0.0047,
      "velocity": 122,
      "chip": "ym2612"
    },
    {
      "channel": 4,
      "note": 58,
      "start": 26.1668,
      "duration": 0.1349,
      "velocity": 101,
      "chip": "ym2612"
    },
    {
      "channel": 0,
      "note": 57,
      "start": 26.2543,
      "duration": 0.0099,
      "velocity": 122,
      "chip": "ym2612"
    },
    {
      "channel": 3,
      "note": 45,
      "start": 26.3091,
      "duration": 0.1016,
      "velocity": 111,
      "chip": "ym2612"
    },
    {
      "channel": 0,
      "note": 57,
      "start": 26.3115,
      "duration": 0.2157,
      "velocity": 122,
      "chip": "ym2612"
    },
    {
      "channel": 1,
      "note": 57,
      "start": 26.3143,
      "duration": 0.0962,
      "velocity": 92,
      "chip": "ym2612"
    },
    {
      "channel": 4,
      "note": 57,
      "start": 26.3169,
      "duration": 0.0939,
      "velocity": 127,
      "chip": "ym2612"
    },
    {
      "channel": 2,
      "note": 45,
      "start": 26.3204,
      "duration": 0.2074,
      "velocity": 121,
      "chip": "ym2612"
    },
    {
      "channel": 3,
      "note": 48,
      "start": 26.4138,
      "duration": 0.1137,
      "velocity": 111,
      "chip": "ym2612"
    },
    {
      "channel": 1,
      "note": 60,
      "start": 26.4164,
      "duration": 0.111,
      "velocity": 92,
      "chip": "ym2612"
    },
    {
      "channel": 4,
      "note": 60,
      "start": 26.419,
      "duration": 0.1087,
      "velocity": 127,
      "chip": "ym2612"
    },
    {
      "channel": 3,
      "note": 51,
      "start": 26.5339,
      "duration": 0.1037,
      "velocity": 111,
      "chip": "ym2612"
    },
    {
      "channel": 1,
      "note": 63,
      "start": 26.5361,
      "duration": 0.1013,
      "velocity": 92,
      "chip": "ym2612"
    },
    {
      "channel": 4,
      "note": 63,
      "start": 26.5385,
      "duration": 0.0992,
      "velocity": 127,
      "chip": "ym2612"
    },
    {
      "channel": 3,
      "note": 50,
      "start": 26.6407,
      "duration": 0.1135,
      "velocity": 111,
      "chip": "ym2612"
    },
    {
      "channel": 1,
      "note": 62,
      "start": 26.6433,
      "duration": 0.1107,
      "velocity": 92,
      "chip": "ym2612"
    },
    {
      "channel": 4,
      "note": 62,
      "start": 26.6459,
      "duration": 0.1085,
      "velocity": 127,
      "chip": "ym2612"
    },
    {
      "channel": 3,
      "note": 48,
      "start": 26.7613,
      "duration": 0.0519,
      "velocity": 111,
      "chip": "ym2612"
    },
    {
      "channel": 0,
      "note": 57,
      "start": 26.7636,
      "duration": 0.095,
      "velocity": 122,
      "chip": "ym2612"
    },
    {
      "channel": 1,
      "note": 60,
      "start": 26.7658,
      "duration": 0.0474,
      "velocity": 92,
      "chip": "ym2612"
    },
    {
      "channel": 4,
      "note": 60,
      "start": 26.7681,
      "duration": 0.0452,
      "velocity": 127,
      "chip": "ym2612"
    },
    {
      "channel": 2,
      "note": 45,
      "start": 26.7706,
      "duration": 0.0763,
      "velocity": 121,
      "chip": "ym2612"
    },
    {
      "channel": 3,
      "note": 45,
      "start": 26.816,
      "duration": 0.0428,
      "velocity": 111,
      "chip": "ym2612"
    },
    {
      "channel": 1,
      "note": 57,
      "start": 26.8181,
      "duration": 0.0406,
      "velocity": 92,
      "chip": "ym2612"
    },
    {
      "channel": 4,
      "note": 57,
      "start": 26.8205,
      "duration": 0.0383,
      "velocity": 127,
      "chip": "ym2612"
    },
    {
      "channel": 3,
      "note": 53,
      "start": 26.8658,
      "duration": 0.1001,
      "velocity": 111,
      "chip": "ym2612"
    },
    {
      "channel": 0,
      "note": 57,
      "start": 26.8678,
      "duration": 0.0057,
      "velocity": 122,
      "chip": "ym2612"
    },
    {
      "channel": 1,
      "note": 65,
      "start": 26.87,
      "duration": 0.0958,
      "velocity": 92,
      "chip": "ym2612"
    },
    {
      "channel": 4,
      "note": 65,
      "start": 26.8723,
      "duration": 0.0937,
      "velocity": 127,
      "chip": "ym2612"
    },
    {
      "channel": 3,
      "note": 52,
      "start": 26.9728,
      "duration": 0.0427,
      "velocity": 111,
      "chip": "ym2612"
    },
    {
      "channel": 0,
      "note": 57,
      "start": 26.9747,
      "duration": 0.0069,
      "velocity": 122,
      "chip": "ym2612"
    },
    {
      "channel": 1,
      "note": 64,
      "start": 26.9769,
      "duration": 0.0386,
      "velocity": 92,
      "chip": "ym2612"
    },
    {
      "channel": 4,
      "note": 64,
      "start": 26.9795,
      "duration": 0.0361,
      "velocity": 127,
      "chip": "ym2612"
    },
    {
      "channel": 0,
      "note": 57,
      "start": 27.0192,
      "duration": 0.0059,
      "velocity": 122,
      "chip": "ym2612"
    },
    {
      "channel": 2,
      "note": 45,
      "start": 27.0222,
      "duration": 0.0851,
      "velocity": 121,
      "chip": "ym2612"
    },
    {
      "channel": 0,
      "note": 57,
      "start": 27.0739,
      "duration": 0.003,
      "velocity": 122,
      "chip": "ym2612"
    },
    {
      "channel": 0,
      "note": 57,
      "start": 27.1207,
      "duration": 0.1829,
      "velocity": 122,
      "chip": "ym2612"
    },
    {
      "channel": 0,
      "note": 57,
      "start": 27.3429,
      "duration": 0.0921,
      "velocity": 122,
      "chip": "ym2612"
    },
    {
      "channel": 2,
      "note": 45,
      "start": 27.3456,
      "duration": 0.0834,
      "velocity": 121,
      "chip": "ym2612"
    },
    {
      "channel": 0,
      "note": 57,
      "start": 27.442,
      "duration": 0.0089,
      "velocity": 122,
      "chip": "ym2612"
    },
    {
      "channel": 0,
      "note": 57,
      "start": 27.5505,
      "duration": 0.0041,
      "velocity": 122,
      "chip": "ym2612"
    },
    {
      "channel": 0,
      "note": 51,
      "start": 27.5969,
      "duration": 1.1109,
      "velocity": 122,
      "chip": "ym2612"
    },
    {
      "channel": 1,
      "note": 51,
      "start": 27.5992,
      "duration": 0.56,
      "velocity": 92,
      "chip": "ym2612"
    },
    {
      "channel": 2,
      "note": 45,
      "start": 27.6021,
      "duration": 0.2296,
      "velocity": 121,
      "chip": "ym2612"
    },
    {
      "channel": 3,
      "note": 63,
      "start": 27.6048,
      "duration": 0.4622,
      "velocity": 127,
      "chip": "ym2612"
    },
    {
      "channel": 4,
      "note": 51,
      "start": 27.6083,
      "duration": 0.5333,
      "velocity": 101,
      "chip": "ym2612"
    },
    {
      "channel": 2,
      "note": 57,
      "start": 27.838,
      "duration": 0.2211,
      "velocity": 92,
      "chip": "ym2612"
    },
    {
      "channel": 2,
      "note": 63,
      "start": 28.0662,
      "duration": 0.0931,
      "velocity": 92,
      "chip": "ym2612"
    },
    {
      "channel": 3,
      "note": 45,
      "start": 28.0689,
      "duration": 0.0726,
      "velocity": 121,
      "chip": "ym2612"
    },
    {
      "channel": 1,
      "note": 63,
      "start": 28.1663,
      "duration": 0.1849,
      "velocity": 92,
      "chip": "ym2612"
    },
    {
      "channel": 2,
      "note": 69,
      "start": 28.169,
      "duration": 0.1766,
      "velocity": 92,
      "chip": "ym2612"
    },
    {
      "channel": 4,
      "note": 61,
      "start": 28.1719,
      "duration": 0.0795,
      "velocity": 101,
      "chip": "ym2612"
    },
    {
      "channel": 4,
      "note": 63,
      "start": 28.2601,
      "duration": 0.4478,
      "velocity": 101,
      "chip": "ym2612"
    },
    {
      "channel": 3,
      "note": 45,
      "start": 28.3122,
      "duration": 0.0785,
      "velocity": 121,
      "chip": "ym2612"
    },
    {
      "channel": 1,
      "note": 67,
      "start": 28.4104,
      "duration": 0.3992,
      "velocity": 92,
      "chip": "ym2612"
    },
    {
      "channel": 2,
      "note": 63,
      "start": 28.4128,
      "duration": 0.3973,
      "velocity": 92,
      "chip": "ym2612"
    },
    {
      "channel": 3,
      "note": 45,
      "start": 28.6144,
      "duration": 0.0858,
      "velocity": 121,
      "chip": "ym2612"
    },
    {
      "channel": 0,
      "note": 57,
      "start": 28.7145,
      "duration": 0.0048,
      "velocity": 122,
      "chip": "ym2612"
    },
    {
      "channel": 4,
      "note": 58,
      "start": 28.7177,
      "duration": 0.0921,
      "velocity": 101,
      "chip": "ym2612"
    },
    {
      "channel": 0,
      "note": 57,
      "start": 28.7629,
      "duration": 0.0091,
      "velocity": 122,
      "chip": "ym2612"
    },
    {
      "channel": 3,
      "note": 57,
      "start": 28.8173,
      "duration": 0.2178,
      "velocity": 111,
      "chip": "ym2612"
    },
    {
      "channel": 0,
      "note": 57,
      "start": 28.8195,
      "duration": 0.2154,
      "velocity": 122,
      "chip": "ym2612"
    },
    {
      "channel": 1,
      "note": 57,
      "start": 28.822,
      "duration": 0.0797,
      "velocity": 92,
      "chip": "ym2612"
    },
    {
      "channel": 1,
      "note": 45,
      "start": 28.9048,
      "duration": 0.1303,
      "velocity": 92,
      "chip": "ym2612"
    },
    {
      "channel": 1,
      "note": 52,
      "start": 29.0383,
      "duration": 0.13,
      "velocity": 92,
      "chip": "ym2612"
    },
    {
      "channel": 1,
      "note": 57,
      "start": 29.1714,
      "duration": 0.1137,
      "velocity": 92,
      "chip": "ym2612"
    },
    {
      "channel": 3,
      "note": 57,
      "start": 29.2914,
      "duration": 0.0722,
      "velocity": 111,
      "chip": "ym2612"
    },
    {
      "channel": 0,
      "note": 57,
      "start": 29.2938,
      "duration": 0.0695,
      "velocity": 122,
      "chip": "ym2612"
    },
    {
      "channel": 1,
      "note": 45,
      "start": 29.2962,
      "duration": 0.0315,
      "velocity": 92,
      "chip": "ym2612"
    },
    {
      "channel": 1,
      "note": 52,
      "start": 29.3304,
      "duration": 0.033,
      "velocity": 92,
      "chip": "ym2612"
    },
    {
      "channel": 0,
      "note": 57,
      "start": 29.3668,
      "duration": 0.0131,
      "velocity": 122,
      "chip": "ym2612"
    },
    {
      "channel": 1,
      "note": 57,
      "start": 29.3692,
      "duration": 0.1276,
      "velocity": 92,
      "chip": "ym2612"
    },
    {
      "channel": 0,
      "note": 57,
      "start": 29.4997,
      "duration": 0.0135,
      "velocity": 122,
      "chip": "ym2612"
    },
    {
      "channel": 1,
      "note": 45,
      "start": 29.5021,
      "duration": 0.1112,
      "velocity": 92,
      "chip": "ym2612"
    },
    {
      "channel": 3,
      "note": 57,
      "start": 29.6201,
      "duration": 0.2206,
      "velocity": 111,
      "chip": "ym2612"
    },
    {
      "channel": 0,
      "note": 57,
      "start": 29.6221,
      "duration": 0.0039,
      "velocity": 122,
      "chip": "ym2612"
    },
    {
      "channel": 1,
      "note": 53,
      "start": 29.6244,
      "duration": 0.0995,
      "velocity": 92,
      "chip": "ym2612"
    },
    {
      "channel": 0,
      "note": 57,
      "start": 29.7268,
      "duration": 0.0135,
      "velocity": 122,
      "chip": "ym2612"
    },
    {
      "channel": 1,
      "note": 57,
      "start": 29.7293,
      "duration": 0.1113,
      "velocity": 92,
      "chip": "ym2612"
    },
    {
      "channel": 0,
      "note": 57,
      "start": 29.8468,
      "duration": 0.1873,
      "velocity": 122,
      "chip": "ym2612"
    },
    {
      "channel": 1,
      "note": 45,
      "start": 29.849,
      "duration": 0.102,
      "velocity": 92,
      "chip": "ym2612"
    },
    {
      "channel": 1,
      "note": 53,
      "start": 29.954,
      "duration": 0.1136,
      "velocity": 92,
      "chip": "ym2612"
    },
    {
      "channel": 3,
      "note": 57,
      "start": 30.0738,
      "duration": 0.0726,
      "velocity": 111,
      "chip": "ym2612"
    },
    {
      "channel": 0,
      "note": 57,
      "start": 30.0761,
      "duration": 0.0701,
      "velocity": 122,
      "chip": "ym2612"
    },
    {
      "channel": 1,
      "note": 57,
      "start": 30.0783,
      "duration": 0.0321,
      "velocity": 92,
      "chip": "ym2612"
    },
    {
      "channel": 1,
      "note": 45,
      "start": 30.113,
      "duration": 0.0333,
      "velocity": 92,
      "chip": "ym2612"
    },
    {
      "channel": 0,
      "note": 57,
      "start": 30.1525,
      "duration": 0.0105,
      "velocity": 122,
      "chip": "ym2612"
    },
    {
      "channel": 1,
      "note": 53,
      "start": 30.1547,
      "duration": 0.1018,
      "velocity": 92,
      "chip": "ym2612"
    },
    {
      "channel": 0,
      "note": 57,
      "start": 30.2595,
      "duration": 0.0135,
      "velocity": 122,
      "chip": "ym2612"
    },
    {
      "channel": 1,
      "note": 57,
      "start": 30.2621,
      "duration": 0.0611,
      "velocity": 92,
      "chip": "ym2612"
    },
    {
      "channel": 3,
      "note": 57,
      "start": 30.3796,
      "duration": 0.2207,
      "velocity": 111,
      "chip": "ym2612"
    },
    {
      "channel": 0,
      "note": 57,
      "start": 30.3821,
      "duration": 0.218,
      "velocity": 122,
      "chip": "ym2612"
    },
    {
      "channel": 1,
      "note": 57,
      "start": 30.3841,
      "duration": 0.0993,
      "velocity": 92,
      "chip": "ym2612"
    },
    {
      "channel": 4,
      "note": 45,
      "start": 30.3867,
      "duration": 0.2137,
      "velocity": 127,
      "chip": "ym2612"
    },
    {
      "channel": 2,
      "note": 57,
      "start": 30.3907,
      "duration": 0.2099,
      "velocity": 115,
      "chip": "ym2612"
    },
    {
      "channel": 1,
      "note": 45,
      "start": 30.4866,
      "duration": 0.1136,
      "velocity": 92,
      "chip": "ym2612"
    },
    {
      "channel": 1,
      "note": 51,
      "start": 30.6039,
      "duration": 0.1295,
      "velocity": 92,
      "chip": "ym2612"
    },
    {
      "channel": 4,
      "note": 51,
      "start": 30.6069,
      "duration": 0.26,
      "velocity": 127,
      "chip": "ym2612"
    },
    {
      "channel": 2,
      "note": 63,
      "start": 30.6099,
      "duration": 0.2571,
      "velocity": 115,
      "chip": "ym2612"
    },
    {
      "channel": 1,
      "note": 57,
      "start": 30.7365,
      "duration": 0.1302,
      "velocity": 92,
      "chip": "ym2612"
    },
    {
      "channel": 3,
      "note": 57,
      "start": 30.8734,
      "duration": 0.0724,
      "velocity": 111,
      "chip": "ym2612"
    },
    {
      "channel": 0,
      "note": 57,
      "start": 30.8757,
      "duration": 0.0699,
      "velocity": 122,
      "chip": "ym2612"
    },
    {
      "channel": 1,
      "note": 45,
      "start": 30.878,
      "duration": 0.0298,
      "velocity": 92,
      "chip": "ym2612"
    },
    {
      "channel": 4,
      "note": 57,
      "start": 30.8803,
      "duration": 0.0657,
      "velocity": 127,
      "chip": "ym2612"
    },
    {
      "channel": 2,
      "note": 69,
      "start": 30.8829,
      "duration": 0.0633,
      "velocity": 115,
      "chip": "ym2612"
    },
    {
      "channel": 1,
      "note": 51,
      "start": 30.9104,
      "duration": 0.0354,
      "velocity": 92,
      "chip": "ym2612"
    },
    {
      "channel": 0,
      "note": 57,
      "start": 30.9493,
      "duration": 0.0129,
      "velocity": 122,
      "chip": "ym2612"
    },
    {
      "channel": 1,
      "note": 57,
      "start": 30.9517,
      "duration": 0.1106,
      "velocity": 92,
      "chip": "ym2612"
    },
    {
      "channel": 4,
      "note": 60,
      "start": 30.9546,
      "duration": 0.4686,
      "velocity": 127,
      "chip": "ym2612"
    },
    {
      "channel": 2,
      "note": 72,
      "start": 30.9579,
      "duration": 0.4654,
      "velocity": 115,
      "chip": "ym2612"
    },
    {
      "channel": 0,
      "note": 57,
      "start": 31.0652,
      "duration": 0.0137,
      "velocity": 122,
      "chip": "ym2612"
    },
    {
      "channel": 1,
      "note": 45,
      "start": 31.0676,
      "duration": 0.128,
      "velocity": 92,
      "chip": "ym2612"
    },
    {
      "channel": 3,
      "note": 57,
      "start": 31.2022,
      "duration": 0.221,
      "velocity": 111,
      "chip": "ym2612"
    },
    {
      "channel": 0,
      "note": 57,
      "start": 31.2043,
      "duration": 0.0036,
      "velocity": 122,
      "chip": "ym2612"
    },
    {
      "channel": 1,
      "note": 52,
      "start": 31.2064,
      "duration": 0.0831,
      "velocity": 92,
      "chip": "ym2612"
    },
    {
      "channel": 0,
      "note": 57,
      "start": 31.2926,
      "duration": 0.0135,
      "velocity": 122,
      "chip": "ym2612"
    },
    {
      "channel": 1,
      "note": 57,
      "start": 31.295,
      "duration": 0.128,
      "velocity": 92,
      "chip": "ym2612"
    },
    {
      "channel": 0,
      "note": 57,
      "start": 31.4293,
      "duration": 0.1703,
      "velocity": 122,
      "chip": "ym2612"
    },
    {
      "channel": 1,
      "note": 45,
      "start": 31.4316,
      "duration": 0.0847,
      "velocity": 92,
      "chip": "ym2612"
    },
    {
      "channel": 4,
      "note": 57,
      "start": 31.4341,
      "duration": 0.5216,
      "velocity": 127,
      "chip": "ym2612"
    },
    {
      "channel": 2,
      "note": 69,
      "start": 31.4373,
      "duration": 0.5187,
      "velocity": 115,
      "chip": "ym2612"
    },
    {
      "channel": 1,
      "note": 52,
      "start": 31.5193,
      "duration": 0.1304,
      "velocity": 92,
      "chip": "ym2612"
    },
    {
      "channel": 3,
      "note": 57,
      "start": 31.656,
      "duration": 0.0726,
      "velocity": 111,
      "chip": "ym2612"
    },
    {
      "channel": 0,
      "note": 57,
      "start": 31.6583,
      "duration": 0.07,
      "velocity": 122,
      "chip": "ym2612"
    },
    {
      "channel": 1,
      "note": 57,
      "start": 31.6606,
      "duration": 0.0275,
      "velocity": 92,
      "chip": "ym2612"
    },
    {
      "channel": 1,
      "note": 45,
      "start": 31.6906,
      "duration": 0.0378,
      "velocity": 92,
      "chip": "ym2612"
    },
    {
      "channel": 3,
      "note": 56,
      "start": 31.7347,
      "duration": 0.2209,
      "velocity": 111,
      "chip": "ym2612"
    },
    {
      "channel": 0,
      "note": 57,
      "start": 31.7372,
      "duration": 0.0037,
      "velocity": 122,
      "chip": "ym2612"
    },
    {
      "channel": 1,
      "note": 52,
      "start": 31.7393,
      "duration": 0.0829,
      "velocity": 92,
      "chip": "ym2612"
    },
    {
      "channel": 0,
      "note": 57,
      "start": 31.8252,
      "duration": 0.0302,
      "velocity": 122,
      "chip": "ym2612"
    },
    {
      "channel": 1,
      "note": 57,
      "start": 31.8278,
      "duration": 0.0609,
      "velocity": 92,
      "chip": "ym2612"
    },
    {
      "channel": 3,
      "note": 57,
      "start": 31.9625,
      "duration": 0.2206,
      "velocity": 111,
      "chip": "ym2612"
    },
    {
      "channel": 0,
      "note": 57,
      "start": 31.9647,
      "duration": 0.218,
      "velocity": 122,
      "chip": "ym2612"
    },
    {
      "channel": 1,
      "note": 57,
      "start": 31.9671,
      "duration": 0.0823,
      "velocity": 92,
      "chip": "ym2612"
    },
    {
      "channel": 1,
      "note": 45,
      "start": 32.0525,
      "duration": 0.1304,
      "velocity": 92,
      "chip": "ym2612"
    },
    {
      "channel": 1,
      "note": 55,
      "start": 32.1861,
      "duration": 0.1134,
      "velocity": 92,
      "chip": "ym2612"
    },
    {
      "channel": 1,
      "note": 57,
      "start": 32.3026,
      "duration": 0.1301,
      "velocity": 92,
      "chip": "ym2612"
    },
    {
      "channel": 3,
      "note": 57,
      "start": 32.4389,
      "duration": 0.0727,
      "velocity": 111,
      "chip": "ym2612"
    },
    {
      "channel": 0,
      "note": 57,
      "start": 32.4412,
      "duration": 0.0701,
      "velocity": 122,
      "chip": "ym2612"
    },
    {
      "channel": 1,
      "note": 45,
      "start": 32.4435,
      "duration": 0.0322,
      "velocity": 92,
      "chip": "ym2612"
    },
    {
      "channel": 1,
      "note": 55,
      "start": 32.4783,
      "duration": 0.0332,
      "velocity": 92,
      "chip": "ym2612"
    },
    {
      "channel": 0,
      "note": 57,
      "start": 32.5149,
      "duration": 0.0131,
      "velocity": 122,
      "chip": "ym2612"
    },
    {
      "channel": 1,
      "note": 57,
      "start": 32.5173,
      "duration": 0.1276,
      "velocity": 92,
      "chip": "ym2612"
    },
    {
      "channel": 0,
      "note": 57,
      "start": 32.6478,
      "duration": 0.0135,
      "velocity": 122,
      "chip": "ym2612"
    },
    {
      "channel": 1,
      "note": 45,
      "start": 32.6502,
      "duration": 0.1113,
      "velocity": 92,
      "chip": "ym2612"
    },
    {
      "channel": 3,
      "note": 57,
      "start": 32.768,
      "duration": 0.221,
      "velocity": 111,
      "chip": "ym2612"
    },
    {
      "channel": 0,
      "note": 57,
      "start": 32.77,
      "duration": 0.0038,
      "velocity": 122,
      "chip": "ym2612"
    },
    {
      "channel": 1,
      "note": 53,
      "start": 32.7723,
      "duration": 0.1,
      "velocity": 92,
      "chip": "ym2612"
    },
    {
      "channel": 0,
      "note": 57,
      "start": 32.8752,
      "duration": 0.0137,
      "velocity": 122,
      "chip": "ym2612"
    },
    {
      "channel": 1,
      "note": 57,
      "start": 32.8776,
      "duration": 0.1113,
      "velocity": 92,
      "chip": "ym2612"
    },
    {
      "channel": 0,
      "note": 57,
      "start": 32.9953,
      "duration": 0.187,
      "velocity": 122,
      "chip": "ym2612"
    },
    {
      "channel": 1,
      "note": 45,
      "start": 32.9973,
      "duration": 0.1018,
      "velocity": 92,
      "chip": "ym2612"
    },
    {
      "channel": 1,
      "note": 53,
      "start": 33.1022,
      "duration": 0.1134,
      "velocity": 92,
      "chip": "ym2612"
    },
    {
      "channel": 3,
      "note": 57,
      "start": 33.2219,
      "duration": 0.0727,
      "velocity": 111,
      "chip": "ym2612"
    },
    {
      "channel": 0,
      "note": 57,
      "start": 33.2242,
      "duration": 0.0701,
      "velocity": 122,
      "chip": "ym2612"
    },
    {
      "channel": 1,
      "note": 57,
      "start": 33.2265,
      "duration": 0.0321,
      "velocity": 92,
      "chip": "ym2612"
    },
    {
      "channel": 1,
      "note": 45,
      "start": 33.2612,
      "duration": 0.0333,
      "velocity": 92,
      "chip": "ym2612"
    },
    {
      "channel": 0,
      "note": 57,
      "start": 33.301,
      "duration": 0.0105,
      "velocity": 122,
      "chip": "ym2612"
    },
    {
      "channel": 1,
      "note": 53,
      "start": 33.3032,
      "duration": 0.101,
      "velocity": 92,
      "chip": "ym2612"
    },
    {
      "channel": 0,
      "note": 57,
      "start": 33.4072,
      "duration": 0.0136,
      "velocity": 122,
      "chip": "ym2612"
    },
    {
      "channel": 1,
      "note": 57,
      "start": 33.4102,
      "duration": 0.0607,
      "velocity": 92,
      "chip": "ym2612"
    },
    {
      "channel": 3,
      "note": 57,
      "start": 33.5273,
      "duration": 0.2204,
      "velocity": 111,
      "chip": "ym2612"
    },
    {
      "channel": 0,
      "note": 57,
      "start": 33.5293,
      "duration": 0.2181,
      "velocity": 122,
      "chip": "ym2612"
    },
    {
      "channel": 1,
      "note": 57,
      "start": 33.5317,
      "duration": 0.0991,
      "velocity": 92,
      "chip": "ym2612"
    },
    {
      "channel": 4,
      "note": 45,
      "start": 33.5345,
      "duration": 0.2134,
      "velocity": 127,
      "chip": "ym2612"
    },
    {
      "channel": 2,
      "note": 57,
      "start": 33.5379,
      "duration": 0.2101,
      "velocity": 115,
      "chip": "ym2612"
    },
    {
      "channel": 1,
      "note": 45,
      "start": 33.6339,
      "duration": 0.1136,
      "velocity": 92,
      "chip": "ym2612"
    },
    {
      "channel": 1,
      "note": 51,
      "start": 33.7509,
      "duration": 0.13,
      "velocity": 92,
      "chip": "ym2612"
    },
    {
      "channel": 4,
      "note": 51,
      "start": 33.7535,
      "duration": 0.2441,
      "velocity": 127,
      "chip": "ym2612"
    },
    {
      "channel": 2,
      "note": 63,
      "start": 33.7566,
      "duration": 0.2412,
      "velocity": 115,
      "chip": "ym2612"
    },
    {
      "channel": 1,
      "note": 57,
      "start": 33.884,
      "duration": 0.1134,
      "velocity": 92,
      "chip": "ym2612"
    },
    {
      "channel": 3,
      "note": 45,
      "start": 34.0039,
      "duration": 0.0893,
      "velocity": 111,
      "chip": "ym2612"
    },
    {
      "channel": 0,
      "note": 57,
      "start": 34.0062,
      "duration": 0.0867,
      "velocity": 122,
      "chip": "ym2612"
    },
    {
      "channel": 1,
      "note": 45,
      "start": 34.0083,
      "duration": 0.0347,
      "velocity": 92,
      "chip": "ym2612"
    },
    {
      "channel": 4,
      "note": 57,
      "start": 34.0108,
      "duration": 0.0825,
      "velocity": 127,
      "chip": "ym2612"
    },
    {
      "channel": 2,
      "note": 69,
      "start": 34.0133,
      "duration": 0.08,
      "velocity": 115,
      "chip": "ym2612"
    },
    {
      "channel": 1,
      "note": 51,
      "start": 34.0456,
      "duration": 0.0474,
      "velocity": 92,
      "chip": "ym2612"
    },
    {
      "channel": 0,
      "note": 57,
      "start": 34.0965,
      "duration": 0.013,
      "velocity": 122,
      "chip": "ym2612"
    },
    {
      "channel": 1,
      "note": 57,
      "start": 34.0989,
      "duration": 0.1107,
      "velocity": 92,
      "chip": "ym2612"
    },
    {
      "channel": 4,
      "note": 60,
      "start": 34.1022,
      "duration": 0.4686,
      "velocity": 127,
      "chip": "ym2612"
    },
    {
      "channel": 2,
      "note": 72,
      "start": 34.1059,
      "duration": 0.4651,
      "velocity": 115,
      "chip": "ym2612"
    },
    {
      "channel": 0,
      "note": 57,
      "start": 34.213,
      "duration": 0.0132,
      "velocity": 122,
      "chip": "ym2612"
    },
    {
      "channel": 1,
      "note": 45,
      "start": 34.2153,
      "duration": 0.1276,
      "velocity": 92,
      "chip": "ym2612"
    },
    {
      "channel": 3,
      "note": 57,
      "start": 34.3495,
      "duration": 0.2212,
      "velocity": 111,
      "chip": "ym2612"
    },
    {
      "channel": 0,
      "note": 57,
      "start": 34.3515,
      "duration": 0.0039,
      "velocity": 122,
      "chip": "ym2612"
    },
    {
      "channel": 1,
      "note": 52,
      "start": 34.3539,
      "duration": 0.0834,
      "velocity": 92,
      "chip": "ym2612"
    },
    {
      "channel": 0,
      "note": 57,
      "start": 34.4402,
      "duration": 0.0135,
      "velocity": 122,
      "chip": "ym2612"
    },
    {
      "channel": 1,
      "note": 57,
      "start": 34.4426,
      "duration": 0.1279,
      "velocity": 92,
      "chip": "ym2612"
    },
    {
      "channel": 0,
      "note": 57,
      "start": 34.5769,
      "duration": 0.1706,
      "velocity": 122,
      "chip": "ym2612"
    },
    {
      "channel": 1,
      "note": 45,
      "start": 34.5791,
      "duration": 0.0851,
      "velocity": 92,
      "chip": "ym2612"
    },
    {
      "channel": 4,
      "note": 57,
      "start": 34.5817,
      "duration": 0.3335,
      "velocity": 127,
      "chip": "ym2612"
    },
    {
      "channel": 2,
      "note": 69,
      "start": 34.5846,
      "duration": 0.2255,
      "velocity": 115,
      "chip": "ym2612"
    },
    {
      "channel": 1,
      "note": 52,
      "start": 34.6673,
      "duration": 0.1302,
      "velocity": 92,
      "chip": "ym2612"
    },
    {
      "channel": 3,
      "note": 45,
      "start": 34.8045,
      "duration": 0.0594,
      "velocity": 111,
      "chip": "ym2612"
    },
    {
      "channel": 0,
      "note": 57,
      "start": 34.8069,
      "duration": 0.0706,
      "velocity": 122,
      "chip": "ym2612"
    },
    {
      "channel": 1,
      "note": 57,
      "start": 34.809,
      "duration": 0.0287,
      "velocity": 92,
      "chip": "ym2612"
    },
    {
      "channel": 2,
      "note": 55,
      "start": 34.8123,
      "duration": 0.0654,
      "velocity": 101,
      "chip": "ym2612"
    },
    {
      "channel": 1,
      "note": 45,
      "start": 34.8436,
      "duration": 0.034,
      "velocity": 92,
      "chip": "ym2612"
    },
    {
      "channel": 0,
      "note": 57,
      "start": 34.8834,
      "duration": 0.0063,
      "velocity": 122,
      "chip": "ym2612"
    },
    {
      "channel": 1,
      "note": 52,
      "start": 34.8859,
      "duration": 0.0291,
      "velocity": 92,
      "chip": "ym2612"
    },
    {
      "channel": 2,
      "note": 56,
      "start": 34.8887,
      "duration": 0.0671,
      "velocity": 101,
      "chip": "ym2612"
    },
    {
      "channel": 0,
      "note": 57,
      "start": 34.921,
      "duration": 0.0076,
      "velocity": 122,
      "chip": "ym2612"
    },
    {
      "channel": 1,
      "note": 57,
      "start": 34.9234,
      "duration": 0.0185,
      "velocity": 92,
      "chip": "ym2612"
    },
    {
      "channel": 0,
      "note": 57,
      "start": 34.9627,
      "duration": 0.75,
      "velocity": 122,
      "chip": "ym2612"
    },
    {
      "channel": 3,
      "note": 60,
      "start": 34.9654,
      "duration": 0.2132,
      "velocity": 127,
      "chip": "ym2612"
    },
    {
      "channel": 4,
      "note": 57,
      "start": 34.9681,
      "duration": 0.2106,
      "velocity": 127,
      "chip": "ym2612"
    },
    {
      "channel": 2,
      "note": 57,
      "start": 34.9717,
      "duration": 0.107,
      "velocity": 101,
      "chip": "ym2612"
    },
    {
      "channel": 3,
      "note": 60,
      "start": 35.1851,
      "duration": 0.2213,
      "velocity": 127,
      "chip": "ym2612"
    },
    {
      "channel": 4,
      "note": 57,
      "start": 35.1875,
      "duration": 0.219,
      "velocity": 127,
      "chip": "ym2612"
    },
    {
      "channel": 1,
      "note": 57,
      "start": 35.1901,
      "duration": 0.2161,
      "velocity": 127,
      "chip": "ym2612"
    },
    {
      "channel": 2,
      "note": 57,
      "start": 35.1928,
      "duration": 0.0802,
      "velocity": 101,
      "chip": "ym2612"
    },
    {
      "channel": 3,
      "note": 60,
      "start": 35.4128,
      "duration": 0.0724,
      "velocity": 127,
      "chip": "ym2612"
    },
    {
      "channel": 4,
      "note": 57,
      "start": 35.4151,
      "duration": 0.0701,
      "velocity": 127,
      "chip": "ym2612"
    },
    {
      "channel": 1,
      "note": 60,
      "start": 35.4172,
      "duration": 0.0678,
      "velocity": 127,
      "chip": "ym2612"
    },
    {
      "channel": 2,
      "note": 57,
      "start": 35.4199,
      "duration": 0.0348,
      "velocity": 101,
      "chip": "ym2612"
    },
    {
      "channel": 3,
      "note": 60,
      "start": 35.4916,
      "duration": 0.2213,
      "velocity": 127,
      "chip": "ym2612"
    },
    {
      "channel": 4,
      "note": 57,
      "start": 35.494,
      "duration": 0.219,
      "velocity": 127,
      "chip": "ym2612"
    },
    {
      "channel": 1,
      "note": 64,
      "start": 35.4964,
      "duration": 0.4432,
      "velocity": 127,
      "chip": "ym2612"
    },
    {
      "channel": 2,
      "note": 57,
      "start": 35.4993,
      "duration": 0.1471,
      "velocity": 101,
      "chip": "ym2612"
    },
    {
      "channel": 0,
      "note": 55,
      "start": 35.7189,
      "duration": 0.7537,
      "velocity": 122,
      "chip": "ym2612"
    },
    {
      "channel": 3,
      "note": 60,
      "start": 35.7214,
      "duration": 0.2184,
      "velocity": 127,
      "chip": "ym2612"
    },
    {
      "channel": 4,
      "note": 55,
      "start": 35.724,
      "duration": 0.2159,
      "velocity": 127,
      "chip": "ym2612"
    },
    {
      "channel": 2,
      "note": 55,
      "start": 35.7268,
      "duration": 0.1131,
      "velocity": 101,
      "chip": "ym2612"
    },
    {
      "channel": 3,
      "note": 60,
      "start": 35.9462,
      "duration": 0.2204,
      "velocity": 127,
      "chip": "ym2612"
    },
    {
      "channel": 4,
      "note": 55,
      "start": 35.9486,
      "duration": 0.2182,
      "velocity": 127,
      "chip": "ym2612"
    },
    {
      "channel": 1,
      "note": 55,
      "start": 35.951,
      "duration": 0.2156,
      "velocity": 127,
      "chip": "ym2612"
    },
    {
      "channel": 2,
      "note": 55,
      "start": 35.9536,
      "duration": 0.0965,
      "velocity": 101,
      "chip": "ym2612"
    },
    {
      "channel": 3,
      "note": 60,
      "start": 36.1732,
      "duration": 0.0726,
      "velocity": 127,
      "chip": "ym2612"
    },
    {
      "channel": 4,
      "note": 55,
      "start": 36.1754,
      "duration": 0.0705,
      "velocity": 127,
      "chip": "ym2612"
    },
    {
      "channel": 1,
      "note": 60,
      "start": 36.1775,
      "duration": 0.0681,
      "velocity": 127,
      "chip": "ym2612"
    },
    {
      "channel": 2,
      "note": 55,
      "start": 36.1803,
      "duration": 0.0349,
      "velocity": 101,
      "chip": "ym2612"
    },
    {
      "channel": 3,
      "note": 60,
      "start": 36.2522,
      "duration": 0.2207,
      "velocity": 127,
      "chip": "ym2612"
    },
    {
      "channel": 4,
      "note": 55,
      "start": 36.2546,
      "duration": 0.2184,
      "velocity": 127,
      "chip": "ym2612"
    },
    {
      "channel": 1,
      "note": 64,
      "start": 36.2571,
      "duration": 0.2156,
      "velocity": 127,
      "chip": "ym2612"
    },
    {
      "channel": 2,
      "note": 55,
      "start": 36.2596,
      "duration": 0.1132,
      "velocity": 101,
      "chip": "ym2612"
    },
    {
      "channel": 0,
      "note": 54,
      "start": 36.4792,
      "duration": 0.7705,
      "velocity": 122,
      "chip": "ym2612"
    },
    {
      "channel": 3,
      "note": 62,
      "start": 36.4816,
      "duration": 0.2181,
      "velocity": 127,
      "chip": "ym2612"
    },
    {
      "channel": 4,
      "note": 54,
      "start": 36.4843,
      "duration": 0.2155,
      "velocity": 127,
      "chip": "ym2612"
    },
    {
      "channel": 2,
      "note": 54,
      "start": 36.4872,
      "duration": 0.1127,
      "velocity": 101,
      "chip": "ym2612"
    },
    {
      "channel": 3,
      "note": 62,
      "start": 36.706,
      "duration": 0.2205,
      "velocity": 127,
      "chip": "ym2612"
    },
    {
      "channel": 4,
      "note": 54,
      "start": 36.7083,
      "duration": 0.2183,
      "velocity": 127,
      "chip": "ym2612"
    },
    {
      "channel": 1,
      "note": 54,
      "start": 36.7106,
      "duration": 0.2158,
      "velocity": 127,
      "chip": "ym2612"
    },
    {
      "channel": 2,
      "note": 54,
      "start": 36.7134,
      "duration": 0.1132,
      "velocity": 101,
      "chip": "ym2612"
    },
    {
      "channel": 3,
      "note": 62,
      "start": 36.933,
      "duration": 0.0727,
      "velocity": 127,
      "chip": "ym2612"
    },
    {
      "channel": 4,
      "note": 54,
      "start": 36.9353,
      "duration": 0.0705,
      "velocity": 127,
      "chip": "ym2612"
    },
    {
      "channel": 1,
      "note": 57,
      "start": 36.9373,
      "duration": 0.0682,
      "velocity": 127,
      "chip": "ym2612"
    },
    {
      "channel": 2,
      "note": 54,
      "start": 36.9402,
      "duration": 0.0303,
      "velocity": 101,
      "chip": "ym2612"
    },
    {
      "channel": 3,
      "note": 62,
      "start": 37.0121,
      "duration": 0.2378,
      "velocity": 127,
      "chip": "ym2612"
    },
    {
      "channel": 4,
      "note": 54,
      "start": 37.0145,
      "duration": 0.2356,
      "velocity": 127,
      "chip": "ym2612"
    },
    {
      "channel": 1,
      "note": 62,
      "start": 37.0169,
      "duration": 0.4604,
      "velocity": 127,
      "chip": "ym2612"
    },
    {
      "channel": 2,
      "note": 54,
      "start": 37.0195,
      "duration": 0.0972,
      "velocity": 101,
      "chip": "ym2612"
    },
    {
      "channel": 0,
      "note": 53,
      "start": 37.256,
      "duration": 0.7548,
      "velocity": 122,
      "chip": "ym2612"
    },
    {
      "channel": 3,
      "note": 63,
      "start": 37.2583,
      "duration": 0.219,
      "velocity": 127,
      "chip": "ym2612"
    },
    {
      "channel": 4,
      "note": 53,
      "start": 37.2608,
      "duration": 0.2167,
      "velocity": 127,
      "chip": "ym2612"
    },
    {
      "channel": 2,
      "note": 53,
      "start": 37.2638,
      "duration": 0.0969,
      "velocity": 101,
      "chip": "ym2612"
    },
    {
      "channel": 3,
      "note": 63,
      "start": 37.4839,
      "duration": 0.2206,
      "velocity": 127,
      "chip": "ym2612"
    },
    {
      "channel": 4,
      "note": 53,
      "start": 37.4863,
      "duration": 0.2183,
      "velocity": 127,
      "chip": "ym2612"
    },
    {
      "channel": 1,
      "note": 53,
      "start": 37.4887,
      "duration": 0.2156,
      "velocity": 127,
      "chip": "ym2612"
    },
    {
      "channel": 2,
      "note": 53,
      "start": 37.4919,
      "duration": 0.0793,
      "velocity": 101,
      "chip": "ym2612"
    },
    {
      "channel": 3,
      "note": 63,
      "start": 37.711,
      "duration": 0.0722,
      "velocity": 127,
      "chip": "ym2612"
    },
    {
      "channel": 4,
      "note": 53,
      "start": 37.7133,
      "duration": 0.07,
      "velocity": 127,
      "chip": "ym2612"
    },
    {
      "channel": 1,
      "note": 57,
      "start": 37.7154,
      "duration": 0.0677,
      "velocity": 127,
      "chip": "ym2612"
    },
    {
      "channel": 2,
      "note": 53,
      "start": 37.7182,
      "duration": 0.0302,
      "velocity": 101,
      "chip": "ym2612"
    },
    {
      "channel": 3,
      "note": 63,
      "start": 37.7899,
      "duration": 0.2211,
      "velocity": 127,
      "chip": "ym2612"
    },
    {
      "channel": 4,
      "note": 53,
      "start": 37.7922,
      "duration": 0.219,
      "velocity": 127,
      "chip": "ym2612"
    },
    {
      "channel": 1,
      "note": 63,
      "start": 37.7943,
      "duration": 0.2166,
      "velocity": 127,
      "chip": "ym2612"
    },
    {
      "channel": 2,
      "note": 53,
      "start": 37.7971,
      "duration": 0.0805,
      "velocity": 101,
      "chip": "ym2612"
    },
    {
      "channel": 0,
      "note": 52,
      "start": 38.0178,
      "duration": 0.2204,
      "velocity": 122,
      "chip": "ym2612"
    },
    {
      "channel": 3,
      "note": 59,
      "start": 38.0202,
      "duration": 0.0098,
      "velocity": 127,
      "chip": "ym2612"
    },
    {
      "channel": 4,
      "note": 52,
      "start": 38.0229,
      "duration": 0.2158,
      "velocity": 127,
      "chip": "ym2612"
    },
    {
      "channel": 1,
      "note": 52,
      "start": 38.0254,
      "duration": 0.2129,
      "velocity": 127,
      "chip": "ym2612"
    },
    {
      "channel": 2,
      "note": 45,
      "start": 38.0292,
      "duration": 0.2096,
      "velocity": 121,
      "chip": "ym2612"
    },
    {
      "channel": 3,
      "note": 52,
      "start": 38.0321,
      "duration": 0.2064,
      "velocity": 101,
      "chip": "ym2612"
    },
    {
      "channel": 2,
      "note": 45,
      "start": 38.4951,
      "duration": 0.0521,
      "velocity": 121,
      "chip": "ym2612"
    },
    {
      "channel": 2,
      "note": 45,
      "start": 38.8217,
      "duration": 0.1608,
      "velocity": 121,
      "chip": "ym2612"
    },
    {
      "channel": 2,
      "note": 45,
      "start": 39.2176,
      "duration": 0.0621,
      "velocity": 121,
      "chip": "ym2612"
    },
    {
      "channel": 2,
      "note": 45,
      "start": 39.5248,
      "duration": 0.2206,
      "velocity": 121,
      "chip": "ym2612"
    },
    {
      "channel": 3,
      "note": 52,
      "start": 39.5271,
      "duration": 0.4046,
      "velocity": 101,
      "chip": "ym2612"
    },
    {
      "channel": 2,
      "note": 45,
      "start": 39.8855,
      "duration": 0.0598,
      "velocity": 121,
      "chip": "ym2612"
    },
    {
      "channel": 3,
      "note": 62,
      "start": 39.9584,
      "duration": 0.0377,
      "velocity": 101,
      "chip": "ym2612"
    },
    {
      "channel": 3,
      "note": 64,
      "start": 40.0034,
      "duration": 0.1146,
      "velocity": 101,
      "chip": "ym2612"
    },
    {
      "channel": 2,
      "note": 45,
      "start": 40.0369,
      "duration": 0.0707,
      "velocity": 121,
      "chip": "ym2612"
    },
    {
      "channel": 3,
      "note": 52,
      "start": 40.1254,
      "duration": 0.2762,
      "velocity": 101,
      "chip": "ym2612"
    },
    {
      "channel": 2,
      "note": 45,
      "start": 40.2551,
      "duration": 0.1134,
      "velocity": 121,
      "chip": "ym2612"
    },
    {
      "channel": 3,
      "note": 54,
      "start": 40.4085,
      "duration": 0.0313,
      "velocity": 101,
      "chip": "ym2612"
    },
    {
      "channel": 3,
      "note": 55,
      "start": 40.4473,
      "duration": 0.034,
      "velocity": 101,
      "chip": "ym2612"
    },
    {
      "channel": 0,
      "note": 45,
      "start": 40.4898,
      "duration": 0.2123,
      "velocity": 111,
      "chip": "ym2612"
    },
    {
      "channel": 1,
      "note": 57,
      "start": 40.4932,
      "duration": 0.2091,
      "velocity": 122,
      "chip": "ym2612"
    },
    {
      "channel": 4,
      "note": 64,
      "start": 40.498,
      "duration": 0.2044,
      "velocity": 127,
      "chip": "ym2612"
    },
    {
      "channel": 2,
      "note": 45,
      "start": 40.5005,
      "duration": 0.2021,
      "velocity": 127,
      "chip": "ym2612"
    },
    {
      "channel": 3,
      "note": 45,
      "start": 40.506,
      "duration": 0.1462,
      "velocity": 121,
      "chip": "ym2612"
    }
  ]
}