{
  "track_name": "07 - Rapids (Stage 1) ~ Factory (Stage 3)",
  "duration_sec": 98.915,
  "sample_rate": 44100,
  "note_count": 2007,
  "unique_pitches": 32,
  "pitch_range": 58,
  "avg_note_duration": 0.0891,
  "reconstruction_stats": {
    "notes_reconstructed": 2007,
    "keyon_events": 2007,
    "keyoff_events": 2007,
    "orphan_keyons": 0,
    "unique_pitches": 32,
    "pitch_range": 58,
    "avg_duration_sec": 0.0891
  },
  "metadata": {
    "source": "Z\\Zero the Kamikaze Squirrel\\07 - Rapids (Stage 1) ~ Factory (Stage 3).vgm"
  },
  "notes": [
    {
      "channel": 0,
      "note": 33,
      "start": 0.0022,
      "duration": 0.0773,
      "velocity": 113,
      "chip": "ym2612"
    },
    {
      "channel": 3,
      "note": 37,
      "start": 0.0101,
      "duration": 0.0205,
      "velocity": 98,
      "chip": "ym2612"
    },
    {
      "channel": 1,
      "note": 49,
      "start": 0.0161,
      "duration": 0.03,
      "velocity": 98,
      "chip": "ym2612"
    },
    {
      "channel": 4,
      "note": 73,
      "start": 0.0263,
      "duration": 0.02,
      "velocity": 97,
      "chip": "ym2612"
    },
    {
      "channel": 5,
      "note": 91,
      "start": 0.1995,
      "duration": 0.0302,
      "velocity": 127,
      "chip": "ym2612"
    },
    {
      "channel": 3,
      "note": 37,
      "start": 0.2021,
      "duration": 0.1442,
      "velocity": 98,
      "chip": "ym2612"
    },
    {
      "channel": 1,
      "note": 49,
      "start": 0.2049,
      "duration": 0.1246,
      "velocity": 98,
      "chip": "ym2612"
    },
    {
      "channel": 4,
      "note": 78,
      "start": 0.2079,
      "duration": 0.0384,
      "velocity": 97,
      "chip": "ym2612"
    },
    {
      "channel": 5,
      "note": 79,
      "start": 0.3824,
      "duration": 0.0306,
      "velocity": 127,
      "chip": "ym2612"
    },
    {
      "channel": 3,
      "note": 49,
      "start": 0.3849,
      "duration": 0.1613,
      "velocity": 98,
      "chip": "ym2612"
    },
    {
      "channel": 1,
      "note": 61,
      "start": 0.3876,
      "duration": 0.1419,
      "velocity": 98,
      "chip": "ym2612"
    },
    {
      "channel": 4,
      "note": 80,
      "start": 0.3906,
      "duration": 0.0391,
      "velocity": 97,
      "chip": "ym2612"
    },
    {
      "channel": 5,
      "note": 91,
      "start": 0.5826,
      "duration": 0.0305,
      "velocity": 127,
      "chip": "ym2612"
    },
    {
      "channel": 3,
      "note": 37,
      "start": 0.5856,
      "duration": 0.0607,
      "velocity": 98,
      "chip": "ym2612"
    },
    {
      "channel": 1,
      "note": 49,
      "start": 0.5888,
      "duration": 0.0907,
      "velocity": 98,
      "chip": "ym2612"
    },
    {
      "channel": 4,
      "note": 73,
      "start": 0.5918,
      "duration": 0.0378,
      "velocity": 97,
      "chip": "ym2612"
    },
    {
      "channel": 0,
      "note": 33,
      "start": 0.7654,
      "duration": 0.0807,
      "velocity": 113,
      "chip": "ym2612"
    },
    {
      "channel": 3,
      "note": 37,
      "start": 0.768,
      "duration": 0.0615,
      "velocity": 98,
      "chip": "ym2612"
    },
    {
      "channel": 1,
      "note": 59,
      "start": 0.771,
      "duration": 0.1419,
      "velocity": 98,
      "chip": "ym2612"
    },
    {
      "channel": 4,
      "note": 85,
      "start": 0.7744,
      "duration": 0.0385,
      "velocity": 97,
      "chip": "ym2612"
    },
    {
      "channel": 5,
      "note": 91,
      "start": 0.9663,
      "duration": 0.03,
      "velocity": 127,
      "chip": "ym2612"
    },
    {
      "channel": 3,
      "note": 37,
      "start": 0.969,
      "duration": 0.1439,
      "velocity": 98,
      "chip": "ym2612"
    },
    {
      "channel": 4,
      "note": 73,
      "start": 0.9721,
      "duration": 0.0409,
      "velocity": 97,
      "chip": "ym2612"
    },
    {
      "channel": 5,
      "note": 79,
      "start": 1.1658,
      "duration": 0.0305,
      "velocity": 127,
      "chip": "ym2612"
    },
    {
      "channel": 3,
      "note": 49,
      "start": 1.1683,
      "duration": 0.128,
      "velocity": 98,
      "chip": "ym2612"
    },
    {
      "channel": 4,
      "note": 80,
      "start": 1.1714,
      "duration": 0.0416,
      "velocity": 97,
      "chip": "ym2612"
    },
    {
      "channel": 5,
      "note": 91,
      "start": 1.3493,
      "duration": 0.0304,
      "velocity": 127,
      "chip": "ym2612"
    },
    {
      "channel": 3,
      "note": 37,
      "start": 1.352,
      "duration": 0.0609,
      "velocity": 98,
      "chip": "ym2612"
    },
    {
      "channel": 1,
      "note": 49,
      "start": 1.3549,
      "duration": 0.108,
      "velocity": 98,
      "chip": "ym2612"
    },
    {
      "channel": 4,
      "note": 85,
      "start": 1.3579,
      "duration": 0.0384,
      "velocity": 97,
      "chip": "ym2612"
    },
    {
      "channel": 0,
      "note": 33,
      "start": 1.5492,
      "duration": 0.0803,
      "velocity": 113,
      "chip": "ym2612"
    },
    {
      "channel": 3,
      "note": 37,
      "start": 1.5518,
      "duration": 0.0611,
      "velocity": 98,
      "chip": "ym2612"
    },
    {
      "channel": 4,
      "note": 73,
      "start": 1.5549,
      "duration": 0.0414,
      "velocity": 97,
      "chip": "ym2612"
    },
    {
      "channel": 5,
      "note": 91,
      "start": 1.7327,
      "duration": 0.0303,
      "velocity": 127,
      "chip": "ym2612"
    },
    {
      "channel": 3,
      "note": 37,
      "start": 1.7354,
      "duration": 0.111,
      "velocity": 98,
      "chip": "ym2612"
    },
    {
      "channel": 1,
      "note": 49,
      "start": 1.738,
      "duration": 0.1081,
      "velocity": 98,
      "chip": "ym2612"
    },
    {
      "channel": 4,
      "note": 80,
      "start": 1.741,
      "duration": 0.0387,
      "velocity": 97,
      "chip": "ym2612"
    },
    {
      "channel": 5,
      "note": 79,
      "start": 1.9326,
      "duration": 0.0304,
      "velocity": 127,
      "chip": "ym2612"
    },
    {
      "channel": 3,
      "note": 49,
      "start": 1.9352,
      "duration": 0.1443,
      "velocity": 98,
      "chip": "ym2612"
    },
    {
      "channel": 4,
      "note": 73,
      "start": 1.9383,
      "duration": 0.0414,
      "velocity": 97,
      "chip": "ym2612"
    },
    {
      "channel": 5,
      "note": 91,
      "start": 2.1326,
      "duration": 0.0303,
      "velocity": 127,
      "chip": "ym2612"
    },
    {
      "channel": 3,
      "note": 37,
      "start": 2.1352,
      "duration": 0.1109,
      "velocity": 98,
      "chip": "ym2612"
    },
    {
      "channel": 1,
      "note": 49,
      "start": 2.1382,
      "duration": 0.1247,
      "velocity": 98,
      "chip": "ym2612"
    },
    {
      "channel": 4,
      "note": 78,
      "start": 2.1412,
      "duration": 0.024,
      "velocity": 97,
      "chip": "ym2612"
    },
    {
      "channel": 0,
      "note": 33,
      "start": 2.3155,
      "duration": 0.0806,
      "velocity": 113,
      "chip": "ym2612"
    },
    {
      "channel": 3,
      "note": 40,
      "start": 2.3181,
      "duration": 0.1281,
      "velocity": 98,
      "chip": "ym2612"
    },
    {
      "channel": 1,
      "note": 52,
      "start": 2.3209,
      "duration": 0.1087,
      "velocity": 98,
      "chip": "ym2612"
    },
    {
      "channel": 4,
      "note": 83,
      "start": 2.3239,
      "duration": 0.0391,
      "velocity": 97,
      "chip": "ym2612"
    },
    {
      "channel": 5,
      "note": 91,
      "start": 2.516,
      "duration": 0.0303,
      "velocity": 127,
      "chip": "ym2612"
    },
    {
      "channel": 3,
      "note": 37,
      "start": 2.519,
      "duration": 0.1438,
      "velocity": 98,
      "chip": "ym2612"
    },
    {
      "channel": 1,
      "note": 49,
      "start": 2.5218,
      "duration": 0.1244,
      "velocity": 98,
      "chip": "ym2612"
    },
    {
      "channel": 4,
      "note": 73,
      "start": 2.5249,
      "duration": 0.038,
      "velocity": 97,
      "chip": "ym2612"
    },
    {
      "channel": 5,
      "note": 79,
      "start": 2.6992,
      "duration": 0.0305,
      "velocity": 127,
      "chip": "ym2612"
    },
    {
      "channel": 3,
      "note": 42,
      "start": 2.7018,
      "duration": 0.0945,
      "velocity": 98,
      "chip": "ym2612"
    },
    {
      "channel": 1,
      "note": 54,
      "start": 2.7048,
      "duration": 0.1414,
      "velocity": 98,
      "chip": "ym2612"
    },
    {
      "channel": 4,
      "note": 78,
      "start": 2.7079,
      "duration": 0.0384,
      "velocity": 97,
      "chip": "ym2612"
    },
    {
      "channel": 5,
      "note": 91,
      "start": 2.8993,
      "duration": 0.0303,
      "velocity": 127,
      "chip": "ym2612"
    },
    {
      "channel": 3,
      "note": 40,
      "start": 2.9019,
      "duration": 0.0777,
      "velocity": 98,
      "chip": "ym2612"
    },
    {
      "channel": 1,
      "note": 52,
      "start": 2.9048,
      "duration": 0.0913,
      "velocity": 98,
      "chip": "ym2612"
    },
    {
      "channel": 4,
      "note": 80,
      "start": 2.9078,
      "duration": 0.0385,
      "velocity": 97,
      "chip": "ym2612"
    },
    {
      "channel": 0,
      "note": 33,
      "start": 3.099,
      "duration": 0.0638,
      "velocity": 113,
      "chip": "ym2612"
    },
    {
      "channel": 3,
      "note": 37,
      "start": 3.1017,
      "duration": 0.0445,
      "velocity": 98,
      "chip": "ym2612"
    },
    {
      "channel": 1,
      "note": 49,
      "start": 3.1044,
      "duration": 0.0751,
      "velocity": 98,
      "chip": "ym2612"
    },
    {
      "channel": 4,
      "note": 73,
      "start": 3.1074,
      "duration": 0.0222,
      "velocity": 97,
      "chip": "ym2612"
    },
    {
      "channel": 0,
      "note": 33,
      "start": 3.2822,
      "duration": 0.0805,
      "velocity": 113,
      "chip": "ym2612"
    },
    {
      "channel": 3,
      "note": 37,
      "start": 3.285,
      "duration": 0.1612,
      "velocity": 98,
      "chip": "ym2612"
    },
    {
      "channel": 1,
      "note": 49,
      "start": 3.2878,
      "duration": 0.1417,
      "velocity": 98,
      "chip": "ym2612"
    },
    {
      "channel": 4,
      "note": 78,
      "start": 3.2908,
      "duration": 0.0388,
      "velocity": 97,
      "chip": "ym2612"
    },
    {
      "channel": 5,
      "note": 79,
      "start": 3.4827,
      "duration": 0.0304,
      "velocity": 127,
      "chip": "ym2612"
    },
    {
      "channel": 3,
      "note": 49,
      "start": 3.4853,
      "duration": 0.1277,
      "velocity": 98,
      "chip": "ym2612"
    },
    {
      "channel": 1,
      "note": 61,
      "start": 3.488,
      "duration": 0.1249,
      "velocity": 98,
      "chip": "ym2612"
    },
    {
      "channel": 4,
      "note": 80,
      "start": 3.491,
      "duration": 0.0387,
      "velocity": 97,
      "chip": "ym2612"
    },
    {
      "channel": 5,
      "note": 91,
      "start": 3.6663,
      "duration": 0.03,
      "velocity": 127,
      "chip": "ym2612"
    },
    {
      "channel": 3,
      "note": 37,
      "start": 3.669,
      "duration": 0.0606,
      "velocity": 98,
      "chip": "ym2612"
    },
    {
      "channel": 1,
      "note": 49,
      "start": 3.6718,
      "duration": 0.1078,
      "velocity": 98,
      "chip": "ym2612"
    },
    {
      "channel": 4,
      "note": 73,
      "start": 3.6748,
      "duration": 0.0382,
      "velocity": 97,
      "chip": "ym2612"
    },
    {
      "channel": 0,
      "note": 33,
      "start": 3.8656,
      "duration": 0.0805,
      "velocity": 113,
      "chip": "ym2612"
    },
    {
      "channel": 3,
      "note": 37,
      "start": 3.8684,
      "duration": 0.078,
      "velocity": 98,
      "chip": "ym2612"
    },
    {
      "channel": 1,
      "note": 59,
      "start": 3.8714,
      "duration": 0.1415,
      "velocity": 98,
      "chip": "ym2612"
    },
    {
      "channel": 4,
      "note": 85,
      "start": 3.8747,
      "duration": 0.0383,
      "velocity": 97,
      "chip": "ym2612"
    },
    {
      "channel": 5,
      "note": 91,
      "start": 4.066,
      "duration": 0.0136,
      "velocity": 127,
      "chip": "ym2612"
    },
    {
      "channel": 3,
      "note": 37,
      "start": 4.069,
      "duration": 0.1272,
      "velocity": 98,
      "chip": "ym2612"
    },
    {
      "channel": 4,
      "note": 73,
      "start": 4.0721,
      "duration": 0.0242,
      "velocity": 97,
      "chip": "ym2612"
    },
    {
      "channel": 5,
      "note": 79,
      "start": 4.2491,
      "duration": 0.0305,
      "velocity": 127,
      "chip": "ym2612"
    },
    {
      "channel": 3,
      "note": 49,
      "start": 4.2516,
      "duration": 0.1446,
      "velocity": 98,
      "chip": "ym2612"
    },
    {
      "channel": 4,
      "note": 73,
      "start": 4.2547,
      "duration": 0.0416,
      "velocity": 97,
      "chip": "ym2612"
    },
    {
      "channel": 5,
      "note": 91,
      "start": 4.4493,
      "duration": 0.0303,
      "velocity": 127,
      "chip": "ym2612"
    },
    {
      "channel": 3,
      "note": 37,
      "start": 4.4519,
      "duration": 0.0611,
      "velocity": 98,
      "chip": "ym2612"
    },
    {
      "channel": 1,
      "note": 49,
      "start": 4.4549,
      "duration": 0.108,
      "velocity": 98,
      "chip": "ym2612"
    },
    {
      "channel": 4,
      "note": 85,
      "start": 4.4579,
      "duration": 0.0384,
      "velocity": 97,
      "chip": "ym2612"
    },
    {
      "channel": 0,
      "note": 33,
      "start": 4.6322,
      "duration": 0.0806,
      "velocity": 113,
      "chip": "ym2612"
    },
    {
      "channel": 3,
      "note": 37,
      "start": 4.6347,
      "duration": 0.0616,
      "velocity": 98,
      "chip": "ym2612"
    },
    {
      "channel": 4,
      "note": 73,
      "start": 4.6378,
      "duration": 0.0417,
      "velocity": 97,
      "chip": "ym2612"
    },
    {
      "channel": 5,
      "note": 91,
      "start": 4.8327,
      "duration": 0.0304,
      "velocity": 127,
      "chip": "ym2612"
    },
    {
      "channel": 3,
      "note": 37,
      "start": 4.8353,
      "duration": 0.1443,
      "velocity": 98,
      "chip": "ym2612"
    },
    {
      "channel": 1,
      "note": 49,
      "start": 4.838,
      "duration": 0.1247,
      "velocity": 98,
      "chip": "ym2612"
    },
    {
      "channel": 4,
      "note": 73,
      "start": 4.841,
      "duration": 0.0386,
      "velocity": 97,
      "chip": "ym2612"
    },
    {
      "channel": 5,
      "note": 79,
      "start": 5.0158,
      "duration": 0.0305,
      "velocity": 127,
      "chip": "ym2612"
    },
    {
      "channel": 3,
      "note": 49,
      "start": 5.0184,
      "duration": 0.1613,
      "velocity": 98,
      "chip": "ym2612"
    },
    {
      "channel": 4,
      "note": 78,
      "start": 5.0215,
      "duration": 0.0415,
      "velocity": 97,
      "chip": "ym2612"
    },
    {
      "channel": 5,
      "note": 91,
      "start": 5.216,
      "duration": 0.0303,
      "velocity": 127,
      "chip": "ym2612"
    },
    {
      "channel": 3,
      "note": 37,
      "start": 5.2186,
      "duration": 0.1276,
      "velocity": 98,
      "chip": "ym2612"
    },
    {
      "channel": 1,
      "note": 49,
      "start": 5.2219,
      "duration": 0.141,
      "velocity": 98,
      "chip": "ym2612"
    },
    {
      "channel": 4,
      "note": 73,
      "start": 5.2249,
      "duration": 0.038,
      "velocity": 97,
      "chip": "ym2612"
    },
    {
      "channel": 0,
      "note": 33,
      "start": 5.4154,
      "duration": 0.0662,
      "velocity": 113,
      "chip": "ym2612"
    },
    {
      "channel": 3,
      "note": 40,
      "start": 5.418,
      "duration": 0.1117,
      "velocity": 98,
      "chip": "ym2612"
    },
    {
      "channel": 1,
      "note": 52,
      "start": 5.4209,
      "duration": 0.1087,
      "velocity": 98,
      "chip": "ym2612"
    },
    {
      "channel": 4,
      "note": 83,
      "start": 5.4239,
      "duration": 0.039,
      "velocity": 97,
      "chip": "ym2612"
    },
    {
      "channel": 5,
      "note": 91,
      "start": 5.5993,
      "duration": 0.0304,
      "velocity": 127,
      "chip": "ym2612"
    },
    {
      "channel": 3,
      "note": 37,
      "start": 5.602,
      "duration": 0.1776,
      "velocity": 98,
      "chip": "ym2612"
    },
    {
      "channel": 1,
      "note": 49,
      "start": 5.6048,
      "duration": 0.1413,
      "velocity": 98,
      "chip": "ym2612"
    },
    {
      "channel": 4,
      "note": 73,
      "start": 5.6078,
      "duration": 0.0385,
      "velocity": 97,
      "chip": "ym2612"
    },
    {
      "channel": 5,
      "note": 79,
      "start": 5.7991,
      "duration": 0.0306,
      "velocity": 127,
      "chip": "ym2612"
    },
    {
      "channel": 3,
      "note": 42,
      "start": 5.8021,
      "duration": 0.0941,
      "velocity": 98,
      "chip": "ym2612"
    },
    {
      "channel": 1,
      "note": 54,
      "start": 5.8049,
      "duration": 0.1246,
      "velocity": 98,
      "chip": "ym2612"
    },
    {
      "channel": 4,
      "note": 78,
      "start": 5.8079,
      "duration": 0.0384,
      "velocity": 97,
      "chip": "ym2612"
    },
    {
      "channel": 5,
      "note": 79,
      "start": 5.9826,
      "duration": 0.0305,
      "velocity": 127,
      "chip": "ym2612"
    },
    {
      "channel": 3,
      "note": 40,
      "start": 5.985,
      "duration": 0.0945,
      "velocity": 98,
      "chip": "ym2612"
    },
    {
      "channel": 1,
      "note": 52,
      "start": 5.9878,
      "duration": 0.1084,
      "velocity": 98,
      "chip": "ym2612"
    },
    {
      "channel": 4,
      "note": 80,
      "start": 5.9909,
      "duration": 0.0388,
      "velocity": 97,
      "chip": "ym2612"
    },
    {
      "channel": 0,
      "note": 33,
      "start": 6.1822,
      "duration": 0.0806,
      "velocity": 113,
      "chip": "ym2612"
    },
    {
      "channel": 3,
      "note": 37,
      "start": 6.1863,
      "duration": 0.06,
      "velocity": 98,
      "chip": "ym2612"
    },
    {
      "channel": 1,
      "note": 49,
      "start": 6.1892,
      "duration": 0.0902,
      "velocity": 98,
      "chip": "ym2612"
    },
    {
      "channel": 4,
      "note": 73,
      "start": 6.1922,
      "duration": 0.0374,
      "velocity": 97,
      "chip": "ym2612"
    },
    {
      "channel": 5,
      "note": 91,
      "start": 6.3827,
      "duration": 0.0304,
      "velocity": 127,
      "chip": "ym2612"
    },
    {
      "channel": 3,
      "note": 37,
      "start": 6.3853,
      "duration": 0.1277,
      "velocity": 98,
      "chip": "ym2612"
    },
    {
      "channel": 1,
      "note": 49,
      "start": 6.3882,
      "duration": 0.1247,
      "velocity": 98,
      "chip": "ym2612"
    },
    {
      "channel": 4,
      "note": 78,
      "start": 6.3912,
      "duration": 0.0385,
      "velocity": 97,
      "chip": "ym2612"
    },
    {
      "channel": 5,
      "note": 79,
      "start": 6.5658,
      "duration": 0.0305,
      "velocity": 127,
      "chip": "ym2612"
    },
    {
      "channel": 3,
      "note": 49,
      "start": 6.5684,
      "duration": 0.1612,
      "velocity": 98,
      "chip": "ym2612"
    },
    {
      "channel": 1,
      "note": 61,
      "start": 6.5711,
      "duration": 0.1417,
      "velocity": 98,
      "chip": "ym2612"
    },
    {
      "channel": 4,
      "note": 80,
      "start": 6.5741,
      "duration": 0.0388,
      "velocity": 97,
      "chip": "ym2612"
    },
    {
      "channel": 5,
      "note": 91,
      "start": 6.7659,
      "duration": 0.0305,
      "velocity": 127,
      "chip": "ym2612"
    },
    {
      "channel": 3,
      "note": 37,
      "start": 6.7686,
      "duration": 0.0609,
      "velocity": 98,
      "chip": "ym2612"
    },
    {
      "channel": 1,
      "note": 49,
      "start": 6.7716,
      "duration": 0.1267,
      "velocity": 98,
      "chip": "ym2612"
    },
    {
      "channel": 4,
      "note": 73,
      "start": 6.7746,
      "duration": 0.0384,
      "velocity": 97,
      "chip": "ym2612"
    },
    {
      "channel": 0,
      "note": 33,
      "start": 6.9488,
      "duration": 0.0807,
      "velocity": 113,
      "chip": "ym2612"
    },
    {
      "channel": 3,
      "note": 37,
      "start": 6.9515,
      "duration": 0.0782,
      "velocity": 98,
      "chip": "ym2612"
    },
    {
      "channel": 1,
      "note": 59,
      "start": 6.9542,
      "duration": 0.142,
      "velocity": 98,
      "chip": "ym2612"
    },
    {
      "channel": 4,
      "note": 85,
      "start": 6.9576,
      "duration": 0.0387,
      "velocity": 97,
      "chip": "ym2612"
    },
    {
      "channel": 5,
      "note": 91,
      "start": 7.1492,
      "duration": 0.0304,
      "velocity": 127,
      "chip": "ym2612"
    },
    {
      "channel": 3,
      "note": 37,
      "start": 7.1519,
      "duration": 0.1443,
      "velocity": 98,
      "chip": "ym2612"
    },
    {
      "channel": 1,
      "note": 49,
      "start": 7.1549,
      "duration": 0.108,
      "velocity": 98,
      "chip": "ym2612"
    },
    {
      "channel": 4,
      "note": 73,
      "start": 7.1579,
      "duration": 0.0384,
      "velocity": 97,
      "chip": "ym2612"
    },
    {
      "channel": 5,
      "note": 79,
      "start": 7.3491,
      "duration": 0.0306,
      "velocity": 127,
      "chip": "ym2612"
    },
    {
      "channel": 3,
      "note": 49,
      "start": 7.3516,
      "duration": 0.128,
      "velocity": 98,
      "chip": "ym2612"
    },
    {
      "channel": 4,
      "note": 73,
      "start": 7.3547,
      "duration": 0.0272,
      "velocity": 97,
      "chip": "ym2612"
    },
    {
      "channel": 5,
      "note": 91,
      "start": 7.5326,
      "duration": 0.0303,
      "velocity": 127,
      "chip": "ym2612"
    },
    {
      "channel": 3,
      "note": 37,
      "start": 7.5356,
      "duration": 0.0605,
      "velocity": 98,
      "chip": "ym2612"
    },
    {
      "channel": 1,
      "note": 49,
      "start": 7.5385,
      "duration": 0.1244,
      "velocity": 98,
      "chip": "ym2612"
    },
    {
      "channel": 4,
      "note": 85,
      "start": 7.5415,
      "duration": 0.0382,
      "velocity": 97,
      "chip": "ym2612"
    },
    {
      "channel": 0,
      "note": 33,
      "start": 7.7323,
      "duration": 0.0805,
      "velocity": 113,
      "chip": "ym2612"
    },
    {
      "channel": 3,
      "note": 37,
      "start": 7.735,
      "duration": 0.078,
      "velocity": 98,
      "chip": "ym2612"
    },
    {
      "channel": 4,
      "note": 73,
      "start": 7.7382,
      "duration": 0.0414,
      "velocity": 97,
      "chip": "ym2612"
    },
    {
      "channel": 0,
      "note": 33,
      "start": 7.9156,
      "duration": 0.0805,
      "velocity": 113,
      "chip": "ym2612"
    },
    {
      "channel": 5,
      "note": 91,
      "start": 7.9184,
      "duration": 0.028,
      "velocity": 127,
      "chip": "ym2612"
    },
    {
      "channel": 3,
      "note": 37,
      "start": 7.921,
      "duration": 0.1421,
      "velocity": 98,
      "chip": "ym2612"
    },
    {
      "channel": 1,
      "note": 49,
      "start": 7.9238,
      "duration": 0.1391,
      "velocity": 98,
      "chip": "ym2612"
    },
    {
      "channel": 4,
      "note": 73,
      "start": 7.9268,
      "duration": 0.0362,
      "velocity": 97,
      "chip": "ym2612"
    },
    {
      "channel": 5,
      "note": 79,
      "start": 8.1158,
      "duration": 0.0306,
      "velocity": 127,
      "chip": "ym2612"
    },
    {
      "channel": 3,
      "note": 49,
      "start": 8.1183,
      "duration": 0.1446,
      "velocity": 98,
      "chip": "ym2612"
    },
    {
      "channel": 4,
      "note": 80,
      "start": 8.1214,
      "duration": 0.0415,
      "velocity": 97,
      "chip": "ym2612"
    },
    {
      "channel": 5,
      "note": 91,
      "start": 8.3163,
      "duration": 0.0156,
      "velocity": 127,
      "chip": "ym2612"
    },
    {
      "channel": 3,
      "note": 37,
      "start": 8.319,
      "duration": 0.0773,
      "velocity": 98,
      "chip": "ym2612"
    },
    {
      "channel": 1,
      "note": 49,
      "start": 8.3218,
      "duration": 0.1244,
      "velocity": 98,
      "chip": "ym2612"
    },
    {
      "channel": 4,
      "note": 73,
      "start": 8.3248,
      "duration": 0.0214,
      "velocity": 97,
      "chip": "ym2612"
    },
    {
      "channel": 0,
      "note": 33,
      "start": 8.4993,
      "duration": 0.0801,
      "velocity": 113,
      "chip": "ym2612"
    },
    {
      "channel": 3,
      "note": 40,
      "start": 8.5019,
      "duration": 0.0944,
      "velocity": 98,
      "chip": "ym2612"
    },
    {
      "channel": 1,
      "note": 52,
      "start": 8.5046,
      "duration": 0.1416,
      "velocity": 98,
      "chip": "ym2612"
    },
    {
      "channel": 4,
      "note": 83,
      "start": 8.5076,
      "duration": 0.0388,
      "velocity": 97,
      "chip": "ym2612"
    },
    {
      "channel": 5,
      "note": 91,
      "start": 8.6993,
      "duration": 0.0303,
      "velocity": 127,
      "chip": "ym2612"
    },
    {
      "channel": 3,
      "note": 37,
      "start": 8.7019,
      "duration": 0.1111,
      "velocity": 98,
      "chip": "ym2612"
    },
    {
      "channel": 1,
      "note": 49,
      "start": 8.7046,
      "duration": 0.1249,
      "velocity": 98,
      "chip": "ym2612"
    },
    {
      "channel": 4,
      "note": 73,
      "start": 8.7076,
      "duration": 0.0387,
      "velocity": 97,
      "chip": "ym2612"
    },
    {
      "channel": 5,
      "note": 79,
      "start": 8.8826,
      "duration": 0.0305,
      "velocity": 127,
      "chip": "ym2612"
    },
    {
      "channel": 3,
      "note": 42,
      "start": 8.8852,
      "duration": 0.0777,
      "velocity": 98,
      "chip": "ym2612"
    },
    {
      "channel": 1,
      "note": 54,
      "start": 8.888,
      "duration": 0.1082,
      "velocity": 98,
      "chip": "ym2612"
    },
    {
      "channel": 4,
      "note": 78,
      "start": 8.891,
      "duration": 0.0386,
      "velocity": 97,
      "chip": "ym2612"
    },
    {
      "channel": 5,
      "note": 91,
      "start": 9.0826,
      "duration": 0.0303,
      "velocity": 127,
      "chip": "ym2612"
    },
    {
      "channel": 3,
      "note": 40,
      "start": 9.0851,
      "duration": 0.0778,
      "velocity": 98,
      "chip": "ym2612"
    },
    {
      "channel": 1,
      "note": 52,
      "start": 9.0883,
      "duration": 0.0912,
      "velocity": 98,
      "chip": "ym2612"
    },
    {
      "channel": 4,
      "note": 80,
      "start": 9.0913,
      "duration": 0.0382,
      "velocity": 97,
      "chip": "ym2612"
    },
    {
      "channel": 0,
      "note": 33,
      "start": 9.2676,
      "duration": 0.0785,
      "velocity": 113,
      "chip": "ym2612"
    },
    {
      "channel": 3,
      "note": 37,
      "start": 9.2702,
      "duration": 0.0761,
      "velocity": 98,
      "chip": "ym2612"
    },
    {
      "channel": 1,
      "note": 49,
      "start": 9.273,
      "duration": 0.1065,
      "velocity": 98,
      "chip": "ym2612"
    },
    {
      "channel": 4,
      "note": 73,
      "start": 9.276,
      "duration": 0.037,
      "velocity": 97,
      "chip": "ym2612"
    },
    {
      "channel": 3,
      "note": 37,
      "start": 9.4663,
      "duration": 0.1633,
      "velocity": 98,
      "chip": "ym2612"
    },
    {
      "channel": 1,
      "note": 49,
      "start": 9.4692,
      "duration": 0.1436,
      "velocity": 98,
      "chip": "ym2612"
    },
    {
      "channel": 4,
      "note": 78,
      "start": 9.4722,
      "duration": 0.0407,
      "velocity": 97,
      "chip": "ym2612"
    },
    {
      "channel": 5,
      "note": 79,
      "start": 9.666,
      "duration": 0.0303,
      "velocity": 127,
      "chip": "ym2612"
    },
    {
      "channel": 3,
      "note": 49,
      "start": 9.6686,
      "duration": 0.1111,
      "velocity": 98,
      "chip": "ym2612"
    },
    {
      "channel": 1,
      "note": 61,
      "start": 9.6712,
      "duration": 0.1249,
      "velocity": 98,
      "chip": "ym2612"
    },
    {
      "channel": 4,
      "note": 80,
      "start": 9.6742,
      "duration": 0.0388,
      "velocity": 97,
      "chip": "ym2612"
    },
    {
      "channel": 5,
      "note": 91,
      "start": 9.8493,
      "duration": 0.0303,
      "velocity": 127,
      "chip": "ym2612"
    },
    {
      "channel": 3,
      "note": 37,
      "start": 9.8519,
      "duration": 0.0777,
      "velocity": 98,
      "chip": "ym2612"
    },
    {
      "channel": 1,
      "note": 49,
      "start": 9.8548,
      "duration": 0.0913,
      "velocity": 98,
      "chip": "ym2612"
    },
    {
      "channel": 4,
      "note": 73,
      "start": 9.8578,
      "duration": 0.0385,
      "velocity": 97,
      "chip": "ym2612"
    },
    {
      "channel": 0,
      "note": 33,
      "start": 10.0489,
      "duration": 0.0806,
      "velocity": 113,
      "chip": "ym2612"
    },
    {
      "channel": 3,
      "note": 37,
      "start": 10.0515,
      "duration": 0.0783,
      "velocity": 98,
      "chip": "ym2612"
    },
    {
      "channel": 1,
      "note": 59,
      "start": 10.0543,
      "duration": 0.1419,
      "velocity": 98,
      "chip": "ym2612"
    },
    {
      "channel": 4,
      "note": 85,
      "start": 10.0577,
      "duration": 0.0387,
      "velocity": 97,
      "chip": "ym2612"
    },
    {
      "channel": 5,
      "note": 91,
      "start": 10.2326,
      "duration": 0.0304,
      "velocity": 127,
      "chip": "ym2612"
    },
    {
      "channel": 3,
      "note": 37,
      "start": 10.2352,
      "duration": 0.161,
      "velocity": 98,
      "chip": "ym2612"
    },
    {
      "channel": 1,
      "note": 49,
      "start": 10.2382,
      "duration": 0.1079,
      "velocity": 98,
      "chip": "ym2612"
    },
    {
      "channel": 4,
      "note": 73,
      "start": 10.2412,
      "duration": 0.0385,
      "velocity": 97,
      "chip": "ym2612"
    },
    {
      "channel": 5,
      "note": 79,
      "start": 10.4326,
      "duration": 0.0304,
      "velocity": 127,
      "chip": "ym2612"
    },
    {
      "channel": 3,
      "note": 49,
      "start": 10.4352,
      "duration": 0.1278,
      "velocity": 98,
      "chip": "ym2612"
    },
    {
      "channel": 4,
      "note": 73,
      "start": 10.4383,
      "duration": 0.0414,
      "velocity": 97,
      "chip": "ym2612"
    },
    {
      "channel": 5,
      "note": 91,
      "start": 10.6327,
      "duration": 0.0304,
      "velocity": 127,
      "chip": "ym2612"
    },
    {
      "channel": 3,
      "note": 37,
      "start": 10.6353,
      "duration": 0.0631,
      "velocity": 98,
      "chip": "ym2612"
    },
    {
      "channel": 1,
      "note": 49,
      "start": 10.6382,
      "duration": 0.1081,
      "velocity": 98,
      "chip": "ym2612"
    },
    {
      "channel": 4,
      "note": 85,
      "start": 10.6412,
      "duration": 0.0385,
      "velocity": 97,
      "chip": "ym2612"
    },
    {
      "channel": 0,
      "note": 33,
      "start": 10.8154,
      "duration": 0.0807,
      "velocity": 113,
      "chip": "ym2612"
    },
    {
      "channel": 3,
      "note": 37,
      "start": 10.8181,
      "duration": 0.0615,
      "velocity": 98,
      "chip": "ym2612"
    },
    {
      "channel": 4,
      "note": 73,
      "start": 10.8212,
      "duration": 0.0417,
      "velocity": 97,
      "chip": "ym2612"
    },
    {
      "channel": 5,
      "note": 91,
      "start": 11.0163,
      "duration": 0.0299,
      "velocity": 127,
      "chip": "ym2612"
    },
    {
      "channel": 3,
      "note": 37,
      "start": 11.019,
      "duration": 0.144,
      "velocity": 98,
      "chip": "ym2612"
    },
    {
      "channel": 1,
      "note": 49,
      "start": 11.0223,
      "duration": 0.1405,
      "velocity": 98,
      "chip": "ym2612"
    },
    {
      "channel": 4,
      "note": 73,
      "start": 11.0253,
      "duration": 0.0377,
      "velocity": 97,
      "chip": "ym2612"
    },
    {
      "channel": 5,
      "note": 79,
      "start": 11.1991,
      "duration": 0.0306,
      "velocity": 127,
      "chip": "ym2612"
    },
    {
      "channel": 3,
      "note": 49,
      "start": 11.202,
      "duration": 0.1444,
      "velocity": 98,
      "chip": "ym2612"
    },
    {
      "channel": 1,
      "note": 52,
      "start": 11.2047,
      "duration": 0.1414,
      "velocity": 98,
      "chip": "ym2612"
    },
    {
      "channel": 4,
      "note": 78,
      "start": 11.2077,
      "duration": 0.0386,
      "velocity": 97,
      "chip": "ym2612"
    },
    {
      "channel": 5,
      "note": 91,
      "start": 11.3992,
      "duration": 0.0304,
      "velocity": 127,
      "chip": "ym2612"
    },
    {
      "channel": 3,
      "note": 37,
      "start": 11.4019,
      "duration": 0.111,
      "velocity": 98,
      "chip": "ym2612"
    },
    {
      "channel": 1,
      "note": 49,
      "start": 11.4046,
      "duration": 0.1417,
      "velocity": 98,
      "chip": "ym2612"
    },
    {
      "channel": 4,
      "note": 73,
      "start": 11.4076,
      "duration": 0.0387,
      "velocity": 97,
      "chip": "ym2612"
    },
    {
      "channel": 0,
      "note": 33,
      "start": 11.5988,
      "duration": 0.064,
      "velocity": 113,
      "chip": "ym2612"
    },
    {
      "channel": 3,
      "note": 40,
      "start": 11.6015,
      "duration": 0.0615,
      "velocity": 98,
      "chip": "ym2612"
    },
    {
      "channel": 1,
      "note": 56,
      "start": 11.6042,
      "duration": 0.1253,
      "velocity": 98,
      "chip": "ym2612"
    },
    {
      "channel": 4,
      "note": 83,
      "start": 11.6072,
      "duration": 0.0391,
      "velocity": 97,
      "chip": "ym2612"
    },
    {
      "channel": 5,
      "note": 91,
      "start": 11.7827,
      "duration": 0.0304,
      "velocity": 127,
      "chip": "ym2612"
    },
    {
      "channel": 3,
      "note": 37,
      "start": 11.7853,
      "duration": 0.1444,
      "velocity": 98,
      "chip": "ym2612"
    },
    {
      "channel": 1,
      "note": 55,
      "start": 11.788,
      "duration": 0.1415,
      "velocity": 98,
      "chip": "ym2612"
    },
    {
      "channel": 4,
      "note": 73,
      "start": 11.791,
      "duration": 0.0387,
      "velocity": 97,
      "chip": "ym2612"
    },
    {
      "channel": 5,
      "note": 79,
      "start": 11.9826,
      "duration": 0.0303,
      "velocity": 127,
      "chip": "ym2612"
    },
    {
      "channel": 3,
      "note": 42,
      "start": 11.9852,
      "duration": 0.0777,
      "velocity": 98,
      "chip": "ym2612"
    },
    {
      "channel": 1,
      "note": 54,
      "start": 11.9879,
      "duration": 0.1271,
      "velocity": 98,
      "chip": "ym2612"
    },
    {
      "channel": 4,
      "note": 78,
      "start": 11.9909,
      "duration": 0.0388,
      "velocity": 97,
      "chip": "ym2612"
    },
    {
      "channel": 5,
      "note": 79,
      "start": 12.1658,
      "duration": 0.0305,
      "velocity": 127,
      "chip": "ym2612"
    },
    {
      "channel": 3,
      "note": 40,
      "start": 12.1683,
      "duration": 0.078,
      "velocity": 98,
      "chip": "ym2612"
    },
    {
      "channel": 1,
      "note": 52,
      "start": 12.1711,
      "duration": 0.1251,
      "velocity": 98,
      "chip": "ym2612"
    },
    {
      "channel": 4,
      "note": 80,
      "start": 12.1744,
      "duration": 0.0385,
      "velocity": 97,
      "chip": "ym2612"
    },
    {
      "channel": 0,
      "note": 33,
      "start": 12.3669,
      "duration": 0.0792,
      "velocity": 113,
      "chip": "ym2612"
    },
    {
      "channel": 3,
      "note": 37,
      "start": 12.3707,
      "duration": 0.0256,
      "velocity": 98,
      "chip": "ym2612"
    },
    {
      "channel": 1,
      "note": 49,
      "start": 12.3747,
      "duration": 0.0381,
      "velocity": 98,
      "chip": "ym2612"
    },
    {
      "channel": 2,
      "note": 73,
      "start": 12.3777,
      "duration": 0.1021,
      "velocity": 90,
      "chip": "ym2612"
    },
    {
      "channel": 5,
      "note": 78,
      "start": 12.3806,
      "duration": 0.0991,
      "velocity": 90,
      "chip": "ym2612"
    },
    {
      "channel": 4,
      "note": 91,
      "start": 12.566,
      "duration": 0.0303,
      "velocity": 127,
      "chip": "ym2612"
    },
    {
      "channel": 3,
      "note": 37,
      "start": 12.5687,
      "duration": 0.1441,
      "velocity": 98,
      "chip": "ym2612"
    },
    {
      "channel": 1,
      "note": 49,
      "start": 12.5716,
      "duration": 0.1246,
      "velocity": 98,
      "chip": "ym2612"
    },
    {
      "channel": 5,
      "note": 73,
      "start": 12.5747,
      "duration": 0.155,
      "velocity": 90,
      "chip": "ym2612"
    },
    {
      "channel": 2,
      "note": 78,
      "start": 12.5775,
      "duration": 0.1688,
      "velocity": 90,
      "chip": "ym2612"
    },
    {
      "channel": 4,
      "note": 79,
      "start": 12.7492,
      "duration": 0.0304,
      "velocity": 127,
      "chip": "ym2612"
    },
    {
      "channel": 3,
      "note": 49,
      "start": 12.7516,
      "duration": 0.1612,
      "velocity": 98,
      "chip": "ym2612"
    },
    {
      "channel": 1,
      "note": 61,
      "start": 12.7543,
      "duration": 0.1419,
      "velocity": 98,
      "chip": "ym2612"
    },
    {
      "channel": 4,
      "note": 91,
      "start": 12.9493,
      "duration": 0.0303,
      "velocity": 127,
      "chip": "ym2612"
    },
    {
      "channel": 3,
      "note": 37,
      "start": 12.9523,
      "duration": 0.0606,
      "velocity": 98,
      "chip": "ym2612"
    },
    {
      "channel": 1,
      "note": 49,
      "start": 12.9551,
      "duration": 0.0911,
      "velocity": 98,
      "chip": "ym2612"
    },
    {
      "channel": 0,
      "note": 33,
      "start": 13.1322,
      "duration": 0.0807,
      "velocity": 113,
      "chip": "ym2612"
    },
    {
      "channel": 3,
      "note": 37,
      "start": 13.1348,
      "duration": 0.0615,
      "velocity": 98,
      "chip": "ym2612"
    },
    {
      "channel": 1,
      "note": 59,
      "start": 13.1378,
      "duration": 0.1417,
      "velocity": 98,
      "chip": "ym2612"
    },
    {
      "channel": 5,
      "note": 73,
      "start": 13.1406,
      "duration": 0.2224,
      "velocity": 90,
      "chip": "ym2612"
    },
    {
      "channel": 2,
      "note": 78,
      "start": 13.1436,
      "duration": 0.2362,
      "velocity": 90,
      "chip": "ym2612"
    },
    {
      "channel": 4,
      "note": 91,
      "start": 13.3326,
      "duration": 0.0303,
      "velocity": 127,
      "chip": "ym2612"
    },
    {
      "channel": 3,
      "note": 37,
      "start": 13.3353,
      "duration": 0.1444,
      "velocity": 98,
      "chip": "ym2612"
    },
    {
      "channel": 4,
      "note": 79,
      "start": 13.5325,
      "duration": 0.0138,
      "velocity": 127,
      "chip": "ym2612"
    },
    {
      "channel": 3,
      "note": 49,
      "start": 13.535,
      "duration": 0.128,
      "velocity": 98,
      "chip": "ym2612"
    },
    {
      "channel": 4,
      "note": 91,
      "start": 13.7159,
      "duration": 0.0303,
      "velocity": 127,
      "chip": "ym2612"
    },
    {
      "channel": 3,
      "note": 37,
      "start": 13.7185,
      "duration": 0.0611,
      "velocity": 98,
      "chip": "ym2612"
    },
    {
      "channel": 1,
      "note": 49,
      "start": 13.7215,
      "duration": 0.108,
      "velocity": 98,
      "chip": "ym2612"
    },
    {
      "channel": 0,
      "note": 33,
      "start": 13.9154,
      "duration": 0.0807,
      "velocity": 113,
      "chip": "ym2612"
    },
    {
      "channel": 3,
      "note": 37,
      "start": 13.918,
      "duration": 0.0615,
      "velocity": 98,
      "chip": "ym2612"
    },
    {
      "channel": 4,
      "note": 91,
      "start": 14.0993,
      "duration": 0.0302,
      "velocity": 127,
      "chip": "ym2612"
    },
    {
      "channel": 3,
      "note": 37,
      "start": 14.102,
      "duration": 0.1111,
      "velocity": 98,
      "chip": "ym2612"
    },
    {
      "channel": 1,
      "note": 49,
      "start": 14.105,
      "duration": 0.1079,
      "velocity": 98,
      "chip": "ym2612"
    },
    {
      "channel": 4,
      "note": 79,
      "start": 14.299,
      "duration": 0.0305,
      "velocity": 127,
      "chip": "ym2612"
    },
    {
      "channel": 3,
      "note": 49,
      "start": 14.3016,
      "duration": 0.1445,
      "velocity": 98,
      "chip": "ym2612"
    },
    {
      "channel": 4,
      "note": 91,
      "start": 14.4851,
      "duration": 0.0279,
      "velocity": 127,
      "chip": "ym2612"
    },
    {
      "channel": 3,
      "note": 37,
      "start": 14.4877,
      "duration": 0.1252,
      "velocity": 98,
      "chip": "ym2612"
    },
    {
      "channel": 1,
      "note": 49,
      "start": 14.4907,
      "duration": 0.1389,
      "velocity": 98,
      "chip": "ym2612"
    },
    {
      "channel": 0,
      "note": 33,
      "start": 14.6822,
      "duration": 0.0807,
      "velocity": 113,
      "chip": "ym2612"
    },
    {
      "channel": 3,
      "note": 40,
      "start": 14.6848,
      "duration": 0.128,
      "velocity": 98,
      "chip": "ym2612"
    },
    {
      "channel": 1,
      "note": 52,
      "start": 14.6876,
      "duration": 0.1085,
      "velocity": 98,
      "chip": "ym2612"
    },
    {
      "channel": 5,
      "note": 71,
      "start": 14.6905,
      "duration": 0.406,
      "velocity": 90,
      "chip": "ym2612"
    },
    {
      "channel": 2,
      "note": 66,
      "start": 14.6936,
      "duration": 0.5695,
      "velocity": 90,
      "chip": "ym2612"
    },
    {
      "channel": 4,
      "note": 91,
      "start": 14.8826,
      "duration": 0.0303,
      "velocity": 127,
      "chip": "ym2612"
    },
    {
      "channel": 3,
      "note": 37,
      "start": 14.8856,
      "duration": 0.144,
      "velocity": 98,
      "chip": "ym2612"
    },
    {
      "channel": 1,
      "note": 49,
      "start": 14.8885,
      "duration": 0.1244,
      "velocity": 98,
      "chip": "ym2612"
    },
    {
      "channel": 4,
      "note": 79,
      "start": 15.0658,
      "duration": 0.0305,
      "velocity": 127,
      "chip": "ym2612"
    },
    {
      "channel": 3,
      "note": 42,
      "start": 15.0684,
      "duration": 0.0946,
      "velocity": 98,
      "chip": "ym2612"
    },
    {
      "channel": 1,
      "note": 54,
      "start": 15.071,
      "duration": 0.1418,
      "velocity": 98,
      "chip": "ym2612"
    },
    {
      "channel": 4,
      "note": 91,
      "start": 15.266,
      "duration": 0.0304,
      "velocity": 127,
      "chip": "ym2612"
    },
    {
      "channel": 3,
      "note": 40,
      "start": 15.2687,
      "duration": 0.0776,
      "velocity": 98,
      "chip": "ym2612"
    },
    {
      "channel": 1,
      "note": 52,
      "start": 15.2716,
      "duration": 0.0913,
      "velocity": 98,
      "chip": "ym2612"
    },
    {
      "channel": 5,
      "note": 71,
      "start": 15.2744,
      "duration": 0.5387,
      "velocity": 90,
      "chip": "ym2612"
    },
    {
      "channel": 2,
      "note": 64,
      "start": 15.2773,
      "duration": 0.569,
      "velocity": 90,
      "chip": "ym2612"
    },
    {
      "channel": 0,
      "note": 33,
      "start": 15.449,
      "duration": 0.0805,
      "velocity": 113,
      "chip": "ym2612"
    },
    {
      "channel": 3,
      "note": 37,
      "start": 15.4517,
      "duration": 0.0611,
      "velocity": 98,
      "chip": "ym2612"
    },
    {
      "channel": 1,
      "note": 49,
      "start": 15.4544,
      "duration": 0.0918,
      "velocity": 98,
      "chip": "ym2612"
    },
    {
      "channel": 0,
      "note": 33,
      "start": 15.6489,
      "duration": 0.0806,
      "velocity": 113,
      "chip": "ym2612"
    },
    {
      "channel": 3,
      "note": 37,
      "start": 15.6516,
      "duration": 0.1613,
      "velocity": 98,
      "chip": "ym2612"
    },
    {
      "channel": 1,
      "note": 49,
      "start": 15.6545,
      "duration": 0.1417,
      "velocity": 98,
      "chip": "ym2612"
    },
    {
      "channel": 4,
      "note": 79,
      "start": 15.8493,
      "duration": 0.0303,
      "velocity": 127,
      "chip": "ym2612"
    },
    {
      "channel": 3,
      "note": 49,
      "start": 15.852,
      "duration": 0.1277,
      "velocity": 98,
      "chip": "ym2612"
    },
    {
      "channel": 1,
      "note": 61,
      "start": 15.8546,
      "duration": 0.1249,
      "velocity": 98,
      "chip": "ym2612"
    },
    {
      "channel": 4,
      "note": 91,
      "start": 16.0326,
      "duration": 0.0303,
      "velocity": 127,
      "chip": "ym2612"
    },
    {
      "channel": 3,
      "note": 37,
      "start": 16.0352,
      "duration": 0.0611,
      "velocity": 98,
      "chip": "ym2612"
    },
    {
      "channel": 1,
      "note": 49,
      "start": 16.0383,
      "duration": 0.1078,
      "velocity": 98,
      "chip": "ym2612"
    },
    {
      "channel": 0,
      "note": 33,
      "start": 16.2322,
      "duration": 0.0805,
      "velocity": 113,
      "chip": "ym2612"
    },
    {
      "channel": 3,
      "note": 37,
      "start": 16.235,
      "duration": 0.078,
      "velocity": 98,
      "chip": "ym2612"
    },
    {
      "channel": 1,
      "note": 59,
      "start": 16.238,
      "duration": 0.1415,
      "velocity": 98,
      "chip": "ym2612"
    },
    {
      "channel": 4,
      "note": 91,
      "start": 16.416,
      "duration": 0.0303,
      "velocity": 127,
      "chip": "ym2612"
    },
    {
      "channel": 3,
      "note": 37,
      "start": 16.419,
      "duration": 0.1439,
      "velocity": 98,
      "chip": "ym2612"
    },
    {
      "channel": 4,
      "note": 79,
      "start": 16.6158,
      "duration": 0.0305,
      "velocity": 127,
      "chip": "ym2612"
    },
    {
      "channel": 3,
      "note": 49,
      "start": 16.6183,
      "duration": 0.1446,
      "velocity": 98,
      "chip": "ym2612"
    },
    {
      "channel": 4,
      "note": 91,
      "start": 16.816,
      "duration": 0.0303,
      "velocity": 127,
      "chip": "ym2612"
    },
    {
      "channel": 3,
      "note": 37,
      "start": 16.8186,
      "duration": 0.0465,
      "velocity": 98,
      "chip": "ym2612"
    },
    {
      "channel": 1,
      "note": 49,
      "start": 16.8216,
      "duration": 0.1079,
      "velocity": 98,
      "chip": "ym2612"
    },
    {
      "channel": 0,
      "note": 33,
      "start": 16.9988,
      "duration": 0.0807,
      "velocity": 113,
      "chip": "ym2612"
    },
    {
      "channel": 3,
      "note": 37,
      "start": 17.0014,
      "duration": 0.0616,
      "velocity": 98,
      "chip": "ym2612"
    },
    {
      "channel": 5,
      "note": 61,
      "start": 17.0043,
      "duration": 0.092,
      "velocity": 90,
      "chip": "ym2612"
    },
    {
      "channel": 2,
      "note": 59,
      "start": 17.0072,
      "duration": 0.1059,
      "velocity": 90,
      "chip": "ym2612"
    },
    {
      "channel": 4,
      "note": 91,
      "start": 17.1997,
      "duration": 0.03,
      "velocity": 127,
      "chip": "ym2612"
    },
    {
      "channel": 3,
      "note": 37,
      "start": 17.2023,
      "duration": 0.1295,
      "velocity": 98,
      "chip": "ym2612"
    },
    {
      "channel": 1,
      "note": 49,
      "start": 17.205,
      "duration": 0.1245,
      "velocity": 98,
      "chip": "ym2612"
    },
    {
      "channel": 5,
      "note": 61,
      "start": 17.2081,
      "duration": 0.105,
      "velocity": 90,
      "chip": "ym2612"
    },
    {
      "channel": 2,
      "note": 59,
      "start": 17.2109,
      "duration": 0.1211,
      "velocity": 90,
      "chip": "ym2612"
    },
    {
      "channel": 4,
      "note": 79,
      "start": 17.3824,
      "duration": 0.0306,
      "velocity": 127,
      "chip": "ym2612"
    },
    {
      "channel": 3,
      "note": 49,
      "start": 17.385,
      "duration": 0.1612,
      "velocity": 98,
      "chip": "ym2612"
    },
    {
      "channel": 4,
      "note": 91,
      "start": 17.5826,
      "duration": 0.0303,
      "velocity": 127,
      "chip": "ym2612"
    },
    {
      "channel": 3,
      "note": 37,
      "start": 17.5853,
      "duration": 0.1276,
      "velocity": 98,
      "chip": "ym2612"
    },
    {
      "channel": 1,
      "note": 49,
      "start": 17.5883,
      "duration": 0.1413,
      "velocity": 98,
      "chip": "ym2612"
    },
    {
      "channel": 0,
      "note": 33,
      "start": 17.7822,
      "duration": 0.064,
      "velocity": 113,
      "chip": "ym2612"
    },
    {
      "channel": 3,
      "note": 40,
      "start": 17.7848,
      "duration": 0.1116,
      "velocity": 98,
      "chip": "ym2612"
    },
    {
      "channel": 1,
      "note": 52,
      "start": 17.7876,
      "duration": 0.1087,
      "velocity": 98,
      "chip": "ym2612"
    },
    {
      "channel": 5,
      "note": 61,
      "start": 17.7903,
      "duration": 0.1227,
      "velocity": 90,
      "chip": "ym2612"
    },
    {
      "channel": 2,
      "note": 59,
      "start": 17.793,
      "duration": 0.1202,
      "velocity": 90,
      "chip": "ym2612"
    },
    {
      "channel": 4,
      "note": 91,
      "start": 17.966,
      "duration": 0.0303,
      "velocity": 127,
      "chip": "ym2612"
    },
    {
      "channel": 3,
      "note": 37,
      "start": 17.9686,
      "duration": 0.1777,
      "velocity": 98,
      "chip": "ym2612"
    },
    {
      "channel": 1,
      "note": 49,
      "start": 17.9714,
      "duration": 0.1414,
      "velocity": 98,
      "chip": "ym2612"
    },
    {
      "channel": 4,
      "note": 79,
      "start": 18.1658,
      "duration": 0.0305,
      "velocity": 127,
      "chip": "ym2612"
    },
    {
      "channel": 3,
      "note": 42,
      "start": 18.1684,
      "duration": 0.0945,
      "velocity": 98,
      "chip": "ym2612"
    },
    {
      "channel": 1,
      "note": 54,
      "start": 18.1716,
      "duration": 0.11,
      "velocity": 98,
      "chip": "ym2612"
    },
    {
      "channel": 4,
      "note": 79,
      "start": 18.3492,
      "duration": 0.0305,
      "velocity": 127,
      "chip": "ym2612"
    },
    {
      "channel": 3,
      "note": 40,
      "start": 18.352,
      "duration": 0.0942,
      "velocity": 98,
      "chip": "ym2612"
    },
    {
      "channel": 1,
      "note": 52,
      "start": 18.3549,
      "duration": 0.108,
      "velocity": 98,
      "chip": "ym2612"
    },
    {
      "channel": 0,
      "note": 33,
      "start": 18.5492,
      "duration": 0.0802,
      "velocity": 113,
      "chip": "ym2612"
    },
    {
      "channel": 3,
      "note": 37,
      "start": 18.553,
      "duration": 0.0599,
      "velocity": 98,
      "chip": "ym2612"
    },
    {
      "channel": 1,
      "note": 49,
      "start": 18.5559,
      "duration": 0.0902,
      "velocity": 98,
      "chip": "ym2612"
    },
    {
      "channel": 5,
      "note": 73,
      "start": 18.5587,
      "duration": 0.0877,
      "velocity": 90,
      "chip": "ym2612"
    },
    {
      "channel": 2,
      "note": 78,
      "start": 18.5615,
      "duration": 0.1015,
      "velocity": 90,
      "chip": "ym2612"
    },
    {
      "channel": 4,
      "note": 91,
      "start": 18.7492,
      "duration": 0.0157,
      "velocity": 127,
      "chip": "ym2612"
    },
    {
      "channel": 3,
      "note": 37,
      "start": 18.7518,
      "duration": 0.1278,
      "velocity": 98,
      "chip": "ym2612"
    },
    {
      "channel": 1,
      "note": 49,
      "start": 18.7547,
      "duration": 0.1248,
      "velocity": 98,
      "chip": "ym2612"
    },
    {
      "channel": 5,
      "note": 73,
      "start": 18.7579,
      "duration": 0.1385,
      "velocity": 90,
      "chip": "ym2612"
    },
    {
      "channel": 2,
      "note": 78,
      "start": 18.7607,
      "duration": 0.1523,
      "velocity": 90,
      "chip": "ym2612"
    },
    {
      "channel": 4,
      "note": 79,
      "start": 18.9324,
      "duration": 0.0305,
      "velocity": 127,
      "chip": "ym2612"
    },
    {
      "channel": 3,
      "note": 49,
      "start": 18.9351,
      "duration": 0.1611,
      "velocity": 98,
      "chip": "ym2612"
    },
    {
      "channel": 1,
      "note": 61,
      "start": 18.9378,
      "duration": 0.1417,
      "velocity": 98,
      "chip": "ym2612"
    },
    {
      "channel": 4,
      "note": 91,
      "start": 19.1326,
      "duration": 0.0303,
      "velocity": 127,
      "chip": "ym2612"
    },
    {
      "channel": 3,
      "note": 37,
      "start": 19.1352,
      "duration": 0.0611,
      "velocity": 98,
      "chip": "ym2612"
    },
    {
      "channel": 1,
      "note": 49,
      "start": 19.1378,
      "duration": 0.125,
      "velocity": 98,
      "chip": "ym2612"
    },
    {
      "channel": 0,
      "note": 33,
      "start": 19.3155,
      "duration": 0.0805,
      "velocity": 113,
      "chip": "ym2612"
    },
    {
      "channel": 3,
      "note": 37,
      "start": 19.3183,
      "duration": 0.078,
      "velocity": 98,
      "chip": "ym2612"
    },
    {
      "channel": 1,
      "note": 59,
      "start": 19.321,
      "duration": 0.1419,
      "velocity": 98,
      "chip": "ym2612"
    },
    {
      "channel": 5,
      "note": 73,
      "start": 19.3238,
      "duration": 0.1225,
      "velocity": 90,
      "chip": "ym2612"
    },
    {
      "channel": 2,
      "note": 78,
      "start": 19.3265,
      "duration": 0.12,
      "velocity": 90,
      "chip": "ym2612"
    },
    {
      "channel": 4,
      "note": 91,
      "start": 19.516,
      "duration": 0.0304,
      "velocity": 127,
      "chip": "ym2612"
    },
    {
      "channel": 3,
      "note": 37,
      "start": 19.5186,
      "duration": 0.1443,
      "velocity": 98,
      "chip": "ym2612"
    },
    {
      "channel": 1,
      "note": 49,
      "start": 19.5216,
      "duration": 0.108,
      "velocity": 98,
      "chip": "ym2612"
    },
    {
      "channel": 5,
      "note": 73,
      "start": 19.5244,
      "duration": 0.1553,
      "velocity": 90,
      "chip": "ym2612"
    },
    {
      "channel": 2,
      "note": 78,
      "start": 19.5271,
      "duration": 0.1714,
      "velocity": 90,
      "chip": "ym2612"
    },
    {
      "channel": 4,
      "note": 79,
      "start": 19.7014,
      "duration": 0.0282,
      "velocity": 127,
      "chip": "ym2612"
    },
    {
      "channel": 3,
      "note": 49,
      "start": 19.7039,
      "duration": 0.1424,
      "velocity": 98,
      "chip": "ym2612"
    },
    {
      "channel": 4,
      "note": 91,
      "start": 19.8993,
      "duration": 0.0303,
      "velocity": 127,
      "chip": "ym2612"
    },
    {
      "channel": 3,
      "note": 37,
      "start": 19.9019,
      "duration": 0.0609,
      "velocity": 98,
      "chip": "ym2612"
    },
    {
      "channel": 1,
      "note": 49,
      "start": 19.9048,
      "duration": 0.1248,
      "velocity": 98,
      "chip": "ym2612"
    },
    {
      "channel": 5,
      "note": 73,
      "start": 19.9079,
      "duration": 0.1717,
      "velocity": 90,
      "chip": "ym2612"
    },
    {
      "channel": 2,
      "note": 78,
      "start": 19.9106,
      "duration": 0.1691,
      "velocity": 90,
      "chip": "ym2612"
    },
    {
      "channel": 0,
      "note": 33,
      "start": 20.099,
      "duration": 0.0805,
      "velocity": 113,
      "chip": "ym2612"
    },
    {
      "channel": 3,
      "note": 37,
      "start": 20.1021,
      "duration": 0.0776,
      "velocity": 98,
      "chip": "ym2612"
    },
    {
      "channel": 0,
      "note": 33,
      "start": 20.2822,
      "duration": 0.0805,
      "velocity": 113,
      "chip": "ym2612"
    },
    {
      "channel": 4,
      "note": 91,
      "start": 20.2849,
      "duration": 0.0281,
      "velocity": 127,
      "chip": "ym2612"
    },
    {
      "channel": 3,
      "note": 37,
      "start": 20.2875,
      "duration": 0.1422,
      "velocity": 98,
      "chip": "ym2612"
    },
    {
      "channel": 1,
      "note": 49,
      "start": 20.2907,
      "duration": 0.1389,
      "velocity": 98,
      "chip": "ym2612"
    },
    {
      "channel": 4,
      "note": 79,
      "start": 20.4825,
      "duration": 0.0304,
      "velocity": 127,
      "chip": "ym2612"
    },
    {
      "channel": 3,
      "note": 49,
      "start": 20.485,
      "duration": 0.1446,
      "velocity": 98,
      "chip": "ym2612"
    },
    {
      "channel": 4,
      "note": 91,
      "start": 20.6663,
      "duration": 0.03,
      "velocity": 127,
      "chip": "ym2612"
    },
    {
      "channel": 3,
      "note": 37,
      "start": 20.6689,
      "duration": 0.0941,
      "velocity": 98,
      "chip": "ym2612"
    },
    {
      "channel": 1,
      "note": 49,
      "start": 20.6717,
      "duration": 0.1411,
      "velocity": 98,
      "chip": "ym2612"
    },
    {
      "channel": 0,
      "note": 33,
      "start": 20.8656,
      "duration": 0.0806,
      "velocity": 113,
      "chip": "ym2612"
    },
    {
      "channel": 3,
      "note": 40,
      "start": 20.8682,
      "duration": 0.0947,
      "velocity": 98,
      "chip": "ym2612"
    },
    {
      "channel": 1,
      "note": 52,
      "start": 20.8709,
      "duration": 0.1419,
      "velocity": 98,
      "chip": "ym2612"
    },
    {
      "channel": 5,
      "note": 66,
      "start": 20.8737,
      "duration": 0.606,
      "velocity": 90,
      "chip": "ym2612"
    },
    {
      "channel": 2,
      "note": 71,
      "start": 20.8765,
      "duration": 0.4699,
      "velocity": 90,
      "chip": "ym2612"
    },
    {
      "channel": 4,
      "note": 91,
      "start": 21.066,
      "duration": 0.0303,
      "velocity": 127,
      "chip": "ym2612"
    },
    {
      "channel": 3,
      "note": 37,
      "start": 21.0686,
      "duration": 0.111,
      "velocity": 98,
      "chip": "ym2612"
    },
    {
      "channel": 1,
      "note": 49,
      "start": 21.0713,
      "duration": 0.1249,
      "velocity": 98,
      "chip": "ym2612"
    },
    {
      "channel": 4,
      "note": 79,
      "start": 21.249,
      "duration": 0.0306,
      "velocity": 127,
      "chip": "ym2612"
    },
    {
      "channel": 3,
      "note": 42,
      "start": 21.2517,
      "duration": 0.0779,
      "velocity": 98,
      "chip": "ym2612"
    },
    {
      "channel": 1,
      "note": 54,
      "start": 21.2546,
      "duration": 0.1082,
      "velocity": 98,
      "chip": "ym2612"
    },
    {
      "channel": 4,
      "note": 91,
      "start": 21.4492,
      "duration": 0.0304,
      "velocity": 127,
      "chip": "ym2612"
    },
    {
      "channel": 3,
      "note": 40,
      "start": 21.4517,
      "duration": 0.0778,
      "velocity": 98,
      "chip": "ym2612"
    },
    {
      "channel": 1,
      "note": 52,
      "start": 21.4545,
      "duration": 0.0917,
      "velocity": 98,
      "chip": "ym2612"
    },
    {
      "channel": 2,
      "note": 64,
      "start": 21.4574,
      "duration": 0.2723,
      "velocity": 90,
      "chip": "ym2612"
    },
    {
      "channel": 0,
      "note": 71,
      "start": 21.4606,
      "duration": 0.2355,
      "velocity": 90,
      "chip": "ym2612"
    },
    {
      "channel": 4,
      "note": 33,
      "start": 21.6324,
      "duration": 0.0806,
      "velocity": 113,
      "chip": "ym2612"
    },
    {
      "channel": 3,
      "note": 37,
      "start": 21.635,
      "duration": 0.0779,
      "velocity": 98,
      "chip": "ym2612"
    },
    {
      "channel": 1,
      "note": 49,
      "start": 21.6378,
      "duration": 0.1083,
      "velocity": 98,
      "chip": "ym2612"
    },
    {
      "channel": 3,
      "note": 37,
      "start": 21.8327,
      "duration": 0.1635,
      "velocity": 98,
      "chip": "ym2612"
    },
    {
      "channel": 1,
      "note": 49,
      "start": 21.8356,
      "duration": 0.144,
      "velocity": 98,
      "chip": "ym2612"
    },
    {
      "channel": 0,
      "note": 64,
      "start": 21.8382,
      "duration": 0.1412,
      "velocity": 90,
      "chip": "ym2612"
    },
    {
      "channel": 5,
      "note": 71,
      "start": 21.8409,
      "duration": 0.1389,
      "velocity": 90,
      "chip": "ym2612"
    },
    {
      "channel": 4,
      "note": 79,
      "start": 22.0327,
      "duration": 0.0302,
      "velocity": 127,
      "chip": "ym2612"
    },
    {
      "channel": 3,
      "note": 49,
      "start": 22.0357,
      "duration": 0.1105,
      "velocity": 98,
      "chip": "ym2612"
    },
    {
      "channel": 1,
      "note": 61,
      "start": 22.0384,
      "duration": 0.1245,
      "velocity": 98,
      "chip": "ym2612"
    },
    {
      "channel": 4,
      "note": 91,
      "start": 22.2159,
      "duration": 0.0304,
      "velocity": 127,
      "chip": "ym2612"
    },
    {
      "channel": 3,
      "note": 37,
      "start": 22.2185,
      "duration": 0.0777,
      "velocity": 98,
      "chip": "ym2612"
    },
    {
      "channel": 1,
      "note": 49,
      "start": 22.2214,
      "duration": 0.0915,
      "velocity": 98,
      "chip": "ym2612"
    },
    {
      "channel": 2,
      "note": 33,
      "start": 22.4158,
      "duration": 0.0807,
      "velocity": 113,
      "chip": "ym2612"
    },
    {
      "channel": 3,
      "note": 37,
      "start": 22.4184,
      "duration": 0.0779,
      "velocity": 98,
      "chip": "ym2612"
    },
    {
      "channel": 1,
      "note": 59,
      "start": 22.4216,
      "duration": 0.1267,
      "velocity": 98,
      "chip": "ym2612"
    },
    {
      "channel": 4,
      "note": 91,
      "start": 22.5992,
      "duration": 0.0303,
      "velocity": 127,
      "chip": "ym2612"
    },
    {
      "channel": 3,
      "note": 37,
      "start": 22.6018,
      "duration": 0.161,
      "velocity": 98,
      "chip": "ym2612"
    },
    {
      "channel": 1,
      "note": 49,
      "start": 22.6048,
      "duration": 0.1081,
      "velocity": 98,
      "chip": "ym2612"
    },
    {
      "channel": 4,
      "note": 79,
      "start": 22.7991,
      "duration": 0.0305,
      "velocity": 127,
      "chip": "ym2612"
    },
    {
      "channel": 3,
      "note": 49,
      "start": 22.8017,
      "duration": 0.1279,
      "velocity": 98,
      "chip": "ym2612"
    },
    {
      "channel": 4,
      "note": 91,
      "start": 22.9993,
      "duration": 0.0159,
      "velocity": 127,
      "chip": "ym2612"
    },
    {
      "channel": 3,
      "note": 37,
      "start": 23.0019,
      "duration": 0.0609,
      "velocity": 98,
      "chip": "ym2612"
    },
    {
      "channel": 1,
      "note": 49,
      "start": 23.0048,
      "duration": 0.1081,
      "velocity": 98,
      "chip": "ym2612"
    },
    {
      "channel": 2,
      "note": 33,
      "start": 23.1825,
      "duration": 0.0806,
      "velocity": 113,
      "chip": "ym2612"
    },
    {
      "channel": 3,
      "note": 37,
      "start": 23.1852,
      "duration": 0.0609,
      "velocity": 98,
      "chip": "ym2612"
    },
    {
      "channel": 4,
      "note": 91,
      "start": 23.3829,
      "duration": 0.03,
      "velocity": 127,
      "chip": "ym2612"
    },
    {
      "channel": 3,
      "note": 37,
      "start": 23.3856,
      "duration": 0.1274,
      "velocity": 98,
      "chip": "ym2612"
    },
    {
      "channel": 1,
      "note": 49,
      "start": 23.3885,
      "duration": 0.1242,
      "velocity": 98,
      "chip": "ym2612"
    },
    {
      "channel": 0,
      "note": 66,
      "start": 23.3912,
      "duration": 0.1071,
      "velocity": 90,
      "chip": "ym2612"
    },
    {
      "channel": 5,
      "note": 61,
      "start": 23.3939,
      "duration": 0.1024,
      "velocity": 90,
      "chip": "ym2612"
    },
    {
      "channel": 4,
      "note": 79,
      "start": 23.5657,
      "duration": 0.0305,
      "velocity": 127,
      "chip": "ym2612"
    },
    {
      "channel": 3,
      "note": 49,
      "start": 23.5682,
      "duration": 0.1449,
      "velocity": 98,
      "chip": "ym2612"
    },
    {
      "channel": 1,
      "note": 52,
      "start": 23.5709,
      "duration": 0.142,
      "velocity": 98,
      "chip": "ym2612"
    },
    {
      "channel": 4,
      "note": 91,
      "start": 23.7659,
      "duration": 0.0305,
      "velocity": 127,
      "chip": "ym2612"
    },
    {
      "channel": 3,
      "note": 37,
      "start": 23.7689,
      "duration": 0.1107,
      "velocity": 98,
      "chip": "ym2612"
    },
    {
      "channel": 1,
      "note": 49,
      "start": 23.7716,
      "duration": 0.1413,
      "velocity": 98,
      "chip": "ym2612"
    },
    {
      "channel": 2,
      "note": 33,
      "start": 23.9658,
      "duration": 0.064,
      "velocity": 113,
      "chip": "ym2612"
    },
    {
      "channel": 3,
      "note": 40,
      "start": 23.9686,
      "duration": 0.0611,
      "velocity": 98,
      "chip": "ym2612"
    },
    {
      "channel": 1,
      "note": 56,
      "start": 23.9713,
      "duration": 0.1249,
      "velocity": 98,
      "chip": "ym2612"
    },
    {
      "channel": 0,
      "note": 66,
      "start": 23.974,
      "duration": 0.1055,
      "velocity": 90,
      "chip": "ym2612"
    },
    {
      "channel": 5,
      "note": 61,
      "start": 23.977,
      "duration": 0.0693,
      "velocity": 90,
      "chip": "ym2612"
    },
    {
      "channel": 4,
      "note": 91,
      "start": 24.1492,
      "duration": 0.0304,
      "velocity": 127,
      "chip": "ym2612"
    },
    {
      "channel": 3,
      "note": 37,
      "start": 24.1518,
      "duration": 0.1445,
      "velocity": 98,
      "chip": "ym2612"
    },
    {
      "channel": 1,
      "note": 55,
      "start": 24.1546,
      "duration": 0.1416,
      "velocity": 98,
      "chip": "ym2612"
    },
    {
      "channel": 0,
      "note": 64,
      "start": 24.1572,
      "duration": 0.1055,
      "velocity": 90,
      "chip": "ym2612"
    },
    {
      "channel": 5,
      "note": 61,
      "start": 24.1598,
      "duration": 0.1032,
      "velocity": 90,
      "chip": "ym2612"
    },
    {
      "channel": 4,
      "note": 79,
      "start": 24.349,
      "duration": 0.0306,
      "velocity": 127,
      "chip": "ym2612"
    },
    {
      "channel": 3,
      "note": 42,
      "start": 24.3517,
      "duration": 0.0778,
      "velocity": 98,
      "chip": "ym2612"
    },
    {
      "channel": 1,
      "note": 54,
      "start": 24.3544,
      "duration": 0.1252,
      "velocity": 98,
      "chip": "ym2612"
    },
    {
      "channel": 4,
      "note": 79,
      "start": 24.5324,
      "duration": 0.0305,
      "velocity": 127,
      "chip": "ym2612"
    },
    {
      "channel": 3,
      "note": 40,
      "start": 24.5349,
      "duration": 0.0781,
      "velocity": 98,
      "chip": "ym2612"
    },
    {
      "channel": 1,
      "note": 52,
      "start": 24.5381,
      "duration": 0.1247,
      "velocity": 98,
      "chip": "ym2612"
    },
    {
      "channel": 2,
      "note": 33,
      "start": 24.7338,
      "duration": 0.0793,
      "velocity": 113,
      "chip": "ym2612"
    },
    {
      "channel": 3,
      "note": 37,
      "start": 24.7376,
      "duration": 0.0253,
      "velocity": 98,
      "chip": "ym2612"
    },
    {
      "channel": 1,
      "note": 49,
      "start": 24.7417,
      "duration": 0.0378,
      "velocity": 98,
      "chip": "ym2612"
    },
    {
      "channel": 0,
      "note": 73,
      "start": 24.7443,
      "duration": 0.1186,
      "velocity": 90,
      "chip": "ym2612"
    },
    {
      "channel": 5,
      "note": 78,
      "start": 24.7471,
      "duration": 0.116,
      "velocity": 90,
      "chip": "ym2612"
    },
    {
      "channel": 4,
      "note": 91,
      "start": 24.918,
      "duration": 0.0282,
      "velocity": 127,
      "chip": "ym2612"
    },
    {
      "channel": 3,
      "note": 37,
      "start": 24.9207,
      "duration": 0.1589,
      "velocity": 98,
      "chip": "ym2612"
    },
    {
      "channel": 1,
      "note": 49,
      "start": 24.9235,
      "duration": 0.1393,
      "velocity": 98,
      "chip": "ym2612"
    },
    {
      "channel": 0,
      "note": 73,
      "start": 24.9262,
      "duration": 0.1532,
      "velocity": 90,
      "chip": "ym2612"
    },
    {
      "channel": 5,
      "note": 78,
      "start": 24.9296,
      "duration": 0.1667,
      "velocity": 90,
      "chip": "ym2612"
    },
    {
      "channel": 4,
      "note": 79,
      "start": 25.1158,
      "duration": 0.0305,
      "velocity": 127,
      "chip": "ym2612"
    },
    {
      "channel": 3,
      "note": 49,
      "start": 25.1183,
      "duration": 0.1613,
      "velocity": 98,
      "chip": "ym2612"
    },
    {
      "channel": 1,
      "note": 61,
      "start": 25.121,
      "duration": 0.1419,
      "velocity": 98,
      "chip": "ym2612"
    },
    {
      "channel": 4,
      "note": 91,
      "start": 25.3159,
      "duration": 0.0304,
      "velocity": 127,
      "chip": "ym2612"
    },
    {
      "channel": 3,
      "note": 37,
      "start": 25.3185,
      "duration": 0.061,
      "velocity": 98,
      "chip": "ym2612"
    },
    {
      "channel": 1,
      "note": 49,
      "start": 25.3214,
      "duration": 0.077,
      "velocity": 98,
      "chip": "ym2612"
    },
    {
      "channel": 2,
      "note": 33,
      "start": 25.4992,
      "duration": 0.0806,
      "velocity": 113,
      "chip": "ym2612"
    },
    {
      "channel": 3,
      "note": 37,
      "start": 25.5021,
      "duration": 0.0609,
      "velocity": 98,
      "chip": "ym2612"
    },
    {
      "channel": 1,
      "note": 59,
      "start": 25.5051,
      "duration": 0.141,
      "velocity": 98,
      "chip": "ym2612"
    },
    {
      "channel": 0,
      "note": 73,
      "start": 25.5076,
      "duration": 0.1719,
      "velocity": 90,
      "chip": "ym2612"
    },
    {
      "channel": 5,
      "note": 78,
      "start": 25.5102,
      "duration": 0.1695,
      "velocity": 90,
      "chip": "ym2612"
    },
    {
      "channel": 4,
      "note": 91,
      "start": 25.6993,
      "duration": 0.0303,
      "velocity": 127,
      "chip": "ym2612"
    },
    {
      "channel": 3,
      "note": 37,
      "start": 25.7019,
      "duration": 0.1443,
      "velocity": 98,
      "chip": "ym2612"
    },
    {
      "channel": 4,
      "note": 79,
      "start": 25.8825,
      "duration": 0.0304,
      "velocity": 127,
      "chip": "ym2612"
    },
    {
      "channel": 3,
      "note": 49,
      "start": 25.885,
      "duration": 0.1446,
      "velocity": 98,
      "chip": "ym2612"
    },
    {
      "channel": 4,
      "note": 91,
      "start": 26.0826,
      "duration": 0.0303,
      "velocity": 127,
      "chip": "ym2612"
    },
    {
      "channel": 3,
      "note": 37,
      "start": 26.0852,
      "duration": 0.0611,
      "velocity": 98,
      "chip": "ym2612"
    },
    {
      "channel": 1,
      "note": 49,
      "start": 26.0883,
      "duration": 0.1079,
      "velocity": 98,
      "chip": "ym2612"
    },
    {
      "channel": 2,
      "note": 33,
      "start": 26.2824,
      "duration": 0.064,
      "velocity": 113,
      "chip": "ym2612"
    },
    {
      "channel": 3,
      "note": 37,
      "start": 26.285,
      "duration": 0.0467,
      "velocity": 98,
      "chip": "ym2612"
    },
    {
      "channel": 4,
      "note": 91,
      "start": 26.466,
      "duration": 0.0304,
      "velocity": 127,
      "chip": "ym2612"
    },
    {
      "channel": 3,
      "note": 37,
      "start": 26.4686,
      "duration": 0.111,
      "velocity": 98,
      "chip": "ym2612"
    },
    {
      "channel": 1,
      "note": 49,
      "start": 26.4717,
      "duration": 0.1078,
      "velocity": 98,
      "chip": "ym2612"
    },
    {
      "channel": 0,
      "note": 66,
      "start": 26.4744,
      "duration": 0.0885,
      "velocity": 90,
      "chip": "ym2612"
    },
    {
      "channel": 5,
      "note": 71,
      "start": 26.477,
      "duration": 0.1028,
      "velocity": 90,
      "chip": "ym2612"
    },
    {
      "channel": 4,
      "note": 79,
      "start": 26.6658,
      "duration": 0.0305,
      "velocity": 127,
      "chip": "ym2612"
    },
    {
      "channel": 3,
      "note": 49,
      "start": 26.6684,
      "duration": 0.1446,
      "velocity": 98,
      "chip": "ym2612"
    },
    {
      "channel": 4,
      "note": 91,
      "start": 26.8496,
      "duration": 0.03,
      "velocity": 127,
      "chip": "ym2612"
    },
    {
      "channel": 3,
      "note": 37,
      "start": 26.8523,
      "duration": 0.1273,
      "velocity": 98,
      "chip": "ym2612"
    },
    {
      "channel": 1,
      "note": 49,
      "start": 26.8553,
      "duration": 0.141,
      "velocity": 98,
      "chip": "ym2612"
    },
    {
      "channel": 2,
      "note": 33,
      "start": 27.049,
      "duration": 0.0807,
      "velocity": 113,
      "chip": "ym2612"
    },
    {
      "channel": 3,
      "note": 40,
      "start": 27.0516,
      "duration": 0.128,
      "velocity": 98,
      "chip": "ym2612"
    },
    {
      "channel": 1,
      "note": 52,
      "start": 27.0545,
      "duration": 0.1085,
      "velocity": 98,
      "chip": "ym2612"
    },
    {
      "channel": 0,
      "note": 71,
      "start": 27.057,
      "duration": 0.1059,
      "velocity": 90,
      "chip": "ym2612"
    },
    {
      "channel": 5,
      "note": 66,
      "start": 27.0601,
      "duration": 0.2029,
      "velocity": 90,
      "chip": "ym2612"
    },
    {
      "channel": 4,
      "note": 91,
      "start": 27.2492,
      "duration": 0.0305,
      "velocity": 127,
      "chip": "ym2612"
    },
    {
      "channel": 3,
      "note": 37,
      "start": 27.2518,
      "duration": 0.1444,
      "velocity": 98,
      "chip": "ym2612"
    },
    {
      "channel": 1,
      "note": 49,
      "start": 27.2547,
      "duration": 0.1248,
      "velocity": 98,
      "chip": "ym2612"
    },
    {
      "channel": 0,
      "note": 68,
      "start": 27.2574,
      "duration": 0.1387,
      "velocity": 90,
      "chip": "ym2612"
    },
    {
      "channel": 2,
      "note": 71,
      "start": 27.2602,
      "duration": 0.2029,
      "velocity": 90,
      "chip": "ym2612"
    },
    {
      "channel": 4,
      "note": 79,
      "start": 27.4324,
      "duration": 0.0305,
      "velocity": 127,
      "chip": "ym2612"
    },
    {
      "channel": 3,
      "note": 42,
      "start": 27.4354,
      "duration": 0.0941,
      "velocity": 98,
      "chip": "ym2612"
    },
    {
      "channel": 1,
      "note": 54,
      "start": 27.4381,
      "duration": 0.1415,
      "velocity": 98,
      "chip": "ym2612"
    },
    {
      "channel": 4,
      "note": 91,
      "start": 27.6326,
      "duration": 0.0304,
      "velocity": 127,
      "chip": "ym2612"
    },
    {
      "channel": 3,
      "note": 40,
      "start": 27.6352,
      "duration": 0.0777,
      "velocity": 98,
      "chip": "ym2612"
    },
    {
      "channel": 1,
      "note": 52,
      "start": 27.6381,
      "duration": 0.0914,
      "velocity": 98,
      "chip": "ym2612"
    },
    {
      "channel": 0,
      "note": 64,
      "start": 27.6408,
      "duration": 0.3553,
      "velocity": 90,
      "chip": "ym2612"
    },
    {
      "channel": 5,
      "note": 71,
      "start": 27.6434,
      "duration": 0.2196,
      "velocity": 90,
      "chip": "ym2612"
    },
    {
      "channel": 2,
      "note": 33,
      "start": 27.816,
      "duration": 0.0804,
      "velocity": 113,
      "chip": "ym2612"
    },
    {
      "channel": 3,
      "note": 37,
      "start": 27.8188,
      "duration": 0.0608,
      "velocity": 98,
      "chip": "ym2612"
    },
    {
      "channel": 1,
      "note": 49,
      "start": 27.8215,
      "duration": 0.0914,
      "velocity": 98,
      "chip": "ym2612"
    },
    {
      "channel": 2,
      "note": 33,
      "start": 28.016,
      "duration": 0.0805,
      "velocity": 113,
      "chip": "ym2612"
    },
    {
      "channel": 3,
      "note": 37,
      "start": 28.0187,
      "duration": 0.1609,
      "velocity": 98,
      "chip": "ym2612"
    },
    {
      "channel": 1,
      "note": 49,
      "start": 28.0216,
      "duration": 0.1412,
      "velocity": 98,
      "chip": "ym2612"
    },
    {
      "channel": 0,
      "note": 71,
      "start": 28.0246,
      "duration": 0.1715,
      "velocity": 90,
      "chip": "ym2612"
    },
    {
      "channel": 5,
      "note": 61,
      "start": 28.0275,
      "duration": 0.1022,
      "velocity": 90,
      "chip": "ym2612"
    },
    {
      "channel": 4,
      "note": 79,
      "start": 28.216,
      "duration": 0.0158,
      "velocity": 127,
      "chip": "ym2612"
    },
    {
      "channel": 3,
      "note": 49,
      "start": 28.2186,
      "duration": 0.1277,
      "velocity": 98,
      "chip": "ym2612"
    },
    {
      "channel": 1,
      "note": 61,
      "start": 28.2213,
      "duration": 0.1249,
      "velocity": 98,
      "chip": "ym2612"
    },
    {
      "channel": 4,
      "note": 91,
      "start": 28.3992,
      "duration": 0.0303,
      "velocity": 127,
      "chip": "ym2612"
    },
    {
      "channel": 3,
      "note": 37,
      "start": 28.4018,
      "duration": 0.0611,
      "velocity": 98,
      "chip": "ym2612"
    },
    {
      "channel": 1,
      "note": 49,
      "start": 28.405,
      "duration": 0.1078,
      "velocity": 98,
      "chip": "ym2612"
    },
    {
      "channel": 2,
      "note": 33,
      "start": 28.5992,
      "duration": 0.0805,
      "velocity": 113,
      "chip": "ym2612"
    },
    {
      "channel": 3,
      "note": 37,
      "start": 28.602,
      "duration": 0.0776,
      "velocity": 98,
      "chip": "ym2612"
    },
    {
      "channel": 1,
      "note": 59,
      "start": 28.6049,
      "duration": 0.1246,
      "velocity": 98,
      "chip": "ym2612"
    },
    {
      "channel": 4,
      "note": 91,
      "start": 28.7826,
      "duration": 0.0303,
      "velocity": 127,
      "chip": "ym2612"
    },
    {
      "channel": 3,
      "note": 37,
      "start": 28.7852,
      "duration": 0.1443,
      "velocity": 98,
      "chip": "ym2612"
    },
    {
      "channel": 4,
      "note": 79,
      "start": 28.9825,
      "duration": 0.0305,
      "velocity": 127,
      "chip": "ym2612"
    },
    {
      "channel": 3,
      "note": 49,
      "start": 28.9853,
      "duration": 0.1444,
      "velocity": 98,
      "chip": "ym2612"
    },
    {
      "channel": 4,
      "note": 91,
      "start": 29.1827,
      "duration": 0.0136,
      "velocity": 127,
      "chip": "ym2612"
    },
    {
      "channel": 3,
      "note": 37,
      "start": 29.1853,
      "duration": 0.0442,
      "velocity": 98,
      "chip": "ym2612"
    },
    {
      "channel": 1,
      "note": 49,
      "start": 29.1883,
      "duration": 0.108,
      "velocity": 98,
      "chip": "ym2612"
    },
    {
      "channel": 2,
      "note": 33,
      "start": 29.3658,
      "duration": 0.0809,
      "velocity": 113,
      "chip": "ym2612"
    },
    {
      "channel": 3,
      "note": 37,
      "start": 29.3684,
      "duration": 0.0611,
      "velocity": 98,
      "chip": "ym2612"
    },
    {
      "channel": 0,
      "note": 61,
      "start": 29.3712,
      "duration": 0.075,
      "velocity": 90,
      "chip": "ym2612"
    },
    {
      "channel": 5,
      "note": 59,
      "start": 29.3737,
      "duration": 0.0727,
      "velocity": 90,
      "chip": "ym2612"
    },
    {
      "channel": 4,
      "note": 91,
      "start": 29.5663,
      "duration": 0.0299,
      "velocity": 127,
      "chip": "ym2612"
    },
    {
      "channel": 3,
      "note": 37,
      "start": 29.569,
      "duration": 0.1273,
      "velocity": 98,
      "chip": "ym2612"
    },
    {
      "channel": 1,
      "note": 49,
      "start": 29.5717,
      "duration": 0.1078,
      "velocity": 98,
      "chip": "ym2612"
    },
    {
      "channel": 0,
      "note": 61,
      "start": 29.5744,
      "duration": 0.0906,
      "velocity": 90,
      "chip": "ym2612"
    },
    {
      "channel": 5,
      "note": 59,
      "start": 29.5771,
      "duration": 0.1026,
      "velocity": 90,
      "chip": "ym2612"
    },
    {
      "channel": 4,
      "note": 79,
      "start": 29.7491,
      "duration": 0.0305,
      "velocity": 127,
      "chip": "ym2612"
    },
    {
      "channel": 3,
      "note": 49,
      "start": 29.7518,
      "duration": 0.1611,
      "velocity": 98,
      "chip": "ym2612"
    },
    {
      "channel": 4,
      "note": 91,
      "start": 29.9493,
      "duration": 0.0304,
      "velocity": 127,
      "chip": "ym2612"
    },
    {
      "channel": 3,
      "note": 37,
      "start": 29.9519,
      "duration": 0.1277,
      "velocity": 98,
      "chip": "ym2612"
    },
    {
      "channel": 1,
      "note": 49,
      "start": 29.9549,
      "duration": 0.1413,
      "velocity": 98,
      "chip": "ym2612"
    },
    {
      "channel": 2,
      "note": 33,
      "start": 30.1345,
      "duration": 0.0785,
      "velocity": 113,
      "chip": "ym2612"
    },
    {
      "channel": 3,
      "note": 40,
      "start": 30.1371,
      "duration": 0.1258,
      "velocity": 98,
      "chip": "ym2612"
    },
    {
      "channel": 1,
      "note": 52,
      "start": 30.14,
      "duration": 0.1228,
      "velocity": 98,
      "chip": "ym2612"
    },
    {
      "channel": 0,
      "note": 59,
      "start": 30.143,
      "duration": 0.1865,
      "velocity": 90,
      "chip": "ym2612"
    },
    {
      "channel": 5,
      "note": 61,
      "start": 30.1458,
      "duration": 0.1339,
      "velocity": 90,
      "chip": "ym2612"
    },
    {
      "channel": 4,
      "note": 91,
      "start": 30.3327,
      "duration": 0.0302,
      "velocity": 127,
      "chip": "ym2612"
    },
    {
      "channel": 3,
      "note": 37,
      "start": 30.3354,
      "duration": 0.1776,
      "velocity": 98,
      "chip": "ym2612"
    },
    {
      "channel": 1,
      "note": 49,
      "start": 30.3382,
      "duration": 0.1413,
      "velocity": 98,
      "chip": "ym2612"
    },
    {
      "channel": 4,
      "note": 79,
      "start": 30.5324,
      "duration": 0.0305,
      "velocity": 127,
      "chip": "ym2612"
    },
    {
      "channel": 3,
      "note": 42,
      "start": 30.535,
      "duration": 0.0778,
      "velocity": 98,
      "chip": "ym2612"
    },
    {
      "channel": 1,
      "note": 54,
      "start": 30.5382,
      "duration": 0.108,
      "velocity": 98,
      "chip": "ym2612"
    },
    {
      "channel": 4,
      "note": 79,
      "start": 30.7158,
      "duration": 0.0306,
      "velocity": 127,
      "chip": "ym2612"
    },
    {
      "channel": 3,
      "note": 40,
      "start": 30.7183,
      "duration": 0.0946,
      "velocity": 98,
      "chip": "ym2612"
    },
    {
      "channel": 1,
      "note": 52,
      "start": 30.7211,
      "duration": 0.1085,
      "velocity": 98,
      "chip": "ym2612"
    },
    {
      "channel": 2,
      "note": 33,
      "start": 30.9162,
      "duration": 0.0802,
      "velocity": 113,
      "chip": "ym2612"
    },
    {
      "channel": 3,
      "note": 37,
      "start": 30.9203,
      "duration": 0.0593,
      "velocity": 98,
      "chip": "ym2612"
    },
    {
      "channel": 1,
      "note": 49,
      "start": 30.9232,
      "duration": 0.0896,
      "velocity": 98,
      "chip": "ym2612"
    },
    {
      "channel": 0,
      "note": 73,
      "start": 30.9259,
      "duration": 0.1036,
      "velocity": 90,
      "chip": "ym2612"
    },
    {
      "channel": 5,
      "note": 78,
      "start": 30.9287,
      "duration": 0.1176,
      "velocity": 90,
      "chip": "ym2612"
    },
    {
      "channel": 4,
      "note": 91,
      "start": 31.0993,
      "duration": 0.0304,
      "velocity": 127,
      "chip": "ym2612"
    },
    {
      "channel": 3,
      "note": 37,
      "start": 31.102,
      "duration": 0.1444,
      "velocity": 98,
      "chip": "ym2612"
    },
    {
      "channel": 1,
      "note": 49,
      "start": 31.1048,
      "duration": 0.1413,
      "velocity": 98,
      "chip": "ym2612"
    },
    {
      "channel": 0,
      "note": 73,
      "start": 31.1074,
      "duration": 0.172,
      "velocity": 90,
      "chip": "ym2612"
    },
    {
      "channel": 5,
      "note": 78,
      "start": 31.1105,
      "duration": 0.1524,
      "velocity": 90,
      "chip": "ym2612"
    },
    {
      "channel": 4,
      "note": 79,
      "start": 31.2991,
      "duration": 0.0305,
      "velocity": 127,
      "chip": "ym2612"
    },
    {
      "channel": 3,
      "note": 49,
      "start": 31.3018,
      "duration": 0.1612,
      "velocity": 98,
      "chip": "ym2612"
    },
    {
      "channel": 1,
      "note": 61,
      "start": 31.3044,
      "duration": 0.1417,
      "velocity": 98,
      "chip": "ym2612"
    },
    {
      "channel": 4,
      "note": 91,
      "start": 31.4992,
      "duration": 0.0303,
      "velocity": 127,
      "chip": "ym2612"
    },
    {
      "channel": 3,
      "note": 37,
      "start": 31.5018,
      "duration": 0.0465,
      "velocity": 98,
      "chip": "ym2612"
    },
    {
      "channel": 1,
      "note": 49,
      "start": 31.5045,
      "duration": 0.125,
      "velocity": 98,
      "chip": "ym2612"
    },
    {
      "channel": 0,
      "note": 73,
      "start": 31.5072,
      "duration": 0.1556,
      "velocity": 90,
      "chip": "ym2612"
    },
    {
      "channel": 5,
      "note": 78,
      "start": 31.51,
      "duration": 0.1697,
      "velocity": 90,
      "chip": "ym2612"
    },
    {
      "channel": 2,
      "note": 33,
      "start": 31.6826,
      "duration": 0.0805,
      "velocity": 113,
      "chip": "ym2612"
    },
    {
      "channel": 3,
      "note": 37,
      "start": 31.6853,
      "duration": 0.0776,
      "velocity": 98,
      "chip": "ym2612"
    },
    {
      "channel": 1,
      "note": 59,
      "start": 31.688,
      "duration": 0.1415,
      "velocity": 98,
      "chip": "ym2612"
    },
    {
      "channel": 4,
      "note": 91,
      "start": 31.8826,
      "duration": 0.0303,
      "velocity": 127,
      "chip": "ym2612"
    },
    {
      "channel": 3,
      "note": 37,
      "start": 31.8852,
      "duration": 0.1443,
      "velocity": 98,
      "chip": "ym2612"
    },
    {
      "channel": 1,
      "note": 49,
      "start": 31.8882,
      "duration": 0.1081,
      "velocity": 98,
      "chip": "ym2612"
    },
    {
      "channel": 4,
      "note": 79,
      "start": 32.0658,
      "duration": 0.0304,
      "velocity": 127,
      "chip": "ym2612"
    },
    {
      "channel": 3,
      "note": 49,
      "start": 32.0683,
      "duration": 0.1446,
      "velocity": 98,
      "chip": "ym2612"
    },
    {
      "channel": 4,
      "note": 91,
      "start": 32.266,
      "duration": 0.0303,
      "velocity": 127,
      "chip": "ym2612"
    },
    {
      "channel": 3,
      "note": 37,
      "start": 32.2686,
      "duration": 0.061,
      "velocity": 98,
      "chip": "ym2612"
    },
    {
      "channel": 1,
      "note": 49,
      "start": 32.2714,
      "duration": 0.1248,
      "velocity": 98,
      "chip": "ym2612"
    },
    {
      "channel": 2,
      "note": 33,
      "start": 32.466,
      "duration": 0.0638,
      "velocity": 113,
      "chip": "ym2612"
    },
    {
      "channel": 3,
      "note": 37,
      "start": 32.4691,
      "duration": 0.0605,
      "velocity": 98,
      "chip": "ym2612"
    },
    {
      "channel": 2,
      "note": 33,
      "start": 32.6493,
      "duration": 0.0803,
      "velocity": 113,
      "chip": "ym2612"
    },
    {
      "channel": 4,
      "note": 91,
      "start": 32.652,
      "duration": 0.0276,
      "velocity": 127,
      "chip": "ym2612"
    },
    {
      "channel": 3,
      "note": 37,
      "start": 32.6546,
      "duration": 0.1417,
      "velocity": 98,
      "chip": "ym2612"
    },
    {
      "channel": 1,
      "note": 49,
      "start": 32.6578,
      "duration": 0.1384,
      "velocity": 98,
      "chip": "ym2612"
    },
    {
      "channel": 4,
      "note": 79,
      "start": 32.8491,
      "duration": 0.0305,
      "velocity": 127,
      "chip": "ym2612"
    },
    {
      "channel": 3,
      "note": 49,
      "start": 32.8516,
      "duration": 0.1301,
      "velocity": 98,
      "chip": "ym2612"
    },
    {
      "channel": 4,
      "note": 91,
      "start": 33.0329,
      "duration": 0.03,
      "velocity": 127,
      "chip": "ym2612"
    },
    {
      "channel": 3,
      "note": 37,
      "start": 33.0356,
      "duration": 0.094,
      "velocity": 98,
      "chip": "ym2612"
    },
    {
      "channel": 1,
      "note": 49,
      "start": 33.0384,
      "duration": 0.1411,
      "velocity": 98,
      "chip": "ym2612"
    },
    {
      "channel": 2,
      "note": 33,
      "start": 33.2326,
      "duration": 0.0805,
      "velocity": 113,
      "chip": "ym2612"
    },
    {
      "channel": 3,
      "note": 40,
      "start": 33.2352,
      "duration": 0.0944,
      "velocity": 98,
      "chip": "ym2612"
    },
    {
      "channel": 1,
      "note": 52,
      "start": 33.2378,
      "duration": 0.1417,
      "velocity": 98,
      "chip": "ym2612"
    },
    {
      "channel": 0,
      "note": 73,
      "start": 33.2405,
      "duration": 0.1223,
      "velocity": 90,
      "chip": "ym2612"
    },
    {
      "channel": 5,
      "note": 66,
      "start": 33.2432,
      "duration": 0.1031,
      "velocity": 90,
      "chip": "ym2612"
    },
    {
      "channel": 4,
      "note": 91,
      "start": 33.4326,
      "duration": 0.016,
      "velocity": 127,
      "chip": "ym2612"
    },
    {
      "channel": 3,
      "note": 37,
      "start": 33.4352,
      "duration": 0.1111,
      "velocity": 98,
      "chip": "ym2612"
    },
    {
      "channel": 1,
      "note": 49,
      "start": 33.4379,
      "duration": 0.1249,
      "velocity": 98,
      "chip": "ym2612"
    },
    {
      "channel": 0,
      "note": 68,
      "start": 33.4409,
      "duration": 0.1552,
      "velocity": 90,
      "chip": "ym2612"
    },
    {
      "channel": 5,
      "note": 73,
      "start": 33.4434,
      "duration": 0.1529,
      "velocity": 90,
      "chip": "ym2612"
    },
    {
      "channel": 4,
      "note": 79,
      "start": 33.6158,
      "duration": 0.0305,
      "velocity": 127,
      "chip": "ym2612"
    },
    {
      "channel": 3,
      "note": 42,
      "start": 33.6184,
      "duration": 0.0779,
      "velocity": 98,
      "chip": "ym2612"
    },
    {
      "channel": 1,
      "note": 54,
      "start": 33.6213,
      "duration": 0.1082,
      "velocity": 98,
      "chip": "ym2612"
    },
    {
      "channel": 4,
      "note": 91,
      "start": 33.8159,
      "duration": 0.0304,
      "velocity": 127,
      "chip": "ym2612"
    },
    {
      "channel": 3,
      "note": 40,
      "start": 33.8184,
      "duration": 0.0779,
      "velocity": 98,
      "chip": "ym2612"
    },
    {
      "channel": 1,
      "note": 52,
      "start": 33.8212,
      "duration": 0.0917,
      "velocity": 98,
      "chip": "ym2612"
    },
    {
      "channel": 0,
      "note": 73,
      "start": 33.8239,
      "duration": 0.4389,
      "velocity": 90,
      "chip": "ym2612"
    },
    {
      "channel": 5,
      "note": 64,
      "start": 33.8265,
      "duration": 0.4366,
      "velocity": 90,
      "chip": "ym2612"
    },
    {
      "channel": 2,
      "note": 33,
      "start": 33.9992,
      "duration": 0.0806,
      "velocity": 113,
      "chip": "ym2612"
    },
    {
      "channel": 3,
      "note": 37,
      "start": 34.0018,
      "duration": 0.0778,
      "velocity": 98,
      "chip": "ym2612"
    },
    {
      "channel": 1,
      "note": 49,
      "start": 34.0046,
      "duration": 0.1083,
      "velocity": 98,
      "chip": "ym2612"
    },
    {
      "channel": 3,
      "note": 37,
      "start": 34.1993,
      "duration": 0.1636,
      "velocity": 98,
      "chip": "ym2612"
    },
    {
      "channel": 1,
      "note": 49,
      "start": 34.2022,
      "duration": 0.144,
      "velocity": 98,
      "chip": "ym2612"
    },
    {
      "channel": 4,
      "note": 79,
      "start": 34.3992,
      "duration": 0.0155,
      "velocity": 127,
      "chip": "ym2612"
    },
    {
      "channel": 3,
      "note": 49,
      "start": 34.4022,
      "duration": 0.1107,
      "velocity": 98,
      "chip": "ym2612"
    },
    {
      "channel": 1,
      "note": 61,
      "start": 34.4049,
      "duration": 0.1247,
      "velocity": 98,
      "chip": "ym2612"
    },
    {
      "channel": 0,
      "note": 73,
      "start": 34.4076,
      "duration": 0.0718,
      "velocity": 90,
      "chip": "ym2612"
    },
    {
      "channel": 5,
      "note": 61,
      "start": 34.4104,
      "duration": 0.0525,
      "velocity": 90,
      "chip": "ym2612"
    },
    {
      "channel": 4,
      "note": 91,
      "start": 34.5826,
      "duration": 0.0304,
      "velocity": 127,
      "chip": "ym2612"
    },
    {
      "channel": 3,
      "note": 37,
      "start": 34.5852,
      "duration": 0.0777,
      "velocity": 98,
      "chip": "ym2612"
    },
    {
      "channel": 1,
      "note": 49,
      "start": 34.588,
      "duration": 0.0915,
      "velocity": 98,
      "chip": "ym2612"
    },
    {
      "channel": 2,
      "note": 33,
      "start": 34.7824,
      "duration": 0.0807,
      "velocity": 113,
      "chip": "ym2612"
    },
    {
      "channel": 3,
      "note": 37,
      "start": 34.785,
      "duration": 0.0779,
      "velocity": 98,
      "chip": "ym2612"
    },
    {
      "channel": 1,
      "note": 59,
      "start": 34.7883,
      "duration": 0.1246,
      "velocity": 98,
      "chip": "ym2612"
    },
    {
      "channel": 4,
      "note": 91,
      "start": 34.966,
      "duration": 0.0304,
      "velocity": 127,
      "chip": "ym2612"
    },
    {
      "channel": 3,
      "note": 37,
      "start": 34.9686,
      "duration": 0.161,
      "velocity": 98,
      "chip": "ym2612"
    },
    {
      "channel": 1,
      "note": 49,
      "start": 34.9716,
      "duration": 0.1079,
      "velocity": 98,
      "chip": "ym2612"
    },
    {
      "channel": 4,
      "note": 79,
      "start": 35.1658,
      "duration": 0.0304,
      "velocity": 127,
      "chip": "ym2612"
    },
    {
      "channel": 3,
      "note": 49,
      "start": 35.1684,
      "duration": 0.1278,
      "velocity": 98,
      "chip": "ym2612"
    },
    {
      "channel": 4,
      "note": 91,
      "start": 35.3515,
      "duration": 0.0282,
      "velocity": 127,
      "chip": "ym2612"
    },
    {
      "channel": 3,
      "note": 37,
      "start": 35.3541,
      "duration": 0.0754,
      "velocity": 98,
      "chip": "ym2612"
    },
    {
      "channel": 1,
      "note": 49,
      "start": 35.3569,
      "duration": 0.1227,
      "velocity": 98,
      "chip": "ym2612"
    },
    {
      "channel": 2,
      "note": 33,
      "start": 35.5491,
      "duration": 0.0806,
      "velocity": 113,
      "chip": "ym2612"
    },
    {
      "channel": 3,
      "note": 37,
      "start": 35.5518,
      "duration": 0.061,
      "velocity": 98,
      "chip": "ym2612"
    },
    {
      "channel": 4,
      "note": 91,
      "start": 35.7496,
      "duration": 0.03,
      "velocity": 127,
      "chip": "ym2612"
    },
    {
      "channel": 3,
      "note": 37,
      "start": 35.7522,
      "duration": 0.1273,
      "velocity": 98,
      "chip": "ym2612"
    },
    {
      "channel": 1,
      "note": 49,
      "start": 35.7552,
      "duration": 0.1242,
      "velocity": 98,
      "chip": "ym2612"
    },
    {
      "channel": 4,
      "note": 79,
      "start": 35.9324,
      "duration": 0.0305,
      "velocity": 127,
      "chip": "ym2612"
    },
    {
      "channel": 3,
      "note": 49,
      "start": 35.9349,
      "duration": 0.1448,
      "velocity": 98,
      "chip": "ym2612"
    },
    {
      "channel": 1,
      "note": 52,
      "start": 35.9375,
      "duration": 0.142,
      "velocity": 98,
      "chip": "ym2612"
    },
    {
      "channel": 4,
      "note": 91,
      "start": 36.1326,
      "duration": 0.0303,
      "velocity": 127,
      "chip": "ym2612"
    },
    {
      "channel": 3,
      "note": 37,
      "start": 36.1356,
      "duration": 0.1107,
      "velocity": 98,
      "chip": "ym2612"
    },
    {
      "channel": 1,
      "note": 49,
      "start": 36.1382,
      "duration": 0.1412,
      "velocity": 98,
      "chip": "ym2612"
    },
    {
      "channel": 0,
      "note": 64,
      "start": 36.1413,
      "duration": 0.1215,
      "velocity": 90,
      "chip": "ym2612"
    },
    {
      "channel": 2,
      "note": 33,
      "start": 36.3158,
      "duration": 0.0806,
      "velocity": 113,
      "chip": "ym2612"
    },
    {
      "channel": 3,
      "note": 40,
      "start": 36.3186,
      "duration": 0.0777,
      "velocity": 98,
      "chip": "ym2612"
    },
    {
      "channel": 1,
      "note": 56,
      "start": 36.3212,
      "duration": 0.1416,
      "velocity": 98,
      "chip": "ym2612"
    },
    {
      "channel": 0,
      "note": 63,
      "start": 36.3236,
      "duration": 0.1226,
      "velocity": 90,
      "chip": "ym2612"
    },
    {
      "channel": 4,
      "note": 91,
      "start": 36.5159,
      "duration": 0.0303,
      "velocity": 127,
      "chip": "ym2612"
    },
    {
      "channel": 3,
      "note": 37,
      "start": 36.5185,
      "duration": 0.1446,
      "velocity": 98,
      "chip": "ym2612"
    },
    {
      "channel": 1,
      "note": 55,
      "start": 36.5212,
      "duration": 0.1417,
      "velocity": 98,
      "chip": "ym2612"
    },
    {
      "channel": 0,
      "note": 61,
      "start": 36.5237,
      "duration": 0.1391,
      "velocity": 90,
      "chip": "ym2612"
    },
    {
      "channel": 4,
      "note": 79,
      "start": 36.7158,
      "duration": 0.0305,
      "velocity": 127,
      "chip": "ym2612"
    },
    {
      "channel": 3,
      "note": 42,
      "start": 36.7184,
      "duration": 0.0612,
      "velocity": 98,
      "chip": "ym2612"
    },
    {
      "channel": 1,
      "note": 54,
      "start": 36.721,
      "duration": 0.1251,
      "velocity": 98,
      "chip": "ym2612"
    },
    {
      "channel": 0,
      "note": 59,
      "start": 36.7236,
      "duration": 0.0893,
      "velocity": 90,
      "chip": "ym2612"
    },
    {
      "channel": 5,
      "note": 71,
      "start": 36.7268,
      "duration": 0.0695,
      "velocity": 97,
      "chip": "ym2612"
    },
    {
      "channel": 4,
      "note": 79,
      "start": 36.8991,
      "duration": 0.0306,
      "velocity": 127,
      "chip": "ym2612"
    },
    {
      "channel": 3,
      "note": 40,
      "start": 36.9016,
      "duration": 0.078,
      "velocity": 98,
      "chip": "ym2612"
    },
    {
      "channel": 1,
      "note": 52,
      "start": 36.9048,
      "duration": 0.1248,
      "velocity": 98,
      "chip": "ym2612"
    },
    {
      "channel": 0,
      "note": 61,
      "start": 36.9074,
      "duration": 0.1053,
      "velocity": 90,
      "chip": "ym2612"
    },
    {
      "channel": 2,
      "note": 33,
      "start": 37.1006,
      "duration": 0.0791,
      "velocity": 113,
      "chip": "ym2612"
    },
    {
      "channel": 3,
      "note": 37,
      "start": 37.1044,
      "duration": 0.0251,
      "velocity": 98,
      "chip": "ym2612"
    },
    {
      "channel": 1,
      "note": 49,
      "start": 37.1084,
      "duration": 0.0377,
      "velocity": 98,
      "chip": "ym2612"
    },
    {
      "channel": 5,
      "note": 68,
      "start": 37.1121,
      "duration": 0.101,
      "velocity": 97,
      "chip": "ym2612"
    },
    {
      "channel": 4,
      "note": 73,
      "start": 37.1154,
      "duration": 0.0309,
      "velocity": 97,
      "chip": "ym2612"
    },
    {
      "channel": 0,
      "note": 91,
      "start": 37.2827,
      "duration": 0.0301,
      "velocity": 127,
      "chip": "ym2612"
    },
    {
      "channel": 3,
      "note": 37,
      "start": 37.2853,
      "duration": 0.1609,
      "velocity": 98,
      "chip": "ym2612"
    },
    {
      "channel": 1,
      "note": 49,
      "start": 37.2881,
      "duration": 0.1415,
      "velocity": 98,
      "chip": "ym2612"
    },
    {
      "channel": 5,
      "note": 68,
      "start": 37.2913,
      "duration": 0.1216,
      "velocity": 97,
      "chip": "ym2612"
    },
    {
      "channel": 4,
      "note": 71,
      "start": 37.2944,
      "duration": 0.0685,
      "velocity": 97,
      "chip": "ym2612"
    },
    {
      "channel": 2,
      "note": 73,
      "start": 37.298,
      "duration": 0.0317,
      "velocity": 97,
      "chip": "ym2612"
    },
    {
      "channel": 0,
      "note": 79,
      "start": 37.4823,
      "duration": 0.0305,
      "velocity": 127,
      "chip": "ym2612"
    },
    {
      "channel": 3,
      "note": 49,
      "start": 37.4848,
      "duration": 0.1615,
      "velocity": 98,
      "chip": "ym2612"
    },
    {
      "channel": 1,
      "note": 61,
      "start": 37.4875,
      "duration": 0.142,
      "velocity": 98,
      "chip": "ym2612"
    },
    {
      "channel": 2,
      "note": 85,
      "start": 37.4906,
      "duration": 0.0391,
      "velocity": 97,
      "chip": "ym2612"
    },
    {
      "channel": 0,
      "note": 91,
      "start": 37.6824,
      "duration": 0.0304,
      "velocity": 127,
      "chip": "ym2612"
    },
    {
      "channel": 3,
      "note": 37,
      "start": 37.685,
      "duration": 0.0446,
      "velocity": 98,
      "chip": "ym2612"
    },
    {
      "channel": 1,
      "note": 49,
      "start": 37.6878,
      "duration": 0.0749,
      "velocity": 98,
      "chip": "ym2612"
    },
    {
      "channel": 4,
      "note": 71,
      "start": 37.691,
      "duration": 0.072,
      "velocity": 97,
      "chip": "ym2612"
    },
    {
      "channel": 5,
      "note": 68,
      "start": 37.6941,
      "duration": 0.0855,
      "velocity": 97,
      "chip": "ym2612"
    },
    {
      "channel": 2,
      "note": 73,
      "start": 37.6973,
      "duration": 0.0181,
      "velocity": 97,
      "chip": "ym2612"
    },
    {
      "channel": 0,
      "note": 33,
      "start": 37.8657,
      "duration": 0.0805,
      "velocity": 113,
      "chip": "ym2612"
    },
    {
      "channel": 3,
      "note": 37,
      "start": 37.8683,
      "duration": 0.0612,
      "velocity": 98,
      "chip": "ym2612"
    },
    {
      "channel": 1,
      "note": 59,
      "start": 37.8713,
      "duration": 0.1416,
      "velocity": 98,
      "chip": "ym2612"
    },
    {
      "channel": 2,
      "note": 83,
      "start": 37.8744,
      "duration": 0.0386,
      "velocity": 97,
      "chip": "ym2612"
    },
    {
      "channel": 4,
      "note": 91,
      "start": 38.066,
      "duration": 0.0303,
      "velocity": 127,
      "chip": "ym2612"
    },
    {
      "channel": 3,
      "note": 37,
      "start": 38.069,
      "duration": 0.1294,
      "velocity": 98,
      "chip": "ym2612"
    },
    {
      "channel": 2,
      "note": 73,
      "start": 38.0722,
      "duration": 0.0408,
      "velocity": 97,
      "chip": "ym2612"
    },
    {
      "channel": 4,
      "note": 79,
      "start": 38.249,
      "duration": 0.0305,
      "velocity": 127,
      "chip": "ym2612"
    },
    {
      "channel": 3,
      "note": 49,
      "start": 38.2515,
      "duration": 0.1446,
      "velocity": 98,
      "chip": "ym2612"
    },
    {
      "channel": 2,
      "note": 73,
      "start": 38.2548,
      "duration": 0.0416,
      "velocity": 97,
      "chip": "ym2612"
    },
    {
      "channel": 4,
      "note": 91,
      "start": 38.4492,
      "duration": 0.0304,
      "velocity": 127,
      "chip": "ym2612"
    },
    {
      "channel": 3,
      "note": 37,
      "start": 38.4518,
      "duration": 0.061,
      "velocity": 98,
      "chip": "ym2612"
    },
    {
      "channel": 1,
      "note": 49,
      "start": 38.4548,
      "duration": 0.1081,
      "velocity": 98,
      "chip": "ym2612"
    },
    {
      "channel": 2,
      "note": 80,
      "start": 38.4579,
      "duration": 0.0384,
      "velocity": 97,
      "chip": "ym2612"
    },
    {
      "channel": 0,
      "note": 33,
      "start": 38.6488,
      "duration": 0.064,
      "velocity": 113,
      "chip": "ym2612"
    },
    {
      "channel": 3,
      "note": 37,
      "start": 38.6514,
      "duration": 0.0448,
      "velocity": 98,
      "chip": "ym2612"
    },
    {
      "channel": 2,
      "note": 73,
      "start": 38.6546,
      "duration": 0.0251,
      "velocity": 97,
      "chip": "ym2612"
    },
    {
      "channel": 4,
      "note": 91,
      "start": 38.8326,
      "duration": 0.0304,
      "velocity": 127,
      "chip": "ym2612"
    },
    {
      "channel": 3,
      "note": 37,
      "start": 38.8352,
      "duration": 0.1111,
      "velocity": 98,
      "chip": "ym2612"
    },
    {
      "channel": 1,
      "note": 49,
      "start": 38.8382,
      "duration": 0.1079,
      "velocity": 98,
      "chip": "ym2612"
    },
    {
      "channel": 2,
      "note": 73,
      "start": 38.8414,
      "duration": 0.0383,
      "velocity": 97,
      "chip": "ym2612"
    },
    {
      "channel": 4,
      "note": 79,
      "start": 39.0325,
      "duration": 0.0305,
      "velocity": 127,
      "chip": "ym2612"
    },
    {
      "channel": 3,
      "note": 49,
      "start": 39.0351,
      "duration": 0.1278,
      "velocity": 98,
      "chip": "ym2612"
    },
    {
      "channel": 2,
      "note": 83,
      "start": 39.0383,
      "duration": 0.0414,
      "velocity": 97,
      "chip": "ym2612"
    },
    {
      "channel": 4,
      "note": 91,
      "start": 39.2162,
      "duration": 0.0301,
      "velocity": 127,
      "chip": "ym2612"
    },
    {
      "channel": 3,
      "note": 37,
      "start": 39.2189,
      "duration": 0.1273,
      "velocity": 98,
      "chip": "ym2612"
    },
    {
      "channel": 1,
      "note": 49,
      "start": 39.2219,
      "duration": 0.1409,
      "velocity": 98,
      "chip": "ym2612"
    },
    {
      "channel": 5,
      "note": 70,
      "start": 39.2254,
      "duration": 0.071,
      "velocity": 97,
      "chip": "ym2612"
    },
    {
      "channel": 0,
      "note": 66,
      "start": 39.2284,
      "duration": 0.0677,
      "velocity": 97,
      "chip": "ym2612"
    },
    {
      "channel": 2,
      "note": 73,
      "start": 39.2315,
      "duration": 0.0315,
      "velocity": 97,
      "chip": "ym2612"
    },
    {
      "channel": 4,
      "note": 33,
      "start": 39.4158,
      "duration": 0.0805,
      "velocity": 113,
      "chip": "ym2612"
    },
    {
      "channel": 3,
      "note": 40,
      "start": 39.4184,
      "duration": 0.1279,
      "velocity": 98,
      "chip": "ym2612"
    },
    {
      "channel": 1,
      "note": 52,
      "start": 39.4212,
      "duration": 0.1083,
      "velocity": 98,
      "chip": "ym2612"
    },
    {
      "channel": 2,
      "note": 82,
      "start": 39.4244,
      "duration": 0.0386,
      "velocity": 97,
      "chip": "ym2612"
    },
    {
      "channel": 0,
      "note": 91,
      "start": 39.6161,
      "duration": 0.0185,
      "velocity": 127,
      "chip": "ym2612"
    },
    {
      "channel": 3,
      "note": 37,
      "start": 39.6187,
      "duration": 0.1441,
      "velocity": 98,
      "chip": "ym2612"
    },
    {
      "channel": 1,
      "note": 49,
      "start": 39.6215,
      "duration": 0.1247,
      "velocity": 98,
      "chip": "ym2612"
    },
    {
      "channel": 5,
      "note": 70,
      "start": 39.6247,
      "duration": 0.3882,
      "velocity": 97,
      "chip": "ym2612"
    },
    {
      "channel": 2,
      "note": 66,
      "start": 39.6278,
      "duration": 0.3685,
      "velocity": 97,
      "chip": "ym2612"
    },
    {
      "channel": 4,
      "note": 80,
      "start": 39.631,
      "duration": 0.0153,
      "velocity": 97,
      "chip": "ym2612"
    },
    {
      "channel": 0,
      "note": 79,
      "start": 39.799,
      "duration": 0.0305,
      "velocity": 127,
      "chip": "ym2612"
    },
    {
      "channel": 3,
      "note": 42,
      "start": 39.802,
      "duration": 0.0944,
      "velocity": 98,
      "chip": "ym2612"
    },
    {
      "channel": 1,
      "note": 54,
      "start": 39.8046,
      "duration": 0.1416,
      "velocity": 98,
      "chip": "ym2612"
    },
    {
      "channel": 4,
      "note": 78,
      "start": 39.8076,
      "duration": 0.0387,
      "velocity": 97,
      "chip": "ym2612"
    },
    {
      "channel": 0,
      "note": 91,
      "start": 39.9992,
      "duration": 0.0303,
      "velocity": 127,
      "chip": "ym2612"
    },
    {
      "channel": 3,
      "note": 40,
      "start": 40.0018,
      "duration": 0.0777,
      "velocity": 98,
      "chip": "ym2612"
    },
    {
      "channel": 1,
      "note": 52,
      "start": 40.0046,
      "duration": 0.0771,
      "velocity": 98,
      "chip": "ym2612"
    },
    {
      "channel": 4,
      "note": 80,
      "start": 40.0076,
      "duration": 0.0388,
      "velocity": 97,
      "chip": "ym2612"
    },
    {
      "channel": 2,
      "note": 33,
      "start": 40.1827,
      "duration": 0.0804,
      "velocity": 113,
      "chip": "ym2612"
    },
    {
      "channel": 3,
      "note": 37,
      "start": 40.1854,
      "duration": 0.0608,
      "velocity": 98,
      "chip": "ym2612"
    },
    {
      "channel": 1,
      "note": 49,
      "start": 40.1882,
      "duration": 0.0913,
      "velocity": 98,
      "chip": "ym2612"
    },
    {
      "channel": 5,
      "note": 70,
      "start": 40.1914,
      "duration": 0.1382,
      "velocity": 97,
      "chip": "ym2612"
    },
    {
      "channel": 0,
      "note": 66,
      "start": 40.1944,
      "duration": 0.0516,
      "velocity": 97,
      "chip": "ym2612"
    },
    {
      "channel": 4,
      "note": 73,
      "start": 40.1975,
      "duration": 0.0321,
      "velocity": 97,
      "chip": "ym2612"
    },
    {
      "channel": 2,
      "note": 33,
      "start": 40.3826,
      "duration": 0.0804,
      "velocity": 113,
      "chip": "ym2612"
    },
    {
      "channel": 3,
      "note": 37,
      "start": 40.3854,
      "duration": 0.1608,
      "velocity": 98,
      "chip": "ym2612"
    },
    {
      "channel": 1,
      "note": 49,
      "start": 40.3882,
      "duration": 0.1413,
      "velocity": 98,
      "chip": "ym2612"
    },
    {
      "channel": 0,
      "note": 64,
      "start": 40.3916,
      "duration": 0.1045,
      "velocity": 97,
      "chip": "ym2612"
    },
    {
      "channel": 5,
      "note": 68,
      "start": 40.3946,
      "duration": 0.0518,
      "velocity": 97,
      "chip": "ym2612"
    },
    {
      "channel": 4,
      "note": 73,
      "start": 40.3982,
      "duration": 0.0314,
      "velocity": 97,
      "chip": "ym2612"
    },
    {
      "channel": 4,
      "note": 79,
      "start": 40.5683,
      "duration": 0.028,
      "velocity": 127,
      "chip": "ym2612"
    },
    {
      "channel": 3,
      "note": 49,
      "start": 40.5709,
      "duration": 0.1422,
      "velocity": 98,
      "chip": "ym2612"
    },
    {
      "channel": 1,
      "note": 61,
      "start": 40.5735,
      "duration": 0.1394,
      "velocity": 98,
      "chip": "ym2612"
    },
    {
      "channel": 5,
      "note": 85,
      "start": 40.5767,
      "duration": 0.0363,
      "velocity": 97,
      "chip": "ym2612"
    },
    {
      "channel": 4,
      "note": 91,
      "start": 40.766,
      "duration": 0.0303,
      "velocity": 127,
      "chip": "ym2612"
    },
    {
      "channel": 3,
      "note": 37,
      "start": 40.7686,
      "duration": 0.0611,
      "velocity": 98,
      "chip": "ym2612"
    },
    {
      "channel": 1,
      "note": 49,
      "start": 40.7717,
      "duration": 0.1078,
      "velocity": 98,
      "chip": "ym2612"
    },
    {
      "channel": 0,
      "note": 68,
      "start": 40.7748,
      "duration": 0.0713,
      "velocity": 97,
      "chip": "ym2612"
    },
    {
      "channel": 2,
      "note": 64,
      "start": 40.7781,
      "duration": 0.0849,
      "velocity": 97,
      "chip": "ym2612"
    },
    {
      "channel": 5,
      "note": 73,
      "start": 40.7812,
      "duration": 0.0318,
      "velocity": 97,
      "chip": "ym2612"
    },
    {
      "channel": 4,
      "note": 33,
      "start": 40.966,
      "duration": 0.0659,
      "velocity": 113,
      "chip": "ym2612"
    },
    {
      "channel": 3,
      "note": 37,
      "start": 40.9687,
      "duration": 0.063,
      "velocity": 98,
      "chip": "ym2612"
    },
    {
      "channel": 1,
      "note": 59,
      "start": 40.9717,
      "duration": 0.1246,
      "velocity": 98,
      "chip": "ym2612"
    },
    {
      "channel": 5,
      "note": 83,
      "start": 40.9747,
      "duration": 0.0383,
      "velocity": 97,
      "chip": "ym2612"
    },
    {
      "channel": 0,
      "note": 91,
      "start": 41.1495,
      "duration": 0.03,
      "velocity": 127,
      "chip": "ym2612"
    },
    {
      "channel": 3,
      "note": 37,
      "start": 41.1521,
      "duration": 0.1441,
      "velocity": 98,
      "chip": "ym2612"
    },
    {
      "channel": 5,
      "note": 73,
      "start": 41.1553,
      "duration": 0.0411,
      "velocity": 97,
      "chip": "ym2612"
    },
    {
      "channel": 0,
      "note": 79,
      "start": 41.3489,
      "duration": 0.0305,
      "velocity": 127,
      "chip": "ym2612"
    },
    {
      "channel": 3,
      "note": 49,
      "start": 41.3514,
      "duration": 0.1448,
      "velocity": 98,
      "chip": "ym2612"
    },
    {
      "channel": 5,
      "note": 73,
      "start": 41.3546,
      "duration": 0.0418,
      "velocity": 97,
      "chip": "ym2612"
    },
    {
      "channel": 0,
      "note": 91,
      "start": 41.5325,
      "duration": 0.0303,
      "velocity": 127,
      "chip": "ym2612"
    },
    {
      "channel": 3,
      "note": 37,
      "start": 41.5354,
      "duration": 0.0608,
      "velocity": 98,
      "chip": "ym2612"
    },
    {
      "channel": 1,
      "note": 49,
      "start": 41.5385,
      "duration": 0.1244,
      "velocity": 98,
      "chip": "ym2612"
    },
    {
      "channel": 5,
      "note": 83,
      "start": 41.5415,
      "duration": 0.0381,
      "velocity": 97,
      "chip": "ym2612"
    },
    {
      "channel": 4,
      "note": 33,
      "start": 41.7324,
      "duration": 0.0805,
      "velocity": 113,
      "chip": "ym2612"
    },
    {
      "channel": 3,
      "note": 37,
      "start": 41.735,
      "duration": 0.0613,
      "velocity": 98,
      "chip": "ym2612"
    },
    {
      "channel": 5,
      "note": 73,
      "start": 41.7381,
      "duration": 0.0415,
      "velocity": 97,
      "chip": "ym2612"
    },
    {
      "channel": 0,
      "note": 91,
      "start": 41.9329,
      "duration": 0.0299,
      "velocity": 127,
      "chip": "ym2612"
    },
    {
      "channel": 3,
      "note": 37,
      "start": 41.9355,
      "duration": 0.1273,
      "velocity": 98,
      "chip": "ym2612"
    },
    {
      "channel": 1,
      "note": 49,
      "start": 41.9382,
      "duration": 0.1081,
      "velocity": 98,
      "chip": "ym2612"
    },
    {
      "channel": 5,
      "note": 73,
      "start": 41.9412,
      "duration": 0.0385,
      "velocity": 97,
      "chip": "ym2612"
    },
    {
      "channel": 0,
      "note": 79,
      "start": 42.1156,
      "duration": 0.0305,
      "velocity": 127,
      "chip": "ym2612"
    },
    {
      "channel": 3,
      "note": 49,
      "start": 42.1183,
      "duration": 0.1612,
      "velocity": 98,
      "chip": "ym2612"
    },
    {
      "channel": 5,
      "note": 83,
      "start": 42.1214,
      "duration": 0.0415,
      "velocity": 97,
      "chip": "ym2612"
    },
    {
      "channel": 0,
      "note": 91,
      "start": 42.3158,
      "duration": 0.0303,
      "velocity": 127,
      "chip": "ym2612"
    },
    {
      "channel": 3,
      "note": 37,
      "start": 42.3184,
      "duration": 0.1279,
      "velocity": 98,
      "chip": "ym2612"
    },
    {
      "channel": 1,
      "note": 49,
      "start": 42.3214,
      "duration": 0.1414,
      "velocity": 98,
      "chip": "ym2612"
    },
    {
      "channel": 5,
      "note": 73,
      "start": 42.3244,
      "duration": 0.0385,
      "velocity": 97,
      "chip": "ym2612"
    },
    {
      "channel": 4,
      "note": 33,
      "start": 42.499,
      "duration": 0.0806,
      "velocity": 113,
      "chip": "ym2612"
    },
    {
      "channel": 3,
      "note": 40,
      "start": 42.5016,
      "duration": 0.1279,
      "velocity": 98,
      "chip": "ym2612"
    },
    {
      "channel": 1,
      "note": 52,
      "start": 42.5045,
      "duration": 0.1249,
      "velocity": 98,
      "chip": "ym2612"
    },
    {
      "channel": 5,
      "note": 82,
      "start": 42.5076,
      "duration": 0.0388,
      "velocity": 97,
      "chip": "ym2612"
    },
    {
      "channel": 0,
      "note": 91,
      "start": 42.6992,
      "duration": 0.0303,
      "velocity": 127,
      "chip": "ym2612"
    },
    {
      "channel": 3,
      "note": 37,
      "start": 42.7018,
      "duration": 0.1777,
      "velocity": 98,
      "chip": "ym2612"
    },
    {
      "channel": 1,
      "note": 49,
      "start": 42.7046,
      "duration": 0.1416,
      "velocity": 98,
      "chip": "ym2612"
    },
    {
      "channel": 5,
      "note": 80,
      "start": 42.7077,
      "duration": 0.0386,
      "velocity": 97,
      "chip": "ym2612"
    },
    {
      "channel": 0,
      "note": 79,
      "start": 42.899,
      "duration": 0.0305,
      "velocity": 127,
      "chip": "ym2612"
    },
    {
      "channel": 3,
      "note": 42,
      "start": 42.9016,
      "duration": 0.078,
      "velocity": 98,
      "chip": "ym2612"
    },
    {
      "channel": 1,
      "note": 54,
      "start": 42.9048,
      "duration": 0.108,
      "velocity": 98,
      "chip": "ym2612"
    },
    {
      "channel": 5,
      "note": 78,
      "start": 42.9079,
      "duration": 0.024,
      "velocity": 97,
      "chip": "ym2612"
    },
    {
      "channel": 0,
      "note": 79,
      "start": 43.0822,
      "duration": 0.0306,
      "velocity": 127,
      "chip": "ym2612"
    },
    {
      "channel": 3,
      "note": 40,
      "start": 43.0847,
      "duration": 0.0949,
      "velocity": 98,
      "chip": "ym2612"
    },
    {
      "channel": 1,
      "note": 52,
      "start": 43.0875,
      "duration": 0.1086,
      "velocity": 98,
      "chip": "ym2612"
    },
    {
      "channel": 5,
      "note": 73,
      "start": 43.0906,
      "duration": 0.0391,
      "velocity": 97,
      "chip": "ym2612"
    },
    {
      "channel": 4,
      "note": 33,
      "start": 43.2826,
      "duration": 0.0804,
      "velocity": 113,
      "chip": "ym2612"
    },
    {
      "channel": 3,
      "note": 37,
      "start": 43.2868,
      "duration": 0.0595,
      "velocity": 98,
      "chip": "ym2612"
    },
    {
      "channel": 1,
      "note": 49,
      "start": 43.2897,
      "duration": 0.0898,
      "velocity": 98,
      "chip": "ym2612"
    },
    {
      "channel": 2,
      "note": 68,
      "start": 43.293,
      "duration": 0.0702,
      "velocity": 97,
      "chip": "ym2612"
    },
    {
      "channel": 0,
      "note": 71,
      "start": 43.2965,
      "duration": 0.0663,
      "velocity": 97,
      "chip": "ym2612"
    },
    {
      "channel": 5,
      "note": 73,
      "start": 43.2993,
      "duration": 0.0303,
      "velocity": 97,
      "chip": "ym2612"
    },
    {
      "channel": 5,
      "note": 91,
      "start": 43.466,
      "duration": 0.0303,
      "velocity": 127,
      "chip": "ym2612"
    },
    {
      "channel": 3,
      "note": 37,
      "start": 43.4687,
      "duration": 0.1444,
      "velocity": 98,
      "chip": "ym2612"
    },
    {
      "channel": 1,
      "note": 49,
      "start": 43.4715,
      "duration": 0.1414,
      "velocity": 98,
      "chip": "ym2612"
    },
    {
      "channel": 0,
      "note": 68,
      "start": 43.4745,
      "duration": 0.055,
      "velocity": 97,
      "chip": "ym2612"
    },
    {
      "channel": 2,
      "note": 71,
      "start": 43.4777,
      "duration": 0.0687,
      "velocity": 97,
      "chip": "ym2612"
    },
    {
      "channel": 4,
      "note": 73,
      "start": 43.4812,
      "duration": 0.0317,
      "velocity": 97,
      "chip": "ym2612"
    },
    {
      "channel": 5,
      "note": 79,
      "start": 43.6659,
      "duration": 0.0305,
      "velocity": 127,
      "chip": "ym2612"
    },
    {
      "channel": 3,
      "note": 49,
      "start": 43.6685,
      "duration": 0.1611,
      "velocity": 98,
      "chip": "ym2612"
    },
    {
      "channel": 1,
      "note": 61,
      "start": 43.6712,
      "duration": 0.1416,
      "velocity": 98,
      "chip": "ym2612"
    },
    {
      "channel": 4,
      "note": 85,
      "start": 43.6742,
      "duration": 0.0388,
      "velocity": 97,
      "chip": "ym2612"
    },
    {
      "channel": 5,
      "note": 91,
      "start": 43.8659,
      "duration": 0.0184,
      "velocity": 127,
      "chip": "ym2612"
    },
    {
      "channel": 3,
      "note": 37,
      "start": 43.8686,
      "duration": 0.0443,
      "velocity": 98,
      "chip": "ym2612"
    },
    {
      "channel": 1,
      "note": 49,
      "start": 43.8712,
      "duration": 0.1249,
      "velocity": 98,
      "chip": "ym2612"
    },
    {
      "channel": 0,
      "note": 68,
      "start": 43.8743,
      "duration": 0.0718,
      "velocity": 97,
      "chip": "ym2612"
    },
    {
      "channel": 2,
      "note": 71,
      "start": 43.8775,
      "duration": 0.0854,
      "velocity": 97,
      "chip": "ym2612"
    },
    {
      "channel": 4,
      "note": 73,
      "start": 43.8805,
      "duration": 0.0159,
      "velocity": 97,
      "chip": "ym2612"
    },
    {
      "channel": 5,
      "note": 33,
      "start": 44.0492,
      "duration": 0.0805,
      "velocity": 113,
      "chip": "ym2612"
    },
    {
      "channel": 3,
      "note": 37,
      "start": 44.0519,
      "duration": 0.0777,
      "velocity": 98,
      "chip": "ym2612"
    },
    {
      "channel": 1,
      "note": 59,
      "start": 44.0546,
      "duration": 0.1415,
      "velocity": 98,
      "chip": "ym2612"
    },
    {
      "channel": 4,
      "note": 83,
      "start": 44.0576,
      "duration": 0.0387,
      "velocity": 97,
      "chip": "ym2612"
    },
    {
      "channel": 0,
      "note": 91,
      "start": 44.2493,
      "duration": 0.0302,
      "velocity": 127,
      "chip": "ym2612"
    },
    {
      "channel": 3,
      "note": 37,
      "start": 44.252,
      "duration": 0.1277,
      "velocity": 98,
      "chip": "ym2612"
    },
    {
      "channel": 1,
      "note": 49,
      "start": 44.2549,
      "duration": 0.0934,
      "velocity": 98,
      "chip": "ym2612"
    },
    {
      "channel": 4,
      "note": 73,
      "start": 44.2579,
      "duration": 0.0383,
      "velocity": 97,
      "chip": "ym2612"
    },
    {
      "channel": 0,
      "note": 79,
      "start": 44.4322,
      "duration": 0.0306,
      "velocity": 127,
      "chip": "ym2612"
    },
    {
      "channel": 3,
      "note": 49,
      "start": 44.4346,
      "duration": 0.1449,
      "velocity": 98,
      "chip": "ym2612"
    },
    {
      "channel": 4,
      "note": 73,
      "start": 44.4378,
      "duration": 0.0418,
      "velocity": 97,
      "chip": "ym2612"
    },
    {
      "channel": 0,
      "note": 91,
      "start": 44.6324,
      "duration": 0.0304,
      "velocity": 127,
      "chip": "ym2612"
    },
    {
      "channel": 3,
      "note": 37,
      "start": 44.635,
      "duration": 0.0611,
      "velocity": 98,
      "chip": "ym2612"
    },
    {
      "channel": 1,
      "note": 49,
      "start": 44.6379,
      "duration": 0.125,
      "velocity": 98,
      "chip": "ym2612"
    },
    {
      "channel": 4,
      "note": 83,
      "start": 44.6409,
      "duration": 0.0388,
      "velocity": 97,
      "chip": "ym2612"
    },
    {
      "channel": 5,
      "note": 33,
      "start": 44.8325,
      "duration": 0.0639,
      "velocity": 113,
      "chip": "ym2612"
    },
    {
      "channel": 3,
      "note": 37,
      "start": 44.8352,
      "duration": 0.061,
      "velocity": 98,
      "chip": "ym2612"
    },
    {
      "channel": 4,
      "note": 73,
      "start": 44.8383,
      "duration": 0.0246,
      "velocity": 97,
      "chip": "ym2612"
    },
    {
      "channel": 5,
      "note": 33,
      "start": 45.0159,
      "duration": 0.0805,
      "velocity": 113,
      "chip": "ym2612"
    },
    {
      "channel": 0,
      "note": 91,
      "start": 45.0184,
      "duration": 0.0277,
      "velocity": 127,
      "chip": "ym2612"
    },
    {
      "channel": 3,
      "note": 37,
      "start": 45.0214,
      "duration": 0.1416,
      "velocity": 98,
      "chip": "ym2612"
    },
    {
      "channel": 1,
      "note": 49,
      "start": 45.0246,
      "duration": 0.1382,
      "velocity": 98,
      "chip": "ym2612"
    },
    {
      "channel": 4,
      "note": 73,
      "start": 45.0276,
      "duration": 0.0353,
      "velocity": 97,
      "chip": "ym2612"
    },
    {
      "channel": 0,
      "note": 79,
      "start": 45.2156,
      "duration": 0.0306,
      "velocity": 127,
      "chip": "ym2612"
    },
    {
      "channel": 3,
      "note": 49,
      "start": 45.218,
      "duration": 0.1281,
      "velocity": 98,
      "chip": "ym2612"
    },
    {
      "channel": 4,
      "note": 83,
      "start": 45.2212,
      "duration": 0.0417,
      "velocity": 97,
      "chip": "ym2612"
    },
    {
      "channel": 0,
      "note": 91,
      "start": 45.3994,
      "duration": 0.0301,
      "velocity": 127,
      "chip": "ym2612"
    },
    {
      "channel": 3,
      "note": 37,
      "start": 45.402,
      "duration": 0.0942,
      "velocity": 98,
      "chip": "ym2612"
    },
    {
      "channel": 1,
      "note": 49,
      "start": 45.4049,
      "duration": 0.1412,
      "velocity": 98,
      "chip": "ym2612"
    },
    {
      "channel": 2,
      "note": 70,
      "start": 45.4086,
      "duration": 0.0878,
      "velocity": 97,
      "chip": "ym2612"
    },
    {
      "channel": 5,
      "note": 66,
      "start": 45.4116,
      "duration": 0.1014,
      "velocity": 97,
      "chip": "ym2612"
    },
    {
      "channel": 4,
      "note": 73,
      "start": 45.4147,
      "duration": 0.0316,
      "velocity": 97,
      "chip": "ym2612"
    },
    {
      "channel": 0,
      "note": 33,
      "start": 45.5992,
      "duration": 0.0803,
      "velocity": 113,
      "chip": "ym2612"
    },
    {
      "channel": 3,
      "note": 40,
      "start": 45.6018,
      "duration": 0.0943,
      "velocity": 98,
      "chip": "ym2612"
    },
    {
      "channel": 1,
      "note": 52,
      "start": 45.6045,
      "duration": 0.1417,
      "velocity": 98,
      "chip": "ym2612"
    },
    {
      "channel": 4,
      "note": 82,
      "start": 45.6075,
      "duration": 0.0389,
      "velocity": 97,
      "chip": "ym2612"
    },
    {
      "channel": 2,
      "note": 91,
      "start": 45.785,
      "duration": 0.0282,
      "velocity": 127,
      "chip": "ym2612"
    },
    {
      "channel": 3,
      "note": 37,
      "start": 45.7876,
      "duration": 0.1253,
      "velocity": 98,
      "chip": "ym2612"
    },
    {
      "channel": 1,
      "note": 49,
      "start": 45.7902,
      "duration": 0.1393,
      "velocity": 98,
      "chip": "ym2612"
    },
    {
      "channel": 5,
      "note": 70,
      "start": 45.7935,
      "duration": 0.4861,
      "velocity": 97,
      "chip": "ym2612"
    },
    {
      "channel": 4,
      "note": 66,
      "start": 45.7968,
      "duration": 0.4329,
      "velocity": 97,
      "chip": "ym2612"
    },
    {
      "channel": 0,
      "note": 73,
      "start": 45.7997,
      "duration": 0.0298,
      "velocity": 97,
      "chip": "ym2612"
    },
    {
      "channel": 2,
      "note": 79,
      "start": 45.9826,
      "duration": 0.0305,
      "velocity": 127,
      "chip": "ym2612"
    },
    {
      "channel": 3,
      "note": 42,
      "start": 45.9852,
      "duration": 0.0778,
      "velocity": 98,
      "chip": "ym2612"
    },
    {
      "channel": 1,
      "note": 54,
      "start": 45.988,
      "duration": 0.1081,
      "velocity": 98,
      "chip": "ym2612"
    },
    {
      "channel": 0,
      "note": 78,
      "start": 45.9909,
      "duration": 0.0386,
      "velocity": 97,
      "chip": "ym2612"
    },
    {
      "channel": 2,
      "note": 91,
      "start": 46.1827,
      "duration": 0.0304,
      "velocity": 127,
      "chip": "ym2612"
    },
    {
      "channel": 3,
      "note": 40,
      "start": 46.1852,
      "duration": 0.0633,
      "velocity": 98,
      "chip": "ym2612"
    },
    {
      "channel": 1,
      "note": 52,
      "start": 46.188,
      "duration": 0.0748,
      "velocity": 98,
      "chip": "ym2612"
    },
    {
      "channel": 0,
      "note": 80,
      "start": 46.1908,
      "duration": 0.0387,
      "velocity": 97,
      "chip": "ym2612"
    },
    {
      "channel": 2,
      "note": 33,
      "start": 46.3658,
      "duration": 0.0807,
      "velocity": 113,
      "chip": "ym2612"
    },
    {
      "channel": 3,
      "note": 37,
      "start": 46.3684,
      "duration": 0.0778,
      "velocity": 98,
      "chip": "ym2612"
    },
    {
      "channel": 1,
      "note": 49,
      "start": 46.3713,
      "duration": 0.1081,
      "velocity": 98,
      "chip": "ym2612"
    },
    {
      "channel": 4,
      "note": 64,
      "start": 46.3745,
      "duration": 0.0885,
      "velocity": 97,
      "chip": "ym2612"
    },
    {
      "channel": 5,
      "note": 68,
      "start": 46.3778,
      "duration": 0.0686,
      "velocity": 97,
      "chip": "ym2612"
    },
    {
      "channel": 0,
      "note": 73,
      "start": 46.3807,
      "duration": 0.0321,
      "velocity": 97,
      "chip": "ym2612"
    },
    {
      "channel": 3,
      "note": 37,
      "start": 46.566,
      "duration": 0.1637,
      "velocity": 98,
      "chip": "ym2612"
    },
    {
      "channel": 1,
      "note": 49,
      "start": 46.5688,
      "duration": 0.1441,
      "velocity": 98,
      "chip": "ym2612"
    },
    {
      "channel": 0,
      "note": 73,
      "start": 46.572,
      "duration": 0.0408,
      "velocity": 97,
      "chip": "ym2612"
    },
    {
      "channel": 5,
      "note": 79,
      "start": 46.7494,
      "duration": 0.0302,
      "velocity": 127,
      "chip": "ym2612"
    },
    {
      "channel": 3,
      "note": 49,
      "start": 46.752,
      "duration": 0.1275,
      "velocity": 98,
      "chip": "ym2612"
    },
    {
      "channel": 1,
      "note": 61,
      "start": 46.7547,
      "duration": 0.1415,
      "velocity": 98,
      "chip": "ym2612"
    },
    {
      "channel": 0,
      "note": 85,
      "start": 46.7576,
      "duration": 0.0386,
      "velocity": 97,
      "chip": "ym2612"
    },
    {
      "channel": 5,
      "note": 91,
      "start": 46.9492,
      "duration": 0.0305,
      "velocity": 127,
      "chip": "ym2612"
    },
    {
      "channel": 3,
      "note": 37,
      "start": 46.9522,
      "duration": 0.0773,
      "velocity": 98,
      "chip": "ym2612"
    },
    {
      "channel": 1,
      "note": 49,
      "start": 46.9551,
      "duration": 0.0911,
      "velocity": 98,
      "chip": "ym2612"
    },
    {
      "channel": 4,
      "note": 64,
      "start": 46.9583,
      "duration": 0.088,
      "velocity": 97,
      "chip": "ym2612"
    },
    {
      "channel": 2,
      "note": 61,
      "start": 46.9614,
      "duration": 0.0851,
      "velocity": 97,
      "chip": "ym2612"
    },
    {
      "channel": 0,
      "note": 73,
      "start": 46.9644,
      "duration": 0.0318,
      "velocity": 97,
      "chip": "ym2612"
    },
    {
      "channel": 5,
      "note": 33,
      "start": 47.1491,
      "duration": 0.064,
      "velocity": 113,
      "chip": "ym2612"
    },
    {
      "channel": 3,
      "note": 37,
      "start": 47.1517,
      "duration": 0.0612,
      "velocity": 98,
      "chip": "ym2612"
    },
    {
      "channel": 1,
      "note": 59,
      "start": 47.1549,
      "duration": 0.1246,
      "velocity": 98,
      "chip": "ym2612"
    },
    {
      "channel": 0,
      "note": 85,
      "start": 47.1578,
      "duration": 0.0383,
      "velocity": 97,
      "chip": "ym2612"
    },
    {
      "channel": 4,
      "note": 91,
      "start": 47.3327,
      "duration": 0.0302,
      "velocity": 127,
      "chip": "ym2612"
    },
    {
      "channel": 3,
      "note": 37,
      "start": 47.3354,
      "duration": 0.161,
      "velocity": 98,
      "chip": "ym2612"
    },
    {
      "channel": 1,
      "note": 49,
      "start": 47.3383,
      "duration": 0.1078,
      "velocity": 98,
      "chip": "ym2612"
    },
    {
      "channel": 0,
      "note": 73,
      "start": 47.3412,
      "duration": 0.0382,
      "velocity": 97,
      "chip": "ym2612"
    },
    {
      "channel": 4,
      "note": 79,
      "start": 47.5324,
      "duration": 0.0306,
      "velocity": 127,
      "chip": "ym2612"
    },
    {
      "channel": 3,
      "note": 49,
      "start": 47.535,
      "duration": 0.1279,
      "velocity": 98,
      "chip": "ym2612"
    },
    {
      "channel": 0,
      "note": 73,
      "start": 47.538,
      "duration": 0.0415,
      "velocity": 97,
      "chip": "ym2612"
    },
    {
      "channel": 4,
      "note": 91,
      "start": 47.7159,
      "duration": 0.0305,
      "velocity": 127,
      "chip": "ym2612"
    },
    {
      "channel": 3,
      "note": 37,
      "start": 47.7185,
      "duration": 0.0778,
      "velocity": 98,
      "chip": "ym2612"
    },
    {
      "channel": 1,
      "note": 49,
      "start": 47.7214,
      "duration": 0.1248,
      "velocity": 98,
      "chip": "ym2612"
    },
    {
      "channel": 0,
      "note": 83,
      "start": 47.7242,
      "duration": 0.0385,
      "velocity": 97,
      "chip": "ym2612"
    },
    {
      "channel": 5,
      "note": 33,
      "start": 47.9156,
      "duration": 0.0807,
      "velocity": 113,
      "chip": "ym2612"
    },
    {
      "channel": 3,
      "note": 37,
      "start": 47.9184,
      "duration": 0.0612,
      "velocity": 98,
      "chip": "ym2612"
    },
    {
      "channel": 0,
      "note": 73,
      "start": 47.9214,
      "duration": 0.0414,
      "velocity": 97,
      "chip": "ym2612"
    },
    {
      "channel": 4,
      "note": 91,
      "start": 48.1163,
      "duration": 0.03,
      "velocity": 127,
      "chip": "ym2612"
    },
    {
      "channel": 3,
      "note": 37,
      "start": 48.119,
      "duration": 0.1272,
      "velocity": 98,
      "chip": "ym2612"
    },
    {
      "channel": 1,
      "note": 49,
      "start": 48.122,
      "duration": 0.1241,
      "velocity": 98,
      "chip": "ym2612"
    },
    {
      "channel": 0,
      "note": 73,
      "start": 48.1249,
      "duration": 0.0235,
      "velocity": 97,
      "chip": "ym2612"
    },
    {
      "channel": 4,
      "note": 79,
      "start": 48.2992,
      "duration": 0.0304,
      "velocity": 127,
      "chip": "ym2612"
    },
    {
      "channel": 3,
      "note": 49,
      "start": 48.3016,
      "duration": 0.1447,
      "velocity": 98,
      "chip": "ym2612"
    },
    {
      "channel": 1,
      "note": 52,
      "start": 48.3043,
      "duration": 0.1419,
      "velocity": 98,
      "chip": "ym2612"
    },
    {
      "channel": 0,
      "note": 82,
      "start": 48.3072,
      "duration": 0.039,
      "velocity": 97,
      "chip": "ym2612"
    },
    {
      "channel": 4,
      "note": 91,
      "start": 48.4992,
      "duration": 0.0304,
      "velocity": 127,
      "chip": "ym2612"
    },
    {
      "channel": 3,
      "note": 37,
      "start": 48.5018,
      "duration": 0.1111,
      "velocity": 98,
      "chip": "ym2612"
    },
    {
      "channel": 1,
      "note": 49,
      "start": 48.5045,
      "duration": 0.1251,
      "velocity": 98,
      "chip": "ym2612"
    },
    {
      "channel": 0,
      "note": 73,
      "start": 48.5074,
      "duration": 0.0387,
      "velocity": 97,
      "chip": "ym2612"
    },
    {
      "channel": 5,
      "note": 33,
      "start": 48.6824,
      "duration": 0.0806,
      "velocity": 113,
      "chip": "ym2612"
    },
    {
      "channel": 3,
      "note": 40,
      "start": 48.6856,
      "duration": 0.0773,
      "velocity": 98,
      "chip": "ym2612"
    },
    {
      "channel": 1,
      "note": 56,
      "start": 48.6882,
      "duration": 0.1412,
      "velocity": 98,
      "chip": "ym2612"
    },
    {
      "channel": 0,
      "note": 80,
      "start": 48.6911,
      "duration": 0.0383,
      "velocity": 97,
      "chip": "ym2612"
    },
    {
      "channel": 4,
      "note": 91,
      "start": 48.8826,
      "duration": 0.0304,
      "velocity": 127,
      "chip": "ym2612"
    },
    {
      "channel": 3,
      "note": 37,
      "start": 48.8852,
      "duration": 0.1445,
      "velocity": 98,
      "chip": "ym2612"
    },
    {
      "channel": 1,
      "note": 55,
      "start": 48.8878,
      "duration": 0.1417,
      "velocity": 98,
      "chip": "ym2612"
    },
    {
      "channel": 0,
      "note": 73,
      "start": 48.8907,
      "duration": 0.0387,
      "velocity": 97,
      "chip": "ym2612"
    },
    {
      "channel": 4,
      "note": 79,
      "start": 49.0824,
      "duration": 0.016,
      "velocity": 127,
      "chip": "ym2612"
    },
    {
      "channel": 3,
      "note": 42,
      "start": 49.085,
      "duration": 0.0612,
      "velocity": 98,
      "chip": "ym2612"
    },
    {
      "channel": 1,
      "note": 54,
      "start": 49.0877,
      "duration": 0.1252,
      "velocity": 98,
      "chip": "ym2612"
    },
    {
      "channel": 0,
      "note": 78,
      "start": 49.0906,
      "duration": 0.0223,
      "velocity": 97,
      "chip": "ym2612"
    },
    {
      "channel": 4,
      "note": 79,
      "start": 49.2658,
      "duration": 0.0306,
      "velocity": 127,
      "chip": "ym2612"
    },
    {
      "channel": 3,
      "note": 40,
      "start": 49.2683,
      "duration": 0.0779,
      "velocity": 98,
      "chip": "ym2612"
    },
    {
      "channel": 1,
      "note": 52,
      "start": 49.2715,
      "duration": 0.1247,
      "velocity": 98,
      "chip": "ym2612"
    },
    {
      "channel": 0,
      "note": 80,
      "start": 49.2744,
      "duration": 0.0384,
      "velocity": 97,
      "chip": "ym2612"
    },
    {
      "channel": 5,
      "note": 33,
      "start": 49.4671,
      "duration": 0.0793,
      "velocity": 113,
      "chip": "ym2612"
    },
    {
      "channel": 3,
      "note": 37,
      "start": 49.4709,
      "duration": 0.0253,
      "velocity": 98,
      "chip": "ym2612"
    },
    {
      "channel": 1,
      "note": 49,
      "start": 49.4749,
      "duration": 0.038,
      "velocity": 98,
      "chip": "ym2612"
    },
    {
      "channel": 2,
      "note": 68,
      "start": 49.4783,
      "duration": 0.0683,
      "velocity": 97,
      "chip": "ym2612"
    },
    {
      "channel": 4,
      "note": 71,
      "start": 49.4815,
      "duration": 0.0648,
      "velocity": 97,
      "chip": "ym2612"
    },
    {
      "channel": 0,
      "note": 73,
      "start": 49.4841,
      "duration": 0.0286,
      "velocity": 97,
      "chip": "ym2612"
    },
    {
      "channel": 3,
      "note": 91,
      "start": 49.6493,
      "duration": 0.0302,
      "velocity": 127,
      "chip": "ym2612"
    },
    {
      "channel": 0,
      "note": 37,
      "start": 49.6522,
      "duration": 0.1607,
      "velocity": 98,
      "chip": "ym2612"
    },
    {
      "channel": 1,
      "note": 49,
      "start": 49.6549,
      "duration": 0.1412,
      "velocity": 98,
      "chip": "ym2612"
    },
    {
      "channel": 4,
      "note": 68,
      "start": 49.658,
      "duration": 0.0716,
      "velocity": 97,
      "chip": "ym2612"
    },
    {
      "channel": 2,
      "note": 71,
      "start": 49.6614,
      "duration": 0.0849,
      "velocity": 97,
      "chip": "ym2612"
    },
    {
      "channel": 5,
      "note": 73,
      "start": 49.6652,
      "duration": 0.0312,
      "velocity": 97,
      "chip": "ym2612"
    },
    {
      "channel": 3,
      "note": 79,
      "start": 49.8491,
      "duration": 0.0305,
      "velocity": 127,
      "chip": "ym2612"
    },
    {
      "channel": 0,
      "note": 49,
      "start": 49.8515,
      "duration": 0.1612,
      "velocity": 98,
      "chip": "ym2612"
    },
    {
      "channel": 1,
      "note": 61,
      "start": 49.8542,
      "duration": 0.142,
      "velocity": 98,
      "chip": "ym2612"
    },
    {
      "channel": 5,
      "note": 85,
      "start": 49.8572,
      "duration": 0.0391,
      "velocity": 97,
      "chip": "ym2612"
    },
    {
      "channel": 3,
      "note": 91,
      "start": 50.0492,
      "duration": 0.0184,
      "velocity": 127,
      "chip": "ym2612"
    },
    {
      "channel": 0,
      "note": 37,
      "start": 50.0517,
      "duration": 0.0445,
      "velocity": 98,
      "chip": "ym2612"
    },
    {
      "channel": 1,
      "note": 49,
      "start": 50.0546,
      "duration": 0.0749,
      "velocity": 98,
      "chip": "ym2612"
    },
    {
      "channel": 4,
      "note": 68,
      "start": 50.0578,
      "duration": 0.0885,
      "velocity": 97,
      "chip": "ym2612"
    },
    {
      "channel": 2,
      "note": 71,
      "start": 50.0608,
      "duration": 0.0856,
      "velocity": 97,
      "chip": "ym2612"
    },
    {
      "channel": 5,
      "note": 73,
      "start": 50.0639,
      "duration": 0.0158,
      "velocity": 97,
      "chip": "ym2612"
    },
    {
      "channel": 3,
      "note": 33,
      "start": 50.2325,
      "duration": 0.0803,
      "velocity": 113,
      "chip": "ym2612"
    },
    {
      "channel": 0,
      "note": 37,
      "start": 50.235,
      "duration": 0.0611,
      "velocity": 98,
      "chip": "ym2612"
    },
    {
      "channel": 1,
      "note": 59,
      "start": 50.238,
      "duration": 0.1415,
      "velocity": 98,
      "chip": "ym2612"
    },
    {
      "channel": 5,
      "note": 78,
      "start": 50.241,
      "duration": 0.0387,
      "velocity": 97,
      "chip": "ym2612"
    },
    {
      "channel": 4,
      "note": 91,
      "start": 50.4327,
      "duration": 0.0303,
      "velocity": 127,
      "chip": "ym2612"
    },
    {
      "channel": 0,
      "note": 37,
      "start": 50.4356,
      "duration": 0.1273,
      "velocity": 98,
      "chip": "ym2612"
    },
    {
      "channel": 5,
      "note": 83,
      "start": 50.4387,
      "duration": 0.0409,
      "velocity": 97,
      "chip": "ym2612"
    },
    {
      "channel": 4,
      "note": 79,
      "start": 50.6157,
      "duration": 0.0306,
      "velocity": 127,
      "chip": "ym2612"
    },
    {
      "channel": 0,
      "note": 49,
      "start": 50.6181,
      "duration": 0.1447,
      "velocity": 98,
      "chip": "ym2612"
    },
    {
      "channel": 5,
      "note": 73,
      "start": 50.6212,
      "duration": 0.0417,
      "velocity": 97,
      "chip": "ym2612"
    },
    {
      "channel": 4,
      "note": 91,
      "start": 50.816,
      "duration": 0.0303,
      "velocity": 127,
      "chip": "ym2612"
    },
    {
      "channel": 0,
      "note": 37,
      "start": 50.8185,
      "duration": 0.0609,
      "velocity": 98,
      "chip": "ym2612"
    },
    {
      "channel": 1,
      "note": 49,
      "start": 50.8215,
      "duration": 0.1081,
      "velocity": 98,
      "chip": "ym2612"
    },
    {
      "channel": 5,
      "note": 73,
      "start": 50.8245,
      "duration": 0.0385,
      "velocity": 97,
      "chip": "ym2612"
    },
    {
      "channel": 3,
      "note": 33,
      "start": 51.0011,
      "duration": 0.0785,
      "velocity": 113,
      "chip": "ym2612"
    },
    {
      "channel": 0,
      "note": 37,
      "start": 51.0036,
      "duration": 0.0593,
      "velocity": 98,
      "chip": "ym2612"
    },
    {
      "channel": 5,
      "note": 82,
      "start": 51.0067,
      "duration": 0.0396,
      "velocity": 97,
      "chip": "ym2612"
    },
    {
      "channel": 4,
      "note": 91,
      "start": 51.1992,
      "duration": 0.0303,
      "velocity": 127,
      "chip": "ym2612"
    },
    {
      "channel": 0,
      "note": 37,
      "start": 51.2017,
      "duration": 0.1111,
      "velocity": 98,
      "chip": "ym2612"
    },
    {
      "channel": 1,
      "note": 49,
      "start": 51.2048,
      "duration": 0.1081,
      "velocity": 98,
      "chip": "ym2612"
    },
    {
      "channel": 5,
      "note": 73,
      "start": 51.2078,
      "duration": 0.0385,
      "velocity": 97,
      "chip": "ym2612"
    },
    {
      "channel": 4,
      "note": 79,
      "start": 51.3992,
      "duration": 0.0304,
      "velocity": 127,
      "chip": "ym2612"
    },
    {
      "channel": 0,
      "note": 49,
      "start": 51.4016,
      "duration": 0.1279,
      "velocity": 98,
      "chip": "ym2612"
    },
    {
      "channel": 5,
      "note": 82,
      "start": 51.4048,
      "duration": 0.0415,
      "velocity": 97,
      "chip": "ym2612"
    },
    {
      "channel": 4,
      "note": 91,
      "start": 51.583,
      "duration": 0.0299,
      "velocity": 127,
      "chip": "ym2612"
    },
    {
      "channel": 0,
      "note": 37,
      "start": 51.5855,
      "duration": 0.1273,
      "velocity": 98,
      "chip": "ym2612"
    },
    {
      "channel": 1,
      "note": 49,
      "start": 51.5885,
      "duration": 0.141,
      "velocity": 98,
      "chip": "ym2612"
    },
    {
      "channel": 2,
      "note": 70,
      "start": 51.5918,
      "duration": 0.0879,
      "velocity": 97,
      "chip": "ym2612"
    },
    {
      "channel": 3,
      "note": 66,
      "start": 51.5949,
      "duration": 0.1181,
      "velocity": 97,
      "chip": "ym2612"
    },
    {
      "channel": 5,
      "note": 73,
      "start": 51.598,
      "duration": 0.0316,
      "velocity": 97,
      "chip": "ym2612"
    },
    {
      "channel": 4,
      "note": 33,
      "start": 51.7825,
      "duration": 0.0805,
      "velocity": 113,
      "chip": "ym2612"
    },
    {
      "channel": 0,
      "note": 40,
      "start": 51.785,
      "duration": 0.1279,
      "velocity": 98,
      "chip": "ym2612"
    },
    {
      "channel": 1,
      "note": 52,
      "start": 51.7878,
      "duration": 0.1083,
      "velocity": 98,
      "chip": "ym2612"
    },
    {
      "channel": 5,
      "note": 80,
      "start": 51.7908,
      "duration": 0.0389,
      "velocity": 97,
      "chip": "ym2612"
    },
    {
      "channel": 2,
      "note": 91,
      "start": 51.966,
      "duration": 0.0305,
      "velocity": 127,
      "chip": "ym2612"
    },
    {
      "channel": 0,
      "note": 37,
      "start": 51.9686,
      "duration": 0.1609,
      "velocity": 98,
      "chip": "ym2612"
    },
    {
      "channel": 1,
      "note": 49,
      "start": 51.9714,
      "duration": 0.1415,
      "velocity": 98,
      "chip": "ym2612"
    },
    {
      "channel": 3,
      "note": 70,
      "start": 51.9745,
      "duration": 0.5383,
      "velocity": 97,
      "chip": "ym2612"
    },
    {
      "channel": 5,
      "note": 66,
      "start": 51.978,
      "duration": 0.4351,
      "velocity": 97,
      "chip": "ym2612"
    },
    {
      "channel": 4,
      "note": 73,
      "start": 51.9811,
      "duration": 0.032,
      "velocity": 97,
      "chip": "ym2612"
    },
    {
      "channel": 2,
      "note": 79,
      "start": 52.166,
      "duration": 0.0305,
      "velocity": 127,
      "chip": "ym2612"
    },
    {
      "channel": 0,
      "note": 42,
      "start": 52.1684,
      "duration": 0.0943,
      "velocity": 98,
      "chip": "ym2612"
    },
    {
      "channel": 1,
      "note": 54,
      "start": 52.1712,
      "duration": 0.1417,
      "velocity": 98,
      "chip": "ym2612"
    },
    {
      "channel": 4,
      "note": 78,
      "start": 52.1742,
      "duration": 0.0388,
      "velocity": 97,
      "chip": "ym2612"
    },
    {
      "channel": 2,
      "note": 91,
      "start": 52.366,
      "duration": 0.0304,
      "velocity": 127,
      "chip": "ym2612"
    },
    {
      "channel": 0,
      "note": 40,
      "start": 52.3689,
      "duration": 0.0605,
      "velocity": 98,
      "chip": "ym2612"
    },
    {
      "channel": 1,
      "note": 52,
      "start": 52.3717,
      "duration": 0.0746,
      "velocity": 98,
      "chip": "ym2612"
    },
    {
      "channel": 4,
      "note": 80,
      "start": 52.3747,
      "duration": 0.0383,
      "velocity": 97,
      "chip": "ym2612"
    },
    {
      "channel": 2,
      "note": 33,
      "start": 52.5493,
      "duration": 0.0805,
      "velocity": 113,
      "chip": "ym2612"
    },
    {
      "channel": 0,
      "note": 37,
      "start": 52.552,
      "duration": 0.0608,
      "velocity": 98,
      "chip": "ym2612"
    },
    {
      "channel": 1,
      "note": 49,
      "start": 52.5546,
      "duration": 0.0915,
      "velocity": 98,
      "chip": "ym2612"
    },
    {
      "channel": 3,
      "note": 70,
      "start": 52.5578,
      "duration": 0.1384,
      "velocity": 97,
      "chip": "ym2612"
    },
    {
      "channel": 5,
      "note": 66,
      "start": 52.5606,
      "duration": 0.1358,
      "velocity": 97,
      "chip": "ym2612"
    },
    {
      "channel": 4,
      "note": 73,
      "start": 52.5636,
      "duration": 0.0326,
      "velocity": 97,
      "chip": "ym2612"
    },
    {
      "channel": 2,
      "note": 33,
      "start": 52.7493,
      "duration": 0.0805,
      "velocity": 113,
      "chip": "ym2612"
    },
    {
      "channel": 0,
      "note": 37,
      "start": 52.752,
      "duration": 0.1442,
      "velocity": 98,
      "chip": "ym2612"
    },
    {
      "channel": 1,
      "note": 49,
      "start": 52.7548,
      "duration": 0.1269,
      "velocity": 98,
      "chip": "ym2612"
    },
    {
      "channel": 3,
      "note": 64,
      "start": 52.7579,
      "duration": 0.0716,
      "velocity": 97,
      "chip": "ym2612"
    },
    {
      "channel": 5,
      "note": 68,
      "start": 52.7609,
      "duration": 0.0354,
      "velocity": 97,
      "chip": "ym2612"
    },
    {
      "channel": 4,
      "note": 78,
      "start": 52.7643,
      "duration": 0.0319,
      "velocity": 97,
      "chip": "ym2612"
    },
    {
      "channel": 4,
      "note": 79,
      "start": 52.9328,
      "duration": 0.0302,
      "velocity": 127,
      "chip": "ym2612"
    },
    {
      "channel": 0,
      "note": 49,
      "start": 52.9353,
      "duration": 0.1442,
      "velocity": 98,
      "chip": "ym2612"
    },
    {
      "channel": 1,
      "note": 61,
      "start": 52.938,
      "duration": 0.1416,
      "velocity": 98,
      "chip": "ym2612"
    },
    {
      "channel": 5,
      "note": 85,
      "start": 52.9413,
      "duration": 0.0384,
      "velocity": 97,
      "chip": "ym2612"
    },
    {
      "channel": 4,
      "note": 91,
      "start": 53.1326,
      "duration": 0.0305,
      "velocity": 127,
      "chip": "ym2612"
    },
    {
      "channel": 0,
      "note": 37,
      "start": 53.135,
      "duration": 0.0611,
      "velocity": 98,
      "chip": "ym2612"
    },
    {
      "channel": 1,
      "note": 49,
      "start": 53.1383,
      "duration": 0.1079,
      "velocity": 98,
      "chip": "ym2612"
    },
    {
      "channel": 3,
      "note": 68,
      "start": 53.1418,
      "duration": 0.0877,
      "velocity": 97,
      "chip": "ym2612"
    },
    {
      "channel": 2,
      "note": 64,
      "start": 53.1449,
      "duration": 0.0849,
      "velocity": 97,
      "chip": "ym2612"
    },
    {
      "channel": 5,
      "note": 33,
      "start": 53.3326,
      "duration": 0.0639,
      "velocity": 113,
      "chip": "ym2612"
    },
    {
      "channel": 0,
      "note": 37,
      "start": 53.3352,
      "duration": 0.0609,
      "velocity": 98,
      "chip": "ym2612"
    },
    {
      "channel": 1,
      "note": 59,
      "start": 53.3382,
      "duration": 0.1246,
      "velocity": 98,
      "chip": "ym2612"
    },
    {
      "channel": 4,
      "note": 73,
      "start": 53.3415,
      "duration": 0.0237,
      "velocity": 97,
      "chip": "ym2612"
    },
    {
      "channel": 3,
      "note": 91,
      "start": 53.5161,
      "duration": 0.0302,
      "velocity": 127,
      "chip": "ym2612"
    },
    {
      "channel": 0,
      "note": 37,
      "start": 53.5186,
      "duration": 0.1443,
      "velocity": 98,
      "chip": "ym2612"
    },
    {
      "channel": 4,
      "note": 85,
      "start": 53.5217,
      "duration": 0.0412,
      "velocity": 97,
      "chip": "ym2612"
    },
    {
      "channel": 3,
      "note": 79,
      "start": 53.7158,
      "duration": 0.0305,
      "velocity": 127,
      "chip": "ym2612"
    },
    {
      "channel": 0,
      "note": 49,
      "start": 53.7181,
      "duration": 0.128,
      "velocity": 98,
      "chip": "ym2612"
    },
    {
      "channel": 4,
      "note": 73,
      "start": 53.7212,
      "duration": 0.0417,
      "velocity": 97,
      "chip": "ym2612"
    },
    {
      "channel": 3,
      "note": 91,
      "start": 53.8992,
      "duration": 0.0304,
      "velocity": 127,
      "chip": "ym2612"
    },
    {
      "channel": 0,
      "note": 37,
      "start": 53.9021,
      "duration": 0.0607,
      "velocity": 98,
      "chip": "ym2612"
    },
    {
      "channel": 1,
      "note": 49,
      "start": 53.9051,
      "duration": 0.1244,
      "velocity": 98,
      "chip": "ym2612"
    },
    {
      "channel": 4,
      "note": 73,
      "start": 53.9081,
      "duration": 0.0382,
      "velocity": 97,
      "chip": "ym2612"
    },
    {
      "channel": 5,
      "note": 33,
      "start": 54.099,
      "duration": 0.0806,
      "velocity": 113,
      "chip": "ym2612"
    },
    {
      "channel": 0,
      "note": 37,
      "start": 54.1015,
      "duration": 0.0613,
      "velocity": 98,
      "chip": "ym2612"
    },
    {
      "channel": 4,
      "note": 83,
      "start": 54.1046,
      "duration": 0.0417,
      "velocity": 97,
      "chip": "ym2612"
    },
    {
      "channel": 3,
      "note": 91,
      "start": 54.2996,
      "duration": 0.0154,
      "velocity": 127,
      "chip": "ym2612"
    },
    {
      "channel": 0,
      "note": 37,
      "start": 54.3021,
      "duration": 0.1274,
      "velocity": 98,
      "chip": "ym2612"
    },
    {
      "channel": 1,
      "note": 49,
      "start": 54.3048,
      "duration": 0.108,
      "velocity": 98,
      "chip": "ym2612"
    },
    {
      "channel": 4,
      "note": 73,
      "start": 54.3078,
      "duration": 0.0219,
      "velocity": 97,
      "chip": "ym2612"
    },
    {
      "channel": 3,
      "note": 79,
      "start": 54.4824,
      "duration": 0.0305,
      "velocity": 127,
      "chip": "ym2612"
    },
    {
      "channel": 0,
      "note": 49,
      "start": 54.4849,
      "duration": 0.1612,
      "velocity": 98,
      "chip": "ym2612"
    },
    {
      "channel": 4,
      "note": 82,
      "start": 54.488,
      "duration": 0.0415,
      "velocity": 97,
      "chip": "ym2612"
    },
    {
      "channel": 3,
      "note": 91,
      "start": 54.6826,
      "duration": 0.0303,
      "velocity": 127,
      "chip": "ym2612"
    },
    {
      "channel": 0,
      "note": 37,
      "start": 54.6851,
      "duration": 0.111,
      "velocity": 98,
      "chip": "ym2612"
    },
    {
      "channel": 1,
      "note": 49,
      "start": 54.6881,
      "duration": 0.1248,
      "velocity": 98,
      "chip": "ym2612"
    },
    {
      "channel": 4,
      "note": 73,
      "start": 54.6911,
      "duration": 0.0385,
      "velocity": 97,
      "chip": "ym2612"
    },
    {
      "channel": 5,
      "note": 33,
      "start": 54.8658,
      "duration": 0.0806,
      "velocity": 113,
      "chip": "ym2612"
    },
    {
      "channel": 0,
      "note": 40,
      "start": 54.8683,
      "duration": 0.1278,
      "velocity": 98,
      "chip": "ym2612"
    },
    {
      "channel": 1,
      "note": 52,
      "start": 54.8711,
      "duration": 0.1251,
      "velocity": 98,
      "chip": "ym2612"
    },
    {
      "channel": 4,
      "note": 80,
      "start": 54.8741,
      "duration": 0.0388,
      "velocity": 97,
      "chip": "ym2612"
    },
    {
      "channel": 3,
      "note": 91,
      "start": 55.066,
      "duration": 0.0303,
      "velocity": 127,
      "chip": "ym2612"
    },
    {
      "channel": 0,
      "note": 37,
      "start": 55.0684,
      "duration": 0.1777,
      "velocity": 98,
      "chip": "ym2612"
    },
    {
      "channel": 1,
      "note": 49,
      "start": 55.0713,
      "duration": 0.1416,
      "velocity": 98,
      "chip": "ym2612"
    },
    {
      "channel": 4,
      "note": 78,
      "start": 55.0743,
      "duration": 0.0386,
      "velocity": 97,
      "chip": "ym2612"
    },
    {
      "channel": 3,
      "note": 79,
      "start": 55.2658,
      "duration": 0.0137,
      "velocity": 127,
      "chip": "ym2612"
    },
    {
      "channel": 0,
      "note": 42,
      "start": 55.2683,
      "duration": 0.0778,
      "velocity": 98,
      "chip": "ym2612"
    },
    {
      "channel": 1,
      "note": 54,
      "start": 55.2715,
      "duration": 0.1081,
      "velocity": 98,
      "chip": "ym2612"
    },
    {
      "channel": 4,
      "note": 73,
      "start": 55.2745,
      "duration": 0.0218,
      "velocity": 97,
      "chip": "ym2612"
    },
    {
      "channel": 3,
      "note": 79,
      "start": 55.449,
      "duration": 0.0306,
      "velocity": 127,
      "chip": "ym2612"
    },
    {
      "channel": 0,
      "note": 40,
      "start": 55.4515,
      "duration": 0.0946,
      "velocity": 98,
      "chip": "ym2612"
    },
    {
      "channel": 1,
      "note": 52,
      "start": 55.4542,
      "duration": 0.1086,
      "velocity": 98,
      "chip": "ym2612"
    },
    {
      "channel": 4,
      "note": 78,
      "start": 55.4572,
      "duration": 0.0391,
      "velocity": 97,
      "chip": "ym2612"
    },
    {
      "channel": 5,
      "note": 33,
      "start": 55.6494,
      "duration": 0.0803,
      "velocity": 113,
      "chip": "ym2612"
    },
    {
      "channel": 0,
      "note": 37,
      "start": 55.6531,
      "duration": 0.0596,
      "velocity": 98,
      "chip": "ym2612"
    },
    {
      "channel": 1,
      "note": 49,
      "start": 55.656,
      "duration": 0.0759,
      "velocity": 98,
      "chip": "ym2612"
    },
    {
      "channel": 2,
      "note": 68,
      "start": 55.6593,
      "duration": 0.0705,
      "velocity": 97,
      "chip": "ym2612"
    },
    {
      "channel": 3,
      "note": 71,
      "start": 55.6623,
      "duration": 0.0839,
      "velocity": 97,
      "chip": "ym2612"
    },
    {
      "channel": 4,
      "note": 73,
      "start": 55.6657,
      "duration": 0.0305,
      "velocity": 97,
      "chip": "ym2612"
    },
    {
      "channel": 4,
      "note": 91,
      "start": 55.8327,
      "duration": 0.0302,
      "velocity": 127,
      "chip": "ym2612"
    },
    {
      "channel": 0,
      "note": 37,
      "start": 55.8356,
      "duration": 0.1438,
      "velocity": 98,
      "chip": "ym2612"
    },
    {
      "channel": 1,
      "note": 49,
      "start": 55.8385,
      "duration": 0.1411,
      "velocity": 98,
      "chip": "ym2612"
    },
    {
      "channel": 3,
      "note": 68,
      "start": 55.8416,
      "duration": 0.0547,
      "velocity": 97,
      "chip": "ym2612"
    },
    {
      "channel": 2,
      "note": 71,
      "start": 55.8447,
      "duration": 0.0683,
      "velocity": 97,
      "chip": "ym2612"
    },
    {
      "channel": 5,
      "note": 78,
      "start": 55.8478,
      "duration": 0.0318,
      "velocity": 97,
      "chip": "ym2612"
    },
    {
      "channel": 4,
      "note": 79,
      "start": 56.0324,
      "duration": 0.0305,
      "velocity": 127,
      "chip": "ym2612"
    },
    {
      "channel": 0,
      "note": 49,
      "start": 56.0349,
      "duration": 0.1612,
      "velocity": 98,
      "chip": "ym2612"
    },
    {
      "channel": 1,
      "note": 61,
      "start": 56.0376,
      "duration": 0.1419,
      "velocity": 98,
      "chip": "ym2612"
    },
    {
      "channel": 5,
      "note": 85,
      "start": 56.0408,
      "duration": 0.0387,
      "velocity": 97,
      "chip": "ym2612"
    },
    {
      "channel": 4,
      "note": 91,
      "start": 56.216,
      "duration": 0.0303,
      "velocity": 127,
      "chip": "ym2612"
    },
    {
      "channel": 0,
      "note": 37,
      "start": 56.2184,
      "duration": 0.061,
      "velocity": 98,
      "chip": "ym2612"
    },
    {
      "channel": 1,
      "note": 49,
      "start": 56.2212,
      "duration": 0.1417,
      "velocity": 98,
      "chip": "ym2612"
    },
    {
      "channel": 3,
      "note": 68,
      "start": 56.2247,
      "duration": 0.0883,
      "velocity": 97,
      "chip": "ym2612"
    },
    {
      "channel": 2,
      "note": 71,
      "start": 56.2279,
      "duration": 0.1018,
      "velocity": 97,
      "chip": "ym2612"
    },
    {
      "channel": 5,
      "note": 33,
      "start": 56.4158,
      "duration": 0.0807,
      "velocity": 113,
      "chip": "ym2612"
    },
    {
      "channel": 0,
      "note": 37,
      "start": 56.4184,
      "duration": 0.0777,
      "velocity": 98,
      "chip": "ym2612"
    },
    {
      "channel": 1,
      "note": 59,
      "start": 56.4212,
      "duration": 0.1417,
      "velocity": 98,
      "chip": "ym2612"
    },
    {
      "channel": 4,
      "note": 73,
      "start": 56.4244,
      "duration": 0.0385,
      "velocity": 97,
      "chip": "ym2612"
    },
    {
      "channel": 3,
      "note": 91,
      "start": 56.616,
      "duration": 0.0302,
      "velocity": 127,
      "chip": "ym2612"
    },
    {
      "channel": 0,
      "note": 37,
      "start": 56.6185,
      "duration": 0.1276,
      "velocity": 98,
      "chip": "ym2612"
    },
    {
      "channel": 1,
      "note": 49,
      "start": 56.6215,
      "duration": 0.0914,
      "velocity": 98,
      "chip": "ym2612"
    },
    {
      "channel": 4,
      "note": 85,
      "start": 56.6245,
      "duration": 0.0385,
      "velocity": 97,
      "chip": "ym2612"
    },
    {
      "channel": 3,
      "note": 79,
      "start": 56.799,
      "duration": 0.0305,
      "velocity": 127,
      "chip": "ym2612"
    },
    {
      "channel": 0,
      "note": 49,
      "start": 56.8014,
      "duration": 0.1448,
      "velocity": 98,
      "chip": "ym2612"
    },
    {
      "channel": 4,
      "note": 73,
      "start": 56.8045,
      "duration": 0.0417,
      "velocity": 97,
      "chip": "ym2612"
    },
    {
      "channel": 3,
      "note": 91,
      "start": 56.9992,
      "duration": 0.0303,
      "velocity": 127,
      "chip": "ym2612"
    },
    {
      "channel": 0,
      "note": 37,
      "start": 57.0018,
      "duration": 0.061,
      "velocity": 98,
      "chip": "ym2612"
    },
    {
      "channel": 1,
      "note": 49,
      "start": 57.0046,
      "duration": 0.1249,
      "velocity": 98,
      "chip": "ym2612"
    },
    {
      "channel": 4,
      "note": 73,
      "start": 57.0076,
      "duration": 0.0388,
      "velocity": 97,
      "chip": "ym2612"
    },
    {
      "channel": 5,
      "note": 33,
      "start": 57.1826,
      "duration": 0.0805,
      "velocity": 113,
      "chip": "ym2612"
    },
    {
      "channel": 0,
      "note": 37,
      "start": 57.1852,
      "duration": 0.0775,
      "velocity": 98,
      "chip": "ym2612"
    },
    {
      "channel": 4,
      "note": 83,
      "start": 57.1883,
      "duration": 0.0413,
      "velocity": 97,
      "chip": "ym2612"
    },
    {
      "channel": 5,
      "note": 33,
      "start": 57.3824,
      "duration": 0.0805,
      "velocity": 113,
      "chip": "ym2612"
    },
    {
      "channel": 3,
      "note": 91,
      "start": 57.3851,
      "duration": 0.0279,
      "velocity": 127,
      "chip": "ym2612"
    },
    {
      "channel": 0,
      "note": 37,
      "start": 57.388,
      "duration": 0.1415,
      "velocity": 98,
      "chip": "ym2612"
    },
    {
      "channel": 1,
      "note": 49,
      "start": 57.3912,
      "duration": 0.1384,
      "velocity": 98,
      "chip": "ym2612"
    },
    {
      "channel": 4,
      "note": 73,
      "start": 57.3941,
      "duration": 0.0355,
      "velocity": 97,
      "chip": "ym2612"
    },
    {
      "channel": 3,
      "note": 79,
      "start": 57.5824,
      "duration": 0.0306,
      "velocity": 127,
      "chip": "ym2612"
    },
    {
      "channel": 0,
      "note": 49,
      "start": 57.5847,
      "duration": 0.128,
      "velocity": 98,
      "chip": "ym2612"
    },
    {
      "channel": 4,
      "note": 82,
      "start": 57.5878,
      "duration": 0.0417,
      "velocity": 97,
      "chip": "ym2612"
    },
    {
      "channel": 3,
      "note": 91,
      "start": 57.7663,
      "duration": 0.03,
      "velocity": 127,
      "chip": "ym2612"
    },
    {
      "channel": 0,
      "note": 37,
      "start": 57.7688,
      "duration": 0.094,
      "velocity": 98,
      "chip": "ym2612"
    },
    {
      "channel": 1,
      "note": 49,
      "start": 57.7716,
      "duration": 0.1412,
      "velocity": 98,
      "chip": "ym2612"
    },
    {
      "channel": 2,
      "note": 70,
      "start": 57.7748,
      "duration": 0.1049,
      "velocity": 97,
      "chip": "ym2612"
    },
    {
      "channel": 5,
      "note": 66,
      "start": 57.7778,
      "duration": 0.1185,
      "velocity": 97,
      "chip": "ym2612"
    },
    {
      "channel": 4,
      "note": 73,
      "start": 57.7809,
      "duration": 0.0321,
      "velocity": 97,
      "chip": "ym2612"
    },
    {
      "channel": 3,
      "note": 33,
      "start": 57.9659,
      "duration": 0.0803,
      "velocity": 113,
      "chip": "ym2612"
    },
    {
      "channel": 0,
      "note": 40,
      "start": 57.9684,
      "duration": 0.0944,
      "velocity": 98,
      "chip": "ym2612"
    },
    {
      "channel": 1,
      "note": 52,
      "start": 57.971,
      "duration": 0.1273,
      "velocity": 98,
      "chip": "ym2612"
    },
    {
      "channel": 4,
      "note": 80,
      "start": 57.974,
      "duration": 0.039,
      "velocity": 97,
      "chip": "ym2612"
    },
    {
      "channel": 2,
      "note": 91,
      "start": 58.1494,
      "duration": 0.0303,
      "velocity": 127,
      "chip": "ym2612"
    },
    {
      "channel": 0,
      "note": 37,
      "start": 58.1519,
      "duration": 0.1275,
      "velocity": 98,
      "chip": "ym2612"
    },
    {
      "channel": 1,
      "note": 49,
      "start": 58.1546,
      "duration": 0.1416,
      "velocity": 98,
      "chip": "ym2612"
    },
    {
      "channel": 5,
      "note": 70,
      "start": 58.1579,
      "duration": 0.4385,
      "velocity": 97,
      "chip": "ym2612"
    },
    {
      "channel": 4,
      "note": 66,
      "start": 58.1614,
      "duration": 0.4205,
      "velocity": 97,
      "chip": "ym2612"
    },
    {
      "channel": 3,
      "note": 73,
      "start": 58.1645,
      "duration": 0.0317,
      "velocity": 97,
      "chip": "ym2612"
    },
    {
      "channel": 2,
      "note": 79,
      "start": 58.3492,
      "duration": 0.0306,
      "velocity": 127,
      "chip": "ym2612"
    },
    {
      "channel": 0,
      "note": 42,
      "start": 58.3517,
      "duration": 0.0778,
      "velocity": 98,
      "chip": "ym2612"
    },
    {
      "channel": 1,
      "note": 54,
      "start": 58.3546,
      "duration": 0.1083,
      "velocity": 98,
      "chip": "ym2612"
    },
    {
      "channel": 3,
      "note": 78,
      "start": 58.3575,
      "duration": 0.0388,
      "velocity": 97,
      "chip": "ym2612"
    },
    {
      "channel": 2,
      "note": 91,
      "start": 58.5493,
      "duration": 0.0304,
      "velocity": 127,
      "chip": "ym2612"
    },
    {
      "channel": 0,
      "note": 40,
      "start": 58.5517,
      "duration": 0.0611,
      "velocity": 98,
      "chip": "ym2612"
    },
    {
      "channel": 1,
      "note": 52,
      "start": 58.5545,
      "duration": 0.0749,
      "velocity": 98,
      "chip": "ym2612"
    },
    {
      "channel": 3,
      "note": 80,
      "start": 58.5579,
      "duration": 0.0239,
      "velocity": 97,
      "chip": "ym2612"
    },
    {
      "channel": 2,
      "note": 33,
      "start": 58.7326,
      "duration": 0.0807,
      "velocity": 113,
      "chip": "ym2612"
    },
    {
      "channel": 0,
      "note": 37,
      "start": 58.735,
      "duration": 0.0778,
      "velocity": 98,
      "chip": "ym2612"
    },
    {
      "channel": 1,
      "note": 49,
      "start": 58.7378,
      "duration": 0.1084,
      "velocity": 98,
      "chip": "ym2612"
    },
    {
      "channel": 4,
      "note": 68,
      "start": 58.7411,
      "duration": 0.072,
      "velocity": 97,
      "chip": "ym2612"
    },
    {
      "channel": 5,
      "note": 64,
      "start": 58.7442,
      "duration": 0.1022,
      "velocity": 97,
      "chip": "ym2612"
    },
    {
      "channel": 3,
      "note": 73,
      "start": 58.7472,
      "duration": 0.0323,
      "velocity": 97,
      "chip": "ym2612"
    },
    {
      "channel": 0,
      "note": 37,
      "start": 58.9325,
      "duration": 0.147,
      "velocity": 98,
      "chip": "ym2612"
    },
    {
      "channel": 1,
      "note": 49,
      "start": 58.9353,
      "duration": 0.1275,
      "velocity": 98,
      "chip": "ym2612"
    },
    {
      "channel": 3,
      "note": 73,
      "start": 58.9383,
      "duration": 0.0412,
      "velocity": 97,
      "chip": "ym2612"
    },
    {
      "channel": 4,
      "note": 79,
      "start": 59.1161,
      "duration": 0.0302,
      "velocity": 127,
      "chip": "ym2612"
    },
    {
      "channel": 0,
      "note": 49,
      "start": 59.1186,
      "duration": 0.1276,
      "velocity": 98,
      "chip": "ym2612"
    },
    {
      "channel": 1,
      "note": 61,
      "start": 59.1214,
      "duration": 0.1415,
      "velocity": 98,
      "chip": "ym2612"
    },
    {
      "channel": 3,
      "note": 85,
      "start": 59.1243,
      "duration": 0.0385,
      "velocity": 97,
      "chip": "ym2612"
    },
    {
      "channel": 4,
      "note": 91,
      "start": 59.316,
      "duration": 0.0304,
      "velocity": 127,
      "chip": "ym2612"
    },
    {
      "channel": 0,
      "note": 37,
      "start": 59.3188,
      "duration": 0.0772,
      "velocity": 98,
      "chip": "ym2612"
    },
    {
      "channel": 1,
      "note": 49,
      "start": 59.3217,
      "duration": 0.0912,
      "velocity": 98,
      "chip": "ym2612"
    },
    {
      "channel": 3,
      "note": 73,
      "start": 59.3246,
      "duration": 0.0383,
      "velocity": 97,
      "chip": "ym2612"
    },
    {
      "channel": 2,
      "note": 33,
      "start": 59.5158,
      "duration": 0.064,
      "velocity": 113,
      "chip": "ym2612"
    },
    {
      "channel": 0,
      "note": 37,
      "start": 59.5183,
      "duration": 0.0612,
      "velocity": 98,
      "chip": "ym2612"
    },
    {
      "channel": 1,
      "note": 59,
      "start": 59.5215,
      "duration": 0.1247,
      "velocity": 98,
      "chip": "ym2612"
    },
    {
      "channel": 3,
      "note": 73,
      "start": 59.5244,
      "duration": 0.0219,
      "velocity": 97,
      "chip": "ym2612"
    },
    {
      "channel": 4,
      "note": 91,
      "start": 59.6993,
      "duration": 0.0303,
      "velocity": 127,
      "chip": "ym2612"
    },
    {
      "channel": 0,
      "note": 37,
      "start": 59.7018,
      "duration": 0.1611,
      "velocity": 98,
      "chip": "ym2612"
    },
    {
      "channel": 1,
      "note": 49,
      "start": 59.7048,
      "duration": 0.108,
      "velocity": 98,
      "chip": "ym2612"
    },
    {
      "channel": 3,
      "note": 85,
      "start": 59.7078,
      "duration": 0.0385,
      "velocity": 97,
      "chip": "ym2612"
    },
    {
      "channel": 4,
      "note": 79,
      "start": 59.8992,
      "duration": 0.0305,
      "velocity": 127,
      "chip": "ym2612"
    },
    {
      "channel": 0,
      "note": 49,
      "start": 59.9016,
      "duration": 0.1111,
      "velocity": 98,
      "chip": "ym2612"
    },
    {
      "channel": 3,
      "note": 73,
      "start": 59.9048,
      "duration": 0.0415,
      "velocity": 97,
      "chip": "ym2612"
    },
    {
      "channel": 4,
      "note": 91,
      "start": 60.0826,
      "duration": 0.0305,
      "velocity": 127,
      "chip": "ym2612"
    },
    {
      "channel": 0,
      "note": 37,
      "start": 60.085,
      "duration": 0.0777,
      "velocity": 98,
      "chip": "ym2612"
    },
    {
      "channel": 1,
      "note": 49,
      "start": 60.0879,
      "duration": 0.125,
      "velocity": 98,
      "chip": "ym2612"
    },
    {
      "channel": 3,
      "note": 73,
      "start": 60.0908,
      "duration": 0.0387,
      "velocity": 97,
      "chip": "ym2612"
    },
    {
      "channel": 2,
      "note": 33,
      "start": 60.2825,
      "duration": 0.0805,
      "velocity": 113,
      "chip": "ym2612"
    },
    {
      "channel": 0,
      "note": 37,
      "start": 60.2851,
      "duration": 0.061,
      "velocity": 98,
      "chip": "ym2612"
    },
    {
      "channel": 3,
      "note": 83,
      "start": 60.2882,
      "duration": 0.0414,
      "velocity": 97,
      "chip": "ym2612"
    },
    {
      "channel": 4,
      "note": 91,
      "start": 60.4684,
      "duration": 0.0278,
      "velocity": 127,
      "chip": "ym2612"
    },
    {
      "channel": 0,
      "note": 37,
      "start": 60.4709,
      "duration": 0.1419,
      "velocity": 98,
      "chip": "ym2612"
    },
    {
      "channel": 1,
      "note": 49,
      "start": 60.4739,
      "duration": 0.139,
      "velocity": 98,
      "chip": "ym2612"
    },
    {
      "channel": 3,
      "note": 73,
      "start": 60.4769,
      "duration": 0.0361,
      "velocity": 97,
      "chip": "ym2612"
    },
    {
      "channel": 4,
      "note": 79,
      "start": 60.6657,
      "duration": 0.0306,
      "velocity": 127,
      "chip": "ym2612"
    },
    {
      "channel": 0,
      "note": 49,
      "start": 60.6681,
      "duration": 0.1447,
      "velocity": 98,
      "chip": "ym2612"
    },
    {
      "channel": 1,
      "note": 52,
      "start": 60.6708,
      "duration": 0.1422,
      "velocity": 98,
      "chip": "ym2612"
    },
    {
      "channel": 3,
      "note": 82,
      "start": 60.6737,
      "duration": 0.0392,
      "velocity": 97,
      "chip": "ym2612"
    },
    {
      "channel": 4,
      "note": 91,
      "start": 60.866,
      "duration": 0.0303,
      "velocity": 127,
      "chip": "ym2612"
    },
    {
      "channel": 0,
      "note": 37,
      "start": 60.8684,
      "duration": 0.0943,
      "velocity": 98,
      "chip": "ym2612"
    },
    {
      "channel": 1,
      "note": 49,
      "start": 60.8712,
      "duration": 0.125,
      "velocity": 98,
      "chip": "ym2612"
    },
    {
      "channel": 5,
      "note": 76,
      "start": 60.8744,
      "duration": 0.122,
      "velocity": 97,
      "chip": "ym2612"
    },
    {
      "channel": 2,
      "note": 64,
      "start": 60.8773,
      "duration": 0.1191,
      "velocity": 97,
      "chip": "ym2612"
    },
    {
      "channel": 3,
      "note": 73,
      "start": 60.8803,
      "duration": 0.0325,
      "velocity": 97,
      "chip": "ym2612"
    },
    {
      "channel": 4,
      "note": 33,
      "start": 61.0492,
      "duration": 0.0805,
      "velocity": 113,
      "chip": "ym2612"
    },
    {
      "channel": 0,
      "note": 40,
      "start": 61.0522,
      "duration": 0.0773,
      "velocity": 98,
      "chip": "ym2612"
    },
    {
      "channel": 1,
      "note": 56,
      "start": 61.0548,
      "duration": 0.1414,
      "velocity": 98,
      "chip": "ym2612"
    },
    {
      "channel": 5,
      "note": 63,
      "start": 61.0585,
      "duration": 0.1212,
      "velocity": 97,
      "chip": "ym2612"
    },
    {
      "channel": 2,
      "note": 75,
      "start": 61.0615,
      "duration": 0.1016,
      "velocity": 97,
      "chip": "ym2612"
    },
    {
      "channel": 3,
      "note": 80,
      "start": 61.0646,
      "duration": 0.0317,
      "velocity": 97,
      "chip": "ym2612"
    },
    {
      "channel": 3,
      "note": 91,
      "start": 61.2493,
      "duration": 0.0302,
      "velocity": 127,
      "chip": "ym2612"
    },
    {
      "channel": 0,
      "note": 37,
      "start": 61.2518,
      "duration": 0.1443,
      "velocity": 98,
      "chip": "ym2612"
    },
    {
      "channel": 1,
      "note": 55,
      "start": 61.2546,
      "duration": 0.1417,
      "velocity": 98,
      "chip": "ym2612"
    },
    {
      "channel": 5,
      "note": 61,
      "start": 61.2578,
      "duration": 0.1219,
      "velocity": 97,
      "chip": "ym2612"
    },
    {
      "channel": 2,
      "note": 73,
      "start": 61.2609,
      "duration": 0.1022,
      "velocity": 97,
      "chip": "ym2612"
    },
    {
      "channel": 4,
      "note": 73,
      "start": 61.264,
      "duration": 0.0322,
      "velocity": 97,
      "chip": "ym2612"
    },
    {
      "channel": 3,
      "note": 79,
      "start": 61.4324,
      "duration": 0.0305,
      "velocity": 127,
      "chip": "ym2612"
    },
    {
      "channel": 0,
      "note": 42,
      "start": 61.4349,
      "duration": 0.0779,
      "velocity": 98,
      "chip": "ym2612"
    },
    {
      "channel": 1,
      "note": 54,
      "start": 61.4376,
      "duration": 0.1419,
      "velocity": 98,
      "chip": "ym2612"
    },
    {
      "channel": 5,
      "note": 71,
      "start": 61.4408,
      "duration": 0.1221,
      "velocity": 97,
      "chip": "ym2612"
    },
    {
      "channel": 2,
      "note": 59,
      "start": 61.4438,
      "duration": 0.1193,
      "velocity": 97,
      "chip": "ym2612"
    },
    {
      "channel": 4,
      "note": 78,
      "start": 61.4468,
      "duration": 0.0328,
      "velocity": 97,
      "chip": "ym2612"
    },
    {
      "channel": 3,
      "note": 79,
      "start": 61.6324,
      "duration": 0.0304,
      "velocity": 127,
      "chip": "ym2612"
    },
    {
      "channel": 0,
      "note": 40,
      "start": 61.6348,
      "duration": 0.078,
      "velocity": 98,
      "chip": "ym2612"
    },
    {
      "channel": 1,
      "note": 52,
      "start": 61.638,
      "duration": 0.1249,
      "velocity": 98,
      "chip": "ym2612"
    },
    {
      "channel": 5,
      "note": 61,
      "start": 61.6416,
      "duration": 0.1381,
      "velocity": 97,
      "chip": "ym2612"
    },
    {
      "channel": 2,
      "note": 73,
      "start": 61.6446,
      "duration": 0.0851,
      "velocity": 97,
      "chip": "ym2612"
    },
    {
      "channel": 4,
      "note": 80,
      "start": 61.6485,
      "duration": 0.031,
      "velocity": 97,
      "chip": "ym2612"
    },
    {
      "channel": 3,
      "note": 33,
      "start": 61.8337,
      "duration": 0.0648,
      "velocity": 113,
      "chip": "ym2612"
    },
    {
      "channel": 0,
      "note": 45,
      "start": 61.8374,
      "duration": 0.0754,
      "velocity": 98,
      "chip": "ym2612"
    },
    {
      "channel": 1,
      "note": 49,
      "start": 61.8415,
      "duration": 0.0381,
      "velocity": 98,
      "chip": "ym2612"
    },
    {
      "channel": 4,
      "note": 73,
      "start": 61.8444,
      "duration": 0.0353,
      "velocity": 97,
      "chip": "ym2612"
    },
    {
      "channel": 2,
      "note": 91,
      "start": 62.0161,
      "duration": 0.0303,
      "velocity": 127,
      "chip": "ym2612"
    },
    {
      "channel": 0,
      "note": 45,
      "start": 62.0186,
      "duration": 0.1609,
      "velocity": 98,
      "chip": "ym2612"
    },
    {
      "channel": 1,
      "note": 49,
      "start": 62.0215,
      "duration": 0.1413,
      "velocity": 98,
      "chip": "ym2612"
    },
    {
      "channel": 4,
      "note": 73,
      "start": 62.0245,
      "duration": 0.0385,
      "velocity": 97,
      "chip": "ym2612"
    },
    {
      "channel": 2,
      "note": 79,
      "start": 62.2159,
      "duration": 0.0304,
      "velocity": 127,
      "chip": "ym2612"
    },
    {
      "channel": 0,
      "note": 42,
      "start": 62.2184,
      "duration": 0.1111,
      "velocity": 98,
      "chip": "ym2612"
    },
    {
      "channel": 1,
      "note": 61,
      "start": 62.2211,
      "duration": 0.1418,
      "velocity": 98,
      "chip": "ym2612"
    },
    {
      "channel": 4,
      "note": 80,
      "start": 62.2241,
      "duration": 0.0389,
      "velocity": 97,
      "chip": "ym2612"
    },
    {
      "channel": 2,
      "note": 91,
      "start": 62.3993,
      "duration": 0.0304,
      "velocity": 127,
      "chip": "ym2612"
    },
    {
      "channel": 0,
      "note": 40,
      "start": 62.4017,
      "duration": 0.1111,
      "velocity": 98,
      "chip": "ym2612"
    },
    {
      "channel": 1,
      "note": 49,
      "start": 62.4046,
      "duration": 0.0917,
      "velocity": 98,
      "chip": "ym2612"
    },
    {
      "channel": 5,
      "note": 73,
      "start": 62.4078,
      "duration": 0.1219,
      "velocity": 97,
      "chip": "ym2612"
    },
    {
      "channel": 3,
      "note": 61,
      "start": 62.4109,
      "duration": 0.1021,
      "velocity": 97,
      "chip": "ym2612"
    },
    {
      "channel": 4,
      "note": 73,
      "start": 62.4139,
      "duration": 0.0323,
      "velocity": 97,
      "chip": "ym2612"
    },
    {
      "channel": 2,
      "note": 33,
      "start": 62.5992,
      "duration": 0.0805,
      "velocity": 113,
      "chip": "ym2612"
    },
    {
      "channel": 0,
      "note": 45,
      "start": 62.6018,
      "duration": 0.1277,
      "velocity": 98,
      "chip": "ym2612"
    },
    {
      "channel": 1,
      "note": 59,
      "start": 62.6048,
      "duration": 0.1414,
      "velocity": 98,
      "chip": "ym2612"
    },
    {
      "channel": 3,
      "note": 75,
      "start": 62.6079,
      "duration": 0.0882,
      "velocity": 97,
      "chip": "ym2612"
    },
    {
      "channel": 5,
      "note": 63,
      "start": 62.6113,
      "duration": 0.1184,
      "velocity": 97,
      "chip": "ym2612"
    },
    {
      "channel": 4,
      "note": 73,
      "start": 62.6143,
      "duration": 0.032,
      "velocity": 97,
      "chip": "ym2612"
    },
    {
      "channel": 4,
      "note": 91,
      "start": 62.7993,
      "duration": 0.0302,
      "velocity": 127,
      "chip": "ym2612"
    },
    {
      "channel": 0,
      "note": 42,
      "start": 62.8017,
      "duration": 0.1111,
      "velocity": 98,
      "chip": "ym2612"
    },
    {
      "channel": 3,
      "note": 64,
      "start": 62.805,
      "duration": 0.0746,
      "velocity": 97,
      "chip": "ym2612"
    },
    {
      "channel": 5,
      "note": 76,
      "start": 62.808,
      "duration": 0.0405,
      "velocity": 97,
      "chip": "ym2612"
    },
    {
      "channel": 2,
      "note": 78,
      "start": 62.8109,
      "duration": 0.0354,
      "velocity": 97,
      "chip": "ym2612"
    },
    {
      "channel": 4,
      "note": 79,
      "start": 62.9824,
      "duration": 0.0305,
      "velocity": 127,
      "chip": "ym2612"
    },
    {
      "channel": 0,
      "note": 45,
      "start": 62.9853,
      "duration": 0.1441,
      "velocity": 98,
      "chip": "ym2612"
    },
    {
      "channel": 3,
      "note": 78,
      "start": 62.9885,
      "duration": 0.1077,
      "velocity": 97,
      "chip": "ym2612"
    },
    {
      "channel": 5,
      "note": 66,
      "start": 62.9915,
      "duration": 0.0881,
      "velocity": 97,
      "chip": "ym2612"
    },
    {
      "channel": 2,
      "note": 73,
      "start": 62.9944,
      "duration": 0.0353,
      "velocity": 97,
      "chip": "ym2612"
    },
    {
      "channel": 4,
      "note": 91,
      "start": 63.1826,
      "duration": 0.0303,
      "velocity": 127,
      "chip": "ym2612"
    },
    {
      "channel": 0,
      "note": 40,
      "start": 63.185,
      "duration": 0.1277,
      "velocity": 98,
      "chip": "ym2612"
    },
    {
      "channel": 1,
      "note": 49,
      "start": 63.1881,
      "duration": 0.1081,
      "velocity": 98,
      "chip": "ym2612"
    },
    {
      "channel": 3,
      "note": 73,
      "start": 63.1912,
      "duration": 0.1052,
      "velocity": 97,
      "chip": "ym2612"
    },
    {
      "channel": 5,
      "note": 61,
      "start": 63.1946,
      "duration": 0.1206,
      "velocity": 97,
      "chip": "ym2612"
    },
    {
      "channel": 2,
      "note": 73,
      "start": 63.1977,
      "duration": 0.0319,
      "velocity": 97,
      "chip": "ym2612"
    },
    {
      "channel": 4,
      "note": 33,
      "start": 63.3658,
      "duration": 0.0806,
      "velocity": 113,
      "chip": "ym2612"
    },
    {
      "channel": 0,
      "note": 45,
      "start": 63.3686,
      "duration": 0.1942,
      "velocity": 98,
      "chip": "ym2612"
    },
    {
      "channel": 2,
      "note": 76,
      "start": 63.3718,
      "duration": 0.0412,
      "velocity": 97,
      "chip": "ym2612"
    },
    {
      "channel": 1,
      "note": 91,
      "start": 63.5661,
      "duration": 0.0302,
      "velocity": 127,
      "chip": "ym2612"
    },
    {
      "channel": 3,
      "note": 49,
      "start": 63.5695,
      "duration": 0.11,
      "velocity": 98,
      "chip": "ym2612"
    },
    {
      "channel": 2,
      "note": 73,
      "start": 63.5727,
      "duration": 0.0403,
      "velocity": 97,
      "chip": "ym2612"
    },
    {
      "channel": 1,
      "note": 79,
      "start": 63.7657,
      "duration": 0.0305,
      "velocity": 127,
      "chip": "ym2612"
    },
    {
      "channel": 0,
      "note": 45,
      "start": 63.7684,
      "duration": 0.1611,
      "velocity": 98,
      "chip": "ym2612"
    },
    {
      "channel": 2,
      "note": 75,
      "start": 63.7717,
      "duration": 0.0269,
      "velocity": 97,
      "chip": "ym2612"
    },
    {
      "channel": 1,
      "note": 91,
      "start": 63.9495,
      "duration": 0.03,
      "velocity": 127,
      "chip": "ym2612"
    },
    {
      "channel": 0,
      "note": 42,
      "start": 63.952,
      "duration": 0.1109,
      "velocity": 98,
      "chip": "ym2612"
    },
    {
      "channel": 3,
      "note": 49,
      "start": 63.955,
      "duration": 0.1412,
      "velocity": 98,
      "chip": "ym2612"
    },
    {
      "channel": 5,
      "note": 61,
      "start": 63.9583,
      "duration": 0.1548,
      "velocity": 97,
      "chip": "ym2612"
    },
    {
      "channel": 4,
      "note": 73,
      "start": 63.9613,
      "duration": 0.1351,
      "velocity": 97,
      "chip": "ym2612"
    },
    {
      "channel": 2,
      "note": 73,
      "start": 63.9644,
      "duration": 0.032,
      "velocity": 97,
      "chip": "ym2612"
    },
    {
      "channel": 1,
      "note": 33,
      "start": 64.149,
      "duration": 0.0804,
      "velocity": 113,
      "chip": "ym2612"
    },
    {
      "channel": 0,
      "note": 40,
      "start": 64.1517,
      "duration": 0.1444,
      "velocity": 98,
      "chip": "ym2612"
    },
    {
      "channel": 3,
      "note": 52,
      "start": 64.1546,
      "duration": 0.1084,
      "velocity": 98,
      "chip": "ym2612"
    },
    {
      "channel": 4,
      "note": 75,
      "start": 64.1578,
      "duration": 0.1053,
      "velocity": 97,
      "chip": "ym2612"
    },
    {
      "channel": 5,
      "note": 63,
      "start": 64.1607,
      "duration": 0.1523,
      "velocity": 97,
      "chip": "ym2612"
    },
    {
      "channel": 2,
      "note": 73,
      "start": 64.1639,
      "duration": 0.0325,
      "velocity": 97,
      "chip": "ym2612"
    },
    {
      "channel": 2,
      "note": 91,
      "start": 64.3327,
      "duration": 0.0303,
      "velocity": 127,
      "chip": "ym2612"
    },
    {
      "channel": 0,
      "note": 49,
      "start": 64.3352,
      "duration": 0.1776,
      "velocity": 98,
      "chip": "ym2612"
    },
    {
      "channel": 3,
      "note": 49,
      "start": 64.3382,
      "duration": 0.1415,
      "velocity": 98,
      "chip": "ym2612"
    },
    {
      "channel": 4,
      "note": 76,
      "start": 64.3417,
      "duration": 0.088,
      "velocity": 97,
      "chip": "ym2612"
    },
    {
      "channel": 5,
      "note": 64,
      "start": 64.3447,
      "duration": 0.135,
      "velocity": 97,
      "chip": "ym2612"
    },
    {
      "channel": 1,
      "note": 75,
      "start": 64.3478,
      "duration": 0.0317,
      "velocity": 97,
      "chip": "ym2612"
    },
    {
      "channel": 2,
      "note": 79,
      "start": 64.5325,
      "duration": 0.0306,
      "velocity": 127,
      "chip": "ym2612"
    },
    {
      "channel": 0,
      "note": 40,
      "start": 64.5354,
      "duration": 0.1607,
      "velocity": 98,
      "chip": "ym2612"
    },
    {
      "channel": 3,
      "note": 54,
      "start": 64.5382,
      "duration": 0.1414,
      "velocity": 98,
      "chip": "ym2612"
    },
    {
      "channel": 4,
      "note": 66,
      "start": 64.5413,
      "duration": 0.0882,
      "velocity": 97,
      "chip": "ym2612"
    },
    {
      "channel": 5,
      "note": 78,
      "start": 64.5443,
      "duration": 0.1187,
      "velocity": 97,
      "chip": "ym2612"
    },
    {
      "channel": 1,
      "note": 76,
      "start": 64.5473,
      "duration": 0.0322,
      "velocity": 97,
      "chip": "ym2612"
    },
    {
      "channel": 2,
      "note": 91,
      "start": 64.7327,
      "duration": 0.0195,
      "velocity": 127,
      "chip": "ym2612"
    },
    {
      "channel": 0,
      "note": 47,
      "start": 64.7353,
      "duration": 0.1608,
      "velocity": 98,
      "chip": "ym2612"
    },
    {
      "channel": 3,
      "note": 52,
      "start": 64.7382,
      "duration": 0.0747,
      "velocity": 98,
      "chip": "ym2612"
    },
    {
      "channel": 4,
      "note": 80,
      "start": 64.7414,
      "duration": 0.1216,
      "velocity": 97,
      "chip": "ym2612"
    },
    {
      "channel": 5,
      "note": 68,
      "start": 64.7448,
      "duration": 0.0684,
      "velocity": 97,
      "chip": "ym2612"
    },
    {
      "channel": 1,
      "note": 71,
      "start": 64.7483,
      "duration": 0.0146,
      "velocity": 97,
      "chip": "ym2612"
    },
    {
      "channel": 2,
      "note": 33,
      "start": 64.916,
      "duration": 0.0804,
      "velocity": 113,
      "chip": "ym2612"
    },
    {
      "channel": 3,
      "note": 49,
      "start": 64.919,
      "duration": 0.0939,
      "velocity": 98,
      "chip": "ym2612"
    },
    {
      "channel": 4,
      "note": 66,
      "start": 64.9222,
      "duration": 0.1241,
      "velocity": 97,
      "chip": "ym2612"
    },
    {
      "channel": 5,
      "note": 78,
      "start": 64.9254,
      "duration": 0.0877,
      "velocity": 97,
      "chip": "ym2612"
    },
    {
      "channel": 1,
      "note": 73,
      "start": 64.9281,
      "duration": 0.0347,
      "velocity": 97,
      "chip": "ym2612"
    },
    {
      "channel": 2,
      "note": 33,
      "start": 65.116,
      "duration": 0.0804,
      "velocity": 113,
      "chip": "ym2612"
    },
    {
      "channel": 0,
      "note": 47,
      "start": 65.1186,
      "duration": 0.1609,
      "velocity": 98,
      "chip": "ym2612"
    },
    {
      "channel": 3,
      "note": 49,
      "start": 65.1214,
      "duration": 0.1248,
      "velocity": 98,
      "chip": "ym2612"
    },
    {
      "channel": 1,
      "note": 73,
      "start": 65.1244,
      "duration": 0.0385,
      "velocity": 97,
      "chip": "ym2612"
    },
    {
      "channel": 5,
      "note": 79,
      "start": 65.2993,
      "duration": 0.0304,
      "velocity": 127,
      "chip": "ym2612"
    },
    {
      "channel": 0,
      "note": 45,
      "start": 65.3018,
      "duration": 0.1443,
      "velocity": 98,
      "chip": "ym2612"
    },
    {
      "channel": 3,
      "note": 61,
      "start": 65.3046,
      "duration": 0.1417,
      "velocity": 98,
      "chip": "ym2612"
    },
    {
      "channel": 1,
      "note": 80,
      "start": 65.3075,
      "duration": 0.0387,
      "velocity": 97,
      "chip": "ym2612"
    },
    {
      "channel": 5,
      "note": 91,
      "start": 65.4993,
      "duration": 0.0303,
      "velocity": 127,
      "chip": "ym2612"
    },
    {
      "channel": 0,
      "note": 42,
      "start": 65.5018,
      "duration": 0.161,
      "velocity": 98,
      "chip": "ym2612"
    },
    {
      "channel": 3,
      "note": 49,
      "start": 65.5051,
      "duration": 0.1078,
      "velocity": 98,
      "chip": "ym2612"
    },
    {
      "channel": 1,
      "note": 73,
      "start": 65.508,
      "duration": 0.0381,
      "velocity": 97,
      "chip": "ym2612"
    },
    {
      "channel": 2,
      "note": 33,
      "start": 65.6846,
      "duration": 0.0784,
      "velocity": 113,
      "chip": "ym2612"
    },
    {
      "channel": 0,
      "note": 47,
      "start": 65.6871,
      "duration": 0.159,
      "velocity": 98,
      "chip": "ym2612"
    },
    {
      "channel": 3,
      "note": 59,
      "start": 65.6902,
      "duration": 0.1394,
      "velocity": 98,
      "chip": "ym2612"
    },
    {
      "channel": 1,
      "note": 73,
      "start": 65.6931,
      "duration": 0.0364,
      "velocity": 97,
      "chip": "ym2612"
    },
    {
      "channel": 5,
      "note": 91,
      "start": 65.8827,
      "duration": 0.0302,
      "velocity": 127,
      "chip": "ym2612"
    },
    {
      "channel": 0,
      "note": 42,
      "start": 65.8852,
      "duration": 0.1943,
      "velocity": 98,
      "chip": "ym2612"
    },
    {
      "channel": 1,
      "note": 78,
      "start": 65.8883,
      "duration": 0.0413,
      "velocity": 97,
      "chip": "ym2612"
    },
    {
      "channel": 5,
      "note": 79,
      "start": 66.0826,
      "duration": 0.0303,
      "velocity": 127,
      "chip": "ym2612"
    },
    {
      "channel": 0,
      "note": 45,
      "start": 66.0851,
      "duration": 0.1611,
      "velocity": 98,
      "chip": "ym2612"
    },
    {
      "channel": 1,
      "note": 73,
      "start": 66.0882,
      "duration": 0.0414,
      "velocity": 97,
      "chip": "ym2612"
    },
    {
      "channel": 5,
      "note": 91,
      "start": 66.266,
      "duration": 0.0305,
      "velocity": 127,
      "chip": "ym2612"
    },
    {
      "channel": 0,
      "note": 42,
      "start": 66.2688,
      "duration": 0.1606,
      "velocity": 98,
      "chip": "ym2612"
    },
    {
      "channel": 3,
      "note": 49,
      "start": 66.2719,
      "duration": 0.1244,
      "velocity": 98,
      "chip": "ym2612"
    },
    {
      "channel": 1,
      "note": 73,
      "start": 66.2747,
      "duration": 0.0382,
      "velocity": 97,
      "chip": "ym2612"
    },
    {
      "channel": 2,
      "note": 33,
      "start": 66.4658,
      "duration": 0.0806,
      "velocity": 113,
      "chip": "ym2612"
    },
    {
      "channel": 0,
      "note": 47,
      "start": 66.4684,
      "duration": 0.1632,
      "velocity": 98,
      "chip": "ym2612"
    },
    {
      "channel": 4,
      "note": 76,
      "start": 66.4717,
      "duration": 0.1079,
      "velocity": 97,
      "chip": "ym2612"
    },
    {
      "channel": 5,
      "note": 64,
      "start": 66.4748,
      "duration": 0.0882,
      "velocity": 97,
      "chip": "ym2612"
    },
    {
      "channel": 1,
      "note": 76,
      "start": 66.4775,
      "duration": 0.0354,
      "velocity": 97,
      "chip": "ym2612"
    },
    {
      "channel": 3,
      "note": 91,
      "start": 66.6497,
      "duration": 0.0298,
      "velocity": 127,
      "chip": "ym2612"
    },
    {
      "channel": 0,
      "note": 42,
      "start": 66.6522,
      "duration": 0.1605,
      "velocity": 98,
      "chip": "ym2612"
    },
    {
      "channel": 1,
      "note": 49,
      "start": 66.6551,
      "duration": 0.1244,
      "velocity": 98,
      "chip": "ym2612"
    },
    {
      "channel": 4,
      "note": 75,
      "start": 66.6582,
      "duration": 0.0881,
      "velocity": 97,
      "chip": "ym2612"
    },
    {
      "channel": 5,
      "note": 63,
      "start": 66.6615,
      "duration": 0.1015,
      "velocity": 97,
      "chip": "ym2612"
    },
    {
      "channel": 2,
      "note": 73,
      "start": 66.6647,
      "duration": 0.0317,
      "velocity": 97,
      "chip": "ym2612"
    },
    {
      "channel": 3,
      "note": 79,
      "start": 66.849,
      "duration": 0.0305,
      "velocity": 127,
      "chip": "ym2612"
    },
    {
      "channel": 0,
      "note": 47,
      "start": 66.8515,
      "duration": 0.1613,
      "velocity": 98,
      "chip": "ym2612"
    },
    {
      "channel": 4,
      "note": 61,
      "start": 66.8548,
      "duration": 0.0915,
      "velocity": 97,
      "chip": "ym2612"
    },
    {
      "channel": 5,
      "note": 73,
      "start": 66.8578,
      "duration": 0.1051,
      "velocity": 97,
      "chip": "ym2612"
    },
    {
      "channel": 2,
      "note": 75,
      "start": 66.8606,
      "duration": 0.0358,
      "velocity": 97,
      "chip": "ym2612"
    },
    {
      "channel": 3,
      "note": 91,
      "start": 67.0493,
      "duration": 0.0303,
      "velocity": 127,
      "chip": "ym2612"
    },
    {
      "channel": 0,
      "note": 42,
      "start": 67.0516,
      "duration": 0.1445,
      "velocity": 98,
      "chip": "ym2612"
    },
    {
      "channel": 1,
      "note": 49,
      "start": 67.0546,
      "duration": 0.1249,
      "velocity": 98,
      "chip": "ym2612"
    },
    {
      "channel": 2,
      "note": 73,
      "start": 67.0578,
      "duration": 0.0385,
      "velocity": 97,
      "chip": "ym2612"
    },
    {
      "channel": 4,
      "note": 33,
      "start": 67.2325,
      "duration": 0.0805,
      "velocity": 113,
      "chip": "ym2612"
    },
    {
      "channel": 0,
      "note": 44,
      "start": 67.2351,
      "duration": 0.1444,
      "velocity": 98,
      "chip": "ym2612"
    },
    {
      "channel": 1,
      "note": 52,
      "start": 67.238,
      "duration": 0.1249,
      "velocity": 98,
      "chip": "ym2612"
    },
    {
      "channel": 5,
      "note": 71,
      "start": 67.2412,
      "duration": 0.3386,
      "velocity": 97,
      "chip": "ym2612"
    },
    {
      "channel": 3,
      "note": 59,
      "start": 67.2441,
      "duration": 0.3355,
      "velocity": 97,
      "chip": "ym2612"
    },
    {
      "channel": 2,
      "note": 75,
      "start": 67.2473,
      "duration": 0.0325,
      "velocity": 97,
      "chip": "ym2612"
    },
    {
      "channel": 2,
      "note": 91,
      "start": 67.4327,
      "duration": 0.0303,
      "velocity": 127,
      "chip": "ym2612"
    },
    {
      "channel": 0,
      "note": 43,
      "start": 67.4352,
      "duration": 0.1466,
      "velocity": 98,
      "chip": "ym2612"
    },
    {
      "channel": 1,
      "note": 49,
      "start": 67.4381,
      "duration": 0.1414,
      "velocity": 98,
      "chip": "ym2612"
    },
    {
      "channel": 4,
      "note": 73,
      "start": 67.4412,
      "duration": 0.0384,
      "velocity": 97,
      "chip": "ym2612"
    },
    {
      "channel": 2,
      "note": 79,
      "start": 67.616,
      "duration": 0.0305,
      "velocity": 127,
      "chip": "ym2612"
    },
    {
      "channel": 0,
      "note": 42,
      "start": 67.6184,
      "duration": 0.1443,
      "velocity": 98,
      "chip": "ym2612"
    },
    {
      "channel": 1,
      "note": 54,
      "start": 67.6217,
      "duration": 0.1246,
      "velocity": 98,
      "chip": "ym2612"
    },
    {
      "channel": 3,
      "note": 73,
      "start": 67.6252,
      "duration": 0.2211,
      "velocity": 97,
      "chip": "ym2612"
    },
    {
      "channel": 5,
      "note": 61,
      "start": 67.6284,
      "duration": 0.2513,
      "velocity": 97,
      "chip": "ym2612"
    },
    {
      "channel": 4,
      "note": 71,
      "start": 67.6321,
      "duration": 0.0309,
      "velocity": 97,
      "chip": "ym2612"
    },
    {
      "channel": 2,
      "note": 79,
      "start": 67.816,
      "duration": 0.0305,
      "velocity": 127,
      "chip": "ym2612"
    },
    {
      "channel": 0,
      "note": 40,
      "start": 67.8184,
      "duration": 0.1277,
      "velocity": 98,
      "chip": "ym2612"
    },
    {
      "channel": 1,
      "note": 52,
      "start": 67.8213,
      "duration": 0.1082,
      "velocity": 98,
      "chip": "ym2612"
    },
    {
      "channel": 4,
      "note": 33,
      "start": 68.0162,
      "duration": 0.0635,
      "velocity": 113,
      "chip": "ym2612"
    },
    {
      "channel": 0,
      "note": 37,
      "start": 68.0205,
      "duration": 0.2423,
      "velocity": 98,
      "chip": "ym2612"
    },
    {
      "channel": 1,
      "note": 49,
      "start": 68.0233,
      "duration": 0.0729,
      "velocity": 98,
      "chip": "ym2612"
    },
    {
      "channel": 3,
      "note": 73,
      "start": 68.0266,
      "duration": 0.0364,
      "velocity": 97,
      "chip": "ym2612"
    },
    {
      "channel": 2,
      "note": 91,
      "start": 68.1994,
      "duration": 0.0303,
      "velocity": 127,
      "chip": "ym2612"
    },
    {
      "channel": 1,
      "note": 49,
      "start": 68.2024,
      "duration": 0.1438,
      "velocity": 98,
      "chip": "ym2612"
    },
    {
      "channel": 3,
      "note": 73,
      "start": 68.2053,
      "duration": 0.0409,
      "velocity": 97,
      "chip": "ym2612"
    },
    {
      "channel": 2,
      "note": 79,
      "start": 68.3993,
      "duration": 0.0304,
      "velocity": 127,
      "chip": "ym2612"
    },
    {
      "channel": 0,
      "note": 37,
      "start": 68.402,
      "duration": 0.1441,
      "velocity": 98,
      "chip": "ym2612"
    },
    {
      "channel": 1,
      "note": 61,
      "start": 68.4047,
      "duration": 0.127,
      "velocity": 98,
      "chip": "ym2612"
    },
    {
      "channel": 3,
      "note": 80,
      "start": 68.4076,
      "duration": 0.0385,
      "velocity": 97,
      "chip": "ym2612"
    },
    {
      "channel": 2,
      "note": 91,
      "start": 68.5827,
      "duration": 0.0303,
      "velocity": 127,
      "chip": "ym2612"
    },
    {
      "channel": 0,
      "note": 49,
      "start": 68.5853,
      "duration": 0.1775,
      "velocity": 98,
      "chip": "ym2612"
    },
    {
      "channel": 1,
      "note": 49,
      "start": 68.588,
      "duration": 0.1416,
      "velocity": 98,
      "chip": "ym2612"
    },
    {
      "channel": 3,
      "note": 73,
      "start": 68.591,
      "duration": 0.0385,
      "velocity": 97,
      "chip": "ym2612"
    },
    {
      "channel": 4,
      "note": 33,
      "start": 68.7824,
      "duration": 0.0806,
      "velocity": 113,
      "chip": "ym2612"
    },
    {
      "channel": 0,
      "note": 37,
      "start": 68.785,
      "duration": 0.1278,
      "velocity": 98,
      "chip": "ym2612"
    },
    {
      "channel": 1,
      "note": 59,
      "start": 68.7877,
      "duration": 0.1419,
      "velocity": 98,
      "chip": "ym2612"
    },
    {
      "channel": 3,
      "note": 73,
      "start": 68.7906,
      "duration": 0.0389,
      "velocity": 97,
      "chip": "ym2612"
    },
    {
      "channel": 2,
      "note": 91,
      "start": 68.9827,
      "duration": 0.0159,
      "velocity": 127,
      "chip": "ym2612"
    },
    {
      "channel": 0,
      "note": 49,
      "start": 68.9852,
      "duration": 0.1443,
      "velocity": 98,
      "chip": "ym2612"
    },
    {
      "channel": 1,
      "note": 49,
      "start": 68.9882,
      "duration": 0.0913,
      "velocity": 98,
      "chip": "ym2612"
    },
    {
      "channel": 3,
      "note": 78,
      "start": 68.9912,
      "duration": 0.0218,
      "velocity": 97,
      "chip": "ym2612"
    },
    {
      "channel": 2,
      "note": 79,
      "start": 69.166,
      "duration": 0.0303,
      "velocity": 127,
      "chip": "ym2612"
    },
    {
      "channel": 0,
      "note": 37,
      "start": 69.1685,
      "duration": 0.1277,
      "velocity": 98,
      "chip": "ym2612"
    },
    {
      "channel": 3,
      "note": 73,
      "start": 69.1716,
      "duration": 0.0413,
      "velocity": 97,
      "chip": "ym2612"
    },
    {
      "channel": 2,
      "note": 91,
      "start": 69.3661,
      "duration": 0.0302,
      "velocity": 127,
      "chip": "ym2612"
    },
    {
      "channel": 0,
      "note": 49,
      "start": 69.3686,
      "duration": 0.1442,
      "velocity": 98,
      "chip": "ym2612"
    },
    {
      "channel": 1,
      "note": 49,
      "start": 69.3715,
      "duration": 0.1102,
      "velocity": 98,
      "chip": "ym2612"
    },
    {
      "channel": 3,
      "note": 73,
      "start": 69.3744,
      "duration": 0.0384,
      "velocity": 97,
      "chip": "ym2612"
    },
    {
      "channel": 4,
      "note": 33,
      "start": 69.5492,
      "duration": 0.0805,
      "velocity": 113,
      "chip": "ym2612"
    },
    {
      "channel": 0,
      "note": 37,
      "start": 69.5522,
      "duration": 0.0773,
      "velocity": 98,
      "chip": "ym2612"
    },
    {
      "channel": 3,
      "note": 76,
      "start": 69.5553,
      "duration": 0.041,
      "velocity": 97,
      "chip": "ym2612"
    },
    {
      "channel": 4,
      "note": 33,
      "start": 69.749,
      "duration": 0.0805,
      "velocity": 113,
      "chip": "ym2612"
    },
    {
      "channel": 2,
      "note": 91,
      "start": 69.7519,
      "duration": 0.0278,
      "velocity": 127,
      "chip": "ym2612"
    },
    {
      "channel": 0,
      "note": 37,
      "start": 69.7544,
      "duration": 0.1584,
      "velocity": 98,
      "chip": "ym2612"
    },
    {
      "channel": 1,
      "note": 49,
      "start": 69.7576,
      "duration": 0.1386,
      "velocity": 98,
      "chip": "ym2612"
    },
    {
      "channel": 3,
      "note": 73,
      "start": 69.7605,
      "duration": 0.0357,
      "velocity": 97,
      "chip": "ym2612"
    },
    {
      "channel": 2,
      "note": 79,
      "start": 69.9493,
      "duration": 0.0138,
      "velocity": 127,
      "chip": "ym2612"
    },
    {
      "channel": 0,
      "note": 47,
      "start": 69.9518,
      "duration": 0.1944,
      "velocity": 98,
      "chip": "ym2612"
    },
    {
      "channel": 3,
      "note": 75,
      "start": 69.9549,
      "duration": 0.0247,
      "velocity": 97,
      "chip": "ym2612"
    },
    {
      "channel": 2,
      "note": 91,
      "start": 70.1331,
      "duration": 0.03,
      "velocity": 127,
      "chip": "ym2612"
    },
    {
      "channel": 5,
      "note": 37,
      "start": 70.1359,
      "duration": 0.1604,
      "velocity": 98,
      "chip": "ym2612"
    },
    {
      "channel": 1,
      "note": 49,
      "start": 70.1388,
      "duration": 0.1408,
      "velocity": 98,
      "chip": "ym2612"
    },
    {
      "channel": 4,
      "note": 71,
      "start": 70.1421,
      "duration": 0.1041,
      "velocity": 97,
      "chip": "ym2612"
    },
    {
      "channel": 3,
      "note": 59,
      "start": 70.1451,
      "duration": 0.1346,
      "velocity": 97,
      "chip": "ym2612"
    },
    {
      "channel": 0,
      "note": 73,
      "start": 70.1483,
      "duration": 0.0311,
      "velocity": 97,
      "chip": "ym2612"
    },
    {
      "channel": 2,
      "note": 33,
      "start": 70.3326,
      "duration": 0.0804,
      "velocity": 113,
      "chip": "ym2612"
    },
    {
      "channel": 5,
      "note": 45,
      "start": 70.3355,
      "duration": 0.1275,
      "velocity": 98,
      "chip": "ym2612"
    },
    {
      "channel": 1,
      "note": 52,
      "start": 70.3382,
      "duration": 0.1246,
      "velocity": 98,
      "chip": "ym2612"
    },
    {
      "channel": 3,
      "note": 75,
      "start": 70.3413,
      "duration": 0.1049,
      "velocity": 97,
      "chip": "ym2612"
    },
    {
      "channel": 4,
      "note": 63,
      "start": 70.3446,
      "duration": 0.0871,
      "velocity": 97,
      "chip": "ym2612"
    },
    {
      "channel": 0,
      "note": 75,
      "start": 70.3475,
      "duration": 0.0319,
      "velocity": 97,
      "chip": "ym2612"
    },
    {
      "channel": 0,
      "note": 91,
      "start": 70.5161,
      "duration": 0.03,
      "velocity": 127,
      "chip": "ym2612"
    },
    {
      "channel": 5,
      "note": 37,
      "start": 70.5188,
      "duration": 0.1776,
      "velocity": 98,
      "chip": "ym2612"
    },
    {
      "channel": 1,
      "note": 49,
      "start": 70.5215,
      "duration": 0.1414,
      "velocity": 98,
      "chip": "ym2612"
    },
    {
      "channel": 3,
      "note": 71,
      "start": 70.5246,
      "duration": 0.1384,
      "velocity": 97,
      "chip": "ym2612"
    },
    {
      "channel": 4,
      "note": 59,
      "start": 70.5276,
      "duration": 0.102,
      "velocity": 97,
      "chip": "ym2612"
    },
    {
      "channel": 2,
      "note": 73,
      "start": 70.5307,
      "duration": 0.0323,
      "velocity": 97,
      "chip": "ym2612"
    },
    {
      "channel": 0,
      "note": 79,
      "start": 70.7156,
      "duration": 0.0305,
      "velocity": 127,
      "chip": "ym2612"
    },
    {
      "channel": 5,
      "note": 44,
      "start": 70.7183,
      "duration": 0.1281,
      "velocity": 98,
      "chip": "ym2612"
    },
    {
      "channel": 1,
      "note": 54,
      "start": 70.7211,
      "duration": 0.1083,
      "velocity": 98,
      "chip": "ym2612"
    },
    {
      "channel": 3,
      "note": 61,
      "start": 70.7243,
      "duration": 0.1385,
      "velocity": 97,
      "chip": "ym2612"
    },
    {
      "channel": 4,
      "note": 73,
      "start": 70.7271,
      "duration": 0.1359,
      "velocity": 97,
      "chip": "ym2612"
    },
    {
      "channel": 2,
      "note": 71,
      "start": 70.7306,
      "duration": 0.0324,
      "velocity": 97,
      "chip": "ym2612"
    },
    {
      "channel": 0,
      "note": 91,
      "start": 70.9012,
      "duration": 0.0282,
      "velocity": 127,
      "chip": "ym2612"
    },
    {
      "channel": 5,
      "note": 42,
      "start": 70.9039,
      "duration": 0.1924,
      "velocity": 98,
      "chip": "ym2612"
    },
    {
      "channel": 1,
      "note": 52,
      "start": 70.9067,
      "duration": 0.0894,
      "velocity": 98,
      "chip": "ym2612"
    },
    {
      "channel": 3,
      "note": 56,
      "start": 70.9099,
      "duration": 0.1697,
      "velocity": 97,
      "chip": "ym2612"
    },
    {
      "channel": 4,
      "note": 68,
      "start": 70.9136,
      "duration": 0.1326,
      "velocity": 97,
      "chip": "ym2612"
    },
    {
      "channel": 2,
      "note": 73,
      "start": 70.9165,
      "duration": 0.0298,
      "velocity": 97,
      "chip": "ym2612"
    },
    {
      "channel": 0,
      "note": 33,
      "start": 71.0992,
      "duration": 0.0803,
      "velocity": 113,
      "chip": "ym2612"
    },
    {
      "channel": 5,
      "note": 37,
      "start": 71.1023,
      "duration": 0.0774,
      "velocity": 98,
      "chip": "ym2612"
    },
    {
      "channel": 1,
      "note": 49,
      "start": 71.1052,
      "duration": 0.1077,
      "velocity": 98,
      "chip": "ym2612"
    },
    {
      "channel": 2,
      "note": 73,
      "start": 71.1083,
      "duration": 0.0381,
      "velocity": 97,
      "chip": "ym2612"
    },
    {
      "channel": 5,
      "note": 37,
      "start": 71.2994,
      "duration": 0.1303,
      "velocity": 98,
      "chip": "ym2612"
    },
    {
      "channel": 1,
      "note": 49,
      "start": 71.3023,
      "duration": 0.1272,
      "velocity": 98,
      "chip": "ym2612"
    },
    {
      "channel": 2,
      "note": 73,
      "start": 71.3054,
      "duration": 0.041,
      "velocity": 97,
      "chip": "ym2612"
    },
    {
      "channel": 4,
      "note": 79,
      "start": 71.4827,
      "duration": 0.0302,
      "velocity": 127,
      "chip": "ym2612"
    },
    {
      "channel": 5,
      "note": 49,
      "start": 71.4852,
      "duration": 0.1445,
      "velocity": 98,
      "chip": "ym2612"
    },
    {
      "channel": 1,
      "note": 61,
      "start": 71.488,
      "duration": 0.1415,
      "velocity": 98,
      "chip": "ym2612"
    },
    {
      "channel": 2,
      "note": 80,
      "start": 71.4911,
      "duration": 0.0387,
      "velocity": 97,
      "chip": "ym2612"
    },
    {
      "channel": 4,
      "note": 91,
      "start": 71.6826,
      "duration": 0.0304,
      "velocity": 127,
      "chip": "ym2612"
    },
    {
      "channel": 5,
      "note": 37,
      "start": 71.6852,
      "duration": 0.1611,
      "velocity": 98,
      "chip": "ym2612"
    },
    {
      "channel": 1,
      "note": 49,
      "start": 71.6881,
      "duration": 0.0913,
      "velocity": 98,
      "chip": "ym2612"
    },
    {
      "channel": 2,
      "note": 73,
      "start": 71.6913,
      "duration": 0.0384,
      "velocity": 97,
      "chip": "ym2612"
    },
    {
      "channel": 0,
      "note": 33,
      "start": 71.8654,
      "duration": 0.0807,
      "velocity": 113,
      "chip": "ym2612"
    },
    {
      "channel": 5,
      "note": 49,
      "start": 71.8683,
      "duration": 0.1781,
      "velocity": 98,
      "chip": "ym2612"
    },
    {
      "channel": 1,
      "note": 59,
      "start": 71.8715,
      "duration": 0.1413,
      "velocity": 98,
      "chip": "ym2612"
    },
    {
      "channel": 2,
      "note": 73,
      "start": 71.8746,
      "duration": 0.0385,
      "velocity": 97,
      "chip": "ym2612"
    },
    {
      "channel": 4,
      "note": 91,
      "start": 72.0659,
      "duration": 0.0304,
      "velocity": 127,
      "chip": "ym2612"
    },
    {
      "channel": 5,
      "note": 37,
      "start": 72.0688,
      "duration": 0.1609,
      "velocity": 98,
      "chip": "ym2612"
    },
    {
      "channel": 1,
      "note": 49,
      "start": 72.0717,
      "duration": 0.1078,
      "velocity": 98,
      "chip": "ym2612"
    },
    {
      "channel": 2,
      "note": 78,
      "start": 72.0749,
      "duration": 0.0382,
      "velocity": 97,
      "chip": "ym2612"
    },
    {
      "channel": 4,
      "note": 79,
      "start": 72.2658,
      "duration": 0.0305,
      "velocity": 127,
      "chip": "ym2612"
    },
    {
      "channel": 2,
      "note": 73,
      "start": 72.2691,
      "duration": 0.0439,
      "velocity": 97,
      "chip": "ym2612"
    },
    {
      "channel": 4,
      "note": 91,
      "start": 72.4493,
      "duration": 0.0303,
      "velocity": 127,
      "chip": "ym2612"
    },
    {
      "channel": 5,
      "note": 37,
      "start": 72.452,
      "duration": 0.1943,
      "velocity": 98,
      "chip": "ym2612"
    },
    {
      "channel": 1,
      "note": 49,
      "start": 72.4549,
      "duration": 0.1247,
      "velocity": 98,
      "chip": "ym2612"
    },
    {
      "channel": 2,
      "note": 73,
      "start": 72.458,
      "duration": 0.0383,
      "velocity": 97,
      "chip": "ym2612"
    },
    {
      "channel": 0,
      "note": 33,
      "start": 72.6488,
      "duration": 0.0807,
      "velocity": 113,
      "chip": "ym2612"
    },
    {
      "channel": 2,
      "note": 76,
      "start": 72.6523,
      "duration": 0.044,
      "velocity": 97,
      "chip": "ym2612"
    },
    {
      "channel": 4,
      "note": 91,
      "start": 72.833,
      "duration": 0.03,
      "velocity": 127,
      "chip": "ym2612"
    },
    {
      "channel": 5,
      "note": 37,
      "start": 72.8363,
      "duration": 0.1767,
      "velocity": 98,
      "chip": "ym2612"
    },
    {
      "channel": 1,
      "note": 49,
      "start": 72.8392,
      "duration": 0.1403,
      "velocity": 98,
      "chip": "ym2612"
    },
    {
      "channel": 3,
      "note": 73,
      "start": 72.8424,
      "duration": 0.1205,
      "velocity": 97,
      "chip": "ym2612"
    },
    {
      "channel": 2,
      "note": 61,
      "start": 72.8455,
      "duration": 0.1008,
      "velocity": 97,
      "chip": "ym2612"
    },
    {
      "channel": 0,
      "note": 73,
      "start": 72.8487,
      "duration": 0.0308,
      "velocity": 97,
      "chip": "ym2612"
    },
    {
      "channel": 4,
      "note": 79,
      "start": 73.0324,
      "duration": 0.0305,
      "velocity": 127,
      "chip": "ym2612"
    },
    {
      "channel": 5,
      "note": 49,
      "start": 73.0352,
      "duration": 0.1446,
      "velocity": 98,
      "chip": "ym2612"
    },
    {
      "channel": 1,
      "note": 52,
      "start": 73.0379,
      "duration": 0.1415,
      "velocity": 98,
      "chip": "ym2612"
    },
    {
      "channel": 3,
      "note": 63,
      "start": 73.0411,
      "duration": 0.1385,
      "velocity": 97,
      "chip": "ym2612"
    },
    {
      "channel": 2,
      "note": 75,
      "start": 73.0441,
      "duration": 0.1189,
      "velocity": 97,
      "chip": "ym2612"
    },
    {
      "channel": 0,
      "note": 75,
      "start": 73.047,
      "duration": 0.0324,
      "velocity": 97,
      "chip": "ym2612"
    },
    {
      "channel": 4,
      "note": 91,
      "start": 73.2326,
      "duration": 0.0304,
      "velocity": 127,
      "chip": "ym2612"
    },
    {
      "channel": 5,
      "note": 37,
      "start": 73.2352,
      "duration": 0.1445,
      "velocity": 98,
      "chip": "ym2612"
    },
    {
      "channel": 1,
      "note": 49,
      "start": 73.238,
      "duration": 0.1248,
      "velocity": 98,
      "chip": "ym2612"
    },
    {
      "channel": 3,
      "note": 76,
      "start": 73.2415,
      "duration": 0.0882,
      "velocity": 97,
      "chip": "ym2612"
    },
    {
      "channel": 2,
      "note": 64,
      "start": 73.2446,
      "duration": 0.1018,
      "velocity": 97,
      "chip": "ym2612"
    },
    {
      "channel": 0,
      "note": 73,
      "start": 73.2474,
      "duration": 0.0176,
      "velocity": 97,
      "chip": "ym2612"
    },
    {
      "channel": 4,
      "note": 33,
      "start": 73.4157,
      "duration": 0.0806,
      "velocity": 113,
      "chip": "ym2612"
    },
    {
      "channel": 5,
      "note": 47,
      "start": 73.4186,
      "duration": 0.1278,
      "velocity": 98,
      "chip": "ym2612"
    },
    {
      "channel": 1,
      "note": 56,
      "start": 73.4212,
      "duration": 0.1416,
      "velocity": 98,
      "chip": "ym2612"
    },
    {
      "channel": 3,
      "note": 66,
      "start": 73.4242,
      "duration": 0.122,
      "velocity": 97,
      "chip": "ym2612"
    },
    {
      "channel": 2,
      "note": 78,
      "start": 73.4273,
      "duration": 0.1024,
      "velocity": 97,
      "chip": "ym2612"
    },
    {
      "channel": 0,
      "note": 76,
      "start": 73.4302,
      "duration": 0.0326,
      "velocity": 97,
      "chip": "ym2612"
    },
    {
      "channel": 0,
      "note": 91,
      "start": 73.6161,
      "duration": 0.03,
      "velocity": 127,
      "chip": "ym2612"
    },
    {
      "channel": 5,
      "note": 37,
      "start": 73.6188,
      "duration": 0.211,
      "velocity": 98,
      "chip": "ym2612"
    },
    {
      "channel": 1,
      "note": 55,
      "start": 73.6215,
      "duration": 0.1268,
      "velocity": 98,
      "chip": "ym2612"
    },
    {
      "channel": 3,
      "note": 64,
      "start": 73.6246,
      "duration": 0.1239,
      "velocity": 97,
      "chip": "ym2612"
    },
    {
      "channel": 2,
      "note": 76,
      "start": 73.6277,
      "duration": 0.102,
      "velocity": 97,
      "chip": "ym2612"
    },
    {
      "channel": 4,
      "note": 78,
      "start": 73.6308,
      "duration": 0.0322,
      "velocity": 97,
      "chip": "ym2612"
    },
    {
      "channel": 0,
      "note": 79,
      "start": 73.799,
      "duration": 0.0132,
      "velocity": 127,
      "chip": "ym2612"
    },
    {
      "channel": 4,
      "note": 46,
      "start": 73.8018,
      "duration": 0.1446,
      "velocity": 98,
      "chip": "ym2612"
    },
    {
      "channel": 1,
      "note": 54,
      "start": 73.8044,
      "duration": 0.1417,
      "velocity": 98,
      "chip": "ym2612"
    },
    {
      "channel": 3,
      "note": 63,
      "start": 73.8079,
      "duration": 0.1216,
      "velocity": 97,
      "chip": "ym2612"
    },
    {
      "channel": 2,
      "note": 75,
      "start": 73.811,
      "duration": 0.102,
      "velocity": 97,
      "chip": "ym2612"
    },
    {
      "channel": 0,
      "note": 80,
      "start": 73.8145,
      "duration": 0.0316,
      "velocity": 97,
      "chip": "ym2612"
    },
    {
      "channel": 5,
      "note": 79,
      "start": 73.9992,
      "duration": 0.0304,
      "velocity": 127,
      "chip": "ym2612"
    },
    {
      "channel": 4,
      "note": 37,
      "start": 74.0017,
      "duration": 0.1446,
      "velocity": 98,
      "chip": "ym2612"
    },
    {
      "channel": 1,
      "note": 52,
      "start": 74.0049,
      "duration": 0.1245,
      "velocity": 98,
      "chip": "ym2612"
    },
    {
      "channel": 3,
      "note": 73,
      "start": 74.0081,
      "duration": 0.2714,
      "velocity": 97,
      "chip": "ym2612"
    },
    {
      "channel": 2,
      "note": 61,
      "start": 74.0112,
      "duration": 0.2352,
      "velocity": 97,
      "chip": "ym2612"
    },
    {
      "channel": 0,
      "note": 73,
      "start": 74.014,
      "duration": 0.0321,
      "velocity": 97,
      "chip": "ym2612"
    },
    {
      "channel": 5,
      "note": 33,
      "start": 74.2004,
      "duration": 0.0626,
      "velocity": 113,
      "chip": "ym2612"
    },
    {
      "channel": 4,
      "note": 45,
      "start": 74.2042,
      "duration": 0.0755,
      "velocity": 98,
      "chip": "ym2612"
    },
    {
      "channel": 1,
      "note": 49,
      "start": 74.2083,
      "duration": 0.0213,
      "velocity": 98,
      "chip": "ym2612"
    },
    {
      "channel": 0,
      "note": 73,
      "start": 74.2112,
      "duration": 0.0183,
      "velocity": 97,
      "chip": "ym2612"
    },
    {
      "channel": 0,
      "note": 91,
      "start": 74.3828,
      "duration": 0.0299,
      "velocity": 127,
      "chip": "ym2612"
    },
    {
      "channel": 4,
      "note": 45,
      "start": 74.3854,
      "duration": 0.1609,
      "velocity": 98,
      "chip": "ym2612"
    },
    {
      "channel": 1,
      "note": 49,
      "start": 74.3883,
      "duration": 0.1412,
      "velocity": 98,
      "chip": "ym2612"
    },
    {
      "channel": 2,
      "note": 73,
      "start": 74.3915,
      "duration": 0.0382,
      "velocity": 97,
      "chip": "ym2612"
    },
    {
      "channel": 0,
      "note": 79,
      "start": 74.5822,
      "duration": 0.0305,
      "velocity": 127,
      "chip": "ym2612"
    },
    {
      "channel": 4,
      "note": 42,
      "start": 74.5853,
      "duration": 0.1278,
      "velocity": 98,
      "chip": "ym2612"
    },
    {
      "channel": 1,
      "note": 61,
      "start": 74.588,
      "duration": 0.1248,
      "velocity": 98,
      "chip": "ym2612"
    },
    {
      "channel": 3,
      "note": 73,
      "start": 74.5912,
      "duration": 0.105,
      "velocity": 97,
      "chip": "ym2612"
    },
    {
      "channel": 5,
      "note": 61,
      "start": 74.5946,
      "duration": 0.1186,
      "velocity": 97,
      "chip": "ym2612"
    },
    {
      "channel": 2,
      "note": 80,
      "start": 74.5977,
      "duration": 0.032,
      "velocity": 97,
      "chip": "ym2612"
    },
    {
      "channel": 0,
      "note": 91,
      "start": 74.7658,
      "duration": 0.0304,
      "velocity": 127,
      "chip": "ym2612"
    },
    {
      "channel": 4,
      "note": 40,
      "start": 74.7684,
      "duration": 0.1779,
      "velocity": 98,
      "chip": "ym2612"
    },
    {
      "channel": 1,
      "note": 49,
      "start": 74.7713,
      "duration": 0.0916,
      "velocity": 98,
      "chip": "ym2612"
    },
    {
      "channel": 3,
      "note": 63,
      "start": 74.7743,
      "duration": 0.1385,
      "velocity": 97,
      "chip": "ym2612"
    },
    {
      "channel": 5,
      "note": 75,
      "start": 74.7773,
      "duration": 0.0859,
      "velocity": 97,
      "chip": "ym2612"
    },
    {
      "channel": 2,
      "note": 73,
      "start": 74.7804,
      "duration": 0.0327,
      "velocity": 97,
      "chip": "ym2612"
    },
    {
      "channel": 0,
      "note": 33,
      "start": 74.9657,
      "duration": 0.0805,
      "velocity": 113,
      "chip": "ym2612"
    },
    {
      "channel": 4,
      "note": 45,
      "start": 74.9686,
      "duration": 0.311,
      "velocity": 98,
      "chip": "ym2612"
    },
    {
      "channel": 1,
      "note": 59,
      "start": 74.9716,
      "duration": 0.1412,
      "velocity": 98,
      "chip": "ym2612"
    },
    {
      "channel": 2,
      "note": 73,
      "start": 74.9748,
      "duration": 0.0382,
      "velocity": 97,
      "chip": "ym2612"
    },
    {
      "channel": 5,
      "note": 91,
      "start": 75.1661,
      "duration": 0.0136,
      "velocity": 127,
      "chip": "ym2612"
    },
    {
      "channel": 3,
      "note": 75,
      "start": 75.1695,
      "duration": 0.0602,
      "velocity": 97,
      "chip": "ym2612"
    },
    {
      "channel": 2,
      "note": 63,
      "start": 75.1726,
      "duration": 0.0905,
      "velocity": 97,
      "chip": "ym2612"
    },
    {
      "channel": 0,
      "note": 78,
      "start": 75.1754,
      "duration": 0.0206,
      "velocity": 97,
      "chip": "ym2612"
    },
    {
      "channel": 5,
      "note": 79,
      "start": 75.3492,
      "duration": 0.0305,
      "velocity": 127,
      "chip": "ym2612"
    },
    {
      "channel": 4,
      "note": 42,
      "start": 75.352,
      "duration": 0.1442,
      "velocity": 98,
      "chip": "ym2612"
    },
    {
      "channel": 0,
      "note": 73,
      "start": 75.355,
      "duration": 0.0411,
      "velocity": 97,
      "chip": "ym2612"
    },
    {
      "channel": 5,
      "note": 91,
      "start": 75.5493,
      "duration": 0.0304,
      "velocity": 127,
      "chip": "ym2612"
    },
    {
      "channel": 4,
      "note": 40,
      "start": 75.552,
      "duration": 0.1443,
      "velocity": 98,
      "chip": "ym2612"
    },
    {
      "channel": 1,
      "note": 49,
      "start": 75.5549,
      "duration": 0.0935,
      "velocity": 98,
      "chip": "ym2612"
    },
    {
      "channel": 3,
      "note": 63,
      "start": 75.5581,
      "duration": 0.0881,
      "velocity": 97,
      "chip": "ym2612"
    },
    {
      "channel": 2,
      "note": 75,
      "start": 75.5614,
      "duration": 0.085,
      "velocity": 97,
      "chip": "ym2612"
    },
    {
      "channel": 0,
      "note": 73,
      "start": 75.5642,
      "duration": 0.0319,
      "velocity": 97,
      "chip": "ym2612"
    },
    {
      "channel": 5,
      "note": 33,
      "start": 75.7324,
      "duration": 0.0806,
      "velocity": 113,
      "chip": "ym2612"
    },
    {
      "channel": 4,
      "note": 45,
      "start": 75.7352,
      "duration": 0.0944,
      "velocity": 98,
      "chip": "ym2612"
    },
    {
      "channel": 3,
      "note": 76,
      "start": 75.7385,
      "duration": 0.1578,
      "velocity": 97,
      "chip": "ym2612"
    },
    {
      "channel": 2,
      "note": 64,
      "start": 75.7414,
      "duration": 0.1551,
      "velocity": 97,
      "chip": "ym2612"
    },
    {
      "channel": 0,
      "note": 76,
      "start": 75.7441,
      "duration": 0.0353,
      "velocity": 97,
      "chip": "ym2612"
    },
    {
      "channel": 1,
      "note": 91,
      "start": 75.9328,
      "duration": 0.03,
      "velocity": 127,
      "chip": "ym2612"
    },
    {
      "channel": 4,
      "note": 45,
      "start": 75.9355,
      "duration": 0.1608,
      "velocity": 98,
      "chip": "ym2612"
    },
    {
      "channel": 0,
      "note": 49,
      "start": 75.9387,
      "duration": 0.1074,
      "velocity": 98,
      "chip": "ym2612"
    },
    {
      "channel": 5,
      "note": 73,
      "start": 75.9418,
      "duration": 0.0379,
      "velocity": 97,
      "chip": "ym2612"
    },
    {
      "channel": 1,
      "note": 79,
      "start": 76.1177,
      "duration": 0.0284,
      "velocity": 127,
      "chip": "ym2612"
    },
    {
      "channel": 4,
      "note": 42,
      "start": 76.1208,
      "duration": 0.1422,
      "velocity": 98,
      "chip": "ym2612"
    },
    {
      "channel": 3,
      "note": 78,
      "start": 76.1239,
      "duration": 0.1557,
      "velocity": 97,
      "chip": "ym2612"
    },
    {
      "channel": 2,
      "note": 66,
      "start": 76.1268,
      "duration": 0.1529,
      "velocity": 97,
      "chip": "ym2612"
    },
    {
      "channel": 5,
      "note": 75,
      "start": 76.1299,
      "duration": 0.0331,
      "velocity": 97,
      "chip": "ym2612"
    },
    {
      "channel": 1,
      "note": 91,
      "start": 76.3162,
      "duration": 0.03,
      "velocity": 127,
      "chip": "ym2612"
    },
    {
      "channel": 4,
      "note": 40,
      "start": 76.3189,
      "duration": 0.1607,
      "velocity": 98,
      "chip": "ym2612"
    },
    {
      "channel": 0,
      "note": 49,
      "start": 76.3218,
      "duration": 0.141,
      "velocity": 98,
      "chip": "ym2612"
    },
    {
      "channel": 5,
      "note": 73,
      "start": 76.3249,
      "duration": 0.0381,
      "velocity": 97,
      "chip": "ym2612"
    },
    {
      "channel": 3,
      "note": 33,
      "start": 76.5158,
      "duration": 0.0805,
      "velocity": 113,
      "chip": "ym2612"
    },
    {
      "channel": 4,
      "note": 45,
      "start": 76.5186,
      "duration": 0.1111,
      "velocity": 98,
      "chip": "ym2612"
    },
    {
      "channel": 0,
      "note": 52,
      "start": 76.5214,
      "duration": 0.0913,
      "velocity": 98,
      "chip": "ym2612"
    },
    {
      "channel": 2,
      "note": 68,
      "start": 76.5247,
      "duration": 0.3218,
      "velocity": 97,
      "chip": "ym2612"
    },
    {
      "channel": 1,
      "note": 80,
      "start": 76.5276,
      "duration": 0.3187,
      "velocity": 97,
      "chip": "ym2612"
    },
    {
      "channel": 5,
      "note": 75,
      "start": 76.5307,
      "duration": 0.0323,
      "velocity": 97,
      "chip": "ym2612"
    },
    {
      "channel": 5,
      "note": 91,
      "start": 76.6994,
      "duration": 0.0302,
      "velocity": 127,
      "chip": "ym2612"
    },
    {
      "channel": 4,
      "note": 40,
      "start": 76.7021,
      "duration": 0.1609,
      "velocity": 98,
      "chip": "ym2612"
    },
    {
      "channel": 0,
      "note": 49,
      "start": 76.7049,
      "duration": 0.1413,
      "velocity": 98,
      "chip": "ym2612"
    },
    {
      "channel": 3,
      "note": 73,
      "start": 76.7079,
      "duration": 0.0384,
      "velocity": 97,
      "chip": "ym2612"
    },
    {
      "channel": 5,
      "note": 79,
      "start": 76.8992,
      "duration": 0.0305,
      "velocity": 127,
      "chip": "ym2612"
    },
    {
      "channel": 4,
      "note": 42,
      "start": 76.9019,
      "duration": 0.1277,
      "velocity": 98,
      "chip": "ym2612"
    },
    {
      "channel": 0,
      "note": 54,
      "start": 76.9045,
      "duration": 0.1415,
      "velocity": 98,
      "chip": "ym2612"
    },
    {
      "channel": 1,
      "note": 66,
      "start": 76.908,
      "duration": 0.1715,
      "velocity": 97,
      "chip": "ym2612"
    },
    {
      "channel": 2,
      "note": 78,
      "start": 76.9112,
      "duration": 0.1518,
      "velocity": 97,
      "chip": "ym2612"
    },
    {
      "channel": 3,
      "note": 71,
      "start": 76.9146,
      "duration": 0.0316,
      "velocity": 97,
      "chip": "ym2612"
    },
    {
      "channel": 5,
      "note": 91,
      "start": 77.0827,
      "duration": 0.0302,
      "velocity": 127,
      "chip": "ym2612"
    },
    {
      "channel": 4,
      "note": 40,
      "start": 77.0854,
      "duration": 0.211,
      "velocity": 98,
      "chip": "ym2612"
    },
    {
      "channel": 0,
      "note": 52,
      "start": 77.0882,
      "duration": 0.0912,
      "velocity": 98,
      "chip": "ym2612"
    },
    {
      "channel": 3,
      "note": 75,
      "start": 77.0912,
      "duration": 0.0385,
      "velocity": 97,
      "chip": "ym2612"
    },
    {
      "channel": 2,
      "note": 33,
      "start": 77.2827,
      "duration": 0.0804,
      "velocity": 113,
      "chip": "ym2612"
    },
    {
      "channel": 1,
      "note": 47,
      "start": 77.2856,
      "duration": 0.144,
      "velocity": 98,
      "chip": "ym2612"
    },
    {
      "channel": 0,
      "note": 49,
      "start": 77.2882,
      "duration": 0.0912,
      "velocity": 98,
      "chip": "ym2612"
    },
    {
      "channel": 3,
      "note": 73,
      "start": 77.2912,
      "duration": 0.0385,
      "velocity": 97,
      "chip": "ym2612"
    },
    {
      "channel": 2,
      "note": 33,
      "start": 77.4826,
      "duration": 0.0637,
      "velocity": 113,
      "chip": "ym2612"
    },
    {
      "channel": 1,
      "note": 42,
      "start": 77.4853,
      "duration": 0.161,
      "velocity": 98,
      "chip": "ym2612"
    },
    {
      "channel": 0,
      "note": 49,
      "start": 77.4882,
      "duration": 0.1246,
      "velocity": 98,
      "chip": "ym2612"
    },
    {
      "channel": 3,
      "note": 73,
      "start": 77.4911,
      "duration": 0.0385,
      "velocity": 97,
      "chip": "ym2612"
    },
    {
      "channel": 5,
      "note": 79,
      "start": 77.6659,
      "duration": 0.0305,
      "velocity": 127,
      "chip": "ym2612"
    },
    {
      "channel": 1,
      "note": 45,
      "start": 77.6688,
      "duration": 0.1442,
      "velocity": 98,
      "chip": "ym2612"
    },
    {
      "channel": 0,
      "note": 61,
      "start": 77.6715,
      "duration": 0.1414,
      "velocity": 98,
      "chip": "ym2612"
    },
    {
      "channel": 3,
      "note": 80,
      "start": 77.6745,
      "duration": 0.0384,
      "velocity": 97,
      "chip": "ym2612"
    },
    {
      "channel": 5,
      "note": 91,
      "start": 77.866,
      "duration": 0.0304,
      "velocity": 127,
      "chip": "ym2612"
    },
    {
      "channel": 1,
      "note": 42,
      "start": 77.8684,
      "duration": 0.1444,
      "velocity": 98,
      "chip": "ym2612"
    },
    {
      "channel": 0,
      "note": 49,
      "start": 77.8716,
      "duration": 0.1078,
      "velocity": 98,
      "chip": "ym2612"
    },
    {
      "channel": 3,
      "note": 73,
      "start": 77.8746,
      "duration": 0.0383,
      "velocity": 97,
      "chip": "ym2612"
    },
    {
      "channel": 2,
      "note": 33,
      "start": 78.0492,
      "duration": 0.0805,
      "velocity": 113,
      "chip": "ym2612"
    },
    {
      "channel": 1,
      "note": 47,
      "start": 78.0519,
      "duration": 0.1276,
      "velocity": 98,
      "chip": "ym2612"
    },
    {
      "channel": 0,
      "note": 59,
      "start": 78.0549,
      "duration": 0.1413,
      "velocity": 98,
      "chip": "ym2612"
    },
    {
      "channel": 3,
      "note": 73,
      "start": 78.0578,
      "duration": 0.0385,
      "velocity": 97,
      "chip": "ym2612"
    },
    {
      "channel": 5,
      "note": 91,
      "start": 78.2493,
      "duration": 0.0304,
      "velocity": 127,
      "chip": "ym2612"
    },
    {
      "channel": 1,
      "note": 42,
      "start": 78.2518,
      "duration": 0.1777,
      "velocity": 98,
      "chip": "ym2612"
    },
    {
      "channel": 3,
      "note": 78,
      "start": 78.2549,
      "duration": 0.0413,
      "velocity": 97,
      "chip": "ym2612"
    },
    {
      "channel": 5,
      "note": 79,
      "start": 78.4491,
      "duration": 0.0306,
      "velocity": 127,
      "chip": "ym2612"
    },
    {
      "channel": 1,
      "note": 45,
      "start": 78.4516,
      "duration": 0.1279,
      "velocity": 98,
      "chip": "ym2612"
    },
    {
      "channel": 3,
      "note": 73,
      "start": 78.4548,
      "duration": 0.0271,
      "velocity": 97,
      "chip": "ym2612"
    },
    {
      "channel": 5,
      "note": 91,
      "start": 78.6326,
      "duration": 0.0304,
      "velocity": 127,
      "chip": "ym2612"
    },
    {
      "channel": 1,
      "note": 42,
      "start": 78.6352,
      "duration": 0.1776,
      "velocity": 98,
      "chip": "ym2612"
    },
    {
      "channel": 0,
      "note": 49,
      "start": 78.6381,
      "duration": 0.1247,
      "velocity": 98,
      "chip": "ym2612"
    },
    {
      "channel": 4,
      "note": 61,
      "start": 78.6415,
      "duration": 0.1715,
      "velocity": 97,
      "chip": "ym2612"
    },
    {
      "channel": 2,
      "note": 73,
      "start": 78.6445,
      "duration": 0.1019,
      "velocity": 97,
      "chip": "ym2612"
    },
    {
      "channel": 3,
      "note": 73,
      "start": 78.6475,
      "duration": 0.0321,
      "velocity": 97,
      "chip": "ym2612"
    },
    {
      "channel": 5,
      "note": 33,
      "start": 78.8324,
      "duration": 0.0806,
      "velocity": 113,
      "chip": "ym2612"
    },
    {
      "channel": 1,
      "note": 47,
      "start": 78.8351,
      "duration": 0.1277,
      "velocity": 98,
      "chip": "ym2612"
    },
    {
      "channel": 4,
      "note": 76,
      "start": 78.8384,
      "duration": 0.1246,
      "velocity": 97,
      "chip": "ym2612"
    },
    {
      "channel": 2,
      "note": 64,
      "start": 78.8419,
      "duration": 0.1045,
      "velocity": 97,
      "chip": "ym2612"
    },
    {
      "channel": 3,
      "note": 76,
      "start": 78.8446,
      "duration": 0.0349,
      "velocity": 97,
      "chip": "ym2612"
    },
    {
      "channel": 0,
      "note": 91,
      "start": 79.0164,
      "duration": 0.0298,
      "velocity": 127,
      "chip": "ym2612"
    },
    {
      "channel": 1,
      "note": 42,
      "start": 79.019,
      "duration": 0.1605,
      "velocity": 98,
      "chip": "ym2612"
    },
    {
      "channel": 3,
      "note": 49,
      "start": 79.0219,
      "duration": 0.1243,
      "velocity": 98,
      "chip": "ym2612"
    },
    {
      "channel": 4,
      "note": 63,
      "start": 79.0251,
      "duration": 0.1379,
      "velocity": 97,
      "chip": "ym2612"
    },
    {
      "channel": 2,
      "note": 75,
      "start": 79.0281,
      "duration": 0.1016,
      "velocity": 97,
      "chip": "ym2612"
    },
    {
      "channel": 5,
      "note": 73,
      "start": 79.0313,
      "duration": 0.0317,
      "velocity": 97,
      "chip": "ym2612"
    },
    {
      "channel": 0,
      "note": 79,
      "start": 79.2156,
      "duration": 0.0305,
      "velocity": 127,
      "chip": "ym2612"
    },
    {
      "channel": 1,
      "note": 45,
      "start": 79.218,
      "duration": 0.1614,
      "velocity": 98,
      "chip": "ym2612"
    },
    {
      "channel": 4,
      "note": 73,
      "start": 79.2214,
      "duration": 0.1583,
      "velocity": 97,
      "chip": "ym2612"
    },
    {
      "channel": 2,
      "note": 61,
      "start": 79.2244,
      "duration": 0.1386,
      "velocity": 97,
      "chip": "ym2612"
    },
    {
      "channel": 5,
      "note": 75,
      "start": 79.2273,
      "duration": 0.0358,
      "velocity": 97,
      "chip": "ym2612"
    },
    {
      "channel": 0,
      "note": 91,
      "start": 79.4158,
      "duration": 0.0158,
      "velocity": 127,
      "chip": "ym2612"
    },
    {
      "channel": 1,
      "note": 42,
      "start": 79.4186,
      "duration": 0.1442,
      "velocity": 98,
      "chip": "ym2612"
    },
    {
      "channel": 3,
      "note": 49,
      "start": 79.4216,
      "duration": 0.1247,
      "velocity": 98,
      "chip": "ym2612"
    },
    {
      "channel": 5,
      "note": 73,
      "start": 79.4247,
      "duration": 0.0216,
      "velocity": 97,
      "chip": "ym2612"
    },
    {
      "channel": 2,
      "note": 33,
      "start": 79.5992,
      "duration": 0.0805,
      "velocity": 113,
      "chip": "ym2612"
    },
    {
      "channel": 1,
      "note": 47,
      "start": 79.6018,
      "duration": 0.1444,
      "velocity": 98,
      "chip": "ym2612"
    },
    {
      "channel": 3,
      "note": 52,
      "start": 79.6048,
      "duration": 0.1248,
      "velocity": 98,
      "chip": "ym2612"
    },
    {
      "channel": 4,
      "note": 59,
      "start": 79.6083,
      "duration": 0.3546,
      "velocity": 97,
      "chip": "ym2612"
    },
    {
      "channel": 0,
      "note": 71,
      "start": 79.6114,
      "duration": 0.3347,
      "velocity": 97,
      "chip": "ym2612"
    },
    {
      "channel": 5,
      "note": 75,
      "start": 79.6145,
      "duration": 0.0318,
      "velocity": 97,
      "chip": "ym2612"
    },
    {
      "channel": 5,
      "note": 91,
      "start": 79.7993,
      "duration": 0.0304,
      "velocity": 127,
      "chip": "ym2612"
    },
    {
      "channel": 1,
      "note": 42,
      "start": 79.8018,
      "duration": 0.1278,
      "velocity": 98,
      "chip": "ym2612"
    },
    {
      "channel": 3,
      "note": 49,
      "start": 79.8047,
      "duration": 0.125,
      "velocity": 98,
      "chip": "ym2612"
    },
    {
      "channel": 2,
      "note": 73,
      "start": 79.8078,
      "duration": 0.0386,
      "velocity": 97,
      "chip": "ym2612"
    },
    {
      "channel": 5,
      "note": 79,
      "start": 79.9824,
      "duration": 0.0306,
      "velocity": 127,
      "chip": "ym2612"
    },
    {
      "channel": 1,
      "note": 47,
      "start": 79.9852,
      "duration": 0.1943,
      "velocity": 98,
      "chip": "ym2612"
    },
    {
      "channel": 3,
      "note": 54,
      "start": 79.9884,
      "duration": 0.1245,
      "velocity": 98,
      "chip": "ym2612"
    },
    {
      "channel": 0,
      "note": 61,
      "start": 79.9915,
      "duration": 0.1714,
      "velocity": 97,
      "chip": "ym2612"
    },
    {
      "channel": 4,
      "note": 73,
      "start": 79.9944,
      "duration": 0.1518,
      "velocity": 97,
      "chip": "ym2612"
    },
    {
      "channel": 2,
      "note": 71,
      "start": 79.998,
      "duration": 0.0318,
      "velocity": 97,
      "chip": "ym2612"
    },
    {
      "channel": 5,
      "note": 79,
      "start": 80.1826,
      "duration": 0.0304,
      "velocity": 127,
      "chip": "ym2612"
    },
    {
      "channel": 3,
      "note": 52,
      "start": 80.1856,
      "duration": 0.1107,
      "velocity": 98,
      "chip": "ym2612"
    },
    {
      "channel": 0,
      "note": 68,
      "start": 80.1886,
      "duration": 0.1909,
      "velocity": 97,
      "chip": "ym2612"
    },
    {
      "channel": 4,
      "note": 56,
      "start": 80.192,
      "duration": 0.1543,
      "velocity": 97,
      "chip": "ym2612"
    },
    {
      "channel": 2,
      "note": 75,
      "start": 80.1948,
      "duration": 0.0348,
      "velocity": 97,
      "chip": "ym2612"
    },
    {
      "channel": 1,
      "note": 33,
      "start": 80.3829,
      "duration": 0.0632,
      "velocity": 113,
      "chip": "ym2612"
    },
    {
      "channel": 5,
      "note": 37,
      "start": 80.3871,
      "duration": 0.0101,
      "velocity": 98,
      "chip": "ym2612"
    },
    {
      "channel": 3,
      "note": 49,
      "start": 80.39,
      "duration": 0.0729,
      "velocity": 98,
      "chip": "ym2612"
    },
    {
      "channel": 2,
      "note": 73,
      "start": 80.3932,
      "duration": 0.0199,
      "velocity": 97,
      "chip": "ym2612"
    },
    {
      "channel": 4,
      "note": 91,
      "start": 80.5661,
      "duration": 0.0302,
      "velocity": 127,
      "chip": "ym2612"
    },
    {
      "channel": 5,
      "note": 37,
      "start": 80.5688,
      "duration": 0.161,
      "velocity": 98,
      "chip": "ym2612"
    },
    {
      "channel": 3,
      "note": 49,
      "start": 80.5717,
      "duration": 0.1412,
      "velocity": 98,
      "chip": "ym2612"
    },
    {
      "channel": 2,
      "note": 73,
      "start": 80.5748,
      "duration": 0.0382,
      "velocity": 97,
      "chip": "ym2612"
    },
    {
      "channel": 4,
      "note": 79,
      "start": 80.7657,
      "duration": 0.0305,
      "velocity": 127,
      "chip": "ym2612"
    },
    {
      "channel": 5,
      "note": 49,
      "start": 80.7683,
      "duration": 0.1448,
      "velocity": 98,
      "chip": "ym2612"
    },
    {
      "channel": 3,
      "note": 61,
      "start": 80.771,
      "duration": 0.1251,
      "velocity": 98,
      "chip": "ym2612"
    },
    {
      "channel": 0,
      "note": 68,
      "start": 80.7741,
      "duration": 0.1054,
      "velocity": 97,
      "chip": "ym2612"
    },
    {
      "channel": 1,
      "note": 73,
      "start": 80.7771,
      "duration": 0.0858,
      "velocity": 97,
      "chip": "ym2612"
    },
    {
      "channel": 2,
      "note": 80,
      "start": 80.7803,
      "duration": 0.0328,
      "velocity": 97,
      "chip": "ym2612"
    },
    {
      "channel": 4,
      "note": 91,
      "start": 80.9492,
      "duration": 0.0303,
      "velocity": 127,
      "chip": "ym2612"
    },
    {
      "channel": 5,
      "note": 37,
      "start": 80.9519,
      "duration": 0.0611,
      "velocity": 98,
      "chip": "ym2612"
    },
    {
      "channel": 3,
      "note": 49,
      "start": 80.9547,
      "duration": 0.1415,
      "velocity": 98,
      "chip": "ym2612"
    },
    {
      "channel": 2,
      "note": 73,
      "start": 80.9578,
      "duration": 0.0386,
      "velocity": 97,
      "chip": "ym2612"
    },
    {
      "channel": 1,
      "note": 33,
      "start": 81.1492,
      "duration": 0.0805,
      "velocity": 113,
      "chip": "ym2612"
    },
    {
      "channel": 5,
      "note": 37,
      "start": 81.1518,
      "duration": 0.0612,
      "velocity": 98,
      "chip": "ym2612"
    },
    {
      "channel": 3,
      "note": 59,
      "start": 81.1546,
      "duration": 0.1416,
      "velocity": 98,
      "chip": "ym2612"
    },
    {
      "channel": 0,
      "note": 68,
      "start": 81.1576,
      "duration": 0.0718,
      "velocity": 97,
      "chip": "ym2612"
    },
    {
      "channel": 4,
      "note": 73,
      "start": 81.1607,
      "duration": 0.0856,
      "velocity": 97,
      "chip": "ym2612"
    },
    {
      "channel": 2,
      "note": 73,
      "start": 81.1638,
      "duration": 0.0326,
      "velocity": 97,
      "chip": "ym2612"
    },
    {
      "channel": 2,
      "note": 91,
      "start": 81.3349,
      "duration": 0.0282,
      "velocity": 127,
      "chip": "ym2612"
    },
    {
      "channel": 5,
      "note": 37,
      "start": 81.338,
      "duration": 0.1417,
      "velocity": 98,
      "chip": "ym2612"
    },
    {
      "channel": 3,
      "note": 49,
      "start": 81.341,
      "duration": 0.1051,
      "velocity": 98,
      "chip": "ym2612"
    },
    {
      "channel": 0,
      "note": 73,
      "start": 81.3439,
      "duration": 0.0856,
      "velocity": 97,
      "chip": "ym2612"
    },
    {
      "channel": 4,
      "note": 66,
      "start": 81.3474,
      "duration": 0.0488,
      "velocity": 97,
      "chip": "ym2612"
    },
    {
      "channel": 1,
      "note": 78,
      "start": 81.3504,
      "duration": 0.0291,
      "velocity": 97,
      "chip": "ym2612"
    },
    {
      "channel": 2,
      "note": 79,
      "start": 81.5325,
      "duration": 0.0305,
      "velocity": 127,
      "chip": "ym2612"
    },
    {
      "channel": 5,
      "note": 49,
      "start": 81.5351,
      "duration": 0.1446,
      "velocity": 98,
      "chip": "ym2612"
    },
    {
      "channel": 1,
      "note": 73,
      "start": 81.5381,
      "duration": 0.0415,
      "velocity": 97,
      "chip": "ym2612"
    },
    {
      "channel": 2,
      "note": 91,
      "start": 81.7327,
      "duration": 0.0304,
      "velocity": 127,
      "chip": "ym2612"
    },
    {
      "channel": 5,
      "note": 37,
      "start": 81.7354,
      "duration": 0.061,
      "velocity": 98,
      "chip": "ym2612"
    },
    {
      "channel": 3,
      "note": 49,
      "start": 81.7383,
      "duration": 0.108,
      "velocity": 98,
      "chip": "ym2612"
    },
    {
      "channel": 0,
      "note": 61,
      "start": 81.7413,
      "duration": 0.0381,
      "velocity": 97,
      "chip": "ym2612"
    },
    {
      "channel": 1,
      "note": 73,
      "start": 81.744,
      "duration": 0.0356,
      "velocity": 97,
      "chip": "ym2612"
    },
    {
      "channel": 4,
      "note": 33,
      "start": 81.916,
      "duration": 0.0803,
      "velocity": 113,
      "chip": "ym2612"
    },
    {
      "channel": 5,
      "note": 37,
      "start": 81.9186,
      "duration": 0.0611,
      "velocity": 98,
      "chip": "ym2612"
    },
    {
      "channel": 0,
      "note": 66,
      "start": 81.9218,
      "duration": 0.0576,
      "velocity": 97,
      "chip": "ym2612"
    },
    {
      "channel": 2,
      "note": 73,
      "start": 81.9249,
      "duration": 0.1048,
      "velocity": 97,
      "chip": "ym2612"
    },
    {
      "channel": 1,
      "note": 76,
      "start": 81.9276,
      "duration": 0.0353,
      "velocity": 97,
      "chip": "ym2612"
    },
    {
      "channel": 4,
      "note": 33,
      "start": 82.1158,
      "duration": 0.0805,
      "velocity": 113,
      "chip": "ym2612"
    },
    {
      "channel": 3,
      "note": 91,
      "start": 82.1187,
      "duration": 0.0276,
      "velocity": 127,
      "chip": "ym2612"
    },
    {
      "channel": 5,
      "note": 37,
      "start": 82.1214,
      "duration": 0.1083,
      "velocity": 98,
      "chip": "ym2612"
    },
    {
      "channel": 1,
      "note": 49,
      "start": 82.1249,
      "duration": 0.138,
      "velocity": 98,
      "chip": "ym2612"
    },
    {
      "channel": 0,
      "note": 64,
      "start": 82.1279,
      "duration": 0.0053,
      "velocity": 97,
      "chip": "ym2612"
    },
    {
      "channel": 2,
      "note": 73,
      "start": 82.1325,
      "duration": 0.0471,
      "velocity": 97,
      "chip": "ym2612"
    },
    {
      "channel": 0,
      "note": 73,
      "start": 82.1354,
      "duration": 0.0273,
      "velocity": 97,
      "chip": "ym2612"
    },
    {
      "channel": 3,
      "note": 79,
      "start": 82.299,
      "duration": 0.0305,
      "velocity": 127,
      "chip": "ym2612"
    },
    {
      "channel": 5,
      "note": 49,
      "start": 82.3017,
      "duration": 0.1447,
      "velocity": 98,
      "chip": "ym2612"
    },
    {
      "channel": 0,
      "note": 75,
      "start": 82.3047,
      "duration": 0.0415,
      "velocity": 97,
      "chip": "ym2612"
    },
    {
      "channel": 3,
      "note": 91,
      "start": 82.4997,
      "duration": 0.03,
      "velocity": 127,
      "chip": "ym2612"
    },
    {
      "channel": 5,
      "note": 37,
      "start": 82.5024,
      "duration": 0.1272,
      "velocity": 98,
      "chip": "ym2612"
    },
    {
      "channel": 1,
      "note": 49,
      "start": 82.5053,
      "duration": 0.1408,
      "velocity": 98,
      "chip": "ym2612"
    },
    {
      "channel": 2,
      "note": 64,
      "start": 82.5086,
      "duration": 0.2546,
      "velocity": 97,
      "chip": "ym2612"
    },
    {
      "channel": 4,
      "note": 73,
      "start": 82.5116,
      "duration": 0.237,
      "velocity": 97,
      "chip": "ym2612"
    },
    {
      "channel": 0,
      "note": 73,
      "start": 82.5146,
      "duration": 0.0315,
      "velocity": 97,
      "chip": "ym2612"
    },
    {
      "channel": 3,
      "note": 33,
      "start": 82.6992,
      "duration": 0.0637,
      "velocity": 113,
      "chip": "ym2612"
    },
    {
      "channel": 5,
      "note": 40,
      "start": 82.7019,
      "duration": 0.1111,
      "velocity": 98,
      "chip": "ym2612"
    },
    {
      "channel": 1,
      "note": 52,
      "start": 82.7046,
      "duration": 0.1249,
      "velocity": 98,
      "chip": "ym2612"
    },
    {
      "channel": 0,
      "note": 75,
      "start": 82.7075,
      "duration": 0.0387,
      "velocity": 97,
      "chip": "ym2612"
    },
    {
      "channel": 0,
      "note": 91,
      "start": 82.8827,
      "duration": 0.03,
      "velocity": 127,
      "chip": "ym2612"
    },
    {
      "channel": 5,
      "note": 37,
      "start": 82.8855,
      "duration": 0.1607,
      "velocity": 98,
      "chip": "ym2612"
    },
    {
      "channel": 1,
      "note": 49,
      "start": 82.8882,
      "duration": 0.1413,
      "velocity": 98,
      "chip": "ym2612"
    },
    {
      "channel": 4,
      "note": 66,
      "start": 82.8914,
      "duration": 0.1216,
      "velocity": 97,
      "chip": "ym2612"
    },
    {
      "channel": 2,
      "note": 73,
      "start": 82.8944,
      "duration": 0.0853,
      "velocity": 97,
      "chip": "ym2612"
    },
    {
      "channel": 3,
      "note": 73,
      "start": 82.8976,
      "duration": 0.032,
      "velocity": 97,
      "chip": "ym2612"
    },
    {
      "channel": 0,
      "note": 79,
      "start": 83.0822,
      "duration": 0.0306,
      "velocity": 127,
      "chip": "ym2612"
    },
    {
      "channel": 5,
      "note": 42,
      "start": 83.0854,
      "duration": 0.0943,
      "velocity": 98,
      "chip": "ym2612"
    },
    {
      "channel": 1,
      "note": 54,
      "start": 83.0882,
      "duration": 0.1081,
      "velocity": 98,
      "chip": "ym2612"
    },
    {
      "channel": 4,
      "note": 61,
      "start": 83.0912,
      "duration": 0.0219,
      "velocity": 97,
      "chip": "ym2612"
    },
    {
      "channel": 3,
      "note": 71,
      "start": 83.0943,
      "duration": 0.0353,
      "velocity": 97,
      "chip": "ym2612"
    },
    {
      "channel": 0,
      "note": 91,
      "start": 83.2657,
      "duration": 0.0305,
      "velocity": 127,
      "chip": "ym2612"
    },
    {
      "channel": 5,
      "note": 40,
      "start": 83.2684,
      "duration": 0.0779,
      "velocity": 98,
      "chip": "ym2612"
    },
    {
      "channel": 1,
      "note": 52,
      "start": 83.2713,
      "duration": 0.0916,
      "velocity": 98,
      "chip": "ym2612"
    },
    {
      "channel": 4,
      "note": 68,
      "start": 83.2749,
      "duration": 0.3048,
      "velocity": 97,
      "chip": "ym2612"
    },
    {
      "channel": 2,
      "note": 73,
      "start": 83.2779,
      "duration": 0.2685,
      "velocity": 97,
      "chip": "ym2612"
    },
    {
      "channel": 3,
      "note": 75,
      "start": 83.2809,
      "duration": 0.032,
      "velocity": 97,
      "chip": "ym2612"
    },
    {
      "channel": 0,
      "note": 33,
      "start": 83.4658,
      "duration": 0.0803,
      "velocity": 113,
      "chip": "ym2612"
    },
    {
      "channel": 5,
      "note": 37,
      "start": 83.4686,
      "duration": 0.0611,
      "velocity": 98,
      "chip": "ym2612"
    },
    {
      "channel": 1,
      "note": 49,
      "start": 83.4714,
      "duration": 0.1081,
      "velocity": 98,
      "chip": "ym2612"
    },
    {
      "channel": 3,
      "note": 73,
      "start": 83.4744,
      "duration": 0.0385,
      "velocity": 97,
      "chip": "ym2612"
    },
    {
      "channel": 5,
      "note": 37,
      "start": 83.6661,
      "duration": 0.1469,
      "velocity": 98,
      "chip": "ym2612"
    },
    {
      "channel": 1,
      "note": 49,
      "start": 83.669,
      "duration": 0.1271,
      "velocity": 98,
      "chip": "ym2612"
    },
    {
      "channel": 4,
      "note": 61,
      "start": 83.6722,
      "duration": 0.0408,
      "velocity": 97,
      "chip": "ym2612"
    },
    {
      "channel": 3,
      "note": 73,
      "start": 83.6749,
      "duration": 0.0235,
      "velocity": 97,
      "chip": "ym2612"
    },
    {
      "channel": 0,
      "note": 79,
      "start": 83.8494,
      "duration": 0.0301,
      "velocity": 127,
      "chip": "ym2612"
    },
    {
      "channel": 5,
      "note": 49,
      "start": 83.8522,
      "duration": 0.1443,
      "velocity": 98,
      "chip": "ym2612"
    },
    {
      "channel": 1,
      "note": 61,
      "start": 83.8549,
      "duration": 0.1413,
      "velocity": 98,
      "chip": "ym2612"
    },
    {
      "channel": 4,
      "note": 68,
      "start": 83.8581,
      "duration": 0.0882,
      "velocity": 97,
      "chip": "ym2612"
    },
    {
      "channel": 2,
      "note": 73,
      "start": 83.8611,
      "duration": 0.0686,
      "velocity": 97,
      "chip": "ym2612"
    },
    {
      "channel": 3,
      "note": 80,
      "start": 83.8641,
      "duration": 0.0321,
      "velocity": 97,
      "chip": "ym2612"
    },
    {
      "channel": 0,
      "note": 91,
      "start": 84.0491,
      "duration": 0.0303,
      "velocity": 127,
      "chip": "ym2612"
    },
    {
      "channel": 5,
      "note": 37,
      "start": 84.0518,
      "duration": 0.0612,
      "velocity": 98,
      "chip": "ym2612"
    },
    {
      "channel": 1,
      "note": 49,
      "start": 84.0546,
      "duration": 0.0916,
      "velocity": 98,
      "chip": "ym2612"
    },
    {
      "channel": 3,
      "note": 73,
      "start": 84.0576,
      "duration": 0.0388,
      "velocity": 97,
      "chip": "ym2612"
    },
    {
      "channel": 2,
      "note": 33,
      "start": 84.2325,
      "duration": 0.0807,
      "velocity": 113,
      "chip": "ym2612"
    },
    {
      "channel": 5,
      "note": 37,
      "start": 84.2354,
      "duration": 0.0777,
      "velocity": 98,
      "chip": "ym2612"
    },
    {
      "channel": 1,
      "note": 59,
      "start": 84.2386,
      "duration": 0.141,
      "velocity": 98,
      "chip": "ym2612"
    },
    {
      "channel": 3,
      "note": 73,
      "start": 84.2415,
      "duration": 0.0381,
      "velocity": 97,
      "chip": "ym2612"
    },
    {
      "channel": 0,
      "note": 91,
      "start": 84.4324,
      "duration": 0.0303,
      "velocity": 127,
      "chip": "ym2612"
    },
    {
      "channel": 5,
      "note": 37,
      "start": 84.4352,
      "duration": 0.1445,
      "velocity": 98,
      "chip": "ym2612"
    },
    {
      "channel": 1,
      "note": 49,
      "start": 84.4382,
      "duration": 0.108,
      "velocity": 98,
      "chip": "ym2612"
    },
    {
      "channel": 4,
      "note": 73,
      "start": 84.4417,
      "duration": 0.088,
      "velocity": 97,
      "chip": "ym2612"
    },
    {
      "channel": 3,
      "note": 66,
      "start": 84.4446,
      "duration": 0.085,
      "velocity": 97,
      "chip": "ym2612"
    },
    {
      "channel": 2,
      "note": 78,
      "start": 84.4478,
      "duration": 0.0319,
      "velocity": 97,
      "chip": "ym2612"
    },
    {
      "channel": 0,
      "note": 79,
      "start": 84.6322,
      "duration": 0.0161,
      "velocity": 127,
      "chip": "ym2612"
    },
    {
      "channel": 5,
      "note": 49,
      "start": 84.6348,
      "duration": 0.1282,
      "velocity": 98,
      "chip": "ym2612"
    },
    {
      "channel": 2,
      "note": 73,
      "start": 84.6381,
      "duration": 0.025,
      "velocity": 97,
      "chip": "ym2612"
    },
    {
      "channel": 0,
      "note": 91,
      "start": 84.8158,
      "duration": 0.0303,
      "velocity": 127,
      "chip": "ym2612"
    },
    {
      "channel": 5,
      "note": 37,
      "start": 84.8188,
      "duration": 0.0609,
      "velocity": 98,
      "chip": "ym2612"
    },
    {
      "channel": 1,
      "note": 49,
      "start": 84.8217,
      "duration": 0.1245,
      "velocity": 98,
      "chip": "ym2612"
    },
    {
      "channel": 3,
      "note": 64,
      "start": 84.8248,
      "duration": 0.338,
      "velocity": 97,
      "chip": "ym2612"
    },
    {
      "channel": 4,
      "note": 73,
      "start": 84.8277,
      "duration": 0.3519,
      "velocity": 97,
      "chip": "ym2612"
    },
    {
      "channel": 2,
      "note": 73,
      "start": 84.8308,
      "duration": 0.0322,
      "velocity": 97,
      "chip": "ym2612"
    },
    {
      "channel": 0,
      "note": 33,
      "start": 85.0158,
      "duration": 0.0803,
      "velocity": 113,
      "chip": "ym2612"
    },
    {
      "channel": 5,
      "note": 37,
      "start": 85.0184,
      "duration": 0.0613,
      "velocity": 98,
      "chip": "ym2612"
    },
    {
      "channel": 2,
      "note": 76,
      "start": 85.0217,
      "duration": 0.0414,
      "velocity": 97,
      "chip": "ym2612"
    },
    {
      "channel": 1,
      "note": 91,
      "start": 85.1997,
      "duration": 0.0298,
      "velocity": 127,
      "chip": "ym2612"
    },
    {
      "channel": 5,
      "note": 37,
      "start": 85.2024,
      "duration": 0.1439,
      "velocity": 98,
      "chip": "ym2612"
    },
    {
      "channel": 2,
      "note": 49,
      "start": 85.2056,
      "duration": 0.1408,
      "velocity": 98,
      "chip": "ym2612"
    },
    {
      "channel": 3,
      "note": 61,
      "start": 85.2088,
      "duration": 0.1707,
      "velocity": 97,
      "chip": "ym2612"
    },
    {
      "channel": 0,
      "note": 75,
      "start": 85.2117,
      "duration": 0.0345,
      "velocity": 97,
      "chip": "ym2612"
    },
    {
      "channel": 1,
      "note": 79,
      "start": 85.399,
      "duration": 0.0304,
      "velocity": 127,
      "chip": "ym2612"
    },
    {
      "channel": 5,
      "note": 49,
      "start": 85.4018,
      "duration": 0.1613,
      "velocity": 98,
      "chip": "ym2612"
    },
    {
      "channel": 2,
      "note": 52,
      "start": 85.4047,
      "duration": 0.1416,
      "velocity": 98,
      "chip": "ym2612"
    },
    {
      "channel": 3,
      "note": 66,
      "start": 85.4078,
      "duration": 0.0884,
      "velocity": 97,
      "chip": "ym2612"
    },
    {
      "channel": 4,
      "note": 73,
      "start": 85.4111,
      "duration": 0.0685,
      "velocity": 97,
      "chip": "ym2612"
    },
    {
      "channel": 0,
      "note": 73,
      "start": 85.414,
      "duration": 0.0321,
      "velocity": 97,
      "chip": "ym2612"
    },
    {
      "channel": 1,
      "note": 91,
      "start": 85.5991,
      "duration": 0.0138,
      "velocity": 127,
      "chip": "ym2612"
    },
    {
      "channel": 5,
      "note": 37,
      "start": 85.6018,
      "duration": 0.1111,
      "velocity": 98,
      "chip": "ym2612"
    },
    {
      "channel": 2,
      "note": 49,
      "start": 85.6048,
      "duration": 0.1249,
      "velocity": 98,
      "chip": "ym2612"
    },
    {
      "channel": 0,
      "note": 76,
      "start": 85.6076,
      "duration": 0.0218,
      "velocity": 97,
      "chip": "ym2612"
    },
    {
      "channel": 4,
      "note": 33,
      "start": 85.7825,
      "duration": 0.0805,
      "velocity": 113,
      "chip": "ym2612"
    },
    {
      "channel": 5,
      "note": 40,
      "start": 85.7852,
      "duration": 0.1278,
      "velocity": 98,
      "chip": "ym2612"
    },
    {
      "channel": 2,
      "note": 56,
      "start": 85.7882,
      "duration": 0.1415,
      "velocity": 98,
      "chip": "ym2612"
    },
    {
      "channel": 3,
      "note": 64,
      "start": 85.7913,
      "duration": 0.0883,
      "velocity": 97,
      "chip": "ym2612"
    },
    {
      "channel": 1,
      "note": 73,
      "start": 85.7944,
      "duration": 0.0684,
      "velocity": 97,
      "chip": "ym2612"
    },
    {
      "channel": 0,
      "note": 75,
      "start": 85.7973,
      "duration": 0.0322,
      "velocity": 97,
      "chip": "ym2612"
    },
    {
      "channel": 0,
      "note": 91,
      "start": 85.9827,
      "duration": 0.03,
      "velocity": 127,
      "chip": "ym2612"
    },
    {
      "channel": 5,
      "note": 37,
      "start": 85.9854,
      "duration": 0.161,
      "velocity": 98,
      "chip": "ym2612"
    },
    {
      "channel": 2,
      "note": 55,
      "start": 85.9884,
      "duration": 0.1246,
      "velocity": 98,
      "chip": "ym2612"
    },
    {
      "channel": 1,
      "note": 73,
      "start": 85.9915,
      "duration": 0.0735,
      "velocity": 97,
      "chip": "ym2612"
    },
    {
      "channel": 3,
      "note": 66,
      "start": 85.9944,
      "duration": 0.0708,
      "velocity": 97,
      "chip": "ym2612"
    },
    {
      "channel": 4,
      "note": 73,
      "start": 85.9975,
      "duration": 0.0322,
      "velocity": 97,
      "chip": "ym2612"
    },
    {
      "channel": 0,
      "note": 79,
      "start": 86.1656,
      "duration": 0.0304,
      "velocity": 127,
      "chip": "ym2612"
    },
    {
      "channel": 5,
      "note": 42,
      "start": 86.1683,
      "duration": 0.0947,
      "velocity": 98,
      "chip": "ym2612"
    },
    {
      "channel": 2,
      "note": 54,
      "start": 86.1713,
      "duration": 0.1418,
      "velocity": 98,
      "chip": "ym2612"
    },
    {
      "channel": 4,
      "note": 71,
      "start": 86.1747,
      "duration": 0.0383,
      "velocity": 97,
      "chip": "ym2612"
    },
    {
      "channel": 0,
      "note": 79,
      "start": 86.3656,
      "duration": 0.0306,
      "velocity": 127,
      "chip": "ym2612"
    },
    {
      "channel": 5,
      "note": 40,
      "start": 86.3681,
      "duration": 0.0948,
      "velocity": 98,
      "chip": "ym2612"
    },
    {
      "channel": 2,
      "note": 52,
      "start": 86.3716,
      "duration": 0.1248,
      "velocity": 98,
      "chip": "ym2612"
    },
    {
      "channel": 4,
      "note": 73,
      "start": 86.3749,
      "duration": 0.038,
      "velocity": 97,
      "chip": "ym2612"
    },
    {
      "channel": 1,
      "note": 33,
      "start": 86.5526,
      "duration": 0.0769,
      "velocity": 113,
      "chip": "ym2612"
    },
    {
      "channel": 5,
      "note": 37,
      "start": 86.5569,
      "duration": 0.056,
      "velocity": 98,
      "chip": "ym2612"
    },
    {
      "channel": 2,
      "note": 49,
      "start": 86.5612,
      "duration": 0.0352,
      "velocity": 98,
      "chip": "ym2612"
    },
    {
      "channel": 0,
      "note": 91,
      "start": 86.749,
      "duration": 0.0305,
      "velocity": 127,
      "chip": "ym2612"
    },
    {
      "channel": 5,
      "note": 37,
      "start": 86.7518,
      "duration": 0.1613,
      "velocity": 98,
      "chip": "ym2612"
    },
    {
      "channel": 2,
      "note": 49,
      "start": 86.7548,
      "duration": 0.1415,
      "velocity": 98,
      "chip": "ym2612"
    },
    {
      "channel": 0,
      "note": 79,
      "start": 86.9489,
      "duration": 0.0306,
      "velocity": 127,
      "chip": "ym2612"
    },
    {
      "channel": 5,
      "note": 49,
      "start": 86.9515,
      "duration": 0.1449,
      "velocity": 98,
      "chip": "ym2612"
    },
    {
      "channel": 2,
      "note": 61,
      "start": 86.9544,
      "duration": 0.1253,
      "velocity": 98,
      "chip": "ym2612"
    },
    {
      "channel": 0,
      "note": 91,
      "start": 87.1324,
      "duration": 0.0303,
      "velocity": 127,
      "chip": "ym2612"
    },
    {
      "channel": 5,
      "note": 37,
      "start": 87.1352,
      "duration": 0.0612,
      "velocity": 98,
      "chip": "ym2612"
    },
    {
      "channel": 2,
      "note": 49,
      "start": 87.1382,
      "duration": 0.0914,
      "velocity": 98,
      "chip": "ym2612"
    },
    {
      "channel": 1,
      "note": 33,
      "start": 87.3322,
      "duration": 0.0806,
      "velocity": 113,
      "chip": "ym2612"
    },
    {
      "channel": 5,
      "note": 37,
      "start": 87.335,
      "duration": 0.0614,
      "velocity": 98,
      "chip": "ym2612"
    },
    {
      "channel": 2,
      "note": 59,
      "start": 87.3382,
      "duration": 0.1416,
      "velocity": 98,
      "chip": "ym2612"
    },
    {
      "channel": 0,
      "note": 91,
      "start": 87.5158,
      "duration": 0.0303,
      "velocity": 127,
      "chip": "ym2612"
    },
    {
      "channel": 5,
      "note": 37,
      "start": 87.5185,
      "duration": 0.0945,
      "velocity": 98,
      "chip": "ym2612"
    },
    {
      "channel": 0,
      "note": 79,
      "start": 87.7156,
      "duration": 0.0305,
      "velocity": 127,
      "chip": "ym2612"
    },
    {
      "channel": 5,
      "note": 49,
      "start": 87.7184,
      "duration": 0.1447,
      "velocity": 98,
      "chip": "ym2612"
    },
    {
      "channel": 0,
      "note": 91,
      "start": 87.9158,
      "duration": 0.0303,
      "velocity": 127,
      "chip": "ym2612"
    },
    {
      "channel": 5,
      "note": 37,
      "start": 87.9186,
      "duration": 0.0465,
      "velocity": 98,
      "chip": "ym2612"
    },
    {
      "channel": 2,
      "note": 49,
      "start": 87.9217,
      "duration": 0.0912,
      "velocity": 98,
      "chip": "ym2612"
    },
    {
      "channel": 1,
      "note": 33,
      "start": 88.0988,
      "duration": 0.0807,
      "velocity": 113,
      "chip": "ym2612"
    },
    {
      "channel": 5,
      "note": 37,
      "start": 88.1015,
      "duration": 0.0615,
      "velocity": 98,
      "chip": "ym2612"
    },
    {
      "channel": 0,
      "note": 91,
      "start": 88.2991,
      "duration": 0.0304,
      "velocity": 127,
      "chip": "ym2612"
    },
    {
      "channel": 5,
      "note": 37,
      "start": 88.3018,
      "duration": 0.1467,
      "velocity": 98,
      "chip": "ym2612"
    },
    {
      "channel": 2,
      "note": 49,
      "start": 88.3051,
      "duration": 0.1079,
      "velocity": 98,
      "chip": "ym2612"
    },
    {
      "channel": 0,
      "note": 79,
      "start": 88.4823,
      "duration": 0.0305,
      "velocity": 127,
      "chip": "ym2612"
    },
    {
      "channel": 5,
      "note": 49,
      "start": 88.4854,
      "duration": 0.1776,
      "velocity": 98,
      "chip": "ym2612"
    },
    {
      "channel": 0,
      "note": 91,
      "start": 88.6828,
      "duration": 0.03,
      "velocity": 127,
      "chip": "ym2612"
    },
    {
      "channel": 5,
      "note": 37,
      "start": 88.6855,
      "duration": 0.1108,
      "velocity": 98,
      "chip": "ym2612"
    },
    {
      "channel": 2,
      "note": 49,
      "start": 88.6887,
      "duration": 0.141,
      "velocity": 98,
      "chip": "ym2612"
    },
    {
      "channel": 1,
      "note": 33,
      "start": 88.8823,
      "duration": 0.0639,
      "velocity": 113,
      "chip": "ym2612"
    },
    {
      "channel": 5,
      "note": 40,
      "start": 88.8851,
      "duration": 0.1445,
      "velocity": 98,
      "chip": "ym2612"
    },
    {
      "channel": 2,
      "note": 52,
      "start": 88.8882,
      "duration": 0.0915,
      "velocity": 98,
      "chip": "ym2612"
    },
    {
      "channel": 0,
      "note": 91,
      "start": 89.0658,
      "duration": 0.0303,
      "velocity": 127,
      "chip": "ym2612"
    },
    {
      "channel": 5,
      "note": 37,
      "start": 89.0685,
      "duration": 0.1445,
      "velocity": 98,
      "chip": "ym2612"
    },
    {
      "channel": 2,
      "note": 49,
      "start": 89.0716,
      "duration": 0.1416,
      "velocity": 98,
      "chip": "ym2612"
    },
    {
      "channel": 0,
      "note": 79,
      "start": 89.2656,
      "duration": 0.0305,
      "velocity": 127,
      "chip": "ym2612"
    },
    {
      "channel": 5,
      "note": 42,
      "start": 89.2682,
      "duration": 0.1303,
      "velocity": 98,
      "chip": "ym2612"
    },
    {
      "channel": 2,
      "note": 54,
      "start": 89.2711,
      "duration": 0.1275,
      "velocity": 98,
      "chip": "ym2612"
    },
    {
      "channel": 0,
      "note": 91,
      "start": 89.4491,
      "duration": 0.0304,
      "velocity": 127,
      "chip": "ym2612"
    },
    {
      "channel": 5,
      "note": 40,
      "start": 89.4518,
      "duration": 0.0778,
      "velocity": 98,
      "chip": "ym2612"
    },
    {
      "channel": 2,
      "note": 52,
      "start": 89.4549,
      "duration": 0.0915,
      "velocity": 98,
      "chip": "ym2612"
    },
    {
      "channel": 1,
      "note": 33,
      "start": 89.649,
      "duration": 0.0806,
      "velocity": 113,
      "chip": "ym2612"
    },
    {
      "channel": 5,
      "note": 37,
      "start": 89.6517,
      "duration": 0.078,
      "velocity": 98,
      "chip": "ym2612"
    },
    {
      "channel": 2,
      "note": 49,
      "start": 89.6546,
      "duration": 0.0918,
      "velocity": 98,
      "chip": "ym2612"
    },
    {
      "channel": 1,
      "note": 33,
      "start": 89.849,
      "duration": 0.0637,
      "velocity": 113,
      "chip": "ym2612"
    },
    {
      "channel": 5,
      "note": 37,
      "start": 89.8519,
      "duration": 0.1444,
      "velocity": 98,
      "chip": "ym2612"
    },
    {
      "channel": 2,
      "note": 49,
      "start": 89.8549,
      "duration": 0.1248,
      "velocity": 98,
      "chip": "ym2612"
    },
    {
      "channel": 0,
      "note": 79,
      "start": 90.0324,
      "duration": 0.0304,
      "velocity": 127,
      "chip": "ym2612"
    },
    {
      "channel": 5,
      "note": 49,
      "start": 90.035,
      "duration": 0.1613,
      "velocity": 98,
      "chip": "ym2612"
    },
    {
      "channel": 2,
      "note": 61,
      "start": 90.038,
      "duration": 0.1417,
      "velocity": 98,
      "chip": "ym2612"
    },
    {
      "channel": 0,
      "note": 91,
      "start": 90.2324,
      "duration": 0.0305,
      "velocity": 127,
      "chip": "ym2612"
    },
    {
      "channel": 5,
      "note": 37,
      "start": 90.2355,
      "duration": 0.0775,
      "velocity": 98,
      "chip": "ym2612"
    },
    {
      "channel": 2,
      "note": 49,
      "start": 90.2389,
      "duration": 0.0929,
      "velocity": 98,
      "chip": "ym2612"
    },
    {
      "channel": 1,
      "note": 33,
      "start": 90.4157,
      "duration": 0.0804,
      "velocity": 113,
      "chip": "ym2612"
    },
    {
      "channel": 5,
      "note": 37,
      "start": 90.4186,
      "duration": 0.0611,
      "velocity": 98,
      "chip": "ym2612"
    },
    {
      "channel": 2,
      "note": 59,
      "start": 90.4217,
      "duration": 0.1413,
      "velocity": 98,
      "chip": "ym2612"
    },
    {
      "channel": 0,
      "note": 91,
      "start": 90.6158,
      "duration": 0.0304,
      "velocity": 127,
      "chip": "ym2612"
    },
    {
      "channel": 5,
      "note": 37,
      "start": 90.6185,
      "duration": 0.1445,
      "velocity": 98,
      "chip": "ym2612"
    },
    {
      "channel": 0,
      "note": 79,
      "start": 90.8156,
      "duration": 0.0138,
      "velocity": 127,
      "chip": "ym2612"
    },
    {
      "channel": 5,
      "note": 49,
      "start": 90.8184,
      "duration": 0.1113,
      "velocity": 98,
      "chip": "ym2612"
    },
    {
      "channel": 0,
      "note": 91,
      "start": 90.999,
      "duration": 0.0305,
      "velocity": 127,
      "chip": "ym2612"
    },
    {
      "channel": 5,
      "note": 37,
      "start": 91.0018,
      "duration": 0.0779,
      "velocity": 98,
      "chip": "ym2612"
    },
    {
      "channel": 2,
      "note": 49,
      "start": 91.005,
      "duration": 0.1247,
      "velocity": 98,
      "chip": "ym2612"
    },
    {
      "channel": 1,
      "note": 33,
      "start": 91.1989,
      "duration": 0.0806,
      "velocity": 113,
      "chip": "ym2612"
    },
    {
      "channel": 5,
      "note": 37,
      "start": 91.2017,
      "duration": 0.0613,
      "velocity": 98,
      "chip": "ym2612"
    },
    {
      "channel": 0,
      "note": 91,
      "start": 91.3827,
      "duration": 0.03,
      "velocity": 127,
      "chip": "ym2612"
    },
    {
      "channel": 5,
      "note": 37,
      "start": 91.3854,
      "duration": 0.1609,
      "velocity": 98,
      "chip": "ym2612"
    },
    {
      "channel": 2,
      "note": 49,
      "start": 91.3884,
      "duration": 0.1247,
      "velocity": 98,
      "chip": "ym2612"
    },
    {
      "channel": 0,
      "note": 79,
      "start": 91.5823,
      "duration": 0.0305,
      "velocity": 127,
      "chip": "ym2612"
    },
    {
      "channel": 5,
      "note": 49,
      "start": 91.5849,
      "duration": 0.1615,
      "velocity": 98,
      "chip": "ym2612"
    },
    {
      "channel": 0,
      "note": 91,
      "start": 91.7679,
      "duration": 0.0282,
      "velocity": 127,
      "chip": "ym2612"
    },
    {
      "channel": 5,
      "note": 37,
      "start": 91.7705,
      "duration": 0.1591,
      "velocity": 98,
      "chip": "ym2612"
    },
    {
      "channel": 2,
      "note": 49,
      "start": 91.7737,
      "duration": 0.1393,
      "velocity": 98,
      "chip": "ym2612"
    },
    {
      "channel": 1,
      "note": 33,
      "start": 91.9655,
      "duration": 0.0807,
      "velocity": 113,
      "chip": "ym2612"
    },
    {
      "channel": 5,
      "note": 40,
      "start": 91.9687,
      "duration": 0.1444,
      "velocity": 98,
      "chip": "ym2612"
    },
    {
      "channel": 2,
      "note": 52,
      "start": 91.9718,
      "duration": 0.1245,
      "velocity": 98,
      "chip": "ym2612"
    },
    {
      "channel": 0,
      "note": 91,
      "start": 92.1658,
      "duration": 0.0303,
      "velocity": 127,
      "chip": "ym2612"
    },
    {
      "channel": 5,
      "note": 37,
      "start": 92.1685,
      "duration": 0.1445,
      "velocity": 98,
      "chip": "ym2612"
    },
    {
      "channel": 2,
      "note": 49,
      "start": 92.1716,
      "duration": 0.1247,
      "velocity": 98,
      "chip": "ym2612"
    },
    {
      "channel": 0,
      "note": 79,
      "start": 92.349,
      "duration": 0.0305,
      "velocity": 127,
      "chip": "ym2612"
    },
    {
      "channel": 5,
      "note": 42,
      "start": 92.3516,
      "duration": 0.1615,
      "velocity": 98,
      "chip": "ym2612"
    },
    {
      "channel": 2,
      "note": 54,
      "start": 92.355,
      "duration": 0.1247,
      "velocity": 98,
      "chip": "ym2612"
    },
    {
      "channel": 0,
      "note": 79,
      "start": 92.5489,
      "duration": 0.0305,
      "velocity": 127,
      "chip": "ym2612"
    },
    {
      "channel": 5,
      "note": 40,
      "start": 92.5516,
      "duration": 0.0948,
      "velocity": 98,
      "chip": "ym2612"
    },
    {
      "channel": 2,
      "note": 52,
      "start": 92.5547,
      "duration": 0.1083,
      "velocity": 98,
      "chip": "ym2612"
    },
    {
      "channel": 1,
      "note": 33,
      "start": 92.7326,
      "duration": 0.0803,
      "velocity": 113,
      "chip": "ym2612"
    },
    {
      "channel": 5,
      "note": 37,
      "start": 92.7364,
      "duration": 0.0766,
      "velocity": 98,
      "chip": "ym2612"
    },
    {
      "channel": 2,
      "note": 49,
      "start": 92.7395,
      "duration": 0.0902,
      "velocity": 98,
      "chip": "ym2612"
    },
    {
      "channel": 0,
      "note": 91,
      "start": 92.9324,
      "duration": 0.0305,
      "velocity": 127,
      "chip": "ym2612"
    },
    {
      "channel": 5,
      "note": 37,
      "start": 92.9351,
      "duration": 0.1445,
      "velocity": 98,
      "chip": "ym2612"
    },
    {
      "channel": 2,
      "note": 49,
      "start": 92.9382,
      "duration": 0.1416,
      "velocity": 98,
      "chip": "ym2612"
    },
    {
      "channel": 0,
      "note": 79,
      "start": 93.1323,
      "duration": 0.0305,
      "velocity": 127,
      "chip": "ym2612"
    },
    {
      "channel": 5,
      "note": 49,
      "start": 93.135,
      "duration": 0.1112,
      "velocity": 98,
      "chip": "ym2612"
    },
    {
      "channel": 2,
      "note": 61,
      "start": 93.138,
      "duration": 0.1251,
      "velocity": 98,
      "chip": "ym2612"
    },
    {
      "channel": 0,
      "note": 91,
      "start": 93.3158,
      "duration": 0.0303,
      "velocity": 127,
      "chip": "ym2612"
    },
    {
      "channel": 5,
      "note": 37,
      "start": 93.3185,
      "duration": 0.0612,
      "velocity": 98,
      "chip": "ym2612"
    },
    {
      "channel": 2,
      "note": 49,
      "start": 93.3214,
      "duration": 0.1417,
      "velocity": 98,
      "chip": "ym2612"
    },
    {
      "channel": 1,
      "note": 33,
      "start": 93.5156,
      "duration": 0.0806,
      "velocity": 113,
      "chip": "ym2612"
    },
    {
      "channel": 5,
      "note": 37,
      "start": 93.5184,
      "duration": 0.078,
      "velocity": 98,
      "chip": "ym2612"
    },
    {
      "channel": 2,
      "note": 59,
      "start": 93.5214,
      "duration": 0.1416,
      "velocity": 98,
      "chip": "ym2612"
    },
    {
      "channel": 0,
      "note": 91,
      "start": 93.699,
      "duration": 0.0304,
      "velocity": 127,
      "chip": "ym2612"
    },
    {
      "channel": 5,
      "note": 37,
      "start": 93.7022,
      "duration": 0.0942,
      "velocity": 98,
      "chip": "ym2612"
    },
    {
      "channel": 2,
      "note": 49,
      "start": 93.7053,
      "duration": 0.1076,
      "velocity": 98,
      "chip": "ym2612"
    },
    {
      "channel": 0,
      "note": 79,
      "start": 93.899,
      "duration": 0.0305,
      "velocity": 127,
      "chip": "ym2612"
    },
    {
      "channel": 5,
      "note": 47,
      "start": 93.9017,
      "duration": 0.1613,
      "velocity": 98,
      "chip": "ym2612"
    },
    {
      "channel": 0,
      "note": 91,
      "start": 94.0991,
      "duration": 0.0303,
      "velocity": 127,
      "chip": "ym2612"
    },
    {
      "channel": 5,
      "note": 37,
      "start": 94.1018,
      "duration": 0.0444,
      "velocity": 98,
      "chip": "ym2612"
    },
    {
      "channel": 2,
      "note": 49,
      "start": 94.1049,
      "duration": 0.1081,
      "velocity": 98,
      "chip": "ym2612"
    },
    {
      "channel": 1,
      "note": 33,
      "start": 94.2823,
      "duration": 0.0805,
      "velocity": 113,
      "chip": "ym2612"
    },
    {
      "channel": 5,
      "note": 37,
      "start": 94.285,
      "duration": 0.0613,
      "velocity": 98,
      "chip": "ym2612"
    },
    {
      "channel": 1,
      "note": 33,
      "start": 94.4823,
      "duration": 0.0806,
      "velocity": 113,
      "chip": "ym2612"
    },
    {
      "channel": 0,
      "note": 91,
      "start": 94.4849,
      "duration": 0.0279,
      "velocity": 127,
      "chip": "ym2612"
    },
    {
      "channel": 5,
      "note": 37,
      "start": 94.4875,
      "duration": 0.142,
      "velocity": 98,
      "chip": "ym2612"
    },
    {
      "channel": 2,
      "note": 49,
      "start": 94.491,
      "duration": 0.1221,
      "velocity": 98,
      "chip": "ym2612"
    },
    {
      "channel": 0,
      "note": 79,
      "start": 94.6656,
      "duration": 0.0305,
      "velocity": 127,
      "chip": "ym2612"
    },
    {
      "channel": 5,
      "note": 37,
      "start": 94.6683,
      "duration": 0.0447,
      "velocity": 98,
      "chip": "ym2612"
    },
    {
      "channel": 0,
      "note": 91,
      "start": 94.8661,
      "duration": 0.03,
      "velocity": 127,
      "chip": "ym2612"
    },
    {
      "channel": 5,
      "note": 37,
      "start": 94.8688,
      "duration": 0.1441,
      "velocity": 98,
      "chip": "ym2612"
    },
    {
      "channel": 2,
      "note": 49,
      "start": 94.8719,
      "duration": 0.1412,
      "velocity": 98,
      "chip": "ym2612"
    },
    {
      "channel": 1,
      "note": 33,
      "start": 95.0658,
      "duration": 0.0638,
      "velocity": 113,
      "chip": "ym2612"
    },
    {
      "channel": 5,
      "note": 40,
      "start": 95.0684,
      "duration": 0.1279,
      "velocity": 98,
      "chip": "ym2612"
    },
    {
      "channel": 2,
      "note": 52,
      "start": 95.0714,
      "duration": 0.1251,
      "velocity": 98,
      "chip": "ym2612"
    },
    {
      "channel": 0,
      "note": 91,
      "start": 95.2492,
      "duration": 0.0303,
      "velocity": 127,
      "chip": "ym2612"
    },
    {
      "channel": 5,
      "note": 37,
      "start": 95.2519,
      "duration": 0.1777,
      "velocity": 98,
      "chip": "ym2612"
    },
    {
      "channel": 2,
      "note": 49,
      "start": 95.2548,
      "duration": 0.1415,
      "velocity": 98,
      "chip": "ym2612"
    },
    {
      "channel": 0,
      "note": 79,
      "start": 95.449,
      "duration": 0.0305,
      "velocity": 127,
      "chip": "ym2612"
    },
    {
      "channel": 5,
      "note": 42,
      "start": 95.452,
      "duration": 0.1277,
      "velocity": 98,
      "chip": "ym2612"
    },
    {
      "channel": 2,
      "note": 54,
      "start": 95.4551,
      "duration": 0.0934,
      "velocity": 98,
      "chip": "ym2612"
    },
    {
      "channel": 0,
      "note": 91,
      "start": 95.6325,
      "duration": 0.0303,
      "velocity": 127,
      "chip": "ym2612"
    },
    {
      "channel": 5,
      "note": 40,
      "start": 95.6352,
      "duration": 0.1111,
      "velocity": 98,
      "chip": "ym2612"
    },
    {
      "channel": 2,
      "note": 52,
      "start": 95.6383,
      "duration": 0.0914,
      "velocity": 98,
      "chip": "ym2612"
    },
    {
      "channel": 1,
      "note": 33,
      "start": 95.8322,
      "duration": 0.0806,
      "velocity": 113,
      "chip": "ym2612"
    },
    {
      "channel": 5,
      "note": 37,
      "start": 95.8351,
      "duration": 0.0613,
      "velocity": 98,
      "chip": "ym2612"
    },
    {
      "channel": 2,
      "note": 49,
      "start": 95.8382,
      "duration": 0.1082,
      "velocity": 98,
      "chip": "ym2612"
    },
    {
      "channel": 5,
      "note": 37,
      "start": 96.0327,
      "duration": 0.1637,
      "velocity": 98,
      "chip": "ym2612"
    },
    {
      "channel": 2,
      "note": 49,
      "start": 96.0358,
      "duration": 0.1272,
      "velocity": 98,
      "chip": "ym2612"
    },
    {
      "channel": 0,
      "note": 79,
      "start": 96.2157,
      "duration": 0.0305,
      "velocity": 127,
      "chip": "ym2612"
    },
    {
      "channel": 5,
      "note": 49,
      "start": 96.2184,
      "duration": 0.1613,
      "velocity": 98,
      "chip": "ym2612"
    },
    {
      "channel": 2,
      "note": 61,
      "start": 96.2214,
      "duration": 0.1416,
      "velocity": 98,
      "chip": "ym2612"
    },
    {
      "channel": 0,
      "note": 91,
      "start": 96.4157,
      "duration": 0.0305,
      "velocity": 127,
      "chip": "ym2612"
    },
    {
      "channel": 5,
      "note": 37,
      "start": 96.4184,
      "duration": 0.0611,
      "velocity": 98,
      "chip": "ym2612"
    },
    {
      "channel": 2,
      "note": 49,
      "start": 96.4215,
      "duration": 0.077,
      "velocity": 98,
      "chip": "ym2612"
    },
    {
      "channel": 1,
      "note": 33,
      "start": 96.5989,
      "duration": 0.0807,
      "velocity": 113,
      "chip": "ym2612"
    },
    {
      "channel": 5,
      "note": 37,
      "start": 96.6017,
      "duration": 0.0279,
      "velocity": 98,
      "chip": "ym2612"
    },
    {
      "channel": 2,
      "note": 59,
      "start": 96.6052,
      "duration": 0.1411,
      "velocity": 98,
      "chip": "ym2612"
    },
    {
      "channel": 0,
      "note": 91,
      "start": 96.799,
      "duration": 0.0305,
      "velocity": 127,
      "chip": "ym2612"
    },
    {
      "channel": 5,
      "note": 37,
      "start": 96.8018,
      "duration": 0.1779,
      "velocity": 98,
      "chip": "ym2612"
    },
    {
      "channel": 2,
      "note": 49,
      "start": 96.8049,
      "duration": 0.108,
      "velocity": 98,
      "chip": "ym2612"
    },
    {
      "channel": 0,
      "note": 79,
      "start": 96.9845,
      "duration": 0.0284,
      "velocity": 127,
      "chip": "ym2612"
    },
    {
      "channel": 5,
      "note": 49,
      "start": 96.9876,
      "duration": 0.1421,
      "velocity": 98,
      "chip": "ym2612"
    },
    {
      "channel": 0,
      "note": 91,
      "start": 97.1825,
      "duration": 0.0303,
      "velocity": 127,
      "chip": "ym2612"
    },
    {
      "channel": 5,
      "note": 37,
      "start": 97.1852,
      "duration": 0.0612,
      "velocity": 98,
      "chip": "ym2612"
    },
    {
      "channel": 2,
      "note": 49,
      "start": 97.1883,
      "duration": 0.1247,
      "velocity": 98,
      "chip": "ym2612"
    },
    {
      "channel": 1,
      "note": 33,
      "start": 97.3822,
      "duration": 0.0662,
      "velocity": 113,
      "chip": "ym2612"
    },
    {
      "channel": 5,
      "note": 37,
      "start": 97.3849,
      "duration": 0.0615,
      "velocity": 98,
      "chip": "ym2612"
    },
    {
      "channel": 0,
      "note": 91,
      "start": 97.5661,
      "duration": 0.03,
      "velocity": 127,
      "chip": "ym2612"
    },
    {
      "channel": 5,
      "note": 37,
      "start": 97.5689,
      "duration": 0.1775,
      "velocity": 98,
      "chip": "ym2612"
    },
    {
      "channel": 2,
      "note": 49,
      "start": 97.5721,
      "duration": 0.1409,
      "velocity": 98,
      "chip": "ym2612"
    },
    {
      "channel": 0,
      "note": 79,
      "start": 97.7656,
      "duration": 0.0305,
      "velocity": 127,
      "chip": "ym2612"
    },
    {
      "channel": 5,
      "note": 40,
      "start": 97.7683,
      "duration": 0.1448,
      "velocity": 98,
      "chip": "ym2612"
    },
    {
      "channel": 2,
      "note": 52,
      "start": 97.7712,
      "duration": 0.1419,
      "velocity": 98,
      "chip": "ym2612"
    },
    {
      "channel": 0,
      "note": 91,
      "start": 97.949,
      "duration": 0.0305,
      "velocity": 127,
      "chip": "ym2612"
    },
    {
      "channel": 5,
      "note": 37,
      "start": 97.9518,
      "duration": 0.1779,
      "velocity": 98,
      "chip": "ym2612"
    },
    {
      "channel": 2,
      "note": 49,
      "start": 97.9547,
      "duration": 0.1416,
      "velocity": 98,
      "chip": "ym2612"
    },
    {
      "channel": 1,
      "note": 33,
      "start": 98.1488,
      "duration": 0.0807,
      "velocity": 113,
      "chip": "ym2612"
    },
    {
      "channel": 5,
      "note": 44,
      "start": 98.1517,
      "duration": 0.1447,
      "velocity": 98,
      "chip": "ym2612"
    },
    {
      "channel": 2,
      "note": 56,
      "start": 98.1546,
      "duration": 0.1419,
      "velocity": 98,
      "chip": "ym2612"
    },
    {
      "channel": 0,
      "note": 91,
      "start": 98.3491,
      "duration": 0.0303,
      "velocity": 127,
      "chip": "ym2612"
    },
    {
      "channel": 5,
      "note": 43,
      "start": 98.3518,
      "duration": 0.1445,
      "velocity": 98,
      "chip": "ym2612"
    },
    {
      "channel": 2,
      "note": 55,
      "start": 98.3548,
      "duration": 0.125,
      "velocity": 98,
      "chip": "ym2612"
    },
    {
      "channel": 0,
      "note": 79,
      "start": 98.5323,
      "duration": 0.0305,
      "velocity": 127,
      "chip": "ym2612"
    },
    {
      "channel": 5,
      "note": 42,
      "start": 98.5354,
      "duration": 0.1442,
      "velocity": 98,
      "chip": "ym2612"
    },
    {
      "channel": 2,
      "note": 54,
      "start": 98.5383,
      "duration": 0.1414,
      "velocity": 98,
      "chip": "ym2612"
    },
    {
      "channel": 0,
      "note": 79,
      "start": 98.7324,
      "duration": 0.0304,
      "velocity": 127,
      "chip": "ym2612"
    },
    {
      "channel": 5,
      "note": 40,
      "start": 98.735,
      "duration": 0.1613,
      "velocity": 98,
      "chip": "ym2612"
    },
    {
      "channel": 2,
      "note": 52,
      "start": 98.7385,
      "duration": 0.1245,
      "velocity": 98,
      "chip": "ym2612"
    }
  ]
}