{
  "track_name": "07 - Boss Theme",
  "duration_sec": 37.835,
  "sample_rate": 44100,
  "note_count": 1195,
  "unique_pitches": 39,
  "pitch_range": 60,
  "avg_note_duration": 0.1444,
  "reconstruction_stats": {
    "notes_reconstructed": 1195,
    "keyon_events": 1195,
    "keyoff_events": 1192,
    "orphan_keyons": 3,
    "unique_pitches": 39,
    "pitch_range": 60,
    "avg_duration_sec": 0.1444
  },
  "metadata": {
    "source": "G\\Ghostbusters\\07 - Boss Theme.vgz"
  },
  "notes": [
    {
      "channel": 0,
      "note": 54,
      "start": 0.0,
      "duration": 0.0945,
      "velocity": 91,
      "chip": "ym2612"
    },
    {
      "channel": 1,
      "note": 52,
      "start": 0.0026,
      "duration": 0.0927,
      "velocity": 87,
      "chip": "ym2612"
    },
    {
      "channel": 3,
      "note": 76,
      "start": 0.0061,
      "duration": 0.09,
      "velocity": 96,
      "chip": "ym2612"
    },
    {
      "channel": 4,
      "note": 66,
      "start": 0.0097,
      "duration": 0.0868,
      "velocity": 96,
      "chip": "ym2612"
    },
    {
      "channel": 5,
      "note": 81,
      "start": 0.0134,
      "duration": 0.0837,
      "velocity": 96,
      "chip": "ym2612"
    },
    {
      "channel": 2,
      "note": 26,
      "start": 0.0151,
      "duration": 0.0457,
      "velocity": 120,
      "chip": "ym2612"
    },
    {
      "channel": 0,
      "note": 56,
      "start": 0.0951,
      "duration": 0.0968,
      "velocity": 91,
      "chip": "ym2612"
    },
    {
      "channel": 1,
      "note": 54,
      "start": 0.096,
      "duration": 0.0968,
      "velocity": 87,
      "chip": "ym2612"
    },
    {
      "channel": 2,
      "note": 26,
      "start": 0.0991,
      "duration": 0.0588,
      "velocity": 120,
      "chip": "ym2612"
    },
    {
      "channel": 0,
      "note": 57,
      "start": 0.1927,
      "duration": 0.0968,
      "velocity": 91,
      "chip": "ym2612"
    },
    {
      "channel": 3,
      "note": 76,
      "start": 0.194,
      "duration": 0.0971,
      "velocity": 96,
      "chip": "ym2612"
    },
    {
      "channel": 4,
      "note": 66,
      "start": 0.1948,
      "duration": 0.0971,
      "velocity": 96,
      "chip": "ym2612"
    },
    {
      "channel": 5,
      "note": 81,
      "start": 0.1956,
      "duration": 0.097,
      "velocity": 96,
      "chip": "ym2612"
    },
    {
      "channel": 2,
      "note": 26,
      "start": 0.1973,
      "duration": 0.0584,
      "velocity": 120,
      "chip": "ym2612"
    },
    {
      "channel": 0,
      "note": 59,
      "start": 0.2901,
      "duration": 0.0968,
      "velocity": 91,
      "chip": "ym2612"
    },
    {
      "channel": 1,
      "note": 60,
      "start": 0.291,
      "duration": 0.0968,
      "velocity": 87,
      "chip": "ym2612"
    },
    {
      "channel": 3,
      "note": 76,
      "start": 0.2917,
      "duration": 0.0969,
      "velocity": 96,
      "chip": "ym2612"
    },
    {
      "channel": 4,
      "note": 66,
      "start": 0.2925,
      "duration": 0.0965,
      "velocity": 96,
      "chip": "ym2612"
    },
    {
      "channel": 5,
      "note": 81,
      "start": 0.2934,
      "duration": 0.0962,
      "velocity": 96,
      "chip": "ym2612"
    },
    {
      "channel": 2,
      "note": 26,
      "start": 0.2951,
      "duration": 0.0583,
      "velocity": 120,
      "chip": "ym2612"
    },
    {
      "channel": 0,
      "note": 57,
      "start": 0.3876,
      "duration": 0.1943,
      "velocity": 91,
      "chip": "ym2612"
    },
    {
      "channel": 1,
      "note": 59,
      "start": 0.3884,
      "duration": 0.1944,
      "velocity": 87,
      "chip": "ym2612"
    },
    {
      "channel": 2,
      "note": 56,
      "start": 0.3917,
      "duration": 0.0915,
      "velocity": 112,
      "chip": "ym2612"
    },
    {
      "channel": 0,
      "note": 59,
      "start": 0.5826,
      "duration": 0.1918,
      "velocity": 91,
      "chip": "ym2612"
    },
    {
      "channel": 1,
      "note": 58,
      "start": 0.5834,
      "duration": 0.0964,
      "velocity": 87,
      "chip": "ym2612"
    },
    {
      "channel": 3,
      "note": 76,
      "start": 0.5843,
      "duration": 0.0964,
      "velocity": 96,
      "chip": "ym2612"
    },
    {
      "channel": 4,
      "note": 66,
      "start": 0.5851,
      "duration": 0.0964,
      "velocity": 96,
      "chip": "ym2612"
    },
    {
      "channel": 5,
      "note": 81,
      "start": 0.5859,
      "duration": 0.0964,
      "velocity": 96,
      "chip": "ym2612"
    },
    {
      "channel": 2,
      "note": 26,
      "start": 0.5876,
      "duration": 0.0583,
      "velocity": 120,
      "chip": "ym2612"
    },
    {
      "channel": 1,
      "note": 57,
      "start": 0.6805,
      "duration": 0.2923,
      "velocity": 87,
      "chip": "ym2612"
    },
    {
      "channel": 3,
      "note": 76,
      "start": 0.6813,
      "duration": 0.0942,
      "velocity": 96,
      "chip": "ym2612"
    },
    {
      "channel": 4,
      "note": 66,
      "start": 0.6822,
      "duration": 0.0942,
      "velocity": 96,
      "chip": "ym2612"
    },
    {
      "channel": 5,
      "note": 81,
      "start": 0.683,
      "duration": 0.0942,
      "velocity": 96,
      "chip": "ym2612"
    },
    {
      "channel": 2,
      "note": 26,
      "start": 0.6846,
      "duration": 0.0587,
      "velocity": 120,
      "chip": "ym2612"
    },
    {
      "channel": 0,
      "note": 61,
      "start": 0.775,
      "duration": 0.0968,
      "velocity": 91,
      "chip": "ym2612"
    },
    {
      "channel": 3,
      "note": 76,
      "start": 0.7762,
      "duration": 0.0964,
      "velocity": 96,
      "chip": "ym2612"
    },
    {
      "channel": 4,
      "note": 66,
      "start": 0.777,
      "duration": 0.0964,
      "velocity": 96,
      "chip": "ym2612"
    },
    {
      "channel": 5,
      "note": 81,
      "start": 0.7779,
      "duration": 0.0963,
      "velocity": 96,
      "chip": "ym2612"
    },
    {
      "channel": 3,
      "note": 76,
      "start": 0.8733,
      "duration": 0.5847,
      "velocity": 96,
      "chip": "ym2612"
    },
    {
      "channel": 4,
      "note": 66,
      "start": 0.8741,
      "duration": 0.5847,
      "velocity": 96,
      "chip": "ym2612"
    },
    {
      "channel": 5,
      "note": 81,
      "start": 0.8749,
      "duration": 0.5847,
      "velocity": 96,
      "chip": "ym2612"
    },
    {
      "channel": 0,
      "note": 64,
      "start": 0.9727,
      "duration": 0.3894,
      "velocity": 91,
      "chip": "ym2612"
    },
    {
      "channel": 1,
      "note": 56,
      "start": 0.9734,
      "duration": 0.0964,
      "velocity": 87,
      "chip": "ym2612"
    },
    {
      "channel": 2,
      "note": 26,
      "start": 0.9762,
      "duration": 0.0597,
      "velocity": 120,
      "chip": "ym2612"
    },
    {
      "channel": 2,
      "note": 26,
      "start": 1.0728,
      "duration": 0.0605,
      "velocity": 120,
      "chip": "ym2612"
    },
    {
      "channel": 2,
      "note": 56,
      "start": 1.1707,
      "duration": 0.0936,
      "velocity": 112,
      "chip": "ym2612"
    },
    {
      "channel": 1,
      "note": 54,
      "start": 1.2629,
      "duration": 0.1,
      "velocity": 87,
      "chip": "ym2612"
    },
    {
      "channel": 0,
      "note": 71,
      "start": 1.3628,
      "duration": 0.0942,
      "velocity": 91,
      "chip": "ym2612"
    },
    {
      "channel": 1,
      "note": 54,
      "start": 1.3636,
      "duration": 0.0939,
      "velocity": 87,
      "chip": "ym2612"
    },
    {
      "channel": 2,
      "note": 26,
      "start": 1.3663,
      "duration": 0.0597,
      "velocity": 120,
      "chip": "ym2612"
    },
    {
      "channel": 3,
      "note": 76,
      "start": 1.4586,
      "duration": 0.1003,
      "velocity": 96,
      "chip": "ym2612"
    },
    {
      "channel": 4,
      "note": 66,
      "start": 1.4595,
      "duration": 0.1003,
      "velocity": 96,
      "chip": "ym2612"
    },
    {
      "channel": 5,
      "note": 81,
      "start": 1.4603,
      "duration": 0.1003,
      "velocity": 96,
      "chip": "ym2612"
    },
    {
      "channel": 0,
      "note": 61,
      "start": 1.558,
      "duration": 0.0966,
      "velocity": 91,
      "chip": "ym2612"
    },
    {
      "channel": 1,
      "note": 50,
      "start": 1.5588,
      "duration": 0.0967,
      "velocity": 87,
      "chip": "ym2612"
    },
    {
      "channel": 3,
      "note": 78,
      "start": 1.5596,
      "duration": 0.0963,
      "velocity": 96,
      "chip": "ym2612"
    },
    {
      "channel": 4,
      "note": 63,
      "start": 1.5605,
      "duration": 0.0959,
      "velocity": 96,
      "chip": "ym2612"
    },
    {
      "channel": 5,
      "note": 83,
      "start": 1.5613,
      "duration": 0.0956,
      "velocity": 96,
      "chip": "ym2612"
    },
    {
      "channel": 2,
      "note": 26,
      "start": 1.5629,
      "duration": 0.058,
      "velocity": 120,
      "chip": "ym2612"
    },
    {
      "channel": 0,
      "note": 60,
      "start": 1.6553,
      "duration": 0.0968,
      "velocity": 91,
      "chip": "ym2612"
    },
    {
      "channel": 2,
      "note": 26,
      "start": 1.6589,
      "duration": 0.059,
      "velocity": 120,
      "chip": "ym2612"
    },
    {
      "channel": 0,
      "note": 59,
      "start": 1.7528,
      "duration": 0.0968,
      "velocity": 91,
      "chip": "ym2612"
    },
    {
      "channel": 1,
      "note": 50,
      "start": 1.7535,
      "duration": 0.0969,
      "velocity": 87,
      "chip": "ym2612"
    },
    {
      "channel": 3,
      "note": 78,
      "start": 1.7544,
      "duration": 0.0968,
      "velocity": 96,
      "chip": "ym2612"
    },
    {
      "channel": 4,
      "note": 63,
      "start": 1.7552,
      "duration": 0.0968,
      "velocity": 96,
      "chip": "ym2612"
    },
    {
      "channel": 5,
      "note": 83,
      "start": 1.756,
      "duration": 0.0968,
      "velocity": 96,
      "chip": "ym2612"
    },
    {
      "channel": 2,
      "note": 26,
      "start": 1.7577,
      "duration": 0.0583,
      "velocity": 120,
      "chip": "ym2612"
    },
    {
      "channel": 0,
      "note": 60,
      "start": 1.8503,
      "duration": 0.0968,
      "velocity": 91,
      "chip": "ym2612"
    },
    {
      "channel": 1,
      "note": 50,
      "start": 1.8511,
      "duration": 0.0969,
      "velocity": 87,
      "chip": "ym2612"
    },
    {
      "channel": 3,
      "note": 78,
      "start": 1.8519,
      "duration": 0.0965,
      "velocity": 96,
      "chip": "ym2612"
    },
    {
      "channel": 4,
      "note": 63,
      "start": 1.8527,
      "duration": 0.0962,
      "velocity": 96,
      "chip": "ym2612"
    },
    {
      "channel": 5,
      "note": 83,
      "start": 1.8535,
      "duration": 0.0959,
      "velocity": 96,
      "chip": "ym2612"
    },
    {
      "channel": 2,
      "note": 26,
      "start": 1.8552,
      "duration": 0.0583,
      "velocity": 120,
      "chip": "ym2612"
    },
    {
      "channel": 0,
      "note": 61,
      "start": 1.9478,
      "duration": 0.0942,
      "velocity": 91,
      "chip": "ym2612"
    },
    {
      "channel": 2,
      "note": 56,
      "start": 1.9515,
      "duration": 0.0922,
      "velocity": 112,
      "chip": "ym2612"
    },
    {
      "channel": 0,
      "note": 62,
      "start": 2.0427,
      "duration": 0.0995,
      "velocity": 91,
      "chip": "ym2612"
    },
    {
      "channel": 0,
      "note": 64,
      "start": 2.1429,
      "duration": 0.0968,
      "velocity": 91,
      "chip": "ym2612"
    },
    {
      "channel": 1,
      "note": 50,
      "start": 2.1436,
      "duration": 0.0968,
      "velocity": 87,
      "chip": "ym2612"
    },
    {
      "channel": 3,
      "note": 78,
      "start": 2.1445,
      "duration": 0.0967,
      "velocity": 96,
      "chip": "ym2612"
    },
    {
      "channel": 4,
      "note": 63,
      "start": 2.1453,
      "duration": 0.0968,
      "velocity": 96,
      "chip": "ym2612"
    },
    {
      "channel": 5,
      "note": 83,
      "start": 2.1461,
      "duration": 0.0968,
      "velocity": 96,
      "chip": "ym2612"
    },
    {
      "channel": 2,
      "note": 26,
      "start": 2.1478,
      "duration": 0.0582,
      "velocity": 120,
      "chip": "ym2612"
    },
    {
      "channel": 0,
      "note": 66,
      "start": 2.2403,
      "duration": 0.0942,
      "velocity": 91,
      "chip": "ym2612"
    },
    {
      "channel": 1,
      "note": 50,
      "start": 2.2411,
      "duration": 0.0943,
      "velocity": 87,
      "chip": "ym2612"
    },
    {
      "channel": 3,
      "note": 78,
      "start": 2.2419,
      "duration": 0.0939,
      "velocity": 96,
      "chip": "ym2612"
    },
    {
      "channel": 4,
      "note": 63,
      "start": 2.2427,
      "duration": 0.0936,
      "velocity": 96,
      "chip": "ym2612"
    },
    {
      "channel": 5,
      "note": 83,
      "start": 2.2436,
      "duration": 0.0932,
      "velocity": 96,
      "chip": "ym2612"
    },
    {
      "channel": 2,
      "note": 26,
      "start": 2.2453,
      "duration": 0.0583,
      "velocity": 120,
      "chip": "ym2612"
    },
    {
      "channel": 0,
      "note": 69,
      "start": 2.3352,
      "duration": 0.392,
      "velocity": 91,
      "chip": "ym2612"
    },
    {
      "channel": 1,
      "note": 50,
      "start": 2.4329,
      "duration": 0.0997,
      "velocity": 87,
      "chip": "ym2612"
    },
    {
      "channel": 3,
      "note": 78,
      "start": 2.4337,
      "duration": 0.0996,
      "velocity": 96,
      "chip": "ym2612"
    },
    {
      "channel": 4,
      "note": 63,
      "start": 2.4345,
      "duration": 0.0993,
      "velocity": 96,
      "chip": "ym2612"
    },
    {
      "channel": 5,
      "note": 83,
      "start": 2.4354,
      "duration": 0.099,
      "velocity": 96,
      "chip": "ym2612"
    },
    {
      "channel": 1,
      "note": 55,
      "start": 2.5332,
      "duration": 0.0969,
      "velocity": 87,
      "chip": "ym2612"
    },
    {
      "channel": 2,
      "note": 26,
      "start": 2.5363,
      "duration": 0.0593,
      "velocity": 120,
      "chip": "ym2612"
    },
    {
      "channel": 1,
      "note": 56,
      "start": 2.6307,
      "duration": 0.2923,
      "velocity": 87,
      "chip": "ym2612"
    },
    {
      "channel": 3,
      "note": 78,
      "start": 2.6315,
      "duration": 0.0968,
      "velocity": 96,
      "chip": "ym2612"
    },
    {
      "channel": 4,
      "note": 63,
      "start": 2.6324,
      "duration": 0.0968,
      "velocity": 96,
      "chip": "ym2612"
    },
    {
      "channel": 5,
      "note": 83,
      "start": 2.6332,
      "duration": 0.0968,
      "velocity": 96,
      "chip": "ym2612"
    },
    {
      "channel": 2,
      "note": 26,
      "start": 2.6348,
      "duration": 0.0588,
      "velocity": 120,
      "chip": "ym2612"
    },
    {
      "channel": 0,
      "note": 68,
      "start": 2.7279,
      "duration": 0.0941,
      "velocity": 91,
      "chip": "ym2612"
    },
    {
      "channel": 3,
      "note": 78,
      "start": 2.729,
      "duration": 0.0941,
      "velocity": 96,
      "chip": "ym2612"
    },
    {
      "channel": 4,
      "note": 63,
      "start": 2.7298,
      "duration": 0.0942,
      "velocity": 96,
      "chip": "ym2612"
    },
    {
      "channel": 5,
      "note": 83,
      "start": 2.7306,
      "duration": 0.0942,
      "velocity": 96,
      "chip": "ym2612"
    },
    {
      "channel": 2,
      "note": 56,
      "start": 2.7324,
      "duration": 0.0934,
      "velocity": 112,
      "chip": "ym2612"
    },
    {
      "channel": 0,
      "note": 69,
      "start": 2.8227,
      "duration": 0.0994,
      "velocity": 91,
      "chip": "ym2612"
    },
    {
      "channel": 3,
      "note": 78,
      "start": 2.8239,
      "duration": 0.0999,
      "velocity": 96,
      "chip": "ym2612"
    },
    {
      "channel": 4,
      "note": 63,
      "start": 2.8247,
      "duration": 0.1,
      "velocity": 96,
      "chip": "ym2612"
    },
    {
      "channel": 5,
      "note": 83,
      "start": 2.8256,
      "duration": 0.0999,
      "velocity": 96,
      "chip": "ym2612"
    },
    {
      "channel": 0,
      "note": 68,
      "start": 2.9229,
      "duration": 0.0942,
      "velocity": 91,
      "chip": "ym2612"
    },
    {
      "channel": 1,
      "note": 59,
      "start": 2.9237,
      "duration": 0.0942,
      "velocity": 87,
      "chip": "ym2612"
    },
    {
      "channel": 3,
      "note": 78,
      "start": 2.9245,
      "duration": 0.0942,
      "velocity": 96,
      "chip": "ym2612"
    },
    {
      "channel": 4,
      "note": 63,
      "start": 2.9253,
      "duration": 0.0942,
      "velocity": 96,
      "chip": "ym2612"
    },
    {
      "channel": 5,
      "note": 83,
      "start": 2.9261,
      "duration": 0.0941,
      "velocity": 96,
      "chip": "ym2612"
    },
    {
      "channel": 2,
      "note": 26,
      "start": 2.9278,
      "duration": 0.0583,
      "velocity": 120,
      "chip": "ym2612"
    },
    {
      "channel": 0,
      "note": 66,
      "start": 3.0177,
      "duration": 0.0998,
      "velocity": 91,
      "chip": "ym2612"
    },
    {
      "channel": 1,
      "note": 50,
      "start": 3.0185,
      "duration": 0.1001,
      "velocity": 87,
      "chip": "ym2612"
    },
    {
      "channel": 3,
      "note": 78,
      "start": 3.0193,
      "duration": 0.1002,
      "velocity": 96,
      "chip": "ym2612"
    },
    {
      "channel": 4,
      "note": 63,
      "start": 3.0201,
      "duration": 0.1001,
      "velocity": 96,
      "chip": "ym2612"
    },
    {
      "channel": 5,
      "note": 83,
      "start": 3.021,
      "duration": 0.0999,
      "velocity": 96,
      "chip": "ym2612"
    },
    {
      "channel": 0,
      "note": 68,
      "start": 3.1182,
      "duration": 0.1941,
      "velocity": 91,
      "chip": "ym2612"
    },
    {
      "channel": 1,
      "note": 52,
      "start": 3.1193,
      "duration": 0.0958,
      "velocity": 87,
      "chip": "ym2612"
    },
    {
      "channel": 2,
      "note": 26,
      "start": 3.1229,
      "duration": 0.0577,
      "velocity": 120,
      "chip": "ym2612"
    },
    {
      "channel": 1,
      "note": 54,
      "start": 3.2157,
      "duration": 0.0975,
      "velocity": 87,
      "chip": "ym2612"
    },
    {
      "channel": 2,
      "note": 26,
      "start": 3.218,
      "duration": 0.0602,
      "velocity": 120,
      "chip": "ym2612"
    },
    {
      "channel": 0,
      "note": 64,
      "start": 3.3129,
      "duration": 0.0968,
      "velocity": 91,
      "chip": "ym2612"
    },
    {
      "channel": 3,
      "note": 76,
      "start": 3.3143,
      "duration": 0.0971,
      "velocity": 96,
      "chip": "ym2612"
    },
    {
      "channel": 4,
      "note": 66,
      "start": 3.3151,
      "duration": 0.0971,
      "velocity": 96,
      "chip": "ym2612"
    },
    {
      "channel": 5,
      "note": 81,
      "start": 3.3159,
      "duration": 0.0971,
      "velocity": 96,
      "chip": "ym2612"
    },
    {
      "channel": 2,
      "note": 26,
      "start": 3.3176,
      "duration": 0.0584,
      "velocity": 120,
      "chip": "ym2612"
    },
    {
      "channel": 0,
      "note": 66,
      "start": 3.4105,
      "duration": 0.3893,
      "velocity": 91,
      "chip": "ym2612"
    },
    {
      "channel": 1,
      "note": 60,
      "start": 3.4112,
      "duration": 0.0964,
      "velocity": 87,
      "chip": "ym2612"
    },
    {
      "channel": 3,
      "note": 76,
      "start": 3.4121,
      "duration": 0.0963,
      "velocity": 96,
      "chip": "ym2612"
    },
    {
      "channel": 4,
      "note": 66,
      "start": 3.4129,
      "duration": 0.096,
      "velocity": 96,
      "chip": "ym2612"
    },
    {
      "channel": 5,
      "note": 81,
      "start": 3.4137,
      "duration": 0.0957,
      "velocity": 96,
      "chip": "ym2612"
    },
    {
      "channel": 2,
      "note": 26,
      "start": 3.4154,
      "duration": 0.0583,
      "velocity": 120,
      "chip": "ym2612"
    },
    {
      "channel": 1,
      "note": 59,
      "start": 3.5083,
      "duration": 0.1944,
      "velocity": 87,
      "chip": "ym2612"
    },
    {
      "channel": 2,
      "note": 56,
      "start": 3.5115,
      "duration": 0.092,
      "velocity": 112,
      "chip": "ym2612"
    },
    {
      "channel": 1,
      "note": 58,
      "start": 3.7034,
      "duration": 0.0969,
      "velocity": 87,
      "chip": "ym2612"
    },
    {
      "channel": 3,
      "note": 76,
      "start": 3.7041,
      "duration": 0.097,
      "velocity": 96,
      "chip": "ym2612"
    },
    {
      "channel": 4,
      "note": 66,
      "start": 3.7049,
      "duration": 0.097,
      "velocity": 96,
      "chip": "ym2612"
    },
    {
      "channel": 5,
      "note": 81,
      "start": 3.7058,
      "duration": 0.097,
      "velocity": 96,
      "chip": "ym2612"
    },
    {
      "channel": 2,
      "note": 26,
      "start": 3.7074,
      "duration": 0.0588,
      "velocity": 120,
      "chip": "ym2612"
    },
    {
      "channel": 1,
      "note": 57,
      "start": 3.8009,
      "duration": 0.2918,
      "velocity": 87,
      "chip": "ym2612"
    },
    {
      "channel": 3,
      "note": 76,
      "start": 3.8018,
      "duration": 0.0941,
      "velocity": 96,
      "chip": "ym2612"
    },
    {
      "channel": 4,
      "note": 66,
      "start": 3.8026,
      "duration": 0.0941,
      "velocity": 96,
      "chip": "ym2612"
    },
    {
      "channel": 5,
      "note": 81,
      "start": 3.8034,
      "duration": 0.094,
      "velocity": 96,
      "chip": "ym2612"
    },
    {
      "channel": 2,
      "note": 26,
      "start": 3.8051,
      "duration": 0.0585,
      "velocity": 120,
      "chip": "ym2612"
    },
    {
      "channel": 0,
      "note": 64,
      "start": 3.8953,
      "duration": 0.3921,
      "velocity": 91,
      "chip": "ym2612"
    },
    {
      "channel": 3,
      "note": 76,
      "start": 3.8965,
      "duration": 0.0962,
      "velocity": 96,
      "chip": "ym2612"
    },
    {
      "channel": 4,
      "note": 66,
      "start": 3.8973,
      "duration": 0.0963,
      "velocity": 96,
      "chip": "ym2612"
    },
    {
      "channel": 5,
      "note": 81,
      "start": 3.8981,
      "duration": 0.0962,
      "velocity": 96,
      "chip": "ym2612"
    },
    {
      "channel": 3,
      "note": 76,
      "start": 3.9934,
      "duration": 0.6859,
      "velocity": 96,
      "chip": "ym2612"
    },
    {
      "channel": 4,
      "note": 66,
      "start": 3.9943,
      "duration": 0.6858,
      "velocity": 96,
      "chip": "ym2612"
    },
    {
      "channel": 5,
      "note": 81,
      "start": 3.9951,
      "duration": 0.6858,
      "velocity": 96,
      "chip": "ym2612"
    },
    {
      "channel": 1,
      "note": 56,
      "start": 4.0934,
      "duration": 0.0968,
      "velocity": 87,
      "chip": "ym2612"
    },
    {
      "channel": 2,
      "note": 26,
      "start": 4.0961,
      "duration": 0.0601,
      "velocity": 120,
      "chip": "ym2612"
    },
    {
      "channel": 2,
      "note": 26,
      "start": 4.1932,
      "duration": 0.0604,
      "velocity": 120,
      "chip": "ym2612"
    },
    {
      "channel": 0,
      "note": 62,
      "start": 4.288,
      "duration": 0.2893,
      "velocity": 91,
      "chip": "ym2612"
    },
    {
      "channel": 2,
      "note": 56,
      "start": 4.2914,
      "duration": 0.0931,
      "velocity": 112,
      "chip": "ym2612"
    },
    {
      "channel": 1,
      "note": 54,
      "start": 4.3832,
      "duration": 0.0996,
      "velocity": 87,
      "chip": "ym2612"
    },
    {
      "channel": 1,
      "note": 54,
      "start": 4.4834,
      "duration": 0.0944,
      "velocity": 87,
      "chip": "ym2612"
    },
    {
      "channel": 2,
      "note": 26,
      "start": 4.4861,
      "duration": 0.0602,
      "velocity": 120,
      "chip": "ym2612"
    },
    {
      "channel": 0,
      "note": 61,
      "start": 4.6783,
      "duration": 0.7765,
      "velocity": 91,
      "chip": "ym2612"
    },
    {
      "channel": 1,
      "note": 50,
      "start": 4.6791,
      "duration": 0.0961,
      "velocity": 87,
      "chip": "ym2612"
    },
    {
      "channel": 3,
      "note": 78,
      "start": 4.6799,
      "duration": 0.0957,
      "velocity": 96,
      "chip": "ym2612"
    },
    {
      "channel": 4,
      "note": 63,
      "start": 4.6808,
      "duration": 0.0954,
      "velocity": 96,
      "chip": "ym2612"
    },
    {
      "channel": 5,
      "note": 83,
      "start": 4.6816,
      "duration": 0.0951,
      "velocity": 96,
      "chip": "ym2612"
    },
    {
      "channel": 2,
      "note": 26,
      "start": 4.6832,
      "duration": 0.058,
      "velocity": 120,
      "chip": "ym2612"
    },
    {
      "channel": 2,
      "note": 26,
      "start": 4.7787,
      "duration": 0.0593,
      "velocity": 120,
      "chip": "ym2612"
    },
    {
      "channel": 1,
      "note": 50,
      "start": 4.8734,
      "duration": 0.0969,
      "velocity": 87,
      "chip": "ym2612"
    },
    {
      "channel": 3,
      "note": 78,
      "start": 4.8742,
      "duration": 0.0969,
      "velocity": 96,
      "chip": "ym2612"
    },
    {
      "channel": 4,
      "note": 63,
      "start": 4.875,
      "duration": 0.0969,
      "velocity": 96,
      "chip": "ym2612"
    },
    {
      "channel": 5,
      "note": 83,
      "start": 4.8759,
      "duration": 0.0968,
      "velocity": 96,
      "chip": "ym2612"
    },
    {
      "channel": 2,
      "note": 26,
      "start": 4.8776,
      "duration": 0.0587,
      "velocity": 120,
      "chip": "ym2612"
    },
    {
      "channel": 1,
      "note": 50,
      "start": 4.9709,
      "duration": 0.0969,
      "velocity": 87,
      "chip": "ym2612"
    },
    {
      "channel": 3,
      "note": 78,
      "start": 4.9717,
      "duration": 0.0965,
      "velocity": 96,
      "chip": "ym2612"
    },
    {
      "channel": 4,
      "note": 63,
      "start": 4.9726,
      "duration": 0.0962,
      "velocity": 96,
      "chip": "ym2612"
    },
    {
      "channel": 5,
      "note": 83,
      "start": 4.9734,
      "duration": 0.0958,
      "velocity": 96,
      "chip": "ym2612"
    },
    {
      "channel": 2,
      "note": 26,
      "start": 4.975,
      "duration": 0.0588,
      "velocity": 120,
      "chip": "ym2612"
    },
    {
      "channel": 2,
      "note": 56,
      "start": 5.0713,
      "duration": 0.0922,
      "velocity": 112,
      "chip": "ym2612"
    },
    {
      "channel": 1,
      "note": 50,
      "start": 5.2635,
      "duration": 0.0968,
      "velocity": 87,
      "chip": "ym2612"
    },
    {
      "channel": 3,
      "note": 78,
      "start": 5.2643,
      "duration": 0.0968,
      "velocity": 96,
      "chip": "ym2612"
    },
    {
      "channel": 4,
      "note": 63,
      "start": 5.2651,
      "duration": 0.0968,
      "velocity": 96,
      "chip": "ym2612"
    },
    {
      "channel": 5,
      "note": 83,
      "start": 5.2659,
      "duration": 0.0968,
      "velocity": 96,
      "chip": "ym2612"
    },
    {
      "channel": 2,
      "note": 26,
      "start": 5.2676,
      "duration": 0.0587,
      "velocity": 120,
      "chip": "ym2612"
    },
    {
      "channel": 1,
      "note": 50,
      "start": 5.361,
      "duration": 0.0943,
      "velocity": 87,
      "chip": "ym2612"
    },
    {
      "channel": 3,
      "note": 78,
      "start": 5.3617,
      "duration": 0.094,
      "velocity": 96,
      "chip": "ym2612"
    },
    {
      "channel": 4,
      "note": 63,
      "start": 5.3626,
      "duration": 0.0937,
      "velocity": 96,
      "chip": "ym2612"
    },
    {
      "channel": 5,
      "note": 83,
      "start": 5.3634,
      "duration": 0.0933,
      "velocity": 96,
      "chip": "ym2612"
    },
    {
      "channel": 2,
      "note": 26,
      "start": 5.3651,
      "duration": 0.0588,
      "velocity": 120,
      "chip": "ym2612"
    },
    {
      "channel": 1,
      "note": 50,
      "start": 5.553,
      "duration": 0.1002,
      "velocity": 87,
      "chip": "ym2612"
    },
    {
      "channel": 3,
      "note": 78,
      "start": 5.5539,
      "duration": 0.1002,
      "velocity": 96,
      "chip": "ym2612"
    },
    {
      "channel": 4,
      "note": 63,
      "start": 5.5547,
      "duration": 0.0999,
      "velocity": 96,
      "chip": "ym2612"
    },
    {
      "channel": 5,
      "note": 83,
      "start": 5.5555,
      "duration": 0.0995,
      "velocity": 96,
      "chip": "ym2612"
    },
    {
      "channel": 0,
      "note": 52,
      "start": 5.6531,
      "duration": 0.1944,
      "velocity": 91,
      "chip": "ym2612"
    },
    {
      "channel": 1,
      "note": 55,
      "start": 5.6539,
      "duration": 0.0964,
      "velocity": 87,
      "chip": "ym2612"
    },
    {
      "channel": 2,
      "note": 26,
      "start": 5.657,
      "duration": 0.0588,
      "velocity": 120,
      "chip": "ym2612"
    },
    {
      "channel": 1,
      "note": 56,
      "start": 5.7509,
      "duration": 0.2924,
      "velocity": 87,
      "chip": "ym2612"
    },
    {
      "channel": 3,
      "note": 78,
      "start": 5.7518,
      "duration": 0.0968,
      "velocity": 96,
      "chip": "ym2612"
    },
    {
      "channel": 4,
      "note": 63,
      "start": 5.7526,
      "duration": 0.0968,
      "velocity": 96,
      "chip": "ym2612"
    },
    {
      "channel": 5,
      "note": 83,
      "start": 5.7534,
      "duration": 0.0968,
      "velocity": 96,
      "chip": "ym2612"
    },
    {
      "channel": 2,
      "note": 26,
      "start": 5.7551,
      "duration": 0.0588,
      "velocity": 120,
      "chip": "ym2612"
    },
    {
      "channel": 0,
      "note": 51,
      "start": 5.8481,
      "duration": 0.0943,
      "velocity": 91,
      "chip": "ym2612"
    },
    {
      "channel": 3,
      "note": 78,
      "start": 5.8493,
      "duration": 0.0943,
      "velocity": 96,
      "chip": "ym2612"
    },
    {
      "channel": 4,
      "note": 63,
      "start": 5.8501,
      "duration": 0.0943,
      "velocity": 96,
      "chip": "ym2612"
    },
    {
      "channel": 5,
      "note": 83,
      "start": 5.8509,
      "duration": 0.0943,
      "velocity": 96,
      "chip": "ym2612"
    },
    {
      "channel": 2,
      "note": 56,
      "start": 5.8527,
      "duration": 0.0935,
      "velocity": 112,
      "chip": "ym2612"
    },
    {
      "channel": 0,
      "note": 50,
      "start": 5.943,
      "duration": 0.0994,
      "velocity": 91,
      "chip": "ym2612"
    },
    {
      "channel": 3,
      "note": 78,
      "start": 5.9443,
      "duration": 0.0999,
      "velocity": 96,
      "chip": "ym2612"
    },
    {
      "channel": 4,
      "note": 63,
      "start": 5.9451,
      "duration": 0.0999,
      "velocity": 96,
      "chip": "ym2612"
    },
    {
      "channel": 5,
      "note": 83,
      "start": 5.9459,
      "duration": 0.0999,
      "velocity": 96,
      "chip": "ym2612"
    },
    {
      "channel": 0,
      "note": 49,
      "start": 6.0432,
      "duration": 0.1946,
      "velocity": 91,
      "chip": "ym2612"
    },
    {
      "channel": 1,
      "note": 59,
      "start": 6.044,
      "duration": 0.0937,
      "velocity": 87,
      "chip": "ym2612"
    },
    {
      "channel": 3,
      "note": 78,
      "start": 6.0448,
      "duration": 0.0936,
      "velocity": 96,
      "chip": "ym2612"
    },
    {
      "channel": 4,
      "note": 63,
      "start": 6.0456,
      "duration": 0.0937,
      "velocity": 96,
      "chip": "ym2612"
    },
    {
      "channel": 5,
      "note": 83,
      "start": 6.0465,
      "duration": 0.0936,
      "velocity": 96,
      "chip": "ym2612"
    },
    {
      "channel": 2,
      "note": 26,
      "start": 6.0481,
      "duration": 0.0583,
      "velocity": 120,
      "chip": "ym2612"
    },
    {
      "channel": 1,
      "note": 50,
      "start": 6.1383,
      "duration": 0.1005,
      "velocity": 87,
      "chip": "ym2612"
    },
    {
      "channel": 3,
      "note": 78,
      "start": 6.1392,
      "duration": 0.1034,
      "velocity": 96,
      "chip": "ym2612"
    },
    {
      "channel": 4,
      "note": 63,
      "start": 6.14,
      "duration": 0.1064,
      "velocity": 96,
      "chip": "ym2612"
    },
    {
      "channel": 5,
      "note": 83,
      "start": 6.1408,
      "duration": 0.1093,
      "velocity": 96,
      "chip": "ym2612"
    },
    {
      "channel": 0,
      "note": 47,
      "start": 6.2385,
      "duration": 0.0966,
      "velocity": 91,
      "chip": "ym2612"
    },
    {
      "channel": 1,
      "note": 52,
      "start": 6.2395,
      "duration": 0.0963,
      "velocity": 87,
      "chip": "ym2612"
    },
    {
      "channel": 3,
      "note": 76,
      "start": 6.2433,
      "duration": 0.0933,
      "velocity": 96,
      "chip": "ym2612"
    },
    {
      "channel": 4,
      "note": 66,
      "start": 6.2471,
      "duration": 0.09,
      "velocity": 96,
      "chip": "ym2612"
    },
    {
      "channel": 5,
      "note": 81,
      "start": 6.2509,
      "duration": 0.0868,
      "velocity": 96,
      "chip": "ym2612"
    },
    {
      "channel": 2,
      "note": 26,
      "start": 6.2526,
      "duration": 0.0488,
      "velocity": 120,
      "chip": "ym2612"
    },
    {
      "channel": 0,
      "note": 49,
      "start": 6.3357,
      "duration": 0.0968,
      "velocity": 91,
      "chip": "ym2612"
    },
    {
      "channel": 1,
      "note": 54,
      "start": 6.3365,
      "duration": 0.0969,
      "velocity": 87,
      "chip": "ym2612"
    },
    {
      "channel": 2,
      "note": 26,
      "start": 6.3396,
      "duration": 0.0588,
      "velocity": 120,
      "chip": "ym2612"
    },
    {
      "channel": 0,
      "note": 50,
      "start": 6.4332,
      "duration": 0.0969,
      "velocity": 91,
      "chip": "ym2612"
    },
    {
      "channel": 3,
      "note": 76,
      "start": 6.4345,
      "duration": 0.0972,
      "velocity": 96,
      "chip": "ym2612"
    },
    {
      "channel": 4,
      "note": 66,
      "start": 6.4354,
      "duration": 0.0972,
      "velocity": 96,
      "chip": "ym2612"
    },
    {
      "channel": 5,
      "note": 81,
      "start": 6.4362,
      "duration": 0.0972,
      "velocity": 96,
      "chip": "ym2612"
    },
    {
      "channel": 2,
      "note": 26,
      "start": 6.4378,
      "duration": 0.0585,
      "velocity": 120,
      "chip": "ym2612"
    },
    {
      "channel": 0,
      "note": 52,
      "start": 6.5308,
      "duration": 0.0969,
      "velocity": 91,
      "chip": "ym2612"
    },
    {
      "channel": 1,
      "note": 60,
      "start": 6.5316,
      "duration": 0.0968,
      "velocity": 87,
      "chip": "ym2612"
    },
    {
      "channel": 3,
      "note": 76,
      "start": 6.5324,
      "duration": 0.0968,
      "velocity": 96,
      "chip": "ym2612"
    },
    {
      "channel": 4,
      "note": 66,
      "start": 6.5332,
      "duration": 0.0964,
      "velocity": 96,
      "chip": "ym2612"
    },
    {
      "channel": 5,
      "note": 81,
      "start": 6.5341,
      "duration": 0.0961,
      "velocity": 96,
      "chip": "ym2612"
    },
    {
      "channel": 2,
      "note": 26,
      "start": 6.5357,
      "duration": 0.0583,
      "velocity": 120,
      "chip": "ym2612"
    },
    {
      "channel": 0,
      "note": 54,
      "start": 6.6283,
      "duration": 0.0942,
      "velocity": 91,
      "chip": "ym2612"
    },
    {
      "channel": 1,
      "note": 59,
      "start": 6.6291,
      "duration": 0.1943,
      "velocity": 87,
      "chip": "ym2612"
    },
    {
      "channel": 2,
      "note": 56,
      "start": 6.6323,
      "duration": 0.092,
      "velocity": 112,
      "chip": "ym2612"
    },
    {
      "channel": 0,
      "note": 56,
      "start": 6.7231,
      "duration": 0.0994,
      "velocity": 91,
      "chip": "ym2612"
    },
    {
      "channel": 0,
      "note": 57,
      "start": 6.8232,
      "duration": 0.0969,
      "velocity": 91,
      "chip": "ym2612"
    },
    {
      "channel": 1,
      "note": 58,
      "start": 6.824,
      "duration": 0.0969,
      "velocity": 87,
      "chip": "ym2612"
    },
    {
      "channel": 3,
      "note": 76,
      "start": 6.8249,
      "duration": 0.0969,
      "velocity": 96,
      "chip": "ym2612"
    },
    {
      "channel": 4,
      "note": 66,
      "start": 6.8257,
      "duration": 0.0969,
      "velocity": 96,
      "chip": "ym2612"
    },
    {
      "channel": 5,
      "note": 81,
      "start": 6.8265,
      "duration": 0.0968,
      "velocity": 96,
      "chip": "ym2612"
    },
    {
      "channel": 2,
      "note": 26,
      "start": 6.8282,
      "duration": 0.0583,
      "velocity": 120,
      "chip": "ym2612"
    },
    {
      "channel": 0,
      "note": 59,
      "start": 6.9208,
      "duration": 0.0942,
      "velocity": 91,
      "chip": "ym2612"
    },
    {
      "channel": 1,
      "note": 57,
      "start": 6.9215,
      "duration": 0.2919,
      "velocity": 87,
      "chip": "ym2612"
    },
    {
      "channel": 3,
      "note": 76,
      "start": 6.9224,
      "duration": 0.0938,
      "velocity": 96,
      "chip": "ym2612"
    },
    {
      "channel": 4,
      "note": 66,
      "start": 6.9232,
      "duration": 0.0938,
      "velocity": 96,
      "chip": "ym2612"
    },
    {
      "channel": 5,
      "note": 81,
      "start": 6.924,
      "duration": 0.0937,
      "velocity": 96,
      "chip": "ym2612"
    },
    {
      "channel": 2,
      "note": 26,
      "start": 6.9257,
      "duration": 0.0583,
      "velocity": 120,
      "chip": "ym2612"
    },
    {
      "channel": 0,
      "note": 61,
      "start": 7.0156,
      "duration": 0.0968,
      "velocity": 91,
      "chip": "ym2612"
    },
    {
      "channel": 3,
      "note": 76,
      "start": 7.0168,
      "duration": 0.0968,
      "velocity": 96,
      "chip": "ym2612"
    },
    {
      "channel": 4,
      "note": 66,
      "start": 7.0176,
      "duration": 0.0968,
      "velocity": 96,
      "chip": "ym2612"
    },
    {
      "channel": 5,
      "note": 81,
      "start": 7.0184,
      "duration": 0.0967,
      "velocity": 96,
      "chip": "ym2612"
    },
    {
      "channel": 0,
      "note": 62,
      "start": 7.113,
      "duration": 0.0997,
      "velocity": 91,
      "chip": "ym2612"
    },
    {
      "channel": 3,
      "note": 76,
      "start": 7.1142,
      "duration": 0.5842,
      "velocity": 96,
      "chip": "ym2612"
    },
    {
      "channel": 4,
      "note": 66,
      "start": 7.115,
      "duration": 0.5842,
      "velocity": 96,
      "chip": "ym2612"
    },
    {
      "channel": 5,
      "note": 81,
      "start": 7.1158,
      "duration": 0.5841,
      "velocity": 96,
      "chip": "ym2612"
    },
    {
      "channel": 0,
      "note": 64,
      "start": 7.2133,
      "duration": 0.0968,
      "velocity": 91,
      "chip": "ym2612"
    },
    {
      "channel": 1,
      "note": 56,
      "start": 7.2142,
      "duration": 0.0968,
      "velocity": 87,
      "chip": "ym2612"
    },
    {
      "channel": 2,
      "note": 26,
      "start": 7.2168,
      "duration": 0.0597,
      "velocity": 120,
      "chip": "ym2612"
    },
    {
      "channel": 0,
      "note": 66,
      "start": 7.3108,
      "duration": 0.0968,
      "velocity": 91,
      "chip": "ym2612"
    },
    {
      "channel": 2,
      "note": 26,
      "start": 7.314,
      "duration": 0.0599,
      "velocity": 120,
      "chip": "ym2612"
    },
    {
      "channel": 2,
      "note": 56,
      "start": 7.4114,
      "duration": 0.0939,
      "velocity": 112,
      "chip": "ym2612"
    },
    {
      "channel": 0,
      "note": 69,
      "start": 7.5032,
      "duration": 0.0994,
      "velocity": 91,
      "chip": "ym2612"
    },
    {
      "channel": 1,
      "note": 54,
      "start": 7.504,
      "duration": 0.0995,
      "velocity": 87,
      "chip": "ym2612"
    },
    {
      "channel": 0,
      "note": 68,
      "start": 7.6034,
      "duration": 0.1946,
      "velocity": 91,
      "chip": "ym2612"
    },
    {
      "channel": 1,
      "note": 54,
      "start": 7.6041,
      "duration": 0.0938,
      "velocity": 87,
      "chip": "ym2612"
    },
    {
      "channel": 2,
      "note": 26,
      "start": 7.6068,
      "duration": 0.0597,
      "velocity": 120,
      "chip": "ym2612"
    },
    {
      "channel": 3,
      "note": 76,
      "start": 7.699,
      "duration": 0.1005,
      "velocity": 96,
      "chip": "ym2612"
    },
    {
      "channel": 4,
      "note": 66,
      "start": 7.6998,
      "duration": 0.1005,
      "velocity": 96,
      "chip": "ym2612"
    },
    {
      "channel": 5,
      "note": 81,
      "start": 7.7007,
      "duration": 0.1005,
      "velocity": 96,
      "chip": "ym2612"
    },
    {
      "channel": 0,
      "note": 71,
      "start": 7.7986,
      "duration": 0.194,
      "velocity": 91,
      "chip": "ym2612"
    },
    {
      "channel": 1,
      "note": 50,
      "start": 7.7994,
      "duration": 0.0962,
      "velocity": 87,
      "chip": "ym2612"
    },
    {
      "channel": 3,
      "note": 78,
      "start": 7.8002,
      "duration": 0.0958,
      "velocity": 96,
      "chip": "ym2612"
    },
    {
      "channel": 4,
      "note": 63,
      "start": 7.8011,
      "duration": 0.0955,
      "velocity": 96,
      "chip": "ym2612"
    },
    {
      "channel": 5,
      "note": 83,
      "start": 7.8019,
      "duration": 0.0952,
      "velocity": 96,
      "chip": "ym2612"
    },
    {
      "channel": 2,
      "note": 26,
      "start": 7.8035,
      "duration": 0.058,
      "velocity": 120,
      "chip": "ym2612"
    },
    {
      "channel": 2,
      "note": 26,
      "start": 7.899,
      "duration": 0.0594,
      "velocity": 120,
      "chip": "ym2612"
    },
    {
      "channel": 0,
      "note": 69,
      "start": 7.9934,
      "duration": 0.0968,
      "velocity": 91,
      "chip": "ym2612"
    },
    {
      "channel": 1,
      "note": 50,
      "start": 7.9942,
      "duration": 0.0965,
      "velocity": 87,
      "chip": "ym2612"
    },
    {
      "channel": 3,
      "note": 78,
      "start": 7.995,
      "duration": 0.0965,
      "velocity": 96,
      "chip": "ym2612"
    },
    {
      "channel": 4,
      "note": 63,
      "start": 7.9959,
      "duration": 0.0965,
      "velocity": 96,
      "chip": "ym2612"
    },
    {
      "channel": 5,
      "note": 83,
      "start": 7.9967,
      "duration": 0.0964,
      "velocity": 96,
      "chip": "ym2612"
    },
    {
      "channel": 2,
      "note": 26,
      "start": 7.9983,
      "duration": 0.0583,
      "velocity": 120,
      "chip": "ym2612"
    },
    {
      "channel": 1,
      "note": 50,
      "start": 8.0913,
      "duration": 0.0972,
      "velocity": 87,
      "chip": "ym2612"
    },
    {
      "channel": 3,
      "note": 78,
      "start": 8.0922,
      "duration": 0.0969,
      "velocity": 96,
      "chip": "ym2612"
    },
    {
      "channel": 4,
      "note": 63,
      "start": 8.093,
      "duration": 0.0965,
      "velocity": 96,
      "chip": "ym2612"
    },
    {
      "channel": 5,
      "note": 83,
      "start": 8.0939,
      "duration": 0.0961,
      "velocity": 96,
      "chip": "ym2612"
    },
    {
      "channel": 2,
      "note": 26,
      "start": 8.0955,
      "duration": 0.0584,
      "velocity": 120,
      "chip": "ym2612"
    },
    {
      "channel": 0,
      "note": 69,
      "start": 8.1884,
      "duration": 0.0942,
      "velocity": 91,
      "chip": "ym2612"
    },
    {
      "channel": 2,
      "note": 56,
      "start": 8.1921,
      "duration": 0.0922,
      "velocity": 112,
      "chip": "ym2612"
    },
    {
      "channel": 0,
      "note": 68,
      "start": 8.2832,
      "duration": 0.0995,
      "velocity": 91,
      "chip": "ym2612"
    },
    {
      "channel": 0,
      "note": 66,
      "start": 8.3834,
      "duration": 0.0969,
      "velocity": 91,
      "chip": "ym2612"
    },
    {
      "channel": 1,
      "note": 50,
      "start": 8.3842,
      "duration": 0.097,
      "velocity": 87,
      "chip": "ym2612"
    },
    {
      "channel": 3,
      "note": 78,
      "start": 8.385,
      "duration": 0.0969,
      "velocity": 96,
      "chip": "ym2612"
    },
    {
      "channel": 4,
      "note": 63,
      "start": 8.3859,
      "duration": 0.097,
      "velocity": 96,
      "chip": "ym2612"
    },
    {
      "channel": 5,
      "note": 83,
      "start": 8.3867,
      "duration": 0.0969,
      "velocity": 96,
      "chip": "ym2612"
    },
    {
      "channel": 2,
      "note": 26,
      "start": 8.3883,
      "duration": 0.0583,
      "velocity": 120,
      "chip": "ym2612"
    },
    {
      "channel": 0,
      "note": 68,
      "start": 8.481,
      "duration": 0.0941,
      "velocity": 91,
      "chip": "ym2612"
    },
    {
      "channel": 1,
      "note": 50,
      "start": 8.4818,
      "duration": 0.0938,
      "velocity": 87,
      "chip": "ym2612"
    },
    {
      "channel": 3,
      "note": 78,
      "start": 8.4826,
      "duration": 0.0935,
      "velocity": 96,
      "chip": "ym2612"
    },
    {
      "channel": 4,
      "note": 63,
      "start": 8.4834,
      "duration": 0.0932,
      "velocity": 96,
      "chip": "ym2612"
    },
    {
      "channel": 5,
      "note": 83,
      "start": 8.4843,
      "duration": 0.0929,
      "velocity": 96,
      "chip": "ym2612"
    },
    {
      "channel": 2,
      "note": 26,
      "start": 8.4859,
      "duration": 0.0583,
      "velocity": 120,
      "chip": "ym2612"
    },
    {
      "channel": 0,
      "note": 65,
      "start": 8.6731,
      "duration": 0.0996,
      "velocity": 91,
      "chip": "ym2612"
    },
    {
      "channel": 1,
      "note": 50,
      "start": 8.674,
      "duration": 0.0996,
      "velocity": 87,
      "chip": "ym2612"
    },
    {
      "channel": 3,
      "note": 78,
      "start": 8.6747,
      "duration": 0.0997,
      "velocity": 96,
      "chip": "ym2612"
    },
    {
      "channel": 4,
      "note": 63,
      "start": 8.6756,
      "duration": 0.0993,
      "velocity": 96,
      "chip": "ym2612"
    },
    {
      "channel": 5,
      "note": 83,
      "start": 8.6764,
      "duration": 0.099,
      "velocity": 96,
      "chip": "ym2612"
    },
    {
      "channel": 0,
      "note": 66,
      "start": 8.7734,
      "duration": 0.0968,
      "velocity": 91,
      "chip": "ym2612"
    },
    {
      "channel": 1,
      "note": 55,
      "start": 8.7742,
      "duration": 0.0969,
      "velocity": 87,
      "chip": "ym2612"
    },
    {
      "channel": 2,
      "note": 26,
      "start": 8.7774,
      "duration": 0.0588,
      "velocity": 120,
      "chip": "ym2612"
    },
    {
      "channel": 0,
      "note": 62,
      "start": 8.871,
      "duration": 0.0968,
      "velocity": 91,
      "chip": "ym2612"
    },
    {
      "channel": 1,
      "note": 56,
      "start": 8.8717,
      "duration": 0.2919,
      "velocity": 87,
      "chip": "ym2612"
    },
    {
      "channel": 3,
      "note": 78,
      "start": 8.8726,
      "duration": 0.0964,
      "velocity": 96,
      "chip": "ym2612"
    },
    {
      "channel": 4,
      "note": 63,
      "start": 8.8734,
      "duration": 0.0964,
      "velocity": 96,
      "chip": "ym2612"
    },
    {
      "channel": 5,
      "note": 83,
      "start": 8.8742,
      "duration": 0.0964,
      "velocity": 96,
      "chip": "ym2612"
    },
    {
      "channel": 2,
      "note": 26,
      "start": 8.8759,
      "duration": 0.0583,
      "velocity": 120,
      "chip": "ym2612"
    },
    {
      "channel": 0,
      "note": 64,
      "start": 8.9685,
      "duration": 0.0941,
      "velocity": 91,
      "chip": "ym2612"
    },
    {
      "channel": 3,
      "note": 78,
      "start": 8.9696,
      "duration": 0.0941,
      "velocity": 96,
      "chip": "ym2612"
    },
    {
      "channel": 4,
      "note": 63,
      "start": 8.9704,
      "duration": 0.0942,
      "velocity": 96,
      "chip": "ym2612"
    },
    {
      "channel": 5,
      "note": 83,
      "start": 8.9712,
      "duration": 0.0942,
      "velocity": 96,
      "chip": "ym2612"
    },
    {
      "channel": 2,
      "note": 56,
      "start": 8.973,
      "duration": 0.0934,
      "velocity": 112,
      "chip": "ym2612"
    },
    {
      "channel": 0,
      "note": 61,
      "start": 9.0633,
      "duration": 0.0995,
      "velocity": 91,
      "chip": "ym2612"
    },
    {
      "channel": 3,
      "note": 78,
      "start": 9.0645,
      "duration": 0.0999,
      "velocity": 96,
      "chip": "ym2612"
    },
    {
      "channel": 4,
      "note": 63,
      "start": 9.0653,
      "duration": 0.0999,
      "velocity": 96,
      "chip": "ym2612"
    },
    {
      "channel": 5,
      "note": 83,
      "start": 9.0661,
      "duration": 0.0999,
      "velocity": 96,
      "chip": "ym2612"
    },
    {
      "channel": 0,
      "note": 62,
      "start": 9.1635,
      "duration": 0.0943,
      "velocity": 91,
      "chip": "ym2612"
    },
    {
      "channel": 1,
      "note": 59,
      "start": 9.1643,
      "duration": 0.0943,
      "velocity": 87,
      "chip": "ym2612"
    },
    {
      "channel": 3,
      "note": 78,
      "start": 9.1651,
      "duration": 0.0942,
      "velocity": 96,
      "chip": "ym2612"
    },
    {
      "channel": 4,
      "note": 63,
      "start": 9.1659,
      "duration": 0.0942,
      "velocity": 96,
      "chip": "ym2612"
    },
    {
      "channel": 5,
      "note": 83,
      "start": 9.1668,
      "duration": 0.0943,
      "velocity": 96,
      "chip": "ym2612"
    },
    {
      "channel": 2,
      "note": 26,
      "start": 9.1684,
      "duration": 0.0583,
      "velocity": 120,
      "chip": "ym2612"
    },
    {
      "channel": 0,
      "note": 59,
      "start": 9.2584,
      "duration": 0.0997,
      "velocity": 91,
      "chip": "ym2612"
    },
    {
      "channel": 1,
      "note": 50,
      "start": 9.2592,
      "duration": 0.1,
      "velocity": 87,
      "chip": "ym2612"
    },
    {
      "channel": 3,
      "note": 78,
      "start": 9.26,
      "duration": 0.1001,
      "velocity": 96,
      "chip": "ym2612"
    },
    {
      "channel": 4,
      "note": 63,
      "start": 9.2609,
      "duration": 0.1,
      "velocity": 96,
      "chip": "ym2612"
    },
    {
      "channel": 5,
      "note": 83,
      "start": 9.2617,
      "duration": 0.0998,
      "velocity": 96,
      "chip": "ym2612"
    },
    {
      "channel": 0,
      "note": 61,
      "start": 9.3588,
      "duration": 0.5841,
      "velocity": 91,
      "chip": "ym2612"
    },
    {
      "channel": 1,
      "note": 52,
      "start": 9.3598,
      "duration": 0.0958,
      "velocity": 87,
      "chip": "ym2612"
    },
    {
      "channel": 2,
      "note": 26,
      "start": 9.3636,
      "duration": 0.0576,
      "velocity": 120,
      "chip": "ym2612"
    },
    {
      "channel": 1,
      "note": 54,
      "start": 9.4563,
      "duration": 0.0969,
      "velocity": 87,
      "chip": "ym2612"
    },
    {
      "channel": 2,
      "note": 26,
      "start": 9.4586,
      "duration": 0.0602,
      "velocity": 120,
      "chip": "ym2612"
    },
    {
      "channel": 3,
      "note": 76,
      "start": 9.5544,
      "duration": 0.0971,
      "velocity": 96,
      "chip": "ym2612"
    },
    {
      "channel": 4,
      "note": 66,
      "start": 9.5552,
      "duration": 0.0971,
      "velocity": 96,
      "chip": "ym2612"
    },
    {
      "channel": 5,
      "note": 81,
      "start": 9.556,
      "duration": 0.0971,
      "velocity": 96,
      "chip": "ym2612"
    },
    {
      "channel": 2,
      "note": 26,
      "start": 9.5577,
      "duration": 0.059,
      "velocity": 120,
      "chip": "ym2612"
    },
    {
      "channel": 1,
      "note": 60,
      "start": 9.6513,
      "duration": 0.0969,
      "velocity": 87,
      "chip": "ym2612"
    },
    {
      "channel": 3,
      "note": 76,
      "start": 9.6521,
      "duration": 0.0969,
      "velocity": 96,
      "chip": "ym2612"
    },
    {
      "channel": 4,
      "note": 66,
      "start": 9.653,
      "duration": 0.0966,
      "velocity": 96,
      "chip": "ym2612"
    },
    {
      "channel": 5,
      "note": 81,
      "start": 9.6538,
      "duration": 0.0963,
      "velocity": 96,
      "chip": "ym2612"
    },
    {
      "channel": 2,
      "note": 26,
      "start": 9.6554,
      "duration": 0.0588,
      "velocity": 120,
      "chip": "ym2612"
    },
    {
      "channel": 1,
      "note": 59,
      "start": 9.7489,
      "duration": 0.1948,
      "velocity": 87,
      "chip": "ym2612"
    },
    {
      "channel": 2,
      "note": 56,
      "start": 9.7521,
      "duration": 0.0921,
      "velocity": 112,
      "chip": "ym2612"
    },
    {
      "channel": 0,
      "note": 62,
      "start": 9.9436,
      "duration": 0.3894,
      "velocity": 91,
      "chip": "ym2612"
    },
    {
      "channel": 1,
      "note": 58,
      "start": 9.9444,
      "duration": 0.0963,
      "velocity": 87,
      "chip": "ym2612"
    },
    {
      "channel": 3,
      "note": 76,
      "start": 9.9452,
      "duration": 0.0963,
      "velocity": 96,
      "chip": "ym2612"
    },
    {
      "channel": 4,
      "note": 66,
      "start": 9.946,
      "duration": 0.0963,
      "velocity": 96,
      "chip": "ym2612"
    },
    {
      "channel": 5,
      "note": 81,
      "start": 9.9469,
      "duration": 0.0962,
      "velocity": 96,
      "chip": "ym2612"
    },
    {
      "channel": 2,
      "note": 26,
      "start": 9.9485,
      "duration": 0.0583,
      "velocity": 120,
      "chip": "ym2612"
    },
    {
      "channel": 1,
      "note": 57,
      "start": 10.0413,
      "duration": 0.2924,
      "velocity": 87,
      "chip": "ym2612"
    },
    {
      "channel": 3,
      "note": 76,
      "start": 10.0422,
      "duration": 0.0938,
      "velocity": 96,
      "chip": "ym2612"
    },
    {
      "channel": 4,
      "note": 66,
      "start": 10.043,
      "duration": 0.0938,
      "velocity": 96,
      "chip": "ym2612"
    },
    {
      "channel": 5,
      "note": 81,
      "start": 10.0439,
      "duration": 0.0937,
      "velocity": 96,
      "chip": "ym2612"
    },
    {
      "channel": 2,
      "note": 26,
      "start": 10.0455,
      "duration": 0.0587,
      "velocity": 120,
      "chip": "ym2612"
    },
    {
      "channel": 3,
      "note": 76,
      "start": 10.1366,
      "duration": 0.0967,
      "velocity": 96,
      "chip": "ym2612"
    },
    {
      "channel": 4,
      "note": 66,
      "start": 10.1374,
      "duration": 0.0967,
      "velocity": 96,
      "chip": "ym2612"
    },
    {
      "channel": 5,
      "note": 81,
      "start": 10.1383,
      "duration": 0.0967,
      "velocity": 96,
      "chip": "ym2612"
    },
    {
      "channel": 3,
      "note": 76,
      "start": 10.234,
      "duration": 0.6858,
      "velocity": 96,
      "chip": "ym2612"
    },
    {
      "channel": 4,
      "note": 66,
      "start": 10.2348,
      "duration": 0.6858,
      "velocity": 96,
      "chip": "ym2612"
    },
    {
      "channel": 5,
      "note": 81,
      "start": 10.2357,
      "duration": 0.6858,
      "velocity": 96,
      "chip": "ym2612"
    },
    {
      "channel": 0,
      "note": 57,
      "start": 10.3336,
      "duration": 0.1945,
      "velocity": 91,
      "chip": "ym2612"
    },
    {
      "channel": 1,
      "note": 56,
      "start": 10.3344,
      "duration": 0.0963,
      "velocity": 87,
      "chip": "ym2612"
    },
    {
      "channel": 2,
      "note": 26,
      "start": 10.3371,
      "duration": 0.0597,
      "velocity": 120,
      "chip": "ym2612"
    },
    {
      "channel": 2,
      "note": 26,
      "start": 10.4337,
      "duration": 0.0605,
      "velocity": 120,
      "chip": "ym2612"
    },
    {
      "channel": 0,
      "note": 54,
      "start": 10.5287,
      "duration": 0.1943,
      "velocity": 91,
      "chip": "ym2612"
    },
    {
      "channel": 2,
      "note": 56,
      "start": 10.532,
      "duration": 0.0931,
      "velocity": 112,
      "chip": "ym2612"
    },
    {
      "channel": 1,
      "note": 54,
      "start": 10.6238,
      "duration": 0.1,
      "velocity": 87,
      "chip": "ym2612"
    },
    {
      "channel": 0,
      "note": 56,
      "start": 10.7237,
      "duration": 0.1946,
      "velocity": 91,
      "chip": "ym2612"
    },
    {
      "channel": 1,
      "note": 54,
      "start": 10.7244,
      "duration": 0.0938,
      "velocity": 87,
      "chip": "ym2612"
    },
    {
      "channel": 2,
      "note": 26,
      "start": 10.7272,
      "duration": 0.0596,
      "velocity": 120,
      "chip": "ym2612"
    },
    {
      "channel": 0,
      "note": 60,
      "start": 10.9189,
      "duration": 0.0966,
      "velocity": 91,
      "chip": "ym2612"
    },
    {
      "channel": 1,
      "note": 50,
      "start": 10.9197,
      "duration": 0.0966,
      "velocity": 87,
      "chip": "ym2612"
    },
    {
      "channel": 3,
      "note": 78,
      "start": 10.9205,
      "duration": 0.0963,
      "velocity": 96,
      "chip": "ym2612"
    },
    {
      "channel": 4,
      "note": 63,
      "start": 10.9214,
      "duration": 0.0959,
      "velocity": 96,
      "chip": "ym2612"
    },
    {
      "channel": 5,
      "note": 83,
      "start": 10.9222,
      "duration": 0.0956,
      "velocity": 96,
      "chip": "ym2612"
    },
    {
      "channel": 2,
      "note": 26,
      "start": 10.9238,
      "duration": 0.058,
      "velocity": 120,
      "chip": "ym2612"
    },
    {
      "channel": 0,
      "note": 61,
      "start": 11.0162,
      "duration": 0.0968,
      "velocity": 91,
      "chip": "ym2612"
    },
    {
      "channel": 2,
      "note": 26,
      "start": 11.0198,
      "duration": 0.059,
      "velocity": 120,
      "chip": "ym2612"
    },
    {
      "channel": 0,
      "note": 57,
      "start": 11.1137,
      "duration": 0.1943,
      "velocity": 91,
      "chip": "ym2612"
    },
    {
      "channel": 1,
      "note": 50,
      "start": 11.1145,
      "duration": 0.0964,
      "velocity": 87,
      "chip": "ym2612"
    },
    {
      "channel": 3,
      "note": 78,
      "start": 11.1153,
      "duration": 0.0963,
      "velocity": 96,
      "chip": "ym2612"
    },
    {
      "channel": 4,
      "note": 63,
      "start": 11.1161,
      "duration": 0.0963,
      "velocity": 96,
      "chip": "ym2612"
    },
    {
      "channel": 5,
      "note": 83,
      "start": 11.117,
      "duration": 0.0963,
      "velocity": 96,
      "chip": "ym2612"
    },
    {
      "channel": 2,
      "note": 26,
      "start": 11.1186,
      "duration": 0.0582,
      "velocity": 120,
      "chip": "ym2612"
    },
    {
      "channel": 1,
      "note": 50,
      "start": 11.2115,
      "duration": 0.0973,
      "velocity": 87,
      "chip": "ym2612"
    },
    {
      "channel": 3,
      "note": 78,
      "start": 11.2123,
      "duration": 0.097,
      "velocity": 96,
      "chip": "ym2612"
    },
    {
      "channel": 4,
      "note": 63,
      "start": 11.2132,
      "duration": 0.0966,
      "velocity": 96,
      "chip": "ym2612"
    },
    {
      "channel": 5,
      "note": 83,
      "start": 11.214,
      "duration": 0.0963,
      "velocity": 96,
      "chip": "ym2612"
    },
    {
      "channel": 2,
      "note": 26,
      "start": 11.2156,
      "duration": 0.0588,
      "velocity": 120,
      "chip": "ym2612"
    },
    {
      "channel": 0,
      "note": 60,
      "start": 11.3087,
      "duration": 0.0942,
      "velocity": 91,
      "chip": "ym2612"
    },
    {
      "channel": 2,
      "note": 56,
      "start": 11.3124,
      "duration": 0.0922,
      "velocity": 112,
      "chip": "ym2612"
    },
    {
      "channel": 0,
      "note": 61,
      "start": 11.4035,
      "duration": 0.0995,
      "velocity": 91,
      "chip": "ym2612"
    },
    {
      "channel": 0,
      "note": 57,
      "start": 11.5037,
      "duration": 0.0968,
      "velocity": 91,
      "chip": "ym2612"
    },
    {
      "channel": 1,
      "note": 50,
      "start": 11.5045,
      "duration": 0.0966,
      "velocity": 87,
      "chip": "ym2612"
    },
    {
      "channel": 3,
      "note": 78,
      "start": 11.5053,
      "duration": 0.0966,
      "velocity": 96,
      "chip": "ym2612"
    },
    {
      "channel": 4,
      "note": 63,
      "start": 11.5061,
      "duration": 0.0966,
      "velocity": 96,
      "chip": "ym2612"
    },
    {
      "channel": 5,
      "note": 83,
      "start": 11.507,
      "duration": 0.0965,
      "velocity": 96,
      "chip": "ym2612"
    },
    {
      "channel": 2,
      "note": 26,
      "start": 11.5086,
      "duration": 0.0583,
      "velocity": 120,
      "chip": "ym2612"
    },
    {
      "channel": 1,
      "note": 50,
      "start": 11.6017,
      "duration": 0.0945,
      "velocity": 87,
      "chip": "ym2612"
    },
    {
      "channel": 3,
      "note": 78,
      "start": 11.6025,
      "duration": 0.0941,
      "velocity": 96,
      "chip": "ym2612"
    },
    {
      "channel": 4,
      "note": 63,
      "start": 11.6034,
      "duration": 0.0938,
      "velocity": 96,
      "chip": "ym2612"
    },
    {
      "channel": 5,
      "note": 83,
      "start": 11.6042,
      "duration": 0.0934,
      "velocity": 96,
      "chip": "ym2612"
    },
    {
      "channel": 2,
      "note": 26,
      "start": 11.6058,
      "duration": 0.0585,
      "velocity": 120,
      "chip": "ym2612"
    },
    {
      "channel": 0,
      "note": 60,
      "start": 11.696,
      "duration": 0.0968,
      "velocity": 91,
      "chip": "ym2612"
    },
    {
      "channel": 0,
      "note": 61,
      "start": 11.7934,
      "duration": 0.0996,
      "velocity": 91,
      "chip": "ym2612"
    },
    {
      "channel": 1,
      "note": 50,
      "start": 11.7943,
      "duration": 0.0996,
      "velocity": 87,
      "chip": "ym2612"
    },
    {
      "channel": 3,
      "note": 78,
      "start": 11.7951,
      "duration": 0.0996,
      "velocity": 96,
      "chip": "ym2612"
    },
    {
      "channel": 4,
      "note": 63,
      "start": 11.7959,
      "duration": 0.0993,
      "velocity": 96,
      "chip": "ym2612"
    },
    {
      "channel": 5,
      "note": 83,
      "start": 11.7967,
      "duration": 0.0989,
      "velocity": 96,
      "chip": "ym2612"
    },
    {
      "channel": 0,
      "note": 57,
      "start": 11.8937,
      "duration": 0.0968,
      "velocity": 91,
      "chip": "ym2612"
    },
    {
      "channel": 1,
      "note": 55,
      "start": 11.8946,
      "duration": 0.0968,
      "velocity": 87,
      "chip": "ym2612"
    },
    {
      "channel": 2,
      "note": 26,
      "start": 11.8977,
      "duration": 0.0588,
      "velocity": 120,
      "chip": "ym2612"
    },
    {
      "channel": 0,
      "note": 60,
      "start": 11.9913,
      "duration": 0.0968,
      "velocity": 91,
      "chip": "ym2612"
    },
    {
      "channel": 1,
      "note": 56,
      "start": 11.992,
      "duration": 0.2919,
      "velocity": 87,
      "chip": "ym2612"
    },
    {
      "channel": 3,
      "note": 78,
      "start": 11.9929,
      "duration": 0.0964,
      "velocity": 96,
      "chip": "ym2612"
    },
    {
      "channel": 4,
      "note": 63,
      "start": 11.9937,
      "duration": 0.0964,
      "velocity": 96,
      "chip": "ym2612"
    },
    {
      "channel": 5,
      "note": 83,
      "start": 11.9945,
      "duration": 0.0964,
      "velocity": 96,
      "chip": "ym2612"
    },
    {
      "channel": 2,
      "note": 26,
      "start": 11.9962,
      "duration": 0.0582,
      "velocity": 120,
      "chip": "ym2612"
    },
    {
      "channel": 0,
      "note": 61,
      "start": 12.0888,
      "duration": 0.1944,
      "velocity": 91,
      "chip": "ym2612"
    },
    {
      "channel": 3,
      "note": 78,
      "start": 12.0899,
      "duration": 0.0936,
      "velocity": 96,
      "chip": "ym2612"
    },
    {
      "channel": 4,
      "note": 63,
      "start": 12.0907,
      "duration": 0.0937,
      "velocity": 96,
      "chip": "ym2612"
    },
    {
      "channel": 5,
      "note": 83,
      "start": 12.0915,
      "duration": 0.0937,
      "velocity": 96,
      "chip": "ym2612"
    },
    {
      "channel": 2,
      "note": 56,
      "start": 12.0933,
      "duration": 0.0929,
      "velocity": 112,
      "chip": "ym2612"
    },
    {
      "channel": 3,
      "note": 78,
      "start": 12.1843,
      "duration": 0.1005,
      "velocity": 96,
      "chip": "ym2612"
    },
    {
      "channel": 4,
      "note": 63,
      "start": 12.1851,
      "duration": 0.1005,
      "velocity": 96,
      "chip": "ym2612"
    },
    {
      "channel": 5,
      "note": 83,
      "start": 12.1859,
      "duration": 0.1005,
      "velocity": 96,
      "chip": "ym2612"
    },
    {
      "channel": 0,
      "note": 57,
      "start": 12.2838,
      "duration": 0.0941,
      "velocity": 91,
      "chip": "ym2612"
    },
    {
      "channel": 1,
      "note": 59,
      "start": 12.2846,
      "duration": 0.0939,
      "velocity": 87,
      "chip": "ym2612"
    },
    {
      "channel": 3,
      "note": 78,
      "start": 12.2854,
      "duration": 0.0938,
      "velocity": 96,
      "chip": "ym2612"
    },
    {
      "channel": 4,
      "note": 63,
      "start": 12.2862,
      "duration": 0.0938,
      "velocity": 96,
      "chip": "ym2612"
    },
    {
      "channel": 5,
      "note": 83,
      "start": 12.2871,
      "duration": 0.0938,
      "velocity": 96,
      "chip": "ym2612"
    },
    {
      "channel": 2,
      "note": 26,
      "start": 12.2887,
      "duration": 0.0583,
      "velocity": 120,
      "chip": "ym2612"
    },
    {
      "channel": 1,
      "note": 50,
      "start": 12.3791,
      "duration": 0.1034,
      "velocity": 87,
      "chip": "ym2612"
    },
    {
      "channel": 3,
      "note": 78,
      "start": 12.3799,
      "duration": 0.1063,
      "velocity": 96,
      "chip": "ym2612"
    },
    {
      "channel": 4,
      "note": 63,
      "start": 12.3808,
      "duration": 0.1092,
      "velocity": 96,
      "chip": "ym2612"
    },
    {
      "channel": 5,
      "note": 83,
      "start": 12.3816,
      "duration": 0.1122,
      "velocity": 96,
      "chip": "ym2612"
    },
    {
      "channel": 0,
      "note": 54,
      "start": 12.4821,
      "duration": 0.0935,
      "velocity": 91,
      "chip": "ym2612"
    },
    {
      "channel": 1,
      "note": 52,
      "start": 12.4832,
      "duration": 0.0933,
      "velocity": 87,
      "chip": "ym2612"
    },
    {
      "channel": 3,
      "note": 76,
      "start": 12.4869,
      "duration": 0.0903,
      "velocity": 96,
      "chip": "ym2612"
    },
    {
      "channel": 4,
      "note": 66,
      "start": 12.4907,
      "duration": 0.0871,
      "velocity": 96,
      "chip": "ym2612"
    },
    {
      "channel": 5,
      "note": 81,
      "start": 12.4945,
      "duration": 0.0838,
      "velocity": 96,
      "chip": "ym2612"
    },
    {
      "channel": 2,
      "note": 26,
      "start": 12.4962,
      "duration": 0.0457,
      "velocity": 120,
      "chip": "ym2612"
    },
    {
      "channel": 0,
      "note": 56,
      "start": 12.5763,
      "duration": 0.0968,
      "velocity": 91,
      "chip": "ym2612"
    },
    {
      "channel": 1,
      "note": 54,
      "start": 12.5771,
      "duration": 0.0968,
      "velocity": 87,
      "chip": "ym2612"
    },
    {
      "channel": 2,
      "note": 26,
      "start": 12.5802,
      "duration": 0.0588,
      "velocity": 120,
      "chip": "ym2612"
    },
    {
      "channel": 0,
      "note": 57,
      "start": 12.6738,
      "duration": 0.0968,
      "velocity": 91,
      "chip": "ym2612"
    },
    {
      "channel": 3,
      "note": 76,
      "start": 12.6751,
      "duration": 0.0971,
      "velocity": 96,
      "chip": "ym2612"
    },
    {
      "channel": 4,
      "note": 66,
      "start": 12.6759,
      "duration": 0.0971,
      "velocity": 96,
      "chip": "ym2612"
    },
    {
      "channel": 5,
      "note": 81,
      "start": 12.6768,
      "duration": 0.0971,
      "velocity": 96,
      "chip": "ym2612"
    },
    {
      "channel": 2,
      "note": 26,
      "start": 12.6785,
      "duration": 0.0584,
      "velocity": 120,
      "chip": "ym2612"
    },
    {
      "channel": 0,
      "note": 59,
      "start": 12.7713,
      "duration": 0.0969,
      "velocity": 91,
      "chip": "ym2612"
    },
    {
      "channel": 1,
      "note": 60,
      "start": 12.7721,
      "duration": 0.0969,
      "velocity": 87,
      "chip": "ym2612"
    },
    {
      "channel": 3,
      "note": 76,
      "start": 12.7729,
      "duration": 0.0969,
      "velocity": 96,
      "chip": "ym2612"
    },
    {
      "channel": 4,
      "note": 66,
      "start": 12.7737,
      "duration": 0.0966,
      "velocity": 96,
      "chip": "ym2612"
    },
    {
      "channel": 5,
      "note": 81,
      "start": 12.7745,
      "duration": 0.0962,
      "velocity": 96,
      "chip": "ym2612"
    },
    {
      "channel": 2,
      "note": 26,
      "start": 12.7762,
      "duration": 0.0583,
      "velocity": 120,
      "chip": "ym2612"
    },
    {
      "channel": 0,
      "note": 57,
      "start": 12.8689,
      "duration": 0.1944,
      "velocity": 91,
      "chip": "ym2612"
    },
    {
      "channel": 1,
      "note": 59,
      "start": 12.8697,
      "duration": 0.1943,
      "velocity": 87,
      "chip": "ym2612"
    },
    {
      "channel": 2,
      "note": 56,
      "start": 12.8729,
      "duration": 0.0915,
      "velocity": 112,
      "chip": "ym2612"
    },
    {
      "channel": 0,
      "note": 59,
      "start": 13.0639,
      "duration": 0.1917,
      "velocity": 91,
      "chip": "ym2612"
    },
    {
      "channel": 1,
      "note": 58,
      "start": 13.0647,
      "duration": 0.0964,
      "velocity": 87,
      "chip": "ym2612"
    },
    {
      "channel": 3,
      "note": 76,
      "start": 13.0655,
      "duration": 0.0964,
      "velocity": 96,
      "chip": "ym2612"
    },
    {
      "channel": 4,
      "note": 66,
      "start": 13.0663,
      "duration": 0.0964,
      "velocity": 96,
      "chip": "ym2612"
    },
    {
      "channel": 5,
      "note": 81,
      "start": 13.0671,
      "duration": 0.0964,
      "velocity": 96,
      "chip": "ym2612"
    },
    {
      "channel": 2,
      "note": 26,
      "start": 13.0688,
      "duration": 0.0582,
      "velocity": 120,
      "chip": "ym2612"
    },
    {
      "channel": 1,
      "note": 57,
      "start": 13.1617,
      "duration": 0.2923,
      "velocity": 87,
      "chip": "ym2612"
    },
    {
      "channel": 3,
      "note": 76,
      "start": 13.1626,
      "duration": 0.0941,
      "velocity": 96,
      "chip": "ym2612"
    },
    {
      "channel": 4,
      "note": 66,
      "start": 13.1634,
      "duration": 0.0941,
      "velocity": 96,
      "chip": "ym2612"
    },
    {
      "channel": 5,
      "note": 81,
      "start": 13.1642,
      "duration": 0.0941,
      "velocity": 96,
      "chip": "ym2612"
    },
    {
      "channel": 2,
      "note": 26,
      "start": 13.1659,
      "duration": 0.0587,
      "velocity": 120,
      "chip": "ym2612"
    },
    {
      "channel": 0,
      "note": 61,
      "start": 13.2562,
      "duration": 0.0968,
      "velocity": 91,
      "chip": "ym2612"
    },
    {
      "channel": 3,
      "note": 76,
      "start": 13.2573,
      "duration": 0.0964,
      "velocity": 96,
      "chip": "ym2612"
    },
    {
      "channel": 4,
      "note": 66,
      "start": 13.2582,
      "duration": 0.0964,
      "velocity": 96,
      "chip": "ym2612"
    },
    {
      "channel": 5,
      "note": 81,
      "start": 13.259,
      "duration": 0.0964,
      "velocity": 96,
      "chip": "ym2612"
    },
    {
      "channel": 3,
      "note": 76,
      "start": 13.3544,
      "duration": 0.5847,
      "velocity": 96,
      "chip": "ym2612"
    },
    {
      "channel": 4,
      "note": 66,
      "start": 13.3553,
      "duration": 0.5847,
      "velocity": 96,
      "chip": "ym2612"
    },
    {
      "channel": 5,
      "note": 81,
      "start": 13.3561,
      "duration": 0.5847,
      "velocity": 96,
      "chip": "ym2612"
    },
    {
      "channel": 0,
      "note": 64,
      "start": 13.4539,
      "duration": 0.3893,
      "velocity": 91,
      "chip": "ym2612"
    },
    {
      "channel": 1,
      "note": 56,
      "start": 13.4547,
      "duration": 0.0964,
      "velocity": 87,
      "chip": "ym2612"
    },
    {
      "channel": 2,
      "note": 26,
      "start": 13.4574,
      "duration": 0.0597,
      "velocity": 120,
      "chip": "ym2612"
    },
    {
      "channel": 2,
      "note": 26,
      "start": 13.5541,
      "duration": 0.0604,
      "velocity": 120,
      "chip": "ym2612"
    },
    {
      "channel": 2,
      "note": 56,
      "start": 13.6518,
      "duration": 0.0937,
      "velocity": 112,
      "chip": "ym2612"
    },
    {
      "channel": 1,
      "note": 54,
      "start": 13.7442,
      "duration": 0.0999,
      "velocity": 87,
      "chip": "ym2612"
    },
    {
      "channel": 0,
      "note": 71,
      "start": 13.844,
      "duration": 0.0941,
      "velocity": 91,
      "chip": "ym2612"
    },
    {
      "channel": 1,
      "note": 54,
      "start": 13.8448,
      "duration": 0.0938,
      "velocity": 87,
      "chip": "ym2612"
    },
    {
      "channel": 2,
      "note": 26,
      "start": 13.8475,
      "duration": 0.0596,
      "velocity": 120,
      "chip": "ym2612"
    },
    {
      "channel": 3,
      "note": 76,
      "start": 13.9398,
      "duration": 0.1003,
      "velocity": 96,
      "chip": "ym2612"
    },
    {
      "channel": 4,
      "note": 66,
      "start": 13.9406,
      "duration": 0.1004,
      "velocity": 96,
      "chip": "ym2612"
    },
    {
      "channel": 5,
      "note": 81,
      "start": 13.9414,
      "duration": 0.1003,
      "velocity": 96,
      "chip": "ym2612"
    },
    {
      "channel": 0,
      "note": 61,
      "start": 14.0392,
      "duration": 0.0966,
      "velocity": 91,
      "chip": "ym2612"
    },
    {
      "channel": 1,
      "note": 50,
      "start": 14.0399,
      "duration": 0.0967,
      "velocity": 87,
      "chip": "ym2612"
    },
    {
      "channel": 3,
      "note": 78,
      "start": 14.0407,
      "duration": 0.0963,
      "velocity": 96,
      "chip": "ym2612"
    },
    {
      "channel": 4,
      "note": 63,
      "start": 14.0416,
      "duration": 0.096,
      "velocity": 96,
      "chip": "ym2612"
    },
    {
      "channel": 5,
      "note": 83,
      "start": 14.0424,
      "duration": 0.0956,
      "velocity": 96,
      "chip": "ym2612"
    },
    {
      "channel": 2,
      "note": 26,
      "start": 14.0441,
      "duration": 0.058,
      "velocity": 120,
      "chip": "ym2612"
    },
    {
      "channel": 0,
      "note": 60,
      "start": 14.1364,
      "duration": 0.0968,
      "velocity": 91,
      "chip": "ym2612"
    },
    {
      "channel": 2,
      "note": 26,
      "start": 14.14,
      "duration": 0.059,
      "velocity": 120,
      "chip": "ym2612"
    },
    {
      "channel": 0,
      "note": 59,
      "start": 14.2339,
      "duration": 0.0968,
      "velocity": 91,
      "chip": "ym2612"
    },
    {
      "channel": 1,
      "note": 50,
      "start": 14.2347,
      "duration": 0.0969,
      "velocity": 87,
      "chip": "ym2612"
    },
    {
      "channel": 3,
      "note": 78,
      "start": 14.2355,
      "duration": 0.0969,
      "velocity": 96,
      "chip": "ym2612"
    },
    {
      "channel": 4,
      "note": 63,
      "start": 14.2364,
      "duration": 0.0969,
      "velocity": 96,
      "chip": "ym2612"
    },
    {
      "channel": 5,
      "note": 83,
      "start": 14.2372,
      "duration": 0.0968,
      "velocity": 96,
      "chip": "ym2612"
    },
    {
      "channel": 2,
      "note": 26,
      "start": 14.2388,
      "duration": 0.0583,
      "velocity": 120,
      "chip": "ym2612"
    },
    {
      "channel": 0,
      "note": 60,
      "start": 14.3315,
      "duration": 0.0969,
      "velocity": 91,
      "chip": "ym2612"
    },
    {
      "channel": 1,
      "note": 50,
      "start": 14.3322,
      "duration": 0.097,
      "velocity": 87,
      "chip": "ym2612"
    },
    {
      "channel": 3,
      "note": 78,
      "start": 14.3331,
      "duration": 0.0966,
      "velocity": 96,
      "chip": "ym2612"
    },
    {
      "channel": 4,
      "note": 63,
      "start": 14.3339,
      "duration": 0.0963,
      "velocity": 96,
      "chip": "ym2612"
    },
    {
      "channel": 5,
      "note": 83,
      "start": 14.3347,
      "duration": 0.0959,
      "velocity": 96,
      "chip": "ym2612"
    },
    {
      "channel": 2,
      "note": 26,
      "start": 14.3364,
      "duration": 0.0584,
      "velocity": 120,
      "chip": "ym2612"
    },
    {
      "channel": 0,
      "note": 61,
      "start": 14.429,
      "duration": 0.0941,
      "velocity": 91,
      "chip": "ym2612"
    },
    {
      "channel": 2,
      "note": 56,
      "start": 14.4327,
      "duration": 0.0922,
      "velocity": 112,
      "chip": "ym2612"
    },
    {
      "channel": 0,
      "note": 62,
      "start": 14.5239,
      "duration": 0.0994,
      "velocity": 91,
      "chip": "ym2612"
    },
    {
      "channel": 0,
      "note": 64,
      "start": 14.624,
      "duration": 0.0968,
      "velocity": 91,
      "chip": "ym2612"
    },
    {
      "channel": 1,
      "note": 50,
      "start": 14.6248,
      "duration": 0.0969,
      "velocity": 87,
      "chip": "ym2612"
    },
    {
      "channel": 3,
      "note": 78,
      "start": 14.6256,
      "duration": 0.0968,
      "velocity": 96,
      "chip": "ym2612"
    },
    {
      "channel": 4,
      "note": 63,
      "start": 14.6264,
      "duration": 0.0968,
      "velocity": 96,
      "chip": "ym2612"
    },
    {
      "channel": 5,
      "note": 83,
      "start": 14.6273,
      "duration": 0.0968,
      "velocity": 96,
      "chip": "ym2612"
    },
    {
      "channel": 2,
      "note": 26,
      "start": 14.629,
      "duration": 0.0582,
      "velocity": 120,
      "chip": "ym2612"
    },
    {
      "channel": 0,
      "note": 66,
      "start": 14.7215,
      "duration": 0.0941,
      "velocity": 91,
      "chip": "ym2612"
    },
    {
      "channel": 1,
      "note": 50,
      "start": 14.7223,
      "duration": 0.0942,
      "velocity": 87,
      "chip": "ym2612"
    },
    {
      "channel": 3,
      "note": 78,
      "start": 14.7231,
      "duration": 0.0938,
      "velocity": 96,
      "chip": "ym2612"
    },
    {
      "channel": 4,
      "note": 63,
      "start": 14.724,
      "duration": 0.0935,
      "velocity": 96,
      "chip": "ym2612"
    },
    {
      "channel": 5,
      "note": 83,
      "start": 14.7248,
      "duration": 0.0932,
      "velocity": 96,
      "chip": "ym2612"
    },
    {
      "channel": 2,
      "note": 26,
      "start": 14.7264,
      "duration": 0.0583,
      "velocity": 120,
      "chip": "ym2612"
    },
    {
      "channel": 0,
      "note": 69,
      "start": 14.8164,
      "duration": 0.392,
      "velocity": 91,
      "chip": "ym2612"
    },
    {
      "channel": 1,
      "note": 50,
      "start": 14.914,
      "duration": 0.0997,
      "velocity": 87,
      "chip": "ym2612"
    },
    {
      "channel": 3,
      "note": 78,
      "start": 14.9149,
      "duration": 0.0997,
      "velocity": 96,
      "chip": "ym2612"
    },
    {
      "channel": 4,
      "note": 63,
      "start": 14.9157,
      "duration": 0.0993,
      "velocity": 96,
      "chip": "ym2612"
    },
    {
      "channel": 5,
      "note": 83,
      "start": 14.9165,
      "duration": 0.099,
      "velocity": 96,
      "chip": "ym2612"
    },
    {
      "channel": 1,
      "note": 55,
      "start": 15.0144,
      "duration": 0.0969,
      "velocity": 87,
      "chip": "ym2612"
    },
    {
      "channel": 2,
      "note": 26,
      "start": 15.0175,
      "duration": 0.0592,
      "velocity": 120,
      "chip": "ym2612"
    },
    {
      "channel": 1,
      "note": 56,
      "start": 15.1119,
      "duration": 0.2923,
      "velocity": 87,
      "chip": "ym2612"
    },
    {
      "channel": 3,
      "note": 78,
      "start": 15.1128,
      "duration": 0.0968,
      "velocity": 96,
      "chip": "ym2612"
    },
    {
      "channel": 4,
      "note": 63,
      "start": 15.1136,
      "duration": 0.0968,
      "velocity": 96,
      "chip": "ym2612"
    },
    {
      "channel": 5,
      "note": 83,
      "start": 15.1144,
      "duration": 0.0968,
      "velocity": 96,
      "chip": "ym2612"
    },
    {
      "channel": 2,
      "note": 26,
      "start": 15.1161,
      "duration": 0.0587,
      "velocity": 120,
      "chip": "ym2612"
    },
    {
      "channel": 0,
      "note": 68,
      "start": 15.209,
      "duration": 0.0943,
      "velocity": 91,
      "chip": "ym2612"
    },
    {
      "channel": 3,
      "note": 78,
      "start": 15.2102,
      "duration": 0.0943,
      "velocity": 96,
      "chip": "ym2612"
    },
    {
      "channel": 4,
      "note": 63,
      "start": 15.211,
      "duration": 0.0942,
      "velocity": 96,
      "chip": "ym2612"
    },
    {
      "channel": 5,
      "note": 83,
      "start": 15.2119,
      "duration": 0.0942,
      "velocity": 96,
      "chip": "ym2612"
    },
    {
      "channel": 2,
      "note": 56,
      "start": 15.2137,
      "duration": 0.0934,
      "velocity": 112,
      "chip": "ym2612"
    },
    {
      "channel": 0,
      "note": 69,
      "start": 15.304,
      "duration": 0.0994,
      "velocity": 91,
      "chip": "ym2612"
    },
    {
      "channel": 3,
      "note": 78,
      "start": 15.3051,
      "duration": 0.0999,
      "velocity": 96,
      "chip": "ym2612"
    },
    {
      "channel": 4,
      "note": 63,
      "start": 15.306,
      "duration": 0.0999,
      "velocity": 96,
      "chip": "ym2612"
    },
    {
      "channel": 5,
      "note": 83,
      "start": 15.3068,
      "duration": 0.0999,
      "velocity": 96,
      "chip": "ym2612"
    },
    {
      "channel": 0,
      "note": 68,
      "start": 15.4041,
      "duration": 0.0941,
      "velocity": 91,
      "chip": "ym2612"
    },
    {
      "channel": 1,
      "note": 59,
      "start": 15.4049,
      "duration": 0.0942,
      "velocity": 87,
      "chip": "ym2612"
    },
    {
      "channel": 3,
      "note": 78,
      "start": 15.4057,
      "duration": 0.0941,
      "velocity": 96,
      "chip": "ym2612"
    },
    {
      "channel": 4,
      "note": 63,
      "start": 15.4065,
      "duration": 0.0941,
      "velocity": 96,
      "chip": "ym2612"
    },
    {
      "channel": 5,
      "note": 83,
      "start": 15.4073,
      "duration": 0.0941,
      "velocity": 96,
      "chip": "ym2612"
    },
    {
      "channel": 2,
      "note": 26,
      "start": 15.409,
      "duration": 0.0583,
      "velocity": 120,
      "chip": "ym2612"
    },
    {
      "channel": 0,
      "note": 66,
      "start": 15.4989,
      "duration": 0.0998,
      "velocity": 91,
      "chip": "ym2612"
    },
    {
      "channel": 1,
      "note": 50,
      "start": 15.4997,
      "duration": 0.1,
      "velocity": 87,
      "chip": "ym2612"
    },
    {
      "channel": 3,
      "note": 78,
      "start": 15.5005,
      "duration": 0.1002,
      "velocity": 96,
      "chip": "ym2612"
    },
    {
      "channel": 4,
      "note": 63,
      "start": 15.5014,
      "duration": 0.1,
      "velocity": 96,
      "chip": "ym2612"
    },
    {
      "channel": 5,
      "note": 83,
      "start": 15.5022,
      "duration": 0.0999,
      "velocity": 96,
      "chip": "ym2612"
    },
    {
      "channel": 0,
      "note": 68,
      "start": 15.5993,
      "duration": 0.1941,
      "velocity": 91,
      "chip": "ym2612"
    },
    {
      "channel": 1,
      "note": 52,
      "start": 15.6004,
      "duration": 0.0959,
      "velocity": 87,
      "chip": "ym2612"
    },
    {
      "channel": 2,
      "note": 26,
      "start": 15.6041,
      "duration": 0.0578,
      "velocity": 120,
      "chip": "ym2612"
    },
    {
      "channel": 1,
      "note": 54,
      "start": 15.6969,
      "duration": 0.0974,
      "velocity": 87,
      "chip": "ym2612"
    },
    {
      "channel": 2,
      "note": 26,
      "start": 15.6992,
      "duration": 0.0601,
      "velocity": 120,
      "chip": "ym2612"
    },
    {
      "channel": 0,
      "note": 64,
      "start": 15.7941,
      "duration": 0.0968,
      "velocity": 91,
      "chip": "ym2612"
    },
    {
      "channel": 3,
      "note": 76,
      "start": 15.7955,
      "duration": 0.0971,
      "velocity": 96,
      "chip": "ym2612"
    },
    {
      "channel": 4,
      "note": 66,
      "start": 15.7963,
      "duration": 0.0971,
      "velocity": 96,
      "chip": "ym2612"
    },
    {
      "channel": 5,
      "note": 81,
      "start": 15.7971,
      "duration": 0.0971,
      "velocity": 96,
      "chip": "ym2612"
    },
    {
      "channel": 2,
      "note": 26,
      "start": 15.7988,
      "duration": 0.0584,
      "velocity": 120,
      "chip": "ym2612"
    },
    {
      "channel": 0,
      "note": 66,
      "start": 15.8917,
      "duration": 0.3893,
      "velocity": 91,
      "chip": "ym2612"
    },
    {
      "channel": 1,
      "note": 60,
      "start": 15.8925,
      "duration": 0.0963,
      "velocity": 87,
      "chip": "ym2612"
    },
    {
      "channel": 3,
      "note": 76,
      "start": 15.8932,
      "duration": 0.0964,
      "velocity": 96,
      "chip": "ym2612"
    },
    {
      "channel": 4,
      "note": 66,
      "start": 15.8941,
      "duration": 0.0959,
      "velocity": 96,
      "chip": "ym2612"
    },
    {
      "channel": 5,
      "note": 81,
      "start": 15.8949,
      "duration": 0.0956,
      "velocity": 96,
      "chip": "ym2612"
    },
    {
      "channel": 2,
      "note": 26,
      "start": 15.8966,
      "duration": 0.0582,
      "velocity": 120,
      "chip": "ym2612"
    },
    {
      "channel": 1,
      "note": 59,
      "start": 15.9895,
      "duration": 0.1943,
      "velocity": 87,
      "chip": "ym2612"
    },
    {
      "channel": 2,
      "note": 56,
      "start": 15.9927,
      "duration": 0.0921,
      "velocity": 112,
      "chip": "ym2612"
    },
    {
      "channel": 1,
      "note": 58,
      "start": 16.1845,
      "duration": 0.097,
      "velocity": 87,
      "chip": "ym2612"
    },
    {
      "channel": 3,
      "note": 76,
      "start": 16.1853,
      "duration": 0.097,
      "velocity": 96,
      "chip": "ym2612"
    },
    {
      "channel": 4,
      "note": 66,
      "start": 16.1861,
      "duration": 0.097,
      "velocity": 96,
      "chip": "ym2612"
    },
    {
      "channel": 5,
      "note": 81,
      "start": 16.1869,
      "duration": 0.0969,
      "velocity": 96,
      "chip": "ym2612"
    },
    {
      "channel": 2,
      "note": 26,
      "start": 16.1886,
      "duration": 0.0588,
      "velocity": 120,
      "chip": "ym2612"
    },
    {
      "channel": 1,
      "note": 57,
      "start": 16.2821,
      "duration": 0.2918,
      "velocity": 87,
      "chip": "ym2612"
    },
    {
      "channel": 3,
      "note": 76,
      "start": 16.2829,
      "duration": 0.0941,
      "velocity": 96,
      "chip": "ym2612"
    },
    {
      "channel": 4,
      "note": 66,
      "start": 16.2838,
      "duration": 0.0941,
      "velocity": 96,
      "chip": "ym2612"
    },
    {
      "channel": 5,
      "note": 81,
      "start": 16.2846,
      "duration": 0.0941,
      "velocity": 96,
      "chip": "ym2612"
    },
    {
      "channel": 2,
      "note": 26,
      "start": 16.2862,
      "duration": 0.0585,
      "velocity": 120,
      "chip": "ym2612"
    },
    {
      "channel": 0,
      "note": 64,
      "start": 16.3765,
      "duration": 0.392,
      "velocity": 91,
      "chip": "ym2612"
    },
    {
      "channel": 3,
      "note": 76,
      "start": 16.3777,
      "duration": 0.0962,
      "velocity": 96,
      "chip": "ym2612"
    },
    {
      "channel": 4,
      "note": 66,
      "start": 16.3785,
      "duration": 0.0962,
      "velocity": 96,
      "chip": "ym2612"
    },
    {
      "channel": 5,
      "note": 81,
      "start": 16.3794,
      "duration": 0.0962,
      "velocity": 96,
      "chip": "ym2612"
    },
    {
      "channel": 3,
      "note": 76,
      "start": 16.4746,
      "duration": 0.6859,
      "velocity": 96,
      "chip": "ym2612"
    },
    {
      "channel": 4,
      "note": 66,
      "start": 16.4754,
      "duration": 0.6859,
      "velocity": 96,
      "chip": "ym2612"
    },
    {
      "channel": 5,
      "note": 81,
      "start": 16.4763,
      "duration": 0.6859,
      "velocity": 96,
      "chip": "ym2612"
    },
    {
      "channel": 1,
      "note": 56,
      "start": 16.5745,
      "duration": 0.0969,
      "velocity": 87,
      "chip": "ym2612"
    },
    {
      "channel": 2,
      "note": 26,
      "start": 16.5773,
      "duration": 0.0601,
      "velocity": 120,
      "chip": "ym2612"
    },
    {
      "channel": 2,
      "note": 26,
      "start": 16.6744,
      "duration": 0.0604,
      "velocity": 120,
      "chip": "ym2612"
    },
    {
      "channel": 0,
      "note": 62,
      "start": 16.7692,
      "duration": 0.2893,
      "velocity": 91,
      "chip": "ym2612"
    },
    {
      "channel": 2,
      "note": 56,
      "start": 16.7726,
      "duration": 0.0931,
      "velocity": 112,
      "chip": "ym2612"
    },
    {
      "channel": 1,
      "note": 54,
      "start": 16.8644,
      "duration": 0.0997,
      "velocity": 87,
      "chip": "ym2612"
    },
    {
      "channel": 1,
      "note": 54,
      "start": 16.9647,
      "duration": 0.0943,
      "velocity": 87,
      "chip": "ym2612"
    },
    {
      "channel": 2,
      "note": 26,
      "start": 16.9674,
      "duration": 0.0601,
      "velocity": 120,
      "chip": "ym2612"
    },
    {
      "channel": 0,
      "note": 61,
      "start": 17.1595,
      "duration": 0.7765,
      "velocity": 91,
      "chip": "ym2612"
    },
    {
      "channel": 1,
      "note": 50,
      "start": 17.1603,
      "duration": 0.0961,
      "velocity": 87,
      "chip": "ym2612"
    },
    {
      "channel": 3,
      "note": 78,
      "start": 17.1612,
      "duration": 0.0957,
      "velocity": 96,
      "chip": "ym2612"
    },
    {
      "channel": 4,
      "note": 63,
      "start": 17.162,
      "duration": 0.0953,
      "velocity": 96,
      "chip": "ym2612"
    },
    {
      "channel": 5,
      "note": 83,
      "start": 17.1628,
      "duration": 0.095,
      "velocity": 96,
      "chip": "ym2612"
    },
    {
      "channel": 2,
      "note": 26,
      "start": 17.1645,
      "duration": 0.0579,
      "velocity": 120,
      "chip": "ym2612"
    },
    {
      "channel": 2,
      "note": 26,
      "start": 17.2598,
      "duration": 0.0595,
      "velocity": 120,
      "chip": "ym2612"
    },
    {
      "channel": 1,
      "note": 50,
      "start": 17.3546,
      "duration": 0.0969,
      "velocity": 87,
      "chip": "ym2612"
    },
    {
      "channel": 3,
      "note": 78,
      "start": 17.3554,
      "duration": 0.0969,
      "velocity": 96,
      "chip": "ym2612"
    },
    {
      "channel": 4,
      "note": 63,
      "start": 17.3562,
      "duration": 0.0969,
      "velocity": 96,
      "chip": "ym2612"
    },
    {
      "channel": 5,
      "note": 83,
      "start": 17.357,
      "duration": 0.0968,
      "velocity": 96,
      "chip": "ym2612"
    },
    {
      "channel": 2,
      "note": 26,
      "start": 17.3587,
      "duration": 0.0588,
      "velocity": 120,
      "chip": "ym2612"
    },
    {
      "channel": 1,
      "note": 50,
      "start": 17.4521,
      "duration": 0.0969,
      "velocity": 87,
      "chip": "ym2612"
    },
    {
      "channel": 3,
      "note": 78,
      "start": 17.4529,
      "duration": 0.0965,
      "velocity": 96,
      "chip": "ym2612"
    },
    {
      "channel": 4,
      "note": 63,
      "start": 17.4537,
      "duration": 0.0962,
      "velocity": 96,
      "chip": "ym2612"
    },
    {
      "channel": 5,
      "note": 83,
      "start": 17.4546,
      "duration": 0.0958,
      "velocity": 96,
      "chip": "ym2612"
    },
    {
      "channel": 2,
      "note": 26,
      "start": 17.4562,
      "duration": 0.0588,
      "velocity": 120,
      "chip": "ym2612"
    },
    {
      "channel": 2,
      "note": 56,
      "start": 17.5524,
      "duration": 0.0923,
      "velocity": 112,
      "chip": "ym2612"
    },
    {
      "channel": 1,
      "note": 50,
      "start": 17.7446,
      "duration": 0.0969,
      "velocity": 87,
      "chip": "ym2612"
    },
    {
      "channel": 3,
      "note": 78,
      "start": 17.7455,
      "duration": 0.0968,
      "velocity": 96,
      "chip": "ym2612"
    },
    {
      "channel": 4,
      "note": 63,
      "start": 17.7463,
      "duration": 0.0968,
      "velocity": 96,
      "chip": "ym2612"
    },
    {
      "channel": 5,
      "note": 83,
      "start": 17.7471,
      "duration": 0.0969,
      "velocity": 96,
      "chip": "ym2612"
    },
    {
      "channel": 2,
      "note": 26,
      "start": 17.7488,
      "duration": 0.0588,
      "velocity": 120,
      "chip": "ym2612"
    },
    {
      "channel": 1,
      "note": 50,
      "start": 17.8422,
      "duration": 0.0943,
      "velocity": 87,
      "chip": "ym2612"
    },
    {
      "channel": 3,
      "note": 78,
      "start": 17.843,
      "duration": 0.094,
      "velocity": 96,
      "chip": "ym2612"
    },
    {
      "channel": 4,
      "note": 63,
      "start": 17.8438,
      "duration": 0.0937,
      "velocity": 96,
      "chip": "ym2612"
    },
    {
      "channel": 5,
      "note": 83,
      "start": 17.8447,
      "duration": 0.0933,
      "velocity": 96,
      "chip": "ym2612"
    },
    {
      "channel": 2,
      "note": 26,
      "start": 17.8463,
      "duration": 0.0587,
      "velocity": 120,
      "chip": "ym2612"
    },
    {
      "channel": 1,
      "note": 50,
      "start": 18.0342,
      "duration": 0.1003,
      "velocity": 87,
      "chip": "ym2612"
    },
    {
      "channel": 3,
      "note": 78,
      "start": 18.035,
      "duration": 0.1002,
      "velocity": 96,
      "chip": "ym2612"
    },
    {
      "channel": 4,
      "note": 63,
      "start": 18.0359,
      "duration": 0.0999,
      "velocity": 96,
      "chip": "ym2612"
    },
    {
      "channel": 5,
      "note": 83,
      "start": 18.0367,
      "duration": 0.0995,
      "velocity": 96,
      "chip": "ym2612"
    },
    {
      "channel": 0,
      "note": 52,
      "start": 18.1343,
      "duration": 0.1944,
      "velocity": 91,
      "chip": "ym2612"
    },
    {
      "channel": 1,
      "note": 55,
      "start": 18.1351,
      "duration": 0.0963,
      "velocity": 87,
      "chip": "ym2612"
    },
    {
      "channel": 2,
      "note": 26,
      "start": 18.1383,
      "duration": 0.0588,
      "velocity": 120,
      "chip": "ym2612"
    },
    {
      "channel": 1,
      "note": 56,
      "start": 18.2321,
      "duration": 0.2924,
      "velocity": 87,
      "chip": "ym2612"
    },
    {
      "channel": 3,
      "note": 78,
      "start": 18.2329,
      "duration": 0.097,
      "velocity": 96,
      "chip": "ym2612"
    },
    {
      "channel": 4,
      "note": 63,
      "start": 18.2338,
      "duration": 0.0969,
      "velocity": 96,
      "chip": "ym2612"
    },
    {
      "channel": 5,
      "note": 83,
      "start": 18.2346,
      "duration": 0.0969,
      "velocity": 96,
      "chip": "ym2612"
    },
    {
      "channel": 2,
      "note": 26,
      "start": 18.2362,
      "duration": 0.0588,
      "velocity": 120,
      "chip": "ym2612"
    },
    {
      "channel": 0,
      "note": 51,
      "start": 18.3294,
      "duration": 0.0941,
      "velocity": 91,
      "chip": "ym2612"
    },
    {
      "channel": 3,
      "note": 78,
      "start": 18.3305,
      "duration": 0.0941,
      "velocity": 96,
      "chip": "ym2612"
    },
    {
      "channel": 4,
      "note": 63,
      "start": 18.3313,
      "duration": 0.0941,
      "velocity": 96,
      "chip": "ym2612"
    },
    {
      "channel": 5,
      "note": 83,
      "start": 18.3322,
      "duration": 0.0941,
      "velocity": 96,
      "chip": "ym2612"
    },
    {
      "channel": 2,
      "note": 56,
      "start": 18.3339,
      "duration": 0.0934,
      "velocity": 112,
      "chip": "ym2612"
    },
    {
      "channel": 0,
      "note": 50,
      "start": 18.4242,
      "duration": 0.0995,
      "velocity": 91,
      "chip": "ym2612"
    },
    {
      "channel": 3,
      "note": 78,
      "start": 18.4254,
      "duration": 0.1,
      "velocity": 96,
      "chip": "ym2612"
    },
    {
      "channel": 4,
      "note": 63,
      "start": 18.4262,
      "duration": 0.1,
      "velocity": 96,
      "chip": "ym2612"
    },
    {
      "channel": 5,
      "note": 83,
      "start": 18.427,
      "duration": 0.1,
      "velocity": 96,
      "chip": "ym2612"
    },
    {
      "channel": 0,
      "note": 49,
      "start": 18.5244,
      "duration": 0.1945,
      "velocity": 91,
      "chip": "ym2612"
    },
    {
      "channel": 1,
      "note": 59,
      "start": 18.5252,
      "duration": 0.0937,
      "velocity": 87,
      "chip": "ym2612"
    },
    {
      "channel": 3,
      "note": 78,
      "start": 18.526,
      "duration": 0.0937,
      "velocity": 96,
      "chip": "ym2612"
    },
    {
      "channel": 4,
      "note": 63,
      "start": 18.5268,
      "duration": 0.0936,
      "velocity": 96,
      "chip": "ym2612"
    },
    {
      "channel": 5,
      "note": 83,
      "start": 18.5277,
      "duration": 0.0936,
      "velocity": 96,
      "chip": "ym2612"
    },
    {
      "channel": 2,
      "note": 26,
      "start": 18.5294,
      "duration": 0.0582,
      "velocity": 120,
      "chip": "ym2612"
    },
    {
      "channel": 1,
      "note": 50,
      "start": 18.6195,
      "duration": 0.1005,
      "velocity": 87,
      "chip": "ym2612"
    },
    {
      "channel": 3,
      "note": 78,
      "start": 18.6203,
      "duration": 0.1034,
      "velocity": 96,
      "chip": "ym2612"
    },
    {
      "channel": 4,
      "note": 63,
      "start": 18.6212,
      "duration": 0.1064,
      "velocity": 96,
      "chip": "ym2612"
    },
    {
      "channel": 5,
      "note": 83,
      "start": 18.622,
      "duration": 0.1094,
      "velocity": 96,
      "chip": "ym2612"
    },
    {
      "channel": 0,
      "note": 47,
      "start": 18.7196,
      "duration": 0.0966,
      "velocity": 91,
      "chip": "ym2612"
    },
    {
      "channel": 1,
      "note": 52,
      "start": 18.7207,
      "duration": 0.0964,
      "velocity": 87,
      "chip": "ym2612"
    },
    {
      "channel": 3,
      "note": 76,
      "start": 18.7245,
      "duration": 0.0934,
      "velocity": 96,
      "chip": "ym2612"
    },
    {
      "channel": 4,
      "note": 66,
      "start": 18.7283,
      "duration": 0.0901,
      "velocity": 96,
      "chip": "ym2612"
    },
    {
      "channel": 5,
      "note": 81,
      "start": 18.732,
      "duration": 0.0868,
      "velocity": 96,
      "chip": "ym2612"
    },
    {
      "channel": 2,
      "note": 26,
      "start": 18.7338,
      "duration": 0.0488,
      "velocity": 120,
      "chip": "ym2612"
    },
    {
      "channel": 0,
      "note": 49,
      "start": 18.8169,
      "duration": 0.0969,
      "velocity": 91,
      "chip": "ym2612"
    },
    {
      "channel": 1,
      "note": 54,
      "start": 18.8177,
      "duration": 0.0969,
      "velocity": 87,
      "chip": "ym2612"
    },
    {
      "channel": 2,
      "note": 26,
      "start": 18.8208,
      "duration": 0.0588,
      "velocity": 120,
      "chip": "ym2612"
    },
    {
      "channel": 0,
      "note": 50,
      "start": 18.9145,
      "duration": 0.0968,
      "velocity": 91,
      "chip": "ym2612"
    },
    {
      "channel": 3,
      "note": 76,
      "start": 18.9158,
      "duration": 0.0971,
      "velocity": 96,
      "chip": "ym2612"
    },
    {
      "channel": 4,
      "note": 66,
      "start": 18.9166,
      "duration": 0.0971,
      "velocity": 96,
      "chip": "ym2612"
    },
    {
      "channel": 5,
      "note": 81,
      "start": 18.9174,
      "duration": 0.0971,
      "velocity": 96,
      "chip": "ym2612"
    },
    {
      "channel": 2,
      "note": 26,
      "start": 18.9191,
      "duration": 0.0585,
      "velocity": 120,
      "chip": "ym2612"
    },
    {
      "channel": 0,
      "note": 52,
      "start": 19.0119,
      "duration": 0.0968,
      "velocity": 91,
      "chip": "ym2612"
    },
    {
      "channel": 1,
      "note": 60,
      "start": 19.0128,
      "duration": 0.0968,
      "velocity": 87,
      "chip": "ym2612"
    },
    {
      "channel": 3,
      "note": 76,
      "start": 19.0135,
      "duration": 0.0969,
      "velocity": 96,
      "chip": "ym2612"
    },
    {
      "channel": 4,
      "note": 66,
      "start": 19.0144,
      "duration": 0.0966,
      "velocity": 96,
      "chip": "ym2612"
    },
    {
      "channel": 5,
      "note": 81,
      "start": 19.0152,
      "duration": 0.0962,
      "velocity": 96,
      "chip": "ym2612"
    },
    {
      "channel": 2,
      "note": 26,
      "start": 19.0168,
      "duration": 0.0583,
      "velocity": 120,
      "chip": "ym2612"
    },
    {
      "channel": 0,
      "note": 54,
      "start": 19.1095,
      "duration": 0.0942,
      "velocity": 91,
      "chip": "ym2612"
    },
    {
      "channel": 1,
      "note": 59,
      "start": 19.1102,
      "duration": 0.1944,
      "velocity": 87,
      "chip": "ym2612"
    },
    {
      "channel": 2,
      "note": 56,
      "start": 19.1135,
      "duration": 0.0919,
      "velocity": 112,
      "chip": "ym2612"
    },
    {
      "channel": 0,
      "note": 56,
      "start": 19.2043,
      "duration": 0.0995,
      "velocity": 91,
      "chip": "ym2612"
    },
    {
      "channel": 0,
      "note": 57,
      "start": 19.3044,
      "duration": 0.0968,
      "velocity": 91,
      "chip": "ym2612"
    },
    {
      "channel": 1,
      "note": 58,
      "start": 19.3053,
      "duration": 0.0968,
      "velocity": 87,
      "chip": "ym2612"
    },
    {
      "channel": 3,
      "note": 76,
      "start": 19.3061,
      "duration": 0.0968,
      "velocity": 96,
      "chip": "ym2612"
    },
    {
      "channel": 4,
      "note": 66,
      "start": 19.3069,
      "duration": 0.0968,
      "velocity": 96,
      "chip": "ym2612"
    },
    {
      "channel": 5,
      "note": 81,
      "start": 19.3077,
      "duration": 0.0968,
      "velocity": 96,
      "chip": "ym2612"
    },
    {
      "channel": 2,
      "note": 26,
      "start": 19.3094,
      "duration": 0.0583,
      "velocity": 120,
      "chip": "ym2612"
    },
    {
      "channel": 0,
      "note": 59,
      "start": 19.402,
      "duration": 0.0942,
      "velocity": 91,
      "chip": "ym2612"
    },
    {
      "channel": 1,
      "note": 57,
      "start": 19.4027,
      "duration": 0.292,
      "velocity": 87,
      "chip": "ym2612"
    },
    {
      "channel": 3,
      "note": 76,
      "start": 19.4035,
      "duration": 0.0938,
      "velocity": 96,
      "chip": "ym2612"
    },
    {
      "channel": 4,
      "note": 66,
      "start": 19.4044,
      "duration": 0.0938,
      "velocity": 96,
      "chip": "ym2612"
    },
    {
      "channel": 5,
      "note": 81,
      "start": 19.4052,
      "duration": 0.0937,
      "velocity": 96,
      "chip": "ym2612"
    },
    {
      "channel": 2,
      "note": 26,
      "start": 19.4068,
      "duration": 0.0583,
      "velocity": 120,
      "chip": "ym2612"
    },
    {
      "channel": 0,
      "note": 61,
      "start": 19.4968,
      "duration": 0.0968,
      "velocity": 91,
      "chip": "ym2612"
    },
    {
      "channel": 3,
      "note": 76,
      "start": 19.4979,
      "duration": 0.0968,
      "velocity": 96,
      "chip": "ym2612"
    },
    {
      "channel": 4,
      "note": 66,
      "start": 19.4988,
      "duration": 0.0968,
      "velocity": 96,
      "chip": "ym2612"
    },
    {
      "channel": 5,
      "note": 81,
      "start": 19.4996,
      "duration": 0.0968,
      "velocity": 96,
      "chip": "ym2612"
    },
    {
      "channel": 0,
      "note": 62,
      "start": 19.5943,
      "duration": 0.0996,
      "velocity": 91,
      "chip": "ym2612"
    },
    {
      "channel": 3,
      "note": 76,
      "start": 19.5954,
      "duration": 0.5842,
      "velocity": 96,
      "chip": "ym2612"
    },
    {
      "channel": 4,
      "note": 66,
      "start": 19.5962,
      "duration": 0.5841,
      "velocity": 96,
      "chip": "ym2612"
    },
    {
      "channel": 5,
      "note": 81,
      "start": 19.5971,
      "duration": 0.5841,
      "velocity": 96,
      "chip": "ym2612"
    },
    {
      "channel": 0,
      "note": 64,
      "start": 19.6945,
      "duration": 0.0968,
      "velocity": 91,
      "chip": "ym2612"
    },
    {
      "channel": 1,
      "note": 56,
      "start": 19.6953,
      "duration": 0.0968,
      "velocity": 87,
      "chip": "ym2612"
    },
    {
      "channel": 2,
      "note": 26,
      "start": 19.698,
      "duration": 0.0596,
      "velocity": 120,
      "chip": "ym2612"
    },
    {
      "channel": 0,
      "note": 66,
      "start": 19.792,
      "duration": 0.0968,
      "velocity": 91,
      "chip": "ym2612"
    },
    {
      "channel": 2,
      "note": 26,
      "start": 19.7952,
      "duration": 0.0598,
      "velocity": 120,
      "chip": "ym2612"
    },
    {
      "channel": 2,
      "note": 56,
      "start": 19.8926,
      "duration": 0.0939,
      "velocity": 112,
      "chip": "ym2612"
    },
    {
      "channel": 0,
      "note": 69,
      "start": 19.9844,
      "duration": 0.0994,
      "velocity": 91,
      "chip": "ym2612"
    },
    {
      "channel": 1,
      "note": 54,
      "start": 19.9852,
      "duration": 0.0994,
      "velocity": 87,
      "chip": "ym2612"
    },
    {
      "channel": 0,
      "note": 68,
      "start": 20.0845,
      "duration": 0.1946,
      "velocity": 91,
      "chip": "ym2612"
    },
    {
      "channel": 1,
      "note": 54,
      "start": 20.0853,
      "duration": 0.0938,
      "velocity": 87,
      "chip": "ym2612"
    },
    {
      "channel": 2,
      "note": 26,
      "start": 20.088,
      "duration": 0.0597,
      "velocity": 120,
      "chip": "ym2612"
    },
    {
      "channel": 3,
      "note": 76,
      "start": 20.1802,
      "duration": 0.1005,
      "velocity": 96,
      "chip": "ym2612"
    },
    {
      "channel": 4,
      "note": 66,
      "start": 20.181,
      "duration": 0.1006,
      "velocity": 96,
      "chip": "ym2612"
    },
    {
      "channel": 5,
      "note": 81,
      "start": 20.1819,
      "duration": 0.1005,
      "velocity": 96,
      "chip": "ym2612"
    },
    {
      "channel": 0,
      "note": 71,
      "start": 20.2798,
      "duration": 0.1941,
      "velocity": 91,
      "chip": "ym2612"
    },
    {
      "channel": 1,
      "note": 50,
      "start": 20.2806,
      "duration": 0.0961,
      "velocity": 87,
      "chip": "ym2612"
    },
    {
      "channel": 3,
      "note": 78,
      "start": 20.2814,
      "duration": 0.0958,
      "velocity": 96,
      "chip": "ym2612"
    },
    {
      "channel": 4,
      "note": 63,
      "start": 20.2822,
      "duration": 0.0955,
      "velocity": 96,
      "chip": "ym2612"
    },
    {
      "channel": 5,
      "note": 83,
      "start": 20.2831,
      "duration": 0.0951,
      "velocity": 96,
      "chip": "ym2612"
    },
    {
      "channel": 2,
      "note": 26,
      "start": 20.2847,
      "duration": 0.058,
      "velocity": 120,
      "chip": "ym2612"
    },
    {
      "channel": 2,
      "note": 26,
      "start": 20.3802,
      "duration": 0.0594,
      "velocity": 120,
      "chip": "ym2612"
    },
    {
      "channel": 0,
      "note": 69,
      "start": 20.4746,
      "duration": 0.0968,
      "velocity": 91,
      "chip": "ym2612"
    },
    {
      "channel": 1,
      "note": 50,
      "start": 20.4754,
      "duration": 0.0965,
      "velocity": 87,
      "chip": "ym2612"
    },
    {
      "channel": 3,
      "note": 78,
      "start": 20.4762,
      "duration": 0.0965,
      "velocity": 96,
      "chip": "ym2612"
    },
    {
      "channel": 4,
      "note": 63,
      "start": 20.477,
      "duration": 0.0965,
      "velocity": 96,
      "chip": "ym2612"
    },
    {
      "channel": 5,
      "note": 83,
      "start": 20.4779,
      "duration": 0.0964,
      "velocity": 96,
      "chip": "ym2612"
    },
    {
      "channel": 2,
      "note": 26,
      "start": 20.4796,
      "duration": 0.0582,
      "velocity": 120,
      "chip": "ym2612"
    },
    {
      "channel": 1,
      "note": 50,
      "start": 20.5725,
      "duration": 0.0972,
      "velocity": 87,
      "chip": "ym2612"
    },
    {
      "channel": 3,
      "note": 78,
      "start": 20.5733,
      "duration": 0.0969,
      "velocity": 96,
      "chip": "ym2612"
    },
    {
      "channel": 4,
      "note": 63,
      "start": 20.5741,
      "duration": 0.0965,
      "velocity": 96,
      "chip": "ym2612"
    },
    {
      "channel": 5,
      "note": 83,
      "start": 20.575,
      "duration": 0.0962,
      "velocity": 96,
      "chip": "ym2612"
    },
    {
      "channel": 2,
      "note": 26,
      "start": 20.5766,
      "duration": 0.0585,
      "velocity": 120,
      "chip": "ym2612"
    },
    {
      "channel": 0,
      "note": 69,
      "start": 20.6696,
      "duration": 0.0942,
      "velocity": 91,
      "chip": "ym2612"
    },
    {
      "channel": 2,
      "note": 56,
      "start": 20.6733,
      "duration": 0.0922,
      "velocity": 112,
      "chip": "ym2612"
    },
    {
      "channel": 0,
      "note": 68,
      "start": 20.7645,
      "duration": 0.0994,
      "velocity": 91,
      "chip": "ym2612"
    },
    {
      "channel": 0,
      "note": 66,
      "start": 20.8646,
      "duration": 0.0969,
      "velocity": 91,
      "chip": "ym2612"
    },
    {
      "channel": 1,
      "note": 50,
      "start": 20.8654,
      "duration": 0.0969,
      "velocity": 87,
      "chip": "ym2612"
    },
    {
      "channel": 3,
      "note": 78,
      "start": 20.8662,
      "duration": 0.0969,
      "velocity": 96,
      "chip": "ym2612"
    },
    {
      "channel": 4,
      "note": 63,
      "start": 20.867,
      "duration": 0.0969,
      "velocity": 96,
      "chip": "ym2612"
    },
    {
      "channel": 5,
      "note": 83,
      "start": 20.8678,
      "duration": 0.0968,
      "velocity": 96,
      "chip": "ym2612"
    },
    {
      "channel": 2,
      "note": 26,
      "start": 20.8695,
      "duration": 0.0583,
      "velocity": 120,
      "chip": "ym2612"
    },
    {
      "channel": 0,
      "note": 68,
      "start": 20.9621,
      "duration": 0.0942,
      "velocity": 91,
      "chip": "ym2612"
    },
    {
      "channel": 1,
      "note": 50,
      "start": 20.9629,
      "duration": 0.0939,
      "velocity": 87,
      "chip": "ym2612"
    },
    {
      "channel": 3,
      "note": 78,
      "start": 20.9637,
      "duration": 0.0936,
      "velocity": 96,
      "chip": "ym2612"
    },
    {
      "channel": 4,
      "note": 63,
      "start": 20.9645,
      "duration": 0.0933,
      "velocity": 96,
      "chip": "ym2612"
    },
    {
      "channel": 5,
      "note": 83,
      "start": 20.9654,
      "duration": 0.0929,
      "velocity": 96,
      "chip": "ym2612"
    },
    {
      "channel": 2,
      "note": 26,
      "start": 20.967,
      "duration": 0.0583,
      "velocity": 120,
      "chip": "ym2612"
    },
    {
      "channel": 0,
      "note": 65,
      "start": 21.1544,
      "duration": 0.0995,
      "velocity": 91,
      "chip": "ym2612"
    },
    {
      "channel": 1,
      "note": 50,
      "start": 21.1551,
      "duration": 0.0996,
      "velocity": 87,
      "chip": "ym2612"
    },
    {
      "channel": 3,
      "note": 78,
      "start": 21.156,
      "duration": 0.0996,
      "velocity": 96,
      "chip": "ym2612"
    },
    {
      "channel": 4,
      "note": 63,
      "start": 21.1568,
      "duration": 0.0993,
      "velocity": 96,
      "chip": "ym2612"
    },
    {
      "channel": 5,
      "note": 83,
      "start": 21.1576,
      "duration": 0.0989,
      "velocity": 96,
      "chip": "ym2612"
    },
    {
      "channel": 0,
      "note": 66,
      "start": 21.2546,
      "duration": 0.0968,
      "velocity": 91,
      "chip": "ym2612"
    },
    {
      "channel": 1,
      "note": 55,
      "start": 21.2554,
      "duration": 0.0969,
      "velocity": 87,
      "chip": "ym2612"
    },
    {
      "channel": 2,
      "note": 26,
      "start": 21.2586,
      "duration": 0.0588,
      "velocity": 120,
      "chip": "ym2612"
    },
    {
      "channel": 0,
      "note": 62,
      "start": 21.3521,
      "duration": 0.0968,
      "velocity": 91,
      "chip": "ym2612"
    },
    {
      "channel": 1,
      "note": 56,
      "start": 21.3529,
      "duration": 0.292,
      "velocity": 87,
      "chip": "ym2612"
    },
    {
      "channel": 3,
      "note": 78,
      "start": 21.3537,
      "duration": 0.0964,
      "velocity": 96,
      "chip": "ym2612"
    },
    {
      "channel": 4,
      "note": 63,
      "start": 21.3546,
      "duration": 0.0964,
      "velocity": 96,
      "chip": "ym2612"
    },
    {
      "channel": 5,
      "note": 83,
      "start": 21.3554,
      "duration": 0.0964,
      "velocity": 96,
      "chip": "ym2612"
    },
    {
      "channel": 2,
      "note": 26,
      "start": 21.357,
      "duration": 0.0583,
      "velocity": 120,
      "chip": "ym2612"
    },
    {
      "channel": 0,
      "note": 64,
      "start": 21.4497,
      "duration": 0.0943,
      "velocity": 91,
      "chip": "ym2612"
    },
    {
      "channel": 3,
      "note": 78,
      "start": 21.4508,
      "duration": 0.0943,
      "velocity": 96,
      "chip": "ym2612"
    },
    {
      "channel": 4,
      "note": 63,
      "start": 21.4516,
      "duration": 0.0943,
      "velocity": 96,
      "chip": "ym2612"
    },
    {
      "channel": 5,
      "note": 83,
      "start": 21.4524,
      "duration": 0.0943,
      "velocity": 96,
      "chip": "ym2612"
    },
    {
      "channel": 2,
      "note": 56,
      "start": 21.4542,
      "duration": 0.0934,
      "velocity": 112,
      "chip": "ym2612"
    },
    {
      "channel": 0,
      "note": 61,
      "start": 21.5446,
      "duration": 0.0995,
      "velocity": 91,
      "chip": "ym2612"
    },
    {
      "channel": 3,
      "note": 78,
      "start": 21.5457,
      "duration": 0.0999,
      "velocity": 96,
      "chip": "ym2612"
    },
    {
      "channel": 4,
      "note": 63,
      "start": 21.5466,
      "duration": 0.0999,
      "velocity": 96,
      "chip": "ym2612"
    },
    {
      "channel": 5,
      "note": 83,
      "start": 21.5474,
      "duration": 0.0999,
      "velocity": 96,
      "chip": "ym2612"
    },
    {
      "channel": 0,
      "note": 62,
      "start": 21.6447,
      "duration": 0.0942,
      "velocity": 91,
      "chip": "ym2612"
    },
    {
      "channel": 1,
      "note": 59,
      "start": 21.6455,
      "duration": 0.0942,
      "velocity": 87,
      "chip": "ym2612"
    },
    {
      "channel": 3,
      "note": 78,
      "start": 21.6463,
      "duration": 0.0941,
      "velocity": 96,
      "chip": "ym2612"
    },
    {
      "channel": 4,
      "note": 63,
      "start": 21.6472,
      "duration": 0.0941,
      "velocity": 96,
      "chip": "ym2612"
    },
    {
      "channel": 5,
      "note": 83,
      "start": 21.648,
      "duration": 0.0941,
      "velocity": 96,
      "chip": "ym2612"
    },
    {
      "channel": 2,
      "note": 26,
      "start": 21.6497,
      "duration": 0.0582,
      "velocity": 120,
      "chip": "ym2612"
    },
    {
      "channel": 0,
      "note": 59,
      "start": 21.7395,
      "duration": 0.0997,
      "velocity": 91,
      "chip": "ym2612"
    },
    {
      "channel": 1,
      "note": 50,
      "start": 21.7404,
      "duration": 0.1,
      "velocity": 87,
      "chip": "ym2612"
    },
    {
      "channel": 3,
      "note": 78,
      "start": 21.7412,
      "duration": 0.1001,
      "velocity": 96,
      "chip": "ym2612"
    },
    {
      "channel": 4,
      "note": 63,
      "start": 21.742,
      "duration": 0.1,
      "velocity": 96,
      "chip": "ym2612"
    },
    {
      "channel": 5,
      "note": 83,
      "start": 21.7429,
      "duration": 0.0998,
      "velocity": 96,
      "chip": "ym2612"
    },
    {
      "channel": 0,
      "note": 61,
      "start": 21.8399,
      "duration": 0.5841,
      "velocity": 91,
      "chip": "ym2612"
    },
    {
      "channel": 1,
      "note": 52,
      "start": 21.841,
      "duration": 0.0958,
      "velocity": 87,
      "chip": "ym2612"
    },
    {
      "channel": 2,
      "note": 26,
      "start": 21.8448,
      "duration": 0.0577,
      "velocity": 120,
      "chip": "ym2612"
    },
    {
      "channel": 1,
      "note": 54,
      "start": 21.9374,
      "duration": 0.0969,
      "velocity": 87,
      "chip": "ym2612"
    },
    {
      "channel": 2,
      "note": 26,
      "start": 21.9397,
      "duration": 0.0602,
      "velocity": 120,
      "chip": "ym2612"
    },
    {
      "channel": 3,
      "note": 76,
      "start": 22.0355,
      "duration": 0.0972,
      "velocity": 96,
      "chip": "ym2612"
    },
    {
      "channel": 4,
      "note": 66,
      "start": 22.0363,
      "duration": 0.0972,
      "velocity": 96,
      "chip": "ym2612"
    },
    {
      "channel": 5,
      "note": 81,
      "start": 22.0371,
      "duration": 0.0972,
      "velocity": 96,
      "chip": "ym2612"
    },
    {
      "channel": 2,
      "note": 26,
      "start": 22.0388,
      "duration": 0.059,
      "velocity": 120,
      "chip": "ym2612"
    },
    {
      "channel": 1,
      "note": 60,
      "start": 22.1325,
      "duration": 0.0969,
      "velocity": 87,
      "chip": "ym2612"
    },
    {
      "channel": 3,
      "note": 76,
      "start": 22.1334,
      "duration": 0.0969,
      "velocity": 96,
      "chip": "ym2612"
    },
    {
      "channel": 4,
      "note": 66,
      "start": 22.1342,
      "duration": 0.0965,
      "velocity": 96,
      "chip": "ym2612"
    },
    {
      "channel": 5,
      "note": 81,
      "start": 22.135,
      "duration": 0.0962,
      "velocity": 96,
      "chip": "ym2612"
    },
    {
      "channel": 2,
      "note": 26,
      "start": 22.1367,
      "duration": 0.0588,
      "velocity": 120,
      "chip": "ym2612"
    },
    {
      "channel": 1,
      "note": 59,
      "start": 22.2301,
      "duration": 0.1949,
      "velocity": 87,
      "chip": "ym2612"
    },
    {
      "channel": 2,
      "note": 56,
      "start": 22.2333,
      "duration": 0.092,
      "velocity": 112,
      "chip": "ym2612"
    },
    {
      "channel": 0,
      "note": 62,
      "start": 22.4247,
      "duration": 0.3894,
      "velocity": 91,
      "chip": "ym2612"
    },
    {
      "channel": 1,
      "note": 58,
      "start": 22.4256,
      "duration": 0.0963,
      "velocity": 87,
      "chip": "ym2612"
    },
    {
      "channel": 3,
      "note": 76,
      "start": 22.4264,
      "duration": 0.0963,
      "velocity": 96,
      "chip": "ym2612"
    },
    {
      "channel": 4,
      "note": 66,
      "start": 22.4272,
      "duration": 0.0963,
      "velocity": 96,
      "chip": "ym2612"
    },
    {
      "channel": 5,
      "note": 81,
      "start": 22.428,
      "duration": 0.0963,
      "velocity": 96,
      "chip": "ym2612"
    },
    {
      "channel": 2,
      "note": 26,
      "start": 22.4298,
      "duration": 0.0582,
      "velocity": 120,
      "chip": "ym2612"
    },
    {
      "channel": 1,
      "note": 57,
      "start": 22.5225,
      "duration": 0.2924,
      "velocity": 87,
      "chip": "ym2612"
    },
    {
      "channel": 3,
      "note": 76,
      "start": 22.5233,
      "duration": 0.0938,
      "velocity": 96,
      "chip": "ym2612"
    },
    {
      "channel": 4,
      "note": 66,
      "start": 22.5241,
      "duration": 0.0938,
      "velocity": 96,
      "chip": "ym2612"
    },
    {
      "channel": 5,
      "note": 81,
      "start": 22.525,
      "duration": 0.0938,
      "velocity": 96,
      "chip": "ym2612"
    },
    {
      "channel": 2,
      "note": 26,
      "start": 22.5266,
      "duration": 0.0588,
      "velocity": 120,
      "chip": "ym2612"
    },
    {
      "channel": 3,
      "note": 76,
      "start": 22.6178,
      "duration": 0.0967,
      "velocity": 96,
      "chip": "ym2612"
    },
    {
      "channel": 4,
      "note": 66,
      "start": 22.6186,
      "duration": 0.0968,
      "velocity": 96,
      "chip": "ym2612"
    },
    {
      "channel": 5,
      "note": 81,
      "start": 22.6194,
      "duration": 0.0967,
      "velocity": 96,
      "chip": "ym2612"
    },
    {
      "channel": 3,
      "note": 76,
      "start": 22.7152,
      "duration": 0.6859,
      "velocity": 96,
      "chip": "ym2612"
    },
    {
      "channel": 4,
      "note": 66,
      "start": 22.716,
      "duration": 0.6859,
      "velocity": 96,
      "chip": "ym2612"
    },
    {
      "channel": 5,
      "note": 81,
      "start": 22.7168,
      "duration": 0.6859,
      "velocity": 96,
      "chip": "ym2612"
    },
    {
      "channel": 0,
      "note": 57,
      "start": 22.8148,
      "duration": 0.1943,
      "velocity": 91,
      "chip": "ym2612"
    },
    {
      "channel": 1,
      "note": 56,
      "start": 22.8156,
      "duration": 0.0964,
      "velocity": 87,
      "chip": "ym2612"
    },
    {
      "channel": 2,
      "note": 26,
      "start": 22.8183,
      "duration": 0.0597,
      "velocity": 120,
      "chip": "ym2612"
    },
    {
      "channel": 2,
      "note": 26,
      "start": 22.915,
      "duration": 0.0604,
      "velocity": 120,
      "chip": "ym2612"
    },
    {
      "channel": 0,
      "note": 54,
      "start": 23.0098,
      "duration": 0.1943,
      "velocity": 91,
      "chip": "ym2612"
    },
    {
      "channel": 2,
      "note": 56,
      "start": 23.0132,
      "duration": 0.0931,
      "velocity": 112,
      "chip": "ym2612"
    },
    {
      "channel": 1,
      "note": 54,
      "start": 23.1049,
      "duration": 0.1,
      "velocity": 87,
      "chip": "ym2612"
    },
    {
      "channel": 0,
      "note": 56,
      "start": 23.2048,
      "duration": 0.1947,
      "velocity": 91,
      "chip": "ym2612"
    },
    {
      "channel": 1,
      "note": 54,
      "start": 23.2056,
      "duration": 0.0937,
      "velocity": 87,
      "chip": "ym2612"
    },
    {
      "channel": 2,
      "note": 26,
      "start": 23.2083,
      "duration": 0.0597,
      "velocity": 120,
      "chip": "ym2612"
    },
    {
      "channel": 0,
      "note": 60,
      "start": 23.4001,
      "duration": 0.0966,
      "velocity": 91,
      "chip": "ym2612"
    },
    {
      "channel": 1,
      "note": 50,
      "start": 23.4009,
      "duration": 0.0966,
      "velocity": 87,
      "chip": "ym2612"
    },
    {
      "channel": 3,
      "note": 78,
      "start": 23.4018,
      "duration": 0.0962,
      "velocity": 96,
      "chip": "ym2612"
    },
    {
      "channel": 4,
      "note": 63,
      "start": 23.4026,
      "duration": 0.0959,
      "velocity": 96,
      "chip": "ym2612"
    },
    {
      "channel": 5,
      "note": 83,
      "start": 23.4034,
      "duration": 0.0955,
      "velocity": 96,
      "chip": "ym2612"
    },
    {
      "channel": 2,
      "note": 26,
      "start": 23.4051,
      "duration": 0.058,
      "velocity": 120,
      "chip": "ym2612"
    },
    {
      "channel": 0,
      "note": 61,
      "start": 23.4974,
      "duration": 0.0969,
      "velocity": 91,
      "chip": "ym2612"
    },
    {
      "channel": 2,
      "note": 26,
      "start": 23.501,
      "duration": 0.0589,
      "velocity": 120,
      "chip": "ym2612"
    },
    {
      "channel": 0,
      "note": 57,
      "start": 23.5949,
      "duration": 0.1943,
      "velocity": 91,
      "chip": "ym2612"
    },
    {
      "channel": 1,
      "note": 50,
      "start": 23.5957,
      "duration": 0.0963,
      "velocity": 87,
      "chip": "ym2612"
    },
    {
      "channel": 3,
      "note": 78,
      "start": 23.5966,
      "duration": 0.0962,
      "velocity": 96,
      "chip": "ym2612"
    },
    {
      "channel": 4,
      "note": 63,
      "start": 23.5974,
      "duration": 0.0963,
      "velocity": 96,
      "chip": "ym2612"
    },
    {
      "channel": 5,
      "note": 83,
      "start": 23.5982,
      "duration": 0.0963,
      "velocity": 96,
      "chip": "ym2612"
    },
    {
      "channel": 2,
      "note": 26,
      "start": 23.5998,
      "duration": 0.0582,
      "velocity": 120,
      "chip": "ym2612"
    },
    {
      "channel": 1,
      "note": 50,
      "start": 23.6926,
      "duration": 0.0974,
      "velocity": 87,
      "chip": "ym2612"
    },
    {
      "channel": 3,
      "note": 78,
      "start": 23.6934,
      "duration": 0.097,
      "velocity": 96,
      "chip": "ym2612"
    },
    {
      "channel": 4,
      "note": 63,
      "start": 23.6943,
      "duration": 0.0966,
      "velocity": 96,
      "chip": "ym2612"
    },
    {
      "channel": 5,
      "note": 83,
      "start": 23.6951,
      "duration": 0.0963,
      "velocity": 96,
      "chip": "ym2612"
    },
    {
      "channel": 2,
      "note": 26,
      "start": 23.6968,
      "duration": 0.0588,
      "velocity": 120,
      "chip": "ym2612"
    },
    {
      "channel": 0,
      "note": 60,
      "start": 23.7899,
      "duration": 0.0942,
      "velocity": 91,
      "chip": "ym2612"
    },
    {
      "channel": 2,
      "note": 56,
      "start": 23.7936,
      "duration": 0.0922,
      "velocity": 112,
      "chip": "ym2612"
    },
    {
      "channel": 0,
      "note": 61,
      "start": 23.8847,
      "duration": 0.0995,
      "velocity": 91,
      "chip": "ym2612"
    },
    {
      "channel": 0,
      "note": 57,
      "start": 23.9848,
      "duration": 0.0969,
      "velocity": 91,
      "chip": "ym2612"
    },
    {
      "channel": 1,
      "note": 50,
      "start": 23.9857,
      "duration": 0.0966,
      "velocity": 87,
      "chip": "ym2612"
    },
    {
      "channel": 3,
      "note": 78,
      "start": 23.9865,
      "duration": 0.0966,
      "velocity": 96,
      "chip": "ym2612"
    },
    {
      "channel": 4,
      "note": 63,
      "start": 23.9873,
      "duration": 0.0966,
      "velocity": 96,
      "chip": "ym2612"
    },
    {
      "channel": 5,
      "note": 83,
      "start": 23.9881,
      "duration": 0.0965,
      "velocity": 96,
      "chip": "ym2612"
    },
    {
      "channel": 2,
      "note": 26,
      "start": 23.9898,
      "duration": 0.0583,
      "velocity": 120,
      "chip": "ym2612"
    },
    {
      "channel": 1,
      "note": 50,
      "start": 24.0829,
      "duration": 0.0946,
      "velocity": 87,
      "chip": "ym2612"
    },
    {
      "channel": 3,
      "note": 78,
      "start": 24.0837,
      "duration": 0.0943,
      "velocity": 96,
      "chip": "ym2612"
    },
    {
      "channel": 4,
      "note": 63,
      "start": 24.0845,
      "duration": 0.094,
      "velocity": 96,
      "chip": "ym2612"
    },
    {
      "channel": 5,
      "note": 83,
      "start": 24.0854,
      "duration": 0.0936,
      "velocity": 96,
      "chip": "ym2612"
    },
    {
      "channel": 2,
      "note": 26,
      "start": 24.087,
      "duration": 0.0585,
      "velocity": 120,
      "chip": "ym2612"
    },
    {
      "channel": 0,
      "note": 60,
      "start": 24.1773,
      "duration": 0.0966,
      "velocity": 91,
      "chip": "ym2612"
    },
    {
      "channel": 0,
      "note": 61,
      "start": 24.2746,
      "duration": 0.0997,
      "velocity": 91,
      "chip": "ym2612"
    },
    {
      "channel": 1,
      "note": 50,
      "start": 24.2754,
      "duration": 0.0997,
      "velocity": 87,
      "chip": "ym2612"
    },
    {
      "channel": 3,
      "note": 78,
      "start": 24.2763,
      "duration": 0.0996,
      "velocity": 96,
      "chip": "ym2612"
    },
    {
      "channel": 4,
      "note": 63,
      "start": 24.2771,
      "duration": 0.0993,
      "velocity": 96,
      "chip": "ym2612"
    },
    {
      "channel": 5,
      "note": 83,
      "start": 24.2779,
      "duration": 0.0989,
      "velocity": 96,
      "chip": "ym2612"
    },
    {
      "channel": 0,
      "note": 57,
      "start": 24.3749,
      "duration": 0.0968,
      "velocity": 91,
      "chip": "ym2612"
    },
    {
      "channel": 1,
      "note": 55,
      "start": 24.3757,
      "duration": 0.0968,
      "velocity": 87,
      "chip": "ym2612"
    },
    {
      "channel": 2,
      "note": 26,
      "start": 24.3789,
      "duration": 0.0588,
      "velocity": 120,
      "chip": "ym2612"
    },
    {
      "channel": 0,
      "note": 60,
      "start": 24.4724,
      "duration": 0.0969,
      "velocity": 91,
      "chip": "ym2612"
    },
    {
      "channel": 1,
      "note": 56,
      "start": 24.4732,
      "duration": 0.2919,
      "velocity": 87,
      "chip": "ym2612"
    },
    {
      "channel": 3,
      "note": 78,
      "start": 24.474,
      "duration": 0.0964,
      "velocity": 96,
      "chip": "ym2612"
    },
    {
      "channel": 4,
      "note": 63,
      "start": 24.4749,
      "duration": 0.0964,
      "velocity": 96,
      "chip": "ym2612"
    },
    {
      "channel": 5,
      "note": 83,
      "start": 24.4757,
      "duration": 0.0964,
      "velocity": 96,
      "chip": "ym2612"
    },
    {
      "channel": 2,
      "note": 26,
      "start": 24.4774,
      "duration": 0.0583,
      "velocity": 120,
      "chip": "ym2612"
    },
    {
      "channel": 0,
      "note": 61,
      "start": 24.57,
      "duration": 0.1943,
      "velocity": 91,
      "chip": "ym2612"
    },
    {
      "channel": 3,
      "note": 78,
      "start": 24.5711,
      "duration": 0.0937,
      "velocity": 96,
      "chip": "ym2612"
    },
    {
      "channel": 4,
      "note": 63,
      "start": 24.5719,
      "duration": 0.0938,
      "velocity": 96,
      "chip": "ym2612"
    },
    {
      "channel": 5,
      "note": 83,
      "start": 24.5727,
      "duration": 0.0938,
      "velocity": 96,
      "chip": "ym2612"
    },
    {
      "channel": 2,
      "note": 56,
      "start": 24.5745,
      "duration": 0.0929,
      "velocity": 112,
      "chip": "ym2612"
    },
    {
      "channel": 3,
      "note": 78,
      "start": 24.6655,
      "duration": 0.1004,
      "velocity": 96,
      "chip": "ym2612"
    },
    {
      "channel": 4,
      "note": 63,
      "start": 24.6663,
      "duration": 0.1005,
      "velocity": 96,
      "chip": "ym2612"
    },
    {
      "channel": 5,
      "note": 83,
      "start": 24.6671,
      "duration": 0.1004,
      "velocity": 96,
      "chip": "ym2612"
    },
    {
      "channel": 0,
      "note": 57,
      "start": 24.765,
      "duration": 0.0942,
      "velocity": 91,
      "chip": "ym2612"
    },
    {
      "channel": 1,
      "note": 59,
      "start": 24.7658,
      "duration": 0.0939,
      "velocity": 87,
      "chip": "ym2612"
    },
    {
      "channel": 3,
      "note": 78,
      "start": 24.7666,
      "duration": 0.094,
      "velocity": 96,
      "chip": "ym2612"
    },
    {
      "channel": 4,
      "note": 63,
      "start": 24.7674,
      "duration": 0.0939,
      "velocity": 96,
      "chip": "ym2612"
    },
    {
      "channel": 5,
      "note": 83,
      "start": 24.7682,
      "duration": 0.0939,
      "velocity": 96,
      "chip": "ym2612"
    },
    {
      "channel": 2,
      "note": 26,
      "start": 24.7699,
      "duration": 0.0583,
      "velocity": 120,
      "chip": "ym2612"
    },
    {
      "channel": 1,
      "note": 50,
      "start": 24.8603,
      "duration": 0.1006,
      "velocity": 87,
      "chip": "ym2612"
    },
    {
      "channel": 3,
      "note": 78,
      "start": 24.8612,
      "duration": 0.1035,
      "velocity": 95,
      "chip": "ym2612"
    },
    {
      "channel": 4,
      "note": 63,
      "start": 24.862,
      "duration": 0.1064,
      "velocity": 95,
      "chip": "ym2612"
    },
    {
      "channel": 5,
      "note": 83,
      "start": 24.8628,
      "duration": 0.1093,
      "velocity": 95,
      "chip": "ym2612"
    },
    {
      "channel": 0,
      "note": 74,
      "start": 24.9605,
      "duration": 0.0962,
      "velocity": 91,
      "chip": "ym2612"
    },
    {
      "channel": 1,
      "note": 59,
      "start": 24.9616,
      "duration": 0.096,
      "velocity": 87,
      "chip": "ym2612"
    },
    {
      "channel": 3,
      "note": 81,
      "start": 24.9654,
      "duration": 1.556,
      "velocity": 95,
      "chip": "ym2612"
    },
    {
      "channel": 4,
      "note": 76,
      "start": 24.9691,
      "duration": 1.5531,
      "velocity": 95,
      "chip": "ym2612"
    },
    {
      "channel": 5,
      "note": 86,
      "start": 24.9729,
      "duration": 1.5501,
      "velocity": 95,
      "chip": "ym2612"
    },
    {
      "channel": 2,
      "note": 26,
      "start": 24.9746,
      "duration": 0.0485,
      "velocity": 120,
      "chip": "ym2612"
    },
    {
      "channel": 0,
      "note": 66,
      "start": 25.0575,
      "duration": 0.0968,
      "velocity": 91,
      "chip": "ym2612"
    },
    {
      "channel": 1,
      "note": 59,
      "start": 25.0583,
      "duration": 0.0969,
      "velocity": 87,
      "chip": "ym2612"
    },
    {
      "channel": 2,
      "note": 26,
      "start": 25.061,
      "duration": 0.0597,
      "velocity": 120,
      "chip": "ym2612"
    },
    {
      "channel": 0,
      "note": 73,
      "start": 25.155,
      "duration": 0.0968,
      "velocity": 91,
      "chip": "ym2612"
    },
    {
      "channel": 2,
      "note": 26,
      "start": 25.1582,
      "duration": 0.0599,
      "velocity": 120,
      "chip": "ym2612"
    },
    {
      "channel": 0,
      "note": 71,
      "start": 25.2525,
      "duration": 0.0968,
      "velocity": 91,
      "chip": "ym2612"
    },
    {
      "channel": 2,
      "note": 26,
      "start": 25.2554,
      "duration": 0.0602,
      "velocity": 120,
      "chip": "ym2612"
    },
    {
      "channel": 0,
      "note": 74,
      "start": 25.35,
      "duration": 0.0943,
      "velocity": 91,
      "chip": "ym2612"
    },
    {
      "channel": 1,
      "note": 59,
      "start": 25.3509,
      "duration": 0.0943,
      "velocity": 87,
      "chip": "ym2612"
    },
    {
      "channel": 2,
      "note": 56,
      "start": 25.3536,
      "duration": 0.0934,
      "velocity": 112,
      "chip": "ym2612"
    },
    {
      "channel": 0,
      "note": 73,
      "start": 25.4449,
      "duration": 0.0995,
      "velocity": 91,
      "chip": "ym2612"
    },
    {
      "channel": 1,
      "note": 59,
      "start": 25.4458,
      "duration": 0.0995,
      "velocity": 87,
      "chip": "ym2612"
    },
    {
      "channel": 0,
      "note": 71,
      "start": 25.5451,
      "duration": 0.0968,
      "velocity": 91,
      "chip": "ym2612"
    },
    {
      "channel": 2,
      "note": 26,
      "start": 25.5482,
      "duration": 0.0599,
      "velocity": 120,
      "chip": "ym2612"
    },
    {
      "channel": 0,
      "note": 69,
      "start": 25.6425,
      "duration": 0.0942,
      "velocity": 91,
      "chip": "ym2612"
    },
    {
      "channel": 2,
      "note": 26,
      "start": 25.6454,
      "duration": 0.0602,
      "velocity": 120,
      "chip": "ym2612"
    },
    {
      "channel": 0,
      "note": 74,
      "start": 25.7374,
      "duration": 0.0967,
      "velocity": 91,
      "chip": "ym2612"
    },
    {
      "channel": 1,
      "note": 59,
      "start": 25.7383,
      "duration": 0.0967,
      "velocity": 87,
      "chip": "ym2612"
    },
    {
      "channel": 0,
      "note": 66,
      "start": 25.8348,
      "duration": 0.0996,
      "velocity": 91,
      "chip": "ym2612"
    },
    {
      "channel": 1,
      "note": 59,
      "start": 25.8356,
      "duration": 0.0996,
      "velocity": 87,
      "chip": "ym2612"
    },
    {
      "channel": 0,
      "note": 71,
      "start": 25.9351,
      "duration": 0.0968,
      "velocity": 91,
      "chip": "ym2612"
    },
    {
      "channel": 2,
      "note": 26,
      "start": 25.9382,
      "duration": 0.0599,
      "velocity": 120,
      "chip": "ym2612"
    },
    {
      "channel": 0,
      "note": 69,
      "start": 26.0325,
      "duration": 0.097,
      "velocity": 91,
      "chip": "ym2612"
    },
    {
      "channel": 2,
      "note": 26,
      "start": 26.0354,
      "duration": 0.0604,
      "velocity": 120,
      "chip": "ym2612"
    },
    {
      "channel": 0,
      "note": 66,
      "start": 26.1301,
      "duration": 0.0942,
      "velocity": 91,
      "chip": "ym2612"
    },
    {
      "channel": 1,
      "note": 66,
      "start": 26.131,
      "duration": 0.0942,
      "velocity": 87,
      "chip": "ym2612"
    },
    {
      "channel": 2,
      "note": 56,
      "start": 26.1337,
      "duration": 0.0934,
      "velocity": 112,
      "chip": "ym2612"
    },
    {
      "channel": 0,
      "note": 68,
      "start": 26.225,
      "duration": 0.0995,
      "velocity": 91,
      "chip": "ym2612"
    },
    {
      "channel": 1,
      "note": 64,
      "start": 26.2258,
      "duration": 0.0995,
      "velocity": 87,
      "chip": "ym2612"
    },
    {
      "channel": 0,
      "note": 69,
      "start": 26.3252,
      "duration": 0.0942,
      "velocity": 91,
      "chip": "ym2612"
    },
    {
      "channel": 1,
      "note": 62,
      "start": 26.3259,
      "duration": 0.0943,
      "velocity": 87,
      "chip": "ym2612"
    },
    {
      "channel": 2,
      "note": 26,
      "start": 26.3287,
      "duration": 0.0597,
      "velocity": 120,
      "chip": "ym2612"
    },
    {
      "channel": 0,
      "note": 71,
      "start": 26.42,
      "duration": 0.0997,
      "velocity": 91,
      "chip": "ym2612"
    },
    {
      "channel": 1,
      "note": 61,
      "start": 26.4208,
      "duration": 0.0997,
      "velocity": 87,
      "chip": "ym2612"
    },
    {
      "channel": 0,
      "note": 65,
      "start": 26.5204,
      "duration": 0.0966,
      "velocity": 91,
      "chip": "ym2612"
    },
    {
      "channel": 1,
      "note": 62,
      "start": 26.5212,
      "duration": 0.0966,
      "velocity": 87,
      "chip": "ym2612"
    },
    {
      "channel": 3,
      "note": 84,
      "start": 26.522,
      "duration": 1.5594,
      "velocity": 95,
      "chip": "ym2612"
    },
    {
      "channel": 4,
      "note": 79,
      "start": 26.5229,
      "duration": 1.5594,
      "velocity": 95,
      "chip": "ym2612"
    },
    {
      "channel": 5,
      "note": 77,
      "start": 26.5237,
      "duration": 1.5594,
      "velocity": 95,
      "chip": "ym2612"
    },
    {
      "channel": 2,
      "note": 26,
      "start": 26.5254,
      "duration": 0.058,
      "velocity": 120,
      "chip": "ym2612"
    },
    {
      "channel": 0,
      "note": 57,
      "start": 26.6177,
      "duration": 0.0968,
      "velocity": 91,
      "chip": "ym2612"
    },
    {
      "channel": 1,
      "note": 62,
      "start": 26.6184,
      "duration": 0.0969,
      "velocity": 87,
      "chip": "ym2612"
    },
    {
      "channel": 2,
      "note": 26,
      "start": 26.6212,
      "duration": 0.0597,
      "velocity": 120,
      "chip": "ym2612"
    },
    {
      "channel": 0,
      "note": 64,
      "start": 26.7151,
      "duration": 0.0969,
      "velocity": 91,
      "chip": "ym2612"
    },
    {
      "channel": 2,
      "note": 26,
      "start": 26.7183,
      "duration": 0.06,
      "velocity": 120,
      "chip": "ym2612"
    },
    {
      "channel": 0,
      "note": 62,
      "start": 26.8127,
      "duration": 0.0968,
      "velocity": 91,
      "chip": "ym2612"
    },
    {
      "channel": 2,
      "note": 26,
      "start": 26.8155,
      "duration": 0.0602,
      "velocity": 120,
      "chip": "ym2612"
    },
    {
      "channel": 0,
      "note": 65,
      "start": 26.9102,
      "duration": 0.0942,
      "velocity": 91,
      "chip": "ym2612"
    },
    {
      "channel": 1,
      "note": 62,
      "start": 26.911,
      "duration": 0.0941,
      "velocity": 87,
      "chip": "ym2612"
    },
    {
      "channel": 2,
      "note": 56,
      "start": 26.9138,
      "duration": 0.0933,
      "velocity": 112,
      "chip": "ym2612"
    },
    {
      "channel": 0,
      "note": 64,
      "start": 27.0051,
      "duration": 0.0994,
      "velocity": 91,
      "chip": "ym2612"
    },
    {
      "channel": 1,
      "note": 62,
      "start": 27.0058,
      "duration": 0.0995,
      "velocity": 87,
      "chip": "ym2612"
    },
    {
      "channel": 0,
      "note": 62,
      "start": 27.1051,
      "duration": 0.097,
      "velocity": 91,
      "chip": "ym2612"
    },
    {
      "channel": 2,
      "note": 26,
      "start": 27.1083,
      "duration": 0.06,
      "velocity": 120,
      "chip": "ym2612"
    },
    {
      "channel": 0,
      "note": 60,
      "start": 27.2027,
      "duration": 0.0942,
      "velocity": 91,
      "chip": "ym2612"
    },
    {
      "channel": 2,
      "note": 26,
      "start": 27.2056,
      "duration": 0.0602,
      "velocity": 120,
      "chip": "ym2612"
    },
    {
      "channel": 0,
      "note": 65,
      "start": 27.2976,
      "duration": 0.0967,
      "velocity": 91,
      "chip": "ym2612"
    },
    {
      "channel": 1,
      "note": 62,
      "start": 27.2984,
      "duration": 0.0968,
      "velocity": 87,
      "chip": "ym2612"
    },
    {
      "channel": 0,
      "note": 57,
      "start": 27.395,
      "duration": 0.0996,
      "velocity": 91,
      "chip": "ym2612"
    },
    {
      "channel": 1,
      "note": 62,
      "start": 27.3958,
      "duration": 0.0996,
      "velocity": 87,
      "chip": "ym2612"
    },
    {
      "channel": 0,
      "note": 62,
      "start": 27.4953,
      "duration": 0.0968,
      "velocity": 91,
      "chip": "ym2612"
    },
    {
      "channel": 2,
      "note": 26,
      "start": 27.4984,
      "duration": 0.0599,
      "velocity": 120,
      "chip": "ym2612"
    },
    {
      "channel": 0,
      "note": 60,
      "start": 27.5927,
      "duration": 0.0969,
      "velocity": 91,
      "chip": "ym2612"
    },
    {
      "channel": 2,
      "note": 26,
      "start": 27.5956,
      "duration": 0.0602,
      "velocity": 120,
      "chip": "ym2612"
    },
    {
      "channel": 0,
      "note": 57,
      "start": 27.6902,
      "duration": 0.0943,
      "velocity": 91,
      "chip": "ym2612"
    },
    {
      "channel": 1,
      "note": 65,
      "start": 27.6911,
      "duration": 0.0942,
      "velocity": 87,
      "chip": "ym2612"
    },
    {
      "channel": 2,
      "note": 56,
      "start": 27.6938,
      "duration": 0.0934,
      "velocity": 112,
      "chip": "ym2612"
    },
    {
      "channel": 0,
      "note": 59,
      "start": 27.7851,
      "duration": 0.0994,
      "velocity": 91,
      "chip": "ym2612"
    },
    {
      "channel": 1,
      "note": 64,
      "start": 27.786,
      "duration": 0.0994,
      "velocity": 87,
      "chip": "ym2612"
    },
    {
      "channel": 0,
      "note": 60,
      "start": 27.8853,
      "duration": 0.0942,
      "velocity": 91,
      "chip": "ym2612"
    },
    {
      "channel": 1,
      "note": 69,
      "start": 27.8861,
      "duration": 0.0943,
      "velocity": 87,
      "chip": "ym2612"
    },
    {
      "channel": 2,
      "note": 26,
      "start": 27.8887,
      "duration": 0.0598,
      "velocity": 120,
      "chip": "ym2612"
    },
    {
      "channel": 0,
      "note": 62,
      "start": 27.9802,
      "duration": 0.0997,
      "velocity": 91,
      "chip": "ym2612"
    },
    {
      "channel": 1,
      "note": 67,
      "start": 27.981,
      "duration": 0.0998,
      "velocity": 87,
      "chip": "ym2612"
    },
    {
      "channel": 0,
      "note": 68,
      "start": 28.0806,
      "duration": 0.0966,
      "velocity": 91,
      "chip": "ym2612"
    },
    {
      "channel": 1,
      "note": 53,
      "start": 28.0813,
      "duration": 0.0966,
      "velocity": 87,
      "chip": "ym2612"
    },
    {
      "channel": 3,
      "note": 75,
      "start": 28.0822,
      "duration": 1.5595,
      "velocity": 95,
      "chip": "ym2612"
    },
    {
      "channel": 4,
      "note": 82,
      "start": 28.083,
      "duration": 1.5595,
      "velocity": 95,
      "chip": "ym2612"
    },
    {
      "channel": 5,
      "note": 80,
      "start": 28.0838,
      "duration": 1.5595,
      "velocity": 95,
      "chip": "ym2612"
    },
    {
      "channel": 2,
      "note": 26,
      "start": 28.0855,
      "duration": 0.058,
      "velocity": 120,
      "chip": "ym2612"
    },
    {
      "channel": 0,
      "note": 60,
      "start": 28.1778,
      "duration": 0.0968,
      "velocity": 91,
      "chip": "ym2612"
    },
    {
      "channel": 1,
      "note": 53,
      "start": 28.1786,
      "duration": 0.0968,
      "velocity": 87,
      "chip": "ym2612"
    },
    {
      "channel": 2,
      "note": 26,
      "start": 28.1813,
      "duration": 0.0597,
      "velocity": 120,
      "chip": "ym2612"
    },
    {
      "channel": 0,
      "note": 67,
      "start": 28.2753,
      "duration": 0.0968,
      "velocity": 91,
      "chip": "ym2612"
    },
    {
      "channel": 2,
      "note": 26,
      "start": 28.2785,
      "duration": 0.0599,
      "velocity": 120,
      "chip": "ym2612"
    },
    {
      "channel": 0,
      "note": 65,
      "start": 28.3727,
      "duration": 0.0969,
      "velocity": 91,
      "chip": "ym2612"
    },
    {
      "channel": 2,
      "note": 26,
      "start": 28.3756,
      "duration": 0.0603,
      "velocity": 120,
      "chip": "ym2612"
    },
    {
      "channel": 0,
      "note": 68,
      "start": 28.4703,
      "duration": 0.0943,
      "velocity": 91,
      "chip": "ym2612"
    },
    {
      "channel": 1,
      "note": 53,
      "start": 28.4711,
      "duration": 0.0943,
      "velocity": 87,
      "chip": "ym2612"
    },
    {
      "channel": 2,
      "note": 56,
      "start": 28.4738,
      "duration": 0.0934,
      "velocity": 112,
      "chip": "ym2612"
    },
    {
      "channel": 0,
      "note": 67,
      "start": 28.5652,
      "duration": 0.0995,
      "velocity": 91,
      "chip": "ym2612"
    },
    {
      "channel": 1,
      "note": 53,
      "start": 28.566,
      "duration": 0.0995,
      "velocity": 87,
      "chip": "ym2612"
    },
    {
      "channel": 0,
      "note": 65,
      "start": 28.6653,
      "duration": 0.0969,
      "velocity": 91,
      "chip": "ym2612"
    },
    {
      "channel": 2,
      "note": 26,
      "start": 28.6684,
      "duration": 0.06,
      "velocity": 120,
      "chip": "ym2612"
    },
    {
      "channel": 0,
      "note": 63,
      "start": 28.7629,
      "duration": 0.0941,
      "velocity": 91,
      "chip": "ym2612"
    },
    {
      "channel": 2,
      "note": 26,
      "start": 28.7658,
      "duration": 0.0602,
      "velocity": 120,
      "chip": "ym2612"
    },
    {
      "channel": 0,
      "note": 68,
      "start": 28.8577,
      "duration": 0.0968,
      "velocity": 91,
      "chip": "ym2612"
    },
    {
      "channel": 1,
      "note": 53,
      "start": 28.8585,
      "duration": 0.0968,
      "velocity": 87,
      "chip": "ym2612"
    },
    {
      "channel": 0,
      "note": 60,
      "start": 28.9551,
      "duration": 0.0996,
      "velocity": 91,
      "chip": "ym2612"
    },
    {
      "channel": 1,
      "note": 53,
      "start": 28.956,
      "duration": 0.0995,
      "velocity": 87,
      "chip": "ym2612"
    },
    {
      "channel": 0,
      "note": 65,
      "start": 29.0553,
      "duration": 0.0968,
      "velocity": 91,
      "chip": "ym2612"
    },
    {
      "channel": 2,
      "note": 26,
      "start": 29.0584,
      "duration": 0.06,
      "velocity": 120,
      "chip": "ym2612"
    },
    {
      "channel": 0,
      "note": 63,
      "start": 29.1528,
      "duration": 0.097,
      "velocity": 91,
      "chip": "ym2612"
    },
    {
      "channel": 2,
      "note": 26,
      "start": 29.1556,
      "duration": 0.0603,
      "velocity": 120,
      "chip": "ym2612"
    },
    {
      "channel": 0,
      "note": 60,
      "start": 29.2504,
      "duration": 0.0941,
      "velocity": 91,
      "chip": "ym2612"
    },
    {
      "channel": 1,
      "note": 55,
      "start": 29.2512,
      "duration": 0.0941,
      "velocity": 87,
      "chip": "ym2612"
    },
    {
      "channel": 2,
      "note": 56,
      "start": 29.254,
      "duration": 0.0932,
      "velocity": 112,
      "chip": "ym2612"
    },
    {
      "channel": 0,
      "note": 62,
      "start": 29.3452,
      "duration": 0.0996,
      "velocity": 91,
      "chip": "ym2612"
    },
    {
      "channel": 1,
      "note": 58,
      "start": 29.346,
      "duration": 0.0995,
      "velocity": 87,
      "chip": "ym2612"
    },
    {
      "channel": 0,
      "note": 63,
      "start": 29.4455,
      "duration": 0.0941,
      "velocity": 91,
      "chip": "ym2612"
    },
    {
      "channel": 1,
      "note": 56,
      "start": 29.4463,
      "duration": 0.0941,
      "velocity": 87,
      "chip": "ym2612"
    },
    {
      "channel": 2,
      "note": 26,
      "start": 29.4489,
      "duration": 0.0598,
      "velocity": 120,
      "chip": "ym2612"
    },
    {
      "channel": 0,
      "note": 65,
      "start": 29.5403,
      "duration": 0.0997,
      "velocity": 91,
      "chip": "ym2612"
    },
    {
      "channel": 1,
      "note": 60,
      "start": 29.5411,
      "duration": 0.0998,
      "velocity": 87,
      "chip": "ym2612"
    },
    {
      "channel": 0,
      "note": 71,
      "start": 29.6407,
      "duration": 0.0966,
      "velocity": 91,
      "chip": "ym2612"
    },
    {
      "channel": 1,
      "note": 56,
      "start": 29.6415,
      "duration": 0.0966,
      "velocity": 87,
      "chip": "ym2612"
    },
    {
      "channel": 3,
      "note": 78,
      "start": 29.6423,
      "duration": 1.5629,
      "velocity": 95,
      "chip": "ym2612"
    },
    {
      "channel": 4,
      "note": 85,
      "start": 29.6431,
      "duration": 1.5631,
      "velocity": 95,
      "chip": "ym2612"
    },
    {
      "channel": 5,
      "note": 71,
      "start": 29.644,
      "duration": 1.5632,
      "velocity": 95,
      "chip": "ym2612"
    },
    {
      "channel": 2,
      "note": 26,
      "start": 29.6456,
      "duration": 0.058,
      "velocity": 120,
      "chip": "ym2612"
    },
    {
      "channel": 0,
      "note": 63,
      "start": 29.738,
      "duration": 0.0968,
      "velocity": 91,
      "chip": "ym2612"
    },
    {
      "channel": 1,
      "note": 56,
      "start": 29.7387,
      "duration": 0.0969,
      "velocity": 87,
      "chip": "ym2612"
    },
    {
      "channel": 2,
      "note": 26,
      "start": 29.7415,
      "duration": 0.0596,
      "velocity": 120,
      "chip": "ym2612"
    },
    {
      "channel": 0,
      "note": 70,
      "start": 29.8355,
      "duration": 0.0968,
      "velocity": 91,
      "chip": "ym2612"
    },
    {
      "channel": 2,
      "note": 26,
      "start": 29.8387,
      "duration": 0.0599,
      "velocity": 120,
      "chip": "ym2612"
    },
    {
      "channel": 0,
      "note": 68,
      "start": 29.9329,
      "duration": 0.097,
      "velocity": 91,
      "chip": "ym2612"
    },
    {
      "channel": 2,
      "note": 26,
      "start": 29.9358,
      "duration": 0.0602,
      "velocity": 120,
      "chip": "ym2612"
    },
    {
      "channel": 0,
      "note": 71,
      "start": 30.0306,
      "duration": 0.0941,
      "velocity": 91,
      "chip": "ym2612"
    },
    {
      "channel": 1,
      "note": 56,
      "start": 30.0313,
      "duration": 0.0942,
      "velocity": 87,
      "chip": "ym2612"
    },
    {
      "channel": 2,
      "note": 56,
      "start": 30.0341,
      "duration": 0.0934,
      "velocity": 112,
      "chip": "ym2612"
    },
    {
      "channel": 0,
      "note": 70,
      "start": 30.1254,
      "duration": 0.0994,
      "velocity": 91,
      "chip": "ym2612"
    },
    {
      "channel": 1,
      "note": 56,
      "start": 30.1262,
      "duration": 0.0994,
      "velocity": 87,
      "chip": "ym2612"
    },
    {
      "channel": 0,
      "note": 68,
      "start": 30.2255,
      "duration": 0.0968,
      "velocity": 91,
      "chip": "ym2612"
    },
    {
      "channel": 2,
      "note": 26,
      "start": 30.2287,
      "duration": 0.0599,
      "velocity": 120,
      "chip": "ym2612"
    },
    {
      "channel": 0,
      "note": 66,
      "start": 30.323,
      "duration": 0.0942,
      "velocity": 91,
      "chip": "ym2612"
    },
    {
      "channel": 2,
      "note": 26,
      "start": 30.3258,
      "duration": 0.0603,
      "velocity": 120,
      "chip": "ym2612"
    },
    {
      "channel": 0,
      "note": 71,
      "start": 30.4179,
      "duration": 0.0967,
      "velocity": 91,
      "chip": "ym2612"
    },
    {
      "channel": 1,
      "note": 56,
      "start": 30.4187,
      "duration": 0.0968,
      "velocity": 87,
      "chip": "ym2612"
    },
    {
      "channel": 0,
      "note": 63,
      "start": 30.5153,
      "duration": 0.0995,
      "velocity": 91,
      "chip": "ym2612"
    },
    {
      "channel": 1,
      "note": 56,
      "start": 30.5161,
      "duration": 0.0996,
      "velocity": 87,
      "chip": "ym2612"
    },
    {
      "channel": 0,
      "note": 68,
      "start": 30.6155,
      "duration": 0.0969,
      "velocity": 91,
      "chip": "ym2612"
    },
    {
      "channel": 2,
      "note": 26,
      "start": 30.6186,
      "duration": 0.06,
      "velocity": 120,
      "chip": "ym2612"
    },
    {
      "channel": 0,
      "note": 66,
      "start": 30.7131,
      "duration": 0.0968,
      "velocity": 91,
      "chip": "ym2612"
    },
    {
      "channel": 2,
      "note": 26,
      "start": 30.7159,
      "duration": 0.0602,
      "velocity": 120,
      "chip": "ym2612"
    },
    {
      "channel": 0,
      "note": 63,
      "start": 30.8106,
      "duration": 0.0941,
      "velocity": 91,
      "chip": "ym2612"
    },
    {
      "channel": 1,
      "note": 63,
      "start": 30.8114,
      "duration": 0.0941,
      "velocity": 87,
      "chip": "ym2612"
    },
    {
      "channel": 2,
      "note": 56,
      "start": 30.8141,
      "duration": 0.0933,
      "velocity": 112,
      "chip": "ym2612"
    },
    {
      "channel": 0,
      "note": 65,
      "start": 30.9054,
      "duration": 0.0995,
      "velocity": 91,
      "chip": "ym2612"
    },
    {
      "channel": 1,
      "note": 61,
      "start": 30.9062,
      "duration": 0.0995,
      "velocity": 87,
      "chip": "ym2612"
    },
    {
      "channel": 0,
      "note": 66,
      "start": 31.0055,
      "duration": 0.0943,
      "velocity": 91,
      "chip": "ym2612"
    },
    {
      "channel": 1,
      "note": 59,
      "start": 31.0063,
      "duration": 0.0943,
      "velocity": 87,
      "chip": "ym2612"
    },
    {
      "channel": 2,
      "note": 26,
      "start": 31.009,
      "duration": 0.0598,
      "velocity": 120,
      "chip": "ym2612"
    },
    {
      "channel": 0,
      "note": 68,
      "start": 31.1005,
      "duration": 0.1027,
      "velocity": 96,
      "chip": "ym2612"
    },
    {
      "channel": 1,
      "note": 58,
      "start": 31.1012,
      "duration": 0.1029,
      "velocity": 87,
      "chip": "ym2612"
    },
    {
      "channel": 0,
      "note": 76,
      "start": 31.2039,
      "duration": 1.5564,
      "velocity": 96,
      "chip": "ym2612"
    },
    {
      "channel": 1,
      "note": 60,
      "start": 31.2049,
      "duration": 0.0928,
      "velocity": 87,
      "chip": "ym2612"
    },
    {
      "channel": 3,
      "note": 82,
      "start": 31.2059,
      "duration": 1.5561,
      "velocity": 95,
      "chip": "ym2612"
    },
    {
      "channel": 4,
      "note": 76,
      "start": 31.2069,
      "duration": 1.5559,
      "velocity": 95,
      "chip": "ym2612"
    },
    {
      "channel": 5,
      "note": 86,
      "start": 31.2079,
      "duration": 1.5557,
      "velocity": 95,
      "chip": "ym2612"
    },
    {
      "channel": 2,
      "note": 26,
      "start": 31.2096,
      "duration": 0.0542,
      "velocity": 120,
      "chip": "ym2612"
    },
    {
      "channel": 2,
      "note": 26,
      "start": 31.3007,
      "duration": 0.0604,
      "velocity": 120,
      "chip": "ym2612"
    },
    {
      "channel": 1,
      "note": 60,
      "start": 31.3959,
      "duration": 0.0968,
      "velocity": 87,
      "chip": "ym2612"
    },
    {
      "channel": 2,
      "note": 26,
      "start": 31.3986,
      "duration": 0.0602,
      "velocity": 120,
      "chip": "ym2612"
    },
    {
      "channel": 1,
      "note": 60,
      "start": 31.4934,
      "duration": 0.0969,
      "velocity": 87,
      "chip": "ym2612"
    },
    {
      "channel": 2,
      "note": 26,
      "start": 31.4961,
      "duration": 0.0602,
      "velocity": 120,
      "chip": "ym2612"
    },
    {
      "channel": 2,
      "note": 56,
      "start": 31.5934,
      "duration": 0.0931,
      "velocity": 112,
      "chip": "ym2612"
    },
    {
      "channel": 1,
      "note": 60,
      "start": 31.786,
      "duration": 0.0968,
      "velocity": 87,
      "chip": "ym2612"
    },
    {
      "channel": 2,
      "note": 26,
      "start": 31.7886,
      "duration": 0.0603,
      "velocity": 120,
      "chip": "ym2612"
    },
    {
      "channel": 1,
      "note": 60,
      "start": 31.8835,
      "duration": 0.0942,
      "velocity": 87,
      "chip": "ym2612"
    },
    {
      "channel": 2,
      "note": 26,
      "start": 31.8861,
      "duration": 0.0603,
      "velocity": 120,
      "chip": "ym2612"
    },
    {
      "channel": 1,
      "note": 60,
      "start": 31.9783,
      "duration": 0.0968,
      "velocity": 87,
      "chip": "ym2612"
    },
    {
      "channel": 1,
      "note": 60,
      "start": 32.176,
      "duration": 0.0968,
      "velocity": 87,
      "chip": "ym2612"
    },
    {
      "channel": 2,
      "note": 26,
      "start": 32.1787,
      "duration": 0.0602,
      "velocity": 120,
      "chip": "ym2612"
    },
    {
      "channel": 1,
      "note": 60,
      "start": 32.2735,
      "duration": 0.0968,
      "velocity": 87,
      "chip": "ym2612"
    },
    {
      "channel": 2,
      "note": 26,
      "start": 32.2761,
      "duration": 0.0603,
      "velocity": 120,
      "chip": "ym2612"
    },
    {
      "channel": 2,
      "note": 56,
      "start": 32.3734,
      "duration": 0.0931,
      "velocity": 112,
      "chip": "ym2612"
    },
    {
      "channel": 1,
      "note": 60,
      "start": 32.5661,
      "duration": 0.0942,
      "velocity": 87,
      "chip": "ym2612"
    },
    {
      "channel": 2,
      "note": 26,
      "start": 32.5687,
      "duration": 0.0603,
      "velocity": 120,
      "chip": "ym2612"
    },
    {
      "channel": 1,
      "note": 60,
      "start": 32.661,
      "duration": 0.1002,
      "velocity": 87,
      "chip": "ym2612"
    },
    {
      "channel": 0,
      "note": 78,
      "start": 32.761,
      "duration": 1.5594,
      "velocity": 96,
      "chip": "ym2612"
    },
    {
      "channel": 1,
      "note": 59,
      "start": 32.7618,
      "duration": 0.0961,
      "velocity": 87,
      "chip": "ym2612"
    },
    {
      "channel": 3,
      "note": 81,
      "start": 32.7626,
      "duration": 1.5594,
      "velocity": 95,
      "chip": "ym2612"
    },
    {
      "channel": 4,
      "note": 78,
      "start": 32.7635,
      "duration": 1.5594,
      "velocity": 95,
      "chip": "ym2612"
    },
    {
      "channel": 5,
      "note": 85,
      "start": 32.7643,
      "duration": 1.5594,
      "velocity": 95,
      "chip": "ym2612"
    },
    {
      "channel": 2,
      "note": 26,
      "start": 32.766,
      "duration": 0.0579,
      "velocity": 120,
      "chip": "ym2612"
    },
    {
      "channel": 2,
      "note": 26,
      "start": 32.8609,
      "duration": 0.0604,
      "velocity": 120,
      "chip": "ym2612"
    },
    {
      "channel": 1,
      "note": 59,
      "start": 32.956,
      "duration": 0.0969,
      "velocity": 87,
      "chip": "ym2612"
    },
    {
      "channel": 2,
      "note": 26,
      "start": 32.9587,
      "duration": 0.0603,
      "velocity": 120,
      "chip": "ym2612"
    },
    {
      "channel": 1,
      "note": 59,
      "start": 33.0536,
      "duration": 0.0969,
      "velocity": 87,
      "chip": "ym2612"
    },
    {
      "channel": 2,
      "note": 26,
      "start": 33.0563,
      "duration": 0.0602,
      "velocity": 120,
      "chip": "ym2612"
    },
    {
      "channel": 2,
      "note": 56,
      "start": 33.1535,
      "duration": 0.0931,
      "velocity": 112,
      "chip": "ym2612"
    },
    {
      "channel": 1,
      "note": 59,
      "start": 33.3462,
      "duration": 0.0967,
      "velocity": 87,
      "chip": "ym2612"
    },
    {
      "channel": 2,
      "note": 26,
      "start": 33.3488,
      "duration": 0.0602,
      "velocity": 120,
      "chip": "ym2612"
    },
    {
      "channel": 1,
      "note": 59,
      "start": 33.4436,
      "duration": 0.0942,
      "velocity": 87,
      "chip": "ym2612"
    },
    {
      "channel": 2,
      "note": 26,
      "start": 33.4463,
      "duration": 0.0602,
      "velocity": 120,
      "chip": "ym2612"
    },
    {
      "channel": 1,
      "note": 59,
      "start": 33.5385,
      "duration": 0.0968,
      "velocity": 87,
      "chip": "ym2612"
    },
    {
      "channel": 1,
      "note": 59,
      "start": 33.7362,
      "duration": 0.0968,
      "velocity": 87,
      "chip": "ym2612"
    },
    {
      "channel": 2,
      "note": 26,
      "start": 33.7388,
      "duration": 0.0603,
      "velocity": 120,
      "chip": "ym2612"
    },
    {
      "channel": 1,
      "note": 59,
      "start": 33.8337,
      "duration": 0.0969,
      "velocity": 87,
      "chip": "ym2612"
    },
    {
      "channel": 2,
      "note": 26,
      "start": 33.8363,
      "duration": 0.0602,
      "velocity": 120,
      "chip": "ym2612"
    },
    {
      "channel": 2,
      "note": 56,
      "start": 33.9336,
      "duration": 0.093,
      "velocity": 112,
      "chip": "ym2612"
    },
    {
      "channel": 1,
      "note": 59,
      "start": 34.1262,
      "duration": 0.0942,
      "velocity": 87,
      "chip": "ym2612"
    },
    {
      "channel": 2,
      "note": 26,
      "start": 34.1289,
      "duration": 0.0602,
      "velocity": 120,
      "chip": "ym2612"
    },
    {
      "channel": 1,
      "note": 59,
      "start": 34.221,
      "duration": 0.1002,
      "velocity": 87,
      "chip": "ym2612"
    },
    {
      "channel": 0,
      "note": 80,
      "start": 34.3212,
      "duration": 3.1228,
      "velocity": 91,
      "chip": "ym2612"
    },
    {
      "channel": 1,
      "note": 52,
      "start": 34.3219,
      "duration": 0.0961,
      "velocity": 87,
      "chip": "ym2612"
    },
    {
      "channel": 3,
      "note": 80,
      "start": 34.3227,
      "duration": 1.5592,
      "velocity": 95,
      "chip": "ym2612"
    },
    {
      "channel": 4,
      "note": 76,
      "start": 34.3236,
      "duration": 1.5592,
      "velocity": 95,
      "chip": "ym2612"
    },
    {
      "channel": 5,
      "note": 83,
      "start": 34.3244,
      "duration": 1.5592,
      "velocity": 95,
      "chip": "ym2612"
    },
    {
      "channel": 2,
      "note": 26,
      "start": 34.3261,
      "duration": 0.058,
      "velocity": 120,
      "chip": "ym2612"
    },
    {
      "channel": 2,
      "note": 26,
      "start": 34.4211,
      "duration": 0.0603,
      "velocity": 120,
      "chip": "ym2612"
    },
    {
      "channel": 1,
      "note": 52,
      "start": 34.5161,
      "duration": 0.097,
      "velocity": 87,
      "chip": "ym2612"
    },
    {
      "channel": 2,
      "note": 26,
      "start": 34.5188,
      "duration": 0.0604,
      "velocity": 120,
      "chip": "ym2612"
    },
    {
      "channel": 1,
      "note": 52,
      "start": 34.6138,
      "duration": 0.0969,
      "velocity": 87,
      "chip": "ym2612"
    },
    {
      "channel": 2,
      "note": 26,
      "start": 34.6165,
      "duration": 0.0602,
      "velocity": 120,
      "chip": "ym2612"
    },
    {
      "channel": 2,
      "note": 56,
      "start": 34.7137,
      "duration": 0.093,
      "velocity": 112,
      "chip": "ym2612"
    },
    {
      "channel": 1,
      "note": 52,
      "start": 34.9062,
      "duration": 0.0969,
      "velocity": 87,
      "chip": "ym2612"
    },
    {
      "channel": 2,
      "note": 26,
      "start": 34.9089,
      "duration": 0.0603,
      "velocity": 120,
      "chip": "ym2612"
    },
    {
      "channel": 1,
      "note": 52,
      "start": 35.0037,
      "duration": 0.0943,
      "velocity": 87,
      "chip": "ym2612"
    },
    {
      "channel": 2,
      "note": 26,
      "start": 35.0064,
      "duration": 0.0603,
      "velocity": 120,
      "chip": "ym2612"
    },
    {
      "channel": 1,
      "note": 52,
      "start": 35.0986,
      "duration": 0.0967,
      "velocity": 87,
      "chip": "ym2612"
    },
    {
      "channel": 1,
      "note": 52,
      "start": 35.2963,
      "duration": 0.0968,
      "velocity": 87,
      "chip": "ym2612"
    },
    {
      "channel": 2,
      "note": 26,
      "start": 35.299,
      "duration": 0.0602,
      "velocity": 120,
      "chip": "ym2612"
    },
    {
      "channel": 1,
      "note": 52,
      "start": 35.3938,
      "duration": 0.0968,
      "velocity": 87,
      "chip": "ym2612"
    },
    {
      "channel": 2,
      "note": 26,
      "start": 35.3964,
      "duration": 0.0603,
      "velocity": 120,
      "chip": "ym2612"
    },
    {
      "channel": 2,
      "note": 56,
      "start": 35.4937,
      "duration": 0.0931,
      "velocity": 112,
      "chip": "ym2612"
    },
    {
      "channel": 1,
      "note": 52,
      "start": 35.6863,
      "duration": 0.0943,
      "velocity": 87,
      "chip": "ym2612"
    },
    {
      "channel": 2,
      "note": 26,
      "start": 35.689,
      "duration": 0.0603,
      "velocity": 120,
      "chip": "ym2612"
    },
    {
      "channel": 1,
      "note": 52,
      "start": 35.7812,
      "duration": 0.1,
      "velocity": 87,
      "chip": "ym2612"
    },
    {
      "channel": 1,
      "note": 53,
      "start": 35.8818,
      "duration": 0.0964,
      "velocity": 87,
      "chip": "ym2612"
    },
    {
      "channel": 3,
      "note": 80,
      "start": 35.8826,
      "duration": 1.5662,
      "velocity": 96,
      "chip": "ym2612"
    },
    {
      "channel": 4,
      "note": 77,
      "start": 35.8834,
      "duration": 1.5691,
      "velocity": 96,
      "chip": "ym2612"
    },
    {
      "channel": 5,
      "note": 86,
      "start": 35.8843,
      "duration": 1.572,
      "velocity": 96,
      "chip": "ym2612"
    },
    {
      "channel": 2,
      "note": 26,
      "start": 35.8859,
      "duration": 0.0585,
      "velocity": 120,
      "chip": "ym2612"
    },
    {
      "channel": 2,
      "note": 26,
      "start": 35.9813,
      "duration": 0.0604,
      "velocity": 120,
      "chip": "ym2612"
    },
    {
      "channel": 1,
      "note": 53,
      "start": 36.0764,
      "duration": 0.0968,
      "velocity": 87,
      "chip": "ym2612"
    },
    {
      "channel": 2,
      "note": 26,
      "start": 36.0791,
      "duration": 0.0602,
      "velocity": 120,
      "chip": "ym2612"
    },
    {
      "channel": 1,
      "note": 53,
      "start": 36.1739,
      "duration": 0.0968,
      "velocity": 87,
      "chip": "ym2612"
    },
    {
      "channel": 2,
      "note": 26,
      "start": 36.1766,
      "duration": 0.0602,
      "velocity": 120,
      "chip": "ym2612"
    },
    {
      "channel": 2,
      "note": 56,
      "start": 36.2738,
      "duration": 0.0931,
      "velocity": 112,
      "chip": "ym2612"
    },
    {
      "channel": 1,
      "note": 53,
      "start": 36.4664,
      "duration": 0.0969,
      "velocity": 87,
      "chip": "ym2612"
    },
    {
      "channel": 2,
      "note": 26,
      "start": 36.469,
      "duration": 0.0604,
      "velocity": 120,
      "chip": "ym2612"
    },
    {
      "channel": 1,
      "note": 53,
      "start": 36.5639,
      "duration": 0.0942,
      "velocity": 87,
      "chip": "ym2612"
    },
    {
      "channel": 2,
      "note": 26,
      "start": 36.5665,
      "duration": 0.0604,
      "velocity": 120,
      "chip": "ym2612"
    },
    {
      "channel": 1,
      "note": 53,
      "start": 36.6588,
      "duration": 0.0967,
      "velocity": 87,
      "chip": "ym2612"
    },
    {
      "channel": 1,
      "note": 53,
      "start": 36.8564,
      "duration": 0.0968,
      "velocity": 87,
      "chip": "ym2612"
    },
    {
      "channel": 2,
      "note": 26,
      "start": 36.8591,
      "duration": 0.0603,
      "velocity": 120,
      "chip": "ym2612"
    },
    {
      "channel": 2,
      "note": 26,
      "start": 36.9562,
      "duration": 0.0605,
      "velocity": 120,
      "chip": "ym2612"
    },
    {
      "channel": 1,
      "note": 53,
      "start": 37.0515,
      "duration": 0.0943,
      "velocity": 87,
      "chip": "ym2612"
    },
    {
      "channel": 2,
      "note": 56,
      "start": 37.0542,
      "duration": 0.0934,
      "velocity": 112,
      "chip": "ym2612"
    },
    {
      "channel": 1,
      "note": 53,
      "start": 37.1463,
      "duration": 0.0995,
      "velocity": 87,
      "chip": "ym2612"
    },
    {
      "channel": 1,
      "note": 53,
      "start": 37.2466,
      "duration": 0.0941,
      "velocity": 87,
      "chip": "ym2612"
    },
    {
      "channel": 2,
      "note": 26,
      "start": 37.2492,
      "duration": 0.0602,
      "velocity": 120,
      "chip": "ym2612"
    },
    {
      "channel": 1,
      "note": 53,
      "start": 37.3413,
      "duration": 0.1037,
      "velocity": 87,
      "chip": "ym2612"
    },
    {
      "channel": 0,
      "note": 54,
      "start": 37.4447,
      "duration": 0.0933,
      "velocity": 91,
      "chip": "ym2612"
    },
    {
      "channel": 1,
      "note": 52,
      "start": 37.4457,
      "duration": 0.0931,
      "velocity": 87,
      "chip": "ym2612"
    },
    {
      "channel": 3,
      "note": 76,
      "start": 37.4495,
      "duration": 0.0901,
      "velocity": 96,
      "chip": "ym2612"
    },
    {
      "channel": 4,
      "note": 66,
      "start": 37.4532,
      "duration": 0.0869,
      "velocity": 96,
      "chip": "ym2612"
    },
    {
      "channel": 5,
      "note": 81,
      "start": 37.4569,
      "duration": 0.0837,
      "velocity": 96,
      "chip": "ym2612"
    },
    {
      "channel": 2,
      "note": 26,
      "start": 37.4586,
      "duration": 0.0458,
      "velocity": 120,
      "chip": "ym2612"
    },
    {
      "channel": 0,
      "note": 56,
      "start": 37.5387,
      "duration": 0.0969,
      "velocity": 91,
      "chip": "ym2612"
    },
    {
      "channel": 1,
      "note": 54,
      "start": 37.5394,
      "duration": 0.097,
      "velocity": 87,
      "chip": "ym2612"
    },
    {
      "channel": 2,
      "note": 26,
      "start": 37.5426,
      "duration": 0.0588,
      "velocity": 120,
      "chip": "ym2612"
    },
    {
      "channel": 0,
      "note": 57,
      "start": 37.6362,
      "duration": 0.0968,
      "velocity": 91,
      "chip": "ym2612"
    },
    {
      "channel": 3,
      "note": 76,
      "start": 37.6375,
      "duration": 0.0971,
      "velocity": 96,
      "chip": "ym2612"
    },
    {
      "channel": 4,
      "note": 66,
      "start": 37.6383,
      "duration": 0.0971,
      "velocity": 96,
      "chip": "ym2612"
    },
    {
      "channel": 5,
      "note": 81,
      "start": 37.6392,
      "duration": 0.0971,
      "velocity": 96,
      "chip": "ym2612"
    },
    {
      "channel": 2,
      "note": 26,
      "start": 37.6408,
      "duration": 0.0585,
      "velocity": 120,
      "chip": "ym2612"
    },
    {
      "channel": 0,
      "note": 59,
      "start": 37.7337,
      "duration": 0.0968,
      "velocity": 91,
      "chip": "ym2612"
    },
    {
      "channel": 1,
      "note": 60,
      "start": 37.7345,
      "duration": 0.0968,
      "velocity": 87,
      "chip": "ym2612"
    },
    {
      "channel": 3,
      "note": 76,
      "start": 37.7353,
      "duration": 0.0969,
      "velocity": 96,
      "chip": "ym2612"
    },
    {
      "channel": 4,
      "note": 66,
      "start": 37.7361,
      "duration": 0.0965,
      "velocity": 96,
      "chip": "ym2612"
    },
    {
      "channel": 5,
      "note": 81,
      "start": 37.7369,
      "duration": 0.0962,
      "velocity": 96,
      "chip": "ym2612"
    },
    {
      "channel": 2,
      "note": 26,
      "start": 37.7386,
      "duration": 0.0583,
      "velocity": 120,
      "chip": "ym2612"
    },
    {
      "channel": 0,
      "note": 57,
      "start": 37.8312,
      "duration": 0.0041,
      "velocity": 91,
      "chip": "ym2612"
    },
    {
      "channel": 1,
      "note": 59,
      "start": 37.832,
      "duration": 0.0033,
      "velocity": 87,
      "chip": "ym2612"
    },
    {
      "channel": 2,
      "note": 56,
      "start": 37.8352,
      "duration": 0.0,
      "velocity": 112,
      "chip": "ym2612"
    }
  ]
}