{
  "track_name": "07 - Unknown Track 3",
  "duration_sec": 27.733,
  "sample_rate": 44100,
  "note_count": 720,
  "unique_pitches": 20,
  "pitch_range": 32,
  "avg_note_duration": 0.2306,
  "reconstruction_stats": {
    "notes_reconstructed": 720,
    "keyon_events": 720,
    "keyoff_events": 714,
    "orphan_keyons": 6,
    "unique_pitches": 20,
    "pitch_range": 32,
    "avg_duration_sec": 0.2306
  },
  "metadata": {
    "source": "M\\Mega Anser\\07 - Unknown Track 3.vgz"
  },
  "notes": [
    {
      "channel": 0,
      "note": 82,
      "start": 0.0002,
      "duration": 0.2059,
      "velocity": 80,
      "chip": "ym2612"
    },
    {
      "channel": 1,
      "note": 63,
      "start": 0.0033,
      "duration": 0.6333,
      "velocity": 107,
      "chip": "ym2612"
    },
    {
      "channel": 3,
      "note": 79,
      "start": 0.0067,
      "duration": 0.2002,
      "velocity": 80,
      "chip": "ym2612"
    },
    {
      "channel": 4,
      "note": 82,
      "start": 0.01,
      "duration": 0.1975,
      "velocity": 80,
      "chip": "ym2612"
    },
    {
      "channel": 5,
      "note": 86,
      "start": 0.0133,
      "duration": 0.1949,
      "velocity": 80,
      "chip": "ym2612"
    },
    {
      "channel": 2,
      "note": 75,
      "start": 0.0166,
      "duration": 0.1922,
      "velocity": 80,
      "chip": "ym2612"
    },
    {
      "channel": 0,
      "note": 82,
      "start": 0.2064,
      "duration": 0.2225,
      "velocity": 80,
      "chip": "ym2612"
    },
    {
      "channel": 3,
      "note": 79,
      "start": 0.2073,
      "duration": 0.2223,
      "velocity": 80,
      "chip": "ym2612"
    },
    {
      "channel": 4,
      "note": 82,
      "start": 0.2079,
      "duration": 0.2223,
      "velocity": 80,
      "chip": "ym2612"
    },
    {
      "channel": 5,
      "note": 86,
      "start": 0.2086,
      "duration": 0.2221,
      "velocity": 80,
      "chip": "ym2612"
    },
    {
      "channel": 2,
      "note": 75,
      "start": 0.2092,
      "duration": 0.222,
      "velocity": 80,
      "chip": "ym2612"
    },
    {
      "channel": 0,
      "note": 82,
      "start": 0.4293,
      "duration": 0.2068,
      "velocity": 80,
      "chip": "ym2612"
    },
    {
      "channel": 3,
      "note": 79,
      "start": 0.43,
      "duration": 0.2071,
      "velocity": 80,
      "chip": "ym2612"
    },
    {
      "channel": 4,
      "note": 82,
      "start": 0.4306,
      "duration": 0.207,
      "velocity": 80,
      "chip": "ym2612"
    },
    {
      "channel": 5,
      "note": 86,
      "start": 0.4311,
      "duration": 0.2071,
      "velocity": 80,
      "chip": "ym2612"
    },
    {
      "channel": 2,
      "note": 75,
      "start": 0.4316,
      "duration": 0.2071,
      "velocity": 80,
      "chip": "ym2612"
    },
    {
      "channel": 0,
      "note": 82,
      "start": 0.6364,
      "duration": 0.2232,
      "velocity": 80,
      "chip": "ym2612"
    },
    {
      "channel": 1,
      "note": 63,
      "start": 0.6369,
      "duration": 0.2232,
      "velocity": 107,
      "chip": "ym2612"
    },
    {
      "channel": 3,
      "note": 79,
      "start": 0.6374,
      "duration": 0.2232,
      "velocity": 80,
      "chip": "ym2612"
    },
    {
      "channel": 4,
      "note": 82,
      "start": 0.638,
      "duration": 0.2232,
      "velocity": 80,
      "chip": "ym2612"
    },
    {
      "channel": 5,
      "note": 86,
      "start": 0.6385,
      "duration": 0.2232,
      "velocity": 80,
      "chip": "ym2612"
    },
    {
      "channel": 2,
      "note": 75,
      "start": 0.639,
      "duration": 0.2232,
      "velocity": 80,
      "chip": "ym2612"
    },
    {
      "channel": 0,
      "note": 82,
      "start": 0.86,
      "duration": 0.2062,
      "velocity": 80,
      "chip": "ym2612"
    },
    {
      "channel": 1,
      "note": 63,
      "start": 0.8605,
      "duration": 0.6367,
      "velocity": 107,
      "chip": "ym2612"
    },
    {
      "channel": 3,
      "note": 79,
      "start": 0.861,
      "duration": 0.2059,
      "velocity": 80,
      "chip": "ym2612"
    },
    {
      "channel": 4,
      "note": 82,
      "start": 0.8616,
      "duration": 0.206,
      "velocity": 80,
      "chip": "ym2612"
    },
    {
      "channel": 5,
      "note": 86,
      "start": 0.8621,
      "duration": 0.206,
      "velocity": 80,
      "chip": "ym2612"
    },
    {
      "channel": 2,
      "note": 75,
      "start": 0.8626,
      "duration": 0.2059,
      "velocity": 80,
      "chip": "ym2612"
    },
    {
      "channel": 0,
      "note": 82,
      "start": 1.0666,
      "duration": 0.2227,
      "velocity": 80,
      "chip": "ym2612"
    },
    {
      "channel": 3,
      "note": 79,
      "start": 1.0673,
      "duration": 0.2228,
      "velocity": 80,
      "chip": "ym2612"
    },
    {
      "channel": 4,
      "note": 82,
      "start": 1.0679,
      "duration": 0.2227,
      "velocity": 80,
      "chip": "ym2612"
    },
    {
      "channel": 5,
      "note": 86,
      "start": 1.0684,
      "duration": 0.2227,
      "velocity": 80,
      "chip": "ym2612"
    },
    {
      "channel": 2,
      "note": 75,
      "start": 1.0689,
      "duration": 0.2228,
      "velocity": 80,
      "chip": "ym2612"
    },
    {
      "channel": 0,
      "note": 82,
      "start": 1.2897,
      "duration": 0.207,
      "velocity": 80,
      "chip": "ym2612"
    },
    {
      "channel": 3,
      "note": 79,
      "start": 1.2905,
      "duration": 0.2072,
      "velocity": 80,
      "chip": "ym2612"
    },
    {
      "channel": 4,
      "note": 82,
      "start": 1.291,
      "duration": 0.2072,
      "velocity": 80,
      "chip": "ym2612"
    },
    {
      "channel": 5,
      "note": 86,
      "start": 1.2915,
      "duration": 0.2073,
      "velocity": 80,
      "chip": "ym2612"
    },
    {
      "channel": 2,
      "note": 75,
      "start": 1.2921,
      "duration": 0.2072,
      "velocity": 80,
      "chip": "ym2612"
    },
    {
      "channel": 0,
      "note": 82,
      "start": 1.4971,
      "duration": 0.2224,
      "velocity": 80,
      "chip": "ym2612"
    },
    {
      "channel": 1,
      "note": 63,
      "start": 1.4976,
      "duration": 0.1105,
      "velocity": 107,
      "chip": "ym2612"
    },
    {
      "channel": 3,
      "note": 79,
      "start": 1.4981,
      "duration": 0.2228,
      "velocity": 80,
      "chip": "ym2612"
    },
    {
      "channel": 4,
      "note": 82,
      "start": 1.4986,
      "duration": 0.2232,
      "velocity": 80,
      "chip": "ym2612"
    },
    {
      "channel": 5,
      "note": 86,
      "start": 1.4992,
      "duration": 0.2233,
      "velocity": 80,
      "chip": "ym2612"
    },
    {
      "channel": 2,
      "note": 75,
      "start": 1.4997,
      "duration": 0.2237,
      "velocity": 80,
      "chip": "ym2612"
    },
    {
      "channel": 1,
      "note": 63,
      "start": 1.6084,
      "duration": 0.1117,
      "velocity": 107,
      "chip": "ym2612"
    },
    {
      "channel": 0,
      "note": 87,
      "start": 1.72,
      "duration": 0.2174,
      "velocity": 80,
      "chip": "ym2612"
    },
    {
      "channel": 1,
      "note": 65,
      "start": 1.7207,
      "duration": 0.6364,
      "velocity": 107,
      "chip": "ym2612"
    },
    {
      "channel": 3,
      "note": 79,
      "start": 1.7215,
      "duration": 0.2169,
      "velocity": 80,
      "chip": "ym2612"
    },
    {
      "channel": 4,
      "note": 82,
      "start": 1.7222,
      "duration": 0.2167,
      "velocity": 80,
      "chip": "ym2612"
    },
    {
      "channel": 5,
      "note": 87,
      "start": 1.7231,
      "duration": 0.2166,
      "velocity": 80,
      "chip": "ym2612"
    },
    {
      "channel": 2,
      "note": 77,
      "start": 1.7238,
      "duration": 0.2164,
      "velocity": 80,
      "chip": "ym2612"
    },
    {
      "channel": 0,
      "note": 87,
      "start": 1.9378,
      "duration": 0.2117,
      "velocity": 80,
      "chip": "ym2612"
    },
    {
      "channel": 3,
      "note": 79,
      "start": 1.9387,
      "duration": 0.2116,
      "velocity": 80,
      "chip": "ym2612"
    },
    {
      "channel": 4,
      "note": 82,
      "start": 1.9394,
      "duration": 0.2115,
      "velocity": 80,
      "chip": "ym2612"
    },
    {
      "channel": 5,
      "note": 87,
      "start": 1.94,
      "duration": 0.2114,
      "velocity": 80,
      "chip": "ym2612"
    },
    {
      "channel": 2,
      "note": 77,
      "start": 1.9406,
      "duration": 0.2113,
      "velocity": 80,
      "chip": "ym2612"
    },
    {
      "channel": 0,
      "note": 87,
      "start": 2.1499,
      "duration": 0.2068,
      "velocity": 80,
      "chip": "ym2612"
    },
    {
      "channel": 3,
      "note": 79,
      "start": 2.1507,
      "duration": 0.2069,
      "velocity": 80,
      "chip": "ym2612"
    },
    {
      "channel": 4,
      "note": 82,
      "start": 2.1512,
      "duration": 0.207,
      "velocity": 80,
      "chip": "ym2612"
    },
    {
      "channel": 5,
      "note": 87,
      "start": 2.1518,
      "duration": 0.207,
      "velocity": 80,
      "chip": "ym2612"
    },
    {
      "channel": 2,
      "note": 77,
      "start": 2.1523,
      "duration": 0.2069,
      "velocity": 80,
      "chip": "ym2612"
    },
    {
      "channel": 0,
      "note": 87,
      "start": 2.3571,
      "duration": 0.2226,
      "velocity": 80,
      "chip": "ym2612"
    },
    {
      "channel": 1,
      "note": 65,
      "start": 2.3576,
      "duration": 0.2227,
      "velocity": 107,
      "chip": "ym2612"
    },
    {
      "channel": 3,
      "note": 79,
      "start": 2.358,
      "duration": 0.2227,
      "velocity": 80,
      "chip": "ym2612"
    },
    {
      "channel": 4,
      "note": 82,
      "start": 2.3586,
      "duration": 0.2226,
      "velocity": 80,
      "chip": "ym2612"
    },
    {
      "channel": 5,
      "note": 87,
      "start": 2.3591,
      "duration": 0.2226,
      "velocity": 80,
      "chip": "ym2612"
    },
    {
      "channel": 2,
      "note": 77,
      "start": 2.3597,
      "duration": 0.2226,
      "velocity": 80,
      "chip": "ym2612"
    },
    {
      "channel": 0,
      "note": 87,
      "start": 2.58,
      "duration": 0.2068,
      "velocity": 80,
      "chip": "ym2612"
    },
    {
      "channel": 1,
      "note": 65,
      "start": 2.5806,
      "duration": 0.6369,
      "velocity": 107,
      "chip": "ym2612"
    },
    {
      "channel": 3,
      "note": 79,
      "start": 2.5811,
      "duration": 0.2066,
      "velocity": 80,
      "chip": "ym2612"
    },
    {
      "channel": 4,
      "note": 82,
      "start": 2.5816,
      "duration": 0.2066,
      "velocity": 80,
      "chip": "ym2612"
    },
    {
      "channel": 5,
      "note": 87,
      "start": 2.5821,
      "duration": 0.2066,
      "velocity": 80,
      "chip": "ym2612"
    },
    {
      "channel": 2,
      "note": 77,
      "start": 2.5827,
      "duration": 0.2066,
      "velocity": 80,
      "chip": "ym2612"
    },
    {
      "channel": 0,
      "note": 87,
      "start": 2.7872,
      "duration": 0.2227,
      "velocity": 80,
      "chip": "ym2612"
    },
    {
      "channel": 3,
      "note": 79,
      "start": 2.788,
      "duration": 0.2226,
      "velocity": 80,
      "chip": "ym2612"
    },
    {
      "channel": 4,
      "note": 82,
      "start": 2.7885,
      "duration": 0.2227,
      "velocity": 80,
      "chip": "ym2612"
    },
    {
      "channel": 5,
      "note": 87,
      "start": 2.789,
      "duration": 0.2227,
      "velocity": 80,
      "chip": "ym2612"
    },
    {
      "channel": 2,
      "note": 77,
      "start": 2.7896,
      "duration": 0.2227,
      "velocity": 80,
      "chip": "ym2612"
    },
    {
      "channel": 0,
      "note": 87,
      "start": 3.0103,
      "duration": 0.2067,
      "velocity": 80,
      "chip": "ym2612"
    },
    {
      "channel": 3,
      "note": 79,
      "start": 3.011,
      "duration": 0.207,
      "velocity": 80,
      "chip": "ym2612"
    },
    {
      "channel": 4,
      "note": 82,
      "start": 3.0116,
      "duration": 0.2069,
      "velocity": 80,
      "chip": "ym2612"
    },
    {
      "channel": 5,
      "note": 87,
      "start": 3.0121,
      "duration": 0.207,
      "velocity": 80,
      "chip": "ym2612"
    },
    {
      "channel": 2,
      "note": 77,
      "start": 3.0126,
      "duration": 0.207,
      "velocity": 80,
      "chip": "ym2612"
    },
    {
      "channel": 0,
      "note": 87,
      "start": 3.2174,
      "duration": 0.2226,
      "velocity": 80,
      "chip": "ym2612"
    },
    {
      "channel": 1,
      "note": 65,
      "start": 3.2179,
      "duration": 0.1108,
      "velocity": 107,
      "chip": "ym2612"
    },
    {
      "channel": 3,
      "note": 79,
      "start": 3.2184,
      "duration": 0.2231,
      "velocity": 80,
      "chip": "ym2612"
    },
    {
      "channel": 4,
      "note": 82,
      "start": 3.2189,
      "duration": 0.2234,
      "velocity": 80,
      "chip": "ym2612"
    },
    {
      "channel": 5,
      "note": 87,
      "start": 3.2195,
      "duration": 0.2236,
      "velocity": 80,
      "chip": "ym2612"
    },
    {
      "channel": 2,
      "note": 77,
      "start": 3.22,
      "duration": 0.2239,
      "velocity": 80,
      "chip": "ym2612"
    },
    {
      "channel": 1,
      "note": 63,
      "start": 3.3293,
      "duration": 0.1115,
      "velocity": 107,
      "chip": "ym2612"
    },
    {
      "channel": 0,
      "note": 79,
      "start": 3.4406,
      "duration": 0.2066,
      "velocity": 80,
      "chip": "ym2612"
    },
    {
      "channel": 1,
      "note": 62,
      "start": 3.4413,
      "duration": 0.8597,
      "velocity": 107,
      "chip": "ym2612"
    },
    {
      "channel": 3,
      "note": 77,
      "start": 3.442,
      "duration": 0.2062,
      "velocity": 80,
      "chip": "ym2612"
    },
    {
      "channel": 4,
      "note": 81,
      "start": 3.4429,
      "duration": 0.206,
      "velocity": 80,
      "chip": "ym2612"
    },
    {
      "channel": 5,
      "note": 86,
      "start": 3.4436,
      "duration": 0.2059,
      "velocity": 80,
      "chip": "ym2612"
    },
    {
      "channel": 2,
      "note": 71,
      "start": 3.4444,
      "duration": 0.2057,
      "velocity": 80,
      "chip": "ym2612"
    },
    {
      "channel": 0,
      "note": 77,
      "start": 3.6476,
      "duration": 0.2225,
      "velocity": 80,
      "chip": "ym2612"
    },
    {
      "channel": 3,
      "note": 77,
      "start": 3.6486,
      "duration": 0.2225,
      "velocity": 80,
      "chip": "ym2612"
    },
    {
      "channel": 4,
      "note": 81,
      "start": 3.6492,
      "duration": 0.2224,
      "velocity": 80,
      "chip": "ym2612"
    },
    {
      "channel": 5,
      "note": 86,
      "start": 3.6499,
      "duration": 0.2223,
      "velocity": 80,
      "chip": "ym2612"
    },
    {
      "channel": 2,
      "note": 71,
      "start": 3.6505,
      "duration": 0.2222,
      "velocity": 80,
      "chip": "ym2612"
    },
    {
      "channel": 0,
      "note": 79,
      "start": 3.8707,
      "duration": 0.2066,
      "velocity": 80,
      "chip": "ym2612"
    },
    {
      "channel": 3,
      "note": 77,
      "start": 3.8715,
      "duration": 0.2067,
      "velocity": 80,
      "chip": "ym2612"
    },
    {
      "channel": 4,
      "note": 81,
      "start": 3.872,
      "duration": 0.2067,
      "velocity": 80,
      "chip": "ym2612"
    },
    {
      "channel": 5,
      "note": 86,
      "start": 3.8726,
      "duration": 0.2067,
      "velocity": 80,
      "chip": "ym2612"
    },
    {
      "channel": 2,
      "note": 71,
      "start": 3.8731,
      "duration": 0.2067,
      "velocity": 80,
      "chip": "ym2612"
    },
    {
      "channel": 0,
      "note": 79,
      "start": 4.0777,
      "duration": 0.2227,
      "velocity": 80,
      "chip": "ym2612"
    },
    {
      "channel": 3,
      "note": 77,
      "start": 4.0785,
      "duration": 0.2232,
      "velocity": 80,
      "chip": "ym2612"
    },
    {
      "channel": 4,
      "note": 81,
      "start": 4.0791,
      "duration": 0.2231,
      "velocity": 80,
      "chip": "ym2612"
    },
    {
      "channel": 5,
      "note": 86,
      "start": 4.0796,
      "duration": 0.2232,
      "velocity": 80,
      "chip": "ym2612"
    },
    {
      "channel": 2,
      "note": 71,
      "start": 4.0801,
      "duration": 0.2232,
      "velocity": 80,
      "chip": "ym2612"
    },
    {
      "channel": 0,
      "note": 77,
      "start": 4.3009,
      "duration": 0.2083,
      "velocity": 80,
      "chip": "ym2612"
    },
    {
      "channel": 1,
      "note": 67,
      "start": 4.3016,
      "duration": 0.6367,
      "velocity": 107,
      "chip": "ym2612"
    },
    {
      "channel": 3,
      "note": 77,
      "start": 4.3021,
      "duration": 0.208,
      "velocity": 80,
      "chip": "ym2612"
    },
    {
      "channel": 4,
      "note": 81,
      "start": 4.3026,
      "duration": 0.2081,
      "velocity": 80,
      "chip": "ym2612"
    },
    {
      "channel": 5,
      "note": 86,
      "start": 4.3032,
      "duration": 0.208,
      "velocity": 80,
      "chip": "ym2612"
    },
    {
      "channel": 2,
      "note": 71,
      "start": 4.3037,
      "duration": 0.208,
      "velocity": 80,
      "chip": "ym2612"
    },
    {
      "channel": 0,
      "note": 77,
      "start": 4.5097,
      "duration": 0.2208,
      "velocity": 80,
      "chip": "ym2612"
    },
    {
      "channel": 3,
      "note": 77,
      "start": 4.5105,
      "duration": 0.2209,
      "velocity": 80,
      "chip": "ym2612"
    },
    {
      "channel": 4,
      "note": 81,
      "start": 4.511,
      "duration": 0.2209,
      "velocity": 80,
      "chip": "ym2612"
    },
    {
      "channel": 5,
      "note": 86,
      "start": 4.5116,
      "duration": 0.2209,
      "velocity": 80,
      "chip": "ym2612"
    },
    {
      "channel": 2,
      "note": 71,
      "start": 4.5121,
      "duration": 0.2209,
      "velocity": 80,
      "chip": "ym2612"
    },
    {
      "channel": 0,
      "note": 79,
      "start": 4.731,
      "duration": 0.2067,
      "velocity": 80,
      "chip": "ym2612"
    },
    {
      "channel": 3,
      "note": 77,
      "start": 4.7318,
      "duration": 0.2071,
      "velocity": 80,
      "chip": "ym2612"
    },
    {
      "channel": 4,
      "note": 81,
      "start": 4.7324,
      "duration": 0.207,
      "velocity": 80,
      "chip": "ym2612"
    },
    {
      "channel": 5,
      "note": 86,
      "start": 4.7329,
      "duration": 0.207,
      "velocity": 80,
      "chip": "ym2612"
    },
    {
      "channel": 2,
      "note": 71,
      "start": 4.7334,
      "duration": 0.2071,
      "velocity": 80,
      "chip": "ym2612"
    },
    {
      "channel": 0,
      "note": 79,
      "start": 4.9381,
      "duration": 0.2225,
      "velocity": 80,
      "chip": "ym2612"
    },
    {
      "channel": 1,
      "note": 67,
      "start": 4.9387,
      "duration": 0.1158,
      "velocity": 107,
      "chip": "ym2612"
    },
    {
      "channel": 3,
      "note": 77,
      "start": 4.9392,
      "duration": 0.2229,
      "velocity": 80,
      "chip": "ym2612"
    },
    {
      "channel": 4,
      "note": 81,
      "start": 4.9397,
      "duration": 0.2232,
      "velocity": 80,
      "chip": "ym2612"
    },
    {
      "channel": 5,
      "note": 86,
      "start": 4.9402,
      "duration": 0.2234,
      "velocity": 80,
      "chip": "ym2612"
    },
    {
      "channel": 2,
      "note": 71,
      "start": 4.9408,
      "duration": 0.2237,
      "velocity": 80,
      "chip": "ym2612"
    },
    {
      "channel": 1,
      "note": 65,
      "start": 5.0549,
      "duration": 0.1064,
      "velocity": 107,
      "chip": "ym2612"
    },
    {
      "channel": 0,
      "note": 82,
      "start": 5.1612,
      "duration": 0.2066,
      "velocity": 80,
      "chip": "ym2612"
    },
    {
      "channel": 1,
      "note": 60,
      "start": 5.1619,
      "duration": 0.2066,
      "velocity": 107,
      "chip": "ym2612"
    },
    {
      "channel": 3,
      "note": 75,
      "start": 5.1626,
      "duration": 0.2065,
      "velocity": 80,
      "chip": "ym2612"
    },
    {
      "channel": 4,
      "note": 82,
      "start": 5.1635,
      "duration": 0.2063,
      "velocity": 80,
      "chip": "ym2612"
    },
    {
      "channel": 5,
      "note": 86,
      "start": 5.1642,
      "duration": 0.2063,
      "velocity": 80,
      "chip": "ym2612"
    },
    {
      "channel": 2,
      "note": 72,
      "start": 5.165,
      "duration": 0.2062,
      "velocity": 80,
      "chip": "ym2612"
    },
    {
      "channel": 0,
      "note": 84,
      "start": 5.3683,
      "duration": 0.2225,
      "velocity": 80,
      "chip": "ym2612"
    },
    {
      "channel": 1,
      "note": 63,
      "start": 5.369,
      "duration": 0.6526,
      "velocity": 107,
      "chip": "ym2612"
    },
    {
      "channel": 3,
      "note": 75,
      "start": 5.3697,
      "duration": 0.2221,
      "velocity": 80,
      "chip": "ym2612"
    },
    {
      "channel": 4,
      "note": 82,
      "start": 5.3704,
      "duration": 0.2221,
      "velocity": 80,
      "chip": "ym2612"
    },
    {
      "channel": 5,
      "note": 86,
      "start": 5.3711,
      "duration": 0.2221,
      "velocity": 80,
      "chip": "ym2612"
    },
    {
      "channel": 2,
      "note": 72,
      "start": 5.3717,
      "duration": 0.2221,
      "velocity": 80,
      "chip": "ym2612"
    },
    {
      "channel": 0,
      "note": 79,
      "start": 5.5914,
      "duration": 0.2065,
      "velocity": 80,
      "chip": "ym2612"
    },
    {
      "channel": 3,
      "note": 72,
      "start": 5.5923,
      "duration": 0.2066,
      "velocity": 80,
      "chip": "ym2612"
    },
    {
      "channel": 4,
      "note": 82,
      "start": 5.593,
      "duration": 0.2066,
      "velocity": 80,
      "chip": "ym2612"
    },
    {
      "channel": 5,
      "note": 86,
      "start": 5.5937,
      "duration": 0.2065,
      "velocity": 80,
      "chip": "ym2612"
    },
    {
      "channel": 2,
      "note": 67,
      "start": 5.5944,
      "duration": 0.2066,
      "velocity": 80,
      "chip": "ym2612"
    },
    {
      "channel": 0,
      "note": 79,
      "start": 5.7985,
      "duration": 0.2224,
      "velocity": 80,
      "chip": "ym2612"
    },
    {
      "channel": 3,
      "note": 72,
      "start": 5.7994,
      "duration": 0.2228,
      "velocity": 80,
      "chip": "ym2612"
    },
    {
      "channel": 4,
      "note": 77,
      "start": 5.8001,
      "duration": 0.2228,
      "velocity": 80,
      "chip": "ym2612"
    },
    {
      "channel": 5,
      "note": 84,
      "start": 5.8008,
      "duration": 0.2228,
      "velocity": 80,
      "chip": "ym2612"
    },
    {
      "channel": 2,
      "note": 70,
      "start": 5.8015,
      "duration": 0.2229,
      "velocity": 80,
      "chip": "ym2612"
    },
    {
      "channel": 0,
      "note": 82,
      "start": 6.0214,
      "duration": 0.2067,
      "velocity": 80,
      "chip": "ym2612"
    },
    {
      "channel": 1,
      "note": 58,
      "start": 6.0221,
      "duration": 0.0947,
      "velocity": 107,
      "chip": "ym2612"
    },
    {
      "channel": 3,
      "note": 77,
      "start": 6.0228,
      "duration": 0.2067,
      "velocity": 80,
      "chip": "ym2612"
    },
    {
      "channel": 4,
      "note": 82,
      "start": 6.0235,
      "duration": 0.2066,
      "velocity": 80,
      "chip": "ym2612"
    },
    {
      "channel": 5,
      "note": 86,
      "start": 6.0242,
      "duration": 0.2066,
      "velocity": 80,
      "chip": "ym2612"
    },
    {
      "channel": 2,
      "note": 72,
      "start": 6.0249,
      "duration": 0.2067,
      "velocity": 80,
      "chip": "ym2612"
    },
    {
      "channel": 1,
      "note": 60,
      "start": 6.1173,
      "duration": 0.1115,
      "velocity": 107,
      "chip": "ym2612"
    },
    {
      "channel": 0,
      "note": 82,
      "start": 6.2287,
      "duration": 0.2224,
      "velocity": 80,
      "chip": "ym2612"
    },
    {
      "channel": 1,
      "note": 63,
      "start": 6.2293,
      "duration": 0.4295,
      "velocity": 107,
      "chip": "ym2612"
    },
    {
      "channel": 3,
      "note": 75,
      "start": 6.23,
      "duration": 0.222,
      "velocity": 80,
      "chip": "ym2612"
    },
    {
      "channel": 4,
      "note": 79,
      "start": 6.2307,
      "duration": 0.222,
      "velocity": 80,
      "chip": "ym2612"
    },
    {
      "channel": 5,
      "note": 86,
      "start": 6.2314,
      "duration": 0.222,
      "velocity": 80,
      "chip": "ym2612"
    },
    {
      "channel": 2,
      "note": 72,
      "start": 6.232,
      "duration": 0.2221,
      "velocity": 80,
      "chip": "ym2612"
    },
    {
      "channel": 0,
      "note": 79,
      "start": 6.4516,
      "duration": 0.2066,
      "velocity": 80,
      "chip": "ym2612"
    },
    {
      "channel": 3,
      "note": 77,
      "start": 6.4526,
      "duration": 0.2069,
      "velocity": 80,
      "chip": "ym2612"
    },
    {
      "channel": 4,
      "note": 82,
      "start": 6.4533,
      "duration": 0.2069,
      "velocity": 80,
      "chip": "ym2612"
    },
    {
      "channel": 5,
      "note": 87,
      "start": 6.454,
      "duration": 0.2069,
      "velocity": 80,
      "chip": "ym2612"
    },
    {
      "channel": 2,
      "note": 67,
      "start": 6.4546,
      "duration": 0.207,
      "velocity": 80,
      "chip": "ym2612"
    },
    {
      "channel": 0,
      "note": 72,
      "start": 6.6587,
      "duration": 0.2227,
      "velocity": 80,
      "chip": "ym2612"
    },
    {
      "channel": 1,
      "note": 58,
      "start": 6.6594,
      "duration": 0.1106,
      "velocity": 107,
      "chip": "ym2612"
    },
    {
      "channel": 3,
      "note": 81,
      "start": 6.6601,
      "duration": 0.2227,
      "velocity": 80,
      "chip": "ym2612"
    },
    {
      "channel": 4,
      "note": 82,
      "start": 6.6608,
      "duration": 0.2228,
      "velocity": 80,
      "chip": "ym2612"
    },
    {
      "channel": 5,
      "note": 87,
      "start": 6.6615,
      "duration": 0.2229,
      "velocity": 80,
      "chip": "ym2612"
    },
    {
      "channel": 2,
      "note": 65,
      "start": 6.6621,
      "duration": 0.223,
      "velocity": 80,
      "chip": "ym2612"
    },
    {
      "channel": 1,
      "note": 58,
      "start": 6.7704,
      "duration": 0.1116,
      "velocity": 107,
      "chip": "ym2612"
    },
    {
      "channel": 0,
      "note": 82,
      "start": 6.8819,
      "duration": 0.2066,
      "velocity": 80,
      "chip": "ym2612"
    },
    {
      "channel": 1,
      "note": 63,
      "start": 6.8825,
      "duration": 0.6365,
      "velocity": 107,
      "chip": "ym2612"
    },
    {
      "channel": 3,
      "note": 79,
      "start": 6.8833,
      "duration": 0.2061,
      "velocity": 80,
      "chip": "ym2612"
    },
    {
      "channel": 4,
      "note": 82,
      "start": 6.8841,
      "duration": 0.2059,
      "velocity": 80,
      "chip": "ym2612"
    },
    {
      "channel": 5,
      "note": 86,
      "start": 6.8849,
      "duration": 0.2057,
      "velocity": 80,
      "chip": "ym2612"
    },
    {
      "channel": 2,
      "note": 75,
      "start": 6.8857,
      "duration": 0.2055,
      "velocity": 80,
      "chip": "ym2612"
    },
    {
      "channel": 0,
      "note": 82,
      "start": 7.0888,
      "duration": 0.2227,
      "velocity": 80,
      "chip": "ym2612"
    },
    {
      "channel": 3,
      "note": 79,
      "start": 7.0897,
      "duration": 0.2225,
      "velocity": 80,
      "chip": "ym2612"
    },
    {
      "channel": 4,
      "note": 82,
      "start": 7.0904,
      "duration": 0.2224,
      "velocity": 80,
      "chip": "ym2612"
    },
    {
      "channel": 5,
      "note": 86,
      "start": 7.091,
      "duration": 0.2223,
      "velocity": 80,
      "chip": "ym2612"
    },
    {
      "channel": 2,
      "note": 75,
      "start": 7.0917,
      "duration": 0.2222,
      "velocity": 80,
      "chip": "ym2612"
    },
    {
      "channel": 0,
      "note": 82,
      "start": 7.3118,
      "duration": 0.2067,
      "velocity": 80,
      "chip": "ym2612"
    },
    {
      "channel": 3,
      "note": 79,
      "start": 7.3126,
      "duration": 0.207,
      "velocity": 80,
      "chip": "ym2612"
    },
    {
      "channel": 4,
      "note": 82,
      "start": 7.3132,
      "duration": 0.207,
      "velocity": 80,
      "chip": "ym2612"
    },
    {
      "channel": 5,
      "note": 86,
      "start": 7.3137,
      "duration": 0.2069,
      "velocity": 80,
      "chip": "ym2612"
    },
    {
      "channel": 2,
      "note": 75,
      "start": 7.3142,
      "duration": 0.207,
      "velocity": 80,
      "chip": "ym2612"
    },
    {
      "channel": 0,
      "note": 82,
      "start": 7.5189,
      "duration": 0.2227,
      "velocity": 80,
      "chip": "ym2612"
    },
    {
      "channel": 1,
      "note": 63,
      "start": 7.5195,
      "duration": 0.2226,
      "velocity": 107,
      "chip": "ym2612"
    },
    {
      "channel": 3,
      "note": 79,
      "start": 7.52,
      "duration": 0.2227,
      "velocity": 80,
      "chip": "ym2612"
    },
    {
      "channel": 4,
      "note": 82,
      "start": 7.5205,
      "duration": 0.2227,
      "velocity": 80,
      "chip": "ym2612"
    },
    {
      "channel": 5,
      "note": 86,
      "start": 7.521,
      "duration": 0.2226,
      "velocity": 80,
      "chip": "ym2612"
    },
    {
      "channel": 2,
      "note": 75,
      "start": 7.5216,
      "duration": 0.2227,
      "velocity": 80,
      "chip": "ym2612"
    },
    {
      "channel": 0,
      "note": 82,
      "start": 7.742,
      "duration": 0.2067,
      "velocity": 80,
      "chip": "ym2612"
    },
    {
      "channel": 1,
      "note": 63,
      "start": 7.7425,
      "duration": 0.6368,
      "velocity": 107,
      "chip": "ym2612"
    },
    {
      "channel": 3,
      "note": 79,
      "start": 7.743,
      "duration": 0.2065,
      "velocity": 80,
      "chip": "ym2612"
    },
    {
      "channel": 4,
      "note": 82,
      "start": 7.7436,
      "duration": 0.2065,
      "velocity": 80,
      "chip": "ym2612"
    },
    {
      "channel": 5,
      "note": 86,
      "start": 7.7441,
      "duration": 0.2065,
      "velocity": 80,
      "chip": "ym2612"
    },
    {
      "channel": 2,
      "note": 75,
      "start": 7.7446,
      "duration": 0.2065,
      "velocity": 80,
      "chip": "ym2612"
    },
    {
      "channel": 0,
      "note": 82,
      "start": 7.9491,
      "duration": 0.2227,
      "velocity": 80,
      "chip": "ym2612"
    },
    {
      "channel": 3,
      "note": 79,
      "start": 7.9499,
      "duration": 0.2227,
      "velocity": 80,
      "chip": "ym2612"
    },
    {
      "channel": 4,
      "note": 82,
      "start": 7.9504,
      "duration": 0.2227,
      "velocity": 80,
      "chip": "ym2612"
    },
    {
      "channel": 5,
      "note": 86,
      "start": 7.9509,
      "duration": 0.2227,
      "velocity": 80,
      "chip": "ym2612"
    },
    {
      "channel": 2,
      "note": 75,
      "start": 7.9515,
      "duration": 0.2227,
      "velocity": 80,
      "chip": "ym2612"
    },
    {
      "channel": 0,
      "note": 82,
      "start": 8.1722,
      "duration": 0.2066,
      "velocity": 80,
      "chip": "ym2612"
    },
    {
      "channel": 3,
      "note": 79,
      "start": 8.1729,
      "duration": 0.2069,
      "velocity": 80,
      "chip": "ym2612"
    },
    {
      "channel": 4,
      "note": 82,
      "start": 8.1735,
      "duration": 0.2069,
      "velocity": 80,
      "chip": "ym2612"
    },
    {
      "channel": 5,
      "note": 86,
      "start": 8.174,
      "duration": 0.2069,
      "velocity": 80,
      "chip": "ym2612"
    },
    {
      "channel": 2,
      "note": 75,
      "start": 8.1745,
      "duration": 0.2069,
      "velocity": 80,
      "chip": "ym2612"
    },
    {
      "channel": 0,
      "note": 82,
      "start": 8.3792,
      "duration": 0.2228,
      "velocity": 80,
      "chip": "ym2612"
    },
    {
      "channel": 1,
      "note": 63,
      "start": 8.3797,
      "duration": 0.111,
      "velocity": 107,
      "chip": "ym2612"
    },
    {
      "channel": 3,
      "note": 79,
      "start": 8.3802,
      "duration": 0.2232,
      "velocity": 80,
      "chip": "ym2612"
    },
    {
      "channel": 4,
      "note": 82,
      "start": 8.3808,
      "duration": 0.2235,
      "velocity": 80,
      "chip": "ym2612"
    },
    {
      "channel": 5,
      "note": 86,
      "start": 8.3813,
      "duration": 0.2237,
      "velocity": 80,
      "chip": "ym2612"
    },
    {
      "channel": 2,
      "note": 75,
      "start": 8.3819,
      "duration": 0.224,
      "velocity": 80,
      "chip": "ym2612"
    },
    {
      "channel": 1,
      "note": 63,
      "start": 8.491,
      "duration": 0.1116,
      "velocity": 107,
      "chip": "ym2612"
    },
    {
      "channel": 0,
      "note": 87,
      "start": 8.6025,
      "duration": 0.2066,
      "velocity": 80,
      "chip": "ym2612"
    },
    {
      "channel": 1,
      "note": 65,
      "start": 8.6032,
      "duration": 0.6365,
      "velocity": 107,
      "chip": "ym2612"
    },
    {
      "channel": 3,
      "note": 79,
      "start": 8.604,
      "duration": 0.206,
      "velocity": 80,
      "chip": "ym2612"
    },
    {
      "channel": 4,
      "note": 82,
      "start": 8.6048,
      "duration": 0.2059,
      "velocity": 80,
      "chip": "ym2612"
    },
    {
      "channel": 5,
      "note": 87,
      "start": 8.6056,
      "duration": 0.2057,
      "velocity": 80,
      "chip": "ym2612"
    },
    {
      "channel": 2,
      "note": 77,
      "start": 8.6063,
      "duration": 0.2056,
      "velocity": 80,
      "chip": "ym2612"
    },
    {
      "channel": 0,
      "note": 87,
      "start": 8.8095,
      "duration": 0.2227,
      "velocity": 80,
      "chip": "ym2612"
    },
    {
      "channel": 3,
      "note": 79,
      "start": 8.8104,
      "duration": 0.2224,
      "velocity": 80,
      "chip": "ym2612"
    },
    {
      "channel": 4,
      "note": 82,
      "start": 8.811,
      "duration": 0.2224,
      "velocity": 80,
      "chip": "ym2612"
    },
    {
      "channel": 5,
      "note": 87,
      "start": 8.8117,
      "duration": 0.2223,
      "velocity": 80,
      "chip": "ym2612"
    },
    {
      "channel": 2,
      "note": 77,
      "start": 8.8123,
      "duration": 0.2222,
      "velocity": 80,
      "chip": "ym2612"
    },
    {
      "channel": 0,
      "note": 87,
      "start": 9.0325,
      "duration": 0.2067,
      "velocity": 80,
      "chip": "ym2612"
    },
    {
      "channel": 3,
      "note": 79,
      "start": 9.0332,
      "duration": 0.2071,
      "velocity": 80,
      "chip": "ym2612"
    },
    {
      "channel": 4,
      "note": 82,
      "start": 9.0338,
      "duration": 0.207,
      "velocity": 80,
      "chip": "ym2612"
    },
    {
      "channel": 5,
      "note": 87,
      "start": 9.0343,
      "duration": 0.207,
      "velocity": 80,
      "chip": "ym2612"
    },
    {
      "channel": 2,
      "note": 77,
      "start": 9.0348,
      "duration": 0.2071,
      "velocity": 80,
      "chip": "ym2612"
    },
    {
      "channel": 0,
      "note": 87,
      "start": 9.2396,
      "duration": 0.2226,
      "velocity": 80,
      "chip": "ym2612"
    },
    {
      "channel": 1,
      "note": 65,
      "start": 9.2401,
      "duration": 0.2227,
      "velocity": 107,
      "chip": "ym2612"
    },
    {
      "channel": 3,
      "note": 79,
      "start": 9.2407,
      "duration": 0.2226,
      "velocity": 80,
      "chip": "ym2612"
    },
    {
      "channel": 4,
      "note": 82,
      "start": 9.2412,
      "duration": 0.2226,
      "velocity": 80,
      "chip": "ym2612"
    },
    {
      "channel": 5,
      "note": 87,
      "start": 9.2417,
      "duration": 0.2226,
      "velocity": 80,
      "chip": "ym2612"
    },
    {
      "channel": 2,
      "note": 77,
      "start": 9.2423,
      "duration": 0.2226,
      "velocity": 80,
      "chip": "ym2612"
    },
    {
      "channel": 0,
      "note": 87,
      "start": 9.4626,
      "duration": 0.2068,
      "velocity": 80,
      "chip": "ym2612"
    },
    {
      "channel": 1,
      "note": 65,
      "start": 9.4632,
      "duration": 0.6368,
      "velocity": 107,
      "chip": "ym2612"
    },
    {
      "channel": 3,
      "note": 79,
      "start": 9.4637,
      "duration": 0.2066,
      "velocity": 80,
      "chip": "ym2612"
    },
    {
      "channel": 4,
      "note": 82,
      "start": 9.4642,
      "duration": 0.2066,
      "velocity": 80,
      "chip": "ym2612"
    },
    {
      "channel": 5,
      "note": 87,
      "start": 9.4647,
      "duration": 0.2066,
      "velocity": 80,
      "chip": "ym2612"
    },
    {
      "channel": 2,
      "note": 77,
      "start": 9.4652,
      "duration": 0.2066,
      "velocity": 80,
      "chip": "ym2612"
    },
    {
      "channel": 0,
      "note": 87,
      "start": 9.6698,
      "duration": 0.2226,
      "velocity": 80,
      "chip": "ym2612"
    },
    {
      "channel": 3,
      "note": 79,
      "start": 9.6706,
      "duration": 0.2227,
      "velocity": 80,
      "chip": "ym2612"
    },
    {
      "channel": 4,
      "note": 82,
      "start": 9.6711,
      "duration": 0.2226,
      "velocity": 80,
      "chip": "ym2612"
    },
    {
      "channel": 5,
      "note": 87,
      "start": 9.6716,
      "duration": 0.2227,
      "velocity": 80,
      "chip": "ym2612"
    },
    {
      "channel": 2,
      "note": 77,
      "start": 9.6722,
      "duration": 0.2227,
      "velocity": 80,
      "chip": "ym2612"
    },
    {
      "channel": 0,
      "note": 87,
      "start": 9.8928,
      "duration": 0.2067,
      "velocity": 80,
      "chip": "ym2612"
    },
    {
      "channel": 3,
      "note": 79,
      "start": 9.8936,
      "duration": 0.2069,
      "velocity": 80,
      "chip": "ym2612"
    },
    {
      "channel": 4,
      "note": 82,
      "start": 9.8941,
      "duration": 0.2069,
      "velocity": 80,
      "chip": "ym2612"
    },
    {
      "channel": 5,
      "note": 87,
      "start": 9.8946,
      "duration": 0.2069,
      "velocity": 80,
      "chip": "ym2612"
    },
    {
      "channel": 2,
      "note": 77,
      "start": 9.8952,
      "duration": 0.2069,
      "velocity": 80,
      "chip": "ym2612"
    },
    {
      "channel": 0,
      "note": 87,
      "start": 10.0999,
      "duration": 0.2228,
      "velocity": 80,
      "chip": "ym2612"
    },
    {
      "channel": 1,
      "note": 65,
      "start": 10.1004,
      "duration": 0.1109,
      "velocity": 107,
      "chip": "ym2612"
    },
    {
      "channel": 3,
      "note": 79,
      "start": 10.1009,
      "duration": 0.2232,
      "velocity": 80,
      "chip": "ym2612"
    },
    {
      "channel": 4,
      "note": 82,
      "start": 10.1014,
      "duration": 0.2235,
      "velocity": 80,
      "chip": "ym2612"
    },
    {
      "channel": 5,
      "note": 87,
      "start": 10.102,
      "duration": 0.2237,
      "velocity": 80,
      "chip": "ym2612"
    },
    {
      "channel": 2,
      "note": 77,
      "start": 10.1025,
      "duration": 0.224,
      "velocity": 80,
      "chip": "ym2612"
    },
    {
      "channel": 1,
      "note": 63,
      "start": 10.2118,
      "duration": 0.1115,
      "velocity": 107,
      "chip": "ym2612"
    },
    {
      "channel": 0,
      "note": 79,
      "start": 10.3231,
      "duration": 0.2066,
      "velocity": 80,
      "chip": "ym2612"
    },
    {
      "channel": 1,
      "note": 67,
      "start": 10.3238,
      "duration": 0.8597,
      "velocity": 107,
      "chip": "ym2612"
    },
    {
      "channel": 3,
      "note": 77,
      "start": 10.3246,
      "duration": 0.2062,
      "velocity": 80,
      "chip": "ym2612"
    },
    {
      "channel": 4,
      "note": 81,
      "start": 10.3254,
      "duration": 0.206,
      "velocity": 80,
      "chip": "ym2612"
    },
    {
      "channel": 5,
      "note": 86,
      "start": 10.3262,
      "duration": 0.2059,
      "velocity": 80,
      "chip": "ym2612"
    },
    {
      "channel": 2,
      "note": 71,
      "start": 10.327,
      "duration": 0.2057,
      "velocity": 80,
      "chip": "ym2612"
    },
    {
      "channel": 0,
      "note": 77,
      "start": 10.5302,
      "duration": 0.2293,
      "velocity": 80,
      "chip": "ym2612"
    },
    {
      "channel": 3,
      "note": 77,
      "start": 10.5312,
      "duration": 0.2293,
      "velocity": 80,
      "chip": "ym2612"
    },
    {
      "channel": 4,
      "note": 81,
      "start": 10.5318,
      "duration": 0.2292,
      "velocity": 80,
      "chip": "ym2612"
    },
    {
      "channel": 5,
      "note": 86,
      "start": 10.5324,
      "duration": 0.2291,
      "velocity": 80,
      "chip": "ym2612"
    },
    {
      "channel": 2,
      "note": 71,
      "start": 10.5331,
      "duration": 0.229,
      "velocity": 80,
      "chip": "ym2612"
    },
    {
      "channel": 0,
      "note": 79,
      "start": 10.76,
      "duration": 0.1998,
      "velocity": 80,
      "chip": "ym2612"
    },
    {
      "channel": 3,
      "note": 77,
      "start": 10.7609,
      "duration": 0.1999,
      "velocity": 80,
      "chip": "ym2612"
    },
    {
      "channel": 4,
      "note": 81,
      "start": 10.7614,
      "duration": 0.1999,
      "velocity": 80,
      "chip": "ym2612"
    },
    {
      "channel": 5,
      "note": 86,
      "start": 10.762,
      "duration": 0.1999,
      "velocity": 80,
      "chip": "ym2612"
    },
    {
      "channel": 2,
      "note": 71,
      "start": 10.7624,
      "duration": 0.1999,
      "velocity": 80,
      "chip": "ym2612"
    },
    {
      "channel": 0,
      "note": 79,
      "start": 10.9603,
      "duration": 0.2225,
      "velocity": 80,
      "chip": "ym2612"
    },
    {
      "channel": 3,
      "note": 77,
      "start": 10.9612,
      "duration": 0.223,
      "velocity": 80,
      "chip": "ym2612"
    },
    {
      "channel": 4,
      "note": 81,
      "start": 10.9617,
      "duration": 0.223,
      "velocity": 80,
      "chip": "ym2612"
    },
    {
      "channel": 5,
      "note": 86,
      "start": 10.9622,
      "duration": 0.223,
      "velocity": 80,
      "chip": "ym2612"
    },
    {
      "channel": 2,
      "note": 71,
      "start": 10.9628,
      "duration": 0.223,
      "velocity": 80,
      "chip": "ym2612"
    },
    {
      "channel": 0,
      "note": 77,
      "start": 11.1833,
      "duration": 0.2067,
      "velocity": 80,
      "chip": "ym2612"
    },
    {
      "channel": 1,
      "note": 58,
      "start": 11.184,
      "duration": 0.6368,
      "velocity": 107,
      "chip": "ym2612"
    },
    {
      "channel": 3,
      "note": 77,
      "start": 11.1845,
      "duration": 0.2064,
      "velocity": 80,
      "chip": "ym2612"
    },
    {
      "channel": 4,
      "note": 81,
      "start": 11.1851,
      "duration": 0.2064,
      "velocity": 80,
      "chip": "ym2612"
    },
    {
      "channel": 5,
      "note": 86,
      "start": 11.1856,
      "duration": 0.2064,
      "velocity": 80,
      "chip": "ym2612"
    },
    {
      "channel": 2,
      "note": 71,
      "start": 11.1861,
      "duration": 0.2064,
      "velocity": 80,
      "chip": "ym2612"
    },
    {
      "channel": 0,
      "note": 77,
      "start": 11.3905,
      "duration": 0.2225,
      "velocity": 80,
      "chip": "ym2612"
    },
    {
      "channel": 3,
      "note": 77,
      "start": 11.3913,
      "duration": 0.2227,
      "velocity": 80,
      "chip": "ym2612"
    },
    {
      "channel": 4,
      "note": 81,
      "start": 11.3919,
      "duration": 0.2227,
      "velocity": 80,
      "chip": "ym2612"
    },
    {
      "channel": 5,
      "note": 86,
      "start": 11.3924,
      "duration": 0.2227,
      "velocity": 80,
      "chip": "ym2612"
    },
    {
      "channel": 2,
      "note": 71,
      "start": 11.3929,
      "duration": 0.2227,
      "velocity": 80,
      "chip": "ym2612"
    },
    {
      "channel": 0,
      "note": 79,
      "start": 11.6136,
      "duration": 0.2066,
      "velocity": 80,
      "chip": "ym2612"
    },
    {
      "channel": 3,
      "note": 77,
      "start": 11.6144,
      "duration": 0.2071,
      "velocity": 80,
      "chip": "ym2612"
    },
    {
      "channel": 4,
      "note": 81,
      "start": 11.6149,
      "duration": 0.2071,
      "velocity": 80,
      "chip": "ym2612"
    },
    {
      "channel": 5,
      "note": 86,
      "start": 11.6154,
      "duration": 0.2071,
      "velocity": 80,
      "chip": "ym2612"
    },
    {
      "channel": 2,
      "note": 71,
      "start": 11.616,
      "duration": 0.2071,
      "velocity": 80,
      "chip": "ym2612"
    },
    {
      "channel": 0,
      "note": 79,
      "start": 11.8207,
      "duration": 0.2225,
      "velocity": 80,
      "chip": "ym2612"
    },
    {
      "channel": 1,
      "note": 55,
      "start": 11.8214,
      "duration": 0.1105,
      "velocity": 107,
      "chip": "ym2612"
    },
    {
      "channel": 3,
      "note": 77,
      "start": 11.8219,
      "duration": 0.2228,
      "velocity": 80,
      "chip": "ym2612"
    },
    {
      "channel": 4,
      "note": 81,
      "start": 11.8224,
      "duration": 0.223,
      "velocity": 80,
      "chip": "ym2612"
    },
    {
      "channel": 5,
      "note": 86,
      "start": 11.8229,
      "duration": 0.2232,
      "velocity": 80,
      "chip": "ym2612"
    },
    {
      "channel": 2,
      "note": 71,
      "start": 11.8234,
      "duration": 0.2235,
      "velocity": 80,
      "chip": "ym2612"
    },
    {
      "channel": 1,
      "note": 60,
      "start": 11.9325,
      "duration": 0.1114,
      "velocity": 107,
      "chip": "ym2612"
    },
    {
      "channel": 0,
      "note": 82,
      "start": 12.0437,
      "duration": 0.2066,
      "velocity": 80,
      "chip": "ym2612"
    },
    {
      "channel": 1,
      "note": 60,
      "start": 12.0444,
      "duration": 0.2066,
      "velocity": 107,
      "chip": "ym2612"
    },
    {
      "channel": 3,
      "note": 75,
      "start": 12.0451,
      "duration": 0.2065,
      "velocity": 80,
      "chip": "ym2612"
    },
    {
      "channel": 4,
      "note": 82,
      "start": 12.0459,
      "duration": 0.2064,
      "velocity": 80,
      "chip": "ym2612"
    },
    {
      "channel": 5,
      "note": 86,
      "start": 12.0467,
      "duration": 0.2063,
      "velocity": 80,
      "chip": "ym2612"
    },
    {
      "channel": 2,
      "note": 72,
      "start": 12.0475,
      "duration": 0.2062,
      "velocity": 80,
      "chip": "ym2612"
    },
    {
      "channel": 0,
      "note": 84,
      "start": 12.2508,
      "duration": 0.2225,
      "velocity": 80,
      "chip": "ym2612"
    },
    {
      "channel": 1,
      "note": 63,
      "start": 12.2515,
      "duration": 0.6526,
      "velocity": 107,
      "chip": "ym2612"
    },
    {
      "channel": 3,
      "note": 75,
      "start": 12.2522,
      "duration": 0.2221,
      "velocity": 80,
      "chip": "ym2612"
    },
    {
      "channel": 4,
      "note": 82,
      "start": 12.2529,
      "duration": 0.2221,
      "velocity": 80,
      "chip": "ym2612"
    },
    {
      "channel": 5,
      "note": 86,
      "start": 12.2536,
      "duration": 0.222,
      "velocity": 80,
      "chip": "ym2612"
    },
    {
      "channel": 2,
      "note": 72,
      "start": 12.2542,
      "duration": 0.2221,
      "velocity": 80,
      "chip": "ym2612"
    },
    {
      "channel": 0,
      "note": 79,
      "start": 12.4738,
      "duration": 0.2066,
      "velocity": 80,
      "chip": "ym2612"
    },
    {
      "channel": 3,
      "note": 72,
      "start": 12.4748,
      "duration": 0.2066,
      "velocity": 80,
      "chip": "ym2612"
    },
    {
      "channel": 4,
      "note": 82,
      "start": 12.4755,
      "duration": 0.2066,
      "velocity": 80,
      "chip": "ym2612"
    },
    {
      "channel": 5,
      "note": 86,
      "start": 12.4762,
      "duration": 0.2066,
      "velocity": 80,
      "chip": "ym2612"
    },
    {
      "channel": 2,
      "note": 67,
      "start": 12.4769,
      "duration": 0.2066,
      "velocity": 80,
      "chip": "ym2612"
    },
    {
      "channel": 0,
      "note": 79,
      "start": 12.681,
      "duration": 0.2225,
      "velocity": 80,
      "chip": "ym2612"
    },
    {
      "channel": 3,
      "note": 72,
      "start": 12.682,
      "duration": 0.2228,
      "velocity": 80,
      "chip": "ym2612"
    },
    {
      "channel": 4,
      "note": 77,
      "start": 12.6826,
      "duration": 0.2228,
      "velocity": 80,
      "chip": "ym2612"
    },
    {
      "channel": 5,
      "note": 84,
      "start": 12.6833,
      "duration": 0.2228,
      "velocity": 80,
      "chip": "ym2612"
    },
    {
      "channel": 2,
      "note": 70,
      "start": 12.684,
      "duration": 0.2228,
      "velocity": 80,
      "chip": "ym2612"
    },
    {
      "channel": 0,
      "note": 82,
      "start": 12.904,
      "duration": 0.2066,
      "velocity": 80,
      "chip": "ym2612"
    },
    {
      "channel": 1,
      "note": 58,
      "start": 12.9046,
      "duration": 0.0946,
      "velocity": 107,
      "chip": "ym2612"
    },
    {
      "channel": 3,
      "note": 77,
      "start": 12.9053,
      "duration": 0.2067,
      "velocity": 80,
      "chip": "ym2612"
    },
    {
      "channel": 4,
      "note": 82,
      "start": 12.906,
      "duration": 0.2066,
      "velocity": 80,
      "chip": "ym2612"
    },
    {
      "channel": 5,
      "note": 86,
      "start": 12.9067,
      "duration": 0.2066,
      "velocity": 80,
      "chip": "ym2612"
    },
    {
      "channel": 2,
      "note": 72,
      "start": 12.9074,
      "duration": 0.2066,
      "velocity": 80,
      "chip": "ym2612"
    },
    {
      "channel": 1,
      "note": 60,
      "start": 12.9999,
      "duration": 0.1114,
      "velocity": 107,
      "chip": "ym2612"
    },
    {
      "channel": 0,
      "note": 82,
      "start": 13.1112,
      "duration": 0.2224,
      "velocity": 80,
      "chip": "ym2612"
    },
    {
      "channel": 1,
      "note": 63,
      "start": 13.1118,
      "duration": 0.4296,
      "velocity": 107,
      "chip": "ym2612"
    },
    {
      "channel": 3,
      "note": 75,
      "start": 13.1125,
      "duration": 0.2221,
      "velocity": 80,
      "chip": "ym2612"
    },
    {
      "channel": 4,
      "note": 79,
      "start": 13.1132,
      "duration": 0.2221,
      "velocity": 80,
      "chip": "ym2612"
    },
    {
      "channel": 5,
      "note": 86,
      "start": 13.1139,
      "duration": 0.2221,
      "velocity": 80,
      "chip": "ym2612"
    },
    {
      "channel": 2,
      "note": 72,
      "start": 13.1146,
      "duration": 0.2221,
      "velocity": 80,
      "chip": "ym2612"
    },
    {
      "channel": 0,
      "note": 79,
      "start": 13.3341,
      "duration": 0.2066,
      "velocity": 80,
      "chip": "ym2612"
    },
    {
      "channel": 3,
      "note": 77,
      "start": 13.3351,
      "duration": 0.2069,
      "velocity": 80,
      "chip": "ym2612"
    },
    {
      "channel": 4,
      "note": 82,
      "start": 13.3359,
      "duration": 0.2069,
      "velocity": 80,
      "chip": "ym2612"
    },
    {
      "channel": 5,
      "note": 87,
      "start": 13.3366,
      "duration": 0.2069,
      "velocity": 80,
      "chip": "ym2612"
    },
    {
      "channel": 2,
      "note": 67,
      "start": 13.3372,
      "duration": 0.207,
      "velocity": 80,
      "chip": "ym2612"
    },
    {
      "channel": 0,
      "note": 72,
      "start": 13.5413,
      "duration": 0.2226,
      "velocity": 80,
      "chip": "ym2612"
    },
    {
      "channel": 1,
      "note": 58,
      "start": 13.542,
      "duration": 0.1106,
      "velocity": 107,
      "chip": "ym2612"
    },
    {
      "channel": 3,
      "note": 81,
      "start": 13.5427,
      "duration": 0.2224,
      "velocity": 80,
      "chip": "ym2612"
    },
    {
      "channel": 4,
      "note": 82,
      "start": 13.5434,
      "duration": 0.2225,
      "velocity": 80,
      "chip": "ym2612"
    },
    {
      "channel": 5,
      "note": 87,
      "start": 13.5441,
      "duration": 0.2227,
      "velocity": 80,
      "chip": "ym2612"
    },
    {
      "channel": 2,
      "note": 65,
      "start": 13.5447,
      "duration": 0.2228,
      "velocity": 80,
      "chip": "ym2612"
    },
    {
      "channel": 1,
      "note": 58,
      "start": 13.653,
      "duration": 0.1115,
      "velocity": 107,
      "chip": "ym2612"
    },
    {
      "channel": 0,
      "note": 77,
      "start": 13.7644,
      "duration": 0.2067,
      "velocity": 80,
      "chip": "ym2612"
    },
    {
      "channel": 1,
      "note": 58,
      "start": 13.7649,
      "duration": 1.4971,
      "velocity": 107,
      "chip": "ym2612"
    },
    {
      "channel": 3,
      "note": 70,
      "start": 13.7657,
      "duration": 0.2063,
      "velocity": 80,
      "chip": "ym2612"
    },
    {
      "channel": 4,
      "note": 75,
      "start": 13.7665,
      "duration": 0.2062,
      "velocity": 80,
      "chip": "ym2612"
    },
    {
      "channel": 5,
      "note": 79,
      "start": 13.7672,
      "duration": 0.2059,
      "velocity": 80,
      "chip": "ym2612"
    },
    {
      "channel": 2,
      "note": 70,
      "start": 13.768,
      "duration": 0.2059,
      "velocity": 80,
      "chip": "ym2612"
    },
    {
      "channel": 0,
      "note": 77,
      "start": 13.9714,
      "duration": 0.2225,
      "velocity": 80,
      "chip": "ym2612"
    },
    {
      "channel": 3,
      "note": 70,
      "start": 13.9724,
      "duration": 0.2224,
      "velocity": 80,
      "chip": "ym2612"
    },
    {
      "channel": 4,
      "note": 75,
      "start": 13.973,
      "duration": 0.2223,
      "velocity": 80,
      "chip": "ym2612"
    },
    {
      "channel": 5,
      "note": 79,
      "start": 13.9737,
      "duration": 0.2221,
      "velocity": 80,
      "chip": "ym2612"
    },
    {
      "channel": 2,
      "note": 70,
      "start": 13.9743,
      "duration": 0.2222,
      "velocity": 80,
      "chip": "ym2612"
    },
    {
      "channel": 0,
      "note": 77,
      "start": 14.1943,
      "duration": 0.215,
      "velocity": 80,
      "chip": "ym2612"
    },
    {
      "channel": 3,
      "note": 70,
      "start": 14.1951,
      "duration": 0.215,
      "velocity": 80,
      "chip": "ym2612"
    },
    {
      "channel": 4,
      "note": 75,
      "start": 14.1956,
      "duration": 0.215,
      "velocity": 80,
      "chip": "ym2612"
    },
    {
      "channel": 5,
      "note": 77,
      "start": 14.1963,
      "duration": 0.2149,
      "velocity": 80,
      "chip": "ym2612"
    },
    {
      "channel": 2,
      "note": 70,
      "start": 14.1969,
      "duration": 0.2151,
      "velocity": 80,
      "chip": "ym2612"
    },
    {
      "channel": 0,
      "note": 77,
      "start": 14.4097,
      "duration": 0.2144,
      "velocity": 80,
      "chip": "ym2612"
    },
    {
      "channel": 3,
      "note": 70,
      "start": 14.4105,
      "duration": 0.2144,
      "velocity": 80,
      "chip": "ym2612"
    },
    {
      "channel": 4,
      "note": 75,
      "start": 14.411,
      "duration": 0.2144,
      "velocity": 80,
      "chip": "ym2612"
    },
    {
      "channel": 5,
      "note": 77,
      "start": 14.4117,
      "duration": 0.2142,
      "velocity": 80,
      "chip": "ym2612"
    },
    {
      "channel": 2,
      "note": 70,
      "start": 14.4123,
      "duration": 0.2143,
      "velocity": 80,
      "chip": "ym2612"
    },
    {
      "channel": 0,
      "note": 77,
      "start": 14.6245,
      "duration": 0.2069,
      "velocity": 80,
      "chip": "ym2612"
    },
    {
      "channel": 3,
      "note": 70,
      "start": 14.6253,
      "duration": 0.2069,
      "velocity": 80,
      "chip": "ym2612"
    },
    {
      "channel": 4,
      "note": 75,
      "start": 14.6258,
      "duration": 0.2069,
      "velocity": 80,
      "chip": "ym2612"
    },
    {
      "channel": 5,
      "note": 79,
      "start": 14.6265,
      "duration": 0.2068,
      "velocity": 80,
      "chip": "ym2612"
    },
    {
      "channel": 2,
      "note": 70,
      "start": 14.627,
      "duration": 0.207,
      "velocity": 80,
      "chip": "ym2612"
    },
    {
      "channel": 0,
      "note": 77,
      "start": 14.8318,
      "duration": 0.2228,
      "velocity": 80,
      "chip": "ym2612"
    },
    {
      "channel": 3,
      "note": 70,
      "start": 14.8326,
      "duration": 0.2228,
      "velocity": 80,
      "chip": "ym2612"
    },
    {
      "channel": 4,
      "note": 75,
      "start": 14.8331,
      "duration": 0.2228,
      "velocity": 80,
      "chip": "ym2612"
    },
    {
      "channel": 5,
      "note": 79,
      "start": 14.8338,
      "duration": 0.2227,
      "velocity": 80,
      "chip": "ym2612"
    },
    {
      "channel": 2,
      "note": 70,
      "start": 14.8344,
      "duration": 0.2228,
      "velocity": 80,
      "chip": "ym2612"
    },
    {
      "channel": 0,
      "note": 77,
      "start": 15.055,
      "duration": 0.2064,
      "velocity": 80,
      "chip": "ym2612"
    },
    {
      "channel": 3,
      "note": 70,
      "start": 15.0558,
      "duration": 0.2067,
      "velocity": 80,
      "chip": "ym2612"
    },
    {
      "channel": 4,
      "note": 75,
      "start": 15.0563,
      "duration": 0.2067,
      "velocity": 80,
      "chip": "ym2612"
    },
    {
      "channel": 5,
      "note": 77,
      "start": 15.0571,
      "duration": 0.2065,
      "velocity": 80,
      "chip": "ym2612"
    },
    {
      "channel": 2,
      "note": 70,
      "start": 15.0576,
      "duration": 0.2066,
      "velocity": 80,
      "chip": "ym2612"
    },
    {
      "channel": 0,
      "note": 77,
      "start": 15.2618,
      "duration": 0.2228,
      "velocity": 80,
      "chip": "ym2612"
    },
    {
      "channel": 1,
      "note": 58,
      "start": 15.2623,
      "duration": 0.1109,
      "velocity": 107,
      "chip": "ym2612"
    },
    {
      "channel": 3,
      "note": 70,
      "start": 15.2629,
      "duration": 0.2232,
      "velocity": 80,
      "chip": "ym2612"
    },
    {
      "channel": 4,
      "note": 75,
      "start": 15.2634,
      "duration": 0.2234,
      "velocity": 80,
      "chip": "ym2612"
    },
    {
      "channel": 5,
      "note": 77,
      "start": 15.2641,
      "duration": 0.2234,
      "velocity": 80,
      "chip": "ym2612"
    },
    {
      "channel": 2,
      "note": 70,
      "start": 15.2646,
      "duration": 0.2237,
      "velocity": 80,
      "chip": "ym2612"
    },
    {
      "channel": 1,
      "note": 58,
      "start": 15.3736,
      "duration": 0.1117,
      "velocity": 107,
      "chip": "ym2612"
    },
    {
      "channel": 0,
      "note": 82,
      "start": 15.4851,
      "duration": 0.2065,
      "velocity": 80,
      "chip": "ym2612"
    },
    {
      "channel": 1,
      "note": 63,
      "start": 15.4858,
      "duration": 1.0665,
      "velocity": 107,
      "chip": "ym2612"
    },
    {
      "channel": 3,
      "note": 79,
      "start": 15.4866,
      "duration": 0.206,
      "velocity": 80,
      "chip": "ym2612"
    },
    {
      "channel": 4,
      "note": 82,
      "start": 15.4874,
      "duration": 0.2058,
      "velocity": 80,
      "chip": "ym2612"
    },
    {
      "channel": 5,
      "note": 87,
      "start": 15.4881,
      "duration": 0.2057,
      "velocity": 80,
      "chip": "ym2612"
    },
    {
      "channel": 2,
      "note": 75,
      "start": 15.4888,
      "duration": 0.2056,
      "velocity": 80,
      "chip": "ym2612"
    },
    {
      "channel": 0,
      "note": 82,
      "start": 15.692,
      "duration": 0.2226,
      "velocity": 80,
      "chip": "ym2612"
    },
    {
      "channel": 3,
      "note": 79,
      "start": 15.6929,
      "duration": 0.2224,
      "velocity": 80,
      "chip": "ym2612"
    },
    {
      "channel": 4,
      "note": 82,
      "start": 15.6936,
      "duration": 0.2224,
      "velocity": 80,
      "chip": "ym2612"
    },
    {
      "channel": 5,
      "note": 87,
      "start": 15.6942,
      "duration": 0.2223,
      "velocity": 80,
      "chip": "ym2612"
    },
    {
      "channel": 2,
      "note": 75,
      "start": 15.6948,
      "duration": 0.2221,
      "velocity": 80,
      "chip": "ym2612"
    },
    {
      "channel": 0,
      "note": 82,
      "start": 15.915,
      "duration": 0.2068,
      "velocity": 80,
      "chip": "ym2612"
    },
    {
      "channel": 3,
      "note": 79,
      "start": 15.9158,
      "duration": 0.2067,
      "velocity": 80,
      "chip": "ym2612"
    },
    {
      "channel": 4,
      "note": 82,
      "start": 15.9163,
      "duration": 0.2067,
      "velocity": 80,
      "chip": "ym2612"
    },
    {
      "channel": 5,
      "note": 87,
      "start": 15.9168,
      "duration": 0.2067,
      "velocity": 80,
      "chip": "ym2612"
    },
    {
      "channel": 2,
      "note": 75,
      "start": 15.9173,
      "duration": 0.2067,
      "velocity": 80,
      "chip": "ym2612"
    },
    {
      "channel": 0,
      "note": 82,
      "start": 16.1221,
      "duration": 0.2226,
      "velocity": 80,
      "chip": "ym2612"
    },
    {
      "channel": 3,
      "note": 79,
      "start": 16.1229,
      "duration": 0.2227,
      "velocity": 80,
      "chip": "ym2612"
    },
    {
      "channel": 4,
      "note": 82,
      "start": 16.1234,
      "duration": 0.2226,
      "velocity": 80,
      "chip": "ym2612"
    },
    {
      "channel": 5,
      "note": 87,
      "start": 16.124,
      "duration": 0.2226,
      "velocity": 80,
      "chip": "ym2612"
    },
    {
      "channel": 2,
      "note": 75,
      "start": 16.1245,
      "duration": 0.2227,
      "velocity": 80,
      "chip": "ym2612"
    },
    {
      "channel": 0,
      "note": 82,
      "start": 16.3451,
      "duration": 0.2067,
      "velocity": 80,
      "chip": "ym2612"
    },
    {
      "channel": 3,
      "note": 79,
      "start": 16.3459,
      "duration": 0.207,
      "velocity": 80,
      "chip": "ym2612"
    },
    {
      "channel": 4,
      "note": 82,
      "start": 16.3464,
      "duration": 0.207,
      "velocity": 80,
      "chip": "ym2612"
    },
    {
      "channel": 5,
      "note": 87,
      "start": 16.347,
      "duration": 0.2069,
      "velocity": 80,
      "chip": "ym2612"
    },
    {
      "channel": 2,
      "note": 75,
      "start": 16.3475,
      "duration": 0.207,
      "velocity": 80,
      "chip": "ym2612"
    },
    {
      "channel": 0,
      "note": 82,
      "start": 16.5522,
      "duration": 0.2227,
      "velocity": 80,
      "chip": "ym2612"
    },
    {
      "channel": 1,
      "note": 63,
      "start": 16.5527,
      "duration": 0.2227,
      "velocity": 107,
      "chip": "ym2612"
    },
    {
      "channel": 3,
      "note": 79,
      "start": 16.5533,
      "duration": 0.2227,
      "velocity": 80,
      "chip": "ym2612"
    },
    {
      "channel": 4,
      "note": 82,
      "start": 16.5538,
      "duration": 0.2227,
      "velocity": 80,
      "chip": "ym2612"
    },
    {
      "channel": 5,
      "note": 87,
      "start": 16.5543,
      "duration": 0.2227,
      "velocity": 80,
      "chip": "ym2612"
    },
    {
      "channel": 2,
      "note": 75,
      "start": 16.5549,
      "duration": 0.2227,
      "velocity": 80,
      "chip": "ym2612"
    },
    {
      "channel": 0,
      "note": 82,
      "start": 16.7753,
      "duration": 0.2067,
      "velocity": 80,
      "chip": "ym2612"
    },
    {
      "channel": 1,
      "note": 63,
      "start": 16.7758,
      "duration": 0.2067,
      "velocity": 107,
      "chip": "ym2612"
    },
    {
      "channel": 3,
      "note": 79,
      "start": 16.7763,
      "duration": 0.2067,
      "velocity": 80,
      "chip": "ym2612"
    },
    {
      "channel": 4,
      "note": 82,
      "start": 16.7768,
      "duration": 0.2067,
      "velocity": 80,
      "chip": "ym2612"
    },
    {
      "channel": 5,
      "note": 87,
      "start": 16.7774,
      "duration": 0.2068,
      "velocity": 80,
      "chip": "ym2612"
    },
    {
      "channel": 2,
      "note": 75,
      "start": 16.7779,
      "duration": 0.2067,
      "velocity": 80,
      "chip": "ym2612"
    },
    {
      "channel": 0,
      "note": 82,
      "start": 16.9824,
      "duration": 0.2227,
      "velocity": 80,
      "chip": "ym2612"
    },
    {
      "channel": 1,
      "note": 63,
      "start": 16.9829,
      "duration": 0.2229,
      "velocity": 107,
      "chip": "ym2612"
    },
    {
      "channel": 3,
      "note": 79,
      "start": 16.9834,
      "duration": 0.2232,
      "velocity": 80,
      "chip": "ym2612"
    },
    {
      "channel": 4,
      "note": 82,
      "start": 16.9839,
      "duration": 0.2235,
      "velocity": 80,
      "chip": "ym2612"
    },
    {
      "channel": 5,
      "note": 87,
      "start": 16.9845,
      "duration": 0.2237,
      "velocity": 80,
      "chip": "ym2612"
    },
    {
      "channel": 2,
      "note": 75,
      "start": 16.985,
      "duration": 0.224,
      "velocity": 80,
      "chip": "ym2612"
    },
    {
      "channel": 0,
      "note": 87,
      "start": 17.2057,
      "duration": 0.2066,
      "velocity": 80,
      "chip": "ym2612"
    },
    {
      "channel": 1,
      "note": 65,
      "start": 17.2064,
      "duration": 0.8595,
      "velocity": 107,
      "chip": "ym2612"
    },
    {
      "channel": 3,
      "note": 79,
      "start": 17.2072,
      "duration": 0.206,
      "velocity": 80,
      "chip": "ym2612"
    },
    {
      "channel": 4,
      "note": 82,
      "start": 17.208,
      "duration": 0.2058,
      "velocity": 80,
      "chip": "ym2612"
    },
    {
      "channel": 5,
      "note": 87,
      "start": 17.2088,
      "duration": 0.2057,
      "velocity": 80,
      "chip": "ym2612"
    },
    {
      "channel": 2,
      "note": 77,
      "start": 17.2095,
      "duration": 0.2055,
      "velocity": 80,
      "chip": "ym2612"
    },
    {
      "channel": 0,
      "note": 87,
      "start": 17.4126,
      "duration": 0.2227,
      "velocity": 80,
      "chip": "ym2612"
    },
    {
      "channel": 3,
      "note": 79,
      "start": 17.4135,
      "duration": 0.2226,
      "velocity": 80,
      "chip": "ym2612"
    },
    {
      "channel": 4,
      "note": 82,
      "start": 17.4142,
      "duration": 0.2224,
      "velocity": 80,
      "chip": "ym2612"
    },
    {
      "channel": 5,
      "note": 87,
      "start": 17.4148,
      "duration": 0.2223,
      "velocity": 80,
      "chip": "ym2612"
    },
    {
      "channel": 2,
      "note": 77,
      "start": 17.4154,
      "duration": 0.2223,
      "velocity": 80,
      "chip": "ym2612"
    },
    {
      "channel": 0,
      "note": 87,
      "start": 17.6357,
      "duration": 0.2067,
      "velocity": 80,
      "chip": "ym2612"
    },
    {
      "channel": 3,
      "note": 79,
      "start": 17.6365,
      "duration": 0.2067,
      "velocity": 80,
      "chip": "ym2612"
    },
    {
      "channel": 4,
      "note": 82,
      "start": 17.637,
      "duration": 0.2067,
      "velocity": 80,
      "chip": "ym2612"
    },
    {
      "channel": 5,
      "note": 87,
      "start": 17.6375,
      "duration": 0.2068,
      "velocity": 80,
      "chip": "ym2612"
    },
    {
      "channel": 2,
      "note": 77,
      "start": 17.6381,
      "duration": 0.2067,
      "velocity": 80,
      "chip": "ym2612"
    },
    {
      "channel": 0,
      "note": 87,
      "start": 17.8428,
      "duration": 0.2225,
      "velocity": 80,
      "chip": "ym2612"
    },
    {
      "channel": 3,
      "note": 79,
      "start": 17.8436,
      "duration": 0.223,
      "velocity": 80,
      "chip": "ym2612"
    },
    {
      "channel": 4,
      "note": 82,
      "start": 17.8441,
      "duration": 0.2229,
      "velocity": 80,
      "chip": "ym2612"
    },
    {
      "channel": 5,
      "note": 87,
      "start": 17.8446,
      "duration": 0.223,
      "velocity": 80,
      "chip": "ym2612"
    },
    {
      "channel": 2,
      "note": 77,
      "start": 17.8451,
      "duration": 0.223,
      "velocity": 80,
      "chip": "ym2612"
    },
    {
      "channel": 0,
      "note": 87,
      "start": 18.0657,
      "duration": 0.2068,
      "velocity": 80,
      "chip": "ym2612"
    },
    {
      "channel": 1,
      "note": 56,
      "start": 18.0664,
      "duration": 0.86,
      "velocity": 107,
      "chip": "ym2612"
    },
    {
      "channel": 3,
      "note": 79,
      "start": 18.0669,
      "duration": 0.2064,
      "velocity": 80,
      "chip": "ym2612"
    },
    {
      "channel": 4,
      "note": 82,
      "start": 18.0674,
      "duration": 0.2064,
      "velocity": 80,
      "chip": "ym2612"
    },
    {
      "channel": 5,
      "note": 87,
      "start": 18.068,
      "duration": 0.2064,
      "velocity": 80,
      "chip": "ym2612"
    },
    {
      "channel": 2,
      "note": 77,
      "start": 18.0685,
      "duration": 0.2064,
      "velocity": 80,
      "chip": "ym2612"
    },
    {
      "channel": 0,
      "note": 87,
      "start": 18.2729,
      "duration": 0.2227,
      "velocity": 80,
      "chip": "ym2612"
    },
    {
      "channel": 3,
      "note": 79,
      "start": 18.2737,
      "duration": 0.2226,
      "velocity": 80,
      "chip": "ym2612"
    },
    {
      "channel": 4,
      "note": 82,
      "start": 18.2742,
      "duration": 0.2227,
      "velocity": 80,
      "chip": "ym2612"
    },
    {
      "channel": 5,
      "note": 87,
      "start": 18.2747,
      "duration": 0.2227,
      "velocity": 80,
      "chip": "ym2612"
    },
    {
      "channel": 2,
      "note": 77,
      "start": 18.2753,
      "duration": 0.2226,
      "velocity": 80,
      "chip": "ym2612"
    },
    {
      "channel": 0,
      "note": 87,
      "start": 18.4959,
      "duration": 0.2067,
      "velocity": 80,
      "chip": "ym2612"
    },
    {
      "channel": 3,
      "note": 79,
      "start": 18.4967,
      "duration": 0.2067,
      "velocity": 80,
      "chip": "ym2612"
    },
    {
      "channel": 4,
      "note": 82,
      "start": 18.4973,
      "duration": 0.2067,
      "velocity": 80,
      "chip": "ym2612"
    },
    {
      "channel": 5,
      "note": 87,
      "start": 18.4978,
      "duration": 0.2067,
      "velocity": 80,
      "chip": "ym2612"
    },
    {
      "channel": 2,
      "note": 77,
      "start": 18.4983,
      "duration": 0.2067,
      "velocity": 80,
      "chip": "ym2612"
    },
    {
      "channel": 0,
      "note": 87,
      "start": 18.703,
      "duration": 0.2227,
      "velocity": 80,
      "chip": "ym2612"
    },
    {
      "channel": 3,
      "note": 79,
      "start": 18.7038,
      "duration": 0.2234,
      "velocity": 80,
      "chip": "ym2612"
    },
    {
      "channel": 4,
      "note": 82,
      "start": 18.7044,
      "duration": 0.2236,
      "velocity": 80,
      "chip": "ym2612"
    },
    {
      "channel": 5,
      "note": 87,
      "start": 18.7049,
      "duration": 0.2239,
      "velocity": 80,
      "chip": "ym2612"
    },
    {
      "channel": 2,
      "note": 77,
      "start": 18.7054,
      "duration": 0.2241,
      "velocity": 80,
      "chip": "ym2612"
    },
    {
      "channel": 0,
      "note": 82,
      "start": 18.9263,
      "duration": 0.2066,
      "velocity": 80,
      "chip": "ym2612"
    },
    {
      "channel": 1,
      "note": 58,
      "start": 18.927,
      "duration": 0.8597,
      "velocity": 107,
      "chip": "ym2612"
    },
    {
      "channel": 3,
      "note": 75,
      "start": 18.9277,
      "duration": 0.2061,
      "velocity": 80,
      "chip": "ym2612"
    },
    {
      "channel": 4,
      "note": 82,
      "start": 18.9285,
      "duration": 0.206,
      "velocity": 80,
      "chip": "ym2612"
    },
    {
      "channel": 5,
      "note": 77,
      "start": 18.9293,
      "duration": 0.2058,
      "velocity": 80,
      "chip": "ym2612"
    },
    {
      "channel": 2,
      "note": 72,
      "start": 18.9301,
      "duration": 0.2057,
      "velocity": 80,
      "chip": "ym2612"
    },
    {
      "channel": 0,
      "note": 84,
      "start": 19.1333,
      "duration": 0.2226,
      "velocity": 80,
      "chip": "ym2612"
    },
    {
      "channel": 3,
      "note": 75,
      "start": 19.1343,
      "duration": 0.2226,
      "velocity": 80,
      "chip": "ym2612"
    },
    {
      "channel": 4,
      "note": 82,
      "start": 19.135,
      "duration": 0.2226,
      "velocity": 80,
      "chip": "ym2612"
    },
    {
      "channel": 5,
      "note": 77,
      "start": 19.1357,
      "duration": 0.2225,
      "velocity": 80,
      "chip": "ym2612"
    },
    {
      "channel": 2,
      "note": 72,
      "start": 19.1364,
      "duration": 0.2225,
      "velocity": 80,
      "chip": "ym2612"
    },
    {
      "channel": 0,
      "note": 79,
      "start": 19.3564,
      "duration": 0.2065,
      "velocity": 80,
      "chip": "ym2612"
    },
    {
      "channel": 3,
      "note": 72,
      "start": 19.3574,
      "duration": 0.2065,
      "velocity": 80,
      "chip": "ym2612"
    },
    {
      "channel": 4,
      "note": 82,
      "start": 19.358,
      "duration": 0.2065,
      "velocity": 80,
      "chip": "ym2612"
    },
    {
      "channel": 5,
      "note": 79,
      "start": 19.3588,
      "duration": 0.2065,
      "velocity": 80,
      "chip": "ym2612"
    },
    {
      "channel": 2,
      "note": 67,
      "start": 19.3594,
      "duration": 0.2066,
      "velocity": 80,
      "chip": "ym2612"
    },
    {
      "channel": 0,
      "note": 79,
      "start": 19.5634,
      "duration": 0.2226,
      "velocity": 80,
      "chip": "ym2612"
    },
    {
      "channel": 3,
      "note": 72,
      "start": 19.5644,
      "duration": 0.2229,
      "velocity": 80,
      "chip": "ym2612"
    },
    {
      "channel": 4,
      "note": 77,
      "start": 19.5651,
      "duration": 0.2229,
      "velocity": 80,
      "chip": "ym2612"
    },
    {
      "channel": 5,
      "note": 79,
      "start": 19.5658,
      "duration": 0.223,
      "velocity": 80,
      "chip": "ym2612"
    },
    {
      "channel": 2,
      "note": 70,
      "start": 19.5665,
      "duration": 0.2229,
      "velocity": 80,
      "chip": "ym2612"
    },
    {
      "channel": 0,
      "note": 82,
      "start": 19.7865,
      "duration": 0.2066,
      "velocity": 80,
      "chip": "ym2612"
    },
    {
      "channel": 1,
      "note": 65,
      "start": 19.7872,
      "duration": 0.0947,
      "velocity": 107,
      "chip": "ym2612"
    },
    {
      "channel": 3,
      "note": 77,
      "start": 19.7879,
      "duration": 0.2066,
      "velocity": 80,
      "chip": "ym2612"
    },
    {
      "channel": 4,
      "note": 85,
      "start": 19.7886,
      "duration": 0.2066,
      "velocity": 80,
      "chip": "ym2612"
    },
    {
      "channel": 5,
      "note": 82,
      "start": 19.7893,
      "duration": 0.2066,
      "velocity": 80,
      "chip": "ym2612"
    },
    {
      "channel": 2,
      "note": 72,
      "start": 19.7899,
      "duration": 0.2066,
      "velocity": 80,
      "chip": "ym2612"
    },
    {
      "channel": 1,
      "note": 63,
      "start": 19.8824,
      "duration": 0.1114,
      "velocity": 107,
      "chip": "ym2612"
    },
    {
      "channel": 0,
      "note": 82,
      "start": 19.9936,
      "duration": 0.2226,
      "velocity": 80,
      "chip": "ym2612"
    },
    {
      "channel": 1,
      "note": 58,
      "start": 19.9943,
      "duration": 0.2226,
      "velocity": 107,
      "chip": "ym2612"
    },
    {
      "channel": 3,
      "note": 75,
      "start": 19.995,
      "duration": 0.2225,
      "velocity": 80,
      "chip": "ym2612"
    },
    {
      "channel": 4,
      "note": 79,
      "start": 19.9957,
      "duration": 0.2225,
      "velocity": 80,
      "chip": "ym2612"
    },
    {
      "channel": 5,
      "note": 82,
      "start": 19.9964,
      "duration": 0.2225,
      "velocity": 80,
      "chip": "ym2612"
    },
    {
      "channel": 2,
      "note": 72,
      "start": 19.9971,
      "duration": 0.2226,
      "velocity": 80,
      "chip": "ym2612"
    },
    {
      "channel": 0,
      "note": 79,
      "start": 20.2167,
      "duration": 0.2066,
      "velocity": 80,
      "chip": "ym2612"
    },
    {
      "channel": 1,
      "note": 65,
      "start": 20.2174,
      "duration": 0.0946,
      "velocity": 107,
      "chip": "ym2612"
    },
    {
      "channel": 3,
      "note": 77,
      "start": 20.2181,
      "duration": 0.2066,
      "velocity": 80,
      "chip": "ym2612"
    },
    {
      "channel": 4,
      "note": 82,
      "start": 20.2188,
      "duration": 0.2065,
      "velocity": 80,
      "chip": "ym2612"
    },
    {
      "channel": 5,
      "note": 84,
      "start": 20.2195,
      "duration": 0.2066,
      "velocity": 80,
      "chip": "ym2612"
    },
    {
      "channel": 2,
      "note": 67,
      "start": 20.2201,
      "duration": 0.2066,
      "velocity": 80,
      "chip": "ym2612"
    },
    {
      "channel": 1,
      "note": 63,
      "start": 20.3126,
      "duration": 0.1113,
      "velocity": 107,
      "chip": "ym2612"
    },
    {
      "channel": 0,
      "note": 72,
      "start": 20.4238,
      "duration": 0.2226,
      "velocity": 80,
      "chip": "ym2612"
    },
    {
      "channel": 1,
      "note": 58,
      "start": 20.4245,
      "duration": 0.2341,
      "velocity": 107,
      "chip": "ym2612"
    },
    {
      "channel": 3,
      "note": 70,
      "start": 20.4252,
      "duration": 0.2341,
      "velocity": 80,
      "chip": "ym2612"
    },
    {
      "channel": 4,
      "note": 82,
      "start": 20.4259,
      "duration": 0.2341,
      "velocity": 80,
      "chip": "ym2612"
    },
    {
      "channel": 5,
      "note": 84,
      "start": 20.4266,
      "duration": 0.2342,
      "velocity": 80,
      "chip": "ym2612"
    },
    {
      "channel": 2,
      "note": 65,
      "start": 20.4273,
      "duration": 0.2344,
      "velocity": 80,
      "chip": "ym2612"
    },
    {
      "channel": 0,
      "note": 77,
      "start": 20.647,
      "duration": 0.2066,
      "velocity": 80,
      "chip": "ym2612"
    },
    {
      "channel": 1,
      "note": 58,
      "start": 20.659,
      "duration": 1.4854,
      "velocity": 107,
      "chip": "ym2612"
    },
    {
      "channel": 3,
      "note": 70,
      "start": 20.6598,
      "duration": 0.1947,
      "velocity": 80,
      "chip": "ym2612"
    },
    {
      "channel": 4,
      "note": 75,
      "start": 20.6606,
      "duration": 0.1945,
      "velocity": 80,
      "chip": "ym2612"
    },
    {
      "channel": 5,
      "note": 79,
      "start": 20.6614,
      "duration": 0.1943,
      "velocity": 80,
      "chip": "ym2612"
    },
    {
      "channel": 2,
      "note": 70,
      "start": 20.6621,
      "duration": 0.1943,
      "velocity": 80,
      "chip": "ym2612"
    },
    {
      "channel": 0,
      "note": 77,
      "start": 20.854,
      "duration": 0.2224,
      "velocity": 80,
      "chip": "ym2612"
    },
    {
      "channel": 3,
      "note": 70,
      "start": 20.8549,
      "duration": 0.2224,
      "velocity": 80,
      "chip": "ym2612"
    },
    {
      "channel": 4,
      "note": 75,
      "start": 20.8555,
      "duration": 0.2223,
      "velocity": 80,
      "chip": "ym2612"
    },
    {
      "channel": 5,
      "note": 79,
      "start": 20.8562,
      "duration": 0.2221,
      "velocity": 80,
      "chip": "ym2612"
    },
    {
      "channel": 2,
      "note": 70,
      "start": 20.8568,
      "duration": 0.2222,
      "velocity": 80,
      "chip": "ym2612"
    },
    {
      "channel": 0,
      "note": 77,
      "start": 21.0768,
      "duration": 0.2068,
      "velocity": 80,
      "chip": "ym2612"
    },
    {
      "channel": 3,
      "note": 70,
      "start": 21.0776,
      "duration": 0.2068,
      "velocity": 80,
      "chip": "ym2612"
    },
    {
      "channel": 4,
      "note": 75,
      "start": 21.0782,
      "duration": 0.2068,
      "velocity": 80,
      "chip": "ym2612"
    },
    {
      "channel": 5,
      "note": 77,
      "start": 21.0789,
      "duration": 0.2066,
      "velocity": 80,
      "chip": "ym2612"
    },
    {
      "channel": 2,
      "note": 70,
      "start": 21.0794,
      "duration": 0.2068,
      "velocity": 80,
      "chip": "ym2612"
    },
    {
      "channel": 0,
      "note": 77,
      "start": 21.284,
      "duration": 0.2227,
      "velocity": 80,
      "chip": "ym2612"
    },
    {
      "channel": 3,
      "note": 70,
      "start": 21.2848,
      "duration": 0.2227,
      "velocity": 80,
      "chip": "ym2612"
    },
    {
      "channel": 4,
      "note": 75,
      "start": 21.2854,
      "duration": 0.2227,
      "velocity": 80,
      "chip": "ym2612"
    },
    {
      "channel": 5,
      "note": 77,
      "start": 21.286,
      "duration": 0.2226,
      "velocity": 80,
      "chip": "ym2612"
    },
    {
      "channel": 2,
      "note": 70,
      "start": 21.2866,
      "duration": 0.2227,
      "velocity": 80,
      "chip": "ym2612"
    },
    {
      "channel": 0,
      "note": 77,
      "start": 21.5071,
      "duration": 0.2134,
      "velocity": 80,
      "chip": "ym2612"
    },
    {
      "channel": 3,
      "note": 70,
      "start": 21.5079,
      "duration": 0.2135,
      "velocity": 80,
      "chip": "ym2612"
    },
    {
      "channel": 4,
      "note": 75,
      "start": 21.5084,
      "duration": 0.2134,
      "velocity": 80,
      "chip": "ym2612"
    },
    {
      "channel": 5,
      "note": 79,
      "start": 21.5091,
      "duration": 0.2134,
      "velocity": 80,
      "chip": "ym2612"
    },
    {
      "channel": 2,
      "note": 70,
      "start": 21.5097,
      "duration": 0.2135,
      "velocity": 80,
      "chip": "ym2612"
    },
    {
      "channel": 0,
      "note": 77,
      "start": 21.7209,
      "duration": 0.216,
      "velocity": 80,
      "chip": "ym2612"
    },
    {
      "channel": 3,
      "note": 70,
      "start": 21.7217,
      "duration": 0.2159,
      "velocity": 80,
      "chip": "ym2612"
    },
    {
      "channel": 4,
      "note": 75,
      "start": 21.7222,
      "duration": 0.216,
      "velocity": 80,
      "chip": "ym2612"
    },
    {
      "channel": 5,
      "note": 79,
      "start": 21.7229,
      "duration": 0.2158,
      "velocity": 80,
      "chip": "ym2612"
    },
    {
      "channel": 2,
      "note": 70,
      "start": 21.7235,
      "duration": 0.2159,
      "velocity": 80,
      "chip": "ym2612"
    },
    {
      "channel": 0,
      "note": 77,
      "start": 21.9373,
      "duration": 0.2066,
      "velocity": 80,
      "chip": "ym2612"
    },
    {
      "channel": 3,
      "note": 70,
      "start": 21.938,
      "duration": 0.2069,
      "velocity": 80,
      "chip": "ym2612"
    },
    {
      "channel": 4,
      "note": 75,
      "start": 21.9386,
      "duration": 0.2068,
      "velocity": 80,
      "chip": "ym2612"
    },
    {
      "channel": 5,
      "note": 77,
      "start": 21.9392,
      "duration": 0.2067,
      "velocity": 80,
      "chip": "ym2612"
    },
    {
      "channel": 2,
      "note": 70,
      "start": 21.9398,
      "duration": 0.2069,
      "velocity": 80,
      "chip": "ym2612"
    },
    {
      "channel": 0,
      "note": 77,
      "start": 22.1443,
      "duration": 0.2228,
      "velocity": 80,
      "chip": "ym2612"
    },
    {
      "channel": 1,
      "note": 58,
      "start": 22.1448,
      "duration": 0.111,
      "velocity": 107,
      "chip": "ym2612"
    },
    {
      "channel": 3,
      "note": 70,
      "start": 22.1453,
      "duration": 0.2233,
      "velocity": 80,
      "chip": "ym2612"
    },
    {
      "channel": 4,
      "note": 75,
      "start": 22.1458,
      "duration": 0.2236,
      "velocity": 80,
      "chip": "ym2612"
    },
    {
      "channel": 5,
      "note": 77,
      "start": 22.1465,
      "duration": 0.2236,
      "velocity": 80,
      "chip": "ym2612"
    },
    {
      "channel": 2,
      "note": 70,
      "start": 22.1471,
      "duration": 0.2238,
      "velocity": 80,
      "chip": "ym2612"
    },
    {
      "channel": 1,
      "note": 58,
      "start": 22.2561,
      "duration": 0.1117,
      "velocity": 107,
      "chip": "ym2612"
    },
    {
      "channel": 0,
      "note": 82,
      "start": 22.3677,
      "duration": 0.2065,
      "velocity": 80,
      "chip": "ym2612"
    },
    {
      "channel": 1,
      "note": 63,
      "start": 22.3684,
      "duration": 1.0666,
      "velocity": 107,
      "chip": "ym2612"
    },
    {
      "channel": 3,
      "note": 79,
      "start": 22.3691,
      "duration": 0.2059,
      "velocity": 80,
      "chip": "ym2612"
    },
    {
      "channel": 4,
      "note": 82,
      "start": 22.3699,
      "duration": 0.2058,
      "velocity": 80,
      "chip": "ym2612"
    },
    {
      "channel": 5,
      "note": 87,
      "start": 22.3706,
      "duration": 0.2057,
      "velocity": 80,
      "chip": "ym2612"
    },
    {
      "channel": 2,
      "note": 75,
      "start": 22.3714,
      "duration": 0.2055,
      "velocity": 80,
      "chip": "ym2612"
    },
    {
      "channel": 0,
      "note": 82,
      "start": 22.5745,
      "duration": 0.2226,
      "velocity": 80,
      "chip": "ym2612"
    },
    {
      "channel": 3,
      "note": 79,
      "start": 22.5754,
      "duration": 0.2225,
      "velocity": 80,
      "chip": "ym2612"
    },
    {
      "channel": 4,
      "note": 82,
      "start": 22.5761,
      "duration": 0.2224,
      "velocity": 80,
      "chip": "ym2612"
    },
    {
      "channel": 5,
      "note": 87,
      "start": 22.5767,
      "duration": 0.2223,
      "velocity": 80,
      "chip": "ym2612"
    },
    {
      "channel": 2,
      "note": 75,
      "start": 22.5773,
      "duration": 0.2222,
      "velocity": 80,
      "chip": "ym2612"
    },
    {
      "channel": 0,
      "note": 82,
      "start": 22.7975,
      "duration": 0.2067,
      "velocity": 80,
      "chip": "ym2612"
    },
    {
      "channel": 3,
      "note": 79,
      "start": 22.7983,
      "duration": 0.2067,
      "velocity": 80,
      "chip": "ym2612"
    },
    {
      "channel": 4,
      "note": 82,
      "start": 22.7988,
      "duration": 0.2067,
      "velocity": 80,
      "chip": "ym2612"
    },
    {
      "channel": 5,
      "note": 87,
      "start": 22.7993,
      "duration": 0.2067,
      "velocity": 80,
      "chip": "ym2612"
    },
    {
      "channel": 2,
      "note": 75,
      "start": 22.7999,
      "duration": 0.2067,
      "velocity": 80,
      "chip": "ym2612"
    },
    {
      "channel": 0,
      "note": 82,
      "start": 23.0046,
      "duration": 0.2226,
      "velocity": 80,
      "chip": "ym2612"
    },
    {
      "channel": 3,
      "note": 79,
      "start": 23.0054,
      "duration": 0.2226,
      "velocity": 80,
      "chip": "ym2612"
    },
    {
      "channel": 4,
      "note": 82,
      "start": 23.006,
      "duration": 0.2226,
      "velocity": 80,
      "chip": "ym2612"
    },
    {
      "channel": 5,
      "note": 87,
      "start": 23.0065,
      "duration": 0.2226,
      "velocity": 80,
      "chip": "ym2612"
    },
    {
      "channel": 2,
      "note": 75,
      "start": 23.007,
      "duration": 0.2226,
      "velocity": 80,
      "chip": "ym2612"
    },
    {
      "channel": 0,
      "note": 82,
      "start": 23.2276,
      "duration": 0.2069,
      "velocity": 80,
      "chip": "ym2612"
    },
    {
      "channel": 3,
      "note": 79,
      "start": 23.2284,
      "duration": 0.2071,
      "velocity": 80,
      "chip": "ym2612"
    },
    {
      "channel": 4,
      "note": 82,
      "start": 23.2289,
      "duration": 0.2071,
      "velocity": 80,
      "chip": "ym2612"
    },
    {
      "channel": 5,
      "note": 87,
      "start": 23.2294,
      "duration": 0.2071,
      "velocity": 80,
      "chip": "ym2612"
    },
    {
      "channel": 2,
      "note": 75,
      "start": 23.23,
      "duration": 0.2071,
      "velocity": 80,
      "chip": "ym2612"
    },
    {
      "channel": 0,
      "note": 82,
      "start": 23.4348,
      "duration": 0.2227,
      "velocity": 80,
      "chip": "ym2612"
    },
    {
      "channel": 1,
      "note": 63,
      "start": 23.4354,
      "duration": 0.2227,
      "velocity": 107,
      "chip": "ym2612"
    },
    {
      "channel": 3,
      "note": 79,
      "start": 23.4359,
      "duration": 0.2227,
      "velocity": 80,
      "chip": "ym2612"
    },
    {
      "channel": 4,
      "note": 82,
      "start": 23.4364,
      "duration": 0.2226,
      "velocity": 80,
      "chip": "ym2612"
    },
    {
      "channel": 5,
      "note": 87,
      "start": 23.4369,
      "duration": 0.2227,
      "velocity": 80,
      "chip": "ym2612"
    },
    {
      "channel": 2,
      "note": 75,
      "start": 23.4374,
      "duration": 0.2227,
      "velocity": 80,
      "chip": "ym2612"
    },
    {
      "channel": 0,
      "note": 82,
      "start": 23.6579,
      "duration": 0.2067,
      "velocity": 80,
      "chip": "ym2612"
    },
    {
      "channel": 1,
      "note": 63,
      "start": 23.6584,
      "duration": 0.2067,
      "velocity": 107,
      "chip": "ym2612"
    },
    {
      "channel": 3,
      "note": 79,
      "start": 23.6589,
      "duration": 0.2067,
      "velocity": 80,
      "chip": "ym2612"
    },
    {
      "channel": 4,
      "note": 82,
      "start": 23.6594,
      "duration": 0.2067,
      "velocity": 80,
      "chip": "ym2612"
    },
    {
      "channel": 5,
      "note": 87,
      "start": 23.66,
      "duration": 0.2067,
      "velocity": 80,
      "chip": "ym2612"
    },
    {
      "channel": 2,
      "note": 75,
      "start": 23.6605,
      "duration": 0.2067,
      "velocity": 80,
      "chip": "ym2612"
    },
    {
      "channel": 0,
      "note": 82,
      "start": 23.8649,
      "duration": 0.2227,
      "velocity": 80,
      "chip": "ym2612"
    },
    {
      "channel": 1,
      "note": 63,
      "start": 23.8654,
      "duration": 0.2229,
      "velocity": 107,
      "chip": "ym2612"
    },
    {
      "channel": 3,
      "note": 79,
      "start": 23.8659,
      "duration": 0.2232,
      "velocity": 80,
      "chip": "ym2612"
    },
    {
      "channel": 4,
      "note": 82,
      "start": 23.8665,
      "duration": 0.2235,
      "velocity": 80,
      "chip": "ym2612"
    },
    {
      "channel": 5,
      "note": 87,
      "start": 23.867,
      "duration": 0.2237,
      "velocity": 80,
      "chip": "ym2612"
    },
    {
      "channel": 2,
      "note": 75,
      "start": 23.8675,
      "duration": 0.224,
      "velocity": 80,
      "chip": "ym2612"
    },
    {
      "channel": 0,
      "note": 87,
      "start": 24.0882,
      "duration": 0.2067,
      "velocity": 80,
      "chip": "ym2612"
    },
    {
      "channel": 1,
      "note": 65,
      "start": 24.0889,
      "duration": 0.8595,
      "velocity": 107,
      "chip": "ym2612"
    },
    {
      "channel": 3,
      "note": 79,
      "start": 24.0897,
      "duration": 0.2061,
      "velocity": 80,
      "chip": "ym2612"
    },
    {
      "channel": 4,
      "note": 82,
      "start": 24.0904,
      "duration": 0.206,
      "velocity": 80,
      "chip": "ym2612"
    },
    {
      "channel": 5,
      "note": 87,
      "start": 24.0913,
      "duration": 0.2058,
      "velocity": 80,
      "chip": "ym2612"
    },
    {
      "channel": 2,
      "note": 77,
      "start": 24.092,
      "duration": 0.2171,
      "velocity": 80,
      "chip": "ym2612"
    },
    {
      "channel": 0,
      "note": 87,
      "start": 24.2953,
      "duration": 0.2225,
      "velocity": 80,
      "chip": "ym2612"
    },
    {
      "channel": 3,
      "note": 79,
      "start": 24.2962,
      "duration": 0.2224,
      "velocity": 80,
      "chip": "ym2612"
    },
    {
      "channel": 4,
      "note": 82,
      "start": 24.2968,
      "duration": 0.2223,
      "velocity": 80,
      "chip": "ym2612"
    },
    {
      "channel": 5,
      "note": 87,
      "start": 24.3089,
      "duration": 0.2107,
      "velocity": 80,
      "chip": "ym2612"
    },
    {
      "channel": 2,
      "note": 77,
      "start": 24.3095,
      "duration": 0.2107,
      "velocity": 80,
      "chip": "ym2612"
    },
    {
      "channel": 0,
      "note": 87,
      "start": 24.5182,
      "duration": 0.2068,
      "velocity": 80,
      "chip": "ym2612"
    },
    {
      "channel": 3,
      "note": 79,
      "start": 24.519,
      "duration": 0.2067,
      "velocity": 80,
      "chip": "ym2612"
    },
    {
      "channel": 4,
      "note": 82,
      "start": 24.5195,
      "duration": 0.2068,
      "velocity": 80,
      "chip": "ym2612"
    },
    {
      "channel": 5,
      "note": 87,
      "start": 24.52,
      "duration": 0.2067,
      "velocity": 80,
      "chip": "ym2612"
    },
    {
      "channel": 2,
      "note": 77,
      "start": 24.5206,
      "duration": 0.2067,
      "velocity": 80,
      "chip": "ym2612"
    },
    {
      "channel": 0,
      "note": 87,
      "start": 24.7253,
      "duration": 0.2226,
      "velocity": 80,
      "chip": "ym2612"
    },
    {
      "channel": 3,
      "note": 79,
      "start": 24.7261,
      "duration": 0.223,
      "velocity": 80,
      "chip": "ym2612"
    },
    {
      "channel": 4,
      "note": 82,
      "start": 24.7266,
      "duration": 0.2229,
      "velocity": 80,
      "chip": "ym2612"
    },
    {
      "channel": 5,
      "note": 87,
      "start": 24.7271,
      "duration": 0.223,
      "velocity": 80,
      "chip": "ym2612"
    },
    {
      "channel": 2,
      "note": 77,
      "start": 24.7277,
      "duration": 0.223,
      "velocity": 80,
      "chip": "ym2612"
    },
    {
      "channel": 0,
      "note": 87,
      "start": 24.9483,
      "duration": 0.2068,
      "velocity": 80,
      "chip": "ym2612"
    },
    {
      "channel": 1,
      "note": 56,
      "start": 24.9489,
      "duration": 0.8601,
      "velocity": 107,
      "chip": "ym2612"
    },
    {
      "channel": 3,
      "note": 79,
      "start": 24.9495,
      "duration": 0.2063,
      "velocity": 80,
      "chip": "ym2612"
    },
    {
      "channel": 4,
      "note": 82,
      "start": 24.95,
      "duration": 0.2064,
      "velocity": 80,
      "chip": "ym2612"
    },
    {
      "channel": 5,
      "note": 87,
      "start": 24.9505,
      "duration": 0.2063,
      "velocity": 80,
      "chip": "ym2612"
    },
    {
      "channel": 2,
      "note": 77,
      "start": 24.9511,
      "duration": 0.2063,
      "velocity": 80,
      "chip": "ym2612"
    },
    {
      "channel": 0,
      "note": 87,
      "start": 25.1554,
      "duration": 0.2227,
      "velocity": 80,
      "chip": "ym2612"
    },
    {
      "channel": 3,
      "note": 79,
      "start": 25.1561,
      "duration": 0.2227,
      "velocity": 80,
      "chip": "ym2612"
    },
    {
      "channel": 4,
      "note": 82,
      "start": 25.1567,
      "duration": 0.2227,
      "velocity": 80,
      "chip": "ym2612"
    },
    {
      "channel": 5,
      "note": 87,
      "start": 25.1572,
      "duration": 0.2227,
      "velocity": 80,
      "chip": "ym2612"
    },
    {
      "channel": 2,
      "note": 77,
      "start": 25.1577,
      "duration": 0.2227,
      "velocity": 80,
      "chip": "ym2612"
    },
    {
      "channel": 0,
      "note": 87,
      "start": 25.3785,
      "duration": 0.2067,
      "velocity": 80,
      "chip": "ym2612"
    },
    {
      "channel": 3,
      "note": 79,
      "start": 25.3793,
      "duration": 0.2067,
      "velocity": 80,
      "chip": "ym2612"
    },
    {
      "channel": 4,
      "note": 82,
      "start": 25.3798,
      "duration": 0.2067,
      "velocity": 80,
      "chip": "ym2612"
    },
    {
      "channel": 5,
      "note": 87,
      "start": 25.3803,
      "duration": 0.2068,
      "velocity": 80,
      "chip": "ym2612"
    },
    {
      "channel": 2,
      "note": 77,
      "start": 25.3808,
      "duration": 0.2067,
      "velocity": 80,
      "chip": "ym2612"
    },
    {
      "channel": 0,
      "note": 87,
      "start": 25.5856,
      "duration": 0.2227,
      "velocity": 80,
      "chip": "ym2612"
    },
    {
      "channel": 3,
      "note": 79,
      "start": 25.5864,
      "duration": 0.2234,
      "velocity": 80,
      "chip": "ym2612"
    },
    {
      "channel": 4,
      "note": 82,
      "start": 25.5869,
      "duration": 0.2236,
      "velocity": 80,
      "chip": "ym2612"
    },
    {
      "channel": 5,
      "note": 87,
      "start": 25.5874,
      "duration": 0.2239,
      "velocity": 80,
      "chip": "ym2612"
    },
    {
      "channel": 2,
      "note": 77,
      "start": 25.588,
      "duration": 0.2242,
      "velocity": 80,
      "chip": "ym2612"
    },
    {
      "channel": 0,
      "note": 82,
      "start": 25.8089,
      "duration": 0.2064,
      "velocity": 80,
      "chip": "ym2612"
    },
    {
      "channel": 1,
      "note": 58,
      "start": 25.8095,
      "duration": 0.8597,
      "velocity": 107,
      "chip": "ym2612"
    },
    {
      "channel": 3,
      "note": 75,
      "start": 25.8103,
      "duration": 0.2059,
      "velocity": 80,
      "chip": "ym2612"
    },
    {
      "channel": 4,
      "note": 82,
      "start": 25.8111,
      "duration": 0.2059,
      "velocity": 80,
      "chip": "ym2612"
    },
    {
      "channel": 5,
      "note": 77,
      "start": 25.8119,
      "duration": 0.2058,
      "velocity": 80,
      "chip": "ym2612"
    },
    {
      "channel": 2,
      "note": 72,
      "start": 25.8126,
      "duration": 0.2057,
      "velocity": 80,
      "chip": "ym2612"
    },
    {
      "channel": 0,
      "note": 84,
      "start": 26.0159,
      "duration": 0.2225,
      "velocity": 80,
      "chip": "ym2612"
    },
    {
      "channel": 3,
      "note": 75,
      "start": 26.0168,
      "duration": 0.2224,
      "velocity": 80,
      "chip": "ym2612"
    },
    {
      "channel": 4,
      "note": 82,
      "start": 26.0175,
      "duration": 0.2225,
      "velocity": 80,
      "chip": "ym2612"
    },
    {
      "channel": 5,
      "note": 77,
      "start": 26.0182,
      "duration": 0.2225,
      "velocity": 80,
      "chip": "ym2612"
    },
    {
      "channel": 2,
      "note": 72,
      "start": 26.0189,
      "duration": 0.2225,
      "velocity": 80,
      "chip": "ym2612"
    },
    {
      "channel": 0,
      "note": 79,
      "start": 26.2388,
      "duration": 0.2067,
      "velocity": 80,
      "chip": "ym2612"
    },
    {
      "channel": 3,
      "note": 72,
      "start": 26.2399,
      "duration": 0.2066,
      "velocity": 80,
      "chip": "ym2612"
    },
    {
      "channel": 4,
      "note": 82,
      "start": 26.2406,
      "duration": 0.2066,
      "velocity": 80,
      "chip": "ym2612"
    },
    {
      "channel": 5,
      "note": 79,
      "start": 26.2412,
      "duration": 0.2067,
      "velocity": 80,
      "chip": "ym2612"
    },
    {
      "channel": 2,
      "note": 67,
      "start": 26.2419,
      "duration": 0.2066,
      "velocity": 80,
      "chip": "ym2612"
    },
    {
      "channel": 0,
      "note": 79,
      "start": 26.446,
      "duration": 0.2224,
      "velocity": 80,
      "chip": "ym2612"
    },
    {
      "channel": 3,
      "note": 72,
      "start": 26.4471,
      "duration": 0.2228,
      "velocity": 80,
      "chip": "ym2612"
    },
    {
      "channel": 4,
      "note": 77,
      "start": 26.4477,
      "duration": 0.2228,
      "velocity": 80,
      "chip": "ym2612"
    },
    {
      "channel": 5,
      "note": 79,
      "start": 26.4484,
      "duration": 0.2228,
      "velocity": 80,
      "chip": "ym2612"
    },
    {
      "channel": 2,
      "note": 70,
      "start": 26.4491,
      "duration": 0.2228,
      "velocity": 80,
      "chip": "ym2612"
    },
    {
      "channel": 0,
      "note": 82,
      "start": 26.669,
      "duration": 0.2066,
      "velocity": 80,
      "chip": "ym2612"
    },
    {
      "channel": 1,
      "note": 58,
      "start": 26.6697,
      "duration": 0.0947,
      "velocity": 107,
      "chip": "ym2612"
    },
    {
      "channel": 3,
      "note": 77,
      "start": 26.6704,
      "duration": 0.2066,
      "velocity": 80,
      "chip": "ym2612"
    },
    {
      "channel": 4,
      "note": 85,
      "start": 26.6711,
      "duration": 0.2065,
      "velocity": 80,
      "chip": "ym2612"
    },
    {
      "channel": 5,
      "note": 82,
      "start": 26.6718,
      "duration": 0.2066,
      "velocity": 80,
      "chip": "ym2612"
    },
    {
      "channel": 2,
      "note": 72,
      "start": 26.6724,
      "duration": 0.2066,
      "velocity": 80,
      "chip": "ym2612"
    },
    {
      "channel": 1,
      "note": 60,
      "start": 26.765,
      "duration": 0.1113,
      "velocity": 107,
      "chip": "ym2612"
    },
    {
      "channel": 0,
      "note": 82,
      "start": 26.8761,
      "duration": 0.2227,
      "velocity": 80,
      "chip": "ym2612"
    },
    {
      "channel": 1,
      "note": 58,
      "start": 26.8768,
      "duration": 0.2226,
      "velocity": 107,
      "chip": "ym2612"
    },
    {
      "channel": 3,
      "note": 75,
      "start": 26.8775,
      "duration": 0.2224,
      "velocity": 80,
      "chip": "ym2612"
    },
    {
      "channel": 4,
      "note": 79,
      "start": 26.8782,
      "duration": 0.2224,
      "velocity": 80,
      "chip": "ym2612"
    },
    {
      "channel": 5,
      "note": 82,
      "start": 26.8789,
      "duration": 0.2224,
      "velocity": 80,
      "chip": "ym2612"
    },
    {
      "channel": 2,
      "note": 72,
      "start": 26.8796,
      "duration": 0.2224,
      "velocity": 80,
      "chip": "ym2612"
    },
    {
      "channel": 0,
      "note": 79,
      "start": 27.0993,
      "duration": 0.2066,
      "velocity": 80,
      "chip": "ym2612"
    },
    {
      "channel": 1,
      "note": 58,
      "start": 27.0998,
      "duration": 0.0948,
      "velocity": 107,
      "chip": "ym2612"
    },
    {
      "channel": 3,
      "note": 77,
      "start": 27.1005,
      "duration": 0.2067,
      "velocity": 80,
      "chip": "ym2612"
    },
    {
      "channel": 4,
      "note": 82,
      "start": 27.1012,
      "duration": 0.2067,
      "velocity": 80,
      "chip": "ym2612"
    },
    {
      "channel": 5,
      "note": 84,
      "start": 27.1019,
      "duration": 0.2067,
      "velocity": 80,
      "chip": "ym2612"
    },
    {
      "channel": 2,
      "note": 67,
      "start": 27.1026,
      "duration": 0.2067,
      "velocity": 80,
      "chip": "ym2612"
    },
    {
      "channel": 1,
      "note": 58,
      "start": 27.195,
      "duration": 0.1115,
      "velocity": 107,
      "chip": "ym2612"
    },
    {
      "channel": 0,
      "note": 72,
      "start": 27.3063,
      "duration": 0.2226,
      "velocity": 80,
      "chip": "ym2612"
    },
    {
      "channel": 1,
      "note": 60,
      "start": 27.3071,
      "duration": 0.2226,
      "velocity": 107,
      "chip": "ym2612"
    },
    {
      "channel": 3,
      "note": 70,
      "start": 27.3077,
      "duration": 0.2228,
      "velocity": 80,
      "chip": "ym2612"
    },
    {
      "channel": 4,
      "note": 82,
      "start": 27.3084,
      "duration": 0.223,
      "velocity": 80,
      "chip": "ym2612"
    },
    {
      "channel": 5,
      "note": 84,
      "start": 27.3091,
      "duration": 0.2232,
      "velocity": 80,
      "chip": "ym2612"
    },
    {
      "channel": 2,
      "note": 65,
      "start": 27.3098,
      "duration": 0.2234,
      "velocity": 80,
      "chip": "ym2612"
    },
    {
      "channel": 0,
      "note": 82,
      "start": 27.5295,
      "duration": 0.204,
      "velocity": 80,
      "chip": "ym2612"
    },
    {
      "channel": 1,
      "note": 63,
      "start": 27.5302,
      "duration": 0.2032,
      "velocity": 107,
      "chip": "ym2612"
    },
    {
      "channel": 3,
      "note": 79,
      "start": 27.5311,
      "duration": 0.2024,
      "velocity": 80,
      "chip": "ym2612"
    },
    {
      "channel": 4,
      "note": 82,
      "start": 27.532,
      "duration": 0.2015,
      "velocity": 80,
      "chip": "ym2612"
    },
    {
      "channel": 5,
      "note": 86,
      "start": 27.5328,
      "duration": 0.2007,
      "velocity": 80,
      "chip": "ym2612"
    },
    {
      "channel": 2,
      "note": 75,
      "start": 27.5336,
      "duration": 0.1998,
      "velocity": 80,
      "chip": "ym2612"
    }
  ]
}