{
  "track_name": "07 - Forest",
  "duration_sec": 45.753,
  "sample_rate": 44100,
  "note_count": 654,
  "unique_pitches": 29,
  "pitch_range": 74,
  "avg_note_duration": 0.1503,
  "reconstruction_stats": {
    "notes_reconstructed": 654,
    "keyon_events": 654,
    "keyoff_events": 654,
    "orphan_keyons": 0,
    "unique_pitches": 29,
    "pitch_range": 74,
    "avg_duration_sec": 0.1503
  },
  "metadata": {
    "source": "R\\Radical Rex\\07 - Forest.vgm"
  },
  "notes": [
    {
      "channel": 0,
      "note": 54,
      "start": 0.0,
      "duration": 0.0,
      "velocity": 98,
      "chip": "ym2612"
    },
    {
      "channel": 0,
      "note": 59,
      "start": 0.0,
      "duration": 0.0,
      "velocity": 98,
      "chip": "ym2612"
    },
    {
      "channel": 0,
      "note": 47,
      "start": 0.0,
      "duration": 0.0,
      "velocity": 98,
      "chip": "ym2612"
    },
    {
      "channel": 0,
      "note": 59,
      "start": 0.0,
      "duration": 0.0,
      "velocity": 98,
      "chip": "ym2612"
    },
    {
      "channel": 0,
      "note": 59,
      "start": 0.0,
      "duration": 0.0,
      "velocity": 98,
      "chip": "ym2612"
    },
    {
      "channel": 0,
      "note": 54,
      "start": 0.0,
      "duration": 0.0,
      "velocity": 98,
      "chip": "ym2612"
    },
    {
      "channel": 0,
      "note": 59,
      "start": 0.0,
      "duration": 0.0,
      "velocity": 98,
      "chip": "ym2612"
    },
    {
      "channel": 0,
      "note": 47,
      "start": 0.0,
      "duration": 0.0,
      "velocity": 98,
      "chip": "ym2612"
    },
    {
      "channel": 0,
      "note": 59,
      "start": 0.0,
      "duration": 0.0,
      "velocity": 98,
      "chip": "ym2612"
    },
    {
      "channel": 2,
      "note": 28,
      "start": 0.0,
      "duration": 0.0,
      "velocity": 110,
      "chip": "ym2612"
    },
    {
      "channel": 2,
      "note": 68,
      "start": 0.0,
      "duration": 0.0,
      "velocity": 115,
      "chip": "ym2612"
    },
    {
      "channel": 2,
      "note": 28,
      "start": 0.0,
      "duration": 0.0,
      "velocity": 110,
      "chip": "ym2612"
    },
    {
      "channel": 2,
      "note": 68,
      "start": 0.0,
      "duration": 0.0,
      "velocity": 115,
      "chip": "ym2612"
    },
    {
      "channel": 2,
      "note": 68,
      "start": 0.0,
      "duration": 0.0,
      "velocity": 115,
      "chip": "ym2612"
    },
    {
      "channel": 2,
      "note": 28,
      "start": 0.0,
      "duration": 0.0,
      "velocity": 110,
      "chip": "ym2612"
    },
    {
      "channel": 2,
      "note": 68,
      "start": 0.0,
      "duration": 0.0,
      "velocity": 115,
      "chip": "ym2612"
    },
    {
      "channel": 2,
      "note": 28,
      "start": 0.0,
      "duration": 0.0,
      "velocity": 110,
      "chip": "ym2612"
    },
    {
      "channel": 2,
      "note": 68,
      "start": 0.0,
      "duration": 0.0,
      "velocity": 115,
      "chip": "ym2612"
    },
    {
      "channel": 2,
      "note": 68,
      "start": 0.0,
      "duration": 0.0,
      "velocity": 115,
      "chip": "ym2612"
    },
    {
      "channel": 2,
      "note": 28,
      "start": 0.0,
      "duration": 0.1247,
      "velocity": 110,
      "chip": "ym2612"
    },
    {
      "channel": 3,
      "note": 47,
      "start": 0.0,
      "duration": 0.0,
      "velocity": 123,
      "chip": "ym2612"
    },
    {
      "channel": 3,
      "note": 47,
      "start": 0.0,
      "duration": 0.0,
      "velocity": 123,
      "chip": "ym2612"
    },
    {
      "channel": 3,
      "note": 47,
      "start": 0.0,
      "duration": 0.0,
      "velocity": 123,
      "chip": "ym2612"
    },
    {
      "channel": 3,
      "note": 49,
      "start": 0.0,
      "duration": 0.0,
      "velocity": 123,
      "chip": "ym2612"
    },
    {
      "channel": 3,
      "note": 49,
      "start": 0.0,
      "duration": 0.0,
      "velocity": 123,
      "chip": "ym2612"
    },
    {
      "channel": 3,
      "note": 49,
      "start": 0.0,
      "duration": 0.0,
      "velocity": 123,
      "chip": "ym2612"
    },
    {
      "channel": 3,
      "note": 50,
      "start": 0.0,
      "duration": 0.0,
      "velocity": 123,
      "chip": "ym2612"
    },
    {
      "channel": 3,
      "note": 50,
      "start": 0.0,
      "duration": 0.0,
      "velocity": 123,
      "chip": "ym2612"
    },
    {
      "channel": 3,
      "note": 50,
      "start": 0.0,
      "duration": 0.0,
      "velocity": 123,
      "chip": "ym2612"
    },
    {
      "channel": 3,
      "note": 52,
      "start": 0.0,
      "duration": 0.0,
      "velocity": 123,
      "chip": "ym2612"
    },
    {
      "channel": 3,
      "note": 50,
      "start": 0.0,
      "duration": 0.0,
      "velocity": 123,
      "chip": "ym2612"
    },
    {
      "channel": 3,
      "note": 49,
      "start": 0.0,
      "duration": 0.0,
      "velocity": 123,
      "chip": "ym2612"
    },
    {
      "channel": 3,
      "note": 47,
      "start": 0.0,
      "duration": 0.0,
      "velocity": 123,
      "chip": "ym2612"
    },
    {
      "channel": 3,
      "note": 47,
      "start": 0.0,
      "duration": 0.0,
      "velocity": 123,
      "chip": "ym2612"
    },
    {
      "channel": 3,
      "note": 47,
      "start": 0.0,
      "duration": 0.0,
      "velocity": 123,
      "chip": "ym2612"
    },
    {
      "channel": 3,
      "note": 49,
      "start": 0.0,
      "duration": 0.0,
      "velocity": 123,
      "chip": "ym2612"
    },
    {
      "channel": 3,
      "note": 49,
      "start": 0.0,
      "duration": 0.0,
      "velocity": 123,
      "chip": "ym2612"
    },
    {
      "channel": 3,
      "note": 49,
      "start": 0.0,
      "duration": 0.0,
      "velocity": 123,
      "chip": "ym2612"
    },
    {
      "channel": 3,
      "note": 50,
      "start": 0.0,
      "duration": 0.0,
      "velocity": 123,
      "chip": "ym2612"
    },
    {
      "channel": 3,
      "note": 50,
      "start": 0.0,
      "duration": 0.0,
      "velocity": 123,
      "chip": "ym2612"
    },
    {
      "channel": 3,
      "note": 50,
      "start": 0.0,
      "duration": 0.0,
      "velocity": 123,
      "chip": "ym2612"
    },
    {
      "channel": 3,
      "note": 52,
      "start": 0.0,
      "duration": 0.0,
      "velocity": 123,
      "chip": "ym2612"
    },
    {
      "channel": 5,
      "note": 47,
      "start": 0.0,
      "duration": 0.0,
      "velocity": 98,
      "chip": "ym2612"
    },
    {
      "channel": 5,
      "note": 59,
      "start": 0.0,
      "duration": 0.0,
      "velocity": 98,
      "chip": "ym2612"
    },
    {
      "channel": 5,
      "note": 59,
      "start": 0.0,
      "duration": 0.0,
      "velocity": 98,
      "chip": "ym2612"
    },
    {
      "channel": 5,
      "note": 54,
      "start": 0.0,
      "duration": 0.0,
      "velocity": 98,
      "chip": "ym2612"
    },
    {
      "channel": 5,
      "note": 59,
      "start": 0.0,
      "duration": 0.0,
      "velocity": 98,
      "chip": "ym2612"
    },
    {
      "channel": 5,
      "note": 47,
      "start": 0.0,
      "duration": 0.0,
      "velocity": 98,
      "chip": "ym2612"
    },
    {
      "channel": 5,
      "note": 59,
      "start": 0.0,
      "duration": 0.0,
      "velocity": 98,
      "chip": "ym2612"
    },
    {
      "channel": 5,
      "note": 59,
      "start": 0.0,
      "duration": 0.0,
      "velocity": 98,
      "chip": "ym2612"
    },
    {
      "channel": 5,
      "note": 54,
      "start": 0.0,
      "duration": 0.0,
      "velocity": 98,
      "chip": "ym2612"
    },
    {
      "channel": 3,
      "note": 47,
      "start": 0.0062,
      "duration": 0.15,
      "velocity": 123,
      "chip": "ym2612"
    },
    {
      "channel": 5,
      "note": 47,
      "start": 0.0091,
      "duration": 0.0814,
      "velocity": 98,
      "chip": "ym2612"
    },
    {
      "channel": 0,
      "note": 54,
      "start": 0.1241,
      "duration": 0.107,
      "velocity": 98,
      "chip": "ym2612"
    },
    {
      "channel": 3,
      "note": 47,
      "start": 0.2528,
      "duration": 0.0704,
      "velocity": 123,
      "chip": "ym2612"
    },
    {
      "channel": 5,
      "note": 59,
      "start": 0.2571,
      "duration": 0.0391,
      "velocity": 98,
      "chip": "ym2612"
    },
    {
      "channel": 3,
      "note": 47,
      "start": 0.3832,
      "duration": 0.0647,
      "velocity": 123,
      "chip": "ym2612"
    },
    {
      "channel": 3,
      "note": 49,
      "start": 0.5113,
      "duration": 0.1749,
      "velocity": 123,
      "chip": "ym2612"
    },
    {
      "channel": 2,
      "note": 68,
      "start": 0.514,
      "duration": 0.0742,
      "velocity": 115,
      "chip": "ym2612"
    },
    {
      "channel": 3,
      "note": 49,
      "start": 0.7747,
      "duration": 0.0686,
      "velocity": 123,
      "chip": "ym2612"
    },
    {
      "channel": 0,
      "note": 59,
      "start": 0.7775,
      "duration": 0.0388,
      "velocity": 98,
      "chip": "ym2612"
    },
    {
      "channel": 3,
      "note": 49,
      "start": 0.9029,
      "duration": 0.065,
      "velocity": 123,
      "chip": "ym2612"
    },
    {
      "channel": 5,
      "note": 59,
      "start": 0.9068,
      "duration": 0.0503,
      "velocity": 98,
      "chip": "ym2612"
    },
    {
      "channel": 2,
      "note": 28,
      "start": 1.0296,
      "duration": 0.1251,
      "velocity": 110,
      "chip": "ym2612"
    },
    {
      "channel": 3,
      "note": 50,
      "start": 1.0339,
      "duration": 0.1723,
      "velocity": 123,
      "chip": "ym2612"
    },
    {
      "channel": 0,
      "note": 47,
      "start": 1.0367,
      "duration": 0.0515,
      "velocity": 98,
      "chip": "ym2612"
    },
    {
      "channel": 5,
      "note": 54,
      "start": 1.1629,
      "duration": 0.1193,
      "velocity": 98,
      "chip": "ym2612"
    },
    {
      "channel": 3,
      "note": 50,
      "start": 1.2948,
      "duration": 0.0685,
      "velocity": 123,
      "chip": "ym2612"
    },
    {
      "channel": 0,
      "note": 59,
      "start": 1.2976,
      "duration": 0.066,
      "velocity": 98,
      "chip": "ym2612"
    },
    {
      "channel": 3,
      "note": 50,
      "start": 1.4241,
      "duration": 0.0584,
      "velocity": 123,
      "chip": "ym2612"
    },
    {
      "channel": 3,
      "note": 52,
      "start": 1.5517,
      "duration": 0.1962,
      "velocity": 123,
      "chip": "ym2612"
    },
    {
      "channel": 2,
      "note": 68,
      "start": 1.5562,
      "duration": 0.0653,
      "velocity": 115,
      "chip": "ym2612"
    },
    {
      "channel": 3,
      "note": 50,
      "start": 1.8129,
      "duration": 0.1098,
      "velocity": 123,
      "chip": "ym2612"
    },
    {
      "channel": 5,
      "note": 59,
      "start": 1.8157,
      "duration": 0.0407,
      "velocity": 98,
      "chip": "ym2612"
    },
    {
      "channel": 3,
      "note": 49,
      "start": 1.9454,
      "duration": 0.1114,
      "velocity": 123,
      "chip": "ym2612"
    },
    {
      "channel": 0,
      "note": 59,
      "start": 1.9481,
      "duration": 0.0761,
      "velocity": 98,
      "chip": "ym2612"
    },
    {
      "channel": 2,
      "note": 68,
      "start": 1.9514,
      "duration": 0.0701,
      "velocity": 115,
      "chip": "ym2612"
    },
    {
      "channel": 2,
      "note": 28,
      "start": 2.0698,
      "duration": 0.1188,
      "velocity": 110,
      "chip": "ym2612"
    },
    {
      "channel": 3,
      "note": 47,
      "start": 2.0754,
      "duration": 0.1602,
      "velocity": 123,
      "chip": "ym2612"
    },
    {
      "channel": 5,
      "note": 47,
      "start": 2.0782,
      "duration": 0.0117,
      "velocity": 98,
      "chip": "ym2612"
    },
    {
      "channel": 0,
      "note": 54,
      "start": 2.2024,
      "duration": 0.1469,
      "velocity": 98,
      "chip": "ym2612"
    },
    {
      "channel": 3,
      "note": 47,
      "start": 2.3334,
      "duration": 0.07,
      "velocity": 123,
      "chip": "ym2612"
    },
    {
      "channel": 5,
      "note": 59,
      "start": 2.3362,
      "duration": 0.0836,
      "velocity": 98,
      "chip": "ym2612"
    },
    {
      "channel": 3,
      "note": 47,
      "start": 2.463,
      "duration": 0.0651,
      "velocity": 123,
      "chip": "ym2612"
    },
    {
      "channel": 3,
      "note": 49,
      "start": 2.5931,
      "duration": 0.1734,
      "velocity": 123,
      "chip": "ym2612"
    },
    {
      "channel": 2,
      "note": 68,
      "start": 2.5963,
      "duration": 0.075,
      "velocity": 115,
      "chip": "ym2612"
    },
    {
      "channel": 3,
      "note": 49,
      "start": 2.853,
      "duration": 0.0705,
      "velocity": 123,
      "chip": "ym2612"
    },
    {
      "channel": 0,
      "note": 59,
      "start": 2.8568,
      "duration": 0.045,
      "velocity": 98,
      "chip": "ym2612"
    },
    {
      "channel": 3,
      "note": 49,
      "start": 2.9829,
      "duration": 0.0651,
      "velocity": 123,
      "chip": "ym2612"
    },
    {
      "channel": 5,
      "note": 59,
      "start": 2.9857,
      "duration": 0.0571,
      "velocity": 98,
      "chip": "ym2612"
    },
    {
      "channel": 2,
      "note": 28,
      "start": 3.1099,
      "duration": 0.1338,
      "velocity": 110,
      "chip": "ym2612"
    },
    {
      "channel": 3,
      "note": 50,
      "start": 3.1146,
      "duration": 0.1717,
      "velocity": 123,
      "chip": "ym2612"
    },
    {
      "channel": 0,
      "note": 47,
      "start": 3.1174,
      "duration": 0.0718,
      "velocity": 98,
      "chip": "ym2612"
    },
    {
      "channel": 5,
      "note": 54,
      "start": 3.2431,
      "duration": 0.1315,
      "velocity": 98,
      "chip": "ym2612"
    },
    {
      "channel": 3,
      "note": 50,
      "start": 3.374,
      "duration": 0.0695,
      "velocity": 123,
      "chip": "ym2612"
    },
    {
      "channel": 0,
      "note": 59,
      "start": 3.3773,
      "duration": 0.0554,
      "velocity": 98,
      "chip": "ym2612"
    },
    {
      "channel": 3,
      "note": 50,
      "start": 3.5034,
      "duration": 0.0593,
      "velocity": 123,
      "chip": "ym2612"
    },
    {
      "channel": 3,
      "note": 52,
      "start": 3.6315,
      "duration": 0.1966,
      "velocity": 123,
      "chip": "ym2612"
    },
    {
      "channel": 2,
      "note": 68,
      "start": 3.6349,
      "duration": 0.0698,
      "velocity": 115,
      "chip": "ym2612"
    },
    {
      "channel": 2,
      "note": 68,
      "start": 3.7618,
      "duration": 0.0761,
      "velocity": 115,
      "chip": "ym2612"
    },
    {
      "channel": 3,
      "note": 50,
      "start": 3.8936,
      "duration": 0.108,
      "velocity": 123,
      "chip": "ym2612"
    },
    {
      "channel": 5,
      "note": 59,
      "start": 3.8963,
      "duration": 0.062,
      "velocity": 98,
      "chip": "ym2612"
    },
    {
      "channel": 2,
      "note": 68,
      "start": 3.8996,
      "duration": 0.0717,
      "velocity": 115,
      "chip": "ym2612"
    },
    {
      "channel": 3,
      "note": 49,
      "start": 4.0224,
      "duration": 0.1154,
      "velocity": 123,
      "chip": "ym2612"
    },
    {
      "channel": 0,
      "note": 59,
      "start": 4.0254,
      "duration": 0.0898,
      "velocity": 98,
      "chip": "ym2612"
    },
    {
      "channel": 2,
      "note": 68,
      "start": 4.0287,
      "duration": 0.0592,
      "velocity": 115,
      "chip": "ym2612"
    },
    {
      "channel": 2,
      "note": 28,
      "start": 4.15,
      "duration": 0.1213,
      "velocity": 110,
      "chip": "ym2612"
    },
    {
      "channel": 4,
      "note": 98,
      "start": 4.1548,
      "duration": 0.4968,
      "velocity": 85,
      "chip": "ym2612"
    },
    {
      "channel": 3,
      "note": 47,
      "start": 4.158,
      "duration": 0.1576,
      "velocity": 123,
      "chip": "ym2612"
    },
    {
      "channel": 5,
      "note": 47,
      "start": 4.1608,
      "duration": 0.09,
      "velocity": 98,
      "chip": "ym2612"
    },
    {
      "channel": 0,
      "note": 54,
      "start": 4.2831,
      "duration": 0.1086,
      "velocity": 98,
      "chip": "ym2612"
    },
    {
      "channel": 3,
      "note": 47,
      "start": 4.4132,
      "duration": 0.0704,
      "velocity": 123,
      "chip": "ym2612"
    },
    {
      "channel": 5,
      "note": 59,
      "start": 4.416,
      "duration": 0.0407,
      "velocity": 98,
      "chip": "ym2612"
    },
    {
      "channel": 3,
      "note": 47,
      "start": 4.5446,
      "duration": 0.0637,
      "velocity": 123,
      "chip": "ym2612"
    },
    {
      "channel": 4,
      "note": 97,
      "start": 4.673,
      "duration": 0.2439,
      "velocity": 85,
      "chip": "ym2612"
    },
    {
      "channel": 3,
      "note": 49,
      "start": 4.6763,
      "duration": 0.1703,
      "velocity": 123,
      "chip": "ym2612"
    },
    {
      "channel": 2,
      "note": 68,
      "start": 4.6796,
      "duration": 0.0584,
      "velocity": 115,
      "chip": "ym2612"
    },
    {
      "channel": 4,
      "note": 95,
      "start": 4.9331,
      "duration": 0.1031,
      "velocity": 85,
      "chip": "ym2612"
    },
    {
      "channel": 3,
      "note": 49,
      "start": 4.9362,
      "duration": 0.0683,
      "velocity": 123,
      "chip": "ym2612"
    },
    {
      "channel": 0,
      "note": 59,
      "start": 4.9401,
      "duration": 0.0364,
      "velocity": 98,
      "chip": "ym2612"
    },
    {
      "channel": 4,
      "note": 93,
      "start": 5.0637,
      "duration": 0.0754,
      "velocity": 85,
      "chip": "ym2612"
    },
    {
      "channel": 3,
      "note": 49,
      "start": 5.0668,
      "duration": 0.0614,
      "velocity": 123,
      "chip": "ym2612"
    },
    {
      "channel": 5,
      "note": 59,
      "start": 5.0697,
      "duration": 0.0478,
      "velocity": 98,
      "chip": "ym2612"
    },
    {
      "channel": 2,
      "note": 28,
      "start": 5.1915,
      "duration": 0.1362,
      "velocity": 110,
      "chip": "ym2612"
    },
    {
      "channel": 4,
      "note": 95,
      "start": 5.1957,
      "duration": 0.1251,
      "velocity": 85,
      "chip": "ym2612"
    },
    {
      "channel": 3,
      "note": 50,
      "start": 5.1988,
      "duration": 0.1678,
      "velocity": 123,
      "chip": "ym2612"
    },
    {
      "channel": 0,
      "note": 47,
      "start": 5.2016,
      "duration": 0.0458,
      "velocity": 98,
      "chip": "ym2612"
    },
    {
      "channel": 4,
      "note": 93,
      "start": 5.3243,
      "duration": 0.0748,
      "velocity": 85,
      "chip": "ym2612"
    },
    {
      "channel": 5,
      "note": 54,
      "start": 5.3272,
      "duration": 0.1154,
      "velocity": 98,
      "chip": "ym2612"
    },
    {
      "channel": 4,
      "note": 90,
      "start": 5.4542,
      "duration": 0.8225,
      "velocity": 85,
      "chip": "ym2612"
    },
    {
      "channel": 3,
      "note": 50,
      "start": 5.4578,
      "duration": 0.066,
      "velocity": 123,
      "chip": "ym2612"
    },
    {
      "channel": 0,
      "note": 59,
      "start": 5.4606,
      "duration": 0.0635,
      "velocity": 98,
      "chip": "ym2612"
    },
    {
      "channel": 3,
      "note": 50,
      "start": 5.5832,
      "duration": 0.0597,
      "velocity": 123,
      "chip": "ym2612"
    },
    {
      "channel": 3,
      "note": 52,
      "start": 5.7117,
      "duration": 0.1966,
      "velocity": 123,
      "chip": "ym2612"
    },
    {
      "channel": 2,
      "note": 68,
      "start": 5.7151,
      "duration": 0.0729,
      "velocity": 115,
      "chip": "ym2612"
    },
    {
      "channel": 3,
      "note": 50,
      "start": 5.9742,
      "duration": 0.1075,
      "velocity": 123,
      "chip": "ym2612"
    },
    {
      "channel": 5,
      "note": 59,
      "start": 5.9771,
      "duration": 0.0396,
      "velocity": 98,
      "chip": "ym2612"
    },
    {
      "channel": 3,
      "note": 49,
      "start": 6.1032,
      "duration": 0.1139,
      "velocity": 123,
      "chip": "ym2612"
    },
    {
      "channel": 0,
      "note": 59,
      "start": 6.1071,
      "duration": 0.0776,
      "velocity": 98,
      "chip": "ym2612"
    },
    {
      "channel": 2,
      "note": 68,
      "start": 6.1104,
      "duration": 0.0608,
      "velocity": 115,
      "chip": "ym2612"
    },
    {
      "channel": 2,
      "note": 28,
      "start": 6.2302,
      "duration": 0.1244,
      "velocity": 110,
      "chip": "ym2612"
    },
    {
      "channel": 3,
      "note": 47,
      "start": 6.2349,
      "duration": 0.161,
      "velocity": 123,
      "chip": "ym2612"
    },
    {
      "channel": 5,
      "note": 47,
      "start": 6.2387,
      "duration": 0.0111,
      "velocity": 98,
      "chip": "ym2612"
    },
    {
      "channel": 0,
      "note": 54,
      "start": 6.3628,
      "duration": 0.1468,
      "velocity": 98,
      "chip": "ym2612"
    },
    {
      "channel": 3,
      "note": 47,
      "start": 6.4946,
      "duration": 0.0692,
      "velocity": 123,
      "chip": "ym2612"
    },
    {
      "channel": 5,
      "note": 59,
      "start": 6.4974,
      "duration": 0.0828,
      "velocity": 98,
      "chip": "ym2612"
    },
    {
      "channel": 3,
      "note": 47,
      "start": 6.6249,
      "duration": 0.0643,
      "velocity": 123,
      "chip": "ym2612"
    },
    {
      "channel": 3,
      "note": 49,
      "start": 6.7517,
      "duration": 0.1751,
      "velocity": 123,
      "chip": "ym2612"
    },
    {
      "channel": 2,
      "note": 68,
      "start": 6.756,
      "duration": 0.0653,
      "velocity": 115,
      "chip": "ym2612"
    },
    {
      "channel": 3,
      "note": 49,
      "start": 7.0139,
      "duration": 0.07,
      "velocity": 123,
      "chip": "ym2612"
    },
    {
      "channel": 0,
      "note": 59,
      "start": 7.0166,
      "duration": 0.0455,
      "velocity": 98,
      "chip": "ym2612"
    },
    {
      "channel": 3,
      "note": 49,
      "start": 7.1446,
      "duration": 0.0639,
      "velocity": 123,
      "chip": "ym2612"
    },
    {
      "channel": 5,
      "note": 59,
      "start": 7.1474,
      "duration": 0.0557,
      "velocity": 98,
      "chip": "ym2612"
    },
    {
      "channel": 2,
      "note": 28,
      "start": 7.2712,
      "duration": 0.1177,
      "velocity": 110,
      "chip": "ym2612"
    },
    {
      "channel": 3,
      "note": 50,
      "start": 7.2755,
      "duration": 0.1714,
      "velocity": 123,
      "chip": "ym2612"
    },
    {
      "channel": 0,
      "note": 47,
      "start": 7.2783,
      "duration": 0.071,
      "velocity": 98,
      "chip": "ym2612"
    },
    {
      "channel": 5,
      "note": 54,
      "start": 7.4034,
      "duration": 0.1305,
      "velocity": 98,
      "chip": "ym2612"
    },
    {
      "channel": 3,
      "note": 50,
      "start": 7.5334,
      "duration": 0.0715,
      "velocity": 123,
      "chip": "ym2612"
    },
    {
      "channel": 0,
      "note": 59,
      "start": 7.5366,
      "duration": 0.0569,
      "velocity": 98,
      "chip": "ym2612"
    },
    {
      "channel": 3,
      "note": 50,
      "start": 7.6635,
      "duration": 0.0596,
      "velocity": 123,
      "chip": "ym2612"
    },
    {
      "channel": 3,
      "note": 52,
      "start": 7.7936,
      "duration": 0.1955,
      "velocity": 123,
      "chip": "ym2612"
    },
    {
      "channel": 2,
      "note": 68,
      "start": 7.7969,
      "duration": 0.0743,
      "velocity": 115,
      "chip": "ym2612"
    },
    {
      "channel": 3,
      "note": 50,
      "start": 8.0535,
      "duration": 0.1085,
      "velocity": 123,
      "chip": "ym2612"
    },
    {
      "channel": 5,
      "note": 59,
      "start": 8.0573,
      "duration": 0.0613,
      "velocity": 98,
      "chip": "ym2612"
    },
    {
      "channel": 3,
      "note": 49,
      "start": 8.1839,
      "duration": 0.1138,
      "velocity": 123,
      "chip": "ym2612"
    },
    {
      "channel": 0,
      "note": 59,
      "start": 8.1868,
      "duration": 0.0889,
      "velocity": 98,
      "chip": "ym2612"
    },
    {
      "channel": 2,
      "note": 28,
      "start": 8.3105,
      "duration": 0.1275,
      "velocity": 110,
      "chip": "ym2612"
    },
    {
      "channel": 4,
      "note": 88,
      "start": 8.3146,
      "duration": 0.128,
      "velocity": 85,
      "chip": "ym2612"
    },
    {
      "channel": 3,
      "note": 47,
      "start": 8.3178,
      "duration": 0.1583,
      "velocity": 123,
      "chip": "ym2612"
    },
    {
      "channel": 5,
      "note": 47,
      "start": 8.3217,
      "duration": 0.0733,
      "velocity": 98,
      "chip": "ym2612"
    },
    {
      "channel": 4,
      "note": 90,
      "start": 8.4445,
      "duration": 0.1285,
      "velocity": 85,
      "chip": "ym2612"
    },
    {
      "channel": 0,
      "note": 54,
      "start": 8.4473,
      "duration": 0.1359,
      "velocity": 98,
      "chip": "ym2612"
    },
    {
      "channel": 4,
      "note": 88,
      "start": 8.575,
      "duration": 0.1266,
      "velocity": 85,
      "chip": "ym2612"
    },
    {
      "channel": 3,
      "note": 47,
      "start": 8.5781,
      "duration": 0.066,
      "velocity": 123,
      "chip": "ym2612"
    },
    {
      "channel": 5,
      "note": 59,
      "start": 8.5809,
      "duration": 0.0686,
      "velocity": 98,
      "chip": "ym2612"
    },
    {
      "channel": 4,
      "note": 86,
      "start": 8.7035,
      "duration": 0.1266,
      "velocity": 85,
      "chip": "ym2612"
    },
    {
      "channel": 3,
      "note": 47,
      "start": 8.7076,
      "duration": 0.0611,
      "velocity": 123,
      "chip": "ym2612"
    },
    {
      "channel": 4,
      "note": 88,
      "start": 8.832,
      "duration": 0.2607,
      "velocity": 85,
      "chip": "ym2612"
    },
    {
      "channel": 3,
      "note": 49,
      "start": 8.8352,
      "duration": 0.1719,
      "velocity": 123,
      "chip": "ym2612"
    },
    {
      "channel": 2,
      "note": 68,
      "start": 8.8395,
      "duration": 0.0656,
      "velocity": 115,
      "chip": "ym2612"
    },
    {
      "channel": 4,
      "note": 86,
      "start": 9.0946,
      "duration": 0.127,
      "velocity": 85,
      "chip": "ym2612"
    },
    {
      "channel": 3,
      "note": 49,
      "start": 9.0978,
      "duration": 0.0663,
      "velocity": 123,
      "chip": "ym2612"
    },
    {
      "channel": 0,
      "note": 59,
      "start": 9.1006,
      "duration": 0.0472,
      "velocity": 98,
      "chip": "ym2612"
    },
    {
      "channel": 4,
      "note": 85,
      "start": 9.2249,
      "duration": 0.1022,
      "velocity": 85,
      "chip": "ym2612"
    },
    {
      "channel": 3,
      "note": 49,
      "start": 9.228,
      "duration": 0.0612,
      "velocity": 123,
      "chip": "ym2612"
    },
    {
      "channel": 5,
      "note": 59,
      "start": 9.2308,
      "duration": 0.0589,
      "velocity": 98,
      "chip": "ym2612"
    },
    {
      "channel": 2,
      "note": 28,
      "start": 9.3505,
      "duration": 0.1209,
      "velocity": 110,
      "chip": "ym2612"
    },
    {
      "channel": 4,
      "note": 86,
      "start": 9.3561,
      "duration": 0.1254,
      "velocity": 85,
      "chip": "ym2612"
    },
    {
      "channel": 3,
      "note": 50,
      "start": 9.3593,
      "duration": 0.1677,
      "velocity": 123,
      "chip": "ym2612"
    },
    {
      "channel": 0,
      "note": 47,
      "start": 9.3621,
      "duration": 0.0998,
      "velocity": 98,
      "chip": "ym2612"
    },
    {
      "channel": 4,
      "note": 85,
      "start": 9.4834,
      "duration": 0.1283,
      "velocity": 85,
      "chip": "ym2612"
    },
    {
      "channel": 5,
      "note": 54,
      "start": 9.4863,
      "duration": 0.1354,
      "velocity": 98,
      "chip": "ym2612"
    },
    {
      "channel": 4,
      "note": 83,
      "start": 9.6137,
      "duration": 0.7794,
      "velocity": 85,
      "chip": "ym2612"
    },
    {
      "channel": 3,
      "note": 50,
      "start": 9.6168,
      "duration": 0.0674,
      "velocity": 123,
      "chip": "ym2612"
    },
    {
      "channel": 0,
      "note": 59,
      "start": 9.6196,
      "duration": 0.0755,
      "velocity": 98,
      "chip": "ym2612"
    },
    {
      "channel": 3,
      "note": 50,
      "start": 9.7451,
      "duration": 0.0583,
      "velocity": 123,
      "chip": "ym2612"
    },
    {
      "channel": 3,
      "note": 52,
      "start": 9.873,
      "duration": 0.1957,
      "velocity": 123,
      "chip": "ym2612"
    },
    {
      "channel": 2,
      "note": 68,
      "start": 9.8764,
      "duration": 0.0615,
      "velocity": 115,
      "chip": "ym2612"
    },
    {
      "channel": 3,
      "note": 50,
      "start": 10.1341,
      "duration": 0.108,
      "velocity": 123,
      "chip": "ym2612"
    },
    {
      "channel": 5,
      "note": 59,
      "start": 10.138,
      "duration": 0.0513,
      "velocity": 98,
      "chip": "ym2612"
    },
    {
      "channel": 3,
      "note": 49,
      "start": 10.2637,
      "duration": 0.1139,
      "velocity": 123,
      "chip": "ym2612"
    },
    {
      "channel": 0,
      "note": 59,
      "start": 10.2665,
      "duration": 0.0677,
      "velocity": 98,
      "chip": "ym2612"
    },
    {
      "channel": 2,
      "note": 68,
      "start": 10.2698,
      "duration": 0.0683,
      "velocity": 115,
      "chip": "ym2612"
    },
    {
      "channel": 2,
      "note": 28,
      "start": 10.3916,
      "duration": 0.1337,
      "velocity": 110,
      "chip": "ym2612"
    },
    {
      "channel": 3,
      "note": 47,
      "start": 10.3962,
      "duration": 0.1601,
      "velocity": 123,
      "chip": "ym2612"
    },
    {
      "channel": 5,
      "note": 47,
      "start": 10.399,
      "duration": 0.0978,
      "velocity": 98,
      "chip": "ym2612"
    },
    {
      "channel": 0,
      "note": 54,
      "start": 10.5247,
      "duration": 0.1303,
      "velocity": 98,
      "chip": "ym2612"
    },
    {
      "channel": 3,
      "note": 47,
      "start": 10.6547,
      "duration": 0.0696,
      "velocity": 123,
      "chip": "ym2612"
    },
    {
      "channel": 5,
      "note": 59,
      "start": 10.6578,
      "duration": 0.067,
      "velocity": 98,
      "chip": "ym2612"
    },
    {
      "channel": 3,
      "note": 47,
      "start": 10.7837,
      "duration": 0.0651,
      "velocity": 123,
      "chip": "ym2612"
    },
    {
      "channel": 3,
      "note": 49,
      "start": 10.9127,
      "duration": 0.1754,
      "velocity": 123,
      "chip": "ym2612"
    },
    {
      "channel": 2,
      "note": 68,
      "start": 10.916,
      "duration": 0.072,
      "velocity": 115,
      "chip": "ym2612"
    },
    {
      "channel": 3,
      "note": 49,
      "start": 11.1747,
      "duration": 0.0695,
      "velocity": 123,
      "chip": "ym2612"
    },
    {
      "channel": 0,
      "note": 59,
      "start": 11.1775,
      "duration": 0.0396,
      "velocity": 98,
      "chip": "ym2612"
    },
    {
      "channel": 3,
      "note": 49,
      "start": 11.3052,
      "duration": 0.0636,
      "velocity": 123,
      "chip": "ym2612"
    },
    {
      "channel": 5,
      "note": 59,
      "start": 11.3081,
      "duration": 0.0771,
      "velocity": 98,
      "chip": "ym2612"
    },
    {
      "channel": 2,
      "note": 28,
      "start": 11.4307,
      "duration": 0.124,
      "velocity": 110,
      "chip": "ym2612"
    },
    {
      "channel": 3,
      "note": 50,
      "start": 11.4349,
      "duration": 0.1724,
      "velocity": 123,
      "chip": "ym2612"
    },
    {
      "channel": 0,
      "note": 47,
      "start": 11.4387,
      "duration": 0.1093,
      "velocity": 98,
      "chip": "ym2612"
    },
    {
      "channel": 5,
      "note": 54,
      "start": 11.5633,
      "duration": 0.0656,
      "velocity": 98,
      "chip": "ym2612"
    },
    {
      "channel": 3,
      "note": 50,
      "start": 11.6951,
      "duration": 0.0693,
      "velocity": 123,
      "chip": "ym2612"
    },
    {
      "channel": 0,
      "note": 59,
      "start": 11.6979,
      "duration": 0.0668,
      "velocity": 98,
      "chip": "ym2612"
    },
    {
      "channel": 3,
      "note": 50,
      "start": 11.8249,
      "duration": 0.0587,
      "velocity": 123,
      "chip": "ym2612"
    },
    {
      "channel": 3,
      "note": 52,
      "start": 11.9523,
      "duration": 0.1967,
      "velocity": 123,
      "chip": "ym2612"
    },
    {
      "channel": 2,
      "note": 68,
      "start": 11.9566,
      "duration": 0.0646,
      "velocity": 115,
      "chip": "ym2612"
    },
    {
      "channel": 3,
      "note": 50,
      "start": 12.2139,
      "duration": 0.1087,
      "velocity": 123,
      "chip": "ym2612"
    },
    {
      "channel": 5,
      "note": 59,
      "start": 12.2166,
      "duration": 0.0516,
      "velocity": 98,
      "chip": "ym2612"
    },
    {
      "channel": 3,
      "note": 49,
      "start": 12.3447,
      "duration": 0.1137,
      "velocity": 123,
      "chip": "ym2612"
    },
    {
      "channel": 0,
      "note": 59,
      "start": 12.3475,
      "duration": 0.0832,
      "velocity": 98,
      "chip": "ym2612"
    },
    {
      "channel": 2,
      "note": 28,
      "start": 12.4717,
      "duration": 0.1162,
      "velocity": 110,
      "chip": "ym2612"
    },
    {
      "channel": 4,
      "note": 88,
      "start": 12.4764,
      "duration": 0.5137,
      "velocity": 85,
      "chip": "ym2612"
    },
    {
      "channel": 3,
      "note": 52,
      "start": 12.4796,
      "duration": 0.1788,
      "velocity": 123,
      "chip": "ym2612"
    },
    {
      "channel": 5,
      "note": 52,
      "start": 12.4824,
      "duration": 0.5723,
      "velocity": 98,
      "chip": "ym2612"
    },
    {
      "channel": 3,
      "note": 52,
      "start": 12.7339,
      "duration": 0.0759,
      "velocity": 123,
      "chip": "ym2612"
    },
    {
      "channel": 3,
      "note": 52,
      "start": 12.8643,
      "duration": 0.0647,
      "velocity": 123,
      "chip": "ym2612"
    },
    {
      "channel": 4,
      "note": 83,
      "start": 12.9933,
      "duration": 0.1281,
      "velocity": 85,
      "chip": "ym2612"
    },
    {
      "channel": 3,
      "note": 52,
      "start": 12.9964,
      "duration": 0.1602,
      "velocity": 123,
      "chip": "ym2612"
    },
    {
      "channel": 0,
      "note": 55,
      "start": 12.9992,
      "duration": 0.5247,
      "velocity": 98,
      "chip": "ym2612"
    },
    {
      "channel": 2,
      "note": 68,
      "start": 13.0025,
      "duration": 0.0688,
      "velocity": 115,
      "chip": "ym2612"
    },
    {
      "channel": 4,
      "note": 88,
      "start": 13.1233,
      "duration": 0.1293,
      "velocity": 85,
      "chip": "ym2612"
    },
    {
      "channel": 4,
      "note": 90,
      "start": 13.2553,
      "duration": 0.1268,
      "velocity": 85,
      "chip": "ym2612"
    },
    {
      "channel": 3,
      "note": 52,
      "start": 13.2586,
      "duration": 0.0551,
      "velocity": 123,
      "chip": "ym2612"
    },
    {
      "channel": 4,
      "note": 91,
      "start": 13.3839,
      "duration": 0.1293,
      "velocity": 85,
      "chip": "ym2612"
    },
    {
      "channel": 3,
      "note": 52,
      "start": 13.3881,
      "duration": 0.061,
      "velocity": 123,
      "chip": "ym2612"
    },
    {
      "channel": 2,
      "note": 28,
      "start": 13.5109,
      "duration": 0.127,
      "velocity": 110,
      "chip": "ym2612"
    },
    {
      "channel": 4,
      "note": 90,
      "start": 13.5151,
      "duration": 0.9742,
      "velocity": 85,
      "chip": "ym2612"
    },
    {
      "channel": 3,
      "note": 54,
      "start": 13.5183,
      "duration": 0.1638,
      "velocity": 123,
      "chip": "ym2612"
    },
    {
      "channel": 5,
      "note": 54,
      "start": 13.5221,
      "duration": 0.5393,
      "velocity": 98,
      "chip": "ym2612"
    },
    {
      "channel": 3,
      "note": 54,
      "start": 13.7751,
      "duration": 0.0532,
      "velocity": 123,
      "chip": "ym2612"
    },
    {
      "channel": 3,
      "note": 54,
      "start": 13.905,
      "duration": 0.0534,
      "velocity": 123,
      "chip": "ym2612"
    },
    {
      "channel": 3,
      "note": 54,
      "start": 14.0329,
      "duration": 0.1422,
      "velocity": 123,
      "chip": "ym2612"
    },
    {
      "channel": 0,
      "note": 57,
      "start": 14.0357,
      "duration": 0.5564,
      "velocity": 98,
      "chip": "ym2612"
    },
    {
      "channel": 2,
      "note": 68,
      "start": 14.0399,
      "duration": 0.0647,
      "velocity": 115,
      "chip": "ym2612"
    },
    {
      "channel": 3,
      "note": 54,
      "start": 14.2947,
      "duration": 0.0536,
      "velocity": 123,
      "chip": "ym2612"
    },
    {
      "channel": 3,
      "note": 54,
      "start": 14.4255,
      "duration": 0.0642,
      "velocity": 123,
      "chip": "ym2612"
    },
    {
      "channel": 2,
      "note": 68,
      "start": 14.4288,
      "duration": 0.0592,
      "velocity": 115,
      "chip": "ym2612"
    },
    {
      "channel": 2,
      "note": 28,
      "start": 14.5509,
      "duration": 0.1204,
      "velocity": 110,
      "chip": "ym2612"
    },
    {
      "channel": 4,
      "note": 91,
      "start": 14.5561,
      "duration": 0.125,
      "velocity": 85,
      "chip": "ym2612"
    },
    {
      "channel": 3,
      "note": 55,
      "start": 14.5593,
      "duration": 0.1412,
      "velocity": 123,
      "chip": "ym2612"
    },
    {
      "channel": 5,
      "note": 55,
      "start": 14.5621,
      "duration": 0.5339,
      "velocity": 98,
      "chip": "ym2612"
    },
    {
      "channel": 4,
      "note": 86,
      "start": 14.6841,
      "duration": 0.1285,
      "velocity": 85,
      "chip": "ym2612"
    },
    {
      "channel": 4,
      "note": 91,
      "start": 14.8145,
      "duration": 0.1284,
      "velocity": 85,
      "chip": "ym2612"
    },
    {
      "channel": 3,
      "note": 55,
      "start": 14.8177,
      "duration": 0.0615,
      "velocity": 123,
      "chip": "ym2612"
    },
    {
      "channel": 4,
      "note": 93,
      "start": 14.9447,
      "duration": 0.0808,
      "velocity": 85,
      "chip": "ym2612"
    },
    {
      "channel": 3,
      "note": 55,
      "start": 14.9478,
      "duration": 0.0615,
      "velocity": 123,
      "chip": "ym2612"
    },
    {
      "channel": 4,
      "note": 95,
      "start": 15.0735,
      "duration": 0.2012,
      "velocity": 85,
      "chip": "ym2612"
    },
    {
      "channel": 3,
      "note": 55,
      "start": 15.0768,
      "duration": 0.1492,
      "velocity": 123,
      "chip": "ym2612"
    },
    {
      "channel": 0,
      "note": 52,
      "start": 15.0796,
      "duration": 0.5429,
      "velocity": 98,
      "chip": "ym2612"
    },
    {
      "channel": 2,
      "note": 68,
      "start": 15.0828,
      "duration": 0.0551,
      "velocity": 115,
      "chip": "ym2612"
    },
    {
      "channel": 4,
      "note": 93,
      "start": 15.3341,
      "duration": 0.1283,
      "velocity": 85,
      "chip": "ym2612"
    },
    {
      "channel": 3,
      "note": 55,
      "start": 15.3382,
      "duration": 0.0676,
      "velocity": 123,
      "chip": "ym2612"
    },
    {
      "channel": 4,
      "note": 91,
      "start": 15.4642,
      "duration": 0.0543,
      "velocity": 85,
      "chip": "ym2612"
    },
    {
      "channel": 3,
      "note": 55,
      "start": 15.4673,
      "duration": 0.062,
      "velocity": 123,
      "chip": "ym2612"
    },
    {
      "channel": 2,
      "note": 28,
      "start": 15.5916,
      "duration": 0.1308,
      "velocity": 110,
      "chip": "ym2612"
    },
    {
      "channel": 4,
      "note": 97,
      "start": 15.5962,
      "duration": 0.2561,
      "velocity": 85,
      "chip": "ym2612"
    },
    {
      "channel": 3,
      "note": 54,
      "start": 15.5993,
      "duration": 0.1629,
      "velocity": 123,
      "chip": "ym2612"
    },
    {
      "channel": 5,
      "note": 54,
      "start": 15.6022,
      "duration": 0.491,
      "velocity": 98,
      "chip": "ym2612"
    },
    {
      "channel": 4,
      "note": 98,
      "start": 15.8551,
      "duration": 0.2557,
      "velocity": 85,
      "chip": "ym2612"
    },
    {
      "channel": 3,
      "note": 54,
      "start": 15.8584,
      "duration": 0.0826,
      "velocity": 123,
      "chip": "ym2612"
    },
    {
      "channel": 3,
      "note": 54,
      "start": 15.9846,
      "duration": 0.0971,
      "velocity": 123,
      "chip": "ym2612"
    },
    {
      "channel": 4,
      "note": 95,
      "start": 16.1127,
      "duration": 0.2611,
      "velocity": 85,
      "chip": "ym2612"
    },
    {
      "channel": 3,
      "note": 52,
      "start": 16.1158,
      "duration": 0.2152,
      "velocity": 123,
      "chip": "ym2612"
    },
    {
      "channel": 0,
      "note": 50,
      "start": 16.1186,
      "duration": 0.4778,
      "velocity": 98,
      "chip": "ym2612"
    },
    {
      "channel": 2,
      "note": 68,
      "start": 16.1229,
      "duration": 0.065,
      "velocity": 115,
      "chip": "ym2612"
    },
    {
      "channel": 4,
      "note": 94,
      "start": 16.3758,
      "duration": 0.2368,
      "velocity": 85,
      "chip": "ym2612"
    },
    {
      "channel": 3,
      "note": 50,
      "start": 16.3789,
      "duration": 0.0712,
      "velocity": 123,
      "chip": "ym2612"
    },
    {
      "channel": 3,
      "note": 49,
      "start": 16.5053,
      "duration": 0.0749,
      "velocity": 123,
      "chip": "ym2612"
    },
    {
      "channel": 2,
      "note": 28,
      "start": 16.6313,
      "duration": 0.1234,
      "velocity": 110,
      "chip": "ym2612"
    },
    {
      "channel": 4,
      "note": 95,
      "start": 16.6354,
      "duration": 1.0124,
      "velocity": 85,
      "chip": "ym2612"
    },
    {
      "channel": 3,
      "note": 47,
      "start": 16.6396,
      "duration": 0.1573,
      "velocity": 123,
      "chip": "ym2612"
    },
    {
      "channel": 5,
      "note": 47,
      "start": 16.6425,
      "duration": 0.1274,
      "velocity": 98,
      "chip": "ym2612"
    },
    {
      "channel": 0,
      "note": 50,
      "start": 16.7642,
      "duration": 0.1355,
      "velocity": 98,
      "chip": "ym2612"
    },
    {
      "channel": 3,
      "note": 47,
      "start": 16.8945,
      "duration": 0.0704,
      "velocity": 123,
      "chip": "ym2612"
    },
    {
      "channel": 5,
      "note": 59,
      "start": 16.8973,
      "duration": 0.0513,
      "velocity": 98,
      "chip": "ym2612"
    },
    {
      "channel": 3,
      "note": 47,
      "start": 17.0253,
      "duration": 0.0642,
      "velocity": 123,
      "chip": "ym2612"
    },
    {
      "channel": 3,
      "note": 49,
      "start": 17.1532,
      "duration": 0.1745,
      "velocity": 123,
      "chip": "ym2612"
    },
    {
      "channel": 2,
      "note": 68,
      "start": 17.1575,
      "duration": 0.0637,
      "velocity": 115,
      "chip": "ym2612"
    },
    {
      "channel": 3,
      "note": 49,
      "start": 17.4144,
      "duration": 0.0705,
      "velocity": 123,
      "chip": "ym2612"
    },
    {
      "channel": 0,
      "note": 59,
      "start": 17.4172,
      "duration": 0.0459,
      "velocity": 98,
      "chip": "ym2612"
    },
    {
      "channel": 3,
      "note": 49,
      "start": 17.5451,
      "duration": 0.0643,
      "velocity": 123,
      "chip": "ym2612"
    },
    {
      "channel": 5,
      "note": 59,
      "start": 17.548,
      "duration": 0.0733,
      "velocity": 98,
      "chip": "ym2612"
    },
    {
      "channel": 2,
      "note": 28,
      "start": 17.6721,
      "duration": 0.1159,
      "velocity": 110,
      "chip": "ym2612"
    },
    {
      "channel": 3,
      "note": 50,
      "start": 17.6764,
      "duration": 0.1714,
      "velocity": 123,
      "chip": "ym2612"
    },
    {
      "channel": 0,
      "note": 47,
      "start": 17.6792,
      "duration": 0.0934,
      "velocity": 98,
      "chip": "ym2612"
    },
    {
      "channel": 5,
      "note": 50,
      "start": 17.8048,
      "duration": 0.1028,
      "velocity": 98,
      "chip": "ym2612"
    },
    {
      "channel": 3,
      "note": 50,
      "start": 17.9349,
      "duration": 0.071,
      "velocity": 123,
      "chip": "ym2612"
    },
    {
      "channel": 0,
      "note": 59,
      "start": 17.9387,
      "duration": 0.0504,
      "velocity": 98,
      "chip": "ym2612"
    },
    {
      "channel": 3,
      "note": 50,
      "start": 18.0644,
      "duration": 0.0597,
      "velocity": 123,
      "chip": "ym2612"
    },
    {
      "channel": 3,
      "note": 52,
      "start": 18.1931,
      "duration": 0.1965,
      "velocity": 123,
      "chip": "ym2612"
    },
    {
      "channel": 2,
      "note": 68,
      "start": 18.1963,
      "duration": 0.0751,
      "velocity": 115,
      "chip": "ym2612"
    },
    {
      "channel": 3,
      "note": 50,
      "start": 18.4554,
      "duration": 0.1074,
      "velocity": 123,
      "chip": "ym2612"
    },
    {
      "channel": 5,
      "note": 59,
      "start": 18.4583,
      "duration": 0.0452,
      "velocity": 98,
      "chip": "ym2612"
    },
    {
      "channel": 3,
      "note": 49,
      "start": 18.5844,
      "duration": 0.1139,
      "velocity": 123,
      "chip": "ym2612"
    },
    {
      "channel": 0,
      "note": 59,
      "start": 18.5882,
      "duration": 0.0451,
      "velocity": 98,
      "chip": "ym2612"
    },
    {
      "channel": 2,
      "note": 68,
      "start": 18.5916,
      "duration": 0.0631,
      "velocity": 115,
      "chip": "ym2612"
    },
    {
      "channel": 2,
      "note": 28,
      "start": 18.7114,
      "duration": 0.1265,
      "velocity": 110,
      "chip": "ym2612"
    },
    {
      "channel": 3,
      "note": 47,
      "start": 18.7161,
      "duration": 0.1611,
      "velocity": 123,
      "chip": "ym2612"
    },
    {
      "channel": 5,
      "note": 47,
      "start": 18.7189,
      "duration": 0.142,
      "velocity": 98,
      "chip": "ym2612"
    },
    {
      "channel": 0,
      "note": 54,
      "start": 18.8441,
      "duration": 0.0979,
      "velocity": 98,
      "chip": "ym2612"
    },
    {
      "channel": 3,
      "note": 47,
      "start": 18.9755,
      "duration": 0.0695,
      "velocity": 123,
      "chip": "ym2612"
    },
    {
      "channel": 5,
      "note": 59,
      "start": 18.9783,
      "duration": 0.0671,
      "velocity": 98,
      "chip": "ym2612"
    },
    {
      "channel": 3,
      "note": 47,
      "start": 19.106,
      "duration": 0.0637,
      "velocity": 123,
      "chip": "ym2612"
    },
    {
      "channel": 3,
      "note": 49,
      "start": 19.2329,
      "duration": 0.1752,
      "velocity": 123,
      "chip": "ym2612"
    },
    {
      "channel": 2,
      "note": 68,
      "start": 19.2362,
      "duration": 0.0684,
      "velocity": 115,
      "chip": "ym2612"
    },
    {
      "channel": 3,
      "note": 49,
      "start": 19.4951,
      "duration": 0.07,
      "velocity": 123,
      "chip": "ym2612"
    },
    {
      "channel": 0,
      "note": 59,
      "start": 19.4979,
      "duration": 0.0617,
      "velocity": 98,
      "chip": "ym2612"
    },
    {
      "channel": 3,
      "note": 49,
      "start": 19.6256,
      "duration": 0.0642,
      "velocity": 123,
      "chip": "ym2612"
    },
    {
      "channel": 5,
      "note": 59,
      "start": 19.6284,
      "duration": 0.056,
      "velocity": 98,
      "chip": "ym2612"
    },
    {
      "channel": 2,
      "note": 28,
      "start": 19.7514,
      "duration": 0.1199,
      "velocity": 110,
      "chip": "ym2612"
    },
    {
      "channel": 3,
      "note": 50,
      "start": 19.7566,
      "duration": 0.1715,
      "velocity": 123,
      "chip": "ym2612"
    },
    {
      "channel": 0,
      "note": 47,
      "start": 19.7595,
      "duration": 0.136,
      "velocity": 98,
      "chip": "ym2612"
    },
    {
      "channel": 5,
      "note": 54,
      "start": 19.8846,
      "duration": 0.0714,
      "velocity": 98,
      "chip": "ym2612"
    },
    {
      "channel": 3,
      "note": 50,
      "start": 20.0146,
      "duration": 0.0705,
      "velocity": 123,
      "chip": "ym2612"
    },
    {
      "channel": 0,
      "note": 59,
      "start": 20.0174,
      "duration": 0.0515,
      "velocity": 98,
      "chip": "ym2612"
    },
    {
      "channel": 3,
      "note": 50,
      "start": 20.1446,
      "duration": 0.0612,
      "velocity": 123,
      "chip": "ym2612"
    },
    {
      "channel": 3,
      "note": 52,
      "start": 20.2745,
      "duration": 0.1952,
      "velocity": 123,
      "chip": "ym2612"
    },
    {
      "channel": 2,
      "note": 68,
      "start": 20.2778,
      "duration": 0.06,
      "velocity": 115,
      "chip": "ym2612"
    },
    {
      "channel": 2,
      "note": 68,
      "start": 20.4033,
      "duration": 0.068,
      "velocity": 115,
      "chip": "ym2612"
    },
    {
      "channel": 3,
      "note": 50,
      "start": 20.5331,
      "duration": 0.11,
      "velocity": 123,
      "chip": "ym2612"
    },
    {
      "channel": 5,
      "note": 59,
      "start": 20.5359,
      "duration": 0.0477,
      "velocity": 98,
      "chip": "ym2612"
    },
    {
      "channel": 2,
      "note": 68,
      "start": 20.5402,
      "duration": 0.0644,
      "velocity": 115,
      "chip": "ym2612"
    },
    {
      "channel": 3,
      "note": 49,
      "start": 20.6635,
      "duration": 0.1155,
      "velocity": 123,
      "chip": "ym2612"
    },
    {
      "channel": 0,
      "note": 59,
      "start": 20.6663,
      "duration": 0.0471,
      "velocity": 98,
      "chip": "ym2612"
    },
    {
      "channel": 2,
      "note": 68,
      "start": 20.6696,
      "duration": 0.0685,
      "velocity": 115,
      "chip": "ym2612"
    },
    {
      "channel": 2,
      "note": 28,
      "start": 20.7917,
      "duration": 0.134,
      "velocity": 110,
      "chip": "ym2612"
    },
    {
      "channel": 4,
      "note": 98,
      "start": 20.7958,
      "duration": 0.4974,
      "velocity": 85,
      "chip": "ym2612"
    },
    {
      "channel": 3,
      "note": 47,
      "start": 20.799,
      "duration": 0.1583,
      "velocity": 123,
      "chip": "ym2612"
    },
    {
      "channel": 5,
      "note": 47,
      "start": 20.8018,
      "duration": 0.0906,
      "velocity": 98,
      "chip": "ym2612"
    },
    {
      "channel": 0,
      "note": 54,
      "start": 20.9252,
      "duration": 0.1079,
      "velocity": 98,
      "chip": "ym2612"
    },
    {
      "channel": 3,
      "note": 47,
      "start": 21.0561,
      "duration": 0.0692,
      "velocity": 123,
      "chip": "ym2612"
    },
    {
      "channel": 5,
      "note": 59,
      "start": 21.059,
      "duration": 0.0392,
      "velocity": 98,
      "chip": "ym2612"
    },
    {
      "channel": 3,
      "note": 47,
      "start": 21.1847,
      "duration": 0.0651,
      "velocity": 123,
      "chip": "ym2612"
    },
    {
      "channel": 4,
      "note": 97,
      "start": 21.3132,
      "duration": 0.2454,
      "velocity": 85,
      "chip": "ym2612"
    },
    {
      "channel": 3,
      "note": 49,
      "start": 21.3163,
      "duration": 0.1729,
      "velocity": 123,
      "chip": "ym2612"
    },
    {
      "channel": 2,
      "note": 68,
      "start": 21.3196,
      "duration": 0.0683,
      "velocity": 115,
      "chip": "ym2612"
    },
    {
      "channel": 4,
      "note": 95,
      "start": 21.5757,
      "duration": 0.1022,
      "velocity": 85,
      "chip": "ym2612"
    },
    {
      "channel": 3,
      "note": 49,
      "start": 21.5788,
      "duration": 0.0666,
      "velocity": 123,
      "chip": "ym2612"
    },
    {
      "channel": 0,
      "note": 59,
      "start": 21.5816,
      "duration": 0.0366,
      "velocity": 98,
      "chip": "ym2612"
    },
    {
      "channel": 4,
      "note": 93,
      "start": 21.7058,
      "duration": 0.0859,
      "velocity": 85,
      "chip": "ym2612"
    },
    {
      "channel": 3,
      "note": 49,
      "start": 21.709,
      "duration": 0.0609,
      "velocity": 123,
      "chip": "ym2612"
    },
    {
      "channel": 5,
      "note": 59,
      "start": 21.7118,
      "duration": 0.0473,
      "velocity": 98,
      "chip": "ym2612"
    },
    {
      "channel": 2,
      "note": 28,
      "start": 21.8316,
      "duration": 0.1235,
      "velocity": 110,
      "chip": "ym2612"
    },
    {
      "channel": 4,
      "note": 95,
      "start": 21.8362,
      "duration": 0.1255,
      "velocity": 85,
      "chip": "ym2612"
    },
    {
      "channel": 3,
      "note": 50,
      "start": 21.8405,
      "duration": 0.1679,
      "velocity": 123,
      "chip": "ym2612"
    },
    {
      "channel": 0,
      "note": 47,
      "start": 21.8433,
      "duration": 0.0459,
      "velocity": 98,
      "chip": "ym2612"
    },
    {
      "channel": 4,
      "note": 93,
      "start": 21.9649,
      "duration": 0.1282,
      "velocity": 85,
      "chip": "ym2612"
    },
    {
      "channel": 5,
      "note": 54,
      "start": 21.9677,
      "duration": 0.1163,
      "velocity": 98,
      "chip": "ym2612"
    },
    {
      "channel": 4,
      "note": 90,
      "start": 22.0949,
      "duration": 0.8234,
      "velocity": 85,
      "chip": "ym2612"
    },
    {
      "channel": 3,
      "note": 50,
      "start": 22.098,
      "duration": 0.0673,
      "velocity": 123,
      "chip": "ym2612"
    },
    {
      "channel": 0,
      "note": 59,
      "start": 22.1008,
      "duration": 0.0649,
      "velocity": 98,
      "chip": "ym2612"
    },
    {
      "channel": 3,
      "note": 50,
      "start": 22.2263,
      "duration": 0.0581,
      "velocity": 123,
      "chip": "ym2612"
    },
    {
      "channel": 3,
      "note": 52,
      "start": 22.3532,
      "duration": 0.1967,
      "velocity": 123,
      "chip": "ym2612"
    },
    {
      "channel": 2,
      "note": 68,
      "start": 22.3576,
      "duration": 0.0637,
      "velocity": 115,
      "chip": "ym2612"
    },
    {
      "channel": 3,
      "note": 50,
      "start": 22.6153,
      "duration": 0.108,
      "velocity": 123,
      "chip": "ym2612"
    },
    {
      "channel": 5,
      "note": 59,
      "start": 22.6181,
      "duration": 0.0403,
      "velocity": 98,
      "chip": "ym2612"
    },
    {
      "channel": 3,
      "note": 49,
      "start": 22.7449,
      "duration": 0.1139,
      "velocity": 123,
      "chip": "ym2612"
    },
    {
      "channel": 0,
      "note": 59,
      "start": 22.7477,
      "duration": 0.0786,
      "velocity": 98,
      "chip": "ym2612"
    },
    {
      "channel": 2,
      "note": 68,
      "start": 22.7509,
      "duration": 0.0709,
      "velocity": 115,
      "chip": "ym2612"
    },
    {
      "channel": 2,
      "note": 28,
      "start": 22.8727,
      "duration": 0.1153,
      "velocity": 110,
      "chip": "ym2612"
    },
    {
      "channel": 3,
      "note": 47,
      "start": 22.877,
      "duration": 0.1621,
      "velocity": 123,
      "chip": "ym2612"
    },
    {
      "channel": 5,
      "note": 47,
      "start": 22.8798,
      "duration": 0.0117,
      "velocity": 98,
      "chip": "ym2612"
    },
    {
      "channel": 0,
      "note": 54,
      "start": 23.0058,
      "duration": 0.1455,
      "velocity": 98,
      "chip": "ym2612"
    },
    {
      "channel": 3,
      "note": 47,
      "start": 23.135,
      "duration": 0.0709,
      "velocity": 123,
      "chip": "ym2612"
    },
    {
      "channel": 5,
      "note": 59,
      "start": 23.1388,
      "duration": 0.0838,
      "velocity": 98,
      "chip": "ym2612"
    },
    {
      "channel": 3,
      "note": 47,
      "start": 23.2649,
      "duration": 0.0651,
      "velocity": 123,
      "chip": "ym2612"
    },
    {
      "channel": 3,
      "note": 49,
      "start": 23.3939,
      "duration": 0.1744,
      "velocity": 123,
      "chip": "ym2612"
    },
    {
      "channel": 2,
      "note": 68,
      "start": 23.3973,
      "duration": 0.0749,
      "velocity": 115,
      "chip": "ym2612"
    },
    {
      "channel": 3,
      "note": 49,
      "start": 23.656,
      "duration": 0.0695,
      "velocity": 123,
      "chip": "ym2612"
    },
    {
      "channel": 0,
      "note": 59,
      "start": 23.6589,
      "duration": 0.0457,
      "velocity": 98,
      "chip": "ym2612"
    },
    {
      "channel": 3,
      "note": 49,
      "start": 23.7855,
      "duration": 0.0646,
      "velocity": 123,
      "chip": "ym2612"
    },
    {
      "channel": 5,
      "note": 59,
      "start": 23.7893,
      "duration": 0.0555,
      "velocity": 98,
      "chip": "ym2612"
    },
    {
      "channel": 2,
      "note": 28,
      "start": 23.9118,
      "duration": 0.1262,
      "velocity": 110,
      "chip": "ym2612"
    },
    {
      "channel": 3,
      "note": 50,
      "start": 23.916,
      "duration": 0.1733,
      "velocity": 123,
      "chip": "ym2612"
    },
    {
      "channel": 0,
      "note": 47,
      "start": 23.9188,
      "duration": 0.0721,
      "velocity": 98,
      "chip": "ym2612"
    },
    {
      "channel": 5,
      "note": 54,
      "start": 24.0446,
      "duration": 0.1322,
      "velocity": 98,
      "chip": "ym2612"
    },
    {
      "channel": 3,
      "note": 50,
      "start": 24.1764,
      "duration": 0.069,
      "velocity": 123,
      "chip": "ym2612"
    },
    {
      "channel": 0,
      "note": 59,
      "start": 24.1796,
      "duration": 0.0555,
      "velocity": 98,
      "chip": "ym2612"
    },
    {
      "channel": 3,
      "note": 50,
      "start": 24.306,
      "duration": 0.0587,
      "velocity": 123,
      "chip": "ym2612"
    },
    {
      "channel": 3,
      "note": 52,
      "start": 24.4334,
      "duration": 0.1966,
      "velocity": 123,
      "chip": "ym2612"
    },
    {
      "channel": 2,
      "note": 68,
      "start": 24.4368,
      "duration": 0.0678,
      "velocity": 115,
      "chip": "ym2612"
    },
    {
      "channel": 3,
      "note": 50,
      "start": 24.6951,
      "duration": 0.1084,
      "velocity": 123,
      "chip": "ym2612"
    },
    {
      "channel": 5,
      "note": 59,
      "start": 24.6979,
      "duration": 0.0623,
      "velocity": 98,
      "chip": "ym2612"
    },
    {
      "channel": 3,
      "note": 49,
      "start": 24.8261,
      "duration": 0.1137,
      "velocity": 123,
      "chip": "ym2612"
    },
    {
      "channel": 0,
      "note": 59,
      "start": 24.8289,
      "duration": 0.0884,
      "velocity": 98,
      "chip": "ym2612"
    },
    {
      "channel": 2,
      "note": 28,
      "start": 24.952,
      "duration": 0.1193,
      "velocity": 110,
      "chip": "ym2612"
    },
    {
      "channel": 4,
      "note": 88,
      "start": 24.9577,
      "duration": 0.1253,
      "velocity": 85,
      "chip": "ym2612"
    },
    {
      "channel": 3,
      "note": 47,
      "start": 24.9609,
      "duration": 0.1568,
      "velocity": 123,
      "chip": "ym2612"
    },
    {
      "channel": 5,
      "note": 47,
      "start": 24.9637,
      "duration": 0.0729,
      "velocity": 98,
      "chip": "ym2612"
    },
    {
      "channel": 4,
      "note": 90,
      "start": 25.0849,
      "duration": 0.1284,
      "velocity": 85,
      "chip": "ym2612"
    },
    {
      "channel": 0,
      "note": 54,
      "start": 25.0887,
      "duration": 0.1359,
      "velocity": 98,
      "chip": "ym2612"
    },
    {
      "channel": 4,
      "note": 88,
      "start": 25.2152,
      "duration": 0.1286,
      "velocity": 85,
      "chip": "ym2612"
    },
    {
      "channel": 3,
      "note": 47,
      "start": 25.2183,
      "duration": 0.0673,
      "velocity": 123,
      "chip": "ym2612"
    },
    {
      "channel": 5,
      "note": 59,
      "start": 25.2222,
      "duration": 0.069,
      "velocity": 98,
      "chip": "ym2612"
    },
    {
      "channel": 4,
      "note": 86,
      "start": 25.3457,
      "duration": 0.1269,
      "velocity": 85,
      "chip": "ym2612"
    },
    {
      "channel": 3,
      "note": 47,
      "start": 25.3488,
      "duration": 0.0613,
      "velocity": 123,
      "chip": "ym2612"
    },
    {
      "channel": 4,
      "note": 88,
      "start": 25.4745,
      "duration": 0.2592,
      "velocity": 85,
      "chip": "ym2612"
    },
    {
      "channel": 3,
      "note": 49,
      "start": 25.4777,
      "duration": 0.1709,
      "velocity": 123,
      "chip": "ym2612"
    },
    {
      "channel": 2,
      "note": 68,
      "start": 25.481,
      "duration": 0.057,
      "velocity": 115,
      "chip": "ym2612"
    },
    {
      "channel": 4,
      "note": 86,
      "start": 25.7356,
      "duration": 0.1267,
      "velocity": 85,
      "chip": "ym2612"
    },
    {
      "channel": 3,
      "note": 49,
      "start": 25.7398,
      "duration": 0.0661,
      "velocity": 123,
      "chip": "ym2612"
    },
    {
      "channel": 0,
      "note": 59,
      "start": 25.7427,
      "duration": 0.0468,
      "velocity": 98,
      "chip": "ym2612"
    },
    {
      "channel": 4,
      "note": 85,
      "start": 25.8654,
      "duration": 0.1032,
      "velocity": 85,
      "chip": "ym2612"
    },
    {
      "channel": 3,
      "note": 49,
      "start": 25.8686,
      "duration": 0.0616,
      "velocity": 123,
      "chip": "ym2612"
    },
    {
      "channel": 5,
      "note": 59,
      "start": 25.8724,
      "duration": 0.0582,
      "velocity": 98,
      "chip": "ym2612"
    },
    {
      "channel": 2,
      "note": 28,
      "start": 25.9921,
      "duration": 0.1378,
      "velocity": 110,
      "chip": "ym2612"
    },
    {
      "channel": 4,
      "note": 86,
      "start": 25.9963,
      "duration": 0.1284,
      "velocity": 85,
      "chip": "ym2612"
    },
    {
      "channel": 3,
      "note": 50,
      "start": 25.9994,
      "duration": 0.1693,
      "velocity": 123,
      "chip": "ym2612"
    },
    {
      "channel": 0,
      "note": 47,
      "start": 26.0022,
      "duration": 0.1019,
      "velocity": 98,
      "chip": "ym2612"
    },
    {
      "channel": 4,
      "note": 85,
      "start": 26.1265,
      "duration": 0.1268,
      "velocity": 85,
      "chip": "ym2612"
    },
    {
      "channel": 5,
      "note": 54,
      "start": 26.1294,
      "duration": 0.1349,
      "velocity": 98,
      "chip": "ym2612"
    },
    {
      "channel": 4,
      "note": 83,
      "start": 26.2562,
      "duration": 0.7774,
      "velocity": 85,
      "chip": "ym2612"
    },
    {
      "channel": 3,
      "note": 50,
      "start": 26.2595,
      "duration": 0.0662,
      "velocity": 123,
      "chip": "ym2612"
    },
    {
      "channel": 0,
      "note": 59,
      "start": 26.2623,
      "duration": 0.0743,
      "velocity": 98,
      "chip": "ym2612"
    },
    {
      "channel": 3,
      "note": 50,
      "start": 26.3852,
      "duration": 0.0597,
      "velocity": 123,
      "chip": "ym2612"
    },
    {
      "channel": 3,
      "note": 52,
      "start": 26.5141,
      "duration": 0.1962,
      "velocity": 123,
      "chip": "ym2612"
    },
    {
      "channel": 2,
      "note": 68,
      "start": 26.5174,
      "duration": 0.0705,
      "velocity": 115,
      "chip": "ym2612"
    },
    {
      "channel": 3,
      "note": 50,
      "start": 26.7763,
      "duration": 0.1074,
      "velocity": 123,
      "chip": "ym2612"
    },
    {
      "channel": 5,
      "note": 59,
      "start": 26.7791,
      "duration": 0.0505,
      "velocity": 98,
      "chip": "ym2612"
    },
    {
      "channel": 3,
      "note": 49,
      "start": 26.9067,
      "duration": 0.1124,
      "velocity": 123,
      "chip": "ym2612"
    },
    {
      "channel": 0,
      "note": 59,
      "start": 26.9096,
      "duration": 0.0662,
      "velocity": 98,
      "chip": "ym2612"
    },
    {
      "channel": 2,
      "note": 68,
      "start": 26.9128,
      "duration": 0.0586,
      "velocity": 115,
      "chip": "ym2612"
    },
    {
      "channel": 2,
      "note": 28,
      "start": 27.0321,
      "duration": 0.1225,
      "velocity": 110,
      "chip": "ym2612"
    },
    {
      "channel": 3,
      "note": 47,
      "start": 27.0368,
      "duration": 0.1611,
      "velocity": 123,
      "chip": "ym2612"
    },
    {
      "channel": 5,
      "note": 47,
      "start": 27.0406,
      "duration": 0.0989,
      "velocity": 98,
      "chip": "ym2612"
    },
    {
      "channel": 0,
      "note": 54,
      "start": 27.1647,
      "duration": 0.1314,
      "velocity": 98,
      "chip": "ym2612"
    },
    {
      "channel": 3,
      "note": 47,
      "start": 27.2959,
      "duration": 0.07,
      "velocity": 123,
      "chip": "ym2612"
    },
    {
      "channel": 5,
      "note": 59,
      "start": 27.2989,
      "duration": 0.0674,
      "velocity": 98,
      "chip": "ym2612"
    },
    {
      "channel": 3,
      "note": 47,
      "start": 27.4263,
      "duration": 0.0642,
      "velocity": 123,
      "chip": "ym2612"
    },
    {
      "channel": 3,
      "note": 49,
      "start": 27.5548,
      "duration": 0.174,
      "velocity": 123,
      "chip": "ym2612"
    },
    {
      "channel": 2,
      "note": 68,
      "start": 27.5582,
      "duration": 0.0633,
      "velocity": 115,
      "chip": "ym2612"
    },
    {
      "channel": 3,
      "note": 49,
      "start": 27.8153,
      "duration": 0.0705,
      "velocity": 123,
      "chip": "ym2612"
    },
    {
      "channel": 0,
      "note": 59,
      "start": 27.8181,
      "duration": 0.0407,
      "velocity": 98,
      "chip": "ym2612"
    },
    {
      "channel": 3,
      "note": 49,
      "start": 27.9454,
      "duration": 0.0651,
      "velocity": 123,
      "chip": "ym2612"
    },
    {
      "channel": 5,
      "note": 59,
      "start": 27.9482,
      "duration": 0.0785,
      "velocity": 98,
      "chip": "ym2612"
    },
    {
      "channel": 2,
      "note": 28,
      "start": 28.0732,
      "duration": 0.1148,
      "velocity": 110,
      "chip": "ym2612"
    },
    {
      "channel": 3,
      "note": 50,
      "start": 28.0779,
      "duration": 0.1709,
      "velocity": 123,
      "chip": "ym2612"
    },
    {
      "channel": 0,
      "note": 47,
      "start": 28.0807,
      "duration": 0.109,
      "velocity": 98,
      "chip": "ym2612"
    },
    {
      "channel": 5,
      "note": 54,
      "start": 28.2059,
      "duration": 0.0655,
      "velocity": 98,
      "chip": "ym2612"
    },
    {
      "channel": 3,
      "note": 50,
      "start": 28.3354,
      "duration": 0.0705,
      "velocity": 123,
      "chip": "ym2612"
    },
    {
      "channel": 0,
      "note": 59,
      "start": 28.3392,
      "duration": 0.0671,
      "velocity": 98,
      "chip": "ym2612"
    },
    {
      "channel": 3,
      "note": 50,
      "start": 28.4658,
      "duration": 0.0593,
      "velocity": 123,
      "chip": "ym2612"
    },
    {
      "channel": 3,
      "note": 52,
      "start": 28.594,
      "duration": 0.1965,
      "velocity": 123,
      "chip": "ym2612"
    },
    {
      "channel": 2,
      "note": 68,
      "start": 28.5973,
      "duration": 0.0739,
      "velocity": 115,
      "chip": "ym2612"
    },
    {
      "channel": 3,
      "note": 50,
      "start": 28.8569,
      "duration": 0.107,
      "velocity": 123,
      "chip": "ym2612"
    },
    {
      "channel": 5,
      "note": 59,
      "start": 28.8598,
      "duration": 0.0501,
      "velocity": 98,
      "chip": "ym2612"
    },
    {
      "channel": 3,
      "note": 49,
      "start": 28.9855,
      "duration": 0.1142,
      "velocity": 123,
      "chip": "ym2612"
    },
    {
      "channel": 0,
      "note": 59,
      "start": 28.9893,
      "duration": 0.0832,
      "velocity": 98,
      "chip": "ym2612"
    },
    {
      "channel": 2,
      "note": 28,
      "start": 29.1124,
      "duration": 0.1256,
      "velocity": 110,
      "chip": "ym2612"
    },
    {
      "channel": 4,
      "note": 88,
      "start": 29.1165,
      "duration": 0.5151,
      "velocity": 85,
      "chip": "ym2612"
    },
    {
      "channel": 3,
      "note": 52,
      "start": 29.1197,
      "duration": 0.1801,
      "velocity": 123,
      "chip": "ym2612"
    },
    {
      "channel": 5,
      "note": 52,
      "start": 29.1236,
      "duration": 0.5718,
      "velocity": 98,
      "chip": "ym2612"
    },
    {
      "channel": 3,
      "note": 52,
      "start": 29.3764,
      "duration": 0.075,
      "velocity": 123,
      "chip": "ym2612"
    },
    {
      "channel": 3,
      "note": 52,
      "start": 29.5064,
      "duration": 0.0651,
      "velocity": 123,
      "chip": "ym2612"
    },
    {
      "channel": 4,
      "note": 83,
      "start": 29.6347,
      "duration": 0.1275,
      "velocity": 85,
      "chip": "ym2612"
    },
    {
      "channel": 3,
      "note": 52,
      "start": 29.6389,
      "duration": 0.1592,
      "velocity": 123,
      "chip": "ym2612"
    },
    {
      "channel": 0,
      "note": 55,
      "start": 29.6418,
      "duration": 0.5237,
      "velocity": 98,
      "chip": "ym2612"
    },
    {
      "channel": 2,
      "note": 68,
      "start": 29.6451,
      "duration": 0.0595,
      "velocity": 115,
      "chip": "ym2612"
    },
    {
      "channel": 4,
      "note": 88,
      "start": 29.764,
      "duration": 0.1297,
      "velocity": 85,
      "chip": "ym2612"
    },
    {
      "channel": 4,
      "note": 90,
      "start": 29.8956,
      "duration": 0.1295,
      "velocity": 85,
      "chip": "ym2612"
    },
    {
      "channel": 3,
      "note": 52,
      "start": 29.8988,
      "duration": 0.0571,
      "velocity": 123,
      "chip": "ym2612"
    },
    {
      "channel": 4,
      "note": 91,
      "start": 30.027,
      "duration": 0.1288,
      "velocity": 85,
      "chip": "ym2612"
    },
    {
      "channel": 3,
      "note": 52,
      "start": 30.0301,
      "duration": 0.0605,
      "velocity": 123,
      "chip": "ym2612"
    },
    {
      "channel": 2,
      "note": 28,
      "start": 30.1524,
      "duration": 0.1188,
      "velocity": 110,
      "chip": "ym2612"
    },
    {
      "channel": 4,
      "note": 90,
      "start": 30.1576,
      "duration": 0.9732,
      "velocity": 85,
      "chip": "ym2612"
    },
    {
      "channel": 3,
      "note": 54,
      "start": 30.1609,
      "duration": 0.1628,
      "velocity": 123,
      "chip": "ym2612"
    },
    {
      "channel": 5,
      "note": 54,
      "start": 30.1637,
      "duration": 0.5393,
      "velocity": 98,
      "chip": "ym2612"
    },
    {
      "channel": 3,
      "note": 54,
      "start": 30.416,
      "duration": 0.0539,
      "velocity": 123,
      "chip": "ym2612"
    },
    {
      "channel": 3,
      "note": 54,
      "start": 30.5457,
      "duration": 0.0542,
      "velocity": 123,
      "chip": "ym2612"
    },
    {
      "channel": 3,
      "note": 54,
      "start": 30.675,
      "duration": 0.1415,
      "velocity": 123,
      "chip": "ym2612"
    },
    {
      "channel": 0,
      "note": 57,
      "start": 30.6778,
      "duration": 0.5559,
      "velocity": 98,
      "chip": "ym2612"
    },
    {
      "channel": 2,
      "note": 68,
      "start": 30.6811,
      "duration": 0.0569,
      "velocity": 115,
      "chip": "ym2612"
    },
    {
      "channel": 3,
      "note": 54,
      "start": 30.9357,
      "duration": 0.0543,
      "velocity": 123,
      "chip": "ym2612"
    },
    {
      "channel": 3,
      "note": 54,
      "start": 31.0657,
      "duration": 0.0655,
      "velocity": 123,
      "chip": "ym2612"
    },
    {
      "channel": 2,
      "note": 68,
      "start": 31.069,
      "duration": 0.069,
      "velocity": 115,
      "chip": "ym2612"
    },
    {
      "channel": 2,
      "note": 28,
      "start": 31.1926,
      "duration": 0.1347,
      "velocity": 110,
      "chip": "ym2612"
    },
    {
      "channel": 4,
      "note": 91,
      "start": 31.1973,
      "duration": 0.1263,
      "velocity": 85,
      "chip": "ym2612"
    },
    {
      "channel": 3,
      "note": 55,
      "start": 31.2004,
      "duration": 0.1417,
      "velocity": 123,
      "chip": "ym2612"
    },
    {
      "channel": 5,
      "note": 55,
      "start": 31.2032,
      "duration": 0.5362,
      "velocity": 98,
      "chip": "ym2612"
    },
    {
      "channel": 4,
      "note": 86,
      "start": 31.3267,
      "duration": 0.128,
      "velocity": 85,
      "chip": "ym2612"
    },
    {
      "channel": 4,
      "note": 91,
      "start": 31.4566,
      "duration": 0.1277,
      "velocity": 85,
      "chip": "ym2612"
    },
    {
      "channel": 3,
      "note": 55,
      "start": 31.4598,
      "duration": 0.0627,
      "velocity": 123,
      "chip": "ym2612"
    },
    {
      "channel": 4,
      "note": 93,
      "start": 31.5862,
      "duration": 0.0809,
      "velocity": 85,
      "chip": "ym2612"
    },
    {
      "channel": 3,
      "note": 55,
      "start": 31.5904,
      "duration": 0.0604,
      "velocity": 123,
      "chip": "ym2612"
    },
    {
      "channel": 4,
      "note": 95,
      "start": 31.7141,
      "duration": 0.2022,
      "velocity": 85,
      "chip": "ym2612"
    },
    {
      "channel": 3,
      "note": 55,
      "start": 31.7173,
      "duration": 0.1502,
      "velocity": 123,
      "chip": "ym2612"
    },
    {
      "channel": 0,
      "note": 52,
      "start": 31.7201,
      "duration": 0.5428,
      "velocity": 98,
      "chip": "ym2612"
    },
    {
      "channel": 2,
      "note": 68,
      "start": 31.7244,
      "duration": 0.0635,
      "velocity": 115,
      "chip": "ym2612"
    },
    {
      "channel": 4,
      "note": 93,
      "start": 31.9771,
      "duration": 0.1277,
      "velocity": 85,
      "chip": "ym2612"
    },
    {
      "channel": 3,
      "note": 55,
      "start": 31.9803,
      "duration": 0.066,
      "velocity": 123,
      "chip": "ym2612"
    },
    {
      "channel": 4,
      "note": 91,
      "start": 32.1067,
      "duration": 0.0533,
      "velocity": 85,
      "chip": "ym2612"
    },
    {
      "channel": 3,
      "note": 55,
      "start": 32.11,
      "duration": 0.0626,
      "velocity": 123,
      "chip": "ym2612"
    },
    {
      "channel": 2,
      "note": 28,
      "start": 32.2327,
      "duration": 0.122,
      "velocity": 110,
      "chip": "ym2612"
    },
    {
      "channel": 4,
      "note": 97,
      "start": 32.2368,
      "duration": 0.2573,
      "velocity": 85,
      "chip": "ym2612"
    },
    {
      "channel": 3,
      "note": 54,
      "start": 32.241,
      "duration": 0.1637,
      "velocity": 123,
      "chip": "ym2612"
    },
    {
      "channel": 5,
      "note": 54,
      "start": 32.2439,
      "duration": 0.491,
      "velocity": 98,
      "chip": "ym2612"
    },
    {
      "channel": 4,
      "note": 98,
      "start": 32.4959,
      "duration": 0.2569,
      "velocity": 85,
      "chip": "ym2612"
    },
    {
      "channel": 3,
      "note": 54,
      "start": 32.499,
      "duration": 0.0835,
      "velocity": 123,
      "chip": "ym2612"
    },
    {
      "channel": 3,
      "note": 54,
      "start": 32.6268,
      "duration": 0.0965,
      "velocity": 123,
      "chip": "ym2612"
    },
    {
      "channel": 4,
      "note": 95,
      "start": 32.7556,
      "duration": 0.2584,
      "velocity": 85,
      "chip": "ym2612"
    },
    {
      "channel": 3,
      "note": 52,
      "start": 32.7588,
      "duration": 0.2138,
      "velocity": 123,
      "chip": "ym2612"
    },
    {
      "channel": 0,
      "note": 50,
      "start": 32.7616,
      "duration": 0.4776,
      "velocity": 98,
      "chip": "ym2612"
    },
    {
      "channel": 2,
      "note": 68,
      "start": 32.7649,
      "duration": 0.0563,
      "velocity": 115,
      "chip": "ym2612"
    },
    {
      "channel": 4,
      "note": 94,
      "start": 33.0159,
      "duration": 0.24,
      "velocity": 85,
      "chip": "ym2612"
    },
    {
      "channel": 3,
      "note": 50,
      "start": 33.019,
      "duration": 0.0728,
      "velocity": 123,
      "chip": "ym2612"
    },
    {
      "channel": 3,
      "note": 49,
      "start": 33.1463,
      "duration": 0.0761,
      "velocity": 123,
      "chip": "ym2612"
    },
    {
      "channel": 2,
      "note": 28,
      "start": 33.2737,
      "duration": 0.1142,
      "velocity": 110,
      "chip": "ym2612"
    },
    {
      "channel": 4,
      "note": 95,
      "start": 33.278,
      "duration": 1.0118,
      "velocity": 85,
      "chip": "ym2612"
    },
    {
      "channel": 3,
      "note": 47,
      "start": 33.2812,
      "duration": 0.158,
      "velocity": 123,
      "chip": "ym2612"
    },
    {
      "channel": 5,
      "note": 47,
      "start": 33.2839,
      "duration": 0.1276,
      "velocity": 98,
      "chip": "ym2612"
    },
    {
      "channel": 0,
      "note": 50,
      "start": 33.4064,
      "duration": 0.1363,
      "velocity": 98,
      "chip": "ym2612"
    },
    {
      "channel": 3,
      "note": 47,
      "start": 33.5364,
      "duration": 0.07,
      "velocity": 123,
      "chip": "ym2612"
    },
    {
      "channel": 5,
      "note": 59,
      "start": 33.5402,
      "duration": 0.0501,
      "velocity": 98,
      "chip": "ym2612"
    },
    {
      "channel": 3,
      "note": 47,
      "start": 33.6659,
      "duration": 0.0651,
      "velocity": 123,
      "chip": "ym2612"
    },
    {
      "channel": 3,
      "note": 49,
      "start": 33.7945,
      "duration": 0.1748,
      "velocity": 123,
      "chip": "ym2612"
    },
    {
      "channel": 2,
      "note": 68,
      "start": 33.7978,
      "duration": 0.0735,
      "velocity": 115,
      "chip": "ym2612"
    },
    {
      "channel": 3,
      "note": 49,
      "start": 34.0569,
      "duration": 0.0695,
      "velocity": 123,
      "chip": "ym2612"
    },
    {
      "channel": 0,
      "note": 59,
      "start": 34.0598,
      "duration": 0.0461,
      "velocity": 98,
      "chip": "ym2612"
    },
    {
      "channel": 3,
      "note": 49,
      "start": 34.1859,
      "duration": 0.0651,
      "velocity": 123,
      "chip": "ym2612"
    },
    {
      "channel": 5,
      "note": 59,
      "start": 34.1898,
      "duration": 0.0722,
      "velocity": 98,
      "chip": "ym2612"
    },
    {
      "channel": 2,
      "note": 28,
      "start": 34.3128,
      "duration": 0.1251,
      "velocity": 110,
      "chip": "ym2612"
    },
    {
      "channel": 3,
      "note": 50,
      "start": 34.3176,
      "duration": 0.1719,
      "velocity": 123,
      "chip": "ym2612"
    },
    {
      "channel": 0,
      "note": 47,
      "start": 34.3214,
      "duration": 0.0921,
      "velocity": 98,
      "chip": "ym2612"
    },
    {
      "channel": 5,
      "note": 50,
      "start": 34.4455,
      "duration": 0.1036,
      "velocity": 98,
      "chip": "ym2612"
    },
    {
      "channel": 3,
      "note": 50,
      "start": 34.577,
      "duration": 0.0695,
      "velocity": 123,
      "chip": "ym2612"
    },
    {
      "channel": 0,
      "note": 59,
      "start": 34.5798,
      "duration": 0.0505,
      "velocity": 98,
      "chip": "ym2612"
    },
    {
      "channel": 3,
      "note": 50,
      "start": 34.7075,
      "duration": 0.0583,
      "velocity": 123,
      "chip": "ym2612"
    },
    {
      "channel": 3,
      "note": 52,
      "start": 34.8344,
      "duration": 0.1967,
      "velocity": 123,
      "chip": "ym2612"
    },
    {
      "channel": 2,
      "note": 68,
      "start": 34.8387,
      "duration": 0.0659,
      "velocity": 115,
      "chip": "ym2612"
    },
    {
      "channel": 3,
      "note": 50,
      "start": 35.0966,
      "duration": 0.1093,
      "velocity": 123,
      "chip": "ym2612"
    },
    {
      "channel": 5,
      "note": 59,
      "start": 35.0993,
      "duration": 0.0456,
      "velocity": 98,
      "chip": "ym2612"
    },
    {
      "channel": 3,
      "note": 49,
      "start": 35.228,
      "duration": 0.112,
      "velocity": 123,
      "chip": "ym2612"
    },
    {
      "channel": 0,
      "note": 59,
      "start": 35.2308,
      "duration": 0.0441,
      "velocity": 98,
      "chip": "ym2612"
    },
    {
      "channel": 2,
      "note": 68,
      "start": 35.2341,
      "duration": 0.0705,
      "velocity": 115,
      "chip": "ym2612"
    },
    {
      "channel": 2,
      "note": 28,
      "start": 35.3529,
      "duration": 0.1184,
      "velocity": 110,
      "chip": "ym2612"
    },
    {
      "channel": 3,
      "note": 47,
      "start": 35.3583,
      "duration": 0.1604,
      "velocity": 123,
      "chip": "ym2612"
    },
    {
      "channel": 5,
      "note": 47,
      "start": 35.3611,
      "duration": 0.1415,
      "velocity": 98,
      "chip": "ym2612"
    },
    {
      "channel": 0,
      "note": 54,
      "start": 35.4861,
      "duration": 0.0976,
      "velocity": 98,
      "chip": "ym2612"
    },
    {
      "channel": 3,
      "note": 47,
      "start": 35.6161,
      "duration": 0.0705,
      "velocity": 123,
      "chip": "ym2612"
    },
    {
      "channel": 5,
      "note": 59,
      "start": 35.6189,
      "duration": 0.069,
      "velocity": 98,
      "chip": "ym2612"
    },
    {
      "channel": 3,
      "note": 47,
      "start": 35.7462,
      "duration": 0.065,
      "velocity": 123,
      "chip": "ym2612"
    },
    {
      "channel": 3,
      "note": 49,
      "start": 35.8759,
      "duration": 0.1736,
      "velocity": 123,
      "chip": "ym2612"
    },
    {
      "channel": 2,
      "note": 68,
      "start": 35.8793,
      "duration": 0.0586,
      "velocity": 115,
      "chip": "ym2612"
    },
    {
      "channel": 3,
      "note": 49,
      "start": 36.1361,
      "duration": 0.0705,
      "velocity": 123,
      "chip": "ym2612"
    },
    {
      "channel": 0,
      "note": 59,
      "start": 36.1399,
      "duration": 0.0614,
      "velocity": 98,
      "chip": "ym2612"
    },
    {
      "channel": 3,
      "note": 49,
      "start": 36.2666,
      "duration": 0.0646,
      "velocity": 123,
      "chip": "ym2612"
    },
    {
      "channel": 5,
      "note": 59,
      "start": 36.2694,
      "duration": 0.0566,
      "velocity": 98,
      "chip": "ym2612"
    },
    {
      "channel": 2,
      "note": 28,
      "start": 36.3931,
      "duration": 0.1281,
      "velocity": 110,
      "chip": "ym2612"
    },
    {
      "channel": 3,
      "note": 50,
      "start": 36.3973,
      "duration": 0.1723,
      "velocity": 123,
      "chip": "ym2612"
    },
    {
      "channel": 0,
      "note": 47,
      "start": 36.4001,
      "duration": 0.138,
      "velocity": 98,
      "chip": "ym2612"
    },
    {
      "channel": 5,
      "note": 54,
      "start": 36.5275,
      "duration": 0.0692,
      "velocity": 98,
      "chip": "ym2612"
    },
    {
      "channel": 3,
      "note": 50,
      "start": 36.6576,
      "duration": 0.0691,
      "velocity": 123,
      "chip": "ym2612"
    },
    {
      "channel": 0,
      "note": 59,
      "start": 36.6605,
      "duration": 0.05,
      "velocity": 98,
      "chip": "ym2612"
    },
    {
      "channel": 3,
      "note": 50,
      "start": 36.7862,
      "duration": 0.0597,
      "velocity": 123,
      "chip": "ym2612"
    },
    {
      "channel": 3,
      "note": 52,
      "start": 36.9146,
      "duration": 0.1968,
      "velocity": 123,
      "chip": "ym2612"
    },
    {
      "channel": 2,
      "note": 68,
      "start": 36.9179,
      "duration": 0.07,
      "velocity": 115,
      "chip": "ym2612"
    },
    {
      "channel": 2,
      "note": 68,
      "start": 37.0455,
      "duration": 0.0758,
      "velocity": 115,
      "chip": "ym2612"
    },
    {
      "channel": 3,
      "note": 50,
      "start": 37.1764,
      "duration": 0.1083,
      "velocity": 123,
      "chip": "ym2612"
    },
    {
      "channel": 5,
      "note": 59,
      "start": 37.1792,
      "duration": 0.046,
      "velocity": 98,
      "chip": "ym2612"
    },
    {
      "channel": 2,
      "note": 68,
      "start": 37.1825,
      "duration": 0.0721,
      "velocity": 115,
      "chip": "ym2612"
    },
    {
      "channel": 3,
      "note": 49,
      "start": 37.3056,
      "duration": 0.1159,
      "velocity": 123,
      "chip": "ym2612"
    },
    {
      "channel": 0,
      "note": 59,
      "start": 37.3085,
      "duration": 0.0474,
      "velocity": 98,
      "chip": "ym2612"
    },
    {
      "channel": 2,
      "note": 68,
      "start": 37.3117,
      "duration": 0.0595,
      "velocity": 115,
      "chip": "ym2612"
    },
    {
      "channel": 2,
      "note": 28,
      "start": 37.4331,
      "duration": 0.1215,
      "velocity": 110,
      "chip": "ym2612"
    },
    {
      "channel": 4,
      "note": 93,
      "start": 37.4364,
      "duration": 1.4031,
      "velocity": 85,
      "chip": "ym2612"
    },
    {
      "channel": 3,
      "note": 57,
      "start": 37.4406,
      "duration": 0.1809,
      "velocity": 123,
      "chip": "ym2612"
    },
    {
      "channel": 5,
      "note": 52,
      "start": 37.4435,
      "duration": 1.5695,
      "velocity": 98,
      "chip": "ym2612"
    },
    {
      "channel": 3,
      "note": 52,
      "start": 37.6954,
      "duration": 0.0606,
      "velocity": 123,
      "chip": "ym2612"
    },
    {
      "channel": 3,
      "note": 52,
      "start": 37.8269,
      "duration": 0.0808,
      "velocity": 123,
      "chip": "ym2612"
    },
    {
      "channel": 2,
      "note": 28,
      "start": 37.9532,
      "duration": 0.118,
      "velocity": 110,
      "chip": "ym2612"
    },
    {
      "channel": 3,
      "note": 51,
      "start": 37.9574,
      "duration": 0.2562,
      "velocity": 123,
      "chip": "ym2612"
    },
    {
      "channel": 3,
      "note": 52,
      "start": 38.2154,
      "duration": 0.0714,
      "velocity": 123,
      "chip": "ym2612"
    },
    {
      "channel": 2,
      "note": 28,
      "start": 38.4738,
      "duration": 0.1141,
      "velocity": 110,
      "chip": "ym2612"
    },
    {
      "channel": 3,
      "note": 57,
      "start": 38.4771,
      "duration": 0.1836,
      "velocity": 123,
      "chip": "ym2612"
    },
    {
      "channel": 3,
      "note": 52,
      "start": 38.7354,
      "duration": 0.0552,
      "velocity": 123,
      "chip": "ym2612"
    },
    {
      "channel": 3,
      "note": 52,
      "start": 38.8653,
      "duration": 0.0608,
      "velocity": 123,
      "chip": "ym2612"
    },
    {
      "channel": 2,
      "note": 28,
      "start": 38.9934,
      "duration": 0.1278,
      "velocity": 110,
      "chip": "ym2612"
    },
    {
      "channel": 4,
      "note": 100,
      "start": 38.9966,
      "duration": 0.5182,
      "velocity": 85,
      "chip": "ym2612"
    },
    {
      "channel": 3,
      "note": 51,
      "start": 38.9997,
      "duration": 0.2242,
      "velocity": 123,
      "chip": "ym2612"
    },
    {
      "channel": 0,
      "note": 57,
      "start": 39.0026,
      "duration": 0.5532,
      "velocity": 98,
      "chip": "ym2612"
    },
    {
      "channel": 3,
      "note": 52,
      "start": 39.2563,
      "duration": 0.0707,
      "velocity": 123,
      "chip": "ym2612"
    },
    {
      "channel": 2,
      "note": 28,
      "start": 39.5134,
      "duration": 0.1245,
      "velocity": 110,
      "chip": "ym2612"
    },
    {
      "channel": 4,
      "note": 99,
      "start": 39.5167,
      "duration": 1.6197,
      "velocity": 85,
      "chip": "ym2612"
    },
    {
      "channel": 3,
      "note": 57,
      "start": 39.5198,
      "duration": 0.1971,
      "velocity": 123,
      "chip": "ym2612"
    },
    {
      "channel": 5,
      "note": 56,
      "start": 39.5237,
      "duration": 2.0623,
      "velocity": 98,
      "chip": "ym2612"
    },
    {
      "channel": 3,
      "note": 52,
      "start": 39.7769,
      "duration": 0.0538,
      "velocity": 123,
      "chip": "ym2612"
    },
    {
      "channel": 3,
      "note": 52,
      "start": 39.9065,
      "duration": 0.0597,
      "velocity": 123,
      "chip": "ym2612"
    },
    {
      "channel": 2,
      "note": 28,
      "start": 40.0334,
      "duration": 0.1212,
      "velocity": 110,
      "chip": "ym2612"
    },
    {
      "channel": 3,
      "note": 51,
      "start": 40.0367,
      "duration": 0.2384,
      "velocity": 123,
      "chip": "ym2612"
    },
    {
      "channel": 3,
      "note": 52,
      "start": 40.2957,
      "duration": 0.0714,
      "velocity": 123,
      "chip": "ym2612"
    },
    {
      "channel": 2,
      "note": 28,
      "start": 40.5534,
      "duration": 0.1182,
      "velocity": 110,
      "chip": "ym2612"
    },
    {
      "channel": 3,
      "note": 57,
      "start": 40.5576,
      "duration": 0.205,
      "velocity": 123,
      "chip": "ym2612"
    },
    {
      "channel": 3,
      "note": 52,
      "start": 40.8156,
      "duration": 0.0337,
      "velocity": 123,
      "chip": "ym2612"
    },
    {
      "channel": 3,
      "note": 52,
      "start": 40.9457,
      "duration": 0.0768,
      "velocity": 123,
      "chip": "ym2612"
    },
    {
      "channel": 2,
      "note": 28,
      "start": 41.0748,
      "duration": 0.1299,
      "velocity": 110,
      "chip": "ym2612"
    },
    {
      "channel": 3,
      "note": 51,
      "start": 41.078,
      "duration": 0.1828,
      "velocity": 123,
      "chip": "ym2612"
    },
    {
      "channel": 3,
      "note": 52,
      "start": 41.3357,
      "duration": 0.1202,
      "velocity": 123,
      "chip": "ym2612"
    },
    {
      "channel": 2,
      "note": 28,
      "start": 41.5936,
      "duration": 0.1277,
      "velocity": 110,
      "chip": "ym2612"
    },
    {
      "channel": 4,
      "note": 95,
      "start": 41.5969,
      "duration": 1.559,
      "velocity": 85,
      "chip": "ym2612"
    },
    {
      "channel": 3,
      "note": 59,
      "start": 41.6,
      "duration": 0.1809,
      "velocity": 123,
      "chip": "ym2612"
    },
    {
      "channel": 0,
      "note": 54,
      "start": 41.6028,
      "duration": 1.5704,
      "velocity": 98,
      "chip": "ym2612"
    },
    {
      "channel": 3,
      "note": 54,
      "start": 41.8566,
      "duration": 0.0543,
      "velocity": 123,
      "chip": "ym2612"
    },
    {
      "channel": 3,
      "note": 54,
      "start": 41.9857,
      "duration": 0.0932,
      "velocity": 123,
      "chip": "ym2612"
    },
    {
      "channel": 2,
      "note": 28,
      "start": 42.1135,
      "duration": 0.1244,
      "velocity": 110,
      "chip": "ym2612"
    },
    {
      "channel": 3,
      "note": 53,
      "start": 42.1168,
      "duration": 0.2167,
      "velocity": 123,
      "chip": "ym2612"
    },
    {
      "channel": 3,
      "note": 54,
      "start": 42.3769,
      "duration": 0.0758,
      "velocity": 123,
      "chip": "ym2612"
    },
    {
      "channel": 2,
      "note": 28,
      "start": 42.6337,
      "duration": 0.1209,
      "velocity": 110,
      "chip": "ym2612"
    },
    {
      "channel": 3,
      "note": 59,
      "start": 42.6378,
      "duration": 0.2482,
      "velocity": 123,
      "chip": "ym2612"
    },
    {
      "channel": 3,
      "note": 54,
      "start": 42.8959,
      "duration": 0.0498,
      "velocity": 123,
      "chip": "ym2612"
    },
    {
      "channel": 3,
      "note": 54,
      "start": 43.027,
      "duration": 0.0976,
      "velocity": 123,
      "chip": "ym2612"
    },
    {
      "channel": 2,
      "note": 28,
      "start": 43.1545,
      "duration": 0.1172,
      "velocity": 110,
      "chip": "ym2612"
    },
    {
      "channel": 4,
      "note": 102,
      "start": 43.1578,
      "duration": 0.5185,
      "velocity": 85,
      "chip": "ym2612"
    },
    {
      "channel": 3,
      "note": 53,
      "start": 43.161,
      "duration": 0.2234,
      "velocity": 123,
      "chip": "ym2612"
    },
    {
      "channel": 5,
      "note": 59,
      "start": 43.1638,
      "duration": 0.5626,
      "velocity": 98,
      "chip": "ym2612"
    },
    {
      "channel": 3,
      "note": 54,
      "start": 43.4159,
      "duration": 0.0824,
      "velocity": 123,
      "chip": "ym2612"
    },
    {
      "channel": 2,
      "note": 28,
      "start": 43.6749,
      "duration": 0.1298,
      "velocity": 110,
      "chip": "ym2612"
    },
    {
      "channel": 4,
      "note": 101,
      "start": 43.6781,
      "duration": 1.8516,
      "velocity": 85,
      "chip": "ym2612"
    },
    {
      "channel": 3,
      "note": 59,
      "start": 43.6812,
      "duration": 0.1799,
      "velocity": 123,
      "chip": "ym2612"
    },
    {
      "channel": 0,
      "note": 58,
      "start": 43.6841,
      "duration": 1.6667,
      "velocity": 98,
      "chip": "ym2612"
    },
    {
      "channel": 3,
      "note": 54,
      "start": 43.9359,
      "duration": 0.0554,
      "velocity": 123,
      "chip": "ym2612"
    },
    {
      "channel": 3,
      "note": 54,
      "start": 44.0659,
      "duration": 0.0932,
      "velocity": 123,
      "chip": "ym2612"
    },
    {
      "channel": 2,
      "note": 28,
      "start": 44.1939,
      "duration": 0.1273,
      "velocity": 110,
      "chip": "ym2612"
    },
    {
      "channel": 3,
      "note": 53,
      "start": 44.1972,
      "duration": 0.2164,
      "velocity": 123,
      "chip": "ym2612"
    },
    {
      "channel": 3,
      "note": 54,
      "start": 44.4568,
      "duration": 0.076,
      "velocity": 123,
      "chip": "ym2612"
    },
    {
      "channel": 2,
      "note": 28,
      "start": 44.7139,
      "duration": 0.124,
      "velocity": 110,
      "chip": "ym2612"
    },
    {
      "channel": 3,
      "note": 59,
      "start": 44.7171,
      "duration": 0.2492,
      "velocity": 123,
      "chip": "ym2612"
    },
    {
      "channel": 3,
      "note": 54,
      "start": 44.977,
      "duration": 0.0488,
      "velocity": 123,
      "chip": "ym2612"
    },
    {
      "channel": 3,
      "note": 54,
      "start": 45.1069,
      "duration": 0.0989,
      "velocity": 123,
      "chip": "ym2612"
    },
    {
      "channel": 2,
      "note": 28,
      "start": 45.2339,
      "duration": 0.1207,
      "velocity": 110,
      "chip": "ym2612"
    },
    {
      "channel": 3,
      "note": 53,
      "start": 45.2381,
      "duration": 0.2265,
      "velocity": 123,
      "chip": "ym2612"
    },
    {
      "channel": 2,
      "note": 28,
      "start": 45.3644,
      "duration": 0.0015,
      "velocity": 110,
      "chip": "ym2612"
    },
    {
      "channel": 2,
      "note": 68,
      "start": 45.3679,
      "duration": 0.07,
      "velocity": 115,
      "chip": "ym2612"
    },
    {
      "channel": 3,
      "note": 54,
      "start": 45.4945,
      "duration": 0.0839,
      "velocity": 123,
      "chip": "ym2612"
    },
    {
      "channel": 2,
      "note": 68,
      "start": 45.4978,
      "duration": 0.0735,
      "velocity": 115,
      "chip": "ym2612"
    },
    {
      "channel": 2,
      "note": 68,
      "start": 45.6256,
      "duration": 0.0791,
      "velocity": 115,
      "chip": "ym2612"
    }
  ]
}