{
  "track_name": "07 - Map",
  "duration_sec": 79.75,
  "sample_rate": 44100,
  "note_count": 537,
  "unique_pitches": 21,
  "pitch_range": 34,
  "avg_note_duration": 0.0541,
  "reconstruction_stats": {
    "notes_reconstructed": 537,
    "keyon_events": 537,
    "keyoff_events": 537,
    "orphan_keyons": 0,
    "unique_pitches": 21,
    "pitch_range": 34,
    "avg_duration_sec": 0.0541
  },
  "metadata": {
    "source": "W\\Waterworld\\Waterworld (Mega Drive, Genesis)\\07 - Map.vgz"
  },
  "notes": [
    {
      "channel": 0,
      "note": -1,
      "start": 0.0054,
      "duration": 0.0763,
      "velocity": 103,
      "chip": "ym2612"
    },
    {
      "channel": 1,
      "note": -1,
      "start": 0.0082,
      "duration": 0.0741,
      "velocity": 103,
      "chip": "ym2612"
    },
    {
      "channel": 2,
      "note": -1,
      "start": 0.011,
      "duration": 0.072,
      "velocity": 103,
      "chip": "ym2612"
    },
    {
      "channel": 3,
      "note": -1,
      "start": 0.0138,
      "duration": 0.1702,
      "velocity": 106,
      "chip": "ym2612"
    },
    {
      "channel": 4,
      "note": -1,
      "start": 0.0165,
      "duration": 0.0088,
      "velocity": 79,
      "chip": "ym2612"
    },
    {
      "channel": 5,
      "note": 68,
      "start": 0.0729,
      "duration": 0.0072,
      "velocity": 127,
      "chip": "ym2612"
    },
    {
      "channel": 4,
      "note": 49,
      "start": 0.0985,
      "duration": 0.0097,
      "velocity": 79,
      "chip": "ym2612"
    },
    {
      "channel": 5,
      "note": 58,
      "start": 0.1013,
      "duration": 0.0268,
      "velocity": 127,
      "chip": "ym2612"
    },
    {
      "channel": 3,
      "note": 61,
      "start": 0.1862,
      "duration": 0.1793,
      "velocity": 106,
      "chip": "ym2612"
    },
    {
      "channel": 5,
      "note": 75,
      "start": 0.2437,
      "duration": 0.0076,
      "velocity": 127,
      "chip": "ym2612"
    },
    {
      "channel": 4,
      "note": 49,
      "start": 0.2729,
      "duration": 0.0088,
      "velocity": 79,
      "chip": "ym2612"
    },
    {
      "channel": 5,
      "note": 68,
      "start": 0.3302,
      "duration": 0.0074,
      "velocity": 127,
      "chip": "ym2612"
    },
    {
      "channel": 0,
      "note": 68,
      "start": 0.3589,
      "duration": 0.0806,
      "velocity": 103,
      "chip": "ym2612"
    },
    {
      "channel": 1,
      "note": 65,
      "start": 0.3617,
      "duration": 0.0784,
      "velocity": 103,
      "chip": "ym2612"
    },
    {
      "channel": 2,
      "note": 61,
      "start": 0.3645,
      "duration": 0.0763,
      "velocity": 103,
      "chip": "ym2612"
    },
    {
      "channel": 3,
      "note": 73,
      "start": 0.3672,
      "duration": 0.0907,
      "velocity": 106,
      "chip": "ym2612"
    },
    {
      "channel": 4,
      "note": 49,
      "start": 0.37,
      "duration": 0.0098,
      "velocity": 79,
      "chip": "ym2612"
    },
    {
      "channel": 5,
      "note": 58,
      "start": 0.3728,
      "duration": 0.0267,
      "velocity": 127,
      "chip": "ym2612"
    },
    {
      "channel": 3,
      "note": 68,
      "start": 0.4599,
      "duration": 0.0863,
      "velocity": 106,
      "chip": "ym2612"
    },
    {
      "channel": 4,
      "note": 49,
      "start": 0.4627,
      "duration": 0.009,
      "velocity": 79,
      "chip": "ym2612"
    },
    {
      "channel": 5,
      "note": 68,
      "start": 0.5201,
      "duration": 0.0078,
      "velocity": 127,
      "chip": "ym2612"
    },
    {
      "channel": 3,
      "note": 69,
      "start": 0.5484,
      "duration": 0.0808,
      "velocity": 106,
      "chip": "ym2612"
    },
    {
      "channel": 5,
      "note": 68,
      "start": 0.6057,
      "duration": 0.0075,
      "velocity": 127,
      "chip": "ym2612"
    },
    {
      "channel": 3,
      "note": 64,
      "start": 0.631,
      "duration": 0.4108,
      "velocity": 106,
      "chip": "ym2612"
    },
    {
      "channel": 4,
      "note": 49,
      "start": 0.6337,
      "duration": 0.0097,
      "velocity": 79,
      "chip": "ym2612"
    },
    {
      "channel": 5,
      "note": 58,
      "start": 0.6365,
      "duration": 0.0266,
      "velocity": 127,
      "chip": "ym2612"
    },
    {
      "channel": 5,
      "note": 58,
      "start": 0.784,
      "duration": 0.0371,
      "velocity": 127,
      "chip": "ym2612"
    },
    {
      "channel": 0,
      "note": 69,
      "start": 0.9221,
      "duration": 0.0753,
      "velocity": 103,
      "chip": "ym2612"
    },
    {
      "channel": 1,
      "note": 64,
      "start": 0.9249,
      "duration": 0.0732,
      "velocity": 103,
      "chip": "ym2612"
    },
    {
      "channel": 2,
      "note": 61,
      "start": 0.9277,
      "duration": 0.071,
      "velocity": 103,
      "chip": "ym2612"
    },
    {
      "channel": 4,
      "note": 49,
      "start": 0.9308,
      "duration": 0.0089,
      "velocity": 79,
      "chip": "ym2612"
    },
    {
      "channel": 5,
      "note": 68,
      "start": 0.9882,
      "duration": 0.0075,
      "velocity": 127,
      "chip": "ym2612"
    },
    {
      "channel": 4,
      "note": 54,
      "start": 1.0177,
      "duration": 0.0098,
      "velocity": 79,
      "chip": "ym2612"
    },
    {
      "channel": 5,
      "note": 58,
      "start": 1.0205,
      "duration": 0.0268,
      "velocity": 127,
      "chip": "ym2612"
    },
    {
      "channel": 5,
      "note": 68,
      "start": 1.1627,
      "duration": 0.0075,
      "velocity": 127,
      "chip": "ym2612"
    },
    {
      "channel": 4,
      "note": 54,
      "start": 1.1916,
      "duration": 0.0089,
      "velocity": 79,
      "chip": "ym2612"
    },
    {
      "channel": 5,
      "note": 68,
      "start": 1.2488,
      "duration": 0.0074,
      "velocity": 127,
      "chip": "ym2612"
    },
    {
      "channel": 4,
      "note": 54,
      "start": 1.2775,
      "duration": 0.0096,
      "velocity": 79,
      "chip": "ym2612"
    },
    {
      "channel": 5,
      "note": 58,
      "start": 1.2802,
      "duration": 0.0265,
      "velocity": 127,
      "chip": "ym2612"
    },
    {
      "channel": 5,
      "note": 58,
      "start": 1.3349,
      "duration": 0.0073,
      "velocity": 127,
      "chip": "ym2612"
    },
    {
      "channel": 4,
      "note": 54,
      "start": 1.3831,
      "duration": 0.0088,
      "velocity": 79,
      "chip": "ym2612"
    },
    {
      "channel": 5,
      "note": 68,
      "start": 1.4402,
      "duration": 0.0073,
      "velocity": 127,
      "chip": "ym2612"
    },
    {
      "channel": 5,
      "note": 68,
      "start": 1.5231,
      "duration": 0.0075,
      "velocity": 127,
      "chip": "ym2612"
    },
    {
      "channel": 0,
      "note": 71,
      "start": 1.5515,
      "duration": 0.1831,
      "velocity": 103,
      "chip": "ym2612"
    },
    {
      "channel": 1,
      "note": 66,
      "start": 1.5543,
      "duration": 0.181,
      "velocity": 103,
      "chip": "ym2612"
    },
    {
      "channel": 2,
      "note": 63,
      "start": 1.5571,
      "duration": 0.1788,
      "velocity": 103,
      "chip": "ym2612"
    },
    {
      "channel": 4,
      "note": 54,
      "start": 1.5603,
      "duration": 0.0098,
      "velocity": 79,
      "chip": "ym2612"
    },
    {
      "channel": 5,
      "note": 58,
      "start": 1.563,
      "duration": 0.0265,
      "velocity": 127,
      "chip": "ym2612"
    },
    {
      "channel": 0,
      "note": 69,
      "start": 1.7569,
      "duration": 0.0771,
      "velocity": 103,
      "chip": "ym2612"
    },
    {
      "channel": 1,
      "note": 64,
      "start": 1.7598,
      "duration": 0.0749,
      "velocity": 103,
      "chip": "ym2612"
    },
    {
      "channel": 2,
      "note": 61,
      "start": 1.7625,
      "duration": 0.0727,
      "velocity": 103,
      "chip": "ym2612"
    },
    {
      "channel": 3,
      "note": 66,
      "start": 1.7653,
      "duration": 0.1727,
      "velocity": 106,
      "chip": "ym2612"
    },
    {
      "channel": 4,
      "note": 54,
      "start": 1.768,
      "duration": 0.009,
      "velocity": 79,
      "chip": "ym2612"
    },
    {
      "channel": 5,
      "note": 68,
      "start": 1.8251,
      "duration": 0.0072,
      "velocity": 127,
      "chip": "ym2612"
    },
    {
      "channel": 4,
      "note": 49,
      "start": 1.8544,
      "duration": 0.0098,
      "velocity": 79,
      "chip": "ym2612"
    },
    {
      "channel": 5,
      "note": 58,
      "start": 1.8571,
      "duration": 0.0267,
      "velocity": 127,
      "chip": "ym2612"
    },
    {
      "channel": 3,
      "note": 61,
      "start": 1.9401,
      "duration": 0.1754,
      "velocity": 106,
      "chip": "ym2612"
    },
    {
      "channel": 5,
      "note": 75,
      "start": 1.9976,
      "duration": 0.0074,
      "velocity": 127,
      "chip": "ym2612"
    },
    {
      "channel": 4,
      "note": 49,
      "start": 2.0228,
      "duration": 0.0089,
      "velocity": 79,
      "chip": "ym2612"
    },
    {
      "channel": 5,
      "note": 68,
      "start": 2.0803,
      "duration": 0.0075,
      "velocity": 127,
      "chip": "ym2612"
    },
    {
      "channel": 0,
      "note": 68,
      "start": 2.1089,
      "duration": 0.0805,
      "velocity": 103,
      "chip": "ym2612"
    },
    {
      "channel": 1,
      "note": 65,
      "start": 2.1117,
      "duration": 0.0784,
      "velocity": 103,
      "chip": "ym2612"
    },
    {
      "channel": 2,
      "note": 61,
      "start": 2.1145,
      "duration": 0.0762,
      "velocity": 103,
      "chip": "ym2612"
    },
    {
      "channel": 3,
      "note": 73,
      "start": 2.1173,
      "duration": 0.0907,
      "velocity": 106,
      "chip": "ym2612"
    },
    {
      "channel": 4,
      "note": 49,
      "start": 2.12,
      "duration": 0.0098,
      "velocity": 79,
      "chip": "ym2612"
    },
    {
      "channel": 5,
      "note": 58,
      "start": 2.1228,
      "duration": 0.0267,
      "velocity": 127,
      "chip": "ym2612"
    },
    {
      "channel": 3,
      "note": 68,
      "start": 2.2099,
      "duration": 0.0863,
      "velocity": 106,
      "chip": "ym2612"
    },
    {
      "channel": 4,
      "note": 49,
      "start": 2.2127,
      "duration": 0.009,
      "velocity": 79,
      "chip": "ym2612"
    },
    {
      "channel": 5,
      "note": 68,
      "start": 2.2701,
      "duration": 0.0078,
      "velocity": 127,
      "chip": "ym2612"
    },
    {
      "channel": 3,
      "note": 69,
      "start": 2.2985,
      "duration": 0.0843,
      "velocity": 106,
      "chip": "ym2612"
    },
    {
      "channel": 5,
      "note": 68,
      "start": 2.3558,
      "duration": 0.0075,
      "velocity": 127,
      "chip": "ym2612"
    },
    {
      "channel": 3,
      "note": 64,
      "start": 2.3847,
      "duration": 0.427,
      "velocity": 106,
      "chip": "ym2612"
    },
    {
      "channel": 4,
      "note": 49,
      "start": 2.3875,
      "duration": 0.0097,
      "velocity": 79,
      "chip": "ym2612"
    },
    {
      "channel": 5,
      "note": 58,
      "start": 2.3902,
      "duration": 0.0264,
      "velocity": 127,
      "chip": "ym2612"
    },
    {
      "channel": 5,
      "note": 58,
      "start": 2.5538,
      "duration": 0.0369,
      "velocity": 127,
      "chip": "ym2612"
    },
    {
      "channel": 0,
      "note": 69,
      "start": 2.6918,
      "duration": 0.0753,
      "velocity": 103,
      "chip": "ym2612"
    },
    {
      "channel": 1,
      "note": 64,
      "start": 2.6946,
      "duration": 0.0731,
      "velocity": 103,
      "chip": "ym2612"
    },
    {
      "channel": 2,
      "note": 61,
      "start": 2.6974,
      "duration": 0.071,
      "velocity": 103,
      "chip": "ym2612"
    },
    {
      "channel": 4,
      "note": 49,
      "start": 2.7005,
      "duration": 0.0089,
      "velocity": 79,
      "chip": "ym2612"
    },
    {
      "channel": 5,
      "note": 68,
      "start": 2.7579,
      "duration": 0.0075,
      "velocity": 127,
      "chip": "ym2612"
    },
    {
      "channel": 4,
      "note": 54,
      "start": 2.7836,
      "duration": 0.0099,
      "velocity": 79,
      "chip": "ym2612"
    },
    {
      "channel": 5,
      "note": 58,
      "start": 2.7863,
      "duration": 0.0268,
      "velocity": 127,
      "chip": "ym2612"
    },
    {
      "channel": 5,
      "note": 68,
      "start": 2.9287,
      "duration": 0.0078,
      "velocity": 127,
      "chip": "ym2612"
    },
    {
      "channel": 4,
      "note": 54,
      "start": 2.9578,
      "duration": 0.0089,
      "velocity": 79,
      "chip": "ym2612"
    },
    {
      "channel": 5,
      "note": 68,
      "start": 3.0149,
      "duration": 0.0075,
      "velocity": 127,
      "chip": "ym2612"
    },
    {
      "channel": 3,
      "note": 63,
      "start": 3.0436,
      "duration": 0.2146,
      "velocity": 106,
      "chip": "ym2612"
    },
    {
      "channel": 4,
      "note": 54,
      "start": 3.0464,
      "duration": 0.0098,
      "velocity": 79,
      "chip": "ym2612"
    },
    {
      "channel": 5,
      "note": 58,
      "start": 3.0491,
      "duration": 0.0266,
      "velocity": 127,
      "chip": "ym2612"
    },
    {
      "channel": 5,
      "note": 58,
      "start": 3.1041,
      "duration": 0.0073,
      "velocity": 127,
      "chip": "ym2612"
    },
    {
      "channel": 4,
      "note": 54,
      "start": 3.169,
      "duration": 0.0089,
      "velocity": 79,
      "chip": "ym2612"
    },
    {
      "channel": 5,
      "note": 68,
      "start": 3.2266,
      "duration": 0.0075,
      "velocity": 127,
      "chip": "ym2612"
    },
    {
      "channel": 3,
      "note": 68,
      "start": 3.2604,
      "duration": 0.2728,
      "velocity": 106,
      "chip": "ym2612"
    },
    {
      "channel": 5,
      "note": 68,
      "start": 3.3177,
      "duration": 0.0072,
      "velocity": 127,
      "chip": "ym2612"
    },
    {
      "channel": 0,
      "note": 71,
      "start": 3.3424,
      "duration": 0.1619,
      "velocity": 103,
      "chip": "ym2612"
    },
    {
      "channel": 1,
      "note": 66,
      "start": 3.3452,
      "duration": 0.1598,
      "velocity": 103,
      "chip": "ym2612"
    },
    {
      "channel": 2,
      "note": 63,
      "start": 3.348,
      "duration": 0.1576,
      "velocity": 103,
      "chip": "ym2612"
    },
    {
      "channel": 4,
      "note": 54,
      "start": 3.3512,
      "duration": 0.0101,
      "velocity": 79,
      "chip": "ym2612"
    },
    {
      "channel": 5,
      "note": 58,
      "start": 3.3539,
      "duration": 0.0269,
      "velocity": 127,
      "chip": "ym2612"
    },
    {
      "channel": 0,
      "note": 69,
      "start": 3.5266,
      "duration": 0.0771,
      "velocity": 103,
      "chip": "ym2612"
    },
    {
      "channel": 1,
      "note": 64,
      "start": 3.5294,
      "duration": 0.0749,
      "velocity": 103,
      "chip": "ym2612"
    },
    {
      "channel": 2,
      "note": 61,
      "start": 3.5322,
      "duration": 0.0728,
      "velocity": 103,
      "chip": "ym2612"
    },
    {
      "channel": 3,
      "note": 66,
      "start": 3.5349,
      "duration": 0.1727,
      "velocity": 106,
      "chip": "ym2612"
    },
    {
      "channel": 4,
      "note": 54,
      "start": 3.5377,
      "duration": 0.009,
      "velocity": 79,
      "chip": "ym2612"
    },
    {
      "channel": 5,
      "note": 68,
      "start": 3.5948,
      "duration": 0.0072,
      "velocity": 127,
      "chip": "ym2612"
    },
    {
      "channel": 4,
      "note": 49,
      "start": 3.6241,
      "duration": 0.0098,
      "velocity": 79,
      "chip": "ym2612"
    },
    {
      "channel": 5,
      "note": 58,
      "start": 3.6268,
      "duration": 0.0267,
      "velocity": 127,
      "chip": "ym2612"
    },
    {
      "channel": 3,
      "note": 61,
      "start": 3.7098,
      "duration": 0.1791,
      "velocity": 106,
      "chip": "ym2612"
    },
    {
      "channel": 5,
      "note": 75,
      "start": 3.7673,
      "duration": 0.0075,
      "velocity": 127,
      "chip": "ym2612"
    },
    {
      "channel": 4,
      "note": 49,
      "start": 3.7963,
      "duration": 0.0088,
      "velocity": 79,
      "chip": "ym2612"
    },
    {
      "channel": 5,
      "note": 68,
      "start": 3.8537,
      "duration": 0.0074,
      "velocity": 127,
      "chip": "ym2612"
    },
    {
      "channel": 0,
      "note": 68,
      "start": 3.8823,
      "duration": 0.0815,
      "velocity": 103,
      "chip": "ym2612"
    },
    {
      "channel": 1,
      "note": 65,
      "start": 3.8851,
      "duration": 0.0794,
      "velocity": 103,
      "chip": "ym2612"
    },
    {
      "channel": 2,
      "note": 61,
      "start": 3.8878,
      "duration": 0.0772,
      "velocity": 103,
      "chip": "ym2612"
    },
    {
      "channel": 3,
      "note": 73,
      "start": 3.8906,
      "duration": 0.0881,
      "velocity": 106,
      "chip": "ym2612"
    },
    {
      "channel": 4,
      "note": 49,
      "start": 3.8934,
      "duration": 0.0097,
      "velocity": 79,
      "chip": "ym2612"
    },
    {
      "channel": 5,
      "note": 58,
      "start": 3.8961,
      "duration": 0.0267,
      "velocity": 127,
      "chip": "ym2612"
    },
    {
      "channel": 3,
      "note": 68,
      "start": 3.9807,
      "duration": 0.0861,
      "velocity": 106,
      "chip": "ym2612"
    },
    {
      "channel": 4,
      "note": 49,
      "start": 3.9834,
      "duration": 0.009,
      "velocity": 79,
      "chip": "ym2612"
    },
    {
      "channel": 5,
      "note": 68,
      "start": 4.0407,
      "duration": 0.0074,
      "velocity": 127,
      "chip": "ym2612"
    },
    {
      "channel": 3,
      "note": 69,
      "start": 4.069,
      "duration": 0.0844,
      "velocity": 106,
      "chip": "ym2612"
    },
    {
      "channel": 5,
      "note": 68,
      "start": 4.1264,
      "duration": 0.0076,
      "velocity": 127,
      "chip": "ym2612"
    },
    {
      "channel": 3,
      "note": 64,
      "start": 4.1552,
      "duration": 0.4266,
      "velocity": 106,
      "chip": "ym2612"
    },
    {
      "channel": 4,
      "note": 49,
      "start": 4.158,
      "duration": 0.0097,
      "velocity": 79,
      "chip": "ym2612"
    },
    {
      "channel": 5,
      "note": 58,
      "start": 4.1607,
      "duration": 0.0266,
      "velocity": 127,
      "chip": "ym2612"
    },
    {
      "channel": 5,
      "note": 58,
      "start": 4.3242,
      "duration": 0.037,
      "velocity": 127,
      "chip": "ym2612"
    },
    {
      "channel": 0,
      "note": 69,
      "start": 4.4622,
      "duration": 0.0752,
      "velocity": 103,
      "chip": "ym2612"
    },
    {
      "channel": 1,
      "note": 64,
      "start": 4.465,
      "duration": 0.0731,
      "velocity": 103,
      "chip": "ym2612"
    },
    {
      "channel": 2,
      "note": 61,
      "start": 4.4678,
      "duration": 0.0709,
      "velocity": 103,
      "chip": "ym2612"
    },
    {
      "channel": 4,
      "note": 49,
      "start": 4.471,
      "duration": 0.0089,
      "velocity": 79,
      "chip": "ym2612"
    },
    {
      "channel": 5,
      "note": 68,
      "start": 4.5283,
      "duration": 0.0075,
      "velocity": 127,
      "chip": "ym2612"
    },
    {
      "channel": 4,
      "note": 54,
      "start": 4.5578,
      "duration": 0.0098,
      "velocity": 79,
      "chip": "ym2612"
    },
    {
      "channel": 5,
      "note": 58,
      "start": 4.5606,
      "duration": 0.0267,
      "velocity": 127,
      "chip": "ym2612"
    },
    {
      "channel": 5,
      "note": 68,
      "start": 4.7028,
      "duration": 0.0075,
      "velocity": 127,
      "chip": "ym2612"
    },
    {
      "channel": 4,
      "note": 54,
      "start": 4.728,
      "duration": 0.0089,
      "velocity": 79,
      "chip": "ym2612"
    },
    {
      "channel": 5,
      "note": 68,
      "start": 4.7851,
      "duration": 0.0075,
      "velocity": 127,
      "chip": "ym2612"
    },
    {
      "channel": 4,
      "note": 54,
      "start": 4.8139,
      "duration": 0.0096,
      "velocity": 79,
      "chip": "ym2612"
    },
    {
      "channel": 5,
      "note": 58,
      "start": 4.8166,
      "duration": 0.0265,
      "velocity": 127,
      "chip": "ym2612"
    },
    {
      "channel": 5,
      "note": 58,
      "start": 4.8715,
      "duration": 0.0073,
      "velocity": 127,
      "chip": "ym2612"
    },
    {
      "channel": 4,
      "note": 54,
      "start": 4.9393,
      "duration": 0.0088,
      "velocity": 79,
      "chip": "ym2612"
    },
    {
      "channel": 5,
      "note": 68,
      "start": 4.9965,
      "duration": 0.0072,
      "velocity": 127,
      "chip": "ym2612"
    },
    {
      "channel": 5,
      "note": 68,
      "start": 5.0794,
      "duration": 0.0075,
      "velocity": 127,
      "chip": "ym2612"
    },
    {
      "channel": 0,
      "note": 71,
      "start": 5.1079,
      "duration": 0.1832,
      "velocity": 103,
      "chip": "ym2612"
    },
    {
      "channel": 1,
      "note": 66,
      "start": 5.1107,
      "duration": 0.1811,
      "velocity": 103,
      "chip": "ym2612"
    },
    {
      "channel": 2,
      "note": 63,
      "start": 5.1135,
      "duration": 0.1789,
      "velocity": 103,
      "chip": "ym2612"
    },
    {
      "channel": 4,
      "note": 54,
      "start": 5.1166,
      "duration": 0.0098,
      "velocity": 79,
      "chip": "ym2612"
    },
    {
      "channel": 5,
      "note": 58,
      "start": 5.1194,
      "duration": 0.0265,
      "velocity": 127,
      "chip": "ym2612"
    },
    {
      "channel": 0,
      "note": 69,
      "start": 5.3134,
      "duration": 0.077,
      "velocity": 103,
      "chip": "ym2612"
    },
    {
      "channel": 1,
      "note": 64,
      "start": 5.3162,
      "duration": 0.0749,
      "velocity": 103,
      "chip": "ym2612"
    },
    {
      "channel": 2,
      "note": 61,
      "start": 5.319,
      "duration": 0.0727,
      "velocity": 103,
      "chip": "ym2612"
    },
    {
      "channel": 3,
      "note": 66,
      "start": 5.3217,
      "duration": 0.1688,
      "velocity": 106,
      "chip": "ym2612"
    },
    {
      "channel": 4,
      "note": 54,
      "start": 5.3245,
      "duration": 0.009,
      "velocity": 79,
      "chip": "ym2612"
    },
    {
      "channel": 5,
      "note": 68,
      "start": 5.3815,
      "duration": 0.0072,
      "velocity": 127,
      "chip": "ym2612"
    },
    {
      "channel": 4,
      "note": 49,
      "start": 5.4072,
      "duration": 0.0097,
      "velocity": 79,
      "chip": "ym2612"
    },
    {
      "channel": 5,
      "note": 58,
      "start": 5.4099,
      "duration": 0.0269,
      "velocity": 127,
      "chip": "ym2612"
    },
    {
      "channel": 3,
      "note": 61,
      "start": 5.4927,
      "duration": 0.1794,
      "velocity": 106,
      "chip": "ym2612"
    },
    {
      "channel": 5,
      "note": 75,
      "start": 5.5503,
      "duration": 0.0076,
      "velocity": 127,
      "chip": "ym2612"
    },
    {
      "channel": 4,
      "note": 49,
      "start": 5.5795,
      "duration": 0.0088,
      "velocity": 79,
      "chip": "ym2612"
    },
    {
      "channel": 5,
      "note": 68,
      "start": 5.6369,
      "duration": 0.0075,
      "velocity": 127,
      "chip": "ym2612"
    },
    {
      "channel": 0,
      "note": 68,
      "start": 5.6655,
      "duration": 0.0805,
      "velocity": 103,
      "chip": "ym2612"
    },
    {
      "channel": 1,
      "note": 65,
      "start": 5.6683,
      "duration": 0.0784,
      "velocity": 103,
      "chip": "ym2612"
    },
    {
      "channel": 2,
      "note": 61,
      "start": 5.6711,
      "duration": 0.0762,
      "velocity": 103,
      "chip": "ym2612"
    },
    {
      "channel": 3,
      "note": 73,
      "start": 5.6738,
      "duration": 0.0907,
      "velocity": 106,
      "chip": "ym2612"
    },
    {
      "channel": 4,
      "note": 49,
      "start": 5.6766,
      "duration": 0.0098,
      "velocity": 79,
      "chip": "ym2612"
    },
    {
      "channel": 5,
      "note": 58,
      "start": 5.6794,
      "duration": 0.0267,
      "velocity": 127,
      "chip": "ym2612"
    },
    {
      "channel": 3,
      "note": 68,
      "start": 5.7665,
      "duration": 0.0863,
      "velocity": 106,
      "chip": "ym2612"
    },
    {
      "channel": 4,
      "note": 49,
      "start": 5.7693,
      "duration": 0.009,
      "velocity": 79,
      "chip": "ym2612"
    },
    {
      "channel": 5,
      "note": 68,
      "start": 5.8266,
      "duration": 0.0078,
      "velocity": 127,
      "chip": "ym2612"
    },
    {
      "channel": 3,
      "note": 69,
      "start": 5.855,
      "duration": 0.0808,
      "velocity": 106,
      "chip": "ym2612"
    },
    {
      "channel": 5,
      "note": 68,
      "start": 5.9123,
      "duration": 0.0075,
      "velocity": 127,
      "chip": "ym2612"
    },
    {
      "channel": 3,
      "note": 64,
      "start": 5.9375,
      "duration": 0.4107,
      "velocity": 106,
      "chip": "ym2612"
    },
    {
      "channel": 4,
      "note": 49,
      "start": 5.9403,
      "duration": 0.0097,
      "velocity": 79,
      "chip": "ym2612"
    },
    {
      "channel": 5,
      "note": 58,
      "start": 5.9431,
      "duration": 0.0266,
      "velocity": 127,
      "chip": "ym2612"
    },
    {
      "channel": 5,
      "note": 58,
      "start": 6.0906,
      "duration": 0.037,
      "velocity": 127,
      "chip": "ym2612"
    },
    {
      "channel": 0,
      "note": 69,
      "start": 6.2286,
      "duration": 0.0752,
      "velocity": 103,
      "chip": "ym2612"
    },
    {
      "channel": 1,
      "note": 64,
      "start": 6.2315,
      "duration": 0.0731,
      "velocity": 103,
      "chip": "ym2612"
    },
    {
      "channel": 2,
      "note": 61,
      "start": 6.2342,
      "duration": 0.0709,
      "velocity": 103,
      "chip": "ym2612"
    },
    {
      "channel": 4,
      "note": 49,
      "start": 6.2374,
      "duration": 0.0089,
      "velocity": 79,
      "chip": "ym2612"
    },
    {
      "channel": 5,
      "note": 68,
      "start": 6.2947,
      "duration": 0.0075,
      "velocity": 127,
      "chip": "ym2612"
    },
    {
      "channel": 4,
      "note": 54,
      "start": 6.3242,
      "duration": 0.0098,
      "velocity": 79,
      "chip": "ym2612"
    },
    {
      "channel": 5,
      "note": 58,
      "start": 6.327,
      "duration": 0.0268,
      "velocity": 127,
      "chip": "ym2612"
    },
    {
      "channel": 5,
      "note": 68,
      "start": 6.4693,
      "duration": 0.0075,
      "velocity": 127,
      "chip": "ym2612"
    },
    {
      "channel": 4,
      "note": 54,
      "start": 6.4983,
      "duration": 0.0089,
      "velocity": 79,
      "chip": "ym2612"
    },
    {
      "channel": 5,
      "note": 68,
      "start": 6.5554,
      "duration": 0.0073,
      "velocity": 127,
      "chip": "ym2612"
    },
    {
      "channel": 3,
      "note": 63,
      "start": 6.5839,
      "duration": 0.1948,
      "velocity": 106,
      "chip": "ym2612"
    },
    {
      "channel": 4,
      "note": 54,
      "start": 6.5867,
      "duration": 0.0098,
      "velocity": 79,
      "chip": "ym2612"
    },
    {
      "channel": 5,
      "note": 58,
      "start": 6.5895,
      "duration": 0.0266,
      "velocity": 127,
      "chip": "ym2612"
    },
    {
      "channel": 5,
      "note": 58,
      "start": 6.6443,
      "duration": 0.0075,
      "velocity": 127,
      "chip": "ym2612"
    },
    {
      "channel": 4,
      "note": 54,
      "start": 6.6896,
      "duration": 0.0089,
      "velocity": 79,
      "chip": "ym2612"
    },
    {
      "channel": 5,
      "note": 68,
      "start": 6.7471,
      "duration": 0.0075,
      "velocity": 127,
      "chip": "ym2612"
    },
    {
      "channel": 3,
      "note": 68,
      "start": 6.7809,
      "duration": 0.2924,
      "velocity": 106,
      "chip": "ym2612"
    },
    {
      "channel": 5,
      "note": 68,
      "start": 6.8383,
      "duration": 0.0072,
      "velocity": 127,
      "chip": "ym2612"
    },
    {
      "channel": 0,
      "note": 71,
      "start": 6.8668,
      "duration": 0.1777,
      "velocity": 103,
      "chip": "ym2612"
    },
    {
      "channel": 1,
      "note": 66,
      "start": 6.8696,
      "duration": 0.1755,
      "velocity": 103,
      "chip": "ym2612"
    },
    {
      "channel": 2,
      "note": 63,
      "start": 6.8724,
      "duration": 0.1734,
      "velocity": 103,
      "chip": "ym2612"
    },
    {
      "channel": 4,
      "note": 54,
      "start": 6.8756,
      "duration": 0.0098,
      "velocity": 79,
      "chip": "ym2612"
    },
    {
      "channel": 5,
      "note": 58,
      "start": 6.8783,
      "duration": 0.0268,
      "velocity": 127,
      "chip": "ym2612"
    },
    {
      "channel": 0,
      "note": 69,
      "start": 7.0667,
      "duration": 0.0771,
      "velocity": 103,
      "chip": "ym2612"
    },
    {
      "channel": 1,
      "note": 64,
      "start": 7.0695,
      "duration": 0.075,
      "velocity": 103,
      "chip": "ym2612"
    },
    {
      "channel": 2,
      "note": 61,
      "start": 7.0723,
      "duration": 0.0728,
      "velocity": 103,
      "chip": "ym2612"
    },
    {
      "channel": 3,
      "note": 66,
      "start": 7.0751,
      "duration": 0.1735,
      "velocity": 106,
      "chip": "ym2612"
    },
    {
      "channel": 4,
      "note": 54,
      "start": 7.0778,
      "duration": 0.009,
      "velocity": 79,
      "chip": "ym2612"
    },
    {
      "channel": 5,
      "note": 68,
      "start": 7.1349,
      "duration": 0.0072,
      "velocity": 127,
      "chip": "ym2612"
    },
    {
      "channel": 4,
      "note": 51,
      "start": 7.1644,
      "duration": 0.0098,
      "velocity": 79,
      "chip": "ym2612"
    },
    {
      "channel": 5,
      "note": 58,
      "start": 7.1672,
      "duration": 0.0268,
      "velocity": 127,
      "chip": "ym2612"
    },
    {
      "channel": 3,
      "note": 63,
      "start": 7.2508,
      "duration": 0.1754,
      "velocity": 106,
      "chip": "ym2612"
    },
    {
      "channel": 5,
      "note": 75,
      "start": 7.3082,
      "duration": 0.0075,
      "velocity": 127,
      "chip": "ym2612"
    },
    {
      "channel": 4,
      "note": 51,
      "start": 7.3335,
      "duration": 0.0089,
      "velocity": 79,
      "chip": "ym2612"
    },
    {
      "channel": 5,
      "note": 68,
      "start": 7.391,
      "duration": 0.0075,
      "velocity": 127,
      "chip": "ym2612"
    },
    {
      "channel": 0,
      "note": 70,
      "start": 7.4196,
      "duration": 0.0804,
      "velocity": 103,
      "chip": "ym2612"
    },
    {
      "channel": 1,
      "note": 67,
      "start": 7.4224,
      "duration": 0.0783,
      "velocity": 103,
      "chip": "ym2612"
    },
    {
      "channel": 2,
      "note": 63,
      "start": 7.4252,
      "duration": 0.0761,
      "velocity": 103,
      "chip": "ym2612"
    },
    {
      "channel": 3,
      "note": 75,
      "start": 7.4279,
      "duration": 0.0906,
      "velocity": 106,
      "chip": "ym2612"
    },
    {
      "channel": 4,
      "note": 51,
      "start": 7.4307,
      "duration": 0.0098,
      "velocity": 79,
      "chip": "ym2612"
    },
    {
      "channel": 5,
      "note": 58,
      "start": 7.4335,
      "duration": 0.0267,
      "velocity": 127,
      "chip": "ym2612"
    },
    {
      "channel": 3,
      "note": 70,
      "start": 7.5205,
      "duration": 0.087,
      "velocity": 106,
      "chip": "ym2612"
    },
    {
      "channel": 4,
      "note": 51,
      "start": 7.5232,
      "duration": 0.0096,
      "velocity": 79,
      "chip": "ym2612"
    },
    {
      "channel": 5,
      "note": 68,
      "start": 7.5813,
      "duration": 0.0076,
      "velocity": 127,
      "chip": "ym2612"
    },
    {
      "channel": 3,
      "note": 71,
      "start": 7.6097,
      "duration": 0.0843,
      "velocity": 106,
      "chip": "ym2612"
    },
    {
      "channel": 5,
      "note": 68,
      "start": 7.667,
      "duration": 0.0075,
      "velocity": 127,
      "chip": "ym2612"
    },
    {
      "channel": 3,
      "note": 66,
      "start": 7.6959,
      "duration": 0.428,
      "velocity": 106,
      "chip": "ym2612"
    },
    {
      "channel": 4,
      "note": 51,
      "start": 7.6987,
      "duration": 0.0097,
      "velocity": 79,
      "chip": "ym2612"
    },
    {
      "channel": 5,
      "note": 58,
      "start": 7.7015,
      "duration": 0.0266,
      "velocity": 127,
      "chip": "ym2612"
    },
    {
      "channel": 5,
      "note": 58,
      "start": 7.8651,
      "duration": 0.0369,
      "velocity": 127,
      "chip": "ym2612"
    },
    {
      "channel": 0,
      "note": 71,
      "start": 8.003,
      "duration": 0.0758,
      "velocity": 103,
      "chip": "ym2612"
    },
    {
      "channel": 1,
      "note": 66,
      "start": 8.0058,
      "duration": 0.0737,
      "velocity": 103,
      "chip": "ym2612"
    },
    {
      "channel": 2,
      "note": 63,
      "start": 8.0086,
      "duration": 0.0715,
      "velocity": 103,
      "chip": "ym2612"
    },
    {
      "channel": 4,
      "note": 51,
      "start": 8.0118,
      "duration": 0.009,
      "velocity": 79,
      "chip": "ym2612"
    },
    {
      "channel": 5,
      "note": 68,
      "start": 8.0697,
      "duration": 0.0075,
      "velocity": 127,
      "chip": "ym2612"
    },
    {
      "channel": 4,
      "note": 56,
      "start": 8.0956,
      "duration": 0.0099,
      "velocity": 79,
      "chip": "ym2612"
    },
    {
      "channel": 5,
      "note": 58,
      "start": 8.0984,
      "duration": 0.027,
      "velocity": 127,
      "chip": "ym2612"
    },
    {
      "channel": 5,
      "note": 68,
      "start": 8.2411,
      "duration": 0.0078,
      "velocity": 127,
      "chip": "ym2612"
    },
    {
      "channel": 4,
      "note": 56,
      "start": 8.2757,
      "duration": 0.0089,
      "velocity": 79,
      "chip": "ym2612"
    },
    {
      "channel": 5,
      "note": 68,
      "start": 8.3332,
      "duration": 0.0074,
      "velocity": 127,
      "chip": "ym2612"
    },
    {
      "channel": 4,
      "note": 56,
      "start": 8.3622,
      "duration": 0.0099,
      "velocity": 79,
      "chip": "ym2612"
    },
    {
      "channel": 5,
      "note": 58,
      "start": 8.365,
      "duration": 0.0268,
      "velocity": 127,
      "chip": "ym2612"
    },
    {
      "channel": 5,
      "note": 58,
      "start": 8.4202,
      "duration": 0.0074,
      "velocity": 127,
      "chip": "ym2612"
    },
    {
      "channel": 4,
      "note": 56,
      "start": 8.4863,
      "duration": 0.0089,
      "velocity": 79,
      "chip": "ym2612"
    },
    {
      "channel": 5,
      "note": 68,
      "start": 8.5439,
      "duration": 0.0075,
      "velocity": 127,
      "chip": "ym2612"
    },
    {
      "channel": 5,
      "note": 68,
      "start": 8.6328,
      "duration": 0.0075,
      "velocity": 127,
      "chip": "ym2612"
    },
    {
      "channel": 0,
      "note": 73,
      "start": 8.658,
      "duration": 0.1661,
      "velocity": 103,
      "chip": "ym2612"
    },
    {
      "channel": 1,
      "note": 68,
      "start": 8.6608,
      "duration": 0.1639,
      "velocity": 103,
      "chip": "ym2612"
    },
    {
      "channel": 2,
      "note": 65,
      "start": 8.6636,
      "duration": 0.1618,
      "velocity": 103,
      "chip": "ym2612"
    },
    {
      "channel": 4,
      "note": 56,
      "start": 8.6668,
      "duration": 0.0098,
      "velocity": 79,
      "chip": "ym2612"
    },
    {
      "channel": 5,
      "note": 58,
      "start": 8.6696,
      "duration": 0.0267,
      "velocity": 127,
      "chip": "ym2612"
    },
    {
      "channel": 0,
      "note": 71,
      "start": 8.8463,
      "duration": 0.0774,
      "velocity": 103,
      "chip": "ym2612"
    },
    {
      "channel": 1,
      "note": 66,
      "start": 8.8491,
      "duration": 0.0752,
      "velocity": 103,
      "chip": "ym2612"
    },
    {
      "channel": 2,
      "note": 63,
      "start": 8.8519,
      "duration": 0.0731,
      "velocity": 103,
      "chip": "ym2612"
    },
    {
      "channel": 3,
      "note": 69,
      "start": 8.8547,
      "duration": 0.1738,
      "velocity": 106,
      "chip": "ym2612"
    },
    {
      "channel": 4,
      "note": 56,
      "start": 8.8574,
      "duration": 0.009,
      "velocity": 79,
      "chip": "ym2612"
    },
    {
      "channel": 5,
      "note": 68,
      "start": 8.9146,
      "duration": 0.0072,
      "velocity": 127,
      "chip": "ym2612"
    },
    {
      "channel": 4,
      "note": 51,
      "start": 8.944,
      "duration": 0.0098,
      "velocity": 79,
      "chip": "ym2612"
    },
    {
      "channel": 5,
      "note": 58,
      "start": 8.9468,
      "duration": 0.0267,
      "velocity": 127,
      "chip": "ym2612"
    },
    {
      "channel": 3,
      "note": 63,
      "start": 9.0307,
      "duration": 0.1796,
      "velocity": 106,
      "chip": "ym2612"
    },
    {
      "channel": 5,
      "note": 75,
      "start": 9.0882,
      "duration": 0.0075,
      "velocity": 127,
      "chip": "ym2612"
    },
    {
      "channel": 4,
      "note": 51,
      "start": 9.1175,
      "duration": 0.0089,
      "velocity": 79,
      "chip": "ym2612"
    },
    {
      "channel": 5,
      "note": 68,
      "start": 9.1751,
      "duration": 0.0073,
      "velocity": 127,
      "chip": "ym2612"
    },
    {
      "channel": 0,
      "note": 70,
      "start": 9.2037,
      "duration": 0.0813,
      "velocity": 103,
      "chip": "ym2612"
    },
    {
      "channel": 1,
      "note": 67,
      "start": 9.2065,
      "duration": 0.0791,
      "velocity": 103,
      "chip": "ym2612"
    },
    {
      "channel": 2,
      "note": 63,
      "start": 9.2093,
      "duration": 0.077,
      "velocity": 103,
      "chip": "ym2612"
    },
    {
      "channel": 3,
      "note": 75,
      "start": 9.212,
      "duration": 0.0879,
      "velocity": 106,
      "chip": "ym2612"
    },
    {
      "channel": 4,
      "note": 51,
      "start": 9.2148,
      "duration": 0.0098,
      "velocity": 79,
      "chip": "ym2612"
    },
    {
      "channel": 5,
      "note": 58,
      "start": 9.2175,
      "duration": 0.0267,
      "velocity": 127,
      "chip": "ym2612"
    },
    {
      "channel": 3,
      "note": 70,
      "start": 9.3018,
      "duration": 0.0862,
      "velocity": 106,
      "chip": "ym2612"
    },
    {
      "channel": 4,
      "note": 51,
      "start": 9.3046,
      "duration": 0.009,
      "velocity": 79,
      "chip": "ym2612"
    },
    {
      "channel": 5,
      "note": 68,
      "start": 9.3619,
      "duration": 0.0075,
      "velocity": 127,
      "chip": "ym2612"
    },
    {
      "channel": 3,
      "note": 71,
      "start": 9.3902,
      "duration": 0.0847,
      "velocity": 106,
      "chip": "ym2612"
    },
    {
      "channel": 5,
      "note": 68,
      "start": 9.4476,
      "duration": 0.0076,
      "velocity": 127,
      "chip": "ym2612"
    },
    {
      "channel": 3,
      "note": 66,
      "start": 9.4767,
      "duration": 0.4273,
      "velocity": 106,
      "chip": "ym2612"
    },
    {
      "channel": 4,
      "note": 51,
      "start": 9.4795,
      "duration": 0.0097,
      "velocity": 79,
      "chip": "ym2612"
    },
    {
      "channel": 5,
      "note": 58,
      "start": 9.4822,
      "duration": 0.0266,
      "velocity": 127,
      "chip": "ym2612"
    },
    {
      "channel": 5,
      "note": 58,
      "start": 9.6457,
      "duration": 0.037,
      "velocity": 127,
      "chip": "ym2612"
    },
    {
      "channel": 0,
      "note": 71,
      "start": 9.7837,
      "duration": 0.0756,
      "velocity": 103,
      "chip": "ym2612"
    },
    {
      "channel": 1,
      "note": 66,
      "start": 9.7865,
      "duration": 0.0734,
      "velocity": 103,
      "chip": "ym2612"
    },
    {
      "channel": 2,
      "note": 63,
      "start": 9.7893,
      "duration": 0.0712,
      "velocity": 103,
      "chip": "ym2612"
    },
    {
      "channel": 4,
      "note": 51,
      "start": 9.7925,
      "duration": 0.009,
      "velocity": 79,
      "chip": "ym2612"
    },
    {
      "channel": 5,
      "note": 68,
      "start": 9.8502,
      "duration": 0.0074,
      "velocity": 127,
      "chip": "ym2612"
    },
    {
      "channel": 4,
      "note": 56,
      "start": 9.8796,
      "duration": 0.0098,
      "velocity": 79,
      "chip": "ym2612"
    },
    {
      "channel": 5,
      "note": 58,
      "start": 9.8824,
      "duration": 0.027,
      "velocity": 127,
      "chip": "ym2612"
    },
    {
      "channel": 5,
      "note": 68,
      "start": 10.0244,
      "duration": 0.0074,
      "velocity": 127,
      "chip": "ym2612"
    },
    {
      "channel": 4,
      "note": 56,
      "start": 10.055,
      "duration": 0.0088,
      "velocity": 79,
      "chip": "ym2612"
    },
    {
      "channel": 5,
      "note": 68,
      "start": 10.1124,
      "duration": 0.0075,
      "velocity": 127,
      "chip": "ym2612"
    },
    {
      "channel": 3,
      "note": 65,
      "start": 10.1413,
      "duration": 0.2132,
      "velocity": 106,
      "chip": "ym2612"
    },
    {
      "channel": 4,
      "note": 56,
      "start": 10.1441,
      "duration": 0.0098,
      "velocity": 79,
      "chip": "ym2612"
    },
    {
      "channel": 5,
      "note": 58,
      "start": 10.1469,
      "duration": 0.0267,
      "velocity": 127,
      "chip": "ym2612"
    },
    {
      "channel": 5,
      "note": 58,
      "start": 10.2021,
      "duration": 0.0073,
      "velocity": 127,
      "chip": "ym2612"
    },
    {
      "channel": 4,
      "note": 56,
      "start": 10.2658,
      "duration": 0.0089,
      "velocity": 79,
      "chip": "ym2612"
    },
    {
      "channel": 5,
      "note": 68,
      "start": 10.3236,
      "duration": 0.0075,
      "velocity": 127,
      "chip": "ym2612"
    },
    {
      "channel": 3,
      "note": 70,
      "start": 10.3567,
      "duration": 0.2917,
      "velocity": 106,
      "chip": "ym2612"
    },
    {
      "channel": 5,
      "note": 68,
      "start": 10.4146,
      "duration": 0.0075,
      "velocity": 127,
      "chip": "ym2612"
    },
    {
      "channel": 0,
      "note": 73,
      "start": 10.4433,
      "duration": 0.1765,
      "velocity": 103,
      "chip": "ym2612"
    },
    {
      "channel": 1,
      "note": 68,
      "start": 10.4461,
      "duration": 0.1744,
      "velocity": 103,
      "chip": "ym2612"
    },
    {
      "channel": 2,
      "note": 65,
      "start": 10.4488,
      "duration": 0.1722,
      "velocity": 103,
      "chip": "ym2612"
    },
    {
      "channel": 4,
      "note": 56,
      "start": 10.452,
      "duration": 0.0098,
      "velocity": 79,
      "chip": "ym2612"
    },
    {
      "channel": 5,
      "note": 58,
      "start": 10.4548,
      "duration": 0.027,
      "velocity": 127,
      "chip": "ym2612"
    },
    {
      "channel": 0,
      "note": 71,
      "start": 10.6418,
      "duration": 0.0774,
      "velocity": 103,
      "chip": "ym2612"
    },
    {
      "channel": 1,
      "note": 66,
      "start": 10.6446,
      "duration": 0.0753,
      "velocity": 103,
      "chip": "ym2612"
    },
    {
      "channel": 2,
      "note": 63,
      "start": 10.6474,
      "duration": 0.0731,
      "velocity": 103,
      "chip": "ym2612"
    },
    {
      "channel": 3,
      "note": 68,
      "start": 10.6502,
      "duration": 0.1698,
      "velocity": 106,
      "chip": "ym2612"
    },
    {
      "channel": 4,
      "note": 56,
      "start": 10.6529,
      "duration": 0.009,
      "velocity": 79,
      "chip": "ym2612"
    },
    {
      "channel": 5,
      "note": 68,
      "start": 10.7101,
      "duration": 0.0074,
      "velocity": 127,
      "chip": "ym2612"
    },
    {
      "channel": 4,
      "note": 51,
      "start": 10.736,
      "duration": 0.0097,
      "velocity": 79,
      "chip": "ym2612"
    },
    {
      "channel": 5,
      "note": 58,
      "start": 10.7388,
      "duration": 0.0269,
      "velocity": 127,
      "chip": "ym2612"
    },
    {
      "channel": 3,
      "note": 63,
      "start": 10.8222,
      "duration": 0.18,
      "velocity": 106,
      "chip": "ym2612"
    },
    {
      "channel": 5,
      "note": 75,
      "start": 10.8798,
      "duration": 0.0078,
      "velocity": 127,
      "chip": "ym2612"
    },
    {
      "channel": 4,
      "note": 51,
      "start": 10.9095,
      "duration": 0.0088,
      "velocity": 79,
      "chip": "ym2612"
    },
    {
      "channel": 5,
      "note": 68,
      "start": 10.9669,
      "duration": 0.0075,
      "velocity": 127,
      "chip": "ym2612"
    },
    {
      "channel": 0,
      "note": 70,
      "start": 10.9956,
      "duration": 0.0802,
      "velocity": 103,
      "chip": "ym2612"
    },
    {
      "channel": 1,
      "note": 67,
      "start": 10.9984,
      "duration": 0.0781,
      "velocity": 103,
      "chip": "ym2612"
    },
    {
      "channel": 2,
      "note": 63,
      "start": 11.0012,
      "duration": 0.0759,
      "velocity": 103,
      "chip": "ym2612"
    },
    {
      "channel": 3,
      "note": 75,
      "start": 11.0039,
      "duration": 0.0905,
      "velocity": 106,
      "chip": "ym2612"
    },
    {
      "channel": 4,
      "note": 51,
      "start": 11.0067,
      "duration": 0.0098,
      "velocity": 79,
      "chip": "ym2612"
    },
    {
      "channel": 5,
      "note": 58,
      "start": 11.0094,
      "duration": 0.0267,
      "velocity": 127,
      "chip": "ym2612"
    },
    {
      "channel": 3,
      "note": 70,
      "start": 11.0963,
      "duration": 0.0863,
      "velocity": 106,
      "chip": "ym2612"
    },
    {
      "channel": 4,
      "note": 51,
      "start": 11.0991,
      "duration": 0.009,
      "velocity": 79,
      "chip": "ym2612"
    },
    {
      "channel": 5,
      "note": 68,
      "start": 11.1564,
      "duration": 0.0076,
      "velocity": 127,
      "chip": "ym2612"
    },
    {
      "channel": 3,
      "note": 71,
      "start": 11.1848,
      "duration": 0.0812,
      "velocity": 106,
      "chip": "ym2612"
    },
    {
      "channel": 5,
      "note": 68,
      "start": 11.2421,
      "duration": 0.0075,
      "velocity": 127,
      "chip": "ym2612"
    },
    {
      "channel": 3,
      "note": 66,
      "start": 11.2677,
      "duration": 0.4117,
      "velocity": 106,
      "chip": "ym2612"
    },
    {
      "channel": 4,
      "note": 51,
      "start": 11.2705,
      "duration": 0.0097,
      "velocity": 79,
      "chip": "ym2612"
    },
    {
      "channel": 5,
      "note": 58,
      "start": 11.2733,
      "duration": 0.0265,
      "velocity": 127,
      "chip": "ym2612"
    },
    {
      "channel": 5,
      "note": 58,
      "start": 11.4208,
      "duration": 0.037,
      "velocity": 127,
      "chip": "ym2612"
    },
    {
      "channel": 0,
      "note": 71,
      "start": 11.5588,
      "duration": 0.0757,
      "velocity": 103,
      "chip": "ym2612"
    },
    {
      "channel": 1,
      "note": 66,
      "start": 11.5616,
      "duration": 0.0736,
      "velocity": 103,
      "chip": "ym2612"
    },
    {
      "channel": 2,
      "note": 63,
      "start": 11.5644,
      "duration": 0.0714,
      "velocity": 103,
      "chip": "ym2612"
    },
    {
      "channel": 4,
      "note": 51,
      "start": 11.5676,
      "duration": 0.009,
      "velocity": 79,
      "chip": "ym2612"
    },
    {
      "channel": 5,
      "note": 68,
      "start": 11.6254,
      "duration": 0.0074,
      "velocity": 127,
      "chip": "ym2612"
    },
    {
      "channel": 4,
      "note": 56,
      "start": 11.6551,
      "duration": 0.0098,
      "velocity": 79,
      "chip": "ym2612"
    },
    {
      "channel": 5,
      "note": 58,
      "start": 11.6579,
      "duration": 0.0269,
      "velocity": 127,
      "chip": "ym2612"
    },
    {
      "channel": 5,
      "note": 68,
      "start": 11.8005,
      "duration": 0.0075,
      "velocity": 127,
      "chip": "ym2612"
    },
    {
      "channel": 4,
      "note": 56,
      "start": 11.8348,
      "duration": 0.009,
      "velocity": 79,
      "chip": "ym2612"
    },
    {
      "channel": 5,
      "note": 68,
      "start": 11.8924,
      "duration": 0.0073,
      "velocity": 127,
      "chip": "ym2612"
    },
    {
      "channel": 4,
      "note": 56,
      "start": 11.9213,
      "duration": 0.0098,
      "velocity": 79,
      "chip": "ym2612"
    },
    {
      "channel": 5,
      "note": 58,
      "start": 11.9241,
      "duration": 0.0267,
      "velocity": 127,
      "chip": "ym2612"
    },
    {
      "channel": 5,
      "note": 58,
      "start": 11.9792,
      "duration": 0.0075,
      "velocity": 127,
      "chip": "ym2612"
    },
    {
      "channel": 4,
      "note": 56,
      "start": 12.0257,
      "duration": 0.0089,
      "velocity": 79,
      "chip": "ym2612"
    },
    {
      "channel": 5,
      "note": 68,
      "start": 12.0833,
      "duration": 0.0075,
      "velocity": 127,
      "chip": "ym2612"
    },
    {
      "channel": 5,
      "note": 68,
      "start": 12.1722,
      "duration": 0.0075,
      "velocity": 127,
      "chip": "ym2612"
    },
    {
      "channel": 0,
      "note": 73,
      "start": 12.201,
      "duration": 0.182,
      "velocity": 103,
      "chip": "ym2612"
    },
    {
      "channel": 1,
      "note": 68,
      "start": 12.2037,
      "duration": 0.1798,
      "velocity": 103,
      "chip": "ym2612"
    },
    {
      "channel": 2,
      "note": 65,
      "start": 12.2065,
      "duration": 0.1777,
      "velocity": 103,
      "chip": "ym2612"
    },
    {
      "channel": 4,
      "note": 56,
      "start": 12.2097,
      "duration": 0.0098,
      "velocity": 79,
      "chip": "ym2612"
    },
    {
      "channel": 5,
      "note": 58,
      "start": 12.2125,
      "duration": 0.0267,
      "velocity": 127,
      "chip": "ym2612"
    },
    {
      "channel": 0,
      "note": 71,
      "start": 12.405,
      "duration": 0.0773,
      "velocity": 103,
      "chip": "ym2612"
    },
    {
      "channel": 1,
      "note": 66,
      "start": 12.4078,
      "duration": 0.0751,
      "velocity": 103,
      "chip": "ym2612"
    },
    {
      "channel": 2,
      "note": 63,
      "start": 12.4106,
      "duration": 0.073,
      "velocity": 103,
      "chip": "ym2612"
    },
    {
      "channel": 3,
      "note": 69,
      "start": 12.4133,
      "duration": 0.1736,
      "velocity": 106,
      "chip": "ym2612"
    },
    {
      "channel": 4,
      "note": 56,
      "start": 12.4161,
      "duration": 0.009,
      "velocity": 79,
      "chip": "ym2612"
    },
    {
      "channel": 5,
      "note": 68,
      "start": 12.4733,
      "duration": 0.0072,
      "velocity": 127,
      "chip": "ym2612"
    },
    {
      "channel": 4,
      "note": 51,
      "start": 12.5028,
      "duration": 0.0098,
      "velocity": 79,
      "chip": "ym2612"
    },
    {
      "channel": 5,
      "note": 58,
      "start": 12.5056,
      "duration": 0.0267,
      "velocity": 127,
      "chip": "ym2612"
    },
    {
      "channel": 3,
      "note": 63,
      "start": 12.5891,
      "duration": 0.1755,
      "velocity": 106,
      "chip": "ym2612"
    },
    {
      "channel": 5,
      "note": 75,
      "start": 12.6466,
      "duration": 0.0075,
      "velocity": 127,
      "chip": "ym2612"
    },
    {
      "channel": 4,
      "note": 51,
      "start": 12.672,
      "duration": 0.0089,
      "velocity": 79,
      "chip": "ym2612"
    },
    {
      "channel": 5,
      "note": 68,
      "start": 12.7294,
      "duration": 0.0075,
      "velocity": 127,
      "chip": "ym2612"
    },
    {
      "channel": 0,
      "note": 70,
      "start": 12.758,
      "duration": 0.081,
      "velocity": 103,
      "chip": "ym2612"
    },
    {
      "channel": 1,
      "note": 67,
      "start": 12.7608,
      "duration": 0.0789,
      "velocity": 103,
      "chip": "ym2612"
    },
    {
      "channel": 2,
      "note": 63,
      "start": 12.7636,
      "duration": 0.0767,
      "velocity": 103,
      "chip": "ym2612"
    },
    {
      "channel": 3,
      "note": 75,
      "start": 12.7664,
      "duration": 0.0913,
      "velocity": 106,
      "chip": "ym2612"
    },
    {
      "channel": 4,
      "note": 51,
      "start": 12.7691,
      "duration": 0.0098,
      "velocity": 79,
      "chip": "ym2612"
    },
    {
      "channel": 5,
      "note": 58,
      "start": 12.7719,
      "duration": 0.0267,
      "velocity": 127,
      "chip": "ym2612"
    },
    {
      "channel": 3,
      "note": 70,
      "start": 12.8596,
      "duration": 0.0863,
      "velocity": 106,
      "chip": "ym2612"
    },
    {
      "channel": 4,
      "note": 51,
      "start": 12.8624,
      "duration": 0.009,
      "velocity": 79,
      "chip": "ym2612"
    },
    {
      "channel": 5,
      "note": 68,
      "start": 12.9197,
      "duration": 0.0078,
      "velocity": 127,
      "chip": "ym2612"
    },
    {
      "channel": 3,
      "note": 71,
      "start": 12.9481,
      "duration": 0.0844,
      "velocity": 106,
      "chip": "ym2612"
    },
    {
      "channel": 5,
      "note": 68,
      "start": 13.0054,
      "duration": 0.0075,
      "velocity": 127,
      "chip": "ym2612"
    },
    {
      "channel": 3,
      "note": 66,
      "start": 13.0344,
      "duration": 0.4277,
      "velocity": 106,
      "chip": "ym2612"
    },
    {
      "channel": 4,
      "note": 51,
      "start": 13.0372,
      "duration": 0.0097,
      "velocity": 79,
      "chip": "ym2612"
    },
    {
      "channel": 5,
      "note": 58,
      "start": 13.0399,
      "duration": 0.0263,
      "velocity": 127,
      "chip": "ym2612"
    },
    {
      "channel": 5,
      "note": 58,
      "start": 13.2035,
      "duration": 0.0369,
      "velocity": 127,
      "chip": "ym2612"
    },
    {
      "channel": 0,
      "note": 71,
      "start": 13.3414,
      "duration": 0.0756,
      "velocity": 103,
      "chip": "ym2612"
    },
    {
      "channel": 1,
      "note": 66,
      "start": 13.3442,
      "duration": 0.0735,
      "velocity": 103,
      "chip": "ym2612"
    },
    {
      "channel": 2,
      "note": 63,
      "start": 13.347,
      "duration": 0.0713,
      "velocity": 103,
      "chip": "ym2612"
    },
    {
      "channel": 4,
      "note": 51,
      "start": 13.3502,
      "duration": 0.009,
      "velocity": 79,
      "chip": "ym2612"
    },
    {
      "channel": 5,
      "note": 68,
      "start": 13.4079,
      "duration": 0.0074,
      "velocity": 127,
      "chip": "ym2612"
    },
    {
      "channel": 4,
      "note": 56,
      "start": 13.4339,
      "duration": 0.0099,
      "velocity": 79,
      "chip": "ym2612"
    },
    {
      "channel": 5,
      "note": 58,
      "start": 13.4366,
      "duration": 0.027,
      "velocity": 127,
      "chip": "ym2612"
    },
    {
      "channel": 5,
      "note": 68,
      "start": 13.5785,
      "duration": 0.0078,
      "velocity": 127,
      "chip": "ym2612"
    },
    {
      "channel": 4,
      "note": 56,
      "start": 13.613,
      "duration": 0.0089,
      "velocity": 79,
      "chip": "ym2612"
    },
    {
      "channel": 5,
      "note": 68,
      "start": 13.6704,
      "duration": 0.0074,
      "velocity": 127,
      "chip": "ym2612"
    },
    {
      "channel": 3,
      "note": 65,
      "start": 13.6994,
      "duration": 0.2131,
      "velocity": 106,
      "chip": "ym2612"
    },
    {
      "channel": 4,
      "note": 56,
      "start": 13.7022,
      "duration": 0.0098,
      "velocity": 79,
      "chip": "ym2612"
    },
    {
      "channel": 5,
      "note": 58,
      "start": 13.7049,
      "duration": 0.0267,
      "velocity": 127,
      "chip": "ym2612"
    },
    {
      "channel": 5,
      "note": 58,
      "start": 13.7601,
      "duration": 0.0073,
      "velocity": 127,
      "chip": "ym2612"
    },
    {
      "channel": 4,
      "note": 56,
      "start": 13.8237,
      "duration": 0.009,
      "velocity": 79,
      "chip": "ym2612"
    },
    {
      "channel": 5,
      "note": 68,
      "start": 13.8815,
      "duration": 0.0075,
      "velocity": 127,
      "chip": "ym2612"
    },
    {
      "channel": 3,
      "note": 70,
      "start": 13.9146,
      "duration": 0.2722,
      "velocity": 106,
      "chip": "ym2612"
    },
    {
      "channel": 5,
      "note": 68,
      "start": 13.9724,
      "duration": 0.0074,
      "velocity": 127,
      "chip": "ym2612"
    },
    {
      "channel": 0,
      "note": 73,
      "start": 13.9973,
      "duration": 0.1608,
      "velocity": 103,
      "chip": "ym2612"
    },
    {
      "channel": 1,
      "note": 68,
      "start": 14.0001,
      "duration": 0.1587,
      "velocity": 103,
      "chip": "ym2612"
    },
    {
      "channel": 2,
      "note": 65,
      "start": 14.0029,
      "duration": 0.1565,
      "velocity": 103,
      "chip": "ym2612"
    },
    {
      "channel": 4,
      "note": 56,
      "start": 14.0061,
      "duration": 0.0101,
      "velocity": 79,
      "chip": "ym2612"
    },
    {
      "channel": 5,
      "note": 58,
      "start": 14.0088,
      "duration": 0.0272,
      "velocity": 127,
      "chip": "ym2612"
    },
    {
      "channel": 0,
      "note": 71,
      "start": 14.1802,
      "duration": 0.0751,
      "velocity": 103,
      "chip": "ym2612"
    },
    {
      "channel": 1,
      "note": 66,
      "start": 14.183,
      "duration": 0.0729,
      "velocity": 103,
      "chip": "ym2612"
    },
    {
      "channel": 2,
      "note": 63,
      "start": 14.1858,
      "duration": 0.0708,
      "velocity": 103,
      "chip": "ym2612"
    },
    {
      "channel": 3,
      "note": 68,
      "start": 14.1886,
      "duration": 0.192,
      "velocity": 106,
      "chip": "ym2612"
    },
    {
      "channel": 5,
      "note": 68,
      "start": 14.2462,
      "duration": 0.0075,
      "velocity": 127,
      "chip": "ym2612"
    },
    {
      "channel": 5,
      "note": 58,
      "start": 14.2757,
      "duration": 0.0268,
      "velocity": 127,
      "chip": "ym2612"
    },
    {
      "channel": 5,
      "note": 75,
      "start": 14.4105,
      "duration": 0.0066,
      "velocity": 127,
      "chip": "ym2612"
    },
    {
      "channel": 5,
      "note": 68,
      "start": 14.4846,
      "duration": 0.0065,
      "velocity": 127,
      "chip": "ym2612"
    },
    {
      "channel": 0,
      "note": 73,
      "start": 14.5097,
      "duration": 0.0651,
      "velocity": 103,
      "chip": "ym2612"
    },
    {
      "channel": 1,
      "note": 70,
      "start": 14.5125,
      "duration": 0.0629,
      "velocity": 103,
      "chip": "ym2612"
    },
    {
      "channel": 2,
      "note": 66,
      "start": 14.5153,
      "duration": 0.0608,
      "velocity": 103,
      "chip": "ym2612"
    },
    {
      "channel": 5,
      "note": 58,
      "start": 14.5186,
      "duration": 0.0232,
      "velocity": 127,
      "chip": "ym2612"
    },
    {
      "channel": 5,
      "note": 68,
      "start": 14.6404,
      "duration": 0.0066,
      "velocity": 127,
      "chip": "ym2612"
    },
    {
      "channel": 5,
      "note": 68,
      "start": 14.7141,
      "duration": 0.0067,
      "velocity": 127,
      "chip": "ym2612"
    },
    {
      "channel": 5,
      "note": 58,
      "start": 14.7405,
      "duration": 0.0446,
      "velocity": 127,
      "chip": "ym2612"
    },
    {
      "channel": 5,
      "note": 58,
      "start": 14.9272,
      "duration": 0.037,
      "velocity": 127,
      "chip": "ym2612"
    },
    {
      "channel": 0,
      "note": 74,
      "start": 15.0654,
      "duration": 0.0654,
      "velocity": 103,
      "chip": "ym2612"
    },
    {
      "channel": 1,
      "note": 69,
      "start": 15.0682,
      "duration": 0.0632,
      "velocity": 103,
      "chip": "ym2612"
    },
    {
      "channel": 2,
      "note": 66,
      "start": 15.071,
      "duration": 0.061,
      "velocity": 103,
      "chip": "ym2612"
    },
    {
      "channel": 5,
      "note": 68,
      "start": 15.1225,
      "duration": 0.0065,
      "velocity": 127,
      "chip": "ym2612"
    },
    {
      "channel": 5,
      "note": 58,
      "start": 15.1491,
      "duration": 0.0229,
      "velocity": 127,
      "chip": "ym2612"
    },
    {
      "channel": 5,
      "note": 68,
      "start": 15.2712,
      "duration": 0.0066,
      "velocity": 127,
      "chip": "ym2612"
    },
    {
      "channel": 5,
      "note": 68,
      "start": 15.3454,
      "duration": 0.0066,
      "velocity": 127,
      "chip": "ym2612"
    },
    {
      "channel": 5,
      "note": 58,
      "start": 15.3715,
      "duration": 0.0228,
      "velocity": 127,
      "chip": "ym2612"
    },
    {
      "channel": 5,
      "note": 58,
      "start": 15.4201,
      "duration": 0.0066,
      "velocity": 127,
      "chip": "ym2612"
    },
    {
      "channel": 5,
      "note": 68,
      "start": 15.5631,
      "duration": 0.0066,
      "velocity": 127,
      "chip": "ym2612"
    },
    {
      "channel": 5,
      "note": 68,
      "start": 15.6372,
      "duration": 0.0066,
      "velocity": 127,
      "chip": "ym2612"
    },
    {
      "channel": 0,
      "note": 76,
      "start": 15.6627,
      "duration": 0.1938,
      "velocity": 103,
      "chip": "ym2612"
    },
    {
      "channel": 1,
      "note": 71,
      "start": 15.6655,
      "duration": 0.1916,
      "velocity": 103,
      "chip": "ym2612"
    },
    {
      "channel": 2,
      "note": 68,
      "start": 15.6683,
      "duration": 0.1895,
      "velocity": 103,
      "chip": "ym2612"
    },
    {
      "channel": 5,
      "note": 58,
      "start": 15.6716,
      "duration": 0.0364,
      "velocity": 127,
      "chip": "ym2612"
    },
    {
      "channel": 0,
      "note": 74,
      "start": 15.8763,
      "duration": 0.0645,
      "velocity": 103,
      "chip": "ym2612"
    },
    {
      "channel": 1,
      "note": 69,
      "start": 15.879,
      "duration": 0.0624,
      "velocity": 103,
      "chip": "ym2612"
    },
    {
      "channel": 2,
      "note": 66,
      "start": 15.8819,
      "duration": 0.0602,
      "velocity": 103,
      "chip": "ym2612"
    },
    {
      "channel": 5,
      "note": 68,
      "start": 15.9327,
      "duration": 0.0066,
      "velocity": 127,
      "chip": "ym2612"
    },
    {
      "channel": 5,
      "note": 58,
      "start": 15.9561,
      "duration": 0.0233,
      "velocity": 127,
      "chip": "ym2612"
    },
    {
      "channel": 5,
      "note": 75,
      "start": 16.0776,
      "duration": 0.0067,
      "velocity": 127,
      "chip": "ym2612"
    },
    {
      "channel": 5,
      "note": 68,
      "start": 16.1562,
      "duration": 0.0066,
      "velocity": 127,
      "chip": "ym2612"
    },
    {
      "channel": 0,
      "note": 73,
      "start": 16.1813,
      "duration": 0.0642,
      "velocity": 103,
      "chip": "ym2612"
    },
    {
      "channel": 1,
      "note": 70,
      "start": 16.1841,
      "duration": 0.0621,
      "velocity": 103,
      "chip": "ym2612"
    },
    {
      "channel": 2,
      "note": 66,
      "start": 16.1869,
      "duration": 0.0599,
      "velocity": 103,
      "chip": "ym2612"
    },
    {
      "channel": 5,
      "note": 58,
      "start": 16.1902,
      "duration": 0.0231,
      "velocity": 127,
      "chip": "ym2612"
    },
    {
      "channel": 5,
      "note": 68,
      "start": 16.3029,
      "duration": 0.0059,
      "velocity": 127,
      "chip": "ym2612"
    },
    {
      "channel": 5,
      "note": 68,
      "start": 16.3663,
      "duration": 0.0058,
      "velocity": 127,
      "chip": "ym2612"
    },
    {
      "channel": 5,
      "note": 58,
      "start": 16.3871,
      "duration": 0.0421,
      "velocity": 127,
      "chip": "ym2612"
    },
    {
      "channel": 5,
      "note": 58,
      "start": 16.5713,
      "duration": 0.037,
      "velocity": 127,
      "chip": "ym2612"
    },
    {
      "channel": 0,
      "note": 74,
      "start": 16.7099,
      "duration": 0.0558,
      "velocity": 103,
      "chip": "ym2612"
    },
    {
      "channel": 1,
      "note": 69,
      "start": 16.7127,
      "duration": 0.0537,
      "velocity": 103,
      "chip": "ym2612"
    },
    {
      "channel": 2,
      "note": 66,
      "start": 16.7155,
      "duration": 0.0515,
      "velocity": 103,
      "chip": "ym2612"
    },
    {
      "channel": 5,
      "note": 68,
      "start": 16.7583,
      "duration": 0.0058,
      "velocity": 127,
      "chip": "ym2612"
    },
    {
      "channel": 5,
      "note": 58,
      "start": 16.7822,
      "duration": 0.0202,
      "velocity": 127,
      "chip": "ym2612"
    },
    {
      "channel": 5,
      "note": 68,
      "start": 16.8862,
      "duration": 0.0058,
      "velocity": 127,
      "chip": "ym2612"
    },
    {
      "channel": 5,
      "note": 68,
      "start": 16.9497,
      "duration": 0.0057,
      "velocity": 127,
      "chip": "ym2612"
    },
    {
      "channel": 5,
      "note": 58,
      "start": 16.9729,
      "duration": 0.0197,
      "velocity": 127,
      "chip": "ym2612"
    },
    {
      "channel": 5,
      "note": 58,
      "start": 17.0156,
      "duration": 0.0123,
      "velocity": 127,
      "chip": "ym2612"
    },
    {
      "channel": 5,
      "note": 68,
      "start": 17.1503,
      "duration": 0.0059,
      "velocity": 127,
      "chip": "ym2612"
    },
    {
      "channel": 5,
      "note": 68,
      "start": 17.2137,
      "duration": 0.0059,
      "velocity": 127,
      "chip": "ym2612"
    },
    {
      "channel": 0,
      "note": 76,
      "start": 17.2371,
      "duration": 0.2063,
      "velocity": 103,
      "chip": "ym2612"
    },
    {
      "channel": 1,
      "note": 71,
      "start": 17.2399,
      "duration": 0.2042,
      "velocity": 103,
      "chip": "ym2612"
    },
    {
      "channel": 2,
      "note": 68,
      "start": 17.2427,
      "duration": 0.202,
      "velocity": 103,
      "chip": "ym2612"
    },
    {
      "channel": 5,
      "note": 58,
      "start": 17.2456,
      "duration": 0.0501,
      "velocity": 127,
      "chip": "ym2612"
    },
    {
      "channel": 0,
      "note": 74,
      "start": 17.4642,
      "duration": 0.0665,
      "velocity": 103,
      "chip": "ym2612"
    },
    {
      "channel": 1,
      "note": 69,
      "start": 17.467,
      "duration": 0.0643,
      "velocity": 103,
      "chip": "ym2612"
    },
    {
      "channel": 2,
      "note": 66,
      "start": 17.4698,
      "duration": 0.0622,
      "velocity": 103,
      "chip": "ym2612"
    },
    {
      "channel": 3,
      "note": 66,
      "start": 17.4726,
      "duration": 0.008,
      "velocity": 79,
      "chip": "ym2612"
    },
    {
      "channel": 5,
      "note": 68,
      "start": 17.5226,
      "duration": 0.0066,
      "velocity": 127,
      "chip": "ym2612"
    },
    {
      "channel": 3,
      "note": 42,
      "start": 17.5488,
      "duration": 0.009,
      "velocity": 79,
      "chip": "ym2612"
    },
    {
      "channel": 5,
      "note": 58,
      "start": 17.5516,
      "duration": 0.0231,
      "velocity": 127,
      "chip": "ym2612"
    },
    {
      "channel": 5,
      "note": 75,
      "start": 17.6742,
      "duration": 0.0066,
      "velocity": 127,
      "chip": "ym2612"
    },
    {
      "channel": 3,
      "note": 42,
      "start": 17.7011,
      "duration": 0.0078,
      "velocity": 79,
      "chip": "ym2612"
    },
    {
      "channel": 5,
      "note": 68,
      "start": 17.7512,
      "duration": 0.0066,
      "velocity": 127,
      "chip": "ym2612"
    },
    {
      "channel": 0,
      "note": 73,
      "start": 17.7765,
      "duration": 0.0685,
      "velocity": 103,
      "chip": "ym2612"
    },
    {
      "channel": 1,
      "note": 70,
      "start": 17.7793,
      "duration": 0.0664,
      "velocity": 103,
      "chip": "ym2612"
    },
    {
      "channel": 2,
      "note": 66,
      "start": 17.7821,
      "duration": 0.0642,
      "velocity": 103,
      "chip": "ym2612"
    },
    {
      "channel": 3,
      "note": 42,
      "start": 17.7848,
      "duration": 0.009,
      "velocity": 79,
      "chip": "ym2612"
    },
    {
      "channel": 5,
      "note": 58,
      "start": 17.7876,
      "duration": 0.0233,
      "velocity": 127,
      "chip": "ym2612"
    },
    {
      "channel": 3,
      "note": 42,
      "start": 17.8633,
      "duration": 0.0081,
      "velocity": 79,
      "chip": "ym2612"
    },
    {
      "channel": 5,
      "note": 68,
      "start": 17.9139,
      "duration": 0.0066,
      "velocity": 127,
      "chip": "ym2612"
    },
    {
      "channel": 5,
      "note": 68,
      "start": 17.9873,
      "duration": 0.0066,
      "velocity": 127,
      "chip": "ym2612"
    },
    {
      "channel": 3,
      "note": 42,
      "start": 18.0132,
      "duration": 0.0087,
      "velocity": 79,
      "chip": "ym2612"
    },
    {
      "channel": 5,
      "note": 58,
      "start": 18.016,
      "duration": 0.0431,
      "velocity": 127,
      "chip": "ym2612"
    },
    {
      "channel": 5,
      "note": 58,
      "start": 18.2011,
      "duration": 0.0369,
      "velocity": 127,
      "chip": "ym2612"
    },
    {
      "channel": 0,
      "note": 74,
      "start": 18.3394,
      "duration": 0.0676,
      "velocity": 103,
      "chip": "ym2612"
    },
    {
      "channel": 1,
      "note": 69,
      "start": 18.3422,
      "duration": 0.0654,
      "velocity": 103,
      "chip": "ym2612"
    },
    {
      "channel": 2,
      "note": 66,
      "start": 18.3451,
      "duration": 0.0632,
      "velocity": 103,
      "chip": "ym2612"
    },
    {
      "channel": 3,
      "note": 42,
      "start": 18.3478,
      "duration": 0.0081,
      "velocity": 79,
      "chip": "ym2612"
    },
    {
      "channel": 5,
      "note": 68,
      "start": 18.3989,
      "duration": 0.0066,
      "velocity": 127,
      "chip": "ym2612"
    },
    {
      "channel": 3,
      "note": 47,
      "start": 18.4222,
      "duration": 0.009,
      "velocity": 79,
      "chip": "ym2612"
    },
    {
      "channel": 5,
      "note": 58,
      "start": 18.425,
      "duration": 0.0234,
      "velocity": 127,
      "chip": "ym2612"
    },
    {
      "channel": 5,
      "note": 68,
      "start": 18.5464,
      "duration": 0.0067,
      "velocity": 127,
      "chip": "ym2612"
    },
    {
      "channel": 3,
      "note": 47,
      "start": 18.5771,
      "duration": 0.008,
      "velocity": 79,
      "chip": "ym2612"
    },
    {
      "channel": 5,
      "note": 68,
      "start": 18.6279,
      "duration": 0.0066,
      "velocity": 127,
      "chip": "ym2612"
    },
    {
      "channel": 3,
      "note": 47,
      "start": 18.6539,
      "duration": 0.0089,
      "velocity": 79,
      "chip": "ym2612"
    },
    {
      "channel": 5,
      "note": 58,
      "start": 18.6567,
      "duration": 0.023,
      "velocity": 127,
      "chip": "ym2612"
    },
    {
      "channel": 5,
      "note": 58,
      "start": 18.7053,
      "duration": 0.0066,
      "velocity": 127,
      "chip": "ym2612"
    },
    {
      "channel": 3,
      "note": 47,
      "start": 18.7909,
      "duration": 0.008,
      "velocity": 79,
      "chip": "ym2612"
    },
    {
      "channel": 5,
      "note": 68,
      "start": 18.8419,
      "duration": 0.0067,
      "velocity": 127,
      "chip": "ym2612"
    },
    {
      "channel": 5,
      "note": 68,
      "start": 18.9148,
      "duration": 0.0066,
      "velocity": 127,
      "chip": "ym2612"
    },
    {
      "channel": 0,
      "note": 76,
      "start": 18.9377,
      "duration": 0.1776,
      "velocity": 103,
      "chip": "ym2612"
    },
    {
      "channel": 1,
      "note": 71,
      "start": 18.9405,
      "duration": 0.1754,
      "velocity": 103,
      "chip": "ym2612"
    },
    {
      "channel": 2,
      "note": 68,
      "start": 18.9434,
      "duration": 0.1732,
      "velocity": 103,
      "chip": "ym2612"
    },
    {
      "channel": 3,
      "note": 47,
      "start": 18.9461,
      "duration": 0.009,
      "velocity": 79,
      "chip": "ym2612"
    },
    {
      "channel": 5,
      "note": 58,
      "start": 18.9489,
      "duration": 0.0233,
      "velocity": 127,
      "chip": "ym2612"
    },
    {
      "channel": 0,
      "note": 74,
      "start": 19.1352,
      "duration": 0.0661,
      "velocity": 103,
      "chip": "ym2612"
    },
    {
      "channel": 1,
      "note": 69,
      "start": 19.138,
      "duration": 0.064,
      "velocity": 103,
      "chip": "ym2612"
    },
    {
      "channel": 2,
      "note": 66,
      "start": 19.1408,
      "duration": 0.0619,
      "velocity": 103,
      "chip": "ym2612"
    },
    {
      "channel": 3,
      "note": 47,
      "start": 19.1436,
      "duration": 0.0079,
      "velocity": 79,
      "chip": "ym2612"
    },
    {
      "channel": 5,
      "note": 68,
      "start": 19.1934,
      "duration": 0.0066,
      "velocity": 127,
      "chip": "ym2612"
    },
    {
      "channel": 3,
      "note": 42,
      "start": 19.2196,
      "duration": 0.009,
      "velocity": 79,
      "chip": "ym2612"
    },
    {
      "channel": 5,
      "note": 58,
      "start": 19.2224,
      "duration": 0.0231,
      "velocity": 127,
      "chip": "ym2612"
    },
    {
      "channel": 5,
      "note": 75,
      "start": 19.3445,
      "duration": 0.0066,
      "velocity": 127,
      "chip": "ym2612"
    },
    {
      "channel": 3,
      "note": 42,
      "start": 19.3759,
      "duration": 0.0079,
      "velocity": 79,
      "chip": "ym2612"
    },
    {
      "channel": 5,
      "note": 68,
      "start": 19.4263,
      "duration": 0.0065,
      "velocity": 127,
      "chip": "ym2612"
    },
    {
      "channel": 0,
      "note": 73,
      "start": 19.4515,
      "duration": 0.0695,
      "velocity": 103,
      "chip": "ym2612"
    },
    {
      "channel": 1,
      "note": 70,
      "start": 19.4544,
      "duration": 0.0673,
      "velocity": 103,
      "chip": "ym2612"
    },
    {
      "channel": 2,
      "note": 66,
      "start": 19.4572,
      "duration": 0.0652,
      "velocity": 103,
      "chip": "ym2612"
    },
    {
      "channel": 3,
      "note": 42,
      "start": 19.4599,
      "duration": 0.009,
      "velocity": 79,
      "chip": "ym2612"
    },
    {
      "channel": 5,
      "note": 58,
      "start": 19.4627,
      "duration": 0.0234,
      "velocity": 127,
      "chip": "ym2612"
    },
    {
      "channel": 3,
      "note": 42,
      "start": 19.5389,
      "duration": 0.008,
      "velocity": 79,
      "chip": "ym2612"
    },
    {
      "channel": 5,
      "note": 68,
      "start": 19.5892,
      "duration": 0.0065,
      "velocity": 127,
      "chip": "ym2612"
    },
    {
      "channel": 5,
      "note": 68,
      "start": 19.6626,
      "duration": 0.0064,
      "velocity": 127,
      "chip": "ym2612"
    },
    {
      "channel": 3,
      "note": 42,
      "start": 19.6886,
      "duration": 0.0089,
      "velocity": 79,
      "chip": "ym2612"
    },
    {
      "channel": 5,
      "note": 58,
      "start": 19.6914,
      "duration": 0.043,
      "velocity": 127,
      "chip": "ym2612"
    },
    {
      "channel": 5,
      "note": 58,
      "start": 19.8764,
      "duration": 0.0371,
      "velocity": 127,
      "chip": "ym2612"
    },
    {
      "channel": 0,
      "note": 74,
      "start": 20.0148,
      "duration": 0.0673,
      "velocity": 103,
      "chip": "ym2612"
    },
    {
      "channel": 1,
      "note": 69,
      "start": 20.0176,
      "duration": 0.0651,
      "velocity": 103,
      "chip": "ym2612"
    },
    {
      "channel": 2,
      "note": 66,
      "start": 20.0204,
      "duration": 0.063,
      "velocity": 103,
      "chip": "ym2612"
    },
    {
      "channel": 3,
      "note": 42,
      "start": 20.0232,
      "duration": 0.0081,
      "velocity": 79,
      "chip": "ym2612"
    },
    {
      "channel": 5,
      "note": 68,
      "start": 20.074,
      "duration": 0.0066,
      "velocity": 127,
      "chip": "ym2612"
    },
    {
      "channel": 3,
      "note": 47,
      "start": 20.1005,
      "duration": 0.009,
      "velocity": 79,
      "chip": "ym2612"
    },
    {
      "channel": 5,
      "note": 58,
      "start": 20.1033,
      "duration": 0.0231,
      "velocity": 127,
      "chip": "ym2612"
    },
    {
      "channel": 5,
      "note": 68,
      "start": 20.2251,
      "duration": 0.0066,
      "velocity": 127,
      "chip": "ym2612"
    },
    {
      "channel": 3,
      "note": 47,
      "start": 20.251,
      "duration": 0.0079,
      "velocity": 79,
      "chip": "ym2612"
    },
    {
      "channel": 5,
      "note": 68,
      "start": 20.3018,
      "duration": 0.0066,
      "velocity": 127,
      "chip": "ym2612"
    },
    {
      "channel": 3,
      "note": 47,
      "start": 20.3278,
      "duration": 0.0089,
      "velocity": 79,
      "chip": "ym2612"
    },
    {
      "channel": 5,
      "note": 58,
      "start": 20.3306,
      "duration": 0.023,
      "velocity": 127,
      "chip": "ym2612"
    },
    {
      "channel": 5,
      "note": 58,
      "start": 20.3793,
      "duration": 0.0066,
      "velocity": 127,
      "chip": "ym2612"
    },
    {
      "channel": 3,
      "note": 47,
      "start": 20.465,
      "duration": 0.008,
      "velocity": 79,
      "chip": "ym2612"
    },
    {
      "channel": 5,
      "note": 68,
      "start": 20.5158,
      "duration": 0.0066,
      "velocity": 127,
      "chip": "ym2612"
    },
    {
      "channel": 5,
      "note": 68,
      "start": 20.5889,
      "duration": 0.0066,
      "velocity": 127,
      "chip": "ym2612"
    },
    {
      "channel": 0,
      "note": 76,
      "start": 20.6149,
      "duration": 0.1937,
      "velocity": 103,
      "chip": "ym2612"
    },
    {
      "channel": 1,
      "note": 71,
      "start": 20.6177,
      "duration": 0.1916,
      "velocity": 103,
      "chip": "ym2612"
    },
    {
      "channel": 2,
      "note": 68,
      "start": 20.6205,
      "duration": 0.1894,
      "velocity": 103,
      "chip": "ym2612"
    },
    {
      "channel": 3,
      "note": 47,
      "start": 20.6232,
      "duration": 0.009,
      "velocity": 79,
      "chip": "ym2612"
    },
    {
      "channel": 5,
      "note": 58,
      "start": 20.626,
      "duration": 0.0344,
      "velocity": 127,
      "chip": "ym2612"
    }
  ]
}