{
  "track_name": "07 - Dr. Maybe",
  "duration_sec": 33.333,
  "sample_rate": 44100,
  "note_count": 520,
  "unique_pitches": 30,
  "pitch_range": 42,
  "avg_note_duration": 0.178,
  "reconstruction_stats": {
    "notes_reconstructed": 520,
    "keyon_events": 520,
    "keyoff_events": 520,
    "orphan_keyons": 0,
    "unique_pitches": 30,
    "pitch_range": 42,
    "avg_duration_sec": 0.178
  },
  "metadata": {
    "source": "J\\James Pond II - Codename RoboCod\\07 - Dr. Maybe.vgz"
  },
  "notes": [
    {
      "channel": 0,
      "note": 75,
      "start": 0.0,
      "duration": 0.0,
      "velocity": 86,
      "chip": "ym2612"
    },
    {
      "channel": 0,
      "note": 72,
      "start": 0.0,
      "duration": 0.0,
      "velocity": 86,
      "chip": "ym2612"
    },
    {
      "channel": 0,
      "note": 68,
      "start": 0.0,
      "duration": 0.0,
      "velocity": 1,
      "chip": "ym2612"
    },
    {
      "channel": 1,
      "note": 44,
      "start": 0.0,
      "duration": 0.0,
      "velocity": 98,
      "chip": "ym2612"
    },
    {
      "channel": 1,
      "note": 80,
      "start": 0.0,
      "duration": 0.0,
      "velocity": 100,
      "chip": "ym2612"
    },
    {
      "channel": 1,
      "note": 39,
      "start": 0.0,
      "duration": 0.0,
      "velocity": 1,
      "chip": "ym2612"
    },
    {
      "channel": 2,
      "note": 68,
      "start": 0.0,
      "duration": 0.0,
      "velocity": 98,
      "chip": "ym2612"
    },
    {
      "channel": 2,
      "note": 72,
      "start": 0.0,
      "duration": 0.0,
      "velocity": 1,
      "chip": "ym2612"
    },
    {
      "channel": 0,
      "note": 63,
      "start": 0.0095,
      "duration": 0.1481,
      "velocity": 92,
      "chip": "ym2612"
    },
    {
      "channel": 1,
      "note": 80,
      "start": 0.011,
      "duration": 0.1466,
      "velocity": 100,
      "chip": "ym2612"
    },
    {
      "channel": 2,
      "note": 72,
      "start": 0.0125,
      "duration": 0.1453,
      "velocity": 92,
      "chip": "ym2612"
    },
    {
      "channel": 0,
      "note": 64,
      "start": 0.1744,
      "duration": 0.1499,
      "velocity": 92,
      "chip": "ym2612"
    },
    {
      "channel": 1,
      "note": 40,
      "start": 0.1746,
      "duration": 0.1498,
      "velocity": 100,
      "chip": "ym2612"
    },
    {
      "channel": 2,
      "note": 52,
      "start": 0.1748,
      "duration": 0.1497,
      "velocity": 92,
      "chip": "ym2612"
    },
    {
      "channel": 0,
      "note": 64,
      "start": 0.341,
      "duration": 0.15,
      "velocity": 92,
      "chip": "ym2612"
    },
    {
      "channel": 1,
      "note": 40,
      "start": 0.3413,
      "duration": 0.1498,
      "velocity": 100,
      "chip": "ym2612"
    },
    {
      "channel": 2,
      "note": 52,
      "start": 0.3415,
      "duration": 0.1497,
      "velocity": 92,
      "chip": "ym2612"
    },
    {
      "channel": 0,
      "note": 67,
      "start": 0.5078,
      "duration": 0.1498,
      "velocity": 92,
      "chip": "ym2612"
    },
    {
      "channel": 1,
      "note": 43,
      "start": 0.508,
      "duration": 0.1497,
      "velocity": 100,
      "chip": "ym2612"
    },
    {
      "channel": 2,
      "note": 55,
      "start": 0.5082,
      "duration": 0.1496,
      "velocity": 92,
      "chip": "ym2612"
    },
    {
      "channel": 0,
      "note": 62,
      "start": 0.6756,
      "duration": 0.1486,
      "velocity": 86,
      "chip": "ym2612"
    },
    {
      "channel": 1,
      "note": 38,
      "start": 0.6759,
      "duration": 0.1484,
      "velocity": 100,
      "chip": "ym2612"
    },
    {
      "channel": 2,
      "note": 50,
      "start": 0.6761,
      "duration": 0.1483,
      "velocity": 92,
      "chip": "ym2612"
    },
    {
      "channel": 0,
      "note": 64,
      "start": 0.8412,
      "duration": 0.1498,
      "velocity": 86,
      "chip": "ym2612"
    },
    {
      "channel": 1,
      "note": 40,
      "start": 0.8414,
      "duration": 0.1497,
      "velocity": 100,
      "chip": "ym2612"
    },
    {
      "channel": 2,
      "note": 52,
      "start": 0.8416,
      "duration": 0.1495,
      "velocity": 92,
      "chip": "ym2612"
    },
    {
      "channel": 0,
      "note": 64,
      "start": 1.0077,
      "duration": 0.1499,
      "velocity": 86,
      "chip": "ym2612"
    },
    {
      "channel": 1,
      "note": 40,
      "start": 1.008,
      "duration": 0.1498,
      "velocity": 100,
      "chip": "ym2612"
    },
    {
      "channel": 2,
      "note": 52,
      "start": 1.0082,
      "duration": 0.1497,
      "velocity": 92,
      "chip": "ym2612"
    },
    {
      "channel": 0,
      "note": 67,
      "start": 1.1744,
      "duration": 0.1498,
      "velocity": 86,
      "chip": "ym2612"
    },
    {
      "channel": 1,
      "note": 43,
      "start": 1.1747,
      "duration": 0.1496,
      "velocity": 100,
      "chip": "ym2612"
    },
    {
      "channel": 2,
      "note": 55,
      "start": 1.1749,
      "duration": 0.1496,
      "velocity": 92,
      "chip": "ym2612"
    },
    {
      "channel": 0,
      "note": 62,
      "start": 1.3427,
      "duration": 0.1483,
      "velocity": 92,
      "chip": "ym2612"
    },
    {
      "channel": 1,
      "note": 38,
      "start": 1.3442,
      "duration": 0.1468,
      "velocity": 100,
      "chip": "ym2612"
    },
    {
      "channel": 2,
      "note": 50,
      "start": 1.3457,
      "duration": 0.1455,
      "velocity": 92,
      "chip": "ym2612"
    },
    {
      "channel": 0,
      "note": 64,
      "start": 1.5078,
      "duration": 0.1499,
      "velocity": 92,
      "chip": "ym2612"
    },
    {
      "channel": 1,
      "note": 40,
      "start": 1.508,
      "duration": 0.1498,
      "velocity": 100,
      "chip": "ym2612"
    },
    {
      "channel": 2,
      "note": 52,
      "start": 1.5082,
      "duration": 0.1497,
      "velocity": 92,
      "chip": "ym2612"
    },
    {
      "channel": 0,
      "note": 64,
      "start": 1.675,
      "duration": 0.1493,
      "velocity": 92,
      "chip": "ym2612"
    },
    {
      "channel": 1,
      "note": 40,
      "start": 1.6753,
      "duration": 0.1491,
      "velocity": 100,
      "chip": "ym2612"
    },
    {
      "channel": 2,
      "note": 52,
      "start": 1.6755,
      "duration": 0.149,
      "velocity": 92,
      "chip": "ym2612"
    },
    {
      "channel": 0,
      "note": 67,
      "start": 1.8433,
      "duration": 0.1478,
      "velocity": 92,
      "chip": "ym2612"
    },
    {
      "channel": 1,
      "note": 43,
      "start": 1.8435,
      "duration": 0.1478,
      "velocity": 100,
      "chip": "ym2612"
    },
    {
      "channel": 2,
      "note": 55,
      "start": 1.8437,
      "duration": 0.1476,
      "velocity": 92,
      "chip": "ym2612"
    },
    {
      "channel": 0,
      "note": 62,
      "start": 2.0094,
      "duration": 0.1485,
      "velocity": 86,
      "chip": "ym2612"
    },
    {
      "channel": 1,
      "note": 38,
      "start": 2.0097,
      "duration": 0.1483,
      "velocity": 100,
      "chip": "ym2612"
    },
    {
      "channel": 2,
      "note": 50,
      "start": 2.0099,
      "duration": 0.1482,
      "velocity": 92,
      "chip": "ym2612"
    },
    {
      "channel": 0,
      "note": 64,
      "start": 2.1746,
      "duration": 0.15,
      "velocity": 86,
      "chip": "ym2612"
    },
    {
      "channel": 1,
      "note": 40,
      "start": 2.1748,
      "duration": 0.1499,
      "velocity": 100,
      "chip": "ym2612"
    },
    {
      "channel": 2,
      "note": 52,
      "start": 2.175,
      "duration": 0.1497,
      "velocity": 92,
      "chip": "ym2612"
    },
    {
      "channel": 0,
      "note": 64,
      "start": 2.3413,
      "duration": 0.1498,
      "velocity": 86,
      "chip": "ym2612"
    },
    {
      "channel": 1,
      "note": 40,
      "start": 2.3415,
      "duration": 0.1497,
      "velocity": 100,
      "chip": "ym2612"
    },
    {
      "channel": 2,
      "note": 52,
      "start": 2.3417,
      "duration": 0.1495,
      "velocity": 92,
      "chip": "ym2612"
    },
    {
      "channel": 0,
      "note": 67,
      "start": 2.5079,
      "duration": 0.1498,
      "velocity": 86,
      "chip": "ym2612"
    },
    {
      "channel": 1,
      "note": 43,
      "start": 2.5081,
      "duration": 0.1498,
      "velocity": 100,
      "chip": "ym2612"
    },
    {
      "channel": 2,
      "note": 55,
      "start": 2.5083,
      "duration": 0.1495,
      "velocity": 92,
      "chip": "ym2612"
    },
    {
      "channel": 0,
      "note": 62,
      "start": 2.6763,
      "duration": 0.1481,
      "velocity": 92,
      "chip": "ym2612"
    },
    {
      "channel": 1,
      "note": 38,
      "start": 2.6778,
      "duration": 0.1468,
      "velocity": 100,
      "chip": "ym2612"
    },
    {
      "channel": 2,
      "note": 50,
      "start": 2.6793,
      "duration": 0.1453,
      "velocity": 92,
      "chip": "ym2612"
    },
    {
      "channel": 0,
      "note": 64,
      "start": 2.8412,
      "duration": 0.15,
      "velocity": 92,
      "chip": "ym2612"
    },
    {
      "channel": 1,
      "note": 40,
      "start": 2.8415,
      "duration": 0.1498,
      "velocity": 100,
      "chip": "ym2612"
    },
    {
      "channel": 2,
      "note": 52,
      "start": 2.8417,
      "duration": 0.1497,
      "velocity": 92,
      "chip": "ym2612"
    },
    {
      "channel": 0,
      "note": 64,
      "start": 3.008,
      "duration": 0.1498,
      "velocity": 92,
      "chip": "ym2612"
    },
    {
      "channel": 1,
      "note": 40,
      "start": 3.0082,
      "duration": 0.1497,
      "velocity": 100,
      "chip": "ym2612"
    },
    {
      "channel": 2,
      "note": 52,
      "start": 3.0084,
      "duration": 0.1495,
      "velocity": 92,
      "chip": "ym2612"
    },
    {
      "channel": 0,
      "note": 67,
      "start": 3.1746,
      "duration": 0.15,
      "velocity": 92,
      "chip": "ym2612"
    },
    {
      "channel": 1,
      "note": 43,
      "start": 3.1748,
      "duration": 0.1499,
      "velocity": 100,
      "chip": "ym2612"
    },
    {
      "channel": 2,
      "note": 55,
      "start": 3.175,
      "duration": 0.1497,
      "velocity": 92,
      "chip": "ym2612"
    },
    {
      "channel": 0,
      "note": 62,
      "start": 3.3426,
      "duration": 0.1486,
      "velocity": 86,
      "chip": "ym2612"
    },
    {
      "channel": 1,
      "note": 38,
      "start": 3.3428,
      "duration": 0.1484,
      "velocity": 100,
      "chip": "ym2612"
    },
    {
      "channel": 2,
      "note": 50,
      "start": 3.343,
      "duration": 0.1483,
      "velocity": 92,
      "chip": "ym2612"
    },
    {
      "channel": 0,
      "note": 64,
      "start": 3.508,
      "duration": 0.1498,
      "velocity": 86,
      "chip": "ym2612"
    },
    {
      "channel": 1,
      "note": 40,
      "start": 3.5082,
      "duration": 0.1497,
      "velocity": 100,
      "chip": "ym2612"
    },
    {
      "channel": 2,
      "note": 52,
      "start": 3.5084,
      "duration": 0.1495,
      "velocity": 92,
      "chip": "ym2612"
    },
    {
      "channel": 0,
      "note": 64,
      "start": 3.6745,
      "duration": 0.15,
      "velocity": 86,
      "chip": "ym2612"
    },
    {
      "channel": 1,
      "note": 40,
      "start": 3.6748,
      "duration": 0.1498,
      "velocity": 100,
      "chip": "ym2612"
    },
    {
      "channel": 2,
      "note": 52,
      "start": 3.6749,
      "duration": 0.1498,
      "velocity": 92,
      "chip": "ym2612"
    },
    {
      "channel": 0,
      "note": 67,
      "start": 3.8412,
      "duration": 0.1499,
      "velocity": 86,
      "chip": "ym2612"
    },
    {
      "channel": 1,
      "note": 43,
      "start": 3.8415,
      "duration": 0.1497,
      "velocity": 100,
      "chip": "ym2612"
    },
    {
      "channel": 2,
      "note": 55,
      "start": 3.8417,
      "duration": 0.1495,
      "velocity": 92,
      "chip": "ym2612"
    },
    {
      "channel": 0,
      "note": 62,
      "start": 4.0095,
      "duration": 0.1483,
      "velocity": 92,
      "chip": "ym2612"
    },
    {
      "channel": 1,
      "note": 38,
      "start": 4.011,
      "duration": 0.1469,
      "velocity": 100,
      "chip": "ym2612"
    },
    {
      "channel": 2,
      "note": 50,
      "start": 4.0125,
      "duration": 0.1455,
      "velocity": 92,
      "chip": "ym2612"
    },
    {
      "channel": 0,
      "note": 64,
      "start": 4.1746,
      "duration": 0.15,
      "velocity": 92,
      "chip": "ym2612"
    },
    {
      "channel": 1,
      "note": 40,
      "start": 4.1748,
      "duration": 0.1498,
      "velocity": 100,
      "chip": "ym2612"
    },
    {
      "channel": 2,
      "note": 52,
      "start": 4.175,
      "duration": 0.1498,
      "velocity": 92,
      "chip": "ym2612"
    },
    {
      "channel": 0,
      "note": 64,
      "start": 4.3413,
      "duration": 0.1499,
      "velocity": 92,
      "chip": "ym2612"
    },
    {
      "channel": 1,
      "note": 40,
      "start": 4.3415,
      "duration": 0.1497,
      "velocity": 100,
      "chip": "ym2612"
    },
    {
      "channel": 2,
      "note": 52,
      "start": 4.3417,
      "duration": 0.1496,
      "velocity": 92,
      "chip": "ym2612"
    },
    {
      "channel": 0,
      "note": 67,
      "start": 4.5079,
      "duration": 0.1498,
      "velocity": 92,
      "chip": "ym2612"
    },
    {
      "channel": 1,
      "note": 43,
      "start": 4.5082,
      "duration": 0.1497,
      "velocity": 100,
      "chip": "ym2612"
    },
    {
      "channel": 2,
      "note": 55,
      "start": 4.5083,
      "duration": 0.1495,
      "velocity": 92,
      "chip": "ym2612"
    },
    {
      "channel": 0,
      "note": 62,
      "start": 4.6759,
      "duration": 0.1485,
      "velocity": 86,
      "chip": "ym2612"
    },
    {
      "channel": 1,
      "note": 38,
      "start": 4.6762,
      "duration": 0.1483,
      "velocity": 100,
      "chip": "ym2612"
    },
    {
      "channel": 2,
      "note": 50,
      "start": 4.6763,
      "duration": 0.1482,
      "velocity": 92,
      "chip": "ym2612"
    },
    {
      "channel": 0,
      "note": 64,
      "start": 4.8413,
      "duration": 0.1499,
      "velocity": 86,
      "chip": "ym2612"
    },
    {
      "channel": 1,
      "note": 40,
      "start": 4.8415,
      "duration": 0.1497,
      "velocity": 100,
      "chip": "ym2612"
    },
    {
      "channel": 2,
      "note": 52,
      "start": 4.8417,
      "duration": 0.1496,
      "velocity": 92,
      "chip": "ym2612"
    },
    {
      "channel": 0,
      "note": 64,
      "start": 5.0079,
      "duration": 0.1499,
      "velocity": 86,
      "chip": "ym2612"
    },
    {
      "channel": 1,
      "note": 40,
      "start": 5.0082,
      "duration": 0.1497,
      "velocity": 100,
      "chip": "ym2612"
    },
    {
      "channel": 2,
      "note": 52,
      "start": 5.0083,
      "duration": 0.1496,
      "velocity": 92,
      "chip": "ym2612"
    },
    {
      "channel": 0,
      "note": 67,
      "start": 5.1745,
      "duration": 0.15,
      "velocity": 86,
      "chip": "ym2612"
    },
    {
      "channel": 1,
      "note": 43,
      "start": 5.1748,
      "duration": 0.1498,
      "velocity": 100,
      "chip": "ym2612"
    },
    {
      "channel": 2,
      "note": 55,
      "start": 5.1749,
      "duration": 0.1498,
      "velocity": 92,
      "chip": "ym2612"
    },
    {
      "channel": 0,
      "note": 62,
      "start": 5.343,
      "duration": 0.1482,
      "velocity": 92,
      "chip": "ym2612"
    },
    {
      "channel": 1,
      "note": 38,
      "start": 5.3445,
      "duration": 0.1467,
      "velocity": 100,
      "chip": "ym2612"
    },
    {
      "channel": 2,
      "note": 50,
      "start": 5.346,
      "duration": 0.1454,
      "velocity": 92,
      "chip": "ym2612"
    },
    {
      "channel": 0,
      "note": 66,
      "start": 5.5079,
      "duration": 0.1499,
      "velocity": 92,
      "chip": "ym2612"
    },
    {
      "channel": 1,
      "note": 42,
      "start": 5.5082,
      "duration": 0.1497,
      "velocity": 100,
      "chip": "ym2612"
    },
    {
      "channel": 2,
      "note": 49,
      "start": 5.5083,
      "duration": 0.1496,
      "velocity": 92,
      "chip": "ym2612"
    },
    {
      "channel": 0,
      "note": 66,
      "start": 5.6745,
      "duration": 0.15,
      "velocity": 92,
      "chip": "ym2612"
    },
    {
      "channel": 1,
      "note": 42,
      "start": 5.6748,
      "duration": 0.1499,
      "velocity": 100,
      "chip": "ym2612"
    },
    {
      "channel": 2,
      "note": 49,
      "start": 5.6749,
      "duration": 0.1498,
      "velocity": 92,
      "chip": "ym2612"
    },
    {
      "channel": 0,
      "note": 69,
      "start": 5.8413,
      "duration": 0.1498,
      "velocity": 92,
      "chip": "ym2612"
    },
    {
      "channel": 1,
      "note": 45,
      "start": 5.8415,
      "duration": 0.1497,
      "velocity": 100,
      "chip": "ym2612"
    },
    {
      "channel": 2,
      "note": 52,
      "start": 5.8417,
      "duration": 0.1495,
      "velocity": 92,
      "chip": "ym2612"
    },
    {
      "channel": 0,
      "note": 64,
      "start": 6.0092,
      "duration": 0.1486,
      "velocity": 100,
      "chip": "ym2612"
    },
    {
      "channel": 1,
      "note": 40,
      "start": 6.0094,
      "duration": 0.1485,
      "velocity": 100,
      "chip": "ym2612"
    },
    {
      "channel": 2,
      "note": 47,
      "start": 6.0096,
      "duration": 0.1483,
      "velocity": 92,
      "chip": "ym2612"
    },
    {
      "channel": 0,
      "note": 54,
      "start": 6.1746,
      "duration": 0.15,
      "velocity": 100,
      "chip": "ym2612"
    },
    {
      "channel": 1,
      "note": 42,
      "start": 6.1748,
      "duration": 0.1499,
      "velocity": 100,
      "chip": "ym2612"
    },
    {
      "channel": 2,
      "note": 49,
      "start": 6.175,
      "duration": 0.1497,
      "velocity": 92,
      "chip": "ym2612"
    },
    {
      "channel": 0,
      "note": 54,
      "start": 6.3413,
      "duration": 0.1499,
      "velocity": 100,
      "chip": "ym2612"
    },
    {
      "channel": 1,
      "note": 42,
      "start": 6.3415,
      "duration": 0.1497,
      "velocity": 100,
      "chip": "ym2612"
    },
    {
      "channel": 2,
      "note": 49,
      "start": 6.3417,
      "duration": 0.1495,
      "velocity": 92,
      "chip": "ym2612"
    },
    {
      "channel": 0,
      "note": 57,
      "start": 6.5079,
      "duration": 0.15,
      "velocity": 100,
      "chip": "ym2612"
    },
    {
      "channel": 1,
      "note": 45,
      "start": 6.5082,
      "duration": 0.1498,
      "velocity": 100,
      "chip": "ym2612"
    },
    {
      "channel": 2,
      "note": 52,
      "start": 6.5083,
      "duration": 0.1497,
      "velocity": 92,
      "chip": "ym2612"
    },
    {
      "channel": 0,
      "note": 52,
      "start": 6.6762,
      "duration": 0.1482,
      "velocity": 92,
      "chip": "ym2612"
    },
    {
      "channel": 1,
      "note": 40,
      "start": 6.6777,
      "duration": 0.1469,
      "velocity": 100,
      "chip": "ym2612"
    },
    {
      "channel": 2,
      "note": 47,
      "start": 6.6792,
      "duration": 0.1454,
      "velocity": 92,
      "chip": "ym2612"
    },
    {
      "channel": 0,
      "note": 66,
      "start": 6.8412,
      "duration": 0.15,
      "velocity": 92,
      "chip": "ym2612"
    },
    {
      "channel": 1,
      "note": 42,
      "start": 6.8415,
      "duration": 0.1498,
      "velocity": 100,
      "chip": "ym2612"
    },
    {
      "channel": 2,
      "note": 49,
      "start": 6.8417,
      "duration": 0.1497,
      "velocity": 92,
      "chip": "ym2612"
    },
    {
      "channel": 0,
      "note": 66,
      "start": 7.008,
      "duration": 0.1498,
      "velocity": 92,
      "chip": "ym2612"
    },
    {
      "channel": 1,
      "note": 42,
      "start": 7.0082,
      "duration": 0.1497,
      "velocity": 100,
      "chip": "ym2612"
    },
    {
      "channel": 2,
      "note": 49,
      "start": 7.0084,
      "duration": 0.1495,
      "velocity": 92,
      "chip": "ym2612"
    },
    {
      "channel": 0,
      "note": 69,
      "start": 7.1745,
      "duration": 0.15,
      "velocity": 92,
      "chip": "ym2612"
    },
    {
      "channel": 1,
      "note": 45,
      "start": 7.1748,
      "duration": 0.1498,
      "velocity": 100,
      "chip": "ym2612"
    },
    {
      "channel": 2,
      "note": 52,
      "start": 7.1749,
      "duration": 0.1498,
      "velocity": 92,
      "chip": "ym2612"
    },
    {
      "channel": 0,
      "note": 64,
      "start": 7.3426,
      "duration": 0.1485,
      "velocity": 100,
      "chip": "ym2612"
    },
    {
      "channel": 1,
      "note": 40,
      "start": 7.3428,
      "duration": 0.1485,
      "velocity": 100,
      "chip": "ym2612"
    },
    {
      "channel": 2,
      "note": 47,
      "start": 7.343,
      "duration": 0.1483,
      "velocity": 92,
      "chip": "ym2612"
    },
    {
      "channel": 0,
      "note": 54,
      "start": 7.5079,
      "duration": 0.15,
      "velocity": 100,
      "chip": "ym2612"
    },
    {
      "channel": 1,
      "note": 42,
      "start": 7.5081,
      "duration": 0.1498,
      "velocity": 100,
      "chip": "ym2612"
    },
    {
      "channel": 2,
      "note": 49,
      "start": 7.5083,
      "duration": 0.1497,
      "velocity": 92,
      "chip": "ym2612"
    },
    {
      "channel": 0,
      "note": 54,
      "start": 7.6746,
      "duration": 0.1498,
      "velocity": 100,
      "chip": "ym2612"
    },
    {
      "channel": 1,
      "note": 42,
      "start": 7.6748,
      "duration": 0.1497,
      "velocity": 100,
      "chip": "ym2612"
    },
    {
      "channel": 2,
      "note": 49,
      "start": 7.6751,
      "duration": 0.1495,
      "velocity": 92,
      "chip": "ym2612"
    },
    {
      "channel": 0,
      "note": 57,
      "start": 7.8412,
      "duration": 0.15,
      "velocity": 100,
      "chip": "ym2612"
    },
    {
      "channel": 1,
      "note": 45,
      "start": 7.8414,
      "duration": 0.1498,
      "velocity": 100,
      "chip": "ym2612"
    },
    {
      "channel": 2,
      "note": 52,
      "start": 7.8416,
      "duration": 0.1498,
      "velocity": 92,
      "chip": "ym2612"
    },
    {
      "channel": 0,
      "note": 52,
      "start": 8.0095,
      "duration": 0.1483,
      "velocity": 92,
      "chip": "ym2612"
    },
    {
      "channel": 1,
      "note": 40,
      "start": 8.011,
      "duration": 0.1469,
      "velocity": 100,
      "chip": "ym2612"
    },
    {
      "channel": 2,
      "note": 47,
      "start": 8.0125,
      "duration": 0.1455,
      "velocity": 92,
      "chip": "ym2612"
    },
    {
      "channel": 0,
      "note": 66,
      "start": 8.1745,
      "duration": 0.15,
      "velocity": 92,
      "chip": "ym2612"
    },
    {
      "channel": 1,
      "note": 42,
      "start": 8.1748,
      "duration": 0.1499,
      "velocity": 100,
      "chip": "ym2612"
    },
    {
      "channel": 2,
      "note": 49,
      "start": 8.1749,
      "duration": 0.1498,
      "velocity": 92,
      "chip": "ym2612"
    },
    {
      "channel": 0,
      "note": 66,
      "start": 8.3413,
      "duration": 0.1498,
      "velocity": 92,
      "chip": "ym2612"
    },
    {
      "channel": 1,
      "note": 42,
      "start": 8.3415,
      "duration": 0.1497,
      "velocity": 100,
      "chip": "ym2612"
    },
    {
      "channel": 2,
      "note": 49,
      "start": 8.3417,
      "duration": 0.1495,
      "velocity": 92,
      "chip": "ym2612"
    },
    {
      "channel": 0,
      "note": 69,
      "start": 8.5079,
      "duration": 0.1498,
      "velocity": 92,
      "chip": "ym2612"
    },
    {
      "channel": 1,
      "note": 45,
      "start": 8.5081,
      "duration": 0.1498,
      "velocity": 100,
      "chip": "ym2612"
    },
    {
      "channel": 2,
      "note": 52,
      "start": 8.5083,
      "duration": 0.1495,
      "velocity": 92,
      "chip": "ym2612"
    },
    {
      "channel": 0,
      "note": 64,
      "start": 8.6759,
      "duration": 0.1486,
      "velocity": 100,
      "chip": "ym2612"
    },
    {
      "channel": 1,
      "note": 40,
      "start": 8.6762,
      "duration": 0.1485,
      "velocity": 100,
      "chip": "ym2612"
    },
    {
      "channel": 2,
      "note": 47,
      "start": 8.6763,
      "duration": 0.1483,
      "velocity": 92,
      "chip": "ym2612"
    },
    {
      "channel": 0,
      "note": 54,
      "start": 8.8413,
      "duration": 0.1498,
      "velocity": 100,
      "chip": "ym2612"
    },
    {
      "channel": 1,
      "note": 42,
      "start": 8.8415,
      "duration": 0.1497,
      "velocity": 100,
      "chip": "ym2612"
    },
    {
      "channel": 2,
      "note": 49,
      "start": 8.8417,
      "duration": 0.1495,
      "velocity": 92,
      "chip": "ym2612"
    },
    {
      "channel": 0,
      "note": 54,
      "start": 9.0079,
      "duration": 0.1498,
      "velocity": 100,
      "chip": "ym2612"
    },
    {
      "channel": 1,
      "note": 42,
      "start": 9.0082,
      "duration": 0.1497,
      "velocity": 100,
      "chip": "ym2612"
    },
    {
      "channel": 2,
      "note": 49,
      "start": 9.0083,
      "duration": 0.1495,
      "velocity": 92,
      "chip": "ym2612"
    },
    {
      "channel": 0,
      "note": 57,
      "start": 9.1746,
      "duration": 0.1499,
      "velocity": 100,
      "chip": "ym2612"
    },
    {
      "channel": 1,
      "note": 45,
      "start": 9.1749,
      "duration": 0.1497,
      "velocity": 100,
      "chip": "ym2612"
    },
    {
      "channel": 2,
      "note": 52,
      "start": 9.1751,
      "duration": 0.1495,
      "velocity": 92,
      "chip": "ym2612"
    },
    {
      "channel": 0,
      "note": 52,
      "start": 9.3428,
      "duration": 0.1483,
      "velocity": 92,
      "chip": "ym2612"
    },
    {
      "channel": 1,
      "note": 40,
      "start": 9.3443,
      "duration": 0.1469,
      "velocity": 100,
      "chip": "ym2612"
    },
    {
      "channel": 2,
      "note": 47,
      "start": 9.3458,
      "duration": 0.1455,
      "velocity": 92,
      "chip": "ym2612"
    },
    {
      "channel": 0,
      "note": 66,
      "start": 9.5078,
      "duration": 0.15,
      "velocity": 92,
      "chip": "ym2612"
    },
    {
      "channel": 1,
      "note": 42,
      "start": 9.5081,
      "duration": 0.1499,
      "velocity": 100,
      "chip": "ym2612"
    },
    {
      "channel": 2,
      "note": 49,
      "start": 9.5083,
      "duration": 0.1498,
      "velocity": 92,
      "chip": "ym2612"
    },
    {
      "channel": 0,
      "note": 66,
      "start": 9.6746,
      "duration": 0.1498,
      "velocity": 92,
      "chip": "ym2612"
    },
    {
      "channel": 1,
      "note": 42,
      "start": 9.6748,
      "duration": 0.1497,
      "velocity": 100,
      "chip": "ym2612"
    },
    {
      "channel": 2,
      "note": 49,
      "start": 9.6751,
      "duration": 0.1495,
      "velocity": 92,
      "chip": "ym2612"
    },
    {
      "channel": 0,
      "note": 69,
      "start": 9.8412,
      "duration": 0.15,
      "velocity": 92,
      "chip": "ym2612"
    },
    {
      "channel": 1,
      "note": 45,
      "start": 9.8414,
      "duration": 0.1498,
      "velocity": 100,
      "chip": "ym2612"
    },
    {
      "channel": 2,
      "note": 52,
      "start": 9.8417,
      "duration": 0.1497,
      "velocity": 92,
      "chip": "ym2612"
    },
    {
      "channel": 0,
      "note": 64,
      "start": 10.0092,
      "duration": 0.1486,
      "velocity": 100,
      "chip": "ym2612"
    },
    {
      "channel": 1,
      "note": 40,
      "start": 10.0094,
      "duration": 0.1485,
      "velocity": 100,
      "chip": "ym2612"
    },
    {
      "channel": 2,
      "note": 47,
      "start": 10.0097,
      "duration": 0.1483,
      "velocity": 92,
      "chip": "ym2612"
    },
    {
      "channel": 0,
      "note": 54,
      "start": 10.1746,
      "duration": 0.1499,
      "velocity": 100,
      "chip": "ym2612"
    },
    {
      "channel": 1,
      "note": 42,
      "start": 10.1748,
      "duration": 0.1497,
      "velocity": 100,
      "chip": "ym2612"
    },
    {
      "channel": 2,
      "note": 49,
      "start": 10.175,
      "duration": 0.1496,
      "velocity": 92,
      "chip": "ym2612"
    },
    {
      "channel": 0,
      "note": 54,
      "start": 10.3412,
      "duration": 0.15,
      "velocity": 100,
      "chip": "ym2612"
    },
    {
      "channel": 1,
      "note": 42,
      "start": 10.3414,
      "duration": 0.1498,
      "velocity": 100,
      "chip": "ym2612"
    },
    {
      "channel": 2,
      "note": 49,
      "start": 10.3416,
      "duration": 0.1498,
      "velocity": 92,
      "chip": "ym2612"
    },
    {
      "channel": 0,
      "note": 57,
      "start": 10.5079,
      "duration": 0.15,
      "velocity": 100,
      "chip": "ym2612"
    },
    {
      "channel": 1,
      "note": 45,
      "start": 10.5082,
      "duration": 0.1498,
      "velocity": 100,
      "chip": "ym2612"
    },
    {
      "channel": 2,
      "note": 52,
      "start": 10.5083,
      "duration": 0.1498,
      "velocity": 92,
      "chip": "ym2612"
    },
    {
      "channel": 0,
      "note": 52,
      "start": 10.6764,
      "duration": 0.4814,
      "velocity": 86,
      "chip": "ym2612"
    },
    {
      "channel": 1,
      "note": 40,
      "start": 10.6779,
      "duration": 0.1467,
      "velocity": 100,
      "chip": "ym2612"
    },
    {
      "channel": 2,
      "note": 47,
      "start": 10.6794,
      "duration": 0.1453,
      "velocity": 92,
      "chip": "ym2612"
    },
    {
      "channel": 1,
      "note": 40,
      "start": 10.8414,
      "duration": 0.1498,
      "velocity": 100,
      "chip": "ym2612"
    },
    {
      "channel": 2,
      "note": 52,
      "start": 10.8416,
      "duration": 0.1498,
      "velocity": 92,
      "chip": "ym2612"
    },
    {
      "channel": 1,
      "note": 40,
      "start": 11.0081,
      "duration": 0.1499,
      "velocity": 100,
      "chip": "ym2612"
    },
    {
      "channel": 2,
      "note": 52,
      "start": 11.0083,
      "duration": 0.1498,
      "velocity": 92,
      "chip": "ym2612"
    },
    {
      "channel": 0,
      "note": 64,
      "start": 11.1746,
      "duration": 0.4833,
      "velocity": 86,
      "chip": "ym2612"
    },
    {
      "channel": 1,
      "note": 43,
      "start": 11.1749,
      "duration": 0.1497,
      "velocity": 100,
      "chip": "ym2612"
    },
    {
      "channel": 2,
      "note": 55,
      "start": 11.1751,
      "duration": 0.1496,
      "velocity": 92,
      "chip": "ym2612"
    },
    {
      "channel": 1,
      "note": 38,
      "start": 11.3414,
      "duration": 0.1498,
      "velocity": 100,
      "chip": "ym2612"
    },
    {
      "channel": 2,
      "note": 50,
      "start": 11.3416,
      "duration": 0.1497,
      "velocity": 92,
      "chip": "ym2612"
    },
    {
      "channel": 1,
      "note": 40,
      "start": 11.508,
      "duration": 0.1501,
      "velocity": 100,
      "chip": "ym2612"
    },
    {
      "channel": 2,
      "note": 52,
      "start": 11.5083,
      "duration": 0.1499,
      "velocity": 92,
      "chip": "ym2612"
    },
    {
      "channel": 0,
      "note": 61,
      "start": 11.6746,
      "duration": 0.9832,
      "velocity": 86,
      "chip": "ym2612"
    },
    {
      "channel": 1,
      "note": 40,
      "start": 11.6748,
      "duration": 0.1498,
      "velocity": 100,
      "chip": "ym2612"
    },
    {
      "channel": 2,
      "note": 52,
      "start": 11.6751,
      "duration": 0.1497,
      "velocity": 92,
      "chip": "ym2612"
    },
    {
      "channel": 1,
      "note": 43,
      "start": 11.8413,
      "duration": 0.15,
      "velocity": 100,
      "chip": "ym2612"
    },
    {
      "channel": 2,
      "note": 55,
      "start": 11.8415,
      "duration": 0.1498,
      "velocity": 92,
      "chip": "ym2612"
    },
    {
      "channel": 1,
      "note": 38,
      "start": 12.0095,
      "duration": 0.1485,
      "velocity": 100,
      "chip": "ym2612"
    },
    {
      "channel": 2,
      "note": 50,
      "start": 12.011,
      "duration": 0.1471,
      "velocity": 92,
      "chip": "ym2612"
    },
    {
      "channel": 1,
      "note": 40,
      "start": 12.1747,
      "duration": 0.1499,
      "velocity": 100,
      "chip": "ym2612"
    },
    {
      "channel": 2,
      "note": 52,
      "start": 12.1749,
      "duration": 0.1499,
      "velocity": 92,
      "chip": "ym2612"
    },
    {
      "channel": 1,
      "note": 40,
      "start": 12.3414,
      "duration": 0.1499,
      "velocity": 100,
      "chip": "ym2612"
    },
    {
      "channel": 2,
      "note": 52,
      "start": 12.3415,
      "duration": 0.1498,
      "velocity": 92,
      "chip": "ym2612"
    },
    {
      "channel": 1,
      "note": 43,
      "start": 12.5081,
      "duration": 0.1499,
      "velocity": 100,
      "chip": "ym2612"
    },
    {
      "channel": 2,
      "note": 55,
      "start": 12.5083,
      "duration": 0.1498,
      "velocity": 92,
      "chip": "ym2612"
    },
    {
      "channel": 0,
      "note": 63,
      "start": 12.6747,
      "duration": 0.3165,
      "velocity": 86,
      "chip": "ym2612"
    },
    {
      "channel": 1,
      "note": 38,
      "start": 12.6749,
      "duration": 0.1497,
      "velocity": 100,
      "chip": "ym2612"
    },
    {
      "channel": 2,
      "note": 50,
      "start": 12.6751,
      "duration": 0.1495,
      "velocity": 92,
      "chip": "ym2612"
    },
    {
      "channel": 1,
      "note": 40,
      "start": 12.8414,
      "duration": 0.1501,
      "velocity": 100,
      "chip": "ym2612"
    },
    {
      "channel": 2,
      "note": 52,
      "start": 12.8416,
      "duration": 0.1499,
      "velocity": 92,
      "chip": "ym2612"
    },
    {
      "channel": 0,
      "note": 59,
      "start": 13.008,
      "duration": 0.3166,
      "velocity": 86,
      "chip": "ym2612"
    },
    {
      "channel": 1,
      "note": 40,
      "start": 13.0082,
      "duration": 0.1499,
      "velocity": 100,
      "chip": "ym2612"
    },
    {
      "channel": 2,
      "note": 52,
      "start": 13.0084,
      "duration": 0.1497,
      "velocity": 92,
      "chip": "ym2612"
    },
    {
      "channel": 1,
      "note": 43,
      "start": 13.1747,
      "duration": 0.15,
      "velocity": 100,
      "chip": "ym2612"
    },
    {
      "channel": 2,
      "note": 55,
      "start": 13.1749,
      "duration": 0.15,
      "velocity": 92,
      "chip": "ym2612"
    },
    {
      "channel": 0,
      "note": 62,
      "start": 13.3429,
      "duration": 0.4815,
      "velocity": 86,
      "chip": "ym2612"
    },
    {
      "channel": 1,
      "note": 38,
      "start": 13.3444,
      "duration": 0.1469,
      "velocity": 100,
      "chip": "ym2612"
    },
    {
      "channel": 2,
      "note": 50,
      "start": 13.3459,
      "duration": 0.1455,
      "velocity": 92,
      "chip": "ym2612"
    },
    {
      "channel": 1,
      "note": 40,
      "start": 13.5082,
      "duration": 0.1498,
      "velocity": 100,
      "chip": "ym2612"
    },
    {
      "channel": 2,
      "note": 52,
      "start": 13.5083,
      "duration": 0.1497,
      "velocity": 92,
      "chip": "ym2612"
    },
    {
      "channel": 1,
      "note": 40,
      "start": 13.6748,
      "duration": 0.1499,
      "velocity": 100,
      "chip": "ym2612"
    },
    {
      "channel": 2,
      "note": 52,
      "start": 13.675,
      "duration": 0.1498,
      "velocity": 92,
      "chip": "ym2612"
    },
    {
      "channel": 0,
      "note": 64,
      "start": 13.8412,
      "duration": 0.4833,
      "velocity": 86,
      "chip": "ym2612"
    },
    {
      "channel": 1,
      "note": 43,
      "start": 13.8414,
      "duration": 0.1498,
      "velocity": 100,
      "chip": "ym2612"
    },
    {
      "channel": 2,
      "note": 55,
      "start": 13.8417,
      "duration": 0.1497,
      "velocity": 92,
      "chip": "ym2612"
    },
    {
      "channel": 1,
      "note": 38,
      "start": 14.0081,
      "duration": 0.1499,
      "velocity": 100,
      "chip": "ym2612"
    },
    {
      "channel": 2,
      "note": 50,
      "start": 14.0083,
      "duration": 0.1499,
      "velocity": 92,
      "chip": "ym2612"
    },
    {
      "channel": 1,
      "note": 40,
      "start": 14.1747,
      "duration": 0.1501,
      "velocity": 100,
      "chip": "ym2612"
    },
    {
      "channel": 2,
      "note": 52,
      "start": 14.1749,
      "duration": 0.1499,
      "velocity": 92,
      "chip": "ym2612"
    },
    {
      "channel": 0,
      "note": 61,
      "start": 14.3413,
      "duration": 0.9832,
      "velocity": 86,
      "chip": "ym2612"
    },
    {
      "channel": 1,
      "note": 40,
      "start": 14.3415,
      "duration": 0.1499,
      "velocity": 100,
      "chip": "ym2612"
    },
    {
      "channel": 2,
      "note": 52,
      "start": 14.3417,
      "duration": 0.1497,
      "velocity": 92,
      "chip": "ym2612"
    },
    {
      "channel": 1,
      "note": 43,
      "start": 14.508,
      "duration": 0.15,
      "velocity": 100,
      "chip": "ym2612"
    },
    {
      "channel": 2,
      "note": 55,
      "start": 14.5082,
      "duration": 0.1499,
      "velocity": 92,
      "chip": "ym2612"
    },
    {
      "channel": 1,
      "note": 38,
      "start": 14.6762,
      "duration": 0.1484,
      "velocity": 100,
      "chip": "ym2612"
    },
    {
      "channel": 2,
      "note": 50,
      "start": 14.6778,
      "duration": 0.1469,
      "velocity": 92,
      "chip": "ym2612"
    },
    {
      "channel": 1,
      "note": 40,
      "start": 14.8414,
      "duration": 0.1498,
      "velocity": 100,
      "chip": "ym2612"
    },
    {
      "channel": 2,
      "note": 52,
      "start": 14.8416,
      "duration": 0.1498,
      "velocity": 92,
      "chip": "ym2612"
    },
    {
      "channel": 1,
      "note": 40,
      "start": 15.0081,
      "duration": 0.1498,
      "velocity": 100,
      "chip": "ym2612"
    },
    {
      "channel": 2,
      "note": 52,
      "start": 15.0083,
      "duration": 0.1498,
      "velocity": 92,
      "chip": "ym2612"
    },
    {
      "channel": 1,
      "note": 43,
      "start": 15.1748,
      "duration": 0.1499,
      "velocity": 100,
      "chip": "ym2612"
    },
    {
      "channel": 2,
      "note": 55,
      "start": 15.1749,
      "duration": 0.1498,
      "velocity": 92,
      "chip": "ym2612"
    },
    {
      "channel": 0,
      "note": 63,
      "start": 15.3413,
      "duration": 0.3166,
      "velocity": 86,
      "chip": "ym2612"
    },
    {
      "channel": 1,
      "note": 38,
      "start": 15.3415,
      "duration": 0.1497,
      "velocity": 100,
      "chip": "ym2612"
    },
    {
      "channel": 2,
      "note": 50,
      "start": 15.3417,
      "duration": 0.1495,
      "velocity": 92,
      "chip": "ym2612"
    },
    {
      "channel": 1,
      "note": 40,
      "start": 15.508,
      "duration": 0.15,
      "velocity": 100,
      "chip": "ym2612"
    },
    {
      "channel": 2,
      "note": 52,
      "start": 15.5082,
      "duration": 0.15,
      "velocity": 92,
      "chip": "ym2612"
    },
    {
      "channel": 0,
      "note": 59,
      "start": 15.6746,
      "duration": 0.3166,
      "velocity": 86,
      "chip": "ym2612"
    },
    {
      "channel": 1,
      "note": 40,
      "start": 15.6748,
      "duration": 0.1498,
      "velocity": 100,
      "chip": "ym2612"
    },
    {
      "channel": 2,
      "note": 52,
      "start": 15.675,
      "duration": 0.1498,
      "velocity": 92,
      "chip": "ym2612"
    },
    {
      "channel": 1,
      "note": 43,
      "start": 15.8413,
      "duration": 0.1501,
      "velocity": 100,
      "chip": "ym2612"
    },
    {
      "channel": 2,
      "note": 55,
      "start": 15.8415,
      "duration": 0.1499,
      "velocity": 92,
      "chip": "ym2612"
    },
    {
      "channel": 0,
      "note": 62,
      "start": 16.0098,
      "duration": 0.4814,
      "velocity": 96,
      "chip": "ym2612"
    },
    {
      "channel": 1,
      "note": 38,
      "start": 16.0113,
      "duration": 0.1467,
      "velocity": 100,
      "chip": "ym2612"
    },
    {
      "channel": 2,
      "note": 50,
      "start": 16.0128,
      "duration": 0.1452,
      "velocity": 92,
      "chip": "ym2612"
    },
    {
      "channel": 1,
      "note": 42,
      "start": 16.1748,
      "duration": 0.1498,
      "velocity": 100,
      "chip": "ym2612"
    },
    {
      "channel": 2,
      "note": 49,
      "start": 16.175,
      "duration": 0.1496,
      "velocity": 92,
      "chip": "ym2612"
    },
    {
      "channel": 1,
      "note": 42,
      "start": 16.3414,
      "duration": 0.15,
      "velocity": 100,
      "chip": "ym2612"
    },
    {
      "channel": 2,
      "note": 49,
      "start": 16.3416,
      "duration": 0.1499,
      "velocity": 92,
      "chip": "ym2612"
    },
    {
      "channel": 0,
      "note": 78,
      "start": 16.5079,
      "duration": 0.4833,
      "velocity": 96,
      "chip": "ym2612"
    },
    {
      "channel": 1,
      "note": 45,
      "start": 16.5082,
      "duration": 0.1498,
      "velocity": 100,
      "chip": "ym2612"
    },
    {
      "channel": 2,
      "note": 52,
      "start": 16.5083,
      "duration": 0.1498,
      "velocity": 92,
      "chip": "ym2612"
    },
    {
      "channel": 1,
      "note": 40,
      "start": 16.6747,
      "duration": 0.1499,
      "velocity": 100,
      "chip": "ym2612"
    },
    {
      "channel": 2,
      "note": 47,
      "start": 16.6749,
      "duration": 0.1499,
      "velocity": 92,
      "chip": "ym2612"
    },
    {
      "channel": 1,
      "note": 42,
      "start": 16.8415,
      "duration": 0.1499,
      "velocity": 100,
      "chip": "ym2612"
    },
    {
      "channel": 2,
      "note": 49,
      "start": 16.8417,
      "duration": 0.1498,
      "velocity": 92,
      "chip": "ym2612"
    },
    {
      "channel": 0,
      "note": 76,
      "start": 17.008,
      "duration": 0.9831,
      "velocity": 96,
      "chip": "ym2612"
    },
    {
      "channel": 1,
      "note": 42,
      "start": 17.0082,
      "duration": 0.1498,
      "velocity": 100,
      "chip": "ym2612"
    },
    {
      "channel": 2,
      "note": 49,
      "start": 17.0085,
      "duration": 0.1495,
      "velocity": 92,
      "chip": "ym2612"
    },
    {
      "channel": 1,
      "note": 45,
      "start": 17.1748,
      "duration": 0.1498,
      "velocity": 100,
      "chip": "ym2612"
    },
    {
      "channel": 2,
      "note": 52,
      "start": 17.175,
      "duration": 0.1497,
      "velocity": 92,
      "chip": "ym2612"
    },
    {
      "channel": 1,
      "note": 40,
      "start": 17.3428,
      "duration": 0.1485,
      "velocity": 100,
      "chip": "ym2612"
    },
    {
      "channel": 2,
      "note": 47,
      "start": 17.3444,
      "duration": 0.1471,
      "velocity": 92,
      "chip": "ym2612"
    },
    {
      "channel": 1,
      "note": 42,
      "start": 17.508,
      "duration": 0.1499,
      "velocity": 100,
      "chip": "ym2612"
    },
    {
      "channel": 2,
      "note": 49,
      "start": 17.5082,
      "duration": 0.1499,
      "velocity": 92,
      "chip": "ym2612"
    },
    {
      "channel": 1,
      "note": 42,
      "start": 17.6746,
      "duration": 0.15,
      "velocity": 100,
      "chip": "ym2612"
    },
    {
      "channel": 2,
      "note": 49,
      "start": 17.6749,
      "duration": 0.1498,
      "velocity": 92,
      "chip": "ym2612"
    },
    {
      "channel": 1,
      "note": 45,
      "start": 17.8414,
      "duration": 0.1499,
      "velocity": 100,
      "chip": "ym2612"
    },
    {
      "channel": 2,
      "note": 52,
      "start": 17.8417,
      "duration": 0.1498,
      "velocity": 92,
      "chip": "ym2612"
    },
    {
      "channel": 0,
      "note": 77,
      "start": 18.008,
      "duration": 0.3165,
      "velocity": 96,
      "chip": "ym2612"
    },
    {
      "channel": 1,
      "note": 40,
      "start": 18.0082,
      "duration": 0.1497,
      "velocity": 100,
      "chip": "ym2612"
    },
    {
      "channel": 2,
      "note": 47,
      "start": 18.0084,
      "duration": 0.1496,
      "velocity": 92,
      "chip": "ym2612"
    },
    {
      "channel": 1,
      "note": 42,
      "start": 18.1748,
      "duration": 0.1499,
      "velocity": 100,
      "chip": "ym2612"
    },
    {
      "channel": 2,
      "note": 49,
      "start": 18.1749,
      "duration": 0.1498,
      "velocity": 92,
      "chip": "ym2612"
    },
    {
      "channel": 0,
      "note": 73,
      "start": 18.3412,
      "duration": 0.3167,
      "velocity": 96,
      "chip": "ym2612"
    },
    {
      "channel": 1,
      "note": 42,
      "start": 18.3414,
      "duration": 0.1498,
      "velocity": 100,
      "chip": "ym2612"
    },
    {
      "channel": 2,
      "note": 49,
      "start": 18.3416,
      "duration": 0.1497,
      "velocity": 92,
      "chip": "ym2612"
    },
    {
      "channel": 1,
      "note": 45,
      "start": 18.508,
      "duration": 0.15,
      "velocity": 100,
      "chip": "ym2612"
    },
    {
      "channel": 2,
      "note": 52,
      "start": 18.5083,
      "duration": 0.1499,
      "velocity": 92,
      "chip": "ym2612"
    },
    {
      "channel": 0,
      "note": 76,
      "start": 18.6762,
      "duration": 0.4816,
      "velocity": 96,
      "chip": "ym2612"
    },
    {
      "channel": 1,
      "note": 40,
      "start": 18.6776,
      "duration": 0.147,
      "velocity": 100,
      "chip": "ym2612"
    },
    {
      "channel": 2,
      "note": 47,
      "start": 18.6791,
      "duration": 0.1456,
      "velocity": 92,
      "chip": "ym2612"
    },
    {
      "channel": 1,
      "note": 42,
      "start": 18.8414,
      "duration": 0.1499,
      "velocity": 100,
      "chip": "ym2612"
    },
    {
      "channel": 2,
      "note": 49,
      "start": 18.8415,
      "duration": 0.1498,
      "velocity": 92,
      "chip": "ym2612"
    },
    {
      "channel": 1,
      "note": 42,
      "start": 19.0081,
      "duration": 0.1499,
      "velocity": 100,
      "chip": "ym2612"
    },
    {
      "channel": 2,
      "note": 49,
      "start": 19.0083,
      "duration": 0.1498,
      "velocity": 92,
      "chip": "ym2612"
    },
    {
      "channel": 0,
      "note": 78,
      "start": 19.1745,
      "duration": 0.4833,
      "velocity": 96,
      "chip": "ym2612"
    },
    {
      "channel": 1,
      "note": 45,
      "start": 19.1748,
      "duration": 0.1498,
      "velocity": 100,
      "chip": "ym2612"
    },
    {
      "channel": 2,
      "note": 52,
      "start": 19.1749,
      "duration": 0.1497,
      "velocity": 92,
      "chip": "ym2612"
    },
    {
      "channel": 1,
      "note": 40,
      "start": 19.3414,
      "duration": 0.1499,
      "velocity": 100,
      "chip": "ym2612"
    },
    {
      "channel": 2,
      "note": 47,
      "start": 19.3416,
      "duration": 0.1498,
      "velocity": 92,
      "chip": "ym2612"
    },
    {
      "channel": 1,
      "note": 42,
      "start": 19.508,
      "duration": 0.1501,
      "velocity": 100,
      "chip": "ym2612"
    },
    {
      "channel": 2,
      "note": 49,
      "start": 19.5082,
      "duration": 0.1499,
      "velocity": 92,
      "chip": "ym2612"
    },
    {
      "channel": 0,
      "note": 76,
      "start": 19.6746,
      "duration": 0.9833,
      "velocity": 96,
      "chip": "ym2612"
    },
    {
      "channel": 1,
      "note": 42,
      "start": 19.6748,
      "duration": 0.1498,
      "velocity": 100,
      "chip": "ym2612"
    },
    {
      "channel": 2,
      "note": 49,
      "start": 19.675,
      "duration": 0.1497,
      "velocity": 92,
      "chip": "ym2612"
    },
    {
      "channel": 1,
      "note": 45,
      "start": 19.8414,
      "duration": 0.1499,
      "velocity": 100,
      "chip": "ym2612"
    },
    {
      "channel": 2,
      "note": 52,
      "start": 19.8416,
      "duration": 0.1499,
      "velocity": 92,
      "chip": "ym2612"
    },
    {
      "channel": 1,
      "note": 40,
      "start": 20.0095,
      "duration": 0.1485,
      "velocity": 100,
      "chip": "ym2612"
    },
    {
      "channel": 2,
      "note": 47,
      "start": 20.011,
      "duration": 0.1471,
      "velocity": 92,
      "chip": "ym2612"
    },
    {
      "channel": 1,
      "note": 42,
      "start": 20.1748,
      "duration": 0.1498,
      "velocity": 100,
      "chip": "ym2612"
    },
    {
      "channel": 2,
      "note": 49,
      "start": 20.175,
      "duration": 0.1497,
      "velocity": 92,
      "chip": "ym2612"
    },
    {
      "channel": 1,
      "note": 42,
      "start": 20.3414,
      "duration": 0.1498,
      "velocity": 100,
      "chip": "ym2612"
    },
    {
      "channel": 2,
      "note": 49,
      "start": 20.3417,
      "duration": 0.1497,
      "velocity": 92,
      "chip": "ym2612"
    },
    {
      "channel": 1,
      "note": 45,
      "start": 20.5081,
      "duration": 0.15,
      "velocity": 100,
      "chip": "ym2612"
    },
    {
      "channel": 2,
      "note": 52,
      "start": 20.5083,
      "duration": 0.1499,
      "velocity": 92,
      "chip": "ym2612"
    },
    {
      "channel": 0,
      "note": 77,
      "start": 20.6746,
      "duration": 0.3166,
      "velocity": 96,
      "chip": "ym2612"
    },
    {
      "channel": 1,
      "note": 40,
      "start": 20.6748,
      "duration": 0.1499,
      "velocity": 100,
      "chip": "ym2612"
    },
    {
      "channel": 2,
      "note": 47,
      "start": 20.6751,
      "duration": 0.1497,
      "velocity": 92,
      "chip": "ym2612"
    },
    {
      "channel": 1,
      "note": 42,
      "start": 20.8414,
      "duration": 0.15,
      "velocity": 100,
      "chip": "ym2612"
    },
    {
      "channel": 2,
      "note": 49,
      "start": 20.8415,
      "duration": 0.15,
      "velocity": 92,
      "chip": "ym2612"
    },
    {
      "channel": 0,
      "note": 73,
      "start": 21.008,
      "duration": 0.3166,
      "velocity": 96,
      "chip": "ym2612"
    },
    {
      "channel": 1,
      "note": 42,
      "start": 21.0082,
      "duration": 0.1499,
      "velocity": 100,
      "chip": "ym2612"
    },
    {
      "channel": 2,
      "note": 49,
      "start": 21.0084,
      "duration": 0.1497,
      "velocity": 92,
      "chip": "ym2612"
    },
    {
      "channel": 1,
      "note": 45,
      "start": 21.1747,
      "duration": 0.15,
      "velocity": 100,
      "chip": "ym2612"
    },
    {
      "channel": 2,
      "note": 52,
      "start": 21.1749,
      "duration": 0.15,
      "velocity": 92,
      "chip": "ym2612"
    },
    {
      "channel": 0,
      "note": 76,
      "start": 21.3432,
      "duration": 0.4814,
      "velocity": 86,
      "chip": "ym2612"
    },
    {
      "channel": 1,
      "note": 40,
      "start": 21.3446,
      "duration": 0.1468,
      "velocity": 100,
      "chip": "ym2612"
    },
    {
      "channel": 2,
      "note": 47,
      "start": 21.3461,
      "duration": 0.1453,
      "velocity": 92,
      "chip": "ym2612"
    },
    {
      "channel": 1,
      "note": 40,
      "start": 21.508,
      "duration": 0.1499,
      "velocity": 100,
      "chip": "ym2612"
    },
    {
      "channel": 2,
      "note": 52,
      "start": 21.5082,
      "duration": 0.1499,
      "velocity": 92,
      "chip": "ym2612"
    },
    {
      "channel": 1,
      "note": 40,
      "start": 21.6747,
      "duration": 0.15,
      "velocity": 100,
      "chip": "ym2612"
    },
    {
      "channel": 2,
      "note": 52,
      "start": 21.6749,
      "duration": 0.1499,
      "velocity": 92,
      "chip": "ym2612"
    },
    {
      "channel": 0,
      "note": 64,
      "start": 21.8412,
      "duration": 0.4832,
      "velocity": 86,
      "chip": "ym2612"
    },
    {
      "channel": 1,
      "note": 43,
      "start": 21.8414,
      "duration": 0.1498,
      "velocity": 100,
      "chip": "ym2612"
    },
    {
      "channel": 2,
      "note": 55,
      "start": 21.8417,
      "duration": 0.1497,
      "velocity": 92,
      "chip": "ym2612"
    },
    {
      "channel": 1,
      "note": 38,
      "start": 22.0081,
      "duration": 0.1498,
      "velocity": 100,
      "chip": "ym2612"
    },
    {
      "channel": 2,
      "note": 50,
      "start": 22.0083,
      "duration": 0.1498,
      "velocity": 92,
      "chip": "ym2612"
    },
    {
      "channel": 1,
      "note": 40,
      "start": 22.1748,
      "duration": 0.1499,
      "velocity": 100,
      "chip": "ym2612"
    },
    {
      "channel": 2,
      "note": 52,
      "start": 22.1749,
      "duration": 0.1498,
      "velocity": 92,
      "chip": "ym2612"
    },
    {
      "channel": 0,
      "note": 61,
      "start": 22.3413,
      "duration": 0.9833,
      "velocity": 86,
      "chip": "ym2612"
    },
    {
      "channel": 1,
      "note": 40,
      "start": 22.3415,
      "duration": 0.1498,
      "velocity": 100,
      "chip": "ym2612"
    },
    {
      "channel": 2,
      "note": 52,
      "start": 22.3417,
      "duration": 0.1497,
      "velocity": 92,
      "chip": "ym2612"
    },
    {
      "channel": 1,
      "note": 43,
      "start": 22.508,
      "duration": 0.1499,
      "velocity": 100,
      "chip": "ym2612"
    },
    {
      "channel": 2,
      "note": 55,
      "start": 22.5082,
      "duration": 0.1498,
      "velocity": 92,
      "chip": "ym2612"
    },
    {
      "channel": 1,
      "note": 38,
      "start": 22.6762,
      "duration": 0.1485,
      "velocity": 100,
      "chip": "ym2612"
    },
    {
      "channel": 2,
      "note": 50,
      "start": 22.6777,
      "duration": 0.1471,
      "velocity": 92,
      "chip": "ym2612"
    },
    {
      "channel": 1,
      "note": 40,
      "start": 22.8414,
      "duration": 0.1499,
      "velocity": 100,
      "chip": "ym2612"
    },
    {
      "channel": 2,
      "note": 52,
      "start": 22.8415,
      "duration": 0.1499,
      "velocity": 92,
      "chip": "ym2612"
    },
    {
      "channel": 1,
      "note": 40,
      "start": 23.008,
      "duration": 0.1499,
      "velocity": 100,
      "chip": "ym2612"
    },
    {
      "channel": 2,
      "note": 52,
      "start": 23.0082,
      "duration": 0.1498,
      "velocity": 92,
      "chip": "ym2612"
    },
    {
      "channel": 1,
      "note": 43,
      "start": 23.1748,
      "duration": 0.15,
      "velocity": 100,
      "chip": "ym2612"
    },
    {
      "channel": 2,
      "note": 55,
      "start": 23.1749,
      "duration": 0.1499,
      "velocity": 92,
      "chip": "ym2612"
    },
    {
      "channel": 0,
      "note": 63,
      "start": 23.3413,
      "duration": 0.3166,
      "velocity": 86,
      "chip": "ym2612"
    },
    {
      "channel": 1,
      "note": 38,
      "start": 23.3415,
      "duration": 0.1498,
      "velocity": 100,
      "chip": "ym2612"
    },
    {
      "channel": 2,
      "note": 50,
      "start": 23.3417,
      "duration": 0.1497,
      "velocity": 92,
      "chip": "ym2612"
    },
    {
      "channel": 1,
      "note": 40,
      "start": 23.508,
      "duration": 0.15,
      "velocity": 100,
      "chip": "ym2612"
    },
    {
      "channel": 2,
      "note": 52,
      "start": 23.5083,
      "duration": 0.1499,
      "velocity": 92,
      "chip": "ym2612"
    },
    {
      "channel": 0,
      "note": 59,
      "start": 23.6746,
      "duration": 0.3166,
      "velocity": 86,
      "chip": "ym2612"
    },
    {
      "channel": 1,
      "note": 40,
      "start": 23.6748,
      "duration": 0.1498,
      "velocity": 100,
      "chip": "ym2612"
    },
    {
      "channel": 2,
      "note": 52,
      "start": 23.675,
      "duration": 0.1498,
      "velocity": 92,
      "chip": "ym2612"
    },
    {
      "channel": 1,
      "note": 43,
      "start": 23.8414,
      "duration": 0.15,
      "velocity": 100,
      "chip": "ym2612"
    },
    {
      "channel": 2,
      "note": 55,
      "start": 23.8415,
      "duration": 0.1499,
      "velocity": 92,
      "chip": "ym2612"
    },
    {
      "channel": 0,
      "note": 62,
      "start": 24.0096,
      "duration": 0.4815,
      "velocity": 86,
      "chip": "ym2612"
    },
    {
      "channel": 1,
      "note": 38,
      "start": 24.0111,
      "duration": 0.1469,
      "velocity": 100,
      "chip": "ym2612"
    },
    {
      "channel": 2,
      "note": 50,
      "start": 24.0126,
      "duration": 0.1454,
      "velocity": 92,
      "chip": "ym2612"
    },
    {
      "channel": 1,
      "note": 40,
      "start": 24.1748,
      "duration": 0.1499,
      "velocity": 100,
      "chip": "ym2612"
    },
    {
      "channel": 2,
      "note": 52,
      "start": 24.175,
      "duration": 0.1497,
      "velocity": 92,
      "chip": "ym2612"
    },
    {
      "channel": 1,
      "note": 40,
      "start": 24.3414,
      "duration": 0.1499,
      "velocity": 100,
      "chip": "ym2612"
    },
    {
      "channel": 2,
      "note": 52,
      "start": 24.3417,
      "duration": 0.1498,
      "velocity": 92,
      "chip": "ym2612"
    },
    {
      "channel": 0,
      "note": 64,
      "start": 24.5078,
      "duration": 0.4833,
      "velocity": 86,
      "chip": "ym2612"
    },
    {
      "channel": 1,
      "note": 43,
      "start": 24.5081,
      "duration": 0.1498,
      "velocity": 100,
      "chip": "ym2612"
    },
    {
      "channel": 2,
      "note": 55,
      "start": 24.5083,
      "duration": 0.1498,
      "velocity": 92,
      "chip": "ym2612"
    },
    {
      "channel": 1,
      "note": 38,
      "start": 24.6748,
      "duration": 0.1498,
      "velocity": 100,
      "chip": "ym2612"
    },
    {
      "channel": 2,
      "note": 50,
      "start": 24.6749,
      "duration": 0.1498,
      "velocity": 92,
      "chip": "ym2612"
    },
    {
      "channel": 1,
      "note": 40,
      "start": 24.8414,
      "duration": 0.1499,
      "velocity": 100,
      "chip": "ym2612"
    },
    {
      "channel": 2,
      "note": 52,
      "start": 24.8416,
      "duration": 0.1498,
      "velocity": 92,
      "chip": "ym2612"
    },
    {
      "channel": 0,
      "note": 61,
      "start": 25.008,
      "duration": 0.9832,
      "velocity": 86,
      "chip": "ym2612"
    },
    {
      "channel": 1,
      "note": 40,
      "start": 25.0082,
      "duration": 0.1498,
      "velocity": 100,
      "chip": "ym2612"
    },
    {
      "channel": 2,
      "note": 52,
      "start": 25.0084,
      "duration": 0.1497,
      "velocity": 92,
      "chip": "ym2612"
    },
    {
      "channel": 1,
      "note": 43,
      "start": 25.1747,
      "duration": 0.1499,
      "velocity": 100,
      "chip": "ym2612"
    },
    {
      "channel": 2,
      "note": 55,
      "start": 25.1749,
      "duration": 0.1499,
      "velocity": 92,
      "chip": "ym2612"
    },
    {
      "channel": 1,
      "note": 38,
      "start": 25.3428,
      "duration": 0.1485,
      "velocity": 100,
      "chip": "ym2612"
    },
    {
      "channel": 2,
      "note": 50,
      "start": 25.3443,
      "duration": 0.1471,
      "velocity": 92,
      "chip": "ym2612"
    },
    {
      "channel": 1,
      "note": 40,
      "start": 25.5081,
      "duration": 0.1498,
      "velocity": 100,
      "chip": "ym2612"
    },
    {
      "channel": 2,
      "note": 52,
      "start": 25.5083,
      "duration": 0.1498,
      "velocity": 92,
      "chip": "ym2612"
    },
    {
      "channel": 1,
      "note": 40,
      "start": 25.6748,
      "duration": 0.1498,
      "velocity": 100,
      "chip": "ym2612"
    },
    {
      "channel": 2,
      "note": 52,
      "start": 25.6749,
      "duration": 0.1497,
      "velocity": 92,
      "chip": "ym2612"
    },
    {
      "channel": 1,
      "note": 43,
      "start": 25.8414,
      "duration": 0.15,
      "velocity": 100,
      "chip": "ym2612"
    },
    {
      "channel": 2,
      "note": 55,
      "start": 25.8416,
      "duration": 0.1499,
      "velocity": 92,
      "chip": "ym2612"
    },
    {
      "channel": 0,
      "note": 63,
      "start": 26.0079,
      "duration": 0.3166,
      "velocity": 86,
      "chip": "ym2612"
    },
    {
      "channel": 1,
      "note": 38,
      "start": 26.0082,
      "duration": 0.1498,
      "velocity": 100,
      "chip": "ym2612"
    },
    {
      "channel": 2,
      "note": 50,
      "start": 26.0083,
      "duration": 0.1497,
      "velocity": 92,
      "chip": "ym2612"
    },
    {
      "channel": 1,
      "note": 40,
      "start": 26.1748,
      "duration": 0.1499,
      "velocity": 100,
      "chip": "ym2612"
    },
    {
      "channel": 2,
      "note": 52,
      "start": 26.175,
      "duration": 0.1498,
      "velocity": 92,
      "chip": "ym2612"
    },
    {
      "channel": 0,
      "note": 59,
      "start": 26.3412,
      "duration": 0.3167,
      "velocity": 86,
      "chip": "ym2612"
    },
    {
      "channel": 1,
      "note": 40,
      "start": 26.3414,
      "duration": 0.1499,
      "velocity": 100,
      "chip": "ym2612"
    },
    {
      "channel": 2,
      "note": 52,
      "start": 26.3416,
      "duration": 0.1498,
      "velocity": 92,
      "chip": "ym2612"
    },
    {
      "channel": 1,
      "note": 43,
      "start": 26.508,
      "duration": 0.15,
      "velocity": 100,
      "chip": "ym2612"
    },
    {
      "channel": 2,
      "note": 55,
      "start": 26.5083,
      "duration": 0.1499,
      "velocity": 92,
      "chip": "ym2612"
    },
    {
      "channel": 0,
      "note": 62,
      "start": 26.6763,
      "duration": 0.4815,
      "velocity": 96,
      "chip": "ym2612"
    },
    {
      "channel": 1,
      "note": 38,
      "start": 26.6778,
      "duration": 0.1469,
      "velocity": 100,
      "chip": "ym2612"
    },
    {
      "channel": 2,
      "note": 50,
      "start": 26.6793,
      "duration": 0.1454,
      "velocity": 92,
      "chip": "ym2612"
    },
    {
      "channel": 1,
      "note": 42,
      "start": 26.8414,
      "duration": 0.1499,
      "velocity": 100,
      "chip": "ym2612"
    },
    {
      "channel": 2,
      "note": 49,
      "start": 26.8415,
      "duration": 0.1499,
      "velocity": 92,
      "chip": "ym2612"
    },
    {
      "channel": 1,
      "note": 42,
      "start": 27.008,
      "duration": 0.1501,
      "velocity": 100,
      "chip": "ym2612"
    },
    {
      "channel": 2,
      "note": 49,
      "start": 27.0082,
      "duration": 0.1499,
      "velocity": 92,
      "chip": "ym2612"
    },
    {
      "channel": 0,
      "note": 78,
      "start": 27.1746,
      "duration": 0.4832,
      "velocity": 96,
      "chip": "ym2612"
    },
    {
      "channel": 1,
      "note": 45,
      "start": 27.1748,
      "duration": 0.1499,
      "velocity": 100,
      "chip": "ym2612"
    },
    {
      "channel": 2,
      "note": 52,
      "start": 27.175,
      "duration": 0.1497,
      "velocity": 92,
      "chip": "ym2612"
    },
    {
      "channel": 1,
      "note": 40,
      "start": 27.3414,
      "duration": 0.1498,
      "velocity": 100,
      "chip": "ym2612"
    },
    {
      "channel": 2,
      "note": 47,
      "start": 27.3416,
      "duration": 0.1498,
      "velocity": 92,
      "chip": "ym2612"
    },
    {
      "channel": 1,
      "note": 42,
      "start": 27.5081,
      "duration": 0.1499,
      "velocity": 100,
      "chip": "ym2612"
    },
    {
      "channel": 2,
      "note": 49,
      "start": 27.5083,
      "duration": 0.1498,
      "velocity": 92,
      "chip": "ym2612"
    },
    {
      "channel": 0,
      "note": 76,
      "start": 27.6746,
      "duration": 0.9832,
      "velocity": 96,
      "chip": "ym2612"
    },
    {
      "channel": 1,
      "note": 42,
      "start": 27.6749,
      "duration": 0.1497,
      "velocity": 100,
      "chip": "ym2612"
    },
    {
      "channel": 2,
      "note": 49,
      "start": 27.6751,
      "duration": 0.1496,
      "velocity": 92,
      "chip": "ym2612"
    },
    {
      "channel": 1,
      "note": 45,
      "start": 27.8414,
      "duration": 0.1498,
      "velocity": 100,
      "chip": "ym2612"
    },
    {
      "channel": 2,
      "note": 52,
      "start": 27.8416,
      "duration": 0.1498,
      "velocity": 92,
      "chip": "ym2612"
    },
    {
      "channel": 1,
      "note": 40,
      "start": 28.0095,
      "duration": 0.1485,
      "velocity": 100,
      "chip": "ym2612"
    },
    {
      "channel": 2,
      "note": 47,
      "start": 28.011,
      "duration": 0.1471,
      "velocity": 92,
      "chip": "ym2612"
    },
    {
      "channel": 1,
      "note": 42,
      "start": 28.1747,
      "duration": 0.1499,
      "velocity": 100,
      "chip": "ym2612"
    },
    {
      "channel": 2,
      "note": 49,
      "start": 28.1749,
      "duration": 0.1499,
      "velocity": 92,
      "chip": "ym2612"
    },
    {
      "channel": 1,
      "note": 42,
      "start": 28.3414,
      "duration": 0.1499,
      "velocity": 100,
      "chip": "ym2612"
    },
    {
      "channel": 2,
      "note": 49,
      "start": 28.3415,
      "duration": 0.1499,
      "velocity": 92,
      "chip": "ym2612"
    },
    {
      "channel": 1,
      "note": 45,
      "start": 28.508,
      "duration": 0.1501,
      "velocity": 100,
      "chip": "ym2612"
    },
    {
      "channel": 2,
      "note": 52,
      "start": 28.5082,
      "duration": 0.1499,
      "velocity": 92,
      "chip": "ym2612"
    },
    {
      "channel": 0,
      "note": 77,
      "start": 28.6747,
      "duration": 0.3164,
      "velocity": 96,
      "chip": "ym2612"
    },
    {
      "channel": 1,
      "note": 40,
      "start": 28.6749,
      "duration": 0.1498,
      "velocity": 100,
      "chip": "ym2612"
    },
    {
      "channel": 2,
      "note": 47,
      "start": 28.6751,
      "duration": 0.1495,
      "velocity": 92,
      "chip": "ym2612"
    },
    {
      "channel": 1,
      "note": 42,
      "start": 28.8413,
      "duration": 0.15,
      "velocity": 100,
      "chip": "ym2612"
    },
    {
      "channel": 2,
      "note": 49,
      "start": 28.8415,
      "duration": 0.1499,
      "velocity": 92,
      "chip": "ym2612"
    },
    {
      "channel": 0,
      "note": 73,
      "start": 29.0078,
      "duration": 0.3167,
      "velocity": 96,
      "chip": "ym2612"
    },
    {
      "channel": 1,
      "note": 42,
      "start": 29.0081,
      "duration": 0.1498,
      "velocity": 100,
      "chip": "ym2612"
    },
    {
      "channel": 2,
      "note": 49,
      "start": 29.0083,
      "duration": 0.1497,
      "velocity": 92,
      "chip": "ym2612"
    },
    {
      "channel": 1,
      "note": 45,
      "start": 29.1747,
      "duration": 0.15,
      "velocity": 100,
      "chip": "ym2612"
    },
    {
      "channel": 2,
      "note": 52,
      "start": 29.1749,
      "duration": 0.1499,
      "velocity": 92,
      "chip": "ym2612"
    },
    {
      "channel": 0,
      "note": 76,
      "start": 29.3428,
      "duration": 0.4816,
      "velocity": 96,
      "chip": "ym2612"
    },
    {
      "channel": 1,
      "note": 40,
      "start": 29.3444,
      "duration": 0.147,
      "velocity": 100,
      "chip": "ym2612"
    },
    {
      "channel": 2,
      "note": 47,
      "start": 29.3458,
      "duration": 0.1456,
      "velocity": 92,
      "chip": "ym2612"
    },
    {
      "channel": 1,
      "note": 42,
      "start": 29.508,
      "duration": 0.1499,
      "velocity": 100,
      "chip": "ym2612"
    },
    {
      "channel": 2,
      "note": 49,
      "start": 29.5082,
      "duration": 0.1498,
      "velocity": 92,
      "chip": "ym2612"
    },
    {
      "channel": 1,
      "note": 42,
      "start": 29.6748,
      "duration": 0.1499,
      "velocity": 100,
      "chip": "ym2612"
    },
    {
      "channel": 2,
      "note": 49,
      "start": 29.675,
      "duration": 0.1498,
      "velocity": 92,
      "chip": "ym2612"
    },
    {
      "channel": 0,
      "note": 78,
      "start": 29.8412,
      "duration": 0.4834,
      "velocity": 96,
      "chip": "ym2612"
    },
    {
      "channel": 1,
      "note": 45,
      "start": 29.8414,
      "duration": 0.1498,
      "velocity": 100,
      "chip": "ym2612"
    },
    {
      "channel": 2,
      "note": 52,
      "start": 29.8416,
      "duration": 0.1498,
      "velocity": 92,
      "chip": "ym2612"
    },
    {
      "channel": 1,
      "note": 40,
      "start": 30.0081,
      "duration": 0.1499,
      "velocity": 100,
      "chip": "ym2612"
    },
    {
      "channel": 2,
      "note": 47,
      "start": 30.0083,
      "duration": 0.1499,
      "velocity": 92,
      "chip": "ym2612"
    },
    {
      "channel": 1,
      "note": 42,
      "start": 30.1747,
      "duration": 0.1501,
      "velocity": 100,
      "chip": "ym2612"
    },
    {
      "channel": 2,
      "note": 49,
      "start": 30.1749,
      "duration": 0.1499,
      "velocity": 92,
      "chip": "ym2612"
    },
    {
      "channel": 0,
      "note": 76,
      "start": 30.3413,
      "duration": 0.9832,
      "velocity": 96,
      "chip": "ym2612"
    },
    {
      "channel": 1,
      "note": 42,
      "start": 30.3415,
      "duration": 0.1499,
      "velocity": 100,
      "chip": "ym2612"
    },
    {
      "channel": 2,
      "note": 49,
      "start": 30.3417,
      "duration": 0.1497,
      "velocity": 92,
      "chip": "ym2612"
    },
    {
      "channel": 1,
      "note": 45,
      "start": 30.508,
      "duration": 0.1499,
      "velocity": 100,
      "chip": "ym2612"
    },
    {
      "channel": 2,
      "note": 52,
      "start": 30.5082,
      "duration": 0.1499,
      "velocity": 92,
      "chip": "ym2612"
    },
    {
      "channel": 1,
      "note": 40,
      "start": 30.6762,
      "duration": 0.1483,
      "velocity": 100,
      "chip": "ym2612"
    },
    {
      "channel": 2,
      "note": 47,
      "start": 30.6777,
      "duration": 0.147,
      "velocity": 92,
      "chip": "ym2612"
    },
    {
      "channel": 1,
      "note": 42,
      "start": 30.8414,
      "duration": 0.1498,
      "velocity": 100,
      "chip": "ym2612"
    },
    {
      "channel": 2,
      "note": 49,
      "start": 30.8416,
      "duration": 0.1498,
      "velocity": 92,
      "chip": "ym2612"
    },
    {
      "channel": 1,
      "note": 42,
      "start": 31.0081,
      "duration": 0.1498,
      "velocity": 100,
      "chip": "ym2612"
    },
    {
      "channel": 2,
      "note": 49,
      "start": 31.0083,
      "duration": 0.1498,
      "velocity": 92,
      "chip": "ym2612"
    },
    {
      "channel": 1,
      "note": 45,
      "start": 31.1748,
      "duration": 0.1499,
      "velocity": 100,
      "chip": "ym2612"
    },
    {
      "channel": 2,
      "note": 52,
      "start": 31.1749,
      "duration": 0.1498,
      "velocity": 92,
      "chip": "ym2612"
    },
    {
      "channel": 0,
      "note": 77,
      "start": 31.3413,
      "duration": 0.3166,
      "velocity": 96,
      "chip": "ym2612"
    },
    {
      "channel": 1,
      "note": 40,
      "start": 31.3415,
      "duration": 0.1497,
      "velocity": 100,
      "chip": "ym2612"
    },
    {
      "channel": 2,
      "note": 47,
      "start": 31.3417,
      "duration": 0.1496,
      "velocity": 92,
      "chip": "ym2612"
    },
    {
      "channel": 1,
      "note": 42,
      "start": 31.5081,
      "duration": 0.15,
      "velocity": 100,
      "chip": "ym2612"
    },
    {
      "channel": 2,
      "note": 49,
      "start": 31.5083,
      "duration": 0.1499,
      "velocity": 92,
      "chip": "ym2612"
    },
    {
      "channel": 0,
      "note": 73,
      "start": 31.6746,
      "duration": 0.3166,
      "velocity": 96,
      "chip": "ym2612"
    },
    {
      "channel": 1,
      "note": 42,
      "start": 31.6749,
      "duration": 0.1497,
      "velocity": 100,
      "chip": "ym2612"
    },
    {
      "channel": 2,
      "note": 49,
      "start": 31.6751,
      "duration": 0.1495,
      "velocity": 92,
      "chip": "ym2612"
    },
    {
      "channel": 1,
      "note": 45,
      "start": 31.8414,
      "duration": 0.15,
      "velocity": 100,
      "chip": "ym2612"
    },
    {
      "channel": 2,
      "note": 52,
      "start": 31.8416,
      "duration": 0.1498,
      "velocity": 92,
      "chip": "ym2612"
    },
    {
      "channel": 0,
      "note": 76,
      "start": 32.0096,
      "duration": 0.1482,
      "velocity": 92,
      "chip": "ym2612"
    },
    {
      "channel": 1,
      "note": 40,
      "start": 32.0111,
      "duration": 0.1469,
      "velocity": 100,
      "chip": "ym2612"
    },
    {
      "channel": 2,
      "note": 47,
      "start": 32.0126,
      "duration": 0.1455,
      "velocity": 92,
      "chip": "ym2612"
    },
    {
      "channel": 0,
      "note": 64,
      "start": 32.1746,
      "duration": 0.15,
      "velocity": 92,
      "chip": "ym2612"
    },
    {
      "channel": 1,
      "note": 40,
      "start": 32.1748,
      "duration": 0.1499,
      "velocity": 100,
      "chip": "ym2612"
    },
    {
      "channel": 2,
      "note": 52,
      "start": 32.175,
      "duration": 0.1498,
      "velocity": 92,
      "chip": "ym2612"
    },
    {
      "channel": 0,
      "note": 64,
      "start": 32.3412,
      "duration": 0.1499,
      "velocity": 92,
      "chip": "ym2612"
    },
    {
      "channel": 1,
      "note": 40,
      "start": 32.3414,
      "duration": 0.1499,
      "velocity": 100,
      "chip": "ym2612"
    },
    {
      "channel": 2,
      "note": 52,
      "start": 32.3417,
      "duration": 0.1497,
      "velocity": 92,
      "chip": "ym2612"
    },
    {
      "channel": 0,
      "note": 67,
      "start": 32.5078,
      "duration": 0.15,
      "velocity": 92,
      "chip": "ym2612"
    },
    {
      "channel": 1,
      "note": 43,
      "start": 32.5081,
      "duration": 0.15,
      "velocity": 100,
      "chip": "ym2612"
    },
    {
      "channel": 2,
      "note": 55,
      "start": 32.5083,
      "duration": 0.1499,
      "velocity": 92,
      "chip": "ym2612"
    },
    {
      "channel": 0,
      "note": 62,
      "start": 32.6759,
      "duration": 0.1487,
      "velocity": 86,
      "chip": "ym2612"
    },
    {
      "channel": 1,
      "note": 38,
      "start": 32.6761,
      "duration": 0.1487,
      "velocity": 100,
      "chip": "ym2612"
    },
    {
      "channel": 2,
      "note": 50,
      "start": 32.6763,
      "duration": 0.1485,
      "velocity": 92,
      "chip": "ym2612"
    },
    {
      "channel": 0,
      "note": 64,
      "start": 32.8413,
      "duration": 0.1499,
      "velocity": 86,
      "chip": "ym2612"
    },
    {
      "channel": 1,
      "note": 40,
      "start": 32.8415,
      "duration": 0.1499,
      "velocity": 100,
      "chip": "ym2612"
    },
    {
      "channel": 2,
      "note": 52,
      "start": 32.8417,
      "duration": 0.1498,
      "velocity": 92,
      "chip": "ym2612"
    },
    {
      "channel": 0,
      "note": 64,
      "start": 33.0079,
      "duration": 0.15,
      "velocity": 86,
      "chip": "ym2612"
    },
    {
      "channel": 1,
      "note": 40,
      "start": 33.0082,
      "duration": 0.1499,
      "velocity": 100,
      "chip": "ym2612"
    },
    {
      "channel": 2,
      "note": 52,
      "start": 33.0083,
      "duration": 0.1498,
      "velocity": 92,
      "chip": "ym2612"
    },
    {
      "channel": 0,
      "note": 67,
      "start": 33.1746,
      "duration": 0.1499,
      "velocity": 86,
      "chip": "ym2612"
    },
    {
      "channel": 1,
      "note": 43,
      "start": 33.1748,
      "duration": 0.1499,
      "velocity": 100,
      "chip": "ym2612"
    },
    {
      "channel": 2,
      "note": 55,
      "start": 33.175,
      "duration": 0.1497,
      "velocity": 92,
      "chip": "ym2612"
    }
  ]
}