{
  "track_name": "07 - Chug Wagon",
  "duration_sec": 90.86,
  "sample_rate": 44100,
  "note_count": 811,
  "unique_pitches": 24,
  "pitch_range": 69,
  "avg_note_duration": 0.1088,
  "reconstruction_stats": {
    "notes_reconstructed": 811,
    "keyon_events": 811,
    "keyoff_events": 810,
    "orphan_keyons": 1,
    "unique_pitches": 24,
    "pitch_range": 69,
    "avg_duration_sec": 0.1088
  },
  "metadata": {
    "source": "S\\Skitchin'\\07 - Chug Wagon.vgz"
  },
  "notes": [
    {
      "channel": 1,
      "note": 59,
      "start": 0.0039,
      "duration": 0.0024,
      "velocity": 120,
      "chip": "ym2612"
    },
    {
      "channel": 1,
      "note": 55,
      "start": 0.0115,
      "duration": 0.0019,
      "velocity": 120,
      "chip": "ym2612"
    },
    {
      "channel": 1,
      "note": 55,
      "start": 0.0212,
      "duration": 0.0033,
      "velocity": 120,
      "chip": "ym2612"
    },
    {
      "channel": 1,
      "note": 55,
      "start": 0.0288,
      "duration": 0.0032,
      "velocity": 120,
      "chip": "ym2612"
    },
    {
      "channel": 1,
      "note": 55,
      "start": 0.0423,
      "duration": 0.0039,
      "velocity": 120,
      "chip": "ym2612"
    },
    {
      "channel": 0,
      "note": 37,
      "start": 0.0486,
      "duration": 0.0149,
      "velocity": 88,
      "chip": "ym2612"
    },
    {
      "channel": 1,
      "note": 82,
      "start": 0.0601,
      "duration": 0.0015,
      "velocity": 127,
      "chip": "ym2612"
    },
    {
      "channel": 0,
      "note": 49,
      "start": 0.0647,
      "duration": 0.0021,
      "velocity": 88,
      "chip": "ym2612"
    },
    {
      "channel": 0,
      "note": 49,
      "start": 0.0668,
      "duration": 0.0053,
      "velocity": 88,
      "chip": "ym2612"
    },
    {
      "channel": 1,
      "note": 106,
      "start": 0.0687,
      "duration": 0.0024,
      "velocity": 127,
      "chip": "ym2612"
    },
    {
      "channel": 0,
      "note": 49,
      "start": 0.0721,
      "duration": 0.0037,
      "velocity": 88,
      "chip": "ym2612"
    },
    {
      "channel": 1,
      "note": 101,
      "start": 0.074,
      "duration": 0.0007,
      "velocity": 114,
      "chip": "ym2612"
    },
    {
      "channel": 0,
      "note": 49,
      "start": 0.0759,
      "duration": 0.0046,
      "velocity": 88,
      "chip": "ym2612"
    },
    {
      "channel": 1,
      "note": 106,
      "start": 0.0777,
      "duration": 0.0009,
      "velocity": 127,
      "chip": "ym2612"
    },
    {
      "channel": 0,
      "note": 49,
      "start": 0.0806,
      "duration": 0.0047,
      "velocity": 88,
      "chip": "ym2612"
    },
    {
      "channel": 1,
      "note": 101,
      "start": 0.0824,
      "duration": 0.0022,
      "velocity": 114,
      "chip": "ym2612"
    },
    {
      "channel": 0,
      "note": 49,
      "start": 0.0853,
      "duration": 0.0047,
      "velocity": 88,
      "chip": "ym2612"
    },
    {
      "channel": 1,
      "note": 106,
      "start": 0.0872,
      "duration": 0.001,
      "velocity": 127,
      "chip": "ym2612"
    },
    {
      "channel": 0,
      "note": 49,
      "start": 0.0901,
      "duration": 0.0052,
      "velocity": 88,
      "chip": "ym2612"
    },
    {
      "channel": 1,
      "note": 101,
      "start": 0.092,
      "duration": 0.0015,
      "velocity": 114,
      "chip": "ym2612"
    },
    {
      "channel": 0,
      "note": 49,
      "start": 0.0953,
      "duration": 0.0058,
      "velocity": 88,
      "chip": "ym2612"
    },
    {
      "channel": 1,
      "note": 106,
      "start": 0.0971,
      "duration": 0.001,
      "velocity": 127,
      "chip": "ym2612"
    },
    {
      "channel": 0,
      "note": 49,
      "start": 0.1011,
      "duration": 0.0039,
      "velocity": 88,
      "chip": "ym2612"
    },
    {
      "channel": 1,
      "note": 101,
      "start": 0.103,
      "duration": 0.0009,
      "velocity": 114,
      "chip": "ym2612"
    },
    {
      "channel": 0,
      "note": 49,
      "start": 0.105,
      "duration": 0.0043,
      "velocity": 88,
      "chip": "ym2612"
    },
    {
      "channel": 1,
      "note": 106,
      "start": 0.1069,
      "duration": 0.0009,
      "velocity": 127,
      "chip": "ym2612"
    },
    {
      "channel": 0,
      "note": 49,
      "start": 0.1093,
      "duration": 0.0053,
      "velocity": 88,
      "chip": "ym2612"
    },
    {
      "channel": 1,
      "note": 101,
      "start": 0.1112,
      "duration": 0.0015,
      "velocity": 114,
      "chip": "ym2612"
    },
    {
      "channel": 0,
      "note": 49,
      "start": 0.1147,
      "duration": 0.0038,
      "velocity": 88,
      "chip": "ym2612"
    },
    {
      "channel": 1,
      "note": 106,
      "start": 0.1165,
      "duration": 0.001,
      "velocity": 127,
      "chip": "ym2612"
    },
    {
      "channel": 0,
      "note": 49,
      "start": 0.1185,
      "duration": 0.0032,
      "velocity": 88,
      "chip": "ym2612"
    },
    {
      "channel": 1,
      "note": 101,
      "start": 0.1204,
      "duration": 0.0007,
      "velocity": 114,
      "chip": "ym2612"
    },
    {
      "channel": 0,
      "note": 49,
      "start": 0.1217,
      "duration": 0.0063,
      "velocity": 88,
      "chip": "ym2612"
    },
    {
      "channel": 1,
      "note": 106,
      "start": 0.1236,
      "duration": 0.0023,
      "velocity": 127,
      "chip": "ym2612"
    },
    {
      "channel": 0,
      "note": 49,
      "start": 0.1281,
      "duration": 0.004,
      "velocity": 88,
      "chip": "ym2612"
    },
    {
      "channel": 1,
      "note": 101,
      "start": 0.13,
      "duration": 0.0007,
      "velocity": 114,
      "chip": "ym2612"
    },
    {
      "channel": 0,
      "note": 49,
      "start": 0.1321,
      "duration": 0.0059,
      "velocity": 88,
      "chip": "ym2612"
    },
    {
      "channel": 1,
      "note": 106,
      "start": 0.134,
      "duration": 0.001,
      "velocity": 127,
      "chip": "ym2612"
    },
    {
      "channel": 0,
      "note": 49,
      "start": 0.138,
      "duration": 0.0038,
      "velocity": 88,
      "chip": "ym2612"
    },
    {
      "channel": 1,
      "note": 101,
      "start": 0.1399,
      "duration": 0.0009,
      "velocity": 114,
      "chip": "ym2612"
    },
    {
      "channel": 0,
      "note": 49,
      "start": 0.1419,
      "duration": 0.0043,
      "velocity": 88,
      "chip": "ym2612"
    },
    {
      "channel": 1,
      "note": 106,
      "start": 0.1437,
      "duration": 0.0009,
      "velocity": 127,
      "chip": "ym2612"
    },
    {
      "channel": 0,
      "note": 49,
      "start": 0.1463,
      "duration": 0.0049,
      "velocity": 88,
      "chip": "ym2612"
    },
    {
      "channel": 1,
      "note": 101,
      "start": 0.1481,
      "duration": 0.0025,
      "velocity": 114,
      "chip": "ym2612"
    },
    {
      "channel": 0,
      "note": 49,
      "start": 0.1512,
      "duration": 0.0039,
      "velocity": 88,
      "chip": "ym2612"
    },
    {
      "channel": 1,
      "note": 106,
      "start": 0.1531,
      "duration": 0.001,
      "velocity": 127,
      "chip": "ym2612"
    },
    {
      "channel": 0,
      "note": 49,
      "start": 0.1551,
      "duration": 0.0034,
      "velocity": 88,
      "chip": "ym2612"
    },
    {
      "channel": 1,
      "note": 101,
      "start": 0.157,
      "duration": 0.0007,
      "velocity": 114,
      "chip": "ym2612"
    },
    {
      "channel": 0,
      "note": 49,
      "start": 0.1585,
      "duration": 0.0063,
      "velocity": 88,
      "chip": "ym2612"
    },
    {
      "channel": 1,
      "note": 106,
      "start": 0.1604,
      "duration": 0.0023,
      "velocity": 127,
      "chip": "ym2612"
    },
    {
      "channel": 0,
      "note": 49,
      "start": 0.1648,
      "duration": 0.0052,
      "velocity": 88,
      "chip": "ym2612"
    },
    {
      "channel": 1,
      "note": 101,
      "start": 0.1667,
      "duration": 0.0015,
      "velocity": 114,
      "chip": "ym2612"
    },
    {
      "channel": 0,
      "note": 49,
      "start": 0.1701,
      "duration": 0.0059,
      "velocity": 88,
      "chip": "ym2612"
    },
    {
      "channel": 1,
      "note": 106,
      "start": 0.1719,
      "duration": 0.0009,
      "velocity": 127,
      "chip": "ym2612"
    },
    {
      "channel": 0,
      "note": 49,
      "start": 0.1759,
      "duration": 0.0039,
      "velocity": 88,
      "chip": "ym2612"
    },
    {
      "channel": 1,
      "note": 101,
      "start": 0.1778,
      "duration": 0.0009,
      "velocity": 114,
      "chip": "ym2612"
    },
    {
      "channel": 0,
      "note": 49,
      "start": 0.1798,
      "duration": 0.0044,
      "velocity": 88,
      "chip": "ym2612"
    },
    {
      "channel": 1,
      "note": 106,
      "start": 0.1817,
      "duration": 0.001,
      "velocity": 127,
      "chip": "ym2612"
    },
    {
      "channel": 0,
      "note": 49,
      "start": 0.1842,
      "duration": 0.004,
      "velocity": 88,
      "chip": "ym2612"
    },
    {
      "channel": 1,
      "note": 101,
      "start": 0.1861,
      "duration": 0.0015,
      "velocity": 114,
      "chip": "ym2612"
    },
    {
      "channel": 0,
      "note": 49,
      "start": 0.1883,
      "duration": 0.0039,
      "velocity": 88,
      "chip": "ym2612"
    },
    {
      "channel": 1,
      "note": 106,
      "start": 0.1901,
      "duration": 0.001,
      "velocity": 127,
      "chip": "ym2612"
    },
    {
      "channel": 0,
      "note": 49,
      "start": 0.1921,
      "duration": 0.0032,
      "velocity": 88,
      "chip": "ym2612"
    },
    {
      "channel": 1,
      "note": 101,
      "start": 0.194,
      "duration": 0.0007,
      "velocity": 114,
      "chip": "ym2612"
    },
    {
      "channel": 0,
      "note": 49,
      "start": 0.1954,
      "duration": 0.0046,
      "velocity": 88,
      "chip": "ym2612"
    },
    {
      "channel": 1,
      "note": 106,
      "start": 0.1973,
      "duration": 0.001,
      "velocity": 127,
      "chip": "ym2612"
    },
    {
      "channel": 0,
      "note": 49,
      "start": 0.2,
      "duration": 0.0041,
      "velocity": 88,
      "chip": "ym2612"
    },
    {
      "channel": 1,
      "note": 101,
      "start": 0.202,
      "duration": 0.0007,
      "velocity": 114,
      "chip": "ym2612"
    },
    {
      "channel": 0,
      "note": 49,
      "start": 0.2042,
      "duration": 0.0058,
      "velocity": 88,
      "chip": "ym2612"
    },
    {
      "channel": 1,
      "note": 106,
      "start": 0.2061,
      "duration": 0.0009,
      "velocity": 127,
      "chip": "ym2612"
    },
    {
      "channel": 0,
      "note": 49,
      "start": 0.21,
      "duration": 0.0039,
      "velocity": 88,
      "chip": "ym2612"
    },
    {
      "channel": 1,
      "note": 101,
      "start": 0.2119,
      "duration": 0.0009,
      "velocity": 114,
      "chip": "ym2612"
    },
    {
      "channel": 0,
      "note": 49,
      "start": 0.2139,
      "duration": 0.0038,
      "velocity": 88,
      "chip": "ym2612"
    },
    {
      "channel": 1,
      "note": 106,
      "start": 0.2157,
      "duration": 0.0009,
      "velocity": 127,
      "chip": "ym2612"
    },
    {
      "channel": 0,
      "note": 49,
      "start": 0.2177,
      "duration": 0.0038,
      "velocity": 88,
      "chip": "ym2612"
    },
    {
      "channel": 1,
      "note": 101,
      "start": 0.2195,
      "duration": 0.0007,
      "velocity": 114,
      "chip": "ym2612"
    },
    {
      "channel": 0,
      "note": 49,
      "start": 0.2215,
      "duration": 0.0038,
      "velocity": 88,
      "chip": "ym2612"
    },
    {
      "channel": 1,
      "note": 106,
      "start": 0.2234,
      "duration": 0.0009,
      "velocity": 127,
      "chip": "ym2612"
    },
    {
      "channel": 0,
      "note": 49,
      "start": 0.2254,
      "duration": 0.0032,
      "velocity": 88,
      "chip": "ym2612"
    },
    {
      "channel": 1,
      "note": 101,
      "start": 0.2272,
      "duration": 0.0007,
      "velocity": 114,
      "chip": "ym2612"
    },
    {
      "channel": 0,
      "note": 49,
      "start": 0.2286,
      "duration": 0.0048,
      "velocity": 88,
      "chip": "ym2612"
    },
    {
      "channel": 1,
      "note": 106,
      "start": 0.2305,
      "duration": 0.0009,
      "velocity": 127,
      "chip": "ym2612"
    },
    {
      "channel": 0,
      "note": 49,
      "start": 0.2334,
      "duration": 0.0052,
      "velocity": 88,
      "chip": "ym2612"
    },
    {
      "channel": 1,
      "note": 101,
      "start": 0.2353,
      "duration": 0.0015,
      "velocity": 114,
      "chip": "ym2612"
    },
    {
      "channel": 0,
      "note": 49,
      "start": 0.2386,
      "duration": 0.0058,
      "velocity": 88,
      "chip": "ym2612"
    },
    {
      "channel": 1,
      "note": 106,
      "start": 0.2405,
      "duration": 0.0009,
      "velocity": 127,
      "chip": "ym2612"
    },
    {
      "channel": 0,
      "note": 49,
      "start": 0.2444,
      "duration": 0.0038,
      "velocity": 88,
      "chip": "ym2612"
    },
    {
      "channel": 1,
      "note": 101,
      "start": 0.2463,
      "duration": 0.0009,
      "velocity": 114,
      "chip": "ym2612"
    },
    {
      "channel": 0,
      "note": 49,
      "start": 0.2483,
      "duration": 0.0039,
      "velocity": 88,
      "chip": "ym2612"
    },
    {
      "channel": 1,
      "note": 106,
      "start": 0.2501,
      "duration": 0.001,
      "velocity": 127,
      "chip": "ym2612"
    },
    {
      "channel": 0,
      "note": 49,
      "start": 0.2522,
      "duration": 0.0032,
      "velocity": 88,
      "chip": "ym2612"
    },
    {
      "channel": 1,
      "note": 101,
      "start": 0.2541,
      "duration": 0.0007,
      "velocity": 114,
      "chip": "ym2612"
    },
    {
      "channel": 0,
      "note": 49,
      "start": 0.2555,
      "duration": 0.0048,
      "velocity": 88,
      "chip": "ym2612"
    },
    {
      "channel": 1,
      "note": 106,
      "start": 0.2573,
      "duration": 0.0009,
      "velocity": 127,
      "chip": "ym2612"
    },
    {
      "channel": 0,
      "note": 49,
      "start": 0.2604,
      "duration": 0.0033,
      "velocity": 88,
      "chip": "ym2612"
    },
    {
      "channel": 1,
      "note": 101,
      "start": 0.2622,
      "duration": 0.0007,
      "velocity": 114,
      "chip": "ym2612"
    },
    {
      "channel": 0,
      "note": 49,
      "start": 0.2636,
      "duration": 0.0251,
      "velocity": 88,
      "chip": "ym2612"
    },
    {
      "channel": 1,
      "note": 106,
      "start": 0.2655,
      "duration": 0.0008,
      "velocity": 127,
      "chip": "ym2612"
    },
    {
      "channel": 0,
      "note": 51,
      "start": 0.2888,
      "duration": 0.0036,
      "velocity": 88,
      "chip": "ym2612"
    },
    {
      "channel": 1,
      "note": 82,
      "start": 0.2905,
      "duration": 0.001,
      "velocity": 127,
      "chip": "ym2612"
    },
    {
      "channel": 1,
      "note": 106,
      "start": 0.2942,
      "duration": 0.026,
      "velocity": 127,
      "chip": "ym2612"
    },
    {
      "channel": 0,
      "note": 50,
      "start": 0.4882,
      "duration": 0.0057,
      "velocity": 88,
      "chip": "ym2612"
    },
    {
      "channel": 1,
      "note": 82,
      "start": 0.49,
      "duration": 0.003,
      "velocity": 127,
      "chip": "ym2612"
    },
    {
      "channel": 1,
      "note": 106,
      "start": 0.4958,
      "duration": 0.0007,
      "velocity": 127,
      "chip": "ym2612"
    },
    {
      "channel": 0,
      "note": 53,
      "start": 0.5363,
      "duration": 0.0036,
      "velocity": 88,
      "chip": "ym2612"
    },
    {
      "channel": 1,
      "note": 82,
      "start": 0.538,
      "duration": 0.0009,
      "velocity": 127,
      "chip": "ym2612"
    },
    {
      "channel": 1,
      "note": 106,
      "start": 0.5417,
      "duration": 0.0005,
      "velocity": 127,
      "chip": "ym2612"
    },
    {
      "channel": 0,
      "note": 52,
      "start": 0.6636,
      "duration": 0.0061,
      "velocity": 88,
      "chip": "ym2612"
    },
    {
      "channel": 1,
      "note": 82,
      "start": 0.6654,
      "duration": 0.001,
      "velocity": 127,
      "chip": "ym2612"
    },
    {
      "channel": 1,
      "note": 106,
      "start": 0.669,
      "duration": 0.0008,
      "velocity": 127,
      "chip": "ym2612"
    },
    {
      "channel": 0,
      "note": 45,
      "start": 0.6936,
      "duration": 0.0057,
      "velocity": 88,
      "chip": "ym2612"
    },
    {
      "channel": 1,
      "note": 82,
      "start": 0.6954,
      "duration": 0.0025,
      "velocity": 127,
      "chip": "ym2612"
    },
    {
      "channel": 0,
      "note": 46,
      "start": 0.6993,
      "duration": 0.007,
      "velocity": 88,
      "chip": "ym2612"
    },
    {
      "channel": 1,
      "note": 55,
      "start": 0.7012,
      "duration": 0.0035,
      "velocity": 120,
      "chip": "ym2612"
    },
    {
      "channel": 0,
      "note": 45,
      "start": 0.7063,
      "duration": 0.0087,
      "velocity": 88,
      "chip": "ym2612"
    },
    {
      "channel": 1,
      "note": 55,
      "start": 0.7082,
      "duration": 0.0039,
      "velocity": 120,
      "chip": "ym2612"
    },
    {
      "channel": 0,
      "note": 47,
      "start": 0.715,
      "duration": 0.0061,
      "velocity": 88,
      "chip": "ym2612"
    },
    {
      "channel": 1,
      "note": 55,
      "start": 0.7169,
      "duration": 0.0021,
      "velocity": 120,
      "chip": "ym2612"
    },
    {
      "channel": 0,
      "note": 48,
      "start": 0.7212,
      "duration": 0.0054,
      "velocity": 88,
      "chip": "ym2612"
    },
    {
      "channel": 1,
      "note": 55,
      "start": 0.7231,
      "duration": 0.0028,
      "velocity": 120,
      "chip": "ym2612"
    },
    {
      "channel": 1,
      "note": 55,
      "start": 0.7285,
      "duration": 0.0017,
      "velocity": 120,
      "chip": "ym2612"
    },
    {
      "channel": 0,
      "note": 46,
      "start": 0.7452,
      "duration": 0.0061,
      "velocity": 88,
      "chip": "ym2612"
    },
    {
      "channel": 1,
      "note": 55,
      "start": 0.7471,
      "duration": 0.0034,
      "velocity": 120,
      "chip": "ym2612"
    },
    {
      "channel": 0,
      "note": 45,
      "start": 0.7513,
      "duration": 0.005,
      "velocity": 88,
      "chip": "ym2612"
    },
    {
      "channel": 1,
      "note": 55,
      "start": 0.7532,
      "duration": 0.0019,
      "velocity": 120,
      "chip": "ym2612"
    },
    {
      "channel": 0,
      "note": 47,
      "start": 0.7563,
      "duration": 0.0099,
      "velocity": 88,
      "chip": "ym2612"
    },
    {
      "channel": 1,
      "note": 62,
      "start": 0.7582,
      "duration": 0.0018,
      "velocity": 120,
      "chip": "ym2612"
    },
    {
      "channel": 1,
      "note": 59,
      "start": 0.7624,
      "duration": 0.0015,
      "velocity": 120,
      "chip": "ym2612"
    },
    {
      "channel": 0,
      "note": 48,
      "start": 0.7662,
      "duration": 0.0084,
      "velocity": 88,
      "chip": "ym2612"
    },
    {
      "channel": 1,
      "note": 55,
      "start": 0.7681,
      "duration": 0.0033,
      "velocity": 120,
      "chip": "ym2612"
    },
    {
      "channel": 1,
      "note": 55,
      "start": 0.7741,
      "duration": 0.0017,
      "velocity": 120,
      "chip": "ym2612"
    },
    {
      "channel": 0,
      "note": 46,
      "start": 0.9208,
      "duration": 0.0056,
      "velocity": 88,
      "chip": "ym2612"
    },
    {
      "channel": 1,
      "note": 55,
      "start": 0.9227,
      "duration": 0.0024,
      "velocity": 120,
      "chip": "ym2612"
    },
    {
      "channel": 0,
      "note": 45,
      "start": 0.9264,
      "duration": 0.007,
      "velocity": 88,
      "chip": "ym2612"
    },
    {
      "channel": 1,
      "note": 55,
      "start": 0.9283,
      "duration": 0.0044,
      "velocity": 120,
      "chip": "ym2612"
    },
    {
      "channel": 0,
      "note": 47,
      "start": 0.9341,
      "duration": 0.0053,
      "velocity": 88,
      "chip": "ym2612"
    },
    {
      "channel": 1,
      "note": 55,
      "start": 0.936,
      "duration": 0.0023,
      "velocity": 120,
      "chip": "ym2612"
    },
    {
      "channel": 0,
      "note": 48,
      "start": 0.9394,
      "duration": 0.0071,
      "velocity": 88,
      "chip": "ym2612"
    },
    {
      "channel": 1,
      "note": 55,
      "start": 0.9413,
      "duration": 0.0037,
      "velocity": 120,
      "chip": "ym2612"
    },
    {
      "channel": 0,
      "note": 46,
      "start": 0.9466,
      "duration": 0.0054,
      "velocity": 88,
      "chip": "ym2612"
    },
    {
      "channel": 1,
      "note": 55,
      "start": 0.9485,
      "duration": 0.0024,
      "velocity": 120,
      "chip": "ym2612"
    },
    {
      "channel": 0,
      "note": 45,
      "start": 0.9521,
      "duration": 0.0106,
      "velocity": 88,
      "chip": "ym2612"
    },
    {
      "channel": 1,
      "note": 62,
      "start": 0.954,
      "duration": 0.0034,
      "velocity": 120,
      "chip": "ym2612"
    },
    {
      "channel": 1,
      "note": 59,
      "start": 0.9597,
      "duration": 0.0015,
      "velocity": 120,
      "chip": "ym2612"
    },
    {
      "channel": 0,
      "note": 46,
      "start": 0.9627,
      "duration": 0.007,
      "velocity": 88,
      "chip": "ym2612"
    },
    {
      "channel": 1,
      "note": 55,
      "start": 0.9646,
      "duration": 0.0039,
      "velocity": 120,
      "chip": "ym2612"
    },
    {
      "channel": 0,
      "note": 45,
      "start": 0.9698,
      "duration": 0.0061,
      "velocity": 88,
      "chip": "ym2612"
    },
    {
      "channel": 1,
      "note": 55,
      "start": 0.9716,
      "duration": 0.0035,
      "velocity": 120,
      "chip": "ym2612"
    },
    {
      "channel": 0,
      "note": 47,
      "start": 0.976,
      "duration": 0.006,
      "velocity": 88,
      "chip": "ym2612"
    },
    {
      "channel": 1,
      "note": 55,
      "start": 0.9779,
      "duration": 0.002,
      "velocity": 120,
      "chip": "ym2612"
    },
    {
      "channel": 0,
      "note": 48,
      "start": 0.982,
      "duration": 0.0053,
      "velocity": 88,
      "chip": "ym2612"
    },
    {
      "channel": 1,
      "note": 55,
      "start": 0.9839,
      "duration": 0.0028,
      "velocity": 120,
      "chip": "ym2612"
    },
    {
      "channel": 1,
      "note": 55,
      "start": 0.9895,
      "duration": 0.0017,
      "velocity": 120,
      "chip": "ym2612"
    },
    {
      "channel": 0,
      "note": 46,
      "start": 1.0067,
      "duration": 0.0061,
      "velocity": 88,
      "chip": "ym2612"
    },
    {
      "channel": 1,
      "note": 55,
      "start": 1.0086,
      "duration": 0.0034,
      "velocity": 120,
      "chip": "ym2612"
    },
    {
      "channel": 0,
      "note": 45,
      "start": 1.0128,
      "duration": 0.005,
      "velocity": 88,
      "chip": "ym2612"
    },
    {
      "channel": 1,
      "note": 55,
      "start": 1.0147,
      "duration": 0.0019,
      "velocity": 120,
      "chip": "ym2612"
    },
    {
      "channel": 0,
      "note": 47,
      "start": 1.0178,
      "duration": 0.0083,
      "velocity": 88,
      "chip": "ym2612"
    },
    {
      "channel": 1,
      "note": 62,
      "start": 1.0197,
      "duration": 0.0018,
      "velocity": 120,
      "chip": "ym2612"
    },
    {
      "channel": 1,
      "note": 59,
      "start": 1.0239,
      "duration": 0.0022,
      "velocity": 120,
      "chip": "ym2612"
    },
    {
      "channel": 0,
      "note": 48,
      "start": 1.027,
      "duration": 0.0062,
      "velocity": 88,
      "chip": "ym2612"
    },
    {
      "channel": 1,
      "note": 55,
      "start": 1.0289,
      "duration": 0.0033,
      "velocity": 120,
      "chip": "ym2612"
    },
    {
      "channel": 1,
      "note": 55,
      "start": 1.0351,
      "duration": 0.0016,
      "velocity": 120,
      "chip": "ym2612"
    },
    {
      "channel": 0,
      "note": 46,
      "start": 1.182,
      "duration": 0.006,
      "velocity": 88,
      "chip": "ym2612"
    },
    {
      "channel": 1,
      "note": 55,
      "start": 1.1839,
      "duration": 0.002,
      "velocity": 120,
      "chip": "ym2612"
    },
    {
      "channel": 0,
      "note": 45,
      "start": 1.188,
      "duration": 0.0064,
      "velocity": 88,
      "chip": "ym2612"
    },
    {
      "channel": 1,
      "note": 55,
      "start": 1.1899,
      "duration": 0.0039,
      "velocity": 120,
      "chip": "ym2612"
    },
    {
      "channel": 0,
      "note": 47,
      "start": 1.1961,
      "duration": 0.0058,
      "velocity": 88,
      "chip": "ym2612"
    },
    {
      "channel": 1,
      "note": 55,
      "start": 1.198,
      "duration": 0.0019,
      "velocity": 120,
      "chip": "ym2612"
    },
    {
      "channel": 0,
      "note": 48,
      "start": 1.202,
      "duration": 0.0071,
      "velocity": 88,
      "chip": "ym2612"
    },
    {
      "channel": 1,
      "note": 55,
      "start": 1.2039,
      "duration": 0.0029,
      "velocity": 120,
      "chip": "ym2612"
    },
    {
      "channel": 0,
      "note": 46,
      "start": 1.209,
      "duration": 0.0053,
      "velocity": 88,
      "chip": "ym2612"
    },
    {
      "channel": 1,
      "note": 55,
      "start": 1.2109,
      "duration": 0.0019,
      "velocity": 120,
      "chip": "ym2612"
    },
    {
      "channel": 0,
      "note": 45,
      "start": 1.2143,
      "duration": 0.0097,
      "velocity": 88,
      "chip": "ym2612"
    },
    {
      "channel": 1,
      "note": 62,
      "start": 1.2162,
      "duration": 0.0039,
      "velocity": 120,
      "chip": "ym2612"
    },
    {
      "channel": 1,
      "note": 59,
      "start": 1.2225,
      "duration": 0.0017,
      "velocity": 120,
      "chip": "ym2612"
    },
    {
      "channel": 0,
      "note": 46,
      "start": 1.2249,
      "duration": 0.0061,
      "velocity": 88,
      "chip": "ym2612"
    },
    {
      "channel": 1,
      "note": 55,
      "start": 1.2268,
      "duration": 0.0022,
      "velocity": 120,
      "chip": "ym2612"
    },
    {
      "channel": 0,
      "note": 45,
      "start": 1.2311,
      "duration": 0.0073,
      "velocity": 88,
      "chip": "ym2612"
    },
    {
      "channel": 1,
      "note": 55,
      "start": 1.233,
      "duration": 0.0048,
      "velocity": 120,
      "chip": "ym2612"
    },
    {
      "channel": 0,
      "note": 47,
      "start": 1.2392,
      "duration": 0.0061,
      "velocity": 88,
      "chip": "ym2612"
    },
    {
      "channel": 1,
      "note": 55,
      "start": 1.2411,
      "duration": 0.0026,
      "velocity": 120,
      "chip": "ym2612"
    },
    {
      "channel": 0,
      "note": 48,
      "start": 1.2453,
      "duration": 0.0059,
      "velocity": 88,
      "chip": "ym2612"
    },
    {
      "channel": 1,
      "note": 55,
      "start": 1.2473,
      "duration": 0.0034,
      "velocity": 120,
      "chip": "ym2612"
    },
    {
      "channel": 1,
      "note": 55,
      "start": 1.2532,
      "duration": 0.0021,
      "velocity": 120,
      "chip": "ym2612"
    },
    {
      "channel": 0,
      "note": 46,
      "start": 1.2694,
      "duration": 0.0061,
      "velocity": 88,
      "chip": "ym2612"
    },
    {
      "channel": 1,
      "note": 55,
      "start": 1.2713,
      "duration": 0.0035,
      "velocity": 120,
      "chip": "ym2612"
    },
    {
      "channel": 0,
      "note": 45,
      "start": 1.2756,
      "duration": 0.0049,
      "velocity": 88,
      "chip": "ym2612"
    },
    {
      "channel": 1,
      "note": 55,
      "start": 1.2775,
      "duration": 0.0024,
      "velocity": 120,
      "chip": "ym2612"
    },
    {
      "channel": 0,
      "note": 47,
      "start": 1.2815,
      "duration": 0.0089,
      "velocity": 88,
      "chip": "ym2612"
    },
    {
      "channel": 1,
      "note": 62,
      "start": 1.2834,
      "duration": 0.0022,
      "velocity": 120,
      "chip": "ym2612"
    },
    {
      "channel": 1,
      "note": 59,
      "start": 1.2881,
      "duration": 0.0016,
      "velocity": 120,
      "chip": "ym2612"
    },
    {
      "channel": 0,
      "note": 48,
      "start": 1.2905,
      "duration": 0.0089,
      "velocity": 88,
      "chip": "ym2612"
    },
    {
      "channel": 1,
      "note": 55,
      "start": 1.2924,
      "duration": 0.0038,
      "velocity": 120,
      "chip": "ym2612"
    },
    {
      "channel": 1,
      "note": 55,
      "start": 1.2989,
      "duration": 0.0111,
      "velocity": 120,
      "chip": "ym2612"
    },
    {
      "channel": 0,
      "note": 46,
      "start": 1.4617,
      "duration": 0.006,
      "velocity": 88,
      "chip": "ym2612"
    },
    {
      "channel": 1,
      "note": 55,
      "start": 1.4636,
      "duration": 0.0019,
      "velocity": 120,
      "chip": "ym2612"
    },
    {
      "channel": 0,
      "note": 45,
      "start": 1.4677,
      "duration": 0.0064,
      "velocity": 88,
      "chip": "ym2612"
    },
    {
      "channel": 1,
      "note": 55,
      "start": 1.4696,
      "duration": 0.0039,
      "velocity": 120,
      "chip": "ym2612"
    },
    {
      "channel": 0,
      "note": 47,
      "start": 1.4759,
      "duration": 0.0058,
      "velocity": 88,
      "chip": "ym2612"
    },
    {
      "channel": 1,
      "note": 55,
      "start": 1.4778,
      "duration": 0.0019,
      "velocity": 120,
      "chip": "ym2612"
    },
    {
      "channel": 0,
      "note": 48,
      "start": 1.4817,
      "duration": 0.0071,
      "velocity": 88,
      "chip": "ym2612"
    },
    {
      "channel": 1,
      "note": 55,
      "start": 1.4837,
      "duration": 0.0029,
      "velocity": 120,
      "chip": "ym2612"
    },
    {
      "channel": 0,
      "note": 46,
      "start": 1.4888,
      "duration": 0.005,
      "velocity": 88,
      "chip": "ym2612"
    },
    {
      "channel": 1,
      "note": 55,
      "start": 1.4907,
      "duration": 0.0019,
      "velocity": 120,
      "chip": "ym2612"
    },
    {
      "channel": 0,
      "note": 45,
      "start": 1.4939,
      "duration": 0.0101,
      "velocity": 88,
      "chip": "ym2612"
    },
    {
      "channel": 1,
      "note": 62,
      "start": 1.4958,
      "duration": 0.0038,
      "velocity": 120,
      "chip": "ym2612"
    },
    {
      "channel": 1,
      "note": 59,
      "start": 1.5019,
      "duration": 0.0022,
      "velocity": 120,
      "chip": "ym2612"
    },
    {
      "channel": 0,
      "note": 46,
      "start": 1.5049,
      "duration": 0.0073,
      "velocity": 88,
      "chip": "ym2612"
    },
    {
      "channel": 1,
      "note": 55,
      "start": 1.5068,
      "duration": 0.0035,
      "velocity": 120,
      "chip": "ym2612"
    },
    {
      "channel": 0,
      "note": 45,
      "start": 1.5123,
      "duration": 0.0064,
      "velocity": 88,
      "chip": "ym2612"
    },
    {
      "channel": 1,
      "note": 55,
      "start": 1.5141,
      "duration": 0.0039,
      "velocity": 120,
      "chip": "ym2612"
    },
    {
      "channel": 0,
      "note": 47,
      "start": 1.5205,
      "duration": 0.0046,
      "velocity": 88,
      "chip": "ym2612"
    },
    {
      "channel": 1,
      "note": 55,
      "start": 1.5224,
      "duration": 0.0021,
      "velocity": 120,
      "chip": "ym2612"
    },
    {
      "channel": 0,
      "note": 48,
      "start": 1.5261,
      "duration": 0.0053,
      "velocity": 88,
      "chip": "ym2612"
    },
    {
      "channel": 1,
      "note": 55,
      "start": 1.528,
      "duration": 0.0028,
      "velocity": 120,
      "chip": "ym2612"
    },
    {
      "channel": 1,
      "note": 55,
      "start": 1.5334,
      "duration": 0.0017,
      "velocity": 120,
      "chip": "ym2612"
    },
    {
      "channel": 0,
      "note": 46,
      "start": 1.5509,
      "duration": 0.0104,
      "velocity": 88,
      "chip": "ym2612"
    },
    {
      "channel": 1,
      "note": 59,
      "start": 1.5527,
      "duration": 0.0059,
      "velocity": 120,
      "chip": "ym2612"
    },
    {
      "channel": 0,
      "note": 45,
      "start": 1.5612,
      "duration": 0.0075,
      "velocity": 88,
      "chip": "ym2612"
    },
    {
      "channel": 1,
      "note": 55,
      "start": 1.5632,
      "duration": 0.0045,
      "velocity": 120,
      "chip": "ym2612"
    },
    {
      "channel": 0,
      "note": 44,
      "start": 1.5688,
      "duration": 0.0035,
      "velocity": 88,
      "chip": "ym2612"
    },
    {
      "channel": 1,
      "note": 55,
      "start": 1.5693,
      "duration": 0.0019,
      "velocity": 120,
      "chip": "ym2612"
    },
    {
      "channel": 0,
      "note": 45,
      "start": 1.5723,
      "duration": 0.0058,
      "velocity": 88,
      "chip": "ym2612"
    },
    {
      "channel": 1,
      "note": 59,
      "start": 1.5743,
      "duration": 0.0027,
      "velocity": 120,
      "chip": "ym2612"
    },
    {
      "channel": 0,
      "note": 46,
      "start": 1.5781,
      "duration": 0.0059,
      "velocity": 88,
      "chip": "ym2612"
    },
    {
      "channel": 1,
      "note": 55,
      "start": 1.58,
      "duration": 0.0028,
      "velocity": 120,
      "chip": "ym2612"
    },
    {
      "channel": 0,
      "note": 47,
      "start": 1.584,
      "duration": 0.0075,
      "velocity": 88,
      "chip": "ym2612"
    },
    {
      "channel": 1,
      "note": 59,
      "start": 1.5859,
      "duration": 0.0044,
      "velocity": 120,
      "chip": "ym2612"
    },
    {
      "channel": 0,
      "note": 48,
      "start": 1.5915,
      "duration": 0.0068,
      "velocity": 88,
      "chip": "ym2612"
    },
    {
      "channel": 1,
      "note": 55,
      "start": 1.5934,
      "duration": 0.0038,
      "velocity": 120,
      "chip": "ym2612"
    },
    {
      "channel": 0,
      "note": 49,
      "start": 1.5983,
      "duration": 0.0051,
      "velocity": 88,
      "chip": "ym2612"
    },
    {
      "channel": 1,
      "note": 82,
      "start": 1.6001,
      "duration": 0.001,
      "velocity": 127,
      "chip": "ym2612"
    },
    {
      "channel": 0,
      "note": 49,
      "start": 1.6034,
      "duration": 0.0015,
      "velocity": 88,
      "chip": "ym2612"
    },
    {
      "channel": 0,
      "note": 49,
      "start": 1.6051,
      "duration": 0.0058,
      "velocity": 88,
      "chip": "ym2612"
    },
    {
      "channel": 1,
      "note": 106,
      "start": 1.6069,
      "duration": 0.0023,
      "velocity": 127,
      "chip": "ym2612"
    },
    {
      "channel": 0,
      "note": 49,
      "start": 1.6109,
      "duration": 0.0048,
      "velocity": 88,
      "chip": "ym2612"
    },
    {
      "channel": 1,
      "note": 101,
      "start": 1.6127,
      "duration": 0.0015,
      "velocity": 114,
      "chip": "ym2612"
    },
    {
      "channel": 0,
      "note": 49,
      "start": 1.6157,
      "duration": 0.0038,
      "velocity": 88,
      "chip": "ym2612"
    },
    {
      "channel": 1,
      "note": 106,
      "start": 1.6175,
      "duration": 0.001,
      "velocity": 127,
      "chip": "ym2612"
    },
    {
      "channel": 0,
      "note": 49,
      "start": 1.6195,
      "duration": 0.0032,
      "velocity": 88,
      "chip": "ym2612"
    },
    {
      "channel": 1,
      "note": 101,
      "start": 1.6214,
      "duration": 0.0007,
      "velocity": 114,
      "chip": "ym2612"
    },
    {
      "channel": 0,
      "note": 49,
      "start": 1.6228,
      "duration": 0.0061,
      "velocity": 88,
      "chip": "ym2612"
    },
    {
      "channel": 1,
      "note": 106,
      "start": 1.6246,
      "duration": 0.0023,
      "velocity": 127,
      "chip": "ym2612"
    },
    {
      "channel": 0,
      "note": 49,
      "start": 1.6289,
      "duration": 0.004,
      "velocity": 88,
      "chip": "ym2612"
    },
    {
      "channel": 1,
      "note": 101,
      "start": 1.6307,
      "duration": 0.0007,
      "velocity": 114,
      "chip": "ym2612"
    },
    {
      "channel": 0,
      "note": 49,
      "start": 1.6329,
      "duration": 0.0058,
      "velocity": 88,
      "chip": "ym2612"
    },
    {
      "channel": 1,
      "note": 106,
      "start": 1.6348,
      "duration": 0.0009,
      "velocity": 127,
      "chip": "ym2612"
    },
    {
      "channel": 0,
      "note": 49,
      "start": 1.6388,
      "duration": 0.0038,
      "velocity": 88,
      "chip": "ym2612"
    },
    {
      "channel": 1,
      "note": 101,
      "start": 1.6406,
      "duration": 0.0009,
      "velocity": 114,
      "chip": "ym2612"
    },
    {
      "channel": 0,
      "note": 49,
      "start": 1.6426,
      "duration": 0.0039,
      "velocity": 88,
      "chip": "ym2612"
    },
    {
      "channel": 1,
      "note": 106,
      "start": 1.6445,
      "duration": 0.001,
      "velocity": 127,
      "chip": "ym2612"
    },
    {
      "channel": 0,
      "note": 49,
      "start": 1.6465,
      "duration": 0.0038,
      "velocity": 88,
      "chip": "ym2612"
    },
    {
      "channel": 1,
      "note": 101,
      "start": 1.6484,
      "duration": 0.0007,
      "velocity": 114,
      "chip": "ym2612"
    },
    {
      "channel": 0,
      "note": 49,
      "start": 1.6503,
      "duration": 0.0037,
      "velocity": 88,
      "chip": "ym2612"
    },
    {
      "channel": 1,
      "note": 106,
      "start": 1.6522,
      "duration": 0.0009,
      "velocity": 127,
      "chip": "ym2612"
    },
    {
      "channel": 0,
      "note": 49,
      "start": 1.6541,
      "duration": 0.004,
      "velocity": 88,
      "chip": "ym2612"
    },
    {
      "channel": 1,
      "note": 101,
      "start": 1.656,
      "duration": 0.0007,
      "velocity": 114,
      "chip": "ym2612"
    },
    {
      "channel": 0,
      "note": 49,
      "start": 1.6582,
      "duration": 0.0065,
      "velocity": 88,
      "chip": "ym2612"
    },
    {
      "channel": 1,
      "note": 106,
      "start": 1.66,
      "duration": 0.0024,
      "velocity": 127,
      "chip": "ym2612"
    },
    {
      "channel": 0,
      "note": 49,
      "start": 1.6646,
      "duration": 0.0049,
      "velocity": 88,
      "chip": "ym2612"
    },
    {
      "channel": 1,
      "note": 101,
      "start": 1.6665,
      "duration": 0.0015,
      "velocity": 114,
      "chip": "ym2612"
    },
    {
      "channel": 0,
      "note": 49,
      "start": 1.6696,
      "duration": 0.0061,
      "velocity": 88,
      "chip": "ym2612"
    },
    {
      "channel": 1,
      "note": 106,
      "start": 1.6714,
      "duration": 0.001,
      "velocity": 127,
      "chip": "ym2612"
    },
    {
      "channel": 0,
      "note": 49,
      "start": 1.6756,
      "duration": 0.0038,
      "velocity": 88,
      "chip": "ym2612"
    },
    {
      "channel": 1,
      "note": 101,
      "start": 1.6775,
      "duration": 0.001,
      "velocity": 114,
      "chip": "ym2612"
    },
    {
      "channel": 0,
      "note": 49,
      "start": 1.6795,
      "duration": 0.0043,
      "velocity": 88,
      "chip": "ym2612"
    },
    {
      "channel": 1,
      "note": 106,
      "start": 1.6814,
      "duration": 0.0009,
      "velocity": 127,
      "chip": "ym2612"
    },
    {
      "channel": 0,
      "note": 49,
      "start": 1.6839,
      "duration": 0.0052,
      "velocity": 88,
      "chip": "ym2612"
    },
    {
      "channel": 1,
      "note": 101,
      "start": 1.6858,
      "duration": 0.0015,
      "velocity": 114,
      "chip": "ym2612"
    },
    {
      "channel": 0,
      "note": 49,
      "start": 1.6891,
      "duration": 0.0039,
      "velocity": 88,
      "chip": "ym2612"
    },
    {
      "channel": 1,
      "note": 106,
      "start": 1.6909,
      "duration": 0.001,
      "velocity": 127,
      "chip": "ym2612"
    },
    {
      "channel": 0,
      "note": 49,
      "start": 1.693,
      "duration": 0.0037,
      "velocity": 88,
      "chip": "ym2612"
    },
    {
      "channel": 1,
      "note": 101,
      "start": 1.6949,
      "duration": 0.0007,
      "velocity": 114,
      "chip": "ym2612"
    },
    {
      "channel": 0,
      "note": 49,
      "start": 1.6967,
      "duration": 0.0062,
      "velocity": 88,
      "chip": "ym2612"
    },
    {
      "channel": 1,
      "note": 106,
      "start": 1.6986,
      "duration": 0.0024,
      "velocity": 127,
      "chip": "ym2612"
    },
    {
      "channel": 0,
      "note": 49,
      "start": 1.7029,
      "duration": 0.0041,
      "velocity": 88,
      "chip": "ym2612"
    },
    {
      "channel": 1,
      "note": 101,
      "start": 1.7048,
      "duration": 0.0007,
      "velocity": 114,
      "chip": "ym2612"
    },
    {
      "channel": 0,
      "note": 49,
      "start": 1.707,
      "duration": 0.0058,
      "velocity": 88,
      "chip": "ym2612"
    },
    {
      "channel": 1,
      "note": 106,
      "start": 1.7089,
      "duration": 0.0009,
      "velocity": 127,
      "chip": "ym2612"
    },
    {
      "channel": 0,
      "note": 49,
      "start": 1.7129,
      "duration": 0.0039,
      "velocity": 88,
      "chip": "ym2612"
    },
    {
      "channel": 1,
      "note": 101,
      "start": 1.7147,
      "duration": 0.0009,
      "velocity": 114,
      "chip": "ym2612"
    },
    {
      "channel": 0,
      "note": 49,
      "start": 1.7167,
      "duration": 0.0039,
      "velocity": 88,
      "chip": "ym2612"
    },
    {
      "channel": 1,
      "note": 106,
      "start": 1.7186,
      "duration": 0.0009,
      "velocity": 127,
      "chip": "ym2612"
    },
    {
      "channel": 0,
      "note": 49,
      "start": 1.7206,
      "duration": 0.0056,
      "velocity": 88,
      "chip": "ym2612"
    },
    {
      "channel": 1,
      "note": 101,
      "start": 1.7225,
      "duration": 0.0025,
      "velocity": 114,
      "chip": "ym2612"
    },
    {
      "channel": 0,
      "note": 49,
      "start": 1.7263,
      "duration": 0.0047,
      "velocity": 88,
      "chip": "ym2612"
    },
    {
      "channel": 1,
      "note": 106,
      "start": 1.7281,
      "duration": 0.001,
      "velocity": 127,
      "chip": "ym2612"
    },
    {
      "channel": 0,
      "note": 49,
      "start": 1.7311,
      "duration": 0.0032,
      "velocity": 88,
      "chip": "ym2612"
    },
    {
      "channel": 1,
      "note": 101,
      "start": 1.733,
      "duration": 0.0007,
      "velocity": 114,
      "chip": "ym2612"
    },
    {
      "channel": 0,
      "note": 49,
      "start": 1.7344,
      "duration": 0.005,
      "velocity": 88,
      "chip": "ym2612"
    },
    {
      "channel": 1,
      "note": 106,
      "start": 1.7362,
      "duration": 0.001,
      "velocity": 127,
      "chip": "ym2612"
    },
    {
      "channel": 0,
      "note": 49,
      "start": 1.7394,
      "duration": 0.0049,
      "velocity": 88,
      "chip": "ym2612"
    },
    {
      "channel": 1,
      "note": 106,
      "start": 1.7412,
      "duration": 0.0015,
      "velocity": 114,
      "chip": "ym2612"
    },
    {
      "channel": 0,
      "note": 49,
      "start": 1.7444,
      "duration": 0.0059,
      "velocity": 88,
      "chip": "ym2612"
    },
    {
      "channel": 1,
      "note": 106,
      "start": 1.7462,
      "duration": 0.0009,
      "velocity": 127,
      "chip": "ym2612"
    },
    {
      "channel": 0,
      "note": 49,
      "start": 1.7503,
      "duration": 0.0039,
      "velocity": 88,
      "chip": "ym2612"
    },
    {
      "channel": 1,
      "note": 101,
      "start": 1.7522,
      "duration": 0.0009,
      "velocity": 114,
      "chip": "ym2612"
    },
    {
      "channel": 0,
      "note": 49,
      "start": 1.7542,
      "duration": 0.0045,
      "velocity": 88,
      "chip": "ym2612"
    },
    {
      "channel": 1,
      "note": 106,
      "start": 1.7561,
      "duration": 0.0009,
      "velocity": 127,
      "chip": "ym2612"
    },
    {
      "channel": 0,
      "note": 49,
      "start": 1.7587,
      "duration": 0.0052,
      "velocity": 88,
      "chip": "ym2612"
    },
    {
      "channel": 1,
      "note": 101,
      "start": 1.7606,
      "duration": 0.0015,
      "velocity": 114,
      "chip": "ym2612"
    },
    {
      "channel": 0,
      "note": 49,
      "start": 1.7639,
      "duration": 0.0039,
      "velocity": 88,
      "chip": "ym2612"
    },
    {
      "channel": 1,
      "note": 106,
      "start": 1.7658,
      "duration": 0.0009,
      "velocity": 127,
      "chip": "ym2612"
    },
    {
      "channel": 0,
      "note": 49,
      "start": 1.7679,
      "duration": 0.0038,
      "velocity": 88,
      "chip": "ym2612"
    },
    {
      "channel": 1,
      "note": 101,
      "start": 1.7697,
      "duration": 0.0007,
      "velocity": 114,
      "chip": "ym2612"
    },
    {
      "channel": 0,
      "note": 49,
      "start": 1.7717,
      "duration": 0.006,
      "velocity": 88,
      "chip": "ym2612"
    },
    {
      "channel": 1,
      "note": 106,
      "start": 1.7736,
      "duration": 0.0023,
      "velocity": 127,
      "chip": "ym2612"
    },
    {
      "channel": 0,
      "note": 49,
      "start": 1.7778,
      "duration": 0.0041,
      "velocity": 88,
      "chip": "ym2612"
    },
    {
      "channel": 1,
      "note": 101,
      "start": 1.7796,
      "duration": 0.0007,
      "velocity": 114,
      "chip": "ym2612"
    },
    {
      "channel": 0,
      "note": 49,
      "start": 1.782,
      "duration": 0.0058,
      "velocity": 88,
      "chip": "ym2612"
    },
    {
      "channel": 1,
      "note": 106,
      "start": 1.7838,
      "duration": 0.001,
      "velocity": 127,
      "chip": "ym2612"
    },
    {
      "channel": 0,
      "note": 49,
      "start": 1.7877,
      "duration": 0.0038,
      "velocity": 88,
      "chip": "ym2612"
    },
    {
      "channel": 1,
      "note": 101,
      "start": 1.7896,
      "duration": 0.0009,
      "velocity": 114,
      "chip": "ym2612"
    },
    {
      "channel": 0,
      "note": 49,
      "start": 1.7916,
      "duration": 0.0037,
      "velocity": 88,
      "chip": "ym2612"
    },
    {
      "channel": 1,
      "note": 106,
      "start": 1.7934,
      "duration": 0.0009,
      "velocity": 127,
      "chip": "ym2612"
    },
    {
      "channel": 0,
      "note": 49,
      "start": 1.7954,
      "duration": 0.0032,
      "velocity": 88,
      "chip": "ym2612"
    },
    {
      "channel": 1,
      "note": 101,
      "start": 1.7973,
      "duration": 0.0007,
      "velocity": 114,
      "chip": "ym2612"
    },
    {
      "channel": 0,
      "note": 49,
      "start": 1.7986,
      "duration": 0.0039,
      "velocity": 88,
      "chip": "ym2612"
    },
    {
      "channel": 1,
      "note": 106,
      "start": 1.8005,
      "duration": 0.001,
      "velocity": 127,
      "chip": "ym2612"
    },
    {
      "channel": 0,
      "note": 49,
      "start": 1.8025,
      "duration": 0.0041,
      "velocity": 88,
      "chip": "ym2612"
    },
    {
      "channel": 1,
      "note": 101,
      "start": 1.8044,
      "duration": 0.0007,
      "velocity": 114,
      "chip": "ym2612"
    },
    {
      "channel": 0,
      "note": 49,
      "start": 1.8066,
      "duration": 0.0063,
      "velocity": 88,
      "chip": "ym2612"
    },
    {
      "channel": 1,
      "note": 106,
      "start": 1.8084,
      "duration": 0.0023,
      "velocity": 127,
      "chip": "ym2612"
    },
    {
      "channel": 0,
      "note": 49,
      "start": 1.8129,
      "duration": 0.005,
      "velocity": 88,
      "chip": "ym2612"
    },
    {
      "channel": 1,
      "note": 101,
      "start": 1.8147,
      "duration": 0.0015,
      "velocity": 114,
      "chip": "ym2612"
    },
    {
      "channel": 0,
      "note": 49,
      "start": 1.8179,
      "duration": 0.006,
      "velocity": 88,
      "chip": "ym2612"
    },
    {
      "channel": 1,
      "note": 106,
      "start": 1.8198,
      "duration": 0.0009,
      "velocity": 127,
      "chip": "ym2612"
    },
    {
      "channel": 0,
      "note": 49,
      "start": 1.8239,
      "duration": 0.0042,
      "velocity": 88,
      "chip": "ym2612"
    },
    {
      "channel": 1,
      "note": 101,
      "start": 1.8258,
      "duration": 0.0009,
      "velocity": 114,
      "chip": "ym2612"
    },
    {
      "channel": 0,
      "note": 49,
      "start": 1.8282,
      "duration": 0.0051,
      "velocity": 88,
      "chip": "ym2612"
    },
    {
      "channel": 1,
      "note": 106,
      "start": 1.83,
      "duration": 0.0009,
      "velocity": 127,
      "chip": "ym2612"
    },
    {
      "channel": 0,
      "note": 49,
      "start": 1.8333,
      "duration": 0.0046,
      "velocity": 88,
      "chip": "ym2612"
    },
    {
      "channel": 1,
      "note": 82,
      "start": 1.8351,
      "duration": 0.0019,
      "velocity": 127,
      "chip": "ym2612"
    },
    {
      "channel": 0,
      "note": 48,
      "start": 1.838,
      "duration": 0.0022,
      "velocity": 88,
      "chip": "ym2612"
    },
    {
      "channel": 1,
      "note": 82,
      "start": 1.8384,
      "duration": 0.0009,
      "velocity": 127,
      "chip": "ym2612"
    },
    {
      "channel": 0,
      "note": 47,
      "start": 1.8403,
      "duration": 0.0022,
      "velocity": 88,
      "chip": "ym2612"
    },
    {
      "channel": 1,
      "note": 82,
      "start": 1.8407,
      "duration": 0.0009,
      "velocity": 127,
      "chip": "ym2612"
    },
    {
      "channel": 0,
      "note": 51,
      "start": 1.8431,
      "duration": 0.0024,
      "velocity": 88,
      "chip": "ym2612"
    },
    {
      "channel": 1,
      "note": 82,
      "start": 1.8435,
      "duration": 0.0009,
      "velocity": 127,
      "chip": "ym2612"
    },
    {
      "channel": 0,
      "note": 50,
      "start": 1.8456,
      "duration": 0.0022,
      "velocity": 88,
      "chip": "ym2612"
    },
    {
      "channel": 1,
      "note": 82,
      "start": 1.8459,
      "duration": 0.001,
      "velocity": 127,
      "chip": "ym2612"
    },
    {
      "channel": 0,
      "note": 54,
      "start": 1.8825,
      "duration": 0.0022,
      "velocity": 88,
      "chip": "ym2612"
    },
    {
      "channel": 1,
      "note": 82,
      "start": 1.8829,
      "duration": 0.0009,
      "velocity": 127,
      "chip": "ym2612"
    },
    {
      "channel": 0,
      "note": 55,
      "start": 1.8854,
      "duration": 0.0022,
      "velocity": 88,
      "chip": "ym2612"
    },
    {
      "channel": 1,
      "note": 82,
      "start": 1.8857,
      "duration": 0.001,
      "velocity": 127,
      "chip": "ym2612"
    },
    {
      "channel": 0,
      "note": 51,
      "start": 1.8883,
      "duration": 0.0368,
      "velocity": 88,
      "chip": "ym2612"
    },
    {
      "channel": 1,
      "note": 82,
      "start": 1.8886,
      "duration": 0.0009,
      "velocity": 127,
      "chip": "ym2612"
    },
    {
      "channel": 0,
      "note": 49,
      "start": 1.9251,
      "duration": 0.001,
      "velocity": 88,
      "chip": "ym2612"
    },
    {
      "channel": 0,
      "note": 49,
      "start": 1.9281,
      "duration": 0.0009,
      "velocity": 88,
      "chip": "ym2612"
    },
    {
      "channel": 0,
      "note": 49,
      "start": 1.9297,
      "duration": 0.0017,
      "velocity": 88,
      "chip": "ym2612"
    },
    {
      "channel": 0,
      "note": 49,
      "start": 1.9322,
      "duration": 0.0016,
      "velocity": 88,
      "chip": "ym2612"
    },
    {
      "channel": 0,
      "note": 49,
      "start": 1.9345,
      "duration": 0.0009,
      "velocity": 88,
      "chip": "ym2612"
    },
    {
      "channel": 0,
      "note": 49,
      "start": 1.9368,
      "duration": 0.0009,
      "velocity": 88,
      "chip": "ym2612"
    },
    {
      "channel": 0,
      "note": 52,
      "start": 1.9397,
      "duration": 0.0045,
      "velocity": 88,
      "chip": "ym2612"
    },
    {
      "channel": 0,
      "note": 53,
      "start": 1.9442,
      "duration": 0.0029,
      "velocity": 88,
      "chip": "ym2612"
    },
    {
      "channel": 0,
      "note": 49,
      "start": 2.3743,
      "duration": 0.001,
      "velocity": 88,
      "chip": "ym2612"
    },
    {
      "channel": 0,
      "note": 49,
      "start": 2.3781,
      "duration": 0.0009,
      "velocity": 88,
      "chip": "ym2612"
    },
    {
      "channel": 0,
      "note": 49,
      "start": 2.3805,
      "duration": 0.0016,
      "velocity": 88,
      "chip": "ym2612"
    },
    {
      "channel": 0,
      "note": 49,
      "start": 2.3834,
      "duration": 0.0017,
      "velocity": 88,
      "chip": "ym2612"
    },
    {
      "channel": 0,
      "note": 49,
      "start": 2.3871,
      "duration": 0.001,
      "velocity": 88,
      "chip": "ym2612"
    },
    {
      "channel": 0,
      "note": 49,
      "start": 2.3902,
      "duration": 0.001,
      "velocity": 88,
      "chip": "ym2612"
    },
    {
      "channel": 0,
      "note": 45,
      "start": 2.3926,
      "duration": 0.0031,
      "velocity": 88,
      "chip": "ym2612"
    },
    {
      "channel": 0,
      "note": 46,
      "start": 2.3973,
      "duration": 0.0031,
      "velocity": 88,
      "chip": "ym2612"
    },
    {
      "channel": 0,
      "note": 49,
      "start": 2.8285,
      "duration": 0.001,
      "velocity": 88,
      "chip": "ym2612"
    },
    {
      "channel": 0,
      "note": 49,
      "start": 2.8319,
      "duration": 0.0033,
      "velocity": 88,
      "chip": "ym2612"
    },
    {
      "channel": 0,
      "note": 49,
      "start": 2.8352,
      "duration": 0.0016,
      "velocity": 88,
      "chip": "ym2612"
    },
    {
      "channel": 0,
      "note": 49,
      "start": 2.8381,
      "duration": 0.0017,
      "velocity": 88,
      "chip": "ym2612"
    },
    {
      "channel": 0,
      "note": 49,
      "start": 2.8417,
      "duration": 0.001,
      "velocity": 88,
      "chip": "ym2612"
    },
    {
      "channel": 0,
      "note": 49,
      "start": 2.8445,
      "duration": 0.001,
      "velocity": 88,
      "chip": "ym2612"
    },
    {
      "channel": 0,
      "note": 52,
      "start": 2.8456,
      "duration": 0.003,
      "velocity": 88,
      "chip": "ym2612"
    },
    {
      "channel": 0,
      "note": 53,
      "start": 2.8486,
      "duration": 0.0029,
      "velocity": 88,
      "chip": "ym2612"
    },
    {
      "channel": 0,
      "note": 49,
      "start": 3.279,
      "duration": 0.001,
      "velocity": 88,
      "chip": "ym2612"
    },
    {
      "channel": 0,
      "note": 49,
      "start": 3.2823,
      "duration": 0.0009,
      "velocity": 88,
      "chip": "ym2612"
    },
    {
      "channel": 0,
      "note": 49,
      "start": 3.2839,
      "duration": 0.0017,
      "velocity": 88,
      "chip": "ym2612"
    },
    {
      "channel": 0,
      "note": 49,
      "start": 3.2865,
      "duration": 0.0017,
      "velocity": 88,
      "chip": "ym2612"
    },
    {
      "channel": 0,
      "note": 49,
      "start": 3.2902,
      "duration": 0.0009,
      "velocity": 88,
      "chip": "ym2612"
    },
    {
      "channel": 0,
      "note": 49,
      "start": 3.2929,
      "duration": 0.001,
      "velocity": 88,
      "chip": "ym2612"
    },
    {
      "channel": 0,
      "note": 45,
      "start": 3.294,
      "duration": 0.0266,
      "velocity": 88,
      "chip": "ym2612"
    },
    {
      "channel": 0,
      "note": 46,
      "start": 3.3206,
      "duration": 0.0029,
      "velocity": 88,
      "chip": "ym2612"
    },
    {
      "channel": 0,
      "note": 45,
      "start": 3.3236,
      "duration": 0.0016,
      "velocity": 88,
      "chip": "ym2612"
    },
    {
      "channel": 0,
      "note": 46,
      "start": 3.3251,
      "duration": 0.0014,
      "velocity": 88,
      "chip": "ym2612"
    },
    {
      "channel": 0,
      "note": 49,
      "start": 3.3272,
      "duration": 0.002,
      "velocity": 88,
      "chip": "ym2612"
    },
    {
      "channel": 1,
      "note": 82,
      "start": 3.3275,
      "duration": 0.001,
      "velocity": 127,
      "chip": "ym2612"
    },
    {
      "channel": 0,
      "note": 49,
      "start": 3.3292,
      "duration": 0.0063,
      "velocity": 88,
      "chip": "ym2612"
    },
    {
      "channel": 0,
      "note": 49,
      "start": 3.3355,
      "duration": 0.0033,
      "velocity": 88,
      "chip": "ym2612"
    },
    {
      "channel": 1,
      "note": 106,
      "start": 3.3373,
      "duration": 0.001,
      "velocity": 114,
      "chip": "ym2612"
    },
    {
      "channel": 0,
      "note": 49,
      "start": 3.3389,
      "duration": 0.0259,
      "velocity": 88,
      "chip": "ym2612"
    },
    {
      "channel": 0,
      "note": 49,
      "start": 3.3649,
      "duration": 0.0028,
      "velocity": 88,
      "chip": "ym2612"
    },
    {
      "channel": 1,
      "note": 106,
      "start": 3.3652,
      "duration": 0.0019,
      "velocity": 114,
      "chip": "ym2612"
    },
    {
      "channel": 0,
      "note": 49,
      "start": 3.3678,
      "duration": 0.003,
      "velocity": 88,
      "chip": "ym2612"
    },
    {
      "channel": 0,
      "note": 49,
      "start": 3.3709,
      "duration": 0.0039,
      "velocity": 88,
      "chip": "ym2612"
    },
    {
      "channel": 1,
      "note": 106,
      "start": 3.3712,
      "duration": 0.0023,
      "velocity": 114,
      "chip": "ym2612"
    },
    {
      "channel": 0,
      "note": 49,
      "start": 3.3748,
      "duration": 0.0057,
      "velocity": 88,
      "chip": "ym2612"
    },
    {
      "channel": 0,
      "note": 49,
      "start": 3.3805,
      "duration": 0.0028,
      "velocity": 88,
      "chip": "ym2612"
    },
    {
      "channel": 1,
      "note": 106,
      "start": 3.3809,
      "duration": 0.0019,
      "velocity": 114,
      "chip": "ym2612"
    },
    {
      "channel": 0,
      "note": 49,
      "start": 3.3834,
      "duration": 0.0021,
      "velocity": 88,
      "chip": "ym2612"
    },
    {
      "channel": 0,
      "note": 49,
      "start": 3.3854,
      "duration": 0.002,
      "velocity": 88,
      "chip": "ym2612"
    },
    {
      "channel": 1,
      "note": 106,
      "start": 3.3858,
      "duration": 0.001,
      "velocity": 114,
      "chip": "ym2612"
    },
    {
      "channel": 0,
      "note": 49,
      "start": 3.3874,
      "duration": 0.003,
      "velocity": 88,
      "chip": "ym2612"
    },
    {
      "channel": 0,
      "note": 49,
      "start": 3.3904,
      "duration": 0.002,
      "velocity": 88,
      "chip": "ym2612"
    },
    {
      "channel": 1,
      "note": 106,
      "start": 3.3907,
      "duration": 0.001,
      "velocity": 114,
      "chip": "ym2612"
    },
    {
      "channel": 0,
      "note": 49,
      "start": 3.3924,
      "duration": 0.0033,
      "velocity": 88,
      "chip": "ym2612"
    },
    {
      "channel": 0,
      "note": 52,
      "start": 3.3957,
      "duration": 0.0044,
      "velocity": 88,
      "chip": "ym2612"
    },
    {
      "channel": 1,
      "note": 82,
      "start": 3.3975,
      "duration": 0.002,
      "velocity": 127,
      "chip": "ym2612"
    },
    {
      "channel": 0,
      "note": 53,
      "start": 3.4001,
      "duration": 0.0012,
      "velocity": 88,
      "chip": "ym2612"
    },
    {
      "channel": 0,
      "note": 49,
      "start": 3.4014,
      "duration": 0.0046,
      "velocity": 88,
      "chip": "ym2612"
    },
    {
      "channel": 1,
      "note": 106,
      "start": 3.4032,
      "duration": 0.0009,
      "velocity": 114,
      "chip": "ym2612"
    },
    {
      "channel": 0,
      "note": 49,
      "start": 3.4061,
      "duration": 0.0012,
      "velocity": 88,
      "chip": "ym2612"
    },
    {
      "channel": 0,
      "note": 49,
      "start": 3.4073,
      "duration": 0.0019,
      "velocity": 88,
      "chip": "ym2612"
    },
    {
      "channel": 1,
      "note": 106,
      "start": 3.4076,
      "duration": 0.0009,
      "velocity": 114,
      "chip": "ym2612"
    },
    {
      "channel": 0,
      "note": 49,
      "start": 3.4093,
      "duration": 0.0247,
      "velocity": 88,
      "chip": "ym2612"
    },
    {
      "channel": 0,
      "note": 49,
      "start": 3.4341,
      "duration": 0.0029,
      "velocity": 88,
      "chip": "ym2612"
    },
    {
      "channel": 1,
      "note": 106,
      "start": 3.4344,
      "duration": 0.0019,
      "velocity": 114,
      "chip": "ym2612"
    },
    {
      "channel": 0,
      "note": 49,
      "start": 3.4369,
      "duration": 0.001,
      "velocity": 88,
      "chip": "ym2612"
    },
    {
      "channel": 0,
      "note": 49,
      "start": 3.438,
      "duration": 0.0019,
      "velocity": 88,
      "chip": "ym2612"
    },
    {
      "channel": 1,
      "note": 106,
      "start": 3.4383,
      "duration": 0.0009,
      "velocity": 114,
      "chip": "ym2612"
    },
    {
      "channel": 0,
      "note": 49,
      "start": 3.4399,
      "duration": 0.0019,
      "velocity": 88,
      "chip": "ym2612"
    },
    {
      "channel": 0,
      "note": 49,
      "start": 3.4419,
      "duration": 0.0029,
      "velocity": 88,
      "chip": "ym2612"
    },
    {
      "channel": 1,
      "note": 106,
      "start": 3.4422,
      "duration": 0.0019,
      "velocity": 114,
      "chip": "ym2612"
    },
    {
      "channel": 0,
      "note": 49,
      "start": 3.4448,
      "duration": 0.0017,
      "velocity": 88,
      "chip": "ym2612"
    },
    {
      "channel": 0,
      "note": 49,
      "start": 3.4466,
      "duration": 0.0018,
      "velocity": 88,
      "chip": "ym2612"
    },
    {
      "channel": 1,
      "note": 106,
      "start": 3.4469,
      "duration": 0.0009,
      "velocity": 114,
      "chip": "ym2612"
    },
    {
      "channel": 0,
      "note": 49,
      "start": 3.4485,
      "duration": 0.0277,
      "velocity": 88,
      "chip": "ym2612"
    },
    {
      "channel": 0,
      "note": 49,
      "start": 3.4761,
      "duration": 0.002,
      "velocity": 88,
      "chip": "ym2612"
    },
    {
      "channel": 1,
      "note": 106,
      "start": 3.4765,
      "duration": 0.001,
      "velocity": 114,
      "chip": "ym2612"
    },
    {
      "channel": 0,
      "note": 49,
      "start": 3.4782,
      "duration": 0.0021,
      "velocity": 88,
      "chip": "ym2612"
    },
    {
      "channel": 0,
      "note": 45,
      "start": 3.4802,
      "duration": 0.0049,
      "velocity": 88,
      "chip": "ym2612"
    },
    {
      "channel": 1,
      "note": 82,
      "start": 3.482,
      "duration": 0.0024,
      "velocity": 127,
      "chip": "ym2612"
    },
    {
      "channel": 0,
      "note": 46,
      "start": 3.4851,
      "duration": 0.0012,
      "velocity": 88,
      "chip": "ym2612"
    },
    {
      "channel": 0,
      "note": 49,
      "start": 3.4864,
      "duration": 0.0047,
      "velocity": 88,
      "chip": "ym2612"
    },
    {
      "channel": 1,
      "note": 106,
      "start": 3.4882,
      "duration": 0.0009,
      "velocity": 114,
      "chip": "ym2612"
    },
    {
      "channel": 0,
      "note": 49,
      "start": 3.4911,
      "duration": 0.0011,
      "velocity": 88,
      "chip": "ym2612"
    },
    {
      "channel": 0,
      "note": 49,
      "start": 3.4922,
      "duration": 0.0019,
      "velocity": 88,
      "chip": "ym2612"
    },
    {
      "channel": 1,
      "note": 106,
      "start": 3.4926,
      "duration": 0.0009,
      "velocity": 114,
      "chip": "ym2612"
    },
    {
      "channel": 0,
      "note": 49,
      "start": 3.4941,
      "duration": 0.0248,
      "velocity": 88,
      "chip": "ym2612"
    },
    {
      "channel": 0,
      "note": 49,
      "start": 3.519,
      "duration": 0.0028,
      "velocity": 88,
      "chip": "ym2612"
    },
    {
      "channel": 1,
      "note": 106,
      "start": 3.5193,
      "duration": 0.0019,
      "velocity": 114,
      "chip": "ym2612"
    },
    {
      "channel": 0,
      "note": 49,
      "start": 3.5219,
      "duration": 0.0014,
      "velocity": 88,
      "chip": "ym2612"
    },
    {
      "channel": 0,
      "note": 49,
      "start": 3.5233,
      "duration": 0.0038,
      "velocity": 88,
      "chip": "ym2612"
    },
    {
      "channel": 1,
      "note": 106,
      "start": 3.5236,
      "duration": 0.0024,
      "velocity": 114,
      "chip": "ym2612"
    },
    {
      "channel": 0,
      "note": 49,
      "start": 3.5272,
      "duration": 0.0057,
      "velocity": 88,
      "chip": "ym2612"
    },
    {
      "channel": 0,
      "note": 49,
      "start": 3.5329,
      "duration": 0.0028,
      "velocity": 88,
      "chip": "ym2612"
    },
    {
      "channel": 1,
      "note": 106,
      "start": 3.5333,
      "duration": 0.0019,
      "velocity": 114,
      "chip": "ym2612"
    },
    {
      "channel": 0,
      "note": 49,
      "start": 3.5358,
      "duration": 0.0174,
      "velocity": 88,
      "chip": "ym2612"
    },
    {
      "channel": 0,
      "note": 49,
      "start": 3.5533,
      "duration": 0.002,
      "velocity": 88,
      "chip": "ym2612"
    },
    {
      "channel": 1,
      "note": 106,
      "start": 3.5537,
      "duration": 0.0009,
      "velocity": 114,
      "chip": "ym2612"
    },
    {
      "channel": 0,
      "note": 49,
      "start": 3.5553,
      "duration": 0.0252,
      "velocity": 88,
      "chip": "ym2612"
    },
    {
      "channel": 0,
      "note": 49,
      "start": 3.5805,
      "duration": 0.0031,
      "velocity": 88,
      "chip": "ym2612"
    },
    {
      "channel": 1,
      "note": 106,
      "start": 3.5809,
      "duration": 0.001,
      "velocity": 114,
      "chip": "ym2612"
    },
    {
      "channel": 0,
      "note": 49,
      "start": 3.5836,
      "duration": 0.0011,
      "velocity": 88,
      "chip": "ym2612"
    },
    {
      "channel": 0,
      "note": 52,
      "start": 3.5847,
      "duration": 0.0037,
      "velocity": 88,
      "chip": "ym2612"
    },
    {
      "channel": 1,
      "note": 82,
      "start": 3.5865,
      "duration": 0.0013,
      "velocity": 127,
      "chip": "ym2612"
    },
    {
      "channel": 0,
      "note": 53,
      "start": 3.5885,
      "duration": 0.0013,
      "velocity": 88,
      "chip": "ym2612"
    },
    {
      "channel": 0,
      "note": 49,
      "start": 3.5898,
      "duration": 0.0034,
      "velocity": 88,
      "chip": "ym2612"
    },
    {
      "channel": 1,
      "note": 106,
      "start": 3.5916,
      "duration": 0.001,
      "velocity": 114,
      "chip": "ym2612"
    },
    {
      "channel": 0,
      "note": 49,
      "start": 3.5933,
      "duration": 0.0032,
      "velocity": 88,
      "chip": "ym2612"
    },
    {
      "channel": 0,
      "note": 49,
      "start": 3.5966,
      "duration": 0.0019,
      "velocity": 88,
      "chip": "ym2612"
    },
    {
      "channel": 1,
      "note": 106,
      "start": 3.5969,
      "duration": 0.0009,
      "velocity": 114,
      "chip": "ym2612"
    },
    {
      "channel": 0,
      "note": 49,
      "start": 3.5985,
      "duration": 0.0245,
      "velocity": 88,
      "chip": "ym2612"
    },
    {
      "channel": 0,
      "note": 49,
      "start": 3.6231,
      "duration": 0.0028,
      "velocity": 88,
      "chip": "ym2612"
    },
    {
      "channel": 1,
      "note": 106,
      "start": 3.6234,
      "duration": 0.0019,
      "velocity": 114,
      "chip": "ym2612"
    },
    {
      "channel": 0,
      "note": 49,
      "start": 3.6259,
      "duration": 0.0008,
      "velocity": 88,
      "chip": "ym2612"
    },
    {
      "channel": 0,
      "note": 49,
      "start": 3.6268,
      "duration": 0.0019,
      "velocity": 88,
      "chip": "ym2612"
    },
    {
      "channel": 1,
      "note": 106,
      "start": 3.6271,
      "duration": 0.0009,
      "velocity": 114,
      "chip": "ym2612"
    },
    {
      "channel": 0,
      "note": 49,
      "start": 3.6287,
      "duration": 0.0052,
      "velocity": 88,
      "chip": "ym2612"
    },
    {
      "channel": 0,
      "note": 49,
      "start": 3.634,
      "duration": 0.0011,
      "velocity": 88,
      "chip": "ym2612"
    },
    {
      "channel": 0,
      "note": 49,
      "start": 3.6352,
      "duration": 0.0028,
      "velocity": 88,
      "chip": "ym2612"
    },
    {
      "channel": 0,
      "note": 49,
      "start": 3.638,
      "duration": 0.0011,
      "velocity": 88,
      "chip": "ym2612"
    },
    {
      "channel": 0,
      "note": 49,
      "start": 3.6392,
      "duration": 0.0016,
      "velocity": 88,
      "chip": "ym2612"
    },
    {
      "channel": 0,
      "note": 49,
      "start": 3.6408,
      "duration": 0.0011,
      "velocity": 88,
      "chip": "ym2612"
    },
    {
      "channel": 0,
      "note": 49,
      "start": 3.6419,
      "duration": 0.0025,
      "velocity": 88,
      "chip": "ym2612"
    },
    {
      "channel": 0,
      "note": 45,
      "start": 3.6444,
      "duration": 0.0011,
      "velocity": 88,
      "chip": "ym2612"
    },
    {
      "channel": 0,
      "note": 46,
      "start": 3.6456,
      "duration": 0.0036,
      "velocity": 88,
      "chip": "ym2612"
    },
    {
      "channel": 0,
      "note": 49,
      "start": 3.6493,
      "duration": 0.0033,
      "velocity": 88,
      "chip": "ym2612"
    },
    {
      "channel": 1,
      "note": 82,
      "start": 3.651,
      "duration": 0.001,
      "velocity": 127,
      "chip": "ym2612"
    },
    {
      "channel": 0,
      "note": 49,
      "start": 3.6527,
      "duration": 0.0022,
      "velocity": 88,
      "chip": "ym2612"
    },
    {
      "channel": 0,
      "note": 50,
      "start": 3.6548,
      "duration": 0.0033,
      "velocity": 88,
      "chip": "ym2612"
    },
    {
      "channel": 1,
      "note": 106,
      "start": 3.6566,
      "duration": 0.001,
      "velocity": 114,
      "chip": "ym2612"
    },
    {
      "channel": 0,
      "note": 49,
      "start": 3.6582,
      "duration": 0.0015,
      "velocity": 88,
      "chip": "ym2612"
    },
    {
      "channel": 0,
      "note": 51,
      "start": 3.6597,
      "duration": 0.0019,
      "velocity": 88,
      "chip": "ym2612"
    },
    {
      "channel": 1,
      "note": 106,
      "start": 3.66,
      "duration": 0.001,
      "velocity": 114,
      "chip": "ym2612"
    },
    {
      "channel": 0,
      "note": 49,
      "start": 3.6617,
      "duration": 0.0012,
      "velocity": 88,
      "chip": "ym2612"
    },
    {
      "channel": 0,
      "note": 52,
      "start": 3.6629,
      "duration": 0.0038,
      "velocity": 88,
      "chip": "ym2612"
    },
    {
      "channel": 1,
      "note": 106,
      "start": 3.6632,
      "duration": 0.0029,
      "velocity": 114,
      "chip": "ym2612"
    },
    {
      "channel": 0,
      "note": 49,
      "start": 3.6668,
      "duration": 0.0011,
      "velocity": 88,
      "chip": "ym2612"
    },
    {
      "channel": 0,
      "note": 53,
      "start": 3.6679,
      "duration": 0.0032,
      "velocity": 88,
      "chip": "ym2612"
    },
    {
      "channel": 0,
      "note": 49,
      "start": 3.6711,
      "duration": 0.0011,
      "velocity": 88,
      "chip": "ym2612"
    },
    {
      "channel": 0,
      "note": 54,
      "start": 3.6722,
      "duration": 0.0049,
      "velocity": 88,
      "chip": "ym2612"
    },
    {
      "channel": 1,
      "note": 82,
      "start": 3.674,
      "duration": 0.0025,
      "velocity": 127,
      "chip": "ym2612"
    },
    {
      "channel": 0,
      "note": 49,
      "start": 3.6772,
      "duration": 0.001,
      "velocity": 88,
      "chip": "ym2612"
    },
    {
      "channel": 0,
      "note": 55,
      "start": 3.6782,
      "duration": 0.0031,
      "velocity": 88,
      "chip": "ym2612"
    },
    {
      "channel": 0,
      "note": 49,
      "start": 3.6814,
      "duration": 0.0012,
      "velocity": 88,
      "chip": "ym2612"
    },
    {
      "channel": 0,
      "note": 56,
      "start": 3.6826,
      "duration": 0.0046,
      "velocity": 88,
      "chip": "ym2612"
    },
    {
      "channel": 1,
      "note": 106,
      "start": 3.6843,
      "duration": 0.0022,
      "velocity": 114,
      "chip": "ym2612"
    },
    {
      "channel": 0,
      "note": 49,
      "start": 3.6872,
      "duration": 0.0011,
      "velocity": 88,
      "chip": "ym2612"
    },
    {
      "channel": 0,
      "note": 57,
      "start": 3.6883,
      "duration": 0.0031,
      "velocity": 88,
      "chip": "ym2612"
    },
    {
      "channel": 0,
      "note": 58,
      "start": 3.6915,
      "duration": 0.0012,
      "velocity": 88,
      "chip": "ym2612"
    },
    {
      "channel": 0,
      "note": 59,
      "start": 3.6927,
      "duration": 0.0044,
      "velocity": 88,
      "chip": "ym2612"
    },
    {
      "channel": 1,
      "note": 84,
      "start": 3.6945,
      "duration": 0.002,
      "velocity": 123,
      "chip": "ym2612"
    },
    {
      "channel": 0,
      "note": 60,
      "start": 3.6972,
      "duration": 0.001,
      "velocity": 88,
      "chip": "ym2612"
    },
    {
      "channel": 0,
      "note": 61,
      "start": 3.6982,
      "duration": 0.0012,
      "velocity": 88,
      "chip": "ym2612"
    },
    {
      "channel": 0,
      "note": 60,
      "start": 3.6995,
      "duration": 0.0011,
      "velocity": 88,
      "chip": "ym2612"
    },
    {
      "channel": 0,
      "note": 59,
      "start": 3.7006,
      "duration": 0.0034,
      "velocity": 88,
      "chip": "ym2612"
    },
    {
      "channel": 1,
      "note": 82,
      "start": 3.7024,
      "duration": 0.001,
      "velocity": 127,
      "chip": "ym2612"
    },
    {
      "channel": 0,
      "note": 58,
      "start": 3.704,
      "duration": 0.001,
      "velocity": 88,
      "chip": "ym2612"
    },
    {
      "channel": 0,
      "note": 57,
      "start": 3.7051,
      "duration": 0.0015,
      "velocity": 88,
      "chip": "ym2612"
    },
    {
      "channel": 0,
      "note": 56,
      "start": 3.7066,
      "duration": 0.0031,
      "velocity": 88,
      "chip": "ym2612"
    },
    {
      "channel": 0,
      "note": 55,
      "start": 3.7098,
      "duration": 0.0036,
      "velocity": 88,
      "chip": "ym2612"
    },
    {
      "channel": 1,
      "note": 106,
      "start": 3.7115,
      "duration": 0.0012,
      "velocity": 114,
      "chip": "ym2612"
    },
    {
      "channel": 0,
      "note": 54,
      "start": 3.7134,
      "duration": 0.0011,
      "velocity": 88,
      "chip": "ym2612"
    },
    {
      "channel": 0,
      "note": 53,
      "start": 3.7145,
      "duration": 0.0013,
      "velocity": 88,
      "chip": "ym2612"
    },
    {
      "channel": 0,
      "note": 52,
      "start": 3.7158,
      "duration": 0.0012,
      "velocity": 88,
      "chip": "ym2612"
    },
    {
      "channel": 0,
      "note": 51,
      "start": 3.717,
      "duration": 0.002,
      "velocity": 88,
      "chip": "ym2612"
    },
    {
      "channel": 1,
      "note": 106,
      "start": 3.7173,
      "duration": 0.001,
      "velocity": 114,
      "chip": "ym2612"
    },
    {
      "channel": 0,
      "note": 50,
      "start": 3.719,
      "duration": 0.0023,
      "velocity": 88,
      "chip": "ym2612"
    },
    {
      "channel": 0,
      "note": 49,
      "start": 3.7212,
      "duration": 0.0013,
      "velocity": 88,
      "chip": "ym2612"
    },
    {
      "channel": 0,
      "note": 50,
      "start": 3.7225,
      "duration": 0.0031,
      "velocity": 88,
      "chip": "ym2612"
    },
    {
      "channel": 0,
      "note": 49,
      "start": 3.7256,
      "duration": 0.0035,
      "velocity": 88,
      "chip": "ym2612"
    },
    {
      "channel": 1,
      "note": 82,
      "start": 3.7274,
      "duration": 0.0011,
      "velocity": 127,
      "chip": "ym2612"
    },
    {
      "channel": 0,
      "note": 49,
      "start": 3.7292,
      "duration": 0.0027,
      "velocity": 88,
      "chip": "ym2612"
    },
    {
      "channel": 0,
      "note": 51,
      "start": 3.7318,
      "duration": 0.0013,
      "velocity": 88,
      "chip": "ym2612"
    },
    {
      "channel": 0,
      "note": 49,
      "start": 3.7332,
      "duration": 0.0011,
      "velocity": 88,
      "chip": "ym2612"
    },
    {
      "channel": 0,
      "note": 52,
      "start": 3.7343,
      "duration": 0.0037,
      "velocity": 88,
      "chip": "ym2612"
    },
    {
      "channel": 1,
      "note": 106,
      "start": 3.7361,
      "duration": 0.0013,
      "velocity": 114,
      "chip": "ym2612"
    },
    {
      "channel": 0,
      "note": 49,
      "start": 3.738,
      "duration": 0.001,
      "velocity": 88,
      "chip": "ym2612"
    },
    {
      "channel": 0,
      "note": 53,
      "start": 3.739,
      "duration": 0.0012,
      "velocity": 88,
      "chip": "ym2612"
    },
    {
      "channel": 0,
      "note": 49,
      "start": 3.7403,
      "duration": 0.0011,
      "velocity": 88,
      "chip": "ym2612"
    },
    {
      "channel": 0,
      "note": 54,
      "start": 3.7414,
      "duration": 0.0045,
      "velocity": 88,
      "chip": "ym2612"
    },
    {
      "channel": 1,
      "note": 82,
      "start": 3.7432,
      "duration": 0.0022,
      "velocity": 127,
      "chip": "ym2612"
    },
    {
      "channel": 0,
      "note": 49,
      "start": 3.746,
      "duration": 0.0027,
      "velocity": 88,
      "chip": "ym2612"
    },
    {
      "channel": 0,
      "note": 55,
      "start": 3.7488,
      "duration": 0.0032,
      "velocity": 88,
      "chip": "ym2612"
    },
    {
      "channel": 0,
      "note": 49,
      "start": 3.7519,
      "duration": 0.0012,
      "velocity": 88,
      "chip": "ym2612"
    },
    {
      "channel": 0,
      "note": 56,
      "start": 3.7532,
      "duration": 0.0048,
      "velocity": 88,
      "chip": "ym2612"
    },
    {
      "channel": 1,
      "note": 106,
      "start": 3.7549,
      "duration": 0.0024,
      "velocity": 114,
      "chip": "ym2612"
    },
    {
      "channel": 0,
      "note": 49,
      "start": 3.7579,
      "duration": 0.001,
      "velocity": 88,
      "chip": "ym2612"
    },
    {
      "channel": 0,
      "note": 60,
      "start": 3.759,
      "duration": 0.0065,
      "velocity": 88,
      "chip": "ym2612"
    },
    {
      "channel": 1,
      "note": 55,
      "start": 3.7609,
      "duration": 0.0019,
      "velocity": 120,
      "chip": "ym2612"
    },
    {
      "channel": 0,
      "note": 59,
      "start": 3.7656,
      "duration": 0.0032,
      "velocity": 88,
      "chip": "ym2612"
    },
    {
      "channel": 1,
      "note": 55,
      "start": 3.766,
      "duration": 0.0019,
      "velocity": 120,
      "chip": "ym2612"
    },
    {
      "channel": 0,
      "note": 60,
      "start": 3.7687,
      "duration": 0.0036,
      "velocity": 88,
      "chip": "ym2612"
    },
    {
      "channel": 1,
      "note": 82,
      "start": 3.7705,
      "duration": 0.0012,
      "velocity": 127,
      "chip": "ym2612"
    },
    {
      "channel": 0,
      "note": 61,
      "start": 3.7724,
      "duration": 0.001,
      "velocity": 88,
      "chip": "ym2612"
    },
    {
      "channel": 0,
      "note": 60,
      "start": 3.7734,
      "duration": 0.0062,
      "velocity": 88,
      "chip": "ym2612"
    },
    {
      "channel": 1,
      "note": 55,
      "start": 3.7753,
      "duration": 0.0024,
      "velocity": 120,
      "chip": "ym2612"
    },
    {
      "channel": 0,
      "note": 59,
      "start": 3.7796,
      "duration": 0.0045,
      "velocity": 88,
      "chip": "ym2612"
    },
    {
      "channel": 1,
      "note": 55,
      "start": 3.7802,
      "duration": 0.0018,
      "velocity": 120,
      "chip": "ym2612"
    },
    {
      "channel": 0,
      "note": 58,
      "start": 3.7841,
      "duration": 0.004,
      "velocity": 88,
      "chip": "ym2612"
    },
    {
      "channel": 1,
      "note": 106,
      "start": 3.7859,
      "duration": 0.0017,
      "velocity": 114,
      "chip": "ym2612"
    },
    {
      "channel": 0,
      "note": 57,
      "start": 3.7882,
      "duration": 0.001,
      "velocity": 88,
      "chip": "ym2612"
    },
    {
      "channel": 0,
      "note": 56,
      "start": 3.7892,
      "duration": 0.0063,
      "velocity": 88,
      "chip": "ym2612"
    },
    {
      "channel": 1,
      "note": 55,
      "start": 3.7911,
      "duration": 0.0024,
      "velocity": 120,
      "chip": "ym2612"
    },
    {
      "channel": 0,
      "note": 55,
      "start": 3.7956,
      "duration": 0.0044,
      "velocity": 88,
      "chip": "ym2612"
    },
    {
      "channel": 1,
      "note": 55,
      "start": 3.7961,
      "duration": 0.0019,
      "velocity": 120,
      "chip": "ym2612"
    },
    {
      "channel": 0,
      "note": 54,
      "start": 3.8,
      "duration": 0.0035,
      "velocity": 88,
      "chip": "ym2612"
    },
    {
      "channel": 1,
      "note": 82,
      "start": 3.8018,
      "duration": 0.0011,
      "velocity": 127,
      "chip": "ym2612"
    },
    {
      "channel": 0,
      "note": 53,
      "start": 3.8036,
      "duration": 0.0031,
      "velocity": 88,
      "chip": "ym2612"
    },
    {
      "channel": 0,
      "note": 52,
      "start": 3.8068,
      "duration": 0.0062,
      "velocity": 88,
      "chip": "ym2612"
    },
    {
      "channel": 1,
      "note": 55,
      "start": 3.8087,
      "duration": 0.0023,
      "velocity": 120,
      "chip": "ym2612"
    },
    {
      "channel": 0,
      "note": 51,
      "start": 3.813,
      "duration": 0.0035,
      "velocity": 88,
      "chip": "ym2612"
    },
    {
      "channel": 1,
      "note": 55,
      "start": 3.8134,
      "duration": 0.0023,
      "velocity": 120,
      "chip": "ym2612"
    },
    {
      "channel": 0,
      "note": 50,
      "start": 3.8165,
      "duration": 0.0033,
      "velocity": 88,
      "chip": "ym2612"
    },
    {
      "channel": 1,
      "note": 106,
      "start": 3.8183,
      "duration": 0.0009,
      "velocity": 114,
      "chip": "ym2612"
    },
    {
      "channel": 0,
      "note": 49,
      "start": 3.8199,
      "duration": 0.0032,
      "velocity": 88,
      "chip": "ym2612"
    },
    {
      "channel": 0,
      "note": 49,
      "start": 3.8232,
      "duration": 0.0062,
      "velocity": 88,
      "chip": "ym2612"
    },
    {
      "channel": 1,
      "note": 55,
      "start": 3.8251,
      "duration": 0.0024,
      "velocity": 120,
      "chip": "ym2612"
    },
    {
      "channel": 0,
      "note": 49,
      "start": 3.8294,
      "duration": 0.0044,
      "velocity": 88,
      "chip": "ym2612"
    },
    {
      "channel": 1,
      "note": 55,
      "start": 3.8299,
      "duration": 0.0022,
      "velocity": 120,
      "chip": "ym2612"
    },
    {
      "channel": 0,
      "note": 50,
      "start": 3.8339,
      "duration": 0.0033,
      "velocity": 88,
      "chip": "ym2612"
    },
    {
      "channel": 1,
      "note": 82,
      "start": 3.8356,
      "duration": 0.001,
      "velocity": 127,
      "chip": "ym2612"
    },
    {
      "channel": 0,
      "note": 49,
      "start": 3.8373,
      "duration": 0.001,
      "velocity": 88,
      "chip": "ym2612"
    },
    {
      "channel": 0,
      "note": 51,
      "start": 3.8383,
      "duration": 0.0046,
      "velocity": 88,
      "chip": "ym2612"
    },
    {
      "channel": 1,
      "note": 55,
      "start": 3.8402,
      "duration": 0.0019,
      "velocity": 120,
      "chip": "ym2612"
    },
    {
      "channel": 0,
      "note": 49,
      "start": 3.8429,
      "duration": 0.0041,
      "velocity": 88,
      "chip": "ym2612"
    },
    {
      "channel": 1,
      "note": 55,
      "start": 3.8434,
      "duration": 0.0019,
      "velocity": 120,
      "chip": "ym2612"
    },
    {
      "channel": 0,
      "note": 52,
      "start": 3.847,
      "duration": 0.0046,
      "velocity": 88,
      "chip": "ym2612"
    },
    {
      "channel": 1,
      "note": 106,
      "start": 3.8488,
      "duration": 0.0022,
      "velocity": 114,
      "chip": "ym2612"
    },
    {
      "channel": 0,
      "note": 49,
      "start": 3.8516,
      "duration": 0.0017,
      "velocity": 88,
      "chip": "ym2612"
    },
    {
      "channel": 0,
      "note": 53,
      "start": 3.8534,
      "duration": 0.0045,
      "velocity": 88,
      "chip": "ym2612"
    },
    {
      "channel": 1,
      "note": 55,
      "start": 3.8553,
      "duration": 0.0019,
      "velocity": 120,
      "chip": "ym2612"
    },
    {
      "channel": 0,
      "note": 49,
      "start": 3.858,
      "duration": 0.0036,
      "velocity": 88,
      "chip": "ym2612"
    },
    {
      "channel": 1,
      "note": 55,
      "start": 3.8584,
      "duration": 0.0024,
      "velocity": 120,
      "chip": "ym2612"
    },
    {
      "channel": 0,
      "note": 54,
      "start": 3.8616,
      "duration": 0.0037,
      "velocity": 88,
      "chip": "ym2612"
    },
    {
      "channel": 1,
      "note": 82,
      "start": 3.8633,
      "duration": 0.0013,
      "velocity": 127,
      "chip": "ym2612"
    },
    {
      "channel": 0,
      "note": 49,
      "start": 3.8653,
      "duration": 0.0018,
      "velocity": 88,
      "chip": "ym2612"
    },
    {
      "channel": 0,
      "note": 55,
      "start": 3.8671,
      "duration": 0.0045,
      "velocity": 88,
      "chip": "ym2612"
    },
    {
      "channel": 1,
      "note": 55,
      "start": 3.869,
      "duration": 0.0019,
      "velocity": 120,
      "chip": "ym2612"
    },
    {
      "channel": 0,
      "note": 49,
      "start": 3.8717,
      "duration": 0.0035,
      "velocity": 88,
      "chip": "ym2612"
    },
    {
      "channel": 1,
      "note": 55,
      "start": 3.8722,
      "duration": 0.0024,
      "velocity": 120,
      "chip": "ym2612"
    },
    {
      "channel": 0,
      "note": 56,
      "start": 3.8753,
      "duration": 0.0033,
      "velocity": 88,
      "chip": "ym2612"
    },
    {
      "channel": 1,
      "note": 106,
      "start": 3.8771,
      "duration": 0.0009,
      "velocity": 114,
      "chip": "ym2612"
    },
    {
      "channel": 0,
      "note": 49,
      "start": 3.8787,
      "duration": 0.0019,
      "velocity": 88,
      "chip": "ym2612"
    },
    {
      "channel": 0,
      "note": 57,
      "start": 3.8807,
      "duration": 0.0045,
      "velocity": 88,
      "chip": "ym2612"
    },
    {
      "channel": 1,
      "note": 55,
      "start": 3.8826,
      "duration": 0.0019,
      "velocity": 120,
      "chip": "ym2612"
    },
    {
      "channel": 0,
      "note": 58,
      "start": 3.8852,
      "duration": 0.0036,
      "velocity": 88,
      "chip": "ym2612"
    },
    {
      "channel": 1,
      "note": 55,
      "start": 3.8857,
      "duration": 0.0024,
      "velocity": 120,
      "chip": "ym2612"
    },
    {
      "channel": 0,
      "note": 59,
      "start": 3.8888,
      "duration": 0.0034,
      "velocity": 88,
      "chip": "ym2612"
    },
    {
      "channel": 1,
      "note": 82,
      "start": 3.8906,
      "duration": 0.001,
      "velocity": 127,
      "chip": "ym2612"
    },
    {
      "channel": 0,
      "note": 60,
      "start": 3.8922,
      "duration": 0.0019,
      "velocity": 88,
      "chip": "ym2612"
    },
    {
      "channel": 0,
      "note": 61,
      "start": 3.8942,
      "duration": 0.0045,
      "velocity": 88,
      "chip": "ym2612"
    },
    {
      "channel": 1,
      "note": 55,
      "start": 3.8961,
      "duration": 0.0019,
      "velocity": 120,
      "chip": "ym2612"
    },
    {
      "channel": 0,
      "note": 60,
      "start": 3.8988,
      "duration": 0.0034,
      "velocity": 88,
      "chip": "ym2612"
    },
    {
      "channel": 1,
      "note": 55,
      "start": 3.8992,
      "duration": 0.0023,
      "velocity": 120,
      "chip": "ym2612"
    },
    {
      "channel": 0,
      "note": 59,
      "start": 3.9023,
      "duration": 0.0034,
      "velocity": 88,
      "chip": "ym2612"
    },
    {
      "channel": 1,
      "note": 106,
      "start": 3.904,
      "duration": 0.0009,
      "velocity": 114,
      "chip": "ym2612"
    },
    {
      "channel": 0,
      "note": 58,
      "start": 3.9056,
      "duration": 0.0011,
      "velocity": 88,
      "chip": "ym2612"
    },
    {
      "channel": 0,
      "note": 57,
      "start": 3.9067,
      "duration": 0.0066,
      "velocity": 88,
      "chip": "ym2612"
    },
    {
      "channel": 1,
      "note": 55,
      "start": 3.9086,
      "duration": 0.0019,
      "velocity": 120,
      "chip": "ym2612"
    },
    {
      "channel": 0,
      "note": 56,
      "start": 3.9133,
      "duration": 0.0031,
      "velocity": 88,
      "chip": "ym2612"
    },
    {
      "channel": 1,
      "note": 55,
      "start": 3.9138,
      "duration": 0.0019,
      "velocity": 120,
      "chip": "ym2612"
    },
    {
      "channel": 0,
      "note": 55,
      "start": 3.9164,
      "duration": 0.0034,
      "velocity": 88,
      "chip": "ym2612"
    },
    {
      "channel": 1,
      "note": 82,
      "start": 3.9182,
      "duration": 0.0009,
      "velocity": 127,
      "chip": "ym2612"
    },
    {
      "channel": 0,
      "note": 54,
      "start": 3.9198,
      "duration": 0.0011,
      "velocity": 88,
      "chip": "ym2612"
    },
    {
      "channel": 0,
      "note": 53,
      "start": 3.9209,
      "duration": 0.0066,
      "velocity": 88,
      "chip": "ym2612"
    },
    {
      "channel": 1,
      "note": 55,
      "start": 3.9228,
      "duration": 0.0019,
      "velocity": 120,
      "chip": "ym2612"
    },
    {
      "channel": 0,
      "note": 52,
      "start": 3.9275,
      "duration": 0.0031,
      "velocity": 88,
      "chip": "ym2612"
    },
    {
      "channel": 1,
      "note": 55,
      "start": 3.9279,
      "duration": 0.0018,
      "velocity": 120,
      "chip": "ym2612"
    },
    {
      "channel": 0,
      "note": 51,
      "start": 3.9306,
      "duration": 0.0033,
      "velocity": 88,
      "chip": "ym2612"
    },
    {
      "channel": 1,
      "note": 106,
      "start": 3.9323,
      "duration": 0.001,
      "velocity": 114,
      "chip": "ym2612"
    },
    {
      "channel": 0,
      "note": 50,
      "start": 3.9339,
      "duration": 0.0031,
      "velocity": 88,
      "chip": "ym2612"
    },
    {
      "channel": 0,
      "note": 49,
      "start": 3.9371,
      "duration": 0.005,
      "velocity": 88,
      "chip": "ym2612"
    },
    {
      "channel": 1,
      "note": 55,
      "start": 3.939,
      "duration": 0.0024,
      "velocity": 120,
      "chip": "ym2612"
    },
    {
      "channel": 0,
      "note": 50,
      "start": 3.9422,
      "duration": 0.0032,
      "velocity": 88,
      "chip": "ym2612"
    },
    {
      "channel": 1,
      "note": 55,
      "start": 3.9426,
      "duration": 0.0016,
      "velocity": 120,
      "chip": "ym2612"
    },
    {
      "channel": 0,
      "note": 49,
      "start": 3.9454,
      "duration": 0.0034,
      "velocity": 88,
      "chip": "ym2612"
    },
    {
      "channel": 1,
      "note": 82,
      "start": 3.9472,
      "duration": 0.0009,
      "velocity": 127,
      "chip": "ym2612"
    },
    {
      "channel": 0,
      "note": 49,
      "start": 3.9488,
      "duration": 0.0018,
      "velocity": 88,
      "chip": "ym2612"
    },
    {
      "channel": 0,
      "note": 51,
      "start": 3.9506,
      "duration": 0.0063,
      "velocity": 88,
      "chip": "ym2612"
    },
    {
      "channel": 1,
      "note": 55,
      "start": 3.9525,
      "duration": 0.0024,
      "velocity": 120,
      "chip": "ym2612"
    },
    {
      "channel": 0,
      "note": 49,
      "start": 3.957,
      "duration": 0.0044,
      "velocity": 88,
      "chip": "ym2612"
    },
    {
      "channel": 1,
      "note": 55,
      "start": 3.9574,
      "duration": 0.0018,
      "velocity": 120,
      "chip": "ym2612"
    },
    {
      "channel": 0,
      "note": 52,
      "start": 3.9614,
      "duration": 0.0044,
      "velocity": 88,
      "chip": "ym2612"
    },
    {
      "channel": 1,
      "note": 106,
      "start": 3.9632,
      "duration": 0.0017,
      "velocity": 114,
      "chip": "ym2612"
    },
    {
      "channel": 0,
      "note": 49,
      "start": 3.9659,
      "duration": 0.0017,
      "velocity": 88,
      "chip": "ym2612"
    },
    {
      "channel": 0,
      "note": 53,
      "start": 3.9677,
      "duration": 0.0051,
      "velocity": 88,
      "chip": "ym2612"
    },
    {
      "channel": 1,
      "note": 55,
      "start": 3.9696,
      "duration": 0.0024,
      "velocity": 120,
      "chip": "ym2612"
    },
    {
      "channel": 0,
      "note": 49,
      "start": 3.9727,
      "duration": 0.004,
      "velocity": 88,
      "chip": "ym2612"
    },
    {
      "channel": 1,
      "note": 55,
      "start": 3.9732,
      "duration": 0.0017,
      "velocity": 120,
      "chip": "ym2612"
    },
    {
      "channel": 0,
      "note": 54,
      "start": 3.9767,
      "duration": 0.0037,
      "velocity": 88,
      "chip": "ym2612"
    },
    {
      "channel": 1,
      "note": 82,
      "start": 3.9785,
      "duration": 0.0012,
      "velocity": 127,
      "chip": "ym2612"
    },
    {
      "channel": 0,
      "note": 49,
      "start": 3.9804,
      "duration": 0.0022,
      "velocity": 88,
      "chip": "ym2612"
    },
    {
      "channel": 0,
      "note": 55,
      "start": 3.9826,
      "duration": 0.005,
      "velocity": 88,
      "chip": "ym2612"
    },
    {
      "channel": 1,
      "note": 55,
      "start": 3.9845,
      "duration": 0.0024,
      "velocity": 120,
      "chip": "ym2612"
    },
    {
      "channel": 0,
      "note": 49,
      "start": 3.9876,
      "duration": 0.0036,
      "velocity": 88,
      "chip": "ym2612"
    },
    {
      "channel": 1,
      "note": 55,
      "start": 3.988,
      "duration": 0.0021,
      "velocity": 120,
      "chip": "ym2612"
    },
    {
      "channel": 0,
      "note": 56,
      "start": 3.9912,
      "duration": 0.0018,
      "velocity": 88,
      "chip": "ym2612"
    },
    {
      "channel": 0,
      "note": 49,
      "start": 3.9931,
      "duration": 0.001,
      "velocity": 88,
      "chip": "ym2612"
    },
    {
      "channel": 0,
      "note": 60,
      "start": 3.9941,
      "duration": 0.0026,
      "velocity": 88,
      "chip": "ym2612"
    },
    {
      "channel": 0,
      "note": 59,
      "start": 3.9967,
      "duration": 0.0025,
      "velocity": 88,
      "chip": "ym2612"
    },
    {
      "channel": 0,
      "note": 60,
      "start": 3.9992,
      "duration": 0.0012,
      "velocity": 88,
      "chip": "ym2612"
    },
    {
      "channel": 0,
      "note": 61,
      "start": 4.0005,
      "duration": 0.0009,
      "velocity": 88,
      "chip": "ym2612"
    },
    {
      "channel": 0,
      "note": 60,
      "start": 4.0014,
      "duration": 0.0009,
      "velocity": 88,
      "chip": "ym2612"
    },
    {
      "channel": 0,
      "note": 59,
      "start": 4.0022,
      "duration": 0.0009,
      "velocity": 88,
      "chip": "ym2612"
    },
    {
      "channel": 0,
      "note": 58,
      "start": 4.0032,
      "duration": 0.0009,
      "velocity": 88,
      "chip": "ym2612"
    },
    {
      "channel": 0,
      "note": 57,
      "start": 4.0041,
      "duration": 0.0009,
      "velocity": 88,
      "chip": "ym2612"
    },
    {
      "channel": 0,
      "note": 56,
      "start": 4.005,
      "duration": 0.0044,
      "velocity": 88,
      "chip": "ym2612"
    },
    {
      "channel": 1,
      "note": 62,
      "start": 4.0069,
      "duration": 0.0014,
      "velocity": 120,
      "chip": "ym2612"
    },
    {
      "channel": 0,
      "note": 55,
      "start": 4.0095,
      "duration": 0.0047,
      "velocity": 88,
      "chip": "ym2612"
    },
    {
      "channel": 1,
      "note": 62,
      "start": 4.0114,
      "duration": 0.0021,
      "velocity": 120,
      "chip": "ym2612"
    },
    {
      "channel": 0,
      "note": 54,
      "start": 4.0142,
      "duration": 0.0042,
      "velocity": 88,
      "chip": "ym2612"
    },
    {
      "channel": 1,
      "note": 59,
      "start": 4.0161,
      "duration": 0.0015,
      "velocity": 120,
      "chip": "ym2612"
    },
    {
      "channel": 0,
      "note": 53,
      "start": 4.0185,
      "duration": 0.0048,
      "velocity": 88,
      "chip": "ym2612"
    },
    {
      "channel": 1,
      "note": 59,
      "start": 4.0204,
      "duration": 0.0021,
      "velocity": 120,
      "chip": "ym2612"
    },
    {
      "channel": 0,
      "note": 52,
      "start": 4.0233,
      "duration": 0.0042,
      "velocity": 88,
      "chip": "ym2612"
    },
    {
      "channel": 1,
      "note": 55,
      "start": 4.0252,
      "duration": 0.0015,
      "velocity": 120,
      "chip": "ym2612"
    },
    {
      "channel": 0,
      "note": 51,
      "start": 4.0276,
      "duration": 0.0048,
      "velocity": 88,
      "chip": "ym2612"
    },
    {
      "channel": 1,
      "note": 55,
      "start": 4.0294,
      "duration": 0.0022,
      "velocity": 120,
      "chip": "ym2612"
    },
    {
      "channel": 0,
      "note": 50,
      "start": 4.0324,
      "duration": 0.0009,
      "velocity": 88,
      "chip": "ym2612"
    },
    {
      "channel": 0,
      "note": 49,
      "start": 4.0333,
      "duration": 0.0009,
      "velocity": 88,
      "chip": "ym2612"
    },
    {
      "channel": 0,
      "note": 45,
      "start": 4.0343,
      "duration": 0.006,
      "velocity": 88,
      "chip": "ym2612"
    },
    {
      "channel": 1,
      "note": 59,
      "start": 4.0362,
      "duration": 0.0033,
      "velocity": 120,
      "chip": "ym2612"
    },
    {
      "channel": 0,
      "note": 45,
      "start": 4.0403,
      "duration": 0.0071,
      "velocity": 88,
      "chip": "ym2612"
    },
    {
      "channel": 1,
      "note": 59,
      "start": 4.0422,
      "duration": 0.0047,
      "velocity": 120,
      "chip": "ym2612"
    },
    {
      "channel": 0,
      "note": 45,
      "start": 4.2653,
      "duration": 0.0051,
      "velocity": 88,
      "chip": "ym2612"
    },
    {
      "channel": 1,
      "note": 82,
      "start": 4.2671,
      "duration": 0.0024,
      "velocity": 127,
      "chip": "ym2612"
    },
    {
      "channel": 0,
      "note": 46,
      "start": 4.2711,
      "duration": 0.0043,
      "velocity": 88,
      "chip": "ym2612"
    },
    {
      "channel": 1,
      "note": 55,
      "start": 4.273,
      "duration": 0.0025,
      "velocity": 120,
      "chip": "ym2612"
    },
    {
      "channel": 0,
      "note": 46,
      "start": 4.2762,
      "duration": 0.0059,
      "velocity": 88,
      "chip": "ym2612"
    },
    {
      "channel": 1,
      "note": 55,
      "start": 4.2781,
      "duration": 0.0035,
      "velocity": 120,
      "chip": "ym2612"
    },
    {
      "channel": 0,
      "note": 46,
      "start": 4.4998,
      "duration": 0.005,
      "velocity": 88,
      "chip": "ym2612"
    },
    {
      "channel": 1,
      "note": 82,
      "start": 4.5015,
      "duration": 0.0024,
      "velocity": 127,
      "chip": "ym2612"
    },
    {
      "channel": 0,
      "note": 47,
      "start": 4.5055,
      "duration": 0.005,
      "velocity": 88,
      "chip": "ym2612"
    },
    {
      "channel": 1,
      "note": 59,
      "start": 4.5074,
      "duration": 0.0032,
      "velocity": 120,
      "chip": "ym2612"
    },
    {
      "channel": 0,
      "note": 47,
      "start": 4.5115,
      "duration": 0.0056,
      "velocity": 88,
      "chip": "ym2612"
    },
    {
      "channel": 1,
      "note": 59,
      "start": 4.5134,
      "duration": 0.0031,
      "velocity": 120,
      "chip": "ym2612"
    },
    {
      "channel": 0,
      "note": 47,
      "start": 4.7697,
      "duration": 0.0042,
      "velocity": 88,
      "chip": "ym2612"
    },
    {
      "channel": 1,
      "note": 82,
      "start": 4.7715,
      "duration": 0.0011,
      "velocity": 127,
      "chip": "ym2612"
    },
    {
      "channel": 0,
      "note": 48,
      "start": 4.8089,
      "duration": 0.0397,
      "velocity": 88,
      "chip": "ym2612"
    },
    {
      "channel": 0,
      "note": 44,
      "start": 4.8487,
      "duration": 0.0038,
      "velocity": 88,
      "chip": "ym2612"
    },
    {
      "channel": 1,
      "note": 106,
      "start": 4.8505,
      "duration": 0.0009,
      "velocity": 114,
      "chip": "ym2612"
    },
    {
      "channel": 0,
      "note": 45,
      "start": 4.8525,
      "duration": 0.0038,
      "velocity": 88,
      "chip": "ym2612"
    },
    {
      "channel": 1,
      "note": 106,
      "start": 4.8528,
      "duration": 0.0024,
      "velocity": 114,
      "chip": "ym2612"
    },
    {
      "channel": 0,
      "note": 46,
      "start": 4.8563,
      "duration": 0.0056,
      "velocity": 88,
      "chip": "ym2612"
    },
    {
      "channel": 0,
      "note": 47,
      "start": 4.862,
      "duration": 0.0387,
      "velocity": 88,
      "chip": "ym2612"
    },
    {
      "channel": 1,
      "note": 106,
      "start": 4.8623,
      "duration": 0.001,
      "velocity": 114,
      "chip": "ym2612"
    },
    {
      "channel": 0,
      "note": 48,
      "start": 4.9006,
      "duration": 0.0399,
      "velocity": 88,
      "chip": "ym2612"
    },
    {
      "channel": 1,
      "note": 106,
      "start": 4.901,
      "duration": 0.0023,
      "velocity": 114,
      "chip": "ym2612"
    },
    {
      "channel": 0,
      "note": 49,
      "start": 4.9405,
      "duration": 0.0038,
      "velocity": 88,
      "chip": "ym2612"
    },
    {
      "channel": 1,
      "note": 82,
      "start": 4.9423,
      "duration": 0.001,
      "velocity": 127,
      "chip": "ym2612"
    },
    {
      "channel": 0,
      "note": 49,
      "start": 4.9444,
      "duration": 0.0038,
      "velocity": 88,
      "chip": "ym2612"
    },
    {
      "channel": 1,
      "note": 101,
      "start": 4.9462,
      "duration": 0.001,
      "velocity": 114,
      "chip": "ym2612"
    },
    {
      "channel": 0,
      "note": 49,
      "start": 4.9482,
      "duration": 0.0044,
      "velocity": 88,
      "chip": "ym2612"
    },
    {
      "channel": 1,
      "note": 106,
      "start": 4.9501,
      "duration": 0.0009,
      "velocity": 127,
      "chip": "ym2612"
    },
    {
      "channel": 0,
      "note": 49,
      "start": 4.9526,
      "duration": 0.0052,
      "velocity": 88,
      "chip": "ym2612"
    },
    {
      "channel": 1,
      "note": 101,
      "start": 4.9545,
      "duration": 0.0015,
      "velocity": 114,
      "chip": "ym2612"
    },
    {
      "channel": 0,
      "note": 49,
      "start": 4.9579,
      "duration": 0.0045,
      "velocity": 88,
      "chip": "ym2612"
    },
    {
      "channel": 1,
      "note": 106,
      "start": 4.9598,
      "duration": 0.001,
      "velocity": 127,
      "chip": "ym2612"
    },
    {
      "channel": 0,
      "note": 49,
      "start": 4.9624,
      "duration": 0.0049,
      "velocity": 88,
      "chip": "ym2612"
    },
    {
      "channel": 1,
      "note": 101,
      "start": 4.9644,
      "duration": 0.0023,
      "velocity": 114,
      "chip": "ym2612"
    },
    {
      "channel": 0,
      "note": 49,
      "start": 4.9674,
      "duration": 0.0061,
      "velocity": 88,
      "chip": "ym2612"
    },
    {
      "channel": 1,
      "note": 106,
      "start": 4.9692,
      "duration": 0.0023,
      "velocity": 127,
      "chip": "ym2612"
    },
    {
      "channel": 0,
      "note": 49,
      "start": 4.9735,
      "duration": 0.0041,
      "velocity": 88,
      "chip": "ym2612"
    },
    {
      "channel": 1,
      "note": 101,
      "start": 4.9753,
      "duration": 0.0007,
      "velocity": 114,
      "chip": "ym2612"
    },
    {
      "channel": 0,
      "note": 49,
      "start": 4.9777,
      "duration": 0.0032,
      "velocity": 88,
      "chip": "ym2612"
    },
    {
      "channel": 1,
      "note": 106,
      "start": 4.9795,
      "duration": 0.001,
      "velocity": 127,
      "chip": "ym2612"
    },
    {
      "channel": 0,
      "note": 49,
      "start": 4.9829,
      "duration": 0.0033,
      "velocity": 88,
      "chip": "ym2612"
    },
    {
      "channel": 1,
      "note": 101,
      "start": 4.9847,
      "duration": 0.0009,
      "velocity": 114,
      "chip": "ym2612"
    },
    {
      "channel": 0,
      "note": 49,
      "start": 4.9872,
      "duration": 0.0033,
      "velocity": 88,
      "chip": "ym2612"
    },
    {
      "channel": 1,
      "note": 106,
      "start": 4.989,
      "duration": 0.001,
      "velocity": 127,
      "chip": "ym2612"
    },
    {
      "channel": 0,
      "note": 49,
      "start": 4.9916,
      "duration": 0.0031,
      "velocity": 88,
      "chip": "ym2612"
    },
    {
      "channel": 1,
      "note": 101,
      "start": 4.9934,
      "duration": 0.0007,
      "velocity": 114,
      "chip": "ym2612"
    },
    {
      "channel": 0,
      "note": 49,
      "start": 4.9954,
      "duration": 0.0032,
      "velocity": 88,
      "chip": "ym2612"
    },
    {
      "channel": 1,
      "note": 106,
      "start": 4.9972,
      "duration": 0.0009,
      "velocity": 127,
      "chip": "ym2612"
    },
    {
      "channel": 0,
      "note": 49,
      "start": 4.9998,
      "duration": 0.0046,
      "velocity": 88,
      "chip": "ym2612"
    },
    {
      "channel": 1,
      "note": 101,
      "start": 5.0017,
      "duration": 0.0022,
      "velocity": 114,
      "chip": "ym2612"
    },
    {
      "channel": 0,
      "note": 49,
      "start": 5.0051,
      "duration": 0.0047,
      "velocity": 88,
      "chip": "ym2612"
    },
    {
      "channel": 1,
      "note": 106,
      "start": 5.0069,
      "duration": 0.0023,
      "velocity": 127,
      "chip": "ym2612"
    },
    {
      "channel": 0,
      "note": 49,
      "start": 5.0112,
      "duration": 0.0039,
      "velocity": 88,
      "chip": "ym2612"
    },
    {
      "channel": 1,
      "note": 101,
      "start": 5.0131,
      "duration": 0.0015,
      "velocity": 114,
      "chip": "ym2612"
    },
    {
      "channel": 0,
      "note": 49,
      "start": 5.0158,
      "duration": 0.0061,
      "velocity": 88,
      "chip": "ym2612"
    },
    {
      "channel": 1,
      "note": 106,
      "start": 5.0177,
      "duration": 0.0009,
      "velocity": 127,
      "chip": "ym2612"
    },
    {
      "channel": 0,
      "note": 49,
      "start": 5.0219,
      "duration": 0.0039,
      "velocity": 88,
      "chip": "ym2612"
    },
    {
      "channel": 1,
      "note": 101,
      "start": 5.0238,
      "duration": 0.0009,
      "velocity": 114,
      "chip": "ym2612"
    },
    {
      "channel": 0,
      "note": 49,
      "start": 5.0258,
      "duration": 0.0044,
      "velocity": 88,
      "chip": "ym2612"
    },
    {
      "channel": 1,
      "note": 106,
      "start": 5.0276,
      "duration": 0.0009,
      "velocity": 127,
      "chip": "ym2612"
    },
    {
      "channel": 0,
      "note": 49,
      "start": 5.0302,
      "duration": 0.0052,
      "velocity": 88,
      "chip": "ym2612"
    },
    {
      "channel": 1,
      "note": 101,
      "start": 5.032,
      "duration": 0.0015,
      "velocity": 114,
      "chip": "ym2612"
    },
    {
      "channel": 0,
      "note": 49,
      "start": 5.0354,
      "duration": 0.0039,
      "velocity": 88,
      "chip": "ym2612"
    },
    {
      "channel": 1,
      "note": 106,
      "start": 5.0373,
      "duration": 0.0009,
      "velocity": 127,
      "chip": "ym2612"
    },
    {
      "channel": 0,
      "note": 49,
      "start": 5.0393,
      "duration": 0.0031,
      "velocity": 88,
      "chip": "ym2612"
    },
    {
      "channel": 1,
      "note": 101,
      "start": 5.0412,
      "duration": 0.0007,
      "velocity": 114,
      "chip": "ym2612"
    },
    {
      "channel": 0,
      "note": 49,
      "start": 5.0425,
      "duration": 0.0063,
      "velocity": 88,
      "chip": "ym2612"
    },
    {
      "channel": 1,
      "note": 106,
      "start": 5.0444,
      "duration": 0.0023,
      "velocity": 127,
      "chip": "ym2612"
    },
    {
      "channel": 0,
      "note": 49,
      "start": 5.049,
      "duration": 0.004,
      "velocity": 88,
      "chip": "ym2612"
    },
    {
      "channel": 1,
      "note": 101,
      "start": 5.0508,
      "duration": 0.0007,
      "velocity": 114,
      "chip": "ym2612"
    },
    {
      "channel": 0,
      "note": 49,
      "start": 5.053,
      "duration": 0.0058,
      "velocity": 88,
      "chip": "ym2612"
    },
    {
      "channel": 1,
      "note": 106,
      "start": 5.0548,
      "duration": 0.001,
      "velocity": 127,
      "chip": "ym2612"
    },
    {
      "channel": 0,
      "note": 49,
      "start": 5.0588,
      "duration": 0.0039,
      "velocity": 88,
      "chip": "ym2612"
    },
    {
      "channel": 1,
      "note": 101,
      "start": 5.0607,
      "duration": 0.0009,
      "velocity": 114,
      "chip": "ym2612"
    },
    {
      "channel": 0,
      "note": 49,
      "start": 5.0627,
      "duration": 0.0038,
      "velocity": 88,
      "chip": "ym2612"
    },
    {
      "channel": 1,
      "note": 106,
      "start": 5.0646,
      "duration": 0.0009,
      "velocity": 127,
      "chip": "ym2612"
    },
    {
      "channel": 0,
      "note": 49,
      "start": 5.0665,
      "duration": 0.0049,
      "velocity": 88,
      "chip": "ym2612"
    },
    {
      "channel": 1,
      "note": 101,
      "start": 5.0684,
      "duration": 0.0007,
      "velocity": 114,
      "chip": "ym2612"
    },
    {
      "channel": 0,
      "note": 49,
      "start": 5.0715,
      "duration": 0.0038,
      "velocity": 88,
      "chip": "ym2612"
    },
    {
      "channel": 1,
      "note": 106,
      "start": 5.0733,
      "duration": 0.0009,
      "velocity": 127,
      "chip": "ym2612"
    },
    {
      "channel": 0,
      "note": 49,
      "start": 5.0753,
      "duration": 0.0032,
      "velocity": 88,
      "chip": "ym2612"
    },
    {
      "channel": 1,
      "note": 101,
      "start": 5.0771,
      "duration": 0.0007,
      "velocity": 114,
      "chip": "ym2612"
    },
    {
      "channel": 0,
      "note": 49,
      "start": 5.0785,
      "duration": 0.0063,
      "velocity": 88,
      "chip": "ym2612"
    },
    {
      "channel": 1,
      "note": 106,
      "start": 5.0803,
      "duration": 0.0024,
      "velocity": 127,
      "chip": "ym2612"
    },
    {
      "channel": 0,
      "note": 49,
      "start": 5.0848,
      "duration": 0.0053,
      "velocity": 88,
      "chip": "ym2612"
    },
    {
      "channel": 1,
      "note": 101,
      "start": 5.0867,
      "duration": 0.0015,
      "velocity": 114,
      "chip": "ym2612"
    },
    {
      "channel": 0,
      "note": 49,
      "start": 5.0901,
      "duration": 0.0058,
      "velocity": 88,
      "chip": "ym2612"
    },
    {
      "channel": 1,
      "note": 106,
      "start": 5.092,
      "duration": 0.001,
      "velocity": 127,
      "chip": "ym2612"
    },
    {
      "channel": 0,
      "note": 49,
      "start": 5.0959,
      "duration": 0.0039,
      "velocity": 88,
      "chip": "ym2612"
    },
    {
      "channel": 1,
      "note": 101,
      "start": 5.0978,
      "duration": 0.0009,
      "velocity": 114,
      "chip": "ym2612"
    },
    {
      "channel": 0,
      "note": 49,
      "start": 5.0998,
      "duration": 0.0043,
      "velocity": 88,
      "chip": "ym2612"
    },
    {
      "channel": 1,
      "note": 106,
      "start": 5.1017,
      "duration": 0.0009,
      "velocity": 127,
      "chip": "ym2612"
    },
    {
      "channel": 0,
      "note": 49,
      "start": 5.1041,
      "duration": 0.0052,
      "velocity": 88,
      "chip": "ym2612"
    },
    {
      "channel": 1,
      "note": 101,
      "start": 5.1061,
      "duration": 0.0015,
      "velocity": 114,
      "chip": "ym2612"
    },
    {
      "channel": 0,
      "note": 49,
      "start": 5.1094,
      "duration": 0.0038,
      "velocity": 88,
      "chip": "ym2612"
    },
    {
      "channel": 1,
      "note": 106,
      "start": 5.1113,
      "duration": 0.0009,
      "velocity": 127,
      "chip": "ym2612"
    },
    {
      "channel": 0,
      "note": 49,
      "start": 5.1133,
      "duration": 0.0032,
      "velocity": 88,
      "chip": "ym2612"
    },
    {
      "channel": 1,
      "note": 101,
      "start": 5.1152,
      "duration": 0.0007,
      "velocity": 114,
      "chip": "ym2612"
    },
    {
      "channel": 0,
      "note": 49,
      "start": 5.1166,
      "duration": 0.0047,
      "velocity": 88,
      "chip": "ym2612"
    },
    {
      "channel": 1,
      "note": 106,
      "start": 5.1184,
      "duration": 0.001,
      "velocity": 127,
      "chip": "ym2612"
    },
    {
      "channel": 0,
      "note": 49,
      "start": 5.1212,
      "duration": 0.004,
      "velocity": 88,
      "chip": "ym2612"
    },
    {
      "channel": 1,
      "note": 101,
      "start": 5.1231,
      "duration": 0.0007,
      "velocity": 114,
      "chip": "ym2612"
    },
    {
      "channel": 0,
      "note": 49,
      "start": 5.1253,
      "duration": 0.0058,
      "velocity": 88,
      "chip": "ym2612"
    },
    {
      "channel": 1,
      "note": 106,
      "start": 5.1272,
      "duration": 0.0009,
      "velocity": 127,
      "chip": "ym2612"
    },
    {
      "channel": 0,
      "note": 49,
      "start": 5.1312,
      "duration": 0.0038,
      "velocity": 88,
      "chip": "ym2612"
    },
    {
      "channel": 1,
      "note": 101,
      "start": 5.133,
      "duration": 0.0009,
      "velocity": 114,
      "chip": "ym2612"
    },
    {
      "channel": 0,
      "note": 49,
      "start": 5.135,
      "duration": 0.0039,
      "velocity": 88,
      "chip": "ym2612"
    },
    {
      "channel": 1,
      "note": 106,
      "start": 5.1368,
      "duration": 0.001,
      "velocity": 127,
      "chip": "ym2612"
    },
    {
      "channel": 0,
      "note": 49,
      "start": 5.1388,
      "duration": 0.0038,
      "velocity": 88,
      "chip": "ym2612"
    },
    {
      "channel": 1,
      "note": 101,
      "start": 5.1407,
      "duration": 0.0007,
      "velocity": 114,
      "chip": "ym2612"
    },
    {
      "channel": 0,
      "note": 49,
      "start": 5.1427,
      "duration": 0.0038,
      "velocity": 88,
      "chip": "ym2612"
    },
    {
      "channel": 1,
      "note": 106,
      "start": 5.1445,
      "duration": 0.0009,
      "velocity": 127,
      "chip": "ym2612"
    },
    {
      "channel": 0,
      "note": 49,
      "start": 5.1465,
      "duration": 0.0032,
      "velocity": 88,
      "chip": "ym2612"
    },
    {
      "channel": 1,
      "note": 101,
      "start": 5.1484,
      "duration": 0.0007,
      "velocity": 114,
      "chip": "ym2612"
    },
    {
      "channel": 0,
      "note": 49,
      "start": 5.1498,
      "duration": 0.0046,
      "velocity": 88,
      "chip": "ym2612"
    },
    {
      "channel": 1,
      "note": 106,
      "start": 5.1517,
      "duration": 0.0009,
      "velocity": 127,
      "chip": "ym2612"
    },
    {
      "channel": 0,
      "note": 49,
      "start": 5.1545,
      "duration": 0.0052,
      "velocity": 88,
      "chip": "ym2612"
    },
    {
      "channel": 1,
      "note": 101,
      "start": 5.1564,
      "duration": 0.0015,
      "velocity": 114,
      "chip": "ym2612"
    },
    {
      "channel": 0,
      "note": 49,
      "start": 5.1597,
      "duration": 0.0059,
      "velocity": 88,
      "chip": "ym2612"
    },
    {
      "channel": 1,
      "note": 106,
      "start": 5.1616,
      "duration": 0.001,
      "velocity": 127,
      "chip": "ym2612"
    },
    {
      "channel": 0,
      "note": 49,
      "start": 5.1656,
      "duration": 0.0039,
      "velocity": 88,
      "chip": "ym2612"
    },
    {
      "channel": 1,
      "note": 101,
      "start": 5.1675,
      "duration": 0.001,
      "velocity": 114,
      "chip": "ym2612"
    },
    {
      "channel": 0,
      "note": 49,
      "start": 5.1695,
      "duration": 0.0039,
      "velocity": 88,
      "chip": "ym2612"
    },
    {
      "channel": 1,
      "note": 106,
      "start": 5.1714,
      "duration": 0.0009,
      "velocity": 127,
      "chip": "ym2612"
    },
    {
      "channel": 0,
      "note": 49,
      "start": 5.1734,
      "duration": 0.0049,
      "velocity": 88,
      "chip": "ym2612"
    },
    {
      "channel": 1,
      "note": 101,
      "start": 5.1753,
      "duration": 0.0023,
      "velocity": 114,
      "chip": "ym2612"
    },
    {
      "channel": 0,
      "note": 49,
      "start": 5.1784,
      "duration": 0.0048,
      "velocity": 88,
      "chip": "ym2612"
    },
    {
      "channel": 1,
      "note": 106,
      "start": 5.1802,
      "duration": 0.001,
      "velocity": 127,
      "chip": "ym2612"
    },
    {
      "channel": 0,
      "note": 49,
      "start": 5.1833,
      "duration": 0.0033,
      "velocity": 88,
      "chip": "ym2612"
    },
    {
      "channel": 1,
      "note": 101,
      "start": 5.1852,
      "duration": 0.0007,
      "velocity": 114,
      "chip": "ym2612"
    },
    {
      "channel": 0,
      "note": 49,
      "start": 5.1866,
      "duration": 0.0252,
      "velocity": 88,
      "chip": "ym2612"
    },
    {
      "channel": 1,
      "note": 106,
      "start": 5.1885,
      "duration": 0.0008,
      "velocity": 127,
      "chip": "ym2612"
    },
    {
      "channel": 0,
      "note": 51,
      "start": 5.2118,
      "duration": 0.0037,
      "velocity": 88,
      "chip": "ym2612"
    },
    {
      "channel": 1,
      "note": 82,
      "start": 5.2136,
      "duration": 0.001,
      "velocity": 127,
      "chip": "ym2612"
    },
    {
      "channel": 1,
      "note": 106,
      "start": 5.2173,
      "duration": 0.0093,
      "velocity": 127,
      "chip": "ym2612"
    },
    {
      "channel": 0,
      "note": 50,
      "start": 5.4112,
      "duration": 85.449,
      "velocity": 88,
      "chip": "ym2612"
    }
  ]
}