{
  "track_name": "07 - New York",
  "duration_sec": 58.712,
  "sample_rate": 44100,
  "note_count": 546,
  "unique_pitches": 28,
  "pitch_range": 46,
  "avg_note_duration": 0.1444,
  "reconstruction_stats": {
    "notes_reconstructed": 546,
    "keyon_events": 546,
    "keyoff_events": 545,
    "orphan_keyons": 1,
    "unique_pitches": 28,
    "pitch_range": 46,
    "avg_duration_sec": 0.1444
  },
  "metadata": {
    "source": "T\\TaleSpin (MD)\\07 - New York.vgz"
  },
  "notes": [
    {
      "channel": 1,
      "note": 80,
      "start": 0.0021,
      "duration": 0.2512,
      "velocity": 93,
      "chip": "ym2612"
    },
    {
      "channel": 0,
      "note": 83,
      "start": 0.0048,
      "duration": 0.2152,
      "velocity": 93,
      "chip": "ym2612"
    },
    {
      "channel": 3,
      "note": 76,
      "start": 0.0081,
      "duration": 0.2453,
      "velocity": 93,
      "chip": "ym2612"
    },
    {
      "channel": 4,
      "note": 54,
      "start": 0.0169,
      "duration": 0.433,
      "velocity": 98,
      "chip": "ym2612"
    },
    {
      "channel": 2,
      "note": 78,
      "start": 0.207,
      "duration": 0.0798,
      "velocity": 93,
      "chip": "ym2612"
    },
    {
      "channel": 2,
      "note": 85,
      "start": 0.3407,
      "duration": 0.0462,
      "velocity": 93,
      "chip": "ym2612"
    },
    {
      "channel": 5,
      "note": 90,
      "start": 0.3435,
      "duration": 0.0434,
      "velocity": 93,
      "chip": "ym2612"
    },
    {
      "channel": 0,
      "note": 81,
      "start": 0.3463,
      "duration": 0.0403,
      "velocity": 93,
      "chip": "ym2612"
    },
    {
      "channel": 1,
      "note": 76,
      "start": 0.3488,
      "duration": 0.0212,
      "velocity": 93,
      "chip": "ym2612"
    },
    {
      "channel": 3,
      "note": 85,
      "start": 0.3515,
      "duration": 0.0186,
      "velocity": 93,
      "chip": "ym2612"
    },
    {
      "channel": 4,
      "note": 66,
      "start": 0.4605,
      "duration": 0.0186,
      "velocity": 98,
      "chip": "ym2612"
    },
    {
      "channel": 2,
      "note": 78,
      "start": 0.5226,
      "duration": 0.0798,
      "velocity": 93,
      "chip": "ym2612"
    },
    {
      "channel": 4,
      "note": 52,
      "start": 0.6387,
      "duration": 0.0637,
      "velocity": 98,
      "chip": "ym2612"
    },
    {
      "channel": 2,
      "note": 88,
      "start": 0.642,
      "duration": 0.0607,
      "velocity": 93,
      "chip": "ym2612"
    },
    {
      "channel": 1,
      "note": 83,
      "start": 0.6447,
      "duration": 0.0575,
      "velocity": 93,
      "chip": "ym2612"
    },
    {
      "channel": 4,
      "note": 54,
      "start": 0.772,
      "duration": 0.0303,
      "velocity": 98,
      "chip": "ym2612"
    },
    {
      "channel": 4,
      "note": 57,
      "start": 0.8888,
      "duration": 0.0636,
      "velocity": 98,
      "chip": "ym2612"
    },
    {
      "channel": 1,
      "note": 78,
      "start": 1.0224,
      "duration": 0.0798,
      "velocity": 93,
      "chip": "ym2612"
    },
    {
      "channel": 4,
      "note": 57,
      "start": 1.1221,
      "duration": 0.1302,
      "velocity": 98,
      "chip": "ym2612"
    },
    {
      "channel": 1,
      "note": 85,
      "start": 1.1395,
      "duration": 0.0627,
      "velocity": 93,
      "chip": "ym2612"
    },
    {
      "channel": 2,
      "note": 90,
      "start": 1.1422,
      "duration": 0.0603,
      "velocity": 93,
      "chip": "ym2612"
    },
    {
      "channel": 4,
      "note": 54,
      "start": 1.3922,
      "duration": 0.0419,
      "velocity": 98,
      "chip": "ym2612"
    },
    {
      "channel": 1,
      "note": 78,
      "start": 1.3949,
      "duration": 0.039,
      "velocity": 93,
      "chip": "ym2612"
    },
    {
      "channel": 4,
      "note": 52,
      "start": 1.5708,
      "duration": 0.0465,
      "velocity": 98,
      "chip": "ym2612"
    },
    {
      "channel": 1,
      "note": 85,
      "start": 1.5738,
      "duration": 0.0601,
      "velocity": 93,
      "chip": "ym2612"
    },
    {
      "channel": 2,
      "note": 81,
      "start": 1.5766,
      "duration": 0.0576,
      "velocity": 93,
      "chip": "ym2612"
    },
    {
      "channel": 4,
      "note": 54,
      "start": 1.7039,
      "duration": 0.2361,
      "velocity": 98,
      "chip": "ym2612"
    },
    {
      "channel": 0,
      "note": 80,
      "start": 1.824,
      "duration": 0.2658,
      "velocity": 93,
      "chip": "ym2612"
    },
    {
      "channel": 3,
      "note": 83,
      "start": 1.8265,
      "duration": 0.2467,
      "velocity": 93,
      "chip": "ym2612"
    },
    {
      "channel": 1,
      "note": 76,
      "start": 1.8294,
      "duration": 0.2605,
      "velocity": 93,
      "chip": "ym2612"
    },
    {
      "channel": 4,
      "note": 66,
      "start": 2.0598,
      "duration": 0.0468,
      "velocity": 98,
      "chip": "ym2612"
    },
    {
      "channel": 2,
      "note": 78,
      "start": 2.063,
      "duration": 0.077,
      "velocity": 93,
      "chip": "ym2612"
    },
    {
      "channel": 2,
      "note": 81,
      "start": 2.1768,
      "duration": 0.08,
      "velocity": 93,
      "chip": "ym2612"
    },
    {
      "channel": 5,
      "note": 85,
      "start": 2.1799,
      "duration": 0.0768,
      "velocity": 93,
      "chip": "ym2612"
    },
    {
      "channel": 0,
      "note": 81,
      "start": 2.1827,
      "duration": 0.0569,
      "velocity": 93,
      "chip": "ym2612"
    },
    {
      "channel": 1,
      "note": 76,
      "start": 2.1852,
      "duration": 0.0379,
      "velocity": 93,
      "chip": "ym2612"
    },
    {
      "channel": 3,
      "note": 85,
      "start": 2.1879,
      "duration": 0.0354,
      "velocity": 93,
      "chip": "ym2612"
    },
    {
      "channel": 2,
      "note": 78,
      "start": 2.3598,
      "duration": 0.0799,
      "velocity": 93,
      "chip": "ym2612"
    },
    {
      "channel": 4,
      "note": 52,
      "start": 2.4927,
      "duration": 0.047,
      "velocity": 98,
      "chip": "ym2612"
    },
    {
      "channel": 2,
      "note": 80,
      "start": 2.496,
      "duration": 0.0439,
      "velocity": 93,
      "chip": "ym2612"
    },
    {
      "channel": 1,
      "note": 83,
      "start": 2.4988,
      "duration": 0.0408,
      "velocity": 93,
      "chip": "ym2612"
    },
    {
      "channel": 4,
      "note": 54,
      "start": 2.6094,
      "duration": 0.0469,
      "velocity": 98,
      "chip": "ym2612"
    },
    {
      "channel": 4,
      "note": 59,
      "start": 2.7428,
      "duration": 0.0468,
      "velocity": 98,
      "chip": "ym2612"
    },
    {
      "channel": 1,
      "note": 78,
      "start": 2.8598,
      "duration": 0.0798,
      "velocity": 93,
      "chip": "ym2612"
    },
    {
      "channel": 4,
      "note": 57,
      "start": 2.993,
      "duration": 0.0799,
      "velocity": 98,
      "chip": "ym2612"
    },
    {
      "channel": 1,
      "note": 81,
      "start": 2.996,
      "duration": 0.0268,
      "velocity": 93,
      "chip": "ym2612"
    },
    {
      "channel": 2,
      "note": 85,
      "start": 2.9992,
      "duration": 0.0239,
      "velocity": 93,
      "chip": "ym2612"
    },
    {
      "channel": 4,
      "note": 56,
      "start": 3.2463,
      "duration": 0.0312,
      "velocity": 98,
      "chip": "ym2612"
    },
    {
      "channel": 1,
      "note": 83,
      "start": 3.2488,
      "duration": 0.0181,
      "velocity": 93,
      "chip": "ym2612"
    },
    {
      "channel": 2,
      "note": 88,
      "start": 3.2517,
      "duration": 0.0206,
      "velocity": 93,
      "chip": "ym2612"
    },
    {
      "channel": 4,
      "note": 52,
      "start": 3.4077,
      "duration": 0.0468,
      "velocity": 98,
      "chip": "ym2612"
    },
    {
      "channel": 4,
      "note": 54,
      "start": 3.5411,
      "duration": 0.2508,
      "velocity": 98,
      "chip": "ym2612"
    },
    {
      "channel": 0,
      "note": 83,
      "start": 3.6775,
      "duration": 0.2306,
      "velocity": 93,
      "chip": "ym2612"
    },
    {
      "channel": 3,
      "note": 76,
      "start": 3.68,
      "duration": 0.2618,
      "velocity": 93,
      "chip": "ym2612"
    },
    {
      "channel": 1,
      "note": 80,
      "start": 3.6829,
      "duration": 0.2254,
      "velocity": 93,
      "chip": "ym2612"
    },
    {
      "channel": 4,
      "note": 66,
      "start": 3.8948,
      "duration": 0.0636,
      "velocity": 98,
      "chip": "ym2612"
    },
    {
      "channel": 2,
      "note": 78,
      "start": 3.8981,
      "duration": 0.0938,
      "velocity": 93,
      "chip": "ym2612"
    },
    {
      "channel": 2,
      "note": 90,
      "start": 4.0286,
      "duration": 0.0966,
      "velocity": 93,
      "chip": "ym2612"
    },
    {
      "channel": 5,
      "note": 85,
      "start": 4.0315,
      "duration": 0.077,
      "velocity": 93,
      "chip": "ym2612"
    },
    {
      "channel": 0,
      "note": 81,
      "start": 4.0343,
      "duration": 0.0407,
      "velocity": 93,
      "chip": "ym2612"
    },
    {
      "channel": 1,
      "note": 76,
      "start": 4.0368,
      "duration": 0.0216,
      "velocity": 93,
      "chip": "ym2612"
    },
    {
      "channel": 3,
      "note": 85,
      "start": 4.0395,
      "duration": 0.019,
      "velocity": 93,
      "chip": "ym2612"
    },
    {
      "channel": 2,
      "note": 78,
      "start": 4.2124,
      "duration": 0.0796,
      "velocity": 93,
      "chip": "ym2612"
    },
    {
      "channel": 4,
      "note": 52,
      "start": 4.3283,
      "duration": 0.0637,
      "velocity": 98,
      "chip": "ym2612"
    },
    {
      "channel": 2,
      "note": 83,
      "start": 4.3315,
      "duration": 0.0607,
      "velocity": 93,
      "chip": "ym2612"
    },
    {
      "channel": 1,
      "note": 88,
      "start": 4.3344,
      "duration": 0.0742,
      "velocity": 93,
      "chip": "ym2612"
    },
    {
      "channel": 4,
      "note": 54,
      "start": 4.4619,
      "duration": 0.03,
      "velocity": 98,
      "chip": "ym2612"
    },
    {
      "channel": 4,
      "note": 57,
      "start": 4.5785,
      "duration": 0.0634,
      "velocity": 98,
      "chip": "ym2612"
    },
    {
      "channel": 1,
      "note": 78,
      "start": 4.7119,
      "duration": 0.0799,
      "velocity": 93,
      "chip": "ym2612"
    },
    {
      "channel": 4,
      "note": 57,
      "start": 4.8283,
      "duration": 0.0803,
      "velocity": 98,
      "chip": "ym2612"
    },
    {
      "channel": 1,
      "note": 90,
      "start": 4.8313,
      "duration": 0.0605,
      "velocity": 93,
      "chip": "ym2612"
    },
    {
      "channel": 2,
      "note": 85,
      "start": 4.8342,
      "duration": 0.0411,
      "velocity": 93,
      "chip": "ym2612"
    },
    {
      "channel": 4,
      "note": 54,
      "start": 5.0814,
      "duration": 0.0252,
      "velocity": 98,
      "chip": "ym2612"
    },
    {
      "channel": 1,
      "note": 78,
      "start": 5.0843,
      "duration": 0.0391,
      "velocity": 93,
      "chip": "ym2612"
    },
    {
      "channel": 4,
      "note": 52,
      "start": 5.2601,
      "duration": 0.0468,
      "velocity": 98,
      "chip": "ym2612"
    },
    {
      "channel": 1,
      "note": 85,
      "start": 5.2631,
      "duration": 0.0604,
      "velocity": 93,
      "chip": "ym2612"
    },
    {
      "channel": 2,
      "note": 81,
      "start": 5.2659,
      "duration": 0.0579,
      "velocity": 93,
      "chip": "ym2612"
    },
    {
      "channel": 4,
      "note": 54,
      "start": 5.41,
      "duration": 0.2361,
      "velocity": 98,
      "chip": "ym2612"
    },
    {
      "channel": 0,
      "note": 83,
      "start": 5.5134,
      "duration": 0.1992,
      "velocity": 93,
      "chip": "ym2612"
    },
    {
      "channel": 3,
      "note": 80,
      "start": 5.516,
      "duration": 0.2134,
      "velocity": 93,
      "chip": "ym2612"
    },
    {
      "channel": 1,
      "note": 76,
      "start": 5.5189,
      "duration": 0.2438,
      "velocity": 93,
      "chip": "ym2612"
    },
    {
      "channel": 4,
      "note": 66,
      "start": 5.7327,
      "duration": 0.0634,
      "velocity": 98,
      "chip": "ym2612"
    },
    {
      "channel": 2,
      "note": 78,
      "start": 5.7359,
      "duration": 0.0936,
      "velocity": 93,
      "chip": "ym2612"
    },
    {
      "channel": 2,
      "note": 81,
      "start": 5.8662,
      "duration": 0.08,
      "velocity": 93,
      "chip": "ym2612"
    },
    {
      "channel": 5,
      "note": 85,
      "start": 5.8689,
      "duration": 0.0772,
      "velocity": 93,
      "chip": "ym2612"
    },
    {
      "channel": 0,
      "note": 81,
      "start": 5.8717,
      "duration": 0.0407,
      "velocity": 93,
      "chip": "ym2612"
    },
    {
      "channel": 1,
      "note": 76,
      "start": 5.8741,
      "duration": 0.0386,
      "velocity": 93,
      "chip": "ym2612"
    },
    {
      "channel": 3,
      "note": 85,
      "start": 5.8768,
      "duration": 0.036,
      "velocity": 93,
      "chip": "ym2612"
    },
    {
      "channel": 2,
      "note": 78,
      "start": 6.0494,
      "duration": 0.0799,
      "velocity": 93,
      "chip": "ym2612"
    },
    {
      "channel": 4,
      "note": 52,
      "start": 6.1828,
      "duration": 0.0297,
      "velocity": 98,
      "chip": "ym2612"
    },
    {
      "channel": 2,
      "note": 80,
      "start": 6.1865,
      "duration": 0.043,
      "velocity": 93,
      "chip": "ym2612"
    },
    {
      "channel": 0,
      "note": 83,
      "start": 6.1892,
      "duration": 0.04,
      "velocity": 93,
      "chip": "ym2612"
    },
    {
      "channel": 4,
      "note": 54,
      "start": 6.299,
      "duration": 0.0636,
      "velocity": 98,
      "chip": "ym2612"
    },
    {
      "channel": 4,
      "note": 57,
      "start": 6.4324,
      "duration": 0.2469,
      "velocity": 98,
      "chip": "ym2612"
    },
    {
      "channel": 0,
      "note": 78,
      "start": 6.5493,
      "duration": 0.0966,
      "velocity": 93,
      "chip": "ym2612"
    },
    {
      "channel": 0,
      "note": 85,
      "start": 6.6828,
      "duration": 0.0461,
      "velocity": 93,
      "chip": "ym2612"
    },
    {
      "channel": 2,
      "note": 81,
      "start": 6.6855,
      "duration": 0.0439,
      "velocity": 93,
      "chip": "ym2612"
    },
    {
      "channel": 4,
      "note": 59,
      "start": 6.7989,
      "duration": 0.2288,
      "velocity": 98,
      "chip": "ym2612"
    },
    {
      "channel": 0,
      "note": 83,
      "start": 6.9359,
      "duration": 0.0198,
      "velocity": 93,
      "chip": "ym2612"
    },
    {
      "channel": 2,
      "note": 88,
      "start": 6.939,
      "duration": 0.0221,
      "velocity": 93,
      "chip": "ym2612"
    },
    {
      "channel": 4,
      "note": 61,
      "start": 7.1174,
      "duration": 0.116,
      "velocity": 98,
      "chip": "ym2612"
    },
    {
      "channel": 4,
      "note": 54,
      "start": 7.3398,
      "duration": 0.1977,
      "velocity": 98,
      "chip": "ym2612"
    },
    {
      "channel": 1,
      "note": 76,
      "start": 7.3426,
      "duration": 0.2281,
      "velocity": 93,
      "chip": "ym2612"
    },
    {
      "channel": 3,
      "note": 83,
      "start": 7.3451,
      "duration": 0.2257,
      "velocity": 93,
      "chip": "ym2612"
    },
    {
      "channel": 0,
      "note": 80,
      "start": 7.3479,
      "duration": 0.2396,
      "velocity": 93,
      "chip": "ym2612"
    },
    {
      "channel": 0,
      "note": 85,
      "start": 7.6746,
      "duration": 0.0461,
      "velocity": 93,
      "chip": "ym2612"
    },
    {
      "channel": 1,
      "note": 76,
      "start": 7.6771,
      "duration": 0.0602,
      "velocity": 93,
      "chip": "ym2612"
    },
    {
      "channel": 3,
      "note": 81,
      "start": 7.6797,
      "duration": 0.0579,
      "velocity": 93,
      "chip": "ym2612"
    },
    {
      "channel": 4,
      "note": 66,
      "start": 7.8114,
      "duration": 0.0184,
      "velocity": 98,
      "chip": "ym2612"
    },
    {
      "channel": 4,
      "note": 52,
      "start": 7.989,
      "duration": 0.0636,
      "velocity": 98,
      "chip": "ym2612"
    },
    {
      "channel": 2,
      "note": 78,
      "start": 7.9921,
      "duration": 0.0774,
      "velocity": 1,
      "chip": "ym2612"
    },
    {
      "channel": 0,
      "note": 81,
      "start": 7.995,
      "duration": 0.6965,
      "velocity": 93,
      "chip": "ym2612"
    },
    {
      "channel": 1,
      "note": 76,
      "start": 7.9974,
      "duration": 0.6943,
      "velocity": 93,
      "chip": "ym2612"
    },
    {
      "channel": 3,
      "note": 85,
      "start": 8.0001,
      "duration": 0.7081,
      "velocity": 93,
      "chip": "ym2612"
    },
    {
      "channel": 4,
      "note": 54,
      "start": 8.1224,
      "duration": 0.0303,
      "velocity": 98,
      "chip": "ym2612"
    },
    {
      "channel": 2,
      "note": 85,
      "start": 8.1257,
      "duration": 0.0937,
      "velocity": 1,
      "chip": "ym2612"
    },
    {
      "channel": 4,
      "note": 57,
      "start": 8.2392,
      "duration": 0.0636,
      "velocity": 98,
      "chip": "ym2612"
    },
    {
      "channel": 2,
      "note": 83,
      "start": 8.3728,
      "duration": 0.0466,
      "velocity": 1,
      "chip": "ym2612"
    },
    {
      "channel": 4,
      "note": 57,
      "start": 8.4726,
      "duration": 0.0858,
      "velocity": 98,
      "chip": "ym2612"
    },
    {
      "channel": 2,
      "note": 81,
      "start": 8.4928,
      "duration": 0.049,
      "velocity": 1,
      "chip": "ym2612"
    },
    {
      "channel": 4,
      "note": 54,
      "start": 8.7147,
      "duration": 0.0419,
      "velocity": 98,
      "chip": "ym2612"
    },
    {
      "channel": 2,
      "note": 83,
      "start": 8.7173,
      "duration": 0.056,
      "velocity": 1,
      "chip": "ym2612"
    },
    {
      "channel": 4,
      "note": 52,
      "start": 8.8967,
      "duration": 0.0323,
      "velocity": 98,
      "chip": "ym2612"
    },
    {
      "channel": 2,
      "note": 78,
      "start": 8.8993,
      "duration": 0.1297,
      "velocity": 1,
      "chip": "ym2612"
    },
    {
      "channel": 4,
      "note": 54,
      "start": 8.9988,
      "duration": 0.1378,
      "velocity": 98,
      "chip": "ym2612"
    },
    {
      "channel": 0,
      "note": 85,
      "start": 9.1192,
      "duration": 0.2139,
      "velocity": 93,
      "chip": "ym2612"
    },
    {
      "channel": 1,
      "note": 90,
      "start": 9.1215,
      "duration": 0.2117,
      "velocity": 93,
      "chip": "ym2612"
    },
    {
      "channel": 3,
      "note": 93,
      "start": 9.1242,
      "duration": 0.1923,
      "velocity": 93,
      "chip": "ym2612"
    },
    {
      "channel": 4,
      "note": 66,
      "start": 9.3365,
      "duration": 0.0633,
      "velocity": 98,
      "chip": "ym2612"
    },
    {
      "channel": 0,
      "note": 92,
      "start": 9.4699,
      "duration": 0.0296,
      "velocity": 93,
      "chip": "ym2612"
    },
    {
      "channel": 1,
      "note": 85,
      "start": 9.4723,
      "duration": 0.0275,
      "velocity": 93,
      "chip": "ym2612"
    },
    {
      "channel": 3,
      "note": 88,
      "start": 9.475,
      "duration": 0.0582,
      "velocity": 93,
      "chip": "ym2612"
    },
    {
      "channel": 4,
      "note": 52,
      "start": 9.786,
      "duration": 0.047,
      "velocity": 98,
      "chip": "ym2612"
    },
    {
      "channel": 2,
      "note": 78,
      "start": 9.7893,
      "duration": 0.0439,
      "velocity": 1,
      "chip": "ym2612"
    },
    {
      "channel": 4,
      "note": 54,
      "start": 9.9026,
      "duration": 0.047,
      "velocity": 98,
      "chip": "ym2612"
    },
    {
      "channel": 2,
      "note": 85,
      "start": 9.9056,
      "duration": 0.1275,
      "velocity": 1,
      "chip": "ym2612"
    },
    {
      "channel": 4,
      "note": 59,
      "start": 10.0363,
      "duration": 0.0467,
      "velocity": 98,
      "chip": "ym2612"
    },
    {
      "channel": 0,
      "note": 92,
      "start": 10.0394,
      "duration": 0.2602,
      "velocity": 93,
      "chip": "ym2612"
    },
    {
      "channel": 1,
      "note": 88,
      "start": 10.0423,
      "duration": 0.274,
      "velocity": 93,
      "chip": "ym2612"
    },
    {
      "channel": 3,
      "note": 83,
      "start": 10.0449,
      "duration": 0.2716,
      "velocity": 93,
      "chip": "ym2612"
    },
    {
      "channel": 2,
      "note": 83,
      "start": 10.1531,
      "duration": 0.0633,
      "velocity": 1,
      "chip": "ym2612"
    },
    {
      "channel": 4,
      "note": 57,
      "start": 10.2863,
      "duration": 0.0801,
      "velocity": 98,
      "chip": "ym2612"
    },
    {
      "channel": 2,
      "note": 81,
      "start": 10.2893,
      "duration": 0.0938,
      "velocity": 1,
      "chip": "ym2612"
    },
    {
      "channel": 0,
      "note": 86,
      "start": 10.4032,
      "duration": 0.063,
      "velocity": 93,
      "chip": "ym2612"
    },
    {
      "channel": 1,
      "note": 83,
      "start": 10.4057,
      "duration": 0.0439,
      "velocity": 93,
      "chip": "ym2612"
    },
    {
      "channel": 3,
      "note": 90,
      "start": 10.4083,
      "duration": 0.0415,
      "velocity": 93,
      "chip": "ym2612"
    },
    {
      "channel": 4,
      "note": 56,
      "start": 10.5395,
      "duration": 0.0304,
      "velocity": 98,
      "chip": "ym2612"
    },
    {
      "channel": 2,
      "note": 83,
      "start": 10.5421,
      "duration": 0.0279,
      "velocity": 1,
      "chip": "ym2612"
    },
    {
      "channel": 4,
      "note": 52,
      "start": 10.7015,
      "duration": 0.0302,
      "velocity": 98,
      "chip": "ym2612"
    },
    {
      "channel": 2,
      "note": 88,
      "start": 10.7217,
      "duration": 0.149,
      "velocity": 1,
      "chip": "ym2612"
    },
    {
      "channel": 4,
      "note": 54,
      "start": 10.8072,
      "duration": 0.1503,
      "velocity": 98,
      "chip": "ym2612"
    },
    {
      "channel": 1,
      "note": 54,
      "start": 10.9444,
      "duration": 0.1979,
      "velocity": 98,
      "chip": "ym2612"
    },
    {
      "channel": 0,
      "note": 76,
      "start": 10.9472,
      "duration": 0.195,
      "velocity": 93,
      "chip": "ym2612"
    },
    {
      "channel": 3,
      "note": 83,
      "start": 10.9498,
      "duration": 0.2091,
      "velocity": 93,
      "chip": "ym2612"
    },
    {
      "channel": 2,
      "note": 80,
      "start": 10.953,
      "duration": 0.2227,
      "velocity": 93,
      "chip": "ym2612"
    },
    {
      "channel": 1,
      "note": 66,
      "start": 11.1624,
      "duration": 0.063,
      "velocity": 98,
      "chip": "ym2612"
    },
    {
      "channel": 0,
      "note": 85,
      "start": 11.2789,
      "duration": 0.0466,
      "velocity": 93,
      "chip": "ym2612"
    },
    {
      "channel": 3,
      "note": 76,
      "start": 11.2815,
      "duration": 0.0773,
      "velocity": 93,
      "chip": "ym2612"
    },
    {
      "channel": 2,
      "note": 81,
      "start": 11.2843,
      "duration": 0.0747,
      "velocity": 93,
      "chip": "ym2612"
    },
    {
      "channel": 1,
      "note": 52,
      "start": 11.5949,
      "duration": 0.0635,
      "velocity": 98,
      "chip": "ym2612"
    },
    {
      "channel": 4,
      "note": 81,
      "start": 11.5982,
      "duration": 0.077,
      "velocity": 1,
      "chip": "ym2612"
    },
    {
      "channel": 0,
      "note": 85,
      "start": 11.6011,
      "duration": 0.724,
      "velocity": 93,
      "chip": "ym2612"
    },
    {
      "channel": 3,
      "note": 81,
      "start": 11.6037,
      "duration": 0.7318,
      "velocity": 93,
      "chip": "ym2612"
    },
    {
      "channel": 2,
      "note": 76,
      "start": 11.607,
      "duration": 0.7287,
      "velocity": 93,
      "chip": "ym2612"
    },
    {
      "channel": 1,
      "note": 54,
      "start": 11.7282,
      "duration": 0.0302,
      "velocity": 98,
      "chip": "ym2612"
    },
    {
      "channel": 4,
      "note": 83,
      "start": 11.7308,
      "duration": 0.0445,
      "velocity": 1,
      "chip": "ym2612"
    },
    {
      "channel": 1,
      "note": 57,
      "start": 11.8449,
      "duration": 0.0636,
      "velocity": 98,
      "chip": "ym2612"
    },
    {
      "channel": 4,
      "note": 85,
      "start": 11.8476,
      "duration": 0.0778,
      "velocity": 1,
      "chip": "ym2612"
    },
    {
      "channel": 4,
      "note": 83,
      "start": 11.9783,
      "duration": 0.0802,
      "velocity": 1,
      "chip": "ym2612"
    },
    {
      "channel": 1,
      "note": 57,
      "start": 12.0983,
      "duration": 0.0493,
      "velocity": 98,
      "chip": "ym2612"
    },
    {
      "channel": 4,
      "note": 81,
      "start": 12.201,
      "duration": 0.0466,
      "velocity": 1,
      "chip": "ym2612"
    },
    {
      "channel": 1,
      "note": 54,
      "start": 12.3205,
      "duration": 0.0255,
      "velocity": 98,
      "chip": "ym2612"
    },
    {
      "channel": 4,
      "note": 83,
      "start": 12.3232,
      "duration": 0.0283,
      "velocity": 1,
      "chip": "ym2612"
    },
    {
      "channel": 1,
      "note": 52,
      "start": 12.5024,
      "duration": 0.017,
      "velocity": 98,
      "chip": "ym2612"
    },
    {
      "channel": 4,
      "note": 78,
      "start": 12.5051,
      "duration": 0.1301,
      "velocity": 1,
      "chip": "ym2612"
    },
    {
      "channel": 1,
      "note": 54,
      "start": 12.6221,
      "duration": 0.2044,
      "velocity": 98,
      "chip": "ym2612"
    },
    {
      "channel": 1,
      "note": 66,
      "start": 12.9463,
      "duration": 0.0636,
      "velocity": 98,
      "chip": "ym2612"
    },
    {
      "channel": 1,
      "note": 52,
      "start": 13.3761,
      "duration": 0.0468,
      "velocity": 98,
      "chip": "ym2612"
    },
    {
      "channel": 4,
      "note": 85,
      "start": 13.3793,
      "duration": 0.0603,
      "velocity": 1,
      "chip": "ym2612"
    },
    {
      "channel": 1,
      "note": 54,
      "start": 13.5092,
      "duration": 0.0637,
      "velocity": 98,
      "chip": "ym2612"
    },
    {
      "channel": 4,
      "note": 88,
      "start": 13.5121,
      "duration": 0.0776,
      "velocity": 1,
      "chip": "ym2612"
    },
    {
      "channel": 1,
      "note": 57,
      "start": 13.6428,
      "duration": 0.2468,
      "velocity": 98,
      "chip": "ym2612"
    },
    {
      "channel": 4,
      "note": 85,
      "start": 13.7596,
      "duration": 0.0468,
      "velocity": 1,
      "chip": "ym2612"
    },
    {
      "channel": 4,
      "note": 83,
      "start": 13.8967,
      "duration": 0.0493,
      "velocity": 1,
      "chip": "ym2612"
    },
    {
      "channel": 0,
      "note": 81,
      "start": 13.8994,
      "duration": 0.016,
      "velocity": 93,
      "chip": "ym2612"
    },
    {
      "channel": 3,
      "note": 85,
      "start": 13.902,
      "duration": 0.0135,
      "velocity": 93,
      "chip": "ym2612"
    },
    {
      "channel": 2,
      "note": 88,
      "start": 13.9049,
      "duration": 0.0413,
      "velocity": 93,
      "chip": "ym2612"
    },
    {
      "channel": 1,
      "note": 59,
      "start": 13.9823,
      "duration": 0.2284,
      "velocity": 98,
      "chip": "ym2612"
    },
    {
      "channel": 4,
      "note": 85,
      "start": 14.119,
      "duration": 0.0293,
      "velocity": 1,
      "chip": "ym2612"
    },
    {
      "channel": 0,
      "note": 88,
      "start": 14.1644,
      "duration": 0.0961,
      "velocity": 93,
      "chip": "ym2612"
    },
    {
      "channel": 3,
      "note": 81,
      "start": 14.1668,
      "duration": 0.0941,
      "velocity": 93,
      "chip": "ym2612"
    },
    {
      "channel": 2,
      "note": 85,
      "start": 14.1696,
      "duration": 0.0746,
      "velocity": 93,
      "chip": "ym2612"
    },
    {
      "channel": 1,
      "note": 61,
      "start": 14.3009,
      "duration": 0.1155,
      "velocity": 98,
      "chip": "ym2612"
    },
    {
      "channel": 4,
      "note": 90,
      "start": 14.3037,
      "duration": 0.1129,
      "velocity": 1,
      "chip": "ym2612"
    },
    {
      "channel": 1,
      "note": 59,
      "start": 14.5229,
      "duration": 0.2311,
      "velocity": 98,
      "chip": "ym2612"
    },
    {
      "channel": 0,
      "note": 81,
      "start": 14.5259,
      "duration": 0.2447,
      "velocity": 93,
      "chip": "ym2612"
    },
    {
      "channel": 3,
      "note": 85,
      "start": 14.5284,
      "duration": 0.2423,
      "velocity": 93,
      "chip": "ym2612"
    },
    {
      "channel": 2,
      "note": 88,
      "start": 14.5313,
      "duration": 0.2728,
      "velocity": 93,
      "chip": "ym2612"
    },
    {
      "channel": 0,
      "note": 90,
      "start": 14.8574,
      "duration": 0.0797,
      "velocity": 93,
      "chip": "ym2612"
    },
    {
      "channel": 3,
      "note": 83,
      "start": 14.86,
      "duration": 0.0606,
      "velocity": 93,
      "chip": "ym2612"
    },
    {
      "channel": 2,
      "note": 86,
      "start": 14.8628,
      "duration": 0.0581,
      "velocity": 93,
      "chip": "ym2612"
    },
    {
      "channel": 1,
      "note": 71,
      "start": 14.9938,
      "duration": 0.0189,
      "velocity": 98,
      "chip": "ym2612"
    },
    {
      "channel": 1,
      "note": 57,
      "start": 15.1718,
      "duration": 0.0637,
      "velocity": 98,
      "chip": "ym2612"
    },
    {
      "channel": 4,
      "note": 83,
      "start": 15.1746,
      "duration": 0.0777,
      "velocity": 1,
      "chip": "ym2612"
    },
    {
      "channel": 0,
      "note": 86,
      "start": 15.1776,
      "duration": 0.7949,
      "velocity": 93,
      "chip": "ym2612"
    },
    {
      "channel": 3,
      "note": 90,
      "start": 15.1804,
      "duration": 0.7925,
      "velocity": 93,
      "chip": "ym2612"
    },
    {
      "channel": 2,
      "note": 83,
      "start": 15.1832,
      "duration": 0.7898,
      "velocity": 93,
      "chip": "ym2612"
    },
    {
      "channel": 1,
      "note": 59,
      "start": 15.2885,
      "duration": 0.0469,
      "velocity": 98,
      "chip": "ym2612"
    },
    {
      "channel": 4,
      "note": 90,
      "start": 15.2914,
      "duration": 0.1108,
      "velocity": 1,
      "chip": "ym2612"
    },
    {
      "channel": 1,
      "note": 62,
      "start": 15.422,
      "duration": 0.0635,
      "velocity": 98,
      "chip": "ym2612"
    },
    {
      "channel": 4,
      "note": 88,
      "start": 15.5555,
      "duration": 0.0468,
      "velocity": 1,
      "chip": "ym2612"
    },
    {
      "channel": 1,
      "note": 62,
      "start": 15.6557,
      "duration": 0.0857,
      "velocity": 98,
      "chip": "ym2612"
    },
    {
      "channel": 4,
      "note": 86,
      "start": 15.6756,
      "duration": 0.0491,
      "velocity": 1,
      "chip": "ym2612"
    },
    {
      "channel": 1,
      "note": 59,
      "start": 15.8976,
      "duration": 0.03,
      "velocity": 98,
      "chip": "ym2612"
    },
    {
      "channel": 4,
      "note": 88,
      "start": 15.9,
      "duration": 0.0562,
      "velocity": 1,
      "chip": "ym2612"
    },
    {
      "channel": 1,
      "note": 57,
      "start": 16.0789,
      "duration": 0.0168,
      "velocity": 98,
      "chip": "ym2612"
    },
    {
      "channel": 4,
      "note": 83,
      "start": 16.082,
      "duration": 0.1295,
      "velocity": 1,
      "chip": "ym2612"
    },
    {
      "channel": 1,
      "note": 59,
      "start": 16.1813,
      "duration": 0.3216,
      "velocity": 98,
      "chip": "ym2612"
    },
    {
      "channel": 1,
      "note": 71,
      "start": 16.5227,
      "duration": 0.0636,
      "velocity": 98,
      "chip": "ym2612"
    },
    {
      "channel": 0,
      "note": 95,
      "start": 16.5257,
      "duration": 0.0604,
      "velocity": 93,
      "chip": "ym2612"
    },
    {
      "channel": 3,
      "note": 86,
      "start": 16.5283,
      "duration": 0.0413,
      "velocity": 93,
      "chip": "ym2612"
    },
    {
      "channel": 2,
      "note": 90,
      "start": 16.5313,
      "duration": 0.0554,
      "velocity": 93,
      "chip": "ym2612"
    },
    {
      "channel": 0,
      "note": 86,
      "start": 16.8362,
      "duration": 0.0632,
      "velocity": 93,
      "chip": "ym2612"
    },
    {
      "channel": 3,
      "note": 95,
      "start": 16.8388,
      "duration": 0.0773,
      "velocity": 93,
      "chip": "ym2612"
    },
    {
      "channel": 2,
      "note": 90,
      "start": 16.8421,
      "duration": 0.0576,
      "velocity": 93,
      "chip": "ym2612"
    },
    {
      "channel": 1,
      "note": 57,
      "start": 16.9526,
      "duration": 0.0636,
      "velocity": 98,
      "chip": "ym2612"
    },
    {
      "channel": 4,
      "note": 83,
      "start": 16.9554,
      "duration": 0.061,
      "velocity": 1,
      "chip": "ym2612"
    },
    {
      "channel": 1,
      "note": 59,
      "start": 17.0861,
      "duration": 0.03,
      "velocity": 98,
      "chip": "ym2612"
    },
    {
      "channel": 4,
      "note": 90,
      "start": 17.089,
      "duration": 0.1105,
      "velocity": 1,
      "chip": "ym2612"
    },
    {
      "channel": 1,
      "note": 64,
      "start": 17.2026,
      "duration": 0.0636,
      "velocity": 98,
      "chip": "ym2612"
    },
    {
      "channel": 0,
      "note": 85,
      "start": 17.2057,
      "duration": 0.0438,
      "velocity": 93,
      "chip": "ym2612"
    },
    {
      "channel": 3,
      "note": 93,
      "start": 17.2083,
      "duration": 0.058,
      "velocity": 93,
      "chip": "ym2612"
    },
    {
      "channel": 2,
      "note": 88,
      "start": 17.211,
      "duration": 0.0555,
      "velocity": 93,
      "chip": "ym2612"
    },
    {
      "channel": 4,
      "note": 88,
      "start": 17.3361,
      "duration": 0.0634,
      "velocity": 1,
      "chip": "ym2612"
    },
    {
      "channel": 1,
      "note": 62,
      "start": 17.4728,
      "duration": 0.0494,
      "velocity": 98,
      "chip": "ym2612"
    },
    {
      "channel": 4,
      "note": 86,
      "start": 17.4754,
      "duration": 0.0635,
      "velocity": 1,
      "chip": "ym2612"
    },
    {
      "channel": 0,
      "note": 93,
      "start": 17.559,
      "duration": 0.1297,
      "velocity": 93,
      "chip": "ym2612"
    },
    {
      "channel": 3,
      "note": 88,
      "start": 17.5617,
      "duration": 0.0772,
      "velocity": 93,
      "chip": "ym2612"
    },
    {
      "channel": 2,
      "note": 85,
      "start": 17.5648,
      "duration": 0.0743,
      "velocity": 93,
      "chip": "ym2612"
    },
    {
      "channel": 1,
      "note": 61,
      "start": 17.6953,
      "duration": 0.0299,
      "velocity": 98,
      "chip": "ym2612"
    },
    {
      "channel": 4,
      "note": 88,
      "start": 17.6976,
      "duration": 0.0277,
      "velocity": 1,
      "chip": "ym2612"
    },
    {
      "channel": 1,
      "note": 57,
      "start": 17.8401,
      "duration": 0.0496,
      "velocity": 98,
      "chip": "ym2612"
    },
    {
      "channel": 4,
      "note": 93,
      "start": 17.8772,
      "duration": 0.1495,
      "velocity": 1,
      "chip": "ym2612"
    },
    {
      "channel": 0,
      "note": 85,
      "start": 17.8798,
      "duration": 0.0161,
      "velocity": 93,
      "chip": "ym2612"
    },
    {
      "channel": 3,
      "note": 93,
      "start": 17.8823,
      "duration": 0.0137,
      "velocity": 93,
      "chip": "ym2612"
    },
    {
      "channel": 2,
      "note": 88,
      "start": 17.885,
      "duration": 0.0111,
      "velocity": 93,
      "chip": "ym2612"
    },
    {
      "channel": 1,
      "note": 59,
      "start": 17.9632,
      "duration": 0.2509,
      "velocity": 98,
      "chip": "ym2612"
    },
    {
      "channel": 0,
      "note": 81,
      "start": 18.1,
      "duration": 0.2307,
      "velocity": 93,
      "chip": "ym2612"
    },
    {
      "channel": 3,
      "note": 88,
      "start": 18.1021,
      "duration": 0.2288,
      "velocity": 93,
      "chip": "ym2612"
    },
    {
      "channel": 2,
      "note": 85,
      "start": 18.105,
      "duration": 0.226,
      "velocity": 93,
      "chip": "ym2612"
    },
    {
      "channel": 1,
      "note": 71,
      "start": 18.3175,
      "duration": 0.0631,
      "velocity": 98,
      "chip": "ym2612"
    },
    {
      "channel": 0,
      "note": 90,
      "start": 18.4341,
      "duration": 0.0465,
      "velocity": 93,
      "chip": "ym2612"
    },
    {
      "channel": 3,
      "note": 83,
      "start": 18.437,
      "duration": 0.0438,
      "velocity": 93,
      "chip": "ym2612"
    },
    {
      "channel": 2,
      "note": 86,
      "start": 18.4397,
      "duration": 0.0413,
      "velocity": 93,
      "chip": "ym2612"
    },
    {
      "channel": 1,
      "note": 57,
      "start": 18.7498,
      "duration": 0.0636,
      "velocity": 98,
      "chip": "ym2612"
    },
    {
      "channel": 4,
      "note": 86,
      "start": 18.7526,
      "duration": 0.0776,
      "velocity": 1,
      "chip": "ym2612"
    },
    {
      "channel": 0,
      "note": 83,
      "start": 18.7555,
      "duration": 1.1587,
      "velocity": 93,
      "chip": "ym2612"
    },
    {
      "channel": 3,
      "note": 90,
      "start": 18.7581,
      "duration": 1.1397,
      "velocity": 93,
      "chip": "ym2612"
    },
    {
      "channel": 2,
      "note": 86,
      "start": 18.761,
      "duration": 1.1371,
      "velocity": 93,
      "chip": "ym2612"
    },
    {
      "channel": 1,
      "note": 59,
      "start": 18.8665,
      "duration": 0.0469,
      "velocity": 98,
      "chip": "ym2612"
    },
    {
      "channel": 4,
      "note": 88,
      "start": 18.8691,
      "duration": 0.0611,
      "velocity": 1,
      "chip": "ym2612"
    },
    {
      "channel": 1,
      "note": 62,
      "start": 18.9999,
      "duration": 0.0634,
      "velocity": 98,
      "chip": "ym2612"
    },
    {
      "channel": 4,
      "note": 90,
      "start": 19.0026,
      "duration": 0.0776,
      "velocity": 1,
      "chip": "ym2612"
    },
    {
      "channel": 4,
      "note": 88,
      "start": 19.1166,
      "duration": 0.0969,
      "velocity": 1,
      "chip": "ym2612"
    },
    {
      "channel": 1,
      "note": 62,
      "start": 19.2531,
      "duration": 0.0492,
      "velocity": 98,
      "chip": "ym2612"
    },
    {
      "channel": 4,
      "note": 86,
      "start": 19.3557,
      "duration": 0.0467,
      "velocity": 1,
      "chip": "ym2612"
    },
    {
      "channel": 1,
      "note": 59,
      "start": 19.4753,
      "duration": 0.0251,
      "velocity": 98,
      "chip": "ym2612"
    },
    {
      "channel": 4,
      "note": 88,
      "start": 19.4781,
      "duration": 0.0278,
      "velocity": 1,
      "chip": "ym2612"
    },
    {
      "channel": 1,
      "note": 57,
      "start": 19.6573,
      "duration": 0.0168,
      "velocity": 98,
      "chip": "ym2612"
    },
    {
      "channel": 4,
      "note": 83,
      "start": 19.6598,
      "duration": 0.1301,
      "velocity": 1,
      "chip": "ym2612"
    },
    {
      "channel": 1,
      "note": 59,
      "start": 19.7767,
      "duration": 0.2545,
      "velocity": 98,
      "chip": "ym2612"
    },
    {
      "channel": 1,
      "note": 71,
      "start": 20.1009,
      "duration": 0.0636,
      "velocity": 98,
      "chip": "ym2612"
    },
    {
      "channel": 0,
      "note": 88,
      "start": 20.1039,
      "duration": 0.0438,
      "velocity": 93,
      "chip": "ym2612"
    },
    {
      "channel": 3,
      "note": 92,
      "start": 20.1064,
      "duration": 0.0415,
      "velocity": 93,
      "chip": "ym2612"
    },
    {
      "channel": 2,
      "note": 83,
      "start": 20.1095,
      "duration": 0.0386,
      "velocity": 93,
      "chip": "ym2612"
    },
    {
      "channel": 0,
      "note": 88,
      "start": 20.4142,
      "duration": 0.0628,
      "velocity": 93,
      "chip": "ym2612"
    },
    {
      "channel": 3,
      "note": 92,
      "start": 20.4166,
      "duration": 0.0607,
      "velocity": 93,
      "chip": "ym2612"
    },
    {
      "channel": 2,
      "note": 83,
      "start": 20.4194,
      "duration": 0.0581,
      "velocity": 93,
      "chip": "ym2612"
    },
    {
      "channel": 1,
      "note": 57,
      "start": 20.5304,
      "duration": 0.0469,
      "velocity": 98,
      "chip": "ym2612"
    },
    {
      "channel": 4,
      "note": 90,
      "start": 20.5332,
      "duration": 0.0608,
      "velocity": 1,
      "chip": "ym2612"
    },
    {
      "channel": 1,
      "note": 59,
      "start": 20.6637,
      "duration": 0.0637,
      "velocity": 98,
      "chip": "ym2612"
    },
    {
      "channel": 4,
      "note": 93,
      "start": 20.6664,
      "duration": 0.0776,
      "velocity": 1,
      "chip": "ym2612"
    },
    {
      "channel": 1,
      "note": 62,
      "start": 20.7839,
      "duration": 0.2166,
      "velocity": 98,
      "chip": "ym2612"
    },
    {
      "channel": 0,
      "note": 85,
      "start": 20.7866,
      "duration": 0.0303,
      "velocity": 93,
      "chip": "ym2612"
    },
    {
      "channel": 3,
      "note": 88,
      "start": 20.7893,
      "duration": 0.0779,
      "velocity": 93,
      "chip": "ym2612"
    },
    {
      "channel": 2,
      "note": 93,
      "start": 20.7921,
      "duration": 0.0419,
      "velocity": 93,
      "chip": "ym2612"
    },
    {
      "channel": 4,
      "note": 90,
      "start": 20.8872,
      "duration": 0.03,
      "velocity": 1,
      "chip": "ym2612"
    },
    {
      "channel": 4,
      "note": 88,
      "start": 21.0039,
      "duration": 0.0966,
      "velocity": 1,
      "chip": "ym2612"
    },
    {
      "channel": 1,
      "note": 64,
      "start": 21.1403,
      "duration": 0.1223,
      "velocity": 98,
      "chip": "ym2612"
    },
    {
      "channel": 0,
      "note": 92,
      "start": 21.1432,
      "duration": 0.019,
      "velocity": 93,
      "chip": "ym2612"
    },
    {
      "channel": 3,
      "note": 88,
      "start": 21.1459,
      "duration": 0.0215,
      "velocity": 93,
      "chip": "ym2612"
    },
    {
      "channel": 2,
      "note": 83,
      "start": 21.1484,
      "duration": 0.0191,
      "velocity": 93,
      "chip": "ym2612"
    },
    {
      "channel": 4,
      "note": 90,
      "start": 21.2055,
      "duration": 0.0333,
      "velocity": 1,
      "chip": "ym2612"
    },
    {
      "channel": 1,
      "note": 66,
      "start": 21.3005,
      "duration": 0.0479,
      "velocity": 98,
      "chip": "ym2612"
    },
    {
      "channel": 4,
      "note": 95,
      "start": 21.3034,
      "duration": 0.0452,
      "velocity": 1,
      "chip": "ym2612"
    },
    {
      "channel": 0,
      "note": 81,
      "start": 21.306,
      "duration": 0.0423,
      "velocity": 93,
      "chip": "ym2612"
    },
    {
      "channel": 3,
      "note": 88,
      "start": 21.3085,
      "duration": 0.028,
      "velocity": 93,
      "chip": "ym2612"
    },
    {
      "channel": 2,
      "note": 85,
      "start": 21.3125,
      "duration": 0.031,
      "velocity": 93,
      "chip": "ym2612"
    },
    {
      "channel": 0,
      "note": 83,
      "start": 21.6201,
      "duration": 0.0798,
      "velocity": 93,
      "chip": "ym2612"
    },
    {
      "channel": 3,
      "note": 76,
      "start": 21.623,
      "duration": 0.0435,
      "velocity": 93,
      "chip": "ym2612"
    },
    {
      "channel": 2,
      "note": 80,
      "start": 21.6258,
      "duration": 0.041,
      "velocity": 93,
      "chip": "ym2612"
    },
    {
      "channel": 1,
      "note": 66,
      "start": 21.7697,
      "duration": 0.0468,
      "velocity": 98,
      "chip": "ym2612"
    },
    {
      "channel": 1,
      "note": 69,
      "start": 21.8729,
      "duration": 0.1581,
      "velocity": 98,
      "chip": "ym2612"
    },
    {
      "channel": 0,
      "note": 80,
      "start": 21.9178,
      "duration": 0.063,
      "velocity": 93,
      "chip": "ym2612"
    },
    {
      "channel": 3,
      "note": 83,
      "start": 21.9202,
      "duration": 0.061,
      "velocity": 93,
      "chip": "ym2612"
    },
    {
      "channel": 2,
      "note": 76,
      "start": 21.9229,
      "duration": 0.0584,
      "velocity": 93,
      "chip": "ym2612"
    },
    {
      "channel": 1,
      "note": 73,
      "start": 22.0509,
      "duration": 0.0968,
      "velocity": 98,
      "chip": "ym2612"
    },
    {
      "channel": 0,
      "note": 85,
      "start": 22.3012,
      "duration": 0.6834,
      "velocity": 93,
      "chip": "ym2612"
    },
    {
      "channel": 3,
      "note": 81,
      "start": 22.3037,
      "duration": 0.7176,
      "velocity": 93,
      "chip": "ym2612"
    },
    {
      "channel": 2,
      "note": 76,
      "start": 22.3065,
      "duration": 0.7151,
      "velocity": 93,
      "chip": "ym2612"
    },
    {
      "channel": 1,
      "note": 71,
      "start": 23.1445,
      "duration": 0.1332,
      "velocity": 98,
      "chip": "ym2612"
    },
    {
      "channel": 0,
      "note": 80,
      "start": 23.1477,
      "duration": 0.0299,
      "velocity": 93,
      "chip": "ym2612"
    },
    {
      "channel": 3,
      "note": 83,
      "start": 23.1502,
      "duration": 0.0275,
      "velocity": 93,
      "chip": "ym2612"
    },
    {
      "channel": 2,
      "note": 76,
      "start": 23.1529,
      "duration": 0.0251,
      "velocity": 93,
      "chip": "ym2612"
    },
    {
      "channel": 1,
      "note": 68,
      "start": 23.4972,
      "duration": 0.2104,
      "velocity": 98,
      "chip": "ym2612"
    },
    {
      "channel": 0,
      "note": 83,
      "start": 23.5002,
      "duration": 0.0441,
      "velocity": 93,
      "chip": "ym2612"
    },
    {
      "channel": 3,
      "note": 76,
      "start": 23.5027,
      "duration": 0.075,
      "velocity": 93,
      "chip": "ym2612"
    },
    {
      "channel": 2,
      "note": 80,
      "start": 23.5054,
      "duration": 0.0724,
      "velocity": 93,
      "chip": "ym2612"
    },
    {
      "channel": 1,
      "note": 64,
      "start": 23.7945,
      "duration": 0.213,
      "velocity": 98,
      "chip": "ym2612"
    },
    {
      "channel": 0,
      "note": 83,
      "start": 23.7975,
      "duration": 0.9565,
      "velocity": 93,
      "chip": "ym2612"
    },
    {
      "channel": 3,
      "note": 76,
      "start": 23.8005,
      "duration": 0.9471,
      "velocity": 93,
      "chip": "ym2612"
    },
    {
      "channel": 2,
      "note": 80,
      "start": 23.8034,
      "duration": 0.9508,
      "velocity": 93,
      "chip": "ym2612"
    },
    {
      "channel": 1,
      "note": 61,
      "start": 24.4307,
      "duration": 0.2326,
      "velocity": 98,
      "chip": "ym2612"
    },
    {
      "channel": 1,
      "note": 64,
      "start": 24.72,
      "duration": 0.0276,
      "velocity": 98,
      "chip": "ym2612"
    },
    {
      "channel": 1,
      "note": 54,
      "start": 24.8152,
      "duration": 0.1438,
      "velocity": 98,
      "chip": "ym2612"
    },
    {
      "channel": 0,
      "note": 83,
      "start": 24.818,
      "duration": 0.2241,
      "velocity": 93,
      "chip": "ym2612"
    },
    {
      "channel": 3,
      "note": 80,
      "start": 24.8203,
      "duration": 0.2222,
      "velocity": 93,
      "chip": "ym2612"
    },
    {
      "channel": 2,
      "note": 76,
      "start": 24.8228,
      "duration": 0.2199,
      "velocity": 93,
      "chip": "ym2612"
    },
    {
      "channel": 1,
      "note": 66,
      "start": 25.0289,
      "duration": 0.0469,
      "velocity": 98,
      "chip": "ym2612"
    },
    {
      "channel": 4,
      "note": 78,
      "start": 25.0319,
      "duration": 0.0773,
      "velocity": 93,
      "chip": "ym2612"
    },
    {
      "channel": 4,
      "note": 90,
      "start": 25.146,
      "duration": 0.0633,
      "velocity": 93,
      "chip": "ym2612"
    },
    {
      "channel": 5,
      "note": 85,
      "start": 25.1487,
      "duration": 0.0607,
      "velocity": 93,
      "chip": "ym2612"
    },
    {
      "channel": 0,
      "note": 76,
      "start": 25.1515,
      "duration": 0.0573,
      "velocity": 93,
      "chip": "ym2612"
    },
    {
      "channel": 3,
      "note": 81,
      "start": 25.1541,
      "duration": 0.055,
      "velocity": 93,
      "chip": "ym2612"
    },
    {
      "channel": 4,
      "note": 78,
      "start": 25.3293,
      "duration": 0.0798,
      "velocity": 93,
      "chip": "ym2612"
    },
    {
      "channel": 1,
      "note": 52,
      "start": 25.4621,
      "duration": 0.0637,
      "velocity": 98,
      "chip": "ym2612"
    },
    {
      "channel": 4,
      "note": 88,
      "start": 25.4652,
      "duration": 0.0607,
      "velocity": 93,
      "chip": "ym2612"
    },
    {
      "channel": 2,
      "note": 83,
      "start": 25.4684,
      "duration": 0.0578,
      "velocity": 93,
      "chip": "ym2612"
    },
    {
      "channel": 0,
      "note": 85,
      "start": 25.4715,
      "duration": 1.0441,
      "velocity": 93,
      "chip": "ym2612"
    },
    {
      "channel": 3,
      "note": 81,
      "start": 25.4739,
      "duration": 1.0418,
      "velocity": 93,
      "chip": "ym2612"
    },
    {
      "channel": 5,
      "note": 76,
      "start": 25.477,
      "duration": 0.4829,
      "velocity": 93,
      "chip": "ym2612"
    },
    {
      "channel": 1,
      "note": 54,
      "start": 25.579,
      "duration": 0.0466,
      "velocity": 98,
      "chip": "ym2612"
    },
    {
      "channel": 1,
      "note": 57,
      "start": 25.7122,
      "duration": 0.0634,
      "velocity": 98,
      "chip": "ym2612"
    },
    {
      "channel": 4,
      "note": 78,
      "start": 25.8293,
      "duration": 0.0798,
      "velocity": 93,
      "chip": "ym2612"
    },
    {
      "channel": 1,
      "note": 57,
      "start": 25.9654,
      "duration": 0.0476,
      "velocity": 98,
      "chip": "ym2612"
    },
    {
      "channel": 4,
      "note": 90,
      "start": 25.9683,
      "duration": 0.0282,
      "velocity": 93,
      "chip": "ym2612"
    },
    {
      "channel": 2,
      "note": 85,
      "start": 25.9712,
      "duration": 0.0254,
      "velocity": 93,
      "chip": "ym2612"
    },
    {
      "channel": 1,
      "note": 54,
      "start": 26.1859,
      "duration": 0.025,
      "velocity": 98,
      "chip": "ym2612"
    },
    {
      "channel": 4,
      "note": 78,
      "start": 26.1884,
      "duration": 0.028,
      "velocity": 93,
      "chip": "ym2612"
    },
    {
      "channel": 1,
      "note": 52,
      "start": 26.3676,
      "duration": 0.0181,
      "velocity": 98,
      "chip": "ym2612"
    },
    {
      "channel": 4,
      "note": 81,
      "start": 26.3703,
      "duration": 0.0286,
      "velocity": 93,
      "chip": "ym2612"
    },
    {
      "channel": 2,
      "note": 85,
      "start": 26.3732,
      "duration": 0.026,
      "velocity": 93,
      "chip": "ym2612"
    },
    {
      "channel": 1,
      "note": 54,
      "start": 26.4854,
      "duration": 0.2347,
      "velocity": 98,
      "chip": "ym2612"
    },
    {
      "channel": 0,
      "note": 81,
      "start": 26.5895,
      "duration": 0.0305,
      "velocity": 93,
      "chip": "ym2612"
    },
    {
      "channel": 3,
      "note": 76,
      "start": 26.5918,
      "duration": 0.0284,
      "velocity": 93,
      "chip": "ym2612"
    },
    {
      "channel": 4,
      "note": 85,
      "start": 26.5947,
      "duration": 0.0257,
      "velocity": 93,
      "chip": "ym2612"
    },
    {
      "channel": 1,
      "note": 66,
      "start": 26.807,
      "duration": 0.0631,
      "velocity": 98,
      "chip": "ym2612"
    },
    {
      "channel": 2,
      "note": 78,
      "start": 26.8106,
      "duration": 0.0764,
      "velocity": 93,
      "chip": "ym2612"
    },
    {
      "channel": 2,
      "note": 85,
      "start": 26.9405,
      "duration": 0.0799,
      "velocity": 93,
      "chip": "ym2612"
    },
    {
      "channel": 5,
      "note": 81,
      "start": 26.9432,
      "duration": 0.077,
      "velocity": 93,
      "chip": "ym2612"
    },
    {
      "channel": 2,
      "note": 78,
      "start": 27.1232,
      "duration": 0.08,
      "velocity": 93,
      "chip": "ym2612"
    },
    {
      "channel": 1,
      "note": 52,
      "start": 27.2395,
      "duration": 0.0468,
      "velocity": 98,
      "chip": "ym2612"
    },
    {
      "channel": 2,
      "note": 80,
      "start": 27.2428,
      "duration": 0.0605,
      "velocity": 93,
      "chip": "ym2612"
    },
    {
      "channel": 0,
      "note": 83,
      "start": 27.2455,
      "duration": 0.0574,
      "velocity": 93,
      "chip": "ym2612"
    },
    {
      "channel": 1,
      "note": 54,
      "start": 27.3726,
      "duration": 0.0637,
      "velocity": 98,
      "chip": "ym2612"
    },
    {
      "channel": 1,
      "note": 57,
      "start": 27.4928,
      "duration": 0.175,
      "velocity": 98,
      "chip": "ym2612"
    },
    {
      "channel": 0,
      "note": 78,
      "start": 27.555,
      "duration": 0.0795,
      "velocity": 93,
      "chip": "ym2612"
    },
    {
      "channel": 3,
      "note": 76,
      "start": 27.5578,
      "duration": 0.0268,
      "velocity": 93,
      "chip": "ym2612"
    },
    {
      "channel": 4,
      "note": 81,
      "start": 27.5603,
      "duration": 0.0244,
      "velocity": 93,
      "chip": "ym2612"
    },
    {
      "channel": 2,
      "note": 85,
      "start": 27.5635,
      "duration": 0.0215,
      "velocity": 93,
      "chip": "ym2612"
    },
    {
      "channel": 0,
      "note": 85,
      "start": 27.6714,
      "duration": 0.0462,
      "velocity": 93,
      "chip": "ym2612"
    },
    {
      "channel": 5,
      "note": 81,
      "start": 27.6741,
      "duration": 0.0439,
      "velocity": 93,
      "chip": "ym2612"
    },
    {
      "channel": 1,
      "note": 59,
      "start": 27.8076,
      "duration": 0.1071,
      "velocity": 98,
      "chip": "ym2612"
    },
    {
      "channel": 0,
      "note": 88,
      "start": 27.855,
      "duration": 0.01,
      "velocity": 93,
      "chip": "ym2612"
    },
    {
      "channel": 3,
      "note": 83,
      "start": 27.8579,
      "duration": 0.0211,
      "velocity": 93,
      "chip": "ym2612"
    },
    {
      "channel": 4,
      "note": 81,
      "start": 27.8606,
      "duration": 0.0185,
      "velocity": 93,
      "chip": "ym2612"
    },
    {
      "channel": 2,
      "note": 76,
      "start": 27.8631,
      "duration": 0.0161,
      "velocity": 93,
      "chip": "ym2612"
    },
    {
      "channel": 0,
      "note": 85,
      "start": 27.8671,
      "duration": 0.0119,
      "velocity": 93,
      "chip": "ym2612"
    },
    {
      "channel": 1,
      "note": 61,
      "start": 27.9523,
      "duration": 0.0519,
      "velocity": 98,
      "chip": "ym2612"
    },
    {
      "channel": 1,
      "note": 56,
      "start": 28.0899,
      "duration": 0.3156,
      "velocity": 98,
      "chip": "ym2612"
    },
    {
      "channel": 1,
      "note": 68,
      "start": 28.5618,
      "duration": 0.0135,
      "velocity": 98,
      "chip": "ym2612"
    },
    {
      "channel": 1,
      "note": 54,
      "start": 28.74,
      "duration": 0.0469,
      "velocity": 98,
      "chip": "ym2612"
    },
    {
      "channel": 1,
      "note": 56,
      "start": 28.8565,
      "duration": 0.0471,
      "velocity": 98,
      "chip": "ym2612"
    },
    {
      "channel": 1,
      "note": 59,
      "start": 28.9939,
      "duration": 0.0324,
      "velocity": 98,
      "chip": "ym2612"
    },
    {
      "channel": 1,
      "note": 59,
      "start": 29.2161,
      "duration": 0.0661,
      "velocity": 98,
      "chip": "ym2612"
    },
    {
      "channel": 1,
      "note": 56,
      "start": 29.4384,
      "duration": 0.0288,
      "velocity": 98,
      "chip": "ym2612"
    },
    {
      "channel": 1,
      "note": 54,
      "start": 29.6163,
      "duration": 0.0299,
      "velocity": 98,
      "chip": "ym2612"
    },
    {
      "channel": 1,
      "note": 56,
      "start": 29.736,
      "duration": 0.3324,
      "velocity": 98,
      "chip": "ym2612"
    },
    {
      "channel": 1,
      "note": 68,
      "start": 30.0914,
      "duration": 0.0325,
      "velocity": 98,
      "chip": "ym2612"
    },
    {
      "channel": 1,
      "note": 54,
      "start": 30.4931,
      "duration": 0.0637,
      "velocity": 98,
      "chip": "ym2612"
    },
    {
      "channel": 1,
      "note": 56,
      "start": 30.6264,
      "duration": 0.0303,
      "velocity": 98,
      "chip": "ym2612"
    },
    {
      "channel": 1,
      "note": 61,
      "start": 30.7468,
      "duration": 0.0322,
      "velocity": 98,
      "chip": "ym2612"
    },
    {
      "channel": 1,
      "note": 59,
      "start": 30.9692,
      "duration": 0.0495,
      "velocity": 98,
      "chip": "ym2612"
    },
    {
      "channel": 1,
      "note": 58,
      "start": 31.1919,
      "duration": 0.0415,
      "velocity": 98,
      "chip": "ym2612"
    },
    {
      "channel": 1,
      "note": 54,
      "start": 31.3699,
      "duration": 0.0469,
      "velocity": 98,
      "chip": "ym2612"
    },
    {
      "channel": 1,
      "note": 56,
      "start": 31.5065,
      "duration": 0.3158,
      "velocity": 98,
      "chip": "ym2612"
    },
    {
      "channel": 1,
      "note": 68,
      "start": 31.8625,
      "duration": 0.016,
      "velocity": 98,
      "chip": "ym2612"
    },
    {
      "channel": 1,
      "note": 54,
      "start": 32.2646,
      "duration": 0.0469,
      "velocity": 98,
      "chip": "ym2612"
    },
    {
      "channel": 1,
      "note": 56,
      "start": 32.3812,
      "duration": 0.0469,
      "velocity": 98,
      "chip": "ym2612"
    },
    {
      "channel": 1,
      "note": 59,
      "start": 32.5185,
      "duration": 0.0157,
      "velocity": 98,
      "chip": "ym2612"
    },
    {
      "channel": 1,
      "note": 59,
      "start": 32.7404,
      "duration": 0.0494,
      "velocity": 98,
      "chip": "ym2612"
    },
    {
      "channel": 1,
      "note": 56,
      "start": 32.9632,
      "duration": 0.0234,
      "velocity": 98,
      "chip": "ym2612"
    },
    {
      "channel": 1,
      "note": 54,
      "start": 33.1405,
      "duration": 0.0302,
      "velocity": 98,
      "chip": "ym2612"
    },
    {
      "channel": 1,
      "note": 56,
      "start": 33.2603,
      "duration": 0.3325,
      "velocity": 98,
      "chip": "ym2612"
    },
    {
      "channel": 1,
      "note": 68,
      "start": 33.6158,
      "duration": 0.0325,
      "velocity": 98,
      "chip": "ym2612"
    },
    {
      "channel": 1,
      "note": 54,
      "start": 34.0179,
      "duration": 0.0466,
      "velocity": 98,
      "chip": "ym2612"
    },
    {
      "channel": 1,
      "note": 56,
      "start": 34.1508,
      "duration": 0.047,
      "velocity": 98,
      "chip": "ym2612"
    },
    {
      "channel": 1,
      "note": 59,
      "start": 34.271,
      "duration": 0.2159,
      "velocity": 98,
      "chip": "ym2612"
    },
    {
      "channel": 1,
      "note": 61,
      "start": 34.6264,
      "duration": 0.2084,
      "velocity": 98,
      "chip": "ym2612"
    },
    {
      "channel": 1,
      "note": 63,
      "start": 34.9246,
      "duration": 0.0749,
      "velocity": 98,
      "chip": "ym2612"
    },
    {
      "channel": 1,
      "note": 54,
      "start": 35.1061,
      "duration": 0.3325,
      "velocity": 98,
      "chip": "ym2612"
    },
    {
      "channel": 1,
      "note": 66,
      "start": 35.596,
      "duration": 0.0133,
      "velocity": 98,
      "chip": "ym2612"
    },
    {
      "channel": 1,
      "note": 52,
      "start": 35.7737,
      "duration": 0.047,
      "velocity": 98,
      "chip": "ym2612"
    },
    {
      "channel": 1,
      "note": 54,
      "start": 35.8903,
      "duration": 0.047,
      "velocity": 98,
      "chip": "ym2612"
    },
    {
      "channel": 1,
      "note": 57,
      "start": 36.0274,
      "duration": 0.0156,
      "velocity": 98,
      "chip": "ym2612"
    },
    {
      "channel": 1,
      "note": 57,
      "start": 36.2493,
      "duration": 0.0659,
      "velocity": 98,
      "chip": "ym2612"
    },
    {
      "channel": 1,
      "note": 54,
      "start": 36.4714,
      "duration": 0.0292,
      "velocity": 98,
      "chip": "ym2612"
    },
    {
      "channel": 1,
      "note": 52,
      "start": 36.6495,
      "duration": 0.0302,
      "velocity": 98,
      "chip": "ym2612"
    },
    {
      "channel": 1,
      "note": 54,
      "start": 36.7698,
      "duration": 0.3324,
      "velocity": 98,
      "chip": "ym2612"
    },
    {
      "channel": 1,
      "note": 66,
      "start": 37.1253,
      "duration": 0.0324,
      "velocity": 98,
      "chip": "ym2612"
    },
    {
      "channel": 1,
      "note": 52,
      "start": 37.5269,
      "duration": 0.0637,
      "velocity": 98,
      "chip": "ym2612"
    },
    {
      "channel": 1,
      "note": 54,
      "start": 37.6603,
      "duration": 0.0304,
      "velocity": 98,
      "chip": "ym2612"
    },
    {
      "channel": 1,
      "note": 59,
      "start": 37.7807,
      "duration": 0.0322,
      "velocity": 98,
      "chip": "ym2612"
    },
    {
      "channel": 1,
      "note": 57,
      "start": 38.003,
      "duration": 0.0494,
      "velocity": 98,
      "chip": "ym2612"
    },
    {
      "channel": 1,
      "note": 56,
      "start": 38.2256,
      "duration": 0.0417,
      "velocity": 98,
      "chip": "ym2612"
    },
    {
      "channel": 1,
      "note": 52,
      "start": 38.4042,
      "duration": 0.0464,
      "velocity": 98,
      "chip": "ym2612"
    },
    {
      "channel": 1,
      "note": 54,
      "start": 38.5405,
      "duration": 0.3159,
      "velocity": 98,
      "chip": "ym2612"
    },
    {
      "channel": 1,
      "note": 66,
      "start": 38.8798,
      "duration": 0.0324,
      "velocity": 98,
      "chip": "ym2612"
    },
    {
      "channel": 1,
      "note": 52,
      "start": 39.2983,
      "duration": 0.047,
      "velocity": 98,
      "chip": "ym2612"
    },
    {
      "channel": 1,
      "note": 54,
      "start": 39.4149,
      "duration": 0.047,
      "velocity": 98,
      "chip": "ym2612"
    },
    {
      "channel": 1,
      "note": 57,
      "start": 39.5519,
      "duration": 0.016,
      "velocity": 98,
      "chip": "ym2612"
    },
    {
      "channel": 1,
      "note": 57,
      "start": 39.7746,
      "duration": 0.049,
      "velocity": 98,
      "chip": "ym2612"
    },
    {
      "channel": 1,
      "note": 54,
      "start": 39.9969,
      "duration": 0.0238,
      "velocity": 98,
      "chip": "ym2612"
    },
    {
      "channel": 1,
      "note": 52,
      "start": 40.1746,
      "duration": 0.0302,
      "velocity": 98,
      "chip": "ym2612"
    },
    {
      "channel": 1,
      "note": 54,
      "start": 40.2945,
      "duration": 0.3325,
      "velocity": 98,
      "chip": "ym2612"
    },
    {
      "channel": 1,
      "note": 66,
      "start": 40.6504,
      "duration": 0.0324,
      "velocity": 98,
      "chip": "ym2612"
    },
    {
      "channel": 1,
      "note": 52,
      "start": 41.052,
      "duration": 0.0468,
      "velocity": 98,
      "chip": "ym2612"
    },
    {
      "channel": 1,
      "note": 54,
      "start": 41.1853,
      "duration": 0.0469,
      "velocity": 98,
      "chip": "ym2612"
    },
    {
      "channel": 1,
      "note": 57,
      "start": 41.3057,
      "duration": 0.2156,
      "velocity": 98,
      "chip": "ym2612"
    },
    {
      "channel": 1,
      "note": 59,
      "start": 41.6611,
      "duration": 0.2083,
      "velocity": 98,
      "chip": "ym2612"
    },
    {
      "channel": 1,
      "note": 61,
      "start": 41.9593,
      "duration": 0.0522,
      "velocity": 98,
      "chip": "ym2612"
    },
    {
      "channel": 3,
      "note": 80,
      "start": 42.2688,
      "duration": 0.0634,
      "velocity": 93,
      "chip": "ym2612"
    },
    {
      "channel": 0,
      "note": 76,
      "start": 42.2714,
      "duration": 0.0606,
      "velocity": 93,
      "chip": "ym2612"
    },
    {
      "channel": 4,
      "note": 83,
      "start": 42.2747,
      "duration": 0.0741,
      "velocity": 93,
      "chip": "ym2612"
    },
    {
      "channel": 1,
      "note": 54,
      "start": 42.4053,
      "duration": 0.0324,
      "velocity": 98,
      "chip": "ym2612"
    },
    {
      "channel": 1,
      "note": 57,
      "start": 42.4944,
      "duration": 0.1583,
      "velocity": 98,
      "chip": "ym2612"
    },
    {
      "channel": 0,
      "note": 80,
      "start": 42.5561,
      "duration": 0.0632,
      "velocity": 93,
      "chip": "ym2612"
    },
    {
      "channel": 3,
      "note": 83,
      "start": 42.5585,
      "duration": 0.061,
      "velocity": 93,
      "chip": "ym2612"
    },
    {
      "channel": 4,
      "note": 76,
      "start": 42.5612,
      "duration": 0.0585,
      "velocity": 93,
      "chip": "ym2612"
    },
    {
      "channel": 1,
      "note": 61,
      "start": 42.6762,
      "duration": 0.0824,
      "velocity": 98,
      "chip": "ym2612"
    },
    {
      "channel": 0,
      "note": 81,
      "start": 42.9121,
      "duration": 0.7964,
      "velocity": 93,
      "chip": "ym2612"
    },
    {
      "channel": 3,
      "note": 76,
      "start": 42.9145,
      "duration": 0.7941,
      "velocity": 93,
      "chip": "ym2612"
    },
    {
      "channel": 4,
      "note": 85,
      "start": 42.9173,
      "duration": 0.7581,
      "velocity": 93,
      "chip": "ym2612"
    },
    {
      "channel": 1,
      "note": 59,
      "start": 43.8484,
      "duration": 0.1312,
      "velocity": 98,
      "chip": "ym2612"
    },
    {
      "channel": 0,
      "note": 80,
      "start": 43.8514,
      "duration": 0.0282,
      "velocity": 93,
      "chip": "ym2612"
    },
    {
      "channel": 3,
      "note": 83,
      "start": 43.8539,
      "duration": 0.0258,
      "velocity": 93,
      "chip": "ym2612"
    },
    {
      "channel": 4,
      "note": 76,
      "start": 43.8564,
      "duration": 0.0234,
      "velocity": 93,
      "chip": "ym2612"
    },
    {
      "channel": 1,
      "note": 56,
      "start": 44.1865,
      "duration": 0.1995,
      "velocity": 98,
      "chip": "ym2612"
    },
    {
      "channel": 0,
      "note": 80,
      "start": 44.1891,
      "duration": 0.0473,
      "velocity": 93,
      "chip": "ym2612"
    },
    {
      "channel": 3,
      "note": 76,
      "start": 44.1916,
      "duration": 0.0449,
      "velocity": 93,
      "chip": "ym2612"
    },
    {
      "channel": 4,
      "note": 83,
      "start": 44.1944,
      "duration": 0.0255,
      "velocity": 93,
      "chip": "ym2612"
    },
    {
      "channel": 1,
      "note": 52,
      "start": 44.4758,
      "duration": 0.1812,
      "velocity": 98,
      "chip": "ym2612"
    },
    {
      "channel": 0,
      "note": 80,
      "start": 44.4786,
      "duration": 0.9029,
      "velocity": 93,
      "chip": "ym2612"
    },
    {
      "channel": 3,
      "note": 76,
      "start": 44.4816,
      "duration": 0.8947,
      "velocity": 93,
      "chip": "ym2612"
    },
    {
      "channel": 4,
      "note": 83,
      "start": 44.4843,
      "duration": 0.8975,
      "velocity": 93,
      "chip": "ym2612"
    },
    {
      "channel": 1,
      "note": 49,
      "start": 45.0804,
      "duration": 0.2322,
      "velocity": 98,
      "chip": "ym2612"
    },
    {
      "channel": 1,
      "note": 52,
      "start": 45.3522,
      "duration": 0.024,
      "velocity": 98,
      "chip": "ym2612"
    },
    {
      "channel": 1,
      "note": 59,
      "start": 45.5351,
      "duration": 0.1324,
      "velocity": 98,
      "chip": "ym2612"
    },
    {
      "channel": 0,
      "note": 76,
      "start": 45.5377,
      "duration": 0.0298,
      "velocity": 93,
      "chip": "ym2612"
    },
    {
      "channel": 3,
      "note": 83,
      "start": 45.5403,
      "duration": 0.0274,
      "velocity": 93,
      "chip": "ym2612"
    },
    {
      "channel": 4,
      "note": 80,
      "start": 45.5428,
      "duration": 0.025,
      "velocity": 93,
      "chip": "ym2612"
    },
    {
      "channel": 1,
      "note": 56,
      "start": 45.8872,
      "duration": 0.2101,
      "velocity": 98,
      "chip": "ym2612"
    },
    {
      "channel": 0,
      "note": 83,
      "start": 45.89,
      "duration": 0.0608,
      "velocity": 93,
      "chip": "ym2612"
    },
    {
      "channel": 3,
      "note": 80,
      "start": 45.8925,
      "duration": 0.075,
      "velocity": 93,
      "chip": "ym2612"
    },
    {
      "channel": 4,
      "note": 76,
      "start": 45.8955,
      "duration": 0.0722,
      "velocity": 93,
      "chip": "ym2612"
    },
    {
      "channel": 1,
      "note": 52,
      "start": 46.1838,
      "duration": 0.2135,
      "velocity": 98,
      "chip": "ym2612"
    },
    {
      "channel": 0,
      "note": 80,
      "start": 46.1868,
      "duration": 0.954,
      "velocity": 93,
      "chip": "ym2612"
    },
    {
      "channel": 3,
      "note": 76,
      "start": 46.1893,
      "duration": 0.9451,
      "velocity": 93,
      "chip": "ym2612"
    },
    {
      "channel": 4,
      "note": 83,
      "start": 46.1922,
      "duration": 0.9486,
      "velocity": 93,
      "chip": "ym2612"
    },
    {
      "channel": 1,
      "note": 49,
      "start": 46.8205,
      "duration": 0.2297,
      "velocity": 98,
      "chip": "ym2612"
    },
    {
      "channel": 1,
      "note": 52,
      "start": 47.1069,
      "duration": 0.0275,
      "velocity": 98,
      "chip": "ym2612"
    },
    {
      "channel": 1,
      "note": 54,
      "start": 47.202,
      "duration": 0.1442,
      "velocity": 98,
      "chip": "ym2612"
    },
    {
      "channel": 2,
      "note": 83,
      "start": 47.2049,
      "duration": 0.225,
      "velocity": 93,
      "chip": "ym2612"
    },
    {
      "channel": 3,
      "note": 80,
      "start": 47.2073,
      "duration": 0.2223,
      "velocity": 93,
      "chip": "ym2612"
    },
    {
      "channel": 0,
      "note": 76,
      "start": 47.21,
      "duration": 0.2194,
      "velocity": 93,
      "chip": "ym2612"
    },
    {
      "channel": 1,
      "note": 66,
      "start": 47.4163,
      "duration": 0.0632,
      "velocity": 98,
      "chip": "ym2612"
    },
    {
      "channel": 4,
      "note": 78,
      "start": 47.4194,
      "duration": 0.0769,
      "velocity": 93,
      "chip": "ym2612"
    },
    {
      "channel": 4,
      "note": 90,
      "start": 47.533,
      "duration": 0.0634,
      "velocity": 93,
      "chip": "ym2612"
    },
    {
      "channel": 5,
      "note": 85,
      "start": 47.5362,
      "duration": 0.0603,
      "velocity": 93,
      "chip": "ym2612"
    },
    {
      "channel": 0,
      "note": 76,
      "start": 47.5393,
      "duration": 0.0566,
      "velocity": 93,
      "chip": "ym2612"
    },
    {
      "channel": 3,
      "note": 81,
      "start": 47.5419,
      "duration": 0.0544,
      "velocity": 93,
      "chip": "ym2612"
    },
    {
      "channel": 4,
      "note": 78,
      "start": 47.716,
      "duration": 0.0798,
      "velocity": 93,
      "chip": "ym2612"
    },
    {
      "channel": 1,
      "note": 52,
      "start": 47.8489,
      "duration": 0.0637,
      "velocity": 98,
      "chip": "ym2612"
    },
    {
      "channel": 4,
      "note": 88,
      "start": 47.8519,
      "duration": 0.0608,
      "velocity": 93,
      "chip": "ym2612"
    },
    {
      "channel": 2,
      "note": 83,
      "start": 47.8548,
      "duration": 0.0581,
      "velocity": 93,
      "chip": "ym2612"
    },
    {
      "channel": 0,
      "note": 85,
      "start": 47.8575,
      "duration": 1.0192,
      "velocity": 93,
      "chip": "ym2612"
    },
    {
      "channel": 3,
      "note": 81,
      "start": 47.8599,
      "duration": 1.017,
      "velocity": 93,
      "chip": "ym2612"
    },
    {
      "channel": 5,
      "note": 76,
      "start": 47.8631,
      "duration": 0.234,
      "velocity": 93,
      "chip": "ym2612"
    },
    {
      "channel": 1,
      "note": 54,
      "start": 47.9655,
      "duration": 0.0471,
      "velocity": 98,
      "chip": "ym2612"
    },
    {
      "channel": 1,
      "note": 57,
      "start": 48.1027,
      "duration": 0.0322,
      "velocity": 98,
      "chip": "ym2612"
    },
    {
      "channel": 4,
      "note": 78,
      "start": 48.1885,
      "duration": 0.0966,
      "velocity": 93,
      "chip": "ym2612"
    },
    {
      "channel": 1,
      "note": 57,
      "start": 48.3245,
      "duration": 0.0481,
      "velocity": 98,
      "chip": "ym2612"
    },
    {
      "channel": 4,
      "note": 85,
      "start": 48.3275,
      "duration": 0.0287,
      "velocity": 93,
      "chip": "ym2612"
    },
    {
      "channel": 2,
      "note": 90,
      "start": 48.3307,
      "duration": 0.0256,
      "velocity": 93,
      "chip": "ym2612"
    },
    {
      "channel": 1,
      "note": 54,
      "start": 48.5459,
      "duration": 0.0253,
      "velocity": 98,
      "chip": "ym2612"
    },
    {
      "channel": 4,
      "note": 78,
      "start": 48.5486,
      "duration": 0.0279,
      "velocity": 93,
      "chip": "ym2612"
    },
    {
      "channel": 1,
      "note": 52,
      "start": 48.7242,
      "duration": 0.0468,
      "velocity": 98,
      "chip": "ym2612"
    },
    {
      "channel": 4,
      "note": 81,
      "start": 48.7273,
      "duration": 0.0605,
      "velocity": 93,
      "chip": "ym2612"
    },
    {
      "channel": 2,
      "note": 85,
      "start": 48.73,
      "duration": 0.0579,
      "velocity": 93,
      "chip": "ym2612"
    },
    {
      "channel": 1,
      "note": 54,
      "start": 48.8612,
      "duration": 0.3156,
      "velocity": 98,
      "chip": "ym2612"
    },
    {
      "channel": 0,
      "note": 85,
      "start": 48.9469,
      "duration": 0.0629,
      "velocity": 93,
      "chip": "ym2612"
    },
    {
      "channel": 3,
      "note": 81,
      "start": 48.9493,
      "duration": 0.0608,
      "velocity": 93,
      "chip": "ym2612"
    },
    {
      "channel": 4,
      "note": 76,
      "start": 48.9524,
      "duration": 0.0579,
      "velocity": 93,
      "chip": "ym2612"
    },
    {
      "channel": 1,
      "note": 66,
      "start": 49.1999,
      "duration": 0.0327,
      "velocity": 98,
      "chip": "ym2612"
    },
    {
      "channel": 2,
      "note": 78,
      "start": 49.2029,
      "duration": 0.0465,
      "velocity": 93,
      "chip": "ym2612"
    },
    {
      "channel": 2,
      "note": 85,
      "start": 49.3028,
      "duration": 0.08,
      "velocity": 93,
      "chip": "ym2612"
    },
    {
      "channel": 0,
      "note": 81,
      "start": 49.3056,
      "duration": 0.0767,
      "velocity": 93,
      "chip": "ym2612"
    },
    {
      "channel": 0,
      "note": 78,
      "start": 49.4825,
      "duration": 0.0794,
      "velocity": 93,
      "chip": "ym2612"
    },
    {
      "channel": 1,
      "note": 52,
      "start": 49.5987,
      "duration": 0.047,
      "velocity": 98,
      "chip": "ym2612"
    },
    {
      "channel": 0,
      "note": 83,
      "start": 49.6016,
      "duration": 0.0606,
      "velocity": 93,
      "chip": "ym2612"
    },
    {
      "channel": 2,
      "note": 80,
      "start": 49.6044,
      "duration": 0.0581,
      "velocity": 93,
      "chip": "ym2612"
    },
    {
      "channel": 1,
      "note": 54,
      "start": 49.7318,
      "duration": 0.0637,
      "velocity": 98,
      "chip": "ym2612"
    },
    {
      "channel": 1,
      "note": 57,
      "start": 49.8522,
      "duration": 0.175,
      "velocity": 98,
      "chip": "ym2612"
    },
    {
      "channel": 0,
      "note": 78,
      "start": 49.9139,
      "duration": 0.0798,
      "velocity": 93,
      "chip": "ym2612"
    },
    {
      "channel": 3,
      "note": 76,
      "start": 49.9168,
      "duration": 0.0271,
      "velocity": 93,
      "chip": "ym2612"
    },
    {
      "channel": 4,
      "note": 85,
      "start": 49.9192,
      "duration": 0.0248,
      "velocity": 93,
      "chip": "ym2612"
    },
    {
      "channel": 2,
      "note": 81,
      "start": 49.922,
      "duration": 0.0221,
      "velocity": 93,
      "chip": "ym2612"
    },
    {
      "channel": 0,
      "note": 85,
      "start": 50.0307,
      "duration": 0.0464,
      "velocity": 93,
      "chip": "ym2612"
    },
    {
      "channel": 5,
      "note": 81,
      "start": 50.0335,
      "duration": 0.0439,
      "velocity": 93,
      "chip": "ym2612"
    },
    {
      "channel": 1,
      "note": 59,
      "start": 50.1675,
      "duration": 0.1128,
      "velocity": 98,
      "chip": "ym2612"
    },
    {
      "channel": 0,
      "note": 88,
      "start": 50.2214,
      "duration": 0.0095,
      "velocity": 93,
      "chip": "ym2612"
    },
    {
      "channel": 3,
      "note": 83,
      "start": 50.2242,
      "duration": 0.0151,
      "velocity": 93,
      "chip": "ym2612"
    },
    {
      "channel": 4,
      "note": 81,
      "start": 50.2268,
      "duration": 0.0127,
      "velocity": 93,
      "chip": "ym2612"
    },
    {
      "channel": 2,
      "note": 76,
      "start": 50.2292,
      "duration": 0.0104,
      "velocity": 93,
      "chip": "ym2612"
    },
    {
      "channel": 0,
      "note": 85,
      "start": 50.2328,
      "duration": 0.0065,
      "velocity": 93,
      "chip": "ym2612"
    },
    {
      "channel": 1,
      "note": 61,
      "start": 50.3185,
      "duration": 0.0454,
      "velocity": 98,
      "chip": "ym2612"
    },
    {
      "channel": 0,
      "note": 80,
      "start": 50.4511,
      "duration": 0.2365,
      "velocity": 93,
      "chip": "ym2612"
    },
    {
      "channel": 4,
      "note": 83,
      "start": 50.4537,
      "duration": 0.2173,
      "velocity": 93,
      "chip": "ym2612"
    },
    {
      "channel": 2,
      "note": 76,
      "start": 50.4566,
      "duration": 0.2312,
      "velocity": 93,
      "chip": "ym2612"
    },
    {
      "channel": 1,
      "note": 54,
      "start": 50.4649,
      "duration": 8.2475,
      "velocity": 98,
      "chip": "ym2612"
    },
    {
      "channel": 3,
      "note": 78,
      "start": 50.6577,
      "duration": 0.0798,
      "velocity": 93,
      "chip": "ym2612"
    },
    {
      "channel": 3,
      "note": 85,
      "start": 50.7745,
      "duration": 0.0632,
      "velocity": 93,
      "chip": "ym2612"
    },
    {
      "channel": 5,
      "note": 90,
      "start": 50.7776,
      "duration": 0.0603,
      "velocity": 93,
      "chip": "ym2612"
    },
    {
      "channel": 0,
      "note": 81,
      "start": 50.7808,
      "duration": 0.0567,
      "velocity": 93,
      "chip": "ym2612"
    },
    {
      "channel": 4,
      "note": 76,
      "start": 50.7834,
      "duration": 0.0377,
      "velocity": 93,
      "chip": "ym2612"
    },
    {
      "channel": 2,
      "note": 85,
      "start": 50.7862,
      "duration": 0.035,
      "velocity": 93,
      "chip": "ym2612"
    }
  ]
}