{
  "track_name": "07 - Enemy Cruiseship ''Glacier''",
  "duration_sec": 90.12,
  "sample_rate": 44100,
  "note_count": 1441,
  "unique_pitches": 42,
  "pitch_range": 55,
  "avg_note_duration": 0.1871,
  "reconstruction_stats": {
    "notes_reconstructed": 1441,
    "keyon_events": 1441,
    "keyoff_events": 1438,
    "orphan_keyons": 3,
    "unique_pitches": 42,
    "pitch_range": 55,
    "avg_duration_sec": 0.1871
  },
  "metadata": {
    "source": "S\\Sol-Deace\\07 - Enemy Cruiseship ''Glacier''.vgz"
  },
  "notes": [
    {
      "channel": 3,
      "note": 36,
      "start": 0.2037,
      "duration": 1.0095,
      "velocity": 108,
      "chip": "ym2612"
    },
    {
      "channel": 1,
      "note": 79,
      "start": 0.2358,
      "duration": 0.0176,
      "velocity": 97,
      "chip": "ym2612"
    },
    {
      "channel": 2,
      "note": 82,
      "start": 0.2381,
      "duration": 0.0154,
      "velocity": 97,
      "chip": "ym2612"
    },
    {
      "channel": 4,
      "note": 75,
      "start": 0.2392,
      "duration": 0.0145,
      "velocity": 97,
      "chip": "ym2612"
    },
    {
      "channel": 1,
      "note": 79,
      "start": 0.3801,
      "duration": 0.108,
      "velocity": 97,
      "chip": "ym2612"
    },
    {
      "channel": 2,
      "note": 82,
      "start": 0.3806,
      "duration": 0.1076,
      "velocity": 97,
      "chip": "ym2612"
    },
    {
      "channel": 4,
      "note": 75,
      "start": 0.3813,
      "duration": 0.1072,
      "velocity": 97,
      "chip": "ym2612"
    },
    {
      "channel": 1,
      "note": 79,
      "start": 0.5968,
      "duration": 0.6161,
      "velocity": 97,
      "chip": "ym2612"
    },
    {
      "channel": 2,
      "note": 82,
      "start": 0.5973,
      "duration": 0.6157,
      "velocity": 97,
      "chip": "ym2612"
    },
    {
      "channel": 4,
      "note": 75,
      "start": 0.5979,
      "duration": 0.6153,
      "velocity": 97,
      "chip": "ym2612"
    },
    {
      "channel": 3,
      "note": 36,
      "start": 1.2173,
      "duration": 0.2683,
      "velocity": 108,
      "chip": "ym2612"
    },
    {
      "channel": 1,
      "note": 79,
      "start": 1.2486,
      "duration": 0.0193,
      "velocity": 97,
      "chip": "ym2612"
    },
    {
      "channel": 2,
      "note": 81,
      "start": 1.2491,
      "duration": 0.0189,
      "velocity": 97,
      "chip": "ym2612"
    },
    {
      "channel": 4,
      "note": 75,
      "start": 1.2497,
      "duration": 0.0186,
      "velocity": 97,
      "chip": "ym2612"
    },
    {
      "channel": 1,
      "note": 79,
      "start": 1.3001,
      "duration": 0.0192,
      "velocity": 97,
      "chip": "ym2612"
    },
    {
      "channel": 2,
      "note": 81,
      "start": 1.3006,
      "duration": 0.0188,
      "velocity": 97,
      "chip": "ym2612"
    },
    {
      "channel": 4,
      "note": 75,
      "start": 1.3012,
      "duration": 0.0184,
      "velocity": 97,
      "chip": "ym2612"
    },
    {
      "channel": 1,
      "note": 79,
      "start": 1.3346,
      "duration": 0.1507,
      "velocity": 97,
      "chip": "ym2612"
    },
    {
      "channel": 2,
      "note": 81,
      "start": 1.3351,
      "duration": 0.1503,
      "velocity": 97,
      "chip": "ym2612"
    },
    {
      "channel": 4,
      "note": 75,
      "start": 1.3357,
      "duration": 0.15,
      "velocity": 97,
      "chip": "ym2612"
    },
    {
      "channel": 3,
      "note": 36,
      "start": 1.4906,
      "duration": 0.2715,
      "velocity": 108,
      "chip": "ym2612"
    },
    {
      "channel": 1,
      "note": 79,
      "start": 1.5241,
      "duration": 0.0193,
      "velocity": 97,
      "chip": "ym2612"
    },
    {
      "channel": 2,
      "note": 82,
      "start": 1.5259,
      "duration": 0.0176,
      "velocity": 97,
      "chip": "ym2612"
    },
    {
      "channel": 4,
      "note": 75,
      "start": 1.5265,
      "duration": 0.0171,
      "velocity": 97,
      "chip": "ym2612"
    },
    {
      "channel": 1,
      "note": 79,
      "start": 1.5759,
      "duration": 0.0193,
      "velocity": 97,
      "chip": "ym2612"
    },
    {
      "channel": 2,
      "note": 82,
      "start": 1.5764,
      "duration": 0.0189,
      "velocity": 97,
      "chip": "ym2612"
    },
    {
      "channel": 4,
      "note": 75,
      "start": 1.577,
      "duration": 0.0185,
      "velocity": 97,
      "chip": "ym2612"
    },
    {
      "channel": 1,
      "note": 79,
      "start": 1.6109,
      "duration": 0.1509,
      "velocity": 97,
      "chip": "ym2612"
    },
    {
      "channel": 2,
      "note": 82,
      "start": 1.6114,
      "duration": 0.1505,
      "velocity": 97,
      "chip": "ym2612"
    },
    {
      "channel": 4,
      "note": 75,
      "start": 1.612,
      "duration": 0.1502,
      "velocity": 97,
      "chip": "ym2612"
    },
    {
      "channel": 3,
      "note": 36,
      "start": 1.7658,
      "duration": 0.132,
      "velocity": 108,
      "chip": "ym2612"
    },
    {
      "channel": 1,
      "note": 79,
      "start": 1.797,
      "duration": 0.0193,
      "velocity": 97,
      "chip": "ym2612"
    },
    {
      "channel": 2,
      "note": 81,
      "start": 1.7975,
      "duration": 0.0189,
      "velocity": 97,
      "chip": "ym2612"
    },
    {
      "channel": 4,
      "note": 75,
      "start": 1.7981,
      "duration": 0.0185,
      "velocity": 97,
      "chip": "ym2612"
    },
    {
      "channel": 1,
      "note": 79,
      "start": 1.8488,
      "duration": 0.019,
      "velocity": 97,
      "chip": "ym2612"
    },
    {
      "channel": 2,
      "note": 81,
      "start": 1.8494,
      "duration": 0.0187,
      "velocity": 97,
      "chip": "ym2612"
    },
    {
      "channel": 4,
      "note": 75,
      "start": 1.85,
      "duration": 0.0183,
      "velocity": 97,
      "chip": "ym2612"
    },
    {
      "channel": 1,
      "note": 79,
      "start": 1.8833,
      "duration": 0.1546,
      "velocity": 97,
      "chip": "ym2612"
    },
    {
      "channel": 2,
      "note": 81,
      "start": 1.8838,
      "duration": 0.1543,
      "velocity": 97,
      "chip": "ym2612"
    },
    {
      "channel": 4,
      "note": 75,
      "start": 1.8845,
      "duration": 0.1539,
      "velocity": 97,
      "chip": "ym2612"
    },
    {
      "channel": 3,
      "note": 51,
      "start": 1.9036,
      "duration": 0.0129,
      "velocity": 88,
      "chip": "ym2612"
    },
    {
      "channel": 3,
      "note": 50,
      "start": 1.9192,
      "duration": 0.0125,
      "velocity": 88,
      "chip": "ym2612"
    },
    {
      "channel": 3,
      "note": 48,
      "start": 1.9343,
      "duration": 0.0124,
      "velocity": 88,
      "chip": "ym2612"
    },
    {
      "channel": 3,
      "note": 50,
      "start": 1.9503,
      "duration": 0.0146,
      "velocity": 88,
      "chip": "ym2612"
    },
    {
      "channel": 3,
      "note": 53,
      "start": 1.9679,
      "duration": 0.0153,
      "velocity": 88,
      "chip": "ym2612"
    },
    {
      "channel": 3,
      "note": 51,
      "start": 1.9863,
      "duration": 0.0154,
      "velocity": 88,
      "chip": "ym2612"
    },
    {
      "channel": 3,
      "note": 50,
      "start": 2.0049,
      "duration": 0.0157,
      "velocity": 88,
      "chip": "ym2612"
    },
    {
      "channel": 3,
      "note": 46,
      "start": 2.0236,
      "duration": 0.0147,
      "velocity": 88,
      "chip": "ym2612"
    },
    {
      "channel": 1,
      "note": 60,
      "start": 2.044,
      "duration": 0.0145,
      "velocity": 121,
      "chip": "ym2612"
    },
    {
      "channel": 3,
      "note": 48,
      "start": 2.0451,
      "duration": 0.0216,
      "velocity": 88,
      "chip": "ym2612"
    },
    {
      "channel": 1,
      "note": 65,
      "start": 2.0612,
      "duration": 0.0121,
      "velocity": 121,
      "chip": "ym2612"
    },
    {
      "channel": 1,
      "note": 72,
      "start": 2.076,
      "duration": 0.0136,
      "velocity": 121,
      "chip": "ym2612"
    },
    {
      "channel": 2,
      "note": 82,
      "start": 2.0778,
      "duration": 0.0146,
      "velocity": 97,
      "chip": "ym2612"
    },
    {
      "channel": 4,
      "note": 75,
      "start": 2.0784,
      "duration": 0.0142,
      "velocity": 97,
      "chip": "ym2612"
    },
    {
      "channel": 1,
      "note": 60,
      "start": 2.0922,
      "duration": 0.0926,
      "velocity": 121,
      "chip": "ym2612"
    },
    {
      "channel": 3,
      "note": 60,
      "start": 2.1079,
      "duration": 0.0145,
      "velocity": 88,
      "chip": "ym2612"
    },
    {
      "channel": 2,
      "note": 82,
      "start": 2.1223,
      "duration": 0.0147,
      "velocity": 97,
      "chip": "ym2612"
    },
    {
      "channel": 4,
      "note": 75,
      "start": 2.1229,
      "duration": 0.0143,
      "velocity": 97,
      "chip": "ym2612"
    },
    {
      "channel": 2,
      "note": 82,
      "start": 2.1511,
      "duration": 0.195,
      "velocity": 97,
      "chip": "ym2612"
    },
    {
      "channel": 4,
      "note": 75,
      "start": 2.1517,
      "duration": 0.1947,
      "velocity": 97,
      "chip": "ym2612"
    },
    {
      "channel": 1,
      "note": 70,
      "start": 2.2032,
      "duration": 0.0118,
      "velocity": 121,
      "chip": "ym2612"
    },
    {
      "channel": 1,
      "note": 67,
      "start": 2.2176,
      "duration": 0.0119,
      "velocity": 121,
      "chip": "ym2612"
    },
    {
      "channel": 1,
      "note": 68,
      "start": 2.2334,
      "duration": 0.0122,
      "velocity": 121,
      "chip": "ym2612"
    },
    {
      "channel": 3,
      "note": 60,
      "start": 2.234,
      "duration": 0.0299,
      "velocity": 88,
      "chip": "ym2612"
    },
    {
      "channel": 1,
      "note": 67,
      "start": 2.2514,
      "duration": 0.0124,
      "velocity": 121,
      "chip": "ym2612"
    },
    {
      "channel": 1,
      "note": 65,
      "start": 2.2664,
      "duration": 0.0122,
      "velocity": 121,
      "chip": "ym2612"
    },
    {
      "channel": 3,
      "note": 55,
      "start": 2.267,
      "duration": 0.0314,
      "velocity": 88,
      "chip": "ym2612"
    },
    {
      "channel": 1,
      "note": 67,
      "start": 2.2841,
      "duration": 0.014,
      "velocity": 121,
      "chip": "ym2612"
    },
    {
      "channel": 1,
      "note": 65,
      "start": 2.3011,
      "duration": 0.0137,
      "velocity": 121,
      "chip": "ym2612"
    },
    {
      "channel": 3,
      "note": 48,
      "start": 2.3017,
      "duration": 0.0446,
      "velocity": 88,
      "chip": "ym2612"
    },
    {
      "channel": 1,
      "note": 63,
      "start": 2.3179,
      "duration": 0.0282,
      "velocity": 121,
      "chip": "ym2612"
    },
    {
      "channel": 1,
      "note": 65,
      "start": 2.3646,
      "duration": 0.0129,
      "velocity": 121,
      "chip": "ym2612"
    },
    {
      "channel": 3,
      "note": 48,
      "start": 2.3655,
      "duration": 0.02,
      "velocity": 88,
      "chip": "ym2612"
    },
    {
      "channel": 1,
      "note": 67,
      "start": 2.3801,
      "duration": 0.0143,
      "velocity": 121,
      "chip": "ym2612"
    },
    {
      "channel": 2,
      "note": 81,
      "start": 2.3949,
      "duration": 0.0141,
      "velocity": 97,
      "chip": "ym2612"
    },
    {
      "channel": 4,
      "note": 75,
      "start": 2.3955,
      "duration": 0.0137,
      "velocity": 97,
      "chip": "ym2612"
    },
    {
      "channel": 3,
      "note": 60,
      "start": 2.4302,
      "duration": 0.0143,
      "velocity": 88,
      "chip": "ym2612"
    },
    {
      "channel": 2,
      "note": 81,
      "start": 2.4444,
      "duration": 0.0148,
      "velocity": 97,
      "chip": "ym2612"
    },
    {
      "channel": 4,
      "note": 75,
      "start": 2.445,
      "duration": 0.0144,
      "velocity": 97,
      "chip": "ym2612"
    },
    {
      "channel": 2,
      "note": 81,
      "start": 2.4732,
      "duration": 0.1868,
      "velocity": 97,
      "chip": "ym2612"
    },
    {
      "channel": 4,
      "note": 75,
      "start": 2.4739,
      "duration": 0.1864,
      "velocity": 97,
      "chip": "ym2612"
    },
    {
      "channel": 1,
      "note": 63,
      "start": 2.5253,
      "duration": 0.0026,
      "velocity": 121,
      "chip": "ym2612"
    },
    {
      "channel": 1,
      "note": 65,
      "start": 2.5306,
      "duration": 0.0249,
      "velocity": 121,
      "chip": "ym2612"
    },
    {
      "channel": 1,
      "note": 63,
      "start": 2.5613,
      "duration": 0.0122,
      "velocity": 121,
      "chip": "ym2612"
    },
    {
      "channel": 3,
      "note": 60,
      "start": 2.562,
      "duration": 0.0299,
      "velocity": 88,
      "chip": "ym2612"
    },
    {
      "channel": 1,
      "note": 60,
      "start": 2.5793,
      "duration": 0.0124,
      "velocity": 121,
      "chip": "ym2612"
    },
    {
      "channel": 1,
      "note": 58,
      "start": 2.5944,
      "duration": 0.0122,
      "velocity": 121,
      "chip": "ym2612"
    },
    {
      "channel": 3,
      "note": 55,
      "start": 2.5949,
      "duration": 0.0289,
      "velocity": 88,
      "chip": "ym2612"
    },
    {
      "channel": 1,
      "note": 60,
      "start": 2.6094,
      "duration": 0.0142,
      "velocity": 121,
      "chip": "ym2612"
    },
    {
      "channel": 1,
      "note": 63,
      "start": 2.6269,
      "duration": 0.0156,
      "velocity": 121,
      "chip": "ym2612"
    },
    {
      "channel": 3,
      "note": 48,
      "start": 2.6275,
      "duration": 0.0327,
      "velocity": 88,
      "chip": "ym2612"
    },
    {
      "channel": 1,
      "note": 65,
      "start": 2.6456,
      "duration": 0.0143,
      "velocity": 121,
      "chip": "ym2612"
    },
    {
      "channel": 1,
      "note": 58,
      "start": 2.6639,
      "duration": 0.0143,
      "velocity": 121,
      "chip": "ym2612"
    },
    {
      "channel": 3,
      "note": 48,
      "start": 2.665,
      "duration": 0.0213,
      "velocity": 88,
      "chip": "ym2612"
    },
    {
      "channel": 1,
      "note": 60,
      "start": 2.6809,
      "duration": 0.012,
      "velocity": 121,
      "chip": "ym2612"
    },
    {
      "channel": 2,
      "note": 82,
      "start": 2.697,
      "duration": 0.0146,
      "velocity": 97,
      "chip": "ym2612"
    },
    {
      "channel": 4,
      "note": 75,
      "start": 2.6976,
      "duration": 0.0142,
      "velocity": 97,
      "chip": "ym2612"
    },
    {
      "channel": 1,
      "note": 60,
      "start": 2.7114,
      "duration": 0.0121,
      "velocity": 121,
      "chip": "ym2612"
    },
    {
      "channel": 3,
      "note": 60,
      "start": 2.7293,
      "duration": 0.0148,
      "velocity": 88,
      "chip": "ym2612"
    },
    {
      "channel": 1,
      "note": 58,
      "start": 2.7435,
      "duration": 0.0131,
      "velocity": 121,
      "chip": "ym2612"
    },
    {
      "channel": 2,
      "note": 82,
      "start": 2.744,
      "duration": 0.0154,
      "velocity": 97,
      "chip": "ym2612"
    },
    {
      "channel": 4,
      "note": 75,
      "start": 2.7447,
      "duration": 0.0149,
      "velocity": 97,
      "chip": "ym2612"
    },
    {
      "channel": 1,
      "note": 60,
      "start": 2.7593,
      "duration": 0.0114,
      "velocity": 121,
      "chip": "ym2612"
    },
    {
      "channel": 1,
      "note": 58,
      "start": 2.7733,
      "duration": 0.033,
      "velocity": 121,
      "chip": "ym2612"
    },
    {
      "channel": 2,
      "note": 82,
      "start": 2.7739,
      "duration": 0.1939,
      "velocity": 97,
      "chip": "ym2612"
    },
    {
      "channel": 4,
      "note": 75,
      "start": 2.7744,
      "duration": 0.1936,
      "velocity": 97,
      "chip": "ym2612"
    },
    {
      "channel": 1,
      "note": 67,
      "start": 2.8247,
      "duration": 0.0117,
      "velocity": 121,
      "chip": "ym2612"
    },
    {
      "channel": 1,
      "note": 65,
      "start": 2.839,
      "duration": 0.0121,
      "velocity": 121,
      "chip": "ym2612"
    },
    {
      "channel": 1,
      "note": 63,
      "start": 2.8549,
      "duration": 0.0121,
      "velocity": 121,
      "chip": "ym2612"
    },
    {
      "channel": 3,
      "note": 60,
      "start": 2.8555,
      "duration": 0.0299,
      "velocity": 88,
      "chip": "ym2612"
    },
    {
      "channel": 1,
      "note": 62,
      "start": 2.8729,
      "duration": 0.0123,
      "velocity": 121,
      "chip": "ym2612"
    },
    {
      "channel": 1,
      "note": 60,
      "start": 2.8879,
      "duration": 0.0121,
      "velocity": 121,
      "chip": "ym2612"
    },
    {
      "channel": 3,
      "note": 55,
      "start": 2.8885,
      "duration": 0.0315,
      "velocity": 88,
      "chip": "ym2612"
    },
    {
      "channel": 1,
      "note": 62,
      "start": 2.9056,
      "duration": 0.0142,
      "velocity": 121,
      "chip": "ym2612"
    },
    {
      "channel": 1,
      "note": 70,
      "start": 2.9227,
      "duration": 0.0135,
      "velocity": 121,
      "chip": "ym2612"
    },
    {
      "channel": 3,
      "note": 48,
      "start": 2.9234,
      "duration": 0.0445,
      "velocity": 88,
      "chip": "ym2612"
    },
    {
      "channel": 1,
      "note": 58,
      "start": 2.9392,
      "duration": 0.0284,
      "velocity": 121,
      "chip": "ym2612"
    },
    {
      "channel": 1,
      "note": 60,
      "start": 2.9861,
      "duration": 0.0129,
      "velocity": 121,
      "chip": "ym2612"
    },
    {
      "channel": 3,
      "note": 48,
      "start": 2.9871,
      "duration": 0.02,
      "velocity": 88,
      "chip": "ym2612"
    },
    {
      "channel": 1,
      "note": 60,
      "start": 3.0017,
      "duration": 0.0121,
      "velocity": 121,
      "chip": "ym2612"
    },
    {
      "channel": 1,
      "note": 60,
      "start": 3.0165,
      "duration": 0.0122,
      "velocity": 121,
      "chip": "ym2612"
    },
    {
      "channel": 2,
      "note": 81,
      "start": 3.0171,
      "duration": 0.0144,
      "velocity": 97,
      "chip": "ym2612"
    },
    {
      "channel": 4,
      "note": 75,
      "start": 3.0177,
      "duration": 0.014,
      "velocity": 97,
      "chip": "ym2612"
    },
    {
      "channel": 1,
      "note": 62,
      "start": 3.0313,
      "duration": 0.0122,
      "velocity": 121,
      "chip": "ym2612"
    },
    {
      "channel": 1,
      "note": 62,
      "start": 3.0514,
      "duration": 0.0122,
      "velocity": 121,
      "chip": "ym2612"
    },
    {
      "channel": 3,
      "note": 60,
      "start": 3.052,
      "duration": 0.016,
      "velocity": 88,
      "chip": "ym2612"
    },
    {
      "channel": 1,
      "note": 62,
      "start": 3.0673,
      "duration": 0.0134,
      "velocity": 121,
      "chip": "ym2612"
    },
    {
      "channel": 2,
      "note": 81,
      "start": 3.0678,
      "duration": 0.0156,
      "velocity": 97,
      "chip": "ym2612"
    },
    {
      "channel": 4,
      "note": 75,
      "start": 3.0685,
      "duration": 0.0152,
      "velocity": 97,
      "chip": "ym2612"
    },
    {
      "channel": 1,
      "note": 63,
      "start": 3.0833,
      "duration": 0.0113,
      "velocity": 121,
      "chip": "ym2612"
    },
    {
      "channel": 1,
      "note": 63,
      "start": 3.0973,
      "duration": 0.0136,
      "velocity": 121,
      "chip": "ym2612"
    },
    {
      "channel": 2,
      "note": 81,
      "start": 3.0978,
      "duration": 0.1523,
      "velocity": 97,
      "chip": "ym2612"
    },
    {
      "channel": 4,
      "note": 75,
      "start": 3.0985,
      "duration": 0.152,
      "velocity": 97,
      "chip": "ym2612"
    },
    {
      "channel": 1,
      "note": 63,
      "start": 3.1136,
      "duration": 0.0114,
      "velocity": 121,
      "chip": "ym2612"
    },
    {
      "channel": 3,
      "note": 63,
      "start": 3.1141,
      "duration": 0.011,
      "velocity": 88,
      "chip": "ym2612"
    },
    {
      "channel": 1,
      "note": 65,
      "start": 3.1275,
      "duration": 0.0122,
      "velocity": 121,
      "chip": "ym2612"
    },
    {
      "channel": 3,
      "note": 62,
      "start": 3.128,
      "duration": 0.0119,
      "velocity": 88,
      "chip": "ym2612"
    },
    {
      "channel": 1,
      "note": 65,
      "start": 3.143,
      "duration": 0.0139,
      "velocity": 121,
      "chip": "ym2612"
    },
    {
      "channel": 3,
      "note": 60,
      "start": 3.1436,
      "duration": 0.0136,
      "velocity": 88,
      "chip": "ym2612"
    },
    {
      "channel": 1,
      "note": 65,
      "start": 3.1597,
      "duration": 0.0131,
      "velocity": 121,
      "chip": "ym2612"
    },
    {
      "channel": 3,
      "note": 62,
      "start": 3.1602,
      "duration": 0.0127,
      "velocity": 88,
      "chip": "ym2612"
    },
    {
      "channel": 1,
      "note": 65,
      "start": 3.176,
      "duration": 0.0058,
      "velocity": 121,
      "chip": "ym2612"
    },
    {
      "channel": 3,
      "note": 65,
      "start": 3.1766,
      "duration": 0.0136,
      "velocity": 88,
      "chip": "ym2612"
    },
    {
      "channel": 1,
      "note": 67,
      "start": 3.1851,
      "duration": 0.0048,
      "velocity": 121,
      "chip": "ym2612"
    },
    {
      "channel": 1,
      "note": 65,
      "start": 3.1937,
      "duration": 0.0177,
      "velocity": 121,
      "chip": "ym2612"
    },
    {
      "channel": 3,
      "note": 63,
      "start": 3.1943,
      "duration": 0.0174,
      "velocity": 88,
      "chip": "ym2612"
    },
    {
      "channel": 1,
      "note": 63,
      "start": 3.2147,
      "duration": 0.014,
      "velocity": 121,
      "chip": "ym2612"
    },
    {
      "channel": 3,
      "note": 62,
      "start": 3.2153,
      "duration": 0.0137,
      "velocity": 88,
      "chip": "ym2612"
    },
    {
      "channel": 1,
      "note": 62,
      "start": 3.2331,
      "duration": 0.0168,
      "velocity": 121,
      "chip": "ym2612"
    },
    {
      "channel": 3,
      "note": 58,
      "start": 3.2337,
      "duration": 0.0166,
      "velocity": 88,
      "chip": "ym2612"
    },
    {
      "channel": 1,
      "note": 72,
      "start": 3.2537,
      "duration": 0.0142,
      "velocity": 121,
      "chip": "ym2612"
    },
    {
      "channel": 3,
      "note": 48,
      "start": 3.2548,
      "duration": 0.028,
      "velocity": 88,
      "chip": "ym2612"
    },
    {
      "channel": 1,
      "note": 65,
      "start": 3.2706,
      "duration": 0.012,
      "velocity": 121,
      "chip": "ym2612"
    },
    {
      "channel": 1,
      "note": 72,
      "start": 3.2853,
      "duration": 0.0136,
      "velocity": 121,
      "chip": "ym2612"
    },
    {
      "channel": 2,
      "note": 82,
      "start": 3.2871,
      "duration": 0.0153,
      "velocity": 97,
      "chip": "ym2612"
    },
    {
      "channel": 4,
      "note": 75,
      "start": 3.2877,
      "duration": 0.0154,
      "velocity": 97,
      "chip": "ym2612"
    },
    {
      "channel": 1,
      "note": 60,
      "start": 3.3022,
      "duration": 0.0358,
      "velocity": 121,
      "chip": "ym2612"
    },
    {
      "channel": 3,
      "note": 48,
      "start": 3.3029,
      "duration": 0.0125,
      "velocity": 88,
      "chip": "ym2612"
    },
    {
      "channel": 3,
      "note": 60,
      "start": 3.3181,
      "duration": 0.0308,
      "velocity": 88,
      "chip": "ym2612"
    },
    {
      "channel": 2,
      "note": 82,
      "start": 3.3353,
      "duration": 0.0162,
      "velocity": 97,
      "chip": "ym2612"
    },
    {
      "channel": 4,
      "note": 75,
      "start": 3.3359,
      "duration": 0.0162,
      "velocity": 97,
      "chip": "ym2612"
    },
    {
      "channel": 1,
      "note": 59,
      "start": 3.3414,
      "duration": 0.0023,
      "velocity": 121,
      "chip": "ym2612"
    },
    {
      "channel": 1,
      "note": 58,
      "start": 3.3463,
      "duration": 0.0023,
      "velocity": 121,
      "chip": "ym2612"
    },
    {
      "channel": 1,
      "note": 57,
      "start": 3.3513,
      "duration": 0.0029,
      "velocity": 121,
      "chip": "ym2612"
    },
    {
      "channel": 3,
      "note": 48,
      "start": 3.3519,
      "duration": 0.0126,
      "velocity": 88,
      "chip": "ym2612"
    },
    {
      "channel": 1,
      "note": 56,
      "start": 3.357,
      "duration": 0.0023,
      "velocity": 121,
      "chip": "ym2612"
    },
    {
      "channel": 1,
      "note": 55,
      "start": 3.3619,
      "duration": 0.0023,
      "velocity": 121,
      "chip": "ym2612"
    },
    {
      "channel": 1,
      "note": 54,
      "start": 3.3671,
      "duration": 0.0037,
      "velocity": 121,
      "chip": "ym2612"
    },
    {
      "channel": 2,
      "note": 82,
      "start": 3.3676,
      "duration": 0.1935,
      "velocity": 97,
      "chip": "ym2612"
    },
    {
      "channel": 3,
      "note": 60,
      "start": 3.3681,
      "duration": 0.0301,
      "velocity": 88,
      "chip": "ym2612"
    },
    {
      "channel": 4,
      "note": 75,
      "start": 3.3686,
      "duration": 0.1928,
      "velocity": 97,
      "chip": "ym2612"
    },
    {
      "channel": 1,
      "note": 53,
      "start": 3.3742,
      "duration": 0.0023,
      "velocity": 121,
      "chip": "ym2612"
    },
    {
      "channel": 1,
      "note": 52,
      "start": 3.3802,
      "duration": 0.0178,
      "velocity": 121,
      "chip": "ym2612"
    },
    {
      "channel": 1,
      "note": 70,
      "start": 3.4164,
      "duration": 0.0123,
      "velocity": 121,
      "chip": "ym2612"
    },
    {
      "channel": 3,
      "note": 63,
      "start": 3.417,
      "duration": 0.0119,
      "velocity": 88,
      "chip": "ym2612"
    },
    {
      "channel": 1,
      "note": 67,
      "start": 3.4314,
      "duration": 0.0126,
      "velocity": 121,
      "chip": "ym2612"
    },
    {
      "channel": 3,
      "note": 62,
      "start": 3.4319,
      "duration": 0.0123,
      "velocity": 88,
      "chip": "ym2612"
    },
    {
      "channel": 1,
      "note": 68,
      "start": 3.4469,
      "duration": 0.0123,
      "velocity": 121,
      "chip": "ym2612"
    },
    {
      "channel": 3,
      "note": 60,
      "start": 3.4474,
      "duration": 0.012,
      "velocity": 88,
      "chip": "ym2612"
    },
    {
      "channel": 1,
      "note": 67,
      "start": 3.465,
      "duration": 0.0129,
      "velocity": 121,
      "chip": "ym2612"
    },
    {
      "channel": 3,
      "note": 62,
      "start": 3.4656,
      "duration": 0.0126,
      "velocity": 88,
      "chip": "ym2612"
    },
    {
      "channel": 1,
      "note": 65,
      "start": 3.4807,
      "duration": 0.0122,
      "velocity": 121,
      "chip": "ym2612"
    },
    {
      "channel": 3,
      "note": 65,
      "start": 3.4812,
      "duration": 0.0119,
      "velocity": 88,
      "chip": "ym2612"
    },
    {
      "channel": 1,
      "note": 67,
      "start": 3.4985,
      "duration": 0.0145,
      "velocity": 121,
      "chip": "ym2612"
    },
    {
      "channel": 3,
      "note": 63,
      "start": 3.499,
      "duration": 0.0142,
      "velocity": 88,
      "chip": "ym2612"
    },
    {
      "channel": 1,
      "note": 65,
      "start": 3.5161,
      "duration": 0.0137,
      "velocity": 121,
      "chip": "ym2612"
    },
    {
      "channel": 3,
      "note": 62,
      "start": 3.5167,
      "duration": 0.0134,
      "velocity": 88,
      "chip": "ym2612"
    },
    {
      "channel": 1,
      "note": 63,
      "start": 3.5329,
      "duration": 0.028,
      "velocity": 121,
      "chip": "ym2612"
    },
    {
      "channel": 3,
      "note": 63,
      "start": 3.5335,
      "duration": 0.0277,
      "velocity": 88,
      "chip": "ym2612"
    },
    {
      "channel": 1,
      "note": 65,
      "start": 3.5795,
      "duration": 0.0131,
      "velocity": 121,
      "chip": "ym2612"
    },
    {
      "channel": 3,
      "note": 48,
      "start": 3.5804,
      "duration": 0.0269,
      "velocity": 88,
      "chip": "ym2612"
    },
    {
      "channel": 1,
      "note": 67,
      "start": 3.5953,
      "duration": 0.0769,
      "velocity": 121,
      "chip": "ym2612"
    },
    {
      "channel": 2,
      "note": 81,
      "start": 3.6099,
      "duration": 0.0144,
      "velocity": 97,
      "chip": "ym2612"
    },
    {
      "channel": 4,
      "note": 75,
      "start": 3.6105,
      "duration": 0.0145,
      "velocity": 97,
      "chip": "ym2612"
    },
    {
      "channel": 3,
      "note": 48,
      "start": 3.6248,
      "duration": 0.0128,
      "velocity": 88,
      "chip": "ym2612"
    },
    {
      "channel": 3,
      "note": 60,
      "start": 3.6402,
      "duration": 0.0297,
      "velocity": 88,
      "chip": "ym2612"
    },
    {
      "channel": 2,
      "note": 81,
      "start": 3.6575,
      "duration": 0.0148,
      "velocity": 97,
      "chip": "ym2612"
    },
    {
      "channel": 4,
      "note": 75,
      "start": 3.658,
      "duration": 0.0149,
      "velocity": 97,
      "chip": "ym2612"
    },
    {
      "channel": 3,
      "note": 48,
      "start": 3.6727,
      "duration": 0.0115,
      "velocity": 88,
      "chip": "ym2612"
    },
    {
      "channel": 2,
      "note": 81,
      "start": 3.6868,
      "duration": 0.1937,
      "velocity": 97,
      "chip": "ym2612"
    },
    {
      "channel": 3,
      "note": 60,
      "start": 3.6873,
      "duration": 0.0327,
      "velocity": 88,
      "chip": "ym2612"
    },
    {
      "channel": 4,
      "note": 75,
      "start": 3.6879,
      "duration": 0.193,
      "velocity": 97,
      "chip": "ym2612"
    },
    {
      "channel": 1,
      "note": 63,
      "start": 3.7382,
      "duration": 0.0032,
      "velocity": 121,
      "chip": "ym2612"
    },
    {
      "channel": 3,
      "note": 63,
      "start": 3.7388,
      "duration": 0.0124,
      "velocity": 88,
      "chip": "ym2612"
    },
    {
      "channel": 1,
      "note": 65,
      "start": 3.744,
      "duration": 0.0251,
      "velocity": 121,
      "chip": "ym2612"
    },
    {
      "channel": 3,
      "note": 62,
      "start": 3.7564,
      "duration": 0.0129,
      "velocity": 88,
      "chip": "ym2612"
    },
    {
      "channel": 1,
      "note": 63,
      "start": 3.7746,
      "duration": 0.0122,
      "velocity": 121,
      "chip": "ym2612"
    },
    {
      "channel": 3,
      "note": 60,
      "start": 3.7752,
      "duration": 0.0119,
      "velocity": 88,
      "chip": "ym2612"
    },
    {
      "channel": 1,
      "note": 60,
      "start": 3.7926,
      "duration": 0.0128,
      "velocity": 121,
      "chip": "ym2612"
    },
    {
      "channel": 3,
      "note": 62,
      "start": 3.7932,
      "duration": 0.0124,
      "velocity": 88,
      "chip": "ym2612"
    },
    {
      "channel": 1,
      "note": 58,
      "start": 3.8082,
      "duration": 0.0121,
      "velocity": 121,
      "chip": "ym2612"
    },
    {
      "channel": 3,
      "note": 65,
      "start": 3.8087,
      "duration": 0.0117,
      "velocity": 88,
      "chip": "ym2612"
    },
    {
      "channel": 1,
      "note": 60,
      "start": 3.8231,
      "duration": 0.0167,
      "velocity": 121,
      "chip": "ym2612"
    },
    {
      "channel": 3,
      "note": 63,
      "start": 3.8237,
      "duration": 0.0164,
      "velocity": 88,
      "chip": "ym2612"
    },
    {
      "channel": 1,
      "note": 63,
      "start": 3.8436,
      "duration": 0.0158,
      "velocity": 121,
      "chip": "ym2612"
    },
    {
      "channel": 3,
      "note": 62,
      "start": 3.8441,
      "duration": 0.0155,
      "velocity": 88,
      "chip": "ym2612"
    },
    {
      "channel": 1,
      "note": 65,
      "start": 3.8638,
      "duration": 0.0166,
      "velocity": 121,
      "chip": "ym2612"
    },
    {
      "channel": 3,
      "note": 63,
      "start": 3.8644,
      "duration": 0.0162,
      "velocity": 88,
      "chip": "ym2612"
    },
    {
      "channel": 1,
      "note": 58,
      "start": 3.8841,
      "duration": 0.0144,
      "velocity": 121,
      "chip": "ym2612"
    },
    {
      "channel": 3,
      "note": 48,
      "start": 3.8852,
      "duration": 0.0283,
      "velocity": 88,
      "chip": "ym2612"
    },
    {
      "channel": 1,
      "note": 60,
      "start": 3.9012,
      "duration": 0.0121,
      "velocity": 121,
      "chip": "ym2612"
    },
    {
      "channel": 2,
      "note": 82,
      "start": 3.9174,
      "duration": 0.0157,
      "velocity": 97,
      "chip": "ym2612"
    },
    {
      "channel": 4,
      "note": 75,
      "start": 3.918,
      "duration": 0.0158,
      "velocity": 97,
      "chip": "ym2612"
    },
    {
      "channel": 1,
      "note": 60,
      "start": 3.933,
      "duration": 0.013,
      "velocity": 121,
      "chip": "ym2612"
    },
    {
      "channel": 3,
      "note": 48,
      "start": 3.9337,
      "duration": 0.0125,
      "velocity": 88,
      "chip": "ym2612"
    },
    {
      "channel": 3,
      "note": 60,
      "start": 3.9488,
      "duration": 0.0303,
      "velocity": 88,
      "chip": "ym2612"
    },
    {
      "channel": 1,
      "note": 58,
      "start": 3.9659,
      "duration": 0.0131,
      "velocity": 121,
      "chip": "ym2612"
    },
    {
      "channel": 2,
      "note": 82,
      "start": 3.9665,
      "duration": 0.0152,
      "velocity": 97,
      "chip": "ym2612"
    },
    {
      "channel": 4,
      "note": 75,
      "start": 3.967,
      "duration": 0.0153,
      "velocity": 97,
      "chip": "ym2612"
    },
    {
      "channel": 1,
      "note": 60,
      "start": 3.9816,
      "duration": 0.0121,
      "velocity": 121,
      "chip": "ym2612"
    },
    {
      "channel": 3,
      "note": 48,
      "start": 3.9822,
      "duration": 0.0116,
      "velocity": 88,
      "chip": "ym2612"
    },
    {
      "channel": 1,
      "note": 58,
      "start": 3.9963,
      "duration": 0.0322,
      "velocity": 121,
      "chip": "ym2612"
    },
    {
      "channel": 2,
      "note": 82,
      "start": 3.9969,
      "duration": 0.1942,
      "velocity": 97,
      "chip": "ym2612"
    },
    {
      "channel": 3,
      "note": 60,
      "start": 3.9973,
      "duration": 0.0314,
      "velocity": 88,
      "chip": "ym2612"
    },
    {
      "channel": 4,
      "note": 75,
      "start": 3.9979,
      "duration": 0.1935,
      "velocity": 97,
      "chip": "ym2612"
    },
    {
      "channel": 1,
      "note": 67,
      "start": 4.0469,
      "duration": 0.0122,
      "velocity": 121,
      "chip": "ym2612"
    },
    {
      "channel": 3,
      "note": 63,
      "start": 4.0475,
      "duration": 0.0119,
      "velocity": 88,
      "chip": "ym2612"
    },
    {
      "channel": 1,
      "note": 65,
      "start": 4.062,
      "duration": 0.0125,
      "velocity": 121,
      "chip": "ym2612"
    },
    {
      "channel": 3,
      "note": 62,
      "start": 4.0625,
      "duration": 0.0122,
      "velocity": 88,
      "chip": "ym2612"
    },
    {
      "channel": 1,
      "note": 63,
      "start": 4.0775,
      "duration": 0.0122,
      "velocity": 121,
      "chip": "ym2612"
    },
    {
      "channel": 3,
      "note": 60,
      "start": 4.078,
      "duration": 0.012,
      "velocity": 88,
      "chip": "ym2612"
    },
    {
      "channel": 1,
      "note": 62,
      "start": 4.0955,
      "duration": 0.0128,
      "velocity": 121,
      "chip": "ym2612"
    },
    {
      "channel": 3,
      "note": 62,
      "start": 4.096,
      "duration": 0.0126,
      "velocity": 88,
      "chip": "ym2612"
    },
    {
      "channel": 1,
      "note": 60,
      "start": 4.111,
      "duration": 0.0123,
      "velocity": 121,
      "chip": "ym2612"
    },
    {
      "channel": 3,
      "note": 65,
      "start": 4.1115,
      "duration": 0.012,
      "velocity": 88,
      "chip": "ym2612"
    },
    {
      "channel": 1,
      "note": 62,
      "start": 4.1289,
      "duration": 0.0144,
      "velocity": 121,
      "chip": "ym2612"
    },
    {
      "channel": 3,
      "note": 63,
      "start": 4.1294,
      "duration": 0.0141,
      "velocity": 88,
      "chip": "ym2612"
    },
    {
      "channel": 1,
      "note": 70,
      "start": 4.1464,
      "duration": 0.0137,
      "velocity": 121,
      "chip": "ym2612"
    },
    {
      "channel": 3,
      "note": 62,
      "start": 4.147,
      "duration": 0.0133,
      "velocity": 88,
      "chip": "ym2612"
    },
    {
      "channel": 1,
      "note": 58,
      "start": 4.1632,
      "duration": 0.0278,
      "velocity": 121,
      "chip": "ym2612"
    },
    {
      "channel": 3,
      "note": 63,
      "start": 4.1637,
      "duration": 0.0276,
      "velocity": 88,
      "chip": "ym2612"
    },
    {
      "channel": 1,
      "note": 60,
      "start": 4.2095,
      "duration": 0.0289,
      "velocity": 121,
      "chip": "ym2612"
    },
    {
      "channel": 3,
      "note": 48,
      "start": 4.2105,
      "duration": 0.0282,
      "velocity": 88,
      "chip": "ym2612"
    },
    {
      "channel": 1,
      "note": 60,
      "start": 4.2411,
      "duration": 0.012,
      "velocity": 121,
      "chip": "ym2612"
    },
    {
      "channel": 2,
      "note": 81,
      "start": 4.2416,
      "duration": 0.015,
      "velocity": 97,
      "chip": "ym2612"
    },
    {
      "channel": 4,
      "note": 75,
      "start": 4.2422,
      "duration": 0.0152,
      "velocity": 97,
      "chip": "ym2612"
    },
    {
      "channel": 1,
      "note": 62,
      "start": 4.2565,
      "duration": 0.0302,
      "velocity": 121,
      "chip": "ym2612"
    },
    {
      "channel": 3,
      "note": 48,
      "start": 4.2572,
      "duration": 0.0128,
      "velocity": 88,
      "chip": "ym2612"
    },
    {
      "channel": 3,
      "note": 60,
      "start": 4.2732,
      "duration": 0.0315,
      "velocity": 88,
      "chip": "ym2612"
    },
    {
      "channel": 1,
      "note": 62,
      "start": 4.2895,
      "duration": 0.0149,
      "velocity": 121,
      "chip": "ym2612"
    },
    {
      "channel": 2,
      "note": 81,
      "start": 4.29,
      "duration": 0.0172,
      "velocity": 97,
      "chip": "ym2612"
    },
    {
      "channel": 4,
      "note": 75,
      "start": 4.2906,
      "duration": 0.0172,
      "velocity": 97,
      "chip": "ym2612"
    },
    {
      "channel": 1,
      "note": 63,
      "start": 4.3071,
      "duration": 0.0284,
      "velocity": 121,
      "chip": "ym2612"
    },
    {
      "channel": 3,
      "note": 48,
      "start": 4.3077,
      "duration": 0.0119,
      "velocity": 88,
      "chip": "ym2612"
    },
    {
      "channel": 2,
      "note": 81,
      "start": 4.3222,
      "duration": 0.1559,
      "velocity": 97,
      "chip": "ym2612"
    },
    {
      "channel": 3,
      "note": 60,
      "start": 4.3227,
      "duration": 0.013,
      "velocity": 88,
      "chip": "ym2612"
    },
    {
      "channel": 4,
      "note": 75,
      "start": 4.3232,
      "duration": 0.1552,
      "velocity": 97,
      "chip": "ym2612"
    },
    {
      "channel": 1,
      "note": 63,
      "start": 4.3382,
      "duration": 0.0127,
      "velocity": 121,
      "chip": "ym2612"
    },
    {
      "channel": 3,
      "note": 63,
      "start": 4.3388,
      "duration": 0.0124,
      "velocity": 88,
      "chip": "ym2612"
    },
    {
      "channel": 1,
      "note": 65,
      "start": 4.3538,
      "duration": 0.0325,
      "velocity": 121,
      "chip": "ym2612"
    },
    {
      "channel": 3,
      "note": 62,
      "start": 4.3544,
      "duration": 0.0129,
      "velocity": 88,
      "chip": "ym2612"
    },
    {
      "channel": 3,
      "note": 60,
      "start": 4.3719,
      "duration": 0.0147,
      "velocity": 88,
      "chip": "ym2612"
    },
    {
      "channel": 1,
      "note": 65,
      "start": 4.3892,
      "duration": 0.0134,
      "velocity": 121,
      "chip": "ym2612"
    },
    {
      "channel": 3,
      "note": 62,
      "start": 4.3898,
      "duration": 0.0131,
      "velocity": 88,
      "chip": "ym2612"
    },
    {
      "channel": 1,
      "note": 65,
      "start": 4.4078,
      "duration": 0.0074,
      "velocity": 121,
      "chip": "ym2612"
    },
    {
      "channel": 3,
      "note": 65,
      "start": 4.4084,
      "duration": 0.0148,
      "velocity": 88,
      "chip": "ym2612"
    },
    {
      "channel": 1,
      "note": 67,
      "start": 4.4185,
      "duration": 0.0045,
      "velocity": 121,
      "chip": "ym2612"
    },
    {
      "channel": 1,
      "note": 65,
      "start": 4.4258,
      "duration": 0.0149,
      "velocity": 121,
      "chip": "ym2612"
    },
    {
      "channel": 3,
      "note": 63,
      "start": 4.4263,
      "duration": 0.0145,
      "velocity": 88,
      "chip": "ym2612"
    },
    {
      "channel": 1,
      "note": 63,
      "start": 4.4441,
      "duration": 0.0158,
      "velocity": 121,
      "chip": "ym2612"
    },
    {
      "channel": 3,
      "note": 62,
      "start": 4.4447,
      "duration": 0.0155,
      "velocity": 88,
      "chip": "ym2612"
    },
    {
      "channel": 1,
      "note": 62,
      "start": 4.4631,
      "duration": 0.0149,
      "velocity": 121,
      "chip": "ym2612"
    },
    {
      "channel": 3,
      "note": 63,
      "start": 4.4637,
      "duration": 0.0146,
      "velocity": 88,
      "chip": "ym2612"
    },
    {
      "channel": 1,
      "note": 91,
      "start": 4.4838,
      "duration": 0.1444,
      "velocity": 100,
      "chip": "ym2612"
    },
    {
      "channel": 2,
      "note": 75,
      "start": 4.4864,
      "duration": 0.2505,
      "velocity": 100,
      "chip": "ym2612"
    },
    {
      "channel": 3,
      "note": 56,
      "start": 4.4871,
      "duration": 0.0157,
      "velocity": 88,
      "chip": "ym2612"
    },
    {
      "channel": 4,
      "note": 68,
      "start": 4.4897,
      "duration": 0.2476,
      "velocity": 100,
      "chip": "ym2612"
    },
    {
      "channel": 3,
      "note": 56,
      "start": 4.5217,
      "duration": 0.0132,
      "velocity": 88,
      "chip": "ym2612"
    },
    {
      "channel": 3,
      "note": 56,
      "start": 4.5398,
      "duration": 0.0138,
      "velocity": 88,
      "chip": "ym2612"
    },
    {
      "channel": 3,
      "note": 56,
      "start": 4.5574,
      "duration": 0.0149,
      "velocity": 88,
      "chip": "ym2612"
    },
    {
      "channel": 3,
      "note": 56,
      "start": 4.5956,
      "duration": 0.0139,
      "velocity": 88,
      "chip": "ym2612"
    },
    {
      "channel": 3,
      "note": 56,
      "start": 4.6137,
      "duration": 0.0147,
      "velocity": 88,
      "chip": "ym2612"
    },
    {
      "channel": 1,
      "note": 91,
      "start": 4.6314,
      "duration": 0.0309,
      "velocity": 100,
      "chip": "ym2612"
    },
    {
      "channel": 3,
      "note": 56,
      "start": 4.6319,
      "duration": 0.0138,
      "velocity": 88,
      "chip": "ym2612"
    },
    {
      "channel": 1,
      "note": 89,
      "start": 4.6658,
      "duration": 0.0323,
      "velocity": 100,
      "chip": "ym2612"
    },
    {
      "channel": 3,
      "note": 56,
      "start": 4.6664,
      "duration": 0.0134,
      "velocity": 88,
      "chip": "ym2612"
    },
    {
      "channel": 3,
      "note": 56,
      "start": 4.6838,
      "duration": 0.0145,
      "velocity": 88,
      "chip": "ym2612"
    },
    {
      "channel": 1,
      "note": 87,
      "start": 4.7015,
      "duration": 0.0354,
      "velocity": 100,
      "chip": "ym2612"
    },
    {
      "channel": 3,
      "note": 56,
      "start": 4.7021,
      "duration": 0.0155,
      "velocity": 88,
      "chip": "ym2612"
    },
    {
      "channel": 1,
      "note": 86,
      "start": 4.7399,
      "duration": 0.1768,
      "velocity": 100,
      "chip": "ym2612"
    },
    {
      "channel": 2,
      "note": 74,
      "start": 4.7405,
      "duration": 0.3196,
      "velocity": 100,
      "chip": "ym2612"
    },
    {
      "channel": 3,
      "note": 58,
      "start": 4.741,
      "duration": 0.0491,
      "velocity": 88,
      "chip": "ym2612"
    },
    {
      "channel": 4,
      "note": 68,
      "start": 4.7415,
      "duration": 0.3189,
      "velocity": 100,
      "chip": "ym2612"
    },
    {
      "channel": 3,
      "note": 58,
      "start": 4.81,
      "duration": 0.0131,
      "velocity": 88,
      "chip": "ym2612"
    },
    {
      "channel": 3,
      "note": 58,
      "start": 4.828,
      "duration": 0.0138,
      "velocity": 88,
      "chip": "ym2612"
    },
    {
      "channel": 3,
      "note": 58,
      "start": 4.8457,
      "duration": 0.0159,
      "velocity": 88,
      "chip": "ym2612"
    },
    {
      "channel": 3,
      "note": 58,
      "start": 4.8843,
      "duration": 0.0138,
      "velocity": 88,
      "chip": "ym2612"
    },
    {
      "channel": 3,
      "note": 58,
      "start": 4.9023,
      "duration": 0.0146,
      "velocity": 88,
      "chip": "ym2612"
    },
    {
      "channel": 1,
      "note": 87,
      "start": 4.9199,
      "duration": 0.0664,
      "velocity": 100,
      "chip": "ym2612"
    },
    {
      "channel": 3,
      "note": 58,
      "start": 4.9205,
      "duration": 0.0136,
      "velocity": 88,
      "chip": "ym2612"
    },
    {
      "channel": 3,
      "note": 58,
      "start": 4.9542,
      "duration": 0.0135,
      "velocity": 88,
      "chip": "ym2612"
    },
    {
      "channel": 3,
      "note": 58,
      "start": 4.9722,
      "duration": 0.0144,
      "velocity": 88,
      "chip": "ym2612"
    },
    {
      "channel": 1,
      "note": 89,
      "start": 4.9898,
      "duration": 0.0701,
      "velocity": 100,
      "chip": "ym2612"
    },
    {
      "channel": 3,
      "note": 58,
      "start": 4.9904,
      "duration": 0.0154,
      "velocity": 88,
      "chip": "ym2612"
    },
    {
      "channel": 3,
      "note": 58,
      "start": 5.0282,
      "duration": 0.0133,
      "velocity": 88,
      "chip": "ym2612"
    },
    {
      "channel": 3,
      "note": 58,
      "start": 5.0459,
      "duration": 0.0144,
      "velocity": 88,
      "chip": "ym2612"
    },
    {
      "channel": 1,
      "note": 83,
      "start": 5.0635,
      "duration": 0.1402,
      "velocity": 100,
      "chip": "ym2612"
    },
    {
      "channel": 2,
      "note": 74,
      "start": 5.0641,
      "duration": 0.2831,
      "velocity": 100,
      "chip": "ym2612"
    },
    {
      "channel": 3,
      "note": 59,
      "start": 5.0647,
      "duration": 0.0137,
      "velocity": 88,
      "chip": "ym2612"
    },
    {
      "channel": 4,
      "note": 68,
      "start": 5.0653,
      "duration": 0.2821,
      "velocity": 100,
      "chip": "ym2612"
    },
    {
      "channel": 3,
      "note": 59,
      "start": 5.0975,
      "duration": 0.0129,
      "velocity": 88,
      "chip": "ym2612"
    },
    {
      "channel": 3,
      "note": 59,
      "start": 5.1151,
      "duration": 0.014,
      "velocity": 88,
      "chip": "ym2612"
    },
    {
      "channel": 3,
      "note": 59,
      "start": 5.1331,
      "duration": 0.0149,
      "velocity": 88,
      "chip": "ym2612"
    },
    {
      "channel": 3,
      "note": 59,
      "start": 5.1714,
      "duration": 0.0137,
      "velocity": 88,
      "chip": "ym2612"
    },
    {
      "channel": 3,
      "note": 59,
      "start": 5.1893,
      "duration": 0.0146,
      "velocity": 88,
      "chip": "ym2612"
    },
    {
      "channel": 1,
      "note": 84,
      "start": 5.2069,
      "duration": 0.0662,
      "velocity": 100,
      "chip": "ym2612"
    },
    {
      "channel": 3,
      "note": 59,
      "start": 5.2075,
      "duration": 0.0134,
      "velocity": 88,
      "chip": "ym2612"
    },
    {
      "channel": 3,
      "note": 59,
      "start": 5.2409,
      "duration": 0.0135,
      "velocity": 88,
      "chip": "ym2612"
    },
    {
      "channel": 3,
      "note": 59,
      "start": 5.2588,
      "duration": 0.0146,
      "velocity": 88,
      "chip": "ym2612"
    },
    {
      "channel": 1,
      "note": 86,
      "start": 5.2765,
      "duration": 0.0705,
      "velocity": 100,
      "chip": "ym2612"
    },
    {
      "channel": 3,
      "note": 59,
      "start": 5.2771,
      "duration": 0.0153,
      "velocity": 88,
      "chip": "ym2612"
    },
    {
      "channel": 3,
      "note": 59,
      "start": 5.315,
      "duration": 0.0134,
      "velocity": 88,
      "chip": "ym2612"
    },
    {
      "channel": 3,
      "note": 59,
      "start": 5.3328,
      "duration": 0.0145,
      "velocity": 88,
      "chip": "ym2612"
    },
    {
      "channel": 1,
      "note": 87,
      "start": 5.3506,
      "duration": 0.1402,
      "velocity": 100,
      "chip": "ym2612"
    },
    {
      "channel": 2,
      "note": 74,
      "start": 5.3511,
      "duration": 0.1398,
      "velocity": 100,
      "chip": "ym2612"
    },
    {
      "channel": 3,
      "note": 60,
      "start": 5.3518,
      "duration": 0.0137,
      "velocity": 88,
      "chip": "ym2612"
    },
    {
      "channel": 4,
      "note": 67,
      "start": 5.3523,
      "duration": 0.1389,
      "velocity": 100,
      "chip": "ym2612"
    },
    {
      "channel": 3,
      "note": 60,
      "start": 5.3847,
      "duration": 0.0131,
      "velocity": 88,
      "chip": "ym2612"
    },
    {
      "channel": 3,
      "note": 60,
      "start": 5.4026,
      "duration": 0.0138,
      "velocity": 88,
      "chip": "ym2612"
    },
    {
      "channel": 3,
      "note": 60,
      "start": 5.4202,
      "duration": 0.0148,
      "velocity": 88,
      "chip": "ym2612"
    },
    {
      "channel": 3,
      "note": 60,
      "start": 5.4584,
      "duration": 0.0137,
      "velocity": 88,
      "chip": "ym2612"
    },
    {
      "channel": 3,
      "note": 60,
      "start": 5.4763,
      "duration": 0.0148,
      "velocity": 88,
      "chip": "ym2612"
    },
    {
      "channel": 1,
      "note": 87,
      "start": 5.4941,
      "duration": 0.0471,
      "velocity": 100,
      "chip": "ym2612"
    },
    {
      "channel": 2,
      "note": 74,
      "start": 5.4947,
      "duration": 0.1368,
      "velocity": 100,
      "chip": "ym2612"
    },
    {
      "channel": 3,
      "note": 58,
      "start": 5.4951,
      "duration": 0.0133,
      "velocity": 88,
      "chip": "ym2612"
    },
    {
      "channel": 4,
      "note": 65,
      "start": 5.4956,
      "duration": 0.1361,
      "velocity": 100,
      "chip": "ym2612"
    },
    {
      "channel": 3,
      "note": 58,
      "start": 5.5283,
      "duration": 0.0131,
      "velocity": 88,
      "chip": "ym2612"
    },
    {
      "channel": 1,
      "note": 89,
      "start": 5.5459,
      "duration": 0.0512,
      "velocity": 100,
      "chip": "ym2612"
    },
    {
      "channel": 3,
      "note": 58,
      "start": 5.5465,
      "duration": 0.0138,
      "velocity": 88,
      "chip": "ym2612"
    },
    {
      "channel": 3,
      "note": 58,
      "start": 5.5639,
      "duration": 0.0148,
      "velocity": 88,
      "chip": "ym2612"
    },
    {
      "channel": 1,
      "note": 91,
      "start": 5.6002,
      "duration": 0.0311,
      "velocity": 100,
      "chip": "ym2612"
    },
    {
      "channel": 3,
      "note": 58,
      "start": 5.6009,
      "duration": 0.0133,
      "velocity": 88,
      "chip": "ym2612"
    },
    {
      "channel": 3,
      "note": 58,
      "start": 5.6173,
      "duration": 0.0144,
      "velocity": 88,
      "chip": "ym2612"
    },
    {
      "channel": 1,
      "note": 91,
      "start": 5.6354,
      "duration": 0.1466,
      "velocity": 100,
      "chip": "ym2612"
    },
    {
      "channel": 2,
      "note": 75,
      "start": 5.6375,
      "duration": 0.2527,
      "velocity": 100,
      "chip": "ym2612"
    },
    {
      "channel": 3,
      "note": 56,
      "start": 5.6381,
      "duration": 0.015,
      "velocity": 88,
      "chip": "ym2612"
    },
    {
      "channel": 4,
      "note": 68,
      "start": 5.6402,
      "duration": 0.2503,
      "velocity": 100,
      "chip": "ym2612"
    },
    {
      "channel": 3,
      "note": 56,
      "start": 5.6751,
      "duration": 0.013,
      "velocity": 88,
      "chip": "ym2612"
    },
    {
      "channel": 3,
      "note": 56,
      "start": 5.6931,
      "duration": 0.014,
      "velocity": 88,
      "chip": "ym2612"
    },
    {
      "channel": 3,
      "note": 56,
      "start": 5.7111,
      "duration": 0.015,
      "velocity": 88,
      "chip": "ym2612"
    },
    {
      "channel": 3,
      "note": 56,
      "start": 5.7496,
      "duration": 0.0138,
      "velocity": 88,
      "chip": "ym2612"
    },
    {
      "channel": 3,
      "note": 56,
      "start": 5.7676,
      "duration": 0.0147,
      "velocity": 88,
      "chip": "ym2612"
    },
    {
      "channel": 1,
      "note": 91,
      "start": 5.7854,
      "duration": 0.0304,
      "velocity": 100,
      "chip": "ym2612"
    },
    {
      "channel": 3,
      "note": 56,
      "start": 5.786,
      "duration": 0.0134,
      "velocity": 88,
      "chip": "ym2612"
    },
    {
      "channel": 1,
      "note": 89,
      "start": 5.8195,
      "duration": 0.0322,
      "velocity": 100,
      "chip": "ym2612"
    },
    {
      "channel": 3,
      "note": 56,
      "start": 5.8201,
      "duration": 0.0134,
      "velocity": 88,
      "chip": "ym2612"
    },
    {
      "channel": 3,
      "note": 56,
      "start": 5.8376,
      "duration": 0.0144,
      "velocity": 88,
      "chip": "ym2612"
    },
    {
      "channel": 1,
      "note": 87,
      "start": 5.8552,
      "duration": 0.0349,
      "velocity": 100,
      "chip": "ym2612"
    },
    {
      "channel": 3,
      "note": 56,
      "start": 5.8558,
      "duration": 0.0152,
      "velocity": 88,
      "chip": "ym2612"
    },
    {
      "channel": 1,
      "note": 86,
      "start": 5.8934,
      "duration": 0.1766,
      "velocity": 100,
      "chip": "ym2612"
    },
    {
      "channel": 2,
      "note": 74,
      "start": 5.8939,
      "duration": 0.3205,
      "velocity": 100,
      "chip": "ym2612"
    },
    {
      "channel": 3,
      "note": 58,
      "start": 5.8944,
      "duration": 0.0488,
      "velocity": 88,
      "chip": "ym2612"
    },
    {
      "channel": 4,
      "note": 68,
      "start": 5.8949,
      "duration": 0.3197,
      "velocity": 100,
      "chip": "ym2612"
    },
    {
      "channel": 3,
      "note": 58,
      "start": 5.9634,
      "duration": 0.0129,
      "velocity": 88,
      "chip": "ym2612"
    },
    {
      "channel": 3,
      "note": 58,
      "start": 5.9813,
      "duration": 0.0138,
      "velocity": 88,
      "chip": "ym2612"
    },
    {
      "channel": 3,
      "note": 58,
      "start": 5.9991,
      "duration": 0.0156,
      "velocity": 88,
      "chip": "ym2612"
    },
    {
      "channel": 3,
      "note": 58,
      "start": 6.0375,
      "duration": 0.0137,
      "velocity": 88,
      "chip": "ym2612"
    },
    {
      "channel": 3,
      "note": 58,
      "start": 6.0554,
      "duration": 0.0148,
      "velocity": 88,
      "chip": "ym2612"
    },
    {
      "channel": 1,
      "note": 87,
      "start": 6.0734,
      "duration": 0.0662,
      "velocity": 100,
      "chip": "ym2612"
    },
    {
      "channel": 3,
      "note": 58,
      "start": 6.074,
      "duration": 0.0133,
      "velocity": 88,
      "chip": "ym2612"
    },
    {
      "channel": 3,
      "note": 58,
      "start": 6.1075,
      "duration": 0.0135,
      "velocity": 88,
      "chip": "ym2612"
    },
    {
      "channel": 3,
      "note": 58,
      "start": 6.1254,
      "duration": 0.0145,
      "velocity": 88,
      "chip": "ym2612"
    },
    {
      "channel": 1,
      "note": 89,
      "start": 6.1432,
      "duration": 0.0709,
      "velocity": 100,
      "chip": "ym2612"
    },
    {
      "channel": 3,
      "note": 58,
      "start": 6.1439,
      "duration": 0.0152,
      "velocity": 88,
      "chip": "ym2612"
    },
    {
      "channel": 3,
      "note": 58,
      "start": 6.182,
      "duration": 0.0134,
      "velocity": 88,
      "chip": "ym2612"
    },
    {
      "channel": 3,
      "note": 58,
      "start": 6.2008,
      "duration": 0.0137,
      "velocity": 88,
      "chip": "ym2612"
    },
    {
      "channel": 1,
      "note": 83,
      "start": 6.2179,
      "duration": 0.1401,
      "velocity": 100,
      "chip": "ym2612"
    },
    {
      "channel": 2,
      "note": 74,
      "start": 6.2185,
      "duration": 0.2835,
      "velocity": 100,
      "chip": "ym2612"
    },
    {
      "channel": 3,
      "note": 59,
      "start": 6.2191,
      "duration": 0.0135,
      "velocity": 88,
      "chip": "ym2612"
    },
    {
      "channel": 4,
      "note": 68,
      "start": 6.2197,
      "duration": 0.2826,
      "velocity": 100,
      "chip": "ym2612"
    },
    {
      "channel": 3,
      "note": 59,
      "start": 6.2518,
      "duration": 0.0128,
      "velocity": 88,
      "chip": "ym2612"
    },
    {
      "channel": 3,
      "note": 59,
      "start": 6.2705,
      "duration": 0.0129,
      "velocity": 88,
      "chip": "ym2612"
    },
    {
      "channel": 3,
      "note": 59,
      "start": 6.2874,
      "duration": 0.0149,
      "velocity": 88,
      "chip": "ym2612"
    },
    {
      "channel": 3,
      "note": 59,
      "start": 6.3256,
      "duration": 0.0136,
      "velocity": 88,
      "chip": "ym2612"
    },
    {
      "channel": 3,
      "note": 59,
      "start": 6.3445,
      "duration": 0.0138,
      "velocity": 88,
      "chip": "ym2612"
    },
    {
      "channel": 1,
      "note": 84,
      "start": 6.3615,
      "duration": 0.0662,
      "velocity": 100,
      "chip": "ym2612"
    },
    {
      "channel": 3,
      "note": 59,
      "start": 6.3621,
      "duration": 0.0134,
      "velocity": 88,
      "chip": "ym2612"
    },
    {
      "channel": 3,
      "note": 59,
      "start": 6.3957,
      "duration": 0.0133,
      "velocity": 88,
      "chip": "ym2612"
    },
    {
      "channel": 3,
      "note": 59,
      "start": 6.4144,
      "duration": 0.0136,
      "velocity": 88,
      "chip": "ym2612"
    },
    {
      "channel": 1,
      "note": 86,
      "start": 6.4313,
      "duration": 0.0706,
      "velocity": 100,
      "chip": "ym2612"
    },
    {
      "channel": 3,
      "note": 59,
      "start": 6.4319,
      "duration": 0.0154,
      "velocity": 88,
      "chip": "ym2612"
    },
    {
      "channel": 3,
      "note": 59,
      "start": 6.4699,
      "duration": 0.0134,
      "velocity": 88,
      "chip": "ym2612"
    },
    {
      "channel": 3,
      "note": 59,
      "start": 6.4886,
      "duration": 0.0136,
      "velocity": 88,
      "chip": "ym2612"
    },
    {
      "channel": 1,
      "note": 87,
      "start": 6.5058,
      "duration": 0.098,
      "velocity": 100,
      "chip": "ym2612"
    },
    {
      "channel": 2,
      "note": 74,
      "start": 6.5064,
      "duration": 0.3018,
      "velocity": 100,
      "chip": "ym2612"
    },
    {
      "channel": 3,
      "note": 55,
      "start": 6.507,
      "duration": 0.0139,
      "velocity": 88,
      "chip": "ym2612"
    },
    {
      "channel": 4,
      "note": 67,
      "start": 6.5076,
      "duration": 0.3009,
      "velocity": 100,
      "chip": "ym2612"
    },
    {
      "channel": 3,
      "note": 55,
      "start": 6.5413,
      "duration": 0.0134,
      "velocity": 88,
      "chip": "ym2612"
    },
    {
      "channel": 3,
      "note": 55,
      "start": 6.5585,
      "duration": 0.0134,
      "velocity": 88,
      "chip": "ym2612"
    },
    {
      "channel": 3,
      "note": 55,
      "start": 6.5749,
      "duration": 0.0129,
      "velocity": 88,
      "chip": "ym2612"
    },
    {
      "channel": 1,
      "note": 86,
      "start": 6.6085,
      "duration": 0.1996,
      "velocity": 100,
      "chip": "ym2612"
    },
    {
      "channel": 3,
      "note": 55,
      "start": 6.6091,
      "duration": 0.0152,
      "velocity": 88,
      "chip": "ym2612"
    },
    {
      "channel": 3,
      "note": 55,
      "start": 6.629,
      "duration": 0.0151,
      "velocity": 88,
      "chip": "ym2612"
    },
    {
      "channel": 3,
      "note": 55,
      "start": 6.6479,
      "duration": 0.0163,
      "velocity": 88,
      "chip": "ym2612"
    },
    {
      "channel": 3,
      "note": 55,
      "start": 6.669,
      "duration": 0.0164,
      "velocity": 88,
      "chip": "ym2612"
    },
    {
      "channel": 3,
      "note": 55,
      "start": 6.6888,
      "duration": 0.0163,
      "velocity": 88,
      "chip": "ym2612"
    },
    {
      "channel": 3,
      "note": 55,
      "start": 6.7099,
      "duration": 0.0164,
      "velocity": 88,
      "chip": "ym2612"
    },
    {
      "channel": 3,
      "note": 67,
      "start": 6.7297,
      "duration": 0.0051,
      "velocity": 88,
      "chip": "ym2612"
    },
    {
      "channel": 3,
      "note": 66,
      "start": 6.7378,
      "duration": 0.0028,
      "velocity": 88,
      "chip": "ym2612"
    },
    {
      "channel": 3,
      "note": 65,
      "start": 6.7437,
      "duration": 0.0027,
      "velocity": 88,
      "chip": "ym2612"
    },
    {
      "channel": 3,
      "note": 64,
      "start": 6.7509,
      "duration": 0.005,
      "velocity": 88,
      "chip": "ym2612"
    },
    {
      "channel": 3,
      "note": 63,
      "start": 6.7589,
      "duration": 0.0027,
      "velocity": 88,
      "chip": "ym2612"
    },
    {
      "channel": 3,
      "note": 62,
      "start": 6.7647,
      "duration": 0.0026,
      "velocity": 88,
      "chip": "ym2612"
    },
    {
      "channel": 3,
      "note": 61,
      "start": 6.7706,
      "duration": 0.005,
      "velocity": 88,
      "chip": "ym2612"
    },
    {
      "channel": 3,
      "note": 60,
      "start": 6.7786,
      "duration": 0.0028,
      "velocity": 88,
      "chip": "ym2612"
    },
    {
      "channel": 3,
      "note": 59,
      "start": 6.7845,
      "duration": 0.0027,
      "velocity": 88,
      "chip": "ym2612"
    },
    {
      "channel": 3,
      "note": 58,
      "start": 6.7918,
      "duration": 0.0051,
      "velocity": 88,
      "chip": "ym2612"
    },
    {
      "channel": 3,
      "note": 57,
      "start": 6.7999,
      "duration": 0.0027,
      "velocity": 88,
      "chip": "ym2612"
    },
    {
      "channel": 3,
      "note": 56,
      "start": 6.8056,
      "duration": 0.0028,
      "velocity": 88,
      "chip": "ym2612"
    },
    {
      "channel": 1,
      "note": 84,
      "start": 6.8134,
      "duration": 0.0321,
      "velocity": 107,
      "chip": "ym2612"
    },
    {
      "channel": 3,
      "note": 48,
      "start": 6.8157,
      "duration": 0.2971,
      "velocity": 88,
      "chip": "ym2612"
    },
    {
      "channel": 1,
      "note": 83,
      "start": 6.8484,
      "duration": 0.0046,
      "velocity": 107,
      "chip": "ym2612"
    },
    {
      "channel": 2,
      "note": 82,
      "start": 6.8494,
      "duration": 0.0171,
      "velocity": 97,
      "chip": "ym2612"
    },
    {
      "channel": 4,
      "note": 75,
      "start": 6.8506,
      "duration": 0.0162,
      "velocity": 97,
      "chip": "ym2612"
    },
    {
      "channel": 1,
      "note": 82,
      "start": 6.8557,
      "duration": 0.0023,
      "velocity": 107,
      "chip": "ym2612"
    },
    {
      "channel": 1,
      "note": 81,
      "start": 6.8607,
      "duration": 0.0023,
      "velocity": 107,
      "chip": "ym2612"
    },
    {
      "channel": 1,
      "note": 80,
      "start": 6.8664,
      "duration": 0.0024,
      "velocity": 107,
      "chip": "ym2612"
    },
    {
      "channel": 1,
      "note": 79,
      "start": 6.8714,
      "duration": 0.0023,
      "velocity": 107,
      "chip": "ym2612"
    },
    {
      "channel": 1,
      "note": 78,
      "start": 6.8765,
      "duration": 0.0023,
      "velocity": 107,
      "chip": "ym2612"
    },
    {
      "channel": 1,
      "note": 77,
      "start": 6.8816,
      "duration": 0.0023,
      "velocity": 107,
      "chip": "ym2612"
    },
    {
      "channel": 1,
      "note": 76,
      "start": 6.8866,
      "duration": 0.0023,
      "velocity": 107,
      "chip": "ym2612"
    },
    {
      "channel": 1,
      "note": 75,
      "start": 6.8915,
      "duration": 0.0023,
      "velocity": 107,
      "chip": "ym2612"
    },
    {
      "channel": 1,
      "note": 74,
      "start": 6.8973,
      "duration": 0.0033,
      "velocity": 107,
      "chip": "ym2612"
    },
    {
      "channel": 2,
      "note": 82,
      "start": 6.8978,
      "duration": 0.0166,
      "velocity": 97,
      "chip": "ym2612"
    },
    {
      "channel": 4,
      "note": 75,
      "start": 6.8984,
      "duration": 0.0162,
      "velocity": 97,
      "chip": "ym2612"
    },
    {
      "channel": 1,
      "note": 73,
      "start": 6.9032,
      "duration": 0.0023,
      "velocity": 107,
      "chip": "ym2612"
    },
    {
      "channel": 1,
      "note": 72,
      "start": 6.9082,
      "duration": 0.0023,
      "velocity": 107,
      "chip": "ym2612"
    },
    {
      "channel": 1,
      "note": 71,
      "start": 6.9142,
      "duration": 0.0178,
      "velocity": 107,
      "chip": "ym2612"
    },
    {
      "channel": 1,
      "note": 70,
      "start": 6.9503,
      "duration": 0.0177,
      "velocity": 107,
      "chip": "ym2612"
    },
    {
      "channel": 1,
      "note": 69,
      "start": 6.9864,
      "duration": 0.0177,
      "velocity": 107,
      "chip": "ym2612"
    },
    {
      "channel": 1,
      "note": 68,
      "start": 7.0229,
      "duration": 0.0174,
      "velocity": 107,
      "chip": "ym2612"
    },
    {
      "channel": 2,
      "note": 82,
      "start": 7.0234,
      "duration": 0.0892,
      "velocity": 97,
      "chip": "ym2612"
    },
    {
      "channel": 4,
      "note": 75,
      "start": 7.024,
      "duration": 0.0889,
      "velocity": 97,
      "chip": "ym2612"
    },
    {
      "channel": 1,
      "note": 67,
      "start": 7.0586,
      "duration": 0.0178,
      "velocity": 107,
      "chip": "ym2612"
    },
    {
      "channel": 1,
      "note": 66,
      "start": 7.0948,
      "duration": 0.0177,
      "velocity": 107,
      "chip": "ym2612"
    },
    {
      "channel": 2,
      "note": 81,
      "start": 7.1312,
      "duration": 0.0898,
      "velocity": 97,
      "chip": "ym2612"
    },
    {
      "channel": 3,
      "note": 48,
      "start": 7.1317,
      "duration": 0.0894,
      "velocity": 88,
      "chip": "ym2612"
    },
    {
      "channel": 4,
      "note": 75,
      "start": 7.1322,
      "duration": 0.089,
      "velocity": 97,
      "chip": "ym2612"
    },
    {
      "channel": 2,
      "note": 82,
      "start": 7.2395,
      "duration": 0.0898,
      "velocity": 97,
      "chip": "ym2612"
    },
    {
      "channel": 3,
      "note": 51,
      "start": 7.24,
      "duration": 0.0894,
      "velocity": 88,
      "chip": "ym2612"
    },
    {
      "channel": 4,
      "note": 75,
      "start": 7.2405,
      "duration": 0.089,
      "velocity": 97,
      "chip": "ym2612"
    },
    {
      "channel": 2,
      "note": 82,
      "start": 7.3476,
      "duration": 0.0899,
      "velocity": 97,
      "chip": "ym2612"
    },
    {
      "channel": 3,
      "note": 53,
      "start": 7.3482,
      "duration": 0.0895,
      "velocity": 88,
      "chip": "ym2612"
    },
    {
      "channel": 4,
      "note": 75,
      "start": 7.3487,
      "duration": 0.0892,
      "velocity": 97,
      "chip": "ym2612"
    },
    {
      "channel": 2,
      "note": 82,
      "start": 7.4562,
      "duration": 0.0897,
      "velocity": 97,
      "chip": "ym2612"
    },
    {
      "channel": 3,
      "note": 48,
      "start": 7.4567,
      "duration": 0.0894,
      "velocity": 88,
      "chip": "ym2612"
    },
    {
      "channel": 4,
      "note": 75,
      "start": 7.4572,
      "duration": 0.089,
      "velocity": 97,
      "chip": "ym2612"
    },
    {
      "channel": 2,
      "note": 82,
      "start": 7.5644,
      "duration": 0.0125,
      "velocity": 97,
      "chip": "ym2612"
    },
    {
      "channel": 3,
      "note": 58,
      "start": 7.5649,
      "duration": 0.0121,
      "velocity": 88,
      "chip": "ym2612"
    },
    {
      "channel": 4,
      "note": 75,
      "start": 7.5654,
      "duration": 0.0118,
      "velocity": 97,
      "chip": "ym2612"
    },
    {
      "channel": 2,
      "note": 82,
      "start": 7.5804,
      "duration": 0.0145,
      "velocity": 97,
      "chip": "ym2612"
    },
    {
      "channel": 3,
      "note": 51,
      "start": 7.5809,
      "duration": 0.0141,
      "velocity": 88,
      "chip": "ym2612"
    },
    {
      "channel": 4,
      "note": 75,
      "start": 7.5814,
      "duration": 0.0137,
      "velocity": 97,
      "chip": "ym2612"
    },
    {
      "channel": 2,
      "note": 82,
      "start": 7.5979,
      "duration": 0.0126,
      "velocity": 97,
      "chip": "ym2612"
    },
    {
      "channel": 3,
      "note": 53,
      "start": 7.5983,
      "duration": 0.0123,
      "velocity": 88,
      "chip": "ym2612"
    },
    {
      "channel": 4,
      "note": 75,
      "start": 7.5988,
      "duration": 0.0119,
      "velocity": 97,
      "chip": "ym2612"
    },
    {
      "channel": 2,
      "note": 82,
      "start": 7.6139,
      "duration": 0.0125,
      "velocity": 97,
      "chip": "ym2612"
    },
    {
      "channel": 3,
      "note": 60,
      "start": 7.6144,
      "duration": 0.0122,
      "velocity": 88,
      "chip": "ym2612"
    },
    {
      "channel": 4,
      "note": 75,
      "start": 7.6149,
      "duration": 0.0118,
      "velocity": 97,
      "chip": "ym2612"
    },
    {
      "channel": 1,
      "note": 48,
      "start": 7.6341,
      "duration": 0.0136,
      "velocity": 88,
      "chip": "ym2612"
    },
    {
      "channel": 3,
      "note": 48,
      "start": 7.635,
      "duration": 0.1359,
      "velocity": 88,
      "chip": "ym2612"
    },
    {
      "channel": 1,
      "note": 48,
      "start": 7.6517,
      "duration": 0.0128,
      "velocity": 88,
      "chip": "ym2612"
    },
    {
      "channel": 1,
      "note": 60,
      "start": 7.6675,
      "duration": 0.0137,
      "velocity": 88,
      "chip": "ym2612"
    },
    {
      "channel": 2,
      "note": 81,
      "start": 7.668,
      "duration": 0.0133,
      "velocity": 97,
      "chip": "ym2612"
    },
    {
      "channel": 4,
      "note": 75,
      "start": 7.6686,
      "duration": 0.013,
      "velocity": 97,
      "chip": "ym2612"
    },
    {
      "channel": 1,
      "note": 48,
      "start": 7.6873,
      "duration": 0.0127,
      "velocity": 88,
      "chip": "ym2612"
    },
    {
      "channel": 1,
      "note": 48,
      "start": 7.703,
      "duration": 0.0126,
      "velocity": 88,
      "chip": "ym2612"
    },
    {
      "channel": 1,
      "note": 60,
      "start": 7.7191,
      "duration": 0.0138,
      "velocity": 88,
      "chip": "ym2612"
    },
    {
      "channel": 2,
      "note": 81,
      "start": 7.7196,
      "duration": 0.0134,
      "velocity": 97,
      "chip": "ym2612"
    },
    {
      "channel": 4,
      "note": 75,
      "start": 7.7202,
      "duration": 0.013,
      "velocity": 97,
      "chip": "ym2612"
    },
    {
      "channel": 1,
      "note": 48,
      "start": 7.7388,
      "duration": 0.0124,
      "velocity": 88,
      "chip": "ym2612"
    },
    {
      "channel": 1,
      "note": 48,
      "start": 7.7574,
      "duration": 0.0134,
      "velocity": 88,
      "chip": "ym2612"
    },
    {
      "channel": 2,
      "note": 81,
      "start": 7.7579,
      "duration": 0.0129,
      "velocity": 97,
      "chip": "ym2612"
    },
    {
      "channel": 4,
      "note": 75,
      "start": 7.7585,
      "duration": 0.0126,
      "velocity": 97,
      "chip": "ym2612"
    },
    {
      "channel": 1,
      "note": 48,
      "start": 7.7759,
      "duration": 0.0137,
      "velocity": 88,
      "chip": "ym2612"
    },
    {
      "channel": 2,
      "note": 81,
      "start": 7.7764,
      "duration": 0.0134,
      "velocity": 97,
      "chip": "ym2612"
    },
    {
      "channel": 3,
      "note": 60,
      "start": 7.7769,
      "duration": 0.013,
      "velocity": 88,
      "chip": "ym2612"
    },
    {
      "channel": 4,
      "note": 75,
      "start": 7.7774,
      "duration": 0.0127,
      "velocity": 97,
      "chip": "ym2612"
    },
    {
      "channel": 1,
      "note": 48,
      "start": 7.7954,
      "duration": 0.0133,
      "velocity": 88,
      "chip": "ym2612"
    },
    {
      "channel": 3,
      "note": 48,
      "start": 7.7959,
      "duration": 0.0129,
      "velocity": 88,
      "chip": "ym2612"
    },
    {
      "channel": 1,
      "note": 60,
      "start": 7.8114,
      "duration": 0.0138,
      "velocity": 88,
      "chip": "ym2612"
    },
    {
      "channel": 2,
      "note": 81,
      "start": 7.8119,
      "duration": 0.0135,
      "velocity": 97,
      "chip": "ym2612"
    },
    {
      "channel": 3,
      "note": 48,
      "start": 7.8124,
      "duration": 0.0132,
      "velocity": 88,
      "chip": "ym2612"
    },
    {
      "channel": 4,
      "note": 75,
      "start": 7.8129,
      "duration": 0.0128,
      "velocity": 97,
      "chip": "ym2612"
    },
    {
      "channel": 1,
      "note": 48,
      "start": 7.831,
      "duration": 0.0132,
      "velocity": 88,
      "chip": "ym2612"
    },
    {
      "channel": 3,
      "note": 48,
      "start": 7.8316,
      "duration": 0.0129,
      "velocity": 88,
      "chip": "ym2612"
    },
    {
      "channel": 1,
      "note": 48,
      "start": 7.8505,
      "duration": 0.0132,
      "velocity": 88,
      "chip": "ym2612"
    },
    {
      "channel": 3,
      "note": 60,
      "start": 7.8513,
      "duration": 0.0128,
      "velocity": 88,
      "chip": "ym2612"
    },
    {
      "channel": 1,
      "note": 60,
      "start": 7.87,
      "duration": 0.0141,
      "velocity": 88,
      "chip": "ym2612"
    },
    {
      "channel": 2,
      "note": 81,
      "start": 7.8705,
      "duration": 0.0326,
      "velocity": 97,
      "chip": "ym2612"
    },
    {
      "channel": 3,
      "note": 48,
      "start": 7.871,
      "duration": 0.0133,
      "velocity": 88,
      "chip": "ym2612"
    },
    {
      "channel": 4,
      "note": 75,
      "start": 7.8715,
      "duration": 0.0319,
      "velocity": 97,
      "chip": "ym2612"
    },
    {
      "channel": 1,
      "note": 48,
      "start": 7.8897,
      "duration": 0.0132,
      "velocity": 88,
      "chip": "ym2612"
    },
    {
      "channel": 3,
      "note": 48,
      "start": 7.8903,
      "duration": 0.0129,
      "velocity": 88,
      "chip": "ym2612"
    },
    {
      "channel": 1,
      "note": 48,
      "start": 7.9093,
      "duration": 0.0141,
      "velocity": 88,
      "chip": "ym2612"
    },
    {
      "channel": 2,
      "note": 81,
      "start": 7.9098,
      "duration": 0.0137,
      "velocity": 97,
      "chip": "ym2612"
    },
    {
      "channel": 3,
      "note": 48,
      "start": 7.9103,
      "duration": 0.0134,
      "velocity": 88,
      "chip": "ym2612"
    },
    {
      "channel": 4,
      "note": 75,
      "start": 7.9108,
      "duration": 0.013,
      "velocity": 97,
      "chip": "ym2612"
    },
    {
      "channel": 1,
      "note": 48,
      "start": 7.9266,
      "duration": 0.0163,
      "velocity": 88,
      "chip": "ym2612"
    },
    {
      "channel": 3,
      "note": 60,
      "start": 7.929,
      "duration": 0.0143,
      "velocity": 88,
      "chip": "ym2612"
    },
    {
      "channel": 1,
      "note": 48,
      "start": 7.9466,
      "duration": 0.0127,
      "velocity": 88,
      "chip": "ym2612"
    },
    {
      "channel": 3,
      "note": 48,
      "start": 7.9472,
      "duration": 0.0124,
      "velocity": 88,
      "chip": "ym2612"
    },
    {
      "channel": 1,
      "note": 60,
      "start": 7.9623,
      "duration": 0.0134,
      "velocity": 88,
      "chip": "ym2612"
    },
    {
      "channel": 2,
      "note": 82,
      "start": 7.9628,
      "duration": 0.0173,
      "velocity": 97,
      "chip": "ym2612"
    },
    {
      "channel": 3,
      "note": 48,
      "start": 7.9633,
      "duration": 0.0126,
      "velocity": 88,
      "chip": "ym2612"
    },
    {
      "channel": 4,
      "note": 75,
      "start": 7.9638,
      "duration": 0.017,
      "velocity": 97,
      "chip": "ym2612"
    },
    {
      "channel": 1,
      "note": 48,
      "start": 7.98,
      "duration": 0.0132,
      "velocity": 88,
      "chip": "ym2612"
    },
    {
      "channel": 3,
      "note": 48,
      "start": 7.9806,
      "duration": 0.0128,
      "velocity": 88,
      "chip": "ym2612"
    },
    {
      "channel": 1,
      "note": 48,
      "start": 7.9963,
      "duration": 0.0147,
      "velocity": 88,
      "chip": "ym2612"
    },
    {
      "channel": 3,
      "note": 60,
      "start": 7.9969,
      "duration": 0.0144,
      "velocity": 88,
      "chip": "ym2612"
    },
    {
      "channel": 1,
      "note": 60,
      "start": 8.0146,
      "duration": 0.0137,
      "velocity": 88,
      "chip": "ym2612"
    },
    {
      "channel": 2,
      "note": 82,
      "start": 8.0151,
      "duration": 0.0162,
      "velocity": 97,
      "chip": "ym2612"
    },
    {
      "channel": 3,
      "note": 48,
      "start": 8.0157,
      "duration": 0.0129,
      "velocity": 88,
      "chip": "ym2612"
    },
    {
      "channel": 4,
      "note": 75,
      "start": 8.0162,
      "duration": 0.0159,
      "velocity": 97,
      "chip": "ym2612"
    },
    {
      "channel": 1,
      "note": 48,
      "start": 8.0312,
      "duration": 0.0127,
      "velocity": 88,
      "chip": "ym2612"
    },
    {
      "channel": 3,
      "note": 48,
      "start": 8.0319,
      "duration": 0.0122,
      "velocity": 88,
      "chip": "ym2612"
    },
    {
      "channel": 1,
      "note": 48,
      "start": 8.048,
      "duration": 0.0137,
      "velocity": 88,
      "chip": "ym2612"
    },
    {
      "channel": 2,
      "note": 82,
      "start": 8.0486,
      "duration": 0.0133,
      "velocity": 97,
      "chip": "ym2612"
    },
    {
      "channel": 3,
      "note": 48,
      "start": 8.0491,
      "duration": 0.0129,
      "velocity": 88,
      "chip": "ym2612"
    },
    {
      "channel": 4,
      "note": 75,
      "start": 8.0496,
      "duration": 0.0126,
      "velocity": 97,
      "chip": "ym2612"
    },
    {
      "channel": 1,
      "note": 48,
      "start": 8.0648,
      "duration": 0.0137,
      "velocity": 88,
      "chip": "ym2612"
    },
    {
      "channel": 2,
      "note": 81,
      "start": 8.0653,
      "duration": 0.0133,
      "velocity": 97,
      "chip": "ym2612"
    },
    {
      "channel": 3,
      "note": 60,
      "start": 8.0658,
      "duration": 0.0129,
      "velocity": 88,
      "chip": "ym2612"
    },
    {
      "channel": 4,
      "note": 75,
      "start": 8.0663,
      "duration": 0.0126,
      "velocity": 97,
      "chip": "ym2612"
    },
    {
      "channel": 1,
      "note": 48,
      "start": 8.0847,
      "duration": 0.0137,
      "velocity": 88,
      "chip": "ym2612"
    },
    {
      "channel": 2,
      "note": 82,
      "start": 8.0852,
      "duration": 0.0134,
      "velocity": 97,
      "chip": "ym2612"
    },
    {
      "channel": 3,
      "note": 48,
      "start": 8.0858,
      "duration": 0.013,
      "velocity": 88,
      "chip": "ym2612"
    },
    {
      "channel": 4,
      "note": 75,
      "start": 8.0863,
      "duration": 0.0127,
      "velocity": 97,
      "chip": "ym2612"
    },
    {
      "channel": 1,
      "note": 60,
      "start": 8.1015,
      "duration": 0.0134,
      "velocity": 88,
      "chip": "ym2612"
    },
    {
      "channel": 2,
      "note": 82,
      "start": 8.102,
      "duration": 0.0131,
      "velocity": 97,
      "chip": "ym2612"
    },
    {
      "channel": 3,
      "note": 48,
      "start": 8.1025,
      "duration": 0.0127,
      "velocity": 88,
      "chip": "ym2612"
    },
    {
      "channel": 4,
      "note": 75,
      "start": 8.103,
      "duration": 0.0123,
      "velocity": 97,
      "chip": "ym2612"
    },
    {
      "channel": 1,
      "note": 48,
      "start": 8.1185,
      "duration": 0.0138,
      "velocity": 88,
      "chip": "ym2612"
    },
    {
      "channel": 2,
      "note": 82,
      "start": 8.119,
      "duration": 0.0134,
      "velocity": 97,
      "chip": "ym2612"
    },
    {
      "channel": 3,
      "note": 48,
      "start": 8.1195,
      "duration": 0.013,
      "velocity": 88,
      "chip": "ym2612"
    },
    {
      "channel": 4,
      "note": 75,
      "start": 8.1201,
      "duration": 0.0126,
      "velocity": 97,
      "chip": "ym2612"
    },
    {
      "channel": 1,
      "note": 48,
      "start": 8.1353,
      "duration": 0.0137,
      "velocity": 88,
      "chip": "ym2612"
    },
    {
      "channel": 2,
      "note": 82,
      "start": 8.1358,
      "duration": 0.0133,
      "velocity": 97,
      "chip": "ym2612"
    },
    {
      "channel": 3,
      "note": 60,
      "start": 8.1363,
      "duration": 0.0131,
      "velocity": 88,
      "chip": "ym2612"
    },
    {
      "channel": 4,
      "note": 75,
      "start": 8.1368,
      "duration": 0.0127,
      "velocity": 97,
      "chip": "ym2612"
    },
    {
      "channel": 1,
      "note": 60,
      "start": 8.1554,
      "duration": 0.0137,
      "velocity": 88,
      "chip": "ym2612"
    },
    {
      "channel": 2,
      "note": 82,
      "start": 8.1559,
      "duration": 0.0134,
      "velocity": 97,
      "chip": "ym2612"
    },
    {
      "channel": 3,
      "note": 48,
      "start": 8.1564,
      "duration": 0.013,
      "velocity": 88,
      "chip": "ym2612"
    },
    {
      "channel": 4,
      "note": 75,
      "start": 8.1569,
      "duration": 0.0126,
      "velocity": 97,
      "chip": "ym2612"
    },
    {
      "channel": 1,
      "note": 48,
      "start": 8.172,
      "duration": 0.0134,
      "velocity": 88,
      "chip": "ym2612"
    },
    {
      "channel": 2,
      "note": 82,
      "start": 8.1725,
      "duration": 0.0131,
      "velocity": 97,
      "chip": "ym2612"
    },
    {
      "channel": 3,
      "note": 48,
      "start": 8.173,
      "duration": 0.0127,
      "velocity": 88,
      "chip": "ym2612"
    },
    {
      "channel": 4,
      "note": 75,
      "start": 8.1735,
      "duration": 0.0124,
      "velocity": 97,
      "chip": "ym2612"
    },
    {
      "channel": 1,
      "note": 48,
      "start": 8.189,
      "duration": 0.0137,
      "velocity": 88,
      "chip": "ym2612"
    },
    {
      "channel": 2,
      "note": 82,
      "start": 8.1895,
      "duration": 0.0133,
      "velocity": 97,
      "chip": "ym2612"
    },
    {
      "channel": 3,
      "note": 48,
      "start": 8.1901,
      "duration": 0.013,
      "velocity": 88,
      "chip": "ym2612"
    },
    {
      "channel": 4,
      "note": 75,
      "start": 8.1906,
      "duration": 0.0126,
      "velocity": 97,
      "chip": "ym2612"
    },
    {
      "channel": 1,
      "note": 48,
      "start": 8.2059,
      "duration": 0.0129,
      "velocity": 88,
      "chip": "ym2612"
    },
    {
      "channel": 3,
      "note": 60,
      "start": 8.2068,
      "duration": 0.0121,
      "velocity": 88,
      "chip": "ym2612"
    },
    {
      "channel": 1,
      "note": 48,
      "start": 8.2227,
      "duration": 0.0133,
      "velocity": 88,
      "chip": "ym2612"
    },
    {
      "channel": 3,
      "note": 48,
      "start": 8.2232,
      "duration": 0.0129,
      "velocity": 88,
      "chip": "ym2612"
    },
    {
      "channel": 1,
      "note": 60,
      "start": 8.2387,
      "duration": 0.0142,
      "velocity": 88,
      "chip": "ym2612"
    },
    {
      "channel": 2,
      "note": 81,
      "start": 8.2392,
      "duration": 0.0138,
      "velocity": 97,
      "chip": "ym2612"
    },
    {
      "channel": 3,
      "note": 48,
      "start": 8.2397,
      "duration": 0.0135,
      "velocity": 88,
      "chip": "ym2612"
    },
    {
      "channel": 4,
      "note": 75,
      "start": 8.2402,
      "duration": 0.0131,
      "velocity": 97,
      "chip": "ym2612"
    },
    {
      "channel": 1,
      "note": 48,
      "start": 8.2567,
      "duration": 0.0133,
      "velocity": 88,
      "chip": "ym2612"
    },
    {
      "channel": 3,
      "note": 48,
      "start": 8.2573,
      "duration": 0.0129,
      "velocity": 88,
      "chip": "ym2612"
    },
    {
      "channel": 1,
      "note": 48,
      "start": 8.2728,
      "duration": 0.0128,
      "velocity": 88,
      "chip": "ym2612"
    },
    {
      "channel": 3,
      "note": 60,
      "start": 8.2733,
      "duration": 0.0124,
      "velocity": 88,
      "chip": "ym2612"
    },
    {
      "channel": 1,
      "note": 60,
      "start": 8.289,
      "duration": 0.0138,
      "velocity": 88,
      "chip": "ym2612"
    },
    {
      "channel": 2,
      "note": 81,
      "start": 8.2896,
      "duration": 0.0134,
      "velocity": 97,
      "chip": "ym2612"
    },
    {
      "channel": 3,
      "note": 48,
      "start": 8.29,
      "duration": 0.0131,
      "velocity": 88,
      "chip": "ym2612"
    },
    {
      "channel": 4,
      "note": 75,
      "start": 8.2906,
      "duration": 0.0127,
      "velocity": 97,
      "chip": "ym2612"
    },
    {
      "channel": 1,
      "note": 48,
      "start": 8.3058,
      "duration": 0.0129,
      "velocity": 88,
      "chip": "ym2612"
    },
    {
      "channel": 3,
      "note": 48,
      "start": 8.3064,
      "duration": 0.0126,
      "velocity": 88,
      "chip": "ym2612"
    },
    {
      "channel": 1,
      "note": 48,
      "start": 8.3222,
      "duration": 0.0139,
      "velocity": 88,
      "chip": "ym2612"
    },
    {
      "channel": 2,
      "note": 81,
      "start": 8.3227,
      "duration": 0.0135,
      "velocity": 97,
      "chip": "ym2612"
    },
    {
      "channel": 3,
      "note": 48,
      "start": 8.3232,
      "duration": 0.0132,
      "velocity": 88,
      "chip": "ym2612"
    },
    {
      "channel": 4,
      "note": 75,
      "start": 8.3238,
      "duration": 0.0127,
      "velocity": 97,
      "chip": "ym2612"
    },
    {
      "channel": 1,
      "note": 48,
      "start": 8.3391,
      "duration": 0.0143,
      "velocity": 88,
      "chip": "ym2612"
    },
    {
      "channel": 2,
      "note": 81,
      "start": 8.3396,
      "duration": 0.014,
      "velocity": 97,
      "chip": "ym2612"
    },
    {
      "channel": 3,
      "note": 60,
      "start": 8.3401,
      "duration": 0.0137,
      "velocity": 88,
      "chip": "ym2612"
    },
    {
      "channel": 4,
      "note": 75,
      "start": 8.3406,
      "duration": 0.0133,
      "velocity": 97,
      "chip": "ym2612"
    },
    {
      "channel": 1,
      "note": 48,
      "start": 8.3588,
      "duration": 0.0159,
      "velocity": 88,
      "chip": "ym2612"
    },
    {
      "channel": 3,
      "note": 48,
      "start": 8.3593,
      "duration": 0.0156,
      "velocity": 88,
      "chip": "ym2612"
    },
    {
      "channel": 1,
      "note": 60,
      "start": 8.3777,
      "duration": 0.0142,
      "velocity": 88,
      "chip": "ym2612"
    },
    {
      "channel": 2,
      "note": 81,
      "start": 8.3781,
      "duration": 0.014,
      "velocity": 97,
      "chip": "ym2612"
    },
    {
      "channel": 3,
      "note": 48,
      "start": 8.3786,
      "duration": 0.0136,
      "velocity": 88,
      "chip": "ym2612"
    },
    {
      "channel": 4,
      "note": 75,
      "start": 8.3791,
      "duration": 0.0132,
      "velocity": 97,
      "chip": "ym2612"
    },
    {
      "channel": 1,
      "note": 48,
      "start": 8.3973,
      "duration": 0.0158,
      "velocity": 88,
      "chip": "ym2612"
    },
    {
      "channel": 3,
      "note": 48,
      "start": 8.3979,
      "duration": 0.0155,
      "velocity": 88,
      "chip": "ym2612"
    },
    {
      "channel": 1,
      "note": 48,
      "start": 8.4161,
      "duration": 0.0132,
      "velocity": 88,
      "chip": "ym2612"
    },
    {
      "channel": 3,
      "note": 60,
      "start": 8.4169,
      "duration": 0.0127,
      "velocity": 88,
      "chip": "ym2612"
    },
    {
      "channel": 1,
      "note": 60,
      "start": 8.4329,
      "duration": 0.0137,
      "velocity": 88,
      "chip": "ym2612"
    },
    {
      "channel": 2,
      "note": 81,
      "start": 8.4334,
      "duration": 0.031,
      "velocity": 97,
      "chip": "ym2612"
    },
    {
      "channel": 3,
      "note": 48,
      "start": 8.4339,
      "duration": 0.0129,
      "velocity": 88,
      "chip": "ym2612"
    },
    {
      "channel": 4,
      "note": 75,
      "start": 8.4344,
      "duration": 0.0303,
      "velocity": 97,
      "chip": "ym2612"
    },
    {
      "channel": 1,
      "note": 48,
      "start": 8.4495,
      "duration": 0.0148,
      "velocity": 88,
      "chip": "ym2612"
    },
    {
      "channel": 3,
      "note": 48,
      "start": 8.45,
      "duration": 0.0145,
      "velocity": 88,
      "chip": "ym2612"
    },
    {
      "channel": 1,
      "note": 48,
      "start": 8.4681,
      "duration": 0.0157,
      "velocity": 88,
      "chip": "ym2612"
    },
    {
      "channel": 2,
      "note": 81,
      "start": 8.4686,
      "duration": 0.0153,
      "velocity": 97,
      "chip": "ym2612"
    },
    {
      "channel": 3,
      "note": 48,
      "start": 8.4691,
      "duration": 0.015,
      "velocity": 88,
      "chip": "ym2612"
    },
    {
      "channel": 4,
      "note": 75,
      "start": 8.4697,
      "duration": 0.0145,
      "velocity": 97,
      "chip": "ym2612"
    },
    {
      "channel": 1,
      "note": 60,
      "start": 8.4921,
      "duration": 0.0143,
      "velocity": 121,
      "chip": "ym2612"
    },
    {
      "channel": 3,
      "note": 48,
      "start": 8.4932,
      "duration": 0.0214,
      "velocity": 88,
      "chip": "ym2612"
    },
    {
      "channel": 1,
      "note": 65,
      "start": 8.5099,
      "duration": 0.0113,
      "velocity": 121,
      "chip": "ym2612"
    },
    {
      "channel": 1,
      "note": 72,
      "start": 8.5239,
      "duration": 0.0134,
      "velocity": 121,
      "chip": "ym2612"
    },
    {
      "channel": 2,
      "note": 82,
      "start": 8.5257,
      "duration": 0.0152,
      "velocity": 97,
      "chip": "ym2612"
    },
    {
      "channel": 4,
      "note": 75,
      "start": 8.5263,
      "duration": 0.0149,
      "velocity": 97,
      "chip": "ym2612"
    },
    {
      "channel": 1,
      "note": 60,
      "start": 8.5408,
      "duration": 0.0915,
      "velocity": 121,
      "chip": "ym2612"
    },
    {
      "channel": 3,
      "note": 60,
      "start": 8.5555,
      "duration": 0.0151,
      "velocity": 88,
      "chip": "ym2612"
    },
    {
      "channel": 2,
      "note": 82,
      "start": 8.5705,
      "duration": 0.0141,
      "velocity": 97,
      "chip": "ym2612"
    },
    {
      "channel": 4,
      "note": 75,
      "start": 8.5712,
      "duration": 0.0136,
      "velocity": 97,
      "chip": "ym2612"
    },
    {
      "channel": 2,
      "note": 82,
      "start": 8.5995,
      "duration": 0.1956,
      "velocity": 97,
      "chip": "ym2612"
    },
    {
      "channel": 4,
      "note": 75,
      "start": 8.6002,
      "duration": 0.1952,
      "velocity": 97,
      "chip": "ym2612"
    },
    {
      "channel": 1,
      "note": 70,
      "start": 8.6507,
      "duration": 0.0117,
      "velocity": 121,
      "chip": "ym2612"
    },
    {
      "channel": 1,
      "note": 67,
      "start": 8.6659,
      "duration": 0.0112,
      "velocity": 121,
      "chip": "ym2612"
    },
    {
      "channel": 1,
      "note": 68,
      "start": 8.681,
      "duration": 0.0121,
      "velocity": 121,
      "chip": "ym2612"
    },
    {
      "channel": 3,
      "note": 60,
      "start": 8.6815,
      "duration": 0.0293,
      "velocity": 88,
      "chip": "ym2612"
    },
    {
      "channel": 1,
      "note": 67,
      "start": 8.6989,
      "duration": 0.0116,
      "velocity": 121,
      "chip": "ym2612"
    },
    {
      "channel": 1,
      "note": 65,
      "start": 8.7133,
      "duration": 0.0141,
      "velocity": 121,
      "chip": "ym2612"
    },
    {
      "channel": 3,
      "note": 55,
      "start": 8.7139,
      "duration": 0.0336,
      "velocity": 88,
      "chip": "ym2612"
    },
    {
      "channel": 1,
      "note": 67,
      "start": 8.7339,
      "duration": 0.0133,
      "velocity": 121,
      "chip": "ym2612"
    },
    {
      "channel": 1,
      "note": 65,
      "start": 8.7503,
      "duration": 0.0135,
      "velocity": 121,
      "chip": "ym2612"
    },
    {
      "channel": 3,
      "note": 48,
      "start": 8.7509,
      "duration": 0.0444,
      "velocity": 88,
      "chip": "ym2612"
    },
    {
      "channel": 1,
      "note": 63,
      "start": 8.7678,
      "duration": 0.0272,
      "velocity": 121,
      "chip": "ym2612"
    },
    {
      "channel": 1,
      "note": 65,
      "start": 8.8135,
      "duration": 0.0129,
      "velocity": 121,
      "chip": "ym2612"
    },
    {
      "channel": 3,
      "note": 48,
      "start": 8.8145,
      "duration": 0.02,
      "velocity": 88,
      "chip": "ym2612"
    },
    {
      "channel": 1,
      "note": 67,
      "start": 8.8297,
      "duration": 0.0138,
      "velocity": 121,
      "chip": "ym2612"
    },
    {
      "channel": 2,
      "note": 81,
      "start": 8.8441,
      "duration": 0.0147,
      "velocity": 97,
      "chip": "ym2612"
    },
    {
      "channel": 4,
      "note": 75,
      "start": 8.8447,
      "duration": 0.0143,
      "velocity": 97,
      "chip": "ym2612"
    },
    {
      "channel": 3,
      "note": 60,
      "start": 8.8791,
      "duration": 0.0152,
      "velocity": 88,
      "chip": "ym2612"
    },
    {
      "channel": 2,
      "note": 81,
      "start": 8.8942,
      "duration": 0.0143,
      "velocity": 97,
      "chip": "ym2612"
    },
    {
      "channel": 4,
      "note": 75,
      "start": 8.8948,
      "duration": 0.0139,
      "velocity": 97,
      "chip": "ym2612"
    },
    {
      "channel": 2,
      "note": 81,
      "start": 8.9233,
      "duration": 0.1889,
      "velocity": 97,
      "chip": "ym2612"
    },
    {
      "channel": 4,
      "note": 75,
      "start": 8.9239,
      "duration": 0.1887,
      "velocity": 97,
      "chip": "ym2612"
    },
    {
      "channel": 1,
      "note": 63,
      "start": 8.9744,
      "duration": 0.0026,
      "velocity": 121,
      "chip": "ym2612"
    },
    {
      "channel": 1,
      "note": 65,
      "start": 8.9797,
      "duration": 0.0246,
      "velocity": 121,
      "chip": "ym2612"
    },
    {
      "channel": 1,
      "note": 63,
      "start": 9.0071,
      "duration": 0.0123,
      "velocity": 121,
      "chip": "ym2612"
    },
    {
      "channel": 3,
      "note": 60,
      "start": 9.0078,
      "duration": 0.0297,
      "velocity": 88,
      "chip": "ym2612"
    },
    {
      "channel": 1,
      "note": 60,
      "start": 9.0254,
      "duration": 0.0119,
      "velocity": 121,
      "chip": "ym2612"
    },
    {
      "channel": 1,
      "note": 58,
      "start": 9.04,
      "duration": 0.0127,
      "velocity": 121,
      "chip": "ym2612"
    },
    {
      "channel": 3,
      "note": 55,
      "start": 9.0406,
      "duration": 0.0318,
      "velocity": 88,
      "chip": "ym2612"
    },
    {
      "channel": 1,
      "note": 60,
      "start": 9.0585,
      "duration": 0.0135,
      "velocity": 121,
      "chip": "ym2612"
    },
    {
      "channel": 1,
      "note": 63,
      "start": 9.0764,
      "duration": 0.0164,
      "velocity": 121,
      "chip": "ym2612"
    },
    {
      "channel": 3,
      "note": 48,
      "start": 9.077,
      "duration": 0.0355,
      "velocity": 88,
      "chip": "ym2612"
    },
    {
      "channel": 1,
      "note": 65,
      "start": 9.0967,
      "duration": 0.0154,
      "velocity": 121,
      "chip": "ym2612"
    },
    {
      "channel": 1,
      "note": 58,
      "start": 9.1172,
      "duration": 0.0151,
      "velocity": 121,
      "chip": "ym2612"
    },
    {
      "channel": 3,
      "note": 48,
      "start": 9.1183,
      "duration": 0.0214,
      "velocity": 88,
      "chip": "ym2612"
    },
    {
      "channel": 1,
      "note": 60,
      "start": 9.1349,
      "duration": 0.0115,
      "velocity": 121,
      "chip": "ym2612"
    },
    {
      "channel": 2,
      "note": 82,
      "start": 9.1505,
      "duration": 0.0151,
      "velocity": 97,
      "chip": "ym2612"
    },
    {
      "channel": 4,
      "note": 75,
      "start": 9.1512,
      "duration": 0.0147,
      "velocity": 97,
      "chip": "ym2612"
    },
    {
      "channel": 1,
      "note": 60,
      "start": 9.1655,
      "duration": 0.0116,
      "velocity": 121,
      "chip": "ym2612"
    },
    {
      "channel": 3,
      "note": 60,
      "start": 9.1829,
      "duration": 0.0155,
      "velocity": 88,
      "chip": "ym2612"
    },
    {
      "channel": 1,
      "note": 58,
      "start": 9.1977,
      "duration": 0.0123,
      "velocity": 121,
      "chip": "ym2612"
    },
    {
      "channel": 2,
      "note": 82,
      "start": 9.1982,
      "duration": 0.0147,
      "velocity": 97,
      "chip": "ym2612"
    },
    {
      "channel": 4,
      "note": 75,
      "start": 9.1989,
      "duration": 0.0142,
      "velocity": 97,
      "chip": "ym2612"
    },
    {
      "channel": 1,
      "note": 60,
      "start": 9.2127,
      "duration": 0.0115,
      "velocity": 121,
      "chip": "ym2612"
    },
    {
      "channel": 1,
      "note": 58,
      "start": 9.2275,
      "duration": 0.0321,
      "velocity": 121,
      "chip": "ym2612"
    },
    {
      "channel": 2,
      "note": 82,
      "start": 9.228,
      "duration": 0.1943,
      "velocity": 97,
      "chip": "ym2612"
    },
    {
      "channel": 4,
      "note": 75,
      "start": 9.2287,
      "duration": 0.1939,
      "velocity": 97,
      "chip": "ym2612"
    },
    {
      "channel": 1,
      "note": 67,
      "start": 9.278,
      "duration": 0.0122,
      "velocity": 121,
      "chip": "ym2612"
    },
    {
      "channel": 1,
      "note": 65,
      "start": 9.2929,
      "duration": 0.0113,
      "velocity": 121,
      "chip": "ym2612"
    },
    {
      "channel": 1,
      "note": 63,
      "start": 9.3081,
      "duration": 0.0127,
      "velocity": 121,
      "chip": "ym2612"
    },
    {
      "channel": 3,
      "note": 60,
      "start": 9.3087,
      "duration": 0.0293,
      "velocity": 88,
      "chip": "ym2612"
    },
    {
      "channel": 1,
      "note": 62,
      "start": 9.326,
      "duration": 0.0117,
      "velocity": 121,
      "chip": "ym2612"
    },
    {
      "channel": 1,
      "note": 60,
      "start": 9.3405,
      "duration": 0.0146,
      "velocity": 121,
      "chip": "ym2612"
    },
    {
      "channel": 3,
      "note": 55,
      "start": 9.341,
      "duration": 0.0334,
      "velocity": 88,
      "chip": "ym2612"
    },
    {
      "channel": 1,
      "note": 62,
      "start": 9.3608,
      "duration": 0.0133,
      "velocity": 121,
      "chip": "ym2612"
    },
    {
      "channel": 1,
      "note": 70,
      "start": 9.3773,
      "duration": 0.0145,
      "velocity": 121,
      "chip": "ym2612"
    },
    {
      "channel": 3,
      "note": 48,
      "start": 9.3778,
      "duration": 0.0446,
      "velocity": 88,
      "chip": "ym2612"
    },
    {
      "channel": 1,
      "note": 58,
      "start": 9.3949,
      "duration": 0.0273,
      "velocity": 121,
      "chip": "ym2612"
    },
    {
      "channel": 1,
      "note": 60,
      "start": 9.4407,
      "duration": 0.0134,
      "velocity": 121,
      "chip": "ym2612"
    },
    {
      "channel": 3,
      "note": 48,
      "start": 9.4417,
      "duration": 0.0198,
      "velocity": 88,
      "chip": "ym2612"
    },
    {
      "channel": 1,
      "note": 60,
      "start": 9.4568,
      "duration": 0.0115,
      "velocity": 121,
      "chip": "ym2612"
    },
    {
      "channel": 1,
      "note": 60,
      "start": 9.4709,
      "duration": 0.0128,
      "velocity": 121,
      "chip": "ym2612"
    },
    {
      "channel": 2,
      "note": 81,
      "start": 9.4714,
      "duration": 0.0151,
      "velocity": 97,
      "chip": "ym2612"
    },
    {
      "channel": 4,
      "note": 75,
      "start": 9.472,
      "duration": 0.0147,
      "velocity": 97,
      "chip": "ym2612"
    },
    {
      "channel": 1,
      "note": 62,
      "start": 9.4863,
      "duration": 0.0116,
      "velocity": 121,
      "chip": "ym2612"
    },
    {
      "channel": 1,
      "note": 62,
      "start": 9.5059,
      "duration": 0.0127,
      "velocity": 121,
      "chip": "ym2612"
    },
    {
      "channel": 3,
      "note": 60,
      "start": 9.5065,
      "duration": 0.0157,
      "velocity": 88,
      "chip": "ym2612"
    },
    {
      "channel": 1,
      "note": 62,
      "start": 9.5215,
      "duration": 0.0128,
      "velocity": 121,
      "chip": "ym2612"
    },
    {
      "channel": 2,
      "note": 81,
      "start": 9.522,
      "duration": 0.015,
      "velocity": 97,
      "chip": "ym2612"
    },
    {
      "channel": 4,
      "note": 75,
      "start": 9.5227,
      "duration": 0.0146,
      "velocity": 97,
      "chip": "ym2612"
    },
    {
      "channel": 1,
      "note": 63,
      "start": 9.537,
      "duration": 0.012,
      "velocity": 121,
      "chip": "ym2612"
    },
    {
      "channel": 1,
      "note": 63,
      "start": 9.5517,
      "duration": 0.0128,
      "velocity": 121,
      "chip": "ym2612"
    },
    {
      "channel": 2,
      "note": 81,
      "start": 9.5522,
      "duration": 0.1505,
      "velocity": 97,
      "chip": "ym2612"
    },
    {
      "channel": 4,
      "note": 75,
      "start": 9.5529,
      "duration": 0.1502,
      "velocity": 97,
      "chip": "ym2612"
    },
    {
      "channel": 1,
      "note": 63,
      "start": 9.5672,
      "duration": 0.0119,
      "velocity": 121,
      "chip": "ym2612"
    },
    {
      "channel": 3,
      "note": 63,
      "start": 9.5678,
      "duration": 0.0115,
      "velocity": 88,
      "chip": "ym2612"
    },
    {
      "channel": 1,
      "note": 65,
      "start": 9.5822,
      "duration": 0.0129,
      "velocity": 121,
      "chip": "ym2612"
    },
    {
      "channel": 3,
      "note": 62,
      "start": 9.5828,
      "duration": 0.0124,
      "velocity": 88,
      "chip": "ym2612"
    },
    {
      "channel": 1,
      "note": 65,
      "start": 9.5976,
      "duration": 0.0126,
      "velocity": 121,
      "chip": "ym2612"
    },
    {
      "channel": 3,
      "note": 60,
      "start": 9.5982,
      "duration": 0.0122,
      "velocity": 88,
      "chip": "ym2612"
    },
    {
      "channel": 1,
      "note": 65,
      "start": 9.6131,
      "duration": 0.0122,
      "velocity": 121,
      "chip": "ym2612"
    },
    {
      "channel": 3,
      "note": 62,
      "start": 9.6137,
      "duration": 0.0118,
      "velocity": 88,
      "chip": "ym2612"
    },
    {
      "channel": 1,
      "note": 65,
      "start": 9.6285,
      "duration": 0.0056,
      "velocity": 121,
      "chip": "ym2612"
    },
    {
      "channel": 3,
      "note": 65,
      "start": 9.6291,
      "duration": 0.014,
      "velocity": 88,
      "chip": "ym2612"
    },
    {
      "channel": 1,
      "note": 67,
      "start": 9.6374,
      "duration": 0.0055,
      "velocity": 121,
      "chip": "ym2612"
    },
    {
      "channel": 1,
      "note": 65,
      "start": 9.6461,
      "duration": 0.0169,
      "velocity": 121,
      "chip": "ym2612"
    },
    {
      "channel": 3,
      "note": 63,
      "start": 9.6468,
      "duration": 0.0165,
      "velocity": 88,
      "chip": "ym2612"
    },
    {
      "channel": 1,
      "note": 63,
      "start": 9.6667,
      "duration": 0.0166,
      "velocity": 121,
      "chip": "ym2612"
    },
    {
      "channel": 3,
      "note": 62,
      "start": 9.6673,
      "duration": 0.0163,
      "velocity": 88,
      "chip": "ym2612"
    },
    {
      "channel": 1,
      "note": 62,
      "start": 9.6867,
      "duration": 0.0159,
      "velocity": 121,
      "chip": "ym2612"
    },
    {
      "channel": 3,
      "note": 58,
      "start": 9.6874,
      "duration": 0.0156,
      "velocity": 88,
      "chip": "ym2612"
    },
    {
      "channel": 1,
      "note": 72,
      "start": 9.7074,
      "duration": 0.0148,
      "velocity": 121,
      "chip": "ym2612"
    },
    {
      "channel": 3,
      "note": 48,
      "start": 9.7085,
      "duration": 0.028,
      "velocity": 88,
      "chip": "ym2612"
    },
    {
      "channel": 1,
      "note": 65,
      "start": 9.7248,
      "duration": 0.0115,
      "velocity": 121,
      "chip": "ym2612"
    },
    {
      "channel": 1,
      "note": 72,
      "start": 9.739,
      "duration": 0.0139,
      "velocity": 121,
      "chip": "ym2612"
    },
    {
      "channel": 2,
      "note": 82,
      "start": 9.7408,
      "duration": 0.015,
      "velocity": 97,
      "chip": "ym2612"
    },
    {
      "channel": 4,
      "note": 75,
      "start": 9.7415,
      "duration": 0.015,
      "velocity": 97,
      "chip": "ym2612"
    },
    {
      "channel": 1,
      "note": 60,
      "start": 9.7556,
      "duration": 0.0356,
      "velocity": 121,
      "chip": "ym2612"
    },
    {
      "channel": 3,
      "note": 48,
      "start": 9.7563,
      "duration": 0.0119,
      "velocity": 88,
      "chip": "ym2612"
    },
    {
      "channel": 3,
      "note": 60,
      "start": 9.7709,
      "duration": 0.0306,
      "velocity": 88,
      "chip": "ym2612"
    },
    {
      "channel": 2,
      "note": 82,
      "start": 9.7885,
      "duration": 0.0156,
      "velocity": 97,
      "chip": "ym2612"
    },
    {
      "channel": 4,
      "note": 75,
      "start": 9.7892,
      "duration": 0.0156,
      "velocity": 97,
      "chip": "ym2612"
    },
    {
      "channel": 1,
      "note": 59,
      "start": 9.7938,
      "duration": 0.0024,
      "velocity": 121,
      "chip": "ym2612"
    },
    {
      "channel": 1,
      "note": 58,
      "start": 9.7988,
      "duration": 0.0025,
      "velocity": 121,
      "chip": "ym2612"
    },
    {
      "channel": 1,
      "note": 57,
      "start": 9.804,
      "duration": 0.0028,
      "velocity": 121,
      "chip": "ym2612"
    },
    {
      "channel": 3,
      "note": 48,
      "start": 9.8046,
      "duration": 0.0132,
      "velocity": 88,
      "chip": "ym2612"
    },
    {
      "channel": 1,
      "note": 56,
      "start": 9.8095,
      "duration": 0.0023,
      "velocity": 121,
      "chip": "ym2612"
    },
    {
      "channel": 1,
      "note": 55,
      "start": 9.8145,
      "duration": 0.0031,
      "velocity": 121,
      "chip": "ym2612"
    },
    {
      "channel": 1,
      "note": 54,
      "start": 9.8203,
      "duration": 0.0036,
      "velocity": 121,
      "chip": "ym2612"
    },
    {
      "channel": 2,
      "note": 82,
      "start": 9.8209,
      "duration": 0.1912,
      "velocity": 97,
      "chip": "ym2612"
    },
    {
      "channel": 3,
      "note": 60,
      "start": 9.8213,
      "duration": 0.0293,
      "velocity": 88,
      "chip": "ym2612"
    },
    {
      "channel": 4,
      "note": 75,
      "start": 9.8218,
      "duration": 0.1905,
      "velocity": 97,
      "chip": "ym2612"
    },
    {
      "channel": 1,
      "note": 53,
      "start": 9.8266,
      "duration": 0.0023,
      "velocity": 121,
      "chip": "ym2612"
    },
    {
      "channel": 1,
      "note": 52,
      "start": 9.8327,
      "duration": 0.0178,
      "velocity": 121,
      "chip": "ym2612"
    },
    {
      "channel": 1,
      "note": 70,
      "start": 9.8688,
      "duration": 0.0126,
      "velocity": 121,
      "chip": "ym2612"
    },
    {
      "channel": 3,
      "note": 63,
      "start": 9.8694,
      "duration": 0.0122,
      "velocity": 88,
      "chip": "ym2612"
    },
    {
      "channel": 1,
      "note": 67,
      "start": 9.8842,
      "duration": 0.012,
      "velocity": 121,
      "chip": "ym2612"
    },
    {
      "channel": 3,
      "note": 62,
      "start": 9.8848,
      "duration": 0.0116,
      "velocity": 88,
      "chip": "ym2612"
    },
    {
      "channel": 1,
      "note": 68,
      "start": 9.899,
      "duration": 0.0126,
      "velocity": 121,
      "chip": "ym2612"
    },
    {
      "channel": 3,
      "note": 60,
      "start": 9.8996,
      "duration": 0.0122,
      "velocity": 88,
      "chip": "ym2612"
    },
    {
      "channel": 1,
      "note": 67,
      "start": 9.917,
      "duration": 0.0123,
      "velocity": 121,
      "chip": "ym2612"
    },
    {
      "channel": 3,
      "note": 62,
      "start": 9.9175,
      "duration": 0.0119,
      "velocity": 88,
      "chip": "ym2612"
    },
    {
      "channel": 1,
      "note": 65,
      "start": 9.932,
      "duration": 0.0129,
      "velocity": 121,
      "chip": "ym2612"
    },
    {
      "channel": 3,
      "note": 65,
      "start": 9.9325,
      "duration": 0.0125,
      "velocity": 88,
      "chip": "ym2612"
    },
    {
      "channel": 1,
      "note": 67,
      "start": 9.9506,
      "duration": 0.0138,
      "velocity": 121,
      "chip": "ym2612"
    },
    {
      "channel": 3,
      "note": 63,
      "start": 9.9512,
      "duration": 0.0135,
      "velocity": 88,
      "chip": "ym2612"
    },
    {
      "channel": 1,
      "note": 65,
      "start": 9.9676,
      "duration": 0.0144,
      "velocity": 121,
      "chip": "ym2612"
    },
    {
      "channel": 3,
      "note": 62,
      "start": 9.9681,
      "duration": 0.0141,
      "velocity": 88,
      "chip": "ym2612"
    },
    {
      "channel": 1,
      "note": 63,
      "start": 9.9851,
      "duration": 0.0268,
      "velocity": 121,
      "chip": "ym2612"
    },
    {
      "channel": 3,
      "note": 63,
      "start": 9.9857,
      "duration": 0.0265,
      "velocity": 88,
      "chip": "ym2612"
    },
    {
      "channel": 1,
      "note": 65,
      "start": 10.0304,
      "duration": 0.0134,
      "velocity": 121,
      "chip": "ym2612"
    },
    {
      "channel": 3,
      "note": 48,
      "start": 10.0314,
      "duration": 0.0269,
      "velocity": 88,
      "chip": "ym2612"
    },
    {
      "channel": 1,
      "note": 67,
      "start": 10.0466,
      "duration": 0.0798,
      "velocity": 121,
      "chip": "ym2612"
    },
    {
      "channel": 2,
      "note": 81,
      "start": 10.0609,
      "duration": 0.018,
      "velocity": 97,
      "chip": "ym2612"
    },
    {
      "channel": 4,
      "note": 75,
      "start": 10.0615,
      "duration": 0.0181,
      "velocity": 97,
      "chip": "ym2612"
    },
    {
      "channel": 3,
      "note": 48,
      "start": 10.0795,
      "duration": 0.012,
      "velocity": 88,
      "chip": "ym2612"
    },
    {
      "channel": 3,
      "note": 60,
      "start": 10.0942,
      "duration": 0.03,
      "velocity": 88,
      "chip": "ym2612"
    },
    {
      "channel": 2,
      "note": 81,
      "start": 10.1121,
      "duration": 0.0144,
      "velocity": 97,
      "chip": "ym2612"
    },
    {
      "channel": 4,
      "note": 75,
      "start": 10.1127,
      "duration": 0.0144,
      "velocity": 97,
      "chip": "ym2612"
    },
    {
      "channel": 3,
      "note": 48,
      "start": 10.1269,
      "duration": 0.0121,
      "velocity": 88,
      "chip": "ym2612"
    },
    {
      "channel": 2,
      "note": 81,
      "start": 10.1417,
      "duration": 0.1875,
      "velocity": 97,
      "chip": "ym2612"
    },
    {
      "channel": 3,
      "note": 60,
      "start": 10.1422,
      "duration": 0.032,
      "velocity": 88,
      "chip": "ym2612"
    },
    {
      "channel": 4,
      "note": 75,
      "start": 10.1427,
      "duration": 0.1868,
      "velocity": 97,
      "chip": "ym2612"
    },
    {
      "channel": 1,
      "note": 63,
      "start": 10.1924,
      "duration": 0.0031,
      "velocity": 121,
      "chip": "ym2612"
    },
    {
      "channel": 3,
      "note": 63,
      "start": 10.193,
      "duration": 0.0129,
      "velocity": 88,
      "chip": "ym2612"
    },
    {
      "channel": 1,
      "note": 65,
      "start": 10.1981,
      "duration": 0.0246,
      "velocity": 121,
      "chip": "ym2612"
    },
    {
      "channel": 3,
      "note": 62,
      "start": 10.2107,
      "duration": 0.0123,
      "velocity": 88,
      "chip": "ym2612"
    },
    {
      "channel": 1,
      "note": 63,
      "start": 10.2289,
      "duration": 0.0129,
      "velocity": 121,
      "chip": "ym2612"
    },
    {
      "channel": 3,
      "note": 60,
      "start": 10.2295,
      "duration": 0.0124,
      "velocity": 88,
      "chip": "ym2612"
    },
    {
      "channel": 1,
      "note": 60,
      "start": 10.2468,
      "duration": 0.0122,
      "velocity": 121,
      "chip": "ym2612"
    },
    {
      "channel": 3,
      "note": 62,
      "start": 10.2474,
      "duration": 0.0118,
      "velocity": 88,
      "chip": "ym2612"
    },
    {
      "channel": 1,
      "note": 58,
      "start": 10.2618,
      "duration": 0.0128,
      "velocity": 121,
      "chip": "ym2612"
    },
    {
      "channel": 3,
      "note": 65,
      "start": 10.2623,
      "duration": 0.0125,
      "velocity": 88,
      "chip": "ym2612"
    },
    {
      "channel": 1,
      "note": 60,
      "start": 10.2776,
      "duration": 0.0139,
      "velocity": 121,
      "chip": "ym2612"
    },
    {
      "channel": 3,
      "note": 63,
      "start": 10.2782,
      "duration": 0.0135,
      "velocity": 88,
      "chip": "ym2612"
    },
    {
      "channel": 1,
      "note": 63,
      "start": 10.2946,
      "duration": 0.0148,
      "velocity": 121,
      "chip": "ym2612"
    },
    {
      "channel": 3,
      "note": 62,
      "start": 10.2951,
      "duration": 0.0145,
      "velocity": 88,
      "chip": "ym2612"
    },
    {
      "channel": 1,
      "note": 65,
      "start": 10.3131,
      "duration": 0.016,
      "velocity": 121,
      "chip": "ym2612"
    },
    {
      "channel": 3,
      "note": 63,
      "start": 10.3137,
      "duration": 0.0157,
      "velocity": 88,
      "chip": "ym2612"
    },
    {
      "channel": 1,
      "note": 58,
      "start": 10.3339,
      "duration": 0.015,
      "velocity": 121,
      "chip": "ym2612"
    },
    {
      "channel": 3,
      "note": 48,
      "start": 10.3349,
      "duration": 0.0283,
      "velocity": 88,
      "chip": "ym2612"
    },
    {
      "channel": 1,
      "note": 60,
      "start": 10.3516,
      "duration": 0.0113,
      "velocity": 121,
      "chip": "ym2612"
    },
    {
      "channel": 2,
      "note": 82,
      "start": 10.3671,
      "duration": 0.0156,
      "velocity": 97,
      "chip": "ym2612"
    },
    {
      "channel": 4,
      "note": 75,
      "start": 10.3676,
      "duration": 0.0156,
      "velocity": 97,
      "chip": "ym2612"
    },
    {
      "channel": 1,
      "note": 60,
      "start": 10.3824,
      "duration": 0.0125,
      "velocity": 121,
      "chip": "ym2612"
    },
    {
      "channel": 3,
      "note": 48,
      "start": 10.3831,
      "duration": 0.012,
      "velocity": 88,
      "chip": "ym2612"
    },
    {
      "channel": 3,
      "note": 60,
      "start": 10.3977,
      "duration": 0.0301,
      "velocity": 88,
      "chip": "ym2612"
    },
    {
      "channel": 1,
      "note": 58,
      "start": 10.4154,
      "duration": 0.0122,
      "velocity": 121,
      "chip": "ym2612"
    },
    {
      "channel": 2,
      "note": 82,
      "start": 10.4159,
      "duration": 0.0146,
      "velocity": 97,
      "chip": "ym2612"
    },
    {
      "channel": 4,
      "note": 75,
      "start": 10.4166,
      "duration": 0.0146,
      "velocity": 97,
      "chip": "ym2612"
    },
    {
      "channel": 1,
      "note": 60,
      "start": 10.4303,
      "duration": 0.0126,
      "velocity": 121,
      "chip": "ym2612"
    },
    {
      "channel": 3,
      "note": 48,
      "start": 10.431,
      "duration": 0.0122,
      "velocity": 88,
      "chip": "ym2612"
    },
    {
      "channel": 1,
      "note": 58,
      "start": 10.4457,
      "duration": 0.0315,
      "velocity": 121,
      "chip": "ym2612"
    },
    {
      "channel": 2,
      "note": 82,
      "start": 10.4462,
      "duration": 0.1922,
      "velocity": 97,
      "chip": "ym2612"
    },
    {
      "channel": 3,
      "note": 60,
      "start": 10.4467,
      "duration": 0.0307,
      "velocity": 88,
      "chip": "ym2612"
    },
    {
      "channel": 4,
      "note": 75,
      "start": 10.4472,
      "duration": 0.1915,
      "velocity": 97,
      "chip": "ym2612"
    },
    {
      "channel": 1,
      "note": 67,
      "start": 10.4955,
      "duration": 0.0128,
      "velocity": 121,
      "chip": "ym2612"
    },
    {
      "channel": 3,
      "note": 63,
      "start": 10.4961,
      "duration": 0.0124,
      "velocity": 88,
      "chip": "ym2612"
    },
    {
      "channel": 1,
      "note": 65,
      "start": 10.511,
      "duration": 0.0117,
      "velocity": 121,
      "chip": "ym2612"
    },
    {
      "channel": 3,
      "note": 62,
      "start": 10.5116,
      "duration": 0.0114,
      "velocity": 88,
      "chip": "ym2612"
    },
    {
      "channel": 1,
      "note": 63,
      "start": 10.5258,
      "duration": 0.0129,
      "velocity": 121,
      "chip": "ym2612"
    },
    {
      "channel": 3,
      "note": 60,
      "start": 10.5263,
      "duration": 0.0125,
      "velocity": 88,
      "chip": "ym2612"
    },
    {
      "channel": 1,
      "note": 62,
      "start": 10.5438,
      "duration": 0.012,
      "velocity": 121,
      "chip": "ym2612"
    },
    {
      "channel": 3,
      "note": 62,
      "start": 10.5443,
      "duration": 0.0117,
      "velocity": 88,
      "chip": "ym2612"
    },
    {
      "channel": 1,
      "note": 60,
      "start": 10.5585,
      "duration": 0.0127,
      "velocity": 121,
      "chip": "ym2612"
    },
    {
      "channel": 3,
      "note": 65,
      "start": 10.559,
      "duration": 0.0125,
      "velocity": 88,
      "chip": "ym2612"
    },
    {
      "channel": 1,
      "note": 62,
      "start": 10.5771,
      "duration": 0.0138,
      "velocity": 121,
      "chip": "ym2612"
    },
    {
      "channel": 3,
      "note": 63,
      "start": 10.5776,
      "duration": 0.0135,
      "velocity": 88,
      "chip": "ym2612"
    },
    {
      "channel": 1,
      "note": 70,
      "start": 10.5939,
      "duration": 0.0145,
      "velocity": 121,
      "chip": "ym2612"
    },
    {
      "channel": 3,
      "note": 62,
      "start": 10.5945,
      "duration": 0.0142,
      "velocity": 88,
      "chip": "ym2612"
    },
    {
      "channel": 1,
      "note": 58,
      "start": 10.6115,
      "duration": 0.0268,
      "velocity": 121,
      "chip": "ym2612"
    },
    {
      "channel": 3,
      "note": 63,
      "start": 10.612,
      "duration": 0.0266,
      "velocity": 88,
      "chip": "ym2612"
    },
    {
      "channel": 1,
      "note": 60,
      "start": 10.6569,
      "duration": 0.0281,
      "velocity": 121,
      "chip": "ym2612"
    },
    {
      "channel": 3,
      "note": 48,
      "start": 10.6578,
      "duration": 0.0274,
      "velocity": 88,
      "chip": "ym2612"
    },
    {
      "channel": 1,
      "note": 60,
      "start": 10.6876,
      "duration": 0.0137,
      "velocity": 121,
      "chip": "ym2612"
    },
    {
      "channel": 2,
      "note": 81,
      "start": 10.688,
      "duration": 0.0161,
      "velocity": 97,
      "chip": "ym2612"
    },
    {
      "channel": 4,
      "note": 75,
      "start": 10.6887,
      "duration": 0.0161,
      "velocity": 97,
      "chip": "ym2612"
    },
    {
      "channel": 1,
      "note": 62,
      "start": 10.704,
      "duration": 0.0275,
      "velocity": 121,
      "chip": "ym2612"
    },
    {
      "channel": 3,
      "note": 48,
      "start": 10.7046,
      "duration": 0.0121,
      "velocity": 88,
      "chip": "ym2612"
    },
    {
      "channel": 3,
      "note": 60,
      "start": 10.7193,
      "duration": 0.0276,
      "velocity": 88,
      "chip": "ym2612"
    },
    {
      "channel": 1,
      "note": 62,
      "start": 10.7342,
      "duration": 0.0126,
      "velocity": 121,
      "chip": "ym2612"
    },
    {
      "channel": 2,
      "note": 81,
      "start": 10.7347,
      "duration": 0.0149,
      "velocity": 97,
      "chip": "ym2612"
    },
    {
      "channel": 4,
      "note": 75,
      "start": 10.7354,
      "duration": 0.0149,
      "velocity": 97,
      "chip": "ym2612"
    },
    {
      "channel": 1,
      "note": 63,
      "start": 10.7495,
      "duration": 0.0282,
      "velocity": 121,
      "chip": "ym2612"
    },
    {
      "channel": 3,
      "note": 48,
      "start": 10.7501,
      "duration": 0.0125,
      "velocity": 88,
      "chip": "ym2612"
    },
    {
      "channel": 2,
      "note": 81,
      "start": 10.7652,
      "duration": 0.1538,
      "velocity": 97,
      "chip": "ym2612"
    },
    {
      "channel": 3,
      "note": 60,
      "start": 10.7656,
      "duration": 0.0122,
      "velocity": 88,
      "chip": "ym2612"
    },
    {
      "channel": 4,
      "note": 75,
      "start": 10.7661,
      "duration": 0.1531,
      "velocity": 97,
      "chip": "ym2612"
    },
    {
      "channel": 1,
      "note": 63,
      "start": 10.7804,
      "duration": 0.0133,
      "velocity": 121,
      "chip": "ym2612"
    },
    {
      "channel": 3,
      "note": 63,
      "start": 10.7809,
      "duration": 0.0131,
      "velocity": 88,
      "chip": "ym2612"
    },
    {
      "channel": 1,
      "note": 65,
      "start": 10.7984,
      "duration": 0.0306,
      "velocity": 121,
      "chip": "ym2612"
    },
    {
      "channel": 3,
      "note": 62,
      "start": 10.799,
      "duration": 0.0146,
      "velocity": 88,
      "chip": "ym2612"
    },
    {
      "channel": 3,
      "note": 60,
      "start": 10.8162,
      "duration": 0.0131,
      "velocity": 88,
      "chip": "ym2612"
    },
    {
      "channel": 1,
      "note": 65,
      "start": 10.8319,
      "duration": 0.0126,
      "velocity": 121,
      "chip": "ym2612"
    },
    {
      "channel": 3,
      "note": 62,
      "start": 10.8324,
      "duration": 0.0123,
      "velocity": 88,
      "chip": "ym2612"
    },
    {
      "channel": 1,
      "note": 65,
      "start": 10.8479,
      "duration": 0.0053,
      "velocity": 121,
      "chip": "ym2612"
    },
    {
      "channel": 3,
      "note": 65,
      "start": 10.8484,
      "duration": 0.0136,
      "velocity": 88,
      "chip": "ym2612"
    },
    {
      "channel": 1,
      "note": 67,
      "start": 10.8564,
      "duration": 0.0054,
      "velocity": 121,
      "chip": "ym2612"
    },
    {
      "channel": 1,
      "note": 65,
      "start": 10.8658,
      "duration": 0.0157,
      "velocity": 121,
      "chip": "ym2612"
    },
    {
      "channel": 3,
      "note": 63,
      "start": 10.8664,
      "duration": 0.0154,
      "velocity": 88,
      "chip": "ym2612"
    },
    {
      "channel": 1,
      "note": 63,
      "start": 10.8846,
      "duration": 0.0149,
      "velocity": 121,
      "chip": "ym2612"
    },
    {
      "channel": 3,
      "note": 62,
      "start": 10.8851,
      "duration": 0.0145,
      "velocity": 88,
      "chip": "ym2612"
    },
    {
      "channel": 1,
      "note": 62,
      "start": 10.903,
      "duration": 0.0158,
      "velocity": 121,
      "chip": "ym2612"
    },
    {
      "channel": 3,
      "note": 63,
      "start": 10.9036,
      "duration": 0.0154,
      "velocity": 88,
      "chip": "ym2612"
    },
    {
      "channel": 1,
      "note": 91,
      "start": 10.9256,
      "duration": 0.1392,
      "velocity": 100,
      "chip": "ym2612"
    },
    {
      "channel": 2,
      "note": 75,
      "start": 10.9282,
      "duration": 0.2458,
      "velocity": 100,
      "chip": "ym2612"
    },
    {
      "channel": 3,
      "note": 56,
      "start": 10.9288,
      "duration": 0.0167,
      "velocity": 88,
      "chip": "ym2612"
    },
    {
      "channel": 4,
      "note": 68,
      "start": 10.9315,
      "duration": 0.2428,
      "velocity": 100,
      "chip": "ym2612"
    },
    {
      "channel": 3,
      "note": 56,
      "start": 10.9633,
      "duration": 0.0138,
      "velocity": 88,
      "chip": "ym2612"
    },
    {
      "channel": 3,
      "note": 56,
      "start": 10.981,
      "duration": 0.0129,
      "velocity": 88,
      "chip": "ym2612"
    },
    {
      "channel": 3,
      "note": 56,
      "start": 10.9968,
      "duration": 0.014,
      "velocity": 88,
      "chip": "ym2612"
    },
    {
      "channel": 3,
      "note": 56,
      "start": 11.0334,
      "duration": 0.0146,
      "velocity": 88,
      "chip": "ym2612"
    },
    {
      "channel": 3,
      "note": 56,
      "start": 11.0512,
      "duration": 0.0138,
      "velocity": 88,
      "chip": "ym2612"
    },
    {
      "channel": 1,
      "note": 91,
      "start": 11.0689,
      "duration": 0.0307,
      "velocity": 100,
      "chip": "ym2612"
    },
    {
      "channel": 3,
      "note": 56,
      "start": 11.0695,
      "duration": 0.0144,
      "velocity": 88,
      "chip": "ym2612"
    },
    {
      "channel": 1,
      "note": 89,
      "start": 11.1031,
      "duration": 0.0312,
      "velocity": 100,
      "chip": "ym2612"
    },
    {
      "channel": 3,
      "note": 56,
      "start": 11.1037,
      "duration": 0.0144,
      "velocity": 88,
      "chip": "ym2612"
    },
    {
      "channel": 3,
      "note": 56,
      "start": 11.1212,
      "duration": 0.0133,
      "velocity": 88,
      "chip": "ym2612"
    },
    {
      "channel": 1,
      "note": 87,
      "start": 11.1386,
      "duration": 0.0352,
      "velocity": 100,
      "chip": "ym2612"
    },
    {
      "channel": 3,
      "note": 56,
      "start": 11.1392,
      "duration": 0.0163,
      "velocity": 88,
      "chip": "ym2612"
    },
    {
      "channel": 1,
      "note": 86,
      "start": 11.1769,
      "duration": 0.1727,
      "velocity": 100,
      "chip": "ym2612"
    },
    {
      "channel": 2,
      "note": 74,
      "start": 11.1775,
      "duration": 0.3163,
      "velocity": 100,
      "chip": "ym2612"
    },
    {
      "channel": 3,
      "note": 58,
      "start": 11.178,
      "duration": 0.0505,
      "velocity": 88,
      "chip": "ym2612"
    },
    {
      "channel": 4,
      "note": 68,
      "start": 11.1785,
      "duration": 0.3155,
      "velocity": 100,
      "chip": "ym2612"
    },
    {
      "channel": 3,
      "note": 58,
      "start": 11.2475,
      "duration": 0.014,
      "velocity": 88,
      "chip": "ym2612"
    },
    {
      "channel": 3,
      "note": 58,
      "start": 11.2654,
      "duration": 0.0131,
      "velocity": 88,
      "chip": "ym2612"
    },
    {
      "channel": 3,
      "note": 58,
      "start": 11.2815,
      "duration": 0.0146,
      "velocity": 88,
      "chip": "ym2612"
    },
    {
      "channel": 3,
      "note": 58,
      "start": 11.3181,
      "duration": 0.0146,
      "velocity": 88,
      "chip": "ym2612"
    },
    {
      "channel": 3,
      "note": 58,
      "start": 11.336,
      "duration": 0.0139,
      "velocity": 88,
      "chip": "ym2612"
    },
    {
      "channel": 1,
      "note": 87,
      "start": 11.3538,
      "duration": 0.0655,
      "velocity": 100,
      "chip": "ym2612"
    },
    {
      "channel": 3,
      "note": 58,
      "start": 11.3544,
      "duration": 0.0144,
      "velocity": 88,
      "chip": "ym2612"
    },
    {
      "channel": 3,
      "note": 58,
      "start": 11.3881,
      "duration": 0.0145,
      "velocity": 88,
      "chip": "ym2612"
    },
    {
      "channel": 3,
      "note": 58,
      "start": 11.406,
      "duration": 0.0136,
      "velocity": 88,
      "chip": "ym2612"
    },
    {
      "channel": 1,
      "note": 89,
      "start": 11.4238,
      "duration": 0.0698,
      "velocity": 100,
      "chip": "ym2612"
    },
    {
      "channel": 3,
      "note": 58,
      "start": 11.4244,
      "duration": 0.0162,
      "velocity": 88,
      "chip": "ym2612"
    },
    {
      "channel": 3,
      "note": 58,
      "start": 11.4625,
      "duration": 0.0144,
      "velocity": 88,
      "chip": "ym2612"
    },
    {
      "channel": 3,
      "note": 58,
      "start": 11.4803,
      "duration": 0.0136,
      "velocity": 88,
      "chip": "ym2612"
    },
    {
      "channel": 1,
      "note": 83,
      "start": 11.4983,
      "duration": 0.1358,
      "velocity": 100,
      "chip": "ym2612"
    },
    {
      "channel": 2,
      "note": 74,
      "start": 11.4988,
      "duration": 0.2792,
      "velocity": 100,
      "chip": "ym2612"
    },
    {
      "channel": 3,
      "note": 59,
      "start": 11.4995,
      "duration": 0.0146,
      "velocity": 88,
      "chip": "ym2612"
    },
    {
      "channel": 4,
      "note": 68,
      "start": 11.5,
      "duration": 0.2783,
      "velocity": 100,
      "chip": "ym2612"
    },
    {
      "channel": 3,
      "note": 59,
      "start": 11.5326,
      "duration": 0.0138,
      "velocity": 88,
      "chip": "ym2612"
    },
    {
      "channel": 3,
      "note": 59,
      "start": 11.5503,
      "duration": 0.0132,
      "velocity": 88,
      "chip": "ym2612"
    },
    {
      "channel": 3,
      "note": 59,
      "start": 11.5665,
      "duration": 0.0138,
      "velocity": 88,
      "chip": "ym2612"
    },
    {
      "channel": 3,
      "note": 59,
      "start": 11.6027,
      "duration": 0.0145,
      "velocity": 88,
      "chip": "ym2612"
    },
    {
      "channel": 3,
      "note": 59,
      "start": 11.6203,
      "duration": 0.014,
      "velocity": 88,
      "chip": "ym2612"
    },
    {
      "channel": 1,
      "note": 84,
      "start": 11.6382,
      "duration": 0.0657,
      "velocity": 100,
      "chip": "ym2612"
    },
    {
      "channel": 3,
      "note": 59,
      "start": 11.6388,
      "duration": 0.0144,
      "velocity": 88,
      "chip": "ym2612"
    },
    {
      "channel": 3,
      "note": 59,
      "start": 11.6725,
      "duration": 0.0144,
      "velocity": 88,
      "chip": "ym2612"
    },
    {
      "channel": 3,
      "note": 59,
      "start": 11.6905,
      "duration": 0.0137,
      "velocity": 88,
      "chip": "ym2612"
    },
    {
      "channel": 1,
      "note": 86,
      "start": 11.7083,
      "duration": 0.0696,
      "velocity": 100,
      "chip": "ym2612"
    },
    {
      "channel": 3,
      "note": 59,
      "start": 11.7088,
      "duration": 0.0162,
      "velocity": 88,
      "chip": "ym2612"
    },
    {
      "channel": 3,
      "note": 59,
      "start": 11.7469,
      "duration": 0.0142,
      "velocity": 88,
      "chip": "ym2612"
    },
    {
      "channel": 3,
      "note": 59,
      "start": 11.7645,
      "duration": 0.0137,
      "velocity": 88,
      "chip": "ym2612"
    },
    {
      "channel": 1,
      "note": 87,
      "start": 11.7825,
      "duration": 0.1352,
      "velocity": 100,
      "chip": "ym2612"
    },
    {
      "channel": 2,
      "note": 74,
      "start": 11.7831,
      "duration": 0.1347,
      "velocity": 100,
      "chip": "ym2612"
    },
    {
      "channel": 3,
      "note": 60,
      "start": 11.7837,
      "duration": 0.0142,
      "velocity": 88,
      "chip": "ym2612"
    },
    {
      "channel": 4,
      "note": 67,
      "start": 11.7843,
      "duration": 0.1338,
      "velocity": 100,
      "chip": "ym2612"
    },
    {
      "channel": 3,
      "note": 60,
      "start": 11.8165,
      "duration": 0.0137,
      "velocity": 88,
      "chip": "ym2612"
    },
    {
      "channel": 3,
      "note": 60,
      "start": 11.8341,
      "duration": 0.0131,
      "velocity": 88,
      "chip": "ym2612"
    },
    {
      "channel": 3,
      "note": 60,
      "start": 11.85,
      "duration": 0.0136,
      "velocity": 88,
      "chip": "ym2612"
    },
    {
      "channel": 3,
      "note": 60,
      "start": 11.8862,
      "duration": 0.0145,
      "velocity": 88,
      "chip": "ym2612"
    },
    {
      "channel": 3,
      "note": 60,
      "start": 11.9039,
      "duration": 0.014,
      "velocity": 88,
      "chip": "ym2612"
    },
    {
      "channel": 1,
      "note": 87,
      "start": 11.9218,
      "duration": 0.0478,
      "velocity": 100,
      "chip": "ym2612"
    },
    {
      "channel": 2,
      "note": 74,
      "start": 11.9223,
      "duration": 0.1361,
      "velocity": 100,
      "chip": "ym2612"
    },
    {
      "channel": 3,
      "note": 58,
      "start": 11.9227,
      "duration": 0.0144,
      "velocity": 88,
      "chip": "ym2612"
    },
    {
      "channel": 4,
      "note": 65,
      "start": 11.9232,
      "duration": 0.1354,
      "velocity": 100,
      "chip": "ym2612"
    },
    {
      "channel": 3,
      "note": 58,
      "start": 11.9561,
      "duration": 0.0138,
      "velocity": 88,
      "chip": "ym2612"
    },
    {
      "channel": 1,
      "note": 89,
      "start": 11.9735,
      "duration": 0.0481,
      "velocity": 100,
      "chip": "ym2612"
    },
    {
      "channel": 3,
      "note": 58,
      "start": 11.9741,
      "duration": 0.0132,
      "velocity": 88,
      "chip": "ym2612"
    },
    {
      "channel": 3,
      "note": 58,
      "start": 11.9902,
      "duration": 0.0138,
      "velocity": 88,
      "chip": "ym2612"
    },
    {
      "channel": 1,
      "note": 91,
      "start": 12.0246,
      "duration": 0.0337,
      "velocity": 100,
      "chip": "ym2612"
    },
    {
      "channel": 3,
      "note": 58,
      "start": 12.0252,
      "duration": 0.0141,
      "velocity": 88,
      "chip": "ym2612"
    },
    {
      "channel": 3,
      "note": 58,
      "start": 12.0429,
      "duration": 0.0156,
      "velocity": 88,
      "chip": "ym2612"
    },
    {
      "channel": 1,
      "note": 91,
      "start": 12.0633,
      "duration": 0.1407,
      "velocity": 100,
      "chip": "ym2612"
    },
    {
      "channel": 2,
      "note": 75,
      "start": 12.0654,
      "duration": 0.2477,
      "velocity": 100,
      "chip": "ym2612"
    },
    {
      "channel": 3,
      "note": 56,
      "start": 12.0659,
      "duration": 0.016,
      "velocity": 88,
      "chip": "ym2612"
    },
    {
      "channel": 4,
      "note": 68,
      "start": 12.068,
      "duration": 0.2452,
      "velocity": 100,
      "chip": "ym2612"
    },
    {
      "channel": 3,
      "note": 56,
      "start": 12.1031,
      "duration": 0.0137,
      "velocity": 88,
      "chip": "ym2612"
    },
    {
      "channel": 3,
      "note": 56,
      "start": 12.1206,
      "duration": 0.013,
      "velocity": 88,
      "chip": "ym2612"
    },
    {
      "channel": 3,
      "note": 56,
      "start": 12.1366,
      "duration": 0.0137,
      "velocity": 88,
      "chip": "ym2612"
    },
    {
      "channel": 3,
      "note": 56,
      "start": 12.1727,
      "duration": 0.0146,
      "velocity": 88,
      "chip": "ym2612"
    },
    {
      "channel": 3,
      "note": 56,
      "start": 12.1904,
      "duration": 0.0139,
      "velocity": 88,
      "chip": "ym2612"
    },
    {
      "channel": 1,
      "note": 91,
      "start": 12.2083,
      "duration": 0.0305,
      "velocity": 100,
      "chip": "ym2612"
    },
    {
      "channel": 3,
      "note": 56,
      "start": 12.2088,
      "duration": 0.0143,
      "velocity": 88,
      "chip": "ym2612"
    },
    {
      "channel": 1,
      "note": 89,
      "start": 12.2423,
      "duration": 0.0314,
      "velocity": 100,
      "chip": "ym2612"
    },
    {
      "channel": 3,
      "note": 56,
      "start": 12.243,
      "duration": 0.0141,
      "velocity": 88,
      "chip": "ym2612"
    },
    {
      "channel": 3,
      "note": 56,
      "start": 12.2602,
      "duration": 0.0138,
      "velocity": 88,
      "chip": "ym2612"
    },
    {
      "channel": 1,
      "note": 87,
      "start": 12.278,
      "duration": 0.0349,
      "velocity": 100,
      "chip": "ym2612"
    },
    {
      "channel": 3,
      "note": 56,
      "start": 12.2786,
      "duration": 0.0161,
      "velocity": 88,
      "chip": "ym2612"
    },
    {
      "channel": 1,
      "note": 86,
      "start": 12.3159,
      "duration": 0.1722,
      "velocity": 100,
      "chip": "ym2612"
    },
    {
      "channel": 2,
      "note": 74,
      "start": 12.3165,
      "duration": 0.3158,
      "velocity": 100,
      "chip": "ym2612"
    },
    {
      "channel": 3,
      "note": 58,
      "start": 12.317,
      "duration": 0.0499,
      "velocity": 88,
      "chip": "ym2612"
    },
    {
      "channel": 4,
      "note": 68,
      "start": 12.3175,
      "duration": 0.315,
      "velocity": 100,
      "chip": "ym2612"
    },
    {
      "channel": 3,
      "note": 58,
      "start": 12.386,
      "duration": 0.0139,
      "velocity": 88,
      "chip": "ym2612"
    },
    {
      "channel": 3,
      "note": 58,
      "start": 12.4038,
      "duration": 0.013,
      "velocity": 88,
      "chip": "ym2612"
    },
    {
      "channel": 3,
      "note": 58,
      "start": 12.42,
      "duration": 0.0146,
      "velocity": 88,
      "chip": "ym2612"
    },
    {
      "channel": 3,
      "note": 58,
      "start": 12.4566,
      "duration": 0.0146,
      "velocity": 88,
      "chip": "ym2612"
    },
    {
      "channel": 3,
      "note": 58,
      "start": 12.4745,
      "duration": 0.0139,
      "velocity": 88,
      "chip": "ym2612"
    },
    {
      "channel": 1,
      "note": 87,
      "start": 12.4924,
      "duration": 0.066,
      "velocity": 100,
      "chip": "ym2612"
    },
    {
      "channel": 3,
      "note": 58,
      "start": 12.493,
      "duration": 0.0145,
      "velocity": 88,
      "chip": "ym2612"
    },
    {
      "channel": 3,
      "note": 58,
      "start": 12.5268,
      "duration": 0.0146,
      "velocity": 88,
      "chip": "ym2612"
    },
    {
      "channel": 3,
      "note": 58,
      "start": 12.5449,
      "duration": 0.0137,
      "velocity": 88,
      "chip": "ym2612"
    },
    {
      "channel": 1,
      "note": 89,
      "start": 12.5626,
      "duration": 0.0695,
      "velocity": 100,
      "chip": "ym2612"
    },
    {
      "channel": 3,
      "note": 58,
      "start": 12.5632,
      "duration": 0.0163,
      "velocity": 88,
      "chip": "ym2612"
    },
    {
      "channel": 3,
      "note": 58,
      "start": 12.6012,
      "duration": 0.0142,
      "velocity": 88,
      "chip": "ym2612"
    },
    {
      "channel": 3,
      "note": 58,
      "start": 12.6188,
      "duration": 0.0137,
      "velocity": 88,
      "chip": "ym2612"
    },
    {
      "channel": 1,
      "note": 83,
      "start": 12.6367,
      "duration": 0.1357,
      "velocity": 100,
      "chip": "ym2612"
    },
    {
      "channel": 2,
      "note": 74,
      "start": 12.6373,
      "duration": 0.2792,
      "velocity": 100,
      "chip": "ym2612"
    },
    {
      "channel": 3,
      "note": 59,
      "start": 12.6379,
      "duration": 0.0146,
      "velocity": 88,
      "chip": "ym2612"
    },
    {
      "channel": 4,
      "note": 68,
      "start": 12.6385,
      "duration": 0.2783,
      "velocity": 100,
      "chip": "ym2612"
    },
    {
      "channel": 3,
      "note": 59,
      "start": 12.6709,
      "duration": 0.0139,
      "velocity": 88,
      "chip": "ym2612"
    },
    {
      "channel": 3,
      "note": 59,
      "start": 12.6886,
      "duration": 0.0131,
      "velocity": 88,
      "chip": "ym2612"
    },
    {
      "channel": 3,
      "note": 59,
      "start": 12.7046,
      "duration": 0.0139,
      "velocity": 88,
      "chip": "ym2612"
    },
    {
      "channel": 3,
      "note": 59,
      "start": 12.7411,
      "duration": 0.0147,
      "velocity": 88,
      "chip": "ym2612"
    },
    {
      "channel": 3,
      "note": 59,
      "start": 12.7589,
      "duration": 0.0138,
      "velocity": 88,
      "chip": "ym2612"
    },
    {
      "channel": 1,
      "note": 84,
      "start": 12.7765,
      "duration": 0.0654,
      "velocity": 100,
      "chip": "ym2612"
    },
    {
      "channel": 3,
      "note": 59,
      "start": 12.7771,
      "duration": 0.0143,
      "velocity": 88,
      "chip": "ym2612"
    },
    {
      "channel": 3,
      "note": 59,
      "start": 12.8107,
      "duration": 0.0144,
      "velocity": 88,
      "chip": "ym2612"
    },
    {
      "channel": 3,
      "note": 59,
      "start": 12.8285,
      "duration": 0.0136,
      "velocity": 88,
      "chip": "ym2612"
    },
    {
      "channel": 1,
      "note": 86,
      "start": 12.8464,
      "duration": 0.0699,
      "velocity": 100,
      "chip": "ym2612"
    },
    {
      "channel": 3,
      "note": 59,
      "start": 12.847,
      "duration": 0.0165,
      "velocity": 88,
      "chip": "ym2612"
    },
    {
      "channel": 3,
      "note": 59,
      "start": 12.885,
      "duration": 0.0144,
      "velocity": 88,
      "chip": "ym2612"
    },
    {
      "channel": 3,
      "note": 59,
      "start": 12.903,
      "duration": 0.0137,
      "velocity": 88,
      "chip": "ym2612"
    },
    {
      "channel": 1,
      "note": 87,
      "start": 12.921,
      "duration": 0.1018,
      "velocity": 100,
      "chip": "ym2612"
    },
    {
      "channel": 2,
      "note": 74,
      "start": 12.9216,
      "duration": 0.2966,
      "velocity": 100,
      "chip": "ym2612"
    },
    {
      "channel": 3,
      "note": 55,
      "start": 12.9222,
      "duration": 0.0149,
      "velocity": 88,
      "chip": "ym2612"
    },
    {
      "channel": 4,
      "note": 67,
      "start": 12.9228,
      "duration": 0.2957,
      "velocity": 100,
      "chip": "ym2612"
    },
    {
      "channel": 3,
      "note": 55,
      "start": 12.9564,
      "duration": 0.0143,
      "velocity": 88,
      "chip": "ym2612"
    },
    {
      "channel": 3,
      "note": 55,
      "start": 12.9735,
      "duration": 0.0122,
      "velocity": 88,
      "chip": "ym2612"
    },
    {
      "channel": 3,
      "note": 55,
      "start": 12.9888,
      "duration": 0.0157,
      "velocity": 88,
      "chip": "ym2612"
    },
    {
      "channel": 1,
      "note": 86,
      "start": 13.0257,
      "duration": 0.1924,
      "velocity": 100,
      "chip": "ym2612"
    },
    {
      "channel": 3,
      "note": 55,
      "start": 13.0263,
      "duration": 0.0144,
      "velocity": 88,
      "chip": "ym2612"
    },
    {
      "channel": 3,
      "note": 55,
      "start": 13.0438,
      "duration": 0.0151,
      "velocity": 88,
      "chip": "ym2612"
    },
    {
      "channel": 3,
      "note": 55,
      "start": 13.0634,
      "duration": 0.0173,
      "velocity": 88,
      "chip": "ym2612"
    },
    {
      "channel": 3,
      "note": 55,
      "start": 13.0839,
      "duration": 0.0164,
      "velocity": 88,
      "chip": "ym2612"
    },
    {
      "channel": 3,
      "note": 55,
      "start": 13.1043,
      "duration": 0.0174,
      "velocity": 88,
      "chip": "ym2612"
    },
    {
      "channel": 3,
      "note": 55,
      "start": 13.1248,
      "duration": 0.0164,
      "velocity": 88,
      "chip": "ym2612"
    },
    {
      "channel": 3,
      "note": 55,
      "start": 13.1452,
      "duration": 0.0166,
      "velocity": 88,
      "chip": "ym2612"
    },
    {
      "channel": 3,
      "note": 55,
      "start": 13.1656,
      "duration": 0.0156,
      "velocity": 88,
      "chip": "ym2612"
    },
    {
      "channel": 3,
      "note": 55,
      "start": 13.1843,
      "duration": 0.0146,
      "velocity": 88,
      "chip": "ym2612"
    },
    {
      "channel": 3,
      "note": 55,
      "start": 13.2026,
      "duration": 0.0157,
      "velocity": 88,
      "chip": "ym2612"
    },
    {
      "channel": 1,
      "note": 70,
      "start": 13.2248,
      "duration": 0.0334,
      "velocity": 102,
      "chip": "ym2612"
    },
    {
      "channel": 2,
      "note": 77,
      "start": 13.2272,
      "duration": 0.0311,
      "velocity": 102,
      "chip": "ym2612"
    },
    {
      "channel": 3,
      "note": 48,
      "start": 13.2278,
      "duration": 0.0153,
      "velocity": 88,
      "chip": "ym2612"
    },
    {
      "channel": 4,
      "note": 72,
      "start": 13.2298,
      "duration": 0.0134,
      "velocity": 97,
      "chip": "ym2612"
    },
    {
      "channel": 3,
      "note": 48,
      "start": 13.2459,
      "duration": 0.0125,
      "velocity": 88,
      "chip": "ym2612"
    },
    {
      "channel": 4,
      "note": 72,
      "start": 13.2465,
      "duration": 0.0121,
      "velocity": 97,
      "chip": "ym2612"
    },
    {
      "channel": 1,
      "note": 72,
      "start": 13.2625,
      "duration": 0.0305,
      "velocity": 102,
      "chip": "ym2612"
    },
    {
      "channel": 2,
      "note": 79,
      "start": 13.2631,
      "duration": 0.0301,
      "velocity": 102,
      "chip": "ym2612"
    },
    {
      "channel": 3,
      "note": 60,
      "start": 13.2635,
      "duration": 0.013,
      "velocity": 88,
      "chip": "ym2612"
    },
    {
      "channel": 3,
      "note": 48,
      "start": 13.2804,
      "duration": 0.013,
      "velocity": 88,
      "chip": "ym2612"
    },
    {
      "channel": 4,
      "note": 72,
      "start": 13.281,
      "duration": 0.0162,
      "velocity": 97,
      "chip": "ym2612"
    },
    {
      "channel": 1,
      "note": 72,
      "start": 13.296,
      "duration": 0.014,
      "velocity": 102,
      "chip": "ym2612"
    },
    {
      "channel": 2,
      "note": 79,
      "start": 13.2965,
      "duration": 0.0137,
      "velocity": 102,
      "chip": "ym2612"
    },
    {
      "channel": 3,
      "note": 48,
      "start": 13.297,
      "duration": 0.0133,
      "velocity": 88,
      "chip": "ym2612"
    },
    {
      "channel": 1,
      "note": 70,
      "start": 13.3144,
      "duration": 0.014,
      "velocity": 102,
      "chip": "ym2612"
    },
    {
      "channel": 2,
      "note": 77,
      "start": 13.3149,
      "duration": 0.0136,
      "velocity": 102,
      "chip": "ym2612"
    },
    {
      "channel": 3,
      "note": 60,
      "start": 13.3154,
      "duration": 0.0133,
      "velocity": 88,
      "chip": "ym2612"
    },
    {
      "channel": 1,
      "note": 72,
      "start": 13.3321,
      "duration": 0.0139,
      "velocity": 102,
      "chip": "ym2612"
    },
    {
      "channel": 2,
      "note": 79,
      "start": 13.3326,
      "duration": 0.0135,
      "velocity": 102,
      "chip": "ym2612"
    },
    {
      "channel": 3,
      "note": 48,
      "start": 13.3331,
      "duration": 0.0132,
      "velocity": 88,
      "chip": "ym2612"
    },
    {
      "channel": 1,
      "note": 72,
      "start": 13.3497,
      "duration": 0.031,
      "velocity": 102,
      "chip": "ym2612"
    },
    {
      "channel": 2,
      "note": 79,
      "start": 13.3502,
      "duration": 0.0307,
      "velocity": 102,
      "chip": "ym2612"
    },
    {
      "channel": 3,
      "note": 48,
      "start": 13.3507,
      "duration": 0.0123,
      "velocity": 88,
      "chip": "ym2612"
    },
    {
      "channel": 3,
      "note": 48,
      "start": 13.3678,
      "duration": 0.0132,
      "velocity": 88,
      "chip": "ym2612"
    },
    {
      "channel": 1,
      "note": 70,
      "start": 13.3837,
      "duration": 0.0128,
      "velocity": 102,
      "chip": "ym2612"
    },
    {
      "channel": 2,
      "note": 77,
      "start": 13.3842,
      "duration": 0.0124,
      "velocity": 102,
      "chip": "ym2612"
    },
    {
      "channel": 3,
      "note": 48,
      "start": 13.3847,
      "duration": 0.0121,
      "velocity": 88,
      "chip": "ym2612"
    },
    {
      "channel": 1,
      "note": 72,
      "start": 13.4016,
      "duration": 0.0144,
      "velocity": 102,
      "chip": "ym2612"
    },
    {
      "channel": 2,
      "note": 79,
      "start": 13.4021,
      "duration": 0.014,
      "velocity": 102,
      "chip": "ym2612"
    },
    {
      "channel": 3,
      "note": 60,
      "start": 13.4026,
      "duration": 0.0137,
      "velocity": 88,
      "chip": "ym2612"
    },
    {
      "channel": 4,
      "note": 72,
      "start": 13.4031,
      "duration": 0.0174,
      "velocity": 97,
      "chip": "ym2612"
    },
    {
      "channel": 1,
      "note": 70,
      "start": 13.4194,
      "duration": 0.0131,
      "velocity": 102,
      "chip": "ym2612"
    },
    {
      "channel": 2,
      "note": 77,
      "start": 13.4199,
      "duration": 0.0128,
      "velocity": 102,
      "chip": "ym2612"
    },
    {
      "channel": 3,
      "note": 48,
      "start": 13.4204,
      "duration": 0.0124,
      "velocity": 88,
      "chip": "ym2612"
    },
    {
      "channel": 1,
      "note": 77,
      "start": 13.4354,
      "duration": 0.0315,
      "velocity": 102,
      "chip": "ym2612"
    },
    {
      "channel": 2,
      "note": 84,
      "start": 13.4359,
      "duration": 0.0312,
      "velocity": 102,
      "chip": "ym2612"
    },
    {
      "channel": 3,
      "note": 48,
      "start": 13.4364,
      "duration": 0.013,
      "velocity": 88,
      "chip": "ym2612"
    },
    {
      "channel": 3,
      "note": 60,
      "start": 13.4539,
      "duration": 0.0134,
      "velocity": 88,
      "chip": "ym2612"
    },
    {
      "channel": 4,
      "note": 72,
      "start": 13.4544,
      "duration": 0.0312,
      "velocity": 97,
      "chip": "ym2612"
    },
    {
      "channel": 1,
      "note": 75,
      "start": 13.4714,
      "duration": 0.0304,
      "velocity": 102,
      "chip": "ym2612"
    },
    {
      "channel": 2,
      "note": 82,
      "start": 13.4719,
      "duration": 0.0301,
      "velocity": 102,
      "chip": "ym2612"
    },
    {
      "channel": 3,
      "note": 48,
      "start": 13.4723,
      "duration": 0.0131,
      "velocity": 88,
      "chip": "ym2612"
    },
    {
      "channel": 3,
      "note": 48,
      "start": 13.4894,
      "duration": 0.0128,
      "velocity": 88,
      "chip": "ym2612"
    },
    {
      "channel": 4,
      "note": 72,
      "start": 13.4899,
      "duration": 0.0124,
      "velocity": 97,
      "chip": "ym2612"
    },
    {
      "channel": 1,
      "note": 70,
      "start": 13.5069,
      "duration": 0.03,
      "velocity": 102,
      "chip": "ym2612"
    },
    {
      "channel": 2,
      "note": 77,
      "start": 13.5076,
      "duration": 0.0295,
      "velocity": 102,
      "chip": "ym2612"
    },
    {
      "channel": 3,
      "note": 48,
      "start": 13.5081,
      "duration": 0.0138,
      "velocity": 88,
      "chip": "ym2612"
    },
    {
      "channel": 4,
      "note": 72,
      "start": 13.5088,
      "duration": 0.0133,
      "velocity": 97,
      "chip": "ym2612"
    },
    {
      "channel": 3,
      "note": 48,
      "start": 13.5247,
      "duration": 0.0126,
      "velocity": 88,
      "chip": "ym2612"
    },
    {
      "channel": 4,
      "note": 72,
      "start": 13.5252,
      "duration": 0.0121,
      "velocity": 97,
      "chip": "ym2612"
    },
    {
      "channel": 1,
      "note": 72,
      "start": 13.5408,
      "duration": 0.0304,
      "velocity": 102,
      "chip": "ym2612"
    },
    {
      "channel": 2,
      "note": 79,
      "start": 13.5413,
      "duration": 0.03,
      "velocity": 102,
      "chip": "ym2612"
    },
    {
      "channel": 3,
      "note": 60,
      "start": 13.5419,
      "duration": 0.0131,
      "velocity": 88,
      "chip": "ym2612"
    },
    {
      "channel": 3,
      "note": 48,
      "start": 13.5588,
      "duration": 0.0127,
      "velocity": 88,
      "chip": "ym2612"
    },
    {
      "channel": 4,
      "note": 72,
      "start": 13.5593,
      "duration": 0.016,
      "velocity": 97,
      "chip": "ym2612"
    },
    {
      "channel": 1,
      "note": 72,
      "start": 13.5742,
      "duration": 0.0141,
      "velocity": 102,
      "chip": "ym2612"
    },
    {
      "channel": 2,
      "note": 79,
      "start": 13.5747,
      "duration": 0.0137,
      "velocity": 102,
      "chip": "ym2612"
    },
    {
      "channel": 3,
      "note": 48,
      "start": 13.5752,
      "duration": 0.0134,
      "velocity": 88,
      "chip": "ym2612"
    },
    {
      "channel": 1,
      "note": 70,
      "start": 13.5925,
      "duration": 0.0139,
      "velocity": 102,
      "chip": "ym2612"
    },
    {
      "channel": 2,
      "note": 77,
      "start": 13.593,
      "duration": 0.0136,
      "velocity": 102,
      "chip": "ym2612"
    },
    {
      "channel": 3,
      "note": 60,
      "start": 13.5935,
      "duration": 0.0132,
      "velocity": 88,
      "chip": "ym2612"
    },
    {
      "channel": 1,
      "note": 72,
      "start": 13.6103,
      "duration": 0.0139,
      "velocity": 102,
      "chip": "ym2612"
    },
    {
      "channel": 2,
      "note": 79,
      "start": 13.6108,
      "duration": 0.0135,
      "velocity": 102,
      "chip": "ym2612"
    },
    {
      "channel": 3,
      "note": 48,
      "start": 13.6113,
      "duration": 0.0132,
      "velocity": 88,
      "chip": "ym2612"
    },
    {
      "channel": 1,
      "note": 72,
      "start": 13.628,
      "duration": 0.0309,
      "velocity": 102,
      "chip": "ym2612"
    },
    {
      "channel": 2,
      "note": 79,
      "start": 13.6285,
      "duration": 0.0305,
      "velocity": 102,
      "chip": "ym2612"
    },
    {
      "channel": 3,
      "note": 48,
      "start": 13.629,
      "duration": 0.0122,
      "velocity": 88,
      "chip": "ym2612"
    },
    {
      "channel": 3,
      "note": 48,
      "start": 13.646,
      "duration": 0.0132,
      "velocity": 88,
      "chip": "ym2612"
    },
    {
      "channel": 1,
      "note": 65,
      "start": 13.6619,
      "duration": 0.0129,
      "velocity": 102,
      "chip": "ym2612"
    },
    {
      "channel": 2,
      "note": 72,
      "start": 13.6624,
      "duration": 0.0125,
      "velocity": 102,
      "chip": "ym2612"
    },
    {
      "channel": 3,
      "note": 48,
      "start": 13.6629,
      "duration": 0.0122,
      "velocity": 88,
      "chip": "ym2612"
    },
    {
      "channel": 1,
      "note": 67,
      "start": 13.6798,
      "duration": 0.0143,
      "velocity": 102,
      "chip": "ym2612"
    },
    {
      "channel": 2,
      "note": 74,
      "start": 13.6803,
      "duration": 0.0139,
      "velocity": 102,
      "chip": "ym2612"
    },
    {
      "channel": 3,
      "note": 60,
      "start": 13.6808,
      "duration": 0.0136,
      "velocity": 88,
      "chip": "ym2612"
    },
    {
      "channel": 4,
      "note": 72,
      "start": 13.6813,
      "duration": 0.0173,
      "velocity": 97,
      "chip": "ym2612"
    },
    {
      "channel": 1,
      "note": 70,
      "start": 13.6975,
      "duration": 0.0134,
      "velocity": 102,
      "chip": "ym2612"
    },
    {
      "channel": 2,
      "note": 77,
      "start": 13.698,
      "duration": 0.013,
      "velocity": 102,
      "chip": "ym2612"
    },
    {
      "channel": 3,
      "note": 48,
      "start": 13.6985,
      "duration": 0.0127,
      "velocity": 88,
      "chip": "ym2612"
    },
    {
      "channel": 1,
      "note": 72,
      "start": 13.7138,
      "duration": 0.0138,
      "velocity": 102,
      "chip": "ym2612"
    },
    {
      "channel": 2,
      "note": 79,
      "start": 13.7143,
      "duration": 0.0134,
      "velocity": 102,
      "chip": "ym2612"
    },
    {
      "channel": 3,
      "note": 48,
      "start": 13.7148,
      "duration": 0.0131,
      "velocity": 88,
      "chip": "ym2612"
    },
    {
      "channel": 1,
      "note": 75,
      "start": 13.7322,
      "duration": 0.0145,
      "velocity": 102,
      "chip": "ym2612"
    },
    {
      "channel": 2,
      "note": 82,
      "start": 13.7327,
      "duration": 0.0141,
      "velocity": 102,
      "chip": "ym2612"
    },
    {
      "channel": 3,
      "note": 60,
      "start": 13.7332,
      "duration": 0.0138,
      "velocity": 88,
      "chip": "ym2612"
    },
    {
      "channel": 4,
      "note": 72,
      "start": 13.7337,
      "duration": 0.0308,
      "velocity": 97,
      "chip": "ym2612"
    },
    {
      "channel": 1,
      "note": 77,
      "start": 13.7502,
      "duration": 0.0139,
      "velocity": 102,
      "chip": "ym2612"
    },
    {
      "channel": 2,
      "note": 84,
      "start": 13.7507,
      "duration": 0.0135,
      "velocity": 102,
      "chip": "ym2612"
    },
    {
      "channel": 3,
      "note": 48,
      "start": 13.7512,
      "duration": 0.0132,
      "velocity": 88,
      "chip": "ym2612"
    },
    {
      "channel": 1,
      "note": 79,
      "start": 13.7679,
      "duration": 0.0139,
      "velocity": 102,
      "chip": "ym2612"
    },
    {
      "channel": 2,
      "note": 86,
      "start": 13.7684,
      "duration": 0.0135,
      "velocity": 102,
      "chip": "ym2612"
    },
    {
      "channel": 3,
      "note": 48,
      "start": 13.7689,
      "duration": 0.0132,
      "velocity": 88,
      "chip": "ym2612"
    },
    {
      "channel": 4,
      "note": 72,
      "start": 13.7694,
      "duration": 0.0128,
      "velocity": 97,
      "chip": "ym2612"
    },
    {
      "channel": 1,
      "note": 70,
      "start": 13.7861,
      "duration": 0.0302,
      "velocity": 102,
      "chip": "ym2612"
    },
    {
      "channel": 2,
      "note": 77,
      "start": 13.7867,
      "duration": 0.0298,
      "velocity": 102,
      "chip": "ym2612"
    },
    {
      "channel": 3,
      "note": 48,
      "start": 13.7874,
      "duration": 0.0138,
      "velocity": 88,
      "chip": "ym2612"
    },
    {
      "channel": 4,
      "note": 72,
      "start": 13.7879,
      "duration": 0.0134,
      "velocity": 97,
      "chip": "ym2612"
    },
    {
      "channel": 3,
      "note": 48,
      "start": 13.8041,
      "duration": 0.0125,
      "velocity": 88,
      "chip": "ym2612"
    },
    {
      "channel": 4,
      "note": 72,
      "start": 13.8046,
      "duration": 0.0122,
      "velocity": 97,
      "chip": "ym2612"
    },
    {
      "channel": 1,
      "note": 72,
      "start": 13.8202,
      "duration": 0.0308,
      "velocity": 102,
      "chip": "ym2612"
    },
    {
      "channel": 2,
      "note": 79,
      "start": 13.8208,
      "duration": 0.0304,
      "velocity": 102,
      "chip": "ym2612"
    },
    {
      "channel": 3,
      "note": 60,
      "start": 13.8212,
      "duration": 0.0131,
      "velocity": 88,
      "chip": "ym2612"
    },
    {
      "channel": 3,
      "note": 48,
      "start": 13.8382,
      "duration": 0.0131,
      "velocity": 88,
      "chip": "ym2612"
    },
    {
      "channel": 4,
      "note": 72,
      "start": 13.8387,
      "duration": 0.0164,
      "velocity": 97,
      "chip": "ym2612"
    },
    {
      "channel": 1,
      "note": 72,
      "start": 13.854,
      "duration": 0.0139,
      "velocity": 102,
      "chip": "ym2612"
    },
    {
      "channel": 2,
      "note": 79,
      "start": 13.8545,
      "duration": 0.0136,
      "velocity": 102,
      "chip": "ym2612"
    },
    {
      "channel": 3,
      "note": 48,
      "start": 13.855,
      "duration": 0.0132,
      "velocity": 88,
      "chip": "ym2612"
    },
    {
      "channel": 1,
      "note": 70,
      "start": 13.8722,
      "duration": 0.0143,
      "velocity": 102,
      "chip": "ym2612"
    },
    {
      "channel": 2,
      "note": 77,
      "start": 13.8727,
      "duration": 0.0139,
      "velocity": 102,
      "chip": "ym2612"
    },
    {
      "channel": 3,
      "note": 60,
      "start": 13.8732,
      "duration": 0.0135,
      "velocity": 88,
      "chip": "ym2612"
    },
    {
      "channel": 1,
      "note": 72,
      "start": 13.8902,
      "duration": 0.0137,
      "velocity": 102,
      "chip": "ym2612"
    },
    {
      "channel": 2,
      "note": 79,
      "start": 13.8907,
      "duration": 0.0134,
      "velocity": 102,
      "chip": "ym2612"
    },
    {
      "channel": 3,
      "note": 48,
      "start": 13.8911,
      "duration": 0.0131,
      "velocity": 88,
      "chip": "ym2612"
    },
    {
      "channel": 1,
      "note": 72,
      "start": 13.9077,
      "duration": 0.0314,
      "velocity": 102,
      "chip": "ym2612"
    },
    {
      "channel": 2,
      "note": 79,
      "start": 13.9082,
      "duration": 0.031,
      "velocity": 102,
      "chip": "ym2612"
    },
    {
      "channel": 3,
      "note": 48,
      "start": 13.9087,
      "duration": 0.0125,
      "velocity": 88,
      "chip": "ym2612"
    },
    {
      "channel": 3,
      "note": 60,
      "start": 13.926,
      "duration": 0.0133,
      "velocity": 88,
      "chip": "ym2612"
    },
    {
      "channel": 1,
      "note": 70,
      "start": 13.942,
      "duration": 0.0129,
      "velocity": 102,
      "chip": "ym2612"
    },
    {
      "channel": 2,
      "note": 77,
      "start": 13.9425,
      "duration": 0.0126,
      "velocity": 102,
      "chip": "ym2612"
    },
    {
      "channel": 3,
      "note": 48,
      "start": 13.9429,
      "duration": 0.0123,
      "velocity": 88,
      "chip": "ym2612"
    },
    {
      "channel": 1,
      "note": 72,
      "start": 13.9601,
      "duration": 0.0145,
      "velocity": 102,
      "chip": "ym2612"
    },
    {
      "channel": 2,
      "note": 79,
      "start": 13.9606,
      "duration": 0.0141,
      "velocity": 102,
      "chip": "ym2612"
    },
    {
      "channel": 3,
      "note": 48,
      "start": 13.9611,
      "duration": 0.0138,
      "velocity": 88,
      "chip": "ym2612"
    },
    {
      "channel": 4,
      "note": 72,
      "start": 13.9617,
      "duration": 0.0175,
      "velocity": 97,
      "chip": "ym2612"
    },
    {
      "channel": 1,
      "note": 70,
      "start": 13.978,
      "duration": 0.0134,
      "velocity": 102,
      "chip": "ym2612"
    },
    {
      "channel": 2,
      "note": 77,
      "start": 13.9785,
      "duration": 0.0131,
      "velocity": 102,
      "chip": "ym2612"
    },
    {
      "channel": 3,
      "note": 60,
      "start": 13.979,
      "duration": 0.0127,
      "velocity": 88,
      "chip": "ym2612"
    },
    {
      "channel": 1,
      "note": 77,
      "start": 13.9943,
      "duration": 0.0321,
      "velocity": 102,
      "chip": "ym2612"
    },
    {
      "channel": 2,
      "note": 84,
      "start": 13.9948,
      "duration": 0.0318,
      "velocity": 102,
      "chip": "ym2612"
    },
    {
      "channel": 3,
      "note": 48,
      "start": 13.9953,
      "duration": 0.0131,
      "velocity": 88,
      "chip": "ym2612"
    },
    {
      "channel": 3,
      "note": 48,
      "start": 14.0129,
      "duration": 0.0137,
      "velocity": 88,
      "chip": "ym2612"
    },
    {
      "channel": 4,
      "note": 72,
      "start": 14.0134,
      "duration": 0.0316,
      "velocity": 97,
      "chip": "ym2612"
    },
    {
      "channel": 1,
      "note": 75,
      "start": 14.0307,
      "duration": 0.0308,
      "velocity": 102,
      "chip": "ym2612"
    },
    {
      "channel": 2,
      "note": 82,
      "start": 14.0312,
      "duration": 0.0304,
      "velocity": 102,
      "chip": "ym2612"
    },
    {
      "channel": 3,
      "note": 60,
      "start": 14.0317,
      "duration": 0.0131,
      "velocity": 88,
      "chip": "ym2612"
    },
    {
      "channel": 3,
      "note": 48,
      "start": 14.0488,
      "duration": 0.0131,
      "velocity": 88,
      "chip": "ym2612"
    },
    {
      "channel": 4,
      "note": 72,
      "start": 14.0494,
      "duration": 0.0126,
      "velocity": 97,
      "chip": "ym2612"
    },
    {
      "channel": 1,
      "note": 70,
      "start": 14.0667,
      "duration": 0.0146,
      "velocity": 102,
      "chip": "ym2612"
    },
    {
      "channel": 2,
      "note": 77,
      "start": 14.0673,
      "duration": 0.0141,
      "velocity": 102,
      "chip": "ym2612"
    },
    {
      "channel": 3,
      "note": 48,
      "start": 14.0679,
      "duration": 0.0137,
      "velocity": 88,
      "chip": "ym2612"
    },
    {
      "channel": 4,
      "note": 72,
      "start": 14.0685,
      "duration": 0.0133,
      "velocity": 97,
      "chip": "ym2612"
    },
    {
      "channel": 1,
      "note": 72,
      "start": 14.0843,
      "duration": 0.0134,
      "velocity": 102,
      "chip": "ym2612"
    },
    {
      "channel": 2,
      "note": 79,
      "start": 14.0848,
      "duration": 0.0131,
      "velocity": 102,
      "chip": "ym2612"
    },
    {
      "channel": 3,
      "note": 60,
      "start": 14.0853,
      "duration": 0.0127,
      "velocity": 88,
      "chip": "ym2612"
    },
    {
      "channel": 4,
      "note": 72,
      "start": 14.0858,
      "duration": 0.0124,
      "velocity": 97,
      "chip": "ym2612"
    },
    {
      "channel": 3,
      "note": 48,
      "start": 14.1012,
      "duration": 0.013,
      "velocity": 88,
      "chip": "ym2612"
    },
    {
      "channel": 1,
      "note": 72,
      "start": 14.1183,
      "duration": 0.0136,
      "velocity": 102,
      "chip": "ym2612"
    },
    {
      "channel": 2,
      "note": 79,
      "start": 14.1188,
      "duration": 0.0133,
      "velocity": 102,
      "chip": "ym2612"
    },
    {
      "channel": 3,
      "note": 48,
      "start": 14.1193,
      "duration": 0.0129,
      "velocity": 88,
      "chip": "ym2612"
    },
    {
      "channel": 4,
      "note": 72,
      "start": 14.1198,
      "duration": 0.0161,
      "velocity": 97,
      "chip": "ym2612"
    },
    {
      "channel": 1,
      "note": 70,
      "start": 14.1348,
      "duration": 0.0137,
      "velocity": 102,
      "chip": "ym2612"
    },
    {
      "channel": 2,
      "note": 77,
      "start": 14.1353,
      "duration": 0.0134,
      "velocity": 102,
      "chip": "ym2612"
    },
    {
      "channel": 3,
      "note": 60,
      "start": 14.1358,
      "duration": 0.013,
      "velocity": 88,
      "chip": "ym2612"
    },
    {
      "channel": 1,
      "note": 72,
      "start": 14.1529,
      "duration": 0.0142,
      "velocity": 102,
      "chip": "ym2612"
    },
    {
      "channel": 2,
      "note": 79,
      "start": 14.1534,
      "duration": 0.0138,
      "velocity": 102,
      "chip": "ym2612"
    },
    {
      "channel": 3,
      "note": 48,
      "start": 14.1539,
      "duration": 0.0135,
      "velocity": 88,
      "chip": "ym2612"
    },
    {
      "channel": 3,
      "note": 60,
      "start": 14.1715,
      "duration": 0.013,
      "velocity": 88,
      "chip": "ym2612"
    },
    {
      "channel": 1,
      "note": 72,
      "start": 14.1885,
      "duration": 0.0134,
      "velocity": 102,
      "chip": "ym2612"
    },
    {
      "channel": 2,
      "note": 79,
      "start": 14.189,
      "duration": 0.013,
      "velocity": 102,
      "chip": "ym2612"
    },
    {
      "channel": 3,
      "note": 60,
      "start": 14.1895,
      "duration": 0.0127,
      "velocity": 88,
      "chip": "ym2612"
    },
    {
      "channel": 1,
      "note": 70,
      "start": 14.2066,
      "duration": 0.0137,
      "velocity": 102,
      "chip": "ym2612"
    },
    {
      "channel": 2,
      "note": 77,
      "start": 14.2071,
      "duration": 0.0134,
      "velocity": 102,
      "chip": "ym2612"
    },
    {
      "channel": 3,
      "note": 48,
      "start": 14.2076,
      "duration": 0.013,
      "velocity": 88,
      "chip": "ym2612"
    },
    {
      "channel": 1,
      "note": 72,
      "start": 14.2232,
      "duration": 0.013,
      "velocity": 102,
      "chip": "ym2612"
    },
    {
      "channel": 2,
      "note": 79,
      "start": 14.2236,
      "duration": 0.0127,
      "velocity": 102,
      "chip": "ym2612"
    },
    {
      "channel": 3,
      "note": 60,
      "start": 14.2241,
      "duration": 0.0124,
      "velocity": 88,
      "chip": "ym2612"
    },
    {
      "channel": 3,
      "note": 48,
      "start": 14.2412,
      "duration": 0.0134,
      "velocity": 88,
      "chip": "ym2612"
    },
    {
      "channel": 4,
      "note": 72,
      "start": 14.2418,
      "duration": 0.0176,
      "velocity": 97,
      "chip": "ym2612"
    },
    {
      "channel": 1,
      "note": 72,
      "start": 14.2583,
      "duration": 0.0133,
      "velocity": 102,
      "chip": "ym2612"
    },
    {
      "channel": 2,
      "note": 79,
      "start": 14.2588,
      "duration": 0.0129,
      "velocity": 102,
      "chip": "ym2612"
    },
    {
      "channel": 3,
      "note": 48,
      "start": 14.2593,
      "duration": 0.0126,
      "velocity": 88,
      "chip": "ym2612"
    },
    {
      "channel": 1,
      "note": 70,
      "start": 14.2744,
      "duration": 0.0139,
      "velocity": 102,
      "chip": "ym2612"
    },
    {
      "channel": 2,
      "note": 77,
      "start": 14.2748,
      "duration": 0.0136,
      "velocity": 102,
      "chip": "ym2612"
    },
    {
      "channel": 3,
      "note": 60,
      "start": 14.2754,
      "duration": 0.0132,
      "velocity": 88,
      "chip": "ym2612"
    },
    {
      "channel": 1,
      "note": 72,
      "start": 14.2927,
      "duration": 0.0146,
      "velocity": 102,
      "chip": "ym2612"
    },
    {
      "channel": 2,
      "note": 79,
      "start": 14.2932,
      "duration": 0.0142,
      "velocity": 102,
      "chip": "ym2612"
    },
    {
      "channel": 3,
      "note": 48,
      "start": 14.2937,
      "duration": 0.0139,
      "velocity": 88,
      "chip": "ym2612"
    },
    {
      "channel": 4,
      "note": 72,
      "start": 14.2941,
      "duration": 0.0322,
      "velocity": 97,
      "chip": "ym2612"
    },
    {
      "channel": 3,
      "note": 60,
      "start": 14.3112,
      "duration": 0.0151,
      "velocity": 88,
      "chip": "ym2612"
    },
    {
      "channel": 1,
      "note": 72,
      "start": 14.3289,
      "duration": 0.0136,
      "velocity": 102,
      "chip": "ym2612"
    },
    {
      "channel": 2,
      "note": 79,
      "start": 14.3294,
      "duration": 0.0132,
      "velocity": 102,
      "chip": "ym2612"
    },
    {
      "channel": 3,
      "note": 60,
      "start": 14.3299,
      "duration": 0.0129,
      "velocity": 88,
      "chip": "ym2612"
    },
    {
      "channel": 4,
      "note": 72,
      "start": 14.3304,
      "duration": 0.0125,
      "velocity": 97,
      "chip": "ym2612"
    },
    {
      "channel": 1,
      "note": 70,
      "start": 14.3474,
      "duration": 0.0301,
      "velocity": 102,
      "chip": "ym2612"
    },
    {
      "channel": 2,
      "note": 77,
      "start": 14.348,
      "duration": 0.0296,
      "velocity": 102,
      "chip": "ym2612"
    },
    {
      "channel": 3,
      "note": 48,
      "start": 14.3486,
      "duration": 0.0137,
      "velocity": 88,
      "chip": "ym2612"
    },
    {
      "channel": 4,
      "note": 72,
      "start": 14.3492,
      "duration": 0.0132,
      "velocity": 97,
      "chip": "ym2612"
    },
    {
      "channel": 3,
      "note": 48,
      "start": 14.3651,
      "duration": 0.0127,
      "velocity": 88,
      "chip": "ym2612"
    },
    {
      "channel": 4,
      "note": 75,
      "start": 14.3656,
      "duration": 0.0123,
      "velocity": 97,
      "chip": "ym2612"
    },
    {
      "channel": 1,
      "note": 72,
      "start": 14.3813,
      "duration": 0.0307,
      "velocity": 102,
      "chip": "ym2612"
    },
    {
      "channel": 2,
      "note": 79,
      "start": 14.3819,
      "duration": 0.0304,
      "velocity": 102,
      "chip": "ym2612"
    },
    {
      "channel": 3,
      "note": 60,
      "start": 14.3824,
      "duration": 0.0135,
      "velocity": 88,
      "chip": "ym2612"
    },
    {
      "channel": 4,
      "note": 72,
      "start": 14.3829,
      "duration": 0.0131,
      "velocity": 97,
      "chip": "ym2612"
    },
    {
      "channel": 3,
      "note": 48,
      "start": 14.3993,
      "duration": 0.0131,
      "velocity": 88,
      "chip": "ym2612"
    },
    {
      "channel": 4,
      "note": 77,
      "start": 14.3998,
      "duration": 0.0127,
      "velocity": 97,
      "chip": "ym2612"
    },
    {
      "channel": 1,
      "note": 72,
      "start": 14.4151,
      "duration": 0.0143,
      "velocity": 102,
      "chip": "ym2612"
    },
    {
      "channel": 2,
      "note": 79,
      "start": 14.4156,
      "duration": 0.0139,
      "velocity": 102,
      "chip": "ym2612"
    },
    {
      "channel": 3,
      "note": 48,
      "start": 14.4161,
      "duration": 0.0136,
      "velocity": 88,
      "chip": "ym2612"
    },
    {
      "channel": 4,
      "note": 72,
      "start": 14.4166,
      "duration": 0.0132,
      "velocity": 97,
      "chip": "ym2612"
    },
    {
      "channel": 1,
      "note": 70,
      "start": 14.4334,
      "duration": 0.0151,
      "velocity": 102,
      "chip": "ym2612"
    },
    {
      "channel": 2,
      "note": 77,
      "start": 14.4339,
      "duration": 0.0148,
      "velocity": 102,
      "chip": "ym2612"
    },
    {
      "channel": 3,
      "note": 60,
      "start": 14.4344,
      "duration": 0.0144,
      "velocity": 88,
      "chip": "ym2612"
    },
    {
      "channel": 4,
      "note": 79,
      "start": 14.4349,
      "duration": 0.0141,
      "velocity": 97,
      "chip": "ym2612"
    },
    {
      "channel": 1,
      "note": 72,
      "start": 14.4515,
      "duration": 0.0143,
      "velocity": 102,
      "chip": "ym2612"
    },
    {
      "channel": 2,
      "note": 79,
      "start": 14.452,
      "duration": 0.0139,
      "velocity": 102,
      "chip": "ym2612"
    },
    {
      "channel": 3,
      "note": 48,
      "start": 14.4525,
      "duration": 0.0136,
      "velocity": 88,
      "chip": "ym2612"
    },
    {
      "channel": 4,
      "note": 72,
      "start": 14.4531,
      "duration": 0.0132,
      "velocity": 97,
      "chip": "ym2612"
    },
    {
      "channel": 1,
      "note": 72,
      "start": 14.4694,
      "duration": 0.0312,
      "velocity": 102,
      "chip": "ym2612"
    },
    {
      "channel": 2,
      "note": 79,
      "start": 14.4699,
      "duration": 0.0308,
      "velocity": 102,
      "chip": "ym2612"
    },
    {
      "channel": 3,
      "note": 48,
      "start": 14.4704,
      "duration": 0.0127,
      "velocity": 88,
      "chip": "ym2612"
    },
    {
      "channel": 4,
      "note": 84,
      "start": 14.4708,
      "duration": 0.0124,
      "velocity": 97,
      "chip": "ym2612"
    },
    {
      "channel": 3,
      "note": 48,
      "start": 14.4874,
      "duration": 0.0135,
      "velocity": 88,
      "chip": "ym2612"
    },
    {
      "channel": 4,
      "note": 72,
      "start": 14.4878,
      "duration": 0.0132,
      "velocity": 97,
      "chip": "ym2612"
    },
    {
      "channel": 1,
      "note": 70,
      "start": 14.5036,
      "duration": 0.0133,
      "velocity": 102,
      "chip": "ym2612"
    },
    {
      "channel": 2,
      "note": 77,
      "start": 14.5041,
      "duration": 0.0129,
      "velocity": 102,
      "chip": "ym2612"
    },
    {
      "channel": 3,
      "note": 48,
      "start": 14.5046,
      "duration": 0.0126,
      "velocity": 88,
      "chip": "ym2612"
    },
    {
      "channel": 4,
      "note": 75,
      "start": 14.5051,
      "duration": 0.0122,
      "velocity": 97,
      "chip": "ym2612"
    },
    {
      "channel": 1,
      "note": 72,
      "start": 14.5212,
      "duration": 0.0142,
      "velocity": 102,
      "chip": "ym2612"
    },
    {
      "channel": 2,
      "note": 79,
      "start": 14.5217,
      "duration": 0.0139,
      "velocity": 102,
      "chip": "ym2612"
    },
    {
      "channel": 3,
      "note": 60,
      "start": 14.5222,
      "duration": 0.0135,
      "velocity": 88,
      "chip": "ym2612"
    },
    {
      "channel": 4,
      "note": 72,
      "start": 14.5227,
      "duration": 0.0132,
      "velocity": 97,
      "chip": "ym2612"
    },
    {
      "channel": 1,
      "note": 70,
      "start": 14.5387,
      "duration": 0.0137,
      "velocity": 102,
      "chip": "ym2612"
    },
    {
      "channel": 2,
      "note": 77,
      "start": 14.5392,
      "duration": 0.0134,
      "velocity": 102,
      "chip": "ym2612"
    },
    {
      "channel": 3,
      "note": 48,
      "start": 14.5397,
      "duration": 0.013,
      "velocity": 88,
      "chip": "ym2612"
    },
    {
      "channel": 4,
      "note": 77,
      "start": 14.5402,
      "duration": 0.0127,
      "velocity": 97,
      "chip": "ym2612"
    },
    {
      "channel": 1,
      "note": 77,
      "start": 14.5569,
      "duration": 0.0344,
      "velocity": 102,
      "chip": "ym2612"
    },
    {
      "channel": 2,
      "note": 84,
      "start": 14.5574,
      "duration": 0.0341,
      "velocity": 102,
      "chip": "ym2612"
    },
    {
      "channel": 3,
      "note": 48,
      "start": 14.5579,
      "duration": 0.0155,
      "velocity": 88,
      "chip": "ym2612"
    },
    {
      "channel": 4,
      "note": 72,
      "start": 14.5583,
      "duration": 0.0153,
      "velocity": 97,
      "chip": "ym2612"
    },
    {
      "channel": 3,
      "note": 60,
      "start": 14.5773,
      "duration": 0.0143,
      "velocity": 88,
      "chip": "ym2612"
    },
    {
      "channel": 4,
      "note": 79,
      "start": 14.5779,
      "duration": 0.0139,
      "velocity": 97,
      "chip": "ym2612"
    },
    {
      "channel": 1,
      "note": 75,
      "start": 14.5953,
      "duration": 0.0305,
      "velocity": 102,
      "chip": "ym2612"
    },
    {
      "channel": 2,
      "note": 82,
      "start": 14.5958,
      "duration": 0.0301,
      "velocity": 102,
      "chip": "ym2612"
    },
    {
      "channel": 3,
      "note": 48,
      "start": 14.5962,
      "duration": 0.0134,
      "velocity": 88,
      "chip": "ym2612"
    },
    {
      "channel": 4,
      "note": 72,
      "start": 14.5967,
      "duration": 0.013,
      "velocity": 97,
      "chip": "ym2612"
    },
    {
      "channel": 3,
      "note": 48,
      "start": 14.613,
      "duration": 0.0129,
      "velocity": 88,
      "chip": "ym2612"
    },
    {
      "channel": 4,
      "note": 84,
      "start": 14.6135,
      "duration": 0.0126,
      "velocity": 97,
      "chip": "ym2612"
    },
    {
      "channel": 1,
      "note": 70,
      "start": 14.631,
      "duration": 0.0299,
      "velocity": 102,
      "chip": "ym2612"
    },
    {
      "channel": 2,
      "note": 77,
      "start": 14.6316,
      "duration": 0.0294,
      "velocity": 102,
      "chip": "ym2612"
    },
    {
      "channel": 3,
      "note": 48,
      "start": 14.6322,
      "duration": 0.0136,
      "velocity": 88,
      "chip": "ym2612"
    },
    {
      "channel": 4,
      "note": 72,
      "start": 14.6328,
      "duration": 0.0131,
      "velocity": 97,
      "chip": "ym2612"
    },
    {
      "channel": 3,
      "note": 48,
      "start": 14.6485,
      "duration": 0.0127,
      "velocity": 88,
      "chip": "ym2612"
    },
    {
      "channel": 4,
      "note": 75,
      "start": 14.649,
      "duration": 0.0123,
      "velocity": 97,
      "chip": "ym2612"
    },
    {
      "channel": 1,
      "note": 72,
      "start": 14.6648,
      "duration": 0.0304,
      "velocity": 102,
      "chip": "ym2612"
    },
    {
      "channel": 2,
      "note": 79,
      "start": 14.6653,
      "duration": 0.03,
      "velocity": 102,
      "chip": "ym2612"
    },
    {
      "channel": 3,
      "note": 60,
      "start": 14.6659,
      "duration": 0.0134,
      "velocity": 88,
      "chip": "ym2612"
    },
    {
      "channel": 4,
      "note": 72,
      "start": 14.6663,
      "duration": 0.0131,
      "velocity": 97,
      "chip": "ym2612"
    },
    {
      "channel": 3,
      "note": 48,
      "start": 14.6826,
      "duration": 0.013,
      "velocity": 88,
      "chip": "ym2612"
    },
    {
      "channel": 4,
      "note": 77,
      "start": 14.6831,
      "duration": 0.0126,
      "velocity": 97,
      "chip": "ym2612"
    },
    {
      "channel": 1,
      "note": 72,
      "start": 14.6983,
      "duration": 0.0142,
      "velocity": 102,
      "chip": "ym2612"
    },
    {
      "channel": 2,
      "note": 79,
      "start": 14.6988,
      "duration": 0.0139,
      "velocity": 102,
      "chip": "ym2612"
    },
    {
      "channel": 3,
      "note": 48,
      "start": 14.6993,
      "duration": 0.0135,
      "velocity": 88,
      "chip": "ym2612"
    },
    {
      "channel": 4,
      "note": 72,
      "start": 14.6998,
      "duration": 0.0132,
      "velocity": 97,
      "chip": "ym2612"
    },
    {
      "channel": 1,
      "note": 70,
      "start": 14.7166,
      "duration": 0.0148,
      "velocity": 102,
      "chip": "ym2612"
    },
    {
      "channel": 2,
      "note": 77,
      "start": 14.7171,
      "duration": 0.0145,
      "velocity": 102,
      "chip": "ym2612"
    },
    {
      "channel": 3,
      "note": 60,
      "start": 14.7176,
      "duration": 0.0142,
      "velocity": 88,
      "chip": "ym2612"
    },
    {
      "channel": 4,
      "note": 79,
      "start": 14.7181,
      "duration": 0.0138,
      "velocity": 97,
      "chip": "ym2612"
    },
    {
      "channel": 1,
      "note": 72,
      "start": 14.7346,
      "duration": 0.0141,
      "velocity": 102,
      "chip": "ym2612"
    },
    {
      "channel": 2,
      "note": 79,
      "start": 14.7351,
      "duration": 0.0138,
      "velocity": 102,
      "chip": "ym2612"
    },
    {
      "channel": 3,
      "note": 48,
      "start": 14.7356,
      "duration": 0.0135,
      "velocity": 88,
      "chip": "ym2612"
    },
    {
      "channel": 4,
      "note": 72,
      "start": 14.7361,
      "duration": 0.0131,
      "velocity": 97,
      "chip": "ym2612"
    },
    {
      "channel": 1,
      "note": 72,
      "start": 14.7521,
      "duration": 0.0316,
      "velocity": 102,
      "chip": "ym2612"
    },
    {
      "channel": 2,
      "note": 79,
      "start": 14.7526,
      "duration": 0.0312,
      "velocity": 102,
      "chip": "ym2612"
    },
    {
      "channel": 3,
      "note": 48,
      "start": 14.7531,
      "duration": 0.0128,
      "velocity": 88,
      "chip": "ym2612"
    },
    {
      "channel": 4,
      "note": 84,
      "start": 14.7535,
      "duration": 0.0126,
      "velocity": 97,
      "chip": "ym2612"
    },
    {
      "channel": 3,
      "note": 48,
      "start": 14.7703,
      "duration": 0.0136,
      "velocity": 88,
      "chip": "ym2612"
    },
    {
      "channel": 4,
      "note": 72,
      "start": 14.7708,
      "duration": 0.0132,
      "velocity": 97,
      "chip": "ym2612"
    },
    {
      "channel": 1,
      "note": 65,
      "start": 14.7866,
      "duration": 0.0133,
      "velocity": 102,
      "chip": "ym2612"
    },
    {
      "channel": 2,
      "note": 72,
      "start": 14.7871,
      "duration": 0.0129,
      "velocity": 102,
      "chip": "ym2612"
    },
    {
      "channel": 3,
      "note": 48,
      "start": 14.7876,
      "duration": 0.0126,
      "velocity": 88,
      "chip": "ym2612"
    },
    {
      "channel": 4,
      "note": 75,
      "start": 14.7881,
      "duration": 0.0123,
      "velocity": 97,
      "chip": "ym2612"
    },
    {
      "channel": 1,
      "note": 67,
      "start": 14.8042,
      "duration": 0.0143,
      "velocity": 102,
      "chip": "ym2612"
    },
    {
      "channel": 2,
      "note": 74,
      "start": 14.8047,
      "duration": 0.0139,
      "velocity": 102,
      "chip": "ym2612"
    },
    {
      "channel": 3,
      "note": 60,
      "start": 14.8051,
      "duration": 0.0136,
      "velocity": 88,
      "chip": "ym2612"
    },
    {
      "channel": 4,
      "note": 72,
      "start": 14.8056,
      "duration": 0.0132,
      "velocity": 97,
      "chip": "ym2612"
    },
    {
      "channel": 1,
      "note": 70,
      "start": 14.8219,
      "duration": 0.0137,
      "velocity": 102,
      "chip": "ym2612"
    },
    {
      "channel": 2,
      "note": 77,
      "start": 14.8224,
      "duration": 0.0134,
      "velocity": 102,
      "chip": "ym2612"
    },
    {
      "channel": 3,
      "note": 48,
      "start": 14.8229,
      "duration": 0.013,
      "velocity": 88,
      "chip": "ym2612"
    },
    {
      "channel": 4,
      "note": 77,
      "start": 14.8234,
      "duration": 0.0127,
      "velocity": 97,
      "chip": "ym2612"
    },
    {
      "channel": 1,
      "note": 72,
      "start": 14.8398,
      "duration": 0.0164,
      "velocity": 102,
      "chip": "ym2612"
    },
    {
      "channel": 2,
      "note": 79,
      "start": 14.8403,
      "duration": 0.016,
      "velocity": 102,
      "chip": "ym2612"
    },
    {
      "channel": 3,
      "note": 48,
      "start": 14.8408,
      "duration": 0.0157,
      "velocity": 88,
      "chip": "ym2612"
    },
    {
      "channel": 4,
      "note": 72,
      "start": 14.8413,
      "duration": 0.0153,
      "velocity": 97,
      "chip": "ym2612"
    },
    {
      "channel": 1,
      "note": 75,
      "start": 14.8603,
      "duration": 0.015,
      "velocity": 102,
      "chip": "ym2612"
    },
    {
      "channel": 2,
      "note": 82,
      "start": 14.8608,
      "duration": 0.0146,
      "velocity": 102,
      "chip": "ym2612"
    },
    {
      "channel": 3,
      "note": 60,
      "start": 14.8613,
      "duration": 0.0142,
      "velocity": 88,
      "chip": "ym2612"
    },
    {
      "channel": 4,
      "note": 79,
      "start": 14.8618,
      "duration": 0.0139,
      "velocity": 97,
      "chip": "ym2612"
    },
    {
      "channel": 1,
      "note": 77,
      "start": 14.8784,
      "duration": 0.0144,
      "velocity": 102,
      "chip": "ym2612"
    },
    {
      "channel": 2,
      "note": 84,
      "start": 14.8788,
      "duration": 0.0141,
      "velocity": 102,
      "chip": "ym2612"
    },
    {
      "channel": 3,
      "note": 48,
      "start": 14.8793,
      "duration": 0.0137,
      "velocity": 88,
      "chip": "ym2612"
    },
    {
      "channel": 4,
      "note": 72,
      "start": 14.8799,
      "duration": 0.0134,
      "velocity": 97,
      "chip": "ym2612"
    },
    {
      "channel": 1,
      "note": 79,
      "start": 14.8963,
      "duration": 0.0137,
      "velocity": 102,
      "chip": "ym2612"
    },
    {
      "channel": 2,
      "note": 86,
      "start": 14.8968,
      "duration": 0.0134,
      "velocity": 102,
      "chip": "ym2612"
    },
    {
      "channel": 3,
      "note": 48,
      "start": 14.8973,
      "duration": 0.013,
      "velocity": 88,
      "chip": "ym2612"
    },
    {
      "channel": 4,
      "note": 84,
      "start": 14.8977,
      "duration": 0.0127,
      "velocity": 97,
      "chip": "ym2612"
    },
    {
      "channel": 1,
      "note": 70,
      "start": 14.9143,
      "duration": 0.0302,
      "velocity": 102,
      "chip": "ym2612"
    },
    {
      "channel": 2,
      "note": 77,
      "start": 14.9149,
      "duration": 0.0298,
      "velocity": 102,
      "chip": "ym2612"
    },
    {
      "channel": 3,
      "note": 48,
      "start": 14.9155,
      "duration": 0.0138,
      "velocity": 88,
      "chip": "ym2612"
    },
    {
      "channel": 4,
      "note": 72,
      "start": 14.9161,
      "duration": 0.0134,
      "velocity": 97,
      "chip": "ym2612"
    },
    {
      "channel": 3,
      "note": 48,
      "start": 14.9321,
      "duration": 0.0127,
      "velocity": 88,
      "chip": "ym2612"
    },
    {
      "channel": 4,
      "note": 75,
      "start": 14.9327,
      "duration": 0.0123,
      "velocity": 97,
      "chip": "ym2612"
    },
    {
      "channel": 1,
      "note": 72,
      "start": 14.9485,
      "duration": 0.0306,
      "velocity": 102,
      "chip": "ym2612"
    },
    {
      "channel": 2,
      "note": 79,
      "start": 14.9489,
      "duration": 0.0303,
      "velocity": 102,
      "chip": "ym2612"
    },
    {
      "channel": 3,
      "note": 60,
      "start": 14.9494,
      "duration": 0.0137,
      "velocity": 88,
      "chip": "ym2612"
    },
    {
      "channel": 4,
      "note": 72,
      "start": 14.95,
      "duration": 0.0133,
      "velocity": 97,
      "chip": "ym2612"
    },
    {
      "channel": 3,
      "note": 48,
      "start": 14.9664,
      "duration": 0.0129,
      "velocity": 88,
      "chip": "ym2612"
    },
    {
      "channel": 4,
      "note": 77,
      "start": 14.967,
      "duration": 0.0126,
      "velocity": 97,
      "chip": "ym2612"
    },
    {
      "channel": 1,
      "note": 72,
      "start": 14.9821,
      "duration": 0.0144,
      "velocity": 102,
      "chip": "ym2612"
    },
    {
      "channel": 2,
      "note": 79,
      "start": 14.9826,
      "duration": 0.014,
      "velocity": 102,
      "chip": "ym2612"
    },
    {
      "channel": 3,
      "note": 48,
      "start": 14.9831,
      "duration": 0.0137,
      "velocity": 88,
      "chip": "ym2612"
    },
    {
      "channel": 4,
      "note": 72,
      "start": 14.9836,
      "duration": 0.0133,
      "velocity": 97,
      "chip": "ym2612"
    },
    {
      "channel": 1,
      "note": 70,
      "start": 15.0004,
      "duration": 0.0151,
      "velocity": 102,
      "chip": "ym2612"
    },
    {
      "channel": 2,
      "note": 77,
      "start": 15.0009,
      "duration": 0.0147,
      "velocity": 102,
      "chip": "ym2612"
    },
    {
      "channel": 3,
      "note": 60,
      "start": 15.0014,
      "duration": 0.0144,
      "velocity": 88,
      "chip": "ym2612"
    },
    {
      "channel": 4,
      "note": 79,
      "start": 15.0019,
      "duration": 0.014,
      "velocity": 97,
      "chip": "ym2612"
    },
    {
      "channel": 1,
      "note": 72,
      "start": 15.0185,
      "duration": 0.0144,
      "velocity": 102,
      "chip": "ym2612"
    },
    {
      "channel": 2,
      "note": 79,
      "start": 15.0189,
      "duration": 0.014,
      "velocity": 102,
      "chip": "ym2612"
    },
    {
      "channel": 3,
      "note": 48,
      "start": 15.0194,
      "duration": 0.0137,
      "velocity": 88,
      "chip": "ym2612"
    },
    {
      "channel": 4,
      "note": 72,
      "start": 15.02,
      "duration": 0.0133,
      "velocity": 97,
      "chip": "ym2612"
    },
    {
      "channel": 1,
      "note": 72,
      "start": 15.0363,
      "duration": 0.0316,
      "velocity": 102,
      "chip": "ym2612"
    },
    {
      "channel": 2,
      "note": 79,
      "start": 15.0368,
      "duration": 0.0312,
      "velocity": 102,
      "chip": "ym2612"
    },
    {
      "channel": 3,
      "note": 48,
      "start": 15.0373,
      "duration": 0.0129,
      "velocity": 88,
      "chip": "ym2612"
    },
    {
      "channel": 4,
      "note": 84,
      "start": 15.0378,
      "duration": 0.0127,
      "velocity": 97,
      "chip": "ym2612"
    },
    {
      "channel": 3,
      "note": 60,
      "start": 15.0545,
      "duration": 0.0137,
      "velocity": 88,
      "chip": "ym2612"
    },
    {
      "channel": 4,
      "note": 72,
      "start": 15.055,
      "duration": 0.0133,
      "velocity": 97,
      "chip": "ym2612"
    },
    {
      "channel": 1,
      "note": 70,
      "start": 15.0709,
      "duration": 0.0133,
      "velocity": 102,
      "chip": "ym2612"
    },
    {
      "channel": 2,
      "note": 77,
      "start": 15.0713,
      "duration": 0.013,
      "velocity": 102,
      "chip": "ym2612"
    },
    {
      "channel": 3,
      "note": 48,
      "start": 15.0718,
      "duration": 0.0126,
      "velocity": 88,
      "chip": "ym2612"
    },
    {
      "channel": 4,
      "note": 75,
      "start": 15.0723,
      "duration": 0.0123,
      "velocity": 97,
      "chip": "ym2612"
    },
    {
      "channel": 1,
      "note": 72,
      "start": 15.0885,
      "duration": 0.0145,
      "velocity": 102,
      "chip": "ym2612"
    },
    {
      "channel": 2,
      "note": 79,
      "start": 15.089,
      "duration": 0.0141,
      "velocity": 102,
      "chip": "ym2612"
    },
    {
      "channel": 3,
      "note": 48,
      "start": 15.0895,
      "duration": 0.0138,
      "velocity": 88,
      "chip": "ym2612"
    },
    {
      "channel": 4,
      "note": 72,
      "start": 15.09,
      "duration": 0.0135,
      "velocity": 97,
      "chip": "ym2612"
    },
    {
      "channel": 1,
      "note": 70,
      "start": 15.1064,
      "duration": 0.0137,
      "velocity": 102,
      "chip": "ym2612"
    },
    {
      "channel": 2,
      "note": 77,
      "start": 15.1069,
      "duration": 0.0134,
      "velocity": 102,
      "chip": "ym2612"
    },
    {
      "channel": 3,
      "note": 60,
      "start": 15.1074,
      "duration": 0.0129,
      "velocity": 88,
      "chip": "ym2612"
    },
    {
      "channel": 4,
      "note": 77,
      "start": 15.1079,
      "duration": 0.0127,
      "velocity": 97,
      "chip": "ym2612"
    },
    {
      "channel": 1,
      "note": 77,
      "start": 15.1245,
      "duration": 0.0344,
      "velocity": 102,
      "chip": "ym2612"
    },
    {
      "channel": 2,
      "note": 84,
      "start": 15.1249,
      "duration": 0.0341,
      "velocity": 102,
      "chip": "ym2612"
    },
    {
      "channel": 3,
      "note": 48,
      "start": 15.1254,
      "duration": 0.0157,
      "velocity": 88,
      "chip": "ym2612"
    },
    {
      "channel": 4,
      "note": 72,
      "start": 15.1259,
      "duration": 0.0153,
      "velocity": 97,
      "chip": "ym2612"
    },
    {
      "channel": 3,
      "note": 48,
      "start": 15.1451,
      "duration": 0.0141,
      "velocity": 88,
      "chip": "ym2612"
    },
    {
      "channel": 4,
      "note": 79,
      "start": 15.1456,
      "duration": 0.0137,
      "velocity": 97,
      "chip": "ym2612"
    },
    {
      "channel": 1,
      "note": 75,
      "start": 15.1628,
      "duration": 0.0307,
      "velocity": 102,
      "chip": "ym2612"
    },
    {
      "channel": 2,
      "note": 82,
      "start": 15.1632,
      "duration": 0.0303,
      "velocity": 102,
      "chip": "ym2612"
    },
    {
      "channel": 3,
      "note": 60,
      "start": 15.1637,
      "duration": 0.0136,
      "velocity": 88,
      "chip": "ym2612"
    },
    {
      "channel": 4,
      "note": 72,
      "start": 15.1642,
      "duration": 0.0132,
      "velocity": 97,
      "chip": "ym2612"
    },
    {
      "channel": 3,
      "note": 48,
      "start": 15.1808,
      "duration": 0.0129,
      "velocity": 88,
      "chip": "ym2612"
    },
    {
      "channel": 4,
      "note": 84,
      "start": 15.1813,
      "duration": 0.0126,
      "velocity": 97,
      "chip": "ym2612"
    },
    {
      "channel": 1,
      "note": 70,
      "start": 15.1965,
      "duration": 0.014,
      "velocity": 102,
      "chip": "ym2612"
    },
    {
      "channel": 2,
      "note": 77,
      "start": 15.1971,
      "duration": 0.0135,
      "velocity": 102,
      "chip": "ym2612"
    },
    {
      "channel": 3,
      "note": 48,
      "start": 15.1977,
      "duration": 0.0131,
      "velocity": 88,
      "chip": "ym2612"
    },
    {
      "channel": 4,
      "note": 72,
      "start": 15.1983,
      "duration": 0.0126,
      "velocity": 97,
      "chip": "ym2612"
    },
    {
      "channel": 1,
      "note": 72,
      "start": 15.2141,
      "duration": 0.0139,
      "velocity": 102,
      "chip": "ym2612"
    },
    {
      "channel": 2,
      "note": 79,
      "start": 15.2145,
      "duration": 0.0136,
      "velocity": 102,
      "chip": "ym2612"
    },
    {
      "channel": 3,
      "note": 60,
      "start": 15.215,
      "duration": 0.0133,
      "velocity": 88,
      "chip": "ym2612"
    },
    {
      "channel": 4,
      "note": 75,
      "start": 15.2155,
      "duration": 0.0129,
      "velocity": 97,
      "chip": "ym2612"
    },
    {
      "channel": 3,
      "note": 48,
      "start": 15.2314,
      "duration": 0.0128,
      "velocity": 88,
      "chip": "ym2612"
    },
    {
      "channel": 4,
      "note": 72,
      "start": 15.2319,
      "duration": 0.0124,
      "velocity": 97,
      "chip": "ym2612"
    },
    {
      "channel": 1,
      "note": 72,
      "start": 15.2466,
      "duration": 0.0129,
      "velocity": 102,
      "chip": "ym2612"
    },
    {
      "channel": 2,
      "note": 79,
      "start": 15.2471,
      "duration": 0.0125,
      "velocity": 102,
      "chip": "ym2612"
    },
    {
      "channel": 3,
      "note": 48,
      "start": 15.2476,
      "duration": 0.0122,
      "velocity": 88,
      "chip": "ym2612"
    },
    {
      "channel": 4,
      "note": 77,
      "start": 15.2482,
      "duration": 0.0118,
      "velocity": 97,
      "chip": "ym2612"
    },
    {
      "channel": 1,
      "note": 70,
      "start": 15.2623,
      "duration": 0.0145,
      "velocity": 102,
      "chip": "ym2612"
    },
    {
      "channel": 2,
      "note": 77,
      "start": 15.2628,
      "duration": 0.0141,
      "velocity": 102,
      "chip": "ym2612"
    },
    {
      "channel": 3,
      "note": 60,
      "start": 15.2634,
      "duration": 0.0137,
      "velocity": 88,
      "chip": "ym2612"
    },
    {
      "channel": 4,
      "note": 72,
      "start": 15.2638,
      "duration": 0.0135,
      "velocity": 97,
      "chip": "ym2612"
    },
    {
      "channel": 1,
      "note": 72,
      "start": 15.2803,
      "duration": 0.0154,
      "velocity": 102,
      "chip": "ym2612"
    },
    {
      "channel": 2,
      "note": 79,
      "start": 15.2808,
      "duration": 0.015,
      "velocity": 102,
      "chip": "ym2612"
    },
    {
      "channel": 3,
      "note": 48,
      "start": 15.2813,
      "duration": 0.0146,
      "velocity": 88,
      "chip": "ym2612"
    },
    {
      "channel": 4,
      "note": 79,
      "start": 15.2818,
      "duration": 0.0143,
      "velocity": 97,
      "chip": "ym2612"
    },
    {
      "channel": 3,
      "note": 60,
      "start": 15.3004,
      "duration": 0.0154,
      "velocity": 88,
      "chip": "ym2612"
    },
    {
      "channel": 4,
      "note": 72,
      "start": 15.3009,
      "duration": 0.015,
      "velocity": 97,
      "chip": "ym2612"
    },
    {
      "channel": 1,
      "note": 72,
      "start": 15.3195,
      "duration": 0.0154,
      "velocity": 102,
      "chip": "ym2612"
    },
    {
      "channel": 2,
      "note": 79,
      "start": 15.32,
      "duration": 0.0151,
      "velocity": 102,
      "chip": "ym2612"
    },
    {
      "channel": 3,
      "note": 60,
      "start": 15.3205,
      "duration": 0.0148,
      "velocity": 88,
      "chip": "ym2612"
    },
    {
      "channel": 4,
      "note": 84,
      "start": 15.321,
      "duration": 0.0144,
      "velocity": 97,
      "chip": "ym2612"
    },
    {
      "channel": 1,
      "note": 70,
      "start": 15.3393,
      "duration": 0.0173,
      "velocity": 102,
      "chip": "ym2612"
    },
    {
      "channel": 2,
      "note": 77,
      "start": 15.3397,
      "duration": 0.0171,
      "velocity": 102,
      "chip": "ym2612"
    },
    {
      "channel": 3,
      "note": 48,
      "start": 15.3402,
      "duration": 0.0167,
      "velocity": 88,
      "chip": "ym2612"
    },
    {
      "channel": 4,
      "note": 72,
      "start": 15.3407,
      "duration": 0.0163,
      "velocity": 97,
      "chip": "ym2612"
    },
    {
      "channel": 1,
      "note": 72,
      "start": 15.3598,
      "duration": 0.0163,
      "velocity": 102,
      "chip": "ym2612"
    },
    {
      "channel": 2,
      "note": 79,
      "start": 15.3602,
      "duration": 0.016,
      "velocity": 102,
      "chip": "ym2612"
    },
    {
      "channel": 3,
      "note": 60,
      "start": 15.3607,
      "duration": 0.0156,
      "velocity": 88,
      "chip": "ym2612"
    },
    {
      "channel": 4,
      "note": 75,
      "start": 15.3613,
      "duration": 0.0153,
      "velocity": 97,
      "chip": "ym2612"
    },
    {
      "channel": 3,
      "note": 48,
      "start": 15.3805,
      "duration": 0.0166,
      "velocity": 88,
      "chip": "ym2612"
    },
    {
      "channel": 4,
      "note": 72,
      "start": 15.381,
      "duration": 0.0162,
      "velocity": 97,
      "chip": "ym2612"
    },
    {
      "channel": 1,
      "note": 72,
      "start": 15.4003,
      "duration": 0.0163,
      "velocity": 102,
      "chip": "ym2612"
    },
    {
      "channel": 2,
      "note": 79,
      "start": 15.4007,
      "duration": 0.0161,
      "velocity": 102,
      "chip": "ym2612"
    },
    {
      "channel": 3,
      "note": 48,
      "start": 15.4012,
      "duration": 0.0157,
      "velocity": 88,
      "chip": "ym2612"
    },
    {
      "channel": 4,
      "note": 77,
      "start": 15.4017,
      "duration": 0.0153,
      "velocity": 97,
      "chip": "ym2612"
    },
    {
      "channel": 1,
      "note": 70,
      "start": 15.4205,
      "duration": 0.0165,
      "velocity": 102,
      "chip": "ym2612"
    },
    {
      "channel": 2,
      "note": 77,
      "start": 15.421,
      "duration": 0.0161,
      "velocity": 102,
      "chip": "ym2612"
    },
    {
      "channel": 3,
      "note": 60,
      "start": 15.4215,
      "duration": 0.0158,
      "velocity": 88,
      "chip": "ym2612"
    },
    {
      "channel": 4,
      "note": 72,
      "start": 15.422,
      "duration": 0.0155,
      "velocity": 97,
      "chip": "ym2612"
    },
    {
      "channel": 1,
      "note": 72,
      "start": 15.441,
      "duration": 0.0154,
      "velocity": 102,
      "chip": "ym2612"
    },
    {
      "channel": 2,
      "note": 79,
      "start": 15.4415,
      "duration": 0.0151,
      "velocity": 102,
      "chip": "ym2612"
    },
    {
      "channel": 3,
      "note": 48,
      "start": 15.442,
      "duration": 0.0147,
      "velocity": 88,
      "chip": "ym2612"
    },
    {
      "channel": 4,
      "note": 79,
      "start": 15.4425,
      "duration": 0.0144,
      "velocity": 97,
      "chip": "ym2612"
    },
    {
      "channel": 3,
      "note": 60,
      "start": 15.46,
      "duration": 0.0136,
      "velocity": 88,
      "chip": "ym2612"
    },
    {
      "channel": 4,
      "note": 72,
      "start": 15.4605,
      "duration": 0.0133,
      "velocity": 97,
      "chip": "ym2612"
    },
    {
      "channel": 1,
      "note": 72,
      "start": 15.4763,
      "duration": 0.0136,
      "velocity": 102,
      "chip": "ym2612"
    },
    {
      "channel": 2,
      "note": 79,
      "start": 15.4768,
      "duration": 0.0133,
      "velocity": 102,
      "chip": "ym2612"
    },
    {
      "channel": 3,
      "note": 60,
      "start": 15.4773,
      "duration": 0.013,
      "velocity": 88,
      "chip": "ym2612"
    },
    {
      "channel": 4,
      "note": 84,
      "start": 15.4778,
      "duration": 0.0126,
      "velocity": 97,
      "chip": "ym2612"
    },
    {
      "channel": 3,
      "note": 36,
      "start": 15.4996,
      "duration": 1.0046,
      "velocity": 108,
      "chip": "ym2612"
    },
    {
      "channel": 1,
      "note": 79,
      "start": 15.5305,
      "duration": 0.0181,
      "velocity": 97,
      "chip": "ym2612"
    },
    {
      "channel": 2,
      "note": 82,
      "start": 15.5328,
      "duration": 0.0159,
      "velocity": 97,
      "chip": "ym2612"
    },
    {
      "channel": 4,
      "note": 75,
      "start": 15.534,
      "duration": 0.015,
      "velocity": 97,
      "chip": "ym2612"
    },
    {
      "channel": 1,
      "note": 79,
      "start": 15.6717,
      "duration": 0.1079,
      "velocity": 97,
      "chip": "ym2612"
    },
    {
      "channel": 2,
      "note": 82,
      "start": 15.6723,
      "duration": 0.1075,
      "velocity": 97,
      "chip": "ym2612"
    },
    {
      "channel": 4,
      "note": 75,
      "start": 15.6729,
      "duration": 0.1072,
      "velocity": 97,
      "chip": "ym2612"
    },
    {
      "channel": 1,
      "note": 79,
      "start": 15.8884,
      "duration": 0.6155,
      "velocity": 97,
      "chip": "ym2612"
    },
    {
      "channel": 2,
      "note": 82,
      "start": 15.8889,
      "duration": 0.6152,
      "velocity": 97,
      "chip": "ym2612"
    },
    {
      "channel": 4,
      "note": 75,
      "start": 15.8895,
      "duration": 0.6149,
      "velocity": 97,
      "chip": "ym2612"
    },
    {
      "channel": 3,
      "note": 36,
      "start": 16.5095,
      "duration": 0.2806,
      "velocity": 108,
      "chip": "ym2612"
    },
    {
      "channel": 1,
      "note": 79,
      "start": 16.5442,
      "duration": 0.0195,
      "velocity": 97,
      "chip": "ym2612"
    },
    {
      "channel": 2,
      "note": 81,
      "start": 16.5447,
      "duration": 0.0191,
      "velocity": 97,
      "chip": "ym2612"
    },
    {
      "channel": 4,
      "note": 75,
      "start": 16.5453,
      "duration": 0.0187,
      "velocity": 97,
      "chip": "ym2612"
    },
    {
      "channel": 1,
      "note": 79,
      "start": 16.5961,
      "duration": 0.0193,
      "velocity": 97,
      "chip": "ym2612"
    },
    {
      "channel": 2,
      "note": 81,
      "start": 16.5966,
      "duration": 0.0189,
      "velocity": 97,
      "chip": "ym2612"
    },
    {
      "channel": 4,
      "note": 75,
      "start": 16.5972,
      "duration": 0.0186,
      "velocity": 97,
      "chip": "ym2612"
    },
    {
      "channel": 1,
      "note": 79,
      "start": 16.635,
      "duration": 0.1549,
      "velocity": 97,
      "chip": "ym2612"
    },
    {
      "channel": 2,
      "note": 81,
      "start": 16.6355,
      "duration": 0.1545,
      "velocity": 97,
      "chip": "ym2612"
    },
    {
      "channel": 4,
      "note": 75,
      "start": 16.6361,
      "duration": 0.1541,
      "velocity": 97,
      "chip": "ym2612"
    },
    {
      "channel": 3,
      "note": 36,
      "start": 16.7962,
      "duration": 0.2766,
      "velocity": 108,
      "chip": "ym2612"
    },
    {
      "channel": 1,
      "note": 79,
      "start": 16.8296,
      "duration": 0.0192,
      "velocity": 97,
      "chip": "ym2612"
    },
    {
      "channel": 2,
      "note": 82,
      "start": 16.8314,
      "duration": 0.0176,
      "velocity": 97,
      "chip": "ym2612"
    },
    {
      "channel": 4,
      "note": 75,
      "start": 16.832,
      "duration": 0.0171,
      "velocity": 97,
      "chip": "ym2612"
    },
    {
      "channel": 1,
      "note": 79,
      "start": 16.8813,
      "duration": 0.0193,
      "velocity": 97,
      "chip": "ym2612"
    },
    {
      "channel": 2,
      "note": 82,
      "start": 16.8819,
      "duration": 0.0189,
      "velocity": 97,
      "chip": "ym2612"
    },
    {
      "channel": 4,
      "note": 75,
      "start": 16.8824,
      "duration": 0.0186,
      "velocity": 97,
      "chip": "ym2612"
    },
    {
      "channel": 1,
      "note": 79,
      "start": 16.9193,
      "duration": 0.1533,
      "velocity": 97,
      "chip": "ym2612"
    },
    {
      "channel": 2,
      "note": 82,
      "start": 16.9198,
      "duration": 0.1529,
      "velocity": 97,
      "chip": "ym2612"
    },
    {
      "channel": 4,
      "note": 75,
      "start": 16.9204,
      "duration": 0.1526,
      "velocity": 97,
      "chip": "ym2612"
    },
    {
      "channel": 3,
      "note": 36,
      "start": 17.0774,
      "duration": 0.1384,
      "velocity": 108,
      "chip": "ym2612"
    },
    {
      "channel": 1,
      "note": 79,
      "start": 17.1122,
      "duration": 0.0195,
      "velocity": 97,
      "chip": "ym2612"
    },
    {
      "channel": 2,
      "note": 81,
      "start": 17.1127,
      "duration": 0.0191,
      "velocity": 97,
      "chip": "ym2612"
    },
    {
      "channel": 4,
      "note": 75,
      "start": 17.1133,
      "duration": 0.0187,
      "velocity": 97,
      "chip": "ym2612"
    },
    {
      "channel": 1,
      "note": 79,
      "start": 17.164,
      "duration": 0.0193,
      "velocity": 97,
      "chip": "ym2612"
    },
    {
      "channel": 2,
      "note": 81,
      "start": 17.1646,
      "duration": 0.0189,
      "velocity": 97,
      "chip": "ym2612"
    },
    {
      "channel": 4,
      "note": 75,
      "start": 17.1652,
      "duration": 0.0185,
      "velocity": 97,
      "chip": "ym2612"
    },
    {
      "channel": 1,
      "note": 79,
      "start": 17.2022,
      "duration": 72.9174,
      "velocity": 97,
      "chip": "ym2612"
    },
    {
      "channel": 2,
      "note": 81,
      "start": 17.2027,
      "duration": 72.9169,
      "velocity": 97,
      "chip": "ym2612"
    },
    {
      "channel": 4,
      "note": 75,
      "start": 17.2033,
      "duration": 72.9163,
      "velocity": 97,
      "chip": "ym2612"
    },
    {
      "channel": 3,
      "note": 51,
      "start": 17.22,
      "duration": 0.0123,
      "velocity": 88,
      "chip": "ym2612"
    },
    {
      "channel": 3,
      "note": 50,
      "start": 17.2356,
      "duration": 0.0129,
      "velocity": 88,
      "chip": "ym2612"
    },
    {
      "channel": 3,
      "note": 48,
      "start": 17.2515,
      "duration": 0.0149,
      "velocity": 88,
      "chip": "ym2612"
    },
    {
      "channel": 3,
      "note": 50,
      "start": 17.2695,
      "duration": 0.014,
      "velocity": 88,
      "chip": "ym2612"
    },
    {
      "channel": 3,
      "note": 53,
      "start": 17.287,
      "duration": 0.016,
      "velocity": 88,
      "chip": "ym2612"
    },
    {
      "channel": 3,
      "note": 51,
      "start": 17.3062,
      "duration": 0.0144,
      "velocity": 88,
      "chip": "ym2612"
    }
  ]
}