{
  "track_name": "07 - Boss 3 - Zeus (Acts 5, 6)",
  "duration_sec": 62.177,
  "sample_rate": 44100,
  "note_count": 387,
  "unique_pitches": 53,
  "pitch_range": 57,
  "avg_note_duration": 0.2155,
  "reconstruction_stats": {
    "notes_reconstructed": 387,
    "keyon_events": 387,
    "keyoff_events": 387,
    "orphan_keyons": 0,
    "unique_pitches": 53,
    "pitch_range": 57,
    "avg_duration_sec": 0.2155
  },
  "metadata": {
    "source": "M\\Master of Weapon\\07 - Boss 3 - Zeus (Acts 5, 6).vgz"
  },
  "notes": [
    {
      "channel": 1,
      "note": 46,
      "start": 0.0817,
      "duration": 1.0019,
      "velocity": 103,
      "chip": "ym2612"
    },
    {
      "channel": 0,
      "note": 46,
      "start": 0.1054,
      "duration": 1.0112,
      "velocity": 103,
      "chip": "ym2612"
    },
    {
      "channel": 1,
      "note": 52,
      "start": 1.1685,
      "duration": 1.0123,
      "velocity": 103,
      "chip": "ym2612"
    },
    {
      "channel": 0,
      "note": 52,
      "start": 1.2028,
      "duration": 1.0111,
      "velocity": 103,
      "chip": "ym2612"
    },
    {
      "channel": 1,
      "note": 51,
      "start": 2.2658,
      "duration": 1.0125,
      "velocity": 103,
      "chip": "ym2612"
    },
    {
      "channel": 0,
      "note": 51,
      "start": 2.3001,
      "duration": 1.0112,
      "velocity": 103,
      "chip": "ym2612"
    },
    {
      "channel": 1,
      "note": 45,
      "start": 3.3632,
      "duration": 1.5267,
      "velocity": 103,
      "chip": "ym2612"
    },
    {
      "channel": 0,
      "note": 45,
      "start": 3.3974,
      "duration": 1.5255,
      "velocity": 103,
      "chip": "ym2612"
    },
    {
      "channel": 1,
      "note": 40,
      "start": 5.0091,
      "duration": 1.5268,
      "velocity": 103,
      "chip": "ym2612"
    },
    {
      "channel": 0,
      "note": 40,
      "start": 5.0434,
      "duration": 1.5256,
      "velocity": 103,
      "chip": "ym2612"
    },
    {
      "channel": 1,
      "note": 73,
      "start": 6.667,
      "duration": 0.1068,
      "velocity": 97,
      "chip": "ym2612"
    },
    {
      "channel": 0,
      "note": 73,
      "start": 6.7013,
      "duration": 0.1067,
      "velocity": 97,
      "chip": "ym2612"
    },
    {
      "channel": 1,
      "note": 72,
      "start": 6.7932,
      "duration": 0.1178,
      "velocity": 97,
      "chip": "ym2612"
    },
    {
      "channel": 0,
      "note": 72,
      "start": 6.8274,
      "duration": 0.1177,
      "velocity": 97,
      "chip": "ym2612"
    },
    {
      "channel": 1,
      "note": 76,
      "start": 6.9303,
      "duration": 0.1177,
      "velocity": 97,
      "chip": "ym2612"
    },
    {
      "channel": 0,
      "note": 76,
      "start": 6.9646,
      "duration": 0.1178,
      "velocity": 97,
      "chip": "ym2612"
    },
    {
      "channel": 1,
      "note": 75,
      "start": 7.0675,
      "duration": 0.1178,
      "velocity": 97,
      "chip": "ym2612"
    },
    {
      "channel": 0,
      "note": 75,
      "start": 7.1018,
      "duration": 0.1178,
      "velocity": 97,
      "chip": "ym2612"
    },
    {
      "channel": 1,
      "note": 79,
      "start": 7.2047,
      "duration": 0.1178,
      "velocity": 97,
      "chip": "ym2612"
    },
    {
      "channel": 0,
      "note": 79,
      "start": 7.2389,
      "duration": 0.1178,
      "velocity": 97,
      "chip": "ym2612"
    },
    {
      "channel": 1,
      "note": 78,
      "start": 7.3418,
      "duration": 0.1178,
      "velocity": 97,
      "chip": "ym2612"
    },
    {
      "channel": 0,
      "note": 78,
      "start": 7.3761,
      "duration": 0.1177,
      "velocity": 97,
      "chip": "ym2612"
    },
    {
      "channel": 1,
      "note": 82,
      "start": 7.479,
      "duration": 1.2666,
      "velocity": 97,
      "chip": "ym2612"
    },
    {
      "channel": 0,
      "note": 82,
      "start": 7.5132,
      "duration": 1.2494,
      "velocity": 97,
      "chip": "ym2612"
    },
    {
      "channel": 0,
      "note": 81,
      "start": 8.8621,
      "duration": 0.0707,
      "velocity": 113,
      "chip": "ym2612"
    },
    {
      "channel": 1,
      "note": 75,
      "start": 8.8777,
      "duration": 0.0555,
      "velocity": 107,
      "chip": "ym2612"
    },
    {
      "channel": 0,
      "note": 81,
      "start": 8.9697,
      "duration": 0.1174,
      "velocity": 113,
      "chip": "ym2612"
    },
    {
      "channel": 1,
      "note": 75,
      "start": 8.9729,
      "duration": 0.1148,
      "velocity": 107,
      "chip": "ym2612"
    },
    {
      "channel": 0,
      "note": 64,
      "start": 9.8043,
      "duration": 0.053,
      "velocity": 107,
      "chip": "ym2612"
    },
    {
      "channel": 1,
      "note": 64,
      "start": 9.8199,
      "duration": 0.0379,
      "velocity": 107,
      "chip": "ym2612"
    },
    {
      "channel": 0,
      "note": 63,
      "start": 9.8759,
      "duration": 0.05,
      "velocity": 107,
      "chip": "ym2612"
    },
    {
      "channel": 1,
      "note": 63,
      "start": 9.8787,
      "duration": 0.0478,
      "velocity": 107,
      "chip": "ym2612"
    },
    {
      "channel": 0,
      "note": 59,
      "start": 9.9444,
      "duration": 0.05,
      "velocity": 107,
      "chip": "ym2612"
    },
    {
      "channel": 1,
      "note": 59,
      "start": 9.9473,
      "duration": 0.0478,
      "velocity": 107,
      "chip": "ym2612"
    },
    {
      "channel": 0,
      "note": 58,
      "start": 10.013,
      "duration": 0.17,
      "velocity": 107,
      "chip": "ym2612"
    },
    {
      "channel": 1,
      "note": 58,
      "start": 10.0158,
      "duration": 0.1678,
      "velocity": 107,
      "chip": "ym2612"
    },
    {
      "channel": 0,
      "note": 81,
      "start": 11.158,
      "duration": 0.0744,
      "velocity": 113,
      "chip": "ym2612"
    },
    {
      "channel": 1,
      "note": 75,
      "start": 11.1607,
      "duration": 0.0722,
      "velocity": 107,
      "chip": "ym2612"
    },
    {
      "channel": 0,
      "note": 81,
      "start": 11.2523,
      "duration": 0.1173,
      "velocity": 113,
      "chip": "ym2612"
    },
    {
      "channel": 1,
      "note": 75,
      "start": 11.2555,
      "duration": 0.1148,
      "velocity": 107,
      "chip": "ym2612"
    },
    {
      "channel": 0,
      "note": 27,
      "start": 12.9427,
      "duration": 2.2885,
      "velocity": 109,
      "chip": "ym2612"
    },
    {
      "channel": 1,
      "note": 39,
      "start": 12.9455,
      "duration": 2.2863,
      "velocity": 109,
      "chip": "ym2612"
    },
    {
      "channel": 1,
      "note": 41,
      "start": 15.4364,
      "duration": 0.0847,
      "velocity": 107,
      "chip": "ym2612"
    },
    {
      "channel": 2,
      "note": 41,
      "start": 15.4837,
      "duration": 0.0717,
      "velocity": 107,
      "chip": "ym2612"
    },
    {
      "channel": 1,
      "note": 47,
      "start": 15.6424,
      "duration": 0.0844,
      "velocity": 107,
      "chip": "ym2612"
    },
    {
      "channel": 2,
      "note": 47,
      "start": 15.6768,
      "duration": 0.0843,
      "velocity": 107,
      "chip": "ym2612"
    },
    {
      "channel": 1,
      "note": 48,
      "start": 15.8481,
      "duration": 0.0844,
      "velocity": 107,
      "chip": "ym2612"
    },
    {
      "channel": 2,
      "note": 48,
      "start": 15.8825,
      "duration": 0.0844,
      "velocity": 107,
      "chip": "ym2612"
    },
    {
      "channel": 1,
      "note": 41,
      "start": 16.0552,
      "duration": 0.0831,
      "velocity": 107,
      "chip": "ym2612"
    },
    {
      "channel": 2,
      "note": 41,
      "start": 16.0896,
      "duration": 0.083,
      "velocity": 107,
      "chip": "ym2612"
    },
    {
      "channel": 1,
      "note": 47,
      "start": 16.2596,
      "duration": 0.0844,
      "velocity": 107,
      "chip": "ym2612"
    },
    {
      "channel": 2,
      "note": 47,
      "start": 16.294,
      "duration": 0.0844,
      "velocity": 107,
      "chip": "ym2612"
    },
    {
      "channel": 1,
      "note": 48,
      "start": 16.4653,
      "duration": 0.0844,
      "velocity": 107,
      "chip": "ym2612"
    },
    {
      "channel": 2,
      "note": 48,
      "start": 16.4997,
      "duration": 0.0844,
      "velocity": 107,
      "chip": "ym2612"
    },
    {
      "channel": 1,
      "note": 41,
      "start": 16.6725,
      "duration": 0.083,
      "velocity": 107,
      "chip": "ym2612"
    },
    {
      "channel": 2,
      "note": 41,
      "start": 16.7068,
      "duration": 0.083,
      "velocity": 107,
      "chip": "ym2612"
    },
    {
      "channel": 1,
      "note": 46,
      "start": 16.8769,
      "duration": 0.0844,
      "velocity": 107,
      "chip": "ym2612"
    },
    {
      "channel": 2,
      "note": 46,
      "start": 16.9112,
      "duration": 0.0844,
      "velocity": 107,
      "chip": "ym2612"
    },
    {
      "channel": 1,
      "note": 41,
      "start": 17.084,
      "duration": 0.083,
      "velocity": 107,
      "chip": "ym2612"
    },
    {
      "channel": 2,
      "note": 41,
      "start": 17.1184,
      "duration": 0.083,
      "velocity": 107,
      "chip": "ym2612"
    },
    {
      "channel": 1,
      "note": 48,
      "start": 17.2884,
      "duration": 0.0844,
      "velocity": 107,
      "chip": "ym2612"
    },
    {
      "channel": 2,
      "note": 48,
      "start": 17.3228,
      "duration": 0.0844,
      "velocity": 107,
      "chip": "ym2612"
    },
    {
      "channel": 1,
      "note": 41,
      "start": 17.4954,
      "duration": 0.0831,
      "velocity": 107,
      "chip": "ym2612"
    },
    {
      "channel": 2,
      "note": 41,
      "start": 17.5298,
      "duration": 0.083,
      "velocity": 107,
      "chip": "ym2612"
    },
    {
      "channel": 1,
      "note": 47,
      "start": 17.6998,
      "duration": 0.0845,
      "velocity": 107,
      "chip": "ym2612"
    },
    {
      "channel": 2,
      "note": 47,
      "start": 17.7343,
      "duration": 0.0843,
      "velocity": 107,
      "chip": "ym2612"
    },
    {
      "channel": 1,
      "note": 48,
      "start": 17.9056,
      "duration": 0.0844,
      "velocity": 107,
      "chip": "ym2612"
    },
    {
      "channel": 2,
      "note": 48,
      "start": 17.94,
      "duration": 0.0844,
      "velocity": 107,
      "chip": "ym2612"
    },
    {
      "channel": 1,
      "note": 41,
      "start": 18.1127,
      "duration": 0.083,
      "velocity": 107,
      "chip": "ym2612"
    },
    {
      "channel": 2,
      "note": 41,
      "start": 18.1457,
      "duration": 0.0843,
      "velocity": 107,
      "chip": "ym2612"
    },
    {
      "channel": 1,
      "note": 47,
      "start": 18.3171,
      "duration": 0.0844,
      "velocity": 107,
      "chip": "ym2612"
    },
    {
      "channel": 2,
      "note": 47,
      "start": 18.3515,
      "duration": 0.0843,
      "velocity": 107,
      "chip": "ym2612"
    },
    {
      "channel": 1,
      "note": 48,
      "start": 18.5228,
      "duration": 0.0844,
      "velocity": 107,
      "chip": "ym2612"
    },
    {
      "channel": 2,
      "note": 48,
      "start": 18.5572,
      "duration": 0.0843,
      "velocity": 107,
      "chip": "ym2612"
    },
    {
      "channel": 1,
      "note": 41,
      "start": 18.7285,
      "duration": 0.0844,
      "velocity": 107,
      "chip": "ym2612"
    },
    {
      "channel": 2,
      "note": 41,
      "start": 18.7642,
      "duration": 0.083,
      "velocity": 107,
      "chip": "ym2612"
    },
    {
      "channel": 1,
      "note": 47,
      "start": 18.9343,
      "duration": 0.0843,
      "velocity": 107,
      "chip": "ym2612"
    },
    {
      "channel": 2,
      "note": 47,
      "start": 18.9687,
      "duration": 0.0843,
      "velocity": 107,
      "chip": "ym2612"
    },
    {
      "channel": 1,
      "note": 41,
      "start": 19.14,
      "duration": 0.0844,
      "velocity": 107,
      "chip": "ym2612"
    },
    {
      "channel": 2,
      "note": 41,
      "start": 19.1744,
      "duration": 0.0844,
      "velocity": 107,
      "chip": "ym2612"
    },
    {
      "channel": 1,
      "note": 48,
      "start": 19.3457,
      "duration": 0.0843,
      "velocity": 107,
      "chip": "ym2612"
    },
    {
      "channel": 2,
      "note": 48,
      "start": 19.3801,
      "duration": 0.0844,
      "velocity": 107,
      "chip": "ym2612"
    },
    {
      "channel": 1,
      "note": 44,
      "start": 19.5515,
      "duration": 0.0844,
      "velocity": 107,
      "chip": "ym2612"
    },
    {
      "channel": 2,
      "note": 44,
      "start": 19.5859,
      "duration": 0.0844,
      "velocity": 107,
      "chip": "ym2612"
    },
    {
      "channel": 1,
      "note": 50,
      "start": 19.7572,
      "duration": 0.0844,
      "velocity": 107,
      "chip": "ym2612"
    },
    {
      "channel": 2,
      "note": 50,
      "start": 19.7916,
      "duration": 0.0844,
      "velocity": 107,
      "chip": "ym2612"
    },
    {
      "channel": 1,
      "note": 51,
      "start": 19.9629,
      "duration": 0.0844,
      "velocity": 107,
      "chip": "ym2612"
    },
    {
      "channel": 2,
      "note": 51,
      "start": 19.9973,
      "duration": 0.0844,
      "velocity": 107,
      "chip": "ym2612"
    },
    {
      "channel": 1,
      "note": 44,
      "start": 20.1687,
      "duration": 0.0844,
      "velocity": 107,
      "chip": "ym2612"
    },
    {
      "channel": 2,
      "note": 44,
      "start": 20.2032,
      "duration": 0.0843,
      "velocity": 107,
      "chip": "ym2612"
    },
    {
      "channel": 1,
      "note": 50,
      "start": 20.3745,
      "duration": 0.0843,
      "velocity": 107,
      "chip": "ym2612"
    },
    {
      "channel": 2,
      "note": 50,
      "start": 20.4088,
      "duration": 0.0844,
      "velocity": 107,
      "chip": "ym2612"
    },
    {
      "channel": 1,
      "note": 44,
      "start": 20.5802,
      "duration": 0.0844,
      "velocity": 107,
      "chip": "ym2612"
    },
    {
      "channel": 2,
      "note": 44,
      "start": 20.6146,
      "duration": 0.0844,
      "velocity": 107,
      "chip": "ym2612"
    },
    {
      "channel": 1,
      "note": 51,
      "start": 20.7859,
      "duration": 0.0844,
      "velocity": 107,
      "chip": "ym2612"
    },
    {
      "channel": 2,
      "note": 51,
      "start": 20.8203,
      "duration": 0.0844,
      "velocity": 107,
      "chip": "ym2612"
    },
    {
      "channel": 1,
      "note": 44,
      "start": 20.9917,
      "duration": 0.0844,
      "velocity": 107,
      "chip": "ym2612"
    },
    {
      "channel": 2,
      "note": 44,
      "start": 21.0261,
      "duration": 0.0844,
      "velocity": 107,
      "chip": "ym2612"
    },
    {
      "channel": 1,
      "note": 50,
      "start": 21.1974,
      "duration": 0.0844,
      "velocity": 107,
      "chip": "ym2612"
    },
    {
      "channel": 2,
      "note": 50,
      "start": 21.2318,
      "duration": 0.0844,
      "velocity": 107,
      "chip": "ym2612"
    },
    {
      "channel": 1,
      "note": 51,
      "start": 21.4032,
      "duration": 0.0844,
      "velocity": 107,
      "chip": "ym2612"
    },
    {
      "channel": 2,
      "note": 51,
      "start": 21.4376,
      "duration": 0.0844,
      "velocity": 107,
      "chip": "ym2612"
    },
    {
      "channel": 1,
      "note": 44,
      "start": 21.6089,
      "duration": 0.0844,
      "velocity": 107,
      "chip": "ym2612"
    },
    {
      "channel": 2,
      "note": 44,
      "start": 21.6433,
      "duration": 0.0844,
      "velocity": 107,
      "chip": "ym2612"
    },
    {
      "channel": 1,
      "note": 50,
      "start": 21.8146,
      "duration": 0.0844,
      "velocity": 107,
      "chip": "ym2612"
    },
    {
      "channel": 2,
      "note": 50,
      "start": 21.849,
      "duration": 0.0844,
      "velocity": 107,
      "chip": "ym2612"
    },
    {
      "channel": 1,
      "note": 51,
      "start": 22.0205,
      "duration": 0.0844,
      "velocity": 107,
      "chip": "ym2612"
    },
    {
      "channel": 2,
      "note": 51,
      "start": 22.0549,
      "duration": 0.0843,
      "velocity": 107,
      "chip": "ym2612"
    },
    {
      "channel": 1,
      "note": 44,
      "start": 22.2262,
      "duration": 0.0844,
      "velocity": 107,
      "chip": "ym2612"
    },
    {
      "channel": 2,
      "note": 44,
      "start": 22.2606,
      "duration": 0.0844,
      "velocity": 107,
      "chip": "ym2612"
    },
    {
      "channel": 1,
      "note": 50,
      "start": 22.4319,
      "duration": 0.0844,
      "velocity": 107,
      "chip": "ym2612"
    },
    {
      "channel": 2,
      "note": 50,
      "start": 22.4663,
      "duration": 0.0844,
      "velocity": 107,
      "chip": "ym2612"
    },
    {
      "channel": 1,
      "note": 44,
      "start": 22.6377,
      "duration": 0.0844,
      "velocity": 107,
      "chip": "ym2612"
    },
    {
      "channel": 2,
      "note": 44,
      "start": 22.6721,
      "duration": 0.0844,
      "velocity": 107,
      "chip": "ym2612"
    },
    {
      "channel": 1,
      "note": 51,
      "start": 22.8434,
      "duration": 0.0843,
      "velocity": 107,
      "chip": "ym2612"
    },
    {
      "channel": 2,
      "note": 51,
      "start": 22.8778,
      "duration": 0.0844,
      "velocity": 107,
      "chip": "ym2612"
    },
    {
      "channel": 1,
      "note": 44,
      "start": 23.0492,
      "duration": 0.0844,
      "velocity": 107,
      "chip": "ym2612"
    },
    {
      "channel": 2,
      "note": 44,
      "start": 23.0836,
      "duration": 0.0844,
      "velocity": 107,
      "chip": "ym2612"
    },
    {
      "channel": 1,
      "note": 42,
      "start": 23.255,
      "duration": 0.0844,
      "velocity": 107,
      "chip": "ym2612"
    },
    {
      "channel": 2,
      "note": 42,
      "start": 23.2894,
      "duration": 0.0844,
      "velocity": 107,
      "chip": "ym2612"
    },
    {
      "channel": 1,
      "note": 41,
      "start": 23.4607,
      "duration": 0.0843,
      "velocity": 107,
      "chip": "ym2612"
    },
    {
      "channel": 2,
      "note": 41,
      "start": 23.4951,
      "duration": 0.0672,
      "velocity": 107,
      "chip": "ym2612"
    },
    {
      "channel": 1,
      "note": 41,
      "start": 23.6668,
      "duration": 0.1887,
      "velocity": 107,
      "chip": "ym2612"
    },
    {
      "channel": 2,
      "note": 41,
      "start": 23.681,
      "duration": 0.1232,
      "velocity": 108,
      "chip": "ym2612"
    },
    {
      "channel": 1,
      "note": 41,
      "start": 23.874,
      "duration": 0.1873,
      "velocity": 107,
      "chip": "ym2612"
    },
    {
      "channel": 2,
      "note": 41,
      "start": 23.8768,
      "duration": 0.1331,
      "velocity": 108,
      "chip": "ym2612"
    },
    {
      "channel": 0,
      "note": 72,
      "start": 24.0455,
      "duration": 0.0844,
      "velocity": 108,
      "chip": "ym2612"
    },
    {
      "channel": 1,
      "note": 41,
      "start": 24.2856,
      "duration": 0.1873,
      "velocity": 107,
      "chip": "ym2612"
    },
    {
      "channel": 2,
      "note": 41,
      "start": 24.2883,
      "duration": 0.1332,
      "velocity": 108,
      "chip": "ym2612"
    },
    {
      "channel": 1,
      "note": 41,
      "start": 24.4913,
      "duration": 0.1873,
      "velocity": 107,
      "chip": "ym2612"
    },
    {
      "channel": 2,
      "note": 41,
      "start": 24.4941,
      "duration": 0.1331,
      "velocity": 108,
      "chip": "ym2612"
    },
    {
      "channel": 0,
      "note": 72,
      "start": 24.6627,
      "duration": 0.0843,
      "velocity": 108,
      "chip": "ym2612"
    },
    {
      "channel": 1,
      "note": 41,
      "start": 24.9029,
      "duration": 0.1873,
      "velocity": 107,
      "chip": "ym2612"
    },
    {
      "channel": 2,
      "note": 41,
      "start": 24.9056,
      "duration": 0.1332,
      "velocity": 108,
      "chip": "ym2612"
    },
    {
      "channel": 1,
      "note": 41,
      "start": 25.1086,
      "duration": 0.1872,
      "velocity": 107,
      "chip": "ym2612"
    },
    {
      "channel": 2,
      "note": 41,
      "start": 25.1114,
      "duration": 0.1331,
      "velocity": 108,
      "chip": "ym2612"
    },
    {
      "channel": 0,
      "note": 72,
      "start": 25.28,
      "duration": 0.0844,
      "velocity": 108,
      "chip": "ym2612"
    },
    {
      "channel": 1,
      "note": 41,
      "start": 25.5202,
      "duration": 0.1873,
      "velocity": 107,
      "chip": "ym2612"
    },
    {
      "channel": 2,
      "note": 41,
      "start": 25.5229,
      "duration": 0.1332,
      "velocity": 108,
      "chip": "ym2612"
    },
    {
      "channel": 1,
      "note": 41,
      "start": 25.726,
      "duration": 0.1872,
      "velocity": 107,
      "chip": "ym2612"
    },
    {
      "channel": 2,
      "note": 41,
      "start": 25.7288,
      "duration": 0.1331,
      "velocity": 108,
      "chip": "ym2612"
    },
    {
      "channel": 0,
      "note": 71,
      "start": 25.8974,
      "duration": 0.0844,
      "velocity": 108,
      "chip": "ym2612"
    },
    {
      "channel": 1,
      "note": 40,
      "start": 26.1374,
      "duration": 0.3758,
      "velocity": 107,
      "chip": "ym2612"
    },
    {
      "channel": 2,
      "note": 40,
      "start": 26.1401,
      "duration": 0.2875,
      "velocity": 108,
      "chip": "ym2612"
    },
    {
      "channel": 0,
      "note": 71,
      "start": 26.3088,
      "duration": 0.1872,
      "velocity": 108,
      "chip": "ym2612"
    },
    {
      "channel": 1,
      "note": 41,
      "start": 26.5489,
      "duration": 0.3763,
      "velocity": 107,
      "chip": "ym2612"
    },
    {
      "channel": 2,
      "note": 41,
      "start": 26.5517,
      "duration": 0.2875,
      "velocity": 108,
      "chip": "ym2612"
    },
    {
      "channel": 0,
      "note": 72,
      "start": 26.7204,
      "duration": 0.0844,
      "velocity": 108,
      "chip": "ym2612"
    },
    {
      "channel": 1,
      "note": 42,
      "start": 26.9604,
      "duration": 0.1873,
      "velocity": 107,
      "chip": "ym2612"
    },
    {
      "channel": 2,
      "note": 42,
      "start": 26.9632,
      "duration": 0.1331,
      "velocity": 108,
      "chip": "ym2612"
    },
    {
      "channel": 1,
      "note": 42,
      "start": 27.1662,
      "duration": 0.1873,
      "velocity": 107,
      "chip": "ym2612"
    },
    {
      "channel": 2,
      "note": 42,
      "start": 27.169,
      "duration": 0.1332,
      "velocity": 108,
      "chip": "ym2612"
    },
    {
      "channel": 0,
      "note": 73,
      "start": 27.3376,
      "duration": 0.0844,
      "velocity": 108,
      "chip": "ym2612"
    },
    {
      "channel": 1,
      "note": 42,
      "start": 27.5777,
      "duration": 0.1873,
      "velocity": 107,
      "chip": "ym2612"
    },
    {
      "channel": 2,
      "note": 42,
      "start": 27.5805,
      "duration": 0.1332,
      "velocity": 108,
      "chip": "ym2612"
    },
    {
      "channel": 1,
      "note": 42,
      "start": 27.7835,
      "duration": 0.1873,
      "velocity": 107,
      "chip": "ym2612"
    },
    {
      "channel": 2,
      "note": 42,
      "start": 27.7863,
      "duration": 0.1332,
      "velocity": 108,
      "chip": "ym2612"
    },
    {
      "channel": 0,
      "note": 73,
      "start": 27.9549,
      "duration": 0.0844,
      "velocity": 108,
      "chip": "ym2612"
    },
    {
      "channel": 1,
      "note": 42,
      "start": 28.195,
      "duration": 0.1873,
      "velocity": 107,
      "chip": "ym2612"
    },
    {
      "channel": 2,
      "note": 42,
      "start": 28.1978,
      "duration": 0.1332,
      "velocity": 108,
      "chip": "ym2612"
    },
    {
      "channel": 1,
      "note": 42,
      "start": 28.4008,
      "duration": 0.1873,
      "velocity": 107,
      "chip": "ym2612"
    },
    {
      "channel": 2,
      "note": 42,
      "start": 28.4036,
      "duration": 0.1331,
      "velocity": 108,
      "chip": "ym2612"
    },
    {
      "channel": 0,
      "note": 73,
      "start": 28.5722,
      "duration": 0.0844,
      "velocity": 108,
      "chip": "ym2612"
    },
    {
      "channel": 1,
      "note": 43,
      "start": 28.8123,
      "duration": 0.1873,
      "velocity": 107,
      "chip": "ym2612"
    },
    {
      "channel": 2,
      "note": 43,
      "start": 28.8151,
      "duration": 0.1332,
      "velocity": 108,
      "chip": "ym2612"
    },
    {
      "channel": 1,
      "note": 43,
      "start": 29.0181,
      "duration": 0.1873,
      "velocity": 107,
      "chip": "ym2612"
    },
    {
      "channel": 2,
      "note": 43,
      "start": 29.0209,
      "duration": 0.1331,
      "velocity": 108,
      "chip": "ym2612"
    },
    {
      "channel": 0,
      "note": 74,
      "start": 29.1895,
      "duration": 0.0844,
      "velocity": 108,
      "chip": "ym2612"
    },
    {
      "channel": 1,
      "note": 44,
      "start": 29.4296,
      "duration": 0.376,
      "velocity": 107,
      "chip": "ym2612"
    },
    {
      "channel": 2,
      "note": 44,
      "start": 29.4323,
      "duration": 0.2876,
      "velocity": 108,
      "chip": "ym2612"
    },
    {
      "channel": 0,
      "note": 75,
      "start": 29.6011,
      "duration": 0.1873,
      "velocity": 108,
      "chip": "ym2612"
    },
    {
      "channel": 1,
      "note": 45,
      "start": 29.8412,
      "duration": 0.3915,
      "velocity": 107,
      "chip": "ym2612"
    },
    {
      "channel": 2,
      "note": 45,
      "start": 29.8439,
      "duration": 0.2874,
      "velocity": 108,
      "chip": "ym2612"
    },
    {
      "channel": 0,
      "note": 76,
      "start": 30.0126,
      "duration": 0.0844,
      "velocity": 108,
      "chip": "ym2612"
    },
    {
      "channel": 0,
      "note": 77,
      "start": 30.2312,
      "duration": 0.1244,
      "velocity": 108,
      "chip": "ym2612"
    },
    {
      "channel": 1,
      "note": 77,
      "start": 30.2663,
      "duration": 0.1408,
      "velocity": 108,
      "chip": "ym2612"
    },
    {
      "channel": 0,
      "note": 77,
      "start": 30.4256,
      "duration": 0.1357,
      "velocity": 108,
      "chip": "ym2612"
    },
    {
      "channel": 1,
      "note": 77,
      "start": 30.4599,
      "duration": 0.1529,
      "velocity": 108,
      "chip": "ym2612"
    },
    {
      "channel": 0,
      "note": 34,
      "start": 30.6314,
      "duration": 0.1357,
      "velocity": 108,
      "chip": "ym2612"
    },
    {
      "channel": 1,
      "note": 34,
      "start": 30.6656,
      "duration": 0.1529,
      "velocity": 108,
      "chip": "ym2612"
    },
    {
      "channel": 0,
      "note": 34,
      "start": 30.8371,
      "duration": 0.1357,
      "velocity": 108,
      "chip": "ym2612"
    },
    {
      "channel": 1,
      "note": 34,
      "start": 30.8714,
      "duration": 0.1529,
      "velocity": 108,
      "chip": "ym2612"
    },
    {
      "channel": 0,
      "note": 59,
      "start": 31.0429,
      "duration": 0.1357,
      "velocity": 108,
      "chip": "ym2612"
    },
    {
      "channel": 1,
      "note": 59,
      "start": 31.0771,
      "duration": 0.1529,
      "velocity": 108,
      "chip": "ym2612"
    },
    {
      "channel": 0,
      "note": 59,
      "start": 31.2486,
      "duration": 0.1357,
      "velocity": 108,
      "chip": "ym2612"
    },
    {
      "channel": 1,
      "note": 59,
      "start": 31.2829,
      "duration": 0.153,
      "velocity": 108,
      "chip": "ym2612"
    },
    {
      "channel": 0,
      "note": 66,
      "start": 31.4544,
      "duration": 0.1358,
      "velocity": 108,
      "chip": "ym2612"
    },
    {
      "channel": 1,
      "note": 66,
      "start": 31.4887,
      "duration": 0.1529,
      "velocity": 108,
      "chip": "ym2612"
    },
    {
      "channel": 0,
      "note": 66,
      "start": 31.6601,
      "duration": 0.1357,
      "velocity": 108,
      "chip": "ym2612"
    },
    {
      "channel": 1,
      "note": 66,
      "start": 31.6944,
      "duration": 0.1529,
      "velocity": 108,
      "chip": "ym2612"
    },
    {
      "channel": 0,
      "note": 65,
      "start": 31.8658,
      "duration": 0.1359,
      "velocity": 108,
      "chip": "ym2612"
    },
    {
      "channel": 1,
      "note": 65,
      "start": 31.9002,
      "duration": 0.153,
      "velocity": 108,
      "chip": "ym2612"
    },
    {
      "channel": 0,
      "note": 65,
      "start": 32.0717,
      "duration": 0.1358,
      "velocity": 108,
      "chip": "ym2612"
    },
    {
      "channel": 1,
      "note": 65,
      "start": 32.106,
      "duration": 0.1529,
      "velocity": 108,
      "chip": "ym2612"
    },
    {
      "channel": 0,
      "note": 36,
      "start": 32.2774,
      "duration": 0.1357,
      "velocity": 108,
      "chip": "ym2612"
    },
    {
      "channel": 1,
      "note": 36,
      "start": 32.3117,
      "duration": 0.1529,
      "velocity": 108,
      "chip": "ym2612"
    },
    {
      "channel": 0,
      "note": 36,
      "start": 32.4831,
      "duration": 0.1358,
      "velocity": 108,
      "chip": "ym2612"
    },
    {
      "channel": 1,
      "note": 36,
      "start": 32.5175,
      "duration": 0.1529,
      "velocity": 108,
      "chip": "ym2612"
    },
    {
      "channel": 0,
      "note": 62,
      "start": 32.6889,
      "duration": 0.1358,
      "velocity": 108,
      "chip": "ym2612"
    },
    {
      "channel": 1,
      "note": 62,
      "start": 32.7232,
      "duration": 0.1529,
      "velocity": 108,
      "chip": "ym2612"
    },
    {
      "channel": 0,
      "note": 62,
      "start": 32.8946,
      "duration": 0.1357,
      "velocity": 108,
      "chip": "ym2612"
    },
    {
      "channel": 1,
      "note": 62,
      "start": 32.9289,
      "duration": 0.1529,
      "velocity": 108,
      "chip": "ym2612"
    },
    {
      "channel": 0,
      "note": 61,
      "start": 33.1004,
      "duration": 0.1358,
      "velocity": 108,
      "chip": "ym2612"
    },
    {
      "channel": 1,
      "note": 61,
      "start": 33.1347,
      "duration": 0.1529,
      "velocity": 108,
      "chip": "ym2612"
    },
    {
      "channel": 0,
      "note": 61,
      "start": 33.3062,
      "duration": 0.1357,
      "velocity": 108,
      "chip": "ym2612"
    },
    {
      "channel": 1,
      "note": 61,
      "start": 33.3405,
      "duration": 0.1529,
      "velocity": 108,
      "chip": "ym2612"
    },
    {
      "channel": 0,
      "note": 55,
      "start": 33.5119,
      "duration": 0.1358,
      "velocity": 108,
      "chip": "ym2612"
    },
    {
      "channel": 1,
      "note": 55,
      "start": 33.5462,
      "duration": 0.1529,
      "velocity": 108,
      "chip": "ym2612"
    },
    {
      "channel": 0,
      "note": 55,
      "start": 33.7177,
      "duration": 0.1358,
      "velocity": 108,
      "chip": "ym2612"
    },
    {
      "channel": 1,
      "note": 55,
      "start": 33.752,
      "duration": 0.1529,
      "velocity": 108,
      "chip": "ym2612"
    },
    {
      "channel": 0,
      "note": 37,
      "start": 33.9234,
      "duration": 0.1357,
      "velocity": 108,
      "chip": "ym2612"
    },
    {
      "channel": 1,
      "note": 37,
      "start": 33.9577,
      "duration": 0.1529,
      "velocity": 108,
      "chip": "ym2612"
    },
    {
      "channel": 0,
      "note": 37,
      "start": 34.1291,
      "duration": 0.1358,
      "velocity": 108,
      "chip": "ym2612"
    },
    {
      "channel": 1,
      "note": 37,
      "start": 34.1634,
      "duration": 0.1529,
      "velocity": 108,
      "chip": "ym2612"
    },
    {
      "channel": 0,
      "note": 62,
      "start": 34.3349,
      "duration": 0.1358,
      "velocity": 108,
      "chip": "ym2612"
    },
    {
      "channel": 1,
      "note": 62,
      "start": 34.3692,
      "duration": 0.153,
      "velocity": 108,
      "chip": "ym2612"
    },
    {
      "channel": 0,
      "note": 62,
      "start": 34.5407,
      "duration": 0.1358,
      "velocity": 108,
      "chip": "ym2612"
    },
    {
      "channel": 1,
      "note": 62,
      "start": 34.575,
      "duration": 0.1529,
      "velocity": 108,
      "chip": "ym2612"
    },
    {
      "channel": 0,
      "note": 68,
      "start": 34.7464,
      "duration": 0.1358,
      "velocity": 108,
      "chip": "ym2612"
    },
    {
      "channel": 1,
      "note": 68,
      "start": 34.7807,
      "duration": 0.153,
      "velocity": 108,
      "chip": "ym2612"
    },
    {
      "channel": 0,
      "note": 68,
      "start": 34.9522,
      "duration": 0.1357,
      "velocity": 108,
      "chip": "ym2612"
    },
    {
      "channel": 1,
      "note": 68,
      "start": 34.9865,
      "duration": 0.1529,
      "velocity": 108,
      "chip": "ym2612"
    },
    {
      "channel": 0,
      "note": 67,
      "start": 35.1579,
      "duration": 0.1364,
      "velocity": 108,
      "chip": "ym2612"
    },
    {
      "channel": 1,
      "note": 67,
      "start": 35.1936,
      "duration": 0.1522,
      "velocity": 108,
      "chip": "ym2612"
    },
    {
      "channel": 0,
      "note": 67,
      "start": 35.3644,
      "duration": 0.1357,
      "velocity": 108,
      "chip": "ym2612"
    },
    {
      "channel": 1,
      "note": 67,
      "start": 35.3987,
      "duration": 0.1529,
      "velocity": 108,
      "chip": "ym2612"
    },
    {
      "channel": 2,
      "note": 38,
      "start": 35.6049,
      "duration": 0.1354,
      "velocity": 108,
      "chip": "ym2612"
    },
    {
      "channel": 0,
      "note": 66,
      "start": 35.7758,
      "duration": 0.1358,
      "velocity": 108,
      "chip": "ym2612"
    },
    {
      "channel": 1,
      "note": 66,
      "start": 35.8101,
      "duration": 0.1529,
      "velocity": 108,
      "chip": "ym2612"
    },
    {
      "channel": 0,
      "note": 65,
      "start": 35.9816,
      "duration": 0.2729,
      "velocity": 108,
      "chip": "ym2612"
    },
    {
      "channel": 1,
      "note": 65,
      "start": 36.0159,
      "duration": 0.3244,
      "velocity": 108,
      "chip": "ym2612"
    },
    {
      "channel": 2,
      "note": 34,
      "start": 36.2217,
      "duration": 0.2901,
      "velocity": 108,
      "chip": "ym2612"
    },
    {
      "channel": 0,
      "note": 64,
      "start": 36.3931,
      "duration": 0.2729,
      "velocity": 108,
      "chip": "ym2612"
    },
    {
      "channel": 1,
      "note": 64,
      "start": 36.4274,
      "duration": 0.3244,
      "velocity": 108,
      "chip": "ym2612"
    },
    {
      "channel": 2,
      "note": 45,
      "start": 36.6333,
      "duration": 0.1358,
      "velocity": 108,
      "chip": "ym2612"
    },
    {
      "channel": 0,
      "note": 60,
      "start": 36.8046,
      "duration": 0.1358,
      "velocity": 108,
      "chip": "ym2612"
    },
    {
      "channel": 1,
      "note": 60,
      "start": 36.8389,
      "duration": 0.1529,
      "velocity": 108,
      "chip": "ym2612"
    },
    {
      "channel": 2,
      "note": 39,
      "start": 37.0451,
      "duration": 0.1354,
      "velocity": 108,
      "chip": "ym2612"
    },
    {
      "channel": 2,
      "note": 38,
      "start": 37.2505,
      "duration": 0.1358,
      "velocity": 108,
      "chip": "ym2612"
    },
    {
      "channel": 0,
      "note": 59,
      "start": 37.4218,
      "duration": 0.1358,
      "velocity": 108,
      "chip": "ym2612"
    },
    {
      "channel": 1,
      "note": 59,
      "start": 37.4562,
      "duration": 0.1529,
      "velocity": 108,
      "chip": "ym2612"
    },
    {
      "channel": 2,
      "note": 31,
      "start": 37.6623,
      "duration": 0.2898,
      "velocity": 108,
      "chip": "ym2612"
    },
    {
      "channel": 0,
      "note": 63,
      "start": 37.8333,
      "duration": 0.1359,
      "velocity": 108,
      "chip": "ym2612"
    },
    {
      "channel": 1,
      "note": 63,
      "start": 37.8676,
      "duration": 0.153,
      "velocity": 108,
      "chip": "ym2612"
    },
    {
      "channel": 2,
      "note": 32,
      "start": 38.0739,
      "duration": 0.2897,
      "velocity": 108,
      "chip": "ym2612"
    },
    {
      "channel": 0,
      "note": 52,
      "start": 38.2448,
      "duration": 0.1358,
      "velocity": 108,
      "chip": "ym2612"
    },
    {
      "channel": 1,
      "note": 52,
      "start": 38.2791,
      "duration": 0.1529,
      "velocity": 108,
      "chip": "ym2612"
    },
    {
      "channel": 0,
      "note": 57,
      "start": 38.4506,
      "duration": 0.1358,
      "velocity": 108,
      "chip": "ym2612"
    },
    {
      "channel": 1,
      "note": 57,
      "start": 38.485,
      "duration": 0.1529,
      "velocity": 108,
      "chip": "ym2612"
    },
    {
      "channel": 2,
      "note": 37,
      "start": 38.6912,
      "duration": 0.1354,
      "velocity": 108,
      "chip": "ym2612"
    },
    {
      "channel": 2,
      "note": 36,
      "start": 38.8965,
      "duration": 0.1358,
      "velocity": 108,
      "chip": "ym2612"
    },
    {
      "channel": 0,
      "note": 56,
      "start": 39.0679,
      "duration": 0.1357,
      "velocity": 108,
      "chip": "ym2612"
    },
    {
      "channel": 1,
      "note": 56,
      "start": 39.1022,
      "duration": 0.1529,
      "velocity": 108,
      "chip": "ym2612"
    },
    {
      "channel": 0,
      "note": 65,
      "start": 39.2737,
      "duration": 0.1358,
      "velocity": 108,
      "chip": "ym2612"
    },
    {
      "channel": 1,
      "note": 65,
      "start": 39.3079,
      "duration": 0.1529,
      "velocity": 108,
      "chip": "ym2612"
    },
    {
      "channel": 0,
      "note": 64,
      "start": 39.4794,
      "duration": 0.1357,
      "velocity": 108,
      "chip": "ym2612"
    },
    {
      "channel": 1,
      "note": 64,
      "start": 39.5137,
      "duration": 0.1529,
      "velocity": 108,
      "chip": "ym2612"
    },
    {
      "channel": 2,
      "note": 45,
      "start": 39.7199,
      "duration": 0.1354,
      "velocity": 108,
      "chip": "ym2612"
    },
    {
      "channel": 2,
      "note": 44,
      "start": 39.9252,
      "duration": 0.1358,
      "velocity": 108,
      "chip": "ym2612"
    },
    {
      "channel": 0,
      "note": 65,
      "start": 40.0966,
      "duration": 0.1358,
      "velocity": 108,
      "chip": "ym2612"
    },
    {
      "channel": 1,
      "note": 65,
      "start": 40.1309,
      "duration": 0.153,
      "velocity": 108,
      "chip": "ym2612"
    },
    {
      "channel": 2,
      "note": 44,
      "start": 40.3371,
      "duration": 0.1354,
      "velocity": 108,
      "chip": "ym2612"
    },
    {
      "channel": 2,
      "note": 43,
      "start": 40.5424,
      "duration": 0.1358,
      "velocity": 108,
      "chip": "ym2612"
    },
    {
      "channel": 0,
      "note": 64,
      "start": 40.7138,
      "duration": 0.1358,
      "velocity": 108,
      "chip": "ym2612"
    },
    {
      "channel": 1,
      "note": 64,
      "start": 40.7481,
      "duration": 0.153,
      "velocity": 108,
      "chip": "ym2612"
    },
    {
      "channel": 2,
      "note": 36,
      "start": 40.9544,
      "duration": 0.2897,
      "velocity": 108,
      "chip": "ym2612"
    },
    {
      "channel": 0,
      "note": 56,
      "start": 41.1253,
      "duration": 0.1358,
      "velocity": 108,
      "chip": "ym2612"
    },
    {
      "channel": 1,
      "note": 56,
      "start": 41.1596,
      "duration": 0.1529,
      "velocity": 108,
      "chip": "ym2612"
    },
    {
      "channel": 2,
      "note": 37,
      "start": 41.3659,
      "duration": 0.2898,
      "velocity": 108,
      "chip": "ym2612"
    },
    {
      "channel": 0,
      "note": 57,
      "start": 41.5369,
      "duration": 0.1357,
      "velocity": 108,
      "chip": "ym2612"
    },
    {
      "channel": 1,
      "note": 57,
      "start": 41.5712,
      "duration": 0.1529,
      "velocity": 108,
      "chip": "ym2612"
    },
    {
      "channel": 0,
      "note": 62,
      "start": 41.7427,
      "duration": 0.1357,
      "velocity": 108,
      "chip": "ym2612"
    },
    {
      "channel": 1,
      "note": 62,
      "start": 41.777,
      "duration": 0.1529,
      "velocity": 108,
      "chip": "ym2612"
    },
    {
      "channel": 2,
      "note": 42,
      "start": 41.9831,
      "duration": 0.1354,
      "velocity": 108,
      "chip": "ym2612"
    },
    {
      "channel": 2,
      "note": 41,
      "start": 42.1885,
      "duration": 0.1358,
      "velocity": 108,
      "chip": "ym2612"
    },
    {
      "channel": 0,
      "note": 61,
      "start": 42.3598,
      "duration": 0.1358,
      "velocity": 108,
      "chip": "ym2612"
    },
    {
      "channel": 1,
      "note": 61,
      "start": 42.3941,
      "duration": 0.1529,
      "velocity": 108,
      "chip": "ym2612"
    },
    {
      "channel": 0,
      "note": 70,
      "start": 42.5656,
      "duration": 0.1358,
      "velocity": 108,
      "chip": "ym2612"
    },
    {
      "channel": 1,
      "note": 70,
      "start": 42.5999,
      "duration": 0.153,
      "velocity": 108,
      "chip": "ym2612"
    },
    {
      "channel": 0,
      "note": 69,
      "start": 42.7714,
      "duration": 0.1358,
      "velocity": 108,
      "chip": "ym2612"
    },
    {
      "channel": 1,
      "note": 69,
      "start": 42.8057,
      "duration": 0.1529,
      "velocity": 108,
      "chip": "ym2612"
    },
    {
      "channel": 2,
      "note": 38,
      "start": 43.0119,
      "duration": 0.1354,
      "velocity": 108,
      "chip": "ym2612"
    },
    {
      "channel": 2,
      "note": 37,
      "start": 43.2173,
      "duration": 0.1358,
      "velocity": 108,
      "chip": "ym2612"
    },
    {
      "channel": 0,
      "note": 75,
      "start": 43.3886,
      "duration": 0.1358,
      "velocity": 108,
      "chip": "ym2612"
    },
    {
      "channel": 1,
      "note": 75,
      "start": 43.4229,
      "duration": 0.1529,
      "velocity": 108,
      "chip": "ym2612"
    },
    {
      "channel": 2,
      "note": 36,
      "start": 43.6292,
      "duration": 0.1354,
      "velocity": 108,
      "chip": "ym2612"
    },
    {
      "channel": 2,
      "note": 35,
      "start": 43.8345,
      "duration": 0.1359,
      "velocity": 108,
      "chip": "ym2612"
    },
    {
      "channel": 0,
      "note": 74,
      "start": 44.0059,
      "duration": 0.1358,
      "velocity": 108,
      "chip": "ym2612"
    },
    {
      "channel": 1,
      "note": 74,
      "start": 44.0402,
      "duration": 0.153,
      "velocity": 108,
      "chip": "ym2612"
    },
    {
      "channel": 0,
      "note": 69,
      "start": 44.2117,
      "duration": 0.1357,
      "velocity": 108,
      "chip": "ym2612"
    },
    {
      "channel": 1,
      "note": 69,
      "start": 44.246,
      "duration": 0.1529,
      "velocity": 108,
      "chip": "ym2612"
    },
    {
      "channel": 2,
      "note": 30,
      "start": 44.4522,
      "duration": 0.1354,
      "velocity": 108,
      "chip": "ym2612"
    },
    {
      "channel": 2,
      "note": 29,
      "start": 44.6575,
      "duration": 0.1358,
      "velocity": 108,
      "chip": "ym2612"
    },
    {
      "channel": 0,
      "note": 68,
      "start": 44.8289,
      "duration": 0.1358,
      "velocity": 108,
      "chip": "ym2612"
    },
    {
      "channel": 1,
      "note": 68,
      "start": 44.8632,
      "duration": 0.1529,
      "velocity": 108,
      "chip": "ym2612"
    },
    {
      "channel": 0,
      "note": 65,
      "start": 45.0346,
      "duration": 0.1358,
      "velocity": 108,
      "chip": "ym2612"
    },
    {
      "channel": 1,
      "note": 65,
      "start": 45.069,
      "duration": 0.1529,
      "velocity": 108,
      "chip": "ym2612"
    },
    {
      "channel": 2,
      "note": 26,
      "start": 45.2752,
      "duration": 0.1354,
      "velocity": 108,
      "chip": "ym2612"
    },
    {
      "channel": 0,
      "note": 64,
      "start": 45.4461,
      "duration": 0.1358,
      "velocity": 108,
      "chip": "ym2612"
    },
    {
      "channel": 1,
      "note": 64,
      "start": 45.4804,
      "duration": 0.153,
      "velocity": 108,
      "chip": "ym2612"
    },
    {
      "channel": 2,
      "note": 25,
      "start": 45.6867,
      "duration": 0.1354,
      "velocity": 108,
      "chip": "ym2612"
    },
    {
      "channel": 2,
      "note": 27,
      "start": 45.892,
      "duration": 0.2901,
      "velocity": 108,
      "chip": "ym2612"
    },
    {
      "channel": 0,
      "note": 59,
      "start": 46.0634,
      "duration": 0.1357,
      "velocity": 108,
      "chip": "ym2612"
    },
    {
      "channel": 1,
      "note": 59,
      "start": 46.0976,
      "duration": 0.153,
      "velocity": 108,
      "chip": "ym2612"
    },
    {
      "channel": 2,
      "note": 28,
      "start": 46.3039,
      "duration": 0.2897,
      "velocity": 108,
      "chip": "ym2612"
    },
    {
      "channel": 0,
      "note": 58,
      "start": 46.4749,
      "duration": 0.1358,
      "velocity": 108,
      "chip": "ym2612"
    },
    {
      "channel": 1,
      "note": 58,
      "start": 46.5091,
      "duration": 0.153,
      "velocity": 108,
      "chip": "ym2612"
    },
    {
      "channel": 0,
      "note": 61,
      "start": 46.6807,
      "duration": 0.1357,
      "velocity": 108,
      "chip": "ym2612"
    },
    {
      "channel": 1,
      "note": 61,
      "start": 46.7149,
      "duration": 0.153,
      "velocity": 108,
      "chip": "ym2612"
    },
    {
      "channel": 2,
      "note": 29,
      "start": 46.7178,
      "duration": 0.1331,
      "velocity": 108,
      "chip": "ym2612"
    },
    {
      "channel": 0,
      "note": 60,
      "start": 46.8864,
      "duration": 0.1358,
      "velocity": 108,
      "chip": "ym2612"
    },
    {
      "channel": 1,
      "note": 60,
      "start": 46.9207,
      "duration": 0.1529,
      "velocity": 108,
      "chip": "ym2612"
    },
    {
      "channel": 2,
      "note": 30,
      "start": 46.9235,
      "duration": 0.1331,
      "velocity": 108,
      "chip": "ym2612"
    },
    {
      "channel": 0,
      "note": 67,
      "start": 47.0922,
      "duration": 0.1358,
      "velocity": 108,
      "chip": "ym2612"
    },
    {
      "channel": 1,
      "note": 67,
      "start": 47.1265,
      "duration": 0.1529,
      "velocity": 108,
      "chip": "ym2612"
    },
    {
      "channel": 2,
      "note": 31,
      "start": 47.1293,
      "duration": 0.1331,
      "velocity": 108,
      "chip": "ym2612"
    },
    {
      "channel": 0,
      "note": 66,
      "start": 47.2979,
      "duration": 0.1358,
      "velocity": 108,
      "chip": "ym2612"
    },
    {
      "channel": 1,
      "note": 66,
      "start": 47.3322,
      "duration": 0.153,
      "velocity": 108,
      "chip": "ym2612"
    },
    {
      "channel": 2,
      "note": 32,
      "start": 47.335,
      "duration": 0.1331,
      "velocity": 108,
      "chip": "ym2612"
    },
    {
      "channel": 0,
      "note": 61,
      "start": 47.5037,
      "duration": 0.1358,
      "velocity": 108,
      "chip": "ym2612"
    },
    {
      "channel": 1,
      "note": 61,
      "start": 47.538,
      "duration": 0.1529,
      "velocity": 108,
      "chip": "ym2612"
    },
    {
      "channel": 0,
      "note": 70,
      "start": 47.7094,
      "duration": 0.1357,
      "velocity": 108,
      "chip": "ym2612"
    },
    {
      "channel": 1,
      "note": 70,
      "start": 47.7437,
      "duration": 0.1529,
      "velocity": 108,
      "chip": "ym2612"
    },
    {
      "channel": 0,
      "note": 69,
      "start": 47.9151,
      "duration": 0.1358,
      "velocity": 108,
      "chip": "ym2612"
    },
    {
      "channel": 1,
      "note": 69,
      "start": 47.9494,
      "duration": 0.1529,
      "velocity": 108,
      "chip": "ym2612"
    },
    {
      "channel": 0,
      "note": 62,
      "start": 48.1209,
      "duration": 0.1357,
      "velocity": 108,
      "chip": "ym2612"
    },
    {
      "channel": 1,
      "note": 62,
      "start": 48.1552,
      "duration": 0.1529,
      "velocity": 108,
      "chip": "ym2612"
    },
    {
      "channel": 0,
      "note": 61,
      "start": 48.3266,
      "duration": 0.1357,
      "velocity": 108,
      "chip": "ym2612"
    },
    {
      "channel": 1,
      "note": 61,
      "start": 48.3609,
      "duration": 0.1529,
      "velocity": 108,
      "chip": "ym2612"
    },
    {
      "channel": 0,
      "note": 70,
      "start": 48.5324,
      "duration": 0.1358,
      "velocity": 108,
      "chip": "ym2612"
    },
    {
      "channel": 1,
      "note": 70,
      "start": 48.5667,
      "duration": 0.153,
      "velocity": 108,
      "chip": "ym2612"
    },
    {
      "channel": 0,
      "note": 69,
      "start": 48.7382,
      "duration": 0.1357,
      "velocity": 108,
      "chip": "ym2612"
    },
    {
      "channel": 1,
      "note": 69,
      "start": 48.7724,
      "duration": 0.1529,
      "velocity": 108,
      "chip": "ym2612"
    },
    {
      "channel": 0,
      "note": 62,
      "start": 48.9439,
      "duration": 0.1358,
      "velocity": 108,
      "chip": "ym2612"
    },
    {
      "channel": 1,
      "note": 62,
      "start": 48.9782,
      "duration": 0.1529,
      "velocity": 108,
      "chip": "ym2612"
    },
    {
      "channel": 0,
      "note": 61,
      "start": 49.1496,
      "duration": 0.1359,
      "velocity": 108,
      "chip": "ym2612"
    },
    {
      "channel": 1,
      "note": 61,
      "start": 49.184,
      "duration": 0.153,
      "velocity": 108,
      "chip": "ym2612"
    },
    {
      "channel": 0,
      "note": 70,
      "start": 49.3555,
      "duration": 0.1357,
      "velocity": 108,
      "chip": "ym2612"
    },
    {
      "channel": 1,
      "note": 70,
      "start": 49.3898,
      "duration": 0.1529,
      "velocity": 108,
      "chip": "ym2612"
    },
    {
      "channel": 0,
      "note": 69,
      "start": 49.5612,
      "duration": 0.1358,
      "velocity": 108,
      "chip": "ym2612"
    },
    {
      "channel": 1,
      "note": 69,
      "start": 49.5955,
      "duration": 0.1529,
      "velocity": 108,
      "chip": "ym2612"
    },
    {
      "channel": 0,
      "note": 62,
      "start": 49.767,
      "duration": 0.1357,
      "velocity": 108,
      "chip": "ym2612"
    },
    {
      "channel": 1,
      "note": 62,
      "start": 49.8013,
      "duration": 0.1529,
      "velocity": 108,
      "chip": "ym2612"
    },
    {
      "channel": 0,
      "note": 61,
      "start": 49.9727,
      "duration": 0.1358,
      "velocity": 108,
      "chip": "ym2612"
    },
    {
      "channel": 1,
      "note": 61,
      "start": 50.007,
      "duration": 0.1529,
      "velocity": 108,
      "chip": "ym2612"
    },
    {
      "channel": 0,
      "note": 70,
      "start": 50.1784,
      "duration": 0.17,
      "velocity": 108,
      "chip": "ym2612"
    },
    {
      "channel": 1,
      "note": 70,
      "start": 50.2127,
      "duration": 0.2044,
      "velocity": 108,
      "chip": "ym2612"
    },
    {
      "channel": 0,
      "note": 69,
      "start": 50.4528,
      "duration": 0.17,
      "velocity": 108,
      "chip": "ym2612"
    },
    {
      "channel": 1,
      "note": 69,
      "start": 50.4871,
      "duration": 0.2043,
      "velocity": 108,
      "chip": "ym2612"
    },
    {
      "channel": 0,
      "note": 70,
      "start": 50.7271,
      "duration": 0.17,
      "velocity": 108,
      "chip": "ym2612"
    },
    {
      "channel": 1,
      "note": 70,
      "start": 50.7614,
      "duration": 0.2043,
      "velocity": 108,
      "chip": "ym2612"
    },
    {
      "channel": 0,
      "note": 69,
      "start": 51.0015,
      "duration": 0.2043,
      "velocity": 108,
      "chip": "ym2612"
    },
    {
      "channel": 1,
      "note": 69,
      "start": 51.0357,
      "duration": 0.2386,
      "velocity": 108,
      "chip": "ym2612"
    },
    {
      "channel": 0,
      "note": 70,
      "start": 51.31,
      "duration": 0.2043,
      "velocity": 108,
      "chip": "ym2612"
    },
    {
      "channel": 1,
      "note": 70,
      "start": 51.3443,
      "duration": 0.2386,
      "velocity": 108,
      "chip": "ym2612"
    },
    {
      "channel": 0,
      "note": 69,
      "start": 51.6187,
      "duration": 0.2729,
      "velocity": 108,
      "chip": "ym2612"
    },
    {
      "channel": 1,
      "note": 69,
      "start": 51.653,
      "duration": 0.3244,
      "velocity": 108,
      "chip": "ym2612"
    },
    {
      "channel": 0,
      "note": 70,
      "start": 52.0301,
      "duration": 0.273,
      "velocity": 108,
      "chip": "ym2612"
    },
    {
      "channel": 1,
      "note": 70,
      "start": 52.0644,
      "duration": 0.2902,
      "velocity": 108,
      "chip": "ym2612"
    },
    {
      "channel": 1,
      "note": 46,
      "start": 52.4689,
      "duration": 1.0019,
      "velocity": 103,
      "chip": "ym2612"
    },
    {
      "channel": 0,
      "note": 46,
      "start": 52.4928,
      "duration": 1.0112,
      "velocity": 103,
      "chip": "ym2612"
    },
    {
      "channel": 1,
      "note": 52,
      "start": 53.5559,
      "duration": 1.0124,
      "velocity": 103,
      "chip": "ym2612"
    },
    {
      "channel": 0,
      "note": 52,
      "start": 53.5901,
      "duration": 1.0112,
      "velocity": 103,
      "chip": "ym2612"
    },
    {
      "channel": 1,
      "note": 51,
      "start": 54.6532,
      "duration": 1.0123,
      "velocity": 103,
      "chip": "ym2612"
    },
    {
      "channel": 0,
      "note": 51,
      "start": 54.6875,
      "duration": 1.0112,
      "velocity": 103,
      "chip": "ym2612"
    },
    {
      "channel": 1,
      "note": 45,
      "start": 55.7506,
      "duration": 1.5268,
      "velocity": 103,
      "chip": "ym2612"
    },
    {
      "channel": 0,
      "note": 45,
      "start": 55.7849,
      "duration": 1.5256,
      "velocity": 103,
      "chip": "ym2612"
    },
    {
      "channel": 1,
      "note": 40,
      "start": 57.3966,
      "duration": 1.5268,
      "velocity": 103,
      "chip": "ym2612"
    },
    {
      "channel": 0,
      "note": 40,
      "start": 57.4309,
      "duration": 1.5256,
      "velocity": 103,
      "chip": "ym2612"
    },
    {
      "channel": 1,
      "note": 73,
      "start": 59.0546,
      "duration": 0.1068,
      "velocity": 97,
      "chip": "ym2612"
    },
    {
      "channel": 0,
      "note": 73,
      "start": 59.0889,
      "duration": 0.1067,
      "velocity": 97,
      "chip": "ym2612"
    },
    {
      "channel": 1,
      "note": 72,
      "start": 59.1807,
      "duration": 0.1178,
      "velocity": 97,
      "chip": "ym2612"
    },
    {
      "channel": 0,
      "note": 72,
      "start": 59.2149,
      "duration": 0.1177,
      "velocity": 97,
      "chip": "ym2612"
    },
    {
      "channel": 1,
      "note": 76,
      "start": 59.3179,
      "duration": 0.1178,
      "velocity": 97,
      "chip": "ym2612"
    },
    {
      "channel": 0,
      "note": 76,
      "start": 59.3522,
      "duration": 0.1178,
      "velocity": 97,
      "chip": "ym2612"
    },
    {
      "channel": 1,
      "note": 75,
      "start": 59.4551,
      "duration": 0.1178,
      "velocity": 97,
      "chip": "ym2612"
    },
    {
      "channel": 0,
      "note": 75,
      "start": 59.4893,
      "duration": 0.1178,
      "velocity": 97,
      "chip": "ym2612"
    },
    {
      "channel": 1,
      "note": 79,
      "start": 59.5922,
      "duration": 0.1178,
      "velocity": 97,
      "chip": "ym2612"
    },
    {
      "channel": 0,
      "note": 79,
      "start": 59.6265,
      "duration": 0.1177,
      "velocity": 97,
      "chip": "ym2612"
    },
    {
      "channel": 1,
      "note": 78,
      "start": 59.7294,
      "duration": 0.1177,
      "velocity": 97,
      "chip": "ym2612"
    },
    {
      "channel": 0,
      "note": 78,
      "start": 59.7636,
      "duration": 0.1178,
      "velocity": 97,
      "chip": "ym2612"
    },
    {
      "channel": 1,
      "note": 82,
      "start": 59.8665,
      "duration": 1.2665,
      "velocity": 97,
      "chip": "ym2612"
    },
    {
      "channel": 0,
      "note": 82,
      "start": 59.9008,
      "duration": 1.2493,
      "velocity": 97,
      "chip": "ym2612"
    },
    {
      "channel": 0,
      "note": 81,
      "start": 61.2496,
      "duration": 0.0707,
      "velocity": 113,
      "chip": "ym2612"
    },
    {
      "channel": 1,
      "note": 75,
      "start": 61.2652,
      "duration": 0.0556,
      "velocity": 107,
      "chip": "ym2612"
    },
    {
      "channel": 0,
      "note": 81,
      "start": 61.3572,
      "duration": 0.1173,
      "velocity": 113,
      "chip": "ym2612"
    },
    {
      "channel": 1,
      "note": 75,
      "start": 61.3604,
      "duration": 0.1148,
      "velocity": 107,
      "chip": "ym2612"
    }
  ]
}