{
  "track_name": "07 - Stage 3- Mudrake Mayhem",
  "duration_sec": 153.971,
  "sample_rate": 44100,
  "note_count": 1968,
  "unique_pitches": 48,
  "pitch_range": 86,
  "avg_note_duration": 0.1985,
  "reconstruction_stats": {
    "notes_reconstructed": 1968,
    "keyon_events": 1968,
    "keyoff_events": 1967,
    "orphan_keyons": 1,
    "unique_pitches": 48,
    "pitch_range": 86,
    "avg_duration_sec": 0.1985
  },
  "metadata": {
    "source": "M\\Maui Mallard\\07 - Stage 3- Mudrake Mayhem.vgz"
  },
  "notes": [
    {
      "channel": 5,
      "note": 102,
      "start": 0.0,
      "duration": 1.1467,
      "velocity": 98,
      "chip": "ym2612"
    },
    {
      "channel": 0,
      "note": 90,
      "start": 0.0029,
      "duration": 1.1436,
      "velocity": 98,
      "chip": "ym2612"
    },
    {
      "channel": 1,
      "note": 54,
      "start": 0.0145,
      "duration": 2.352,
      "velocity": 95,
      "chip": "ym2612"
    },
    {
      "channel": 3,
      "note": 78,
      "start": 0.028,
      "duration": 0.0056,
      "velocity": 90,
      "chip": "ym2612"
    },
    {
      "channel": 3,
      "note": 80,
      "start": 0.038,
      "duration": 0.0885,
      "velocity": 90,
      "chip": "ym2612"
    },
    {
      "channel": 3,
      "note": 66,
      "start": 0.1317,
      "duration": 5.6949,
      "velocity": 90,
      "chip": "ym2612"
    },
    {
      "channel": 4,
      "note": 97,
      "start": 1.637,
      "duration": 0.1695,
      "velocity": 94,
      "chip": "ym2612"
    },
    {
      "channel": 4,
      "note": 97,
      "start": 2.0369,
      "duration": 0.1698,
      "velocity": 94,
      "chip": "ym2612"
    },
    {
      "channel": 4,
      "note": 97,
      "start": 2.4769,
      "duration": 0.1698,
      "velocity": 94,
      "chip": "ym2612"
    },
    {
      "channel": 1,
      "note": 59,
      "start": 2.8306,
      "duration": 0.0759,
      "velocity": 95,
      "chip": "ym2612"
    },
    {
      "channel": 1,
      "note": 52,
      "start": 2.931,
      "duration": 0.2155,
      "velocity": 95,
      "chip": "ym2612"
    },
    {
      "channel": 1,
      "note": 52,
      "start": 3.3106,
      "duration": 0.2359,
      "velocity": 95,
      "chip": "ym2612"
    },
    {
      "channel": 4,
      "note": 90,
      "start": 3.6555,
      "duration": 0.0311,
      "velocity": 94,
      "chip": "ym2612"
    },
    {
      "channel": 4,
      "note": 90,
      "start": 3.711,
      "duration": 0.0355,
      "velocity": 94,
      "chip": "ym2612"
    },
    {
      "channel": 4,
      "note": 90,
      "start": 3.7504,
      "duration": 0.0363,
      "velocity": 94,
      "chip": "ym2612"
    },
    {
      "channel": 4,
      "note": 90,
      "start": 3.791,
      "duration": 0.0357,
      "velocity": 94,
      "chip": "ym2612"
    },
    {
      "channel": 4,
      "note": 90,
      "start": 3.8313,
      "duration": 0.0353,
      "velocity": 94,
      "chip": "ym2612"
    },
    {
      "channel": 4,
      "note": 90,
      "start": 3.8705,
      "duration": 0.0361,
      "velocity": 94,
      "chip": "ym2612"
    },
    {
      "channel": 4,
      "note": 90,
      "start": 3.911,
      "duration": 0.0357,
      "velocity": 94,
      "chip": "ym2612"
    },
    {
      "channel": 4,
      "note": 90,
      "start": 3.951,
      "duration": 0.0356,
      "velocity": 94,
      "chip": "ym2612"
    },
    {
      "channel": 4,
      "note": 90,
      "start": 3.9909,
      "duration": 0.0356,
      "velocity": 94,
      "chip": "ym2612"
    },
    {
      "channel": 4,
      "note": 90,
      "start": 4.0305,
      "duration": 0.0361,
      "velocity": 94,
      "chip": "ym2612"
    },
    {
      "channel": 4,
      "note": 90,
      "start": 4.0709,
      "duration": 0.0358,
      "velocity": 94,
      "chip": "ym2612"
    },
    {
      "channel": 4,
      "note": 97,
      "start": 4.1187,
      "duration": 0.168,
      "velocity": 94,
      "chip": "ym2612"
    },
    {
      "channel": 4,
      "note": 88,
      "start": 5.0363,
      "duration": 0.4703,
      "velocity": 94,
      "chip": "ym2612"
    },
    {
      "channel": 4,
      "note": 95,
      "start": 5.5124,
      "duration": 0.1142,
      "velocity": 94,
      "chip": "ym2612"
    },
    {
      "channel": 1,
      "note": 59,
      "start": 5.8105,
      "duration": 0.056,
      "velocity": 95,
      "chip": "ym2612"
    },
    {
      "channel": 1,
      "note": 52,
      "start": 5.8905,
      "duration": 0.216,
      "velocity": 95,
      "chip": "ym2612"
    },
    {
      "channel": 2,
      "note": 76,
      "start": 5.8945,
      "duration": 2.9325,
      "velocity": 81,
      "chip": "ym2612"
    },
    {
      "channel": 3,
      "note": 58,
      "start": 5.8979,
      "duration": 2.9289,
      "velocity": 90,
      "chip": "ym2612"
    },
    {
      "channel": 1,
      "note": 52,
      "start": 6.2706,
      "duration": 0.2759,
      "velocity": 95,
      "chip": "ym2612"
    },
    {
      "channel": 0,
      "note": 45,
      "start": 6.5102,
      "duration": 0.0563,
      "velocity": 99,
      "chip": "ym2612"
    },
    {
      "channel": 0,
      "note": 52,
      "start": 6.6304,
      "duration": 0.116,
      "velocity": 99,
      "chip": "ym2612"
    },
    {
      "channel": 4,
      "note": 88,
      "start": 7.0358,
      "duration": 0.4708,
      "velocity": 94,
      "chip": "ym2612"
    },
    {
      "channel": 4,
      "note": 95,
      "start": 7.5124,
      "duration": 0.1142,
      "velocity": 94,
      "chip": "ym2612"
    },
    {
      "channel": 4,
      "note": 88,
      "start": 7.6557,
      "duration": 0.4709,
      "velocity": 94,
      "chip": "ym2612"
    },
    {
      "channel": 0,
      "note": 45,
      "start": 7.9901,
      "duration": 0.0564,
      "velocity": 99,
      "chip": "ym2612"
    },
    {
      "channel": 0,
      "note": 52,
      "start": 8.1098,
      "duration": 0.0567,
      "velocity": 99,
      "chip": "ym2612"
    },
    {
      "channel": 4,
      "note": 95,
      "start": 8.1324,
      "duration": 0.1142,
      "velocity": 94,
      "chip": "ym2612"
    },
    {
      "channel": 4,
      "note": 88,
      "start": 8.2758,
      "duration": 0.4707,
      "velocity": 94,
      "chip": "ym2612"
    },
    {
      "channel": 0,
      "note": 52,
      "start": 8.3698,
      "duration": 0.0567,
      "velocity": 99,
      "chip": "ym2612"
    },
    {
      "channel": 4,
      "note": 95,
      "start": 8.7524,
      "duration": 0.1142,
      "velocity": 94,
      "chip": "ym2612"
    },
    {
      "channel": 1,
      "note": 59,
      "start": 8.771,
      "duration": 0.0557,
      "velocity": 95,
      "chip": "ym2612"
    },
    {
      "channel": 1,
      "note": 52,
      "start": 8.8506,
      "duration": 0.2159,
      "velocity": 95,
      "chip": "ym2612"
    },
    {
      "channel": 2,
      "note": 82,
      "start": 8.8537,
      "duration": 2.9331,
      "velocity": 81,
      "chip": "ym2612"
    },
    {
      "channel": 3,
      "note": 64,
      "start": 8.8565,
      "duration": 2.9301,
      "velocity": 90,
      "chip": "ym2612"
    },
    {
      "channel": 1,
      "note": 52,
      "start": 9.2307,
      "duration": 0.2357,
      "velocity": 95,
      "chip": "ym2612"
    },
    {
      "channel": 0,
      "note": 45,
      "start": 9.4699,
      "duration": 0.0566,
      "velocity": 99,
      "chip": "ym2612"
    },
    {
      "channel": 0,
      "note": 52,
      "start": 9.5901,
      "duration": 0.1163,
      "velocity": 99,
      "chip": "ym2612"
    },
    {
      "channel": 0,
      "note": 45,
      "start": 10.9509,
      "duration": 0.0556,
      "velocity": 99,
      "chip": "ym2612"
    },
    {
      "channel": 0,
      "note": 52,
      "start": 11.0699,
      "duration": 0.0566,
      "velocity": 99,
      "chip": "ym2612"
    },
    {
      "channel": 0,
      "note": 52,
      "start": 11.3299,
      "duration": 0.0566,
      "velocity": 99,
      "chip": "ym2612"
    },
    {
      "channel": 1,
      "note": 59,
      "start": 11.7305,
      "duration": 0.056,
      "velocity": 95,
      "chip": "ym2612"
    },
    {
      "channel": 1,
      "note": 52,
      "start": 11.8124,
      "duration": 0.2143,
      "velocity": 95,
      "chip": "ym2612"
    },
    {
      "channel": 2,
      "note": 88,
      "start": 11.8155,
      "duration": 2.9314,
      "velocity": 81,
      "chip": "ym2612"
    },
    {
      "channel": 3,
      "note": 67,
      "start": 11.8183,
      "duration": 2.9283,
      "velocity": 90,
      "chip": "ym2612"
    },
    {
      "channel": 4,
      "note": 88,
      "start": 11.8241,
      "duration": 1.0026,
      "velocity": 94,
      "chip": "ym2612"
    },
    {
      "channel": 5,
      "note": 82,
      "start": 12.1902,
      "duration": 0.0566,
      "velocity": 127,
      "chip": "ym2612"
    },
    {
      "channel": 1,
      "note": 52,
      "start": 12.194,
      "duration": 0.2727,
      "velocity": 95,
      "chip": "ym2612"
    },
    {
      "channel": 0,
      "note": 45,
      "start": 12.4301,
      "duration": 0.0566,
      "velocity": 99,
      "chip": "ym2612"
    },
    {
      "channel": 0,
      "note": 52,
      "start": 12.5501,
      "duration": 0.1164,
      "velocity": 99,
      "chip": "ym2612"
    },
    {
      "channel": 5,
      "note": 82,
      "start": 12.9298,
      "duration": 0.0569,
      "velocity": 127,
      "chip": "ym2612"
    },
    {
      "channel": 5,
      "note": 82,
      "start": 13.6698,
      "duration": 0.0568,
      "velocity": 127,
      "chip": "ym2612"
    },
    {
      "channel": 0,
      "note": 45,
      "start": 13.9101,
      "duration": 0.0564,
      "velocity": 99,
      "chip": "ym2612"
    },
    {
      "channel": 0,
      "note": 52,
      "start": 14.0299,
      "duration": 0.0566,
      "velocity": 99,
      "chip": "ym2612"
    },
    {
      "channel": 0,
      "note": 52,
      "start": 14.2902,
      "duration": 0.0563,
      "velocity": 99,
      "chip": "ym2612"
    },
    {
      "channel": 5,
      "note": 82,
      "start": 14.4098,
      "duration": 0.0569,
      "velocity": 127,
      "chip": "ym2612"
    },
    {
      "channel": 1,
      "note": 59,
      "start": 14.6906,
      "duration": 0.0559,
      "velocity": 95,
      "chip": "ym2612"
    },
    {
      "channel": 2,
      "note": 81,
      "start": 14.7695,
      "duration": 0.3371,
      "velocity": 122,
      "chip": "ym2612"
    },
    {
      "channel": 1,
      "note": 52,
      "start": 14.7731,
      "duration": 0.2134,
      "velocity": 95,
      "chip": "ym2612"
    },
    {
      "channel": 4,
      "note": 91,
      "start": 14.7765,
      "duration": 2.9303,
      "velocity": 81,
      "chip": "ym2612"
    },
    {
      "channel": 3,
      "note": 71,
      "start": 14.7798,
      "duration": 2.8868,
      "velocity": 90,
      "chip": "ym2612"
    },
    {
      "channel": 2,
      "note": 81,
      "start": 15.1495,
      "duration": 0.0773,
      "velocity": 125,
      "chip": "ym2612"
    },
    {
      "channel": 5,
      "note": 82,
      "start": 15.1522,
      "duration": 0.0544,
      "velocity": 127,
      "chip": "ym2612"
    },
    {
      "channel": 1,
      "note": 52,
      "start": 15.1556,
      "duration": 0.2309,
      "velocity": 95,
      "chip": "ym2612"
    },
    {
      "channel": 2,
      "note": 81,
      "start": 15.3896,
      "duration": 0.0571,
      "velocity": 125,
      "chip": "ym2612"
    },
    {
      "channel": 0,
      "note": 45,
      "start": 15.3925,
      "duration": 0.0539,
      "velocity": 99,
      "chip": "ym2612"
    },
    {
      "channel": 2,
      "note": 81,
      "start": 15.509,
      "duration": 0.3376,
      "velocity": 122,
      "chip": "ym2612"
    },
    {
      "channel": 0,
      "note": 52,
      "start": 15.5122,
      "duration": 0.1143,
      "velocity": 99,
      "chip": "ym2612"
    },
    {
      "channel": 2,
      "note": 81,
      "start": 15.8895,
      "duration": 0.0572,
      "velocity": 125,
      "chip": "ym2612"
    },
    {
      "channel": 5,
      "note": 82,
      "start": 15.8927,
      "duration": 0.0539,
      "velocity": 127,
      "chip": "ym2612"
    },
    {
      "channel": 2,
      "note": 81,
      "start": 16.1298,
      "duration": 0.0569,
      "velocity": 125,
      "chip": "ym2612"
    },
    {
      "channel": 2,
      "note": 81,
      "start": 16.2494,
      "duration": 0.3373,
      "velocity": 122,
      "chip": "ym2612"
    },
    {
      "channel": 2,
      "note": 81,
      "start": 16.6292,
      "duration": 0.3375,
      "velocity": 122,
      "chip": "ym2612"
    },
    {
      "channel": 2,
      "note": 81,
      "start": 16.9893,
      "duration": 0.3374,
      "velocity": 122,
      "chip": "ym2612"
    },
    {
      "channel": 0,
      "note": 107,
      "start": 16.9926,
      "duration": 0.3739,
      "velocity": 80,
      "chip": "ym2612"
    },
    {
      "channel": 1,
      "note": 100,
      "start": 17.5636,
      "duration": 0.2231,
      "velocity": 94,
      "chip": "ym2612"
    },
    {
      "channel": 2,
      "note": 81,
      "start": 17.6096,
      "duration": 0.0573,
      "velocity": 125,
      "chip": "ym2612"
    },
    {
      "channel": 5,
      "note": 59,
      "start": 17.6511,
      "duration": 0.0558,
      "velocity": 95,
      "chip": "ym2612"
    },
    {
      "channel": 2,
      "note": 81,
      "start": 17.731,
      "duration": 0.3358,
      "velocity": 122,
      "chip": "ym2612"
    },
    {
      "channel": 0,
      "note": 80,
      "start": 17.7363,
      "duration": 0.0502,
      "velocity": 127,
      "chip": "ym2612"
    },
    {
      "channel": 5,
      "note": 52,
      "start": 17.7397,
      "duration": 0.1471,
      "velocity": 95,
      "chip": "ym2612"
    },
    {
      "channel": 1,
      "note": 104,
      "start": 17.7929,
      "duration": 0.8029,
      "velocity": 94,
      "chip": "ym2612"
    },
    {
      "channel": 0,
      "note": 80,
      "start": 17.9901,
      "duration": 0.0166,
      "velocity": 127,
      "chip": "ym2612"
    },
    {
      "channel": 2,
      "note": 81,
      "start": 18.1098,
      "duration": 0.0771,
      "velocity": 125,
      "chip": "ym2612"
    },
    {
      "channel": 0,
      "note": 80,
      "start": 18.1126,
      "duration": 0.0541,
      "velocity": 127,
      "chip": "ym2612"
    },
    {
      "channel": 5,
      "note": 52,
      "start": 18.1158,
      "duration": 0.231,
      "velocity": 95,
      "chip": "ym2612"
    },
    {
      "channel": 2,
      "note": 81,
      "start": 18.3498,
      "duration": 0.0572,
      "velocity": 125,
      "chip": "ym2612"
    },
    {
      "channel": 3,
      "note": 45,
      "start": 18.353,
      "duration": 0.0537,
      "velocity": 99,
      "chip": "ym2612"
    },
    {
      "channel": 0,
      "note": 80,
      "start": 18.3557,
      "duration": 0.0308,
      "velocity": 127,
      "chip": "ym2612"
    },
    {
      "channel": 2,
      "note": 81,
      "start": 18.4692,
      "duration": 0.1527,
      "velocity": 122,
      "chip": "ym2612"
    },
    {
      "channel": 3,
      "note": 52,
      "start": 18.4727,
      "duration": 0.0626,
      "velocity": 99,
      "chip": "ym2612"
    },
    {
      "channel": 0,
      "note": 80,
      "start": 18.4759,
      "duration": 0.0249,
      "velocity": 127,
      "chip": "ym2612"
    },
    {
      "channel": 4,
      "note": 56,
      "start": 18.4826,
      "duration": 0.0871,
      "velocity": 95,
      "chip": "ym2612"
    },
    {
      "channel": 0,
      "note": 80,
      "start": 18.5896,
      "duration": 0.0062,
      "velocity": 127,
      "chip": "ym2612"
    },
    {
      "channel": 2,
      "note": 81,
      "start": 18.6424,
      "duration": 0.027,
      "velocity": 125,
      "chip": "ym2612"
    },
    {
      "channel": 0,
      "note": 80,
      "start": 18.6452,
      "duration": 0.024,
      "velocity": 127,
      "chip": "ym2612"
    },
    {
      "channel": 4,
      "note": 56,
      "start": 18.648,
      "duration": 0.1929,
      "velocity": 95,
      "chip": "ym2612"
    },
    {
      "channel": 2,
      "note": 81,
      "start": 18.8437,
      "duration": 0.0258,
      "velocity": 125,
      "chip": "ym2612"
    },
    {
      "channel": 0,
      "note": 80,
      "start": 18.8464,
      "duration": 0.0139,
      "velocity": 127,
      "chip": "ym2612"
    },
    {
      "channel": 2,
      "note": 81,
      "start": 18.8981,
      "duration": 0.1827,
      "velocity": 122,
      "chip": "ym2612"
    },
    {
      "channel": 0,
      "note": 80,
      "start": 18.9006,
      "duration": 0.023,
      "velocity": 127,
      "chip": "ym2612"
    },
    {
      "channel": 4,
      "note": 57,
      "start": 18.9034,
      "duration": 0.0874,
      "velocity": 95,
      "chip": "ym2612"
    },
    {
      "channel": 0,
      "note": 80,
      "start": 19.011,
      "duration": 0.0098,
      "velocity": 127,
      "chip": "ym2612"
    },
    {
      "channel": 2,
      "note": 81,
      "start": 19.1238,
      "duration": 0.0972,
      "velocity": 125,
      "chip": "ym2612"
    },
    {
      "channel": 0,
      "note": 80,
      "start": 19.1266,
      "duration": 0.0541,
      "velocity": 127,
      "chip": "ym2612"
    },
    {
      "channel": 4,
      "note": 57,
      "start": 19.13,
      "duration": 0.1508,
      "velocity": 95,
      "chip": "ym2612"
    },
    {
      "channel": 4,
      "note": 59,
      "start": 19.3454,
      "duration": 0.1754,
      "velocity": 95,
      "chip": "ym2612"
    },
    {
      "channel": 2,
      "note": 81,
      "start": 19.3638,
      "duration": 0.0572,
      "velocity": 125,
      "chip": "ym2612"
    },
    {
      "channel": 3,
      "note": 45,
      "start": 19.3669,
      "duration": 0.0539,
      "velocity": 99,
      "chip": "ym2612"
    },
    {
      "channel": 0,
      "note": 80,
      "start": 19.3697,
      "duration": 0.0311,
      "velocity": 127,
      "chip": "ym2612"
    },
    {
      "channel": 1,
      "note": 76,
      "start": 19.4054,
      "duration": 0.0153,
      "velocity": 98,
      "chip": "ym2612"
    },
    {
      "channel": 2,
      "note": 81,
      "start": 19.4833,
      "duration": 0.3376,
      "velocity": 122,
      "chip": "ym2612"
    },
    {
      "channel": 3,
      "note": 52,
      "start": 19.4863,
      "duration": 0.0545,
      "velocity": 99,
      "chip": "ym2612"
    },
    {
      "channel": 0,
      "note": 80,
      "start": 19.4891,
      "duration": 0.0516,
      "velocity": 127,
      "chip": "ym2612"
    },
    {
      "channel": 1,
      "note": 81,
      "start": 19.4921,
      "duration": 0.0887,
      "velocity": 98,
      "chip": "ym2612"
    },
    {
      "channel": 5,
      "note": 85,
      "start": 19.4949,
      "duration": 0.0861,
      "velocity": 98,
      "chip": "ym2612"
    },
    {
      "channel": 1,
      "note": 85,
      "start": 19.7044,
      "duration": 0.0963,
      "velocity": 98,
      "chip": "ym2612"
    },
    {
      "channel": 5,
      "note": 81,
      "start": 19.7073,
      "duration": 0.0937,
      "velocity": 98,
      "chip": "ym2612"
    },
    {
      "channel": 4,
      "note": 59,
      "start": 19.7103,
      "duration": 0.1505,
      "velocity": 95,
      "chip": "ym2612"
    },
    {
      "channel": 3,
      "note": 52,
      "start": 19.7442,
      "duration": 0.0567,
      "velocity": 99,
      "chip": "ym2612"
    },
    {
      "channel": 0,
      "note": 80,
      "start": 19.7469,
      "duration": 0.0138,
      "velocity": 127,
      "chip": "ym2612"
    },
    {
      "channel": 2,
      "note": 81,
      "start": 19.8637,
      "duration": 0.0572,
      "velocity": 125,
      "chip": "ym2612"
    },
    {
      "channel": 0,
      "note": 80,
      "start": 19.8665,
      "duration": 0.0541,
      "velocity": 127,
      "chip": "ym2612"
    },
    {
      "channel": 1,
      "note": 100,
      "start": 20.0534,
      "duration": 0.2276,
      "velocity": 94,
      "chip": "ym2612"
    },
    {
      "channel": 4,
      "note": 59,
      "start": 20.0849,
      "duration": 0.0759,
      "velocity": 95,
      "chip": "ym2612"
    },
    {
      "channel": 2,
      "note": 81,
      "start": 20.1038,
      "duration": 0.0572,
      "velocity": 125,
      "chip": "ym2612"
    },
    {
      "channel": 0,
      "note": 80,
      "start": 20.107,
      "duration": 0.0337,
      "velocity": 127,
      "chip": "ym2612"
    },
    {
      "channel": 2,
      "note": 81,
      "start": 20.2234,
      "duration": 0.3376,
      "velocity": 122,
      "chip": "ym2612"
    },
    {
      "channel": 0,
      "note": 80,
      "start": 20.2264,
      "duration": 0.0544,
      "velocity": 127,
      "chip": "ym2612"
    },
    {
      "channel": 4,
      "note": 52,
      "start": 20.2297,
      "duration": 0.2112,
      "velocity": 95,
      "chip": "ym2612"
    },
    {
      "channel": 1,
      "note": 104,
      "start": 20.2872,
      "duration": 0.8035,
      "velocity": 94,
      "chip": "ym2612"
    },
    {
      "channel": 0,
      "note": 80,
      "start": 20.4843,
      "duration": 0.0166,
      "velocity": 127,
      "chip": "ym2612"
    },
    {
      "channel": 2,
      "note": 81,
      "start": 20.6039,
      "duration": 0.0972,
      "velocity": 125,
      "chip": "ym2612"
    },
    {
      "channel": 0,
      "note": 80,
      "start": 20.6067,
      "duration": 0.0542,
      "velocity": 127,
      "chip": "ym2612"
    },
    {
      "channel": 4,
      "note": 52,
      "start": 20.6098,
      "duration": 0.2712,
      "velocity": 95,
      "chip": "ym2612"
    },
    {
      "channel": 2,
      "note": 81,
      "start": 20.8448,
      "duration": 0.0563,
      "velocity": 125,
      "chip": "ym2612"
    },
    {
      "channel": 3,
      "note": 45,
      "start": 20.8477,
      "duration": 0.0532,
      "velocity": 99,
      "chip": "ym2612"
    },
    {
      "channel": 0,
      "note": 80,
      "start": 20.8504,
      "duration": 0.0304,
      "velocity": 127,
      "chip": "ym2612"
    },
    {
      "channel": 2,
      "note": 81,
      "start": 20.9635,
      "duration": 0.1531,
      "velocity": 122,
      "chip": "ym2612"
    },
    {
      "channel": 3,
      "note": 52,
      "start": 20.9666,
      "duration": 0.0628,
      "velocity": 99,
      "chip": "ym2612"
    },
    {
      "channel": 0,
      "note": 80,
      "start": 20.9697,
      "duration": 0.0249,
      "velocity": 127,
      "chip": "ym2612"
    },
    {
      "channel": 4,
      "note": 56,
      "start": 20.9765,
      "duration": 0.0788,
      "velocity": 95,
      "chip": "ym2612"
    },
    {
      "channel": 0,
      "note": 80,
      "start": 21.0842,
      "duration": 0.0064,
      "velocity": 127,
      "chip": "ym2612"
    },
    {
      "channel": 2,
      "note": 81,
      "start": 21.1373,
      "duration": 0.0275,
      "velocity": 125,
      "chip": "ym2612"
    },
    {
      "channel": 0,
      "note": 80,
      "start": 21.1398,
      "duration": 0.0247,
      "velocity": 127,
      "chip": "ym2612"
    },
    {
      "channel": 4,
      "note": 56,
      "start": 21.1427,
      "duration": 0.1819,
      "velocity": 95,
      "chip": "ym2612"
    },
    {
      "channel": 2,
      "note": 81,
      "start": 21.3391,
      "duration": 0.0253,
      "velocity": 125,
      "chip": "ym2612"
    },
    {
      "channel": 0,
      "note": 80,
      "start": 21.3415,
      "duration": 0.0137,
      "velocity": 127,
      "chip": "ym2612"
    },
    {
      "channel": 2,
      "note": 81,
      "start": 21.3929,
      "duration": 0.1827,
      "velocity": 122,
      "chip": "ym2612"
    },
    {
      "channel": 0,
      "note": 80,
      "start": 21.3955,
      "duration": 0.0307,
      "velocity": 127,
      "chip": "ym2612"
    },
    {
      "channel": 4,
      "note": 57,
      "start": 21.3982,
      "duration": 0.0875,
      "velocity": 95,
      "chip": "ym2612"
    },
    {
      "channel": 0,
      "note": 80,
      "start": 21.5064,
      "duration": 0.009,
      "velocity": 127,
      "chip": "ym2612"
    },
    {
      "channel": 2,
      "note": 81,
      "start": 21.6186,
      "duration": 0.0971,
      "velocity": 125,
      "chip": "ym2612"
    },
    {
      "channel": 0,
      "note": 80,
      "start": 21.6214,
      "duration": 0.0541,
      "velocity": 127,
      "chip": "ym2612"
    },
    {
      "channel": 4,
      "note": 57,
      "start": 21.6247,
      "duration": 0.1109,
      "velocity": 95,
      "chip": "ym2612"
    },
    {
      "channel": 4,
      "note": 54,
      "start": 21.8395,
      "duration": 0.136,
      "velocity": 95,
      "chip": "ym2612"
    },
    {
      "channel": 2,
      "note": 81,
      "start": 21.8585,
      "duration": 0.0573,
      "velocity": 125,
      "chip": "ym2612"
    },
    {
      "channel": 3,
      "note": 45,
      "start": 21.8619,
      "duration": 0.0536,
      "velocity": 99,
      "chip": "ym2612"
    },
    {
      "channel": 0,
      "note": 80,
      "start": 21.8647,
      "duration": 0.0308,
      "velocity": 127,
      "chip": "ym2612"
    },
    {
      "channel": 1,
      "note": 76,
      "start": 21.8996,
      "duration": 0.0559,
      "velocity": 98,
      "chip": "ym2612"
    },
    {
      "channel": 2,
      "note": 81,
      "start": 21.9782,
      "duration": 0.3374,
      "velocity": 122,
      "chip": "ym2612"
    },
    {
      "channel": 3,
      "note": 52,
      "start": 21.9812,
      "duration": 0.0746,
      "velocity": 99,
      "chip": "ym2612"
    },
    {
      "channel": 0,
      "note": 80,
      "start": 21.9839,
      "duration": 0.0716,
      "velocity": 127,
      "chip": "ym2612"
    },
    {
      "channel": 1,
      "note": 81,
      "start": 21.9871,
      "duration": 0.0685,
      "velocity": 98,
      "chip": "ym2612"
    },
    {
      "channel": 5,
      "note": 85,
      "start": 21.9901,
      "duration": 0.0855,
      "velocity": 98,
      "chip": "ym2612"
    },
    {
      "channel": 1,
      "note": 81,
      "start": 22.1993,
      "duration": 0.0564,
      "velocity": 98,
      "chip": "ym2612"
    },
    {
      "channel": 5,
      "note": 85,
      "start": 22.2022,
      "duration": 0.0537,
      "velocity": 98,
      "chip": "ym2612"
    },
    {
      "channel": 4,
      "note": 54,
      "start": 22.2049,
      "duration": 0.1507,
      "velocity": 95,
      "chip": "ym2612"
    },
    {
      "channel": 3,
      "note": 52,
      "start": 22.239,
      "duration": 0.0564,
      "velocity": 99,
      "chip": "ym2612"
    },
    {
      "channel": 0,
      "note": 80,
      "start": 22.2417,
      "duration": 0.0138,
      "velocity": 127,
      "chip": "ym2612"
    },
    {
      "channel": 2,
      "note": 81,
      "start": 22.3585,
      "duration": 0.0573,
      "velocity": 125,
      "chip": "ym2612"
    },
    {
      "channel": 0,
      "note": 80,
      "start": 22.3613,
      "duration": 0.0541,
      "velocity": 127,
      "chip": "ym2612"
    },
    {
      "channel": 1,
      "note": 100,
      "start": 22.5481,
      "duration": 0.2274,
      "velocity": 94,
      "chip": "ym2612"
    },
    {
      "channel": 4,
      "note": 54,
      "start": 22.5797,
      "duration": 0.116,
      "velocity": 95,
      "chip": "ym2612"
    },
    {
      "channel": 2,
      "note": 81,
      "start": 22.5986,
      "duration": 0.0571,
      "velocity": 125,
      "chip": "ym2612"
    },
    {
      "channel": 0,
      "note": 80,
      "start": 22.6018,
      "duration": 0.0337,
      "velocity": 127,
      "chip": "ym2612"
    },
    {
      "channel": 2,
      "note": 81,
      "start": 22.7182,
      "duration": 0.3376,
      "velocity": 122,
      "chip": "ym2612"
    },
    {
      "channel": 0,
      "note": 80,
      "start": 22.7212,
      "duration": 0.0744,
      "velocity": 127,
      "chip": "ym2612"
    },
    {
      "channel": 4,
      "note": 52,
      "start": 22.7245,
      "duration": 0.2112,
      "velocity": 95,
      "chip": "ym2612"
    },
    {
      "channel": 1,
      "note": 104,
      "start": 22.7813,
      "duration": 0.8033,
      "velocity": 94,
      "chip": "ym2612"
    },
    {
      "channel": 0,
      "note": 80,
      "start": 22.979,
      "duration": 0.0166,
      "velocity": 127,
      "chip": "ym2612"
    },
    {
      "channel": 2,
      "note": 81,
      "start": 23.099,
      "duration": 0.0967,
      "velocity": 125,
      "chip": "ym2612"
    },
    {
      "channel": 0,
      "note": 80,
      "start": 23.1019,
      "duration": 0.0537,
      "velocity": 127,
      "chip": "ym2612"
    },
    {
      "channel": 4,
      "note": 52,
      "start": 23.1049,
      "duration": 0.2109,
      "velocity": 95,
      "chip": "ym2612"
    },
    {
      "channel": 2,
      "note": 81,
      "start": 23.3387,
      "duration": 0.0573,
      "velocity": 125,
      "chip": "ym2612"
    },
    {
      "channel": 3,
      "note": 45,
      "start": 23.3416,
      "duration": 0.0541,
      "velocity": 99,
      "chip": "ym2612"
    },
    {
      "channel": 0,
      "note": 80,
      "start": 23.3444,
      "duration": 0.0312,
      "velocity": 127,
      "chip": "ym2612"
    },
    {
      "channel": 2,
      "note": 81,
      "start": 23.4581,
      "duration": 0.1522,
      "velocity": 122,
      "chip": "ym2612"
    },
    {
      "channel": 3,
      "note": 52,
      "start": 23.4613,
      "duration": 0.0622,
      "velocity": 99,
      "chip": "ym2612"
    },
    {
      "channel": 0,
      "note": 80,
      "start": 23.4644,
      "duration": 0.0334,
      "velocity": 127,
      "chip": "ym2612"
    },
    {
      "channel": 4,
      "note": 56,
      "start": 23.4713,
      "duration": 0.0619,
      "velocity": 95,
      "chip": "ym2612"
    },
    {
      "channel": 0,
      "note": 80,
      "start": 23.578,
      "duration": 0.0065,
      "velocity": 127,
      "chip": "ym2612"
    },
    {
      "channel": 2,
      "note": 81,
      "start": 23.6312,
      "duration": 0.028,
      "velocity": 125,
      "chip": "ym2612"
    },
    {
      "channel": 0,
      "note": 80,
      "start": 23.6337,
      "duration": 0.0253,
      "velocity": 127,
      "chip": "ym2612"
    },
    {
      "channel": 4,
      "note": 56,
      "start": 23.6364,
      "duration": 0.1827,
      "velocity": 95,
      "chip": "ym2612"
    },
    {
      "channel": 2,
      "note": 81,
      "start": 23.8335,
      "duration": 0.0257,
      "velocity": 125,
      "chip": "ym2612"
    },
    {
      "channel": 0,
      "note": 80,
      "start": 23.8359,
      "duration": 0.0141,
      "velocity": 127,
      "chip": "ym2612"
    },
    {
      "channel": 2,
      "note": 81,
      "start": 23.8864,
      "duration": 0.183,
      "velocity": 122,
      "chip": "ym2612"
    },
    {
      "channel": 0,
      "note": 80,
      "start": 23.8889,
      "duration": 0.0312,
      "velocity": 127,
      "chip": "ym2612"
    },
    {
      "channel": 4,
      "note": 57,
      "start": 23.8925,
      "duration": 0.0779,
      "velocity": 95,
      "chip": "ym2612"
    },
    {
      "channel": 0,
      "note": 80,
      "start": 23.9997,
      "duration": 0.0096,
      "velocity": 127,
      "chip": "ym2612"
    },
    {
      "channel": 2,
      "note": 81,
      "start": 24.1124,
      "duration": 0.0971,
      "velocity": 125,
      "chip": "ym2612"
    },
    {
      "channel": 0,
      "note": 80,
      "start": 24.1152,
      "duration": 0.0541,
      "velocity": 127,
      "chip": "ym2612"
    },
    {
      "channel": 4,
      "note": 57,
      "start": 24.1186,
      "duration": 0.1109,
      "velocity": 95,
      "chip": "ym2612"
    },
    {
      "channel": 4,
      "note": 58,
      "start": 24.3334,
      "duration": 0.1361,
      "velocity": 95,
      "chip": "ym2612"
    },
    {
      "channel": 2,
      "note": 81,
      "start": 24.3524,
      "duration": 0.0573,
      "velocity": 125,
      "chip": "ym2612"
    },
    {
      "channel": 3,
      "note": 45,
      "start": 24.3554,
      "duration": 0.0539,
      "velocity": 99,
      "chip": "ym2612"
    },
    {
      "channel": 0,
      "note": 80,
      "start": 24.3581,
      "duration": 0.0311,
      "velocity": 127,
      "chip": "ym2612"
    },
    {
      "channel": 1,
      "note": 76,
      "start": 24.3934,
      "duration": 0.0159,
      "velocity": 98,
      "chip": "ym2612"
    },
    {
      "channel": 2,
      "note": 81,
      "start": 24.4727,
      "duration": 0.3368,
      "velocity": 122,
      "chip": "ym2612"
    },
    {
      "channel": 3,
      "note": 52,
      "start": 24.4758,
      "duration": 0.0737,
      "velocity": 99,
      "chip": "ym2612"
    },
    {
      "channel": 0,
      "note": 80,
      "start": 24.4784,
      "duration": 0.0709,
      "velocity": 127,
      "chip": "ym2612"
    },
    {
      "channel": 1,
      "note": 85,
      "start": 24.4815,
      "duration": 0.0879,
      "velocity": 98,
      "chip": "ym2612"
    },
    {
      "channel": 5,
      "note": 81,
      "start": 24.4846,
      "duration": 0.0849,
      "velocity": 98,
      "chip": "ym2612"
    },
    {
      "channel": 1,
      "note": 85,
      "start": 24.6929,
      "duration": 0.0964,
      "velocity": 98,
      "chip": "ym2612"
    },
    {
      "channel": 5,
      "note": 81,
      "start": 24.6959,
      "duration": 0.0938,
      "velocity": 98,
      "chip": "ym2612"
    },
    {
      "channel": 4,
      "note": 58,
      "start": 24.6988,
      "duration": 0.1905,
      "velocity": 95,
      "chip": "ym2612"
    },
    {
      "channel": 3,
      "note": 52,
      "start": 24.7333,
      "duration": 0.0562,
      "velocity": 99,
      "chip": "ym2612"
    },
    {
      "channel": 0,
      "note": 80,
      "start": 24.7361,
      "duration": 0.0132,
      "velocity": 127,
      "chip": "ym2612"
    },
    {
      "channel": 2,
      "note": 81,
      "start": 24.8525,
      "duration": 0.0571,
      "velocity": 125,
      "chip": "ym2612"
    },
    {
      "channel": 0,
      "note": 80,
      "start": 24.8554,
      "duration": 0.0539,
      "velocity": 127,
      "chip": "ym2612"
    },
    {
      "channel": 1,
      "note": 57,
      "start": 25.0735,
      "duration": 0.1158,
      "velocity": 85,
      "chip": "ym2612"
    },
    {
      "channel": 4,
      "note": 58,
      "start": 25.0769,
      "duration": 0.0726,
      "velocity": 95,
      "chip": "ym2612"
    },
    {
      "channel": 2,
      "note": 81,
      "start": 25.0923,
      "duration": 0.0573,
      "velocity": 125,
      "chip": "ym2612"
    },
    {
      "channel": 0,
      "note": 80,
      "start": 25.0957,
      "duration": 0.0336,
      "velocity": 127,
      "chip": "ym2612"
    },
    {
      "channel": 1,
      "note": 59,
      "start": 25.2131,
      "duration": 0.2162,
      "velocity": 85,
      "chip": "ym2612"
    },
    {
      "channel": 4,
      "note": 59,
      "start": 25.2162,
      "duration": 0.1332,
      "velocity": 95,
      "chip": "ym2612"
    },
    {
      "channel": 1,
      "note": 57,
      "start": 25.4339,
      "duration": 0.3753,
      "velocity": 85,
      "chip": "ym2612"
    },
    {
      "channel": 4,
      "note": 57,
      "start": 25.4369,
      "duration": 0.1525,
      "velocity": 95,
      "chip": "ym2612"
    },
    {
      "channel": 1,
      "note": 56,
      "start": 25.8129,
      "duration": 0.3563,
      "velocity": 85,
      "chip": "ym2612"
    },
    {
      "channel": 4,
      "note": 56,
      "start": 25.8156,
      "duration": 0.1538,
      "velocity": 95,
      "chip": "ym2612"
    },
    {
      "channel": 1,
      "note": 54,
      "start": 26.1731,
      "duration": 0.3762,
      "velocity": 85,
      "chip": "ym2612"
    },
    {
      "channel": 4,
      "note": 54,
      "start": 26.1759,
      "duration": 0.1935,
      "velocity": 95,
      "chip": "ym2612"
    },
    {
      "channel": 4,
      "note": 52,
      "start": 26.5534,
      "duration": 1.4962,
      "velocity": 95,
      "chip": "ym2612"
    },
    {
      "channel": 1,
      "note": 52,
      "start": 26.5734,
      "duration": 1.4761,
      "velocity": 85,
      "chip": "ym2612"
    },
    {
      "channel": 2,
      "note": 81,
      "start": 26.9723,
      "duration": 0.1972,
      "velocity": 122,
      "chip": "ym2612"
    },
    {
      "channel": 3,
      "note": 35,
      "start": 26.9753,
      "duration": 0.0542,
      "velocity": 99,
      "chip": "ym2612"
    },
    {
      "channel": 5,
      "note": 21,
      "start": 26.9783,
      "duration": 0.1512,
      "velocity": 99,
      "chip": "ym2612"
    },
    {
      "channel": 0,
      "note": 88,
      "start": 26.9885,
      "duration": 0.0808,
      "velocity": 86,
      "chip": "ym2612"
    },
    {
      "channel": 2,
      "note": 81,
      "start": 27.352,
      "duration": 0.1775,
      "velocity": 122,
      "chip": "ym2612"
    },
    {
      "channel": 3,
      "note": 35,
      "start": 27.3551,
      "duration": 0.0544,
      "velocity": 99,
      "chip": "ym2612"
    },
    {
      "channel": 5,
      "note": 21,
      "start": 27.3581,
      "duration": 0.1513,
      "velocity": 99,
      "chip": "ym2612"
    },
    {
      "channel": 0,
      "note": 88,
      "start": 27.3683,
      "duration": 0.0812,
      "velocity": 86,
      "chip": "ym2612"
    },
    {
      "channel": 2,
      "note": 81,
      "start": 27.7122,
      "duration": 0.1973,
      "velocity": 122,
      "chip": "ym2612"
    },
    {
      "channel": 3,
      "note": 21,
      "start": 27.7152,
      "duration": 0.1542,
      "velocity": 99,
      "chip": "ym2612"
    },
    {
      "channel": 5,
      "note": 35,
      "start": 27.7187,
      "duration": 0.0509,
      "velocity": 99,
      "chip": "ym2612"
    },
    {
      "channel": 0,
      "note": 88,
      "start": 27.7286,
      "duration": 0.0807,
      "velocity": 86,
      "chip": "ym2612"
    },
    {
      "channel": 0,
      "note": 100,
      "start": 28.0016,
      "duration": 0.2277,
      "velocity": 94,
      "chip": "ym2612"
    },
    {
      "channel": 4,
      "note": 59,
      "start": 28.0936,
      "duration": 0.056,
      "velocity": 95,
      "chip": "ym2612"
    },
    {
      "channel": 2,
      "note": 81,
      "start": 28.1924,
      "duration": 0.3372,
      "velocity": 122,
      "chip": "ym2612"
    },
    {
      "channel": 5,
      "note": 80,
      "start": 28.1956,
      "duration": 0.0541,
      "velocity": 127,
      "chip": "ym2612"
    },
    {
      "channel": 4,
      "note": 52,
      "start": 28.1993,
      "duration": 0.1302,
      "velocity": 95,
      "chip": "ym2612"
    },
    {
      "channel": 0,
      "note": 104,
      "start": 28.2351,
      "duration": 0.9544,
      "velocity": 94,
      "chip": "ym2612"
    },
    {
      "channel": 5,
      "note": 80,
      "start": 28.433,
      "duration": 0.0166,
      "velocity": 127,
      "chip": "ym2612"
    },
    {
      "channel": 2,
      "note": 81,
      "start": 28.5524,
      "duration": 0.0971,
      "velocity": 125,
      "chip": "ym2612"
    },
    {
      "channel": 5,
      "note": 80,
      "start": 28.5555,
      "duration": 0.0541,
      "velocity": 127,
      "chip": "ym2612"
    },
    {
      "channel": 4,
      "note": 52,
      "start": 28.5586,
      "duration": 0.2309,
      "velocity": 95,
      "chip": "ym2612"
    },
    {
      "channel": 2,
      "note": 81,
      "start": 28.7926,
      "duration": 0.057,
      "velocity": 125,
      "chip": "ym2612"
    },
    {
      "channel": 5,
      "note": 80,
      "start": 28.7956,
      "duration": 0.0339,
      "velocity": 127,
      "chip": "ym2612"
    },
    {
      "channel": 2,
      "note": 81,
      "start": 28.932,
      "duration": 0.3375,
      "velocity": 122,
      "chip": "ym2612"
    },
    {
      "channel": 5,
      "note": 80,
      "start": 28.9356,
      "duration": 0.0539,
      "velocity": 127,
      "chip": "ym2612"
    },
    {
      "channel": 4,
      "note": 56,
      "start": 28.9388,
      "duration": 0.1906,
      "velocity": 95,
      "chip": "ym2612"
    },
    {
      "channel": 3,
      "note": 87,
      "start": 29.1341,
      "duration": 0.1351,
      "velocity": 90,
      "chip": "ym2612"
    },
    {
      "channel": 5,
      "note": 80,
      "start": 29.1731,
      "duration": 0.0166,
      "velocity": 127,
      "chip": "ym2612"
    },
    {
      "channel": 2,
      "note": 81,
      "start": 29.2922,
      "duration": 0.0573,
      "velocity": 125,
      "chip": "ym2612"
    },
    {
      "channel": 5,
      "note": 80,
      "start": 29.2953,
      "duration": 0.0541,
      "velocity": 127,
      "chip": "ym2612"
    },
    {
      "channel": 4,
      "note": 56,
      "start": 29.2985,
      "duration": 0.2238,
      "velocity": 95,
      "chip": "ym2612"
    },
    {
      "channel": 3,
      "note": 88,
      "start": 29.3018,
      "duration": 0.1475,
      "velocity": 90,
      "chip": "ym2612"
    },
    {
      "channel": 3,
      "note": 87,
      "start": 29.5172,
      "duration": 0.05,
      "velocity": 90,
      "chip": "ym2612"
    },
    {
      "channel": 2,
      "note": 81,
      "start": 29.525,
      "duration": 0.0251,
      "velocity": 125,
      "chip": "ym2612"
    },
    {
      "channel": 1,
      "note": 80,
      "start": 29.5278,
      "duration": 0.0135,
      "velocity": 127,
      "chip": "ym2612"
    },
    {
      "channel": 2,
      "note": 81,
      "start": 29.5864,
      "duration": 0.1976,
      "velocity": 122,
      "chip": "ym2612"
    },
    {
      "channel": 1,
      "note": 80,
      "start": 29.5891,
      "duration": 0.0257,
      "velocity": 127,
      "chip": "ym2612"
    },
    {
      "channel": 4,
      "note": 57,
      "start": 29.593,
      "duration": 0.0822,
      "velocity": 95,
      "chip": "ym2612"
    },
    {
      "channel": 3,
      "note": 88,
      "start": 29.5963,
      "duration": 0.07,
      "velocity": 90,
      "chip": "ym2612"
    },
    {
      "channel": 1,
      "note": 80,
      "start": 29.6969,
      "duration": 0.0068,
      "velocity": 127,
      "chip": "ym2612"
    },
    {
      "channel": 2,
      "note": 81,
      "start": 29.8073,
      "duration": 0.0967,
      "velocity": 125,
      "chip": "ym2612"
    },
    {
      "channel": 1,
      "note": 80,
      "start": 29.8102,
      "duration": 0.0536,
      "velocity": 127,
      "chip": "ym2612"
    },
    {
      "channel": 4,
      "note": 57,
      "start": 29.8135,
      "duration": 0.1504,
      "velocity": 95,
      "chip": "ym2612"
    },
    {
      "channel": 3,
      "note": 88,
      "start": 29.8168,
      "duration": 0.167,
      "velocity": 90,
      "chip": "ym2612"
    },
    {
      "channel": 4,
      "note": 59,
      "start": 30.0282,
      "duration": 0.1757,
      "velocity": 95,
      "chip": "ym2612"
    },
    {
      "channel": 2,
      "note": 81,
      "start": 30.047,
      "duration": 0.0571,
      "velocity": 125,
      "chip": "ym2612"
    },
    {
      "channel": 1,
      "note": 80,
      "start": 30.0498,
      "duration": 0.0339,
      "velocity": 127,
      "chip": "ym2612"
    },
    {
      "channel": 0,
      "note": 76,
      "start": 30.0879,
      "duration": 0.0158,
      "velocity": 98,
      "chip": "ym2612"
    },
    {
      "channel": 2,
      "note": 81,
      "start": 30.1865,
      "duration": 0.3376,
      "velocity": 122,
      "chip": "ym2612"
    },
    {
      "channel": 1,
      "note": 80,
      "start": 30.1895,
      "duration": 0.0543,
      "velocity": 127,
      "chip": "ym2612"
    },
    {
      "channel": 0,
      "note": 81,
      "start": 30.1924,
      "duration": 0.0512,
      "velocity": 98,
      "chip": "ym2612"
    },
    {
      "channel": 5,
      "note": 85,
      "start": 30.1953,
      "duration": 0.0487,
      "velocity": 98,
      "chip": "ym2612"
    },
    {
      "channel": 3,
      "note": 88,
      "start": 30.1988,
      "duration": 0.185,
      "velocity": 90,
      "chip": "ym2612"
    },
    {
      "channel": 0,
      "note": 85,
      "start": 30.3882,
      "duration": 0.0955,
      "velocity": 98,
      "chip": "ym2612"
    },
    {
      "channel": 5,
      "note": 81,
      "start": 30.3911,
      "duration": 0.0929,
      "velocity": 98,
      "chip": "ym2612"
    },
    {
      "channel": 4,
      "note": 59,
      "start": 30.3941,
      "duration": 0.1498,
      "velocity": 95,
      "chip": "ym2612"
    },
    {
      "channel": 3,
      "note": 92,
      "start": 30.3973,
      "duration": 0.1266,
      "velocity": 90,
      "chip": "ym2612"
    },
    {
      "channel": 1,
      "note": 80,
      "start": 30.4273,
      "duration": 0.0165,
      "velocity": 127,
      "chip": "ym2612"
    },
    {
      "channel": 2,
      "note": 81,
      "start": 30.5468,
      "duration": 0.0573,
      "velocity": 125,
      "chip": "ym2612"
    },
    {
      "channel": 1,
      "note": 80,
      "start": 30.5501,
      "duration": 0.0537,
      "velocity": 127,
      "chip": "ym2612"
    },
    {
      "channel": 0,
      "note": 100,
      "start": 30.7364,
      "duration": 0.2112,
      "velocity": 94,
      "chip": "ym2612"
    },
    {
      "channel": 4,
      "note": 59,
      "start": 30.768,
      "duration": 0.0959,
      "velocity": 95,
      "chip": "ym2612"
    },
    {
      "channel": 2,
      "note": 81,
      "start": 30.7869,
      "duration": 0.0772,
      "velocity": 125,
      "chip": "ym2612"
    },
    {
      "channel": 1,
      "note": 80,
      "start": 30.7898,
      "duration": 0.0341,
      "velocity": 127,
      "chip": "ym2612"
    },
    {
      "channel": 2,
      "note": 81,
      "start": 30.9264,
      "duration": 0.152,
      "velocity": 122,
      "chip": "ym2612"
    },
    {
      "channel": 1,
      "note": 80,
      "start": 30.9295,
      "duration": 0.0279,
      "velocity": 127,
      "chip": "ym2612"
    },
    {
      "channel": 4,
      "note": 52,
      "start": 30.9367,
      "duration": 0.0815,
      "velocity": 95,
      "chip": "ym2612"
    },
    {
      "channel": 0,
      "note": 104,
      "start": 30.9524,
      "duration": 0.7344,
      "velocity": 94,
      "chip": "ym2612"
    },
    {
      "channel": 1,
      "note": 80,
      "start": 31.0391,
      "duration": 0.0052,
      "velocity": 127,
      "chip": "ym2612"
    },
    {
      "channel": 2,
      "note": 81,
      "start": 31.0896,
      "duration": 0.0575,
      "velocity": 125,
      "chip": "ym2612"
    },
    {
      "channel": 1,
      "note": 80,
      "start": 31.0921,
      "duration": 0.0244,
      "velocity": 127,
      "chip": "ym2612"
    },
    {
      "channel": 4,
      "note": 52,
      "start": 31.0959,
      "duration": 0.2312,
      "velocity": 95,
      "chip": "ym2612"
    },
    {
      "channel": 2,
      "note": 81,
      "start": 31.2899,
      "duration": 0.0771,
      "velocity": 125,
      "chip": "ym2612"
    },
    {
      "channel": 1,
      "note": 80,
      "start": 31.2928,
      "duration": 0.0341,
      "velocity": 127,
      "chip": "ym2612"
    },
    {
      "channel": 2,
      "note": 81,
      "start": 31.4296,
      "duration": 0.3374,
      "velocity": 122,
      "chip": "ym2612"
    },
    {
      "channel": 1,
      "note": 80,
      "start": 31.433,
      "duration": 0.0538,
      "velocity": 127,
      "chip": "ym2612"
    },
    {
      "channel": 4,
      "note": 56,
      "start": 31.4361,
      "duration": 0.1707,
      "velocity": 95,
      "chip": "ym2612"
    },
    {
      "channel": 3,
      "note": 87,
      "start": 31.6312,
      "duration": 0.1355,
      "velocity": 90,
      "chip": "ym2612"
    },
    {
      "channel": 1,
      "note": 80,
      "start": 31.6703,
      "duration": 0.0166,
      "velocity": 127,
      "chip": "ym2612"
    },
    {
      "channel": 2,
      "note": 81,
      "start": 31.7898,
      "duration": 0.0572,
      "velocity": 125,
      "chip": "ym2612"
    },
    {
      "channel": 1,
      "note": 80,
      "start": 31.7926,
      "duration": 0.0541,
      "velocity": 127,
      "chip": "ym2612"
    },
    {
      "channel": 4,
      "note": 56,
      "start": 31.7958,
      "duration": 0.2111,
      "velocity": 95,
      "chip": "ym2612"
    },
    {
      "channel": 3,
      "note": 88,
      "start": 31.7991,
      "duration": 0.1477,
      "velocity": 90,
      "chip": "ym2612"
    },
    {
      "channel": 3,
      "note": 87,
      "start": 32.0148,
      "duration": 0.0496,
      "velocity": 90,
      "chip": "ym2612"
    },
    {
      "channel": 2,
      "note": 81,
      "start": 32.0225,
      "duration": 0.0335,
      "velocity": 125,
      "chip": "ym2612"
    },
    {
      "channel": 1,
      "note": 80,
      "start": 32.0252,
      "duration": 0.0137,
      "velocity": 127,
      "chip": "ym2612"
    },
    {
      "channel": 2,
      "note": 81,
      "start": 32.0839,
      "duration": 0.1938,
      "velocity": 122,
      "chip": "ym2612"
    },
    {
      "channel": 1,
      "note": 80,
      "start": 32.0875,
      "duration": 0.0228,
      "velocity": 127,
      "chip": "ym2612"
    },
    {
      "channel": 4,
      "note": 57,
      "start": 32.0902,
      "duration": 0.0795,
      "velocity": 95,
      "chip": "ym2612"
    },
    {
      "channel": 3,
      "note": 88,
      "start": 32.0934,
      "duration": 0.0676,
      "velocity": 90,
      "chip": "ym2612"
    },
    {
      "channel": 1,
      "note": 80,
      "start": 32.1911,
      "duration": 0.0064,
      "velocity": 127,
      "chip": "ym2612"
    },
    {
      "channel": 2,
      "note": 81,
      "start": 32.3006,
      "duration": 0.0971,
      "velocity": 125,
      "chip": "ym2612"
    },
    {
      "channel": 1,
      "note": 80,
      "start": 32.3035,
      "duration": 0.0541,
      "velocity": 127,
      "chip": "ym2612"
    },
    {
      "channel": 4,
      "note": 57,
      "start": 32.3072,
      "duration": 0.1105,
      "velocity": 95,
      "chip": "ym2612"
    },
    {
      "channel": 3,
      "note": 88,
      "start": 32.3103,
      "duration": 0.1673,
      "velocity": 90,
      "chip": "ym2612"
    },
    {
      "channel": 4,
      "note": 54,
      "start": 32.5215,
      "duration": 0.1561,
      "velocity": 95,
      "chip": "ym2612"
    },
    {
      "channel": 2,
      "note": 81,
      "start": 32.5405,
      "duration": 0.0771,
      "velocity": 125,
      "chip": "ym2612"
    },
    {
      "channel": 1,
      "note": 80,
      "start": 32.5434,
      "duration": 0.0341,
      "velocity": 127,
      "chip": "ym2612"
    },
    {
      "channel": 0,
      "note": 76,
      "start": 32.5816,
      "duration": 0.0558,
      "velocity": 98,
      "chip": "ym2612"
    },
    {
      "channel": 3,
      "note": 88,
      "start": 32.5851,
      "duration": 0.0525,
      "velocity": 90,
      "chip": "ym2612"
    },
    {
      "channel": 2,
      "note": 81,
      "start": 32.6802,
      "duration": 0.3376,
      "velocity": 122,
      "chip": "ym2612"
    },
    {
      "channel": 1,
      "note": 80,
      "start": 32.6832,
      "duration": 0.0543,
      "velocity": 127,
      "chip": "ym2612"
    },
    {
      "channel": 0,
      "note": 81,
      "start": 32.6862,
      "duration": 0.0712,
      "velocity": 98,
      "chip": "ym2612"
    },
    {
      "channel": 5,
      "note": 85,
      "start": 32.689,
      "duration": 0.0686,
      "velocity": 98,
      "chip": "ym2612"
    },
    {
      "channel": 3,
      "note": 85,
      "start": 32.6926,
      "duration": 0.105,
      "velocity": 90,
      "chip": "ym2612"
    },
    {
      "channel": 3,
      "note": 83,
      "start": 32.862,
      "duration": 0.1755,
      "velocity": 90,
      "chip": "ym2612"
    },
    {
      "channel": 0,
      "note": 81,
      "start": 32.8812,
      "duration": 0.1362,
      "velocity": 98,
      "chip": "ym2612"
    },
    {
      "channel": 5,
      "note": 85,
      "start": 32.8845,
      "duration": 0.1332,
      "velocity": 98,
      "chip": "ym2612"
    },
    {
      "channel": 4,
      "note": 54,
      "start": 32.8873,
      "duration": 0.1504,
      "velocity": 95,
      "chip": "ym2612"
    },
    {
      "channel": 1,
      "note": 80,
      "start": 32.921,
      "duration": 0.0366,
      "velocity": 127,
      "chip": "ym2612"
    },
    {
      "channel": 2,
      "note": 81,
      "start": 33.0405,
      "duration": 0.0573,
      "velocity": 125,
      "chip": "ym2612"
    },
    {
      "channel": 1,
      "note": 80,
      "start": 33.0438,
      "duration": 0.0537,
      "velocity": 127,
      "chip": "ym2612"
    },
    {
      "channel": 0,
      "note": 100,
      "start": 33.2301,
      "duration": 0.2115,
      "velocity": 94,
      "chip": "ym2612"
    },
    {
      "channel": 4,
      "note": 54,
      "start": 33.2617,
      "duration": 0.116,
      "velocity": 95,
      "chip": "ym2612"
    },
    {
      "channel": 2,
      "note": 81,
      "start": 33.2805,
      "duration": 0.0773,
      "velocity": 125,
      "chip": "ym2612"
    },
    {
      "channel": 1,
      "note": 80,
      "start": 33.2835,
      "duration": 0.0341,
      "velocity": 127,
      "chip": "ym2612"
    },
    {
      "channel": 2,
      "note": 81,
      "start": 33.4202,
      "duration": 0.1538,
      "velocity": 122,
      "chip": "ym2612"
    },
    {
      "channel": 1,
      "note": 80,
      "start": 33.4232,
      "duration": 0.0287,
      "velocity": 127,
      "chip": "ym2612"
    },
    {
      "channel": 4,
      "note": 52,
      "start": 33.4301,
      "duration": 0.0829,
      "velocity": 95,
      "chip": "ym2612"
    },
    {
      "channel": 0,
      "note": 104,
      "start": 33.4467,
      "duration": 0.7357,
      "velocity": 94,
      "chip": "ym2612"
    },
    {
      "channel": 1,
      "note": 80,
      "start": 33.5337,
      "duration": 0.0142,
      "velocity": 127,
      "chip": "ym2612"
    },
    {
      "channel": 2,
      "note": 81,
      "start": 33.585,
      "duration": 0.0576,
      "velocity": 125,
      "chip": "ym2612"
    },
    {
      "channel": 1,
      "note": 80,
      "start": 33.5873,
      "duration": 0.0244,
      "velocity": 127,
      "chip": "ym2612"
    },
    {
      "channel": 4,
      "note": 52,
      "start": 33.591,
      "duration": 0.1715,
      "velocity": 95,
      "chip": "ym2612"
    },
    {
      "channel": 2,
      "note": 81,
      "start": 33.7859,
      "duration": 0.0767,
      "velocity": 125,
      "chip": "ym2612"
    },
    {
      "channel": 1,
      "note": 80,
      "start": 33.7887,
      "duration": 0.0337,
      "velocity": 127,
      "chip": "ym2612"
    },
    {
      "channel": 2,
      "note": 81,
      "start": 33.9252,
      "duration": 0.3374,
      "velocity": 122,
      "chip": "ym2612"
    },
    {
      "channel": 1,
      "note": 80,
      "start": 33.9285,
      "duration": 0.0539,
      "velocity": 127,
      "chip": "ym2612"
    },
    {
      "channel": 4,
      "note": 56,
      "start": 33.9317,
      "duration": 0.1309,
      "velocity": 95,
      "chip": "ym2612"
    },
    {
      "channel": 3,
      "note": 87,
      "start": 34.1269,
      "duration": 0.1354,
      "velocity": 90,
      "chip": "ym2612"
    },
    {
      "channel": 1,
      "note": 80,
      "start": 34.1659,
      "duration": 0.0366,
      "velocity": 127,
      "chip": "ym2612"
    },
    {
      "channel": 2,
      "note": 81,
      "start": 34.2854,
      "duration": 0.0573,
      "velocity": 125,
      "chip": "ym2612"
    },
    {
      "channel": 1,
      "note": 80,
      "start": 34.2882,
      "duration": 0.0541,
      "velocity": 127,
      "chip": "ym2612"
    },
    {
      "channel": 4,
      "note": 56,
      "start": 34.2917,
      "duration": 0.2108,
      "velocity": 95,
      "chip": "ym2612"
    },
    {
      "channel": 3,
      "note": 88,
      "start": 34.2954,
      "duration": 0.207,
      "velocity": 90,
      "chip": "ym2612"
    },
    {
      "channel": 3,
      "note": 87,
      "start": 34.5105,
      "duration": 0.0493,
      "velocity": 90,
      "chip": "ym2612"
    },
    {
      "channel": 2,
      "note": 81,
      "start": 34.5181,
      "duration": 0.0333,
      "velocity": 125,
      "chip": "ym2612"
    },
    {
      "channel": 1,
      "note": 80,
      "start": 34.5207,
      "duration": 0.0134,
      "velocity": 127,
      "chip": "ym2612"
    },
    {
      "channel": 2,
      "note": 81,
      "start": 34.5793,
      "duration": 0.1959,
      "velocity": 122,
      "chip": "ym2612"
    },
    {
      "channel": 1,
      "note": 80,
      "start": 34.5821,
      "duration": 0.0244,
      "velocity": 127,
      "chip": "ym2612"
    },
    {
      "channel": 4,
      "note": 57,
      "start": 34.586,
      "duration": 0.0723,
      "velocity": 95,
      "chip": "ym2612"
    },
    {
      "channel": 3,
      "note": 88,
      "start": 34.589,
      "duration": 0.0692,
      "velocity": 90,
      "chip": "ym2612"
    },
    {
      "channel": 1,
      "note": 80,
      "start": 34.6885,
      "duration": 0.0264,
      "velocity": 127,
      "chip": "ym2612"
    },
    {
      "channel": 2,
      "note": 81,
      "start": 34.798,
      "duration": 0.0972,
      "velocity": 125,
      "chip": "ym2612"
    },
    {
      "channel": 1,
      "note": 80,
      "start": 34.801,
      "duration": 0.0541,
      "velocity": 127,
      "chip": "ym2612"
    },
    {
      "channel": 4,
      "note": 57,
      "start": 34.8043,
      "duration": 0.1109,
      "velocity": 95,
      "chip": "ym2612"
    },
    {
      "channel": 3,
      "note": 88,
      "start": 34.8074,
      "duration": 0.2076,
      "velocity": 90,
      "chip": "ym2612"
    },
    {
      "channel": 4,
      "note": 58,
      "start": 35.0191,
      "duration": 0.1559,
      "velocity": 95,
      "chip": "ym2612"
    },
    {
      "channel": 2,
      "note": 81,
      "start": 35.0581,
      "duration": 0.0571,
      "velocity": 125,
      "chip": "ym2612"
    },
    {
      "channel": 1,
      "note": 80,
      "start": 35.061,
      "duration": 0.014,
      "velocity": 127,
      "chip": "ym2612"
    },
    {
      "channel": 0,
      "note": 76,
      "start": 35.0791,
      "duration": 0.0358,
      "velocity": 98,
      "chip": "ym2612"
    },
    {
      "channel": 2,
      "note": 81,
      "start": 35.1776,
      "duration": 0.3376,
      "velocity": 122,
      "chip": "ym2612"
    },
    {
      "channel": 1,
      "note": 80,
      "start": 35.1807,
      "duration": 0.0543,
      "velocity": 127,
      "chip": "ym2612"
    },
    {
      "channel": 0,
      "note": 85,
      "start": 35.1836,
      "duration": 0.0713,
      "velocity": 98,
      "chip": "ym2612"
    },
    {
      "channel": 5,
      "note": 81,
      "start": 35.1865,
      "duration": 0.0688,
      "velocity": 98,
      "chip": "ym2612"
    },
    {
      "channel": 3,
      "note": 88,
      "start": 35.1901,
      "duration": 0.1249,
      "velocity": 90,
      "chip": "ym2612"
    },
    {
      "channel": 4,
      "note": 80,
      "start": 35.3596,
      "duration": 0.1555,
      "velocity": 81,
      "chip": "ym2612"
    },
    {
      "channel": 0,
      "note": 85,
      "start": 35.3786,
      "duration": 0.0963,
      "velocity": 98,
      "chip": "ym2612"
    },
    {
      "channel": 5,
      "note": 81,
      "start": 35.3815,
      "duration": 0.0937,
      "velocity": 98,
      "chip": "ym2612"
    },
    {
      "channel": 1,
      "note": 58,
      "start": 35.3845,
      "duration": 0.1905,
      "velocity": 95,
      "chip": "ym2612"
    },
    {
      "channel": 3,
      "note": 80,
      "start": 35.4186,
      "duration": 0.0363,
      "velocity": 127,
      "chip": "ym2612"
    },
    {
      "channel": 2,
      "note": 81,
      "start": 35.5379,
      "duration": 0.0573,
      "velocity": 125,
      "chip": "ym2612"
    },
    {
      "channel": 3,
      "note": 80,
      "start": 35.5412,
      "duration": 0.0538,
      "velocity": 127,
      "chip": "ym2612"
    },
    {
      "channel": 4,
      "note": 81,
      "start": 35.5448,
      "duration": 0.1704,
      "velocity": 81,
      "chip": "ym2612"
    },
    {
      "channel": 4,
      "note": 82,
      "start": 35.7195,
      "duration": 0.1357,
      "velocity": 81,
      "chip": "ym2612"
    },
    {
      "channel": 1,
      "note": 58,
      "start": 35.759,
      "duration": 0.096,
      "velocity": 95,
      "chip": "ym2612"
    },
    {
      "channel": 2,
      "note": 81,
      "start": 35.7979,
      "duration": 0.0575,
      "velocity": 125,
      "chip": "ym2612"
    },
    {
      "channel": 3,
      "note": 80,
      "start": 35.801,
      "duration": 0.014,
      "velocity": 127,
      "chip": "ym2612"
    },
    {
      "channel": 2,
      "note": 81,
      "start": 35.9176,
      "duration": 0.3376,
      "velocity": 122,
      "chip": "ym2612"
    },
    {
      "channel": 0,
      "note": 59,
      "start": 35.9213,
      "duration": 0.1937,
      "velocity": 85,
      "chip": "ym2612"
    },
    {
      "channel": 1,
      "note": 59,
      "start": 35.9246,
      "duration": 0.1105,
      "velocity": 95,
      "chip": "ym2612"
    },
    {
      "channel": 4,
      "note": 83,
      "start": 35.928,
      "duration": 0.1072,
      "velocity": 81,
      "chip": "ym2612"
    },
    {
      "channel": 0,
      "note": 57,
      "start": 36.1189,
      "duration": 0.376,
      "velocity": 85,
      "chip": "ym2612"
    },
    {
      "channel": 1,
      "note": 57,
      "start": 36.1218,
      "duration": 0.1533,
      "velocity": 95,
      "chip": "ym2612"
    },
    {
      "channel": 4,
      "note": 81,
      "start": 36.1251,
      "duration": 0.1502,
      "velocity": 81,
      "chip": "ym2612"
    },
    {
      "channel": 2,
      "note": 81,
      "start": 36.2787,
      "duration": 0.0965,
      "velocity": 125,
      "chip": "ym2612"
    },
    {
      "channel": 0,
      "note": 56,
      "start": 36.4992,
      "duration": 0.3558,
      "velocity": 85,
      "chip": "ym2612"
    },
    {
      "channel": 1,
      "note": 56,
      "start": 36.5017,
      "duration": 0.1532,
      "velocity": 95,
      "chip": "ym2612"
    },
    {
      "channel": 4,
      "note": 80,
      "start": 36.5047,
      "duration": 0.1504,
      "velocity": 81,
      "chip": "ym2612"
    },
    {
      "channel": 2,
      "note": 81,
      "start": 36.538,
      "duration": 0.0572,
      "velocity": 125,
      "chip": "ym2612"
    },
    {
      "channel": 2,
      "note": 81,
      "start": 36.6577,
      "duration": 0.3375,
      "velocity": 122,
      "chip": "ym2612"
    },
    {
      "channel": 0,
      "note": 54,
      "start": 36.8586,
      "duration": 0.3763,
      "velocity": 85,
      "chip": "ym2612"
    },
    {
      "channel": 1,
      "note": 54,
      "start": 36.8614,
      "duration": 0.1937,
      "velocity": 95,
      "chip": "ym2612"
    },
    {
      "channel": 4,
      "note": 78,
      "start": 36.8644,
      "duration": 0.1907,
      "velocity": 81,
      "chip": "ym2612"
    },
    {
      "channel": 2,
      "note": 81,
      "start": 37.0178,
      "duration": 0.0573,
      "velocity": 125,
      "chip": "ym2612"
    },
    {
      "channel": 0,
      "note": 52,
      "start": 37.2391,
      "duration": 1.5159,
      "velocity": 85,
      "chip": "ym2612"
    },
    {
      "channel": 1,
      "note": 52,
      "start": 37.242,
      "duration": 1.5131,
      "velocity": 95,
      "chip": "ym2612"
    },
    {
      "channel": 4,
      "note": 76,
      "start": 37.2454,
      "duration": 1.4297,
      "velocity": 81,
      "chip": "ym2612"
    },
    {
      "channel": 2,
      "note": 81,
      "start": 37.278,
      "duration": 0.0571,
      "velocity": 125,
      "chip": "ym2612"
    },
    {
      "channel": 2,
      "note": 81,
      "start": 37.398,
      "duration": 0.2971,
      "velocity": 122,
      "chip": "ym2612"
    },
    {
      "channel": 2,
      "note": 81,
      "start": 37.7576,
      "duration": 0.3176,
      "velocity": 122,
      "chip": "ym2612"
    },
    {
      "channel": 2,
      "note": 81,
      "start": 38.1379,
      "duration": 0.2973,
      "velocity": 122,
      "chip": "ym2612"
    },
    {
      "channel": 1,
      "note": 59,
      "start": 38.7789,
      "duration": 0.056,
      "velocity": 95,
      "chip": "ym2612"
    },
    {
      "channel": 5,
      "note": 64,
      "start": 38.8796,
      "duration": 0.6955,
      "velocity": 95,
      "chip": "ym2612"
    },
    {
      "channel": 3,
      "note": 80,
      "start": 38.8824,
      "duration": 0.0526,
      "velocity": 127,
      "chip": "ym2612"
    },
    {
      "channel": 1,
      "note": 52,
      "start": 38.886,
      "duration": 0.1289,
      "velocity": 95,
      "chip": "ym2612"
    },
    {
      "channel": 3,
      "note": 80,
      "start": 39.1185,
      "duration": 0.0366,
      "velocity": 127,
      "chip": "ym2612"
    },
    {
      "channel": 3,
      "note": 80,
      "start": 39.2385,
      "duration": 0.0566,
      "velocity": 127,
      "chip": "ym2612"
    },
    {
      "channel": 1,
      "note": 52,
      "start": 39.2415,
      "duration": 0.2534,
      "velocity": 95,
      "chip": "ym2612"
    },
    {
      "channel": 3,
      "note": 80,
      "start": 39.4992,
      "duration": 0.0159,
      "velocity": 127,
      "chip": "ym2612"
    },
    {
      "channel": 5,
      "note": 68,
      "start": 39.6183,
      "duration": 0.6968,
      "velocity": 95,
      "chip": "ym2612"
    },
    {
      "channel": 3,
      "note": 80,
      "start": 39.6212,
      "duration": 0.0539,
      "velocity": 127,
      "chip": "ym2612"
    },
    {
      "channel": 1,
      "note": 56,
      "start": 39.6242,
      "duration": 0.2107,
      "velocity": 95,
      "chip": "ym2612"
    },
    {
      "channel": 3,
      "note": 80,
      "start": 39.8584,
      "duration": 0.0366,
      "velocity": 127,
      "chip": "ym2612"
    },
    {
      "channel": 3,
      "note": 80,
      "start": 39.9785,
      "duration": 0.0566,
      "velocity": 127,
      "chip": "ym2612"
    },
    {
      "channel": 1,
      "note": 56,
      "start": 39.9815,
      "duration": 0.2534,
      "velocity": 95,
      "chip": "ym2612"
    },
    {
      "channel": 3,
      "note": 80,
      "start": 40.2385,
      "duration": 0.0166,
      "velocity": 127,
      "chip": "ym2612"
    },
    {
      "channel": 5,
      "note": 69,
      "start": 40.3587,
      "duration": 0.5764,
      "velocity": 95,
      "chip": "ym2612"
    },
    {
      "channel": 3,
      "note": 80,
      "start": 40.3615,
      "duration": 0.0535,
      "velocity": 127,
      "chip": "ym2612"
    },
    {
      "channel": 1,
      "note": 57,
      "start": 40.3646,
      "duration": 0.2104,
      "velocity": 95,
      "chip": "ym2612"
    },
    {
      "channel": 3,
      "note": 80,
      "start": 40.5989,
      "duration": 0.0362,
      "velocity": 127,
      "chip": "ym2612"
    },
    {
      "channel": 3,
      "note": 80,
      "start": 40.7185,
      "duration": 0.0566,
      "velocity": 127,
      "chip": "ym2612"
    },
    {
      "channel": 1,
      "note": 57,
      "start": 40.7217,
      "duration": 0.1532,
      "velocity": 95,
      "chip": "ym2612"
    },
    {
      "channel": 5,
      "note": 71,
      "start": 40.9388,
      "duration": 0.8566,
      "velocity": 95,
      "chip": "ym2612"
    },
    {
      "channel": 1,
      "note": 59,
      "start": 40.9421,
      "duration": 0.1728,
      "velocity": 95,
      "chip": "ym2612"
    },
    {
      "channel": 3,
      "note": 80,
      "start": 40.9785,
      "duration": 0.0165,
      "velocity": 127,
      "chip": "ym2612"
    },
    {
      "channel": 3,
      "note": 80,
      "start": 41.0985,
      "duration": 0.0565,
      "velocity": 127,
      "chip": "ym2612"
    },
    {
      "channel": 2,
      "note": 88,
      "start": 41.3197,
      "duration": 0.0755,
      "velocity": 98,
      "chip": "ym2612"
    },
    {
      "channel": 4,
      "note": 98,
      "start": 41.3225,
      "duration": 0.1127,
      "velocity": 98,
      "chip": "ym2612"
    },
    {
      "channel": 0,
      "note": 92,
      "start": 41.3253,
      "duration": 0.1096,
      "velocity": 98,
      "chip": "ym2612"
    },
    {
      "channel": 1,
      "note": 59,
      "start": 41.3285,
      "duration": 0.1265,
      "velocity": 95,
      "chip": "ym2612"
    },
    {
      "channel": 3,
      "note": 80,
      "start": 41.3385,
      "duration": 0.0366,
      "velocity": 127,
      "chip": "ym2612"
    },
    {
      "channel": 3,
      "note": 80,
      "start": 41.4594,
      "duration": 0.0556,
      "velocity": 127,
      "chip": "ym2612"
    },
    {
      "channel": 0,
      "note": 88,
      "start": 41.4623,
      "duration": 0.0926,
      "velocity": 98,
      "chip": "ym2612"
    },
    {
      "channel": 4,
      "note": 98,
      "start": 41.4651,
      "duration": 0.11,
      "velocity": 98,
      "chip": "ym2612"
    },
    {
      "channel": 2,
      "note": 92,
      "start": 41.4679,
      "duration": 0.1073,
      "velocity": 98,
      "chip": "ym2612"
    },
    {
      "channel": 1,
      "note": 100,
      "start": 41.6682,
      "duration": 0.2268,
      "velocity": 94,
      "chip": "ym2612"
    },
    {
      "channel": 0,
      "note": 88,
      "start": 41.6789,
      "duration": 0.0961,
      "velocity": 98,
      "chip": "ym2612"
    },
    {
      "channel": 4,
      "note": 98,
      "start": 41.6821,
      "duration": 0.1132,
      "velocity": 98,
      "chip": "ym2612"
    },
    {
      "channel": 2,
      "note": 92,
      "start": 41.6849,
      "duration": 0.1106,
      "velocity": 98,
      "chip": "ym2612"
    },
    {
      "channel": 3,
      "note": 59,
      "start": 41.6881,
      "duration": 0.0871,
      "velocity": 95,
      "chip": "ym2612"
    },
    {
      "channel": 5,
      "note": 64,
      "start": 41.8389,
      "duration": 0.6964,
      "velocity": 95,
      "chip": "ym2612"
    },
    {
      "channel": 0,
      "note": 80,
      "start": 41.8419,
      "duration": 0.0099,
      "velocity": 127,
      "chip": "ym2612"
    },
    {
      "channel": 4,
      "note": 88,
      "start": 41.8449,
      "duration": 0.0702,
      "velocity": 98,
      "chip": "ym2612"
    },
    {
      "channel": 2,
      "note": 98,
      "start": 41.8478,
      "duration": 0.1076,
      "velocity": 98,
      "chip": "ym2612"
    },
    {
      "channel": 3,
      "note": 92,
      "start": 41.8506,
      "duration": 0.1046,
      "velocity": 98,
      "chip": "ym2612"
    },
    {
      "channel": 0,
      "note": 52,
      "start": 41.8538,
      "duration": 0.2013,
      "velocity": 95,
      "chip": "ym2612"
    },
    {
      "channel": 1,
      "note": 104,
      "start": 41.9013,
      "duration": 0.9538,
      "velocity": 94,
      "chip": "ym2612"
    },
    {
      "channel": 3,
      "note": 88,
      "start": 42.0591,
      "duration": 0.0761,
      "velocity": 98,
      "chip": "ym2612"
    },
    {
      "channel": 4,
      "note": 97,
      "start": 42.0618,
      "duration": 0.1134,
      "velocity": 98,
      "chip": "ym2612"
    },
    {
      "channel": 2,
      "note": 92,
      "start": 42.065,
      "duration": 0.1104,
      "velocity": 98,
      "chip": "ym2612"
    },
    {
      "channel": 0,
      "note": 80,
      "start": 42.0787,
      "duration": 0.0364,
      "velocity": 127,
      "chip": "ym2612"
    },
    {
      "channel": 0,
      "note": 80,
      "start": 42.1986,
      "duration": 0.0564,
      "velocity": 127,
      "chip": "ym2612"
    },
    {
      "channel": 3,
      "note": 52,
      "start": 42.2019,
      "duration": 0.2732,
      "velocity": 95,
      "chip": "ym2612"
    },
    {
      "channel": 4,
      "note": 88,
      "start": 42.419,
      "duration": 0.0962,
      "velocity": 98,
      "chip": "ym2612"
    },
    {
      "channel": 2,
      "note": 92,
      "start": 42.4219,
      "duration": 0.1136,
      "velocity": 98,
      "chip": "ym2612"
    },
    {
      "channel": 0,
      "note": 95,
      "start": 42.4246,
      "duration": 0.1103,
      "velocity": 98,
      "chip": "ym2612"
    },
    {
      "channel": 5,
      "note": 68,
      "start": 42.5785,
      "duration": 0.6967,
      "velocity": 95,
      "chip": "ym2612"
    },
    {
      "channel": 3,
      "note": 80,
      "start": 42.5815,
      "duration": 0.0536,
      "velocity": 127,
      "chip": "ym2612"
    },
    {
      "channel": 4,
      "note": 56,
      "start": 42.5847,
      "duration": 0.1705,
      "velocity": 95,
      "chip": "ym2612"
    },
    {
      "channel": 3,
      "note": 80,
      "start": 42.8185,
      "duration": 0.0367,
      "velocity": 127,
      "chip": "ym2612"
    },
    {
      "channel": 3,
      "note": 80,
      "start": 42.9385,
      "duration": 0.0565,
      "velocity": 127,
      "chip": "ym2612"
    },
    {
      "channel": 4,
      "note": 56,
      "start": 42.9417,
      "duration": 0.2135,
      "velocity": 95,
      "chip": "ym2612"
    },
    {
      "channel": 3,
      "note": 80,
      "start": 43.1985,
      "duration": 0.0165,
      "velocity": 127,
      "chip": "ym2612"
    },
    {
      "channel": 5,
      "note": 69,
      "start": 43.3187,
      "duration": 0.5764,
      "velocity": 95,
      "chip": "ym2612"
    },
    {
      "channel": 3,
      "note": 80,
      "start": 43.3215,
      "duration": 0.0536,
      "velocity": 127,
      "chip": "ym2612"
    },
    {
      "channel": 4,
      "note": 57,
      "start": 43.3246,
      "duration": 0.2105,
      "velocity": 95,
      "chip": "ym2612"
    },
    {
      "channel": 3,
      "note": 80,
      "start": 43.5589,
      "duration": 0.0362,
      "velocity": 127,
      "chip": "ym2612"
    },
    {
      "channel": 3,
      "note": 80,
      "start": 43.6785,
      "duration": 0.0565,
      "velocity": 127,
      "chip": "ym2612"
    },
    {
      "channel": 4,
      "note": 57,
      "start": 43.6822,
      "duration": 0.1129,
      "velocity": 95,
      "chip": "ym2612"
    },
    {
      "channel": 5,
      "note": 66,
      "start": 43.8997,
      "duration": 0.8557,
      "velocity": 95,
      "chip": "ym2612"
    },
    {
      "channel": 4,
      "note": 54,
      "start": 43.9032,
      "duration": 0.152,
      "velocity": 95,
      "chip": "ym2612"
    },
    {
      "channel": 3,
      "note": 80,
      "start": 43.9385,
      "duration": 0.0166,
      "velocity": 127,
      "chip": "ym2612"
    },
    {
      "channel": 3,
      "note": 80,
      "start": 44.0586,
      "duration": 0.0564,
      "velocity": 127,
      "chip": "ym2612"
    },
    {
      "channel": 0,
      "note": 88,
      "start": 44.2787,
      "duration": 0.0762,
      "velocity": 98,
      "chip": "ym2612"
    },
    {
      "channel": 2,
      "note": 98,
      "start": 44.2816,
      "duration": 0.1137,
      "velocity": 98,
      "chip": "ym2612"
    },
    {
      "channel": 1,
      "note": 92,
      "start": 44.2844,
      "duration": 0.1106,
      "velocity": 98,
      "chip": "ym2612"
    },
    {
      "channel": 4,
      "note": 54,
      "start": 44.2872,
      "duration": 0.1279,
      "velocity": 95,
      "chip": "ym2612"
    },
    {
      "channel": 3,
      "note": 80,
      "start": 44.2985,
      "duration": 0.0365,
      "velocity": 127,
      "chip": "ym2612"
    },
    {
      "channel": 3,
      "note": 80,
      "start": 44.4194,
      "duration": 0.0557,
      "velocity": 127,
      "chip": "ym2612"
    },
    {
      "channel": 0,
      "note": 88,
      "start": 44.4228,
      "duration": 0.0922,
      "velocity": 98,
      "chip": "ym2612"
    },
    {
      "channel": 1,
      "note": 98,
      "start": 44.4253,
      "duration": 0.1097,
      "velocity": 98,
      "chip": "ym2612"
    },
    {
      "channel": 2,
      "note": 92,
      "start": 44.4282,
      "duration": 0.1071,
      "velocity": 98,
      "chip": "ym2612"
    },
    {
      "channel": 4,
      "note": 100,
      "start": 44.6276,
      "duration": 0.2276,
      "velocity": 94,
      "chip": "ym2612"
    },
    {
      "channel": 0,
      "note": 88,
      "start": 44.6389,
      "duration": 0.0962,
      "velocity": 98,
      "chip": "ym2612"
    },
    {
      "channel": 1,
      "note": 92,
      "start": 44.6415,
      "duration": 0.1136,
      "velocity": 98,
      "chip": "ym2612"
    },
    {
      "channel": 2,
      "note": 98,
      "start": 44.6444,
      "duration": 0.1112,
      "velocity": 98,
      "chip": "ym2612"
    },
    {
      "channel": 3,
      "note": 54,
      "start": 44.6476,
      "duration": 0.1077,
      "velocity": 95,
      "chip": "ym2612"
    },
    {
      "channel": 5,
      "note": 64,
      "start": 44.7988,
      "duration": 0.6966,
      "velocity": 95,
      "chip": "ym2612"
    },
    {
      "channel": 0,
      "note": 80,
      "start": 44.8018,
      "duration": 0.0102,
      "velocity": 127,
      "chip": "ym2612"
    },
    {
      "channel": 1,
      "note": 88,
      "start": 44.8052,
      "duration": 0.0699,
      "velocity": 98,
      "chip": "ym2612"
    },
    {
      "channel": 2,
      "note": 92,
      "start": 44.808,
      "duration": 0.1074,
      "velocity": 98,
      "chip": "ym2612"
    },
    {
      "channel": 3,
      "note": 98,
      "start": 44.8108,
      "duration": 0.1044,
      "velocity": 98,
      "chip": "ym2612"
    },
    {
      "channel": 0,
      "note": 52,
      "start": 44.814,
      "duration": 0.201,
      "velocity": 95,
      "chip": "ym2612"
    },
    {
      "channel": 4,
      "note": 104,
      "start": 44.8614,
      "duration": 0.9537,
      "velocity": 94,
      "chip": "ym2612"
    },
    {
      "channel": 1,
      "note": 92,
      "start": 45.0188,
      "duration": 0.1163,
      "velocity": 98,
      "chip": "ym2612"
    },
    {
      "channel": 3,
      "note": 97,
      "start": 45.0213,
      "duration": 0.1139,
      "velocity": 98,
      "chip": "ym2612"
    },
    {
      "channel": 2,
      "note": 88,
      "start": 45.0243,
      "duration": 0.071,
      "velocity": 98,
      "chip": "ym2612"
    },
    {
      "channel": 0,
      "note": 80,
      "start": 45.0387,
      "duration": 0.0363,
      "velocity": 127,
      "chip": "ym2612"
    },
    {
      "channel": 0,
      "note": 80,
      "start": 45.1586,
      "duration": 0.0564,
      "velocity": 127,
      "chip": "ym2612"
    },
    {
      "channel": 2,
      "note": 52,
      "start": 45.1617,
      "duration": 0.2135,
      "velocity": 95,
      "chip": "ym2612"
    },
    {
      "channel": 1,
      "note": 88,
      "start": 45.3789,
      "duration": 0.0963,
      "velocity": 98,
      "chip": "ym2612"
    },
    {
      "channel": 3,
      "note": 95,
      "start": 45.3815,
      "duration": 0.1137,
      "velocity": 98,
      "chip": "ym2612"
    },
    {
      "channel": 0,
      "note": 92,
      "start": 45.3847,
      "duration": 0.1104,
      "velocity": 98,
      "chip": "ym2612"
    },
    {
      "channel": 2,
      "note": 80,
      "start": 45.4194,
      "duration": 0.0159,
      "velocity": 127,
      "chip": "ym2612"
    },
    {
      "channel": 5,
      "note": 68,
      "start": 45.5385,
      "duration": 0.6967,
      "velocity": 95,
      "chip": "ym2612"
    },
    {
      "channel": 2,
      "note": 80,
      "start": 45.5415,
      "duration": 0.0537,
      "velocity": 127,
      "chip": "ym2612"
    },
    {
      "channel": 1,
      "note": 56,
      "start": 45.5449,
      "duration": 0.1502,
      "velocity": 95,
      "chip": "ym2612"
    },
    {
      "channel": 2,
      "note": 80,
      "start": 45.7788,
      "duration": 0.0366,
      "velocity": 127,
      "chip": "ym2612"
    },
    {
      "channel": 2,
      "note": 80,
      "start": 45.8987,
      "duration": 0.0565,
      "velocity": 127,
      "chip": "ym2612"
    },
    {
      "channel": 0,
      "note": 88,
      "start": 45.9016,
      "duration": 0.0934,
      "velocity": 98,
      "chip": "ym2612"
    },
    {
      "channel": 3,
      "note": 97,
      "start": 45.9043,
      "duration": 0.1308,
      "velocity": 98,
      "chip": "ym2612"
    },
    {
      "channel": 1,
      "note": 92,
      "start": 45.9071,
      "duration": 0.1278,
      "velocity": 98,
      "chip": "ym2612"
    },
    {
      "channel": 4,
      "note": 56,
      "start": 45.9102,
      "duration": 0.205,
      "velocity": 95,
      "chip": "ym2612"
    },
    {
      "channel": 0,
      "note": 88,
      "start": 46.1189,
      "duration": 0.096,
      "velocity": 98,
      "chip": "ym2612"
    },
    {
      "channel": 1,
      "note": 95,
      "start": 46.1215,
      "duration": 0.1135,
      "velocity": 98,
      "chip": "ym2612"
    },
    {
      "channel": 3,
      "note": 92,
      "start": 46.1242,
      "duration": 0.1109,
      "velocity": 98,
      "chip": "ym2612"
    },
    {
      "channel": 2,
      "note": 80,
      "start": 46.1586,
      "duration": 0.0166,
      "velocity": 127,
      "chip": "ym2612"
    },
    {
      "channel": 5,
      "note": 69,
      "start": 46.2787,
      "duration": 0.6165,
      "velocity": 95,
      "chip": "ym2612"
    },
    {
      "channel": 2,
      "note": 80,
      "start": 46.2818,
      "duration": 0.0534,
      "velocity": 127,
      "chip": "ym2612"
    },
    {
      "channel": 4,
      "note": 57,
      "start": 46.2885,
      "duration": 0.1666,
      "velocity": 95,
      "chip": "ym2612"
    },
    {
      "channel": 0,
      "note": 86,
      "start": 46.4994,
      "duration": 0.0755,
      "velocity": 98,
      "chip": "ym2612"
    },
    {
      "channel": 1,
      "note": 90,
      "start": 46.502,
      "duration": 0.113,
      "velocity": 98,
      "chip": "ym2612"
    },
    {
      "channel": 3,
      "note": 93,
      "start": 46.5047,
      "duration": 0.1105,
      "velocity": 98,
      "chip": "ym2612"
    },
    {
      "channel": 2,
      "note": 80,
      "start": 46.519,
      "duration": 0.0362,
      "velocity": 127,
      "chip": "ym2612"
    },
    {
      "channel": 2,
      "note": 80,
      "start": 46.6387,
      "duration": 0.0565,
      "velocity": 127,
      "chip": "ym2612"
    },
    {
      "channel": 4,
      "note": 57,
      "start": 46.642,
      "duration": 0.1331,
      "velocity": 95,
      "chip": "ym2612"
    },
    {
      "channel": 0,
      "note": 83,
      "start": 46.8587,
      "duration": 0.0962,
      "velocity": 98,
      "chip": "ym2612"
    },
    {
      "channel": 1,
      "note": 92,
      "start": 46.8614,
      "duration": 0.1137,
      "velocity": 98,
      "chip": "ym2612"
    },
    {
      "channel": 3,
      "note": 88,
      "start": 46.864,
      "duration": 0.1111,
      "velocity": 98,
      "chip": "ym2612"
    },
    {
      "channel": 4,
      "note": 58,
      "start": 46.8671,
      "duration": 0.148,
      "velocity": 95,
      "chip": "ym2612"
    },
    {
      "channel": 2,
      "note": 80,
      "start": 46.8988,
      "duration": 0.0164,
      "velocity": 127,
      "chip": "ym2612"
    },
    {
      "channel": 5,
      "note": 70,
      "start": 46.9188,
      "duration": 0.7364,
      "velocity": 95,
      "chip": "ym2612"
    },
    {
      "channel": 2,
      "note": 80,
      "start": 47.0189,
      "duration": 0.0562,
      "velocity": 127,
      "chip": "ym2612"
    },
    {
      "channel": 0,
      "note": 88,
      "start": 47.2387,
      "duration": 0.0762,
      "velocity": 98,
      "chip": "ym2612"
    },
    {
      "channel": 1,
      "note": 95,
      "start": 47.2417,
      "duration": 0.1134,
      "velocity": 98,
      "chip": "ym2612"
    },
    {
      "channel": 3,
      "note": 92,
      "start": 47.2444,
      "duration": 0.1109,
      "velocity": 98,
      "chip": "ym2612"
    },
    {
      "channel": 4,
      "note": 58,
      "start": 47.2472,
      "duration": 0.1679,
      "velocity": 95,
      "chip": "ym2612"
    },
    {
      "channel": 2,
      "note": 80,
      "start": 47.2587,
      "duration": 0.0365,
      "velocity": 127,
      "chip": "ym2612"
    },
    {
      "channel": 2,
      "note": 80,
      "start": 47.3795,
      "duration": 0.0557,
      "velocity": 127,
      "chip": "ym2612"
    },
    {
      "channel": 4,
      "note": 58,
      "start": 47.5991,
      "duration": 0.0959,
      "velocity": 95,
      "chip": "ym2612"
    },
    {
      "channel": 2,
      "note": 80,
      "start": 47.6389,
      "duration": 0.0165,
      "velocity": 127,
      "chip": "ym2612"
    },
    {
      "channel": 5,
      "note": 71,
      "start": 47.6988,
      "duration": 0.2764,
      "velocity": 95,
      "chip": "ym2612"
    },
    {
      "channel": 2,
      "note": 83,
      "start": 47.7596,
      "duration": 0.3357,
      "velocity": 96,
      "chip": "ym2612"
    },
    {
      "channel": 0,
      "note": 95,
      "start": 47.7624,
      "duration": 0.1126,
      "velocity": 98,
      "chip": "ym2612"
    },
    {
      "channel": 1,
      "note": 83,
      "start": 47.7649,
      "duration": 0.1102,
      "velocity": 98,
      "chip": "ym2612"
    },
    {
      "channel": 4,
      "note": 59,
      "start": 47.7681,
      "duration": 0.1071,
      "velocity": 95,
      "chip": "ym2612"
    },
    {
      "channel": 5,
      "note": 69,
      "start": 47.9792,
      "duration": 0.3559,
      "velocity": 95,
      "chip": "ym2612"
    },
    {
      "channel": 0,
      "note": 93,
      "start": 47.9821,
      "duration": 0.1128,
      "velocity": 98,
      "chip": "ym2612"
    },
    {
      "channel": 1,
      "note": 81,
      "start": 47.9847,
      "duration": 0.1104,
      "velocity": 98,
      "chip": "ym2612"
    },
    {
      "channel": 4,
      "note": 57,
      "start": 47.9882,
      "duration": 0.127,
      "velocity": 95,
      "chip": "ym2612"
    },
    {
      "channel": 2,
      "note": 83,
      "start": 48.1194,
      "duration": 0.2158,
      "velocity": 96,
      "chip": "ym2612"
    },
    {
      "channel": 5,
      "note": 68,
      "start": 48.3385,
      "duration": 0.3766,
      "velocity": 95,
      "chip": "ym2612"
    },
    {
      "channel": 0,
      "note": 80,
      "start": 48.3415,
      "duration": 0.1135,
      "velocity": 98,
      "chip": "ym2612"
    },
    {
      "channel": 1,
      "note": 92,
      "start": 48.3441,
      "duration": 0.111,
      "velocity": 98,
      "chip": "ym2612"
    },
    {
      "channel": 4,
      "note": 56,
      "start": 48.3468,
      "duration": 0.1483,
      "velocity": 95,
      "chip": "ym2612"
    },
    {
      "channel": 2,
      "note": 83,
      "start": 48.3793,
      "duration": 0.0761,
      "velocity": 96,
      "chip": "ym2612"
    },
    {
      "channel": 2,
      "note": 83,
      "start": 48.4994,
      "duration": 0.336,
      "velocity": 96,
      "chip": "ym2612"
    },
    {
      "channel": 5,
      "note": 66,
      "start": 48.7185,
      "duration": 0.3567,
      "velocity": 95,
      "chip": "ym2612"
    },
    {
      "channel": 0,
      "note": 90,
      "start": 48.7217,
      "duration": 0.1132,
      "velocity": 98,
      "chip": "ym2612"
    },
    {
      "channel": 1,
      "note": 78,
      "start": 48.7244,
      "duration": 0.1107,
      "velocity": 98,
      "chip": "ym2612"
    },
    {
      "channel": 4,
      "note": 54,
      "start": 48.7273,
      "duration": 0.1679,
      "velocity": 95,
      "chip": "ym2612"
    },
    {
      "channel": 2,
      "note": 83,
      "start": 48.8593,
      "duration": 0.216,
      "velocity": 96,
      "chip": "ym2612"
    },
    {
      "channel": 5,
      "note": 65,
      "start": 49.0789,
      "duration": 1.5963,
      "velocity": 95,
      "chip": "ym2612"
    },
    {
      "channel": 0,
      "note": 85,
      "start": 49.0819,
      "duration": 0.113,
      "velocity": 98,
      "chip": "ym2612"
    },
    {
      "channel": 1,
      "note": 80,
      "start": 49.0845,
      "duration": 0.1105,
      "velocity": 98,
      "chip": "ym2612"
    },
    {
      "channel": 4,
      "note": 53,
      "start": 49.0876,
      "duration": 1.5677,
      "velocity": 95,
      "chip": "ym2612"
    },
    {
      "channel": 2,
      "note": 83,
      "start": 49.1201,
      "duration": 0.0752,
      "velocity": 96,
      "chip": "ym2612"
    },
    {
      "channel": 2,
      "note": 83,
      "start": 49.2393,
      "duration": 0.336,
      "velocity": 96,
      "chip": "ym2612"
    },
    {
      "channel": 0,
      "note": 92,
      "start": 49.2419,
      "duration": 0.1131,
      "velocity": 98,
      "chip": "ym2612"
    },
    {
      "channel": 1,
      "note": 85,
      "start": 49.3385,
      "duration": 0.1165,
      "velocity": 98,
      "chip": "ym2612"
    },
    {
      "channel": 0,
      "note": 92,
      "start": 49.4185,
      "duration": 0.1165,
      "velocity": 98,
      "chip": "ym2612"
    },
    {
      "channel": 1,
      "note": 85,
      "start": 49.5185,
      "duration": 0.1166,
      "velocity": 98,
      "chip": "ym2612"
    },
    {
      "channel": 2,
      "note": 83,
      "start": 49.5993,
      "duration": 0.216,
      "velocity": 96,
      "chip": "ym2612"
    },
    {
      "channel": 0,
      "note": 92,
      "start": 49.6019,
      "duration": 0.1332,
      "velocity": 98,
      "chip": "ym2612"
    },
    {
      "channel": 1,
      "note": 85,
      "start": 49.6985,
      "duration": 0.1165,
      "velocity": 98,
      "chip": "ym2612"
    },
    {
      "channel": 0,
      "note": 92,
      "start": 49.7985,
      "duration": 0.1165,
      "velocity": 98,
      "chip": "ym2612"
    },
    {
      "channel": 2,
      "note": 83,
      "start": 49.8592,
      "duration": 0.076,
      "velocity": 96,
      "chip": "ym2612"
    },
    {
      "channel": 1,
      "note": 85,
      "start": 49.8793,
      "duration": 0.1158,
      "velocity": 98,
      "chip": "ym2612"
    },
    {
      "channel": 2,
      "note": 83,
      "start": 49.9792,
      "duration": 0.336,
      "velocity": 96,
      "chip": "ym2612"
    },
    {
      "channel": 0,
      "note": 92,
      "start": 49.9817,
      "duration": 0.1132,
      "velocity": 98,
      "chip": "ym2612"
    },
    {
      "channel": 1,
      "note": 85,
      "start": 50.0785,
      "duration": 0.1165,
      "velocity": 98,
      "chip": "ym2612"
    },
    {
      "channel": 0,
      "note": 92,
      "start": 50.1585,
      "duration": 0.1165,
      "velocity": 98,
      "chip": "ym2612"
    },
    {
      "channel": 1,
      "note": 85,
      "start": 50.2585,
      "duration": 0.1166,
      "velocity": 98,
      "chip": "ym2612"
    },
    {
      "channel": 2,
      "note": 83,
      "start": 50.3398,
      "duration": 0.2155,
      "velocity": 96,
      "chip": "ym2612"
    },
    {
      "channel": 0,
      "note": 92,
      "start": 50.3424,
      "duration": 0.1326,
      "velocity": 98,
      "chip": "ym2612"
    },
    {
      "channel": 3,
      "note": 73,
      "start": 50.346,
      "duration": 0.2091,
      "velocity": 90,
      "chip": "ym2612"
    },
    {
      "channel": 1,
      "note": 85,
      "start": 50.4385,
      "duration": 0.1165,
      "velocity": 98,
      "chip": "ym2612"
    },
    {
      "channel": 0,
      "note": 92,
      "start": 50.5384,
      "duration": 0.1166,
      "velocity": 98,
      "chip": "ym2612"
    },
    {
      "channel": 2,
      "note": 83,
      "start": 50.5993,
      "duration": 0.076,
      "velocity": 96,
      "chip": "ym2612"
    },
    {
      "channel": 1,
      "note": 85,
      "start": 50.6186,
      "duration": 0.1163,
      "velocity": 98,
      "chip": "ym2612"
    },
    {
      "channel": 3,
      "note": 77,
      "start": 50.6221,
      "duration": 0.053,
      "velocity": 90,
      "chip": "ym2612"
    },
    {
      "channel": 2,
      "note": 81,
      "start": 50.718,
      "duration": 0.0572,
      "velocity": 125,
      "chip": "ym2612"
    },
    {
      "channel": 0,
      "note": 92,
      "start": 50.7243,
      "duration": 0.1107,
      "velocity": 98,
      "chip": "ym2612"
    },
    {
      "channel": 4,
      "note": 49,
      "start": 50.7274,
      "duration": 0.2076,
      "velocity": 95,
      "chip": "ym2612"
    },
    {
      "channel": 3,
      "note": 80,
      "start": 50.7307,
      "duration": 0.8264,
      "velocity": 90,
      "chip": "ym2612"
    },
    {
      "channel": 2,
      "note": 81,
      "start": 50.9581,
      "duration": 0.0371,
      "velocity": 125,
      "chip": "ym2612"
    },
    {
      "channel": 2,
      "note": 81,
      "start": 51.0784,
      "duration": 0.0768,
      "velocity": 125,
      "chip": "ym2612"
    },
    {
      "channel": 5,
      "note": 82,
      "start": 51.0815,
      "duration": 0.0736,
      "velocity": 127,
      "chip": "ym2612"
    },
    {
      "channel": 4,
      "note": 49,
      "start": 51.0847,
      "duration": 0.2704,
      "velocity": 95,
      "chip": "ym2612"
    },
    {
      "channel": 2,
      "note": 81,
      "start": 51.3381,
      "duration": 0.0172,
      "velocity": 125,
      "chip": "ym2612"
    },
    {
      "channel": 1,
      "note": 45,
      "start": 51.3417,
      "duration": 0.0533,
      "velocity": 99,
      "chip": "ym2612"
    },
    {
      "channel": 2,
      "note": 81,
      "start": 51.4581,
      "duration": 0.0317,
      "velocity": 125,
      "chip": "ym2612"
    },
    {
      "channel": 1,
      "note": 52,
      "start": 51.4611,
      "duration": 0.0531,
      "velocity": 99,
      "chip": "ym2612"
    },
    {
      "channel": 4,
      "note": 53,
      "start": 51.4687,
      "duration": 0.0884,
      "velocity": 95,
      "chip": "ym2612"
    },
    {
      "channel": 2,
      "note": 81,
      "start": 51.5695,
      "duration": 0.0157,
      "velocity": 125,
      "chip": "ym2612"
    },
    {
      "channel": 2,
      "note": 81,
      "start": 51.6209,
      "duration": 0.0394,
      "velocity": 125,
      "chip": "ym2612"
    },
    {
      "channel": 0,
      "note": 82,
      "start": 51.6245,
      "duration": 0.0355,
      "velocity": 127,
      "chip": "ym2612"
    },
    {
      "channel": 4,
      "note": 53,
      "start": 51.6276,
      "duration": 0.2127,
      "velocity": 95,
      "chip": "ym2612"
    },
    {
      "channel": 3,
      "note": 80,
      "start": 51.6305,
      "duration": 0.2097,
      "velocity": 90,
      "chip": "ym2612"
    },
    {
      "channel": 2,
      "note": 81,
      "start": 51.8438,
      "duration": 0.0164,
      "velocity": 125,
      "chip": "ym2612"
    },
    {
      "channel": 3,
      "note": 81,
      "start": 51.865,
      "duration": 0.0552,
      "velocity": 90,
      "chip": "ym2612"
    },
    {
      "channel": 2,
      "note": 81,
      "start": 51.9631,
      "duration": 0.0572,
      "velocity": 125,
      "chip": "ym2612"
    },
    {
      "channel": 4,
      "note": 54,
      "start": 51.9666,
      "duration": 0.2135,
      "velocity": 95,
      "chip": "ym2612"
    },
    {
      "channel": 3,
      "note": 78,
      "start": 51.9698,
      "duration": 0.6904,
      "velocity": 90,
      "chip": "ym2612"
    },
    {
      "channel": 2,
      "note": 81,
      "start": 52.2031,
      "duration": 0.0372,
      "velocity": 125,
      "chip": "ym2612"
    },
    {
      "channel": 2,
      "note": 81,
      "start": 52.3231,
      "duration": 0.0773,
      "velocity": 125,
      "chip": "ym2612"
    },
    {
      "channel": 0,
      "note": 82,
      "start": 52.3257,
      "duration": 0.0744,
      "velocity": 127,
      "chip": "ym2612"
    },
    {
      "channel": 4,
      "note": 54,
      "start": 52.3288,
      "duration": 0.2714,
      "velocity": 95,
      "chip": "ym2612"
    },
    {
      "channel": 2,
      "note": 81,
      "start": 52.5831,
      "duration": 0.0172,
      "velocity": 125,
      "chip": "ym2612"
    },
    {
      "channel": 1,
      "note": 45,
      "start": 52.5861,
      "duration": 0.054,
      "velocity": 99,
      "chip": "ym2612"
    },
    {
      "channel": 2,
      "note": 81,
      "start": 52.7035,
      "duration": 0.0569,
      "velocity": 125,
      "chip": "ym2612"
    },
    {
      "channel": 1,
      "note": 52,
      "start": 52.7064,
      "duration": 0.0537,
      "velocity": 99,
      "chip": "ym2612"
    },
    {
      "channel": 4,
      "note": 57,
      "start": 52.7097,
      "duration": 0.2305,
      "velocity": 95,
      "chip": "ym2612"
    },
    {
      "channel": 3,
      "note": 73,
      "start": 52.7126,
      "duration": 0.6876,
      "velocity": 90,
      "chip": "ym2612"
    },
    {
      "channel": 2,
      "note": 81,
      "start": 52.9432,
      "duration": 0.0371,
      "velocity": 125,
      "chip": "ym2612"
    },
    {
      "channel": 1,
      "note": 52,
      "start": 52.946,
      "duration": 0.0541,
      "velocity": 99,
      "chip": "ym2612"
    },
    {
      "channel": 2,
      "note": 81,
      "start": 53.0632,
      "duration": 0.0771,
      "velocity": 125,
      "chip": "ym2612"
    },
    {
      "channel": 0,
      "note": 82,
      "start": 53.0657,
      "duration": 0.0743,
      "velocity": 127,
      "chip": "ym2612"
    },
    {
      "channel": 4,
      "note": 57,
      "start": 53.0688,
      "duration": 0.3315,
      "velocity": 95,
      "chip": "ym2612"
    },
    {
      "channel": 2,
      "note": 81,
      "start": 53.2836,
      "duration": 0.1567,
      "velocity": 122,
      "chip": "ym2612"
    },
    {
      "channel": 2,
      "note": 81,
      "start": 53.4431,
      "duration": 0.0571,
      "velocity": 125,
      "chip": "ym2612"
    },
    {
      "channel": 4,
      "note": 49,
      "start": 53.4465,
      "duration": 0.2337,
      "velocity": 95,
      "chip": "ym2612"
    },
    {
      "channel": 3,
      "note": 80,
      "start": 53.4498,
      "duration": 0.839,
      "velocity": 90,
      "chip": "ym2612"
    },
    {
      "channel": 2,
      "note": 81,
      "start": 53.6833,
      "duration": 0.037,
      "velocity": 125,
      "chip": "ym2612"
    },
    {
      "channel": 2,
      "note": 81,
      "start": 53.8032,
      "duration": 0.0772,
      "velocity": 125,
      "chip": "ym2612"
    },
    {
      "channel": 0,
      "note": 82,
      "start": 53.8057,
      "duration": 0.0744,
      "velocity": 127,
      "chip": "ym2612"
    },
    {
      "channel": 4,
      "note": 49,
      "start": 53.8088,
      "duration": 0.2714,
      "velocity": 95,
      "chip": "ym2612"
    },
    {
      "channel": 2,
      "note": 81,
      "start": 54.0636,
      "duration": 0.0168,
      "velocity": 125,
      "chip": "ym2612"
    },
    {
      "channel": 1,
      "note": 45,
      "start": 54.0665,
      "duration": 0.0537,
      "velocity": 99,
      "chip": "ym2612"
    },
    {
      "channel": 2,
      "note": 81,
      "start": 54.1831,
      "duration": 0.0308,
      "velocity": 125,
      "chip": "ym2612"
    },
    {
      "channel": 1,
      "note": 52,
      "start": 54.1865,
      "duration": 0.0515,
      "velocity": 99,
      "chip": "ym2612"
    },
    {
      "channel": 4,
      "note": 53,
      "start": 54.1938,
      "duration": 0.0863,
      "velocity": 95,
      "chip": "ym2612"
    },
    {
      "channel": 2,
      "note": 81,
      "start": 54.2924,
      "duration": 0.0151,
      "velocity": 125,
      "chip": "ym2612"
    },
    {
      "channel": 2,
      "note": 81,
      "start": 54.3447,
      "duration": 0.0376,
      "velocity": 125,
      "chip": "ym2612"
    },
    {
      "channel": 0,
      "note": 82,
      "start": 54.347,
      "duration": 0.035,
      "velocity": 127,
      "chip": "ym2612"
    },
    {
      "channel": 4,
      "note": 53,
      "start": 54.3499,
      "duration": 0.2322,
      "velocity": 95,
      "chip": "ym2612"
    },
    {
      "channel": 3,
      "note": 80,
      "start": 54.3529,
      "duration": 0.2093,
      "velocity": 90,
      "chip": "ym2612"
    },
    {
      "channel": 2,
      "note": 81,
      "start": 54.5653,
      "duration": 0.0171,
      "velocity": 125,
      "chip": "ym2612"
    },
    {
      "channel": 3,
      "note": 81,
      "start": 54.5867,
      "duration": 0.0553,
      "velocity": 90,
      "chip": "ym2612"
    },
    {
      "channel": 2,
      "note": 81,
      "start": 54.6854,
      "duration": 0.0568,
      "velocity": 125,
      "chip": "ym2612"
    },
    {
      "channel": 4,
      "note": 54,
      "start": 54.6888,
      "duration": 0.2332,
      "velocity": 95,
      "chip": "ym2612"
    },
    {
      "channel": 3,
      "note": 83,
      "start": 54.6925,
      "duration": 0.5697,
      "velocity": 90,
      "chip": "ym2612"
    },
    {
      "channel": 2,
      "note": 81,
      "start": 54.9251,
      "duration": 0.0371,
      "velocity": 125,
      "chip": "ym2612"
    },
    {
      "channel": 2,
      "note": 81,
      "start": 55.0651,
      "duration": 0.0573,
      "velocity": 125,
      "chip": "ym2612"
    },
    {
      "channel": 0,
      "note": 82,
      "start": 55.0676,
      "duration": 0.0544,
      "velocity": 127,
      "chip": "ym2612"
    },
    {
      "channel": 4,
      "note": 54,
      "start": 55.0707,
      "duration": 0.2515,
      "velocity": 95,
      "chip": "ym2612"
    },
    {
      "channel": 3,
      "note": 81,
      "start": 55.2667,
      "duration": 0.0355,
      "velocity": 90,
      "chip": "ym2612"
    },
    {
      "channel": 2,
      "note": 81,
      "start": 55.3053,
      "duration": 0.0171,
      "velocity": 125,
      "chip": "ym2612"
    },
    {
      "channel": 1,
      "note": 45,
      "start": 55.3082,
      "duration": 0.0539,
      "velocity": 99,
      "chip": "ym2612"
    },
    {
      "channel": 3,
      "note": 80,
      "start": 55.3267,
      "duration": 0.0553,
      "velocity": 90,
      "chip": "ym2612"
    },
    {
      "channel": 2,
      "note": 81,
      "start": 55.4249,
      "duration": 0.0573,
      "velocity": 125,
      "chip": "ym2612"
    },
    {
      "channel": 1,
      "note": 52,
      "start": 55.4278,
      "duration": 0.0541,
      "velocity": 99,
      "chip": "ym2612"
    },
    {
      "channel": 4,
      "note": 57,
      "start": 55.4311,
      "duration": 0.211,
      "velocity": 95,
      "chip": "ym2612"
    },
    {
      "channel": 3,
      "note": 81,
      "start": 55.4343,
      "duration": 0.3278,
      "velocity": 90,
      "chip": "ym2612"
    },
    {
      "channel": 2,
      "note": 81,
      "start": 55.5451,
      "duration": 0.0972,
      "velocity": 125,
      "chip": "ym2612"
    },
    {
      "channel": 2,
      "note": 81,
      "start": 55.6456,
      "duration": 0.1167,
      "velocity": 125,
      "chip": "ym2612"
    },
    {
      "channel": 1,
      "note": 52,
      "start": 55.6654,
      "duration": 0.0566,
      "velocity": 99,
      "chip": "ym2612"
    },
    {
      "channel": 2,
      "note": 81,
      "start": 55.805,
      "duration": 0.0772,
      "velocity": 125,
      "chip": "ym2612"
    },
    {
      "channel": 0,
      "note": 82,
      "start": 55.8076,
      "duration": 0.0544,
      "velocity": 127,
      "chip": "ym2612"
    },
    {
      "channel": 4,
      "note": 57,
      "start": 55.8107,
      "duration": 0.3115,
      "velocity": 95,
      "chip": "ym2612"
    },
    {
      "channel": 3,
      "note": 83,
      "start": 55.8136,
      "duration": 0.3084,
      "velocity": 90,
      "chip": "ym2612"
    },
    {
      "channel": 2,
      "note": 81,
      "start": 56.0046,
      "duration": 0.1576,
      "velocity": 122,
      "chip": "ym2612"
    },
    {
      "channel": 2,
      "note": 81,
      "start": 56.1651,
      "duration": 0.0571,
      "velocity": 125,
      "chip": "ym2612"
    },
    {
      "channel": 4,
      "note": 49,
      "start": 56.1686,
      "duration": 0.2336,
      "velocity": 95,
      "chip": "ym2612"
    },
    {
      "channel": 3,
      "note": 80,
      "start": 56.1718,
      "duration": 0.8574,
      "velocity": 90,
      "chip": "ym2612"
    },
    {
      "channel": 2,
      "note": 81,
      "start": 56.4052,
      "duration": 0.0371,
      "velocity": 125,
      "chip": "ym2612"
    },
    {
      "channel": 2,
      "note": 81,
      "start": 56.5451,
      "duration": 0.0573,
      "velocity": 125,
      "chip": "ym2612"
    },
    {
      "channel": 0,
      "note": 82,
      "start": 56.5479,
      "duration": 0.0541,
      "velocity": 127,
      "chip": "ym2612"
    },
    {
      "channel": 4,
      "note": 49,
      "start": 56.5511,
      "duration": 0.2511,
      "velocity": 95,
      "chip": "ym2612"
    },
    {
      "channel": 2,
      "note": 81,
      "start": 56.7855,
      "duration": 0.0167,
      "velocity": 125,
      "chip": "ym2612"
    },
    {
      "channel": 1,
      "note": 45,
      "start": 56.7884,
      "duration": 0.0537,
      "velocity": 99,
      "chip": "ym2612"
    },
    {
      "channel": 2,
      "note": 81,
      "start": 56.9052,
      "duration": 0.0309,
      "velocity": 125,
      "chip": "ym2612"
    },
    {
      "channel": 1,
      "note": 52,
      "start": 56.9082,
      "duration": 0.0519,
      "velocity": 99,
      "chip": "ym2612"
    },
    {
      "channel": 4,
      "note": 53,
      "start": 56.9156,
      "duration": 0.0862,
      "velocity": 95,
      "chip": "ym2612"
    },
    {
      "channel": 2,
      "note": 81,
      "start": 57.0143,
      "duration": 0.0151,
      "velocity": 125,
      "chip": "ym2612"
    },
    {
      "channel": 2,
      "note": 81,
      "start": 57.0742,
      "duration": 0.0312,
      "velocity": 125,
      "chip": "ym2612"
    },
    {
      "channel": 0,
      "note": 82,
      "start": 57.0766,
      "duration": 0.0285,
      "velocity": 127,
      "chip": "ym2612"
    },
    {
      "channel": 4,
      "note": 53,
      "start": 57.0804,
      "duration": 0.2249,
      "velocity": 95,
      "chip": "ym2612"
    },
    {
      "channel": 3,
      "note": 80,
      "start": 57.0839,
      "duration": 0.2014,
      "velocity": 90,
      "chip": "ym2612"
    },
    {
      "channel": 2,
      "note": 81,
      "start": 57.2884,
      "duration": 0.0171,
      "velocity": 125,
      "chip": "ym2612"
    },
    {
      "channel": 3,
      "note": 81,
      "start": 57.3099,
      "duration": 0.0753,
      "velocity": 90,
      "chip": "ym2612"
    },
    {
      "channel": 2,
      "note": 81,
      "start": 57.4082,
      "duration": 0.0571,
      "velocity": 125,
      "chip": "ym2612"
    },
    {
      "channel": 4,
      "note": 54,
      "start": 57.4116,
      "duration": 0.2137,
      "velocity": 95,
      "chip": "ym2612"
    },
    {
      "channel": 3,
      "note": 78,
      "start": 57.4149,
      "duration": 0.7103,
      "velocity": 90,
      "chip": "ym2612"
    },
    {
      "channel": 2,
      "note": 81,
      "start": 57.6487,
      "duration": 0.0367,
      "velocity": 125,
      "chip": "ym2612"
    },
    {
      "channel": 2,
      "note": 81,
      "start": 57.7882,
      "duration": 0.0573,
      "velocity": 125,
      "chip": "ym2612"
    },
    {
      "channel": 0,
      "note": 82,
      "start": 57.7907,
      "duration": 0.0544,
      "velocity": 127,
      "chip": "ym2612"
    },
    {
      "channel": 4,
      "note": 54,
      "start": 57.7939,
      "duration": 0.2916,
      "velocity": 95,
      "chip": "ym2612"
    },
    {
      "channel": 2,
      "note": 81,
      "start": 58.0283,
      "duration": 0.0171,
      "velocity": 125,
      "chip": "ym2612"
    },
    {
      "channel": 1,
      "note": 45,
      "start": 58.0317,
      "duration": 0.0535,
      "velocity": 99,
      "chip": "ym2612"
    },
    {
      "channel": 2,
      "note": 81,
      "start": 58.1482,
      "duration": 0.0572,
      "velocity": 125,
      "chip": "ym2612"
    },
    {
      "channel": 1,
      "note": 52,
      "start": 58.151,
      "duration": 0.0541,
      "velocity": 99,
      "chip": "ym2612"
    },
    {
      "channel": 4,
      "note": 57,
      "start": 58.1543,
      "duration": 0.2311,
      "velocity": 95,
      "chip": "ym2612"
    },
    {
      "channel": 3,
      "note": 73,
      "start": 58.1573,
      "duration": 0.708,
      "velocity": 90,
      "chip": "ym2612"
    },
    {
      "channel": 2,
      "note": 81,
      "start": 58.3884,
      "duration": 0.0369,
      "velocity": 125,
      "chip": "ym2612"
    },
    {
      "channel": 1,
      "note": 52,
      "start": 58.3912,
      "duration": 0.0539,
      "velocity": 99,
      "chip": "ym2612"
    },
    {
      "channel": 2,
      "note": 81,
      "start": 58.5288,
      "duration": 0.0567,
      "velocity": 125,
      "chip": "ym2612"
    },
    {
      "channel": 0,
      "note": 82,
      "start": 58.5312,
      "duration": 0.0539,
      "velocity": 127,
      "chip": "ym2612"
    },
    {
      "channel": 4,
      "note": 57,
      "start": 58.5344,
      "duration": 0.291,
      "velocity": 95,
      "chip": "ym2612"
    },
    {
      "channel": 2,
      "note": 81,
      "start": 58.7281,
      "duration": 0.1573,
      "velocity": 122,
      "chip": "ym2612"
    },
    {
      "channel": 2,
      "note": 81,
      "start": 58.8882,
      "duration": 0.0571,
      "velocity": 125,
      "chip": "ym2612"
    },
    {
      "channel": 4,
      "note": 49,
      "start": 58.8916,
      "duration": 0.2137,
      "velocity": 95,
      "chip": "ym2612"
    },
    {
      "channel": 3,
      "note": 77,
      "start": 58.8949,
      "duration": 0.9704,
      "velocity": 90,
      "chip": "ym2612"
    },
    {
      "channel": 2,
      "note": 81,
      "start": 59.1283,
      "duration": 0.0371,
      "velocity": 125,
      "chip": "ym2612"
    },
    {
      "channel": 2,
      "note": 81,
      "start": 59.2683,
      "duration": 0.0571,
      "velocity": 125,
      "chip": "ym2612"
    },
    {
      "channel": 0,
      "note": 82,
      "start": 59.2708,
      "duration": 0.0543,
      "velocity": 127,
      "chip": "ym2612"
    },
    {
      "channel": 4,
      "note": 49,
      "start": 59.2739,
      "duration": 0.2314,
      "velocity": 95,
      "chip": "ym2612"
    },
    {
      "channel": 2,
      "note": 81,
      "start": 59.5084,
      "duration": 0.0169,
      "velocity": 125,
      "chip": "ym2612"
    },
    {
      "channel": 1,
      "note": 45,
      "start": 59.5112,
      "duration": 0.054,
      "velocity": 99,
      "chip": "ym2612"
    },
    {
      "channel": 2,
      "note": 81,
      "start": 59.6284,
      "duration": 0.0571,
      "velocity": 125,
      "chip": "ym2612"
    },
    {
      "channel": 1,
      "note": 52,
      "start": 59.6313,
      "duration": 0.1139,
      "velocity": 99,
      "chip": "ym2612"
    },
    {
      "channel": 4,
      "note": 49,
      "start": 59.6344,
      "duration": 0.2309,
      "velocity": 95,
      "chip": "ym2612"
    },
    {
      "channel": 2,
      "note": 81,
      "start": 59.8688,
      "duration": 0.0366,
      "velocity": 125,
      "chip": "ym2612"
    },
    {
      "channel": 2,
      "note": 81,
      "start": 60.0082,
      "duration": 0.0573,
      "velocity": 125,
      "chip": "ym2612"
    },
    {
      "channel": 0,
      "note": 82,
      "start": 60.0108,
      "duration": 0.0543,
      "velocity": 127,
      "chip": "ym2612"
    },
    {
      "channel": 4,
      "note": 49,
      "start": 60.0145,
      "duration": 0.0508,
      "velocity": 95,
      "chip": "ym2612"
    },
    {
      "channel": 3,
      "note": 77,
      "start": 60.0178,
      "duration": 0.1875,
      "velocity": 90,
      "chip": "ym2612"
    },
    {
      "channel": 2,
      "note": 81,
      "start": 60.2482,
      "duration": 0.0172,
      "velocity": 125,
      "chip": "ym2612"
    },
    {
      "channel": 4,
      "note": 49,
      "start": 60.2693,
      "duration": 0.0762,
      "velocity": 95,
      "chip": "ym2612"
    },
    {
      "channel": 3,
      "note": 78,
      "start": 60.2729,
      "duration": 0.0724,
      "velocity": 90,
      "chip": "ym2612"
    },
    {
      "channel": 2,
      "note": 81,
      "start": 60.3682,
      "duration": 0.0571,
      "velocity": 125,
      "chip": "ym2612"
    },
    {
      "channel": 4,
      "note": 49,
      "start": 60.3718,
      "duration": 0.2336,
      "velocity": 95,
      "chip": "ym2612"
    },
    {
      "channel": 3,
      "note": 80,
      "start": 60.3751,
      "duration": 1.0502,
      "velocity": 90,
      "chip": "ym2612"
    },
    {
      "channel": 2,
      "note": 81,
      "start": 60.6084,
      "duration": 0.037,
      "velocity": 125,
      "chip": "ym2612"
    },
    {
      "channel": 2,
      "note": 81,
      "start": 60.7488,
      "duration": 0.0567,
      "velocity": 125,
      "chip": "ym2612"
    },
    {
      "channel": 0,
      "note": 82,
      "start": 60.7512,
      "duration": 0.0539,
      "velocity": 127,
      "chip": "ym2612"
    },
    {
      "channel": 4,
      "note": 49,
      "start": 60.7542,
      "duration": 0.2311,
      "velocity": 95,
      "chip": "ym2612"
    },
    {
      "channel": 2,
      "note": 81,
      "start": 60.9884,
      "duration": 0.0169,
      "velocity": 125,
      "chip": "ym2612"
    },
    {
      "channel": 1,
      "note": 45,
      "start": 60.9914,
      "duration": 0.0539,
      "velocity": 99,
      "chip": "ym2612"
    },
    {
      "channel": 2,
      "note": 81,
      "start": 61.1083,
      "duration": 0.0571,
      "velocity": 125,
      "chip": "ym2612"
    },
    {
      "channel": 1,
      "note": 52,
      "start": 61.1112,
      "duration": 0.054,
      "velocity": 99,
      "chip": "ym2612"
    },
    {
      "channel": 4,
      "note": 49,
      "start": 61.1142,
      "duration": 0.2311,
      "velocity": 95,
      "chip": "ym2612"
    },
    {
      "channel": 2,
      "note": 81,
      "start": 61.3279,
      "duration": 0.1574,
      "velocity": 122,
      "chip": "ym2612"
    },
    {
      "channel": 1,
      "note": 52,
      "start": 61.3496,
      "duration": 0.0756,
      "velocity": 99,
      "chip": "ym2612"
    },
    {
      "channel": 2,
      "note": 81,
      "start": 61.4881,
      "duration": 0.0575,
      "velocity": 125,
      "chip": "ym2612"
    },
    {
      "channel": 0,
      "note": 82,
      "start": 61.4906,
      "duration": 0.0546,
      "velocity": 127,
      "chip": "ym2612"
    },
    {
      "channel": 5,
      "note": 85,
      "start": 61.4939,
      "duration": 0.1916,
      "velocity": 98,
      "chip": "ym2612"
    },
    {
      "channel": 4,
      "note": 49,
      "start": 61.497,
      "duration": 0.0484,
      "velocity": 95,
      "chip": "ym2612"
    },
    {
      "channel": 3,
      "note": 85,
      "start": 61.5002,
      "duration": 0.1851,
      "velocity": 90,
      "chip": "ym2612"
    },
    {
      "channel": 2,
      "note": 81,
      "start": 61.6882,
      "duration": 0.1572,
      "velocity": 122,
      "chip": "ym2612"
    },
    {
      "channel": 5,
      "note": 89,
      "start": 61.7498,
      "duration": 0.0756,
      "velocity": 98,
      "chip": "ym2612"
    },
    {
      "channel": 4,
      "note": 49,
      "start": 61.7528,
      "duration": 0.0726,
      "velocity": 95,
      "chip": "ym2612"
    },
    {
      "channel": 3,
      "note": 89,
      "start": 61.756,
      "duration": 0.0692,
      "velocity": 90,
      "chip": "ym2612"
    },
    {
      "channel": 2,
      "note": 81,
      "start": 61.8483,
      "duration": 0.3371,
      "velocity": 122,
      "chip": "ym2612"
    },
    {
      "channel": 5,
      "note": 92,
      "start": 61.8518,
      "duration": 0.9537,
      "velocity": 98,
      "chip": "ym2612"
    },
    {
      "channel": 4,
      "note": 49,
      "start": 61.8553,
      "duration": 0.33,
      "velocity": 95,
      "chip": "ym2612"
    },
    {
      "channel": 3,
      "note": 92,
      "start": 61.8585,
      "duration": 0.9468,
      "velocity": 90,
      "chip": "ym2612"
    },
    {
      "channel": 1,
      "note": 100,
      "start": 62.1985,
      "duration": 0.2267,
      "velocity": 94,
      "chip": "ym2612"
    },
    {
      "channel": 2,
      "note": 81,
      "start": 62.2283,
      "duration": 0.0772,
      "velocity": 125,
      "chip": "ym2612"
    },
    {
      "channel": 0,
      "note": 82,
      "start": 62.2309,
      "duration": 0.0544,
      "velocity": 127,
      "chip": "ym2612"
    },
    {
      "channel": 4,
      "note": 53,
      "start": 62.2339,
      "duration": 0.3316,
      "velocity": 95,
      "chip": "ym2612"
    },
    {
      "channel": 1,
      "note": 104,
      "start": 62.4314,
      "duration": 0.9539,
      "velocity": 94,
      "chip": "ym2612"
    },
    {
      "channel": 2,
      "note": 81,
      "start": 62.4684,
      "duration": 0.0573,
      "velocity": 125,
      "chip": "ym2612"
    },
    {
      "channel": 0,
      "note": 45,
      "start": 62.4714,
      "duration": 0.0539,
      "velocity": 99,
      "chip": "ym2612"
    },
    {
      "channel": 2,
      "note": 81,
      "start": 62.588,
      "duration": 0.3374,
      "velocity": 122,
      "chip": "ym2612"
    },
    {
      "channel": 0,
      "note": 52,
      "start": 62.591,
      "duration": 0.1141,
      "velocity": 99,
      "chip": "ym2612"
    },
    {
      "channel": 4,
      "note": 56,
      "start": 62.5943,
      "duration": 0.3111,
      "velocity": 95,
      "chip": "ym2612"
    },
    {
      "channel": 2,
      "note": 81,
      "start": 62.9686,
      "duration": 0.0569,
      "velocity": 125,
      "chip": "ym2612"
    },
    {
      "channel": 0,
      "note": 82,
      "start": 62.9714,
      "duration": 0.0539,
      "velocity": 127,
      "chip": "ym2612"
    },
    {
      "channel": 5,
      "note": 92,
      "start": 62.9746,
      "duration": 0.2311,
      "velocity": 98,
      "chip": "ym2612"
    },
    {
      "channel": 4,
      "note": 57,
      "start": 62.9776,
      "duration": 0.0678,
      "velocity": 95,
      "chip": "ym2612"
    },
    {
      "channel": 3,
      "note": 92,
      "start": 62.9809,
      "duration": 0.2245,
      "velocity": 90,
      "chip": "ym2612"
    },
    {
      "channel": 2,
      "note": 81,
      "start": 63.2085,
      "duration": 0.057,
      "velocity": 125,
      "chip": "ym2612"
    },
    {
      "channel": 5,
      "note": 93,
      "start": 63.2492,
      "duration": 0.0563,
      "velocity": 98,
      "chip": "ym2612"
    },
    {
      "channel": 4,
      "note": 57,
      "start": 63.2523,
      "duration": 0.0532,
      "velocity": 95,
      "chip": "ym2612"
    },
    {
      "channel": 3,
      "note": 93,
      "start": 63.2559,
      "duration": 0.0493,
      "velocity": 90,
      "chip": "ym2612"
    },
    {
      "channel": 2,
      "note": 81,
      "start": 63.328,
      "duration": 0.3375,
      "velocity": 122,
      "chip": "ym2612"
    },
    {
      "channel": 5,
      "note": 90,
      "start": 63.3314,
      "duration": 0.714,
      "velocity": 98,
      "chip": "ym2612"
    },
    {
      "channel": 4,
      "note": 54,
      "start": 63.3346,
      "duration": 0.3307,
      "velocity": 95,
      "chip": "ym2612"
    },
    {
      "channel": 3,
      "note": 90,
      "start": 63.3378,
      "duration": 0.7073,
      "velocity": 90,
      "chip": "ym2612"
    },
    {
      "channel": 2,
      "note": 81,
      "start": 63.7084,
      "duration": 0.0771,
      "velocity": 125,
      "chip": "ym2612"
    },
    {
      "channel": 0,
      "note": 82,
      "start": 63.7109,
      "duration": 0.0543,
      "velocity": 127,
      "chip": "ym2612"
    },
    {
      "channel": 4,
      "note": 49,
      "start": 63.7139,
      "duration": 0.3315,
      "velocity": 95,
      "chip": "ym2612"
    },
    {
      "channel": 2,
      "note": 81,
      "start": 63.9483,
      "duration": 0.0572,
      "velocity": 125,
      "chip": "ym2612"
    },
    {
      "channel": 1,
      "note": 45,
      "start": 63.9515,
      "duration": 0.0537,
      "velocity": 99,
      "chip": "ym2612"
    },
    {
      "channel": 2,
      "note": 81,
      "start": 64.0682,
      "duration": 0.3372,
      "velocity": 122,
      "chip": "ym2612"
    },
    {
      "channel": 1,
      "note": 52,
      "start": 64.0711,
      "duration": 0.0541,
      "velocity": 99,
      "chip": "ym2612"
    },
    {
      "channel": 5,
      "note": 85,
      "start": 64.0741,
      "duration": 0.7113,
      "velocity": 98,
      "chip": "ym2612"
    },
    {
      "channel": 4,
      "note": 52,
      "start": 64.0769,
      "duration": 0.3284,
      "velocity": 95,
      "chip": "ym2612"
    },
    {
      "channel": 3,
      "note": 85,
      "start": 64.0798,
      "duration": 0.7054,
      "velocity": 90,
      "chip": "ym2612"
    },
    {
      "channel": 1,
      "note": 52,
      "start": 64.3086,
      "duration": 0.0766,
      "velocity": 99,
      "chip": "ym2612"
    },
    {
      "channel": 2,
      "note": 81,
      "start": 64.448,
      "duration": 0.0575,
      "velocity": 125,
      "chip": "ym2612"
    },
    {
      "channel": 0,
      "note": 82,
      "start": 64.4506,
      "duration": 0.0546,
      "velocity": 127,
      "chip": "ym2612"
    },
    {
      "channel": 4,
      "note": 54,
      "start": 64.4541,
      "duration": 0.2711,
      "velocity": 95,
      "chip": "ym2612"
    },
    {
      "channel": 2,
      "note": 81,
      "start": 64.688,
      "duration": 0.0573,
      "velocity": 125,
      "chip": "ym2612"
    },
    {
      "channel": 2,
      "note": 81,
      "start": 64.8078,
      "duration": 0.3377,
      "velocity": 122,
      "chip": "ym2612"
    },
    {
      "channel": 5,
      "note": 92,
      "start": 64.8117,
      "duration": 0.9937,
      "velocity": 98,
      "chip": "ym2612"
    },
    {
      "channel": 4,
      "note": 49,
      "start": 64.8147,
      "duration": 0.3307,
      "velocity": 95,
      "chip": "ym2612"
    },
    {
      "channel": 3,
      "note": 92,
      "start": 64.818,
      "duration": 0.9872,
      "velocity": 90,
      "chip": "ym2612"
    },
    {
      "channel": 1,
      "note": 100,
      "start": 65.158,
      "duration": 0.2273,
      "velocity": 94,
      "chip": "ym2612"
    },
    {
      "channel": 2,
      "note": 81,
      "start": 65.1892,
      "duration": 0.0763,
      "velocity": 125,
      "chip": "ym2612"
    },
    {
      "channel": 0,
      "note": 82,
      "start": 65.1917,
      "duration": 0.0536,
      "velocity": 127,
      "chip": "ym2612"
    },
    {
      "channel": 4,
      "note": 53,
      "start": 65.1948,
      "duration": 0.2907,
      "velocity": 95,
      "chip": "ym2612"
    },
    {
      "channel": 1,
      "note": 104,
      "start": 65.3916,
      "duration": 0.9537,
      "velocity": 94,
      "chip": "ym2612"
    },
    {
      "channel": 2,
      "note": 81,
      "start": 65.4284,
      "duration": 0.0573,
      "velocity": 125,
      "chip": "ym2612"
    },
    {
      "channel": 0,
      "note": 45,
      "start": 65.4314,
      "duration": 0.0538,
      "velocity": 99,
      "chip": "ym2612"
    },
    {
      "channel": 2,
      "note": 81,
      "start": 65.548,
      "duration": 0.3375,
      "velocity": 122,
      "chip": "ym2612"
    },
    {
      "channel": 0,
      "note": 52,
      "start": 65.5514,
      "duration": 0.1139,
      "velocity": 99,
      "chip": "ym2612"
    },
    {
      "channel": 4,
      "note": 56,
      "start": 65.5544,
      "duration": 0.311,
      "velocity": 95,
      "chip": "ym2612"
    },
    {
      "channel": 2,
      "note": 81,
      "start": 65.9282,
      "duration": 0.0573,
      "velocity": 125,
      "chip": "ym2612"
    },
    {
      "channel": 0,
      "note": 82,
      "start": 65.931,
      "duration": 0.0541,
      "velocity": 127,
      "chip": "ym2612"
    },
    {
      "channel": 5,
      "note": 92,
      "start": 65.9342,
      "duration": 0.2315,
      "velocity": 98,
      "chip": "ym2612"
    },
    {
      "channel": 4,
      "note": 57,
      "start": 65.9373,
      "duration": 0.0682,
      "velocity": 95,
      "chip": "ym2612"
    },
    {
      "channel": 3,
      "note": 92,
      "start": 65.9405,
      "duration": 0.2249,
      "velocity": 90,
      "chip": "ym2612"
    },
    {
      "channel": 2,
      "note": 81,
      "start": 66.1685,
      "duration": 0.0569,
      "velocity": 125,
      "chip": "ym2612"
    },
    {
      "channel": 5,
      "note": 93,
      "start": 66.2093,
      "duration": 0.0564,
      "velocity": 98,
      "chip": "ym2612"
    },
    {
      "channel": 4,
      "note": 57,
      "start": 66.2123,
      "duration": 0.0532,
      "velocity": 95,
      "chip": "ym2612"
    },
    {
      "channel": 3,
      "note": 93,
      "start": 66.2156,
      "duration": 0.0498,
      "velocity": 90,
      "chip": "ym2612"
    },
    {
      "channel": 2,
      "note": 81,
      "start": 66.2879,
      "duration": 0.3376,
      "velocity": 122,
      "chip": "ym2612"
    },
    {
      "channel": 5,
      "note": 95,
      "start": 66.2914,
      "duration": 0.5741,
      "velocity": 98,
      "chip": "ym2612"
    },
    {
      "channel": 4,
      "note": 54,
      "start": 66.2946,
      "duration": 0.3308,
      "velocity": 95,
      "chip": "ym2612"
    },
    {
      "channel": 3,
      "note": 95,
      "start": 66.2982,
      "duration": 0.5671,
      "velocity": 90,
      "chip": "ym2612"
    },
    {
      "channel": 2,
      "note": 81,
      "start": 66.6682,
      "duration": 0.0771,
      "velocity": 125,
      "chip": "ym2612"
    },
    {
      "channel": 0,
      "note": 82,
      "start": 66.6708,
      "duration": 0.0543,
      "velocity": 127,
      "chip": "ym2612"
    },
    {
      "channel": 4,
      "note": 49,
      "start": 66.6738,
      "duration": 0.3316,
      "velocity": 95,
      "chip": "ym2612"
    },
    {
      "channel": 5,
      "note": 93,
      "start": 66.8694,
      "duration": 0.036,
      "velocity": 98,
      "chip": "ym2612"
    },
    {
      "channel": 3,
      "note": 93,
      "start": 66.8729,
      "duration": 0.0323,
      "velocity": 90,
      "chip": "ym2612"
    },
    {
      "channel": 2,
      "note": 81,
      "start": 66.9084,
      "duration": 0.0571,
      "velocity": 125,
      "chip": "ym2612"
    },
    {
      "channel": 1,
      "note": 45,
      "start": 66.9117,
      "duration": 0.0535,
      "velocity": 99,
      "chip": "ym2612"
    },
    {
      "channel": 5,
      "note": 92,
      "start": 66.9496,
      "duration": 0.056,
      "velocity": 98,
      "chip": "ym2612"
    },
    {
      "channel": 3,
      "note": 92,
      "start": 66.9531,
      "duration": 0.0522,
      "velocity": 90,
      "chip": "ym2612"
    },
    {
      "channel": 2,
      "note": 81,
      "start": 67.0278,
      "duration": 0.3378,
      "velocity": 122,
      "chip": "ym2612"
    },
    {
      "channel": 1,
      "note": 52,
      "start": 67.0308,
      "duration": 0.0544,
      "velocity": 99,
      "chip": "ym2612"
    },
    {
      "channel": 5,
      "note": 93,
      "start": 67.0341,
      "duration": 0.3314,
      "velocity": 98,
      "chip": "ym2612"
    },
    {
      "channel": 4,
      "note": 57,
      "start": 67.0372,
      "duration": 0.3282,
      "velocity": 95,
      "chip": "ym2612"
    },
    {
      "channel": 3,
      "note": 93,
      "start": 67.0405,
      "duration": 0.3247,
      "velocity": 90,
      "chip": "ym2612"
    },
    {
      "channel": 1,
      "note": 52,
      "start": 67.2887,
      "duration": 0.0565,
      "velocity": 99,
      "chip": "ym2612"
    },
    {
      "channel": 2,
      "note": 81,
      "start": 67.408,
      "duration": 0.0574,
      "velocity": 125,
      "chip": "ym2612"
    },
    {
      "channel": 0,
      "note": 82,
      "start": 67.4105,
      "duration": 0.0546,
      "velocity": 127,
      "chip": "ym2612"
    },
    {
      "channel": 5,
      "note": 95,
      "start": 67.4134,
      "duration": 0.3321,
      "velocity": 98,
      "chip": "ym2612"
    },
    {
      "channel": 4,
      "note": 54,
      "start": 67.4163,
      "duration": 0.269,
      "velocity": 95,
      "chip": "ym2612"
    },
    {
      "channel": 3,
      "note": 95,
      "start": 67.4193,
      "duration": 0.326,
      "velocity": 90,
      "chip": "ym2612"
    },
    {
      "channel": 2,
      "note": 81,
      "start": 67.6484,
      "duration": 0.0571,
      "velocity": 125,
      "chip": "ym2612"
    },
    {
      "channel": 2,
      "note": 81,
      "start": 67.7678,
      "duration": 0.3376,
      "velocity": 122,
      "chip": "ym2612"
    },
    {
      "channel": 5,
      "note": 92,
      "start": 67.7714,
      "duration": 0.9542,
      "velocity": 98,
      "chip": "ym2612"
    },
    {
      "channel": 4,
      "note": 49,
      "start": 67.7743,
      "duration": 0.3111,
      "velocity": 95,
      "chip": "ym2612"
    },
    {
      "channel": 3,
      "note": 92,
      "start": 67.7776,
      "duration": 0.9477,
      "velocity": 90,
      "chip": "ym2612"
    },
    {
      "channel": 2,
      "note": 81,
      "start": 68.1484,
      "duration": 0.0771,
      "velocity": 125,
      "chip": "ym2612"
    },
    {
      "channel": 0,
      "note": 82,
      "start": 68.1512,
      "duration": 0.054,
      "velocity": 127,
      "chip": "ym2612"
    },
    {
      "channel": 4,
      "note": 53,
      "start": 68.1562,
      "duration": 0.3292,
      "velocity": 95,
      "chip": "ym2612"
    },
    {
      "channel": 1,
      "note": 100,
      "start": 68.1657,
      "duration": 0.2196,
      "velocity": 94,
      "chip": "ym2612"
    },
    {
      "channel": 2,
      "note": 81,
      "start": 68.3885,
      "duration": 0.0571,
      "velocity": 125,
      "chip": "ym2612"
    },
    {
      "channel": 0,
      "note": 45,
      "start": 68.3916,
      "duration": 0.0537,
      "velocity": 99,
      "chip": "ym2612"
    },
    {
      "channel": 1,
      "note": 104,
      "start": 68.3969,
      "duration": 0.9484,
      "velocity": 94,
      "chip": "ym2612"
    },
    {
      "channel": 2,
      "note": 81,
      "start": 68.5079,
      "duration": 0.3376,
      "velocity": 122,
      "chip": "ym2612"
    },
    {
      "channel": 0,
      "note": 52,
      "start": 68.511,
      "duration": 0.1143,
      "velocity": 99,
      "chip": "ym2612"
    },
    {
      "channel": 4,
      "note": 56,
      "start": 68.5142,
      "duration": 0.3111,
      "velocity": 95,
      "chip": "ym2612"
    },
    {
      "channel": 2,
      "note": 81,
      "start": 68.8882,
      "duration": 0.0573,
      "velocity": 125,
      "chip": "ym2612"
    },
    {
      "channel": 0,
      "note": 82,
      "start": 68.891,
      "duration": 0.0541,
      "velocity": 127,
      "chip": "ym2612"
    },
    {
      "channel": 5,
      "note": 92,
      "start": 68.8942,
      "duration": 0.2312,
      "velocity": 98,
      "chip": "ym2612"
    },
    {
      "channel": 4,
      "note": 57,
      "start": 68.8973,
      "duration": 0.068,
      "velocity": 95,
      "chip": "ym2612"
    },
    {
      "channel": 3,
      "note": 92,
      "start": 68.901,
      "duration": 0.2244,
      "velocity": 90,
      "chip": "ym2612"
    },
    {
      "channel": 2,
      "note": 81,
      "start": 69.1283,
      "duration": 0.0572,
      "velocity": 125,
      "chip": "ym2612"
    },
    {
      "channel": 5,
      "note": 93,
      "start": 69.1693,
      "duration": 0.0563,
      "velocity": 98,
      "chip": "ym2612"
    },
    {
      "channel": 4,
      "note": 57,
      "start": 69.1724,
      "duration": 0.053,
      "velocity": 95,
      "chip": "ym2612"
    },
    {
      "channel": 3,
      "note": 93,
      "start": 69.1756,
      "duration": 0.0496,
      "velocity": 90,
      "chip": "ym2612"
    },
    {
      "channel": 2,
      "note": 81,
      "start": 69.2479,
      "duration": 0.3376,
      "velocity": 122,
      "chip": "ym2612"
    },
    {
      "channel": 5,
      "note": 90,
      "start": 69.2518,
      "duration": 0.7137,
      "velocity": 98,
      "chip": "ym2612"
    },
    {
      "channel": 4,
      "note": 54,
      "start": 69.2553,
      "duration": 0.3301,
      "velocity": 95,
      "chip": "ym2612"
    },
    {
      "channel": 3,
      "note": 90,
      "start": 69.2586,
      "duration": 0.7066,
      "velocity": 90,
      "chip": "ym2612"
    },
    {
      "channel": 2,
      "note": 81,
      "start": 69.6282,
      "duration": 0.0771,
      "velocity": 125,
      "chip": "ym2612"
    },
    {
      "channel": 0,
      "note": 82,
      "start": 69.6307,
      "duration": 0.0544,
      "velocity": 127,
      "chip": "ym2612"
    },
    {
      "channel": 4,
      "note": 49,
      "start": 69.6337,
      "duration": 0.3316,
      "velocity": 95,
      "chip": "ym2612"
    },
    {
      "channel": 2,
      "note": 81,
      "start": 69.8687,
      "duration": 0.0569,
      "velocity": 125,
      "chip": "ym2612"
    },
    {
      "channel": 1,
      "note": 45,
      "start": 69.8723,
      "duration": 0.053,
      "velocity": 99,
      "chip": "ym2612"
    },
    {
      "channel": 2,
      "note": 81,
      "start": 69.9878,
      "duration": 0.3376,
      "velocity": 122,
      "chip": "ym2612"
    },
    {
      "channel": 1,
      "note": 52,
      "start": 69.9908,
      "duration": 0.0544,
      "velocity": 99,
      "chip": "ym2612"
    },
    {
      "channel": 5,
      "note": 85,
      "start": 69.9937,
      "duration": 0.7116,
      "velocity": 98,
      "chip": "ym2612"
    },
    {
      "channel": 4,
      "note": 52,
      "start": 69.9966,
      "duration": 0.3287,
      "velocity": 95,
      "chip": "ym2612"
    },
    {
      "channel": 3,
      "note": 85,
      "start": 69.9995,
      "duration": 0.7057,
      "velocity": 90,
      "chip": "ym2612"
    },
    {
      "channel": 1,
      "note": 52,
      "start": 70.2486,
      "duration": 0.0565,
      "velocity": 99,
      "chip": "ym2612"
    },
    {
      "channel": 2,
      "note": 81,
      "start": 70.3682,
      "duration": 0.0572,
      "velocity": 125,
      "chip": "ym2612"
    },
    {
      "channel": 0,
      "note": 82,
      "start": 70.3707,
      "duration": 0.0544,
      "velocity": 127,
      "chip": "ym2612"
    },
    {
      "channel": 4,
      "note": 54,
      "start": 70.3738,
      "duration": 0.2714,
      "velocity": 95,
      "chip": "ym2612"
    },
    {
      "channel": 2,
      "note": 81,
      "start": 70.6082,
      "duration": 0.0572,
      "velocity": 125,
      "chip": "ym2612"
    },
    {
      "channel": 2,
      "note": 81,
      "start": 70.7279,
      "duration": 0.3375,
      "velocity": 122,
      "chip": "ym2612"
    },
    {
      "channel": 5,
      "note": 89,
      "start": 70.7314,
      "duration": 0.9941,
      "velocity": 98,
      "chip": "ym2612"
    },
    {
      "channel": 4,
      "note": 49,
      "start": 70.7344,
      "duration": 0.3309,
      "velocity": 95,
      "chip": "ym2612"
    },
    {
      "channel": 3,
      "note": 89,
      "start": 70.7376,
      "duration": 0.9877,
      "velocity": 90,
      "chip": "ym2612"
    },
    {
      "channel": 2,
      "note": 81,
      "start": 71.1083,
      "duration": 0.0771,
      "velocity": 125,
      "chip": "ym2612"
    },
    {
      "channel": 0,
      "note": 82,
      "start": 71.1109,
      "duration": 0.0544,
      "velocity": 127,
      "chip": "ym2612"
    },
    {
      "channel": 4,
      "note": 53,
      "start": 71.1156,
      "duration": 0.3298,
      "velocity": 95,
      "chip": "ym2612"
    },
    {
      "channel": 1,
      "note": 100,
      "start": 71.1252,
      "duration": 0.2201,
      "velocity": 94,
      "chip": "ym2612"
    },
    {
      "channel": 2,
      "note": 81,
      "start": 71.3484,
      "duration": 0.0572,
      "velocity": 125,
      "chip": "ym2612"
    },
    {
      "channel": 0,
      "note": 45,
      "start": 71.3516,
      "duration": 0.0537,
      "velocity": 99,
      "chip": "ym2612"
    },
    {
      "channel": 1,
      "note": 104,
      "start": 71.3569,
      "duration": 0.9483,
      "velocity": 94,
      "chip": "ym2612"
    },
    {
      "channel": 2,
      "note": 81,
      "start": 71.4678,
      "duration": 0.3377,
      "velocity": 122,
      "chip": "ym2612"
    },
    {
      "channel": 0,
      "note": 52,
      "start": 71.471,
      "duration": 0.1142,
      "velocity": 99,
      "chip": "ym2612"
    },
    {
      "channel": 4,
      "note": 56,
      "start": 71.4742,
      "duration": 0.3112,
      "velocity": 95,
      "chip": "ym2612"
    },
    {
      "channel": 2,
      "note": 81,
      "start": 71.8482,
      "duration": 0.0574,
      "velocity": 125,
      "chip": "ym2612"
    },
    {
      "channel": 0,
      "note": 82,
      "start": 71.8509,
      "duration": 0.0544,
      "velocity": 127,
      "chip": "ym2612"
    },
    {
      "channel": 5,
      "note": 89,
      "start": 71.8541,
      "duration": 0.2114,
      "velocity": 98,
      "chip": "ym2612"
    },
    {
      "channel": 4,
      "note": 57,
      "start": 71.8572,
      "duration": 0.0682,
      "velocity": 95,
      "chip": "ym2612"
    },
    {
      "channel": 3,
      "note": 89,
      "start": 71.8605,
      "duration": 0.2049,
      "velocity": 90,
      "chip": "ym2612"
    },
    {
      "channel": 2,
      "note": 81,
      "start": 72.0882,
      "duration": 0.0573,
      "velocity": 125,
      "chip": "ym2612"
    },
    {
      "channel": 5,
      "note": 90,
      "start": 72.1294,
      "duration": 0.0562,
      "velocity": 98,
      "chip": "ym2612"
    },
    {
      "channel": 4,
      "note": 57,
      "start": 72.1328,
      "duration": 0.0526,
      "velocity": 95,
      "chip": "ym2612"
    },
    {
      "channel": 3,
      "note": 90,
      "start": 72.1365,
      "duration": 0.0488,
      "velocity": 90,
      "chip": "ym2612"
    },
    {
      "channel": 2,
      "note": 81,
      "start": 72.208,
      "duration": 0.3374,
      "velocity": 122,
      "chip": "ym2612"
    },
    {
      "channel": 5,
      "note": 92,
      "start": 72.2114,
      "duration": 0.7141,
      "velocity": 98,
      "chip": "ym2612"
    },
    {
      "channel": 4,
      "note": 56,
      "start": 72.2146,
      "duration": 0.3307,
      "velocity": 95,
      "chip": "ym2612"
    },
    {
      "channel": 3,
      "note": 92,
      "start": 72.2178,
      "duration": 0.7073,
      "velocity": 90,
      "chip": "ym2612"
    },
    {
      "channel": 2,
      "note": 81,
      "start": 72.5887,
      "duration": 0.0767,
      "velocity": 125,
      "chip": "ym2612"
    },
    {
      "channel": 0,
      "note": 82,
      "start": 72.5912,
      "duration": 0.054,
      "velocity": 127,
      "chip": "ym2612"
    },
    {
      "channel": 4,
      "note": 53,
      "start": 72.5941,
      "duration": 0.3312,
      "velocity": 95,
      "chip": "ym2612"
    },
    {
      "channel": 2,
      "note": 81,
      "start": 72.8283,
      "duration": 0.0572,
      "velocity": 125,
      "chip": "ym2612"
    },
    {
      "channel": 1,
      "note": 45,
      "start": 72.8315,
      "duration": 0.0537,
      "velocity": 99,
      "chip": "ym2612"
    },
    {
      "channel": 2,
      "note": 81,
      "start": 72.9481,
      "duration": 0.3373,
      "velocity": 122,
      "chip": "ym2612"
    },
    {
      "channel": 1,
      "note": 52,
      "start": 72.951,
      "duration": 0.0541,
      "velocity": 99,
      "chip": "ym2612"
    },
    {
      "channel": 5,
      "note": 85,
      "start": 72.9547,
      "duration": 0.7107,
      "velocity": 98,
      "chip": "ym2612"
    },
    {
      "channel": 4,
      "note": 61,
      "start": 72.9575,
      "duration": 0.3277,
      "velocity": 95,
      "chip": "ym2612"
    },
    {
      "channel": 3,
      "note": 85,
      "start": 72.9605,
      "duration": 0.7047,
      "velocity": 90,
      "chip": "ym2612"
    },
    {
      "channel": 1,
      "note": 52,
      "start": 73.209,
      "duration": 0.0562,
      "velocity": 99,
      "chip": "ym2612"
    },
    {
      "channel": 2,
      "note": 81,
      "start": 73.328,
      "duration": 0.0574,
      "velocity": 125,
      "chip": "ym2612"
    },
    {
      "channel": 0,
      "note": 82,
      "start": 73.3306,
      "duration": 0.0545,
      "velocity": 127,
      "chip": "ym2612"
    },
    {
      "channel": 4,
      "note": 56,
      "start": 73.3338,
      "duration": 0.2714,
      "velocity": 95,
      "chip": "ym2612"
    },
    {
      "channel": 2,
      "note": 81,
      "start": 73.5682,
      "duration": 0.0572,
      "velocity": 125,
      "chip": "ym2612"
    },
    {
      "channel": 4,
      "note": 54,
      "start": 73.6896,
      "duration": 5.8958,
      "velocity": 95,
      "chip": "ym2612"
    },
    {
      "channel": 3,
      "note": 78,
      "start": 73.6929,
      "duration": 0.0523,
      "velocity": 90,
      "chip": "ym2612"
    },
    {
      "channel": 3,
      "note": 80,
      "start": 73.7497,
      "duration": 0.0956,
      "velocity": 90,
      "chip": "ym2612"
    },
    {
      "channel": 3,
      "note": 66,
      "start": 73.8505,
      "duration": 5.7348,
      "velocity": 90,
      "chip": "ym2612"
    },
    {
      "channel": 0,
      "note": 82,
      "start": 74.0682,
      "duration": 0.0569,
      "velocity": 127,
      "chip": "ym2612"
    },
    {
      "channel": 1,
      "note": 45,
      "start": 74.3085,
      "duration": 0.0566,
      "velocity": 99,
      "chip": "ym2612"
    },
    {
      "channel": 1,
      "note": 52,
      "start": 74.4288,
      "duration": 0.1164,
      "velocity": 99,
      "chip": "ym2612"
    },
    {
      "channel": 0,
      "note": 82,
      "start": 74.8083,
      "duration": 0.0568,
      "velocity": 127,
      "chip": "ym2612"
    },
    {
      "channel": 0,
      "note": 82,
      "start": 75.5482,
      "duration": 0.0569,
      "velocity": 127,
      "chip": "ym2612"
    },
    {
      "channel": 1,
      "note": 45,
      "start": 75.7888,
      "duration": 0.0563,
      "velocity": 99,
      "chip": "ym2612"
    },
    {
      "channel": 1,
      "note": 52,
      "start": 75.9086,
      "duration": 0.0566,
      "velocity": 99,
      "chip": "ym2612"
    },
    {
      "channel": 1,
      "note": 52,
      "start": 76.1686,
      "duration": 0.0566,
      "velocity": 99,
      "chip": "ym2612"
    },
    {
      "channel": 0,
      "note": 82,
      "start": 76.2882,
      "duration": 0.0569,
      "velocity": 127,
      "chip": "ym2612"
    },
    {
      "channel": 2,
      "note": 100,
      "start": 76.4787,
      "duration": 0.2268,
      "velocity": 94,
      "chip": "ym2612"
    },
    {
      "channel": 2,
      "note": 104,
      "start": 76.7118,
      "duration": 0.9537,
      "velocity": 94,
      "chip": "ym2612"
    },
    {
      "channel": 0,
      "note": 82,
      "start": 77.0283,
      "duration": 0.0571,
      "velocity": 127,
      "chip": "ym2612"
    },
    {
      "channel": 1,
      "note": 45,
      "start": 77.2688,
      "duration": 0.0566,
      "velocity": 99,
      "chip": "ym2612"
    },
    {
      "channel": 1,
      "note": 52,
      "start": 77.3897,
      "duration": 0.1355,
      "velocity": 99,
      "chip": "ym2612"
    },
    {
      "channel": 0,
      "note": 82,
      "start": 77.7683,
      "duration": 0.0569,
      "velocity": 127,
      "chip": "ym2612"
    },
    {
      "channel": 0,
      "note": 82,
      "start": 78.5083,
      "duration": 0.0569,
      "velocity": 127,
      "chip": "ym2612"
    },
    {
      "channel": 1,
      "note": 45,
      "start": 78.7488,
      "duration": 0.0565,
      "velocity": 99,
      "chip": "ym2612"
    },
    {
      "channel": 1,
      "note": 52,
      "start": 78.8687,
      "duration": 0.0564,
      "velocity": 99,
      "chip": "ym2612"
    },
    {
      "channel": 1,
      "note": 52,
      "start": 79.1285,
      "duration": 0.0566,
      "velocity": 99,
      "chip": "ym2612"
    },
    {
      "channel": 0,
      "note": 82,
      "start": 79.2483,
      "duration": 0.0568,
      "velocity": 127,
      "chip": "ym2612"
    },
    {
      "channel": 2,
      "note": 81,
      "start": 79.6085,
      "duration": 0.3768,
      "velocity": 122,
      "chip": "ym2612"
    },
    {
      "channel": 1,
      "note": 35,
      "start": 79.6115,
      "duration": 0.0537,
      "velocity": 99,
      "chip": "ym2612"
    },
    {
      "channel": 0,
      "note": 82,
      "start": 79.9887,
      "duration": 0.0565,
      "velocity": 127,
      "chip": "ym2612"
    },
    {
      "channel": 1,
      "note": 45,
      "start": 80.2286,
      "duration": 0.0566,
      "velocity": 99,
      "chip": "ym2612"
    },
    {
      "channel": 2,
      "note": 81,
      "start": 80.3481,
      "duration": 0.3373,
      "velocity": 122,
      "chip": "ym2612"
    },
    {
      "channel": 1,
      "note": 52,
      "start": 80.3512,
      "duration": 0.1339,
      "velocity": 99,
      "chip": "ym2612"
    },
    {
      "channel": 0,
      "note": 82,
      "start": 80.7282,
      "duration": 0.0569,
      "velocity": 127,
      "chip": "ym2612"
    },
    {
      "channel": 2,
      "note": 81,
      "start": 80.9482,
      "duration": 0.0772,
      "velocity": 122,
      "chip": "ym2612"
    },
    {
      "channel": 2,
      "note": 81,
      "start": 81.3079,
      "duration": 0.1175,
      "velocity": 122,
      "chip": "ym2612"
    },
    {
      "channel": 0,
      "note": 82,
      "start": 81.4682,
      "duration": 0.0569,
      "velocity": 127,
      "chip": "ym2612"
    },
    {
      "channel": 2,
      "note": 81,
      "start": 81.6881,
      "duration": 0.0774,
      "velocity": 122,
      "chip": "ym2612"
    },
    {
      "channel": 1,
      "note": 45,
      "start": 81.7091,
      "duration": 0.056,
      "velocity": 99,
      "chip": "ym2612"
    },
    {
      "channel": 2,
      "note": 81,
      "start": 81.8281,
      "duration": 0.1573,
      "velocity": 122,
      "chip": "ym2612"
    },
    {
      "channel": 1,
      "note": 52,
      "start": 81.8311,
      "duration": 0.0741,
      "velocity": 99,
      "chip": "ym2612"
    },
    {
      "channel": 1,
      "note": 52,
      "start": 82.0886,
      "duration": 0.0566,
      "velocity": 99,
      "chip": "ym2612"
    },
    {
      "channel": 2,
      "note": 81,
      "start": 82.2085,
      "duration": 0.1168,
      "velocity": 122,
      "chip": "ym2612"
    },
    {
      "channel": 0,
      "note": 82,
      "start": 82.2113,
      "duration": 0.0539,
      "velocity": 127,
      "chip": "ym2612"
    },
    {
      "channel": 2,
      "note": 81,
      "start": 82.428,
      "duration": 0.1173,
      "velocity": 122,
      "chip": "ym2612"
    },
    {
      "channel": 1,
      "note": 21,
      "start": 82.5687,
      "duration": 0.1565,
      "velocity": 99,
      "chip": "ym2612"
    },
    {
      "channel": 5,
      "note": 35,
      "start": 82.5718,
      "duration": 0.0736,
      "velocity": 99,
      "chip": "ym2612"
    },
    {
      "channel": 0,
      "note": 80,
      "start": 82.5744,
      "duration": 0.0707,
      "velocity": 127,
      "chip": "ym2612"
    },
    {
      "channel": 0,
      "note": 80,
      "start": 82.8286,
      "duration": 0.0166,
      "velocity": 127,
      "chip": "ym2612"
    },
    {
      "channel": 0,
      "note": 80,
      "start": 82.9485,
      "duration": 0.0566,
      "velocity": 127,
      "chip": "ym2612"
    },
    {
      "channel": 0,
      "note": 80,
      "start": 83.1885,
      "duration": 0.0366,
      "velocity": 127,
      "chip": "ym2612"
    },
    {
      "channel": 0,
      "note": 80,
      "start": 83.3089,
      "duration": 0.0762,
      "velocity": 127,
      "chip": "ym2612"
    },
    {
      "channel": 0,
      "note": 80,
      "start": 83.5685,
      "duration": 0.0166,
      "velocity": 127,
      "chip": "ym2612"
    },
    {
      "channel": 0,
      "note": 80,
      "start": 83.6885,
      "duration": 0.0566,
      "velocity": 127,
      "chip": "ym2612"
    },
    {
      "channel": 0,
      "note": 80,
      "start": 83.9287,
      "duration": 0.0364,
      "velocity": 127,
      "chip": "ym2612"
    },
    {
      "channel": 2,
      "note": 81,
      "start": 84.3282,
      "duration": 0.1971,
      "velocity": 122,
      "chip": "ym2612"
    },
    {
      "channel": 1,
      "note": 35,
      "start": 84.3312,
      "duration": 0.0541,
      "velocity": 99,
      "chip": "ym2612"
    },
    {
      "channel": 5,
      "note": 21,
      "start": 84.3346,
      "duration": 0.1507,
      "velocity": 99,
      "chip": "ym2612"
    },
    {
      "channel": 3,
      "note": 88,
      "start": 84.3448,
      "duration": 0.0805,
      "velocity": 86,
      "chip": "ym2612"
    },
    {
      "channel": 2,
      "note": 81,
      "start": 84.7078,
      "duration": 0.1775,
      "velocity": 122,
      "chip": "ym2612"
    },
    {
      "channel": 1,
      "note": 35,
      "start": 84.7109,
      "duration": 0.0544,
      "velocity": 99,
      "chip": "ym2612"
    },
    {
      "channel": 5,
      "note": 21,
      "start": 84.7139,
      "duration": 0.1515,
      "velocity": 99,
      "chip": "ym2612"
    },
    {
      "channel": 3,
      "note": 88,
      "start": 84.7238,
      "duration": 0.0615,
      "velocity": 86,
      "chip": "ym2612"
    },
    {
      "channel": 2,
      "note": 81,
      "start": 85.0679,
      "duration": 0.1975,
      "velocity": 122,
      "chip": "ym2612"
    },
    {
      "channel": 1,
      "note": 21,
      "start": 85.0709,
      "duration": 0.1542,
      "velocity": 99,
      "chip": "ym2612"
    },
    {
      "channel": 5,
      "note": 35,
      "start": 85.0739,
      "duration": 0.0515,
      "velocity": 99,
      "chip": "ym2612"
    },
    {
      "channel": 3,
      "note": 88,
      "start": 85.084,
      "duration": 0.0813,
      "velocity": 86,
      "chip": "ym2612"
    },
    {
      "channel": 3,
      "note": 100,
      "start": 85.3576,
      "duration": 0.2276,
      "velocity": 94,
      "chip": "ym2612"
    },
    {
      "channel": 4,
      "note": 59,
      "start": 85.4494,
      "duration": 0.0559,
      "velocity": 95,
      "chip": "ym2612"
    },
    {
      "channel": 2,
      "note": 81,
      "start": 85.5483,
      "duration": 0.3172,
      "velocity": 122,
      "chip": "ym2612"
    },
    {
      "channel": 4,
      "note": 52,
      "start": 85.5523,
      "duration": 0.193,
      "velocity": 95,
      "chip": "ym2612"
    },
    {
      "channel": 3,
      "note": 104,
      "start": 85.591,
      "duration": 0.811,
      "velocity": 94,
      "chip": "ym2612"
    },
    {
      "channel": 2,
      "note": 81,
      "start": 85.9084,
      "duration": 0.0971,
      "velocity": 125,
      "chip": "ym2612"
    },
    {
      "channel": 0,
      "note": 82,
      "start": 85.9112,
      "duration": 0.0541,
      "velocity": 127,
      "chip": "ym2612"
    },
    {
      "channel": 4,
      "note": 52,
      "start": 85.9147,
      "duration": 0.2307,
      "velocity": 95,
      "chip": "ym2612"
    },
    {
      "channel": 2,
      "note": 81,
      "start": 86.1492,
      "duration": 0.0565,
      "velocity": 125,
      "chip": "ym2612"
    },
    {
      "channel": 1,
      "note": 45,
      "start": 86.152,
      "duration": 0.0534,
      "velocity": 99,
      "chip": "ym2612"
    },
    {
      "channel": 2,
      "note": 81,
      "start": 86.2878,
      "duration": 0.1398,
      "velocity": 122,
      "chip": "ym2612"
    },
    {
      "channel": 1,
      "note": 52,
      "start": 86.2914,
      "duration": 0.0529,
      "velocity": 99,
      "chip": "ym2612"
    },
    {
      "channel": 2,
      "note": 81,
      "start": 86.4482,
      "duration": 0.0242,
      "velocity": 125,
      "chip": "ym2612"
    },
    {
      "channel": 0,
      "note": 82,
      "start": 86.4509,
      "duration": 0.0212,
      "velocity": 127,
      "chip": "ym2612"
    },
    {
      "channel": 2,
      "note": 81,
      "start": 86.6426,
      "duration": 0.0242,
      "velocity": 125,
      "chip": "ym2612"
    },
    {
      "channel": 2,
      "note": 81,
      "start": 86.7031,
      "duration": 0.1743,
      "velocity": 122,
      "chip": "ym2612"
    },
    {
      "channel": 2,
      "note": 81,
      "start": 86.9204,
      "duration": 0.0971,
      "velocity": 125,
      "chip": "ym2612"
    },
    {
      "channel": 0,
      "note": 82,
      "start": 86.9229,
      "duration": 0.0544,
      "velocity": 127,
      "chip": "ym2612"
    },
    {
      "channel": 2,
      "note": 81,
      "start": 87.1604,
      "duration": 0.0572,
      "velocity": 125,
      "chip": "ym2612"
    },
    {
      "channel": 1,
      "note": 45,
      "start": 87.1634,
      "duration": 0.0539,
      "velocity": 99,
      "chip": "ym2612"
    },
    {
      "channel": 2,
      "note": 81,
      "start": 87.3003,
      "duration": 0.3371,
      "velocity": 122,
      "chip": "ym2612"
    },
    {
      "channel": 1,
      "note": 52,
      "start": 87.3032,
      "duration": 0.0541,
      "velocity": 99,
      "chip": "ym2612"
    },
    {
      "channel": 1,
      "note": 52,
      "start": 87.5406,
      "duration": 0.0566,
      "velocity": 99,
      "chip": "ym2612"
    },
    {
      "channel": 2,
      "note": 81,
      "start": 87.6601,
      "duration": 0.0574,
      "velocity": 125,
      "chip": "ym2612"
    },
    {
      "channel": 0,
      "note": 82,
      "start": 87.6626,
      "duration": 0.0546,
      "velocity": 127,
      "chip": "ym2612"
    },
    {
      "channel": 3,
      "note": 100,
      "start": 87.8497,
      "duration": 0.2277,
      "velocity": 94,
      "chip": "ym2612"
    },
    {
      "channel": 2,
      "note": 81,
      "start": 87.9002,
      "duration": 0.0573,
      "velocity": 125,
      "chip": "ym2612"
    },
    {
      "channel": 4,
      "note": 59,
      "start": 87.9415,
      "duration": 0.056,
      "velocity": 95,
      "chip": "ym2612"
    },
    {
      "channel": 2,
      "note": 81,
      "start": 88.0399,
      "duration": 0.3377,
      "velocity": 122,
      "chip": "ym2612"
    },
    {
      "channel": 4,
      "note": 52,
      "start": 88.0436,
      "duration": 0.1939,
      "velocity": 95,
      "chip": "ym2612"
    },
    {
      "channel": 3,
      "note": 104,
      "start": 88.0831,
      "duration": 0.8095,
      "velocity": 94,
      "chip": "ym2612"
    },
    {
      "channel": 2,
      "note": 81,
      "start": 88.4008,
      "duration": 0.0967,
      "velocity": 125,
      "chip": "ym2612"
    },
    {
      "channel": 0,
      "note": 82,
      "start": 88.4033,
      "duration": 0.054,
      "velocity": 127,
      "chip": "ym2612"
    },
    {
      "channel": 4,
      "note": 52,
      "start": 88.4071,
      "duration": 0.2704,
      "velocity": 95,
      "chip": "ym2612"
    },
    {
      "channel": 2,
      "note": 81,
      "start": 88.6404,
      "duration": 0.0573,
      "velocity": 125,
      "chip": "ym2612"
    },
    {
      "channel": 1,
      "note": 45,
      "start": 88.6432,
      "duration": 0.0542,
      "velocity": 99,
      "chip": "ym2612"
    },
    {
      "channel": 2,
      "note": 81,
      "start": 88.7801,
      "duration": 0.1465,
      "velocity": 122,
      "chip": "ym2612"
    },
    {
      "channel": 1,
      "note": 52,
      "start": 88.7832,
      "duration": 0.0515,
      "velocity": 99,
      "chip": "ym2612"
    },
    {
      "channel": 2,
      "note": 81,
      "start": 88.9381,
      "duration": 0.0241,
      "velocity": 125,
      "chip": "ym2612"
    },
    {
      "channel": 0,
      "note": 82,
      "start": 88.9405,
      "duration": 0.0216,
      "velocity": 127,
      "chip": "ym2612"
    },
    {
      "channel": 2,
      "note": 81,
      "start": 89.1324,
      "duration": 0.0244,
      "velocity": 125,
      "chip": "ym2612"
    },
    {
      "channel": 2,
      "note": 81,
      "start": 89.1939,
      "duration": 0.1955,
      "velocity": 122,
      "chip": "ym2612"
    },
    {
      "channel": 2,
      "note": 81,
      "start": 89.4122,
      "duration": 0.0971,
      "velocity": 125,
      "chip": "ym2612"
    },
    {
      "channel": 0,
      "note": 82,
      "start": 89.4147,
      "duration": 0.0544,
      "velocity": 127,
      "chip": "ym2612"
    },
    {
      "channel": 2,
      "note": 81,
      "start": 89.6522,
      "duration": 0.0771,
      "velocity": 125,
      "chip": "ym2612"
    },
    {
      "channel": 1,
      "note": 45,
      "start": 89.6556,
      "duration": 0.0735,
      "velocity": 99,
      "chip": "ym2612"
    },
    {
      "channel": 2,
      "note": 81,
      "start": 89.7916,
      "duration": 0.3377,
      "velocity": 122,
      "chip": "ym2612"
    },
    {
      "channel": 1,
      "note": 52,
      "start": 89.7946,
      "duration": 0.0545,
      "velocity": 99,
      "chip": "ym2612"
    },
    {
      "channel": 1,
      "note": 52,
      "start": 90.0325,
      "duration": 0.0566,
      "velocity": 99,
      "chip": "ym2612"
    },
    {
      "channel": 2,
      "note": 81,
      "start": 90.1524,
      "duration": 0.0569,
      "velocity": 125,
      "chip": "ym2612"
    },
    {
      "channel": 0,
      "note": 82,
      "start": 90.1549,
      "duration": 0.0541,
      "velocity": 127,
      "chip": "ym2612"
    },
    {
      "channel": 3,
      "note": 100,
      "start": 90.3415,
      "duration": 0.2277,
      "velocity": 94,
      "chip": "ym2612"
    },
    {
      "channel": 2,
      "note": 81,
      "start": 90.392,
      "duration": 0.0773,
      "velocity": 125,
      "chip": "ym2612"
    },
    {
      "channel": 4,
      "note": 59,
      "start": 90.4333,
      "duration": 0.056,
      "velocity": 95,
      "chip": "ym2612"
    },
    {
      "channel": 2,
      "note": 81,
      "start": 90.5318,
      "duration": 0.3376,
      "velocity": 122,
      "chip": "ym2612"
    },
    {
      "channel": 4,
      "note": 52,
      "start": 90.5355,
      "duration": 0.1939,
      "velocity": 95,
      "chip": "ym2612"
    },
    {
      "channel": 3,
      "note": 104,
      "start": 90.5749,
      "duration": 0.8108,
      "velocity": 94,
      "chip": "ym2612"
    },
    {
      "channel": 2,
      "note": 81,
      "start": 90.8923,
      "duration": 0.0972,
      "velocity": 125,
      "chip": "ym2612"
    },
    {
      "channel": 0,
      "note": 82,
      "start": 90.8948,
      "duration": 0.0544,
      "velocity": 127,
      "chip": "ym2612"
    },
    {
      "channel": 4,
      "note": 52,
      "start": 90.8982,
      "duration": 0.2311,
      "velocity": 95,
      "chip": "ym2612"
    },
    {
      "channel": 2,
      "note": 81,
      "start": 91.1324,
      "duration": 0.0771,
      "velocity": 125,
      "chip": "ym2612"
    },
    {
      "channel": 1,
      "note": 45,
      "start": 91.1352,
      "duration": 0.074,
      "velocity": 99,
      "chip": "ym2612"
    },
    {
      "channel": 2,
      "note": 81,
      "start": 91.2719,
      "duration": 0.149,
      "velocity": 122,
      "chip": "ym2612"
    },
    {
      "channel": 1,
      "note": 52,
      "start": 91.2749,
      "duration": 0.0537,
      "velocity": 99,
      "chip": "ym2612"
    },
    {
      "channel": 2,
      "note": 81,
      "start": 91.4324,
      "duration": 0.0229,
      "velocity": 125,
      "chip": "ym2612"
    },
    {
      "channel": 0,
      "note": 82,
      "start": 91.4345,
      "duration": 0.0205,
      "velocity": 127,
      "chip": "ym2612"
    },
    {
      "channel": 2,
      "note": 81,
      "start": 91.6253,
      "duration": 0.0329,
      "velocity": 125,
      "chip": "ym2612"
    },
    {
      "channel": 2,
      "note": 81,
      "start": 91.6866,
      "duration": 0.1959,
      "velocity": 122,
      "chip": "ym2612"
    },
    {
      "channel": 2,
      "note": 81,
      "start": 91.9054,
      "duration": 0.0971,
      "velocity": 125,
      "chip": "ym2612"
    },
    {
      "channel": 0,
      "note": 82,
      "start": 91.9079,
      "duration": 0.0544,
      "velocity": 127,
      "chip": "ym2612"
    },
    {
      "channel": 2,
      "note": 81,
      "start": 92.1458,
      "duration": 0.0768,
      "velocity": 125,
      "chip": "ym2612"
    },
    {
      "channel": 1,
      "note": 45,
      "start": 92.1488,
      "duration": 0.0735,
      "velocity": 99,
      "chip": "ym2612"
    },
    {
      "channel": 2,
      "note": 81,
      "start": 92.2853,
      "duration": 0.3372,
      "velocity": 122,
      "chip": "ym2612"
    },
    {
      "channel": 1,
      "note": 52,
      "start": 92.2883,
      "duration": 0.0541,
      "velocity": 99,
      "chip": "ym2612"
    },
    {
      "channel": 1,
      "note": 52,
      "start": 92.5261,
      "duration": 0.0563,
      "velocity": 99,
      "chip": "ym2612"
    },
    {
      "channel": 2,
      "note": 81,
      "start": 92.6453,
      "duration": 0.0573,
      "velocity": 125,
      "chip": "ym2612"
    },
    {
      "channel": 0,
      "note": 82,
      "start": 92.6479,
      "duration": 0.0544,
      "velocity": 127,
      "chip": "ym2612"
    },
    {
      "channel": 2,
      "note": 81,
      "start": 92.8854,
      "duration": 0.0771,
      "velocity": 125,
      "chip": "ym2612"
    },
    {
      "channel": 4,
      "note": 59,
      "start": 92.9264,
      "duration": 0.0561,
      "velocity": 95,
      "chip": "ym2612"
    },
    {
      "channel": 1,
      "note": 21,
      "start": 93.0258,
      "duration": 0.1365,
      "velocity": 99,
      "chip": "ym2612"
    },
    {
      "channel": 3,
      "note": 35,
      "start": 93.029,
      "duration": 0.0535,
      "velocity": 99,
      "chip": "ym2612"
    },
    {
      "channel": 0,
      "note": 80,
      "start": 93.0315,
      "duration": 0.0508,
      "velocity": 127,
      "chip": "ym2612"
    },
    {
      "channel": 4,
      "note": 52,
      "start": 93.0352,
      "duration": 0.1873,
      "velocity": 95,
      "chip": "ym2612"
    },
    {
      "channel": 0,
      "note": 80,
      "start": 93.2664,
      "duration": 0.0359,
      "velocity": 127,
      "chip": "ym2612"
    },
    {
      "channel": 0,
      "note": 80,
      "start": 93.3858,
      "duration": 0.0565,
      "velocity": 127,
      "chip": "ym2612"
    },
    {
      "channel": 4,
      "note": 52,
      "start": 93.3892,
      "duration": 0.2733,
      "velocity": 95,
      "chip": "ym2612"
    },
    {
      "channel": 0,
      "note": 80,
      "start": 93.6258,
      "duration": 0.0366,
      "velocity": 127,
      "chip": "ym2612"
    },
    {
      "channel": 0,
      "note": 80,
      "start": 93.7657,
      "duration": 0.0566,
      "velocity": 127,
      "chip": "ym2612"
    },
    {
      "channel": 0,
      "note": 80,
      "start": 94.0058,
      "duration": 0.0365,
      "velocity": 127,
      "chip": "ym2612"
    },
    {
      "channel": 0,
      "note": 80,
      "start": 94.1256,
      "duration": 0.0566,
      "velocity": 127,
      "chip": "ym2612"
    },
    {
      "channel": 0,
      "note": 80,
      "start": 94.3861,
      "duration": 0.0162,
      "velocity": 127,
      "chip": "ym2612"
    },
    {
      "channel": 2,
      "note": 81,
      "start": 94.7853,
      "duration": 0.1773,
      "velocity": 122,
      "chip": "ym2612"
    },
    {
      "channel": 1,
      "note": 35,
      "start": 94.7883,
      "duration": 0.0542,
      "velocity": 99,
      "chip": "ym2612"
    },
    {
      "channel": 3,
      "note": 21,
      "start": 94.7911,
      "duration": 0.1312,
      "velocity": 99,
      "chip": "ym2612"
    },
    {
      "channel": 5,
      "note": 88,
      "start": 94.8014,
      "duration": 0.0611,
      "velocity": 86,
      "chip": "ym2612"
    },
    {
      "channel": 2,
      "note": 81,
      "start": 95.1449,
      "duration": 0.1775,
      "velocity": 122,
      "chip": "ym2612"
    },
    {
      "channel": 1,
      "note": 35,
      "start": 95.1481,
      "duration": 0.0543,
      "velocity": 99,
      "chip": "ym2612"
    },
    {
      "channel": 3,
      "note": 21,
      "start": 95.1514,
      "duration": 0.1509,
      "velocity": 99,
      "chip": "ym2612"
    },
    {
      "channel": 5,
      "note": 88,
      "start": 95.1614,
      "duration": 0.0812,
      "velocity": 86,
      "chip": "ym2612"
    },
    {
      "channel": 2,
      "note": 81,
      "start": 95.5255,
      "duration": 0.1769,
      "velocity": 122,
      "chip": "ym2612"
    },
    {
      "channel": 1,
      "note": 21,
      "start": 95.5285,
      "duration": 0.1339,
      "velocity": 99,
      "chip": "ym2612"
    },
    {
      "channel": 3,
      "note": 35,
      "start": 95.5315,
      "duration": 0.0509,
      "velocity": 99,
      "chip": "ym2612"
    },
    {
      "channel": 5,
      "note": 88,
      "start": 95.5417,
      "duration": 0.0609,
      "velocity": 86,
      "chip": "ym2612"
    },
    {
      "channel": 5,
      "note": 100,
      "start": 95.7953,
      "duration": 0.2272,
      "velocity": 94,
      "chip": "ym2612"
    },
    {
      "channel": 4,
      "note": 59,
      "start": 95.8865,
      "duration": 0.0561,
      "velocity": 95,
      "chip": "ym2612"
    },
    {
      "channel": 2,
      "note": 81,
      "start": 95.9854,
      "duration": 0.3373,
      "velocity": 122,
      "chip": "ym2612"
    },
    {
      "channel": 0,
      "note": 80,
      "start": 95.9884,
      "duration": 0.0541,
      "velocity": 127,
      "chip": "ym2612"
    },
    {
      "channel": 3,
      "note": 52,
      "start": 95.9917,
      "duration": 0.1309,
      "velocity": 85,
      "chip": "ym2612"
    },
    {
      "channel": 4,
      "note": 52,
      "start": 95.9947,
      "duration": 0.128,
      "velocity": 95,
      "chip": "ym2612"
    },
    {
      "channel": 5,
      "note": 104,
      "start": 96.0283,
      "duration": 0.9542,
      "velocity": 94,
      "chip": "ym2612"
    },
    {
      "channel": 0,
      "note": 80,
      "start": 96.2258,
      "duration": 0.0366,
      "velocity": 127,
      "chip": "ym2612"
    },
    {
      "channel": 2,
      "note": 81,
      "start": 96.3455,
      "duration": 0.0971,
      "velocity": 125,
      "chip": "ym2612"
    },
    {
      "channel": 0,
      "note": 80,
      "start": 96.3484,
      "duration": 0.0541,
      "velocity": 127,
      "chip": "ym2612"
    },
    {
      "channel": 3,
      "note": 52,
      "start": 96.3514,
      "duration": 0.2511,
      "velocity": 85,
      "chip": "ym2612"
    },
    {
      "channel": 4,
      "note": 52,
      "start": 96.3542,
      "duration": 0.2484,
      "velocity": 95,
      "chip": "ym2612"
    },
    {
      "channel": 2,
      "note": 81,
      "start": 96.6057,
      "duration": 0.0569,
      "velocity": 125,
      "chip": "ym2612"
    },
    {
      "channel": 0,
      "note": 80,
      "start": 96.6085,
      "duration": 0.0139,
      "velocity": 127,
      "chip": "ym2612"
    },
    {
      "channel": 2,
      "note": 81,
      "start": 96.7251,
      "duration": 0.3374,
      "velocity": 122,
      "chip": "ym2612"
    },
    {
      "channel": 0,
      "note": 80,
      "start": 96.7284,
      "duration": 0.0539,
      "velocity": 127,
      "chip": "ym2612"
    },
    {
      "channel": 3,
      "note": 56,
      "start": 96.7321,
      "duration": 0.2104,
      "velocity": 85,
      "chip": "ym2612"
    },
    {
      "channel": 4,
      "note": 56,
      "start": 96.7349,
      "duration": 0.2077,
      "velocity": 95,
      "chip": "ym2612"
    },
    {
      "channel": 0,
      "note": 80,
      "start": 96.9658,
      "duration": 0.0366,
      "velocity": 127,
      "chip": "ym2612"
    },
    {
      "channel": 2,
      "note": 81,
      "start": 97.0853,
      "duration": 0.0573,
      "velocity": 125,
      "chip": "ym2612"
    },
    {
      "channel": 0,
      "note": 80,
      "start": 97.0881,
      "duration": 0.0541,
      "velocity": 127,
      "chip": "ym2612"
    },
    {
      "channel": 3,
      "note": 56,
      "start": 97.0911,
      "duration": 0.2334,
      "velocity": 85,
      "chip": "ym2612"
    },
    {
      "channel": 4,
      "note": 56,
      "start": 97.0943,
      "duration": 0.2303,
      "velocity": 95,
      "chip": "ym2612"
    },
    {
      "channel": 2,
      "note": 81,
      "start": 97.3276,
      "duration": 0.0235,
      "velocity": 125,
      "chip": "ym2612"
    },
    {
      "channel": 0,
      "note": 80,
      "start": 97.3303,
      "duration": 0.004,
      "velocity": 127,
      "chip": "ym2612"
    },
    {
      "channel": 2,
      "note": 81,
      "start": 97.3788,
      "duration": 0.1956,
      "velocity": 122,
      "chip": "ym2612"
    },
    {
      "channel": 0,
      "note": 80,
      "start": 97.3823,
      "duration": 0.0243,
      "velocity": 127,
      "chip": "ym2612"
    },
    {
      "channel": 3,
      "note": 57,
      "start": 97.3851,
      "duration": 0.0894,
      "velocity": 85,
      "chip": "ym2612"
    },
    {
      "channel": 4,
      "note": 57,
      "start": 97.3877,
      "duration": 0.087,
      "velocity": 95,
      "chip": "ym2612"
    },
    {
      "channel": 0,
      "note": 80,
      "start": 97.487,
      "duration": 0.0271,
      "velocity": 127,
      "chip": "ym2612"
    },
    {
      "channel": 2,
      "note": 81,
      "start": 97.5973,
      "duration": 0.097,
      "velocity": 125,
      "chip": "ym2612"
    },
    {
      "channel": 0,
      "note": 80,
      "start": 97.6001,
      "duration": 0.054,
      "velocity": 127,
      "chip": "ym2612"
    },
    {
      "channel": 3,
      "note": 57,
      "start": 97.6033,
      "duration": 0.1509,
      "velocity": 85,
      "chip": "ym2612"
    },
    {
      "channel": 4,
      "note": 57,
      "start": 97.6063,
      "duration": 0.1481,
      "velocity": 95,
      "chip": "ym2612"
    },
    {
      "channel": 3,
      "note": 59,
      "start": 97.8181,
      "duration": 0.1762,
      "velocity": 85,
      "chip": "ym2612"
    },
    {
      "channel": 4,
      "note": 59,
      "start": 97.8211,
      "duration": 0.1733,
      "velocity": 95,
      "chip": "ym2612"
    },
    {
      "channel": 2,
      "note": 81,
      "start": 97.8572,
      "duration": 0.0573,
      "velocity": 125,
      "chip": "ym2612"
    },
    {
      "channel": 0,
      "note": 80,
      "start": 97.8601,
      "duration": 0.0141,
      "velocity": 127,
      "chip": "ym2612"
    },
    {
      "channel": 1,
      "note": 76,
      "start": 97.8784,
      "duration": 0.0358,
      "velocity": 98,
      "chip": "ym2612"
    },
    {
      "channel": 2,
      "note": 81,
      "start": 97.9768,
      "duration": 0.3375,
      "velocity": 122,
      "chip": "ym2612"
    },
    {
      "channel": 0,
      "note": 80,
      "start": 97.9798,
      "duration": 0.0544,
      "velocity": 127,
      "chip": "ym2612"
    },
    {
      "channel": 1,
      "note": 81,
      "start": 97.9829,
      "duration": 0.0515,
      "velocity": 98,
      "chip": "ym2612"
    },
    {
      "channel": 5,
      "note": 85,
      "start": 97.9857,
      "duration": 0.0488,
      "velocity": 98,
      "chip": "ym2612"
    },
    {
      "channel": 1,
      "note": 85,
      "start": 98.1981,
      "duration": 0.0762,
      "velocity": 98,
      "chip": "ym2612"
    },
    {
      "channel": 5,
      "note": 81,
      "start": 98.201,
      "duration": 0.0735,
      "velocity": 98,
      "chip": "ym2612"
    },
    {
      "channel": 3,
      "note": 59,
      "start": 98.2038,
      "duration": 0.1304,
      "velocity": 85,
      "chip": "ym2612"
    },
    {
      "channel": 4,
      "note": 59,
      "start": 98.2066,
      "duration": 0.1277,
      "velocity": 95,
      "chip": "ym2612"
    },
    {
      "channel": 0,
      "note": 80,
      "start": 98.2176,
      "duration": 0.0366,
      "velocity": 127,
      "chip": "ym2612"
    },
    {
      "channel": 2,
      "note": 81,
      "start": 98.3372,
      "duration": 0.0573,
      "velocity": 125,
      "chip": "ym2612"
    },
    {
      "channel": 0,
      "note": 80,
      "start": 98.34,
      "duration": 0.0541,
      "velocity": 127,
      "chip": "ym2612"
    },
    {
      "channel": 1,
      "note": 100,
      "start": 98.5268,
      "duration": 0.2274,
      "velocity": 94,
      "chip": "ym2612"
    },
    {
      "channel": 3,
      "note": 59,
      "start": 98.5583,
      "duration": 0.0961,
      "velocity": 85,
      "chip": "ym2612"
    },
    {
      "channel": 4,
      "note": 59,
      "start": 98.5613,
      "duration": 0.0932,
      "velocity": 95,
      "chip": "ym2612"
    },
    {
      "channel": 2,
      "note": 81,
      "start": 98.5972,
      "duration": 0.0574,
      "velocity": 125,
      "chip": "ym2612"
    },
    {
      "channel": 0,
      "note": 80,
      "start": 98.6004,
      "duration": 0.0139,
      "velocity": 127,
      "chip": "ym2612"
    },
    {
      "channel": 2,
      "note": 81,
      "start": 98.7169,
      "duration": 0.3376,
      "velocity": 122,
      "chip": "ym2612"
    },
    {
      "channel": 0,
      "note": 80,
      "start": 98.7199,
      "duration": 0.0544,
      "velocity": 127,
      "chip": "ym2612"
    },
    {
      "channel": 3,
      "note": 52,
      "start": 98.723,
      "duration": 0.2114,
      "velocity": 85,
      "chip": "ym2612"
    },
    {
      "channel": 4,
      "note": 52,
      "start": 98.7264,
      "duration": 0.2081,
      "velocity": 95,
      "chip": "ym2612"
    },
    {
      "channel": 1,
      "note": 104,
      "start": 98.7599,
      "duration": 0.8156,
      "velocity": 94,
      "chip": "ym2612"
    },
    {
      "channel": 0,
      "note": 80,
      "start": 98.9577,
      "duration": 0.0366,
      "velocity": 127,
      "chip": "ym2612"
    },
    {
      "channel": 2,
      "note": 81,
      "start": 99.0774,
      "duration": 0.0971,
      "velocity": 125,
      "chip": "ym2612"
    },
    {
      "channel": 0,
      "note": 80,
      "start": 99.0802,
      "duration": 0.0541,
      "velocity": 127,
      "chip": "ym2612"
    },
    {
      "channel": 3,
      "note": 52,
      "start": 99.0836,
      "duration": 0.2709,
      "velocity": 85,
      "chip": "ym2612"
    },
    {
      "channel": 4,
      "note": 52,
      "start": 99.0863,
      "duration": 0.2682,
      "velocity": 95,
      "chip": "ym2612"
    },
    {
      "channel": 2,
      "note": 81,
      "start": 99.3377,
      "duration": 0.0569,
      "velocity": 125,
      "chip": "ym2612"
    },
    {
      "channel": 0,
      "note": 80,
      "start": 99.3405,
      "duration": 0.0137,
      "velocity": 127,
      "chip": "ym2612"
    },
    {
      "channel": 2,
      "note": 81,
      "start": 99.4571,
      "duration": 0.153,
      "velocity": 122,
      "chip": "ym2612"
    },
    {
      "channel": 0,
      "note": 80,
      "start": 99.4603,
      "duration": 0.0275,
      "velocity": 127,
      "chip": "ym2612"
    },
    {
      "channel": 3,
      "note": 56,
      "start": 99.4677,
      "duration": 0.072,
      "velocity": 85,
      "chip": "ym2612"
    },
    {
      "channel": 4,
      "note": 56,
      "start": 99.4701,
      "duration": 0.0696,
      "velocity": 95,
      "chip": "ym2612"
    },
    {
      "channel": 0,
      "note": 80,
      "start": 99.5687,
      "duration": 0.0151,
      "velocity": 127,
      "chip": "ym2612"
    },
    {
      "channel": 2,
      "note": 81,
      "start": 99.6207,
      "duration": 0.0265,
      "velocity": 125,
      "chip": "ym2612"
    },
    {
      "channel": 0,
      "note": 80,
      "start": 99.6232,
      "duration": 0.0238,
      "velocity": 127,
      "chip": "ym2612"
    },
    {
      "channel": 3,
      "note": 56,
      "start": 99.6271,
      "duration": 0.171,
      "velocity": 85,
      "chip": "ym2612"
    },
    {
      "channel": 4,
      "note": 56,
      "start": 99.6296,
      "duration": 0.1686,
      "velocity": 95,
      "chip": "ym2612"
    },
    {
      "channel": 2,
      "note": 81,
      "start": 99.8224,
      "duration": 0.0241,
      "velocity": 125,
      "chip": "ym2612"
    },
    {
      "channel": 0,
      "note": 80,
      "start": 99.8251,
      "duration": 0.0043,
      "velocity": 127,
      "chip": "ym2612"
    },
    {
      "channel": 2,
      "note": 81,
      "start": 99.8746,
      "duration": 0.1961,
      "velocity": 122,
      "chip": "ym2612"
    },
    {
      "channel": 0,
      "note": 80,
      "start": 99.8783,
      "duration": 0.0239,
      "velocity": 127,
      "chip": "ym2612"
    },
    {
      "channel": 3,
      "note": 57,
      "start": 99.8807,
      "duration": 0.0902,
      "velocity": 85,
      "chip": "ym2612"
    },
    {
      "channel": 4,
      "note": 57,
      "start": 99.8833,
      "duration": 0.0878,
      "velocity": 95,
      "chip": "ym2612"
    },
    {
      "channel": 0,
      "note": 80,
      "start": 99.9832,
      "duration": 0.0271,
      "velocity": 127,
      "chip": "ym2612"
    },
    {
      "channel": 2,
      "note": 81,
      "start": 100.0935,
      "duration": 0.0971,
      "velocity": 125,
      "chip": "ym2612"
    },
    {
      "channel": 0,
      "note": 80,
      "start": 100.0964,
      "duration": 0.054,
      "velocity": 127,
      "chip": "ym2612"
    },
    {
      "channel": 3,
      "note": 57,
      "start": 100.0996,
      "duration": 0.1109,
      "velocity": 85,
      "chip": "ym2612"
    },
    {
      "channel": 4,
      "note": 57,
      "start": 100.1025,
      "duration": 0.108,
      "velocity": 95,
      "chip": "ym2612"
    },
    {
      "channel": 3,
      "note": 54,
      "start": 100.3145,
      "duration": 0.1561,
      "velocity": 85,
      "chip": "ym2612"
    },
    {
      "channel": 4,
      "note": 54,
      "start": 100.3175,
      "duration": 0.1532,
      "velocity": 95,
      "chip": "ym2612"
    },
    {
      "channel": 2,
      "note": 81,
      "start": 100.3536,
      "duration": 0.0571,
      "velocity": 125,
      "chip": "ym2612"
    },
    {
      "channel": 0,
      "note": 80,
      "start": 100.3564,
      "duration": 0.0141,
      "velocity": 127,
      "chip": "ym2612"
    },
    {
      "channel": 1,
      "note": 76,
      "start": 100.3751,
      "duration": 0.0553,
      "velocity": 98,
      "chip": "ym2612"
    },
    {
      "channel": 2,
      "note": 81,
      "start": 100.4733,
      "duration": 0.3375,
      "velocity": 122,
      "chip": "ym2612"
    },
    {
      "channel": 0,
      "note": 80,
      "start": 100.4763,
      "duration": 0.0542,
      "velocity": 127,
      "chip": "ym2612"
    },
    {
      "channel": 1,
      "note": 81,
      "start": 100.4793,
      "duration": 0.0711,
      "velocity": 98,
      "chip": "ym2612"
    },
    {
      "channel": 5,
      "note": 85,
      "start": 100.4821,
      "duration": 0.0685,
      "velocity": 98,
      "chip": "ym2612"
    },
    {
      "channel": 1,
      "note": 81,
      "start": 100.6943,
      "duration": 0.1162,
      "velocity": 98,
      "chip": "ym2612"
    },
    {
      "channel": 5,
      "note": 85,
      "start": 100.6972,
      "duration": 0.1135,
      "velocity": 98,
      "chip": "ym2612"
    },
    {
      "channel": 3,
      "note": 54,
      "start": 100.6998,
      "duration": 0.1307,
      "velocity": 85,
      "chip": "ym2612"
    },
    {
      "channel": 4,
      "note": 54,
      "start": 100.7025,
      "duration": 0.1282,
      "velocity": 95,
      "chip": "ym2612"
    },
    {
      "channel": 0,
      "note": 80,
      "start": 100.7139,
      "duration": 0.0366,
      "velocity": 127,
      "chip": "ym2612"
    },
    {
      "channel": 2,
      "note": 81,
      "start": 100.8336,
      "duration": 0.0573,
      "velocity": 125,
      "chip": "ym2612"
    },
    {
      "channel": 0,
      "note": 80,
      "start": 100.8364,
      "duration": 0.0541,
      "velocity": 127,
      "chip": "ym2612"
    },
    {
      "channel": 1,
      "note": 100,
      "start": 101.0433,
      "duration": 0.2274,
      "velocity": 94,
      "chip": "ym2612"
    },
    {
      "channel": 3,
      "note": 54,
      "start": 101.0545,
      "duration": 0.1161,
      "velocity": 85,
      "chip": "ym2612"
    },
    {
      "channel": 4,
      "note": 54,
      "start": 101.0578,
      "duration": 0.1129,
      "velocity": 95,
      "chip": "ym2612"
    },
    {
      "channel": 2,
      "note": 81,
      "start": 101.0935,
      "duration": 0.0573,
      "velocity": 125,
      "chip": "ym2612"
    },
    {
      "channel": 0,
      "note": 80,
      "start": 101.0967,
      "duration": 0.0139,
      "velocity": 127,
      "chip": "ym2612"
    },
    {
      "channel": 2,
      "note": 81,
      "start": 101.2132,
      "duration": 0.3374,
      "velocity": 122,
      "chip": "ym2612"
    },
    {
      "channel": 0,
      "note": 80,
      "start": 101.2162,
      "duration": 0.0544,
      "velocity": 127,
      "chip": "ym2612"
    },
    {
      "channel": 3,
      "note": 52,
      "start": 101.2197,
      "duration": 0.2109,
      "velocity": 85,
      "chip": "ym2612"
    },
    {
      "channel": 4,
      "note": 52,
      "start": 101.2226,
      "duration": 0.208,
      "velocity": 95,
      "chip": "ym2612"
    },
    {
      "channel": 1,
      "note": 104,
      "start": 101.2769,
      "duration": 0.8024,
      "velocity": 94,
      "chip": "ym2612"
    },
    {
      "channel": 0,
      "note": 80,
      "start": 101.454,
      "duration": 0.0366,
      "velocity": 127,
      "chip": "ym2612"
    },
    {
      "channel": 2,
      "note": 81,
      "start": 101.5741,
      "duration": 0.0967,
      "velocity": 125,
      "chip": "ym2612"
    },
    {
      "channel": 0,
      "note": 80,
      "start": 101.5769,
      "duration": 0.0537,
      "velocity": 127,
      "chip": "ym2612"
    },
    {
      "channel": 3,
      "note": 52,
      "start": 101.5798,
      "duration": 0.2107,
      "velocity": 85,
      "chip": "ym2612"
    },
    {
      "channel": 4,
      "note": 52,
      "start": 101.5824,
      "duration": 0.2083,
      "velocity": 95,
      "chip": "ym2612"
    },
    {
      "channel": 2,
      "note": 81,
      "start": 101.8336,
      "duration": 0.0571,
      "velocity": 125,
      "chip": "ym2612"
    },
    {
      "channel": 0,
      "note": 80,
      "start": 101.8365,
      "duration": 0.014,
      "velocity": 127,
      "chip": "ym2612"
    },
    {
      "channel": 2,
      "note": 81,
      "start": 101.9531,
      "duration": 0.1523,
      "velocity": 122,
      "chip": "ym2612"
    },
    {
      "channel": 0,
      "note": 80,
      "start": 101.9564,
      "duration": 0.0282,
      "velocity": 127,
      "chip": "ym2612"
    },
    {
      "channel": 3,
      "note": 56,
      "start": 101.9637,
      "duration": 0.0644,
      "velocity": 85,
      "chip": "ym2612"
    },
    {
      "channel": 4,
      "note": 56,
      "start": 101.9662,
      "duration": 0.0619,
      "velocity": 95,
      "chip": "ym2612"
    },
    {
      "channel": 0,
      "note": 80,
      "start": 102.0653,
      "duration": 0.0139,
      "velocity": 127,
      "chip": "ym2612"
    },
    {
      "channel": 2,
      "note": 81,
      "start": 102.1166,
      "duration": 0.0269,
      "velocity": 125,
      "chip": "ym2612"
    },
    {
      "channel": 0,
      "note": 80,
      "start": 102.1191,
      "duration": 0.0241,
      "velocity": 127,
      "chip": "ym2612"
    },
    {
      "channel": 3,
      "note": 56,
      "start": 102.123,
      "duration": 0.1712,
      "velocity": 85,
      "chip": "ym2612"
    },
    {
      "channel": 4,
      "note": 56,
      "start": 102.1256,
      "duration": 0.1688,
      "velocity": 95,
      "chip": "ym2612"
    },
    {
      "channel": 2,
      "note": 81,
      "start": 102.3189,
      "duration": 0.0231,
      "velocity": 125,
      "chip": "ym2612"
    },
    {
      "channel": 0,
      "note": 80,
      "start": 102.3214,
      "duration": 0.0043,
      "velocity": 127,
      "chip": "ym2612"
    },
    {
      "channel": 2,
      "note": 81,
      "start": 102.3703,
      "duration": 0.196,
      "velocity": 122,
      "chip": "ym2612"
    },
    {
      "channel": 0,
      "note": 80,
      "start": 102.3739,
      "duration": 0.0237,
      "velocity": 127,
      "chip": "ym2612"
    },
    {
      "channel": 3,
      "note": 57,
      "start": 102.3766,
      "duration": 0.0717,
      "velocity": 85,
      "chip": "ym2612"
    },
    {
      "channel": 4,
      "note": 57,
      "start": 102.3791,
      "duration": 0.0693,
      "velocity": 95,
      "chip": "ym2612"
    },
    {
      "channel": 0,
      "note": 80,
      "start": 102.4789,
      "duration": 0.0272,
      "velocity": 127,
      "chip": "ym2612"
    },
    {
      "channel": 2,
      "note": 81,
      "start": 102.5892,
      "duration": 0.0971,
      "velocity": 125,
      "chip": "ym2612"
    },
    {
      "channel": 0,
      "note": 80,
      "start": 102.592,
      "duration": 0.054,
      "velocity": 127,
      "chip": "ym2612"
    },
    {
      "channel": 3,
      "note": 57,
      "start": 102.5952,
      "duration": 0.1109,
      "velocity": 85,
      "chip": "ym2612"
    },
    {
      "channel": 4,
      "note": 57,
      "start": 102.5983,
      "duration": 0.108,
      "velocity": 95,
      "chip": "ym2612"
    },
    {
      "channel": 3,
      "note": 58,
      "start": 102.81,
      "duration": 0.1561,
      "velocity": 85,
      "chip": "ym2612"
    },
    {
      "channel": 4,
      "note": 58,
      "start": 102.8134,
      "duration": 0.1529,
      "velocity": 95,
      "chip": "ym2612"
    },
    {
      "channel": 2,
      "note": 81,
      "start": 102.8492,
      "duration": 0.0573,
      "velocity": 125,
      "chip": "ym2612"
    },
    {
      "channel": 0,
      "note": 80,
      "start": 102.852,
      "duration": 0.0141,
      "velocity": 127,
      "chip": "ym2612"
    },
    {
      "channel": 1,
      "note": 76,
      "start": 102.8702,
      "duration": 0.0359,
      "velocity": 98,
      "chip": "ym2612"
    },
    {
      "channel": 2,
      "note": 81,
      "start": 102.9688,
      "duration": 0.3376,
      "velocity": 122,
      "chip": "ym2612"
    },
    {
      "channel": 0,
      "note": 80,
      "start": 102.9719,
      "duration": 0.0542,
      "velocity": 127,
      "chip": "ym2612"
    },
    {
      "channel": 1,
      "note": 85,
      "start": 102.9753,
      "duration": 0.0708,
      "velocity": 98,
      "chip": "ym2612"
    },
    {
      "channel": 5,
      "note": 81,
      "start": 102.9782,
      "duration": 0.0682,
      "velocity": 98,
      "chip": "ym2612"
    },
    {
      "channel": 3,
      "note": 80,
      "start": 103.1508,
      "duration": 0.1553,
      "velocity": 90,
      "chip": "ym2612"
    },
    {
      "channel": 1,
      "note": 85,
      "start": 103.1898,
      "duration": 0.0764,
      "velocity": 98,
      "chip": "ym2612"
    },
    {
      "channel": 5,
      "note": 81,
      "start": 103.1926,
      "duration": 0.0738,
      "velocity": 98,
      "chip": "ym2612"
    },
    {
      "channel": 4,
      "note": 58,
      "start": 103.1959,
      "duration": 0.1704,
      "velocity": 85,
      "chip": "ym2612"
    },
    {
      "channel": 0,
      "note": 58,
      "start": 103.1989,
      "duration": 0.1672,
      "velocity": 95,
      "chip": "ym2612"
    },
    {
      "channel": 2,
      "note": 81,
      "start": 103.3294,
      "duration": 0.0569,
      "velocity": 125,
      "chip": "ym2612"
    },
    {
      "channel": 3,
      "note": 81,
      "start": 103.3332,
      "duration": 0.1929,
      "velocity": 90,
      "chip": "ym2612"
    },
    {
      "channel": 3,
      "note": 82,
      "start": 103.5305,
      "duration": 0.1157,
      "velocity": 90,
      "chip": "ym2612"
    },
    {
      "channel": 4,
      "note": 58,
      "start": 103.5501,
      "duration": 0.0963,
      "velocity": 85,
      "chip": "ym2612"
    },
    {
      "channel": 0,
      "note": 58,
      "start": 103.5529,
      "duration": 0.0932,
      "velocity": 95,
      "chip": "ym2612"
    },
    {
      "channel": 2,
      "note": 81,
      "start": 103.589,
      "duration": 0.0575,
      "velocity": 125,
      "chip": "ym2612"
    },
    {
      "channel": 2,
      "note": 81,
      "start": 103.7087,
      "duration": 0.3376,
      "velocity": 122,
      "chip": "ym2612"
    },
    {
      "channel": 4,
      "note": 59,
      "start": 103.7123,
      "duration": 0.2139,
      "velocity": 85,
      "chip": "ym2612"
    },
    {
      "channel": 0,
      "note": 59,
      "start": 103.7152,
      "duration": 0.1109,
      "velocity": 95,
      "chip": "ym2612"
    },
    {
      "channel": 3,
      "note": 83,
      "start": 103.7183,
      "duration": 0.1079,
      "velocity": 90,
      "chip": "ym2612"
    },
    {
      "channel": 4,
      "note": 57,
      "start": 103.9302,
      "duration": 0.3561,
      "velocity": 85,
      "chip": "ym2612"
    },
    {
      "channel": 0,
      "note": 57,
      "start": 103.933,
      "duration": 0.133,
      "velocity": 95,
      "chip": "ym2612"
    },
    {
      "channel": 3,
      "note": 81,
      "start": 103.9363,
      "duration": 0.1299,
      "velocity": 90,
      "chip": "ym2612"
    },
    {
      "channel": 2,
      "note": 81,
      "start": 104.0693,
      "duration": 0.0969,
      "velocity": 125,
      "chip": "ym2612"
    },
    {
      "channel": 4,
      "note": 56,
      "start": 104.2899,
      "duration": 0.3763,
      "velocity": 85,
      "chip": "ym2612"
    },
    {
      "channel": 0,
      "note": 56,
      "start": 104.2924,
      "duration": 0.1536,
      "velocity": 95,
      "chip": "ym2612"
    },
    {
      "channel": 3,
      "note": 80,
      "start": 104.2954,
      "duration": 0.1509,
      "velocity": 90,
      "chip": "ym2612"
    },
    {
      "channel": 2,
      "note": 81,
      "start": 104.3293,
      "duration": 0.0571,
      "velocity": 125,
      "chip": "ym2612"
    },
    {
      "channel": 2,
      "note": 81,
      "start": 104.4493,
      "duration": 0.3371,
      "velocity": 122,
      "chip": "ym2612"
    },
    {
      "channel": 4,
      "note": 54,
      "start": 104.6699,
      "duration": 0.3564,
      "velocity": 85,
      "chip": "ym2612"
    },
    {
      "channel": 0,
      "note": 54,
      "start": 104.6726,
      "duration": 0.1734,
      "velocity": 95,
      "chip": "ym2612"
    },
    {
      "channel": 3,
      "note": 78,
      "start": 104.6761,
      "duration": 0.1701,
      "velocity": 90,
      "chip": "ym2612"
    },
    {
      "channel": 2,
      "note": 81,
      "start": 104.809,
      "duration": 0.0572,
      "velocity": 125,
      "chip": "ym2612"
    },
    {
      "channel": 4,
      "note": 52,
      "start": 105.0308,
      "duration": 1.5154,
      "velocity": 85,
      "chip": "ym2612"
    },
    {
      "channel": 0,
      "note": 52,
      "start": 105.034,
      "duration": 1.512,
      "velocity": 95,
      "chip": "ym2612"
    },
    {
      "channel": 3,
      "note": 76,
      "start": 105.0373,
      "duration": 1.449,
      "velocity": 90,
      "chip": "ym2612"
    },
    {
      "channel": 2,
      "note": 81,
      "start": 105.0692,
      "duration": 0.0572,
      "velocity": 125,
      "chip": "ym2612"
    },
    {
      "channel": 2,
      "note": 81,
      "start": 105.1891,
      "duration": 0.2972,
      "velocity": 122,
      "chip": "ym2612"
    },
    {
      "channel": 2,
      "note": 81,
      "start": 105.5488,
      "duration": 0.3175,
      "velocity": 122,
      "chip": "ym2612"
    },
    {
      "channel": 2,
      "note": 81,
      "start": 105.929,
      "duration": 0.2973,
      "velocity": 122,
      "chip": "ym2612"
    },
    {
      "channel": 0,
      "note": 59,
      "start": 106.5701,
      "duration": 0.0559,
      "velocity": 95,
      "chip": "ym2612"
    },
    {
      "channel": 1,
      "note": 64,
      "start": 106.67,
      "duration": 0.6961,
      "velocity": 95,
      "chip": "ym2612"
    },
    {
      "channel": 5,
      "note": 80,
      "start": 106.6728,
      "duration": 0.0534,
      "velocity": 127,
      "chip": "ym2612"
    },
    {
      "channel": 0,
      "note": 52,
      "start": 106.6759,
      "duration": 0.1502,
      "velocity": 95,
      "chip": "ym2612"
    },
    {
      "channel": 5,
      "note": 80,
      "start": 106.9098,
      "duration": 0.0365,
      "velocity": 127,
      "chip": "ym2612"
    },
    {
      "channel": 5,
      "note": 80,
      "start": 107.0301,
      "duration": 0.0562,
      "velocity": 127,
      "chip": "ym2612"
    },
    {
      "channel": 0,
      "note": 52,
      "start": 107.0331,
      "duration": 0.2529,
      "velocity": 95,
      "chip": "ym2612"
    },
    {
      "channel": 5,
      "note": 80,
      "start": 107.2898,
      "duration": 0.0165,
      "velocity": 127,
      "chip": "ym2612"
    },
    {
      "channel": 1,
      "note": 68,
      "start": 107.4095,
      "duration": 0.6966,
      "velocity": 95,
      "chip": "ym2612"
    },
    {
      "channel": 5,
      "note": 80,
      "start": 107.4124,
      "duration": 0.0539,
      "velocity": 127,
      "chip": "ym2612"
    },
    {
      "channel": 0,
      "note": 56,
      "start": 107.4154,
      "duration": 0.2107,
      "velocity": 95,
      "chip": "ym2612"
    },
    {
      "channel": 3,
      "note": 87,
      "start": 107.6308,
      "duration": 0.1154,
      "velocity": 90,
      "chip": "ym2612"
    },
    {
      "channel": 5,
      "note": 80,
      "start": 107.6498,
      "duration": 0.0364,
      "velocity": 127,
      "chip": "ym2612"
    },
    {
      "channel": 5,
      "note": 80,
      "start": 107.7698,
      "duration": 0.0566,
      "velocity": 127,
      "chip": "ym2612"
    },
    {
      "channel": 0,
      "note": 56,
      "start": 107.7727,
      "duration": 0.2534,
      "velocity": 95,
      "chip": "ym2612"
    },
    {
      "channel": 3,
      "note": 88,
      "start": 107.776,
      "duration": 0.1902,
      "velocity": 90,
      "chip": "ym2612"
    },
    {
      "channel": 3,
      "note": 87,
      "start": 107.9907,
      "duration": 0.1156,
      "velocity": 90,
      "chip": "ym2612"
    },
    {
      "channel": 5,
      "note": 80,
      "start": 108.0306,
      "duration": 0.0157,
      "velocity": 127,
      "chip": "ym2612"
    },
    {
      "channel": 1,
      "note": 69,
      "start": 108.1498,
      "duration": 0.5763,
      "velocity": 95,
      "chip": "ym2612"
    },
    {
      "channel": 5,
      "note": 80,
      "start": 108.1527,
      "duration": 0.0536,
      "velocity": 127,
      "chip": "ym2612"
    },
    {
      "channel": 0,
      "note": 57,
      "start": 108.1561,
      "duration": 0.21,
      "velocity": 95,
      "chip": "ym2612"
    },
    {
      "channel": 3,
      "note": 88,
      "start": 108.1597,
      "duration": 0.1665,
      "velocity": 90,
      "chip": "ym2612"
    },
    {
      "channel": 5,
      "note": 80,
      "start": 108.3898,
      "duration": 0.0366,
      "velocity": 127,
      "chip": "ym2612"
    },
    {
      "channel": 5,
      "note": 80,
      "start": 108.5098,
      "duration": 0.0765,
      "velocity": 127,
      "chip": "ym2612"
    },
    {
      "channel": 0,
      "note": 57,
      "start": 108.5129,
      "duration": 0.1532,
      "velocity": 95,
      "chip": "ym2612"
    },
    {
      "channel": 3,
      "note": 88,
      "start": 108.5158,
      "duration": 0.1904,
      "velocity": 90,
      "chip": "ym2612"
    },
    {
      "channel": 1,
      "note": 71,
      "start": 108.7298,
      "duration": 0.8565,
      "velocity": 95,
      "chip": "ym2612"
    },
    {
      "channel": 0,
      "note": 59,
      "start": 108.7331,
      "duration": 0.173,
      "velocity": 95,
      "chip": "ym2612"
    },
    {
      "channel": 5,
      "note": 80,
      "start": 108.7698,
      "duration": 0.0165,
      "velocity": 127,
      "chip": "ym2612"
    },
    {
      "channel": 5,
      "note": 80,
      "start": 108.8904,
      "duration": 0.0559,
      "velocity": 127,
      "chip": "ym2612"
    },
    {
      "channel": 3,
      "note": 88,
      "start": 108.8941,
      "duration": 0.2121,
      "velocity": 90,
      "chip": "ym2612"
    },
    {
      "channel": 2,
      "note": 88,
      "start": 109.1101,
      "duration": 0.0762,
      "velocity": 98,
      "chip": "ym2612"
    },
    {
      "channel": 4,
      "note": 98,
      "start": 109.1129,
      "duration": 0.1134,
      "velocity": 98,
      "chip": "ym2612"
    },
    {
      "channel": 0,
      "note": 92,
      "start": 109.1158,
      "duration": 0.1102,
      "velocity": 98,
      "chip": "ym2612"
    },
    {
      "channel": 5,
      "note": 59,
      "start": 109.1188,
      "duration": 0.1275,
      "velocity": 95,
      "chip": "ym2612"
    },
    {
      "channel": 3,
      "note": 92,
      "start": 109.1221,
      "duration": 0.1041,
      "velocity": 90,
      "chip": "ym2612"
    },
    {
      "channel": 2,
      "note": 80,
      "start": 109.2499,
      "duration": 0.0764,
      "velocity": 127,
      "chip": "ym2612"
    },
    {
      "channel": 0,
      "note": 88,
      "start": 109.2533,
      "duration": 0.0928,
      "velocity": 98,
      "chip": "ym2612"
    },
    {
      "channel": 4,
      "note": 98,
      "start": 109.256,
      "duration": 0.1303,
      "velocity": 98,
      "chip": "ym2612"
    },
    {
      "channel": 3,
      "note": 92,
      "start": 109.2588,
      "duration": 0.1273,
      "velocity": 98,
      "chip": "ym2612"
    },
    {
      "channel": 5,
      "note": 100,
      "start": 109.4588,
      "duration": 0.2277,
      "velocity": 94,
      "chip": "ym2612"
    },
    {
      "channel": 0,
      "note": 88,
      "start": 109.4701,
      "duration": 0.0961,
      "velocity": 98,
      "chip": "ym2612"
    },
    {
      "channel": 3,
      "note": 98,
      "start": 109.4727,
      "duration": 0.1137,
      "velocity": 98,
      "chip": "ym2612"
    },
    {
      "channel": 4,
      "note": 92,
      "start": 109.4754,
      "duration": 0.1111,
      "velocity": 98,
      "chip": "ym2612"
    },
    {
      "channel": 2,
      "note": 59,
      "start": 109.4787,
      "duration": 0.0879,
      "velocity": 95,
      "chip": "ym2612"
    },
    {
      "channel": 1,
      "note": 64,
      "start": 109.6298,
      "duration": 0.6966,
      "velocity": 95,
      "chip": "ym2612"
    },
    {
      "channel": 0,
      "note": 80,
      "start": 109.6327,
      "duration": 0.0101,
      "velocity": 127,
      "chip": "ym2612"
    },
    {
      "channel": 3,
      "note": 88,
      "start": 109.6361,
      "duration": 0.0901,
      "velocity": 98,
      "chip": "ym2612"
    },
    {
      "channel": 4,
      "note": 98,
      "start": 109.6389,
      "duration": 0.1074,
      "velocity": 98,
      "chip": "ym2612"
    },
    {
      "channel": 2,
      "note": 92,
      "start": 109.6417,
      "duration": 0.1048,
      "velocity": 98,
      "chip": "ym2612"
    },
    {
      "channel": 0,
      "note": 52,
      "start": 109.6449,
      "duration": 0.2013,
      "velocity": 95,
      "chip": "ym2612"
    },
    {
      "channel": 5,
      "note": 104,
      "start": 109.6926,
      "duration": 0.9539,
      "velocity": 94,
      "chip": "ym2612"
    },
    {
      "channel": 3,
      "note": 88,
      "start": 109.8501,
      "duration": 0.0761,
      "velocity": 98,
      "chip": "ym2612"
    },
    {
      "channel": 4,
      "note": 97,
      "start": 109.8529,
      "duration": 0.1134,
      "velocity": 98,
      "chip": "ym2612"
    },
    {
      "channel": 2,
      "note": 92,
      "start": 109.8557,
      "duration": 0.1108,
      "velocity": 98,
      "chip": "ym2612"
    },
    {
      "channel": 0,
      "note": 80,
      "start": 109.87,
      "duration": 0.0363,
      "velocity": 127,
      "chip": "ym2612"
    },
    {
      "channel": 0,
      "note": 80,
      "start": 109.9905,
      "duration": 0.0756,
      "velocity": 127,
      "chip": "ym2612"
    },
    {
      "channel": 3,
      "note": 52,
      "start": 109.9941,
      "duration": 0.2722,
      "velocity": 95,
      "chip": "ym2612"
    },
    {
      "channel": 4,
      "note": 88,
      "start": 110.2101,
      "duration": 0.0963,
      "velocity": 98,
      "chip": "ym2612"
    },
    {
      "channel": 2,
      "note": 92,
      "start": 110.2133,
      "duration": 0.1134,
      "velocity": 98,
      "chip": "ym2612"
    },
    {
      "channel": 0,
      "note": 95,
      "start": 110.2161,
      "duration": 0.1101,
      "velocity": 98,
      "chip": "ym2612"
    },
    {
      "channel": 1,
      "note": 68,
      "start": 110.3695,
      "duration": 0.6967,
      "velocity": 95,
      "chip": "ym2612"
    },
    {
      "channel": 3,
      "note": 80,
      "start": 110.3726,
      "duration": 0.0537,
      "velocity": 127,
      "chip": "ym2612"
    },
    {
      "channel": 4,
      "note": 56,
      "start": 110.3758,
      "duration": 0.1705,
      "velocity": 95,
      "chip": "ym2612"
    },
    {
      "channel": 0,
      "note": 87,
      "start": 110.5907,
      "duration": 0.1154,
      "velocity": 90,
      "chip": "ym2612"
    },
    {
      "channel": 3,
      "note": 80,
      "start": 110.6097,
      "duration": 0.0367,
      "velocity": 127,
      "chip": "ym2612"
    },
    {
      "channel": 3,
      "note": 80,
      "start": 110.7297,
      "duration": 0.0765,
      "velocity": 127,
      "chip": "ym2612"
    },
    {
      "channel": 4,
      "note": 56,
      "start": 110.7328,
      "duration": 0.2134,
      "velocity": 95,
      "chip": "ym2612"
    },
    {
      "channel": 0,
      "note": 88,
      "start": 110.7359,
      "duration": 0.1902,
      "velocity": 90,
      "chip": "ym2612"
    },
    {
      "channel": 0,
      "note": 87,
      "start": 110.951,
      "duration": 0.1151,
      "velocity": 90,
      "chip": "ym2612"
    },
    {
      "channel": 3,
      "note": 80,
      "start": 110.99,
      "duration": 0.0162,
      "velocity": 127,
      "chip": "ym2612"
    },
    {
      "channel": 1,
      "note": 69,
      "start": 111.1101,
      "duration": 0.5759,
      "velocity": 95,
      "chip": "ym2612"
    },
    {
      "channel": 3,
      "note": 80,
      "start": 111.1129,
      "duration": 0.0532,
      "velocity": 127,
      "chip": "ym2612"
    },
    {
      "channel": 4,
      "note": 57,
      "start": 111.1159,
      "duration": 0.2102,
      "velocity": 95,
      "chip": "ym2612"
    },
    {
      "channel": 0,
      "note": 88,
      "start": 111.1191,
      "duration": 0.1669,
      "velocity": 90,
      "chip": "ym2612"
    },
    {
      "channel": 3,
      "note": 80,
      "start": 111.3495,
      "duration": 0.0367,
      "velocity": 127,
      "chip": "ym2612"
    },
    {
      "channel": 3,
      "note": 80,
      "start": 111.4696,
      "duration": 0.0766,
      "velocity": 127,
      "chip": "ym2612"
    },
    {
      "channel": 4,
      "note": 57,
      "start": 111.4729,
      "duration": 0.1334,
      "velocity": 95,
      "chip": "ym2612"
    },
    {
      "channel": 0,
      "note": 88,
      "start": 111.4759,
      "duration": 0.1901,
      "velocity": 90,
      "chip": "ym2612"
    },
    {
      "channel": 1,
      "note": 66,
      "start": 111.6898,
      "duration": 0.8564,
      "velocity": 95,
      "chip": "ym2612"
    },
    {
      "channel": 4,
      "note": 54,
      "start": 111.6932,
      "duration": 0.153,
      "velocity": 95,
      "chip": "ym2612"
    },
    {
      "channel": 3,
      "note": 80,
      "start": 111.7297,
      "duration": 0.0165,
      "velocity": 127,
      "chip": "ym2612"
    },
    {
      "channel": 0,
      "note": 88,
      "start": 111.7506,
      "duration": 0.0554,
      "velocity": 90,
      "chip": "ym2612"
    },
    {
      "channel": 3,
      "note": 80,
      "start": 111.8503,
      "duration": 0.0559,
      "velocity": 127,
      "chip": "ym2612"
    },
    {
      "channel": 0,
      "note": 85,
      "start": 111.8539,
      "duration": 0.1121,
      "velocity": 90,
      "chip": "ym2612"
    },
    {
      "channel": 0,
      "note": 83,
      "start": 112.0305,
      "duration": 0.1756,
      "velocity": 90,
      "chip": "ym2612"
    },
    {
      "channel": 2,
      "note": 88,
      "start": 112.0702,
      "duration": 0.0762,
      "velocity": 98,
      "chip": "ym2612"
    },
    {
      "channel": 5,
      "note": 98,
      "start": 112.0731,
      "duration": 0.1133,
      "velocity": 98,
      "chip": "ym2612"
    },
    {
      "channel": 4,
      "note": 92,
      "start": 112.0759,
      "duration": 0.1104,
      "velocity": 98,
      "chip": "ym2612"
    },
    {
      "channel": 3,
      "note": 54,
      "start": 112.0788,
      "duration": 0.1275,
      "velocity": 95,
      "chip": "ym2612"
    },
    {
      "channel": 2,
      "note": 80,
      "start": 112.21,
      "duration": 0.0763,
      "velocity": 127,
      "chip": "ym2612"
    },
    {
      "channel": 4,
      "note": 88,
      "start": 112.2131,
      "duration": 0.093,
      "velocity": 98,
      "chip": "ym2612"
    },
    {
      "channel": 5,
      "note": 98,
      "start": 112.2159,
      "duration": 0.1304,
      "velocity": 98,
      "chip": "ym2612"
    },
    {
      "channel": 0,
      "note": 92,
      "start": 112.2191,
      "duration": 0.127,
      "velocity": 98,
      "chip": "ym2612"
    },
    {
      "channel": 3,
      "note": 100,
      "start": 112.4191,
      "duration": 0.2272,
      "velocity": 94,
      "chip": "ym2612"
    },
    {
      "channel": 0,
      "note": 88,
      "start": 112.4301,
      "duration": 0.0961,
      "velocity": 98,
      "chip": "ym2612"
    },
    {
      "channel": 4,
      "note": 92,
      "start": 112.4327,
      "duration": 0.1136,
      "velocity": 98,
      "chip": "ym2612"
    },
    {
      "channel": 5,
      "note": 98,
      "start": 112.4354,
      "duration": 0.111,
      "velocity": 98,
      "chip": "ym2612"
    },
    {
      "channel": 2,
      "note": 54,
      "start": 112.4387,
      "duration": 0.108,
      "velocity": 95,
      "chip": "ym2612"
    },
    {
      "channel": 1,
      "note": 64,
      "start": 112.5898,
      "duration": 0.6966,
      "velocity": 95,
      "chip": "ym2612"
    },
    {
      "channel": 0,
      "note": 80,
      "start": 112.5927,
      "duration": 0.0102,
      "velocity": 127,
      "chip": "ym2612"
    },
    {
      "channel": 4,
      "note": 88,
      "start": 112.5958,
      "duration": 0.0905,
      "velocity": 98,
      "chip": "ym2612"
    },
    {
      "channel": 5,
      "note": 92,
      "start": 112.5986,
      "duration": 0.1078,
      "velocity": 98,
      "chip": "ym2612"
    },
    {
      "channel": 2,
      "note": 98,
      "start": 112.6014,
      "duration": 0.1051,
      "velocity": 98,
      "chip": "ym2612"
    },
    {
      "channel": 0,
      "note": 52,
      "start": 112.6049,
      "duration": 0.2013,
      "velocity": 95,
      "chip": "ym2612"
    },
    {
      "channel": 3,
      "note": 104,
      "start": 112.6526,
      "duration": 0.9537,
      "velocity": 94,
      "chip": "ym2612"
    },
    {
      "channel": 4,
      "note": 92,
      "start": 112.8105,
      "duration": 0.1158,
      "velocity": 98,
      "chip": "ym2612"
    },
    {
      "channel": 5,
      "note": 97,
      "start": 112.8131,
      "duration": 0.1134,
      "velocity": 98,
      "chip": "ym2612"
    },
    {
      "channel": 2,
      "note": 88,
      "start": 112.8161,
      "duration": 0.0703,
      "velocity": 98,
      "chip": "ym2612"
    },
    {
      "channel": 0,
      "note": 80,
      "start": 112.8299,
      "duration": 0.0363,
      "velocity": 127,
      "chip": "ym2612"
    },
    {
      "channel": 0,
      "note": 80,
      "start": 112.9506,
      "duration": 0.0757,
      "velocity": 127,
      "chip": "ym2612"
    },
    {
      "channel": 2,
      "note": 52,
      "start": 112.9537,
      "duration": 0.2128,
      "velocity": 95,
      "chip": "ym2612"
    },
    {
      "channel": 4,
      "note": 88,
      "start": 113.1701,
      "duration": 0.0963,
      "velocity": 98,
      "chip": "ym2612"
    },
    {
      "channel": 5,
      "note": 95,
      "start": 113.1729,
      "duration": 0.1137,
      "velocity": 98,
      "chip": "ym2612"
    },
    {
      "channel": 0,
      "note": 92,
      "start": 113.1757,
      "duration": 0.1105,
      "velocity": 98,
      "chip": "ym2612"
    },
    {
      "channel": 2,
      "note": 80,
      "start": 113.21,
      "duration": 0.0165,
      "velocity": 127,
      "chip": "ym2612"
    },
    {
      "channel": 1,
      "note": 68,
      "start": 113.3295,
      "duration": 0.6965,
      "velocity": 95,
      "chip": "ym2612"
    },
    {
      "channel": 2,
      "note": 80,
      "start": 113.3325,
      "duration": 0.054,
      "velocity": 127,
      "chip": "ym2612"
    },
    {
      "channel": 4,
      "note": 56,
      "start": 113.3358,
      "duration": 0.1505,
      "velocity": 95,
      "chip": "ym2612"
    },
    {
      "channel": 0,
      "note": 87,
      "start": 113.5513,
      "duration": 0.1148,
      "velocity": 90,
      "chip": "ym2612"
    },
    {
      "channel": 2,
      "note": 80,
      "start": 113.5699,
      "duration": 0.0366,
      "velocity": 127,
      "chip": "ym2612"
    },
    {
      "channel": 2,
      "note": 80,
      "start": 113.7099,
      "duration": 0.0134,
      "velocity": 127,
      "chip": "ym2612"
    },
    {
      "channel": 5,
      "note": 88,
      "start": 113.7131,
      "duration": 0.0733,
      "velocity": 98,
      "chip": "ym2612"
    },
    {
      "channel": 4,
      "note": 97,
      "start": 113.7159,
      "duration": 0.1105,
      "velocity": 98,
      "chip": "ym2612"
    },
    {
      "channel": 3,
      "note": 92,
      "start": 113.7191,
      "duration": 0.1072,
      "velocity": 98,
      "chip": "ym2612"
    },
    {
      "channel": 0,
      "note": 56,
      "start": 113.7221,
      "duration": 0.184,
      "velocity": 95,
      "chip": "ym2612"
    },
    {
      "channel": 2,
      "note": 88,
      "start": 113.7256,
      "duration": 0.1808,
      "velocity": 90,
      "chip": "ym2612"
    },
    {
      "channel": 3,
      "note": 88,
      "start": 113.9102,
      "duration": 0.0961,
      "velocity": 98,
      "chip": "ym2612"
    },
    {
      "channel": 4,
      "note": 95,
      "start": 113.9129,
      "duration": 0.1134,
      "velocity": 98,
      "chip": "ym2612"
    },
    {
      "channel": 5,
      "note": 92,
      "start": 113.9156,
      "duration": 0.1107,
      "velocity": 98,
      "chip": "ym2612"
    },
    {
      "channel": 2,
      "note": 87,
      "start": 113.9193,
      "duration": 0.1072,
      "velocity": 90,
      "chip": "ym2612"
    },
    {
      "channel": 0,
      "note": 80,
      "start": 113.9506,
      "duration": 0.0155,
      "velocity": 127,
      "chip": "ym2612"
    },
    {
      "channel": 1,
      "note": 69,
      "start": 114.0698,
      "duration": 0.6164,
      "velocity": 95,
      "chip": "ym2612"
    },
    {
      "channel": 0,
      "note": 80,
      "start": 114.0724,
      "duration": 0.0537,
      "velocity": 127,
      "chip": "ym2612"
    },
    {
      "channel": 3,
      "note": 57,
      "start": 114.078,
      "duration": 0.1682,
      "velocity": 95,
      "chip": "ym2612"
    },
    {
      "channel": 2,
      "note": 88,
      "start": 114.0815,
      "duration": 0.1649,
      "velocity": 90,
      "chip": "ym2612"
    },
    {
      "channel": 4,
      "note": 86,
      "start": 114.29,
      "duration": 0.0763,
      "velocity": 98,
      "chip": "ym2612"
    },
    {
      "channel": 5,
      "note": 90,
      "start": 114.2927,
      "duration": 0.1137,
      "velocity": 98,
      "chip": "ym2612"
    },
    {
      "channel": 0,
      "note": 93,
      "start": 114.2956,
      "duration": 0.1105,
      "velocity": 98,
      "chip": "ym2612"
    },
    {
      "channel": 3,
      "note": 80,
      "start": 114.3098,
      "duration": 0.0363,
      "velocity": 127,
      "chip": "ym2612"
    },
    {
      "channel": 3,
      "note": 80,
      "start": 114.4496,
      "duration": 0.0566,
      "velocity": 127,
      "chip": "ym2612"
    },
    {
      "channel": 2,
      "note": 57,
      "start": 114.4531,
      "duration": 0.1132,
      "velocity": 95,
      "chip": "ym2612"
    },
    {
      "channel": 4,
      "note": 88,
      "start": 114.4564,
      "duration": 0.1899,
      "velocity": 90,
      "chip": "ym2612"
    },
    {
      "channel": 0,
      "note": 83,
      "start": 114.6506,
      "duration": 0.0954,
      "velocity": 98,
      "chip": "ym2612"
    },
    {
      "channel": 5,
      "note": 92,
      "start": 114.6534,
      "duration": 0.1129,
      "velocity": 98,
      "chip": "ym2612"
    },
    {
      "channel": 3,
      "note": 88,
      "start": 114.6563,
      "duration": 0.1099,
      "velocity": 98,
      "chip": "ym2612"
    },
    {
      "channel": 2,
      "note": 58,
      "start": 114.6595,
      "duration": 0.1469,
      "velocity": 95,
      "chip": "ym2612"
    },
    {
      "channel": 4,
      "note": 80,
      "start": 114.6899,
      "duration": 0.0163,
      "velocity": 127,
      "chip": "ym2612"
    },
    {
      "channel": 1,
      "note": 70,
      "start": 114.7098,
      "duration": 0.7363,
      "velocity": 95,
      "chip": "ym2612"
    },
    {
      "channel": 4,
      "note": 80,
      "start": 114.8104,
      "duration": 0.0559,
      "velocity": 127,
      "chip": "ym2612"
    },
    {
      "channel": 0,
      "note": 88,
      "start": 114.8147,
      "duration": 0.1513,
      "velocity": 90,
      "chip": "ym2612"
    },
    {
      "channel": 3,
      "note": 80,
      "start": 114.9908,
      "duration": 0.1554,
      "velocity": 81,
      "chip": "ym2612"
    },
    {
      "channel": 5,
      "note": 88,
      "start": 115.0301,
      "duration": 0.0762,
      "velocity": 98,
      "chip": "ym2612"
    },
    {
      "channel": 2,
      "note": 95,
      "start": 115.033,
      "duration": 0.1134,
      "velocity": 98,
      "chip": "ym2612"
    },
    {
      "channel": 4,
      "note": 92,
      "start": 115.0358,
      "duration": 0.1105,
      "velocity": 98,
      "chip": "ym2612"
    },
    {
      "channel": 0,
      "note": 58,
      "start": 115.0392,
      "duration": 0.1669,
      "velocity": 95,
      "chip": "ym2612"
    },
    {
      "channel": 5,
      "note": 80,
      "start": 115.1898,
      "duration": 0.0564,
      "velocity": 127,
      "chip": "ym2612"
    },
    {
      "channel": 3,
      "note": 81,
      "start": 115.1937,
      "duration": 0.1725,
      "velocity": 81,
      "chip": "ym2612"
    },
    {
      "channel": 3,
      "note": 82,
      "start": 115.3705,
      "duration": 0.1158,
      "velocity": 81,
      "chip": "ym2612"
    },
    {
      "channel": 0,
      "note": 58,
      "start": 115.3901,
      "duration": 0.096,
      "velocity": 95,
      "chip": "ym2612"
    },
    {
      "channel": 5,
      "note": 80,
      "start": 115.4299,
      "duration": 0.0165,
      "velocity": 127,
      "chip": "ym2612"
    },
    {
      "channel": 1,
      "note": 71,
      "start": 115.4908,
      "duration": 0.2753,
      "velocity": 95,
      "chip": "ym2612"
    },
    {
      "channel": 2,
      "note": 83,
      "start": 115.5503,
      "duration": 0.3361,
      "velocity": 96,
      "chip": "ym2612"
    },
    {
      "channel": 4,
      "note": 95,
      "start": 115.5532,
      "duration": 0.1132,
      "velocity": 98,
      "chip": "ym2612"
    },
    {
      "channel": 5,
      "note": 83,
      "start": 115.5564,
      "duration": 0.1101,
      "velocity": 98,
      "chip": "ym2612"
    },
    {
      "channel": 0,
      "note": 59,
      "start": 115.5593,
      "duration": 0.1067,
      "velocity": 95,
      "chip": "ym2612"
    },
    {
      "channel": 3,
      "note": 83,
      "start": 115.5624,
      "duration": 0.1038,
      "velocity": 81,
      "chip": "ym2612"
    },
    {
      "channel": 1,
      "note": 69,
      "start": 115.7698,
      "duration": 0.3563,
      "velocity": 95,
      "chip": "ym2612"
    },
    {
      "channel": 4,
      "note": 93,
      "start": 115.7728,
      "duration": 0.1134,
      "velocity": 98,
      "chip": "ym2612"
    },
    {
      "channel": 5,
      "note": 81,
      "start": 115.7756,
      "duration": 0.1107,
      "velocity": 98,
      "chip": "ym2612"
    },
    {
      "channel": 0,
      "note": 57,
      "start": 115.7785,
      "duration": 0.1475,
      "velocity": 95,
      "chip": "ym2612"
    },
    {
      "channel": 3,
      "note": 81,
      "start": 115.7818,
      "duration": 0.1445,
      "velocity": 81,
      "chip": "ym2612"
    },
    {
      "channel": 2,
      "note": 83,
      "start": 115.9312,
      "duration": 0.1952,
      "velocity": 96,
      "chip": "ym2612"
    },
    {
      "channel": 1,
      "note": 68,
      "start": 116.1295,
      "duration": 0.3766,
      "velocity": 95,
      "chip": "ym2612"
    },
    {
      "channel": 4,
      "note": 80,
      "start": 116.1326,
      "duration": 0.1337,
      "velocity": 98,
      "chip": "ym2612"
    },
    {
      "channel": 5,
      "note": 92,
      "start": 116.1354,
      "duration": 0.131,
      "velocity": 98,
      "chip": "ym2612"
    },
    {
      "channel": 0,
      "note": 56,
      "start": 116.138,
      "duration": 0.148,
      "velocity": 95,
      "chip": "ym2612"
    },
    {
      "channel": 3,
      "note": 80,
      "start": 116.1409,
      "duration": 0.1454,
      "velocity": 81,
      "chip": "ym2612"
    },
    {
      "channel": 2,
      "note": 83,
      "start": 116.1705,
      "duration": 0.0961,
      "velocity": 96,
      "chip": "ym2612"
    },
    {
      "channel": 2,
      "note": 83,
      "start": 116.2906,
      "duration": 0.3359,
      "velocity": 96,
      "chip": "ym2612"
    },
    {
      "channel": 1,
      "note": 66,
      "start": 116.5094,
      "duration": 0.3567,
      "velocity": 95,
      "chip": "ym2612"
    },
    {
      "channel": 4,
      "note": 90,
      "start": 116.5125,
      "duration": 0.1137,
      "velocity": 98,
      "chip": "ym2612"
    },
    {
      "channel": 5,
      "note": 78,
      "start": 116.5153,
      "duration": 0.111,
      "velocity": 98,
      "chip": "ym2612"
    },
    {
      "channel": 0,
      "note": 54,
      "start": 116.518,
      "duration": 0.1681,
      "velocity": 95,
      "chip": "ym2612"
    },
    {
      "channel": 3,
      "note": 78,
      "start": 116.5211,
      "duration": 0.1652,
      "velocity": 81,
      "chip": "ym2612"
    },
    {
      "channel": 2,
      "note": 83,
      "start": 116.6705,
      "duration": 0.1959,
      "velocity": 96,
      "chip": "ym2612"
    },
    {
      "channel": 1,
      "note": 65,
      "start": 116.8699,
      "duration": 1.6162,
      "velocity": 95,
      "chip": "ym2612"
    },
    {
      "channel": 4,
      "note": 85,
      "start": 116.8729,
      "duration": 0.1333,
      "velocity": 98,
      "chip": "ym2612"
    },
    {
      "channel": 5,
      "note": 80,
      "start": 116.8761,
      "duration": 0.1303,
      "velocity": 98,
      "chip": "ym2612"
    },
    {
      "channel": 0,
      "note": 53,
      "start": 116.8794,
      "duration": 1.5667,
      "velocity": 95,
      "chip": "ym2612"
    },
    {
      "channel": 3,
      "note": 77,
      "start": 116.8827,
      "duration": 1.2235,
      "velocity": 81,
      "chip": "ym2612"
    },
    {
      "channel": 2,
      "note": 83,
      "start": 116.9104,
      "duration": 0.0961,
      "velocity": 96,
      "chip": "ym2612"
    },
    {
      "channel": 2,
      "note": 83,
      "start": 117.031,
      "duration": 0.3354,
      "velocity": 96,
      "chip": "ym2612"
    },
    {
      "channel": 4,
      "note": 92,
      "start": 117.0338,
      "duration": 0.1123,
      "velocity": 98,
      "chip": "ym2612"
    },
    {
      "channel": 5,
      "note": 85,
      "start": 117.1298,
      "duration": 0.1165,
      "velocity": 98,
      "chip": "ym2612"
    },
    {
      "channel": 4,
      "note": 92,
      "start": 117.2098,
      "duration": 0.1165,
      "velocity": 98,
      "chip": "ym2612"
    },
    {
      "channel": 5,
      "note": 85,
      "start": 117.3097,
      "duration": 0.1167,
      "velocity": 98,
      "chip": "ym2612"
    },
    {
      "channel": 2,
      "note": 83,
      "start": 117.4104,
      "duration": 0.1961,
      "velocity": 96,
      "chip": "ym2612"
    },
    {
      "channel": 4,
      "note": 92,
      "start": 117.413,
      "duration": 0.1132,
      "velocity": 98,
      "chip": "ym2612"
    },
    {
      "channel": 5,
      "note": 85,
      "start": 117.4897,
      "duration": 0.1167,
      "velocity": 98,
      "chip": "ym2612"
    },
    {
      "channel": 4,
      "note": 92,
      "start": 117.5898,
      "duration": 0.1165,
      "velocity": 98,
      "chip": "ym2612"
    },
    {
      "channel": 2,
      "note": 83,
      "start": 117.6505,
      "duration": 0.0959,
      "velocity": 96,
      "chip": "ym2612"
    },
    {
      "channel": 5,
      "note": 85,
      "start": 117.6698,
      "duration": 0.1365,
      "velocity": 98,
      "chip": "ym2612"
    },
    {
      "channel": 2,
      "note": 83,
      "start": 117.7704,
      "duration": 0.3361,
      "velocity": 96,
      "chip": "ym2612"
    },
    {
      "channel": 4,
      "note": 92,
      "start": 117.773,
      "duration": 0.1132,
      "velocity": 98,
      "chip": "ym2612"
    },
    {
      "channel": 5,
      "note": 85,
      "start": 117.8697,
      "duration": 0.1167,
      "velocity": 98,
      "chip": "ym2612"
    },
    {
      "channel": 4,
      "note": 92,
      "start": 117.9496,
      "duration": 0.1167,
      "velocity": 98,
      "chip": "ym2612"
    },
    {
      "channel": 5,
      "note": 85,
      "start": 118.0498,
      "duration": 0.1166,
      "velocity": 98,
      "chip": "ym2612"
    },
    {
      "channel": 2,
      "note": 83,
      "start": 118.1504,
      "duration": 0.1961,
      "velocity": 96,
      "chip": "ym2612"
    },
    {
      "channel": 4,
      "note": 92,
      "start": 118.1531,
      "duration": 0.1132,
      "velocity": 98,
      "chip": "ym2612"
    },
    {
      "channel": 3,
      "note": 73,
      "start": 118.1566,
      "duration": 0.1895,
      "velocity": 90,
      "chip": "ym2612"
    },
    {
      "channel": 5,
      "note": 85,
      "start": 118.2305,
      "duration": 0.1158,
      "velocity": 98,
      "chip": "ym2612"
    },
    {
      "channel": 4,
      "note": 92,
      "start": 118.3298,
      "duration": 0.1166,
      "velocity": 98,
      "chip": "ym2612"
    },
    {
      "channel": 2,
      "note": 83,
      "start": 118.3905,
      "duration": 0.096,
      "velocity": 96,
      "chip": "ym2612"
    },
    {
      "channel": 5,
      "note": 85,
      "start": 118.4099,
      "duration": 0.1364,
      "velocity": 98,
      "chip": "ym2612"
    },
    {
      "channel": 3,
      "note": 77,
      "start": 118.4133,
      "duration": 0.0729,
      "velocity": 90,
      "chip": "ym2612"
    },
    {
      "channel": 2,
      "note": 81,
      "start": 118.5095,
      "duration": 0.0569,
      "velocity": 125,
      "chip": "ym2612"
    },
    {
      "channel": 4,
      "note": 92,
      "start": 118.5169,
      "duration": 0.0494,
      "velocity": 98,
      "chip": "ym2612"
    },
    {
      "channel": 0,
      "note": 49,
      "start": 118.5198,
      "duration": 0.2063,
      "velocity": 95,
      "chip": "ym2612"
    },
    {
      "channel": 3,
      "note": 80,
      "start": 118.5232,
      "duration": 0.8232,
      "velocity": 90,
      "chip": "ym2612"
    },
    {
      "channel": 2,
      "note": 81,
      "start": 118.7492,
      "duration": 0.0371,
      "velocity": 125,
      "chip": "ym2612"
    },
    {
      "channel": 2,
      "note": 81,
      "start": 118.8891,
      "duration": 0.0572,
      "velocity": 125,
      "chip": "ym2612"
    },
    {
      "channel": 1,
      "note": 82,
      "start": 118.8922,
      "duration": 0.0538,
      "velocity": 127,
      "chip": "ym2612"
    },
    {
      "channel": 0,
      "note": 49,
      "start": 118.8952,
      "duration": 0.2509,
      "velocity": 95,
      "chip": "ym2612"
    },
    {
      "channel": 2,
      "note": 81,
      "start": 119.1291,
      "duration": 0.0174,
      "velocity": 125,
      "chip": "ym2612"
    },
    {
      "channel": 5,
      "note": 45,
      "start": 119.1324,
      "duration": 0.0539,
      "velocity": 99,
      "chip": "ym2612"
    },
    {
      "channel": 2,
      "note": 81,
      "start": 119.2492,
      "duration": 0.0301,
      "velocity": 125,
      "chip": "ym2612"
    },
    {
      "channel": 5,
      "note": 52,
      "start": 119.2524,
      "duration": 0.001,
      "velocity": 99,
      "chip": "ym2612"
    },
    {
      "channel": 0,
      "note": 53,
      "start": 119.2601,
      "duration": 0.0862,
      "velocity": 95,
      "chip": "ym2612"
    },
    {
      "channel": 2,
      "note": 81,
      "start": 119.3585,
      "duration": 0.0158,
      "velocity": 125,
      "chip": "ym2612"
    },
    {
      "channel": 2,
      "note": 81,
      "start": 119.418,
      "duration": 0.0305,
      "velocity": 125,
      "chip": "ym2612"
    },
    {
      "channel": 1,
      "note": 82,
      "start": 119.4203,
      "duration": 0.0278,
      "velocity": 127,
      "chip": "ym2612"
    },
    {
      "channel": 0,
      "note": 53,
      "start": 119.4229,
      "duration": 0.2052,
      "velocity": 95,
      "chip": "ym2612"
    },
    {
      "channel": 3,
      "note": 80,
      "start": 119.4274,
      "duration": 0.2009,
      "velocity": 90,
      "chip": "ym2612"
    },
    {
      "channel": 2,
      "note": 81,
      "start": 119.6315,
      "duration": 0.0168,
      "velocity": 125,
      "chip": "ym2612"
    },
    {
      "channel": 3,
      "note": 81,
      "start": 119.6527,
      "duration": 0.0755,
      "velocity": 90,
      "chip": "ym2612"
    },
    {
      "channel": 2,
      "note": 81,
      "start": 119.7512,
      "duration": 0.0571,
      "velocity": 125,
      "chip": "ym2612"
    },
    {
      "channel": 0,
      "note": 54,
      "start": 119.7544,
      "duration": 0.2137,
      "velocity": 95,
      "chip": "ym2612"
    },
    {
      "channel": 3,
      "note": 78,
      "start": 119.7576,
      "duration": 0.7105,
      "velocity": 90,
      "chip": "ym2612"
    },
    {
      "channel": 2,
      "note": 81,
      "start": 119.9912,
      "duration": 0.0371,
      "velocity": 125,
      "chip": "ym2612"
    },
    {
      "channel": 2,
      "note": 81,
      "start": 120.1312,
      "duration": 0.0572,
      "velocity": 125,
      "chip": "ym2612"
    },
    {
      "channel": 1,
      "note": 82,
      "start": 120.1337,
      "duration": 0.0544,
      "velocity": 127,
      "chip": "ym2612"
    },
    {
      "channel": 0,
      "note": 54,
      "start": 120.1368,
      "duration": 0.2514,
      "velocity": 95,
      "chip": "ym2612"
    },
    {
      "channel": 2,
      "note": 81,
      "start": 120.3716,
      "duration": 0.0169,
      "velocity": 125,
      "chip": "ym2612"
    },
    {
      "channel": 4,
      "note": 45,
      "start": 120.3748,
      "duration": 0.0534,
      "velocity": 99,
      "chip": "ym2612"
    },
    {
      "channel": 2,
      "note": 81,
      "start": 120.4912,
      "duration": 0.0573,
      "velocity": 125,
      "chip": "ym2612"
    },
    {
      "channel": 4,
      "note": 52,
      "start": 120.4941,
      "duration": 0.0541,
      "velocity": 99,
      "chip": "ym2612"
    },
    {
      "channel": 0,
      "note": 57,
      "start": 120.4973,
      "duration": 0.2309,
      "velocity": 95,
      "chip": "ym2612"
    },
    {
      "channel": 3,
      "note": 73,
      "start": 120.5002,
      "duration": 0.7081,
      "velocity": 90,
      "chip": "ym2612"
    },
    {
      "channel": 2,
      "note": 81,
      "start": 120.7314,
      "duration": 0.0369,
      "velocity": 125,
      "chip": "ym2612"
    },
    {
      "channel": 4,
      "note": 52,
      "start": 120.7343,
      "duration": 0.0739,
      "velocity": 99,
      "chip": "ym2612"
    },
    {
      "channel": 2,
      "note": 81,
      "start": 120.8711,
      "duration": 0.0572,
      "velocity": 125,
      "chip": "ym2612"
    },
    {
      "channel": 1,
      "note": 82,
      "start": 120.8741,
      "duration": 0.0541,
      "velocity": 127,
      "chip": "ym2612"
    },
    {
      "channel": 0,
      "note": 57,
      "start": 120.8775,
      "duration": 0.3307,
      "velocity": 95,
      "chip": "ym2612"
    },
    {
      "channel": 2,
      "note": 81,
      "start": 121.0712,
      "duration": 0.1571,
      "velocity": 122,
      "chip": "ym2612"
    },
    {
      "channel": 2,
      "note": 81,
      "start": 121.2311,
      "duration": 0.0571,
      "velocity": 125,
      "chip": "ym2612"
    },
    {
      "channel": 0,
      "note": 49,
      "start": 121.2344,
      "duration": 0.2337,
      "velocity": 95,
      "chip": "ym2612"
    },
    {
      "channel": 3,
      "note": 80,
      "start": 121.2376,
      "duration": 0.8397,
      "velocity": 90,
      "chip": "ym2612"
    },
    {
      "channel": 2,
      "note": 81,
      "start": 121.4713,
      "duration": 0.037,
      "velocity": 125,
      "chip": "ym2612"
    },
    {
      "channel": 2,
      "note": 81,
      "start": 121.6117,
      "duration": 0.0567,
      "velocity": 125,
      "chip": "ym2612"
    },
    {
      "channel": 1,
      "note": 82,
      "start": 121.6142,
      "duration": 0.054,
      "velocity": 127,
      "chip": "ym2612"
    },
    {
      "channel": 0,
      "note": 49,
      "start": 121.6172,
      "duration": 0.2709,
      "velocity": 95,
      "chip": "ym2612"
    },
    {
      "channel": 2,
      "note": 81,
      "start": 121.8512,
      "duration": 0.0372,
      "velocity": 125,
      "chip": "ym2612"
    },
    {
      "channel": 4,
      "note": 45,
      "start": 121.8546,
      "duration": 0.0537,
      "velocity": 99,
      "chip": "ym2612"
    },
    {
      "channel": 2,
      "note": 81,
      "start": 121.9712,
      "duration": 0.0308,
      "velocity": 125,
      "chip": "ym2612"
    },
    {
      "channel": 4,
      "note": 52,
      "start": 121.9744,
      "duration": 0.0536,
      "velocity": 99,
      "chip": "ym2612"
    },
    {
      "channel": 0,
      "note": 53,
      "start": 121.9815,
      "duration": 0.0874,
      "velocity": 95,
      "chip": "ym2612"
    },
    {
      "channel": 2,
      "note": 81,
      "start": 122.0812,
      "duration": 0.0152,
      "velocity": 125,
      "chip": "ym2612"
    },
    {
      "channel": 2,
      "note": 81,
      "start": 122.1405,
      "duration": 0.0314,
      "velocity": 125,
      "chip": "ym2612"
    },
    {
      "channel": 1,
      "note": 82,
      "start": 122.1428,
      "duration": 0.0288,
      "velocity": 127,
      "chip": "ym2612"
    },
    {
      "channel": 0,
      "note": 53,
      "start": 122.1455,
      "duration": 0.246,
      "velocity": 95,
      "chip": "ym2612"
    },
    {
      "channel": 3,
      "note": 80,
      "start": 122.1495,
      "duration": 0.202,
      "velocity": 90,
      "chip": "ym2612"
    },
    {
      "channel": 2,
      "note": 81,
      "start": 122.355,
      "duration": 0.0368,
      "velocity": 125,
      "chip": "ym2612"
    },
    {
      "channel": 3,
      "note": 81,
      "start": 122.3966,
      "duration": 0.0549,
      "velocity": 90,
      "chip": "ym2612"
    },
    {
      "channel": 2,
      "note": 81,
      "start": 122.4746,
      "duration": 0.0571,
      "velocity": 125,
      "chip": "ym2612"
    },
    {
      "channel": 0,
      "note": 54,
      "start": 122.4778,
      "duration": 0.2337,
      "velocity": 95,
      "chip": "ym2612"
    },
    {
      "channel": 3,
      "note": 83,
      "start": 122.4811,
      "duration": 0.5705,
      "velocity": 90,
      "chip": "ym2612"
    },
    {
      "channel": 2,
      "note": 81,
      "start": 122.7147,
      "duration": 0.0371,
      "velocity": 125,
      "chip": "ym2612"
    },
    {
      "channel": 2,
      "note": 81,
      "start": 122.8546,
      "duration": 0.0573,
      "velocity": 125,
      "chip": "ym2612"
    },
    {
      "channel": 1,
      "note": 82,
      "start": 122.8572,
      "duration": 0.0544,
      "velocity": 127,
      "chip": "ym2612"
    },
    {
      "channel": 0,
      "note": 54,
      "start": 122.8602,
      "duration": 0.2712,
      "velocity": 95,
      "chip": "ym2612"
    },
    {
      "channel": 3,
      "note": 81,
      "start": 123.0562,
      "duration": 0.0755,
      "velocity": 90,
      "chip": "ym2612"
    },
    {
      "channel": 2,
      "note": 81,
      "start": 123.0946,
      "duration": 0.0373,
      "velocity": 125,
      "chip": "ym2612"
    },
    {
      "channel": 4,
      "note": 45,
      "start": 123.0978,
      "duration": 0.0539,
      "velocity": 99,
      "chip": "ym2612"
    },
    {
      "channel": 3,
      "note": 80,
      "start": 123.1363,
      "duration": 0.0752,
      "velocity": 90,
      "chip": "ym2612"
    },
    {
      "channel": 2,
      "note": 81,
      "start": 123.215,
      "duration": 0.0568,
      "velocity": 125,
      "chip": "ym2612"
    },
    {
      "channel": 4,
      "note": 52,
      "start": 123.218,
      "duration": 0.0537,
      "velocity": 99,
      "chip": "ym2612"
    },
    {
      "channel": 0,
      "note": 57,
      "start": 123.221,
      "duration": 0.2105,
      "velocity": 95,
      "chip": "ym2612"
    },
    {
      "channel": 3,
      "note": 81,
      "start": 123.2244,
      "duration": 0.3272,
      "velocity": 90,
      "chip": "ym2612"
    },
    {
      "channel": 2,
      "note": 81,
      "start": 123.4746,
      "duration": 0.0171,
      "velocity": 125,
      "chip": "ym2612"
    },
    {
      "channel": 4,
      "note": 52,
      "start": 123.4776,
      "duration": 0.054,
      "velocity": 99,
      "chip": "ym2612"
    },
    {
      "channel": 2,
      "note": 81,
      "start": 123.5946,
      "duration": 0.0573,
      "velocity": 125,
      "chip": "ym2612"
    },
    {
      "channel": 1,
      "note": 82,
      "start": 123.5972,
      "duration": 0.0544,
      "velocity": 127,
      "chip": "ym2612"
    },
    {
      "channel": 0,
      "note": 57,
      "start": 123.6006,
      "duration": 0.3309,
      "velocity": 95,
      "chip": "ym2612"
    },
    {
      "channel": 3,
      "note": 83,
      "start": 123.6035,
      "duration": 0.3281,
      "velocity": 90,
      "chip": "ym2612"
    },
    {
      "channel": 2,
      "note": 81,
      "start": 123.7942,
      "duration": 0.1575,
      "velocity": 122,
      "chip": "ym2612"
    },
    {
      "channel": 2,
      "note": 81,
      "start": 123.9545,
      "duration": 0.0572,
      "velocity": 125,
      "chip": "ym2612"
    },
    {
      "channel": 0,
      "note": 49,
      "start": 123.9577,
      "duration": 0.2537,
      "velocity": 95,
      "chip": "ym2612"
    },
    {
      "channel": 3,
      "note": 80,
      "start": 123.9613,
      "duration": 0.8576,
      "velocity": 90,
      "chip": "ym2612"
    },
    {
      "channel": 2,
      "note": 81,
      "start": 124.2147,
      "duration": 0.017,
      "velocity": 125,
      "chip": "ym2612"
    },
    {
      "channel": 2,
      "note": 81,
      "start": 124.3347,
      "duration": 0.0572,
      "velocity": 125,
      "chip": "ym2612"
    },
    {
      "channel": 1,
      "note": 82,
      "start": 124.3372,
      "duration": 0.0544,
      "velocity": 127,
      "chip": "ym2612"
    },
    {
      "channel": 0,
      "note": 49,
      "start": 124.3402,
      "duration": 0.2713,
      "velocity": 95,
      "chip": "ym2612"
    },
    {
      "channel": 2,
      "note": 81,
      "start": 124.5749,
      "duration": 0.0369,
      "velocity": 125,
      "chip": "ym2612"
    },
    {
      "channel": 4,
      "note": 45,
      "start": 124.5779,
      "duration": 0.0537,
      "velocity": 99,
      "chip": "ym2612"
    },
    {
      "channel": 2,
      "note": 81,
      "start": 124.6946,
      "duration": 0.0299,
      "velocity": 125,
      "chip": "ym2612"
    },
    {
      "channel": 4,
      "note": 52,
      "start": 124.6981,
      "duration": 0.0515,
      "velocity": 99,
      "chip": "ym2612"
    },
    {
      "channel": 0,
      "note": 53,
      "start": 124.7053,
      "duration": 0.0866,
      "velocity": 95,
      "chip": "ym2612"
    },
    {
      "channel": 2,
      "note": 81,
      "start": 124.8109,
      "duration": 0.0083,
      "velocity": 125,
      "chip": "ym2612"
    },
    {
      "channel": 2,
      "note": 81,
      "start": 124.8631,
      "duration": 0.031,
      "velocity": 125,
      "chip": "ym2612"
    },
    {
      "channel": 1,
      "note": 82,
      "start": 124.8656,
      "duration": 0.0283,
      "velocity": 127,
      "chip": "ym2612"
    },
    {
      "channel": 0,
      "note": 53,
      "start": 124.8683,
      "duration": 0.2455,
      "velocity": 95,
      "chip": "ym2612"
    },
    {
      "channel": 3,
      "note": 80,
      "start": 124.8722,
      "duration": 0.2017,
      "velocity": 90,
      "chip": "ym2612"
    },
    {
      "channel": 2,
      "note": 81,
      "start": 125.077,
      "duration": 0.0371,
      "velocity": 125,
      "chip": "ym2612"
    },
    {
      "channel": 3,
      "note": 81,
      "start": 125.1186,
      "duration": 0.0553,
      "velocity": 90,
      "chip": "ym2612"
    },
    {
      "channel": 2,
      "note": 81,
      "start": 125.1973,
      "duration": 0.0566,
      "velocity": 125,
      "chip": "ym2612"
    },
    {
      "channel": 0,
      "note": 54,
      "start": 125.2005,
      "duration": 0.2132,
      "velocity": 95,
      "chip": "ym2612"
    },
    {
      "channel": 3,
      "note": 78,
      "start": 125.2038,
      "duration": 0.7101,
      "velocity": 90,
      "chip": "ym2612"
    },
    {
      "channel": 2,
      "note": 81,
      "start": 125.4569,
      "duration": 0.0171,
      "velocity": 125,
      "chip": "ym2612"
    },
    {
      "channel": 2,
      "note": 81,
      "start": 125.5769,
      "duration": 0.0572,
      "velocity": 125,
      "chip": "ym2612"
    },
    {
      "channel": 1,
      "note": 82,
      "start": 125.5795,
      "duration": 0.0544,
      "velocity": 127,
      "chip": "ym2612"
    },
    {
      "channel": 0,
      "note": 54,
      "start": 125.5825,
      "duration": 0.2913,
      "velocity": 95,
      "chip": "ym2612"
    },
    {
      "channel": 2,
      "note": 81,
      "start": 125.817,
      "duration": 0.0371,
      "velocity": 125,
      "chip": "ym2612"
    },
    {
      "channel": 4,
      "note": 45,
      "start": 125.82,
      "duration": 0.0539,
      "velocity": 99,
      "chip": "ym2612"
    },
    {
      "channel": 2,
      "note": 81,
      "start": 125.9369,
      "duration": 0.0573,
      "velocity": 125,
      "chip": "ym2612"
    },
    {
      "channel": 4,
      "note": 52,
      "start": 125.9398,
      "duration": 0.0541,
      "velocity": 99,
      "chip": "ym2612"
    },
    {
      "channel": 0,
      "note": 57,
      "start": 125.943,
      "duration": 0.2509,
      "velocity": 95,
      "chip": "ym2612"
    },
    {
      "channel": 3,
      "note": 73,
      "start": 125.9459,
      "duration": 0.708,
      "velocity": 90,
      "chip": "ym2612"
    },
    {
      "channel": 2,
      "note": 81,
      "start": 126.197,
      "duration": 0.0171,
      "velocity": 125,
      "chip": "ym2612"
    },
    {
      "channel": 4,
      "note": 52,
      "start": 126.2,
      "duration": 0.054,
      "velocity": 99,
      "chip": "ym2612"
    },
    {
      "channel": 2,
      "note": 81,
      "start": 126.3173,
      "duration": 0.0568,
      "velocity": 125,
      "chip": "ym2612"
    },
    {
      "channel": 1,
      "note": 82,
      "start": 126.3198,
      "duration": 0.0541,
      "velocity": 127,
      "chip": "ym2612"
    },
    {
      "channel": 0,
      "note": 57,
      "start": 126.3232,
      "duration": 0.2906,
      "velocity": 95,
      "chip": "ym2612"
    },
    {
      "channel": 2,
      "note": 81,
      "start": 126.5368,
      "duration": 0.1372,
      "velocity": 122,
      "chip": "ym2612"
    },
    {
      "channel": 2,
      "note": 81,
      "start": 126.677,
      "duration": 0.0571,
      "velocity": 125,
      "chip": "ym2612"
    },
    {
      "channel": 0,
      "note": 49,
      "start": 126.6802,
      "duration": 0.2137,
      "velocity": 95,
      "chip": "ym2612"
    },
    {
      "channel": 3,
      "note": 77,
      "start": 126.6834,
      "duration": 0.9905,
      "velocity": 90,
      "chip": "ym2612"
    },
    {
      "channel": 2,
      "note": 81,
      "start": 126.9369,
      "duration": 0.0171,
      "velocity": 125,
      "chip": "ym2612"
    },
    {
      "channel": 2,
      "note": 81,
      "start": 127.0569,
      "duration": 0.0573,
      "velocity": 125,
      "chip": "ym2612"
    },
    {
      "channel": 1,
      "note": 82,
      "start": 127.0595,
      "duration": 0.0544,
      "velocity": 127,
      "chip": "ym2612"
    },
    {
      "channel": 0,
      "note": 49,
      "start": 127.0625,
      "duration": 0.2312,
      "velocity": 95,
      "chip": "ym2612"
    },
    {
      "channel": 2,
      "note": 81,
      "start": 127.2969,
      "duration": 0.0373,
      "velocity": 125,
      "chip": "ym2612"
    },
    {
      "channel": 4,
      "note": 45,
      "start": 127.2999,
      "duration": 0.054,
      "velocity": 99,
      "chip": "ym2612"
    },
    {
      "channel": 2,
      "note": 81,
      "start": 127.4173,
      "duration": 0.0568,
      "velocity": 125,
      "chip": "ym2612"
    },
    {
      "channel": 4,
      "note": 52,
      "start": 127.4204,
      "duration": 0.1136,
      "velocity": 99,
      "chip": "ym2612"
    },
    {
      "channel": 0,
      "note": 49,
      "start": 127.4233,
      "duration": 0.2505,
      "velocity": 95,
      "chip": "ym2612"
    },
    {
      "channel": 2,
      "note": 81,
      "start": 127.6772,
      "duration": 0.0168,
      "velocity": 125,
      "chip": "ym2612"
    },
    {
      "channel": 2,
      "note": 81,
      "start": 127.7969,
      "duration": 0.0573,
      "velocity": 125,
      "chip": "ym2612"
    },
    {
      "channel": 1,
      "note": 82,
      "start": 127.7995,
      "duration": 0.0544,
      "velocity": 127,
      "chip": "ym2612"
    },
    {
      "channel": 0,
      "note": 49,
      "start": 127.8027,
      "duration": 0.0511,
      "velocity": 95,
      "chip": "ym2612"
    },
    {
      "channel": 3,
      "note": 77,
      "start": 127.8063,
      "duration": 0.2076,
      "velocity": 90,
      "chip": "ym2612"
    },
    {
      "channel": 2,
      "note": 81,
      "start": 128.037,
      "duration": 0.0371,
      "velocity": 125,
      "chip": "ym2612"
    },
    {
      "channel": 0,
      "note": 49,
      "start": 128.0779,
      "duration": 0.016,
      "velocity": 95,
      "chip": "ym2612"
    },
    {
      "channel": 3,
      "note": 78,
      "start": 128.0811,
      "duration": 0.0728,
      "velocity": 90,
      "chip": "ym2612"
    },
    {
      "channel": 2,
      "note": 81,
      "start": 128.157,
      "duration": 0.0569,
      "velocity": 125,
      "chip": "ym2612"
    },
    {
      "channel": 0,
      "note": 49,
      "start": 128.1604,
      "duration": 0.2534,
      "velocity": 95,
      "chip": "ym2612"
    },
    {
      "channel": 3,
      "note": 80,
      "start": 128.1636,
      "duration": 1.0503,
      "velocity": 90,
      "chip": "ym2612"
    },
    {
      "channel": 2,
      "note": 81,
      "start": 128.417,
      "duration": 0.017,
      "velocity": 125,
      "chip": "ym2612"
    },
    {
      "channel": 2,
      "note": 81,
      "start": 128.5373,
      "duration": 0.0568,
      "velocity": 125,
      "chip": "ym2612"
    },
    {
      "channel": 1,
      "note": 82,
      "start": 128.5399,
      "duration": 0.054,
      "velocity": 127,
      "chip": "ym2612"
    },
    {
      "channel": 0,
      "note": 49,
      "start": 128.5431,
      "duration": 0.2307,
      "velocity": 95,
      "chip": "ym2612"
    },
    {
      "channel": 2,
      "note": 81,
      "start": 128.777,
      "duration": 0.0371,
      "velocity": 125,
      "chip": "ym2612"
    },
    {
      "channel": 4,
      "note": 45,
      "start": 128.7801,
      "duration": 0.0539,
      "velocity": 99,
      "chip": "ym2612"
    },
    {
      "channel": 2,
      "note": 81,
      "start": 128.897,
      "duration": 0.0571,
      "velocity": 125,
      "chip": "ym2612"
    },
    {
      "channel": 4,
      "note": 52,
      "start": 128.9003,
      "duration": 0.0536,
      "velocity": 99,
      "chip": "ym2612"
    },
    {
      "channel": 0,
      "note": 49,
      "start": 128.9032,
      "duration": 0.2505,
      "velocity": 95,
      "chip": "ym2612"
    },
    {
      "channel": 2,
      "note": 81,
      "start": 129.157,
      "duration": 0.0171,
      "velocity": 125,
      "chip": "ym2612"
    },
    {
      "channel": 4,
      "note": 52,
      "start": 129.1599,
      "duration": 0.0541,
      "velocity": 99,
      "chip": "ym2612"
    },
    {
      "channel": 2,
      "note": 81,
      "start": 129.2768,
      "duration": 0.0573,
      "velocity": 125,
      "chip": "ym2612"
    },
    {
      "channel": 1,
      "note": 82,
      "start": 129.2796,
      "duration": 0.0543,
      "velocity": 127,
      "chip": "ym2612"
    },
    {
      "channel": 5,
      "note": 85,
      "start": 129.2828,
      "duration": 0.2112,
      "velocity": 98,
      "chip": "ym2612"
    },
    {
      "channel": 0,
      "note": 49,
      "start": 129.2858,
      "duration": 0.048,
      "velocity": 95,
      "chip": "ym2612"
    },
    {
      "channel": 3,
      "note": 85,
      "start": 129.2891,
      "duration": 0.2048,
      "velocity": 90,
      "chip": "ym2612"
    },
    {
      "channel": 2,
      "note": 81,
      "start": 129.5174,
      "duration": 0.0367,
      "velocity": 125,
      "chip": "ym2612"
    },
    {
      "channel": 5,
      "note": 89,
      "start": 129.558,
      "duration": 0.0561,
      "velocity": 98,
      "chip": "ym2612"
    },
    {
      "channel": 0,
      "note": 49,
      "start": 129.5607,
      "duration": 0.053,
      "velocity": 95,
      "chip": "ym2612"
    },
    {
      "channel": 3,
      "note": 89,
      "start": 129.5641,
      "duration": 0.0498,
      "velocity": 90,
      "chip": "ym2612"
    },
    {
      "channel": 2,
      "note": 81,
      "start": 129.6372,
      "duration": 0.3369,
      "velocity": 122,
      "chip": "ym2612"
    },
    {
      "channel": 1,
      "note": 80,
      "start": 129.64,
      "duration": 0.0539,
      "velocity": 127,
      "chip": "ym2612"
    },
    {
      "channel": 5,
      "note": 92,
      "start": 129.6432,
      "duration": 0.951,
      "velocity": 98,
      "chip": "ym2612"
    },
    {
      "channel": 0,
      "note": 49,
      "start": 129.6462,
      "duration": 0.3276,
      "velocity": 95,
      "chip": "ym2612"
    },
    {
      "channel": 3,
      "note": 92,
      "start": 129.6494,
      "duration": 0.9446,
      "velocity": 90,
      "chip": "ym2612"
    },
    {
      "channel": 1,
      "note": 80,
      "start": 129.8977,
      "duration": 0.0162,
      "velocity": 127,
      "chip": "ym2612"
    },
    {
      "channel": 4,
      "note": 100,
      "start": 129.9866,
      "duration": 0.2275,
      "velocity": 94,
      "chip": "ym2612"
    },
    {
      "channel": 1,
      "note": 80,
      "start": 130.0173,
      "duration": 0.0566,
      "velocity": 127,
      "chip": "ym2612"
    },
    {
      "channel": 0,
      "note": 53,
      "start": 130.0204,
      "duration": 0.3535,
      "velocity": 95,
      "chip": "ym2612"
    },
    {
      "channel": 4,
      "note": 104,
      "start": 130.2198,
      "duration": 0.9544,
      "velocity": 94,
      "chip": "ym2612"
    },
    {
      "channel": 2,
      "note": 45,
      "start": 130.2577,
      "duration": 0.0566,
      "velocity": 99,
      "chip": "ym2612"
    },
    {
      "channel": 1,
      "note": 80,
      "start": 130.2605,
      "duration": 0.0334,
      "velocity": 127,
      "chip": "ym2612"
    },
    {
      "channel": 2,
      "note": 81,
      "start": 130.3766,
      "duration": 0.3375,
      "velocity": 122,
      "chip": "ym2612"
    },
    {
      "channel": 1,
      "note": 52,
      "start": 130.38,
      "duration": 0.0041,
      "velocity": 99,
      "chip": "ym2612"
    },
    {
      "channel": 0,
      "note": 80,
      "start": 130.3829,
      "duration": 0.0511,
      "velocity": 127,
      "chip": "ym2612"
    },
    {
      "channel": 1,
      "note": 56,
      "start": 130.3862,
      "duration": 0.3077,
      "velocity": 95,
      "chip": "ym2612"
    },
    {
      "channel": 0,
      "note": 80,
      "start": 130.6373,
      "duration": 0.0165,
      "velocity": 127,
      "chip": "ym2612"
    },
    {
      "channel": 0,
      "note": 80,
      "start": 130.7581,
      "duration": 0.0559,
      "velocity": 127,
      "chip": "ym2612"
    },
    {
      "channel": 5,
      "note": 92,
      "start": 130.7616,
      "duration": 0.2326,
      "velocity": 98,
      "chip": "ym2612"
    },
    {
      "channel": 1,
      "note": 57,
      "start": 130.765,
      "duration": 0.069,
      "velocity": 95,
      "chip": "ym2612"
    },
    {
      "channel": 3,
      "note": 92,
      "start": 130.7686,
      "duration": 0.2254,
      "velocity": 90,
      "chip": "ym2612"
    },
    {
      "channel": 0,
      "note": 80,
      "start": 130.9976,
      "duration": 0.0364,
      "velocity": 127,
      "chip": "ym2612"
    },
    {
      "channel": 5,
      "note": 93,
      "start": 131.038,
      "duration": 0.0562,
      "velocity": 98,
      "chip": "ym2612"
    },
    {
      "channel": 1,
      "note": 57,
      "start": 131.0411,
      "duration": 0.0529,
      "velocity": 95,
      "chip": "ym2612"
    },
    {
      "channel": 3,
      "note": 93,
      "start": 131.0443,
      "duration": 0.0498,
      "velocity": 90,
      "chip": "ym2612"
    },
    {
      "channel": 2,
      "note": 81,
      "start": 131.1166,
      "duration": 0.3375,
      "velocity": 122,
      "chip": "ym2612"
    },
    {
      "channel": 0,
      "note": 80,
      "start": 131.1195,
      "duration": 0.0544,
      "velocity": 127,
      "chip": "ym2612"
    },
    {
      "channel": 5,
      "note": 90,
      "start": 131.1227,
      "duration": 0.7114,
      "velocity": 98,
      "chip": "ym2612"
    },
    {
      "channel": 1,
      "note": 54,
      "start": 131.1256,
      "duration": 0.3281,
      "velocity": 95,
      "chip": "ym2612"
    },
    {
      "channel": 3,
      "note": 90,
      "start": 131.1289,
      "duration": 0.705,
      "velocity": 90,
      "chip": "ym2612"
    },
    {
      "channel": 0,
      "note": 80,
      "start": 131.3772,
      "duration": 0.0166,
      "velocity": 127,
      "chip": "ym2612"
    },
    {
      "channel": 0,
      "note": 80,
      "start": 131.4973,
      "duration": 0.0566,
      "velocity": 127,
      "chip": "ym2612"
    },
    {
      "channel": 1,
      "note": 49,
      "start": 131.5002,
      "duration": 0.3336,
      "velocity": 95,
      "chip": "ym2612"
    },
    {
      "channel": 4,
      "note": 45,
      "start": 131.7376,
      "duration": 0.0564,
      "velocity": 99,
      "chip": "ym2612"
    },
    {
      "channel": 0,
      "note": 80,
      "start": 131.7407,
      "duration": 0.0332,
      "velocity": 127,
      "chip": "ym2612"
    },
    {
      "channel": 2,
      "note": 81,
      "start": 131.8565,
      "duration": 0.3376,
      "velocity": 122,
      "chip": "ym2612"
    },
    {
      "channel": 4,
      "note": 52,
      "start": 131.8595,
      "duration": 0.0544,
      "velocity": 99,
      "chip": "ym2612"
    },
    {
      "channel": 0,
      "note": 80,
      "start": 131.8623,
      "duration": 0.0515,
      "velocity": 127,
      "chip": "ym2612"
    },
    {
      "channel": 5,
      "note": 85,
      "start": 131.8651,
      "duration": 0.709,
      "velocity": 98,
      "chip": "ym2612"
    },
    {
      "channel": 1,
      "note": 52,
      "start": 131.8678,
      "duration": 0.326,
      "velocity": 95,
      "chip": "ym2612"
    },
    {
      "channel": 3,
      "note": 85,
      "start": 131.8707,
      "duration": 0.7031,
      "velocity": 90,
      "chip": "ym2612"
    },
    {
      "channel": 4,
      "note": 52,
      "start": 132.1173,
      "duration": 0.0567,
      "velocity": 99,
      "chip": "ym2612"
    },
    {
      "channel": 0,
      "note": 80,
      "start": 132.12,
      "duration": 0.0138,
      "velocity": 127,
      "chip": "ym2612"
    },
    {
      "channel": 0,
      "note": 80,
      "start": 132.2373,
      "duration": 0.0564,
      "velocity": 127,
      "chip": "ym2612"
    },
    {
      "channel": 1,
      "note": 54,
      "start": 132.2404,
      "duration": 0.2735,
      "velocity": 95,
      "chip": "ym2612"
    },
    {
      "channel": 0,
      "note": 80,
      "start": 132.4772,
      "duration": 0.0366,
      "velocity": 127,
      "chip": "ym2612"
    },
    {
      "channel": 2,
      "note": 81,
      "start": 132.5966,
      "duration": 0.3376,
      "velocity": 122,
      "chip": "ym2612"
    },
    {
      "channel": 0,
      "note": 80,
      "start": 132.5995,
      "duration": 0.0543,
      "velocity": 127,
      "chip": "ym2612"
    },
    {
      "channel": 5,
      "note": 92,
      "start": 132.6027,
      "duration": 0.9915,
      "velocity": 98,
      "chip": "ym2612"
    },
    {
      "channel": 1,
      "note": 49,
      "start": 132.6055,
      "duration": 0.3284,
      "velocity": 95,
      "chip": "ym2612"
    },
    {
      "channel": 3,
      "note": 92,
      "start": 132.6088,
      "duration": 0.9852,
      "velocity": 90,
      "chip": "ym2612"
    },
    {
      "channel": 0,
      "note": 80,
      "start": 132.8576,
      "duration": 0.0162,
      "velocity": 127,
      "chip": "ym2612"
    },
    {
      "channel": 4,
      "note": 100,
      "start": 132.9472,
      "duration": 0.2268,
      "velocity": 94,
      "chip": "ym2612"
    },
    {
      "channel": 0,
      "note": 80,
      "start": 132.9773,
      "duration": 0.0566,
      "velocity": 127,
      "chip": "ym2612"
    },
    {
      "channel": 1,
      "note": 53,
      "start": 132.9802,
      "duration": 0.3339,
      "velocity": 95,
      "chip": "ym2612"
    },
    {
      "channel": 4,
      "note": 104,
      "start": 133.1798,
      "duration": 0.9544,
      "velocity": 94,
      "chip": "ym2612"
    },
    {
      "channel": 2,
      "note": 45,
      "start": 133.218,
      "duration": 0.0561,
      "velocity": 99,
      "chip": "ym2612"
    },
    {
      "channel": 0,
      "note": 80,
      "start": 133.2207,
      "duration": 0.0332,
      "velocity": 127,
      "chip": "ym2612"
    },
    {
      "channel": 2,
      "note": 81,
      "start": 133.3366,
      "duration": 0.3376,
      "velocity": 122,
      "chip": "ym2612"
    },
    {
      "channel": 0,
      "note": 52,
      "start": 133.3399,
      "duration": 0.0041,
      "velocity": 99,
      "chip": "ym2612"
    },
    {
      "channel": 1,
      "note": 80,
      "start": 133.3428,
      "duration": 0.0511,
      "velocity": 127,
      "chip": "ym2612"
    },
    {
      "channel": 0,
      "note": 56,
      "start": 133.3461,
      "duration": 0.3077,
      "velocity": 95,
      "chip": "ym2612"
    },
    {
      "channel": 1,
      "note": 80,
      "start": 133.5976,
      "duration": 0.0164,
      "velocity": 127,
      "chip": "ym2612"
    },
    {
      "channel": 1,
      "note": 80,
      "start": 133.7182,
      "duration": 0.0558,
      "velocity": 127,
      "chip": "ym2612"
    },
    {
      "channel": 5,
      "note": 92,
      "start": 133.7214,
      "duration": 0.2328,
      "velocity": 98,
      "chip": "ym2612"
    },
    {
      "channel": 0,
      "note": 57,
      "start": 133.7246,
      "duration": 0.0693,
      "velocity": 95,
      "chip": "ym2612"
    },
    {
      "channel": 3,
      "note": 92,
      "start": 133.728,
      "duration": 0.2261,
      "velocity": 90,
      "chip": "ym2612"
    },
    {
      "channel": 1,
      "note": 80,
      "start": 133.9576,
      "duration": 0.0363,
      "velocity": 127,
      "chip": "ym2612"
    },
    {
      "channel": 5,
      "note": 93,
      "start": 133.9986,
      "duration": 0.0557,
      "velocity": 98,
      "chip": "ym2612"
    },
    {
      "channel": 0,
      "note": 57,
      "start": 134.0015,
      "duration": 0.0524,
      "velocity": 95,
      "chip": "ym2612"
    },
    {
      "channel": 3,
      "note": 93,
      "start": 134.0051,
      "duration": 0.0489,
      "velocity": 90,
      "chip": "ym2612"
    },
    {
      "channel": 2,
      "note": 81,
      "start": 134.0765,
      "duration": 0.3376,
      "velocity": 122,
      "chip": "ym2612"
    },
    {
      "channel": 1,
      "note": 80,
      "start": 134.0795,
      "duration": 0.0544,
      "velocity": 127,
      "chip": "ym2612"
    },
    {
      "channel": 5,
      "note": 95,
      "start": 134.0827,
      "duration": 0.5914,
      "velocity": 98,
      "chip": "ym2612"
    },
    {
      "channel": 0,
      "note": 54,
      "start": 134.0856,
      "duration": 0.3281,
      "velocity": 95,
      "chip": "ym2612"
    },
    {
      "channel": 3,
      "note": 95,
      "start": 134.0889,
      "duration": 0.585,
      "velocity": 90,
      "chip": "ym2612"
    },
    {
      "channel": 1,
      "note": 80,
      "start": 134.3373,
      "duration": 0.0165,
      "velocity": 127,
      "chip": "ym2612"
    },
    {
      "channel": 1,
      "note": 80,
      "start": 134.4573,
      "duration": 0.0566,
      "velocity": 127,
      "chip": "ym2612"
    },
    {
      "channel": 0,
      "note": 49,
      "start": 134.4602,
      "duration": 0.3337,
      "velocity": 95,
      "chip": "ym2612"
    },
    {
      "channel": 5,
      "note": 93,
      "start": 134.678,
      "duration": 0.0161,
      "velocity": 98,
      "chip": "ym2612"
    },
    {
      "channel": 3,
      "note": 93,
      "start": 134.6815,
      "duration": 0.0124,
      "velocity": 90,
      "chip": "ym2612"
    },
    {
      "channel": 4,
      "note": 45,
      "start": 134.6979,
      "duration": 0.0561,
      "velocity": 99,
      "chip": "ym2612"
    },
    {
      "channel": 1,
      "note": 80,
      "start": 134.701,
      "duration": 0.0328,
      "velocity": 127,
      "chip": "ym2612"
    },
    {
      "channel": 5,
      "note": 92,
      "start": 134.7379,
      "duration": 0.0563,
      "velocity": 98,
      "chip": "ym2612"
    },
    {
      "channel": 3,
      "note": 92,
      "start": 134.7414,
      "duration": 0.0526,
      "velocity": 90,
      "chip": "ym2612"
    },
    {
      "channel": 2,
      "note": 81,
      "start": 134.8166,
      "duration": 0.3378,
      "velocity": 122,
      "chip": "ym2612"
    },
    {
      "channel": 4,
      "note": 52,
      "start": 134.8196,
      "duration": 0.0544,
      "velocity": 99,
      "chip": "ym2612"
    },
    {
      "channel": 1,
      "note": 80,
      "start": 134.8224,
      "duration": 0.0514,
      "velocity": 127,
      "chip": "ym2612"
    },
    {
      "channel": 5,
      "note": 93,
      "start": 134.8256,
      "duration": 0.3286,
      "velocity": 98,
      "chip": "ym2612"
    },
    {
      "channel": 0,
      "note": 57,
      "start": 134.8281,
      "duration": 0.3257,
      "velocity": 95,
      "chip": "ym2612"
    },
    {
      "channel": 3,
      "note": 93,
      "start": 134.8315,
      "duration": 0.3226,
      "velocity": 90,
      "chip": "ym2612"
    },
    {
      "channel": 4,
      "note": 52,
      "start": 135.0774,
      "duration": 0.0566,
      "velocity": 99,
      "chip": "ym2612"
    },
    {
      "channel": 1,
      "note": 80,
      "start": 135.0802,
      "duration": 0.0137,
      "velocity": 127,
      "chip": "ym2612"
    },
    {
      "channel": 1,
      "note": 80,
      "start": 135.1973,
      "duration": 0.0566,
      "velocity": 127,
      "chip": "ym2612"
    },
    {
      "channel": 5,
      "note": 95,
      "start": 135.2002,
      "duration": 0.3339,
      "velocity": 98,
      "chip": "ym2612"
    },
    {
      "channel": 0,
      "note": 54,
      "start": 135.203,
      "duration": 0.2709,
      "velocity": 95,
      "chip": "ym2612"
    },
    {
      "channel": 3,
      "note": 95,
      "start": 135.2059,
      "duration": 0.328,
      "velocity": 90,
      "chip": "ym2612"
    },
    {
      "channel": 1,
      "note": 80,
      "start": 135.4373,
      "duration": 0.0367,
      "velocity": 127,
      "chip": "ym2612"
    },
    {
      "channel": 2,
      "note": 81,
      "start": 135.5565,
      "duration": 0.3378,
      "velocity": 122,
      "chip": "ym2612"
    },
    {
      "channel": 1,
      "note": 80,
      "start": 135.5595,
      "duration": 0.0544,
      "velocity": 127,
      "chip": "ym2612"
    },
    {
      "channel": 5,
      "note": 92,
      "start": 135.563,
      "duration": 0.9512,
      "velocity": 98,
      "chip": "ym2612"
    },
    {
      "channel": 0,
      "note": 49,
      "start": 135.5658,
      "duration": 0.328,
      "velocity": 95,
      "chip": "ym2612"
    },
    {
      "channel": 3,
      "note": 92,
      "start": 135.5694,
      "duration": 0.9445,
      "velocity": 90,
      "chip": "ym2612"
    },
    {
      "channel": 1,
      "note": 80,
      "start": 135.8177,
      "duration": 0.0161,
      "velocity": 127,
      "chip": "ym2612"
    },
    {
      "channel": 1,
      "note": 80,
      "start": 135.9373,
      "duration": 0.0568,
      "velocity": 127,
      "chip": "ym2612"
    },
    {
      "channel": 0,
      "note": 53,
      "start": 135.942,
      "duration": 0.332,
      "velocity": 95,
      "chip": "ym2612"
    },
    {
      "channel": 4,
      "note": 100,
      "start": 135.9515,
      "duration": 0.2226,
      "velocity": 94,
      "chip": "ym2612"
    },
    {
      "channel": 2,
      "note": 45,
      "start": 136.1777,
      "duration": 0.0566,
      "velocity": 99,
      "chip": "ym2612"
    },
    {
      "channel": 1,
      "note": 80,
      "start": 136.1804,
      "duration": 0.0336,
      "velocity": 127,
      "chip": "ym2612"
    },
    {
      "channel": 4,
      "note": 104,
      "start": 136.1859,
      "duration": 0.9482,
      "velocity": 94,
      "chip": "ym2612"
    },
    {
      "channel": 2,
      "note": 81,
      "start": 136.2965,
      "duration": 0.3377,
      "velocity": 122,
      "chip": "ym2612"
    },
    {
      "channel": 1,
      "note": 52,
      "start": 136.3003,
      "duration": 0.0045,
      "velocity": 99,
      "chip": "ym2612"
    },
    {
      "channel": 0,
      "note": 80,
      "start": 136.3032,
      "duration": 0.0507,
      "velocity": 127,
      "chip": "ym2612"
    },
    {
      "channel": 1,
      "note": 56,
      "start": 136.3069,
      "duration": 0.3072,
      "velocity": 95,
      "chip": "ym2612"
    },
    {
      "channel": 0,
      "note": 80,
      "start": 136.5573,
      "duration": 0.0165,
      "velocity": 127,
      "chip": "ym2612"
    },
    {
      "channel": 0,
      "note": 80,
      "start": 136.6781,
      "duration": 0.0558,
      "velocity": 127,
      "chip": "ym2612"
    },
    {
      "channel": 5,
      "note": 92,
      "start": 136.6812,
      "duration": 0.2329,
      "velocity": 98,
      "chip": "ym2612"
    },
    {
      "channel": 1,
      "note": 57,
      "start": 136.6842,
      "duration": 0.0897,
      "velocity": 95,
      "chip": "ym2612"
    },
    {
      "channel": 3,
      "note": 92,
      "start": 136.6875,
      "duration": 0.2265,
      "velocity": 90,
      "chip": "ym2612"
    },
    {
      "channel": 0,
      "note": 80,
      "start": 136.9175,
      "duration": 0.0364,
      "velocity": 127,
      "chip": "ym2612"
    },
    {
      "channel": 5,
      "note": 93,
      "start": 136.958,
      "duration": 0.0562,
      "velocity": 98,
      "chip": "ym2612"
    },
    {
      "channel": 1,
      "note": 57,
      "start": 136.961,
      "duration": 0.0529,
      "velocity": 95,
      "chip": "ym2612"
    },
    {
      "channel": 3,
      "note": 93,
      "start": 136.9643,
      "duration": 0.0497,
      "velocity": 90,
      "chip": "ym2612"
    },
    {
      "channel": 2,
      "note": 81,
      "start": 137.0365,
      "duration": 0.3376,
      "velocity": 122,
      "chip": "ym2612"
    },
    {
      "channel": 0,
      "note": 80,
      "start": 137.0395,
      "duration": 0.0544,
      "velocity": 127,
      "chip": "ym2612"
    },
    {
      "channel": 5,
      "note": 90,
      "start": 137.0426,
      "duration": 0.7115,
      "velocity": 98,
      "chip": "ym2612"
    },
    {
      "channel": 1,
      "note": 54,
      "start": 137.0456,
      "duration": 0.3282,
      "velocity": 95,
      "chip": "ym2612"
    },
    {
      "channel": 3,
      "note": 90,
      "start": 137.0488,
      "duration": 0.7051,
      "velocity": 90,
      "chip": "ym2612"
    },
    {
      "channel": 0,
      "note": 80,
      "start": 137.2973,
      "duration": 0.0166,
      "velocity": 127,
      "chip": "ym2612"
    },
    {
      "channel": 0,
      "note": 80,
      "start": 137.4173,
      "duration": 0.0564,
      "velocity": 127,
      "chip": "ym2612"
    },
    {
      "channel": 1,
      "note": 49,
      "start": 137.4202,
      "duration": 0.3335,
      "velocity": 95,
      "chip": "ym2612"
    },
    {
      "channel": 4,
      "note": 45,
      "start": 137.6576,
      "duration": 0.0564,
      "velocity": 99,
      "chip": "ym2612"
    },
    {
      "channel": 0,
      "note": 80,
      "start": 137.6607,
      "duration": 0.0332,
      "velocity": 127,
      "chip": "ym2612"
    },
    {
      "channel": 2,
      "note": 81,
      "start": 137.7765,
      "duration": 0.3376,
      "velocity": 122,
      "chip": "ym2612"
    },
    {
      "channel": 4,
      "note": 52,
      "start": 137.7795,
      "duration": 0.0544,
      "velocity": 99,
      "chip": "ym2612"
    },
    {
      "channel": 0,
      "note": 80,
      "start": 137.7823,
      "duration": 0.0515,
      "velocity": 127,
      "chip": "ym2612"
    },
    {
      "channel": 5,
      "note": 85,
      "start": 137.7851,
      "duration": 0.709,
      "velocity": 98,
      "chip": "ym2612"
    },
    {
      "channel": 1,
      "note": 52,
      "start": 137.7878,
      "duration": 0.3261,
      "velocity": 95,
      "chip": "ym2612"
    },
    {
      "channel": 3,
      "note": 85,
      "start": 137.7907,
      "duration": 0.7031,
      "velocity": 90,
      "chip": "ym2612"
    },
    {
      "channel": 4,
      "note": 52,
      "start": 138.0374,
      "duration": 0.0566,
      "velocity": 99,
      "chip": "ym2612"
    },
    {
      "channel": 0,
      "note": 80,
      "start": 138.0402,
      "duration": 0.0136,
      "velocity": 127,
      "chip": "ym2612"
    },
    {
      "channel": 0,
      "note": 80,
      "start": 138.1573,
      "duration": 0.0564,
      "velocity": 127,
      "chip": "ym2612"
    },
    {
      "channel": 1,
      "note": 54,
      "start": 138.1604,
      "duration": 0.2735,
      "velocity": 95,
      "chip": "ym2612"
    },
    {
      "channel": 0,
      "note": 80,
      "start": 138.3972,
      "duration": 0.0366,
      "velocity": 127,
      "chip": "ym2612"
    },
    {
      "channel": 2,
      "note": 81,
      "start": 138.5165,
      "duration": 0.3376,
      "velocity": 122,
      "chip": "ym2612"
    },
    {
      "channel": 0,
      "note": 80,
      "start": 138.5195,
      "duration": 0.0743,
      "velocity": 127,
      "chip": "ym2612"
    },
    {
      "channel": 5,
      "note": 89,
      "start": 138.5227,
      "duration": 0.9916,
      "velocity": 98,
      "chip": "ym2612"
    },
    {
      "channel": 1,
      "note": 49,
      "start": 138.5259,
      "duration": 0.3279,
      "velocity": 95,
      "chip": "ym2612"
    },
    {
      "channel": 3,
      "note": 89,
      "start": 138.5291,
      "duration": 0.985,
      "velocity": 90,
      "chip": "ym2612"
    },
    {
      "channel": 0,
      "note": 80,
      "start": 138.7777,
      "duration": 0.0162,
      "velocity": 127,
      "chip": "ym2612"
    },
    {
      "channel": 0,
      "note": 80,
      "start": 138.8973,
      "duration": 0.0567,
      "velocity": 127,
      "chip": "ym2612"
    },
    {
      "channel": 1,
      "note": 53,
      "start": 138.9018,
      "duration": 0.3323,
      "velocity": 95,
      "chip": "ym2612"
    },
    {
      "channel": 4,
      "note": 100,
      "start": 138.9113,
      "duration": 0.2228,
      "velocity": 94,
      "chip": "ym2612"
    },
    {
      "channel": 2,
      "note": 45,
      "start": 139.1377,
      "duration": 0.0564,
      "velocity": 99,
      "chip": "ym2612"
    },
    {
      "channel": 0,
      "note": 80,
      "start": 139.1405,
      "duration": 0.0334,
      "velocity": 127,
      "chip": "ym2612"
    },
    {
      "channel": 4,
      "note": 104,
      "start": 139.1459,
      "duration": 0.9481,
      "velocity": 94,
      "chip": "ym2612"
    },
    {
      "channel": 2,
      "note": 81,
      "start": 139.2566,
      "duration": 0.3376,
      "velocity": 122,
      "chip": "ym2612"
    },
    {
      "channel": 0,
      "note": 52,
      "start": 139.26,
      "duration": 0.0041,
      "velocity": 99,
      "chip": "ym2612"
    },
    {
      "channel": 1,
      "note": 80,
      "start": 139.2629,
      "duration": 0.0711,
      "velocity": 127,
      "chip": "ym2612"
    },
    {
      "channel": 0,
      "note": 56,
      "start": 139.2662,
      "duration": 0.3078,
      "velocity": 95,
      "chip": "ym2612"
    },
    {
      "channel": 1,
      "note": 80,
      "start": 139.5177,
      "duration": 0.0163,
      "velocity": 127,
      "chip": "ym2612"
    },
    {
      "channel": 1,
      "note": 80,
      "start": 139.6382,
      "duration": 0.0558,
      "velocity": 127,
      "chip": "ym2612"
    },
    {
      "channel": 5,
      "note": 89,
      "start": 139.6417,
      "duration": 0.2125,
      "velocity": 98,
      "chip": "ym2612"
    },
    {
      "channel": 0,
      "note": 57,
      "start": 139.6446,
      "duration": 0.0893,
      "velocity": 95,
      "chip": "ym2612"
    },
    {
      "channel": 3,
      "note": 89,
      "start": 139.6483,
      "duration": 0.2058,
      "velocity": 90,
      "chip": "ym2612"
    },
    {
      "channel": 1,
      "note": 80,
      "start": 139.8773,
      "duration": 0.0366,
      "velocity": 127,
      "chip": "ym2612"
    },
    {
      "channel": 5,
      "note": 90,
      "start": 139.918,
      "duration": 0.0563,
      "velocity": 98,
      "chip": "ym2612"
    },
    {
      "channel": 0,
      "note": 57,
      "start": 139.9209,
      "duration": 0.053,
      "velocity": 95,
      "chip": "ym2612"
    },
    {
      "channel": 3,
      "note": 90,
      "start": 139.9242,
      "duration": 0.0499,
      "velocity": 90,
      "chip": "ym2612"
    },
    {
      "channel": 2,
      "note": 81,
      "start": 139.997,
      "duration": 0.3371,
      "velocity": 122,
      "chip": "ym2612"
    },
    {
      "channel": 1,
      "note": 80,
      "start": 140.0,
      "duration": 0.074,
      "velocity": 127,
      "chip": "ym2612"
    },
    {
      "channel": 5,
      "note": 92,
      "start": 140.0031,
      "duration": 0.711,
      "velocity": 98,
      "chip": "ym2612"
    },
    {
      "channel": 0,
      "note": 56,
      "start": 140.006,
      "duration": 0.3277,
      "velocity": 95,
      "chip": "ym2612"
    },
    {
      "channel": 3,
      "note": 92,
      "start": 140.0094,
      "duration": 0.7045,
      "velocity": 90,
      "chip": "ym2612"
    },
    {
      "channel": 1,
      "note": 80,
      "start": 140.2574,
      "duration": 0.0165,
      "velocity": 127,
      "chip": "ym2612"
    },
    {
      "channel": 1,
      "note": 80,
      "start": 140.3773,
      "duration": 0.0566,
      "velocity": 127,
      "chip": "ym2612"
    },
    {
      "channel": 0,
      "note": 53,
      "start": 140.3802,
      "duration": 0.3336,
      "velocity": 95,
      "chip": "ym2612"
    },
    {
      "channel": 4,
      "note": 45,
      "start": 140.6176,
      "duration": 0.0564,
      "velocity": 99,
      "chip": "ym2612"
    },
    {
      "channel": 1,
      "note": 80,
      "start": 140.6207,
      "duration": 0.0331,
      "velocity": 127,
      "chip": "ym2612"
    },
    {
      "channel": 2,
      "note": 81,
      "start": 140.7365,
      "duration": 0.3378,
      "velocity": 122,
      "chip": "ym2612"
    },
    {
      "channel": 4,
      "note": 52,
      "start": 140.7399,
      "duration": 0.0741,
      "velocity": 99,
      "chip": "ym2612"
    },
    {
      "channel": 1,
      "note": 80,
      "start": 140.7427,
      "duration": 0.0712,
      "velocity": 127,
      "chip": "ym2612"
    },
    {
      "channel": 5,
      "note": 85,
      "start": 140.7455,
      "duration": 0.7085,
      "velocity": 98,
      "chip": "ym2612"
    },
    {
      "channel": 0,
      "note": 61,
      "start": 140.7481,
      "duration": 0.3258,
      "velocity": 95,
      "chip": "ym2612"
    },
    {
      "channel": 3,
      "note": 85,
      "start": 140.7511,
      "duration": 0.7028,
      "velocity": 90,
      "chip": "ym2612"
    },
    {
      "channel": 4,
      "note": 52,
      "start": 140.9974,
      "duration": 0.0566,
      "velocity": 99,
      "chip": "ym2612"
    },
    {
      "channel": 1,
      "note": 80,
      "start": 141.0002,
      "duration": 0.0137,
      "velocity": 127,
      "chip": "ym2612"
    },
    {
      "channel": 1,
      "note": 80,
      "start": 141.1173,
      "duration": 0.0565,
      "velocity": 127,
      "chip": "ym2612"
    },
    {
      "channel": 0,
      "note": 56,
      "start": 141.1207,
      "duration": 0.2732,
      "velocity": 95,
      "chip": "ym2612"
    },
    {
      "channel": 1,
      "note": 80,
      "start": 141.3573,
      "duration": 0.0367,
      "velocity": 127,
      "chip": "ym2612"
    },
    {
      "channel": 2,
      "note": 81,
      "start": 141.4765,
      "duration": 0.3376,
      "velocity": 122,
      "chip": "ym2612"
    },
    {
      "channel": 4,
      "note": 55,
      "start": 141.4797,
      "duration": 0.9945,
      "velocity": 95,
      "chip": "ym2612"
    },
    {
      "channel": 1,
      "note": 80,
      "start": 141.4825,
      "duration": 0.0714,
      "velocity": 127,
      "chip": "ym2612"
    },
    {
      "channel": 5,
      "note": 91,
      "start": 141.4856,
      "duration": 0.9888,
      "velocity": 98,
      "chip": "ym2612"
    },
    {
      "channel": 0,
      "note": 51,
      "start": 141.4884,
      "duration": 0.3254,
      "velocity": 95,
      "chip": "ym2612"
    },
    {
      "channel": 3,
      "note": 91,
      "start": 141.4917,
      "duration": 0.9824,
      "velocity": 90,
      "chip": "ym2612"
    },
    {
      "channel": 1,
      "note": 80,
      "start": 141.7377,
      "duration": 0.0162,
      "velocity": 127,
      "chip": "ym2612"
    },
    {
      "channel": 1,
      "note": 80,
      "start": 141.8573,
      "duration": 0.0566,
      "velocity": 127,
      "chip": "ym2612"
    },
    {
      "channel": 0,
      "note": 55,
      "start": 141.8618,
      "duration": 0.3321,
      "velocity": 95,
      "chip": "ym2612"
    },
    {
      "channel": 2,
      "note": 100,
      "start": 141.8713,
      "duration": 0.2229,
      "velocity": 94,
      "chip": "ym2612"
    },
    {
      "channel": 1,
      "note": 80,
      "start": 142.0975,
      "duration": 0.0365,
      "velocity": 127,
      "chip": "ym2612"
    },
    {
      "channel": 2,
      "note": 104,
      "start": 142.103,
      "duration": 0.9511,
      "velocity": 94,
      "chip": "ym2612"
    },
    {
      "channel": 1,
      "note": 80,
      "start": 142.2179,
      "duration": 0.0761,
      "velocity": 127,
      "chip": "ym2612"
    },
    {
      "channel": 0,
      "note": 58,
      "start": 142.2209,
      "duration": 0.313,
      "velocity": 95,
      "chip": "ym2612"
    },
    {
      "channel": 1,
      "note": 80,
      "start": 142.4777,
      "duration": 0.0162,
      "velocity": 127,
      "chip": "ym2612"
    },
    {
      "channel": 4,
      "note": 55,
      "start": 142.598,
      "duration": 0.2162,
      "velocity": 95,
      "chip": "ym2612"
    },
    {
      "channel": 1,
      "note": 80,
      "start": 142.6012,
      "duration": 0.0528,
      "velocity": 127,
      "chip": "ym2612"
    },
    {
      "channel": 5,
      "note": 91,
      "start": 142.6043,
      "duration": 0.21,
      "velocity": 98,
      "chip": "ym2612"
    },
    {
      "channel": 0,
      "note": 59,
      "start": 142.6073,
      "duration": 0.0867,
      "velocity": 95,
      "chip": "ym2612"
    },
    {
      "channel": 3,
      "note": 91,
      "start": 142.6105,
      "duration": 0.2036,
      "velocity": 90,
      "chip": "ym2612"
    },
    {
      "channel": 1,
      "note": 80,
      "start": 142.8374,
      "duration": 0.0366,
      "velocity": 127,
      "chip": "ym2612"
    },
    {
      "channel": 4,
      "note": 56,
      "start": 142.8778,
      "duration": 0.0563,
      "velocity": 95,
      "chip": "ym2612"
    },
    {
      "channel": 5,
      "note": 92,
      "start": 142.8814,
      "duration": 0.0727,
      "velocity": 98,
      "chip": "ym2612"
    },
    {
      "channel": 0,
      "note": 59,
      "start": 142.8844,
      "duration": 0.0495,
      "velocity": 95,
      "chip": "ym2612"
    },
    {
      "channel": 3,
      "note": 92,
      "start": 142.888,
      "duration": 0.046,
      "velocity": 90,
      "chip": "ym2612"
    },
    {
      "channel": 4,
      "note": 58,
      "start": 142.9582,
      "duration": 0.7159,
      "velocity": 95,
      "chip": "ym2612"
    },
    {
      "channel": 1,
      "note": 80,
      "start": 142.9609,
      "duration": 0.0731,
      "velocity": 127,
      "chip": "ym2612"
    },
    {
      "channel": 5,
      "note": 94,
      "start": 142.9641,
      "duration": 0.7101,
      "velocity": 98,
      "chip": "ym2612"
    },
    {
      "channel": 0,
      "note": 58,
      "start": 142.9671,
      "duration": 0.3268,
      "velocity": 95,
      "chip": "ym2612"
    },
    {
      "channel": 3,
      "note": 94,
      "start": 142.9703,
      "duration": 0.7037,
      "velocity": 90,
      "chip": "ym2612"
    },
    {
      "channel": 1,
      "note": 80,
      "start": 143.2173,
      "duration": 0.0166,
      "velocity": 127,
      "chip": "ym2612"
    },
    {
      "channel": 1,
      "note": 80,
      "start": 143.3373,
      "duration": 0.0566,
      "velocity": 127,
      "chip": "ym2612"
    },
    {
      "channel": 0,
      "note": 55,
      "start": 143.3402,
      "duration": 0.3336,
      "velocity": 95,
      "chip": "ym2612"
    },
    {
      "channel": 1,
      "note": 80,
      "start": 143.578,
      "duration": 0.0359,
      "velocity": 127,
      "chip": "ym2612"
    },
    {
      "channel": 2,
      "note": 81,
      "start": 143.7165,
      "duration": 0.3177,
      "velocity": 122,
      "chip": "ym2612"
    },
    {
      "channel": 4,
      "note": 51,
      "start": 143.7195,
      "duration": 0.6945,
      "velocity": 95,
      "chip": "ym2612"
    },
    {
      "channel": 1,
      "note": 80,
      "start": 143.7222,
      "duration": 0.0516,
      "velocity": 127,
      "chip": "ym2612"
    },
    {
      "channel": 5,
      "note": 87,
      "start": 143.7251,
      "duration": 0.689,
      "velocity": 98,
      "chip": "ym2612"
    },
    {
      "channel": 0,
      "note": 51,
      "start": 143.728,
      "duration": 0.3058,
      "velocity": 95,
      "chip": "ym2612"
    },
    {
      "channel": 3,
      "note": 87,
      "start": 143.731,
      "duration": 0.6829,
      "velocity": 90,
      "chip": "ym2612"
    },
    {
      "channel": 1,
      "note": 80,
      "start": 143.9573,
      "duration": 0.0165,
      "velocity": 127,
      "chip": "ym2612"
    },
    {
      "channel": 1,
      "note": 80,
      "start": 144.0773,
      "duration": 0.0565,
      "velocity": 127,
      "chip": "ym2612"
    },
    {
      "channel": 0,
      "note": 46,
      "start": 144.0804,
      "duration": 0.2735,
      "velocity": 95,
      "chip": "ym2612"
    },
    {
      "channel": 1,
      "note": 80,
      "start": 144.3173,
      "duration": 0.0367,
      "velocity": 127,
      "chip": "ym2612"
    },
    {
      "channel": 2,
      "note": 81,
      "start": 144.4564,
      "duration": 0.3178,
      "velocity": 122,
      "chip": "ym2612"
    },
    {
      "channel": 4,
      "note": 49,
      "start": 144.46,
      "duration": 2.8739,
      "velocity": 95,
      "chip": "ym2612"
    },
    {
      "channel": 1,
      "note": 80,
      "start": 144.4627,
      "duration": 0.0512,
      "velocity": 127,
      "chip": "ym2612"
    },
    {
      "channel": 5,
      "note": 89,
      "start": 144.4659,
      "duration": 0.9683,
      "velocity": 98,
      "chip": "ym2612"
    },
    {
      "channel": 0,
      "note": 49,
      "start": 144.4687,
      "duration": 0.3052,
      "velocity": 95,
      "chip": "ym2612"
    },
    {
      "channel": 3,
      "note": 89,
      "start": 144.4719,
      "duration": 0.9621,
      "velocity": 90,
      "chip": "ym2612"
    },
    {
      "channel": 1,
      "note": 80,
      "start": 144.6977,
      "duration": 0.0162,
      "velocity": 127,
      "chip": "ym2612"
    },
    {
      "channel": 1,
      "note": 80,
      "start": 144.8173,
      "duration": 0.0568,
      "velocity": 127,
      "chip": "ym2612"
    },
    {
      "channel": 0,
      "note": 53,
      "start": 144.822,
      "duration": 0.332,
      "velocity": 95,
      "chip": "ym2612"
    },
    {
      "channel": 2,
      "note": 100,
      "start": 144.8315,
      "duration": 0.2225,
      "velocity": 94,
      "chip": "ym2612"
    },
    {
      "channel": 1,
      "note": 80,
      "start": 145.0575,
      "duration": 0.0366,
      "velocity": 127,
      "chip": "ym2612"
    },
    {
      "channel": 2,
      "note": 104,
      "start": 145.063,
      "duration": 0.9512,
      "velocity": 94,
      "chip": "ym2612"
    },
    {
      "channel": 1,
      "note": 80,
      "start": 145.1977,
      "duration": 0.0563,
      "velocity": 127,
      "chip": "ym2612"
    },
    {
      "channel": 0,
      "note": 56,
      "start": 145.2007,
      "duration": 0.2932,
      "velocity": 95,
      "chip": "ym2612"
    },
    {
      "channel": 1,
      "note": 80,
      "start": 145.4376,
      "duration": 0.0163,
      "velocity": 127,
      "chip": "ym2612"
    },
    {
      "channel": 1,
      "note": 80,
      "start": 145.5582,
      "duration": 0.0558,
      "velocity": 127,
      "chip": "ym2612"
    },
    {
      "channel": 5,
      "note": 89,
      "start": 145.5614,
      "duration": 0.2128,
      "velocity": 98,
      "chip": "ym2612"
    },
    {
      "channel": 0,
      "note": 57,
      "start": 145.5643,
      "duration": 0.0896,
      "velocity": 95,
      "chip": "ym2612"
    },
    {
      "channel": 3,
      "note": 89,
      "start": 145.5676,
      "duration": 0.2065,
      "velocity": 90,
      "chip": "ym2612"
    },
    {
      "channel": 1,
      "note": 80,
      "start": 145.7974,
      "duration": 0.0366,
      "velocity": 127,
      "chip": "ym2612"
    },
    {
      "channel": 5,
      "note": 90,
      "start": 145.838,
      "duration": 0.0961,
      "velocity": 98,
      "chip": "ym2612"
    },
    {
      "channel": 0,
      "note": 57,
      "start": 145.841,
      "duration": 0.0529,
      "velocity": 95,
      "chip": "ym2612"
    },
    {
      "channel": 3,
      "note": 90,
      "start": 145.8443,
      "duration": 0.0497,
      "velocity": 90,
      "chip": "ym2612"
    },
    {
      "channel": 1,
      "note": 80,
      "start": 145.9379,
      "duration": 0.056,
      "velocity": 127,
      "chip": "ym2612"
    },
    {
      "channel": 5,
      "note": 92,
      "start": 145.9414,
      "duration": 0.6927,
      "velocity": 98,
      "chip": "ym2612"
    },
    {
      "channel": 0,
      "note": 56,
      "start": 145.9447,
      "duration": 0.3291,
      "velocity": 95,
      "chip": "ym2612"
    },
    {
      "channel": 3,
      "note": 92,
      "start": 145.9483,
      "duration": 0.6856,
      "velocity": 90,
      "chip": "ym2612"
    },
    {
      "channel": 1,
      "note": 80,
      "start": 146.1773,
      "duration": 0.0165,
      "velocity": 127,
      "chip": "ym2612"
    },
    {
      "channel": 1,
      "note": 80,
      "start": 146.2973,
      "duration": 0.0565,
      "velocity": 127,
      "chip": "ym2612"
    },
    {
      "channel": 0,
      "note": 53,
      "start": 146.3002,
      "duration": 0.3335,
      "velocity": 95,
      "chip": "ym2612"
    },
    {
      "channel": 1,
      "note": 80,
      "start": 146.538,
      "duration": 0.0359,
      "velocity": 127,
      "chip": "ym2612"
    },
    {
      "channel": 2,
      "note": 81,
      "start": 146.6764,
      "duration": 0.3377,
      "velocity": 122,
      "chip": "ym2612"
    },
    {
      "channel": 1,
      "note": 80,
      "start": 146.6795,
      "duration": 0.0544,
      "velocity": 127,
      "chip": "ym2612"
    },
    {
      "channel": 5,
      "note": 85,
      "start": 146.6823,
      "duration": 0.6917,
      "velocity": 98,
      "chip": "ym2612"
    },
    {
      "channel": 0,
      "note": 61,
      "start": 146.6849,
      "duration": 0.3288,
      "velocity": 95,
      "chip": "ym2612"
    },
    {
      "channel": 3,
      "note": 85,
      "start": 146.6879,
      "duration": 0.6859,
      "velocity": 90,
      "chip": "ym2612"
    },
    {
      "channel": 1,
      "note": 80,
      "start": 146.9173,
      "duration": 0.0166,
      "velocity": 127,
      "chip": "ym2612"
    },
    {
      "channel": 1,
      "note": 80,
      "start": 147.0373,
      "duration": 0.0566,
      "velocity": 127,
      "chip": "ym2612"
    },
    {
      "channel": 0,
      "note": 56,
      "start": 147.0403,
      "duration": 0.2735,
      "velocity": 95,
      "chip": "ym2612"
    },
    {
      "channel": 1,
      "note": 80,
      "start": 147.2773,
      "duration": 0.0367,
      "velocity": 127,
      "chip": "ym2612"
    },
    {
      "channel": 5,
      "note": 102,
      "start": 147.4383,
      "duration": 6.5328,
      "velocity": 98,
      "chip": "ym2612"
    }
  ]
}