{
  "track_name": "07 - Bonus Game Theme",
  "duration_sec": 46.081,
  "sample_rate": 44100,
  "note_count": 780,
  "unique_pitches": 12,
  "pitch_range": 60,
  "avg_note_duration": 0.0713,
  "reconstruction_stats": {
    "notes_reconstructed": 780,
    "keyon_events": 780,
    "keyoff_events": 779,
    "orphan_keyons": 1,
    "unique_pitches": 12,
    "pitch_range": 60,
    "avg_duration_sec": 0.0713
  },
  "metadata": {
    "source": "H\\Hurricanes\\07 - Bonus Game Theme.vgz"
  },
  "notes": [
    {
      "channel": 2,
      "note": 73,
      "start": 0.0,
      "duration": 0.0285,
      "velocity": 127,
      "chip": "ym2612"
    },
    {
      "channel": 3,
      "note": 68,
      "start": 0.0013,
      "duration": 0.0135,
      "velocity": 100,
      "chip": "ym2612"
    },
    {
      "channel": 3,
      "note": 68,
      "start": 0.015,
      "duration": 0.0138,
      "velocity": 100,
      "chip": "ym2612"
    },
    {
      "channel": 0,
      "note": 80,
      "start": 0.0285,
      "duration": 0.0129,
      "velocity": 127,
      "chip": "ym2612"
    },
    {
      "channel": 2,
      "note": 77,
      "start": 0.0287,
      "duration": 0.0127,
      "velocity": 127,
      "chip": "ym2612"
    },
    {
      "channel": 3,
      "note": 68,
      "start": 0.029,
      "duration": 0.0125,
      "velocity": 100,
      "chip": "ym2612"
    },
    {
      "channel": 3,
      "note": 68,
      "start": 0.0418,
      "duration": 0.0139,
      "velocity": 100,
      "chip": "ym2612"
    },
    {
      "channel": 0,
      "note": 82,
      "start": 0.0553,
      "duration": 0.0264,
      "velocity": 127,
      "chip": "ym2612"
    },
    {
      "channel": 2,
      "note": 77,
      "start": 0.0556,
      "duration": 0.0265,
      "velocity": 127,
      "chip": "ym2612"
    },
    {
      "channel": 3,
      "note": 68,
      "start": 0.0558,
      "duration": 0.0124,
      "velocity": 100,
      "chip": "ym2612"
    },
    {
      "channel": 3,
      "note": 68,
      "start": 0.0685,
      "duration": 0.0138,
      "velocity": 100,
      "chip": "ym2612"
    },
    {
      "channel": 0,
      "note": 80,
      "start": 0.082,
      "duration": 0.0139,
      "velocity": 127,
      "chip": "ym2612"
    },
    {
      "channel": 2,
      "note": 77,
      "start": 0.0822,
      "duration": 0.0137,
      "velocity": 127,
      "chip": "ym2612"
    },
    {
      "channel": 3,
      "note": 68,
      "start": 0.0825,
      "duration": 0.0136,
      "velocity": 100,
      "chip": "ym2612"
    },
    {
      "channel": 3,
      "note": 68,
      "start": 0.0963,
      "duration": 0.0126,
      "velocity": 100,
      "chip": "ym2612"
    },
    {
      "channel": 2,
      "note": 73,
      "start": 0.1088,
      "duration": 0.0264,
      "velocity": 127,
      "chip": "ym2612"
    },
    {
      "channel": 3,
      "note": 68,
      "start": 0.1091,
      "duration": 0.0134,
      "velocity": 100,
      "chip": "ym2612"
    },
    {
      "channel": 3,
      "note": 68,
      "start": 0.1227,
      "duration": 0.0127,
      "velocity": 100,
      "chip": "ym2612"
    },
    {
      "channel": 0,
      "note": 80,
      "start": 0.1352,
      "duration": 0.0139,
      "velocity": 127,
      "chip": "ym2612"
    },
    {
      "channel": 2,
      "note": 77,
      "start": 0.1354,
      "duration": 0.0137,
      "velocity": 127,
      "chip": "ym2612"
    },
    {
      "channel": 3,
      "note": 68,
      "start": 0.1357,
      "duration": 0.0136,
      "velocity": 100,
      "chip": "ym2612"
    },
    {
      "channel": 3,
      "note": 68,
      "start": 0.1495,
      "duration": 0.0139,
      "velocity": 100,
      "chip": "ym2612"
    },
    {
      "channel": 0,
      "note": 82,
      "start": 0.163,
      "duration": 0.0263,
      "velocity": 127,
      "chip": "ym2612"
    },
    {
      "channel": 2,
      "note": 77,
      "start": 0.1633,
      "duration": 0.0263,
      "velocity": 127,
      "chip": "ym2612"
    },
    {
      "channel": 3,
      "note": 68,
      "start": 0.1635,
      "duration": 0.0123,
      "velocity": 100,
      "chip": "ym2612"
    },
    {
      "channel": 3,
      "note": 68,
      "start": 0.1761,
      "duration": 0.0137,
      "velocity": 100,
      "chip": "ym2612"
    },
    {
      "channel": 0,
      "note": 80,
      "start": 0.1895,
      "duration": 0.0128,
      "velocity": 127,
      "chip": "ym2612"
    },
    {
      "channel": 2,
      "note": 77,
      "start": 0.1898,
      "duration": 0.0127,
      "velocity": 127,
      "chip": "ym2612"
    },
    {
      "channel": 3,
      "note": 68,
      "start": 0.1901,
      "duration": 0.0125,
      "velocity": 100,
      "chip": "ym2612"
    },
    {
      "channel": 3,
      "note": 68,
      "start": 0.2028,
      "duration": 0.0137,
      "velocity": 100,
      "chip": "ym2612"
    },
    {
      "channel": 2,
      "note": 68,
      "start": 0.2164,
      "duration": 0.0267,
      "velocity": 127,
      "chip": "ym2612"
    },
    {
      "channel": 3,
      "note": 68,
      "start": 0.2168,
      "duration": 0.0136,
      "velocity": 100,
      "chip": "ym2612"
    },
    {
      "channel": 3,
      "note": 68,
      "start": 0.2306,
      "duration": 0.0127,
      "velocity": 100,
      "chip": "ym2612"
    },
    {
      "channel": 0,
      "note": 75,
      "start": 0.243,
      "duration": 0.0139,
      "velocity": 127,
      "chip": "ym2612"
    },
    {
      "channel": 2,
      "note": 72,
      "start": 0.2433,
      "duration": 0.0137,
      "velocity": 127,
      "chip": "ym2612"
    },
    {
      "channel": 3,
      "note": 68,
      "start": 0.2435,
      "duration": 0.0136,
      "velocity": 100,
      "chip": "ym2612"
    },
    {
      "channel": 3,
      "note": 68,
      "start": 0.2573,
      "duration": 0.0128,
      "velocity": 100,
      "chip": "ym2612"
    },
    {
      "channel": 0,
      "note": 77,
      "start": 0.2698,
      "duration": 0.0273,
      "velocity": 127,
      "chip": "ym2612"
    },
    {
      "channel": 2,
      "note": 72,
      "start": 0.2701,
      "duration": 0.0273,
      "velocity": 127,
      "chip": "ym2612"
    },
    {
      "channel": 3,
      "note": 68,
      "start": 0.2703,
      "duration": 0.0133,
      "velocity": 100,
      "chip": "ym2612"
    },
    {
      "channel": 3,
      "note": 68,
      "start": 0.2839,
      "duration": 0.0138,
      "velocity": 100,
      "chip": "ym2612"
    },
    {
      "channel": 0,
      "note": 75,
      "start": 0.2974,
      "duration": 0.0128,
      "velocity": 127,
      "chip": "ym2612"
    },
    {
      "channel": 2,
      "note": 72,
      "start": 0.2976,
      "duration": 0.0127,
      "velocity": 127,
      "chip": "ym2612"
    },
    {
      "channel": 3,
      "note": 68,
      "start": 0.2979,
      "duration": 0.0125,
      "velocity": 100,
      "chip": "ym2612"
    },
    {
      "channel": 3,
      "note": 68,
      "start": 0.3107,
      "duration": 0.0136,
      "velocity": 100,
      "chip": "ym2612"
    },
    {
      "channel": 2,
      "note": 68,
      "start": 0.3242,
      "duration": 0.0264,
      "velocity": 127,
      "chip": "ym2612"
    },
    {
      "channel": 3,
      "note": 68,
      "start": 0.3245,
      "duration": 0.0123,
      "velocity": 100,
      "chip": "ym2612"
    },
    {
      "channel": 3,
      "note": 68,
      "start": 0.3371,
      "duration": 0.0138,
      "velocity": 100,
      "chip": "ym2612"
    },
    {
      "channel": 0,
      "note": 75,
      "start": 0.3506,
      "duration": 0.0139,
      "velocity": 127,
      "chip": "ym2612"
    },
    {
      "channel": 2,
      "note": 72,
      "start": 0.3508,
      "duration": 0.0138,
      "velocity": 127,
      "chip": "ym2612"
    },
    {
      "channel": 3,
      "note": 68,
      "start": 0.3511,
      "duration": 0.0136,
      "velocity": 100,
      "chip": "ym2612"
    },
    {
      "channel": 3,
      "note": 68,
      "start": 0.3649,
      "duration": 0.0128,
      "velocity": 100,
      "chip": "ym2612"
    },
    {
      "channel": 0,
      "note": 77,
      "start": 0.3774,
      "duration": 0.0263,
      "velocity": 127,
      "chip": "ym2612"
    },
    {
      "channel": 2,
      "note": 72,
      "start": 0.3776,
      "duration": 0.0263,
      "velocity": 127,
      "chip": "ym2612"
    },
    {
      "channel": 3,
      "note": 68,
      "start": 0.3779,
      "duration": 0.0133,
      "velocity": 100,
      "chip": "ym2612"
    },
    {
      "channel": 3,
      "note": 68,
      "start": 0.3915,
      "duration": 0.0127,
      "velocity": 100,
      "chip": "ym2612"
    },
    {
      "channel": 0,
      "note": 75,
      "start": 0.4039,
      "duration": 0.0139,
      "velocity": 127,
      "chip": "ym2612"
    },
    {
      "channel": 2,
      "note": 72,
      "start": 0.4041,
      "duration": 0.0138,
      "velocity": 127,
      "chip": "ym2612"
    },
    {
      "channel": 3,
      "note": 68,
      "start": 0.4044,
      "duration": 0.0136,
      "velocity": 100,
      "chip": "ym2612"
    },
    {
      "channel": 3,
      "note": 68,
      "start": 0.4183,
      "duration": 0.0139,
      "velocity": 100,
      "chip": "ym2612"
    },
    {
      "channel": 2,
      "note": 73,
      "start": 0.4321,
      "duration": 0.0267,
      "velocity": 127,
      "chip": "ym2612"
    },
    {
      "channel": 3,
      "note": 68,
      "start": 0.4325,
      "duration": 0.0124,
      "velocity": 100,
      "chip": "ym2612"
    },
    {
      "channel": 3,
      "note": 68,
      "start": 0.4451,
      "duration": 0.0139,
      "velocity": 100,
      "chip": "ym2612"
    },
    {
      "channel": 0,
      "note": 80,
      "start": 0.4588,
      "duration": 0.0128,
      "velocity": 127,
      "chip": "ym2612"
    },
    {
      "channel": 2,
      "note": 77,
      "start": 0.459,
      "duration": 0.0127,
      "velocity": 127,
      "chip": "ym2612"
    },
    {
      "channel": 3,
      "note": 68,
      "start": 0.4593,
      "duration": 0.0125,
      "velocity": 100,
      "chip": "ym2612"
    },
    {
      "channel": 3,
      "note": 68,
      "start": 0.472,
      "duration": 0.0139,
      "velocity": 100,
      "chip": "ym2612"
    },
    {
      "channel": 0,
      "note": 82,
      "start": 0.4855,
      "duration": 0.0265,
      "velocity": 127,
      "chip": "ym2612"
    },
    {
      "channel": 2,
      "note": 77,
      "start": 0.4858,
      "duration": 0.0265,
      "velocity": 127,
      "chip": "ym2612"
    },
    {
      "channel": 3,
      "note": 68,
      "start": 0.486,
      "duration": 0.0134,
      "velocity": 100,
      "chip": "ym2612"
    },
    {
      "channel": 3,
      "note": 68,
      "start": 0.4997,
      "duration": 0.0127,
      "velocity": 100,
      "chip": "ym2612"
    },
    {
      "channel": 0,
      "note": 80,
      "start": 0.5121,
      "duration": 0.0139,
      "velocity": 127,
      "chip": "ym2612"
    },
    {
      "channel": 2,
      "note": 77,
      "start": 0.5124,
      "duration": 0.0138,
      "velocity": 127,
      "chip": "ym2612"
    },
    {
      "channel": 3,
      "note": 68,
      "start": 0.5127,
      "duration": 0.0136,
      "velocity": 100,
      "chip": "ym2612"
    },
    {
      "channel": 3,
      "note": 68,
      "start": 0.5265,
      "duration": 0.0125,
      "velocity": 100,
      "chip": "ym2612"
    },
    {
      "channel": 2,
      "note": 73,
      "start": 0.539,
      "duration": 0.0275,
      "velocity": 127,
      "chip": "ym2612"
    },
    {
      "channel": 3,
      "note": 68,
      "start": 0.5392,
      "duration": 0.0134,
      "velocity": 100,
      "chip": "ym2612"
    },
    {
      "channel": 3,
      "note": 68,
      "start": 0.5529,
      "duration": 0.0138,
      "velocity": 100,
      "chip": "ym2612"
    },
    {
      "channel": 0,
      "note": 80,
      "start": 0.5663,
      "duration": 0.0128,
      "velocity": 127,
      "chip": "ym2612"
    },
    {
      "channel": 2,
      "note": 77,
      "start": 0.5666,
      "duration": 0.0127,
      "velocity": 127,
      "chip": "ym2612"
    },
    {
      "channel": 3,
      "note": 68,
      "start": 0.5669,
      "duration": 0.0125,
      "velocity": 100,
      "chip": "ym2612"
    },
    {
      "channel": 3,
      "note": 68,
      "start": 0.5796,
      "duration": 0.0137,
      "velocity": 100,
      "chip": "ym2612"
    },
    {
      "channel": 0,
      "note": 82,
      "start": 0.593,
      "duration": 0.0266,
      "velocity": 127,
      "chip": "ym2612"
    },
    {
      "channel": 2,
      "note": 77,
      "start": 0.5933,
      "duration": 0.0265,
      "velocity": 127,
      "chip": "ym2612"
    },
    {
      "channel": 3,
      "note": 68,
      "start": 0.5936,
      "duration": 0.0124,
      "velocity": 100,
      "chip": "ym2612"
    },
    {
      "channel": 3,
      "note": 68,
      "start": 0.6062,
      "duration": 0.0138,
      "velocity": 100,
      "chip": "ym2612"
    },
    {
      "channel": 0,
      "note": 80,
      "start": 0.6197,
      "duration": 0.0139,
      "velocity": 127,
      "chip": "ym2612"
    },
    {
      "channel": 2,
      "note": 77,
      "start": 0.62,
      "duration": 0.0137,
      "velocity": 127,
      "chip": "ym2612"
    },
    {
      "channel": 3,
      "note": 68,
      "start": 0.6203,
      "duration": 0.0136,
      "velocity": 100,
      "chip": "ym2612"
    },
    {
      "channel": 3,
      "note": 68,
      "start": 0.634,
      "duration": 0.0128,
      "velocity": 100,
      "chip": "ym2612"
    },
    {
      "channel": 2,
      "note": 68,
      "start": 0.6467,
      "duration": 0.0266,
      "velocity": 127,
      "chip": "ym2612"
    },
    {
      "channel": 3,
      "note": 68,
      "start": 0.6471,
      "duration": 0.0135,
      "velocity": 100,
      "chip": "ym2612"
    },
    {
      "channel": 3,
      "note": 68,
      "start": 0.6608,
      "duration": 0.0128,
      "velocity": 100,
      "chip": "ym2612"
    },
    {
      "channel": 0,
      "note": 75,
      "start": 0.6733,
      "duration": 0.0139,
      "velocity": 127,
      "chip": "ym2612"
    },
    {
      "channel": 2,
      "note": 72,
      "start": 0.6735,
      "duration": 0.0137,
      "velocity": 127,
      "chip": "ym2612"
    },
    {
      "channel": 3,
      "note": 68,
      "start": 0.6738,
      "duration": 0.0136,
      "velocity": 100,
      "chip": "ym2612"
    },
    {
      "channel": 3,
      "note": 68,
      "start": 0.6876,
      "duration": 0.0138,
      "velocity": 100,
      "chip": "ym2612"
    },
    {
      "channel": 0,
      "note": 77,
      "start": 0.7011,
      "duration": 0.0265,
      "velocity": 127,
      "chip": "ym2612"
    },
    {
      "channel": 2,
      "note": 72,
      "start": 0.7013,
      "duration": 0.0265,
      "velocity": 127,
      "chip": "ym2612"
    },
    {
      "channel": 3,
      "note": 68,
      "start": 0.7016,
      "duration": 0.0124,
      "velocity": 100,
      "chip": "ym2612"
    },
    {
      "channel": 3,
      "note": 68,
      "start": 0.7142,
      "duration": 0.0139,
      "velocity": 100,
      "chip": "ym2612"
    },
    {
      "channel": 0,
      "note": 75,
      "start": 0.7278,
      "duration": 0.0128,
      "velocity": 127,
      "chip": "ym2612"
    },
    {
      "channel": 2,
      "note": 72,
      "start": 0.728,
      "duration": 0.0127,
      "velocity": 127,
      "chip": "ym2612"
    },
    {
      "channel": 3,
      "note": 68,
      "start": 0.7283,
      "duration": 0.0125,
      "velocity": 100,
      "chip": "ym2612"
    },
    {
      "channel": 3,
      "note": 68,
      "start": 0.741,
      "duration": 0.0136,
      "velocity": 100,
      "chip": "ym2612"
    },
    {
      "channel": 2,
      "note": 68,
      "start": 0.7546,
      "duration": 0.0263,
      "velocity": 127,
      "chip": "ym2612"
    },
    {
      "channel": 3,
      "note": 68,
      "start": 0.7549,
      "duration": 0.0133,
      "velocity": 100,
      "chip": "ym2612"
    },
    {
      "channel": 3,
      "note": 68,
      "start": 0.7684,
      "duration": 0.0127,
      "velocity": 100,
      "chip": "ym2612"
    },
    {
      "channel": 0,
      "note": 75,
      "start": 0.7808,
      "duration": 0.014,
      "velocity": 127,
      "chip": "ym2612"
    },
    {
      "channel": 2,
      "note": 72,
      "start": 0.7811,
      "duration": 0.0139,
      "velocity": 127,
      "chip": "ym2612"
    },
    {
      "channel": 3,
      "note": 68,
      "start": 0.7814,
      "duration": 0.0136,
      "velocity": 100,
      "chip": "ym2612"
    },
    {
      "channel": 3,
      "note": 68,
      "start": 0.7952,
      "duration": 0.0127,
      "velocity": 100,
      "chip": "ym2612"
    },
    {
      "channel": 0,
      "note": 77,
      "start": 0.8076,
      "duration": 0.0276,
      "velocity": 127,
      "chip": "ym2612"
    },
    {
      "channel": 2,
      "note": 72,
      "start": 0.8079,
      "duration": 0.0276,
      "velocity": 127,
      "chip": "ym2612"
    },
    {
      "channel": 3,
      "note": 68,
      "start": 0.8082,
      "duration": 0.0134,
      "velocity": 100,
      "chip": "ym2612"
    },
    {
      "channel": 3,
      "note": 68,
      "start": 0.8218,
      "duration": 0.0139,
      "velocity": 100,
      "chip": "ym2612"
    },
    {
      "channel": 0,
      "note": 75,
      "start": 0.8354,
      "duration": 0.0128,
      "velocity": 127,
      "chip": "ym2612"
    },
    {
      "channel": 2,
      "note": 72,
      "start": 0.8356,
      "duration": 0.0127,
      "velocity": 127,
      "chip": "ym2612"
    },
    {
      "channel": 3,
      "note": 68,
      "start": 0.836,
      "duration": 0.0125,
      "velocity": 100,
      "chip": "ym2612"
    },
    {
      "channel": 3,
      "note": 68,
      "start": 0.8487,
      "duration": 0.0152,
      "velocity": 100,
      "chip": "ym2612"
    },
    {
      "channel": 1,
      "note": 89,
      "start": 0.8636,
      "duration": 0.0142,
      "velocity": 127,
      "chip": "ym2612"
    },
    {
      "channel": 2,
      "note": 73,
      "start": 0.8638,
      "duration": 0.0281,
      "velocity": 127,
      "chip": "ym2612"
    },
    {
      "channel": 3,
      "note": 68,
      "start": 0.8641,
      "duration": 0.0138,
      "velocity": 100,
      "chip": "ym2612"
    },
    {
      "channel": 4,
      "note": 32,
      "start": 0.8654,
      "duration": 0.0271,
      "velocity": 114,
      "chip": "ym2612"
    },
    {
      "channel": 3,
      "note": 68,
      "start": 0.8781,
      "duration": 0.0141,
      "velocity": 100,
      "chip": "ym2612"
    },
    {
      "channel": 0,
      "note": 80,
      "start": 0.8917,
      "duration": 0.0144,
      "velocity": 127,
      "chip": "ym2612"
    },
    {
      "channel": 1,
      "note": 92,
      "start": 0.8919,
      "duration": 0.0142,
      "velocity": 127,
      "chip": "ym2612"
    },
    {
      "channel": 2,
      "note": 77,
      "start": 0.8921,
      "duration": 0.0142,
      "velocity": 127,
      "chip": "ym2612"
    },
    {
      "channel": 3,
      "note": 68,
      "start": 0.8924,
      "duration": 0.014,
      "velocity": 100,
      "chip": "ym2612"
    },
    {
      "channel": 4,
      "note": 32,
      "start": 0.8927,
      "duration": 0.014,
      "velocity": 114,
      "chip": "ym2612"
    },
    {
      "channel": 1,
      "note": 92,
      "start": 0.9063,
      "duration": 0.0132,
      "velocity": 127,
      "chip": "ym2612"
    },
    {
      "channel": 3,
      "note": 68,
      "start": 0.9066,
      "duration": 0.0132,
      "velocity": 100,
      "chip": "ym2612"
    },
    {
      "channel": 4,
      "note": 32,
      "start": 0.9069,
      "duration": 0.0133,
      "velocity": 114,
      "chip": "ym2612"
    },
    {
      "channel": 0,
      "note": 82,
      "start": 0.9194,
      "duration": 0.028,
      "velocity": 127,
      "chip": "ym2612"
    },
    {
      "channel": 1,
      "note": 89,
      "start": 0.9196,
      "duration": 0.0151,
      "velocity": 127,
      "chip": "ym2612"
    },
    {
      "channel": 2,
      "note": 77,
      "start": 0.9198,
      "duration": 0.0281,
      "velocity": 127,
      "chip": "ym2612"
    },
    {
      "channel": 3,
      "note": 68,
      "start": 0.9201,
      "duration": 0.0147,
      "velocity": 100,
      "chip": "ym2612"
    },
    {
      "channel": 4,
      "note": 84,
      "start": 0.9214,
      "duration": 0.041,
      "velocity": 127,
      "chip": "ym2612"
    },
    {
      "channel": 3,
      "note": 68,
      "start": 0.9351,
      "duration": 0.013,
      "velocity": 100,
      "chip": "ym2612"
    },
    {
      "channel": 0,
      "note": 80,
      "start": 0.9476,
      "duration": 0.0141,
      "velocity": 127,
      "chip": "ym2612"
    },
    {
      "channel": 1,
      "note": 92,
      "start": 0.9478,
      "duration": 0.014,
      "velocity": 127,
      "chip": "ym2612"
    },
    {
      "channel": 2,
      "note": 77,
      "start": 0.948,
      "duration": 0.014,
      "velocity": 127,
      "chip": "ym2612"
    },
    {
      "channel": 3,
      "note": 68,
      "start": 0.9483,
      "duration": 0.0138,
      "velocity": 100,
      "chip": "ym2612"
    },
    {
      "channel": 1,
      "note": 92,
      "start": 0.962,
      "duration": 0.015,
      "velocity": 127,
      "chip": "ym2612"
    },
    {
      "channel": 3,
      "note": 68,
      "start": 0.9624,
      "duration": 0.015,
      "velocity": 100,
      "chip": "ym2612"
    },
    {
      "channel": 4,
      "note": 32,
      "start": 0.9636,
      "duration": 0.0268,
      "velocity": 114,
      "chip": "ym2612"
    },
    {
      "channel": 1,
      "note": 89,
      "start": 0.9772,
      "duration": 0.0128,
      "velocity": 127,
      "chip": "ym2612"
    },
    {
      "channel": 2,
      "note": 73,
      "start": 0.9773,
      "duration": 0.0271,
      "velocity": 127,
      "chip": "ym2612"
    },
    {
      "channel": 3,
      "note": 68,
      "start": 0.9777,
      "duration": 0.0124,
      "velocity": 100,
      "chip": "ym2612"
    },
    {
      "channel": 3,
      "note": 68,
      "start": 0.9903,
      "duration": 0.0143,
      "velocity": 100,
      "chip": "ym2612"
    },
    {
      "channel": 4,
      "note": 32,
      "start": 0.9905,
      "duration": 0.0144,
      "velocity": 114,
      "chip": "ym2612"
    },
    {
      "channel": 0,
      "note": 80,
      "start": 1.0041,
      "duration": 0.0133,
      "velocity": 127,
      "chip": "ym2612"
    },
    {
      "channel": 1,
      "note": 92,
      "start": 1.0044,
      "duration": 0.0131,
      "velocity": 127,
      "chip": "ym2612"
    },
    {
      "channel": 2,
      "note": 77,
      "start": 1.0045,
      "duration": 0.0132,
      "velocity": 127,
      "chip": "ym2612"
    },
    {
      "channel": 3,
      "note": 68,
      "start": 1.0049,
      "duration": 0.0129,
      "velocity": 100,
      "chip": "ym2612"
    },
    {
      "channel": 4,
      "note": 32,
      "start": 1.0051,
      "duration": 0.0273,
      "velocity": 114,
      "chip": "ym2612"
    },
    {
      "channel": 1,
      "note": 92,
      "start": 1.0176,
      "duration": 0.014,
      "velocity": 127,
      "chip": "ym2612"
    },
    {
      "channel": 3,
      "note": 68,
      "start": 1.018,
      "duration": 0.0141,
      "velocity": 100,
      "chip": "ym2612"
    },
    {
      "channel": 0,
      "note": 82,
      "start": 1.0316,
      "duration": 0.028,
      "velocity": 127,
      "chip": "ym2612"
    },
    {
      "channel": 1,
      "note": 89,
      "start": 1.0318,
      "duration": 0.0151,
      "velocity": 127,
      "chip": "ym2612"
    },
    {
      "channel": 2,
      "note": 77,
      "start": 1.032,
      "duration": 0.028,
      "velocity": 127,
      "chip": "ym2612"
    },
    {
      "channel": 3,
      "note": 68,
      "start": 1.0323,
      "duration": 0.0147,
      "velocity": 100,
      "chip": "ym2612"
    },
    {
      "channel": 4,
      "note": 84,
      "start": 1.0336,
      "duration": 0.0539,
      "velocity": 127,
      "chip": "ym2612"
    },
    {
      "channel": 3,
      "note": 68,
      "start": 1.0473,
      "duration": 0.013,
      "velocity": 100,
      "chip": "ym2612"
    },
    {
      "channel": 0,
      "note": 80,
      "start": 1.0597,
      "duration": 0.014,
      "velocity": 127,
      "chip": "ym2612"
    },
    {
      "channel": 1,
      "note": 92,
      "start": 1.0599,
      "duration": 0.0139,
      "velocity": 127,
      "chip": "ym2612"
    },
    {
      "channel": 2,
      "note": 77,
      "start": 1.0602,
      "duration": 0.0139,
      "velocity": 127,
      "chip": "ym2612"
    },
    {
      "channel": 3,
      "note": 68,
      "start": 1.0604,
      "duration": 0.0137,
      "velocity": 100,
      "chip": "ym2612"
    },
    {
      "channel": 1,
      "note": 92,
      "start": 1.074,
      "duration": 0.0127,
      "velocity": 127,
      "chip": "ym2612"
    },
    {
      "channel": 3,
      "note": 68,
      "start": 1.0744,
      "duration": 0.0129,
      "velocity": 100,
      "chip": "ym2612"
    },
    {
      "channel": 1,
      "note": 84,
      "start": 1.087,
      "duration": 0.0152,
      "velocity": 127,
      "chip": "ym2612"
    },
    {
      "channel": 2,
      "note": 68,
      "start": 1.0872,
      "duration": 0.0293,
      "velocity": 127,
      "chip": "ym2612"
    },
    {
      "channel": 3,
      "note": 68,
      "start": 1.0875,
      "duration": 0.0148,
      "velocity": 100,
      "chip": "ym2612"
    },
    {
      "channel": 4,
      "note": 32,
      "start": 1.0888,
      "duration": 0.0282,
      "velocity": 114,
      "chip": "ym2612"
    },
    {
      "channel": 3,
      "note": 68,
      "start": 1.1025,
      "duration": 0.0141,
      "velocity": 100,
      "chip": "ym2612"
    },
    {
      "channel": 0,
      "note": 75,
      "start": 1.1161,
      "duration": 0.0133,
      "velocity": 127,
      "chip": "ym2612"
    },
    {
      "channel": 1,
      "note": 87,
      "start": 1.1163,
      "duration": 0.0132,
      "velocity": 127,
      "chip": "ym2612"
    },
    {
      "channel": 2,
      "note": 72,
      "start": 1.1165,
      "duration": 0.0132,
      "velocity": 127,
      "chip": "ym2612"
    },
    {
      "channel": 3,
      "note": 68,
      "start": 1.1168,
      "duration": 0.013,
      "velocity": 100,
      "chip": "ym2612"
    },
    {
      "channel": 4,
      "note": 32,
      "start": 1.1171,
      "duration": 0.0129,
      "velocity": 114,
      "chip": "ym2612"
    },
    {
      "channel": 1,
      "note": 87,
      "start": 1.1297,
      "duration": 0.0142,
      "velocity": 127,
      "chip": "ym2612"
    },
    {
      "channel": 3,
      "note": 68,
      "start": 1.13,
      "duration": 0.0143,
      "velocity": 100,
      "chip": "ym2612"
    },
    {
      "channel": 4,
      "note": 32,
      "start": 1.1303,
      "duration": 0.0143,
      "velocity": 114,
      "chip": "ym2612"
    },
    {
      "channel": 0,
      "note": 77,
      "start": 1.1438,
      "duration": 0.0278,
      "velocity": 127,
      "chip": "ym2612"
    },
    {
      "channel": 1,
      "note": 84,
      "start": 1.1441,
      "duration": 0.014,
      "velocity": 127,
      "chip": "ym2612"
    },
    {
      "channel": 2,
      "note": 72,
      "start": 1.1442,
      "duration": 0.0279,
      "velocity": 127,
      "chip": "ym2612"
    },
    {
      "channel": 3,
      "note": 68,
      "start": 1.1446,
      "duration": 0.0136,
      "velocity": 100,
      "chip": "ym2612"
    },
    {
      "channel": 4,
      "note": 84,
      "start": 1.1459,
      "duration": 0.0407,
      "velocity": 127,
      "chip": "ym2612"
    },
    {
      "channel": 3,
      "note": 68,
      "start": 1.1584,
      "duration": 0.0139,
      "velocity": 100,
      "chip": "ym2612"
    },
    {
      "channel": 0,
      "note": 75,
      "start": 1.1719,
      "duration": 0.014,
      "velocity": 127,
      "chip": "ym2612"
    },
    {
      "channel": 1,
      "note": 87,
      "start": 1.1721,
      "duration": 0.0139,
      "velocity": 127,
      "chip": "ym2612"
    },
    {
      "channel": 2,
      "note": 72,
      "start": 1.1723,
      "duration": 0.014,
      "velocity": 127,
      "chip": "ym2612"
    },
    {
      "channel": 3,
      "note": 68,
      "start": 1.1726,
      "duration": 0.0137,
      "velocity": 100,
      "chip": "ym2612"
    },
    {
      "channel": 1,
      "note": 87,
      "start": 1.1862,
      "duration": 0.0139,
      "velocity": 127,
      "chip": "ym2612"
    },
    {
      "channel": 3,
      "note": 68,
      "start": 1.1865,
      "duration": 0.014,
      "velocity": 100,
      "chip": "ym2612"
    },
    {
      "channel": 4,
      "note": 32,
      "start": 1.1878,
      "duration": 0.0268,
      "velocity": 114,
      "chip": "ym2612"
    },
    {
      "channel": 1,
      "note": 84,
      "start": 1.2003,
      "duration": 0.0139,
      "velocity": 127,
      "chip": "ym2612"
    },
    {
      "channel": 2,
      "note": 68,
      "start": 1.2005,
      "duration": 0.027,
      "velocity": 127,
      "chip": "ym2612"
    },
    {
      "channel": 3,
      "note": 68,
      "start": 1.2008,
      "duration": 0.0135,
      "velocity": 100,
      "chip": "ym2612"
    },
    {
      "channel": 3,
      "note": 68,
      "start": 1.2146,
      "duration": 0.0131,
      "velocity": 100,
      "chip": "ym2612"
    },
    {
      "channel": 4,
      "note": 32,
      "start": 1.2148,
      "duration": 0.0132,
      "velocity": 114,
      "chip": "ym2612"
    },
    {
      "channel": 0,
      "note": 75,
      "start": 1.2272,
      "duration": 0.0143,
      "velocity": 127,
      "chip": "ym2612"
    },
    {
      "channel": 1,
      "note": 87,
      "start": 1.2275,
      "duration": 0.0142,
      "velocity": 127,
      "chip": "ym2612"
    },
    {
      "channel": 2,
      "note": 72,
      "start": 1.2276,
      "duration": 0.0142,
      "velocity": 127,
      "chip": "ym2612"
    },
    {
      "channel": 3,
      "note": 68,
      "start": 1.228,
      "duration": 0.014,
      "velocity": 100,
      "chip": "ym2612"
    },
    {
      "channel": 4,
      "note": 32,
      "start": 1.2282,
      "duration": 0.0283,
      "velocity": 114,
      "chip": "ym2612"
    },
    {
      "channel": 1,
      "note": 87,
      "start": 1.2418,
      "duration": 0.0139,
      "velocity": 127,
      "chip": "ym2612"
    },
    {
      "channel": 3,
      "note": 68,
      "start": 1.2421,
      "duration": 0.0141,
      "velocity": 100,
      "chip": "ym2612"
    },
    {
      "channel": 0,
      "note": 77,
      "start": 1.2557,
      "duration": 0.0279,
      "velocity": 127,
      "chip": "ym2612"
    },
    {
      "channel": 1,
      "note": 84,
      "start": 1.2559,
      "duration": 0.0141,
      "velocity": 127,
      "chip": "ym2612"
    },
    {
      "channel": 2,
      "note": 72,
      "start": 1.2561,
      "duration": 0.028,
      "velocity": 127,
      "chip": "ym2612"
    },
    {
      "channel": 3,
      "note": 68,
      "start": 1.2564,
      "duration": 0.0137,
      "velocity": 100,
      "chip": "ym2612"
    },
    {
      "channel": 4,
      "note": 84,
      "start": 1.2577,
      "duration": 0.0541,
      "velocity": 127,
      "chip": "ym2612"
    },
    {
      "channel": 3,
      "note": 68,
      "start": 1.2703,
      "duration": 0.014,
      "velocity": 100,
      "chip": "ym2612"
    },
    {
      "channel": 0,
      "note": 75,
      "start": 1.2838,
      "duration": 0.013,
      "velocity": 127,
      "chip": "ym2612"
    },
    {
      "channel": 1,
      "note": 87,
      "start": 1.2841,
      "duration": 0.0129,
      "velocity": 127,
      "chip": "ym2612"
    },
    {
      "channel": 2,
      "note": 72,
      "start": 1.2843,
      "duration": 0.0129,
      "velocity": 127,
      "chip": "ym2612"
    },
    {
      "channel": 3,
      "note": 68,
      "start": 1.2846,
      "duration": 0.0127,
      "velocity": 100,
      "chip": "ym2612"
    },
    {
      "channel": 1,
      "note": 87,
      "start": 1.2971,
      "duration": 0.0139,
      "velocity": 127,
      "chip": "ym2612"
    },
    {
      "channel": 3,
      "note": 68,
      "start": 1.2974,
      "duration": 0.0142,
      "velocity": 100,
      "chip": "ym2612"
    },
    {
      "channel": 1,
      "note": 89,
      "start": 1.3112,
      "duration": 0.0154,
      "velocity": 127,
      "chip": "ym2612"
    },
    {
      "channel": 2,
      "note": 73,
      "start": 1.3116,
      "duration": 0.0282,
      "velocity": 127,
      "chip": "ym2612"
    },
    {
      "channel": 3,
      "note": 68,
      "start": 1.3118,
      "duration": 0.0149,
      "velocity": 100,
      "chip": "ym2612"
    },
    {
      "channel": 4,
      "note": 32,
      "start": 1.3131,
      "duration": 0.0271,
      "velocity": 114,
      "chip": "ym2612"
    },
    {
      "channel": 3,
      "note": 68,
      "start": 1.3269,
      "duration": 0.013,
      "velocity": 100,
      "chip": "ym2612"
    },
    {
      "channel": 0,
      "note": 80,
      "start": 1.3394,
      "duration": 0.0144,
      "velocity": 127,
      "chip": "ym2612"
    },
    {
      "channel": 1,
      "note": 92,
      "start": 1.3397,
      "duration": 0.0142,
      "velocity": 127,
      "chip": "ym2612"
    },
    {
      "channel": 2,
      "note": 77,
      "start": 1.3398,
      "duration": 0.0142,
      "velocity": 127,
      "chip": "ym2612"
    },
    {
      "channel": 3,
      "note": 68,
      "start": 1.3402,
      "duration": 0.0141,
      "velocity": 100,
      "chip": "ym2612"
    },
    {
      "channel": 4,
      "note": 32,
      "start": 1.3404,
      "duration": 0.014,
      "velocity": 114,
      "chip": "ym2612"
    },
    {
      "channel": 1,
      "note": 92,
      "start": 1.3541,
      "duration": 0.013,
      "velocity": 127,
      "chip": "ym2612"
    },
    {
      "channel": 3,
      "note": 68,
      "start": 1.3544,
      "duration": 0.0132,
      "velocity": 100,
      "chip": "ym2612"
    },
    {
      "channel": 4,
      "note": 32,
      "start": 1.3547,
      "duration": 0.0132,
      "velocity": 114,
      "chip": "ym2612"
    },
    {
      "channel": 0,
      "note": 82,
      "start": 1.3671,
      "duration": 0.0291,
      "velocity": 127,
      "chip": "ym2612"
    },
    {
      "channel": 1,
      "note": 89,
      "start": 1.3673,
      "duration": 0.0151,
      "velocity": 127,
      "chip": "ym2612"
    },
    {
      "channel": 2,
      "note": 77,
      "start": 1.3675,
      "duration": 0.0292,
      "velocity": 127,
      "chip": "ym2612"
    },
    {
      "channel": 3,
      "note": 68,
      "start": 1.3678,
      "duration": 0.0147,
      "velocity": 100,
      "chip": "ym2612"
    },
    {
      "channel": 4,
      "note": 84,
      "start": 1.3691,
      "duration": 0.041,
      "velocity": 127,
      "chip": "ym2612"
    },
    {
      "channel": 3,
      "note": 68,
      "start": 1.3827,
      "duration": 0.0141,
      "velocity": 100,
      "chip": "ym2612"
    },
    {
      "channel": 0,
      "note": 80,
      "start": 1.3963,
      "duration": 0.0131,
      "velocity": 127,
      "chip": "ym2612"
    },
    {
      "channel": 1,
      "note": 92,
      "start": 1.3966,
      "duration": 0.0129,
      "velocity": 127,
      "chip": "ym2612"
    },
    {
      "channel": 2,
      "note": 77,
      "start": 1.3968,
      "duration": 0.0129,
      "velocity": 127,
      "chip": "ym2612"
    },
    {
      "channel": 3,
      "note": 68,
      "start": 1.3971,
      "duration": 0.0127,
      "velocity": 100,
      "chip": "ym2612"
    },
    {
      "channel": 1,
      "note": 92,
      "start": 1.4097,
      "duration": 0.015,
      "velocity": 127,
      "chip": "ym2612"
    },
    {
      "channel": 3,
      "note": 68,
      "start": 1.41,
      "duration": 0.0151,
      "velocity": 100,
      "chip": "ym2612"
    },
    {
      "channel": 4,
      "note": 32,
      "start": 1.4113,
      "duration": 0.0267,
      "velocity": 114,
      "chip": "ym2612"
    },
    {
      "channel": 1,
      "note": 89,
      "start": 1.4248,
      "duration": 0.0128,
      "velocity": 127,
      "chip": "ym2612"
    },
    {
      "channel": 2,
      "note": 73,
      "start": 1.4251,
      "duration": 0.027,
      "velocity": 127,
      "chip": "ym2612"
    },
    {
      "channel": 3,
      "note": 68,
      "start": 1.4253,
      "duration": 0.0124,
      "velocity": 100,
      "chip": "ym2612"
    },
    {
      "channel": 3,
      "note": 68,
      "start": 1.4379,
      "duration": 0.0143,
      "velocity": 100,
      "chip": "ym2612"
    },
    {
      "channel": 4,
      "note": 32,
      "start": 1.4382,
      "duration": 0.0144,
      "velocity": 114,
      "chip": "ym2612"
    },
    {
      "channel": 0,
      "note": 80,
      "start": 1.4517,
      "duration": 0.0143,
      "velocity": 127,
      "chip": "ym2612"
    },
    {
      "channel": 1,
      "note": 92,
      "start": 1.452,
      "duration": 0.0141,
      "velocity": 127,
      "chip": "ym2612"
    },
    {
      "channel": 2,
      "note": 77,
      "start": 1.4522,
      "duration": 0.0141,
      "velocity": 127,
      "chip": "ym2612"
    },
    {
      "channel": 3,
      "note": 68,
      "start": 1.4525,
      "duration": 0.014,
      "velocity": 100,
      "chip": "ym2612"
    },
    {
      "channel": 4,
      "note": 32,
      "start": 1.4528,
      "duration": 0.0272,
      "velocity": 114,
      "chip": "ym2612"
    },
    {
      "channel": 1,
      "note": 92,
      "start": 1.4663,
      "duration": 0.0129,
      "velocity": 127,
      "chip": "ym2612"
    },
    {
      "channel": 3,
      "note": 68,
      "start": 1.4666,
      "duration": 0.013,
      "velocity": 100,
      "chip": "ym2612"
    },
    {
      "channel": 0,
      "note": 82,
      "start": 1.4792,
      "duration": 0.0279,
      "velocity": 127,
      "chip": "ym2612"
    },
    {
      "channel": 1,
      "note": 89,
      "start": 1.4794,
      "duration": 0.015,
      "velocity": 127,
      "chip": "ym2612"
    },
    {
      "channel": 2,
      "note": 77,
      "start": 1.4796,
      "duration": 0.0279,
      "velocity": 127,
      "chip": "ym2612"
    },
    {
      "channel": 3,
      "note": 68,
      "start": 1.4799,
      "duration": 0.0146,
      "velocity": 100,
      "chip": "ym2612"
    },
    {
      "channel": 4,
      "note": 84,
      "start": 1.4812,
      "duration": 0.055,
      "velocity": 127,
      "chip": "ym2612"
    },
    {
      "channel": 3,
      "note": 68,
      "start": 1.4948,
      "duration": 0.013,
      "velocity": 100,
      "chip": "ym2612"
    },
    {
      "channel": 0,
      "note": 80,
      "start": 1.5072,
      "duration": 0.0141,
      "velocity": 127,
      "chip": "ym2612"
    },
    {
      "channel": 1,
      "note": 92,
      "start": 1.5074,
      "duration": 0.014,
      "velocity": 127,
      "chip": "ym2612"
    },
    {
      "channel": 2,
      "note": 77,
      "start": 1.5077,
      "duration": 0.0139,
      "velocity": 127,
      "chip": "ym2612"
    },
    {
      "channel": 3,
      "note": 68,
      "start": 1.5079,
      "duration": 0.0138,
      "velocity": 100,
      "chip": "ym2612"
    },
    {
      "channel": 1,
      "note": 92,
      "start": 1.5216,
      "duration": 0.0138,
      "velocity": 127,
      "chip": "ym2612"
    },
    {
      "channel": 3,
      "note": 68,
      "start": 1.522,
      "duration": 0.0139,
      "velocity": 100,
      "chip": "ym2612"
    },
    {
      "channel": 1,
      "note": 84,
      "start": 1.5356,
      "duration": 0.0141,
      "velocity": 127,
      "chip": "ym2612"
    },
    {
      "channel": 2,
      "note": 68,
      "start": 1.5358,
      "duration": 0.0282,
      "velocity": 127,
      "chip": "ym2612"
    },
    {
      "channel": 3,
      "note": 68,
      "start": 1.5361,
      "duration": 0.0138,
      "velocity": 100,
      "chip": "ym2612"
    },
    {
      "channel": 4,
      "note": 32,
      "start": 1.5374,
      "duration": 0.0271,
      "velocity": 114,
      "chip": "ym2612"
    },
    {
      "channel": 3,
      "note": 68,
      "start": 1.5501,
      "duration": 0.0141,
      "velocity": 100,
      "chip": "ym2612"
    },
    {
      "channel": 0,
      "note": 75,
      "start": 1.5637,
      "duration": 0.0132,
      "velocity": 127,
      "chip": "ym2612"
    },
    {
      "channel": 1,
      "note": 87,
      "start": 1.5639,
      "duration": 0.013,
      "velocity": 127,
      "chip": "ym2612"
    },
    {
      "channel": 2,
      "note": 72,
      "start": 1.5641,
      "duration": 0.013,
      "velocity": 127,
      "chip": "ym2612"
    },
    {
      "channel": 3,
      "note": 68,
      "start": 1.5644,
      "duration": 0.0129,
      "velocity": 100,
      "chip": "ym2612"
    },
    {
      "channel": 4,
      "note": 32,
      "start": 1.5647,
      "duration": 0.0128,
      "velocity": 114,
      "chip": "ym2612"
    },
    {
      "channel": 1,
      "note": 87,
      "start": 1.5771,
      "duration": 0.0142,
      "velocity": 127,
      "chip": "ym2612"
    },
    {
      "channel": 3,
      "note": 68,
      "start": 1.5775,
      "duration": 0.0143,
      "velocity": 100,
      "chip": "ym2612"
    },
    {
      "channel": 4,
      "note": 32,
      "start": 1.5778,
      "duration": 0.0143,
      "velocity": 114,
      "chip": "ym2612"
    },
    {
      "channel": 0,
      "note": 77,
      "start": 1.5913,
      "duration": 0.0279,
      "velocity": 127,
      "chip": "ym2612"
    },
    {
      "channel": 1,
      "note": 84,
      "start": 1.5915,
      "duration": 0.0151,
      "velocity": 127,
      "chip": "ym2612"
    },
    {
      "channel": 2,
      "note": 72,
      "start": 1.5917,
      "duration": 0.028,
      "velocity": 127,
      "chip": "ym2612"
    },
    {
      "channel": 3,
      "note": 68,
      "start": 1.592,
      "duration": 0.0146,
      "velocity": 100,
      "chip": "ym2612"
    },
    {
      "channel": 4,
      "note": 84,
      "start": 1.5933,
      "duration": 0.0408,
      "velocity": 127,
      "chip": "ym2612"
    },
    {
      "channel": 3,
      "note": 68,
      "start": 1.6069,
      "duration": 0.013,
      "velocity": 100,
      "chip": "ym2612"
    },
    {
      "channel": 0,
      "note": 75,
      "start": 1.6193,
      "duration": 0.0141,
      "velocity": 127,
      "chip": "ym2612"
    },
    {
      "channel": 1,
      "note": 87,
      "start": 1.6196,
      "duration": 0.014,
      "velocity": 127,
      "chip": "ym2612"
    },
    {
      "channel": 2,
      "note": 72,
      "start": 1.6198,
      "duration": 0.014,
      "velocity": 127,
      "chip": "ym2612"
    },
    {
      "channel": 3,
      "note": 68,
      "start": 1.6201,
      "duration": 0.0138,
      "velocity": 100,
      "chip": "ym2612"
    },
    {
      "channel": 1,
      "note": 87,
      "start": 1.6338,
      "duration": 0.0139,
      "velocity": 127,
      "chip": "ym2612"
    },
    {
      "channel": 3,
      "note": 68,
      "start": 1.6341,
      "duration": 0.0141,
      "velocity": 100,
      "chip": "ym2612"
    },
    {
      "channel": 4,
      "note": 32,
      "start": 1.6354,
      "duration": 0.0267,
      "velocity": 114,
      "chip": "ym2612"
    },
    {
      "channel": 1,
      "note": 84,
      "start": 1.6478,
      "duration": 0.0139,
      "velocity": 127,
      "chip": "ym2612"
    },
    {
      "channel": 2,
      "note": 68,
      "start": 1.6481,
      "duration": 0.0281,
      "velocity": 127,
      "chip": "ym2612"
    },
    {
      "channel": 3,
      "note": 68,
      "start": 1.6483,
      "duration": 0.0135,
      "velocity": 100,
      "chip": "ym2612"
    },
    {
      "channel": 3,
      "note": 68,
      "start": 1.662,
      "duration": 0.0143,
      "velocity": 100,
      "chip": "ym2612"
    },
    {
      "channel": 4,
      "note": 32,
      "start": 1.6623,
      "duration": 0.0144,
      "velocity": 114,
      "chip": "ym2612"
    },
    {
      "channel": 0,
      "note": 75,
      "start": 1.6759,
      "duration": 0.0133,
      "velocity": 127,
      "chip": "ym2612"
    },
    {
      "channel": 1,
      "note": 87,
      "start": 1.6761,
      "duration": 0.0131,
      "velocity": 127,
      "chip": "ym2612"
    },
    {
      "channel": 2,
      "note": 72,
      "start": 1.6763,
      "duration": 0.0132,
      "velocity": 127,
      "chip": "ym2612"
    },
    {
      "channel": 3,
      "note": 68,
      "start": 1.6766,
      "duration": 0.0129,
      "velocity": 100,
      "chip": "ym2612"
    },
    {
      "channel": 4,
      "note": 32,
      "start": 1.6769,
      "duration": 0.0273,
      "velocity": 114,
      "chip": "ym2612"
    },
    {
      "channel": 1,
      "note": 87,
      "start": 1.6894,
      "duration": 0.014,
      "velocity": 127,
      "chip": "ym2612"
    },
    {
      "channel": 3,
      "note": 68,
      "start": 1.6898,
      "duration": 0.0141,
      "velocity": 100,
      "chip": "ym2612"
    },
    {
      "channel": 0,
      "note": 77,
      "start": 1.7034,
      "duration": 0.028,
      "velocity": 127,
      "chip": "ym2612"
    },
    {
      "channel": 1,
      "note": 84,
      "start": 1.7036,
      "duration": 0.014,
      "velocity": 127,
      "chip": "ym2612"
    },
    {
      "channel": 2,
      "note": 72,
      "start": 1.7038,
      "duration": 0.028,
      "velocity": 127,
      "chip": "ym2612"
    },
    {
      "channel": 3,
      "note": 68,
      "start": 1.7041,
      "duration": 0.0136,
      "velocity": 100,
      "chip": "ym2612"
    },
    {
      "channel": 4,
      "note": 84,
      "start": 1.7054,
      "duration": 0.0542,
      "velocity": 127,
      "chip": "ym2612"
    },
    {
      "channel": 3,
      "note": 68,
      "start": 1.7179,
      "duration": 0.0141,
      "velocity": 100,
      "chip": "ym2612"
    },
    {
      "channel": 0,
      "note": 75,
      "start": 1.7315,
      "duration": 0.0141,
      "velocity": 127,
      "chip": "ym2612"
    },
    {
      "channel": 1,
      "note": 87,
      "start": 1.7317,
      "duration": 0.0139,
      "velocity": 127,
      "chip": "ym2612"
    },
    {
      "channel": 2,
      "note": 72,
      "start": 1.732,
      "duration": 0.0139,
      "velocity": 127,
      "chip": "ym2612"
    },
    {
      "channel": 3,
      "note": 68,
      "start": 1.7322,
      "duration": 0.0138,
      "velocity": 100,
      "chip": "ym2612"
    },
    {
      "channel": 1,
      "note": 87,
      "start": 1.7459,
      "duration": 0.0129,
      "velocity": 127,
      "chip": "ym2612"
    },
    {
      "channel": 3,
      "note": 68,
      "start": 1.7462,
      "duration": 0.0132,
      "velocity": 100,
      "chip": "ym2612"
    },
    {
      "channel": 1,
      "note": 89,
      "start": 1.759,
      "duration": 0.0154,
      "velocity": 127,
      "chip": "ym2612"
    },
    {
      "channel": 2,
      "note": 73,
      "start": 1.7593,
      "duration": 0.0281,
      "velocity": 127,
      "chip": "ym2612"
    },
    {
      "channel": 3,
      "note": 68,
      "start": 1.7595,
      "duration": 0.0149,
      "velocity": 100,
      "chip": "ym2612"
    },
    {
      "channel": 4,
      "note": 32,
      "start": 1.7608,
      "duration": 0.0271,
      "velocity": 114,
      "chip": "ym2612"
    },
    {
      "channel": 3,
      "note": 68,
      "start": 1.7746,
      "duration": 0.0129,
      "velocity": 100,
      "chip": "ym2612"
    },
    {
      "channel": 0,
      "note": 80,
      "start": 1.7871,
      "duration": 0.0144,
      "velocity": 127,
      "chip": "ym2612"
    },
    {
      "channel": 1,
      "note": 92,
      "start": 1.7873,
      "duration": 0.0142,
      "velocity": 127,
      "chip": "ym2612"
    },
    {
      "channel": 2,
      "note": 77,
      "start": 1.7875,
      "duration": 0.0142,
      "velocity": 127,
      "chip": "ym2612"
    },
    {
      "channel": 3,
      "note": 68,
      "start": 1.7878,
      "duration": 0.0141,
      "velocity": 100,
      "chip": "ym2612"
    },
    {
      "channel": 4,
      "note": 32,
      "start": 1.7881,
      "duration": 0.014,
      "velocity": 114,
      "chip": "ym2612"
    },
    {
      "channel": 1,
      "note": 92,
      "start": 1.8017,
      "duration": 0.0143,
      "velocity": 127,
      "chip": "ym2612"
    },
    {
      "channel": 3,
      "note": 68,
      "start": 1.802,
      "duration": 0.0143,
      "velocity": 100,
      "chip": "ym2612"
    },
    {
      "channel": 4,
      "note": 32,
      "start": 1.8023,
      "duration": 0.0144,
      "velocity": 114,
      "chip": "ym2612"
    },
    {
      "channel": 0,
      "note": 82,
      "start": 1.8159,
      "duration": 0.028,
      "velocity": 127,
      "chip": "ym2612"
    },
    {
      "channel": 1,
      "note": 89,
      "start": 1.8161,
      "duration": 0.0141,
      "velocity": 127,
      "chip": "ym2612"
    },
    {
      "channel": 2,
      "note": 77,
      "start": 1.8163,
      "duration": 0.0281,
      "velocity": 127,
      "chip": "ym2612"
    },
    {
      "channel": 3,
      "note": 68,
      "start": 1.8166,
      "duration": 0.0137,
      "velocity": 100,
      "chip": "ym2612"
    },
    {
      "channel": 4,
      "note": 84,
      "start": 1.8179,
      "duration": 0.0399,
      "velocity": 127,
      "chip": "ym2612"
    },
    {
      "channel": 3,
      "note": 68,
      "start": 1.8305,
      "duration": 0.014,
      "velocity": 100,
      "chip": "ym2612"
    },
    {
      "channel": 0,
      "note": 80,
      "start": 1.8441,
      "duration": 0.013,
      "velocity": 127,
      "chip": "ym2612"
    },
    {
      "channel": 1,
      "note": 92,
      "start": 1.8443,
      "duration": 0.0129,
      "velocity": 127,
      "chip": "ym2612"
    },
    {
      "channel": 2,
      "note": 77,
      "start": 1.8445,
      "duration": 0.0129,
      "velocity": 127,
      "chip": "ym2612"
    },
    {
      "channel": 3,
      "note": 68,
      "start": 1.8448,
      "duration": 0.0127,
      "velocity": 100,
      "chip": "ym2612"
    },
    {
      "channel": 1,
      "note": 92,
      "start": 1.8573,
      "duration": 0.015,
      "velocity": 127,
      "chip": "ym2612"
    },
    {
      "channel": 3,
      "note": 68,
      "start": 1.8577,
      "duration": 0.0151,
      "velocity": 100,
      "chip": "ym2612"
    },
    {
      "channel": 4,
      "note": 32,
      "start": 1.859,
      "duration": 0.0278,
      "velocity": 114,
      "chip": "ym2612"
    },
    {
      "channel": 1,
      "note": 89,
      "start": 1.8725,
      "duration": 0.0139,
      "velocity": 127,
      "chip": "ym2612"
    },
    {
      "channel": 2,
      "note": 73,
      "start": 1.8728,
      "duration": 0.0269,
      "velocity": 127,
      "chip": "ym2612"
    },
    {
      "channel": 3,
      "note": 68,
      "start": 1.873,
      "duration": 0.0135,
      "velocity": 100,
      "chip": "ym2612"
    },
    {
      "channel": 3,
      "note": 68,
      "start": 1.8868,
      "duration": 0.0131,
      "velocity": 100,
      "chip": "ym2612"
    },
    {
      "channel": 4,
      "note": 32,
      "start": 1.887,
      "duration": 0.0132,
      "velocity": 114,
      "chip": "ym2612"
    },
    {
      "channel": 0,
      "note": 80,
      "start": 1.8994,
      "duration": 0.0144,
      "velocity": 127,
      "chip": "ym2612"
    },
    {
      "channel": 1,
      "note": 92,
      "start": 1.8996,
      "duration": 0.0142,
      "velocity": 127,
      "chip": "ym2612"
    },
    {
      "channel": 2,
      "note": 77,
      "start": 1.8998,
      "duration": 0.0142,
      "velocity": 127,
      "chip": "ym2612"
    },
    {
      "channel": 3,
      "note": 68,
      "start": 1.9001,
      "duration": 0.0141,
      "velocity": 100,
      "chip": "ym2612"
    },
    {
      "channel": 4,
      "note": 32,
      "start": 1.9004,
      "duration": 0.0273,
      "velocity": 114,
      "chip": "ym2612"
    },
    {
      "channel": 1,
      "note": 92,
      "start": 1.914,
      "duration": 0.0129,
      "velocity": 127,
      "chip": "ym2612"
    },
    {
      "channel": 3,
      "note": 68,
      "start": 1.9144,
      "duration": 0.013,
      "velocity": 100,
      "chip": "ym2612"
    },
    {
      "channel": 0,
      "note": 82,
      "start": 1.9269,
      "duration": 0.029,
      "velocity": 127,
      "chip": "ym2612"
    },
    {
      "channel": 1,
      "note": 89,
      "start": 1.9271,
      "duration": 0.0151,
      "velocity": 127,
      "chip": "ym2612"
    },
    {
      "channel": 2,
      "note": 77,
      "start": 1.9273,
      "duration": 0.0291,
      "velocity": 127,
      "chip": "ym2612"
    },
    {
      "channel": 3,
      "note": 68,
      "start": 1.9276,
      "duration": 0.0147,
      "velocity": 100,
      "chip": "ym2612"
    },
    {
      "channel": 4,
      "note": 84,
      "start": 1.9289,
      "duration": 0.0551,
      "velocity": 127,
      "chip": "ym2612"
    },
    {
      "channel": 3,
      "note": 68,
      "start": 1.9426,
      "duration": 0.0141,
      "velocity": 100,
      "chip": "ym2612"
    },
    {
      "channel": 0,
      "note": 80,
      "start": 1.9561,
      "duration": 0.013,
      "velocity": 127,
      "chip": "ym2612"
    },
    {
      "channel": 1,
      "note": 92,
      "start": 1.9564,
      "duration": 0.0129,
      "velocity": 127,
      "chip": "ym2612"
    },
    {
      "channel": 2,
      "note": 77,
      "start": 1.9566,
      "duration": 0.0129,
      "velocity": 127,
      "chip": "ym2612"
    },
    {
      "channel": 3,
      "note": 68,
      "start": 1.9569,
      "duration": 0.0127,
      "velocity": 100,
      "chip": "ym2612"
    },
    {
      "channel": 1,
      "note": 92,
      "start": 1.9694,
      "duration": 0.0138,
      "velocity": 127,
      "chip": "ym2612"
    },
    {
      "channel": 3,
      "note": 68,
      "start": 1.9697,
      "duration": 0.0139,
      "velocity": 100,
      "chip": "ym2612"
    },
    {
      "channel": 1,
      "note": 84,
      "start": 1.9834,
      "duration": 0.0141,
      "velocity": 127,
      "chip": "ym2612"
    },
    {
      "channel": 2,
      "note": 68,
      "start": 1.9836,
      "duration": 0.0281,
      "velocity": 127,
      "chip": "ym2612"
    },
    {
      "channel": 3,
      "note": 68,
      "start": 1.9839,
      "duration": 0.0138,
      "velocity": 100,
      "chip": "ym2612"
    },
    {
      "channel": 4,
      "note": 32,
      "start": 1.9852,
      "duration": 0.027,
      "velocity": 114,
      "chip": "ym2612"
    },
    {
      "channel": 3,
      "note": 68,
      "start": 1.9978,
      "duration": 0.014,
      "velocity": 100,
      "chip": "ym2612"
    },
    {
      "channel": 0,
      "note": 75,
      "start": 2.0113,
      "duration": 0.0144,
      "velocity": 127,
      "chip": "ym2612"
    },
    {
      "channel": 1,
      "note": 87,
      "start": 2.0116,
      "duration": 0.0142,
      "velocity": 127,
      "chip": "ym2612"
    },
    {
      "channel": 2,
      "note": 72,
      "start": 2.0118,
      "duration": 0.0142,
      "velocity": 127,
      "chip": "ym2612"
    },
    {
      "channel": 3,
      "note": 68,
      "start": 2.0121,
      "duration": 0.0141,
      "velocity": 100,
      "chip": "ym2612"
    },
    {
      "channel": 4,
      "note": 32,
      "start": 2.0124,
      "duration": 0.014,
      "velocity": 114,
      "chip": "ym2612"
    },
    {
      "channel": 1,
      "note": 87,
      "start": 2.026,
      "duration": 0.0131,
      "velocity": 127,
      "chip": "ym2612"
    },
    {
      "channel": 3,
      "note": 68,
      "start": 2.0263,
      "duration": 0.0132,
      "velocity": 100,
      "chip": "ym2612"
    },
    {
      "channel": 4,
      "note": 32,
      "start": 2.0266,
      "duration": 0.0132,
      "velocity": 114,
      "chip": "ym2612"
    },
    {
      "channel": 0,
      "note": 77,
      "start": 2.0391,
      "duration": 0.028,
      "velocity": 127,
      "chip": "ym2612"
    },
    {
      "channel": 1,
      "note": 84,
      "start": 2.0393,
      "duration": 0.0151,
      "velocity": 127,
      "chip": "ym2612"
    },
    {
      "channel": 2,
      "note": 72,
      "start": 2.0395,
      "duration": 0.0281,
      "velocity": 127,
      "chip": "ym2612"
    },
    {
      "channel": 3,
      "note": 68,
      "start": 2.0398,
      "duration": 0.0147,
      "velocity": 100,
      "chip": "ym2612"
    },
    {
      "channel": 4,
      "note": 84,
      "start": 2.0411,
      "duration": 0.0409,
      "velocity": 127,
      "chip": "ym2612"
    },
    {
      "channel": 3,
      "note": 68,
      "start": 2.0548,
      "duration": 0.013,
      "velocity": 100,
      "chip": "ym2612"
    },
    {
      "channel": 0,
      "note": 75,
      "start": 2.0673,
      "duration": 0.0141,
      "velocity": 127,
      "chip": "ym2612"
    },
    {
      "channel": 1,
      "note": 87,
      "start": 2.0675,
      "duration": 0.0139,
      "velocity": 127,
      "chip": "ym2612"
    },
    {
      "channel": 2,
      "note": 72,
      "start": 2.0677,
      "duration": 0.014,
      "velocity": 127,
      "chip": "ym2612"
    },
    {
      "channel": 3,
      "note": 68,
      "start": 2.068,
      "duration": 0.0137,
      "velocity": 100,
      "chip": "ym2612"
    },
    {
      "channel": 1,
      "note": 87,
      "start": 2.0816,
      "duration": 0.015,
      "velocity": 127,
      "chip": "ym2612"
    },
    {
      "channel": 3,
      "note": 68,
      "start": 2.082,
      "duration": 0.0151,
      "velocity": 100,
      "chip": "ym2612"
    },
    {
      "channel": 4,
      "note": 32,
      "start": 2.0832,
      "duration": 0.0268,
      "velocity": 114,
      "chip": "ym2612"
    },
    {
      "channel": 1,
      "note": 84,
      "start": 2.0968,
      "duration": 0.0128,
      "velocity": 127,
      "chip": "ym2612"
    },
    {
      "channel": 2,
      "note": 68,
      "start": 2.097,
      "duration": 0.027,
      "velocity": 127,
      "chip": "ym2612"
    },
    {
      "channel": 3,
      "note": 68,
      "start": 2.0973,
      "duration": 0.0124,
      "velocity": 100,
      "chip": "ym2612"
    },
    {
      "channel": 3,
      "note": 68,
      "start": 2.11,
      "duration": 0.0142,
      "velocity": 100,
      "chip": "ym2612"
    },
    {
      "channel": 4,
      "note": 32,
      "start": 2.1102,
      "duration": 0.0143,
      "velocity": 114,
      "chip": "ym2612"
    },
    {
      "channel": 0,
      "note": 75,
      "start": 2.1237,
      "duration": 0.0133,
      "velocity": 127,
      "chip": "ym2612"
    },
    {
      "channel": 1,
      "note": 87,
      "start": 2.1239,
      "duration": 0.0131,
      "velocity": 127,
      "chip": "ym2612"
    },
    {
      "channel": 2,
      "note": 72,
      "start": 2.1241,
      "duration": 0.0132,
      "velocity": 127,
      "chip": "ym2612"
    },
    {
      "channel": 3,
      "note": 68,
      "start": 2.1244,
      "duration": 0.0129,
      "velocity": 100,
      "chip": "ym2612"
    },
    {
      "channel": 4,
      "note": 32,
      "start": 2.1247,
      "duration": 0.0273,
      "velocity": 114,
      "chip": "ym2612"
    },
    {
      "channel": 1,
      "note": 87,
      "start": 2.1372,
      "duration": 0.014,
      "velocity": 127,
      "chip": "ym2612"
    },
    {
      "channel": 3,
      "note": 68,
      "start": 2.1376,
      "duration": 0.0141,
      "velocity": 100,
      "chip": "ym2612"
    },
    {
      "channel": 0,
      "note": 77,
      "start": 2.1512,
      "duration": 0.0279,
      "velocity": 127,
      "chip": "ym2612"
    },
    {
      "channel": 1,
      "note": 84,
      "start": 2.1514,
      "duration": 0.0151,
      "velocity": 127,
      "chip": "ym2612"
    },
    {
      "channel": 2,
      "note": 72,
      "start": 2.1516,
      "duration": 0.028,
      "velocity": 127,
      "chip": "ym2612"
    },
    {
      "channel": 3,
      "note": 68,
      "start": 2.1519,
      "duration": 0.0147,
      "velocity": 100,
      "chip": "ym2612"
    },
    {
      "channel": 4,
      "note": 84,
      "start": 2.1532,
      "duration": 0.0541,
      "velocity": 127,
      "chip": "ym2612"
    },
    {
      "channel": 3,
      "note": 68,
      "start": 2.1668,
      "duration": 0.013,
      "velocity": 100,
      "chip": "ym2612"
    },
    {
      "channel": 0,
      "note": 75,
      "start": 2.1793,
      "duration": 0.0141,
      "velocity": 127,
      "chip": "ym2612"
    },
    {
      "channel": 1,
      "note": 87,
      "start": 2.1795,
      "duration": 0.0139,
      "velocity": 127,
      "chip": "ym2612"
    },
    {
      "channel": 2,
      "note": 72,
      "start": 2.1798,
      "duration": 0.0139,
      "velocity": 127,
      "chip": "ym2612"
    },
    {
      "channel": 3,
      "note": 68,
      "start": 2.18,
      "duration": 0.0138,
      "velocity": 100,
      "chip": "ym2612"
    },
    {
      "channel": 1,
      "note": 87,
      "start": 2.1936,
      "duration": 0.0129,
      "velocity": 127,
      "chip": "ym2612"
    },
    {
      "channel": 3,
      "note": 68,
      "start": 2.1939,
      "duration": 0.0132,
      "velocity": 100,
      "chip": "ym2612"
    },
    {
      "channel": 1,
      "note": 89,
      "start": 2.2067,
      "duration": 0.0153,
      "velocity": 127,
      "chip": "ym2612"
    },
    {
      "channel": 2,
      "note": 73,
      "start": 2.2071,
      "duration": 0.0292,
      "velocity": 127,
      "chip": "ym2612"
    },
    {
      "channel": 3,
      "note": 68,
      "start": 2.2073,
      "duration": 0.0148,
      "velocity": 100,
      "chip": "ym2612"
    },
    {
      "channel": 4,
      "note": 32,
      "start": 2.2086,
      "duration": 0.0282,
      "velocity": 114,
      "chip": "ym2612"
    },
    {
      "channel": 3,
      "note": 68,
      "start": 2.2224,
      "duration": 0.014,
      "velocity": 100,
      "chip": "ym2612"
    },
    {
      "channel": 0,
      "note": 80,
      "start": 2.2359,
      "duration": 0.0133,
      "velocity": 127,
      "chip": "ym2612"
    },
    {
      "channel": 1,
      "note": 92,
      "start": 2.2362,
      "duration": 0.0132,
      "velocity": 127,
      "chip": "ym2612"
    },
    {
      "channel": 2,
      "note": 77,
      "start": 2.2363,
      "duration": 0.0132,
      "velocity": 127,
      "chip": "ym2612"
    },
    {
      "channel": 3,
      "note": 68,
      "start": 2.2367,
      "duration": 0.013,
      "velocity": 100,
      "chip": "ym2612"
    },
    {
      "channel": 4,
      "note": 32,
      "start": 2.2369,
      "duration": 0.013,
      "velocity": 114,
      "chip": "ym2612"
    },
    {
      "channel": 1,
      "note": 92,
      "start": 2.2495,
      "duration": 0.0142,
      "velocity": 127,
      "chip": "ym2612"
    },
    {
      "channel": 3,
      "note": 68,
      "start": 2.2499,
      "duration": 0.0142,
      "velocity": 100,
      "chip": "ym2612"
    },
    {
      "channel": 4,
      "note": 32,
      "start": 2.2501,
      "duration": 0.0143,
      "velocity": 114,
      "chip": "ym2612"
    },
    {
      "channel": 0,
      "note": 82,
      "start": 2.2636,
      "duration": 0.028,
      "velocity": 127,
      "chip": "ym2612"
    },
    {
      "channel": 1,
      "note": 89,
      "start": 2.2639,
      "duration": 0.0141,
      "velocity": 127,
      "chip": "ym2612"
    },
    {
      "channel": 2,
      "note": 77,
      "start": 2.2641,
      "duration": 0.028,
      "velocity": 127,
      "chip": "ym2612"
    },
    {
      "channel": 3,
      "note": 68,
      "start": 2.2644,
      "duration": 0.0137,
      "velocity": 100,
      "chip": "ym2612"
    },
    {
      "channel": 4,
      "note": 84,
      "start": 2.2657,
      "duration": 0.0408,
      "velocity": 127,
      "chip": "ym2612"
    },
    {
      "channel": 3,
      "note": 68,
      "start": 2.2783,
      "duration": 0.014,
      "velocity": 100,
      "chip": "ym2612"
    },
    {
      "channel": 0,
      "note": 80,
      "start": 2.2918,
      "duration": 0.014,
      "velocity": 127,
      "chip": "ym2612"
    },
    {
      "channel": 1,
      "note": 92,
      "start": 2.2921,
      "duration": 0.0139,
      "velocity": 127,
      "chip": "ym2612"
    },
    {
      "channel": 2,
      "note": 77,
      "start": 2.2922,
      "duration": 0.0139,
      "velocity": 127,
      "chip": "ym2612"
    },
    {
      "channel": 3,
      "note": 68,
      "start": 2.2926,
      "duration": 0.0137,
      "velocity": 100,
      "chip": "ym2612"
    },
    {
      "channel": 1,
      "note": 92,
      "start": 2.3061,
      "duration": 0.0139,
      "velocity": 127,
      "chip": "ym2612"
    },
    {
      "channel": 3,
      "note": 68,
      "start": 2.3064,
      "duration": 0.014,
      "velocity": 100,
      "chip": "ym2612"
    },
    {
      "channel": 4,
      "note": 32,
      "start": 2.3077,
      "duration": 0.0267,
      "velocity": 114,
      "chip": "ym2612"
    },
    {
      "channel": 1,
      "note": 89,
      "start": 2.3201,
      "duration": 0.0139,
      "velocity": 127,
      "chip": "ym2612"
    },
    {
      "channel": 2,
      "note": 73,
      "start": 2.3204,
      "duration": 0.0269,
      "velocity": 127,
      "chip": "ym2612"
    },
    {
      "channel": 3,
      "note": 68,
      "start": 2.3206,
      "duration": 0.0134,
      "velocity": 100,
      "chip": "ym2612"
    },
    {
      "channel": 3,
      "note": 68,
      "start": 2.3343,
      "duration": 0.0132,
      "velocity": 100,
      "chip": "ym2612"
    },
    {
      "channel": 4,
      "note": 32,
      "start": 2.3346,
      "duration": 0.0133,
      "velocity": 114,
      "chip": "ym2612"
    },
    {
      "channel": 0,
      "note": 80,
      "start": 2.347,
      "duration": 0.0143,
      "velocity": 127,
      "chip": "ym2612"
    },
    {
      "channel": 1,
      "note": 92,
      "start": 2.3473,
      "duration": 0.0141,
      "velocity": 127,
      "chip": "ym2612"
    },
    {
      "channel": 2,
      "note": 77,
      "start": 2.3475,
      "duration": 0.0141,
      "velocity": 127,
      "chip": "ym2612"
    },
    {
      "channel": 3,
      "note": 68,
      "start": 2.3478,
      "duration": 0.014,
      "velocity": 100,
      "chip": "ym2612"
    },
    {
      "channel": 4,
      "note": 32,
      "start": 2.348,
      "duration": 0.0283,
      "velocity": 114,
      "chip": "ym2612"
    },
    {
      "channel": 1,
      "note": 92,
      "start": 2.3616,
      "duration": 0.014,
      "velocity": 127,
      "chip": "ym2612"
    },
    {
      "channel": 3,
      "note": 68,
      "start": 2.362,
      "duration": 0.014,
      "velocity": 100,
      "chip": "ym2612"
    },
    {
      "channel": 0,
      "note": 82,
      "start": 2.3755,
      "duration": 0.028,
      "velocity": 127,
      "chip": "ym2612"
    },
    {
      "channel": 1,
      "note": 89,
      "start": 2.3758,
      "duration": 0.014,
      "velocity": 127,
      "chip": "ym2612"
    },
    {
      "channel": 2,
      "note": 77,
      "start": 2.3759,
      "duration": 0.028,
      "velocity": 127,
      "chip": "ym2612"
    },
    {
      "channel": 3,
      "note": 68,
      "start": 2.3763,
      "duration": 0.0136,
      "velocity": 100,
      "chip": "ym2612"
    },
    {
      "channel": 4,
      "note": 84,
      "start": 2.3776,
      "duration": 0.054,
      "velocity": 127,
      "chip": "ym2612"
    },
    {
      "channel": 3,
      "note": 68,
      "start": 2.3901,
      "duration": 0.0141,
      "velocity": 100,
      "chip": "ym2612"
    },
    {
      "channel": 0,
      "note": 80,
      "start": 2.4036,
      "duration": 0.0131,
      "velocity": 127,
      "chip": "ym2612"
    },
    {
      "channel": 1,
      "note": 92,
      "start": 2.4039,
      "duration": 0.0129,
      "velocity": 127,
      "chip": "ym2612"
    },
    {
      "channel": 2,
      "note": 77,
      "start": 2.4041,
      "duration": 0.0129,
      "velocity": 127,
      "chip": "ym2612"
    },
    {
      "channel": 3,
      "note": 68,
      "start": 2.4044,
      "duration": 0.0127,
      "velocity": 100,
      "chip": "ym2612"
    },
    {
      "channel": 1,
      "note": 92,
      "start": 2.417,
      "duration": 0.0139,
      "velocity": 127,
      "chip": "ym2612"
    },
    {
      "channel": 3,
      "note": 68,
      "start": 2.4173,
      "duration": 0.0139,
      "velocity": 100,
      "chip": "ym2612"
    },
    {
      "channel": 1,
      "note": 84,
      "start": 2.431,
      "duration": 0.0152,
      "velocity": 127,
      "chip": "ym2612"
    },
    {
      "channel": 2,
      "note": 68,
      "start": 2.4312,
      "duration": 0.0282,
      "velocity": 127,
      "chip": "ym2612"
    },
    {
      "channel": 3,
      "note": 68,
      "start": 2.4315,
      "duration": 0.0148,
      "velocity": 100,
      "chip": "ym2612"
    },
    {
      "channel": 4,
      "note": 32,
      "start": 2.4328,
      "duration": 0.0271,
      "velocity": 114,
      "chip": "ym2612"
    },
    {
      "channel": 3,
      "note": 68,
      "start": 2.4466,
      "duration": 0.013,
      "velocity": 100,
      "chip": "ym2612"
    },
    {
      "channel": 0,
      "note": 75,
      "start": 2.4591,
      "duration": 0.0143,
      "velocity": 127,
      "chip": "ym2612"
    },
    {
      "channel": 1,
      "note": 87,
      "start": 2.4593,
      "duration": 0.0142,
      "velocity": 127,
      "chip": "ym2612"
    },
    {
      "channel": 2,
      "note": 72,
      "start": 2.4595,
      "duration": 0.0142,
      "velocity": 127,
      "chip": "ym2612"
    },
    {
      "channel": 3,
      "note": 68,
      "start": 2.4598,
      "duration": 0.014,
      "velocity": 100,
      "chip": "ym2612"
    },
    {
      "channel": 4,
      "note": 32,
      "start": 2.4601,
      "duration": 0.014,
      "velocity": 114,
      "chip": "ym2612"
    },
    {
      "channel": 1,
      "note": 87,
      "start": 2.4737,
      "duration": 0.0131,
      "velocity": 127,
      "chip": "ym2612"
    },
    {
      "channel": 3,
      "note": 68,
      "start": 2.474,
      "duration": 0.0133,
      "velocity": 100,
      "chip": "ym2612"
    },
    {
      "channel": 4,
      "note": 32,
      "start": 2.4743,
      "duration": 0.0133,
      "velocity": 114,
      "chip": "ym2612"
    },
    {
      "channel": 0,
      "note": 77,
      "start": 2.4867,
      "duration": 0.029,
      "velocity": 127,
      "chip": "ym2612"
    },
    {
      "channel": 1,
      "note": 84,
      "start": 2.487,
      "duration": 0.0151,
      "velocity": 127,
      "chip": "ym2612"
    },
    {
      "channel": 2,
      "note": 72,
      "start": 2.4872,
      "duration": 0.029,
      "velocity": 127,
      "chip": "ym2612"
    },
    {
      "channel": 3,
      "note": 68,
      "start": 2.4875,
      "duration": 0.0147,
      "velocity": 100,
      "chip": "ym2612"
    },
    {
      "channel": 4,
      "note": 84,
      "start": 2.4888,
      "duration": 0.0409,
      "velocity": 127,
      "chip": "ym2612"
    },
    {
      "channel": 3,
      "note": 68,
      "start": 2.5024,
      "duration": 0.014,
      "velocity": 100,
      "chip": "ym2612"
    },
    {
      "channel": 0,
      "note": 75,
      "start": 2.5159,
      "duration": 0.013,
      "velocity": 127,
      "chip": "ym2612"
    },
    {
      "channel": 1,
      "note": 87,
      "start": 2.5162,
      "duration": 0.0128,
      "velocity": 127,
      "chip": "ym2612"
    },
    {
      "channel": 2,
      "note": 72,
      "start": 2.5163,
      "duration": 0.0129,
      "velocity": 127,
      "chip": "ym2612"
    },
    {
      "channel": 3,
      "note": 68,
      "start": 2.5167,
      "duration": 0.0127,
      "velocity": 100,
      "chip": "ym2612"
    },
    {
      "channel": 1,
      "note": 87,
      "start": 2.5292,
      "duration": 0.015,
      "velocity": 127,
      "chip": "ym2612"
    },
    {
      "channel": 3,
      "note": 68,
      "start": 2.5296,
      "duration": 0.0151,
      "velocity": 100,
      "chip": "ym2612"
    },
    {
      "channel": 4,
      "note": 32,
      "start": 2.5308,
      "duration": 0.0267,
      "velocity": 114,
      "chip": "ym2612"
    },
    {
      "channel": 1,
      "note": 84,
      "start": 2.5444,
      "duration": 0.0128,
      "velocity": 127,
      "chip": "ym2612"
    },
    {
      "channel": 2,
      "note": 68,
      "start": 2.5446,
      "duration": 0.027,
      "velocity": 127,
      "chip": "ym2612"
    },
    {
      "channel": 3,
      "note": 68,
      "start": 2.5449,
      "duration": 0.0124,
      "velocity": 100,
      "chip": "ym2612"
    },
    {
      "channel": 3,
      "note": 68,
      "start": 2.5575,
      "duration": 0.0143,
      "velocity": 100,
      "chip": "ym2612"
    },
    {
      "channel": 4,
      "note": 32,
      "start": 2.5577,
      "duration": 0.0144,
      "velocity": 114,
      "chip": "ym2612"
    },
    {
      "channel": 0,
      "note": 75,
      "start": 2.5712,
      "duration": 0.0143,
      "velocity": 127,
      "chip": "ym2612"
    },
    {
      "channel": 1,
      "note": 87,
      "start": 2.5715,
      "duration": 0.0142,
      "velocity": 127,
      "chip": "ym2612"
    },
    {
      "channel": 2,
      "note": 72,
      "start": 2.5717,
      "duration": 0.0142,
      "velocity": 127,
      "chip": "ym2612"
    },
    {
      "channel": 3,
      "note": 68,
      "start": 2.572,
      "duration": 0.014,
      "velocity": 100,
      "chip": "ym2612"
    },
    {
      "channel": 4,
      "note": 32,
      "start": 2.5723,
      "duration": 0.0273,
      "velocity": 114,
      "chip": "ym2612"
    },
    {
      "channel": 1,
      "note": 87,
      "start": 2.5859,
      "duration": 0.0129,
      "velocity": 127,
      "chip": "ym2612"
    },
    {
      "channel": 3,
      "note": 68,
      "start": 2.5862,
      "duration": 0.013,
      "velocity": 100,
      "chip": "ym2612"
    },
    {
      "channel": 0,
      "note": 77,
      "start": 2.5987,
      "duration": 0.028,
      "velocity": 127,
      "chip": "ym2612"
    },
    {
      "channel": 1,
      "note": 84,
      "start": 2.599,
      "duration": 0.0151,
      "velocity": 127,
      "chip": "ym2612"
    },
    {
      "channel": 2,
      "note": 72,
      "start": 2.5992,
      "duration": 0.0281,
      "velocity": 127,
      "chip": "ym2612"
    },
    {
      "channel": 3,
      "note": 68,
      "start": 2.5995,
      "duration": 0.0147,
      "velocity": 100,
      "chip": "ym2612"
    },
    {
      "channel": 4,
      "note": 84,
      "start": 2.6008,
      "duration": 0.0553,
      "velocity": 127,
      "chip": "ym2612"
    },
    {
      "channel": 3,
      "note": 68,
      "start": 2.6144,
      "duration": 0.013,
      "velocity": 100,
      "chip": "ym2612"
    },
    {
      "channel": 0,
      "note": 75,
      "start": 2.627,
      "duration": 0.0141,
      "velocity": 127,
      "chip": "ym2612"
    },
    {
      "channel": 1,
      "note": 87,
      "start": 2.6272,
      "duration": 0.0139,
      "velocity": 127,
      "chip": "ym2612"
    },
    {
      "channel": 2,
      "note": 72,
      "start": 2.6274,
      "duration": 0.0139,
      "velocity": 127,
      "chip": "ym2612"
    },
    {
      "channel": 3,
      "note": 68,
      "start": 2.6277,
      "duration": 0.0137,
      "velocity": 100,
      "chip": "ym2612"
    },
    {
      "channel": 1,
      "note": 87,
      "start": 2.6413,
      "duration": 0.014,
      "velocity": 127,
      "chip": "ym2612"
    },
    {
      "channel": 3,
      "note": 68,
      "start": 2.6417,
      "duration": 0.0142,
      "velocity": 100,
      "chip": "ym2612"
    },
    {
      "channel": 1,
      "note": 89,
      "start": 2.6555,
      "duration": 0.0142,
      "velocity": 127,
      "chip": "ym2612"
    },
    {
      "channel": 2,
      "note": 73,
      "start": 2.6558,
      "duration": 0.0281,
      "velocity": 127,
      "chip": "ym2612"
    },
    {
      "channel": 3,
      "note": 68,
      "start": 2.656,
      "duration": 0.0137,
      "velocity": 100,
      "chip": "ym2612"
    },
    {
      "channel": 4,
      "note": 32,
      "start": 2.6573,
      "duration": 0.0271,
      "velocity": 114,
      "chip": "ym2612"
    },
    {
      "channel": 3,
      "note": 68,
      "start": 2.67,
      "duration": 0.014,
      "velocity": 100,
      "chip": "ym2612"
    },
    {
      "channel": 0,
      "note": 80,
      "start": 2.6835,
      "duration": 0.0133,
      "velocity": 127,
      "chip": "ym2612"
    },
    {
      "channel": 1,
      "note": 92,
      "start": 2.6838,
      "duration": 0.0132,
      "velocity": 127,
      "chip": "ym2612"
    },
    {
      "channel": 2,
      "note": 77,
      "start": 2.684,
      "duration": 0.0131,
      "velocity": 127,
      "chip": "ym2612"
    },
    {
      "channel": 3,
      "note": 68,
      "start": 2.6843,
      "duration": 0.013,
      "velocity": 100,
      "chip": "ym2612"
    },
    {
      "channel": 4,
      "note": 32,
      "start": 2.6846,
      "duration": 0.013,
      "velocity": 114,
      "chip": "ym2612"
    },
    {
      "channel": 1,
      "note": 92,
      "start": 2.6971,
      "duration": 0.0141,
      "velocity": 127,
      "chip": "ym2612"
    },
    {
      "channel": 3,
      "note": 68,
      "start": 2.6975,
      "duration": 0.0143,
      "velocity": 100,
      "chip": "ym2612"
    },
    {
      "channel": 4,
      "note": 32,
      "start": 2.6977,
      "duration": 0.0143,
      "velocity": 114,
      "chip": "ym2612"
    },
    {
      "channel": 0,
      "note": 82,
      "start": 2.7112,
      "duration": 0.028,
      "velocity": 127,
      "chip": "ym2612"
    },
    {
      "channel": 1,
      "note": 89,
      "start": 2.7114,
      "duration": 0.0152,
      "velocity": 127,
      "chip": "ym2612"
    },
    {
      "channel": 2,
      "note": 77,
      "start": 2.7117,
      "duration": 0.028,
      "velocity": 127,
      "chip": "ym2612"
    },
    {
      "channel": 3,
      "note": 68,
      "start": 2.7119,
      "duration": 0.0148,
      "velocity": 100,
      "chip": "ym2612"
    },
    {
      "channel": 4,
      "note": 84,
      "start": 2.7132,
      "duration": 0.0409,
      "velocity": 127,
      "chip": "ym2612"
    },
    {
      "channel": 3,
      "note": 68,
      "start": 2.7269,
      "duration": 0.0129,
      "velocity": 100,
      "chip": "ym2612"
    },
    {
      "channel": 0,
      "note": 80,
      "start": 2.7394,
      "duration": 0.0141,
      "velocity": 127,
      "chip": "ym2612"
    },
    {
      "channel": 1,
      "note": 92,
      "start": 2.7396,
      "duration": 0.0139,
      "velocity": 127,
      "chip": "ym2612"
    },
    {
      "channel": 2,
      "note": 77,
      "start": 2.7398,
      "duration": 0.0139,
      "velocity": 127,
      "chip": "ym2612"
    },
    {
      "channel": 3,
      "note": 68,
      "start": 2.7401,
      "duration": 0.0137,
      "velocity": 100,
      "chip": "ym2612"
    },
    {
      "channel": 1,
      "note": 92,
      "start": 2.7537,
      "duration": 0.0139,
      "velocity": 127,
      "chip": "ym2612"
    },
    {
      "channel": 3,
      "note": 68,
      "start": 2.7541,
      "duration": 0.014,
      "velocity": 100,
      "chip": "ym2612"
    },
    {
      "channel": 4,
      "note": 32,
      "start": 2.7553,
      "duration": 0.0267,
      "velocity": 114,
      "chip": "ym2612"
    },
    {
      "channel": 1,
      "note": 89,
      "start": 2.7677,
      "duration": 0.0139,
      "velocity": 127,
      "chip": "ym2612"
    },
    {
      "channel": 2,
      "note": 73,
      "start": 2.768,
      "duration": 0.0281,
      "velocity": 127,
      "chip": "ym2612"
    },
    {
      "channel": 3,
      "note": 68,
      "start": 2.7682,
      "duration": 0.0135,
      "velocity": 100,
      "chip": "ym2612"
    },
    {
      "channel": 3,
      "note": 68,
      "start": 2.782,
      "duration": 0.0143,
      "velocity": 100,
      "chip": "ym2612"
    },
    {
      "channel": 4,
      "note": 32,
      "start": 2.7822,
      "duration": 0.0144,
      "velocity": 114,
      "chip": "ym2612"
    },
    {
      "channel": 0,
      "note": 80,
      "start": 2.7958,
      "duration": 0.0133,
      "velocity": 127,
      "chip": "ym2612"
    },
    {
      "channel": 1,
      "note": 92,
      "start": 2.796,
      "duration": 0.0131,
      "velocity": 127,
      "chip": "ym2612"
    },
    {
      "channel": 2,
      "note": 77,
      "start": 2.7962,
      "duration": 0.0132,
      "velocity": 127,
      "chip": "ym2612"
    },
    {
      "channel": 3,
      "note": 68,
      "start": 2.7965,
      "duration": 0.0129,
      "velocity": 100,
      "chip": "ym2612"
    },
    {
      "channel": 4,
      "note": 32,
      "start": 2.7968,
      "duration": 0.0272,
      "velocity": 114,
      "chip": "ym2612"
    },
    {
      "channel": 1,
      "note": 92,
      "start": 2.8093,
      "duration": 0.014,
      "velocity": 127,
      "chip": "ym2612"
    },
    {
      "channel": 3,
      "note": 68,
      "start": 2.8097,
      "duration": 0.014,
      "velocity": 100,
      "chip": "ym2612"
    },
    {
      "channel": 0,
      "note": 82,
      "start": 2.8232,
      "duration": 0.0279,
      "velocity": 127,
      "chip": "ym2612"
    },
    {
      "channel": 1,
      "note": 89,
      "start": 2.8235,
      "duration": 0.014,
      "velocity": 127,
      "chip": "ym2612"
    },
    {
      "channel": 2,
      "note": 77,
      "start": 2.8237,
      "duration": 0.0279,
      "velocity": 127,
      "chip": "ym2612"
    },
    {
      "channel": 3,
      "note": 68,
      "start": 2.824,
      "duration": 0.0136,
      "velocity": 100,
      "chip": "ym2612"
    },
    {
      "channel": 4,
      "note": 84,
      "start": 2.8253,
      "duration": 0.054,
      "velocity": 127,
      "chip": "ym2612"
    },
    {
      "channel": 3,
      "note": 68,
      "start": 2.8378,
      "duration": 0.014,
      "velocity": 100,
      "chip": "ym2612"
    },
    {
      "channel": 0,
      "note": 80,
      "start": 2.8513,
      "duration": 0.0141,
      "velocity": 127,
      "chip": "ym2612"
    },
    {
      "channel": 1,
      "note": 92,
      "start": 2.8515,
      "duration": 0.014,
      "velocity": 127,
      "chip": "ym2612"
    },
    {
      "channel": 2,
      "note": 77,
      "start": 2.8518,
      "duration": 0.0139,
      "velocity": 127,
      "chip": "ym2612"
    },
    {
      "channel": 3,
      "note": 68,
      "start": 2.852,
      "duration": 0.0138,
      "velocity": 100,
      "chip": "ym2612"
    },
    {
      "channel": 1,
      "note": 92,
      "start": 2.8657,
      "duration": 0.0127,
      "velocity": 127,
      "chip": "ym2612"
    },
    {
      "channel": 3,
      "note": 68,
      "start": 2.866,
      "duration": 0.0129,
      "velocity": 100,
      "chip": "ym2612"
    },
    {
      "channel": 1,
      "note": 84,
      "start": 2.8786,
      "duration": 0.0151,
      "velocity": 127,
      "chip": "ym2612"
    },
    {
      "channel": 2,
      "note": 68,
      "start": 2.8788,
      "duration": 0.0279,
      "velocity": 127,
      "chip": "ym2612"
    },
    {
      "channel": 3,
      "note": 68,
      "start": 2.8792,
      "duration": 0.0147,
      "velocity": 100,
      "chip": "ym2612"
    },
    {
      "channel": 4,
      "note": 32,
      "start": 2.8804,
      "duration": 0.0268,
      "velocity": 114,
      "chip": "ym2612"
    },
    {
      "channel": 3,
      "note": 68,
      "start": 2.894,
      "duration": 0.0129,
      "velocity": 100,
      "chip": "ym2612"
    },
    {
      "channel": 0,
      "note": 75,
      "start": 2.9064,
      "duration": 0.0143,
      "velocity": 127,
      "chip": "ym2612"
    },
    {
      "channel": 1,
      "note": 87,
      "start": 2.9067,
      "duration": 0.0141,
      "velocity": 127,
      "chip": "ym2612"
    },
    {
      "channel": 2,
      "note": 72,
      "start": 2.9069,
      "duration": 0.0141,
      "velocity": 127,
      "chip": "ym2612"
    },
    {
      "channel": 3,
      "note": 68,
      "start": 2.9072,
      "duration": 0.014,
      "velocity": 100,
      "chip": "ym2612"
    },
    {
      "channel": 4,
      "note": 32,
      "start": 2.9075,
      "duration": 0.0139,
      "velocity": 114,
      "chip": "ym2612"
    },
    {
      "channel": 1,
      "note": 87,
      "start": 2.921,
      "duration": 0.0142,
      "velocity": 127,
      "chip": "ym2612"
    },
    {
      "channel": 3,
      "note": 68,
      "start": 2.9213,
      "duration": 0.0143,
      "velocity": 100,
      "chip": "ym2612"
    },
    {
      "channel": 4,
      "note": 32,
      "start": 2.9217,
      "duration": 0.0143,
      "velocity": 114,
      "chip": "ym2612"
    },
    {
      "channel": 0,
      "note": 77,
      "start": 2.9351,
      "duration": 0.028,
      "velocity": 127,
      "chip": "ym2612"
    },
    {
      "channel": 1,
      "note": 84,
      "start": 2.9354,
      "duration": 0.0141,
      "velocity": 127,
      "chip": "ym2612"
    },
    {
      "channel": 2,
      "note": 72,
      "start": 2.9356,
      "duration": 0.028,
      "velocity": 127,
      "chip": "ym2612"
    },
    {
      "channel": 3,
      "note": 68,
      "start": 2.9359,
      "duration": 0.0137,
      "velocity": 100,
      "chip": "ym2612"
    },
    {
      "channel": 4,
      "note": 84,
      "start": 2.9372,
      "duration": 0.0399,
      "velocity": 127,
      "chip": "ym2612"
    },
    {
      "channel": 3,
      "note": 68,
      "start": 2.9498,
      "duration": 0.0141,
      "velocity": 100,
      "chip": "ym2612"
    },
    {
      "channel": 0,
      "note": 75,
      "start": 2.9634,
      "duration": 0.013,
      "velocity": 127,
      "chip": "ym2612"
    },
    {
      "channel": 1,
      "note": 87,
      "start": 2.9636,
      "duration": 0.0129,
      "velocity": 127,
      "chip": "ym2612"
    },
    {
      "channel": 2,
      "note": 72,
      "start": 2.9638,
      "duration": 0.013,
      "velocity": 127,
      "chip": "ym2612"
    },
    {
      "channel": 3,
      "note": 68,
      "start": 2.9641,
      "duration": 0.0127,
      "velocity": 100,
      "chip": "ym2612"
    },
    {
      "channel": 1,
      "note": 87,
      "start": 2.9767,
      "duration": 0.0149,
      "velocity": 127,
      "chip": "ym2612"
    },
    {
      "channel": 3,
      "note": 68,
      "start": 2.9771,
      "duration": 0.0151,
      "velocity": 100,
      "chip": "ym2612"
    },
    {
      "channel": 4,
      "note": 32,
      "start": 2.9783,
      "duration": 0.0278,
      "velocity": 114,
      "chip": "ym2612"
    },
    {
      "channel": 1,
      "note": 84,
      "start": 2.9918,
      "duration": 0.014,
      "velocity": 127,
      "chip": "ym2612"
    },
    {
      "channel": 2,
      "note": 68,
      "start": 2.992,
      "duration": 0.027,
      "velocity": 127,
      "chip": "ym2612"
    },
    {
      "channel": 3,
      "note": 68,
      "start": 2.9923,
      "duration": 0.0136,
      "velocity": 100,
      "chip": "ym2612"
    },
    {
      "channel": 3,
      "note": 68,
      "start": 3.0061,
      "duration": 0.0132,
      "velocity": 100,
      "chip": "ym2612"
    },
    {
      "channel": 4,
      "note": 32,
      "start": 3.0063,
      "duration": 0.0132,
      "velocity": 114,
      "chip": "ym2612"
    },
    {
      "channel": 0,
      "note": 75,
      "start": 3.0187,
      "duration": 0.0143,
      "velocity": 127,
      "chip": "ym2612"
    },
    {
      "channel": 1,
      "note": 87,
      "start": 3.019,
      "duration": 0.0141,
      "velocity": 127,
      "chip": "ym2612"
    },
    {
      "channel": 2,
      "note": 72,
      "start": 3.0192,
      "duration": 0.0141,
      "velocity": 127,
      "chip": "ym2612"
    },
    {
      "channel": 3,
      "note": 68,
      "start": 3.0195,
      "duration": 0.014,
      "velocity": 100,
      "chip": "ym2612"
    },
    {
      "channel": 4,
      "note": 32,
      "start": 3.0197,
      "duration": 0.0272,
      "velocity": 114,
      "chip": "ym2612"
    },
    {
      "channel": 1,
      "note": 87,
      "start": 3.0333,
      "duration": 0.0129,
      "velocity": 127,
      "chip": "ym2612"
    },
    {
      "channel": 3,
      "note": 68,
      "start": 3.0337,
      "duration": 0.013,
      "velocity": 100,
      "chip": "ym2612"
    },
    {
      "channel": 0,
      "note": 77,
      "start": 3.0461,
      "duration": 0.029,
      "velocity": 127,
      "chip": "ym2612"
    },
    {
      "channel": 1,
      "note": 84,
      "start": 3.0464,
      "duration": 0.0151,
      "velocity": 127,
      "chip": "ym2612"
    },
    {
      "channel": 2,
      "note": 72,
      "start": 3.0466,
      "duration": 0.0291,
      "velocity": 127,
      "chip": "ym2612"
    },
    {
      "channel": 3,
      "note": 68,
      "start": 3.0469,
      "duration": 0.0146,
      "velocity": 100,
      "chip": "ym2612"
    },
    {
      "channel": 4,
      "note": 84,
      "start": 3.0482,
      "duration": 0.0553,
      "velocity": 127,
      "chip": "ym2612"
    },
    {
      "channel": 3,
      "note": 68,
      "start": 3.0618,
      "duration": 0.0141,
      "velocity": 100,
      "chip": "ym2612"
    },
    {
      "channel": 0,
      "note": 75,
      "start": 3.0754,
      "duration": 0.013,
      "velocity": 127,
      "chip": "ym2612"
    },
    {
      "channel": 1,
      "note": 87,
      "start": 3.0756,
      "duration": 0.0128,
      "velocity": 127,
      "chip": "ym2612"
    },
    {
      "channel": 2,
      "note": 72,
      "start": 3.0758,
      "duration": 0.0129,
      "velocity": 127,
      "chip": "ym2612"
    },
    {
      "channel": 3,
      "note": 68,
      "start": 3.0761,
      "duration": 0.0127,
      "velocity": 100,
      "chip": "ym2612"
    },
    {
      "channel": 1,
      "note": 87,
      "start": 3.0887,
      "duration": 0.014,
      "velocity": 127,
      "chip": "ym2612"
    },
    {
      "channel": 3,
      "note": 68,
      "start": 3.089,
      "duration": 0.0142,
      "velocity": 100,
      "chip": "ym2612"
    },
    {
      "channel": 1,
      "note": 89,
      "start": 3.1028,
      "duration": 0.0142,
      "velocity": 127,
      "chip": "ym2612"
    },
    {
      "channel": 2,
      "note": 73,
      "start": 3.1032,
      "duration": 0.028,
      "velocity": 127,
      "chip": "ym2612"
    },
    {
      "channel": 3,
      "note": 68,
      "start": 3.1034,
      "duration": 0.0137,
      "velocity": 100,
      "chip": "ym2612"
    },
    {
      "channel": 4,
      "note": 32,
      "start": 3.1047,
      "duration": 0.027,
      "velocity": 114,
      "chip": "ym2612"
    },
    {
      "channel": 3,
      "note": 68,
      "start": 3.1174,
      "duration": 0.014,
      "velocity": 100,
      "chip": "ym2612"
    },
    {
      "channel": 0,
      "note": 80,
      "start": 3.1309,
      "duration": 0.0144,
      "velocity": 127,
      "chip": "ym2612"
    },
    {
      "channel": 1,
      "note": 92,
      "start": 3.1311,
      "duration": 0.0142,
      "velocity": 127,
      "chip": "ym2612"
    },
    {
      "channel": 2,
      "note": 77,
      "start": 3.1313,
      "duration": 0.0143,
      "velocity": 127,
      "chip": "ym2612"
    },
    {
      "channel": 3,
      "note": 68,
      "start": 3.1316,
      "duration": 0.014,
      "velocity": 100,
      "chip": "ym2612"
    },
    {
      "channel": 4,
      "note": 32,
      "start": 3.1319,
      "duration": 0.014,
      "velocity": 114,
      "chip": "ym2612"
    },
    {
      "channel": 1,
      "note": 92,
      "start": 3.1455,
      "duration": 0.0132,
      "velocity": 127,
      "chip": "ym2612"
    },
    {
      "channel": 3,
      "note": 68,
      "start": 3.1459,
      "duration": 0.0132,
      "velocity": 100,
      "chip": "ym2612"
    },
    {
      "channel": 4,
      "note": 32,
      "start": 3.1461,
      "duration": 0.0133,
      "velocity": 114,
      "chip": "ym2612"
    },
    {
      "channel": 0,
      "note": 82,
      "start": 3.1586,
      "duration": 0.0279,
      "velocity": 127,
      "chip": "ym2612"
    },
    {
      "channel": 1,
      "note": 89,
      "start": 3.1589,
      "duration": 0.0151,
      "velocity": 127,
      "chip": "ym2612"
    },
    {
      "channel": 2,
      "note": 77,
      "start": 3.159,
      "duration": 0.028,
      "velocity": 127,
      "chip": "ym2612"
    },
    {
      "channel": 3,
      "note": 68,
      "start": 3.1594,
      "duration": 0.0147,
      "velocity": 100,
      "chip": "ym2612"
    },
    {
      "channel": 4,
      "note": 84,
      "start": 3.1607,
      "duration": 0.0408,
      "velocity": 127,
      "chip": "ym2612"
    },
    {
      "channel": 3,
      "note": 68,
      "start": 3.1743,
      "duration": 0.0129,
      "velocity": 100,
      "chip": "ym2612"
    },
    {
      "channel": 0,
      "note": 80,
      "start": 3.1867,
      "duration": 0.0141,
      "velocity": 127,
      "chip": "ym2612"
    },
    {
      "channel": 1,
      "note": 92,
      "start": 3.187,
      "duration": 0.014,
      "velocity": 127,
      "chip": "ym2612"
    },
    {
      "channel": 2,
      "note": 77,
      "start": 3.1871,
      "duration": 0.014,
      "velocity": 127,
      "chip": "ym2612"
    },
    {
      "channel": 3,
      "note": 68,
      "start": 3.1875,
      "duration": 0.0138,
      "velocity": 100,
      "chip": "ym2612"
    },
    {
      "channel": 1,
      "note": 92,
      "start": 3.2011,
      "duration": 0.015,
      "velocity": 127,
      "chip": "ym2612"
    },
    {
      "channel": 3,
      "note": 68,
      "start": 3.2014,
      "duration": 0.0151,
      "velocity": 100,
      "chip": "ym2612"
    },
    {
      "channel": 4,
      "note": 32,
      "start": 3.2027,
      "duration": 0.0267,
      "velocity": 114,
      "chip": "ym2612"
    },
    {
      "channel": 1,
      "note": 89,
      "start": 3.2162,
      "duration": 0.0128,
      "velocity": 127,
      "chip": "ym2612"
    },
    {
      "channel": 2,
      "note": 73,
      "start": 3.2165,
      "duration": 0.027,
      "velocity": 127,
      "chip": "ym2612"
    },
    {
      "channel": 3,
      "note": 68,
      "start": 3.2167,
      "duration": 0.0125,
      "velocity": 100,
      "chip": "ym2612"
    },
    {
      "channel": 3,
      "note": 68,
      "start": 3.2294,
      "duration": 0.0143,
      "velocity": 100,
      "chip": "ym2612"
    },
    {
      "channel": 4,
      "note": 32,
      "start": 3.2296,
      "duration": 0.0143,
      "velocity": 114,
      "chip": "ym2612"
    },
    {
      "channel": 0,
      "note": 80,
      "start": 3.2432,
      "duration": 0.0133,
      "velocity": 127,
      "chip": "ym2612"
    },
    {
      "channel": 1,
      "note": 92,
      "start": 3.2434,
      "duration": 0.0132,
      "velocity": 127,
      "chip": "ym2612"
    },
    {
      "channel": 2,
      "note": 77,
      "start": 3.2437,
      "duration": 0.0131,
      "velocity": 127,
      "chip": "ym2612"
    },
    {
      "channel": 3,
      "note": 68,
      "start": 3.2439,
      "duration": 0.013,
      "velocity": 100,
      "chip": "ym2612"
    },
    {
      "channel": 4,
      "note": 32,
      "start": 3.2442,
      "duration": 0.0272,
      "velocity": 114,
      "chip": "ym2612"
    },
    {
      "channel": 1,
      "note": 92,
      "start": 3.2567,
      "duration": 0.0139,
      "velocity": 127,
      "chip": "ym2612"
    },
    {
      "channel": 3,
      "note": 68,
      "start": 3.2571,
      "duration": 0.014,
      "velocity": 100,
      "chip": "ym2612"
    },
    {
      "channel": 0,
      "note": 82,
      "start": 3.2705,
      "duration": 0.028,
      "velocity": 127,
      "chip": "ym2612"
    },
    {
      "channel": 1,
      "note": 89,
      "start": 3.2708,
      "duration": 0.0151,
      "velocity": 127,
      "chip": "ym2612"
    },
    {
      "channel": 2,
      "note": 77,
      "start": 3.271,
      "duration": 0.0281,
      "velocity": 127,
      "chip": "ym2612"
    },
    {
      "channel": 3,
      "note": 68,
      "start": 3.2713,
      "duration": 0.0148,
      "velocity": 100,
      "chip": "ym2612"
    },
    {
      "channel": 4,
      "note": 84,
      "start": 3.2726,
      "duration": 0.0541,
      "velocity": 127,
      "chip": "ym2612"
    },
    {
      "channel": 3,
      "note": 68,
      "start": 3.2862,
      "duration": 0.013,
      "velocity": 100,
      "chip": "ym2612"
    },
    {
      "channel": 0,
      "note": 80,
      "start": 3.2988,
      "duration": 0.0141,
      "velocity": 127,
      "chip": "ym2612"
    },
    {
      "channel": 1,
      "note": 92,
      "start": 3.299,
      "duration": 0.0139,
      "velocity": 127,
      "chip": "ym2612"
    },
    {
      "channel": 2,
      "note": 77,
      "start": 3.2992,
      "duration": 0.014,
      "velocity": 127,
      "chip": "ym2612"
    },
    {
      "channel": 3,
      "note": 68,
      "start": 3.2995,
      "duration": 0.0137,
      "velocity": 100,
      "chip": "ym2612"
    },
    {
      "channel": 1,
      "note": 92,
      "start": 3.3131,
      "duration": 0.0128,
      "velocity": 127,
      "chip": "ym2612"
    },
    {
      "channel": 3,
      "note": 68,
      "start": 3.3135,
      "duration": 0.0129,
      "velocity": 100,
      "chip": "ym2612"
    },
    {
      "channel": 1,
      "note": 84,
      "start": 3.3261,
      "duration": 0.0153,
      "velocity": 127,
      "chip": "ym2612"
    },
    {
      "channel": 2,
      "note": 68,
      "start": 3.3263,
      "duration": 0.0292,
      "velocity": 127,
      "chip": "ym2612"
    },
    {
      "channel": 3,
      "note": 68,
      "start": 3.3266,
      "duration": 0.0148,
      "velocity": 100,
      "chip": "ym2612"
    },
    {
      "channel": 4,
      "note": 32,
      "start": 3.3279,
      "duration": 0.0281,
      "velocity": 114,
      "chip": "ym2612"
    },
    {
      "channel": 3,
      "note": 68,
      "start": 3.3417,
      "duration": 0.014,
      "velocity": 100,
      "chip": "ym2612"
    },
    {
      "channel": 0,
      "note": 75,
      "start": 3.3552,
      "duration": 0.0133,
      "velocity": 127,
      "chip": "ym2612"
    },
    {
      "channel": 1,
      "note": 87,
      "start": 3.3554,
      "duration": 0.0132,
      "velocity": 127,
      "chip": "ym2612"
    },
    {
      "channel": 2,
      "note": 72,
      "start": 3.3557,
      "duration": 0.0131,
      "velocity": 127,
      "chip": "ym2612"
    },
    {
      "channel": 3,
      "note": 68,
      "start": 3.3559,
      "duration": 0.013,
      "velocity": 100,
      "chip": "ym2612"
    },
    {
      "channel": 4,
      "note": 32,
      "start": 3.3562,
      "duration": 0.013,
      "velocity": 114,
      "chip": "ym2612"
    },
    {
      "channel": 1,
      "note": 87,
      "start": 3.3688,
      "duration": 0.0142,
      "velocity": 127,
      "chip": "ym2612"
    },
    {
      "channel": 3,
      "note": 68,
      "start": 3.3691,
      "duration": 0.0144,
      "velocity": 100,
      "chip": "ym2612"
    },
    {
      "channel": 4,
      "note": 32,
      "start": 3.3694,
      "duration": 0.0144,
      "velocity": 114,
      "chip": "ym2612"
    },
    {
      "channel": 0,
      "note": 77,
      "start": 3.3829,
      "duration": 0.0279,
      "velocity": 127,
      "chip": "ym2612"
    },
    {
      "channel": 1,
      "note": 84,
      "start": 3.3832,
      "duration": 0.014,
      "velocity": 127,
      "chip": "ym2612"
    },
    {
      "channel": 2,
      "note": 72,
      "start": 3.3834,
      "duration": 0.028,
      "velocity": 127,
      "chip": "ym2612"
    },
    {
      "channel": 3,
      "note": 68,
      "start": 3.3837,
      "duration": 0.0137,
      "velocity": 100,
      "chip": "ym2612"
    },
    {
      "channel": 4,
      "note": 84,
      "start": 3.385,
      "duration": 0.0408,
      "velocity": 127,
      "chip": "ym2612"
    },
    {
      "channel": 3,
      "note": 68,
      "start": 3.3975,
      "duration": 0.0141,
      "velocity": 100,
      "chip": "ym2612"
    },
    {
      "channel": 0,
      "note": 75,
      "start": 3.4111,
      "duration": 0.014,
      "velocity": 127,
      "chip": "ym2612"
    },
    {
      "channel": 1,
      "note": 87,
      "start": 3.4113,
      "duration": 0.0139,
      "velocity": 127,
      "chip": "ym2612"
    },
    {
      "channel": 2,
      "note": 72,
      "start": 3.4115,
      "duration": 0.0139,
      "velocity": 127,
      "chip": "ym2612"
    },
    {
      "channel": 3,
      "note": 68,
      "start": 3.4118,
      "duration": 0.0137,
      "velocity": 100,
      "chip": "ym2612"
    },
    {
      "channel": 1,
      "note": 87,
      "start": 3.4254,
      "duration": 0.0139,
      "velocity": 127,
      "chip": "ym2612"
    },
    {
      "channel": 3,
      "note": 68,
      "start": 3.4258,
      "duration": 0.0141,
      "velocity": 100,
      "chip": "ym2612"
    },
    {
      "channel": 4,
      "note": 32,
      "start": 3.4271,
      "duration": 0.0267,
      "velocity": 114,
      "chip": "ym2612"
    },
    {
      "channel": 1,
      "note": 84,
      "start": 3.4395,
      "duration": 0.0139,
      "velocity": 127,
      "chip": "ym2612"
    },
    {
      "channel": 2,
      "note": 68,
      "start": 3.4398,
      "duration": 0.027,
      "velocity": 127,
      "chip": "ym2612"
    },
    {
      "channel": 3,
      "note": 68,
      "start": 3.44,
      "duration": 0.0134,
      "velocity": 100,
      "chip": "ym2612"
    },
    {
      "channel": 3,
      "note": 68,
      "start": 3.4537,
      "duration": 0.0132,
      "velocity": 100,
      "chip": "ym2612"
    },
    {
      "channel": 4,
      "note": 32,
      "start": 3.4539,
      "duration": 0.0133,
      "velocity": 114,
      "chip": "ym2612"
    },
    {
      "channel": 0,
      "note": 75,
      "start": 3.4664,
      "duration": 0.0143,
      "velocity": 127,
      "chip": "ym2612"
    },
    {
      "channel": 1,
      "note": 87,
      "start": 3.4667,
      "duration": 0.0142,
      "velocity": 127,
      "chip": "ym2612"
    },
    {
      "channel": 2,
      "note": 72,
      "start": 3.4668,
      "duration": 0.0142,
      "velocity": 127,
      "chip": "ym2612"
    },
    {
      "channel": 3,
      "note": 68,
      "start": 3.4672,
      "duration": 0.014,
      "velocity": 100,
      "chip": "ym2612"
    },
    {
      "channel": 4,
      "note": 32,
      "start": 3.4674,
      "duration": 0.0283,
      "velocity": 114,
      "chip": "ym2612"
    },
    {
      "channel": 1,
      "note": 87,
      "start": 3.481,
      "duration": 0.0139,
      "velocity": 127,
      "chip": "ym2612"
    },
    {
      "channel": 3,
      "note": 68,
      "start": 3.4813,
      "duration": 0.0141,
      "velocity": 100,
      "chip": "ym2612"
    },
    {
      "channel": 0,
      "note": 77,
      "start": 3.4949,
      "duration": 0.028,
      "velocity": 127,
      "chip": "ym2612"
    },
    {
      "channel": 1,
      "note": 84,
      "start": 3.4951,
      "duration": 0.0141,
      "velocity": 127,
      "chip": "ym2612"
    },
    {
      "channel": 2,
      "note": 72,
      "start": 3.4954,
      "duration": 0.028,
      "velocity": 127,
      "chip": "ym2612"
    },
    {
      "channel": 3,
      "note": 68,
      "start": 3.4956,
      "duration": 0.0137,
      "velocity": 100,
      "chip": "ym2612"
    },
    {
      "channel": 4,
      "note": 84,
      "start": 3.4969,
      "duration": 0.0545,
      "velocity": 127,
      "chip": "ym2612"
    },
    {
      "channel": 3,
      "note": 68,
      "start": 3.5096,
      "duration": 0.014,
      "velocity": 100,
      "chip": "ym2612"
    },
    {
      "channel": 0,
      "note": 75,
      "start": 3.5231,
      "duration": 0.013,
      "velocity": 127,
      "chip": "ym2612"
    },
    {
      "channel": 1,
      "note": 87,
      "start": 3.5233,
      "duration": 0.0129,
      "velocity": 127,
      "chip": "ym2612"
    },
    {
      "channel": 2,
      "note": 72,
      "start": 3.5235,
      "duration": 0.0129,
      "velocity": 127,
      "chip": "ym2612"
    },
    {
      "channel": 3,
      "note": 68,
      "start": 3.5238,
      "duration": 0.0127,
      "velocity": 100,
      "chip": "ym2612"
    },
    {
      "channel": 1,
      "note": 87,
      "start": 3.5364,
      "duration": 0.0144,
      "velocity": 127,
      "chip": "ym2612"
    },
    {
      "channel": 3,
      "note": 68,
      "start": 3.5367,
      "duration": 0.0144,
      "velocity": 100,
      "chip": "ym2612"
    },
    {
      "channel": 2,
      "note": 73,
      "start": 3.5511,
      "duration": 0.0266,
      "velocity": 127,
      "chip": "ym2612"
    },
    {
      "channel": 3,
      "note": 68,
      "start": 3.5513,
      "duration": 0.0136,
      "velocity": 100,
      "chip": "ym2612"
    },
    {
      "channel": 3,
      "note": 68,
      "start": 3.5651,
      "duration": 0.0128,
      "velocity": 100,
      "chip": "ym2612"
    },
    {
      "channel": 0,
      "note": 80,
      "start": 3.5776,
      "duration": 0.0138,
      "velocity": 127,
      "chip": "ym2612"
    },
    {
      "channel": 2,
      "note": 77,
      "start": 3.5779,
      "duration": 0.0137,
      "velocity": 127,
      "chip": "ym2612"
    },
    {
      "channel": 3,
      "note": 68,
      "start": 3.5781,
      "duration": 0.0135,
      "velocity": 100,
      "chip": "ym2612"
    },
    {
      "channel": 3,
      "note": 68,
      "start": 3.5919,
      "duration": 0.0128,
      "velocity": 100,
      "chip": "ym2612"
    },
    {
      "channel": 0,
      "note": 82,
      "start": 3.6044,
      "duration": 0.0274,
      "velocity": 127,
      "chip": "ym2612"
    },
    {
      "channel": 2,
      "note": 77,
      "start": 3.6046,
      "duration": 0.0273,
      "velocity": 127,
      "chip": "ym2612"
    },
    {
      "channel": 3,
      "note": 68,
      "start": 3.6049,
      "duration": 0.0134,
      "velocity": 100,
      "chip": "ym2612"
    },
    {
      "channel": 3,
      "note": 68,
      "start": 3.6185,
      "duration": 0.0137,
      "velocity": 100,
      "chip": "ym2612"
    },
    {
      "channel": 0,
      "note": 80,
      "start": 3.6319,
      "duration": 0.0127,
      "velocity": 127,
      "chip": "ym2612"
    },
    {
      "channel": 2,
      "note": 77,
      "start": 3.6321,
      "duration": 0.0126,
      "velocity": 127,
      "chip": "ym2612"
    },
    {
      "channel": 3,
      "note": 68,
      "start": 3.6324,
      "duration": 0.0124,
      "velocity": 100,
      "chip": "ym2612"
    },
    {
      "channel": 3,
      "note": 68,
      "start": 3.6451,
      "duration": 0.0136,
      "velocity": 100,
      "chip": "ym2612"
    },
    {
      "channel": 2,
      "note": 73,
      "start": 3.6586,
      "duration": 0.0263,
      "velocity": 127,
      "chip": "ym2612"
    },
    {
      "channel": 3,
      "note": 68,
      "start": 3.6589,
      "duration": 0.0124,
      "velocity": 100,
      "chip": "ym2612"
    },
    {
      "channel": 3,
      "note": 68,
      "start": 3.6715,
      "duration": 0.0137,
      "velocity": 100,
      "chip": "ym2612"
    },
    {
      "channel": 0,
      "note": 80,
      "start": 3.6849,
      "duration": 0.0138,
      "velocity": 127,
      "chip": "ym2612"
    },
    {
      "channel": 2,
      "note": 77,
      "start": 3.6851,
      "duration": 0.0137,
      "velocity": 127,
      "chip": "ym2612"
    },
    {
      "channel": 3,
      "note": 68,
      "start": 3.6854,
      "duration": 0.0135,
      "velocity": 100,
      "chip": "ym2612"
    },
    {
      "channel": 3,
      "note": 68,
      "start": 3.6992,
      "duration": 0.0128,
      "velocity": 100,
      "chip": "ym2612"
    },
    {
      "channel": 0,
      "note": 82,
      "start": 3.7117,
      "duration": 0.0263,
      "velocity": 127,
      "chip": "ym2612"
    },
    {
      "channel": 2,
      "note": 77,
      "start": 3.7119,
      "duration": 0.0263,
      "velocity": 127,
      "chip": "ym2612"
    },
    {
      "channel": 3,
      "note": 68,
      "start": 3.7122,
      "duration": 0.0133,
      "velocity": 100,
      "chip": "ym2612"
    },
    {
      "channel": 3,
      "note": 68,
      "start": 3.7258,
      "duration": 0.0127,
      "velocity": 100,
      "chip": "ym2612"
    },
    {
      "channel": 0,
      "note": 80,
      "start": 3.7381,
      "duration": 0.0139,
      "velocity": 127,
      "chip": "ym2612"
    },
    {
      "channel": 2,
      "note": 77,
      "start": 3.7384,
      "duration": 0.0138,
      "velocity": 127,
      "chip": "ym2612"
    },
    {
      "channel": 3,
      "note": 68,
      "start": 3.7387,
      "duration": 0.0136,
      "velocity": 100,
      "chip": "ym2612"
    },
    {
      "channel": 3,
      "note": 68,
      "start": 3.7525,
      "duration": 0.0138,
      "velocity": 100,
      "chip": "ym2612"
    },
    {
      "channel": 2,
      "note": 68,
      "start": 3.7663,
      "duration": 0.0267,
      "velocity": 127,
      "chip": "ym2612"
    },
    {
      "channel": 3,
      "note": 68,
      "start": 3.7666,
      "duration": 0.0125,
      "velocity": 100,
      "chip": "ym2612"
    },
    {
      "channel": 3,
      "note": 68,
      "start": 3.7793,
      "duration": 0.0139,
      "velocity": 100,
      "chip": "ym2612"
    },
    {
      "channel": 0,
      "note": 75,
      "start": 3.7929,
      "duration": 0.0128,
      "velocity": 127,
      "chip": "ym2612"
    },
    {
      "channel": 2,
      "note": 72,
      "start": 3.7931,
      "duration": 0.0127,
      "velocity": 127,
      "chip": "ym2612"
    },
    {
      "channel": 3,
      "note": 68,
      "start": 3.7934,
      "duration": 0.0125,
      "velocity": 100,
      "chip": "ym2612"
    },
    {
      "channel": 3,
      "note": 68,
      "start": 3.8061,
      "duration": 0.0139,
      "velocity": 100,
      "chip": "ym2612"
    },
    {
      "channel": 0,
      "note": 77,
      "start": 3.8197,
      "duration": 0.0264,
      "velocity": 127,
      "chip": "ym2612"
    },
    {
      "channel": 2,
      "note": 72,
      "start": 3.8199,
      "duration": 0.0264,
      "velocity": 127,
      "chip": "ym2612"
    },
    {
      "channel": 3,
      "note": 68,
      "start": 3.8202,
      "duration": 0.0134,
      "velocity": 100,
      "chip": "ym2612"
    },
    {
      "channel": 3,
      "note": 68,
      "start": 3.8338,
      "duration": 0.0128,
      "velocity": 100,
      "chip": "ym2612"
    },
    {
      "channel": 0,
      "note": 75,
      "start": 3.8463,
      "duration": 0.0138,
      "velocity": 127,
      "chip": "ym2612"
    },
    {
      "channel": 2,
      "note": 72,
      "start": 3.8466,
      "duration": 0.0137,
      "velocity": 127,
      "chip": "ym2612"
    },
    {
      "channel": 3,
      "note": 68,
      "start": 3.8468,
      "duration": 0.0135,
      "velocity": 100,
      "chip": "ym2612"
    },
    {
      "channel": 3,
      "note": 68,
      "start": 3.8605,
      "duration": 0.0126,
      "velocity": 100,
      "chip": "ym2612"
    },
    {
      "channel": 2,
      "note": 68,
      "start": 3.8731,
      "duration": 0.0274,
      "velocity": 127,
      "chip": "ym2612"
    },
    {
      "channel": 3,
      "note": 68,
      "start": 3.8733,
      "duration": 0.0133,
      "velocity": 100,
      "chip": "ym2612"
    },
    {
      "channel": 3,
      "note": 68,
      "start": 3.8869,
      "duration": 0.0138,
      "velocity": 100,
      "chip": "ym2612"
    },
    {
      "channel": 0,
      "note": 75,
      "start": 3.9004,
      "duration": 0.0128,
      "velocity": 127,
      "chip": "ym2612"
    },
    {
      "channel": 2,
      "note": 72,
      "start": 3.9007,
      "duration": 0.0127,
      "velocity": 127,
      "chip": "ym2612"
    },
    {
      "channel": 3,
      "note": 68,
      "start": 3.9009,
      "duration": 0.0125,
      "velocity": 100,
      "chip": "ym2612"
    },
    {
      "channel": 3,
      "note": 68,
      "start": 3.9136,
      "duration": 0.0139,
      "velocity": 100,
      "chip": "ym2612"
    },
    {
      "channel": 0,
      "note": 77,
      "start": 3.9272,
      "duration": 0.0264,
      "velocity": 127,
      "chip": "ym2612"
    },
    {
      "channel": 2,
      "note": 72,
      "start": 3.9274,
      "duration": 0.0265,
      "velocity": 127,
      "chip": "ym2612"
    },
    {
      "channel": 3,
      "note": 68,
      "start": 3.9277,
      "duration": 0.0124,
      "velocity": 100,
      "chip": "ym2612"
    },
    {
      "channel": 3,
      "note": 68,
      "start": 3.9404,
      "duration": 0.0138,
      "velocity": 100,
      "chip": "ym2612"
    },
    {
      "channel": 0,
      "note": 75,
      "start": 3.9538,
      "duration": 0.0138,
      "velocity": 127,
      "chip": "ym2612"
    },
    {
      "channel": 2,
      "note": 72,
      "start": 3.9541,
      "duration": 0.0137,
      "velocity": 127,
      "chip": "ym2612"
    },
    {
      "channel": 3,
      "note": 68,
      "start": 3.9543,
      "duration": 0.0136,
      "velocity": 100,
      "chip": "ym2612"
    },
    {
      "channel": 3,
      "note": 68,
      "start": 3.968,
      "duration": 42.1125,
      "velocity": 100,
      "chip": "ym2612"
    }
  ]
}