{
  "track_name": "07 - Volcano",
  "duration_sec": 67.263,
  "sample_rate": 44100,
  "note_count": 1025,
  "unique_pitches": 32,
  "pitch_range": 86,
  "avg_note_duration": 0.3292,
  "reconstruction_stats": {
    "notes_reconstructed": 1025,
    "keyon_events": 1025,
    "keyoff_events": 1022,
    "orphan_keyons": 3,
    "unique_pitches": 32,
    "pitch_range": 86,
    "avg_duration_sec": 0.3292
  },
  "metadata": {
    "source": "D\\Devilish\\07 - Volcano.vgz"
  },
  "notes": [
    {
      "channel": 0,
      "note": 31,
      "start": 0.0,
      "duration": 2.5382,
      "velocity": 98,
      "chip": "ym2612"
    },
    {
      "channel": 1,
      "note": 64,
      "start": 0.0,
      "duration": 0.1444,
      "velocity": 123,
      "chip": "ym2612"
    },
    {
      "channel": 2,
      "note": 24,
      "start": 0.0034,
      "duration": 2.5357,
      "velocity": 98,
      "chip": "ym2612"
    },
    {
      "channel": 3,
      "note": 24,
      "start": 0.0087,
      "duration": 5.069,
      "velocity": 107,
      "chip": "ym2612"
    },
    {
      "channel": 4,
      "note": 107,
      "start": 0.0113,
      "duration": 0.2694,
      "velocity": 93,
      "chip": "ym2612"
    },
    {
      "channel": 1,
      "note": 68,
      "start": 0.1446,
      "duration": 0.1622,
      "velocity": 127,
      "chip": "ym2612"
    },
    {
      "channel": 5,
      "note": 31,
      "start": 0.2291,
      "duration": 2.5565,
      "velocity": 98,
      "chip": "ym2612"
    },
    {
      "channel": 1,
      "note": 64,
      "start": 0.307,
      "duration": 0.1579,
      "velocity": 127,
      "chip": "ym2612"
    },
    {
      "channel": 4,
      "note": 107,
      "start": 0.3097,
      "duration": 0.0494,
      "velocity": 93,
      "chip": "ym2612"
    },
    {
      "channel": 1,
      "note": 64,
      "start": 0.4651,
      "duration": 0.1642,
      "velocity": 127,
      "chip": "ym2612"
    },
    {
      "channel": 4,
      "note": 107,
      "start": 0.4685,
      "duration": 0.0531,
      "velocity": 93,
      "chip": "ym2612"
    },
    {
      "channel": 1,
      "note": 59,
      "start": 0.6296,
      "duration": 0.1603,
      "velocity": 127,
      "chip": "ym2612"
    },
    {
      "channel": 4,
      "note": 107,
      "start": 0.6328,
      "duration": 0.292,
      "velocity": 93,
      "chip": "ym2612"
    },
    {
      "channel": 1,
      "note": 59,
      "start": 0.7901,
      "duration": 0.1609,
      "velocity": 123,
      "chip": "ym2612"
    },
    {
      "channel": 1,
      "note": 57,
      "start": 0.9518,
      "duration": 0.1616,
      "velocity": 127,
      "chip": "ym2612"
    },
    {
      "channel": 4,
      "note": 107,
      "start": 0.9545,
      "duration": 0.0515,
      "velocity": 93,
      "chip": "ym2612"
    },
    {
      "channel": 1,
      "note": 64,
      "start": 1.1136,
      "duration": 0.1628,
      "velocity": 123,
      "chip": "ym2612"
    },
    {
      "channel": 4,
      "note": 107,
      "start": 1.1163,
      "duration": 0.296,
      "velocity": 93,
      "chip": "ym2612"
    },
    {
      "channel": 1,
      "note": 68,
      "start": 1.2767,
      "duration": 0.1617,
      "velocity": 127,
      "chip": "ym2612"
    },
    {
      "channel": 1,
      "note": 64,
      "start": 1.4386,
      "duration": 0.0767,
      "velocity": 127,
      "chip": "ym2612"
    },
    {
      "channel": 4,
      "note": 107,
      "start": 1.4412,
      "duration": 0.1307,
      "velocity": 93,
      "chip": "ym2612"
    },
    {
      "channel": 1,
      "note": 64,
      "start": 1.5155,
      "duration": 0.0824,
      "velocity": 123,
      "chip": "ym2612"
    },
    {
      "channel": 1,
      "note": 57,
      "start": 1.5982,
      "duration": 0.1622,
      "velocity": 127,
      "chip": "ym2612"
    },
    {
      "channel": 4,
      "note": 107,
      "start": 1.6009,
      "duration": 0.0529,
      "velocity": 93,
      "chip": "ym2612"
    },
    {
      "channel": 1,
      "note": 64,
      "start": 1.7607,
      "duration": 0.1628,
      "velocity": 127,
      "chip": "ym2612"
    },
    {
      "channel": 4,
      "note": 107,
      "start": 1.7633,
      "duration": 0.0523,
      "velocity": 93,
      "chip": "ym2612"
    },
    {
      "channel": 1,
      "note": 59,
      "start": 1.9237,
      "duration": 0.1602,
      "velocity": 127,
      "chip": "ym2612"
    },
    {
      "channel": 4,
      "note": 107,
      "start": 1.927,
      "duration": 0.2926,
      "velocity": 93,
      "chip": "ym2612"
    },
    {
      "channel": 1,
      "note": 59,
      "start": 2.0842,
      "duration": 0.1608,
      "velocity": 123,
      "chip": "ym2612"
    },
    {
      "channel": 1,
      "note": 57,
      "start": 2.2453,
      "duration": 0.1621,
      "velocity": 127,
      "chip": "ym2612"
    },
    {
      "channel": 4,
      "note": 107,
      "start": 2.248,
      "duration": 0.0522,
      "velocity": 93,
      "chip": "ym2612"
    },
    {
      "channel": 1,
      "note": 64,
      "start": 2.4076,
      "duration": 0.1599,
      "velocity": 127,
      "chip": "ym2612"
    },
    {
      "channel": 4,
      "note": 107,
      "start": 2.4103,
      "duration": 0.0495,
      "velocity": 93,
      "chip": "ym2612"
    },
    {
      "channel": 0,
      "note": 30,
      "start": 2.5656,
      "duration": 2.5637,
      "velocity": 98,
      "chip": "ym2612"
    },
    {
      "channel": 1,
      "note": 64,
      "start": 2.5685,
      "duration": 0.1611,
      "velocity": 123,
      "chip": "ym2612"
    },
    {
      "channel": 2,
      "note": 25,
      "start": 2.5693,
      "duration": 2.561,
      "velocity": 98,
      "chip": "ym2612"
    },
    {
      "channel": 4,
      "note": 107,
      "start": 2.5716,
      "duration": 0.2942,
      "velocity": 93,
      "chip": "ym2612"
    },
    {
      "channel": 1,
      "note": 68,
      "start": 2.7298,
      "duration": 0.1622,
      "velocity": 127,
      "chip": "ym2612"
    },
    {
      "channel": 5,
      "note": 30,
      "start": 2.8123,
      "duration": 2.561,
      "velocity": 98,
      "chip": "ym2612"
    },
    {
      "channel": 1,
      "note": 64,
      "start": 2.8922,
      "duration": 0.158,
      "velocity": 127,
      "chip": "ym2612"
    },
    {
      "channel": 4,
      "note": 107,
      "start": 2.8949,
      "duration": 0.0494,
      "velocity": 93,
      "chip": "ym2612"
    },
    {
      "channel": 1,
      "note": 64,
      "start": 3.0504,
      "duration": 0.1642,
      "velocity": 127,
      "chip": "ym2612"
    },
    {
      "channel": 4,
      "note": 107,
      "start": 3.0536,
      "duration": 0.0531,
      "velocity": 93,
      "chip": "ym2612"
    },
    {
      "channel": 1,
      "note": 59,
      "start": 3.2148,
      "duration": 0.1602,
      "velocity": 127,
      "chip": "ym2612"
    },
    {
      "channel": 4,
      "note": 107,
      "start": 3.2186,
      "duration": 0.2914,
      "velocity": 93,
      "chip": "ym2612"
    },
    {
      "channel": 1,
      "note": 59,
      "start": 3.3753,
      "duration": 0.1615,
      "velocity": 123,
      "chip": "ym2612"
    },
    {
      "channel": 1,
      "note": 57,
      "start": 3.537,
      "duration": 0.1616,
      "velocity": 127,
      "chip": "ym2612"
    },
    {
      "channel": 4,
      "note": 107,
      "start": 3.5398,
      "duration": 0.0515,
      "velocity": 93,
      "chip": "ym2612"
    },
    {
      "channel": 1,
      "note": 64,
      "start": 3.6989,
      "duration": 0.1629,
      "velocity": 123,
      "chip": "ym2612"
    },
    {
      "channel": 4,
      "note": 107,
      "start": 3.7022,
      "duration": 0.2954,
      "velocity": 93,
      "chip": "ym2612"
    },
    {
      "channel": 1,
      "note": 68,
      "start": 3.862,
      "duration": 0.1616,
      "velocity": 127,
      "chip": "ym2612"
    },
    {
      "channel": 1,
      "note": 64,
      "start": 4.0239,
      "duration": 0.0796,
      "velocity": 127,
      "chip": "ym2612"
    },
    {
      "channel": 4,
      "note": 107,
      "start": 4.0265,
      "duration": 0.1335,
      "velocity": 93,
      "chip": "ym2612"
    },
    {
      "channel": 1,
      "note": 64,
      "start": 4.1036,
      "duration": 0.0832,
      "velocity": 123,
      "chip": "ym2612"
    },
    {
      "channel": 1,
      "note": 57,
      "start": 4.187,
      "duration": 0.1616,
      "velocity": 127,
      "chip": "ym2612"
    },
    {
      "channel": 4,
      "note": 107,
      "start": 4.1897,
      "duration": 0.0516,
      "velocity": 93,
      "chip": "ym2612"
    },
    {
      "channel": 1,
      "note": 64,
      "start": 4.3488,
      "duration": 0.1629,
      "velocity": 127,
      "chip": "ym2612"
    },
    {
      "channel": 4,
      "note": 107,
      "start": 4.3521,
      "duration": 0.0524,
      "velocity": 93,
      "chip": "ym2612"
    },
    {
      "channel": 1,
      "note": 59,
      "start": 4.512,
      "duration": 0.1602,
      "velocity": 127,
      "chip": "ym2612"
    },
    {
      "channel": 4,
      "note": 107,
      "start": 4.5152,
      "duration": 0.2919,
      "velocity": 93,
      "chip": "ym2612"
    },
    {
      "channel": 1,
      "note": 59,
      "start": 4.6725,
      "duration": 0.1608,
      "velocity": 123,
      "chip": "ym2612"
    },
    {
      "channel": 1,
      "note": 57,
      "start": 4.8335,
      "duration": 0.1623,
      "velocity": 127,
      "chip": "ym2612"
    },
    {
      "channel": 4,
      "note": 107,
      "start": 4.8368,
      "duration": 0.0516,
      "velocity": 93,
      "chip": "ym2612"
    },
    {
      "channel": 1,
      "note": 64,
      "start": 4.9959,
      "duration": 0.1628,
      "velocity": 127,
      "chip": "ym2612"
    },
    {
      "channel": 4,
      "note": 107,
      "start": 4.9986,
      "duration": 0.0523,
      "velocity": 93,
      "chip": "ym2612"
    },
    {
      "channel": 0,
      "note": 31,
      "start": 5.1568,
      "duration": 2.5578,
      "velocity": 98,
      "chip": "ym2612"
    },
    {
      "channel": 1,
      "note": 64,
      "start": 5.1589,
      "duration": 0.1618,
      "velocity": 123,
      "chip": "ym2612"
    },
    {
      "channel": 2,
      "note": 24,
      "start": 5.1598,
      "duration": 2.5556,
      "velocity": 98,
      "chip": "ym2612"
    },
    {
      "channel": 3,
      "note": 24,
      "start": 5.1618,
      "duration": 5.0863,
      "velocity": 107,
      "chip": "ym2612"
    },
    {
      "channel": 4,
      "note": 107,
      "start": 5.1625,
      "duration": 0.2922,
      "velocity": 93,
      "chip": "ym2612"
    },
    {
      "channel": 1,
      "note": 68,
      "start": 5.3209,
      "duration": 0.1594,
      "velocity": 127,
      "chip": "ym2612"
    },
    {
      "channel": 5,
      "note": 31,
      "start": 5.4007,
      "duration": 2.5578,
      "velocity": 98,
      "chip": "ym2612"
    },
    {
      "channel": 1,
      "note": 64,
      "start": 5.4805,
      "duration": 0.1608,
      "velocity": 127,
      "chip": "ym2612"
    },
    {
      "channel": 4,
      "note": 107,
      "start": 5.4832,
      "duration": 0.0529,
      "velocity": 93,
      "chip": "ym2612"
    },
    {
      "channel": 1,
      "note": 64,
      "start": 5.6415,
      "duration": 0.1622,
      "velocity": 127,
      "chip": "ym2612"
    },
    {
      "channel": 4,
      "note": 107,
      "start": 5.6441,
      "duration": 0.0509,
      "velocity": 93,
      "chip": "ym2612"
    },
    {
      "channel": 1,
      "note": 59,
      "start": 5.8038,
      "duration": 0.1595,
      "velocity": 127,
      "chip": "ym2612"
    },
    {
      "channel": 4,
      "note": 107,
      "start": 5.8071,
      "duration": 0.2947,
      "velocity": 93,
      "chip": "ym2612"
    },
    {
      "channel": 1,
      "note": 59,
      "start": 5.9636,
      "duration": 0.1637,
      "velocity": 123,
      "chip": "ym2612"
    },
    {
      "channel": 1,
      "note": 57,
      "start": 6.1276,
      "duration": 0.1597,
      "velocity": 127,
      "chip": "ym2612"
    },
    {
      "channel": 4,
      "note": 107,
      "start": 6.1302,
      "duration": 0.0492,
      "velocity": 93,
      "chip": "ym2612"
    },
    {
      "channel": 1,
      "note": 64,
      "start": 6.2874,
      "duration": 0.1624,
      "velocity": 123,
      "chip": "ym2612"
    },
    {
      "channel": 4,
      "note": 107,
      "start": 6.2901,
      "duration": 0.2962,
      "velocity": 93,
      "chip": "ym2612"
    },
    {
      "channel": 1,
      "note": 68,
      "start": 6.4501,
      "duration": 0.1617,
      "velocity": 127,
      "chip": "ym2612"
    },
    {
      "channel": 1,
      "note": 64,
      "start": 6.612,
      "duration": 0.0767,
      "velocity": 127,
      "chip": "ym2612"
    },
    {
      "channel": 4,
      "note": 107,
      "start": 6.6146,
      "duration": 0.1307,
      "velocity": 93,
      "chip": "ym2612"
    },
    {
      "channel": 1,
      "note": 64,
      "start": 6.6889,
      "duration": 0.0824,
      "velocity": 123,
      "chip": "ym2612"
    },
    {
      "channel": 1,
      "note": 57,
      "start": 6.7716,
      "duration": 0.1622,
      "velocity": 127,
      "chip": "ym2612"
    },
    {
      "channel": 4,
      "note": 107,
      "start": 6.7743,
      "duration": 0.0522,
      "velocity": 93,
      "chip": "ym2612"
    },
    {
      "channel": 1,
      "note": 64,
      "start": 6.934,
      "duration": 0.163,
      "velocity": 127,
      "chip": "ym2612"
    },
    {
      "channel": 4,
      "note": 107,
      "start": 6.9373,
      "duration": 0.0517,
      "velocity": 93,
      "chip": "ym2612"
    },
    {
      "channel": 1,
      "note": 59,
      "start": 7.0971,
      "duration": 0.1603,
      "velocity": 127,
      "chip": "ym2612"
    },
    {
      "channel": 4,
      "note": 107,
      "start": 7.1006,
      "duration": 0.2917,
      "velocity": 93,
      "chip": "ym2612"
    },
    {
      "channel": 1,
      "note": 59,
      "start": 7.2576,
      "duration": 0.1615,
      "velocity": 123,
      "chip": "ym2612"
    },
    {
      "channel": 1,
      "note": 57,
      "start": 7.4193,
      "duration": 0.1616,
      "velocity": 127,
      "chip": "ym2612"
    },
    {
      "channel": 4,
      "note": 107,
      "start": 7.4221,
      "duration": 0.0515,
      "velocity": 93,
      "chip": "ym2612"
    },
    {
      "channel": 1,
      "note": 64,
      "start": 7.5812,
      "duration": 0.1627,
      "velocity": 127,
      "chip": "ym2612"
    },
    {
      "channel": 4,
      "note": 107,
      "start": 7.5838,
      "duration": 0.0529,
      "velocity": 93,
      "chip": "ym2612"
    },
    {
      "channel": 0,
      "note": 30,
      "start": 7.7419,
      "duration": 2.558,
      "velocity": 98,
      "chip": "ym2612"
    },
    {
      "channel": 1,
      "note": 64,
      "start": 7.744,
      "duration": 0.1619,
      "velocity": 123,
      "chip": "ym2612"
    },
    {
      "channel": 2,
      "note": 25,
      "start": 7.7449,
      "duration": 2.5559,
      "velocity": 98,
      "chip": "ym2612"
    },
    {
      "channel": 4,
      "note": 107,
      "start": 7.7472,
      "duration": 0.2922,
      "velocity": 93,
      "chip": "ym2612"
    },
    {
      "channel": 1,
      "note": 68,
      "start": 7.9061,
      "duration": 0.1593,
      "velocity": 127,
      "chip": "ym2612"
    },
    {
      "channel": 5,
      "note": 30,
      "start": 7.9865,
      "duration": 2.5601,
      "velocity": 98,
      "chip": "ym2612"
    },
    {
      "channel": 1,
      "note": 64,
      "start": 8.0656,
      "duration": 0.1609,
      "velocity": 127,
      "chip": "ym2612"
    },
    {
      "channel": 4,
      "note": 107,
      "start": 8.069,
      "duration": 0.0523,
      "velocity": 93,
      "chip": "ym2612"
    },
    {
      "channel": 1,
      "note": 64,
      "start": 8.2268,
      "duration": 0.1642,
      "velocity": 127,
      "chip": "ym2612"
    },
    {
      "channel": 4,
      "note": 107,
      "start": 8.2294,
      "duration": 0.0537,
      "velocity": 93,
      "chip": "ym2612"
    },
    {
      "channel": 1,
      "note": 59,
      "start": 8.3912,
      "duration": 0.161,
      "velocity": 127,
      "chip": "ym2612"
    },
    {
      "channel": 4,
      "note": 107,
      "start": 8.3945,
      "duration": 0.2926,
      "velocity": 93,
      "chip": "ym2612"
    },
    {
      "channel": 1,
      "note": 59,
      "start": 8.5524,
      "duration": 0.1601,
      "velocity": 123,
      "chip": "ym2612"
    },
    {
      "channel": 1,
      "note": 57,
      "start": 8.7128,
      "duration": 0.1622,
      "velocity": 127,
      "chip": "ym2612"
    },
    {
      "channel": 4,
      "note": 107,
      "start": 8.7155,
      "duration": 0.0522,
      "velocity": 93,
      "chip": "ym2612"
    },
    {
      "channel": 1,
      "note": 64,
      "start": 8.8752,
      "duration": 0.1606,
      "velocity": 123,
      "chip": "ym2612"
    },
    {
      "channel": 4,
      "note": 107,
      "start": 8.8779,
      "duration": 0.2938,
      "velocity": 93,
      "chip": "ym2612"
    },
    {
      "channel": 1,
      "note": 68,
      "start": 9.0361,
      "duration": 0.161,
      "velocity": 127,
      "chip": "ym2612"
    },
    {
      "channel": 1,
      "note": 64,
      "start": 9.1973,
      "duration": 0.0796,
      "velocity": 127,
      "chip": "ym2612"
    },
    {
      "channel": 4,
      "note": 107,
      "start": 9.1999,
      "duration": 0.1334,
      "velocity": 93,
      "chip": "ym2612"
    },
    {
      "channel": 1,
      "note": 64,
      "start": 9.277,
      "duration": 0.0825,
      "velocity": 123,
      "chip": "ym2612"
    },
    {
      "channel": 1,
      "note": 57,
      "start": 9.3598,
      "duration": 0.1599,
      "velocity": 127,
      "chip": "ym2612"
    },
    {
      "channel": 4,
      "note": 107,
      "start": 9.3625,
      "duration": 0.0493,
      "velocity": 93,
      "chip": "ym2612"
    },
    {
      "channel": 1,
      "note": 64,
      "start": 9.52,
      "duration": 0.1623,
      "velocity": 127,
      "chip": "ym2612"
    },
    {
      "channel": 4,
      "note": 107,
      "start": 9.5226,
      "duration": 0.0518,
      "velocity": 93,
      "chip": "ym2612"
    },
    {
      "channel": 1,
      "note": 59,
      "start": 9.6825,
      "duration": 0.1602,
      "velocity": 127,
      "chip": "ym2612"
    },
    {
      "channel": 4,
      "note": 107,
      "start": 9.6865,
      "duration": 0.294,
      "velocity": 93,
      "chip": "ym2612"
    },
    {
      "channel": 1,
      "note": 59,
      "start": 9.8429,
      "duration": 0.1637,
      "velocity": 123,
      "chip": "ym2612"
    },
    {
      "channel": 1,
      "note": 57,
      "start": 10.0068,
      "duration": 0.1594,
      "velocity": 127,
      "chip": "ym2612"
    },
    {
      "channel": 4,
      "note": 107,
      "start": 10.0095,
      "duration": 0.0492,
      "velocity": 93,
      "chip": "ym2612"
    },
    {
      "channel": 1,
      "note": 64,
      "start": 10.1663,
      "duration": 0.1629,
      "velocity": 127,
      "chip": "ym2612"
    },
    {
      "channel": 4,
      "note": 107,
      "start": 10.1697,
      "duration": 0.052,
      "velocity": 93,
      "chip": "ym2612"
    },
    {
      "channel": 0,
      "note": 31,
      "start": 10.3273,
      "duration": 2.5607,
      "velocity": 98,
      "chip": "ym2612"
    },
    {
      "channel": 1,
      "note": 64,
      "start": 10.3295,
      "duration": 0.1618,
      "velocity": 123,
      "chip": "ym2612"
    },
    {
      "channel": 2,
      "note": 24,
      "start": 10.3303,
      "duration": 2.5585,
      "velocity": 98,
      "chip": "ym2612"
    },
    {
      "channel": 3,
      "note": 24,
      "start": 10.3323,
      "duration": 5.0891,
      "velocity": 107,
      "chip": "ym2612"
    },
    {
      "channel": 4,
      "note": 107,
      "start": 10.3331,
      "duration": 0.2944,
      "velocity": 93,
      "chip": "ym2612"
    },
    {
      "channel": 1,
      "note": 68,
      "start": 10.4914,
      "duration": 0.1624,
      "velocity": 127,
      "chip": "ym2612"
    },
    {
      "channel": 5,
      "note": 31,
      "start": 10.5741,
      "duration": 2.5578,
      "velocity": 98,
      "chip": "ym2612"
    },
    {
      "channel": 1,
      "note": 64,
      "start": 10.6541,
      "duration": 0.1577,
      "velocity": 127,
      "chip": "ym2612"
    },
    {
      "channel": 4,
      "note": 107,
      "start": 10.6568,
      "duration": 0.0491,
      "velocity": 93,
      "chip": "ym2612"
    },
    {
      "channel": 1,
      "note": 64,
      "start": 10.812,
      "duration": 0.1642,
      "velocity": 127,
      "chip": "ym2612"
    },
    {
      "channel": 4,
      "note": 107,
      "start": 10.8146,
      "duration": 0.0543,
      "velocity": 93,
      "chip": "ym2612"
    },
    {
      "channel": 1,
      "note": 59,
      "start": 10.9764,
      "duration": 0.1603,
      "velocity": 127,
      "chip": "ym2612"
    },
    {
      "channel": 4,
      "note": 107,
      "start": 10.9797,
      "duration": 0.292,
      "velocity": 93,
      "chip": "ym2612"
    },
    {
      "channel": 1,
      "note": 59,
      "start": 11.1369,
      "duration": 0.1609,
      "velocity": 123,
      "chip": "ym2612"
    },
    {
      "channel": 1,
      "note": 57,
      "start": 11.298,
      "duration": 0.1623,
      "velocity": 127,
      "chip": "ym2612"
    },
    {
      "channel": 4,
      "note": 107,
      "start": 11.3006,
      "duration": 0.0529,
      "velocity": 93,
      "chip": "ym2612"
    },
    {
      "channel": 1,
      "note": 64,
      "start": 11.4604,
      "duration": 0.1628,
      "velocity": 123,
      "chip": "ym2612"
    },
    {
      "channel": 4,
      "note": 107,
      "start": 11.4631,
      "duration": 0.296,
      "velocity": 93,
      "chip": "ym2612"
    },
    {
      "channel": 1,
      "note": 68,
      "start": 11.6235,
      "duration": 0.1624,
      "velocity": 127,
      "chip": "ym2612"
    },
    {
      "channel": 1,
      "note": 64,
      "start": 11.7861,
      "duration": 0.079,
      "velocity": 127,
      "chip": "ym2612"
    },
    {
      "channel": 4,
      "note": 107,
      "start": 11.7887,
      "duration": 0.1329,
      "velocity": 93,
      "chip": "ym2612"
    },
    {
      "channel": 1,
      "note": 64,
      "start": 11.8653,
      "duration": 0.0824,
      "velocity": 123,
      "chip": "ym2612"
    },
    {
      "channel": 1,
      "note": 57,
      "start": 11.948,
      "duration": 0.1622,
      "velocity": 127,
      "chip": "ym2612"
    },
    {
      "channel": 4,
      "note": 107,
      "start": 11.9506,
      "duration": 0.0529,
      "velocity": 93,
      "chip": "ym2612"
    },
    {
      "channel": 1,
      "note": 64,
      "start": 12.1104,
      "duration": 0.1607,
      "velocity": 127,
      "chip": "ym2612"
    },
    {
      "channel": 4,
      "note": 107,
      "start": 12.113,
      "duration": 0.0495,
      "velocity": 93,
      "chip": "ym2612"
    },
    {
      "channel": 1,
      "note": 59,
      "start": 12.2713,
      "duration": 0.1596,
      "velocity": 127,
      "chip": "ym2612"
    },
    {
      "channel": 4,
      "note": 107,
      "start": 12.2746,
      "duration": 0.2947,
      "velocity": 93,
      "chip": "ym2612"
    },
    {
      "channel": 1,
      "note": 59,
      "start": 12.4311,
      "duration": 0.1637,
      "velocity": 123,
      "chip": "ym2612"
    },
    {
      "channel": 1,
      "note": 57,
      "start": 12.595,
      "duration": 0.1593,
      "velocity": 127,
      "chip": "ym2612"
    },
    {
      "channel": 4,
      "note": 107,
      "start": 12.5977,
      "duration": 0.0493,
      "velocity": 93,
      "chip": "ym2612"
    },
    {
      "channel": 1,
      "note": 64,
      "start": 12.7546,
      "duration": 0.1627,
      "velocity": 127,
      "chip": "ym2612"
    },
    {
      "channel": 4,
      "note": 107,
      "start": 12.7572,
      "duration": 0.0523,
      "velocity": 93,
      "chip": "ym2612"
    },
    {
      "channel": 0,
      "note": 30,
      "start": 12.9153,
      "duration": 2.5579,
      "velocity": 98,
      "chip": "ym2612"
    },
    {
      "channel": 1,
      "note": 64,
      "start": 12.9175,
      "duration": 0.1618,
      "velocity": 123,
      "chip": "ym2612"
    },
    {
      "channel": 2,
      "note": 25,
      "start": 12.919,
      "duration": 2.5551,
      "velocity": 98,
      "chip": "ym2612"
    },
    {
      "channel": 4,
      "note": 107,
      "start": 12.9213,
      "duration": 0.2915,
      "velocity": 93,
      "chip": "ym2612"
    },
    {
      "channel": 1,
      "note": 68,
      "start": 13.0795,
      "duration": 0.1593,
      "velocity": 127,
      "chip": "ym2612"
    },
    {
      "channel": 5,
      "note": 30,
      "start": 13.1592,
      "duration": 2.5615,
      "velocity": 98,
      "chip": "ym2612"
    },
    {
      "channel": 1,
      "note": 64,
      "start": 13.2391,
      "duration": 0.1607,
      "velocity": 127,
      "chip": "ym2612"
    },
    {
      "channel": 4,
      "note": 107,
      "start": 13.2418,
      "duration": 0.0522,
      "velocity": 93,
      "chip": "ym2612"
    },
    {
      "channel": 1,
      "note": 64,
      "start": 13.4001,
      "duration": 0.1614,
      "velocity": 127,
      "chip": "ym2612"
    },
    {
      "channel": 4,
      "note": 107,
      "start": 13.4034,
      "duration": 0.0509,
      "velocity": 93,
      "chip": "ym2612"
    },
    {
      "channel": 1,
      "note": 59,
      "start": 13.5618,
      "duration": 0.1602,
      "velocity": 127,
      "chip": "ym2612"
    },
    {
      "channel": 4,
      "note": 107,
      "start": 13.565,
      "duration": 0.2947,
      "velocity": 93,
      "chip": "ym2612"
    },
    {
      "channel": 1,
      "note": 59,
      "start": 13.7222,
      "duration": 0.1644,
      "velocity": 123,
      "chip": "ym2612"
    },
    {
      "channel": 1,
      "note": 57,
      "start": 13.8868,
      "duration": 0.1616,
      "velocity": 127,
      "chip": "ym2612"
    },
    {
      "channel": 4,
      "note": 107,
      "start": 13.8895,
      "duration": 0.0516,
      "velocity": 93,
      "chip": "ym2612"
    },
    {
      "channel": 1,
      "note": 64,
      "start": 14.0486,
      "duration": 0.1628,
      "velocity": 123,
      "chip": "ym2612"
    },
    {
      "channel": 4,
      "note": 107,
      "start": 14.0519,
      "duration": 0.2954,
      "velocity": 93,
      "chip": "ym2612"
    },
    {
      "channel": 1,
      "note": 68,
      "start": 14.2117,
      "duration": 0.1618,
      "velocity": 127,
      "chip": "ym2612"
    },
    {
      "channel": 1,
      "note": 64,
      "start": 14.3736,
      "duration": 0.0767,
      "velocity": 127,
      "chip": "ym2612"
    },
    {
      "channel": 4,
      "note": 107,
      "start": 14.3763,
      "duration": 0.1306,
      "velocity": 93,
      "chip": "ym2612"
    },
    {
      "channel": 1,
      "note": 64,
      "start": 14.4505,
      "duration": 0.0825,
      "velocity": 123,
      "chip": "ym2612"
    },
    {
      "channel": 1,
      "note": 57,
      "start": 14.5333,
      "duration": 0.1622,
      "velocity": 127,
      "chip": "ym2612"
    },
    {
      "channel": 4,
      "note": 107,
      "start": 14.5366,
      "duration": 0.0517,
      "velocity": 93,
      "chip": "ym2612"
    },
    {
      "channel": 1,
      "note": 64,
      "start": 14.6957,
      "duration": 0.1629,
      "velocity": 127,
      "chip": "ym2612"
    },
    {
      "channel": 4,
      "note": 107,
      "start": 14.6983,
      "duration": 0.0522,
      "velocity": 93,
      "chip": "ym2612"
    },
    {
      "channel": 1,
      "note": 59,
      "start": 14.8588,
      "duration": 0.1603,
      "velocity": 127,
      "chip": "ym2612"
    },
    {
      "channel": 4,
      "note": 107,
      "start": 14.862,
      "duration": 0.2926,
      "velocity": 93,
      "chip": "ym2612"
    },
    {
      "channel": 1,
      "note": 59,
      "start": 15.0193,
      "duration": 0.1607,
      "velocity": 123,
      "chip": "ym2612"
    },
    {
      "channel": 1,
      "note": 57,
      "start": 15.1803,
      "duration": 0.1622,
      "velocity": 127,
      "chip": "ym2612"
    },
    {
      "channel": 4,
      "note": 107,
      "start": 15.183,
      "duration": 0.0528,
      "velocity": 93,
      "chip": "ym2612"
    },
    {
      "channel": 1,
      "note": 64,
      "start": 15.3427,
      "duration": 0.1606,
      "velocity": 127,
      "chip": "ym2612"
    },
    {
      "channel": 4,
      "note": 107,
      "start": 15.3454,
      "duration": 0.0494,
      "velocity": 93,
      "chip": "ym2612"
    },
    {
      "channel": 0,
      "note": 37,
      "start": 15.5008,
      "duration": 5.1488,
      "velocity": 98,
      "chip": "ym2612"
    },
    {
      "channel": 1,
      "note": 64,
      "start": 15.5036,
      "duration": 0.1611,
      "velocity": 123,
      "chip": "ym2612"
    },
    {
      "channel": 2,
      "note": 32,
      "start": 15.5044,
      "duration": 5.1461,
      "velocity": 98,
      "chip": "ym2612"
    },
    {
      "channel": 3,
      "note": 24,
      "start": 15.5064,
      "duration": 5.0917,
      "velocity": 107,
      "chip": "ym2612"
    },
    {
      "channel": 4,
      "note": 107,
      "start": 15.5071,
      "duration": 0.2938,
      "velocity": 93,
      "chip": "ym2612"
    },
    {
      "channel": 1,
      "note": 68,
      "start": 15.6648,
      "duration": 0.1622,
      "velocity": 127,
      "chip": "ym2612"
    },
    {
      "channel": 5,
      "note": 37,
      "start": 15.7475,
      "duration": 5.146,
      "velocity": 98,
      "chip": "ym2612"
    },
    {
      "channel": 1,
      "note": 64,
      "start": 15.8272,
      "duration": 0.1585,
      "velocity": 127,
      "chip": "ym2612"
    },
    {
      "channel": 4,
      "note": 107,
      "start": 15.8299,
      "duration": 0.0494,
      "velocity": 93,
      "chip": "ym2612"
    },
    {
      "channel": 1,
      "note": 64,
      "start": 15.9859,
      "duration": 0.1637,
      "velocity": 127,
      "chip": "ym2612"
    },
    {
      "channel": 4,
      "note": 107,
      "start": 15.9886,
      "duration": 0.0531,
      "velocity": 93,
      "chip": "ym2612"
    },
    {
      "channel": 1,
      "note": 59,
      "start": 16.1498,
      "duration": 0.1603,
      "velocity": 127,
      "chip": "ym2612"
    },
    {
      "channel": 4,
      "note": 107,
      "start": 16.1537,
      "duration": 0.2913,
      "velocity": 93,
      "chip": "ym2612"
    },
    {
      "channel": 1,
      "note": 59,
      "start": 16.3103,
      "duration": 0.1609,
      "velocity": 123,
      "chip": "ym2612"
    },
    {
      "channel": 1,
      "note": 57,
      "start": 16.4714,
      "duration": 0.1622,
      "velocity": 127,
      "chip": "ym2612"
    },
    {
      "channel": 4,
      "note": 107,
      "start": 16.4741,
      "duration": 0.0522,
      "velocity": 93,
      "chip": "ym2612"
    },
    {
      "channel": 1,
      "note": 64,
      "start": 16.6338,
      "duration": 0.1629,
      "velocity": 123,
      "chip": "ym2612"
    },
    {
      "channel": 4,
      "note": 107,
      "start": 16.6371,
      "duration": 0.2954,
      "velocity": 93,
      "chip": "ym2612"
    },
    {
      "channel": 1,
      "note": 68,
      "start": 16.7969,
      "duration": 0.1617,
      "velocity": 127,
      "chip": "ym2612"
    },
    {
      "channel": 1,
      "note": 64,
      "start": 16.9588,
      "duration": 0.0771,
      "velocity": 127,
      "chip": "ym2612"
    },
    {
      "channel": 4,
      "note": 107,
      "start": 16.9615,
      "duration": 0.1306,
      "velocity": 93,
      "chip": "ym2612"
    },
    {
      "channel": 1,
      "note": 64,
      "start": 17.0361,
      "duration": 0.0828,
      "velocity": 123,
      "chip": "ym2612"
    },
    {
      "channel": 1,
      "note": 57,
      "start": 17.1191,
      "duration": 0.1616,
      "velocity": 127,
      "chip": "ym2612"
    },
    {
      "channel": 4,
      "note": 107,
      "start": 17.1218,
      "duration": 0.0515,
      "velocity": 93,
      "chip": "ym2612"
    },
    {
      "channel": 1,
      "note": 64,
      "start": 17.2809,
      "duration": 0.1628,
      "velocity": 127,
      "chip": "ym2612"
    },
    {
      "channel": 4,
      "note": 107,
      "start": 17.2835,
      "duration": 0.0529,
      "velocity": 93,
      "chip": "ym2612"
    },
    {
      "channel": 1,
      "note": 59,
      "start": 17.444,
      "duration": 0.1603,
      "velocity": 127,
      "chip": "ym2612"
    },
    {
      "channel": 4,
      "note": 107,
      "start": 17.4471,
      "duration": 0.292,
      "velocity": 93,
      "chip": "ym2612"
    },
    {
      "channel": 1,
      "note": 59,
      "start": 17.6045,
      "duration": 0.1608,
      "velocity": 123,
      "chip": "ym2612"
    },
    {
      "channel": 1,
      "note": 57,
      "start": 17.7655,
      "duration": 0.1622,
      "velocity": 127,
      "chip": "ym2612"
    },
    {
      "channel": 4,
      "note": 107,
      "start": 17.7688,
      "duration": 0.0522,
      "velocity": 93,
      "chip": "ym2612"
    },
    {
      "channel": 1,
      "note": 64,
      "start": 17.928,
      "duration": 0.1628,
      "velocity": 127,
      "chip": "ym2612"
    },
    {
      "channel": 4,
      "note": 107,
      "start": 17.9306,
      "duration": 0.0523,
      "velocity": 93,
      "chip": "ym2612"
    },
    {
      "channel": 1,
      "note": 64,
      "start": 18.091,
      "duration": 0.1624,
      "velocity": 123,
      "chip": "ym2612"
    },
    {
      "channel": 4,
      "note": 107,
      "start": 18.0943,
      "duration": 0.2926,
      "velocity": 93,
      "chip": "ym2612"
    },
    {
      "channel": 1,
      "note": 68,
      "start": 18.2536,
      "duration": 0.1587,
      "velocity": 127,
      "chip": "ym2612"
    },
    {
      "channel": 1,
      "note": 64,
      "start": 18.4125,
      "duration": 0.1607,
      "velocity": 127,
      "chip": "ym2612"
    },
    {
      "channel": 4,
      "note": 107,
      "start": 18.4152,
      "duration": 0.0522,
      "velocity": 93,
      "chip": "ym2612"
    },
    {
      "channel": 1,
      "note": 64,
      "start": 18.5735,
      "duration": 0.1621,
      "velocity": 127,
      "chip": "ym2612"
    },
    {
      "channel": 4,
      "note": 107,
      "start": 18.5761,
      "duration": 0.0509,
      "velocity": 93,
      "chip": "ym2612"
    },
    {
      "channel": 1,
      "note": 59,
      "start": 18.7359,
      "duration": 0.1595,
      "velocity": 127,
      "chip": "ym2612"
    },
    {
      "channel": 4,
      "note": 107,
      "start": 18.7391,
      "duration": 0.2941,
      "velocity": 93,
      "chip": "ym2612"
    },
    {
      "channel": 1,
      "note": 59,
      "start": 18.8956,
      "duration": 0.1637,
      "velocity": 123,
      "chip": "ym2612"
    },
    {
      "channel": 1,
      "note": 57,
      "start": 19.0595,
      "duration": 0.1599,
      "velocity": 127,
      "chip": "ym2612"
    },
    {
      "channel": 4,
      "note": 107,
      "start": 19.0622,
      "duration": 0.0493,
      "velocity": 93,
      "chip": "ym2612"
    },
    {
      "channel": 1,
      "note": 64,
      "start": 19.2197,
      "duration": 0.1623,
      "velocity": 123,
      "chip": "ym2612"
    },
    {
      "channel": 4,
      "note": 107,
      "start": 19.2224,
      "duration": 0.2961,
      "velocity": 93,
      "chip": "ym2612"
    },
    {
      "channel": 1,
      "note": 68,
      "start": 19.3823,
      "duration": 0.1616,
      "velocity": 127,
      "chip": "ym2612"
    },
    {
      "channel": 1,
      "note": 64,
      "start": 19.5441,
      "duration": 0.0796,
      "velocity": 127,
      "chip": "ym2612"
    },
    {
      "channel": 4,
      "note": 107,
      "start": 19.5468,
      "duration": 0.1335,
      "velocity": 93,
      "chip": "ym2612"
    },
    {
      "channel": 1,
      "note": 64,
      "start": 19.6239,
      "duration": 0.0825,
      "velocity": 123,
      "chip": "ym2612"
    },
    {
      "channel": 1,
      "note": 57,
      "start": 19.7066,
      "duration": 0.1594,
      "velocity": 127,
      "chip": "ym2612"
    },
    {
      "channel": 4,
      "note": 107,
      "start": 19.7093,
      "duration": 0.0493,
      "velocity": 93,
      "chip": "ym2612"
    },
    {
      "channel": 1,
      "note": 64,
      "start": 19.8661,
      "duration": 0.163,
      "velocity": 127,
      "chip": "ym2612"
    },
    {
      "channel": 4,
      "note": 107,
      "start": 19.8694,
      "duration": 0.0522,
      "velocity": 93,
      "chip": "ym2612"
    },
    {
      "channel": 1,
      "note": 59,
      "start": 20.0293,
      "duration": 0.1602,
      "velocity": 127,
      "chip": "ym2612"
    },
    {
      "channel": 4,
      "note": 107,
      "start": 20.0326,
      "duration": 0.2947,
      "velocity": 93,
      "chip": "ym2612"
    },
    {
      "channel": 1,
      "note": 59,
      "start": 20.1897,
      "duration": 0.1642,
      "velocity": 123,
      "chip": "ym2612"
    },
    {
      "channel": 1,
      "note": 57,
      "start": 20.3541,
      "duration": 0.1618,
      "velocity": 127,
      "chip": "ym2612"
    },
    {
      "channel": 4,
      "note": 107,
      "start": 20.3568,
      "duration": 0.0518,
      "velocity": 93,
      "chip": "ym2612"
    },
    {
      "channel": 1,
      "note": 64,
      "start": 20.5161,
      "duration": 0.1632,
      "velocity": 127,
      "chip": "ym2612"
    },
    {
      "channel": 4,
      "note": 107,
      "start": 20.5194,
      "duration": 0.0521,
      "velocity": 93,
      "chip": "ym2612"
    },
    {
      "channel": 0,
      "note": 31,
      "start": 20.6774,
      "duration": 2.5581,
      "velocity": 98,
      "chip": "ym2612"
    },
    {
      "channel": 1,
      "note": 64,
      "start": 20.6795,
      "duration": 0.1615,
      "velocity": 123,
      "chip": "ym2612"
    },
    {
      "channel": 2,
      "note": 24,
      "start": 20.6807,
      "duration": 2.5556,
      "velocity": 98,
      "chip": "ym2612"
    },
    {
      "channel": 3,
      "note": 24,
      "start": 20.6826,
      "duration": 5.0863,
      "velocity": 107,
      "chip": "ym2612"
    },
    {
      "channel": 4,
      "note": 107,
      "start": 20.6834,
      "duration": 0.291,
      "velocity": 93,
      "chip": "ym2612"
    },
    {
      "channel": 1,
      "note": 68,
      "start": 20.8412,
      "duration": 0.1593,
      "velocity": 127,
      "chip": "ym2612"
    },
    {
      "channel": 5,
      "note": 31,
      "start": 20.9219,
      "duration": 2.5597,
      "velocity": 98,
      "chip": "ym2612"
    },
    {
      "channel": 1,
      "note": 64,
      "start": 21.0007,
      "duration": 0.1609,
      "velocity": 127,
      "chip": "ym2612"
    },
    {
      "channel": 4,
      "note": 107,
      "start": 21.004,
      "duration": 0.0517,
      "velocity": 93,
      "chip": "ym2612"
    },
    {
      "channel": 1,
      "note": 64,
      "start": 21.1618,
      "duration": 0.1642,
      "velocity": 127,
      "chip": "ym2612"
    },
    {
      "channel": 4,
      "note": 107,
      "start": 21.1644,
      "duration": 0.0543,
      "velocity": 93,
      "chip": "ym2612"
    },
    {
      "channel": 1,
      "note": 59,
      "start": 21.3262,
      "duration": 0.1603,
      "velocity": 127,
      "chip": "ym2612"
    },
    {
      "channel": 4,
      "note": 107,
      "start": 21.3295,
      "duration": 0.2922,
      "velocity": 93,
      "chip": "ym2612"
    },
    {
      "channel": 1,
      "note": 59,
      "start": 21.4868,
      "duration": 0.1608,
      "velocity": 123,
      "chip": "ym2612"
    },
    {
      "channel": 1,
      "note": 57,
      "start": 21.6478,
      "duration": 0.1622,
      "velocity": 127,
      "chip": "ym2612"
    },
    {
      "channel": 4,
      "note": 107,
      "start": 21.6505,
      "duration": 0.0528,
      "velocity": 93,
      "chip": "ym2612"
    },
    {
      "channel": 1,
      "note": 64,
      "start": 21.8102,
      "duration": 0.1607,
      "velocity": 123,
      "chip": "ym2612"
    },
    {
      "channel": 4,
      "note": 107,
      "start": 21.8129,
      "duration": 0.2932,
      "velocity": 93,
      "chip": "ym2612"
    },
    {
      "channel": 1,
      "note": 68,
      "start": 21.9711,
      "duration": 0.1609,
      "velocity": 127,
      "chip": "ym2612"
    },
    {
      "channel": 1,
      "note": 64,
      "start": 22.1323,
      "duration": 0.0797,
      "velocity": 127,
      "chip": "ym2612"
    },
    {
      "channel": 4,
      "note": 107,
      "start": 22.1356,
      "duration": 0.1335,
      "velocity": 93,
      "chip": "ym2612"
    },
    {
      "channel": 1,
      "note": 64,
      "start": 22.2122,
      "duration": 0.0825,
      "velocity": 123,
      "chip": "ym2612"
    },
    {
      "channel": 1,
      "note": 57,
      "start": 22.2949,
      "duration": 0.1622,
      "velocity": 127,
      "chip": "ym2612"
    },
    {
      "channel": 4,
      "note": 107,
      "start": 22.2975,
      "duration": 0.0522,
      "velocity": 93,
      "chip": "ym2612"
    },
    {
      "channel": 1,
      "note": 64,
      "start": 22.4573,
      "duration": 0.16,
      "velocity": 127,
      "chip": "ym2612"
    },
    {
      "channel": 4,
      "note": 107,
      "start": 22.4599,
      "duration": 0.0494,
      "velocity": 93,
      "chip": "ym2612"
    },
    {
      "channel": 1,
      "note": 59,
      "start": 22.6176,
      "duration": 0.1602,
      "velocity": 127,
      "chip": "ym2612"
    },
    {
      "channel": 4,
      "note": 107,
      "start": 22.6215,
      "duration": 0.294,
      "velocity": 93,
      "chip": "ym2612"
    },
    {
      "channel": 1,
      "note": 59,
      "start": 22.7779,
      "duration": 0.1637,
      "velocity": 123,
      "chip": "ym2612"
    },
    {
      "channel": 1,
      "note": 57,
      "start": 22.9419,
      "duration": 0.16,
      "velocity": 127,
      "chip": "ym2612"
    },
    {
      "channel": 4,
      "note": 107,
      "start": 22.9445,
      "duration": 0.0493,
      "velocity": 93,
      "chip": "ym2612"
    },
    {
      "channel": 1,
      "note": 64,
      "start": 23.102,
      "duration": 0.1622,
      "velocity": 127,
      "chip": "ym2612"
    },
    {
      "channel": 4,
      "note": 107,
      "start": 23.1047,
      "duration": 0.0517,
      "velocity": 93,
      "chip": "ym2612"
    },
    {
      "channel": 0,
      "note": 30,
      "start": 23.2623,
      "duration": 2.5578,
      "velocity": 98,
      "chip": "ym2612"
    },
    {
      "channel": 1,
      "note": 64,
      "start": 23.2644,
      "duration": 0.1618,
      "velocity": 123,
      "chip": "ym2612"
    },
    {
      "channel": 2,
      "note": 25,
      "start": 23.2653,
      "duration": 2.5556,
      "velocity": 98,
      "chip": "ym2612"
    },
    {
      "channel": 4,
      "note": 107,
      "start": 23.2677,
      "duration": 0.2948,
      "velocity": 93,
      "chip": "ym2612"
    },
    {
      "channel": 1,
      "note": 68,
      "start": 23.4265,
      "duration": 0.1622,
      "velocity": 127,
      "chip": "ym2612"
    },
    {
      "channel": 5,
      "note": 30,
      "start": 23.509,
      "duration": 2.5578,
      "velocity": 98,
      "chip": "ym2612"
    },
    {
      "channel": 1,
      "note": 64,
      "start": 23.5889,
      "duration": 0.158,
      "velocity": 127,
      "chip": "ym2612"
    },
    {
      "channel": 4,
      "note": 107,
      "start": 23.5915,
      "duration": 0.0494,
      "velocity": 93,
      "chip": "ym2612"
    },
    {
      "channel": 1,
      "note": 64,
      "start": 23.747,
      "duration": 0.1643,
      "velocity": 127,
      "chip": "ym2612"
    },
    {
      "channel": 4,
      "note": 107,
      "start": 23.7497,
      "duration": 0.0543,
      "velocity": 93,
      "chip": "ym2612"
    },
    {
      "channel": 1,
      "note": 59,
      "start": 23.9115,
      "duration": 0.1603,
      "velocity": 127,
      "chip": "ym2612"
    },
    {
      "channel": 4,
      "note": 107,
      "start": 23.9147,
      "duration": 0.292,
      "velocity": 93,
      "chip": "ym2612"
    },
    {
      "channel": 1,
      "note": 59,
      "start": 24.072,
      "duration": 0.1609,
      "velocity": 123,
      "chip": "ym2612"
    },
    {
      "channel": 1,
      "note": 57,
      "start": 24.233,
      "duration": 0.1622,
      "velocity": 127,
      "chip": "ym2612"
    },
    {
      "channel": 4,
      "note": 107,
      "start": 24.2364,
      "duration": 0.0519,
      "velocity": 93,
      "chip": "ym2612"
    },
    {
      "channel": 1,
      "note": 64,
      "start": 24.3955,
      "duration": 0.1628,
      "velocity": 123,
      "chip": "ym2612"
    },
    {
      "channel": 4,
      "note": 107,
      "start": 24.3982,
      "duration": 0.2959,
      "velocity": 93,
      "chip": "ym2612"
    },
    {
      "channel": 1,
      "note": 68,
      "start": 24.5585,
      "duration": 0.1621,
      "velocity": 127,
      "chip": "ym2612"
    },
    {
      "channel": 1,
      "note": 64,
      "start": 24.7207,
      "duration": 0.0764,
      "velocity": 127,
      "chip": "ym2612"
    },
    {
      "channel": 4,
      "note": 107,
      "start": 24.7234,
      "duration": 0.131,
      "velocity": 93,
      "chip": "ym2612"
    },
    {
      "channel": 1,
      "note": 64,
      "start": 24.7973,
      "duration": 0.0825,
      "velocity": 123,
      "chip": "ym2612"
    },
    {
      "channel": 1,
      "note": 57,
      "start": 24.8801,
      "duration": 0.1622,
      "velocity": 127,
      "chip": "ym2612"
    },
    {
      "channel": 4,
      "note": 107,
      "start": 24.8828,
      "duration": 0.0528,
      "velocity": 93,
      "chip": "ym2612"
    },
    {
      "channel": 1,
      "note": 64,
      "start": 25.0424,
      "duration": 0.1607,
      "velocity": 127,
      "chip": "ym2612"
    },
    {
      "channel": 4,
      "note": 107,
      "start": 25.0451,
      "duration": 0.0495,
      "velocity": 93,
      "chip": "ym2612"
    },
    {
      "channel": 1,
      "note": 59,
      "start": 25.2034,
      "duration": 0.1595,
      "velocity": 127,
      "chip": "ym2612"
    },
    {
      "channel": 4,
      "note": 107,
      "start": 25.2066,
      "duration": 0.2941,
      "velocity": 93,
      "chip": "ym2612"
    },
    {
      "channel": 1,
      "note": 59,
      "start": 25.3632,
      "duration": 0.1637,
      "velocity": 123,
      "chip": "ym2612"
    },
    {
      "channel": 1,
      "note": 57,
      "start": 25.527,
      "duration": 0.16,
      "velocity": 127,
      "chip": "ym2612"
    },
    {
      "channel": 4,
      "note": 107,
      "start": 25.5298,
      "duration": 0.0493,
      "velocity": 93,
      "chip": "ym2612"
    },
    {
      "channel": 1,
      "note": 64,
      "start": 25.6872,
      "duration": 0.1623,
      "velocity": 127,
      "chip": "ym2612"
    },
    {
      "channel": 4,
      "note": 107,
      "start": 25.6899,
      "duration": 0.0517,
      "velocity": 93,
      "chip": "ym2612"
    },
    {
      "channel": 0,
      "note": 31,
      "start": 25.8476,
      "duration": 2.5576,
      "velocity": 98,
      "chip": "ym2612"
    },
    {
      "channel": 1,
      "note": 64,
      "start": 25.8497,
      "duration": 0.1618,
      "velocity": 123,
      "chip": "ym2612"
    },
    {
      "channel": 2,
      "note": 24,
      "start": 25.8506,
      "duration": 2.5556,
      "velocity": 98,
      "chip": "ym2612"
    },
    {
      "channel": 3,
      "note": 24,
      "start": 25.8532,
      "duration": 5.0915,
      "velocity": 107,
      "chip": "ym2612"
    },
    {
      "channel": 4,
      "note": 107,
      "start": 25.854,
      "duration": 0.2937,
      "velocity": 93,
      "chip": "ym2612"
    },
    {
      "channel": 1,
      "note": 68,
      "start": 26.0117,
      "duration": 0.1622,
      "velocity": 127,
      "chip": "ym2612"
    },
    {
      "channel": 5,
      "note": 31,
      "start": 26.0943,
      "duration": 2.5584,
      "velocity": 98,
      "chip": "ym2612"
    },
    {
      "channel": 1,
      "note": 64,
      "start": 26.1741,
      "duration": 0.1579,
      "velocity": 127,
      "chip": "ym2612"
    },
    {
      "channel": 4,
      "note": 107,
      "start": 26.1767,
      "duration": 0.0494,
      "velocity": 93,
      "chip": "ym2612"
    },
    {
      "channel": 1,
      "note": 64,
      "start": 26.3322,
      "duration": 0.1642,
      "velocity": 127,
      "chip": "ym2612"
    },
    {
      "channel": 4,
      "note": 107,
      "start": 26.3355,
      "duration": 0.053,
      "velocity": 93,
      "chip": "ym2612"
    },
    {
      "channel": 1,
      "note": 59,
      "start": 26.4966,
      "duration": 0.1603,
      "velocity": 127,
      "chip": "ym2612"
    },
    {
      "channel": 4,
      "note": 107,
      "start": 26.4999,
      "duration": 0.292,
      "velocity": 93,
      "chip": "ym2612"
    },
    {
      "channel": 1,
      "note": 59,
      "start": 26.6571,
      "duration": 0.1615,
      "velocity": 123,
      "chip": "ym2612"
    },
    {
      "channel": 1,
      "note": 57,
      "start": 26.8188,
      "duration": 0.1616,
      "velocity": 127,
      "chip": "ym2612"
    },
    {
      "channel": 4,
      "note": 107,
      "start": 26.8216,
      "duration": 0.0516,
      "velocity": 93,
      "chip": "ym2612"
    },
    {
      "channel": 1,
      "note": 64,
      "start": 26.9807,
      "duration": 0.1628,
      "velocity": 123,
      "chip": "ym2612"
    },
    {
      "channel": 4,
      "note": 107,
      "start": 26.9833,
      "duration": 0.296,
      "velocity": 93,
      "chip": "ym2612"
    },
    {
      "channel": 1,
      "note": 68,
      "start": 27.1437,
      "duration": 0.1617,
      "velocity": 127,
      "chip": "ym2612"
    },
    {
      "channel": 1,
      "note": 64,
      "start": 27.3056,
      "duration": 0.0767,
      "velocity": 127,
      "chip": "ym2612"
    },
    {
      "channel": 4,
      "note": 107,
      "start": 27.3083,
      "duration": 0.1307,
      "velocity": 93,
      "chip": "ym2612"
    },
    {
      "channel": 1,
      "note": 64,
      "start": 27.3826,
      "duration": 0.0825,
      "velocity": 123,
      "chip": "ym2612"
    },
    {
      "channel": 1,
      "note": 57,
      "start": 27.4653,
      "duration": 0.1622,
      "velocity": 127,
      "chip": "ym2612"
    },
    {
      "channel": 4,
      "note": 107,
      "start": 27.4689,
      "duration": 0.0521,
      "velocity": 93,
      "chip": "ym2612"
    },
    {
      "channel": 1,
      "note": 64,
      "start": 27.6277,
      "duration": 0.1628,
      "velocity": 127,
      "chip": "ym2612"
    },
    {
      "channel": 4,
      "note": 107,
      "start": 27.6303,
      "duration": 0.0523,
      "velocity": 93,
      "chip": "ym2612"
    },
    {
      "channel": 1,
      "note": 59,
      "start": 27.7908,
      "duration": 0.1604,
      "velocity": 127,
      "chip": "ym2612"
    },
    {
      "channel": 4,
      "note": 107,
      "start": 27.794,
      "duration": 0.2926,
      "velocity": 93,
      "chip": "ym2612"
    },
    {
      "channel": 1,
      "note": 59,
      "start": 27.9519,
      "duration": 0.1602,
      "velocity": 123,
      "chip": "ym2612"
    },
    {
      "channel": 1,
      "note": 57,
      "start": 28.1123,
      "duration": 0.1622,
      "velocity": 127,
      "chip": "ym2612"
    },
    {
      "channel": 4,
      "note": 107,
      "start": 28.115,
      "duration": 0.0522,
      "velocity": 93,
      "chip": "ym2612"
    },
    {
      "channel": 1,
      "note": 64,
      "start": 28.2748,
      "duration": 0.1605,
      "velocity": 127,
      "chip": "ym2612"
    },
    {
      "channel": 4,
      "note": 107,
      "start": 28.2774,
      "duration": 0.0495,
      "velocity": 93,
      "chip": "ym2612"
    },
    {
      "channel": 0,
      "note": 30,
      "start": 28.4327,
      "duration": 2.5637,
      "velocity": 98,
      "chip": "ym2612"
    },
    {
      "channel": 1,
      "note": 64,
      "start": 28.4355,
      "duration": 0.1611,
      "velocity": 123,
      "chip": "ym2612"
    },
    {
      "channel": 2,
      "note": 25,
      "start": 28.4363,
      "duration": 2.561,
      "velocity": 98,
      "chip": "ym2612"
    },
    {
      "channel": 4,
      "note": 107,
      "start": 28.4387,
      "duration": 0.2942,
      "velocity": 93,
      "chip": "ym2612"
    },
    {
      "channel": 1,
      "note": 68,
      "start": 28.5969,
      "duration": 0.1622,
      "velocity": 127,
      "chip": "ym2612"
    },
    {
      "channel": 5,
      "note": 30,
      "start": 28.6794,
      "duration": 2.5609,
      "velocity": 98,
      "chip": "ym2612"
    },
    {
      "channel": 1,
      "note": 64,
      "start": 28.7592,
      "duration": 0.158,
      "velocity": 127,
      "chip": "ym2612"
    },
    {
      "channel": 4,
      "note": 107,
      "start": 28.7619,
      "duration": 0.0494,
      "velocity": 93,
      "chip": "ym2612"
    },
    {
      "channel": 1,
      "note": 64,
      "start": 28.9174,
      "duration": 0.1642,
      "velocity": 127,
      "chip": "ym2612"
    },
    {
      "channel": 4,
      "note": 107,
      "start": 28.9207,
      "duration": 0.053,
      "velocity": 93,
      "chip": "ym2612"
    },
    {
      "channel": 1,
      "note": 59,
      "start": 29.0819,
      "duration": 0.1602,
      "velocity": 127,
      "chip": "ym2612"
    },
    {
      "channel": 4,
      "note": 107,
      "start": 29.0858,
      "duration": 0.2913,
      "velocity": 93,
      "chip": "ym2612"
    },
    {
      "channel": 1,
      "note": 59,
      "start": 29.2424,
      "duration": 0.1615,
      "velocity": 123,
      "chip": "ym2612"
    },
    {
      "channel": 1,
      "note": 57,
      "start": 29.404,
      "duration": 0.1616,
      "velocity": 127,
      "chip": "ym2612"
    },
    {
      "channel": 4,
      "note": 107,
      "start": 29.4068,
      "duration": 0.0516,
      "velocity": 93,
      "chip": "ym2612"
    },
    {
      "channel": 1,
      "note": 64,
      "start": 29.5659,
      "duration": 0.163,
      "velocity": 123,
      "chip": "ym2612"
    },
    {
      "channel": 4,
      "note": 107,
      "start": 29.5692,
      "duration": 0.2955,
      "velocity": 93,
      "chip": "ym2612"
    },
    {
      "channel": 1,
      "note": 68,
      "start": 29.7291,
      "duration": 0.1616,
      "velocity": 127,
      "chip": "ym2612"
    },
    {
      "channel": 1,
      "note": 64,
      "start": 29.8909,
      "duration": 0.0796,
      "velocity": 127,
      "chip": "ym2612"
    },
    {
      "channel": 4,
      "note": 107,
      "start": 29.8935,
      "duration": 0.1335,
      "velocity": 93,
      "chip": "ym2612"
    },
    {
      "channel": 1,
      "note": 64,
      "start": 29.9707,
      "duration": 0.0831,
      "velocity": 123,
      "chip": "ym2612"
    },
    {
      "channel": 1,
      "note": 57,
      "start": 30.0539,
      "duration": 0.1617,
      "velocity": 127,
      "chip": "ym2612"
    },
    {
      "channel": 4,
      "note": 107,
      "start": 30.0567,
      "duration": 0.0517,
      "velocity": 93,
      "chip": "ym2612"
    },
    {
      "channel": 1,
      "note": 64,
      "start": 30.2159,
      "duration": 0.1629,
      "velocity": 127,
      "chip": "ym2612"
    },
    {
      "channel": 4,
      "note": 107,
      "start": 30.2192,
      "duration": 0.0523,
      "velocity": 93,
      "chip": "ym2612"
    },
    {
      "channel": 1,
      "note": 59,
      "start": 30.379,
      "duration": 0.1603,
      "velocity": 127,
      "chip": "ym2612"
    },
    {
      "channel": 4,
      "note": 107,
      "start": 30.3822,
      "duration": 0.292,
      "velocity": 93,
      "chip": "ym2612"
    },
    {
      "channel": 1,
      "note": 59,
      "start": 30.5395,
      "duration": 0.1608,
      "velocity": 123,
      "chip": "ym2612"
    },
    {
      "channel": 1,
      "note": 57,
      "start": 30.7005,
      "duration": 0.1623,
      "velocity": 127,
      "chip": "ym2612"
    },
    {
      "channel": 4,
      "note": 107,
      "start": 30.7039,
      "duration": 0.0516,
      "velocity": 93,
      "chip": "ym2612"
    },
    {
      "channel": 1,
      "note": 64,
      "start": 30.863,
      "duration": 0.1628,
      "velocity": 127,
      "chip": "ym2612"
    },
    {
      "channel": 4,
      "note": 107,
      "start": 30.8656,
      "duration": 0.0529,
      "velocity": 93,
      "chip": "ym2612"
    },
    {
      "channel": 0,
      "note": 31,
      "start": 31.0239,
      "duration": 2.5578,
      "velocity": 98,
      "chip": "ym2612"
    },
    {
      "channel": 1,
      "note": 64,
      "start": 31.026,
      "duration": 0.1618,
      "velocity": 123,
      "chip": "ym2612"
    },
    {
      "channel": 2,
      "note": 24,
      "start": 31.0268,
      "duration": 2.5557,
      "velocity": 98,
      "chip": "ym2612"
    },
    {
      "channel": 3,
      "note": 24,
      "start": 31.0288,
      "duration": 5.09,
      "velocity": 107,
      "chip": "ym2612"
    },
    {
      "channel": 4,
      "note": 107,
      "start": 31.0297,
      "duration": 0.2919,
      "velocity": 93,
      "chip": "ym2612"
    },
    {
      "channel": 1,
      "note": 68,
      "start": 31.188,
      "duration": 0.1593,
      "velocity": 127,
      "chip": "ym2612"
    },
    {
      "channel": 5,
      "note": 31,
      "start": 31.268,
      "duration": 2.5604,
      "velocity": 98,
      "chip": "ym2612"
    },
    {
      "channel": 1,
      "note": 64,
      "start": 31.3475,
      "duration": 0.1608,
      "velocity": 127,
      "chip": "ym2612"
    },
    {
      "channel": 4,
      "note": 107,
      "start": 31.3502,
      "duration": 0.0529,
      "velocity": 93,
      "chip": "ym2612"
    },
    {
      "channel": 1,
      "note": 64,
      "start": 31.5085,
      "duration": 0.1621,
      "velocity": 127,
      "chip": "ym2612"
    },
    {
      "channel": 4,
      "note": 107,
      "start": 31.5112,
      "duration": 0.0509,
      "velocity": 93,
      "chip": "ym2612"
    },
    {
      "channel": 1,
      "note": 59,
      "start": 31.6709,
      "duration": 0.1595,
      "velocity": 127,
      "chip": "ym2612"
    },
    {
      "channel": 4,
      "note": 107,
      "start": 31.6741,
      "duration": 0.2947,
      "velocity": 93,
      "chip": "ym2612"
    },
    {
      "channel": 1,
      "note": 59,
      "start": 31.8307,
      "duration": 0.1637,
      "velocity": 123,
      "chip": "ym2612"
    },
    {
      "channel": 1,
      "note": 57,
      "start": 31.9945,
      "duration": 0.1594,
      "velocity": 127,
      "chip": "ym2612"
    },
    {
      "channel": 4,
      "note": 107,
      "start": 31.9973,
      "duration": 0.0492,
      "velocity": 93,
      "chip": "ym2612"
    },
    {
      "channel": 1,
      "note": 64,
      "start": 32.1541,
      "duration": 0.1627,
      "velocity": 123,
      "chip": "ym2612"
    },
    {
      "channel": 4,
      "note": 107,
      "start": 32.1568,
      "duration": 0.2966,
      "velocity": 93,
      "chip": "ym2612"
    },
    {
      "channel": 1,
      "note": 68,
      "start": 32.3171,
      "duration": 0.1617,
      "velocity": 127,
      "chip": "ym2612"
    },
    {
      "channel": 1,
      "note": 64,
      "start": 32.479,
      "duration": 0.0768,
      "velocity": 127,
      "chip": "ym2612"
    },
    {
      "channel": 4,
      "note": 107,
      "start": 32.4817,
      "duration": 0.1307,
      "velocity": 93,
      "chip": "ym2612"
    },
    {
      "channel": 1,
      "note": 64,
      "start": 32.556,
      "duration": 0.0824,
      "velocity": 123,
      "chip": "ym2612"
    },
    {
      "channel": 1,
      "note": 57,
      "start": 32.6387,
      "duration": 0.1622,
      "velocity": 127,
      "chip": "ym2612"
    },
    {
      "channel": 4,
      "note": 107,
      "start": 32.6414,
      "duration": 0.0522,
      "velocity": 93,
      "chip": "ym2612"
    },
    {
      "channel": 1,
      "note": 64,
      "start": 32.8013,
      "duration": 0.1627,
      "velocity": 127,
      "chip": "ym2612"
    },
    {
      "channel": 4,
      "note": 107,
      "start": 32.8043,
      "duration": 0.0517,
      "velocity": 93,
      "chip": "ym2612"
    },
    {
      "channel": 1,
      "note": 59,
      "start": 32.9642,
      "duration": 0.1602,
      "velocity": 127,
      "chip": "ym2612"
    },
    {
      "channel": 4,
      "note": 107,
      "start": 32.9674,
      "duration": 0.292,
      "velocity": 93,
      "chip": "ym2612"
    },
    {
      "channel": 1,
      "note": 59,
      "start": 33.1247,
      "duration": 0.1615,
      "velocity": 123,
      "chip": "ym2612"
    },
    {
      "channel": 1,
      "note": 57,
      "start": 33.2864,
      "duration": 0.1616,
      "velocity": 127,
      "chip": "ym2612"
    },
    {
      "channel": 4,
      "note": 107,
      "start": 33.2891,
      "duration": 0.0515,
      "velocity": 93,
      "chip": "ym2612"
    },
    {
      "channel": 1,
      "note": 64,
      "start": 33.4482,
      "duration": 0.1628,
      "velocity": 127,
      "chip": "ym2612"
    },
    {
      "channel": 4,
      "note": 107,
      "start": 33.4508,
      "duration": 0.053,
      "velocity": 93,
      "chip": "ym2612"
    },
    {
      "channel": 0,
      "note": 30,
      "start": 33.6091,
      "duration": 2.5608,
      "velocity": 98,
      "chip": "ym2612"
    },
    {
      "channel": 1,
      "note": 64,
      "start": 33.6113,
      "duration": 0.1618,
      "velocity": 123,
      "chip": "ym2612"
    },
    {
      "channel": 2,
      "note": 25,
      "start": 33.6121,
      "duration": 2.5587,
      "velocity": 98,
      "chip": "ym2612"
    },
    {
      "channel": 4,
      "note": 107,
      "start": 33.6144,
      "duration": 0.2949,
      "velocity": 93,
      "chip": "ym2612"
    },
    {
      "channel": 1,
      "note": 68,
      "start": 33.7733,
      "duration": 0.1628,
      "velocity": 127,
      "chip": "ym2612"
    },
    {
      "channel": 5,
      "note": 30,
      "start": 33.8559,
      "duration": 2.5608,
      "velocity": 98,
      "chip": "ym2612"
    },
    {
      "channel": 1,
      "note": 64,
      "start": 33.9363,
      "duration": 0.1602,
      "velocity": 127,
      "chip": "ym2612"
    },
    {
      "channel": 4,
      "note": 107,
      "start": 33.939,
      "duration": 0.0517,
      "velocity": 93,
      "chip": "ym2612"
    },
    {
      "channel": 1,
      "note": 64,
      "start": 34.0968,
      "duration": 0.1615,
      "velocity": 127,
      "chip": "ym2612"
    },
    {
      "channel": 4,
      "note": 107,
      "start": 34.0994,
      "duration": 0.051,
      "velocity": 93,
      "chip": "ym2612"
    },
    {
      "channel": 1,
      "note": 59,
      "start": 34.2584,
      "duration": 0.1607,
      "velocity": 127,
      "chip": "ym2612"
    },
    {
      "channel": 4,
      "note": 107,
      "start": 34.2617,
      "duration": 0.2947,
      "velocity": 93,
      "chip": "ym2612"
    },
    {
      "channel": 1,
      "note": 59,
      "start": 34.4193,
      "duration": 0.1632,
      "velocity": 123,
      "chip": "ym2612"
    },
    {
      "channel": 1,
      "note": 57,
      "start": 34.5828,
      "duration": 0.1623,
      "velocity": 127,
      "chip": "ym2612"
    },
    {
      "channel": 4,
      "note": 107,
      "start": 34.5863,
      "duration": 0.0519,
      "velocity": 93,
      "chip": "ym2612"
    },
    {
      "channel": 1,
      "note": 64,
      "start": 34.7452,
      "duration": 0.16,
      "velocity": 123,
      "chip": "ym2612"
    },
    {
      "channel": 4,
      "note": 107,
      "start": 34.7479,
      "duration": 0.2932,
      "velocity": 93,
      "chip": "ym2612"
    },
    {
      "channel": 1,
      "note": 68,
      "start": 34.9055,
      "duration": 0.1617,
      "velocity": 127,
      "chip": "ym2612"
    },
    {
      "channel": 1,
      "note": 64,
      "start": 35.0673,
      "duration": 0.0797,
      "velocity": 127,
      "chip": "ym2612"
    },
    {
      "channel": 4,
      "note": 107,
      "start": 35.0706,
      "duration": 0.1336,
      "velocity": 93,
      "chip": "ym2612"
    },
    {
      "channel": 1,
      "note": 64,
      "start": 35.1472,
      "duration": 0.0824,
      "velocity": 123,
      "chip": "ym2612"
    },
    {
      "channel": 1,
      "note": 57,
      "start": 35.2299,
      "duration": 0.1622,
      "velocity": 127,
      "chip": "ym2612"
    },
    {
      "channel": 4,
      "note": 107,
      "start": 35.2326,
      "duration": 0.0528,
      "velocity": 93,
      "chip": "ym2612"
    },
    {
      "channel": 1,
      "note": 64,
      "start": 35.3923,
      "duration": 0.1607,
      "velocity": 127,
      "chip": "ym2612"
    },
    {
      "channel": 4,
      "note": 107,
      "start": 35.3949,
      "duration": 0.0495,
      "velocity": 93,
      "chip": "ym2612"
    },
    {
      "channel": 1,
      "note": 59,
      "start": 35.5532,
      "duration": 0.1595,
      "velocity": 127,
      "chip": "ym2612"
    },
    {
      "channel": 4,
      "note": 107,
      "start": 35.5565,
      "duration": 0.294,
      "velocity": 93,
      "chip": "ym2612"
    },
    {
      "channel": 1,
      "note": 59,
      "start": 35.713,
      "duration": 0.1637,
      "velocity": 123,
      "chip": "ym2612"
    },
    {
      "channel": 1,
      "note": 57,
      "start": 35.8768,
      "duration": 0.16,
      "velocity": 127,
      "chip": "ym2612"
    },
    {
      "channel": 4,
      "note": 107,
      "start": 35.8796,
      "duration": 0.0493,
      "velocity": 93,
      "chip": "ym2612"
    },
    {
      "channel": 1,
      "note": 64,
      "start": 36.0371,
      "duration": 0.1622,
      "velocity": 127,
      "chip": "ym2612"
    },
    {
      "channel": 4,
      "note": 107,
      "start": 36.0397,
      "duration": 0.0518,
      "velocity": 93,
      "chip": "ym2612"
    },
    {
      "channel": 0,
      "note": 37,
      "start": 36.1974,
      "duration": 5.1489,
      "velocity": 98,
      "chip": "ym2612"
    },
    {
      "channel": 1,
      "note": 64,
      "start": 36.1995,
      "duration": 0.1618,
      "velocity": 123,
      "chip": "ym2612"
    },
    {
      "channel": 2,
      "note": 32,
      "start": 36.2003,
      "duration": 5.1468,
      "velocity": 98,
      "chip": "ym2612"
    },
    {
      "channel": 3,
      "note": 24,
      "start": 36.203,
      "duration": 5.0915,
      "velocity": 107,
      "chip": "ym2612"
    },
    {
      "channel": 4,
      "note": 107,
      "start": 36.2038,
      "duration": 0.2938,
      "velocity": 93,
      "chip": "ym2612"
    },
    {
      "channel": 1,
      "note": 68,
      "start": 36.3615,
      "duration": 0.1622,
      "velocity": 127,
      "chip": "ym2612"
    },
    {
      "channel": 5,
      "note": 37,
      "start": 36.4441,
      "duration": 5.1491,
      "velocity": 98,
      "chip": "ym2612"
    },
    {
      "channel": 1,
      "note": 64,
      "start": 36.5239,
      "duration": 0.158,
      "velocity": 127,
      "chip": "ym2612"
    },
    {
      "channel": 4,
      "note": 107,
      "start": 36.5265,
      "duration": 0.0494,
      "velocity": 93,
      "chip": "ym2612"
    },
    {
      "channel": 1,
      "note": 64,
      "start": 36.6821,
      "duration": 0.1642,
      "velocity": 127,
      "chip": "ym2612"
    },
    {
      "channel": 4,
      "note": 107,
      "start": 36.6854,
      "duration": 0.053,
      "velocity": 93,
      "chip": "ym2612"
    },
    {
      "channel": 1,
      "note": 59,
      "start": 36.8465,
      "duration": 0.1602,
      "velocity": 127,
      "chip": "ym2612"
    },
    {
      "channel": 4,
      "note": 107,
      "start": 36.8497,
      "duration": 0.292,
      "velocity": 93,
      "chip": "ym2612"
    },
    {
      "channel": 1,
      "note": 59,
      "start": 37.007,
      "duration": 0.1615,
      "velocity": 123,
      "chip": "ym2612"
    },
    {
      "channel": 1,
      "note": 57,
      "start": 37.1687,
      "duration": 0.1616,
      "velocity": 127,
      "chip": "ym2612"
    },
    {
      "channel": 4,
      "note": 107,
      "start": 37.1714,
      "duration": 0.0516,
      "velocity": 93,
      "chip": "ym2612"
    },
    {
      "channel": 1,
      "note": 64,
      "start": 37.3305,
      "duration": 0.1627,
      "velocity": 123,
      "chip": "ym2612"
    },
    {
      "channel": 4,
      "note": 107,
      "start": 37.3332,
      "duration": 0.2959,
      "velocity": 93,
      "chip": "ym2612"
    },
    {
      "channel": 1,
      "note": 68,
      "start": 37.4935,
      "duration": 0.1617,
      "velocity": 127,
      "chip": "ym2612"
    },
    {
      "channel": 1,
      "note": 64,
      "start": 37.6555,
      "duration": 0.0767,
      "velocity": 127,
      "chip": "ym2612"
    },
    {
      "channel": 4,
      "note": 107,
      "start": 37.6581,
      "duration": 0.1307,
      "velocity": 93,
      "chip": "ym2612"
    },
    {
      "channel": 1,
      "note": 64,
      "start": 37.7324,
      "duration": 0.0825,
      "velocity": 123,
      "chip": "ym2612"
    },
    {
      "channel": 1,
      "note": 57,
      "start": 37.8151,
      "duration": 0.1623,
      "velocity": 127,
      "chip": "ym2612"
    },
    {
      "channel": 4,
      "note": 107,
      "start": 37.8185,
      "duration": 0.0522,
      "velocity": 93,
      "chip": "ym2612"
    },
    {
      "channel": 1,
      "note": 64,
      "start": 37.9776,
      "duration": 0.1628,
      "velocity": 127,
      "chip": "ym2612"
    },
    {
      "channel": 4,
      "note": 107,
      "start": 37.9802,
      "duration": 0.0522,
      "velocity": 93,
      "chip": "ym2612"
    },
    {
      "channel": 1,
      "note": 59,
      "start": 38.1406,
      "duration": 0.1603,
      "velocity": 127,
      "chip": "ym2612"
    },
    {
      "channel": 4,
      "note": 107,
      "start": 38.1438,
      "duration": 0.2926,
      "velocity": 93,
      "chip": "ym2612"
    },
    {
      "channel": 1,
      "note": 59,
      "start": 38.3014,
      "duration": 0.1605,
      "velocity": 123,
      "chip": "ym2612"
    },
    {
      "channel": 1,
      "note": 57,
      "start": 38.4622,
      "duration": 0.1622,
      "velocity": 127,
      "chip": "ym2612"
    },
    {
      "channel": 4,
      "note": 107,
      "start": 38.4648,
      "duration": 0.0522,
      "velocity": 93,
      "chip": "ym2612"
    },
    {
      "channel": 1,
      "note": 64,
      "start": 38.6246,
      "duration": 0.1607,
      "velocity": 127,
      "chip": "ym2612"
    },
    {
      "channel": 4,
      "note": 107,
      "start": 38.6272,
      "duration": 0.0495,
      "velocity": 93,
      "chip": "ym2612"
    },
    {
      "channel": 1,
      "note": 64,
      "start": 38.7854,
      "duration": 0.161,
      "velocity": 123,
      "chip": "ym2612"
    },
    {
      "channel": 4,
      "note": 107,
      "start": 38.7888,
      "duration": 0.294,
      "velocity": 93,
      "chip": "ym2612"
    },
    {
      "channel": 1,
      "note": 68,
      "start": 38.9467,
      "duration": 0.1622,
      "velocity": 127,
      "chip": "ym2612"
    },
    {
      "channel": 1,
      "note": 64,
      "start": 39.109,
      "duration": 0.158,
      "velocity": 127,
      "chip": "ym2612"
    },
    {
      "channel": 4,
      "note": 107,
      "start": 39.1117,
      "duration": 0.0494,
      "velocity": 93,
      "chip": "ym2612"
    },
    {
      "channel": 1,
      "note": 64,
      "start": 39.2672,
      "duration": 0.1642,
      "velocity": 127,
      "chip": "ym2612"
    },
    {
      "channel": 4,
      "note": 107,
      "start": 39.2705,
      "duration": 0.053,
      "velocity": 93,
      "chip": "ym2612"
    },
    {
      "channel": 1,
      "note": 59,
      "start": 39.4317,
      "duration": 0.1603,
      "velocity": 127,
      "chip": "ym2612"
    },
    {
      "channel": 4,
      "note": 107,
      "start": 39.4356,
      "duration": 0.2914,
      "velocity": 93,
      "chip": "ym2612"
    },
    {
      "channel": 1,
      "note": 59,
      "start": 39.5922,
      "duration": 0.1615,
      "velocity": 123,
      "chip": "ym2612"
    },
    {
      "channel": 1,
      "note": 57,
      "start": 39.7539,
      "duration": 0.1616,
      "velocity": 127,
      "chip": "ym2612"
    },
    {
      "channel": 4,
      "note": 107,
      "start": 39.7566,
      "duration": 0.0515,
      "velocity": 93,
      "chip": "ym2612"
    },
    {
      "channel": 1,
      "note": 64,
      "start": 39.9157,
      "duration": 0.163,
      "velocity": 123,
      "chip": "ym2612"
    },
    {
      "channel": 4,
      "note": 107,
      "start": 39.919,
      "duration": 0.2955,
      "velocity": 93,
      "chip": "ym2612"
    },
    {
      "channel": 1,
      "note": 68,
      "start": 40.0789,
      "duration": 0.1616,
      "velocity": 127,
      "chip": "ym2612"
    },
    {
      "channel": 1,
      "note": 64,
      "start": 40.2408,
      "duration": 0.0795,
      "velocity": 127,
      "chip": "ym2612"
    },
    {
      "channel": 4,
      "note": 107,
      "start": 40.2434,
      "duration": 0.1335,
      "velocity": 93,
      "chip": "ym2612"
    },
    {
      "channel": 1,
      "note": 64,
      "start": 40.3205,
      "duration": 0.0832,
      "velocity": 123,
      "chip": "ym2612"
    },
    {
      "channel": 1,
      "note": 57,
      "start": 40.4039,
      "duration": 0.1616,
      "velocity": 127,
      "chip": "ym2612"
    },
    {
      "channel": 4,
      "note": 107,
      "start": 40.4066,
      "duration": 0.0515,
      "velocity": 93,
      "chip": "ym2612"
    },
    {
      "channel": 1,
      "note": 64,
      "start": 40.5657,
      "duration": 0.1629,
      "velocity": 127,
      "chip": "ym2612"
    },
    {
      "channel": 4,
      "note": 107,
      "start": 40.569,
      "duration": 0.0523,
      "velocity": 93,
      "chip": "ym2612"
    },
    {
      "channel": 1,
      "note": 59,
      "start": 40.7288,
      "duration": 0.1602,
      "velocity": 127,
      "chip": "ym2612"
    },
    {
      "channel": 4,
      "note": 107,
      "start": 40.7321,
      "duration": 0.292,
      "velocity": 93,
      "chip": "ym2612"
    },
    {
      "channel": 1,
      "note": 59,
      "start": 40.8893,
      "duration": 0.1608,
      "velocity": 123,
      "chip": "ym2612"
    },
    {
      "channel": 1,
      "note": 57,
      "start": 41.0504,
      "duration": 0.1622,
      "velocity": 127,
      "chip": "ym2612"
    },
    {
      "channel": 4,
      "note": 107,
      "start": 41.0537,
      "duration": 0.0517,
      "velocity": 93,
      "chip": "ym2612"
    },
    {
      "channel": 1,
      "note": 64,
      "start": 41.2129,
      "duration": 0.1646,
      "velocity": 127,
      "chip": "ym2612"
    },
    {
      "channel": 4,
      "note": 107,
      "start": 41.2158,
      "duration": 0.0528,
      "velocity": 93,
      "chip": "ym2612"
    },
    {
      "channel": 0,
      "note": 50,
      "start": 41.3754,
      "duration": 0.1363,
      "velocity": 94,
      "chip": "ym2612"
    },
    {
      "channel": 1,
      "note": 64,
      "start": 41.3777,
      "duration": 0.1631,
      "velocity": 123,
      "chip": "ym2612"
    },
    {
      "channel": 2,
      "note": 43,
      "start": 41.3803,
      "duration": 0.1323,
      "velocity": 94,
      "chip": "ym2612"
    },
    {
      "channel": 3,
      "note": 26,
      "start": 41.3824,
      "duration": 0.2944,
      "velocity": 107,
      "chip": "ym2612"
    },
    {
      "channel": 4,
      "note": 107,
      "start": 41.3856,
      "duration": 0.0477,
      "velocity": 124,
      "chip": "ym2612"
    },
    {
      "channel": 1,
      "note": 57,
      "start": 41.541,
      "duration": 0.1615,
      "velocity": 123,
      "chip": "ym2612"
    },
    {
      "channel": 4,
      "note": 107,
      "start": 41.5438,
      "duration": 0.049,
      "velocity": 124,
      "chip": "ym2612"
    },
    {
      "channel": 5,
      "note": 50,
      "start": 41.623,
      "duration": 0.1327,
      "velocity": 94,
      "chip": "ym2612"
    },
    {
      "channel": 1,
      "note": 57,
      "start": 41.7026,
      "duration": 0.1588,
      "velocity": 123,
      "chip": "ym2612"
    },
    {
      "channel": 4,
      "note": 107,
      "start": 41.7056,
      "duration": 0.2936,
      "velocity": 124,
      "chip": "ym2612"
    },
    {
      "channel": 1,
      "note": 57,
      "start": 41.8617,
      "duration": 0.1638,
      "velocity": 127,
      "chip": "ym2612"
    },
    {
      "channel": 0,
      "note": 50,
      "start": 42.0236,
      "duration": 0.1352,
      "velocity": 94,
      "chip": "ym2612"
    },
    {
      "channel": 1,
      "note": 64,
      "start": 42.0257,
      "duration": 0.1621,
      "velocity": 123,
      "chip": "ym2612"
    },
    {
      "channel": 2,
      "note": 43,
      "start": 42.0265,
      "duration": 0.1332,
      "velocity": 94,
      "chip": "ym2612"
    },
    {
      "channel": 3,
      "note": 26,
      "start": 42.0284,
      "duration": 0.2929,
      "velocity": 107,
      "chip": "ym2612"
    },
    {
      "channel": 4,
      "note": 107,
      "start": 42.0291,
      "duration": 0.0512,
      "velocity": 124,
      "chip": "ym2612"
    },
    {
      "channel": 1,
      "note": 57,
      "start": 42.188,
      "duration": 0.1579,
      "velocity": 123,
      "chip": "ym2612"
    },
    {
      "channel": 4,
      "note": 107,
      "start": 42.1908,
      "duration": 0.049,
      "velocity": 124,
      "chip": "ym2612"
    },
    {
      "channel": 5,
      "note": 50,
      "start": 42.2675,
      "duration": 0.1358,
      "velocity": 94,
      "chip": "ym2612"
    },
    {
      "channel": 1,
      "note": 57,
      "start": 42.3461,
      "duration": 0.1639,
      "velocity": 127,
      "chip": "ym2612"
    },
    {
      "channel": 4,
      "note": 107,
      "start": 42.3491,
      "duration": 0.2971,
      "velocity": 124,
      "chip": "ym2612"
    },
    {
      "channel": 0,
      "note": 52,
      "start": 42.5081,
      "duration": 0.1353,
      "velocity": 94,
      "chip": "ym2612"
    },
    {
      "channel": 1,
      "note": 64,
      "start": 42.5102,
      "duration": 0.1622,
      "velocity": 123,
      "chip": "ym2612"
    },
    {
      "channel": 2,
      "note": 45,
      "start": 42.511,
      "duration": 0.1332,
      "velocity": 94,
      "chip": "ym2612"
    },
    {
      "channel": 3,
      "note": 26,
      "start": 42.5129,
      "duration": 0.2925,
      "velocity": 107,
      "chip": "ym2612"
    },
    {
      "channel": 1,
      "note": 57,
      "start": 42.6726,
      "duration": 0.1595,
      "velocity": 127,
      "chip": "ym2612"
    },
    {
      "channel": 4,
      "note": 107,
      "start": 42.6754,
      "duration": 0.049,
      "velocity": 124,
      "chip": "ym2612"
    },
    {
      "channel": 5,
      "note": 52,
      "start": 42.7527,
      "duration": 0.1352,
      "velocity": 94,
      "chip": "ym2612"
    },
    {
      "channel": 0,
      "note": 52,
      "start": 42.8302,
      "duration": 0.1352,
      "velocity": 94,
      "chip": "ym2612"
    },
    {
      "channel": 1,
      "note": 64,
      "start": 42.8323,
      "duration": 0.1609,
      "velocity": 127,
      "chip": "ym2612"
    },
    {
      "channel": 2,
      "note": 45,
      "start": 42.8331,
      "duration": 0.1332,
      "velocity": 94,
      "chip": "ym2612"
    },
    {
      "channel": 3,
      "note": 26,
      "start": 42.8356,
      "duration": 0.1329,
      "velocity": 107,
      "chip": "ym2612"
    },
    {
      "channel": 4,
      "note": 107,
      "start": 42.8363,
      "duration": 0.0513,
      "velocity": 124,
      "chip": "ym2612"
    },
    {
      "channel": 0,
      "note": 52,
      "start": 42.9927,
      "duration": 0.1352,
      "velocity": 94,
      "chip": "ym2612"
    },
    {
      "channel": 1,
      "note": 64,
      "start": 42.9934,
      "duration": 0.1635,
      "velocity": 123,
      "chip": "ym2612"
    },
    {
      "channel": 2,
      "note": 45,
      "start": 42.9941,
      "duration": 0.1346,
      "velocity": 94,
      "chip": "ym2612"
    },
    {
      "channel": 3,
      "note": 26,
      "start": 42.9961,
      "duration": 0.2939,
      "velocity": 107,
      "chip": "ym2612"
    },
    {
      "channel": 4,
      "note": 107,
      "start": 42.9968,
      "duration": 0.2936,
      "velocity": 124,
      "chip": "ym2612"
    },
    {
      "channel": 5,
      "note": 52,
      "start": 43.077,
      "duration": 0.1324,
      "velocity": 94,
      "chip": "ym2612"
    },
    {
      "channel": 1,
      "note": 57,
      "start": 43.1571,
      "duration": 0.1595,
      "velocity": 127,
      "chip": "ym2612"
    },
    {
      "channel": 5,
      "note": 52,
      "start": 43.2372,
      "duration": 0.1348,
      "velocity": 94,
      "chip": "ym2612"
    },
    {
      "channel": 0,
      "note": 52,
      "start": 43.3148,
      "duration": 0.1352,
      "velocity": 94,
      "chip": "ym2612"
    },
    {
      "channel": 1,
      "note": 64,
      "start": 43.3169,
      "duration": 0.1621,
      "velocity": 123,
      "chip": "ym2612"
    },
    {
      "channel": 2,
      "note": 45,
      "start": 43.3178,
      "duration": 0.1333,
      "velocity": 94,
      "chip": "ym2612"
    },
    {
      "channel": 3,
      "note": 26,
      "start": 43.3202,
      "duration": 0.2947,
      "velocity": 107,
      "chip": "ym2612"
    },
    {
      "channel": 4,
      "note": 107,
      "start": 43.3211,
      "duration": 0.0506,
      "velocity": 124,
      "chip": "ym2612"
    },
    {
      "channel": 1,
      "note": 57,
      "start": 43.4792,
      "duration": 0.1607,
      "velocity": 123,
      "chip": "ym2612"
    },
    {
      "channel": 4,
      "note": 107,
      "start": 43.482,
      "duration": 0.0519,
      "velocity": 124,
      "chip": "ym2612"
    },
    {
      "channel": 5,
      "note": 52,
      "start": 43.5615,
      "duration": 0.1323,
      "velocity": 94,
      "chip": "ym2612"
    },
    {
      "channel": 1,
      "note": 57,
      "start": 43.6402,
      "duration": 0.1594,
      "velocity": 123,
      "chip": "ym2612"
    },
    {
      "channel": 4,
      "note": 107,
      "start": 43.6432,
      "duration": 0.2948,
      "velocity": 124,
      "chip": "ym2612"
    },
    {
      "channel": 1,
      "note": 57,
      "start": 43.7998,
      "duration": 0.1622,
      "velocity": 123,
      "chip": "ym2612"
    },
    {
      "channel": 1,
      "note": 57,
      "start": 43.9622,
      "duration": 0.1593,
      "velocity": 123,
      "chip": "ym2612"
    },
    {
      "channel": 4,
      "note": 107,
      "start": 43.9653,
      "duration": 0.0502,
      "velocity": 124,
      "chip": "ym2612"
    },
    {
      "channel": 1,
      "note": 57,
      "start": 44.1218,
      "duration": 0.1644,
      "velocity": 127,
      "chip": "ym2612"
    },
    {
      "channel": 4,
      "note": 107,
      "start": 44.1248,
      "duration": 0.0532,
      "velocity": 124,
      "chip": "ym2612"
    },
    {
      "channel": 0,
      "note": 50,
      "start": 44.2838,
      "duration": 0.1352,
      "velocity": 94,
      "chip": "ym2612"
    },
    {
      "channel": 1,
      "note": 64,
      "start": 44.2865,
      "duration": 0.1615,
      "velocity": 123,
      "chip": "ym2612"
    },
    {
      "channel": 2,
      "note": 43,
      "start": 44.2873,
      "duration": 0.1326,
      "velocity": 94,
      "chip": "ym2612"
    },
    {
      "channel": 3,
      "note": 26,
      "start": 44.2892,
      "duration": 0.2948,
      "velocity": 107,
      "chip": "ym2612"
    },
    {
      "channel": 4,
      "note": 107,
      "start": 44.29,
      "duration": 0.2945,
      "velocity": 124,
      "chip": "ym2612"
    },
    {
      "channel": 1,
      "note": 57,
      "start": 44.4482,
      "duration": 0.1625,
      "velocity": 127,
      "chip": "ym2612"
    },
    {
      "channel": 5,
      "note": 50,
      "start": 44.5306,
      "duration": 0.1353,
      "velocity": 94,
      "chip": "ym2612"
    },
    {
      "channel": 0,
      "note": 50,
      "start": 44.6088,
      "duration": 0.1353,
      "velocity": 94,
      "chip": "ym2612"
    },
    {
      "channel": 1,
      "note": 64,
      "start": 44.6109,
      "duration": 0.1609,
      "velocity": 127,
      "chip": "ym2612"
    },
    {
      "channel": 2,
      "note": 43,
      "start": 44.6117,
      "duration": 0.1332,
      "velocity": 94,
      "chip": "ym2612"
    },
    {
      "channel": 3,
      "note": 26,
      "start": 44.6136,
      "duration": 0.1329,
      "velocity": 107,
      "chip": "ym2612"
    },
    {
      "channel": 4,
      "note": 107,
      "start": 44.6143,
      "duration": 0.0512,
      "velocity": 124,
      "chip": "ym2612"
    },
    {
      "channel": 0,
      "note": 52,
      "start": 44.7713,
      "duration": 0.1323,
      "velocity": 94,
      "chip": "ym2612"
    },
    {
      "channel": 1,
      "note": 64,
      "start": 44.772,
      "duration": 0.1606,
      "velocity": 123,
      "chip": "ym2612"
    },
    {
      "channel": 2,
      "note": 45,
      "start": 44.7728,
      "duration": 0.1317,
      "velocity": 94,
      "chip": "ym2612"
    },
    {
      "channel": 3,
      "note": 26,
      "start": 44.7748,
      "duration": 0.2945,
      "velocity": 107,
      "chip": "ym2612"
    },
    {
      "channel": 4,
      "note": 107,
      "start": 44.7754,
      "duration": 0.0497,
      "velocity": 124,
      "chip": "ym2612"
    },
    {
      "channel": 5,
      "note": 50,
      "start": 44.8534,
      "duration": 0.1351,
      "velocity": 94,
      "chip": "ym2612"
    },
    {
      "channel": 1,
      "note": 57,
      "start": 44.9328,
      "duration": 0.1624,
      "velocity": 127,
      "chip": "ym2612"
    },
    {
      "channel": 4,
      "note": 107,
      "start": 44.9363,
      "duration": 0.2951,
      "velocity": 124,
      "chip": "ym2612"
    },
    {
      "channel": 5,
      "note": 52,
      "start": 45.0153,
      "duration": 0.1352,
      "velocity": 94,
      "chip": "ym2612"
    },
    {
      "channel": 0,
      "note": 53,
      "start": 45.0934,
      "duration": 0.1353,
      "velocity": 94,
      "chip": "ym2612"
    },
    {
      "channel": 1,
      "note": 64,
      "start": 45.0955,
      "duration": 0.1622,
      "velocity": 123,
      "chip": "ym2612"
    },
    {
      "channel": 2,
      "note": 46,
      "start": 45.0963,
      "duration": 0.1332,
      "velocity": 94,
      "chip": "ym2612"
    },
    {
      "channel": 3,
      "note": 26,
      "start": 45.0982,
      "duration": 0.2955,
      "velocity": 107,
      "chip": "ym2612"
    },
    {
      "channel": 1,
      "note": 57,
      "start": 45.258,
      "duration": 0.1629,
      "velocity": 127,
      "chip": "ym2612"
    },
    {
      "channel": 4,
      "note": 107,
      "start": 45.2608,
      "duration": 0.0518,
      "velocity": 124,
      "chip": "ym2612"
    },
    {
      "channel": 5,
      "note": 53,
      "start": 45.3403,
      "duration": 0.1352,
      "velocity": 94,
      "chip": "ym2612"
    },
    {
      "channel": 0,
      "note": 53,
      "start": 45.419,
      "duration": 0.1347,
      "velocity": 94,
      "chip": "ym2612"
    },
    {
      "channel": 1,
      "note": 64,
      "start": 45.4211,
      "duration": 0.1603,
      "velocity": 127,
      "chip": "ym2612"
    },
    {
      "channel": 2,
      "note": 46,
      "start": 45.4219,
      "duration": 0.1326,
      "velocity": 94,
      "chip": "ym2612"
    },
    {
      "channel": 3,
      "note": 26,
      "start": 45.4238,
      "duration": 0.1324,
      "velocity": 107,
      "chip": "ym2612"
    },
    {
      "channel": 4,
      "note": 107,
      "start": 45.4245,
      "duration": 0.0507,
      "velocity": 124,
      "chip": "ym2612"
    },
    {
      "channel": 0,
      "note": 52,
      "start": 45.581,
      "duration": 0.1351,
      "velocity": 94,
      "chip": "ym2612"
    },
    {
      "channel": 1,
      "note": 64,
      "start": 45.5816,
      "duration": 0.1635,
      "velocity": 123,
      "chip": "ym2612"
    },
    {
      "channel": 2,
      "note": 45,
      "start": 45.5824,
      "duration": 0.1346,
      "velocity": 94,
      "chip": "ym2612"
    },
    {
      "channel": 3,
      "note": 26,
      "start": 45.5844,
      "duration": 0.2938,
      "velocity": 107,
      "chip": "ym2612"
    },
    {
      "channel": 4,
      "note": 107,
      "start": 45.5857,
      "duration": 0.2929,
      "velocity": 124,
      "chip": "ym2612"
    },
    {
      "channel": 5,
      "note": 53,
      "start": 45.6652,
      "duration": 0.1324,
      "velocity": 94,
      "chip": "ym2612"
    },
    {
      "channel": 1,
      "note": 57,
      "start": 45.7453,
      "duration": 0.1596,
      "velocity": 127,
      "chip": "ym2612"
    },
    {
      "channel": 5,
      "note": 52,
      "start": 45.8248,
      "duration": 0.1352,
      "velocity": 94,
      "chip": "ym2612"
    },
    {
      "channel": 0,
      "note": 53,
      "start": 45.9031,
      "duration": 0.2976,
      "velocity": 94,
      "chip": "ym2612"
    },
    {
      "channel": 1,
      "note": 64,
      "start": 45.9051,
      "duration": 0.1619,
      "velocity": 127,
      "chip": "ym2612"
    },
    {
      "channel": 2,
      "note": 46,
      "start": 45.9059,
      "duration": 0.2963,
      "velocity": 94,
      "chip": "ym2612"
    },
    {
      "channel": 3,
      "note": 26,
      "start": 45.9078,
      "duration": 0.2961,
      "velocity": 107,
      "chip": "ym2612"
    },
    {
      "channel": 4,
      "note": 107,
      "start": 45.9086,
      "duration": 0.0511,
      "velocity": 124,
      "chip": "ym2612"
    },
    {
      "channel": 1,
      "note": 59,
      "start": 46.0673,
      "duration": 0.1611,
      "velocity": 127,
      "chip": "ym2612"
    },
    {
      "channel": 4,
      "note": 107,
      "start": 46.0706,
      "duration": 0.0516,
      "velocity": 124,
      "chip": "ym2612"
    },
    {
      "channel": 5,
      "note": 53,
      "start": 46.1498,
      "duration": 0.2949,
      "velocity": 94,
      "chip": "ym2612"
    },
    {
      "channel": 0,
      "note": 54,
      "start": 46.228,
      "duration": 0.2947,
      "velocity": 94,
      "chip": "ym2612"
    },
    {
      "channel": 1,
      "note": 59,
      "start": 46.2287,
      "duration": 0.1618,
      "velocity": 127,
      "chip": "ym2612"
    },
    {
      "channel": 2,
      "note": 47,
      "start": 46.2294,
      "duration": 0.2942,
      "velocity": 94,
      "chip": "ym2612"
    },
    {
      "channel": 3,
      "note": 25,
      "start": 46.2314,
      "duration": 0.2938,
      "velocity": 107,
      "chip": "ym2612"
    },
    {
      "channel": 4,
      "note": 107,
      "start": 46.2321,
      "duration": 0.2935,
      "velocity": 124,
      "chip": "ym2612"
    },
    {
      "channel": 1,
      "note": 59,
      "start": 46.3908,
      "duration": 0.1619,
      "velocity": 127,
      "chip": "ym2612"
    },
    {
      "channel": 5,
      "note": 54,
      "start": 46.4721,
      "duration": 0.2982,
      "velocity": 94,
      "chip": "ym2612"
    },
    {
      "channel": 0,
      "note": 55,
      "start": 46.5501,
      "duration": 0.1356,
      "velocity": 94,
      "chip": "ym2612"
    },
    {
      "channel": 1,
      "note": 64,
      "start": 46.5529,
      "duration": 0.1614,
      "velocity": 123,
      "chip": "ym2612"
    },
    {
      "channel": 2,
      "note": 48,
      "start": 46.5536,
      "duration": 0.1329,
      "velocity": 94,
      "chip": "ym2612"
    },
    {
      "channel": 3,
      "note": 24,
      "start": 46.5555,
      "duration": 0.2947,
      "velocity": 107,
      "chip": "ym2612"
    },
    {
      "channel": 4,
      "note": 107,
      "start": 46.5564,
      "duration": 0.0504,
      "velocity": 124,
      "chip": "ym2612"
    },
    {
      "channel": 1,
      "note": 57,
      "start": 46.7144,
      "duration": 0.1609,
      "velocity": 123,
      "chip": "ym2612"
    },
    {
      "channel": 4,
      "note": 107,
      "start": 46.7172,
      "duration": 0.0527,
      "velocity": 124,
      "chip": "ym2612"
    },
    {
      "channel": 5,
      "note": 55,
      "start": 46.7969,
      "duration": 0.1351,
      "velocity": 94,
      "chip": "ym2612"
    },
    {
      "channel": 1,
      "note": 57,
      "start": 46.8755,
      "duration": 0.1622,
      "velocity": 123,
      "chip": "ym2612"
    },
    {
      "channel": 4,
      "note": 107,
      "start": 46.8785,
      "duration": 0.2941,
      "velocity": 124,
      "chip": "ym2612"
    },
    {
      "channel": 1,
      "note": 57,
      "start": 47.038,
      "duration": 0.161,
      "velocity": 127,
      "chip": "ym2612"
    },
    {
      "channel": 0,
      "note": 55,
      "start": 47.1971,
      "duration": 0.1352,
      "velocity": 94,
      "chip": "ym2612"
    },
    {
      "channel": 1,
      "note": 64,
      "start": 47.1993,
      "duration": 0.1621,
      "velocity": 123,
      "chip": "ym2612"
    },
    {
      "channel": 2,
      "note": 48,
      "start": 47.2,
      "duration": 0.1332,
      "velocity": 94,
      "chip": "ym2612"
    },
    {
      "channel": 3,
      "note": 24,
      "start": 47.2025,
      "duration": 0.2947,
      "velocity": 107,
      "chip": "ym2612"
    },
    {
      "channel": 4,
      "note": 107,
      "start": 47.2034,
      "duration": 0.0511,
      "velocity": 124,
      "chip": "ym2612"
    },
    {
      "channel": 1,
      "note": 57,
      "start": 47.3615,
      "duration": 0.1607,
      "velocity": 123,
      "chip": "ym2612"
    },
    {
      "channel": 4,
      "note": 107,
      "start": 47.3643,
      "duration": 0.0519,
      "velocity": 124,
      "chip": "ym2612"
    },
    {
      "channel": 5,
      "note": 55,
      "start": 47.4438,
      "duration": 0.1323,
      "velocity": 94,
      "chip": "ym2612"
    },
    {
      "channel": 1,
      "note": 57,
      "start": 47.5225,
      "duration": 0.161,
      "velocity": 127,
      "chip": "ym2612"
    },
    {
      "channel": 4,
      "note": 107,
      "start": 47.5255,
      "duration": 0.2948,
      "velocity": 124,
      "chip": "ym2612"
    },
    {
      "channel": 0,
      "note": 57,
      "start": 47.6817,
      "duration": 0.1352,
      "velocity": 94,
      "chip": "ym2612"
    },
    {
      "channel": 1,
      "note": 64,
      "start": 47.6838,
      "duration": 0.1622,
      "velocity": 123,
      "chip": "ym2612"
    },
    {
      "channel": 2,
      "note": 50,
      "start": 47.6852,
      "duration": 0.1326,
      "velocity": 94,
      "chip": "ym2612"
    },
    {
      "channel": 3,
      "note": 24,
      "start": 47.6871,
      "duration": 0.2949,
      "velocity": 107,
      "chip": "ym2612"
    },
    {
      "channel": 1,
      "note": 57,
      "start": 47.8461,
      "duration": 0.1624,
      "velocity": 127,
      "chip": "ym2612"
    },
    {
      "channel": 4,
      "note": 107,
      "start": 47.849,
      "duration": 0.0519,
      "velocity": 124,
      "chip": "ym2612"
    },
    {
      "channel": 5,
      "note": 57,
      "start": 47.9286,
      "duration": 0.1352,
      "velocity": 94,
      "chip": "ym2612"
    },
    {
      "channel": 0,
      "note": 57,
      "start": 48.0066,
      "duration": 0.1352,
      "velocity": 94,
      "chip": "ym2612"
    },
    {
      "channel": 1,
      "note": 64,
      "start": 48.0087,
      "duration": 0.1609,
      "velocity": 127,
      "chip": "ym2612"
    },
    {
      "channel": 2,
      "note": 50,
      "start": 48.0095,
      "duration": 0.1333,
      "velocity": 94,
      "chip": "ym2612"
    },
    {
      "channel": 3,
      "note": 24,
      "start": 48.0114,
      "duration": 0.1332,
      "velocity": 107,
      "chip": "ym2612"
    },
    {
      "channel": 4,
      "note": 107,
      "start": 48.0121,
      "duration": 0.0513,
      "velocity": 124,
      "chip": "ym2612"
    },
    {
      "channel": 0,
      "note": 57,
      "start": 48.1692,
      "duration": 0.1352,
      "velocity": 94,
      "chip": "ym2612"
    },
    {
      "channel": 1,
      "note": 64,
      "start": 48.1698,
      "duration": 0.1635,
      "velocity": 123,
      "chip": "ym2612"
    },
    {
      "channel": 2,
      "note": 50,
      "start": 48.1705,
      "duration": 0.1346,
      "velocity": 94,
      "chip": "ym2612"
    },
    {
      "channel": 3,
      "note": 24,
      "start": 48.1725,
      "duration": 0.2975,
      "velocity": 107,
      "chip": "ym2612"
    },
    {
      "channel": 4,
      "note": 107,
      "start": 48.1732,
      "duration": 0.2971,
      "velocity": 124,
      "chip": "ym2612"
    },
    {
      "channel": 5,
      "note": 57,
      "start": 48.2541,
      "duration": 0.1345,
      "velocity": 94,
      "chip": "ym2612"
    },
    {
      "channel": 1,
      "note": 57,
      "start": 48.3335,
      "duration": 0.1624,
      "velocity": 127,
      "chip": "ym2612"
    },
    {
      "channel": 5,
      "note": 57,
      "start": 48.416,
      "duration": 0.1359,
      "velocity": 94,
      "chip": "ym2612"
    },
    {
      "channel": 0,
      "note": 57,
      "start": 48.4941,
      "duration": 0.1352,
      "velocity": 94,
      "chip": "ym2612"
    },
    {
      "channel": 1,
      "note": 64,
      "start": 48.4962,
      "duration": 0.1622,
      "velocity": 123,
      "chip": "ym2612"
    },
    {
      "channel": 2,
      "note": 50,
      "start": 48.497,
      "duration": 0.1332,
      "velocity": 94,
      "chip": "ym2612"
    },
    {
      "channel": 3,
      "note": 24,
      "start": 48.4989,
      "duration": 0.2926,
      "velocity": 107,
      "chip": "ym2612"
    },
    {
      "channel": 4,
      "note": 107,
      "start": 48.4996,
      "duration": 0.0512,
      "velocity": 124,
      "chip": "ym2612"
    },
    {
      "channel": 1,
      "note": 57,
      "start": 48.6585,
      "duration": 0.158,
      "velocity": 123,
      "chip": "ym2612"
    },
    {
      "channel": 4,
      "note": 107,
      "start": 48.6613,
      "duration": 0.0491,
      "velocity": 124,
      "chip": "ym2612"
    },
    {
      "channel": 5,
      "note": 57,
      "start": 48.7387,
      "duration": 0.1345,
      "velocity": 94,
      "chip": "ym2612"
    },
    {
      "channel": 1,
      "note": 57,
      "start": 48.8167,
      "duration": 0.1622,
      "velocity": 123,
      "chip": "ym2612"
    },
    {
      "channel": 4,
      "note": 107,
      "start": 48.8203,
      "duration": 0.2935,
      "velocity": 124,
      "chip": "ym2612"
    },
    {
      "channel": 1,
      "note": 57,
      "start": 48.9791,
      "duration": 0.1595,
      "velocity": 123,
      "chip": "ym2612"
    },
    {
      "channel": 1,
      "note": 57,
      "start": 49.1389,
      "duration": 0.162,
      "velocity": 123,
      "chip": "ym2612"
    },
    {
      "channel": 4,
      "note": 107,
      "start": 49.1419,
      "duration": 0.0531,
      "velocity": 124,
      "chip": "ym2612"
    },
    {
      "channel": 1,
      "note": 57,
      "start": 49.3018,
      "duration": 0.1604,
      "velocity": 127,
      "chip": "ym2612"
    },
    {
      "channel": 4,
      "note": 107,
      "start": 49.3047,
      "duration": 0.0502,
      "velocity": 124,
      "chip": "ym2612"
    },
    {
      "channel": 0,
      "note": 55,
      "start": 49.4602,
      "duration": 0.1352,
      "velocity": 94,
      "chip": "ym2612"
    },
    {
      "channel": 1,
      "note": 64,
      "start": 49.4623,
      "duration": 0.1622,
      "velocity": 123,
      "chip": "ym2612"
    },
    {
      "channel": 2,
      "note": 48,
      "start": 49.4631,
      "duration": 0.1332,
      "velocity": 94,
      "chip": "ym2612"
    },
    {
      "channel": 3,
      "note": 24,
      "start": 49.465,
      "duration": 0.2954,
      "velocity": 107,
      "chip": "ym2612"
    },
    {
      "channel": 4,
      "note": 107,
      "start": 49.4657,
      "duration": 0.2951,
      "velocity": 124,
      "chip": "ym2612"
    },
    {
      "channel": 1,
      "note": 57,
      "start": 49.6247,
      "duration": 0.1628,
      "velocity": 127,
      "chip": "ym2612"
    },
    {
      "channel": 5,
      "note": 55,
      "start": 49.7071,
      "duration": 0.1352,
      "velocity": 94,
      "chip": "ym2612"
    },
    {
      "channel": 0,
      "note": 55,
      "start": 49.7856,
      "duration": 0.1348,
      "velocity": 94,
      "chip": "ym2612"
    },
    {
      "channel": 1,
      "note": 64,
      "start": 49.7877,
      "duration": 0.1605,
      "velocity": 127,
      "chip": "ym2612"
    },
    {
      "channel": 2,
      "note": 48,
      "start": 49.7885,
      "duration": 0.1328,
      "velocity": 94,
      "chip": "ym2612"
    },
    {
      "channel": 3,
      "note": 24,
      "start": 49.7904,
      "duration": 0.1325,
      "velocity": 107,
      "chip": "ym2612"
    },
    {
      "channel": 4,
      "note": 107,
      "start": 49.7912,
      "duration": 0.0508,
      "velocity": 124,
      "chip": "ym2612"
    },
    {
      "channel": 0,
      "note": 57,
      "start": 49.9478,
      "duration": 0.1322,
      "velocity": 94,
      "chip": "ym2612"
    },
    {
      "channel": 1,
      "note": 64,
      "start": 49.9485,
      "duration": 0.1606,
      "velocity": 123,
      "chip": "ym2612"
    },
    {
      "channel": 2,
      "note": 50,
      "start": 49.9492,
      "duration": 0.1317,
      "velocity": 94,
      "chip": "ym2612"
    },
    {
      "channel": 3,
      "note": 24,
      "start": 49.9518,
      "duration": 0.2931,
      "velocity": 107,
      "chip": "ym2612"
    },
    {
      "channel": 4,
      "note": 107,
      "start": 49.9524,
      "duration": 0.0498,
      "velocity": 124,
      "chip": "ym2612"
    },
    {
      "channel": 5,
      "note": 55,
      "start": 50.0291,
      "duration": 0.1351,
      "velocity": 94,
      "chip": "ym2612"
    },
    {
      "channel": 1,
      "note": 57,
      "start": 50.1092,
      "duration": 0.1624,
      "velocity": 127,
      "chip": "ym2612"
    },
    {
      "channel": 4,
      "note": 107,
      "start": 50.1121,
      "duration": 0.2957,
      "velocity": 124,
      "chip": "ym2612"
    },
    {
      "channel": 5,
      "note": 57,
      "start": 50.1916,
      "duration": 0.1352,
      "velocity": 94,
      "chip": "ym2612"
    },
    {
      "channel": 0,
      "note": 58,
      "start": 50.2697,
      "duration": 0.1352,
      "velocity": 94,
      "chip": "ym2612"
    },
    {
      "channel": 1,
      "note": 64,
      "start": 50.2718,
      "duration": 0.1622,
      "velocity": 123,
      "chip": "ym2612"
    },
    {
      "channel": 2,
      "note": 51,
      "start": 50.2726,
      "duration": 0.1333,
      "velocity": 94,
      "chip": "ym2612"
    },
    {
      "channel": 3,
      "note": 24,
      "start": 50.2745,
      "duration": 0.2961,
      "velocity": 107,
      "chip": "ym2612"
    },
    {
      "channel": 1,
      "note": 57,
      "start": 50.4342,
      "duration": 0.1624,
      "velocity": 127,
      "chip": "ym2612"
    },
    {
      "channel": 4,
      "note": 107,
      "start": 50.4377,
      "duration": 0.0513,
      "velocity": 124,
      "chip": "ym2612"
    },
    {
      "channel": 5,
      "note": 58,
      "start": 50.5166,
      "duration": 0.1359,
      "velocity": 94,
      "chip": "ym2612"
    },
    {
      "channel": 0,
      "note": 58,
      "start": 50.5948,
      "duration": 0.1352,
      "velocity": 94,
      "chip": "ym2612"
    },
    {
      "channel": 1,
      "note": 64,
      "start": 50.5969,
      "duration": 0.1609,
      "velocity": 127,
      "chip": "ym2612"
    },
    {
      "channel": 2,
      "note": 51,
      "start": 50.5976,
      "duration": 0.1332,
      "velocity": 94,
      "chip": "ym2612"
    },
    {
      "channel": 3,
      "note": 24,
      "start": 50.5996,
      "duration": 0.1329,
      "velocity": 107,
      "chip": "ym2612"
    },
    {
      "channel": 4,
      "note": 107,
      "start": 50.6002,
      "duration": 0.0519,
      "velocity": 124,
      "chip": "ym2612"
    },
    {
      "channel": 0,
      "note": 57,
      "start": 50.7573,
      "duration": 0.1323,
      "velocity": 94,
      "chip": "ym2612"
    },
    {
      "channel": 1,
      "note": 64,
      "start": 50.758,
      "duration": 0.1612,
      "velocity": 123,
      "chip": "ym2612"
    },
    {
      "channel": 2,
      "note": 50,
      "start": 50.7587,
      "duration": 0.1317,
      "velocity": 94,
      "chip": "ym2612"
    },
    {
      "channel": 3,
      "note": 24,
      "start": 50.7606,
      "duration": 0.2941,
      "velocity": 107,
      "chip": "ym2612"
    },
    {
      "channel": 4,
      "note": 107,
      "start": 50.7613,
      "duration": 0.2938,
      "velocity": 124,
      "chip": "ym2612"
    },
    {
      "channel": 5,
      "note": 58,
      "start": 50.8389,
      "duration": 0.1351,
      "velocity": 94,
      "chip": "ym2612"
    },
    {
      "channel": 1,
      "note": 57,
      "start": 50.9195,
      "duration": 0.1619,
      "velocity": 127,
      "chip": "ym2612"
    },
    {
      "channel": 5,
      "note": 57,
      "start": 51.0019,
      "duration": 0.1353,
      "velocity": 94,
      "chip": "ym2612"
    },
    {
      "channel": 0,
      "note": 58,
      "start": 51.0795,
      "duration": 0.2976,
      "velocity": 94,
      "chip": "ym2612"
    },
    {
      "channel": 1,
      "note": 64,
      "start": 51.0816,
      "duration": 0.162,
      "velocity": 127,
      "chip": "ym2612"
    },
    {
      "channel": 2,
      "note": 51,
      "start": 51.0823,
      "duration": 0.2956,
      "velocity": 94,
      "chip": "ym2612"
    },
    {
      "channel": 3,
      "note": 24,
      "start": 51.0842,
      "duration": 0.2953,
      "velocity": 107,
      "chip": "ym2612"
    },
    {
      "channel": 4,
      "note": 107,
      "start": 51.0857,
      "duration": 0.0511,
      "velocity": 124,
      "chip": "ym2612"
    },
    {
      "channel": 1,
      "note": 59,
      "start": 51.2437,
      "duration": 0.1611,
      "velocity": 127,
      "chip": "ym2612"
    },
    {
      "channel": 4,
      "note": 107,
      "start": 51.2464,
      "duration": 0.0522,
      "velocity": 124,
      "chip": "ym2612"
    },
    {
      "channel": 5,
      "note": 58,
      "start": 51.3262,
      "duration": 0.2954,
      "velocity": 94,
      "chip": "ym2612"
    },
    {
      "channel": 0,
      "note": 60,
      "start": 51.4043,
      "duration": 0.2948,
      "velocity": 94,
      "chip": "ym2612"
    },
    {
      "channel": 1,
      "note": 59,
      "start": 51.405,
      "duration": 0.159,
      "velocity": 127,
      "chip": "ym2612"
    },
    {
      "channel": 2,
      "note": 53,
      "start": 51.4057,
      "duration": 0.2942,
      "velocity": 94,
      "chip": "ym2612"
    },
    {
      "channel": 3,
      "note": 22,
      "start": 51.4077,
      "duration": 0.2945,
      "velocity": 107,
      "chip": "ym2612"
    },
    {
      "channel": 4,
      "note": 107,
      "start": 51.4084,
      "duration": 0.2942,
      "velocity": 124,
      "chip": "ym2612"
    },
    {
      "channel": 1,
      "note": 59,
      "start": 51.5643,
      "duration": 0.1641,
      "velocity": 127,
      "chip": "ym2612"
    },
    {
      "channel": 5,
      "note": 60,
      "start": 51.6482,
      "duration": 0.2977,
      "velocity": 94,
      "chip": "ym2612"
    },
    {
      "channel": 0,
      "note": 62,
      "start": 51.7265,
      "duration": 0.1353,
      "velocity": 94,
      "chip": "ym2612"
    },
    {
      "channel": 1,
      "note": 64,
      "start": 51.7286,
      "duration": 0.162,
      "velocity": 123,
      "chip": "ym2612"
    },
    {
      "channel": 2,
      "note": 55,
      "start": 51.7295,
      "duration": 0.1332,
      "velocity": 94,
      "chip": "ym2612"
    },
    {
      "channel": 3,
      "note": 21,
      "start": 51.7333,
      "duration": 0.5882,
      "velocity": 107,
      "chip": "ym2612"
    },
    {
      "channel": 4,
      "note": 35,
      "start": 51.7366,
      "duration": 0.2903,
      "velocity": 123,
      "chip": "ym2612"
    },
    {
      "channel": 1,
      "note": 57,
      "start": 51.8909,
      "duration": 0.1614,
      "velocity": 123,
      "chip": "ym2612"
    },
    {
      "channel": 5,
      "note": 62,
      "start": 51.9733,
      "duration": 0.1322,
      "velocity": 94,
      "chip": "ym2612"
    },
    {
      "channel": 1,
      "note": 57,
      "start": 52.0525,
      "duration": 0.1587,
      "velocity": 123,
      "chip": "ym2612"
    },
    {
      "channel": 4,
      "note": 35,
      "start": 52.0553,
      "duration": 0.2937,
      "velocity": 123,
      "chip": "ym2612"
    },
    {
      "channel": 1,
      "note": 57,
      "start": 52.2115,
      "duration": 0.1639,
      "velocity": 127,
      "chip": "ym2612"
    },
    {
      "channel": 0,
      "note": 62,
      "start": 52.3734,
      "duration": 0.1352,
      "velocity": 94,
      "chip": "ym2612"
    },
    {
      "channel": 1,
      "note": 59,
      "start": 52.3756,
      "duration": 0.162,
      "velocity": 123,
      "chip": "ym2612"
    },
    {
      "channel": 2,
      "note": 55,
      "start": 52.3763,
      "duration": 0.1331,
      "velocity": 94,
      "chip": "ym2612"
    },
    {
      "channel": 3,
      "note": 21,
      "start": 52.3783,
      "duration": 0.591,
      "velocity": 107,
      "chip": "ym2612"
    },
    {
      "channel": 4,
      "note": 35,
      "start": 52.379,
      "duration": 0.0512,
      "velocity": 123,
      "chip": "ym2612"
    },
    {
      "channel": 1,
      "note": 57,
      "start": 52.5378,
      "duration": 0.1579,
      "velocity": 123,
      "chip": "ym2612"
    },
    {
      "channel": 4,
      "note": 35,
      "start": 52.5407,
      "duration": 0.131,
      "velocity": 123,
      "chip": "ym2612"
    },
    {
      "channel": 5,
      "note": 62,
      "start": 52.6174,
      "duration": 0.1358,
      "velocity": 94,
      "chip": "ym2612"
    },
    {
      "channel": 1,
      "note": 57,
      "start": 52.696,
      "duration": 0.1638,
      "velocity": 127,
      "chip": "ym2612"
    },
    {
      "channel": 4,
      "note": 35,
      "start": 52.6988,
      "duration": 0.054,
      "velocity": 123,
      "chip": "ym2612"
    },
    {
      "channel": 0,
      "note": 63,
      "start": 52.858,
      "duration": 0.1352,
      "velocity": 94,
      "chip": "ym2612"
    },
    {
      "channel": 1,
      "note": 64,
      "start": 52.86,
      "duration": 0.1621,
      "velocity": 123,
      "chip": "ym2612"
    },
    {
      "channel": 2,
      "note": 56,
      "start": 52.8608,
      "duration": 0.1332,
      "velocity": 94,
      "chip": "ym2612"
    },
    {
      "channel": 4,
      "note": 35,
      "start": 52.863,
      "duration": 0.0517,
      "velocity": 123,
      "chip": "ym2612"
    },
    {
      "channel": 1,
      "note": 57,
      "start": 53.0224,
      "duration": 0.1632,
      "velocity": 127,
      "chip": "ym2612"
    },
    {
      "channel": 3,
      "note": 22,
      "start": 53.0249,
      "duration": 0.5907,
      "velocity": 107,
      "chip": "ym2612"
    },
    {
      "channel": 4,
      "note": 35,
      "start": 53.0256,
      "duration": 0.1329,
      "velocity": 123,
      "chip": "ym2612"
    },
    {
      "channel": 5,
      "note": 63,
      "start": 53.1054,
      "duration": 0.1347,
      "velocity": 94,
      "chip": "ym2612"
    },
    {
      "channel": 0,
      "note": 63,
      "start": 53.183,
      "duration": 0.1358,
      "velocity": 94,
      "chip": "ym2612"
    },
    {
      "channel": 1,
      "note": 64,
      "start": 53.1858,
      "duration": 0.1602,
      "velocity": 127,
      "chip": "ym2612"
    },
    {
      "channel": 2,
      "note": 56,
      "start": 53.1865,
      "duration": 0.1331,
      "velocity": 94,
      "chip": "ym2612"
    },
    {
      "channel": 4,
      "note": 35,
      "start": 53.1888,
      "duration": 0.1328,
      "velocity": 123,
      "chip": "ym2612"
    },
    {
      "channel": 0,
      "note": 63,
      "start": 53.3455,
      "duration": 0.1323,
      "velocity": 94,
      "chip": "ym2612"
    },
    {
      "channel": 1,
      "note": 64,
      "start": 53.3462,
      "duration": 0.1606,
      "velocity": 123,
      "chip": "ym2612"
    },
    {
      "channel": 2,
      "note": 56,
      "start": 53.3469,
      "duration": 0.1317,
      "velocity": 94,
      "chip": "ym2612"
    },
    {
      "channel": 4,
      "note": 35,
      "start": 53.3492,
      "duration": 0.0501,
      "velocity": 123,
      "chip": "ym2612"
    },
    {
      "channel": 5,
      "note": 63,
      "start": 53.427,
      "duration": 0.1351,
      "velocity": 94,
      "chip": "ym2612"
    },
    {
      "channel": 1,
      "note": 57,
      "start": 53.507,
      "duration": 0.1631,
      "velocity": 127,
      "chip": "ym2612"
    },
    {
      "channel": 4,
      "note": 35,
      "start": 53.5099,
      "duration": 0.2957,
      "velocity": 123,
      "chip": "ym2612"
    },
    {
      "channel": 5,
      "note": 63,
      "start": 53.5894,
      "duration": 0.1352,
      "velocity": 94,
      "chip": "ym2612"
    },
    {
      "channel": 0,
      "note": 63,
      "start": 53.6675,
      "duration": 0.1352,
      "velocity": 94,
      "chip": "ym2612"
    },
    {
      "channel": 1,
      "note": 59,
      "start": 53.6703,
      "duration": 0.1615,
      "velocity": 123,
      "chip": "ym2612"
    },
    {
      "channel": 2,
      "note": 56,
      "start": 53.6711,
      "duration": 0.1326,
      "velocity": 94,
      "chip": "ym2612"
    },
    {
      "channel": 3,
      "note": 22,
      "start": 53.673,
      "duration": 0.5896,
      "velocity": 107,
      "chip": "ym2612"
    },
    {
      "channel": 1,
      "note": 57,
      "start": 53.832,
      "duration": 0.1609,
      "velocity": 123,
      "chip": "ym2612"
    },
    {
      "channel": 4,
      "note": 35,
      "start": 53.8354,
      "duration": 0.052,
      "velocity": 123,
      "chip": "ym2612"
    },
    {
      "channel": 5,
      "note": 63,
      "start": 53.9144,
      "duration": 0.1323,
      "velocity": 94,
      "chip": "ym2612"
    },
    {
      "channel": 1,
      "note": 57,
      "start": 53.993,
      "duration": 0.1597,
      "velocity": 123,
      "chip": "ym2612"
    },
    {
      "channel": 4,
      "note": 35,
      "start": 53.9959,
      "duration": 0.1318,
      "velocity": 123,
      "chip": "ym2612"
    },
    {
      "channel": 1,
      "note": 57,
      "start": 54.1529,
      "duration": 0.162,
      "velocity": 123,
      "chip": "ym2612"
    },
    {
      "channel": 4,
      "note": 35,
      "start": 54.1557,
      "duration": 0.053,
      "velocity": 123,
      "chip": "ym2612"
    },
    {
      "channel": 1,
      "note": 57,
      "start": 54.3151,
      "duration": 0.1593,
      "velocity": 123,
      "chip": "ym2612"
    },
    {
      "channel": 3,
      "note": 21,
      "start": 54.3177,
      "duration": 0.592,
      "velocity": 107,
      "chip": "ym2612"
    },
    {
      "channel": 4,
      "note": 35,
      "start": 54.319,
      "duration": 0.2931,
      "velocity": 123,
      "chip": "ym2612"
    },
    {
      "channel": 1,
      "note": 57,
      "start": 54.4746,
      "duration": 0.1638,
      "velocity": 127,
      "chip": "ym2612"
    },
    {
      "channel": 0,
      "note": 62,
      "start": 54.6366,
      "duration": 0.1352,
      "velocity": 94,
      "chip": "ym2612"
    },
    {
      "channel": 1,
      "note": 64,
      "start": 54.6387,
      "duration": 0.1622,
      "velocity": 123,
      "chip": "ym2612"
    },
    {
      "channel": 2,
      "note": 55,
      "start": 54.6395,
      "duration": 0.1332,
      "velocity": 94,
      "chip": "ym2612"
    },
    {
      "channel": 4,
      "note": 35,
      "start": 54.6417,
      "duration": 0.2961,
      "velocity": 123,
      "chip": "ym2612"
    },
    {
      "channel": 1,
      "note": 57,
      "start": 54.8013,
      "duration": 0.1622,
      "velocity": 127,
      "chip": "ym2612"
    },
    {
      "channel": 5,
      "note": 62,
      "start": 54.8835,
      "duration": 0.1361,
      "velocity": 94,
      "chip": "ym2612"
    },
    {
      "channel": 0,
      "note": 62,
      "start": 54.9617,
      "duration": 0.1352,
      "velocity": 94,
      "chip": "ym2612"
    },
    {
      "channel": 1,
      "note": 59,
      "start": 54.9637,
      "duration": 0.1623,
      "velocity": 127,
      "chip": "ym2612"
    },
    {
      "channel": 2,
      "note": 55,
      "start": 54.9645,
      "duration": 0.1332,
      "velocity": 94,
      "chip": "ym2612"
    },
    {
      "channel": 3,
      "note": 21,
      "start": 54.9667,
      "duration": 0.59,
      "velocity": 107,
      "chip": "ym2612"
    },
    {
      "channel": 4,
      "note": 35,
      "start": 54.9674,
      "duration": 0.0518,
      "velocity": 123,
      "chip": "ym2612"
    },
    {
      "channel": 0,
      "note": 62,
      "start": 55.1241,
      "duration": 0.1353,
      "velocity": 94,
      "chip": "ym2612"
    },
    {
      "channel": 1,
      "note": 64,
      "start": 55.1262,
      "duration": 0.1622,
      "velocity": 123,
      "chip": "ym2612"
    },
    {
      "channel": 2,
      "note": 55,
      "start": 55.127,
      "duration": 0.1333,
      "velocity": 94,
      "chip": "ym2612"
    },
    {
      "channel": 4,
      "note": 35,
      "start": 55.1293,
      "duration": 0.1329,
      "velocity": 123,
      "chip": "ym2612"
    },
    {
      "channel": 5,
      "note": 62,
      "start": 55.2087,
      "duration": 0.1322,
      "velocity": 94,
      "chip": "ym2612"
    },
    {
      "channel": 1,
      "note": 57,
      "start": 55.2886,
      "duration": 0.1595,
      "velocity": 127,
      "chip": "ym2612"
    },
    {
      "channel": 4,
      "note": 35,
      "start": 55.2914,
      "duration": 0.049,
      "velocity": 123,
      "chip": "ym2612"
    },
    {
      "channel": 5,
      "note": 62,
      "start": 55.3688,
      "duration": 0.1352,
      "velocity": 94,
      "chip": "ym2612"
    },
    {
      "channel": 0,
      "note": 63,
      "start": 55.4463,
      "duration": 0.1352,
      "velocity": 94,
      "chip": "ym2612"
    },
    {
      "channel": 1,
      "note": 64,
      "start": 55.4483,
      "duration": 0.1622,
      "velocity": 123,
      "chip": "ym2612"
    },
    {
      "channel": 2,
      "note": 56,
      "start": 55.4491,
      "duration": 0.1332,
      "velocity": 94,
      "chip": "ym2612"
    },
    {
      "channel": 4,
      "note": 35,
      "start": 55.452,
      "duration": 0.0517,
      "velocity": 123,
      "chip": "ym2612"
    },
    {
      "channel": 1,
      "note": 57,
      "start": 55.6107,
      "duration": 0.1624,
      "velocity": 127,
      "chip": "ym2612"
    },
    {
      "channel": 3,
      "note": 22,
      "start": 55.6132,
      "duration": 0.5935,
      "velocity": 107,
      "chip": "ym2612"
    },
    {
      "channel": 4,
      "note": 35,
      "start": 55.6139,
      "duration": 0.1329,
      "velocity": 123,
      "chip": "ym2612"
    },
    {
      "channel": 5,
      "note": 63,
      "start": 55.6931,
      "duration": 0.1352,
      "velocity": 94,
      "chip": "ym2612"
    },
    {
      "channel": 0,
      "note": 63,
      "start": 55.7712,
      "duration": 0.1352,
      "velocity": 94,
      "chip": "ym2612"
    },
    {
      "channel": 1,
      "note": 64,
      "start": 55.7734,
      "duration": 0.1609,
      "velocity": 127,
      "chip": "ym2612"
    },
    {
      "channel": 2,
      "note": 56,
      "start": 55.7741,
      "duration": 0.1333,
      "velocity": 94,
      "chip": "ym2612"
    },
    {
      "channel": 4,
      "note": 35,
      "start": 55.7763,
      "duration": 0.1329,
      "velocity": 123,
      "chip": "ym2612"
    },
    {
      "channel": 0,
      "note": 62,
      "start": 55.9338,
      "duration": 0.1352,
      "velocity": 94,
      "chip": "ym2612"
    },
    {
      "channel": 1,
      "note": 64,
      "start": 55.9351,
      "duration": 0.1628,
      "velocity": 123,
      "chip": "ym2612"
    },
    {
      "channel": 2,
      "note": 55,
      "start": 55.9358,
      "duration": 0.134,
      "velocity": 94,
      "chip": "ym2612"
    },
    {
      "channel": 4,
      "note": 35,
      "start": 55.9382,
      "duration": 0.0523,
      "velocity": 123,
      "chip": "ym2612"
    },
    {
      "channel": 5,
      "note": 63,
      "start": 56.0187,
      "duration": 0.1352,
      "velocity": 94,
      "chip": "ym2612"
    },
    {
      "channel": 1,
      "note": 57,
      "start": 56.0982,
      "duration": 0.1625,
      "velocity": 127,
      "chip": "ym2612"
    },
    {
      "channel": 4,
      "note": 35,
      "start": 56.1011,
      "duration": 0.2956,
      "velocity": 123,
      "chip": "ym2612"
    },
    {
      "channel": 5,
      "note": 62,
      "start": 56.1806,
      "duration": 0.1352,
      "velocity": 94,
      "chip": "ym2612"
    },
    {
      "channel": 0,
      "note": 63,
      "start": 56.2587,
      "duration": 0.2948,
      "velocity": 94,
      "chip": "ym2612"
    },
    {
      "channel": 1,
      "note": 59,
      "start": 56.2609,
      "duration": 0.1619,
      "velocity": 127,
      "chip": "ym2612"
    },
    {
      "channel": 2,
      "note": 56,
      "start": 56.2617,
      "duration": 0.2927,
      "velocity": 94,
      "chip": "ym2612"
    },
    {
      "channel": 3,
      "note": 22,
      "start": 56.2636,
      "duration": 0.5908,
      "velocity": 107,
      "chip": "ym2612"
    },
    {
      "channel": 1,
      "note": 64,
      "start": 56.423,
      "duration": 0.1597,
      "velocity": 127,
      "chip": "ym2612"
    },
    {
      "channel": 4,
      "note": 35,
      "start": 56.4257,
      "duration": 0.0494,
      "velocity": 123,
      "chip": "ym2612"
    },
    {
      "channel": 5,
      "note": 63,
      "start": 56.5033,
      "duration": 0.2971,
      "velocity": 94,
      "chip": "ym2612"
    },
    {
      "channel": 0,
      "note": 65,
      "start": 56.5809,
      "duration": 0.2976,
      "velocity": 94,
      "chip": "ym2612"
    },
    {
      "channel": 1,
      "note": 59,
      "start": 56.5829,
      "duration": 0.1605,
      "velocity": 127,
      "chip": "ym2612"
    },
    {
      "channel": 2,
      "note": 58,
      "start": 56.5838,
      "duration": 0.2956,
      "velocity": 94,
      "chip": "ym2612"
    },
    {
      "channel": 4,
      "note": 35,
      "start": 56.5868,
      "duration": 0.1327,
      "velocity": 123,
      "chip": "ym2612"
    },
    {
      "channel": 1,
      "note": 59,
      "start": 56.7437,
      "duration": 0.1641,
      "velocity": 127,
      "chip": "ym2612"
    },
    {
      "channel": 4,
      "note": 35,
      "start": 56.7463,
      "duration": 0.0537,
      "velocity": 123,
      "chip": "ym2612"
    },
    {
      "channel": 5,
      "note": 65,
      "start": 56.8276,
      "duration": 0.2978,
      "velocity": 94,
      "chip": "ym2612"
    },
    {
      "channel": 0,
      "note": 62,
      "start": 56.9059,
      "duration": 0.1352,
      "velocity": 94,
      "chip": "ym2612"
    },
    {
      "channel": 1,
      "note": 64,
      "start": 56.908,
      "duration": 0.1627,
      "velocity": 123,
      "chip": "ym2612"
    },
    {
      "channel": 2,
      "note": 55,
      "start": 56.9088,
      "duration": 0.133,
      "velocity": 94,
      "chip": "ym2612"
    },
    {
      "channel": 3,
      "note": 21,
      "start": 56.9108,
      "duration": 0.59,
      "velocity": 107,
      "chip": "ym2612"
    },
    {
      "channel": 4,
      "note": 35,
      "start": 56.9116,
      "duration": 0.2948,
      "velocity": 123,
      "chip": "ym2612"
    },
    {
      "channel": 1,
      "note": 57,
      "start": 57.0708,
      "duration": 0.1602,
      "velocity": 123,
      "chip": "ym2612"
    },
    {
      "channel": 5,
      "note": 62,
      "start": 57.1534,
      "duration": 0.1322,
      "velocity": 94,
      "chip": "ym2612"
    },
    {
      "channel": 1,
      "note": 57,
      "start": 57.2313,
      "duration": 0.1594,
      "velocity": 123,
      "chip": "ym2612"
    },
    {
      "channel": 4,
      "note": 35,
      "start": 57.2341,
      "duration": 0.2943,
      "velocity": 123,
      "chip": "ym2612"
    },
    {
      "channel": 1,
      "note": 57,
      "start": 57.3908,
      "duration": 0.1639,
      "velocity": 127,
      "chip": "ym2612"
    },
    {
      "channel": 0,
      "note": 62,
      "start": 57.5529,
      "duration": 0.1352,
      "velocity": 94,
      "chip": "ym2612"
    },
    {
      "channel": 1,
      "note": 59,
      "start": 57.555,
      "duration": 0.1621,
      "velocity": 123,
      "chip": "ym2612"
    },
    {
      "channel": 2,
      "note": 55,
      "start": 57.5557,
      "duration": 0.1332,
      "velocity": 94,
      "chip": "ym2612"
    },
    {
      "channel": 3,
      "note": 21,
      "start": 57.5576,
      "duration": 0.5903,
      "velocity": 107,
      "chip": "ym2612"
    },
    {
      "channel": 4,
      "note": 35,
      "start": 57.5583,
      "duration": 0.0512,
      "velocity": 123,
      "chip": "ym2612"
    },
    {
      "channel": 1,
      "note": 57,
      "start": 57.7173,
      "duration": 0.1608,
      "velocity": 123,
      "chip": "ym2612"
    },
    {
      "channel": 4,
      "note": 35,
      "start": 57.7208,
      "duration": 0.1333,
      "velocity": 123,
      "chip": "ym2612"
    },
    {
      "channel": 5,
      "note": 62,
      "start": 57.7997,
      "duration": 0.1323,
      "velocity": 94,
      "chip": "ym2612"
    },
    {
      "channel": 1,
      "note": 57,
      "start": 57.8784,
      "duration": 0.161,
      "velocity": 127,
      "chip": "ym2612"
    },
    {
      "channel": 4,
      "note": 35,
      "start": 57.8812,
      "duration": 0.0505,
      "velocity": 123,
      "chip": "ym2612"
    },
    {
      "channel": 0,
      "note": 63,
      "start": 58.0375,
      "duration": 0.1352,
      "velocity": 94,
      "chip": "ym2612"
    },
    {
      "channel": 1,
      "note": 64,
      "start": 58.0395,
      "duration": 0.1629,
      "velocity": 123,
      "chip": "ym2612"
    },
    {
      "channel": 2,
      "note": 56,
      "start": 58.0403,
      "duration": 0.1333,
      "velocity": 94,
      "chip": "ym2612"
    },
    {
      "channel": 4,
      "note": 35,
      "start": 58.0425,
      "duration": 0.0518,
      "velocity": 123,
      "chip": "ym2612"
    },
    {
      "channel": 1,
      "note": 57,
      "start": 58.2027,
      "duration": 0.1617,
      "velocity": 127,
      "chip": "ym2612"
    },
    {
      "channel": 3,
      "note": 22,
      "start": 58.2051,
      "duration": 0.5899,
      "velocity": 107,
      "chip": "ym2612"
    },
    {
      "channel": 4,
      "note": 35,
      "start": 58.2059,
      "duration": 0.1326,
      "velocity": 123,
      "chip": "ym2612"
    },
    {
      "channel": 5,
      "note": 63,
      "start": 58.2844,
      "duration": 0.1358,
      "velocity": 94,
      "chip": "ym2612"
    },
    {
      "channel": 0,
      "note": 63,
      "start": 58.3625,
      "duration": 0.1352,
      "velocity": 94,
      "chip": "ym2612"
    },
    {
      "channel": 1,
      "note": 64,
      "start": 58.3646,
      "duration": 0.1609,
      "velocity": 127,
      "chip": "ym2612"
    },
    {
      "channel": 2,
      "note": 56,
      "start": 58.3653,
      "duration": 0.1333,
      "velocity": 94,
      "chip": "ym2612"
    },
    {
      "channel": 4,
      "note": 35,
      "start": 58.3676,
      "duration": 0.1329,
      "velocity": 123,
      "chip": "ym2612"
    },
    {
      "channel": 0,
      "note": 63,
      "start": 58.525,
      "duration": 0.1352,
      "velocity": 94,
      "chip": "ym2612"
    },
    {
      "channel": 1,
      "note": 64,
      "start": 58.5257,
      "duration": 0.1634,
      "velocity": 123,
      "chip": "ym2612"
    },
    {
      "channel": 2,
      "note": 56,
      "start": 58.5264,
      "duration": 0.1346,
      "velocity": 94,
      "chip": "ym2612"
    },
    {
      "channel": 4,
      "note": 35,
      "start": 58.5287,
      "duration": 0.053,
      "velocity": 123,
      "chip": "ym2612"
    },
    {
      "channel": 5,
      "note": 63,
      "start": 58.6092,
      "duration": 0.1324,
      "velocity": 94,
      "chip": "ym2612"
    },
    {
      "channel": 1,
      "note": 57,
      "start": 58.6894,
      "duration": 0.1597,
      "velocity": 127,
      "chip": "ym2612"
    },
    {
      "channel": 4,
      "note": 35,
      "start": 58.6922,
      "duration": 0.2936,
      "velocity": 123,
      "chip": "ym2612"
    },
    {
      "channel": 5,
      "note": 63,
      "start": 58.7695,
      "duration": 0.1352,
      "velocity": 94,
      "chip": "ym2612"
    },
    {
      "channel": 0,
      "note": 63,
      "start": 58.8471,
      "duration": 0.1352,
      "velocity": 94,
      "chip": "ym2612"
    },
    {
      "channel": 1,
      "note": 59,
      "start": 58.8493,
      "duration": 0.162,
      "velocity": 123,
      "chip": "ym2612"
    },
    {
      "channel": 2,
      "note": 56,
      "start": 58.85,
      "duration": 0.1332,
      "velocity": 94,
      "chip": "ym2612"
    },
    {
      "channel": 3,
      "note": 22,
      "start": 58.8525,
      "duration": 0.5895,
      "velocity": 107,
      "chip": "ym2612"
    },
    {
      "channel": 1,
      "note": 57,
      "start": 59.0115,
      "duration": 0.1607,
      "velocity": 123,
      "chip": "ym2612"
    },
    {
      "channel": 4,
      "note": 35,
      "start": 59.0143,
      "duration": 0.0519,
      "velocity": 123,
      "chip": "ym2612"
    },
    {
      "channel": 5,
      "note": 63,
      "start": 59.0938,
      "duration": 0.1323,
      "velocity": 94,
      "chip": "ym2612"
    },
    {
      "channel": 1,
      "note": 57,
      "start": 59.1725,
      "duration": 0.1593,
      "velocity": 123,
      "chip": "ym2612"
    },
    {
      "channel": 4,
      "note": 35,
      "start": 59.1753,
      "duration": 0.1318,
      "velocity": 123,
      "chip": "ym2612"
    },
    {
      "channel": 1,
      "note": 57,
      "start": 59.332,
      "duration": 0.1622,
      "velocity": 123,
      "chip": "ym2612"
    },
    {
      "channel": 4,
      "note": 35,
      "start": 59.3355,
      "duration": 0.0527,
      "velocity": 123,
      "chip": "ym2612"
    },
    {
      "channel": 1,
      "note": 57,
      "start": 59.4945,
      "duration": 0.1594,
      "velocity": 123,
      "chip": "ym2612"
    },
    {
      "channel": 3,
      "note": 21,
      "start": 59.497,
      "duration": 0.5899,
      "velocity": 107,
      "chip": "ym2612"
    },
    {
      "channel": 4,
      "note": 35,
      "start": 59.4978,
      "duration": 0.2938,
      "velocity": 123,
      "chip": "ym2612"
    },
    {
      "channel": 1,
      "note": 57,
      "start": 59.6541,
      "duration": 0.1644,
      "velocity": 127,
      "chip": "ym2612"
    },
    {
      "channel": 0,
      "note": 62,
      "start": 59.816,
      "duration": 0.1359,
      "velocity": 94,
      "chip": "ym2612"
    },
    {
      "channel": 1,
      "note": 64,
      "start": 59.8188,
      "duration": 0.1615,
      "velocity": 123,
      "chip": "ym2612"
    },
    {
      "channel": 2,
      "note": 55,
      "start": 59.8195,
      "duration": 0.1332,
      "velocity": 94,
      "chip": "ym2612"
    },
    {
      "channel": 4,
      "note": 35,
      "start": 59.8218,
      "duration": 0.2919,
      "velocity": 123,
      "chip": "ym2612"
    },
    {
      "channel": 1,
      "note": 57,
      "start": 59.9805,
      "duration": 0.1597,
      "velocity": 127,
      "chip": "ym2612"
    },
    {
      "channel": 5,
      "note": 62,
      "start": 60.0599,
      "duration": 0.1353,
      "velocity": 94,
      "chip": "ym2612"
    },
    {
      "channel": 0,
      "note": 62,
      "start": 60.1382,
      "duration": 0.1352,
      "velocity": 94,
      "chip": "ym2612"
    },
    {
      "channel": 1,
      "note": 59,
      "start": 60.1403,
      "duration": 0.1628,
      "velocity": 127,
      "chip": "ym2612"
    },
    {
      "channel": 2,
      "note": 55,
      "start": 60.1411,
      "duration": 0.1332,
      "velocity": 94,
      "chip": "ym2612"
    },
    {
      "channel": 3,
      "note": 21,
      "start": 60.143,
      "duration": 0.5939,
      "velocity": 107,
      "chip": "ym2612"
    },
    {
      "channel": 4,
      "note": 35,
      "start": 60.1437,
      "duration": 0.0512,
      "velocity": 123,
      "chip": "ym2612"
    },
    {
      "channel": 0,
      "note": 62,
      "start": 60.3006,
      "duration": 0.1352,
      "velocity": 94,
      "chip": "ym2612"
    },
    {
      "channel": 1,
      "note": 64,
      "start": 60.3034,
      "duration": 0.1615,
      "velocity": 123,
      "chip": "ym2612"
    },
    {
      "channel": 2,
      "note": 55,
      "start": 60.3041,
      "duration": 0.1326,
      "velocity": 94,
      "chip": "ym2612"
    },
    {
      "channel": 4,
      "note": 35,
      "start": 60.3064,
      "duration": 0.1322,
      "velocity": 123,
      "chip": "ym2612"
    },
    {
      "channel": 5,
      "note": 62,
      "start": 60.3857,
      "duration": 0.1352,
      "velocity": 94,
      "chip": "ym2612"
    },
    {
      "channel": 1,
      "note": 57,
      "start": 60.4651,
      "duration": 0.1627,
      "velocity": 127,
      "chip": "ym2612"
    },
    {
      "channel": 4,
      "note": 35,
      "start": 60.4686,
      "duration": 0.0519,
      "velocity": 123,
      "chip": "ym2612"
    },
    {
      "channel": 5,
      "note": 62,
      "start": 60.5476,
      "duration": 0.1352,
      "velocity": 94,
      "chip": "ym2612"
    },
    {
      "channel": 0,
      "note": 63,
      "start": 60.6256,
      "duration": 0.1352,
      "velocity": 94,
      "chip": "ym2612"
    },
    {
      "channel": 1,
      "note": 59,
      "start": 60.628,
      "duration": 0.0278,
      "velocity": 127,
      "chip": "ym2612"
    },
    {
      "channel": 2,
      "note": 56,
      "start": 60.6288,
      "duration": 0.1329,
      "velocity": 94,
      "chip": "ym2612"
    },
    {
      "channel": 4,
      "note": 35,
      "start": 60.631,
      "duration": 0.0514,
      "velocity": 123,
      "chip": "ym2612"
    },
    {
      "channel": 1,
      "note": 59,
      "start": 60.656,
      "duration": 0.1339,
      "velocity": 127,
      "chip": "ym2612"
    },
    {
      "channel": 1,
      "note": 64,
      "start": 60.7901,
      "duration": 0.1631,
      "velocity": 123,
      "chip": "ym2612"
    },
    {
      "channel": 3,
      "note": 22,
      "start": 60.7926,
      "duration": 0.5943,
      "velocity": 107,
      "chip": "ym2612"
    },
    {
      "channel": 4,
      "note": 35,
      "start": 60.7933,
      "duration": 0.133,
      "velocity": 123,
      "chip": "ym2612"
    },
    {
      "channel": 5,
      "note": 63,
      "start": 60.8725,
      "duration": 0.1352,
      "velocity": 94,
      "chip": "ym2612"
    },
    {
      "channel": 0,
      "note": 63,
      "start": 60.9507,
      "duration": 0.1352,
      "velocity": 94,
      "chip": "ym2612"
    },
    {
      "channel": 1,
      "note": 57,
      "start": 60.9535,
      "duration": 0.0785,
      "velocity": 123,
      "chip": "ym2612"
    },
    {
      "channel": 2,
      "note": 56,
      "start": 60.9543,
      "duration": 0.1325,
      "velocity": 94,
      "chip": "ym2612"
    },
    {
      "channel": 4,
      "note": 35,
      "start": 60.9565,
      "duration": 0.1323,
      "velocity": 123,
      "chip": "ym2612"
    },
    {
      "channel": 1,
      "note": 57,
      "start": 61.0323,
      "duration": 0.0828,
      "velocity": 127,
      "chip": "ym2612"
    },
    {
      "channel": 0,
      "note": 62,
      "start": 61.1132,
      "duration": 0.1352,
      "velocity": 94,
      "chip": "ym2612"
    },
    {
      "channel": 1,
      "note": 62,
      "start": 61.1153,
      "duration": 0.028,
      "velocity": 127,
      "chip": "ym2612"
    },
    {
      "channel": 2,
      "note": 55,
      "start": 61.1161,
      "duration": 0.1332,
      "velocity": 94,
      "chip": "ym2612"
    },
    {
      "channel": 4,
      "note": 35,
      "start": 61.1191,
      "duration": 0.0515,
      "velocity": 123,
      "chip": "ym2612"
    },
    {
      "channel": 1,
      "note": 62,
      "start": 61.1435,
      "duration": 0.1339,
      "velocity": 127,
      "chip": "ym2612"
    },
    {
      "channel": 5,
      "note": 63,
      "start": 61.1976,
      "duration": 0.1351,
      "velocity": 94,
      "chip": "ym2612"
    },
    {
      "channel": 1,
      "note": 59,
      "start": 61.2777,
      "duration": 0.1609,
      "velocity": 127,
      "chip": "ym2612"
    },
    {
      "channel": 4,
      "note": 35,
      "start": 61.2805,
      "duration": 0.2928,
      "velocity": 123,
      "chip": "ym2612"
    },
    {
      "channel": 5,
      "note": 62,
      "start": 61.36,
      "duration": 0.1323,
      "velocity": 94,
      "chip": "ym2612"
    },
    {
      "channel": 0,
      "note": 63,
      "start": 61.4382,
      "duration": 0.2948,
      "velocity": 94,
      "chip": "ym2612"
    },
    {
      "channel": 1,
      "note": 59,
      "start": 61.4388,
      "duration": 0.1606,
      "velocity": 127,
      "chip": "ym2612"
    },
    {
      "channel": 2,
      "note": 56,
      "start": 61.4396,
      "duration": 0.2943,
      "velocity": 94,
      "chip": "ym2612"
    },
    {
      "channel": 3,
      "note": 22,
      "start": 61.4415,
      "duration": 0.5889,
      "velocity": 107,
      "chip": "ym2612"
    },
    {
      "channel": 1,
      "note": 59,
      "start": 61.5996,
      "duration": 0.0283,
      "velocity": 127,
      "chip": "ym2612"
    },
    {
      "channel": 4,
      "note": 35,
      "start": 61.603,
      "duration": 0.0519,
      "velocity": 123,
      "chip": "ym2612"
    },
    {
      "channel": 1,
      "note": 59,
      "start": 61.6281,
      "duration": 0.1327,
      "velocity": 127,
      "chip": "ym2612"
    },
    {
      "channel": 5,
      "note": 63,
      "start": 61.6821,
      "duration": 0.2949,
      "velocity": 94,
      "chip": "ym2612"
    },
    {
      "channel": 0,
      "note": 65,
      "start": 61.7603,
      "duration": 0.2946,
      "velocity": 94,
      "chip": "ym2612"
    },
    {
      "channel": 1,
      "note": 59,
      "start": 61.761,
      "duration": 0.0265,
      "velocity": 127,
      "chip": "ym2612"
    },
    {
      "channel": 2,
      "note": 58,
      "start": 61.7618,
      "duration": 0.294,
      "velocity": 94,
      "chip": "ym2612"
    },
    {
      "channel": 4,
      "note": 35,
      "start": 61.7641,
      "duration": 0.1341,
      "velocity": 123,
      "chip": "ym2612"
    },
    {
      "channel": 1,
      "note": 59,
      "start": 61.7877,
      "duration": 0.1353,
      "velocity": 127,
      "chip": "ym2612"
    },
    {
      "channel": 1,
      "note": 56,
      "start": 61.9232,
      "duration": 0.1641,
      "velocity": 127,
      "chip": "ym2612"
    },
    {
      "channel": 4,
      "note": 35,
      "start": 61.9258,
      "duration": 0.0508,
      "velocity": 123,
      "chip": "ym2612"
    },
    {
      "channel": 5,
      "note": 65,
      "start": 62.0048,
      "duration": 0.3004,
      "velocity": 94,
      "chip": "ym2612"
    },
    {
      "channel": 0,
      "note": 31,
      "start": 62.0844,
      "duration": 2.5648,
      "velocity": 98,
      "chip": "ym2612"
    },
    {
      "channel": 1,
      "note": 64,
      "start": 62.0875,
      "duration": 0.1654,
      "velocity": 123,
      "chip": "ym2612"
    },
    {
      "channel": 2,
      "note": 24,
      "start": 62.0903,
      "duration": 2.5597,
      "velocity": 98,
      "chip": "ym2612"
    },
    {
      "channel": 3,
      "note": 24,
      "start": 62.0944,
      "duration": 5.0882,
      "velocity": 107,
      "chip": "ym2612"
    },
    {
      "channel": 4,
      "note": 107,
      "start": 62.0971,
      "duration": 0.2893,
      "velocity": 93,
      "chip": "ym2612"
    },
    {
      "channel": 1,
      "note": 68,
      "start": 62.2532,
      "duration": 0.1587,
      "velocity": 127,
      "chip": "ym2612"
    },
    {
      "channel": 5,
      "note": 31,
      "start": 62.3341,
      "duration": 2.5589,
      "velocity": 98,
      "chip": "ym2612"
    },
    {
      "channel": 1,
      "note": 64,
      "start": 62.4121,
      "duration": 0.1607,
      "velocity": 127,
      "chip": "ym2612"
    },
    {
      "channel": 4,
      "note": 107,
      "start": 62.4148,
      "duration": 0.0522,
      "velocity": 93,
      "chip": "ym2612"
    },
    {
      "channel": 1,
      "note": 64,
      "start": 62.5731,
      "duration": 0.1621,
      "velocity": 127,
      "chip": "ym2612"
    },
    {
      "channel": 4,
      "note": 107,
      "start": 62.5757,
      "duration": 0.0509,
      "velocity": 93,
      "chip": "ym2612"
    },
    {
      "channel": 1,
      "note": 59,
      "start": 62.7354,
      "duration": 0.1596,
      "velocity": 127,
      "chip": "ym2612"
    },
    {
      "channel": 4,
      "note": 107,
      "start": 62.7386,
      "duration": 0.2941,
      "velocity": 93,
      "chip": "ym2612"
    },
    {
      "channel": 1,
      "note": 59,
      "start": 62.8952,
      "duration": 0.1637,
      "velocity": 123,
      "chip": "ym2612"
    },
    {
      "channel": 1,
      "note": 57,
      "start": 63.0591,
      "duration": 0.16,
      "velocity": 127,
      "chip": "ym2612"
    },
    {
      "channel": 4,
      "note": 107,
      "start": 63.0618,
      "duration": 0.0493,
      "velocity": 93,
      "chip": "ym2612"
    },
    {
      "channel": 1,
      "note": 64,
      "start": 63.2193,
      "duration": 0.1623,
      "velocity": 123,
      "chip": "ym2612"
    },
    {
      "channel": 4,
      "note": 107,
      "start": 63.222,
      "duration": 0.2955,
      "velocity": 93,
      "chip": "ym2612"
    },
    {
      "channel": 1,
      "note": 68,
      "start": 63.3818,
      "duration": 0.1616,
      "velocity": 127,
      "chip": "ym2612"
    },
    {
      "channel": 1,
      "note": 64,
      "start": 63.5437,
      "duration": 0.0796,
      "velocity": 127,
      "chip": "ym2612"
    },
    {
      "channel": 4,
      "note": 107,
      "start": 63.5463,
      "duration": 0.1334,
      "velocity": 93,
      "chip": "ym2612"
    },
    {
      "channel": 1,
      "note": 64,
      "start": 63.6234,
      "duration": 0.0825,
      "velocity": 123,
      "chip": "ym2612"
    },
    {
      "channel": 1,
      "note": 57,
      "start": 63.7061,
      "duration": 0.1593,
      "velocity": 127,
      "chip": "ym2612"
    },
    {
      "channel": 4,
      "note": 107,
      "start": 63.7088,
      "duration": 0.0493,
      "velocity": 93,
      "chip": "ym2612"
    },
    {
      "channel": 1,
      "note": 64,
      "start": 63.8656,
      "duration": 0.163,
      "velocity": 127,
      "chip": "ym2612"
    },
    {
      "channel": 4,
      "note": 107,
      "start": 63.869,
      "duration": 0.0524,
      "velocity": 93,
      "chip": "ym2612"
    },
    {
      "channel": 1,
      "note": 59,
      "start": 64.0289,
      "duration": 0.1602,
      "velocity": 127,
      "chip": "ym2612"
    },
    {
      "channel": 4,
      "note": 107,
      "start": 64.0321,
      "duration": 0.2947,
      "velocity": 93,
      "chip": "ym2612"
    },
    {
      "channel": 1,
      "note": 59,
      "start": 64.1893,
      "duration": 0.1643,
      "velocity": 123,
      "chip": "ym2612"
    },
    {
      "channel": 1,
      "note": 57,
      "start": 64.3538,
      "duration": 0.1616,
      "velocity": 127,
      "chip": "ym2612"
    },
    {
      "channel": 4,
      "note": 107,
      "start": 64.3566,
      "duration": 0.0516,
      "velocity": 93,
      "chip": "ym2612"
    },
    {
      "channel": 1,
      "note": 64,
      "start": 64.5156,
      "duration": 0.1628,
      "velocity": 127,
      "chip": "ym2612"
    },
    {
      "channel": 4,
      "note": 107,
      "start": 64.519,
      "duration": 0.0524,
      "velocity": 93,
      "chip": "ym2612"
    },
    {
      "channel": 0,
      "note": 30,
      "start": 64.6765,
      "duration": 2.5582,
      "velocity": 98,
      "chip": "ym2612"
    },
    {
      "channel": 1,
      "note": 64,
      "start": 64.6786,
      "duration": 0.1619,
      "velocity": 123,
      "chip": "ym2612"
    },
    {
      "channel": 2,
      "note": 25,
      "start": 64.6795,
      "duration": 2.5565,
      "velocity": 98,
      "chip": "ym2612"
    },
    {
      "channel": 4,
      "note": 107,
      "start": 64.6818,
      "duration": 0.2922,
      "velocity": 93,
      "chip": "ym2612"
    },
    {
      "channel": 1,
      "note": 68,
      "start": 64.8408,
      "duration": 0.1593,
      "velocity": 127,
      "chip": "ym2612"
    },
    {
      "channel": 5,
      "note": 30,
      "start": 64.9211,
      "duration": 2.3418,
      "velocity": 98,
      "chip": "ym2612"
    },
    {
      "channel": 1,
      "note": 64,
      "start": 65.0002,
      "duration": 0.1609,
      "velocity": 127,
      "chip": "ym2612"
    },
    {
      "channel": 4,
      "note": 107,
      "start": 65.0036,
      "duration": 0.0517,
      "velocity": 93,
      "chip": "ym2612"
    },
    {
      "channel": 1,
      "note": 64,
      "start": 65.1614,
      "duration": 0.1642,
      "velocity": 127,
      "chip": "ym2612"
    },
    {
      "channel": 4,
      "note": 107,
      "start": 65.164,
      "duration": 0.0538,
      "velocity": 93,
      "chip": "ym2612"
    },
    {
      "channel": 1,
      "note": 59,
      "start": 65.3258,
      "duration": 0.1602,
      "velocity": 127,
      "chip": "ym2612"
    },
    {
      "channel": 4,
      "note": 107,
      "start": 65.329,
      "duration": 0.2926,
      "velocity": 93,
      "chip": "ym2612"
    },
    {
      "channel": 1,
      "note": 59,
      "start": 65.4863,
      "duration": 0.1608,
      "velocity": 123,
      "chip": "ym2612"
    },
    {
      "channel": 1,
      "note": 57,
      "start": 65.6474,
      "duration": 0.1622,
      "velocity": 127,
      "chip": "ym2612"
    },
    {
      "channel": 4,
      "note": 107,
      "start": 65.6501,
      "duration": 0.0528,
      "velocity": 93,
      "chip": "ym2612"
    },
    {
      "channel": 1,
      "note": 64,
      "start": 65.8098,
      "duration": 0.1606,
      "velocity": 123,
      "chip": "ym2612"
    },
    {
      "channel": 4,
      "note": 107,
      "start": 65.8125,
      "duration": 0.2931,
      "velocity": 93,
      "chip": "ym2612"
    },
    {
      "channel": 1,
      "note": 68,
      "start": 65.9707,
      "duration": 0.1609,
      "velocity": 127,
      "chip": "ym2612"
    },
    {
      "channel": 1,
      "note": 64,
      "start": 66.1319,
      "duration": 0.0796,
      "velocity": 127,
      "chip": "ym2612"
    },
    {
      "channel": 4,
      "note": 107,
      "start": 66.1352,
      "duration": 0.1335,
      "velocity": 93,
      "chip": "ym2612"
    },
    {
      "channel": 1,
      "note": 64,
      "start": 66.2117,
      "duration": 0.0825,
      "velocity": 123,
      "chip": "ym2612"
    },
    {
      "channel": 1,
      "note": 57,
      "start": 66.2944,
      "duration": 0.1622,
      "velocity": 127,
      "chip": "ym2612"
    },
    {
      "channel": 4,
      "note": 107,
      "start": 66.2971,
      "duration": 0.0522,
      "velocity": 93,
      "chip": "ym2612"
    },
    {
      "channel": 1,
      "note": 64,
      "start": 66.4568,
      "duration": 0.1601,
      "velocity": 127,
      "chip": "ym2612"
    },
    {
      "channel": 4,
      "note": 107,
      "start": 66.4595,
      "duration": 0.0494,
      "velocity": 93,
      "chip": "ym2612"
    },
    {
      "channel": 1,
      "note": 59,
      "start": 66.6171,
      "duration": 0.1602,
      "velocity": 127,
      "chip": "ym2612"
    },
    {
      "channel": 4,
      "note": 107,
      "start": 66.621,
      "duration": 0.2941,
      "velocity": 93,
      "chip": "ym2612"
    },
    {
      "channel": 1,
      "note": 59,
      "start": 66.7775,
      "duration": 0.1637,
      "velocity": 123,
      "chip": "ym2612"
    },
    {
      "channel": 1,
      "note": 57,
      "start": 66.9414,
      "duration": 0.1593,
      "velocity": 127,
      "chip": "ym2612"
    },
    {
      "channel": 4,
      "note": 107,
      "start": 66.9441,
      "duration": 0.0493,
      "velocity": 93,
      "chip": "ym2612"
    },
    {
      "channel": 1,
      "note": 64,
      "start": 67.101,
      "duration": 0.1618,
      "velocity": 127,
      "chip": "ym2612"
    },
    {
      "channel": 4,
      "note": 107,
      "start": 67.1043,
      "duration": 0.0517,
      "velocity": 93,
      "chip": "ym2612"
    },
    {
      "channel": 0,
      "note": 31,
      "start": 67.2619,
      "duration": 0.0009,
      "velocity": 98,
      "chip": "ym2612"
    }
  ]
}