{
  "track_name": "07 - Unknown Track 2",
  "duration_sec": 43.194,
  "sample_rate": 44100,
  "note_count": 816,
  "unique_pitches": 15,
  "pitch_range": 41,
  "avg_note_duration": 0.0387,
  "reconstruction_stats": {
    "notes_reconstructed": 816,
    "keyon_events": 816,
    "keyoff_events": 816,
    "orphan_keyons": 0,
    "unique_pitches": 15,
    "pitch_range": 41,
    "avg_duration_sec": 0.0387
  },
  "metadata": {
    "source": "F\\Fastest 1\\07 - Unknown Track 2.vgz"
  },
  "notes": [
    {
      "channel": 0,
      "note": 72,
      "start": 0.0062,
      "duration": 0.0274,
      "velocity": 107,
      "chip": "ym2612"
    },
    {
      "channel": 1,
      "note": 72,
      "start": 0.0102,
      "duration": 0.0244,
      "velocity": 107,
      "chip": "ym2612"
    },
    {
      "channel": 2,
      "note": 68,
      "start": 0.0172,
      "duration": 0.0142,
      "velocity": 91,
      "chip": "ym2612"
    },
    {
      "channel": 3,
      "note": 68,
      "start": 0.0215,
      "duration": 0.011,
      "velocity": 76,
      "chip": "ym2612"
    },
    {
      "channel": 0,
      "note": 72,
      "start": 0.0539,
      "duration": 0.0192,
      "velocity": 107,
      "chip": "ym2612"
    },
    {
      "channel": 1,
      "note": 72,
      "start": 0.055,
      "duration": 0.0191,
      "velocity": 107,
      "chip": "ym2612"
    },
    {
      "channel": 2,
      "note": 68,
      "start": 0.0562,
      "duration": 0.0145,
      "velocity": 91,
      "chip": "ym2612"
    },
    {
      "channel": 3,
      "note": 68,
      "start": 0.0573,
      "duration": 0.0144,
      "velocity": 76,
      "chip": "ym2612"
    },
    {
      "channel": 0,
      "note": 84,
      "start": 0.0926,
      "duration": 0.0822,
      "velocity": 107,
      "chip": "ym2612"
    },
    {
      "channel": 1,
      "note": 84,
      "start": 0.0929,
      "duration": 0.0822,
      "velocity": 107,
      "chip": "ym2612"
    },
    {
      "channel": 0,
      "note": 72,
      "start": 0.2263,
      "duration": 0.0818,
      "velocity": 107,
      "chip": "ym2612"
    },
    {
      "channel": 1,
      "note": 72,
      "start": 0.2267,
      "duration": 0.0819,
      "velocity": 107,
      "chip": "ym2612"
    },
    {
      "channel": 2,
      "note": 56,
      "start": 0.2271,
      "duration": 0.065,
      "velocity": 91,
      "chip": "ym2612"
    },
    {
      "channel": 3,
      "note": 56,
      "start": 0.2276,
      "duration": 0.0648,
      "velocity": 76,
      "chip": "ym2612"
    },
    {
      "channel": 0,
      "note": 72,
      "start": 0.3603,
      "duration": 0.0199,
      "velocity": 107,
      "chip": "ym2612"
    },
    {
      "channel": 1,
      "note": 72,
      "start": 0.3615,
      "duration": 0.0197,
      "velocity": 107,
      "chip": "ym2612"
    },
    {
      "channel": 0,
      "note": 84,
      "start": 0.3951,
      "duration": 0.0194,
      "velocity": 107,
      "chip": "ym2612"
    },
    {
      "channel": 1,
      "note": 84,
      "start": 0.3961,
      "duration": 0.0193,
      "velocity": 107,
      "chip": "ym2612"
    },
    {
      "channel": 2,
      "note": 56,
      "start": 0.3973,
      "duration": 0.0146,
      "velocity": 91,
      "chip": "ym2612"
    },
    {
      "channel": 3,
      "note": 56,
      "start": 0.3983,
      "duration": 0.0146,
      "velocity": 76,
      "chip": "ym2612"
    },
    {
      "channel": 0,
      "note": 72,
      "start": 0.4282,
      "duration": 0.0191,
      "velocity": 107,
      "chip": "ym2612"
    },
    {
      "channel": 1,
      "note": 72,
      "start": 0.4293,
      "duration": 0.019,
      "velocity": 107,
      "chip": "ym2612"
    },
    {
      "channel": 0,
      "note": 72,
      "start": 0.4623,
      "duration": 0.0191,
      "velocity": 107,
      "chip": "ym2612"
    },
    {
      "channel": 1,
      "note": 72,
      "start": 0.4634,
      "duration": 0.019,
      "velocity": 107,
      "chip": "ym2612"
    },
    {
      "channel": 2,
      "note": 56,
      "start": 0.4646,
      "duration": 0.0143,
      "velocity": 91,
      "chip": "ym2612"
    },
    {
      "channel": 3,
      "note": 56,
      "start": 0.4656,
      "duration": 0.0143,
      "velocity": 76,
      "chip": "ym2612"
    },
    {
      "channel": 0,
      "note": 84,
      "start": 0.496,
      "duration": 0.0188,
      "velocity": 107,
      "chip": "ym2612"
    },
    {
      "channel": 1,
      "note": 84,
      "start": 0.4971,
      "duration": 0.0185,
      "velocity": 107,
      "chip": "ym2612"
    },
    {
      "channel": 2,
      "note": 68,
      "start": 0.4982,
      "duration": 0.0144,
      "velocity": 91,
      "chip": "ym2612"
    },
    {
      "channel": 3,
      "note": 68,
      "start": 0.4992,
      "duration": 0.0143,
      "velocity": 76,
      "chip": "ym2612"
    },
    {
      "channel": 0,
      "note": 72,
      "start": 0.5346,
      "duration": 0.0822,
      "velocity": 107,
      "chip": "ym2612"
    },
    {
      "channel": 1,
      "note": 72,
      "start": 0.5349,
      "duration": 0.0822,
      "velocity": 107,
      "chip": "ym2612"
    },
    {
      "channel": 0,
      "note": 72,
      "start": 0.6678,
      "duration": 0.0824,
      "velocity": 107,
      "chip": "ym2612"
    },
    {
      "channel": 1,
      "note": 72,
      "start": 0.6681,
      "duration": 0.0824,
      "velocity": 107,
      "chip": "ym2612"
    },
    {
      "channel": 0,
      "note": 84,
      "start": 0.8011,
      "duration": 0.0823,
      "velocity": 107,
      "chip": "ym2612"
    },
    {
      "channel": 1,
      "note": 84,
      "start": 0.8015,
      "duration": 0.0824,
      "velocity": 107,
      "chip": "ym2612"
    },
    {
      "channel": 0,
      "note": 72,
      "start": 0.9357,
      "duration": 0.0194,
      "velocity": 107,
      "chip": "ym2612"
    },
    {
      "channel": 1,
      "note": 72,
      "start": 0.9367,
      "duration": 0.0193,
      "velocity": 107,
      "chip": "ym2612"
    },
    {
      "channel": 0,
      "note": 72,
      "start": 0.9693,
      "duration": 0.0191,
      "velocity": 107,
      "chip": "ym2612"
    },
    {
      "channel": 1,
      "note": 72,
      "start": 0.9703,
      "duration": 0.019,
      "velocity": 107,
      "chip": "ym2612"
    },
    {
      "channel": 0,
      "note": 91,
      "start": 1.0026,
      "duration": 0.0189,
      "velocity": 107,
      "chip": "ym2612"
    },
    {
      "channel": 1,
      "note": 91,
      "start": 1.0036,
      "duration": 0.0188,
      "velocity": 107,
      "chip": "ym2612"
    },
    {
      "channel": 0,
      "note": 84,
      "start": 1.0604,
      "duration": 0.0817,
      "velocity": 107,
      "chip": "ym2612"
    },
    {
      "channel": 1,
      "note": 84,
      "start": 1.0607,
      "duration": 0.0817,
      "velocity": 107,
      "chip": "ym2612"
    },
    {
      "channel": 4,
      "note": 67,
      "start": 1.0635,
      "duration": 0.0634,
      "velocity": 79,
      "chip": "ym2612"
    },
    {
      "channel": 0,
      "note": 72,
      "start": 1.1949,
      "duration": 0.0244,
      "velocity": 107,
      "chip": "ym2612"
    },
    {
      "channel": 1,
      "note": 72,
      "start": 1.196,
      "duration": 0.0242,
      "velocity": 107,
      "chip": "ym2612"
    },
    {
      "channel": 2,
      "note": 68,
      "start": 1.1971,
      "duration": 0.0187,
      "velocity": 91,
      "chip": "ym2612"
    },
    {
      "channel": 3,
      "note": 68,
      "start": 1.1981,
      "duration": 0.0187,
      "velocity": 76,
      "chip": "ym2612"
    },
    {
      "channel": 0,
      "note": 72,
      "start": 1.2432,
      "duration": 0.0241,
      "velocity": 107,
      "chip": "ym2612"
    },
    {
      "channel": 1,
      "note": 72,
      "start": 1.2442,
      "duration": 0.0239,
      "velocity": 107,
      "chip": "ym2612"
    },
    {
      "channel": 2,
      "note": 68,
      "start": 1.2454,
      "duration": 0.0185,
      "velocity": 91,
      "chip": "ym2612"
    },
    {
      "channel": 3,
      "note": 68,
      "start": 1.2464,
      "duration": 0.0184,
      "velocity": 76,
      "chip": "ym2612"
    },
    {
      "channel": 0,
      "note": 84,
      "start": 1.2895,
      "duration": 0.0822,
      "velocity": 107,
      "chip": "ym2612"
    },
    {
      "channel": 1,
      "note": 84,
      "start": 1.2898,
      "duration": 0.0822,
      "velocity": 107,
      "chip": "ym2612"
    },
    {
      "channel": 0,
      "note": 72,
      "start": 1.4233,
      "duration": 0.0818,
      "velocity": 107,
      "chip": "ym2612"
    },
    {
      "channel": 1,
      "note": 72,
      "start": 1.4236,
      "duration": 0.0819,
      "velocity": 107,
      "chip": "ym2612"
    },
    {
      "channel": 2,
      "note": 56,
      "start": 1.424,
      "duration": 0.0649,
      "velocity": 91,
      "chip": "ym2612"
    },
    {
      "channel": 3,
      "note": 56,
      "start": 1.4246,
      "duration": 0.0648,
      "velocity": 76,
      "chip": "ym2612"
    },
    {
      "channel": 0,
      "note": 72,
      "start": 1.5573,
      "duration": 0.0248,
      "velocity": 107,
      "chip": "ym2612"
    },
    {
      "channel": 1,
      "note": 72,
      "start": 1.5583,
      "duration": 0.0247,
      "velocity": 107,
      "chip": "ym2612"
    },
    {
      "channel": 0,
      "note": 84,
      "start": 1.5995,
      "duration": 0.0243,
      "velocity": 107,
      "chip": "ym2612"
    },
    {
      "channel": 1,
      "note": 84,
      "start": 1.6005,
      "duration": 0.0241,
      "velocity": 107,
      "chip": "ym2612"
    },
    {
      "channel": 2,
      "note": 56,
      "start": 1.6017,
      "duration": 0.0188,
      "velocity": 91,
      "chip": "ym2612"
    },
    {
      "channel": 3,
      "note": 56,
      "start": 1.6027,
      "duration": 0.0187,
      "velocity": 76,
      "chip": "ym2612"
    },
    {
      "channel": 0,
      "note": 72,
      "start": 1.6405,
      "duration": 0.0246,
      "velocity": 107,
      "chip": "ym2612"
    },
    {
      "channel": 1,
      "note": 72,
      "start": 1.6415,
      "duration": 0.0244,
      "velocity": 107,
      "chip": "ym2612"
    },
    {
      "channel": 0,
      "note": 72,
      "start": 1.682,
      "duration": 0.0243,
      "velocity": 107,
      "chip": "ym2612"
    },
    {
      "channel": 1,
      "note": 72,
      "start": 1.683,
      "duration": 0.0242,
      "velocity": 107,
      "chip": "ym2612"
    },
    {
      "channel": 2,
      "note": 56,
      "start": 1.6842,
      "duration": 0.0186,
      "velocity": 91,
      "chip": "ym2612"
    },
    {
      "channel": 3,
      "note": 56,
      "start": 1.6853,
      "duration": 0.0185,
      "velocity": 76,
      "chip": "ym2612"
    },
    {
      "channel": 0,
      "note": 84,
      "start": 1.7233,
      "duration": 0.0241,
      "velocity": 107,
      "chip": "ym2612"
    },
    {
      "channel": 1,
      "note": 84,
      "start": 1.7244,
      "duration": 0.0239,
      "velocity": 107,
      "chip": "ym2612"
    },
    {
      "channel": 2,
      "note": 68,
      "start": 1.7255,
      "duration": 0.0184,
      "velocity": 91,
      "chip": "ym2612"
    },
    {
      "channel": 3,
      "note": 68,
      "start": 1.7265,
      "duration": 0.0183,
      "velocity": 76,
      "chip": "ym2612"
    },
    {
      "channel": 0,
      "note": 72,
      "start": 1.7693,
      "duration": 0.0823,
      "velocity": 107,
      "chip": "ym2612"
    },
    {
      "channel": 1,
      "note": 72,
      "start": 1.7697,
      "duration": 0.0822,
      "velocity": 107,
      "chip": "ym2612"
    },
    {
      "channel": 0,
      "note": 72,
      "start": 1.9025,
      "duration": 0.0824,
      "velocity": 107,
      "chip": "ym2612"
    },
    {
      "channel": 1,
      "note": 72,
      "start": 1.9028,
      "duration": 0.0824,
      "velocity": 107,
      "chip": "ym2612"
    },
    {
      "channel": 0,
      "note": 84,
      "start": 2.0359,
      "duration": 0.0824,
      "velocity": 107,
      "chip": "ym2612"
    },
    {
      "channel": 1,
      "note": 84,
      "start": 2.0362,
      "duration": 0.0824,
      "velocity": 107,
      "chip": "ym2612"
    },
    {
      "channel": 0,
      "note": 72,
      "start": 2.1707,
      "duration": 0.0245,
      "velocity": 107,
      "chip": "ym2612"
    },
    {
      "channel": 1,
      "note": 72,
      "start": 2.1718,
      "duration": 0.0244,
      "velocity": 107,
      "chip": "ym2612"
    },
    {
      "channel": 4,
      "note": 51,
      "start": 2.1745,
      "duration": 0.019,
      "velocity": 79,
      "chip": "ym2612"
    },
    {
      "channel": 0,
      "note": 72,
      "start": 2.2121,
      "duration": 0.0243,
      "velocity": 107,
      "chip": "ym2612"
    },
    {
      "channel": 1,
      "note": 72,
      "start": 2.2132,
      "duration": 0.0241,
      "velocity": 107,
      "chip": "ym2612"
    },
    {
      "channel": 4,
      "note": 52,
      "start": 2.2159,
      "duration": 0.0189,
      "velocity": 79,
      "chip": "ym2612"
    },
    {
      "channel": 0,
      "note": 91,
      "start": 2.253,
      "duration": 0.0245,
      "velocity": 107,
      "chip": "ym2612"
    },
    {
      "channel": 1,
      "note": 91,
      "start": 2.2541,
      "duration": 0.0243,
      "velocity": 107,
      "chip": "ym2612"
    },
    {
      "channel": 4,
      "note": 53,
      "start": 2.2567,
      "duration": 0.0191,
      "velocity": 79,
      "chip": "ym2612"
    },
    {
      "channel": 0,
      "note": 84,
      "start": 2.317,
      "duration": 0.082,
      "velocity": 107,
      "chip": "ym2612"
    },
    {
      "channel": 1,
      "note": 84,
      "start": 2.3173,
      "duration": 0.082,
      "velocity": 107,
      "chip": "ym2612"
    },
    {
      "channel": 4,
      "note": 55,
      "start": 2.3186,
      "duration": 0.065,
      "velocity": 79,
      "chip": "ym2612"
    },
    {
      "channel": 0,
      "note": 70,
      "start": 2.4517,
      "duration": 0.0244,
      "velocity": 107,
      "chip": "ym2612"
    },
    {
      "channel": 1,
      "note": 70,
      "start": 2.4528,
      "duration": 0.0242,
      "velocity": 107,
      "chip": "ym2612"
    },
    {
      "channel": 2,
      "note": 68,
      "start": 2.4539,
      "duration": 0.0187,
      "velocity": 91,
      "chip": "ym2612"
    },
    {
      "channel": 3,
      "note": 68,
      "start": 2.4549,
      "duration": 0.0187,
      "velocity": 76,
      "chip": "ym2612"
    },
    {
      "channel": 0,
      "note": 70,
      "start": 2.5,
      "duration": 0.0241,
      "velocity": 107,
      "chip": "ym2612"
    },
    {
      "channel": 1,
      "note": 70,
      "start": 2.501,
      "duration": 0.0239,
      "velocity": 107,
      "chip": "ym2612"
    },
    {
      "channel": 2,
      "note": 68,
      "start": 2.5022,
      "duration": 0.0185,
      "velocity": 91,
      "chip": "ym2612"
    },
    {
      "channel": 3,
      "note": 68,
      "start": 2.5032,
      "duration": 0.0184,
      "velocity": 76,
      "chip": "ym2612"
    },
    {
      "channel": 0,
      "note": 82,
      "start": 2.5463,
      "duration": 0.0822,
      "velocity": 107,
      "chip": "ym2612"
    },
    {
      "channel": 1,
      "note": 82,
      "start": 2.5466,
      "duration": 0.0822,
      "velocity": 107,
      "chip": "ym2612"
    },
    {
      "channel": 0,
      "note": 70,
      "start": 2.6801,
      "duration": 0.0818,
      "velocity": 107,
      "chip": "ym2612"
    },
    {
      "channel": 1,
      "note": 70,
      "start": 2.6804,
      "duration": 0.0819,
      "velocity": 107,
      "chip": "ym2612"
    },
    {
      "channel": 2,
      "note": 56,
      "start": 2.6808,
      "duration": 0.0649,
      "velocity": 91,
      "chip": "ym2612"
    },
    {
      "channel": 3,
      "note": 56,
      "start": 2.6814,
      "duration": 0.0648,
      "velocity": 76,
      "chip": "ym2612"
    },
    {
      "channel": 0,
      "note": 70,
      "start": 2.8141,
      "duration": 0.0248,
      "velocity": 107,
      "chip": "ym2612"
    },
    {
      "channel": 1,
      "note": 70,
      "start": 2.8151,
      "duration": 0.0247,
      "velocity": 107,
      "chip": "ym2612"
    },
    {
      "channel": 0,
      "note": 82,
      "start": 2.8563,
      "duration": 0.0243,
      "velocity": 107,
      "chip": "ym2612"
    },
    {
      "channel": 1,
      "note": 82,
      "start": 2.8573,
      "duration": 0.0241,
      "velocity": 107,
      "chip": "ym2612"
    },
    {
      "channel": 2,
      "note": 56,
      "start": 2.8585,
      "duration": 0.0188,
      "velocity": 91,
      "chip": "ym2612"
    },
    {
      "channel": 3,
      "note": 56,
      "start": 2.8595,
      "duration": 0.0187,
      "velocity": 76,
      "chip": "ym2612"
    },
    {
      "channel": 0,
      "note": 70,
      "start": 2.8973,
      "duration": 0.0246,
      "velocity": 107,
      "chip": "ym2612"
    },
    {
      "channel": 1,
      "note": 70,
      "start": 2.8983,
      "duration": 0.0244,
      "velocity": 107,
      "chip": "ym2612"
    },
    {
      "channel": 0,
      "note": 70,
      "start": 2.9388,
      "duration": 0.0243,
      "velocity": 107,
      "chip": "ym2612"
    },
    {
      "channel": 1,
      "note": 70,
      "start": 2.9398,
      "duration": 0.0242,
      "velocity": 107,
      "chip": "ym2612"
    },
    {
      "channel": 2,
      "note": 56,
      "start": 2.941,
      "duration": 0.0186,
      "velocity": 91,
      "chip": "ym2612"
    },
    {
      "channel": 3,
      "note": 56,
      "start": 2.9421,
      "duration": 0.0185,
      "velocity": 76,
      "chip": "ym2612"
    },
    {
      "channel": 0,
      "note": 82,
      "start": 2.9801,
      "duration": 0.0241,
      "velocity": 107,
      "chip": "ym2612"
    },
    {
      "channel": 1,
      "note": 82,
      "start": 2.9812,
      "duration": 0.0239,
      "velocity": 107,
      "chip": "ym2612"
    },
    {
      "channel": 2,
      "note": 68,
      "start": 2.9823,
      "duration": 0.0184,
      "velocity": 91,
      "chip": "ym2612"
    },
    {
      "channel": 3,
      "note": 68,
      "start": 2.9833,
      "duration": 0.0183,
      "velocity": 76,
      "chip": "ym2612"
    },
    {
      "channel": 0,
      "note": 70,
      "start": 3.0261,
      "duration": 0.0823,
      "velocity": 107,
      "chip": "ym2612"
    },
    {
      "channel": 1,
      "note": 70,
      "start": 3.0265,
      "duration": 0.0822,
      "velocity": 107,
      "chip": "ym2612"
    },
    {
      "channel": 0,
      "note": 70,
      "start": 3.1593,
      "duration": 0.0824,
      "velocity": 107,
      "chip": "ym2612"
    },
    {
      "channel": 1,
      "note": 70,
      "start": 3.1596,
      "duration": 0.0824,
      "velocity": 107,
      "chip": "ym2612"
    },
    {
      "channel": 0,
      "note": 82,
      "start": 3.2927,
      "duration": 0.0824,
      "velocity": 107,
      "chip": "ym2612"
    },
    {
      "channel": 1,
      "note": 82,
      "start": 3.293,
      "duration": 0.0824,
      "velocity": 107,
      "chip": "ym2612"
    },
    {
      "channel": 0,
      "note": 70,
      "start": 3.4272,
      "duration": 0.0249,
      "velocity": 107,
      "chip": "ym2612"
    },
    {
      "channel": 1,
      "note": 70,
      "start": 3.4282,
      "duration": 0.0247,
      "velocity": 107,
      "chip": "ym2612"
    },
    {
      "channel": 0,
      "note": 70,
      "start": 3.4687,
      "duration": 0.0246,
      "velocity": 107,
      "chip": "ym2612"
    },
    {
      "channel": 1,
      "note": 70,
      "start": 3.4697,
      "duration": 0.0246,
      "velocity": 107,
      "chip": "ym2612"
    },
    {
      "channel": 0,
      "note": 89,
      "start": 3.5099,
      "duration": 0.0246,
      "velocity": 107,
      "chip": "ym2612"
    },
    {
      "channel": 1,
      "note": 89,
      "start": 3.5109,
      "duration": 0.0244,
      "velocity": 107,
      "chip": "ym2612"
    },
    {
      "channel": 0,
      "note": 82,
      "start": 3.5737,
      "duration": 0.082,
      "velocity": 107,
      "chip": "ym2612"
    },
    {
      "channel": 1,
      "note": 82,
      "start": 3.5741,
      "duration": 0.082,
      "velocity": 107,
      "chip": "ym2612"
    },
    {
      "channel": 4,
      "note": 67,
      "start": 3.5753,
      "duration": 0.0651,
      "velocity": 79,
      "chip": "ym2612"
    },
    {
      "channel": 0,
      "note": 70,
      "start": 3.7085,
      "duration": 0.0244,
      "velocity": 107,
      "chip": "ym2612"
    },
    {
      "channel": 1,
      "note": 70,
      "start": 3.7095,
      "duration": 0.0242,
      "velocity": 107,
      "chip": "ym2612"
    },
    {
      "channel": 2,
      "note": 68,
      "start": 3.7107,
      "duration": 0.0187,
      "velocity": 91,
      "chip": "ym2612"
    },
    {
      "channel": 3,
      "note": 68,
      "start": 3.7117,
      "duration": 0.0187,
      "velocity": 76,
      "chip": "ym2612"
    },
    {
      "channel": 0,
      "note": 70,
      "start": 3.7567,
      "duration": 0.0241,
      "velocity": 107,
      "chip": "ym2612"
    },
    {
      "channel": 1,
      "note": 70,
      "start": 3.7578,
      "duration": 0.0239,
      "velocity": 107,
      "chip": "ym2612"
    },
    {
      "channel": 2,
      "note": 68,
      "start": 3.759,
      "duration": 0.0185,
      "velocity": 91,
      "chip": "ym2612"
    },
    {
      "channel": 3,
      "note": 68,
      "start": 3.76,
      "duration": 0.0184,
      "velocity": 76,
      "chip": "ym2612"
    },
    {
      "channel": 0,
      "note": 82,
      "start": 3.8031,
      "duration": 0.0822,
      "velocity": 107,
      "chip": "ym2612"
    },
    {
      "channel": 1,
      "note": 82,
      "start": 3.8034,
      "duration": 0.0822,
      "velocity": 107,
      "chip": "ym2612"
    },
    {
      "channel": 0,
      "note": 70,
      "start": 3.9368,
      "duration": 0.0818,
      "velocity": 107,
      "chip": "ym2612"
    },
    {
      "channel": 1,
      "note": 70,
      "start": 3.9372,
      "duration": 0.0819,
      "velocity": 107,
      "chip": "ym2612"
    },
    {
      "channel": 2,
      "note": 56,
      "start": 3.9376,
      "duration": 0.0649,
      "velocity": 91,
      "chip": "ym2612"
    },
    {
      "channel": 3,
      "note": 56,
      "start": 3.9381,
      "duration": 0.0648,
      "velocity": 76,
      "chip": "ym2612"
    },
    {
      "channel": 0,
      "note": 70,
      "start": 4.0708,
      "duration": 0.0248,
      "velocity": 107,
      "chip": "ym2612"
    },
    {
      "channel": 1,
      "note": 70,
      "start": 4.0719,
      "duration": 0.0247,
      "velocity": 107,
      "chip": "ym2612"
    },
    {
      "channel": 0,
      "note": 82,
      "start": 4.113,
      "duration": 0.0243,
      "velocity": 107,
      "chip": "ym2612"
    },
    {
      "channel": 1,
      "note": 82,
      "start": 4.1141,
      "duration": 0.0241,
      "velocity": 107,
      "chip": "ym2612"
    },
    {
      "channel": 2,
      "note": 56,
      "start": 4.1152,
      "duration": 0.0188,
      "velocity": 91,
      "chip": "ym2612"
    },
    {
      "channel": 3,
      "note": 56,
      "start": 4.1163,
      "duration": 0.0187,
      "velocity": 76,
      "chip": "ym2612"
    },
    {
      "channel": 0,
      "note": 70,
      "start": 4.154,
      "duration": 0.0246,
      "velocity": 107,
      "chip": "ym2612"
    },
    {
      "channel": 1,
      "note": 70,
      "start": 4.1551,
      "duration": 0.0244,
      "velocity": 107,
      "chip": "ym2612"
    },
    {
      "channel": 0,
      "note": 70,
      "start": 4.1955,
      "duration": 0.0243,
      "velocity": 107,
      "chip": "ym2612"
    },
    {
      "channel": 1,
      "note": 70,
      "start": 4.1966,
      "duration": 0.0242,
      "velocity": 107,
      "chip": "ym2612"
    },
    {
      "channel": 2,
      "note": 56,
      "start": 4.1978,
      "duration": 0.0186,
      "velocity": 91,
      "chip": "ym2612"
    },
    {
      "channel": 3,
      "note": 56,
      "start": 4.1988,
      "duration": 0.0185,
      "velocity": 76,
      "chip": "ym2612"
    },
    {
      "channel": 0,
      "note": 82,
      "start": 4.2368,
      "duration": 0.0241,
      "velocity": 107,
      "chip": "ym2612"
    },
    {
      "channel": 1,
      "note": 82,
      "start": 4.2379,
      "duration": 0.0239,
      "velocity": 107,
      "chip": "ym2612"
    },
    {
      "channel": 2,
      "note": 68,
      "start": 4.2391,
      "duration": 0.0184,
      "velocity": 91,
      "chip": "ym2612"
    },
    {
      "channel": 3,
      "note": 68,
      "start": 4.2401,
      "duration": 0.0183,
      "velocity": 76,
      "chip": "ym2612"
    },
    {
      "channel": 0,
      "note": 70,
      "start": 4.2829,
      "duration": 0.0823,
      "velocity": 107,
      "chip": "ym2612"
    },
    {
      "channel": 1,
      "note": 70,
      "start": 4.2832,
      "duration": 0.0822,
      "velocity": 107,
      "chip": "ym2612"
    },
    {
      "channel": 0,
      "note": 70,
      "start": 4.4161,
      "duration": 0.0824,
      "velocity": 107,
      "chip": "ym2612"
    },
    {
      "channel": 1,
      "note": 70,
      "start": 4.4164,
      "duration": 0.0824,
      "velocity": 107,
      "chip": "ym2612"
    },
    {
      "channel": 0,
      "note": 82,
      "start": 4.5494,
      "duration": 0.0824,
      "velocity": 107,
      "chip": "ym2612"
    },
    {
      "channel": 1,
      "note": 82,
      "start": 4.5498,
      "duration": 0.0824,
      "velocity": 107,
      "chip": "ym2612"
    },
    {
      "channel": 0,
      "note": 70,
      "start": 4.6843,
      "duration": 0.0244,
      "velocity": 107,
      "chip": "ym2612"
    },
    {
      "channel": 1,
      "note": 70,
      "start": 4.6854,
      "duration": 0.0243,
      "velocity": 107,
      "chip": "ym2612"
    },
    {
      "channel": 4,
      "note": 51,
      "start": 4.6881,
      "duration": 0.0191,
      "velocity": 79,
      "chip": "ym2612"
    },
    {
      "channel": 0,
      "note": 70,
      "start": 4.7255,
      "duration": 0.0243,
      "velocity": 107,
      "chip": "ym2612"
    },
    {
      "channel": 1,
      "note": 70,
      "start": 4.7266,
      "duration": 0.0241,
      "velocity": 107,
      "chip": "ym2612"
    },
    {
      "channel": 4,
      "note": 52,
      "start": 4.7293,
      "duration": 0.0188,
      "velocity": 79,
      "chip": "ym2612"
    },
    {
      "channel": 0,
      "note": 89,
      "start": 4.7665,
      "duration": 0.0245,
      "velocity": 107,
      "chip": "ym2612"
    },
    {
      "channel": 1,
      "note": 89,
      "start": 4.7676,
      "duration": 0.0243,
      "velocity": 107,
      "chip": "ym2612"
    },
    {
      "channel": 4,
      "note": 53,
      "start": 4.7702,
      "duration": 0.0192,
      "velocity": 79,
      "chip": "ym2612"
    },
    {
      "channel": 0,
      "note": 82,
      "start": 4.8078,
      "duration": 0.0243,
      "velocity": 107,
      "chip": "ym2612"
    },
    {
      "channel": 1,
      "note": 82,
      "start": 4.8089,
      "duration": 0.0242,
      "velocity": 107,
      "chip": "ym2612"
    },
    {
      "channel": 4,
      "note": 55,
      "start": 4.8116,
      "duration": 0.019,
      "velocity": 79,
      "chip": "ym2612"
    },
    {
      "channel": 0,
      "note": 72,
      "start": 4.8492,
      "duration": 0.0243,
      "velocity": 107,
      "chip": "ym2612"
    },
    {
      "channel": 1,
      "note": 72,
      "start": 4.8502,
      "duration": 0.0242,
      "velocity": 107,
      "chip": "ym2612"
    },
    {
      "channel": 2,
      "note": 68,
      "start": 4.8514,
      "duration": 0.0185,
      "velocity": 91,
      "chip": "ym2612"
    },
    {
      "channel": 3,
      "note": 68,
      "start": 4.8524,
      "duration": 0.0184,
      "velocity": 76,
      "chip": "ym2612"
    },
    {
      "channel": 0,
      "note": 72,
      "start": 4.8976,
      "duration": 0.0242,
      "velocity": 107,
      "chip": "ym2612"
    },
    {
      "channel": 1,
      "note": 72,
      "start": 4.8987,
      "duration": 0.024,
      "velocity": 107,
      "chip": "ym2612"
    },
    {
      "channel": 2,
      "note": 68,
      "start": 4.8998,
      "duration": 0.0186,
      "velocity": 91,
      "chip": "ym2612"
    },
    {
      "channel": 3,
      "note": 68,
      "start": 4.9008,
      "duration": 0.0185,
      "velocity": 76,
      "chip": "ym2612"
    },
    {
      "channel": 0,
      "note": 84,
      "start": 4.9442,
      "duration": 0.0822,
      "velocity": 107,
      "chip": "ym2612"
    },
    {
      "channel": 1,
      "note": 84,
      "start": 4.9445,
      "duration": 0.0822,
      "velocity": 107,
      "chip": "ym2612"
    },
    {
      "channel": 0,
      "note": 72,
      "start": 5.078,
      "duration": 0.0818,
      "velocity": 107,
      "chip": "ym2612"
    },
    {
      "channel": 1,
      "note": 72,
      "start": 5.0783,
      "duration": 0.0819,
      "velocity": 107,
      "chip": "ym2612"
    },
    {
      "channel": 2,
      "note": 56,
      "start": 5.0787,
      "duration": 0.0649,
      "velocity": 91,
      "chip": "ym2612"
    },
    {
      "channel": 3,
      "note": 56,
      "start": 5.0793,
      "duration": 0.0648,
      "velocity": 76,
      "chip": "ym2612"
    },
    {
      "channel": 0,
      "note": 72,
      "start": 5.212,
      "duration": 0.0248,
      "velocity": 107,
      "chip": "ym2612"
    },
    {
      "channel": 1,
      "note": 72,
      "start": 5.213,
      "duration": 0.0247,
      "velocity": 107,
      "chip": "ym2612"
    },
    {
      "channel": 0,
      "note": 84,
      "start": 5.2542,
      "duration": 0.0243,
      "velocity": 107,
      "chip": "ym2612"
    },
    {
      "channel": 1,
      "note": 84,
      "start": 5.2552,
      "duration": 0.0241,
      "velocity": 107,
      "chip": "ym2612"
    },
    {
      "channel": 2,
      "note": 56,
      "start": 5.2564,
      "duration": 0.0188,
      "velocity": 91,
      "chip": "ym2612"
    },
    {
      "channel": 3,
      "note": 56,
      "start": 5.2574,
      "duration": 0.0187,
      "velocity": 76,
      "chip": "ym2612"
    },
    {
      "channel": 0,
      "note": 72,
      "start": 5.2952,
      "duration": 0.0246,
      "velocity": 107,
      "chip": "ym2612"
    },
    {
      "channel": 1,
      "note": 72,
      "start": 5.2962,
      "duration": 0.0244,
      "velocity": 107,
      "chip": "ym2612"
    },
    {
      "channel": 0,
      "note": 72,
      "start": 5.3366,
      "duration": 0.0243,
      "velocity": 107,
      "chip": "ym2612"
    },
    {
      "channel": 1,
      "note": 72,
      "start": 5.3377,
      "duration": 0.0242,
      "velocity": 107,
      "chip": "ym2612"
    },
    {
      "channel": 2,
      "note": 56,
      "start": 5.3389,
      "duration": 0.0186,
      "velocity": 91,
      "chip": "ym2612"
    },
    {
      "channel": 3,
      "note": 56,
      "start": 5.34,
      "duration": 0.0185,
      "velocity": 76,
      "chip": "ym2612"
    },
    {
      "channel": 0,
      "note": 84,
      "start": 5.378,
      "duration": 0.0241,
      "velocity": 107,
      "chip": "ym2612"
    },
    {
      "channel": 1,
      "note": 84,
      "start": 5.3791,
      "duration": 0.0239,
      "velocity": 107,
      "chip": "ym2612"
    },
    {
      "channel": 2,
      "note": 68,
      "start": 5.3802,
      "duration": 0.0184,
      "velocity": 91,
      "chip": "ym2612"
    },
    {
      "channel": 3,
      "note": 68,
      "start": 5.3812,
      "duration": 0.0183,
      "velocity": 76,
      "chip": "ym2612"
    },
    {
      "channel": 0,
      "note": 72,
      "start": 5.424,
      "duration": 0.0823,
      "velocity": 107,
      "chip": "ym2612"
    },
    {
      "channel": 1,
      "note": 72,
      "start": 5.4244,
      "duration": 0.0822,
      "velocity": 107,
      "chip": "ym2612"
    },
    {
      "channel": 0,
      "note": 72,
      "start": 5.5572,
      "duration": 0.0824,
      "velocity": 107,
      "chip": "ym2612"
    },
    {
      "channel": 1,
      "note": 72,
      "start": 5.5575,
      "duration": 0.0824,
      "velocity": 107,
      "chip": "ym2612"
    },
    {
      "channel": 0,
      "note": 84,
      "start": 5.6905,
      "duration": 0.0824,
      "velocity": 107,
      "chip": "ym2612"
    },
    {
      "channel": 1,
      "note": 84,
      "start": 5.6909,
      "duration": 0.0824,
      "velocity": 107,
      "chip": "ym2612"
    },
    {
      "channel": 0,
      "note": 72,
      "start": 5.8251,
      "duration": 0.0247,
      "velocity": 107,
      "chip": "ym2612"
    },
    {
      "channel": 1,
      "note": 72,
      "start": 5.8262,
      "duration": 0.0245,
      "velocity": 107,
      "chip": "ym2612"
    },
    {
      "channel": 0,
      "note": 72,
      "start": 5.8664,
      "duration": 0.0247,
      "velocity": 107,
      "chip": "ym2612"
    },
    {
      "channel": 1,
      "note": 72,
      "start": 5.8674,
      "duration": 0.0246,
      "velocity": 107,
      "chip": "ym2612"
    },
    {
      "channel": 0,
      "note": 91,
      "start": 5.9077,
      "duration": 0.0244,
      "velocity": 107,
      "chip": "ym2612"
    },
    {
      "channel": 1,
      "note": 91,
      "start": 5.9087,
      "duration": 0.0243,
      "velocity": 107,
      "chip": "ym2612"
    },
    {
      "channel": 0,
      "note": 84,
      "start": 5.9713,
      "duration": 0.082,
      "velocity": 107,
      "chip": "ym2612"
    },
    {
      "channel": 1,
      "note": 84,
      "start": 5.9717,
      "duration": 0.082,
      "velocity": 107,
      "chip": "ym2612"
    },
    {
      "channel": 4,
      "note": 65,
      "start": 5.9729,
      "duration": 0.0651,
      "velocity": 79,
      "chip": "ym2612"
    },
    {
      "channel": 0,
      "note": 72,
      "start": 6.1061,
      "duration": 0.0245,
      "velocity": 107,
      "chip": "ym2612"
    },
    {
      "channel": 1,
      "note": 72,
      "start": 6.1071,
      "duration": 0.0243,
      "velocity": 107,
      "chip": "ym2612"
    },
    {
      "channel": 2,
      "note": 68,
      "start": 6.1083,
      "duration": 0.0188,
      "velocity": 91,
      "chip": "ym2612"
    },
    {
      "channel": 3,
      "note": 68,
      "start": 6.1093,
      "duration": 0.0187,
      "velocity": 76,
      "chip": "ym2612"
    },
    {
      "channel": 0,
      "note": 72,
      "start": 6.1545,
      "duration": 0.0242,
      "velocity": 107,
      "chip": "ym2612"
    },
    {
      "channel": 1,
      "note": 72,
      "start": 6.1556,
      "duration": 0.024,
      "velocity": 107,
      "chip": "ym2612"
    },
    {
      "channel": 2,
      "note": 68,
      "start": 6.1568,
      "duration": 0.0186,
      "velocity": 91,
      "chip": "ym2612"
    },
    {
      "channel": 3,
      "note": 68,
      "start": 6.1578,
      "duration": 0.0185,
      "velocity": 76,
      "chip": "ym2612"
    },
    {
      "channel": 0,
      "note": 84,
      "start": 6.2011,
      "duration": 0.0822,
      "velocity": 107,
      "chip": "ym2612"
    },
    {
      "channel": 1,
      "note": 84,
      "start": 6.2014,
      "duration": 0.0822,
      "velocity": 107,
      "chip": "ym2612"
    },
    {
      "channel": 0,
      "note": 72,
      "start": 6.3349,
      "duration": 0.0818,
      "velocity": 107,
      "chip": "ym2612"
    },
    {
      "channel": 1,
      "note": 72,
      "start": 6.3352,
      "duration": 0.0819,
      "velocity": 107,
      "chip": "ym2612"
    },
    {
      "channel": 2,
      "note": 56,
      "start": 6.3356,
      "duration": 0.0649,
      "velocity": 91,
      "chip": "ym2612"
    },
    {
      "channel": 3,
      "note": 56,
      "start": 6.3362,
      "duration": 0.0648,
      "velocity": 76,
      "chip": "ym2612"
    },
    {
      "channel": 0,
      "note": 72,
      "start": 6.4689,
      "duration": 0.0248,
      "velocity": 107,
      "chip": "ym2612"
    },
    {
      "channel": 1,
      "note": 72,
      "start": 6.4699,
      "duration": 0.0247,
      "velocity": 107,
      "chip": "ym2612"
    },
    {
      "channel": 0,
      "note": 84,
      "start": 6.5111,
      "duration": 0.0243,
      "velocity": 107,
      "chip": "ym2612"
    },
    {
      "channel": 1,
      "note": 84,
      "start": 6.5121,
      "duration": 0.0241,
      "velocity": 107,
      "chip": "ym2612"
    },
    {
      "channel": 2,
      "note": 56,
      "start": 6.5133,
      "duration": 0.0188,
      "velocity": 91,
      "chip": "ym2612"
    },
    {
      "channel": 3,
      "note": 56,
      "start": 6.5144,
      "duration": 0.0187,
      "velocity": 76,
      "chip": "ym2612"
    },
    {
      "channel": 0,
      "note": 72,
      "start": 6.5521,
      "duration": 0.0246,
      "velocity": 107,
      "chip": "ym2612"
    },
    {
      "channel": 1,
      "note": 72,
      "start": 6.5532,
      "duration": 0.0244,
      "velocity": 107,
      "chip": "ym2612"
    },
    {
      "channel": 0,
      "note": 72,
      "start": 6.5936,
      "duration": 0.0243,
      "velocity": 107,
      "chip": "ym2612"
    },
    {
      "channel": 1,
      "note": 72,
      "start": 6.5946,
      "duration": 0.0242,
      "velocity": 107,
      "chip": "ym2612"
    },
    {
      "channel": 2,
      "note": 56,
      "start": 6.5959,
      "duration": 0.0186,
      "velocity": 91,
      "chip": "ym2612"
    },
    {
      "channel": 3,
      "note": 56,
      "start": 6.5969,
      "duration": 0.0185,
      "velocity": 76,
      "chip": "ym2612"
    },
    {
      "channel": 0,
      "note": 84,
      "start": 6.6349,
      "duration": 0.0241,
      "velocity": 107,
      "chip": "ym2612"
    },
    {
      "channel": 1,
      "note": 84,
      "start": 6.636,
      "duration": 0.0239,
      "velocity": 107,
      "chip": "ym2612"
    },
    {
      "channel": 2,
      "note": 68,
      "start": 6.6371,
      "duration": 0.0184,
      "velocity": 91,
      "chip": "ym2612"
    },
    {
      "channel": 3,
      "note": 68,
      "start": 6.6381,
      "duration": 0.0183,
      "velocity": 76,
      "chip": "ym2612"
    },
    {
      "channel": 0,
      "note": 72,
      "start": 6.6809,
      "duration": 0.0823,
      "velocity": 107,
      "chip": "ym2612"
    },
    {
      "channel": 1,
      "note": 72,
      "start": 6.6813,
      "duration": 0.0822,
      "velocity": 107,
      "chip": "ym2612"
    },
    {
      "channel": 0,
      "note": 72,
      "start": 6.8141,
      "duration": 0.0824,
      "velocity": 107,
      "chip": "ym2612"
    },
    {
      "channel": 1,
      "note": 72,
      "start": 6.8144,
      "duration": 0.0824,
      "velocity": 107,
      "chip": "ym2612"
    },
    {
      "channel": 0,
      "note": 84,
      "start": 6.9475,
      "duration": 0.0824,
      "velocity": 107,
      "chip": "ym2612"
    },
    {
      "channel": 1,
      "note": 84,
      "start": 6.9478,
      "duration": 0.0824,
      "velocity": 107,
      "chip": "ym2612"
    },
    {
      "channel": 0,
      "note": 72,
      "start": 7.0823,
      "duration": 0.0245,
      "velocity": 107,
      "chip": "ym2612"
    },
    {
      "channel": 1,
      "note": 72,
      "start": 7.0834,
      "duration": 0.0244,
      "velocity": 107,
      "chip": "ym2612"
    },
    {
      "channel": 4,
      "note": 50,
      "start": 7.0861,
      "duration": 0.019,
      "velocity": 79,
      "chip": "ym2612"
    },
    {
      "channel": 0,
      "note": 72,
      "start": 7.1237,
      "duration": 0.0243,
      "velocity": 107,
      "chip": "ym2612"
    },
    {
      "channel": 1,
      "note": 72,
      "start": 7.1248,
      "duration": 0.0241,
      "velocity": 107,
      "chip": "ym2612"
    },
    {
      "channel": 4,
      "note": 51,
      "start": 7.1275,
      "duration": 0.0189,
      "velocity": 79,
      "chip": "ym2612"
    },
    {
      "channel": 0,
      "note": 91,
      "start": 7.1646,
      "duration": 0.0245,
      "velocity": 107,
      "chip": "ym2612"
    },
    {
      "channel": 1,
      "note": 91,
      "start": 7.1657,
      "duration": 0.0243,
      "velocity": 107,
      "chip": "ym2612"
    },
    {
      "channel": 4,
      "note": 52,
      "start": 7.1683,
      "duration": 0.0191,
      "velocity": 79,
      "chip": "ym2612"
    },
    {
      "channel": 0,
      "note": 84,
      "start": 7.2286,
      "duration": 0.082,
      "velocity": 107,
      "chip": "ym2612"
    },
    {
      "channel": 1,
      "note": 84,
      "start": 7.2289,
      "duration": 0.082,
      "velocity": 107,
      "chip": "ym2612"
    },
    {
      "channel": 4,
      "note": 53,
      "start": 7.2302,
      "duration": 0.065,
      "velocity": 79,
      "chip": "ym2612"
    },
    {
      "channel": 0,
      "note": 70,
      "start": 7.3633,
      "duration": 0.0244,
      "velocity": 107,
      "chip": "ym2612"
    },
    {
      "channel": 1,
      "note": 70,
      "start": 7.3644,
      "duration": 0.0242,
      "velocity": 107,
      "chip": "ym2612"
    },
    {
      "channel": 2,
      "note": 68,
      "start": 7.3656,
      "duration": 0.0187,
      "velocity": 91,
      "chip": "ym2612"
    },
    {
      "channel": 3,
      "note": 68,
      "start": 7.3666,
      "duration": 0.0187,
      "velocity": 76,
      "chip": "ym2612"
    },
    {
      "channel": 0,
      "note": 70,
      "start": 7.4116,
      "duration": 0.0241,
      "velocity": 107,
      "chip": "ym2612"
    },
    {
      "channel": 1,
      "note": 70,
      "start": 7.4127,
      "duration": 0.0239,
      "velocity": 107,
      "chip": "ym2612"
    },
    {
      "channel": 2,
      "note": 68,
      "start": 7.4138,
      "duration": 0.0185,
      "velocity": 91,
      "chip": "ym2612"
    },
    {
      "channel": 3,
      "note": 68,
      "start": 7.4148,
      "duration": 0.0184,
      "velocity": 76,
      "chip": "ym2612"
    },
    {
      "channel": 0,
      "note": 82,
      "start": 7.4579,
      "duration": 0.0822,
      "velocity": 107,
      "chip": "ym2612"
    },
    {
      "channel": 1,
      "note": 82,
      "start": 7.4582,
      "duration": 0.0822,
      "velocity": 107,
      "chip": "ym2612"
    },
    {
      "channel": 0,
      "note": 70,
      "start": 7.5917,
      "duration": 0.0818,
      "velocity": 107,
      "chip": "ym2612"
    },
    {
      "channel": 1,
      "note": 70,
      "start": 7.592,
      "duration": 0.0819,
      "velocity": 107,
      "chip": "ym2612"
    },
    {
      "channel": 2,
      "note": 56,
      "start": 7.5924,
      "duration": 0.0649,
      "velocity": 91,
      "chip": "ym2612"
    },
    {
      "channel": 3,
      "note": 56,
      "start": 7.593,
      "duration": 0.0648,
      "velocity": 76,
      "chip": "ym2612"
    },
    {
      "channel": 0,
      "note": 70,
      "start": 7.7257,
      "duration": 0.0248,
      "velocity": 107,
      "chip": "ym2612"
    },
    {
      "channel": 1,
      "note": 70,
      "start": 7.7267,
      "duration": 0.0247,
      "velocity": 107,
      "chip": "ym2612"
    },
    {
      "channel": 0,
      "note": 82,
      "start": 7.7679,
      "duration": 0.0243,
      "velocity": 107,
      "chip": "ym2612"
    },
    {
      "channel": 1,
      "note": 82,
      "start": 7.7689,
      "duration": 0.0241,
      "velocity": 107,
      "chip": "ym2612"
    },
    {
      "channel": 2,
      "note": 56,
      "start": 7.7701,
      "duration": 0.0188,
      "velocity": 91,
      "chip": "ym2612"
    },
    {
      "channel": 3,
      "note": 56,
      "start": 7.7712,
      "duration": 0.0187,
      "velocity": 76,
      "chip": "ym2612"
    },
    {
      "channel": 0,
      "note": 70,
      "start": 7.8089,
      "duration": 0.0246,
      "velocity": 107,
      "chip": "ym2612"
    },
    {
      "channel": 1,
      "note": 70,
      "start": 7.81,
      "duration": 0.0244,
      "velocity": 107,
      "chip": "ym2612"
    },
    {
      "channel": 0,
      "note": 70,
      "start": 7.8504,
      "duration": 0.0243,
      "velocity": 107,
      "chip": "ym2612"
    },
    {
      "channel": 1,
      "note": 70,
      "start": 7.8514,
      "duration": 0.0242,
      "velocity": 107,
      "chip": "ym2612"
    },
    {
      "channel": 2,
      "note": 56,
      "start": 7.8527,
      "duration": 0.0186,
      "velocity": 91,
      "chip": "ym2612"
    },
    {
      "channel": 3,
      "note": 56,
      "start": 7.8537,
      "duration": 0.0185,
      "velocity": 76,
      "chip": "ym2612"
    },
    {
      "channel": 0,
      "note": 82,
      "start": 7.8917,
      "duration": 0.0241,
      "velocity": 107,
      "chip": "ym2612"
    },
    {
      "channel": 1,
      "note": 82,
      "start": 7.8928,
      "duration": 0.0239,
      "velocity": 107,
      "chip": "ym2612"
    },
    {
      "channel": 2,
      "note": 68,
      "start": 7.8939,
      "duration": 0.0184,
      "velocity": 91,
      "chip": "ym2612"
    },
    {
      "channel": 3,
      "note": 68,
      "start": 7.8949,
      "duration": 0.0183,
      "velocity": 76,
      "chip": "ym2612"
    },
    {
      "channel": 0,
      "note": 70,
      "start": 7.9377,
      "duration": 0.0823,
      "velocity": 107,
      "chip": "ym2612"
    },
    {
      "channel": 1,
      "note": 70,
      "start": 7.9381,
      "duration": 0.0822,
      "velocity": 107,
      "chip": "ym2612"
    },
    {
      "channel": 0,
      "note": 70,
      "start": 8.0709,
      "duration": 0.0824,
      "velocity": 107,
      "chip": "ym2612"
    },
    {
      "channel": 1,
      "note": 70,
      "start": 8.0712,
      "duration": 0.0824,
      "velocity": 107,
      "chip": "ym2612"
    },
    {
      "channel": 0,
      "note": 82,
      "start": 8.2043,
      "duration": 0.0824,
      "velocity": 107,
      "chip": "ym2612"
    },
    {
      "channel": 1,
      "note": 82,
      "start": 8.2046,
      "duration": 0.0824,
      "velocity": 107,
      "chip": "ym2612"
    },
    {
      "channel": 0,
      "note": 70,
      "start": 8.3388,
      "duration": 0.0249,
      "velocity": 107,
      "chip": "ym2612"
    },
    {
      "channel": 1,
      "note": 70,
      "start": 8.3398,
      "duration": 0.0247,
      "velocity": 107,
      "chip": "ym2612"
    },
    {
      "channel": 0,
      "note": 70,
      "start": 8.3803,
      "duration": 0.0246,
      "velocity": 107,
      "chip": "ym2612"
    },
    {
      "channel": 1,
      "note": 70,
      "start": 8.3813,
      "duration": 0.0246,
      "velocity": 107,
      "chip": "ym2612"
    },
    {
      "channel": 0,
      "note": 89,
      "start": 8.4215,
      "duration": 0.0246,
      "velocity": 107,
      "chip": "ym2612"
    },
    {
      "channel": 1,
      "note": 89,
      "start": 8.4225,
      "duration": 0.0244,
      "velocity": 107,
      "chip": "ym2612"
    },
    {
      "channel": 0,
      "note": 82,
      "start": 8.4853,
      "duration": 0.082,
      "velocity": 107,
      "chip": "ym2612"
    },
    {
      "channel": 1,
      "note": 82,
      "start": 8.4857,
      "duration": 0.082,
      "velocity": 107,
      "chip": "ym2612"
    },
    {
      "channel": 4,
      "note": 65,
      "start": 8.4869,
      "duration": 0.0651,
      "velocity": 79,
      "chip": "ym2612"
    },
    {
      "channel": 0,
      "note": 70,
      "start": 8.6201,
      "duration": 0.0244,
      "velocity": 107,
      "chip": "ym2612"
    },
    {
      "channel": 1,
      "note": 70,
      "start": 8.6211,
      "duration": 0.0242,
      "velocity": 107,
      "chip": "ym2612"
    },
    {
      "channel": 2,
      "note": 68,
      "start": 8.6223,
      "duration": 0.0187,
      "velocity": 91,
      "chip": "ym2612"
    },
    {
      "channel": 3,
      "note": 68,
      "start": 8.6233,
      "duration": 0.0187,
      "velocity": 76,
      "chip": "ym2612"
    },
    {
      "channel": 0,
      "note": 70,
      "start": 8.6683,
      "duration": 0.0241,
      "velocity": 107,
      "chip": "ym2612"
    },
    {
      "channel": 1,
      "note": 70,
      "start": 8.6694,
      "duration": 0.0239,
      "velocity": 107,
      "chip": "ym2612"
    },
    {
      "channel": 2,
      "note": 68,
      "start": 8.6706,
      "duration": 0.0185,
      "velocity": 91,
      "chip": "ym2612"
    },
    {
      "channel": 3,
      "note": 68,
      "start": 8.6716,
      "duration": 0.0184,
      "velocity": 76,
      "chip": "ym2612"
    },
    {
      "channel": 0,
      "note": 82,
      "start": 8.7147,
      "duration": 0.0822,
      "velocity": 107,
      "chip": "ym2612"
    },
    {
      "channel": 1,
      "note": 82,
      "start": 8.715,
      "duration": 0.0822,
      "velocity": 107,
      "chip": "ym2612"
    },
    {
      "channel": 0,
      "note": 70,
      "start": 8.8485,
      "duration": 0.0818,
      "velocity": 107,
      "chip": "ym2612"
    },
    {
      "channel": 1,
      "note": 70,
      "start": 8.8488,
      "duration": 0.0819,
      "velocity": 107,
      "chip": "ym2612"
    },
    {
      "channel": 2,
      "note": 56,
      "start": 8.8492,
      "duration": 0.0649,
      "velocity": 91,
      "chip": "ym2612"
    },
    {
      "channel": 3,
      "note": 56,
      "start": 8.8497,
      "duration": 0.0648,
      "velocity": 76,
      "chip": "ym2612"
    },
    {
      "channel": 0,
      "note": 70,
      "start": 8.9824,
      "duration": 0.0248,
      "velocity": 107,
      "chip": "ym2612"
    },
    {
      "channel": 1,
      "note": 70,
      "start": 8.9835,
      "duration": 0.0247,
      "velocity": 107,
      "chip": "ym2612"
    },
    {
      "channel": 0,
      "note": 82,
      "start": 9.0246,
      "duration": 0.0243,
      "velocity": 107,
      "chip": "ym2612"
    },
    {
      "channel": 1,
      "note": 82,
      "start": 9.0257,
      "duration": 0.0241,
      "velocity": 107,
      "chip": "ym2612"
    },
    {
      "channel": 2,
      "note": 56,
      "start": 9.0268,
      "duration": 0.0188,
      "velocity": 91,
      "chip": "ym2612"
    },
    {
      "channel": 3,
      "note": 56,
      "start": 9.0279,
      "duration": 0.0187,
      "velocity": 76,
      "chip": "ym2612"
    },
    {
      "channel": 0,
      "note": 70,
      "start": 9.0656,
      "duration": 0.0246,
      "velocity": 107,
      "chip": "ym2612"
    },
    {
      "channel": 1,
      "note": 70,
      "start": 9.0667,
      "duration": 0.0244,
      "velocity": 107,
      "chip": "ym2612"
    },
    {
      "channel": 0,
      "note": 70,
      "start": 9.1071,
      "duration": 0.0243,
      "velocity": 107,
      "chip": "ym2612"
    },
    {
      "channel": 1,
      "note": 70,
      "start": 9.1082,
      "duration": 0.0242,
      "velocity": 107,
      "chip": "ym2612"
    },
    {
      "channel": 2,
      "note": 56,
      "start": 9.1094,
      "duration": 0.0186,
      "velocity": 91,
      "chip": "ym2612"
    },
    {
      "channel": 3,
      "note": 56,
      "start": 9.1105,
      "duration": 0.0185,
      "velocity": 76,
      "chip": "ym2612"
    },
    {
      "channel": 0,
      "note": 82,
      "start": 9.1484,
      "duration": 0.0241,
      "velocity": 107,
      "chip": "ym2612"
    },
    {
      "channel": 1,
      "note": 82,
      "start": 9.1495,
      "duration": 0.0239,
      "velocity": 107,
      "chip": "ym2612"
    },
    {
      "channel": 2,
      "note": 68,
      "start": 9.1507,
      "duration": 0.0184,
      "velocity": 91,
      "chip": "ym2612"
    },
    {
      "channel": 3,
      "note": 68,
      "start": 9.1517,
      "duration": 0.0183,
      "velocity": 76,
      "chip": "ym2612"
    },
    {
      "channel": 0,
      "note": 70,
      "start": 9.1945,
      "duration": 0.0823,
      "velocity": 107,
      "chip": "ym2612"
    },
    {
      "channel": 1,
      "note": 70,
      "start": 9.1949,
      "duration": 0.0822,
      "velocity": 107,
      "chip": "ym2612"
    },
    {
      "channel": 0,
      "note": 70,
      "start": 9.3277,
      "duration": 0.0824,
      "velocity": 107,
      "chip": "ym2612"
    },
    {
      "channel": 1,
      "note": 70,
      "start": 9.328,
      "duration": 0.0824,
      "velocity": 107,
      "chip": "ym2612"
    },
    {
      "channel": 0,
      "note": 82,
      "start": 9.461,
      "duration": 0.0824,
      "velocity": 107,
      "chip": "ym2612"
    },
    {
      "channel": 1,
      "note": 82,
      "start": 9.4614,
      "duration": 0.0824,
      "velocity": 107,
      "chip": "ym2612"
    },
    {
      "channel": 0,
      "note": 70,
      "start": 9.5959,
      "duration": 0.0244,
      "velocity": 107,
      "chip": "ym2612"
    },
    {
      "channel": 1,
      "note": 70,
      "start": 9.597,
      "duration": 0.0243,
      "velocity": 107,
      "chip": "ym2612"
    },
    {
      "channel": 4,
      "note": 50,
      "start": 9.5997,
      "duration": 0.0191,
      "velocity": 79,
      "chip": "ym2612"
    },
    {
      "channel": 0,
      "note": 70,
      "start": 9.6371,
      "duration": 0.0243,
      "velocity": 107,
      "chip": "ym2612"
    },
    {
      "channel": 1,
      "note": 70,
      "start": 9.6382,
      "duration": 0.0241,
      "velocity": 107,
      "chip": "ym2612"
    },
    {
      "channel": 4,
      "note": 51,
      "start": 9.6409,
      "duration": 0.0188,
      "velocity": 79,
      "chip": "ym2612"
    },
    {
      "channel": 0,
      "note": 89,
      "start": 9.6781,
      "duration": 0.0245,
      "velocity": 107,
      "chip": "ym2612"
    },
    {
      "channel": 1,
      "note": 89,
      "start": 9.6792,
      "duration": 0.0243,
      "velocity": 107,
      "chip": "ym2612"
    },
    {
      "channel": 4,
      "note": 52,
      "start": 9.6818,
      "duration": 0.0192,
      "velocity": 79,
      "chip": "ym2612"
    },
    {
      "channel": 0,
      "note": 82,
      "start": 9.7194,
      "duration": 0.0243,
      "velocity": 107,
      "chip": "ym2612"
    },
    {
      "channel": 1,
      "note": 82,
      "start": 9.7204,
      "duration": 0.0243,
      "velocity": 107,
      "chip": "ym2612"
    },
    {
      "channel": 4,
      "note": 53,
      "start": 9.7232,
      "duration": 0.019,
      "velocity": 79,
      "chip": "ym2612"
    },
    {
      "channel": 0,
      "note": 72,
      "start": 9.7608,
      "duration": 0.0243,
      "velocity": 107,
      "chip": "ym2612"
    },
    {
      "channel": 1,
      "note": 72,
      "start": 9.7618,
      "duration": 0.0242,
      "velocity": 107,
      "chip": "ym2612"
    },
    {
      "channel": 2,
      "note": 68,
      "start": 9.763,
      "duration": 0.0185,
      "velocity": 91,
      "chip": "ym2612"
    },
    {
      "channel": 3,
      "note": 68,
      "start": 9.7641,
      "duration": 0.0184,
      "velocity": 76,
      "chip": "ym2612"
    },
    {
      "channel": 0,
      "note": 72,
      "start": 9.8092,
      "duration": 0.0242,
      "velocity": 107,
      "chip": "ym2612"
    },
    {
      "channel": 1,
      "note": 72,
      "start": 9.8103,
      "duration": 0.024,
      "velocity": 107,
      "chip": "ym2612"
    },
    {
      "channel": 2,
      "note": 68,
      "start": 9.8115,
      "duration": 0.0186,
      "velocity": 91,
      "chip": "ym2612"
    },
    {
      "channel": 3,
      "note": 68,
      "start": 9.8124,
      "duration": 0.0185,
      "velocity": 76,
      "chip": "ym2612"
    },
    {
      "channel": 0,
      "note": 84,
      "start": 9.8558,
      "duration": 0.0822,
      "velocity": 107,
      "chip": "ym2612"
    },
    {
      "channel": 1,
      "note": 84,
      "start": 9.8561,
      "duration": 0.0822,
      "velocity": 107,
      "chip": "ym2612"
    },
    {
      "channel": 0,
      "note": 72,
      "start": 9.9896,
      "duration": 0.0818,
      "velocity": 107,
      "chip": "ym2612"
    },
    {
      "channel": 1,
      "note": 72,
      "start": 9.9899,
      "duration": 0.0819,
      "velocity": 107,
      "chip": "ym2612"
    },
    {
      "channel": 2,
      "note": 56,
      "start": 9.9903,
      "duration": 0.0649,
      "velocity": 91,
      "chip": "ym2612"
    },
    {
      "channel": 3,
      "note": 56,
      "start": 9.9909,
      "duration": 0.0648,
      "velocity": 76,
      "chip": "ym2612"
    },
    {
      "channel": 0,
      "note": 72,
      "start": 10.1236,
      "duration": 0.0248,
      "velocity": 107,
      "chip": "ym2612"
    },
    {
      "channel": 1,
      "note": 72,
      "start": 10.1246,
      "duration": 0.0247,
      "velocity": 107,
      "chip": "ym2612"
    },
    {
      "channel": 0,
      "note": 84,
      "start": 10.1658,
      "duration": 0.0243,
      "velocity": 107,
      "chip": "ym2612"
    },
    {
      "channel": 1,
      "note": 84,
      "start": 10.1668,
      "duration": 0.0241,
      "velocity": 107,
      "chip": "ym2612"
    },
    {
      "channel": 2,
      "note": 56,
      "start": 10.168,
      "duration": 0.0188,
      "velocity": 91,
      "chip": "ym2612"
    },
    {
      "channel": 3,
      "note": 56,
      "start": 10.169,
      "duration": 0.0187,
      "velocity": 76,
      "chip": "ym2612"
    },
    {
      "channel": 0,
      "note": 72,
      "start": 10.2068,
      "duration": 0.0246,
      "velocity": 107,
      "chip": "ym2612"
    },
    {
      "channel": 1,
      "note": 72,
      "start": 10.2078,
      "duration": 0.0244,
      "velocity": 107,
      "chip": "ym2612"
    },
    {
      "channel": 0,
      "note": 72,
      "start": 10.2483,
      "duration": 0.0243,
      "velocity": 107,
      "chip": "ym2612"
    },
    {
      "channel": 1,
      "note": 72,
      "start": 10.2493,
      "duration": 0.0242,
      "velocity": 107,
      "chip": "ym2612"
    },
    {
      "channel": 2,
      "note": 56,
      "start": 10.2505,
      "duration": 0.0186,
      "velocity": 91,
      "chip": "ym2612"
    },
    {
      "channel": 3,
      "note": 56,
      "start": 10.2516,
      "duration": 0.0185,
      "velocity": 76,
      "chip": "ym2612"
    },
    {
      "channel": 0,
      "note": 84,
      "start": 10.2896,
      "duration": 0.0241,
      "velocity": 107,
      "chip": "ym2612"
    },
    {
      "channel": 1,
      "note": 84,
      "start": 10.2907,
      "duration": 0.0239,
      "velocity": 107,
      "chip": "ym2612"
    },
    {
      "channel": 2,
      "note": 68,
      "start": 10.2918,
      "duration": 0.0184,
      "velocity": 91,
      "chip": "ym2612"
    },
    {
      "channel": 3,
      "note": 68,
      "start": 10.2928,
      "duration": 0.0183,
      "velocity": 76,
      "chip": "ym2612"
    },
    {
      "channel": 0,
      "note": 72,
      "start": 10.3356,
      "duration": 0.0823,
      "velocity": 107,
      "chip": "ym2612"
    },
    {
      "channel": 1,
      "note": 72,
      "start": 10.336,
      "duration": 0.0822,
      "velocity": 107,
      "chip": "ym2612"
    },
    {
      "channel": 0,
      "note": 72,
      "start": 10.4688,
      "duration": 0.0824,
      "velocity": 107,
      "chip": "ym2612"
    },
    {
      "channel": 1,
      "note": 72,
      "start": 10.4691,
      "duration": 0.0824,
      "velocity": 107,
      "chip": "ym2612"
    },
    {
      "channel": 0,
      "note": 84,
      "start": 10.6022,
      "duration": 0.0824,
      "velocity": 107,
      "chip": "ym2612"
    },
    {
      "channel": 1,
      "note": 84,
      "start": 10.6025,
      "duration": 0.0824,
      "velocity": 107,
      "chip": "ym2612"
    },
    {
      "channel": 0,
      "note": 72,
      "start": 10.7367,
      "duration": 0.0247,
      "velocity": 107,
      "chip": "ym2612"
    },
    {
      "channel": 1,
      "note": 72,
      "start": 10.7378,
      "duration": 0.0245,
      "velocity": 107,
      "chip": "ym2612"
    },
    {
      "channel": 0,
      "note": 72,
      "start": 10.778,
      "duration": 0.0247,
      "velocity": 107,
      "chip": "ym2612"
    },
    {
      "channel": 1,
      "note": 72,
      "start": 10.779,
      "duration": 0.0246,
      "velocity": 107,
      "chip": "ym2612"
    },
    {
      "channel": 0,
      "note": 91,
      "start": 10.8193,
      "duration": 0.0244,
      "velocity": 107,
      "chip": "ym2612"
    },
    {
      "channel": 1,
      "note": 91,
      "start": 10.8203,
      "duration": 0.0243,
      "velocity": 107,
      "chip": "ym2612"
    },
    {
      "channel": 0,
      "note": 84,
      "start": 10.8829,
      "duration": 0.082,
      "velocity": 107,
      "chip": "ym2612"
    },
    {
      "channel": 1,
      "note": 84,
      "start": 10.8833,
      "duration": 0.082,
      "velocity": 107,
      "chip": "ym2612"
    },
    {
      "channel": 4,
      "note": 67,
      "start": 10.8845,
      "duration": 0.0651,
      "velocity": 79,
      "chip": "ym2612"
    },
    {
      "channel": 0,
      "note": 72,
      "start": 11.0177,
      "duration": 0.0245,
      "velocity": 107,
      "chip": "ym2612"
    },
    {
      "channel": 1,
      "note": 72,
      "start": 11.0187,
      "duration": 0.0243,
      "velocity": 107,
      "chip": "ym2612"
    },
    {
      "channel": 2,
      "note": 68,
      "start": 11.0199,
      "duration": 0.0188,
      "velocity": 91,
      "chip": "ym2612"
    },
    {
      "channel": 3,
      "note": 68,
      "start": 11.0209,
      "duration": 0.0187,
      "velocity": 76,
      "chip": "ym2612"
    },
    {
      "channel": 0,
      "note": 72,
      "start": 11.0661,
      "duration": 0.0242,
      "velocity": 107,
      "chip": "ym2612"
    },
    {
      "channel": 1,
      "note": 72,
      "start": 11.0672,
      "duration": 0.024,
      "velocity": 107,
      "chip": "ym2612"
    },
    {
      "channel": 2,
      "note": 68,
      "start": 11.0684,
      "duration": 0.0186,
      "velocity": 91,
      "chip": "ym2612"
    },
    {
      "channel": 3,
      "note": 68,
      "start": 11.0694,
      "duration": 0.0185,
      "velocity": 76,
      "chip": "ym2612"
    },
    {
      "channel": 0,
      "note": 84,
      "start": 11.1127,
      "duration": 0.0822,
      "velocity": 107,
      "chip": "ym2612"
    },
    {
      "channel": 1,
      "note": 84,
      "start": 11.113,
      "duration": 0.0822,
      "velocity": 107,
      "chip": "ym2612"
    },
    {
      "channel": 0,
      "note": 72,
      "start": 11.2465,
      "duration": 0.0818,
      "velocity": 107,
      "chip": "ym2612"
    },
    {
      "channel": 1,
      "note": 72,
      "start": 11.2468,
      "duration": 0.0819,
      "velocity": 107,
      "chip": "ym2612"
    },
    {
      "channel": 2,
      "note": 56,
      "start": 11.2473,
      "duration": 0.0649,
      "velocity": 91,
      "chip": "ym2612"
    },
    {
      "channel": 3,
      "note": 56,
      "start": 11.2478,
      "duration": 0.0648,
      "velocity": 76,
      "chip": "ym2612"
    },
    {
      "channel": 0,
      "note": 72,
      "start": 11.3805,
      "duration": 0.0248,
      "velocity": 107,
      "chip": "ym2612"
    },
    {
      "channel": 1,
      "note": 72,
      "start": 11.3815,
      "duration": 0.0247,
      "velocity": 107,
      "chip": "ym2612"
    },
    {
      "channel": 0,
      "note": 84,
      "start": 11.4227,
      "duration": 0.0243,
      "velocity": 107,
      "chip": "ym2612"
    },
    {
      "channel": 1,
      "note": 84,
      "start": 11.4237,
      "duration": 0.0241,
      "velocity": 107,
      "chip": "ym2612"
    },
    {
      "channel": 2,
      "note": 56,
      "start": 11.4249,
      "duration": 0.0188,
      "velocity": 91,
      "chip": "ym2612"
    },
    {
      "channel": 3,
      "note": 56,
      "start": 11.426,
      "duration": 0.0187,
      "velocity": 76,
      "chip": "ym2612"
    },
    {
      "channel": 0,
      "note": 72,
      "start": 11.4637,
      "duration": 0.0246,
      "velocity": 107,
      "chip": "ym2612"
    },
    {
      "channel": 1,
      "note": 72,
      "start": 11.4648,
      "duration": 0.0244,
      "velocity": 107,
      "chip": "ym2612"
    },
    {
      "channel": 0,
      "note": 72,
      "start": 11.5052,
      "duration": 0.0243,
      "velocity": 107,
      "chip": "ym2612"
    },
    {
      "channel": 1,
      "note": 72,
      "start": 11.5062,
      "duration": 0.0242,
      "velocity": 107,
      "chip": "ym2612"
    },
    {
      "channel": 2,
      "note": 56,
      "start": 11.5075,
      "duration": 0.0186,
      "velocity": 91,
      "chip": "ym2612"
    },
    {
      "channel": 3,
      "note": 56,
      "start": 11.5085,
      "duration": 0.0185,
      "velocity": 76,
      "chip": "ym2612"
    },
    {
      "channel": 0,
      "note": 84,
      "start": 11.5465,
      "duration": 0.0241,
      "velocity": 107,
      "chip": "ym2612"
    },
    {
      "channel": 1,
      "note": 84,
      "start": 11.5476,
      "duration": 0.0239,
      "velocity": 107,
      "chip": "ym2612"
    },
    {
      "channel": 2,
      "note": 68,
      "start": 11.5488,
      "duration": 0.0184,
      "velocity": 91,
      "chip": "ym2612"
    },
    {
      "channel": 3,
      "note": 68,
      "start": 11.5498,
      "duration": 0.0183,
      "velocity": 76,
      "chip": "ym2612"
    },
    {
      "channel": 0,
      "note": 72,
      "start": 11.5925,
      "duration": 0.0823,
      "velocity": 107,
      "chip": "ym2612"
    },
    {
      "channel": 1,
      "note": 72,
      "start": 11.5929,
      "duration": 0.0822,
      "velocity": 107,
      "chip": "ym2612"
    },
    {
      "channel": 0,
      "note": 72,
      "start": 11.7257,
      "duration": 0.0824,
      "velocity": 107,
      "chip": "ym2612"
    },
    {
      "channel": 1,
      "note": 72,
      "start": 11.7261,
      "duration": 0.0824,
      "velocity": 107,
      "chip": "ym2612"
    },
    {
      "channel": 0,
      "note": 84,
      "start": 11.8591,
      "duration": 0.0824,
      "velocity": 107,
      "chip": "ym2612"
    },
    {
      "channel": 1,
      "note": 84,
      "start": 11.8594,
      "duration": 0.0824,
      "velocity": 107,
      "chip": "ym2612"
    },
    {
      "channel": 0,
      "note": 72,
      "start": 11.9939,
      "duration": 0.0245,
      "velocity": 107,
      "chip": "ym2612"
    },
    {
      "channel": 1,
      "note": 72,
      "start": 11.995,
      "duration": 0.0244,
      "velocity": 107,
      "chip": "ym2612"
    },
    {
      "channel": 4,
      "note": 51,
      "start": 11.9978,
      "duration": 0.019,
      "velocity": 79,
      "chip": "ym2612"
    },
    {
      "channel": 0,
      "note": 72,
      "start": 12.0353,
      "duration": 0.0243,
      "velocity": 107,
      "chip": "ym2612"
    },
    {
      "channel": 1,
      "note": 72,
      "start": 12.0364,
      "duration": 0.0241,
      "velocity": 107,
      "chip": "ym2612"
    },
    {
      "channel": 4,
      "note": 52,
      "start": 12.0391,
      "duration": 0.0189,
      "velocity": 79,
      "chip": "ym2612"
    },
    {
      "channel": 0,
      "note": 91,
      "start": 12.0762,
      "duration": 0.0245,
      "velocity": 107,
      "chip": "ym2612"
    },
    {
      "channel": 1,
      "note": 91,
      "start": 12.0773,
      "duration": 0.0243,
      "velocity": 107,
      "chip": "ym2612"
    },
    {
      "channel": 4,
      "note": 53,
      "start": 12.0799,
      "duration": 0.0191,
      "velocity": 79,
      "chip": "ym2612"
    },
    {
      "channel": 0,
      "note": 84,
      "start": 12.1402,
      "duration": 0.082,
      "velocity": 107,
      "chip": "ym2612"
    },
    {
      "channel": 1,
      "note": 84,
      "start": 12.1405,
      "duration": 0.082,
      "velocity": 107,
      "chip": "ym2612"
    },
    {
      "channel": 4,
      "note": 55,
      "start": 12.1419,
      "duration": 0.065,
      "velocity": 79,
      "chip": "ym2612"
    },
    {
      "channel": 0,
      "note": 70,
      "start": 12.2749,
      "duration": 0.0244,
      "velocity": 107,
      "chip": "ym2612"
    },
    {
      "channel": 1,
      "note": 70,
      "start": 12.276,
      "duration": 0.0242,
      "velocity": 107,
      "chip": "ym2612"
    },
    {
      "channel": 2,
      "note": 68,
      "start": 12.2772,
      "duration": 0.0187,
      "velocity": 91,
      "chip": "ym2612"
    },
    {
      "channel": 3,
      "note": 68,
      "start": 12.2782,
      "duration": 0.0187,
      "velocity": 76,
      "chip": "ym2612"
    },
    {
      "channel": 0,
      "note": 70,
      "start": 12.3232,
      "duration": 0.0241,
      "velocity": 107,
      "chip": "ym2612"
    },
    {
      "channel": 1,
      "note": 70,
      "start": 12.3243,
      "duration": 0.0239,
      "velocity": 107,
      "chip": "ym2612"
    },
    {
      "channel": 2,
      "note": 68,
      "start": 12.3254,
      "duration": 0.0185,
      "velocity": 91,
      "chip": "ym2612"
    },
    {
      "channel": 3,
      "note": 68,
      "start": 12.3264,
      "duration": 0.0184,
      "velocity": 76,
      "chip": "ym2612"
    },
    {
      "channel": 0,
      "note": 82,
      "start": 12.3695,
      "duration": 0.0822,
      "velocity": 107,
      "chip": "ym2612"
    },
    {
      "channel": 1,
      "note": 82,
      "start": 12.3698,
      "duration": 0.0822,
      "velocity": 107,
      "chip": "ym2612"
    },
    {
      "channel": 0,
      "note": 70,
      "start": 12.5033,
      "duration": 0.0818,
      "velocity": 107,
      "chip": "ym2612"
    },
    {
      "channel": 1,
      "note": 70,
      "start": 12.5036,
      "duration": 0.0819,
      "velocity": 107,
      "chip": "ym2612"
    },
    {
      "channel": 2,
      "note": 56,
      "start": 12.5041,
      "duration": 0.0649,
      "velocity": 91,
      "chip": "ym2612"
    },
    {
      "channel": 3,
      "note": 56,
      "start": 12.5046,
      "duration": 0.0648,
      "velocity": 76,
      "chip": "ym2612"
    },
    {
      "channel": 0,
      "note": 70,
      "start": 12.6373,
      "duration": 0.0248,
      "velocity": 107,
      "chip": "ym2612"
    },
    {
      "channel": 1,
      "note": 70,
      "start": 12.6383,
      "duration": 0.0247,
      "velocity": 107,
      "chip": "ym2612"
    },
    {
      "channel": 0,
      "note": 82,
      "start": 12.6795,
      "duration": 0.0243,
      "velocity": 107,
      "chip": "ym2612"
    },
    {
      "channel": 1,
      "note": 82,
      "start": 12.6805,
      "duration": 0.0241,
      "velocity": 107,
      "chip": "ym2612"
    },
    {
      "channel": 2,
      "note": 56,
      "start": 12.6817,
      "duration": 0.0188,
      "velocity": 91,
      "chip": "ym2612"
    },
    {
      "channel": 3,
      "note": 56,
      "start": 12.6828,
      "duration": 0.0187,
      "velocity": 76,
      "chip": "ym2612"
    },
    {
      "channel": 0,
      "note": 70,
      "start": 12.7205,
      "duration": 0.0246,
      "velocity": 107,
      "chip": "ym2612"
    },
    {
      "channel": 1,
      "note": 70,
      "start": 12.7216,
      "duration": 0.0244,
      "velocity": 107,
      "chip": "ym2612"
    },
    {
      "channel": 0,
      "note": 70,
      "start": 12.762,
      "duration": 0.0243,
      "velocity": 107,
      "chip": "ym2612"
    },
    {
      "channel": 1,
      "note": 70,
      "start": 12.763,
      "duration": 0.0242,
      "velocity": 107,
      "chip": "ym2612"
    },
    {
      "channel": 2,
      "note": 56,
      "start": 12.7643,
      "duration": 0.0186,
      "velocity": 91,
      "chip": "ym2612"
    },
    {
      "channel": 3,
      "note": 56,
      "start": 12.7653,
      "duration": 0.0185,
      "velocity": 76,
      "chip": "ym2612"
    },
    {
      "channel": 0,
      "note": 82,
      "start": 12.8033,
      "duration": 0.0241,
      "velocity": 107,
      "chip": "ym2612"
    },
    {
      "channel": 1,
      "note": 82,
      "start": 12.8044,
      "duration": 0.0239,
      "velocity": 107,
      "chip": "ym2612"
    },
    {
      "channel": 2,
      "note": 68,
      "start": 12.8056,
      "duration": 0.0184,
      "velocity": 91,
      "chip": "ym2612"
    },
    {
      "channel": 3,
      "note": 68,
      "start": 12.8066,
      "duration": 0.0183,
      "velocity": 76,
      "chip": "ym2612"
    },
    {
      "channel": 0,
      "note": 70,
      "start": 12.8493,
      "duration": 0.0823,
      "velocity": 107,
      "chip": "ym2612"
    },
    {
      "channel": 1,
      "note": 70,
      "start": 12.8497,
      "duration": 0.0822,
      "velocity": 107,
      "chip": "ym2612"
    },
    {
      "channel": 0,
      "note": 70,
      "start": 12.9825,
      "duration": 0.0824,
      "velocity": 107,
      "chip": "ym2612"
    },
    {
      "channel": 1,
      "note": 70,
      "start": 12.9829,
      "duration": 0.0824,
      "velocity": 107,
      "chip": "ym2612"
    },
    {
      "channel": 0,
      "note": 82,
      "start": 13.1159,
      "duration": 0.0824,
      "velocity": 107,
      "chip": "ym2612"
    },
    {
      "channel": 1,
      "note": 82,
      "start": 13.1162,
      "duration": 0.0824,
      "velocity": 107,
      "chip": "ym2612"
    },
    {
      "channel": 0,
      "note": 70,
      "start": 13.2504,
      "duration": 0.0249,
      "velocity": 107,
      "chip": "ym2612"
    },
    {
      "channel": 1,
      "note": 70,
      "start": 13.2515,
      "duration": 0.0247,
      "velocity": 107,
      "chip": "ym2612"
    },
    {
      "channel": 0,
      "note": 70,
      "start": 13.2919,
      "duration": 0.0246,
      "velocity": 107,
      "chip": "ym2612"
    },
    {
      "channel": 1,
      "note": 70,
      "start": 13.2929,
      "duration": 0.0246,
      "velocity": 107,
      "chip": "ym2612"
    },
    {
      "channel": 0,
      "note": 89,
      "start": 13.3331,
      "duration": 0.0246,
      "velocity": 107,
      "chip": "ym2612"
    },
    {
      "channel": 1,
      "note": 89,
      "start": 13.3341,
      "duration": 0.0244,
      "velocity": 107,
      "chip": "ym2612"
    },
    {
      "channel": 0,
      "note": 82,
      "start": 13.3969,
      "duration": 0.082,
      "velocity": 107,
      "chip": "ym2612"
    },
    {
      "channel": 1,
      "note": 82,
      "start": 13.3973,
      "duration": 0.082,
      "velocity": 107,
      "chip": "ym2612"
    },
    {
      "channel": 4,
      "note": 67,
      "start": 13.3985,
      "duration": 0.0651,
      "velocity": 79,
      "chip": "ym2612"
    },
    {
      "channel": 0,
      "note": 70,
      "start": 13.5317,
      "duration": 0.0244,
      "velocity": 107,
      "chip": "ym2612"
    },
    {
      "channel": 1,
      "note": 70,
      "start": 13.5327,
      "duration": 0.0242,
      "velocity": 107,
      "chip": "ym2612"
    },
    {
      "channel": 2,
      "note": 68,
      "start": 13.5339,
      "duration": 0.0187,
      "velocity": 91,
      "chip": "ym2612"
    },
    {
      "channel": 3,
      "note": 68,
      "start": 13.5349,
      "duration": 0.0187,
      "velocity": 76,
      "chip": "ym2612"
    },
    {
      "channel": 0,
      "note": 70,
      "start": 13.58,
      "duration": 0.0241,
      "velocity": 107,
      "chip": "ym2612"
    },
    {
      "channel": 1,
      "note": 70,
      "start": 13.581,
      "duration": 0.0239,
      "velocity": 107,
      "chip": "ym2612"
    },
    {
      "channel": 2,
      "note": 68,
      "start": 13.5822,
      "duration": 0.0185,
      "velocity": 91,
      "chip": "ym2612"
    },
    {
      "channel": 3,
      "note": 68,
      "start": 13.5832,
      "duration": 0.0184,
      "velocity": 76,
      "chip": "ym2612"
    },
    {
      "channel": 0,
      "note": 82,
      "start": 13.6263,
      "duration": 0.0822,
      "velocity": 107,
      "chip": "ym2612"
    },
    {
      "channel": 1,
      "note": 82,
      "start": 13.6266,
      "duration": 0.0822,
      "velocity": 107,
      "chip": "ym2612"
    },
    {
      "channel": 0,
      "note": 70,
      "start": 13.7601,
      "duration": 0.0818,
      "velocity": 107,
      "chip": "ym2612"
    },
    {
      "channel": 1,
      "note": 70,
      "start": 13.7604,
      "duration": 0.0819,
      "velocity": 107,
      "chip": "ym2612"
    },
    {
      "channel": 2,
      "note": 56,
      "start": 13.7608,
      "duration": 0.0649,
      "velocity": 91,
      "chip": "ym2612"
    },
    {
      "channel": 3,
      "note": 56,
      "start": 13.7613,
      "duration": 0.0648,
      "velocity": 76,
      "chip": "ym2612"
    },
    {
      "channel": 0,
      "note": 70,
      "start": 13.8941,
      "duration": 0.0248,
      "velocity": 107,
      "chip": "ym2612"
    },
    {
      "channel": 1,
      "note": 70,
      "start": 13.8951,
      "duration": 0.0247,
      "velocity": 107,
      "chip": "ym2612"
    },
    {
      "channel": 0,
      "note": 82,
      "start": 13.9363,
      "duration": 0.0243,
      "velocity": 107,
      "chip": "ym2612"
    },
    {
      "channel": 1,
      "note": 82,
      "start": 13.9373,
      "duration": 0.0241,
      "velocity": 107,
      "chip": "ym2612"
    },
    {
      "channel": 2,
      "note": 56,
      "start": 13.9385,
      "duration": 0.0188,
      "velocity": 91,
      "chip": "ym2612"
    },
    {
      "channel": 3,
      "note": 56,
      "start": 13.9395,
      "duration": 0.0187,
      "velocity": 76,
      "chip": "ym2612"
    },
    {
      "channel": 0,
      "note": 70,
      "start": 13.9773,
      "duration": 0.0246,
      "velocity": 107,
      "chip": "ym2612"
    },
    {
      "channel": 1,
      "note": 70,
      "start": 13.9783,
      "duration": 0.0244,
      "velocity": 107,
      "chip": "ym2612"
    },
    {
      "channel": 0,
      "note": 70,
      "start": 14.0187,
      "duration": 0.0243,
      "velocity": 107,
      "chip": "ym2612"
    },
    {
      "channel": 1,
      "note": 70,
      "start": 14.0198,
      "duration": 0.0242,
      "velocity": 107,
      "chip": "ym2612"
    },
    {
      "channel": 2,
      "note": 56,
      "start": 14.021,
      "duration": 0.0186,
      "velocity": 91,
      "chip": "ym2612"
    },
    {
      "channel": 3,
      "note": 56,
      "start": 14.0221,
      "duration": 0.0185,
      "velocity": 76,
      "chip": "ym2612"
    },
    {
      "channel": 0,
      "note": 82,
      "start": 14.06,
      "duration": 0.0241,
      "velocity": 107,
      "chip": "ym2612"
    },
    {
      "channel": 1,
      "note": 82,
      "start": 14.0612,
      "duration": 0.0239,
      "velocity": 107,
      "chip": "ym2612"
    },
    {
      "channel": 2,
      "note": 68,
      "start": 14.0623,
      "duration": 0.0184,
      "velocity": 91,
      "chip": "ym2612"
    },
    {
      "channel": 3,
      "note": 68,
      "start": 14.0633,
      "duration": 0.0183,
      "velocity": 76,
      "chip": "ym2612"
    },
    {
      "channel": 0,
      "note": 70,
      "start": 14.1061,
      "duration": 0.0823,
      "velocity": 107,
      "chip": "ym2612"
    },
    {
      "channel": 1,
      "note": 70,
      "start": 14.1065,
      "duration": 0.0822,
      "velocity": 107,
      "chip": "ym2612"
    },
    {
      "channel": 0,
      "note": 70,
      "start": 14.2393,
      "duration": 0.0824,
      "velocity": 107,
      "chip": "ym2612"
    },
    {
      "channel": 1,
      "note": 70,
      "start": 14.2396,
      "duration": 0.0824,
      "velocity": 107,
      "chip": "ym2612"
    },
    {
      "channel": 0,
      "note": 82,
      "start": 14.3726,
      "duration": 0.0824,
      "velocity": 107,
      "chip": "ym2612"
    },
    {
      "channel": 1,
      "note": 82,
      "start": 14.373,
      "duration": 0.0824,
      "velocity": 107,
      "chip": "ym2612"
    },
    {
      "channel": 0,
      "note": 70,
      "start": 14.5075,
      "duration": 0.0244,
      "velocity": 107,
      "chip": "ym2612"
    },
    {
      "channel": 1,
      "note": 70,
      "start": 14.5086,
      "duration": 0.0243,
      "velocity": 107,
      "chip": "ym2612"
    },
    {
      "channel": 4,
      "note": 51,
      "start": 14.5113,
      "duration": 0.0191,
      "velocity": 79,
      "chip": "ym2612"
    },
    {
      "channel": 0,
      "note": 70,
      "start": 14.5487,
      "duration": 0.0243,
      "velocity": 107,
      "chip": "ym2612"
    },
    {
      "channel": 1,
      "note": 70,
      "start": 14.5498,
      "duration": 0.0241,
      "velocity": 107,
      "chip": "ym2612"
    },
    {
      "channel": 4,
      "note": 52,
      "start": 14.5525,
      "duration": 0.0188,
      "velocity": 79,
      "chip": "ym2612"
    },
    {
      "channel": 0,
      "note": 89,
      "start": 14.5897,
      "duration": 0.0245,
      "velocity": 107,
      "chip": "ym2612"
    },
    {
      "channel": 1,
      "note": 89,
      "start": 14.5908,
      "duration": 0.0243,
      "velocity": 107,
      "chip": "ym2612"
    },
    {
      "channel": 4,
      "note": 53,
      "start": 14.5934,
      "duration": 0.0192,
      "velocity": 79,
      "chip": "ym2612"
    },
    {
      "channel": 0,
      "note": 82,
      "start": 14.631,
      "duration": 0.0243,
      "velocity": 107,
      "chip": "ym2612"
    },
    {
      "channel": 1,
      "note": 82,
      "start": 14.6321,
      "duration": 0.0242,
      "velocity": 107,
      "chip": "ym2612"
    },
    {
      "channel": 4,
      "note": 55,
      "start": 14.6348,
      "duration": 0.019,
      "velocity": 79,
      "chip": "ym2612"
    },
    {
      "channel": 0,
      "note": 72,
      "start": 14.6724,
      "duration": 0.0243,
      "velocity": 107,
      "chip": "ym2612"
    },
    {
      "channel": 1,
      "note": 72,
      "start": 14.6734,
      "duration": 0.0242,
      "velocity": 107,
      "chip": "ym2612"
    },
    {
      "channel": 2,
      "note": 68,
      "start": 14.6746,
      "duration": 0.0185,
      "velocity": 91,
      "chip": "ym2612"
    },
    {
      "channel": 3,
      "note": 68,
      "start": 14.6757,
      "duration": 0.0184,
      "velocity": 76,
      "chip": "ym2612"
    },
    {
      "channel": 0,
      "note": 72,
      "start": 14.7208,
      "duration": 0.0242,
      "velocity": 107,
      "chip": "ym2612"
    },
    {
      "channel": 1,
      "note": 72,
      "start": 14.7219,
      "duration": 0.024,
      "velocity": 107,
      "chip": "ym2612"
    },
    {
      "channel": 2,
      "note": 68,
      "start": 14.7231,
      "duration": 0.0186,
      "velocity": 91,
      "chip": "ym2612"
    },
    {
      "channel": 3,
      "note": 68,
      "start": 14.7241,
      "duration": 0.0185,
      "velocity": 76,
      "chip": "ym2612"
    },
    {
      "channel": 0,
      "note": 84,
      "start": 14.7674,
      "duration": 0.0822,
      "velocity": 107,
      "chip": "ym2612"
    },
    {
      "channel": 1,
      "note": 84,
      "start": 14.7677,
      "duration": 0.0822,
      "velocity": 107,
      "chip": "ym2612"
    },
    {
      "channel": 0,
      "note": 72,
      "start": 14.9012,
      "duration": 0.0818,
      "velocity": 107,
      "chip": "ym2612"
    },
    {
      "channel": 1,
      "note": 72,
      "start": 14.9015,
      "duration": 0.0819,
      "velocity": 107,
      "chip": "ym2612"
    },
    {
      "channel": 2,
      "note": 56,
      "start": 14.902,
      "duration": 0.0649,
      "velocity": 91,
      "chip": "ym2612"
    },
    {
      "channel": 3,
      "note": 56,
      "start": 14.9025,
      "duration": 0.0648,
      "velocity": 76,
      "chip": "ym2612"
    },
    {
      "channel": 0,
      "note": 72,
      "start": 15.0352,
      "duration": 0.0248,
      "velocity": 107,
      "chip": "ym2612"
    },
    {
      "channel": 1,
      "note": 72,
      "start": 15.0362,
      "duration": 0.0247,
      "velocity": 107,
      "chip": "ym2612"
    },
    {
      "channel": 0,
      "note": 84,
      "start": 15.0774,
      "duration": 0.0243,
      "velocity": 107,
      "chip": "ym2612"
    },
    {
      "channel": 1,
      "note": 84,
      "start": 15.0784,
      "duration": 0.0241,
      "velocity": 107,
      "chip": "ym2612"
    },
    {
      "channel": 2,
      "note": 56,
      "start": 15.0796,
      "duration": 0.0188,
      "velocity": 91,
      "chip": "ym2612"
    },
    {
      "channel": 3,
      "note": 56,
      "start": 15.0807,
      "duration": 0.0187,
      "velocity": 76,
      "chip": "ym2612"
    },
    {
      "channel": 0,
      "note": 72,
      "start": 15.1184,
      "duration": 0.0246,
      "velocity": 107,
      "chip": "ym2612"
    },
    {
      "channel": 1,
      "note": 72,
      "start": 15.1195,
      "duration": 0.0244,
      "velocity": 107,
      "chip": "ym2612"
    },
    {
      "channel": 0,
      "note": 72,
      "start": 15.1599,
      "duration": 0.0243,
      "velocity": 107,
      "chip": "ym2612"
    },
    {
      "channel": 1,
      "note": 72,
      "start": 15.1609,
      "duration": 0.0242,
      "velocity": 107,
      "chip": "ym2612"
    },
    {
      "channel": 2,
      "note": 56,
      "start": 15.1622,
      "duration": 0.0186,
      "velocity": 91,
      "chip": "ym2612"
    },
    {
      "channel": 3,
      "note": 56,
      "start": 15.1632,
      "duration": 0.0185,
      "velocity": 76,
      "chip": "ym2612"
    },
    {
      "channel": 0,
      "note": 84,
      "start": 15.2012,
      "duration": 0.0241,
      "velocity": 107,
      "chip": "ym2612"
    },
    {
      "channel": 1,
      "note": 84,
      "start": 15.2023,
      "duration": 0.0239,
      "velocity": 107,
      "chip": "ym2612"
    },
    {
      "channel": 2,
      "note": 68,
      "start": 15.2034,
      "duration": 0.0184,
      "velocity": 91,
      "chip": "ym2612"
    },
    {
      "channel": 3,
      "note": 68,
      "start": 15.2044,
      "duration": 0.0183,
      "velocity": 76,
      "chip": "ym2612"
    },
    {
      "channel": 0,
      "note": 72,
      "start": 15.2472,
      "duration": 0.0823,
      "velocity": 107,
      "chip": "ym2612"
    },
    {
      "channel": 1,
      "note": 72,
      "start": 15.2476,
      "duration": 0.0822,
      "velocity": 107,
      "chip": "ym2612"
    },
    {
      "channel": 0,
      "note": 72,
      "start": 15.3804,
      "duration": 0.0824,
      "velocity": 107,
      "chip": "ym2612"
    },
    {
      "channel": 1,
      "note": 72,
      "start": 15.3807,
      "duration": 0.0824,
      "velocity": 107,
      "chip": "ym2612"
    },
    {
      "channel": 0,
      "note": 84,
      "start": 15.5138,
      "duration": 0.0824,
      "velocity": 107,
      "chip": "ym2612"
    },
    {
      "channel": 1,
      "note": 84,
      "start": 15.5141,
      "duration": 0.0824,
      "velocity": 107,
      "chip": "ym2612"
    },
    {
      "channel": 0,
      "note": 72,
      "start": 15.6483,
      "duration": 0.0247,
      "velocity": 107,
      "chip": "ym2612"
    },
    {
      "channel": 1,
      "note": 72,
      "start": 15.6494,
      "duration": 0.0245,
      "velocity": 107,
      "chip": "ym2612"
    },
    {
      "channel": 0,
      "note": 72,
      "start": 15.6896,
      "duration": 0.0247,
      "velocity": 107,
      "chip": "ym2612"
    },
    {
      "channel": 1,
      "note": 72,
      "start": 15.6906,
      "duration": 0.0246,
      "velocity": 107,
      "chip": "ym2612"
    },
    {
      "channel": 0,
      "note": 91,
      "start": 15.7309,
      "duration": 0.0244,
      "velocity": 107,
      "chip": "ym2612"
    },
    {
      "channel": 1,
      "note": 91,
      "start": 15.732,
      "duration": 0.0243,
      "velocity": 107,
      "chip": "ym2612"
    },
    {
      "channel": 0,
      "note": 84,
      "start": 15.7945,
      "duration": 0.082,
      "velocity": 107,
      "chip": "ym2612"
    },
    {
      "channel": 1,
      "note": 84,
      "start": 15.7949,
      "duration": 0.082,
      "velocity": 107,
      "chip": "ym2612"
    },
    {
      "channel": 4,
      "note": 65,
      "start": 15.7961,
      "duration": 0.0651,
      "velocity": 79,
      "chip": "ym2612"
    },
    {
      "channel": 0,
      "note": 72,
      "start": 15.9293,
      "duration": 0.0245,
      "velocity": 107,
      "chip": "ym2612"
    },
    {
      "channel": 1,
      "note": 72,
      "start": 15.9303,
      "duration": 0.0243,
      "velocity": 107,
      "chip": "ym2612"
    },
    {
      "channel": 2,
      "note": 68,
      "start": 15.9315,
      "duration": 0.0188,
      "velocity": 91,
      "chip": "ym2612"
    },
    {
      "channel": 3,
      "note": 68,
      "start": 15.9325,
      "duration": 0.0187,
      "velocity": 76,
      "chip": "ym2612"
    },
    {
      "channel": 0,
      "note": 72,
      "start": 15.9778,
      "duration": 0.0242,
      "velocity": 107,
      "chip": "ym2612"
    },
    {
      "channel": 1,
      "note": 72,
      "start": 15.9788,
      "duration": 0.024,
      "velocity": 107,
      "chip": "ym2612"
    },
    {
      "channel": 2,
      "note": 68,
      "start": 15.98,
      "duration": 0.0186,
      "velocity": 91,
      "chip": "ym2612"
    },
    {
      "channel": 3,
      "note": 68,
      "start": 15.981,
      "duration": 0.0185,
      "velocity": 76,
      "chip": "ym2612"
    },
    {
      "channel": 0,
      "note": 84,
      "start": 16.0243,
      "duration": 0.0822,
      "velocity": 107,
      "chip": "ym2612"
    },
    {
      "channel": 1,
      "note": 84,
      "start": 16.0246,
      "duration": 0.0822,
      "velocity": 107,
      "chip": "ym2612"
    },
    {
      "channel": 0,
      "note": 72,
      "start": 16.1581,
      "duration": 0.0818,
      "velocity": 107,
      "chip": "ym2612"
    },
    {
      "channel": 1,
      "note": 72,
      "start": 16.1584,
      "duration": 0.0819,
      "velocity": 107,
      "chip": "ym2612"
    },
    {
      "channel": 2,
      "note": 56,
      "start": 16.1589,
      "duration": 0.0649,
      "velocity": 91,
      "chip": "ym2612"
    },
    {
      "channel": 3,
      "note": 56,
      "start": 16.1594,
      "duration": 0.0648,
      "velocity": 76,
      "chip": "ym2612"
    },
    {
      "channel": 0,
      "note": 72,
      "start": 16.2921,
      "duration": 0.0248,
      "velocity": 107,
      "chip": "ym2612"
    },
    {
      "channel": 1,
      "note": 72,
      "start": 16.2932,
      "duration": 0.0247,
      "velocity": 107,
      "chip": "ym2612"
    },
    {
      "channel": 0,
      "note": 84,
      "start": 16.3343,
      "duration": 0.0243,
      "velocity": 107,
      "chip": "ym2612"
    },
    {
      "channel": 1,
      "note": 84,
      "start": 16.3354,
      "duration": 0.0241,
      "velocity": 107,
      "chip": "ym2612"
    },
    {
      "channel": 2,
      "note": 56,
      "start": 16.3365,
      "duration": 0.0188,
      "velocity": 91,
      "chip": "ym2612"
    },
    {
      "channel": 3,
      "note": 56,
      "start": 16.3376,
      "duration": 0.0187,
      "velocity": 76,
      "chip": "ym2612"
    },
    {
      "channel": 0,
      "note": 72,
      "start": 16.3753,
      "duration": 0.0246,
      "velocity": 107,
      "chip": "ym2612"
    },
    {
      "channel": 1,
      "note": 72,
      "start": 16.3764,
      "duration": 0.0244,
      "velocity": 107,
      "chip": "ym2612"
    },
    {
      "channel": 0,
      "note": 72,
      "start": 16.4168,
      "duration": 0.0243,
      "velocity": 107,
      "chip": "ym2612"
    },
    {
      "channel": 1,
      "note": 72,
      "start": 16.4178,
      "duration": 0.0242,
      "velocity": 107,
      "chip": "ym2612"
    },
    {
      "channel": 2,
      "note": 56,
      "start": 16.4191,
      "duration": 0.0186,
      "velocity": 91,
      "chip": "ym2612"
    },
    {
      "channel": 3,
      "note": 56,
      "start": 16.4201,
      "duration": 0.0185,
      "velocity": 76,
      "chip": "ym2612"
    },
    {
      "channel": 0,
      "note": 84,
      "start": 16.4581,
      "duration": 0.0241,
      "velocity": 107,
      "chip": "ym2612"
    },
    {
      "channel": 1,
      "note": 84,
      "start": 16.4592,
      "duration": 0.0239,
      "velocity": 107,
      "chip": "ym2612"
    },
    {
      "channel": 2,
      "note": 68,
      "start": 16.4604,
      "duration": 0.0184,
      "velocity": 91,
      "chip": "ym2612"
    },
    {
      "channel": 3,
      "note": 68,
      "start": 16.4614,
      "duration": 0.0183,
      "velocity": 76,
      "chip": "ym2612"
    },
    {
      "channel": 0,
      "note": 72,
      "start": 16.5041,
      "duration": 0.0823,
      "velocity": 107,
      "chip": "ym2612"
    },
    {
      "channel": 1,
      "note": 72,
      "start": 16.5045,
      "duration": 0.0822,
      "velocity": 107,
      "chip": "ym2612"
    },
    {
      "channel": 0,
      "note": 72,
      "start": 16.6373,
      "duration": 0.0824,
      "velocity": 107,
      "chip": "ym2612"
    },
    {
      "channel": 1,
      "note": 72,
      "start": 16.6377,
      "duration": 0.0824,
      "velocity": 107,
      "chip": "ym2612"
    },
    {
      "channel": 0,
      "note": 84,
      "start": 16.7707,
      "duration": 0.0824,
      "velocity": 107,
      "chip": "ym2612"
    },
    {
      "channel": 1,
      "note": 84,
      "start": 16.771,
      "duration": 0.0824,
      "velocity": 107,
      "chip": "ym2612"
    },
    {
      "channel": 0,
      "note": 72,
      "start": 16.9056,
      "duration": 0.0245,
      "velocity": 107,
      "chip": "ym2612"
    },
    {
      "channel": 1,
      "note": 72,
      "start": 16.9066,
      "duration": 0.0244,
      "velocity": 107,
      "chip": "ym2612"
    },
    {
      "channel": 4,
      "note": 50,
      "start": 16.9094,
      "duration": 0.019,
      "velocity": 79,
      "chip": "ym2612"
    },
    {
      "channel": 0,
      "note": 72,
      "start": 16.9469,
      "duration": 0.0243,
      "velocity": 107,
      "chip": "ym2612"
    },
    {
      "channel": 1,
      "note": 72,
      "start": 16.948,
      "duration": 0.0241,
      "velocity": 107,
      "chip": "ym2612"
    },
    {
      "channel": 4,
      "note": 51,
      "start": 16.9507,
      "duration": 0.0189,
      "velocity": 79,
      "chip": "ym2612"
    },
    {
      "channel": 0,
      "note": 91,
      "start": 16.9878,
      "duration": 0.0245,
      "velocity": 107,
      "chip": "ym2612"
    },
    {
      "channel": 1,
      "note": 91,
      "start": 16.9889,
      "duration": 0.0243,
      "velocity": 107,
      "chip": "ym2612"
    },
    {
      "channel": 4,
      "note": 52,
      "start": 16.9915,
      "duration": 0.0191,
      "velocity": 79,
      "chip": "ym2612"
    },
    {
      "channel": 0,
      "note": 84,
      "start": 17.0518,
      "duration": 0.082,
      "velocity": 107,
      "chip": "ym2612"
    },
    {
      "channel": 1,
      "note": 84,
      "start": 17.0521,
      "duration": 0.082,
      "velocity": 107,
      "chip": "ym2612"
    },
    {
      "channel": 4,
      "note": 53,
      "start": 17.0535,
      "duration": 0.065,
      "velocity": 79,
      "chip": "ym2612"
    },
    {
      "channel": 0,
      "note": 70,
      "start": 17.1866,
      "duration": 0.0244,
      "velocity": 107,
      "chip": "ym2612"
    },
    {
      "channel": 1,
      "note": 70,
      "start": 17.1876,
      "duration": 0.0242,
      "velocity": 107,
      "chip": "ym2612"
    },
    {
      "channel": 2,
      "note": 68,
      "start": 17.1888,
      "duration": 0.0187,
      "velocity": 91,
      "chip": "ym2612"
    },
    {
      "channel": 3,
      "note": 68,
      "start": 17.1898,
      "duration": 0.0187,
      "velocity": 76,
      "chip": "ym2612"
    },
    {
      "channel": 0,
      "note": 70,
      "start": 17.2348,
      "duration": 0.0241,
      "velocity": 107,
      "chip": "ym2612"
    },
    {
      "channel": 1,
      "note": 70,
      "start": 17.2359,
      "duration": 0.0239,
      "velocity": 107,
      "chip": "ym2612"
    },
    {
      "channel": 2,
      "note": 68,
      "start": 17.237,
      "duration": 0.0185,
      "velocity": 91,
      "chip": "ym2612"
    },
    {
      "channel": 3,
      "note": 68,
      "start": 17.238,
      "duration": 0.0184,
      "velocity": 76,
      "chip": "ym2612"
    },
    {
      "channel": 0,
      "note": 82,
      "start": 17.2811,
      "duration": 0.0822,
      "velocity": 107,
      "chip": "ym2612"
    },
    {
      "channel": 1,
      "note": 82,
      "start": 17.2815,
      "duration": 0.0822,
      "velocity": 107,
      "chip": "ym2612"
    },
    {
      "channel": 0,
      "note": 70,
      "start": 17.4149,
      "duration": 0.0818,
      "velocity": 107,
      "chip": "ym2612"
    },
    {
      "channel": 1,
      "note": 70,
      "start": 17.4152,
      "duration": 0.0819,
      "velocity": 107,
      "chip": "ym2612"
    },
    {
      "channel": 2,
      "note": 56,
      "start": 17.4157,
      "duration": 0.0649,
      "velocity": 91,
      "chip": "ym2612"
    },
    {
      "channel": 3,
      "note": 56,
      "start": 17.4162,
      "duration": 0.0648,
      "velocity": 76,
      "chip": "ym2612"
    },
    {
      "channel": 0,
      "note": 70,
      "start": 17.5489,
      "duration": 0.0248,
      "velocity": 107,
      "chip": "ym2612"
    },
    {
      "channel": 1,
      "note": 70,
      "start": 17.55,
      "duration": 0.0247,
      "velocity": 107,
      "chip": "ym2612"
    },
    {
      "channel": 0,
      "note": 82,
      "start": 17.5911,
      "duration": 0.0243,
      "velocity": 107,
      "chip": "ym2612"
    },
    {
      "channel": 1,
      "note": 82,
      "start": 17.5922,
      "duration": 0.0241,
      "velocity": 107,
      "chip": "ym2612"
    },
    {
      "channel": 2,
      "note": 56,
      "start": 17.5933,
      "duration": 0.0188,
      "velocity": 91,
      "chip": "ym2612"
    },
    {
      "channel": 3,
      "note": 56,
      "start": 17.5944,
      "duration": 0.0187,
      "velocity": 76,
      "chip": "ym2612"
    },
    {
      "channel": 0,
      "note": 70,
      "start": 17.6321,
      "duration": 0.0246,
      "velocity": 107,
      "chip": "ym2612"
    },
    {
      "channel": 1,
      "note": 70,
      "start": 17.6332,
      "duration": 0.0244,
      "velocity": 107,
      "chip": "ym2612"
    },
    {
      "channel": 0,
      "note": 70,
      "start": 17.6736,
      "duration": 0.0243,
      "velocity": 107,
      "chip": "ym2612"
    },
    {
      "channel": 1,
      "note": 70,
      "start": 17.6746,
      "duration": 0.0242,
      "velocity": 107,
      "chip": "ym2612"
    },
    {
      "channel": 2,
      "note": 56,
      "start": 17.6759,
      "duration": 0.0186,
      "velocity": 91,
      "chip": "ym2612"
    },
    {
      "channel": 3,
      "note": 56,
      "start": 17.6769,
      "duration": 0.0185,
      "velocity": 76,
      "chip": "ym2612"
    },
    {
      "channel": 0,
      "note": 82,
      "start": 17.7149,
      "duration": 0.0241,
      "velocity": 107,
      "chip": "ym2612"
    },
    {
      "channel": 1,
      "note": 82,
      "start": 17.716,
      "duration": 0.0239,
      "velocity": 107,
      "chip": "ym2612"
    },
    {
      "channel": 2,
      "note": 68,
      "start": 17.7172,
      "duration": 0.0184,
      "velocity": 91,
      "chip": "ym2612"
    },
    {
      "channel": 3,
      "note": 68,
      "start": 17.7182,
      "duration": 0.0183,
      "velocity": 76,
      "chip": "ym2612"
    },
    {
      "channel": 0,
      "note": 70,
      "start": 17.7609,
      "duration": 0.0823,
      "velocity": 107,
      "chip": "ym2612"
    },
    {
      "channel": 1,
      "note": 70,
      "start": 17.7613,
      "duration": 0.0822,
      "velocity": 107,
      "chip": "ym2612"
    },
    {
      "channel": 0,
      "note": 70,
      "start": 17.8941,
      "duration": 0.0824,
      "velocity": 107,
      "chip": "ym2612"
    },
    {
      "channel": 1,
      "note": 70,
      "start": 17.8945,
      "duration": 0.0824,
      "velocity": 107,
      "chip": "ym2612"
    },
    {
      "channel": 0,
      "note": 82,
      "start": 18.0275,
      "duration": 0.0824,
      "velocity": 107,
      "chip": "ym2612"
    },
    {
      "channel": 1,
      "note": 82,
      "start": 18.0278,
      "duration": 0.0824,
      "velocity": 107,
      "chip": "ym2612"
    },
    {
      "channel": 0,
      "note": 70,
      "start": 18.162,
      "duration": 0.0249,
      "velocity": 107,
      "chip": "ym2612"
    },
    {
      "channel": 1,
      "note": 70,
      "start": 18.1631,
      "duration": 0.0247,
      "velocity": 107,
      "chip": "ym2612"
    },
    {
      "channel": 0,
      "note": 70,
      "start": 18.2035,
      "duration": 0.0246,
      "velocity": 107,
      "chip": "ym2612"
    },
    {
      "channel": 1,
      "note": 70,
      "start": 18.2045,
      "duration": 0.0246,
      "velocity": 107,
      "chip": "ym2612"
    },
    {
      "channel": 0,
      "note": 89,
      "start": 18.2447,
      "duration": 0.0246,
      "velocity": 107,
      "chip": "ym2612"
    },
    {
      "channel": 1,
      "note": 89,
      "start": 18.2458,
      "duration": 0.0244,
      "velocity": 107,
      "chip": "ym2612"
    },
    {
      "channel": 0,
      "note": 82,
      "start": 18.3085,
      "duration": 0.082,
      "velocity": 107,
      "chip": "ym2612"
    },
    {
      "channel": 1,
      "note": 82,
      "start": 18.3089,
      "duration": 0.082,
      "velocity": 107,
      "chip": "ym2612"
    },
    {
      "channel": 4,
      "note": 65,
      "start": 18.3102,
      "duration": 0.0651,
      "velocity": 79,
      "chip": "ym2612"
    },
    {
      "channel": 0,
      "note": 70,
      "start": 18.4433,
      "duration": 0.0244,
      "velocity": 107,
      "chip": "ym2612"
    },
    {
      "channel": 1,
      "note": 70,
      "start": 18.4444,
      "duration": 0.0242,
      "velocity": 107,
      "chip": "ym2612"
    },
    {
      "channel": 2,
      "note": 68,
      "start": 18.4455,
      "duration": 0.0187,
      "velocity": 91,
      "chip": "ym2612"
    },
    {
      "channel": 3,
      "note": 68,
      "start": 18.4465,
      "duration": 0.0187,
      "velocity": 76,
      "chip": "ym2612"
    },
    {
      "channel": 0,
      "note": 70,
      "start": 18.4916,
      "duration": 0.0241,
      "velocity": 107,
      "chip": "ym2612"
    },
    {
      "channel": 1,
      "note": 70,
      "start": 18.4926,
      "duration": 0.0239,
      "velocity": 107,
      "chip": "ym2612"
    },
    {
      "channel": 2,
      "note": 68,
      "start": 18.4938,
      "duration": 0.0185,
      "velocity": 91,
      "chip": "ym2612"
    },
    {
      "channel": 3,
      "note": 68,
      "start": 18.4948,
      "duration": 0.0184,
      "velocity": 76,
      "chip": "ym2612"
    },
    {
      "channel": 0,
      "note": 82,
      "start": 18.5379,
      "duration": 0.0822,
      "velocity": 107,
      "chip": "ym2612"
    },
    {
      "channel": 1,
      "note": 82,
      "start": 18.5382,
      "duration": 0.0822,
      "velocity": 107,
      "chip": "ym2612"
    },
    {
      "channel": 0,
      "note": 70,
      "start": 18.6717,
      "duration": 0.0818,
      "velocity": 107,
      "chip": "ym2612"
    },
    {
      "channel": 1,
      "note": 70,
      "start": 18.672,
      "duration": 0.0819,
      "velocity": 107,
      "chip": "ym2612"
    },
    {
      "channel": 2,
      "note": 56,
      "start": 18.6724,
      "duration": 0.0649,
      "velocity": 91,
      "chip": "ym2612"
    },
    {
      "channel": 3,
      "note": 56,
      "start": 18.6729,
      "duration": 0.0648,
      "velocity": 76,
      "chip": "ym2612"
    },
    {
      "channel": 0,
      "note": 70,
      "start": 18.8057,
      "duration": 0.0248,
      "velocity": 107,
      "chip": "ym2612"
    },
    {
      "channel": 1,
      "note": 70,
      "start": 18.8067,
      "duration": 0.0247,
      "velocity": 107,
      "chip": "ym2612"
    },
    {
      "channel": 0,
      "note": 82,
      "start": 18.8479,
      "duration": 0.0243,
      "velocity": 107,
      "chip": "ym2612"
    },
    {
      "channel": 1,
      "note": 82,
      "start": 18.8489,
      "duration": 0.0241,
      "velocity": 107,
      "chip": "ym2612"
    },
    {
      "channel": 2,
      "note": 56,
      "start": 18.8501,
      "duration": 0.0188,
      "velocity": 91,
      "chip": "ym2612"
    },
    {
      "channel": 3,
      "note": 56,
      "start": 18.8511,
      "duration": 0.0187,
      "velocity": 76,
      "chip": "ym2612"
    },
    {
      "channel": 0,
      "note": 70,
      "start": 18.8889,
      "duration": 0.0246,
      "velocity": 107,
      "chip": "ym2612"
    },
    {
      "channel": 1,
      "note": 70,
      "start": 18.8899,
      "duration": 0.0244,
      "velocity": 107,
      "chip": "ym2612"
    },
    {
      "channel": 0,
      "note": 70,
      "start": 18.9303,
      "duration": 0.0243,
      "velocity": 107,
      "chip": "ym2612"
    },
    {
      "channel": 1,
      "note": 70,
      "start": 18.9314,
      "duration": 0.0242,
      "velocity": 107,
      "chip": "ym2612"
    },
    {
      "channel": 2,
      "note": 56,
      "start": 18.9326,
      "duration": 0.0186,
      "velocity": 91,
      "chip": "ym2612"
    },
    {
      "channel": 3,
      "note": 56,
      "start": 18.9337,
      "duration": 0.0185,
      "velocity": 76,
      "chip": "ym2612"
    },
    {
      "channel": 0,
      "note": 82,
      "start": 18.9717,
      "duration": 0.0241,
      "velocity": 107,
      "chip": "ym2612"
    },
    {
      "channel": 1,
      "note": 82,
      "start": 18.9728,
      "duration": 0.0239,
      "velocity": 107,
      "chip": "ym2612"
    },
    {
      "channel": 2,
      "note": 68,
      "start": 18.9739,
      "duration": 0.0184,
      "velocity": 91,
      "chip": "ym2612"
    },
    {
      "channel": 3,
      "note": 68,
      "start": 18.9749,
      "duration": 0.0183,
      "velocity": 76,
      "chip": "ym2612"
    },
    {
      "channel": 0,
      "note": 70,
      "start": 19.0177,
      "duration": 0.0823,
      "velocity": 107,
      "chip": "ym2612"
    },
    {
      "channel": 1,
      "note": 70,
      "start": 19.0181,
      "duration": 0.0822,
      "velocity": 107,
      "chip": "ym2612"
    },
    {
      "channel": 0,
      "note": 70,
      "start": 19.1509,
      "duration": 0.0824,
      "velocity": 107,
      "chip": "ym2612"
    },
    {
      "channel": 1,
      "note": 70,
      "start": 19.1512,
      "duration": 0.0824,
      "velocity": 107,
      "chip": "ym2612"
    },
    {
      "channel": 0,
      "note": 82,
      "start": 19.2842,
      "duration": 0.0824,
      "velocity": 107,
      "chip": "ym2612"
    },
    {
      "channel": 1,
      "note": 82,
      "start": 19.2846,
      "duration": 0.0824,
      "velocity": 107,
      "chip": "ym2612"
    },
    {
      "channel": 0,
      "note": 70,
      "start": 19.4191,
      "duration": 0.0244,
      "velocity": 107,
      "chip": "ym2612"
    },
    {
      "channel": 1,
      "note": 70,
      "start": 19.4202,
      "duration": 0.0243,
      "velocity": 107,
      "chip": "ym2612"
    },
    {
      "channel": 4,
      "note": 50,
      "start": 19.4229,
      "duration": 0.0191,
      "velocity": 79,
      "chip": "ym2612"
    },
    {
      "channel": 0,
      "note": 70,
      "start": 19.4603,
      "duration": 0.0243,
      "velocity": 107,
      "chip": "ym2612"
    },
    {
      "channel": 1,
      "note": 70,
      "start": 19.4614,
      "duration": 0.0241,
      "velocity": 107,
      "chip": "ym2612"
    },
    {
      "channel": 4,
      "note": 51,
      "start": 19.4641,
      "duration": 0.0188,
      "velocity": 79,
      "chip": "ym2612"
    },
    {
      "channel": 0,
      "note": 89,
      "start": 19.5013,
      "duration": 0.0245,
      "velocity": 107,
      "chip": "ym2612"
    },
    {
      "channel": 1,
      "note": 89,
      "start": 19.5024,
      "duration": 0.0243,
      "velocity": 107,
      "chip": "ym2612"
    },
    {
      "channel": 4,
      "note": 52,
      "start": 19.5051,
      "duration": 0.0192,
      "velocity": 79,
      "chip": "ym2612"
    },
    {
      "channel": 0,
      "note": 82,
      "start": 19.5425,
      "duration": 0.0241,
      "velocity": 107,
      "chip": "ym2612"
    },
    {
      "channel": 1,
      "note": 82,
      "start": 19.5435,
      "duration": 0.0241,
      "velocity": 107,
      "chip": "ym2612"
    },
    {
      "channel": 4,
      "note": 53,
      "start": 19.5462,
      "duration": 0.0188,
      "velocity": 79,
      "chip": "ym2612"
    },
    {
      "channel": 2,
      "note": 68,
      "start": 19.5857,
      "duration": 0.0196,
      "velocity": 91,
      "chip": "ym2612"
    },
    {
      "channel": 3,
      "note": 68,
      "start": 19.5867,
      "duration": 0.0195,
      "velocity": 76,
      "chip": "ym2612"
    },
    {
      "channel": 2,
      "note": 68,
      "start": 19.6344,
      "duration": 0.0197,
      "velocity": 91,
      "chip": "ym2612"
    },
    {
      "channel": 3,
      "note": 68,
      "start": 19.6355,
      "duration": 0.0194,
      "velocity": 76,
      "chip": "ym2612"
    },
    {
      "channel": 2,
      "note": 56,
      "start": 19.8139,
      "duration": 0.0658,
      "velocity": 91,
      "chip": "ym2612"
    },
    {
      "channel": 3,
      "note": 56,
      "start": 19.8144,
      "duration": 0.0656,
      "velocity": 76,
      "chip": "ym2612"
    },
    {
      "channel": 2,
      "note": 56,
      "start": 19.9923,
      "duration": 0.0199,
      "velocity": 91,
      "chip": "ym2612"
    },
    {
      "channel": 3,
      "note": 56,
      "start": 19.9933,
      "duration": 0.0199,
      "velocity": 76,
      "chip": "ym2612"
    },
    {
      "channel": 2,
      "note": 56,
      "start": 20.0765,
      "duration": 0.0199,
      "velocity": 91,
      "chip": "ym2612"
    },
    {
      "channel": 3,
      "note": 56,
      "start": 20.0775,
      "duration": 0.0199,
      "velocity": 76,
      "chip": "ym2612"
    },
    {
      "channel": 2,
      "note": 68,
      "start": 20.1185,
      "duration": 0.0194,
      "velocity": 91,
      "chip": "ym2612"
    },
    {
      "channel": 3,
      "note": 68,
      "start": 20.1195,
      "duration": 0.0193,
      "velocity": 76,
      "chip": "ym2612"
    },
    {
      "channel": 4,
      "note": 67,
      "start": 20.7147,
      "duration": 0.066,
      "velocity": 79,
      "chip": "ym2612"
    },
    {
      "channel": 2,
      "note": 68,
      "start": 20.85,
      "duration": 0.0197,
      "velocity": 91,
      "chip": "ym2612"
    },
    {
      "channel": 3,
      "note": 68,
      "start": 20.851,
      "duration": 0.0195,
      "velocity": 76,
      "chip": "ym2612"
    },
    {
      "channel": 2,
      "note": 68,
      "start": 20.8993,
      "duration": 0.0196,
      "velocity": 91,
      "chip": "ym2612"
    },
    {
      "channel": 3,
      "note": 68,
      "start": 20.9003,
      "duration": 0.0194,
      "velocity": 76,
      "chip": "ym2612"
    },
    {
      "channel": 2,
      "note": 56,
      "start": 21.0788,
      "duration": 0.0658,
      "velocity": 91,
      "chip": "ym2612"
    },
    {
      "channel": 3,
      "note": 56,
      "start": 21.0793,
      "duration": 0.0656,
      "velocity": 76,
      "chip": "ym2612"
    },
    {
      "channel": 2,
      "note": 56,
      "start": 21.2571,
      "duration": 0.0199,
      "velocity": 91,
      "chip": "ym2612"
    },
    {
      "channel": 3,
      "note": 56,
      "start": 21.2581,
      "duration": 0.0199,
      "velocity": 76,
      "chip": "ym2612"
    },
    {
      "channel": 2,
      "note": 56,
      "start": 21.3413,
      "duration": 0.0199,
      "velocity": 91,
      "chip": "ym2612"
    },
    {
      "channel": 3,
      "note": 56,
      "start": 21.3423,
      "duration": 0.0199,
      "velocity": 76,
      "chip": "ym2612"
    },
    {
      "channel": 2,
      "note": 68,
      "start": 21.3833,
      "duration": 0.0194,
      "velocity": 91,
      "chip": "ym2612"
    },
    {
      "channel": 3,
      "note": 68,
      "start": 21.3844,
      "duration": 0.0193,
      "velocity": 76,
      "chip": "ym2612"
    },
    {
      "channel": 4,
      "note": 51,
      "start": 21.8335,
      "duration": 0.02,
      "velocity": 79,
      "chip": "ym2612"
    },
    {
      "channel": 4,
      "note": 52,
      "start": 21.8752,
      "duration": 0.02,
      "velocity": 79,
      "chip": "ym2612"
    },
    {
      "channel": 4,
      "note": 53,
      "start": 21.9171,
      "duration": 0.0196,
      "velocity": 79,
      "chip": "ym2612"
    },
    {
      "channel": 4,
      "note": 55,
      "start": 21.9786,
      "duration": 0.0659,
      "velocity": 79,
      "chip": "ym2612"
    },
    {
      "channel": 2,
      "note": 68,
      "start": 22.1138,
      "duration": 0.0197,
      "velocity": 91,
      "chip": "ym2612"
    },
    {
      "channel": 3,
      "note": 68,
      "start": 22.1148,
      "duration": 0.0196,
      "velocity": 76,
      "chip": "ym2612"
    },
    {
      "channel": 2,
      "note": 68,
      "start": 22.1627,
      "duration": 0.0197,
      "velocity": 91,
      "chip": "ym2612"
    },
    {
      "channel": 3,
      "note": 68,
      "start": 22.1638,
      "duration": 0.0195,
      "velocity": 76,
      "chip": "ym2612"
    },
    {
      "channel": 2,
      "note": 56,
      "start": 22.3424,
      "duration": 0.0658,
      "velocity": 91,
      "chip": "ym2612"
    },
    {
      "channel": 3,
      "note": 56,
      "start": 22.3429,
      "duration": 0.0656,
      "velocity": 76,
      "chip": "ym2612"
    },
    {
      "channel": 2,
      "note": 56,
      "start": 22.5207,
      "duration": 0.0199,
      "velocity": 91,
      "chip": "ym2612"
    },
    {
      "channel": 3,
      "note": 56,
      "start": 22.5217,
      "duration": 0.0199,
      "velocity": 76,
      "chip": "ym2612"
    },
    {
      "channel": 2,
      "note": 56,
      "start": 22.6049,
      "duration": 0.0199,
      "velocity": 91,
      "chip": "ym2612"
    },
    {
      "channel": 3,
      "note": 56,
      "start": 22.6059,
      "duration": 0.0199,
      "velocity": 76,
      "chip": "ym2612"
    },
    {
      "channel": 2,
      "note": 68,
      "start": 22.6469,
      "duration": 0.0194,
      "velocity": 91,
      "chip": "ym2612"
    },
    {
      "channel": 3,
      "note": 68,
      "start": 22.648,
      "duration": 0.0193,
      "velocity": 76,
      "chip": "ym2612"
    },
    {
      "channel": 4,
      "note": 67,
      "start": 23.2429,
      "duration": 0.066,
      "velocity": 79,
      "chip": "ym2612"
    },
    {
      "channel": 2,
      "note": 68,
      "start": 23.3782,
      "duration": 0.0197,
      "velocity": 91,
      "chip": "ym2612"
    },
    {
      "channel": 3,
      "note": 68,
      "start": 23.3792,
      "duration": 0.0195,
      "velocity": 76,
      "chip": "ym2612"
    },
    {
      "channel": 2,
      "note": 68,
      "start": 23.427,
      "duration": 0.0197,
      "velocity": 91,
      "chip": "ym2612"
    },
    {
      "channel": 3,
      "note": 68,
      "start": 23.428,
      "duration": 0.0195,
      "velocity": 76,
      "chip": "ym2612"
    },
    {
      "channel": 2,
      "note": 56,
      "start": 23.6067,
      "duration": 0.0658,
      "velocity": 91,
      "chip": "ym2612"
    },
    {
      "channel": 3,
      "note": 56,
      "start": 23.6072,
      "duration": 0.0656,
      "velocity": 76,
      "chip": "ym2612"
    },
    {
      "channel": 2,
      "note": 56,
      "start": 23.785,
      "duration": 0.0199,
      "velocity": 91,
      "chip": "ym2612"
    },
    {
      "channel": 3,
      "note": 56,
      "start": 23.786,
      "duration": 0.0199,
      "velocity": 76,
      "chip": "ym2612"
    },
    {
      "channel": 2,
      "note": 56,
      "start": 23.8692,
      "duration": 0.0199,
      "velocity": 91,
      "chip": "ym2612"
    },
    {
      "channel": 3,
      "note": 56,
      "start": 23.8702,
      "duration": 0.0199,
      "velocity": 76,
      "chip": "ym2612"
    },
    {
      "channel": 2,
      "note": 68,
      "start": 23.9112,
      "duration": 0.0194,
      "velocity": 91,
      "chip": "ym2612"
    },
    {
      "channel": 3,
      "note": 68,
      "start": 23.9123,
      "duration": 0.0193,
      "velocity": 76,
      "chip": "ym2612"
    },
    {
      "channel": 4,
      "note": 51,
      "start": 24.3612,
      "duration": 0.0201,
      "velocity": 79,
      "chip": "ym2612"
    },
    {
      "channel": 4,
      "note": 52,
      "start": 24.4032,
      "duration": 0.0201,
      "velocity": 79,
      "chip": "ym2612"
    },
    {
      "channel": 4,
      "note": 53,
      "start": 24.445,
      "duration": 0.0202,
      "velocity": 79,
      "chip": "ym2612"
    },
    {
      "channel": 4,
      "note": 55,
      "start": 24.487,
      "duration": 0.02,
      "velocity": 79,
      "chip": "ym2612"
    },
    {
      "channel": 0,
      "note": 72,
      "start": 24.5261,
      "duration": 0.0242,
      "velocity": 107,
      "chip": "ym2612"
    },
    {
      "channel": 1,
      "note": 72,
      "start": 24.5272,
      "duration": 0.024,
      "velocity": 107,
      "chip": "ym2612"
    },
    {
      "channel": 2,
      "note": 68,
      "start": 24.5284,
      "duration": 0.0187,
      "velocity": 91,
      "chip": "ym2612"
    },
    {
      "channel": 3,
      "note": 68,
      "start": 24.5294,
      "duration": 0.0185,
      "velocity": 76,
      "chip": "ym2612"
    },
    {
      "channel": 0,
      "note": 72,
      "start": 24.5742,
      "duration": 0.0241,
      "velocity": 107,
      "chip": "ym2612"
    },
    {
      "channel": 1,
      "note": 72,
      "start": 24.5753,
      "duration": 0.0239,
      "velocity": 107,
      "chip": "ym2612"
    },
    {
      "channel": 2,
      "note": 68,
      "start": 24.5764,
      "duration": 0.0184,
      "velocity": 91,
      "chip": "ym2612"
    },
    {
      "channel": 3,
      "note": 68,
      "start": 24.5774,
      "duration": 0.0184,
      "velocity": 76,
      "chip": "ym2612"
    },
    {
      "channel": 0,
      "note": 84,
      "start": 24.6206,
      "duration": 0.0822,
      "velocity": 107,
      "chip": "ym2612"
    },
    {
      "channel": 1,
      "note": 84,
      "start": 24.621,
      "duration": 0.0822,
      "velocity": 107,
      "chip": "ym2612"
    },
    {
      "channel": 0,
      "note": 72,
      "start": 24.7544,
      "duration": 0.0818,
      "velocity": 107,
      "chip": "ym2612"
    },
    {
      "channel": 1,
      "note": 72,
      "start": 24.7547,
      "duration": 0.0819,
      "velocity": 107,
      "chip": "ym2612"
    },
    {
      "channel": 2,
      "note": 56,
      "start": 24.7552,
      "duration": 0.0649,
      "velocity": 91,
      "chip": "ym2612"
    },
    {
      "channel": 3,
      "note": 56,
      "start": 24.7557,
      "duration": 0.0648,
      "velocity": 76,
      "chip": "ym2612"
    }
  ]
}