{
  "track_name": "07 - Antiquity",
  "duration_sec": 53.201,
  "sample_rate": 44100,
  "note_count": 528,
  "unique_pitches": 29,
  "pitch_range": 41,
  "avg_note_duration": 0.133,
  "reconstruction_stats": {
    "notes_reconstructed": 528,
    "keyon_events": 528,
    "keyoff_events": 482,
    "orphan_keyons": 1,
    "unique_pitches": 29,
    "pitch_range": 41,
    "avg_duration_sec": 0.133
  },
  "metadata": {
    "source": "S\\Socket\\07 - Antiquity.vgz"
  },
  "notes": [
    {
      "channel": 2,
      "note": 73,
      "start": 0.0,
      "duration": 0.0,
      "velocity": 1,
      "chip": "ym2612"
    },
    {
      "channel": 3,
      "note": 61,
      "start": 0.0,
      "duration": 0.0,
      "velocity": 1,
      "chip": "ym2612"
    },
    {
      "channel": 4,
      "note": 56,
      "start": 0.0,
      "duration": 0.0,
      "velocity": 1,
      "chip": "ym2612"
    },
    {
      "channel": 4,
      "note": 56,
      "start": 0.1328,
      "duration": 0.0201,
      "velocity": 97,
      "chip": "ym2612"
    },
    {
      "channel": 2,
      "note": 84,
      "start": 0.1751,
      "duration": 0.1541,
      "velocity": 89,
      "chip": "ym2612"
    },
    {
      "channel": 0,
      "note": 68,
      "start": 0.1988,
      "duration": 0.0264,
      "velocity": 95,
      "chip": "ym2612"
    },
    {
      "channel": 4,
      "note": 57,
      "start": 0.1995,
      "duration": 0.0265,
      "velocity": 97,
      "chip": "ym2612"
    },
    {
      "channel": 3,
      "note": 80,
      "start": 0.2124,
      "duration": 0.1578,
      "velocity": 89,
      "chip": "ym2612"
    },
    {
      "channel": 0,
      "note": 69,
      "start": 0.2254,
      "duration": 0.0508,
      "velocity": 95,
      "chip": "ym2612"
    },
    {
      "channel": 4,
      "note": 57,
      "start": 0.2262,
      "duration": 0.0259,
      "velocity": 97,
      "chip": "ym2612"
    },
    {
      "channel": 1,
      "note": 75,
      "start": 0.2388,
      "duration": 0.0254,
      "velocity": 95,
      "chip": "ym2612"
    },
    {
      "channel": 1,
      "note": 69,
      "start": 0.2644,
      "duration": 0.0516,
      "velocity": 95,
      "chip": "ym2612"
    },
    {
      "channel": 0,
      "note": 68,
      "start": 0.2764,
      "duration": 0.0519,
      "velocity": 95,
      "chip": "ym2612"
    },
    {
      "channel": 1,
      "note": 68,
      "start": 0.3163,
      "duration": 0.053,
      "velocity": 95,
      "chip": "ym2612"
    },
    {
      "channel": 0,
      "note": 64,
      "start": 0.3286,
      "duration": 0.0545,
      "velocity": 95,
      "chip": "ym2612"
    },
    {
      "channel": 2,
      "note": 73,
      "start": 0.3292,
      "duration": 0.0546,
      "velocity": 89,
      "chip": "ym2612"
    },
    {
      "channel": 4,
      "note": 57,
      "start": 0.3299,
      "duration": 0.0275,
      "velocity": 97,
      "chip": "ym2612"
    },
    {
      "channel": 1,
      "note": 64,
      "start": 0.3696,
      "duration": 0.0563,
      "velocity": 95,
      "chip": "ym2612"
    },
    {
      "channel": 3,
      "note": 73,
      "start": 0.3702,
      "duration": 0.0564,
      "velocity": 89,
      "chip": "ym2612"
    },
    {
      "channel": 0,
      "note": 59,
      "start": 0.3834,
      "duration": 0.0278,
      "velocity": 95,
      "chip": "ym2612"
    },
    {
      "channel": 2,
      "note": 73,
      "start": 0.384,
      "duration": 0.1073,
      "velocity": 89,
      "chip": "ym2612"
    },
    {
      "channel": 0,
      "note": 64,
      "start": 0.4115,
      "duration": 0.0551,
      "velocity": 95,
      "chip": "ym2612"
    },
    {
      "channel": 4,
      "note": 57,
      "start": 0.4124,
      "duration": 0.0277,
      "velocity": 97,
      "chip": "ym2612"
    },
    {
      "channel": 1,
      "note": 59,
      "start": 0.4262,
      "duration": 0.0275,
      "velocity": 95,
      "chip": "ym2612"
    },
    {
      "channel": 3,
      "note": 73,
      "start": 0.4268,
      "duration": 0.1024,
      "velocity": 89,
      "chip": "ym2612"
    },
    {
      "channel": 4,
      "note": 57,
      "start": 0.4402,
      "duration": 0.027,
      "velocity": 97,
      "chip": "ym2612"
    },
    {
      "channel": 1,
      "note": 64,
      "start": 0.4539,
      "duration": 0.0505,
      "velocity": 95,
      "chip": "ym2612"
    },
    {
      "channel": 0,
      "note": 61,
      "start": 0.4666,
      "duration": 0.0746,
      "velocity": 95,
      "chip": "ym2612"
    },
    {
      "channel": 2,
      "note": 76,
      "start": 0.4916,
      "duration": 0.05,
      "velocity": 89,
      "chip": "ym2612"
    },
    {
      "channel": 1,
      "note": 61,
      "start": 0.5044,
      "duration": 0.0752,
      "velocity": 95,
      "chip": "ym2612"
    },
    {
      "channel": 3,
      "note": 76,
      "start": 0.5295,
      "duration": 0.0504,
      "velocity": 89,
      "chip": "ym2612"
    },
    {
      "channel": 2,
      "note": 88,
      "start": 0.5419,
      "duration": 0.2046,
      "velocity": 89,
      "chip": "ym2612"
    },
    {
      "channel": 4,
      "note": 57,
      "start": 0.5426,
      "duration": 0.0259,
      "velocity": 97,
      "chip": "ym2612"
    },
    {
      "channel": 3,
      "note": 88,
      "start": 0.5802,
      "duration": 0.2074,
      "velocity": 89,
      "chip": "ym2612"
    },
    {
      "channel": 0,
      "note": 61,
      "start": 0.6159,
      "duration": 0.0263,
      "velocity": 95,
      "chip": "ym2612"
    },
    {
      "channel": 4,
      "note": 57,
      "start": 0.6167,
      "duration": 0.0263,
      "velocity": 97,
      "chip": "ym2612"
    },
    {
      "channel": 0,
      "note": 69,
      "start": 0.6424,
      "duration": 0.0511,
      "velocity": 95,
      "chip": "ym2612"
    },
    {
      "channel": 4,
      "note": 57,
      "start": 0.6432,
      "duration": 0.026,
      "velocity": 97,
      "chip": "ym2612"
    },
    {
      "channel": 1,
      "note": 61,
      "start": 0.6561,
      "duration": 0.0253,
      "velocity": 95,
      "chip": "ym2612"
    },
    {
      "channel": 1,
      "note": 69,
      "start": 0.6816,
      "duration": 0.0516,
      "velocity": 95,
      "chip": "ym2612"
    },
    {
      "channel": 0,
      "note": 68,
      "start": 0.6937,
      "duration": 0.0519,
      "velocity": 95,
      "chip": "ym2612"
    },
    {
      "channel": 1,
      "note": 68,
      "start": 0.7335,
      "duration": 0.0533,
      "velocity": 95,
      "chip": "ym2612"
    },
    {
      "channel": 0,
      "note": 69,
      "start": 0.7459,
      "duration": 0.0827,
      "velocity": 95,
      "chip": "ym2612"
    },
    {
      "channel": 2,
      "note": 86,
      "start": 0.7465,
      "duration": 0.2124,
      "velocity": 89,
      "chip": "ym2612"
    },
    {
      "channel": 4,
      "note": 57,
      "start": 0.7472,
      "duration": 0.0274,
      "velocity": 97,
      "chip": "ym2612"
    },
    {
      "channel": 1,
      "note": 69,
      "start": 0.7871,
      "duration": 0.084,
      "velocity": 95,
      "chip": "ym2612"
    },
    {
      "channel": 3,
      "note": 86,
      "start": 0.7877,
      "duration": 0.2076,
      "velocity": 89,
      "chip": "ym2612"
    },
    {
      "channel": 0,
      "note": 71,
      "start": 0.8289,
      "duration": 0.0551,
      "velocity": 95,
      "chip": "ym2612"
    },
    {
      "channel": 4,
      "note": 57,
      "start": 0.8298,
      "duration": 0.0277,
      "velocity": 97,
      "chip": "ym2612"
    },
    {
      "channel": 4,
      "note": 57,
      "start": 0.8576,
      "duration": 0.027,
      "velocity": 97,
      "chip": "ym2612"
    },
    {
      "channel": 1,
      "note": 71,
      "start": 0.8714,
      "duration": 0.0503,
      "velocity": 95,
      "chip": "ym2612"
    },
    {
      "channel": 0,
      "note": 69,
      "start": 0.884,
      "duration": 0.0745,
      "velocity": 95,
      "chip": "ym2612"
    },
    {
      "channel": 1,
      "note": 69,
      "start": 0.9217,
      "duration": 0.0734,
      "velocity": 95,
      "chip": "ym2612"
    },
    {
      "channel": 4,
      "note": 57,
      "start": 0.9596,
      "duration": 0.0247,
      "velocity": 97,
      "chip": "ym2612"
    },
    {
      "channel": 2,
      "note": 86,
      "start": 1.0068,
      "duration": 0.1539,
      "velocity": 89,
      "chip": "ym2612"
    },
    {
      "channel": 0,
      "note": 69,
      "start": 1.0303,
      "duration": 0.0264,
      "velocity": 95,
      "chip": "ym2612"
    },
    {
      "channel": 4,
      "note": 57,
      "start": 1.031,
      "duration": 0.0265,
      "velocity": 97,
      "chip": "ym2612"
    },
    {
      "channel": 3,
      "note": 86,
      "start": 1.0439,
      "duration": 0.158,
      "velocity": 89,
      "chip": "ym2612"
    },
    {
      "channel": 0,
      "note": 69,
      "start": 1.0569,
      "duration": 0.0507,
      "velocity": 95,
      "chip": "ym2612"
    },
    {
      "channel": 4,
      "note": 57,
      "start": 1.0578,
      "duration": 0.0256,
      "velocity": 97,
      "chip": "ym2612"
    },
    {
      "channel": 1,
      "note": 69,
      "start": 1.0702,
      "duration": 0.0253,
      "velocity": 95,
      "chip": "ym2612"
    },
    {
      "channel": 1,
      "note": 69,
      "start": 1.0957,
      "duration": 0.0518,
      "velocity": 95,
      "chip": "ym2612"
    },
    {
      "channel": 0,
      "note": 68,
      "start": 1.1079,
      "duration": 0.0519,
      "velocity": 95,
      "chip": "ym2612"
    },
    {
      "channel": 1,
      "note": 68,
      "start": 1.1478,
      "duration": 0.0532,
      "velocity": 95,
      "chip": "ym2612"
    },
    {
      "channel": 0,
      "note": 64,
      "start": 1.1601,
      "duration": 0.0547,
      "velocity": 95,
      "chip": "ym2612"
    },
    {
      "channel": 2,
      "note": 73,
      "start": 1.1607,
      "duration": 0.0548,
      "velocity": 89,
      "chip": "ym2612"
    },
    {
      "channel": 4,
      "note": 57,
      "start": 1.1614,
      "duration": 0.0277,
      "velocity": 97,
      "chip": "ym2612"
    },
    {
      "channel": 1,
      "note": 64,
      "start": 1.2014,
      "duration": 0.0563,
      "velocity": 95,
      "chip": "ym2612"
    },
    {
      "channel": 3,
      "note": 73,
      "start": 1.2019,
      "duration": 0.0564,
      "velocity": 89,
      "chip": "ym2612"
    },
    {
      "channel": 0,
      "note": 59,
      "start": 1.2151,
      "duration": 0.0278,
      "velocity": 95,
      "chip": "ym2612"
    },
    {
      "channel": 2,
      "note": 73,
      "start": 1.2158,
      "duration": 0.1073,
      "velocity": 89,
      "chip": "ym2612"
    },
    {
      "channel": 0,
      "note": 64,
      "start": 1.2432,
      "duration": 0.0551,
      "velocity": 95,
      "chip": "ym2612"
    },
    {
      "channel": 4,
      "note": 57,
      "start": 1.2441,
      "duration": 0.0277,
      "velocity": 97,
      "chip": "ym2612"
    },
    {
      "channel": 1,
      "note": 59,
      "start": 1.2579,
      "duration": 0.0275,
      "velocity": 95,
      "chip": "ym2612"
    },
    {
      "channel": 3,
      "note": 73,
      "start": 1.2586,
      "duration": 0.1024,
      "velocity": 89,
      "chip": "ym2612"
    },
    {
      "channel": 4,
      "note": 57,
      "start": 1.272,
      "duration": 0.027,
      "velocity": 97,
      "chip": "ym2612"
    },
    {
      "channel": 1,
      "note": 64,
      "start": 1.2857,
      "duration": 0.0505,
      "velocity": 95,
      "chip": "ym2612"
    },
    {
      "channel": 0,
      "note": 61,
      "start": 1.2983,
      "duration": 0.0746,
      "velocity": 95,
      "chip": "ym2612"
    },
    {
      "channel": 2,
      "note": 76,
      "start": 1.3233,
      "duration": 0.05,
      "velocity": 89,
      "chip": "ym2612"
    },
    {
      "channel": 1,
      "note": 61,
      "start": 1.3362,
      "duration": 0.0755,
      "velocity": 95,
      "chip": "ym2612"
    },
    {
      "channel": 3,
      "note": 76,
      "start": 1.3613,
      "duration": 0.0507,
      "velocity": 89,
      "chip": "ym2612"
    },
    {
      "channel": 2,
      "note": 88,
      "start": 1.3737,
      "duration": 0.2044,
      "velocity": 89,
      "chip": "ym2612"
    },
    {
      "channel": 4,
      "note": 57,
      "start": 1.3744,
      "duration": 0.0261,
      "velocity": 97,
      "chip": "ym2612"
    },
    {
      "channel": 3,
      "note": 88,
      "start": 1.4124,
      "duration": 0.2072,
      "velocity": 89,
      "chip": "ym2612"
    },
    {
      "channel": 0,
      "note": 61,
      "start": 1.4479,
      "duration": 0.0262,
      "velocity": 95,
      "chip": "ym2612"
    },
    {
      "channel": 4,
      "note": 52,
      "start": 1.4487,
      "duration": 0.0263,
      "velocity": 97,
      "chip": "ym2612"
    },
    {
      "channel": 0,
      "note": 74,
      "start": 1.4744,
      "duration": 0.0507,
      "velocity": 95,
      "chip": "ym2612"
    },
    {
      "channel": 4,
      "note": 52,
      "start": 1.4752,
      "duration": 0.0261,
      "velocity": 97,
      "chip": "ym2612"
    },
    {
      "channel": 1,
      "note": 61,
      "start": 1.488,
      "duration": 0.0251,
      "velocity": 95,
      "chip": "ym2612"
    },
    {
      "channel": 1,
      "note": 74,
      "start": 1.5134,
      "duration": 0.0514,
      "velocity": 95,
      "chip": "ym2612"
    },
    {
      "channel": 0,
      "note": 73,
      "start": 1.5253,
      "duration": 0.0519,
      "velocity": 95,
      "chip": "ym2612"
    },
    {
      "channel": 1,
      "note": 73,
      "start": 1.565,
      "duration": 0.0536,
      "velocity": 95,
      "chip": "ym2612"
    },
    {
      "channel": 0,
      "note": 71,
      "start": 1.5775,
      "duration": 0.0806,
      "velocity": 95,
      "chip": "ym2612"
    },
    {
      "channel": 2,
      "note": 86,
      "start": 1.5781,
      "duration": 0.2152,
      "velocity": 89,
      "chip": "ym2612"
    },
    {
      "channel": 4,
      "note": 52,
      "start": 1.5787,
      "duration": 0.0275,
      "velocity": 97,
      "chip": "ym2612"
    },
    {
      "channel": 1,
      "note": 71,
      "start": 1.619,
      "duration": 0.0802,
      "velocity": 95,
      "chip": "ym2612"
    },
    {
      "channel": 3,
      "note": 86,
      "start": 1.6195,
      "duration": 0.215,
      "velocity": 89,
      "chip": "ym2612"
    },
    {
      "channel": 0,
      "note": 69,
      "start": 1.6583,
      "duration": 0.0549,
      "velocity": 95,
      "chip": "ym2612"
    },
    {
      "channel": 4,
      "note": 52,
      "start": 1.6592,
      "duration": 0.0264,
      "velocity": 97,
      "chip": "ym2612"
    },
    {
      "channel": 4,
      "note": 52,
      "start": 1.6858,
      "duration": 0.028,
      "velocity": 97,
      "chip": "ym2612"
    },
    {
      "channel": 1,
      "note": 69,
      "start": 1.6995,
      "duration": 0.0549,
      "velocity": 95,
      "chip": "ym2612"
    },
    {
      "channel": 0,
      "note": 68,
      "start": 1.7132,
      "duration": 0.0798,
      "velocity": 95,
      "chip": "ym2612"
    },
    {
      "channel": 4,
      "note": 52,
      "start": 1.7141,
      "duration": 0.0267,
      "velocity": 97,
      "chip": "ym2612"
    },
    {
      "channel": 4,
      "note": 62,
      "start": 1.7408,
      "duration": 0.0268,
      "velocity": 97,
      "chip": "ym2612"
    },
    {
      "channel": 1,
      "note": 68,
      "start": 1.7544,
      "duration": 0.0798,
      "velocity": 95,
      "chip": "ym2612"
    },
    {
      "channel": 4,
      "note": 64,
      "start": 1.7679,
      "duration": 0.027,
      "velocity": 97,
      "chip": "ym2612"
    },
    {
      "channel": 2,
      "note": 86,
      "start": 1.7946,
      "duration": 0.0163,
      "velocity": 103,
      "chip": "ym2612"
    },
    {
      "channel": 4,
      "note": 52,
      "start": 1.7953,
      "duration": 0.0276,
      "velocity": 97,
      "chip": "ym2612"
    },
    {
      "channel": 2,
      "note": 73,
      "start": 1.8224,
      "duration": 0.012,
      "velocity": 103,
      "chip": "ym2612"
    },
    {
      "channel": 3,
      "note": 86,
      "start": 1.8358,
      "duration": 0.01,
      "velocity": 103,
      "chip": "ym2612"
    },
    {
      "channel": 2,
      "note": 73,
      "start": 1.8456,
      "duration": 0.0125,
      "velocity": 103,
      "chip": "ym2612"
    },
    {
      "channel": 3,
      "note": 73,
      "start": 1.8585,
      "duration": 0.0108,
      "velocity": 103,
      "chip": "ym2612"
    },
    {
      "channel": 2,
      "note": 71,
      "start": 1.8691,
      "duration": 0.0115,
      "velocity": 103,
      "chip": "ym2612"
    },
    {
      "channel": 4,
      "note": 57,
      "start": 1.8697,
      "duration": 0.0218,
      "velocity": 97,
      "chip": "ym2612"
    },
    {
      "channel": 3,
      "note": 73,
      "start": 1.8811,
      "duration": 0.0103,
      "velocity": 103,
      "chip": "ym2612"
    },
    {
      "channel": 4,
      "note": 57,
      "start": 1.8917,
      "duration": 0.0199,
      "velocity": 97,
      "chip": "ym2612"
    },
    {
      "channel": 3,
      "note": 71,
      "start": 1.9012,
      "duration": 0.0103,
      "velocity": 103,
      "chip": "ym2612"
    },
    {
      "channel": 2,
      "note": 73,
      "start": 1.9113,
      "duration": 0.01,
      "velocity": 103,
      "chip": "ym2612"
    },
    {
      "channel": 2,
      "note": 71,
      "start": 1.9312,
      "duration": 0.044,
      "velocity": 103,
      "chip": "ym2612"
    },
    {
      "channel": 3,
      "note": 73,
      "start": 1.9439,
      "duration": 0.0107,
      "velocity": 103,
      "chip": "ym2612"
    },
    {
      "channel": 3,
      "note": 71,
      "start": 1.9643,
      "duration": 0.0435,
      "velocity": 103,
      "chip": "ym2612"
    },
    {
      "channel": 4,
      "note": 57,
      "start": 1.9758,
      "duration": 0.0216,
      "velocity": 97,
      "chip": "ym2612"
    },
    {
      "channel": 0,
      "note": 68,
      "start": 1.9969,
      "duration": 0.0418,
      "velocity": 95,
      "chip": "ym2612"
    },
    {
      "channel": 1,
      "note": 68,
      "start": 2.0269,
      "duration": 0.0468,
      "velocity": 95,
      "chip": "ym2612"
    },
    {
      "channel": 0,
      "note": 71,
      "start": 2.039,
      "duration": 0.0462,
      "velocity": 95,
      "chip": "ym2612"
    },
    {
      "channel": 4,
      "note": 57,
      "start": 2.0397,
      "duration": 0.0227,
      "velocity": 97,
      "chip": "ym2612"
    },
    {
      "channel": 4,
      "note": 57,
      "start": 2.0626,
      "duration": 0.0237,
      "velocity": 97,
      "chip": "ym2612"
    },
    {
      "channel": 1,
      "note": 71,
      "start": 2.074,
      "duration": 0.0486,
      "velocity": 95,
      "chip": "ym2612"
    },
    {
      "channel": 0,
      "note": 73,
      "start": 2.0855,
      "duration": 0.0495,
      "velocity": 95,
      "chip": "ym2612"
    },
    {
      "channel": 2,
      "note": 73,
      "start": 2.086,
      "duration": 0.0124,
      "velocity": 103,
      "chip": "ym2612"
    },
    {
      "channel": 4,
      "note": 61,
      "start": 2.0866,
      "duration": 0.0237,
      "velocity": 97,
      "chip": "ym2612"
    },
    {
      "channel": 2,
      "note": 71,
      "start": 2.1099,
      "duration": 0.0132,
      "velocity": 103,
      "chip": "ym2612"
    },
    {
      "channel": 4,
      "note": 59,
      "start": 2.1104,
      "duration": 0.0257,
      "velocity": 97,
      "chip": "ym2612"
    },
    {
      "channel": 1,
      "note": 73,
      "start": 2.1229,
      "duration": 0.0527,
      "velocity": 95,
      "chip": "ym2612"
    },
    {
      "channel": 3,
      "note": 73,
      "start": 2.1234,
      "duration": 0.0126,
      "velocity": 103,
      "chip": "ym2612"
    },
    {
      "channel": 0,
      "note": 76,
      "start": 2.1352,
      "duration": 0.0259,
      "velocity": 95,
      "chip": "ym2612"
    },
    {
      "channel": 2,
      "note": 73,
      "start": 2.1358,
      "duration": 0.0131,
      "velocity": 103,
      "chip": "ym2612"
    },
    {
      "channel": 4,
      "note": 57,
      "start": 2.1364,
      "duration": 0.0261,
      "velocity": 97,
      "chip": "ym2612"
    },
    {
      "channel": 3,
      "note": 71,
      "start": 2.1493,
      "duration": 0.013,
      "velocity": 103,
      "chip": "ym2612"
    },
    {
      "channel": 0,
      "note": 78,
      "start": 2.1614,
      "duration": 0.079,
      "velocity": 95,
      "chip": "ym2612"
    },
    {
      "channel": 2,
      "note": 76,
      "start": 2.1621,
      "duration": 0.079,
      "velocity": 103,
      "chip": "ym2612"
    },
    {
      "channel": 4,
      "note": 52,
      "start": 2.1627,
      "duration": 0.0268,
      "velocity": 97,
      "chip": "ym2612"
    },
    {
      "channel": 1,
      "note": 76,
      "start": 2.1759,
      "duration": 0.0244,
      "velocity": 95,
      "chip": "ym2612"
    },
    {
      "channel": 3,
      "note": 73,
      "start": 2.1765,
      "duration": 0.0129,
      "velocity": 103,
      "chip": "ym2612"
    },
    {
      "channel": 1,
      "note": 78,
      "start": 2.2006,
      "duration": 0.0827,
      "velocity": 95,
      "chip": "ym2612"
    },
    {
      "channel": 3,
      "note": 76,
      "start": 2.2013,
      "duration": 0.0826,
      "velocity": 103,
      "chip": "ym2612"
    },
    {
      "channel": 0,
      "note": 80,
      "start": 2.2407,
      "duration": 0.0561,
      "velocity": 95,
      "chip": "ym2612"
    },
    {
      "channel": 2,
      "note": 76,
      "start": 2.2413,
      "duration": 0.028,
      "velocity": 103,
      "chip": "ym2612"
    },
    {
      "channel": 4,
      "note": 54,
      "start": 2.2419,
      "duration": 0.0277,
      "velocity": 97,
      "chip": "ym2612"
    },
    {
      "channel": 2,
      "note": 73,
      "start": 2.2693,
      "duration": 0.1037,
      "velocity": 103,
      "chip": "ym2612"
    },
    {
      "channel": 4,
      "note": 54,
      "start": 2.2699,
      "duration": 0.0276,
      "velocity": 97,
      "chip": "ym2612"
    },
    {
      "channel": 1,
      "note": 80,
      "start": 2.2835,
      "duration": 0.0515,
      "velocity": 95,
      "chip": "ym2612"
    },
    {
      "channel": 3,
      "note": 76,
      "start": 2.2841,
      "duration": 0.0256,
      "velocity": 103,
      "chip": "ym2612"
    },
    {
      "channel": 0,
      "note": 78,
      "start": 2.2968,
      "duration": 0.0756,
      "velocity": 95,
      "chip": "ym2612"
    },
    {
      "channel": 3,
      "note": 73,
      "start": 2.3098,
      "duration": 0.1039,
      "velocity": 103,
      "chip": "ym2612"
    },
    {
      "channel": 1,
      "note": 78,
      "start": 2.335,
      "duration": 0.0781,
      "velocity": 95,
      "chip": "ym2612"
    },
    {
      "channel": 0,
      "note": 78,
      "start": 2.3724,
      "duration": 0.2155,
      "velocity": 95,
      "chip": "ym2612"
    },
    {
      "channel": 2,
      "note": 73,
      "start": 2.373,
      "duration": 0.0274,
      "velocity": 103,
      "chip": "ym2612"
    },
    {
      "channel": 4,
      "note": 54,
      "start": 2.3736,
      "duration": 0.0274,
      "velocity": 97,
      "chip": "ym2612"
    },
    {
      "channel": 2,
      "note": 73,
      "start": 2.4006,
      "duration": 0.0127,
      "velocity": 103,
      "chip": "ym2612"
    },
    {
      "channel": 1,
      "note": 78,
      "start": 2.4132,
      "duration": 0.2097,
      "velocity": 95,
      "chip": "ym2612"
    },
    {
      "channel": 3,
      "note": 73,
      "start": 2.4137,
      "duration": 0.0251,
      "velocity": 103,
      "chip": "ym2612"
    },
    {
      "channel": 2,
      "note": 71,
      "start": 2.4257,
      "duration": 0.013,
      "velocity": 103,
      "chip": "ym2612"
    },
    {
      "channel": 3,
      "note": 73,
      "start": 2.439,
      "duration": 0.0129,
      "velocity": 103,
      "chip": "ym2612"
    },
    {
      "channel": 2,
      "note": 71,
      "start": 2.4517,
      "duration": 0.1091,
      "velocity": 103,
      "chip": "ym2612"
    },
    {
      "channel": 4,
      "note": 54,
      "start": 2.4524,
      "duration": 0.0274,
      "velocity": 97,
      "chip": "ym2612"
    },
    {
      "channel": 3,
      "note": 71,
      "start": 2.4655,
      "duration": 0.0141,
      "velocity": 103,
      "chip": "ym2612"
    },
    {
      "channel": 4,
      "note": 54,
      "start": 2.48,
      "duration": 0.0266,
      "velocity": 97,
      "chip": "ym2612"
    },
    {
      "channel": 3,
      "note": 71,
      "start": 2.4929,
      "duration": 0.1094,
      "velocity": 103,
      "chip": "ym2612"
    },
    {
      "channel": 4,
      "note": 57,
      "start": 2.5069,
      "duration": 0.0261,
      "velocity": 97,
      "chip": "ym2612"
    },
    {
      "channel": 4,
      "note": 54,
      "start": 2.5332,
      "duration": 0.028,
      "velocity": 97,
      "chip": "ym2612"
    },
    {
      "channel": 4,
      "note": 52,
      "start": 2.5614,
      "duration": 0.0276,
      "velocity": 97,
      "chip": "ym2612"
    },
    {
      "channel": 2,
      "note": 73,
      "start": 2.5886,
      "duration": 0.0135,
      "velocity": 103,
      "chip": "ym2612"
    },
    {
      "channel": 4,
      "note": 49,
      "start": 2.5892,
      "duration": 0.0235,
      "velocity": 97,
      "chip": "ym2612"
    },
    {
      "channel": 2,
      "note": 73,
      "start": 2.6124,
      "duration": 0.0105,
      "velocity": 103,
      "chip": "ym2612"
    },
    {
      "channel": 3,
      "note": 73,
      "start": 2.6235,
      "duration": 0.01,
      "velocity": 103,
      "chip": "ym2612"
    },
    {
      "channel": 2,
      "note": 73,
      "start": 2.6333,
      "duration": 0.0103,
      "velocity": 103,
      "chip": "ym2612"
    },
    {
      "channel": 3,
      "note": 73,
      "start": 2.644,
      "duration": 0.0109,
      "velocity": 103,
      "chip": "ym2612"
    },
    {
      "channel": 2,
      "note": 71,
      "start": 2.6547,
      "duration": 0.0115,
      "velocity": 103,
      "chip": "ym2612"
    },
    {
      "channel": 4,
      "note": 50,
      "start": 2.6553,
      "duration": 0.0218,
      "velocity": 97,
      "chip": "ym2612"
    },
    {
      "channel": 3,
      "note": 73,
      "start": 2.6667,
      "duration": 0.0103,
      "velocity": 103,
      "chip": "ym2612"
    },
    {
      "channel": 4,
      "note": 50,
      "start": 2.6773,
      "duration": 0.0199,
      "velocity": 97,
      "chip": "ym2612"
    },
    {
      "channel": 3,
      "note": 71,
      "start": 2.6868,
      "duration": 0.0103,
      "velocity": 103,
      "chip": "ym2612"
    },
    {
      "channel": 2,
      "note": 73,
      "start": 2.6969,
      "duration": 0.01,
      "velocity": 103,
      "chip": "ym2612"
    },
    {
      "channel": 2,
      "note": 71,
      "start": 2.7168,
      "duration": 0.0439,
      "velocity": 103,
      "chip": "ym2612"
    },
    {
      "channel": 3,
      "note": 73,
      "start": 2.7295,
      "duration": 0.0107,
      "velocity": 103,
      "chip": "ym2612"
    },
    {
      "channel": 3,
      "note": 71,
      "start": 2.7499,
      "duration": 0.0431,
      "velocity": 103,
      "chip": "ym2612"
    },
    {
      "channel": 4,
      "note": 50,
      "start": 2.7613,
      "duration": 0.0214,
      "velocity": 97,
      "chip": "ym2612"
    },
    {
      "channel": 0,
      "note": 78,
      "start": 2.7822,
      "duration": 0.042,
      "velocity": 95,
      "chip": "ym2612"
    },
    {
      "channel": 1,
      "note": 78,
      "start": 2.812,
      "duration": 0.0468,
      "velocity": 95,
      "chip": "ym2612"
    },
    {
      "channel": 0,
      "note": 71,
      "start": 2.8244,
      "duration": 0.0459,
      "velocity": 95,
      "chip": "ym2612"
    },
    {
      "channel": 4,
      "note": 52,
      "start": 2.8251,
      "duration": 0.0226,
      "velocity": 97,
      "chip": "ym2612"
    },
    {
      "channel": 4,
      "note": 52,
      "start": 2.8479,
      "duration": 0.0236,
      "velocity": 97,
      "chip": "ym2612"
    },
    {
      "channel": 1,
      "note": 71,
      "start": 2.8591,
      "duration": 0.0483,
      "velocity": 95,
      "chip": "ym2612"
    },
    {
      "channel": 0,
      "note": 73,
      "start": 2.8706,
      "duration": 0.0222,
      "velocity": 95,
      "chip": "ym2612"
    },
    {
      "channel": 2,
      "note": 73,
      "start": 2.8712,
      "duration": 0.0119,
      "velocity": 103,
      "chip": "ym2612"
    },
    {
      "channel": 0,
      "note": 76,
      "start": 2.8931,
      "duration": 0.0259,
      "velocity": 95,
      "chip": "ym2612"
    },
    {
      "channel": 2,
      "note": 71,
      "start": 2.8936,
      "duration": 0.0142,
      "velocity": 103,
      "chip": "ym2612"
    },
    {
      "channel": 1,
      "note": 73,
      "start": 2.9076,
      "duration": 0.0241,
      "velocity": 95,
      "chip": "ym2612"
    },
    {
      "channel": 3,
      "note": 73,
      "start": 2.9082,
      "duration": 0.0118,
      "velocity": 103,
      "chip": "ym2612"
    },
    {
      "channel": 0,
      "note": 73,
      "start": 2.9192,
      "duration": 0.0243,
      "velocity": 95,
      "chip": "ym2612"
    },
    {
      "channel": 2,
      "note": 73,
      "start": 2.9198,
      "duration": 0.0124,
      "velocity": 103,
      "chip": "ym2612"
    },
    {
      "channel": 1,
      "note": 76,
      "start": 2.932,
      "duration": 0.024,
      "velocity": 95,
      "chip": "ym2612"
    },
    {
      "channel": 3,
      "note": 71,
      "start": 2.9325,
      "duration": 0.0119,
      "velocity": 103,
      "chip": "ym2612"
    },
    {
      "channel": 0,
      "note": 71,
      "start": 2.9438,
      "duration": 0.0245,
      "velocity": 95,
      "chip": "ym2612"
    },
    {
      "channel": 4,
      "note": 52,
      "start": 2.9448,
      "duration": 0.0243,
      "velocity": 97,
      "chip": "ym2612"
    },
    {
      "channel": 1,
      "note": 73,
      "start": 2.9562,
      "duration": 0.0226,
      "velocity": 95,
      "chip": "ym2612"
    },
    {
      "channel": 3,
      "note": 73,
      "start": 2.9567,
      "duration": 0.0122,
      "velocity": 103,
      "chip": "ym2612"
    },
    {
      "channel": 0,
      "note": 71,
      "start": 2.9686,
      "duration": 0.0205,
      "velocity": 95,
      "chip": "ym2612"
    },
    {
      "channel": 1,
      "note": 71,
      "start": 2.9791,
      "duration": 0.0208,
      "velocity": 95,
      "chip": "ym2612"
    },
    {
      "channel": 0,
      "note": 69,
      "start": 2.9894,
      "duration": 0.1374,
      "velocity": 95,
      "chip": "ym2612"
    },
    {
      "channel": 1,
      "note": 71,
      "start": 3.0002,
      "duration": 0.023,
      "velocity": 95,
      "chip": "ym2612"
    },
    {
      "channel": 4,
      "note": 54,
      "start": 3.0118,
      "duration": 0.0228,
      "velocity": 97,
      "chip": "ym2612"
    },
    {
      "channel": 1,
      "note": 69,
      "start": 3.0234,
      "duration": 0.141,
      "velocity": 95,
      "chip": "ym2612"
    },
    {
      "channel": 4,
      "note": 54,
      "start": 3.0349,
      "duration": 0.022,
      "velocity": 97,
      "chip": "ym2612"
    },
    {
      "channel": 2,
      "note": 76,
      "start": 3.0566,
      "duration": 0.0114,
      "velocity": 103,
      "chip": "ym2612"
    },
    {
      "channel": 2,
      "note": 76,
      "start": 3.0785,
      "duration": 0.0139,
      "velocity": 103,
      "chip": "ym2612"
    },
    {
      "channel": 3,
      "note": 76,
      "start": 3.0927,
      "duration": 0.0115,
      "velocity": 103,
      "chip": "ym2612"
    },
    {
      "channel": 2,
      "note": 73,
      "start": 3.104,
      "duration": 0.0116,
      "velocity": 103,
      "chip": "ym2612"
    },
    {
      "channel": 3,
      "note": 76,
      "start": 3.116,
      "duration": 0.0117,
      "velocity": 103,
      "chip": "ym2612"
    },
    {
      "channel": 2,
      "note": 71,
      "start": 3.1274,
      "duration": 0.0266,
      "velocity": 103,
      "chip": "ym2612"
    },
    {
      "channel": 4,
      "note": 54,
      "start": 3.1281,
      "duration": 0.0261,
      "velocity": 97,
      "chip": "ym2612"
    },
    {
      "channel": 3,
      "note": 73,
      "start": 3.1409,
      "duration": 0.0132,
      "velocity": 103,
      "chip": "ym2612"
    },
    {
      "channel": 0,
      "note": 66,
      "start": 3.1536,
      "duration": 0.0215,
      "velocity": 95,
      "chip": "ym2612"
    },
    {
      "channel": 3,
      "note": 71,
      "start": 3.165,
      "duration": 0.0257,
      "velocity": 103,
      "chip": "ym2612"
    },
    {
      "channel": 0,
      "note": 64,
      "start": 3.1754,
      "duration": 0.0278,
      "velocity": 95,
      "chip": "ym2612"
    },
    {
      "channel": 2,
      "note": 73,
      "start": 3.1758,
      "duration": 0.028,
      "velocity": 103,
      "chip": "ym2612"
    },
    {
      "channel": 1,
      "note": 66,
      "start": 3.1904,
      "duration": 0.0251,
      "velocity": 95,
      "chip": "ym2612"
    },
    {
      "channel": 0,
      "note": 66,
      "start": 3.2035,
      "duration": 0.0243,
      "velocity": 95,
      "chip": "ym2612"
    },
    {
      "channel": 4,
      "note": 52,
      "start": 3.2042,
      "duration": 0.0247,
      "velocity": 97,
      "chip": "ym2612"
    },
    {
      "channel": 1,
      "note": 64,
      "start": 3.2157,
      "duration": 0.0287,
      "velocity": 95,
      "chip": "ym2612"
    },
    {
      "channel": 3,
      "note": 73,
      "start": 3.2162,
      "duration": 0.0288,
      "velocity": 103,
      "chip": "ym2612"
    },
    {
      "channel": 0,
      "note": 69,
      "start": 3.228,
      "duration": 0.028,
      "velocity": 95,
      "chip": "ym2612"
    },
    {
      "channel": 2,
      "note": 76,
      "start": 3.2287,
      "duration": 0.028,
      "velocity": 103,
      "chip": "ym2612"
    },
    {
      "channel": 4,
      "note": 52,
      "start": 3.2292,
      "duration": 0.0276,
      "velocity": 97,
      "chip": "ym2612"
    },
    {
      "channel": 1,
      "note": 66,
      "start": 3.2446,
      "duration": 0.0236,
      "velocity": 95,
      "chip": "ym2612"
    },
    {
      "channel": 0,
      "note": 68,
      "start": 3.2563,
      "duration": 0.0251,
      "velocity": 95,
      "chip": "ym2612"
    },
    {
      "channel": 4,
      "note": 52,
      "start": 3.2571,
      "duration": 0.0256,
      "velocity": 97,
      "chip": "ym2612"
    },
    {
      "channel": 1,
      "note": 69,
      "start": 3.2685,
      "duration": 0.0291,
      "velocity": 95,
      "chip": "ym2612"
    },
    {
      "channel": 3,
      "note": 76,
      "start": 3.269,
      "duration": 0.0292,
      "velocity": 103,
      "chip": "ym2612"
    },
    {
      "channel": 0,
      "note": 69,
      "start": 3.2817,
      "duration": 0.0276,
      "velocity": 95,
      "chip": "ym2612"
    },
    {
      "channel": 2,
      "note": 78,
      "start": 3.2822,
      "duration": 0.0276,
      "velocity": 103,
      "chip": "ym2612"
    },
    {
      "channel": 4,
      "note": 47,
      "start": 3.2829,
      "duration": 0.0271,
      "velocity": 97,
      "chip": "ym2612"
    },
    {
      "channel": 1,
      "note": 68,
      "start": 3.2978,
      "duration": 0.0265,
      "velocity": 95,
      "chip": "ym2612"
    },
    {
      "channel": 0,
      "note": 71,
      "start": 3.3095,
      "duration": 0.0267,
      "velocity": 95,
      "chip": "ym2612"
    },
    {
      "channel": 4,
      "note": 49,
      "start": 3.3103,
      "duration": 0.027,
      "velocity": 97,
      "chip": "ym2612"
    },
    {
      "channel": 1,
      "note": 69,
      "start": 3.3246,
      "duration": 0.026,
      "velocity": 95,
      "chip": "ym2612"
    },
    {
      "channel": 3,
      "note": 78,
      "start": 3.3251,
      "duration": 0.0261,
      "velocity": 103,
      "chip": "ym2612"
    },
    {
      "channel": 2,
      "note": 80,
      "start": 3.3369,
      "duration": 0.0141,
      "velocity": 103,
      "chip": "ym2612"
    },
    {
      "channel": 4,
      "note": 52,
      "start": 3.3376,
      "duration": 0.0239,
      "velocity": 97,
      "chip": "ym2612"
    },
    {
      "channel": 1,
      "note": 71,
      "start": 3.3508,
      "duration": 0.021,
      "velocity": 95,
      "chip": "ym2612"
    },
    {
      "channel": 2,
      "note": 73,
      "start": 3.3613,
      "duration": 0.0106,
      "velocity": 103,
      "chip": "ym2612"
    },
    {
      "channel": 3,
      "note": 80,
      "start": 3.3724,
      "duration": 0.0099,
      "velocity": 103,
      "chip": "ym2612"
    },
    {
      "channel": 2,
      "note": 73,
      "start": 3.3822,
      "duration": 0.0121,
      "velocity": 103,
      "chip": "ym2612"
    },
    {
      "channel": 3,
      "note": 73,
      "start": 3.3946,
      "duration": 0.0108,
      "velocity": 103,
      "chip": "ym2612"
    },
    {
      "channel": 2,
      "note": 71,
      "start": 3.4053,
      "duration": 0.0119,
      "velocity": 103,
      "chip": "ym2612"
    },
    {
      "channel": 4,
      "note": 57,
      "start": 3.4058,
      "duration": 0.0215,
      "velocity": 97,
      "chip": "ym2612"
    },
    {
      "channel": 3,
      "note": 73,
      "start": 3.4175,
      "duration": 0.0097,
      "velocity": 103,
      "chip": "ym2612"
    },
    {
      "channel": 4,
      "note": 57,
      "start": 3.4276,
      "duration": 0.0202,
      "velocity": 97,
      "chip": "ym2612"
    },
    {
      "channel": 3,
      "note": 71,
      "start": 3.4372,
      "duration": 0.0104,
      "velocity": 103,
      "chip": "ym2612"
    },
    {
      "channel": 2,
      "note": 73,
      "start": 3.4474,
      "duration": 0.01,
      "velocity": 103,
      "chip": "ym2612"
    },
    {
      "channel": 2,
      "note": 71,
      "start": 3.4672,
      "duration": 0.0441,
      "velocity": 103,
      "chip": "ym2612"
    },
    {
      "channel": 3,
      "note": 73,
      "start": 3.4799,
      "duration": 0.0106,
      "velocity": 103,
      "chip": "ym2612"
    },
    {
      "channel": 3,
      "note": 71,
      "start": 3.5005,
      "duration": 0.0438,
      "velocity": 103,
      "chip": "ym2612"
    },
    {
      "channel": 4,
      "note": 57,
      "start": 3.512,
      "duration": 0.0219,
      "velocity": 97,
      "chip": "ym2612"
    },
    {
      "channel": 0,
      "note": 76,
      "start": 3.5335,
      "duration": 0.0419,
      "velocity": 95,
      "chip": "ym2612"
    },
    {
      "channel": 1,
      "note": 76,
      "start": 3.5632,
      "duration": 0.0468,
      "velocity": 95,
      "chip": "ym2612"
    },
    {
      "channel": 0,
      "note": 71,
      "start": 3.5756,
      "duration": 0.0459,
      "velocity": 95,
      "chip": "ym2612"
    },
    {
      "channel": 4,
      "note": 57,
      "start": 3.5763,
      "duration": 0.0226,
      "velocity": 97,
      "chip": "ym2612"
    },
    {
      "channel": 4,
      "note": 57,
      "start": 3.599,
      "duration": 0.0235,
      "velocity": 97,
      "chip": "ym2612"
    },
    {
      "channel": 1,
      "note": 71,
      "start": 3.6102,
      "duration": 0.0491,
      "velocity": 95,
      "chip": "ym2612"
    },
    {
      "channel": 0,
      "note": 73,
      "start": 3.6217,
      "duration": 0.0498,
      "velocity": 95,
      "chip": "ym2612"
    },
    {
      "channel": 2,
      "note": 73,
      "start": 3.6223,
      "duration": 0.0129,
      "velocity": 103,
      "chip": "ym2612"
    },
    {
      "channel": 4,
      "note": 61,
      "start": 3.6228,
      "duration": 0.0241,
      "velocity": 97,
      "chip": "ym2612"
    },
    {
      "channel": 2,
      "note": 71,
      "start": 3.6466,
      "duration": 0.0132,
      "velocity": 103,
      "chip": "ym2612"
    },
    {
      "channel": 4,
      "note": 59,
      "start": 3.6471,
      "duration": 0.0256,
      "velocity": 97,
      "chip": "ym2612"
    },
    {
      "channel": 1,
      "note": 73,
      "start": 3.6596,
      "duration": 0.0525,
      "velocity": 95,
      "chip": "ym2612"
    },
    {
      "channel": 3,
      "note": 73,
      "start": 3.6602,
      "duration": 0.0125,
      "velocity": 103,
      "chip": "ym2612"
    },
    {
      "channel": 0,
      "note": 76,
      "start": 3.6718,
      "duration": 0.0258,
      "velocity": 95,
      "chip": "ym2612"
    },
    {
      "channel": 2,
      "note": 73,
      "start": 3.6724,
      "duration": 0.013,
      "velocity": 103,
      "chip": "ym2612"
    },
    {
      "channel": 4,
      "note": 57,
      "start": 3.673,
      "duration": 0.0259,
      "velocity": 97,
      "chip": "ym2612"
    },
    {
      "channel": 3,
      "note": 71,
      "start": 3.6858,
      "duration": 0.013,
      "velocity": 103,
      "chip": "ym2612"
    },
    {
      "channel": 0,
      "note": 78,
      "start": 3.6979,
      "duration": 0.0792,
      "velocity": 95,
      "chip": "ym2612"
    },
    {
      "channel": 2,
      "note": 76,
      "start": 3.6985,
      "duration": 0.0792,
      "velocity": 103,
      "chip": "ym2612"
    },
    {
      "channel": 4,
      "note": 52,
      "start": 3.6992,
      "duration": 0.0273,
      "velocity": 97,
      "chip": "ym2612"
    },
    {
      "channel": 1,
      "note": 76,
      "start": 3.7123,
      "duration": 0.0248,
      "velocity": 95,
      "chip": "ym2612"
    },
    {
      "channel": 3,
      "note": 73,
      "start": 3.7129,
      "duration": 0.0134,
      "velocity": 103,
      "chip": "ym2612"
    },
    {
      "channel": 1,
      "note": 78,
      "start": 3.7374,
      "duration": 0.0824,
      "velocity": 95,
      "chip": "ym2612"
    },
    {
      "channel": 3,
      "note": 76,
      "start": 3.7381,
      "duration": 0.0824,
      "velocity": 103,
      "chip": "ym2612"
    },
    {
      "channel": 0,
      "note": 80,
      "start": 3.7773,
      "duration": 0.0561,
      "velocity": 95,
      "chip": "ym2612"
    },
    {
      "channel": 2,
      "note": 76,
      "start": 3.7779,
      "duration": 0.028,
      "velocity": 103,
      "chip": "ym2612"
    },
    {
      "channel": 4,
      "note": 54,
      "start": 3.7785,
      "duration": 0.0277,
      "velocity": 97,
      "chip": "ym2612"
    },
    {
      "channel": 2,
      "note": 73,
      "start": 3.8059,
      "duration": 0.1037,
      "velocity": 103,
      "chip": "ym2612"
    },
    {
      "channel": 4,
      "note": 54,
      "start": 3.8065,
      "duration": 0.0276,
      "velocity": 97,
      "chip": "ym2612"
    },
    {
      "channel": 1,
      "note": 80,
      "start": 3.8201,
      "duration": 0.0515,
      "velocity": 95,
      "chip": "ym2612"
    },
    {
      "channel": 3,
      "note": 76,
      "start": 3.8207,
      "duration": 0.0256,
      "velocity": 103,
      "chip": "ym2612"
    },
    {
      "channel": 0,
      "note": 78,
      "start": 3.8334,
      "duration": 0.0756,
      "velocity": 95,
      "chip": "ym2612"
    },
    {
      "channel": 3,
      "note": 73,
      "start": 3.8464,
      "duration": 0.1039,
      "velocity": 103,
      "chip": "ym2612"
    },
    {
      "channel": 1,
      "note": 78,
      "start": 3.8716,
      "duration": 0.0781,
      "velocity": 95,
      "chip": "ym2612"
    },
    {
      "channel": 0,
      "note": 78,
      "start": 3.909,
      "duration": 0.2155,
      "velocity": 95,
      "chip": "ym2612"
    },
    {
      "channel": 2,
      "note": 73,
      "start": 3.9096,
      "duration": 0.0274,
      "velocity": 103,
      "chip": "ym2612"
    },
    {
      "channel": 4,
      "note": 54,
      "start": 3.9102,
      "duration": 0.0274,
      "velocity": 97,
      "chip": "ym2612"
    },
    {
      "channel": 2,
      "note": 73,
      "start": 3.9372,
      "duration": 0.0127,
      "velocity": 103,
      "chip": "ym2612"
    },
    {
      "channel": 1,
      "note": 78,
      "start": 3.9498,
      "duration": 0.2097,
      "velocity": 95,
      "chip": "ym2612"
    },
    {
      "channel": 3,
      "note": 73,
      "start": 3.9503,
      "duration": 0.0251,
      "velocity": 103,
      "chip": "ym2612"
    },
    {
      "channel": 2,
      "note": 71,
      "start": 3.9623,
      "duration": 0.013,
      "velocity": 103,
      "chip": "ym2612"
    },
    {
      "channel": 3,
      "note": 73,
      "start": 3.9756,
      "duration": 0.0129,
      "velocity": 103,
      "chip": "ym2612"
    },
    {
      "channel": 2,
      "note": 71,
      "start": 3.9883,
      "duration": 0.1091,
      "velocity": 103,
      "chip": "ym2612"
    },
    {
      "channel": 4,
      "note": 54,
      "start": 3.989,
      "duration": 0.0274,
      "velocity": 97,
      "chip": "ym2612"
    },
    {
      "channel": 3,
      "note": 71,
      "start": 4.0021,
      "duration": 0.0141,
      "velocity": 103,
      "chip": "ym2612"
    },
    {
      "channel": 4,
      "note": 54,
      "start": 4.0166,
      "duration": 0.0266,
      "velocity": 97,
      "chip": "ym2612"
    },
    {
      "channel": 3,
      "note": 71,
      "start": 4.0295,
      "duration": 0.1094,
      "velocity": 103,
      "chip": "ym2612"
    },
    {
      "channel": 4,
      "note": 57,
      "start": 4.0435,
      "duration": 0.0261,
      "velocity": 97,
      "chip": "ym2612"
    },
    {
      "channel": 4,
      "note": 54,
      "start": 4.0698,
      "duration": 0.028,
      "velocity": 97,
      "chip": "ym2612"
    },
    {
      "channel": 4,
      "note": 52,
      "start": 4.098,
      "duration": 0.0276,
      "velocity": 97,
      "chip": "ym2612"
    },
    {
      "channel": 2,
      "note": 73,
      "start": 4.1252,
      "duration": 0.0135,
      "velocity": 103,
      "chip": "ym2612"
    },
    {
      "channel": 4,
      "note": 49,
      "start": 4.1258,
      "duration": 0.0235,
      "velocity": 97,
      "chip": "ym2612"
    },
    {
      "channel": 2,
      "note": 73,
      "start": 4.149,
      "duration": 0.0105,
      "velocity": 103,
      "chip": "ym2612"
    },
    {
      "channel": 3,
      "note": 73,
      "start": 4.1601,
      "duration": 0.01,
      "velocity": 103,
      "chip": "ym2612"
    },
    {
      "channel": 2,
      "note": 73,
      "start": 4.1699,
      "duration": 0.0103,
      "velocity": 103,
      "chip": "ym2612"
    },
    {
      "channel": 3,
      "note": 73,
      "start": 4.1806,
      "duration": 0.0109,
      "velocity": 103,
      "chip": "ym2612"
    },
    {
      "channel": 2,
      "note": 71,
      "start": 4.1913,
      "duration": 0.0115,
      "velocity": 103,
      "chip": "ym2612"
    },
    {
      "channel": 4,
      "note": 50,
      "start": 4.1919,
      "duration": 0.0218,
      "velocity": 97,
      "chip": "ym2612"
    },
    {
      "channel": 3,
      "note": 73,
      "start": 4.2033,
      "duration": 0.0103,
      "velocity": 103,
      "chip": "ym2612"
    },
    {
      "channel": 4,
      "note": 50,
      "start": 4.2139,
      "duration": 0.0199,
      "velocity": 97,
      "chip": "ym2612"
    },
    {
      "channel": 3,
      "note": 71,
      "start": 4.2234,
      "duration": 0.0103,
      "velocity": 103,
      "chip": "ym2612"
    },
    {
      "channel": 2,
      "note": 73,
      "start": 4.2335,
      "duration": 0.01,
      "velocity": 103,
      "chip": "ym2612"
    },
    {
      "channel": 2,
      "note": 71,
      "start": 4.2534,
      "duration": 0.0439,
      "velocity": 103,
      "chip": "ym2612"
    },
    {
      "channel": 3,
      "note": 73,
      "start": 4.2661,
      "duration": 0.0107,
      "velocity": 103,
      "chip": "ym2612"
    },
    {
      "channel": 3,
      "note": 71,
      "start": 4.2865,
      "duration": 0.0431,
      "velocity": 103,
      "chip": "ym2612"
    },
    {
      "channel": 4,
      "note": 50,
      "start": 4.2979,
      "duration": 0.0214,
      "velocity": 97,
      "chip": "ym2612"
    },
    {
      "channel": 0,
      "note": 78,
      "start": 4.3188,
      "duration": 0.042,
      "velocity": 95,
      "chip": "ym2612"
    },
    {
      "channel": 1,
      "note": 78,
      "start": 4.3486,
      "duration": 0.0468,
      "velocity": 95,
      "chip": "ym2612"
    },
    {
      "channel": 0,
      "note": 71,
      "start": 4.361,
      "duration": 0.0459,
      "velocity": 95,
      "chip": "ym2612"
    },
    {
      "channel": 4,
      "note": 52,
      "start": 4.3617,
      "duration": 0.0226,
      "velocity": 97,
      "chip": "ym2612"
    },
    {
      "channel": 4,
      "note": 52,
      "start": 4.3845,
      "duration": 0.0236,
      "velocity": 97,
      "chip": "ym2612"
    },
    {
      "channel": 1,
      "note": 71,
      "start": 4.3957,
      "duration": 0.0483,
      "velocity": 95,
      "chip": "ym2612"
    },
    {
      "channel": 0,
      "note": 73,
      "start": 4.4072,
      "duration": 0.0222,
      "velocity": 95,
      "chip": "ym2612"
    },
    {
      "channel": 2,
      "note": 73,
      "start": 4.4078,
      "duration": 0.0119,
      "velocity": 103,
      "chip": "ym2612"
    },
    {
      "channel": 0,
      "note": 76,
      "start": 4.4297,
      "duration": 0.0259,
      "velocity": 95,
      "chip": "ym2612"
    },
    {
      "channel": 2,
      "note": 71,
      "start": 4.4302,
      "duration": 0.0142,
      "velocity": 103,
      "chip": "ym2612"
    },
    {
      "channel": 1,
      "note": 73,
      "start": 4.4442,
      "duration": 0.0241,
      "velocity": 95,
      "chip": "ym2612"
    },
    {
      "channel": 3,
      "note": 73,
      "start": 4.4448,
      "duration": 0.0118,
      "velocity": 103,
      "chip": "ym2612"
    },
    {
      "channel": 0,
      "note": 73,
      "start": 4.4558,
      "duration": 0.0243,
      "velocity": 95,
      "chip": "ym2612"
    },
    {
      "channel": 2,
      "note": 73,
      "start": 4.4564,
      "duration": 0.0124,
      "velocity": 103,
      "chip": "ym2612"
    },
    {
      "channel": 1,
      "note": 76,
      "start": 4.4685,
      "duration": 0.024,
      "velocity": 95,
      "chip": "ym2612"
    },
    {
      "channel": 3,
      "note": 71,
      "start": 4.4691,
      "duration": 0.0119,
      "velocity": 103,
      "chip": "ym2612"
    },
    {
      "channel": 0,
      "note": 71,
      "start": 4.4804,
      "duration": 0.0245,
      "velocity": 95,
      "chip": "ym2612"
    },
    {
      "channel": 4,
      "note": 52,
      "start": 4.4814,
      "duration": 0.0243,
      "velocity": 97,
      "chip": "ym2612"
    },
    {
      "channel": 1,
      "note": 73,
      "start": 4.4928,
      "duration": 0.0226,
      "velocity": 95,
      "chip": "ym2612"
    },
    {
      "channel": 3,
      "note": 73,
      "start": 4.4933,
      "duration": 0.0122,
      "velocity": 103,
      "chip": "ym2612"
    },
    {
      "channel": 0,
      "note": 71,
      "start": 4.5052,
      "duration": 0.0205,
      "velocity": 95,
      "chip": "ym2612"
    },
    {
      "channel": 1,
      "note": 71,
      "start": 4.5157,
      "duration": 0.0208,
      "velocity": 95,
      "chip": "ym2612"
    },
    {
      "channel": 0,
      "note": 69,
      "start": 4.526,
      "duration": 0.1374,
      "velocity": 95,
      "chip": "ym2612"
    },
    {
      "channel": 1,
      "note": 71,
      "start": 4.5368,
      "duration": 0.023,
      "velocity": 95,
      "chip": "ym2612"
    },
    {
      "channel": 4,
      "note": 54,
      "start": 4.5484,
      "duration": 0.0228,
      "velocity": 97,
      "chip": "ym2612"
    },
    {
      "channel": 1,
      "note": 69,
      "start": 4.56,
      "duration": 0.141,
      "velocity": 95,
      "chip": "ym2612"
    },
    {
      "channel": 4,
      "note": 54,
      "start": 4.5715,
      "duration": 0.022,
      "velocity": 97,
      "chip": "ym2612"
    },
    {
      "channel": 2,
      "note": 76,
      "start": 4.5932,
      "duration": 0.0114,
      "velocity": 103,
      "chip": "ym2612"
    },
    {
      "channel": 2,
      "note": 76,
      "start": 4.6151,
      "duration": 0.0139,
      "velocity": 103,
      "chip": "ym2612"
    },
    {
      "channel": 3,
      "note": 76,
      "start": 4.6293,
      "duration": 0.0115,
      "velocity": 103,
      "chip": "ym2612"
    },
    {
      "channel": 2,
      "note": 73,
      "start": 4.6406,
      "duration": 0.0116,
      "velocity": 103,
      "chip": "ym2612"
    },
    {
      "channel": 3,
      "note": 76,
      "start": 4.6526,
      "duration": 0.0117,
      "velocity": 103,
      "chip": "ym2612"
    },
    {
      "channel": 2,
      "note": 71,
      "start": 4.664,
      "duration": 0.0266,
      "velocity": 103,
      "chip": "ym2612"
    },
    {
      "channel": 4,
      "note": 54,
      "start": 4.6647,
      "duration": 0.0261,
      "velocity": 97,
      "chip": "ym2612"
    },
    {
      "channel": 3,
      "note": 73,
      "start": 4.6775,
      "duration": 0.0132,
      "velocity": 103,
      "chip": "ym2612"
    },
    {
      "channel": 0,
      "note": 66,
      "start": 4.6902,
      "duration": 0.0215,
      "velocity": 95,
      "chip": "ym2612"
    },
    {
      "channel": 3,
      "note": 71,
      "start": 4.7016,
      "duration": 0.0257,
      "velocity": 103,
      "chip": "ym2612"
    },
    {
      "channel": 0,
      "note": 64,
      "start": 4.712,
      "duration": 0.0278,
      "velocity": 95,
      "chip": "ym2612"
    },
    {
      "channel": 2,
      "note": 73,
      "start": 4.7124,
      "duration": 0.028,
      "velocity": 103,
      "chip": "ym2612"
    },
    {
      "channel": 1,
      "note": 66,
      "start": 4.727,
      "duration": 0.0251,
      "velocity": 95,
      "chip": "ym2612"
    },
    {
      "channel": 0,
      "note": 66,
      "start": 4.7401,
      "duration": 0.0243,
      "velocity": 95,
      "chip": "ym2612"
    },
    {
      "channel": 4,
      "note": 52,
      "start": 4.7408,
      "duration": 0.0247,
      "velocity": 97,
      "chip": "ym2612"
    },
    {
      "channel": 1,
      "note": 64,
      "start": 4.7523,
      "duration": 0.0287,
      "velocity": 95,
      "chip": "ym2612"
    },
    {
      "channel": 3,
      "note": 73,
      "start": 4.7528,
      "duration": 0.0288,
      "velocity": 103,
      "chip": "ym2612"
    },
    {
      "channel": 0,
      "note": 69,
      "start": 4.7646,
      "duration": 0.028,
      "velocity": 95,
      "chip": "ym2612"
    },
    {
      "channel": 2,
      "note": 76,
      "start": 4.7653,
      "duration": 0.028,
      "velocity": 103,
      "chip": "ym2612"
    },
    {
      "channel": 4,
      "note": 52,
      "start": 4.7658,
      "duration": 0.0276,
      "velocity": 97,
      "chip": "ym2612"
    },
    {
      "channel": 1,
      "note": 66,
      "start": 4.7812,
      "duration": 0.0236,
      "velocity": 95,
      "chip": "ym2612"
    },
    {
      "channel": 0,
      "note": 68,
      "start": 4.7929,
      "duration": 0.0252,
      "velocity": 95,
      "chip": "ym2612"
    },
    {
      "channel": 4,
      "note": 52,
      "start": 4.7937,
      "duration": 0.0258,
      "velocity": 97,
      "chip": "ym2612"
    },
    {
      "channel": 1,
      "note": 69,
      "start": 4.8051,
      "duration": 0.0295,
      "velocity": 95,
      "chip": "ym2612"
    },
    {
      "channel": 3,
      "note": 76,
      "start": 4.8056,
      "duration": 0.0296,
      "velocity": 103,
      "chip": "ym2612"
    },
    {
      "channel": 0,
      "note": 69,
      "start": 4.8183,
      "duration": 0.0279,
      "velocity": 95,
      "chip": "ym2612"
    },
    {
      "channel": 2,
      "note": 78,
      "start": 4.819,
      "duration": 0.0279,
      "velocity": 103,
      "chip": "ym2612"
    },
    {
      "channel": 4,
      "note": 62,
      "start": 4.8195,
      "duration": 0.0275,
      "velocity": 97,
      "chip": "ym2612"
    },
    {
      "channel": 1,
      "note": 68,
      "start": 4.8348,
      "duration": 0.0266,
      "velocity": 95,
      "chip": "ym2612"
    },
    {
      "channel": 0,
      "note": 71,
      "start": 4.8465,
      "duration": 0.0268,
      "velocity": 95,
      "chip": "ym2612"
    },
    {
      "channel": 4,
      "note": 64,
      "start": 4.8473,
      "duration": 0.0281,
      "velocity": 97,
      "chip": "ym2612"
    },
    {
      "channel": 1,
      "note": 69,
      "start": 4.8616,
      "duration": 0.026,
      "velocity": 95,
      "chip": "ym2612"
    },
    {
      "channel": 3,
      "note": 78,
      "start": 4.8621,
      "duration": 0.0261,
      "velocity": 103,
      "chip": "ym2612"
    },
    {
      "channel": 2,
      "note": 80,
      "start": 4.875,
      "duration": 0.1052,
      "velocity": 89,
      "chip": "ym2612"
    },
    {
      "channel": 4,
      "note": 52,
      "start": 4.8756,
      "duration": 0.0237,
      "velocity": 97,
      "chip": "ym2612"
    },
    {
      "channel": 1,
      "note": 71,
      "start": 4.8878,
      "duration": 0.0233,
      "velocity": 95,
      "chip": "ym2612"
    },
    {
      "channel": 0,
      "note": 76,
      "start": 4.8987,
      "duration": 0.0245,
      "velocity": 95,
      "chip": "ym2612"
    },
    {
      "channel": 3,
      "note": 80,
      "start": 4.9127,
      "duration": 0.107,
      "velocity": 89,
      "chip": "ym2612"
    },
    {
      "channel": 0,
      "note": 74,
      "start": 4.9235,
      "duration": 0.0278,
      "velocity": 95,
      "chip": "ym2612"
    },
    {
      "channel": 1,
      "note": 76,
      "start": 4.9385,
      "duration": 0.0277,
      "velocity": 95,
      "chip": "ym2612"
    },
    {
      "channel": 0,
      "note": 69,
      "start": 4.9515,
      "duration": 0.028,
      "velocity": 95,
      "chip": "ym2612"
    },
    {
      "channel": 4,
      "note": 50,
      "start": 4.9524,
      "duration": 0.0284,
      "velocity": 97,
      "chip": "ym2612"
    },
    {
      "channel": 1,
      "note": 74,
      "start": 4.9664,
      "duration": 0.0269,
      "velocity": 95,
      "chip": "ym2612"
    },
    {
      "channel": 0,
      "note": 66,
      "start": 4.9798,
      "duration": 0.0253,
      "velocity": 95,
      "chip": "ym2612"
    },
    {
      "channel": 2,
      "note": 78,
      "start": 4.9804,
      "duration": 0.1009,
      "velocity": 89,
      "chip": "ym2612"
    },
    {
      "channel": 4,
      "note": 50,
      "start": 4.981,
      "duration": 0.025,
      "velocity": 97,
      "chip": "ym2612"
    },
    {
      "channel": 1,
      "note": 69,
      "start": 4.9936,
      "duration": 0.0255,
      "velocity": 95,
      "chip": "ym2612"
    },
    {
      "channel": 0,
      "note": 74,
      "start": 5.0054,
      "duration": 0.0273,
      "velocity": 95,
      "chip": "ym2612"
    },
    {
      "channel": 4,
      "note": 53,
      "start": 5.0062,
      "duration": 0.0273,
      "velocity": 97,
      "chip": "ym2612"
    },
    {
      "channel": 1,
      "note": 66,
      "start": 5.0193,
      "duration": 0.0266,
      "velocity": 95,
      "chip": "ym2612"
    },
    {
      "channel": 3,
      "note": 78,
      "start": 5.0199,
      "duration": 0.1009,
      "velocity": 89,
      "chip": "ym2612"
    },
    {
      "channel": 0,
      "note": 69,
      "start": 5.0329,
      "duration": 0.0242,
      "velocity": 95,
      "chip": "ym2612"
    },
    {
      "channel": 1,
      "note": 74,
      "start": 5.0461,
      "duration": 0.0229,
      "velocity": 95,
      "chip": "ym2612"
    },
    {
      "channel": 0,
      "note": 65,
      "start": 5.0573,
      "duration": 0.0236,
      "velocity": 95,
      "chip": "ym2612"
    },
    {
      "channel": 1,
      "note": 69,
      "start": 5.0693,
      "duration": 0.0256,
      "velocity": 95,
      "chip": "ym2612"
    },
    {
      "channel": 0,
      "note": 76,
      "start": 5.0809,
      "duration": 0.0261,
      "velocity": 95,
      "chip": "ym2612"
    },
    {
      "channel": 2,
      "note": 77,
      "start": 5.0816,
      "duration": 0.1074,
      "velocity": 89,
      "chip": "ym2612"
    },
    {
      "channel": 4,
      "note": 53,
      "start": 5.0823,
      "duration": 0.0255,
      "velocity": 97,
      "chip": "ym2612"
    },
    {
      "channel": 1,
      "note": 65,
      "start": 5.0952,
      "duration": 0.0254,
      "velocity": 95,
      "chip": "ym2612"
    },
    {
      "channel": 0,
      "note": 76,
      "start": 5.1072,
      "duration": 0.0249,
      "velocity": 95,
      "chip": "ym2612"
    },
    {
      "channel": 1,
      "note": 76,
      "start": 5.1205,
      "duration": 0.0272,
      "velocity": 95,
      "chip": "ym2612"
    },
    {
      "channel": 3,
      "note": 77,
      "start": 5.1212,
      "duration": 0.1059,
      "velocity": 89,
      "chip": "ym2612"
    },
    {
      "channel": 0,
      "note": 74,
      "start": 5.1323,
      "duration": 0.028,
      "velocity": 95,
      "chip": "ym2612"
    },
    {
      "channel": 1,
      "note": 76,
      "start": 5.148,
      "duration": 0.0273,
      "velocity": 95,
      "chip": "ym2612"
    },
    {
      "channel": 0,
      "note": 73,
      "start": 5.1606,
      "duration": 0.0779,
      "velocity": 95,
      "chip": "ym2612"
    },
    {
      "channel": 4,
      "note": 57,
      "start": 5.1615,
      "duration": 0.0282,
      "velocity": 97,
      "chip": "ym2612"
    },
    {
      "channel": 1,
      "note": 74,
      "start": 5.1756,
      "duration": 0.0268,
      "velocity": 95,
      "chip": "ym2612"
    },
    {
      "channel": 2,
      "note": 76,
      "start": 5.1893,
      "duration": 0.0982,
      "velocity": 89,
      "chip": "ym2612"
    },
    {
      "channel": 4,
      "note": 57,
      "start": 5.1898,
      "duration": 0.0249,
      "velocity": 97,
      "chip": "ym2612"
    },
    {
      "channel": 1,
      "note": 73,
      "start": 5.2026,
      "duration": 0.0718,
      "velocity": 95,
      "chip": "ym2612"
    },
    {
      "channel": 3,
      "note": 76,
      "start": 5.2273,
      "duration": 0.0991,
      "velocity": 89,
      "chip": "ym2612"
    },
    {
      "channel": 0,
      "note": 69,
      "start": 5.2387,
      "duration": 0.0485,
      "velocity": 95,
      "chip": "ym2612"
    },
    {
      "channel": 1,
      "note": 69,
      "start": 5.2746,
      "duration": 0.0514,
      "velocity": 95,
      "chip": "ym2612"
    },
    {
      "channel": 0,
      "note": 66,
      "start": 5.2872,
      "duration": 0.0254,
      "velocity": 95,
      "chip": "ym2612"
    },
    {
      "channel": 2,
      "note": 73,
      "start": 5.2878,
      "duration": 0.1066,
      "velocity": 89,
      "chip": "ym2612"
    },
    {
      "channel": 4,
      "note": 57,
      "start": 5.2885,
      "duration": 0.025,
      "velocity": 97,
      "chip": "ym2612"
    },
    {
      "channel": 0,
      "note": 66,
      "start": 5.3128,
      "duration": 0.0247,
      "velocity": 95,
      "chip": "ym2612"
    },
    {
      "channel": 1,
      "note": 66,
      "start": 5.326,
      "duration": 0.0271,
      "velocity": 95,
      "chip": "ym2612"
    },
    {
      "channel": 3,
      "note": 73,
      "start": 5.3267,
      "duration": 0.1066,
      "velocity": 89,
      "chip": "ym2612"
    },
    {
      "channel": 0,
      "note": 68,
      "start": 5.3378,
      "duration": 0.028,
      "velocity": 95,
      "chip": "ym2612"
    },
    {
      "channel": 1,
      "note": 66,
      "start": 5.3534,
      "duration": 0.0273,
      "velocity": 95,
      "chip": "ym2612"
    },
    {
      "channel": 0,
      "note": 73,
      "start": 5.366,
      "duration": 0.0793,
      "velocity": 95,
      "chip": "ym2612"
    },
    {
      "channel": 4,
      "note": 51,
      "start": 5.3669,
      "duration": 0.0281,
      "velocity": 97,
      "chip": "ym2612"
    },
    {
      "channel": 1,
      "note": 68,
      "start": 5.381,
      "duration": 0.0266,
      "velocity": 95,
      "chip": "ym2612"
    },
    {
      "channel": 2,
      "note": 75,
      "start": 5.3946,
      "duration": 0.1015,
      "velocity": 89,
      "chip": "ym2612"
    },
    {
      "channel": 4,
      "note": 51,
      "start": 5.3952,
      "duration": 0.0248,
      "velocity": 97,
      "chip": "ym2612"
    },
    {
      "channel": 1,
      "note": 73,
      "start": 5.4078,
      "duration": 0.0755,
      "velocity": 95,
      "chip": "ym2612"
    },
    {
      "channel": 4,
      "note": 51,
      "start": 5.4202,
      "duration": 0.026,
      "velocity": 97,
      "chip": "ym2612"
    },
    {
      "channel": 3,
      "note": 75,
      "start": 5.4336,
      "duration": 0.1015,
      "velocity": 89,
      "chip": "ym2612"
    },
    {
      "channel": 0,
      "note": 71,
      "start": 5.4455,
      "duration": 0.0503,
      "velocity": 95,
      "chip": "ym2612"
    },
    {
      "channel": 1,
      "note": 71,
      "start": 5.4836,
      "duration": 0.0511,
      "velocity": 95,
      "chip": "ym2612"
    },
    {
      "channel": 0,
      "note": 69,
      "start": 5.4959,
      "duration": 0.079,
      "velocity": 95,
      "chip": "ym2612"
    },
    {
      "channel": 2,
      "note": 78,
      "start": 5.4965,
      "duration": 0.2013,
      "velocity": 89,
      "chip": "ym2612"
    },
    {
      "channel": 4,
      "note": 51,
      "start": 5.4972,
      "duration": 0.025,
      "velocity": 97,
      "chip": "ym2612"
    },
    {
      "channel": 1,
      "note": 69,
      "start": 5.5347,
      "duration": 0.0795,
      "velocity": 95,
      "chip": "ym2612"
    },
    {
      "channel": 3,
      "note": 78,
      "start": 5.5354,
      "duration": 0.2005,
      "velocity": 89,
      "chip": "ym2612"
    },
    {
      "channel": 0,
      "note": 69,
      "start": 5.5751,
      "duration": 0.0511,
      "velocity": 95,
      "chip": "ym2612"
    },
    {
      "channel": 4,
      "note": 52,
      "start": 5.5759,
      "duration": 0.0261,
      "velocity": 97,
      "chip": "ym2612"
    },
    {
      "channel": 4,
      "note": 52,
      "start": 5.6022,
      "duration": 0.0246,
      "velocity": 97,
      "chip": "ym2612"
    },
    {
      "channel": 1,
      "note": 69,
      "start": 5.6144,
      "duration": 0.0499,
      "velocity": 95,
      "chip": "ym2612"
    },
    {
      "channel": 0,
      "note": 68,
      "start": 5.6261,
      "duration": 0.0712,
      "velocity": 95,
      "chip": "ym2612"
    },
    {
      "channel": 1,
      "note": 68,
      "start": 5.6643,
      "duration": 0.0712,
      "velocity": 95,
      "chip": "ym2612"
    },
    {
      "channel": 2,
      "note": 76,
      "start": 5.6981,
      "duration": 0.104,
      "velocity": 89,
      "chip": "ym2612"
    },
    {
      "channel": 4,
      "note": 52,
      "start": 5.6988,
      "duration": 0.0244,
      "velocity": 97,
      "chip": "ym2612"
    },
    {
      "channel": 0,
      "note": 68,
      "start": 5.7225,
      "duration": 0.0248,
      "velocity": 95,
      "chip": "ym2612"
    },
    {
      "channel": 3,
      "note": 76,
      "start": 5.7363,
      "duration": 0.1056,
      "velocity": 89,
      "chip": "ym2612"
    },
    {
      "channel": 0,
      "note": 74,
      "start": 5.7476,
      "duration": 0.0258,
      "velocity": 95,
      "chip": "ym2612"
    },
    {
      "channel": 1,
      "note": 68,
      "start": 5.7605,
      "duration": 0.0278,
      "velocity": 95,
      "chip": "ym2612"
    },
    {
      "channel": 0,
      "note": 69,
      "start": 5.7736,
      "duration": 0.0278,
      "velocity": 95,
      "chip": "ym2612"
    },
    {
      "channel": 4,
      "note": 50,
      "start": 5.7745,
      "duration": 0.0282,
      "velocity": 97,
      "chip": "ym2612"
    },
    {
      "channel": 1,
      "note": 74,
      "start": 5.7885,
      "duration": 0.0268,
      "velocity": 95,
      "chip": "ym2612"
    },
    {
      "channel": 0,
      "note": 66,
      "start": 5.8017,
      "duration": 0.0254,
      "velocity": 95,
      "chip": "ym2612"
    },
    {
      "channel": 2,
      "note": 78,
      "start": 5.8024,
      "duration": 0.101,
      "velocity": 89,
      "chip": "ym2612"
    },
    {
      "channel": 4,
      "note": 50,
      "start": 5.803,
      "duration": 0.0251,
      "velocity": 97,
      "chip": "ym2612"
    },
    {
      "channel": 1,
      "note": 69,
      "start": 5.8156,
      "duration": 0.0256,
      "velocity": 95,
      "chip": "ym2612"
    },
    {
      "channel": 0,
      "note": 74,
      "start": 5.8273,
      "duration": 0.0274,
      "velocity": 95,
      "chip": "ym2612"
    },
    {
      "channel": 4,
      "note": 53,
      "start": 5.8283,
      "duration": 0.0274,
      "velocity": 97,
      "chip": "ym2612"
    },
    {
      "channel": 1,
      "note": 66,
      "start": 5.8415,
      "duration": 0.0266,
      "velocity": 95,
      "chip": "ym2612"
    },
    {
      "channel": 3,
      "note": 78,
      "start": 5.8421,
      "duration": 0.1007,
      "velocity": 89,
      "chip": "ym2612"
    },
    {
      "channel": 0,
      "note": 69,
      "start": 5.855,
      "duration": 0.0242,
      "velocity": 95,
      "chip": "ym2612"
    },
    {
      "channel": 1,
      "note": 74,
      "start": 5.8683,
      "duration": 0.0226,
      "velocity": 95,
      "chip": "ym2612"
    },
    {
      "channel": 0,
      "note": 65,
      "start": 5.8795,
      "duration": 0.0236,
      "velocity": 95,
      "chip": "ym2612"
    },
    {
      "channel": 1,
      "note": 69,
      "start": 5.8911,
      "duration": 0.0258,
      "velocity": 95,
      "chip": "ym2612"
    },
    {
      "channel": 0,
      "note": 76,
      "start": 5.903,
      "duration": 0.0261,
      "velocity": 95,
      "chip": "ym2612"
    },
    {
      "channel": 2,
      "note": 77,
      "start": 5.9037,
      "duration": 0.1068,
      "velocity": 89,
      "chip": "ym2612"
    },
    {
      "channel": 4,
      "note": 53,
      "start": 5.9044,
      "duration": 0.0256,
      "velocity": 97,
      "chip": "ym2612"
    },
    {
      "channel": 1,
      "note": 65,
      "start": 5.9172,
      "duration": 0.0253,
      "velocity": 95,
      "chip": "ym2612"
    },
    {
      "channel": 0,
      "note": 76,
      "start": 5.9293,
      "duration": 0.0246,
      "velocity": 95,
      "chip": "ym2612"
    },
    {
      "channel": 1,
      "note": 76,
      "start": 5.9424,
      "duration": 0.027,
      "velocity": 95,
      "chip": "ym2612"
    },
    {
      "channel": 3,
      "note": 77,
      "start": 5.9432,
      "duration": 0.1062,
      "velocity": 89,
      "chip": "ym2612"
    },
    {
      "channel": 0,
      "note": 74,
      "start": 5.9541,
      "duration": 0.028,
      "velocity": 95,
      "chip": "ym2612"
    },
    {
      "channel": 1,
      "note": 76,
      "start": 5.9696,
      "duration": 0.0274,
      "velocity": 95,
      "chip": "ym2612"
    },
    {
      "channel": 0,
      "note": 73,
      "start": 5.9824,
      "duration": 0.0789,
      "velocity": 95,
      "chip": "ym2612"
    },
    {
      "channel": 4,
      "note": 57,
      "start": 5.9832,
      "duration": 0.0279,
      "velocity": 97,
      "chip": "ym2612"
    },
    {
      "channel": 1,
      "note": 74,
      "start": 5.9973,
      "duration": 0.0264,
      "velocity": 95,
      "chip": "ym2612"
    },
    {
      "channel": 2,
      "note": 76,
      "start": 6.0108,
      "duration": 0.1019,
      "velocity": 89,
      "chip": "ym2612"
    },
    {
      "channel": 4,
      "note": 57,
      "start": 6.0114,
      "duration": 0.0246,
      "velocity": 97,
      "chip": "ym2612"
    },
    {
      "channel": 1,
      "note": 73,
      "start": 6.0239,
      "duration": 0.0759,
      "velocity": 95,
      "chip": "ym2612"
    },
    {
      "channel": 4,
      "note": 54,
      "start": 6.0362,
      "duration": 0.026,
      "velocity": 97,
      "chip": "ym2612"
    },
    {
      "channel": 3,
      "note": 76,
      "start": 6.0496,
      "duration": 0.1021,
      "velocity": 89,
      "chip": "ym2612"
    },
    {
      "channel": 0,
      "note": 69,
      "start": 6.0615,
      "duration": 0.0264,
      "velocity": 95,
      "chip": "ym2612"
    },
    {
      "channel": 0,
      "note": 66,
      "start": 6.0881,
      "duration": 0.0238,
      "velocity": 95,
      "chip": "ym2612"
    },
    {
      "channel": 1,
      "note": 69,
      "start": 6.1,
      "duration": 0.0261,
      "velocity": 95,
      "chip": "ym2612"
    },
    {
      "channel": 0,
      "note": 73,
      "start": 6.1122,
      "duration": 0.0787,
      "velocity": 95,
      "chip": "ym2612"
    },
    {
      "channel": 2,
      "note": 73,
      "start": 6.1129,
      "duration": 0.1049,
      "velocity": 89,
      "chip": "ym2612"
    },
    {
      "channel": 4,
      "note": 54,
      "start": 6.1137,
      "duration": 0.0252,
      "velocity": 97,
      "chip": "ym2612"
    },
    {
      "channel": 1,
      "note": 66,
      "start": 6.1264,
      "duration": 0.0246,
      "velocity": 95,
      "chip": "ym2612"
    },
    {
      "channel": 1,
      "note": 73,
      "start": 6.1513,
      "duration": 0.0792,
      "velocity": 95,
      "chip": "ym2612"
    },
    {
      "channel": 3,
      "note": 73,
      "start": 6.152,
      "duration": 0.104,
      "velocity": 89,
      "chip": "ym2612"
    },
    {
      "channel": 0,
      "note": 73,
      "start": 6.1912,
      "duration": 0.077,
      "velocity": 95,
      "chip": "ym2612"
    },
    {
      "channel": 4,
      "note": 59,
      "start": 6.1921,
      "duration": 0.0264,
      "velocity": 97,
      "chip": "ym2612"
    },
    {
      "channel": 2,
      "note": 75,
      "start": 6.2181,
      "duration": 0.1014,
      "velocity": 89,
      "chip": "ym2612"
    },
    {
      "channel": 4,
      "note": 59,
      "start": 6.2187,
      "duration": 0.0239,
      "velocity": 97,
      "chip": "ym2612"
    },
    {
      "channel": 1,
      "note": 73,
      "start": 6.2307,
      "duration": 0.0756,
      "velocity": 95,
      "chip": "ym2612"
    },
    {
      "channel": 4,
      "note": 59,
      "start": 6.2428,
      "duration": 0.0263,
      "velocity": 97,
      "chip": "ym2612"
    },
    {
      "channel": 3,
      "note": 75,
      "start": 6.2563,
      "duration": 0.1041,
      "velocity": 89,
      "chip": "ym2612"
    },
    {
      "channel": 0,
      "note": 71,
      "start": 6.2684,
      "duration": 0.0503,
      "velocity": 95,
      "chip": "ym2612"
    },
    {
      "channel": 1,
      "note": 71,
      "start": 6.3065,
      "duration": 0.0532,
      "velocity": 95,
      "chip": "ym2612"
    },
    {
      "channel": 0,
      "note": 73,
      "start": 6.319,
      "duration": 0.2018,
      "velocity": 95,
      "chip": "ym2612"
    },
    {
      "channel": 2,
      "note": 81,
      "start": 6.3198,
      "duration": 0.2015,
      "velocity": 89,
      "chip": "ym2612"
    },
    {
      "channel": 4,
      "note": 59,
      "start": 6.3205,
      "duration": 0.0264,
      "velocity": 97,
      "chip": "ym2612"
    },
    {
      "channel": 1,
      "note": 73,
      "start": 6.36,
      "duration": 0.1969,
      "velocity": 95,
      "chip": "ym2612"
    },
    {
      "channel": 3,
      "note": 81,
      "start": 6.3607,
      "duration": 0.1965,
      "velocity": 89,
      "chip": "ym2612"
    },
    {
      "channel": 4,
      "note": 52,
      "start": 6.3987,
      "duration": 0.0258,
      "velocity": 97,
      "chip": "ym2612"
    },
    {
      "channel": 4,
      "note": 52,
      "start": 6.4247,
      "duration": 0.0247,
      "velocity": 97,
      "chip": "ym2612"
    },
    {
      "channel": 4,
      "note": 52,
      "start": 6.4496,
      "duration": 0.0241,
      "velocity": 97,
      "chip": "ym2612"
    },
    {
      "channel": 4,
      "note": 62,
      "start": 6.4737,
      "duration": 0.024,
      "velocity": 97,
      "chip": "ym2612"
    },
    {
      "channel": 4,
      "note": 64,
      "start": 6.498,
      "duration": 0.0246,
      "velocity": 97,
      "chip": "ym2612"
    },
    {
      "channel": 4,
      "note": 52,
      "start": 6.523,
      "duration": 0.0238,
      "velocity": 97,
      "chip": "ym2612"
    },
    {
      "channel": 2,
      "note": 80,
      "start": 6.5709,
      "duration": 46.6303,
      "velocity": 89,
      "chip": "ym2612"
    }
  ]
}