{
  "track_name": "07 - Cave of Death (Chapter 2-2)",
  "duration_sec": 94.03,
  "sample_rate": 44100,
  "note_count": 1959,
  "unique_pitches": 52,
  "pitch_range": 84,
  "avg_note_duration": 0.2148,
  "reconstruction_stats": {
    "notes_reconstructed": 1959,
    "keyon_events": 1959,
    "keyoff_events": 1953,
    "orphan_keyons": 3,
    "unique_pitches": 52,
    "pitch_range": 84,
    "avg_duration_sec": 0.2148
  },
  "metadata": {
    "source": "P\\Phelios\\07 - Cave of Death (Chapter 2-2).vgz"
  },
  "notes": [
    {
      "channel": 3,
      "note": -1,
      "start": 0.0,
      "duration": 0.0,
      "velocity": 1,
      "chip": "ym2612"
    },
    {
      "channel": 3,
      "note": -1,
      "start": 0.0,
      "duration": 0.0094,
      "velocity": 28,
      "chip": "ym2612"
    },
    {
      "channel": 4,
      "note": -1,
      "start": 0.0,
      "duration": 0.0,
      "velocity": 1,
      "chip": "ym2612"
    },
    {
      "channel": 4,
      "note": -1,
      "start": 0.0,
      "duration": 0.0129,
      "velocity": 94,
      "chip": "ym2612"
    },
    {
      "channel": 5,
      "note": -1,
      "start": 0.0,
      "duration": 0.0,
      "velocity": 1,
      "chip": "ym2612"
    },
    {
      "channel": 5,
      "note": -1,
      "start": 0.0,
      "duration": 0.244,
      "velocity": 94,
      "chip": "ym2612"
    },
    {
      "channel": 0,
      "note": 29,
      "start": 0.0022,
      "duration": 0.0629,
      "velocity": 74,
      "chip": "ym2612"
    },
    {
      "channel": 2,
      "note": 69,
      "start": 0.0059,
      "duration": 0.0596,
      "velocity": 114,
      "chip": "ym2612"
    },
    {
      "channel": 3,
      "note": 40,
      "start": 0.0094,
      "duration": 3.7307,
      "velocity": 28,
      "chip": "ym2612"
    },
    {
      "channel": 4,
      "note": 98,
      "start": 0.0129,
      "duration": 2.1531,
      "velocity": 94,
      "chip": "ym2612"
    },
    {
      "channel": 0,
      "note": 47,
      "start": 0.1189,
      "duration": 0.063,
      "velocity": 74,
      "chip": "ym2612"
    },
    {
      "channel": 2,
      "note": 69,
      "start": 0.1225,
      "duration": 0.0596,
      "velocity": 114,
      "chip": "ym2612"
    },
    {
      "channel": 0,
      "note": 29,
      "start": 0.236,
      "duration": 0.0627,
      "velocity": 74,
      "chip": "ym2612"
    },
    {
      "channel": 1,
      "note": 36,
      "start": 0.2396,
      "duration": 0.0593,
      "velocity": 74,
      "chip": "ym2612"
    },
    {
      "channel": 2,
      "note": 69,
      "start": 0.2402,
      "duration": 0.0588,
      "velocity": 114,
      "chip": "ym2612"
    },
    {
      "channel": 5,
      "note": 98,
      "start": 0.244,
      "duration": 2.1555,
      "velocity": 94,
      "chip": "ym2612"
    },
    {
      "channel": 0,
      "note": 47,
      "start": 0.3524,
      "duration": 0.0629,
      "velocity": 74,
      "chip": "ym2612"
    },
    {
      "channel": 2,
      "note": 69,
      "start": 0.3531,
      "duration": 0.0625,
      "velocity": 114,
      "chip": "ym2612"
    },
    {
      "channel": 0,
      "note": 29,
      "start": 0.469,
      "duration": 0.063,
      "velocity": 74,
      "chip": "ym2612"
    },
    {
      "channel": 2,
      "note": 69,
      "start": 0.4697,
      "duration": 0.0625,
      "velocity": 114,
      "chip": "ym2612"
    },
    {
      "channel": 0,
      "note": 47,
      "start": 0.5856,
      "duration": 0.0632,
      "velocity": 74,
      "chip": "ym2612"
    },
    {
      "channel": 0,
      "note": 29,
      "start": 0.7024,
      "duration": 0.0629,
      "velocity": 74,
      "chip": "ym2612"
    },
    {
      "channel": 2,
      "note": 69,
      "start": 0.7031,
      "duration": 0.0625,
      "velocity": 114,
      "chip": "ym2612"
    },
    {
      "channel": 0,
      "note": 47,
      "start": 0.819,
      "duration": 0.063,
      "velocity": 74,
      "chip": "ym2612"
    },
    {
      "channel": 2,
      "note": 69,
      "start": 0.8197,
      "duration": 0.0625,
      "velocity": 114,
      "chip": "ym2612"
    },
    {
      "channel": 0,
      "note": 29,
      "start": 0.9357,
      "duration": 0.063,
      "velocity": 74,
      "chip": "ym2612"
    },
    {
      "channel": 2,
      "note": 69,
      "start": 0.9364,
      "duration": 0.0625,
      "velocity": 114,
      "chip": "ym2612"
    },
    {
      "channel": 0,
      "note": 47,
      "start": 1.0522,
      "duration": 0.0631,
      "velocity": 74,
      "chip": "ym2612"
    },
    {
      "channel": 0,
      "note": 29,
      "start": 1.1691,
      "duration": 0.0629,
      "velocity": 74,
      "chip": "ym2612"
    },
    {
      "channel": 2,
      "note": 69,
      "start": 1.1698,
      "duration": 0.0625,
      "velocity": 114,
      "chip": "ym2612"
    },
    {
      "channel": 0,
      "note": 47,
      "start": 1.2857,
      "duration": 0.063,
      "velocity": 74,
      "chip": "ym2612"
    },
    {
      "channel": 2,
      "note": 69,
      "start": 1.2864,
      "duration": 0.0626,
      "velocity": 114,
      "chip": "ym2612"
    },
    {
      "channel": 0,
      "note": 29,
      "start": 1.4024,
      "duration": 0.063,
      "velocity": 74,
      "chip": "ym2612"
    },
    {
      "channel": 2,
      "note": 69,
      "start": 1.4031,
      "duration": 0.0626,
      "velocity": 114,
      "chip": "ym2612"
    },
    {
      "channel": 0,
      "note": 47,
      "start": 1.5192,
      "duration": 0.0629,
      "velocity": 74,
      "chip": "ym2612"
    },
    {
      "channel": 1,
      "note": 36,
      "start": 1.5197,
      "duration": 0.0625,
      "velocity": 74,
      "chip": "ym2612"
    },
    {
      "channel": 2,
      "note": 69,
      "start": 1.5204,
      "duration": 0.0621,
      "velocity": 114,
      "chip": "ym2612"
    },
    {
      "channel": 0,
      "note": 29,
      "start": 1.6357,
      "duration": 0.063,
      "velocity": 74,
      "chip": "ym2612"
    },
    {
      "channel": 2,
      "note": 69,
      "start": 1.6364,
      "duration": 0.0626,
      "velocity": 114,
      "chip": "ym2612"
    },
    {
      "channel": 0,
      "note": 47,
      "start": 1.7524,
      "duration": 0.063,
      "velocity": 74,
      "chip": "ym2612"
    },
    {
      "channel": 2,
      "note": 69,
      "start": 1.7531,
      "duration": 0.0625,
      "velocity": 114,
      "chip": "ym2612"
    },
    {
      "channel": 0,
      "note": 29,
      "start": 1.8692,
      "duration": 0.0628,
      "velocity": 74,
      "chip": "ym2612"
    },
    {
      "channel": 1,
      "note": 36,
      "start": 1.8697,
      "duration": 0.0625,
      "velocity": 74,
      "chip": "ym2612"
    },
    {
      "channel": 2,
      "note": 69,
      "start": 1.8704,
      "duration": 0.062,
      "velocity": 114,
      "chip": "ym2612"
    },
    {
      "channel": 0,
      "note": 47,
      "start": 1.9858,
      "duration": 0.0629,
      "velocity": 74,
      "chip": "ym2612"
    },
    {
      "channel": 2,
      "note": 69,
      "start": 1.9865,
      "duration": 0.0625,
      "velocity": 114,
      "chip": "ym2612"
    },
    {
      "channel": 0,
      "note": 29,
      "start": 2.1025,
      "duration": 0.0628,
      "velocity": 74,
      "chip": "ym2612"
    },
    {
      "channel": 1,
      "note": 36,
      "start": 2.1031,
      "duration": 0.0625,
      "velocity": 74,
      "chip": "ym2612"
    },
    {
      "channel": 2,
      "note": 69,
      "start": 2.1037,
      "duration": 0.062,
      "velocity": 114,
      "chip": "ym2612"
    },
    {
      "channel": 0,
      "note": 47,
      "start": 2.2191,
      "duration": 0.0629,
      "velocity": 74,
      "chip": "ym2612"
    },
    {
      "channel": 2,
      "note": 69,
      "start": 2.2198,
      "duration": 0.0625,
      "velocity": 114,
      "chip": "ym2612"
    },
    {
      "channel": 0,
      "note": 29,
      "start": 2.3357,
      "duration": 0.063,
      "velocity": 74,
      "chip": "ym2612"
    },
    {
      "channel": 2,
      "note": 69,
      "start": 2.3364,
      "duration": 0.0625,
      "velocity": 114,
      "chip": "ym2612"
    },
    {
      "channel": 0,
      "note": 47,
      "start": 2.4522,
      "duration": 0.0632,
      "velocity": 74,
      "chip": "ym2612"
    },
    {
      "channel": 0,
      "note": 29,
      "start": 2.5691,
      "duration": 0.0629,
      "velocity": 74,
      "chip": "ym2612"
    },
    {
      "channel": 2,
      "note": 69,
      "start": 2.5698,
      "duration": 0.0625,
      "velocity": 114,
      "chip": "ym2612"
    },
    {
      "channel": 0,
      "note": 47,
      "start": 2.6857,
      "duration": 0.063,
      "velocity": 74,
      "chip": "ym2612"
    },
    {
      "channel": 2,
      "note": 69,
      "start": 2.6864,
      "duration": 0.0625,
      "velocity": 114,
      "chip": "ym2612"
    },
    {
      "channel": 0,
      "note": 29,
      "start": 2.8025,
      "duration": 0.0629,
      "velocity": 74,
      "chip": "ym2612"
    },
    {
      "channel": 1,
      "note": 36,
      "start": 2.8031,
      "duration": 0.0625,
      "velocity": 74,
      "chip": "ym2612"
    },
    {
      "channel": 2,
      "note": 69,
      "start": 2.8037,
      "duration": 0.0621,
      "velocity": 114,
      "chip": "ym2612"
    },
    {
      "channel": 0,
      "note": 47,
      "start": 2.919,
      "duration": 0.063,
      "velocity": 74,
      "chip": "ym2612"
    },
    {
      "channel": 2,
      "note": 69,
      "start": 2.9197,
      "duration": 0.0625,
      "velocity": 114,
      "chip": "ym2612"
    },
    {
      "channel": 0,
      "note": 29,
      "start": 3.0358,
      "duration": 0.0629,
      "velocity": 74,
      "chip": "ym2612"
    },
    {
      "channel": 2,
      "note": 69,
      "start": 3.0365,
      "duration": 0.0625,
      "velocity": 114,
      "chip": "ym2612"
    },
    {
      "channel": 0,
      "note": 47,
      "start": 3.1525,
      "duration": 0.0628,
      "velocity": 74,
      "chip": "ym2612"
    },
    {
      "channel": 1,
      "note": 36,
      "start": 3.1531,
      "duration": 0.0625,
      "velocity": 74,
      "chip": "ym2612"
    },
    {
      "channel": 2,
      "note": 69,
      "start": 3.1537,
      "duration": 0.062,
      "velocity": 114,
      "chip": "ym2612"
    },
    {
      "channel": 0,
      "note": 29,
      "start": 3.2691,
      "duration": 0.0629,
      "velocity": 74,
      "chip": "ym2612"
    },
    {
      "channel": 2,
      "note": 69,
      "start": 3.2698,
      "duration": 0.0625,
      "velocity": 114,
      "chip": "ym2612"
    },
    {
      "channel": 0,
      "note": 47,
      "start": 3.3857,
      "duration": 0.063,
      "velocity": 74,
      "chip": "ym2612"
    },
    {
      "channel": 2,
      "note": 69,
      "start": 3.3864,
      "duration": 0.0625,
      "velocity": 114,
      "chip": "ym2612"
    },
    {
      "channel": 0,
      "note": 29,
      "start": 3.5024,
      "duration": 0.0629,
      "velocity": 74,
      "chip": "ym2612"
    },
    {
      "channel": 2,
      "note": 69,
      "start": 3.5061,
      "duration": 0.0595,
      "velocity": 114,
      "chip": "ym2612"
    },
    {
      "channel": 0,
      "note": 47,
      "start": 3.619,
      "duration": 0.063,
      "velocity": 74,
      "chip": "ym2612"
    },
    {
      "channel": 2,
      "note": 69,
      "start": 3.6227,
      "duration": 0.0596,
      "velocity": 114,
      "chip": "ym2612"
    },
    {
      "channel": 0,
      "note": 28,
      "start": 3.7359,
      "duration": 0.0628,
      "velocity": 74,
      "chip": "ym2612"
    },
    {
      "channel": 2,
      "note": 69,
      "start": 3.7395,
      "duration": 0.0595,
      "velocity": 114,
      "chip": "ym2612"
    },
    {
      "channel": 3,
      "note": 39,
      "start": 3.7401,
      "duration": 3.7333,
      "velocity": 28,
      "chip": "ym2612"
    },
    {
      "channel": 4,
      "note": 97,
      "start": 3.7407,
      "duration": 0.6964,
      "velocity": 94,
      "chip": "ym2612"
    },
    {
      "channel": 0,
      "note": 46,
      "start": 3.8524,
      "duration": 0.063,
      "velocity": 74,
      "chip": "ym2612"
    },
    {
      "channel": 2,
      "note": 69,
      "start": 3.856,
      "duration": 0.0596,
      "velocity": 114,
      "chip": "ym2612"
    },
    {
      "channel": 0,
      "note": 28,
      "start": 3.9692,
      "duration": 0.0628,
      "velocity": 74,
      "chip": "ym2612"
    },
    {
      "channel": 1,
      "note": 35,
      "start": 3.9698,
      "duration": 0.0624,
      "velocity": 74,
      "chip": "ym2612"
    },
    {
      "channel": 2,
      "note": 69,
      "start": 3.9704,
      "duration": 0.062,
      "velocity": 114,
      "chip": "ym2612"
    },
    {
      "channel": 5,
      "note": 97,
      "start": 3.9713,
      "duration": 0.6993,
      "velocity": 94,
      "chip": "ym2612"
    },
    {
      "channel": 0,
      "note": 46,
      "start": 4.0858,
      "duration": 0.0629,
      "velocity": 74,
      "chip": "ym2612"
    },
    {
      "channel": 2,
      "note": 69,
      "start": 4.0865,
      "duration": 0.0625,
      "velocity": 114,
      "chip": "ym2612"
    },
    {
      "channel": 0,
      "note": 28,
      "start": 4.2024,
      "duration": 0.0629,
      "velocity": 74,
      "chip": "ym2612"
    },
    {
      "channel": 2,
      "note": 69,
      "start": 4.2031,
      "duration": 0.0625,
      "velocity": 114,
      "chip": "ym2612"
    },
    {
      "channel": 0,
      "note": 46,
      "start": 4.3189,
      "duration": 0.0632,
      "velocity": 74,
      "chip": "ym2612"
    },
    {
      "channel": 0,
      "note": 28,
      "start": 4.4358,
      "duration": 0.0628,
      "velocity": 74,
      "chip": "ym2612"
    },
    {
      "channel": 2,
      "note": 69,
      "start": 4.4365,
      "duration": 0.0624,
      "velocity": 114,
      "chip": "ym2612"
    },
    {
      "channel": 4,
      "note": 94,
      "start": 4.4372,
      "duration": 0.6999,
      "velocity": 94,
      "chip": "ym2612"
    },
    {
      "channel": 0,
      "note": 46,
      "start": 4.5524,
      "duration": 0.063,
      "velocity": 74,
      "chip": "ym2612"
    },
    {
      "channel": 2,
      "note": 69,
      "start": 4.5531,
      "duration": 0.0625,
      "velocity": 114,
      "chip": "ym2612"
    },
    {
      "channel": 0,
      "note": 28,
      "start": 4.6691,
      "duration": 0.063,
      "velocity": 74,
      "chip": "ym2612"
    },
    {
      "channel": 2,
      "note": 69,
      "start": 4.6698,
      "duration": 0.0625,
      "velocity": 114,
      "chip": "ym2612"
    },
    {
      "channel": 5,
      "note": 94,
      "start": 4.6707,
      "duration": 0.7029,
      "velocity": 94,
      "chip": "ym2612"
    },
    {
      "channel": 0,
      "note": 46,
      "start": 4.7856,
      "duration": 0.0631,
      "velocity": 74,
      "chip": "ym2612"
    },
    {
      "channel": 0,
      "note": 28,
      "start": 4.9024,
      "duration": 0.063,
      "velocity": 74,
      "chip": "ym2612"
    },
    {
      "channel": 2,
      "note": 69,
      "start": 4.9031,
      "duration": 0.0625,
      "velocity": 114,
      "chip": "ym2612"
    },
    {
      "channel": 0,
      "note": 46,
      "start": 5.019,
      "duration": 0.063,
      "velocity": 74,
      "chip": "ym2612"
    },
    {
      "channel": 2,
      "note": 69,
      "start": 5.0197,
      "duration": 0.0626,
      "velocity": 114,
      "chip": "ym2612"
    },
    {
      "channel": 0,
      "note": 28,
      "start": 5.1358,
      "duration": 0.0629,
      "velocity": 74,
      "chip": "ym2612"
    },
    {
      "channel": 2,
      "note": 69,
      "start": 5.1365,
      "duration": 0.0625,
      "velocity": 114,
      "chip": "ym2612"
    },
    {
      "channel": 4,
      "note": 93,
      "start": 5.1371,
      "duration": 0.4702,
      "velocity": 94,
      "chip": "ym2612"
    },
    {
      "channel": 0,
      "note": 46,
      "start": 5.2525,
      "duration": 0.0629,
      "velocity": 74,
      "chip": "ym2612"
    },
    {
      "channel": 1,
      "note": 35,
      "start": 5.2531,
      "duration": 0.0625,
      "velocity": 74,
      "chip": "ym2612"
    },
    {
      "channel": 2,
      "note": 69,
      "start": 5.2537,
      "duration": 0.0621,
      "velocity": 114,
      "chip": "ym2612"
    },
    {
      "channel": 0,
      "note": 28,
      "start": 5.3691,
      "duration": 0.063,
      "velocity": 74,
      "chip": "ym2612"
    },
    {
      "channel": 2,
      "note": 69,
      "start": 5.3728,
      "duration": 0.0595,
      "velocity": 114,
      "chip": "ym2612"
    },
    {
      "channel": 5,
      "note": 93,
      "start": 5.3737,
      "duration": 0.4643,
      "velocity": 94,
      "chip": "ym2612"
    },
    {
      "channel": 0,
      "note": 46,
      "start": 5.4857,
      "duration": 0.063,
      "velocity": 74,
      "chip": "ym2612"
    },
    {
      "channel": 2,
      "note": 69,
      "start": 5.4893,
      "duration": 0.0596,
      "velocity": 114,
      "chip": "ym2612"
    },
    {
      "channel": 0,
      "note": 28,
      "start": 5.6026,
      "duration": 0.0628,
      "velocity": 74,
      "chip": "ym2612"
    },
    {
      "channel": 1,
      "note": 35,
      "start": 5.6032,
      "duration": 0.0623,
      "velocity": 74,
      "chip": "ym2612"
    },
    {
      "channel": 2,
      "note": 69,
      "start": 5.6068,
      "duration": 0.059,
      "velocity": 114,
      "chip": "ym2612"
    },
    {
      "channel": 4,
      "note": 90,
      "start": 5.6074,
      "duration": 0.6963,
      "velocity": 94,
      "chip": "ym2612"
    },
    {
      "channel": 0,
      "note": 46,
      "start": 5.7191,
      "duration": 0.063,
      "velocity": 74,
      "chip": "ym2612"
    },
    {
      "channel": 2,
      "note": 69,
      "start": 5.7227,
      "duration": 0.0596,
      "velocity": 114,
      "chip": "ym2612"
    },
    {
      "channel": 0,
      "note": 28,
      "start": 5.8359,
      "duration": 0.0628,
      "velocity": 74,
      "chip": "ym2612"
    },
    {
      "channel": 1,
      "note": 35,
      "start": 5.8365,
      "duration": 0.0624,
      "velocity": 74,
      "chip": "ym2612"
    },
    {
      "channel": 2,
      "note": 69,
      "start": 5.8371,
      "duration": 0.062,
      "velocity": 114,
      "chip": "ym2612"
    },
    {
      "channel": 5,
      "note": 90,
      "start": 5.838,
      "duration": 0.6999,
      "velocity": 94,
      "chip": "ym2612"
    },
    {
      "channel": 0,
      "note": 46,
      "start": 5.9524,
      "duration": 0.063,
      "velocity": 74,
      "chip": "ym2612"
    },
    {
      "channel": 2,
      "note": 69,
      "start": 5.9531,
      "duration": 0.0625,
      "velocity": 114,
      "chip": "ym2612"
    },
    {
      "channel": 0,
      "note": 28,
      "start": 6.069,
      "duration": 0.063,
      "velocity": 74,
      "chip": "ym2612"
    },
    {
      "channel": 2,
      "note": 69,
      "start": 6.0697,
      "duration": 0.0625,
      "velocity": 114,
      "chip": "ym2612"
    },
    {
      "channel": 0,
      "note": 46,
      "start": 6.1856,
      "duration": 0.0632,
      "velocity": 74,
      "chip": "ym2612"
    },
    {
      "channel": 0,
      "note": 28,
      "start": 6.3024,
      "duration": 0.0629,
      "velocity": 74,
      "chip": "ym2612"
    },
    {
      "channel": 2,
      "note": 69,
      "start": 6.3031,
      "duration": 0.0625,
      "velocity": 114,
      "chip": "ym2612"
    },
    {
      "channel": 4,
      "note": 87,
      "start": 6.3038,
      "duration": 0.7,
      "velocity": 94,
      "chip": "ym2612"
    },
    {
      "channel": 0,
      "note": 46,
      "start": 6.4191,
      "duration": 0.0629,
      "velocity": 74,
      "chip": "ym2612"
    },
    {
      "channel": 2,
      "note": 69,
      "start": 6.4198,
      "duration": 0.0625,
      "velocity": 114,
      "chip": "ym2612"
    },
    {
      "channel": 0,
      "note": 28,
      "start": 6.5358,
      "duration": 0.0629,
      "velocity": 74,
      "chip": "ym2612"
    },
    {
      "channel": 1,
      "note": 35,
      "start": 6.5365,
      "duration": 0.0625,
      "velocity": 74,
      "chip": "ym2612"
    },
    {
      "channel": 2,
      "note": 69,
      "start": 6.537,
      "duration": 0.0621,
      "velocity": 114,
      "chip": "ym2612"
    },
    {
      "channel": 5,
      "note": 87,
      "start": 6.538,
      "duration": 0.7023,
      "velocity": 94,
      "chip": "ym2612"
    },
    {
      "channel": 0,
      "note": 46,
      "start": 6.6524,
      "duration": 0.063,
      "velocity": 74,
      "chip": "ym2612"
    },
    {
      "channel": 2,
      "note": 69,
      "start": 6.6531,
      "duration": 0.0626,
      "velocity": 114,
      "chip": "ym2612"
    },
    {
      "channel": 0,
      "note": 28,
      "start": 6.7691,
      "duration": 0.0629,
      "velocity": 74,
      "chip": "ym2612"
    },
    {
      "channel": 2,
      "note": 69,
      "start": 6.7698,
      "duration": 0.0625,
      "velocity": 114,
      "chip": "ym2612"
    },
    {
      "channel": 0,
      "note": 46,
      "start": 6.8858,
      "duration": 0.0629,
      "velocity": 74,
      "chip": "ym2612"
    },
    {
      "channel": 1,
      "note": 35,
      "start": 6.8864,
      "duration": 0.0625,
      "velocity": 74,
      "chip": "ym2612"
    },
    {
      "channel": 2,
      "note": 69,
      "start": 6.887,
      "duration": 0.0621,
      "velocity": 114,
      "chip": "ym2612"
    },
    {
      "channel": 0,
      "note": 28,
      "start": 7.0024,
      "duration": 0.063,
      "velocity": 74,
      "chip": "ym2612"
    },
    {
      "channel": 2,
      "note": 69,
      "start": 7.0031,
      "duration": 0.0625,
      "velocity": 114,
      "chip": "ym2612"
    },
    {
      "channel": 4,
      "note": 86,
      "start": 7.0038,
      "duration": 0.4702,
      "velocity": 94,
      "chip": "ym2612"
    },
    {
      "channel": 0,
      "note": 46,
      "start": 7.119,
      "duration": 0.063,
      "velocity": 74,
      "chip": "ym2612"
    },
    {
      "channel": 2,
      "note": 69,
      "start": 7.1197,
      "duration": 0.0625,
      "velocity": 114,
      "chip": "ym2612"
    },
    {
      "channel": 0,
      "note": 28,
      "start": 7.2358,
      "duration": 0.063,
      "velocity": 74,
      "chip": "ym2612"
    },
    {
      "channel": 2,
      "note": 69,
      "start": 7.2394,
      "duration": 0.0596,
      "velocity": 114,
      "chip": "ym2612"
    },
    {
      "channel": 5,
      "note": 86,
      "start": 7.2403,
      "duration": 0.4644,
      "velocity": 94,
      "chip": "ym2612"
    },
    {
      "channel": 0,
      "note": 46,
      "start": 7.3524,
      "duration": 0.063,
      "velocity": 74,
      "chip": "ym2612"
    },
    {
      "channel": 2,
      "note": 69,
      "start": 7.356,
      "duration": 0.0596,
      "velocity": 114,
      "chip": "ym2612"
    },
    {
      "channel": 0,
      "note": 29,
      "start": 7.4692,
      "duration": 0.0628,
      "velocity": 74,
      "chip": "ym2612"
    },
    {
      "channel": 2,
      "note": 69,
      "start": 7.4729,
      "duration": 0.0594,
      "velocity": 114,
      "chip": "ym2612"
    },
    {
      "channel": 3,
      "note": 40,
      "start": 7.4735,
      "duration": 3.7333,
      "velocity": 28,
      "chip": "ym2612"
    },
    {
      "channel": 4,
      "note": 98,
      "start": 7.4741,
      "duration": 2.1586,
      "velocity": 94,
      "chip": "ym2612"
    },
    {
      "channel": 0,
      "note": 47,
      "start": 7.5857,
      "duration": 0.063,
      "velocity": 74,
      "chip": "ym2612"
    },
    {
      "channel": 2,
      "note": 69,
      "start": 7.5893,
      "duration": 0.0597,
      "velocity": 114,
      "chip": "ym2612"
    },
    {
      "channel": 0,
      "note": 29,
      "start": 7.7026,
      "duration": 0.0628,
      "velocity": 74,
      "chip": "ym2612"
    },
    {
      "channel": 1,
      "note": 36,
      "start": 7.7031,
      "duration": 0.0624,
      "velocity": 74,
      "chip": "ym2612"
    },
    {
      "channel": 2,
      "note": 69,
      "start": 7.7038,
      "duration": 0.062,
      "velocity": 114,
      "chip": "ym2612"
    },
    {
      "channel": 5,
      "note": 98,
      "start": 7.7046,
      "duration": 2.1615,
      "velocity": 94,
      "chip": "ym2612"
    },
    {
      "channel": 0,
      "note": 47,
      "start": 7.8191,
      "duration": 0.0629,
      "velocity": 74,
      "chip": "ym2612"
    },
    {
      "channel": 2,
      "note": 69,
      "start": 7.8198,
      "duration": 0.0625,
      "velocity": 114,
      "chip": "ym2612"
    },
    {
      "channel": 0,
      "note": 29,
      "start": 7.9358,
      "duration": 0.0629,
      "velocity": 74,
      "chip": "ym2612"
    },
    {
      "channel": 2,
      "note": 69,
      "start": 7.9365,
      "duration": 0.0625,
      "velocity": 114,
      "chip": "ym2612"
    },
    {
      "channel": 0,
      "note": 47,
      "start": 8.0522,
      "duration": 0.0631,
      "velocity": 74,
      "chip": "ym2612"
    },
    {
      "channel": 0,
      "note": 29,
      "start": 8.1691,
      "duration": 0.0629,
      "velocity": 74,
      "chip": "ym2612"
    },
    {
      "channel": 2,
      "note": 69,
      "start": 8.1698,
      "duration": 0.0625,
      "velocity": 114,
      "chip": "ym2612"
    },
    {
      "channel": 0,
      "note": 47,
      "start": 8.2857,
      "duration": 0.063,
      "velocity": 74,
      "chip": "ym2612"
    },
    {
      "channel": 2,
      "note": 69,
      "start": 8.2864,
      "duration": 0.0625,
      "velocity": 114,
      "chip": "ym2612"
    },
    {
      "channel": 0,
      "note": 29,
      "start": 8.4024,
      "duration": 0.063,
      "velocity": 74,
      "chip": "ym2612"
    },
    {
      "channel": 2,
      "note": 69,
      "start": 8.4031,
      "duration": 0.0625,
      "velocity": 114,
      "chip": "ym2612"
    },
    {
      "channel": 0,
      "note": 47,
      "start": 8.5189,
      "duration": 0.0631,
      "velocity": 74,
      "chip": "ym2612"
    },
    {
      "channel": 0,
      "note": 29,
      "start": 8.6357,
      "duration": 0.063,
      "velocity": 74,
      "chip": "ym2612"
    },
    {
      "channel": 2,
      "note": 69,
      "start": 8.6364,
      "duration": 0.0625,
      "velocity": 114,
      "chip": "ym2612"
    },
    {
      "channel": 0,
      "note": 47,
      "start": 8.7524,
      "duration": 0.063,
      "velocity": 74,
      "chip": "ym2612"
    },
    {
      "channel": 2,
      "note": 69,
      "start": 8.7531,
      "duration": 0.0625,
      "velocity": 114,
      "chip": "ym2612"
    },
    {
      "channel": 0,
      "note": 29,
      "start": 8.869,
      "duration": 0.063,
      "velocity": 74,
      "chip": "ym2612"
    },
    {
      "channel": 2,
      "note": 69,
      "start": 8.8697,
      "duration": 0.0626,
      "velocity": 114,
      "chip": "ym2612"
    },
    {
      "channel": 0,
      "note": 47,
      "start": 8.9858,
      "duration": 0.0629,
      "velocity": 74,
      "chip": "ym2612"
    },
    {
      "channel": 1,
      "note": 36,
      "start": 8.9864,
      "duration": 0.0625,
      "velocity": 74,
      "chip": "ym2612"
    },
    {
      "channel": 2,
      "note": 69,
      "start": 8.987,
      "duration": 0.0621,
      "velocity": 114,
      "chip": "ym2612"
    },
    {
      "channel": 0,
      "note": 29,
      "start": 9.1024,
      "duration": 0.063,
      "velocity": 74,
      "chip": "ym2612"
    },
    {
      "channel": 2,
      "note": 69,
      "start": 9.1031,
      "duration": 0.0626,
      "velocity": 114,
      "chip": "ym2612"
    },
    {
      "channel": 0,
      "note": 47,
      "start": 9.219,
      "duration": 0.063,
      "velocity": 74,
      "chip": "ym2612"
    },
    {
      "channel": 2,
      "note": 69,
      "start": 9.2197,
      "duration": 0.0626,
      "velocity": 114,
      "chip": "ym2612"
    },
    {
      "channel": 0,
      "note": 29,
      "start": 9.3358,
      "duration": 0.0629,
      "velocity": 74,
      "chip": "ym2612"
    },
    {
      "channel": 1,
      "note": 36,
      "start": 9.3364,
      "duration": 0.0625,
      "velocity": 74,
      "chip": "ym2612"
    },
    {
      "channel": 2,
      "note": 69,
      "start": 9.337,
      "duration": 0.0621,
      "velocity": 114,
      "chip": "ym2612"
    },
    {
      "channel": 0,
      "note": 47,
      "start": 9.4524,
      "duration": 0.0629,
      "velocity": 74,
      "chip": "ym2612"
    },
    {
      "channel": 2,
      "note": 69,
      "start": 9.4531,
      "duration": 0.0625,
      "velocity": 114,
      "chip": "ym2612"
    },
    {
      "channel": 0,
      "note": 29,
      "start": 9.5692,
      "duration": 0.0629,
      "velocity": 74,
      "chip": "ym2612"
    },
    {
      "channel": 1,
      "note": 36,
      "start": 9.5697,
      "duration": 0.0625,
      "velocity": 74,
      "chip": "ym2612"
    },
    {
      "channel": 2,
      "note": 69,
      "start": 9.5704,
      "duration": 0.0621,
      "velocity": 114,
      "chip": "ym2612"
    },
    {
      "channel": 0,
      "note": 47,
      "start": 9.6858,
      "duration": 0.0629,
      "velocity": 74,
      "chip": "ym2612"
    },
    {
      "channel": 2,
      "note": 69,
      "start": 9.6865,
      "duration": 0.0625,
      "velocity": 114,
      "chip": "ym2612"
    },
    {
      "channel": 0,
      "note": 29,
      "start": 9.8024,
      "duration": 0.063,
      "velocity": 74,
      "chip": "ym2612"
    },
    {
      "channel": 2,
      "note": 69,
      "start": 9.8031,
      "duration": 0.0626,
      "velocity": 114,
      "chip": "ym2612"
    },
    {
      "channel": 0,
      "note": 47,
      "start": 9.9189,
      "duration": 0.0631,
      "velocity": 74,
      "chip": "ym2612"
    },
    {
      "channel": 0,
      "note": 29,
      "start": 10.0357,
      "duration": 0.063,
      "velocity": 74,
      "chip": "ym2612"
    },
    {
      "channel": 2,
      "note": 69,
      "start": 10.0364,
      "duration": 0.0625,
      "velocity": 114,
      "chip": "ym2612"
    },
    {
      "channel": 0,
      "note": 47,
      "start": 10.1524,
      "duration": 0.0629,
      "velocity": 74,
      "chip": "ym2612"
    },
    {
      "channel": 2,
      "note": 69,
      "start": 10.1531,
      "duration": 0.0625,
      "velocity": 114,
      "chip": "ym2612"
    },
    {
      "channel": 0,
      "note": 29,
      "start": 10.2692,
      "duration": 0.0629,
      "velocity": 74,
      "chip": "ym2612"
    },
    {
      "channel": 1,
      "note": 36,
      "start": 10.2697,
      "duration": 0.0625,
      "velocity": 74,
      "chip": "ym2612"
    },
    {
      "channel": 2,
      "note": 69,
      "start": 10.2704,
      "duration": 0.0621,
      "velocity": 114,
      "chip": "ym2612"
    },
    {
      "channel": 0,
      "note": 47,
      "start": 10.3857,
      "duration": 0.063,
      "velocity": 74,
      "chip": "ym2612"
    },
    {
      "channel": 2,
      "note": 69,
      "start": 10.3864,
      "duration": 0.0625,
      "velocity": 114,
      "chip": "ym2612"
    },
    {
      "channel": 0,
      "note": 29,
      "start": 10.5024,
      "duration": 0.063,
      "velocity": 74,
      "chip": "ym2612"
    },
    {
      "channel": 2,
      "note": 69,
      "start": 10.5031,
      "duration": 0.0625,
      "velocity": 114,
      "chip": "ym2612"
    },
    {
      "channel": 0,
      "note": 47,
      "start": 10.6192,
      "duration": 0.0628,
      "velocity": 74,
      "chip": "ym2612"
    },
    {
      "channel": 1,
      "note": 36,
      "start": 10.6197,
      "duration": 0.0625,
      "velocity": 74,
      "chip": "ym2612"
    },
    {
      "channel": 2,
      "note": 69,
      "start": 10.6204,
      "duration": 0.062,
      "velocity": 114,
      "chip": "ym2612"
    },
    {
      "channel": 0,
      "note": 29,
      "start": 10.7358,
      "duration": 0.0629,
      "velocity": 74,
      "chip": "ym2612"
    },
    {
      "channel": 2,
      "note": 69,
      "start": 10.7365,
      "duration": 0.0625,
      "velocity": 114,
      "chip": "ym2612"
    },
    {
      "channel": 0,
      "note": 47,
      "start": 10.8524,
      "duration": 0.063,
      "velocity": 74,
      "chip": "ym2612"
    },
    {
      "channel": 2,
      "note": 69,
      "start": 10.8531,
      "duration": 0.0625,
      "velocity": 114,
      "chip": "ym2612"
    },
    {
      "channel": 0,
      "note": 29,
      "start": 10.9691,
      "duration": 0.0629,
      "velocity": 74,
      "chip": "ym2612"
    },
    {
      "channel": 2,
      "note": 69,
      "start": 10.9727,
      "duration": 0.0595,
      "velocity": 114,
      "chip": "ym2612"
    },
    {
      "channel": 0,
      "note": 47,
      "start": 11.0857,
      "duration": 0.063,
      "velocity": 74,
      "chip": "ym2612"
    },
    {
      "channel": 2,
      "note": 69,
      "start": 11.0893,
      "duration": 0.0597,
      "velocity": 114,
      "chip": "ym2612"
    },
    {
      "channel": 0,
      "note": 28,
      "start": 11.2026,
      "duration": 0.0628,
      "velocity": 74,
      "chip": "ym2612"
    },
    {
      "channel": 2,
      "note": 69,
      "start": 11.2062,
      "duration": 0.0594,
      "velocity": 114,
      "chip": "ym2612"
    },
    {
      "channel": 3,
      "note": 39,
      "start": 11.2068,
      "duration": 3.7333,
      "velocity": 28,
      "chip": "ym2612"
    },
    {
      "channel": 4,
      "note": 99,
      "start": 11.2073,
      "duration": 0.6964,
      "velocity": 94,
      "chip": "ym2612"
    },
    {
      "channel": 0,
      "note": 46,
      "start": 11.319,
      "duration": 0.063,
      "velocity": 74,
      "chip": "ym2612"
    },
    {
      "channel": 2,
      "note": 69,
      "start": 11.3227,
      "duration": 0.0596,
      "velocity": 114,
      "chip": "ym2612"
    },
    {
      "channel": 0,
      "note": 28,
      "start": 11.4358,
      "duration": 0.0628,
      "velocity": 74,
      "chip": "ym2612"
    },
    {
      "channel": 1,
      "note": 35,
      "start": 11.4365,
      "duration": 0.0624,
      "velocity": 74,
      "chip": "ym2612"
    },
    {
      "channel": 2,
      "note": 69,
      "start": 11.437,
      "duration": 0.062,
      "velocity": 114,
      "chip": "ym2612"
    },
    {
      "channel": 5,
      "note": 99,
      "start": 11.438,
      "duration": 0.6993,
      "velocity": 94,
      "chip": "ym2612"
    },
    {
      "channel": 0,
      "note": 46,
      "start": 11.5524,
      "duration": 0.0629,
      "velocity": 74,
      "chip": "ym2612"
    },
    {
      "channel": 2,
      "note": 69,
      "start": 11.5531,
      "duration": 0.0625,
      "velocity": 114,
      "chip": "ym2612"
    },
    {
      "channel": 0,
      "note": 28,
      "start": 11.6691,
      "duration": 0.0629,
      "velocity": 74,
      "chip": "ym2612"
    },
    {
      "channel": 2,
      "note": 69,
      "start": 11.6698,
      "duration": 0.0625,
      "velocity": 114,
      "chip": "ym2612"
    },
    {
      "channel": 0,
      "note": 46,
      "start": 11.7856,
      "duration": 0.0632,
      "velocity": 74,
      "chip": "ym2612"
    },
    {
      "channel": 0,
      "note": 28,
      "start": 11.9025,
      "duration": 0.0628,
      "velocity": 74,
      "chip": "ym2612"
    },
    {
      "channel": 2,
      "note": 69,
      "start": 11.9032,
      "duration": 0.0624,
      "velocity": 114,
      "chip": "ym2612"
    },
    {
      "channel": 4,
      "note": 100,
      "start": 11.9038,
      "duration": 0.6999,
      "velocity": 94,
      "chip": "ym2612"
    },
    {
      "channel": 0,
      "note": 46,
      "start": 12.019,
      "duration": 0.063,
      "velocity": 74,
      "chip": "ym2612"
    },
    {
      "channel": 2,
      "note": 69,
      "start": 12.0197,
      "duration": 0.0625,
      "velocity": 114,
      "chip": "ym2612"
    },
    {
      "channel": 0,
      "note": 28,
      "start": 12.1358,
      "duration": 0.0629,
      "velocity": 74,
      "chip": "ym2612"
    },
    {
      "channel": 2,
      "note": 69,
      "start": 12.1365,
      "duration": 0.0625,
      "velocity": 114,
      "chip": "ym2612"
    },
    {
      "channel": 5,
      "note": 100,
      "start": 12.1373,
      "duration": 0.703,
      "velocity": 94,
      "chip": "ym2612"
    },
    {
      "channel": 0,
      "note": 46,
      "start": 12.2522,
      "duration": 0.0631,
      "velocity": 74,
      "chip": "ym2612"
    },
    {
      "channel": 0,
      "note": 28,
      "start": 12.3691,
      "duration": 0.0629,
      "velocity": 74,
      "chip": "ym2612"
    },
    {
      "channel": 2,
      "note": 69,
      "start": 12.3698,
      "duration": 0.0625,
      "velocity": 114,
      "chip": "ym2612"
    },
    {
      "channel": 0,
      "note": 46,
      "start": 12.4857,
      "duration": 0.063,
      "velocity": 74,
      "chip": "ym2612"
    },
    {
      "channel": 2,
      "note": 69,
      "start": 12.4864,
      "duration": 0.0625,
      "velocity": 114,
      "chip": "ym2612"
    },
    {
      "channel": 0,
      "note": 28,
      "start": 12.6024,
      "duration": 0.063,
      "velocity": 74,
      "chip": "ym2612"
    },
    {
      "channel": 2,
      "note": 69,
      "start": 12.6031,
      "duration": 0.0625,
      "velocity": 114,
      "chip": "ym2612"
    },
    {
      "channel": 4,
      "note": 104,
      "start": 12.6038,
      "duration": 0.4702,
      "velocity": 94,
      "chip": "ym2612"
    },
    {
      "channel": 0,
      "note": 46,
      "start": 12.7192,
      "duration": 0.0628,
      "velocity": 74,
      "chip": "ym2612"
    },
    {
      "channel": 1,
      "note": 35,
      "start": 12.7197,
      "duration": 0.0625,
      "velocity": 74,
      "chip": "ym2612"
    },
    {
      "channel": 2,
      "note": 69,
      "start": 12.7204,
      "duration": 0.062,
      "velocity": 114,
      "chip": "ym2612"
    },
    {
      "channel": 0,
      "note": 28,
      "start": 12.8358,
      "duration": 0.0629,
      "velocity": 74,
      "chip": "ym2612"
    },
    {
      "channel": 2,
      "note": 69,
      "start": 12.8395,
      "duration": 0.0595,
      "velocity": 114,
      "chip": "ym2612"
    },
    {
      "channel": 5,
      "note": 104,
      "start": 12.8403,
      "duration": 0.4642,
      "velocity": 94,
      "chip": "ym2612"
    },
    {
      "channel": 0,
      "note": 46,
      "start": 12.9524,
      "duration": 0.063,
      "velocity": 74,
      "chip": "ym2612"
    },
    {
      "channel": 2,
      "note": 69,
      "start": 12.956,
      "duration": 0.0597,
      "velocity": 114,
      "chip": "ym2612"
    },
    {
      "channel": 0,
      "note": 28,
      "start": 13.0692,
      "duration": 0.0628,
      "velocity": 74,
      "chip": "ym2612"
    },
    {
      "channel": 1,
      "note": 35,
      "start": 13.0698,
      "duration": 0.0625,
      "velocity": 74,
      "chip": "ym2612"
    },
    {
      "channel": 2,
      "note": 69,
      "start": 13.0734,
      "duration": 0.0591,
      "velocity": 114,
      "chip": "ym2612"
    },
    {
      "channel": 4,
      "note": 103,
      "start": 13.074,
      "duration": 0.6964,
      "velocity": 94,
      "chip": "ym2612"
    },
    {
      "channel": 0,
      "note": 46,
      "start": 13.1858,
      "duration": 0.0629,
      "velocity": 74,
      "chip": "ym2612"
    },
    {
      "channel": 2,
      "note": 69,
      "start": 13.1895,
      "duration": 0.0595,
      "velocity": 114,
      "chip": "ym2612"
    },
    {
      "channel": 0,
      "note": 28,
      "start": 13.3025,
      "duration": 0.0628,
      "velocity": 74,
      "chip": "ym2612"
    },
    {
      "channel": 1,
      "note": 35,
      "start": 13.3031,
      "duration": 0.0624,
      "velocity": 74,
      "chip": "ym2612"
    },
    {
      "channel": 2,
      "note": 69,
      "start": 13.3037,
      "duration": 0.062,
      "velocity": 114,
      "chip": "ym2612"
    },
    {
      "channel": 5,
      "note": 103,
      "start": 13.3046,
      "duration": 0.6999,
      "velocity": 94,
      "chip": "ym2612"
    },
    {
      "channel": 0,
      "note": 46,
      "start": 13.4191,
      "duration": 0.0629,
      "velocity": 74,
      "chip": "ym2612"
    },
    {
      "channel": 2,
      "note": 69,
      "start": 13.4198,
      "duration": 0.0625,
      "velocity": 114,
      "chip": "ym2612"
    },
    {
      "channel": 0,
      "note": 28,
      "start": 13.5357,
      "duration": 0.063,
      "velocity": 74,
      "chip": "ym2612"
    },
    {
      "channel": 2,
      "note": 69,
      "start": 13.5364,
      "duration": 0.0625,
      "velocity": 114,
      "chip": "ym2612"
    },
    {
      "channel": 0,
      "note": 46,
      "start": 13.6522,
      "duration": 0.0631,
      "velocity": 74,
      "chip": "ym2612"
    },
    {
      "channel": 0,
      "note": 28,
      "start": 13.7691,
      "duration": 0.063,
      "velocity": 74,
      "chip": "ym2612"
    },
    {
      "channel": 2,
      "note": 69,
      "start": 13.7698,
      "duration": 0.0625,
      "velocity": 114,
      "chip": "ym2612"
    },
    {
      "channel": 4,
      "note": 94,
      "start": 13.7704,
      "duration": 0.7,
      "velocity": 94,
      "chip": "ym2612"
    },
    {
      "channel": 0,
      "note": 46,
      "start": 13.8857,
      "duration": 0.063,
      "velocity": 74,
      "chip": "ym2612"
    },
    {
      "channel": 2,
      "note": 69,
      "start": 13.8864,
      "duration": 0.0625,
      "velocity": 114,
      "chip": "ym2612"
    },
    {
      "channel": 0,
      "note": 28,
      "start": 14.0025,
      "duration": 0.0629,
      "velocity": 74,
      "chip": "ym2612"
    },
    {
      "channel": 1,
      "note": 35,
      "start": 14.0031,
      "duration": 0.0625,
      "velocity": 74,
      "chip": "ym2612"
    },
    {
      "channel": 2,
      "note": 69,
      "start": 14.0037,
      "duration": 0.0621,
      "velocity": 114,
      "chip": "ym2612"
    },
    {
      "channel": 5,
      "note": 94,
      "start": 14.0046,
      "duration": 0.7024,
      "velocity": 94,
      "chip": "ym2612"
    },
    {
      "channel": 0,
      "note": 46,
      "start": 14.119,
      "duration": 0.063,
      "velocity": 74,
      "chip": "ym2612"
    },
    {
      "channel": 2,
      "note": 69,
      "start": 14.1197,
      "duration": 0.0625,
      "velocity": 114,
      "chip": "ym2612"
    },
    {
      "channel": 0,
      "note": 28,
      "start": 14.2358,
      "duration": 0.0629,
      "velocity": 74,
      "chip": "ym2612"
    },
    {
      "channel": 2,
      "note": 69,
      "start": 14.2365,
      "duration": 0.0625,
      "velocity": 114,
      "chip": "ym2612"
    },
    {
      "channel": 0,
      "note": 46,
      "start": 14.3525,
      "duration": 0.0629,
      "velocity": 74,
      "chip": "ym2612"
    },
    {
      "channel": 1,
      "note": 35,
      "start": 14.3531,
      "duration": 0.0625,
      "velocity": 74,
      "chip": "ym2612"
    },
    {
      "channel": 2,
      "note": 69,
      "start": 14.3537,
      "duration": 0.0621,
      "velocity": 114,
      "chip": "ym2612"
    },
    {
      "channel": 0,
      "note": 28,
      "start": 14.4691,
      "duration": 0.063,
      "velocity": 74,
      "chip": "ym2612"
    },
    {
      "channel": 2,
      "note": 69,
      "start": 14.4698,
      "duration": 0.0625,
      "velocity": 114,
      "chip": "ym2612"
    },
    {
      "channel": 4,
      "note": 95,
      "start": 14.4704,
      "duration": 0.4702,
      "velocity": 94,
      "chip": "ym2612"
    },
    {
      "channel": 0,
      "note": 46,
      "start": 14.5857,
      "duration": 0.063,
      "velocity": 74,
      "chip": "ym2612"
    },
    {
      "channel": 2,
      "note": 69,
      "start": 14.5864,
      "duration": 0.0626,
      "velocity": 114,
      "chip": "ym2612"
    },
    {
      "channel": 0,
      "note": 28,
      "start": 14.7025,
      "duration": 0.0629,
      "velocity": 74,
      "chip": "ym2612"
    },
    {
      "channel": 2,
      "note": 69,
      "start": 14.7061,
      "duration": 0.0595,
      "velocity": 114,
      "chip": "ym2612"
    },
    {
      "channel": 5,
      "note": 95,
      "start": 14.707,
      "duration": 0.4642,
      "velocity": 94,
      "chip": "ym2612"
    },
    {
      "channel": 0,
      "note": 46,
      "start": 14.819,
      "duration": 0.063,
      "velocity": 74,
      "chip": "ym2612"
    },
    {
      "channel": 2,
      "note": 69,
      "start": 14.8227,
      "duration": 0.0597,
      "velocity": 114,
      "chip": "ym2612"
    },
    {
      "channel": 0,
      "note": 29,
      "start": 14.9358,
      "duration": 0.0628,
      "velocity": 74,
      "chip": "ym2612"
    },
    {
      "channel": 2,
      "note": 69,
      "start": 14.9395,
      "duration": 0.0594,
      "velocity": 114,
      "chip": "ym2612"
    },
    {
      "channel": 3,
      "note": 40,
      "start": 14.9401,
      "duration": 3.7334,
      "velocity": 28,
      "chip": "ym2612"
    },
    {
      "channel": 4,
      "note": 98,
      "start": 14.9407,
      "duration": 2.1587,
      "velocity": 94,
      "chip": "ym2612"
    },
    {
      "channel": 0,
      "note": 47,
      "start": 15.0524,
      "duration": 0.063,
      "velocity": 74,
      "chip": "ym2612"
    },
    {
      "channel": 2,
      "note": 69,
      "start": 15.056,
      "duration": 0.0597,
      "velocity": 114,
      "chip": "ym2612"
    },
    {
      "channel": 0,
      "note": 29,
      "start": 15.1692,
      "duration": 0.0628,
      "velocity": 74,
      "chip": "ym2612"
    },
    {
      "channel": 1,
      "note": 36,
      "start": 15.1698,
      "duration": 0.0624,
      "velocity": 74,
      "chip": "ym2612"
    },
    {
      "channel": 2,
      "note": 69,
      "start": 15.1704,
      "duration": 0.062,
      "velocity": 114,
      "chip": "ym2612"
    },
    {
      "channel": 5,
      "note": 98,
      "start": 15.1713,
      "duration": 2.1615,
      "velocity": 94,
      "chip": "ym2612"
    },
    {
      "channel": 0,
      "note": 47,
      "start": 15.2858,
      "duration": 0.0629,
      "velocity": 74,
      "chip": "ym2612"
    },
    {
      "channel": 2,
      "note": 69,
      "start": 15.2865,
      "duration": 0.0625,
      "velocity": 114,
      "chip": "ym2612"
    },
    {
      "channel": 0,
      "note": 29,
      "start": 15.4024,
      "duration": 0.063,
      "velocity": 74,
      "chip": "ym2612"
    },
    {
      "channel": 2,
      "note": 69,
      "start": 15.4031,
      "duration": 0.0625,
      "velocity": 114,
      "chip": "ym2612"
    },
    {
      "channel": 0,
      "note": 47,
      "start": 15.5189,
      "duration": 0.0631,
      "velocity": 74,
      "chip": "ym2612"
    },
    {
      "channel": 0,
      "note": 29,
      "start": 15.6358,
      "duration": 0.0629,
      "velocity": 74,
      "chip": "ym2612"
    },
    {
      "channel": 2,
      "note": 69,
      "start": 15.6365,
      "duration": 0.0625,
      "velocity": 114,
      "chip": "ym2612"
    },
    {
      "channel": 0,
      "note": 47,
      "start": 15.7524,
      "duration": 0.063,
      "velocity": 74,
      "chip": "ym2612"
    },
    {
      "channel": 2,
      "note": 69,
      "start": 15.7531,
      "duration": 0.0625,
      "velocity": 114,
      "chip": "ym2612"
    },
    {
      "channel": 0,
      "note": 29,
      "start": 15.869,
      "duration": 0.063,
      "velocity": 74,
      "chip": "ym2612"
    },
    {
      "channel": 2,
      "note": 69,
      "start": 15.8697,
      "duration": 0.0625,
      "velocity": 114,
      "chip": "ym2612"
    },
    {
      "channel": 0,
      "note": 47,
      "start": 15.9856,
      "duration": 0.0631,
      "velocity": 74,
      "chip": "ym2612"
    },
    {
      "channel": 0,
      "note": 29,
      "start": 16.1024,
      "duration": 0.0629,
      "velocity": 74,
      "chip": "ym2612"
    },
    {
      "channel": 2,
      "note": 69,
      "start": 16.1031,
      "duration": 0.0625,
      "velocity": 114,
      "chip": "ym2612"
    },
    {
      "channel": 0,
      "note": 47,
      "start": 16.219,
      "duration": 0.063,
      "velocity": 74,
      "chip": "ym2612"
    },
    {
      "channel": 2,
      "note": 69,
      "start": 16.2197,
      "duration": 0.0626,
      "velocity": 114,
      "chip": "ym2612"
    },
    {
      "channel": 0,
      "note": 29,
      "start": 16.3357,
      "duration": 0.063,
      "velocity": 74,
      "chip": "ym2612"
    },
    {
      "channel": 2,
      "note": 69,
      "start": 16.3364,
      "duration": 0.0626,
      "velocity": 114,
      "chip": "ym2612"
    },
    {
      "channel": 0,
      "note": 47,
      "start": 16.4525,
      "duration": 0.0629,
      "velocity": 74,
      "chip": "ym2612"
    },
    {
      "channel": 1,
      "note": 36,
      "start": 16.4531,
      "duration": 0.0625,
      "velocity": 74,
      "chip": "ym2612"
    },
    {
      "channel": 2,
      "note": 69,
      "start": 16.4537,
      "duration": 0.0621,
      "velocity": 114,
      "chip": "ym2612"
    },
    {
      "channel": 0,
      "note": 29,
      "start": 16.569,
      "duration": 0.063,
      "velocity": 74,
      "chip": "ym2612"
    },
    {
      "channel": 2,
      "note": 69,
      "start": 16.5697,
      "duration": 0.0626,
      "velocity": 114,
      "chip": "ym2612"
    },
    {
      "channel": 0,
      "note": 47,
      "start": 16.6857,
      "duration": 0.063,
      "velocity": 74,
      "chip": "ym2612"
    },
    {
      "channel": 2,
      "note": 69,
      "start": 16.6864,
      "duration": 0.0625,
      "velocity": 114,
      "chip": "ym2612"
    },
    {
      "channel": 0,
      "note": 29,
      "start": 16.8025,
      "duration": 0.0628,
      "velocity": 74,
      "chip": "ym2612"
    },
    {
      "channel": 1,
      "note": 36,
      "start": 16.8031,
      "duration": 0.0625,
      "velocity": 74,
      "chip": "ym2612"
    },
    {
      "channel": 2,
      "note": 69,
      "start": 16.8037,
      "duration": 0.062,
      "velocity": 114,
      "chip": "ym2612"
    },
    {
      "channel": 0,
      "note": 47,
      "start": 16.9191,
      "duration": 0.0629,
      "velocity": 74,
      "chip": "ym2612"
    },
    {
      "channel": 2,
      "note": 69,
      "start": 16.9198,
      "duration": 0.0625,
      "velocity": 114,
      "chip": "ym2612"
    },
    {
      "channel": 0,
      "note": 29,
      "start": 17.0358,
      "duration": 0.0628,
      "velocity": 74,
      "chip": "ym2612"
    },
    {
      "channel": 1,
      "note": 36,
      "start": 17.0364,
      "duration": 0.0625,
      "velocity": 74,
      "chip": "ym2612"
    },
    {
      "channel": 2,
      "note": 69,
      "start": 17.037,
      "duration": 0.062,
      "velocity": 114,
      "chip": "ym2612"
    },
    {
      "channel": 0,
      "note": 47,
      "start": 17.1524,
      "duration": 0.0629,
      "velocity": 74,
      "chip": "ym2612"
    },
    {
      "channel": 2,
      "note": 69,
      "start": 17.1531,
      "duration": 0.0625,
      "velocity": 114,
      "chip": "ym2612"
    },
    {
      "channel": 0,
      "note": 29,
      "start": 17.269,
      "duration": 0.063,
      "velocity": 74,
      "chip": "ym2612"
    },
    {
      "channel": 2,
      "note": 69,
      "start": 17.2697,
      "duration": 0.0625,
      "velocity": 114,
      "chip": "ym2612"
    },
    {
      "channel": 0,
      "note": 47,
      "start": 17.3856,
      "duration": 0.0632,
      "velocity": 74,
      "chip": "ym2612"
    },
    {
      "channel": 0,
      "note": 29,
      "start": 17.5024,
      "duration": 0.0629,
      "velocity": 74,
      "chip": "ym2612"
    },
    {
      "channel": 2,
      "note": 69,
      "start": 17.5031,
      "duration": 0.0625,
      "velocity": 114,
      "chip": "ym2612"
    },
    {
      "channel": 0,
      "note": 47,
      "start": 17.619,
      "duration": 0.063,
      "velocity": 74,
      "chip": "ym2612"
    },
    {
      "channel": 2,
      "note": 69,
      "start": 17.6197,
      "duration": 0.0625,
      "velocity": 114,
      "chip": "ym2612"
    },
    {
      "channel": 0,
      "note": 29,
      "start": 17.7358,
      "duration": 0.0629,
      "velocity": 74,
      "chip": "ym2612"
    },
    {
      "channel": 1,
      "note": 36,
      "start": 17.7364,
      "duration": 0.0625,
      "velocity": 74,
      "chip": "ym2612"
    },
    {
      "channel": 2,
      "note": 69,
      "start": 17.737,
      "duration": 0.0621,
      "velocity": 114,
      "chip": "ym2612"
    },
    {
      "channel": 0,
      "note": 47,
      "start": 17.8524,
      "duration": 0.063,
      "velocity": 74,
      "chip": "ym2612"
    },
    {
      "channel": 2,
      "note": 69,
      "start": 17.8531,
      "duration": 0.0625,
      "velocity": 114,
      "chip": "ym2612"
    },
    {
      "channel": 0,
      "note": 29,
      "start": 17.9691,
      "duration": 0.0629,
      "velocity": 74,
      "chip": "ym2612"
    },
    {
      "channel": 2,
      "note": 69,
      "start": 17.9698,
      "duration": 0.0625,
      "velocity": 114,
      "chip": "ym2612"
    },
    {
      "channel": 0,
      "note": 47,
      "start": 18.0858,
      "duration": 0.0628,
      "velocity": 74,
      "chip": "ym2612"
    },
    {
      "channel": 1,
      "note": 36,
      "start": 18.0864,
      "duration": 0.0625,
      "velocity": 74,
      "chip": "ym2612"
    },
    {
      "channel": 2,
      "note": 69,
      "start": 18.087,
      "duration": 0.062,
      "velocity": 114,
      "chip": "ym2612"
    },
    {
      "channel": 0,
      "note": 29,
      "start": 18.2024,
      "duration": 0.0629,
      "velocity": 74,
      "chip": "ym2612"
    },
    {
      "channel": 2,
      "note": 69,
      "start": 18.2031,
      "duration": 0.0625,
      "velocity": 114,
      "chip": "ym2612"
    },
    {
      "channel": 0,
      "note": 47,
      "start": 18.319,
      "duration": 0.063,
      "velocity": 74,
      "chip": "ym2612"
    },
    {
      "channel": 2,
      "note": 69,
      "start": 18.3197,
      "duration": 0.0625,
      "velocity": 114,
      "chip": "ym2612"
    },
    {
      "channel": 0,
      "note": 29,
      "start": 18.4358,
      "duration": 0.0629,
      "velocity": 74,
      "chip": "ym2612"
    },
    {
      "channel": 2,
      "note": 69,
      "start": 18.4394,
      "duration": 0.0595,
      "velocity": 114,
      "chip": "ym2612"
    },
    {
      "channel": 0,
      "note": 47,
      "start": 18.5524,
      "duration": 0.063,
      "velocity": 74,
      "chip": "ym2612"
    },
    {
      "channel": 2,
      "note": 69,
      "start": 18.556,
      "duration": 0.0596,
      "velocity": 114,
      "chip": "ym2612"
    },
    {
      "channel": 0,
      "note": 87,
      "start": 18.6693,
      "duration": 0.0628,
      "velocity": 93,
      "chip": "ym2612"
    },
    {
      "channel": 2,
      "note": 69,
      "start": 18.6729,
      "duration": 0.0594,
      "velocity": 114,
      "chip": "ym2612"
    },
    {
      "channel": 3,
      "note": 39,
      "start": 18.6735,
      "duration": 3.7307,
      "velocity": 28,
      "chip": "ym2612"
    },
    {
      "channel": 4,
      "note": 99,
      "start": 18.6741,
      "duration": 1.8635,
      "velocity": 94,
      "chip": "ym2612"
    },
    {
      "channel": 0,
      "note": 82,
      "start": 18.7828,
      "duration": 0.066,
      "velocity": 93,
      "chip": "ym2612"
    },
    {
      "channel": 1,
      "note": 87,
      "start": 18.7863,
      "duration": 0.0627,
      "velocity": 93,
      "chip": "ym2612"
    },
    {
      "channel": 2,
      "note": 69,
      "start": 18.7898,
      "duration": 0.0593,
      "velocity": 114,
      "chip": "ym2612"
    },
    {
      "channel": 0,
      "note": 82,
      "start": 18.8995,
      "duration": 0.0659,
      "velocity": 93,
      "chip": "ym2612"
    },
    {
      "channel": 1,
      "note": 82,
      "start": 18.9001,
      "duration": 0.0655,
      "velocity": 93,
      "chip": "ym2612"
    },
    {
      "channel": 2,
      "note": 69,
      "start": 18.9006,
      "duration": 0.0651,
      "velocity": 114,
      "chip": "ym2612"
    },
    {
      "channel": 5,
      "note": 99,
      "start": 18.9016,
      "duration": 1.8666,
      "velocity": 94,
      "chip": "ym2612"
    },
    {
      "channel": 0,
      "note": 75,
      "start": 19.0161,
      "duration": 0.066,
      "velocity": 93,
      "chip": "ym2612"
    },
    {
      "channel": 1,
      "note": 82,
      "start": 19.0166,
      "duration": 0.0656,
      "velocity": 93,
      "chip": "ym2612"
    },
    {
      "channel": 2,
      "note": 69,
      "start": 19.0173,
      "duration": 0.0652,
      "velocity": 114,
      "chip": "ym2612"
    },
    {
      "channel": 0,
      "note": 83,
      "start": 19.1327,
      "duration": 0.066,
      "velocity": 93,
      "chip": "ym2612"
    },
    {
      "channel": 1,
      "note": 75,
      "start": 19.1332,
      "duration": 0.0656,
      "velocity": 93,
      "chip": "ym2612"
    },
    {
      "channel": 2,
      "note": 69,
      "start": 19.1339,
      "duration": 0.0652,
      "velocity": 114,
      "chip": "ym2612"
    },
    {
      "channel": 0,
      "note": 78,
      "start": 19.2493,
      "duration": 0.0661,
      "velocity": 93,
      "chip": "ym2612"
    },
    {
      "channel": 1,
      "note": 83,
      "start": 19.2498,
      "duration": 0.0658,
      "velocity": 93,
      "chip": "ym2612"
    },
    {
      "channel": 0,
      "note": 78,
      "start": 19.3661,
      "duration": 0.066,
      "velocity": 93,
      "chip": "ym2612"
    },
    {
      "channel": 1,
      "note": 78,
      "start": 19.3666,
      "duration": 0.0656,
      "velocity": 93,
      "chip": "ym2612"
    },
    {
      "channel": 2,
      "note": 69,
      "start": 19.3673,
      "duration": 0.0652,
      "velocity": 114,
      "chip": "ym2612"
    },
    {
      "channel": 0,
      "note": 71,
      "start": 19.4827,
      "duration": 0.066,
      "velocity": 93,
      "chip": "ym2612"
    },
    {
      "channel": 1,
      "note": 78,
      "start": 19.4832,
      "duration": 0.0656,
      "velocity": 93,
      "chip": "ym2612"
    },
    {
      "channel": 2,
      "note": 69,
      "start": 19.4839,
      "duration": 0.0652,
      "velocity": 114,
      "chip": "ym2612"
    },
    {
      "channel": 0,
      "note": 79,
      "start": 19.5994,
      "duration": 0.066,
      "velocity": 93,
      "chip": "ym2612"
    },
    {
      "channel": 1,
      "note": 71,
      "start": 19.5999,
      "duration": 0.0657,
      "velocity": 93,
      "chip": "ym2612"
    },
    {
      "channel": 2,
      "note": 69,
      "start": 19.6005,
      "duration": 0.0653,
      "velocity": 114,
      "chip": "ym2612"
    },
    {
      "channel": 0,
      "note": 74,
      "start": 19.7159,
      "duration": 0.0661,
      "velocity": 93,
      "chip": "ym2612"
    },
    {
      "channel": 1,
      "note": 79,
      "start": 19.7165,
      "duration": 0.0657,
      "velocity": 93,
      "chip": "ym2612"
    },
    {
      "channel": 0,
      "note": 74,
      "start": 19.8328,
      "duration": 0.066,
      "velocity": 93,
      "chip": "ym2612"
    },
    {
      "channel": 1,
      "note": 74,
      "start": 19.8333,
      "duration": 0.0656,
      "velocity": 93,
      "chip": "ym2612"
    },
    {
      "channel": 2,
      "note": 69,
      "start": 19.8339,
      "duration": 0.0652,
      "velocity": 114,
      "chip": "ym2612"
    },
    {
      "channel": 0,
      "note": 67,
      "start": 19.9494,
      "duration": 0.066,
      "velocity": 93,
      "chip": "ym2612"
    },
    {
      "channel": 1,
      "note": 74,
      "start": 19.9499,
      "duration": 0.0657,
      "velocity": 93,
      "chip": "ym2612"
    },
    {
      "channel": 2,
      "note": 69,
      "start": 19.9505,
      "duration": 0.0653,
      "velocity": 114,
      "chip": "ym2612"
    },
    {
      "channel": 0,
      "note": 75,
      "start": 20.066,
      "duration": 0.066,
      "velocity": 93,
      "chip": "ym2612"
    },
    {
      "channel": 1,
      "note": 67,
      "start": 20.0666,
      "duration": 0.0657,
      "velocity": 93,
      "chip": "ym2612"
    },
    {
      "channel": 2,
      "note": 69,
      "start": 20.0672,
      "duration": 0.0653,
      "velocity": 114,
      "chip": "ym2612"
    },
    {
      "channel": 0,
      "note": 70,
      "start": 20.1828,
      "duration": 0.0659,
      "velocity": 93,
      "chip": "ym2612"
    },
    {
      "channel": 1,
      "note": 75,
      "start": 20.1833,
      "duration": 0.0656,
      "velocity": 93,
      "chip": "ym2612"
    },
    {
      "channel": 2,
      "note": 69,
      "start": 20.1839,
      "duration": 0.0651,
      "velocity": 114,
      "chip": "ym2612"
    },
    {
      "channel": 0,
      "note": 70,
      "start": 20.2995,
      "duration": 0.0659,
      "velocity": 93,
      "chip": "ym2612"
    },
    {
      "channel": 1,
      "note": 70,
      "start": 20.3,
      "duration": 0.0656,
      "velocity": 93,
      "chip": "ym2612"
    },
    {
      "channel": 2,
      "note": 69,
      "start": 20.3036,
      "duration": 0.0622,
      "velocity": 114,
      "chip": "ym2612"
    },
    {
      "channel": 0,
      "note": 63,
      "start": 20.4161,
      "duration": 0.066,
      "velocity": 93,
      "chip": "ym2612"
    },
    {
      "channel": 1,
      "note": 70,
      "start": 20.4166,
      "duration": 0.0656,
      "velocity": 93,
      "chip": "ym2612"
    },
    {
      "channel": 2,
      "note": 69,
      "start": 20.4202,
      "duration": 0.0623,
      "velocity": 114,
      "chip": "ym2612"
    },
    {
      "channel": 0,
      "note": 111,
      "start": 20.5328,
      "duration": 0.0659,
      "velocity": 93,
      "chip": "ym2612"
    },
    {
      "channel": 1,
      "note": 63,
      "start": 20.5333,
      "duration": 0.0656,
      "velocity": 93,
      "chip": "ym2612"
    },
    {
      "channel": 2,
      "note": 69,
      "start": 20.5369,
      "duration": 0.0622,
      "velocity": 114,
      "chip": "ym2612"
    },
    {
      "channel": 4,
      "note": 97,
      "start": 20.5375,
      "duration": 1.8673,
      "velocity": 94,
      "chip": "ym2612"
    },
    {
      "channel": 0,
      "note": 106,
      "start": 20.6495,
      "duration": 0.0659,
      "velocity": 93,
      "chip": "ym2612"
    },
    {
      "channel": 1,
      "note": 111,
      "start": 20.65,
      "duration": 0.0656,
      "velocity": 93,
      "chip": "ym2612"
    },
    {
      "channel": 2,
      "note": 69,
      "start": 20.6536,
      "duration": 0.0622,
      "velocity": 114,
      "chip": "ym2612"
    },
    {
      "channel": 0,
      "note": 106,
      "start": 20.7662,
      "duration": 0.0659,
      "velocity": 93,
      "chip": "ym2612"
    },
    {
      "channel": 1,
      "note": 106,
      "start": 20.7667,
      "duration": 0.0655,
      "velocity": 93,
      "chip": "ym2612"
    },
    {
      "channel": 2,
      "note": 69,
      "start": 20.7673,
      "duration": 0.0651,
      "velocity": 114,
      "chip": "ym2612"
    },
    {
      "channel": 5,
      "note": 97,
      "start": 20.7683,
      "duration": 1.8666,
      "velocity": 94,
      "chip": "ym2612"
    },
    {
      "channel": 0,
      "note": 99,
      "start": 20.8828,
      "duration": 0.066,
      "velocity": 93,
      "chip": "ym2612"
    },
    {
      "channel": 1,
      "note": 106,
      "start": 20.8833,
      "duration": 0.0656,
      "velocity": 93,
      "chip": "ym2612"
    },
    {
      "channel": 2,
      "note": 69,
      "start": 20.8839,
      "duration": 0.0652,
      "velocity": 114,
      "chip": "ym2612"
    },
    {
      "channel": 0,
      "note": 107,
      "start": 20.9994,
      "duration": 0.066,
      "velocity": 93,
      "chip": "ym2612"
    },
    {
      "channel": 1,
      "note": 99,
      "start": 20.9999,
      "duration": 0.0657,
      "velocity": 93,
      "chip": "ym2612"
    },
    {
      "channel": 2,
      "note": 69,
      "start": 21.0005,
      "duration": 0.0653,
      "velocity": 114,
      "chip": "ym2612"
    },
    {
      "channel": 0,
      "note": 102,
      "start": 21.1159,
      "duration": 0.0661,
      "velocity": 93,
      "chip": "ym2612"
    },
    {
      "channel": 1,
      "note": 107,
      "start": 21.1165,
      "duration": 0.0658,
      "velocity": 93,
      "chip": "ym2612"
    },
    {
      "channel": 0,
      "note": 102,
      "start": 21.2328,
      "duration": 0.066,
      "velocity": 93,
      "chip": "ym2612"
    },
    {
      "channel": 1,
      "note": 102,
      "start": 21.2333,
      "duration": 0.0656,
      "velocity": 93,
      "chip": "ym2612"
    },
    {
      "channel": 2,
      "note": 69,
      "start": 21.2339,
      "duration": 0.0652,
      "velocity": 114,
      "chip": "ym2612"
    },
    {
      "channel": 0,
      "note": 95,
      "start": 21.3494,
      "duration": 0.066,
      "velocity": 93,
      "chip": "ym2612"
    },
    {
      "channel": 1,
      "note": 102,
      "start": 21.35,
      "duration": 0.0656,
      "velocity": 93,
      "chip": "ym2612"
    },
    {
      "channel": 2,
      "note": 69,
      "start": 21.3506,
      "duration": 0.0652,
      "velocity": 114,
      "chip": "ym2612"
    },
    {
      "channel": 0,
      "note": 103,
      "start": 21.4661,
      "duration": 0.0659,
      "velocity": 93,
      "chip": "ym2612"
    },
    {
      "channel": 1,
      "note": 95,
      "start": 21.4666,
      "duration": 0.0656,
      "velocity": 93,
      "chip": "ym2612"
    },
    {
      "channel": 2,
      "note": 69,
      "start": 21.4673,
      "duration": 0.0651,
      "velocity": 114,
      "chip": "ym2612"
    },
    {
      "channel": 0,
      "note": 98,
      "start": 21.5828,
      "duration": 0.0659,
      "velocity": 93,
      "chip": "ym2612"
    },
    {
      "channel": 1,
      "note": 103,
      "start": 21.5833,
      "duration": 0.0656,
      "velocity": 93,
      "chip": "ym2612"
    },
    {
      "channel": 2,
      "note": 69,
      "start": 21.5839,
      "duration": 0.0651,
      "velocity": 114,
      "chip": "ym2612"
    },
    {
      "channel": 0,
      "note": 98,
      "start": 21.6994,
      "duration": 0.066,
      "velocity": 93,
      "chip": "ym2612"
    },
    {
      "channel": 1,
      "note": 98,
      "start": 21.6999,
      "duration": 0.0656,
      "velocity": 93,
      "chip": "ym2612"
    },
    {
      "channel": 2,
      "note": 69,
      "start": 21.7005,
      "duration": 0.0652,
      "velocity": 114,
      "chip": "ym2612"
    },
    {
      "channel": 0,
      "note": 91,
      "start": 21.8161,
      "duration": 0.0659,
      "velocity": 93,
      "chip": "ym2612"
    },
    {
      "channel": 1,
      "note": 98,
      "start": 21.8166,
      "duration": 0.0656,
      "velocity": 93,
      "chip": "ym2612"
    },
    {
      "channel": 2,
      "note": 69,
      "start": 21.8173,
      "duration": 0.0651,
      "velocity": 114,
      "chip": "ym2612"
    },
    {
      "channel": 0,
      "note": 99,
      "start": 21.9328,
      "duration": 0.066,
      "velocity": 93,
      "chip": "ym2612"
    },
    {
      "channel": 1,
      "note": 91,
      "start": 21.9333,
      "duration": 0.0656,
      "velocity": 93,
      "chip": "ym2612"
    },
    {
      "channel": 2,
      "note": 69,
      "start": 21.9339,
      "duration": 0.0652,
      "velocity": 114,
      "chip": "ym2612"
    },
    {
      "channel": 0,
      "note": 94,
      "start": 22.0494,
      "duration": 0.066,
      "velocity": 93,
      "chip": "ym2612"
    },
    {
      "channel": 1,
      "note": 99,
      "start": 22.0499,
      "duration": 0.0657,
      "velocity": 93,
      "chip": "ym2612"
    },
    {
      "channel": 2,
      "note": 69,
      "start": 22.0505,
      "duration": 0.0653,
      "velocity": 114,
      "chip": "ym2612"
    },
    {
      "channel": 0,
      "note": 94,
      "start": 22.1661,
      "duration": 0.066,
      "velocity": 93,
      "chip": "ym2612"
    },
    {
      "channel": 1,
      "note": 94,
      "start": 22.1666,
      "duration": 0.0656,
      "velocity": 93,
      "chip": "ym2612"
    },
    {
      "channel": 2,
      "note": 69,
      "start": 22.1702,
      "duration": 0.0623,
      "velocity": 114,
      "chip": "ym2612"
    },
    {
      "channel": 0,
      "note": 87,
      "start": 22.2828,
      "duration": 0.066,
      "velocity": 93,
      "chip": "ym2612"
    },
    {
      "channel": 1,
      "note": 94,
      "start": 22.2833,
      "duration": 0.0656,
      "velocity": 93,
      "chip": "ym2612"
    },
    {
      "channel": 2,
      "note": 69,
      "start": 22.2868,
      "duration": 0.0623,
      "velocity": 114,
      "chip": "ym2612"
    },
    {
      "channel": 0,
      "note": 88,
      "start": 22.3996,
      "duration": 0.0658,
      "velocity": 93,
      "chip": "ym2612"
    },
    {
      "channel": 1,
      "note": 87,
      "start": 22.4001,
      "duration": 0.0654,
      "velocity": 93,
      "chip": "ym2612"
    },
    {
      "channel": 2,
      "note": 69,
      "start": 22.4037,
      "duration": 0.062,
      "velocity": 114,
      "chip": "ym2612"
    },
    {
      "channel": 3,
      "note": 40,
      "start": 22.4043,
      "duration": 3.7334,
      "velocity": 28,
      "chip": "ym2612"
    },
    {
      "channel": 4,
      "note": 95,
      "start": 22.4049,
      "duration": 1.863,
      "velocity": 94,
      "chip": "ym2612"
    },
    {
      "channel": 0,
      "note": 83,
      "start": 22.5161,
      "duration": 0.066,
      "velocity": 93,
      "chip": "ym2612"
    },
    {
      "channel": 1,
      "note": 88,
      "start": 22.5166,
      "duration": 0.0656,
      "velocity": 93,
      "chip": "ym2612"
    },
    {
      "channel": 2,
      "note": 69,
      "start": 22.5202,
      "duration": 0.0623,
      "velocity": 114,
      "chip": "ym2612"
    },
    {
      "channel": 0,
      "note": 83,
      "start": 22.6328,
      "duration": 0.0659,
      "velocity": 93,
      "chip": "ym2612"
    },
    {
      "channel": 1,
      "note": 83,
      "start": 22.6333,
      "duration": 0.0656,
      "velocity": 93,
      "chip": "ym2612"
    },
    {
      "channel": 2,
      "note": 69,
      "start": 22.634,
      "duration": 0.0651,
      "velocity": 114,
      "chip": "ym2612"
    },
    {
      "channel": 5,
      "note": 95,
      "start": 22.6349,
      "duration": 1.8667,
      "velocity": 94,
      "chip": "ym2612"
    },
    {
      "channel": 0,
      "note": 76,
      "start": 22.7494,
      "duration": 0.0659,
      "velocity": 93,
      "chip": "ym2612"
    },
    {
      "channel": 1,
      "note": 83,
      "start": 22.75,
      "duration": 0.0656,
      "velocity": 93,
      "chip": "ym2612"
    },
    {
      "channel": 2,
      "note": 69,
      "start": 22.7506,
      "duration": 0.0651,
      "velocity": 114,
      "chip": "ym2612"
    },
    {
      "channel": 0,
      "note": 84,
      "start": 22.866,
      "duration": 0.0661,
      "velocity": 93,
      "chip": "ym2612"
    },
    {
      "channel": 1,
      "note": 76,
      "start": 22.8666,
      "duration": 0.0657,
      "velocity": 93,
      "chip": "ym2612"
    },
    {
      "channel": 2,
      "note": 69,
      "start": 22.8672,
      "duration": 0.0653,
      "velocity": 114,
      "chip": "ym2612"
    },
    {
      "channel": 0,
      "note": 79,
      "start": 22.9826,
      "duration": 0.0661,
      "velocity": 93,
      "chip": "ym2612"
    },
    {
      "channel": 1,
      "note": 84,
      "start": 22.9832,
      "duration": 0.0657,
      "velocity": 93,
      "chip": "ym2612"
    },
    {
      "channel": 0,
      "note": 79,
      "start": 23.0994,
      "duration": 0.066,
      "velocity": 93,
      "chip": "ym2612"
    },
    {
      "channel": 1,
      "note": 79,
      "start": 23.1,
      "duration": 0.0656,
      "velocity": 93,
      "chip": "ym2612"
    },
    {
      "channel": 2,
      "note": 69,
      "start": 23.1006,
      "duration": 0.0652,
      "velocity": 114,
      "chip": "ym2612"
    },
    {
      "channel": 0,
      "note": 72,
      "start": 23.216,
      "duration": 0.066,
      "velocity": 93,
      "chip": "ym2612"
    },
    {
      "channel": 1,
      "note": 79,
      "start": 23.2166,
      "duration": 0.0657,
      "velocity": 93,
      "chip": "ym2612"
    },
    {
      "channel": 2,
      "note": 69,
      "start": 23.2172,
      "duration": 0.0653,
      "velocity": 114,
      "chip": "ym2612"
    },
    {
      "channel": 0,
      "note": 80,
      "start": 23.3327,
      "duration": 0.066,
      "velocity": 93,
      "chip": "ym2612"
    },
    {
      "channel": 1,
      "note": 72,
      "start": 23.3332,
      "duration": 0.0656,
      "velocity": 93,
      "chip": "ym2612"
    },
    {
      "channel": 2,
      "note": 69,
      "start": 23.3339,
      "duration": 0.0652,
      "velocity": 114,
      "chip": "ym2612"
    },
    {
      "channel": 0,
      "note": 75,
      "start": 23.4493,
      "duration": 0.0661,
      "velocity": 93,
      "chip": "ym2612"
    },
    {
      "channel": 1,
      "note": 80,
      "start": 23.4498,
      "duration": 0.0658,
      "velocity": 93,
      "chip": "ym2612"
    },
    {
      "channel": 0,
      "note": 75,
      "start": 23.566,
      "duration": 0.066,
      "velocity": 93,
      "chip": "ym2612"
    },
    {
      "channel": 1,
      "note": 75,
      "start": 23.5666,
      "duration": 0.0656,
      "velocity": 93,
      "chip": "ym2612"
    },
    {
      "channel": 2,
      "note": 69,
      "start": 23.5672,
      "duration": 0.0653,
      "velocity": 114,
      "chip": "ym2612"
    },
    {
      "channel": 0,
      "note": 68,
      "start": 23.6827,
      "duration": 0.066,
      "velocity": 93,
      "chip": "ym2612"
    },
    {
      "channel": 1,
      "note": 75,
      "start": 23.6832,
      "duration": 0.0657,
      "velocity": 93,
      "chip": "ym2612"
    },
    {
      "channel": 2,
      "note": 69,
      "start": 23.6839,
      "duration": 0.0653,
      "velocity": 114,
      "chip": "ym2612"
    },
    {
      "channel": 0,
      "note": 76,
      "start": 23.7994,
      "duration": 0.066,
      "velocity": 93,
      "chip": "ym2612"
    },
    {
      "channel": 1,
      "note": 68,
      "start": 23.7999,
      "duration": 0.0657,
      "velocity": 93,
      "chip": "ym2612"
    },
    {
      "channel": 2,
      "note": 69,
      "start": 23.8005,
      "duration": 0.0653,
      "velocity": 114,
      "chip": "ym2612"
    },
    {
      "channel": 0,
      "note": 71,
      "start": 23.9161,
      "duration": 0.0659,
      "velocity": 93,
      "chip": "ym2612"
    },
    {
      "channel": 1,
      "note": 76,
      "start": 23.9166,
      "duration": 0.0656,
      "velocity": 93,
      "chip": "ym2612"
    },
    {
      "channel": 2,
      "note": 69,
      "start": 23.9173,
      "duration": 0.0651,
      "velocity": 114,
      "chip": "ym2612"
    },
    {
      "channel": 0,
      "note": 71,
      "start": 24.0328,
      "duration": 0.066,
      "velocity": 93,
      "chip": "ym2612"
    },
    {
      "channel": 1,
      "note": 71,
      "start": 24.0333,
      "duration": 0.0656,
      "velocity": 93,
      "chip": "ym2612"
    },
    {
      "channel": 2,
      "note": 69,
      "start": 24.0339,
      "duration": 0.0652,
      "velocity": 114,
      "chip": "ym2612"
    },
    {
      "channel": 0,
      "note": 76,
      "start": 24.1494,
      "duration": 0.066,
      "velocity": 93,
      "chip": "ym2612"
    },
    {
      "channel": 1,
      "note": 71,
      "start": 24.1499,
      "duration": 0.0657,
      "velocity": 93,
      "chip": "ym2612"
    },
    {
      "channel": 2,
      "note": 69,
      "start": 24.1505,
      "duration": 0.0653,
      "velocity": 114,
      "chip": "ym2612"
    },
    {
      "channel": 0,
      "note": 112,
      "start": 24.2661,
      "duration": 0.066,
      "velocity": 93,
      "chip": "ym2612"
    },
    {
      "channel": 1,
      "note": 76,
      "start": 24.2667,
      "duration": 0.0656,
      "velocity": 93,
      "chip": "ym2612"
    },
    {
      "channel": 2,
      "note": 69,
      "start": 24.2673,
      "duration": 0.0652,
      "velocity": 114,
      "chip": "ym2612"
    },
    {
      "channel": 4,
      "note": 93,
      "start": 24.2679,
      "duration": 1.8703,
      "velocity": 94,
      "chip": "ym2612"
    },
    {
      "channel": 0,
      "note": 107,
      "start": 24.3828,
      "duration": 0.066,
      "velocity": 93,
      "chip": "ym2612"
    },
    {
      "channel": 1,
      "note": 112,
      "start": 24.3833,
      "duration": 0.0656,
      "velocity": 93,
      "chip": "ym2612"
    },
    {
      "channel": 2,
      "note": 69,
      "start": 24.3839,
      "duration": 0.0652,
      "velocity": 114,
      "chip": "ym2612"
    },
    {
      "channel": 0,
      "note": 107,
      "start": 24.4995,
      "duration": 0.0658,
      "velocity": 93,
      "chip": "ym2612"
    },
    {
      "channel": 1,
      "note": 107,
      "start": 24.5001,
      "duration": 0.0655,
      "velocity": 93,
      "chip": "ym2612"
    },
    {
      "channel": 2,
      "note": 69,
      "start": 24.5006,
      "duration": 0.0651,
      "velocity": 114,
      "chip": "ym2612"
    },
    {
      "channel": 5,
      "note": 93,
      "start": 24.5016,
      "duration": 1.8666,
      "velocity": 94,
      "chip": "ym2612"
    },
    {
      "channel": 0,
      "note": 100,
      "start": 24.6161,
      "duration": 0.066,
      "velocity": 93,
      "chip": "ym2612"
    },
    {
      "channel": 1,
      "note": 107,
      "start": 24.6166,
      "duration": 0.0656,
      "velocity": 93,
      "chip": "ym2612"
    },
    {
      "channel": 2,
      "note": 69,
      "start": 24.6173,
      "duration": 0.0652,
      "velocity": 114,
      "chip": "ym2612"
    },
    {
      "channel": 0,
      "note": 108,
      "start": 24.7327,
      "duration": 0.066,
      "velocity": 93,
      "chip": "ym2612"
    },
    {
      "channel": 1,
      "note": 100,
      "start": 24.7332,
      "duration": 0.0657,
      "velocity": 93,
      "chip": "ym2612"
    },
    {
      "channel": 2,
      "note": 69,
      "start": 24.7339,
      "duration": 0.0653,
      "velocity": 114,
      "chip": "ym2612"
    },
    {
      "channel": 0,
      "note": 103,
      "start": 24.8493,
      "duration": 0.066,
      "velocity": 93,
      "chip": "ym2612"
    },
    {
      "channel": 1,
      "note": 108,
      "start": 24.8498,
      "duration": 0.0657,
      "velocity": 93,
      "chip": "ym2612"
    },
    {
      "channel": 0,
      "note": 103,
      "start": 24.9661,
      "duration": 0.0659,
      "velocity": 93,
      "chip": "ym2612"
    },
    {
      "channel": 1,
      "note": 103,
      "start": 24.9666,
      "duration": 0.0656,
      "velocity": 93,
      "chip": "ym2612"
    },
    {
      "channel": 2,
      "note": 69,
      "start": 24.9673,
      "duration": 0.0651,
      "velocity": 114,
      "chip": "ym2612"
    },
    {
      "channel": 0,
      "note": 96,
      "start": 25.0828,
      "duration": 0.0659,
      "velocity": 93,
      "chip": "ym2612"
    },
    {
      "channel": 1,
      "note": 103,
      "start": 25.0833,
      "duration": 0.0656,
      "velocity": 93,
      "chip": "ym2612"
    },
    {
      "channel": 2,
      "note": 69,
      "start": 25.0839,
      "duration": 0.0651,
      "velocity": 114,
      "chip": "ym2612"
    },
    {
      "channel": 0,
      "note": 104,
      "start": 25.1994,
      "duration": 0.0659,
      "velocity": 93,
      "chip": "ym2612"
    },
    {
      "channel": 1,
      "note": 96,
      "start": 25.2,
      "duration": 0.0656,
      "velocity": 93,
      "chip": "ym2612"
    },
    {
      "channel": 2,
      "note": 69,
      "start": 25.2006,
      "duration": 0.0651,
      "velocity": 114,
      "chip": "ym2612"
    },
    {
      "channel": 0,
      "note": 99,
      "start": 25.3161,
      "duration": 0.066,
      "velocity": 93,
      "chip": "ym2612"
    },
    {
      "channel": 1,
      "note": 104,
      "start": 25.3166,
      "duration": 0.0656,
      "velocity": 93,
      "chip": "ym2612"
    },
    {
      "channel": 2,
      "note": 69,
      "start": 25.3173,
      "duration": 0.0652,
      "velocity": 114,
      "chip": "ym2612"
    },
    {
      "channel": 0,
      "note": 99,
      "start": 25.4328,
      "duration": 0.066,
      "velocity": 93,
      "chip": "ym2612"
    },
    {
      "channel": 1,
      "note": 99,
      "start": 25.4333,
      "duration": 0.0656,
      "velocity": 93,
      "chip": "ym2612"
    },
    {
      "channel": 2,
      "note": 69,
      "start": 25.4339,
      "duration": 0.0652,
      "velocity": 114,
      "chip": "ym2612"
    },
    {
      "channel": 0,
      "note": 92,
      "start": 25.5494,
      "duration": 0.066,
      "velocity": 93,
      "chip": "ym2612"
    },
    {
      "channel": 1,
      "note": 99,
      "start": 25.55,
      "duration": 0.0656,
      "velocity": 93,
      "chip": "ym2612"
    },
    {
      "channel": 2,
      "note": 69,
      "start": 25.5506,
      "duration": 0.0652,
      "velocity": 114,
      "chip": "ym2612"
    },
    {
      "channel": 0,
      "note": 100,
      "start": 25.6661,
      "duration": 0.0659,
      "velocity": 93,
      "chip": "ym2612"
    },
    {
      "channel": 1,
      "note": 92,
      "start": 25.6666,
      "duration": 0.0656,
      "velocity": 93,
      "chip": "ym2612"
    },
    {
      "channel": 2,
      "note": 69,
      "start": 25.6673,
      "duration": 0.0651,
      "velocity": 114,
      "chip": "ym2612"
    },
    {
      "channel": 0,
      "note": 95,
      "start": 25.7827,
      "duration": 0.066,
      "velocity": 93,
      "chip": "ym2612"
    },
    {
      "channel": 1,
      "note": 100,
      "start": 25.7832,
      "duration": 0.0657,
      "velocity": 93,
      "chip": "ym2612"
    },
    {
      "channel": 2,
      "note": 69,
      "start": 25.7839,
      "duration": 0.0653,
      "velocity": 114,
      "chip": "ym2612"
    },
    {
      "channel": 0,
      "note": 95,
      "start": 25.8994,
      "duration": 0.066,
      "velocity": 93,
      "chip": "ym2612"
    },
    {
      "channel": 1,
      "note": 95,
      "start": 25.9,
      "duration": 0.0656,
      "velocity": 93,
      "chip": "ym2612"
    },
    {
      "channel": 2,
      "note": 69,
      "start": 25.9035,
      "duration": 0.0623,
      "velocity": 114,
      "chip": "ym2612"
    },
    {
      "channel": 0,
      "note": 88,
      "start": 26.0161,
      "duration": 0.066,
      "velocity": 93,
      "chip": "ym2612"
    },
    {
      "channel": 1,
      "note": 95,
      "start": 26.0167,
      "duration": 0.0656,
      "velocity": 93,
      "chip": "ym2612"
    },
    {
      "channel": 2,
      "note": 69,
      "start": 26.0202,
      "duration": 0.0622,
      "velocity": 114,
      "chip": "ym2612"
    },
    {
      "channel": 0,
      "note": 87,
      "start": 26.1329,
      "duration": 0.0657,
      "velocity": 93,
      "chip": "ym2612"
    },
    {
      "channel": 1,
      "note": 90,
      "start": 26.1335,
      "duration": 0.0653,
      "velocity": 93,
      "chip": "ym2612"
    },
    {
      "channel": 2,
      "note": 69,
      "start": 26.1371,
      "duration": 0.062,
      "velocity": 114,
      "chip": "ym2612"
    },
    {
      "channel": 3,
      "note": 39,
      "start": 26.1377,
      "duration": 3.7361,
      "velocity": 28,
      "chip": "ym2612"
    },
    {
      "channel": 4,
      "note": 92,
      "start": 26.1382,
      "duration": 1.866,
      "velocity": 94,
      "chip": "ym2612"
    },
    {
      "channel": 0,
      "note": 87,
      "start": 26.2495,
      "duration": 0.0659,
      "velocity": 93,
      "chip": "ym2612"
    },
    {
      "channel": 1,
      "note": 90,
      "start": 26.25,
      "duration": 0.0656,
      "velocity": 93,
      "chip": "ym2612"
    },
    {
      "channel": 2,
      "note": 69,
      "start": 26.2536,
      "duration": 0.0622,
      "velocity": 114,
      "chip": "ym2612"
    },
    {
      "channel": 0,
      "note": 82,
      "start": 26.3662,
      "duration": 0.0658,
      "velocity": 93,
      "chip": "ym2612"
    },
    {
      "channel": 1,
      "note": 87,
      "start": 26.3667,
      "duration": 0.0655,
      "velocity": 93,
      "chip": "ym2612"
    },
    {
      "channel": 2,
      "note": 69,
      "start": 26.3673,
      "duration": 0.0651,
      "velocity": 114,
      "chip": "ym2612"
    },
    {
      "channel": 5,
      "note": 92,
      "start": 26.3682,
      "duration": 1.7529,
      "velocity": 94,
      "chip": "ym2612"
    },
    {
      "channel": 0,
      "note": 82,
      "start": 26.4828,
      "duration": 0.066,
      "velocity": 93,
      "chip": "ym2612"
    },
    {
      "channel": 1,
      "note": 87,
      "start": 26.4833,
      "duration": 0.0656,
      "velocity": 93,
      "chip": "ym2612"
    },
    {
      "channel": 2,
      "note": 69,
      "start": 26.4839,
      "duration": 0.0652,
      "velocity": 114,
      "chip": "ym2612"
    },
    {
      "channel": 0,
      "note": 82,
      "start": 26.5994,
      "duration": 0.0659,
      "velocity": 93,
      "chip": "ym2612"
    },
    {
      "channel": 1,
      "note": 85,
      "start": 26.6,
      "duration": 0.0656,
      "velocity": 93,
      "chip": "ym2612"
    },
    {
      "channel": 2,
      "note": 69,
      "start": 26.6006,
      "duration": 0.0651,
      "velocity": 114,
      "chip": "ym2612"
    },
    {
      "channel": 0,
      "note": 82,
      "start": 26.716,
      "duration": 0.066,
      "velocity": 93,
      "chip": "ym2612"
    },
    {
      "channel": 1,
      "note": 85,
      "start": 26.7166,
      "duration": 0.0656,
      "velocity": 93,
      "chip": "ym2612"
    },
    {
      "channel": 0,
      "note": 75,
      "start": 26.8328,
      "duration": 0.0659,
      "velocity": 93,
      "chip": "ym2612"
    },
    {
      "channel": 1,
      "note": 82,
      "start": 26.8333,
      "duration": 0.0656,
      "velocity": 93,
      "chip": "ym2612"
    },
    {
      "channel": 2,
      "note": 69,
      "start": 26.8339,
      "duration": 0.0651,
      "velocity": 114,
      "chip": "ym2612"
    },
    {
      "channel": 0,
      "note": 75,
      "start": 26.9494,
      "duration": 0.066,
      "velocity": 93,
      "chip": "ym2612"
    },
    {
      "channel": 1,
      "note": 82,
      "start": 26.95,
      "duration": 0.0656,
      "velocity": 93,
      "chip": "ym2612"
    },
    {
      "channel": 2,
      "note": 69,
      "start": 26.9506,
      "duration": 0.0652,
      "velocity": 114,
      "chip": "ym2612"
    },
    {
      "channel": 0,
      "note": 82,
      "start": 27.0661,
      "duration": 0.0659,
      "velocity": 93,
      "chip": "ym2612"
    },
    {
      "channel": 1,
      "note": 85,
      "start": 27.0666,
      "duration": 0.0656,
      "velocity": 93,
      "chip": "ym2612"
    },
    {
      "channel": 2,
      "note": 69,
      "start": 27.0673,
      "duration": 0.0651,
      "velocity": 114,
      "chip": "ym2612"
    },
    {
      "channel": 0,
      "note": 82,
      "start": 27.1826,
      "duration": 0.066,
      "velocity": 93,
      "chip": "ym2612"
    },
    {
      "channel": 1,
      "note": 85,
      "start": 27.1832,
      "duration": 0.0656,
      "velocity": 93,
      "chip": "ym2612"
    },
    {
      "channel": 0,
      "note": 75,
      "start": 27.2994,
      "duration": 0.0659,
      "velocity": 93,
      "chip": "ym2612"
    },
    {
      "channel": 1,
      "note": 82,
      "start": 27.3,
      "duration": 0.0656,
      "velocity": 93,
      "chip": "ym2612"
    },
    {
      "channel": 2,
      "note": 69,
      "start": 27.3006,
      "duration": 0.0651,
      "velocity": 114,
      "chip": "ym2612"
    },
    {
      "channel": 0,
      "note": 75,
      "start": 27.4161,
      "duration": 0.066,
      "velocity": 93,
      "chip": "ym2612"
    },
    {
      "channel": 1,
      "note": 82,
      "start": 27.4166,
      "duration": 0.0656,
      "velocity": 93,
      "chip": "ym2612"
    },
    {
      "channel": 2,
      "note": 69,
      "start": 27.4173,
      "duration": 0.0652,
      "velocity": 114,
      "chip": "ym2612"
    },
    {
      "channel": 0,
      "note": 75,
      "start": 27.5328,
      "duration": 0.0659,
      "velocity": 93,
      "chip": "ym2612"
    },
    {
      "channel": 1,
      "note": 78,
      "start": 27.5333,
      "duration": 0.0656,
      "velocity": 93,
      "chip": "ym2612"
    },
    {
      "channel": 2,
      "note": 69,
      "start": 27.5339,
      "duration": 0.0651,
      "velocity": 114,
      "chip": "ym2612"
    },
    {
      "channel": 0,
      "note": 75,
      "start": 27.6495,
      "duration": 0.0659,
      "velocity": 93,
      "chip": "ym2612"
    },
    {
      "channel": 1,
      "note": 78,
      "start": 27.65,
      "duration": 0.0656,
      "velocity": 93,
      "chip": "ym2612"
    },
    {
      "channel": 2,
      "note": 69,
      "start": 27.6506,
      "duration": 0.0651,
      "velocity": 114,
      "chip": "ym2612"
    },
    {
      "channel": 0,
      "note": 70,
      "start": 27.7661,
      "duration": 0.0659,
      "velocity": 93,
      "chip": "ym2612"
    },
    {
      "channel": 1,
      "note": 75,
      "start": 27.7667,
      "duration": 0.0655,
      "velocity": 93,
      "chip": "ym2612"
    },
    {
      "channel": 2,
      "note": 69,
      "start": 27.7702,
      "duration": 0.0622,
      "velocity": 114,
      "chip": "ym2612"
    },
    {
      "channel": 0,
      "note": 70,
      "start": 27.8828,
      "duration": 0.0658,
      "velocity": 93,
      "chip": "ym2612"
    },
    {
      "channel": 1,
      "note": 75,
      "start": 27.8833,
      "duration": 0.0655,
      "velocity": 93,
      "chip": "ym2612"
    },
    {
      "channel": 2,
      "note": 69,
      "start": 27.8869,
      "duration": 0.0622,
      "velocity": 114,
      "chip": "ym2612"
    },
    {
      "channel": 0,
      "note": 75,
      "start": 27.9995,
      "duration": 0.0659,
      "velocity": 93,
      "chip": "ym2612"
    },
    {
      "channel": 1,
      "note": 78,
      "start": 28.0,
      "duration": 0.0656,
      "velocity": 93,
      "chip": "ym2612"
    },
    {
      "channel": 2,
      "note": 69,
      "start": 28.0036,
      "duration": 0.0622,
      "velocity": 114,
      "chip": "ym2612"
    },
    {
      "channel": 4,
      "note": 90,
      "start": 28.0042,
      "duration": 0.4633,
      "velocity": 94,
      "chip": "ym2612"
    },
    {
      "channel": 0,
      "note": 75,
      "start": 28.1162,
      "duration": 0.0658,
      "velocity": 93,
      "chip": "ym2612"
    },
    {
      "channel": 1,
      "note": 78,
      "start": 28.1167,
      "duration": 0.0655,
      "velocity": 93,
      "chip": "ym2612"
    },
    {
      "channel": 2,
      "note": 69,
      "start": 28.1202,
      "duration": 0.0622,
      "velocity": 114,
      "chip": "ym2612"
    },
    {
      "channel": 5,
      "note": 90,
      "start": 28.1211,
      "duration": 0.58,
      "velocity": 94,
      "chip": "ym2612"
    },
    {
      "channel": 0,
      "note": 70,
      "start": 28.2328,
      "duration": 0.066,
      "velocity": 93,
      "chip": "ym2612"
    },
    {
      "channel": 1,
      "note": 75,
      "start": 28.2333,
      "duration": 0.0656,
      "velocity": 93,
      "chip": "ym2612"
    },
    {
      "channel": 2,
      "note": 69,
      "start": 28.2339,
      "duration": 0.0652,
      "velocity": 114,
      "chip": "ym2612"
    },
    {
      "channel": 0,
      "note": 70,
      "start": 28.3494,
      "duration": 0.0659,
      "velocity": 93,
      "chip": "ym2612"
    },
    {
      "channel": 1,
      "note": 75,
      "start": 28.35,
      "duration": 0.0656,
      "velocity": 93,
      "chip": "ym2612"
    },
    {
      "channel": 2,
      "note": 69,
      "start": 28.3506,
      "duration": 0.0651,
      "velocity": 114,
      "chip": "ym2612"
    },
    {
      "channel": 0,
      "note": 70,
      "start": 28.4661,
      "duration": 0.0659,
      "velocity": 93,
      "chip": "ym2612"
    },
    {
      "channel": 1,
      "note": 73,
      "start": 28.4666,
      "duration": 0.0656,
      "velocity": 93,
      "chip": "ym2612"
    },
    {
      "channel": 2,
      "note": 69,
      "start": 28.4673,
      "duration": 0.0651,
      "velocity": 114,
      "chip": "ym2612"
    },
    {
      "channel": 0,
      "note": 70,
      "start": 28.5826,
      "duration": 0.0661,
      "velocity": 93,
      "chip": "ym2612"
    },
    {
      "channel": 1,
      "note": 73,
      "start": 28.5832,
      "duration": 0.0657,
      "velocity": 93,
      "chip": "ym2612"
    },
    {
      "channel": 0,
      "note": 63,
      "start": 28.6994,
      "duration": 0.0659,
      "velocity": 93,
      "chip": "ym2612"
    },
    {
      "channel": 1,
      "note": 70,
      "start": 28.7,
      "duration": 0.0656,
      "velocity": 93,
      "chip": "ym2612"
    },
    {
      "channel": 2,
      "note": 69,
      "start": 28.7006,
      "duration": 0.0651,
      "velocity": 114,
      "chip": "ym2612"
    },
    {
      "channel": 0,
      "note": 63,
      "start": 28.816,
      "duration": 0.066,
      "velocity": 93,
      "chip": "ym2612"
    },
    {
      "channel": 1,
      "note": 70,
      "start": 28.8166,
      "duration": 0.0656,
      "velocity": 93,
      "chip": "ym2612"
    },
    {
      "channel": 2,
      "note": 69,
      "start": 28.8173,
      "duration": 0.0651,
      "velocity": 114,
      "chip": "ym2612"
    },
    {
      "channel": 0,
      "note": 70,
      "start": 28.9328,
      "duration": 0.066,
      "velocity": 93,
      "chip": "ym2612"
    },
    {
      "channel": 1,
      "note": 73,
      "start": 28.9333,
      "duration": 0.0656,
      "velocity": 93,
      "chip": "ym2612"
    },
    {
      "channel": 2,
      "note": 69,
      "start": 28.9339,
      "duration": 0.0652,
      "velocity": 114,
      "chip": "ym2612"
    },
    {
      "channel": 0,
      "note": 70,
      "start": 29.0494,
      "duration": 0.066,
      "velocity": 93,
      "chip": "ym2612"
    },
    {
      "channel": 1,
      "note": 73,
      "start": 29.05,
      "duration": 0.0656,
      "velocity": 93,
      "chip": "ym2612"
    },
    {
      "channel": 2,
      "note": 69,
      "start": 29.0506,
      "duration": 0.0652,
      "velocity": 114,
      "chip": "ym2612"
    },
    {
      "channel": 0,
      "note": 63,
      "start": 29.1661,
      "duration": 0.066,
      "velocity": 93,
      "chip": "ym2612"
    },
    {
      "channel": 1,
      "note": 70,
      "start": 29.1666,
      "duration": 0.0656,
      "velocity": 93,
      "chip": "ym2612"
    },
    {
      "channel": 2,
      "note": 69,
      "start": 29.1673,
      "duration": 0.0652,
      "velocity": 114,
      "chip": "ym2612"
    },
    {
      "channel": 0,
      "note": 63,
      "start": 29.2828,
      "duration": 0.066,
      "velocity": 93,
      "chip": "ym2612"
    },
    {
      "channel": 1,
      "note": 70,
      "start": 29.2833,
      "duration": 0.0656,
      "velocity": 93,
      "chip": "ym2612"
    },
    {
      "channel": 2,
      "note": 69,
      "start": 29.2839,
      "duration": 0.0652,
      "velocity": 114,
      "chip": "ym2612"
    },
    {
      "channel": 0,
      "note": 63,
      "start": 29.3994,
      "duration": 0.066,
      "velocity": 93,
      "chip": "ym2612"
    },
    {
      "channel": 1,
      "note": 66,
      "start": 29.4,
      "duration": 0.0656,
      "velocity": 93,
      "chip": "ym2612"
    },
    {
      "channel": 2,
      "note": 69,
      "start": 29.4006,
      "duration": 0.0652,
      "velocity": 114,
      "chip": "ym2612"
    },
    {
      "channel": 0,
      "note": 63,
      "start": 29.516,
      "duration": 0.066,
      "velocity": 93,
      "chip": "ym2612"
    },
    {
      "channel": 1,
      "note": 66,
      "start": 29.5166,
      "duration": 0.0657,
      "velocity": 93,
      "chip": "ym2612"
    },
    {
      "channel": 2,
      "note": 69,
      "start": 29.5172,
      "duration": 0.0653,
      "velocity": 114,
      "chip": "ym2612"
    },
    {
      "channel": 0,
      "note": 58,
      "start": 29.6328,
      "duration": 0.0659,
      "velocity": 93,
      "chip": "ym2612"
    },
    {
      "channel": 1,
      "note": 63,
      "start": 29.6333,
      "duration": 0.0656,
      "velocity": 93,
      "chip": "ym2612"
    },
    {
      "channel": 2,
      "note": 69,
      "start": 29.6368,
      "duration": 0.0622,
      "velocity": 114,
      "chip": "ym2612"
    },
    {
      "channel": 0,
      "note": 58,
      "start": 29.7494,
      "duration": 0.0826,
      "velocity": 93,
      "chip": "ym2612"
    },
    {
      "channel": 1,
      "note": 63,
      "start": 29.75,
      "duration": 0.0822,
      "velocity": 93,
      "chip": "ym2612"
    },
    {
      "channel": 2,
      "note": 69,
      "start": 29.7536,
      "duration": 0.062,
      "velocity": 114,
      "chip": "ym2612"
    },
    {
      "channel": 0,
      "note": 29,
      "start": 29.8695,
      "duration": 0.0624,
      "velocity": 74,
      "chip": "ym2612"
    },
    {
      "channel": 2,
      "note": 69,
      "start": 29.8732,
      "duration": 0.0592,
      "velocity": 114,
      "chip": "ym2612"
    },
    {
      "channel": 3,
      "note": 40,
      "start": 29.8738,
      "duration": 3.733,
      "velocity": 28,
      "chip": "ym2612"
    },
    {
      "channel": 4,
      "note": 98,
      "start": 29.8773,
      "duration": 2.1554,
      "velocity": 94,
      "chip": "ym2612"
    },
    {
      "channel": 0,
      "note": 47,
      "start": 29.9857,
      "duration": 0.063,
      "velocity": 74,
      "chip": "ym2612"
    },
    {
      "channel": 2,
      "note": 69,
      "start": 29.9893,
      "duration": 0.0596,
      "velocity": 114,
      "chip": "ym2612"
    },
    {
      "channel": 0,
      "note": 29,
      "start": 30.1027,
      "duration": 0.0626,
      "velocity": 74,
      "chip": "ym2612"
    },
    {
      "channel": 1,
      "note": 36,
      "start": 30.1063,
      "duration": 0.0592,
      "velocity": 74,
      "chip": "ym2612"
    },
    {
      "channel": 2,
      "note": 69,
      "start": 30.1069,
      "duration": 0.0588,
      "velocity": 114,
      "chip": "ym2612"
    },
    {
      "channel": 5,
      "note": 98,
      "start": 30.1107,
      "duration": 2.1554,
      "velocity": 94,
      "chip": "ym2612"
    },
    {
      "channel": 0,
      "note": 47,
      "start": 30.2191,
      "duration": 0.0629,
      "velocity": 74,
      "chip": "ym2612"
    },
    {
      "channel": 2,
      "note": 69,
      "start": 30.2198,
      "duration": 0.0625,
      "velocity": 114,
      "chip": "ym2612"
    },
    {
      "channel": 0,
      "note": 29,
      "start": 30.3358,
      "duration": 0.0629,
      "velocity": 74,
      "chip": "ym2612"
    },
    {
      "channel": 2,
      "note": 69,
      "start": 30.3365,
      "duration": 0.0625,
      "velocity": 114,
      "chip": "ym2612"
    },
    {
      "channel": 0,
      "note": 47,
      "start": 30.4522,
      "duration": 0.0631,
      "velocity": 74,
      "chip": "ym2612"
    },
    {
      "channel": 0,
      "note": 29,
      "start": 30.5691,
      "duration": 0.0629,
      "velocity": 74,
      "chip": "ym2612"
    },
    {
      "channel": 2,
      "note": 69,
      "start": 30.5698,
      "duration": 0.0625,
      "velocity": 114,
      "chip": "ym2612"
    },
    {
      "channel": 0,
      "note": 47,
      "start": 30.6857,
      "duration": 0.063,
      "velocity": 74,
      "chip": "ym2612"
    },
    {
      "channel": 2,
      "note": 69,
      "start": 30.6864,
      "duration": 0.0625,
      "velocity": 114,
      "chip": "ym2612"
    },
    {
      "channel": 0,
      "note": 29,
      "start": 30.8024,
      "duration": 0.063,
      "velocity": 74,
      "chip": "ym2612"
    },
    {
      "channel": 2,
      "note": 69,
      "start": 30.8031,
      "duration": 0.0625,
      "velocity": 114,
      "chip": "ym2612"
    },
    {
      "channel": 0,
      "note": 47,
      "start": 30.9189,
      "duration": 0.0631,
      "velocity": 74,
      "chip": "ym2612"
    },
    {
      "channel": 0,
      "note": 29,
      "start": 31.0358,
      "duration": 0.0629,
      "velocity": 74,
      "chip": "ym2612"
    },
    {
      "channel": 2,
      "note": 69,
      "start": 31.0365,
      "duration": 0.0625,
      "velocity": 114,
      "chip": "ym2612"
    },
    {
      "channel": 0,
      "note": 47,
      "start": 31.1524,
      "duration": 0.063,
      "velocity": 74,
      "chip": "ym2612"
    },
    {
      "channel": 2,
      "note": 69,
      "start": 31.1531,
      "duration": 0.0626,
      "velocity": 114,
      "chip": "ym2612"
    },
    {
      "channel": 0,
      "note": 29,
      "start": 31.269,
      "duration": 0.063,
      "velocity": 74,
      "chip": "ym2612"
    },
    {
      "channel": 2,
      "note": 69,
      "start": 31.2697,
      "duration": 0.0626,
      "velocity": 114,
      "chip": "ym2612"
    },
    {
      "channel": 0,
      "note": 47,
      "start": 31.3858,
      "duration": 0.0629,
      "velocity": 74,
      "chip": "ym2612"
    },
    {
      "channel": 1,
      "note": 36,
      "start": 31.3864,
      "duration": 0.0625,
      "velocity": 74,
      "chip": "ym2612"
    },
    {
      "channel": 2,
      "note": 69,
      "start": 31.387,
      "duration": 0.0621,
      "velocity": 114,
      "chip": "ym2612"
    },
    {
      "channel": 0,
      "note": 29,
      "start": 31.5024,
      "duration": 0.063,
      "velocity": 74,
      "chip": "ym2612"
    },
    {
      "channel": 2,
      "note": 69,
      "start": 31.5031,
      "duration": 0.0626,
      "velocity": 114,
      "chip": "ym2612"
    },
    {
      "channel": 0,
      "note": 47,
      "start": 31.619,
      "duration": 0.063,
      "velocity": 74,
      "chip": "ym2612"
    },
    {
      "channel": 2,
      "note": 69,
      "start": 31.6197,
      "duration": 0.0626,
      "velocity": 114,
      "chip": "ym2612"
    },
    {
      "channel": 0,
      "note": 29,
      "start": 31.7358,
      "duration": 0.063,
      "velocity": 74,
      "chip": "ym2612"
    },
    {
      "channel": 1,
      "note": 36,
      "start": 31.7364,
      "duration": 0.0625,
      "velocity": 74,
      "chip": "ym2612"
    },
    {
      "channel": 2,
      "note": 69,
      "start": 31.737,
      "duration": 0.0622,
      "velocity": 114,
      "chip": "ym2612"
    },
    {
      "channel": 0,
      "note": 47,
      "start": 31.8524,
      "duration": 0.0629,
      "velocity": 74,
      "chip": "ym2612"
    },
    {
      "channel": 2,
      "note": 69,
      "start": 31.8531,
      "duration": 0.0625,
      "velocity": 114,
      "chip": "ym2612"
    },
    {
      "channel": 0,
      "note": 29,
      "start": 31.9692,
      "duration": 0.0629,
      "velocity": 74,
      "chip": "ym2612"
    },
    {
      "channel": 1,
      "note": 36,
      "start": 31.9697,
      "duration": 0.0625,
      "velocity": 74,
      "chip": "ym2612"
    },
    {
      "channel": 2,
      "note": 69,
      "start": 31.9704,
      "duration": 0.0621,
      "velocity": 114,
      "chip": "ym2612"
    },
    {
      "channel": 0,
      "note": 47,
      "start": 32.0858,
      "duration": 0.0629,
      "velocity": 74,
      "chip": "ym2612"
    },
    {
      "channel": 2,
      "note": 69,
      "start": 32.0865,
      "duration": 0.0625,
      "velocity": 114,
      "chip": "ym2612"
    },
    {
      "channel": 0,
      "note": 29,
      "start": 32.2024,
      "duration": 0.063,
      "velocity": 74,
      "chip": "ym2612"
    },
    {
      "channel": 2,
      "note": 69,
      "start": 32.2031,
      "duration": 0.0625,
      "velocity": 114,
      "chip": "ym2612"
    },
    {
      "channel": 0,
      "note": 47,
      "start": 32.3189,
      "duration": 0.0632,
      "velocity": 74,
      "chip": "ym2612"
    },
    {
      "channel": 0,
      "note": 29,
      "start": 32.4358,
      "duration": 0.0629,
      "velocity": 74,
      "chip": "ym2612"
    },
    {
      "channel": 2,
      "note": 69,
      "start": 32.4365,
      "duration": 0.0625,
      "velocity": 114,
      "chip": "ym2612"
    },
    {
      "channel": 0,
      "note": 47,
      "start": 32.5524,
      "duration": 0.0629,
      "velocity": 74,
      "chip": "ym2612"
    },
    {
      "channel": 2,
      "note": 69,
      "start": 32.5531,
      "duration": 0.0625,
      "velocity": 114,
      "chip": "ym2612"
    },
    {
      "channel": 0,
      "note": 29,
      "start": 32.6692,
      "duration": 0.0628,
      "velocity": 74,
      "chip": "ym2612"
    },
    {
      "channel": 1,
      "note": 36,
      "start": 32.6697,
      "duration": 0.0625,
      "velocity": 74,
      "chip": "ym2612"
    },
    {
      "channel": 2,
      "note": 69,
      "start": 32.6704,
      "duration": 0.062,
      "velocity": 114,
      "chip": "ym2612"
    },
    {
      "channel": 0,
      "note": 47,
      "start": 32.7858,
      "duration": 0.0629,
      "velocity": 74,
      "chip": "ym2612"
    },
    {
      "channel": 2,
      "note": 69,
      "start": 32.7865,
      "duration": 0.0625,
      "velocity": 114,
      "chip": "ym2612"
    },
    {
      "channel": 0,
      "note": 29,
      "start": 32.9024,
      "duration": 0.063,
      "velocity": 74,
      "chip": "ym2612"
    },
    {
      "channel": 2,
      "note": 69,
      "start": 32.9031,
      "duration": 0.0625,
      "velocity": 114,
      "chip": "ym2612"
    },
    {
      "channel": 0,
      "note": 47,
      "start": 33.0192,
      "duration": 0.0629,
      "velocity": 74,
      "chip": "ym2612"
    },
    {
      "channel": 1,
      "note": 36,
      "start": 33.0197,
      "duration": 0.0625,
      "velocity": 74,
      "chip": "ym2612"
    },
    {
      "channel": 2,
      "note": 69,
      "start": 33.0204,
      "duration": 0.0621,
      "velocity": 114,
      "chip": "ym2612"
    },
    {
      "channel": 0,
      "note": 29,
      "start": 33.1357,
      "duration": 0.063,
      "velocity": 74,
      "chip": "ym2612"
    },
    {
      "channel": 2,
      "note": 69,
      "start": 33.1364,
      "duration": 0.0626,
      "velocity": 114,
      "chip": "ym2612"
    },
    {
      "channel": 0,
      "note": 47,
      "start": 33.2523,
      "duration": 0.063,
      "velocity": 74,
      "chip": "ym2612"
    },
    {
      "channel": 2,
      "note": 69,
      "start": 33.253,
      "duration": 0.0626,
      "velocity": 114,
      "chip": "ym2612"
    },
    {
      "channel": 0,
      "note": 29,
      "start": 33.3691,
      "duration": 0.063,
      "velocity": 74,
      "chip": "ym2612"
    },
    {
      "channel": 2,
      "note": 69,
      "start": 33.3727,
      "duration": 0.0596,
      "velocity": 114,
      "chip": "ym2612"
    },
    {
      "channel": 0,
      "note": 47,
      "start": 33.4857,
      "duration": 0.063,
      "velocity": 74,
      "chip": "ym2612"
    },
    {
      "channel": 2,
      "note": 69,
      "start": 33.4894,
      "duration": 0.0595,
      "velocity": 114,
      "chip": "ym2612"
    },
    {
      "channel": 0,
      "note": 28,
      "start": 33.6026,
      "duration": 0.0628,
      "velocity": 74,
      "chip": "ym2612"
    },
    {
      "channel": 2,
      "note": 69,
      "start": 33.6062,
      "duration": 0.0594,
      "velocity": 114,
      "chip": "ym2612"
    },
    {
      "channel": 3,
      "note": 39,
      "start": 33.6068,
      "duration": 3.7333,
      "velocity": 28,
      "chip": "ym2612"
    },
    {
      "channel": 4,
      "note": 97,
      "start": 33.6074,
      "duration": 0.6964,
      "velocity": 94,
      "chip": "ym2612"
    },
    {
      "channel": 0,
      "note": 46,
      "start": 33.719,
      "duration": 0.063,
      "velocity": 74,
      "chip": "ym2612"
    },
    {
      "channel": 2,
      "note": 69,
      "start": 33.7227,
      "duration": 0.0597,
      "velocity": 114,
      "chip": "ym2612"
    },
    {
      "channel": 0,
      "note": 28,
      "start": 33.8358,
      "duration": 0.0629,
      "velocity": 74,
      "chip": "ym2612"
    },
    {
      "channel": 1,
      "note": 35,
      "start": 33.8364,
      "duration": 0.0625,
      "velocity": 74,
      "chip": "ym2612"
    },
    {
      "channel": 2,
      "note": 69,
      "start": 33.837,
      "duration": 0.0621,
      "velocity": 114,
      "chip": "ym2612"
    },
    {
      "channel": 5,
      "note": 97,
      "start": 33.8379,
      "duration": 0.6994,
      "velocity": 94,
      "chip": "ym2612"
    },
    {
      "channel": 0,
      "note": 46,
      "start": 33.9524,
      "duration": 0.063,
      "velocity": 74,
      "chip": "ym2612"
    },
    {
      "channel": 2,
      "note": 69,
      "start": 33.9531,
      "duration": 0.0626,
      "velocity": 114,
      "chip": "ym2612"
    },
    {
      "channel": 0,
      "note": 28,
      "start": 34.069,
      "duration": 0.063,
      "velocity": 74,
      "chip": "ym2612"
    },
    {
      "channel": 2,
      "note": 69,
      "start": 34.0697,
      "duration": 0.0626,
      "velocity": 114,
      "chip": "ym2612"
    },
    {
      "channel": 0,
      "note": 46,
      "start": 34.1856,
      "duration": 0.0632,
      "velocity": 74,
      "chip": "ym2612"
    },
    {
      "channel": 0,
      "note": 28,
      "start": 34.3025,
      "duration": 0.0629,
      "velocity": 74,
      "chip": "ym2612"
    },
    {
      "channel": 2,
      "note": 69,
      "start": 34.3032,
      "duration": 0.0624,
      "velocity": 114,
      "chip": "ym2612"
    },
    {
      "channel": 4,
      "note": 94,
      "start": 34.3038,
      "duration": 0.6999,
      "velocity": 94,
      "chip": "ym2612"
    },
    {
      "channel": 0,
      "note": 46,
      "start": 34.419,
      "duration": 0.063,
      "velocity": 74,
      "chip": "ym2612"
    },
    {
      "channel": 2,
      "note": 69,
      "start": 34.4197,
      "duration": 0.0625,
      "velocity": 114,
      "chip": "ym2612"
    },
    {
      "channel": 0,
      "note": 28,
      "start": 34.5358,
      "duration": 0.0629,
      "velocity": 74,
      "chip": "ym2612"
    },
    {
      "channel": 2,
      "note": 69,
      "start": 34.5365,
      "duration": 0.0625,
      "velocity": 114,
      "chip": "ym2612"
    },
    {
      "channel": 5,
      "note": 94,
      "start": 34.5373,
      "duration": 0.703,
      "velocity": 94,
      "chip": "ym2612"
    },
    {
      "channel": 0,
      "note": 46,
      "start": 34.6522,
      "duration": 0.0631,
      "velocity": 74,
      "chip": "ym2612"
    },
    {
      "channel": 0,
      "note": 28,
      "start": 34.7691,
      "duration": 0.063,
      "velocity": 74,
      "chip": "ym2612"
    },
    {
      "channel": 2,
      "note": 69,
      "start": 34.7698,
      "duration": 0.0625,
      "velocity": 114,
      "chip": "ym2612"
    },
    {
      "channel": 0,
      "note": 46,
      "start": 34.8857,
      "duration": 0.063,
      "velocity": 74,
      "chip": "ym2612"
    },
    {
      "channel": 2,
      "note": 69,
      "start": 34.8864,
      "duration": 0.0625,
      "velocity": 114,
      "chip": "ym2612"
    },
    {
      "channel": 0,
      "note": 28,
      "start": 35.0024,
      "duration": 0.063,
      "velocity": 74,
      "chip": "ym2612"
    },
    {
      "channel": 2,
      "note": 69,
      "start": 35.0031,
      "duration": 0.0625,
      "velocity": 114,
      "chip": "ym2612"
    },
    {
      "channel": 4,
      "note": 93,
      "start": 35.0038,
      "duration": 0.4702,
      "velocity": 94,
      "chip": "ym2612"
    },
    {
      "channel": 0,
      "note": 46,
      "start": 35.1191,
      "duration": 0.0629,
      "velocity": 74,
      "chip": "ym2612"
    },
    {
      "channel": 1,
      "note": 35,
      "start": 35.1197,
      "duration": 0.0625,
      "velocity": 74,
      "chip": "ym2612"
    },
    {
      "channel": 2,
      "note": 69,
      "start": 35.1203,
      "duration": 0.0621,
      "velocity": 114,
      "chip": "ym2612"
    },
    {
      "channel": 0,
      "note": 28,
      "start": 35.2358,
      "duration": 0.0628,
      "velocity": 74,
      "chip": "ym2612"
    },
    {
      "channel": 2,
      "note": 69,
      "start": 35.2395,
      "duration": 0.0595,
      "velocity": 114,
      "chip": "ym2612"
    },
    {
      "channel": 5,
      "note": 93,
      "start": 35.2403,
      "duration": 0.4642,
      "velocity": 94,
      "chip": "ym2612"
    },
    {
      "channel": 0,
      "note": 46,
      "start": 35.3524,
      "duration": 0.063,
      "velocity": 74,
      "chip": "ym2612"
    },
    {
      "channel": 2,
      "note": 69,
      "start": 35.356,
      "duration": 0.0597,
      "velocity": 114,
      "chip": "ym2612"
    },
    {
      "channel": 0,
      "note": 28,
      "start": 35.4692,
      "duration": 0.0629,
      "velocity": 74,
      "chip": "ym2612"
    },
    {
      "channel": 1,
      "note": 35,
      "start": 35.4698,
      "duration": 0.0625,
      "velocity": 74,
      "chip": "ym2612"
    },
    {
      "channel": 2,
      "note": 69,
      "start": 35.4734,
      "duration": 0.0591,
      "velocity": 114,
      "chip": "ym2612"
    },
    {
      "channel": 4,
      "note": 90,
      "start": 35.474,
      "duration": 0.6964,
      "velocity": 94,
      "chip": "ym2612"
    },
    {
      "channel": 0,
      "note": 46,
      "start": 35.5858,
      "duration": 0.0629,
      "velocity": 74,
      "chip": "ym2612"
    },
    {
      "channel": 2,
      "note": 69,
      "start": 35.5895,
      "duration": 0.0595,
      "velocity": 114,
      "chip": "ym2612"
    },
    {
      "channel": 0,
      "note": 28,
      "start": 35.7025,
      "duration": 0.0629,
      "velocity": 74,
      "chip": "ym2612"
    },
    {
      "channel": 1,
      "note": 35,
      "start": 35.7031,
      "duration": 0.0625,
      "velocity": 74,
      "chip": "ym2612"
    },
    {
      "channel": 2,
      "note": 69,
      "start": 35.7037,
      "duration": 0.0621,
      "velocity": 114,
      "chip": "ym2612"
    },
    {
      "channel": 5,
      "note": 90,
      "start": 35.7046,
      "duration": 0.6999,
      "velocity": 94,
      "chip": "ym2612"
    },
    {
      "channel": 0,
      "note": 46,
      "start": 35.819,
      "duration": 0.063,
      "velocity": 74,
      "chip": "ym2612"
    },
    {
      "channel": 2,
      "note": 69,
      "start": 35.8197,
      "duration": 0.0625,
      "velocity": 114,
      "chip": "ym2612"
    },
    {
      "channel": 0,
      "note": 28,
      "start": 35.9357,
      "duration": 0.063,
      "velocity": 74,
      "chip": "ym2612"
    },
    {
      "channel": 2,
      "note": 69,
      "start": 35.9364,
      "duration": 0.0625,
      "velocity": 114,
      "chip": "ym2612"
    },
    {
      "channel": 0,
      "note": 46,
      "start": 36.0522,
      "duration": 0.0631,
      "velocity": 74,
      "chip": "ym2612"
    },
    {
      "channel": 0,
      "note": 28,
      "start": 36.1692,
      "duration": 0.0629,
      "velocity": 74,
      "chip": "ym2612"
    },
    {
      "channel": 2,
      "note": 69,
      "start": 36.1699,
      "duration": 0.0624,
      "velocity": 114,
      "chip": "ym2612"
    },
    {
      "channel": 4,
      "note": 87,
      "start": 36.1705,
      "duration": 0.6999,
      "velocity": 94,
      "chip": "ym2612"
    },
    {
      "channel": 0,
      "note": 46,
      "start": 36.2857,
      "duration": 0.063,
      "velocity": 74,
      "chip": "ym2612"
    },
    {
      "channel": 2,
      "note": 69,
      "start": 36.2864,
      "duration": 0.0626,
      "velocity": 114,
      "chip": "ym2612"
    },
    {
      "channel": 0,
      "note": 28,
      "start": 36.4026,
      "duration": 0.0628,
      "velocity": 74,
      "chip": "ym2612"
    },
    {
      "channel": 1,
      "note": 35,
      "start": 36.4031,
      "duration": 0.0624,
      "velocity": 74,
      "chip": "ym2612"
    },
    {
      "channel": 2,
      "note": 69,
      "start": 36.4038,
      "duration": 0.062,
      "velocity": 114,
      "chip": "ym2612"
    },
    {
      "channel": 5,
      "note": 87,
      "start": 36.4046,
      "duration": 0.7023,
      "velocity": 94,
      "chip": "ym2612"
    },
    {
      "channel": 0,
      "note": 46,
      "start": 36.519,
      "duration": 0.063,
      "velocity": 74,
      "chip": "ym2612"
    },
    {
      "channel": 2,
      "note": 69,
      "start": 36.5197,
      "duration": 0.0626,
      "velocity": 114,
      "chip": "ym2612"
    },
    {
      "channel": 0,
      "note": 28,
      "start": 36.6357,
      "duration": 0.063,
      "velocity": 74,
      "chip": "ym2612"
    },
    {
      "channel": 2,
      "note": 69,
      "start": 36.6364,
      "duration": 0.0625,
      "velocity": 114,
      "chip": "ym2612"
    },
    {
      "channel": 0,
      "note": 46,
      "start": 36.7525,
      "duration": 0.0629,
      "velocity": 74,
      "chip": "ym2612"
    },
    {
      "channel": 1,
      "note": 35,
      "start": 36.7531,
      "duration": 0.0625,
      "velocity": 74,
      "chip": "ym2612"
    },
    {
      "channel": 2,
      "note": 69,
      "start": 36.7537,
      "duration": 0.0621,
      "velocity": 114,
      "chip": "ym2612"
    },
    {
      "channel": 0,
      "note": 28,
      "start": 36.8691,
      "duration": 0.063,
      "velocity": 74,
      "chip": "ym2612"
    },
    {
      "channel": 2,
      "note": 69,
      "start": 36.8698,
      "duration": 0.0625,
      "velocity": 114,
      "chip": "ym2612"
    },
    {
      "channel": 4,
      "note": 86,
      "start": 36.8704,
      "duration": 0.4702,
      "velocity": 94,
      "chip": "ym2612"
    },
    {
      "channel": 0,
      "note": 46,
      "start": 36.9857,
      "duration": 0.063,
      "velocity": 74,
      "chip": "ym2612"
    },
    {
      "channel": 2,
      "note": 69,
      "start": 36.9864,
      "duration": 0.0625,
      "velocity": 114,
      "chip": "ym2612"
    },
    {
      "channel": 0,
      "note": 28,
      "start": 37.1024,
      "duration": 0.0629,
      "velocity": 74,
      "chip": "ym2612"
    },
    {
      "channel": 2,
      "note": 69,
      "start": 37.1061,
      "duration": 0.0596,
      "velocity": 114,
      "chip": "ym2612"
    },
    {
      "channel": 5,
      "note": 86,
      "start": 37.1069,
      "duration": 0.4644,
      "velocity": 94,
      "chip": "ym2612"
    },
    {
      "channel": 0,
      "note": 46,
      "start": 37.219,
      "duration": 0.063,
      "velocity": 74,
      "chip": "ym2612"
    },
    {
      "channel": 2,
      "note": 69,
      "start": 37.2227,
      "duration": 0.0595,
      "velocity": 114,
      "chip": "ym2612"
    },
    {
      "channel": 0,
      "note": 29,
      "start": 37.3359,
      "duration": 0.0628,
      "velocity": 74,
      "chip": "ym2612"
    },
    {
      "channel": 2,
      "note": 69,
      "start": 37.3396,
      "duration": 0.0594,
      "velocity": 114,
      "chip": "ym2612"
    },
    {
      "channel": 3,
      "note": 40,
      "start": 37.3401,
      "duration": 3.7333,
      "velocity": 28,
      "chip": "ym2612"
    },
    {
      "channel": 4,
      "note": 98,
      "start": 37.3407,
      "duration": 2.1586,
      "velocity": 94,
      "chip": "ym2612"
    },
    {
      "channel": 0,
      "note": 47,
      "start": 37.4524,
      "duration": 0.063,
      "velocity": 74,
      "chip": "ym2612"
    },
    {
      "channel": 2,
      "note": 69,
      "start": 37.456,
      "duration": 0.0597,
      "velocity": 114,
      "chip": "ym2612"
    },
    {
      "channel": 0,
      "note": 29,
      "start": 37.5692,
      "duration": 0.0628,
      "velocity": 74,
      "chip": "ym2612"
    },
    {
      "channel": 1,
      "note": 36,
      "start": 37.5698,
      "duration": 0.0625,
      "velocity": 74,
      "chip": "ym2612"
    },
    {
      "channel": 2,
      "note": 69,
      "start": 37.5704,
      "duration": 0.062,
      "velocity": 114,
      "chip": "ym2612"
    },
    {
      "channel": 5,
      "note": 98,
      "start": 37.5713,
      "duration": 2.1615,
      "velocity": 94,
      "chip": "ym2612"
    },
    {
      "channel": 0,
      "note": 47,
      "start": 37.6858,
      "duration": 0.0629,
      "velocity": 74,
      "chip": "ym2612"
    },
    {
      "channel": 2,
      "note": 69,
      "start": 37.6865,
      "duration": 0.0625,
      "velocity": 114,
      "chip": "ym2612"
    },
    {
      "channel": 0,
      "note": 29,
      "start": 37.8024,
      "duration": 0.063,
      "velocity": 74,
      "chip": "ym2612"
    },
    {
      "channel": 2,
      "note": 69,
      "start": 37.8031,
      "duration": 0.0625,
      "velocity": 114,
      "chip": "ym2612"
    },
    {
      "channel": 0,
      "note": 47,
      "start": 37.9189,
      "duration": 0.0631,
      "velocity": 74,
      "chip": "ym2612"
    },
    {
      "channel": 0,
      "note": 29,
      "start": 38.0357,
      "duration": 0.063,
      "velocity": 74,
      "chip": "ym2612"
    },
    {
      "channel": 2,
      "note": 69,
      "start": 38.0364,
      "duration": 0.0625,
      "velocity": 114,
      "chip": "ym2612"
    },
    {
      "channel": 0,
      "note": 47,
      "start": 38.1524,
      "duration": 0.063,
      "velocity": 74,
      "chip": "ym2612"
    },
    {
      "channel": 2,
      "note": 69,
      "start": 38.1531,
      "duration": 0.0625,
      "velocity": 114,
      "chip": "ym2612"
    },
    {
      "channel": 0,
      "note": 29,
      "start": 38.269,
      "duration": 0.063,
      "velocity": 74,
      "chip": "ym2612"
    },
    {
      "channel": 2,
      "note": 69,
      "start": 38.2697,
      "duration": 0.0625,
      "velocity": 114,
      "chip": "ym2612"
    },
    {
      "channel": 0,
      "note": 47,
      "start": 38.3856,
      "duration": 0.0631,
      "velocity": 74,
      "chip": "ym2612"
    },
    {
      "channel": 0,
      "note": 29,
      "start": 38.5024,
      "duration": 0.0629,
      "velocity": 74,
      "chip": "ym2612"
    },
    {
      "channel": 2,
      "note": 69,
      "start": 38.5031,
      "duration": 0.0625,
      "velocity": 114,
      "chip": "ym2612"
    },
    {
      "channel": 0,
      "note": 47,
      "start": 38.619,
      "duration": 0.063,
      "velocity": 74,
      "chip": "ym2612"
    },
    {
      "channel": 2,
      "note": 69,
      "start": 38.6197,
      "duration": 0.0626,
      "velocity": 114,
      "chip": "ym2612"
    },
    {
      "channel": 0,
      "note": 29,
      "start": 38.7357,
      "duration": 0.063,
      "velocity": 74,
      "chip": "ym2612"
    },
    {
      "channel": 2,
      "note": 69,
      "start": 38.7364,
      "duration": 0.0626,
      "velocity": 114,
      "chip": "ym2612"
    },
    {
      "channel": 0,
      "note": 47,
      "start": 38.8525,
      "duration": 0.0629,
      "velocity": 74,
      "chip": "ym2612"
    },
    {
      "channel": 1,
      "note": 36,
      "start": 38.8531,
      "duration": 0.0625,
      "velocity": 74,
      "chip": "ym2612"
    },
    {
      "channel": 2,
      "note": 69,
      "start": 38.8537,
      "duration": 0.0621,
      "velocity": 114,
      "chip": "ym2612"
    },
    {
      "channel": 0,
      "note": 29,
      "start": 38.969,
      "duration": 0.063,
      "velocity": 74,
      "chip": "ym2612"
    },
    {
      "channel": 2,
      "note": 69,
      "start": 38.9697,
      "duration": 0.0626,
      "velocity": 114,
      "chip": "ym2612"
    },
    {
      "channel": 0,
      "note": 47,
      "start": 39.0857,
      "duration": 0.063,
      "velocity": 74,
      "chip": "ym2612"
    },
    {
      "channel": 2,
      "note": 69,
      "start": 39.0864,
      "duration": 0.0625,
      "velocity": 114,
      "chip": "ym2612"
    },
    {
      "channel": 0,
      "note": 29,
      "start": 39.2025,
      "duration": 0.0628,
      "velocity": 74,
      "chip": "ym2612"
    },
    {
      "channel": 1,
      "note": 36,
      "start": 39.2031,
      "duration": 0.0625,
      "velocity": 74,
      "chip": "ym2612"
    },
    {
      "channel": 2,
      "note": 69,
      "start": 39.2037,
      "duration": 0.062,
      "velocity": 114,
      "chip": "ym2612"
    },
    {
      "channel": 0,
      "note": 47,
      "start": 39.3191,
      "duration": 0.0629,
      "velocity": 74,
      "chip": "ym2612"
    },
    {
      "channel": 2,
      "note": 69,
      "start": 39.3198,
      "duration": 0.0625,
      "velocity": 114,
      "chip": "ym2612"
    },
    {
      "channel": 0,
      "note": 29,
      "start": 39.4358,
      "duration": 0.0628,
      "velocity": 74,
      "chip": "ym2612"
    },
    {
      "channel": 1,
      "note": 36,
      "start": 39.4364,
      "duration": 0.0625,
      "velocity": 74,
      "chip": "ym2612"
    },
    {
      "channel": 2,
      "note": 69,
      "start": 39.437,
      "duration": 0.062,
      "velocity": 114,
      "chip": "ym2612"
    },
    {
      "channel": 0,
      "note": 47,
      "start": 39.5524,
      "duration": 0.0629,
      "velocity": 74,
      "chip": "ym2612"
    },
    {
      "channel": 2,
      "note": 69,
      "start": 39.5531,
      "duration": 0.0625,
      "velocity": 114,
      "chip": "ym2612"
    },
    {
      "channel": 0,
      "note": 29,
      "start": 39.669,
      "duration": 0.063,
      "velocity": 74,
      "chip": "ym2612"
    },
    {
      "channel": 2,
      "note": 69,
      "start": 39.6697,
      "duration": 0.0625,
      "velocity": 114,
      "chip": "ym2612"
    },
    {
      "channel": 0,
      "note": 47,
      "start": 39.7856,
      "duration": 0.0632,
      "velocity": 74,
      "chip": "ym2612"
    },
    {
      "channel": 0,
      "note": 29,
      "start": 39.9024,
      "duration": 0.0629,
      "velocity": 74,
      "chip": "ym2612"
    },
    {
      "channel": 2,
      "note": 69,
      "start": 39.9031,
      "duration": 0.0625,
      "velocity": 114,
      "chip": "ym2612"
    },
    {
      "channel": 0,
      "note": 47,
      "start": 40.019,
      "duration": 0.063,
      "velocity": 74,
      "chip": "ym2612"
    },
    {
      "channel": 2,
      "note": 69,
      "start": 40.0197,
      "duration": 0.0625,
      "velocity": 114,
      "chip": "ym2612"
    },
    {
      "channel": 0,
      "note": 29,
      "start": 40.1358,
      "duration": 0.0629,
      "velocity": 74,
      "chip": "ym2612"
    },
    {
      "channel": 1,
      "note": 36,
      "start": 40.1364,
      "duration": 0.0625,
      "velocity": 74,
      "chip": "ym2612"
    },
    {
      "channel": 2,
      "note": 69,
      "start": 40.137,
      "duration": 0.0621,
      "velocity": 114,
      "chip": "ym2612"
    },
    {
      "channel": 0,
      "note": 47,
      "start": 40.2524,
      "duration": 0.063,
      "velocity": 74,
      "chip": "ym2612"
    },
    {
      "channel": 2,
      "note": 69,
      "start": 40.2531,
      "duration": 0.0625,
      "velocity": 114,
      "chip": "ym2612"
    },
    {
      "channel": 0,
      "note": 29,
      "start": 40.3691,
      "duration": 0.0629,
      "velocity": 74,
      "chip": "ym2612"
    },
    {
      "channel": 2,
      "note": 69,
      "start": 40.3698,
      "duration": 0.0625,
      "velocity": 114,
      "chip": "ym2612"
    },
    {
      "channel": 0,
      "note": 47,
      "start": 40.4858,
      "duration": 0.0628,
      "velocity": 74,
      "chip": "ym2612"
    },
    {
      "channel": 1,
      "note": 36,
      "start": 40.4864,
      "duration": 0.0625,
      "velocity": 74,
      "chip": "ym2612"
    },
    {
      "channel": 2,
      "note": 69,
      "start": 40.487,
      "duration": 0.062,
      "velocity": 114,
      "chip": "ym2612"
    },
    {
      "channel": 0,
      "note": 29,
      "start": 40.6024,
      "duration": 0.0629,
      "velocity": 74,
      "chip": "ym2612"
    },
    {
      "channel": 2,
      "note": 69,
      "start": 40.6031,
      "duration": 0.0625,
      "velocity": 114,
      "chip": "ym2612"
    },
    {
      "channel": 0,
      "note": 47,
      "start": 40.719,
      "duration": 0.063,
      "velocity": 74,
      "chip": "ym2612"
    },
    {
      "channel": 2,
      "note": 69,
      "start": 40.7197,
      "duration": 0.0625,
      "velocity": 114,
      "chip": "ym2612"
    },
    {
      "channel": 0,
      "note": 29,
      "start": 40.8358,
      "duration": 0.0629,
      "velocity": 74,
      "chip": "ym2612"
    },
    {
      "channel": 2,
      "note": 69,
      "start": 40.8394,
      "duration": 0.0595,
      "velocity": 114,
      "chip": "ym2612"
    },
    {
      "channel": 0,
      "note": 47,
      "start": 40.9524,
      "duration": 0.063,
      "velocity": 74,
      "chip": "ym2612"
    },
    {
      "channel": 2,
      "note": 69,
      "start": 40.956,
      "duration": 0.0596,
      "velocity": 114,
      "chip": "ym2612"
    },
    {
      "channel": 0,
      "note": 28,
      "start": 41.0692,
      "duration": 0.0628,
      "velocity": 74,
      "chip": "ym2612"
    },
    {
      "channel": 2,
      "note": 69,
      "start": 41.0728,
      "duration": 0.0595,
      "velocity": 114,
      "chip": "ym2612"
    },
    {
      "channel": 3,
      "note": 39,
      "start": 41.0735,
      "duration": 3.7333,
      "velocity": 28,
      "chip": "ym2612"
    },
    {
      "channel": 4,
      "note": 99,
      "start": 41.0741,
      "duration": 0.6964,
      "velocity": 94,
      "chip": "ym2612"
    },
    {
      "channel": 0,
      "note": 46,
      "start": 41.1857,
      "duration": 0.063,
      "velocity": 74,
      "chip": "ym2612"
    },
    {
      "channel": 2,
      "note": 69,
      "start": 41.1893,
      "duration": 0.0596,
      "velocity": 114,
      "chip": "ym2612"
    },
    {
      "channel": 0,
      "note": 28,
      "start": 41.3025,
      "duration": 0.0628,
      "velocity": 74,
      "chip": "ym2612"
    },
    {
      "channel": 1,
      "note": 35,
      "start": 41.3031,
      "duration": 0.0624,
      "velocity": 74,
      "chip": "ym2612"
    },
    {
      "channel": 2,
      "note": 69,
      "start": 41.3037,
      "duration": 0.062,
      "velocity": 114,
      "chip": "ym2612"
    },
    {
      "channel": 5,
      "note": 99,
      "start": 41.3046,
      "duration": 0.6993,
      "velocity": 94,
      "chip": "ym2612"
    },
    {
      "channel": 0,
      "note": 46,
      "start": 41.4191,
      "duration": 0.0629,
      "velocity": 74,
      "chip": "ym2612"
    },
    {
      "channel": 2,
      "note": 69,
      "start": 41.4198,
      "duration": 0.0625,
      "velocity": 114,
      "chip": "ym2612"
    },
    {
      "channel": 0,
      "note": 28,
      "start": 41.5358,
      "duration": 0.0629,
      "velocity": 74,
      "chip": "ym2612"
    },
    {
      "channel": 2,
      "note": 69,
      "start": 41.5365,
      "duration": 0.0625,
      "velocity": 114,
      "chip": "ym2612"
    },
    {
      "channel": 0,
      "note": 46,
      "start": 41.6522,
      "duration": 0.0632,
      "velocity": 74,
      "chip": "ym2612"
    },
    {
      "channel": 0,
      "note": 28,
      "start": 41.7692,
      "duration": 0.0628,
      "velocity": 74,
      "chip": "ym2612"
    },
    {
      "channel": 2,
      "note": 69,
      "start": 41.7699,
      "duration": 0.0624,
      "velocity": 114,
      "chip": "ym2612"
    },
    {
      "channel": 4,
      "note": 100,
      "start": 41.7705,
      "duration": 0.6999,
      "velocity": 94,
      "chip": "ym2612"
    },
    {
      "channel": 0,
      "note": 46,
      "start": 41.8857,
      "duration": 0.063,
      "velocity": 74,
      "chip": "ym2612"
    },
    {
      "channel": 2,
      "note": 69,
      "start": 41.8864,
      "duration": 0.0625,
      "velocity": 114,
      "chip": "ym2612"
    },
    {
      "channel": 0,
      "note": 28,
      "start": 42.0024,
      "duration": 0.063,
      "velocity": 74,
      "chip": "ym2612"
    },
    {
      "channel": 2,
      "note": 69,
      "start": 42.0031,
      "duration": 0.0625,
      "velocity": 114,
      "chip": "ym2612"
    },
    {
      "channel": 5,
      "note": 100,
      "start": 42.004,
      "duration": 0.7029,
      "velocity": 94,
      "chip": "ym2612"
    },
    {
      "channel": 0,
      "note": 46,
      "start": 42.1189,
      "duration": 0.0631,
      "velocity": 74,
      "chip": "ym2612"
    },
    {
      "channel": 0,
      "note": 28,
      "start": 42.2358,
      "duration": 0.063,
      "velocity": 74,
      "chip": "ym2612"
    },
    {
      "channel": 2,
      "note": 69,
      "start": 42.2365,
      "duration": 0.0625,
      "velocity": 114,
      "chip": "ym2612"
    },
    {
      "channel": 0,
      "note": 46,
      "start": 42.3524,
      "duration": 0.063,
      "velocity": 74,
      "chip": "ym2612"
    },
    {
      "channel": 2,
      "note": 69,
      "start": 42.3531,
      "duration": 0.0626,
      "velocity": 114,
      "chip": "ym2612"
    },
    {
      "channel": 0,
      "note": 28,
      "start": 42.4691,
      "duration": 0.0629,
      "velocity": 74,
      "chip": "ym2612"
    },
    {
      "channel": 2,
      "note": 69,
      "start": 42.4698,
      "duration": 0.0625,
      "velocity": 114,
      "chip": "ym2612"
    },
    {
      "channel": 4,
      "note": 104,
      "start": 42.4704,
      "duration": 0.4702,
      "velocity": 94,
      "chip": "ym2612"
    },
    {
      "channel": 0,
      "note": 46,
      "start": 42.5858,
      "duration": 0.0629,
      "velocity": 74,
      "chip": "ym2612"
    },
    {
      "channel": 1,
      "note": 35,
      "start": 42.5864,
      "duration": 0.0625,
      "velocity": 74,
      "chip": "ym2612"
    },
    {
      "channel": 2,
      "note": 69,
      "start": 42.587,
      "duration": 0.0621,
      "velocity": 114,
      "chip": "ym2612"
    },
    {
      "channel": 0,
      "note": 28,
      "start": 42.7024,
      "duration": 0.063,
      "velocity": 74,
      "chip": "ym2612"
    },
    {
      "channel": 2,
      "note": 69,
      "start": 42.7061,
      "duration": 0.0595,
      "velocity": 114,
      "chip": "ym2612"
    },
    {
      "channel": 5,
      "note": 104,
      "start": 42.707,
      "duration": 0.4642,
      "velocity": 94,
      "chip": "ym2612"
    },
    {
      "channel": 0,
      "note": 46,
      "start": 42.819,
      "duration": 0.063,
      "velocity": 74,
      "chip": "ym2612"
    },
    {
      "channel": 2,
      "note": 69,
      "start": 42.8227,
      "duration": 0.0596,
      "velocity": 114,
      "chip": "ym2612"
    },
    {
      "channel": 0,
      "note": 28,
      "start": 42.9359,
      "duration": 0.0628,
      "velocity": 74,
      "chip": "ym2612"
    },
    {
      "channel": 1,
      "note": 35,
      "start": 42.9365,
      "duration": 0.0624,
      "velocity": 74,
      "chip": "ym2612"
    },
    {
      "channel": 2,
      "note": 69,
      "start": 42.9401,
      "duration": 0.059,
      "velocity": 114,
      "chip": "ym2612"
    },
    {
      "channel": 4,
      "note": 103,
      "start": 42.9407,
      "duration": 0.6964,
      "velocity": 94,
      "chip": "ym2612"
    },
    {
      "channel": 0,
      "note": 46,
      "start": 43.0524,
      "duration": 0.0629,
      "velocity": 74,
      "chip": "ym2612"
    },
    {
      "channel": 2,
      "note": 69,
      "start": 43.0561,
      "duration": 0.0595,
      "velocity": 114,
      "chip": "ym2612"
    },
    {
      "channel": 0,
      "note": 28,
      "start": 43.1692,
      "duration": 0.0629,
      "velocity": 74,
      "chip": "ym2612"
    },
    {
      "channel": 1,
      "note": 35,
      "start": 43.1697,
      "duration": 0.0625,
      "velocity": 74,
      "chip": "ym2612"
    },
    {
      "channel": 2,
      "note": 69,
      "start": 43.1704,
      "duration": 0.0621,
      "velocity": 114,
      "chip": "ym2612"
    },
    {
      "channel": 5,
      "note": 103,
      "start": 43.1712,
      "duration": 0.7,
      "velocity": 94,
      "chip": "ym2612"
    },
    {
      "channel": 0,
      "note": 46,
      "start": 43.2858,
      "duration": 0.0629,
      "velocity": 74,
      "chip": "ym2612"
    },
    {
      "channel": 2,
      "note": 69,
      "start": 43.2865,
      "duration": 0.0625,
      "velocity": 114,
      "chip": "ym2612"
    },
    {
      "channel": 0,
      "note": 28,
      "start": 43.4024,
      "duration": 0.0629,
      "velocity": 74,
      "chip": "ym2612"
    },
    {
      "channel": 2,
      "note": 69,
      "start": 43.4031,
      "duration": 0.0625,
      "velocity": 114,
      "chip": "ym2612"
    },
    {
      "channel": 0,
      "note": 46,
      "start": 43.5189,
      "duration": 0.0632,
      "velocity": 74,
      "chip": "ym2612"
    },
    {
      "channel": 0,
      "note": 28,
      "start": 43.6358,
      "duration": 0.0629,
      "velocity": 74,
      "chip": "ym2612"
    },
    {
      "channel": 2,
      "note": 69,
      "start": 43.6365,
      "duration": 0.0624,
      "velocity": 114,
      "chip": "ym2612"
    },
    {
      "channel": 4,
      "note": 94,
      "start": 43.6372,
      "duration": 0.6999,
      "velocity": 94,
      "chip": "ym2612"
    },
    {
      "channel": 0,
      "note": 46,
      "start": 43.7524,
      "duration": 0.0629,
      "velocity": 74,
      "chip": "ym2612"
    },
    {
      "channel": 2,
      "note": 69,
      "start": 43.7531,
      "duration": 0.0625,
      "velocity": 114,
      "chip": "ym2612"
    },
    {
      "channel": 0,
      "note": 28,
      "start": 43.8692,
      "duration": 0.0629,
      "velocity": 74,
      "chip": "ym2612"
    },
    {
      "channel": 1,
      "note": 35,
      "start": 43.8698,
      "duration": 0.0625,
      "velocity": 74,
      "chip": "ym2612"
    },
    {
      "channel": 2,
      "note": 69,
      "start": 43.8704,
      "duration": 0.0621,
      "velocity": 114,
      "chip": "ym2612"
    },
    {
      "channel": 5,
      "note": 94,
      "start": 43.8713,
      "duration": 0.7024,
      "velocity": 94,
      "chip": "ym2612"
    },
    {
      "channel": 0,
      "note": 46,
      "start": 43.9858,
      "duration": 0.063,
      "velocity": 74,
      "chip": "ym2612"
    },
    {
      "channel": 2,
      "note": 69,
      "start": 43.9865,
      "duration": 0.0625,
      "velocity": 114,
      "chip": "ym2612"
    },
    {
      "channel": 0,
      "note": 28,
      "start": 44.1024,
      "duration": 0.063,
      "velocity": 74,
      "chip": "ym2612"
    },
    {
      "channel": 2,
      "note": 69,
      "start": 44.1031,
      "duration": 0.0626,
      "velocity": 114,
      "chip": "ym2612"
    },
    {
      "channel": 0,
      "note": 46,
      "start": 44.2191,
      "duration": 0.0629,
      "velocity": 74,
      "chip": "ym2612"
    },
    {
      "channel": 1,
      "note": 35,
      "start": 44.2197,
      "duration": 0.0625,
      "velocity": 74,
      "chip": "ym2612"
    },
    {
      "channel": 2,
      "note": 69,
      "start": 44.2203,
      "duration": 0.0621,
      "velocity": 114,
      "chip": "ym2612"
    },
    {
      "channel": 0,
      "note": 28,
      "start": 44.3358,
      "duration": 0.063,
      "velocity": 74,
      "chip": "ym2612"
    },
    {
      "channel": 2,
      "note": 69,
      "start": 44.3365,
      "duration": 0.0625,
      "velocity": 114,
      "chip": "ym2612"
    },
    {
      "channel": 4,
      "note": 95,
      "start": 44.3371,
      "duration": 0.4702,
      "velocity": 94,
      "chip": "ym2612"
    },
    {
      "channel": 0,
      "note": 46,
      "start": 44.4524,
      "duration": 0.063,
      "velocity": 74,
      "chip": "ym2612"
    },
    {
      "channel": 2,
      "note": 69,
      "start": 44.4531,
      "duration": 0.0625,
      "velocity": 114,
      "chip": "ym2612"
    },
    {
      "channel": 0,
      "note": 28,
      "start": 44.5692,
      "duration": 0.0628,
      "velocity": 74,
      "chip": "ym2612"
    },
    {
      "channel": 2,
      "note": 69,
      "start": 44.5728,
      "duration": 0.0595,
      "velocity": 114,
      "chip": "ym2612"
    },
    {
      "channel": 5,
      "note": 95,
      "start": 44.5737,
      "duration": 0.4642,
      "velocity": 94,
      "chip": "ym2612"
    },
    {
      "channel": 0,
      "note": 46,
      "start": 44.6857,
      "duration": 0.063,
      "velocity": 74,
      "chip": "ym2612"
    },
    {
      "channel": 2,
      "note": 69,
      "start": 44.6893,
      "duration": 0.0597,
      "velocity": 114,
      "chip": "ym2612"
    },
    {
      "channel": 0,
      "note": 29,
      "start": 44.8026,
      "duration": 0.0628,
      "velocity": 74,
      "chip": "ym2612"
    },
    {
      "channel": 2,
      "note": 69,
      "start": 44.8062,
      "duration": 0.0594,
      "velocity": 114,
      "chip": "ym2612"
    },
    {
      "channel": 3,
      "note": 40,
      "start": 44.8068,
      "duration": 3.7334,
      "velocity": 28,
      "chip": "ym2612"
    },
    {
      "channel": 4,
      "note": 98,
      "start": 44.8073,
      "duration": 2.1587,
      "velocity": 94,
      "chip": "ym2612"
    },
    {
      "channel": 0,
      "note": 47,
      "start": 44.919,
      "duration": 0.063,
      "velocity": 74,
      "chip": "ym2612"
    },
    {
      "channel": 2,
      "note": 69,
      "start": 44.9227,
      "duration": 0.0597,
      "velocity": 114,
      "chip": "ym2612"
    },
    {
      "channel": 0,
      "note": 29,
      "start": 45.0358,
      "duration": 0.0629,
      "velocity": 74,
      "chip": "ym2612"
    },
    {
      "channel": 1,
      "note": 36,
      "start": 45.0365,
      "duration": 0.0625,
      "velocity": 74,
      "chip": "ym2612"
    },
    {
      "channel": 2,
      "note": 69,
      "start": 45.0371,
      "duration": 0.062,
      "velocity": 114,
      "chip": "ym2612"
    },
    {
      "channel": 5,
      "note": 98,
      "start": 45.038,
      "duration": 2.1615,
      "velocity": 94,
      "chip": "ym2612"
    },
    {
      "channel": 0,
      "note": 47,
      "start": 45.1524,
      "duration": 0.063,
      "velocity": 74,
      "chip": "ym2612"
    },
    {
      "channel": 2,
      "note": 69,
      "start": 45.1531,
      "duration": 0.0625,
      "velocity": 114,
      "chip": "ym2612"
    },
    {
      "channel": 0,
      "note": 29,
      "start": 45.269,
      "duration": 0.063,
      "velocity": 74,
      "chip": "ym2612"
    },
    {
      "channel": 2,
      "note": 69,
      "start": 45.2697,
      "duration": 0.0626,
      "velocity": 114,
      "chip": "ym2612"
    },
    {
      "channel": 0,
      "note": 47,
      "start": 45.3856,
      "duration": 0.0631,
      "velocity": 74,
      "chip": "ym2612"
    },
    {
      "channel": 0,
      "note": 29,
      "start": 45.5024,
      "duration": 0.063,
      "velocity": 74,
      "chip": "ym2612"
    },
    {
      "channel": 2,
      "note": 69,
      "start": 45.5031,
      "duration": 0.0625,
      "velocity": 114,
      "chip": "ym2612"
    },
    {
      "channel": 0,
      "note": 47,
      "start": 45.619,
      "duration": 0.063,
      "velocity": 74,
      "chip": "ym2612"
    },
    {
      "channel": 2,
      "note": 69,
      "start": 45.6197,
      "duration": 0.0626,
      "velocity": 114,
      "chip": "ym2612"
    },
    {
      "channel": 0,
      "note": 29,
      "start": 45.7357,
      "duration": 0.063,
      "velocity": 74,
      "chip": "ym2612"
    },
    {
      "channel": 2,
      "note": 69,
      "start": 45.7364,
      "duration": 0.0625,
      "velocity": 114,
      "chip": "ym2612"
    },
    {
      "channel": 0,
      "note": 47,
      "start": 45.8522,
      "duration": 0.0631,
      "velocity": 74,
      "chip": "ym2612"
    },
    {
      "channel": 0,
      "note": 29,
      "start": 45.9691,
      "duration": 0.0629,
      "velocity": 74,
      "chip": "ym2612"
    },
    {
      "channel": 2,
      "note": 69,
      "start": 45.9698,
      "duration": 0.0625,
      "velocity": 114,
      "chip": "ym2612"
    },
    {
      "channel": 0,
      "note": 47,
      "start": 46.0857,
      "duration": 0.063,
      "velocity": 74,
      "chip": "ym2612"
    },
    {
      "channel": 2,
      "note": 69,
      "start": 46.0864,
      "duration": 0.0626,
      "velocity": 114,
      "chip": "ym2612"
    },
    {
      "channel": 0,
      "note": 29,
      "start": 46.2024,
      "duration": 0.063,
      "velocity": 74,
      "chip": "ym2612"
    },
    {
      "channel": 2,
      "note": 69,
      "start": 46.2031,
      "duration": 0.0626,
      "velocity": 114,
      "chip": "ym2612"
    },
    {
      "channel": 0,
      "note": 47,
      "start": 46.3192,
      "duration": 0.0629,
      "velocity": 74,
      "chip": "ym2612"
    },
    {
      "channel": 1,
      "note": 36,
      "start": 46.3197,
      "duration": 0.0625,
      "velocity": 74,
      "chip": "ym2612"
    },
    {
      "channel": 2,
      "note": 69,
      "start": 46.3204,
      "duration": 0.0621,
      "velocity": 114,
      "chip": "ym2612"
    },
    {
      "channel": 0,
      "note": 29,
      "start": 46.4357,
      "duration": 0.063,
      "velocity": 74,
      "chip": "ym2612"
    },
    {
      "channel": 2,
      "note": 69,
      "start": 46.4364,
      "duration": 0.0626,
      "velocity": 114,
      "chip": "ym2612"
    },
    {
      "channel": 0,
      "note": 47,
      "start": 46.5524,
      "duration": 0.063,
      "velocity": 74,
      "chip": "ym2612"
    },
    {
      "channel": 2,
      "note": 69,
      "start": 46.5531,
      "duration": 0.0626,
      "velocity": 114,
      "chip": "ym2612"
    },
    {
      "channel": 0,
      "note": 29,
      "start": 46.6691,
      "duration": 0.063,
      "velocity": 74,
      "chip": "ym2612"
    },
    {
      "channel": 1,
      "note": 36,
      "start": 46.6697,
      "duration": 0.0625,
      "velocity": 74,
      "chip": "ym2612"
    },
    {
      "channel": 2,
      "note": 69,
      "start": 46.6703,
      "duration": 0.0622,
      "velocity": 114,
      "chip": "ym2612"
    },
    {
      "channel": 0,
      "note": 47,
      "start": 46.7858,
      "duration": 0.0629,
      "velocity": 74,
      "chip": "ym2612"
    },
    {
      "channel": 2,
      "note": 69,
      "start": 46.7865,
      "duration": 0.0625,
      "velocity": 114,
      "chip": "ym2612"
    },
    {
      "channel": 0,
      "note": 29,
      "start": 46.9025,
      "duration": 0.0629,
      "velocity": 74,
      "chip": "ym2612"
    },
    {
      "channel": 1,
      "note": 36,
      "start": 46.9031,
      "duration": 0.0625,
      "velocity": 74,
      "chip": "ym2612"
    },
    {
      "channel": 2,
      "note": 69,
      "start": 46.9037,
      "duration": 0.0621,
      "velocity": 114,
      "chip": "ym2612"
    },
    {
      "channel": 0,
      "note": 47,
      "start": 47.0191,
      "duration": 0.0629,
      "velocity": 74,
      "chip": "ym2612"
    },
    {
      "channel": 2,
      "note": 69,
      "start": 47.0198,
      "duration": 0.0625,
      "velocity": 114,
      "chip": "ym2612"
    },
    {
      "channel": 0,
      "note": 29,
      "start": 47.1357,
      "duration": 0.063,
      "velocity": 74,
      "chip": "ym2612"
    },
    {
      "channel": 2,
      "note": 69,
      "start": 47.1364,
      "duration": 0.0625,
      "velocity": 114,
      "chip": "ym2612"
    },
    {
      "channel": 0,
      "note": 47,
      "start": 47.2522,
      "duration": 0.0632,
      "velocity": 74,
      "chip": "ym2612"
    },
    {
      "channel": 0,
      "note": 29,
      "start": 47.3691,
      "duration": 0.0629,
      "velocity": 74,
      "chip": "ym2612"
    },
    {
      "channel": 2,
      "note": 69,
      "start": 47.3698,
      "duration": 0.0625,
      "velocity": 114,
      "chip": "ym2612"
    },
    {
      "channel": 0,
      "note": 47,
      "start": 47.4858,
      "duration": 0.0629,
      "velocity": 74,
      "chip": "ym2612"
    },
    {
      "channel": 2,
      "note": 69,
      "start": 47.4865,
      "duration": 0.0625,
      "velocity": 114,
      "chip": "ym2612"
    },
    {
      "channel": 0,
      "note": 29,
      "start": 47.6025,
      "duration": 0.0628,
      "velocity": 74,
      "chip": "ym2612"
    },
    {
      "channel": 1,
      "note": 36,
      "start": 47.6031,
      "duration": 0.0625,
      "velocity": 74,
      "chip": "ym2612"
    },
    {
      "channel": 2,
      "note": 69,
      "start": 47.6037,
      "duration": 0.062,
      "velocity": 114,
      "chip": "ym2612"
    },
    {
      "channel": 0,
      "note": 47,
      "start": 47.7191,
      "duration": 0.0629,
      "velocity": 74,
      "chip": "ym2612"
    },
    {
      "channel": 2,
      "note": 69,
      "start": 47.7198,
      "duration": 0.0625,
      "velocity": 114,
      "chip": "ym2612"
    },
    {
      "channel": 0,
      "note": 29,
      "start": 47.8357,
      "duration": 0.063,
      "velocity": 74,
      "chip": "ym2612"
    },
    {
      "channel": 2,
      "note": 69,
      "start": 47.8364,
      "duration": 0.0625,
      "velocity": 114,
      "chip": "ym2612"
    },
    {
      "channel": 0,
      "note": 47,
      "start": 47.9525,
      "duration": 0.0629,
      "velocity": 74,
      "chip": "ym2612"
    },
    {
      "channel": 1,
      "note": 36,
      "start": 47.9531,
      "duration": 0.0625,
      "velocity": 74,
      "chip": "ym2612"
    },
    {
      "channel": 2,
      "note": 69,
      "start": 47.9537,
      "duration": 0.0621,
      "velocity": 114,
      "chip": "ym2612"
    },
    {
      "channel": 0,
      "note": 29,
      "start": 48.069,
      "duration": 0.063,
      "velocity": 74,
      "chip": "ym2612"
    },
    {
      "channel": 2,
      "note": 69,
      "start": 48.0697,
      "duration": 0.0626,
      "velocity": 114,
      "chip": "ym2612"
    },
    {
      "channel": 0,
      "note": 47,
      "start": 48.1856,
      "duration": 0.063,
      "velocity": 74,
      "chip": "ym2612"
    },
    {
      "channel": 2,
      "note": 69,
      "start": 48.1863,
      "duration": 0.0626,
      "velocity": 114,
      "chip": "ym2612"
    },
    {
      "channel": 0,
      "note": 29,
      "start": 48.3024,
      "duration": 0.063,
      "velocity": 74,
      "chip": "ym2612"
    },
    {
      "channel": 2,
      "note": 69,
      "start": 48.3061,
      "duration": 0.0596,
      "velocity": 114,
      "chip": "ym2612"
    },
    {
      "channel": 0,
      "note": 47,
      "start": 48.419,
      "duration": 0.063,
      "velocity": 74,
      "chip": "ym2612"
    },
    {
      "channel": 2,
      "note": 69,
      "start": 48.4227,
      "duration": 0.0595,
      "velocity": 114,
      "chip": "ym2612"
    },
    {
      "channel": 0,
      "note": 87,
      "start": 48.5359,
      "duration": 0.0627,
      "velocity": 93,
      "chip": "ym2612"
    },
    {
      "channel": 2,
      "note": 69,
      "start": 48.5396,
      "duration": 0.0593,
      "velocity": 114,
      "chip": "ym2612"
    },
    {
      "channel": 3,
      "note": 39,
      "start": 48.5402,
      "duration": 3.7307,
      "velocity": 28,
      "chip": "ym2612"
    },
    {
      "channel": 4,
      "note": 99,
      "start": 48.5408,
      "duration": 1.8634,
      "velocity": 94,
      "chip": "ym2612"
    },
    {
      "channel": 0,
      "note": 82,
      "start": 48.6494,
      "duration": 0.0659,
      "velocity": 93,
      "chip": "ym2612"
    },
    {
      "channel": 1,
      "note": 87,
      "start": 48.6529,
      "duration": 0.0626,
      "velocity": 93,
      "chip": "ym2612"
    },
    {
      "channel": 2,
      "note": 69,
      "start": 48.6565,
      "duration": 0.0592,
      "velocity": 114,
      "chip": "ym2612"
    },
    {
      "channel": 0,
      "note": 82,
      "start": 48.7662,
      "duration": 0.0658,
      "velocity": 93,
      "chip": "ym2612"
    },
    {
      "channel": 1,
      "note": 82,
      "start": 48.7667,
      "duration": 0.0655,
      "velocity": 93,
      "chip": "ym2612"
    },
    {
      "channel": 2,
      "note": 69,
      "start": 48.7674,
      "duration": 0.0651,
      "velocity": 114,
      "chip": "ym2612"
    },
    {
      "channel": 5,
      "note": 99,
      "start": 48.7683,
      "duration": 1.8666,
      "velocity": 94,
      "chip": "ym2612"
    },
    {
      "channel": 0,
      "note": 75,
      "start": 48.8827,
      "duration": 0.066,
      "velocity": 93,
      "chip": "ym2612"
    },
    {
      "channel": 1,
      "note": 82,
      "start": 48.8833,
      "duration": 0.0656,
      "velocity": 93,
      "chip": "ym2612"
    },
    {
      "channel": 2,
      "note": 69,
      "start": 48.8839,
      "duration": 0.0652,
      "velocity": 114,
      "chip": "ym2612"
    },
    {
      "channel": 0,
      "note": 83,
      "start": 48.9994,
      "duration": 0.066,
      "velocity": 93,
      "chip": "ym2612"
    },
    {
      "channel": 1,
      "note": 75,
      "start": 48.9999,
      "duration": 0.0657,
      "velocity": 93,
      "chip": "ym2612"
    },
    {
      "channel": 2,
      "note": 69,
      "start": 49.0005,
      "duration": 0.0653,
      "velocity": 114,
      "chip": "ym2612"
    },
    {
      "channel": 0,
      "note": 78,
      "start": 49.116,
      "duration": 0.066,
      "velocity": 93,
      "chip": "ym2612"
    },
    {
      "channel": 1,
      "note": 83,
      "start": 49.1165,
      "duration": 0.0657,
      "velocity": 93,
      "chip": "ym2612"
    },
    {
      "channel": 0,
      "note": 78,
      "start": 49.2328,
      "duration": 0.066,
      "velocity": 93,
      "chip": "ym2612"
    },
    {
      "channel": 1,
      "note": 78,
      "start": 49.2333,
      "duration": 0.0656,
      "velocity": 93,
      "chip": "ym2612"
    },
    {
      "channel": 2,
      "note": 69,
      "start": 49.2339,
      "duration": 0.0652,
      "velocity": 114,
      "chip": "ym2612"
    },
    {
      "channel": 0,
      "note": 71,
      "start": 49.3494,
      "duration": 0.066,
      "velocity": 93,
      "chip": "ym2612"
    },
    {
      "channel": 1,
      "note": 78,
      "start": 49.3499,
      "duration": 0.0657,
      "velocity": 93,
      "chip": "ym2612"
    },
    {
      "channel": 2,
      "note": 69,
      "start": 49.3505,
      "duration": 0.0653,
      "velocity": 114,
      "chip": "ym2612"
    },
    {
      "channel": 0,
      "note": 79,
      "start": 49.466,
      "duration": 0.066,
      "velocity": 93,
      "chip": "ym2612"
    },
    {
      "channel": 1,
      "note": 71,
      "start": 49.4666,
      "duration": 0.0657,
      "velocity": 93,
      "chip": "ym2612"
    },
    {
      "channel": 2,
      "note": 69,
      "start": 49.4672,
      "duration": 0.0653,
      "velocity": 114,
      "chip": "ym2612"
    },
    {
      "channel": 0,
      "note": 74,
      "start": 49.5826,
      "duration": 0.066,
      "velocity": 93,
      "chip": "ym2612"
    },
    {
      "channel": 1,
      "note": 79,
      "start": 49.5832,
      "duration": 0.0657,
      "velocity": 93,
      "chip": "ym2612"
    },
    {
      "channel": 0,
      "note": 74,
      "start": 49.6994,
      "duration": 0.0659,
      "velocity": 93,
      "chip": "ym2612"
    },
    {
      "channel": 1,
      "note": 74,
      "start": 49.7,
      "duration": 0.0656,
      "velocity": 93,
      "chip": "ym2612"
    },
    {
      "channel": 2,
      "note": 69,
      "start": 49.7006,
      "duration": 0.0651,
      "velocity": 114,
      "chip": "ym2612"
    },
    {
      "channel": 0,
      "note": 67,
      "start": 49.816,
      "duration": 0.066,
      "velocity": 93,
      "chip": "ym2612"
    },
    {
      "channel": 1,
      "note": 74,
      "start": 49.8166,
      "duration": 0.0656,
      "velocity": 93,
      "chip": "ym2612"
    },
    {
      "channel": 2,
      "note": 69,
      "start": 49.8172,
      "duration": 0.0652,
      "velocity": 114,
      "chip": "ym2612"
    },
    {
      "channel": 0,
      "note": 75,
      "start": 49.9327,
      "duration": 0.066,
      "velocity": 93,
      "chip": "ym2612"
    },
    {
      "channel": 1,
      "note": 67,
      "start": 49.9332,
      "duration": 0.0657,
      "velocity": 93,
      "chip": "ym2612"
    },
    {
      "channel": 2,
      "note": 69,
      "start": 49.9339,
      "duration": 0.0653,
      "velocity": 114,
      "chip": "ym2612"
    },
    {
      "channel": 0,
      "note": 70,
      "start": 50.0494,
      "duration": 0.066,
      "velocity": 93,
      "chip": "ym2612"
    },
    {
      "channel": 1,
      "note": 75,
      "start": 50.05,
      "duration": 0.0656,
      "velocity": 93,
      "chip": "ym2612"
    },
    {
      "channel": 2,
      "note": 69,
      "start": 50.0506,
      "duration": 0.0652,
      "velocity": 114,
      "chip": "ym2612"
    },
    {
      "channel": 0,
      "note": 70,
      "start": 50.1662,
      "duration": 0.0659,
      "velocity": 93,
      "chip": "ym2612"
    },
    {
      "channel": 1,
      "note": 70,
      "start": 50.1667,
      "duration": 0.0656,
      "velocity": 93,
      "chip": "ym2612"
    },
    {
      "channel": 2,
      "note": 69,
      "start": 50.1702,
      "duration": 0.0622,
      "velocity": 114,
      "chip": "ym2612"
    },
    {
      "channel": 0,
      "note": 63,
      "start": 50.2828,
      "duration": 0.066,
      "velocity": 93,
      "chip": "ym2612"
    },
    {
      "channel": 1,
      "note": 70,
      "start": 50.2833,
      "duration": 0.0656,
      "velocity": 93,
      "chip": "ym2612"
    },
    {
      "channel": 2,
      "note": 69,
      "start": 50.2868,
      "duration": 0.0623,
      "velocity": 114,
      "chip": "ym2612"
    },
    {
      "channel": 0,
      "note": 111,
      "start": 50.3995,
      "duration": 0.0659,
      "velocity": 93,
      "chip": "ym2612"
    },
    {
      "channel": 1,
      "note": 63,
      "start": 50.4001,
      "duration": 0.0655,
      "velocity": 93,
      "chip": "ym2612"
    },
    {
      "channel": 2,
      "note": 69,
      "start": 50.4036,
      "duration": 0.0622,
      "velocity": 114,
      "chip": "ym2612"
    },
    {
      "channel": 4,
      "note": 97,
      "start": 50.4043,
      "duration": 1.8673,
      "velocity": 94,
      "chip": "ym2612"
    },
    {
      "channel": 0,
      "note": 106,
      "start": 50.5162,
      "duration": 0.0659,
      "velocity": 93,
      "chip": "ym2612"
    },
    {
      "channel": 1,
      "note": 111,
      "start": 50.5167,
      "duration": 0.0656,
      "velocity": 93,
      "chip": "ym2612"
    },
    {
      "channel": 2,
      "note": 69,
      "start": 50.5202,
      "duration": 0.0622,
      "velocity": 114,
      "chip": "ym2612"
    },
    {
      "channel": 0,
      "note": 106,
      "start": 50.6328,
      "duration": 0.0659,
      "velocity": 93,
      "chip": "ym2612"
    },
    {
      "channel": 1,
      "note": 106,
      "start": 50.6334,
      "duration": 0.0655,
      "velocity": 93,
      "chip": "ym2612"
    },
    {
      "channel": 2,
      "note": 69,
      "start": 50.634,
      "duration": 0.0651,
      "velocity": 114,
      "chip": "ym2612"
    },
    {
      "channel": 5,
      "note": 97,
      "start": 50.6349,
      "duration": 1.8666,
      "velocity": 94,
      "chip": "ym2612"
    },
    {
      "channel": 0,
      "note": 99,
      "start": 50.7494,
      "duration": 0.0659,
      "velocity": 93,
      "chip": "ym2612"
    },
    {
      "channel": 1,
      "note": 106,
      "start": 50.75,
      "duration": 0.0656,
      "velocity": 93,
      "chip": "ym2612"
    },
    {
      "channel": 2,
      "note": 69,
      "start": 50.7506,
      "duration": 0.0651,
      "velocity": 114,
      "chip": "ym2612"
    },
    {
      "channel": 0,
      "note": 107,
      "start": 50.866,
      "duration": 0.066,
      "velocity": 93,
      "chip": "ym2612"
    },
    {
      "channel": 1,
      "note": 99,
      "start": 50.8666,
      "duration": 0.0656,
      "velocity": 93,
      "chip": "ym2612"
    },
    {
      "channel": 2,
      "note": 69,
      "start": 50.8672,
      "duration": 0.0652,
      "velocity": 114,
      "chip": "ym2612"
    },
    {
      "channel": 0,
      "note": 102,
      "start": 50.9826,
      "duration": 0.0661,
      "velocity": 93,
      "chip": "ym2612"
    },
    {
      "channel": 1,
      "note": 107,
      "start": 50.9832,
      "duration": 0.0658,
      "velocity": 93,
      "chip": "ym2612"
    },
    {
      "channel": 0,
      "note": 102,
      "start": 51.0994,
      "duration": 0.0659,
      "velocity": 93,
      "chip": "ym2612"
    },
    {
      "channel": 1,
      "note": 102,
      "start": 51.1,
      "duration": 0.0656,
      "velocity": 93,
      "chip": "ym2612"
    },
    {
      "channel": 2,
      "note": 69,
      "start": 51.1006,
      "duration": 0.0651,
      "velocity": 114,
      "chip": "ym2612"
    },
    {
      "channel": 0,
      "note": 95,
      "start": 51.2161,
      "duration": 0.0659,
      "velocity": 93,
      "chip": "ym2612"
    },
    {
      "channel": 1,
      "note": 102,
      "start": 51.2166,
      "duration": 0.0656,
      "velocity": 93,
      "chip": "ym2612"
    },
    {
      "channel": 2,
      "note": 69,
      "start": 51.2173,
      "duration": 0.0651,
      "velocity": 114,
      "chip": "ym2612"
    },
    {
      "channel": 0,
      "note": 103,
      "start": 51.3328,
      "duration": 0.0659,
      "velocity": 93,
      "chip": "ym2612"
    },
    {
      "channel": 1,
      "note": 95,
      "start": 51.3333,
      "duration": 0.0656,
      "velocity": 93,
      "chip": "ym2612"
    },
    {
      "channel": 2,
      "note": 69,
      "start": 51.3339,
      "duration": 0.0651,
      "velocity": 114,
      "chip": "ym2612"
    },
    {
      "channel": 0,
      "note": 98,
      "start": 51.4494,
      "duration": 0.066,
      "velocity": 93,
      "chip": "ym2612"
    },
    {
      "channel": 1,
      "note": 103,
      "start": 51.45,
      "duration": 0.0656,
      "velocity": 93,
      "chip": "ym2612"
    },
    {
      "channel": 2,
      "note": 69,
      "start": 51.4506,
      "duration": 0.0652,
      "velocity": 114,
      "chip": "ym2612"
    },
    {
      "channel": 0,
      "note": 98,
      "start": 51.566,
      "duration": 0.066,
      "velocity": 93,
      "chip": "ym2612"
    },
    {
      "channel": 1,
      "note": 98,
      "start": 51.5666,
      "duration": 0.0657,
      "velocity": 93,
      "chip": "ym2612"
    },
    {
      "channel": 2,
      "note": 69,
      "start": 51.5672,
      "duration": 0.0653,
      "velocity": 114,
      "chip": "ym2612"
    },
    {
      "channel": 0,
      "note": 91,
      "start": 51.6828,
      "duration": 0.066,
      "velocity": 93,
      "chip": "ym2612"
    },
    {
      "channel": 1,
      "note": 98,
      "start": 51.6833,
      "duration": 0.0656,
      "velocity": 93,
      "chip": "ym2612"
    },
    {
      "channel": 2,
      "note": 69,
      "start": 51.6839,
      "duration": 0.0652,
      "velocity": 114,
      "chip": "ym2612"
    },
    {
      "channel": 0,
      "note": 99,
      "start": 51.7994,
      "duration": 0.0659,
      "velocity": 93,
      "chip": "ym2612"
    },
    {
      "channel": 1,
      "note": 91,
      "start": 51.8,
      "duration": 0.0656,
      "velocity": 93,
      "chip": "ym2612"
    },
    {
      "channel": 2,
      "note": 69,
      "start": 51.8006,
      "duration": 0.0651,
      "velocity": 114,
      "chip": "ym2612"
    },
    {
      "channel": 0,
      "note": 94,
      "start": 51.916,
      "duration": 0.066,
      "velocity": 93,
      "chip": "ym2612"
    },
    {
      "channel": 1,
      "note": 99,
      "start": 51.9166,
      "duration": 0.0656,
      "velocity": 93,
      "chip": "ym2612"
    },
    {
      "channel": 2,
      "note": 69,
      "start": 51.9172,
      "duration": 0.0652,
      "velocity": 114,
      "chip": "ym2612"
    },
    {
      "channel": 0,
      "note": 94,
      "start": 52.0328,
      "duration": 0.066,
      "velocity": 93,
      "chip": "ym2612"
    },
    {
      "channel": 1,
      "note": 94,
      "start": 52.0333,
      "duration": 0.0656,
      "velocity": 93,
      "chip": "ym2612"
    },
    {
      "channel": 2,
      "note": 69,
      "start": 52.0368,
      "duration": 0.0623,
      "velocity": 114,
      "chip": "ym2612"
    },
    {
      "channel": 0,
      "note": 87,
      "start": 52.1494,
      "duration": 0.0659,
      "velocity": 93,
      "chip": "ym2612"
    },
    {
      "channel": 1,
      "note": 94,
      "start": 52.15,
      "duration": 0.0656,
      "velocity": 93,
      "chip": "ym2612"
    },
    {
      "channel": 2,
      "note": 69,
      "start": 52.1535,
      "duration": 0.0622,
      "velocity": 114,
      "chip": "ym2612"
    },
    {
      "channel": 0,
      "note": 88,
      "start": 52.2662,
      "duration": 0.0658,
      "velocity": 93,
      "chip": "ym2612"
    },
    {
      "channel": 1,
      "note": 87,
      "start": 52.2668,
      "duration": 0.0654,
      "velocity": 93,
      "chip": "ym2612"
    },
    {
      "channel": 2,
      "note": 69,
      "start": 52.2704,
      "duration": 0.062,
      "velocity": 114,
      "chip": "ym2612"
    },
    {
      "channel": 3,
      "note": 40,
      "start": 52.2709,
      "duration": 3.7334,
      "velocity": 28,
      "chip": "ym2612"
    },
    {
      "channel": 4,
      "note": 95,
      "start": 52.2715,
      "duration": 1.863,
      "velocity": 94,
      "chip": "ym2612"
    },
    {
      "channel": 0,
      "note": 83,
      "start": 52.3828,
      "duration": 0.066,
      "velocity": 93,
      "chip": "ym2612"
    },
    {
      "channel": 1,
      "note": 88,
      "start": 52.3833,
      "duration": 0.0656,
      "velocity": 93,
      "chip": "ym2612"
    },
    {
      "channel": 2,
      "note": 69,
      "start": 52.3868,
      "duration": 0.0623,
      "velocity": 114,
      "chip": "ym2612"
    },
    {
      "channel": 0,
      "note": 83,
      "start": 52.4994,
      "duration": 0.066,
      "velocity": 93,
      "chip": "ym2612"
    },
    {
      "channel": 1,
      "note": 83,
      "start": 52.5,
      "duration": 0.0656,
      "velocity": 93,
      "chip": "ym2612"
    },
    {
      "channel": 2,
      "note": 69,
      "start": 52.5006,
      "duration": 0.0652,
      "velocity": 114,
      "chip": "ym2612"
    },
    {
      "channel": 5,
      "note": 95,
      "start": 52.5015,
      "duration": 1.8667,
      "velocity": 94,
      "chip": "ym2612"
    },
    {
      "channel": 0,
      "note": 76,
      "start": 52.6161,
      "duration": 0.066,
      "velocity": 93,
      "chip": "ym2612"
    },
    {
      "channel": 1,
      "note": 83,
      "start": 52.6166,
      "duration": 0.0656,
      "velocity": 93,
      "chip": "ym2612"
    },
    {
      "channel": 2,
      "note": 69,
      "start": 52.6173,
      "duration": 0.0652,
      "velocity": 114,
      "chip": "ym2612"
    },
    {
      "channel": 0,
      "note": 84,
      "start": 52.7327,
      "duration": 0.066,
      "velocity": 93,
      "chip": "ym2612"
    },
    {
      "channel": 1,
      "note": 76,
      "start": 52.7332,
      "duration": 0.0656,
      "velocity": 93,
      "chip": "ym2612"
    },
    {
      "channel": 2,
      "note": 69,
      "start": 52.7339,
      "duration": 0.0652,
      "velocity": 114,
      "chip": "ym2612"
    },
    {
      "channel": 0,
      "note": 79,
      "start": 52.8493,
      "duration": 0.0661,
      "velocity": 93,
      "chip": "ym2612"
    },
    {
      "channel": 1,
      "note": 84,
      "start": 52.8498,
      "duration": 0.0658,
      "velocity": 93,
      "chip": "ym2612"
    },
    {
      "channel": 0,
      "note": 79,
      "start": 52.9661,
      "duration": 0.066,
      "velocity": 93,
      "chip": "ym2612"
    },
    {
      "channel": 1,
      "note": 79,
      "start": 52.9666,
      "duration": 0.0656,
      "velocity": 93,
      "chip": "ym2612"
    },
    {
      "channel": 2,
      "note": 69,
      "start": 52.9673,
      "duration": 0.0652,
      "velocity": 114,
      "chip": "ym2612"
    },
    {
      "channel": 0,
      "note": 72,
      "start": 53.0827,
      "duration": 0.066,
      "velocity": 93,
      "chip": "ym2612"
    },
    {
      "channel": 1,
      "note": 79,
      "start": 53.0832,
      "duration": 0.0656,
      "velocity": 93,
      "chip": "ym2612"
    },
    {
      "channel": 2,
      "note": 69,
      "start": 53.0839,
      "duration": 0.0652,
      "velocity": 114,
      "chip": "ym2612"
    },
    {
      "channel": 0,
      "note": 80,
      "start": 53.1994,
      "duration": 0.066,
      "velocity": 93,
      "chip": "ym2612"
    },
    {
      "channel": 1,
      "note": 72,
      "start": 53.1999,
      "duration": 0.0657,
      "velocity": 93,
      "chip": "ym2612"
    },
    {
      "channel": 2,
      "note": 69,
      "start": 53.2005,
      "duration": 0.0653,
      "velocity": 114,
      "chip": "ym2612"
    },
    {
      "channel": 0,
      "note": 75,
      "start": 53.3159,
      "duration": 0.0661,
      "velocity": 93,
      "chip": "ym2612"
    },
    {
      "channel": 1,
      "note": 80,
      "start": 53.3165,
      "duration": 0.0657,
      "velocity": 93,
      "chip": "ym2612"
    },
    {
      "channel": 0,
      "note": 75,
      "start": 53.4328,
      "duration": 0.066,
      "velocity": 93,
      "chip": "ym2612"
    },
    {
      "channel": 1,
      "note": 75,
      "start": 53.4333,
      "duration": 0.0656,
      "velocity": 93,
      "chip": "ym2612"
    },
    {
      "channel": 2,
      "note": 69,
      "start": 53.4339,
      "duration": 0.0652,
      "velocity": 114,
      "chip": "ym2612"
    },
    {
      "channel": 0,
      "note": 68,
      "start": 53.5494,
      "duration": 0.066,
      "velocity": 93,
      "chip": "ym2612"
    },
    {
      "channel": 1,
      "note": 75,
      "start": 53.5499,
      "duration": 0.0657,
      "velocity": 93,
      "chip": "ym2612"
    },
    {
      "channel": 2,
      "note": 69,
      "start": 53.5505,
      "duration": 0.0653,
      "velocity": 114,
      "chip": "ym2612"
    },
    {
      "channel": 0,
      "note": 76,
      "start": 53.666,
      "duration": 0.066,
      "velocity": 93,
      "chip": "ym2612"
    },
    {
      "channel": 1,
      "note": 68,
      "start": 53.6666,
      "duration": 0.0657,
      "velocity": 93,
      "chip": "ym2612"
    },
    {
      "channel": 2,
      "note": 69,
      "start": 53.6672,
      "duration": 0.0653,
      "velocity": 114,
      "chip": "ym2612"
    },
    {
      "channel": 0,
      "note": 71,
      "start": 53.7828,
      "duration": 0.0659,
      "velocity": 93,
      "chip": "ym2612"
    },
    {
      "channel": 1,
      "note": 76,
      "start": 53.7833,
      "duration": 0.0656,
      "velocity": 93,
      "chip": "ym2612"
    },
    {
      "channel": 2,
      "note": 69,
      "start": 53.7839,
      "duration": 0.0651,
      "velocity": 114,
      "chip": "ym2612"
    },
    {
      "channel": 0,
      "note": 71,
      "start": 53.8994,
      "duration": 0.066,
      "velocity": 93,
      "chip": "ym2612"
    },
    {
      "channel": 1,
      "note": 71,
      "start": 53.9,
      "duration": 0.0656,
      "velocity": 93,
      "chip": "ym2612"
    },
    {
      "channel": 2,
      "note": 69,
      "start": 53.9006,
      "duration": 0.0652,
      "velocity": 114,
      "chip": "ym2612"
    },
    {
      "channel": 0,
      "note": 76,
      "start": 54.016,
      "duration": 0.066,
      "velocity": 93,
      "chip": "ym2612"
    },
    {
      "channel": 1,
      "note": 71,
      "start": 54.0166,
      "duration": 0.0656,
      "velocity": 93,
      "chip": "ym2612"
    },
    {
      "channel": 2,
      "note": 69,
      "start": 54.0172,
      "duration": 0.0652,
      "velocity": 114,
      "chip": "ym2612"
    },
    {
      "channel": 0,
      "note": 112,
      "start": 54.1328,
      "duration": 0.0659,
      "velocity": 93,
      "chip": "ym2612"
    },
    {
      "channel": 1,
      "note": 76,
      "start": 54.1333,
      "duration": 0.0656,
      "velocity": 93,
      "chip": "ym2612"
    },
    {
      "channel": 2,
      "note": 69,
      "start": 54.134,
      "duration": 0.0651,
      "velocity": 114,
      "chip": "ym2612"
    },
    {
      "channel": 4,
      "note": 93,
      "start": 54.1346,
      "duration": 1.8702,
      "velocity": 94,
      "chip": "ym2612"
    },
    {
      "channel": 0,
      "note": 107,
      "start": 54.2494,
      "duration": 0.066,
      "velocity": 93,
      "chip": "ym2612"
    },
    {
      "channel": 1,
      "note": 112,
      "start": 54.25,
      "duration": 0.0656,
      "velocity": 93,
      "chip": "ym2612"
    },
    {
      "channel": 2,
      "note": 69,
      "start": 54.2506,
      "duration": 0.0652,
      "velocity": 114,
      "chip": "ym2612"
    },
    {
      "channel": 0,
      "note": 107,
      "start": 54.3662,
      "duration": 0.0659,
      "velocity": 93,
      "chip": "ym2612"
    },
    {
      "channel": 1,
      "note": 107,
      "start": 54.3667,
      "duration": 0.0656,
      "velocity": 93,
      "chip": "ym2612"
    },
    {
      "channel": 2,
      "note": 69,
      "start": 54.3673,
      "duration": 0.0651,
      "velocity": 114,
      "chip": "ym2612"
    },
    {
      "channel": 5,
      "note": 93,
      "start": 54.3682,
      "duration": 1.8667,
      "velocity": 94,
      "chip": "ym2612"
    },
    {
      "channel": 0,
      "note": 100,
      "start": 54.4828,
      "duration": 0.0659,
      "velocity": 93,
      "chip": "ym2612"
    },
    {
      "channel": 1,
      "note": 107,
      "start": 54.4833,
      "duration": 0.0656,
      "velocity": 93,
      "chip": "ym2612"
    },
    {
      "channel": 2,
      "note": 69,
      "start": 54.4839,
      "duration": 0.0651,
      "velocity": 114,
      "chip": "ym2612"
    },
    {
      "channel": 0,
      "note": 108,
      "start": 54.5994,
      "duration": 0.066,
      "velocity": 93,
      "chip": "ym2612"
    },
    {
      "channel": 1,
      "note": 100,
      "start": 54.5999,
      "duration": 0.0657,
      "velocity": 93,
      "chip": "ym2612"
    },
    {
      "channel": 2,
      "note": 69,
      "start": 54.6005,
      "duration": 0.0653,
      "velocity": 114,
      "chip": "ym2612"
    },
    {
      "channel": 0,
      "note": 103,
      "start": 54.716,
      "duration": 0.066,
      "velocity": 93,
      "chip": "ym2612"
    },
    {
      "channel": 1,
      "note": 108,
      "start": 54.7165,
      "duration": 0.0657,
      "velocity": 93,
      "chip": "ym2612"
    },
    {
      "channel": 0,
      "note": 103,
      "start": 54.8328,
      "duration": 0.066,
      "velocity": 93,
      "chip": "ym2612"
    },
    {
      "channel": 1,
      "note": 103,
      "start": 54.8333,
      "duration": 0.0656,
      "velocity": 93,
      "chip": "ym2612"
    },
    {
      "channel": 2,
      "note": 69,
      "start": 54.8339,
      "duration": 0.0652,
      "velocity": 114,
      "chip": "ym2612"
    },
    {
      "channel": 0,
      "note": 96,
      "start": 54.9494,
      "duration": 0.066,
      "velocity": 93,
      "chip": "ym2612"
    },
    {
      "channel": 1,
      "note": 103,
      "start": 54.95,
      "duration": 0.0656,
      "velocity": 93,
      "chip": "ym2612"
    },
    {
      "channel": 2,
      "note": 69,
      "start": 54.9506,
      "duration": 0.0652,
      "velocity": 114,
      "chip": "ym2612"
    },
    {
      "channel": 0,
      "note": 104,
      "start": 55.0661,
      "duration": 0.066,
      "velocity": 93,
      "chip": "ym2612"
    },
    {
      "channel": 1,
      "note": 96,
      "start": 55.0666,
      "duration": 0.0656,
      "velocity": 93,
      "chip": "ym2612"
    },
    {
      "channel": 2,
      "note": 69,
      "start": 55.0673,
      "duration": 0.0652,
      "velocity": 114,
      "chip": "ym2612"
    },
    {
      "channel": 0,
      "note": 99,
      "start": 55.1828,
      "duration": 0.066,
      "velocity": 93,
      "chip": "ym2612"
    },
    {
      "channel": 1,
      "note": 104,
      "start": 55.1833,
      "duration": 0.0656,
      "velocity": 93,
      "chip": "ym2612"
    },
    {
      "channel": 2,
      "note": 69,
      "start": 55.1839,
      "duration": 0.0652,
      "velocity": 114,
      "chip": "ym2612"
    },
    {
      "channel": 0,
      "note": 99,
      "start": 55.2994,
      "duration": 0.066,
      "velocity": 93,
      "chip": "ym2612"
    },
    {
      "channel": 1,
      "note": 99,
      "start": 55.3,
      "duration": 0.0656,
      "velocity": 93,
      "chip": "ym2612"
    },
    {
      "channel": 2,
      "note": 69,
      "start": 55.3006,
      "duration": 0.0652,
      "velocity": 114,
      "chip": "ym2612"
    },
    {
      "channel": 0,
      "note": 92,
      "start": 55.4161,
      "duration": 0.066,
      "velocity": 93,
      "chip": "ym2612"
    },
    {
      "channel": 1,
      "note": 99,
      "start": 55.4166,
      "duration": 0.0656,
      "velocity": 93,
      "chip": "ym2612"
    },
    {
      "channel": 2,
      "note": 69,
      "start": 55.4173,
      "duration": 0.0652,
      "velocity": 114,
      "chip": "ym2612"
    },
    {
      "channel": 0,
      "note": 100,
      "start": 55.5328,
      "duration": 0.066,
      "velocity": 93,
      "chip": "ym2612"
    },
    {
      "channel": 1,
      "note": 92,
      "start": 55.5333,
      "duration": 0.0656,
      "velocity": 93,
      "chip": "ym2612"
    },
    {
      "channel": 2,
      "note": 69,
      "start": 55.5339,
      "duration": 0.0652,
      "velocity": 114,
      "chip": "ym2612"
    },
    {
      "channel": 0,
      "note": 95,
      "start": 55.6494,
      "duration": 0.066,
      "velocity": 93,
      "chip": "ym2612"
    },
    {
      "channel": 1,
      "note": 100,
      "start": 55.6499,
      "duration": 0.0656,
      "velocity": 93,
      "chip": "ym2612"
    },
    {
      "channel": 2,
      "note": 69,
      "start": 55.6505,
      "duration": 0.0652,
      "velocity": 114,
      "chip": "ym2612"
    },
    {
      "channel": 0,
      "note": 95,
      "start": 55.7661,
      "duration": 0.066,
      "velocity": 93,
      "chip": "ym2612"
    },
    {
      "channel": 1,
      "note": 95,
      "start": 55.7666,
      "duration": 0.0656,
      "velocity": 93,
      "chip": "ym2612"
    },
    {
      "channel": 2,
      "note": 69,
      "start": 55.7702,
      "duration": 0.0623,
      "velocity": 114,
      "chip": "ym2612"
    },
    {
      "channel": 0,
      "note": 88,
      "start": 55.8828,
      "duration": 0.066,
      "velocity": 93,
      "chip": "ym2612"
    },
    {
      "channel": 1,
      "note": 95,
      "start": 55.8833,
      "duration": 0.0656,
      "velocity": 93,
      "chip": "ym2612"
    },
    {
      "channel": 2,
      "note": 69,
      "start": 55.8868,
      "duration": 0.0623,
      "velocity": 114,
      "chip": "ym2612"
    },
    {
      "channel": 0,
      "note": 87,
      "start": 55.9996,
      "duration": 0.0658,
      "velocity": 93,
      "chip": "ym2612"
    },
    {
      "channel": 1,
      "note": 90,
      "start": 56.0001,
      "duration": 0.0655,
      "velocity": 93,
      "chip": "ym2612"
    },
    {
      "channel": 2,
      "note": 69,
      "start": 56.0037,
      "duration": 0.0621,
      "velocity": 114,
      "chip": "ym2612"
    },
    {
      "channel": 3,
      "note": 39,
      "start": 56.0043,
      "duration": 3.7329,
      "velocity": 28,
      "chip": "ym2612"
    },
    {
      "channel": 4,
      "note": 92,
      "start": 56.0049,
      "duration": 1.866,
      "velocity": 94,
      "chip": "ym2612"
    },
    {
      "channel": 0,
      "note": 87,
      "start": 56.1161,
      "duration": 0.0659,
      "velocity": 93,
      "chip": "ym2612"
    },
    {
      "channel": 1,
      "note": 90,
      "start": 56.1167,
      "duration": 0.0655,
      "velocity": 93,
      "chip": "ym2612"
    },
    {
      "channel": 2,
      "note": 69,
      "start": 56.1202,
      "duration": 0.0622,
      "velocity": 114,
      "chip": "ym2612"
    },
    {
      "channel": 0,
      "note": 82,
      "start": 56.2328,
      "duration": 0.0659,
      "velocity": 93,
      "chip": "ym2612"
    },
    {
      "channel": 1,
      "note": 87,
      "start": 56.2333,
      "duration": 0.0656,
      "velocity": 93,
      "chip": "ym2612"
    },
    {
      "channel": 2,
      "note": 69,
      "start": 56.234,
      "duration": 0.0651,
      "velocity": 114,
      "chip": "ym2612"
    },
    {
      "channel": 5,
      "note": 92,
      "start": 56.2349,
      "duration": 1.753,
      "velocity": 94,
      "chip": "ym2612"
    },
    {
      "channel": 0,
      "note": 82,
      "start": 56.3494,
      "duration": 0.0659,
      "velocity": 93,
      "chip": "ym2612"
    },
    {
      "channel": 1,
      "note": 87,
      "start": 56.35,
      "duration": 0.0656,
      "velocity": 93,
      "chip": "ym2612"
    },
    {
      "channel": 2,
      "note": 69,
      "start": 56.3506,
      "duration": 0.0651,
      "velocity": 114,
      "chip": "ym2612"
    },
    {
      "channel": 0,
      "note": 82,
      "start": 56.4661,
      "duration": 0.066,
      "velocity": 93,
      "chip": "ym2612"
    },
    {
      "channel": 1,
      "note": 85,
      "start": 56.4666,
      "duration": 0.0656,
      "velocity": 93,
      "chip": "ym2612"
    },
    {
      "channel": 2,
      "note": 69,
      "start": 56.4673,
      "duration": 0.0652,
      "velocity": 114,
      "chip": "ym2612"
    },
    {
      "channel": 0,
      "note": 82,
      "start": 56.5827,
      "duration": 0.066,
      "velocity": 93,
      "chip": "ym2612"
    },
    {
      "channel": 1,
      "note": 85,
      "start": 56.5832,
      "duration": 0.0656,
      "velocity": 93,
      "chip": "ym2612"
    },
    {
      "channel": 0,
      "note": 75,
      "start": 56.6994,
      "duration": 0.0659,
      "velocity": 93,
      "chip": "ym2612"
    },
    {
      "channel": 1,
      "note": 82,
      "start": 56.7,
      "duration": 0.0656,
      "velocity": 93,
      "chip": "ym2612"
    },
    {
      "channel": 2,
      "note": 69,
      "start": 56.7006,
      "duration": 0.0651,
      "velocity": 114,
      "chip": "ym2612"
    },
    {
      "channel": 0,
      "note": 75,
      "start": 56.8161,
      "duration": 0.066,
      "velocity": 93,
      "chip": "ym2612"
    },
    {
      "channel": 1,
      "note": 82,
      "start": 56.8166,
      "duration": 0.0656,
      "velocity": 93,
      "chip": "ym2612"
    },
    {
      "channel": 2,
      "note": 69,
      "start": 56.8173,
      "duration": 0.0652,
      "velocity": 114,
      "chip": "ym2612"
    },
    {
      "channel": 0,
      "note": 82,
      "start": 56.9328,
      "duration": 0.0659,
      "velocity": 93,
      "chip": "ym2612"
    },
    {
      "channel": 1,
      "note": 85,
      "start": 56.9333,
      "duration": 0.0656,
      "velocity": 93,
      "chip": "ym2612"
    },
    {
      "channel": 2,
      "note": 69,
      "start": 56.9339,
      "duration": 0.0651,
      "velocity": 114,
      "chip": "ym2612"
    },
    {
      "channel": 0,
      "note": 82,
      "start": 57.0493,
      "duration": 0.0661,
      "velocity": 93,
      "chip": "ym2612"
    },
    {
      "channel": 1,
      "note": 85,
      "start": 57.0499,
      "duration": 0.0657,
      "velocity": 93,
      "chip": "ym2612"
    },
    {
      "channel": 0,
      "note": 75,
      "start": 57.1661,
      "duration": 0.0659,
      "velocity": 93,
      "chip": "ym2612"
    },
    {
      "channel": 1,
      "note": 82,
      "start": 57.1666,
      "duration": 0.0656,
      "velocity": 93,
      "chip": "ym2612"
    },
    {
      "channel": 2,
      "note": 69,
      "start": 57.1673,
      "duration": 0.0651,
      "velocity": 114,
      "chip": "ym2612"
    },
    {
      "channel": 0,
      "note": 75,
      "start": 57.2828,
      "duration": 0.0659,
      "velocity": 93,
      "chip": "ym2612"
    },
    {
      "channel": 1,
      "note": 82,
      "start": 57.2833,
      "duration": 0.0656,
      "velocity": 93,
      "chip": "ym2612"
    },
    {
      "channel": 2,
      "note": 69,
      "start": 57.2839,
      "duration": 0.0651,
      "velocity": 114,
      "chip": "ym2612"
    },
    {
      "channel": 0,
      "note": 75,
      "start": 57.3994,
      "duration": 0.066,
      "velocity": 93,
      "chip": "ym2612"
    },
    {
      "channel": 1,
      "note": 78,
      "start": 57.4,
      "duration": 0.0656,
      "velocity": 93,
      "chip": "ym2612"
    },
    {
      "channel": 2,
      "note": 69,
      "start": 57.4006,
      "duration": 0.0651,
      "velocity": 114,
      "chip": "ym2612"
    },
    {
      "channel": 0,
      "note": 75,
      "start": 57.5162,
      "duration": 0.0659,
      "velocity": 93,
      "chip": "ym2612"
    },
    {
      "channel": 1,
      "note": 78,
      "start": 57.5167,
      "duration": 0.0656,
      "velocity": 93,
      "chip": "ym2612"
    },
    {
      "channel": 2,
      "note": 69,
      "start": 57.5173,
      "duration": 0.0651,
      "velocity": 114,
      "chip": "ym2612"
    },
    {
      "channel": 0,
      "note": 70,
      "start": 57.6328,
      "duration": 0.0659,
      "velocity": 93,
      "chip": "ym2612"
    },
    {
      "channel": 1,
      "note": 75,
      "start": 57.6333,
      "duration": 0.0655,
      "velocity": 93,
      "chip": "ym2612"
    },
    {
      "channel": 2,
      "note": 69,
      "start": 57.6369,
      "duration": 0.0622,
      "velocity": 114,
      "chip": "ym2612"
    },
    {
      "channel": 0,
      "note": 70,
      "start": 57.7495,
      "duration": 0.0659,
      "velocity": 93,
      "chip": "ym2612"
    },
    {
      "channel": 1,
      "note": 75,
      "start": 57.75,
      "duration": 0.0656,
      "velocity": 93,
      "chip": "ym2612"
    },
    {
      "channel": 2,
      "note": 69,
      "start": 57.7536,
      "duration": 0.0622,
      "velocity": 114,
      "chip": "ym2612"
    },
    {
      "channel": 0,
      "note": 75,
      "start": 57.8662,
      "duration": 0.0658,
      "velocity": 93,
      "chip": "ym2612"
    },
    {
      "channel": 1,
      "note": 78,
      "start": 57.8667,
      "duration": 0.0655,
      "velocity": 93,
      "chip": "ym2612"
    },
    {
      "channel": 2,
      "note": 69,
      "start": 57.8703,
      "duration": 0.0621,
      "velocity": 114,
      "chip": "ym2612"
    },
    {
      "channel": 4,
      "note": 90,
      "start": 57.8709,
      "duration": 0.4632,
      "velocity": 94,
      "chip": "ym2612"
    },
    {
      "channel": 0,
      "note": 75,
      "start": 57.9829,
      "duration": 0.0658,
      "velocity": 93,
      "chip": "ym2612"
    },
    {
      "channel": 1,
      "note": 78,
      "start": 57.9834,
      "duration": 0.0655,
      "velocity": 93,
      "chip": "ym2612"
    },
    {
      "channel": 2,
      "note": 69,
      "start": 57.987,
      "duration": 0.0621,
      "velocity": 114,
      "chip": "ym2612"
    },
    {
      "channel": 5,
      "note": 90,
      "start": 57.9879,
      "duration": 0.5799,
      "velocity": 94,
      "chip": "ym2612"
    },
    {
      "channel": 0,
      "note": 70,
      "start": 58.0994,
      "duration": 0.0659,
      "velocity": 93,
      "chip": "ym2612"
    },
    {
      "channel": 1,
      "note": 75,
      "start": 58.1,
      "duration": 0.0656,
      "velocity": 93,
      "chip": "ym2612"
    },
    {
      "channel": 2,
      "note": 69,
      "start": 58.1006,
      "duration": 0.0651,
      "velocity": 114,
      "chip": "ym2612"
    },
    {
      "channel": 0,
      "note": 70,
      "start": 58.2161,
      "duration": 0.0659,
      "velocity": 93,
      "chip": "ym2612"
    },
    {
      "channel": 1,
      "note": 75,
      "start": 58.2166,
      "duration": 0.0656,
      "velocity": 93,
      "chip": "ym2612"
    },
    {
      "channel": 2,
      "note": 69,
      "start": 58.2173,
      "duration": 0.0651,
      "velocity": 114,
      "chip": "ym2612"
    },
    {
      "channel": 0,
      "note": 70,
      "start": 58.3328,
      "duration": 0.0659,
      "velocity": 93,
      "chip": "ym2612"
    },
    {
      "channel": 1,
      "note": 73,
      "start": 58.3333,
      "duration": 0.0656,
      "velocity": 93,
      "chip": "ym2612"
    },
    {
      "channel": 2,
      "note": 69,
      "start": 58.3339,
      "duration": 0.0651,
      "velocity": 114,
      "chip": "ym2612"
    },
    {
      "channel": 0,
      "note": 70,
      "start": 58.4493,
      "duration": 0.0661,
      "velocity": 93,
      "chip": "ym2612"
    },
    {
      "channel": 1,
      "note": 73,
      "start": 58.4499,
      "duration": 0.0657,
      "velocity": 93,
      "chip": "ym2612"
    },
    {
      "channel": 0,
      "note": 63,
      "start": 58.5661,
      "duration": 0.0659,
      "velocity": 93,
      "chip": "ym2612"
    },
    {
      "channel": 1,
      "note": 70,
      "start": 58.5666,
      "duration": 0.0656,
      "velocity": 93,
      "chip": "ym2612"
    },
    {
      "channel": 2,
      "note": 69,
      "start": 58.5673,
      "duration": 0.0651,
      "velocity": 114,
      "chip": "ym2612"
    },
    {
      "channel": 0,
      "note": 63,
      "start": 58.6827,
      "duration": 0.066,
      "velocity": 93,
      "chip": "ym2612"
    },
    {
      "channel": 1,
      "note": 70,
      "start": 58.6833,
      "duration": 0.0656,
      "velocity": 93,
      "chip": "ym2612"
    },
    {
      "channel": 2,
      "note": 69,
      "start": 58.6839,
      "duration": 0.0651,
      "velocity": 114,
      "chip": "ym2612"
    },
    {
      "channel": 0,
      "note": 70,
      "start": 58.7994,
      "duration": 0.066,
      "velocity": 93,
      "chip": "ym2612"
    },
    {
      "channel": 1,
      "note": 73,
      "start": 58.8,
      "duration": 0.0656,
      "velocity": 93,
      "chip": "ym2612"
    },
    {
      "channel": 2,
      "note": 69,
      "start": 58.8006,
      "duration": 0.0652,
      "velocity": 114,
      "chip": "ym2612"
    },
    {
      "channel": 0,
      "note": 70,
      "start": 58.9161,
      "duration": 0.066,
      "velocity": 93,
      "chip": "ym2612"
    },
    {
      "channel": 1,
      "note": 73,
      "start": 58.9166,
      "duration": 0.0656,
      "velocity": 93,
      "chip": "ym2612"
    },
    {
      "channel": 2,
      "note": 69,
      "start": 58.9173,
      "duration": 0.0652,
      "velocity": 114,
      "chip": "ym2612"
    },
    {
      "channel": 0,
      "note": 63,
      "start": 59.0328,
      "duration": 0.066,
      "velocity": 93,
      "chip": "ym2612"
    },
    {
      "channel": 1,
      "note": 70,
      "start": 59.0333,
      "duration": 0.0656,
      "velocity": 93,
      "chip": "ym2612"
    },
    {
      "channel": 2,
      "note": 69,
      "start": 59.0339,
      "duration": 0.0652,
      "velocity": 114,
      "chip": "ym2612"
    },
    {
      "channel": 0,
      "note": 63,
      "start": 59.1494,
      "duration": 0.066,
      "velocity": 93,
      "chip": "ym2612"
    },
    {
      "channel": 1,
      "note": 70,
      "start": 59.15,
      "duration": 0.0656,
      "velocity": 93,
      "chip": "ym2612"
    },
    {
      "channel": 2,
      "note": 69,
      "start": 59.1506,
      "duration": 0.0652,
      "velocity": 114,
      "chip": "ym2612"
    },
    {
      "channel": 0,
      "note": 63,
      "start": 59.2661,
      "duration": 0.066,
      "velocity": 93,
      "chip": "ym2612"
    },
    {
      "channel": 1,
      "note": 66,
      "start": 59.2666,
      "duration": 0.0656,
      "velocity": 93,
      "chip": "ym2612"
    },
    {
      "channel": 2,
      "note": 69,
      "start": 59.2673,
      "duration": 0.0652,
      "velocity": 114,
      "chip": "ym2612"
    },
    {
      "channel": 0,
      "note": 63,
      "start": 59.3827,
      "duration": 0.066,
      "velocity": 93,
      "chip": "ym2612"
    },
    {
      "channel": 1,
      "note": 66,
      "start": 59.3832,
      "duration": 0.0657,
      "velocity": 93,
      "chip": "ym2612"
    },
    {
      "channel": 2,
      "note": 69,
      "start": 59.3839,
      "duration": 0.0653,
      "velocity": 114,
      "chip": "ym2612"
    },
    {
      "channel": 0,
      "note": 58,
      "start": 59.4994,
      "duration": 0.0659,
      "velocity": 93,
      "chip": "ym2612"
    },
    {
      "channel": 1,
      "note": 63,
      "start": 59.5,
      "duration": 0.0656,
      "velocity": 93,
      "chip": "ym2612"
    },
    {
      "channel": 2,
      "note": 69,
      "start": 59.5035,
      "duration": 0.0622,
      "velocity": 114,
      "chip": "ym2612"
    },
    {
      "channel": 0,
      "note": 58,
      "start": 59.6161,
      "duration": 0.0826,
      "velocity": 93,
      "chip": "ym2612"
    },
    {
      "channel": 1,
      "note": 63,
      "start": 59.6167,
      "duration": 0.0822,
      "velocity": 93,
      "chip": "ym2612"
    },
    {
      "channel": 2,
      "note": 69,
      "start": 59.6202,
      "duration": 0.062,
      "velocity": 114,
      "chip": "ym2612"
    },
    {
      "channel": 0,
      "note": 85,
      "start": 59.7329,
      "duration": 0.3499,
      "velocity": 93,
      "chip": "ym2612"
    },
    {
      "channel": 2,
      "note": 69,
      "start": 59.7366,
      "duration": 0.0622,
      "velocity": 114,
      "chip": "ym2612"
    },
    {
      "channel": 3,
      "note": 38,
      "start": 59.7372,
      "duration": 3.7332,
      "velocity": 28,
      "chip": "ym2612"
    },
    {
      "channel": 4,
      "note": 68,
      "start": 59.7408,
      "duration": 1.8629,
      "velocity": 28,
      "chip": "ym2612"
    },
    {
      "channel": 1,
      "note": 80,
      "start": 59.8494,
      "duration": 0.1167,
      "velocity": 93,
      "chip": "ym2612"
    },
    {
      "channel": 2,
      "note": 69,
      "start": 59.853,
      "duration": 0.0625,
      "velocity": 114,
      "chip": "ym2612"
    },
    {
      "channel": 1,
      "note": 78,
      "start": 59.9661,
      "duration": 0.2332,
      "velocity": 93,
      "chip": "ym2612"
    },
    {
      "channel": 2,
      "note": 69,
      "start": 59.9697,
      "duration": 0.0625,
      "velocity": 114,
      "chip": "ym2612"
    },
    {
      "channel": 0,
      "note": 83,
      "start": 60.0829,
      "duration": 0.3497,
      "velocity": 93,
      "chip": "ym2612"
    },
    {
      "channel": 2,
      "note": 69,
      "start": 60.0865,
      "duration": 0.0623,
      "velocity": 114,
      "chip": "ym2612"
    },
    {
      "channel": 5,
      "note": 68,
      "start": 60.0904,
      "duration": 1.8635,
      "velocity": 28,
      "chip": "ym2612"
    },
    {
      "channel": 1,
      "note": 80,
      "start": 60.1993,
      "duration": 0.1167,
      "velocity": 93,
      "chip": "ym2612"
    },
    {
      "channel": 2,
      "note": 69,
      "start": 60.2,
      "duration": 0.0656,
      "velocity": 114,
      "chip": "ym2612"
    },
    {
      "channel": 1,
      "note": 78,
      "start": 60.3161,
      "duration": 0.2332,
      "velocity": 93,
      "chip": "ym2612"
    },
    {
      "channel": 2,
      "note": 69,
      "start": 60.3167,
      "duration": 0.0655,
      "velocity": 114,
      "chip": "ym2612"
    },
    {
      "channel": 0,
      "note": 90,
      "start": 60.4326,
      "duration": 0.35,
      "velocity": 93,
      "chip": "ym2612"
    },
    {
      "channel": 2,
      "note": 69,
      "start": 60.4333,
      "duration": 0.0655,
      "velocity": 114,
      "chip": "ym2612"
    },
    {
      "channel": 1,
      "note": 85,
      "start": 60.5493,
      "duration": 0.1167,
      "velocity": 93,
      "chip": "ym2612"
    },
    {
      "channel": 2,
      "note": 69,
      "start": 60.55,
      "duration": 0.0656,
      "velocity": 114,
      "chip": "ym2612"
    },
    {
      "channel": 1,
      "note": 83,
      "start": 60.6661,
      "duration": 0.2333,
      "velocity": 93,
      "chip": "ym2612"
    },
    {
      "channel": 2,
      "note": 69,
      "start": 60.6667,
      "duration": 0.0655,
      "velocity": 114,
      "chip": "ym2612"
    },
    {
      "channel": 0,
      "note": 85,
      "start": 60.7826,
      "duration": 0.35,
      "velocity": 93,
      "chip": "ym2612"
    },
    {
      "channel": 2,
      "note": 69,
      "start": 60.7833,
      "duration": 0.0655,
      "velocity": 114,
      "chip": "ym2612"
    },
    {
      "channel": 1,
      "note": 80,
      "start": 60.8994,
      "duration": 0.1166,
      "velocity": 93,
      "chip": "ym2612"
    },
    {
      "channel": 2,
      "note": 69,
      "start": 60.9,
      "duration": 0.0655,
      "velocity": 114,
      "chip": "ym2612"
    },
    {
      "channel": 1,
      "note": 78,
      "start": 61.016,
      "duration": 0.2333,
      "velocity": 93,
      "chip": "ym2612"
    },
    {
      "channel": 2,
      "note": 69,
      "start": 61.0167,
      "duration": 0.0655,
      "velocity": 114,
      "chip": "ym2612"
    },
    {
      "channel": 0,
      "note": 83,
      "start": 61.1326,
      "duration": 0.2333,
      "velocity": 93,
      "chip": "ym2612"
    },
    {
      "channel": 2,
      "note": 69,
      "start": 61.1333,
      "duration": 0.0655,
      "velocity": 114,
      "chip": "ym2612"
    },
    {
      "channel": 1,
      "note": 80,
      "start": 61.2494,
      "duration": 0.2333,
      "velocity": 93,
      "chip": "ym2612"
    },
    {
      "channel": 2,
      "note": 69,
      "start": 61.25,
      "duration": 0.0656,
      "velocity": 114,
      "chip": "ym2612"
    },
    {
      "channel": 0,
      "note": 78,
      "start": 61.366,
      "duration": 0.2334,
      "velocity": 93,
      "chip": "ym2612"
    },
    {
      "channel": 2,
      "note": 69,
      "start": 61.3697,
      "duration": 0.0625,
      "velocity": 114,
      "chip": "ym2612"
    },
    {
      "channel": 1,
      "note": 73,
      "start": 61.4828,
      "duration": 0.2333,
      "velocity": 93,
      "chip": "ym2612"
    },
    {
      "channel": 2,
      "note": 69,
      "start": 61.4863,
      "duration": 0.0625,
      "velocity": 114,
      "chip": "ym2612"
    },
    {
      "channel": 0,
      "note": 85,
      "start": 61.5994,
      "duration": 0.35,
      "velocity": 93,
      "chip": "ym2612"
    },
    {
      "channel": 2,
      "note": 69,
      "start": 61.6031,
      "duration": 0.0624,
      "velocity": 114,
      "chip": "ym2612"
    },
    {
      "channel": 4,
      "note": 69,
      "start": 61.6038,
      "duration": 0.9303,
      "velocity": 28,
      "chip": "ym2612"
    },
    {
      "channel": 1,
      "note": 80,
      "start": 61.7161,
      "duration": 0.1166,
      "velocity": 93,
      "chip": "ym2612"
    },
    {
      "channel": 2,
      "note": 69,
      "start": 61.7197,
      "duration": 0.0625,
      "velocity": 114,
      "chip": "ym2612"
    },
    {
      "channel": 1,
      "note": 78,
      "start": 61.8328,
      "duration": 0.2332,
      "velocity": 93,
      "chip": "ym2612"
    },
    {
      "channel": 2,
      "note": 69,
      "start": 61.8363,
      "duration": 0.0625,
      "velocity": 114,
      "chip": "ym2612"
    },
    {
      "channel": 0,
      "note": 83,
      "start": 61.9494,
      "duration": 0.3499,
      "velocity": 93,
      "chip": "ym2612"
    },
    {
      "channel": 2,
      "note": 69,
      "start": 61.953,
      "duration": 0.0625,
      "velocity": 114,
      "chip": "ym2612"
    },
    {
      "channel": 5,
      "note": 69,
      "start": 61.954,
      "duration": 0.9297,
      "velocity": 28,
      "chip": "ym2612"
    },
    {
      "channel": 1,
      "note": 80,
      "start": 62.066,
      "duration": 0.1166,
      "velocity": 93,
      "chip": "ym2612"
    },
    {
      "channel": 2,
      "note": 69,
      "start": 62.0666,
      "duration": 0.0656,
      "velocity": 114,
      "chip": "ym2612"
    },
    {
      "channel": 1,
      "note": 78,
      "start": 62.1826,
      "duration": 0.2334,
      "velocity": 93,
      "chip": "ym2612"
    },
    {
      "channel": 0,
      "note": 90,
      "start": 62.2993,
      "duration": 0.35,
      "velocity": 93,
      "chip": "ym2612"
    },
    {
      "channel": 2,
      "note": 69,
      "start": 62.3,
      "duration": 0.0655,
      "velocity": 114,
      "chip": "ym2612"
    },
    {
      "channel": 1,
      "note": 85,
      "start": 62.416,
      "duration": 0.1167,
      "velocity": 93,
      "chip": "ym2612"
    },
    {
      "channel": 2,
      "note": 69,
      "start": 62.4166,
      "duration": 0.0656,
      "velocity": 114,
      "chip": "ym2612"
    },
    {
      "channel": 1,
      "note": 83,
      "start": 62.5328,
      "duration": 0.2332,
      "velocity": 93,
      "chip": "ym2612"
    },
    {
      "channel": 2,
      "note": 69,
      "start": 62.5333,
      "duration": 0.0655,
      "velocity": 114,
      "chip": "ym2612"
    },
    {
      "channel": 4,
      "note": 71,
      "start": 62.5341,
      "duration": 0.9369,
      "velocity": 28,
      "chip": "ym2612"
    },
    {
      "channel": 0,
      "note": 85,
      "start": 62.6493,
      "duration": 0.35,
      "velocity": 93,
      "chip": "ym2612"
    },
    {
      "channel": 2,
      "note": 69,
      "start": 62.65,
      "duration": 0.0656,
      "velocity": 114,
      "chip": "ym2612"
    },
    {
      "channel": 1,
      "note": 80,
      "start": 62.766,
      "duration": 0.1166,
      "velocity": 93,
      "chip": "ym2612"
    },
    {
      "channel": 2,
      "note": 69,
      "start": 62.7666,
      "duration": 0.0655,
      "velocity": 114,
      "chip": "ym2612"
    },
    {
      "channel": 1,
      "note": 78,
      "start": 62.8827,
      "duration": 0.2333,
      "velocity": 93,
      "chip": "ym2612"
    },
    {
      "channel": 5,
      "note": 71,
      "start": 62.8837,
      "duration": 0.937,
      "velocity": 28,
      "chip": "ym2612"
    },
    {
      "channel": 0,
      "note": 83,
      "start": 62.9993,
      "duration": 0.2333,
      "velocity": 93,
      "chip": "ym2612"
    },
    {
      "channel": 2,
      "note": 69,
      "start": 63.0,
      "duration": 0.0655,
      "velocity": 114,
      "chip": "ym2612"
    },
    {
      "channel": 1,
      "note": 80,
      "start": 63.116,
      "duration": 0.2333,
      "velocity": 93,
      "chip": "ym2612"
    },
    {
      "channel": 2,
      "note": 69,
      "start": 63.1166,
      "duration": 0.0656,
      "velocity": 114,
      "chip": "ym2612"
    },
    {
      "channel": 0,
      "note": 78,
      "start": 63.2326,
      "duration": 0.2335,
      "velocity": 93,
      "chip": "ym2612"
    },
    {
      "channel": 2,
      "note": 69,
      "start": 63.2333,
      "duration": 0.0655,
      "velocity": 114,
      "chip": "ym2612"
    },
    {
      "channel": 1,
      "note": 73,
      "start": 63.3494,
      "duration": 0.2334,
      "velocity": 93,
      "chip": "ym2612"
    },
    {
      "channel": 2,
      "note": 69,
      "start": 63.35,
      "duration": 0.0656,
      "velocity": 114,
      "chip": "ym2612"
    },
    {
      "channel": 0,
      "note": 87,
      "start": 63.4662,
      "duration": 0.3499,
      "velocity": 93,
      "chip": "ym2612"
    },
    {
      "channel": 2,
      "note": 69,
      "start": 63.4698,
      "duration": 0.0624,
      "velocity": 114,
      "chip": "ym2612"
    },
    {
      "channel": 3,
      "note": 37,
      "start": 63.4704,
      "duration": 3.7333,
      "velocity": 28,
      "chip": "ym2612"
    },
    {
      "channel": 4,
      "note": 73,
      "start": 63.471,
      "duration": 3.7333,
      "velocity": 28,
      "chip": "ym2612"
    },
    {
      "channel": 1,
      "note": 83,
      "start": 63.5828,
      "duration": 0.1166,
      "velocity": 93,
      "chip": "ym2612"
    },
    {
      "channel": 2,
      "note": 69,
      "start": 63.5863,
      "duration": 0.0625,
      "velocity": 114,
      "chip": "ym2612"
    },
    {
      "channel": 1,
      "note": 80,
      "start": 63.6994,
      "duration": 0.2332,
      "velocity": 93,
      "chip": "ym2612"
    },
    {
      "channel": 2,
      "note": 69,
      "start": 63.703,
      "duration": 0.0625,
      "velocity": 114,
      "chip": "ym2612"
    },
    {
      "channel": 0,
      "note": 85,
      "start": 63.8161,
      "duration": 0.3499,
      "velocity": 93,
      "chip": "ym2612"
    },
    {
      "channel": 2,
      "note": 69,
      "start": 63.8197,
      "duration": 0.0625,
      "velocity": 114,
      "chip": "ym2612"
    },
    {
      "channel": 5,
      "note": 73,
      "start": 63.8207,
      "duration": 3.7333,
      "velocity": 28,
      "chip": "ym2612"
    },
    {
      "channel": 1,
      "note": 83,
      "start": 63.9327,
      "duration": 0.1167,
      "velocity": 93,
      "chip": "ym2612"
    },
    {
      "channel": 2,
      "note": 69,
      "start": 63.9333,
      "duration": 0.0655,
      "velocity": 114,
      "chip": "ym2612"
    },
    {
      "channel": 1,
      "note": 80,
      "start": 64.0494,
      "duration": 0.2332,
      "velocity": 93,
      "chip": "ym2612"
    },
    {
      "channel": 2,
      "note": 69,
      "start": 64.05,
      "duration": 0.0655,
      "velocity": 114,
      "chip": "ym2612"
    },
    {
      "channel": 0,
      "note": 92,
      "start": 64.166,
      "duration": 0.35,
      "velocity": 93,
      "chip": "ym2612"
    },
    {
      "channel": 2,
      "note": 69,
      "start": 64.1667,
      "duration": 0.0655,
      "velocity": 114,
      "chip": "ym2612"
    },
    {
      "channel": 1,
      "note": 87,
      "start": 64.2827,
      "duration": 0.1167,
      "velocity": 93,
      "chip": "ym2612"
    },
    {
      "channel": 2,
      "note": 69,
      "start": 64.2833,
      "duration": 0.0656,
      "velocity": 114,
      "chip": "ym2612"
    },
    {
      "channel": 1,
      "note": 85,
      "start": 64.3994,
      "duration": 0.2333,
      "velocity": 93,
      "chip": "ym2612"
    },
    {
      "channel": 2,
      "note": 69,
      "start": 64.4,
      "duration": 0.0655,
      "velocity": 114,
      "chip": "ym2612"
    },
    {
      "channel": 0,
      "note": 87,
      "start": 64.516,
      "duration": 0.35,
      "velocity": 93,
      "chip": "ym2612"
    },
    {
      "channel": 2,
      "note": 69,
      "start": 64.5167,
      "duration": 0.0655,
      "velocity": 114,
      "chip": "ym2612"
    },
    {
      "channel": 1,
      "note": 83,
      "start": 64.6328,
      "duration": 0.1166,
      "velocity": 93,
      "chip": "ym2612"
    },
    {
      "channel": 2,
      "note": 69,
      "start": 64.6333,
      "duration": 0.0655,
      "velocity": 114,
      "chip": "ym2612"
    },
    {
      "channel": 1,
      "note": 80,
      "start": 64.7494,
      "duration": 0.2332,
      "velocity": 93,
      "chip": "ym2612"
    },
    {
      "channel": 2,
      "note": 69,
      "start": 64.75,
      "duration": 0.0655,
      "velocity": 114,
      "chip": "ym2612"
    },
    {
      "channel": 0,
      "note": 85,
      "start": 64.866,
      "duration": 0.2333,
      "velocity": 93,
      "chip": "ym2612"
    },
    {
      "channel": 2,
      "note": 69,
      "start": 64.8667,
      "duration": 0.0655,
      "velocity": 114,
      "chip": "ym2612"
    },
    {
      "channel": 1,
      "note": 78,
      "start": 64.9827,
      "duration": 0.2334,
      "velocity": 93,
      "chip": "ym2612"
    },
    {
      "channel": 2,
      "note": 69,
      "start": 64.9833,
      "duration": 0.0656,
      "velocity": 114,
      "chip": "ym2612"
    },
    {
      "channel": 0,
      "note": 80,
      "start": 65.0993,
      "duration": 0.2333,
      "velocity": 93,
      "chip": "ym2612"
    },
    {
      "channel": 2,
      "note": 69,
      "start": 65.103,
      "duration": 0.0625,
      "velocity": 114,
      "chip": "ym2612"
    },
    {
      "channel": 1,
      "note": 75,
      "start": 65.2161,
      "duration": 0.2333,
      "velocity": 93,
      "chip": "ym2612"
    },
    {
      "channel": 2,
      "note": 69,
      "start": 65.2197,
      "duration": 0.0625,
      "velocity": 114,
      "chip": "ym2612"
    },
    {
      "channel": 0,
      "note": 87,
      "start": 65.3327,
      "duration": 0.3499,
      "velocity": 93,
      "chip": "ym2612"
    },
    {
      "channel": 2,
      "note": 69,
      "start": 65.3363,
      "duration": 0.0625,
      "velocity": 114,
      "chip": "ym2612"
    },
    {
      "channel": 1,
      "note": 83,
      "start": 65.4494,
      "duration": 0.1167,
      "velocity": 93,
      "chip": "ym2612"
    },
    {
      "channel": 2,
      "note": 69,
      "start": 65.4529,
      "duration": 0.0626,
      "velocity": 114,
      "chip": "ym2612"
    },
    {
      "channel": 1,
      "note": 80,
      "start": 65.5661,
      "duration": 0.2332,
      "velocity": 93,
      "chip": "ym2612"
    },
    {
      "channel": 2,
      "note": 69,
      "start": 65.5697,
      "duration": 0.0625,
      "velocity": 114,
      "chip": "ym2612"
    },
    {
      "channel": 0,
      "note": 85,
      "start": 65.6826,
      "duration": 0.35,
      "velocity": 93,
      "chip": "ym2612"
    },
    {
      "channel": 2,
      "note": 69,
      "start": 65.6863,
      "duration": 0.0626,
      "velocity": 114,
      "chip": "ym2612"
    },
    {
      "channel": 1,
      "note": 83,
      "start": 65.7993,
      "duration": 0.1166,
      "velocity": 93,
      "chip": "ym2612"
    },
    {
      "channel": 2,
      "note": 69,
      "start": 65.8,
      "duration": 0.0656,
      "velocity": 114,
      "chip": "ym2612"
    },
    {
      "channel": 1,
      "note": 80,
      "start": 65.9159,
      "duration": 0.2334,
      "velocity": 93,
      "chip": "ym2612"
    },
    {
      "channel": 0,
      "note": 92,
      "start": 66.0326,
      "duration": 0.35,
      "velocity": 93,
      "chip": "ym2612"
    },
    {
      "channel": 2,
      "note": 69,
      "start": 66.0333,
      "duration": 0.0655,
      "velocity": 114,
      "chip": "ym2612"
    },
    {
      "channel": 1,
      "note": 87,
      "start": 66.1494,
      "duration": 0.1166,
      "velocity": 93,
      "chip": "ym2612"
    },
    {
      "channel": 2,
      "note": 69,
      "start": 66.15,
      "duration": 0.0656,
      "velocity": 114,
      "chip": "ym2612"
    },
    {
      "channel": 1,
      "note": 85,
      "start": 66.266,
      "duration": 0.2333,
      "velocity": 93,
      "chip": "ym2612"
    },
    {
      "channel": 2,
      "note": 69,
      "start": 66.2666,
      "duration": 0.0656,
      "velocity": 114,
      "chip": "ym2612"
    },
    {
      "channel": 0,
      "note": 87,
      "start": 66.3826,
      "duration": 0.35,
      "velocity": 93,
      "chip": "ym2612"
    },
    {
      "channel": 2,
      "note": 69,
      "start": 66.3833,
      "duration": 0.0656,
      "velocity": 114,
      "chip": "ym2612"
    },
    {
      "channel": 1,
      "note": 83,
      "start": 66.4994,
      "duration": 0.1166,
      "velocity": 93,
      "chip": "ym2612"
    },
    {
      "channel": 2,
      "note": 69,
      "start": 66.5,
      "duration": 0.0656,
      "velocity": 114,
      "chip": "ym2612"
    },
    {
      "channel": 1,
      "note": 80,
      "start": 66.6159,
      "duration": 0.2334,
      "velocity": 93,
      "chip": "ym2612"
    },
    {
      "channel": 0,
      "note": 85,
      "start": 66.7326,
      "duration": 0.2333,
      "velocity": 93,
      "chip": "ym2612"
    },
    {
      "channel": 2,
      "note": 69,
      "start": 66.7333,
      "duration": 0.0655,
      "velocity": 114,
      "chip": "ym2612"
    },
    {
      "channel": 1,
      "note": 78,
      "start": 66.8494,
      "duration": 0.2333,
      "velocity": 93,
      "chip": "ym2612"
    },
    {
      "channel": 2,
      "note": 69,
      "start": 66.85,
      "duration": 0.0656,
      "velocity": 114,
      "chip": "ym2612"
    },
    {
      "channel": 0,
      "note": 80,
      "start": 66.9659,
      "duration": 0.2335,
      "velocity": 93,
      "chip": "ym2612"
    },
    {
      "channel": 2,
      "note": 69,
      "start": 66.9666,
      "duration": 0.0655,
      "velocity": 114,
      "chip": "ym2612"
    },
    {
      "channel": 1,
      "note": 75,
      "start": 67.0827,
      "duration": 0.2333,
      "velocity": 93,
      "chip": "ym2612"
    },
    {
      "channel": 2,
      "note": 69,
      "start": 67.0833,
      "duration": 0.0656,
      "velocity": 114,
      "chip": "ym2612"
    },
    {
      "channel": 0,
      "note": 85,
      "start": 67.1995,
      "duration": 0.3499,
      "velocity": 93,
      "chip": "ym2612"
    },
    {
      "channel": 2,
      "note": 69,
      "start": 67.2031,
      "duration": 0.0624,
      "velocity": 114,
      "chip": "ym2612"
    },
    {
      "channel": 3,
      "note": 40,
      "start": 67.2038,
      "duration": 3.7333,
      "velocity": 28,
      "chip": "ym2612"
    },
    {
      "channel": 4,
      "note": 76,
      "start": 67.2044,
      "duration": 2.3296,
      "velocity": 28,
      "chip": "ym2612"
    },
    {
      "channel": 1,
      "note": 83,
      "start": 67.3161,
      "duration": 0.1167,
      "velocity": 93,
      "chip": "ym2612"
    },
    {
      "channel": 2,
      "note": 69,
      "start": 67.3197,
      "duration": 0.0625,
      "velocity": 114,
      "chip": "ym2612"
    },
    {
      "channel": 1,
      "note": 80,
      "start": 67.4328,
      "duration": 0.2332,
      "velocity": 93,
      "chip": "ym2612"
    },
    {
      "channel": 2,
      "note": 69,
      "start": 67.4363,
      "duration": 0.0625,
      "velocity": 114,
      "chip": "ym2612"
    },
    {
      "channel": 0,
      "note": 83,
      "start": 67.5494,
      "duration": 0.3499,
      "velocity": 93,
      "chip": "ym2612"
    },
    {
      "channel": 2,
      "note": 69,
      "start": 67.5531,
      "duration": 0.0624,
      "velocity": 114,
      "chip": "ym2612"
    },
    {
      "channel": 5,
      "note": 76,
      "start": 67.554,
      "duration": 2.3303,
      "velocity": 28,
      "chip": "ym2612"
    },
    {
      "channel": 1,
      "note": 80,
      "start": 67.666,
      "duration": 0.1167,
      "velocity": 93,
      "chip": "ym2612"
    },
    {
      "channel": 2,
      "note": 69,
      "start": 67.6666,
      "duration": 0.0656,
      "velocity": 114,
      "chip": "ym2612"
    },
    {
      "channel": 1,
      "note": 78,
      "start": 67.7828,
      "duration": 0.2332,
      "velocity": 93,
      "chip": "ym2612"
    },
    {
      "channel": 2,
      "note": 69,
      "start": 67.7833,
      "duration": 0.0655,
      "velocity": 114,
      "chip": "ym2612"
    },
    {
      "channel": 0,
      "note": 88,
      "start": 67.8993,
      "duration": 0.35,
      "velocity": 93,
      "chip": "ym2612"
    },
    {
      "channel": 2,
      "note": 69,
      "start": 67.9,
      "duration": 0.0655,
      "velocity": 114,
      "chip": "ym2612"
    },
    {
      "channel": 1,
      "note": 86,
      "start": 68.016,
      "duration": 0.1167,
      "velocity": 93,
      "chip": "ym2612"
    },
    {
      "channel": 2,
      "note": 69,
      "start": 68.0166,
      "duration": 0.0656,
      "velocity": 114,
      "chip": "ym2612"
    },
    {
      "channel": 1,
      "note": 83,
      "start": 68.1328,
      "duration": 0.2333,
      "velocity": 93,
      "chip": "ym2612"
    },
    {
      "channel": 2,
      "note": 69,
      "start": 68.1333,
      "duration": 0.0655,
      "velocity": 114,
      "chip": "ym2612"
    },
    {
      "channel": 0,
      "note": 86,
      "start": 68.2493,
      "duration": 0.35,
      "velocity": 93,
      "chip": "ym2612"
    },
    {
      "channel": 2,
      "note": 69,
      "start": 68.25,
      "duration": 0.0655,
      "velocity": 114,
      "chip": "ym2612"
    },
    {
      "channel": 1,
      "note": 83,
      "start": 68.3661,
      "duration": 0.1166,
      "velocity": 93,
      "chip": "ym2612"
    },
    {
      "channel": 2,
      "note": 69,
      "start": 68.3667,
      "duration": 0.0655,
      "velocity": 114,
      "chip": "ym2612"
    },
    {
      "channel": 1,
      "note": 80,
      "start": 68.4828,
      "duration": 0.2332,
      "velocity": 93,
      "chip": "ym2612"
    },
    {
      "channel": 2,
      "note": 69,
      "start": 68.4833,
      "duration": 0.0655,
      "velocity": 114,
      "chip": "ym2612"
    },
    {
      "channel": 0,
      "note": 83,
      "start": 68.5993,
      "duration": 0.2333,
      "velocity": 93,
      "chip": "ym2612"
    },
    {
      "channel": 2,
      "note": 69,
      "start": 68.6,
      "duration": 0.0655,
      "velocity": 114,
      "chip": "ym2612"
    },
    {
      "channel": 1,
      "note": 78,
      "start": 68.716,
      "duration": 0.2334,
      "velocity": 93,
      "chip": "ym2612"
    },
    {
      "channel": 2,
      "note": 69,
      "start": 68.7166,
      "duration": 0.0656,
      "velocity": 114,
      "chip": "ym2612"
    },
    {
      "channel": 0,
      "note": 80,
      "start": 68.8327,
      "duration": 0.2333,
      "velocity": 93,
      "chip": "ym2612"
    },
    {
      "channel": 2,
      "note": 69,
      "start": 68.8363,
      "duration": 0.0625,
      "velocity": 114,
      "chip": "ym2612"
    },
    {
      "channel": 1,
      "note": 76,
      "start": 68.9495,
      "duration": 0.2332,
      "velocity": 93,
      "chip": "ym2612"
    },
    {
      "channel": 2,
      "note": 69,
      "start": 68.9531,
      "duration": 0.0625,
      "velocity": 114,
      "chip": "ym2612"
    },
    {
      "channel": 0,
      "note": 85,
      "start": 69.066,
      "duration": 0.3499,
      "velocity": 93,
      "chip": "ym2612"
    },
    {
      "channel": 2,
      "note": 69,
      "start": 69.0697,
      "duration": 0.0625,
      "velocity": 114,
      "chip": "ym2612"
    },
    {
      "channel": 1,
      "note": 83,
      "start": 69.1827,
      "duration": 0.1167,
      "velocity": 93,
      "chip": "ym2612"
    },
    {
      "channel": 2,
      "note": 69,
      "start": 69.1863,
      "duration": 0.0626,
      "velocity": 114,
      "chip": "ym2612"
    },
    {
      "channel": 1,
      "note": 80,
      "start": 69.2994,
      "duration": 0.2333,
      "velocity": 93,
      "chip": "ym2612"
    },
    {
      "channel": 2,
      "note": 69,
      "start": 69.303,
      "duration": 0.0625,
      "velocity": 114,
      "chip": "ym2612"
    },
    {
      "channel": 0,
      "note": 83,
      "start": 69.416,
      "duration": 0.35,
      "velocity": 93,
      "chip": "ym2612"
    },
    {
      "channel": 2,
      "note": 69,
      "start": 69.4196,
      "duration": 0.0626,
      "velocity": 114,
      "chip": "ym2612"
    },
    {
      "channel": 1,
      "note": 80,
      "start": 69.5327,
      "duration": 0.1166,
      "velocity": 93,
      "chip": "ym2612"
    },
    {
      "channel": 2,
      "note": 69,
      "start": 69.5333,
      "duration": 0.0655,
      "velocity": 114,
      "chip": "ym2612"
    },
    {
      "channel": 4,
      "note": 74,
      "start": 69.534,
      "duration": 0.4667,
      "velocity": 28,
      "chip": "ym2612"
    },
    {
      "channel": 1,
      "note": 78,
      "start": 69.6493,
      "duration": 0.2334,
      "velocity": 93,
      "chip": "ym2612"
    },
    {
      "channel": 0,
      "note": 88,
      "start": 69.766,
      "duration": 0.35,
      "velocity": 93,
      "chip": "ym2612"
    },
    {
      "channel": 2,
      "note": 69,
      "start": 69.7667,
      "duration": 0.0655,
      "velocity": 114,
      "chip": "ym2612"
    },
    {
      "channel": 1,
      "note": 86,
      "start": 69.8827,
      "duration": 0.1167,
      "velocity": 93,
      "chip": "ym2612"
    },
    {
      "channel": 2,
      "note": 69,
      "start": 69.8833,
      "duration": 0.0655,
      "velocity": 114,
      "chip": "ym2612"
    },
    {
      "channel": 5,
      "note": 74,
      "start": 69.8843,
      "duration": 0.4661,
      "velocity": 28,
      "chip": "ym2612"
    },
    {
      "channel": 1,
      "note": 83,
      "start": 69.9994,
      "duration": 0.2332,
      "velocity": 93,
      "chip": "ym2612"
    },
    {
      "channel": 2,
      "note": 69,
      "start": 70.0,
      "duration": 0.0655,
      "velocity": 114,
      "chip": "ym2612"
    },
    {
      "channel": 4,
      "note": 73,
      "start": 70.0008,
      "duration": 0.4665,
      "velocity": 28,
      "chip": "ym2612"
    },
    {
      "channel": 0,
      "note": 86,
      "start": 70.1159,
      "duration": 0.35,
      "velocity": 93,
      "chip": "ym2612"
    },
    {
      "channel": 2,
      "note": 69,
      "start": 70.1166,
      "duration": 0.0656,
      "velocity": 114,
      "chip": "ym2612"
    },
    {
      "channel": 1,
      "note": 83,
      "start": 70.2327,
      "duration": 0.1166,
      "velocity": 93,
      "chip": "ym2612"
    },
    {
      "channel": 2,
      "note": 69,
      "start": 70.2333,
      "duration": 0.0656,
      "velocity": 114,
      "chip": "ym2612"
    },
    {
      "channel": 1,
      "note": 80,
      "start": 70.3494,
      "duration": 0.2333,
      "velocity": 93,
      "chip": "ym2612"
    },
    {
      "channel": 5,
      "note": 73,
      "start": 70.3504,
      "duration": 0.4672,
      "velocity": 28,
      "chip": "ym2612"
    },
    {
      "channel": 0,
      "note": 83,
      "start": 70.466,
      "duration": 0.2333,
      "velocity": 93,
      "chip": "ym2612"
    },
    {
      "channel": 2,
      "note": 69,
      "start": 70.4667,
      "duration": 0.0655,
      "velocity": 114,
      "chip": "ym2612"
    },
    {
      "channel": 4,
      "note": 71,
      "start": 70.4674,
      "duration": 0.4703,
      "velocity": 28,
      "chip": "ym2612"
    },
    {
      "channel": 1,
      "note": 78,
      "start": 70.5827,
      "duration": 0.2333,
      "velocity": 93,
      "chip": "ym2612"
    },
    {
      "channel": 2,
      "note": 69,
      "start": 70.5833,
      "duration": 0.0656,
      "velocity": 114,
      "chip": "ym2612"
    },
    {
      "channel": 0,
      "note": 80,
      "start": 70.6993,
      "duration": 0.2335,
      "velocity": 93,
      "chip": "ym2612"
    },
    {
      "channel": 2,
      "note": 69,
      "start": 70.7,
      "duration": 0.0656,
      "velocity": 114,
      "chip": "ym2612"
    },
    {
      "channel": 1,
      "note": 76,
      "start": 70.8161,
      "duration": 0.2333,
      "velocity": 93,
      "chip": "ym2612"
    },
    {
      "channel": 2,
      "note": 69,
      "start": 70.8167,
      "duration": 0.0655,
      "velocity": 114,
      "chip": "ym2612"
    },
    {
      "channel": 5,
      "note": 71,
      "start": 70.8177,
      "duration": 0.4696,
      "velocity": 28,
      "chip": "ym2612"
    },
    {
      "channel": 0,
      "note": 87,
      "start": 70.9328,
      "duration": 0.3499,
      "velocity": 93,
      "chip": "ym2612"
    },
    {
      "channel": 2,
      "note": 69,
      "start": 70.9365,
      "duration": 0.0624,
      "velocity": 114,
      "chip": "ym2612"
    },
    {
      "channel": 3,
      "note": 39,
      "start": 70.9371,
      "duration": 3.7333,
      "velocity": 28,
      "chip": "ym2612"
    },
    {
      "channel": 4,
      "note": 70,
      "start": 70.9377,
      "duration": 1.866,
      "velocity": 28,
      "chip": "ym2612"
    },
    {
      "channel": 1,
      "note": 82,
      "start": 71.0494,
      "duration": 0.1167,
      "velocity": 93,
      "chip": "ym2612"
    },
    {
      "channel": 2,
      "note": 69,
      "start": 71.053,
      "duration": 0.0625,
      "velocity": 114,
      "chip": "ym2612"
    },
    {
      "channel": 1,
      "note": 80,
      "start": 71.1661,
      "duration": 0.2332,
      "velocity": 93,
      "chip": "ym2612"
    },
    {
      "channel": 2,
      "note": 69,
      "start": 71.1697,
      "duration": 0.0625,
      "velocity": 114,
      "chip": "ym2612"
    },
    {
      "channel": 0,
      "note": 85,
      "start": 71.2827,
      "duration": 0.3499,
      "velocity": 93,
      "chip": "ym2612"
    },
    {
      "channel": 2,
      "note": 69,
      "start": 71.2864,
      "duration": 0.0625,
      "velocity": 114,
      "chip": "ym2612"
    },
    {
      "channel": 5,
      "note": 70,
      "start": 71.2873,
      "duration": 1.8666,
      "velocity": 28,
      "chip": "ym2612"
    },
    {
      "channel": 1,
      "note": 80,
      "start": 71.3994,
      "duration": 0.1166,
      "velocity": 93,
      "chip": "ym2612"
    },
    {
      "channel": 2,
      "note": 69,
      "start": 71.4,
      "duration": 0.0656,
      "velocity": 114,
      "chip": "ym2612"
    },
    {
      "channel": 1,
      "note": 78,
      "start": 71.516,
      "duration": 0.2333,
      "velocity": 93,
      "chip": "ym2612"
    },
    {
      "channel": 2,
      "note": 69,
      "start": 71.5166,
      "duration": 0.0656,
      "velocity": 114,
      "chip": "ym2612"
    },
    {
      "channel": 0,
      "note": 92,
      "start": 71.6326,
      "duration": 0.35,
      "velocity": 93,
      "chip": "ym2612"
    },
    {
      "channel": 2,
      "note": 69,
      "start": 71.6333,
      "duration": 0.0655,
      "velocity": 114,
      "chip": "ym2612"
    },
    {
      "channel": 1,
      "note": 90,
      "start": 71.7494,
      "duration": 0.1167,
      "velocity": 93,
      "chip": "ym2612"
    },
    {
      "channel": 2,
      "note": 69,
      "start": 71.75,
      "duration": 0.0656,
      "velocity": 114,
      "chip": "ym2612"
    },
    {
      "channel": 1,
      "note": 85,
      "start": 71.8661,
      "duration": 0.2333,
      "velocity": 93,
      "chip": "ym2612"
    },
    {
      "channel": 2,
      "note": 69,
      "start": 71.8667,
      "duration": 0.0655,
      "velocity": 114,
      "chip": "ym2612"
    },
    {
      "channel": 0,
      "note": 90,
      "start": 71.9826,
      "duration": 0.35,
      "velocity": 93,
      "chip": "ym2612"
    },
    {
      "channel": 2,
      "note": 69,
      "start": 71.9833,
      "duration": 0.0655,
      "velocity": 114,
      "chip": "ym2612"
    },
    {
      "channel": 1,
      "note": 85,
      "start": 72.0994,
      "duration": 0.1166,
      "velocity": 93,
      "chip": "ym2612"
    },
    {
      "channel": 2,
      "note": 69,
      "start": 72.1,
      "duration": 0.0655,
      "velocity": 114,
      "chip": "ym2612"
    },
    {
      "channel": 1,
      "note": 82,
      "start": 72.2161,
      "duration": 0.2332,
      "velocity": 93,
      "chip": "ym2612"
    },
    {
      "channel": 2,
      "note": 69,
      "start": 72.2167,
      "duration": 0.0655,
      "velocity": 114,
      "chip": "ym2612"
    },
    {
      "channel": 0,
      "note": 87,
      "start": 72.3326,
      "duration": 0.2333,
      "velocity": 93,
      "chip": "ym2612"
    },
    {
      "channel": 2,
      "note": 69,
      "start": 72.3333,
      "duration": 0.0655,
      "velocity": 114,
      "chip": "ym2612"
    },
    {
      "channel": 1,
      "note": 80,
      "start": 72.4494,
      "duration": 0.2334,
      "velocity": 93,
      "chip": "ym2612"
    },
    {
      "channel": 2,
      "note": 69,
      "start": 72.45,
      "duration": 0.0656,
      "velocity": 114,
      "chip": "ym2612"
    },
    {
      "channel": 0,
      "note": 73,
      "start": 72.566,
      "duration": 0.2334,
      "velocity": 93,
      "chip": "ym2612"
    },
    {
      "channel": 2,
      "note": 69,
      "start": 72.5697,
      "duration": 0.0625,
      "velocity": 114,
      "chip": "ym2612"
    },
    {
      "channel": 1,
      "note": 78,
      "start": 72.6828,
      "duration": 0.2333,
      "velocity": 93,
      "chip": "ym2612"
    },
    {
      "channel": 2,
      "note": 69,
      "start": 72.6863,
      "duration": 0.0625,
      "velocity": 114,
      "chip": "ym2612"
    },
    {
      "channel": 0,
      "note": 87,
      "start": 72.7994,
      "duration": 0.3499,
      "velocity": 93,
      "chip": "ym2612"
    },
    {
      "channel": 2,
      "note": 69,
      "start": 72.8031,
      "duration": 0.0624,
      "velocity": 114,
      "chip": "ym2612"
    },
    {
      "channel": 4,
      "note": 68,
      "start": 72.8038,
      "duration": 1.8673,
      "velocity": 28,
      "chip": "ym2612"
    },
    {
      "channel": 1,
      "note": 82,
      "start": 72.9161,
      "duration": 0.1166,
      "velocity": 93,
      "chip": "ym2612"
    },
    {
      "channel": 2,
      "note": 69,
      "start": 72.9197,
      "duration": 0.0625,
      "velocity": 114,
      "chip": "ym2612"
    },
    {
      "channel": 1,
      "note": 80,
      "start": 73.0328,
      "duration": 0.2332,
      "velocity": 93,
      "chip": "ym2612"
    },
    {
      "channel": 2,
      "note": 69,
      "start": 73.0363,
      "duration": 0.0625,
      "velocity": 114,
      "chip": "ym2612"
    },
    {
      "channel": 0,
      "note": 85,
      "start": 73.1494,
      "duration": 0.3499,
      "velocity": 93,
      "chip": "ym2612"
    },
    {
      "channel": 2,
      "note": 69,
      "start": 73.153,
      "duration": 0.0625,
      "velocity": 114,
      "chip": "ym2612"
    },
    {
      "channel": 5,
      "note": 68,
      "start": 73.1539,
      "duration": 1.8667,
      "velocity": 28,
      "chip": "ym2612"
    },
    {
      "channel": 1,
      "note": 80,
      "start": 73.266,
      "duration": 0.1166,
      "velocity": 93,
      "chip": "ym2612"
    },
    {
      "channel": 2,
      "note": 69,
      "start": 73.2666,
      "duration": 0.0655,
      "velocity": 114,
      "chip": "ym2612"
    },
    {
      "channel": 1,
      "note": 78,
      "start": 73.3826,
      "duration": 0.2334,
      "velocity": 93,
      "chip": "ym2612"
    },
    {
      "channel": 0,
      "note": 92,
      "start": 73.4993,
      "duration": 0.3499,
      "velocity": 93,
      "chip": "ym2612"
    },
    {
      "channel": 2,
      "note": 69,
      "start": 73.5,
      "duration": 0.0655,
      "velocity": 114,
      "chip": "ym2612"
    },
    {
      "channel": 1,
      "note": 90,
      "start": 73.616,
      "duration": 0.1166,
      "velocity": 93,
      "chip": "ym2612"
    },
    {
      "channel": 2,
      "note": 69,
      "start": 73.6166,
      "duration": 0.0656,
      "velocity": 114,
      "chip": "ym2612"
    },
    {
      "channel": 1,
      "note": 85,
      "start": 73.7327,
      "duration": 0.2333,
      "velocity": 93,
      "chip": "ym2612"
    },
    {
      "channel": 2,
      "note": 69,
      "start": 73.7333,
      "duration": 0.0656,
      "velocity": 114,
      "chip": "ym2612"
    },
    {
      "channel": 0,
      "note": 90,
      "start": 73.8493,
      "duration": 0.35,
      "velocity": 93,
      "chip": "ym2612"
    },
    {
      "channel": 2,
      "note": 69,
      "start": 73.85,
      "duration": 0.0656,
      "velocity": 114,
      "chip": "ym2612"
    },
    {
      "channel": 1,
      "note": 85,
      "start": 73.966,
      "duration": 0.1166,
      "velocity": 93,
      "chip": "ym2612"
    },
    {
      "channel": 2,
      "note": 69,
      "start": 73.9666,
      "duration": 0.0656,
      "velocity": 114,
      "chip": "ym2612"
    },
    {
      "channel": 1,
      "note": 82,
      "start": 74.0826,
      "duration": 0.2334,
      "velocity": 93,
      "chip": "ym2612"
    },
    {
      "channel": 0,
      "note": 87,
      "start": 74.1993,
      "duration": 0.2332,
      "velocity": 93,
      "chip": "ym2612"
    },
    {
      "channel": 2,
      "note": 69,
      "start": 74.2,
      "duration": 0.0655,
      "velocity": 114,
      "chip": "ym2612"
    },
    {
      "channel": 1,
      "note": 80,
      "start": 74.316,
      "duration": 0.2333,
      "velocity": 93,
      "chip": "ym2612"
    },
    {
      "channel": 2,
      "note": 69,
      "start": 74.3166,
      "duration": 0.0656,
      "velocity": 114,
      "chip": "ym2612"
    },
    {
      "channel": 0,
      "note": 73,
      "start": 74.4326,
      "duration": 0.2336,
      "velocity": 93,
      "chip": "ym2612"
    },
    {
      "channel": 2,
      "note": 69,
      "start": 74.4333,
      "duration": 0.0656,
      "velocity": 114,
      "chip": "ym2612"
    },
    {
      "channel": 1,
      "note": 75,
      "start": 74.5494,
      "duration": 0.2333,
      "velocity": 93,
      "chip": "ym2612"
    },
    {
      "channel": 2,
      "note": 69,
      "start": 74.55,
      "duration": 0.0656,
      "velocity": 114,
      "chip": "ym2612"
    },
    {
      "channel": 0,
      "note": 85,
      "start": 74.6662,
      "duration": 0.3499,
      "velocity": 93,
      "chip": "ym2612"
    },
    {
      "channel": 2,
      "note": 69,
      "start": 74.6699,
      "duration": 0.0623,
      "velocity": 114,
      "chip": "ym2612"
    },
    {
      "channel": 3,
      "note": 38,
      "start": 74.6704,
      "duration": 3.7333,
      "velocity": 28,
      "chip": "ym2612"
    },
    {
      "channel": 4,
      "note": 69,
      "start": 74.6711,
      "duration": 1.866,
      "velocity": 28,
      "chip": "ym2612"
    },
    {
      "channel": 1,
      "note": 80,
      "start": 74.7828,
      "duration": 0.1167,
      "velocity": 93,
      "chip": "ym2612"
    },
    {
      "channel": 2,
      "note": 69,
      "start": 74.7863,
      "duration": 0.0625,
      "velocity": 114,
      "chip": "ym2612"
    },
    {
      "channel": 1,
      "note": 78,
      "start": 74.8994,
      "duration": 0.2332,
      "velocity": 93,
      "chip": "ym2612"
    },
    {
      "channel": 2,
      "note": 69,
      "start": 74.903,
      "duration": 0.0625,
      "velocity": 114,
      "chip": "ym2612"
    },
    {
      "channel": 0,
      "note": 83,
      "start": 75.016,
      "duration": 0.3499,
      "velocity": 93,
      "chip": "ym2612"
    },
    {
      "channel": 2,
      "note": 69,
      "start": 75.0197,
      "duration": 0.0625,
      "velocity": 114,
      "chip": "ym2612"
    },
    {
      "channel": 5,
      "note": 69,
      "start": 75.0207,
      "duration": 1.8666,
      "velocity": 28,
      "chip": "ym2612"
    },
    {
      "channel": 1,
      "note": 80,
      "start": 75.1327,
      "duration": 0.1167,
      "velocity": 93,
      "chip": "ym2612"
    },
    {
      "channel": 2,
      "note": 69,
      "start": 75.1333,
      "duration": 0.0656,
      "velocity": 114,
      "chip": "ym2612"
    },
    {
      "channel": 1,
      "note": 78,
      "start": 75.2494,
      "duration": 0.2332,
      "velocity": 93,
      "chip": "ym2612"
    },
    {
      "channel": 2,
      "note": 69,
      "start": 75.25,
      "duration": 0.0655,
      "velocity": 114,
      "chip": "ym2612"
    },
    {
      "channel": 0,
      "note": 90,
      "start": 75.366,
      "duration": 0.35,
      "velocity": 93,
      "chip": "ym2612"
    },
    {
      "channel": 2,
      "note": 69,
      "start": 75.3667,
      "duration": 0.0655,
      "velocity": 114,
      "chip": "ym2612"
    },
    {
      "channel": 1,
      "note": 85,
      "start": 75.4827,
      "duration": 0.1167,
      "velocity": 93,
      "chip": "ym2612"
    },
    {
      "channel": 2,
      "note": 69,
      "start": 75.4833,
      "duration": 0.0655,
      "velocity": 114,
      "chip": "ym2612"
    },
    {
      "channel": 1,
      "note": 83,
      "start": 75.5994,
      "duration": 0.2333,
      "velocity": 93,
      "chip": "ym2612"
    },
    {
      "channel": 2,
      "note": 69,
      "start": 75.6,
      "duration": 0.0655,
      "velocity": 114,
      "chip": "ym2612"
    },
    {
      "channel": 0,
      "note": 85,
      "start": 75.716,
      "duration": 0.35,
      "velocity": 93,
      "chip": "ym2612"
    },
    {
      "channel": 2,
      "note": 69,
      "start": 75.7167,
      "duration": 0.0655,
      "velocity": 114,
      "chip": "ym2612"
    },
    {
      "channel": 1,
      "note": 80,
      "start": 75.8328,
      "duration": 0.1166,
      "velocity": 93,
      "chip": "ym2612"
    },
    {
      "channel": 2,
      "note": 69,
      "start": 75.8333,
      "duration": 0.0655,
      "velocity": 114,
      "chip": "ym2612"
    },
    {
      "channel": 1,
      "note": 78,
      "start": 75.9494,
      "duration": 0.2333,
      "velocity": 93,
      "chip": "ym2612"
    },
    {
      "channel": 2,
      "note": 69,
      "start": 75.95,
      "duration": 0.0655,
      "velocity": 114,
      "chip": "ym2612"
    },
    {
      "channel": 0,
      "note": 83,
      "start": 76.066,
      "duration": 0.2333,
      "velocity": 93,
      "chip": "ym2612"
    },
    {
      "channel": 2,
      "note": 69,
      "start": 76.0667,
      "duration": 0.0655,
      "velocity": 114,
      "chip": "ym2612"
    },
    {
      "channel": 1,
      "note": 80,
      "start": 76.1827,
      "duration": 0.2334,
      "velocity": 93,
      "chip": "ym2612"
    },
    {
      "channel": 2,
      "note": 69,
      "start": 76.1833,
      "duration": 0.0656,
      "velocity": 114,
      "chip": "ym2612"
    },
    {
      "channel": 0,
      "note": 78,
      "start": 76.2994,
      "duration": 0.2334,
      "velocity": 93,
      "chip": "ym2612"
    },
    {
      "channel": 2,
      "note": 69,
      "start": 76.303,
      "duration": 0.0625,
      "velocity": 114,
      "chip": "ym2612"
    },
    {
      "channel": 1,
      "note": 73,
      "start": 76.4161,
      "duration": 0.2333,
      "velocity": 93,
      "chip": "ym2612"
    },
    {
      "channel": 2,
      "note": 69,
      "start": 76.4197,
      "duration": 0.0625,
      "velocity": 114,
      "chip": "ym2612"
    },
    {
      "channel": 0,
      "note": 85,
      "start": 76.5328,
      "duration": 0.3499,
      "velocity": 93,
      "chip": "ym2612"
    },
    {
      "channel": 2,
      "note": 69,
      "start": 76.5364,
      "duration": 0.0625,
      "velocity": 114,
      "chip": "ym2612"
    },
    {
      "channel": 4,
      "note": 71,
      "start": 76.5371,
      "duration": 0.9303,
      "velocity": 28,
      "chip": "ym2612"
    },
    {
      "channel": 1,
      "note": 80,
      "start": 76.6494,
      "duration": 0.1167,
      "velocity": 93,
      "chip": "ym2612"
    },
    {
      "channel": 2,
      "note": 69,
      "start": 76.6529,
      "duration": 0.0626,
      "velocity": 114,
      "chip": "ym2612"
    },
    {
      "channel": 1,
      "note": 78,
      "start": 76.7661,
      "duration": 0.2332,
      "velocity": 93,
      "chip": "ym2612"
    },
    {
      "channel": 2,
      "note": 69,
      "start": 76.7697,
      "duration": 0.0625,
      "velocity": 114,
      "chip": "ym2612"
    },
    {
      "channel": 0,
      "note": 83,
      "start": 76.8827,
      "duration": 0.3499,
      "velocity": 93,
      "chip": "ym2612"
    },
    {
      "channel": 2,
      "note": 69,
      "start": 76.8863,
      "duration": 0.0625,
      "velocity": 114,
      "chip": "ym2612"
    },
    {
      "channel": 5,
      "note": 71,
      "start": 76.8873,
      "duration": 0.9298,
      "velocity": 28,
      "chip": "ym2612"
    },
    {
      "channel": 1,
      "note": 80,
      "start": 76.9994,
      "duration": 0.1166,
      "velocity": 93,
      "chip": "ym2612"
    },
    {
      "channel": 2,
      "note": 69,
      "start": 77.0,
      "duration": 0.0656,
      "velocity": 114,
      "chip": "ym2612"
    },
    {
      "channel": 1,
      "note": 78,
      "start": 77.1159,
      "duration": 0.2334,
      "velocity": 93,
      "chip": "ym2612"
    },
    {
      "channel": 0,
      "note": 90,
      "start": 77.2326,
      "duration": 0.35,
      "velocity": 93,
      "chip": "ym2612"
    },
    {
      "channel": 2,
      "note": 69,
      "start": 77.2333,
      "duration": 0.0655,
      "velocity": 114,
      "chip": "ym2612"
    },
    {
      "channel": 1,
      "note": 85,
      "start": 77.3494,
      "duration": 0.1167,
      "velocity": 93,
      "chip": "ym2612"
    },
    {
      "channel": 2,
      "note": 69,
      "start": 77.35,
      "duration": 0.0656,
      "velocity": 114,
      "chip": "ym2612"
    },
    {
      "channel": 1,
      "note": 83,
      "start": 77.4661,
      "duration": 0.2332,
      "velocity": 93,
      "chip": "ym2612"
    },
    {
      "channel": 2,
      "note": 69,
      "start": 77.4667,
      "duration": 0.0655,
      "velocity": 114,
      "chip": "ym2612"
    },
    {
      "channel": 4,
      "note": 73,
      "start": 77.4674,
      "duration": 0.9369,
      "velocity": 28,
      "chip": "ym2612"
    },
    {
      "channel": 0,
      "note": 85,
      "start": 77.5826,
      "duration": 0.35,
      "velocity": 93,
      "chip": "ym2612"
    },
    {
      "channel": 2,
      "note": 69,
      "start": 77.5833,
      "duration": 0.0656,
      "velocity": 114,
      "chip": "ym2612"
    },
    {
      "channel": 1,
      "note": 80,
      "start": 77.6994,
      "duration": 0.1166,
      "velocity": 93,
      "chip": "ym2612"
    },
    {
      "channel": 2,
      "note": 69,
      "start": 77.7,
      "duration": 0.0655,
      "velocity": 114,
      "chip": "ym2612"
    },
    {
      "channel": 1,
      "note": 78,
      "start": 77.816,
      "duration": 0.2333,
      "velocity": 93,
      "chip": "ym2612"
    },
    {
      "channel": 5,
      "note": 73,
      "start": 77.8171,
      "duration": 0.937,
      "velocity": 28,
      "chip": "ym2612"
    },
    {
      "channel": 0,
      "note": 83,
      "start": 77.9326,
      "duration": 0.2333,
      "velocity": 93,
      "chip": "ym2612"
    },
    {
      "channel": 2,
      "note": 69,
      "start": 77.9333,
      "duration": 0.0655,
      "velocity": 114,
      "chip": "ym2612"
    },
    {
      "channel": 1,
      "note": 80,
      "start": 78.0494,
      "duration": 0.2333,
      "velocity": 93,
      "chip": "ym2612"
    },
    {
      "channel": 2,
      "note": 69,
      "start": 78.05,
      "duration": 0.0655,
      "velocity": 114,
      "chip": "ym2612"
    },
    {
      "channel": 0,
      "note": 78,
      "start": 78.1659,
      "duration": 0.2335,
      "velocity": 93,
      "chip": "ym2612"
    },
    {
      "channel": 2,
      "note": 69,
      "start": 78.1666,
      "duration": 0.0656,
      "velocity": 114,
      "chip": "ym2612"
    },
    {
      "channel": 1,
      "note": 73,
      "start": 78.2827,
      "duration": 0.2333,
      "velocity": 93,
      "chip": "ym2612"
    },
    {
      "channel": 2,
      "note": 69,
      "start": 78.2833,
      "duration": 0.0656,
      "velocity": 114,
      "chip": "ym2612"
    },
    {
      "channel": 0,
      "note": 87,
      "start": 78.3995,
      "duration": 0.3499,
      "velocity": 93,
      "chip": "ym2612"
    },
    {
      "channel": 2,
      "note": 69,
      "start": 78.4031,
      "duration": 0.0624,
      "velocity": 114,
      "chip": "ym2612"
    },
    {
      "channel": 3,
      "note": 37,
      "start": 78.4038,
      "duration": 3.7333,
      "velocity": 28,
      "chip": "ym2612"
    },
    {
      "channel": 4,
      "note": 75,
      "start": 78.4044,
      "duration": 3.263,
      "velocity": 28,
      "chip": "ym2612"
    },
    {
      "channel": 1,
      "note": 83,
      "start": 78.5161,
      "duration": 0.1167,
      "velocity": 93,
      "chip": "ym2612"
    },
    {
      "channel": 2,
      "note": 69,
      "start": 78.5197,
      "duration": 0.0625,
      "velocity": 114,
      "chip": "ym2612"
    },
    {
      "channel": 1,
      "note": 80,
      "start": 78.6328,
      "duration": 0.2332,
      "velocity": 93,
      "chip": "ym2612"
    },
    {
      "channel": 2,
      "note": 69,
      "start": 78.6363,
      "duration": 0.0625,
      "velocity": 114,
      "chip": "ym2612"
    },
    {
      "channel": 0,
      "note": 85,
      "start": 78.7494,
      "duration": 0.3499,
      "velocity": 93,
      "chip": "ym2612"
    },
    {
      "channel": 2,
      "note": 69,
      "start": 78.7531,
      "duration": 0.0625,
      "velocity": 114,
      "chip": "ym2612"
    },
    {
      "channel": 5,
      "note": 75,
      "start": 78.7541,
      "duration": 3.2635,
      "velocity": 28,
      "chip": "ym2612"
    },
    {
      "channel": 1,
      "note": 83,
      "start": 78.866,
      "duration": 0.1167,
      "velocity": 93,
      "chip": "ym2612"
    },
    {
      "channel": 2,
      "note": 69,
      "start": 78.8666,
      "duration": 0.0656,
      "velocity": 114,
      "chip": "ym2612"
    },
    {
      "channel": 1,
      "note": 80,
      "start": 78.9827,
      "duration": 0.2333,
      "velocity": 93,
      "chip": "ym2612"
    },
    {
      "channel": 2,
      "note": 69,
      "start": 78.9833,
      "duration": 0.0655,
      "velocity": 114,
      "chip": "ym2612"
    },
    {
      "channel": 0,
      "note": 92,
      "start": 79.0993,
      "duration": 0.35,
      "velocity": 93,
      "chip": "ym2612"
    },
    {
      "channel": 2,
      "note": 69,
      "start": 79.1,
      "duration": 0.0655,
      "velocity": 114,
      "chip": "ym2612"
    },
    {
      "channel": 1,
      "note": 87,
      "start": 79.216,
      "duration": 0.1167,
      "velocity": 93,
      "chip": "ym2612"
    },
    {
      "channel": 2,
      "note": 69,
      "start": 79.2166,
      "duration": 0.0656,
      "velocity": 114,
      "chip": "ym2612"
    },
    {
      "channel": 1,
      "note": 85,
      "start": 79.3328,
      "duration": 0.2333,
      "velocity": 93,
      "chip": "ym2612"
    },
    {
      "channel": 2,
      "note": 69,
      "start": 79.3333,
      "duration": 0.0655,
      "velocity": 114,
      "chip": "ym2612"
    },
    {
      "channel": 0,
      "note": 87,
      "start": 79.4493,
      "duration": 0.35,
      "velocity": 93,
      "chip": "ym2612"
    },
    {
      "channel": 2,
      "note": 69,
      "start": 79.45,
      "duration": 0.0655,
      "velocity": 114,
      "chip": "ym2612"
    },
    {
      "channel": 1,
      "note": 83,
      "start": 79.5661,
      "duration": 0.1166,
      "velocity": 93,
      "chip": "ym2612"
    },
    {
      "channel": 2,
      "note": 69,
      "start": 79.5667,
      "duration": 0.0655,
      "velocity": 114,
      "chip": "ym2612"
    },
    {
      "channel": 1,
      "note": 80,
      "start": 79.6828,
      "duration": 0.2332,
      "velocity": 93,
      "chip": "ym2612"
    },
    {
      "channel": 2,
      "note": 69,
      "start": 79.6833,
      "duration": 0.0655,
      "velocity": 114,
      "chip": "ym2612"
    },
    {
      "channel": 0,
      "note": 85,
      "start": 79.7993,
      "duration": 0.2333,
      "velocity": 93,
      "chip": "ym2612"
    },
    {
      "channel": 2,
      "note": 69,
      "start": 79.8,
      "duration": 0.0655,
      "velocity": 114,
      "chip": "ym2612"
    },
    {
      "channel": 1,
      "note": 78,
      "start": 79.916,
      "duration": 0.2334,
      "velocity": 93,
      "chip": "ym2612"
    },
    {
      "channel": 2,
      "note": 69,
      "start": 79.9166,
      "duration": 0.0656,
      "velocity": 114,
      "chip": "ym2612"
    },
    {
      "channel": 0,
      "note": 80,
      "start": 80.0326,
      "duration": 0.2333,
      "velocity": 93,
      "chip": "ym2612"
    },
    {
      "channel": 2,
      "note": 69,
      "start": 80.0363,
      "duration": 0.0625,
      "velocity": 114,
      "chip": "ym2612"
    },
    {
      "channel": 1,
      "note": 75,
      "start": 80.1494,
      "duration": 0.2333,
      "velocity": 93,
      "chip": "ym2612"
    },
    {
      "channel": 2,
      "note": 69,
      "start": 80.153,
      "duration": 0.0625,
      "velocity": 114,
      "chip": "ym2612"
    },
    {
      "channel": 0,
      "note": 87,
      "start": 80.266,
      "duration": 0.3499,
      "velocity": 93,
      "chip": "ym2612"
    },
    {
      "channel": 2,
      "note": 69,
      "start": 80.2697,
      "duration": 0.0625,
      "velocity": 114,
      "chip": "ym2612"
    },
    {
      "channel": 1,
      "note": 83,
      "start": 80.3828,
      "duration": 0.1166,
      "velocity": 93,
      "chip": "ym2612"
    },
    {
      "channel": 2,
      "note": 69,
      "start": 80.3863,
      "duration": 0.0625,
      "velocity": 114,
      "chip": "ym2612"
    },
    {
      "channel": 1,
      "note": 80,
      "start": 80.4994,
      "duration": 0.2333,
      "velocity": 93,
      "chip": "ym2612"
    },
    {
      "channel": 2,
      "note": 69,
      "start": 80.5029,
      "duration": 0.0626,
      "velocity": 114,
      "chip": "ym2612"
    },
    {
      "channel": 0,
      "note": 85,
      "start": 80.616,
      "duration": 0.35,
      "velocity": 93,
      "chip": "ym2612"
    },
    {
      "channel": 2,
      "note": 69,
      "start": 80.6197,
      "duration": 0.0625,
      "velocity": 114,
      "chip": "ym2612"
    },
    {
      "channel": 1,
      "note": 83,
      "start": 80.7326,
      "duration": 0.1166,
      "velocity": 93,
      "chip": "ym2612"
    },
    {
      "channel": 2,
      "note": 69,
      "start": 80.7333,
      "duration": 0.0656,
      "velocity": 114,
      "chip": "ym2612"
    },
    {
      "channel": 1,
      "note": 80,
      "start": 80.8493,
      "duration": 0.2334,
      "velocity": 93,
      "chip": "ym2612"
    },
    {
      "channel": 0,
      "note": 92,
      "start": 80.966,
      "duration": 0.35,
      "velocity": 93,
      "chip": "ym2612"
    },
    {
      "channel": 2,
      "note": 69,
      "start": 80.9667,
      "duration": 0.0655,
      "velocity": 114,
      "chip": "ym2612"
    },
    {
      "channel": 1,
      "note": 87,
      "start": 81.0827,
      "duration": 0.1166,
      "velocity": 93,
      "chip": "ym2612"
    },
    {
      "channel": 2,
      "note": 69,
      "start": 81.0833,
      "duration": 0.0656,
      "velocity": 114,
      "chip": "ym2612"
    },
    {
      "channel": 1,
      "note": 85,
      "start": 81.1994,
      "duration": 0.2333,
      "velocity": 93,
      "chip": "ym2612"
    },
    {
      "channel": 2,
      "note": 69,
      "start": 81.2,
      "duration": 0.0655,
      "velocity": 114,
      "chip": "ym2612"
    },
    {
      "channel": 0,
      "note": 87,
      "start": 81.3159,
      "duration": 0.35,
      "velocity": 93,
      "chip": "ym2612"
    },
    {
      "channel": 2,
      "note": 69,
      "start": 81.3166,
      "duration": 0.0656,
      "velocity": 114,
      "chip": "ym2612"
    },
    {
      "channel": 1,
      "note": 83,
      "start": 81.4327,
      "duration": 0.1165,
      "velocity": 93,
      "chip": "ym2612"
    },
    {
      "channel": 2,
      "note": 69,
      "start": 81.4333,
      "duration": 0.0656,
      "velocity": 114,
      "chip": "ym2612"
    },
    {
      "channel": 1,
      "note": 80,
      "start": 81.5493,
      "duration": 0.2334,
      "velocity": 93,
      "chip": "ym2612"
    },
    {
      "channel": 0,
      "note": 85,
      "start": 81.666,
      "duration": 0.2332,
      "velocity": 93,
      "chip": "ym2612"
    },
    {
      "channel": 2,
      "note": 69,
      "start": 81.6667,
      "duration": 0.0655,
      "velocity": 114,
      "chip": "ym2612"
    },
    {
      "channel": 4,
      "note": 80,
      "start": 81.6674,
      "duration": 0.4702,
      "velocity": 28,
      "chip": "ym2612"
    },
    {
      "channel": 1,
      "note": 78,
      "start": 81.7826,
      "duration": 0.2334,
      "velocity": 93,
      "chip": "ym2612"
    },
    {
      "channel": 2,
      "note": 69,
      "start": 81.7833,
      "duration": 0.0656,
      "velocity": 114,
      "chip": "ym2612"
    },
    {
      "channel": 0,
      "note": 80,
      "start": 81.8993,
      "duration": 0.2335,
      "velocity": 93,
      "chip": "ym2612"
    },
    {
      "channel": 2,
      "note": 69,
      "start": 81.9,
      "duration": 0.0656,
      "velocity": 114,
      "chip": "ym2612"
    },
    {
      "channel": 1,
      "note": 75,
      "start": 82.016,
      "duration": 0.2334,
      "velocity": 93,
      "chip": "ym2612"
    },
    {
      "channel": 2,
      "note": 69,
      "start": 82.0167,
      "duration": 0.0655,
      "velocity": 114,
      "chip": "ym2612"
    },
    {
      "channel": 5,
      "note": 80,
      "start": 82.0176,
      "duration": 0.4697,
      "velocity": 28,
      "chip": "ym2612"
    },
    {
      "channel": 0,
      "note": 85,
      "start": 82.1328,
      "duration": 0.3499,
      "velocity": 93,
      "chip": "ym2612"
    },
    {
      "channel": 2,
      "note": 69,
      "start": 82.1365,
      "duration": 0.0624,
      "velocity": 114,
      "chip": "ym2612"
    },
    {
      "channel": 3,
      "note": 40,
      "start": 82.1371,
      "duration": 3.7333,
      "velocity": 28,
      "chip": "ym2612"
    },
    {
      "channel": 4,
      "note": 78,
      "start": 82.1377,
      "duration": 2.3296,
      "velocity": 28,
      "chip": "ym2612"
    },
    {
      "channel": 1,
      "note": 83,
      "start": 82.2494,
      "duration": 0.1167,
      "velocity": 93,
      "chip": "ym2612"
    },
    {
      "channel": 2,
      "note": 69,
      "start": 82.253,
      "duration": 0.0625,
      "velocity": 114,
      "chip": "ym2612"
    },
    {
      "channel": 1,
      "note": 80,
      "start": 82.3661,
      "duration": 0.2332,
      "velocity": 93,
      "chip": "ym2612"
    },
    {
      "channel": 2,
      "note": 69,
      "start": 82.3697,
      "duration": 0.0625,
      "velocity": 114,
      "chip": "ym2612"
    },
    {
      "channel": 0,
      "note": 83,
      "start": 82.4828,
      "duration": 0.3499,
      "velocity": 93,
      "chip": "ym2612"
    },
    {
      "channel": 2,
      "note": 69,
      "start": 82.4864,
      "duration": 0.0625,
      "velocity": 114,
      "chip": "ym2612"
    },
    {
      "channel": 5,
      "note": 78,
      "start": 82.4873,
      "duration": 2.3303,
      "velocity": 28,
      "chip": "ym2612"
    },
    {
      "channel": 1,
      "note": 80,
      "start": 82.5994,
      "duration": 0.1167,
      "velocity": 93,
      "chip": "ym2612"
    },
    {
      "channel": 2,
      "note": 69,
      "start": 82.6,
      "duration": 0.0656,
      "velocity": 114,
      "chip": "ym2612"
    },
    {
      "channel": 1,
      "note": 78,
      "start": 82.7161,
      "duration": 0.2332,
      "velocity": 93,
      "chip": "ym2612"
    },
    {
      "channel": 2,
      "note": 69,
      "start": 82.7167,
      "duration": 0.0655,
      "velocity": 114,
      "chip": "ym2612"
    },
    {
      "channel": 0,
      "note": 88,
      "start": 82.8326,
      "duration": 0.35,
      "velocity": 93,
      "chip": "ym2612"
    },
    {
      "channel": 2,
      "note": 69,
      "start": 82.8333,
      "duration": 0.0655,
      "velocity": 114,
      "chip": "ym2612"
    },
    {
      "channel": 1,
      "note": 86,
      "start": 82.9494,
      "duration": 0.1167,
      "velocity": 93,
      "chip": "ym2612"
    },
    {
      "channel": 2,
      "note": 69,
      "start": 82.95,
      "duration": 0.0656,
      "velocity": 114,
      "chip": "ym2612"
    },
    {
      "channel": 1,
      "note": 83,
      "start": 83.0661,
      "duration": 0.2333,
      "velocity": 93,
      "chip": "ym2612"
    },
    {
      "channel": 2,
      "note": 69,
      "start": 83.0667,
      "duration": 0.0655,
      "velocity": 114,
      "chip": "ym2612"
    },
    {
      "channel": 0,
      "note": 86,
      "start": 83.1826,
      "duration": 0.35,
      "velocity": 93,
      "chip": "ym2612"
    },
    {
      "channel": 2,
      "note": 69,
      "start": 83.1833,
      "duration": 0.0655,
      "velocity": 114,
      "chip": "ym2612"
    },
    {
      "channel": 1,
      "note": 83,
      "start": 83.2994,
      "duration": 0.1166,
      "velocity": 93,
      "chip": "ym2612"
    },
    {
      "channel": 2,
      "note": 69,
      "start": 83.3,
      "duration": 0.0655,
      "velocity": 114,
      "chip": "ym2612"
    },
    {
      "channel": 1,
      "note": 80,
      "start": 83.4161,
      "duration": 0.2332,
      "velocity": 93,
      "chip": "ym2612"
    },
    {
      "channel": 2,
      "note": 69,
      "start": 83.4167,
      "duration": 0.0655,
      "velocity": 114,
      "chip": "ym2612"
    },
    {
      "channel": 0,
      "note": 83,
      "start": 83.5326,
      "duration": 0.2333,
      "velocity": 93,
      "chip": "ym2612"
    },
    {
      "channel": 2,
      "note": 69,
      "start": 83.5333,
      "duration": 0.0655,
      "velocity": 114,
      "chip": "ym2612"
    },
    {
      "channel": 1,
      "note": 78,
      "start": 83.6494,
      "duration": 0.2334,
      "velocity": 93,
      "chip": "ym2612"
    },
    {
      "channel": 2,
      "note": 69,
      "start": 83.65,
      "duration": 0.0656,
      "velocity": 114,
      "chip": "ym2612"
    },
    {
      "channel": 0,
      "note": 80,
      "start": 83.766,
      "duration": 0.2333,
      "velocity": 93,
      "chip": "ym2612"
    },
    {
      "channel": 2,
      "note": 69,
      "start": 83.7697,
      "duration": 0.0625,
      "velocity": 114,
      "chip": "ym2612"
    },
    {
      "channel": 1,
      "note": 76,
      "start": 83.8828,
      "duration": 0.2332,
      "velocity": 93,
      "chip": "ym2612"
    },
    {
      "channel": 2,
      "note": 69,
      "start": 83.8863,
      "duration": 0.0625,
      "velocity": 114,
      "chip": "ym2612"
    },
    {
      "channel": 0,
      "note": 85,
      "start": 83.9994,
      "duration": 0.3499,
      "velocity": 93,
      "chip": "ym2612"
    },
    {
      "channel": 2,
      "note": 69,
      "start": 84.003,
      "duration": 0.0625,
      "velocity": 114,
      "chip": "ym2612"
    },
    {
      "channel": 1,
      "note": 83,
      "start": 84.116,
      "duration": 0.1167,
      "velocity": 93,
      "chip": "ym2612"
    },
    {
      "channel": 2,
      "note": 69,
      "start": 84.1196,
      "duration": 0.0626,
      "velocity": 114,
      "chip": "ym2612"
    },
    {
      "channel": 1,
      "note": 80,
      "start": 84.2327,
      "duration": 0.2333,
      "velocity": 93,
      "chip": "ym2612"
    },
    {
      "channel": 2,
      "note": 69,
      "start": 84.2363,
      "duration": 0.0626,
      "velocity": 114,
      "chip": "ym2612"
    },
    {
      "channel": 0,
      "note": 83,
      "start": 84.3493,
      "duration": 0.35,
      "velocity": 93,
      "chip": "ym2612"
    },
    {
      "channel": 2,
      "note": 69,
      "start": 84.353,
      "duration": 0.0625,
      "velocity": 114,
      "chip": "ym2612"
    },
    {
      "channel": 1,
      "note": 80,
      "start": 84.466,
      "duration": 0.1166,
      "velocity": 93,
      "chip": "ym2612"
    },
    {
      "channel": 2,
      "note": 69,
      "start": 84.4667,
      "duration": 0.0655,
      "velocity": 114,
      "chip": "ym2612"
    },
    {
      "channel": 4,
      "note": 75,
      "start": 84.4674,
      "duration": 0.4667,
      "velocity": 28,
      "chip": "ym2612"
    },
    {
      "channel": 1,
      "note": 78,
      "start": 84.5826,
      "duration": 0.2334,
      "velocity": 93,
      "chip": "ym2612"
    },
    {
      "channel": 0,
      "note": 88,
      "start": 84.6993,
      "duration": 0.35,
      "velocity": 93,
      "chip": "ym2612"
    },
    {
      "channel": 2,
      "note": 69,
      "start": 84.7,
      "duration": 0.0656,
      "velocity": 114,
      "chip": "ym2612"
    },
    {
      "channel": 1,
      "note": 86,
      "start": 84.816,
      "duration": 0.1167,
      "velocity": 93,
      "chip": "ym2612"
    },
    {
      "channel": 2,
      "note": 69,
      "start": 84.8167,
      "duration": 0.0655,
      "velocity": 114,
      "chip": "ym2612"
    },
    {
      "channel": 5,
      "note": 75,
      "start": 84.8176,
      "duration": 0.4661,
      "velocity": 28,
      "chip": "ym2612"
    },
    {
      "channel": 1,
      "note": 83,
      "start": 84.9328,
      "duration": 0.2332,
      "velocity": 93,
      "chip": "ym2612"
    },
    {
      "channel": 2,
      "note": 69,
      "start": 84.9333,
      "duration": 0.0655,
      "velocity": 114,
      "chip": "ym2612"
    },
    {
      "channel": 4,
      "note": 73,
      "start": 84.9341,
      "duration": 0.4665,
      "velocity": 28,
      "chip": "ym2612"
    },
    {
      "channel": 0,
      "note": 86,
      "start": 85.0493,
      "duration": 0.35,
      "velocity": 93,
      "chip": "ym2612"
    },
    {
      "channel": 2,
      "note": 69,
      "start": 85.05,
      "duration": 0.0656,
      "velocity": 114,
      "chip": "ym2612"
    },
    {
      "channel": 1,
      "note": 83,
      "start": 85.166,
      "duration": 0.1166,
      "velocity": 93,
      "chip": "ym2612"
    },
    {
      "channel": 2,
      "note": 69,
      "start": 85.1666,
      "duration": 0.0655,
      "velocity": 114,
      "chip": "ym2612"
    },
    {
      "channel": 1,
      "note": 80,
      "start": 85.2826,
      "duration": 0.2333,
      "velocity": 93,
      "chip": "ym2612"
    },
    {
      "channel": 5,
      "note": 73,
      "start": 85.2837,
      "duration": 0.4672,
      "velocity": 28,
      "chip": "ym2612"
    },
    {
      "channel": 0,
      "note": 83,
      "start": 85.3993,
      "duration": 0.2333,
      "velocity": 93,
      "chip": "ym2612"
    },
    {
      "channel": 2,
      "note": 69,
      "start": 85.4,
      "duration": 0.0655,
      "velocity": 114,
      "chip": "ym2612"
    },
    {
      "channel": 4,
      "note": 71,
      "start": 85.4007,
      "duration": 0.4703,
      "velocity": 28,
      "chip": "ym2612"
    },
    {
      "channel": 1,
      "note": 78,
      "start": 85.516,
      "duration": 0.2333,
      "velocity": 93,
      "chip": "ym2612"
    },
    {
      "channel": 2,
      "note": 69,
      "start": 85.5166,
      "duration": 0.0656,
      "velocity": 114,
      "chip": "ym2612"
    },
    {
      "channel": 0,
      "note": 80,
      "start": 85.6326,
      "duration": 0.2335,
      "velocity": 93,
      "chip": "ym2612"
    },
    {
      "channel": 2,
      "note": 69,
      "start": 85.6333,
      "duration": 0.0656,
      "velocity": 114,
      "chip": "ym2612"
    },
    {
      "channel": 1,
      "note": 76,
      "start": 85.7494,
      "duration": 0.2333,
      "velocity": 93,
      "chip": "ym2612"
    },
    {
      "channel": 2,
      "note": 69,
      "start": 85.75,
      "duration": 0.0655,
      "velocity": 114,
      "chip": "ym2612"
    },
    {
      "channel": 5,
      "note": 71,
      "start": 85.751,
      "duration": 0.4697,
      "velocity": 28,
      "chip": "ym2612"
    },
    {
      "channel": 0,
      "note": 87,
      "start": 85.8662,
      "duration": 0.3499,
      "velocity": 93,
      "chip": "ym2612"
    },
    {
      "channel": 2,
      "note": 69,
      "start": 85.8698,
      "duration": 0.0624,
      "velocity": 114,
      "chip": "ym2612"
    },
    {
      "channel": 3,
      "note": 39,
      "start": 85.8704,
      "duration": 7.4701,
      "velocity": 28,
      "chip": "ym2612"
    },
    {
      "channel": 4,
      "note": 70,
      "start": 85.871,
      "duration": 1.866,
      "velocity": 28,
      "chip": "ym2612"
    },
    {
      "channel": 1,
      "note": 82,
      "start": 85.9828,
      "duration": 0.1167,
      "velocity": 93,
      "chip": "ym2612"
    },
    {
      "channel": 2,
      "note": 69,
      "start": 85.9863,
      "duration": 0.0625,
      "velocity": 114,
      "chip": "ym2612"
    },
    {
      "channel": 1,
      "note": 80,
      "start": 86.0994,
      "duration": 0.2332,
      "velocity": 93,
      "chip": "ym2612"
    },
    {
      "channel": 2,
      "note": 69,
      "start": 86.103,
      "duration": 0.0625,
      "velocity": 114,
      "chip": "ym2612"
    },
    {
      "channel": 0,
      "note": 85,
      "start": 86.2161,
      "duration": 0.3499,
      "velocity": 93,
      "chip": "ym2612"
    },
    {
      "channel": 2,
      "note": 69,
      "start": 86.2197,
      "duration": 0.0625,
      "velocity": 114,
      "chip": "ym2612"
    },
    {
      "channel": 5,
      "note": 70,
      "start": 86.2207,
      "duration": 1.8666,
      "velocity": 28,
      "chip": "ym2612"
    },
    {
      "channel": 1,
      "note": 80,
      "start": 86.3327,
      "duration": 0.1167,
      "velocity": 93,
      "chip": "ym2612"
    },
    {
      "channel": 2,
      "note": 69,
      "start": 86.3333,
      "duration": 0.0656,
      "velocity": 114,
      "chip": "ym2612"
    },
    {
      "channel": 1,
      "note": 78,
      "start": 86.4494,
      "duration": 0.2332,
      "velocity": 93,
      "chip": "ym2612"
    },
    {
      "channel": 2,
      "note": 69,
      "start": 86.45,
      "duration": 0.0655,
      "velocity": 114,
      "chip": "ym2612"
    },
    {
      "channel": 0,
      "note": 92,
      "start": 86.566,
      "duration": 0.35,
      "velocity": 93,
      "chip": "ym2612"
    },
    {
      "channel": 2,
      "note": 69,
      "start": 86.5667,
      "duration": 0.0655,
      "velocity": 114,
      "chip": "ym2612"
    },
    {
      "channel": 1,
      "note": 90,
      "start": 86.6827,
      "duration": 0.1167,
      "velocity": 93,
      "chip": "ym2612"
    },
    {
      "channel": 2,
      "note": 69,
      "start": 86.6833,
      "duration": 0.0656,
      "velocity": 114,
      "chip": "ym2612"
    },
    {
      "channel": 1,
      "note": 85,
      "start": 86.7994,
      "duration": 0.2333,
      "velocity": 93,
      "chip": "ym2612"
    },
    {
      "channel": 2,
      "note": 69,
      "start": 86.8,
      "duration": 0.0655,
      "velocity": 114,
      "chip": "ym2612"
    },
    {
      "channel": 0,
      "note": 90,
      "start": 86.916,
      "duration": 0.35,
      "velocity": 93,
      "chip": "ym2612"
    },
    {
      "channel": 2,
      "note": 69,
      "start": 86.9167,
      "duration": 0.0655,
      "velocity": 114,
      "chip": "ym2612"
    },
    {
      "channel": 1,
      "note": 85,
      "start": 87.0328,
      "duration": 0.1166,
      "velocity": 93,
      "chip": "ym2612"
    },
    {
      "channel": 2,
      "note": 69,
      "start": 87.0333,
      "duration": 0.0655,
      "velocity": 114,
      "chip": "ym2612"
    },
    {
      "channel": 1,
      "note": 82,
      "start": 87.1494,
      "duration": 0.2332,
      "velocity": 93,
      "chip": "ym2612"
    },
    {
      "channel": 2,
      "note": 69,
      "start": 87.15,
      "duration": 0.0655,
      "velocity": 114,
      "chip": "ym2612"
    },
    {
      "channel": 0,
      "note": 87,
      "start": 87.266,
      "duration": 0.2333,
      "velocity": 93,
      "chip": "ym2612"
    },
    {
      "channel": 2,
      "note": 69,
      "start": 87.2667,
      "duration": 0.0655,
      "velocity": 114,
      "chip": "ym2612"
    },
    {
      "channel": 1,
      "note": 80,
      "start": 87.3827,
      "duration": 0.2334,
      "velocity": 93,
      "chip": "ym2612"
    },
    {
      "channel": 2,
      "note": 69,
      "start": 87.3833,
      "duration": 0.0656,
      "velocity": 114,
      "chip": "ym2612"
    },
    {
      "channel": 0,
      "note": 73,
      "start": 87.4993,
      "duration": 0.2334,
      "velocity": 93,
      "chip": "ym2612"
    },
    {
      "channel": 2,
      "note": 69,
      "start": 87.503,
      "duration": 0.0625,
      "velocity": 114,
      "chip": "ym2612"
    },
    {
      "channel": 1,
      "note": 78,
      "start": 87.6161,
      "duration": 0.2332,
      "velocity": 93,
      "chip": "ym2612"
    },
    {
      "channel": 2,
      "note": 69,
      "start": 87.6197,
      "duration": 0.0625,
      "velocity": 114,
      "chip": "ym2612"
    },
    {
      "channel": 0,
      "note": 87,
      "start": 87.7327,
      "duration": 0.3499,
      "velocity": 93,
      "chip": "ym2612"
    },
    {
      "channel": 2,
      "note": 69,
      "start": 87.7363,
      "duration": 0.0625,
      "velocity": 114,
      "chip": "ym2612"
    },
    {
      "channel": 4,
      "note": 68,
      "start": 87.737,
      "duration": 1.8667,
      "velocity": 28,
      "chip": "ym2612"
    },
    {
      "channel": 1,
      "note": 82,
      "start": 87.8494,
      "duration": 0.1167,
      "velocity": 93,
      "chip": "ym2612"
    },
    {
      "channel": 2,
      "note": 69,
      "start": 87.8529,
      "duration": 0.0626,
      "velocity": 114,
      "chip": "ym2612"
    },
    {
      "channel": 1,
      "note": 80,
      "start": 87.9661,
      "duration": 0.2332,
      "velocity": 93,
      "chip": "ym2612"
    },
    {
      "channel": 2,
      "note": 69,
      "start": 87.9697,
      "duration": 0.0625,
      "velocity": 114,
      "chip": "ym2612"
    },
    {
      "channel": 0,
      "note": 82,
      "start": 88.0827,
      "duration": 0.3499,
      "velocity": 93,
      "chip": "ym2612"
    },
    {
      "channel": 2,
      "note": 69,
      "start": 88.0863,
      "duration": 0.0625,
      "velocity": 114,
      "chip": "ym2612"
    },
    {
      "channel": 5,
      "note": 68,
      "start": 88.0873,
      "duration": 1.8667,
      "velocity": 28,
      "chip": "ym2612"
    },
    {
      "channel": 1,
      "note": 78,
      "start": 88.1993,
      "duration": 0.1166,
      "velocity": 93,
      "chip": "ym2612"
    },
    {
      "channel": 2,
      "note": 69,
      "start": 88.2,
      "duration": 0.0656,
      "velocity": 114,
      "chip": "ym2612"
    },
    {
      "channel": 1,
      "note": 75,
      "start": 88.3159,
      "duration": 0.2333,
      "velocity": 93,
      "chip": "ym2612"
    },
    {
      "channel": 0,
      "note": 85,
      "start": 88.4326,
      "duration": 0.3499,
      "velocity": 93,
      "chip": "ym2612"
    },
    {
      "channel": 2,
      "note": 69,
      "start": 88.4333,
      "duration": 0.0656,
      "velocity": 114,
      "chip": "ym2612"
    },
    {
      "channel": 1,
      "note": 80,
      "start": 88.5493,
      "duration": 0.1166,
      "velocity": 93,
      "chip": "ym2612"
    },
    {
      "channel": 2,
      "note": 69,
      "start": 88.5499,
      "duration": 0.0656,
      "velocity": 114,
      "chip": "ym2612"
    },
    {
      "channel": 1,
      "note": 78,
      "start": 88.666,
      "duration": 0.2333,
      "velocity": 93,
      "chip": "ym2612"
    },
    {
      "channel": 2,
      "note": 69,
      "start": 88.6666,
      "duration": 0.0656,
      "velocity": 114,
      "chip": "ym2612"
    },
    {
      "channel": 0,
      "note": 80,
      "start": 88.7826,
      "duration": 0.3499,
      "velocity": 93,
      "chip": "ym2612"
    },
    {
      "channel": 2,
      "note": 69,
      "start": 88.7833,
      "duration": 0.0656,
      "velocity": 114,
      "chip": "ym2612"
    },
    {
      "channel": 1,
      "note": 75,
      "start": 88.8994,
      "duration": 0.1165,
      "velocity": 93,
      "chip": "ym2612"
    },
    {
      "channel": 2,
      "note": 69,
      "start": 88.9,
      "duration": 0.0656,
      "velocity": 114,
      "chip": "ym2612"
    },
    {
      "channel": 1,
      "note": 73,
      "start": 89.0159,
      "duration": 0.2334,
      "velocity": 93,
      "chip": "ym2612"
    },
    {
      "channel": 0,
      "note": 82,
      "start": 89.1326,
      "duration": 0.2333,
      "velocity": 93,
      "chip": "ym2612"
    },
    {
      "channel": 2,
      "note": 69,
      "start": 89.1333,
      "duration": 0.0656,
      "velocity": 114,
      "chip": "ym2612"
    },
    {
      "channel": 1,
      "note": 75,
      "start": 89.2493,
      "duration": 0.2333,
      "velocity": 93,
      "chip": "ym2612"
    },
    {
      "channel": 2,
      "note": 69,
      "start": 89.25,
      "duration": 0.0656,
      "velocity": 114,
      "chip": "ym2612"
    },
    {
      "channel": 0,
      "note": 78,
      "start": 89.3659,
      "duration": 0.2334,
      "velocity": 93,
      "chip": "ym2612"
    },
    {
      "channel": 2,
      "note": 69,
      "start": 89.3666,
      "duration": 0.0656,
      "velocity": 114,
      "chip": "ym2612"
    },
    {
      "channel": 1,
      "note": 73,
      "start": 89.4827,
      "duration": 0.2333,
      "velocity": 93,
      "chip": "ym2612"
    },
    {
      "channel": 2,
      "note": 69,
      "start": 89.4833,
      "duration": 0.0655,
      "velocity": 114,
      "chip": "ym2612"
    },
    {
      "channel": 0,
      "note": 85,
      "start": 89.5994,
      "duration": 0.3499,
      "velocity": 93,
      "chip": "ym2612"
    },
    {
      "channel": 2,
      "note": 69,
      "start": 89.6031,
      "duration": 0.0625,
      "velocity": 114,
      "chip": "ym2612"
    },
    {
      "channel": 4,
      "note": 66,
      "start": 89.6038,
      "duration": 1.8666,
      "velocity": 28,
      "chip": "ym2612"
    },
    {
      "channel": 1,
      "note": 82,
      "start": 89.7161,
      "duration": 0.1166,
      "velocity": 93,
      "chip": "ym2612"
    },
    {
      "channel": 2,
      "note": 69,
      "start": 89.7197,
      "duration": 0.0625,
      "velocity": 114,
      "chip": "ym2612"
    },
    {
      "channel": 1,
      "note": 80,
      "start": 89.8328,
      "duration": 0.2332,
      "velocity": 93,
      "chip": "ym2612"
    },
    {
      "channel": 2,
      "note": 69,
      "start": 89.8363,
      "duration": 0.0625,
      "velocity": 114,
      "chip": "ym2612"
    },
    {
      "channel": 0,
      "note": 87,
      "start": 89.9494,
      "duration": 0.3499,
      "velocity": 93,
      "chip": "ym2612"
    },
    {
      "channel": 2,
      "note": 69,
      "start": 89.9531,
      "duration": 0.0625,
      "velocity": 114,
      "chip": "ym2612"
    },
    {
      "channel": 5,
      "note": 66,
      "start": 89.954,
      "duration": 1.8666,
      "velocity": 28,
      "chip": "ym2612"
    },
    {
      "channel": 1,
      "note": 80,
      "start": 90.066,
      "duration": 0.1167,
      "velocity": 93,
      "chip": "ym2612"
    },
    {
      "channel": 2,
      "note": 69,
      "start": 90.0666,
      "duration": 0.0656,
      "velocity": 114,
      "chip": "ym2612"
    },
    {
      "channel": 1,
      "note": 78,
      "start": 90.1828,
      "duration": 0.2332,
      "velocity": 93,
      "chip": "ym2612"
    },
    {
      "channel": 2,
      "note": 69,
      "start": 90.1833,
      "duration": 0.0655,
      "velocity": 114,
      "chip": "ym2612"
    },
    {
      "channel": 0,
      "note": 80,
      "start": 90.2993,
      "duration": 0.35,
      "velocity": 93,
      "chip": "ym2612"
    },
    {
      "channel": 2,
      "note": 69,
      "start": 90.3,
      "duration": 0.0655,
      "velocity": 114,
      "chip": "ym2612"
    },
    {
      "channel": 1,
      "note": 90,
      "start": 90.416,
      "duration": 0.1167,
      "velocity": 93,
      "chip": "ym2612"
    },
    {
      "channel": 2,
      "note": 69,
      "start": 90.4166,
      "duration": 0.0656,
      "velocity": 114,
      "chip": "ym2612"
    },
    {
      "channel": 1,
      "note": 85,
      "start": 90.5328,
      "duration": 0.2333,
      "velocity": 93,
      "chip": "ym2612"
    },
    {
      "channel": 2,
      "note": 69,
      "start": 90.5333,
      "duration": 0.0655,
      "velocity": 114,
      "chip": "ym2612"
    },
    {
      "channel": 0,
      "note": 82,
      "start": 90.6493,
      "duration": 0.35,
      "velocity": 93,
      "chip": "ym2612"
    },
    {
      "channel": 2,
      "note": 69,
      "start": 90.65,
      "duration": 0.0655,
      "velocity": 114,
      "chip": "ym2612"
    },
    {
      "channel": 1,
      "note": 80,
      "start": 90.7661,
      "duration": 0.1166,
      "velocity": 93,
      "chip": "ym2612"
    },
    {
      "channel": 2,
      "note": 69,
      "start": 90.7667,
      "duration": 0.0655,
      "velocity": 114,
      "chip": "ym2612"
    },
    {
      "channel": 1,
      "note": 75,
      "start": 90.8827,
      "duration": 0.2333,
      "velocity": 93,
      "chip": "ym2612"
    },
    {
      "channel": 2,
      "note": 69,
      "start": 90.8833,
      "duration": 0.0655,
      "velocity": 114,
      "chip": "ym2612"
    },
    {
      "channel": 0,
      "note": 92,
      "start": 90.9993,
      "duration": 0.2333,
      "velocity": 93,
      "chip": "ym2612"
    },
    {
      "channel": 2,
      "note": 69,
      "start": 91.0,
      "duration": 0.0655,
      "velocity": 114,
      "chip": "ym2612"
    },
    {
      "channel": 1,
      "note": 75,
      "start": 91.116,
      "duration": 0.2333,
      "velocity": 93,
      "chip": "ym2612"
    },
    {
      "channel": 2,
      "note": 69,
      "start": 91.1166,
      "duration": 0.0656,
      "velocity": 114,
      "chip": "ym2612"
    },
    {
      "channel": 0,
      "note": 78,
      "start": 91.2326,
      "duration": 0.2334,
      "velocity": 93,
      "chip": "ym2612"
    },
    {
      "channel": 2,
      "note": 69,
      "start": 91.2363,
      "duration": 0.0625,
      "velocity": 114,
      "chip": "ym2612"
    },
    {
      "channel": 1,
      "note": 73,
      "start": 91.3494,
      "duration": 0.2333,
      "velocity": 93,
      "chip": "ym2612"
    },
    {
      "channel": 2,
      "note": 69,
      "start": 91.353,
      "duration": 0.0625,
      "velocity": 114,
      "chip": "ym2612"
    },
    {
      "channel": 0,
      "note": 87,
      "start": 91.466,
      "duration": 0.35,
      "velocity": 93,
      "chip": "ym2612"
    },
    {
      "channel": 2,
      "note": 69,
      "start": 91.4697,
      "duration": 0.0625,
      "velocity": 114,
      "chip": "ym2612"
    },
    {
      "channel": 4,
      "note": 63,
      "start": 91.4704,
      "duration": 1.6299,
      "velocity": 28,
      "chip": "ym2612"
    },
    {
      "channel": 1,
      "note": 82,
      "start": 91.5827,
      "duration": 0.1167,
      "velocity": 93,
      "chip": "ym2612"
    },
    {
      "channel": 2,
      "note": 69,
      "start": 91.5863,
      "duration": 0.0625,
      "velocity": 114,
      "chip": "ym2612"
    },
    {
      "channel": 1,
      "note": 80,
      "start": 91.6994,
      "duration": 0.2332,
      "velocity": 93,
      "chip": "ym2612"
    },
    {
      "channel": 2,
      "note": 69,
      "start": 91.703,
      "duration": 0.0625,
      "velocity": 114,
      "chip": "ym2612"
    },
    {
      "channel": 0,
      "note": 85,
      "start": 91.816,
      "duration": 0.3499,
      "velocity": 93,
      "chip": "ym2612"
    },
    {
      "channel": 2,
      "note": 69,
      "start": 91.8197,
      "duration": 0.0625,
      "velocity": 114,
      "chip": "ym2612"
    },
    {
      "channel": 5,
      "note": 63,
      "start": 91.8207,
      "duration": 1.28,
      "velocity": 28,
      "chip": "ym2612"
    },
    {
      "channel": 1,
      "note": 80,
      "start": 91.9327,
      "duration": 0.1166,
      "velocity": 93,
      "chip": "ym2612"
    },
    {
      "channel": 2,
      "note": 69,
      "start": 91.9333,
      "duration": 0.0656,
      "velocity": 114,
      "chip": "ym2612"
    },
    {
      "channel": 1,
      "note": 78,
      "start": 92.0493,
      "duration": 0.2334,
      "velocity": 93,
      "chip": "ym2612"
    },
    {
      "channel": 0,
      "note": 92,
      "start": 92.166,
      "duration": 0.35,
      "velocity": 93,
      "chip": "ym2612"
    },
    {
      "channel": 2,
      "note": 69,
      "start": 92.1667,
      "duration": 0.0655,
      "velocity": 114,
      "chip": "ym2612"
    },
    {
      "channel": 1,
      "note": 90,
      "start": 92.2827,
      "duration": 0.1166,
      "velocity": 93,
      "chip": "ym2612"
    },
    {
      "channel": 2,
      "note": 69,
      "start": 92.2833,
      "duration": 0.0656,
      "velocity": 114,
      "chip": "ym2612"
    },
    {
      "channel": 1,
      "note": 85,
      "start": 92.3994,
      "duration": 0.2333,
      "velocity": 93,
      "chip": "ym2612"
    },
    {
      "channel": 2,
      "note": 69,
      "start": 92.4,
      "duration": 0.0655,
      "velocity": 114,
      "chip": "ym2612"
    },
    {
      "channel": 0,
      "note": 90,
      "start": 92.5159,
      "duration": 0.35,
      "velocity": 93,
      "chip": "ym2612"
    },
    {
      "channel": 2,
      "note": 69,
      "start": 92.5166,
      "duration": 0.0656,
      "velocity": 114,
      "chip": "ym2612"
    },
    {
      "channel": 1,
      "note": 85,
      "start": 92.6327,
      "duration": 0.1165,
      "velocity": 93,
      "chip": "ym2612"
    },
    {
      "channel": 2,
      "note": 69,
      "start": 92.6333,
      "duration": 0.0656,
      "velocity": 114,
      "chip": "ym2612"
    },
    {
      "channel": 1,
      "note": 82,
      "start": 92.7493,
      "duration": 0.2334,
      "velocity": 93,
      "chip": "ym2612"
    },
    {
      "channel": 0,
      "note": 82,
      "start": 92.866,
      "duration": 0.2333,
      "velocity": 93,
      "chip": "ym2612"
    },
    {
      "channel": 2,
      "note": 69,
      "start": 92.8667,
      "duration": 0.0655,
      "velocity": 114,
      "chip": "ym2612"
    },
    {
      "channel": 1,
      "note": 80,
      "start": 92.9827,
      "duration": 0.2334,
      "velocity": 93,
      "chip": "ym2612"
    },
    {
      "channel": 2,
      "note": 69,
      "start": 92.9833,
      "duration": 0.0656,
      "velocity": 114,
      "chip": "ym2612"
    },
    {
      "channel": 0,
      "note": 78,
      "start": 93.0994,
      "duration": 0.1162,
      "velocity": 93,
      "chip": "ym2612"
    },
    {
      "channel": 2,
      "note": 69,
      "start": 93.1001,
      "duration": 0.0655,
      "velocity": 114,
      "chip": "ym2612"
    },
    {
      "channel": 1,
      "note": 75,
      "start": 93.2161,
      "duration": 0.1203,
      "velocity": 93,
      "chip": "ym2612"
    },
    {
      "channel": 2,
      "note": 69,
      "start": 93.2167,
      "duration": 0.0655,
      "velocity": 114,
      "chip": "ym2612"
    },
    {
      "channel": 0,
      "note": 29,
      "start": 93.3362,
      "duration": 0.0624,
      "velocity": 74,
      "chip": "ym2612"
    },
    {
      "channel": 2,
      "note": 69,
      "start": 93.34,
      "duration": 0.059,
      "velocity": 114,
      "chip": "ym2612"
    },
    {
      "channel": 3,
      "note": 40,
      "start": 93.3406,
      "duration": 0.6896,
      "velocity": 28,
      "chip": "ym2612"
    },
    {
      "channel": 4,
      "note": 98,
      "start": 93.3441,
      "duration": 0.6861,
      "velocity": 94,
      "chip": "ym2612"
    },
    {
      "channel": 0,
      "note": 47,
      "start": 93.4524,
      "duration": 0.063,
      "velocity": 74,
      "chip": "ym2612"
    },
    {
      "channel": 2,
      "note": 69,
      "start": 93.456,
      "duration": 0.0596,
      "velocity": 114,
      "chip": "ym2612"
    },
    {
      "channel": 0,
      "note": 29,
      "start": 93.5694,
      "duration": 0.0626,
      "velocity": 74,
      "chip": "ym2612"
    },
    {
      "channel": 1,
      "note": 36,
      "start": 93.573,
      "duration": 0.0592,
      "velocity": 74,
      "chip": "ym2612"
    },
    {
      "channel": 2,
      "note": 69,
      "start": 93.5736,
      "duration": 0.0588,
      "velocity": 114,
      "chip": "ym2612"
    },
    {
      "channel": 5,
      "note": 98,
      "start": 93.5774,
      "duration": 0.4527,
      "velocity": 94,
      "chip": "ym2612"
    },
    {
      "channel": 0,
      "note": 47,
      "start": 93.6858,
      "duration": 0.0629,
      "velocity": 74,
      "chip": "ym2612"
    },
    {
      "channel": 2,
      "note": 69,
      "start": 93.6865,
      "duration": 0.0625,
      "velocity": 114,
      "chip": "ym2612"
    },
    {
      "channel": 0,
      "note": 29,
      "start": 93.8024,
      "duration": 0.0629,
      "velocity": 74,
      "chip": "ym2612"
    },
    {
      "channel": 2,
      "note": 69,
      "start": 93.8031,
      "duration": 0.0625,
      "velocity": 114,
      "chip": "ym2612"
    },
    {
      "channel": 0,
      "note": 47,
      "start": 93.9189,
      "duration": 0.0631,
      "velocity": 74,
      "chip": "ym2612"
    }
  ]
}