{
  "track_name": "07 - Mega Man- Fireman Stage",
  "duration_sec": 32.579,
  "sample_rate": 44100,
  "note_count": 709,
  "unique_pitches": 38,
  "pitch_range": 57,
  "avg_note_duration": 0.1905,
  "reconstruction_stats": {
    "notes_reconstructed": 709,
    "keyon_events": 709,
    "keyoff_events": 703,
    "orphan_keyons": 6,
    "unique_pitches": 38,
    "pitch_range": 57,
    "avg_duration_sec": 0.1905
  },
  "metadata": {
    "source": "M\\Mega Man - The Wily Wars\\07 - Mega Man- Fireman Stage.vgm"
  },
  "notes": [
    {
      "channel": 3,
      "note": 81,
      "start": 0.0,
      "duration": 0.0761,
      "velocity": 127,
      "chip": "ym2612"
    },
    {
      "channel": 4,
      "note": 56,
      "start": 0.0,
      "duration": 0.0,
      "velocity": 87,
      "chip": "ym2612"
    },
    {
      "channel": 5,
      "note": 75,
      "start": 0.0033,
      "duration": 0.0699,
      "velocity": 120,
      "chip": "ym2612"
    },
    {
      "channel": 3,
      "note": 81,
      "start": 0.0766,
      "duration": 0.0994,
      "velocity": 127,
      "chip": "ym2612"
    },
    {
      "channel": 5,
      "note": 75,
      "start": 0.0775,
      "duration": 0.0957,
      "velocity": 120,
      "chip": "ym2612"
    },
    {
      "channel": 3,
      "note": 81,
      "start": 0.1766,
      "duration": 0.1161,
      "velocity": 127,
      "chip": "ym2612"
    },
    {
      "channel": 5,
      "note": 75,
      "start": 0.1775,
      "duration": 0.1124,
      "velocity": 120,
      "chip": "ym2612"
    },
    {
      "channel": 3,
      "note": 81,
      "start": 0.2933,
      "duration": 0.0994,
      "velocity": 127,
      "chip": "ym2612"
    },
    {
      "channel": 5,
      "note": 75,
      "start": 0.2941,
      "duration": 0.0957,
      "velocity": 120,
      "chip": "ym2612"
    },
    {
      "channel": 3,
      "note": 73,
      "start": 0.3933,
      "duration": 0.0994,
      "velocity": 127,
      "chip": "ym2612"
    },
    {
      "channel": 5,
      "note": 75,
      "start": 0.3941,
      "duration": 0.0957,
      "velocity": 120,
      "chip": "ym2612"
    },
    {
      "channel": 3,
      "note": 73,
      "start": 0.4933,
      "duration": 0.1161,
      "velocity": 127,
      "chip": "ym2612"
    },
    {
      "channel": 5,
      "note": 75,
      "start": 0.4941,
      "duration": 0.1124,
      "velocity": 120,
      "chip": "ym2612"
    },
    {
      "channel": 3,
      "note": 73,
      "start": 0.61,
      "duration": 0.0994,
      "velocity": 127,
      "chip": "ym2612"
    },
    {
      "channel": 5,
      "note": 75,
      "start": 0.6108,
      "duration": 0.0957,
      "velocity": 120,
      "chip": "ym2612"
    },
    {
      "channel": 3,
      "note": 73,
      "start": 0.71,
      "duration": 0.0994,
      "velocity": 127,
      "chip": "ym2612"
    },
    {
      "channel": 5,
      "note": 75,
      "start": 0.7108,
      "duration": 0.0957,
      "velocity": 120,
      "chip": "ym2612"
    },
    {
      "channel": 3,
      "note": 64,
      "start": 0.81,
      "duration": 0.1161,
      "velocity": 127,
      "chip": "ym2612"
    },
    {
      "channel": 5,
      "note": 75,
      "start": 0.8108,
      "duration": 0.1124,
      "velocity": 120,
      "chip": "ym2612"
    },
    {
      "channel": 3,
      "note": 64,
      "start": 0.9266,
      "duration": 0.0994,
      "velocity": 127,
      "chip": "ym2612"
    },
    {
      "channel": 5,
      "note": 75,
      "start": 0.9275,
      "duration": 0.0957,
      "velocity": 120,
      "chip": "ym2612"
    },
    {
      "channel": 3,
      "note": 64,
      "start": 1.0266,
      "duration": 0.1161,
      "velocity": 127,
      "chip": "ym2612"
    },
    {
      "channel": 5,
      "note": 75,
      "start": 1.0275,
      "duration": 0.1124,
      "velocity": 120,
      "chip": "ym2612"
    },
    {
      "channel": 3,
      "note": 64,
      "start": 1.1433,
      "duration": 0.0994,
      "velocity": 127,
      "chip": "ym2612"
    },
    {
      "channel": 5,
      "note": 75,
      "start": 1.1441,
      "duration": 0.0957,
      "velocity": 120,
      "chip": "ym2612"
    },
    {
      "channel": 3,
      "note": 57,
      "start": 1.2433,
      "duration": 0.0994,
      "velocity": 127,
      "chip": "ym2612"
    },
    {
      "channel": 5,
      "note": 75,
      "start": 1.2441,
      "duration": 0.0957,
      "velocity": 120,
      "chip": "ym2612"
    },
    {
      "channel": 3,
      "note": 57,
      "start": 1.3433,
      "duration": 0.1161,
      "velocity": 127,
      "chip": "ym2612"
    },
    {
      "channel": 5,
      "note": 75,
      "start": 1.3441,
      "duration": 0.1124,
      "velocity": 120,
      "chip": "ym2612"
    },
    {
      "channel": 3,
      "note": 57,
      "start": 1.46,
      "duration": 0.0994,
      "velocity": 127,
      "chip": "ym2612"
    },
    {
      "channel": 5,
      "note": 75,
      "start": 1.4608,
      "duration": 0.0957,
      "velocity": 120,
      "chip": "ym2612"
    },
    {
      "channel": 3,
      "note": 57,
      "start": 1.56,
      "duration": 0.1043,
      "velocity": 90,
      "chip": "ym2612"
    },
    {
      "channel": 5,
      "note": 75,
      "start": 1.5608,
      "duration": 0.0961,
      "velocity": 120,
      "chip": "ym2612"
    },
    {
      "channel": 3,
      "note": 82,
      "start": 1.6649,
      "duration": 0.2103,
      "velocity": 90,
      "chip": "ym2612"
    },
    {
      "channel": 4,
      "note": 51,
      "start": 1.6657,
      "duration": 0.2105,
      "velocity": 85,
      "chip": "ym2612"
    },
    {
      "channel": 5,
      "note": 32,
      "start": 1.6665,
      "duration": 0.1414,
      "velocity": 114,
      "chip": "ym2612"
    },
    {
      "channel": 1,
      "note": 58,
      "start": 1.8743,
      "duration": 0.2165,
      "velocity": 104,
      "chip": "ym2612"
    },
    {
      "channel": 2,
      "note": 66,
      "start": 1.875,
      "duration": 0.2161,
      "velocity": 104,
      "chip": "ym2612"
    },
    {
      "channel": 3,
      "note": 82,
      "start": 1.8757,
      "duration": 0.2157,
      "velocity": 90,
      "chip": "ym2612"
    },
    {
      "channel": 4,
      "note": 58,
      "start": 1.8768,
      "duration": 0.1174,
      "velocity": 85,
      "chip": "ym2612"
    },
    {
      "channel": 4,
      "note": 50,
      "start": 1.9948,
      "duration": 0.3168,
      "velocity": 85,
      "chip": "ym2612"
    },
    {
      "channel": 5,
      "note": 32,
      "start": 1.9956,
      "duration": 0.129,
      "velocity": 114,
      "chip": "ym2612"
    },
    {
      "channel": 3,
      "note": 82,
      "start": 2.092,
      "duration": 0.2189,
      "velocity": 90,
      "chip": "ym2612"
    },
    {
      "channel": 1,
      "note": 58,
      "start": 2.3101,
      "duration": 0.1998,
      "velocity": 104,
      "chip": "ym2612"
    },
    {
      "channel": 2,
      "note": 66,
      "start": 2.3108,
      "duration": 0.1994,
      "velocity": 104,
      "chip": "ym2612"
    },
    {
      "channel": 4,
      "note": 58,
      "start": 2.3122,
      "duration": 0.0961,
      "velocity": 85,
      "chip": "ym2612"
    },
    {
      "channel": 5,
      "note": 75,
      "start": 2.3129,
      "duration": 0.194,
      "velocity": 120,
      "chip": "ym2612"
    },
    {
      "channel": 3,
      "note": 74,
      "start": 2.4082,
      "duration": 0.1023,
      "velocity": 90,
      "chip": "ym2612"
    },
    {
      "channel": 4,
      "note": 50,
      "start": 2.4089,
      "duration": 0.1027,
      "velocity": 85,
      "chip": "ym2612"
    },
    {
      "channel": 3,
      "note": 74,
      "start": 2.5111,
      "duration": 0.1127,
      "velocity": 90,
      "chip": "ym2612"
    },
    {
      "channel": 4,
      "note": 49,
      "start": 2.5122,
      "duration": 0.0619,
      "velocity": 85,
      "chip": "ym2612"
    },
    {
      "channel": 5,
      "note": 32,
      "start": 2.513,
      "duration": 0.1449,
      "velocity": 114,
      "chip": "ym2612"
    },
    {
      "channel": 3,
      "note": 74,
      "start": 2.6243,
      "duration": 0.1008,
      "velocity": 90,
      "chip": "ym2612"
    },
    {
      "channel": 4,
      "note": 49,
      "start": 2.6255,
      "duration": 0.0999,
      "velocity": 85,
      "chip": "ym2612"
    },
    {
      "channel": 1,
      "note": 58,
      "start": 2.7243,
      "duration": 0.2166,
      "velocity": 104,
      "chip": "ym2612"
    },
    {
      "channel": 2,
      "note": 66,
      "start": 2.725,
      "duration": 0.2162,
      "velocity": 104,
      "chip": "ym2612"
    },
    {
      "channel": 4,
      "note": 58,
      "start": 2.726,
      "duration": 0.1186,
      "velocity": 85,
      "chip": "ym2612"
    },
    {
      "channel": 3,
      "note": 74,
      "start": 2.8441,
      "duration": 0.0974,
      "velocity": 90,
      "chip": "ym2612"
    },
    {
      "channel": 4,
      "note": 50,
      "start": 2.8451,
      "duration": 0.1454,
      "velocity": 85,
      "chip": "ym2612"
    },
    {
      "channel": 5,
      "note": 32,
      "start": 2.846,
      "duration": 0.1283,
      "velocity": 114,
      "chip": "ym2612"
    },
    {
      "channel": 4,
      "note": 50,
      "start": 3.0415,
      "duration": 0.1195,
      "velocity": 85,
      "chip": "ym2612"
    },
    {
      "channel": 1,
      "note": 58,
      "start": 3.16,
      "duration": 0.2001,
      "velocity": 104,
      "chip": "ym2612"
    },
    {
      "channel": 2,
      "note": 66,
      "start": 3.1608,
      "duration": 0.1996,
      "velocity": 104,
      "chip": "ym2612"
    },
    {
      "channel": 4,
      "note": 58,
      "start": 3.1615,
      "duration": 0.0987,
      "velocity": 85,
      "chip": "ym2612"
    },
    {
      "channel": 5,
      "note": 75,
      "start": 3.1623,
      "duration": 0.0942,
      "velocity": 120,
      "chip": "ym2612"
    },
    {
      "channel": 4,
      "note": 50,
      "start": 3.2608,
      "duration": 0.1013,
      "velocity": 85,
      "chip": "ym2612"
    },
    {
      "channel": 5,
      "note": 32,
      "start": 3.2616,
      "duration": 0.0953,
      "velocity": 114,
      "chip": "ym2612"
    },
    {
      "channel": 3,
      "note": 82,
      "start": 3.3614,
      "duration": 0.2137,
      "velocity": 90,
      "chip": "ym2612"
    },
    {
      "channel": 4,
      "note": 51,
      "start": 3.3626,
      "duration": 0.2136,
      "velocity": 85,
      "chip": "ym2612"
    },
    {
      "channel": 5,
      "note": 32,
      "start": 3.3635,
      "duration": 0.1444,
      "velocity": 114,
      "chip": "ym2612"
    },
    {
      "channel": 1,
      "note": 58,
      "start": 3.5743,
      "duration": 0.2166,
      "velocity": 104,
      "chip": "ym2612"
    },
    {
      "channel": 2,
      "note": 66,
      "start": 3.575,
      "duration": 0.2162,
      "velocity": 104,
      "chip": "ym2612"
    },
    {
      "channel": 3,
      "note": 82,
      "start": 3.5757,
      "duration": 0.2158,
      "velocity": 90,
      "chip": "ym2612"
    },
    {
      "channel": 4,
      "note": 58,
      "start": 3.5768,
      "duration": 0.1174,
      "velocity": 85,
      "chip": "ym2612"
    },
    {
      "channel": 4,
      "note": 50,
      "start": 3.6948,
      "duration": 0.3168,
      "velocity": 85,
      "chip": "ym2612"
    },
    {
      "channel": 5,
      "note": 32,
      "start": 3.6956,
      "duration": 0.129,
      "velocity": 114,
      "chip": "ym2612"
    },
    {
      "channel": 3,
      "note": 82,
      "start": 3.792,
      "duration": 0.2188,
      "velocity": 90,
      "chip": "ym2612"
    },
    {
      "channel": 1,
      "note": 58,
      "start": 4.01,
      "duration": 0.1999,
      "velocity": 104,
      "chip": "ym2612"
    },
    {
      "channel": 2,
      "note": 66,
      "start": 4.0107,
      "duration": 0.1995,
      "velocity": 104,
      "chip": "ym2612"
    },
    {
      "channel": 4,
      "note": 58,
      "start": 4.0121,
      "duration": 0.0962,
      "velocity": 85,
      "chip": "ym2612"
    },
    {
      "channel": 5,
      "note": 75,
      "start": 4.0129,
      "duration": 0.194,
      "velocity": 120,
      "chip": "ym2612"
    },
    {
      "channel": 3,
      "note": 74,
      "start": 4.1082,
      "duration": 0.1023,
      "velocity": 90,
      "chip": "ym2612"
    },
    {
      "channel": 4,
      "note": 50,
      "start": 4.1089,
      "duration": 0.1027,
      "velocity": 85,
      "chip": "ym2612"
    },
    {
      "channel": 3,
      "note": 74,
      "start": 4.2111,
      "duration": 0.1127,
      "velocity": 90,
      "chip": "ym2612"
    },
    {
      "channel": 4,
      "note": 49,
      "start": 4.2122,
      "duration": 0.0619,
      "velocity": 85,
      "chip": "ym2612"
    },
    {
      "channel": 5,
      "note": 32,
      "start": 4.213,
      "duration": 0.1449,
      "velocity": 114,
      "chip": "ym2612"
    },
    {
      "channel": 3,
      "note": 74,
      "start": 4.3243,
      "duration": 0.1008,
      "velocity": 90,
      "chip": "ym2612"
    },
    {
      "channel": 4,
      "note": 49,
      "start": 4.3254,
      "duration": 0.1001,
      "velocity": 85,
      "chip": "ym2612"
    },
    {
      "channel": 1,
      "note": 58,
      "start": 4.4243,
      "duration": 0.2193,
      "velocity": 104,
      "chip": "ym2612"
    },
    {
      "channel": 2,
      "note": 66,
      "start": 4.425,
      "duration": 0.219,
      "velocity": 104,
      "chip": "ym2612"
    },
    {
      "channel": 4,
      "note": 58,
      "start": 4.4261,
      "duration": 0.1185,
      "velocity": 85,
      "chip": "ym2612"
    },
    {
      "channel": 3,
      "note": 74,
      "start": 4.5441,
      "duration": 0.1002,
      "velocity": 90,
      "chip": "ym2612"
    },
    {
      "channel": 4,
      "note": 50,
      "start": 4.5451,
      "duration": 0.1454,
      "velocity": 85,
      "chip": "ym2612"
    },
    {
      "channel": 5,
      "note": 32,
      "start": 4.546,
      "duration": 0.0939,
      "velocity": 114,
      "chip": "ym2612"
    },
    {
      "channel": 0,
      "note": 70,
      "start": 4.6435,
      "duration": 0.4168,
      "velocity": 107,
      "chip": "ym2612"
    },
    {
      "channel": 5,
      "note": 75,
      "start": 4.6455,
      "duration": 0.211,
      "velocity": 120,
      "chip": "ym2612"
    },
    {
      "channel": 4,
      "note": 50,
      "start": 4.7416,
      "duration": 0.1195,
      "velocity": 85,
      "chip": "ym2612"
    },
    {
      "channel": 1,
      "note": 58,
      "start": 4.8602,
      "duration": 0.1468,
      "velocity": 104,
      "chip": "ym2612"
    },
    {
      "channel": 2,
      "note": 66,
      "start": 4.8609,
      "duration": 0.201,
      "velocity": 104,
      "chip": "ym2612"
    },
    {
      "channel": 4,
      "note": 58,
      "start": 4.8617,
      "duration": 0.0987,
      "velocity": 85,
      "chip": "ym2612"
    },
    {
      "channel": 5,
      "note": 75,
      "start": 4.8624,
      "duration": 0.0941,
      "velocity": 120,
      "chip": "ym2612"
    },
    {
      "channel": 4,
      "note": 50,
      "start": 4.9609,
      "duration": 0.1026,
      "velocity": 85,
      "chip": "ym2612"
    },
    {
      "channel": 5,
      "note": 75,
      "start": 4.9616,
      "duration": 0.0957,
      "velocity": 120,
      "chip": "ym2612"
    },
    {
      "channel": 0,
      "note": 75,
      "start": 5.061,
      "duration": 0.8485,
      "velocity": 107,
      "chip": "ym2612"
    },
    {
      "channel": 3,
      "note": 82,
      "start": 5.0628,
      "duration": 0.2125,
      "velocity": 90,
      "chip": "ym2612"
    },
    {
      "channel": 4,
      "note": 51,
      "start": 5.0641,
      "duration": 0.2123,
      "velocity": 85,
      "chip": "ym2612"
    },
    {
      "channel": 5,
      "note": 32,
      "start": 5.0649,
      "duration": 0.1429,
      "velocity": 114,
      "chip": "ym2612"
    },
    {
      "channel": 1,
      "note": 58,
      "start": 5.2745,
      "duration": 0.2164,
      "velocity": 104,
      "chip": "ym2612"
    },
    {
      "channel": 2,
      "note": 66,
      "start": 5.2752,
      "duration": 0.216,
      "velocity": 104,
      "chip": "ym2612"
    },
    {
      "channel": 3,
      "note": 82,
      "start": 5.2759,
      "duration": 0.2156,
      "velocity": 90,
      "chip": "ym2612"
    },
    {
      "channel": 4,
      "note": 58,
      "start": 5.277,
      "duration": 0.1173,
      "velocity": 85,
      "chip": "ym2612"
    },
    {
      "channel": 4,
      "note": 50,
      "start": 5.3949,
      "duration": 0.3168,
      "velocity": 85,
      "chip": "ym2612"
    },
    {
      "channel": 5,
      "note": 32,
      "start": 5.3957,
      "duration": 0.1289,
      "velocity": 114,
      "chip": "ym2612"
    },
    {
      "channel": 3,
      "note": 82,
      "start": 5.4921,
      "duration": 0.2189,
      "velocity": 90,
      "chip": "ym2612"
    },
    {
      "channel": 1,
      "note": 58,
      "start": 5.7102,
      "duration": 0.2002,
      "velocity": 104,
      "chip": "ym2612"
    },
    {
      "channel": 2,
      "note": 66,
      "start": 5.7109,
      "duration": 0.1998,
      "velocity": 104,
      "chip": "ym2612"
    },
    {
      "channel": 4,
      "note": 58,
      "start": 5.7122,
      "duration": 0.0962,
      "velocity": 85,
      "chip": "ym2612"
    },
    {
      "channel": 5,
      "note": 75,
      "start": 5.713,
      "duration": 0.1939,
      "velocity": 120,
      "chip": "ym2612"
    },
    {
      "channel": 3,
      "note": 74,
      "start": 5.8083,
      "duration": 0.1027,
      "velocity": 90,
      "chip": "ym2612"
    },
    {
      "channel": 4,
      "note": 50,
      "start": 5.809,
      "duration": 0.1031,
      "velocity": 85,
      "chip": "ym2612"
    },
    {
      "channel": 0,
      "note": 73,
      "start": 5.9102,
      "duration": 0.1131,
      "velocity": 107,
      "chip": "ym2612"
    },
    {
      "channel": 3,
      "note": 74,
      "start": 5.9115,
      "duration": 0.1127,
      "velocity": 90,
      "chip": "ym2612"
    },
    {
      "channel": 4,
      "note": 49,
      "start": 5.9126,
      "duration": 0.0615,
      "velocity": 85,
      "chip": "ym2612"
    },
    {
      "channel": 5,
      "note": 32,
      "start": 5.9135,
      "duration": 0.1444,
      "velocity": 114,
      "chip": "ym2612"
    },
    {
      "channel": 0,
      "note": 75,
      "start": 6.0239,
      "duration": 0.2186,
      "velocity": 107,
      "chip": "ym2612"
    },
    {
      "channel": 3,
      "note": 74,
      "start": 6.0249,
      "duration": 0.1003,
      "velocity": 90,
      "chip": "ym2612"
    },
    {
      "channel": 4,
      "note": 49,
      "start": 6.0259,
      "duration": 0.0996,
      "velocity": 85,
      "chip": "ym2612"
    },
    {
      "channel": 1,
      "note": 58,
      "start": 6.1243,
      "duration": 0.2165,
      "velocity": 104,
      "chip": "ym2612"
    },
    {
      "channel": 2,
      "note": 66,
      "start": 6.125,
      "duration": 0.2161,
      "velocity": 104,
      "chip": "ym2612"
    },
    {
      "channel": 4,
      "note": 58,
      "start": 6.1261,
      "duration": 0.119,
      "velocity": 85,
      "chip": "ym2612"
    },
    {
      "channel": 0,
      "note": 73,
      "start": 6.2431,
      "duration": 0.1968,
      "velocity": 107,
      "chip": "ym2612"
    },
    {
      "channel": 3,
      "note": 74,
      "start": 6.2445,
      "duration": 0.0969,
      "velocity": 90,
      "chip": "ym2612"
    },
    {
      "channel": 4,
      "note": 50,
      "start": 6.2456,
      "duration": 0.1449,
      "velocity": 85,
      "chip": "ym2612"
    },
    {
      "channel": 5,
      "note": 32,
      "start": 6.2464,
      "duration": 0.1278,
      "velocity": 114,
      "chip": "ym2612"
    },
    {
      "channel": 0,
      "note": 70,
      "start": 6.4406,
      "duration": 0.2186,
      "velocity": 107,
      "chip": "ym2612"
    },
    {
      "channel": 4,
      "note": 50,
      "start": 6.4419,
      "duration": 0.1191,
      "velocity": 85,
      "chip": "ym2612"
    },
    {
      "channel": 1,
      "note": 58,
      "start": 6.5601,
      "duration": 0.2002,
      "velocity": 104,
      "chip": "ym2612"
    },
    {
      "channel": 2,
      "note": 66,
      "start": 6.5608,
      "duration": 0.1999,
      "velocity": 104,
      "chip": "ym2612"
    },
    {
      "channel": 4,
      "note": 58,
      "start": 6.5615,
      "duration": 0.0991,
      "velocity": 85,
      "chip": "ym2612"
    },
    {
      "channel": 5,
      "note": 75,
      "start": 6.5623,
      "duration": 0.0942,
      "velocity": 120,
      "chip": "ym2612"
    },
    {
      "channel": 0,
      "note": 68,
      "start": 6.6598,
      "duration": 0.0998,
      "velocity": 107,
      "chip": "ym2612"
    },
    {
      "channel": 4,
      "note": 50,
      "start": 6.6612,
      "duration": 0.1012,
      "velocity": 85,
      "chip": "ym2612"
    },
    {
      "channel": 5,
      "note": 32,
      "start": 6.6621,
      "duration": 0.0949,
      "velocity": 114,
      "chip": "ym2612"
    },
    {
      "channel": 0,
      "note": 70,
      "start": 6.7602,
      "duration": 1.2297,
      "velocity": 107,
      "chip": "ym2612"
    },
    {
      "channel": 3,
      "note": 82,
      "start": 6.7616,
      "duration": 0.2137,
      "velocity": 90,
      "chip": "ym2612"
    },
    {
      "channel": 4,
      "note": 51,
      "start": 6.7629,
      "duration": 0.2135,
      "velocity": 85,
      "chip": "ym2612"
    },
    {
      "channel": 5,
      "note": 32,
      "start": 6.7638,
      "duration": 0.1441,
      "velocity": 114,
      "chip": "ym2612"
    },
    {
      "channel": 1,
      "note": 58,
      "start": 6.9745,
      "duration": 0.2164,
      "velocity": 104,
      "chip": "ym2612"
    },
    {
      "channel": 2,
      "note": 66,
      "start": 6.9752,
      "duration": 0.216,
      "velocity": 104,
      "chip": "ym2612"
    },
    {
      "channel": 3,
      "note": 82,
      "start": 6.9759,
      "duration": 0.2156,
      "velocity": 90,
      "chip": "ym2612"
    },
    {
      "channel": 4,
      "note": 58,
      "start": 6.977,
      "duration": 0.1173,
      "velocity": 85,
      "chip": "ym2612"
    },
    {
      "channel": 4,
      "note": 50,
      "start": 7.0949,
      "duration": 0.3168,
      "velocity": 85,
      "chip": "ym2612"
    },
    {
      "channel": 5,
      "note": 32,
      "start": 7.0957,
      "duration": 0.1289,
      "velocity": 114,
      "chip": "ym2612"
    },
    {
      "channel": 3,
      "note": 82,
      "start": 7.1921,
      "duration": 0.2189,
      "velocity": 90,
      "chip": "ym2612"
    },
    {
      "channel": 1,
      "note": 58,
      "start": 7.4102,
      "duration": 0.1998,
      "velocity": 104,
      "chip": "ym2612"
    },
    {
      "channel": 2,
      "note": 66,
      "start": 7.4109,
      "duration": 0.1994,
      "velocity": 104,
      "chip": "ym2612"
    },
    {
      "channel": 4,
      "note": 58,
      "start": 7.4122,
      "duration": 0.0962,
      "velocity": 85,
      "chip": "ym2612"
    },
    {
      "channel": 5,
      "note": 75,
      "start": 7.413,
      "duration": 0.1939,
      "velocity": 120,
      "chip": "ym2612"
    },
    {
      "channel": 3,
      "note": 74,
      "start": 7.5083,
      "duration": 0.1023,
      "velocity": 90,
      "chip": "ym2612"
    },
    {
      "channel": 4,
      "note": 50,
      "start": 7.509,
      "duration": 0.1027,
      "velocity": 85,
      "chip": "ym2612"
    },
    {
      "channel": 3,
      "note": 74,
      "start": 7.6112,
      "duration": 0.1127,
      "velocity": 90,
      "chip": "ym2612"
    },
    {
      "channel": 4,
      "note": 49,
      "start": 7.6123,
      "duration": 0.062,
      "velocity": 85,
      "chip": "ym2612"
    },
    {
      "channel": 5,
      "note": 32,
      "start": 7.6132,
      "duration": 0.1448,
      "velocity": 114,
      "chip": "ym2612"
    },
    {
      "channel": 3,
      "note": 74,
      "start": 7.7245,
      "duration": 0.1008,
      "velocity": 90,
      "chip": "ym2612"
    },
    {
      "channel": 4,
      "note": 49,
      "start": 7.7256,
      "duration": 0.1,
      "velocity": 85,
      "chip": "ym2612"
    },
    {
      "channel": 1,
      "note": 58,
      "start": 7.8244,
      "duration": 0.2189,
      "velocity": 104,
      "chip": "ym2612"
    },
    {
      "channel": 2,
      "note": 66,
      "start": 7.8251,
      "duration": 0.2185,
      "velocity": 104,
      "chip": "ym2612"
    },
    {
      "channel": 4,
      "note": 58,
      "start": 7.8261,
      "duration": 0.1186,
      "velocity": 85,
      "chip": "ym2612"
    },
    {
      "channel": 3,
      "note": 74,
      "start": 7.9442,
      "duration": 0.0997,
      "velocity": 90,
      "chip": "ym2612"
    },
    {
      "channel": 4,
      "note": 50,
      "start": 7.9453,
      "duration": 0.1452,
      "velocity": 85,
      "chip": "ym2612"
    },
    {
      "channel": 5,
      "note": 32,
      "start": 7.9461,
      "duration": 0.0938,
      "velocity": 114,
      "chip": "ym2612"
    },
    {
      "channel": 0,
      "note": 70,
      "start": 8.0432,
      "duration": 0.4168,
      "velocity": 107,
      "chip": "ym2612"
    },
    {
      "channel": 5,
      "note": 75,
      "start": 8.0451,
      "duration": 0.2114,
      "velocity": 120,
      "chip": "ym2612"
    },
    {
      "channel": 4,
      "note": 50,
      "start": 8.1416,
      "duration": 0.1195,
      "velocity": 85,
      "chip": "ym2612"
    },
    {
      "channel": 1,
      "note": 58,
      "start": 8.2602,
      "duration": 0.1468,
      "velocity": 104,
      "chip": "ym2612"
    },
    {
      "channel": 2,
      "note": 66,
      "start": 8.2609,
      "duration": 0.2006,
      "velocity": 104,
      "chip": "ym2612"
    },
    {
      "channel": 4,
      "note": 58,
      "start": 8.2617,
      "duration": 0.0987,
      "velocity": 85,
      "chip": "ym2612"
    },
    {
      "channel": 5,
      "note": 75,
      "start": 8.2624,
      "duration": 0.0941,
      "velocity": 120,
      "chip": "ym2612"
    },
    {
      "channel": 4,
      "note": 50,
      "start": 8.3609,
      "duration": 0.1023,
      "velocity": 85,
      "chip": "ym2612"
    },
    {
      "channel": 5,
      "note": 75,
      "start": 8.3616,
      "duration": 0.0957,
      "velocity": 120,
      "chip": "ym2612"
    },
    {
      "channel": 0,
      "note": 75,
      "start": 8.4607,
      "duration": 0.8489,
      "velocity": 107,
      "chip": "ym2612"
    },
    {
      "channel": 3,
      "note": 82,
      "start": 8.4625,
      "duration": 0.2128,
      "velocity": 90,
      "chip": "ym2612"
    },
    {
      "channel": 4,
      "note": 51,
      "start": 8.4638,
      "duration": 0.2127,
      "velocity": 85,
      "chip": "ym2612"
    },
    {
      "channel": 5,
      "note": 32,
      "start": 8.4646,
      "duration": 0.1433,
      "velocity": 114,
      "chip": "ym2612"
    },
    {
      "channel": 1,
      "note": 58,
      "start": 8.6745,
      "duration": 0.2164,
      "velocity": 104,
      "chip": "ym2612"
    },
    {
      "channel": 2,
      "note": 66,
      "start": 8.6752,
      "duration": 0.216,
      "velocity": 104,
      "chip": "ym2612"
    },
    {
      "channel": 3,
      "note": 82,
      "start": 8.6759,
      "duration": 0.2156,
      "velocity": 90,
      "chip": "ym2612"
    },
    {
      "channel": 4,
      "note": 58,
      "start": 8.677,
      "duration": 0.1007,
      "velocity": 85,
      "chip": "ym2612"
    },
    {
      "channel": 4,
      "note": 50,
      "start": 8.7782,
      "duration": 0.3335,
      "velocity": 85,
      "chip": "ym2612"
    },
    {
      "channel": 5,
      "note": 32,
      "start": 8.779,
      "duration": 0.1456,
      "velocity": 114,
      "chip": "ym2612"
    },
    {
      "channel": 3,
      "note": 82,
      "start": 8.8921,
      "duration": 0.2189,
      "velocity": 90,
      "chip": "ym2612"
    },
    {
      "channel": 1,
      "note": 58,
      "start": 9.1102,
      "duration": 0.2002,
      "velocity": 104,
      "chip": "ym2612"
    },
    {
      "channel": 2,
      "note": 66,
      "start": 9.1109,
      "duration": 0.1998,
      "velocity": 104,
      "chip": "ym2612"
    },
    {
      "channel": 4,
      "note": 58,
      "start": 9.1122,
      "duration": 0.0962,
      "velocity": 85,
      "chip": "ym2612"
    },
    {
      "channel": 5,
      "note": 75,
      "start": 9.113,
      "duration": 0.1939,
      "velocity": 120,
      "chip": "ym2612"
    },
    {
      "channel": 3,
      "note": 74,
      "start": 9.2083,
      "duration": 0.1027,
      "velocity": 90,
      "chip": "ym2612"
    },
    {
      "channel": 4,
      "note": 50,
      "start": 9.209,
      "duration": 0.1031,
      "velocity": 85,
      "chip": "ym2612"
    },
    {
      "channel": 0,
      "note": 73,
      "start": 9.3102,
      "duration": 0.1131,
      "velocity": 107,
      "chip": "ym2612"
    },
    {
      "channel": 3,
      "note": 74,
      "start": 9.3115,
      "duration": 0.1127,
      "velocity": 90,
      "chip": "ym2612"
    },
    {
      "channel": 4,
      "note": 49,
      "start": 9.3126,
      "duration": 0.0615,
      "velocity": 85,
      "chip": "ym2612"
    },
    {
      "channel": 5,
      "note": 32,
      "start": 9.3135,
      "duration": 0.1444,
      "velocity": 114,
      "chip": "ym2612"
    },
    {
      "channel": 0,
      "note": 75,
      "start": 9.4239,
      "duration": 0.2019,
      "velocity": 107,
      "chip": "ym2612"
    },
    {
      "channel": 3,
      "note": 74,
      "start": 9.4249,
      "duration": 0.1003,
      "velocity": 90,
      "chip": "ym2612"
    },
    {
      "channel": 4,
      "note": 49,
      "start": 9.4259,
      "duration": 0.0996,
      "velocity": 85,
      "chip": "ym2612"
    },
    {
      "channel": 1,
      "note": 58,
      "start": 9.5243,
      "duration": 0.2165,
      "velocity": 104,
      "chip": "ym2612"
    },
    {
      "channel": 2,
      "note": 66,
      "start": 9.525,
      "duration": 0.2161,
      "velocity": 104,
      "chip": "ym2612"
    },
    {
      "channel": 4,
      "note": 58,
      "start": 9.5261,
      "duration": 0.1023,
      "velocity": 85,
      "chip": "ym2612"
    },
    {
      "channel": 0,
      "note": 77,
      "start": 9.6264,
      "duration": 0.2135,
      "velocity": 107,
      "chip": "ym2612"
    },
    {
      "channel": 3,
      "note": 74,
      "start": 9.6278,
      "duration": 0.1136,
      "velocity": 90,
      "chip": "ym2612"
    },
    {
      "channel": 4,
      "note": 50,
      "start": 9.6289,
      "duration": 0.1616,
      "velocity": 85,
      "chip": "ym2612"
    },
    {
      "channel": 5,
      "note": 32,
      "start": 9.6298,
      "duration": 0.1445,
      "velocity": 114,
      "chip": "ym2612"
    },
    {
      "channel": 0,
      "note": 75,
      "start": 9.8406,
      "duration": 0.2186,
      "velocity": 107,
      "chip": "ym2612"
    },
    {
      "channel": 4,
      "note": 50,
      "start": 9.8419,
      "duration": 0.1191,
      "velocity": 85,
      "chip": "ym2612"
    },
    {
      "channel": 1,
      "note": 58,
      "start": 9.9601,
      "duration": 0.2002,
      "velocity": 104,
      "chip": "ym2612"
    },
    {
      "channel": 2,
      "note": 66,
      "start": 9.9608,
      "duration": 0.1999,
      "velocity": 104,
      "chip": "ym2612"
    },
    {
      "channel": 4,
      "note": 58,
      "start": 9.9615,
      "duration": 0.0991,
      "velocity": 85,
      "chip": "ym2612"
    },
    {
      "channel": 5,
      "note": 75,
      "start": 9.9623,
      "duration": 0.0942,
      "velocity": 120,
      "chip": "ym2612"
    },
    {
      "channel": 0,
      "note": 73,
      "start": 10.0598,
      "duration": 0.0998,
      "velocity": 107,
      "chip": "ym2612"
    },
    {
      "channel": 4,
      "note": 50,
      "start": 10.0612,
      "duration": 0.1012,
      "velocity": 85,
      "chip": "ym2612"
    },
    {
      "channel": 5,
      "note": 32,
      "start": 10.0621,
      "duration": 0.0949,
      "velocity": 114,
      "chip": "ym2612"
    },
    {
      "channel": 0,
      "note": 75,
      "start": 10.1602,
      "duration": 0.8493,
      "velocity": 107,
      "chip": "ym2612"
    },
    {
      "channel": 3,
      "note": 82,
      "start": 10.1616,
      "duration": 0.2137,
      "velocity": 90,
      "chip": "ym2612"
    },
    {
      "channel": 4,
      "note": 51,
      "start": 10.1629,
      "duration": 0.2134,
      "velocity": 85,
      "chip": "ym2612"
    },
    {
      "channel": 5,
      "note": 32,
      "start": 10.1638,
      "duration": 0.1441,
      "velocity": 114,
      "chip": "ym2612"
    },
    {
      "channel": 1,
      "note": 58,
      "start": 10.3745,
      "duration": 0.2164,
      "velocity": 104,
      "chip": "ym2612"
    },
    {
      "channel": 2,
      "note": 66,
      "start": 10.3752,
      "duration": 0.216,
      "velocity": 104,
      "chip": "ym2612"
    },
    {
      "channel": 3,
      "note": 82,
      "start": 10.3759,
      "duration": 0.2156,
      "velocity": 90,
      "chip": "ym2612"
    },
    {
      "channel": 4,
      "note": 58,
      "start": 10.3769,
      "duration": 0.1007,
      "velocity": 85,
      "chip": "ym2612"
    },
    {
      "channel": 4,
      "note": 50,
      "start": 10.4782,
      "duration": 0.3335,
      "velocity": 85,
      "chip": "ym2612"
    },
    {
      "channel": 5,
      "note": 32,
      "start": 10.479,
      "duration": 0.1455,
      "velocity": 114,
      "chip": "ym2612"
    },
    {
      "channel": 3,
      "note": 82,
      "start": 10.5921,
      "duration": 0.2189,
      "velocity": 90,
      "chip": "ym2612"
    },
    {
      "channel": 1,
      "note": 58,
      "start": 10.8102,
      "duration": 0.2002,
      "velocity": 104,
      "chip": "ym2612"
    },
    {
      "channel": 2,
      "note": 66,
      "start": 10.8109,
      "duration": 0.1998,
      "velocity": 104,
      "chip": "ym2612"
    },
    {
      "channel": 4,
      "note": 58,
      "start": 10.8122,
      "duration": 0.0962,
      "velocity": 85,
      "chip": "ym2612"
    },
    {
      "channel": 5,
      "note": 75,
      "start": 10.813,
      "duration": 0.1939,
      "velocity": 120,
      "chip": "ym2612"
    },
    {
      "channel": 3,
      "note": 74,
      "start": 10.9083,
      "duration": 0.1027,
      "velocity": 90,
      "chip": "ym2612"
    },
    {
      "channel": 4,
      "note": 50,
      "start": 10.909,
      "duration": 0.1031,
      "velocity": 85,
      "chip": "ym2612"
    },
    {
      "channel": 0,
      "note": 76,
      "start": 11.0102,
      "duration": 0.0801,
      "velocity": 107,
      "chip": "ym2612"
    },
    {
      "channel": 3,
      "note": 74,
      "start": 11.0115,
      "duration": 0.1122,
      "velocity": 90,
      "chip": "ym2612"
    },
    {
      "channel": 4,
      "note": 49,
      "start": 11.0126,
      "duration": 0.0615,
      "velocity": 85,
      "chip": "ym2612"
    },
    {
      "channel": 5,
      "note": 32,
      "start": 11.0135,
      "duration": 0.1452,
      "velocity": 114,
      "chip": "ym2612"
    },
    {
      "channel": 0,
      "note": 77,
      "start": 11.0909,
      "duration": 0.066,
      "velocity": 107,
      "chip": "ym2612"
    },
    {
      "channel": 3,
      "note": 74,
      "start": 11.1243,
      "duration": 0.1017,
      "velocity": 90,
      "chip": "ym2612"
    },
    {
      "channel": 4,
      "note": 49,
      "start": 11.1254,
      "duration": 0.1009,
      "velocity": 85,
      "chip": "ym2612"
    },
    {
      "channel": 0,
      "note": 78,
      "start": 11.1576,
      "duration": 0.0662,
      "velocity": 107,
      "chip": "ym2612"
    },
    {
      "channel": 0,
      "note": 79,
      "start": 11.2244,
      "duration": 0.0655,
      "velocity": 107,
      "chip": "ym2612"
    },
    {
      "channel": 1,
      "note": 58,
      "start": 11.2252,
      "duration": 0.2185,
      "velocity": 104,
      "chip": "ym2612"
    },
    {
      "channel": 2,
      "note": 66,
      "start": 11.2259,
      "duration": 0.2181,
      "velocity": 104,
      "chip": "ym2612"
    },
    {
      "channel": 4,
      "note": 58,
      "start": 11.2269,
      "duration": 0.101,
      "velocity": 85,
      "chip": "ym2612"
    },
    {
      "channel": 0,
      "note": 80,
      "start": 11.2906,
      "duration": 0.0827,
      "velocity": 107,
      "chip": "ym2612"
    },
    {
      "channel": 3,
      "note": 74,
      "start": 11.3274,
      "duration": 0.1169,
      "velocity": 90,
      "chip": "ym2612"
    },
    {
      "channel": 4,
      "note": 50,
      "start": 11.3285,
      "duration": 0.162,
      "velocity": 85,
      "chip": "ym2612"
    },
    {
      "channel": 5,
      "note": 32,
      "start": 11.3293,
      "duration": 0.1106,
      "velocity": 114,
      "chip": "ym2612"
    },
    {
      "channel": 0,
      "note": 81,
      "start": 11.3739,
      "duration": 0.069,
      "velocity": 107,
      "chip": "ym2612"
    },
    {
      "channel": 0,
      "note": 82,
      "start": 11.4435,
      "duration": 0.4165,
      "velocity": 107,
      "chip": "ym2612"
    },
    {
      "channel": 5,
      "note": 75,
      "start": 11.4455,
      "duration": 0.211,
      "velocity": 120,
      "chip": "ym2612"
    },
    {
      "channel": 4,
      "note": 50,
      "start": 11.5416,
      "duration": 0.1195,
      "velocity": 85,
      "chip": "ym2612"
    },
    {
      "channel": 1,
      "note": 58,
      "start": 11.6602,
      "duration": 0.1468,
      "velocity": 104,
      "chip": "ym2612"
    },
    {
      "channel": 2,
      "note": 66,
      "start": 11.6609,
      "duration": 0.2006,
      "velocity": 104,
      "chip": "ym2612"
    },
    {
      "channel": 4,
      "note": 58,
      "start": 11.6617,
      "duration": 0.0987,
      "velocity": 85,
      "chip": "ym2612"
    },
    {
      "channel": 5,
      "note": 75,
      "start": 11.6624,
      "duration": 0.0941,
      "velocity": 120,
      "chip": "ym2612"
    },
    {
      "channel": 4,
      "note": 50,
      "start": 11.7609,
      "duration": 0.1023,
      "velocity": 85,
      "chip": "ym2612"
    },
    {
      "channel": 5,
      "note": 75,
      "start": 11.7616,
      "duration": 0.0957,
      "velocity": 120,
      "chip": "ym2612"
    },
    {
      "channel": 0,
      "note": 87,
      "start": 11.8607,
      "duration": 0.8489,
      "velocity": 107,
      "chip": "ym2612"
    },
    {
      "channel": 3,
      "note": 82,
      "start": 11.8625,
      "duration": 0.2128,
      "velocity": 90,
      "chip": "ym2612"
    },
    {
      "channel": 4,
      "note": 51,
      "start": 11.8638,
      "duration": 0.2127,
      "velocity": 85,
      "chip": "ym2612"
    },
    {
      "channel": 5,
      "note": 32,
      "start": 11.8646,
      "duration": 0.1433,
      "velocity": 114,
      "chip": "ym2612"
    },
    {
      "channel": 1,
      "note": 58,
      "start": 12.0745,
      "duration": 0.2164,
      "velocity": 104,
      "chip": "ym2612"
    },
    {
      "channel": 2,
      "note": 66,
      "start": 12.0752,
      "duration": 0.216,
      "velocity": 104,
      "chip": "ym2612"
    },
    {
      "channel": 3,
      "note": 82,
      "start": 12.0759,
      "duration": 0.2156,
      "velocity": 90,
      "chip": "ym2612"
    },
    {
      "channel": 4,
      "note": 58,
      "start": 12.077,
      "duration": 0.1006,
      "velocity": 85,
      "chip": "ym2612"
    },
    {
      "channel": 4,
      "note": 50,
      "start": 12.1782,
      "duration": 0.3335,
      "velocity": 85,
      "chip": "ym2612"
    },
    {
      "channel": 5,
      "note": 32,
      "start": 12.179,
      "duration": 0.1455,
      "velocity": 114,
      "chip": "ym2612"
    },
    {
      "channel": 3,
      "note": 82,
      "start": 12.2921,
      "duration": 0.2189,
      "velocity": 90,
      "chip": "ym2612"
    },
    {
      "channel": 1,
      "note": 58,
      "start": 12.5102,
      "duration": 0.2002,
      "velocity": 104,
      "chip": "ym2612"
    },
    {
      "channel": 2,
      "note": 66,
      "start": 12.5109,
      "duration": 0.1998,
      "velocity": 104,
      "chip": "ym2612"
    },
    {
      "channel": 4,
      "note": 58,
      "start": 12.5122,
      "duration": 0.0962,
      "velocity": 85,
      "chip": "ym2612"
    },
    {
      "channel": 5,
      "note": 75,
      "start": 12.513,
      "duration": 0.1939,
      "velocity": 120,
      "chip": "ym2612"
    },
    {
      "channel": 3,
      "note": 74,
      "start": 12.6083,
      "duration": 0.1027,
      "velocity": 90,
      "chip": "ym2612"
    },
    {
      "channel": 4,
      "note": 50,
      "start": 12.609,
      "duration": 0.1031,
      "velocity": 85,
      "chip": "ym2612"
    },
    {
      "channel": 0,
      "note": 85,
      "start": 12.7102,
      "duration": 0.1131,
      "velocity": 107,
      "chip": "ym2612"
    },
    {
      "channel": 3,
      "note": 74,
      "start": 12.7115,
      "duration": 0.1127,
      "velocity": 90,
      "chip": "ym2612"
    },
    {
      "channel": 4,
      "note": 49,
      "start": 12.7127,
      "duration": 0.0614,
      "velocity": 85,
      "chip": "ym2612"
    },
    {
      "channel": 5,
      "note": 32,
      "start": 12.7135,
      "duration": 0.1444,
      "velocity": 114,
      "chip": "ym2612"
    },
    {
      "channel": 0,
      "note": 87,
      "start": 12.8239,
      "duration": 0.2019,
      "velocity": 107,
      "chip": "ym2612"
    },
    {
      "channel": 3,
      "note": 74,
      "start": 12.8249,
      "duration": 0.1002,
      "velocity": 90,
      "chip": "ym2612"
    },
    {
      "channel": 4,
      "note": 49,
      "start": 12.8259,
      "duration": 0.0995,
      "velocity": 85,
      "chip": "ym2612"
    },
    {
      "channel": 1,
      "note": 58,
      "start": 12.9243,
      "duration": 0.2166,
      "velocity": 104,
      "chip": "ym2612"
    },
    {
      "channel": 2,
      "note": 66,
      "start": 12.925,
      "duration": 0.2162,
      "velocity": 104,
      "chip": "ym2612"
    },
    {
      "channel": 4,
      "note": 58,
      "start": 12.926,
      "duration": 0.1024,
      "velocity": 85,
      "chip": "ym2612"
    },
    {
      "channel": 0,
      "note": 85,
      "start": 13.0265,
      "duration": 0.2134,
      "velocity": 107,
      "chip": "ym2612"
    },
    {
      "channel": 3,
      "note": 74,
      "start": 13.0279,
      "duration": 0.1136,
      "velocity": 90,
      "chip": "ym2612"
    },
    {
      "channel": 4,
      "note": 50,
      "start": 13.029,
      "duration": 0.1615,
      "velocity": 85,
      "chip": "ym2612"
    },
    {
      "channel": 5,
      "note": 32,
      "start": 13.0298,
      "duration": 0.1444,
      "velocity": 114,
      "chip": "ym2612"
    },
    {
      "channel": 0,
      "note": 82,
      "start": 13.2406,
      "duration": 0.2186,
      "velocity": 107,
      "chip": "ym2612"
    },
    {
      "channel": 4,
      "note": 50,
      "start": 13.242,
      "duration": 0.119,
      "velocity": 85,
      "chip": "ym2612"
    },
    {
      "channel": 1,
      "note": 58,
      "start": 13.3601,
      "duration": 0.2002,
      "velocity": 104,
      "chip": "ym2612"
    },
    {
      "channel": 2,
      "note": 66,
      "start": 13.3608,
      "duration": 0.1999,
      "velocity": 104,
      "chip": "ym2612"
    },
    {
      "channel": 4,
      "note": 58,
      "start": 13.3615,
      "duration": 0.0991,
      "velocity": 85,
      "chip": "ym2612"
    },
    {
      "channel": 5,
      "note": 75,
      "start": 13.3623,
      "duration": 0.0942,
      "velocity": 120,
      "chip": "ym2612"
    },
    {
      "channel": 0,
      "note": 80,
      "start": 13.4598,
      "duration": 0.0998,
      "velocity": 107,
      "chip": "ym2612"
    },
    {
      "channel": 4,
      "note": 50,
      "start": 13.4612,
      "duration": 0.1012,
      "velocity": 85,
      "chip": "ym2612"
    },
    {
      "channel": 5,
      "note": 32,
      "start": 13.4621,
      "duration": 0.0949,
      "velocity": 114,
      "chip": "ym2612"
    },
    {
      "channel": 0,
      "note": 82,
      "start": 13.5602,
      "duration": 1.2297,
      "velocity": 107,
      "chip": "ym2612"
    },
    {
      "channel": 3,
      "note": 82,
      "start": 13.5617,
      "duration": 0.2136,
      "velocity": 90,
      "chip": "ym2612"
    },
    {
      "channel": 4,
      "note": 51,
      "start": 13.5629,
      "duration": 0.2134,
      "velocity": 85,
      "chip": "ym2612"
    },
    {
      "channel": 5,
      "note": 32,
      "start": 13.5638,
      "duration": 0.1441,
      "velocity": 114,
      "chip": "ym2612"
    },
    {
      "channel": 1,
      "note": 58,
      "start": 13.7745,
      "duration": 0.2164,
      "velocity": 104,
      "chip": "ym2612"
    },
    {
      "channel": 2,
      "note": 66,
      "start": 13.7752,
      "duration": 0.216,
      "velocity": 104,
      "chip": "ym2612"
    },
    {
      "channel": 3,
      "note": 82,
      "start": 13.7759,
      "duration": 0.2156,
      "velocity": 90,
      "chip": "ym2612"
    },
    {
      "channel": 4,
      "note": 58,
      "start": 13.7769,
      "duration": 0.1008,
      "velocity": 85,
      "chip": "ym2612"
    },
    {
      "channel": 4,
      "note": 50,
      "start": 13.8782,
      "duration": 0.3335,
      "velocity": 85,
      "chip": "ym2612"
    },
    {
      "channel": 5,
      "note": 32,
      "start": 13.879,
      "duration": 0.1456,
      "velocity": 114,
      "chip": "ym2612"
    },
    {
      "channel": 3,
      "note": 82,
      "start": 13.9921,
      "duration": 0.2189,
      "velocity": 90,
      "chip": "ym2612"
    },
    {
      "channel": 1,
      "note": 58,
      "start": 14.2102,
      "duration": 0.1998,
      "velocity": 104,
      "chip": "ym2612"
    },
    {
      "channel": 2,
      "note": 66,
      "start": 14.2109,
      "duration": 0.1994,
      "velocity": 104,
      "chip": "ym2612"
    },
    {
      "channel": 4,
      "note": 58,
      "start": 14.2122,
      "duration": 0.0962,
      "velocity": 85,
      "chip": "ym2612"
    },
    {
      "channel": 5,
      "note": 75,
      "start": 14.213,
      "duration": 0.1939,
      "velocity": 120,
      "chip": "ym2612"
    },
    {
      "channel": 3,
      "note": 74,
      "start": 14.3083,
      "duration": 0.1023,
      "velocity": 90,
      "chip": "ym2612"
    },
    {
      "channel": 4,
      "note": 50,
      "start": 14.309,
      "duration": 0.1027,
      "velocity": 85,
      "chip": "ym2612"
    },
    {
      "channel": 3,
      "note": 74,
      "start": 14.4112,
      "duration": 0.1127,
      "velocity": 90,
      "chip": "ym2612"
    },
    {
      "channel": 4,
      "note": 49,
      "start": 14.4123,
      "duration": 0.0452,
      "velocity": 85,
      "chip": "ym2612"
    },
    {
      "channel": 5,
      "note": 32,
      "start": 14.4132,
      "duration": 0.1448,
      "velocity": 114,
      "chip": "ym2612"
    },
    {
      "channel": 3,
      "note": 74,
      "start": 14.5245,
      "duration": 0.1008,
      "velocity": 90,
      "chip": "ym2612"
    },
    {
      "channel": 4,
      "note": 49,
      "start": 14.5256,
      "duration": 0.1,
      "velocity": 85,
      "chip": "ym2612"
    },
    {
      "channel": 1,
      "note": 58,
      "start": 14.6244,
      "duration": 0.2189,
      "velocity": 104,
      "chip": "ym2612"
    },
    {
      "channel": 2,
      "note": 66,
      "start": 14.6251,
      "duration": 0.2185,
      "velocity": 104,
      "chip": "ym2612"
    },
    {
      "channel": 4,
      "note": 58,
      "start": 14.6261,
      "duration": 0.1019,
      "velocity": 85,
      "chip": "ym2612"
    },
    {
      "channel": 3,
      "note": 74,
      "start": 14.7275,
      "duration": 0.1164,
      "velocity": 90,
      "chip": "ym2612"
    },
    {
      "channel": 4,
      "note": 50,
      "start": 14.7286,
      "duration": 0.1619,
      "velocity": 85,
      "chip": "ym2612"
    },
    {
      "channel": 5,
      "note": 32,
      "start": 14.7294,
      "duration": 0.1104,
      "velocity": 114,
      "chip": "ym2612"
    },
    {
      "channel": 0,
      "note": 82,
      "start": 14.8432,
      "duration": 0.4168,
      "velocity": 107,
      "chip": "ym2612"
    },
    {
      "channel": 5,
      "note": 75,
      "start": 14.8451,
      "duration": 0.2114,
      "velocity": 120,
      "chip": "ym2612"
    },
    {
      "channel": 4,
      "note": 50,
      "start": 14.9416,
      "duration": 0.1195,
      "velocity": 85,
      "chip": "ym2612"
    },
    {
      "channel": 1,
      "note": 58,
      "start": 15.0602,
      "duration": 0.1468,
      "velocity": 104,
      "chip": "ym2612"
    },
    {
      "channel": 2,
      "note": 66,
      "start": 15.0609,
      "duration": 0.2005,
      "velocity": 104,
      "chip": "ym2612"
    },
    {
      "channel": 4,
      "note": 58,
      "start": 15.0617,
      "duration": 0.0987,
      "velocity": 85,
      "chip": "ym2612"
    },
    {
      "channel": 5,
      "note": 75,
      "start": 15.0624,
      "duration": 0.0941,
      "velocity": 120,
      "chip": "ym2612"
    },
    {
      "channel": 4,
      "note": 50,
      "start": 15.1609,
      "duration": 0.1022,
      "velocity": 85,
      "chip": "ym2612"
    },
    {
      "channel": 5,
      "note": 75,
      "start": 15.1616,
      "duration": 0.0957,
      "velocity": 120,
      "chip": "ym2612"
    },
    {
      "channel": 0,
      "note": 87,
      "start": 15.2607,
      "duration": 0.8489,
      "velocity": 107,
      "chip": "ym2612"
    },
    {
      "channel": 3,
      "note": 82,
      "start": 15.2624,
      "duration": 0.2129,
      "velocity": 90,
      "chip": "ym2612"
    },
    {
      "channel": 4,
      "note": 51,
      "start": 15.2637,
      "duration": 0.2127,
      "velocity": 85,
      "chip": "ym2612"
    },
    {
      "channel": 5,
      "note": 32,
      "start": 15.2645,
      "duration": 0.1433,
      "velocity": 114,
      "chip": "ym2612"
    },
    {
      "channel": 1,
      "note": 58,
      "start": 15.4745,
      "duration": 0.2164,
      "velocity": 104,
      "chip": "ym2612"
    },
    {
      "channel": 2,
      "note": 66,
      "start": 15.4752,
      "duration": 0.216,
      "velocity": 104,
      "chip": "ym2612"
    },
    {
      "channel": 3,
      "note": 82,
      "start": 15.4759,
      "duration": 0.2156,
      "velocity": 90,
      "chip": "ym2612"
    },
    {
      "channel": 4,
      "note": 58,
      "start": 15.477,
      "duration": 0.1006,
      "velocity": 85,
      "chip": "ym2612"
    },
    {
      "channel": 4,
      "note": 50,
      "start": 15.5782,
      "duration": 0.3335,
      "velocity": 85,
      "chip": "ym2612"
    },
    {
      "channel": 5,
      "note": 32,
      "start": 15.579,
      "duration": 0.1455,
      "velocity": 114,
      "chip": "ym2612"
    },
    {
      "channel": 3,
      "note": 82,
      "start": 15.6921,
      "duration": 0.2189,
      "velocity": 90,
      "chip": "ym2612"
    },
    {
      "channel": 1,
      "note": 58,
      "start": 15.9102,
      "duration": 0.2002,
      "velocity": 104,
      "chip": "ym2612"
    },
    {
      "channel": 2,
      "note": 66,
      "start": 15.9109,
      "duration": 0.1998,
      "velocity": 104,
      "chip": "ym2612"
    },
    {
      "channel": 4,
      "note": 58,
      "start": 15.9122,
      "duration": 0.0962,
      "velocity": 85,
      "chip": "ym2612"
    },
    {
      "channel": 5,
      "note": 75,
      "start": 15.913,
      "duration": 0.1939,
      "velocity": 120,
      "chip": "ym2612"
    },
    {
      "channel": 3,
      "note": 74,
      "start": 16.0083,
      "duration": 0.1027,
      "velocity": 90,
      "chip": "ym2612"
    },
    {
      "channel": 4,
      "note": 50,
      "start": 16.009,
      "duration": 0.1031,
      "velocity": 85,
      "chip": "ym2612"
    },
    {
      "channel": 0,
      "note": 85,
      "start": 16.1102,
      "duration": 0.1131,
      "velocity": 107,
      "chip": "ym2612"
    },
    {
      "channel": 3,
      "note": 74,
      "start": 16.1115,
      "duration": 0.1127,
      "velocity": 90,
      "chip": "ym2612"
    },
    {
      "channel": 4,
      "note": 49,
      "start": 16.1127,
      "duration": 0.0447,
      "velocity": 85,
      "chip": "ym2612"
    },
    {
      "channel": 5,
      "note": 32,
      "start": 16.1135,
      "duration": 0.1444,
      "velocity": 114,
      "chip": "ym2612"
    },
    {
      "channel": 0,
      "note": 87,
      "start": 16.2239,
      "duration": 0.2019,
      "velocity": 107,
      "chip": "ym2612"
    },
    {
      "channel": 3,
      "note": 74,
      "start": 16.2249,
      "duration": 0.1003,
      "velocity": 90,
      "chip": "ym2612"
    },
    {
      "channel": 4,
      "note": 49,
      "start": 16.2259,
      "duration": 0.0996,
      "velocity": 85,
      "chip": "ym2612"
    },
    {
      "channel": 1,
      "note": 58,
      "start": 16.3243,
      "duration": 0.2165,
      "velocity": 104,
      "chip": "ym2612"
    },
    {
      "channel": 2,
      "note": 66,
      "start": 16.325,
      "duration": 0.2161,
      "velocity": 104,
      "chip": "ym2612"
    },
    {
      "channel": 4,
      "note": 58,
      "start": 16.3261,
      "duration": 0.1024,
      "velocity": 85,
      "chip": "ym2612"
    },
    {
      "channel": 0,
      "note": 89,
      "start": 16.4265,
      "duration": 0.2134,
      "velocity": 107,
      "chip": "ym2612"
    },
    {
      "channel": 3,
      "note": 74,
      "start": 16.4279,
      "duration": 0.1136,
      "velocity": 90,
      "chip": "ym2612"
    },
    {
      "channel": 4,
      "note": 50,
      "start": 16.429,
      "duration": 0.1615,
      "velocity": 85,
      "chip": "ym2612"
    },
    {
      "channel": 5,
      "note": 32,
      "start": 16.4298,
      "duration": 0.1444,
      "velocity": 114,
      "chip": "ym2612"
    },
    {
      "channel": 0,
      "note": 87,
      "start": 16.6406,
      "duration": 0.2186,
      "velocity": 107,
      "chip": "ym2612"
    },
    {
      "channel": 4,
      "note": 50,
      "start": 16.642,
      "duration": 0.119,
      "velocity": 85,
      "chip": "ym2612"
    },
    {
      "channel": 1,
      "note": 58,
      "start": 16.7601,
      "duration": 0.2002,
      "velocity": 104,
      "chip": "ym2612"
    },
    {
      "channel": 2,
      "note": 66,
      "start": 16.7608,
      "duration": 0.1999,
      "velocity": 104,
      "chip": "ym2612"
    },
    {
      "channel": 4,
      "note": 58,
      "start": 16.7615,
      "duration": 0.0991,
      "velocity": 85,
      "chip": "ym2612"
    },
    {
      "channel": 5,
      "note": 75,
      "start": 16.7623,
      "duration": 0.0942,
      "velocity": 120,
      "chip": "ym2612"
    },
    {
      "channel": 0,
      "note": 85,
      "start": 16.8598,
      "duration": 0.0998,
      "velocity": 107,
      "chip": "ym2612"
    },
    {
      "channel": 4,
      "note": 50,
      "start": 16.8612,
      "duration": 0.1012,
      "velocity": 85,
      "chip": "ym2612"
    },
    {
      "channel": 5,
      "note": 32,
      "start": 16.8621,
      "duration": 0.0949,
      "velocity": 114,
      "chip": "ym2612"
    },
    {
      "channel": 0,
      "note": 87,
      "start": 16.9602,
      "duration": 1.6998,
      "velocity": 107,
      "chip": "ym2612"
    },
    {
      "channel": 3,
      "note": 82,
      "start": 16.9617,
      "duration": 0.2136,
      "velocity": 90,
      "chip": "ym2612"
    },
    {
      "channel": 4,
      "note": 51,
      "start": 16.9629,
      "duration": 0.2135,
      "velocity": 85,
      "chip": "ym2612"
    },
    {
      "channel": 5,
      "note": 32,
      "start": 16.9638,
      "duration": 0.1441,
      "velocity": 114,
      "chip": "ym2612"
    },
    {
      "channel": 1,
      "note": 58,
      "start": 17.1745,
      "duration": 0.2164,
      "velocity": 104,
      "chip": "ym2612"
    },
    {
      "channel": 2,
      "note": 66,
      "start": 17.1752,
      "duration": 0.216,
      "velocity": 104,
      "chip": "ym2612"
    },
    {
      "channel": 3,
      "note": 82,
      "start": 17.1759,
      "duration": 0.2156,
      "velocity": 90,
      "chip": "ym2612"
    },
    {
      "channel": 4,
      "note": 58,
      "start": 17.177,
      "duration": 0.1006,
      "velocity": 85,
      "chip": "ym2612"
    },
    {
      "channel": 4,
      "note": 50,
      "start": 17.2782,
      "duration": 0.3168,
      "velocity": 85,
      "chip": "ym2612"
    },
    {
      "channel": 5,
      "note": 32,
      "start": 17.279,
      "duration": 0.1455,
      "velocity": 114,
      "chip": "ym2612"
    },
    {
      "channel": 3,
      "note": 82,
      "start": 17.3921,
      "duration": 0.2022,
      "velocity": 90,
      "chip": "ym2612"
    },
    {
      "channel": 1,
      "note": 58,
      "start": 17.5935,
      "duration": 0.2165,
      "velocity": 104,
      "chip": "ym2612"
    },
    {
      "channel": 2,
      "note": 66,
      "start": 17.5942,
      "duration": 0.2161,
      "velocity": 104,
      "chip": "ym2612"
    },
    {
      "channel": 4,
      "note": 58,
      "start": 17.5956,
      "duration": 0.1129,
      "velocity": 85,
      "chip": "ym2612"
    },
    {
      "channel": 5,
      "note": 75,
      "start": 17.5963,
      "duration": 0.2106,
      "velocity": 120,
      "chip": "ym2612"
    },
    {
      "channel": 3,
      "note": 74,
      "start": 17.7083,
      "duration": 0.1023,
      "velocity": 90,
      "chip": "ym2612"
    },
    {
      "channel": 4,
      "note": 50,
      "start": 17.709,
      "duration": 0.1027,
      "velocity": 85,
      "chip": "ym2612"
    },
    {
      "channel": 3,
      "note": 74,
      "start": 17.8112,
      "duration": 0.1127,
      "velocity": 90,
      "chip": "ym2612"
    },
    {
      "channel": 4,
      "note": 49,
      "start": 17.8123,
      "duration": 0.0452,
      "velocity": 85,
      "chip": "ym2612"
    },
    {
      "channel": 5,
      "note": 32,
      "start": 17.8132,
      "duration": 0.1448,
      "velocity": 114,
      "chip": "ym2612"
    },
    {
      "channel": 3,
      "note": 74,
      "start": 17.9245,
      "duration": 0.1008,
      "velocity": 90,
      "chip": "ym2612"
    },
    {
      "channel": 4,
      "note": 49,
      "start": 17.9256,
      "duration": 0.1,
      "velocity": 85,
      "chip": "ym2612"
    },
    {
      "channel": 1,
      "note": 58,
      "start": 18.0244,
      "duration": 0.2185,
      "velocity": 104,
      "chip": "ym2612"
    },
    {
      "channel": 2,
      "note": 66,
      "start": 18.0251,
      "duration": 0.2181,
      "velocity": 104,
      "chip": "ym2612"
    },
    {
      "channel": 4,
      "note": 58,
      "start": 18.0261,
      "duration": 0.1019,
      "velocity": 85,
      "chip": "ym2612"
    },
    {
      "channel": 3,
      "note": 74,
      "start": 18.1275,
      "duration": 0.116,
      "velocity": 90,
      "chip": "ym2612"
    },
    {
      "channel": 4,
      "note": 50,
      "start": 18.1286,
      "duration": 0.162,
      "velocity": 85,
      "chip": "ym2612"
    },
    {
      "channel": 5,
      "note": 32,
      "start": 18.1294,
      "duration": 0.1104,
      "velocity": 114,
      "chip": "ym2612"
    },
    {
      "channel": 5,
      "note": 75,
      "start": 18.2448,
      "duration": 0.195,
      "velocity": 120,
      "chip": "ym2612"
    },
    {
      "channel": 4,
      "note": 50,
      "start": 18.3417,
      "duration": 0.1027,
      "velocity": 85,
      "chip": "ym2612"
    },
    {
      "channel": 1,
      "note": 58,
      "start": 18.4435,
      "duration": 0.1635,
      "velocity": 104,
      "chip": "ym2612"
    },
    {
      "channel": 2,
      "note": 66,
      "start": 18.4442,
      "duration": 0.1656,
      "velocity": 84,
      "chip": "ym2612"
    },
    {
      "channel": 4,
      "note": 58,
      "start": 18.445,
      "duration": 0.1153,
      "velocity": 85,
      "chip": "ym2612"
    },
    {
      "channel": 5,
      "note": 75,
      "start": 18.4457,
      "duration": 0.1108,
      "velocity": 120,
      "chip": "ym2612"
    },
    {
      "channel": 4,
      "note": 50,
      "start": 18.5609,
      "duration": 0.1057,
      "velocity": 85,
      "chip": "ym2612"
    },
    {
      "channel": 5,
      "note": 75,
      "start": 18.5616,
      "duration": 0.0957,
      "velocity": 120,
      "chip": "ym2612"
    },
    {
      "channel": 0,
      "note": 83,
      "start": 18.6607,
      "duration": 0.4298,
      "velocity": 107,
      "chip": "ym2612"
    },
    {
      "channel": 1,
      "note": 68,
      "start": 18.6641,
      "duration": 0.2098,
      "velocity": 104,
      "chip": "ym2612"
    },
    {
      "channel": 2,
      "note": 63,
      "start": 18.6652,
      "duration": 0.8459,
      "velocity": 84,
      "chip": "ym2612"
    },
    {
      "channel": 3,
      "note": 82,
      "start": 18.666,
      "duration": 0.2089,
      "velocity": 90,
      "chip": "ym2612"
    },
    {
      "channel": 4,
      "note": 56,
      "start": 18.6671,
      "duration": 0.1578,
      "velocity": 85,
      "chip": "ym2612"
    },
    {
      "channel": 5,
      "note": 32,
      "start": 18.668,
      "duration": 0.1406,
      "velocity": 114,
      "chip": "ym2612"
    },
    {
      "channel": 3,
      "note": 82,
      "start": 18.8755,
      "duration": 0.2168,
      "velocity": 90,
      "chip": "ym2612"
    },
    {
      "channel": 4,
      "note": 56,
      "start": 18.8762,
      "duration": 0.2168,
      "velocity": 85,
      "chip": "ym2612"
    },
    {
      "channel": 5,
      "note": 32,
      "start": 18.9785,
      "duration": 0.1464,
      "velocity": 114,
      "chip": "ym2612"
    },
    {
      "channel": 1,
      "note": 68,
      "start": 19.0915,
      "duration": 0.0985,
      "velocity": 104,
      "chip": "ym2612"
    },
    {
      "channel": 3,
      "note": 82,
      "start": 19.0929,
      "duration": 0.2014,
      "velocity": 90,
      "chip": "ym2612"
    },
    {
      "channel": 1,
      "note": 66,
      "start": 19.1906,
      "duration": 0.1027,
      "velocity": 104,
      "chip": "ym2612"
    },
    {
      "channel": 4,
      "note": 56,
      "start": 19.1924,
      "duration": 0.3205,
      "velocity": 85,
      "chip": "ym2612"
    },
    {
      "channel": 0,
      "note": 82,
      "start": 19.2931,
      "duration": 0.2164,
      "velocity": 107,
      "chip": "ym2612"
    },
    {
      "channel": 5,
      "note": 75,
      "start": 19.2956,
      "duration": 0.2113,
      "velocity": 120,
      "chip": "ym2612"
    },
    {
      "channel": 3,
      "note": 74,
      "start": 19.4083,
      "duration": 0.1039,
      "velocity": 90,
      "chip": "ym2612"
    },
    {
      "channel": 0,
      "note": 80,
      "start": 19.5102,
      "duration": 0.2132,
      "velocity": 107,
      "chip": "ym2612"
    },
    {
      "channel": 1,
      "note": 65,
      "start": 19.511,
      "duration": 0.2132,
      "velocity": 104,
      "chip": "ym2612"
    },
    {
      "channel": 2,
      "note": 59,
      "start": 19.5121,
      "duration": 0.8491,
      "velocity": 84,
      "chip": "ym2612"
    },
    {
      "channel": 3,
      "note": 74,
      "start": 19.5128,
      "duration": 0.1118,
      "velocity": 90,
      "chip": "ym2612"
    },
    {
      "channel": 4,
      "note": 61,
      "start": 19.5135,
      "duration": 0.4296,
      "velocity": 85,
      "chip": "ym2612"
    },
    {
      "channel": 5,
      "note": 32,
      "start": 19.5144,
      "duration": 0.1443,
      "velocity": 114,
      "chip": "ym2612"
    },
    {
      "channel": 3,
      "note": 74,
      "start": 19.6252,
      "duration": 0.1001,
      "velocity": 90,
      "chip": "ym2612"
    },
    {
      "channel": 0,
      "note": 77,
      "start": 19.7241,
      "duration": 0.2163,
      "velocity": 107,
      "chip": "ym2612"
    },
    {
      "channel": 3,
      "note": 74,
      "start": 19.8275,
      "duration": 0.1153,
      "velocity": 90,
      "chip": "ym2612"
    },
    {
      "channel": 5,
      "note": 32,
      "start": 19.8287,
      "duration": 0.1465,
      "velocity": 114,
      "chip": "ym2612"
    },
    {
      "channel": 0,
      "note": 78,
      "start": 19.9411,
      "duration": 0.2014,
      "velocity": 107,
      "chip": "ym2612"
    },
    {
      "channel": 1,
      "note": 61,
      "start": 19.9419,
      "duration": 0.2014,
      "velocity": 104,
      "chip": "ym2612"
    },
    {
      "channel": 4,
      "note": 56,
      "start": 19.9437,
      "duration": 0.4193,
      "velocity": 85,
      "chip": "ym2612"
    },
    {
      "channel": 0,
      "note": 80,
      "start": 20.1432,
      "duration": 0.2163,
      "velocity": 107,
      "chip": "ym2612"
    },
    {
      "channel": 5,
      "note": 75,
      "start": 20.1453,
      "duration": 0.1112,
      "velocity": 120,
      "chip": "ym2612"
    },
    {
      "channel": 5,
      "note": 32,
      "start": 20.2614,
      "duration": 0.0956,
      "velocity": 114,
      "chip": "ym2612"
    },
    {
      "channel": 0,
      "note": 82,
      "start": 20.3602,
      "duration": 0.4302,
      "velocity": 107,
      "chip": "ym2612"
    },
    {
      "channel": 1,
      "note": 66,
      "start": 20.361,
      "duration": 0.2129,
      "velocity": 104,
      "chip": "ym2612"
    },
    {
      "channel": 2,
      "note": 61,
      "start": 20.3621,
      "duration": 0.849,
      "velocity": 84,
      "chip": "ym2612"
    },
    {
      "channel": 3,
      "note": 82,
      "start": 20.3629,
      "duration": 0.212,
      "velocity": 90,
      "chip": "ym2612"
    },
    {
      "channel": 4,
      "note": 54,
      "start": 20.3636,
      "duration": 0.1613,
      "velocity": 85,
      "chip": "ym2612"
    },
    {
      "channel": 5,
      "note": 32,
      "start": 20.3644,
      "duration": 0.1442,
      "velocity": 114,
      "chip": "ym2612"
    },
    {
      "channel": 3,
      "note": 82,
      "start": 20.5755,
      "duration": 0.2168,
      "velocity": 90,
      "chip": "ym2612"
    },
    {
      "channel": 4,
      "note": 54,
      "start": 20.5762,
      "duration": 0.2168,
      "velocity": 85,
      "chip": "ym2612"
    },
    {
      "channel": 5,
      "note": 32,
      "start": 20.6785,
      "duration": 0.1464,
      "velocity": 114,
      "chip": "ym2612"
    },
    {
      "channel": 1,
      "note": 66,
      "start": 20.7915,
      "duration": 0.0985,
      "velocity": 104,
      "chip": "ym2612"
    },
    {
      "channel": 3,
      "note": 82,
      "start": 20.7929,
      "duration": 0.2014,
      "velocity": 90,
      "chip": "ym2612"
    },
    {
      "channel": 1,
      "note": 65,
      "start": 20.8906,
      "duration": 0.1027,
      "velocity": 104,
      "chip": "ym2612"
    },
    {
      "channel": 4,
      "note": 54,
      "start": 20.8924,
      "duration": 0.3205,
      "velocity": 85,
      "chip": "ym2612"
    },
    {
      "channel": 0,
      "note": 80,
      "start": 20.9932,
      "duration": 0.2163,
      "velocity": 107,
      "chip": "ym2612"
    },
    {
      "channel": 5,
      "note": 75,
      "start": 20.9956,
      "duration": 0.2113,
      "velocity": 120,
      "chip": "ym2612"
    },
    {
      "channel": 3,
      "note": 74,
      "start": 21.1083,
      "duration": 0.1039,
      "velocity": 90,
      "chip": "ym2612"
    },
    {
      "channel": 0,
      "note": 78,
      "start": 21.2102,
      "duration": 0.2132,
      "velocity": 107,
      "chip": "ym2612"
    },
    {
      "channel": 1,
      "note": 63,
      "start": 21.211,
      "duration": 0.2132,
      "velocity": 104,
      "chip": "ym2612"
    },
    {
      "channel": 2,
      "note": 58,
      "start": 21.2121,
      "duration": 0.8495,
      "velocity": 84,
      "chip": "ym2612"
    },
    {
      "channel": 3,
      "note": 74,
      "start": 21.2128,
      "duration": 0.1118,
      "velocity": 90,
      "chip": "ym2612"
    },
    {
      "channel": 4,
      "note": 59,
      "start": 21.2135,
      "duration": 0.4316,
      "velocity": 85,
      "chip": "ym2612"
    },
    {
      "channel": 5,
      "note": 32,
      "start": 21.2144,
      "duration": 0.1443,
      "velocity": 114,
      "chip": "ym2612"
    },
    {
      "channel": 3,
      "note": 74,
      "start": 21.3252,
      "duration": 0.1001,
      "velocity": 90,
      "chip": "ym2612"
    },
    {
      "channel": 0,
      "note": 75,
      "start": 21.424,
      "duration": 0.2185,
      "velocity": 107,
      "chip": "ym2612"
    },
    {
      "channel": 3,
      "note": 74,
      "start": 21.5276,
      "duration": 0.1173,
      "velocity": 90,
      "chip": "ym2612"
    },
    {
      "channel": 5,
      "note": 32,
      "start": 21.5287,
      "duration": 0.1111,
      "velocity": 114,
      "chip": "ym2612"
    },
    {
      "channel": 0,
      "note": 77,
      "start": 21.6432,
      "duration": 0.1993,
      "velocity": 107,
      "chip": "ym2612"
    },
    {
      "channel": 1,
      "note": 59,
      "start": 21.6439,
      "duration": 0.1994,
      "velocity": 104,
      "chip": "ym2612"
    },
    {
      "channel": 4,
      "note": 47,
      "start": 21.6457,
      "duration": 0.4178,
      "velocity": 85,
      "chip": "ym2612"
    },
    {
      "channel": 5,
      "note": 75,
      "start": 21.6464,
      "duration": 0.1934,
      "velocity": 120,
      "chip": "ym2612"
    },
    {
      "channel": 0,
      "note": 78,
      "start": 21.8431,
      "duration": 0.2168,
      "velocity": 107,
      "chip": "ym2612"
    },
    {
      "channel": 5,
      "note": 75,
      "start": 21.8453,
      "duration": 0.1112,
      "velocity": 120,
      "chip": "ym2612"
    },
    {
      "channel": 5,
      "note": 75,
      "start": 21.9613,
      "duration": 0.0961,
      "velocity": 120,
      "chip": "ym2612"
    },
    {
      "channel": 0,
      "note": 80,
      "start": 22.0607,
      "duration": 0.4298,
      "velocity": 107,
      "chip": "ym2612"
    },
    {
      "channel": 1,
      "note": 65,
      "start": 22.0614,
      "duration": 0.2125,
      "velocity": 104,
      "chip": "ym2612"
    },
    {
      "channel": 2,
      "note": 59,
      "start": 22.0625,
      "duration": 0.8486,
      "velocity": 84,
      "chip": "ym2612"
    },
    {
      "channel": 3,
      "note": 82,
      "start": 22.0633,
      "duration": 0.2116,
      "velocity": 90,
      "chip": "ym2612"
    },
    {
      "channel": 4,
      "note": 53,
      "start": 22.064,
      "duration": 0.1609,
      "velocity": 85,
      "chip": "ym2612"
    },
    {
      "channel": 5,
      "note": 32,
      "start": 22.0649,
      "duration": 0.1438,
      "velocity": 114,
      "chip": "ym2612"
    },
    {
      "channel": 3,
      "note": 82,
      "start": 22.2755,
      "duration": 0.2168,
      "velocity": 90,
      "chip": "ym2612"
    },
    {
      "channel": 4,
      "note": 53,
      "start": 22.2762,
      "duration": 0.2168,
      "velocity": 85,
      "chip": "ym2612"
    },
    {
      "channel": 5,
      "note": 32,
      "start": 22.3785,
      "duration": 0.1464,
      "velocity": 114,
      "chip": "ym2612"
    },
    {
      "channel": 1,
      "note": 65,
      "start": 22.4915,
      "duration": 0.0985,
      "velocity": 104,
      "chip": "ym2612"
    },
    {
      "channel": 3,
      "note": 82,
      "start": 22.4929,
      "duration": 0.2014,
      "velocity": 90,
      "chip": "ym2612"
    },
    {
      "channel": 1,
      "note": 63,
      "start": 22.5906,
      "duration": 0.1027,
      "velocity": 104,
      "chip": "ym2612"
    },
    {
      "channel": 4,
      "note": 53,
      "start": 22.5924,
      "duration": 0.3205,
      "velocity": 85,
      "chip": "ym2612"
    },
    {
      "channel": 0,
      "note": 78,
      "start": 22.6931,
      "duration": 0.2164,
      "velocity": 107,
      "chip": "ym2612"
    },
    {
      "channel": 5,
      "note": 75,
      "start": 22.6956,
      "duration": 0.2113,
      "velocity": 120,
      "chip": "ym2612"
    },
    {
      "channel": 3,
      "note": 74,
      "start": 22.8083,
      "duration": 0.1039,
      "velocity": 90,
      "chip": "ym2612"
    },
    {
      "channel": 0,
      "note": 77,
      "start": 22.9102,
      "duration": 0.2132,
      "velocity": 107,
      "chip": "ym2612"
    },
    {
      "channel": 1,
      "note": 62,
      "start": 22.911,
      "duration": 0.2132,
      "velocity": 104,
      "chip": "ym2612"
    },
    {
      "channel": 2,
      "note": 62,
      "start": 22.9121,
      "duration": 0.8481,
      "velocity": 84,
      "chip": "ym2612"
    },
    {
      "channel": 3,
      "note": 74,
      "start": 22.9128,
      "duration": 0.1118,
      "velocity": 90,
      "chip": "ym2612"
    },
    {
      "channel": 4,
      "note": 58,
      "start": 22.9135,
      "duration": 0.4296,
      "velocity": 85,
      "chip": "ym2612"
    },
    {
      "channel": 5,
      "note": 32,
      "start": 22.9144,
      "duration": 0.1443,
      "velocity": 114,
      "chip": "ym2612"
    },
    {
      "channel": 3,
      "note": 74,
      "start": 23.0252,
      "duration": 0.1001,
      "velocity": 90,
      "chip": "ym2612"
    },
    {
      "channel": 0,
      "note": 74,
      "start": 23.124,
      "duration": 0.2164,
      "velocity": 107,
      "chip": "ym2612"
    },
    {
      "channel": 3,
      "note": 74,
      "start": 23.2276,
      "duration": 0.1152,
      "velocity": 90,
      "chip": "ym2612"
    },
    {
      "channel": 5,
      "note": 32,
      "start": 23.2287,
      "duration": 0.1464,
      "velocity": 114,
      "chip": "ym2612"
    },
    {
      "channel": 0,
      "note": 75,
      "start": 23.3411,
      "duration": 0.2014,
      "velocity": 107,
      "chip": "ym2612"
    },
    {
      "channel": 1,
      "note": 58,
      "start": 23.3419,
      "duration": 0.4179,
      "velocity": 104,
      "chip": "ym2612"
    },
    {
      "channel": 4,
      "note": 46,
      "start": 23.3437,
      "duration": 0.4176,
      "velocity": 85,
      "chip": "ym2612"
    },
    {
      "channel": 0,
      "note": 77,
      "start": 23.5431,
      "duration": 0.2164,
      "velocity": 107,
      "chip": "ym2612"
    },
    {
      "channel": 5,
      "note": 75,
      "start": 23.5455,
      "duration": 0.111,
      "velocity": 120,
      "chip": "ym2612"
    },
    {
      "channel": 5,
      "note": 32,
      "start": 23.6617,
      "duration": 0.0952,
      "velocity": 114,
      "chip": "ym2612"
    },
    {
      "channel": 3,
      "note": 82,
      "start": 23.7612,
      "duration": 0.2132,
      "velocity": 90,
      "chip": "ym2612"
    },
    {
      "channel": 4,
      "note": 51,
      "start": 23.7619,
      "duration": 0.7967,
      "velocity": 85,
      "chip": "ym2612"
    },
    {
      "channel": 5,
      "note": 32,
      "start": 23.7627,
      "duration": 0.1459,
      "velocity": 114,
      "chip": "ym2612"
    },
    {
      "channel": 0,
      "note": 78,
      "start": 23.8739,
      "duration": 0.0995,
      "velocity": 107,
      "chip": "ym2612"
    },
    {
      "channel": 1,
      "note": 58,
      "start": 23.8747,
      "duration": 0.099,
      "velocity": 104,
      "chip": "ym2612"
    },
    {
      "channel": 2,
      "note": 63,
      "start": 23.8758,
      "duration": 0.0982,
      "velocity": 84,
      "chip": "ym2612"
    },
    {
      "channel": 3,
      "note": 82,
      "start": 23.9749,
      "duration": 0.2169,
      "velocity": 90,
      "chip": "ym2612"
    },
    {
      "channel": 0,
      "note": 80,
      "start": 24.0765,
      "duration": 0.533,
      "velocity": 107,
      "chip": "ym2612"
    },
    {
      "channel": 1,
      "note": 59,
      "start": 24.0773,
      "duration": 0.5326,
      "velocity": 104,
      "chip": "ym2612"
    },
    {
      "channel": 2,
      "note": 65,
      "start": 24.0783,
      "duration": 0.5319,
      "velocity": 84,
      "chip": "ym2612"
    },
    {
      "channel": 5,
      "note": 32,
      "start": 24.0799,
      "duration": 0.1454,
      "velocity": 114,
      "chip": "ym2612"
    },
    {
      "channel": 3,
      "note": 82,
      "start": 24.1923,
      "duration": 0.2018,
      "velocity": 90,
      "chip": "ym2612"
    },
    {
      "channel": 5,
      "note": 75,
      "start": 24.3953,
      "duration": 0.2116,
      "velocity": 120,
      "chip": "ym2612"
    },
    {
      "channel": 3,
      "note": 74,
      "start": 24.5088,
      "duration": 0.1017,
      "velocity": 90,
      "chip": "ym2612"
    },
    {
      "channel": 3,
      "note": 74,
      "start": 24.6111,
      "duration": 0.1148,
      "velocity": 90,
      "chip": "ym2612"
    },
    {
      "channel": 4,
      "note": 51,
      "start": 24.6118,
      "duration": 0.7965,
      "velocity": 85,
      "chip": "ym2612"
    },
    {
      "channel": 5,
      "note": 32,
      "start": 24.6126,
      "duration": 0.146,
      "velocity": 114,
      "chip": "ym2612"
    },
    {
      "channel": 0,
      "note": 81,
      "start": 24.7239,
      "duration": 0.0995,
      "velocity": 107,
      "chip": "ym2612"
    },
    {
      "channel": 1,
      "note": 60,
      "start": 24.7247,
      "duration": 0.099,
      "velocity": 104,
      "chip": "ym2612"
    },
    {
      "channel": 2,
      "note": 65,
      "start": 24.7258,
      "duration": 0.0982,
      "velocity": 84,
      "chip": "ym2612"
    },
    {
      "channel": 3,
      "note": 74,
      "start": 24.7265,
      "duration": 0.0978,
      "velocity": 90,
      "chip": "ym2612"
    },
    {
      "channel": 0,
      "note": 82,
      "start": 24.9264,
      "duration": 0.5335,
      "velocity": 107,
      "chip": "ym2612"
    },
    {
      "channel": 1,
      "note": 61,
      "start": 24.9273,
      "duration": 0.5335,
      "velocity": 104,
      "chip": "ym2612"
    },
    {
      "channel": 2,
      "note": 66,
      "start": 24.9283,
      "duration": 0.5333,
      "velocity": 84,
      "chip": "ym2612"
    },
    {
      "channel": 3,
      "note": 74,
      "start": 24.929,
      "duration": 0.1148,
      "velocity": 90,
      "chip": "ym2612"
    },
    {
      "channel": 5,
      "note": 32,
      "start": 24.9302,
      "duration": 0.1096,
      "velocity": 114,
      "chip": "ym2612"
    },
    {
      "channel": 5,
      "note": 75,
      "start": 25.045,
      "duration": 0.1949,
      "velocity": 120,
      "chip": "ym2612"
    },
    {
      "channel": 5,
      "note": 75,
      "start": 25.2451,
      "duration": 0.1114,
      "velocity": 120,
      "chip": "ym2612"
    },
    {
      "channel": 5,
      "note": 75,
      "start": 25.3618,
      "duration": 0.0955,
      "velocity": 120,
      "chip": "ym2612"
    },
    {
      "channel": 0,
      "note": 83,
      "start": 25.4607,
      "duration": 0.4298,
      "velocity": 107,
      "chip": "ym2612"
    },
    {
      "channel": 1,
      "note": 68,
      "start": 25.4614,
      "duration": 0.1122,
      "velocity": 104,
      "chip": "ym2612"
    },
    {
      "channel": 2,
      "note": 63,
      "start": 25.4625,
      "duration": 0.8487,
      "velocity": 84,
      "chip": "ym2612"
    },
    {
      "channel": 3,
      "note": 82,
      "start": 25.4633,
      "duration": 0.2121,
      "velocity": 90,
      "chip": "ym2612"
    },
    {
      "channel": 4,
      "note": 56,
      "start": 25.464,
      "duration": 0.1609,
      "velocity": 85,
      "chip": "ym2612"
    },
    {
      "channel": 5,
      "note": 32,
      "start": 25.4649,
      "duration": 0.1438,
      "velocity": 114,
      "chip": "ym2612"
    },
    {
      "channel": 1,
      "note": 70,
      "start": 25.5743,
      "duration": 0.0996,
      "velocity": 104,
      "chip": "ym2612"
    },
    {
      "channel": 1,
      "note": 68,
      "start": 25.6745,
      "duration": 0.1018,
      "velocity": 104,
      "chip": "ym2612"
    },
    {
      "channel": 3,
      "note": 82,
      "start": 25.676,
      "duration": 0.2163,
      "velocity": 90,
      "chip": "ym2612"
    },
    {
      "channel": 4,
      "note": 56,
      "start": 25.6767,
      "duration": 0.2163,
      "velocity": 85,
      "chip": "ym2612"
    },
    {
      "channel": 1,
      "note": 70,
      "start": 25.7769,
      "duration": 0.1138,
      "velocity": 104,
      "chip": "ym2612"
    },
    {
      "channel": 5,
      "note": 32,
      "start": 25.7792,
      "duration": 0.1457,
      "velocity": 114,
      "chip": "ym2612"
    },
    {
      "channel": 1,
      "note": 68,
      "start": 25.8915,
      "duration": 0.0985,
      "velocity": 104,
      "chip": "ym2612"
    },
    {
      "channel": 3,
      "note": 82,
      "start": 25.8929,
      "duration": 0.2019,
      "velocity": 90,
      "chip": "ym2612"
    },
    {
      "channel": 1,
      "note": 70,
      "start": 25.9907,
      "duration": 0.1026,
      "velocity": 104,
      "chip": "ym2612"
    },
    {
      "channel": 4,
      "note": 56,
      "start": 25.9924,
      "duration": 0.3205,
      "velocity": 85,
      "chip": "ym2612"
    },
    {
      "channel": 0,
      "note": 82,
      "start": 26.0932,
      "duration": 0.2163,
      "velocity": 107,
      "chip": "ym2612"
    },
    {
      "channel": 1,
      "note": 68,
      "start": 26.0939,
      "duration": 0.113,
      "velocity": 104,
      "chip": "ym2612"
    },
    {
      "channel": 5,
      "note": 75,
      "start": 26.096,
      "duration": 0.2109,
      "velocity": 120,
      "chip": "ym2612"
    },
    {
      "channel": 1,
      "note": 70,
      "start": 26.2076,
      "duration": 0.1027,
      "velocity": 104,
      "chip": "ym2612"
    },
    {
      "channel": 3,
      "note": 74,
      "start": 26.209,
      "duration": 0.1032,
      "velocity": 90,
      "chip": "ym2612"
    },
    {
      "channel": 0,
      "note": 80,
      "start": 26.3102,
      "duration": 0.2132,
      "velocity": 107,
      "chip": "ym2612"
    },
    {
      "channel": 1,
      "note": 73,
      "start": 26.311,
      "duration": 0.2132,
      "velocity": 104,
      "chip": "ym2612"
    },
    {
      "channel": 2,
      "note": 59,
      "start": 26.3121,
      "duration": 0.8491,
      "velocity": 84,
      "chip": "ym2612"
    },
    {
      "channel": 3,
      "note": 74,
      "start": 26.3128,
      "duration": 0.0951,
      "velocity": 90,
      "chip": "ym2612"
    },
    {
      "channel": 4,
      "note": 61,
      "start": 26.3135,
      "duration": 0.429,
      "velocity": 85,
      "chip": "ym2612"
    },
    {
      "channel": 5,
      "note": 32,
      "start": 26.3144,
      "duration": 0.1443,
      "velocity": 114,
      "chip": "ym2612"
    },
    {
      "channel": 3,
      "note": 74,
      "start": 26.4085,
      "duration": 0.1167,
      "velocity": 90,
      "chip": "ym2612"
    },
    {
      "channel": 0,
      "note": 77,
      "start": 26.524,
      "duration": 0.2164,
      "velocity": 107,
      "chip": "ym2612"
    },
    {
      "channel": 3,
      "note": 74,
      "start": 26.6276,
      "duration": 0.1145,
      "velocity": 90,
      "chip": "ym2612"
    },
    {
      "channel": 5,
      "note": 32,
      "start": 26.6287,
      "duration": 0.1462,
      "velocity": 114,
      "chip": "ym2612"
    },
    {
      "channel": 0,
      "note": 85,
      "start": 26.7411,
      "duration": 0.0988,
      "velocity": 107,
      "chip": "ym2612"
    },
    {
      "channel": 4,
      "note": 63,
      "start": 26.743,
      "duration": 0.201,
      "velocity": 85,
      "chip": "ym2612"
    },
    {
      "channel": 0,
      "note": 83,
      "start": 26.8406,
      "duration": 0.319,
      "velocity": 107,
      "chip": "ym2612"
    },
    {
      "channel": 1,
      "note": 61,
      "start": 26.8414,
      "duration": 0.319,
      "velocity": 104,
      "chip": "ym2612"
    },
    {
      "channel": 4,
      "note": 65,
      "start": 26.9446,
      "duration": 0.2185,
      "velocity": 85,
      "chip": "ym2612"
    },
    {
      "channel": 5,
      "note": 75,
      "start": 26.9453,
      "duration": 0.1113,
      "velocity": 120,
      "chip": "ym2612"
    },
    {
      "channel": 5,
      "note": 32,
      "start": 27.0619,
      "duration": 0.0951,
      "velocity": 114,
      "chip": "ym2612"
    },
    {
      "channel": 0,
      "note": 82,
      "start": 27.1602,
      "duration": 0.4302,
      "velocity": 107,
      "chip": "ym2612"
    },
    {
      "channel": 1,
      "note": 66,
      "start": 27.161,
      "duration": 0.0959,
      "velocity": 104,
      "chip": "ym2612"
    },
    {
      "channel": 2,
      "note": 61,
      "start": 27.1621,
      "duration": 0.8491,
      "velocity": 84,
      "chip": "ym2612"
    },
    {
      "channel": 3,
      "note": 82,
      "start": 27.1629,
      "duration": 0.2125,
      "velocity": 90,
      "chip": "ym2612"
    },
    {
      "channel": 4,
      "note": 54,
      "start": 27.1636,
      "duration": 0.1613,
      "velocity": 85,
      "chip": "ym2612"
    },
    {
      "channel": 5,
      "note": 32,
      "start": 27.1644,
      "duration": 0.1442,
      "velocity": 114,
      "chip": "ym2612"
    },
    {
      "channel": 1,
      "note": 68,
      "start": 27.2576,
      "duration": 0.1163,
      "velocity": 104,
      "chip": "ym2612"
    },
    {
      "channel": 1,
      "note": 66,
      "start": 27.3745,
      "duration": 0.1018,
      "velocity": 104,
      "chip": "ym2612"
    },
    {
      "channel": 3,
      "note": 82,
      "start": 27.376,
      "duration": 0.2163,
      "velocity": 90,
      "chip": "ym2612"
    },
    {
      "channel": 4,
      "note": 54,
      "start": 27.3767,
      "duration": 0.2163,
      "velocity": 85,
      "chip": "ym2612"
    },
    {
      "channel": 1,
      "note": 68,
      "start": 27.4769,
      "duration": 0.1138,
      "velocity": 104,
      "chip": "ym2612"
    },
    {
      "channel": 5,
      "note": 32,
      "start": 27.4792,
      "duration": 0.1457,
      "velocity": 114,
      "chip": "ym2612"
    },
    {
      "channel": 1,
      "note": 66,
      "start": 27.5915,
      "duration": 0.0985,
      "velocity": 104,
      "chip": "ym2612"
    },
    {
      "channel": 3,
      "note": 82,
      "start": 27.5929,
      "duration": 0.2019,
      "velocity": 90,
      "chip": "ym2612"
    },
    {
      "channel": 1,
      "note": 68,
      "start": 27.6906,
      "duration": 0.1027,
      "velocity": 104,
      "chip": "ym2612"
    },
    {
      "channel": 4,
      "note": 54,
      "start": 27.6924,
      "duration": 0.3205,
      "velocity": 85,
      "chip": "ym2612"
    },
    {
      "channel": 0,
      "note": 80,
      "start": 27.7931,
      "duration": 0.2164,
      "velocity": 107,
      "chip": "ym2612"
    },
    {
      "channel": 1,
      "note": 66,
      "start": 27.7939,
      "duration": 0.113,
      "velocity": 104,
      "chip": "ym2612"
    },
    {
      "channel": 5,
      "note": 75,
      "start": 27.796,
      "duration": 0.2109,
      "velocity": 120,
      "chip": "ym2612"
    },
    {
      "channel": 1,
      "note": 68,
      "start": 27.9076,
      "duration": 0.1028,
      "velocity": 104,
      "chip": "ym2612"
    },
    {
      "channel": 3,
      "note": 74,
      "start": 27.909,
      "duration": 0.1032,
      "velocity": 90,
      "chip": "ym2612"
    },
    {
      "channel": 0,
      "note": 78,
      "start": 28.0102,
      "duration": 0.2132,
      "velocity": 107,
      "chip": "ym2612"
    },
    {
      "channel": 1,
      "note": 71,
      "start": 28.011,
      "duration": 0.2132,
      "velocity": 104,
      "chip": "ym2612"
    },
    {
      "channel": 2,
      "note": 63,
      "start": 28.0121,
      "duration": 0.8495,
      "velocity": 84,
      "chip": "ym2612"
    },
    {
      "channel": 3,
      "note": 74,
      "start": 28.0128,
      "duration": 0.0951,
      "velocity": 90,
      "chip": "ym2612"
    },
    {
      "channel": 4,
      "note": 59,
      "start": 28.0135,
      "duration": 0.4309,
      "velocity": 85,
      "chip": "ym2612"
    },
    {
      "channel": 5,
      "note": 32,
      "start": 28.0144,
      "duration": 0.1443,
      "velocity": 114,
      "chip": "ym2612"
    },
    {
      "channel": 3,
      "note": 74,
      "start": 28.1085,
      "duration": 0.1167,
      "velocity": 90,
      "chip": "ym2612"
    },
    {
      "channel": 0,
      "note": 75,
      "start": 28.224,
      "duration": 0.2185,
      "velocity": 107,
      "chip": "ym2612"
    },
    {
      "channel": 3,
      "note": 74,
      "start": 28.3276,
      "duration": 0.1166,
      "velocity": 90,
      "chip": "ym2612"
    },
    {
      "channel": 5,
      "note": 32,
      "start": 28.3287,
      "duration": 0.1111,
      "velocity": 114,
      "chip": "ym2612"
    },
    {
      "channel": 0,
      "note": 83,
      "start": 28.4432,
      "duration": 0.0969,
      "velocity": 107,
      "chip": "ym2612"
    },
    {
      "channel": 4,
      "note": 61,
      "start": 28.445,
      "duration": 0.1989,
      "velocity": 85,
      "chip": "ym2612"
    },
    {
      "channel": 5,
      "note": 75,
      "start": 28.4458,
      "duration": 0.1941,
      "velocity": 120,
      "chip": "ym2612"
    },
    {
      "channel": 0,
      "note": 82,
      "start": 28.5407,
      "duration": 0.3192,
      "velocity": 107,
      "chip": "ym2612"
    },
    {
      "channel": 1,
      "note": 59,
      "start": 28.5415,
      "duration": 0.3193,
      "velocity": 104,
      "chip": "ym2612"
    },
    {
      "channel": 4,
      "note": 63,
      "start": 28.6445,
      "duration": 0.219,
      "velocity": 85,
      "chip": "ym2612"
    },
    {
      "channel": 5,
      "note": 75,
      "start": 28.6453,
      "duration": 0.1113,
      "velocity": 120,
      "chip": "ym2612"
    },
    {
      "channel": 5,
      "note": 75,
      "start": 28.7618,
      "duration": 0.0955,
      "velocity": 120,
      "chip": "ym2612"
    },
    {
      "channel": 0,
      "note": 80,
      "start": 28.8607,
      "duration": 0.4298,
      "velocity": 107,
      "chip": "ym2612"
    },
    {
      "channel": 1,
      "note": 65,
      "start": 28.8614,
      "duration": 0.0955,
      "velocity": 104,
      "chip": "ym2612"
    },
    {
      "channel": 2,
      "note": 59,
      "start": 28.8625,
      "duration": 0.8487,
      "velocity": 84,
      "chip": "ym2612"
    },
    {
      "channel": 3,
      "note": 82,
      "start": 28.8633,
      "duration": 0.2121,
      "velocity": 90,
      "chip": "ym2612"
    },
    {
      "channel": 4,
      "note": 53,
      "start": 28.864,
      "duration": 0.1609,
      "velocity": 85,
      "chip": "ym2612"
    },
    {
      "channel": 5,
      "note": 32,
      "start": 28.8649,
      "duration": 0.1438,
      "velocity": 114,
      "chip": "ym2612"
    },
    {
      "channel": 1,
      "note": 66,
      "start": 28.9576,
      "duration": 0.1163,
      "velocity": 104,
      "chip": "ym2612"
    },
    {
      "channel": 1,
      "note": 65,
      "start": 29.0745,
      "duration": 0.1018,
      "velocity": 104,
      "chip": "ym2612"
    },
    {
      "channel": 3,
      "note": 82,
      "start": 29.076,
      "duration": 0.2163,
      "velocity": 90,
      "chip": "ym2612"
    },
    {
      "channel": 4,
      "note": 53,
      "start": 29.0767,
      "duration": 0.2163,
      "velocity": 85,
      "chip": "ym2612"
    },
    {
      "channel": 1,
      "note": 66,
      "start": 29.1769,
      "duration": 0.1138,
      "velocity": 104,
      "chip": "ym2612"
    },
    {
      "channel": 5,
      "note": 32,
      "start": 29.1792,
      "duration": 0.1457,
      "velocity": 114,
      "chip": "ym2612"
    },
    {
      "channel": 1,
      "note": 65,
      "start": 29.2915,
      "duration": 0.0985,
      "velocity": 104,
      "chip": "ym2612"
    },
    {
      "channel": 3,
      "note": 82,
      "start": 29.2929,
      "duration": 0.2019,
      "velocity": 90,
      "chip": "ym2612"
    },
    {
      "channel": 1,
      "note": 66,
      "start": 29.3906,
      "duration": 0.1027,
      "velocity": 104,
      "chip": "ym2612"
    },
    {
      "channel": 4,
      "note": 53,
      "start": 29.3924,
      "duration": 0.1656,
      "velocity": 85,
      "chip": "ym2612"
    },
    {
      "channel": 0,
      "note": 78,
      "start": 29.4931,
      "duration": 0.1135,
      "velocity": 107,
      "chip": "ym2612"
    },
    {
      "channel": 1,
      "note": 65,
      "start": 29.4939,
      "duration": 0.1135,
      "velocity": 104,
      "chip": "ym2612"
    },
    {
      "channel": 5,
      "note": 75,
      "start": 29.496,
      "duration": 0.2109,
      "velocity": 120,
      "chip": "ym2612"
    },
    {
      "channel": 0,
      "note": 80,
      "start": 29.6072,
      "duration": 0.1023,
      "velocity": 107,
      "chip": "ym2612"
    },
    {
      "channel": 1,
      "note": 66,
      "start": 29.608,
      "duration": 0.1023,
      "velocity": 104,
      "chip": "ym2612"
    },
    {
      "channel": 3,
      "note": 74,
      "start": 29.6095,
      "duration": 0.1027,
      "velocity": 90,
      "chip": "ym2612"
    },
    {
      "channel": 4,
      "note": 53,
      "start": 29.6102,
      "duration": 0.0482,
      "velocity": 85,
      "chip": "ym2612"
    },
    {
      "channel": 0,
      "note": 81,
      "start": 29.7102,
      "duration": 0.5297,
      "velocity": 107,
      "chip": "ym2612"
    },
    {
      "channel": 1,
      "note": 63,
      "start": 29.711,
      "duration": 0.0959,
      "velocity": 104,
      "chip": "ym2612"
    },
    {
      "channel": 2,
      "note": 60,
      "start": 29.7121,
      "duration": 0.8481,
      "velocity": 84,
      "chip": "ym2612"
    },
    {
      "channel": 3,
      "note": 74,
      "start": 29.7128,
      "duration": 0.0956,
      "velocity": 90,
      "chip": "ym2612"
    },
    {
      "channel": 4,
      "note": 53,
      "start": 29.7135,
      "duration": 0.1614,
      "velocity": 85,
      "chip": "ym2612"
    },
    {
      "channel": 5,
      "note": 32,
      "start": 29.7144,
      "duration": 0.1443,
      "velocity": 114,
      "chip": "ym2612"
    },
    {
      "channel": 1,
      "note": 65,
      "start": 29.8076,
      "duration": 0.1163,
      "velocity": 104,
      "chip": "ym2612"
    },
    {
      "channel": 3,
      "note": 74,
      "start": 29.8089,
      "duration": 0.1165,
      "velocity": 90,
      "chip": "ym2612"
    },
    {
      "channel": 1,
      "note": 63,
      "start": 29.9245,
      "duration": 0.1018,
      "velocity": 104,
      "chip": "ym2612"
    },
    {
      "channel": 4,
      "note": 53,
      "start": 29.9263,
      "duration": 0.2165,
      "velocity": 85,
      "chip": "ym2612"
    },
    {
      "channel": 1,
      "note": 65,
      "start": 30.0269,
      "duration": 0.1139,
      "velocity": 104,
      "chip": "ym2612"
    },
    {
      "channel": 3,
      "note": 74,
      "start": 30.0284,
      "duration": 0.1141,
      "velocity": 90,
      "chip": "ym2612"
    },
    {
      "channel": 5,
      "note": 32,
      "start": 30.0295,
      "duration": 0.1454,
      "velocity": 114,
      "chip": "ym2612"
    },
    {
      "channel": 1,
      "note": 63,
      "start": 30.1415,
      "duration": 0.0987,
      "velocity": 104,
      "chip": "ym2612"
    },
    {
      "channel": 1,
      "note": 65,
      "start": 30.2409,
      "duration": 0.1024,
      "velocity": 104,
      "chip": "ym2612"
    },
    {
      "channel": 4,
      "note": 53,
      "start": 30.2424,
      "duration": 0.149,
      "velocity": 85,
      "chip": "ym2612"
    },
    {
      "channel": 0,
      "note": 80,
      "start": 30.3432,
      "duration": 0.116,
      "velocity": 107,
      "chip": "ym2612"
    },
    {
      "channel": 1,
      "note": 63,
      "start": 30.3439,
      "duration": 0.116,
      "velocity": 104,
      "chip": "ym2612"
    },
    {
      "channel": 5,
      "note": 75,
      "start": 30.3458,
      "duration": 0.1107,
      "velocity": 120,
      "chip": "ym2612"
    },
    {
      "channel": 0,
      "note": 81,
      "start": 30.4598,
      "duration": 0.0998,
      "velocity": 107,
      "chip": "ym2612"
    },
    {
      "channel": 1,
      "note": 65,
      "start": 30.4606,
      "duration": 0.0993,
      "velocity": 104,
      "chip": "ym2612"
    },
    {
      "channel": 4,
      "note": 53,
      "start": 30.4621,
      "duration": 0.046,
      "velocity": 85,
      "chip": "ym2612"
    },
    {
      "channel": 5,
      "note": 32,
      "start": 30.4629,
      "duration": 0.094,
      "velocity": 114,
      "chip": "ym2612"
    },
    {
      "channel": 3,
      "note": 82,
      "start": 30.5612,
      "duration": 0.2132,
      "velocity": 90,
      "chip": "ym2612"
    },
    {
      "channel": 4,
      "note": 46,
      "start": 30.5619,
      "duration": 1.7059,
      "velocity": 85,
      "chip": "ym2612"
    },
    {
      "channel": 5,
      "note": 32,
      "start": 30.5627,
      "duration": 0.1459,
      "velocity": 114,
      "chip": "ym2612"
    },
    {
      "channel": 0,
      "note": 82,
      "start": 30.6572,
      "duration": 0.1161,
      "velocity": 107,
      "chip": "ym2612"
    },
    {
      "channel": 1,
      "note": 61,
      "start": 30.658,
      "duration": 0.1156,
      "velocity": 104,
      "chip": "ym2612"
    },
    {
      "channel": 2,
      "note": 64,
      "start": 30.6591,
      "duration": 0.1149,
      "velocity": 84,
      "chip": "ym2612"
    },
    {
      "channel": 3,
      "note": 82,
      "start": 30.7749,
      "duration": 0.2169,
      "velocity": 90,
      "chip": "ym2612"
    },
    {
      "channel": 0,
      "note": 83,
      "start": 30.8764,
      "duration": 0.3635,
      "velocity": 107,
      "chip": "ym2612"
    },
    {
      "channel": 1,
      "note": 62,
      "start": 30.8773,
      "duration": 0.4302,
      "velocity": 104,
      "chip": "ym2612"
    },
    {
      "channel": 2,
      "note": 65,
      "start": 30.8783,
      "duration": 0.4298,
      "velocity": 84,
      "chip": "ym2612"
    },
    {
      "channel": 5,
      "note": 32,
      "start": 30.8799,
      "duration": 0.1454,
      "velocity": 114,
      "chip": "ym2612"
    },
    {
      "channel": 3,
      "note": 82,
      "start": 30.9923,
      "duration": 0.2018,
      "velocity": 90,
      "chip": "ym2612"
    },
    {
      "channel": 5,
      "note": 75,
      "start": 31.1954,
      "duration": 0.2115,
      "velocity": 120,
      "chip": "ym2612"
    },
    {
      "channel": 0,
      "note": 83,
      "start": 31.3072,
      "duration": 0.1023,
      "velocity": 107,
      "chip": "ym2612"
    },
    {
      "channel": 1,
      "note": 63,
      "start": 31.308,
      "duration": 0.1018,
      "velocity": 104,
      "chip": "ym2612"
    },
    {
      "channel": 2,
      "note": 66,
      "start": 31.3091,
      "duration": 0.101,
      "velocity": 84,
      "chip": "ym2612"
    },
    {
      "channel": 3,
      "note": 74,
      "start": 31.3098,
      "duration": 0.1006,
      "velocity": 90,
      "chip": "ym2612"
    },
    {
      "channel": 3,
      "note": 74,
      "start": 31.411,
      "duration": 0.0982,
      "velocity": 90,
      "chip": "ym2612"
    },
    {
      "channel": 5,
      "note": 32,
      "start": 31.4122,
      "duration": 0.1464,
      "velocity": 114,
      "chip": "ym2612"
    },
    {
      "channel": 0,
      "note": 84,
      "start": 31.5072,
      "duration": 0.1161,
      "velocity": 107,
      "chip": "ym2612"
    },
    {
      "channel": 1,
      "note": 64,
      "start": 31.508,
      "duration": 0.1156,
      "velocity": 104,
      "chip": "ym2612"
    },
    {
      "channel": 2,
      "note": 68,
      "start": 31.5091,
      "duration": 0.1149,
      "velocity": 84,
      "chip": "ym2612"
    },
    {
      "channel": 3,
      "note": 74,
      "start": 31.5098,
      "duration": 0.1145,
      "velocity": 90,
      "chip": "ym2612"
    },
    {
      "channel": 0,
      "note": 85,
      "start": 31.7265,
      "duration": 0.116,
      "velocity": 107,
      "chip": "ym2612"
    },
    {
      "channel": 1,
      "note": 65,
      "start": 31.7273,
      "duration": 0.116,
      "velocity": 104,
      "chip": "ym2612"
    },
    {
      "channel": 2,
      "note": 70,
      "start": 31.7283,
      "duration": 0.1158,
      "velocity": 84,
      "chip": "ym2612"
    },
    {
      "channel": 3,
      "note": 74,
      "start": 31.729,
      "duration": 0.1161,
      "velocity": 90,
      "chip": "ym2612"
    },
    {
      "channel": 5,
      "note": 32,
      "start": 31.7302,
      "duration": 0.1096,
      "velocity": 114,
      "chip": "ym2612"
    },
    {
      "channel": 0,
      "note": 86,
      "start": 31.8432,
      "duration": 0.4168,
      "velocity": 107,
      "chip": "ym2612"
    },
    {
      "channel": 1,
      "note": 70,
      "start": 31.844,
      "duration": 0.4195,
      "velocity": 104,
      "chip": "ym2612"
    },
    {
      "channel": 2,
      "note": 65,
      "start": 31.8451,
      "duration": 0.4214,
      "velocity": 104,
      "chip": "ym2612"
    },
    {
      "channel": 5,
      "note": 75,
      "start": 31.8464,
      "duration": 0.1934,
      "velocity": 120,
      "chip": "ym2612"
    },
    {
      "channel": 5,
      "note": 75,
      "start": 32.0451,
      "duration": 0.1114,
      "velocity": 120,
      "chip": "ym2612"
    },
    {
      "channel": 5,
      "note": 75,
      "start": 32.1618,
      "duration": 0.0955,
      "velocity": 120,
      "chip": "ym2612"
    },
    {
      "channel": 0,
      "note": 75,
      "start": 32.2607,
      "duration": 0.3187,
      "velocity": 107,
      "chip": "ym2612"
    },
    {
      "channel": 3,
      "note": 82,
      "start": 32.2675,
      "duration": 0.2083,
      "velocity": 90,
      "chip": "ym2612"
    },
    {
      "channel": 4,
      "note": 51,
      "start": 32.2684,
      "duration": 0.2085,
      "velocity": 85,
      "chip": "ym2612"
    },
    {
      "channel": 5,
      "note": 32,
      "start": 32.2692,
      "duration": 0.1387,
      "velocity": 114,
      "chip": "ym2612"
    },
    {
      "channel": 1,
      "note": 58,
      "start": 32.4745,
      "duration": 0.1049,
      "velocity": 104,
      "chip": "ym2612"
    },
    {
      "channel": 2,
      "note": 66,
      "start": 32.4756,
      "duration": 0.1038,
      "velocity": 104,
      "chip": "ym2612"
    },
    {
      "channel": 3,
      "note": 82,
      "start": 32.4763,
      "duration": 0.1031,
      "velocity": 90,
      "chip": "ym2612"
    },
    {
      "channel": 4,
      "note": 58,
      "start": 32.4775,
      "duration": 0.1005,
      "velocity": 85,
      "chip": "ym2612"
    },
    {
      "channel": 4,
      "note": 50,
      "start": 32.5785,
      "duration": 0.0009,
      "velocity": 85,
      "chip": "ym2612"
    },
    {
      "channel": 5,
      "note": 32,
      "start": 32.5794,
      "duration": 0.0,
      "velocity": 114,
      "chip": "ym2612"
    }
  ]
}