{
  "track_name": "07 - Inside Avalon",
  "duration_sec": 74.025,
  "sample_rate": 44100,
  "note_count": 1468,
  "unique_pitches": 19,
  "pitch_range": 36,
  "avg_note_duration": 0.1284,
  "reconstruction_stats": {
    "notes_reconstructed": 1468,
    "keyon_events": 1468,
    "keyoff_events": 1467,
    "orphan_keyons": 1,
    "unique_pitches": 19,
    "pitch_range": 36,
    "avg_duration_sec": 0.1284
  },
  "metadata": {
    "source": "X\\X-Men 2 - Clone Wars\\07 - Inside Avalon.vgz"
  },
  "notes": [
    {
      "channel": 0,
      "note": 69,
      "start": 0.0033,
      "duration": 0.1067,
      "velocity": 107,
      "chip": "ym2612"
    },
    {
      "channel": 1,
      "note": 45,
      "start": 0.0107,
      "duration": 0.0994,
      "velocity": 107,
      "chip": "ym2612"
    },
    {
      "channel": 0,
      "note": 69,
      "start": 0.1308,
      "duration": 0.1291,
      "velocity": 107,
      "chip": "ym2612"
    },
    {
      "channel": 3,
      "note": 69,
      "start": 0.2164,
      "duration": 0.1104,
      "velocity": 107,
      "chip": "ym2612"
    },
    {
      "channel": 0,
      "note": 69,
      "start": 0.2812,
      "duration": 0.1121,
      "velocity": 107,
      "chip": "ym2612"
    },
    {
      "channel": 1,
      "note": 45,
      "start": 0.2839,
      "duration": 0.1095,
      "velocity": 107,
      "chip": "ym2612"
    },
    {
      "channel": 3,
      "note": 69,
      "start": 0.3477,
      "duration": 0.129,
      "velocity": 107,
      "chip": "ym2612"
    },
    {
      "channel": 0,
      "note": 69,
      "start": 0.4307,
      "duration": 0.1124,
      "velocity": 107,
      "chip": "ym2612"
    },
    {
      "channel": 3,
      "note": 69,
      "start": 0.498,
      "duration": 0.112,
      "velocity": 107,
      "chip": "ym2612"
    },
    {
      "channel": 0,
      "note": 69,
      "start": 0.5642,
      "duration": 0.1289,
      "velocity": 103,
      "chip": "ym2612"
    },
    {
      "channel": 5,
      "note": 53,
      "start": 0.5675,
      "duration": 0.1926,
      "velocity": 125,
      "chip": "ym2612"
    },
    {
      "channel": 3,
      "note": 69,
      "start": 0.6477,
      "duration": 0.1122,
      "velocity": 107,
      "chip": "ym2612"
    },
    {
      "channel": 0,
      "note": 69,
      "start": 0.7142,
      "duration": 0.1123,
      "velocity": 107,
      "chip": "ym2612"
    },
    {
      "channel": 3,
      "note": 69,
      "start": 0.781,
      "duration": 0.1289,
      "velocity": 103,
      "chip": "ym2612"
    },
    {
      "channel": 0,
      "note": 69,
      "start": 0.864,
      "duration": 0.1125,
      "velocity": 107,
      "chip": "ym2612"
    },
    {
      "channel": 3,
      "note": 69,
      "start": 0.9312,
      "duration": 0.1122,
      "velocity": 107,
      "chip": "ym2612"
    },
    {
      "channel": 0,
      "note": 69,
      "start": 0.9976,
      "duration": 0.1289,
      "velocity": 97,
      "chip": "ym2612"
    },
    {
      "channel": 3,
      "note": 69,
      "start": 1.081,
      "duration": 0.1123,
      "velocity": 107,
      "chip": "ym2612"
    },
    {
      "channel": 0,
      "note": 69,
      "start": 1.1477,
      "duration": 0.1122,
      "velocity": 107,
      "chip": "ym2612"
    },
    {
      "channel": 1,
      "note": 45,
      "start": 1.1505,
      "duration": 0.1095,
      "velocity": 107,
      "chip": "ym2612"
    },
    {
      "channel": 3,
      "note": 69,
      "start": 1.2311,
      "duration": 0.1122,
      "velocity": 85,
      "chip": "ym2612"
    },
    {
      "channel": 0,
      "note": 69,
      "start": 1.2974,
      "duration": 0.1124,
      "velocity": 107,
      "chip": "ym2612"
    },
    {
      "channel": 1,
      "note": 45,
      "start": 1.3005,
      "duration": 0.1095,
      "velocity": 107,
      "chip": "ym2612"
    },
    {
      "channel": 3,
      "note": 69,
      "start": 1.3647,
      "duration": 0.112,
      "velocity": 107,
      "chip": "ym2612"
    },
    {
      "channel": 0,
      "note": 69,
      "start": 1.4473,
      "duration": 0.1125,
      "velocity": 103,
      "chip": "ym2612"
    },
    {
      "channel": 3,
      "note": 69,
      "start": 1.5143,
      "duration": 0.1123,
      "velocity": 107,
      "chip": "ym2612"
    },
    {
      "channel": 0,
      "note": 69,
      "start": 1.5807,
      "duration": 0.1124,
      "velocity": 107,
      "chip": "ym2612"
    },
    {
      "channel": 3,
      "note": 69,
      "start": 1.6644,
      "duration": 0.1123,
      "velocity": 103,
      "chip": "ym2612"
    },
    {
      "channel": 0,
      "note": 69,
      "start": 1.7311,
      "duration": 0.112,
      "velocity": 97,
      "chip": "ym2612"
    },
    {
      "channel": 5,
      "note": 53,
      "start": 1.7345,
      "duration": 0.109,
      "velocity": 125,
      "chip": "ym2612"
    },
    {
      "channel": 3,
      "note": 69,
      "start": 1.798,
      "duration": 0.1119,
      "velocity": 107,
      "chip": "ym2612"
    },
    {
      "channel": 0,
      "note": 69,
      "start": 1.8805,
      "duration": 0.1127,
      "velocity": 107,
      "chip": "ym2612"
    },
    {
      "channel": 3,
      "note": 69,
      "start": 1.9477,
      "duration": 0.1122,
      "velocity": 85,
      "chip": "ym2612"
    },
    {
      "channel": 0,
      "note": 69,
      "start": 2.0141,
      "duration": 0.1124,
      "velocity": 107,
      "chip": "ym2612"
    },
    {
      "channel": 3,
      "note": 69,
      "start": 2.0974,
      "duration": 0.1125,
      "velocity": 107,
      "chip": "ym2612"
    },
    {
      "channel": 0,
      "note": 69,
      "start": 2.1644,
      "duration": 0.1122,
      "velocity": 107,
      "chip": "ym2612"
    },
    {
      "channel": 3,
      "note": 69,
      "start": 2.231,
      "duration": 0.1123,
      "velocity": 107,
      "chip": "ym2612"
    },
    {
      "channel": 0,
      "note": 69,
      "start": 2.3141,
      "duration": 0.1125,
      "velocity": 107,
      "chip": "ym2612"
    },
    {
      "channel": 1,
      "note": 45,
      "start": 2.3168,
      "duration": 0.1099,
      "velocity": 107,
      "chip": "ym2612"
    },
    {
      "channel": 3,
      "note": 69,
      "start": 2.3815,
      "duration": 0.112,
      "velocity": 107,
      "chip": "ym2612"
    },
    {
      "channel": 0,
      "note": 69,
      "start": 2.4474,
      "duration": 0.1124,
      "velocity": 107,
      "chip": "ym2612"
    },
    {
      "channel": 3,
      "note": 69,
      "start": 2.5311,
      "duration": 0.1124,
      "velocity": 107,
      "chip": "ym2612"
    },
    {
      "channel": 0,
      "note": 69,
      "start": 2.5977,
      "duration": 0.1123,
      "velocity": 107,
      "chip": "ym2612"
    },
    {
      "channel": 1,
      "note": 45,
      "start": 2.6004,
      "duration": 0.1097,
      "velocity": 107,
      "chip": "ym2612"
    },
    {
      "channel": 3,
      "note": 69,
      "start": 2.6644,
      "duration": 0.129,
      "velocity": 107,
      "chip": "ym2612"
    },
    {
      "channel": 0,
      "note": 69,
      "start": 2.7474,
      "duration": 0.1125,
      "velocity": 107,
      "chip": "ym2612"
    },
    {
      "channel": 3,
      "note": 69,
      "start": 2.8147,
      "duration": 0.1119,
      "velocity": 107,
      "chip": "ym2612"
    },
    {
      "channel": 0,
      "note": 69,
      "start": 2.8807,
      "duration": 0.1291,
      "velocity": 107,
      "chip": "ym2612"
    },
    {
      "channel": 5,
      "note": 53,
      "start": 2.8841,
      "duration": 0.1927,
      "velocity": 125,
      "chip": "ym2612"
    },
    {
      "channel": 3,
      "note": 69,
      "start": 2.9644,
      "duration": 0.1123,
      "velocity": 107,
      "chip": "ym2612"
    },
    {
      "channel": 0,
      "note": 69,
      "start": 3.0311,
      "duration": 0.1122,
      "velocity": 107,
      "chip": "ym2612"
    },
    {
      "channel": 3,
      "note": 69,
      "start": 3.0976,
      "duration": 0.1289,
      "velocity": 107,
      "chip": "ym2612"
    },
    {
      "channel": 0,
      "note": 69,
      "start": 3.1807,
      "duration": 0.1125,
      "velocity": 107,
      "chip": "ym2612"
    },
    {
      "channel": 3,
      "note": 69,
      "start": 3.248,
      "duration": 0.112,
      "velocity": 107,
      "chip": "ym2612"
    },
    {
      "channel": 0,
      "note": 69,
      "start": 3.3141,
      "duration": 0.1291,
      "velocity": 107,
      "chip": "ym2612"
    },
    {
      "channel": 3,
      "note": 69,
      "start": 3.3977,
      "duration": 0.1123,
      "velocity": 107,
      "chip": "ym2612"
    },
    {
      "channel": 0,
      "note": 69,
      "start": 3.4645,
      "duration": 0.1121,
      "velocity": 103,
      "chip": "ym2612"
    },
    {
      "channel": 1,
      "note": 45,
      "start": 3.4672,
      "duration": 0.1095,
      "velocity": 107,
      "chip": "ym2612"
    },
    {
      "channel": 3,
      "note": 69,
      "start": 3.531,
      "duration": 0.1289,
      "velocity": 107,
      "chip": "ym2612"
    },
    {
      "channel": 0,
      "note": 69,
      "start": 3.6138,
      "duration": 0.1127,
      "velocity": 107,
      "chip": "ym2612"
    },
    {
      "channel": 1,
      "note": 45,
      "start": 3.6166,
      "duration": 0.1101,
      "velocity": 107,
      "chip": "ym2612"
    },
    {
      "channel": 3,
      "note": 69,
      "start": 3.6814,
      "duration": 0.112,
      "velocity": 103,
      "chip": "ym2612"
    },
    {
      "channel": 0,
      "note": 69,
      "start": 3.7474,
      "duration": 0.1291,
      "velocity": 103,
      "chip": "ym2612"
    },
    {
      "channel": 3,
      "note": 69,
      "start": 3.8308,
      "duration": 0.1125,
      "velocity": 107,
      "chip": "ym2612"
    },
    {
      "channel": 0,
      "note": 69,
      "start": 3.8972,
      "duration": 0.1126,
      "velocity": 107,
      "chip": "ym2612"
    },
    {
      "channel": 3,
      "note": 69,
      "start": 3.9645,
      "duration": 0.129,
      "velocity": 103,
      "chip": "ym2612"
    },
    {
      "channel": 0,
      "note": 69,
      "start": 4.0477,
      "duration": 0.1122,
      "velocity": 107,
      "chip": "ym2612"
    },
    {
      "channel": 5,
      "note": 53,
      "start": 4.0511,
      "duration": 0.1091,
      "velocity": 125,
      "chip": "ym2612"
    },
    {
      "channel": 3,
      "note": 69,
      "start": 4.1145,
      "duration": 0.1122,
      "velocity": 107,
      "chip": "ym2612"
    },
    {
      "channel": 0,
      "note": 69,
      "start": 4.1809,
      "duration": 0.129,
      "velocity": 97,
      "chip": "ym2612"
    },
    {
      "channel": 3,
      "note": 69,
      "start": 4.2644,
      "duration": 0.1123,
      "velocity": 107,
      "chip": "ym2612"
    },
    {
      "channel": 0,
      "note": 69,
      "start": 4.3308,
      "duration": 0.1125,
      "velocity": 107,
      "chip": "ym2612"
    },
    {
      "channel": 3,
      "note": 69,
      "start": 4.3979,
      "duration": 0.1288,
      "velocity": 85,
      "chip": "ym2612"
    },
    {
      "channel": 0,
      "note": 69,
      "start": 4.4809,
      "duration": 0.1123,
      "velocity": 107,
      "chip": "ym2612"
    },
    {
      "channel": 3,
      "note": 69,
      "start": 4.5476,
      "duration": 0.1124,
      "velocity": 107,
      "chip": "ym2612"
    },
    {
      "channel": 0,
      "note": 69,
      "start": 4.617,
      "duration": 0.1263,
      "velocity": 107,
      "chip": "ym2612"
    },
    {
      "channel": 1,
      "note": 45,
      "start": 4.621,
      "duration": 0.1223,
      "velocity": 107,
      "chip": "ym2612"
    },
    {
      "channel": 0,
      "note": 69,
      "start": 4.7641,
      "duration": 0.1123,
      "velocity": 107,
      "chip": "ym2612"
    },
    {
      "channel": 3,
      "note": 69,
      "start": 4.8329,
      "duration": 0.1271,
      "velocity": 107,
      "chip": "ym2612"
    },
    {
      "channel": 0,
      "note": 69,
      "start": 4.9141,
      "duration": 0.1124,
      "velocity": 107,
      "chip": "ym2612"
    },
    {
      "channel": 1,
      "note": 45,
      "start": 4.9168,
      "duration": 0.1099,
      "velocity": 107,
      "chip": "ym2612"
    },
    {
      "channel": 3,
      "note": 69,
      "start": 4.9811,
      "duration": 0.1122,
      "velocity": 107,
      "chip": "ym2612"
    },
    {
      "channel": 0,
      "note": 69,
      "start": 5.0479,
      "duration": 0.1287,
      "velocity": 107,
      "chip": "ym2612"
    },
    {
      "channel": 3,
      "note": 69,
      "start": 5.1311,
      "duration": 0.1122,
      "velocity": 107,
      "chip": "ym2612"
    },
    {
      "channel": 0,
      "note": 69,
      "start": 5.1976,
      "duration": 0.1122,
      "velocity": 103,
      "chip": "ym2612"
    },
    {
      "channel": 5,
      "note": 53,
      "start": 5.2009,
      "duration": 0.1926,
      "velocity": 125,
      "chip": "ym2612"
    },
    {
      "channel": 3,
      "note": 69,
      "start": 5.2647,
      "duration": 0.1286,
      "velocity": 107,
      "chip": "ym2612"
    },
    {
      "channel": 0,
      "note": 69,
      "start": 5.3472,
      "duration": 0.1127,
      "velocity": 107,
      "chip": "ym2612"
    },
    {
      "channel": 3,
      "note": 69,
      "start": 5.4143,
      "duration": 0.1124,
      "velocity": 103,
      "chip": "ym2612"
    },
    {
      "channel": 0,
      "note": 69,
      "start": 5.4978,
      "duration": 0.112,
      "velocity": 107,
      "chip": "ym2612"
    },
    {
      "channel": 3,
      "note": 69,
      "start": 5.5641,
      "duration": 0.1125,
      "velocity": 107,
      "chip": "ym2612"
    },
    {
      "channel": 0,
      "note": 69,
      "start": 5.6309,
      "duration": 0.1123,
      "velocity": 97,
      "chip": "ym2612"
    },
    {
      "channel": 3,
      "note": 69,
      "start": 5.7147,
      "duration": 0.112,
      "velocity": 107,
      "chip": "ym2612"
    },
    {
      "channel": 0,
      "note": 69,
      "start": 5.7807,
      "duration": 0.1123,
      "velocity": 107,
      "chip": "ym2612"
    },
    {
      "channel": 1,
      "note": 45,
      "start": 5.7835,
      "duration": 0.1097,
      "velocity": 107,
      "chip": "ym2612"
    },
    {
      "channel": 3,
      "note": 69,
      "start": 5.8477,
      "duration": 0.1122,
      "velocity": 85,
      "chip": "ym2612"
    },
    {
      "channel": 0,
      "note": 69,
      "start": 5.9311,
      "duration": 0.1122,
      "velocity": 107,
      "chip": "ym2612"
    },
    {
      "channel": 1,
      "note": 45,
      "start": 5.9342,
      "duration": 0.1092,
      "velocity": 107,
      "chip": "ym2612"
    },
    {
      "channel": 3,
      "note": 69,
      "start": 5.9977,
      "duration": 0.1123,
      "velocity": 107,
      "chip": "ym2612"
    },
    {
      "channel": 0,
      "note": 69,
      "start": 6.0641,
      "duration": 0.1124,
      "velocity": 103,
      "chip": "ym2612"
    },
    {
      "channel": 3,
      "note": 69,
      "start": 6.1481,
      "duration": 0.1118,
      "velocity": 107,
      "chip": "ym2612"
    },
    {
      "channel": 0,
      "note": 69,
      "start": 6.214,
      "duration": 0.1126,
      "velocity": 107,
      "chip": "ym2612"
    },
    {
      "channel": 3,
      "note": 69,
      "start": 6.2811,
      "duration": 0.1123,
      "velocity": 103,
      "chip": "ym2612"
    },
    {
      "channel": 0,
      "note": 69,
      "start": 6.3641,
      "duration": 0.1125,
      "velocity": 97,
      "chip": "ym2612"
    },
    {
      "channel": 5,
      "note": 53,
      "start": 6.3675,
      "duration": 0.1093,
      "velocity": 125,
      "chip": "ym2612"
    },
    {
      "channel": 3,
      "note": 69,
      "start": 6.4311,
      "duration": 0.1123,
      "velocity": 107,
      "chip": "ym2612"
    },
    {
      "channel": 0,
      "note": 69,
      "start": 6.4976,
      "duration": 0.1123,
      "velocity": 107,
      "chip": "ym2612"
    },
    {
      "channel": 3,
      "note": 69,
      "start": 6.5811,
      "duration": 0.1123,
      "velocity": 85,
      "chip": "ym2612"
    },
    {
      "channel": 0,
      "note": 69,
      "start": 6.6474,
      "duration": 0.1125,
      "velocity": 107,
      "chip": "ym2612"
    },
    {
      "channel": 3,
      "note": 69,
      "start": 6.7145,
      "duration": 0.1121,
      "velocity": 107,
      "chip": "ym2612"
    },
    {
      "channel": 0,
      "note": 69,
      "start": 6.7974,
      "duration": 0.1124,
      "velocity": 107,
      "chip": "ym2612"
    },
    {
      "channel": 3,
      "note": 69,
      "start": 6.8644,
      "duration": 0.1124,
      "velocity": 107,
      "chip": "ym2612"
    },
    {
      "channel": 0,
      "note": 69,
      "start": 6.9311,
      "duration": 0.1288,
      "velocity": 107,
      "chip": "ym2612"
    },
    {
      "channel": 1,
      "note": 45,
      "start": 6.9337,
      "duration": 0.1263,
      "velocity": 107,
      "chip": "ym2612"
    },
    {
      "channel": 3,
      "note": 69,
      "start": 7.0145,
      "duration": 0.1122,
      "velocity": 107,
      "chip": "ym2612"
    },
    {
      "channel": 0,
      "note": 69,
      "start": 7.0809,
      "duration": 0.1123,
      "velocity": 107,
      "chip": "ym2612"
    },
    {
      "channel": 3,
      "note": 69,
      "start": 7.148,
      "duration": 0.1286,
      "velocity": 107,
      "chip": "ym2612"
    },
    {
      "channel": 0,
      "note": 69,
      "start": 7.2307,
      "duration": 0.1125,
      "velocity": 107,
      "chip": "ym2612"
    },
    {
      "channel": 1,
      "note": 45,
      "start": 7.2334,
      "duration": 0.1099,
      "velocity": 107,
      "chip": "ym2612"
    },
    {
      "channel": 3,
      "note": 69,
      "start": 7.2978,
      "duration": 0.1122,
      "velocity": 107,
      "chip": "ym2612"
    },
    {
      "channel": 0,
      "note": 69,
      "start": 7.3645,
      "duration": 0.1286,
      "velocity": 107,
      "chip": "ym2612"
    },
    {
      "channel": 3,
      "note": 69,
      "start": 7.4478,
      "duration": 0.1122,
      "velocity": 107,
      "chip": "ym2612"
    },
    {
      "channel": 0,
      "note": 69,
      "start": 7.5142,
      "duration": 0.1122,
      "velocity": 107,
      "chip": "ym2612"
    },
    {
      "channel": 5,
      "note": 53,
      "start": 7.5175,
      "duration": 0.1927,
      "velocity": 125,
      "chip": "ym2612"
    },
    {
      "channel": 3,
      "note": 69,
      "start": 7.5814,
      "duration": 0.1286,
      "velocity": 107,
      "chip": "ym2612"
    },
    {
      "channel": 0,
      "note": 69,
      "start": 7.664,
      "duration": 0.1124,
      "velocity": 107,
      "chip": "ym2612"
    },
    {
      "channel": 3,
      "note": 69,
      "start": 7.731,
      "duration": 0.1124,
      "velocity": 107,
      "chip": "ym2612"
    },
    {
      "channel": 0,
      "note": 69,
      "start": 7.7978,
      "duration": 0.1287,
      "velocity": 107,
      "chip": "ym2612"
    },
    {
      "channel": 3,
      "note": 69,
      "start": 7.881,
      "duration": 0.1123,
      "velocity": 107,
      "chip": "ym2612"
    },
    {
      "channel": 0,
      "note": 69,
      "start": 7.9474,
      "duration": 0.1126,
      "velocity": 107,
      "chip": "ym2612"
    },
    {
      "channel": 3,
      "note": 69,
      "start": 8.0148,
      "duration": 0.1285,
      "velocity": 107,
      "chip": "ym2612"
    },
    {
      "channel": 0,
      "note": 69,
      "start": 8.0974,
      "duration": 0.1125,
      "velocity": 103,
      "chip": "ym2612"
    },
    {
      "channel": 1,
      "note": 45,
      "start": 8.1001,
      "duration": 0.1099,
      "velocity": 107,
      "chip": "ym2612"
    },
    {
      "channel": 3,
      "note": 69,
      "start": 8.1645,
      "duration": 0.1123,
      "velocity": 107,
      "chip": "ym2612"
    },
    {
      "channel": 0,
      "note": 69,
      "start": 8.2311,
      "duration": 0.1288,
      "velocity": 107,
      "chip": "ym2612"
    },
    {
      "channel": 1,
      "note": 45,
      "start": 8.2337,
      "duration": 0.1263,
      "velocity": 107,
      "chip": "ym2612"
    },
    {
      "channel": 3,
      "note": 69,
      "start": 8.3145,
      "duration": 0.1122,
      "velocity": 103,
      "chip": "ym2612"
    },
    {
      "channel": 0,
      "note": 69,
      "start": 8.3808,
      "duration": 0.1123,
      "velocity": 103,
      "chip": "ym2612"
    },
    {
      "channel": 3,
      "note": 69,
      "start": 8.4479,
      "duration": 0.1288,
      "velocity": 107,
      "chip": "ym2612"
    },
    {
      "channel": 0,
      "note": 69,
      "start": 8.5305,
      "duration": 0.1127,
      "velocity": 107,
      "chip": "ym2612"
    },
    {
      "channel": 3,
      "note": 69,
      "start": 8.5977,
      "duration": 0.1123,
      "velocity": 103,
      "chip": "ym2612"
    },
    {
      "channel": 0,
      "note": 69,
      "start": 8.6641,
      "duration": 0.1291,
      "velocity": 107,
      "chip": "ym2612"
    },
    {
      "channel": 5,
      "note": 53,
      "start": 8.6675,
      "duration": 0.1261,
      "velocity": 125,
      "chip": "ym2612"
    },
    {
      "channel": 3,
      "note": 69,
      "start": 8.7476,
      "duration": 0.1125,
      "velocity": 107,
      "chip": "ym2612"
    },
    {
      "channel": 0,
      "note": 69,
      "start": 8.8145,
      "duration": 0.1121,
      "velocity": 97,
      "chip": "ym2612"
    },
    {
      "channel": 3,
      "note": 69,
      "start": 8.8811,
      "duration": 0.129,
      "velocity": 107,
      "chip": "ym2612"
    },
    {
      "channel": 0,
      "note": 69,
      "start": 8.9641,
      "duration": 0.1125,
      "velocity": 107,
      "chip": "ym2612"
    },
    {
      "channel": 3,
      "note": 69,
      "start": 9.0315,
      "duration": 0.1118,
      "velocity": 85,
      "chip": "ym2612"
    },
    {
      "channel": 0,
      "note": 69,
      "start": 9.0974,
      "duration": 0.1291,
      "velocity": 107,
      "chip": "ym2612"
    },
    {
      "channel": 3,
      "note": 69,
      "start": 9.181,
      "duration": 0.1123,
      "velocity": 107,
      "chip": "ym2612"
    },
    {
      "channel": 0,
      "note": 69,
      "start": 9.2506,
      "duration": 0.1093,
      "velocity": 107,
      "chip": "ym2612"
    },
    {
      "channel": 1,
      "note": 45,
      "start": 9.2543,
      "duration": 0.1057,
      "velocity": 107,
      "chip": "ym2612"
    },
    {
      "channel": 2,
      "note": 81,
      "start": 9.2595,
      "duration": 0.5173,
      "velocity": 104,
      "chip": "ym2612"
    },
    {
      "channel": 0,
      "note": 69,
      "start": 9.3974,
      "duration": 0.1125,
      "velocity": 107,
      "chip": "ym2612"
    },
    {
      "channel": 3,
      "note": 69,
      "start": 9.4662,
      "duration": 0.1105,
      "velocity": 107,
      "chip": "ym2612"
    },
    {
      "channel": 0,
      "note": 69,
      "start": 9.5308,
      "duration": 0.1291,
      "velocity": 107,
      "chip": "ym2612"
    },
    {
      "channel": 1,
      "note": 45,
      "start": 9.5336,
      "duration": 0.1265,
      "velocity": 107,
      "chip": "ym2612"
    },
    {
      "channel": 3,
      "note": 69,
      "start": 9.6144,
      "duration": 0.1123,
      "velocity": 107,
      "chip": "ym2612"
    },
    {
      "channel": 0,
      "note": 69,
      "start": 9.6811,
      "duration": 0.1121,
      "velocity": 107,
      "chip": "ym2612"
    },
    {
      "channel": 3,
      "note": 69,
      "start": 9.7644,
      "duration": 0.1122,
      "velocity": 107,
      "chip": "ym2612"
    },
    {
      "channel": 0,
      "note": 69,
      "start": 9.8307,
      "duration": 0.1124,
      "velocity": 103,
      "chip": "ym2612"
    },
    {
      "channel": 5,
      "note": 53,
      "start": 9.8341,
      "duration": 0.1761,
      "velocity": 125,
      "chip": "ym2612"
    },
    {
      "channel": 3,
      "note": 69,
      "start": 9.898,
      "duration": 0.1119,
      "velocity": 107,
      "chip": "ym2612"
    },
    {
      "channel": 0,
      "note": 69,
      "start": 9.9805,
      "duration": 0.1126,
      "velocity": 107,
      "chip": "ym2612"
    },
    {
      "channel": 3,
      "note": 69,
      "start": 10.0476,
      "duration": 0.1123,
      "velocity": 103,
      "chip": "ym2612"
    },
    {
      "channel": 0,
      "note": 69,
      "start": 10.1145,
      "duration": 0.112,
      "velocity": 107,
      "chip": "ym2612"
    },
    {
      "channel": 3,
      "note": 69,
      "start": 10.1974,
      "duration": 0.1125,
      "velocity": 107,
      "chip": "ym2612"
    },
    {
      "channel": 0,
      "note": 69,
      "start": 10.2641,
      "duration": 0.1124,
      "velocity": 97,
      "chip": "ym2612"
    },
    {
      "channel": 3,
      "note": 69,
      "start": 10.3313,
      "duration": 0.112,
      "velocity": 107,
      "chip": "ym2612"
    },
    {
      "channel": 0,
      "note": 69,
      "start": 10.4141,
      "duration": 0.1124,
      "velocity": 107,
      "chip": "ym2612"
    },
    {
      "channel": 1,
      "note": 45,
      "start": 10.4168,
      "duration": 0.1098,
      "velocity": 107,
      "chip": "ym2612"
    },
    {
      "channel": 2,
      "note": 81,
      "start": 10.4194,
      "duration": 0.2409,
      "velocity": 104,
      "chip": "ym2612"
    },
    {
      "channel": 3,
      "note": 69,
      "start": 10.4811,
      "duration": 0.1123,
      "velocity": 85,
      "chip": "ym2612"
    },
    {
      "channel": 0,
      "note": 69,
      "start": 10.5478,
      "duration": 0.1121,
      "velocity": 107,
      "chip": "ym2612"
    },
    {
      "channel": 1,
      "note": 45,
      "start": 10.5509,
      "duration": 0.1092,
      "velocity": 107,
      "chip": "ym2612"
    },
    {
      "channel": 3,
      "note": 69,
      "start": 10.6311,
      "duration": 0.1122,
      "velocity": 107,
      "chip": "ym2612"
    },
    {
      "channel": 0,
      "note": 69,
      "start": 10.6974,
      "duration": 0.1126,
      "velocity": 103,
      "chip": "ym2612"
    },
    {
      "channel": 3,
      "note": 69,
      "start": 10.7648,
      "duration": 0.112,
      "velocity": 107,
      "chip": "ym2612"
    },
    {
      "channel": 0,
      "note": 69,
      "start": 10.8474,
      "duration": 0.1124,
      "velocity": 107,
      "chip": "ym2612"
    },
    {
      "channel": 2,
      "note": 81,
      "start": 10.8502,
      "duration": 0.11,
      "velocity": 104,
      "chip": "ym2612"
    },
    {
      "channel": 3,
      "note": 69,
      "start": 10.9145,
      "duration": 0.1123,
      "velocity": 103,
      "chip": "ym2612"
    },
    {
      "channel": 0,
      "note": 69,
      "start": 10.981,
      "duration": 0.1123,
      "velocity": 97,
      "chip": "ym2612"
    },
    {
      "channel": 5,
      "note": 53,
      "start": 10.9843,
      "duration": 0.1092,
      "velocity": 125,
      "chip": "ym2612"
    },
    {
      "channel": 3,
      "note": 69,
      "start": 11.0645,
      "duration": 0.1122,
      "velocity": 107,
      "chip": "ym2612"
    },
    {
      "channel": 0,
      "note": 69,
      "start": 11.131,
      "duration": 0.1123,
      "velocity": 107,
      "chip": "ym2612"
    },
    {
      "channel": 3,
      "note": 69,
      "start": 11.1978,
      "duration": 0.129,
      "velocity": 85,
      "chip": "ym2612"
    },
    {
      "channel": 0,
      "note": 69,
      "start": 11.2807,
      "duration": 0.1125,
      "velocity": 107,
      "chip": "ym2612"
    },
    {
      "channel": 3,
      "note": 69,
      "start": 11.3478,
      "duration": 0.1122,
      "velocity": 107,
      "chip": "ym2612"
    },
    {
      "channel": 0,
      "note": 69,
      "start": 11.4141,
      "duration": 0.129,
      "velocity": 107,
      "chip": "ym2612"
    },
    {
      "channel": 3,
      "note": 69,
      "start": 11.4977,
      "duration": 0.1123,
      "velocity": 107,
      "chip": "ym2612"
    },
    {
      "channel": 0,
      "note": 69,
      "start": 11.5644,
      "duration": 0.1122,
      "velocity": 107,
      "chip": "ym2612"
    },
    {
      "channel": 1,
      "note": 45,
      "start": 11.5671,
      "duration": 0.1095,
      "velocity": 107,
      "chip": "ym2612"
    },
    {
      "channel": 2,
      "note": 81,
      "start": 11.5722,
      "duration": 0.5212,
      "velocity": 104,
      "chip": "ym2612"
    },
    {
      "channel": 3,
      "note": 69,
      "start": 11.6311,
      "duration": 0.129,
      "velocity": 107,
      "chip": "ym2612"
    },
    {
      "channel": 0,
      "note": 69,
      "start": 11.7141,
      "duration": 0.1125,
      "velocity": 107,
      "chip": "ym2612"
    },
    {
      "channel": 3,
      "note": 69,
      "start": 11.7815,
      "duration": 0.1118,
      "velocity": 107,
      "chip": "ym2612"
    },
    {
      "channel": 0,
      "note": 69,
      "start": 11.8475,
      "duration": 0.1291,
      "velocity": 107,
      "chip": "ym2612"
    },
    {
      "channel": 1,
      "note": 45,
      "start": 11.8502,
      "duration": 0.1265,
      "velocity": 107,
      "chip": "ym2612"
    },
    {
      "channel": 3,
      "note": 69,
      "start": 11.9311,
      "duration": 0.1123,
      "velocity": 107,
      "chip": "ym2612"
    },
    {
      "channel": 0,
      "note": 69,
      "start": 11.9979,
      "duration": 0.1121,
      "velocity": 107,
      "chip": "ym2612"
    },
    {
      "channel": 3,
      "note": 69,
      "start": 12.0645,
      "duration": 0.1288,
      "velocity": 107,
      "chip": "ym2612"
    },
    {
      "channel": 0,
      "note": 69,
      "start": 12.1474,
      "duration": 0.1125,
      "velocity": 107,
      "chip": "ym2612"
    },
    {
      "channel": 5,
      "note": 53,
      "start": 12.1507,
      "duration": 0.1761,
      "velocity": 125,
      "chip": "ym2612"
    },
    {
      "channel": 3,
      "note": 69,
      "start": 12.2147,
      "duration": 0.112,
      "velocity": 107,
      "chip": "ym2612"
    },
    {
      "channel": 0,
      "note": 69,
      "start": 12.2807,
      "duration": 0.129,
      "velocity": 107,
      "chip": "ym2612"
    },
    {
      "channel": 3,
      "note": 69,
      "start": 12.3643,
      "duration": 0.1123,
      "velocity": 107,
      "chip": "ym2612"
    },
    {
      "channel": 0,
      "note": 69,
      "start": 12.4311,
      "duration": 0.1121,
      "velocity": 107,
      "chip": "ym2612"
    },
    {
      "channel": 3,
      "note": 69,
      "start": 12.4976,
      "duration": 0.129,
      "velocity": 107,
      "chip": "ym2612"
    },
    {
      "channel": 0,
      "note": 69,
      "start": 12.5807,
      "duration": 0.1125,
      "velocity": 107,
      "chip": "ym2612"
    },
    {
      "channel": 3,
      "note": 69,
      "start": 12.648,
      "duration": 0.112,
      "velocity": 107,
      "chip": "ym2612"
    },
    {
      "channel": 0,
      "note": 69,
      "start": 12.7141,
      "duration": 0.1291,
      "velocity": 103,
      "chip": "ym2612"
    },
    {
      "channel": 1,
      "note": 45,
      "start": 12.7168,
      "duration": 0.1265,
      "velocity": 107,
      "chip": "ym2612"
    },
    {
      "channel": 2,
      "note": 81,
      "start": 12.7194,
      "duration": 0.2576,
      "velocity": 104,
      "chip": "ym2612"
    },
    {
      "channel": 3,
      "note": 69,
      "start": 12.7977,
      "duration": 0.1123,
      "velocity": 107,
      "chip": "ym2612"
    },
    {
      "channel": 0,
      "note": 69,
      "start": 12.8643,
      "duration": 0.1123,
      "velocity": 107,
      "chip": "ym2612"
    },
    {
      "channel": 1,
      "note": 45,
      "start": 12.867,
      "duration": 0.1098,
      "velocity": 107,
      "chip": "ym2612"
    },
    {
      "channel": 3,
      "note": 69,
      "start": 12.931,
      "duration": 0.129,
      "velocity": 103,
      "chip": "ym2612"
    },
    {
      "channel": 0,
      "note": 69,
      "start": 13.0141,
      "duration": 0.1125,
      "velocity": 103,
      "chip": "ym2612"
    },
    {
      "channel": 3,
      "note": 69,
      "start": 13.0812,
      "duration": 0.1122,
      "velocity": 107,
      "chip": "ym2612"
    },
    {
      "channel": 0,
      "note": 69,
      "start": 13.1472,
      "duration": 0.1293,
      "velocity": 107,
      "chip": "ym2612"
    },
    {
      "channel": 2,
      "note": 81,
      "start": 13.1501,
      "duration": 0.1267,
      "velocity": 104,
      "chip": "ym2612"
    },
    {
      "channel": 3,
      "note": 69,
      "start": 13.2311,
      "duration": 0.1123,
      "velocity": 103,
      "chip": "ym2612"
    },
    {
      "channel": 0,
      "note": 69,
      "start": 13.2975,
      "duration": 0.1123,
      "velocity": 107,
      "chip": "ym2612"
    },
    {
      "channel": 5,
      "note": 53,
      "start": 13.3009,
      "duration": 0.1093,
      "velocity": 125,
      "chip": "ym2612"
    },
    {
      "channel": 3,
      "note": 69,
      "start": 13.3641,
      "duration": 0.1293,
      "velocity": 107,
      "chip": "ym2612"
    },
    {
      "channel": 0,
      "note": 69,
      "start": 13.4478,
      "duration": 0.1121,
      "velocity": 97,
      "chip": "ym2612"
    },
    {
      "channel": 3,
      "note": 69,
      "start": 13.5144,
      "duration": 0.1123,
      "velocity": 107,
      "chip": "ym2612"
    },
    {
      "channel": 0,
      "note": 69,
      "start": 13.5808,
      "duration": 0.129,
      "velocity": 107,
      "chip": "ym2612"
    },
    {
      "channel": 3,
      "note": 69,
      "start": 13.6649,
      "duration": 0.1118,
      "velocity": 85,
      "chip": "ym2612"
    },
    {
      "channel": 0,
      "note": 69,
      "start": 13.7307,
      "duration": 0.1124,
      "velocity": 107,
      "chip": "ym2612"
    },
    {
      "channel": 3,
      "note": 69,
      "start": 13.7977,
      "duration": 0.1291,
      "velocity": 107,
      "chip": "ym2612"
    },
    {
      "channel": 0,
      "note": 69,
      "start": 13.8839,
      "duration": 0.1093,
      "velocity": 107,
      "chip": "ym2612"
    },
    {
      "channel": 1,
      "note": 45,
      "start": 13.8876,
      "duration": 0.1058,
      "velocity": 107,
      "chip": "ym2612"
    },
    {
      "channel": 2,
      "note": 81,
      "start": 13.8933,
      "duration": 0.5169,
      "velocity": 104,
      "chip": "ym2612"
    },
    {
      "channel": 0,
      "note": 69,
      "start": 14.0307,
      "duration": 0.1124,
      "velocity": 107,
      "chip": "ym2612"
    },
    {
      "channel": 3,
      "note": 69,
      "start": 14.0996,
      "duration": 0.1105,
      "velocity": 107,
      "chip": "ym2612"
    },
    {
      "channel": 0,
      "note": 69,
      "start": 14.1642,
      "duration": 0.1124,
      "velocity": 107,
      "chip": "ym2612"
    },
    {
      "channel": 1,
      "note": 45,
      "start": 14.167,
      "duration": 0.1098,
      "velocity": 107,
      "chip": "ym2612"
    },
    {
      "channel": 3,
      "note": 69,
      "start": 14.2478,
      "duration": 0.1123,
      "velocity": 107,
      "chip": "ym2612"
    },
    {
      "channel": 0,
      "note": 69,
      "start": 14.3145,
      "duration": 0.1121,
      "velocity": 107,
      "chip": "ym2612"
    },
    {
      "channel": 3,
      "note": 69,
      "start": 14.3811,
      "duration": 0.1122,
      "velocity": 107,
      "chip": "ym2612"
    },
    {
      "channel": 0,
      "note": 69,
      "start": 14.4641,
      "duration": 0.1124,
      "velocity": 103,
      "chip": "ym2612"
    },
    {
      "channel": 5,
      "note": 53,
      "start": 14.4674,
      "duration": 0.1761,
      "velocity": 125,
      "chip": "ym2612"
    },
    {
      "channel": 3,
      "note": 69,
      "start": 14.5314,
      "duration": 0.1119,
      "velocity": 107,
      "chip": "ym2612"
    },
    {
      "channel": 0,
      "note": 69,
      "start": 14.5973,
      "duration": 0.1126,
      "velocity": 107,
      "chip": "ym2612"
    },
    {
      "channel": 3,
      "note": 69,
      "start": 14.681,
      "duration": 0.1124,
      "velocity": 103,
      "chip": "ym2612"
    },
    {
      "channel": 0,
      "note": 69,
      "start": 14.7478,
      "duration": 0.1121,
      "velocity": 107,
      "chip": "ym2612"
    },
    {
      "channel": 3,
      "note": 69,
      "start": 14.8141,
      "duration": 0.1125,
      "velocity": 107,
      "chip": "ym2612"
    },
    {
      "channel": 0,
      "note": 69,
      "start": 14.8976,
      "duration": 0.1123,
      "velocity": 97,
      "chip": "ym2612"
    },
    {
      "channel": 3,
      "note": 69,
      "start": 14.9647,
      "duration": 0.112,
      "velocity": 107,
      "chip": "ym2612"
    },
    {
      "channel": 0,
      "note": 69,
      "start": 15.0307,
      "duration": 0.1125,
      "velocity": 107,
      "chip": "ym2612"
    },
    {
      "channel": 1,
      "note": 45,
      "start": 15.0334,
      "duration": 0.1099,
      "velocity": 107,
      "chip": "ym2612"
    },
    {
      "channel": 2,
      "note": 81,
      "start": 15.036,
      "duration": 0.2576,
      "velocity": 104,
      "chip": "ym2612"
    },
    {
      "channel": 3,
      "note": 69,
      "start": 15.1145,
      "duration": 0.1122,
      "velocity": 85,
      "chip": "ym2612"
    },
    {
      "channel": 0,
      "note": 69,
      "start": 15.1811,
      "duration": 0.1122,
      "velocity": 107,
      "chip": "ym2612"
    },
    {
      "channel": 1,
      "note": 45,
      "start": 15.1841,
      "duration": 0.1093,
      "velocity": 107,
      "chip": "ym2612"
    },
    {
      "channel": 3,
      "note": 69,
      "start": 15.2477,
      "duration": 0.1122,
      "velocity": 107,
      "chip": "ym2612"
    },
    {
      "channel": 0,
      "note": 69,
      "start": 15.3307,
      "duration": 0.1125,
      "velocity": 103,
      "chip": "ym2612"
    },
    {
      "channel": 3,
      "note": 69,
      "start": 15.398,
      "duration": 0.112,
      "velocity": 107,
      "chip": "ym2612"
    },
    {
      "channel": 0,
      "note": 69,
      "start": 15.4641,
      "duration": 0.1291,
      "velocity": 107,
      "chip": "ym2612"
    },
    {
      "channel": 2,
      "note": 81,
      "start": 15.467,
      "duration": 0.1266,
      "velocity": 104,
      "chip": "ym2612"
    },
    {
      "channel": 3,
      "note": 69,
      "start": 15.5477,
      "duration": 0.1122,
      "velocity": 103,
      "chip": "ym2612"
    },
    {
      "channel": 0,
      "note": 69,
      "start": 15.6142,
      "duration": 0.1123,
      "velocity": 97,
      "chip": "ym2612"
    },
    {
      "channel": 5,
      "note": 53,
      "start": 15.6175,
      "duration": 0.1093,
      "velocity": 125,
      "chip": "ym2612"
    },
    {
      "channel": 3,
      "note": 69,
      "start": 15.6811,
      "duration": 0.129,
      "velocity": 107,
      "chip": "ym2612"
    },
    {
      "channel": 0,
      "note": 69,
      "start": 15.7642,
      "duration": 0.1123,
      "velocity": 107,
      "chip": "ym2612"
    },
    {
      "channel": 3,
      "note": 69,
      "start": 15.8313,
      "duration": 0.1122,
      "velocity": 85,
      "chip": "ym2612"
    },
    {
      "channel": 0,
      "note": 69,
      "start": 15.8975,
      "duration": 0.1291,
      "velocity": 107,
      "chip": "ym2612"
    },
    {
      "channel": 3,
      "note": 69,
      "start": 15.9813,
      "duration": 0.112,
      "velocity": 107,
      "chip": "ym2612"
    },
    {
      "channel": 0,
      "note": 69,
      "start": 16.0475,
      "duration": 0.1124,
      "velocity": 107,
      "chip": "ym2612"
    },
    {
      "channel": 3,
      "note": 69,
      "start": 16.1144,
      "duration": 0.1289,
      "velocity": 107,
      "chip": "ym2612"
    },
    {
      "channel": 0,
      "note": 69,
      "start": 16.1978,
      "duration": 0.1121,
      "velocity": 107,
      "chip": "ym2612"
    },
    {
      "channel": 1,
      "note": 45,
      "start": 16.2005,
      "duration": 0.1095,
      "velocity": 107,
      "chip": "ym2612"
    },
    {
      "channel": 2,
      "note": 81,
      "start": 16.206,
      "duration": 0.5041,
      "velocity": 104,
      "chip": "ym2612"
    },
    {
      "channel": 3,
      "note": 69,
      "start": 16.2645,
      "duration": 0.1123,
      "velocity": 107,
      "chip": "ym2612"
    },
    {
      "channel": 0,
      "note": 69,
      "start": 16.3309,
      "duration": 0.1291,
      "velocity": 107,
      "chip": "ym2612"
    },
    {
      "channel": 3,
      "note": 69,
      "start": 16.4149,
      "duration": 0.1119,
      "velocity": 107,
      "chip": "ym2612"
    },
    {
      "channel": 0,
      "note": 69,
      "start": 16.4809,
      "duration": 0.1124,
      "velocity": 107,
      "chip": "ym2612"
    },
    {
      "channel": 1,
      "note": 45,
      "start": 16.4836,
      "duration": 0.1098,
      "velocity": 107,
      "chip": "ym2612"
    },
    {
      "channel": 3,
      "note": 69,
      "start": 16.5477,
      "duration": 0.129,
      "velocity": 107,
      "chip": "ym2612"
    },
    {
      "channel": 0,
      "note": 69,
      "start": 16.6311,
      "duration": 0.1121,
      "velocity": 107,
      "chip": "ym2612"
    },
    {
      "channel": 3,
      "note": 69,
      "start": 16.6977,
      "duration": 0.1122,
      "velocity": 107,
      "chip": "ym2612"
    },
    {
      "channel": 0,
      "note": 69,
      "start": 16.7642,
      "duration": 0.1289,
      "velocity": 107,
      "chip": "ym2612"
    },
    {
      "channel": 5,
      "note": 53,
      "start": 16.7675,
      "duration": 0.1926,
      "velocity": 125,
      "chip": "ym2612"
    },
    {
      "channel": 3,
      "note": 69,
      "start": 16.848,
      "duration": 0.1118,
      "velocity": 107,
      "chip": "ym2612"
    },
    {
      "channel": 0,
      "note": 69,
      "start": 16.9141,
      "duration": 0.1124,
      "velocity": 107,
      "chip": "ym2612"
    },
    {
      "channel": 3,
      "note": 69,
      "start": 16.9811,
      "duration": 0.129,
      "velocity": 107,
      "chip": "ym2612"
    },
    {
      "channel": 0,
      "note": 69,
      "start": 17.0645,
      "duration": 0.112,
      "velocity": 107,
      "chip": "ym2612"
    },
    {
      "channel": 3,
      "note": 69,
      "start": 17.131,
      "duration": 0.1123,
      "velocity": 107,
      "chip": "ym2612"
    },
    {
      "channel": 0,
      "note": 69,
      "start": 17.1974,
      "duration": 0.1291,
      "velocity": 107,
      "chip": "ym2612"
    },
    {
      "channel": 3,
      "note": 69,
      "start": 17.2814,
      "duration": 0.112,
      "velocity": 107,
      "chip": "ym2612"
    },
    {
      "channel": 0,
      "note": 69,
      "start": 17.3474,
      "duration": 0.1125,
      "velocity": 103,
      "chip": "ym2612"
    },
    {
      "channel": 1,
      "note": 45,
      "start": 17.3501,
      "duration": 0.1099,
      "velocity": 107,
      "chip": "ym2612"
    },
    {
      "channel": 2,
      "note": 81,
      "start": 17.3527,
      "duration": 0.2576,
      "velocity": 104,
      "chip": "ym2612"
    },
    {
      "channel": 3,
      "note": 69,
      "start": 17.4144,
      "duration": 0.1289,
      "velocity": 107,
      "chip": "ym2612"
    },
    {
      "channel": 0,
      "note": 69,
      "start": 17.4976,
      "duration": 0.1123,
      "velocity": 107,
      "chip": "ym2612"
    },
    {
      "channel": 1,
      "note": 45,
      "start": 17.5003,
      "duration": 0.1097,
      "velocity": 107,
      "chip": "ym2612"
    },
    {
      "channel": 3,
      "note": 69,
      "start": 17.5645,
      "duration": 0.1122,
      "velocity": 103,
      "chip": "ym2612"
    },
    {
      "channel": 0,
      "note": 69,
      "start": 17.6308,
      "duration": 0.1291,
      "velocity": 103,
      "chip": "ym2612"
    },
    {
      "channel": 3,
      "note": 69,
      "start": 17.7145,
      "duration": 0.1122,
      "velocity": 107,
      "chip": "ym2612"
    },
    {
      "channel": 0,
      "note": 69,
      "start": 17.7806,
      "duration": 0.1126,
      "velocity": 107,
      "chip": "ym2612"
    },
    {
      "channel": 2,
      "note": 81,
      "start": 17.7834,
      "duration": 0.1101,
      "velocity": 104,
      "chip": "ym2612"
    },
    {
      "channel": 3,
      "note": 69,
      "start": 17.8477,
      "duration": 0.129,
      "velocity": 103,
      "chip": "ym2612"
    },
    {
      "channel": 0,
      "note": 69,
      "start": 17.9307,
      "duration": 0.1125,
      "velocity": 107,
      "chip": "ym2612"
    },
    {
      "channel": 5,
      "note": 53,
      "start": 17.9341,
      "duration": 0.1095,
      "velocity": 125,
      "chip": "ym2612"
    },
    {
      "channel": 3,
      "note": 69,
      "start": 17.9975,
      "duration": 0.1126,
      "velocity": 107,
      "chip": "ym2612"
    },
    {
      "channel": 0,
      "note": 69,
      "start": 18.0646,
      "duration": 0.1287,
      "velocity": 97,
      "chip": "ym2612"
    },
    {
      "channel": 3,
      "note": 69,
      "start": 18.1477,
      "duration": 0.1123,
      "velocity": 107,
      "chip": "ym2612"
    },
    {
      "channel": 0,
      "note": 69,
      "start": 18.2142,
      "duration": 0.1123,
      "velocity": 107,
      "chip": "ym2612"
    },
    {
      "channel": 3,
      "note": 69,
      "start": 18.2983,
      "duration": 0.1116,
      "velocity": 85,
      "chip": "ym2612"
    },
    {
      "channel": 0,
      "note": 69,
      "start": 18.3639,
      "duration": 0.1127,
      "velocity": 107,
      "chip": "ym2612"
    },
    {
      "channel": 3,
      "note": 69,
      "start": 18.431,
      "duration": 0.1124,
      "velocity": 107,
      "chip": "ym2612"
    },
    {
      "channel": 0,
      "note": 69,
      "start": 18.5173,
      "duration": 0.1092,
      "velocity": 107,
      "chip": "ym2612"
    },
    {
      "channel": 1,
      "note": 45,
      "start": 18.521,
      "duration": 0.1057,
      "velocity": 107,
      "chip": "ym2612"
    },
    {
      "channel": 2,
      "note": 81,
      "start": 18.5268,
      "duration": 0.5,
      "velocity": 104,
      "chip": "ym2612"
    },
    {
      "channel": 0,
      "note": 69,
      "start": 18.6474,
      "duration": 0.1125,
      "velocity": 107,
      "chip": "ym2612"
    },
    {
      "channel": 3,
      "note": 69,
      "start": 18.7329,
      "duration": 0.1104,
      "velocity": 107,
      "chip": "ym2612"
    },
    {
      "channel": 0,
      "note": 69,
      "start": 18.7974,
      "duration": 0.1125,
      "velocity": 107,
      "chip": "ym2612"
    },
    {
      "channel": 1,
      "note": 45,
      "start": 18.8001,
      "duration": 0.1099,
      "velocity": 107,
      "chip": "ym2612"
    },
    {
      "channel": 3,
      "note": 69,
      "start": 18.8645,
      "duration": 0.1122,
      "velocity": 107,
      "chip": "ym2612"
    },
    {
      "channel": 0,
      "note": 69,
      "start": 18.9478,
      "duration": 0.1121,
      "velocity": 107,
      "chip": "ym2612"
    },
    {
      "channel": 3,
      "note": 69,
      "start": 19.0144,
      "duration": 0.1122,
      "velocity": 107,
      "chip": "ym2612"
    },
    {
      "channel": 0,
      "note": 69,
      "start": 19.0808,
      "duration": 0.1123,
      "velocity": 103,
      "chip": "ym2612"
    },
    {
      "channel": 5,
      "note": 53,
      "start": 19.0841,
      "duration": 0.1927,
      "velocity": 125,
      "chip": "ym2612"
    },
    {
      "channel": 3,
      "note": 69,
      "start": 19.1647,
      "duration": 0.1119,
      "velocity": 107,
      "chip": "ym2612"
    },
    {
      "channel": 0,
      "note": 69,
      "start": 19.2305,
      "duration": 0.1127,
      "velocity": 107,
      "chip": "ym2612"
    },
    {
      "channel": 3,
      "note": 69,
      "start": 19.2977,
      "duration": 0.1123,
      "velocity": 103,
      "chip": "ym2612"
    },
    {
      "channel": 0,
      "note": 69,
      "start": 19.3811,
      "duration": 0.1121,
      "velocity": 107,
      "chip": "ym2612"
    },
    {
      "channel": 3,
      "note": 69,
      "start": 19.4474,
      "duration": 0.1125,
      "velocity": 107,
      "chip": "ym2612"
    },
    {
      "channel": 0,
      "note": 69,
      "start": 19.5141,
      "duration": 0.1123,
      "velocity": 97,
      "chip": "ym2612"
    },
    {
      "channel": 3,
      "note": 69,
      "start": 19.598,
      "duration": 0.112,
      "velocity": 107,
      "chip": "ym2612"
    },
    {
      "channel": 0,
      "note": 69,
      "start": 19.6641,
      "duration": 0.1125,
      "velocity": 107,
      "chip": "ym2612"
    },
    {
      "channel": 1,
      "note": 45,
      "start": 19.6668,
      "duration": 0.1099,
      "velocity": 107,
      "chip": "ym2612"
    },
    {
      "channel": 2,
      "note": 81,
      "start": 19.6694,
      "duration": 0.2575,
      "velocity": 104,
      "chip": "ym2612"
    },
    {
      "channel": 3,
      "note": 69,
      "start": 19.7312,
      "duration": 0.1288,
      "velocity": 85,
      "chip": "ym2612"
    },
    {
      "channel": 0,
      "note": 69,
      "start": 19.8145,
      "duration": 0.1121,
      "velocity": 107,
      "chip": "ym2612"
    },
    {
      "channel": 1,
      "note": 45,
      "start": 19.8175,
      "duration": 0.1092,
      "velocity": 107,
      "chip": "ym2612"
    },
    {
      "channel": 3,
      "note": 69,
      "start": 19.8811,
      "duration": 0.1122,
      "velocity": 107,
      "chip": "ym2612"
    },
    {
      "channel": 0,
      "note": 69,
      "start": 19.9475,
      "duration": 0.1291,
      "velocity": 103,
      "chip": "ym2612"
    },
    {
      "channel": 3,
      "note": 69,
      "start": 20.0314,
      "duration": 0.112,
      "velocity": 107,
      "chip": "ym2612"
    },
    {
      "channel": 0,
      "note": 69,
      "start": 20.0976,
      "duration": 0.1124,
      "velocity": 107,
      "chip": "ym2612"
    },
    {
      "channel": 2,
      "note": 81,
      "start": 20.1003,
      "duration": 0.1099,
      "velocity": 104,
      "chip": "ym2612"
    },
    {
      "channel": 3,
      "note": 69,
      "start": 20.1644,
      "duration": 0.1288,
      "velocity": 103,
      "chip": "ym2612"
    },
    {
      "channel": 0,
      "note": 69,
      "start": 20.2476,
      "duration": 0.1123,
      "velocity": 97,
      "chip": "ym2612"
    },
    {
      "channel": 5,
      "note": 53,
      "start": 20.2509,
      "duration": 0.1092,
      "velocity": 125,
      "chip": "ym2612"
    },
    {
      "channel": 3,
      "note": 69,
      "start": 20.3144,
      "duration": 0.1123,
      "velocity": 107,
      "chip": "ym2612"
    },
    {
      "channel": 0,
      "note": 69,
      "start": 20.381,
      "duration": 0.129,
      "velocity": 107,
      "chip": "ym2612"
    },
    {
      "channel": 1,
      "note": 57,
      "start": 20.3837,
      "duration": 0.1264,
      "velocity": 107,
      "chip": "ym2612"
    },
    {
      "channel": 3,
      "note": 69,
      "start": 20.4645,
      "duration": 0.1122,
      "velocity": 85,
      "chip": "ym2612"
    },
    {
      "channel": 0,
      "note": 69,
      "start": 20.5307,
      "duration": 0.1125,
      "velocity": 107,
      "chip": "ym2612"
    },
    {
      "channel": 1,
      "note": 60,
      "start": 20.5333,
      "duration": 0.1101,
      "velocity": 107,
      "chip": "ym2612"
    },
    {
      "channel": 3,
      "note": 69,
      "start": 20.5978,
      "duration": 0.129,
      "velocity": 107,
      "chip": "ym2612"
    },
    {
      "channel": 0,
      "note": 69,
      "start": 20.6807,
      "duration": 0.1125,
      "velocity": 107,
      "chip": "ym2612"
    },
    {
      "channel": 1,
      "note": 57,
      "start": 20.6833,
      "duration": 0.1101,
      "velocity": 107,
      "chip": "ym2612"
    },
    {
      "channel": 3,
      "note": 69,
      "start": 20.7477,
      "duration": 0.1124,
      "velocity": 107,
      "chip": "ym2612"
    },
    {
      "channel": 0,
      "note": 69,
      "start": 20.8145,
      "duration": 0.1288,
      "velocity": 107,
      "chip": "ym2612"
    },
    {
      "channel": 1,
      "note": 45,
      "start": 20.8172,
      "duration": 0.1261,
      "velocity": 107,
      "chip": "ym2612"
    },
    {
      "channel": 2,
      "note": 81,
      "start": 20.8227,
      "duration": 0.5209,
      "velocity": 104,
      "chip": "ym2612"
    },
    {
      "channel": 3,
      "note": 69,
      "start": 20.8978,
      "duration": 0.1123,
      "velocity": 107,
      "chip": "ym2612"
    },
    {
      "channel": 0,
      "note": 69,
      "start": 20.9642,
      "duration": 0.1123,
      "velocity": 107,
      "chip": "ym2612"
    },
    {
      "channel": 3,
      "note": 69,
      "start": 21.0315,
      "duration": 0.1285,
      "velocity": 107,
      "chip": "ym2612"
    },
    {
      "channel": 0,
      "note": 69,
      "start": 21.114,
      "duration": 0.1124,
      "velocity": 107,
      "chip": "ym2612"
    },
    {
      "channel": 1,
      "note": 45,
      "start": 21.1168,
      "duration": 0.1099,
      "velocity": 107,
      "chip": "ym2612"
    },
    {
      "channel": 3,
      "note": 69,
      "start": 21.1811,
      "duration": 0.1122,
      "velocity": 107,
      "chip": "ym2612"
    },
    {
      "channel": 0,
      "note": 69,
      "start": 21.2479,
      "duration": 0.1287,
      "velocity": 107,
      "chip": "ym2612"
    },
    {
      "channel": 3,
      "note": 69,
      "start": 21.3311,
      "duration": 0.1122,
      "velocity": 107,
      "chip": "ym2612"
    },
    {
      "channel": 0,
      "note": 69,
      "start": 21.3976,
      "duration": 0.1122,
      "velocity": 107,
      "chip": "ym2612"
    },
    {
      "channel": 5,
      "note": 53,
      "start": 21.4008,
      "duration": 0.1927,
      "velocity": 125,
      "chip": "ym2612"
    },
    {
      "channel": 3,
      "note": 69,
      "start": 21.4647,
      "duration": 0.1286,
      "velocity": 107,
      "chip": "ym2612"
    },
    {
      "channel": 0,
      "note": 69,
      "start": 21.5474,
      "duration": 0.1125,
      "velocity": 107,
      "chip": "ym2612"
    },
    {
      "channel": 3,
      "note": 69,
      "start": 21.6143,
      "duration": 0.1124,
      "velocity": 107,
      "chip": "ym2612"
    },
    {
      "channel": 0,
      "note": 69,
      "start": 21.6811,
      "duration": 0.1287,
      "velocity": 107,
      "chip": "ym2612"
    },
    {
      "channel": 3,
      "note": 69,
      "start": 21.7644,
      "duration": 0.1123,
      "velocity": 107,
      "chip": "ym2612"
    },
    {
      "channel": 0,
      "note": 69,
      "start": 21.8307,
      "duration": 0.1126,
      "velocity": 107,
      "chip": "ym2612"
    },
    {
      "channel": 3,
      "note": 69,
      "start": 21.8982,
      "duration": 0.1285,
      "velocity": 107,
      "chip": "ym2612"
    },
    {
      "channel": 0,
      "note": 69,
      "start": 21.9807,
      "duration": 0.1125,
      "velocity": 103,
      "chip": "ym2612"
    },
    {
      "channel": 1,
      "note": 45,
      "start": 21.9834,
      "duration": 0.1099,
      "velocity": 107,
      "chip": "ym2612"
    },
    {
      "channel": 2,
      "note": 81,
      "start": 21.986,
      "duration": 0.2576,
      "velocity": 104,
      "chip": "ym2612"
    },
    {
      "channel": 3,
      "note": 69,
      "start": 22.0478,
      "duration": 0.1122,
      "velocity": 107,
      "chip": "ym2612"
    },
    {
      "channel": 0,
      "note": 69,
      "start": 22.1144,
      "duration": 0.1289,
      "velocity": 107,
      "chip": "ym2612"
    },
    {
      "channel": 1,
      "note": 45,
      "start": 22.1171,
      "duration": 0.1263,
      "velocity": 107,
      "chip": "ym2612"
    },
    {
      "channel": 3,
      "note": 69,
      "start": 22.1977,
      "duration": 0.1123,
      "velocity": 103,
      "chip": "ym2612"
    },
    {
      "channel": 0,
      "note": 69,
      "start": 22.2641,
      "duration": 0.1123,
      "velocity": 103,
      "chip": "ym2612"
    },
    {
      "channel": 3,
      "note": 69,
      "start": 22.3313,
      "duration": 0.1288,
      "velocity": 107,
      "chip": "ym2612"
    },
    {
      "channel": 0,
      "note": 69,
      "start": 22.4138,
      "duration": 0.1127,
      "velocity": 107,
      "chip": "ym2612"
    },
    {
      "channel": 2,
      "note": 81,
      "start": 22.4167,
      "duration": 0.1102,
      "velocity": 104,
      "chip": "ym2612"
    },
    {
      "channel": 3,
      "note": 69,
      "start": 22.4811,
      "duration": 0.1123,
      "velocity": 103,
      "chip": "ym2612"
    },
    {
      "channel": 0,
      "note": 69,
      "start": 22.564,
      "duration": 0.1126,
      "velocity": 107,
      "chip": "ym2612"
    },
    {
      "channel": 5,
      "note": 53,
      "start": 22.5674,
      "duration": 0.1095,
      "velocity": 125,
      "chip": "ym2612"
    },
    {
      "channel": 3,
      "note": 69,
      "start": 22.6309,
      "duration": 0.1125,
      "velocity": 107,
      "chip": "ym2612"
    },
    {
      "channel": 0,
      "note": 69,
      "start": 22.6979,
      "duration": 0.1119,
      "velocity": 97,
      "chip": "ym2612"
    },
    {
      "channel": 3,
      "note": 69,
      "start": 22.7811,
      "duration": 0.1122,
      "velocity": 107,
      "chip": "ym2612"
    },
    {
      "channel": 0,
      "note": 69,
      "start": 22.8474,
      "duration": 0.1124,
      "velocity": 107,
      "chip": "ym2612"
    },
    {
      "channel": 3,
      "note": 69,
      "start": 22.9149,
      "duration": 0.1117,
      "velocity": 85,
      "chip": "ym2612"
    },
    {
      "channel": 0,
      "note": 69,
      "start": 22.9972,
      "duration": 0.1127,
      "velocity": 107,
      "chip": "ym2612"
    },
    {
      "channel": 3,
      "note": 69,
      "start": 23.0643,
      "duration": 0.1125,
      "velocity": 107,
      "chip": "ym2612"
    },
    {
      "channel": 0,
      "note": 69,
      "start": 23.134,
      "duration": 0.1092,
      "velocity": 107,
      "chip": "ym2612"
    },
    {
      "channel": 1,
      "note": 45,
      "start": 23.1377,
      "duration": 0.1057,
      "velocity": 107,
      "chip": "ym2612"
    },
    {
      "channel": 2,
      "note": 81,
      "start": 23.1434,
      "duration": 0.5167,
      "velocity": 104,
      "chip": "ym2612"
    },
    {
      "channel": 0,
      "note": 69,
      "start": 23.2807,
      "duration": 0.1125,
      "velocity": 107,
      "chip": "ym2612"
    },
    {
      "channel": 3,
      "note": 69,
      "start": 23.3497,
      "duration": 0.1104,
      "velocity": 107,
      "chip": "ym2612"
    },
    {
      "channel": 0,
      "note": 69,
      "start": 23.4307,
      "duration": 0.1124,
      "velocity": 107,
      "chip": "ym2612"
    },
    {
      "channel": 1,
      "note": 45,
      "start": 23.4337,
      "duration": 0.1096,
      "velocity": 107,
      "chip": "ym2612"
    },
    {
      "channel": 3,
      "note": 69,
      "start": 23.4977,
      "duration": 0.1123,
      "velocity": 107,
      "chip": "ym2612"
    },
    {
      "channel": 0,
      "note": 69,
      "start": 23.5646,
      "duration": 0.112,
      "velocity": 107,
      "chip": "ym2612"
    },
    {
      "channel": 3,
      "note": 69,
      "start": 23.6477,
      "duration": 0.1122,
      "velocity": 107,
      "chip": "ym2612"
    },
    {
      "channel": 0,
      "note": 69,
      "start": 23.7141,
      "duration": 0.1125,
      "velocity": 103,
      "chip": "ym2612"
    },
    {
      "channel": 5,
      "note": 53,
      "start": 23.7174,
      "duration": 0.176,
      "velocity": 125,
      "chip": "ym2612"
    },
    {
      "channel": 3,
      "note": 69,
      "start": 23.7814,
      "duration": 0.1118,
      "velocity": 107,
      "chip": "ym2612"
    },
    {
      "channel": 0,
      "note": 69,
      "start": 23.8639,
      "duration": 0.1126,
      "velocity": 107,
      "chip": "ym2612"
    },
    {
      "channel": 3,
      "note": 69,
      "start": 23.931,
      "duration": 0.1123,
      "velocity": 103,
      "chip": "ym2612"
    },
    {
      "channel": 0,
      "note": 69,
      "start": 23.9977,
      "duration": 0.1288,
      "velocity": 107,
      "chip": "ym2612"
    },
    {
      "channel": 3,
      "note": 69,
      "start": 24.0807,
      "duration": 0.1126,
      "velocity": 107,
      "chip": "ym2612"
    },
    {
      "channel": 0,
      "note": 69,
      "start": 24.1475,
      "duration": 0.1123,
      "velocity": 97,
      "chip": "ym2612"
    },
    {
      "channel": 3,
      "note": 69,
      "start": 24.2147,
      "duration": 0.1286,
      "velocity": 107,
      "chip": "ym2612"
    },
    {
      "channel": 0,
      "note": 69,
      "start": 24.2974,
      "duration": 0.1125,
      "velocity": 107,
      "chip": "ym2612"
    },
    {
      "channel": 1,
      "note": 45,
      "start": 24.3001,
      "duration": 0.1099,
      "velocity": 107,
      "chip": "ym2612"
    },
    {
      "channel": 2,
      "note": 81,
      "start": 24.3027,
      "duration": 0.2576,
      "velocity": 104,
      "chip": "ym2612"
    },
    {
      "channel": 3,
      "note": 69,
      "start": 24.3645,
      "duration": 0.1122,
      "velocity": 85,
      "chip": "ym2612"
    },
    {
      "channel": 0,
      "note": 69,
      "start": 24.4311,
      "duration": 0.1288,
      "velocity": 107,
      "chip": "ym2612"
    },
    {
      "channel": 1,
      "note": 45,
      "start": 24.4338,
      "duration": 0.1263,
      "velocity": 107,
      "chip": "ym2612"
    },
    {
      "channel": 3,
      "note": 69,
      "start": 24.5144,
      "duration": 0.1124,
      "velocity": 107,
      "chip": "ym2612"
    },
    {
      "channel": 0,
      "note": 69,
      "start": 24.5807,
      "duration": 0.1125,
      "velocity": 103,
      "chip": "ym2612"
    },
    {
      "channel": 3,
      "note": 69,
      "start": 24.648,
      "duration": 0.1287,
      "velocity": 107,
      "chip": "ym2612"
    },
    {
      "channel": 0,
      "note": 69,
      "start": 24.7307,
      "duration": 0.1125,
      "velocity": 107,
      "chip": "ym2612"
    },
    {
      "channel": 2,
      "note": 81,
      "start": 24.7336,
      "duration": 0.11,
      "velocity": 104,
      "chip": "ym2612"
    },
    {
      "channel": 3,
      "note": 69,
      "start": 24.7977,
      "duration": 0.1123,
      "velocity": 103,
      "chip": "ym2612"
    },
    {
      "channel": 0,
      "note": 69,
      "start": 24.8642,
      "duration": 0.1291,
      "velocity": 97,
      "chip": "ym2612"
    },
    {
      "channel": 5,
      "note": 53,
      "start": 24.8676,
      "duration": 0.1259,
      "velocity": 125,
      "chip": "ym2612"
    },
    {
      "channel": 3,
      "note": 69,
      "start": 24.9477,
      "duration": 0.1123,
      "velocity": 107,
      "chip": "ym2612"
    },
    {
      "channel": 0,
      "note": 69,
      "start": 25.0143,
      "duration": 0.1122,
      "velocity": 107,
      "chip": "ym2612"
    },
    {
      "channel": 1,
      "note": 57,
      "start": 25.017,
      "duration": 0.1097,
      "velocity": 107,
      "chip": "ym2612"
    },
    {
      "channel": 3,
      "note": 69,
      "start": 25.0812,
      "duration": 0.1288,
      "velocity": 85,
      "chip": "ym2612"
    },
    {
      "channel": 0,
      "note": 69,
      "start": 25.164,
      "duration": 0.1125,
      "velocity": 107,
      "chip": "ym2612"
    },
    {
      "channel": 1,
      "note": 60,
      "start": 25.1666,
      "duration": 0.1101,
      "velocity": 107,
      "chip": "ym2612"
    },
    {
      "channel": 3,
      "note": 69,
      "start": 25.2313,
      "duration": 0.1121,
      "velocity": 107,
      "chip": "ym2612"
    },
    {
      "channel": 0,
      "note": 69,
      "start": 25.2976,
      "duration": 0.1289,
      "velocity": 107,
      "chip": "ym2612"
    },
    {
      "channel": 1,
      "note": 57,
      "start": 25.3001,
      "duration": 0.1265,
      "velocity": 107,
      "chip": "ym2612"
    },
    {
      "channel": 3,
      "note": 69,
      "start": 25.381,
      "duration": 0.1124,
      "velocity": 107,
      "chip": "ym2612"
    },
    {
      "channel": 0,
      "note": 69,
      "start": 25.4478,
      "duration": 0.1122,
      "velocity": 107,
      "chip": "ym2612"
    },
    {
      "channel": 1,
      "note": 45,
      "start": 25.4505,
      "duration": 0.1095,
      "velocity": 107,
      "chip": "ym2612"
    },
    {
      "channel": 2,
      "note": 81,
      "start": 25.4561,
      "duration": 0.5208,
      "velocity": 104,
      "chip": "ym2612"
    },
    {
      "channel": 3,
      "note": 69,
      "start": 25.5144,
      "duration": 0.1289,
      "velocity": 107,
      "chip": "ym2612"
    },
    {
      "channel": 0,
      "note": 69,
      "start": 25.5974,
      "duration": 0.1125,
      "velocity": 107,
      "chip": "ym2612"
    },
    {
      "channel": 3,
      "note": 69,
      "start": 25.6648,
      "duration": 0.1118,
      "velocity": 107,
      "chip": "ym2612"
    },
    {
      "channel": 0,
      "note": 69,
      "start": 25.7308,
      "duration": 0.1291,
      "velocity": 107,
      "chip": "ym2612"
    },
    {
      "channel": 1,
      "note": 45,
      "start": 25.7336,
      "duration": 0.1265,
      "velocity": 107,
      "chip": "ym2612"
    },
    {
      "channel": 3,
      "note": 69,
      "start": 25.8144,
      "duration": 0.1124,
      "velocity": 107,
      "chip": "ym2612"
    },
    {
      "channel": 0,
      "note": 69,
      "start": 25.8811,
      "duration": 0.1121,
      "velocity": 107,
      "chip": "ym2612"
    },
    {
      "channel": 3,
      "note": 69,
      "start": 25.9477,
      "duration": 0.1288,
      "velocity": 107,
      "chip": "ym2612"
    },
    {
      "channel": 0,
      "note": 69,
      "start": 26.0307,
      "duration": 0.1125,
      "velocity": 107,
      "chip": "ym2612"
    },
    {
      "channel": 5,
      "note": 53,
      "start": 26.0339,
      "duration": 0.1762,
      "velocity": 125,
      "chip": "ym2612"
    },
    {
      "channel": 3,
      "note": 69,
      "start": 26.098,
      "duration": 0.112,
      "velocity": 107,
      "chip": "ym2612"
    },
    {
      "channel": 0,
      "note": 69,
      "start": 26.1641,
      "duration": 0.1291,
      "velocity": 107,
      "chip": "ym2612"
    },
    {
      "channel": 3,
      "note": 69,
      "start": 26.2477,
      "duration": 0.1122,
      "velocity": 107,
      "chip": "ym2612"
    },
    {
      "channel": 0,
      "note": 69,
      "start": 26.3144,
      "duration": 0.1121,
      "velocity": 107,
      "chip": "ym2612"
    },
    {
      "channel": 3,
      "note": 69,
      "start": 26.381,
      "duration": 0.129,
      "velocity": 107,
      "chip": "ym2612"
    },
    {
      "channel": 0,
      "note": 69,
      "start": 26.464,
      "duration": 0.1126,
      "velocity": 107,
      "chip": "ym2612"
    },
    {
      "channel": 3,
      "note": 69,
      "start": 26.5315,
      "duration": 0.1118,
      "velocity": 107,
      "chip": "ym2612"
    },
    {
      "channel": 0,
      "note": 69,
      "start": 26.5976,
      "duration": 0.1291,
      "velocity": 103,
      "chip": "ym2612"
    },
    {
      "channel": 1,
      "note": 45,
      "start": 26.6002,
      "duration": 0.1265,
      "velocity": 107,
      "chip": "ym2612"
    },
    {
      "channel": 2,
      "note": 81,
      "start": 26.6028,
      "duration": 0.2575,
      "velocity": 104,
      "chip": "ym2612"
    },
    {
      "channel": 3,
      "note": 69,
      "start": 26.6811,
      "duration": 0.1124,
      "velocity": 107,
      "chip": "ym2612"
    },
    {
      "channel": 0,
      "note": 69,
      "start": 26.7476,
      "duration": 0.1123,
      "velocity": 107,
      "chip": "ym2612"
    },
    {
      "channel": 1,
      "note": 45,
      "start": 26.7507,
      "duration": 0.1094,
      "velocity": 107,
      "chip": "ym2612"
    },
    {
      "channel": 3,
      "note": 69,
      "start": 26.8311,
      "duration": 0.1122,
      "velocity": 103,
      "chip": "ym2612"
    },
    {
      "channel": 0,
      "note": 69,
      "start": 26.8974,
      "duration": 0.1125,
      "velocity": 103,
      "chip": "ym2612"
    },
    {
      "channel": 3,
      "note": 69,
      "start": 26.9645,
      "duration": 0.1121,
      "velocity": 107,
      "chip": "ym2612"
    },
    {
      "channel": 0,
      "note": 69,
      "start": 27.0472,
      "duration": 0.1127,
      "velocity": 107,
      "chip": "ym2612"
    },
    {
      "channel": 2,
      "note": 81,
      "start": 27.0501,
      "duration": 0.1102,
      "velocity": 104,
      "chip": "ym2612"
    },
    {
      "channel": 3,
      "note": 69,
      "start": 27.1144,
      "duration": 0.1123,
      "velocity": 103,
      "chip": "ym2612"
    },
    {
      "channel": 0,
      "note": 69,
      "start": 27.1807,
      "duration": 0.1125,
      "velocity": 107,
      "chip": "ym2612"
    },
    {
      "channel": 5,
      "note": 53,
      "start": 27.1841,
      "duration": 0.1095,
      "velocity": 125,
      "chip": "ym2612"
    },
    {
      "channel": 3,
      "note": 69,
      "start": 27.2642,
      "duration": 0.1125,
      "velocity": 107,
      "chip": "ym2612"
    },
    {
      "channel": 0,
      "note": 69,
      "start": 27.3311,
      "duration": 0.1121,
      "velocity": 97,
      "chip": "ym2612"
    },
    {
      "channel": 3,
      "note": 69,
      "start": 27.3977,
      "duration": 0.1124,
      "velocity": 107,
      "chip": "ym2612"
    },
    {
      "channel": 0,
      "note": 69,
      "start": 27.4807,
      "duration": 0.1125,
      "velocity": 107,
      "chip": "ym2612"
    },
    {
      "channel": 3,
      "note": 69,
      "start": 27.5483,
      "duration": 0.1117,
      "velocity": 85,
      "chip": "ym2612"
    },
    {
      "channel": 0,
      "note": 69,
      "start": 27.614,
      "duration": 0.1126,
      "velocity": 107,
      "chip": "ym2612"
    },
    {
      "channel": 3,
      "note": 69,
      "start": 27.6976,
      "duration": 0.1125,
      "velocity": 107,
      "chip": "ym2612"
    },
    {
      "channel": 0,
      "note": 69,
      "start": 27.7673,
      "duration": 0.1093,
      "velocity": 107,
      "chip": "ym2612"
    },
    {
      "channel": 1,
      "note": 45,
      "start": 27.771,
      "duration": 0.1057,
      "velocity": 107,
      "chip": "ym2612"
    },
    {
      "channel": 2,
      "note": 81,
      "start": 27.7768,
      "duration": 0.5168,
      "velocity": 104,
      "chip": "ym2612"
    },
    {
      "channel": 0,
      "note": 69,
      "start": 27.9141,
      "duration": 0.1125,
      "velocity": 107,
      "chip": "ym2612"
    },
    {
      "channel": 3,
      "note": 69,
      "start": 27.9829,
      "duration": 0.1104,
      "velocity": 107,
      "chip": "ym2612"
    },
    {
      "channel": 0,
      "note": 69,
      "start": 28.0474,
      "duration": 0.1125,
      "velocity": 107,
      "chip": "ym2612"
    },
    {
      "channel": 1,
      "note": 45,
      "start": 28.0503,
      "duration": 0.2597,
      "velocity": 107,
      "chip": "ym2612"
    },
    {
      "channel": 3,
      "note": 69,
      "start": 28.131,
      "duration": 0.1124,
      "velocity": 107,
      "chip": "ym2612"
    },
    {
      "channel": 0,
      "note": 69,
      "start": 28.1978,
      "duration": 0.1121,
      "velocity": 107,
      "chip": "ym2612"
    },
    {
      "channel": 3,
      "note": 69,
      "start": 28.2644,
      "duration": 0.129,
      "velocity": 107,
      "chip": "ym2612"
    },
    {
      "channel": 0,
      "note": 69,
      "start": 28.3474,
      "duration": 0.1124,
      "velocity": 103,
      "chip": "ym2612"
    },
    {
      "channel": 5,
      "note": 53,
      "start": 28.3507,
      "duration": 0.1762,
      "velocity": 125,
      "chip": "ym2612"
    },
    {
      "channel": 3,
      "note": 69,
      "start": 28.4147,
      "duration": 0.112,
      "velocity": 107,
      "chip": "ym2612"
    },
    {
      "channel": 0,
      "note": 69,
      "start": 28.4805,
      "duration": 0.1293,
      "velocity": 107,
      "chip": "ym2612"
    },
    {
      "channel": 3,
      "note": 69,
      "start": 28.5644,
      "duration": 0.1122,
      "velocity": 103,
      "chip": "ym2612"
    },
    {
      "channel": 0,
      "note": 69,
      "start": 28.6311,
      "duration": 0.112,
      "velocity": 107,
      "chip": "ym2612"
    },
    {
      "channel": 3,
      "note": 69,
      "start": 28.6974,
      "duration": 0.1292,
      "velocity": 107,
      "chip": "ym2612"
    },
    {
      "channel": 0,
      "note": 69,
      "start": 28.7808,
      "duration": 0.1125,
      "velocity": 97,
      "chip": "ym2612"
    },
    {
      "channel": 3,
      "note": 69,
      "start": 28.8481,
      "duration": 0.1119,
      "velocity": 107,
      "chip": "ym2612"
    },
    {
      "channel": 0,
      "note": 69,
      "start": 28.9142,
      "duration": 0.129,
      "velocity": 107,
      "chip": "ym2612"
    },
    {
      "channel": 1,
      "note": 45,
      "start": 28.9171,
      "duration": 0.1263,
      "velocity": 107,
      "chip": "ym2612"
    },
    {
      "channel": 2,
      "note": 81,
      "start": 28.9197,
      "duration": 0.2573,
      "velocity": 104,
      "chip": "ym2612"
    },
    {
      "channel": 3,
      "note": 69,
      "start": 28.9979,
      "duration": 0.1121,
      "velocity": 85,
      "chip": "ym2612"
    },
    {
      "channel": 0,
      "note": 69,
      "start": 29.0646,
      "duration": 0.112,
      "velocity": 107,
      "chip": "ym2612"
    },
    {
      "channel": 1,
      "note": 45,
      "start": 29.0673,
      "duration": 0.1094,
      "velocity": 107,
      "chip": "ym2612"
    },
    {
      "channel": 3,
      "note": 69,
      "start": 29.1311,
      "duration": 0.1289,
      "velocity": 107,
      "chip": "ym2612"
    },
    {
      "channel": 0,
      "note": 69,
      "start": 29.214,
      "duration": 0.1126,
      "velocity": 103,
      "chip": "ym2612"
    },
    {
      "channel": 3,
      "note": 69,
      "start": 29.2815,
      "duration": 0.1118,
      "velocity": 107,
      "chip": "ym2612"
    },
    {
      "channel": 0,
      "note": 69,
      "start": 29.3474,
      "duration": 0.1292,
      "velocity": 107,
      "chip": "ym2612"
    },
    {
      "channel": 2,
      "note": 81,
      "start": 29.3503,
      "duration": 0.1266,
      "velocity": 104,
      "chip": "ym2612"
    },
    {
      "channel": 3,
      "note": 69,
      "start": 29.431,
      "duration": 0.1123,
      "velocity": 103,
      "chip": "ym2612"
    },
    {
      "channel": 0,
      "note": 69,
      "start": 29.4976,
      "duration": 0.1123,
      "velocity": 97,
      "chip": "ym2612"
    },
    {
      "channel": 5,
      "note": 53,
      "start": 29.5009,
      "duration": 0.1093,
      "velocity": 125,
      "chip": "ym2612"
    },
    {
      "channel": 3,
      "note": 69,
      "start": 29.5644,
      "duration": 0.129,
      "velocity": 107,
      "chip": "ym2612"
    },
    {
      "channel": 0,
      "note": 69,
      "start": 29.6476,
      "duration": 0.1124,
      "velocity": 107,
      "chip": "ym2612"
    },
    {
      "channel": 1,
      "note": 57,
      "start": 29.6503,
      "duration": 0.1098,
      "velocity": 107,
      "chip": "ym2612"
    },
    {
      "channel": 3,
      "note": 69,
      "start": 29.7145,
      "duration": 0.1123,
      "velocity": 85,
      "chip": "ym2612"
    },
    {
      "channel": 0,
      "note": 69,
      "start": 29.7807,
      "duration": 0.1291,
      "velocity": 107,
      "chip": "ym2612"
    },
    {
      "channel": 1,
      "note": 60,
      "start": 29.7833,
      "duration": 0.1267,
      "velocity": 107,
      "chip": "ym2612"
    },
    {
      "channel": 3,
      "note": 69,
      "start": 29.8646,
      "duration": 0.1121,
      "velocity": 107,
      "chip": "ym2612"
    },
    {
      "channel": 0,
      "note": 69,
      "start": 29.9309,
      "duration": 0.1123,
      "velocity": 107,
      "chip": "ym2612"
    },
    {
      "channel": 1,
      "note": 57,
      "start": 29.9334,
      "duration": 0.1099,
      "velocity": 107,
      "chip": "ym2612"
    },
    {
      "channel": 3,
      "note": 69,
      "start": 29.9978,
      "duration": 0.1288,
      "velocity": 107,
      "chip": "ym2612"
    },
    {
      "channel": 0,
      "note": 69,
      "start": 30.0811,
      "duration": 0.1121,
      "velocity": 107,
      "chip": "ym2612"
    },
    {
      "channel": 1,
      "note": 45,
      "start": 30.0842,
      "duration": 0.1091,
      "velocity": 107,
      "chip": "ym2612"
    },
    {
      "channel": 2,
      "note": 81,
      "start": 30.0897,
      "duration": 0.5205,
      "velocity": 104,
      "chip": "ym2612"
    },
    {
      "channel": 3,
      "note": 69,
      "start": 30.1477,
      "duration": 0.1124,
      "velocity": 107,
      "chip": "ym2612"
    },
    {
      "channel": 0,
      "note": 69,
      "start": 30.2141,
      "duration": 0.1292,
      "velocity": 107,
      "chip": "ym2612"
    },
    {
      "channel": 3,
      "note": 69,
      "start": 30.2982,
      "duration": 0.1119,
      "velocity": 107,
      "chip": "ym2612"
    },
    {
      "channel": 0,
      "note": 69,
      "start": 30.3642,
      "duration": 0.1124,
      "velocity": 107,
      "chip": "ym2612"
    },
    {
      "channel": 1,
      "note": 45,
      "start": 30.367,
      "duration": 0.1098,
      "velocity": 107,
      "chip": "ym2612"
    },
    {
      "channel": 3,
      "note": 69,
      "start": 30.4311,
      "duration": 0.129,
      "velocity": 107,
      "chip": "ym2612"
    },
    {
      "channel": 0,
      "note": 69,
      "start": 30.5145,
      "duration": 0.1122,
      "velocity": 107,
      "chip": "ym2612"
    },
    {
      "channel": 3,
      "note": 69,
      "start": 30.5811,
      "duration": 0.1122,
      "velocity": 107,
      "chip": "ym2612"
    },
    {
      "channel": 0,
      "note": 69,
      "start": 30.6476,
      "duration": 0.129,
      "velocity": 107,
      "chip": "ym2612"
    },
    {
      "channel": 5,
      "note": 53,
      "start": 30.6508,
      "duration": 0.1927,
      "velocity": 125,
      "chip": "ym2612"
    },
    {
      "channel": 3,
      "note": 69,
      "start": 30.7314,
      "duration": 0.112,
      "velocity": 107,
      "chip": "ym2612"
    },
    {
      "channel": 0,
      "note": 69,
      "start": 30.7975,
      "duration": 0.1123,
      "velocity": 107,
      "chip": "ym2612"
    },
    {
      "channel": 3,
      "note": 69,
      "start": 30.8644,
      "duration": 0.1289,
      "velocity": 107,
      "chip": "ym2612"
    },
    {
      "channel": 0,
      "note": 69,
      "start": 30.9477,
      "duration": 0.1122,
      "velocity": 107,
      "chip": "ym2612"
    },
    {
      "channel": 3,
      "note": 69,
      "start": 31.0143,
      "duration": 0.1124,
      "velocity": 107,
      "chip": "ym2612"
    },
    {
      "channel": 0,
      "note": 69,
      "start": 31.0974,
      "duration": 0.1125,
      "velocity": 107,
      "chip": "ym2612"
    },
    {
      "channel": 3,
      "note": 69,
      "start": 31.1647,
      "duration": 0.112,
      "velocity": 107,
      "chip": "ym2612"
    },
    {
      "channel": 0,
      "note": 69,
      "start": 31.2308,
      "duration": 0.1123,
      "velocity": 103,
      "chip": "ym2612"
    },
    {
      "channel": 1,
      "note": 45,
      "start": 31.2335,
      "duration": 0.1099,
      "velocity": 107,
      "chip": "ym2612"
    },
    {
      "channel": 2,
      "note": 81,
      "start": 31.2361,
      "duration": 0.2575,
      "velocity": 104,
      "chip": "ym2612"
    },
    {
      "channel": 3,
      "note": 69,
      "start": 31.3144,
      "duration": 0.1123,
      "velocity": 107,
      "chip": "ym2612"
    },
    {
      "channel": 0,
      "note": 69,
      "start": 31.381,
      "duration": 0.1123,
      "velocity": 107,
      "chip": "ym2612"
    },
    {
      "channel": 1,
      "note": 45,
      "start": 31.3837,
      "duration": 0.1097,
      "velocity": 107,
      "chip": "ym2612"
    },
    {
      "channel": 3,
      "note": 69,
      "start": 31.4478,
      "duration": 0.1122,
      "velocity": 103,
      "chip": "ym2612"
    },
    {
      "channel": 0,
      "note": 69,
      "start": 31.5307,
      "duration": 0.1124,
      "velocity": 103,
      "chip": "ym2612"
    },
    {
      "channel": 3,
      "note": 69,
      "start": 31.5979,
      "duration": 0.112,
      "velocity": 107,
      "chip": "ym2612"
    },
    {
      "channel": 0,
      "note": 69,
      "start": 31.664,
      "duration": 0.1125,
      "velocity": 107,
      "chip": "ym2612"
    },
    {
      "channel": 2,
      "note": 81,
      "start": 31.6668,
      "duration": 0.11,
      "velocity": 104,
      "chip": "ym2612"
    },
    {
      "channel": 3,
      "note": 69,
      "start": 31.7477,
      "duration": 0.1123,
      "velocity": 103,
      "chip": "ym2612"
    },
    {
      "channel": 0,
      "note": 69,
      "start": 31.814,
      "duration": 0.1125,
      "velocity": 107,
      "chip": "ym2612"
    },
    {
      "channel": 5,
      "note": 53,
      "start": 31.8173,
      "duration": 0.1095,
      "velocity": 125,
      "chip": "ym2612"
    },
    {
      "channel": 3,
      "note": 69,
      "start": 31.8809,
      "duration": 0.1125,
      "velocity": 107,
      "chip": "ym2612"
    },
    {
      "channel": 0,
      "note": 69,
      "start": 31.9645,
      "duration": 0.112,
      "velocity": 97,
      "chip": "ym2612"
    },
    {
      "channel": 3,
      "note": 69,
      "start": 32.031,
      "duration": 0.1123,
      "velocity": 107,
      "chip": "ym2612"
    },
    {
      "channel": 0,
      "note": 69,
      "start": 32.0974,
      "duration": 0.1125,
      "velocity": 107,
      "chip": "ym2612"
    },
    {
      "channel": 3,
      "note": 69,
      "start": 32.1815,
      "duration": 0.1118,
      "velocity": 85,
      "chip": "ym2612"
    },
    {
      "channel": 0,
      "note": 69,
      "start": 32.2472,
      "duration": 0.1127,
      "velocity": 107,
      "chip": "ym2612"
    },
    {
      "channel": 3,
      "note": 69,
      "start": 32.3144,
      "duration": 0.1123,
      "velocity": 107,
      "chip": "ym2612"
    },
    {
      "channel": 0,
      "note": 69,
      "start": 32.4006,
      "duration": 0.1093,
      "velocity": 107,
      "chip": "ym2612"
    },
    {
      "channel": 1,
      "note": 45,
      "start": 32.4042,
      "duration": 0.1058,
      "velocity": 107,
      "chip": "ym2612"
    },
    {
      "channel": 2,
      "note": 81,
      "start": 32.41,
      "duration": 0.5002,
      "velocity": 104,
      "chip": "ym2612"
    },
    {
      "channel": 0,
      "note": 69,
      "start": 32.5307,
      "duration": 0.1292,
      "velocity": 107,
      "chip": "ym2612"
    },
    {
      "channel": 3,
      "note": 69,
      "start": 32.6163,
      "duration": 0.1104,
      "velocity": 107,
      "chip": "ym2612"
    },
    {
      "channel": 0,
      "note": 69,
      "start": 32.6808,
      "duration": 0.1123,
      "velocity": 107,
      "chip": "ym2612"
    },
    {
      "channel": 1,
      "note": 45,
      "start": 32.6835,
      "duration": 0.1099,
      "velocity": 107,
      "chip": "ym2612"
    },
    {
      "channel": 3,
      "note": 69,
      "start": 32.7477,
      "duration": 0.129,
      "velocity": 107,
      "chip": "ym2612"
    },
    {
      "channel": 0,
      "note": 69,
      "start": 32.8311,
      "duration": 0.1122,
      "velocity": 107,
      "chip": "ym2612"
    },
    {
      "channel": 3,
      "note": 69,
      "start": 32.8978,
      "duration": 0.1122,
      "velocity": 107,
      "chip": "ym2612"
    },
    {
      "channel": 0,
      "note": 69,
      "start": 32.9642,
      "duration": 0.129,
      "velocity": 103,
      "chip": "ym2612"
    },
    {
      "channel": 5,
      "note": 53,
      "start": 32.9675,
      "duration": 0.1927,
      "velocity": 125,
      "chip": "ym2612"
    },
    {
      "channel": 3,
      "note": 69,
      "start": 33.048,
      "duration": 0.1119,
      "velocity": 107,
      "chip": "ym2612"
    },
    {
      "channel": 0,
      "note": 69,
      "start": 33.114,
      "duration": 0.1125,
      "velocity": 107,
      "chip": "ym2612"
    },
    {
      "channel": 3,
      "note": 69,
      "start": 33.181,
      "duration": 0.1289,
      "velocity": 103,
      "chip": "ym2612"
    },
    {
      "channel": 0,
      "note": 69,
      "start": 33.2645,
      "duration": 0.112,
      "velocity": 107,
      "chip": "ym2612"
    },
    {
      "channel": 3,
      "note": 69,
      "start": 33.3308,
      "duration": 0.1125,
      "velocity": 107,
      "chip": "ym2612"
    },
    {
      "channel": 0,
      "note": 69,
      "start": 33.3974,
      "duration": 0.1292,
      "velocity": 97,
      "chip": "ym2612"
    },
    {
      "channel": 3,
      "note": 69,
      "start": 33.4815,
      "duration": 0.112,
      "velocity": 107,
      "chip": "ym2612"
    },
    {
      "channel": 0,
      "note": 69,
      "start": 33.5476,
      "duration": 0.1124,
      "velocity": 107,
      "chip": "ym2612"
    },
    {
      "channel": 1,
      "note": 45,
      "start": 33.5503,
      "duration": 0.1098,
      "velocity": 107,
      "chip": "ym2612"
    },
    {
      "channel": 2,
      "note": 81,
      "start": 33.5529,
      "duration": 0.2574,
      "velocity": 104,
      "chip": "ym2612"
    },
    {
      "channel": 3,
      "note": 69,
      "start": 33.6145,
      "duration": 0.1289,
      "velocity": 85,
      "chip": "ym2612"
    },
    {
      "channel": 0,
      "note": 69,
      "start": 33.6978,
      "duration": 0.1121,
      "velocity": 107,
      "chip": "ym2612"
    },
    {
      "channel": 1,
      "note": 45,
      "start": 33.7005,
      "duration": 0.1095,
      "velocity": 107,
      "chip": "ym2612"
    },
    {
      "channel": 3,
      "note": 69,
      "start": 33.7645,
      "duration": 0.1122,
      "velocity": 107,
      "chip": "ym2612"
    },
    {
      "channel": 0,
      "note": 69,
      "start": 33.8307,
      "duration": 0.1292,
      "velocity": 103,
      "chip": "ym2612"
    },
    {
      "channel": 3,
      "note": 69,
      "start": 33.9148,
      "duration": 0.1119,
      "velocity": 107,
      "chip": "ym2612"
    },
    {
      "channel": 0,
      "note": 69,
      "start": 33.9808,
      "duration": 0.1123,
      "velocity": 107,
      "chip": "ym2612"
    },
    {
      "channel": 2,
      "note": 81,
      "start": 33.9836,
      "duration": 0.1098,
      "velocity": 104,
      "chip": "ym2612"
    },
    {
      "channel": 3,
      "note": 69,
      "start": 34.0478,
      "duration": 0.129,
      "velocity": 103,
      "chip": "ym2612"
    },
    {
      "channel": 0,
      "note": 69,
      "start": 34.1308,
      "duration": 0.1125,
      "velocity": 97,
      "chip": "ym2612"
    },
    {
      "channel": 5,
      "note": 53,
      "start": 34.1341,
      "duration": 0.1094,
      "velocity": 125,
      "chip": "ym2612"
    },
    {
      "channel": 3,
      "note": 69,
      "start": 34.1977,
      "duration": 0.1122,
      "velocity": 107,
      "chip": "ym2612"
    },
    {
      "channel": 0,
      "note": 69,
      "start": 34.2643,
      "duration": 0.1289,
      "velocity": 107,
      "chip": "ym2612"
    },
    {
      "channel": 1,
      "note": 57,
      "start": 34.2674,
      "duration": 0.126,
      "velocity": 107,
      "chip": "ym2612"
    },
    {
      "channel": 3,
      "note": 69,
      "start": 34.3477,
      "duration": 0.1124,
      "velocity": 85,
      "chip": "ym2612"
    },
    {
      "channel": 0,
      "note": 69,
      "start": 34.414,
      "duration": 0.1126,
      "velocity": 107,
      "chip": "ym2612"
    },
    {
      "channel": 1,
      "note": 60,
      "start": 34.4166,
      "duration": 0.1102,
      "velocity": 107,
      "chip": "ym2612"
    },
    {
      "channel": 3,
      "note": 69,
      "start": 34.4812,
      "duration": 0.1288,
      "velocity": 107,
      "chip": "ym2612"
    },
    {
      "channel": 0,
      "note": 69,
      "start": 34.564,
      "duration": 0.1125,
      "velocity": 107,
      "chip": "ym2612"
    },
    {
      "channel": 1,
      "note": 57,
      "start": 34.5666,
      "duration": 0.1101,
      "velocity": 107,
      "chip": "ym2612"
    },
    {
      "channel": 3,
      "note": 69,
      "start": 34.6311,
      "duration": 0.1122,
      "velocity": 107,
      "chip": "ym2612"
    },
    {
      "channel": 0,
      "note": 69,
      "start": 34.6979,
      "duration": 0.1286,
      "velocity": 107,
      "chip": "ym2612"
    },
    {
      "channel": 1,
      "note": 45,
      "start": 34.7006,
      "duration": 0.126,
      "velocity": 107,
      "chip": "ym2612"
    },
    {
      "channel": 2,
      "note": 81,
      "start": 34.704,
      "duration": 0.5228,
      "velocity": 104,
      "chip": "ym2612"
    },
    {
      "channel": 3,
      "note": 69,
      "start": 34.781,
      "duration": 0.1123,
      "velocity": 107,
      "chip": "ym2612"
    },
    {
      "channel": 0,
      "note": 69,
      "start": 34.8474,
      "duration": 0.1124,
      "velocity": 107,
      "chip": "ym2612"
    },
    {
      "channel": 3,
      "note": 69,
      "start": 34.9148,
      "duration": 0.1285,
      "velocity": 107,
      "chip": "ym2612"
    },
    {
      "channel": 0,
      "note": 69,
      "start": 34.9974,
      "duration": 0.1125,
      "velocity": 107,
      "chip": "ym2612"
    },
    {
      "channel": 1,
      "note": 45,
      "start": 35.0001,
      "duration": 0.1099,
      "velocity": 107,
      "chip": "ym2612"
    },
    {
      "channel": 3,
      "note": 69,
      "start": 35.0645,
      "duration": 0.1122,
      "velocity": 107,
      "chip": "ym2612"
    },
    {
      "channel": 0,
      "note": 69,
      "start": 35.1313,
      "duration": 0.1287,
      "velocity": 107,
      "chip": "ym2612"
    },
    {
      "channel": 3,
      "note": 69,
      "start": 35.2144,
      "duration": 0.1124,
      "velocity": 107,
      "chip": "ym2612"
    },
    {
      "channel": 0,
      "note": 69,
      "start": 35.2808,
      "duration": 0.1124,
      "velocity": 107,
      "chip": "ym2612"
    },
    {
      "channel": 5,
      "note": 53,
      "start": 35.2841,
      "duration": 0.1926,
      "velocity": 125,
      "chip": "ym2612"
    },
    {
      "channel": 3,
      "note": 69,
      "start": 35.3649,
      "duration": 0.1117,
      "velocity": 107,
      "chip": "ym2612"
    },
    {
      "channel": 0,
      "note": 69,
      "start": 35.4307,
      "duration": 0.1124,
      "velocity": 107,
      "chip": "ym2612"
    },
    {
      "channel": 3,
      "note": 69,
      "start": 35.4977,
      "duration": 0.1122,
      "velocity": 107,
      "chip": "ym2612"
    },
    {
      "channel": 0,
      "note": 69,
      "start": 35.5811,
      "duration": 0.112,
      "velocity": 107,
      "chip": "ym2612"
    },
    {
      "channel": 3,
      "note": 69,
      "start": 35.6476,
      "duration": 0.1124,
      "velocity": 107,
      "chip": "ym2612"
    },
    {
      "channel": 0,
      "note": 69,
      "start": 35.7141,
      "duration": 0.1125,
      "velocity": 107,
      "chip": "ym2612"
    },
    {
      "channel": 3,
      "note": 69,
      "start": 35.7981,
      "duration": 0.1119,
      "velocity": 107,
      "chip": "ym2612"
    },
    {
      "channel": 0,
      "note": 69,
      "start": 35.8641,
      "duration": 0.1125,
      "velocity": 103,
      "chip": "ym2612"
    },
    {
      "channel": 1,
      "note": 45,
      "start": 35.8668,
      "duration": 0.1099,
      "velocity": 107,
      "chip": "ym2612"
    },
    {
      "channel": 2,
      "note": 81,
      "start": 35.8694,
      "duration": 0.3742,
      "velocity": 104,
      "chip": "ym2612"
    },
    {
      "channel": 3,
      "note": 69,
      "start": 35.9311,
      "duration": 0.1122,
      "velocity": 107,
      "chip": "ym2612"
    },
    {
      "channel": 0,
      "note": 69,
      "start": 36.0143,
      "duration": 0.1122,
      "velocity": 107,
      "chip": "ym2612"
    },
    {
      "channel": 1,
      "note": 45,
      "start": 36.017,
      "duration": 0.1097,
      "velocity": 107,
      "chip": "ym2612"
    },
    {
      "channel": 3,
      "note": 69,
      "start": 36.0811,
      "duration": 0.1124,
      "velocity": 103,
      "chip": "ym2612"
    },
    {
      "channel": 0,
      "note": 69,
      "start": 36.1476,
      "duration": 0.1123,
      "velocity": 103,
      "chip": "ym2612"
    },
    {
      "channel": 3,
      "note": 69,
      "start": 36.2313,
      "duration": 0.1122,
      "velocity": 107,
      "chip": "ym2612"
    },
    {
      "channel": 0,
      "note": 69,
      "start": 36.2972,
      "duration": 0.1128,
      "velocity": 107,
      "chip": "ym2612"
    },
    {
      "channel": 2,
      "note": 81,
      "start": 36.3,
      "duration": 0.1103,
      "velocity": 121,
      "chip": "ym2612"
    },
    {
      "channel": 3,
      "note": 69,
      "start": 36.3644,
      "duration": 0.1124,
      "velocity": 103,
      "chip": "ym2612"
    },
    {
      "channel": 0,
      "note": 69,
      "start": 36.4474,
      "duration": 0.1125,
      "velocity": 107,
      "chip": "ym2612"
    },
    {
      "channel": 5,
      "note": 53,
      "start": 36.4507,
      "duration": 0.1095,
      "velocity": 125,
      "chip": "ym2612"
    },
    {
      "channel": 3,
      "note": 69,
      "start": 36.5142,
      "duration": 0.1124,
      "velocity": 107,
      "chip": "ym2612"
    },
    {
      "channel": 0,
      "note": 69,
      "start": 36.5813,
      "duration": 0.1119,
      "velocity": 97,
      "chip": "ym2612"
    },
    {
      "channel": 1,
      "note": 52,
      "start": 36.584,
      "duration": 0.1093,
      "velocity": 107,
      "chip": "ym2612"
    },
    {
      "channel": 2,
      "note": 81,
      "start": 36.5865,
      "duration": 0.1071,
      "velocity": 121,
      "chip": "ym2612"
    },
    {
      "channel": 3,
      "note": 69,
      "start": 36.6644,
      "duration": 0.1124,
      "velocity": 107,
      "chip": "ym2612"
    },
    {
      "channel": 0,
      "note": 69,
      "start": 36.7307,
      "duration": 0.1125,
      "velocity": 107,
      "chip": "ym2612"
    },
    {
      "channel": 1,
      "note": 54,
      "start": 36.7333,
      "duration": 0.1101,
      "velocity": 107,
      "chip": "ym2612"
    },
    {
      "channel": 2,
      "note": 81,
      "start": 36.7358,
      "duration": 0.1079,
      "velocity": 121,
      "chip": "ym2612"
    },
    {
      "channel": 3,
      "note": 69,
      "start": 36.7982,
      "duration": 0.1286,
      "velocity": 85,
      "chip": "ym2612"
    },
    {
      "channel": 0,
      "note": 69,
      "start": 36.8805,
      "duration": 0.1128,
      "velocity": 107,
      "chip": "ym2612"
    },
    {
      "channel": 1,
      "note": 55,
      "start": 36.8836,
      "duration": 0.1099,
      "velocity": 107,
      "chip": "ym2612"
    },
    {
      "channel": 2,
      "note": 81,
      "start": 36.886,
      "duration": 0.1076,
      "velocity": 121,
      "chip": "ym2612"
    },
    {
      "channel": 3,
      "note": 69,
      "start": 36.9477,
      "duration": 0.1124,
      "velocity": 107,
      "chip": "ym2612"
    },
    {
      "channel": 0,
      "note": 69,
      "start": 37.0186,
      "duration": 0.1246,
      "velocity": 107,
      "chip": "ym2612"
    },
    {
      "channel": 1,
      "note": 45,
      "start": 37.0223,
      "duration": 0.1211,
      "velocity": 107,
      "chip": "ym2612"
    },
    {
      "channel": 2,
      "note": 81,
      "start": 37.0276,
      "duration": 0.5161,
      "velocity": 104,
      "chip": "ym2612"
    },
    {
      "channel": 0,
      "note": 68,
      "start": 37.1643,
      "duration": 0.1125,
      "velocity": 107,
      "chip": "ym2612"
    },
    {
      "channel": 3,
      "note": 69,
      "start": 37.2343,
      "duration": 0.1259,
      "velocity": 107,
      "chip": "ym2612"
    },
    {
      "channel": 0,
      "note": 67,
      "start": 37.3143,
      "duration": 0.1125,
      "velocity": 107,
      "chip": "ym2612"
    },
    {
      "channel": 1,
      "note": 45,
      "start": 37.317,
      "duration": 0.1099,
      "velocity": 107,
      "chip": "ym2612"
    },
    {
      "channel": 3,
      "note": 68,
      "start": 37.3813,
      "duration": 0.1122,
      "velocity": 107,
      "chip": "ym2612"
    },
    {
      "channel": 0,
      "note": 67,
      "start": 37.4481,
      "duration": 0.1286,
      "velocity": 107,
      "chip": "ym2612"
    },
    {
      "channel": 3,
      "note": 67,
      "start": 37.5313,
      "duration": 0.1121,
      "velocity": 107,
      "chip": "ym2612"
    },
    {
      "channel": 0,
      "note": 66,
      "start": 37.5977,
      "duration": 0.1124,
      "velocity": 103,
      "chip": "ym2612"
    },
    {
      "channel": 2,
      "note": 81,
      "start": 37.6009,
      "duration": 0.1095,
      "velocity": 121,
      "chip": "ym2612"
    },
    {
      "channel": 5,
      "note": 53,
      "start": 37.6039,
      "duration": 0.1898,
      "velocity": 125,
      "chip": "ym2612"
    },
    {
      "channel": 3,
      "note": 67,
      "start": 37.665,
      "duration": 0.1284,
      "velocity": 107,
      "chip": "ym2612"
    },
    {
      "channel": 0,
      "note": 65,
      "start": 37.7476,
      "duration": 0.1125,
      "velocity": 107,
      "chip": "ym2612"
    },
    {
      "channel": 2,
      "note": 81,
      "start": 37.7502,
      "duration": 0.1101,
      "velocity": 121,
      "chip": "ym2612"
    },
    {
      "channel": 3,
      "note": 66,
      "start": 37.8145,
      "duration": 0.1122,
      "velocity": 103,
      "chip": "ym2612"
    },
    {
      "channel": 0,
      "note": 64,
      "start": 37.8813,
      "duration": 0.1288,
      "velocity": 107,
      "chip": "ym2612"
    },
    {
      "channel": 2,
      "note": 81,
      "start": 37.884,
      "duration": 0.1264,
      "velocity": 121,
      "chip": "ym2612"
    },
    {
      "channel": 3,
      "note": 65,
      "start": 37.9644,
      "duration": 0.1124,
      "velocity": 107,
      "chip": "ym2612"
    },
    {
      "channel": 0,
      "note": 64,
      "start": 38.0311,
      "duration": 0.1123,
      "velocity": 97,
      "chip": "ym2612"
    },
    {
      "channel": 2,
      "note": 81,
      "start": 38.0337,
      "duration": 0.1099,
      "velocity": 121,
      "chip": "ym2612"
    },
    {
      "channel": 3,
      "note": 64,
      "start": 38.0984,
      "duration": 0.1285,
      "velocity": 107,
      "chip": "ym2612"
    },
    {
      "channel": 0,
      "note": 63,
      "start": 38.181,
      "duration": 0.1124,
      "velocity": 107,
      "chip": "ym2612"
    },
    {
      "channel": 1,
      "note": 45,
      "start": 38.1837,
      "duration": 0.1098,
      "velocity": 107,
      "chip": "ym2612"
    },
    {
      "channel": 2,
      "note": 81,
      "start": 38.1863,
      "duration": 0.3741,
      "velocity": 104,
      "chip": "ym2612"
    },
    {
      "channel": 3,
      "note": 64,
      "start": 38.2482,
      "duration": 0.112,
      "velocity": 85,
      "chip": "ym2612"
    },
    {
      "channel": 0,
      "note": 62,
      "start": 38.3147,
      "duration": 0.1288,
      "velocity": 107,
      "chip": "ym2612"
    },
    {
      "channel": 1,
      "note": 45,
      "start": 38.3175,
      "duration": 0.1261,
      "velocity": 107,
      "chip": "ym2612"
    },
    {
      "channel": 3,
      "note": 63,
      "start": 38.398,
      "duration": 0.1122,
      "velocity": 107,
      "chip": "ym2612"
    },
    {
      "channel": 0,
      "note": 61,
      "start": 38.4645,
      "duration": 0.1123,
      "velocity": 103,
      "chip": "ym2612"
    },
    {
      "channel": 3,
      "note": 62,
      "start": 38.5317,
      "duration": 0.1284,
      "velocity": 107,
      "chip": "ym2612"
    },
    {
      "channel": 0,
      "note": 60,
      "start": 38.6144,
      "duration": 0.1124,
      "velocity": 107,
      "chip": "ym2612"
    },
    {
      "channel": 1,
      "note": 45,
      "start": 38.617,
      "duration": 0.1099,
      "velocity": 107,
      "chip": "ym2612"
    },
    {
      "channel": 2,
      "note": 81,
      "start": 38.6199,
      "duration": 0.1073,
      "velocity": 104,
      "chip": "ym2612"
    },
    {
      "channel": 3,
      "note": 61,
      "start": 38.6813,
      "duration": 0.1123,
      "velocity": 103,
      "chip": "ym2612"
    },
    {
      "channel": 0,
      "note": 60,
      "start": 38.7478,
      "duration": 0.129,
      "velocity": 97,
      "chip": "ym2612"
    },
    {
      "channel": 5,
      "note": 53,
      "start": 38.7512,
      "duration": 0.1259,
      "velocity": 125,
      "chip": "ym2612"
    },
    {
      "channel": 3,
      "note": 60,
      "start": 38.8314,
      "duration": 0.112,
      "velocity": 107,
      "chip": "ym2612"
    },
    {
      "channel": 0,
      "note": 59,
      "start": 38.8979,
      "duration": 0.112,
      "velocity": 107,
      "chip": "ym2612"
    },
    {
      "channel": 1,
      "note": 57,
      "start": 38.9006,
      "duration": 0.1095,
      "velocity": 107,
      "chip": "ym2612"
    },
    {
      "channel": 2,
      "note": 81,
      "start": 38.9031,
      "duration": 0.1073,
      "velocity": 121,
      "chip": "ym2612"
    },
    {
      "channel": 3,
      "note": 60,
      "start": 38.9647,
      "duration": 0.1288,
      "velocity": 85,
      "chip": "ym2612"
    },
    {
      "channel": 0,
      "note": 58,
      "start": 39.0477,
      "duration": 0.1123,
      "velocity": 107,
      "chip": "ym2612"
    },
    {
      "channel": 1,
      "note": 60,
      "start": 39.0506,
      "duration": 0.1096,
      "velocity": 107,
      "chip": "ym2612"
    },
    {
      "channel": 2,
      "note": 81,
      "start": 39.0531,
      "duration": 0.1074,
      "velocity": 121,
      "chip": "ym2612"
    },
    {
      "channel": 3,
      "note": 59,
      "start": 39.1148,
      "duration": 0.112,
      "velocity": 107,
      "chip": "ym2612"
    },
    {
      "channel": 0,
      "note": 57,
      "start": 39.1811,
      "duration": 0.129,
      "velocity": 107,
      "chip": "ym2612"
    },
    {
      "channel": 1,
      "note": 57,
      "start": 39.1836,
      "duration": 0.1265,
      "velocity": 107,
      "chip": "ym2612"
    },
    {
      "channel": 2,
      "note": 81,
      "start": 39.1861,
      "duration": 0.1244,
      "velocity": 121,
      "chip": "ym2612"
    },
    {
      "channel": 3,
      "note": 58,
      "start": 39.2647,
      "duration": 0.1121,
      "velocity": 107,
      "chip": "ym2612"
    },
    {
      "channel": 0,
      "note": 57,
      "start": 39.3313,
      "duration": 0.112,
      "velocity": 107,
      "chip": "ym2612"
    },
    {
      "channel": 1,
      "note": 45,
      "start": 39.3341,
      "duration": 0.1095,
      "velocity": 107,
      "chip": "ym2612"
    },
    {
      "channel": 2,
      "note": 81,
      "start": 39.3392,
      "duration": 0.5212,
      "velocity": 104,
      "chip": "ym2612"
    },
    {
      "channel": 3,
      "note": 57,
      "start": 39.3979,
      "duration": 0.1289,
      "velocity": 107,
      "chip": "ym2612"
    },
    {
      "channel": 0,
      "note": 57,
      "start": 39.4809,
      "duration": 0.1126,
      "velocity": 107,
      "chip": "ym2612"
    },
    {
      "channel": 3,
      "note": 57,
      "start": 39.5483,
      "duration": 0.112,
      "velocity": 107,
      "chip": "ym2612"
    },
    {
      "channel": 0,
      "note": 57,
      "start": 39.631,
      "duration": 0.1125,
      "velocity": 107,
      "chip": "ym2612"
    },
    {
      "channel": 1,
      "note": 45,
      "start": 39.6338,
      "duration": 0.2431,
      "velocity": 107,
      "chip": "ym2612"
    },
    {
      "channel": 3,
      "note": 57,
      "start": 39.698,
      "duration": 0.1122,
      "velocity": 107,
      "chip": "ym2612"
    },
    {
      "channel": 0,
      "note": 57,
      "start": 39.7647,
      "duration": 0.112,
      "velocity": 107,
      "chip": "ym2612"
    },
    {
      "channel": 3,
      "note": 57,
      "start": 39.848,
      "duration": 0.1121,
      "velocity": 107,
      "chip": "ym2612"
    },
    {
      "channel": 0,
      "note": 57,
      "start": 39.9141,
      "duration": 0.1125,
      "velocity": 107,
      "chip": "ym2612"
    },
    {
      "channel": 2,
      "note": 81,
      "start": 39.917,
      "duration": 0.1101,
      "velocity": 121,
      "chip": "ym2612"
    },
    {
      "channel": 5,
      "note": 53,
      "start": 39.92,
      "duration": 0.1737,
      "velocity": 125,
      "chip": "ym2612"
    },
    {
      "channel": 3,
      "note": 57,
      "start": 39.9817,
      "duration": 0.1118,
      "velocity": 107,
      "chip": "ym2612"
    },
    {
      "channel": 0,
      "note": 57,
      "start": 40.0643,
      "duration": 0.1124,
      "velocity": 107,
      "chip": "ym2612"
    },
    {
      "channel": 2,
      "note": 81,
      "start": 40.067,
      "duration": 0.11,
      "velocity": 121,
      "chip": "ym2612"
    },
    {
      "channel": 3,
      "note": 57,
      "start": 40.1312,
      "duration": 0.1122,
      "velocity": 107,
      "chip": "ym2612"
    },
    {
      "channel": 0,
      "note": 57,
      "start": 40.1979,
      "duration": 0.112,
      "velocity": 107,
      "chip": "ym2612"
    },
    {
      "channel": 2,
      "note": 81,
      "start": 40.2006,
      "duration": 0.1097,
      "velocity": 121,
      "chip": "ym2612"
    },
    {
      "channel": 3,
      "note": 57,
      "start": 40.2811,
      "duration": 0.1123,
      "velocity": 107,
      "chip": "ym2612"
    },
    {
      "channel": 0,
      "note": 57,
      "start": 40.3476,
      "duration": 0.1125,
      "velocity": 107,
      "chip": "ym2612"
    },
    {
      "channel": 2,
      "note": 81,
      "start": 40.3506,
      "duration": 0.1097,
      "velocity": 121,
      "chip": "ym2612"
    },
    {
      "channel": 3,
      "note": 57,
      "start": 40.415,
      "duration": 0.1118,
      "velocity": 107,
      "chip": "ym2612"
    },
    {
      "channel": 0,
      "note": 57,
      "start": 40.4976,
      "duration": 0.1125,
      "velocity": 103,
      "chip": "ym2612"
    },
    {
      "channel": 1,
      "note": 45,
      "start": 40.5005,
      "duration": 0.1097,
      "velocity": 107,
      "chip": "ym2612"
    },
    {
      "channel": 2,
      "note": 81,
      "start": 40.5031,
      "duration": 0.3739,
      "velocity": 104,
      "chip": "ym2612"
    },
    {
      "channel": 3,
      "note": 57,
      "start": 40.5645,
      "duration": 0.1123,
      "velocity": 107,
      "chip": "ym2612"
    },
    {
      "channel": 0,
      "note": 57,
      "start": 40.6312,
      "duration": 0.1123,
      "velocity": 107,
      "chip": "ym2612"
    },
    {
      "channel": 1,
      "note": 45,
      "start": 40.6339,
      "duration": 0.1097,
      "velocity": 107,
      "chip": "ym2612"
    },
    {
      "channel": 3,
      "note": 57,
      "start": 40.7145,
      "duration": 0.1123,
      "velocity": 103,
      "chip": "ym2612"
    },
    {
      "channel": 0,
      "note": 57,
      "start": 40.781,
      "duration": 0.1125,
      "velocity": 103,
      "chip": "ym2612"
    },
    {
      "channel": 3,
      "note": 57,
      "start": 40.848,
      "duration": 0.1121,
      "velocity": 107,
      "chip": "ym2612"
    },
    {
      "channel": 0,
      "note": 57,
      "start": 40.9306,
      "duration": 0.1127,
      "velocity": 107,
      "chip": "ym2612"
    },
    {
      "channel": 2,
      "note": 81,
      "start": 40.9335,
      "duration": 0.1102,
      "velocity": 104,
      "chip": "ym2612"
    },
    {
      "channel": 3,
      "note": 57,
      "start": 40.9979,
      "duration": 0.1123,
      "velocity": 103,
      "chip": "ym2612"
    },
    {
      "channel": 0,
      "note": 57,
      "start": 41.0644,
      "duration": 0.1291,
      "velocity": 107,
      "chip": "ym2612"
    },
    {
      "channel": 5,
      "note": 53,
      "start": 41.0677,
      "duration": 0.126,
      "velocity": 125,
      "chip": "ym2612"
    },
    {
      "channel": 3,
      "note": 57,
      "start": 41.1477,
      "duration": 0.1124,
      "velocity": 107,
      "chip": "ym2612"
    },
    {
      "channel": 0,
      "note": 57,
      "start": 41.2149,
      "duration": 0.1118,
      "velocity": 97,
      "chip": "ym2612"
    },
    {
      "channel": 1,
      "note": 52,
      "start": 41.2175,
      "duration": 0.1093,
      "velocity": 107,
      "chip": "ym2612"
    },
    {
      "channel": 2,
      "note": 81,
      "start": 41.22,
      "duration": 0.1071,
      "velocity": 121,
      "chip": "ym2612"
    },
    {
      "channel": 3,
      "note": 57,
      "start": 41.2812,
      "duration": 0.129,
      "velocity": 107,
      "chip": "ym2612"
    },
    {
      "channel": 0,
      "note": 57,
      "start": 41.3642,
      "duration": 0.1125,
      "velocity": 107,
      "chip": "ym2612"
    },
    {
      "channel": 1,
      "note": 54,
      "start": 41.3668,
      "duration": 0.1101,
      "velocity": 107,
      "chip": "ym2612"
    },
    {
      "channel": 2,
      "note": 81,
      "start": 41.3693,
      "duration": 0.1079,
      "velocity": 121,
      "chip": "ym2612"
    },
    {
      "channel": 3,
      "note": 57,
      "start": 41.4317,
      "duration": 0.1118,
      "velocity": 85,
      "chip": "ym2612"
    },
    {
      "channel": 0,
      "note": 57,
      "start": 41.4975,
      "duration": 0.1293,
      "velocity": 107,
      "chip": "ym2612"
    },
    {
      "channel": 1,
      "note": 55,
      "start": 41.5,
      "duration": 0.1268,
      "velocity": 107,
      "chip": "ym2612"
    },
    {
      "channel": 2,
      "note": 81,
      "start": 41.5025,
      "duration": 0.1246,
      "velocity": 121,
      "chip": "ym2612"
    },
    {
      "channel": 3,
      "note": 57,
      "start": 41.5813,
      "duration": 0.1121,
      "velocity": 107,
      "chip": "ym2612"
    },
    {
      "channel": 0,
      "note": 69,
      "start": 41.6521,
      "duration": 0.1079,
      "velocity": 107,
      "chip": "ym2612"
    },
    {
      "channel": 1,
      "note": 45,
      "start": 41.6561,
      "duration": 0.104,
      "velocity": 107,
      "chip": "ym2612"
    },
    {
      "channel": 2,
      "note": 81,
      "start": 41.6615,
      "duration": 0.5155,
      "velocity": 104,
      "chip": "ym2612"
    },
    {
      "channel": 0,
      "note": 68,
      "start": 41.7977,
      "duration": 0.1124,
      "velocity": 107,
      "chip": "ym2612"
    },
    {
      "channel": 3,
      "note": 69,
      "start": 41.8676,
      "duration": 0.1093,
      "velocity": 107,
      "chip": "ym2612"
    },
    {
      "channel": 0,
      "note": 67,
      "start": 41.9311,
      "duration": 0.129,
      "velocity": 107,
      "chip": "ym2612"
    },
    {
      "channel": 1,
      "note": 45,
      "start": 41.9339,
      "duration": 0.1264,
      "velocity": 107,
      "chip": "ym2612"
    },
    {
      "channel": 3,
      "note": 68,
      "start": 42.0147,
      "duration": 0.1122,
      "velocity": 107,
      "chip": "ym2612"
    },
    {
      "channel": 0,
      "note": 67,
      "start": 42.0814,
      "duration": 0.112,
      "velocity": 107,
      "chip": "ym2612"
    },
    {
      "channel": 3,
      "note": 67,
      "start": 42.148,
      "duration": 0.1288,
      "velocity": 107,
      "chip": "ym2612"
    },
    {
      "channel": 0,
      "note": 66,
      "start": 42.2308,
      "duration": 0.1127,
      "velocity": 103,
      "chip": "ym2612"
    },
    {
      "channel": 2,
      "note": 81,
      "start": 42.2337,
      "duration": 0.1101,
      "velocity": 121,
      "chip": "ym2612"
    },
    {
      "channel": 5,
      "note": 53,
      "start": 42.2367,
      "duration": 0.1736,
      "velocity": 125,
      "chip": "ym2612"
    },
    {
      "channel": 3,
      "note": 67,
      "start": 42.2984,
      "duration": 0.1117,
      "velocity": 107,
      "chip": "ym2612"
    },
    {
      "channel": 0,
      "note": 65,
      "start": 42.3643,
      "duration": 0.1291,
      "velocity": 107,
      "chip": "ym2612"
    },
    {
      "channel": 2,
      "note": 81,
      "start": 42.367,
      "duration": 0.1267,
      "velocity": 121,
      "chip": "ym2612"
    },
    {
      "channel": 3,
      "note": 66,
      "start": 42.4479,
      "duration": 0.1123,
      "velocity": 103,
      "chip": "ym2612"
    },
    {
      "channel": 0,
      "note": 64,
      "start": 42.5147,
      "duration": 0.112,
      "velocity": 107,
      "chip": "ym2612"
    },
    {
      "channel": 2,
      "note": 81,
      "start": 42.5173,
      "duration": 0.1097,
      "velocity": 121,
      "chip": "ym2612"
    },
    {
      "channel": 3,
      "note": 65,
      "start": 42.5811,
      "duration": 0.1291,
      "velocity": 107,
      "chip": "ym2612"
    },
    {
      "channel": 0,
      "note": 64,
      "start": 42.6645,
      "duration": 0.1123,
      "velocity": 97,
      "chip": "ym2612"
    },
    {
      "channel": 2,
      "note": 81,
      "start": 42.6675,
      "duration": 0.1095,
      "velocity": 121,
      "chip": "ym2612"
    },
    {
      "channel": 3,
      "note": 64,
      "start": 42.7317,
      "duration": 0.1119,
      "velocity": 107,
      "chip": "ym2612"
    },
    {
      "channel": 0,
      "note": 63,
      "start": 42.7976,
      "duration": 0.1292,
      "velocity": 107,
      "chip": "ym2612"
    },
    {
      "channel": 1,
      "note": 45,
      "start": 42.8003,
      "duration": 0.1266,
      "velocity": 107,
      "chip": "ym2612"
    },
    {
      "channel": 2,
      "note": 81,
      "start": 42.8029,
      "duration": 0.3907,
      "velocity": 104,
      "chip": "ym2612"
    },
    {
      "channel": 3,
      "note": 64,
      "start": 42.8815,
      "duration": 0.1121,
      "velocity": 85,
      "chip": "ym2612"
    },
    {
      "channel": 0,
      "note": 62,
      "start": 42.9482,
      "duration": 0.1119,
      "velocity": 107,
      "chip": "ym2612"
    },
    {
      "channel": 1,
      "note": 45,
      "start": 42.9509,
      "duration": 0.1093,
      "velocity": 107,
      "chip": "ym2612"
    },
    {
      "channel": 3,
      "note": 63,
      "start": 43.0146,
      "duration": 0.1289,
      "velocity": 107,
      "chip": "ym2612"
    },
    {
      "channel": 0,
      "note": 61,
      "start": 43.0977,
      "duration": 0.1124,
      "velocity": 103,
      "chip": "ym2612"
    },
    {
      "channel": 3,
      "note": 62,
      "start": 43.1651,
      "duration": 0.1118,
      "velocity": 107,
      "chip": "ym2612"
    },
    {
      "channel": 0,
      "note": 60,
      "start": 43.2311,
      "duration": 0.129,
      "velocity": 107,
      "chip": "ym2612"
    },
    {
      "channel": 2,
      "note": 81,
      "start": 43.2339,
      "duration": 0.1265,
      "velocity": 104,
      "chip": "ym2612"
    },
    {
      "channel": 3,
      "note": 61,
      "start": 43.3147,
      "duration": 0.1121,
      "velocity": 103,
      "chip": "ym2612"
    },
    {
      "channel": 0,
      "note": 60,
      "start": 43.3811,
      "duration": 0.1124,
      "velocity": 97,
      "chip": "ym2612"
    },
    {
      "channel": 5,
      "note": 53,
      "start": 43.3844,
      "duration": 0.1093,
      "velocity": 125,
      "chip": "ym2612"
    },
    {
      "channel": 3,
      "note": 60,
      "start": 43.448,
      "duration": 0.1288,
      "velocity": 107,
      "chip": "ym2612"
    },
    {
      "channel": 0,
      "note": 59,
      "start": 43.5311,
      "duration": 0.1122,
      "velocity": 107,
      "chip": "ym2612"
    },
    {
      "channel": 1,
      "note": 57,
      "start": 43.5339,
      "duration": 0.1095,
      "velocity": 107,
      "chip": "ym2612"
    },
    {
      "channel": 2,
      "note": 81,
      "start": 43.5363,
      "duration": 0.1074,
      "velocity": 121,
      "chip": "ym2612"
    },
    {
      "channel": 3,
      "note": 60,
      "start": 43.598,
      "duration": 0.1122,
      "velocity": 85,
      "chip": "ym2612"
    },
    {
      "channel": 0,
      "note": 58,
      "start": 43.6644,
      "duration": 0.1291,
      "velocity": 107,
      "chip": "ym2612"
    },
    {
      "channel": 1,
      "note": 60,
      "start": 43.6669,
      "duration": 0.1266,
      "velocity": 107,
      "chip": "ym2612"
    },
    {
      "channel": 2,
      "note": 81,
      "start": 43.6694,
      "duration": 0.1245,
      "velocity": 121,
      "chip": "ym2612"
    },
    {
      "channel": 3,
      "note": 59,
      "start": 43.7481,
      "duration": 0.1121,
      "velocity": 107,
      "chip": "ym2612"
    },
    {
      "channel": 0,
      "note": 57,
      "start": 43.8145,
      "duration": 0.1123,
      "velocity": 107,
      "chip": "ym2612"
    },
    {
      "channel": 1,
      "note": 57,
      "start": 43.817,
      "duration": 0.1099,
      "velocity": 107,
      "chip": "ym2612"
    },
    {
      "channel": 2,
      "note": 81,
      "start": 43.8195,
      "duration": 0.1077,
      "velocity": 121,
      "chip": "ym2612"
    },
    {
      "channel": 3,
      "note": 58,
      "start": 43.898,
      "duration": 0.1121,
      "velocity": 107,
      "chip": "ym2612"
    },
    {
      "channel": 0,
      "note": 57,
      "start": 43.9647,
      "duration": 0.1121,
      "velocity": 107,
      "chip": "ym2612"
    },
    {
      "channel": 1,
      "note": 45,
      "start": 43.9674,
      "duration": 0.1095,
      "velocity": 107,
      "chip": "ym2612"
    },
    {
      "channel": 2,
      "note": 81,
      "start": 43.9725,
      "duration": 0.5211,
      "velocity": 104,
      "chip": "ym2612"
    },
    {
      "channel": 3,
      "note": 57,
      "start": 44.0313,
      "duration": 0.1122,
      "velocity": 107,
      "chip": "ym2612"
    },
    {
      "channel": 0,
      "note": 57,
      "start": 44.1142,
      "duration": 0.1126,
      "velocity": 107,
      "chip": "ym2612"
    },
    {
      "channel": 3,
      "note": 57,
      "start": 44.1816,
      "duration": 0.1119,
      "velocity": 107,
      "chip": "ym2612"
    },
    {
      "channel": 0,
      "note": 57,
      "start": 44.2477,
      "duration": 0.1123,
      "velocity": 107,
      "chip": "ym2612"
    },
    {
      "channel": 1,
      "note": 45,
      "start": 44.2504,
      "duration": 0.1098,
      "velocity": 107,
      "chip": "ym2612"
    },
    {
      "channel": 3,
      "note": 57,
      "start": 44.3313,
      "duration": 0.1123,
      "velocity": 107,
      "chip": "ym2612"
    },
    {
      "channel": 0,
      "note": 57,
      "start": 44.398,
      "duration": 0.1121,
      "velocity": 107,
      "chip": "ym2612"
    },
    {
      "channel": 3,
      "note": 57,
      "start": 44.4645,
      "duration": 0.1123,
      "velocity": 107,
      "chip": "ym2612"
    },
    {
      "channel": 0,
      "note": 57,
      "start": 44.5476,
      "duration": 0.1125,
      "velocity": 107,
      "chip": "ym2612"
    },
    {
      "channel": 2,
      "note": 81,
      "start": 44.5505,
      "duration": 0.11,
      "velocity": 121,
      "chip": "ym2612"
    },
    {
      "channel": 5,
      "note": 53,
      "start": 44.5534,
      "duration": 0.1735,
      "velocity": 125,
      "chip": "ym2612"
    },
    {
      "channel": 3,
      "note": 57,
      "start": 44.6149,
      "duration": 0.1118,
      "velocity": 107,
      "chip": "ym2612"
    },
    {
      "channel": 0,
      "note": 57,
      "start": 44.681,
      "duration": 0.1124,
      "velocity": 107,
      "chip": "ym2612"
    },
    {
      "channel": 2,
      "note": 81,
      "start": 44.6837,
      "duration": 0.1101,
      "velocity": 121,
      "chip": "ym2612"
    },
    {
      "channel": 3,
      "note": 57,
      "start": 44.7645,
      "duration": 0.1123,
      "velocity": 107,
      "chip": "ym2612"
    },
    {
      "channel": 0,
      "note": 57,
      "start": 44.8312,
      "duration": 0.1122,
      "velocity": 107,
      "chip": "ym2612"
    },
    {
      "channel": 2,
      "note": 81,
      "start": 44.8339,
      "duration": 0.1099,
      "velocity": 121,
      "chip": "ym2612"
    },
    {
      "channel": 3,
      "note": 57,
      "start": 44.8979,
      "duration": 0.1123,
      "velocity": 107,
      "chip": "ym2612"
    },
    {
      "channel": 0,
      "note": 57,
      "start": 44.9808,
      "duration": 0.1125,
      "velocity": 107,
      "chip": "ym2612"
    },
    {
      "channel": 2,
      "note": 81,
      "start": 44.9839,
      "duration": 0.1098,
      "velocity": 121,
      "chip": "ym2612"
    },
    {
      "channel": 3,
      "note": 57,
      "start": 45.0483,
      "duration": 0.1119,
      "velocity": 107,
      "chip": "ym2612"
    },
    {
      "channel": 0,
      "note": 57,
      "start": 45.1144,
      "duration": 0.1124,
      "velocity": 103,
      "chip": "ym2612"
    },
    {
      "channel": 1,
      "note": 45,
      "start": 45.1174,
      "duration": 0.1095,
      "velocity": 107,
      "chip": "ym2612"
    },
    {
      "channel": 2,
      "note": 81,
      "start": 45.1201,
      "duration": 0.3736,
      "velocity": 104,
      "chip": "ym2612"
    },
    {
      "channel": 3,
      "note": 57,
      "start": 45.1979,
      "duration": 0.1123,
      "velocity": 107,
      "chip": "ym2612"
    },
    {
      "channel": 0,
      "note": 57,
      "start": 45.2644,
      "duration": 0.1123,
      "velocity": 107,
      "chip": "ym2612"
    },
    {
      "channel": 1,
      "note": 45,
      "start": 45.2671,
      "duration": 0.1097,
      "velocity": 107,
      "chip": "ym2612"
    },
    {
      "channel": 3,
      "note": 57,
      "start": 45.3312,
      "duration": 0.1289,
      "velocity": 103,
      "chip": "ym2612"
    },
    {
      "channel": 0,
      "note": 57,
      "start": 45.4143,
      "duration": 0.1125,
      "velocity": 103,
      "chip": "ym2612"
    },
    {
      "channel": 3,
      "note": 57,
      "start": 45.4814,
      "duration": 0.1121,
      "velocity": 107,
      "chip": "ym2612"
    },
    {
      "channel": 0,
      "note": 57,
      "start": 45.5475,
      "duration": 0.1293,
      "velocity": 107,
      "chip": "ym2612"
    },
    {
      "channel": 2,
      "note": 81,
      "start": 45.5503,
      "duration": 0.1267,
      "velocity": 104,
      "chip": "ym2612"
    },
    {
      "channel": 3,
      "note": 57,
      "start": 45.6313,
      "duration": 0.1122,
      "velocity": 103,
      "chip": "ym2612"
    },
    {
      "channel": 0,
      "note": 57,
      "start": 45.6977,
      "duration": 0.1124,
      "velocity": 107,
      "chip": "ym2612"
    },
    {
      "channel": 5,
      "note": 53,
      "start": 45.701,
      "duration": 0.1094,
      "velocity": 125,
      "chip": "ym2612"
    },
    {
      "channel": 3,
      "note": 57,
      "start": 45.7644,
      "duration": 0.1291,
      "velocity": 107,
      "chip": "ym2612"
    },
    {
      "channel": 0,
      "note": 57,
      "start": 45.848,
      "duration": 0.1121,
      "velocity": 97,
      "chip": "ym2612"
    },
    {
      "channel": 1,
      "note": 64,
      "start": 45.8507,
      "duration": 0.1095,
      "velocity": 107,
      "chip": "ym2612"
    },
    {
      "channel": 2,
      "note": 81,
      "start": 45.8532,
      "duration": 0.1072,
      "velocity": 121,
      "chip": "ym2612"
    },
    {
      "channel": 3,
      "note": 57,
      "start": 45.9145,
      "duration": 0.1123,
      "velocity": 107,
      "chip": "ym2612"
    },
    {
      "channel": 0,
      "note": 57,
      "start": 45.9809,
      "duration": 0.1293,
      "velocity": 107,
      "chip": "ym2612"
    },
    {
      "channel": 1,
      "note": 66,
      "start": 45.9834,
      "duration": 0.1268,
      "velocity": 107,
      "chip": "ym2612"
    },
    {
      "channel": 2,
      "note": 81,
      "start": 45.9859,
      "duration": 0.1246,
      "velocity": 121,
      "chip": "ym2612"
    },
    {
      "channel": 3,
      "note": 57,
      "start": 46.0651,
      "duration": 0.1118,
      "velocity": 85,
      "chip": "ym2612"
    },
    {
      "channel": 0,
      "note": 57,
      "start": 46.1308,
      "duration": 0.1125,
      "velocity": 107,
      "chip": "ym2612"
    },
    {
      "channel": 1,
      "note": 67,
      "start": 46.1336,
      "duration": 0.1099,
      "velocity": 107,
      "chip": "ym2612"
    },
    {
      "channel": 2,
      "note": 81,
      "start": 46.136,
      "duration": 0.1078,
      "velocity": 121,
      "chip": "ym2612"
    },
    {
      "channel": 3,
      "note": 57,
      "start": 46.1979,
      "duration": 0.1288,
      "velocity": 107,
      "chip": "ym2612"
    },
    {
      "channel": 0,
      "note": 69,
      "start": 46.2853,
      "duration": 0.108,
      "velocity": 107,
      "chip": "ym2612"
    },
    {
      "channel": 1,
      "note": 45,
      "start": 46.289,
      "duration": 0.1045,
      "velocity": 107,
      "chip": "ym2612"
    },
    {
      "channel": 2,
      "note": 81,
      "start": 46.2944,
      "duration": 0.5159,
      "velocity": 104,
      "chip": "ym2612"
    },
    {
      "channel": 0,
      "note": 68,
      "start": 46.4143,
      "duration": 0.1292,
      "velocity": 107,
      "chip": "ym2612"
    },
    {
      "channel": 3,
      "note": 69,
      "start": 46.5009,
      "duration": 0.1093,
      "velocity": 107,
      "chip": "ym2612"
    },
    {
      "channel": 0,
      "note": 67,
      "start": 46.5644,
      "duration": 0.1123,
      "velocity": 107,
      "chip": "ym2612"
    },
    {
      "channel": 1,
      "note": 45,
      "start": 46.5671,
      "duration": 0.1097,
      "velocity": 107,
      "chip": "ym2612"
    },
    {
      "channel": 3,
      "note": 68,
      "start": 46.6313,
      "duration": 0.1288,
      "velocity": 107,
      "chip": "ym2612"
    },
    {
      "channel": 0,
      "note": 67,
      "start": 46.7147,
      "duration": 0.112,
      "velocity": 107,
      "chip": "ym2612"
    },
    {
      "channel": 3,
      "note": 67,
      "start": 46.7813,
      "duration": 0.1122,
      "velocity": 107,
      "chip": "ym2612"
    },
    {
      "channel": 0,
      "note": 66,
      "start": 46.8477,
      "duration": 0.1291,
      "velocity": 103,
      "chip": "ym2612"
    },
    {
      "channel": 2,
      "note": 81,
      "start": 46.8505,
      "duration": 0.1265,
      "velocity": 121,
      "chip": "ym2612"
    },
    {
      "channel": 5,
      "note": 53,
      "start": 46.8535,
      "duration": 0.1901,
      "velocity": 125,
      "chip": "ym2612"
    },
    {
      "channel": 3,
      "note": 67,
      "start": 46.9318,
      "duration": 0.1117,
      "velocity": 107,
      "chip": "ym2612"
    },
    {
      "channel": 0,
      "note": 65,
      "start": 46.9976,
      "duration": 0.1125,
      "velocity": 107,
      "chip": "ym2612"
    },
    {
      "channel": 2,
      "note": 81,
      "start": 47.0002,
      "duration": 0.1101,
      "velocity": 121,
      "chip": "ym2612"
    },
    {
      "channel": 3,
      "note": 66,
      "start": 47.0645,
      "duration": 0.129,
      "velocity": 103,
      "chip": "ym2612"
    },
    {
      "channel": 0,
      "note": 64,
      "start": 47.148,
      "duration": 0.112,
      "velocity": 107,
      "chip": "ym2612"
    },
    {
      "channel": 2,
      "note": 81,
      "start": 47.1507,
      "duration": 0.1097,
      "velocity": 121,
      "chip": "ym2612"
    },
    {
      "channel": 3,
      "note": 65,
      "start": 47.2144,
      "duration": 0.1125,
      "velocity": 107,
      "chip": "ym2612"
    },
    {
      "channel": 0,
      "note": 64,
      "start": 47.2811,
      "duration": 0.129,
      "velocity": 97,
      "chip": "ym2612"
    },
    {
      "channel": 2,
      "note": 81,
      "start": 47.2841,
      "duration": 0.1263,
      "velocity": 121,
      "chip": "ym2612"
    },
    {
      "channel": 3,
      "note": 64,
      "start": 47.3651,
      "duration": 0.1118,
      "velocity": 107,
      "chip": "ym2612"
    },
    {
      "channel": 0,
      "note": 63,
      "start": 47.431,
      "duration": 0.1124,
      "velocity": 107,
      "chip": "ym2612"
    },
    {
      "channel": 1,
      "note": 45,
      "start": 47.4337,
      "duration": 0.1098,
      "velocity": 107,
      "chip": "ym2612"
    },
    {
      "channel": 2,
      "note": 81,
      "start": 47.4363,
      "duration": 0.3741,
      "velocity": 104,
      "chip": "ym2612"
    },
    {
      "channel": 3,
      "note": 64,
      "start": 47.4982,
      "duration": 0.1287,
      "velocity": 85,
      "chip": "ym2612"
    },
    {
      "channel": 0,
      "note": 62,
      "start": 47.5813,
      "duration": 0.1121,
      "velocity": 107,
      "chip": "ym2612"
    },
    {
      "channel": 1,
      "note": 45,
      "start": 47.5841,
      "duration": 0.1095,
      "velocity": 107,
      "chip": "ym2612"
    },
    {
      "channel": 3,
      "note": 63,
      "start": 47.6479,
      "duration": 0.1123,
      "velocity": 107,
      "chip": "ym2612"
    },
    {
      "channel": 0,
      "note": 61,
      "start": 47.7145,
      "duration": 0.129,
      "velocity": 103,
      "chip": "ym2612"
    },
    {
      "channel": 3,
      "note": 62,
      "start": 47.7983,
      "duration": 0.1118,
      "velocity": 107,
      "chip": "ym2612"
    },
    {
      "channel": 0,
      "note": 60,
      "start": 47.8645,
      "duration": 0.1123,
      "velocity": 107,
      "chip": "ym2612"
    },
    {
      "channel": 2,
      "note": 81,
      "start": 47.8673,
      "duration": 0.1098,
      "velocity": 104,
      "chip": "ym2612"
    },
    {
      "channel": 3,
      "note": 61,
      "start": 47.9313,
      "duration": 0.1288,
      "velocity": 103,
      "chip": "ym2612"
    },
    {
      "channel": 0,
      "note": 60,
      "start": 48.0143,
      "duration": 0.1125,
      "velocity": 97,
      "chip": "ym2612"
    },
    {
      "channel": 5,
      "note": 53,
      "start": 48.0176,
      "duration": 0.1095,
      "velocity": 125,
      "chip": "ym2612"
    },
    {
      "channel": 3,
      "note": 60,
      "start": 48.0813,
      "duration": 0.1122,
      "velocity": 107,
      "chip": "ym2612"
    },
    {
      "channel": 0,
      "note": 59,
      "start": 48.1645,
      "duration": 0.1122,
      "velocity": 107,
      "chip": "ym2612"
    },
    {
      "channel": 1,
      "note": 57,
      "start": 48.1671,
      "duration": 0.1097,
      "velocity": 107,
      "chip": "ym2612"
    },
    {
      "channel": 2,
      "note": 81,
      "start": 48.1696,
      "duration": 0.1075,
      "velocity": 121,
      "chip": "ym2612"
    },
    {
      "channel": 3,
      "note": 60,
      "start": 48.2313,
      "duration": 0.1121,
      "velocity": 85,
      "chip": "ym2612"
    },
    {
      "channel": 0,
      "note": 58,
      "start": 48.2977,
      "duration": 0.1123,
      "velocity": 107,
      "chip": "ym2612"
    },
    {
      "channel": 1,
      "note": 60,
      "start": 48.3002,
      "duration": 0.11,
      "velocity": 107,
      "chip": "ym2612"
    },
    {
      "channel": 2,
      "note": 81,
      "start": 48.3027,
      "duration": 0.1078,
      "velocity": 121,
      "chip": "ym2612"
    },
    {
      "channel": 3,
      "note": 59,
      "start": 48.3815,
      "duration": 0.112,
      "velocity": 107,
      "chip": "ym2612"
    },
    {
      "channel": 0,
      "note": 57,
      "start": 48.4476,
      "duration": 0.1125,
      "velocity": 107,
      "chip": "ym2612"
    },
    {
      "channel": 1,
      "note": 57,
      "start": 48.4502,
      "duration": 0.11,
      "velocity": 107,
      "chip": "ym2612"
    },
    {
      "channel": 2,
      "note": 81,
      "start": 48.4526,
      "duration": 0.1079,
      "velocity": 121,
      "chip": "ym2612"
    },
    {
      "channel": 3,
      "note": 58,
      "start": 48.5147,
      "duration": 0.1121,
      "velocity": 107,
      "chip": "ym2612"
    },
    {
      "channel": 0,
      "note": 57,
      "start": 48.598,
      "duration": 0.112,
      "velocity": 107,
      "chip": "ym2612"
    },
    {
      "channel": 1,
      "note": 45,
      "start": 48.6007,
      "duration": 0.1094,
      "velocity": 107,
      "chip": "ym2612"
    },
    {
      "channel": 2,
      "note": 81,
      "start": 48.6058,
      "duration": 0.5045,
      "velocity": 104,
      "chip": "ym2612"
    },
    {
      "channel": 3,
      "note": 57,
      "start": 48.6647,
      "duration": 0.1121,
      "velocity": 107,
      "chip": "ym2612"
    },
    {
      "channel": 0,
      "note": 57,
      "start": 48.7309,
      "duration": 0.1126,
      "velocity": 107,
      "chip": "ym2612"
    },
    {
      "channel": 3,
      "note": 57,
      "start": 48.815,
      "duration": 0.1119,
      "velocity": 107,
      "chip": "ym2612"
    },
    {
      "channel": 0,
      "note": 57,
      "start": 48.881,
      "duration": 0.1124,
      "velocity": 107,
      "chip": "ym2612"
    },
    {
      "channel": 1,
      "note": 45,
      "start": 48.884,
      "duration": 0.1095,
      "velocity": 107,
      "chip": "ym2612"
    },
    {
      "channel": 3,
      "note": 57,
      "start": 48.9479,
      "duration": 0.1123,
      "velocity": 107,
      "chip": "ym2612"
    },
    {
      "channel": 0,
      "note": 57,
      "start": 49.0313,
      "duration": 0.1122,
      "velocity": 107,
      "chip": "ym2612"
    },
    {
      "channel": 3,
      "note": 57,
      "start": 49.0979,
      "duration": 0.1123,
      "velocity": 107,
      "chip": "ym2612"
    },
    {
      "channel": 0,
      "note": 57,
      "start": 49.1644,
      "duration": 0.1123,
      "velocity": 107,
      "chip": "ym2612"
    },
    {
      "channel": 2,
      "note": 81,
      "start": 49.1673,
      "duration": 0.1097,
      "velocity": 121,
      "chip": "ym2612"
    },
    {
      "channel": 5,
      "note": 53,
      "start": 49.1702,
      "duration": 0.1901,
      "velocity": 125,
      "chip": "ym2612"
    },
    {
      "channel": 3,
      "note": 57,
      "start": 49.2483,
      "duration": 0.1119,
      "velocity": 107,
      "chip": "ym2612"
    },
    {
      "channel": 0,
      "note": 57,
      "start": 49.3143,
      "duration": 0.1124,
      "velocity": 107,
      "chip": "ym2612"
    },
    {
      "channel": 2,
      "note": 81,
      "start": 49.317,
      "duration": 0.11,
      "velocity": 121,
      "chip": "ym2612"
    },
    {
      "channel": 3,
      "note": 57,
      "start": 49.3811,
      "duration": 0.1123,
      "velocity": 107,
      "chip": "ym2612"
    },
    {
      "channel": 0,
      "note": 57,
      "start": 49.4647,
      "duration": 0.1121,
      "velocity": 107,
      "chip": "ym2612"
    },
    {
      "channel": 2,
      "note": 81,
      "start": 49.4673,
      "duration": 0.1098,
      "velocity": 121,
      "chip": "ym2612"
    },
    {
      "channel": 3,
      "note": 57,
      "start": 49.5312,
      "duration": 0.1122,
      "velocity": 107,
      "chip": "ym2612"
    },
    {
      "channel": 0,
      "note": 57,
      "start": 49.5976,
      "duration": 0.1291,
      "velocity": 107,
      "chip": "ym2612"
    },
    {
      "channel": 2,
      "note": 81,
      "start": 49.6007,
      "duration": 0.1264,
      "velocity": 121,
      "chip": "ym2612"
    },
    {
      "channel": 3,
      "note": 57,
      "start": 49.6816,
      "duration": 0.1119,
      "velocity": 107,
      "chip": "ym2612"
    },
    {
      "channel": 0,
      "note": 57,
      "start": 49.7477,
      "duration": 0.1123,
      "velocity": 103,
      "chip": "ym2612"
    },
    {
      "channel": 1,
      "note": 45,
      "start": 49.7505,
      "duration": 0.1097,
      "velocity": 107,
      "chip": "ym2612"
    },
    {
      "channel": 2,
      "note": 81,
      "start": 49.7531,
      "duration": 0.3739,
      "velocity": 104,
      "chip": "ym2612"
    },
    {
      "channel": 3,
      "note": 57,
      "start": 49.8146,
      "duration": 0.1289,
      "velocity": 107,
      "chip": "ym2612"
    },
    {
      "channel": 0,
      "note": 57,
      "start": 49.8977,
      "duration": 0.1124,
      "velocity": 107,
      "chip": "ym2612"
    },
    {
      "channel": 1,
      "note": 45,
      "start": 49.9005,
      "duration": 0.1098,
      "velocity": 107,
      "chip": "ym2612"
    },
    {
      "channel": 3,
      "note": 57,
      "start": 49.9645,
      "duration": 0.1123,
      "velocity": 103,
      "chip": "ym2612"
    },
    {
      "channel": 0,
      "note": 57,
      "start": 50.031,
      "duration": 0.1291,
      "velocity": 103,
      "chip": "ym2612"
    },
    {
      "channel": 3,
      "note": 57,
      "start": 50.1147,
      "duration": 0.1121,
      "velocity": 107,
      "chip": "ym2612"
    },
    {
      "channel": 0,
      "note": 57,
      "start": 50.1808,
      "duration": 0.1126,
      "velocity": 107,
      "chip": "ym2612"
    },
    {
      "channel": 2,
      "note": 81,
      "start": 50.1837,
      "duration": 0.1101,
      "velocity": 104,
      "chip": "ym2612"
    },
    {
      "channel": 3,
      "note": 57,
      "start": 50.2479,
      "duration": 0.1289,
      "velocity": 103,
      "chip": "ym2612"
    },
    {
      "channel": 0,
      "note": 57,
      "start": 50.331,
      "duration": 0.1125,
      "velocity": 107,
      "chip": "ym2612"
    },
    {
      "channel": 5,
      "note": 53,
      "start": 50.3343,
      "duration": 0.1094,
      "velocity": 125,
      "chip": "ym2612"
    },
    {
      "channel": 3,
      "note": 57,
      "start": 50.3976,
      "duration": 0.1125,
      "velocity": 107,
      "chip": "ym2612"
    },
    {
      "channel": 0,
      "note": 57,
      "start": 50.4648,
      "duration": 0.1286,
      "velocity": 97,
      "chip": "ym2612"
    },
    {
      "channel": 1,
      "note": 52,
      "start": 50.4675,
      "duration": 0.126,
      "velocity": 107,
      "chip": "ym2612"
    },
    {
      "channel": 2,
      "note": 81,
      "start": 50.4699,
      "duration": 0.1238,
      "velocity": 121,
      "chip": "ym2612"
    },
    {
      "channel": 3,
      "note": 57,
      "start": 50.5478,
      "duration": 0.1123,
      "velocity": 107,
      "chip": "ym2612"
    },
    {
      "channel": 0,
      "note": 57,
      "start": 50.6143,
      "duration": 0.1124,
      "velocity": 107,
      "chip": "ym2612"
    },
    {
      "channel": 1,
      "note": 54,
      "start": 50.6168,
      "duration": 0.11,
      "velocity": 107,
      "chip": "ym2612"
    },
    {
      "channel": 2,
      "note": 81,
      "start": 50.6193,
      "duration": 0.1078,
      "velocity": 121,
      "chip": "ym2612"
    },
    {
      "channel": 3,
      "note": 57,
      "start": 50.6818,
      "duration": 0.1284,
      "velocity": 85,
      "chip": "ym2612"
    },
    {
      "channel": 0,
      "note": 57,
      "start": 50.764,
      "duration": 0.1128,
      "velocity": 107,
      "chip": "ym2612"
    },
    {
      "channel": 1,
      "note": 55,
      "start": 50.7666,
      "duration": 0.1104,
      "velocity": 107,
      "chip": "ym2612"
    },
    {
      "channel": 2,
      "note": 81,
      "start": 50.769,
      "duration": 0.1081,
      "velocity": 121,
      "chip": "ym2612"
    },
    {
      "channel": 3,
      "note": 57,
      "start": 50.8312,
      "duration": 0.1122,
      "velocity": 107,
      "chip": "ym2612"
    },
    {
      "channel": 0,
      "note": 69,
      "start": 50.9021,
      "duration": 0.1246,
      "velocity": 107,
      "chip": "ym2612"
    },
    {
      "channel": 1,
      "note": 45,
      "start": 50.9058,
      "duration": 0.121,
      "velocity": 107,
      "chip": "ym2612"
    },
    {
      "channel": 2,
      "note": 81,
      "start": 50.9112,
      "duration": 0.5158,
      "velocity": 104,
      "chip": "ym2612"
    },
    {
      "channel": 0,
      "note": 68,
      "start": 51.0477,
      "duration": 0.1124,
      "velocity": 107,
      "chip": "ym2612"
    },
    {
      "channel": 3,
      "note": 69,
      "start": 51.1176,
      "duration": 0.1259,
      "velocity": 107,
      "chip": "ym2612"
    },
    {
      "channel": 0,
      "note": 67,
      "start": 51.1976,
      "duration": 0.1125,
      "velocity": 107,
      "chip": "ym2612"
    },
    {
      "channel": 1,
      "note": 45,
      "start": 51.2003,
      "duration": 0.1099,
      "velocity": 107,
      "chip": "ym2612"
    },
    {
      "channel": 3,
      "note": 68,
      "start": 51.2647,
      "duration": 0.1122,
      "velocity": 107,
      "chip": "ym2612"
    },
    {
      "channel": 0,
      "note": 67,
      "start": 51.3314,
      "duration": 0.1287,
      "velocity": 107,
      "chip": "ym2612"
    },
    {
      "channel": 3,
      "note": 67,
      "start": 51.4147,
      "duration": 0.1121,
      "velocity": 107,
      "chip": "ym2612"
    },
    {
      "channel": 0,
      "note": 66,
      "start": 51.481,
      "duration": 0.1125,
      "velocity": 103,
      "chip": "ym2612"
    },
    {
      "channel": 2,
      "note": 81,
      "start": 51.4838,
      "duration": 0.1099,
      "velocity": 121,
      "chip": "ym2612"
    },
    {
      "channel": 5,
      "note": 53,
      "start": 51.4867,
      "duration": 0.1903,
      "velocity": 125,
      "chip": "ym2612"
    },
    {
      "channel": 3,
      "note": 67,
      "start": 51.5484,
      "duration": 0.1284,
      "velocity": 107,
      "chip": "ym2612"
    },
    {
      "channel": 0,
      "note": 65,
      "start": 51.6308,
      "duration": 0.1125,
      "velocity": 107,
      "chip": "ym2612"
    },
    {
      "channel": 2,
      "note": 81,
      "start": 51.6335,
      "duration": 0.1101,
      "velocity": 121,
      "chip": "ym2612"
    },
    {
      "channel": 3,
      "note": 66,
      "start": 51.6979,
      "duration": 0.1122,
      "velocity": 103,
      "chip": "ym2612"
    },
    {
      "channel": 0,
      "note": 64,
      "start": 51.7647,
      "duration": 0.1287,
      "velocity": 107,
      "chip": "ym2612"
    },
    {
      "channel": 2,
      "note": 81,
      "start": 51.7673,
      "duration": 0.1263,
      "velocity": 121,
      "chip": "ym2612"
    },
    {
      "channel": 3,
      "note": 65,
      "start": 51.8477,
      "duration": 0.1125,
      "velocity": 107,
      "chip": "ym2612"
    },
    {
      "channel": 0,
      "note": 64,
      "start": 51.9145,
      "duration": 0.1122,
      "velocity": 97,
      "chip": "ym2612"
    },
    {
      "channel": 2,
      "note": 81,
      "start": 51.9175,
      "duration": 0.1095,
      "velocity": 121,
      "chip": "ym2612"
    },
    {
      "channel": 3,
      "note": 64,
      "start": 51.9817,
      "duration": 0.1285,
      "velocity": 107,
      "chip": "ym2612"
    },
    {
      "channel": 0,
      "note": 63,
      "start": 52.0643,
      "duration": 0.1125,
      "velocity": 107,
      "chip": "ym2612"
    },
    {
      "channel": 1,
      "note": 45,
      "start": 52.067,
      "duration": 0.1099,
      "velocity": 107,
      "chip": "ym2612"
    },
    {
      "channel": 2,
      "note": 81,
      "start": 52.0696,
      "duration": 0.374,
      "velocity": 104,
      "chip": "ym2612"
    },
    {
      "channel": 3,
      "note": 64,
      "start": 52.1316,
      "duration": 0.1119,
      "velocity": 85,
      "chip": "ym2612"
    },
    {
      "channel": 0,
      "note": 62,
      "start": 52.1981,
      "duration": 0.1287,
      "velocity": 107,
      "chip": "ym2612"
    },
    {
      "channel": 1,
      "note": 45,
      "start": 52.2012,
      "duration": 0.1257,
      "velocity": 107,
      "chip": "ym2612"
    },
    {
      "channel": 3,
      "note": 63,
      "start": 52.2813,
      "duration": 0.1123,
      "velocity": 107,
      "chip": "ym2612"
    },
    {
      "channel": 0,
      "note": 61,
      "start": 52.3478,
      "duration": 0.1122,
      "velocity": 103,
      "chip": "ym2612"
    },
    {
      "channel": 3,
      "note": 62,
      "start": 52.4317,
      "duration": 0.1118,
      "velocity": 107,
      "chip": "ym2612"
    },
    {
      "channel": 0,
      "note": 60,
      "start": 52.4976,
      "duration": 0.1125,
      "velocity": 107,
      "chip": "ym2612"
    },
    {
      "channel": 2,
      "note": 81,
      "start": 52.5005,
      "duration": 0.1099,
      "velocity": 104,
      "chip": "ym2612"
    },
    {
      "channel": 3,
      "note": 61,
      "start": 52.5647,
      "duration": 0.1122,
      "velocity": 103,
      "chip": "ym2612"
    },
    {
      "channel": 0,
      "note": 60,
      "start": 52.6477,
      "duration": 0.1124,
      "velocity": 97,
      "chip": "ym2612"
    },
    {
      "channel": 5,
      "note": 53,
      "start": 52.651,
      "duration": 0.1094,
      "velocity": 125,
      "chip": "ym2612"
    },
    {
      "channel": 3,
      "note": 60,
      "start": 52.7147,
      "duration": 0.1121,
      "velocity": 107,
      "chip": "ym2612"
    },
    {
      "channel": 0,
      "note": 59,
      "start": 52.7813,
      "duration": 0.1121,
      "velocity": 107,
      "chip": "ym2612"
    },
    {
      "channel": 1,
      "note": 57,
      "start": 52.784,
      "duration": 0.1095,
      "velocity": 107,
      "chip": "ym2612"
    },
    {
      "channel": 2,
      "note": 81,
      "start": 52.7865,
      "duration": 0.1073,
      "velocity": 121,
      "chip": "ym2612"
    },
    {
      "channel": 3,
      "note": 60,
      "start": 52.8647,
      "duration": 0.1121,
      "velocity": 85,
      "chip": "ym2612"
    },
    {
      "channel": 0,
      "note": 58,
      "start": 52.931,
      "duration": 0.1125,
      "velocity": 107,
      "chip": "ym2612"
    },
    {
      "channel": 1,
      "note": 60,
      "start": 52.9335,
      "duration": 0.11,
      "velocity": 107,
      "chip": "ym2612"
    },
    {
      "channel": 2,
      "note": 81,
      "start": 52.936,
      "duration": 0.1079,
      "velocity": 121,
      "chip": "ym2612"
    },
    {
      "channel": 3,
      "note": 59,
      "start": 52.9983,
      "duration": 0.112,
      "velocity": 107,
      "chip": "ym2612"
    },
    {
      "channel": 0,
      "note": 57,
      "start": 53.081,
      "duration": 0.1124,
      "velocity": 107,
      "chip": "ym2612"
    },
    {
      "channel": 1,
      "note": 57,
      "start": 53.0836,
      "duration": 0.11,
      "velocity": 107,
      "chip": "ym2612"
    },
    {
      "channel": 2,
      "note": 81,
      "start": 53.086,
      "duration": 0.1078,
      "velocity": 121,
      "chip": "ym2612"
    },
    {
      "channel": 3,
      "note": 58,
      "start": 53.148,
      "duration": 0.1121,
      "velocity": 107,
      "chip": "ym2612"
    },
    {
      "channel": 0,
      "note": 57,
      "start": 53.2148,
      "duration": 0.1119,
      "velocity": 107,
      "chip": "ym2612"
    },
    {
      "channel": 1,
      "note": 45,
      "start": 53.2175,
      "duration": 0.1093,
      "velocity": 107,
      "chip": "ym2612"
    },
    {
      "channel": 2,
      "note": 81,
      "start": 53.2226,
      "duration": 0.5211,
      "velocity": 104,
      "chip": "ym2612"
    },
    {
      "channel": 3,
      "note": 57,
      "start": 53.2979,
      "duration": 0.1123,
      "velocity": 107,
      "chip": "ym2612"
    },
    {
      "channel": 0,
      "note": 57,
      "start": 53.3643,
      "duration": 0.1125,
      "velocity": 107,
      "chip": "ym2612"
    },
    {
      "channel": 3,
      "note": 57,
      "start": 53.4317,
      "duration": 0.1118,
      "velocity": 107,
      "chip": "ym2612"
    },
    {
      "channel": 0,
      "note": 57,
      "start": 53.5143,
      "duration": 0.1124,
      "velocity": 107,
      "chip": "ym2612"
    },
    {
      "channel": 1,
      "note": 45,
      "start": 53.517,
      "duration": 0.1098,
      "velocity": 107,
      "chip": "ym2612"
    },
    {
      "channel": 3,
      "note": 57,
      "start": 53.5813,
      "duration": 0.1122,
      "velocity": 107,
      "chip": "ym2612"
    },
    {
      "channel": 0,
      "note": 57,
      "start": 53.648,
      "duration": 0.112,
      "velocity": 107,
      "chip": "ym2612"
    },
    {
      "channel": 3,
      "note": 57,
      "start": 53.7313,
      "duration": 0.1123,
      "velocity": 107,
      "chip": "ym2612"
    },
    {
      "channel": 0,
      "note": 57,
      "start": 53.7976,
      "duration": 0.1125,
      "velocity": 107,
      "chip": "ym2612"
    },
    {
      "channel": 2,
      "note": 81,
      "start": 53.8004,
      "duration": 0.11,
      "velocity": 121,
      "chip": "ym2612"
    },
    {
      "channel": 5,
      "note": 53,
      "start": 53.8034,
      "duration": 0.1902,
      "velocity": 125,
      "chip": "ym2612"
    },
    {
      "channel": 3,
      "note": 57,
      "start": 53.865,
      "duration": 0.1284,
      "velocity": 107,
      "chip": "ym2612"
    },
    {
      "channel": 0,
      "note": 57,
      "start": 53.9476,
      "duration": 0.1124,
      "velocity": 107,
      "chip": "ym2612"
    },
    {
      "channel": 2,
      "note": 81,
      "start": 53.9502,
      "duration": 0.11,
      "velocity": 121,
      "chip": "ym2612"
    },
    {
      "channel": 3,
      "note": 57,
      "start": 54.0145,
      "duration": 0.1123,
      "velocity": 107,
      "chip": "ym2612"
    },
    {
      "channel": 0,
      "note": 57,
      "start": 54.0812,
      "duration": 0.1289,
      "velocity": 107,
      "chip": "ym2612"
    },
    {
      "channel": 2,
      "note": 81,
      "start": 54.0839,
      "duration": 0.1265,
      "velocity": 121,
      "chip": "ym2612"
    },
    {
      "channel": 3,
      "note": 57,
      "start": 54.1645,
      "duration": 0.1123,
      "velocity": 107,
      "chip": "ym2612"
    },
    {
      "channel": 0,
      "note": 57,
      "start": 54.2308,
      "duration": 0.1126,
      "velocity": 107,
      "chip": "ym2612"
    },
    {
      "channel": 1,
      "note": 45,
      "start": 54.2336,
      "duration": 0.11,
      "velocity": 107,
      "chip": "ym2612"
    },
    {
      "channel": 2,
      "note": 81,
      "start": 54.2363,
      "duration": 0.1075,
      "velocity": 121,
      "chip": "ym2612"
    },
    {
      "channel": 3,
      "note": 57,
      "start": 54.2983,
      "duration": 0.1285,
      "velocity": 107,
      "chip": "ym2612"
    },
    {
      "channel": 0,
      "note": 57,
      "start": 54.381,
      "duration": 0.1125,
      "velocity": 103,
      "chip": "ym2612"
    },
    {
      "channel": 1,
      "note": 64,
      "start": 54.384,
      "duration": 0.1095,
      "velocity": 107,
      "chip": "ym2612"
    },
    {
      "channel": 2,
      "note": 81,
      "start": 54.3866,
      "duration": 0.3737,
      "velocity": 104,
      "chip": "ym2612"
    },
    {
      "channel": 3,
      "note": 57,
      "start": 54.448,
      "duration": 0.1122,
      "velocity": 107,
      "chip": "ym2612"
    },
    {
      "channel": 0,
      "note": 57,
      "start": 54.5146,
      "duration": 0.1288,
      "velocity": 107,
      "chip": "ym2612"
    },
    {
      "channel": 1,
      "note": 45,
      "start": 54.5171,
      "duration": 0.1264,
      "velocity": 107,
      "chip": "ym2612"
    },
    {
      "channel": 3,
      "note": 57,
      "start": 54.598,
      "duration": 0.1123,
      "velocity": 103,
      "chip": "ym2612"
    },
    {
      "channel": 0,
      "note": 57,
      "start": 54.6644,
      "duration": 0.1124,
      "velocity": 103,
      "chip": "ym2612"
    },
    {
      "channel": 1,
      "note": 66,
      "start": 54.667,
      "duration": 0.11,
      "velocity": 107,
      "chip": "ym2612"
    },
    {
      "channel": 3,
      "note": 57,
      "start": 54.7314,
      "duration": 0.1288,
      "velocity": 107,
      "chip": "ym2612"
    },
    {
      "channel": 0,
      "note": 57,
      "start": 54.8141,
      "duration": 0.1127,
      "velocity": 107,
      "chip": "ym2612"
    },
    {
      "channel": 1,
      "note": 45,
      "start": 54.8166,
      "duration": 0.1103,
      "velocity": 107,
      "chip": "ym2612"
    },
    {
      "channel": 2,
      "note": 81,
      "start": 54.8193,
      "duration": 0.1079,
      "velocity": 104,
      "chip": "ym2612"
    },
    {
      "channel": 3,
      "note": 57,
      "start": 54.8812,
      "duration": 0.1123,
      "velocity": 103,
      "chip": "ym2612"
    },
    {
      "channel": 0,
      "note": 57,
      "start": 54.9477,
      "duration": 0.1291,
      "velocity": 107,
      "chip": "ym2612"
    },
    {
      "channel": 1,
      "note": 67,
      "start": 54.9503,
      "duration": 0.1266,
      "velocity": 107,
      "chip": "ym2612"
    },
    {
      "channel": 5,
      "note": 53,
      "start": 54.9533,
      "duration": 0.1238,
      "velocity": 125,
      "chip": "ym2612"
    },
    {
      "channel": 3,
      "note": 57,
      "start": 55.0311,
      "duration": 0.1124,
      "velocity": 107,
      "chip": "ym2612"
    },
    {
      "channel": 0,
      "note": 57,
      "start": 55.0981,
      "duration": 0.1118,
      "velocity": 97,
      "chip": "ym2612"
    },
    {
      "channel": 1,
      "note": 45,
      "start": 55.1007,
      "duration": 0.1094,
      "velocity": 107,
      "chip": "ym2612"
    },
    {
      "channel": 2,
      "note": 81,
      "start": 55.1031,
      "duration": 0.1073,
      "velocity": 121,
      "chip": "ym2612"
    },
    {
      "channel": 3,
      "note": 57,
      "start": 55.1645,
      "duration": 0.129,
      "velocity": 107,
      "chip": "ym2612"
    },
    {
      "channel": 0,
      "note": 57,
      "start": 55.2476,
      "duration": 0.1124,
      "velocity": 107,
      "chip": "ym2612"
    },
    {
      "channel": 1,
      "note": 66,
      "start": 55.2503,
      "duration": 0.1098,
      "velocity": 107,
      "chip": "ym2612"
    },
    {
      "channel": 2,
      "note": 81,
      "start": 55.2528,
      "duration": 0.1077,
      "velocity": 121,
      "chip": "ym2612"
    },
    {
      "channel": 3,
      "note": 57,
      "start": 55.3151,
      "duration": 0.1118,
      "velocity": 85,
      "chip": "ym2612"
    },
    {
      "channel": 0,
      "note": 57,
      "start": 55.3808,
      "duration": 0.1293,
      "velocity": 107,
      "chip": "ym2612"
    },
    {
      "channel": 2,
      "note": 81,
      "start": 55.3835,
      "duration": 0.1269,
      "velocity": 121,
      "chip": "ym2612"
    },
    {
      "channel": 3,
      "note": 57,
      "start": 55.4646,
      "duration": 0.1122,
      "velocity": 107,
      "chip": "ym2612"
    },
    {
      "channel": 0,
      "note": 69,
      "start": 55.5353,
      "duration": 0.108,
      "velocity": 107,
      "chip": "ym2612"
    },
    {
      "channel": 1,
      "note": 45,
      "start": 55.539,
      "duration": 0.1044,
      "velocity": 107,
      "chip": "ym2612"
    },
    {
      "channel": 2,
      "note": 81,
      "start": 55.5444,
      "duration": 0.5159,
      "velocity": 104,
      "chip": "ym2612"
    },
    {
      "channel": 0,
      "note": 68,
      "start": 55.681,
      "duration": 0.1125,
      "velocity": 107,
      "chip": "ym2612"
    },
    {
      "channel": 3,
      "note": 69,
      "start": 55.7509,
      "duration": 0.1093,
      "velocity": 107,
      "chip": "ym2612"
    },
    {
      "channel": 0,
      "note": 67,
      "start": 55.8145,
      "duration": 0.1289,
      "velocity": 107,
      "chip": "ym2612"
    },
    {
      "channel": 1,
      "note": 45,
      "start": 55.8173,
      "duration": 0.1263,
      "velocity": 107,
      "chip": "ym2612"
    },
    {
      "channel": 3,
      "note": 68,
      "start": 55.898,
      "duration": 0.1122,
      "velocity": 107,
      "chip": "ym2612"
    },
    {
      "channel": 0,
      "note": 67,
      "start": 55.9647,
      "duration": 0.112,
      "velocity": 107,
      "chip": "ym2612"
    },
    {
      "channel": 3,
      "note": 67,
      "start": 56.0314,
      "duration": 0.1288,
      "velocity": 107,
      "chip": "ym2612"
    },
    {
      "channel": 0,
      "note": 66,
      "start": 56.1143,
      "duration": 0.1125,
      "velocity": 103,
      "chip": "ym2612"
    },
    {
      "channel": 2,
      "note": 81,
      "start": 56.1171,
      "duration": 0.11,
      "velocity": 121,
      "chip": "ym2612"
    },
    {
      "channel": 5,
      "note": 53,
      "start": 56.1201,
      "duration": 0.1735,
      "velocity": 125,
      "chip": "ym2612"
    },
    {
      "channel": 3,
      "note": 67,
      "start": 56.1818,
      "duration": 0.1117,
      "velocity": 107,
      "chip": "ym2612"
    },
    {
      "channel": 0,
      "note": 65,
      "start": 56.2476,
      "duration": 0.1291,
      "velocity": 107,
      "chip": "ym2612"
    },
    {
      "channel": 2,
      "note": 81,
      "start": 56.2503,
      "duration": 0.1267,
      "velocity": 121,
      "chip": "ym2612"
    },
    {
      "channel": 3,
      "note": 66,
      "start": 56.3312,
      "duration": 0.1123,
      "velocity": 103,
      "chip": "ym2612"
    },
    {
      "channel": 0,
      "note": 64,
      "start": 56.398,
      "duration": 0.112,
      "velocity": 107,
      "chip": "ym2612"
    },
    {
      "channel": 2,
      "note": 81,
      "start": 56.4007,
      "duration": 0.1097,
      "velocity": 121,
      "chip": "ym2612"
    },
    {
      "channel": 3,
      "note": 65,
      "start": 56.4644,
      "duration": 0.1291,
      "velocity": 107,
      "chip": "ym2612"
    },
    {
      "channel": 0,
      "note": 64,
      "start": 56.5478,
      "duration": 0.1123,
      "velocity": 97,
      "chip": "ym2612"
    },
    {
      "channel": 2,
      "note": 81,
      "start": 56.5509,
      "duration": 0.1095,
      "velocity": 121,
      "chip": "ym2612"
    },
    {
      "channel": 3,
      "note": 64,
      "start": 56.615,
      "duration": 0.1119,
      "velocity": 107,
      "chip": "ym2612"
    },
    {
      "channel": 0,
      "note": 63,
      "start": 56.6976,
      "duration": 0.1126,
      "velocity": 107,
      "chip": "ym2612"
    },
    {
      "channel": 1,
      "note": 45,
      "start": 56.7006,
      "duration": 0.1097,
      "velocity": 107,
      "chip": "ym2612"
    },
    {
      "channel": 2,
      "note": 81,
      "start": 56.7033,
      "duration": 0.3737,
      "velocity": 104,
      "chip": "ym2612"
    },
    {
      "channel": 3,
      "note": 64,
      "start": 56.7648,
      "duration": 0.1121,
      "velocity": 85,
      "chip": "ym2612"
    },
    {
      "channel": 0,
      "note": 62,
      "start": 56.8315,
      "duration": 0.1119,
      "velocity": 107,
      "chip": "ym2612"
    },
    {
      "channel": 1,
      "note": 45,
      "start": 56.8343,
      "duration": 0.1093,
      "velocity": 107,
      "chip": "ym2612"
    },
    {
      "channel": 3,
      "note": 63,
      "start": 56.9146,
      "duration": 0.1123,
      "velocity": 107,
      "chip": "ym2612"
    },
    {
      "channel": 0,
      "note": 61,
      "start": 56.9811,
      "duration": 0.1124,
      "velocity": 103,
      "chip": "ym2612"
    },
    {
      "channel": 3,
      "note": 62,
      "start": 57.0484,
      "duration": 0.1118,
      "velocity": 107,
      "chip": "ym2612"
    },
    {
      "channel": 0,
      "note": 60,
      "start": 57.1311,
      "duration": 0.1124,
      "velocity": 107,
      "chip": "ym2612"
    },
    {
      "channel": 2,
      "note": 81,
      "start": 57.1339,
      "duration": 0.1099,
      "velocity": 104,
      "chip": "ym2612"
    },
    {
      "channel": 3,
      "note": 61,
      "start": 57.198,
      "duration": 0.1121,
      "velocity": 103,
      "chip": "ym2612"
    },
    {
      "channel": 0,
      "note": 60,
      "start": 57.2644,
      "duration": 0.1123,
      "velocity": 97,
      "chip": "ym2612"
    },
    {
      "channel": 5,
      "note": 53,
      "start": 57.2678,
      "duration": 0.1092,
      "velocity": 125,
      "chip": "ym2612"
    },
    {
      "channel": 3,
      "note": 60,
      "start": 57.348,
      "duration": 0.1122,
      "velocity": 107,
      "chip": "ym2612"
    },
    {
      "channel": 0,
      "note": 59,
      "start": 57.4145,
      "duration": 0.1122,
      "velocity": 107,
      "chip": "ym2612"
    },
    {
      "channel": 1,
      "note": 57,
      "start": 57.4172,
      "duration": 0.1097,
      "velocity": 107,
      "chip": "ym2612"
    },
    {
      "channel": 2,
      "note": 81,
      "start": 57.4197,
      "duration": 0.1074,
      "velocity": 121,
      "chip": "ym2612"
    },
    {
      "channel": 3,
      "note": 60,
      "start": 57.4813,
      "duration": 0.1123,
      "velocity": 85,
      "chip": "ym2612"
    },
    {
      "channel": 0,
      "note": 58,
      "start": 57.5643,
      "duration": 0.1125,
      "velocity": 107,
      "chip": "ym2612"
    },
    {
      "channel": 1,
      "note": 60,
      "start": 57.5668,
      "duration": 0.11,
      "velocity": 107,
      "chip": "ym2612"
    },
    {
      "channel": 2,
      "note": 81,
      "start": 57.5693,
      "duration": 0.1079,
      "velocity": 121,
      "chip": "ym2612"
    },
    {
      "channel": 3,
      "note": 59,
      "start": 57.6315,
      "duration": 0.112,
      "velocity": 107,
      "chip": "ym2612"
    },
    {
      "channel": 0,
      "note": 57,
      "start": 57.6978,
      "duration": 0.1123,
      "velocity": 107,
      "chip": "ym2612"
    },
    {
      "channel": 1,
      "note": 57,
      "start": 57.7003,
      "duration": 0.1099,
      "velocity": 107,
      "chip": "ym2612"
    },
    {
      "channel": 2,
      "note": 81,
      "start": 57.7028,
      "duration": 0.1076,
      "velocity": 121,
      "chip": "ym2612"
    },
    {
      "channel": 3,
      "note": 58,
      "start": 57.7814,
      "duration": 0.112,
      "velocity": 107,
      "chip": "ym2612"
    },
    {
      "channel": 0,
      "note": 57,
      "start": 57.8479,
      "duration": 0.1121,
      "velocity": 107,
      "chip": "ym2612"
    },
    {
      "channel": 1,
      "note": 45,
      "start": 57.8507,
      "duration": 0.1095,
      "velocity": 107,
      "chip": "ym2612"
    },
    {
      "channel": 2,
      "note": 81,
      "start": 57.8558,
      "duration": 0.5212,
      "velocity": 104,
      "chip": "ym2612"
    },
    {
      "channel": 3,
      "note": 57,
      "start": 57.9147,
      "duration": 0.1122,
      "velocity": 107,
      "chip": "ym2612"
    },
    {
      "channel": 0,
      "note": 57,
      "start": 57.9976,
      "duration": 0.1124,
      "velocity": 107,
      "chip": "ym2612"
    },
    {
      "channel": 3,
      "note": 57,
      "start": 58.0649,
      "duration": 0.1119,
      "velocity": 107,
      "chip": "ym2612"
    },
    {
      "channel": 0,
      "note": 57,
      "start": 58.131,
      "duration": 0.129,
      "velocity": 107,
      "chip": "ym2612"
    },
    {
      "channel": 1,
      "note": 45,
      "start": 58.1337,
      "duration": 0.1264,
      "velocity": 107,
      "chip": "ym2612"
    },
    {
      "channel": 3,
      "note": 57,
      "start": 58.2146,
      "duration": 0.1123,
      "velocity": 107,
      "chip": "ym2612"
    },
    {
      "channel": 0,
      "note": 57,
      "start": 58.2813,
      "duration": 0.1122,
      "velocity": 107,
      "chip": "ym2612"
    },
    {
      "channel": 3,
      "note": 57,
      "start": 58.3479,
      "duration": 0.129,
      "velocity": 107,
      "chip": "ym2612"
    },
    {
      "channel": 0,
      "note": 57,
      "start": 58.431,
      "duration": 0.1125,
      "velocity": 107,
      "chip": "ym2612"
    },
    {
      "channel": 2,
      "note": 81,
      "start": 58.4338,
      "duration": 0.11,
      "velocity": 121,
      "chip": "ym2612"
    },
    {
      "channel": 5,
      "note": 53,
      "start": 58.4367,
      "duration": 0.1735,
      "velocity": 125,
      "chip": "ym2612"
    },
    {
      "channel": 3,
      "note": 57,
      "start": 58.4983,
      "duration": 0.1118,
      "velocity": 107,
      "chip": "ym2612"
    },
    {
      "channel": 0,
      "note": 57,
      "start": 58.5644,
      "duration": 0.1289,
      "velocity": 107,
      "chip": "ym2612"
    },
    {
      "channel": 2,
      "note": 81,
      "start": 58.567,
      "duration": 0.1266,
      "velocity": 121,
      "chip": "ym2612"
    },
    {
      "channel": 3,
      "note": 57,
      "start": 58.6479,
      "duration": 0.1123,
      "velocity": 107,
      "chip": "ym2612"
    },
    {
      "channel": 0,
      "note": 57,
      "start": 58.7145,
      "duration": 0.1122,
      "velocity": 107,
      "chip": "ym2612"
    },
    {
      "channel": 2,
      "note": 81,
      "start": 58.7172,
      "duration": 0.1099,
      "velocity": 121,
      "chip": "ym2612"
    },
    {
      "channel": 3,
      "note": 57,
      "start": 58.7812,
      "duration": 0.129,
      "velocity": 107,
      "chip": "ym2612"
    },
    {
      "channel": 0,
      "note": 57,
      "start": 58.8641,
      "duration": 0.1127,
      "velocity": 107,
      "chip": "ym2612"
    },
    {
      "channel": 2,
      "note": 81,
      "start": 58.8672,
      "duration": 0.1099,
      "velocity": 121,
      "chip": "ym2612"
    },
    {
      "channel": 3,
      "note": 57,
      "start": 58.9316,
      "duration": 0.112,
      "velocity": 107,
      "chip": "ym2612"
    },
    {
      "channel": 0,
      "note": 57,
      "start": 58.9977,
      "duration": 0.129,
      "velocity": 103,
      "chip": "ym2612"
    },
    {
      "channel": 1,
      "note": 45,
      "start": 59.0005,
      "duration": 0.1264,
      "velocity": 107,
      "chip": "ym2612"
    },
    {
      "channel": 2,
      "note": 81,
      "start": 59.0031,
      "duration": 0.374,
      "velocity": 104,
      "chip": "ym2612"
    },
    {
      "channel": 3,
      "note": 57,
      "start": 59.0813,
      "duration": 0.1122,
      "velocity": 107,
      "chip": "ym2612"
    },
    {
      "channel": 0,
      "note": 57,
      "start": 59.1479,
      "duration": 0.1122,
      "velocity": 107,
      "chip": "ym2612"
    },
    {
      "channel": 1,
      "note": 45,
      "start": 59.1506,
      "duration": 0.1096,
      "velocity": 107,
      "chip": "ym2612"
    },
    {
      "channel": 3,
      "note": 57,
      "start": 59.2147,
      "duration": 0.1288,
      "velocity": 103,
      "chip": "ym2612"
    },
    {
      "channel": 0,
      "note": 57,
      "start": 59.2975,
      "duration": 0.1125,
      "velocity": 103,
      "chip": "ym2612"
    },
    {
      "channel": 3,
      "note": 57,
      "start": 59.3648,
      "duration": 0.112,
      "velocity": 107,
      "chip": "ym2612"
    },
    {
      "channel": 0,
      "note": 57,
      "start": 59.4308,
      "duration": 0.1293,
      "velocity": 107,
      "chip": "ym2612"
    },
    {
      "channel": 2,
      "note": 81,
      "start": 59.4337,
      "duration": 0.1267,
      "velocity": 104,
      "chip": "ym2612"
    },
    {
      "channel": 3,
      "note": 57,
      "start": 59.5146,
      "duration": 0.1122,
      "velocity": 103,
      "chip": "ym2612"
    },
    {
      "channel": 0,
      "note": 57,
      "start": 59.581,
      "duration": 0.1124,
      "velocity": 107,
      "chip": "ym2612"
    },
    {
      "channel": 5,
      "note": 53,
      "start": 59.5843,
      "duration": 0.1094,
      "velocity": 125,
      "chip": "ym2612"
    },
    {
      "channel": 3,
      "note": 57,
      "start": 59.6477,
      "duration": 0.1291,
      "velocity": 107,
      "chip": "ym2612"
    },
    {
      "channel": 0,
      "note": 57,
      "start": 59.7314,
      "duration": 0.112,
      "velocity": 97,
      "chip": "ym2612"
    },
    {
      "channel": 1,
      "note": 52,
      "start": 59.7344,
      "duration": 0.109,
      "velocity": 107,
      "chip": "ym2612"
    },
    {
      "channel": 2,
      "note": 81,
      "start": 59.7369,
      "duration": 0.1069,
      "velocity": 121,
      "chip": "ym2612"
    },
    {
      "channel": 3,
      "note": 57,
      "start": 59.7979,
      "duration": 0.1123,
      "velocity": 107,
      "chip": "ym2612"
    },
    {
      "channel": 0,
      "note": 57,
      "start": 59.8642,
      "duration": 0.1293,
      "velocity": 107,
      "chip": "ym2612"
    },
    {
      "channel": 1,
      "note": 54,
      "start": 59.8668,
      "duration": 0.1268,
      "velocity": 107,
      "chip": "ym2612"
    },
    {
      "channel": 2,
      "note": 81,
      "start": 59.8693,
      "duration": 0.1247,
      "velocity": 121,
      "chip": "ym2612"
    },
    {
      "channel": 3,
      "note": 57,
      "start": 59.9484,
      "duration": 0.1117,
      "velocity": 85,
      "chip": "ym2612"
    },
    {
      "channel": 0,
      "note": 57,
      "start": 60.0141,
      "duration": 0.1126,
      "velocity": 107,
      "chip": "ym2612"
    },
    {
      "channel": 1,
      "note": 55,
      "start": 60.0167,
      "duration": 0.1102,
      "velocity": 107,
      "chip": "ym2612"
    },
    {
      "channel": 2,
      "note": 81,
      "start": 60.0192,
      "duration": 0.108,
      "velocity": 121,
      "chip": "ym2612"
    },
    {
      "channel": 3,
      "note": 57,
      "start": 60.0813,
      "duration": 0.1289,
      "velocity": 107,
      "chip": "ym2612"
    },
    {
      "channel": 0,
      "note": 69,
      "start": 60.1687,
      "duration": 0.108,
      "velocity": 107,
      "chip": "ym2612"
    },
    {
      "channel": 1,
      "note": 45,
      "start": 60.1724,
      "duration": 0.1044,
      "velocity": 107,
      "chip": "ym2612"
    },
    {
      "channel": 2,
      "note": 81,
      "start": 60.1777,
      "duration": 0.5159,
      "velocity": 104,
      "chip": "ym2612"
    },
    {
      "channel": 0,
      "note": 68,
      "start": 60.2977,
      "duration": 0.1291,
      "velocity": 107,
      "chip": "ym2612"
    },
    {
      "channel": 3,
      "note": 69,
      "start": 60.3843,
      "duration": 0.1092,
      "velocity": 107,
      "chip": "ym2612"
    },
    {
      "channel": 0,
      "note": 67,
      "start": 60.4478,
      "duration": 0.1122,
      "velocity": 107,
      "chip": "ym2612"
    },
    {
      "channel": 1,
      "note": 45,
      "start": 60.4505,
      "duration": 0.1096,
      "velocity": 107,
      "chip": "ym2612"
    },
    {
      "channel": 3,
      "note": 68,
      "start": 60.5147,
      "duration": 0.1288,
      "velocity": 107,
      "chip": "ym2612"
    },
    {
      "channel": 0,
      "note": 67,
      "start": 60.598,
      "duration": 0.1121,
      "velocity": 107,
      "chip": "ym2612"
    },
    {
      "channel": 3,
      "note": 67,
      "start": 60.6647,
      "duration": 0.1123,
      "velocity": 107,
      "chip": "ym2612"
    },
    {
      "channel": 0,
      "note": 66,
      "start": 60.731,
      "duration": 0.1291,
      "velocity": 103,
      "chip": "ym2612"
    },
    {
      "channel": 2,
      "note": 81,
      "start": 60.7338,
      "duration": 0.1266,
      "velocity": 121,
      "chip": "ym2612"
    },
    {
      "channel": 5,
      "note": 53,
      "start": 60.7367,
      "duration": 0.1901,
      "velocity": 125,
      "chip": "ym2612"
    },
    {
      "channel": 3,
      "note": 67,
      "start": 60.8151,
      "duration": 0.1117,
      "velocity": 107,
      "chip": "ym2612"
    },
    {
      "channel": 0,
      "note": 65,
      "start": 60.8809,
      "duration": 0.1125,
      "velocity": 107,
      "chip": "ym2612"
    },
    {
      "channel": 2,
      "note": 81,
      "start": 60.8836,
      "duration": 0.1101,
      "velocity": 121,
      "chip": "ym2612"
    },
    {
      "channel": 3,
      "note": 66,
      "start": 60.9645,
      "duration": 0.1123,
      "velocity": 103,
      "chip": "ym2612"
    },
    {
      "channel": 0,
      "note": 64,
      "start": 61.0314,
      "duration": 0.112,
      "velocity": 107,
      "chip": "ym2612"
    },
    {
      "channel": 2,
      "note": 81,
      "start": 61.0341,
      "duration": 0.1096,
      "velocity": 121,
      "chip": "ym2612"
    },
    {
      "channel": 3,
      "note": 65,
      "start": 61.0978,
      "duration": 0.1124,
      "velocity": 107,
      "chip": "ym2612"
    },
    {
      "channel": 0,
      "note": 64,
      "start": 61.1811,
      "duration": 0.1122,
      "velocity": 97,
      "chip": "ym2612"
    },
    {
      "channel": 2,
      "note": 81,
      "start": 61.1842,
      "duration": 0.1095,
      "velocity": 121,
      "chip": "ym2612"
    },
    {
      "channel": 3,
      "note": 64,
      "start": 61.2484,
      "duration": 0.1118,
      "velocity": 107,
      "chip": "ym2612"
    },
    {
      "channel": 0,
      "note": 63,
      "start": 61.3144,
      "duration": 0.1124,
      "velocity": 107,
      "chip": "ym2612"
    },
    {
      "channel": 1,
      "note": 45,
      "start": 61.3171,
      "duration": 0.1097,
      "velocity": 107,
      "chip": "ym2612"
    },
    {
      "channel": 2,
      "note": 81,
      "start": 61.3198,
      "duration": 0.3739,
      "velocity": 104,
      "chip": "ym2612"
    },
    {
      "channel": 3,
      "note": 64,
      "start": 61.3982,
      "duration": 0.112,
      "velocity": 85,
      "chip": "ym2612"
    },
    {
      "channel": 0,
      "note": 62,
      "start": 61.4647,
      "duration": 0.112,
      "velocity": 107,
      "chip": "ym2612"
    },
    {
      "channel": 1,
      "note": 45,
      "start": 61.4674,
      "duration": 0.1095,
      "velocity": 107,
      "chip": "ym2612"
    },
    {
      "channel": 3,
      "note": 63,
      "start": 61.5313,
      "duration": 0.1122,
      "velocity": 107,
      "chip": "ym2612"
    },
    {
      "channel": 0,
      "note": 61,
      "start": 61.6144,
      "duration": 0.1124,
      "velocity": 103,
      "chip": "ym2612"
    },
    {
      "channel": 3,
      "note": 62,
      "start": 61.6818,
      "duration": 0.1118,
      "velocity": 107,
      "chip": "ym2612"
    },
    {
      "channel": 0,
      "note": 60,
      "start": 61.7478,
      "duration": 0.1122,
      "velocity": 107,
      "chip": "ym2612"
    },
    {
      "channel": 2,
      "note": 81,
      "start": 61.7507,
      "duration": 0.1097,
      "velocity": 104,
      "chip": "ym2612"
    },
    {
      "channel": 3,
      "note": 61,
      "start": 61.8314,
      "duration": 0.1121,
      "velocity": 103,
      "chip": "ym2612"
    },
    {
      "channel": 0,
      "note": 60,
      "start": 61.8977,
      "duration": 0.1123,
      "velocity": 97,
      "chip": "ym2612"
    },
    {
      "channel": 1,
      "note": 64,
      "start": 61.9007,
      "duration": 0.1094,
      "velocity": 107,
      "chip": "ym2612"
    },
    {
      "channel": 5,
      "note": 53,
      "start": 61.9038,
      "duration": 0.1066,
      "velocity": 125,
      "chip": "ym2612"
    },
    {
      "channel": 3,
      "note": 60,
      "start": 61.9647,
      "duration": 0.1121,
      "velocity": 107,
      "chip": "ym2612"
    },
    {
      "channel": 0,
      "note": 59,
      "start": 62.0479,
      "duration": 0.1122,
      "velocity": 107,
      "chip": "ym2612"
    },
    {
      "channel": 1,
      "note": 67,
      "start": 62.0504,
      "duration": 0.1098,
      "velocity": 107,
      "chip": "ym2612"
    },
    {
      "channel": 2,
      "note": 81,
      "start": 62.0529,
      "duration": 0.1076,
      "velocity": 121,
      "chip": "ym2612"
    },
    {
      "channel": 3,
      "note": 60,
      "start": 62.1147,
      "duration": 0.1123,
      "velocity": 85,
      "chip": "ym2612"
    },
    {
      "channel": 0,
      "note": 58,
      "start": 62.1811,
      "duration": 0.1123,
      "velocity": 107,
      "chip": "ym2612"
    },
    {
      "channel": 1,
      "note": 64,
      "start": 62.1838,
      "duration": 0.1097,
      "velocity": 107,
      "chip": "ym2612"
    },
    {
      "channel": 2,
      "note": 81,
      "start": 62.1862,
      "duration": 0.1076,
      "velocity": 121,
      "chip": "ym2612"
    },
    {
      "channel": 3,
      "note": 59,
      "start": 62.2649,
      "duration": 0.112,
      "velocity": 107,
      "chip": "ym2612"
    },
    {
      "channel": 0,
      "note": 57,
      "start": 62.331,
      "duration": 0.1124,
      "velocity": 107,
      "chip": "ym2612"
    },
    {
      "channel": 2,
      "note": 81,
      "start": 62.3337,
      "duration": 0.1101,
      "velocity": 121,
      "chip": "ym2612"
    },
    {
      "channel": 3,
      "note": 58,
      "start": 62.398,
      "duration": 0.1288,
      "velocity": 107,
      "chip": "ym2612"
    },
    {
      "channel": 0,
      "note": 57,
      "start": 62.4813,
      "duration": 0.1122,
      "velocity": 107,
      "chip": "ym2612"
    },
    {
      "channel": 1,
      "note": 45,
      "start": 62.484,
      "duration": 0.1095,
      "velocity": 107,
      "chip": "ym2612"
    },
    {
      "channel": 2,
      "note": 81,
      "start": 62.4891,
      "duration": 0.5046,
      "velocity": 104,
      "chip": "ym2612"
    },
    {
      "channel": 3,
      "note": 57,
      "start": 62.5479,
      "duration": 0.1123,
      "velocity": 107,
      "chip": "ym2612"
    },
    {
      "channel": 0,
      "note": 57,
      "start": 62.6141,
      "duration": 0.1293,
      "velocity": 107,
      "chip": "ym2612"
    },
    {
      "channel": 3,
      "note": 57,
      "start": 62.6983,
      "duration": 0.1118,
      "velocity": 107,
      "chip": "ym2612"
    },
    {
      "channel": 0,
      "note": 57,
      "start": 62.7643,
      "duration": 0.1124,
      "velocity": 107,
      "chip": "ym2612"
    },
    {
      "channel": 1,
      "note": 45,
      "start": 62.767,
      "duration": 0.1098,
      "velocity": 107,
      "chip": "ym2612"
    },
    {
      "channel": 3,
      "note": 57,
      "start": 62.8313,
      "duration": 0.1289,
      "velocity": 107,
      "chip": "ym2612"
    },
    {
      "channel": 0,
      "note": 57,
      "start": 62.9146,
      "duration": 0.1122,
      "velocity": 107,
      "chip": "ym2612"
    },
    {
      "channel": 3,
      "note": 57,
      "start": 62.9813,
      "duration": 0.1122,
      "velocity": 107,
      "chip": "ym2612"
    },
    {
      "channel": 0,
      "note": 57,
      "start": 63.0476,
      "duration": 0.1292,
      "velocity": 107,
      "chip": "ym2612"
    },
    {
      "channel": 2,
      "note": 81,
      "start": 63.0505,
      "duration": 0.1266,
      "velocity": 121,
      "chip": "ym2612"
    },
    {
      "channel": 5,
      "note": 53,
      "start": 63.0535,
      "duration": 0.1901,
      "velocity": 125,
      "chip": "ym2612"
    },
    {
      "channel": 3,
      "note": 57,
      "start": 63.1316,
      "duration": 0.1118,
      "velocity": 107,
      "chip": "ym2612"
    },
    {
      "channel": 0,
      "note": 57,
      "start": 63.1977,
      "duration": 0.1123,
      "velocity": 107,
      "chip": "ym2612"
    },
    {
      "channel": 2,
      "note": 81,
      "start": 63.2003,
      "duration": 0.1099,
      "velocity": 121,
      "chip": "ym2612"
    },
    {
      "channel": 3,
      "note": 57,
      "start": 63.2645,
      "duration": 0.1289,
      "velocity": 107,
      "chip": "ym2612"
    },
    {
      "channel": 0,
      "note": 57,
      "start": 63.3479,
      "duration": 0.1121,
      "velocity": 107,
      "chip": "ym2612"
    },
    {
      "channel": 2,
      "note": 81,
      "start": 63.3506,
      "duration": 0.1097,
      "velocity": 121,
      "chip": "ym2612"
    },
    {
      "channel": 3,
      "note": 57,
      "start": 63.4145,
      "duration": 0.1124,
      "velocity": 107,
      "chip": "ym2612"
    },
    {
      "channel": 0,
      "note": 57,
      "start": 63.4809,
      "duration": 0.1292,
      "velocity": 107,
      "chip": "ym2612"
    },
    {
      "channel": 2,
      "note": 81,
      "start": 63.4839,
      "duration": 0.1265,
      "velocity": 121,
      "chip": "ym2612"
    },
    {
      "channel": 3,
      "note": 57,
      "start": 63.565,
      "duration": 0.1119,
      "velocity": 107,
      "chip": "ym2612"
    },
    {
      "channel": 0,
      "note": 57,
      "start": 63.631,
      "duration": 0.1123,
      "velocity": 103,
      "chip": "ym2612"
    },
    {
      "channel": 1,
      "note": 45,
      "start": 63.6337,
      "duration": 0.1097,
      "velocity": 107,
      "chip": "ym2612"
    },
    {
      "channel": 2,
      "note": 81,
      "start": 63.6363,
      "duration": 0.3741,
      "velocity": 104,
      "chip": "ym2612"
    },
    {
      "channel": 3,
      "note": 57,
      "start": 63.6979,
      "duration": 0.129,
      "velocity": 107,
      "chip": "ym2612"
    },
    {
      "channel": 0,
      "note": 57,
      "start": 63.7811,
      "duration": 0.1122,
      "velocity": 107,
      "chip": "ym2612"
    },
    {
      "channel": 1,
      "note": 45,
      "start": 63.7841,
      "duration": 0.1093,
      "velocity": 107,
      "chip": "ym2612"
    },
    {
      "channel": 3,
      "note": 57,
      "start": 63.8479,
      "duration": 0.1123,
      "velocity": 103,
      "chip": "ym2612"
    },
    {
      "channel": 0,
      "note": 57,
      "start": 63.9144,
      "duration": 0.129,
      "velocity": 103,
      "chip": "ym2612"
    },
    {
      "channel": 3,
      "note": 57,
      "start": 63.9981,
      "duration": 0.112,
      "velocity": 107,
      "chip": "ym2612"
    },
    {
      "channel": 0,
      "note": 57,
      "start": 64.0641,
      "duration": 0.1126,
      "velocity": 107,
      "chip": "ym2612"
    },
    {
      "channel": 2,
      "note": 81,
      "start": 64.067,
      "duration": 0.1101,
      "velocity": 104,
      "chip": "ym2612"
    },
    {
      "channel": 3,
      "note": 57,
      "start": 64.1313,
      "duration": 0.1289,
      "velocity": 103,
      "chip": "ym2612"
    },
    {
      "channel": 0,
      "note": 57,
      "start": 64.2142,
      "duration": 0.1125,
      "velocity": 107,
      "chip": "ym2612"
    },
    {
      "channel": 5,
      "note": 53,
      "start": 64.2176,
      "duration": 0.1094,
      "velocity": 125,
      "chip": "ym2612"
    },
    {
      "channel": 3,
      "note": 57,
      "start": 64.281,
      "duration": 0.1125,
      "velocity": 107,
      "chip": "ym2612"
    },
    {
      "channel": 0,
      "note": 57,
      "start": 64.348,
      "duration": 0.1286,
      "velocity": 97,
      "chip": "ym2612"
    },
    {
      "channel": 1,
      "note": 57,
      "start": 64.3508,
      "duration": 0.126,
      "velocity": 107,
      "chip": "ym2612"
    },
    {
      "channel": 2,
      "note": 81,
      "start": 64.3533,
      "duration": 0.1238,
      "velocity": 121,
      "chip": "ym2612"
    },
    {
      "channel": 3,
      "note": 57,
      "start": 64.4311,
      "duration": 0.1123,
      "velocity": 107,
      "chip": "ym2612"
    },
    {
      "channel": 0,
      "note": 57,
      "start": 64.4976,
      "duration": 0.1125,
      "velocity": 107,
      "chip": "ym2612"
    },
    {
      "channel": 1,
      "note": 60,
      "start": 64.5002,
      "duration": 0.11,
      "velocity": 107,
      "chip": "ym2612"
    },
    {
      "channel": 2,
      "note": 81,
      "start": 64.5026,
      "duration": 0.1079,
      "velocity": 121,
      "chip": "ym2612"
    },
    {
      "channel": 3,
      "note": 57,
      "start": 64.565,
      "duration": 0.1286,
      "velocity": 85,
      "chip": "ym2612"
    },
    {
      "channel": 0,
      "note": 57,
      "start": 64.6473,
      "duration": 0.1127,
      "velocity": 107,
      "chip": "ym2612"
    },
    {
      "channel": 1,
      "note": 57,
      "start": 64.6498,
      "duration": 0.1103,
      "velocity": 107,
      "chip": "ym2612"
    },
    {
      "channel": 2,
      "note": 81,
      "start": 64.6523,
      "duration": 0.1081,
      "velocity": 121,
      "chip": "ym2612"
    },
    {
      "channel": 3,
      "note": 57,
      "start": 64.7146,
      "duration": 0.1122,
      "velocity": 107,
      "chip": "ym2612"
    },
    {
      "channel": 0,
      "note": 69,
      "start": 64.7853,
      "duration": 0.1247,
      "velocity": 107,
      "chip": "ym2612"
    },
    {
      "channel": 1,
      "note": 45,
      "start": 64.789,
      "duration": 0.1211,
      "velocity": 107,
      "chip": "ym2612"
    },
    {
      "channel": 2,
      "note": 81,
      "start": 64.7944,
      "duration": 0.5159,
      "velocity": 104,
      "chip": "ym2612"
    },
    {
      "channel": 0,
      "note": 68,
      "start": 64.931,
      "duration": 0.1124,
      "velocity": 107,
      "chip": "ym2612"
    },
    {
      "channel": 3,
      "note": 69,
      "start": 65.0009,
      "duration": 0.1259,
      "velocity": 107,
      "chip": "ym2612"
    },
    {
      "channel": 0,
      "note": 67,
      "start": 65.0811,
      "duration": 0.1124,
      "velocity": 107,
      "chip": "ym2612"
    },
    {
      "channel": 1,
      "note": 45,
      "start": 65.0838,
      "duration": 0.1098,
      "velocity": 107,
      "chip": "ym2612"
    },
    {
      "channel": 3,
      "note": 68,
      "start": 65.148,
      "duration": 0.1121,
      "velocity": 107,
      "chip": "ym2612"
    },
    {
      "channel": 0,
      "note": 67,
      "start": 65.2313,
      "duration": 0.1121,
      "velocity": 107,
      "chip": "ym2612"
    },
    {
      "channel": 3,
      "note": 67,
      "start": 65.298,
      "duration": 0.1121,
      "velocity": 107,
      "chip": "ym2612"
    },
    {
      "channel": 0,
      "note": 66,
      "start": 65.3643,
      "duration": 0.1125,
      "velocity": 103,
      "chip": "ym2612"
    },
    {
      "channel": 2,
      "note": 81,
      "start": 65.3671,
      "duration": 0.1099,
      "velocity": 121,
      "chip": "ym2612"
    },
    {
      "channel": 5,
      "note": 53,
      "start": 65.3701,
      "duration": 0.1903,
      "velocity": 125,
      "chip": "ym2612"
    },
    {
      "channel": 3,
      "note": 67,
      "start": 65.4484,
      "duration": 0.1117,
      "velocity": 107,
      "chip": "ym2612"
    },
    {
      "channel": 0,
      "note": 65,
      "start": 65.5142,
      "duration": 0.1123,
      "velocity": 107,
      "chip": "ym2612"
    },
    {
      "channel": 2,
      "note": 81,
      "start": 65.5169,
      "duration": 0.11,
      "velocity": 121,
      "chip": "ym2612"
    },
    {
      "channel": 3,
      "note": 66,
      "start": 65.5812,
      "duration": 0.1122,
      "velocity": 103,
      "chip": "ym2612"
    },
    {
      "channel": 0,
      "note": 64,
      "start": 65.6648,
      "duration": 0.1119,
      "velocity": 107,
      "chip": "ym2612"
    },
    {
      "channel": 2,
      "note": 81,
      "start": 65.6675,
      "duration": 0.1095,
      "velocity": 121,
      "chip": "ym2612"
    },
    {
      "channel": 3,
      "note": 65,
      "start": 65.7311,
      "duration": 0.1125,
      "velocity": 107,
      "chip": "ym2612"
    },
    {
      "channel": 0,
      "note": 64,
      "start": 65.7977,
      "duration": 0.1124,
      "velocity": 97,
      "chip": "ym2612"
    },
    {
      "channel": 2,
      "note": 81,
      "start": 65.8008,
      "duration": 0.1097,
      "velocity": 121,
      "chip": "ym2612"
    },
    {
      "channel": 3,
      "note": 64,
      "start": 65.8818,
      "duration": 0.1117,
      "velocity": 107,
      "chip": "ym2612"
    },
    {
      "channel": 0,
      "note": 63,
      "start": 65.9476,
      "duration": 0.1125,
      "velocity": 107,
      "chip": "ym2612"
    },
    {
      "channel": 1,
      "note": 45,
      "start": 65.9503,
      "duration": 0.1098,
      "velocity": 107,
      "chip": "ym2612"
    },
    {
      "channel": 2,
      "note": 81,
      "start": 65.9529,
      "duration": 0.374,
      "velocity": 104,
      "chip": "ym2612"
    },
    {
      "channel": 3,
      "note": 64,
      "start": 66.0148,
      "duration": 0.112,
      "velocity": 85,
      "chip": "ym2612"
    },
    {
      "channel": 0,
      "note": 62,
      "start": 66.098,
      "duration": 0.112,
      "velocity": 107,
      "chip": "ym2612"
    },
    {
      "channel": 1,
      "note": 45,
      "start": 66.1008,
      "duration": 0.1094,
      "velocity": 107,
      "chip": "ym2612"
    },
    {
      "channel": 3,
      "note": 63,
      "start": 66.1645,
      "duration": 0.1123,
      "velocity": 107,
      "chip": "ym2612"
    },
    {
      "channel": 0,
      "note": 61,
      "start": 66.2311,
      "duration": 0.1124,
      "velocity": 103,
      "chip": "ym2612"
    },
    {
      "channel": 3,
      "note": 62,
      "start": 66.3151,
      "duration": 0.1117,
      "velocity": 107,
      "chip": "ym2612"
    },
    {
      "channel": 0,
      "note": 60,
      "start": 66.381,
      "duration": 0.1125,
      "velocity": 107,
      "chip": "ym2612"
    },
    {
      "channel": 1,
      "note": 52,
      "start": 66.3837,
      "duration": 0.1099,
      "velocity": 107,
      "chip": "ym2612"
    },
    {
      "channel": 2,
      "note": 81,
      "start": 66.3863,
      "duration": 0.1076,
      "velocity": 104,
      "chip": "ym2612"
    },
    {
      "channel": 3,
      "note": 61,
      "start": 66.448,
      "duration": 0.1122,
      "velocity": 103,
      "chip": "ym2612"
    },
    {
      "channel": 0,
      "note": 60,
      "start": 66.531,
      "duration": 0.1124,
      "velocity": 97,
      "chip": "ym2612"
    },
    {
      "channel": 1,
      "note": 55,
      "start": 66.5336,
      "duration": 0.11,
      "velocity": 107,
      "chip": "ym2612"
    },
    {
      "channel": 5,
      "note": 53,
      "start": 66.5367,
      "duration": 0.1071,
      "velocity": 125,
      "chip": "ym2612"
    },
    {
      "channel": 3,
      "note": 60,
      "start": 66.598,
      "duration": 0.1122,
      "velocity": 107,
      "chip": "ym2612"
    },
    {
      "channel": 0,
      "note": 59,
      "start": 66.6646,
      "duration": 0.1288,
      "velocity": 107,
      "chip": "ym2612"
    },
    {
      "channel": 1,
      "note": 52,
      "start": 66.6675,
      "duration": 0.126,
      "velocity": 107,
      "chip": "ym2612"
    },
    {
      "channel": 2,
      "note": 81,
      "start": 66.6699,
      "duration": 0.1238,
      "velocity": 121,
      "chip": "ym2612"
    },
    {
      "channel": 3,
      "note": 60,
      "start": 66.748,
      "duration": 0.1121,
      "velocity": 85,
      "chip": "ym2612"
    },
    {
      "channel": 0,
      "note": 58,
      "start": 66.8144,
      "duration": 0.1123,
      "velocity": 107,
      "chip": "ym2612"
    },
    {
      "channel": 1,
      "note": 55,
      "start": 66.8171,
      "duration": 0.1098,
      "velocity": 107,
      "chip": "ym2612"
    },
    {
      "channel": 2,
      "note": 81,
      "start": 66.8195,
      "duration": 0.1076,
      "velocity": 121,
      "chip": "ym2612"
    },
    {
      "channel": 3,
      "note": 59,
      "start": 66.8815,
      "duration": 0.1287,
      "velocity": 107,
      "chip": "ym2612"
    },
    {
      "channel": 0,
      "note": 57,
      "start": 66.9643,
      "duration": 0.1125,
      "velocity": 107,
      "chip": "ym2612"
    },
    {
      "channel": 2,
      "note": 81,
      "start": 66.967,
      "duration": 0.1101,
      "velocity": 121,
      "chip": "ym2612"
    },
    {
      "channel": 3,
      "note": 58,
      "start": 67.0313,
      "duration": 0.1121,
      "velocity": 107,
      "chip": "ym2612"
    },
    {
      "channel": 0,
      "note": 57,
      "start": 67.098,
      "duration": 0.1285,
      "velocity": 107,
      "chip": "ym2612"
    },
    {
      "channel": 1,
      "note": 45,
      "start": 67.1005,
      "duration": 0.1262,
      "velocity": 107,
      "chip": "ym2612"
    },
    {
      "channel": 2,
      "note": 81,
      "start": 67.1057,
      "duration": 0.5213,
      "velocity": 104,
      "chip": "ym2612"
    },
    {
      "channel": 3,
      "note": 57,
      "start": 67.1813,
      "duration": 0.1122,
      "velocity": 107,
      "chip": "ym2612"
    },
    {
      "channel": 0,
      "note": 57,
      "start": 67.2476,
      "duration": 0.1126,
      "velocity": 107,
      "chip": "ym2612"
    },
    {
      "channel": 3,
      "note": 57,
      "start": 67.3149,
      "duration": 0.1285,
      "velocity": 107,
      "chip": "ym2612"
    },
    {
      "channel": 0,
      "note": 57,
      "start": 67.3976,
      "duration": 0.1125,
      "velocity": 107,
      "chip": "ym2612"
    },
    {
      "channel": 1,
      "note": 45,
      "start": 67.4003,
      "duration": 0.1099,
      "velocity": 107,
      "chip": "ym2612"
    },
    {
      "channel": 3,
      "note": 57,
      "start": 67.4646,
      "duration": 0.1122,
      "velocity": 107,
      "chip": "ym2612"
    },
    {
      "channel": 0,
      "note": 57,
      "start": 67.5313,
      "duration": 0.1288,
      "velocity": 107,
      "chip": "ym2612"
    },
    {
      "channel": 3,
      "note": 57,
      "start": 67.6145,
      "duration": 0.1123,
      "velocity": 107,
      "chip": "ym2612"
    },
    {
      "channel": 0,
      "note": 57,
      "start": 67.6811,
      "duration": 0.1124,
      "velocity": 107,
      "chip": "ym2612"
    },
    {
      "channel": 2,
      "note": 81,
      "start": 67.6839,
      "duration": 0.1098,
      "velocity": 121,
      "chip": "ym2612"
    },
    {
      "channel": 5,
      "note": 53,
      "start": 67.6869,
      "duration": 0.1901,
      "velocity": 125,
      "chip": "ym2612"
    },
    {
      "channel": 3,
      "note": 57,
      "start": 67.7483,
      "duration": 0.1285,
      "velocity": 107,
      "chip": "ym2612"
    },
    {
      "channel": 0,
      "note": 57,
      "start": 67.8309,
      "duration": 0.1124,
      "velocity": 107,
      "chip": "ym2612"
    },
    {
      "channel": 2,
      "note": 81,
      "start": 67.8336,
      "duration": 0.11,
      "velocity": 121,
      "chip": "ym2612"
    },
    {
      "channel": 3,
      "note": 57,
      "start": 67.8979,
      "duration": 0.1123,
      "velocity": 107,
      "chip": "ym2612"
    },
    {
      "channel": 0,
      "note": 57,
      "start": 67.9645,
      "duration": 0.1289,
      "velocity": 107,
      "chip": "ym2612"
    },
    {
      "channel": 2,
      "note": 81,
      "start": 67.9672,
      "duration": 0.1265,
      "velocity": 121,
      "chip": "ym2612"
    },
    {
      "channel": 3,
      "note": 57,
      "start": 68.0479,
      "duration": 0.1123,
      "velocity": 107,
      "chip": "ym2612"
    },
    {
      "channel": 0,
      "note": 57,
      "start": 68.1143,
      "duration": 0.1125,
      "velocity": 107,
      "chip": "ym2612"
    },
    {
      "channel": 2,
      "note": 81,
      "start": 68.1173,
      "duration": 0.1098,
      "velocity": 121,
      "chip": "ym2612"
    },
    {
      "channel": 3,
      "note": 57,
      "start": 68.1816,
      "duration": 0.1285,
      "velocity": 107,
      "chip": "ym2612"
    },
    {
      "channel": 0,
      "note": 57,
      "start": 68.2641,
      "duration": 0.1126,
      "velocity": 103,
      "chip": "ym2612"
    },
    {
      "channel": 1,
      "note": 45,
      "start": 68.2669,
      "duration": 0.11,
      "velocity": 107,
      "chip": "ym2612"
    },
    {
      "channel": 2,
      "note": 81,
      "start": 68.2695,
      "duration": 0.3741,
      "velocity": 104,
      "chip": "ym2612"
    },
    {
      "channel": 3,
      "note": 57,
      "start": 68.3313,
      "duration": 0.1122,
      "velocity": 107,
      "chip": "ym2612"
    },
    {
      "channel": 0,
      "note": 57,
      "start": 68.3978,
      "duration": 0.129,
      "velocity": 107,
      "chip": "ym2612"
    },
    {
      "channel": 1,
      "note": 45,
      "start": 68.4005,
      "duration": 0.1263,
      "velocity": 107,
      "chip": "ym2612"
    },
    {
      "channel": 3,
      "note": 57,
      "start": 68.4813,
      "duration": 0.1122,
      "velocity": 103,
      "chip": "ym2612"
    },
    {
      "channel": 0,
      "note": 57,
      "start": 68.5477,
      "duration": 0.1124,
      "velocity": 103,
      "chip": "ym2612"
    },
    {
      "channel": 3,
      "note": 57,
      "start": 68.6147,
      "duration": 0.1288,
      "velocity": 107,
      "chip": "ym2612"
    },
    {
      "channel": 0,
      "note": 57,
      "start": 68.6973,
      "duration": 0.1128,
      "velocity": 107,
      "chip": "ym2612"
    },
    {
      "channel": 2,
      "note": 81,
      "start": 68.7002,
      "duration": 0.1102,
      "velocity": 104,
      "chip": "ym2612"
    },
    {
      "channel": 3,
      "note": 57,
      "start": 68.7646,
      "duration": 0.1123,
      "velocity": 103,
      "chip": "ym2612"
    },
    {
      "channel": 0,
      "note": 57,
      "start": 68.8311,
      "duration": 0.1291,
      "velocity": 107,
      "chip": "ym2612"
    },
    {
      "channel": 5,
      "note": 53,
      "start": 68.8344,
      "duration": 0.126,
      "velocity": 125,
      "chip": "ym2612"
    },
    {
      "channel": 3,
      "note": 57,
      "start": 68.9144,
      "duration": 0.1124,
      "velocity": 107,
      "chip": "ym2612"
    },
    {
      "channel": 0,
      "note": 57,
      "start": 68.9815,
      "duration": 0.1118,
      "velocity": 97,
      "chip": "ym2612"
    },
    {
      "channel": 1,
      "note": 57,
      "start": 68.9842,
      "duration": 0.1093,
      "velocity": 107,
      "chip": "ym2612"
    },
    {
      "channel": 2,
      "note": 81,
      "start": 68.9867,
      "duration": 0.1071,
      "velocity": 121,
      "chip": "ym2612"
    },
    {
      "channel": 3,
      "note": 57,
      "start": 69.0479,
      "duration": 0.1289,
      "velocity": 107,
      "chip": "ym2612"
    },
    {
      "channel": 0,
      "note": 57,
      "start": 69.1309,
      "duration": 0.1125,
      "velocity": 107,
      "chip": "ym2612"
    },
    {
      "channel": 1,
      "note": 59,
      "start": 69.1334,
      "duration": 0.11,
      "velocity": 107,
      "chip": "ym2612"
    },
    {
      "channel": 2,
      "note": 81,
      "start": 69.1359,
      "duration": 0.1079,
      "velocity": 121,
      "chip": "ym2612"
    },
    {
      "channel": 3,
      "note": 57,
      "start": 69.1984,
      "duration": 0.1117,
      "velocity": 85,
      "chip": "ym2612"
    },
    {
      "channel": 0,
      "note": 57,
      "start": 69.2641,
      "duration": 0.1293,
      "velocity": 107,
      "chip": "ym2612"
    },
    {
      "channel": 1,
      "note": 60,
      "start": 69.2667,
      "duration": 0.1269,
      "velocity": 107,
      "chip": "ym2612"
    },
    {
      "channel": 2,
      "note": 81,
      "start": 69.2692,
      "duration": 0.1247,
      "velocity": 121,
      "chip": "ym2612"
    },
    {
      "channel": 3,
      "note": 57,
      "start": 69.3479,
      "duration": 0.1123,
      "velocity": 107,
      "chip": "ym2612"
    },
    {
      "channel": 0,
      "note": 69,
      "start": 69.4187,
      "duration": 0.1081,
      "velocity": 107,
      "chip": "ym2612"
    },
    {
      "channel": 1,
      "note": 45,
      "start": 69.4224,
      "duration": 0.1045,
      "velocity": 107,
      "chip": "ym2612"
    },
    {
      "channel": 2,
      "note": 81,
      "start": 69.4278,
      "duration": 0.5159,
      "velocity": 104,
      "chip": "ym2612"
    },
    {
      "channel": 0,
      "note": 68,
      "start": 69.5643,
      "duration": 0.1125,
      "velocity": 107,
      "chip": "ym2612"
    },
    {
      "channel": 3,
      "note": 69,
      "start": 69.6342,
      "duration": 0.1093,
      "velocity": 107,
      "chip": "ym2612"
    },
    {
      "channel": 0,
      "note": 67,
      "start": 69.7144,
      "duration": 0.1124,
      "velocity": 107,
      "chip": "ym2612"
    },
    {
      "channel": 1,
      "note": 45,
      "start": 69.7174,
      "duration": 0.1095,
      "velocity": 107,
      "chip": "ym2612"
    },
    {
      "channel": 3,
      "note": 68,
      "start": 69.7813,
      "duration": 0.1121,
      "velocity": 107,
      "chip": "ym2612"
    },
    {
      "channel": 0,
      "note": 67,
      "start": 69.8482,
      "duration": 0.1118,
      "velocity": 107,
      "chip": "ym2612"
    },
    {
      "channel": 3,
      "note": 67,
      "start": 69.9313,
      "duration": 0.1122,
      "velocity": 107,
      "chip": "ym2612"
    },
    {
      "channel": 0,
      "note": 66,
      "start": 69.9976,
      "duration": 0.1125,
      "velocity": 103,
      "chip": "ym2612"
    },
    {
      "channel": 2,
      "note": 81,
      "start": 70.0004,
      "duration": 0.1099,
      "velocity": 121,
      "chip": "ym2612"
    },
    {
      "channel": 5,
      "note": 53,
      "start": 70.0034,
      "duration": 0.1735,
      "velocity": 125,
      "chip": "ym2612"
    },
    {
      "channel": 3,
      "note": 67,
      "start": 70.0652,
      "duration": 0.1116,
      "velocity": 107,
      "chip": "ym2612"
    },
    {
      "channel": 0,
      "note": 65,
      "start": 70.1475,
      "duration": 0.1126,
      "velocity": 107,
      "chip": "ym2612"
    },
    {
      "channel": 2,
      "note": 81,
      "start": 70.1502,
      "duration": 0.1102,
      "velocity": 121,
      "chip": "ym2612"
    },
    {
      "channel": 3,
      "note": 66,
      "start": 70.2145,
      "duration": 0.1123,
      "velocity": 103,
      "chip": "ym2612"
    },
    {
      "channel": 0,
      "note": 64,
      "start": 70.2814,
      "duration": 0.112,
      "velocity": 107,
      "chip": "ym2612"
    },
    {
      "channel": 2,
      "note": 81,
      "start": 70.2841,
      "duration": 0.1097,
      "velocity": 121,
      "chip": "ym2612"
    },
    {
      "channel": 3,
      "note": 65,
      "start": 70.3644,
      "duration": 0.1125,
      "velocity": 107,
      "chip": "ym2612"
    },
    {
      "channel": 0,
      "note": 64,
      "start": 70.4311,
      "duration": 0.1122,
      "velocity": 97,
      "chip": "ym2612"
    },
    {
      "channel": 2,
      "note": 81,
      "start": 70.4342,
      "duration": 0.1095,
      "velocity": 121,
      "chip": "ym2612"
    },
    {
      "channel": 3,
      "note": 64,
      "start": 70.4984,
      "duration": 0.1119,
      "velocity": 107,
      "chip": "ym2612"
    },
    {
      "channel": 0,
      "note": 63,
      "start": 70.581,
      "duration": 0.1125,
      "velocity": 107,
      "chip": "ym2612"
    },
    {
      "channel": 1,
      "note": 45,
      "start": 70.5837,
      "duration": 0.1099,
      "velocity": 107,
      "chip": "ym2612"
    },
    {
      "channel": 2,
      "note": 81,
      "start": 70.5863,
      "duration": 0.374,
      "velocity": 104,
      "chip": "ym2612"
    },
    {
      "channel": 3,
      "note": 64,
      "start": 70.6482,
      "duration": 0.112,
      "velocity": 85,
      "chip": "ym2612"
    },
    {
      "channel": 0,
      "note": 62,
      "start": 70.7148,
      "duration": 0.112,
      "velocity": 107,
      "chip": "ym2612"
    },
    {
      "channel": 1,
      "note": 45,
      "start": 70.7175,
      "duration": 0.1093,
      "velocity": 107,
      "chip": "ym2612"
    },
    {
      "channel": 3,
      "note": 63,
      "start": 70.7979,
      "duration": 0.1123,
      "velocity": 107,
      "chip": "ym2612"
    },
    {
      "channel": 0,
      "note": 61,
      "start": 70.8644,
      "duration": 0.1123,
      "velocity": 103,
      "chip": "ym2612"
    },
    {
      "channel": 3,
      "note": 62,
      "start": 70.9317,
      "duration": 0.1284,
      "velocity": 107,
      "chip": "ym2612"
    },
    {
      "channel": 0,
      "note": 60,
      "start": 71.0143,
      "duration": 0.1125,
      "velocity": 107,
      "chip": "ym2612"
    },
    {
      "channel": 1,
      "note": 45,
      "start": 71.017,
      "duration": 0.1099,
      "velocity": 107,
      "chip": "ym2612"
    },
    {
      "channel": 2,
      "note": 81,
      "start": 71.0196,
      "duration": 0.1076,
      "velocity": 104,
      "chip": "ym2612"
    },
    {
      "channel": 3,
      "note": 61,
      "start": 71.0813,
      "duration": 0.1123,
      "velocity": 103,
      "chip": "ym2612"
    },
    {
      "channel": 0,
      "note": 60,
      "start": 71.1478,
      "duration": 0.129,
      "velocity": 97,
      "chip": "ym2612"
    },
    {
      "channel": 5,
      "note": 53,
      "start": 71.1512,
      "duration": 0.1258,
      "velocity": 125,
      "chip": "ym2612"
    },
    {
      "channel": 3,
      "note": 60,
      "start": 71.2314,
      "duration": 0.1121,
      "velocity": 107,
      "chip": "ym2612"
    },
    {
      "channel": 0,
      "note": 59,
      "start": 71.2979,
      "duration": 0.112,
      "velocity": 107,
      "chip": "ym2612"
    },
    {
      "channel": 2,
      "note": 81,
      "start": 71.3006,
      "duration": 0.1097,
      "velocity": 121,
      "chip": "ym2612"
    },
    {
      "channel": 3,
      "note": 60,
      "start": 71.3646,
      "duration": 0.1289,
      "velocity": 85,
      "chip": "ym2612"
    },
    {
      "channel": 0,
      "note": 58,
      "start": 71.4476,
      "duration": 0.1125,
      "velocity": 107,
      "chip": "ym2612"
    },
    {
      "channel": 2,
      "note": 81,
      "start": 71.4503,
      "duration": 0.1101,
      "velocity": 121,
      "chip": "ym2612"
    },
    {
      "channel": 3,
      "note": 59,
      "start": 71.5148,
      "duration": 0.1122,
      "velocity": 107,
      "chip": "ym2612"
    },
    {
      "channel": 0,
      "note": 57,
      "start": 71.5811,
      "duration": 0.1289,
      "velocity": 107,
      "chip": "ym2612"
    },
    {
      "channel": 2,
      "note": 81,
      "start": 71.5838,
      "duration": 0.1265,
      "velocity": 121,
      "chip": "ym2612"
    },
    {
      "channel": 3,
      "note": 58,
      "start": 71.6647,
      "duration": 0.112,
      "velocity": 107,
      "chip": "ym2612"
    },
    {
      "channel": 0,
      "note": 57,
      "start": 71.7315,
      "duration": 0.1119,
      "velocity": 107,
      "chip": "ym2612"
    },
    {
      "channel": 1,
      "note": 45,
      "start": 71.7342,
      "duration": 0.1093,
      "velocity": 107,
      "chip": "ym2612"
    },
    {
      "channel": 2,
      "note": 81,
      "start": 71.7393,
      "duration": 0.521,
      "velocity": 104,
      "chip": "ym2612"
    },
    {
      "channel": 3,
      "note": 57,
      "start": 71.798,
      "duration": 0.1289,
      "velocity": 107,
      "chip": "ym2612"
    },
    {
      "channel": 0,
      "note": 57,
      "start": 71.881,
      "duration": 0.1125,
      "velocity": 107,
      "chip": "ym2612"
    },
    {
      "channel": 1,
      "note": 45,
      "start": 71.8837,
      "duration": 0.1099,
      "velocity": 107,
      "chip": "ym2612"
    },
    {
      "channel": 3,
      "note": 57,
      "start": 71.9483,
      "duration": 0.1119,
      "velocity": 107,
      "chip": "ym2612"
    },
    {
      "channel": 0,
      "note": 57,
      "start": 72.0144,
      "duration": 0.1291,
      "velocity": 107,
      "chip": "ym2612"
    },
    {
      "channel": 3,
      "note": 57,
      "start": 72.0979,
      "duration": 0.1123,
      "velocity": 107,
      "chip": "ym2612"
    },
    {
      "channel": 0,
      "note": 57,
      "start": 72.1647,
      "duration": 0.1121,
      "velocity": 107,
      "chip": "ym2612"
    },
    {
      "channel": 1,
      "note": 45,
      "start": 72.1674,
      "duration": 0.1095,
      "velocity": 107,
      "chip": "ym2612"
    },
    {
      "channel": 3,
      "note": 57,
      "start": 72.2312,
      "duration": 0.129,
      "velocity": 107,
      "chip": "ym2612"
    },
    {
      "channel": 0,
      "note": 57,
      "start": 72.3143,
      "duration": 0.1125,
      "velocity": 107,
      "chip": "ym2612"
    },
    {
      "channel": 2,
      "note": 81,
      "start": 72.3171,
      "duration": 0.11,
      "velocity": 121,
      "chip": "ym2612"
    },
    {
      "channel": 5,
      "note": 53,
      "start": 72.3201,
      "duration": 0.1736,
      "velocity": 125,
      "chip": "ym2612"
    },
    {
      "channel": 3,
      "note": 57,
      "start": 72.3816,
      "duration": 0.112,
      "velocity": 107,
      "chip": "ym2612"
    },
    {
      "channel": 0,
      "note": 57,
      "start": 72.4477,
      "duration": 0.1291,
      "velocity": 107,
      "chip": "ym2612"
    },
    {
      "channel": 2,
      "note": 81,
      "start": 72.4503,
      "duration": 0.1268,
      "velocity": 121,
      "chip": "ym2612"
    },
    {
      "channel": 3,
      "note": 57,
      "start": 72.5312,
      "duration": 0.1123,
      "velocity": 107,
      "chip": "ym2612"
    },
    {
      "channel": 0,
      "note": 57,
      "start": 72.598,
      "duration": 0.112,
      "velocity": 107,
      "chip": "ym2612"
    },
    {
      "channel": 2,
      "note": 81,
      "start": 72.6007,
      "duration": 0.1097,
      "velocity": 121,
      "chip": "ym2612"
    },
    {
      "channel": 3,
      "note": 57,
      "start": 72.6645,
      "duration": 0.129,
      "velocity": 107,
      "chip": "ym2612"
    },
    {
      "channel": 0,
      "note": 57,
      "start": 72.7475,
      "duration": 0.1126,
      "velocity": 107,
      "chip": "ym2612"
    },
    {
      "channel": 2,
      "note": 81,
      "start": 72.7505,
      "duration": 0.1099,
      "velocity": 121,
      "chip": "ym2612"
    },
    {
      "channel": 3,
      "note": 57,
      "start": 72.8149,
      "duration": 0.1119,
      "velocity": 107,
      "chip": "ym2612"
    },
    {
      "channel": 0,
      "note": 57,
      "start": 72.8811,
      "duration": 0.1291,
      "velocity": 103,
      "chip": "ym2612"
    },
    {
      "channel": 1,
      "note": 45,
      "start": 72.8838,
      "duration": 0.1265,
      "velocity": 107,
      "chip": "ym2612"
    },
    {
      "channel": 2,
      "note": 81,
      "start": 72.8864,
      "duration": 0.3905,
      "velocity": 104,
      "chip": "ym2612"
    },
    {
      "channel": 3,
      "note": 57,
      "start": 72.9645,
      "duration": 0.1123,
      "velocity": 107,
      "chip": "ym2612"
    },
    {
      "channel": 0,
      "note": 57,
      "start": 73.0311,
      "duration": 0.1123,
      "velocity": 107,
      "chip": "ym2612"
    },
    {
      "channel": 1,
      "note": 45,
      "start": 73.0343,
      "duration": 0.1093,
      "velocity": 107,
      "chip": "ym2612"
    },
    {
      "channel": 3,
      "note": 57,
      "start": 73.0979,
      "duration": 0.1289,
      "velocity": 103,
      "chip": "ym2612"
    },
    {
      "channel": 0,
      "note": 57,
      "start": 73.1809,
      "duration": 0.1125,
      "velocity": 103,
      "chip": "ym2612"
    },
    {
      "channel": 3,
      "note": 57,
      "start": 73.248,
      "duration": 0.1121,
      "velocity": 107,
      "chip": "ym2612"
    },
    {
      "channel": 0,
      "note": 57,
      "start": 73.3141,
      "duration": 0.1294,
      "velocity": 107,
      "chip": "ym2612"
    },
    {
      "channel": 1,
      "note": 45,
      "start": 73.3168,
      "duration": 0.1268,
      "velocity": 107,
      "chip": "ym2612"
    },
    {
      "channel": 2,
      "note": 81,
      "start": 73.3194,
      "duration": 0.1244,
      "velocity": 104,
      "chip": "ym2612"
    },
    {
      "channel": 3,
      "note": 57,
      "start": 73.3979,
      "duration": 0.1123,
      "velocity": 103,
      "chip": "ym2612"
    },
    {
      "channel": 0,
      "note": 57,
      "start": 73.4643,
      "duration": 0.1124,
      "velocity": 107,
      "chip": "ym2612"
    },
    {
      "channel": 1,
      "note": 45,
      "start": 73.4668,
      "duration": 0.11,
      "velocity": 107,
      "chip": "ym2612"
    },
    {
      "channel": 5,
      "note": 53,
      "start": 73.4699,
      "duration": 0.1072,
      "velocity": 125,
      "chip": "ym2612"
    },
    {
      "channel": 3,
      "note": 57,
      "start": 73.5311,
      "duration": 0.129,
      "velocity": 107,
      "chip": "ym2612"
    },
    {
      "channel": 0,
      "note": 57,
      "start": 73.6147,
      "duration": 0.112,
      "velocity": 97,
      "chip": "ym2612"
    },
    {
      "channel": 1,
      "note": 45,
      "start": 73.6173,
      "duration": 0.1096,
      "velocity": 107,
      "chip": "ym2612"
    },
    {
      "channel": 2,
      "note": 81,
      "start": 73.6198,
      "duration": 0.1074,
      "velocity": 121,
      "chip": "ym2612"
    },
    {
      "channel": 3,
      "note": 57,
      "start": 73.6813,
      "duration": 0.1122,
      "velocity": 107,
      "chip": "ym2612"
    },
    {
      "channel": 0,
      "note": 57,
      "start": 73.7642,
      "duration": 0.1126,
      "velocity": 107,
      "chip": "ym2612"
    },
    {
      "channel": 1,
      "note": 45,
      "start": 73.7668,
      "duration": 0.1102,
      "velocity": 107,
      "chip": "ym2612"
    },
    {
      "channel": 2,
      "note": 81,
      "start": 73.7693,
      "duration": 0.1079,
      "velocity": 121,
      "chip": "ym2612"
    },
    {
      "channel": 3,
      "note": 57,
      "start": 73.8318,
      "duration": 0.1117,
      "velocity": 85,
      "chip": "ym2612"
    },
    {
      "channel": 0,
      "note": 57,
      "start": 73.8974,
      "duration": 0.1126,
      "velocity": 107,
      "chip": "ym2612"
    },
    {
      "channel": 1,
      "note": 45,
      "start": 73.9002,
      "duration": 0.11,
      "velocity": 107,
      "chip": "ym2612"
    },
    {
      "channel": 2,
      "note": 81,
      "start": 73.9026,
      "duration": 0.1078,
      "velocity": 121,
      "chip": "ym2612"
    },
    {
      "channel": 3,
      "note": 57,
      "start": 73.9812,
      "duration": 0.044,
      "velocity": 107,
      "chip": "ym2612"
    }
  ]
}